<svg xmlns="http://www.w3.org/2000/svg" width="1200" height="1200" fill="none" viewBox="0 0 1200 1200"><g clip-path="url(#a)"><path fill="#000" d="M1050 150H150c-55 0-100 45-100 100v100c0 27.5 22.5 50 50 50s50-22.5 50-50v-50c0-27.5 22.5-50 50-50h800c27.5 0 50 22.5 50 50v600c0 27.5-22.5 50-50 50H750c-27.5 0-50 22.5-50 50s22.5 50 50 50h300c55 0 100-45 100-100V250c0-55-45-100-100-100M107 704.5c-30-5-57 19.5-57 50 0 24.5 18 45 42.5 49 104 18 186 100 204 204 4 24.5 24.5 42.5 49 42.5 30.5 0 54.5-27 50-57-24-148-141-264.5-288.5-288.5M50 900v150h150c0-83-67-150-150-150m55-397.5c-29.5-2.5-55 20.5-55 50 0 25.5 19 47 44 49.5 213.5 20.5 383.5 190.5 404 404 2.5 25 24 43.5 49.5 43.5 30 0 53-26 50-55.5C571 734.5 364.5 528.5 105 502.5"/></g><defs><clipPath id="a"><path fill="#fff" d="M0 0h1200v1200H0z"/></clipPath></defs></svg>