<svg xmlns="http://www.w3.org/2000/svg" width="1200" height="1200" fill="none" viewBox="0 0 1200 1200"><g clip-path="url(#a)"><path fill="#000" d="M1050 100H150c-55 0-100 45-100 100v600c0 55 45 100 100 100h350v100h-50c-27.5 0-50 22.5-50 50s22.5 50 50 50h300c27.5 0 50-22.5 50-50s-22.5-50-50-50h-50V900h350c55 0 100-45 100-100V200c0-55-45-100-100-100m-50 700H200c-27.5 0-50-22.5-50-50V250c0-27.5 22.5-50 50-50h800c27.5 0 50 22.5 50 50v500c0 27.5-22.5 50-50 50"/></g><defs><clipPath id="a"><path fill="#fff" d="M0 0h1200v1200H0z"/></clipPath></defs></svg>