<svg width="1200" height="1200" viewBox="0 0 1200 1200" fill="none" xmlns="http://www.w3.org/2000/svg"><g clip-path="url(#clip0_133_29)"><path d="M1100 250H100.5L100 950H1100V250ZM550 400H650V500H550V400ZM550 550H650V650H550V550ZM400 400H500V500H400V400ZM400 550H500V650H400V550ZM350 650H250V550H350V650ZM350 500H250V400H350V500ZM800 850H400V750H800V850ZM800 650H700V550H800V650ZM800 500H700V400H800V500ZM950 650H850V550H950V650ZM950 500H850V400H950V500Z" fill="#1D1E23"/></g><defs><clipPath id="clip0_133_29"><path width="24" fill="white" d="M0 0H1200V1200H0V0z"/></clipPath></defs></svg>