<svg xmlns="http://www.w3.org/2000/svg" width="1200" height="1200" fill="none"><g clip-path="url(#a)"><path fill="#1D1E23" d="M200 350c0-27.5 22.5-50 50-50h800c27.5 0 50-22.5 50-50s-22.5-50-50-50H200c-55 0-100 45-100 100v550H75c-41.5 0-75 33.5-75 75s33.5 75 75 75h550c41.5 0 75-33.5 75-75s-33.5-75-75-75H200zm950 50H850c-27.5 0-50 22.5-50 50v500c0 27.5 22.5 50 50 50h300c27.5 0 50-22.5 50-50V450c0-27.5-22.5-50-50-50m-50 450H900V500h200z"/></g><defs><clipPath id="a"><path fill="#fff" d="M0 0h1200v1200H0z"/></clipPath></defs></svg>