<svg xmlns="http://www.w3.org/2000/svg" width="1200" height="1200" fill="none"><g clip-path="url(#a)"><path fill="#000" d="M950 400H250c-83 0-150 67-150 150v200c0 55 45 100 100 100h100v100c0 55 45 100 100 100h400c55 0 100-45 100-100V850h100c55 0 100-45 100-100V550c0-83-67-150-150-150M750 950H450c-27.5 0-50-22.5-50-50V700h400v200c0 27.5-22.5 50-50 50m200-350c-27.5 0-50-22.5-50-50s22.5-50 50-50 50 22.5 50 50-22.5 50-50 50M850 150H350c-27.5 0-50 22.5-50 50v100c0 27.5 22.5 50 50 50h500c27.5 0 50-22.5 50-50V200c0-27.5-22.5-50-50-50"/></g><defs><clipPath id="a"><path fill="#fff" d="M0 0h1200v1200H0z"/></clipPath></defs></svg>