<svg width="1200" height="1200" viewBox="0 0 1200 1200" fill="none" xmlns="http://www.w3.org/2000/svg"><g clip-path="url(#clip0_238_1268)"><path d="M559.5 68L209.5 223.5C173.5 239.5 150 275.5 150 315V550C150 827.5 342 1087 600 1150C858 1087 1050 827.5 1050 550V315C1050 275.5 1026.5 239.5 990.5 223.5L640.5 68C615 56.5 585 56.5 559.5 68ZM600 599.5H950C923.5 805.5 786 989 600 1046.5V600H250V315L600 159.5V599.5Z" fill="black"/></g><defs><clipPath id="clip0_238_1268"><path width="24" fill="white" d="M0 0H1200V1200H0V0z"/></clipPath></defs></svg>