<svg viewBox="0 0 24 24" fill="none" xmlns="http://www.w3.org/2000/svg"><g><path fill-rule="evenodd" clip-rule="evenodd" d="M21 3V4H22C22.55 4 23 4.45 23 5C23 5.55 22.55 6 22 6H21V7C21 7.55 20.55 8 20 8C19.45 8 19 7.55 19 7V6H18C17.45 6 17 5.55 17 5C17 4.45 17.45 4 18 4H19V3C19 2.45 19.45 2 20 2C20.55 2 21 2.45 21 3ZM18.99 11C18.99 12.66 17.66 14 16 14C14.34 14 13 12.66 13 11C13 9.34 14.34 8 16 8C17.66 8 18.99 9.34 18.99 11ZM10.99 11C10.99 12.66 9.66 14 8 14C6.34 14 5 12.66 5 11C5 9.34 6.34 8 8 8C9.66 8 10.99 9.34 10.99 11ZM1 19.5C1 17.17 5.67 16 8 16C10.33 16 15 17.17 15 19.5V21C15 21.55 14.55 22 14 22H2C1.45 22 1 21.55 1 21V19.5ZM15.03 16.05C15.38 16.02 15.71 16 16 16C18.33 16 23 17.17 23 19.5V21C23 21.55 22.55 22 22 22H16.82C16.93 21.69 17 21.35 17 21V19.5C17 18.03 16.21 16.92 15.07 16.09C15.067 16.087 15.0639 16.083 15.0606 16.0787C15.053 16.0688 15.0439 16.057 15.03 16.05Z" fill="#1D1E23"/></g></svg>