<svg viewBox="0 0 24 24" fill="none" xmlns="http://www.w3.org/2000/svg"><g><path fill-rule="evenodd" clip-rule="evenodd" d="M21 2V4H23V6H21V8H19V6H17V4H19V2H21ZM18.99 11C18.99 12.66 17.66 14 16 14C14.34 14 13 12.66 13 11C13 9.34 14.34 8 16 8C17.66 8 18.99 9.34 18.99 11ZM10.99 11C10.99 12.66 9.66 14 8 14C6.34 14 5 12.66 5 11C5 9.34 6.34 8 8 8C9.66 8 10.99 9.34 10.99 11ZM1 19.5C1 17.17 5.67 16 8 16C10.33 16 15 17.17 15 19.5V22H1V19.5ZM15.03 16.05C15.38 16.02 15.71 16 16 16C18.33 16 23 17.17 23 19.5V22H17V19.5C17 18.02 16.19 16.89 15.03 16.05Z" fill="#1D1E23"/></g></svg>