<svg viewBox="0 0 24 24" fill="none" xmlns="http://www.w3.org/2000/svg"><g><path fill-rule="evenodd" clip-rule="evenodd" d="M12 3.80195C14.6699 3.80195 14.9863 3.81211 16.0406 3.86016C17.0172 3.90469 17.5453 4.06758 17.8977 4.2043C18.3319 4.36473 18.7247 4.62033 19.0473 4.95234C19.3794 5.2747 19.635 5.6674 19.7953 6.10156C19.9324 6.45312 20.0953 6.9832 20.1398 7.9582C20.1879 9.01289 20.198 9.32891 20.198 11.9992C20.198 14.6695 20.1879 14.9855 20.1398 16.0402C20.0953 17.0168 19.9324 17.5445 19.7953 17.8969C19.629 18.3282 19.3742 18.7199 19.0474 19.0468C18.7205 19.3737 18.3289 19.6285 17.8977 19.7949C17.5461 19.9316 17.0156 20.0945 16.0406 20.1391C14.9859 20.1871 14.6703 20.1973 12 20.1973C9.32969 20.1973 9.01327 20.1871 7.95898 20.1391C6.98241 20.0945 6.45468 19.9316 6.10233 19.7949C5.67113 19.6288 5.27949 19.3742 4.95259 19.0476C4.6257 18.7209 4.3708 18.3295 4.20429 17.8984C4.06718 17.5469 3.90429 17.0168 3.86015 16.0418C3.81171 14.9871 3.80156 14.6711 3.80156 12.0008C3.80156 9.33047 3.81171 9.01445 3.86015 7.95977C3.90429 6.9832 4.06718 6.45547 4.20429 6.10313C4.36452 5.66868 4.62014 5.27571 4.95234 4.95312C5.27513 4.62118 5.66804 4.3656 6.10233 4.20508C6.4539 4.06836 6.98398 3.90547 7.95898 3.86094C9.01366 3.81289 9.32969 3.80273 12 3.80273V3.80195ZM12 2.00078C9.28398 2.00078 8.94336 2.01211 7.87695 2.06094C6.81054 2.10977 6.08554 2.27852 5.4496 2.52578C4.78223 2.77703 4.17769 3.17082 3.67812 3.67969C3.16952 4.17917 2.776 4.78358 2.525 5.45078C2.27773 6.08672 2.10859 6.81367 2.06015 7.87812C2.01171 8.94258 2 9.28437 2 12.0012C2 14.718 2.01132 15.0574 2.06015 16.1242C2.10898 17.191 2.27773 17.9156 2.525 18.5516C2.78185 19.2159 3.17469 19.8192 3.67832 20.3228C4.18196 20.8265 4.78528 21.2193 5.4496 21.4762C6.08554 21.7234 6.8125 21.8926 7.87695 21.941C8.9414 21.9895 9.2832 22.0012 12 22.0012C14.7168 22.0012 15.0562 21.9898 16.123 21.941C17.1898 21.8922 17.9141 21.7234 18.5504 21.4762C19.2146 21.2192 19.8179 20.8263 20.3215 20.3227C20.8251 19.819 21.218 19.2158 21.475 18.5516C21.7223 17.9156 21.891 17.1887 21.9398 16.1242C21.9887 15.0598 22 14.718 22 12.0012C22 9.28437 21.9883 8.94492 21.9398 7.87812C21.8914 6.81133 21.7223 6.08672 21.475 5.45078C21.2238 4.78356 20.8302 4.17915 20.3215 3.67969C19.822 3.17098 19.2176 2.77732 18.5504 2.52617C17.9141 2.27891 17.1871 2.10977 16.123 2.06133C15.059 2.01289 14.7156 2 12 2V2.00078ZM12 6.86485C10.9844 6.86485 9.99153 7.16602 9.14706 7.73028C8.30259 8.29453 7.6444 9.09653 7.25573 10.0349C6.86707 10.9732 6.76538 12.0057 6.96352 13.0018C7.16166 13.9979 7.65074 14.9129 8.3689 15.6311C9.08707 16.3493 10.0021 16.8383 10.9982 17.0365C11.9943 17.2346 13.0268 17.1329 13.9651 16.7443C14.9035 16.3556 15.7055 15.6974 16.2697 14.8529C16.834 14.0085 17.1352 13.0156 17.1352 12C17.1352 10.6381 16.5941 9.33193 15.6311 8.3689C14.6681 7.40587 13.3619 6.86485 12 6.86485ZM12 15.3332C11.3408 15.3332 10.6963 15.1377 10.1482 14.7715C9.60003 14.4052 9.17281 13.8846 8.92053 13.2756C8.66824 12.6665 8.60224 11.9963 8.73085 11.3497C8.85946 10.7031 9.17691 10.1092 9.64307 9.64307C10.1092 9.17691 10.7031 8.85946 11.3497 8.73084C11.9963 8.60223 12.6665 8.66824 13.2756 8.92052C13.8846 9.17281 14.4052 9.60003 14.7715 10.1482C15.1377 10.6963 15.3332 11.3408 15.3332 12C15.3332 12.884 14.982 13.7318 14.3569 14.3569C13.7318 14.982 12.884 15.3332 12 15.3332ZM18.5379 6.6621C18.5379 7.32485 18.0006 7.86211 17.3379 7.86211C16.6751 7.86211 16.1379 7.32485 16.1379 6.6621C16.1379 5.99936 16.6751 5.4621 17.3379 5.4621C18.0006 5.4621 18.5379 5.99936 18.5379 6.6621Z" fill="#1D1E23"/></g></svg>