<svg viewBox="0 0 24 24" fill="none" xmlns="http://www.w3.org/2000/svg"><g><path fill-rule="evenodd" clip-rule="evenodd" d="M12.9999 15C12.9999 15.55 12.5499 16 11.9999 16C11.4499 16 10.9999 15.55 10.9999 15V4.99996H9.20994C8.75994 4.99996 8.53994 4.45996 8.84994 4.14996L11.6399 1.35996C11.8399 1.15996 12.1499 1.15996 12.3499 1.35996L15.1399 4.14996C15.4599 4.45996 15.2399 4.99996 14.7899 4.99996H12.9999V15ZM16 8H18C19.1 8 20 8.9 20 10V21C20 22.1 19.1 23 18 23H6C4.9 23 4 22.1 4 21V10C4 8.9 4.9 8 6 8H8C8.55 8 9 8.45 9 9C9 9.55 8.55 10 8 10H6V21H18V10H16C15.45 10 15 9.55 15 9C15 8.45 15.45 8 16 8Z" fill="#1D1E23"/></g></svg>