<svg viewBox="0 0 24 24" fill="none" xmlns="http://www.w3.org/2000/svg"><g><path d="M19.0408 19.0413H16.0776V14.4004C16.0776 13.2937 16.0577 11.8691 14.5362 11.8691C12.9928 11.8691 12.7565 13.075 12.7565 14.3199V19.0409H9.79327V9.4973H12.6382V10.8016H12.6772C12.9619 10.3149 13.3733 9.91446 13.8675 9.64303C14.3618 9.3716 14.9204 9.23929 15.4838 9.26019C18.4873 9.26019 19.0412 11.2356 19.0412 13.8058L19.0408 19.0413ZM6.44956 8.19302C6.10963 8.19302 5.77733 8.09222 5.49469 7.90336C5.21205 7.7145 4.99175 7.44607 4.86167 7.13202C4.73158 6.81796 4.69754 6.47238 4.76386 6.13898C4.83018 5.80558 4.99387 5.49933 5.23423 5.25896C5.4746 5.01859 5.78085 4.8549 6.11426 4.78858C6.44766 4.72227 6.79324 4.7563 7.1073 4.88639C7.42135 5.01648 7.68978 5.23677 7.87864 5.51941C8.06749 5.80206 8.16829 6.13436 8.16829 6.47429C8.16829 6.93012 7.98721 7.36729 7.66488 7.68961C7.34256 8.01194 6.9054 8.19302 6.44956 8.19302ZM7.93118 19.0413H4.96481V9.4973H7.93118V19.0413ZM20.5181 2.00012H3.47577C3.08894 1.99585 2.71624 2.14529 2.43953 2.41563C2.16283 2.68597 2.00474 3.05509 2 3.4419V20.5565C2.00453 20.9436 2.16251 21.313 2.43922 21.5836C2.71593 21.8542 3.08874 22.004 3.47577 21.9999H20.5181C20.9059 22.0047 21.2798 21.8554 21.5576 21.5848C21.8354 21.3141 21.9944 20.9443 21.9998 20.5565V3.4419C21.9942 3.05432 21.8351 2.68479 21.5573 2.41447C21.2795 2.14414 20.9057 1.99511 20.5181 2.00012Z" fill="#1D1E23"/></g></svg>