<svg viewBox="0 0 24 24" fill="none" xmlns="http://www.w3.org/2000/svg"><g><path fill-rule="evenodd" clip-rule="evenodd" d="M13.2812 11.6793C13.2812 14.816 10.7559 17.3586 7.64102 17.3586C4.52618 17.3586 2 14.816 2 11.6793C2 8.54258 4.52579 6 7.64102 6C10.7563 6 13.2812 8.54297 13.2812 11.6793ZM19.4692 11.6793C19.4692 14.6316 18.2066 17.0262 16.6488 17.0262C15.091 17.0262 13.8285 14.6316 13.8285 11.6793C13.8285 8.72694 15.091 6.3328 16.6488 6.3328C18.2066 6.3328 19.4692 8.72616 19.4692 11.6793ZM21.0082 16.4691C21.5563 16.4691 22 14.3238 22 11.6793C22 9.03398 21.5559 6.88944 21.0082 6.88944C20.4606 6.88944 20.0164 9.03398 20.0164 11.6793C20.0164 14.3246 20.4602 16.4691 21.0082 16.4691Z" fill="#1D1E23"/></g></svg>