<svg viewBox="0 0 24 24" fill="none" xmlns="http://www.w3.org/2000/svg"><g><path fill-rule="evenodd" clip-rule="evenodd" d="M17 4C17 3.45 17.45 3 18 3H22C22.55 3 23 3.45 23 4C23 4.55 22.55 5 22 5H18C17.45 5 17 4.55 17 4ZM18.99 10C18.99 11.66 17.66 13 16 13C14.34 13 13 11.66 13 10C13 8.34 14.34 7 16 7C17.66 7 18.99 8.34 18.99 10ZM10.99 10C10.99 11.66 9.66 13 8 13C6.34 13 5 11.66 5 10C5 8.34 6.34 7 8 7C9.66 7 10.99 8.34 10.99 10ZM1 18.5C1 16.17 5.67 15 8 15C10.33 15 15 16.17 15 18.5V20C15 20.55 14.55 21 14 21H2C1.45 21 1 20.55 1 20V18.5ZM15.03 15.05C15.38 15.02 15.71 15 16 15C18.33 15 23 16.17 23 18.5V20C23 20.55 22.55 21 22 21H16.82C16.93 20.69 17 20.35 17 20V18.5C17 17.03 16.21 15.92 15.07 15.09C15.067 15.087 15.0639 15.083 15.0606 15.0787C15.053 15.0688 15.0439 15.057 15.03 15.05Z" fill="#1D1E23"/></g></svg>