<svg viewBox="0 0 24 24" fill="none" xmlns="http://www.w3.org/2000/svg"><g><path fill-rule="evenodd" clip-rule="evenodd" d="M17 5V3H23V5H17ZM18.99 10C18.99 11.66 17.66 13 16 13C14.34 13 13 11.66 13 10C13 8.34 14.34 7 16 7C17.66 7 18.99 8.34 18.99 10ZM10.99 10C10.99 11.66 9.66 13 8 13C6.34 13 5 11.66 5 10C5 8.34 6.34 7 8 7C9.66 7 10.99 8.34 10.99 10ZM1 18.5C1 16.17 5.67 15 8 15C10.33 15 15 16.17 15 18.5V21H1V18.5ZM15.03 15.05C15.38 15.02 15.71 15 16 15C18.33 15 23 16.17 23 18.5V21H17V18.5C17 17.02 16.19 15.89 15.03 15.05Z" fill="#1D1E23"/></g></svg>