<svg viewBox="0 0 24 24" fill="none" xmlns="http://www.w3.org/2000/svg"><g><path d="M22 5.92092C21.2511 6.25262 20.4568 6.47038 19.6435 6.56698C20.5002 6.05429 21.1413 5.24758 21.4473 4.29719C20.6419 4.77511 19.7608 5.11184 18.842 5.29283C18.2233 4.63522 17.4052 4.1998 16.5142 4.05395C15.6232 3.90809 14.709 4.05993 13.9129 4.48596C13.1169 4.912 12.4834 5.58848 12.1106 6.41076C11.7377 7.23304 11.6462 8.15528 11.8502 9.0348C10.2188 8.95314 8.6228 8.52928 7.16585 7.79074C5.70889 7.05221 4.42355 6.0155 3.39328 4.74794C2.86872 5.6513 2.70805 6.72057 2.94395 7.73819C3.17985 8.75582 3.79461 9.64533 4.66312 10.2257C4.01155 10.2054 3.3743 10.0295 2.80464 9.7125C2.80464 9.72968 2.80464 9.74687 2.80464 9.76406C2.8047 10.7115 3.13251 11.6298 3.73247 12.3631C4.33242 13.0964 5.16757 13.5996 6.09624 13.7873C5.49153 13.952 4.85712 13.976 4.24167 13.8576C4.5033 14.6732 5.01344 15.3866 5.70068 15.8979C6.38791 16.4092 7.21783 16.6928 8.07425 16.709C6.62122 17.8502 4.82646 18.4693 2.97885 18.4667C2.65172 18.4667 2.32488 18.4476 2 18.4093C3.87574 19.6148 6.05893 20.2549 8.28869 20.2529C15.8355 20.2529 19.9626 14.0009 19.9626 8.57858C19.9626 8.40098 19.9587 8.22417 19.9509 8.04814C20.755 7.46661 21.4489 6.74624 22 5.92092Z" fill="#1D1E23"/></g></svg>