<svg xmlns="http://www.w3.org/2000/svg" width="1200" height="1200" fill="none"><path fill="#1D1E23" fill-rule="evenodd" d="M100 1100h1000V372.728L827.275 100H100zm681.82-681.818h227.27v590.908H190.909V190.909H781.82z"/><path fill="#1D1E23" d="m400.014 900-19.801-75.6h-85.949L274.913 900h-68.399l85.049-314.1h95.401l85.05 314.1zm-60.751-248.85h-3.6l-30.599 118.8h64.799z"/><path fill="#1D1E23" d="m660.84 900-19.8-75.6h-85.95L535.74 900h-68.402l85.052-314.1h95.4L732.84 900zm-60.75-248.85h-3.6l-30.6 118.8h64.8zM868.11 905.4q-63 0-93.6-42.3-30.15-42.75-30.15-120.15t30.15-119.7q30.6-42.75 93.6-42.75 24.3 0 42.75 6.75 18.9 6.3 32.4 18t22.05 28.35q9 16.65 13.95 37.35l-63 15.3q-2.7-11.25-6.3-20.7t-9.45-16.2q-5.4-6.75-13.95-10.35-8.1-4.05-19.8-4.05-27.45 0-39.15 21.6-11.25 21.15-11.25 58.95v54.9q0 37.8 11.25 59.4 11.7 21.15 39.15 21.15 23.4 0 33.75-14.4 10.8-14.4 15.75-36.9l63 15.3q-4.95 20.7-13.95 37.35-8.55 16.65-22.05 28.8-13.5 11.7-32.4 18-18.45 6.3-42.75 6.3"/></svg>