<svg xmlns="http://www.w3.org/2000/svg" width="1200" height="1200" fill="none"><path fill="#1D1E23" fill-rule="evenodd" d="M100 1100h1000V372.728L827.275 100H100zm681.82-681.818h227.27v590.908H190.909V190.909H781.82z"/><path fill="#1D1E23" d="m505.425 900-19.799-75.6h-85.95l-19.35 75.6h-68.4l85.05-314.1h95.4L577.425 900zm-60.749-248.85h-3.6l-30.6 118.8h64.8zM662.75 585.9v198.9q0 14.85.9 27.45 1.35 12.15 5.4 20.7 4.5 8.55 13.05 13.5 8.55 4.5 23.4 4.5t23.4-4.5q8.55-4.95 12.6-13.5 4.5-8.55 5.4-20.7 1.35-12.6 1.35-27.45V585.9h67.5v189.9q0 32.4-4.5 56.7-4.05 24.3-16.2 40.5t-33.75 24.3-55.8 8.1-55.8-8.1-33.75-24.3-16.65-40.5q-4.05-24.3-4.05-56.7V585.9z"/></svg>