<svg xmlns="http://www.w3.org/2000/svg" width="1200" height="1200" fill="none"><path fill="#1D1E23" fill-rule="evenodd" d="M100 1100h1000V372.728L827.275 100H100zm681.82-681.818h227.27v590.908H190.909V190.909H781.82z"/><path fill="#1D1E23" d="m400.014 900-19.801-75.6h-85.949L274.913 900h-68.399l85.049-314.1h95.401l85.05 314.1zm-60.751-248.85h-3.6l-30.599 118.8h64.799zM552.39 900l-83.252-314.1h75.152l36.9 159.75 18.45 90.45h3.6l18.9-90.45 37.35-159.75h71.55L647.79 900zM759.66 900v-49.95h67.5v-214.2h-67.5V585.9h202.5v49.95h-67.5v214.2h67.5V900z"/></svg>