<svg xmlns="http://www.w3.org/2000/svg" width="1200" height="1200" fill="none"><path fill="#000" d="M807.965 100h-610.62C143.805 100 100 145 100 200v800c0 55 43.319 100 96.858 100h805.797c53.54 0 97.345-45 97.345-100V400zm194.69 900h-805.31V200H759.29v250h243.365z"/><path fill="#000" d="M238.913 585.9h110.25q46.35 0 70.65 22.5 24.75 22.5 24.751 61.2 0 27-13.5 43.2-13.05 15.75-37.801 22.95v2.7q29.25 7.2 45 25.2 16.201 18 16.201 49.95 0 39.6-25.201 63-24.75 23.4-69.749 23.4H238.913zm99.901 266.85q24.3 0 35.549-8.1 11.25-8.1 11.25-29.7V801.9q0-21.6-11.25-29.7t-35.549-8.1h-34.201v88.65zm-8.55-133.65q23.85 0 34.649-7.65 10.8-8.1 10.801-28.8v-13.5q0-20.7-10.801-28.35t-34.649-7.65h-25.651v85.95zM498.838 900v-49.95h67.502v-214.2h-67.502V585.9H701.34v49.95h-67.5v214.2h67.5V900zM815.91 691.2h-4.95V900h-57.6V585.9h81l71.55 208.8h4.95V585.9h57.6V900h-81z"/></svg>