<svg xmlns="http://www.w3.org/2000/svg" width="1200" height="1200" fill="none"><path fill="#1D1E23" fill-rule="evenodd" d="M100 1100h1000V372.728L827.275 100H100zm681.82-681.818h227.27v590.908H190.909V190.909H781.82z"/><path fill="#1D1E23" d="M238.913 585.9h110.25q46.35 0 70.65 22.5 24.75 22.5 24.751 61.2 0 27-13.5 43.2-13.05 15.75-37.801 22.95v2.7q29.25 7.2 45 25.2 16.201 18 16.201 49.95 0 39.6-25.201 63-24.75 23.4-69.749 23.4H238.913zm99.901 266.85q24.3 0 35.549-8.1 11.25-8.1 11.25-29.7V801.9q0-21.6-11.25-29.7t-35.549-8.1h-34.201v88.65zm-8.55-133.65q23.85 0 34.649-7.65 10.8-8.1 10.801-28.8v-13.5q0-20.7-10.801-28.35t-34.649-7.65h-25.651v85.95zM659.04 760.05l3.6-87.75h-4.05l-58.5 161.55-58.5-161.55h-4.05l3.6 87.75V900h-58.502V585.9h79.652l38.7 105.75h3.6l38.7-105.75h74.25V900h-58.5zM760.11 900V585.9h121.5q22.95 0 40.95 7.2 18 6.75 30.15 19.8 12.6 13.05 18.9 31.5t6.3 41.4-6.3 41.4-18.9 31.5q-12.15 13.05-30.15 20.25-18 6.75-40.95 6.75h-53.55V900zm67.95-168.75h36.45q23.85 0 32.85-9 9.45-9 9.45-29.7v-13.5q0-20.7-9.45-29.7-9-9-32.85-9h-36.45z"/></svg>