<svg xmlns="http://www.w3.org/2000/svg" width="1200" height="1200" fill="none" viewBox="0 0 1200 1200"><path fill="#000" d="M807.965 100h-610.62C143.805 100 100 145 100 200v800c0 55 43.319 100 96.858 100h805.797c53.54 0 97.345-45 97.345-100V400zm194.69 900h-805.31V200H759.29v250h243.365z"/><path fill="#000" d="M346.464 905.4q-63 0-93.601-42.3-30.15-42.75-30.149-120.15t30.149-119.7q30.601-42.75 93.601-42.75 24.299 0 42.75 6.75 18.898 6.3 32.4 18 13.5 11.7 22.049 28.35 9.001 16.65 13.95 37.35l-63 15.3q-2.7-11.25-6.3-20.7t-9.449-16.2q-5.4-6.75-13.951-10.35-8.1-4.05-19.8-4.05-27.45 0-39.149 21.6-11.25 21.15-11.25 58.95v54.9q0 37.8 11.25 59.4 11.7 21.15 39.149 21.15 23.4 0 33.751-14.4 10.799-14.4 15.749-36.9l63 15.3q-4.949 20.7-13.95 37.35-8.549 16.65-22.049 28.8-13.502 11.7-32.4 18-18.451 6.3-42.75 6.3M595.14 905.4q-39.6 0-68.85-13.05-29.251-13.05-47.252-35.55l39.152-43.2q17.1 18.9 37.35 27.9 20.7 9 41.85 9 24.3 0 36.9-10.8t12.6-31.05q0-16.65-9.9-25.2-9.45-8.55-32.4-12.15l-32.85-5.4q-42.3-7.2-61.2-31.05-18.902-24.3-18.902-58.95.001-45.45 29.702-70.2 29.7-25.2 83.25-25.2 36.45 0 63.45 11.25t43.65 30.6l-38.25 42.75q-12.6-13.95-29.7-21.6-17.1-8.1-38.7-8.1-45.45 0-45.45 37.35 0 16.2 9.9 24.3 10.35 8.1 33.3 12.15l32.85 5.85q38.25 6.75 58.95 28.8t20.7 59.4q0 22.05-7.65 40.95-7.65 18.45-22.95 32.4-15.3 13.5-37.8 21.15-22.05 7.65-51.75 7.65M855.96 905.4q-39.6 0-68.85-13.05t-47.25-35.55l39.15-43.2q17.1 18.9 37.35 27.9 20.7 9 41.85 9 24.3 0 36.9-10.8t12.6-31.05q0-16.65-9.9-25.2-9.45-8.55-32.4-12.15l-32.85-5.4q-42.3-7.2-61.2-31.05-18.9-24.3-18.9-58.95 0-45.45 29.7-70.2 29.7-25.2 83.25-25.2 36.45 0 63.45 11.25t43.65 30.6l-38.25 42.75q-12.6-13.95-29.7-21.6-17.1-8.1-38.7-8.1-45.45 0-45.45 37.35 0 16.2 9.9 24.3 10.35 8.1 33.3 12.15l32.85 5.85q38.25 6.75 58.95 28.8t20.7 59.4q0 22.05-7.65 40.95-7.65 18.45-22.95 32.4-15.3 13.5-37.8 21.15-22.05 7.65-51.75 7.65"/></svg>