<svg xmlns="http://www.w3.org/2000/svg" width="1200" height="1200" fill="none" viewBox="0 0 1200 1200"><path fill="#000" d="M807.965 100h-610.62C143.805 100 100 145 100 200v800c0 55 43.319 100 96.858 100h805.797c53.54 0 97.345-45 97.345-100V400zm194.69 900h-805.31V200H759.29v250h243.365z"/><path fill="#000" d="M233.064 585.9h101.25q63.448 0 94.05 40.5 30.6 40.5 30.6 116.55t-30.6 116.55q-30.602 40.5-94.05 40.5h-101.25zm96.749 261q30.15 0 44.1-19.35t13.95-56.25v-57.15q0-36.45-13.95-55.8t-44.1-19.35h-30.15v207.9zM660.84 900l-19.8-75.6h-85.95L535.74 900h-68.402l85.052-314.1h95.4L732.84 900zm-60.75-248.85h-3.6l-30.6 118.8h64.8zM894.66 641.25V900h-67.5V641.25h-90.45V585.9h248.4v55.35z"/></svg>