<svg xmlns="http://www.w3.org/2000/svg" width="1200" height="1200" fill="none" viewBox="0 0 1200 1200"><path fill="#000" d="M807.965 100h-610.62C143.805 100 100 145 100 200v800c0 55 43.319 100 96.858 100h805.797c53.54 0 97.345-45 97.345-100V400zm194.69 900h-805.31V200H759.29v250h243.365z"/><path fill="#000" d="M233.064 585.9h101.25q63.448 0 94.05 40.5 30.6 40.5 30.6 116.55t-30.6 116.55q-30.602 40.5-94.05 40.5h-101.25zm96.749 261q30.15 0 44.1-19.35t13.95-56.25v-57.15q0-36.45-13.95-55.8t-44.1-19.35h-30.15v207.9zM499.738 585.9H609.99q46.35 0 70.65 22.5 24.75 22.5 24.75 61.2 0 27-13.5 43.2-13.05 15.75-37.8 22.95v2.7q29.25 7.2 45 25.2 16.2 18 16.2 49.95 0 39.6-25.2 63-24.75 23.4-69.75 23.4H499.738zm99.902 266.85q24.3 0 35.55-8.1t11.25-29.7V801.9q0-21.6-11.25-29.7t-35.55-8.1h-34.2v88.65zm-8.55-133.65q23.85 0 34.65-7.65 10.8-8.1 10.8-28.8v-13.5q0-20.7-10.8-28.35t-34.65-7.65h-25.65v85.95zM761.91 900V585.9h208.35v55.35H829.41v72h126v55.35h-126V900z"/></svg>