<svg xmlns="http://www.w3.org/2000/svg" width="1200" height="1200" fill="none"><path fill="#1D1E23" fill-rule="evenodd" d="M100 1100h1000V372.728L827.275 100H100zm681.82-681.818h227.27v590.908H190.909V190.909H781.82z"/><path fill="#1D1E23" d="M233.064 585.9h101.25q63.448 0 94.05 40.5 30.6 40.5 30.6 116.55t-30.6 116.55q-30.602 40.5-94.05 40.5h-101.25zm96.749 261q30.15 0 44.1-19.35t13.95-56.25v-57.15q0-36.45-13.95-55.8t-44.1-19.35h-30.15v207.9zM506.49 900V585.9h67.95v258.75h135V900zM767.31 900V585.9h67.95v258.75h135V900z"/></svg>