<svg xmlns="http://www.w3.org/2000/svg" width="1200" height="1200" fill="none"><path fill="#000" fill-rule="evenodd" d="M100 1100h1000V372.728L827.275 100H100zm681.82-681.818h227.27v590.908H190.909V190.909H781.82z"/><path fill="#000" d="M233.064 585.9h101.25q63.448 0 94.05 40.5 30.6 40.5 30.6 116.55t-30.6 116.55q-30.602 40.5-94.05 40.5h-101.25zm96.749 261q30.15 0 44.1-19.35t13.95-56.25v-57.15q0-36.45-13.95-55.8t-44.1-19.35h-30.15v207.9zM600.09 905.4q-63 0-93.15-42.75-29.703-42.75-29.702-119.7t29.702-119.7q30.15-42.75 93.15-42.75t92.7 42.75q30.15 42.75 30.15 119.7t-30.15 119.7q-29.7 42.75-92.7 42.75m0-54.45q28.8 0 39.6-21.15 11.25-21.6 11.25-59.85V715.5q0-37.8-11.25-58.95-10.8-21.6-39.6-21.6t-40.05 21.6q-10.8 21.15-10.8 58.95v54.9q0 37.8 10.8 59.4 11.25 21.15 40.05 21.15M868.11 905.4q-63 0-93.6-42.3-30.15-42.75-30.15-120.15t30.15-119.7q30.6-42.75 93.6-42.75 24.3 0 42.75 6.75 18.9 6.3 32.4 18t22.05 28.35q9 16.65 13.95 37.35l-63 15.3q-2.7-11.25-6.3-20.7t-9.45-16.2q-5.4-6.75-13.95-10.35-8.1-4.05-19.8-4.05-27.45 0-39.15 21.6-11.25 21.15-11.25 58.95v54.9q0 37.8 11.25 59.4 11.7 21.15 39.15 21.15 23.4 0 33.75-14.4 10.8-14.4 15.75-36.9l63 15.3q-4.95 20.7-13.95 37.35-8.55 16.65-22.05 28.8-13.5 11.7-32.4 18-18.45 6.3-42.75 6.3"/></svg>