<svg xmlns="http://www.w3.org/2000/svg" width="1200" height="1200" fill="none"><path fill="#000" fill-rule="evenodd" d="M100 1100h1000V372.728L827.275 100H100zm681.82-681.818h227.27v590.908H190.909V190.909H781.82z"/><path fill="#000" d="M240.804 623.15h73.125q45.825 0 67.925 29.25 22.1 29.251 22.1 84.175t-22.1 84.175T313.929 850h-73.125zm69.875 188.5q21.776-.001 31.85-13.975c6.716-9.315 10.075-22.86 10.075-40.625v-41.275q0-26.326-10.075-40.3t-31.85-13.975h-21.775v150.15zM505.875 853.9q-45.498.001-67.273-30.875-21.45-30.876-21.45-86.45t21.45-86.45q21.775-30.876 67.273-30.875 45.501-.001 66.95 30.875c14.52 20.585 21.775 49.4 21.775 86.45s-7.255 65.865-21.775 86.45q-21.449 30.876-66.95 30.875m0-39.325c13.87 0 23.4-5.09 28.6-15.275 5.42-10.4 8.125-24.81 8.125-43.225V716.75c0-18.2-2.705-32.39-8.125-42.575-5.2-10.4-14.73-15.6-28.6-15.6q-20.797 0-28.923 15.6-7.8 15.276-7.8 42.575v39.65q0 27.3 7.8 42.9 8.126 15.276 28.923 15.275M699.45 853.9c-30.335 0-52.865-10.185-67.6-30.55q-21.774-30.877-21.775-86.775c0-37.265 7.26-66.085 21.775-86.45 14.735-20.585 37.265-30.875 67.6-30.875q17.549 0 30.875 4.875c9.1 3.035 16.9 7.365 23.4 13q9.751 8.453 15.925 20.475c4.335 8.015 7.69 17.01 10.075 26.975l-45.5 11.05q-1.949-8.124-4.55-14.95t-6.825-11.7q-3.901-4.874-10.075-7.475-5.849-2.925-14.3-2.925-19.823 0-28.275 15.6-8.124 15.276-8.125 42.575v39.65q.001 27.3 8.125 42.9 8.452 15.276 28.275 15.275 16.898.001 24.375-10.4c5.2-6.935 8.99-15.815 11.375-26.65l45.5 11.05c-2.385 9.965-5.74 18.96-10.075 26.975q-6.174 12.024-15.925 20.8c-6.5 5.635-14.3 9.965-23.4 13q-13.326 4.551-30.875 4.55M977.2 850h-55.575l-23.4-45.175-15.925-35.75h-2.925l-16.25 35.75L839.075 850H788.05l63.7-117.325-59.475-109.525h55.575l18.525 36.075 16.575 36.4h2.6l16.9-36.4 19.5-36.075h51.025L913.5 733.325z"/></svg>