<svg xmlns="http://www.w3.org/2000/svg" width="1200" height="1200" fill="none"><path fill="#1D1E23" fill-rule="evenodd" d="M100 1100h1000V372.728L827.275 100H100zm681.82-681.818h227.27v590.908H190.909V190.909H781.82z"/><path fill="#1D1E23" d="M233.064 585.9h101.25q63.448 0 94.05 40.5 30.6 40.5 30.6 116.55t-30.6 116.55q-30.602 40.5-94.05 40.5h-101.25zm96.749 261q30.15 0 44.1-19.35t13.95-56.25v-57.15q0-36.45-13.95-55.8t-44.1-19.35h-30.15v207.9zM489.388 900l-19.35-314.1h58.052l9 188.1 2.7 59.4h4.05l27-179.1h60.75l27 179.1h4.05l11.7-247.5h55.8L710.79 900h-85.5l-22.95-173.25h-4.5L574.89 900zM910.86 855.45h-4.05q-4.05 9.9-9.9 18.9t-14.4 16.2q-8.55 6.75-20.25 10.8-11.25 4.05-25.65 4.05-22.95 0-40.95-10.8-17.55-10.8-29.7-31.5t-18.45-50.4q-5.85-29.7-5.85-67.05 0-80.1 29.25-122.4 29.25-42.75 90.45-42.75 24.3 0 42.75 6.75 18.45 6.3 31.5 18.45 13.5 11.7 22.05 28.35t13.5 36.9l-63 15.3q-2.7-9.9-6.3-18.9-3.15-9.45-8.55-16.65t-13.5-11.25q-8.1-4.5-19.8-4.5-25.65 0-36.45 21.15-10.35 21.15-10.35 59.4v51.3q0 38.25 11.25 61.2 11.7 22.95 40.95 22.95 22.95 0 34.2-13.5t11.25-34.65v-22.95h-53.55v-47.7h113.85V900h-60.3z"/></svg>