<svg xmlns="http://www.w3.org/2000/svg" width="1200" height="1200" fill="none"><path fill="#1D1E23" fill-rule="evenodd" d="M100 1100h1000V372.728L827.275 100H100zm681.82-681.818h227.27v590.908H190.909V190.909H781.82z"/><path fill="#1D1E23" d="M240.264 900V585.9h200.699v55.35h-133.2v72h128.7v55.35h-128.7v76.05h133.2V900zM659.04 760.05l3.6-87.75h-4.05l-58.5 161.55-58.5-161.55h-4.05l3.6 87.75V900h-58.502V585.9h79.652l38.7 105.75h3.6l38.7-105.75h74.25V900h-58.5zM767.31 900V585.9h67.95v258.75h135V900z"/></svg>