<svg xmlns="http://www.w3.org/2000/svg" width="1200" height="1200" fill="none"><path fill="#000" fill-rule="evenodd" d="M100 1100h1000V372.728L827.275 100H100zm681.82-681.818h227.27v590.908H190.909V190.909H781.82z"/><path fill="#000" d="M240.264 900V585.9h200.699v55.35h-133.2v72h128.7v55.35h-128.7v76.05h133.2V900zM499.288 900V585.9H620.79q22.95 0 40.95 7.2 18 6.75 30.15 19.8 12.6 13.05 18.9 31.5t6.3 41.4-6.3 41.4-18.9 31.5q-12.15 13.05-30.15 20.25-18 6.75-40.95 6.75h-53.55V900zm67.952-168.75h36.45q23.85 0 32.85-9 9.45-9 9.45-29.7v-13.5q0-20.7-9.45-29.7-9-9-32.85-9h-36.45zM855.96 905.4q-39.6 0-68.85-13.05t-47.25-35.55l39.15-43.2q17.1 18.9 37.35 27.9 20.7 9 41.85 9 24.3 0 36.9-10.8t12.6-31.05q0-16.65-9.9-25.2-9.45-8.55-32.4-12.15l-32.85-5.4q-42.3-7.2-61.2-31.05-18.9-24.3-18.9-58.95 0-45.45 29.7-70.2 29.7-25.2 83.25-25.2 36.45 0 63.45 11.25t43.65 30.6l-38.25 42.75q-12.6-13.95-29.7-21.6-17.1-8.1-38.7-8.1-45.45 0-45.45 37.35 0 16.2 9.9 24.3 10.35 8.1 33.3 12.15l32.85 5.85q38.25 6.75 58.95 28.8t20.7 59.4q0 22.05-7.65 40.95-7.65 18.45-22.95 32.4-15.3 13.5-37.8 21.15-22.05 7.65-51.75 7.65"/></svg>