<svg xmlns="http://www.w3.org/2000/svg" width="1200" height="1200" fill="none"><path fill="#000" d="M807.965 100h-610.62C143.805 100 100 145 100 200v800c0 55 43.319 100 96.858 100h805.797c53.54 0 97.345-45 97.345-100V400zm194.69 900h-805.31V200H759.29v250h243.365z"/><path fill="#000" d="M240.264 900V585.9h200.699v55.35h-133.2v72h128.7v55.35h-128.7v76.05h133.2V900zM731.04 900h-76.95l-32.4-62.55-22.05-49.5h-4.05l-22.5 49.5-33.3 62.55h-70.652l88.202-162.45-82.352-151.65h76.952l25.65 49.95 22.95 50.4h3.6l23.4-50.4 27-49.95h70.65l-82.35 152.55zM761.91 900V585.9h200.7v55.35h-133.2v72h128.7v55.35h-128.7v76.05h133.2V900z"/></svg>