<svg xmlns="http://www.w3.org/2000/svg" width="1200" height="1200" fill="none" viewBox="0 0 1200 1200"><path fill="#000" fill-rule="evenodd" d="M100 1100h1000V372.728L827.275 100H100zm681.82-681.818h227.27v590.908H190.909V190.909H781.82z"/><path fill="#000" d="M240.264 900V585.9h200.699v55.35h-133.2v72h128.7v55.35h-128.7v76.05h133.2V900zM731.04 900h-76.95l-32.4-62.55-22.05-49.5h-4.05l-22.5 49.5-33.3 62.55h-70.652l88.202-162.45-82.352-151.65h76.952l25.65 49.95 22.95 50.4h3.6l23.4-50.4 27-49.95h70.65l-82.35 152.55zM894.66 641.25V900h-67.5V641.25h-90.45V585.9h248.4v55.35z"/></svg>