<svg xmlns="http://www.w3.org/2000/svg" width="1200" height="1200" fill="none"><path fill="#000" d="M807.965 100h-610.62C143.805 100 100 145 100 200v800c0 55 43.319 100 96.858 100h805.797c53.54 0 97.345-45 97.345-100V400zm194.69 900h-805.31V200H759.29v250h243.365z"/><path fill="#000" d="M240.264 900V585.9h208.349v55.35h-140.85v72h126v55.35h-126V900zM506.49 900V585.9h67.95v258.75h135V900zM921.66 900l-19.8-75.6h-85.95L796.56 900h-68.4l85.05-314.1h95.4L993.66 900zm-60.75-248.85h-3.6l-30.6 118.8h64.8z"/></svg>