<svg xmlns="http://www.w3.org/2000/svg" width="1200" height="1200" fill="none"><path fill="#1D1E23" fill-rule="evenodd" d="M100 1100h1000V372.728L827.275 100H100zm681.82-681.818h227.27v590.908H190.909V190.909H781.82z"/><path fill="#1D1E23" d="M246.004 850V623.15h150.475v39.975H294.754v52h91V755.1h-91V850zM505.875 853.9q-45.498.001-67.273-30.875-21.45-30.876-21.45-86.45t21.45-86.45q21.775-30.876 67.273-30.875 45.501-.001 66.95 30.875c14.52 20.585 21.775 49.4 21.775 86.45s-7.255 65.865-21.775 86.45q-21.449 30.876-66.95 30.875m0-39.325c13.87 0 23.4-5.09 28.6-15.275 5.42-10.4 8.125-24.81 8.125-43.225V716.75c0-18.2-2.705-32.39-8.125-42.575-5.2-10.4-14.73-15.6-28.6-15.6q-20.797 0-28.923 15.6-7.8 15.276-7.8 42.575v39.65q0 27.3 7.8 42.9 8.126 15.276 28.923 15.275M617.55 623.15h73.125q45.824 0 67.925 29.25 22.101 29.251 22.1 84.175.001 54.924-22.1 84.175T690.675 850H617.55zm69.875 188.5c14.515 0 25.135-4.66 31.85-13.975s10.075-22.86 10.075-40.625v-41.275q-.001-26.326-10.075-40.3c-6.715-9.315-17.335-13.975-31.85-13.975H665.65v150.15zM918.7 817.825h-2.925a82 82 0 0 1-7.15 13.65q-4.229 6.503-10.4 11.7-6.18 4.875-14.625 7.8-8.13 2.925-18.525 2.925-16.576 0-29.575-7.8-12.675-7.801-21.45-22.75c-5.85-9.965-10.295-22.1-13.325-36.4-2.82-14.3-4.225-30.44-4.225-48.425 0-38.565 7.04-68.035 21.125-88.4q21.12-30.876 65.325-30.875 17.549 0 30.875 4.875 13.321 4.551 22.75 13.325c6.5 5.635 11.805 12.46 15.925 20.475q6.173 12.024 9.75 26.65l-45.5 11.05a127 127 0 0 0-4.55-13.65c-1.52-4.55-3.575-8.56-6.175-12.025q-3.9-5.199-9.75-8.125c-3.9-2.165-8.67-3.25-14.3-3.25q-18.525-.001-26.325 15.275-7.476 15.278-7.475 42.9v37.05c0 18.415 2.705 33.15 8.125 44.2q8.446 16.575 29.575 16.575c11.05 0 19.28-3.25 24.7-9.75q8.124-9.749 8.125-25.025v-16.575h-38.675v-34.45h82.225V850H918.7z"/></svg>