<svg xmlns="http://www.w3.org/2000/svg" width="1200" height="1200" fill="none"><path fill="#1D1E23" fill-rule="evenodd" d="M100 1100h1000V372.728L827.275 100H100zm681.82-681.818h227.27v590.908H190.909V190.909H781.82z"/><path fill="#1D1E23" d="M246.004 850V623.15h150.475v39.975H294.754v52h91V755.1h-91V850zM505.875 853.9q-45.498.001-67.273-30.875-21.45-30.876-21.45-86.45t21.45-86.45q21.775-30.876 67.273-30.875 45.501-.001 66.95 30.875c14.52 20.585 21.775 49.4 21.775 86.45s-7.255 65.865-21.775 86.45q-21.449 30.876-66.95 30.875m0-39.325c13.87 0 23.4-5.09 28.6-15.275 5.42-10.4 8.125-24.81 8.125-43.225V716.75c0-18.2-2.705-32.39-8.125-42.575-5.2-10.4-14.73-15.6-28.6-15.6q-20.797 0-28.923 15.6-7.8 15.276-7.8 42.575v39.65q0 27.3 7.8 42.9 8.126 15.276 28.923 15.275M617.55 623.15h73.125q45.824 0 67.925 29.25 22.101 29.251 22.1 84.175.001 54.924-22.1 84.175T690.675 850H617.55zm69.875 188.5c14.515 0 25.135-4.66 31.85-13.975s10.075-22.86 10.075-40.625v-41.275q-.001-26.326-10.075-40.3c-6.715-9.315-17.335-13.975-31.85-13.975H665.65v150.15zM809.825 850V623.15h87.75c11.05 0 20.905 1.735 29.575 5.2q12.999 4.874 21.775 14.3c6.065 6.285 10.615 13.865 13.65 22.75 3.03 8.885 4.55 18.85 4.55 29.9s-1.52 21.015-4.55 29.9c-3.035 8.885-7.585 16.465-13.65 22.75q-8.776 9.427-21.775 14.625c-8.67 3.25-18.525 4.875-29.575 4.875H858.9V850zM858.9 728.125h26.325q17.221.001 23.725-6.5 6.825-6.503 6.825-21.45v-9.75q0-14.947-6.825-21.45-6.504-6.501-23.725-6.5H858.9z"/></svg>