<svg xmlns="http://www.w3.org/2000/svg" width="1200" height="1200" fill="none"><path fill="#1D1E23" fill-rule="evenodd" d="M100 1100h1000V372.728L827.275 100H100zm681.82-681.818h227.27v590.908H190.909V190.909H781.82z"/><path fill="#1D1E23" d="M246.004 850V623.15h150.475v39.975H294.754v52h91V755.1h-91V850zM505.875 853.9q-45.498.001-67.273-30.875-21.45-30.876-21.45-86.45t21.45-86.45q21.775-30.876 67.273-30.875 45.501-.001 66.95 30.875c14.52 20.585 21.775 49.4 21.775 86.45s-7.255 65.865-21.775 86.45q-21.449 30.876-66.95 30.875m0-39.325c13.87 0 23.4-5.09 28.6-15.275 5.42-10.4 8.125-24.81 8.125-43.225V716.75c0-18.2-2.705-32.39-8.125-42.575-5.2-10.4-14.73-15.6-28.6-15.6q-20.797 0-28.923 15.6-7.8 15.276-7.8 42.575v39.65q0 27.3 7.8 42.9 8.126 15.276 28.923 15.275M617.55 623.15h73.125q45.824 0 67.925 29.25 22.101 29.251 22.1 84.175.001 54.924-22.1 84.175T690.675 850H617.55zm69.875 188.5c14.515 0 25.135-4.66 31.85-13.975s10.075-22.86 10.075-40.625v-41.275q-.001-26.326-10.075-40.3c-6.715-9.315-17.335-13.975-31.85-13.975H665.65v150.15zM879.05 853.9q-28.605.001-49.725-9.425c-14.085-6.285-25.46-14.84-34.125-25.675l28.275-31.2c8.23 9.1 17.225 15.815 26.975 20.15q14.947 6.501 30.225 6.5c11.7 0 20.58-2.6 26.65-7.8q9.099-7.8 9.1-22.425c0-8.015-2.385-14.085-7.15-18.2q-6.825-6.172-23.4-8.775l-23.725-3.9c-20.37-3.465-35.1-10.94-44.2-22.425q-13.65-17.549-13.65-42.575 0-32.827 21.45-50.7 21.449-18.201 60.125-18.2 26.325.001 45.825 8.125c13 5.415 23.505 12.785 31.525 22.1L935.6 680.35q-9.105-10.072-21.45-15.6-12.351-5.85-27.95-5.85-32.826-.001-32.825 26.975c0 7.8 2.38 13.65 7.15 17.55 4.98 3.9 13 6.825 24.05 8.775l23.725 4.225q27.621 4.876 42.575 20.8 14.949 15.923 14.95 42.9c0 10.615-1.845 20.475-5.525 29.575q-5.527 13.327-16.575 23.4-11.055 9.749-27.3 15.275c-10.62 3.685-23.075 5.525-37.375 5.525"/></svg>