<svg xmlns="http://www.w3.org/2000/svg" width="1200" height="1200" fill="none" viewBox="0 0 1200 1200"><path fill="#000" fill-rule="evenodd" d="M100 1100h1000V372.728L827.275 100H100zm681.82-681.818h227.27v590.908H190.909V190.909H781.82z"/><path fill="#000" d="M378.864 768.6h-79.201V900h-67.95V585.9h67.95v127.35h79.201V585.9h67.95V900h-67.95zM633.84 641.25V900h-67.5V641.25h-90.452V585.9H724.29v55.35zM919.86 760.05l3.6-87.75h-4.05l-58.5 161.55-58.5-161.55h-4.05l3.6 87.75V900h-58.5V585.9h79.65l38.7 105.75h3.6l38.7-105.75h74.25V900h-58.5z"/></svg>