<svg xmlns="http://www.w3.org/2000/svg" width="1200" height="1200" fill="none"><path fill="#000" d="M807.965 100h-610.62C143.805 100 100 145 100 200v800c0 55 43.319 100 96.858 100h805.797c53.54 0 97.345-45 97.345-100V400zm194.69 900h-805.31V200H759.29v250h243.365z"/><path fill="#000" d="M346.104 755.1h-57.2V850h-49.075V623.15h49.075v91.975h57.2V623.15h49.075V850h-49.075zM530.25 663.125V850h-48.748V663.125h-65.325V623.15h179.398v39.975zM736.825 748.925l2.6-63.375H736.5l-42.25 116.675L652 685.55h-2.925l2.6 63.375V850h-42.25V623.15h57.525l27.95 76.375h2.6l27.95-76.375h53.625V850h-42.25zM815.025 850V623.15H864.1v186.875h97.5V850z"/></svg>