<svg xmlns="http://www.w3.org/2000/svg" width="1200" height="1200" fill="none" viewBox="0 0 1200 1200"><path fill="#000" fill-rule="evenodd" d="M100 1100h1000V372.728L827.275 100H100zm681.82-681.818h227.27v590.908H190.909V190.909H781.82z"/><path fill="#000" d="M346.104 755.1h-57.2V850h-49.075V623.15h49.075v91.975h57.2V623.15h49.075V850h-49.075zM530.25 663.125V850h-48.748V663.125h-65.325V623.15h179.398v39.975zM736.825 748.925l2.6-63.375H736.5l-42.25 116.675L652 685.55h-2.925l2.6 63.375V850h-42.25V623.15h57.525l27.95 76.375h2.6l27.95-76.375h53.625V850h-42.25zM815.025 850V623.15H864.1v186.875h97.5V850z"/></svg>