<svg xmlns="http://www.w3.org/2000/svg" width="1200" height="1200" fill="none"><path fill="#1D1E23" d="M807.965 100h-610.62C143.805 100 100 145 100 200v800c0 55 43.319 100 96.858 100h805.797c53.54 0 97.345-45 97.345-100V400zm194.69 900h-805.31V200H759.29v250h243.365z"/><path fill="#1D1E23" d="M238.014 900v-49.95h67.5v-214.2h-67.5V585.9h202.499v49.95h-67.499v214.2h67.499V900zM607.29 905.4q-63 0-93.6-42.3-30.152-42.75-30.152-120.15t30.152-119.7q30.6-42.75 93.6-42.75 24.3 0 42.75 6.75 18.9 6.3 32.4 18t22.05 28.35q9 16.65 13.95 37.35l-63 15.3q-2.7-11.25-6.3-20.7t-9.45-16.2q-5.4-6.75-13.95-10.35-8.1-4.05-19.8-4.05-27.45 0-39.15 21.6-11.25 21.15-11.25 58.95v54.9q0 37.8 11.25 59.4 11.7 21.15 39.15 21.15 23.4 0 33.75-14.4 10.8-14.4 15.75-36.9l63 15.3q-4.95 20.7-13.95 37.35-8.55 16.65-22.05 28.8-13.5 11.7-32.4 18-18.45 6.3-42.75 6.3M860.91 905.4q-63 0-93.15-42.75-29.7-42.75-29.7-119.7t29.7-119.7q30.15-42.75 93.15-42.75t92.7 42.75q30.15 42.75 30.15 119.7t-30.15 119.7q-29.7 42.75-92.7 42.75m0-54.45q28.8 0 39.6-21.15 11.25-21.6 11.25-59.85V715.5q0-37.8-11.25-58.95-10.8-21.6-39.6-21.6t-40.05 21.6q-10.8 21.15-10.8 58.95v54.9q0 37.8 10.8 59.4 11.25 21.15 40.05 21.15"/></svg>