<svg xmlns="http://www.w3.org/2000/svg" width="1200" height="1200" fill="none"><path fill="#1D1E23" d="M807.965 100h-610.62C143.805 100 100 145 100 200v800c0 55 43.319 100 96.858 100h805.797c53.54 0 97.345-45 97.345-100V400zm194.69 900h-805.31V200H759.29v250h243.365z"/><path fill="#1D1E23" d="M238.014 900v-49.95h67.5v-214.2h-67.5V585.9h202.499v49.95h-67.499v214.2h67.499V900zM555.09 691.2h-4.95V900h-57.602V585.9h81.002l71.55 208.8h4.95V585.9h57.6V900h-81zM759.66 900v-49.95h67.5v-214.2h-67.5V585.9h202.5v49.95h-67.5v214.2h67.5V900z"/></svg>