<svg xmlns="http://www.w3.org/2000/svg" width="1200" height="1200" fill="none"><path fill="#1D1E23" d="M807.965 100h-610.62C143.805 100 100 145 100 200v800c0 55 43.319 100 96.858 100h805.797c53.54 0 97.345-45 97.345-100V400zm194.69 900h-805.31V200H759.29v250h243.365z"/><path fill="#1D1E23" d="M434.214 585.9v226.35q0 21.15-7.651 38.7-7.2 17.1-21.15 29.25-13.5 12.15-32.85 18.9-19.35 6.3-43.2 6.3-48.15 0-74.699-23.85-26.101-24.3-33.301-63.45l63.9-13.05q3.6 20.25 13.501 32.85 10.349 12.6 30.599 12.6 17.101 0 26.55-10.8 9.901-11.25 9.901-34.2V641.25H262.313V585.9zM660.84 900l-19.8-75.6h-85.95L535.74 900h-68.402l85.052-314.1h95.4L732.84 900zm-60.75-248.85h-3.6l-30.6 118.8h64.8zM826.71 900h-66.6V585.9h121.5q22.95 0 40.95 7.2 18 6.75 30.15 19.8 12.6 13.05 18.9 31.5t6.3 41.4q0 33.3-14.4 57.15t-40.95 31.5L984.21 900h-73.8l-52.65-116.55h-31.05zm38.7-168.75q23.85 0 32.85-9 9.45-9 9.45-29.7v-13.5q0-20.7-9.45-29.7-9-9-32.85-9h-38.7v90.9z"/></svg>