<svg xmlns="http://www.w3.org/2000/svg" width="1200" height="1200" fill="none"><path fill="#000" fill-rule="evenodd" d="M100 1100h1000V372.728L827.275 100H100zm681.82-681.818h227.27v590.908H190.909V190.909H781.82z"/><path fill="#000" d="M386.079 623.15v163.475q0 15.276-5.525 27.95-5.2 12.351-15.275 21.125-9.75 8.775-23.725 13.65-13.975 4.551-31.2 4.55-34.775.001-53.95-17.225-18.85-17.55-24.05-45.825l46.15-9.425q2.6 14.626 9.75 23.725 7.475 9.099 22.1 9.1 12.35 0 19.175-7.8 7.15-8.124 7.15-24.7V663.125h-74.75V623.15zM433.077 850V623.15h87.748q16.576.001 29.575 5.2c8.67 3.25 15.925 8.015 21.775 14.3 6.07 6.285 10.62 13.865 13.65 22.75q4.551 13.326 4.55 29.9.001 16.574-4.55 29.9c-3.03 8.885-7.58 16.465-13.65 22.75-5.85 6.285-13.105 11.16-21.775 14.625q-12.999 4.875-29.575 4.875h-38.673V850zm49.075-121.875h26.323q17.229.001 23.725-6.5 6.825-6.503 6.825-21.45v-9.75q0-14.947-6.825-21.45-6.496-6.501-23.725-6.5h-26.323zM622.75 850V623.15H767.7v39.975h-96.2v52h92.95V755.1H671.5v54.925h96.2V850zM918.7 817.825h-2.925a82 82 0 0 1-7.15 13.65q-4.229 6.503-10.4 11.7-6.18 4.875-14.625 7.8-8.13 2.925-18.525 2.925-16.576 0-29.575-7.8-12.675-7.801-21.45-22.75c-5.85-9.965-10.295-22.1-13.325-36.4-2.82-14.3-4.225-30.44-4.225-48.425 0-38.565 7.04-68.035 21.125-88.4q21.12-30.876 65.325-30.875 17.549 0 30.875 4.875 13.321 4.551 22.75 13.325c6.5 5.635 11.805 12.46 15.925 20.475q6.173 12.024 9.75 26.65l-45.5 11.05a127 127 0 0 0-4.55-13.65c-1.52-4.55-3.575-8.56-6.175-12.025q-3.9-5.199-9.75-8.125c-3.9-2.165-8.67-3.25-14.3-3.25q-18.525-.001-26.325 15.275-7.476 15.278-7.475 42.9v37.05c0 18.415 2.705 33.15 8.125 44.2q8.446 16.575 29.575 16.575c11.05 0 19.28-3.25 24.7-9.75q8.124-9.749 8.125-25.025v-16.575h-38.675v-34.45h82.225V850H918.7z"/></svg>