<svg xmlns="http://www.w3.org/2000/svg" width="1200" height="1200" fill="none"><path fill="#1D1E23" d="M807.965 100h-610.62C143.805 100 100 145 100 200v800c0 55 43.319 100 96.858 100h805.797c53.54 0 97.345-45 97.345-100V400zm194.69 900h-805.31V200H759.29v250h243.365z"/><path fill="#1D1E23" d="M539.625 585.9v226.35q0 21.15-7.65 38.7-7.2 17.1-21.15 29.25-13.5 12.15-32.849 18.9-19.35 6.3-43.2 6.3-48.15 0-74.7-23.85-26.1-24.3-33.3-63.45l63.9-13.05q3.6 20.25 13.5 32.85 10.35 12.6 30.6 12.6 17.1 0 26.55-10.8 9.9-11.25 9.9-34.2V641.25h-103.5V585.9zM700.55 905.4q-39.6 0-68.85-13.05t-47.25-35.55l39.15-43.2q17.1 18.9 37.35 27.9 20.7 9 41.85 9 24.3 0 36.9-10.8t12.6-31.05q0-16.65-9.9-25.2-9.45-8.55-32.4-12.15l-32.85-5.4q-42.3-7.2-61.2-31.05-18.9-24.3-18.9-58.95 0-45.45 29.7-70.2 29.7-25.2 83.25-25.2 36.45 0 63.45 11.25t43.65 30.6l-38.25 42.75q-12.6-13.95-29.7-21.6-17.1-8.1-38.7-8.1-45.45 0-45.45 37.35 0 16.2 9.9 24.3 10.35 8.1 33.3 12.15l32.85 5.85q38.25 6.75 58.95 28.8t20.7 59.4q0 22.05-7.65 40.95-7.65 18.45-22.95 32.4-15.3 13.5-37.8 21.15-22.05 7.65-51.75 7.65"/></svg>