<svg xmlns="http://www.w3.org/2000/svg" width="1200" height="1200" fill="none"><path fill="#000" fill-rule="evenodd" d="M100 1100h1000V372.728L827.275 100H100zm681.82-681.818h227.27v590.908H190.909V190.909H781.82z"/><path fill="#000" d="M386.079 623.15v163.475q0 15.276-5.525 27.95-5.2 12.351-15.275 21.125-9.75 8.775-23.725 13.65-13.975 4.551-31.2 4.55-34.775.001-53.95-17.225-18.85-17.55-24.05-45.825l46.15-9.425q2.6 14.626 9.75 23.725 7.475 9.099 22.1 9.1 12.35 0 19.175-7.8 7.15-8.124 7.15-24.7V663.125h-74.75V623.15zM502.3 853.9q-28.597.001-49.723-9.425c-14.084-6.285-25.459-14.84-34.125-25.675l28.275-31.2q12.35 13.649 26.975 20.15 14.95 6.501 30.223 6.5 17.551 0 26.65-7.8c6.07-5.2 9.1-12.675 9.1-22.425 0-8.015-2.38-14.085-7.15-18.2q-6.825-6.172-23.4-8.775l-23.723-3.9q-30.55-5.198-44.2-22.425-13.65-17.549-13.65-42.575 0-32.827 21.45-50.7 21.45-18.201 60.123-18.2 26.325.001 45.825 8.125c13 5.415 23.51 12.785 31.525 22.1L558.85 680.35q-9.097-10.072-21.45-15.6c-8.23-3.9-17.55-5.85-27.95-5.85q-32.823-.001-32.823 26.975 0 11.7 7.15 17.55 7.475 5.85 24.048 8.775l23.725 4.225q27.629 4.876 42.575 20.8c9.97 10.615 14.95 24.915 14.95 42.9q.001 15.924-5.525 29.575-5.52 13.327-16.575 23.4-11.048 9.749-27.3 15.275-15.924 5.526-37.375 5.525M694.25 853.9q-45.503.001-67.275-30.875-21.45-30.876-21.45-86.45t21.45-86.45q21.772-30.876 67.275-30.875 45.501-.001 66.95 30.875 21.774 30.876 21.775 86.45-.001 55.574-21.775 86.45-21.449 30.876-66.95 30.875m0-39.325q20.799.001 28.6-15.275 8.124-15.601 8.125-43.225V716.75q-.001-27.299-8.125-42.575-7.801-15.6-28.6-15.6c-13.865 0-23.51 5.2-28.925 15.6q-7.8 15.276-7.8 42.575v39.65q0 27.3 7.8 42.9c5.415 10.185 15.06 15.275 28.925 15.275M850.125 699.2h-3.575V850h-41.6V623.15h58.5l51.675 150.8h3.575v-150.8h41.6V850h-58.5z"/></svg>