<svg xmlns="http://www.w3.org/2000/svg" width="1200" height="1200" fill="none" viewBox="0 0 1200 1200"><path fill="#000" d="M807.965 100h-610.62C143.805 100 100 145 100 200v800c0 55 43.319 100 96.858 100h805.797c53.54 0 97.345-45 97.345-100V400zm194.69 900h-805.31V200H759.29v250h243.365z"/><path fill="#000" d="m398.214 760.05 3.599-87.75h-4.05l-58.5 161.55-58.5-161.55h-4.049l3.6 87.75V900h-58.5V585.9h79.65l38.699 105.75h3.601l38.699-105.75h74.251V900h-58.5zM591.09 769.05l-27.9 39.15V900h-67.502V585.9h67.502v131.4h3.6l34.2-52.2 55.35-79.2h75.6l-94.05 132.75L736.44 900h-76.05z"/><path fill="#000" d="m813.21 900-83.25-314.1h75.15l36.9 159.75 18.45 90.45h3.6l18.9-90.45 37.35-159.75h71.55L908.61 900z"/></svg>