<svg xmlns="http://www.w3.org/2000/svg" width="1200" height="1200" fill="none" viewBox="0 0 1200 1200"><path fill="#000" fill-rule="evenodd" d="M100 1100h1000V372.728L827.275 100H100zm681.82-681.818h227.27v590.908H190.909V190.909H781.82z"/><path fill="#000" d="m398.214 760.05 3.599-87.75h-4.05l-58.5 161.55-58.5-161.55h-4.049l3.6 87.75V900h-58.5V585.9h79.65l38.699 105.75h3.601l38.699-105.75h74.251V900h-58.5zM499.288 900V585.9H620.79q22.95 0 40.95 7.2 18 6.75 30.15 19.8 12.6 13.05 18.9 31.5t6.3 41.4-6.3 41.4-18.9 31.5q-12.15 13.05-30.15 20.25-18 6.75-40.95 6.75h-53.55V900zm67.952-168.75h36.45q23.85 0 32.85-9 9.45-9 9.45-29.7v-13.5q0-20.7-9.45-29.7-9-9-32.85-9h-36.45zM848.76 710.1q26.1 0 37.8-9.9 12.15-9.9 12.15-24.3v-3.15q0-17.1-11.7-27-11.25-10.35-32.4-10.35-19.35 0-36.45 9.9-16.65 9.45-28.35 27.45l-42.75-39.6q9-11.7 19.8-21.15 10.8-9.9 23.85-16.65 13.05-7.2 29.25-10.8 16.65-4.05 37.35-4.05 25.65 0 46.35 5.85t35.1 17.1q14.85 10.8 22.95 26.1t8.1 34.2q0 14.85-4.95 27t-13.5 21.15q-8.1 9-19.35 14.85-10.8 5.4-23.4 7.65v2.7q28.8 4.95 47.7 24.3 19.35 18.9 19.35 51.3 0 21.15-9 38.25-8.55 17.1-24.75 29.25-15.75 12.15-38.7 18.9-22.5 6.3-50.4 6.3-23.85 0-42.3-4.95-18-4.95-31.95-13.05-13.95-8.55-24.3-19.35-9.9-11.25-17.55-22.95l49.95-38.7q10.35 19.35 25.65 31.95 15.75 12.15 41.85 12.15 24.3 0 37.35-11.25t13.05-31.05v-3.15q0-19.35-14.85-28.8-14.85-9.9-41.4-9.9h-29.25V710.1z"/></svg>