<svg xmlns="http://www.w3.org/2000/svg" width="1200" height="1200" fill="none" viewBox="0 0 1200 1200"><path fill="#000" d="M807.965 100h-610.62C143.805 100 100 145 100 200v800c0 55 43.319 100 96.858 100h805.797c53.54 0 97.345-45 97.345-100V400zm194.69 900h-805.31V200H759.29v250h243.365z"/><path fill="#000" d="m398.214 760.05 3.599-87.75h-4.05l-58.5 161.55-58.5-161.55h-4.049l3.6 87.75V900h-58.5V585.9h79.65l38.699 105.75h3.601l38.699-105.75h74.251V900h-58.5zM499.288 900V585.9H620.79q22.95 0 40.95 7.2 18 6.75 30.15 19.8 12.6 13.05 18.9 31.5t6.3 41.4-6.3 41.4-18.9 31.5q-12.15 13.05-30.15 20.25-18 6.75-40.95 6.75h-53.55V900zm67.952-168.75h36.45q23.85 0 32.85-9 9.45-9 9.45-29.7v-13.5q0-20.7-9.45-29.7-9-9-32.85-9h-36.45zM878.46 900v-60.3h-141.3v-57.6l125.1-196.2h81v201.6h40.5v52.2h-40.5V900zm-86.85-112.5h86.85V655.65h-4.05z"/></svg>