<svg xmlns="http://www.w3.org/2000/svg" width="1200" height="1200" fill="none"><path fill="#1D1E23" fill-rule="evenodd" d="M100 1100h1000V372.728L827.275 100H100zm681.82-681.818h227.27v590.908H190.909V190.909H781.82z"/><path fill="#1D1E23" d="m398.214 760.05 3.599-87.75h-4.05l-58.5 161.55-58.5-161.55h-4.049l3.6 87.75V900h-58.5V585.9h79.65l38.699 105.75h3.601l38.699-105.75h74.251V900h-58.5zM499.288 900V585.9H620.79q22.95 0 40.95 7.2 18 6.75 30.15 19.8 12.6 13.05 18.9 31.5t6.3 41.4-6.3 41.4-18.9 31.5q-12.15 13.05-30.15 20.25-18 6.75-40.95 6.75h-53.55V900zm67.952-168.75h36.45q23.85 0 32.85-9 9.45-9 9.45-29.7v-13.5q0-20.7-9.45-29.7-9-9-32.85-9h-36.45zM878.46 900v-60.3h-141.3v-57.6l125.1-196.2h81v201.6h40.5v52.2h-40.5V900zm-86.85-112.5h86.85V655.65h-4.05z"/></svg>