<svg xmlns="http://www.w3.org/2000/svg" width="1200" height="1200" fill="none"><path fill="#1D1E23" d="M807.965 100h-610.62C143.805 100 100 145 100 200v800c0 55 43.319 100 96.858 100h805.797c53.54 0 97.345-45 97.345-100V400zm194.69 900h-805.31V200H759.29v250h243.365z"/><path fill="#1D1E23" d="m398.214 760.05 3.599-87.75h-4.05l-58.5 161.55-58.5-161.55h-4.049l3.6 87.75V900h-58.5V585.9h79.65l38.699 105.75h3.601l38.699-105.75h74.251V900h-58.5zM499.288 900V585.9H620.79q22.95 0 40.95 7.2 18 6.75 30.15 19.8 12.6 13.05 18.9 31.5t6.3 41.4-6.3 41.4-18.9 31.5q-12.15 13.05-30.15 20.25-18 6.75-40.95 6.75h-53.55V900zm67.952-168.75h36.45q23.85 0 32.85-9 9.45-9 9.45-29.7v-13.5q0-20.7-9.45-29.7-9-9-32.85-9h-36.45zM910.86 855.45h-4.05q-4.05 9.9-9.9 18.9t-14.4 16.2q-8.55 6.75-20.25 10.8-11.25 4.05-25.65 4.05-22.95 0-40.95-10.8-17.55-10.8-29.7-31.5t-18.45-50.4q-5.85-29.7-5.85-67.05 0-80.1 29.25-122.4 29.25-42.75 90.45-42.75 24.3 0 42.75 6.75 18.45 6.3 31.5 18.45 13.5 11.7 22.05 28.35t13.5 36.9l-63 15.3q-2.7-9.9-6.3-18.9-3.15-9.45-8.55-16.65t-13.5-11.25q-8.1-4.5-19.8-4.5-25.65 0-36.45 21.15-10.35 21.15-10.35 59.4v51.3q0 38.25 11.25 61.2 11.7 22.95 40.95 22.95 22.95 0 34.2-13.5t11.25-34.65v-22.95h-53.55v-47.7h113.85V900h-60.3z"/></svg>