<svg xmlns="http://www.w3.org/2000/svg" width="1200" height="1200" fill="none" viewBox="0 0 1200 1200"><path fill="#000" d="M807.965 100h-610.62C143.805 100 100 145 100 200v800c0 55 43.319 100 96.858 100h805.797c53.54 0 97.345-45 97.345-100V400zm194.69 900h-805.31V200H759.29v250h243.365z"/><path fill="#000" d="m360.079 748.925 2.6-63.375h-2.925l-42.25 116.675-42.25-116.675h-2.925l2.6 63.375V850h-42.25V623.15h57.525l27.95 76.375h2.6l27.95-76.375h53.625V850h-42.25zM433.077 850V623.15h87.748q16.576.001 29.575 5.2c8.67 3.25 15.925 8.015 21.775 14.3 6.07 6.285 10.62 13.865 13.65 22.75q4.551 13.326 4.55 29.9.001 16.574-4.55 29.9c-3.03 8.885-7.58 16.465-13.65 22.75-5.85 6.285-13.105 11.16-21.775 14.625q-12.999 4.875-29.575 4.875h-38.673V850zm49.075-121.875h26.323q17.229.001 23.725-6.5 6.825-6.503 6.825-21.45v-9.75q0-14.947-6.825-21.45-6.496-6.501-23.725-6.5h-26.323zM730.325 817.825H727.4a82 82 0 0 1-7.15 13.65c-2.815 4.335-6.285 8.235-10.4 11.7q-6.173 4.875-14.625 7.8-8.123 2.925-18.525 2.925-16.576 0-29.575-7.8-12.675-7.801-21.45-22.75t-13.325-36.4q-4.224-21.449-4.225-48.425c0-38.565 7.04-68.035 21.125-88.4q21.128-30.876 65.325-30.875 17.549 0 30.875 4.875c8.885 3.035 16.465 7.475 22.75 13.325q9.751 8.453 15.925 20.475 6.173 12.024 9.75 26.65l-45.5 11.05a126 126 0 0 0-4.55-13.65q-2.274-6.826-6.175-12.025t-9.75-8.125q-5.849-3.249-14.3-3.25-18.525-.001-26.325 15.275-7.476 15.278-7.475 42.9v37.05q.001 27.624 8.125 44.2c5.635 11.05 15.49 16.575 29.575 16.575q16.576 0 24.7-9.75t8.125-25.025v-16.575H691.65v-34.45h82.225V850h-43.55zM926.5 850l-14.3-54.6h-62.075L836.15 850h-49.4l61.425-226.85h68.9L978.5 850zm-43.875-179.725h-2.6l-22.1 85.8h46.8z"/></svg>