<svg xmlns="http://www.w3.org/2000/svg" width="1200" height="1200" fill="none" viewBox="0 0 1200 1200"><path fill="#000" fill-rule="evenodd" d="M100 1100h1000V372.728L827.275 100H100zm681.82-681.818h227.27v590.908H190.909V190.909H781.82z"/><path fill="#000" d="M294.264 691.2h-4.951V900h-57.6V585.9h81.001l71.55 208.8h4.95V585.9h57.6V900h-81zM501.09 900V585.9h208.35v55.35H568.59v72h126v55.35h-126V900zM860.91 905.4q-63 0-93.15-42.75-29.7-42.75-29.7-119.7t29.7-119.7q30.15-42.75 93.15-42.75t92.7 42.75q30.15 42.75 30.15 119.7t-30.15 119.7q-29.7 42.75-92.7 42.75m0-54.45q28.8 0 39.6-21.15 11.25-21.6 11.25-59.85V715.5q0-37.8-11.25-58.95-10.8-21.6-39.6-21.6t-40.05 21.6q-10.8 21.15-10.8 58.95v54.9q0 37.8 10.8 59.4 11.25 21.15 40.05 21.15"/></svg>