<svg xmlns="http://www.w3.org/2000/svg" width="1200" height="1200" fill="none"><path fill="#000" d="M807.965 100h-610.62C143.805 100 100 145 100 200v800c0 55 43.319 100 96.858 100h805.797c53.54 0 97.345-45 97.345-100V400zm194.69 900h-805.31V200H759.29v250h243.365z"/><path fill="#000" d="M294.264 691.2h-4.951V900h-57.6V585.9h81.001l71.55 208.8h4.95V585.9h57.6V900h-81zM501.09 900V585.9h208.35v55.35H568.59v72h126v55.35h-126V900zM860.91 905.4q-63 0-93.15-42.75-29.7-42.75-29.7-119.7t29.7-119.7q30.15-42.75 93.15-42.75t92.7 42.75q30.15 42.75 30.15 119.7t-30.15 119.7q-29.7 42.75-92.7 42.75m0-54.45q28.8 0 39.6-21.15 11.25-21.6 11.25-59.85V715.5q0-37.8-11.25-58.95-10.8-21.6-39.6-21.6t-40.05 21.6q-10.8 21.15-10.8 58.95v54.9q0 37.8 10.8 59.4 11.25 21.15 40.05 21.15"/></svg>