<svg xmlns="http://www.w3.org/2000/svg" width="1200" height="1200" fill="none" viewBox="0 0 1200 1200"><path fill="#000" fill-rule="evenodd" d="M100 1100h1000V372.728L827.275 100H100zm681.82-681.818h227.27v590.908H190.909V190.909H781.82z"/><path fill="#000" d="M339.263 905.4q-63 0-93.149-42.75-29.7-42.75-29.701-119.7 0-76.95 29.701-119.7 30.15-42.75 93.149-42.75 63.001 0 92.701 42.75 30.15 42.75 30.149 119.7t-30.149 119.7q-29.7 42.75-92.701 42.75m0-54.45q28.8 0 39.601-21.15 11.249-21.6 11.249-59.85V715.5q0-37.8-11.249-58.95-10.8-21.6-39.601-21.6-28.799 0-40.049 21.6-10.8 21.15-10.801 58.95v54.9q0 37.8 10.801 59.4 11.25 21.15 40.049 21.15M499.738 585.9H609.99q46.35 0 70.65 22.5 24.75 22.5 24.75 61.2 0 27-13.5 43.2-13.05 15.75-37.8 22.95v2.7q29.25 7.2 45 25.2 16.2 18 16.2 49.95 0 39.6-25.2 63-24.75 23.4-69.75 23.4H499.738zm99.902 266.85q24.3 0 35.55-8.1t11.25-29.7V801.9q0-21.6-11.25-29.7t-35.55-8.1h-34.2v88.65zm-8.55-133.65q23.85 0 34.65-7.65 10.8-8.1 10.8-28.8v-13.5q0-20.7-10.8-28.35t-34.65-7.65h-25.65v85.95zM955.86 585.9v226.35q0 21.15-7.65 38.7-7.2 17.1-21.15 29.25-13.5 12.15-32.85 18.9-19.35 6.3-43.2 6.3-48.15 0-74.7-23.85-26.1-24.3-33.3-63.45l63.9-13.05q3.6 20.25 13.5 32.85 10.35 12.6 30.6 12.6 17.1 0 26.55-10.8 9.9-11.25 9.9-34.2V641.25h-103.5V585.9z"/></svg>