<svg xmlns="http://www.w3.org/2000/svg" width="1200" height="1200" fill="none"><path fill="#000" d="M807.965 100h-610.62C143.805 100 100 145 100 200v800c0 55 43.319 100 96.858 100h805.797c53.54 0 97.345-45 97.345-100V400zm194.69 900h-805.31V200H759.29v250h243.365z"/><path fill="#000" d="M339.263 905.4q-63 0-93.149-42.75-29.7-42.75-29.701-119.7 0-76.95 29.701-119.7 30.15-42.75 93.149-42.75 63.001 0 92.701 42.75 30.15 42.75 30.149 119.7t-30.149 119.7q-29.7 42.75-92.701 42.75m0-54.45q28.8 0 39.601-21.15 11.249-21.6 11.249-59.85V715.5q0-37.8-11.249-58.95-10.8-21.6-39.601-21.6-28.799 0-40.049 21.6-10.8 21.15-10.801 58.95v54.9q0 37.8 10.801 59.4 11.25 21.15 40.049 21.15M493.888 585.9H595.14q63.45 0 94.05 40.5t30.6 116.55-30.6 116.55-94.05 40.5H493.888zm96.752 261q30.15 0 44.1-19.35t13.95-56.25v-57.15q0-36.45-13.95-55.8T590.64 639h-30.15v207.9zM761.91 900V585.9h208.35v55.35H829.41v72h126v55.35h-126V900z"/></svg>