<svg xmlns="http://www.w3.org/2000/svg" width="1200" height="1200" fill="none" viewBox="0 0 1200 1200"><path fill="#000" d="M807.965 100h-610.62C143.805 100 100 145 100 200v800c0 55 43.319 100 96.858 100h805.797c53.54 0 97.345-45 97.345-100V400zm194.69 900h-805.31V200H759.29v250h243.365z"/><path fill="#000" d="M339.263 905.4q-63 0-93.149-42.75-29.7-42.75-29.701-119.7 0-76.95 29.701-119.7 30.15-42.75 93.149-42.75 63.001 0 92.701 42.75 30.15 42.75 30.149 119.7t-30.149 119.7q-29.7 42.75-92.701 42.75m0-54.45q28.8 0 39.601-21.15 11.249-21.6 11.249-59.85V715.5q0-37.8-11.249-58.95-10.8-21.6-39.601-21.6-28.799 0-40.049 21.6-10.8 21.15-10.801 58.95v54.9q0 37.8 10.801 59.4 11.25 21.15 40.049 21.15M493.888 585.9H595.14q63.45 0 94.05 40.5t30.6 116.55-30.6 116.55-94.05 40.5H493.888zm96.752 261q30.15 0 44.1-19.35t13.95-56.25v-57.15q0-36.45-13.95-55.8T590.64 639h-30.15v207.9zM855.96 905.4q-39.6 0-68.85-13.05t-47.25-35.55l39.15-43.2q17.1 18.9 37.35 27.9 20.7 9 41.85 9 24.3 0 36.9-10.8t12.6-31.05q0-16.65-9.9-25.2-9.45-8.55-32.4-12.15l-32.85-5.4q-42.3-7.2-61.2-31.05-18.9-24.3-18.9-58.95 0-45.45 29.7-70.2 29.7-25.2 83.25-25.2 36.45 0 63.45 11.25t43.65 30.6l-38.25 42.75q-12.6-13.95-29.7-21.6-17.1-8.1-38.7-8.1-45.45 0-45.45 37.35 0 16.2 9.9 24.3 10.35 8.1 33.3 12.15l32.85 5.85q38.25 6.75 58.95 28.8t20.7 59.4q0 22.05-7.65 40.95-7.65 18.45-22.95 32.4-15.3 13.5-37.8 21.15-22.05 7.65-51.75 7.65"/></svg>