<svg xmlns="http://www.w3.org/2000/svg" width="1200" height="1200" fill="none" viewBox="0 0 1200 1200"><path fill="#000" fill-rule="evenodd" d="M100 1100h1000V372.728L827.275 100H100zm681.82-681.818h227.27v590.908H190.909V190.909H781.82z"/><path fill="#000" d="M339.263 905.4q-63 0-93.149-42.75-29.7-42.75-29.701-119.7 0-76.95 29.701-119.7 30.15-42.75 93.149-42.75 63.001 0 92.701 42.75 30.15 42.75 30.149 119.7t-30.149 119.7q-29.7 42.75-92.701 42.75m0-54.45q28.8 0 39.601-21.15 11.249-21.6 11.249-59.85V715.5q0-37.8-11.249-58.95-10.8-21.6-39.601-21.6-28.799 0-40.049 21.6-10.8 21.15-10.801 58.95v54.9q0 37.8 10.801 59.4 11.25 21.15 40.049 21.15M493.888 585.9H595.14q63.45 0 94.05 40.5t30.6 116.55-30.6 116.55-94.05 40.5H493.888zm96.752 261q30.15 0 44.1-19.35t13.95-56.25v-57.15q0-36.45-13.95-55.8T590.64 639h-30.15v207.9zM894.66 641.25V900h-67.5V641.25h-90.45V585.9h248.4v55.35z"/></svg>