<svg xmlns="http://www.w3.org/2000/svg" width="1200" height="1200" fill="none"><path fill="#000" fill-rule="evenodd" d="M100 1100h1000V372.728L827.275 100H100zm681.82-681.818h227.27v590.908H190.909V190.909H781.82z"/><path fill="#000" d="M339.263 905.4q-63 0-93.149-42.75-29.7-42.75-29.701-119.7 0-76.95 29.701-119.7 30.15-42.75 93.149-42.75 63.001 0 92.701 42.75 30.15 42.75 30.149 119.7t-30.149 119.7q-29.7 42.75-92.701 42.75m0-54.45q28.8 0 39.601-21.15 11.249-21.6 11.249-59.85V715.5q0-37.8-11.249-58.95-10.8-21.6-39.601-21.6-28.799 0-40.049 21.6-10.8 21.15-10.801 58.95v54.9q0 37.8 10.801 59.4 11.25 21.15 40.049 21.15M600.09 905.4q-63 0-93.15-42.75-29.703-42.75-29.702-119.7t29.702-119.7q30.15-42.75 93.15-42.75t92.7 42.75q30.15 42.75 30.15 119.7t-30.15 119.7q-29.7 42.75-92.7 42.75m0-54.45q28.8 0 39.6-21.15 11.25-21.6 11.25-59.85V715.5q0-37.8-11.25-58.95-10.8-21.6-39.6-21.6t-40.05 21.6q-10.8 21.15-10.8 58.95v54.9q0 37.8 10.8 59.4 11.25 21.15 40.05 21.15M910.86 855.45h-4.05q-4.05 9.9-9.9 18.9t-14.4 16.2q-8.55 6.75-20.25 10.8-11.25 4.05-25.65 4.05-22.95 0-40.95-10.8-17.55-10.8-29.7-31.5t-18.45-50.4q-5.85-29.7-5.85-67.05 0-80.1 29.25-122.4 29.25-42.75 90.45-42.75 24.3 0 42.75 6.75 18.45 6.3 31.5 18.45 13.5 11.7 22.05 28.35t13.5 36.9l-63 15.3q-2.7-9.9-6.3-18.9-3.15-9.45-8.55-16.65t-13.5-11.25q-8.1-4.5-19.8-4.5-25.65 0-36.45 21.15-10.35 21.15-10.35 59.4v51.3q0 38.25 11.25 61.2 11.7 22.95 40.95 22.95 22.95 0 34.2-13.5t11.25-34.65v-22.95h-53.55v-47.7h113.85V900h-60.3z"/></svg>