<svg xmlns="http://www.w3.org/2000/svg" width="1200" height="1200" fill="none"><path fill="#1D1E23" d="M807.965 100h-610.62C143.805 100 100 145 100 200v800c0 55 43.319 100 96.858 100h805.797c53.54 0 97.345-45 97.345-100V400zm194.69 900h-805.31V200H759.29v250h243.365z"/><path fill="#1D1E23" d="M238.463 900V585.9h121.501q22.95 0 40.949 7.2 18 6.75 30.151 19.8 12.6 13.05 18.899 31.5 6.301 18.45 6.301 41.4t-6.301 41.4-18.899 31.5q-12.15 13.05-30.151 20.25-18 6.75-40.949 6.75h-53.551V900zm67.95-168.75h36.45q23.851 0 32.851-9 9.45-9 9.449-29.7v-13.5q0-20.7-9.449-29.7-9-9-32.851-9h-36.45zM591.09 769.05l-27.9 39.15V900h-67.502V585.9h67.502v131.4h3.6l34.2-52.2 55.35-79.2h75.6l-94.05 132.75L736.44 900h-76.05zM910.86 855.45h-4.05q-4.05 9.9-9.9 18.9t-14.4 16.2q-8.55 6.75-20.25 10.8-11.25 4.05-25.65 4.05-22.95 0-40.95-10.8-17.55-10.8-29.7-31.5t-18.45-50.4q-5.85-29.7-5.85-67.05 0-80.1 29.25-122.4 29.25-42.75 90.45-42.75 24.3 0 42.75 6.75 18.45 6.3 31.5 18.45 13.5 11.7 22.05 28.35t13.5 36.9l-63 15.3q-2.7-9.9-6.3-18.9-3.15-9.45-8.55-16.65t-13.5-11.25q-8.1-4.5-19.8-4.5-25.65 0-36.45 21.15-10.35 21.15-10.35 59.4v51.3q0 38.25 11.25 61.2 11.7 22.95 40.95 22.95 22.95 0 34.2-13.5t11.25-34.65v-22.95h-53.55v-47.7h113.85V900h-60.3z"/></svg>