<svg xmlns="http://www.w3.org/2000/svg" width="1200" height="1200" fill="none"><path fill="#1D1E23" d="M807.965 100h-610.62C143.805 100 100 145 100 200v800c0 55 43.319 100 96.858 100h805.797c53.54 0 97.345-45 97.345-100V400zm194.69 900h-805.31V200H759.29v250h243.365z"/><path fill="#1D1E23" d="M238.463 900V585.9h121.501q22.95 0 40.949 7.2 18 6.75 30.151 19.8 12.6 13.05 18.899 31.5 6.301 18.45 6.301 41.4t-6.301 41.4-18.899 31.5q-12.15 13.05-30.151 20.25-18 6.75-40.949 6.75h-53.551V900zm67.95-168.75h36.45q23.851 0 32.851-9 9.45-9 9.449-29.7v-13.5q0-20.7-9.449-29.7-9-9-32.851-9h-36.45zM499.288 900V585.9H620.79q22.95 0 40.95 7.2 18 6.75 30.15 19.8 12.6 13.05 18.9 31.5t6.3 41.4-6.3 41.4-18.9 31.5q-12.15 13.05-30.15 20.25-18 6.75-40.95 6.75h-53.55V900zm67.952-168.75h36.45q23.85 0 32.85-9 9.45-9 9.45-29.7v-13.5q0-20.7-9.45-29.7-9-9-32.85-9h-36.45zM894.66 641.25V900h-67.5V641.25h-90.45V585.9h248.4v55.35z"/></svg>