<svg xmlns="http://www.w3.org/2000/svg" width="1200" height="1200" fill="none"><path fill="#000" fill-rule="evenodd" d="M100 1100h1000V372.728L827.275 100H100zm681.82-681.818h227.27v590.908H190.909V190.909H781.82z"/><path fill="#000" d="M244.704 850V623.15h87.75q16.575.001 29.575 5.2 13 4.874 21.775 14.3c6.066 6.285 10.617 13.865 13.65 22.75q4.55 13.326 4.55 29.9t-4.55 29.9c-3.033 8.885-7.584 16.465-13.65 22.75q-8.775 9.427-21.775 14.625-13 4.875-29.575 4.875h-38.675V850zm49.075-121.875h26.325q17.225.001 23.725-6.5 6.825-6.503 6.825-21.45v-9.75q0-14.947-6.825-21.45-6.5-6.501-23.725-6.5h-26.325zM433.077 850V623.15h87.748q16.576.001 29.575 5.2c8.67 3.25 15.925 8.015 21.775 14.3 6.07 6.285 10.62 13.865 13.65 22.75q4.551 13.326 4.55 29.9.001 16.574-4.55 29.9c-3.03 8.885-7.58 16.465-13.65 22.75-5.85 6.285-13.105 11.16-21.775 14.625q-12.999 4.875-29.575 4.875h-38.673V850zm49.075-121.875h26.323q17.229.001 23.725-6.5 6.825-6.503 6.825-21.45v-9.75q0-14.947-6.825-21.45-6.496-6.501-23.725-6.5h-26.323zM718.625 663.125V850h-48.75V663.125H604.55V623.15h179.4v39.975zM977.2 850h-55.575l-23.4-45.175-15.925-35.75h-2.925l-16.25 35.75L839.075 850H788.05l63.7-117.325-59.475-109.525h55.575l18.525 36.075 16.575 36.4h2.6l16.9-36.4 19.5-36.075h51.025L913.5 733.325z"/></svg>