<svg xmlns="http://www.w3.org/2000/svg" width="1200" height="1200" fill="none"><path fill="#000" d="M807.965 100h-610.62C143.805 100 100 145 100 200v800c0 55 43.319 100 96.858 100h805.797c53.54 0 97.345-45 97.345-100V400zm194.69 900h-805.31V200H759.29v250h243.365z"/><path fill="#000" d="M305.064 900h-66.601V585.9h121.501q22.95 0 40.949 7.2 18 6.75 30.151 19.8 12.6 13.05 18.899 31.5 6.301 18.45 6.301 41.4 0 33.3-14.401 57.15-14.399 23.85-40.95 31.5L462.563 900h-73.799l-52.651-116.55h-31.049zm38.7-168.75q23.85 0 32.849-9 9.45-9 9.45-29.7v-13.5q0-20.7-9.45-29.7-9-9-32.849-9h-38.7v90.9zM633.84 641.25V900h-67.5V641.25h-90.452V585.9H724.29v55.35zM761.91 900V585.9h208.35v55.35H829.41v72h126v55.35h-126V900z"/></svg>