<svg xmlns="http://www.w3.org/2000/svg" width="1200" height="1200" fill="none"><path fill="#1D1E23" d="M807.965 100h-610.62C143.805 100 100 145 100 200v800c0 55 43.319 100 96.858 100h805.797c53.54 0 97.345-45 97.345-100V400zm194.69 900h-805.31V200H759.29v250h243.365z"/><path fill="#1D1E23" d="M334.314 905.4q-39.6 0-68.85-13.05t-47.25-35.55l39.149-43.2q17.101 18.9 37.351 27.9 20.7 9 41.85 9 24.3 0 36.9-10.8t12.599-31.05q0-16.65-9.9-25.2-9.45-8.55-32.399-12.15l-32.851-5.4q-42.3-7.2-61.199-31.05-18.9-24.3-18.9-58.95 0-45.45 29.7-70.2 29.7-25.2 83.25-25.2 36.45 0 63.45 11.25t43.649 30.6l-38.25 42.75q-12.6-13.95-29.7-21.6-17.1-8.1-38.699-8.1-45.45 0-45.45 37.35 0 16.2 9.899 24.3 10.35 8.1 33.301 12.15l32.849 5.85q38.25 6.75 58.95 28.8t20.701 59.4q0 22.05-7.65 40.95-7.65 18.45-22.95 32.4-15.301 13.5-37.801 21.15-22.05 7.65-51.749 7.65M552.39 900l-83.252-314.1h75.152l36.9 159.75 18.45 90.45h3.6l18.9-90.45 37.35-159.75h71.55L647.79 900zM910.86 855.45h-4.05q-4.05 9.9-9.9 18.9t-14.4 16.2q-8.55 6.75-20.25 10.8-11.25 4.05-25.65 4.05-22.95 0-40.95-10.8-17.55-10.8-29.7-31.5t-18.45-50.4q-5.85-29.7-5.85-67.05 0-80.1 29.25-122.4 29.25-42.75 90.45-42.75 24.3 0 42.75 6.75 18.45 6.3 31.5 18.45 13.5 11.7 22.05 28.35t13.5 36.9l-63 15.3q-2.7-9.9-6.3-18.9-3.15-9.45-8.55-16.65t-13.5-11.25q-8.1-4.5-19.8-4.5-25.65 0-36.45 21.15-10.35 21.15-10.35 59.4v51.3q0 38.25 11.25 61.2 11.7 22.95 40.95 22.95 22.95 0 34.2-13.5t11.25-34.65v-22.95h-53.55v-47.7h113.85V900h-60.3z"/></svg>