<svg xmlns="http://www.w3.org/2000/svg" width="1200" height="1200" fill="none" viewBox="0 0 1200 1200"><path fill="#000" fill-rule="evenodd" d="M100 1100h1000V372.728L827.275 100H100zm681.82-681.818h227.27v590.908H190.909V190.909H781.82z"/><path fill="#000" d="m228.564 900-19.351-314.1h58.051l9 188.1 2.7 59.4h4.049l27-179.1h60.75l27 179.1h4.05l11.701-247.5h55.799L449.963 900h-85.499l-22.951-173.25h-4.5L314.064 900zM595.14 905.4q-39.6 0-68.85-13.05-29.251-13.05-47.252-35.55l39.152-43.2q17.1 18.9 37.35 27.9 20.7 9 41.85 9 24.3 0 36.9-10.8t12.6-31.05q0-16.65-9.9-25.2-9.45-8.55-32.4-12.15l-32.85-5.4q-42.3-7.2-61.2-31.05-18.902-24.3-18.902-58.95.001-45.45 29.702-70.2 29.7-25.2 83.25-25.2 36.45 0 63.45 11.25t43.65 30.6l-38.25 42.75q-12.6-13.95-29.7-21.6-17.1-8.1-38.7-8.1-45.45 0-45.45 37.35 0 16.2 9.9 24.3 10.35 8.1 33.3 12.15l32.85 5.85q38.25 6.75 58.95 28.8t20.7 59.4q0 22.05-7.65 40.95-7.65 18.45-22.95 32.4-15.3 13.5-37.8 21.15-22.05 7.65-51.75 7.65M761.91 900V585.9h208.35v55.35H829.41v72h126v55.35h-126V900z"/></svg>