<svg xmlns="http://www.w3.org/2000/svg" width="1200" height="1200" fill="none"><path fill="#1D1E23" fill-rule="evenodd" d="M100 1100h1000V372.728L827.275 100H100zm681.82-681.818h227.27v590.908H190.909V190.909H781.82z"/><path fill="#1D1E23" d="M341.879 663.125V850h-48.75V663.125h-65.325V623.15h179.4v39.975zM432.752 850v-36.075h48.75v-154.7h-48.75V623.15H579v36.075h-48.75v154.7H579V850zM622.75 850V623.15h150.475v39.975H671.5v52h91V755.1h-91V850zM811.125 850V623.15H961.6v39.975H859.875v52h91V755.1h-91V850z"/></svg>