<svg xmlns="http://www.w3.org/2000/svg" width="1200" height="1200" fill="none" viewBox="0 0 1200 1200"><path fill="#000" d="M807.965 100h-610.62C143.805 100 100 145 100 200v800c0 55 43.319 100 96.858 100h805.797c53.54 0 97.345-45 97.345-100V400zm194.69 900h-805.31V200H759.29v250h243.365z"/><path fill="#000" d="M341.879 663.125V850h-48.75V663.125h-65.325V623.15h179.4v39.975zM432.752 850v-36.075h48.75v-154.7h-48.75V623.15H579v36.075h-48.75v154.7H579V850zM622.75 850V623.15h150.475v39.975H671.5v52h91V755.1h-91V850zM811.125 850V623.15H961.6v39.975H859.875v52h91V755.1h-91V850z"/></svg>