<svg xmlns="http://www.w3.org/2000/svg" width="1200" height="1200" fill="none" viewBox="0 0 1200 1200"><path fill="#000" d="M807.965 100h-610.62C143.805 100 100 145 100 200v800c0 55 43.319 100 96.858 100h805.797c53.54 0 97.345-45 97.345-100V400zm194.69 900h-805.31V200H759.29v250h243.365z"/><path fill="#000" d="M373.014 641.25V900h-67.5V641.25h-90.451V585.9h248.401v55.35zM633.84 641.25V900h-67.5V641.25h-90.452V585.9H724.29v55.35zM761.91 900V585.9h208.35v55.35H829.41v72h126v55.35h-126V900z"/></svg>