<svg xmlns="http://www.w3.org/2000/svg" width="1200" height="1200" fill="none"><path fill="#000" fill-rule="evenodd" d="M100 1100h1000V372.728L827.275 100H100zm681.82-681.818h227.27v590.908H190.909V190.909H781.82z"/><path fill="#000" d="m291.563 900-83.249-314.1h75.15l36.899 159.75 18.451 90.45h3.599l18.901-90.45 37.349-159.75h71.551L386.964 900zM607.29 905.4q-63 0-93.6-42.3-30.152-42.75-30.152-120.15t30.152-119.7q30.6-42.75 93.6-42.75 24.3 0 42.75 6.75 18.9 6.3 32.4 18t22.05 28.35q9 16.65 13.95 37.35l-63 15.3q-2.7-11.25-6.3-20.7t-9.45-16.2q-5.4-6.75-13.95-10.35-8.1-4.05-19.8-4.05-27.45 0-39.15 21.6-11.25 21.15-11.25 58.95v54.9q0 37.8 11.25 59.4 11.7 21.15 39.15 21.15 23.4 0 33.75-14.4 10.8-14.4 15.75-36.9l63 15.3q-4.95 20.7-13.95 37.35-8.55 16.65-22.05 28.8-13.5 11.7-32.4 18-18.45 6.3-42.75 6.3M761.91 900V585.9h208.35v55.35H829.41v72h126v55.35h-126V900z"/></svg>