<svg xmlns="http://www.w3.org/2000/svg" width="1200" height="1200" fill="none"><path fill="#000" d="M807.965 100h-610.62C143.805 100 100 145 100 200v800c0 55 43.319 100 96.858 100h805.797c53.54 0 97.345-45 97.345-100V400zm194.69 900h-805.31V200H759.29v250h243.365z"/><path fill="#000" d="m228.564 900-19.351-314.1h58.051l9 188.1 2.7 59.4h4.049l27-179.1h60.75l27 179.1h4.05l11.701-247.5h55.799L449.963 900h-85.499l-22.951-173.25h-4.5L314.064 900zM660.84 900l-19.8-75.6h-85.95L535.74 900h-68.402l85.052-314.1h95.4L732.84 900zm-60.75-248.85h-3.6l-30.6 118.8h64.8zM813.21 900l-83.25-314.1h75.15l36.9 159.75 18.45 90.45h3.6l18.9-90.45 37.35-159.75h71.55L908.61 900z"/></svg>