<svg xmlns="http://www.w3.org/2000/svg" width="1200" height="1200" fill="none" viewBox="0 0 1200 1200"><path fill="#000" d="M807.965 100h-610.62C143.805 100 100 145 100 200v800c0 55 43.319 100 96.858 100h805.797c53.54 0 97.345-45 97.345-100V400zm194.69 900h-805.31V200H759.29v250h243.365z"/><path fill="#000" d="m237.554 850-13.975-226.85h41.925l6.5 135.85 1.95 42.9h2.925l19.5-129.35h43.875l19.5 129.35h2.925l8.45-178.75h40.3L397.454 850h-61.75l-16.575-125.125h-3.25L299.304 850zM434.377 850V623.15h144.948v39.975h-96.198v52h92.948V755.1h-92.948v54.925h96.198V850zM621.775 623.15H701.4q33.474-.001 51.025 16.25c11.915 10.835 17.875 25.565 17.875 44.2q0 19.5-9.75 31.2-9.428 11.378-27.3 16.575v1.95c14.085 3.465 24.915 9.535 32.5 18.2q11.7 12.997 11.7 36.075c0 19.065-6.065 34.235-18.2 45.5-11.915 11.265-28.71 16.9-50.375 16.9h-87.1zm72.15 192.725q17.551 0 25.675-5.85t8.125-21.45v-9.425q-.001-15.6-8.125-21.45t-25.675-5.85h-24.7v64.025zm-6.175-96.525q17.226.001 25.025-5.525 7.8-5.851 7.8-20.8v-9.75q0-14.948-7.8-20.475-7.799-5.526-25.025-5.525h-18.525v62.075zM925.2 748.925l2.6-63.375h-2.925l-42.25 116.675-42.25-116.675h-2.925l2.6 63.375V850H797.8V623.15h57.525l27.95 76.375h2.6l27.95-76.375h53.625V850H925.2z"/></svg>