<svg xmlns="http://www.w3.org/2000/svg" width="1200" height="1200" fill="none"><path fill="#1D1E23" fill-rule="evenodd" d="M100 1100h1000V372.728L827.275 100H100zm681.82-681.818h227.27v590.908H190.909V190.909H781.82z"/><path fill="#1D1E23" d="m228.564 900-19.351-314.1h58.051l9 188.1 2.7 59.4h4.049l27-179.1h60.75l27 179.1h4.05l11.701-247.5h55.799L449.963 900h-85.499l-22.951-173.25h-4.5L314.064 900zM659.04 760.05l3.6-87.75h-4.05l-58.5 161.55-58.5-161.55h-4.05l3.6 87.75V900h-58.502V585.9h79.652l38.7 105.75h3.6l38.7-105.75h74.25V900h-58.5zM813.21 900l-83.25-314.1h75.15l36.9 159.75 18.45 90.45h3.6l18.9-90.45 37.35-159.75h71.55L908.61 900z"/></svg>