<svg xmlns="http://www.w3.org/2000/svg" width="1200" height="1200" fill="none"><path fill="#1D1E23" d="M807.965 100h-610.62C143.805 100 100 145 100 200v800c0 55 43.319 100 96.858 100h805.797c53.54 0 97.345-45 97.345-100V400zm194.69 900h-805.31V200H759.29v250h243.365z"/><path fill="#1D1E23" d="m237.554 850-13.975-226.85h41.925l6.5 135.85 1.95 42.9h2.925l19.5-129.35h43.875l19.5 129.35h2.925l8.45-178.75h40.3L397.454 850h-61.75l-16.575-125.125h-3.25L299.304 850zM505.875 853.9q-45.498.001-67.273-30.875-21.45-30.876-21.45-86.45t21.45-86.45q21.775-30.876 67.273-30.875 45.501-.001 66.95 30.875c14.52 20.585 21.775 49.4 21.775 86.45s-7.255 65.865-21.775 86.45q-21.449 30.876-66.95 30.875m0-39.325c13.87 0 23.4-5.09 28.6-15.275 5.42-10.4 8.125-24.81 8.125-43.225V716.75c0-18.2-2.705-32.39-8.125-42.575-5.2-10.4-14.73-15.6-28.6-15.6q-20.797 0-28.923 15.6-7.8 15.276-7.8 42.575v39.65q0 27.3 7.8 42.9 8.126 15.276 28.923 15.275M622.75 850V623.15h150.475v39.975H671.5v52h91V755.1h-91V850zM811.125 850V623.15H961.6v39.975H859.875v52h91V755.1h-91V850z"/></svg>