<svg xmlns="http://www.w3.org/2000/svg" width="1200" height="1200" fill="none"><path fill="#1D1E23" d="M807.965 100h-610.62C143.805 100 100 145 100 200v800c0 55 43.319 100 96.858 100h805.797c53.54 0 97.345-45 97.345-100V400zm194.69 900h-805.31V200H759.29v250h243.365z"/><path fill="#1D1E23" d="M412.079 850h-55.575l-23.4-45.175-15.925-35.75h-2.925l-16.25 35.75L273.954 850h-51.025l63.7-117.325-59.475-109.525h55.575l18.525 36.075 16.575 36.4h2.6l16.9-36.4 19.5-36.075h51.025l-59.475 110.175zM438.277 850V623.15h49.075v186.875h97.498V850zM622.75 850V623.15h150.475v39.975H671.5v52h91V755.1h-91V850zM811.125 850V623.15H961.6v39.975H859.875v52h91V755.1h-91V850z"/></svg>