<svg xmlns="http://www.w3.org/2000/svg" width="1200" height="1200" fill="none" viewBox="0 0 1200 1200"><path fill="#000" fill-rule="evenodd" d="M100 1100h1000V372.728L827.275 100H100zm681.82-681.818h227.27v590.908H190.909V190.909H781.82z"/><path fill="#000" d="M412.079 850h-55.575l-23.4-45.175-15.925-35.75h-2.925l-16.25 35.75L273.954 850h-51.025l63.7-117.325-59.475-109.525h55.575l18.525 36.075 16.575 36.4h2.6l16.9-36.4 19.5-36.075h51.025l-59.475 110.175zM438.277 850V623.15h49.075v186.875h97.498V850zM622.75 850V623.15h150.475v39.975H671.5v52h91V755.1h-91V850zM811.125 850V623.15H961.6v39.975H859.875v52h91V755.1h-91V850z"/></svg>