<svg xmlns="http://www.w3.org/2000/svg" width="1200" height="1200" fill="none"><path fill="#000" fill-rule="evenodd" d="M100 1100h1000V372.728L827.275 100H100zm681.82-681.818h227.27v590.908H190.909V190.909H781.82z"/><path fill="#000" d="M412.079 850h-55.575l-23.4-45.175-15.925-35.75h-2.925l-16.25 35.75L273.954 850h-51.025l63.7-117.325-59.475-109.525h55.575l18.525 36.075 16.575 36.4h2.6l16.9-36.4 19.5-36.075h51.025l-59.475 110.175zM438.277 850V623.15h49.075v186.875h97.498V850zM690.675 853.9q-28.597.001-49.725-9.425c-14.085-6.285-25.46-14.84-34.125-25.675l28.275-31.2q12.351 13.649 26.975 20.15 14.947 6.501 30.225 6.5 17.551 0 26.65-7.8t9.1-22.425c0-8.015-2.385-14.085-7.15-18.2q-6.825-6.172-23.4-8.775l-23.725-3.9q-30.549-5.198-44.2-22.425-13.65-17.549-13.65-42.575 0-32.827 21.45-50.7 21.449-18.201 60.125-18.2 26.325.001 45.825 8.125c13 5.415 23.51 12.785 31.525 22.1l-27.625 30.875q-9.098-10.072-21.45-15.6-12.351-5.85-27.95-5.85-32.826-.001-32.825 26.975.001 11.7 7.15 17.55 7.476 5.85 24.05 8.775l23.725 4.225c18.415 3.25 32.61 10.185 42.575 20.8q14.949 15.923 14.95 42.9.001 15.924-5.525 29.575-5.527 13.327-16.575 23.4-11.048 9.749-27.3 15.275-15.924 5.526-37.375 5.525M810.15 623.15h79.625q33.474-.001 51.025 16.25c11.915 10.835 17.875 25.565 17.875 44.2q0 19.5-9.75 31.2-9.428 11.378-27.3 16.575v1.95c14.08 3.465 24.915 9.535 32.5 18.2q11.7 12.997 11.7 36.075c0 19.065-6.07 34.235-18.2 45.5q-17.879 16.899-50.375 16.9h-87.1zm72.15 192.725c11.7 0 20.255-1.95 25.675-5.85q8.124-5.85 8.125-21.45v-9.425q-.001-15.6-8.125-21.45c-5.42-3.9-13.975-5.85-25.675-5.85h-24.7v64.025zm-6.175-96.525c11.48 0 19.825-1.84 25.025-5.525q7.8-5.851 7.8-20.8v-9.75q0-14.948-7.8-20.475c-5.2-3.685-13.545-5.525-25.025-5.525H857.6v62.075z"/></svg>