<svg xmlns="http://www.w3.org/2000/svg" width="1200" height="1200" fill="none" viewBox="0 0 1200 1200"><path fill="#000" d="M807.965 100h-610.62C143.805 100 100 145 100 200v800c0 55 43.319 100 96.858 100h805.797c53.54 0 97.345-45 97.345-100V400zm194.69 900h-805.31V200H759.29v250h243.365z"/><path fill="#000" d="M412.079 850h-55.575l-23.4-45.175-15.925-35.75h-2.925l-16.25 35.75L273.954 850h-51.025l63.7-117.325-59.475-109.525h55.575l18.525 36.075 16.575 36.4h2.6l16.9-36.4 19.5-36.075h51.025l-59.475 110.175zM438.277 850V623.15h49.075v186.875h97.498V850zM690.675 853.9q-28.597.001-49.725-9.425c-14.085-6.285-25.46-14.84-34.125-25.675l28.275-31.2q12.351 13.649 26.975 20.15 14.947 6.501 30.225 6.5 17.551 0 26.65-7.8t9.1-22.425c0-8.015-2.385-14.085-7.15-18.2q-6.825-6.172-23.4-8.775l-23.725-3.9q-30.549-5.198-44.2-22.425-13.65-17.549-13.65-42.575 0-32.827 21.45-50.7 21.449-18.201 60.125-18.2 26.325.001 45.825 8.125c13 5.415 23.51 12.785 31.525 22.1l-27.625 30.875q-9.098-10.072-21.45-15.6-12.351-5.85-27.95-5.85-32.826-.001-32.825 26.975.001 11.7 7.15 17.55 7.476 5.85 24.05 8.775l23.725 4.225c18.415 3.25 32.61 10.185 42.575 20.8q14.949 15.923 14.95 42.9.001 15.924-5.525 29.575-5.527 13.327-16.575 23.4-11.048 9.749-27.3 15.275-15.924 5.526-37.375 5.525M925.2 748.925l2.6-63.375h-2.925l-42.25 116.675-42.25-116.675h-2.925l2.6 63.375V850H797.8V623.15h57.525l27.95 76.375h2.6l27.95-76.375h53.625V850H925.2z"/></svg>