<svg xmlns="http://www.w3.org/2000/svg" width="1200" height="1200" fill="none"><path fill="#1D1E23" fill-rule="evenodd" d="M100 1100h1000V372.728L827.275 100H100zm681.82-681.818h227.27v590.908H190.909V190.909H781.82z"/><path fill="#1D1E23" d="M470.214 900h-76.951l-32.4-62.55-22.049-49.5h-4.051l-22.5 49.5L278.964 900h-70.65l88.2-162.45-82.351-151.65h76.95l25.651 49.95 22.95 50.4h3.599l23.401-50.4 27-49.95h70.649l-82.349 152.55zM659.04 760.05l3.6-87.75h-4.05l-58.5 161.55-58.5-161.55h-4.05l3.6 87.75V900h-58.502V585.9h79.652l38.7 105.75h3.6l38.7-105.75h74.25V900h-58.5zM767.31 900V585.9h67.95v258.75h135V900z"/></svg>