<svg xmlns="http://www.w3.org/2000/svg" width="1200" height="1200" fill="none"><path fill="#1D1E23" fill-rule="evenodd" d="M100 1100h1000V372.728L827.275 100H100zm681.82-681.818h227.27v590.908H190.909V190.909H781.82z"/><path fill="#1D1E23" d="M470.214 900h-76.951l-32.4-62.55-22.049-49.5h-4.051l-22.5 49.5L278.964 900h-70.65l88.2-162.45-82.351-151.65h76.95l25.651 49.95 22.95 50.4h3.599l23.401-50.4 27-49.95h70.649l-82.349 152.55zM595.14 905.4q-39.6 0-68.85-13.05-29.251-13.05-47.252-35.55l39.152-43.2q17.1 18.9 37.35 27.9 20.7 9 41.85 9 24.3 0 36.9-10.8t12.6-31.05q0-16.65-9.9-25.2-9.45-8.55-32.4-12.15l-32.85-5.4q-42.3-7.2-61.2-31.05-18.902-24.3-18.902-58.95.001-45.45 29.702-70.2 29.7-25.2 83.25-25.2 36.45 0 63.45 11.25t43.65 30.6l-38.25 42.75q-12.6-13.95-29.7-21.6-17.1-8.1-38.7-8.1-45.45 0-45.45 37.35 0 16.2 9.9 24.3 10.35 8.1 33.3 12.15l32.85 5.85q38.25 6.75 58.95 28.8t20.7 59.4q0 22.05-7.65 40.95-7.65 18.45-22.95 32.4-15.3 13.5-37.8 21.15-22.05 7.65-51.75 7.65M754.71 585.9h101.25q63.45 0 94.05 40.5t30.6 116.55-30.6 116.55-94.05 40.5H754.71zm96.75 261q30.15 0 44.1-19.35t13.95-56.25v-57.15q0-36.45-13.95-55.8T851.46 639h-30.15v207.9z"/></svg>