<svg xmlns="http://www.w3.org/2000/svg" width="1200" height="1200" fill="none"><path fill="#1D1E23" fill-rule="evenodd" d="M100 1100h1000V372.728L827.275 100H100zm681.82-681.818h227.27v590.908H190.909V190.909H781.82z"/><path fill="#1D1E23" d="M452.213 900h-226.35v-58.95l146.25-199.8h-141.75V585.9h217.35v58.95l-146.249 199.8h150.749zM498.838 900v-49.95h67.502v-214.2h-67.502V585.9H701.34v49.95h-67.5v214.2h67.5V900zM760.11 900V585.9h121.5q22.95 0 40.95 7.2 18 6.75 30.15 19.8 12.6 13.05 18.9 31.5t6.3 41.4-6.3 41.4-18.9 31.5q-12.15 13.05-30.15 20.25-18 6.75-40.95 6.75h-53.55V900zm67.95-168.75h36.45q23.85 0 32.85-9 9.45-9 9.45-29.7v-13.5q0-20.7-9.45-29.7-9-9-32.85-9h-36.45z"/></svg>