<svg xmlns="http://www.w3.org/2000/svg" width="1200" height="1200" fill="none"><path fill="#1D1E23" d="M807.965 100h-610.62C143.805 100 100 145 100 200v800c0 55 43.319 100 96.858 100h805.797c53.54 0 97.345-45 97.345-100V400zm194.69 900h-805.31V200H759.29v250h243.365z"/><path fill="#1D1E23" d="M452.213 900h-226.35v-58.95l146.25-199.8h-141.75V585.9h217.35v58.95l-146.249 199.8h150.749zM498.838 900v-49.95h67.502v-214.2h-67.502V585.9H701.34v49.95h-67.5v214.2h67.5V900zM760.11 900V585.9h121.5q22.95 0 40.95 7.2 18 6.75 30.15 19.8 12.6 13.05 18.9 31.5t6.3 41.4-6.3 41.4-18.9 31.5q-12.15 13.05-30.15 20.25-18 6.75-40.95 6.75h-53.55V900zm67.95-168.75h36.45q23.85 0 32.85-9 9.45-9 9.45-29.7v-13.5q0-20.7-9.45-29.7-9-9-32.85-9h-36.45z"/></svg>