<svg viewBox="0 0 24 24" fill="none" xmlns="http://www.w3.org/2000/svg"><g><path fill-rule="evenodd" clip-rule="evenodd" d="M9.5 2H14.5V3.25H9.5V2ZM12.0023 19.3994C13.2652 19.3994 14.6429 18.9225 15.7523 18.1494C17.6328 20.0248 22 19.3994 22 19.3994V21.8994C22 21.8994 17.6328 22.5244 15.7523 20.6494C14.6437 21.4221 13.2656 21.8994 12.0023 21.8994C10.739 21.8994 9.3613 21.4225 8.25232 20.6494C6.38357 22.5244 2.00232 21.8994 2.00232 21.8994V19.3994C2.00232 19.3994 6.3824 20.0244 8.25232 18.1494C9.36091 18.9221 10.7394 19.3994 12.0023 19.3994ZM8.25 15.6492C9.35898 16.4223 10.7367 16.8992 12 16.8992C13.2633 16.8992 14.6414 16.4219 15.75 15.6492C16.1352 16.0336 16.6246 16.3133 17.1598 16.5137L19.5 10.75L12 8.25L4.5 10.75L6.83867 16.516C7.37578 16.3148 7.86641 16.0352 8.25 15.6492ZM17 5.77197V8.59932L12 6.93252L7 8.59932V5.77197C7 5.44045 7.1317 5.12251 7.36612 4.88809C7.60054 4.65367 7.91848 4.52197 8.25 4.52197H15.75C16.0815 4.52197 16.3995 4.65367 16.6339 4.88809C16.8683 5.12251 17 5.44045 17 5.77197Z" fill="#1D1E23"/></g></svg>