<svg viewBox="0 0 24 24" fill="none" xmlns="http://www.w3.org/2000/svg"><g><path fill-rule="evenodd" clip-rule="evenodd" d="M10.1227 2H13.8727C14.2179 2 14.4977 2.27982 14.4977 2.625C14.4977 2.97018 14.2179 3.25 13.8727 3.25H10.1227C9.7775 3.25 9.49768 2.97018 9.49768 2.625C9.49768 2.27982 9.7775 2 10.1227 2ZM14.2794 18.9373C15.1794 18.5813 16.2589 18.6763 17.1652 19.016C18.2837 19.4352 19.5997 19.514 20.5757 19.4975C21.3287 19.4848 21.9977 20.0734 21.9977 20.8266C21.9977 21.4422 21.5439 21.9615 20.9288 21.9871C19.9359 22.0284 18.4253 21.9881 17.1653 21.5159C16.259 21.1763 15.1794 21.0813 14.2795 21.4373C13.5324 21.7329 12.7462 21.8994 12 21.8994C11.2555 21.8994 10.4712 21.7337 9.72557 21.4394C8.82308 21.0832 7.73961 21.1797 6.83061 21.519C5.57263 21.9886 4.06239 22.0283 3.06941 21.987C2.45403 21.9614 2 21.4419 2 20.826C2 20.073 2.66848 19.4845 3.42134 19.4974C4.39752 19.514 5.71375 19.436 6.83113 19.0187C7.7398 18.6793 8.82282 18.5829 9.72502 18.9391C10.4709 19.2335 11.2555 19.3994 12 19.3994C12.7461 19.3994 13.5322 19.233 14.2794 18.9373ZM7.65178 16.1199C8.03091 15.883 8.51257 15.8414 8.90483 16.0558C9.87498 16.586 10.9739 16.8992 11.9977 16.8992C13.0223 16.8992 14.1224 16.5852 15.093 16.0543C15.4841 15.8404 15.9648 15.8815 16.3429 16.1177C16.7659 16.3819 17.3069 16.1456 17.4945 15.6835L18.6956 12.7255C19.13 11.6555 18.5705 10.4409 17.4749 10.0758L12.6301 8.46082C12.2196 8.32397 11.7758 8.32397 11.3652 8.46082L6.51967 10.076C5.42436 10.4411 4.86482 11.6552 5.29877 12.7251L6.49959 15.6857C6.68703 16.1479 7.22883 16.3841 7.65178 16.1199ZM16.9977 5.77197V8.59932L12.6302 7.14337C12.2196 7.00651 11.7757 7.00651 11.3652 7.14337L6.99768 8.59932V5.77197C6.99768 5.44045 7.12938 5.12251 7.3638 4.88809C7.59822 4.65367 7.91616 4.52197 8.24768 4.52197H15.7477C16.0792 4.52197 16.3971 4.65367 16.6316 4.88809C16.866 5.12251 16.9977 5.44045 16.9977 5.77197Z" fill="#1D1E23"/></g></svg>