<svg viewBox="0 0 24 24" fill="none" xmlns="http://www.w3.org/2000/svg"><g><path d="M4.35661 8.10828C3.99691 8.1084 3.65197 8.25134 3.39762 8.50569C3.14327 8.76004 3.00033 9.10498 3.00021 9.46468V15.1448C2.99701 15.3249 3.02972 15.5039 3.09644 15.6712C3.16315 15.8386 3.26254 15.991 3.38879 16.1195C3.51504 16.248 3.66563 16.3501 3.83176 16.4198C3.99789 16.4895 4.17624 16.5253 4.3564 16.5253C4.53655 16.5253 4.7149 16.4895 4.88104 16.4198C5.04717 16.3501 5.19776 16.248 5.32401 16.1195C5.45026 15.991 5.54965 15.8386 5.61636 15.6712C5.68308 15.5039 5.71579 15.3249 5.71258 15.1448V9.46382C5.71224 9.10434 5.56926 8.75969 5.31503 8.50554C5.06079 8.25138 4.71609 8.10851 4.35661 8.10828ZM15.2949 3.00762L16.2418 1.27864C16.2537 1.257 16.2612 1.23322 16.264 1.20867C16.2667 1.18412 16.2645 1.15928 16.2576 1.13556C16.2507 1.11185 16.2392 1.08972 16.2238 1.07045C16.2083 1.05118 16.1892 1.03514 16.1676 1.02324C16.1459 1.01135 16.1222 1.00384 16.0976 1.00113C16.0731 0.998426 16.0482 1.00058 16.0245 1.00748C16.0008 1.01437 15.9787 1.02587 15.9594 1.04132C15.9401 1.05677 15.9241 1.07586 15.9122 1.0975L14.9563 2.84537C14.1195 2.47792 13.2156 2.28797 12.3017 2.28753C11.3878 2.28708 10.4837 2.47615 9.64657 2.84279L8.68936 1.09965C8.66551 1.05593 8.62527 1.02348 8.5775 1.00944C8.52972 0.995389 8.47832 1.0009 8.43461 1.02475C8.39089 1.0486 8.35844 1.08884 8.3444 1.13661C8.33035 1.18439 8.33586 1.23579 8.35971 1.2795L9.30704 3.00676C7.44585 3.96654 6.18861 5.79425 6.18947 7.8928H18.4082C18.4082 5.79468 17.1535 3.97084 15.2949 3.00891V3.00762ZM9.51908 5.67835C9.41781 5.67784 9.31896 5.64734 9.23501 5.5907C9.15106 5.53406 9.08577 5.45381 9.04738 5.36009C9.009 5.26638 8.99924 5.16339 9.01934 5.06413C9.03944 4.96487 9.0885 4.87379 9.16032 4.80239C9.23214 4.73099 9.32351 4.68246 9.42288 4.66294C9.52226 4.64342 9.62519 4.65378 9.71868 4.69272C9.81217 4.73165 9.89203 4.7974 9.94818 4.88169C10.0043 4.96597 10.0343 5.065 10.0342 5.16627C10.0341 5.23376 10.0207 5.30057 9.99479 5.36286C9.96885 5.42516 9.93086 5.48173 9.883 5.52931C9.83514 5.57689 9.77836 5.61455 9.71591 5.64012C9.65346 5.6657 9.58657 5.67869 9.51908 5.67835ZM15.0829 5.67835C14.9813 5.67869 14.882 5.64888 14.7974 5.59268C14.7128 5.53649 14.6468 5.45645 14.6077 5.3627C14.5686 5.26895 14.5583 5.16572 14.5779 5.06608C14.5976 4.96644 14.6464 4.87489 14.7182 4.80301C14.7899 4.73114 14.8814 4.68218 14.981 4.66235C15.0806 4.64251 15.1839 4.65269 15.2777 4.6916C15.3715 4.7305 15.4516 4.79638 15.508 4.88088C15.5643 4.96539 15.5943 5.06471 15.5941 5.16627C15.5941 5.30193 15.5403 5.43205 15.4444 5.52806C15.3486 5.62407 15.2186 5.67813 15.0829 5.67835ZM6.24055 8.36497V17.1674C6.24038 17.3575 6.2777 17.5458 6.35038 17.7215C6.42306 17.8972 6.52967 18.0568 6.6641 18.1912C6.79854 18.3257 6.95817 18.4323 7.13385 18.505C7.30953 18.5776 7.49782 18.615 7.68795 18.6148H8.6752V21.6195C8.67199 21.7996 8.7047 21.9786 8.77142 22.1459C8.83814 22.3133 8.93752 22.4656 9.06377 22.5942C9.19002 22.7227 9.34061 22.8247 9.50674 22.8944C9.67288 22.9641 9.85123 23 10.0314 23C10.2115 23 10.3899 22.9641 10.556 22.8944C10.7222 22.8247 10.8727 22.7227 10.999 22.5942C11.1252 22.4656 11.2246 22.3133 11.2913 22.1459C11.3581 21.9786 11.3908 21.7996 11.3876 21.6195V18.6148H13.2187V21.6195C13.2187 21.9792 13.3616 22.3242 13.616 22.5786C13.8704 22.833 14.2154 22.9759 14.5751 22.9759C14.9348 22.9759 15.2798 22.833 15.5342 22.5786C15.7886 22.3242 15.9315 21.9792 15.9315 21.6195V18.6148H16.9188C17.1089 18.6148 17.2971 18.5775 17.4728 18.5047C17.6484 18.432 17.808 18.3254 17.9425 18.191C18.0769 18.0566 18.1836 17.897 18.2564 17.7214C18.3291 17.5458 18.3666 17.3575 18.3666 17.1674V8.36454L6.24055 8.36497ZM21.6031 9.46296C21.6063 9.28284 21.5735 9.10388 21.5068 8.93653C21.4401 8.76918 21.3407 8.6168 21.2145 8.48829C21.0882 8.35977 20.9376 8.25769 20.7715 8.18801C20.6054 8.11833 20.427 8.08244 20.2469 8.08244C20.0667 8.08244 19.8884 8.11833 19.7222 8.18801C19.5561 8.25769 19.4055 8.35977 19.2793 8.48829C19.153 8.6168 19.0536 8.76918 18.9869 8.93653C18.9202 9.10388 18.8875 9.28284 18.8907 9.46296V15.1431C18.8875 15.3232 18.9202 15.5022 18.9869 15.6695C19.0536 15.8369 19.153 15.9893 19.2793 16.1178C19.4055 16.2463 19.5561 16.3484 19.7222 16.4181C19.8884 16.4877 20.0667 16.5236 20.2469 16.5236C20.427 16.5236 20.6054 16.4877 20.7715 16.4181C20.9376 16.3484 21.0882 16.2463 21.2145 16.1178C21.3407 15.9893 21.4401 15.8369 21.5068 15.6695C21.5735 15.5022 21.6063 15.3232 21.6031 15.1431V9.46296Z" fill="#1D1E23"/></g></svg>