<svg viewBox="0 0 24 24" fill="none" xmlns="http://www.w3.org/2000/svg"><path fill-rule="evenodd" clip-rule="evenodd" d="M16 6H11.5C9.567 6 8 7.567 8 9.5C8 11.2632 9.30385 12.7219 11 12.9646V13H11.4974C11.4983 13 11.4991 13 11.5 13H12.5017C13.3294 13.0009 14 13.6721 14 14.5C14 15.3284 13.3284 16 12.5 16H11L8 16V18L12.5 18C14.433 18 16 16.433 16 14.5C16 12.7368 14.6961 11.2781 13 11.0354V11H12.5026C12.5017 11 12.5009 11 12.5 11H11.4983C10.6706 10.9991 10 10.3279 10 9.5C10 8.67157 10.6716 8 11.5 8H16V6Z" fill="#1D1E23"/><path fill="#1D1E23" d="M11 5H13V19H11z"/><circle cx="12" cy="12" r="9" stroke="#1D1E23" stroke-width="2"/></svg>