<svg viewBox="0 0 24 24" fill="none" xmlns="http://www.w3.org/2000/svg"><path fill-rule="evenodd" clip-rule="evenodd" d="M15 6H11.5C9.567 6 8 7.567 8 9.5C8 11.433 9.567 13 11.5 13H12C12.0005 13 12.0009 13 12.0014 13H12.5C13.3284 13 14 13.6716 14 14.5C14 15.3284 13.3284 16 12.5 16H11L9 16C8.44772 16 8 16.4477 8 17C8 17.5523 8.44772 18 9 18L12.5 18C14.433 18 16 16.433 16 14.5C16 12.567 14.433 11 12.5 11H12C11.9994 11 11.9989 11 11.9983 11H11.5C10.6716 11 10 10.3284 10 9.5C10 8.67157 10.6716 8 11.5 8H15C15.5523 8 16 7.55228 16 7C16 6.44772 15.5523 6 15 6Z" fill="#1D1E23"/><rect x="11" y="5" width="2" height="14" rx="1" fill="#1D1E23"/><circle cx="12" cy="12" r="9" stroke="#1D1E23" stroke-width="2"/></svg>