<svg viewBox="0 0 24 24" fill="none" xmlns="http://www.w3.org/2000/svg"><g><path d="M4.50751 16.495L6.52705 14.905C7.01174 14.525 7.29447 13.945 7.29447 13.335V10.735C10.344 9.755 13.6459 9.745 16.7055 10.735V13.345C16.7055 13.955 16.9883 14.535 17.473 14.915L19.4824 16.495C20.2902 17.125 21.4414 17.065 22.1684 16.345L23.4003 15.125C24.2081 14.325 24.2081 12.995 23.3498 12.245C16.8772 6.585 7.12281 6.585 0.650183 12.245C-0.208122 12.995 -0.208122 14.325 0.599694 15.125L1.83161 16.345C2.54855 17.065 3.69969 17.125 4.50751 16.495Z" fill="#1D1E23"/></g></svg>