<svg viewBox="0 0 24 24" fill="none" xmlns="http://www.w3.org/2000/svg"><g><path d="M16 2H6C5.46957 2 4.96086 2.21071 4.58579 2.58579C4.21071 2.96086 4 3.46957 4 4V20C4 20.5304 4.21071 21.0391 4.58579 21.4142C4.96086 21.7893 5.46957 22 6 22H18C18.5304 22 19.0391 21.7893 19.4142 21.4142C19.7893 21.0391 20 20.5304 20 20V6L16 2ZM10 8H14V12H10V8ZM9 21H6C5.73478 21 5.48043 20.8946 5.29289 20.7071C5.10536 20.5196 5 20.2652 5 20V17H9V21ZM14 21H10V17H14V21ZM19 17V20C19 20.2652 18.8946 20.5196 18.7071 20.7071C18.5196 20.8946 18.2652 21 18 21H15V17H19ZM19 16H5V9C5 8.73478 5.10536 8.48043 5.29289 8.29289C5.48043 8.10536 5.73478 8 6 8H9V13H19V16ZM19 12H15V8H18C18.2652 8 18.5196 8.10536 18.7071 8.29289C18.8946 8.48043 19 8.73478 19 9V12Z" fill="#1D1E23"/></g></svg>