<svg viewBox="0 0 2400 2400" fill="none" xmlns="http://www.w3.org/2000/svg"><path d="M448.000 429.900 L 448.000 459.800 324.000 686.643 L 200.000 913.486 200.000 970.743 L 200.000 1028.000 1200.000 1028.000 L 2200.000 1028.000 2200.000 970.814 L 2200.000 913.628 2076.000 686.772 L 1952.000 459.915 1952.000 429.958 L 1952.000 400.000 1200.000 400.000 L 448.000 400.000 448.000 429.900 M388.000 1544.000 L 388.000 2000.000 450.000 2000.000 L 512.000 2000.000 512.000 1658.000 L 512.000 1316.000 730.000 1316.000 L 948.000 1316.000 948.000 1658.000 L 948.000 2000.000 1480.000 2000.000 L 2012.000 2000.000 2012.000 1544.000 L 2012.000 1088.000 1200.000 1088.000 L 388.000 1088.000 388.000 1544.000 M1888.000 1544.000 L 1888.000 1772.000 1482.000 1772.000 L 1076.000 1772.000 1076.000 1544.000 L 1076.000 1316.000 1482.000 1316.000 L 1888.000 1316.000 1888.000 1544.000 " fill="#1D1E23" stroke="none" fill-rule="evenodd"/></svg>