<svg viewBox="0 0 2400 2400" fill="none" xmlns="http://www.w3.org/2000/svg"><path d="M1176.000 302.715 C 940.885 326.815,749.852 443.580,632.785 634.744 L 613.692 665.922 572.470 677.001 C 502.328 695.855,440.148 726.225,385.722 768.214 C 335.251 807.152,276.597 878.915,246.949 938.000 C 233.702 964.400,214.430 1023.069,207.531 1058.000 C 200.380 1094.199,200.402 1185.969,207.570 1222.000 C 226.175 1315.531,266.526 1393.294,331.911 1461.625 C 403.855 1536.810,481.295 1580.932,585.716 1606.230 C 607.872 1611.598,632.587 1615.992,640.638 1615.995 L 655.276 1616.000 649.445 1595.000 C 640.092 1561.317,638.033 1483.444,645.561 1448.141 C 653.145 1412.572,673.554 1368.049,697.935 1333.882 C 761.718 1244.498,888.216 1191.429,1008.016 1203.798 C 1063.634 1209.540,1098.665 1219.958,1150.788 1246.258 L 1199.576 1270.875 1248.788 1246.283 C 1322.810 1209.293,1389.005 1196.519,1465.984 1204.370 C 1598.548 1217.890,1704.737 1299.316,1747.188 1420.000 C 1756.940 1447.724,1757.711 1454.703,1757.355 1512.000 C 1757.096 1553.781,1755.020 1580.952,1750.988 1595.319 C 1745.729 1614.063,1745.718 1616.910,1750.893 1618.896 C 1761.820 1623.089,1829.758 1616.298,1863.937 1607.597 C 1943.807 1587.263,2013.473 1550.174,2065.568 1500.251 C 2165.045 1404.921,2207.641 1294.499,2196.009 1162.104 C 2189.361 1086.440,2166.052 1023.525,2121.576 961.197 C 2076.194 897.599,2002.569 841.435,1923.409 810.027 C 1897.529 799.759,1896.692 798.976,1892.117 780.738 C 1882.776 743.506,1855.027 679.517,1830.539 638.745 C 1716.049 448.118,1522.942 327.129,1296.576 304.197 C 1257.205 300.208,1206.535 299.585,1176.000 302.715 M1292.576 364.227 C 1375.846 372.723,1445.023 392.535,1517.911 428.761 C 1675.760 507.213,1785.291 638.497,1835.833 809.822 L 1846.401 845.643 1884.200 859.978 C 1984.603 898.055,2051.437 954.412,2094.319 1037.157 C 2119.508 1085.761,2126.982 1109.680,2132.239 1158.505 C 2140.376 1234.079,2128.404 1297.737,2093.708 1363.395 C 2045.338 1454.927,1964.526 1517.657,1856.370 1547.629 L 1828.023 1555.484 1826.262 1546.742 C 1825.293 1541.934,1823.541 1519.100,1822.367 1496.000 C 1817.406 1398.391,1785.859 1326.134,1719.021 1259.297 C 1596.151 1136.427,1408.260 1107.211,1235.000 1184.033 L 1200.000 1199.552 1165.000 1184.033 C 1068.328 1141.169,977.974 1131.131,878.815 1152.237 C 752.801 1179.059,647.513 1264.603,602.726 1376.553 C 585.590 1419.387,579.570 1447.228,576.705 1496.902 L 574.000 1543.804 531.895 1526.867 C 388.355 1469.124,285.653 1338.628,267.500 1190.919 C 261.350 1140.869,267.660 1066.143,281.821 1021.345 C 294.090 982.528,322.899 925.483,345.047 896.149 C 368.594 864.960,412.194 823.630,446.744 799.746 C 497.686 764.529,552.202 742.383,628.000 726.113 L 658.000 719.673 681.125 678.801 C 720.410 609.367,766.841 553.066,821.926 508.067 C 955.001 399.357,1125.673 347.197,1292.576 364.227 M933.272 1264.349 C 828.897 1276.639,744.156 1346.185,709.496 1448.000 C 698.103 1481.467,699.559 1552.505,712.406 1590.000 L 722.000 1618.000 764.014 1619.125 L 806.028 1620.251 878.014 1482.067 C 917.606 1406.065,951.566 1343.459,953.479 1342.941 C 955.393 1342.424,967.787 1369.900,981.022 1404.000 C 1076.543 1650.113,1136.741 1802.341,1139.725 1805.325 C 1143.429 1809.029,1164.354 1772.376,1212.960 1677.045 L 1242.000 1620.090 1284.765 1620.045 L 1327.531 1620.000 1340.483 1595.700 C 1363.615 1552.299,1396.223 1534.642,1454.000 1534.229 C 1480.456 1534.040,1489.444 1535.732,1505.881 1544.000 C 1530.197 1556.231,1551.706 1576.991,1561.966 1598.133 C 1573.042 1620.957,1574.937 1667.156,1565.780 1691.133 C 1556.226 1716.149,1528.399 1745.042,1502.855 1756.468 C 1473.610 1769.550,1426.303 1769.674,1398.000 1756.743 C 1372.861 1745.257,1350.147 1723.548,1337.587 1699.000 L 1327.865 1680.000 1304.277 1680.000 L 1280.689 1680.000 1239.876 1759.000 C 1192.561 1850.583,1135.982 1956.000,1134.141 1956.000 C 1131.632 1956.000,1096.123 1867.410,951.490 1500.307 C 948.214 1491.992,946.902 1491.423,942.256 1496.307 C 939.277 1499.438,915.798 1542.050,890.081 1591.000 L 843.321 1680.000 810.661 1680.055 C 776.093 1680.112,758.918 1682.932,760.836 1688.234 C 764.792 1699.161,820.994 1764.527,860.207 1803.804 C 914.498 1858.185,974.764 1911.584,1105.161 2020.849 L 1200.323 2100.588 1283.161 2031.310 C 1536.201 1819.691,1621.430 1732.944,1665.658 1642.000 C 1692.006 1587.822,1697.702 1565.133,1697.789 1514.000 C 1697.882 1459.369,1687.533 1423.932,1659.044 1381.339 C 1615.160 1315.727,1544.520 1274.063,1459.667 1263.746 C 1379.520 1254.001,1299.576 1277.251,1229.000 1330.831 L 1200.000 1352.847 1171.000 1330.800 C 1100.800 1277.430,1018.218 1254.346,933.272 1264.349 " fill="#1D1E23" stroke="none" fill-rule="evenodd"/></svg>