<svg viewBox="0 0 2400 2400" fill="none" xmlns="http://www.w3.org/2000/svg"><path d="M1156.000 304.411 C 1010.783 320.738,873.607 380.432,766.974 473.702 C 713.259 520.686,656.301 590.406,627.406 644.541 C 615.555 666.744,615.014 667.153,591.339 671.811 C 502.198 689.348,407.282 740.804,340.043 808.043 C 194.905 953.181,159.168 1167.739,250.106 1348.000 C 308.398 1463.547,412.608 1552.365,538.000 1593.371 C 575.372 1605.592,622.999 1616.000,641.553 1616.000 L 654.583 1616.000 647.195 1587.000 C 637.490 1548.903,637.064 1478.341,646.314 1441.015 C 691.847 1257.283,896.338 1156.369,1093.714 1220.228 C 1124.838 1230.298,1168.285 1251.656,1193.000 1269.036 C 1198.541 1272.933,1201.459 1272.933,1207.000 1269.036 C 1231.715 1251.656,1275.162 1230.298,1306.286 1220.228 C 1503.342 1156.472,1708.156 1257.241,1753.496 1440.256 C 1764.800 1485.888,1760.900 1573.922,1745.841 1613.000 C 1743.431 1619.255,1746.112 1620.000,1771.048 1620.000 C 1850.006 1620.000,1942.811 1590.263,2017.113 1541.155 C 2076.779 1501.720,2139.723 1425.306,2167.499 1358.585 C 2190.085 1304.331,2197.777 1264.705,2197.895 1202.000 C 2198.054 1117.009,2180.624 1054.071,2138.223 986.534 C 2109.737 941.161,2088.220 916.173,2052.000 886.400 C 2007.040 849.443,1967.880 826.359,1919.011 808.005 L 1898.000 800.113 1888.236 767.455 C 1859.927 672.769,1799.185 574.463,1722.151 498.661 C 1576.452 355.293,1360.984 281.364,1156.000 304.411 M1299.021 364.039 C 1486.345 383.774,1656.612 484.914,1756.658 635.881 C 1793.420 691.354,1832.312 780.954,1841.966 832.410 C 1844.509 845.965,1845.973 847.054,1873.317 855.726 C 1977.732 888.843,2056.794 955.922,2102.045 1049.787 C 2125.340 1098.109,2131.922 1124.778,2134.675 1182.000 C 2139.261 1277.325,2111.639 1357.515,2048.692 1431.616 C 2005.806 1482.100,1923.793 1531.862,1858.000 1547.318 L 1826.000 1554.835 1823.365 1500.418 C 1818.449 1398.916,1787.112 1326.533,1718.290 1257.710 C 1595.411 1134.831,1399.595 1105.304,1233.000 1184.533 L 1200.000 1200.228 1167.000 1184.533 C 1084.296 1145.201,997.404 1132.299,906.994 1145.927 C 715.256 1174.828,576.000 1327.047,576.000 1507.731 L 576.000 1543.799 543.000 1531.736 C 398.377 1478.868,291.822 1351.500,267.876 1202.871 C 261.126 1160.973,265.039 1079.956,275.839 1038.000 C 285.366 1000.991,312.097 943.284,336.466 907.119 C 345.775 893.304,367.029 868.385,383.696 851.743 C 449.565 785.978,525.233 746.225,619.306 727.963 C 639.825 723.980,657.050 720.109,657.584 719.360 C 658.119 718.612,667.919 700.900,679.364 680.000 C 797.947 463.439,1045.309 337.310,1299.021 364.039 M917.945 1265.820 C 859.469 1276.447,808.891 1303.666,768.193 1346.410 C 705.497 1412.259,684.326 1505.198,712.682 1590.100 L 722.000 1618.000 764.000 1619.076 L 806.000 1620.152 868.947 1498.812 C 903.568 1432.075,937.010 1368.116,943.264 1356.681 L 954.634 1335.889 1046.003 1570.945 C 1096.256 1700.225,1138.675 1807.521,1140.266 1809.380 C 1141.858 1811.239,1165.399 1769.423,1192.580 1716.454 L 1242.000 1620.148 1284.531 1620.074 L 1327.061 1620.000 1337.691 1598.274 C 1358.171 1556.413,1392.396 1535.459,1444.612 1532.813 C 1475.128 1531.266,1481.777 1532.227,1500.795 1540.934 C 1548.775 1562.900,1573.392 1599.750,1573.254 1649.403 C 1573.194 1671.084,1570.881 1682.837,1563.690 1698.000 C 1519.631 1790.904,1380.302 1791.518,1336.877 1699.000 L 1327.959 1680.000 1304.624 1680.000 L 1281.288 1680.000 1209.644 1817.598 C 1170.240 1893.277,1136.292 1955.517,1134.203 1955.909 C 1132.115 1956.301,1089.549 1851.965,1039.611 1724.051 C 989.673 1596.138,947.924 1490.590,946.835 1489.502 C 945.747 1488.414,932.734 1510.580,917.919 1538.762 C 903.103 1566.943,880.320 1610.192,867.291 1634.871 L 843.601 1679.742 799.336 1680.871 L 755.072 1682.000 778.171 1712.000 C 837.349 1788.856,908.556 1856.440,1092.557 2010.393 L 1200.323 2100.559 1305.161 2012.900 C 1541.553 1815.244,1620.454 1734.196,1666.236 1642.000 C 1691.873 1590.375,1701.621 1548.003,1698.897 1500.036 C 1695.180 1434.561,1670.874 1383.117,1621.401 1336.014 C 1555.528 1273.296,1458.200 1247.499,1362.446 1267.377 C 1314.323 1277.367,1260.378 1303.032,1226.676 1331.972 C 1213.848 1342.987,1201.844 1352.000,1200.000 1352.000 C 1198.156 1352.000,1186.152 1342.987,1173.324 1331.972 C 1107.761 1275.673,1007.144 1249.610,917.945 1265.820 " fill="#1D1E23" stroke="none" fill-rule="evenodd"/></svg>