<svg viewBox="0 0 2400 2400" fill="none" xmlns="http://www.w3.org/2000/svg"><path d="M1172.428 304.572 C 1056.614 316.678,932.789 360.935,836.000 424.815 C 771.775 467.204,694.161 545.363,643.623 618.545 C 628.008 641.157,613.155 661.294,610.616 663.294 C 608.077 665.293,585.635 673.657,560.745 681.880 C 509.867 698.689,439.318 732.016,404.360 755.755 C 350.012 792.662,282.167 873.548,248.143 942.000 C 218.256 1002.129,207.676 1042.951,205.120 1108.000 C 201.338 1204.266,213.894 1271.603,248.870 1342.625 C 289.832 1425.804,386.047 1522.552,470.000 1564.979 C 508.468 1584.419,614.172 1615.904,641.199 1615.972 L 652.397 1616.000 649.345 1591.000 C 647.666 1577.250,646.227 1537.193,646.146 1501.985 L 646.000 1437.969 671.023 1387.035 C 692.808 1342.690,700.053 1332.058,727.023 1304.866 C 772.157 1259.357,831.545 1226.465,891.534 1213.749 C 926.607 1206.314,1025.608 1206.360,1060.841 1213.827 C 1075.604 1216.956,1112.561 1230.970,1142.969 1244.969 L 1198.256 1270.422 1236.128 1252.846 C 1325.400 1211.414,1380.541 1200.481,1462.742 1207.911 C 1490.901 1210.457,1524.433 1216.103,1537.468 1220.494 C 1624.063 1249.666,1690.051 1307.327,1733.816 1392.063 L 1752.975 1429.158 1751.292 1524.579 L 1749.610 1620.000 1766.516 1620.000 C 1837.649 1620.000,1946.292 1585.682,2010.687 1542.873 C 2067.544 1505.075,2136.084 1424.209,2164.636 1361.239 C 2201.541 1279.846,2205.613 1153.606,2174.171 1065.635 C 2136.481 960.183,2068.849 887.668,1946.638 821.677 C 1898.016 795.422,1900.785 798.941,1872.291 727.217 C 1841.839 650.566,1802.392 589.637,1740.162 523.139 C 1623.597 398.578,1463.251 321.926,1282.305 304.265 C 1233.456 299.497,1220.640 299.533,1172.428 304.572 M1386.000 381.514 C 1408.000 387.468,1435.646 395.911,1447.435 400.276 C 1481.394 412.851,1554.922 450.833,1591.803 474.852 C 1636.412 503.905,1718.113 584.023,1746.362 626.418 C 1773.593 667.284,1820.040 763.067,1835.238 809.696 L 1846.838 845.288 1880.438 859.767 C 1995.853 909.504,2050.499 957.818,2097.473 1051.652 C 2126.091 1108.820,2129.125 1125.166,2127.131 1211.466 C 2125.577 1278.741,2124.925 1283.526,2113.015 1315.042 C 2082.211 1396.552,2019.254 1470.618,1948.000 1509.172 C 1924.053 1522.130,1832.328 1557.909,1830.041 1555.185 C 1829.494 1554.533,1826.929 1536.000,1824.341 1514.000 C 1813.232 1419.575,1801.450 1378.287,1771.475 1328.753 C 1735.926 1270.009,1681.050 1221.383,1610.065 1185.727 C 1550.811 1155.963,1534.390 1152.136,1454.000 1149.353 C 1363.687 1146.228,1330.294 1150.749,1256.481 1176.097 L 1197.198 1196.455 1151.599 1179.638 C 1076.758 1152.036,1072.728 1151.295,986.000 1149.184 C 897.566 1147.031,878.545 1149.646,821.051 1171.857 C 679.688 1226.469,589.522 1346.115,577.510 1495.025 C 573.683 1542.457,572.013 1543.806,536.447 1528.196 C 406.530 1471.175,309.047 1362.185,278.680 1240.000 C 264.066 1181.203,266.826 1078.562,284.567 1021.090 C 294.483 988.962,319.110 938.795,340.268 907.620 C 399.385 820.512,496.260 759.033,623.168 728.085 C 659.609 719.199,660.501 718.698,668.735 702.511 C 709.612 622.150,796.675 523.234,867.183 477.044 C 913.223 446.882,990.292 408.657,1038.000 392.321 C 1099.781 371.165,1126.274 368.203,1242.000 369.513 C 1340.558 370.628,1348.093 371.256,1386.000 381.514 M930.000 1266.917 C 825.976 1280.792,727.646 1367.539,707.791 1462.950 C 702.318 1489.249,704.841 1565.211,711.986 1589.260 C 720.026 1616.323,726.910 1620.000,769.536 1620.000 L 807.071 1620.000 867.217 1505.000 C 948.536 1349.519,949.440 1347.897,954.000 1349.336 C 956.200 1350.030,998.406 1451.714,1047.791 1575.299 C 1097.177 1698.885,1139.596 1800.000,1142.056 1800.000 C 1147.986 1800.000,1167.056 1767.277,1208.148 1686.594 L 1242.000 1620.124 1284.094 1620.062 L 1326.188 1620.000 1344.094 1593.049 C 1368.583 1556.189,1385.420 1545.480,1427.673 1539.890 C 1473.563 1533.818,1494.878 1537.376,1520.706 1555.421 C 1558.070 1581.524,1570.317 1609.362,1566.885 1660.386 C 1564.507 1695.732,1559.045 1707.876,1535.321 1730.565 C 1506.740 1757.899,1495.609 1762.000,1450.000 1762.000 C 1413.045 1762.000,1408.352 1761.087,1388.348 1750.010 C 1371.858 1740.878,1361.889 1731.104,1346.529 1709.010 C 1327.103 1681.067,1325.766 1680.002,1310.181 1680.055 C 1282.065 1680.150,1278.833 1682.592,1261.012 1717.220 C 1223.890 1789.352,1155.676 1916.672,1145.605 1932.626 L 1134.912 1949.565 1123.900 1927.782 C 1117.843 1915.802,1078.644 1820.500,1036.791 1716.000 C 946.791 1491.287,948.764 1496.000,944.701 1496.000 C 941.196 1496.000,921.416 1530.932,873.920 1621.000 L 842.807 1680.000 825.990 1680.000 C 816.741 1680.000,798.191 1681.148,784.769 1682.551 L 760.364 1685.102 765.823 1695.551 C 774.806 1712.746,867.082 1810.879,918.181 1857.578 C 974.372 1908.932,1054.224 1978.391,1138.986 2049.643 L 1199.973 2100.910 1282.769 2031.455 C 1497.779 1851.089,1608.767 1740.095,1655.117 1659.085 C 1683.104 1610.171,1693.165 1576.656,1695.068 1526.000 C 1698.358 1438.431,1675.890 1388.873,1605.158 1327.683 C 1576.977 1303.304,1526.738 1278.239,1493.113 1271.783 C 1477.545 1268.793,1446.091 1267.683,1409.113 1268.818 C 1356.040 1270.447,1347.139 1271.780,1322.000 1281.867 C 1291.346 1294.167,1248.474 1317.974,1219.339 1338.875 L 1200.678 1352.263 1160.709 1326.075 C 1111.033 1293.527,1085.283 1282.007,1045.298 1274.445 C 1012.480 1268.238,950.459 1264.188,930.000 1266.917 " fill="#1D1E23" stroke="none" fill-rule="evenodd"/></svg>