<svg viewBox="0 0 2400 2400" fill="none" xmlns="http://www.w3.org/2000/svg"><path d="M1164.000 304.490 C 936.710 330.648,750.171 447.102,631.113 637.164 C 615.470 662.137,609.975 667.792,599.113 670.096 C 540.263 682.581,453.108 720.480,404.203 754.852 C 339.289 800.476,262.338 896.395,236.031 964.478 C 210.293 1031.089,203.275 1067.465,202.939 1136.000 C 202.541 1216.969,214.197 1271.482,246.259 1338.607 C 289.209 1428.528,379.389 1519.781,470.211 1565.223 C 515.452 1587.859,611.383 1616.000,643.306 1616.000 L 654.950 1616.000 649.205 1593.000 C 645.673 1578.861,643.297 1547.654,643.036 1512.000 C 642.646 1458.565,643.478 1451.482,653.601 1422.000 C 682.301 1338.417,735.932 1277.446,813.689 1240.002 C 864.732 1215.422,898.122 1207.483,960.000 1205.211 C 1035.785 1202.429,1074.844 1210.816,1145.409 1245.022 L 1198.000 1270.515 1238.000 1251.440 C 1283.776 1229.611,1326.913 1214.513,1363.006 1207.686 C 1396.050 1201.436,1485.835 1205.116,1520.000 1214.119 C 1619.507 1240.343,1700.143 1309.622,1741.010 1404.000 L 1754.000 1434.000 1754.000 1506.000 C 1754.000 1545.600,1752.481 1587.450,1750.625 1599.000 L 1747.249 1620.000 1771.101 1620.000 C 1844.829 1620.000,1947.970 1586.147,2017.047 1539.276 C 2088.938 1490.496,2153.273 1405.072,2179.179 1324.000 C 2205.794 1240.708,2203.145 1140.690,2172.070 1055.542 C 2137.501 960.819,2057.098 875.465,1956.000 826.164 C 1935.100 815.971,1913.500 805.398,1908.000 802.667 C 1900.323 798.854,1895.533 790.082,1887.381 764.903 C 1843.368 628.964,1745.341 502.124,1620.516 419.601 C 1486.487 330.993,1313.258 287.313,1164.000 304.490 M1322.000 368.391 C 1422.594 381.633,1532.876 427.130,1616.486 489.880 C 1659.742 522.344,1724.036 589.219,1751.278 630.082 C 1781.678 675.682,1814.575 744.518,1831.956 798.894 L 1846.944 845.786 1878.472 858.133 C 1988.309 901.147,2054.025 958.038,2099.505 1049.485 C 2124.055 1098.847,2132.045 1135.212,2132.390 1199.163 C 2132.789 1273.063,2116.517 1328.408,2075.649 1392.151 C 2053.235 1427.113,2004.513 1475.944,1970.000 1498.037 C 1941.195 1516.477,1895.865 1536.178,1856.826 1547.226 L 1828.234 1555.317 1826.449 1542.659 C 1825.467 1535.696,1822.693 1507.702,1820.285 1480.449 C 1812.445 1391.742,1785.845 1331.835,1726.423 1269.060 C 1687.811 1228.269,1657.784 1206.293,1607.777 1182.225 C 1544.382 1151.713,1518.483 1146.470,1430.000 1146.236 C 1343.356 1146.006,1314.790 1151.343,1244.240 1180.942 C 1223.208 1189.766,1203.300 1196.986,1200.000 1196.986 C 1196.700 1196.986,1176.317 1189.572,1154.704 1180.511 C 1092.026 1154.233,1061.987 1147.593,994.716 1145.148 C 956.647 1143.765,924.441 1144.755,904.716 1147.915 C 722.248 1177.147,587.959 1316.768,577.771 1487.842 C 576.521 1508.829,574.703 1529.945,573.732 1534.766 L 571.965 1543.532 543.033 1531.601 C 434.595 1486.885,356.562 1417.013,308.720 1321.791 C 277.235 1259.126,266.625 1212.913,266.984 1140.000 C 267.320 1071.706,277.433 1024.456,303.306 970.293 C 328.600 917.341,342.114 897.600,379.728 858.658 C 447.003 789.005,519.485 750.321,628.000 726.154 L 658.000 719.472 683.058 676.736 C 737.972 583.083,790.453 526.310,874.000 470.176 C 909.743 446.161,988.887 407.312,1029.269 393.960 C 1120.184 363.900,1220.994 355.095,1322.000 368.391 M896.862 1272.075 C 811.937 1294.325,737.055 1364.702,709.674 1448.000 C 700.116 1477.075,700.181 1543.724,709.801 1579.907 C 720.953 1621.851,718.388 1620.000,765.357 1620.000 L 806.433 1620.000 831.861 1571.000 C 875.644 1486.631,928.363 1386.897,941.055 1364.429 L 953.240 1342.858 960.664 1357.329 C 964.747 1365.287,999.359 1451.494,1037.579 1548.900 C 1136.846 1801.885,1137.693 1803.974,1140.993 1803.988 C 1145.937 1804.008,1164.259 1772.145,1204.161 1694.138 L 1242.000 1620.163 1284.618 1620.082 L 1327.236 1620.000 1339.118 1599.000 C 1365.142 1553.005,1389.060 1539.124,1446.319 1536.788 C 1481.916 1535.336,1488.710 1536.180,1504.319 1543.996 C 1526.945 1555.324,1550.370 1577.609,1561.087 1598.000 C 1567.750 1610.677,1569.549 1621.494,1569.748 1650.088 C 1569.988 1684.407,1569.342 1687.202,1556.591 1707.076 C 1530.357 1747.964,1498.733 1765.259,1450.000 1765.371 C 1399.384 1765.487,1363.883 1744.935,1339.222 1701.238 L 1327.236 1680.000 1303.940 1680.000 L 1280.644 1680.000 1241.721 1755.000 C 1194.085 1846.786,1144.508 1939.520,1137.925 1949.149 C 1132.326 1957.339,1122.568 1934.438,1013.862 1658.000 C 979.257 1570.000,949.536 1496.444,947.814 1494.542 C 944.103 1490.442,932.767 1509.690,881.859 1606.540 L 843.729 1679.080 804.065 1680.674 C 782.249 1681.550,763.156 1683.511,761.635 1685.032 C 753.263 1693.404,870.610 1817.893,966.000 1901.834 C 999.000 1930.874,1065.207 1987.487,1113.126 2027.640 L 1200.252 2100.647 1281.126 2032.905 C 1464.715 1879.126,1565.602 1784.575,1616.994 1718.130 C 1646.903 1679.460,1684.772 1606.979,1692.296 1574.000 C 1698.495 1546.828,1698.364 1482.607,1692.055 1455.874 C 1676.187 1388.641,1622.743 1325.256,1554.000 1292.138 C 1512.505 1272.147,1474.530 1264.000,1422.850 1264.000 C 1352.399 1264.000,1293.542 1284.236,1230.865 1330.009 L 1200.000 1352.550 1169.281 1330.116 C 1106.073 1283.956,1045.452 1263.919,970.000 1264.248 C 940.095 1264.379,916.666 1266.886,896.862 1272.075 " fill="#1D1E23" stroke="none" fill-rule="evenodd"/></svg>