<svg viewBox="0 0 2400 2400" fill="none" xmlns="http://www.w3.org/2000/svg"><path d="M514.000 212.134 C 460.523 216.075,406.547 238.090,352.260 278.101 C 287.160 326.082,246.425 385.341,212.096 482.000 L 199.310 518.000 201.350 1006.000 C 202.600 1305.070,204.995 1507.166,207.537 1528.008 C 218.974 1621.771,269.108 1716.989,349.916 1798.428 C 398.399 1847.290,438.336 1876.155,493.655 1902.317 C 571.157 1938.970,619.803 1947.233,779.000 1950.790 L 888.000 1953.225 888.000 1963.023 C 888.000 1977.938,910.895 2043.048,924.884 2067.917 C 940.595 2095.845,1003.601 2158.574,1030.299 2172.868 C 1067.198 2192.624,1088.141 2195.598,1209.443 2198.306 C 1274.073 2199.750,1354.361 2199.014,1398.000 2196.578 C 1513.259 2190.146,1539.054 2181.025,1660.000 2103.933 C 1745.586 2049.380,1785.029 2029.063,1819.560 2021.743 C 1893.475 2006.076,1975.573 2023.573,2015.504 2063.504 C 2035.910 2083.910,2056.561 2124.489,2068.256 2167.161 L 2077.255 2200.000 2139.197 2200.000 L 2201.140 2200.000 2198.680 2177.000 C 2195.124 2143.751,2177.828 2086.920,2160.029 2050.000 C 2134.378 1996.795,2091.060 1952.831,2036.389 1924.518 C 1987.105 1898.995,1971.875 1895.989,1892.274 1896.079 C 1803.886 1896.179,1777.510 1900.029,1733.353 1919.279 C 1699.719 1933.941,1681.757 1944.163,1570.000 2012.244 C 1543.600 2028.327,1507.600 2047.625,1490.000 2055.129 C 1461.725 2067.184,1451.946 2069.173,1406.000 2072.213 C 1377.400 2074.105,1300.378 2075.732,1234.841 2075.827 C 1097.754 2076.026,1100.541 2076.635,1062.713 2038.198 C 1041.965 2017.116,1016.000 1975.143,1016.000 1962.685 C 1016.000 1954.264,1030.927 1952.816,1147.056 1949.971 C 1200.437 1948.663,1259.837 1945.037,1279.056 1941.912 C 1375.641 1926.211,1477.087 1873.852,1548.654 1802.767 C 1591.496 1760.214,1615.663 1726.307,1646.135 1666.000 C 1675.844 1607.202,1687.538 1570.941,1692.299 1522.858 C 1694.306 1502.586,1697.059 1268.200,1698.417 1002.000 L 1700.887 518.000 1686.079 476.000 C 1642.217 351.595,1572.803 277.918,1448.777 224.125 L 1411.600 208.000 982.800 208.593 C 746.960 208.919,536.000 210.513,514.000 212.134 M1442.000 289.216 C 1520.770 327.058,1570.437 376.452,1609.148 455.448 L 1630.000 498.000 1628.512 1025.819 L 1627.025 1553.639 1617.529 1578.865 C 1565.837 1716.198,1477.359 1807.819,1346.057 1859.977 C 1301.942 1877.502,1256.793 1884.046,1161.000 1886.803 L 1076.000 1889.249 1076.000 1857.179 L 1076.000 1825.110 1163.000 1822.793 C 1257.889 1820.265,1291.466 1815.102,1337.099 1796.024 C 1395.613 1771.559,1476.542 1707.248,1508.861 1659.530 C 1540.313 1613.093,1562.335 1555.210,1568.325 1503.237 C 1570.432 1484.957,1573.282 1283.250,1574.659 1055.000 L 1577.163 640.000 950.161 640.000 L 323.159 640.000 325.247 1055.000 C 326.547 1313.590,328.958 1483.316,331.644 1505.331 C 341.977 1590.041,390.392 1673.564,466.060 1737.222 C 542.014 1801.120,598.918 1818.979,739.000 1822.881 L 824.000 1825.249 824.000 1856.624 L 824.000 1888.000 765.000 1887.986 C 686.113 1887.968,622.325 1881.574,580.698 1869.511 C 447.872 1831.019,336.542 1722.520,282.471 1578.865 L 272.975 1553.639 271.488 1025.819 L 270.000 498.000 292.705 452.000 C 330.393 375.644,372.053 333.899,451.012 293.371 L 488.752 274.000 669.376 271.792 C 768.719 270.578,974.200 269.678,1126.000 269.792 L 1402.000 270.000 1442.000 289.216 M791.424 330.709 C 762.487 334.130,755.737 361.768,779.307 380.318 C 789.847 388.612,792.318 388.713,952.000 387.318 C 1069.194 386.295,1116.362 384.563,1122.540 381.057 C 1131.955 375.714,1137.614 359.386,1133.998 347.994 C 1129.027 332.333,1112.492 330.642,956.000 329.797 C 873.500 329.351,799.441 329.761,791.424 330.709 M576.000 837.349 C 576.000 877.691,574.810 962.291,573.356 1025.349 L 570.712 1140.000 511.356 1140.000 L 452.000 1140.000 452.000 952.000 L 452.000 764.000 514.000 764.000 L 576.000 764.000 576.000 837.349 M700.000 888.000 L 700.000 1012.000 670.000 1012.000 L 640.000 1012.000 640.000 888.000 L 640.000 764.000 670.000 764.000 L 700.000 764.000 700.000 888.000 M824.000 888.000 L 824.000 1012.000 794.000 1012.000 L 764.000 1012.000 764.000 888.000 L 764.000 764.000 794.000 764.000 L 824.000 764.000 824.000 888.000 M1012.000 888.000 L 1012.000 1012.000 950.000 1012.000 L 888.000 1012.000 888.000 888.000 L 888.000 764.000 950.000 764.000 L 1012.000 764.000 1012.000 888.000 M1136.000 888.000 L 1136.000 1012.000 1106.000 1012.000 L 1076.000 1012.000 1076.000 888.000 L 1076.000 764.000 1106.000 764.000 L 1136.000 764.000 1136.000 888.000 M1324.000 952.000 L 1324.000 1140.000 1262.000 1140.000 L 1200.000 1140.000 1200.000 952.000 L 1200.000 764.000 1262.000 764.000 L 1324.000 764.000 1324.000 952.000 M576.000 1337.349 C 576.000 1377.691,574.810 1462.291,573.356 1525.349 L 570.712 1640.000 511.356 1640.000 L 452.000 1640.000 452.000 1452.000 L 452.000 1264.000 514.000 1264.000 L 576.000 1264.000 576.000 1337.349 M700.000 1388.000 L 700.000 1512.000 670.000 1512.000 L 640.000 1512.000 640.000 1388.000 L 640.000 1264.000 670.000 1264.000 L 700.000 1264.000 700.000 1388.000 M824.000 1388.000 L 824.000 1512.000 794.000 1512.000 L 764.000 1512.000 764.000 1388.000 L 764.000 1264.000 794.000 1264.000 L 824.000 1264.000 824.000 1388.000 M948.000 1388.000 L 948.000 1512.000 918.000 1512.000 L 888.000 1512.000 888.000 1388.000 L 888.000 1264.000 918.000 1264.000 L 948.000 1264.000 948.000 1388.000 M1136.000 1388.000 L 1136.000 1512.000 1074.000 1512.000 L 1012.000 1512.000 1012.000 1388.000 L 1012.000 1264.000 1074.000 1264.000 L 1136.000 1264.000 1136.000 1388.000 M1324.000 1452.000 L 1324.000 1640.000 1262.000 1640.000 L 1200.000 1640.000 1200.000 1452.000 L 1200.000 1264.000 1262.000 1264.000 L 1324.000 1264.000 1324.000 1452.000 " fill="#1D1E23" stroke="none" fill-rule="evenodd"/></svg>