<svg viewBox="0 0 2400 2400" fill="none" xmlns="http://www.w3.org/2000/svg"><path d="M530.000 202.766 C 375.419 224.533,253.559 331.223,211.062 482.000 L 202.042 514.000 200.874 1000.000 C 199.575 1540.361,198.980 1526.078,226.154 1607.286 C 276.162 1756.733,394.393 1875.610,540.891 1923.744 C 606.231 1945.213,634.541 1948.639,765.000 1950.872 L 888.000 1952.977 888.000 1963.569 C 888.000 1981.873,903.984 2032.800,918.246 2059.935 C 944.692 2110.251,988.333 2153.900,1034.353 2176.063 C 1080.752 2198.408,1095.035 2199.876,1266.711 2199.941 C 1357.642 2199.975,1436.486 2198.183,1454.546 2195.671 C 1525.576 2185.792,1589.327 2157.148,1664.523 2101.325 C 1748.892 2038.694,1782.664 2022.848,1847.498 2015.476 C 1948.328 2004.010,2018.013 2036.116,2052.568 2109.959 C 2061.943 2129.993,2071.133 2165.123,2075.860 2199.000 C 2075.937 2199.550,2104.149 2200.000,2138.552 2200.000 L 2201.105 2200.000 2198.476 2174.341 C 2189.567 2087.385,2146.112 2000.096,2088.764 1953.960 C 2060.212 1930.991,2010.515 1906.454,1974.000 1897.297 C 1931.177 1886.559,1829.614 1887.519,1783.132 1899.100 C 1719.170 1915.036,1679.934 1935.349,1602.000 1992.871 C 1539.880 2038.722,1493.385 2061.736,1446.476 2069.853 C 1395.131 2078.738,1134.823 2078.783,1104.952 2069.912 C 1067.002 2058.642,1024.184 2008.326,1014.389 1963.488 L 1012.092 1952.976 1135.046 1950.871 C 1265.455 1948.640,1293.774 1945.211,1359.109 1923.744 C 1505.577 1875.620,1624.341 1756.210,1673.649 1607.493 C 1701.205 1524.383,1700.518 1540.738,1699.153 1000.000 L 1697.926 514.000 1688.922 482.000 C 1651.115 347.626,1549.411 246.872,1415.574 211.206 L 1382.000 202.259 962.000 201.668 C 731.000 201.342,536.600 201.837,530.000 202.766 M1418.000 276.979 C 1470.029 294.829,1506.018 317.214,1544.402 355.598 C 1582.786 393.982,1605.171 429.971,1623.021 482.000 L 1634.000 514.000 1634.000 1018.000 L 1634.000 1522.000 1623.275 1560.823 C 1579.981 1717.546,1462.830 1833.019,1304.678 1874.856 C 1269.857 1884.067,1256.526 1885.279,1171.000 1887.003 L 1076.000 1888.918 1076.000 1856.459 L 1076.000 1824.000 1157.648 1824.000 C 1248.719 1824.000,1277.755 1820.030,1332.715 1800.062 C 1394.447 1777.634,1465.845 1722.508,1506.350 1666.000 C 1538.519 1621.120,1563.546 1556.964,1571.671 1498.546 C 1574.548 1477.862,1576.000 1328.640,1576.000 1053.711 L 1576.000 640.000 950.000 640.000 L 324.000 640.000 324.000 1053.711 C 324.000 1328.640,325.452 1477.862,328.329 1498.546 C 343.589 1608.261,403.133 1701.854,497.285 1764.116 C 566.944 1810.181,623.496 1824.000,742.352 1824.000 L 824.000 1824.000 824.000 1856.459 L 824.000 1888.918 729.000 1887.003 C 643.474 1885.279,630.143 1884.067,595.322 1874.856 C 437.170 1833.019,320.019 1717.546,276.725 1560.823 L 266.000 1522.000 266.000 1018.000 L 266.000 514.000 276.979 482.000 C 308.782 389.303,377.571 316.627,465.223 283.119 C 514.522 264.274,508.622 264.486,960.000 265.265 L 1386.000 266.000 1418.000 276.979 M784.000 326.772 C 761.405 335.328,756.070 365.182,774.539 379.710 C 784.815 387.792,789.211 388.000,950.000 388.000 C 1110.789 388.000,1115.185 387.792,1125.461 379.710 C 1139.112 368.972,1140.213 345.055,1127.584 333.620 C 1119.625 326.414,1110.236 325.959,954.584 325.250 C 864.063 324.837,787.300 325.522,784.000 326.772 M575.040 951.000 L 574.000 1138.000 513.000 1139.104 L 452.000 1140.208 452.000 952.104 L 452.000 764.000 514.040 764.000 L 576.079 764.000 575.040 951.000 M700.000 888.000 L 700.000 1012.000 670.000 1012.000 L 640.000 1012.000 640.000 888.000 L 640.000 764.000 670.000 764.000 L 700.000 764.000 700.000 888.000 M824.000 888.000 L 824.000 1012.000 794.000 1012.000 L 764.000 1012.000 764.000 888.000 L 764.000 764.000 794.000 764.000 L 824.000 764.000 824.000 888.000 M1012.000 888.000 L 1012.000 1012.000 950.000 1012.000 L 888.000 1012.000 888.000 888.000 L 888.000 764.000 950.000 764.000 L 1012.000 764.000 1012.000 888.000 M1136.000 888.000 L 1136.000 1012.000 1106.000 1012.000 L 1076.000 1012.000 1076.000 888.000 L 1076.000 764.000 1106.000 764.000 L 1136.000 764.000 1136.000 888.000 M1324.000 952.000 L 1324.000 1140.000 1262.000 1140.000 L 1200.000 1140.000 1200.000 952.000 L 1200.000 764.000 1262.000 764.000 L 1324.000 764.000 1324.000 952.000 M575.040 1451.000 L 574.000 1638.000 513.000 1639.104 L 452.000 1640.208 452.000 1452.104 L 452.000 1264.000 514.040 1264.000 L 576.079 1264.000 575.040 1451.000 M700.000 1388.000 L 700.000 1512.000 670.000 1512.000 L 640.000 1512.000 640.000 1388.000 L 640.000 1264.000 670.000 1264.000 L 700.000 1264.000 700.000 1388.000 M824.000 1388.000 L 824.000 1512.000 794.000 1512.000 L 764.000 1512.000 764.000 1388.000 L 764.000 1264.000 794.000 1264.000 L 824.000 1264.000 824.000 1388.000 M948.000 1388.000 L 948.000 1512.000 918.000 1512.000 L 888.000 1512.000 888.000 1388.000 L 888.000 1264.000 918.000 1264.000 L 948.000 1264.000 948.000 1388.000 M1136.000 1388.000 L 1136.000 1512.000 1074.000 1512.000 L 1012.000 1512.000 1012.000 1388.000 L 1012.000 1264.000 1074.000 1264.000 L 1136.000 1264.000 1136.000 1388.000 M1324.000 1452.000 L 1324.000 1640.000 1262.000 1640.000 L 1200.000 1640.000 1200.000 1452.000 L 1200.000 1264.000 1262.000 1264.000 L 1324.000 1264.000 1324.000 1452.000 " fill="#1D1E23" stroke="none" fill-rule="evenodd"/></svg>