<svg viewBox="0 0 2400 2400" fill="none" xmlns="http://www.w3.org/2000/svg"><path d="M484.000 212.232 C 450.914 220.824,390.003 248.733,361.428 268.394 C 291.433 316.551,238.145 392.832,210.177 484.905 L 199.574 519.809 201.074 1020.905 C 202.448 1479.958,203.158 1524.467,209.536 1551.403 C 245.483 1703.212,344.402 1830.586,478.000 1897.093 C 565.344 1940.574,633.145 1951.809,809.000 1951.941 L 888.000 1952.000 888.000 1963.794 C 888.000 1982.085,907.189 2039.197,923.013 2068.000 C 931.473 2083.399,950.637 2107.406,970.014 2126.880 C 996.222 2153.218,1009.425 2162.972,1036.376 2175.904 C 1084.326 2198.912,1108.744 2201.052,1299.373 2198.952 C 1443.767 2197.362,1460.871 2196.458,1490.000 2188.877 C 1552.560 2172.597,1595.076 2150.775,1674.000 2094.439 C 1725.706 2057.532,1772.167 2031.369,1798.419 2024.377 C 1855.322 2009.223,1933.614 2012.579,1975.101 2031.953 C 2023.411 2054.512,2052.851 2095.843,2068.447 2163.000 L 2077.039 2200.000 2138.520 2200.000 L 2200.000 2200.000 2200.000 2188.352 C 2200.000 2153.420,2175.300 2069.985,2154.402 2034.325 C 2121.883 1978.836,2085.575 1945.578,2027.645 1918.216 C 1976.360 1893.993,1956.477 1890.820,1870.123 1893.079 C 1808.567 1894.690,1788.642 1896.674,1766.000 1903.448 C 1721.929 1916.632,1670.526 1944.204,1612.000 1986.052 C 1555.211 2026.659,1492.932 2059.627,1456.000 2068.635 C 1439.448 2072.671,1393.885 2074.000,1272.000 2074.000 L 1110.000 2074.000 1092.000 2064.548 C 1059.071 2047.255,1022.449 1999.582,1014.461 1963.609 L 1012.153 1953.217 1131.077 1950.728 C 1196.484 1949.360,1261.707 1946.456,1276.015 1944.276 C 1346.874 1933.478,1437.309 1895.720,1494.000 1853.263 C 1595.034 1777.596,1667.930 1662.902,1692.541 1540.884 C 1695.827 1524.594,1697.624 1374.171,1698.779 1018.865 L 1700.402 519.729 1689.811 484.865 C 1666.929 409.536,1637.568 360.401,1584.124 308.000 C 1541.185 265.899,1498.383 239.790,1438.930 219.434 L 1394.000 204.050 954.000 204.245 C 531.214 204.433,512.826 204.745,484.000 212.232 M1424.758 280.039 C 1519.019 314.440,1588.720 385.187,1621.762 480.000 L 1632.217 510.000 1631.108 1028.000 L 1630.000 1546.000 1618.661 1578.000 C 1593.168 1649.946,1561.899 1701.532,1512.777 1752.684 C 1452.743 1815.198,1387.434 1852.760,1298.000 1876.212 C 1271.559 1883.146,1249.498 1885.000,1171.000 1886.888 L 1076.000 1889.172 1076.000 1857.008 L 1076.000 1824.844 1169.000 1823.004 C 1247.262 1821.456,1266.934 1819.825,1293.135 1812.712 C 1379.587 1789.240,1468.918 1724.686,1515.411 1652.089 C 1533.689 1623.550,1554.355 1574.416,1565.081 1534.000 C 1573.442 1502.496,1573.595 1495.319,1574.985 1071.000 L 1576.397 640.000 949.986 640.000 L 323.575 640.000 325.049 1073.000 C 326.674 1550.297,324.928 1517.175,352.185 1587.856 C 388.547 1682.145,482.519 1772.086,577.212 1803.230 C 624.394 1818.748,669.161 1823.975,755.000 1823.989 L 824.000 1824.000 824.000 1856.586 L 824.000 1889.172 729.000 1886.888 C 650.502 1885.000,628.441 1883.146,602.000 1876.212 C 512.566 1852.760,447.257 1815.198,387.223 1752.684 C 338.101 1701.532,306.832 1649.946,281.339 1578.000 L 270.000 1546.000 268.941 1027.276 L 267.883 508.551 279.852 475.755 C 312.059 387.506,380.274 316.981,466.000 283.304 C 495.215 271.827,503.570 270.471,562.000 267.713 C 597.200 266.052,798.486 265.506,1009.303 266.499 L 1392.606 268.305 1424.758 280.039 M800.666 327.625 C 782.107 329.388,773.817 332.103,769.666 337.780 C 761.750 348.606,762.607 365.394,771.647 376.557 L 779.293 386.000 950.000 386.000 L 1120.707 386.000 1128.353 376.557 C 1138.033 364.603,1138.173 346.173,1128.657 336.657 C 1122.159 330.159,1111.219 329.009,1033.657 326.667 C 934.423 323.670,838.150 324.066,800.666 327.625 M575.988 883.000 C 575.981 948.450,574.798 1033.050,573.358 1071.000 L 570.741 1140.000 511.370 1140.000 L 452.000 1140.000 452.000 952.000 L 452.000 764.000 514.000 764.000 L 576.000 764.000 575.988 883.000 M700.000 888.000 L 700.000 1012.000 670.000 1012.000 L 640.000 1012.000 640.000 888.000 L 640.000 764.000 670.000 764.000 L 700.000 764.000 700.000 888.000 M824.000 888.000 L 824.000 1012.000 794.000 1012.000 L 764.000 1012.000 764.000 888.000 L 764.000 764.000 794.000 764.000 L 824.000 764.000 824.000 888.000 M1012.000 888.000 L 1012.000 1012.000 950.000 1012.000 L 888.000 1012.000 888.000 888.000 L 888.000 764.000 950.000 764.000 L 1012.000 764.000 1012.000 888.000 M1136.000 888.000 L 1136.000 1012.000 1106.000 1012.000 L 1076.000 1012.000 1076.000 888.000 L 1076.000 764.000 1106.000 764.000 L 1136.000 764.000 1136.000 888.000 M1324.000 952.000 L 1324.000 1140.000 1262.000 1140.000 L 1200.000 1140.000 1200.000 952.000 L 1200.000 764.000 1262.000 764.000 L 1324.000 764.000 1324.000 952.000 M575.988 1383.000 C 575.981 1448.450,574.798 1533.050,573.358 1571.000 L 570.741 1640.000 511.370 1640.000 L 452.000 1640.000 452.000 1452.000 L 452.000 1264.000 514.000 1264.000 L 576.000 1264.000 575.988 1383.000 M700.000 1388.000 L 700.000 1512.000 670.000 1512.000 L 640.000 1512.000 640.000 1388.000 L 640.000 1264.000 670.000 1264.000 L 700.000 1264.000 700.000 1388.000 M824.000 1388.000 L 824.000 1512.000 794.000 1512.000 L 764.000 1512.000 764.000 1388.000 L 764.000 1264.000 794.000 1264.000 L 824.000 1264.000 824.000 1388.000 M948.000 1388.000 L 948.000 1512.000 918.000 1512.000 L 888.000 1512.000 888.000 1388.000 L 888.000 1264.000 918.000 1264.000 L 948.000 1264.000 948.000 1388.000 M1136.000 1388.000 L 1136.000 1512.000 1074.000 1512.000 L 1012.000 1512.000 1012.000 1388.000 L 1012.000 1264.000 1074.000 1264.000 L 1136.000 1264.000 1136.000 1388.000 M1324.000 1452.000 L 1324.000 1640.000 1262.000 1640.000 L 1200.000 1640.000 1200.000 1452.000 L 1200.000 1264.000 1262.000 1264.000 L 1324.000 1264.000 1324.000 1452.000 " fill="#1D1E23" stroke="none" fill-rule="evenodd"/></svg>