<svg viewBox="0 0 2400 2400" fill="none" xmlns="http://www.w3.org/2000/svg"><path d="M1011.994 337.000 L 1011.987 474.000 962.781 490.654 C 935.717 499.813,892.138 517.419,865.939 529.776 L 818.305 552.245 722.126 456.126 L 625.948 360.008 492.980 493.020 L 360.012 626.032 456.148 722.168 L 552.284 818.304 528.330 868.152 C 515.155 895.568,497.541 939.095,489.188 964.878 L 474.000 1011.757 337.000 1011.878 L 200.000 1012.000 200.000 1200.000 L 200.000 1388.000 337.000 1388.006 L 474.000 1388.013 491.079 1438.475 C 500.473 1466.230,518.079 1509.808,530.203 1535.315 L 552.248 1581.692 456.128 1677.872 L 360.008 1774.052 493.020 1907.020 L 626.032 2039.988 722.157 1943.864 L 818.281 1847.739 864.672 1869.790 C 890.186 1881.918,933.770 1899.527,961.525 1908.921 L 1011.987 1926.000 1011.994 2063.000 L 1012.000 2200.000 1200.000 2200.000 L 1388.000 2200.000 1388.006 2063.000 L 1388.013 1926.000 1438.475 1908.921 C 1466.230 1899.527,1509.814 1881.918,1535.328 1869.790 L 1581.719 1847.739 1677.843 1943.864 L 1773.968 2039.988 1906.980 1907.020 L 2039.992 1774.052 1943.872 1677.872 L 1847.752 1581.692 1869.797 1535.315 C 1881.921 1509.808,1899.527 1466.230,1908.921 1438.475 L 1926.000 1388.013 2063.000 1388.006 L 2200.000 1388.000 2200.000 1200.000 L 2200.000 1012.000 2063.000 1011.994 L 1926.000 1011.987 1908.921 961.525 C 1899.527 933.770,1881.921 890.192,1869.797 864.685 L 1847.752 818.308 1943.872 722.128 L 2039.992 625.948 1906.980 492.980 L 1773.968 360.012 1677.845 456.135 L 1581.722 552.257 1534.074 529.783 C 1507.868 517.421,1464.283 499.813,1437.219 490.654 L 1388.013 474.000 1388.006 337.000 L 1388.000 200.000 1200.000 200.000 L 1012.000 200.000 1011.994 337.000 M1406.009 1075.991 L 1282.048 1200.000 1406.009 1324.009 L 1529.971 1448.019 1340.985 1637.004 L 1152.000 1825.989 1152.000 1578.024 L 1152.000 1330.058 1048.946 1433.054 L 945.893 1536.051 907.997 1497.997 L 870.102 1459.944 1000.028 1329.972 L 1129.954 1200.000 1000.028 1070.028 L 870.102 940.056 907.997 902.003 L 945.893 863.949 1048.946 966.946 L 1152.000 1069.942 1152.000 821.976 L 1152.000 574.011 1340.985 762.996 L 1529.971 951.981 1406.009 1075.991 M1260.000 952.000 L 1260.000 1069.966 1318.983 1010.983 L 1377.966 952.000 1318.983 893.017 L 1260.000 834.034 1260.000 952.000 M1260.000 1448.000 L 1260.000 1565.966 1318.983 1506.983 L 1377.966 1448.000 1318.983 1389.017 L 1260.000 1330.034 1260.000 1448.000 " fill="#1D1E23" stroke="none" fill-rule="evenodd"/></svg>