<svg viewBox="0 0 2400 2400" fill="none" xmlns="http://www.w3.org/2000/svg"><path d="M350.000 203.438 C 288.855 205.886,285.044 206.529,264.578 217.866 C 240.830 231.019,224.635 248.564,211.028 275.877 L 202.000 294.000 202.000 1200.000 L 202.000 2106.000 211.395 2125.080 C 223.404 2149.466,250.534 2176.596,274.920 2188.605 L 294.000 2198.000 1200.000 2198.000 L 2106.000 2198.000 2125.080 2188.605 C 2149.466 2176.596,2176.596 2149.466,2188.605 2125.080 L 2198.000 2106.000 2198.000 1200.000 L 2198.000 294.000 2188.308 274.308 C 2175.961 249.222,2153.815 227.081,2127.965 213.982 L 2107.657 203.691 1260.828 202.284 C 795.073 201.510,385.200 202.030,350.000 203.438 M459.084 274.293 C 509.687 299.509,526.173 360.756,494.664 406.478 C 441.053 484.272,328.000 448.451,328.000 353.670 C 328.000 287.362,399.015 244.359,459.084 274.293 M710.668 275.321 C 761.255 301.128,775.403 363.799,741.640 412.519 C 720.379 443.199,669.211 456.968,632.872 441.788 C 587.620 422.885,564.228 365.766,583.706 321.732 C 595.031 296.132,605.586 285.079,630.000 273.256 C 654.089 261.590,685.321 262.390,710.668 275.321 M959.084 274.293 C 1009.687 299.509,1026.173 360.756,994.664 406.478 C 941.053 484.272,828.000 448.451,828.000 353.670 C 828.000 287.362,899.015 244.359,959.084 274.293 M2076.000 1294.000 L 2076.000 2076.000 1200.000 2076.000 L 324.000 2076.000 324.000 1294.000 L 324.000 512.000 1200.000 512.000 L 2076.000 512.000 2076.000 1294.000 M812.000 703.763 C 756.969 705.814,733.419 708.282,720.131 713.390 C 659.275 736.782,609.309 787.690,585.736 850.317 L 575.740 876.875 576.870 1327.437 L 578.000 1778.000 588.691 1805.517 C 614.011 1870.684,661.753 1915.695,732.000 1940.626 L 758.000 1949.854 1198.000 1949.927 L 1638.000 1950.000 1667.799 1940.242 C 1735.336 1918.125,1787.758 1868.011,1813.034 1801.404 L 1821.915 1778.000 1823.103 1327.478 L 1824.291 876.956 1814.515 850.984 C 1789.437 784.356,1735.957 731.885,1672.289 711.440 C 1646.397 703.126,1640.259 702.984,1266.000 702.002 C 1057.000 701.454,852.700 702.247,812.000 703.763 M1604.000 1326.000 L 1604.000 1732.000 1200.000 1732.000 L 796.000 1732.000 796.000 1326.000 L 796.000 920.000 1200.000 920.000 L 1604.000 920.000 1604.000 1326.000 M1012.000 1326.000 L 1012.000 1512.000 1200.000 1512.000 L 1388.000 1512.000 1388.000 1326.000 L 1388.000 1140.000 1200.000 1140.000 L 1012.000 1140.000 1012.000 1326.000 " fill="#1D1E23" stroke="none" fill-rule="evenodd"/></svg>