<svg viewBox="0 0 2400 2400" fill="none" xmlns="http://www.w3.org/2000/svg"><path d="M1172.000 604.468 C 1119.312 609.745,1058.563 622.874,1006.429 640.251 C 853.297 691.292,736.368 781.269,635.084 926.000 L 612.690 958.000 561.345 975.715 C 457.681 1011.481,386.893 1055.149,325.944 1120.930 C 273.917 1177.082,244.319 1227.399,219.433 1302.000 C 206.095 1341.983,206.089 1342.035,206.045 1422.000 C 205.995 1510.891,207.873 1522.558,232.495 1586.305 C 257.035 1649.838,291.802 1703.162,340.320 1751.680 C 401.496 1812.856,466.711 1850.163,566.000 1880.783 L 606.000 1893.119 828.000 1896.205 C 950.100 1897.902,1227.376 1899.451,1444.168 1899.646 L 1838.336 1900.000 1885.302 1882.181 C 1973.537 1848.705,2022.963 1820.042,2070.988 1774.497 C 2127.545 1720.861,2165.745 1655.569,2185.953 1578.000 C 2194.363 1545.716,2196.379 1528.741,2196.405 1490.000 C 2196.440 1436.907,2192.887 1413.510,2177.574 1366.000 C 2157.464 1303.608,2136.588 1269.909,2083.284 1213.793 C 2043.924 1172.358,1997.429 1138.120,1952.000 1117.117 C 1931.100 1107.455,1911.300 1098.112,1908.000 1096.356 C 1904.700 1094.600,1893.513 1072.651,1883.141 1047.582 C 1838.656 940.068,1799.101 879.009,1727.934 808.000 C 1671.297 751.488,1621.954 715.800,1554.000 682.198 C 1463.716 637.553,1391.356 616.621,1291.114 606.151 C 1227.192 599.474,1222.524 599.408,1172.000 604.468 M1028.005 1175.610 L 982.010 1218.993 942.037 1221.747 C 849.797 1228.099,813.551 1247.999,799.951 1299.752 C 794.600 1320.118,792.967 1455.033,797.684 1487.140 C 801.330 1511.963,822.329 1541.485,848.804 1559.010 C 864.811 1569.606,867.930 1570.099,935.703 1572.752 C 1037.396 1576.733,1173.874 1572.933,1194.630 1565.543 C 1213.885 1558.686,1245.502 1526.955,1254.474 1505.483 C 1259.039 1494.556,1261.040 1465.970,1262.865 1385.568 L 1265.262 1280.000 1311.253 1280.000 L 1357.244 1280.000 1354.449 1375.000 C 1352.912 1427.250,1349.882 1482.547,1347.716 1497.882 C 1340.397 1549.710,1315.475 1589.698,1270.487 1621.801 C 1217.795 1659.402,1191.797 1663.953,1030.000 1663.898 C 887.903 1663.850,855.454 1660.377,816.285 1641.023 C 759.140 1612.787,717.095 1558.768,707.949 1501.834 C 702.500 1467.918,702.143 1331.981,707.407 1295.598 C 715.771 1237.794,757.187 1185.173,818.597 1154.329 C 846.932 1140.097,900.396 1134.464,1022.000 1132.897 L 1074.000 1132.227 1028.005 1175.610 M1584.298 1156.539 C 1635.821 1183.105,1676.902 1231.882,1689.831 1281.840 C 1697.136 1310.071,1698.508 1457.631,1691.859 1500.000 C 1682.536 1559.410,1639.645 1615.266,1582.515 1642.397 C 1546.185 1659.650,1512.302 1663.640,1400.312 1663.857 L 1326.624 1664.000 1372.312 1620.197 L 1418.000 1576.393 1446.000 1576.073 C 1488.411 1575.588,1530.090 1569.137,1547.199 1560.409 C 1566.970 1550.322,1590.702 1523.951,1601.040 1500.580 C 1608.709 1483.243,1609.019 1477.322,1606.408 1398.140 C 1604.884 1351.918,1601.655 1306.228,1599.232 1296.607 C 1593.086 1272.198,1559.754 1236.859,1538.000 1231.687 C 1529.200 1229.595,1452.496 1226.731,1367.547 1225.321 L 1213.094 1222.759 1197.547 1234.137 C 1141.734 1274.984,1139.495 1281.671,1137.004 1415.000 L 1135.117 1516.000 1088.937 1516.000 L 1042.756 1516.000 1045.551 1421.000 C 1047.088 1368.750,1050.076 1313.400,1052.192 1298.000 C 1060.509 1237.444,1101.060 1183.311,1159.015 1155.397 C 1184.352 1143.194,1189.543 1142.235,1244.000 1139.693 C 1275.900 1138.203,1358.700 1137.870,1428.000 1138.951 L 1554.000 1140.917 1584.298 1156.539 " fill="#1D1E23" stroke="none" fill-rule="evenodd"/></svg>