<svg viewBox="0 0 2400 2400" fill="none" xmlns="http://www.w3.org/2000/svg"><path d="M1173.251 604.157 C 1153.039 605.816,1121.539 610.182,1103.251 613.858 C 903.453 654.025,750.723 755.589,636.864 924.000 L 613.877 958.000 558.741 976.408 C 455.587 1010.847,397.561 1046.383,329.896 1116.557 C 270.405 1178.253,237.256 1236.694,214.352 1320.255 C 205.129 1353.901,204.005 1365.311,204.003 1425.334 C 204.000 1497.497,208.466 1524.405,229.899 1581.348 C 274.381 1699.525,362.874 1795.052,476.457 1847.506 C 516.767 1866.121,577.648 1886.053,612.548 1892.061 C 629.803 1895.032,830.594 1897.161,1236.000 1898.673 L 1834.000 1900.903 1878.000 1885.041 C 2003.370 1839.848,2074.685 1789.043,2131.060 1704.762 C 2157.330 1665.487,2175.508 1622.734,2188.855 1568.830 C 2201.461 1517.919,2200.575 1447.741,2186.673 1396.000 C 2164.421 1313.186,2142.910 1275.452,2082.085 1212.539 C 2027.454 1156.033,1983.596 1126.288,1919.392 1102.195 C 1901.344 1095.423,1900.454 1094.292,1889.809 1064.606 C 1874.920 1023.089,1845.008 959.981,1824.111 926.000 C 1774.294 844.988,1696.912 766.822,1614.882 714.652 C 1546.814 671.360,1449.525 632.426,1368.428 616.024 C 1332.101 608.676,1240.971 599.385,1218.000 600.687 C 1213.600 600.936,1193.463 602.498,1173.251 604.157 M1028.148 1175.585 L 982.295 1218.875 940.148 1221.423 C 863.026 1226.085,830.008 1239.498,809.495 1274.500 C 799.661 1291.282,798.259 1298.504,795.697 1345.590 C 792.366 1406.839,794.920 1484.112,800.926 1503.777 C 806.277 1521.298,836.970 1554.281,857.902 1565.004 C 873.236 1572.860,880.835 1573.269,1018.000 1573.626 C 1097.200 1573.831,1170.871 1572.492,1181.713 1570.648 C 1198.301 1567.827,1205.431 1563.450,1226.695 1543.031 C 1242.319 1528.028,1253.670 1513.276,1256.432 1504.383 C 1258.982 1496.176,1261.767 1444.915,1262.919 1385.000 L 1264.938 1280.000 1311.058 1280.000 L 1357.178 1280.000 1354.770 1383.000 C 1352.051 1499.272,1347.440 1529.246,1327.062 1563.119 C 1308.862 1593.371,1273.469 1624.860,1237.917 1642.431 C 1213.351 1654.572,1201.368 1657.879,1172.900 1660.373 C 1127.539 1664.348,941.670 1664.424,889.122 1660.490 C 852.388 1657.739,844.838 1655.741,814.639 1640.777 C 759.854 1613.630,717.971 1562.047,708.455 1510.000 C 701.532 1472.136,699.268 1386.422,703.701 1330.000 C 707.599 1280.387,709.498 1271.216,720.350 1249.589 C 744.772 1200.917,792.696 1158.998,839.457 1145.404 C 864.814 1138.033,928.922 1133.383,1014.000 1132.745 L 1074.000 1132.294 1028.148 1175.585 M1581.978 1154.083 C 1637.659 1181.798,1678.836 1231.090,1692.573 1286.472 C 1698.921 1312.063,1698.915 1460.257,1692.566 1500.000 C 1686.413 1538.511,1672.668 1566.502,1645.502 1595.844 C 1619.205 1624.249,1594.575 1640.475,1560.000 1652.177 C 1536.591 1660.099,1523.638 1661.162,1430.000 1662.849 L 1326.000 1664.722 1372.000 1620.935 L 1418.000 1577.147 1468.000 1574.751 C 1496.449 1573.387,1525.483 1569.713,1535.361 1566.227 C 1561.576 1556.975,1582.219 1538.428,1594.788 1512.832 L 1606.000 1490.000 1605.681 1402.000 C 1605.315 1300.691,1602.768 1287.164,1579.263 1261.664 C 1545.361 1224.885,1556.001 1226.801,1374.365 1224.766 L 1214.000 1222.969 1188.000 1240.732 C 1142.204 1272.019,1136.207 1293.996,1136.079 1431.000 L 1136.000 1516.000 1089.411 1516.000 L 1042.822 1516.000 1045.230 1413.000 C 1048.050 1292.428,1052.192 1267.608,1076.252 1227.110 C 1102.334 1183.207,1158.254 1146.096,1207.642 1139.916 C 1222.139 1138.102,1305.100 1136.966,1392.000 1137.392 L 1550.000 1138.165 1581.978 1154.083 " fill="#1D1E23" stroke="none" fill-rule="evenodd"/></svg>