<svg viewBox="0 0 2400 2400" fill="none" xmlns="http://www.w3.org/2000/svg"><path d="M1159.984 604.256 C 1058.508 615.046,947.016 651.921,862.917 702.510 C 774.336 755.794,691.563 837.342,634.039 928.000 C 623.569 944.500,614.598 958.480,614.102 959.067 C 613.606 959.653,590.907 966.489,563.660 974.258 C 536.413 982.026,497.515 996.248,477.221 1005.861 C 284.520 1097.144,173.833 1296.467,205.934 1494.388 C 236.217 1681.101,373.380 1828.962,565.594 1882.101 C 626.991 1899.074,685.333 1900.458,1286.000 1899.181 L 1842.000 1898.000 1886.982 1882.805 C 2041.367 1830.656,2140.745 1735.156,2181.378 1599.901 C 2207.760 1512.080,2204.714 1429.881,2171.913 1344.501 C 2131.115 1238.306,2039.155 1147.280,1930.916 1105.955 L 1900.502 1094.343 1887.656 1058.171 C 1836.638 914.519,1750.533 803.645,1624.587 719.426 C 1491.270 630.279,1318.358 587.416,1159.984 604.256 M1028.167 1175.567 L 982.333 1218.840 928.172 1221.437 C 865.886 1224.424,843.529 1232.269,818.573 1259.892 C 797.130 1283.627,794.542 1298.537,794.256 1400.000 C 793.964 1503.645,795.445 1510.737,823.336 1539.212 C 858.378 1574.988,852.566 1574.000,1028.000 1574.000 C 1168.712 1574.000,1183.258 1573.374,1196.579 1566.744 C 1219.987 1555.094,1242.581 1533.433,1252.648 1512.989 C 1261.618 1494.776,1262.057 1489.628,1263.384 1387.000 L 1264.767 1280.000 1310.384 1280.000 L 1356.000 1280.000 1355.876 1373.000 C 1355.809 1424.150,1354.036 1479.223,1351.938 1495.384 C 1342.703 1566.511,1290.614 1627.250,1217.065 1652.652 C 1190.435 1661.850,1187.398 1662.000,1028.000 1662.000 C 868.602 1662.000,865.565 1661.850,838.935 1652.652 C 785.513 1634.201,743.960 1598.028,719.771 1548.917 C 703.422 1515.722,698.467 1466.845,701.025 1364.000 C 703.212 1276.061,704.987 1268.709,735.139 1222.684 C 767.169 1173.792,817.941 1142.354,874.505 1136.387 C 891.827 1134.559,943.800 1132.891,990.000 1132.679 L 1074.000 1132.294 1028.167 1175.567 M1556.000 1141.967 C 1629.742 1164.695,1687.226 1228.899,1696.203 1298.562 C 1700.611 1332.773,1700.668 1447.522,1696.297 1489.194 C 1687.319 1574.784,1616.480 1647.474,1530.000 1659.838 C 1514.600 1662.040,1462.400 1663.799,1414.000 1663.748 L 1326.000 1663.654 1371.775 1620.365 L 1417.550 1577.075 1469.775 1574.790 C 1498.499 1573.533,1528.888 1570.247,1537.306 1567.487 C 1558.373 1560.581,1585.472 1535.684,1596.660 1512.955 C 1605.636 1494.720,1605.982 1490.507,1605.779 1402.000 C 1605.636 1339.635,1603.911 1304.202,1600.425 1292.000 C 1593.874 1269.068,1559.658 1234.501,1537.390 1228.318 C 1527.695 1225.626,1465.015 1224.050,1368.000 1224.060 L 1214.000 1224.075 1193.553 1235.802 C 1182.308 1242.252,1168.085 1253.485,1161.947 1260.765 C 1139.252 1287.681,1138.326 1293.133,1136.765 1409.000 L 1135.323 1516.000 1089.661 1516.000 L 1044.000 1516.000 1044.216 1425.000 C 1044.334 1374.950,1045.904 1319.963,1047.703 1302.806 C 1054.483 1238.171,1096.332 1182.203,1160.000 1152.624 C 1199.366 1134.335,1224.769 1132.340,1398.000 1133.935 C 1512.023 1134.985,1537.555 1136.283,1556.000 1141.967 " fill="#1D1E23" stroke="none" fill-rule="evenodd"/></svg>