<svg viewBox="0 0 2400 2400" fill="none" xmlns="http://www.w3.org/2000/svg"><path d="M200.018 1199.000 L 200.000 2200.000 326.000 2200.000 L 452.000 2200.000 452.000 1325.130 L 452.000 450.261 326.018 324.130 L 200.035 198.000 200.018 1199.000 M576.000 1325.032 L 576.000 2076.000 670.000 2076.000 L 764.000 2076.000 764.000 1418.968 L 764.000 761.936 670.000 668.000 L 576.000 574.064 576.000 1325.032 M888.000 1481.048 L 888.000 2076.000 950.000 2076.000 L 1012.000 2076.000 1012.000 1542.952 L 1012.000 1009.903 950.000 948.000 L 888.000 886.097 888.000 1481.048 M1136.983 1607.000 L 1138.000 2074.000 1201.000 2075.102 L 1264.000 2076.203 1264.000 1669.053 L 1264.000 1261.903 1202.953 1200.952 C 1169.377 1167.428,1140.570 1140.000,1138.936 1140.000 C 1137.303 1140.000,1136.424 1350.150,1136.983 1607.000 M1388.000 1731.032 L 1388.000 2076.000 1482.000 2076.000 L 1576.000 2076.000 1576.000 1824.968 L 1576.000 1573.936 1482.000 1480.000 L 1388.000 1386.064 1388.000 1731.032 M1700.000 1887.048 L 1700.000 2076.000 1762.000 2076.000 L 1824.000 2076.000 1824.000 1948.952 L 1824.000 1821.903 1762.000 1760.000 L 1700.000 1698.097 1700.000 1887.048 M1948.000 2076.000 L 1948.000 2200.000 2074.976 2200.000 L 2201.952 2200.000 2078.000 2076.000 C 2009.827 2007.800,1952.688 1952.000,1951.024 1952.000 C 1949.361 1952.000,1948.000 2007.800,1948.000 2076.000 " fill="#1D1E23" stroke="none" fill-rule="evenodd"/></svg>