<svg viewBox="0 0 2400 2400" fill="none" xmlns="http://www.w3.org/2000/svg"><path d="M449.996 452.004 L 202.016 700.008 438.994 936.986 L 675.972 1173.964 706.963 1142.973 L 737.953 1111.982 531.987 905.987 L 326.020 699.991 512.997 513.014 L 699.973 326.038 730.923 356.988 L 761.874 387.938 730.934 419.060 L 699.995 450.182 731.058 481.063 L 762.121 511.944 793.029 481.035 L 823.938 450.126 855.993 481.993 L 888.048 513.860 826.000 576.000 L 763.952 638.140 795.044 669.050 L 826.137 699.960 888.000 638.000 L 949.863 576.040 980.934 606.929 L 1012.005 637.818 981.066 668.940 L 950.126 700.062 981.032 730.968 L 1011.938 761.874 1043.040 730.955 L 1074.141 700.036 1093.081 718.975 L 1112.020 737.915 1142.988 706.948 L 1173.955 675.980 937.990 439.990 C 808.210 310.196,701.114 204.000,700.001 204.000 C 698.887 204.000,586.385 315.602,449.996 452.004 M1838.965 209.462 C 1819.004 216.922,1787.014 241.985,1740.327 286.741 L 1702.000 323.481 1888.803 510.539 L 2075.607 697.596 2084.376 689.798 C 2089.199 685.509,2112.053 661.355,2135.163 636.122 C 2185.692 580.952,2195.906 561.744,2195.961 521.785 C 2196.026 474.938,2188.676 464.439,2078.146 353.483 C 1972.374 247.303,1939.612 218.553,1917.027 212.092 C 1890.821 204.595,1855.198 203.395,1838.965 209.462 M950.984 1075.016 L 263.988 1762.020 451.004 1949.004 L 638.020 2135.989 1325.016 1448.984 L 2012.012 761.980 1824.996 574.996 L 1637.980 388.011 950.984 1075.016 M1691.976 1258.024 L 1662.153 1288.048 1681.059 1306.953 L 1699.964 1325.859 1669.045 1356.960 L 1638.126 1388.062 1669.032 1418.968 L 1699.938 1449.874 1731.060 1418.934 L 1762.182 1387.995 1793.071 1419.066 L 1823.960 1450.137 1762.000 1512.000 L 1700.040 1573.863 1730.950 1604.956 L 1761.860 1636.048 1824.000 1574.000 L 1886.140 1511.952 1917.976 1543.976 L 1949.812 1576.000 1918.903 1607.091 L 1887.995 1638.182 1919.058 1669.063 L 1950.121 1699.944 1981.060 1669.004 L 2012.000 1638.065 2042.981 1669.046 L 2073.962 1700.027 1886.986 1887.003 L 1700.009 2073.980 1494.013 1868.013 L 1288.018 1662.047 1257.301 1692.763 L 1226.584 1723.480 1462.052 1961.968 L 1697.520 2200.456 1949.002 1949.228 L 2200.484 1698.000 1964.116 1463.000 C 1834.114 1333.750,1726.410 1228.000,1724.774 1228.000 C 1723.138 1228.000,1708.379 1241.511,1691.976 1258.024 M200.000 2014.000 L 200.000 2200.000 386.984 2200.000 L 573.968 2200.000 388.000 2014.000 C 285.718 1911.700,201.575 1828.000,201.016 1828.000 C 200.457 1828.000,200.000 1911.700,200.000 2014.000 " fill="#1D1E23" stroke="none" fill-rule="evenodd"/></svg>