<svg viewBox="0 0 2400 2400" fill="none" xmlns="http://www.w3.org/2000/svg"><path d="M836.000 207.779 C 791.194 209.698,779.229 211.567,765.727 218.756 C 746.839 228.813,725.384 251.389,710.376 276.997 L 699.831 294.991 700.916 1200.495 C 701.952 2065.808,702.322 2106.647,709.256 2120.579 C 720.689 2143.551,743.659 2167.954,769.679 2184.771 L 793.627 2200.250 1201.814 2199.125 C 1573.832 2198.100,1611.063 2197.410,1622.000 2191.341 C 1643.267 2179.538,1667.018 2156.480,1683.813 2131.328 L 1700.200 2106.789 1699.100 1200.394 C 1698.207 464.387,1697.016 291.768,1692.768 282.128 C 1683.748 261.664,1659.487 235.494,1634.659 219.447 L 1610.760 204.000 1250.380 204.733 C 1052.171 205.137,865.700 206.507,836.000 207.779 M1313.773 336.890 C 1322.480 349.321,1321.566 368.811,1311.784 379.311 C 1303.659 388.032,1302.379 388.118,1197.006 387.065 L 1090.444 386.000 1082.808 372.922 C 1072.595 355.430,1076.363 341.199,1093.139 333.905 C 1102.995 329.620,1129.546 328.277,1206.773 328.157 C 1306.460 328.002,1307.614 328.096,1313.773 336.890 M1636.000 1202.000 L 1636.000 1952.000 1200.000 1952.000 L 764.000 1952.000 764.000 1202.000 L 764.000 452.000 1200.000 452.000 L 1636.000 452.000 1636.000 1202.000 M1130.000 708.480 C 1083.302 719.210,1031.745 741.051,996.000 765.248 C 969.707 783.047,913.794 838.302,894.051 866.000 C 859.273 914.789,836.018 975.718,827.257 1041.000 C 818.049 1109.609,836.691 1186.121,888.020 1290.381 C 943.741 1403.564,1033.463 1523.998,1173.811 1674.000 L 1200.009 1702.000 1228.453 1672.000 C 1274.309 1623.636,1373.718 1507.098,1404.409 1465.724 C 1516.182 1315.048,1581.796 1158.371,1574.124 1060.469 C 1561.964 905.292,1461.578 772.068,1320.090 723.334 C 1271.213 706.500,1172.269 698.768,1130.000 708.480 M1240.153 960.519 C 1266.084 968.288,1292.528 991.629,1306.941 1019.473 C 1332.930 1069.676,1321.055 1128.732,1277.008 1168.334 C 1253.120 1189.812,1234.832 1196.108,1197.536 1195.696 C 1147.756 1195.146,1116.397 1176.038,1095.452 1133.494 C 1083.376 1108.964,1082.015 1102.733,1082.034 1072.097 C 1082.052 1042.878,1083.588 1035.087,1092.771 1017.640 C 1105.035 994.338,1126.186 974.259,1149.738 963.562 C 1168.612 954.989,1216.337 953.383,1240.153 960.519 M934.905 2022.225 C 948.064 2030.847,950.704 2046.471,941.160 2059.253 C 931.329 2072.421,921.889 2075.099,883.539 2075.601 C 851.361 2076.022,837.688 2070.103,827.690 2051.422 C 822.078 2040.934,831.941 2025.485,849.302 2017.572 C 865.097 2010.373,921.494 2013.438,934.905 2022.225 M1246.936 2022.462 C 1260.014 2030.714,1262.710 2046.462,1253.221 2059.172 C 1243.016 2072.840,1224.824 2077.266,1188.270 2074.973 C 1162.137 2073.333,1157.418 2071.804,1149.270 2062.331 C 1144.171 2056.404,1140.000 2048.455,1140.000 2044.667 C 1140.000 2033.355,1151.510 2020.390,1165.179 2016.303 C 1182.041 2011.262,1235.580 2015.295,1246.936 2022.462 M1542.000 2015.892 C 1556.575 2019.264,1575.926 2036.067,1575.980 2045.400 C 1575.991 2047.270,1569.880 2054.920,1562.400 2062.400 C 1549.092 2075.708,1548.083 2075.999,1515.400 2075.941 C 1478.288 2075.876,1465.246 2071.256,1456.121 2054.942 C 1439.345 2024.953,1487.168 2003.208,1542.000 2015.892 " fill="#1D1E23" stroke="none" fill-rule="evenodd"/></svg>