<svg viewBox="0 0 2400 2400" fill="none" xmlns="http://www.w3.org/2000/svg"><path d="M1032.000 203.450 C 1008.900 204.852,986.400 208.085,982.000 210.633 C 963.059 221.601,955.371 234.831,951.790 262.620 C 947.168 298.484,947.156 505.542,951.775 525.447 C 960.147 561.530,991.303 576.000,1060.622 576.000 L 1103.792 576.000 1104.896 637.000 L 1106.000 698.000 1200.000 698.000 L 1294.000 698.000 1295.104 637.000 L 1296.208 576.000 1339.378 576.000 C 1408.697 576.000,1439.853 561.530,1448.225 525.447 C 1452.540 506.852,1452.824 305.101,1448.589 267.018 C 1445.264 237.117,1436.947 222.558,1416.278 210.454 C 1404.298 203.439,1391.818 202.838,1238.696 201.904 C 1148.113 201.352,1055.100 202.047,1032.000 203.450 M588.000 768.026 C 519.781 771.241,483.426 779.931,429.968 805.800 C 336.578 850.993,267.383 927.330,226.615 1030.141 C 204.518 1085.866,203.253 1096.496,204.868 1212.834 L 206.328 1318.000 219.531 1354.000 C 260.784 1466.489,329.733 1545.171,430.000 1594.177 C 500.077 1628.427,517.230 1631.940,639.306 1637.036 C 715.228 1640.206,774.383 1640.228,851.306 1637.116 C 966.251 1632.467,990.997 1628.079,1049.962 1601.892 C 1111.913 1574.379,1186.349 1512.120,1223.822 1456.475 C 1247.119 1421.879,1270.635 1370.618,1279.993 1334.026 C 1289.545 1296.679,1295.957 1200.825,1295.981 1095.000 L 1296.000 1016.000 1200.000 1016.000 L 1104.000 1016.000 1103.819 1079.000 C 1103.565 1167.131,1097.362 1287.185,1092.157 1304.703 C 1080.054 1345.435,1026.944 1404.227,982.562 1426.023 C 937.847 1447.983,923.872 1449.315,736.000 1449.525 L 566.000 1449.715 538.104 1438.699 C 482.633 1416.795,444.473 1383.360,414.158 1330.097 L 396.000 1298.194 396.000 1200.000 L 396.000 1101.806 414.154 1069.903 C 439.305 1025.705,470.252 995.331,510.000 975.832 C 547.157 957.603,581.633 952.000,656.635 952.000 C 682.399 952.000,707.762 950.372,712.996 948.382 C 718.231 946.391,734.342 928.841,748.798 909.382 C 781.687 865.110,837.448 808.841,873.627 783.416 L 901.255 764.000 773.627 764.647 C 703.432 765.002,619.900 766.523,588.000 768.026 M1182.000 768.224 C 1035.265 771.402,1030.488 772.218,962.000 805.817 C 893.661 839.343,839.922 886.367,797.228 950.000 C 775.655 982.155,767.247 999.334,752.230 1041.937 C 736.364 1086.952,732.280 1135.896,732.117 1283.000 L 732.000 1388.000 825.353 1388.000 L 918.706 1388.000 921.374 1251.249 L 924.042 1114.498 940.548 1080.249 C 953.633 1053.098,963.372 1039.782,987.534 1016.000 C 1024.412 979.703,1049.620 965.464,1086.420 960.145 C 1103.130 957.730,1259.130 956.127,1482.212 956.079 L 1850.423 956.000 1882.409 971.468 C 1924.981 992.055,1956.457 1021.709,1983.001 1066.237 L 2004.000 1101.462 2004.000 1199.388 L 2004.000 1297.314 1985.057 1331.062 C 1963.626 1369.243,1926.632 1407.068,1893.003 1425.183 C 1851.766 1447.398,1840.328 1448.320,1560.000 1452.025 C 1418.100 1453.901,1301.673 1455.563,1301.272 1455.718 C 1300.872 1455.873,1289.212 1471.750,1275.360 1491.000 C 1247.869 1529.204,1185.111 1594.267,1155.000 1615.781 C 1144.550 1623.247,1136.000 1630.641,1136.000 1632.212 C 1136.000 1633.782,1140.050 1636.152,1145.000 1637.479 C 1158.348 1641.056,1637.620 1640.050,1758.000 1636.193 C 1853.631 1633.128,1864.895 1631.999,1897.978 1622.164 C 1972.674 1599.958,2027.113 1567.993,2079.931 1515.325 C 2130.988 1464.414,2168.003 1399.817,2188.105 1326.546 C 2195.941 1297.984,2196.483 1287.667,2195.235 1190.817 L 2193.885 1086.000 2181.036 1049.052 C 2157.354 980.951,2128.221 933.012,2082.613 887.094 C 2032.344 836.484,1958.455 792.385,1899.620 777.880 C 1850.332 765.728,1509.178 761.138,1182.000 768.224 M732.000 1761.380 L 732.000 1822.760 677.304 1825.383 C 617.311 1828.260,600.875 1833.300,586.258 1853.299 C 578.265 1864.236,578.006 1869.245,578.196 2009.299 C 578.419 2173.341,578.933 2176.624,606.508 2190.311 C 621.183 2197.594,632.655 2197.995,824.000 2197.906 C 935.100 2197.854,1030.880 2196.488,1036.845 2194.869 C 1042.872 2193.233,1053.980 2183.688,1061.845 2173.387 L 1076.000 2154.850 1076.000 2014.776 L 1076.000 1874.703 1066.112 1857.831 C 1052.400 1834.433,1036.470 1828.952,972.330 1825.566 L 920.000 1822.804 920.000 1761.402 L 920.000 1700.000 826.000 1700.000 L 732.000 1700.000 732.000 1761.380 M1480.000 1761.402 L 1480.000 1822.804 1427.670 1825.566 C 1363.530 1828.952,1347.600 1834.433,1333.888 1857.831 L 1324.000 1874.703 1324.000 2014.776 L 1324.000 2154.850 1338.155 2173.387 C 1346.032 2183.704,1357.119 2193.226,1363.155 2194.858 C 1369.120 2196.472,1464.900 2197.838,1576.000 2197.896 L 1778.000 2198.000 1793.204 2188.548 C 1822.905 2170.083,1822.000 2175.647,1822.000 2011.469 C 1822.000 1869.370,1821.731 1864.219,1813.742 1853.293 C 1799.121 1833.299,1782.683 1828.260,1722.696 1825.383 L 1668.000 1822.760 1668.000 1761.380 L 1668.000 1700.000 1574.000 1700.000 L 1480.000 1700.000 1480.000 1761.402 " fill="#1D1E23" stroke="none" fill-rule="evenodd"/></svg>