<svg viewBox="0 0 2400 2400" fill="none" xmlns="http://www.w3.org/2000/svg"><path d="M1000.767 203.801 C 988.524 205.789,979.304 210.829,968.930 221.203 C 955.695 234.438,954.054 238.532,951.411 264.903 C 949.807 280.906,948.383 345.839,948.247 409.199 C 947.979 534.082,948.216 535.642,970.643 556.627 C 986.499 571.465,1006.964 575.952,1058.896 575.978 L 1103.792 576.000 1104.896 637.000 L 1106.000 698.000 1200.000 698.000 L 1294.000 698.000 1295.104 637.000 L 1296.208 576.000 1341.104 575.978 C 1393.036 575.952,1413.501 571.465,1429.357 556.627 C 1451.784 535.642,1452.021 534.082,1451.753 409.199 C 1451.617 345.839,1450.193 280.906,1448.589 264.903 C 1445.951 238.585,1444.289 234.423,1431.189 221.322 C 1420.370 210.503,1411.809 206.034,1397.353 203.658 C 1373.692 199.769,1024.815 199.894,1000.767 203.801 M558.000 768.079 C 478.416 775.363,394.458 813.785,330.606 872.142 C 279.938 918.450,235.690 991.680,213.471 1066.000 C 203.059 1100.824,202.708 1105.201,202.708 1200.000 C 202.708 1294.858,203.054 1299.154,213.490 1334.000 C 253.168 1466.481,337.614 1560.013,462.115 1609.376 C 528.526 1635.707,551.690 1638.016,748.000 1637.874 C 933.725 1637.740,951.374 1636.353,1010.000 1617.286 C 1130.824 1577.989,1231.405 1479.892,1272.139 1361.622 C 1288.346 1314.562,1292.752 1271.878,1294.908 1141.000 L 1296.967 1016.000 1201.119 1016.000 L 1105.271 1016.000 1102.870 1149.224 C 1100.126 1301.448,1099.528 1304.634,1064.269 1354.841 C 1041.330 1387.505,1014.084 1411.427,981.495 1427.515 C 939.110 1448.441,925.008 1449.742,740.000 1449.797 C 572.397 1449.847,569.633 1449.717,544.000 1440.590 C 480.871 1418.114,439.363 1382.149,411.384 1325.686 L 394.000 1290.603 394.000 1200.000 L 394.000 1109.397 411.492 1074.097 C 433.824 1029.030,466.511 995.618,508.630 974.807 C 544.761 956.954,574.594 952.186,650.812 952.079 C 682.058 952.036,711.758 950.112,716.812 947.804 C 721.865 945.496,734.977 929.746,745.948 912.804 C 770.814 874.407,836.911 807.157,873.957 782.561 L 901.915 764.000 745.957 764.575 C 660.181 764.891,575.600 766.468,558.000 768.079 M1124.000 768.070 C 1044.561 770.817,1034.971 772.759,975.783 798.093 C 883.974 837.389,802.225 919.733,763.484 1011.940 C 736.404 1076.393,734.891 1087.952,732.979 1245.000 L 731.238 1388.000 825.185 1388.000 L 919.131 1388.000 920.894 1255.000 L 922.656 1122.000 933.509 1093.762 C 949.232 1052.852,979.662 1014.566,1016.000 989.970 C 1072.874 951.476,1041.301 953.977,1468.000 954.162 L 1842.000 954.325 1866.000 963.278 C 1919.653 983.291,1962.859 1022.708,1989.230 1075.698 L 2006.000 1109.397 2006.000 1200.000 L 2006.000 1290.603 1989.149 1324.609 C 1963.112 1377.154,1920.581 1416.535,1868.421 1436.395 C 1835.892 1448.780,1783.809 1451.503,1574.000 1451.787 C 1472.800 1451.924,1369.722 1453.205,1344.938 1454.633 L 1299.877 1457.229 1272.371 1495.615 C 1242.944 1536.682,1192.875 1587.706,1154.291 1615.946 C 1131.371 1632.722,1130.906 1633.420,1140.291 1636.926 C 1145.955 1639.042,1292.492 1639.830,1492.000 1638.818 C 1788.583 1637.314,1837.969 1636.219,1863.886 1630.573 C 1954.723 1610.785,2019.346 1576.914,2078.316 1518.185 C 2130.255 1466.458,2164.220 1408.610,2186.458 1334.000 C 2196.770 1299.404,2197.189 1294.335,2197.205 1204.000 C 2197.218 1129.538,2195.820 1104.180,2190.478 1082.000 C 2160.902 959.185,2082.741 860.914,1970.000 804.798 C 1918.242 779.035,1889.789 772.039,1820.000 767.915 C 1751.830 763.886,1241.731 764.000,1124.000 768.070 M732.000 1761.441 L 732.000 1822.881 676.324 1824.883 C 615.570 1827.068,602.998 1831.042,586.418 1853.302 C 578.222 1864.305,578.001 1868.427,578.034 2009.302 C 578.072 2173.365,578.556 2176.437,606.508 2190.311 C 621.181 2197.593,632.787 2198.000,826.000 2198.000 C 977.199 2198.000,1032.813 2196.745,1040.866 2193.150 C 1046.843 2190.482,1057.276 2180.647,1064.051 2171.294 L 1076.370 2154.289 1075.185 2012.145 L 1074.000 1870.000 1064.390 1854.541 C 1050.696 1832.512,1035.685 1827.652,973.252 1825.034 L 920.000 1822.802 920.000 1761.401 L 920.000 1700.000 826.000 1700.000 L 732.000 1700.000 732.000 1761.441 M1480.000 1761.401 L 1480.000 1822.802 1426.748 1825.034 C 1364.315 1827.652,1349.304 1832.512,1335.610 1854.541 L 1326.000 1870.000 1324.815 2012.145 L 1323.630 2154.289 1335.949 2171.294 C 1342.724 2180.647,1353.157 2190.482,1359.134 2193.150 C 1367.187 2196.745,1422.801 2198.000,1574.000 2198.000 C 1770.806 2198.000,1778.479 2197.718,1791.582 2190.000 C 1799.052 2185.600,1808.952 2176.917,1813.582 2170.705 C 1821.783 2159.701,1822.000 2155.605,1822.000 2011.996 C 1822.000 1868.386,1821.783 1864.292,1813.582 1853.292 C 1796.993 1831.040,1784.422 1827.068,1723.676 1824.883 L 1668.000 1822.881 1668.000 1761.441 L 1668.000 1700.000 1574.000 1700.000 L 1480.000 1700.000 1480.000 1761.401 " fill="#1D1E23" stroke="none" fill-rule="evenodd"/></svg>