<svg viewBox="0 0 2400 2400" fill="none" xmlns="http://www.w3.org/2000/svg"><path d="M994.913 207.774 C 986.615 209.421,975.417 214.911,970.029 219.973 C 951.282 237.584,950.000 248.597,950.000 392.000 C 950.000 546.809,949.807 545.884,985.945 563.848 C 1002.940 572.295,1012.725 573.927,1054.776 575.327 L 1103.797 576.959 1104.898 637.479 L 1106.000 698.000 1200.000 698.000 L 1294.000 698.000 1295.102 637.479 L 1296.203 576.959 1345.224 575.327 C 1387.275 573.927,1397.060 572.295,1414.055 563.848 C 1450.134 545.913,1450.000 546.547,1450.000 394.000 C 1450.000 245.947,1448.045 233.137,1422.688 215.051 L 1410.000 206.000 1210.000 205.390 C 1100.000 205.054,1003.211 206.127,994.913 207.774 M614.000 768.181 C 522.964 771.613,492.888 777.709,437.254 804.006 C 386.500 827.997,366.565 841.644,326.849 879.589 C 289.058 915.694,255.729 964.291,232.671 1016.908 C 206.964 1075.570,204.149 1094.646,204.069 1210.762 C 204.002 1308.958,204.261 1312.247,214.263 1339.976 C 241.128 1414.451,273.851 1468.836,319.591 1515.033 C 370.043 1565.987,453.366 1613.209,515.790 1626.225 C 599.339 1643.645,891.935 1643.797,975.069 1626.463 C 1036.348 1613.686,1098.554 1580.716,1158.013 1529.502 C 1227.356 1469.774,1276.041 1378.551,1287.969 1286.000 C 1290.521 1266.200,1293.622 1197.350,1294.861 1133.000 L 1297.113 1016.000 1201.194 1016.000 L 1105.274 1016.000 1102.566 1121.761 C 1098.863 1266.323,1095.039 1303.245,1081.065 1329.346 C 1074.983 1340.706,1055.577 1364.557,1037.941 1382.348 C 1001.935 1418.671,970.265 1436.596,930.000 1443.444 C 916.800 1445.688,831.300 1448.732,740.000 1450.208 L 574.000 1452.890 546.000 1441.736 C 484.485 1417.229,446.756 1384.874,413.554 1328.155 L 396.000 1298.167 396.000 1200.000 L 396.000 1101.833 414.682 1069.916 C 438.999 1028.373,471.035 996.575,506.254 979.027 C 545.683 959.381,565.123 955.611,642.640 952.577 C 721.983 949.472,713.135 953.654,758.107 898.000 C 792.717 855.169,840.305 808.381,875.440 782.639 L 900.880 764.000 795.440 764.658 C 737.448 765.020,655.800 766.606,614.000 768.181 M1214.000 767.957 C 1107.884 770.288,1057.969 772.920,1037.620 777.259 C 1004.053 784.417,933.162 818.883,896.686 845.780 C 838.890 888.397,783.873 958.720,760.101 1020.363 C 737.795 1078.204,735.576 1097.072,733.206 1249.000 L 731.039 1388.000 824.965 1388.000 L 918.891 1388.000 921.800 1251.000 L 924.710 1114.000 941.124 1080.286 C 961.075 1039.306,1001.545 996.844,1040.520 975.998 C 1065.726 962.516,1066.732 962.338,1134.000 959.460 C 1171.400 957.860,1348.310 956.427,1527.133 956.276 L 1852.266 956.000 1873.133 966.478 C 1925.273 992.659,1956.217 1022.289,1989.599 1078.000 L 2003.979 1102.000 2003.990 1199.513 L 2004.000 1297.026 1991.244 1319.513 C 1961.132 1372.599,1922.570 1411.733,1881.882 1430.500 C 1870.818 1435.603,1848.345 1441.682,1831.944 1444.008 C 1807.580 1447.463,1471.221 1455.519,1335.321 1455.902 L 1300.642 1456.000 1279.696 1485.000 C 1258.455 1514.409,1167.973 1607.841,1146.007 1623.046 C 1139.411 1627.612,1135.517 1632.845,1137.352 1634.674 C 1142.382 1639.686,1794.394 1638.020,1840.684 1632.876 C 1906.572 1625.555,1978.064 1596.941,2032.287 1556.188 C 2101.096 1504.472,2152.520 1432.471,2182.621 1345.697 C 2193.397 1314.632,2193.645 1311.806,2195.067 1204.000 L 2196.517 1094.000 2183.818 1058.000 C 2176.833 1038.200,2166.040 1010.772,2159.832 997.048 C 2119.570 908.039,2022.901 821.410,1924.822 786.445 C 1901.490 778.128,1883.387 775.265,1834.465 772.155 C 1746.708 766.576,1387.527 764.146,1214.000 767.957 M732.000 1761.400 L 732.000 1822.800 683.000 1825.543 C 624.096 1828.840,606.227 1833.158,591.809 1847.575 C 581.570 1857.814,580.693 1861.505,577.863 1906.251 C 573.764 1971.079,578.596 2147.169,585.000 2166.330 C 588.676 2177.329,594.236 2183.502,606.000 2189.645 C 621.651 2197.818,626.506 2197.992,828.388 2197.656 C 1056.691 2197.275,1040.856 2199.124,1063.868 2170.166 L 1076.000 2154.900 1076.000 2015.251 C 1076.000 1865.832,1075.798 1864.170,1055.380 1845.358 C 1042.510 1833.500,1022.062 1828.950,967.000 1825.693 L 920.000 1822.913 920.000 1761.456 L 920.000 1700.000 826.000 1700.000 L 732.000 1700.000 732.000 1761.400 M1480.000 1761.456 L 1480.000 1822.913 1433.000 1825.693 C 1377.938 1828.950,1357.490 1833.500,1344.620 1845.358 C 1324.202 1864.170,1324.000 1865.832,1324.000 2015.251 L 1324.000 2154.900 1336.132 2170.166 C 1358.163 2197.889,1343.916 2196.148,1568.938 2198.610 L 1774.000 2200.853 1793.086 2188.460 C 1803.584 2181.644,1814.128 2171.102,1816.519 2165.033 C 1822.117 2150.821,1826.040 1969.121,1822.105 1906.251 C 1819.304 1861.484,1818.435 1857.819,1808.191 1847.575 C 1793.773 1833.158,1775.904 1828.840,1717.000 1825.543 L 1668.000 1822.800 1668.000 1761.400 L 1668.000 1700.000 1574.000 1700.000 L 1480.000 1700.000 1480.000 1761.456 " fill="#1D1E23" stroke="none" fill-rule="evenodd"/></svg>