<svg viewBox="0 0 2400 2400" fill="none" xmlns="http://www.w3.org/2000/svg"><path d="M1045.273 207.585 C 947.837 211.460,950.689 205.984,950.288 390.000 C 950.017 514.375,950.462 522.914,958.000 537.831 C 971.092 563.738,994.768 572.872,1054.825 575.186 L 1103.797 577.072 1104.899 637.536 L 1106.000 698.000 1200.000 698.000 L 1294.000 698.000 1295.101 637.536 L 1296.203 577.072 1345.175 575.186 C 1404.603 572.896,1429.080 563.621,1441.379 538.728 C 1456.468 508.187,1454.371 263.658,1438.760 233.470 C 1426.057 208.904,1428.442 209.256,1259.959 207.121 C 1175.281 206.048,1078.673 206.257,1045.273 207.585 M636.000 768.279 C 578.489 770.191,534.448 773.683,514.000 777.953 C 377.140 806.535,256.622 923.416,212.868 1070.000 C 208.459 1084.770,206.422 1118.309,205.079 1198.255 L 203.259 1306.510 214.156 1338.255 C 255.012 1457.285,327.099 1541.521,434.001 1595.151 C 501.332 1628.929,538.698 1635.136,696.000 1638.673 C 821.440 1641.494,934.227 1635.678,984.000 1623.823 C 1064.502 1604.649,1156.721 1543.410,1208.428 1474.789 C 1250.551 1418.888,1278.467 1352.436,1287.806 1285.835 C 1290.261 1268.326,1293.398 1200.450,1294.775 1135.000 L 1297.281 1016.000 1201.415 1016.000 L 1105.548 1016.000 1100.811 1145.000 C 1098.144 1217.614,1093.756 1284.807,1090.771 1298.725 C 1084.630 1327.362,1072.760 1345.957,1038.561 1380.518 C 1008.813 1410.579,980.946 1428.987,951.811 1437.823 C 925.419 1445.826,753.541 1453.166,637.444 1451.247 L 562.000 1450.000 522.930 1430.587 C 475.489 1407.015,446.046 1379.656,416.562 1331.747 L 396.000 1298.334 396.000 1200.000 L 396.000 1101.666 415.708 1069.642 C 442.025 1026.877,473.764 996.034,509.754 978.251 C 544.979 960.846,564.361 957.166,644.038 952.750 C 678.158 950.859,710.014 947.204,714.827 944.628 C 719.641 942.051,740.818 919.376,761.886 894.238 C 802.029 846.341,838.134 811.134,877.396 781.599 L 900.793 764.000 813.396 764.644 C 765.328 764.998,685.500 766.633,636.000 768.279 M1100.000 771.970 C 1037.826 775.579,1023.082 778.947,977.724 799.903 C 875.669 847.052,796.368 928.628,758.019 1025.911 C 739.453 1073.010,736.136 1103.265,733.346 1251.000 L 730.758 1388.000 824.740 1388.000 L 918.722 1388.000 921.352 1295.000 C 922.798 1243.850,923.986 1182.475,923.991 1158.611 C 924.000 1115.511,924.112 1115.004,940.779 1082.611 C 962.102 1041.170,1010.569 990.876,1045.476 973.967 C 1068.894 962.623,1069.215 962.588,1177.476 959.558 C 1237.164 957.887,1413.800 956.427,1570.000 956.313 L 1854.000 956.106 1882.561 971.946 C 1921.873 993.750,1953.169 1023.563,1980.701 1065.438 L 2004.000 1100.876 2004.000 1198.951 L 2004.000 1297.026 1991.505 1318.864 C 1973.863 1349.701,1943.026 1387.074,1918.735 1407.061 C 1892.997 1428.238,1863.922 1439.406,1822.201 1444.138 C 1787.391 1448.087,1486.182 1456.023,1371.647 1456.009 L 1301.294 1456.000 1275.747 1488.959 C 1261.696 1507.086,1224.705 1547.328,1193.545 1578.386 L 1136.891 1634.855 1277.445 1637.346 C 1354.750 1638.716,1516.100 1638.318,1636.000 1636.461 C 1874.830 1632.763,1874.076 1632.838,1942.747 1605.678 C 2046.453 1564.660,2130.119 1477.931,2174.978 1364.945 C 2192.792 1320.075,2196.729 1282.359,2195.213 1171.073 L 2194.000 1082.000 2176.948 1038.145 C 2167.569 1014.024,2152.888 982.524,2144.323 968.145 C 2087.603 872.918,1971.993 789.401,1878.000 775.752 C 1839.961 770.229,1184.878 767.044,1100.000 771.970 M732.000 1761.260 L 732.000 1822.519 676.466 1826.851 C 614.048 1831.720,595.411 1837.976,585.046 1857.539 C 570.714 1884.592,574.654 2151.141,589.726 2174.144 C 593.218 2179.473,601.908 2187.021,609.038 2190.917 C 620.974 2197.440,637.668 2197.971,820.000 2197.628 C 954.270 2197.375,1023.172 2195.797,1034.070 2192.724 C 1045.369 2189.538,1054.044 2183.117,1063.290 2171.096 L 1076.439 2154.000 1075.220 2011.286 C 1074.050 1874.414,1073.662 1868.110,1065.742 1857.286 C 1051.546 1837.885,1033.004 1831.761,974.019 1826.993 L 920.000 1822.626 920.000 1761.313 L 920.000 1700.000 826.000 1700.000 L 732.000 1700.000 732.000 1761.260 M1480.000 1761.313 L 1480.000 1822.626 1425.981 1826.993 C 1366.996 1831.761,1348.454 1837.885,1334.258 1857.286 C 1326.338 1868.110,1325.950 1874.419,1324.774 2011.352 L 1323.548 2154.132 1334.774 2168.771 C 1340.948 2176.823,1350.500 2185.623,1356.000 2188.327 C 1370.263 2195.340,1467.562 2199.325,1633.346 2199.687 L 1776.692 2200.000 1794.055 2187.531 C 1821.992 2167.468,1822.000 2167.417,1822.000 2010.000 C 1822.000 1885.580,1821.241 1868.613,1815.176 1857.539 C 1804.438 1837.930,1785.873 1831.713,1723.534 1826.851 L 1668.000 1822.519 1668.000 1761.260 L 1668.000 1700.000 1574.000 1700.000 L 1480.000 1700.000 1480.000 1761.313 " fill="#1D1E23" stroke="none" fill-rule="evenodd"/></svg>