<svg viewBox="0 0 2400 2400" fill="none" xmlns="http://www.w3.org/2000/svg"><path d="M776.000 206.684 C 776.000 208.161,785.747 251.811,797.660 303.684 C 809.573 355.558,820.469 405.281,821.873 414.179 C 826.474 443.341,812.512 465.406,778.504 482.714 C 753.918 495.228,706.365 505.334,688.149 501.917 C 651.334 495.010,642.067 480.040,613.918 382.000 C 603.812 346.800,591.003 304.063,585.453 287.030 C 573.284 249.679,571.547 249.897,537.627 293.032 C 493.400 349.272,476.041 399.747,476.078 472.000 C 476.098 512.349,482.806 540.022,501.772 578.000 C 529.714 633.951,570.784 673.257,638.215 708.582 L 670.866 725.686 697.633 835.843 C 729.617 967.465,731.078 975.597,723.588 980.339 C 720.515 982.285,658.150 983.905,585.000 983.939 L 452.000 984.000 452.000 922.631 L 452.000 861.262 379.359 858.631 C 339.406 857.184,282.706 856.000,253.359 856.000 L 200.000 856.000 200.000 1482.492 L 200.000 2108.984 218.027 2134.246 C 238.534 2162.985,265.003 2186.260,284.620 2192.804 C 294.246 2196.015,551.192 2197.751,1200.457 2198.992 L 2102.913 2200.717 2118.969 2192.526 C 2139.349 2182.129,2181.920 2139.758,2192.167 2119.672 C 2199.845 2104.622,2200.000 2091.981,2200.000 1480.159 L 2200.000 856.000 2146.641 856.000 C 2117.294 856.000,2060.594 857.184,2020.641 858.631 L 1948.000 861.262 1948.000 922.631 L 1948.000 984.000 1834.614 984.000 C 1772.252 984.000,1704.752 982.830,1684.614 981.401 L 1648.000 978.802 1648.003 964.401 C 1648.006 949.025,1679.297 821.524,1712.055 703.410 C 1723.025 663.857,1732.000 630.505,1732.000 629.294 C 1732.000 625.766,1763.189 631.395,1826.765 646.397 C 1946.064 674.546,1956.856 676.360,1966.692 669.914 C 1973.010 665.775,1980.219 649.733,1991.911 613.795 C 2013.696 546.834,2039.718 444.024,2042.727 413.030 L 2045.151 388.059 2027.576 380.290 C 2017.909 376.017,1971.300 361.474,1924.000 347.972 C 1876.700 334.470,1833.855 320.749,1828.789 317.481 C 1820.764 312.304,1819.904 309.373,1822.103 294.708 C 1825.810 269.986,1815.673 259.164,1776.957 246.513 C 1725.879 229.823,1626.650 204.000,1613.595 204.000 C 1600.252 204.000,1589.074 213.810,1578.442 234.852 L 1571.948 247.704 1526.974 245.432 C 1480.280 243.074,1456.703 247.149,1269.033 290.010 L 1240.066 296.626 1230.192 329.313 C 1219.265 365.486,1198.250 443.228,1194.289 462.126 L 1191.748 474.252 1298.874 503.699 C 1430.929 539.998,1480.113 555.641,1482.605 562.133 C 1484.530 567.151,1386.014 975.320,1381.879 979.455 C 1380.666 980.667,1297.887 982.409,1197.926 983.325 L 1016.178 984.990 1012.687 975.495 C 1010.767 970.273,990.697 895.674,968.087 809.720 L 926.979 653.440 941.010 633.720 C 979.425 579.727,995.644 535.997,998.762 478.000 C 1001.410 428.750,996.163 398.943,978.168 361.023 C 943.036 286.992,895.444 243.296,819.927 215.736 C 787.875 204.038,776.000 201.591,776.000 206.684 M755.008 1114.657 C 767.368 1116.782,768.506 1118.514,777.883 1149.447 C 789.947 1189.247,810.459 1272.994,814.115 1297.375 C 816.436 1312.852,815.695 1315.882,808.664 1319.645 C 803.153 1322.594,744.266 1324.000,626.263 1324.000 L 452.000 1324.000 452.000 1215.448 L 452.000 1106.895 597.000 1109.658 C 676.750 1111.177,747.853 1113.427,755.008 1114.657 M1948.000 1216.000 L 1948.000 1324.000 1787.000 1323.576 C 1698.450 1323.343,1609.800 1321.993,1590.000 1320.576 L 1554.000 1318.000 1554.530 1302.166 C 1554.822 1293.458,1565.581 1246.208,1578.440 1197.166 L 1601.820 1108.000 1774.910 1108.000 L 1948.000 1108.000 1948.000 1216.000 M1315.872 1114.618 L 1340.918 1117.236 1338.456 1135.195 C 1337.102 1145.073,1326.644 1191.595,1315.215 1238.578 L 1294.435 1324.000 1199.217 1324.000 C 1146.848 1324.000,1104.000 1322.894,1104.000 1321.542 C 1104.000 1320.190,1094.300 1281.040,1082.445 1234.542 C 1070.590 1188.044,1059.654 1142.483,1058.143 1133.295 C 1055.501 1117.228,1055.829 1116.525,1066.698 1114.894 C 1085.652 1112.051,1289.153 1111.825,1315.872 1114.618 M1274.625 1498.076 L 1289.790 1544.152 1315.895 1559.619 L 1342.000 1575.085 1387.383 1567.270 C 1441.910 1557.879,1436.695 1555.018,1474.339 1614.984 L 1500.367 1656.447 1466.184 1693.687 L 1432.000 1730.927 1432.000 1761.005 L 1432.000 1791.082 1465.790 1828.962 L 1499.579 1866.841 1471.152 1916.420 C 1455.516 1943.689,1442.267 1966.594,1441.709 1967.320 C 1441.150 1968.046,1418.525 1964.161,1391.430 1958.686 L 1342.166 1948.733 1315.907 1964.332 L 1289.649 1979.932 1274.011 2027.966 L 1258.373 2076.000 1200.037 2076.000 L 1141.701 2076.000 1128.707 2036.357 C 1113.282 1989.296,1105.326 1978.115,1078.315 1965.538 C 1054.398 1954.401,1042.073 1953.914,994.547 1962.227 C 975.049 1965.638,958.665 1967.882,958.139 1967.214 C 957.613 1966.546,944.291 1943.794,928.534 1916.653 L 899.885 1867.307 933.942 1828.798 L 968.000 1790.289 968.000 1761.603 L 968.000 1732.918 933.765 1694.539 L 899.530 1656.161 928.536 1607.651 L 957.543 1559.141 981.771 1562.571 C 995.097 1564.457,1021.409 1566.000,1040.243 1566.000 C 1072.057 1566.000,1075.461 1565.188,1088.243 1554.547 C 1106.718 1539.166,1117.922 1520.111,1130.309 1483.000 L 1140.657 1452.000 1200.059 1452.000 L 1259.461 1452.000 1274.625 1498.076 M1145.089 1653.973 C 1119.896 1666.809,1089.725 1699.148,1084.121 1719.323 C 1078.577 1739.285,1078.942 1785.540,1084.798 1805.087 C 1090.889 1825.418,1124.981 1863.007,1145.982 1872.547 C 1169.240 1883.113,1234.462 1882.988,1255.339 1872.337 C 1272.416 1863.625,1300.117 1835.113,1309.919 1816.157 C 1317.882 1800.758,1322.148 1756.266,1318.191 1729.882 C 1315.788 1713.854,1311.574 1706.763,1292.656 1686.921 C 1261.712 1654.463,1247.148 1647.743,1202.469 1645.307 C 1168.777 1643.471,1164.408 1644.131,1145.089 1653.973 " fill="#1D1E23" stroke="none" fill-rule="evenodd"/></svg>