<svg viewBox="0 0 2400 2400" fill="none" xmlns="http://www.w3.org/2000/svg"><path d="M200.960 781.000 L 202.000 1362.000 218.000 1385.903 C 235.507 1412.058,266.079 1437.607,288.000 1444.403 C 296.972 1447.185,381.888 1449.514,524.434 1450.888 L 746.867 1453.033 773.354 1409.072 C 787.922 1384.894,802.603 1362.819,805.980 1360.017 C 812.892 1354.280,836.874 1357.261,921.550 1374.384 C 947.703 1379.673,971.547 1384.000,974.539 1384.000 C 986.859 1384.000,1029.356 1336.023,1022.822 1329.489 C 1021.850 1328.517,948.818 1326.594,860.527 1325.216 L 700.000 1322.709 700.000 1231.355 L 700.000 1140.000 1200.000 1140.000 L 1700.000 1140.000 1700.000 1231.355 L 1700.000 1322.709 1539.473 1325.216 C 1451.182 1326.594,1378.150 1328.517,1377.178 1329.489 C 1370.644 1336.023,1413.141 1384.000,1425.461 1384.000 C 1428.453 1384.000,1452.297 1379.673,1478.450 1374.384 C 1563.126 1357.261,1587.108 1354.280,1594.020 1360.017 C 1597.397 1362.819,1611.938 1384.662,1626.335 1408.556 L 1652.511 1452.000 1827.255 1451.744 C 1923.365 1451.603,2027.555 1450.122,2058.788 1448.451 C 2115.476 1445.420,2115.615 1445.389,2137.797 1430.661 C 2161.094 1415.192,2179.915 1392.904,2192.400 1366.000 C 2199.501 1350.697,2199.828 1329.059,2199.912 869.000 L 2200.000 388.000 1420.000 388.000 L 640.000 388.000 640.000 294.000 L 640.000 200.000 419.960 200.000 L 199.921 200.000 200.960 781.000 M700.000 262.000 L 700.000 324.000 934.000 324.000 L 1168.000 324.000 1168.000 262.000 L 1168.000 200.000 934.000 200.000 L 700.000 200.000 700.000 262.000 M1232.000 262.000 L 1232.000 324.000 1466.000 324.000 L 1700.000 324.000 1700.000 262.000 L 1700.000 200.000 1466.000 200.000 L 1232.000 200.000 1232.000 262.000 M1764.000 262.000 L 1764.000 324.000 1982.000 324.000 L 2200.000 324.000 2200.000 262.000 L 2200.000 200.000 1982.000 200.000 L 1764.000 200.000 1764.000 262.000 M512.000 606.000 L 512.000 700.000 418.000 700.000 L 324.000 700.000 324.000 606.000 L 324.000 512.000 418.000 512.000 L 512.000 512.000 512.000 606.000 M824.000 606.000 L 824.000 700.000 732.000 700.000 L 640.000 700.000 640.000 606.000 L 640.000 512.000 732.000 512.000 L 824.000 512.000 824.000 606.000 M1136.000 606.000 L 1136.000 700.000 1044.000 700.000 L 952.000 700.000 952.000 606.000 L 952.000 512.000 1044.000 512.000 L 1136.000 512.000 1136.000 606.000 M1448.000 606.000 L 1448.000 700.000 1356.000 700.000 L 1264.000 700.000 1264.000 606.000 L 1264.000 512.000 1356.000 512.000 L 1448.000 512.000 1448.000 606.000 M1764.000 606.000 L 1764.000 700.000 1670.000 700.000 L 1576.000 700.000 1576.000 606.000 L 1576.000 512.000 1670.000 512.000 L 1764.000 512.000 1764.000 606.000 M2076.000 606.000 L 2076.000 700.000 1982.000 700.000 L 1888.000 700.000 1888.000 606.000 L 1888.000 512.000 1982.000 512.000 L 2076.000 512.000 2076.000 606.000 M668.000 918.000 L 668.000 1012.000 574.000 1012.000 L 480.000 1012.000 480.000 918.000 L 480.000 824.000 574.000 824.000 L 668.000 824.000 668.000 918.000 M980.000 918.000 L 980.000 1012.000 888.000 1012.000 L 796.000 1012.000 796.000 918.000 L 796.000 824.000 888.000 824.000 L 980.000 824.000 980.000 918.000 M1292.000 918.000 L 1292.000 1012.000 1200.000 1012.000 L 1108.000 1012.000 1108.000 918.000 L 1108.000 824.000 1200.000 824.000 L 1292.000 824.000 1292.000 918.000 M1604.000 918.000 L 1604.000 1012.000 1512.000 1012.000 L 1420.000 1012.000 1420.000 918.000 L 1420.000 824.000 1512.000 824.000 L 1604.000 824.000 1604.000 918.000 M1920.000 918.000 L 1920.000 1012.000 1826.000 1012.000 L 1732.000 1012.000 1732.000 918.000 L 1732.000 824.000 1826.000 824.000 L 1920.000 824.000 1920.000 918.000 M1122.142 1267.488 C 1110.915 1269.894,1109.185 1273.189,1089.601 1329.447 C 1078.224 1362.127,1065.403 1393.620,1061.108 1399.432 C 1056.813 1405.245,1038.157 1419.284,1019.650 1430.631 L 986.000 1451.262 914.938 1437.227 C 875.854 1429.507,841.362 1424.156,838.289 1425.336 C 831.581 1427.910,756.000 1560.122,756.000 1569.281 C 756.000 1576.361,778.973 1605.930,820.677 1652.530 L 848.000 1683.060 847.937 1730.530 L 847.874 1778.000 799.676 1833.178 L 751.477 1888.356 771.520 1925.867 C 798.213 1975.825,835.717 2036.142,841.455 2038.344 C 843.994 2039.319,877.426 2033.787,915.748 2026.051 L 985.425 2011.986 1025.752 2035.853 L 1066.078 2059.720 1089.330 2129.860 L 1112.582 2200.000 1200.000 2200.000 L 1287.418 2200.000 1310.670 2129.860 L 1333.922 2059.720 1374.248 2035.853 L 1414.575 2011.986 1484.252 2026.051 C 1522.574 2033.787,1556.006 2039.319,1558.545 2038.344 C 1564.282 2036.143,1601.785 1975.829,1628.464 1925.898 L 1648.490 1888.417 1600.271 1833.208 L 1552.053 1778.000 1552.026 1730.693 L 1552.000 1683.386 1598.000 1630.800 C 1623.300 1601.878,1644.000 1575.826,1644.000 1572.908 C 1644.000 1565.993,1637.938 1554.120,1597.380 1481.606 L 1563.601 1421.212 1488.801 1436.308 L 1414.000 1451.403 1384.881 1433.344 C 1334.724 1402.235,1335.420 1403.193,1311.719 1332.643 L 1290.372 1269.100 1252.186 1266.571 C 1206.082 1263.517,1138.444 1263.994,1122.142 1267.488 M1274.312 1573.907 C 1305.650 1589.146,1339.611 1624.103,1356.597 1658.605 C 1369.450 1684.715,1370.000 1687.722,1370.000 1731.916 C 1370.000 1774.525,1369.137 1779.760,1358.552 1801.332 C 1342.323 1834.411,1303.517 1874.624,1274.603 1888.327 C 1241.080 1904.214,1202.522 1910.400,1173.233 1904.588 C 1117.664 1893.564,1067.916 1854.087,1042.880 1801.150 C 1032.160 1778.484,1029.807 1768.277,1028.635 1739.348 C 1027.680 1715.793,1029.263 1697.703,1033.578 1682.859 C 1047.118 1636.282,1092.861 1585.930,1138.000 1567.913 C 1154.783 1561.214,1165.449 1560.128,1204.312 1561.159 C 1245.799 1562.260,1253.091 1563.588,1274.312 1573.907 " fill="#1D1E23" stroke="none" fill-rule="evenodd"/></svg>