<svg viewBox="0 0 2400 2400" fill="none" xmlns="http://www.w3.org/2000/svg"><path d="M200.000 638.000 L 200.000 1076.000 212.169 1076.000 C 236.985 1076.000,286.855 1063.289,314.349 1049.955 C 340.565 1037.241,358.129 1025.050,440.000 962.737 C 475.276 935.889,520.395 911.636,554.000 901.458 C 587.822 891.214,687.606 891.259,721.791 901.533 C 767.993 915.419,815.638 943.373,851.366 977.557 C 895.341 1019.633,934.577 1091.716,940.277 1140.904 C 944.987 1181.553,944.773 1238.157,939.803 1266.265 C 934.394 1296.854,901.613 1362.828,875.846 1394.984 C 834.907 1446.073,770.123 1488.051,710.000 1502.448 C 672.753 1511.367,598.939 1511.422,564.000 1502.556 C 529.041 1493.686,480.096 1468.992,446.000 1443.023 C 361.725 1378.835,345.802 1367.524,326.798 1358.350 C 302.774 1346.752,246.644 1330.235,219.000 1326.631 L 200.000 1324.153 200.000 1762.077 L 200.000 2200.000 1200.000 2200.000 L 2200.000 2200.000 2200.000 1761.546 L 2200.000 1323.092 2181.000 1325.831 C 2145.239 1330.986,2098.860 1344.460,2074.428 1356.792 C 2047.648 1370.309,2040.848 1375.082,1982.001 1421.663 C 1928.403 1464.089,1904.969 1478.635,1866.430 1493.398 C 1834.638 1505.576,1832.622 1505.822,1764.000 1505.871 C 1706.135 1505.913,1690.186 1504.629,1672.000 1498.464 C 1579.132 1466.982,1510.317 1399.731,1470.969 1302.000 L 1458.084 1270.000 1458.293 1198.000 L 1458.502 1126.000 1472.929 1092.726 C 1493.126 1046.144,1510.018 1019.382,1539.234 987.682 C 1579.168 944.354,1635.061 910.952,1686.729 899.539 C 1721.094 891.949,1812.261 892.854,1842.899 901.089 C 1889.285 913.559,1927.659 936.300,2006.000 997.749 C 2030.200 1016.731,2061.302 1037.720,2075.117 1044.391 C 2101.623 1057.191,2169.099 1076.000,2188.513 1076.000 L 2200.000 1076.000 2200.000 638.000 L 2200.000 200.000 1200.000 200.000 L 200.000 200.000 200.000 638.000 " fill="#1D1E23" stroke="none" fill-rule="evenodd"/></svg>