<svg viewBox="0 0 2400 2400" fill="none" xmlns="http://www.w3.org/2000/svg"><path d="M200.020 779.000 L 200.041 1358.000 209.120 1372.998 C 221.006 1392.631,253.148 1425.583,271.468 1436.916 C 284.744 1445.128,292.743 1446.139,364.000 1448.602 C 406.900 1450.084,510.675 1451.456,594.612 1451.649 L 747.223 1452.000 772.111 1411.500 C 785.800 1389.226,800.393 1367.607,804.540 1363.460 C 813.335 1354.665,814.252 1354.746,911.361 1372.843 L 976.722 1385.023 987.361 1377.140 C 998.413 1368.951,1024.000 1337.659,1024.000 1332.332 C 1024.000 1329.269,852.825 1324.000,753.350 1324.000 L 700.000 1324.000 700.000 1232.000 L 700.000 1140.000 1200.000 1140.000 L 1700.000 1140.000 1700.000 1232.000 L 1700.000 1324.000 1646.650 1324.000 C 1547.175 1324.000,1376.000 1329.269,1376.000 1332.332 C 1376.000 1337.659,1401.587 1368.951,1412.639 1377.140 L 1423.278 1385.023 1488.639 1372.843 C 1585.748 1354.746,1586.665 1354.665,1595.460 1363.460 C 1599.607 1367.607,1614.200 1389.226,1627.889 1411.500 L 1652.777 1452.000 1831.388 1451.812 C 2038.169 1451.594,2103.175 1448.563,2125.202 1438.111 C 2145.168 1428.636,2177.857 1394.870,2189.050 1372.159 L 2198.000 1354.000 2199.108 871.000 L 2200.216 388.000 1420.108 388.000 L 640.000 388.000 640.000 294.000 L 640.000 200.000 420.000 200.000 L 200.000 200.000 200.020 779.000 M700.000 262.000 L 700.000 324.000 934.000 324.000 L 1168.000 324.000 1168.000 262.000 L 1168.000 200.000 934.000 200.000 L 700.000 200.000 700.000 262.000 M1232.000 262.000 L 1232.000 324.000 1466.000 324.000 L 1700.000 324.000 1700.000 262.000 L 1700.000 200.000 1466.000 200.000 L 1232.000 200.000 1232.000 262.000 M1764.000 262.000 L 1764.000 324.000 1982.000 324.000 L 2200.000 324.000 2200.000 262.000 L 2200.000 200.000 1982.000 200.000 L 1764.000 200.000 1764.000 262.000 M512.000 606.000 L 512.000 700.000 418.000 700.000 L 324.000 700.000 324.000 606.000 L 324.000 512.000 418.000 512.000 L 512.000 512.000 512.000 606.000 M824.000 606.000 L 824.000 700.000 732.000 700.000 L 640.000 700.000 640.000 606.000 L 640.000 512.000 732.000 512.000 L 824.000 512.000 824.000 606.000 M1136.000 606.000 L 1136.000 700.000 1044.000 700.000 L 952.000 700.000 952.000 606.000 L 952.000 512.000 1044.000 512.000 L 1136.000 512.000 1136.000 606.000 M1448.000 606.000 L 1448.000 700.000 1356.000 700.000 L 1264.000 700.000 1264.000 606.000 L 1264.000 512.000 1356.000 512.000 L 1448.000 512.000 1448.000 606.000 M1764.000 606.000 L 1764.000 700.000 1670.000 700.000 L 1576.000 700.000 1576.000 606.000 L 1576.000 512.000 1670.000 512.000 L 1764.000 512.000 1764.000 606.000 M2076.000 606.000 L 2076.000 700.000 1982.000 700.000 L 1888.000 700.000 1888.000 606.000 L 1888.000 512.000 1982.000 512.000 L 2076.000 512.000 2076.000 606.000 M668.000 918.000 L 668.000 1012.000 574.000 1012.000 L 480.000 1012.000 480.000 918.000 L 480.000 824.000 574.000 824.000 L 668.000 824.000 668.000 918.000 M980.000 918.000 L 980.000 1012.000 888.000 1012.000 L 796.000 1012.000 796.000 918.000 L 796.000 824.000 888.000 824.000 L 980.000 824.000 980.000 918.000 M1292.000 918.000 L 1292.000 1012.000 1200.000 1012.000 L 1108.000 1012.000 1108.000 918.000 L 1108.000 824.000 1200.000 824.000 L 1292.000 824.000 1292.000 918.000 M1604.000 918.000 L 1604.000 1012.000 1512.000 1012.000 L 1420.000 1012.000 1420.000 918.000 L 1420.000 824.000 1512.000 824.000 L 1604.000 824.000 1604.000 918.000 M1920.000 918.000 L 1920.000 1012.000 1826.000 1012.000 L 1732.000 1012.000 1732.000 918.000 L 1732.000 824.000 1826.000 824.000 L 1920.000 824.000 1920.000 918.000 M1128.922 1266.899 C 1112.818 1268.893,1108.316 1275.632,1092.114 1322.000 C 1065.876 1397.089,1062.793 1401.801,1022.588 1428.288 C 1002.740 1441.364,983.687 1451.247,980.250 1450.251 C 975.024 1448.736,890.786 1432.988,850.449 1425.985 C 842.421 1424.591,837.237 1426.118,833.456 1430.990 C 824.688 1442.286,777.619 1523.979,765.625 1548.717 L 754.611 1571.434 771.900 1594.332 C 781.409 1606.927,802.421 1632.104,818.594 1650.282 L 848.000 1683.333 847.946 1730.666 L 847.891 1778.000 799.809 1832.844 L 751.727 1887.688 764.080 1912.159 C 779.556 1942.817,824.645 2018.970,834.598 2031.262 L 842.062 2040.480 913.557 2026.366 L 985.052 2012.252 1025.543 2035.919 L 1066.034 2059.586 1089.308 2129.793 L 1112.582 2200.000 1200.000 2200.000 L 1287.418 2200.000 1310.670 2129.860 L 1333.922 2059.720 1374.126 2035.925 L 1414.331 2012.130 1485.989 2026.276 L 1557.647 2040.422 1564.957 2031.211 C 1575.470 2017.965,1621.405 1940.913,1635.859 1912.280 L 1648.151 1887.929 1600.138 1832.964 L 1552.126 1778.000 1552.063 1730.452 L 1552.000 1682.904 1577.236 1654.452 C 1628.605 1596.538,1644.690 1575.072,1642.628 1567.185 C 1641.528 1562.980,1623.404 1528.394,1602.351 1490.328 L 1564.073 1421.117 1489.037 1436.283 L 1414.000 1451.449 1380.594 1430.724 C 1362.220 1419.326,1343.051 1403.999,1337.996 1396.664 C 1332.941 1389.328,1320.161 1357.633,1309.597 1326.229 L 1290.390 1269.130 1246.195 1266.583 C 1200.492 1263.949,1151.687 1264.081,1128.922 1266.899 M1276.800 1576.749 C 1305.919 1592.269,1339.585 1627.482,1355.559 1659.127 C 1367.443 1682.669,1368.000 1685.944,1368.000 1732.326 C 1368.000 1779.383,1367.600 1781.638,1355.015 1805.440 C 1336.421 1840.609,1294.485 1880.997,1265.154 1891.982 C 1225.806 1906.719,1201.896 1909.992,1174.672 1904.369 C 1119.455 1892.964,1070.227 1854.347,1044.072 1801.919 C 1030.705 1775.124,1030.144 1772.228,1030.142 1730.000 C 1030.139 1686.615,1030.355 1685.595,1045.570 1656.990 C 1069.309 1612.361,1113.695 1574.077,1154.000 1563.465 C 1160.600 1561.727,1185.781 1561.260,1209.957 1562.428 C 1249.055 1564.316,1256.444 1565.899,1276.800 1576.749 " fill="#1D1E23" stroke="none" fill-rule="evenodd"/></svg>