<svg viewBox="0 0 2400 2400" fill="none" xmlns="http://www.w3.org/2000/svg"><path d="M294.000 207.745 C 260.605 213.473,228.799 239.779,210.241 277.019 L 200.000 297.571 200.000 1200.000 L 200.000 2102.429 210.130 2122.757 C 222.234 2147.046,257.250 2181.328,280.938 2192.080 C 297.649 2199.665,316.568 2199.826,1200.215 2199.912 L 2102.429 2200.000 2122.757 2189.870 C 2147.046 2177.766,2181.328 2142.750,2192.080 2119.062 C 2199.666 2102.349,2199.824 2083.533,2199.824 1200.000 C 2199.824 321.962,2199.622 297.555,2192.215 281.239 C 2181.929 258.583,2154.493 229.596,2130.082 215.594 L 2110.000 204.075 1210.000 204.538 C 715.000 204.793,302.800 206.236,294.000 207.745 M465.724 277.627 C 486.225 289.641,502.591 313.288,508.689 339.705 C 514.878 366.517,507.795 390.562,486.624 414.614 C 457.197 448.045,420.333 456.459,381.837 438.533 C 332.052 415.350,313.631 360.457,339.194 311.457 C 361.854 268.019,421.924 251.958,465.724 277.627 M705.692 272.731 C 741.272 291.028,757.442 317.047,757.442 356.000 C 757.442 399.714,735.294 430.043,692.004 445.610 C 667.661 454.364,653.687 452.340,625.051 435.914 C 601.185 422.223,581.913 393.490,577.685 365.294 C 571.933 326.937,600.588 282.397,638.829 270.255 C 659.045 263.836,690.671 265.007,705.692 272.731 M965.724 277.627 C 986.225 289.641,1002.591 313.288,1008.689 339.705 C 1014.878 366.517,1007.795 390.562,986.624 414.614 C 957.197 448.045,920.333 456.459,881.837 438.533 C 832.052 415.350,813.631 360.457,839.194 311.457 C 861.854 268.019,921.924 251.958,965.724 277.627 M2076.000 1294.000 L 2076.000 2076.000 1200.000 2076.000 L 324.000 2076.000 324.000 1294.000 L 324.000 512.000 1200.000 512.000 L 2076.000 512.000 2076.000 1294.000 M1437.129 980.317 C 1428.612 982.861,1392.753 1014.346,1331.129 1073.386 C 1191.006 1207.635,899.383 1505.230,888.953 1524.618 C 864.157 1570.712,909.404 1623.632,960.519 1608.317 C 972.966 1604.588,1000.751 1579.891,1093.133 1490.444 C 1226.374 1361.435,1498.190 1085.253,1509.628 1067.258 C 1519.363 1051.943,1519.174 1024.174,1509.220 1007.130 C 1495.916 984.350,1463.719 972.375,1437.129 980.317 M700.431 990.866 C 692.968 994.543,619.507 1064.126,537.184 1145.496 L 387.507 1293.441 476.753 1383.079 C 583.927 1490.723,683.892 1585.612,701.307 1596.231 C 717.307 1605.986,737.251 1605.980,758.765 1596.213 C 788.679 1582.632,801.191 1541.125,783.914 1512.787 C 779.484 1505.520,729.653 1452.802,673.180 1395.635 L 570.502 1291.695 677.010 1184.847 C 735.590 1126.081,785.427 1072.933,787.759 1066.740 C 794.054 1050.024,792.956 1036.500,783.760 1017.503 C 769.625 988.305,730.815 975.899,700.431 990.866 M1646.000 989.412 C 1613.417 1004.531,1599.248 1041.875,1615.000 1071.122 C 1618.850 1078.271,1668.671 1130.782,1725.713 1187.815 L 1829.427 1291.510 1726.212 1396.482 C 1669.445 1454.217,1619.630 1506.977,1615.514 1513.727 C 1599.352 1540.231,1610.221 1578.769,1638.416 1594.934 C 1660.365 1607.517,1682.170 1606.738,1704.217 1592.582 C 1713.998 1586.301,1787.494 1516.551,1867.542 1437.582 L 2013.084 1294.000 1869.040 1151.583 C 1789.816 1073.254,1718.672 1004.343,1710.942 998.448 C 1693.795 985.368,1663.730 981.185,1646.000 989.412 " fill="#1D1E23" stroke="none" fill-rule="evenodd"/></svg>