<svg viewBox="0 0 2400 2400" fill="none" xmlns="http://www.w3.org/2000/svg"><path d="M648.000 207.841 C 300.813 209.889,281.225 210.385,266.932 217.488 C 249.459 226.171,218.786 258.858,207.678 280.632 C 200.174 295.340,200.000 316.261,200.000 1202.333 L 200.000 2108.984 218.027 2134.246 C 238.534 2162.984,265.002 2186.259,284.620 2192.805 C 294.248 2196.017,551.696 2197.752,1202.759 2198.993 L 2107.517 2200.717 2126.759 2187.566 C 2157.460 2166.584,2187.062 2134.071,2192.854 2114.971 C 2196.987 2101.342,2197.951 1920.393,2197.749 1196.000 L 2197.497 294.000 2188.912 277.479 C 2178.137 256.746,2149.788 228.152,2126.443 214.471 L 2108.575 204.000 1561.288 204.841 C 1260.279 205.303,849.300 206.653,648.000 207.841 M453.128 273.394 C 486.481 287.370,508.028 320.206,507.962 356.956 C 507.890 397.572,472.580 439.144,432.387 445.935 C 383.342 454.221,328.130 406.380,328.022 355.503 C 327.990 340.500,338.532 312.679,349.893 297.784 C 370.107 271.282,419.975 259.501,453.128 273.394 M718.775 282.489 C 749.385 307.124,759.311 332.875,754.143 374.241 C 751.904 392.165,748.491 399.038,733.617 415.581 C 689.874 464.234,627.377 457.319,593.000 400.021 C 582.552 382.607,580.000 374.052,580.000 356.440 C 580.000 329.240,591.346 304.435,611.359 287.878 C 630.521 272.026,644.288 268.111,676.775 269.276 C 699.897 270.105,705.626 271.907,718.775 282.489 M953.128 273.394 C 986.481 287.370,1008.028 320.206,1007.962 356.956 C 1007.890 397.572,972.580 439.144,932.387 445.935 C 883.342 454.221,828.130 406.380,828.022 355.503 C 827.990 340.500,838.532 312.679,849.893 297.784 C 870.107 271.282,919.975 259.501,953.128 273.394 M2076.000 1294.000 L 2076.000 2076.000 1200.000 2076.000 L 324.000 2076.000 324.000 1294.000 L 324.000 512.000 1200.000 512.000 L 2076.000 512.000 2076.000 1294.000 M1433.899 983.562 C 1411.264 993.384,1211.867 1186.413,1030.729 1373.859 C 894.800 1514.521,884.006 1527.591,884.003 1551.528 C 883.999 1575.058,895.907 1593.305,918.360 1604.174 C 941.568 1615.409,954.702 1612.851,983.686 1591.448 C 1018.513 1565.730,1501.539 1080.501,1509.340 1063.395 C 1521.908 1035.836,1514.188 1005.481,1490.697 990.089 C 1479.138 982.515,1445.279 978.624,1433.899 983.562 M713.261 986.671 C 701.037 989.213,624.735 1059.392,496.830 1185.733 L 387.659 1293.568 450.830 1357.185 C 560.845 1467.977,686.689 1586.193,704.899 1595.853 C 724.911 1606.470,741.157 1605.371,763.233 1591.906 C 777.363 1583.287,791.764 1557.065,791.912 1539.686 C 792.066 1521.661,770.499 1495.727,669.369 1392.326 L 570.669 1291.409 644.596 1216.705 C 798.797 1060.881,801.248 1057.489,784.480 1023.132 C 771.471 996.477,741.034 980.895,713.261 986.671 M1635.500 997.756 C 1620.505 1007.945,1608.000 1028.974,1608.000 1044.000 C 1608.000 1063.531,1625.388 1084.664,1724.899 1186.078 L 1828.793 1291.959 1730.362 1392.601 C 1617.632 1507.863,1606.493 1522.053,1609.181 1546.974 C 1613.042 1582.771,1651.172 1610.308,1683.475 1600.630 C 1703.004 1594.779,1753.599 1549.141,1899.272 1405.973 L 2012.545 1294.649 1957.272 1238.982 C 1863.187 1144.226,1717.082 1004.541,1703.207 996.082 C 1684.098 984.432,1654.014 985.175,1635.500 997.756 " fill="#1D1E23" stroke="none" fill-rule="evenodd"/></svg>