<svg viewBox="0 0 2400 2400" fill="none" xmlns="http://www.w3.org/2000/svg"><path d="M200.000 638.570 L 200.000 1077.140 224.312 1074.599 C 300.728 1066.611,334.947 1049.069,429.896 969.202 C 474.537 931.651,520.714 906.816,562.257 898.016 C 594.019 891.288,680.785 890.174,708.000 896.145 C 752.204 905.844,813.678 938.947,850.478 972.868 C 887.409 1006.909,927.706 1076.341,940.514 1128.000 C 947.604 1156.600,947.634 1243.221,940.562 1272.000 C 932.391 1305.255,899.574 1371.474,880.100 1394.000 C 832.535 1449.020,774.702 1486.820,714.000 1502.563 C 676.486 1512.292,596.580 1512.413,560.000 1502.795 C 519.846 1492.238,473.357 1467.324,436.000 1436.343 C 371.500 1382.852,356.027 1371.579,328.255 1357.854 C 297.755 1342.781,253.777 1329.946,221.000 1326.552 L 200.000 1324.377 200.000 1762.188 L 200.000 2200.000 1200.000 2200.000 L 2200.000 2200.000 2200.000 1761.965 L 2200.000 1323.930 2177.000 1326.338 C 2116.209 1332.704,2061.072 1355.307,2018.000 1391.519 C 1946.488 1451.643,1927.167 1465.905,1898.000 1480.105 C 1850.812 1503.077,1822.541 1509.242,1764.000 1509.328 C 1707.916 1509.410,1684.403 1504.928,1638.844 1485.474 C 1597.513 1467.825,1576.241 1452.765,1538.774 1414.627 C 1512.335 1387.716,1504.262 1376.031,1486.122 1338.421 C 1458.707 1281.583,1454.032 1261.418,1454.032 1200.000 C 1454.032 1142.145,1458.737 1119.405,1480.386 1072.626 C 1516.263 995.104,1571.007 942.227,1648.000 910.731 C 1685.611 895.344,1704.175 892.207,1758.265 892.098 C 1858.087 891.896,1899.317 909.175,1999.963 993.391 C 2025.243 1014.543,2057.155 1037.378,2070.879 1044.134 C 2098.141 1057.555,2165.072 1076.000,2186.513 1076.000 L 2200.000 1076.000 2200.000 638.000 L 2200.000 200.000 1200.000 200.000 L 200.000 200.000 200.000 638.570 " fill="#1D1E23" stroke="none" fill-rule="evenodd"/></svg>