<svg viewBox="0 0 2400 2400" fill="none" xmlns="http://www.w3.org/2000/svg"><path d="M744.000 207.852 C 643.605 210.248,643.957 210.161,610.380 240.773 C 597.356 252.647,590.225 262.972,587.434 274.000 C 580.885 299.872,576.585 687.229,576.553 1254.000 C 576.521 1817.815,580.293 2098.512,588.285 2127.207 C 592.040 2140.686,598.608 2149.105,618.606 2166.071 C 632.647 2177.982,651.754 2190.039,661.067 2192.864 C 674.436 2196.919,776.074 2198.000,1144.000 2198.000 C 1571.258 2198.000,1610.998 2197.446,1622.000 2191.341 C 1643.267 2179.538,1667.018 2156.480,1683.813 2131.328 L 1700.200 2106.789 1699.100 1200.394 C 1698.207 464.387,1697.016 291.768,1692.768 282.128 C 1683.748 261.664,1659.487 235.494,1634.659 219.447 L 1610.760 204.000 1222.380 204.852 C 1008.771 205.321,793.500 206.671,744.000 207.852 M1251.586 277.620 C 1262.061 287.106,1262.154 294.418,1252.012 311.052 L 1244.055 324.104 1105.034 323.052 L 966.013 322.000 958.153 307.332 C 951.254 294.458,950.957 291.423,955.725 282.514 C 958.713 276.931,964.047 271.546,967.579 270.548 C 971.110 269.549,1034.564 269.017,1108.586 269.366 C 1234.824 269.961,1243.694 270.473,1251.586 277.620 M1636.000 639.006 L 1636.000 826.012 1136.000 1326.000 L 636.000 1825.988 636.000 1138.994 L 636.000 452.000 1136.000 452.000 L 1636.000 452.000 1636.000 639.006 M1039.339 713.765 C 1015.119 730.389,1014.142 737.228,1014.067 890.652 L 1014.000 1027.303 1026.000 1044.268 C 1041.358 1065.980,1050.827 1072.197,1056.053 1064.000 C 1058.156 1060.700,1059.905 1026.459,1059.939 987.909 L 1060.000 917.818 1074.335 895.909 C 1094.022 865.820,1105.145 854.834,1129.291 841.630 C 1183.441 812.017,1263.064 840.696,1288.908 899.121 C 1294.460 911.672,1298.161 934.025,1301.399 974.562 L 1306.000 1032.167 1347.583 990.430 L 1389.167 948.693 1387.094 849.346 C 1384.826 740.684,1382.234 726.894,1361.518 713.311 C 1351.312 706.619,1337.829 705.903,1202.184 704.851 L 1054.000 703.701 1039.339 713.765 M1151.959 901.000 C 1144.686 905.950,1134.970 915.082,1130.368 921.293 C 1122.418 932.021,1121.865 939.180,1119.291 1064.668 C 1117.801 1137.314,1115.691 1197.643,1114.602 1198.732 C 1113.513 1199.820,1105.764 1196.051,1097.383 1190.356 C 1075.616 1175.565,1045.640 1175.771,1027.738 1190.835 C 1011.484 1204.511,1000.201 1229.052,1000.088 1250.974 L 1000.000 1267.947 981.694 1253.974 C 966.052 1242.034,960.275 1240.000,942.001 1240.000 C 924.585 1240.000,918.223 1242.012,907.738 1250.835 C 891.799 1264.246,880.204 1288.952,880.088 1309.748 L 880.000 1325.497 869.000 1315.237 C 844.901 1292.760,825.722 1291.470,793.521 1310.162 C 769.241 1324.255,763.496 1339.737,761.097 1397.545 C 758.939 1449.522,765.327 1542.927,771.459 1549.059 C 777.388 1554.988,834.384 1501.516,1045.451 1292.008 L 1240.902 1098.000 1239.250 1017.983 C 1237.822 948.796,1236.543 935.846,1229.799 922.301 C 1215.477 893.532,1178.000 883.277,1151.959 901.000 M1636.000 1452.062 L 1636.000 1952.124 1146.199 1951.062 C 798.816 1950.309,655.129 1948.730,652.032 1945.632 C 648.875 1942.475,680.526 1907.832,766.193 1820.678 L 884.722 1700.091 1042.883 1699.046 L 1201.045 1698.000 1269.010 1604.000 C 1306.390 1552.300,1358.610 1483.077,1385.054 1450.172 C 1449.518 1369.954,1456.531 1353.171,1440.415 1317.686 C 1426.312 1286.634,1399.424 1276.458,1363.597 1288.613 C 1341.862 1295.988,1300.358 1324.569,1269.000 1353.756 L 1240.000 1380.749 1240.000 1363.390 L 1240.000 1346.030 1436.985 1149.015 C 1545.327 1040.657,1634.427 952.000,1634.985 952.000 C 1635.543 952.000,1636.000 1177.028,1636.000 1452.062 M869.727 2020.604 C 883.195 2026.740,886.772 2041.293,878.880 2057.843 C 872.161 2071.933,860.077 2075.912,824.000 2075.912 C 787.110 2075.912,775.588 2071.990,769.471 2057.351 C 764.571 2045.623,764.636 2042.374,769.975 2032.049 C 773.718 2024.811,781.138 2018.648,789.050 2016.205 C 804.875 2011.320,855.397 2014.074,869.727 2020.604 M1163.650 2015.658 C 1178.856 2017.818,1187.488 2021.434,1192.650 2027.809 C 1202.664 2040.176,1201.944 2045.697,1188.331 2060.937 L 1176.663 2074.000 1135.960 2074.000 C 1095.536 2074.000,1095.191 2073.918,1085.648 2062.000 C 1073.513 2046.845,1073.588 2041.918,1086.204 2025.378 C 1095.736 2012.880,1097.906 2012.019,1119.204 2012.292 C 1131.742 2012.453,1151.742 2013.967,1163.650 2015.658 M1481.000 2015.965 C 1505.235 2016.042,1517.732 2049.953,1499.580 2066.380 C 1492.592 2072.704,1484.939 2074.000,1454.580 2074.000 C 1398.741 2074.000,1379.146 2060.724,1394.000 2032.956 C 1403.115 2015.916,1416.374 2011.494,1450.000 2014.276 C 1461.000 2015.186,1474.950 2015.946,1481.000 2015.965 " fill="#1D1E23" stroke="none" fill-rule="evenodd"/></svg>