<svg viewBox="0 0 2400 2400" fill="none" xmlns="http://www.w3.org/2000/svg"><path d="M825.546 493.457 L 794.489 586.913 544.244 589.822 L 294.000 592.732 274.583 603.228 C 247.950 617.626,222.375 640.915,214.140 658.270 C 202.598 682.593,200.323 807.362,200.156 1425.159 L 200.000 2004.319 208.499 2020.979 C 219.429 2042.403,257.597 2080.571,279.021 2091.501 L 295.681 2100.000 1200.000 2100.000 L 2104.319 2100.000 2120.979 2091.501 C 2142.403 2080.571,2180.571 2042.403,2191.501 2020.979 L 2200.000 2004.319 2199.849 1427.159 C 2199.689 814.799,2197.261 682.295,2185.752 658.042 C 2177.615 640.894,2151.934 617.564,2125.417 603.228 L 2106.000 592.732 1855.756 589.822 L 1605.511 586.913 1574.454 493.457 L 1543.396 400.000 1200.000 400.000 L 856.604 400.000 825.546 493.457 M1220.000 719.984 C 1340.123 728.804,1395.939 743.037,1479.923 786.264 C 1661.112 879.520,1785.161 1051.186,1814.384 1249.109 C 1822.364 1303.159,1820.270 1409.602,1810.116 1466.000 C 1792.380 1564.515,1737.558 1677.251,1667.300 1759.685 L 1642.000 1789.369 1640.976 1473.685 L 1639.952 1158.000 1512.999 1031.000 L 1386.047 904.000 1075.023 904.000 L 764.000 904.000 763.816 1349.000 L 763.633 1794.000 741.581 1770.000 C 729.453 1756.800,707.261 1727.792,692.267 1705.538 C 638.462 1625.680,616.595 1576.555,593.657 1484.000 C 582.827 1440.301,582.256 1433.497,582.242 1348.000 C 582.231 1269.858,583.398 1252.652,591.107 1217.409 C 607.430 1142.777,640.568 1060.785,678.157 1002.025 C 714.323 945.488,792.923 863.956,843.986 830.009 C 924.549 776.451,1026.607 735.559,1114.000 721.822 C 1155.312 715.328,1156.337 715.310,1220.000 719.984 M1324.000 1094.000 L 1324.000 1220.000 1450.000 1220.000 L 1576.000 1220.000 1576.000 1367.344 C 1576.000 1448.383,1574.804 1590.795,1573.342 1683.815 L 1570.683 1852.942 1548.342 1867.236 C 1500.435 1897.886,1418.420 1934.018,1350.365 1954.457 C 1296.670 1970.583,1188.220 1976.819,1116.925 1967.879 C 1049.506 1959.425,940.428 1919.771,871.234 1878.559 L 830.000 1854.000 827.558 1688.000 C 826.215 1596.700,824.865 1397.350,824.558 1245.000 L 824.000 968.000 1074.000 968.000 L 1324.000 968.000 1324.000 1094.000 M888.000 1154.000 L 888.000 1280.000 904.000 1280.000 L 920.000 1280.000 920.000 1154.000 L 920.000 1028.000 904.000 1028.000 L 888.000 1028.000 888.000 1154.000 M956.000 1031.911 C 950.953 1035.098,950.000 1050.179,950.000 1126.850 L 950.000 1218.000 965.000 1219.241 L 980.000 1220.483 980.000 1124.241 L 980.000 1028.000 971.000 1028.061 C 966.050 1028.095,959.300 1029.827,956.000 1031.911 M1012.000 1124.168 L 1012.000 1220.337 1043.000 1219.168 L 1074.000 1218.000 1075.072 1123.000 L 1076.145 1028.000 1044.072 1028.000 L 1012.000 1028.000 1012.000 1124.168 M1112.000 1031.911 C 1106.953 1035.098,1106.000 1050.179,1106.000 1126.850 L 1106.000 1218.000 1121.000 1219.241 L 1136.000 1220.483 1136.000 1124.241 L 1136.000 1028.000 1127.000 1028.061 C 1122.050 1028.095,1115.300 1029.827,1112.000 1031.911 M1168.928 1123.000 L 1170.000 1218.000 1185.000 1219.241 L 1200.000 1220.483 1200.000 1124.241 L 1200.000 1028.000 1183.928 1028.000 L 1167.855 1028.000 1168.928 1123.000 M1232.000 1154.000 L 1232.000 1280.000 1248.264 1280.000 L 1264.528 1280.000 1263.264 1157.850 C 1261.904 1026.455,1262.205 1028.206,1241.000 1028.061 L 1232.000 1028.000 1232.000 1154.000 M888.000 1440.000 L 888.000 1472.000 1200.000 1472.000 L 1512.000 1472.000 1512.000 1440.000 L 1512.000 1408.000 1200.000 1408.000 L 888.000 1408.000 888.000 1440.000 M888.000 1564.000 L 888.000 1596.000 1200.000 1596.000 L 1512.000 1596.000 1512.000 1564.000 L 1512.000 1532.000 1200.000 1532.000 L 888.000 1532.000 888.000 1564.000 M888.000 1692.030 L 888.000 1724.061 1137.000 1723.030 L 1386.000 1722.000 1387.168 1691.000 L 1388.337 1660.000 1138.168 1660.000 L 888.000 1660.000 888.000 1692.030 " fill="#1D1E23" stroke="none" fill-rule="evenodd"/></svg>