<svg viewBox="0 0 2400 2400" fill="none" xmlns="http://www.w3.org/2000/svg"><path d="M825.581 493.352 L 794.558 586.703 545.136 589.357 L 295.714 592.010 275.496 602.255 C 249.507 615.425,220.414 642.203,213.050 659.732 C 202.151 685.676,200.262 793.757,200.131 1399.159 L 200.000 2004.319 208.371 2020.727 C 220.069 2043.658,250.300 2074.853,274.000 2088.450 L 294.000 2099.925 1200.000 2099.925 L 2106.000 2099.925 2126.000 2088.450 C 2149.700 2074.853,2179.931 2043.658,2191.629 2020.727 L 2200.000 2004.319 2199.848 1401.159 C 2199.695 794.276,2197.810 685.583,2186.992 659.833 C 2179.590 642.213,2150.547 615.452,2124.504 602.255 L 2104.286 592.010 1854.864 589.357 L 1605.442 586.703 1574.419 493.352 L 1543.396 400.000 1200.000 400.000 L 856.604 400.000 825.581 493.352 M1228.854 720.128 C 1333.421 727.242,1389.300 740.886,1466.000 778.030 C 1648.799 866.556,1773.395 1028.541,1812.110 1228.000 C 1825.194 1295.404,1823.385 1405.095,1807.972 1479.034 C 1786.432 1582.362,1731.407 1690.031,1660.156 1768.266 L 1640.363 1790.000 1640.182 1474.023 L 1640.000 1158.046 1513.023 1031.023 L 1386.047 904.000 1075.023 904.000 L 764.000 904.000 763.823 1349.000 L 763.646 1794.000 739.388 1768.000 C 698.948 1724.657,644.689 1637.691,621.680 1579.341 C 611.026 1552.321,590.189 1476.528,586.122 1450.000 C 561.278 1287.955,595.667 1126.561,683.486 993.046 C 710.697 951.676,786.462 871.068,823.965 843.588 C 921.619 772.031,1055.495 721.435,1160.000 716.588 C 1165.500 716.332,1196.484 717.926,1228.854 720.128 M1324.000 1094.000 L 1324.000 1220.000 1450.000 1220.000 L 1576.000 1220.000 1576.000 1391.346 C 1576.000 1485.586,1574.806 1627.930,1573.346 1707.665 L 1570.691 1852.638 1546.346 1868.475 C 1490.123 1905.047,1391.055 1946.391,1322.000 1962.101 C 1279.345 1971.805,1156.384 1974.326,1105.446 1966.542 C 1032.144 1955.339,920.115 1911.707,853.657 1868.477 L 829.315 1852.642 826.662 1663.321 C 825.203 1559.194,824.007 1360.150,824.005 1221.000 L 824.000 968.000 1074.000 968.000 L 1324.000 968.000 1324.000 1094.000 M888.000 1154.000 L 888.000 1280.000 904.000 1280.000 L 920.000 1280.000 920.000 1154.000 L 920.000 1028.000 904.000 1028.000 L 888.000 1028.000 888.000 1154.000 M952.062 1035.883 C 949.373 1040.908,948.234 1075.356,948.922 1130.883 L 950.000 1218.000 965.000 1219.241 L 980.000 1220.483 980.000 1124.241 L 980.000 1028.000 968.141 1028.000 C 960.434 1028.000,954.804 1030.760,952.062 1035.883 M1012.000 1124.168 L 1012.000 1220.337 1043.000 1219.168 L 1074.000 1218.000 1075.072 1123.000 L 1076.145 1028.000 1044.072 1028.000 L 1012.000 1028.000 1012.000 1124.168 M1108.062 1035.883 C 1105.373 1040.908,1104.234 1075.356,1104.922 1130.883 L 1106.000 1218.000 1121.000 1219.241 L 1136.000 1220.483 1136.000 1124.241 L 1136.000 1028.000 1124.141 1028.000 C 1116.434 1028.000,1110.804 1030.760,1108.062 1035.883 M1168.928 1123.000 L 1170.000 1218.000 1185.000 1219.241 L 1200.000 1220.483 1200.000 1124.241 L 1200.000 1028.000 1183.928 1028.000 L 1167.855 1028.000 1168.928 1123.000 M1232.000 1154.000 L 1232.000 1280.000 1248.000 1280.000 L 1264.000 1280.000 1264.000 1164.260 C 1264.000 1098.739,1262.307 1044.069,1260.099 1038.260 C 1257.098 1030.368,1253.406 1028.000,1244.099 1028.000 L 1232.000 1028.000 1232.000 1154.000 M888.000 1440.000 L 888.000 1472.000 1200.000 1472.000 L 1512.000 1472.000 1512.000 1440.000 L 1512.000 1408.000 1200.000 1408.000 L 888.000 1408.000 888.000 1440.000 M888.000 1564.000 L 888.000 1596.000 1200.000 1596.000 L 1512.000 1596.000 1512.000 1564.000 L 1512.000 1532.000 1200.000 1532.000 L 888.000 1532.000 888.000 1564.000 M888.000 1692.030 L 888.000 1724.061 1137.000 1723.030 L 1386.000 1722.000 1387.168 1691.000 L 1388.337 1660.000 1138.168 1660.000 L 888.000 1660.000 888.000 1692.030 " fill="#1D1E23" stroke="none" fill-rule="evenodd"/></svg>