<svg viewBox="0 0 2400 2400" fill="none" xmlns="http://www.w3.org/2000/svg"><path d="M825.413 493.858 L 794.222 587.716 546.020 588.858 L 297.819 590.000 270.737 603.335 C 251.265 612.924,239.212 622.293,227.840 636.680 C 197.861 674.606,199.785 623.392,200.953 1352.186 L 202.000 2006.000 210.549 2024.490 C 222.821 2051.029,245.284 2074.076,271.358 2086.881 L 294.000 2098.000 1200.000 2098.000 L 2106.000 2098.000 2128.642 2086.881 C 2154.716 2074.076,2177.179 2051.029,2189.451 2024.490 L 2198.000 2006.000 2199.047 1352.186 C 2200.215 623.392,2202.139 674.606,2172.160 636.680 C 2160.788 622.293,2148.735 612.924,2129.263 603.335 L 2102.181 590.000 1853.980 588.858 L 1605.778 587.716 1574.587 493.858 L 1543.396 400.000 1200.000 400.000 L 856.604 400.000 825.413 493.858 M1323.127 727.492 C 1557.587 777.606,1742.362 952.069,1802.381 1180.000 C 1844.679 1340.635,1823.012 1515.246,1743.558 1654.047 C 1720.481 1694.361,1676.125 1754.900,1654.364 1775.785 L 1640.000 1789.569 1640.000 1473.808 L 1640.000 1158.046 1513.023 1031.023 L 1386.047 904.000 1075.023 904.000 L 764.000 904.000 764.000 1348.812 L 764.000 1793.624 747.650 1777.812 C 723.912 1754.856,680.176 1695.509,656.442 1654.047 C 576.962 1515.201,554.842 1335.140,597.965 1178.025 C 666.226 929.319,873.145 751.273,1132.000 718.507 C 1166.916 714.087,1286.774 719.722,1323.127 727.492 M1324.000 1094.000 L 1324.000 1220.000 1450.024 1220.000 L 1576.048 1220.000 1575.024 1534.736 L 1574.000 1849.471 1546.000 1868.638 C 1487.726 1908.526,1395.940 1946.926,1323.803 1961.597 C 1243.923 1977.842,1156.077 1977.842,1076.197 1961.597 C 1004.060 1946.926,912.273 1908.526,854.000 1868.638 L 826.000 1849.471 824.982 1408.736 L 823.965 968.000 1073.982 968.000 L 1324.000 968.000 1324.000 1094.000 M888.000 1154.000 L 888.000 1280.000 904.000 1280.000 L 920.000 1280.000 920.000 1154.000 L 920.000 1028.000 904.000 1028.000 L 888.000 1028.000 888.000 1154.000 M949.796 1033.091 C 948.721 1035.890,948.328 1078.640,948.921 1128.091 L 950.000 1218.000 965.000 1219.241 L 980.000 1220.483 980.000 1124.241 L 980.000 1028.000 965.874 1028.000 C 958.105 1028.000,950.870 1030.291,949.796 1033.091 M1012.000 1124.168 L 1012.000 1220.337 1043.000 1219.168 L 1074.000 1218.000 1075.072 1123.000 L 1076.145 1028.000 1044.072 1028.000 L 1012.000 1028.000 1012.000 1124.168 M1105.796 1033.091 C 1104.721 1035.890,1104.328 1078.640,1104.921 1128.091 L 1106.000 1218.000 1121.000 1219.241 L 1136.000 1220.483 1136.000 1124.241 L 1136.000 1028.000 1121.874 1028.000 C 1114.105 1028.000,1106.870 1030.291,1105.796 1033.091 M1168.928 1123.000 L 1170.000 1218.000 1185.000 1219.241 L 1200.000 1220.483 1200.000 1124.241 L 1200.000 1028.000 1183.928 1028.000 L 1167.855 1028.000 1168.928 1123.000 M1232.000 1153.759 L 1232.000 1280.000 1248.057 1280.000 L 1264.114 1280.000 1263.057 1155.000 L 1262.000 1030.000 1247.000 1028.759 L 1232.000 1027.517 1232.000 1153.759 M888.000 1440.000 L 888.000 1472.000 1200.000 1472.000 L 1512.000 1472.000 1512.000 1440.000 L 1512.000 1408.000 1200.000 1408.000 L 888.000 1408.000 888.000 1440.000 M888.000 1564.000 L 888.000 1596.000 1200.000 1596.000 L 1512.000 1596.000 1512.000 1564.000 L 1512.000 1532.000 1200.000 1532.000 L 888.000 1532.000 888.000 1564.000 M888.000 1692.030 L 888.000 1724.061 1137.000 1723.030 L 1386.000 1722.000 1387.168 1691.000 L 1388.337 1660.000 1138.168 1660.000 L 888.000 1660.000 888.000 1692.030 " fill="#1D1E23" stroke="none" fill-rule="evenodd"/></svg>