<svg viewBox="0 0 2400 2400" fill="none" xmlns="http://www.w3.org/2000/svg"><path d="M1090.000 248.571 C 873.526 362.598,695.130 436.623,488.000 498.369 C 345.947 540.716,336.458 544.106,322.121 557.626 C 314.851 564.483,306.909 577.272,304.474 586.047 C 299.304 604.667,298.805 1066.677,303.726 1278.000 L 306.800 1410.000 319.770 1450.000 C 381.471 1640.288,540.410 1818.387,806.000 1994.845 C 913.136 2066.026,1041.958 2139.383,1135.617 2182.545 L 1177.234 2201.724 1250.557 2164.363 C 1707.559 1931.504,1982.911 1669.710,2038.361 1415.351 C 2046.299 1378.938,2051.423 1151.685,2051.766 820.867 L 2052.000 595.734 2042.150 576.297 C 2029.823 551.970,2020.176 547.123,1930.000 519.941 C 1643.983 433.729,1489.938 371.011,1248.428 242.447 C 1208.705 221.301,1175.709 204.073,1175.103 204.162 C 1174.496 204.251,1136.200 224.235,1090.000 248.571 M998.810 635.290 C 1011.565 655.989,1023.968 673.701,1026.374 674.650 C 1028.779 675.599,1044.079 672.459,1060.374 667.673 C 1106.258 654.196,1215.429 652.077,1271.781 663.570 C 1294.514 668.207,1316.348 672.000,1320.301 672.000 C 1325.040 672.000,1337.198 657.108,1355.995 628.282 C 1402.152 557.495,1407.474 558.489,1374.000 631.646 C 1361.900 658.090,1352.000 681.511,1352.000 683.691 C 1352.000 685.872,1369.284 702.556,1390.408 720.766 C 1466.619 786.463,1508.368 859.605,1518.400 945.000 L 1521.101 968.000 1174.175 968.000 L 827.249 968.000 829.899 947.000 C 834.740 908.637,844.013 878.379,862.078 842.000 C 887.422 790.966,913.663 758.253,959.833 720.138 C 981.925 701.900,1000.000 686.675,1000.000 686.303 C 1000.000 685.932,990.100 664.114,978.000 637.819 C 953.850 585.337,949.219 565.351,965.954 585.828 C 971.271 592.333,986.056 614.591,998.810 635.290 M1000.307 794.356 C 993.538 800.051,988.000 807.814,988.000 811.607 C 988.000 820.073,1008.124 840.000,1016.673 840.000 C 1025.075 840.000,1044.000 820.609,1044.000 812.000 C 1044.000 803.956,1025.299 784.000,1017.761 784.000 C 1014.930 784.000,1007.076 788.660,1000.307 794.356 M1317.000 794.334 C 1309.850 799.969,1304.000 807.011,1304.000 809.982 C 1304.000 816.860,1326.943 840.000,1333.762 840.000 C 1341.300 840.000,1360.000 820.044,1360.000 812.000 C 1360.000 804.314,1341.415 783.975,1334.455 784.044 C 1332.005 784.069,1324.150 788.699,1317.000 794.334 M1666.000 994.687 C 1674.800 1000.373,1686.050 1008.708,1691.000 1013.210 L 1700.000 1021.395 1699.646 1155.697 C 1699.452 1229.564,1698.100 1318.252,1696.643 1352.782 L 1693.993 1415.563 1680.152 1429.843 C 1671.781 1438.480,1658.339 1446.636,1646.141 1450.482 C 1619.067 1459.016,1598.835 1453.488,1573.631 1430.668 L 1554.644 1413.479 1554.518 1241.739 C 1554.378 1050.108,1556.722 1022.034,1574.406 1003.576 C 1597.956 978.996,1635.998 975.304,1666.000 994.687 M746.820 990.085 C 754.830 993.432,769.172 1002.552,778.692 1010.353 L 796.000 1024.536 796.000 1109.618 C 796.000 1156.413,794.803 1243.907,793.340 1304.048 L 790.681 1413.395 772.340 1432.259 C 758.394 1446.603,750.025 1451.774,737.408 1453.844 C 714.458 1457.608,691.041 1449.685,669.763 1430.956 L 652.000 1415.320 652.326 1308.660 C 652.506 1249.997,653.919 1161.169,655.468 1111.264 C 658.640 1009.003,657.842 1011.571,692.000 993.759 C 713.217 982.695,726.933 981.776,746.820 990.085 M1519.831 1081.000 C 1519.498 1248.402,1512.412 1509.772,1507.772 1525.769 C 1498.564 1557.523,1473.239 1570.991,1415.619 1574.779 L 1381.238 1577.039 1378.654 1657.520 C 1374.769 1778.524,1369.467 1798.800,1337.772 1813.840 C 1305.473 1829.167,1258.085 1816.068,1243.390 1787.751 C 1234.644 1770.899,1228.157 1702.862,1228.063 1627.000 L 1228.000 1576.000 1176.767 1576.000 L 1125.534 1576.000 1121.476 1673.194 C 1117.674 1764.259,1116.816 1771.460,1107.861 1787.391 C 1102.605 1796.744,1091.944 1808.326,1084.170 1813.131 C 1056.122 1830.466,1003.652 1820.380,986.616 1794.378 C 977.151 1779.934,972.374 1740.880,969.385 1653.520 L 966.769 1577.039 932.384 1575.048 C 893.197 1572.778,868.663 1563.319,848.792 1542.817 L 836.269 1529.897 833.486 1262.948 L 830.703 996.000 1175.351 996.000 L 1520.000 996.000 1519.831 1081.000 " fill="#1D1E23" stroke="none" fill-rule="evenodd"/></svg>