<svg viewBox="0 0 2400 2400" fill="none" xmlns="http://www.w3.org/2000/svg"><path d="M1122.000 230.694 C 890.269 363.013,611.476 475.188,382.869 528.090 C 331.025 540.087,323.099 544.891,310.419 572.000 C 302.073 589.843,301.989 593.327,300.759 972.000 C 299.449 1375.321,299.725 1382.890,318.139 1448.426 C 382.595 1677.826,634.776 1918.960,1030.000 2129.103 C 1065.200 2147.819,1112.456 2171.549,1135.012 2181.836 L 1176.025 2200.541 1235.012 2172.061 C 1348.412 2117.310,1471.434 2046.639,1568.000 1980.772 C 1817.487 1810.600,1973.105 1635.451,2027.149 1464.000 C 2050.430 1390.144,2050.000 1399.209,2050.000 982.000 L 2050.000 598.000 2040.665 574.873 C 2035.531 562.153,2026.963 548.884,2021.627 545.388 C 2016.290 541.891,1983.591 532.185,1948.962 523.819 C 1722.440 469.096,1470.273 366.869,1234.000 233.978 C 1209.800 220.367,1186.400 207.379,1182.000 205.116 C 1175.377 201.710,1165.049 206.113,1122.000 230.694 M988.147 615.000 C 999.607 636.450,1012.491 659.820,1016.778 666.934 L 1024.571 679.869 1039.286 673.676 C 1063.555 663.461,1115.684 652.311,1151.984 649.571 C 1195.396 646.294,1248.108 653.180,1292.000 667.863 C 1310.700 674.118,1326.574 678.058,1327.277 676.618 C 1344.666 640.956,1383.754 577.772,1389.059 576.750 C 1403.892 573.894,1400.143 588.851,1374.379 635.317 C 1359.870 661.483,1348.000 684.627,1348.000 686.748 C 1348.000 688.868,1361.254 699.000,1377.453 709.262 C 1413.402 732.035,1457.503 777.612,1479.311 814.530 C 1500.927 851.123,1516.388 898.818,1519.013 937.000 L 1521.143 968.000 1174.572 968.000 L 828.000 968.000 828.000 954.352 C 828.000 930.372,839.185 881.214,851.084 852.891 C 867.079 814.824,889.049 782.563,919.819 751.962 C 941.819 730.083,988.452 695.183,1001.496 690.835 C 1003.494 690.169,993.175 667.888,978.564 641.323 C 950.726 590.705,946.469 576.000,959.655 576.000 C 965.246 576.000,972.926 586.512,988.147 615.000 M996.754 792.156 C 979.116 808.589,991.562 840.000,1015.713 840.000 C 1032.361 840.000,1044.405 828.562,1044.867 812.314 C 1045.578 787.325,1015.476 774.714,996.754 792.156 M1312.697 793.258 C 1301.414 805.268,1301.637 820.385,1313.258 831.303 C 1332.592 849.466,1361.333 837.523,1361.333 811.325 C 1361.333 786.613,1329.907 774.939,1312.697 793.258 M760.000 992.152 C 777.438 1000.867,785.966 1010.156,793.847 1029.018 C 799.071 1041.520,799.987 1070.181,799.912 1218.872 C 799.831 1380.797,799.266 1395.206,792.417 1410.000 C 773.967 1449.850,732.658 1466.410,693.018 1449.847 C 674.017 1441.908,664.930 1433.490,655.574 1415.159 C 648.473 1401.246,648.000 1389.050,648.000 1220.031 C 648.000 1077.658,649.137 1037.023,653.404 1026.809 C 659.706 1011.726,684.200 988.957,697.073 986.214 C 718.219 981.708,722.627 981.348,734.000 983.200 C 740.600 984.275,752.300 988.303,760.000 992.152 M1664.155 988.079 C 1672.865 992.522,1684.943 1003.638,1690.996 1012.781 L 1702.000 1029.404 1703.160 1209.702 C 1704.470 1413.316,1704.554 1412.631,1675.160 1437.791 C 1639.301 1468.485,1584.354 1458.891,1561.127 1417.882 C 1552.161 1402.052,1552.131 1401.396,1552.066 1216.801 C 1551.994 1015.723,1551.456 1020.900,1574.643 999.535 C 1592.251 983.311,1600.209 980.253,1625.159 980.122 C 1640.699 980.040,1653.529 982.658,1664.155 988.079 M1519.912 1253.000 C 1519.814 1539.643,1521.026 1526.612,1491.814 1555.030 C 1474.827 1571.555,1458.712 1575.950,1415.000 1575.978 L 1380.000 1576.000 1380.000 1670.737 C 1380.000 1759.103,1379.429 1766.653,1371.515 1783.001 C 1347.187 1833.256,1273.815 1837.888,1241.447 1791.212 L 1230.000 1774.706 1228.804 1675.353 L 1227.609 1576.000 1176.062 1576.000 L 1124.515 1576.000 1123.258 1673.000 C 1122.004 1769.711,1121.968 1770.054,1111.392 1788.043 C 1081.871 1838.256,1008.188 1838.204,980.050 1787.950 C 970.203 1770.363,969.975 1768.039,968.742 1673.000 L 967.485 1576.000 931.614 1576.000 C 880.266 1576.000,856.722 1564.525,839.611 1531.159 C 832.360 1517.020,832.000 1504.017,832.000 1256.159 L 832.000 996.000 1176.000 996.000 L 1520.000 996.000 1519.912 1253.000 " fill="#1D1E23" stroke="none" fill-rule="evenodd"/></svg>