<svg viewBox="0 0 2400 2400" fill="none" xmlns="http://www.w3.org/2000/svg"><path d="M1114.442 204.135 C 1019.135 212.574,915.424 238.176,818.000 277.314 L 766.000 298.204 766.324 412.102 C 766.624 517.575,767.311 528.315,775.618 557.302 C 785.283 591.031,810.831 654.805,815.943 657.965 C 817.665 659.029,833.232 648.935,850.537 635.535 C 956.964 553.119,1065.387 516.047,1200.000 516.047 C 1334.644 516.047,1443.031 553.115,1549.528 635.585 C 1566.869 649.013,1581.689 660.000,1582.461 660.000 C 1583.233 660.000,1588.168 651.450,1593.427 641.000 C 1608.173 611.698,1623.585 562.164,1630.384 522.219 C 1636.989 483.418,1642.882 328.026,1638.422 310.258 C 1636.309 301.837,1629.987 296.956,1608.867 287.436 C 1566.169 268.190,1472.330 237.365,1423.159 226.433 C 1337.104 207.300,1194.782 197.020,1114.442 204.135 M600.000 400.630 C 561.351 429.341,477.326 509.494,432.931 560.000 C 374.611 626.347,310.685 732.504,274.001 823.927 C 216.935 966.140,193.744 1111.546,203.346 1266.930 C 211.557 1399.828,250.297 1539.496,312.575 1660.739 C 376.020 1784.254,483.927 1911.046,601.979 2000.793 L 633.958 2025.104 636.692 2013.552 C 638.195 2007.198,641.206 1966.000,643.381 1922.000 C 647.735 1833.957,653.194 1806.066,678.469 1742.737 C 686.533 1722.531,701.929 1690.361,712.681 1671.247 L 732.231 1636.495 720.105 1616.788 C 691.674 1570.582,662.688 1496.169,649.320 1435.073 C 642.871 1405.596,642.084 1380.035,642.084 1200.000 C 642.084 1019.965,642.871 994.404,649.320 964.927 C 662.688 903.831,691.674 829.418,720.105 783.212 L 732.231 763.505 712.681 728.753 C 701.929 709.639,686.533 677.469,678.469 657.263 C 653.194 593.934,647.735 566.043,643.381 478.000 C 641.206 434.000,638.205 392.909,636.713 386.686 L 634.000 375.372 600.000 400.630 M1762.566 438.064 C 1757.554 554.310,1739.275 628.138,1694.011 714.965 L 1668.485 763.930 1686.257 794.965 C 1707.709 832.425,1733.109 895.945,1747.381 947.820 L 1757.885 986.000 1757.885 1200.000 L 1757.885 1414.000 1747.381 1452.180 C 1733.069 1504.201,1707.693 1567.602,1686.070 1605.363 L 1668.111 1636.725 1688.071 1672.904 C 1738.233 1763.830,1755.747 1833.186,1762.378 1967.160 C 1763.926 1998.422,1765.930 2024.000,1766.832 2024.000 C 1773.858 2024.000,1844.045 1964.644,1889.544 1920.225 C 1956.422 1854.934,1993.148 1811.779,2033.239 1751.375 C 2150.423 1574.819,2207.045 1369.481,2197.968 1154.000 C 2195.015 1083.913,2188.322 1036.702,2171.766 969.196 C 2135.092 819.662,2070.897 688.279,1978.427 573.507 C 1942.762 529.240,1867.300 454.436,1819.609 416.076 C 1759.907 368.053,1765.681 365.827,1762.566 438.064 M1133.207 644.242 C 1094.082 649.336,1061.201 659.516,1017.254 680.142 C 972.881 700.968,949.431 715.673,916.774 743.147 L 895.549 761.004 904.774 770.997 C 922.009 789.666,964.273 819.331,999.194 837.271 C 1050.342 863.546,1105.425 879.889,1156.950 884.077 C 1246.920 891.390,1324.412 876.516,1400.806 837.271 C 1435.727 819.331,1477.991 789.666,1495.226 770.997 L 1504.451 761.004 1483.226 743.147 C 1386.708 661.946,1263.861 627.233,1133.207 644.242 M803.932 889.000 C 788.696 924.342,776.391 963.563,770.048 997.001 C 765.202 1022.548,764.000 1065.351,764.000 1212.394 L 764.000 1395.904 776.408 1434.952 C 793.855 1489.862,811.847 1532.000,817.845 1532.000 C 820.649 1532.000,836.749 1521.331,853.623 1508.292 C 913.738 1461.836,984.633 1426.806,1062.693 1404.987 C 1100.666 1394.373,1105.327 1394.000,1200.000 1394.000 C 1294.673 1394.000,1299.334 1394.373,1337.307 1404.987 C 1415.367 1426.806,1486.262 1461.836,1546.377 1508.292 C 1563.251 1521.331,1579.230 1532.000,1581.886 1532.000 C 1591.377 1532.000,1621.172 1451.057,1630.984 1398.619 C 1641.089 1344.617,1641.089 1055.383,1630.984 1001.381 C 1621.444 950.394,1591.390 867.973,1582.358 868.025 C 1579.961 868.039,1560.000 881.610,1538.000 898.182 C 1473.826 946.524,1378.415 989.094,1300.000 1004.372 C 1260.246 1012.117,1129.700 1010.864,1090.663 1002.362 C 1013.100 985.470,924.246 944.972,862.000 898.143 C 840.000 881.592,819.972 868.039,817.493 868.025 C 815.013 868.011,808.911 877.450,803.932 889.000 M1153.111 1516.079 C 1112.467 1520.250,1067.805 1532.274,1026.538 1550.156 C 991.801 1565.209,924.363 1608.551,906.661 1627.199 L 895.323 1639.145 920.661 1660.248 C 986.873 1715.393,1062.704 1747.593,1156.000 1760.179 C 1220.294 1768.853,1304.515 1755.297,1374.527 1725.004 C 1415.683 1707.197,1443.892 1689.770,1479.314 1660.268 L 1504.629 1639.185 1495.314 1629.218 C 1468.321 1600.334,1400.136 1559.717,1342.000 1537.891 C 1290.817 1518.675,1214.119 1509.819,1153.111 1516.079 M806.627 1758.852 C 801.315 1769.383,790.194 1798.700,781.914 1824.000 L 766.860 1870.000 766.430 1985.756 L 766.000 2101.512 801.185 2116.726 C 872.877 2147.727,970.809 2175.785,1058.245 2190.378 C 1088.427 2195.415,1123.524 2196.989,1204.000 2196.911 C 1300.910 2196.818,1314.631 2195.928,1364.000 2186.530 C 1476.228 2165.166,1614.806 2118.810,1632.369 2096.756 C 1640.690 2086.308,1640.873 2083.540,1638.767 2000.000 C 1636.406 1906.389,1630.199 1859.466,1613.604 1809.781 C 1600.241 1769.775,1584.885 1738.981,1579.849 1742.093 C 1577.722 1743.408,1560.831 1755.910,1542.313 1769.877 C 1433.626 1851.851,1302.035 1893.620,1174.074 1886.763 C 1054.664 1880.363,946.410 1839.453,850.000 1764.293 C 815.182 1737.149,817.431 1737.431,806.627 1758.852 " fill="#1D1E23" stroke="none" fill-rule="evenodd"/></svg>