<svg viewBox="0 0 2400 2400" fill="none" xmlns="http://www.w3.org/2000/svg"><path d="M1068.000 209.636 C 971.386 224.586,876.527 252.059,778.359 293.521 L 762.717 300.128 765.385 415.940 C 767.906 525.407,768.621 533.568,778.425 564.877 C 793.451 612.863,811.997 656.000,817.602 656.000 C 820.272 656.000,841.254 642.510,864.228 626.022 C 938.891 572.438,1012.414 539.967,1092.156 525.357 C 1144.201 515.822,1255.799 515.822,1307.844 525.357 C 1387.142 539.886,1463.235 573.353,1532.000 623.944 C 1588.577 665.568,1582.430 664.570,1596.129 634.358 C 1625.447 569.698,1635.258 514.691,1638.794 395.160 C 1640.756 328.836,1640.172 311.026,1635.862 305.833 C 1626.954 295.100,1589.156 278.000,1530.991 258.388 C 1414.432 219.089,1345.171 208.034,1202.000 205.880 C 1132.302 204.831,1091.697 205.969,1068.000 209.636 M595.903 404.438 C 548.062 441.328,436.858 551.883,405.229 594.000 C 212.473 850.673,151.638 1182.233,242.187 1482.596 C 292.106 1648.185,364.565 1770.925,485.913 1895.451 C 530.022 1940.716,625.409 2024.000,633.141 2024.000 C 636.694 2024.000,639.507 1997.487,644.178 1920.000 C 646.499 1881.500,651.165 1836.500,654.548 1820.000 C 662.611 1780.669,683.229 1727.721,710.102 1677.337 L 731.789 1636.675 714.082 1605.337 C 692.971 1567.978,668.100 1506.406,655.283 1459.775 C 646.080 1426.292,646.000 1424.043,646.000 1200.000 C 646.000 975.957,646.080 973.708,655.283 940.225 C 668.100 893.594,692.971 832.022,714.082 794.663 L 731.789 763.325 710.102 722.663 C 683.221 672.262,662.628 619.373,654.481 579.805 C 651.061 563.198,646.265 515.498,643.823 473.805 C 641.382 432.112,638.129 392.873,636.595 386.606 L 633.805 375.212 595.903 404.438 M1766.206 389.000 C 1765.357 391.750,1762.646 423.700,1760.182 460.000 C 1752.715 569.999,1736.446 631.256,1691.477 718.689 L 1668.298 763.758 1682.530 788.879 C 1703.183 825.332,1730.309 890.562,1744.051 936.818 L 1756.000 977.040 1756.000 1200.000 L 1756.000 1422.960 1744.051 1463.182 C 1730.290 1509.503,1703.177 1574.679,1682.449 1611.266 L 1668.134 1636.531 1689.794 1677.266 C 1739.002 1769.806,1754.563 1832.869,1762.293 1971.085 C 1763.803 1998.081,1766.354 2020.983,1767.962 2021.977 C 1773.463 2025.376,1849.951 1958.870,1910.075 1898.411 C 1974.962 1833.160,2012.906 1785.553,2054.330 1717.418 C 2172.478 1523.085,2221.794 1283.514,2189.658 1060.000 C 2182.214 1008.220,2156.861 908.917,2137.805 856.897 C 2116.835 799.654,2064.670 695.764,2033.919 650.000 C 2019.136 628.000,1993.947 593.800,1977.943 574.000 C 1926.874 510.817,1790.509 384.000,1773.637 384.000 C 1770.399 384.000,1767.054 386.250,1766.206 389.000 M1134.000 644.512 C 1069.999 652.513,984.879 689.740,928.312 734.469 L 895.122 760.714 908.561 774.690 C 941.737 809.194,1019.540 851.788,1082.964 870.167 C 1217.269 909.087,1382.380 872.369,1483.778 781.033 L 1505.556 761.416 1483.778 744.189 C 1430.391 701.959,1395.242 682.294,1340.162 663.841 C 1276.851 642.629,1203.827 635.783,1134.000 644.512 M810.449 876.873 C 801.851 890.167,788.793 924.891,776.932 966.000 L 766.546 1002.000 765.003 1199.175 L 763.460 1396.351 774.282 1429.175 C 790.339 1477.876,807.840 1521.267,813.954 1527.533 C 818.528 1532.222,825.966 1528.345,862.676 1502.138 C 913.595 1465.789,982.658 1430.647,1040.602 1411.605 L 1082.000 1398.000 1200.000 1398.000 L 1318.000 1398.000 1359.398 1411.605 C 1417.271 1430.624,1486.389 1465.777,1537.121 1501.994 C 1571.687 1526.670,1581.362 1531.849,1585.883 1528.097 C 1593.277 1521.961,1613.827 1467.806,1624.383 1426.642 C 1645.968 1342.469,1644.820 1046.866,1622.599 967.267 C 1610.302 923.213,1593.018 877.824,1586.471 872.391 C 1582.735 869.290,1570.156 875.952,1538.180 897.968 C 1467.178 946.852,1398.873 978.965,1325.167 998.116 C 1290.582 1007.102,1279.515 1008.000,1203.393 1008.000 C 1108.668 1008.000,1081.254 1003.987,1020.000 981.156 C 965.277 960.759,916.040 935.197,868.000 902.243 C 844.900 886.398,823.829 872.153,821.176 870.589 C 818.341 868.918,813.917 871.510,810.449 876.873 M1116.197 1521.983 C 1077.931 1530.647,1041.830 1542.970,1014.392 1556.735 C 983.469 1572.249,930.411 1606.616,910.800 1623.834 C 896.298 1636.567,895.992 1637.361,902.706 1644.780 C 912.330 1655.415,957.714 1688.628,982.484 1703.163 C 1013.483 1721.354,1071.563 1743.396,1110.866 1751.885 C 1162.507 1763.038,1197.528 1765.379,1238.390 1760.410 C 1332.936 1748.913,1413.061 1715.389,1480.872 1658.956 L 1504.677 1639.145 1493.339 1627.241 C 1461.845 1594.177,1364.557 1542.037,1307.663 1527.731 C 1263.016 1516.505,1154.749 1513.254,1116.197 1521.983 M803.920 1765.000 C 798.935 1776.550,788.944 1803.513,781.720 1824.917 L 768.585 1863.835 765.702 1981.820 L 762.819 2099.805 790.410 2112.188 C 855.757 2141.516,977.543 2177.112,1056.000 2189.815 C 1109.350 2198.453,1296.678 2198.473,1346.476 2189.846 C 1462.100 2169.815,1623.473 2115.407,1635.849 2092.281 C 1645.843 2073.609,1637.728 1907.460,1623.976 1849.170 C 1614.565 1809.277,1593.909 1754.564,1585.683 1747.737 C 1580.750 1743.643,1577.353 1744.462,1566.833 1752.285 C 1473.766 1821.483,1400.744 1856.433,1306.754 1876.764 C 1249.200 1889.214,1151.646 1889.171,1093.246 1876.672 C 1009.468 1858.740,934.094 1825.011,862.978 1773.628 C 840.440 1757.344,819.972 1744.017,817.493 1744.011 C 815.013 1744.005,808.906 1753.450,803.920 1765.000 " fill="#1D1E23" stroke="none" fill-rule="evenodd"/></svg>