<svg viewBox="0 0 2400 2400" fill="none" xmlns="http://www.w3.org/2000/svg"><path d="M200.000 638.000 L 200.000 1076.000 213.487 1076.000 C 235.731 1076.000,302.432 1057.306,327.015 1044.182 C 339.657 1037.433,361.700 1022.906,376.000 1011.900 C 456.399 950.020,472.666 938.531,500.000 924.322 C 548.628 899.043,570.036 894.215,634.000 894.100 C 697.977 893.986,719.362 898.148,766.000 919.791 C 824.787 947.072,880.755 1000.370,913.234 1060.000 C 936.671 1103.031,941.190 1125.318,941.620 1200.000 C 942.053 1275.254,939.775 1285.307,908.532 1346.000 C 893.610 1374.987,882.924 1389.013,853.677 1418.000 C 812.134 1459.172,785.910 1476.168,739.045 1492.290 C 655.651 1520.978,576.898 1516.748,503.282 1479.625 C 490.787 1473.325,452.987 1447.367,419.282 1421.942 C 332.966 1356.831,294.667 1338.853,215.000 1326.048 L 200.000 1323.637 200.000 1761.819 L 200.000 2200.000 638.000 2200.000 L 1076.000 2200.000 1075.990 2185.000 C 1075.974 2161.141,1056.904 2096.386,1042.097 2069.907 C 1034.635 2056.564,1013.912 2026.826,996.046 2003.823 C 948.843 1943.046,921.198 1900.136,909.888 1870.088 C 886.817 1808.793,887.039 1704.195,910.351 1651.637 C 936.239 1593.272,972.530 1545.910,1015.576 1514.311 C 1044.275 1493.244,1094.882 1469.658,1126.790 1462.478 C 1163.422 1454.235,1240.966 1453.988,1274.970 1462.006 C 1366.785 1483.654,1448.548 1555.223,1489.120 1649.457 C 1501.035 1677.132,1501.459 1680.203,1503.076 1750.450 C 1505.624 1861.116,1500.787 1874.079,1413.599 1990.240 C 1385.627 2027.508,1358.401 2067.779,1353.097 2079.731 C 1341.059 2106.861,1324.024 2169.683,1324.010 2187.000 L 1324.000 2200.000 1762.000 2200.000 L 2200.000 2200.000 2200.000 1761.625 L 2200.000 1323.249 2179.000 1325.899 C 2104.807 1335.260,2066.584 1354.242,1970.026 1429.678 C 1900.735 1483.811,1852.465 1504.790,1784.168 1510.453 C 1712.044 1516.435,1622.903 1487.212,1564.547 1438.457 C 1533.301 1412.352,1507.827 1378.507,1485.924 1334.000 C 1459.871 1281.058,1456.150 1265.959,1456.349 1214.000 C 1456.650 1136.008,1460.906 1111.440,1481.165 1070.763 C 1526.139 980.460,1610.193 913.424,1697.547 898.191 C 1803.093 879.785,1887.630 903.302,1978.000 976.209 C 2040.611 1026.721,2073.414 1046.786,2115.355 1060.226 C 2135.901 1066.810,2163.351 1073.309,2176.355 1074.668 L 2200.000 1077.140 2200.000 638.570 L 2200.000 200.000 1762.000 200.000 L 1324.000 200.000 1324.000 211.738 C 1324.000 229.204,1334.408 275.422,1344.399 302.321 C 1355.434 332.033,1370.362 355.379,1410.692 406.000 C 1463.323 472.062,1484.272 507.385,1498.593 554.209 C 1507.442 583.144,1508.456 672.635,1500.358 710.000 C 1481.282 798.018,1397.907 894.375,1312.900 926.646 C 1197.421 970.484,1067.157 943.415,981.258 857.728 C 955.524 832.058,924.768 785.444,909.756 749.358 C 898.862 723.173,898.308 718.726,896.829 645.633 C 895.348 572.480,895.703 568.058,905.257 540.585 C 917.921 504.171,941.270 466.773,991.984 401.677 C 1014.127 373.255,1037.706 338.698,1044.382 324.883 C 1057.187 298.387,1076.000 230.914,1076.000 211.487 L 1076.000 200.000 638.000 200.000 L 200.000 200.000 200.000 638.000 " fill="#1D1E23" stroke="none" fill-rule="evenodd"/></svg>