<svg viewBox="0 0 2400 2400" fill="none" xmlns="http://www.w3.org/2000/svg"><path d="M200.000 638.552 L 200.000 1077.105 225.320 1074.511 C 291.603 1067.720,346.483 1043.078,396.453 997.671 C 447.744 951.063,459.563 942.025,492.000 924.604 C 586.488 873.858,703.129 876.812,797.223 932.334 C 831.694 952.674,884.559 1004.720,903.418 1036.885 C 934.264 1089.491,947.821 1139.541,947.931 1201.210 C 948.024 1253.751,939.490 1289.680,914.966 1340.000 C 896.812 1377.250,890.172 1386.297,856.249 1420.000 C 812.961 1463.006,776.302 1485.048,722.000 1500.719 C 676.169 1513.945,595.447 1513.812,552.000 1500.438 C 502.749 1485.278,465.358 1463.297,418.418 1421.910 C 367.133 1376.691,351.052 1365.500,314.000 1349.242 C 285.674 1336.813,259.246 1330.349,221.000 1326.494 L 200.000 1324.377 200.000 1762.188 L 200.000 2200.000 638.517 2200.000 L 1077.034 2200.000 1074.222 2171.467 C 1067.526 2103.508,1043.518 2054.532,984.443 1988.316 C 936.718 1934.822,913.903 1896.690,899.292 1846.000 C 887.357 1804.590,886.487 1724.444,897.537 1684.231 C 921.921 1595.492,981.732 1522.590,1061.868 1483.936 C 1117.049 1457.319,1151.435 1450.411,1215.500 1453.072 C 1252.606 1454.614,1272.896 1457.501,1292.000 1463.960 C 1395.835 1499.062,1471.807 1577.211,1500.818 1678.763 C 1512.445 1719.464,1513.333 1800.125,1502.592 1840.000 C 1488.949 1890.649,1463.719 1934.113,1418.017 1985.697 C 1371.854 2037.802,1356.644 2061.312,1342.019 2103.173 C 1332.770 2129.647,1324.094 2172.004,1324.030 2191.000 L 1324.000 2200.000 1762.000 2200.000 L 2200.000 2200.000 2200.000 1761.801 L 2200.000 1323.603 2175.000 1326.136 C 2100.775 1333.659,2055.637 1355.307,1987.651 1415.990 C 1913.862 1481.851,1860.600 1505.900,1777.836 1510.723 C 1628.425 1519.430,1497.210 1421.034,1459.531 1272.031 C 1448.195 1227.206,1450.319 1148.211,1463.941 1108.000 C 1482.243 1053.975,1503.120 1020.523,1543.828 980.000 C 1587.060 936.962,1623.714 914.922,1678.000 899.318 C 1723.731 886.173,1800.269 886.173,1846.000 899.318 C 1893.245 912.898,1935.439 937.171,1977.363 974.889 C 2024.939 1017.692,2055.665 1039.094,2089.067 1052.695 C 2115.032 1063.268,2170.414 1076.000,2190.442 1076.000 L 2200.000 1076.000 2200.000 638.000 L 2200.000 200.000 1761.483 200.000 L 1322.966 200.000 1325.778 228.533 C 1331.969 291.363,1357.507 347.137,1403.011 397.207 C 1448.874 447.672,1458.026 459.658,1475.396 492.000 C 1515.536 566.739,1522.520 659.541,1494.146 741.130 C 1479.024 784.614,1454.165 822.654,1416.395 860.107 C 1378.751 897.436,1340.759 920.230,1290.554 935.608 C 1123.486 986.782,947.367 890.308,899.208 721.237 C 886.300 675.921,886.339 598.943,899.292 554.000 C 913.550 504.534,936.886 465.026,981.930 414.091 C 1027.669 362.371,1043.684 337.748,1057.726 297.556 C 1067.193 270.461,1075.905 228.168,1075.970 209.000 L 1076.000 200.000 638.000 200.000 L 200.000 200.000 200.000 638.552 " fill="#1D1E23" stroke="none" fill-rule="evenodd"/></svg>