<svg viewBox="0 0 2400 2400" fill="none" xmlns="http://www.w3.org/2000/svg"><path d="M200.000 638.570 L 200.000 1077.140 223.000 1074.686 C 255.465 1071.222,315.347 1051.544,340.607 1036.037 C 352.373 1028.814,380.000 1008.996,402.000 991.996 C 456.665 949.756,498.119 923.274,530.642 909.818 C 555.951 899.346,562.828 898.375,622.441 896.850 C 701.052 894.838,719.943 898.326,772.247 924.511 C 838.057 957.456,899.076 1022.275,926.997 1088.896 C 936.838 1112.377,937.625 1118.928,939.169 1190.218 C 940.758 1263.558,940.439 1267.532,930.733 1295.443 C 913.034 1346.337,890.124 1380.942,846.020 1423.401 C 801.343 1466.413,777.216 1480.524,718.000 1498.277 C 688.456 1507.134,673.751 1509.130,636.000 1509.404 C 557.434 1509.976,516.813 1493.800,422.000 1424.183 C 334.827 1360.176,286.378 1337.091,217.000 1326.500 L 200.000 1323.905 200.000 1761.953 L 200.000 2200.000 638.570 2200.000 L 1077.140 2200.000 1074.597 2175.670 C 1071.336 2144.472,1050.850 2083.187,1035.931 2060.000 C 1029.561 2050.100,1006.369 2017.815,984.393 1988.256 C 907.829 1885.274,894.384 1850.835,894.500 1758.000 C 894.577 1696.428,900.954 1667.775,924.151 1624.769 C 987.785 1506.796,1090.875 1449.568,1226.000 1457.206 C 1335.570 1463.400,1427.103 1526.809,1480.896 1633.785 C 1494.618 1661.075,1497.362 1670.975,1500.297 1703.785 C 1511.972 1834.320,1501.825 1870.930,1425.407 1974.000 C 1371.911 2046.153,1354.523 2073.947,1344.413 2103.461 C 1333.465 2135.425,1324.136 2174.627,1324.059 2189.000 L 1324.000 2200.000 1762.000 2200.000 L 2200.000 2200.000 2200.000 1761.625 L 2200.000 1323.249 2179.000 1325.960 C 2107.344 1335.210,2074.698 1351.326,1970.600 1428.843 C 1898.401 1482.606,1859.211 1500.689,1796.737 1509.066 C 1739.883 1516.690,1675.501 1502.929,1611.109 1469.389 C 1590.714 1458.766,1571.762 1444.015,1547.802 1420.114 C 1517.406 1389.792,1510.833 1380.442,1488.672 1336.000 C 1458.096 1274.683,1454.251 1255.859,1457.437 1183.111 C 1460.165 1120.818,1467.045 1094.729,1492.025 1051.958 C 1536.105 976.481,1606.071 921.563,1684.000 901.270 C 1719.897 891.923,1800.818 891.855,1836.000 901.144 C 1878.514 912.368,1930.329 940.854,1990.000 985.805 C 2020.800 1009.008,2058.170 1034.402,2073.045 1042.238 C 2100.082 1056.480,2166.843 1076.000,2188.513 1076.000 L 2200.000 1076.000 2200.000 638.000 L 2200.000 200.000 1762.000 200.000 L 1324.000 200.000 1324.000 213.487 C 1324.000 235.912,1342.738 302.512,1356.101 327.584 C 1363.006 340.538,1381.044 367.082,1396.186 386.569 C 1441.276 444.597,1477.616 500.198,1489.931 530.000 C 1500.698 556.054,1501.616 562.479,1503.150 622.441 C 1504.162 661.968,1503.030 695.403,1500.224 708.920 C 1494.755 735.266,1474.290 779.177,1452.584 811.140 C 1429.633 844.937,1374.164 895.770,1341.514 912.927 C 1235.679 968.542,1101.411 955.281,1007.538 879.943 C 977.580 855.900,958.741 833.945,934.330 794.627 C 901.050 741.025,899.191 732.985,898.558 640.000 C 898.012 559.718,898.222 557.474,908.582 532.885 C 923.329 497.883,939.206 472.723,989.348 404.901 C 1013.272 372.541,1036.964 337.938,1041.998 328.004 C 1053.915 304.487,1071.659 246.061,1074.712 220.287 L 1077.114 200.000 638.557 200.000 L 200.000 200.000 200.000 638.570 " fill="#1D1E23" stroke="none" fill-rule="evenodd"/></svg>