<svg viewBox="0 0 2400 2400" fill="none" xmlns="http://www.w3.org/2000/svg"><path d="M701.332 220.653 C 708.080 277.630,738.074 334.625,792.045 393.027 C 844.739 450.048,989.623 564.221,1000.894 557.607 C 1010.737 551.830,1135.339 455.616,1139.554 450.537 C 1142.805 446.621,1137.442 440.799,1116.906 425.949 C 1043.175 372.630,988.000 330.449,988.000 327.399 C 988.000 325.530,1084.750 324.065,1203.000 324.144 L 1418.000 324.288 1406.000 334.318 C 1399.400 339.835,1353.500 373.422,1304.000 408.956 C 1095.306 558.769,1006.582 628.893,935.783 699.981 C 821.674 814.554,748.643 935.315,715.641 1064.000 C 696.933 1136.946,697.980 1268.933,717.854 1342.840 C 744.012 1440.120,789.449 1527.995,858.061 1614.000 C 888.825 1652.562,951.517 1719.551,978.078 1742.243 L 1000.106 1761.062 1023.053 1745.846 C 1065.888 1717.442,1144.000 1659.579,1144.000 1656.251 C 1144.000 1654.430,1131.903 1641.478,1117.117 1627.470 C 1102.331 1613.461,1076.681 1588.979,1060.117 1573.064 L 1030.000 1544.127 1199.697 1544.064 L 1369.395 1544.000 1359.697 1554.484 C 1318.851 1598.643,1201.543 1692.245,1052.000 1800.000 C 905.563 1905.517,850.623 1948.985,801.990 1997.805 C 771.704 2028.208,748.410 2055.598,738.893 2072.000 C 721.708 2101.615,700.000 2165.271,700.000 2186.048 L 700.000 2200.000 1200.551 2200.000 L 1701.101 2200.000 1698.519 2178.029 C 1697.099 2165.944,1690.662 2141.603,1684.214 2123.936 C 1656.484 2047.953,1596.610 1983.154,1458.943 1880.133 L 1403.885 1838.932 1358.943 1873.151 C 1334.224 1891.972,1301.521 1917.723,1286.270 1930.376 L 1258.539 1953.381 1273.823 1966.593 C 1282.229 1973.859,1313.608 1997.783,1343.553 2019.757 C 1373.499 2041.731,1402.500 2063.335,1408.000 2067.766 L 1418.000 2075.822 1200.143 2075.911 C 1012.601 2075.988,983.101 2075.215,988.143 2070.362 C 991.364 2067.261,1047.100 2026.483,1112.000 1979.744 C 1248.410 1881.506,1322.459 1825.733,1376.000 1780.901 C 1424.766 1740.069,1505.735 1659.054,1538.811 1618.000 C 1616.449 1521.634,1667.810 1417.155,1689.648 1311.169 C 1698.462 1268.386,1698.502 1131.932,1689.712 1088.831 C 1668.282 983.746,1616.231 878.856,1536.677 780.440 C 1498.206 732.848,1409.353 644.000,1400.229 644.000 C 1393.377 644.000,1337.621 680.798,1280.266 723.174 L 1250.531 745.143 1280.266 771.477 C 1296.620 785.961,1323.500 810.875,1340.000 826.842 L 1370.000 855.873 1200.000 855.820 L 1030.000 855.767 1062.161 824.568 C 1105.508 782.516,1190.276 715.440,1308.190 629.887 C 1361.985 590.855,1426.700 543.564,1452.000 524.796 C 1557.172 446.777,1624.205 384.771,1655.105 336.921 C 1674.260 307.259,1694.934 252.474,1698.535 221.833 L 1701.101 200.000 1199.994 200.000 L 698.886 200.000 701.332 220.653 M1480.909 1005.000 C 1488.412 1018.750,1495.721 1033.150,1497.150 1037.000 C 1499.611 1043.628,1483.790 1044.000,1199.830 1044.000 L 899.911 1044.000 916.000 1012.000 L 932.089 980.000 1199.678 980.000 L 1467.266 980.000 1480.909 1005.000 M1532.000 1200.000 L 1532.000 1232.000 1200.000 1232.000 L 868.000 1232.000 868.000 1200.000 L 868.000 1168.000 1200.000 1168.000 L 1532.000 1168.000 1532.000 1200.000 M1497.150 1363.000 C 1495.721 1366.850,1488.412 1381.250,1480.909 1395.000 L 1467.266 1420.000 1199.678 1420.000 L 932.089 1420.000 916.000 1388.000 L 899.911 1356.000 1199.830 1356.000 C 1483.790 1356.000,1499.611 1356.372,1497.150 1363.000 " fill="#1D1E23" stroke="none" fill-rule="evenodd"/></svg>