<svg viewBox="0 0 2400 2400" fill="none" xmlns="http://www.w3.org/2000/svg"><path d="M396.523 206.164 C 345.510 217.233,287.221 253.084,255.637 292.816 C 233.567 320.580,213.398 363.407,206.046 398.115 C 197.193 439.909,197.147 1959.699,205.997 2002.000 C 221.089 2074.127,271.310 2139.490,336.232 2171.502 C 396.080 2201.011,385.551 2200.349,775.252 2199.106 L 1122.000 2198.000 1154.000 2186.748 C 1195.502 2172.154,1230.637 2149.079,1259.775 2117.280 C 1281.742 2093.307,1308.230 2047.487,1314.122 2023.269 L 1316.732 2012.539 1223.366 2011.269 L 1130.000 2010.000 1104.000 1997.610 C 1089.700 1990.796,1070.348 1977.746,1060.995 1968.610 L 1043.991 1952.000 653.995 1952.000 L 264.000 1952.000 264.000 1202.000 L 264.000 452.000 764.000 452.000 L 1264.000 452.000 1264.000 496.509 L 1264.000 541.019 1281.000 525.360 C 1290.350 516.747,1303.850 505.379,1311.000 500.098 L 1324.000 490.496 1323.941 454.248 C 1323.908 434.311,1321.132 406.300,1317.772 392.000 C 1296.353 300.849,1218.517 225.355,1126.000 205.997 C 1085.839 197.594,435.333 197.743,396.523 206.164 M906.444 333.367 C 921.386 346.220,921.386 365.780,906.444 378.633 L 895.554 388.000 762.316 388.000 C 633.580 388.000,628.723 387.720,618.539 379.710 C 601.636 366.414,605.599 335.950,625.261 328.028 C 630.068 326.091,692.850 324.393,764.777 324.254 L 895.554 324.000 906.444 333.367 M1551.805 457.965 C 1517.965 464.344,1460.251 483.761,1430.000 498.946 C 1316.077 556.130,1227.667 659.708,1190.118 779.983 C 1171.754 838.809,1168.049 878.211,1168.024 1015.000 L 1168.000 1140.000 1122.000 1140.000 L 1076.000 1140.000 1076.000 1508.128 C 1076.000 1914.202,1074.616 1891.614,1101.203 1919.351 C 1108.241 1926.693,1121.200 1936.593,1130.000 1941.351 L 1146.000 1950.000 1627.706 1951.079 C 2175.155 1952.305,2139.458 1954.302,2172.076 1920.614 C 2182.525 1909.822,2192.229 1895.010,2195.076 1885.508 C 2198.819 1873.015,2200.000 1781.616,2200.000 1504.536 L 2200.000 1140.000 2154.422 1140.000 L 2108.843 1140.000 2106.903 1001.000 C 2105.235 881.489,2103.843 856.953,2096.969 826.000 C 2056.911 645.621,1929.119 511.823,1752.202 465.030 C 1720.383 456.615,1702.972 454.705,1648.000 453.600 C 1602.576 452.687,1572.587 454.048,1551.805 457.965 M985.098 520.213 C 975.616 524.996,964.201 535.163,959.098 543.370 C 950.785 556.738,949.877 563.688,948.570 623.922 C 946.853 703.079,950.730 725.323,969.401 743.420 C 987.691 761.147,1001.507 764.000,1069.059 764.000 C 1126.587 764.000,1128.272 763.759,1131.908 755.000 C 1133.963 750.050,1141.168 732.348,1147.920 715.661 C 1154.672 698.975,1169.152 669.703,1180.098 650.613 C 1198.383 618.723,1200.000 613.785,1200.000 589.823 C 1200.000 557.247,1193.071 540.278,1173.747 525.527 L 1158.645 514.000 1080.323 512.843 C 1007.067 511.762,1000.907 512.238,985.098 520.213 M1710.052 648.013 C 1806.799 672.757,1887.723 756.253,1910.650 854.986 C 1916.766 881.326,1917.863 904.987,1917.926 1012.000 L 1918.000 1138.000 1636.676 1139.027 L 1355.352 1140.054 1357.064 1005.027 C 1358.954 855.924,1360.068 847.922,1386.318 794.807 C 1422.061 722.484,1488.348 668.140,1565.491 647.915 C 1605.429 637.444,1668.895 637.487,1710.052 648.013 M362.000 893.528 C 345.787 900.894,332.625 915.875,327.904 932.333 C 322.607 950.804,322.896 1080.566,328.266 1094.740 C 333.617 1108.862,346.452 1122.803,362.000 1131.380 C 371.982 1136.887,386.782 1138.000,450.000 1138.000 C 533.748 1138.000,540.915 1136.328,561.364 1112.026 C 575.468 1095.265,576.867 1084.135,575.333 1000.882 C 573.877 921.863,572.761 917.897,546.472 898.247 C 536.295 890.640,529.170 889.925,454.719 889.038 C 393.422 888.307,371.113 889.387,362.000 893.528 M670.000 1271.442 C 640.108 1289.906,636.000 1304.201,636.000 1389.749 C 636.000 1452.959,636.702 1459.678,645.000 1475.918 C 662.024 1509.235,664.649 1510.000,762.000 1510.000 C 842.028 1510.000,848.110 1509.480,858.460 1501.753 C 885.070 1481.885,885.882 1478.828,887.240 1393.479 C 888.385 1321.483,887.849 1314.215,880.240 1298.495 C 874.905 1287.475,866.518 1278.392,856.455 1272.736 C 841.921 1264.568,835.747 1264.001,761.455 1264.015 C 691.100 1264.028,680.626 1264.879,670.000 1271.442 M1697.558 1333.787 C 1709.488 1368.102,1710.822 1370.056,1730.000 1381.321 L 1750.000 1393.069 1784.345 1386.535 C 1803.235 1382.941,1821.605 1380.000,1825.169 1380.000 C 1830.916 1380.000,1837.916 1390.434,1871.216 1448.645 C 1877.208 1459.119,1876.880 1459.759,1850.697 1488.645 L 1824.089 1518.000 1824.044 1542.678 C 1824.002 1566.480,1824.674 1568.112,1843.000 1588.698 C 1881.240 1631.653,1879.892 1621.926,1853.956 1667.732 C 1841.416 1689.880,1829.912 1708.000,1828.391 1708.000 C 1826.870 1708.000,1809.268 1704.430,1789.275 1700.066 L 1752.925 1692.133 1731.025 1705.066 C 1709.418 1717.827,1708.966 1718.483,1697.310 1754.000 L 1685.496 1790.000 1637.538 1791.117 L 1589.580 1792.234 1577.893 1755.666 C 1566.523 1720.088,1565.638 1718.735,1545.152 1705.630 L 1524.097 1692.161 1485.608 1700.081 C 1464.439 1704.436,1446.588 1708.000,1445.939 1708.000 C 1443.822 1708.000,1400.000 1631.651,1400.000 1627.961 C 1400.000 1625.988,1411.686 1611.239,1425.969 1595.187 C 1451.593 1566.387,1451.938 1565.691,1451.969 1542.717 C 1452.000 1519.781,1451.626 1519.016,1427.000 1491.548 C 1413.250 1476.211,1401.405 1461.955,1400.679 1459.868 C 1399.167 1455.526,1438.453 1385.428,1444.489 1381.698 C 1446.676 1380.346,1465.200 1382.392,1485.654 1386.245 L 1522.843 1393.249 1544.615 1380.792 C 1566.261 1368.408,1566.456 1368.123,1577.984 1332.051 L 1589.580 1295.766 1637.347 1296.883 L 1685.115 1298.000 1697.558 1333.787 M1598.000 1459.599 C 1541.119 1485.991,1526.710 1558.143,1568.777 1605.934 C 1589.016 1628.926,1611.435 1637.477,1645.744 1635.293 C 1677.760 1633.254,1699.796 1619.481,1717.905 1590.190 C 1728.224 1573.499,1729.978 1566.764,1729.852 1544.314 C 1729.625 1503.936,1709.085 1472.461,1673.128 1457.394 C 1654.629 1449.641,1617.087 1450.744,1598.000 1459.599 M353.240 1648.308 C 328.381 1664.232,323.989 1681.401,324.088 1762.263 C 324.187 1843.443,328.047 1858.932,352.534 1876.396 C 365.723 1885.802,367.729 1886.000,450.000 1886.000 C 532.271 1886.000,534.277 1885.802,547.466 1876.396 C 571.953 1858.932,575.813 1843.443,575.912 1762.263 C 575.991 1697.775,575.163 1688.797,567.716 1673.414 C 552.526 1642.034,545.280 1639.990,449.528 1640.067 C 372.305 1640.130,365.037 1640.752,353.240 1648.308 M665.216 1649.000 C 639.463 1667.293,638.000 1673.366,638.000 1762.000 C 638.000 1854.681,640.408 1862.956,672.092 1879.158 C 689.232 1887.922,693.376 1888.266,768.720 1887.158 C 840.973 1886.095,848.345 1885.323,858.472 1877.753 C 885.056 1857.882,885.883 1854.780,887.237 1769.832 C 888.358 1699.429,887.734 1690.552,880.509 1674.218 C 866.276 1642.042,859.309 1640.032,761.944 1640.015 C 681.183 1640.001,677.391 1640.353,665.216 1649.000 M972.241 1654.259 C 950.515 1673.886,946.771 1693.154,948.570 1776.078 C 949.879 1836.431,950.773 1843.243,959.151 1856.716 C 968.224 1871.308,995.211 1888.000,1009.729 1888.000 C 1015.248 1888.000,1016.369 1885.895,1014.521 1879.000 C 1013.195 1874.050,1012.085 1818.250,1012.055 1755.000 L 1012.000 1640.000 1000.012 1640.000 C 991.887 1640.000,982.936 1644.596,972.241 1654.259 M502.182 2021.818 C 514.101 2033.737,514.999 2051.410,504.353 2064.557 C 497.107 2073.505,494.260 2074.000,450.000 2074.000 C 405.740 2074.000,402.893 2073.505,395.647 2064.557 C 385.001 2051.410,385.899 2033.737,397.818 2021.818 C 407.006 2012.630,410.355 2012.000,450.000 2012.000 C 489.645 2012.000,492.994 2012.630,502.182 2021.818 M814.182 2021.818 C 826.100 2033.736,826.999 2051.409,816.356 2064.557 C 809.521 2073.000,804.850 2074.148,772.232 2075.403 C 729.646 2077.040,719.145 2075.041,708.111 2063.197 C 694.458 2048.543,699.368 2023.237,717.261 2016.028 C 722.068 2014.091,743.632 2012.393,765.182 2012.254 C 801.620 2012.018,805.051 2012.687,814.182 2021.818 M1126.182 2021.818 C 1138.099 2033.735,1138.999 2051.408,1128.358 2064.557 C 1121.456 2073.085,1116.977 2074.135,1082.137 2075.394 C 1037.593 2077.003,1022.886 2072.623,1015.858 2055.657 C 1009.890 2041.250,1016.154 2023.103,1029.285 2016.755 C 1034.078 2014.438,1055.632 2012.420,1077.182 2012.271 C 1113.632 2012.019,1117.048 2012.685,1126.182 2021.818 " fill="#1D1E23" stroke="none" fill-rule="evenodd"/></svg>