<svg viewBox="0 0 2400 2400" fill="none" xmlns="http://www.w3.org/2000/svg"><path d="M701.571 223.000 C 710.987 306.143,765.053 383.083,876.789 472.348 C 918.569 505.725,993.320 560.000,997.510 560.000 C 998.922 560.000,1017.626 546.050,1039.076 529.000 C 1060.526 511.950,1093.679 486.476,1112.750 472.391 L 1147.423 446.781 1074.711 395.050 C 1034.720 366.598,997.541 338.973,992.091 333.660 L 982.182 324.000 1200.091 324.150 L 1418.000 324.300 1402.000 338.055 C 1393.200 345.620,1341.900 382.887,1288.000 420.871 C 1176.781 499.246,1080.063 570.960,1036.000 607.722 C 847.475 765.006,743.823 918.222,709.320 1090.616 C 699.404 1140.160,699.404 1259.840,709.320 1309.384 C 732.665 1426.028,788.172 1534.653,877.607 1638.719 C 916.044 1683.444,993.733 1760.000,1000.683 1760.000 C 1005.415 1760.000,1147.827 1659.004,1147.928 1655.576 C 1147.968 1654.243,1131.350 1638.642,1111.000 1620.908 C 1090.650 1603.173,1064.161 1578.613,1052.137 1566.331 L 1030.273 1544.000 1199.921 1544.000 L 1369.569 1544.000 1355.785 1558.525 C 1328.882 1586.872,1241.228 1661.627,1188.000 1701.618 C 1158.300 1723.932,1086.110 1775.954,1027.578 1817.223 C 831.603 1955.398,765.461 2016.339,726.593 2094.539 C 712.165 2123.568,700.000 2165.980,700.000 2187.256 L 700.000 2200.000 1200.517 2200.000 L 1701.033 2200.000 1698.326 2176.073 C 1689.143 2094.904,1635.152 2017.744,1526.611 1930.671 C 1485.088 1897.361,1406.635 1840.000,1402.599 1840.000 C 1401.128 1840.000,1382.374 1853.950,1360.924 1871.000 C 1339.474 1888.050,1306.308 1913.533,1287.223 1927.630 C 1252.888 1952.989,1252.614 1953.328,1261.261 1959.794 C 1266.067 1963.388,1297.000 1985.543,1330.000 2009.026 C 1363.000 2032.510,1396.300 2057.113,1404.000 2063.699 L 1418.000 2075.675 1200.000 2075.675 L 982.000 2075.675 996.000 2063.664 C 1003.700 2057.058,1043.300 2028.015,1084.000 1999.125 C 1124.700 1970.234,1183.200 1928.544,1214.000 1906.479 C 1509.494 1694.795,1641.491 1530.961,1688.903 1317.034 C 1701.442 1260.455,1701.442 1139.545,1688.903 1082.966 C 1662.559 964.101,1610.776 864.123,1522.131 760.976 C 1479.297 711.135,1404.734 639.154,1397.708 640.861 C 1391.078 642.472,1252.268 741.435,1252.121 744.655 C 1252.054 746.115,1268.650 761.712,1289.000 779.314 C 1309.350 796.916,1335.839 821.371,1347.863 833.659 L 1369.727 856.000 1200.079 856.000 L 1030.431 856.000 1044.215 841.475 C 1096.707 786.164,1198.329 705.873,1362.000 590.393 C 1556.679 453.036,1624.726 392.527,1666.954 319.224 C 1680.527 295.662,1696.033 248.858,1698.691 223.425 L 1701.140 200.000 1200.053 200.000 L 698.967 200.000 701.571 223.000 M1479.426 1001.000 C 1486.034 1012.550,1493.321 1026.950,1495.621 1033.000 L 1499.802 1044.000 1200.105 1044.000 L 900.408 1044.000 906.650 1029.000 C 910.084 1020.750,917.363 1006.350,922.826 997.000 L 932.760 980.000 1200.087 980.000 L 1467.413 980.000 1479.426 1001.000 M1532.000 1200.000 L 1532.000 1232.000 1200.000 1232.000 L 868.000 1232.000 868.000 1200.000 L 868.000 1168.000 1200.000 1168.000 L 1532.000 1168.000 1532.000 1200.000 M1495.621 1367.000 C 1493.321 1373.050,1486.034 1387.450,1479.426 1399.000 L 1467.413 1420.000 1200.087 1420.000 L 932.760 1420.000 922.826 1403.000 C 917.363 1393.650,910.084 1379.250,906.650 1371.000 L 900.408 1356.000 1200.105 1356.000 L 1499.802 1356.000 1495.621 1367.000 " fill="#1D1E23" stroke="none" fill-rule="evenodd"/></svg>