<svg viewBox="0 0 2400 2400" fill="none" xmlns="http://www.w3.org/2000/svg"><path d="M389.139 211.682 C 365.808 215.583,318.195 240.512,289.076 264.073 C 258.194 289.061,228.876 332.615,212.531 377.788 L 199.942 412.580 200.971 1209.290 L 202.000 2006.000 218.632 2040.000 C 257.797 2120.060,323.929 2177.378,394.089 2192.071 C 406.490 2194.668,546.014 2197.126,764.000 2198.587 L 1114.000 2200.932 1142.000 2190.296 C 1184.380 2174.197,1222.909 2149.520,1251.892 2119.911 C 1286.185 2084.878,1319.072 2029.738,1310.679 2021.346 C 1305.585 2016.252,1256.408 2012.419,1193.406 2012.205 C 1133.752 2012.003,1132.452 2011.811,1109.577 1999.777 C 1096.797 1993.055,1076.978 1979.555,1065.533 1969.777 L 1044.724 1952.000 654.362 1952.000 L 264.000 1952.000 264.000 1202.000 L 264.000 452.000 764.000 452.000 L 1264.000 452.000 1264.000 496.051 L 1264.000 540.102 1294.532 515.051 L 1325.064 490.000 1322.496 452.000 C 1321.084 431.100,1317.261 402.732,1314.001 388.959 C 1297.916 321.003,1248.334 262.599,1176.306 226.764 L 1142.611 210.000 774.306 209.431 C 571.738 209.119,398.412 210.132,389.139 211.682 M910.826 342.043 C 917.253 355.521,917.179 356.689,908.977 371.043 L 900.430 386.000 762.341 387.052 L 624.252 388.103 618.519 379.052 C 610.646 366.622,607.248 347.193,611.727 340.217 C 617.005 331.996,658.458 329.312,791.065 328.604 L 904.129 328.000 910.826 342.043 M1570.398 458.115 C 1492.318 470.682,1446.010 488.522,1383.561 530.096 C 1315.172 575.625,1239.943 661.446,1211.835 726.000 C 1177.218 805.503,1171.686 841.876,1169.097 1007.000 L 1167.012 1140.000 1120.954 1140.000 L 1074.895 1140.000 1077.205 1505.000 C 1078.582 1722.454,1081.103 1876.256,1083.444 1885.477 C 1088.547 1905.581,1106.701 1928.105,1125.226 1937.315 C 1151.657 1950.455,1270.966 1953.070,1717.455 1950.294 C 2168.345 1947.490,2135.071 1949.551,2166.482 1922.473 C 2199.342 1894.145,2196.980 1924.007,2199.177 1509.108 L 2201.131 1140.000 2155.177 1140.000 L 2109.222 1140.000 2106.816 1013.000 C 2105.492 943.150,2102.416 870.700,2099.980 852.000 C 2091.774 789.017,2058.868 709.343,2015.961 648.565 C 1961.893 571.978,1868.141 502.930,1782.000 476.253 C 1723.293 458.071,1623.707 449.535,1570.398 458.115 M1013.542 515.889 C 961.151 521.875,949.846 543.350,950.311 636.000 C 950.721 717.604,956.722 737.400,985.353 751.594 C 1002.256 759.974,1011.926 761.434,1061.744 763.125 L 1118.783 765.062 1129.313 751.257 C 1142.747 733.644,1177.588 659.354,1190.617 620.541 C 1201.664 587.632,1201.107 573.812,1187.589 545.422 C 1182.857 535.485,1175.350 527.055,1168.848 524.377 C 1162.881 521.920,1135.500 518.171,1108.000 516.046 C 1053.233 511.813,1049.274 511.807,1013.542 515.889 M1733.446 659.524 C 1806.315 688.702,1855.839 736.267,1895.695 815.354 C 1908.422 840.607,1908.487 841.053,1912.100 927.354 C 1914.096 975.009,1915.789 1042.350,1915.864 1077.000 L 1916.000 1140.000 1635.491 1140.000 L 1354.983 1140.000 1357.730 1043.000 C 1360.764 935.923,1365.642 868.468,1372.557 838.000 C 1387.669 771.409,1451.914 699.931,1529.082 663.853 C 1563.082 647.958,1588.909 644.121,1650.438 645.828 C 1697.721 647.140,1705.882 648.486,1733.446 659.524 M373.144 895.514 C 336.301 902.040,327.316 921.624,324.852 1000.771 C 322.467 1077.403,324.870 1092.512,342.556 1112.088 C 362.689 1134.373,376.036 1137.495,452.000 1137.682 C 512.363 1137.832,519.409 1137.098,534.497 1129.098 C 555.777 1117.814,570.969 1099.563,574.428 1081.126 C 579.021 1056.645,573.321 938.905,566.786 923.265 C 557.317 900.601,544.303 897.046,462.000 894.636 C 422.400 893.477,382.415 893.872,373.144 895.514 M669.265 1275.559 C 640.953 1288.776,638.375 1297.938,638.190 1386.000 C 638.038 1457.847,638.533 1462.945,647.250 1479.303 C 661.605 1506.239,672.095 1508.997,762.000 1509.475 C 833.120 1509.853,839.068 1509.312,854.628 1501.048 C 881.022 1487.030,886.000 1469.094,886.000 1388.000 C 886.000 1333.481,884.719 1318.680,878.637 1302.915 C 866.890 1272.468,860.286 1270.479,766.000 1269.001 C 693.443 1267.862,684.443 1268.473,669.265 1275.559 M1661.000 1298.607 C 1675.850 1300.009,1688.000 1302.629,1688.000 1304.428 C 1688.000 1315.469,1706.299 1353.246,1718.620 1367.640 C 1738.377 1390.722,1746.293 1393.057,1786.590 1387.695 C 1815.118 1383.899,1821.610 1384.135,1829.425 1389.256 C 1838.923 1395.479,1868.000 1446.593,1868.000 1457.066 C 1868.000 1460.309,1858.942 1475.345,1847.871 1490.481 C 1836.800 1505.616,1826.702 1522.062,1825.431 1527.026 C 1821.107 1543.912,1828.381 1564.251,1850.210 1596.309 C 1862.195 1613.909,1872.000 1629.376,1872.000 1630.680 C 1872.000 1636.211,1830.625 1704.779,1826.281 1706.446 C 1823.661 1707.451,1806.325 1704.737,1787.758 1700.413 L 1754.000 1692.553 1736.042 1703.589 C 1716.093 1715.849,1706.806 1729.459,1693.726 1765.610 L 1684.902 1790.000 1637.276 1791.116 L 1589.650 1792.233 1580.361 1763.391 C 1572.735 1739.715,1567.185 1730.664,1549.373 1712.851 C 1532.370 1695.848,1525.762 1691.655,1518.837 1693.473 C 1497.044 1699.198,1452.725 1705.134,1447.306 1703.055 C 1444.022 1701.794,1431.989 1684.326,1420.567 1664.236 L 1399.798 1627.708 1418.489 1604.854 C 1438.875 1579.928,1451.775 1555.206,1451.912 1540.801 C 1452.040 1527.381,1441.688 1509.060,1419.249 1482.996 L 1399.444 1459.992 1415.723 1430.996 C 1442.003 1384.187,1439.949 1385.733,1473.172 1387.752 C 1489.027 1388.715,1508.546 1389.534,1516.546 1389.572 C 1544.034 1389.704,1570.054 1360.246,1584.183 1313.000 L 1589.266 1296.000 1611.633 1296.028 C 1623.935 1296.044,1646.150 1297.204,1661.000 1298.607 M1597.745 1461.650 C 1568.427 1474.418,1540.319 1525.124,1545.942 1555.100 C 1551.391 1584.143,1571.594 1611.549,1597.178 1624.601 C 1616.844 1634.634,1651.794 1635.751,1672.420 1627.006 C 1690.532 1619.327,1715.166 1594.974,1722.446 1577.549 C 1741.927 1530.924,1712.042 1470.677,1664.359 1460.451 C 1637.131 1454.611,1612.906 1455.048,1597.745 1461.650 M696.000 1642.595 C 643.840 1650.450,642.000 1654.451,642.000 1760.000 C 642.000 1855.386,643.823 1862.871,670.930 1878.756 L 688.763 1889.207 761.381 1886.876 C 850.061 1884.029,862.044 1880.798,875.925 1856.000 C 885.687 1838.559,885.998 1835.700,885.945 1764.000 C 885.883 1680.591,882.452 1663.542,863.787 1653.890 C 847.507 1645.471,729.606 1637.535,696.000 1642.595 M981.479 1650.837 C 972.392 1656.728,962.781 1665.033,960.122 1669.292 C 947.111 1690.125,945.526 1827.877,958.019 1852.036 C 963.879 1863.369,997.211 1888.000,1006.686 1888.000 C 1010.980 1888.000,1012.000 1866.172,1012.000 1774.260 C 1012.000 1669.341,1009.608 1639.889,1001.099 1640.063 C 999.395 1640.098,990.565 1644.946,981.479 1650.837 M356.000 1650.683 C 330.208 1664.163,326.227 1679.253,326.106 1764.000 C 326.010 1830.918,326.766 1839.300,334.000 1851.582 C 345.984 1871.927,359.046 1879.456,390.000 1883.859 C 427.088 1889.134,488.858 1889.049,517.892 1883.681 C 567.205 1874.565,572.303 1863.139,572.919 1760.327 C 573.605 1646.036,575.751 1648.131,455.177 1645.339 C 378.086 1643.554,368.671 1644.062,356.000 1650.683 M499.710 2026.539 C 509.520 2039.012,510.267 2050.983,501.972 2062.826 C 494.123 2074.032,463.076 2078.048,428.000 2072.394 C 389.497 2066.188,379.693 2048.819,401.249 2025.000 C 408.687 2016.781,412.956 2016.000,450.407 2016.000 C 489.949 2016.000,491.717 2016.378,499.710 2026.539 M808.091 2020.049 C 817.425 2025.044,822.280 2048.265,816.319 2059.404 C 803.705 2082.973,721.291 2080.835,708.322 2056.602 C 699.811 2040.699,702.979 2028.058,717.000 2021.963 C 732.260 2015.331,796.743 2013.975,808.091 2020.049 M1117.524 2019.819 C 1129.332 2024.308,1135.330 2046.304,1128.319 2059.404 C 1120.361 2074.273,1075.409 2080.790,1042.962 2071.779 C 1014.826 2063.966,1007.826 2034.863,1031.051 2022.261 C 1043.671 2015.414,1101.632 2013.777,1117.524 2019.819 " fill="#1D1E23" stroke="none" fill-rule="evenodd"/></svg>