<svg viewBox="0 0 2400 2400" fill="none" xmlns="http://www.w3.org/2000/svg"><path d="M374.000 204.681 C 318.374 215.212,253.711 263.793,226.568 315.446 C 198.449 368.957,200.125 321.772,200.059 1061.986 L 200.000 1729.973 420.000 1510.000 L 640.000 1290.027 640.000 1120.022 L 640.000 950.016 764.956 1074.972 L 889.912 1199.928 563.657 1526.964 C 264.166 1827.172,236.371 1856.150,224.838 1880.212 C 209.537 1912.136,200.138 1950.290,200.059 1980.803 C 199.793 2083.386,276.979 2176.184,379.209 2196.190 C 428.031 2205.744,490.311 2194.009,534.000 2167.024 C 545.948 2159.644,684.033 2024.929,876.989 1832.404 L 1199.978 1510.137 1526.989 1836.368 C 1827.173 2135.836,1856.150 2163.629,1880.212 2175.162 C 1912.136 2190.463,1950.290 2199.862,1980.803 2199.941 C 2083.386 2200.207,2176.184 2123.021,2196.190 2020.791 C 2205.744 1971.969,2194.009 1909.689,2167.024 1866.000 C 2159.644 1854.052,2024.916 1715.954,1832.368 1522.975 L 1510.066 1199.950 1635.033 1074.983 L 1760.000 950.016 1760.000 1120.022 L 1760.000 1290.027 1980.000 1510.000 L 2200.000 1729.973 2200.000 1063.183 C 2200.000 588.980,2198.714 390.272,2195.549 375.197 C 2177.124 287.451,2101.240 216.042,2012.707 203.138 C 1967.249 196.513,1928.311 202.966,1884.000 224.468 L 1850.000 240.967 1525.000 565.403 L 1200.000 889.839 875.000 565.602 C 573.522 264.833,547.903 240.288,521.029 226.480 C 474.784 202.719,424.077 195.201,374.000 204.681 " fill="#1D1E23" stroke="none" fill-rule="evenodd"/></svg>