<svg viewBox="0 0 2400 2400" fill="none" xmlns="http://www.w3.org/2000/svg"><path d="M200.000 450.000 L 200.000 700.000 262.000 700.000 L 324.000 700.000 324.000 512.000 L 324.000 324.000 512.000 324.000 L 700.000 324.000 700.000 262.000 L 700.000 200.000 450.000 200.000 L 200.000 200.000 200.000 450.000 M1700.000 262.000 L 1700.000 324.000 1888.000 324.000 L 2076.000 324.000 2076.000 512.000 L 2076.000 700.000 2138.000 700.000 L 2200.000 700.000 2200.000 450.000 L 2200.000 200.000 1950.000 200.000 L 1700.000 200.000 1700.000 262.000 M1214.000 892.118 C 1183.200 893.705,1146.362 897.990,1132.137 901.640 C 1081.505 914.633,1028.171 952.958,999.895 996.669 C 980.754 1026.256,962.119 1083.382,954.276 1136.513 C 946.511 1189.110,946.405 1219.168,953.809 1268.000 C 969.069 1368.643,1003.280 1429.539,1069.107 1473.232 C 1116.832 1504.910,1158.057 1511.917,1297.000 1511.967 L 1388.000 1512.000 1388.000 1482.168 L 1388.000 1452.337 1419.000 1451.168 L 1450.000 1450.000 1451.101 1389.595 L 1452.202 1329.191 1421.497 1326.595 C 1404.610 1325.168,1375.765 1324.000,1357.396 1324.000 L 1324.000 1324.000 1324.000 1356.518 L 1324.000 1389.035 1247.000 1386.982 C 1150.656 1384.412,1136.293 1380.002,1120.037 1348.000 C 1106.158 1320.676,1102.135 1288.956,1102.534 1210.000 C 1103.098 1098.241,1113.256 1046.580,1137.833 1030.477 C 1151.487 1021.531,1189.276 1016.270,1261.000 1013.330 L 1324.000 1010.747 1324.000 1059.475 L 1324.000 1108.203 1387.000 1107.102 L 1450.000 1106.000 1451.104 1045.000 L 1452.208 984.000 1420.104 984.000 L 1388.000 984.000 1388.000 936.000 L 1388.000 888.000 1329.000 888.616 C 1296.550 888.955,1244.800 890.531,1214.000 892.118 M1512.000 1200.000 L 1512.000 1512.000 1576.000 1512.000 L 1640.000 1512.000 1640.000 1388.000 L 1640.000 1264.000 1670.000 1264.000 L 1700.000 1264.000 1700.000 1294.000 L 1700.000 1324.000 1732.000 1324.000 L 1764.000 1324.000 1764.000 1356.000 L 1764.000 1388.000 1793.832 1388.000 L 1823.663 1388.000 1824.832 1419.000 L 1826.000 1450.000 1857.000 1451.168 L 1888.000 1452.337 1888.000 1482.168 L 1888.000 1512.000 1950.000 1512.000 L 2012.000 1512.000 2012.000 1450.000 L 2012.000 1388.000 1982.000 1388.000 L 1952.000 1388.000 1952.000 1364.765 C 1952.000 1332.142,1947.015 1326.826,1914.484 1324.754 L 1888.000 1323.068 1888.000 1231.696 L 1888.000 1140.324 1921.000 1139.162 L 1954.000 1138.000 1955.102 1075.000 L 1956.203 1012.000 1922.102 1012.000 L 1888.000 1012.000 1888.000 950.000 L 1888.000 888.000 1700.000 888.000 L 1512.000 888.000 1512.000 1200.000 M585.428 895.739 C 521.768 905.898,457.451 960.215,419.647 1035.747 C 396.460 1082.072,392.151 1108.122,392.069 1202.454 C 391.989 1295.647,394.771 1314.444,415.085 1357.930 C 446.305 1424.765,500.582 1476.894,561.387 1498.442 C 589.628 1508.451,599.630 1509.978,636.000 1509.838 C 705.348 1509.570,755.576 1487.980,806.058 1436.740 C 854.335 1387.737,873.914 1342.070,880.529 1263.035 C 887.189 1183.473,883.468 1112.785,870.731 1076.890 C 837.984 984.603,787.600 928.120,716.726 904.245 C 689.475 895.064,618.477 890.465,585.428 895.739 M1824.000 1076.000 L 1824.000 1140.000 1732.000 1140.000 L 1640.000 1140.000 1640.000 1076.000 L 1640.000 1012.000 1732.000 1012.000 L 1824.000 1012.000 1824.000 1076.000 M661.442 1019.885 C 725.201 1030.327,743.789 1081.729,738.393 1232.686 C 735.683 1308.506,732.093 1325.432,713.098 1351.932 C 696.212 1375.491,683.118 1381.387,643.476 1383.282 C 600.365 1385.344,584.290 1380.283,565.974 1358.886 C 542.437 1331.388,539.977 1316.072,540.176 1198.274 C 540.362 1087.793,541.779 1077.411,560.390 1050.250 C 580.160 1021.399,612.092 1011.803,661.442 1019.885 M200.000 1950.000 L 200.000 2200.000 450.000 2200.000 L 700.000 2200.000 700.000 2138.000 L 700.000 2076.000 512.000 2076.000 L 324.000 2076.000 324.000 1888.000 L 324.000 1700.000 262.000 1700.000 L 200.000 1700.000 200.000 1950.000 M2076.000 1888.000 L 2076.000 2076.000 1888.000 2076.000 L 1700.000 2076.000 1700.000 2138.000 L 1700.000 2200.000 1950.000 2200.000 L 2200.000 2200.000 2200.000 1950.000 L 2200.000 1700.000 2138.000 1700.000 L 2076.000 1700.000 2076.000 1888.000 " fill="#1D1E23" stroke="none" fill-rule="evenodd"/></svg>