<svg viewBox="0 0 2400 2400" fill="none" xmlns="http://www.w3.org/2000/svg"><path d="M200.000 450.000 L 200.000 700.000 262.000 700.000 L 324.000 700.000 324.000 512.000 L 324.000 324.000 512.000 324.000 L 700.000 324.000 700.000 262.000 L 700.000 200.000 450.000 200.000 L 200.000 200.000 200.000 450.000 M1700.000 262.000 L 1700.000 324.000 1888.000 324.000 L 2076.000 324.000 2076.000 512.000 L 2076.000 700.000 2138.000 700.000 L 2200.000 700.000 2200.000 450.000 L 2200.000 200.000 1950.000 200.000 L 1700.000 200.000 1700.000 262.000 M578.404 894.376 C 535.683 904.713,504.759 922.803,470.000 957.790 C 434.325 993.699,419.220 1020.312,401.272 1078.881 C 391.132 1111.969,390.495 1118.742,390.255 1196.000 C 389.958 1291.425,394.185 1315.003,422.418 1375.439 C 437.055 1406.771,444.973 1417.877,470.954 1443.521 C 506.715 1478.816,530.877 1492.971,574.342 1504.087 C 660.939 1526.235,744.015 1504.445,804.653 1443.678 C 859.473 1388.742,883.014 1324.045,886.768 1218.000 C 892.034 1069.268,844.049 964.750,747.115 913.812 C 700.289 889.206,632.193 881.361,578.404 894.376 M1144.288 894.212 C 1083.782 907.334,1025.608 948.738,994.903 1000.533 C 953.741 1069.967,938.567 1185.688,956.421 1294.000 C 974.669 1404.703,1037.975 1479.441,1134.384 1504.098 C 1161.519 1511.038,1178.834 1512.000,1276.640 1512.000 L 1388.000 1512.000 1388.000 1482.168 L 1388.000 1452.337 1419.000 1451.168 L 1450.000 1450.000 1450.000 1388.000 L 1450.000 1326.000 1387.000 1324.898 L 1324.000 1323.797 1324.000 1355.898 L 1324.000 1388.000 1249.000 1387.978 C 1167.534 1387.953,1147.846 1384.768,1131.012 1368.890 C 1105.474 1344.803,1093.407 1275.081,1097.281 1174.000 C 1100.495 1090.132,1112.869 1045.573,1138.123 1026.924 C 1153.128 1015.845,1183.634 1012.000,1256.546 1012.000 L 1324.000 1012.000 1324.000 1060.102 L 1324.000 1108.203 1387.000 1107.102 L 1450.000 1106.000 1451.104 1045.000 L 1452.208 984.000 1420.104 984.000 L 1388.000 984.000 1388.000 936.000 L 1388.000 888.000 1279.000 888.318 C 1201.827 888.543,1162.492 890.264,1144.288 894.212 M1512.000 1200.000 L 1512.000 1512.000 1576.000 1512.000 L 1640.000 1512.000 1640.000 1388.000 L 1640.000 1264.000 1670.000 1264.000 L 1700.000 1264.000 1700.000 1294.000 L 1700.000 1324.000 1732.000 1324.000 L 1764.000 1324.000 1764.000 1356.000 L 1764.000 1388.000 1793.832 1388.000 L 1823.663 1388.000 1824.832 1419.000 L 1826.000 1450.000 1857.000 1451.168 L 1888.000 1452.337 1888.000 1482.168 L 1888.000 1512.000 1950.000 1512.000 L 2012.000 1512.000 2012.000 1450.000 L 2012.000 1388.000 1982.168 1388.000 L 1952.337 1388.000 1951.168 1357.000 L 1950.000 1326.000 1919.000 1324.832 L 1888.000 1323.663 1888.000 1231.994 L 1888.000 1140.324 1921.000 1139.162 L 1954.000 1138.000 1955.102 1075.000 L 1956.203 1012.000 1922.102 1012.000 L 1888.000 1012.000 1888.000 950.000 L 1888.000 888.000 1700.000 888.000 L 1512.000 888.000 1512.000 1200.000 M691.596 1023.794 C 712.365 1034.390,729.341 1063.189,738.874 1104.000 C 748.735 1146.213,748.692 1253.934,738.798 1296.416 C 729.618 1335.834,711.053 1366.753,690.000 1377.689 C 668.446 1388.885,604.738 1389.684,585.207 1379.004 C 543.942 1356.439,524.799 1286.979,529.258 1176.000 C 533.444 1071.827,554.389 1030.191,610.000 1015.489 C 629.940 1010.218,673.719 1014.674,691.596 1023.794 M1824.000 1076.000 L 1824.000 1140.000 1732.000 1140.000 L 1640.000 1140.000 1640.000 1076.000 L 1640.000 1012.000 1732.000 1012.000 L 1824.000 1012.000 1824.000 1076.000 M200.000 1950.000 L 200.000 2200.000 450.000 2200.000 L 700.000 2200.000 700.000 2138.000 L 700.000 2076.000 512.000 2076.000 L 324.000 2076.000 324.000 1888.000 L 324.000 1700.000 262.000 1700.000 L 200.000 1700.000 200.000 1950.000 M2076.000 1888.000 L 2076.000 2076.000 1888.000 2076.000 L 1700.000 2076.000 1700.000 2138.000 L 1700.000 2200.000 1950.000 2200.000 L 2200.000 2200.000 2200.000 1950.000 L 2200.000 1700.000 2138.000 1700.000 L 2076.000 1700.000 2076.000 1888.000 " fill="#1D1E23" stroke="none" fill-rule="evenodd"/></svg>