<svg viewBox="0 0 2400 2400" fill="none" xmlns="http://www.w3.org/2000/svg"><path d="M200.000 450.000 L 200.000 700.000 262.000 700.000 L 324.000 700.000 324.000 512.000 L 324.000 324.000 512.000 324.000 L 700.000 324.000 700.000 262.000 L 700.000 200.000 450.000 200.000 L 200.000 200.000 200.000 450.000 M1700.000 262.000 L 1700.000 324.000 1888.000 324.000 L 2076.000 324.000 2076.000 512.000 L 2076.000 700.000 2138.000 700.000 L 2200.000 700.000 2200.000 450.000 L 2200.000 200.000 1950.000 200.000 L 1700.000 200.000 1700.000 262.000 M1200.000 892.100 C 1130.196 896.107,1100.963 905.871,1049.404 942.401 C 995.805 980.377,963.730 1049.429,951.726 1152.691 C 940.202 1251.813,964.385 1362.928,1010.154 1421.150 C 1032.394 1449.442,1073.608 1480.462,1106.608 1493.746 C 1141.564 1507.818,1184.241 1512.000,1292.895 1512.000 L 1388.000 1512.000 1388.000 1482.168 L 1388.000 1452.337 1419.000 1451.168 L 1450.000 1450.000 1451.101 1389.588 L 1452.202 1329.176 1425.101 1326.616 C 1410.195 1325.209,1381.350 1324.044,1361.000 1324.028 L 1324.000 1324.000 1324.000 1356.000 L 1324.000 1388.000 1263.000 1387.920 C 1191.352 1387.825,1154.340 1383.279,1140.212 1372.838 C 1109.338 1350.021,1098.103 1297.281,1101.265 1190.000 C 1104.420 1082.960,1114.422 1043.546,1142.611 1027.083 C 1155.965 1019.284,1224.567 1012.258,1289.000 1012.091 L 1324.000 1012.000 1324.000 1060.102 L 1324.000 1108.203 1387.000 1107.102 L 1450.000 1106.000 1451.104 1045.000 L 1452.208 984.000 1420.104 984.000 L 1388.000 984.000 1388.000 936.000 L 1388.000 888.000 1319.000 888.615 C 1281.050 888.953,1227.500 890.521,1200.000 892.100 M1512.000 1200.000 L 1512.000 1512.000 1576.000 1512.000 L 1640.000 1512.000 1640.000 1388.000 L 1640.000 1264.000 1670.000 1264.000 L 1700.000 1264.000 1700.000 1294.000 L 1700.000 1324.000 1732.000 1324.000 L 1764.000 1324.000 1764.000 1356.000 L 1764.000 1388.000 1793.832 1388.000 L 1823.663 1388.000 1824.832 1419.000 L 1826.000 1450.000 1857.000 1451.168 L 1888.000 1452.337 1888.000 1482.168 L 1888.000 1512.000 1950.000 1512.000 L 2012.000 1512.000 2012.000 1450.000 L 2012.000 1388.000 1982.000 1388.000 L 1952.000 1388.000 1952.000 1362.227 C 1952.000 1330.110,1945.465 1324.000,1911.110 1324.000 L 1888.000 1324.000 1888.000 1232.162 L 1888.000 1140.324 1921.000 1139.162 L 1954.000 1138.000 1955.102 1075.000 L 1956.203 1012.000 1922.102 1012.000 L 1888.000 1012.000 1888.000 950.000 L 1888.000 888.000 1700.000 888.000 L 1512.000 888.000 1512.000 1200.000 M571.647 897.778 C 512.188 914.180,453.993 965.158,422.988 1028.000 C 394.260 1086.227,392.000 1099.266,392.000 1206.749 C 392.000 1310.740,393.131 1316.425,426.731 1381.261 C 447.432 1421.205,496.457 1470.258,533.017 1487.605 C 601.155 1519.937,675.134 1519.230,743.481 1485.596 C 783.660 1465.823,828.542 1420.649,851.006 1377.373 C 876.149 1328.934,879.945 1309.359,882.692 1214.000 C 884.933 1136.184,884.469 1127.497,876.394 1096.000 C 871.600 1077.300,859.268 1044.900,848.990 1024.000 C 816.626 958.186,760.060 911.223,697.079 897.877 C 664.190 890.908,596.746 890.854,571.647 897.778 M1824.000 1076.000 L 1824.000 1140.000 1732.000 1140.000 L 1640.000 1140.000 1640.000 1076.000 L 1640.000 1012.000 1732.000 1012.000 L 1824.000 1012.000 1824.000 1076.000 M665.677 1019.924 C 692.085 1024.248,706.051 1034.702,722.355 1062.348 C 736.505 1086.343,741.097 1130.919,739.121 1225.123 C 737.600 1297.610,736.515 1308.019,728.657 1325.459 C 707.644 1372.103,686.898 1385.200,634.028 1385.200 C 596.782 1385.200,582.846 1379.599,564.391 1357.210 C 540.503 1328.229,538.000 1313.320,538.000 1200.000 C 538.000 1091.035,539.438 1080.856,559.026 1051.197 C 579.468 1020.244,611.061 1010.980,665.677 1019.924 M200.000 1950.000 L 200.000 2200.000 450.000 2200.000 L 700.000 2200.000 700.000 2138.000 L 700.000 2076.000 512.000 2076.000 L 324.000 2076.000 324.000 1888.000 L 324.000 1700.000 262.000 1700.000 L 200.000 1700.000 200.000 1950.000 M2076.000 1888.000 L 2076.000 2076.000 1888.000 2076.000 L 1700.000 2076.000 1700.000 2138.000 L 1700.000 2200.000 1950.000 2200.000 L 2200.000 2200.000 2200.000 1950.000 L 2200.000 1700.000 2138.000 1700.000 L 2076.000 1700.000 2076.000 1888.000 " fill="#1D1E23" stroke="none" fill-rule="evenodd"/></svg>