<svg viewBox="0 0 2400 2400" fill="none" xmlns="http://www.w3.org/2000/svg"><path d="M1041.932 202.991 L 969.864 204.173 918.894 357.087 L 867.924 510.000 829.125 530.000 C 807.786 541.000,771.049 561.945,747.487 576.545 L 704.647 603.090 567.959 575.702 C 492.780 560.639,421.033 547.157,408.521 545.741 L 385.772 543.167 349.313 604.584 C 296.155 694.133,222.194 823.271,211.731 844.805 L 202.671 863.454 230.969 896.727 C 246.532 915.027,293.631 968.682,335.633 1015.960 L 412.000 1101.919 412.000 1200.258 L 412.000 1298.596 345.549 1374.298 C 309.002 1415.934,262.103 1470.128,241.329 1494.728 L 203.560 1539.456 212.359 1556.728 C 222.052 1575.755,352.770 1804.694,374.343 1840.427 L 387.883 1862.855 545.291 1831.342 L 702.698 1799.829 754.349 1830.023 C 782.757 1846.629,820.519 1867.673,838.264 1876.785 L 870.529 1893.354 921.591 2046.716 L 972.654 2200.078 1161.117 2199.039 L 1349.581 2198.000 1399.285 2045.800 L 1448.990 1893.601 1482.183 1876.604 C 1500.440 1867.256,1530.367 1850.580,1548.688 1839.547 C 1567.010 1828.513,1590.290 1814.957,1600.421 1809.422 L 1618.843 1799.358 1754.421 1825.684 C 1930.323 1859.840,1923.866 1859.063,1934.686 1847.379 C 1957.077 1823.201,2112.000 1556.410,2112.000 1542.029 C 2112.000 1531.458,2080.133 1492.058,1984.272 1384.110 L 1908.000 1298.221 1908.000 1199.756 L 1908.000 1101.291 1998.528 997.646 C 2097.894 883.880,2116.000 862.450,2116.000 858.602 C 2116.000 850.201,1942.784 555.759,1932.214 546.194 C 1924.870 539.548,1917.602 540.654,1769.660 570.942 L 1614.793 602.647 1574.530 577.463 C 1552.385 563.612,1515.278 542.026,1492.069 529.494 L 1449.872 506.709 1397.936 353.361 L 1346.000 200.014 1230.000 200.911 C 1166.200 201.404,1081.569 202.340,1041.932 202.991 M1398.291 713.902 C 1416.206 721.332,1437.420 741.279,1452.654 765.019 C 1465.295 784.718,1465.994 787.725,1465.881 821.909 C 1465.734 866.230,1457.980 885.639,1428.733 914.886 C 1404.206 939.413,1387.595 945.797,1348.000 945.912 C 1323.114 945.985,1314.104 944.087,1295.142 934.775 C 1249.127 912.179,1225.608 870.349,1228.650 816.517 C 1231.517 765.801,1267.751 719.540,1314.000 707.551 C 1329.796 703.456,1382.719 707.444,1398.291 713.902 M1144.440 766.476 L 1158.879 768.865 1161.649 818.724 C 1163.173 846.146,1166.173 873.193,1168.315 878.829 L 1172.211 889.076 939.106 887.241 C 679.926 885.201,689.165 886.217,673.190 858.000 C 662.253 838.682,661.696 819.450,671.454 798.000 C 683.968 770.491,683.292 770.676,781.369 767.892 C 903.025 764.438,1126.842 763.566,1144.440 766.476 M1330.740 768.283 C 1298.515 777.338,1280.021 806.367,1287.881 835.558 C 1296.716 868.368,1324.085 887.188,1356.619 882.824 C 1377.672 880.000,1390.274 871.065,1399.949 852.101 C 1410.121 832.161,1410.067 822.797,1399.657 801.291 C 1386.249 773.595,1358.735 760.417,1330.740 768.283 M1627.971 773.985 C 1641.166 780.809,1656.000 809.089,1656.000 827.422 C 1656.000 834.515,1652.490 847.199,1648.200 855.609 C 1636.985 877.592,1619.632 884.472,1568.867 887.063 L 1526.883 889.206 1529.577 874.848 C 1533.161 855.743,1533.234 796.645,1529.696 777.788 L 1526.871 762.729 1571.816 765.458 C 1598.028 767.050,1621.434 770.604,1627.971 773.985 M1026.387 1091.052 C 1049.580 1103.061,1082.794 1140.677,1088.341 1161.218 C 1090.834 1170.448,1092.112 1192.621,1091.181 1210.491 C 1089.693 1239.034,1087.848 1245.536,1075.995 1264.008 C 1050.742 1303.361,1012.493 1322.012,962.698 1319.255 C 916.584 1316.702,885.750 1296.170,863.964 1253.511 C 849.905 1225.981,849.601 1174.477,863.342 1148.000 C 876.391 1122.855,898.486 1100.752,922.000 1089.319 C 939.455 1080.832,946.326 1079.784,976.000 1081.081 C 1000.615 1082.157,1014.523 1084.909,1026.387 1091.052 M791.462 1151.824 C 789.162 1158.421,787.928 1186.014,788.670 1214.246 L 790.000 1264.844 750.000 1263.218 C 703.886 1261.344,689.455 1255.603,674.115 1233.028 C 657.502 1208.580,661.537 1174.329,683.357 1154.582 C 692.778 1146.056,720.789 1141.212,764.792 1140.499 L 795.584 1140.000 791.462 1151.824 M948.139 1145.226 C 940.269 1147.936,930.368 1155.813,925.236 1163.447 C 899.468 1201.772,918.611 1251.734,961.745 1258.733 C 980.887 1261.840,993.553 1257.904,1009.513 1243.891 C 1028.432 1227.280,1037.690 1203.241,1031.911 1185.731 C 1026.346 1168.867,1004.705 1149.682,985.109 1144.241 C 966.843 1139.168,965.633 1139.200,948.139 1145.226 M1626.000 1150.268 C 1656.218 1164.608,1664.517 1198.763,1645.618 1231.012 C 1626.877 1262.992,1636.520 1261.835,1377.125 1263.237 L 1148.251 1264.475 1152.455 1252.413 C 1154.852 1245.539,1156.088 1218.512,1155.330 1189.569 L 1154.000 1138.787 1382.527 1140.982 C 1590.225 1142.976,1612.417 1143.823,1626.000 1150.268 M1200.153 1460.519 C 1226.084 1468.288,1252.528 1491.629,1266.941 1519.473 C 1289.699 1563.434,1283.601 1613.591,1250.171 1657.420 C 1234.487 1677.983,1203.658 1692.806,1171.843 1695.083 C 1118.445 1698.903,1082.004 1680.973,1056.386 1638.276 C 1039.319 1609.830,1035.206 1570.536,1045.567 1534.899 C 1053.317 1508.237,1081.920 1476.182,1108.877 1463.947 C 1128.618 1454.987,1175.779 1453.216,1200.153 1460.519 M976.000 1576.000 L 976.000 1640.000 883.000 1639.935 C 764.854 1639.852,701.981 1634.987,688.145 1624.858 C 656.750 1601.874,657.044 1549.926,688.702 1526.726 C 701.439 1517.392,755.603 1513.616,891.000 1512.623 L 976.000 1512.000 976.000 1576.000 M1133.384 1523.732 C 1116.808 1533.373,1111.412 1539.272,1105.854 1553.825 C 1093.314 1586.662,1105.782 1617.443,1136.623 1629.783 C 1204.373 1656.891,1252.923 1562.889,1190.953 1524.589 C 1168.049 1510.434,1156.541 1510.262,1133.384 1523.732 M1547.559 1515.579 L 1625.117 1518.549 1638.317 1532.952 C 1653.953 1550.014,1658.852 1570.707,1652.374 1592.330 C 1645.886 1613.985,1632.792 1627.701,1614.000 1632.529 C 1605.200 1634.790,1540.400 1637.617,1470.000 1638.811 L 1342.000 1640.982 1342.000 1576.493 L 1342.000 1512.004 1406.000 1512.307 C 1441.200 1512.473,1504.901 1513.946,1547.559 1515.579 " fill="#1D1E23" stroke="none" fill-rule="evenodd"/></svg>