<svg viewBox="0 0 2400 2400" fill="none" xmlns="http://www.w3.org/2000/svg"><path d="M1065.938 202.994 L 969.876 204.138 918.935 357.069 L 867.993 510.000 836.997 525.891 C 819.949 534.631,783.171 555.587,755.270 572.459 L 704.540 603.136 677.589 597.487 C 618.974 585.200,424.820 548.295,405.634 545.793 L 385.268 543.138 335.142 628.569 C 267.638 743.619,222.196 823.266,211.507 845.267 L 202.671 863.454 231.002 896.727 C 246.584 915.027,293.663 968.700,335.622 1016.000 L 411.910 1102.000 411.955 1200.085 L 412.000 1298.170 345.590 1374.085 C 309.064 1415.838,262.165 1470.128,241.370 1494.728 L 203.560 1539.456 211.858 1555.721 C 222.792 1577.153,343.453 1788.932,368.374 1830.431 L 387.849 1862.861 545.175 1831.365 L 702.500 1799.869 754.250 1830.080 C 782.713 1846.696,820.519 1867.730,838.264 1876.823 L 870.529 1893.354 921.591 2046.716 L 972.654 2200.078 1161.117 2199.039 L 1349.581 2198.000 1399.367 2045.550 L 1449.153 1893.101 1471.577 1882.133 C 1483.909 1876.100,1512.900 1860.212,1536.000 1846.826 C 1559.100 1833.440,1587.322 1817.363,1598.715 1811.098 L 1619.430 1799.708 1752.715 1825.396 C 1935.125 1860.552,1921.802 1859.199,1935.982 1844.019 C 1954.393 1824.310,2075.201 1619.981,2104.360 1559.231 L 2113.369 1540.463 2102.483 1524.012 C 2091.600 1507.568,2035.872 1442.198,1952.431 1348.000 L 1908.141 1298.000 1908.071 1199.646 L 1908.000 1101.291 1998.528 997.646 C 2048.318 940.641,2095.454 886.205,2103.274 876.678 L 2117.492 859.355 2104.028 834.678 C 2083.295 796.680,2000.764 655.769,1965.334 597.876 C 1933.767 546.297,1933.495 545.995,1917.793 545.056 C 1909.107 544.538,1837.596 557.234,1758.880 573.272 L 1615.759 602.430 1566.880 573.067 C 1539.996 556.917,1502.700 535.482,1484.000 525.434 L 1450.000 507.165 1398.000 353.589 L 1346.000 200.014 1254.000 200.932 C 1203.400 201.438,1118.772 202.366,1065.938 202.994 M1411.969 721.979 C 1429.701 734.267,1446.987 754.342,1457.452 774.801 C 1465.372 790.285,1466.389 845.097,1459.202 869.087 C 1453.253 888.941,1420.326 925.630,1398.431 936.800 C 1374.499 949.010,1324.618 949.135,1300.000 937.047 C 1271.651 923.127,1253.427 905.709,1241.273 880.918 C 1231.740 861.473,1230.060 853.150,1230.187 826.000 C 1230.362 788.787,1238.666 766.355,1261.708 740.850 C 1287.012 712.841,1303.065 707.232,1352.759 709.030 C 1391.963 710.450,1396.886 711.526,1411.969 721.979 M1134.826 766.508 L 1158.825 769.017 1161.364 815.508 C 1162.760 841.079,1165.658 868.057,1167.804 875.461 L 1171.706 888.922 942.853 887.060 C 682.030 884.939,687.978 885.623,672.743 856.000 C 665.668 842.244,664.002 833.976,665.676 820.931 C 668.449 799.321,677.534 781.615,689.041 775.395 C 702.728 767.998,1077.583 760.525,1134.826 766.508 M1591.633 767.927 C 1630.156 772.356,1639.771 778.658,1650.377 806.430 C 1661.958 836.754,1649.572 866.738,1620.436 878.911 C 1612.614 882.180,1589.066 885.798,1568.107 886.953 L 1530.000 889.053 1530.000 826.527 L 1530.000 764.000 1544.000 764.030 C 1551.700 764.047,1573.135 765.801,1591.633 767.927 M1315.938 775.452 C 1289.057 789.825,1280.194 820.342,1294.280 850.025 C 1312.693 888.827,1371.229 895.127,1393.975 860.755 C 1413.543 831.187,1409.615 804.783,1382.049 780.580 C 1370.302 770.265,1364.314 768.000,1348.798 768.000 C 1337.993 768.000,1323.896 771.197,1315.938 775.452 M1026.955 1092.490 C 1044.452 1100.931,1071.891 1128.935,1083.307 1150.000 C 1093.596 1168.986,1092.358 1233.146,1081.300 1254.000 C 1060.872 1292.523,1027.433 1314.486,982.872 1318.647 C 930.339 1323.553,883.747 1297.017,863.904 1250.890 C 850.146 1218.909,851.218 1174.828,866.474 1145.189 C 879.343 1120.187,907.167 1094.334,930.636 1085.571 C 951.677 1077.716,1004.145 1081.484,1026.955 1092.490 M791.901 1150.260 C 789.755 1155.904,788.000 1184.049,788.000 1212.805 L 788.000 1265.090 750.536 1263.130 C 704.565 1260.726,685.833 1252.711,673.101 1230.000 C 668.168 1221.200,664.102 1207.972,664.066 1200.605 C 663.981 1183.332,674.595 1161.105,686.722 1153.159 C 697.439 1146.137,728.869 1141.305,768.901 1140.524 L 795.802 1140.000 791.901 1150.260 M946.000 1147.542 C 902.801 1167.430,903.926 1234.126,947.795 1253.907 C 967.738 1262.901,987.745 1260.195,1006.376 1245.984 C 1023.743 1232.738,1032.000 1216.695,1032.000 1196.199 C 1032.000 1182.795,1029.395 1177.395,1016.904 1164.904 C 1004.139 1152.139,978.526 1139.765,965.536 1140.088 C 963.591 1140.136,954.800 1143.490,946.000 1147.542 M1613.648 1147.879 C 1634.823 1152.711,1652.069 1170.619,1654.575 1190.374 C 1656.090 1202.315,1653.898 1211.188,1645.279 1228.000 C 1627.573 1262.536,1638.242 1261.150,1375.169 1263.093 L 1148.338 1264.767 1152.169 1251.410 C 1154.276 1244.064,1156.000 1215.700,1156.000 1188.380 L 1156.000 1138.708 1377.000 1141.508 C 1498.550 1143.048,1605.042 1145.915,1613.648 1147.879 M1214.000 1466.998 C 1234.195 1477.504,1256.424 1500.751,1268.507 1524.000 C 1282.785 1551.473,1281.995 1597.865,1266.719 1628.974 C 1246.075 1671.014,1216.371 1691.286,1169.956 1695.012 C 1119.288 1699.079,1076.288 1675.281,1052.780 1630.161 C 1043.720 1612.771,1042.273 1605.051,1042.255 1574.000 C 1042.239 1546.543,1044.001 1534.678,1049.680 1524.000 C 1066.282 1492.783,1095.865 1466.860,1122.463 1460.219 C 1147.760 1453.903,1195.645 1457.450,1214.000 1466.998 M976.000 1576.000 L 976.000 1640.000 880.424 1640.000 C 781.163 1640.000,709.137 1634.930,692.229 1626.752 C 658.156 1610.273,658.382 1543.384,692.571 1525.705 C 707.124 1518.179,780.246 1513.539,899.000 1512.605 L 976.000 1512.000 976.000 1576.000 M1537.814 1515.724 L 1625.629 1519.089 1636.601 1531.369 C 1667.950 1566.454,1655.673 1619.779,1613.491 1631.748 C 1604.745 1634.230,1542.703 1637.262,1471.000 1638.713 L 1344.000 1641.281 1344.000 1576.641 L 1344.000 1512.000 1397.000 1512.179 C 1426.150 1512.278,1489.516 1513.873,1537.814 1515.724 M1133.645 1523.564 C 1103.867 1541.722,1093.597 1572.248,1107.562 1601.095 C 1133.088 1653.825,1210.871 1639.914,1218.745 1581.211 C 1224.877 1535.490,1172.392 1499.936,1133.645 1523.564 " fill="#1D1E23" stroke="none" fill-rule="evenodd"/></svg>