<svg viewBox="0 0 2400 2400" fill="none" xmlns="http://www.w3.org/2000/svg"><path d="M1154.000 204.654 C 1143.000 206.721,1118.700 215.710,1100.000 224.629 L 1066.000 240.845 818.809 487.423 C 682.854 623.040,565.131 743.716,557.202 755.592 C 549.274 767.467,538.171 789.967,532.530 805.592 C 523.812 829.740,522.253 840.898,522.137 880.000 C 522.024 918.013,523.617 930.680,531.312 952.957 C 536.433 967.783,542.480 981.060,544.749 982.463 C 547.018 983.865,572.077 961.861,600.437 933.564 C 646.608 887.496,652.000 880.673,652.000 868.321 C 652.000 860.733,655.557 847.207,659.904 838.263 C 671.121 815.183,1140.519 346.598,1160.872 338.163 C 1169.051 334.774,1186.659 332.000,1200.000 332.000 C 1213.341 332.000,1230.949 334.774,1239.128 338.163 C 1259.481 346.598,1728.879 815.183,1740.096 838.263 C 1750.552 859.776,1750.664 899.936,1740.331 922.000 C 1735.246 932.858,1655.245 1015.355,1491.419 1178.680 C 1258.212 1411.174,1249.261 1419.575,1228.274 1425.680 C 1201.342 1433.514,1198.534 1433.509,1171.836 1425.581 C 1154.447 1420.417,1144.297 1413.398,1119.935 1389.690 L 1089.651 1360.219 1043.825 1406.302 L 998.000 1452.384 1034.044 1487.471 C 1058.940 1511.705,1078.117 1526.466,1096.044 1535.192 C 1164.433 1568.483,1234.626 1568.554,1304.000 1535.403 C 1327.603 1524.124,1352.997 1500.071,1579.460 1274.489 C 1736.784 1117.777,1834.682 1017.242,1844.519 1002.289 C 1886.607 938.312,1890.756 851.883,1855.330 777.065 C 1843.426 751.923,1824.447 731.906,1588.258 495.384 L 1334.000 240.769 1300.000 224.660 C 1250.564 201.237,1205.230 195.025,1154.000 204.654 M1443.970 795.855 C 1416.409 799.464,1396.612 805.835,1366.000 820.948 C 1345.348 831.144,1307.203 867.478,1092.565 1081.398 C 955.375 1218.129,837.060 1339.310,829.641 1350.689 C 812.221 1377.407,796.803 1423.650,793.703 1458.477 C 790.500 1494.461,799.451 1536.886,818.498 1576.000 C 831.769 1603.251,842.576 1615.529,936.455 1710.000 L 1039.803 1814.000 1085.882 1768.084 L 1131.962 1722.169 1034.500 1624.084 C 954.481 1543.554,935.782 1522.618,930.016 1507.104 C 921.738 1484.834,923.128 1453.210,933.320 1431.891 C 937.240 1423.693,1041.847 1316.307,1183.033 1175.545 C 1445.307 914.058,1433.851 923.874,1476.464 924.088 C 1502.469 924.218,1526.770 937.196,1557.021 967.108 L 1584.042 993.827 1630.010 947.991 L 1675.977 902.154 1645.564 871.561 C 1628.836 854.735,1604.092 834.393,1590.575 826.356 C 1547.961 801.017,1492.564 789.492,1443.970 795.855 M826.404 846.108 C 813.427 849.395,790.927 857.772,776.404 864.722 C 752.203 876.304,728.618 898.745,493.731 1133.679 C 255.511 1371.948,236.562 1391.903,224.680 1417.021 C 191.916 1486.281,191.917 1550.943,224.683 1620.000 L 240.815 1654.000 493.407 1906.593 L 746.000 2159.185 780.000 2175.317 C 849.086 2208.097,913.843 2208.085,982.979 2175.282 C 1007.985 2163.417,1028.584 2143.949,1259.203 1914.230 C 1398.063 1775.913,1514.887 1656.285,1523.041 1644.060 C 1549.752 1604.015,1557.551 1576.619,1557.790 1522.000 C 1557.966 1481.772,1556.492 1469.635,1548.688 1447.043 C 1543.567 1432.217,1537.521 1418.940,1535.253 1417.538 C 1532.984 1416.136,1508.827 1437.237,1481.570 1464.429 C 1441.732 1504.172,1431.553 1516.627,1429.669 1527.934 C 1423.279 1566.299,1427.372 1561.684,1178.538 1811.108 C 1012.092 1977.948,932.782 2054.748,921.060 2060.436 C 901.447 2069.953,869.021 2071.510,845.637 2064.058 C 832.979 2060.024,784.416 2013.636,590.700 1820.537 C 418.457 1648.842,348.682 1576.713,341.700 1563.133 C 330.151 1540.670,328.575 1504.007,338.163 1480.872 C 347.467 1458.424,815.745 989.999,840.000 978.878 C 862.636 968.498,900.552 968.035,920.215 977.896 C 927.797 981.699,952.451 1003.048,975.003 1025.337 L 1016.006 1065.863 1062.003 1019.997 L 1108.000 974.131 1065.000 930.905 C 1016.902 882.555,995.691 867.296,956.715 853.005 C 922.487 840.455,861.471 837.226,826.404 846.108 M768.933 1133.064 L 723.997 1178.128 769.063 1223.065 L 814.128 1268.003 859.997 1222.003 L 905.867 1176.003 862.001 1132.001 C 837.876 1107.801,817.176 1088.000,816.003 1088.000 C 814.830 1088.000,793.648 1108.279,768.933 1133.064 M1812.955 1133.042 L 1768.041 1178.084 1910.107 1320.042 C 2001.169 1411.034,2055.015 1467.839,2060.087 1478.263 C 2071.619 1501.964,2070.845 1538.733,2058.300 1563.133 C 2051.318 1576.713,1981.543 1648.842,1809.300 1820.537 C 1552.946 2076.074,1560.685 2069.416,1520.000 2069.416 C 1483.736 2069.416,1474.310 2063.256,1403.893 1993.536 L 1337.787 1928.083 1291.893 1974.208 L 1246.000 2020.333 1318.000 2091.242 C 1378.272 2150.599,1394.409 2164.267,1417.065 2175.147 C 1489.955 2210.153,1567.015 2207.045,1638.478 2166.219 C 1651.301 2158.894,1743.993 2069.090,1908.581 1904.533 L 2159.162 1654.000 2175.306 1620.000 C 2208.114 1550.902,2208.092 1486.018,2175.235 1417.021 C 2163.621 1392.631,2147.759 1375.296,2012.350 1239.000 C 1929.841 1155.950,1861.329 1088.000,1860.101 1088.000 C 1858.874 1088.000,1837.658 1108.269,1812.955 1133.042 M1244.919 1205.078 L 1199.969 1250.157 1231.999 1281.999 L 1264.029 1313.841 1310.003 1267.997 L 1355.977 1222.154 1325.082 1191.077 C 1308.090 1173.985,1293.216 1160.000,1292.029 1160.000 C 1290.841 1160.000,1269.642 1180.285,1244.919 1205.078 " fill="#1D1E23" stroke="none" fill-rule="evenodd"/></svg>