<svg viewBox="0 0 2400 2400" fill="none" xmlns="http://www.w3.org/2000/svg"><path d="M512.000 404.279 L 512.000 608.559 523.509 625.279 C 549.793 663.465,601.205 699.862,629.000 699.961 L 640.000 700.000 640.000 512.000 L 640.000 324.000 1202.000 324.000 L 1764.000 324.000 1764.044 495.000 C 1764.090 671.848,1765.313 695.220,1774.718 698.829 C 1784.038 702.405,1830.803 676.652,1851.115 656.759 C 1887.399 621.220,1885.629 633.629,1887.309 403.000 L 1888.788 200.000 1200.394 200.000 L 512.000 200.000 512.000 404.279 M311.603 456.137 C 268.051 461.227,234.717 484.184,210.246 525.941 L 200.000 543.425 200.000 1224.784 L 200.000 1906.143 210.049 1920.931 C 224.398 1942.048,247.077 1947.951,325.000 1950.851 L 388.000 1953.195 388.000 1608.597 L 388.000 1264.000 1199.978 1264.000 L 2011.955 1264.000 2012.978 1607.000 L 2014.000 1950.000 2046.000 1951.223 C 2088.085 1952.831,2153.420 1945.599,2170.643 1937.427 C 2178.183 1933.849,2187.423 1925.314,2191.176 1918.461 C 2197.536 1906.848,2197.982 1859.579,2197.733 1224.000 L 2197.466 542.000 2189.098 526.000 C 2178.874 506.452,2147.394 474.513,2130.465 466.513 C 2118.528 460.872,2055.149 452.000,2026.786 452.000 L 2013.256 452.000 2010.633 517.000 C 2007.033 606.182,2000.073 648.996,1984.049 680.527 C 1956.291 735.152,1916.243 773.535,1856.000 803.254 L 1818.000 822.000 1202.433 823.038 L 586.866 824.075 546.433 804.673 C 481.302 773.419,444.795 737.617,412.657 673.480 C 397.981 644.194,392.899 610.182,389.276 517.000 L 386.748 452.000 362.374 452.526 C 348.968 452.815,326.121 454.440,311.603 456.137 M598.688 959.753 C 617.588 968.334,626.227 979.527,630.030 1000.363 C 635.830 1032.143,613.982 1067.415,584.485 1073.894 C 551.545 1081.128,508.855 1033.014,517.533 998.436 C 521.307 983.399,541.764 961.866,556.875 957.023 C 575.673 950.999,580.034 951.283,598.688 959.753 M512.000 1794.000 L 512.000 2200.000 1200.000 2200.000 L 1888.000 2200.000 1888.000 1794.000 L 1888.000 1388.000 1826.000 1388.000 L 1764.000 1388.000 1764.000 1732.000 L 1764.000 2076.000 1202.000 2076.000 L 640.000 2076.000 640.000 1732.000 L 640.000 1388.000 576.000 1388.000 L 512.000 1388.000 512.000 1794.000 M700.000 1747.552 L 700.000 1952.280 741.000 1951.140 L 782.000 1950.000 783.092 1879.000 L 784.185 1808.000 822.261 1808.000 C 865.384 1808.000,912.655 1799.475,939.692 1786.823 C 964.740 1775.102,993.069 1745.882,999.111 1725.536 C 1005.392 1704.385,1005.405 1651.685,999.136 1630.464 C 992.966 1609.585,958.887 1574.668,934.456 1564.196 C 904.773 1551.472,874.196 1547.574,785.000 1545.142 L 700.000 1542.824 700.000 1747.552 M1068.000 1748.051 L 1068.000 1953.249 1135.000 1950.704 C 1248.637 1946.388,1279.206 1937.508,1319.403 1897.138 C 1360.257 1856.107,1373.710 1812.110,1371.227 1727.659 C 1369.824 1679.959,1369.033 1675.866,1356.154 1649.659 C 1339.362 1615.488,1304.390 1579.384,1275.182 1566.066 C 1247.637 1553.505,1216.875 1549.021,1135.000 1545.629 L 1068.000 1542.853 1068.000 1748.051 M1436.963 1747.000 L 1438.000 1950.000 1479.000 1951.140 L 1520.000 1952.280 1520.000 1868.140 L 1520.000 1784.000 1600.000 1784.000 L 1680.000 1784.000 1680.000 1750.000 L 1680.000 1716.000 1600.000 1716.000 L 1520.000 1716.000 1520.000 1664.000 L 1520.000 1612.000 1610.000 1612.000 L 1700.000 1612.000 1700.000 1578.000 L 1700.000 1544.000 1567.963 1544.000 L 1435.927 1544.000 1436.963 1747.000 M847.169 1616.054 C 886.338 1620.180,905.068 1627.047,911.881 1639.778 C 914.147 1644.011,916.000 1661.592,916.000 1678.847 C 916.000 1728.904,908.247 1734.237,829.000 1738.693 L 784.000 1741.224 784.000 1676.612 L 784.000 1612.000 797.000 1612.069 C 804.150 1612.107,826.726 1613.901,847.169 1616.054 M1222.832 1620.637 C 1243.480 1625.824,1266.067 1646.913,1277.544 1671.721 C 1284.938 1687.704,1285.963 1697.034,1285.702 1746.000 C 1285.413 1800.383,1285.049 1802.693,1273.103 1826.000 C 1266.337 1839.200,1256.520 1853.989,1251.287 1858.865 C 1238.178 1871.078,1211.082 1880.061,1179.000 1882.830 L 1152.000 1885.160 1152.000 1748.028 L 1152.000 1610.895 1179.000 1613.652 C 1193.850 1615.168,1213.574 1618.311,1222.832 1620.637 " fill="#1D1E23" stroke="none" fill-rule="evenodd"/></svg>