<svg viewBox="0 0 2400 2400" fill="none" xmlns="http://www.w3.org/2000/svg"><path d="M512.000 403.380 L 512.000 606.760 527.666 630.998 C 551.504 667.880,599.374 700.000,630.503 700.000 L 640.000 700.000 640.000 512.000 L 640.000 324.000 1202.000 324.000 L 1764.000 324.000 1764.000 501.740 C 1764.000 607.545,1765.579 683.632,1767.901 689.740 C 1772.768 702.540,1778.353 702.570,1805.027 689.940 C 1834.263 676.098,1865.466 647.751,1876.506 625.003 C 1885.695 606.073,1885.736 605.225,1887.345 403.000 L 1888.960 200.000 1200.480 200.000 L 512.000 200.000 512.000 403.380 M304.711 456.296 C 263.659 461.624,234.769 483.569,208.696 529.229 L 200.000 544.457 200.000 1224.757 L 200.000 1905.056 208.640 1919.036 C 223.288 1942.736,241.713 1947.993,319.986 1950.805 L 388.000 1953.249 388.000 1608.624 L 388.000 1264.000 1199.978 1264.000 L 2011.955 1264.000 2012.978 1607.000 L 2014.000 1950.000 2046.000 1951.191 C 2088.108 1952.759,2157.227 1945.640,2171.485 1938.266 C 2177.715 1935.045,2186.229 1927.367,2190.406 1921.204 C 2197.791 1910.309,2198.000 1891.316,2198.000 1232.000 C 2198.000 859.100,2196.616 547.501,2194.923 539.558 C 2191.035 521.305,2170.127 494.305,2145.117 475.238 C 2127.095 461.500,2122.890 460.183,2084.453 456.238 C 2061.738 453.907,2036.143 452.000,2027.576 452.000 L 2012.000 452.000 2011.965 487.000 C 2011.900 552.016,2004.398 631.066,1996.036 654.858 C 1971.602 724.377,1914.251 781.722,1839.038 811.839 L 1808.667 824.000 1199.334 823.927 L 590.000 823.854 557.682 810.539 C 497.303 785.664,456.028 750.415,423.927 696.310 C 415.342 681.840,405.526 662.068,402.115 652.373 C 395.402 633.294,388.092 548.472,388.035 489.000 L 388.000 452.000 359.000 452.507 C 343.050 452.786,318.620 454.491,304.711 456.296 M592.227 955.997 C 615.076 962.344,629.009 979.985,631.101 1005.213 C 633.561 1034.874,621.822 1057.745,598.765 1068.213 C 577.526 1077.855,574.270 1077.813,553.206 1067.616 C 521.236 1052.139,506.125 1009.056,523.451 982.780 C 532.152 969.584,544.374 960.421,559.275 955.924 C 573.986 951.485,576.000 951.489,592.227 955.997 M512.000 1794.000 L 512.000 2200.000 1200.000 2200.000 L 1888.000 2200.000 1888.000 1794.000 L 1888.000 1388.000 1826.000 1388.000 L 1764.000 1388.000 1764.000 1732.000 L 1764.000 2076.000 1202.000 2076.000 L 640.000 2076.000 640.000 1732.000 L 640.000 1388.000 576.000 1388.000 L 512.000 1388.000 512.000 1794.000 M700.000 1748.140 L 700.000 1952.280 741.000 1951.140 L 782.000 1950.000 783.092 1879.000 L 784.185 1808.000 821.092 1807.970 C 890.840 1807.913,938.326 1795.045,969.253 1767.822 C 996.811 1743.564,1005.455 1722.119,1005.455 1678.000 C 1005.455 1632.937,997.086 1613.107,966.131 1584.815 C 931.377 1553.052,887.817 1544.323,763.000 1544.108 L 700.000 1544.000 700.000 1748.140 M1068.000 1748.024 L 1068.000 1953.259 1139.000 1950.645 C 1242.190 1946.847,1274.265 1938.620,1310.614 1906.624 C 1357.713 1865.166,1373.699 1818.926,1371.393 1730.816 C 1370.026 1678.567,1369.716 1676.983,1354.990 1647.200 C 1344.356 1625.694,1333.131 1610.503,1316.493 1595.098 C 1274.538 1556.255,1249.179 1549.210,1137.000 1545.235 L 1068.000 1542.790 1068.000 1748.024 M1436.963 1747.000 L 1438.000 1950.000 1479.000 1951.140 L 1520.000 1952.280 1520.000 1868.140 L 1520.000 1784.000 1600.000 1784.000 L 1680.000 1784.000 1680.000 1750.000 L 1680.000 1716.000 1600.000 1716.000 L 1520.000 1716.000 1520.000 1664.000 L 1520.000 1612.000 1610.000 1612.000 L 1700.000 1612.000 1700.000 1578.000 L 1700.000 1544.000 1567.963 1544.000 L 1435.927 1544.000 1436.963 1747.000 M884.261 1620.183 C 892.104 1622.233,902.904 1628.575,908.261 1634.277 C 916.968 1643.546,918.000 1648.170,918.000 1677.902 C 918.000 1727.871,907.866 1734.808,829.000 1738.824 L 784.000 1741.116 784.000 1676.012 L 784.000 1610.908 827.000 1613.683 C 850.650 1615.208,876.417 1618.134,884.261 1620.183 M1226.000 1620.509 C 1248.821 1626.604,1272.602 1652.679,1281.690 1681.572 C 1287.552 1700.210,1288.629 1714.121,1287.299 1754.061 C 1285.737 1800.972,1284.950 1804.867,1271.827 1830.621 C 1259.550 1854.714,1255.506 1859.029,1235.745 1869.129 C 1219.357 1877.506,1205.386 1881.117,1182.745 1882.829 L 1152.000 1885.155 1152.000 1748.003 L 1152.000 1610.851 1181.000 1613.544 C 1196.950 1615.025,1217.200 1618.159,1226.000 1620.509 " fill="#1D1E23" stroke="none" fill-rule="evenodd"/></svg>