<svg viewBox="0 0 2400 2400" fill="none" xmlns="http://www.w3.org/2000/svg"><path d="M1135.288 260.154 C 1134.347 304.110,1132.598 321.172,1128.792 323.518 C 1125.927 325.284,1090.167 333.302,1049.324 341.335 C 958.152 359.267,895.156 379.894,822.000 415.768 C 721.931 464.839,649.149 515.900,581.212 584.696 C 532.975 633.542,508.292 663.772,472.223 718.179 C 403.603 821.683,358.171 939.203,336.213 1070.000 C 323.257 1147.176,331.060 1140.000,260.086 1140.000 L 200.000 1140.000 200.000 1202.000 L 200.000 1264.000 263.426 1264.000 L 326.851 1264.000 329.540 1293.000 C 335.445 1356.678,367.207 1471.174,402.018 1554.262 C 439.462 1643.635,500.787 1732.578,579.979 1812.369 C 664.308 1897.335,749.118 1956.474,846.000 1997.868 C 926.495 2032.261,1042.253 2064.456,1107.000 2070.460 L 1136.000 2073.149 1136.000 2136.574 L 1136.000 2200.000 1200.000 2200.000 L 1264.000 2200.000 1264.000 2136.517 L 1264.000 2073.034 1293.000 2070.290 C 1359.436 2064.005,1472.791 2032.466,1556.000 1997.115 C 1694.722 1938.180,1838.348 1816.753,1928.519 1682.174 C 1961.160 1633.458,2008.010 1536.726,2027.407 1478.000 C 2045.600 1422.916,2061.510 1354.491,2068.563 1301.000 L 2073.441 1264.000 2136.720 1264.000 L 2200.000 1264.000 2200.000 1202.000 L 2200.000 1140.000 2144.000 1140.000 C 2078.960 1140.000,2074.391 1137.858,2069.942 1105.288 C 2042.549 904.760,1960.925 732.589,1827.648 594.217 C 1756.705 520.561,1687.403 469.464,1598.000 424.893 C 1514.327 383.180,1443.495 359.735,1339.473 339.325 C 1305.083 332.577,1274.483 325.538,1271.473 323.682 C 1267.333 321.129,1265.686 305.650,1264.712 260.154 L 1263.424 200.000 1200.000 200.000 L 1136.576 200.000 1135.288 260.154 M1132.542 465.000 C 1132.841 472.150,1134.191 499.600,1135.542 526.000 L 1138.000 574.000 1201.000 575.102 L 1264.000 576.203 1264.000 514.202 L 1264.000 452.200 1275.000 454.183 C 1444.349 484.706,1538.528 521.722,1643.377 598.971 C 1741.081 670.956,1811.643 755.767,1867.801 868.717 C 1908.526 950.629,1933.868 1033.928,1942.116 1113.000 L 1944.932 1140.000 1884.466 1140.000 L 1824.000 1140.000 1824.000 1202.000 L 1824.000 1264.000 1885.749 1264.000 L 1947.497 1264.000 1945.340 1279.000 C 1912.158 1509.705,1796.188 1700.994,1616.604 1821.238 C 1532.328 1877.667,1424.278 1920.614,1313.006 1941.910 C 1262.460 1951.584,1264.000 1953.482,1264.000 1881.510 L 1264.000 1824.000 1227.000 1824.028 C 1206.650 1824.044,1177.850 1825.204,1163.000 1826.607 L 1136.000 1829.157 1136.000 1884.089 C 1136.000 1950.775,1135.694 1951.272,1098.970 1944.264 C 871.063 1900.770,699.354 1792.889,583.402 1620.344 C 536.268 1550.205,498.390 1468.619,477.432 1392.091 C 466.450 1351.988,451.973 1269.360,455.339 1265.994 C 456.436 1264.897,484.033 1264.000,516.667 1264.000 L 576.000 1264.000 576.000 1202.000 L 576.000 1140.000 515.448 1140.000 L 454.895 1140.000 457.610 1113.000 C 468.108 1008.571,516.267 878.370,579.036 784.718 C 693.454 614.004,860.849 505.034,1074.568 462.143 C 1135.415 449.931,1131.906 449.758,1132.542 465.000 M1075.569 886.646 C 938.699 1091.881,852.364 1223.958,842.081 1243.843 C 838.412 1250.938,836.468 1257.801,837.760 1259.094 C 839.611 1260.944,964.141 1264.843,1113.000 1267.711 C 1123.167 1267.907,1128.000 1269.833,1128.000 1273.689 C 1128.000 1279.444,1083.691 1387.293,1006.295 1569.923 C 983.004 1624.881,964.453 1671.360,965.070 1673.210 C 965.687 1675.060,971.376 1672.496,977.713 1667.511 C 992.666 1655.749,1548.000 1087.485,1548.000 1083.946 C 1548.000 1080.308,1432.712 1076.000,1335.361 1076.000 C 1274.453 1076.000,1256.037 1074.837,1256.161 1071.000 C 1256.249 1068.250,1278.299 1040.612,1305.161 1009.583 C 1332.022 978.554,1400.630 899.354,1457.622 833.583 C 1514.614 767.812,1563.943 710.850,1567.242 707.000 C 1572.942 700.348,1563.972 700.000,1386.641 700.000 L 1200.043 700.000 1075.569 886.646 " fill="#1D1E23" stroke="none" fill-rule="evenodd"/></svg>