<svg viewBox="0 0 2400 2400" fill="none" xmlns="http://www.w3.org/2000/svg"><path d="M1134.975 258.770 C 1133.228 305.438,1131.498 318.475,1126.572 322.077 C 1123.160 324.572,1088.335 333.367,1049.184 341.622 C 955.202 361.438,894.859 381.526,822.000 417.249 C 723.277 465.653,661.752 507.660,592.503 573.940 C 449.992 710.341,363.584 885.820,329.809 1107.423 C 325.172 1137.852,320.306 1140.000,256.000 1140.000 L 200.000 1140.000 200.000 1202.000 L 200.000 1264.000 263.121 1264.000 L 326.243 1264.000 331.022 1303.000 C 345.357 1419.969,403.335 1578.156,466.832 1673.541 C 533.944 1774.359,637.146 1876.465,735.813 1939.667 C 828.341 1998.938,987.437 2055.942,1097.000 2069.080 L 1136.000 2073.757 1136.000 2136.879 L 1136.000 2200.000 1200.000 2200.000 L 1264.000 2200.000 1264.000 2136.000 L 1264.000 2072.000 1277.000 2071.987 C 1335.168 2071.930,1492.836 2027.103,1578.000 1986.409 C 1714.392 1921.237,1841.078 1810.813,1929.085 1680.392 C 1951.035 1647.864,1996.361 1559.158,2013.946 1514.315 C 2037.959 1453.079,2063.615 1350.524,2070.312 1289.000 L 2073.033 1264.000 2136.517 1264.000 L 2200.000 1264.000 2200.000 1202.000 L 2200.000 1140.000 2150.597 1140.000 C 2098.709 1140.000,2077.617 1135.756,2074.383 1124.666 C 2073.314 1121.000,2068.682 1096.400,2064.089 1070.000 C 2021.057 822.642,1887.834 611.568,1692.000 480.473 C 1585.009 408.851,1482.246 368.558,1323.072 335.817 C 1299.462 330.961,1277.238 324.862,1273.685 322.264 C 1268.438 318.427,1266.812 306.507,1265.025 258.770 L 1262.825 200.000 1200.000 200.000 L 1137.175 200.000 1134.975 258.770 M1130.020 457.000 C 1130.993 459.750,1133.187 487.200,1134.895 518.000 L 1138.000 574.000 1201.000 575.102 L 1264.000 576.203 1264.000 514.202 L 1264.000 452.200 1277.000 454.505 C 1354.770 468.297,1434.505 490.131,1492.005 513.379 C 1594.532 554.832,1707.070 638.883,1776.689 726.000 C 1864.481 835.857,1927.985 985.226,1942.072 1115.000 L 1944.785 1140.000 1884.393 1140.000 L 1824.000 1140.000 1824.000 1202.000 L 1824.000 1264.000 1886.076 1264.000 L 1948.152 1264.000 1946.233 1273.000 C 1945.178 1277.950,1940.518 1302.620,1935.879 1327.823 C 1924.323 1390.596,1896.865 1471.802,1866.163 1534.000 C 1759.473 1750.144,1569.119 1890.638,1313.662 1941.782 C 1295.876 1945.343,1278.503 1947.175,1275.056 1945.852 C 1265.809 1942.303,1264.115 1931.394,1264.055 1875.000 L 1264.000 1824.000 1230.604 1824.000 C 1212.235 1824.000,1183.567 1825.153,1166.896 1826.562 L 1136.585 1829.124 1135.293 1884.374 C 1134.433 1921.113,1132.357 1941.263,1129.095 1944.517 C 1118.861 1954.726,984.816 1919.624,907.506 1886.491 C 829.295 1852.971,774.712 1818.915,707.882 1761.941 C 617.200 1684.633,530.987 1553.577,489.887 1430.556 C 475.138 1386.410,456.264 1300.645,456.094 1277.000 L 456.000 1264.000 516.000 1264.000 L 576.000 1264.000 576.000 1202.000 L 576.000 1140.000 516.000 1140.000 C 446.187 1140.000,452.149 1146.198,462.130 1084.000 C 489.019 916.425,578.062 752.816,702.000 643.263 C 805.316 551.938,926.661 493.349,1078.000 461.719 C 1131.272 450.585,1127.860 450.895,1130.020 457.000 M1075.569 886.646 C 880.500 1179.149,832.611 1253.944,837.360 1258.693 C 838.432 1259.765,902.915 1262.526,980.655 1264.827 C 1058.395 1267.129,1123.444 1270.318,1125.209 1271.915 C 1128.932 1275.283,1109.810 1323.949,1034.014 1504.000 C 964.369 1669.442,963.394 1672.000,969.987 1672.000 C 974.343 1672.000,1096.601 1548.071,1503.166 1131.534 C 1544.709 1088.972,1547.741 1084.859,1539.259 1082.572 C 1534.167 1081.199,1470.600 1078.918,1398.000 1077.503 C 1325.400 1076.088,1263.791 1073.773,1261.091 1072.358 C 1254.362 1068.830,1266.768 1053.625,1429.416 866.071 C 1542.480 735.694,1566.804 705.627,1561.054 703.352 C 1557.174 701.818,1474.360 700.436,1377.021 700.281 L 1200.043 700.000 1075.569 886.646 " fill="#1D1E23" stroke="none" fill-rule="evenodd"/></svg>