<svg viewBox="0 0 2400 2400" fill="none" xmlns="http://www.w3.org/2000/svg"><path d="M300.000 502.737 C 287.900 503.429,271.988 505.008,264.641 506.246 C 248.405 508.982,218.426 535.563,207.565 556.852 C 199.960 571.759,199.827 585.996,200.903 1269.032 C 201.755 1810.573,203.099 1968.469,206.928 1977.072 C 209.639 1983.161,216.839 1990.358,222.928 1993.064 C 231.235 1996.755,300.175 1998.282,499.000 1999.178 L 764.000 2000.372 764.000 1250.186 L 764.000 500.000 543.000 500.740 C 421.450 501.147,312.100 502.046,300.000 502.737 M808.000 1250.000 L 808.000 2000.000 926.057 2000.000 L 1044.114 2000.000 1034.253 1985.000 C 1014.714 1955.275,1014.875 1958.751,1013.101 1529.000 L 1011.429 1124.000 1057.715 1124.000 L 1104.000 1124.000 1104.095 1077.000 C 1104.270 991.322,1111.370 889.387,1119.567 854.905 C 1131.489 804.749,1153.807 745.932,1174.478 710.195 C 1215.862 638.649,1278.211 572.040,1346.615 526.296 L 1385.939 500.000 1096.969 500.000 L 808.000 500.000 808.000 1250.000 M1578.000 504.312 C 1401.694 528.576,1251.205 651.447,1194.165 817.704 C 1173.452 878.076,1171.825 892.908,1169.236 1045.000 L 1166.802 1188.000 1121.246 1188.000 L 1075.690 1188.000 1076.845 1561.317 L 1078.000 1934.634 1090.106 1954.211 C 1097.607 1966.342,1109.659 1978.393,1121.791 1985.894 L 1141.371 1998.000 1634.794 1999.047 C 2083.212 1999.998,2129.393 1999.501,2141.109 1993.606 C 2159.102 1984.551,2183.243 1960.779,2192.339 1943.159 C 2199.725 1928.852,2200.000 1915.027,2200.000 1558.159 L 2200.000 1188.000 2154.457 1188.000 L 2108.913 1188.000 2106.889 1051.000 C 2105.152 933.471,2103.724 908.883,2096.839 878.000 C 2059.803 711.874,1949.960 585.411,1792.926 528.100 C 1732.595 506.082,1639.781 495.810,1578.000 504.312 M668.000 734.000 L 668.000 780.000 480.000 780.000 L 292.000 780.000 292.000 734.000 L 292.000 688.000 480.000 688.000 L 668.000 688.000 668.000 734.000 M1702.000 696.734 C 1730.376 702.703,1781.820 727.615,1810.209 749.137 C 1850.412 779.613,1886.577 831.553,1904.116 884.000 C 1913.659 912.538,1919.494 1002.028,1919.828 1125.000 L 1920.000 1188.000 1638.000 1188.000 L 1356.000 1188.000 1356.256 1101.000 C 1356.680 956.859,1360.651 907.388,1374.655 871.777 C 1400.151 806.945,1447.873 753.162,1506.549 723.132 C 1526.047 713.154,1548.789 702.814,1557.087 700.156 C 1592.339 688.862,1657.280 687.328,1702.000 696.734 M1600.000 755.560 C 1559.527 760.128,1524.274 779.368,1485.907 817.828 C 1427.968 875.910,1420.174 901.619,1420.069 1035.000 L 1420.000 1124.000 1560.154 1124.000 L 1700.308 1124.000 1699.154 942.330 C 1698.519 842.411,1696.986 759.648,1695.747 758.411 C 1691.785 754.454,1626.911 752.523,1600.000 755.560 M367.125 838.369 C 387.467 851.698,392.207 883.616,376.637 902.413 C 358.092 924.802,329.691 926.491,309.600 906.400 C 298.276 895.076,296.000 889.870,296.000 875.290 C 296.000 865.586,298.904 853.634,302.513 848.481 C 316.335 828.748,345.479 824.187,367.125 838.369 M501.730 834.677 C 529.984 848.150,535.172 885.443,512.014 908.602 C 502.815 917.801,497.095 920.000,482.371 920.000 C 434.002 920.000,418.545 855.551,461.795 834.206 C 477.542 826.434,484.620 826.518,501.730 834.677 M642.086 834.309 C 655.789 840.812,668.000 860.364,668.000 875.803 C 668.000 889.840,656.738 907.413,643.281 914.372 C 617.005 927.960,584.550 913.521,577.408 885.066 C 572.971 867.387,583.970 843.014,600.000 835.006 C 617.280 826.374,625.092 826.244,642.086 834.309 " fill="#1D1E23" stroke="none" fill-rule="evenodd"/></svg>