<svg viewBox="0 0 2400 2400" fill="none" xmlns="http://www.w3.org/2000/svg"><path d="M674.000 203.700 C 643.489 206.323,635.153 209.758,620.000 225.954 L 610.000 236.642 608.941 635.321 L 607.881 1034.000 623.231 1051.719 C 637.808 1068.545,639.976 1069.593,666.290 1072.514 C 681.531 1074.205,758.350 1075.682,837.000 1075.795 L 980.000 1076.000 980.000 1108.000 L 980.000 1140.000 636.785 1140.000 L 293.571 1140.000 273.184 1150.159 C 249.062 1162.180,218.626 1193.357,207.860 1217.072 C 200.433 1233.433,200.174 1248.543,200.127 1668.000 L 200.078 2102.000 209.787 2122.853 C 222.096 2149.292,248.006 2175.301,275.862 2189.182 L 297.571 2200.000 1200.000 2200.000 L 2102.429 2200.000 2124.138 2189.182 C 2151.994 2175.301,2177.904 2149.292,2190.213 2122.853 L 2199.922 2102.000 2199.873 1668.000 C 2199.818 1175.256,2202.980 1219.948,2165.326 1179.694 C 2128.150 1139.950,2162.888 1143.333,1767.216 1140.921 L 1420.000 1138.804 1420.000 1107.775 L 1420.000 1076.746 1585.180 1075.373 C 1769.900 1073.838,1761.898 1075.094,1782.174 1044.454 L 1792.334 1029.102 1790.985 637.551 C 1790.118 385.678,1788.183 241.760,1785.561 234.113 C 1783.025 226.717,1774.782 218.146,1763.742 211.427 L 1746.000 200.629 1224.000 200.961 C 936.900 201.144,689.400 202.377,674.000 203.700 M1732.000 638.000 L 1732.000 1012.000 1200.000 1012.000 L 668.000 1012.000 668.000 638.000 L 668.000 264.000 1200.000 264.000 L 1732.000 264.000 1732.000 638.000 M796.000 450.000 L 796.000 512.000 1200.000 512.000 L 1604.000 512.000 1604.000 450.000 L 1604.000 388.000 1200.000 388.000 L 796.000 388.000 796.000 450.000 M796.000 638.000 L 796.000 700.000 1200.000 700.000 L 1604.000 700.000 1604.000 638.000 L 1604.000 576.000 1200.000 576.000 L 796.000 576.000 796.000 638.000 M792.000 826.000 L 792.000 888.000 1136.000 888.000 L 1480.000 888.000 1480.000 826.000 L 1480.000 764.000 1136.000 764.000 L 792.000 764.000 792.000 826.000 M512.000 1358.000 L 512.000 1452.000 420.593 1452.000 L 329.186 1452.000 326.617 1419.000 C 325.204 1400.850,324.037 1358.550,324.024 1325.000 L 324.000 1264.000 418.000 1264.000 L 512.000 1264.000 512.000 1358.000 M824.000 1358.000 L 824.000 1452.000 732.593 1452.000 L 641.186 1452.000 638.617 1419.000 C 637.204 1400.850,636.037 1358.550,636.024 1325.000 L 636.000 1264.000 730.000 1264.000 L 824.000 1264.000 824.000 1358.000 M1139.976 1325.000 C 1139.963 1358.550,1138.796 1400.850,1137.383 1419.000 L 1134.814 1452.000 1044.000 1452.000 L 953.186 1452.000 950.617 1419.000 C 949.204 1400.850,948.037 1358.550,948.024 1325.000 L 948.000 1264.000 1044.000 1264.000 L 1140.000 1264.000 1139.976 1325.000 M1451.976 1325.000 C 1451.963 1358.550,1450.796 1400.850,1449.383 1419.000 L 1446.814 1452.000 1355.407 1452.000 L 1264.000 1452.000 1264.000 1358.000 L 1264.000 1264.000 1358.000 1264.000 L 1452.000 1264.000 1451.976 1325.000 M1763.976 1325.000 C 1763.963 1358.550,1762.796 1400.850,1761.383 1419.000 L 1758.814 1452.000 1667.407 1452.000 L 1576.000 1452.000 1576.000 1358.000 L 1576.000 1264.000 1670.000 1264.000 L 1764.000 1264.000 1763.976 1325.000 M2075.976 1325.000 C 2075.963 1358.550,2074.796 1400.850,2073.383 1419.000 L 2070.814 1452.000 1979.407 1452.000 L 1888.000 1452.000 1888.000 1358.000 L 1888.000 1264.000 1982.000 1264.000 L 2076.000 1264.000 2075.976 1325.000 M668.000 1670.000 L 668.000 1764.000 574.000 1764.000 L 480.000 1764.000 480.000 1670.000 L 480.000 1576.000 574.000 1576.000 L 668.000 1576.000 668.000 1670.000 M980.000 1670.000 L 980.000 1764.000 888.593 1764.000 L 797.186 1764.000 794.617 1731.000 C 793.204 1712.850,792.037 1670.550,792.024 1637.000 L 792.000 1576.000 886.000 1576.000 L 980.000 1576.000 980.000 1670.000 M1295.976 1637.000 C 1295.963 1670.550,1294.796 1712.850,1293.383 1731.000 L 1290.814 1764.000 1200.000 1764.000 L 1109.186 1764.000 1106.617 1731.000 C 1105.204 1712.850,1104.037 1670.550,1104.024 1637.000 L 1104.000 1576.000 1200.000 1576.000 L 1296.000 1576.000 1295.976 1637.000 M1607.976 1637.000 C 1607.963 1670.550,1606.796 1712.850,1605.383 1731.000 L 1602.814 1764.000 1511.407 1764.000 L 1420.000 1764.000 1420.000 1670.000 L 1420.000 1576.000 1514.000 1576.000 L 1608.000 1576.000 1607.976 1637.000 M1920.000 1670.000 L 1920.000 1764.000 1826.000 1764.000 L 1732.000 1764.000 1732.000 1670.000 L 1732.000 1576.000 1826.000 1576.000 L 1920.000 1576.000 1920.000 1670.000 M1700.000 1982.000 L 1700.000 2076.000 1200.000 2076.000 L 700.000 2076.000 700.000 1982.000 L 700.000 1888.000 1200.000 1888.000 L 1700.000 1888.000 1700.000 1982.000 " fill="#1D1E23" stroke="none" fill-rule="evenodd"/></svg>