<svg viewBox="0 0 2400 2400" fill="none" xmlns="http://www.w3.org/2000/svg"><path d="M893.183 203.767 L 640.365 206.020 624.183 221.822 L 608.000 237.624 608.000 635.079 L 608.000 1032.534 618.925 1046.858 C 639.242 1073.494,640.017 1073.604,819.000 1075.233 L 980.000 1076.698 980.000 1108.349 L 980.000 1140.000 637.841 1140.000 C 245.742 1140.000,284.307 1136.184,238.632 1179.500 C 198.788 1217.288,202.382 1171.061,200.762 1666.508 L 199.335 2103.016 208.167 2120.327 C 219.384 2142.314,257.337 2180.438,279.021 2191.501 L 295.681 2200.000 1200.000 2200.000 L 2104.319 2200.000 2120.979 2191.501 C 2142.799 2180.369,2180.640 2142.267,2192.010 2119.980 L 2201.019 2102.322 2199.062 1666.161 C 2197.603 1340.889,2195.889 1226.982,2192.321 1218.128 C 2185.455 1201.096,2161.540 1173.133,2143.799 1161.392 C 2130.533 1152.613,2121.937 1150.846,2077.282 1147.719 C 2049.077 1145.744,1889.650 1142.906,1723.000 1141.413 L 1420.000 1138.699 1420.000 1107.896 L 1420.000 1077.094 1583.000 1075.194 C 1764.042 1073.084,1760.693 1073.579,1781.890 1045.789 L 1793.088 1031.107 1791.038 638.553 C 1789.688 380.019,1787.563 242.443,1784.814 235.581 C 1782.518 229.851,1772.941 219.501,1763.532 212.581 L 1746.424 200.000 1446.212 200.757 C 1281.095 201.173,1032.232 202.527,893.183 203.767 M1732.000 638.000 L 1732.000 1012.000 1200.000 1012.000 L 668.000 1012.000 668.000 638.000 L 668.000 264.000 1200.000 264.000 L 1732.000 264.000 1732.000 638.000 M796.000 450.000 L 796.000 512.000 1200.000 512.000 L 1604.000 512.000 1604.000 450.000 L 1604.000 388.000 1200.000 388.000 L 796.000 388.000 796.000 450.000 M796.000 638.000 L 796.000 700.000 1200.000 700.000 L 1604.000 700.000 1604.000 638.000 L 1604.000 576.000 1200.000 576.000 L 796.000 576.000 796.000 638.000 M792.000 826.000 L 792.000 888.000 1136.000 888.000 L 1480.000 888.000 1480.000 826.000 L 1480.000 764.000 1136.000 764.000 L 792.000 764.000 792.000 826.000 M512.000 1358.000 L 512.000 1452.000 420.611 1452.000 L 329.222 1452.000 326.629 1407.000 C 325.203 1382.250,324.028 1339.950,324.018 1313.000 L 324.000 1264.000 418.000 1264.000 L 512.000 1264.000 512.000 1358.000 M824.000 1358.000 L 824.000 1452.000 732.611 1452.000 L 641.222 1452.000 638.629 1407.000 C 637.203 1382.250,636.028 1339.950,636.018 1313.000 L 636.000 1264.000 730.000 1264.000 L 824.000 1264.000 824.000 1358.000 M1139.982 1313.000 C 1139.972 1339.950,1138.797 1382.250,1137.371 1407.000 L 1134.778 1452.000 1044.000 1452.000 L 953.222 1452.000 950.629 1407.000 C 949.203 1382.250,948.028 1339.950,948.018 1313.000 L 948.000 1264.000 1044.000 1264.000 L 1140.000 1264.000 1139.982 1313.000 M1451.982 1313.000 C 1451.972 1339.950,1450.797 1382.250,1449.371 1407.000 L 1446.778 1452.000 1355.389 1452.000 L 1264.000 1452.000 1264.000 1358.000 L 1264.000 1264.000 1358.000 1264.000 L 1452.000 1264.000 1451.982 1313.000 M1763.982 1313.000 C 1763.972 1339.950,1762.797 1382.250,1761.371 1407.000 L 1758.778 1452.000 1667.389 1452.000 L 1576.000 1452.000 1576.000 1358.000 L 1576.000 1264.000 1670.000 1264.000 L 1764.000 1264.000 1763.982 1313.000 M2075.982 1313.000 C 2075.972 1339.950,2074.797 1382.250,2073.371 1407.000 L 2070.778 1452.000 1979.389 1452.000 L 1888.000 1452.000 1888.000 1358.000 L 1888.000 1264.000 1982.000 1264.000 L 2076.000 1264.000 2075.982 1313.000 M668.000 1670.000 L 668.000 1764.000 574.000 1764.000 L 480.000 1764.000 480.000 1670.000 L 480.000 1576.000 574.000 1576.000 L 668.000 1576.000 668.000 1670.000 M980.000 1670.000 L 980.000 1764.000 888.611 1764.000 L 797.222 1764.000 794.629 1719.000 C 793.203 1694.250,792.028 1651.950,792.018 1625.000 L 792.000 1576.000 886.000 1576.000 L 980.000 1576.000 980.000 1670.000 M1295.982 1625.000 C 1295.972 1651.950,1294.797 1694.250,1293.371 1719.000 L 1290.778 1764.000 1200.000 1764.000 L 1109.222 1764.000 1106.629 1719.000 C 1105.203 1694.250,1104.028 1651.950,1104.018 1625.000 L 1104.000 1576.000 1200.000 1576.000 L 1296.000 1576.000 1295.982 1625.000 M1607.982 1625.000 C 1607.972 1651.950,1606.797 1694.250,1605.371 1719.000 L 1602.778 1764.000 1511.389 1764.000 L 1420.000 1764.000 1420.000 1670.000 L 1420.000 1576.000 1514.000 1576.000 L 1608.000 1576.000 1607.982 1625.000 M1920.000 1670.000 L 1920.000 1764.000 1826.000 1764.000 L 1732.000 1764.000 1732.000 1670.000 L 1732.000 1576.000 1826.000 1576.000 L 1920.000 1576.000 1920.000 1670.000 M1700.000 1982.000 L 1700.000 2076.000 1200.000 2076.000 L 700.000 2076.000 700.000 1982.000 L 700.000 1888.000 1200.000 1888.000 L 1700.000 1888.000 1700.000 1982.000 " fill="#1D1E23" stroke="none" fill-rule="evenodd"/></svg>