<svg viewBox="0 0 2400 2400" fill="none" xmlns="http://www.w3.org/2000/svg"><path d="M1128.626 591.000 C 1073.747 681.135,1069.715 687.048,1065.803 683.137 C 1064.235 681.569,1062.046 667.621,1060.939 652.143 L 1058.925 624.000 997.463 624.000 L 936.000 624.000 936.000 772.487 L 936.000 920.974 911.000 964.867 L 886.000 1008.760 883.451 983.380 C 882.050 969.421,879.554 882.850,877.905 791.000 L 874.908 624.000 813.454 624.000 L 752.000 624.000 752.000 931.738 L 752.000 1239.475 726.529 1281.881 C 702.147 1322.473,700.954 1323.768,698.628 1312.142 C 697.292 1305.462,694.960 1147.897,693.446 961.998 L 690.692 624.000 659.346 624.000 L 628.000 624.000 628.000 1036.387 L 628.000 1448.775 516.523 1641.387 C 372.557 1890.134,345.939 1936.517,336.199 1955.611 L 328.177 1971.334 357.089 1973.927 C 392.843 1977.134,2034.428 1974.907,2037.687 1971.647 C 2038.980 1970.354,2002.230 1902.942,1956.019 1821.844 C 1909.809 1740.746,1872.000 1672.954,1872.000 1671.196 C 1872.000 1669.438,1882.800 1668.000,1896.000 1668.000 L 1920.000 1668.000 1920.000 1514.000 L 1920.000 1360.000 1857.832 1360.000 L 1795.663 1360.000 1796.832 1391.000 L 1798.000 1422.000 1829.000 1423.168 L 1860.000 1424.337 1859.503 1505.168 C 1859.230 1549.626,1857.880 1598.600,1856.503 1614.000 L 1854.000 1642.000 1825.476 1596.000 C 1809.788 1570.700,1783.238 1526.877,1766.476 1498.615 L 1736.000 1447.231 1736.000 1403.615 L 1736.000 1360.000 1710.720 1360.000 L 1685.440 1360.000 1618.720 1244.770 L 1552.000 1129.539 1552.000 1060.770 L 1552.000 992.000 1510.859 992.000 L 1469.717 992.000 1456.976 966.163 C 1449.969 951.953,1445.533 939.558,1447.118 938.618 C 1448.703 937.679,1461.700 935.676,1476.000 934.167 C 1512.167 930.352,1514.381 929.405,1523.575 913.823 C 1529.463 903.842,1534.547 900.000,1541.865 900.000 L 1552.000 900.000 1552.000 778.266 L 1552.000 656.531 1541.000 655.266 C 1533.266 654.376,1528.219 650.277,1524.000 641.459 C 1518.774 630.536,1515.420 628.605,1498.000 626.494 C 1487.000 625.160,1459.550 624.054,1437.000 624.035 C 1396.792 624.001,1396.000 624.179,1396.000 633.264 C 1396.000 638.752,1390.517 647.382,1382.549 654.436 L 1369.098 666.345 1366.160 731.172 C 1364.545 766.828,1361.760 796.000,1359.972 796.000 C 1358.184 796.000,1332.903 755.050,1303.792 705.000 C 1228.914 576.261,1188.407 512.000,1182.135 512.000 C 1179.159 512.000,1155.080 547.550,1128.626 591.000 M200.000 1146.000 L 200.000 1668.000 292.000 1668.000 L 384.000 1668.000 384.000 1146.000 L 384.000 624.000 292.000 624.000 L 200.000 624.000 200.000 1146.000 M444.982 1053.000 L 446.000 1482.000 507.000 1483.104 L 568.000 1484.208 568.000 1054.104 L 568.000 624.000 505.982 624.000 L 443.964 624.000 444.982 1053.000 M1612.000 654.000 L 1612.000 684.000 1644.000 684.000 L 1676.000 684.000 1676.000 808.000 L 1676.000 932.000 1706.000 932.000 L 1736.000 932.000 1736.000 778.000 L 1736.000 624.000 1674.000 624.000 L 1612.000 624.000 1612.000 654.000 M1796.000 654.000 L 1796.000 684.000 1828.000 684.000 L 1860.000 684.000 1860.000 808.000 L 1860.000 932.000 1890.000 932.000 L 1920.000 932.000 1920.000 778.000 L 1920.000 624.000 1858.000 624.000 L 1796.000 624.000 1796.000 654.000 M2012.000 640.000 L 2012.000 656.000 1995.941 656.000 L 1979.883 656.000 1980.941 777.000 C 1981.994 897.310,1982.049 898.007,1990.582 899.223 C 2000.752 900.673,2010.596 910.839,2012.637 922.000 C 2014.014 929.527,2017.703 930.065,2075.050 931.104 L 2136.000 932.208 2136.000 916.104 L 2136.000 900.000 2152.000 900.000 L 2168.000 900.000 2168.000 778.000 L 2168.000 656.000 2152.000 656.000 L 2136.000 656.000 2136.000 640.000 L 2136.000 624.000 2074.000 624.000 L 2012.000 624.000 2012.000 640.000 M1492.000 776.000 L 1492.000 868.000 1460.000 868.000 L 1428.000 868.000 1428.000 776.000 L 1428.000 684.000 1460.000 684.000 L 1492.000 684.000 1492.000 776.000 M2104.000 776.000 L 2104.000 868.000 2074.000 868.000 L 2044.000 868.000 2044.000 776.000 L 2044.000 684.000 2074.000 684.000 L 2104.000 684.000 2104.000 776.000 M1230.250 828.000 C 1273.002 899.326,1615.386 1486.232,1717.735 1663.635 C 1799.039 1804.559,1817.807 1839.526,1814.120 1843.214 C 1807.664 1849.669,1581.746 1852.132,1089.332 1851.116 C 791.965 1850.502,547.574 1848.909,546.241 1847.576 C 542.149 1843.481,1090.809 900.700,1176.229 765.045 C 1181.579 756.549,1182.217 756.446,1188.677 763.045 C 1192.421 766.870,1211.129 796.100,1230.250 828.000 M1612.000 1022.000 L 1612.000 1052.000 1644.000 1052.000 L 1676.000 1052.000 1676.000 1176.000 L 1676.000 1300.000 1706.000 1300.000 L 1736.000 1300.000 1736.000 1146.000 L 1736.000 992.000 1674.000 992.000 L 1612.000 992.000 1612.000 1022.000 M1830.789 995.000 C 1829.863 996.650,1827.909 1003.005,1826.446 1009.121 C 1824.480 1017.344,1820.687 1020.863,1811.893 1022.621 L 1800.000 1025.000 1800.087 1145.500 L 1800.173 1266.000 1813.003 1272.000 C 1820.840 1275.665,1826.712 1281.892,1828.092 1288.000 L 1830.352 1298.000 1891.176 1299.104 L 1952.000 1300.208 1952.000 1284.104 L 1952.000 1268.000 1968.000 1268.000 L 1984.000 1268.000 1984.000 1146.266 L 1984.000 1024.531 1973.000 1023.266 C 1965.266 1022.376,1960.219 1018.277,1956.000 1009.459 C 1950.774 998.536,1947.420 996.605,1930.000 994.494 C 1901.703 991.064,1832.800 991.415,1830.789 995.000 M2044.000 1022.000 L 2044.000 1052.000 2074.000 1052.000 L 2104.000 1052.000 2104.000 1176.000 L 2104.000 1300.000 2136.000 1300.000 L 2168.000 1300.000 2168.000 1146.000 L 2168.000 992.000 2106.000 992.000 L 2044.000 992.000 2044.000 1022.000 M1920.000 1146.000 L 1920.000 1240.000 1890.000 1240.000 L 1860.000 1240.000 1860.000 1146.000 L 1860.000 1052.000 1890.000 1052.000 L 1920.000 1052.000 1920.000 1146.000 M2012.000 1376.000 L 2012.000 1392.000 1996.000 1392.000 L 1980.000 1392.000 1980.000 1514.000 L 1980.000 1636.000 1996.000 1636.000 L 2012.000 1636.000 2012.000 1652.000 L 2012.000 1668.000 2074.000 1668.000 L 2136.000 1668.000 2136.000 1652.000 L 2136.000 1636.000 2152.000 1636.000 L 2168.000 1636.000 2168.000 1514.000 L 2168.000 1392.000 2152.000 1392.000 L 2136.000 1392.000 2136.000 1376.000 L 2136.000 1360.000 2074.000 1360.000 L 2012.000 1360.000 2012.000 1376.000 M2104.000 1516.000 L 2104.000 1608.000 2074.000 1608.000 L 2044.000 1608.000 2044.000 1516.000 L 2044.000 1424.000 2074.000 1424.000 L 2104.000 1424.000 2104.000 1516.000 " fill="#1D1E23" stroke="none" fill-rule="evenodd"/></svg>