<svg viewBox="0 0 2400 2400" fill="none" xmlns="http://www.w3.org/2000/svg"><path d="M1122.000 604.080 L 1062.000 707.611 1060.865 665.806 L 1059.729 624.000 997.865 624.000 L 936.000 624.000 936.000 773.642 L 936.000 923.283 907.000 973.274 L 878.000 1023.266 876.963 823.633 L 875.926 624.000 813.963 624.000 L 752.000 624.000 752.000 931.496 L 752.000 1238.991 722.000 1290.397 L 692.000 1341.803 692.000 982.902 L 692.000 624.000 660.000 624.000 L 628.000 624.000 628.000 1037.724 L 628.000 1451.449 475.856 1712.247 C 392.177 1855.686,324.381 1973.714,325.198 1974.532 C 326.016 1975.349,712.984 1975.564,1185.127 1975.009 L 2043.568 1974.000 1955.876 1824.000 C 1907.646 1741.500,1868.143 1672.650,1868.092 1671.000 C 1868.042 1669.350,1879.700 1668.000,1894.000 1668.000 L 1920.000 1668.000 1920.000 1514.000 L 1920.000 1360.000 1857.832 1360.000 L 1795.663 1360.000 1796.832 1391.000 L 1798.000 1422.000 1829.000 1423.168 L 1860.000 1424.337 1860.000 1540.835 C 1860.000 1604.909,1859.280 1656.583,1858.400 1655.667 C 1857.521 1654.750,1829.621 1607.424,1796.400 1550.498 L 1736.000 1446.996 1736.000 1403.498 L 1736.000 1360.000 1710.614 1360.000 L 1685.228 1360.000 1618.614 1245.681 L 1552.000 1131.361 1552.000 1061.681 L 1552.000 992.000 1511.000 991.955 L 1470.000 991.910 1453.476 962.955 L 1436.953 934.000 1478.476 932.865 L 1520.000 931.729 1520.000 915.865 C 1520.000 900.023,1520.023 900.000,1536.000 900.000 L 1552.000 900.000 1552.000 778.241 L 1552.000 656.483 1537.000 655.241 C 1522.815 654.067,1521.933 653.185,1520.759 639.000 L 1519.517 624.000 1457.759 624.000 L 1396.000 624.000 1396.000 640.000 C 1396.000 655.601,1395.653 656.000,1382.085 656.000 L 1368.169 656.000 1367.085 734.341 L 1366.000 812.682 1278.134 661.921 C 1229.807 579.002,1188.407 508.772,1186.134 505.854 C 1183.020 501.858,1167.191 526.102,1122.000 604.080 M200.000 1146.000 L 200.000 1668.000 292.000 1668.000 L 384.000 1668.000 384.000 1146.000 L 384.000 624.000 292.000 624.000 L 200.000 624.000 200.000 1146.000 M444.982 1053.000 L 446.000 1482.000 507.000 1483.104 L 568.000 1484.208 568.000 1054.104 L 568.000 624.000 505.982 624.000 L 443.964 624.000 444.982 1053.000 M1612.000 654.000 L 1612.000 684.000 1644.000 684.000 L 1676.000 684.000 1676.000 808.000 L 1676.000 932.000 1706.000 932.000 L 1736.000 932.000 1736.000 778.000 L 1736.000 624.000 1674.000 624.000 L 1612.000 624.000 1612.000 654.000 M1796.000 654.000 L 1796.000 684.000 1828.000 684.000 L 1860.000 684.000 1860.000 808.000 L 1860.000 932.000 1890.000 932.000 L 1920.000 932.000 1920.000 778.000 L 1920.000 624.000 1858.000 624.000 L 1796.000 624.000 1796.000 654.000 M2012.000 640.000 L 2012.000 656.000 1995.941 656.000 L 1979.883 656.000 1980.941 777.000 L 1982.000 898.000 1996.772 899.228 C 2010.651 900.382,2011.618 901.349,2012.772 915.228 L 2014.000 930.000 2075.000 931.104 L 2136.000 932.208 2136.000 916.104 L 2136.000 900.000 2152.000 900.000 L 2168.000 900.000 2168.000 778.000 L 2168.000 656.000 2152.000 656.000 L 2136.000 656.000 2136.000 640.000 L 2136.000 624.000 2074.000 624.000 L 2012.000 624.000 2012.000 640.000 M1492.000 776.000 L 1492.000 868.000 1460.000 868.000 L 1428.000 868.000 1428.000 776.000 L 1428.000 684.000 1460.000 684.000 L 1492.000 684.000 1492.000 776.000 M2104.000 776.000 L 2104.000 868.000 2074.000 868.000 L 2044.000 868.000 2044.000 776.000 L 2044.000 684.000 2074.000 684.000 L 2104.000 684.000 2104.000 776.000 M1506.000 1296.906 C 1682.000 1598.676,1826.600 1847.024,1827.333 1848.790 C 1828.067 1850.555,1538.717 1852.000,1184.333 1852.000 C 829.950 1852.000,540.000 1850.976,540.000 1849.724 C 540.000 1845.535,1181.277 747.998,1183.655 748.117 C 1184.945 748.181,1330.000 995.136,1506.000 1296.906 M1612.000 1022.000 L 1612.000 1052.000 1644.000 1052.000 L 1676.000 1052.000 1676.000 1176.000 L 1676.000 1300.000 1706.000 1300.000 L 1736.000 1300.000 1736.000 1146.000 L 1736.000 992.000 1674.000 992.000 L 1612.000 992.000 1612.000 1022.000 M1828.000 1008.000 C 1828.000 1023.619,1827.667 1024.000,1814.000 1024.000 L 1800.000 1024.000 1800.000 1146.000 L 1800.000 1268.000 1813.759 1268.000 C 1826.770 1268.000,1827.584 1268.815,1828.759 1283.000 L 1830.000 1298.000 1891.000 1299.104 L 1952.000 1300.208 1952.000 1284.104 L 1952.000 1268.000 1968.000 1268.000 L 1984.000 1268.000 1984.000 1146.241 L 1984.000 1024.483 1969.000 1023.241 C 1954.815 1022.067,1953.933 1021.185,1952.759 1007.000 L 1951.517 992.000 1889.759 992.000 L 1828.000 992.000 1828.000 1008.000 M2044.000 1022.000 L 2044.000 1052.000 2074.000 1052.000 L 2104.000 1052.000 2104.000 1176.000 L 2104.000 1300.000 2136.000 1300.000 L 2168.000 1300.000 2168.000 1146.000 L 2168.000 992.000 2106.000 992.000 L 2044.000 992.000 2044.000 1022.000 M1920.000 1146.000 L 1920.000 1240.000 1890.000 1240.000 L 1860.000 1240.000 1860.000 1146.000 L 1860.000 1052.000 1890.000 1052.000 L 1920.000 1052.000 1920.000 1146.000 M2012.000 1376.000 L 2012.000 1392.000 1996.000 1392.000 L 1980.000 1392.000 1980.000 1514.000 L 1980.000 1636.000 1996.000 1636.000 L 2012.000 1636.000 2012.000 1652.000 L 2012.000 1668.000 2074.000 1668.000 L 2136.000 1668.000 2136.000 1652.000 L 2136.000 1636.000 2152.000 1636.000 L 2168.000 1636.000 2168.000 1514.000 L 2168.000 1392.000 2152.000 1392.000 L 2136.000 1392.000 2136.000 1376.000 L 2136.000 1360.000 2074.000 1360.000 L 2012.000 1360.000 2012.000 1376.000 M2104.000 1516.000 L 2104.000 1608.000 2074.000 1608.000 L 2044.000 1608.000 2044.000 1516.000 L 2044.000 1424.000 2074.000 1424.000 L 2104.000 1424.000 2104.000 1516.000 " fill="#1D1E23" stroke="none" fill-rule="evenodd"/></svg>