<svg viewBox="0 0 2400 2400" fill="none" xmlns="http://www.w3.org/2000/svg"><path d="M1269.588 207.959 C 1218.895 215.468,1142.196 271.823,1110.886 324.566 C 1079.597 377.274,1078.767 382.946,1077.008 556.000 L 1075.443 710.000 1107.721 678.094 L 1140.000 646.188 1140.000 549.094 L 1140.000 452.000 1638.000 452.000 L 2136.000 452.000 2136.000 1202.000 L 2136.000 1952.000 1638.000 1952.000 L 1140.000 1952.000 1140.000 1852.906 L 1140.000 1753.812 1107.744 1721.906 L 1075.489 1690.000 1077.036 1844.000 C 1078.386 1978.325,1079.499 2000.811,1085.742 2020.000 C 1099.655 2062.764,1116.014 2088.958,1149.533 2122.146 C 1184.335 2156.604,1212.462 2173.831,1260.720 2190.245 L 1289.401 2200.000 1577.701 2199.710 C 1736.265 2199.551,1899.300 2198.025,1940.000 2196.319 C 2006.560 2193.530,2016.537 2192.170,2039.231 2182.795 C 2107.044 2154.783,2161.592 2096.682,2188.357 2023.960 L 2200.855 1990.000 2199.060 1196.000 L 2197.265 402.000 2187.136 373.295 C 2164.570 309.344,2116.755 256.797,2052.000 224.785 L 2014.000 206.000 1652.000 205.468 C 1452.900 205.175,1280.815 206.297,1269.588 207.959 M1725.840 326.643 L 1780.945 329.286 1786.743 343.162 C 1795.014 362.957,1788.076 378.490,1768.540 383.917 C 1760.166 386.243,1700.116 387.965,1626.941 387.978 L 1499.882 388.000 1491.956 375.000 C 1487.597 367.850,1484.030 359.300,1484.030 356.000 C 1484.030 352.700,1487.597 344.150,1491.956 337.000 L 1499.882 324.000 1585.309 324.000 C 1632.293 324.000,1695.532 325.189,1725.840 326.643 M1400.821 561.178 L 1335.734 626.355 1346.302 636.178 C 1360.606 649.473,1415.498 717.809,1435.323 747.004 C 1458.122 780.576,1488.255 838.182,1512.049 893.681 C 1570.678 1030.435,1586.776 1205.045,1555.659 1366.710 C 1531.946 1489.908,1457.379 1638.239,1368.576 1738.860 L 1336.789 1774.877 1403.722 1841.722 L 1470.654 1908.567 1510.327 1861.926 C 1565.524 1797.035,1588.003 1766.348,1620.211 1711.919 C 1687.524 1598.167,1735.659 1460.542,1754.096 1329.126 C 1763.508 1262.040,1760.484 1093.950,1748.787 1034.000 C 1716.539 868.720,1654.598 724.900,1563.515 603.821 C 1530.430 559.841,1474.207 496.000,1468.559 496.000 C 1467.102 496.000,1436.620 525.330,1400.821 561.178 M1137.212 825.000 L 1072.515 890.000 1084.418 904.000 C 1139.144 968.361,1181.934 1057.507,1192.373 1128.904 C 1197.506 1164.003,1195.141 1250.186,1187.804 1295.457 C 1179.442 1347.049,1146.002 1414.939,1097.893 1477.991 L 1072.795 1510.885 1138.654 1576.442 L 1204.513 1642.000 1222.342 1622.519 C 1297.732 1540.142,1358.235 1416.960,1378.151 1305.298 C 1386.662 1257.574,1386.662 1142.426,1378.151 1094.702 C 1363.192 1010.831,1319.488 906.993,1270.108 838.000 C 1242.847 799.911,1209.381 760.000,1204.704 760.000 C 1203.167 760.000,1172.795 789.250,1137.212 825.000 M517.403 835.912 C 442.717 862.481,388.233 935.301,388.047 1008.803 C 387.816 1100.466,457.355 1181.523,549.296 1196.758 C 625.190 1209.334,705.300 1165.045,742.384 1090.011 C 756.086 1062.287,757.839 1055.218,759.301 1021.793 C 760.601 992.067,759.244 978.946,752.610 957.103 C 736.390 903.703,690.619 858.035,632.903 837.664 C 598.820 825.635,548.441 824.870,517.403 835.912 M415.635 1305.980 C 278.397 1331.895,210.816 1405.329,201.439 1538.726 L 198.819 1576.000 568.645 1576.000 C 858.499 1576.000,939.825 1574.919,944.735 1571.000 C 950.053 1566.754,950.477 1560.870,947.542 1532.000 C 942.217 1479.620,936.696 1458.318,919.592 1424.145 C 891.959 1368.934,842.848 1333.811,764.279 1313.067 C 727.451 1303.343,720.695 1302.909,586.000 1301.603 C 476.632 1300.543,439.356 1301.501,415.635 1305.980 M1353.664 2015.705 C 1365.130 2017.587,1375.552 2021.976,1378.664 2026.231 C 1386.274 2036.639,1385.258 2053.560,1376.364 2064.544 C 1369.167 2073.432,1366.153 2073.976,1324.043 2073.987 C 1283.969 2073.999,1278.756 2073.175,1273.506 2066.000 C 1263.241 2051.971,1262.389 2040.066,1270.840 2028.747 C 1282.814 2012.708,1309.659 2008.481,1353.664 2015.705 M1690.926 2025.897 C 1702.511 2039.365,1702.387 2048.256,1690.435 2061.153 C 1678.831 2073.673,1661.104 2077.417,1623.492 2075.292 C 1598.379 2073.873,1593.917 2072.384,1585.518 2062.619 C 1572.828 2047.866,1573.522 2037.862,1588.260 2023.125 L 1600.519 2010.865 1641.185 2013.106 C 1678.814 2015.180,1682.529 2016.135,1690.926 2025.897 M1999.827 2021.844 C 2008.266 2029.480,2011.026 2053.040,2004.658 2063.073 C 1992.508 2082.214,1903.956 2078.914,1891.201 2058.845 C 1882.404 2045.002,1895.550 2018.413,1913.080 2014.591 C 1917.986 2013.521,1937.672 2013.051,1956.827 2013.547 C 1984.225 2014.255,1993.398 2016.025,1999.827 2021.844 " fill="#1D1E23" stroke="none" fill-rule="evenodd"/></svg>