<svg viewBox="0 0 2400 2400" fill="none" xmlns="http://www.w3.org/2000/svg"><path d="M1224.967 508.390 C 1203.713 518.970,1201.331 527.402,1207.665 569.640 C 1213.228 606.740,1242.868 741.917,1259.052 804.000 L 1270.000 846.000 1298.000 849.200 C 1313.400 850.960,1368.300 851.736,1420.000 850.926 C 1503.514 849.617,1516.677 848.500,1538.000 840.913 C 1560.978 832.737,1572.389 832.207,1806.000 828.455 C 1961.881 825.951,2055.406 822.930,2064.969 820.089 C 2075.814 816.866,2080.640 812.843,2082.487 805.485 C 2088.840 780.172,2069.564 686.761,2049.916 647.644 C 2033.533 615.028,2005.721 577.713,1991.055 568.673 C 1974.358 558.380,1933.963 554.311,1568.000 526.065 C 1412.900 514.094,1276.100 503.312,1264.000 502.106 C 1246.542 500.365,1238.484 501.662,1224.967 508.390 M1582.000 880.021 C 1566.600 881.587,1548.600 885.118,1542.000 887.868 C 1534.519 890.984,1502.133 893.539,1456.000 894.651 C 1376.477 896.569,1364.000 897.874,1364.000 904.280 C 1364.000 912.158,1390.251 919.087,1438.000 923.813 C 1557.742 935.666,1608.356 959.063,1650.407 1022.000 C 1668.325 1048.817,1679.113 1081.723,1685.964 1130.458 C 1689.421 1155.042,1696.611 1183.293,1704.291 1202.458 C 1721.515 1245.447,1722.858 1250.587,1732.388 1310.000 C 1742.259 1371.539,1770.212 1510.685,1803.841 1665.684 L 1828.072 1777.368 1788.187 1837.910 C 1742.669 1907.002,1732.212 1927.748,1732.088 1949.199 C 1731.866 1987.520,1750.300 1997.704,1820.000 1997.768 C 1865.941 1997.809,1866.094 1997.777,1939.279 1972.904 C 2071.745 1927.884,2095.673 1915.268,2132.474 1871.048 C 2156.034 1842.737,2170.756 1814.618,2188.257 1764.499 L 2201.225 1727.363 2194.306 1694.681 C 2190.500 1676.707,2155.902 1527.900,2117.422 1364.000 C 2078.941 1200.100,2043.079 1044.965,2037.728 1019.255 C 2026.772 966.609,2025.305 922.227,2033.609 894.636 L 2039.217 876.000 1824.609 876.587 C 1706.574 876.909,1597.400 878.455,1582.000 880.021 M1550.090 1001.000 C 1571.297 1035.193,1581.086 1061.383,1586.895 1099.472 C 1595.806 1157.905,1598.628 1165.764,1620.440 1192.897 C 1647.837 1226.976,1675.352 1271.758,1678.468 1287.341 C 1679.879 1294.395,1682.794 1301.254,1684.945 1302.584 C 1687.209 1303.983,1687.934 1301.842,1686.667 1297.501 C 1685.462 1293.375,1682.401 1281.900,1679.864 1272.000 C 1677.327 1262.100,1669.041 1238.938,1661.450 1220.528 C 1652.544 1198.930,1645.568 1172.680,1641.782 1146.528 C 1627.711 1049.307,1615.203 1025.745,1560.000 992.469 C 1539.918 980.363,1538.205 981.837,1550.090 1001.000 M472.577 1051.647 C 453.643 1107.840,449.901 1113.083,411.302 1137.501 L 388.603 1151.860 331.302 1139.712 L 274.000 1127.564 265.796 1137.850 C 261.284 1143.507,244.485 1170.582,228.465 1198.018 L 199.338 1247.901 239.587 1292.950 L 279.836 1338.000 279.918 1374.728 L 280.000 1411.456 248.288 1447.429 C 201.234 1500.806,201.729 1499.802,212.183 1520.675 C 240.407 1577.027,269.758 1623.993,275.693 1622.301 C 279.162 1621.312,305.767 1615.797,334.816 1610.046 L 387.632 1599.589 418.726 1617.791 L 449.819 1635.992 469.946 1692.996 L 490.072 1750.000 560.000 1750.000 L 629.928 1750.000 650.383 1692.066 L 670.838 1634.131 701.541 1618.213 L 732.245 1602.295 788.022 1611.720 C 834.587 1619.589,844.851 1620.273,850.164 1615.864 C 856.961 1610.223,889.229 1557.097,906.202 1523.601 C 918.379 1499.571,920.130 1503.460,872.472 1448.663 L 840.000 1411.326 840.000 1374.657 L 840.000 1337.987 880.373 1292.961 L 920.747 1247.935 886.049 1189.968 C 845.599 1122.391,854.115 1126.214,778.893 1141.865 L 731.786 1151.666 710.893 1139.449 C 671.509 1116.419,665.267 1107.278,643.663 1041.000 L 630.299 1000.000 560.139 1000.000 L 489.980 1000.000 472.577 1051.647 M1246.000 1066.737 C 1222.147 1073.287,1200.279 1103.570,1200.088 1130.314 C 1199.953 1149.210,1218.513 1173.448,1288.059 1245.199 L 1351.602 1310.757 1192.080 1313.059 C 1053.118 1315.064,1030.703 1316.240,1018.170 1322.187 C 1000.155 1330.736,989.302 1344.330,983.572 1365.522 C 979.635 1380.084,980.186 1384.019,988.308 1399.365 C 993.363 1408.916,1003.880 1421.066,1011.678 1426.365 L 1025.857 1436.000 1191.434 1436.000 L 1357.010 1436.000 1292.933 1501.658 C 1200.265 1596.611,1191.404 1611.717,1208.118 1646.244 C 1220.273 1671.352,1247.533 1689.392,1269.166 1686.644 C 1292.238 1683.712,1314.057 1664.615,1466.550 1513.875 L 1606.000 1376.027 1461.283 1232.754 C 1381.689 1153.954,1309.371 1084.494,1300.576 1078.399 C 1284.767 1067.444,1261.518 1062.476,1246.000 1066.737 M609.046 1246.565 C 631.978 1253.920,667.674 1285.218,683.143 1311.532 C 693.175 1328.597,694.000 1333.344,694.000 1374.000 C 694.000 1412.365,692.811 1420.228,684.716 1435.398 C 654.767 1491.519,594.732 1523.087,538.855 1512.094 C 491.227 1502.724,457.420 1478.323,437.442 1438.899 C 425.077 1414.498,420.072 1361.063,427.566 1333.468 C 437.138 1298.225,477.969 1257.176,517.344 1243.212 C 540.880 1234.865,576.647 1236.173,609.046 1246.565 " fill="#1D1E23" stroke="none" fill-rule="evenodd"/></svg>