<svg viewBox="0 0 2400 2400" fill="none" xmlns="http://www.w3.org/2000/svg"><path d="M1233.701 506.324 C 1214.257 512.981,1204.000 525.066,1204.000 541.319 C 1204.000 558.962,1232.623 697.562,1252.877 778.000 L 1270.000 846.000 1294.000 849.244 C 1307.200 851.028,1362.100 851.677,1416.000 850.688 C 1493.583 849.263,1518.167 847.487,1534.000 842.165 C 1550.450 836.635,1581.688 834.773,1710.000 831.678 C 2035.270 823.829,2066.809 822.318,2075.841 814.144 C 2086.374 804.612,2086.467 782.118,2076.173 734.000 C 2061.671 666.205,2043.204 625.776,2009.743 588.559 C 1999.841 577.545,1985.948 566.710,1978.870 564.479 C 1955.325 557.061,1893.241 551.436,1512.000 522.184 C 1383.300 512.309,1271.565 503.492,1263.701 502.590 C 1255.837 501.687,1242.337 503.368,1233.701 506.324 M1622.000 880.174 C 1584.600 881.691,1547.700 885.008,1540.000 887.546 C 1532.300 890.083,1497.200 893.107,1462.000 894.266 C 1382.993 896.866,1363.038 899.115,1365.064 905.193 C 1367.413 912.238,1392.998 918.340,1451.310 925.762 C 1517.824 934.228,1542.651 940.533,1578.632 958.097 C 1598.493 967.792,1613.576 978.979,1627.867 994.616 C 1658.699 1028.351,1671.373 1056.970,1684.280 1122.000 C 1690.394 1152.800,1701.102 1193.300,1708.077 1212.000 C 1716.159 1233.667,1726.365 1277.297,1736.216 1332.283 C 1751.757 1419.030,1782.981 1572.348,1812.254 1705.650 L 1828.013 1777.415 1791.875 1832.405 C 1745.659 1902.729,1732.115 1929.456,1732.051 1950.461 C 1731.943 1985.580,1754.609 1997.405,1822.000 1997.386 C 1863.715 1997.375,1868.948 1996.397,1922.766 1978.543 C 2002.045 1952.243,2064.510 1927.073,2088.149 1911.905 C 2128.168 1886.224,2158.390 1842.935,2184.299 1774.180 C 2197.647 1738.760,2200.290 1727.420,2198.219 1714.466 C 2196.812 1705.671,2167.063 1575.969,2132.110 1426.238 C 2043.957 1048.620,2037.164 1018.457,2031.749 980.629 C 2026.958 947.164,2028.870 904.754,2036.017 885.955 L 2039.802 876.000 1864.901 876.708 C 1768.705 877.098,1659.400 878.658,1622.000 880.174 M1544.000 986.309 C 1544.000 987.734,1551.828 1004.536,1561.395 1023.647 C 1574.881 1050.587,1580.777 1069.059,1587.635 1105.861 C 1597.643 1159.562,1600.196 1165.525,1631.036 1207.227 C 1653.807 1238.018,1676.612 1278.345,1681.139 1295.825 C 1682.538 1301.229,1684.630 1304.703,1685.788 1303.546 C 1688.370 1300.963,1677.048 1261.565,1660.591 1215.870 C 1653.831 1197.098,1645.411 1164.698,1641.880 1143.870 C 1627.410 1058.508,1616.542 1033.592,1582.834 1008.499 C 1559.823 991.369,1544.000 982.328,1544.000 986.309 M474.511 1045.763 C 455.459 1102.191,447.484 1114.185,414.892 1135.419 L 389.156 1152.187 331.578 1139.899 L 274.000 1127.611 265.565 1138.163 C 260.926 1143.966,244.101 1171.001,228.176 1198.242 L 199.221 1247.770 239.528 1292.885 L 279.836 1338.000 279.918 1374.619 L 280.000 1411.237 244.000 1452.440 C 218.704 1481.391,208.020 1496.669,208.067 1503.821 C 208.136 1514.403,233.245 1564.052,256.465 1599.520 C 265.574 1613.434,272.573 1620.000,278.297 1620.000 C 282.931 1620.000,309.418 1615.402,337.157 1609.783 L 387.592 1599.566 418.706 1617.779 L 449.819 1635.992 469.946 1692.996 L 490.072 1750.000 560.000 1750.000 L 629.928 1750.000 650.130 1692.781 L 670.333 1635.561 700.166 1619.275 L 730.000 1602.988 784.695 1611.486 C 814.777 1616.159,842.171 1618.916,845.571 1617.611 C 852.601 1614.913,880.939 1571.935,900.266 1534.658 C 909.327 1517.182,912.507 1506.619,910.761 1499.793 C 909.383 1494.407,892.899 1472.289,874.128 1450.642 L 840.000 1411.284 840.000 1374.636 L 840.000 1337.987 880.520 1292.798 L 921.039 1247.609 889.112 1194.804 C 870.816 1164.545,852.831 1139.524,846.988 1136.201 C 837.838 1130.998,831.356 1131.504,783.812 1141.136 L 730.832 1151.870 707.086 1137.445 C 675.602 1118.319,664.347 1101.616,645.669 1046.298 L 630.037 1000.000 560.000 1000.000 L 489.963 1000.000 474.511 1045.763 M1238.000 1071.984 C 1215.779 1083.053,1202.000 1104.501,1202.000 1128.019 C 1202.000 1151.946,1215.073 1169.575,1291.404 1248.578 C 1322.532 1280.795,1348.000 1307.960,1348.000 1308.944 C 1348.000 1309.927,1279.150 1311.985,1195.000 1313.516 C 1110.763 1315.049,1034.935 1318.187,1026.280 1320.498 C 1006.915 1325.670,991.053 1342.037,984.630 1363.476 C 978.319 1384.538,984.613 1400.438,1007.400 1421.000 L 1024.023 1436.000 1190.954 1436.000 L 1357.885 1436.000 1307.654 1487.000 C 1237.902 1557.820,1215.933 1583.226,1206.973 1603.432 C 1199.634 1619.982,1199.578 1621.740,1205.855 1638.178 C 1213.684 1658.676,1238.053 1682.058,1255.606 1685.913 C 1279.914 1691.252,1298.143 1677.067,1425.107 1554.008 C 1491.598 1489.561,1559.459 1423.142,1575.908 1406.408 L 1605.816 1375.983 1569.908 1339.626 C 1484.614 1253.264,1303.755 1080.089,1293.353 1074.820 C 1272.473 1064.243,1255.304 1063.364,1238.000 1071.984 M616.000 1249.702 C 639.118 1261.747,663.499 1283.572,678.165 1305.350 L 692.000 1325.893 692.000 1374.326 L 692.000 1422.760 676.624 1446.550 C 648.579 1489.940,608.100 1512.985,560.000 1512.945 C 512.541 1512.906,465.361 1486.338,442.191 1446.604 C 423.116 1413.893,419.141 1349.877,434.213 1318.116 C 444.995 1295.394,473.284 1266.662,498.699 1252.619 C 521.250 1240.159,523.288 1239.787,562.000 1241.076 C 590.877 1242.037,605.893 1244.436,616.000 1249.702 " fill="#1D1E23" stroke="none" fill-rule="evenodd"/></svg>