<svg viewBox="0 0 2400 2400" fill="none" xmlns="http://www.w3.org/2000/svg"><path d="M1223.938 507.427 C 1194.656 523.031,1194.440 517.859,1231.439 686.707 C 1250.303 772.794,1267.109 840.586,1270.432 844.000 C 1275.297 848.996,1295.203 850.196,1389.442 851.172 L 1502.610 852.345 1534.305 841.341 L 1566.000 830.338 1819.325 828.169 C 2115.970 825.629,2086.074 831.780,2082.628 774.000 C 2078.195 699.670,2049.262 625.388,2008.456 583.578 C 1996.105 570.923,1981.500 559.560,1976.000 558.326 C 1967.916 556.513,1256.012 499.933,1241.938 499.985 C 1239.703 499.993,1231.603 503.342,1223.938 507.427 M1548.000 886.125 C 1520.319 895.138,1511.855 895.897,1438.512 895.946 L 1359.024 896.000 1364.854 904.779 C 1368.060 909.608,1373.229 914.844,1376.341 916.415 C 1379.454 917.986,1409.000 921.188,1442.000 923.529 C 1534.165 930.070,1580.094 945.993,1623.975 986.618 C 1663.262 1022.991,1687.396 1084.529,1687.860 1149.516 C 1687.966 1164.260,1692.335 1177.953,1705.728 1205.516 C 1724.356 1243.854,1732.000 1274.731,1732.000 1311.642 C 1732.000 1325.054,1751.067 1421.477,1780.258 1555.680 L 1828.516 1777.545 1781.546 1847.263 C 1739.062 1910.324,1734.410 1918.992,1732.830 1938.042 C 1731.870 1949.626,1733.195 1965.500,1735.775 1973.319 C 1742.382 1993.336,1758.197 1998.047,1818.000 1997.809 L 1866.000 1997.618 1954.000 1968.293 C 2002.400 1952.164,2051.000 1934.452,2062.000 1928.933 C 2090.316 1914.727,2123.575 1887.646,2141.376 1864.304 C 2159.327 1840.766,2184.917 1784.593,2194.724 1747.201 L 2201.678 1720.690 2112.386 1343.345 C 2027.205 983.370,2023.192 964.619,2025.208 936.000 C 2026.370 919.500,2030.198 899.250,2033.714 891.000 L 2040.107 876.000 1809.054 876.179 L 1578.000 876.358 1548.000 886.125 M1541.348 986.945 C 1542.640 989.035,1549.894 999.955,1557.468 1011.210 C 1576.768 1039.888,1588.385 1077.991,1592.050 1124.634 C 1594.380 1154.290,1597.072 1166.698,1602.590 1173.211 C 1606.665 1178.023,1618.805 1191.843,1629.567 1203.923 C 1658.525 1236.426,1668.329 1253.060,1678.661 1287.216 C 1687.244 1315.590,1687.792 1316.434,1685.667 1298.000 C 1682.551 1270.976,1673.501 1243.279,1657.414 1211.537 C 1645.792 1188.603,1643.495 1179.001,1640.191 1139.537 C 1633.887 1064.224,1618.204 1029.228,1578.900 1002.765 C 1557.827 988.576,1536.910 979.764,1541.348 986.945 M470.536 1058.236 C 454.283 1107.386,449.760 1117.050,441.547 1120.172 C 436.195 1122.207,422.170 1130.042,410.381 1137.584 L 388.946 1151.295 333.473 1139.697 C 302.963 1133.318,276.013 1128.076,273.585 1128.049 C 271.157 1128.022,253.540 1155.070,234.436 1188.155 L 199.702 1248.310 239.769 1293.155 L 279.836 1338.000 279.918 1374.801 L 280.000 1411.602 240.177 1456.394 C 204.716 1496.279,200.839 1502.107,204.787 1509.593 C 207.985 1515.656,266.079 1617.001,269.595 1622.650 C 269.818 1623.008,296.468 1617.966,328.817 1611.446 L 387.634 1599.591 418.817 1617.678 L 450.000 1635.766 470.000 1692.883 L 490.000 1750.000 560.000 1750.000 L 630.000 1750.000 650.000 1692.717 L 670.000 1635.434 694.000 1621.614 C 707.200 1614.013,720.798 1605.822,724.218 1603.411 C 728.888 1600.119,744.828 1602.015,788.218 1611.024 C 819.998 1617.622,847.235 1622.306,848.744 1621.432 C 850.740 1620.277,905.745 1527.261,918.309 1503.795 C 918.958 1502.582,901.604 1481.302,879.745 1456.505 L 840.000 1411.419 840.073 1374.710 L 840.146 1338.000 880.012 1293.225 L 919.878 1248.450 885.210 1188.225 C 866.143 1155.101,848.454 1128.000,845.902 1128.000 C 843.350 1128.000,816.483 1133.253,786.197 1139.673 L 731.133 1151.346 709.659 1137.609 C 697.848 1130.054,683.805 1122.207,678.453 1120.172 C 670.240 1117.050,665.717 1107.386,649.464 1058.236 L 630.206 1000.000 560.000 1000.000 L 489.794 1000.000 470.536 1058.236 M1238.000 1069.647 C 1205.618 1084.039,1191.837 1120.719,1206.040 1154.713 C 1209.662 1163.380,1240.403 1197.771,1282.800 1240.585 L 1353.520 1312.000 1193.608 1312.000 C 1035.727 1312.000,1033.468 1312.114,1015.848 1321.000 C 1002.868 1327.545,995.477 1334.910,988.750 1348.000 C 973.246 1378.172,981.501 1406.270,1011.959 1427.000 C 1025.149 1435.977,1025.606 1436.000,1191.551 1436.000 L 1357.919 1436.000 1285.109 1509.000 C 1195.963 1598.378,1188.357 1612.724,1209.211 1652.160 C 1219.538 1671.689,1245.094 1688.000,1265.366 1688.000 C 1291.565 1688.000,1309.072 1673.101,1457.980 1524.086 L 1605.960 1376.000 1455.980 1225.601 C 1372.374 1141.761,1300.304 1072.723,1293.128 1069.601 C 1277.100 1062.626,1253.752 1062.646,1238.000 1069.647 M609.837 1244.282 C 639.299 1255.306,672.495 1285.967,686.658 1315.239 C 696.117 1334.788,697.694 1343.090,697.835 1374.071 C 697.985 1406.877,696.820 1412.539,684.961 1436.640 C 669.761 1467.531,648.044 1488.695,616.480 1503.373 C 584.233 1518.369,535.767 1518.369,503.520 1503.373 C 471.968 1488.700,450.239 1467.530,435.039 1436.654 C 423.241 1412.690,422.000 1406.733,422.000 1374.084 C 422.000 1342.678,423.449 1335.049,433.177 1315.240 C 447.169 1286.747,480.882 1255.295,509.028 1244.478 C 537.816 1233.413,580.564 1233.330,609.837 1244.282 " fill="#1D1E23" stroke="none" fill-rule="evenodd"/></svg>