<svg viewBox="0 0 2400 2400" fill="none" xmlns="http://www.w3.org/2000/svg"><path d="M1322.000 203.599 C 1270.218 206.019,1258.611 207.829,1237.258 216.816 C 1151.313 252.989,1090.647 327.134,1080.014 408.995 C 1077.942 424.948,1076.191 499.158,1076.124 573.906 L 1076.000 709.812 1108.000 678.000 L 1140.000 646.188 1140.000 549.094 L 1140.000 452.000 1638.000 452.000 L 2136.000 452.000 2136.000 1202.000 L 2136.000 1952.000 1638.000 1952.000 L 1140.000 1952.000 1140.000 1852.906 L 1140.000 1753.812 1108.000 1722.000 L 1076.000 1690.188 1076.023 1830.094 C 1076.036 1907.042,1077.812 1980.800,1079.971 1994.000 C 1094.271 2081.453,1159.757 2156.027,1249.231 2186.748 L 1282.000 2198.000 1636.000 2198.000 C 1961.926 2198.000,1992.026 2197.440,2015.548 2190.942 C 2054.220 2180.259,2086.803 2161.051,2120.000 2129.367 C 2153.887 2097.025,2171.705 2070.000,2187.269 2027.340 L 2197.973 1998.000 2197.986 1202.000 C 2197.997 551.299,2197.029 402.714,2192.680 388.000 C 2169.588 309.875,2109.815 244.934,2033.848 215.436 L 2005.250 204.331 1693.625 202.563 C 1522.231 201.590,1355.000 202.056,1322.000 203.599 M1735.366 326.650 L 1780.732 329.264 1787.125 342.670 C 1795.014 359.213,1790.479 375.496,1775.934 382.856 C 1768.568 386.583,1732.089 387.897,1634.818 387.941 L 1503.636 388.000 1493.818 378.182 C 1487.629 371.993,1484.000 363.793,1484.000 356.000 C 1484.000 348.207,1487.629 340.007,1493.818 333.818 L 1503.636 324.000 1596.818 324.018 C 1648.068 324.028,1710.415 325.213,1735.366 326.650 M1402.283 559.839 L 1336.437 625.250 1360.650 651.625 C 1389.672 683.237,1433.098 740.813,1453.121 774.226 C 1479.515 818.270,1519.910 905.342,1533.816 948.166 C 1576.001 1078.073,1583.863 1229.839,1555.669 1370.000 C 1528.979 1502.686,1453.970 1647.647,1358.832 1750.408 L 1336.472 1774.560 1403.483 1841.484 L 1470.494 1908.408 1502.563 1871.204 C 1553.199 1812.460,1571.672 1788.696,1598.333 1748.000 C 1681.067 1621.716,1737.703 1465.999,1756.186 1314.000 C 1761.911 1266.916,1761.769 1132.262,1755.943 1084.000 C 1738.013 935.466,1680.347 777.439,1598.301 652.000 C 1569.131 607.403,1517.173 542.249,1488.422 514.214 L 1468.130 494.429 1402.283 559.839 M1138.148 823.974 L 1072.320 889.366 1084.305 903.683 C 1141.389 971.877,1179.632 1049.292,1192.370 1122.441 C 1199.802 1165.117,1194.923 1279.353,1184.104 1316.000 C 1166.717 1374.895,1137.267 1429.743,1093.698 1484.376 L 1072.663 1510.753 1138.199 1576.198 L 1203.735 1641.644 1214.327 1631.822 C 1228.648 1618.543,1271.556 1563.333,1289.715 1534.818 C 1327.954 1474.775,1360.248 1393.214,1376.357 1316.000 C 1388.954 1255.625,1388.942 1144.271,1376.334 1084.000 C 1354.136 977.892,1311.528 887.195,1243.855 802.000 C 1233.370 788.800,1220.107 773.631,1214.383 768.291 L 1203.975 758.582 1138.148 823.974 M537.051 829.854 C 503.169 837.490,467.696 857.174,442.613 882.256 C 335.311 989.559,395.654 1170.702,547.368 1196.719 C 604.237 1206.470,661.893 1186.919,705.577 1143.069 C 760.130 1088.309,775.635 1016.162,748.395 943.831 C 718.342 864.026,620.220 811.110,537.051 829.854 M456.271 1300.142 C 343.299 1311.094,263.219 1354.846,229.138 1424.235 C 213.189 1456.707,204.917 1491.023,201.474 1539.000 L 198.819 1576.000 573.174 1576.000 C 779.068 1576.000,948.245 1574.650,949.122 1573.000 C 952.249 1567.118,944.332 1493.585,938.048 1470.138 C 913.254 1377.629,849.635 1326.719,733.033 1306.081 C 690.554 1298.562,512.068 1294.732,456.271 1300.142 M1375.724 2021.750 C 1387.035 2031.987,1386.953 2056.091,1375.571 2066.380 C 1368.362 2072.896,1360.796 2074.000,1323.339 2074.000 C 1281.331 2074.000,1279.222 2073.590,1271.857 2064.000 C 1263.012 2052.482,1262.185 2044.360,1268.456 2030.596 C 1275.458 2015.229,1286.678 2011.985,1328.724 2013.170 C 1359.931 2014.049,1369.055 2015.714,1375.724 2021.750 M1669.788 2014.591 C 1686.297 2016.854,1689.520 2018.916,1695.216 2030.861 C 1701.057 2043.110,1701.113 2045.655,1695.749 2055.212 C 1686.721 2071.296,1673.585 2075.920,1638.000 2075.542 C 1597.953 2075.117,1589.089 2072.626,1581.167 2059.570 C 1573.706 2047.273,1576.455 2031.545,1588.102 2019.898 C 1594.431 2013.569,1601.451 2012.000,1623.442 2012.000 C 1638.535 2012.000,1659.391 2013.166,1669.788 2014.591 M1993.541 2016.519 C 2008.940 2023.535,2014.686 2041.474,2006.819 2057.972 C 2000.997 2070.181,1998.409 2071.623,1977.676 2074.213 C 1965.162 2075.777,1943.045 2075.947,1928.527 2074.591 C 1901.112 2072.031,1888.300 2063.349,1888.089 2047.188 C 1887.942 2035.898,1896.380 2021.073,1905.456 2016.678 C 1917.092 2011.044,1981.270 2010.928,1993.541 2016.519 " fill="#1D1E23" stroke="none" fill-rule="evenodd"/></svg>