<svg viewBox="0 0 2400 2400" fill="none" xmlns="http://www.w3.org/2000/svg"><path d="M500.000 810.057 L 500.000 1420.114 625.000 1419.057 L 750.000 1418.000 751.034 1195.000 L 752.067 972.000 851.034 972.015 L 950.000 972.030 1070.755 1209.015 C 1137.171 1339.357,1207.321 1478.090,1226.645 1517.311 L 1261.780 1588.622 1223.865 1663.311 C 1203.012 1704.390,1134.103 1840.147,1070.734 1964.993 C 1007.366 2089.838,956.633 2193.788,957.995 2195.993 C 959.567 2198.536,1007.757 2200.000,1089.864 2200.000 L 1219.255 2200.000 1310.141 2029.428 C 1412.181 1837.921,1441.661 1784.724,1450.580 1776.000 C 1456.047 1770.654,1457.439 1771.045,1463.357 1779.589 C 1471.509 1791.356,1556.750 1948.940,1632.890 2093.000 L 1689.442 2200.000 1813.721 2199.719 C 1882.075 2199.564,1941.112 2198.204,1944.916 2196.696 C 1951.028 2194.273,1949.211 2188.380,1929.282 2145.977 C 1916.880 2119.590,1848.253 1982.911,1776.779 1842.247 L 1646.825 1586.495 1697.315 1486.247 C 1725.085 1431.111,1792.849 1297.194,1847.903 1188.653 C 1902.956 1080.112,1948.000 988.137,1948.000 984.264 C 1948.000 978.113,1942.310 976.894,1903.000 974.629 C 1878.250 973.203,1820.111 972.028,1773.802 972.018 L 1689.604 972.000 1602.673 1135.923 C 1492.182 1344.270,1462.065 1398.000,1455.772 1398.000 C 1450.223 1398.000,1415.450 1338.927,1352.173 1222.000 C 1295.992 1118.187,1197.238 927.850,1194.326 917.767 C 1192.323 910.833,1198.104 905.525,1230.974 884.118 C 1280.432 851.908,1333.440 799.522,1353.925 762.609 C 1362.285 747.544,1376.072 715.497,1384.563 691.393 L 1400.000 647.567 1400.000 570.102 C 1400.000 493.753,1399.821 492.129,1387.608 457.319 C 1354.932 364.186,1306.987 306.411,1224.734 261.052 C 1185.631 239.488,1129.271 220.602,1082.534 213.400 C 1045.168 207.642,778.911 200.433,593.000 200.144 L 500.000 200.000 500.000 810.057 M932.399 407.890 C 1027.584 411.875,1047.244 416.087,1081.872 439.912 C 1156.381 491.175,1170.258 626.562,1109.215 706.663 C 1095.116 725.163,1061.003 747.223,1031.650 756.822 C 1008.394 764.427,994.146 765.382,879.000 767.053 L 752.000 768.896 752.000 586.448 L 752.000 404.000 799.000 404.136 C 824.850 404.211,884.880 405.900,932.399 407.890 " fill="#1D1E23" stroke="none" fill-rule="evenodd"/></svg>