<svg viewBox="0 0 2400 2400" fill="none" xmlns="http://www.w3.org/2000/svg"><path d="M500.000 810.057 L 500.000 1420.114 625.000 1419.057 L 750.000 1418.000 751.034 1195.000 L 752.067 972.000 851.330 972.000 L 950.592 972.000 1107.648 1278.636 C 1238.294 1533.709,1264.059 1586.679,1260.868 1593.636 C 1258.759 1598.236,1188.400 1735.906,1104.516 1899.568 C 1020.632 2063.231,952.000 2197.781,952.000 2198.568 C 952.000 2199.356,1012.087 2200.000,1085.526 2200.000 L 1219.052 2200.000 1336.442 1978.116 C 1401.007 1856.080,1454.988 1757.530,1456.400 1759.116 C 1457.812 1760.702,1510.950 1860.514,1574.484 1980.921 L 1690.000 2199.842 1823.000 2199.921 C 1896.150 2199.964,1956.000 2198.779,1956.000 2197.286 C 1956.000 2195.793,1886.400 2058.624,1801.333 1892.466 C 1716.267 1726.308,1646.667 1588.398,1646.667 1586.000 C 1646.667 1583.602,1716.267 1445.692,1801.333 1279.534 C 1886.400 1113.376,1956.000 976.207,1956.000 974.714 C 1956.000 973.221,1896.150 972.036,1823.000 972.079 L 1690.000 972.158 1574.484 1191.079 C 1510.950 1311.486,1457.770 1411.340,1456.306 1412.978 C 1454.046 1415.506,1188.000 917.862,1188.000 911.106 C 1188.000 909.801,1200.150 902.079,1215.000 893.944 C 1269.263 864.219,1314.378 825.356,1342.628 784.000 C 1396.175 705.612,1416.115 586.494,1393.706 478.877 C 1365.555 343.687,1263.304 249.588,1108.000 215.950 C 1045.104 202.326,991.911 200.000,743.305 200.000 L 500.000 200.000 500.000 810.057 M1014.000 410.044 C 1093.127 426.730,1137.166 474.293,1148.645 555.461 C 1160.464 639.041,1126.224 714.961,1062.870 745.647 C 1020.844 766.004,1003.903 768.000,873.160 768.000 L 752.000 768.000 752.000 586.000 L 752.000 404.000 869.000 404.069 C 956.626 404.121,993.030 405.621,1014.000 410.044 " fill="#1D1E23" stroke="none" fill-rule="evenodd"/></svg>