<svg viewBox="0 0 2400 2400" fill="none" xmlns="http://www.w3.org/2000/svg"><path d="M921.014 204.662 C 911.671 206.754,892.796 216.011,879.069 225.233 C 844.385 248.534,830.594 275.387,828.553 323.594 C 827.466 349.273,825.477 359.039,820.553 362.867 C 795.753 382.149,422.165 608.000,415.069 608.000 C 412.666 608.000,402.443 602.752,392.350 596.338 C 342.552 564.689,279.532 572.292,236.680 615.119 C 212.001 639.784,202.624 663.155,202.624 700.000 C 202.624 748.389,225.410 786.389,268.565 809.966 C 287.739 820.441,293.798 821.682,326.000 821.728 C 367.554 821.787,382.979 815.700,411.554 787.969 C 435.828 764.412,448.084 735.414,451.341 693.837 L 454.000 659.880 657.167 538.108 L 860.335 416.335 886.517 430.727 C 919.901 449.077,954.449 452.720,990.300 441.670 C 1003.335 437.652,1015.114 434.283,1016.475 434.183 C 1017.836 434.082,1098.244 508.427,1195.159 599.392 L 1371.368 764.785 1365.220 781.392 C 1349.163 824.761,1360.792 877.314,1393.735 910.257 C 1460.779 977.301,1572.324 950.662,1600.020 860.992 C 1604.409 846.783,1608.000 829.110,1608.000 821.719 C 1608.000 812.219,1610.429 806.982,1616.290 803.845 C 1620.849 801.405,1703.040 766.310,1798.935 725.856 L 1973.290 652.304 1987.462 664.747 C 2025.935 698.527,2084.619 708.452,2125.937 688.167 C 2150.703 676.008,2176.067 650.343,2188.197 625.167 C 2201.226 598.125,2201.470 553.850,2188.744 526.000 C 2177.276 500.903,2155.555 478.152,2131.133 465.654 C 2114.950 457.373,2106.645 456.000,2072.753 456.000 C 2033.654 456.000,2032.989 456.163,2009.240 471.512 C 1973.738 494.458,1958.194 519.373,1950.623 565.469 C 1944.987 599.785,1968.756 586.414,1747.267 679.866 L 1584.534 748.527 1562.381 730.483 C 1550.196 720.559,1533.426 710.550,1525.114 708.242 C 1500.150 701.309,1448.340 703.113,1429.737 711.562 L 1413.474 718.949 1237.737 553.588 C 1141.082 462.640,1062.276 385.927,1062.614 383.114 C 1062.952 380.301,1066.520 365.850,1070.543 351.000 C 1077.522 325.241,1077.543 322.796,1070.989 297.807 C 1055.996 240.642,1017.792 208.510,958.000 202.777 C 947.000 201.722,930.356 202.571,921.014 204.662 M888.000 1296.000 L 888.000 1952.000 950.000 1952.000 L 1012.000 1952.000 1012.000 1296.000 L 1012.000 640.000 950.000 640.000 L 888.000 640.000 888.000 1296.000 M576.000 1420.074 L 576.000 1952.147 669.000 1951.074 L 762.000 1950.000 763.015 1419.000 L 764.029 888.000 670.015 888.000 L 576.000 888.000 576.000 1420.074 M1136.985 1419.000 L 1138.000 1950.000 1200.000 1950.000 L 1262.000 1950.000 1263.015 1419.000 L 1264.029 888.000 1200.000 888.000 L 1135.971 888.000 1136.985 1419.000 M1948.000 1544.000 L 1948.000 2200.000 2074.000 2200.000 L 2200.000 2200.000 2200.000 1544.000 L 2200.000 888.000 2074.000 888.000 L 1948.000 888.000 1948.000 1544.000 M200.000 1606.000 L 200.000 2200.000 326.000 2200.000 L 452.000 2200.000 452.000 1608.611 L 452.000 1017.222 407.000 1014.629 C 382.250 1013.203,325.550 1012.028,281.000 1012.018 L 200.000 1012.000 200.000 1606.000 M1700.000 1482.000 L 1700.000 1952.000 1762.000 1952.000 L 1824.000 1952.000 1824.000 1482.000 L 1824.000 1012.000 1762.000 1012.000 L 1700.000 1012.000 1700.000 1482.000 M1388.000 1546.074 L 1388.000 1952.147 1481.000 1951.074 L 1574.000 1950.000 1575.019 1545.000 L 1576.038 1140.000 1482.019 1140.000 L 1388.000 1140.000 1388.000 1546.074 " fill="#1D1E23" stroke="none" fill-rule="evenodd"/></svg>