<svg viewBox="0 0 2400 2400" fill="none" xmlns="http://www.w3.org/2000/svg"><path d="M1244.000 207.852 C 1166.275 209.707,1152.128 211.020,1140.275 217.478 C 1119.464 228.816,1088.878 262.293,1083.971 279.103 C 1081.422 287.834,1078.617 354.276,1077.192 439.624 L 1074.762 585.248 1087.881 582.624 C 1095.096 581.181,1108.875 580.000,1118.500 580.000 L 1136.000 580.000 1136.000 516.000 L 1136.000 452.000 1636.000 452.000 L 2136.000 452.000 2136.000 1202.000 L 2136.000 1952.000 1638.653 1952.000 L 1141.306 1952.000 1138.653 1759.343 C 1137.194 1653.381,1136.000 1481.458,1136.000 1377.292 L 1136.000 1187.898 1105.507 1212.925 L 1075.014 1237.952 1077.258 1671.976 C 1078.493 1910.689,1080.754 2111.106,1082.284 2117.347 C 1086.138 2133.072,1125.350 2174.315,1149.755 2188.313 L 1170.000 2199.925 1638.544 2199.962 L 2107.088 2200.000 2131.901 2183.431 C 2155.932 2167.383,2182.295 2138.635,2194.340 2115.342 C 2199.447 2105.468,2200.059 1987.525,2199.100 1199.004 C 2198.207 464.143,2197.016 291.768,2192.768 282.128 C 2183.748 261.664,2159.487 235.494,2134.659 219.447 L 2110.760 204.000 1722.380 204.852 C 1508.771 205.321,1293.500 206.671,1244.000 207.852 M1782.925 334.588 C 1785.716 338.406,1788.000 348.344,1788.000 356.672 C 1788.000 368.714,1785.785 373.268,1777.185 378.908 C 1767.484 385.270,1752.663 386.128,1633.275 387.244 L 1500.180 388.489 1492.105 375.244 C 1481.969 358.619,1482.001 353.328,1492.341 336.367 L 1500.653 322.734 1639.251 325.191 C 1764.465 327.411,1778.340 328.318,1782.925 334.588 M1546.319 704.274 C 1466.886 711.307,1412.172 750.380,1370.713 829.682 L 1358.000 854.000 1358.040 1016.000 C 1358.068 1132.941,1359.500 1184.213,1363.186 1200.338 C 1374.769 1251.006,1422.750 1309.211,1473.201 1333.794 C 1511.100 1352.261,1543.711 1356.000,1666.895 1356.000 L 1764.000 1356.000 1764.000 1310.631 L 1764.000 1265.262 1651.000 1262.582 C 1588.850 1261.109,1533.322 1258.867,1527.604 1257.601 C 1514.767 1254.758,1481.614 1229.921,1470.356 1214.712 C 1462.231 1203.736,1461.968 1198.662,1460.837 1031.156 L 1459.673 858.888 1469.890 843.450 C 1475.509 834.959,1489.900 821.509,1501.870 813.561 L 1523.634 799.110 1638.817 800.577 L 1754.000 802.043 1772.281 812.769 C 1794.312 825.695,1811.878 849.776,1816.177 872.946 C 1817.917 882.325,1820.634 911.151,1822.214 937.003 L 1825.088 984.005 1868.701 1026.141 C 1893.488 1050.088,1914.219 1067.101,1916.726 1065.551 C 1919.845 1063.624,1920.483 1034.580,1918.905 966.412 C 1916.485 861.926,1914.151 849.083,1889.286 803.398 C 1874.905 776.974,1831.328 736.909,1799.353 720.713 C 1774.428 708.087,1772.651 707.805,1694.000 704.007 C 1605.368 699.727,1597.525 699.741,1546.319 704.274 M1002.000 714.134 C 942.600 719.167,811.200 729.822,710.000 737.812 C 460.719 757.493,431.928 760.938,410.175 773.686 C 366.753 799.133,324.495 891.296,317.603 975.581 C 315.405 1002.464,316.072 1007.203,323.337 1016.350 L 331.558 1026.700 585.091 1029.473 C 832.989 1032.184,839.105 1032.439,860.311 1040.964 C 879.778 1048.790,891.014 1049.840,970.000 1051.217 C 1018.400 1052.061,1074.559 1051.521,1094.797 1050.017 L 1131.595 1047.284 1137.731 1028.642 C 1155.055 976.005,1204.000 752.539,1204.000 726.079 C 1204.000 716.532,1201.617 711.006,1196.263 708.141 C 1184.757 701.983,1122.881 703.892,1002.000 714.134 M1512.000 1090.729 L 1512.000 1138.725 1627.682 1141.176 C 1712.954 1142.983,1746.866 1145.094,1756.682 1149.207 C 1774.039 1156.480,1794.352 1173.794,1808.595 1193.457 L 1820.000 1209.200 1820.000 1371.128 C 1820.000 1527.740,1819.729 1533.494,1811.745 1546.412 C 1796.595 1570.926,1768.868 1591.506,1738.609 1600.697 C 1712.349 1608.673,1704.972 1609.060,1624.269 1606.693 C 1576.821 1605.302,1531.359 1602.272,1523.243 1599.960 C 1506.501 1595.193,1476.102 1567.535,1465.883 1547.773 C 1461.214 1538.744,1457.679 1516.417,1454.748 1477.439 L 1450.454 1420.333 1402.902 1373.167 L 1355.350 1326.000 1357.073 1428.000 C 1359.020 1543.322,1362.706 1562.630,1390.672 1604.000 C 1421.337 1649.364,1458.791 1678.342,1502.000 1690.134 C 1533.356 1698.690,1682.834 1702.838,1733.546 1696.558 C 1806.520 1687.522,1867.481 1643.614,1898.895 1577.465 C 1910.624 1552.767,1913.314 1541.564,1916.726 1503.190 C 1922.646 1436.625,1918.476 1223.986,1910.703 1196.000 C 1893.363 1133.573,1836.524 1075.602,1773.600 1056.167 C 1751.681 1049.397,1731.036 1047.863,1630.000 1045.497 L 1512.000 1042.733 1512.000 1090.729 M366.712 1094.273 C 371.658 1108.789,372.574 1122.141,370.775 1153.507 C 368.183 1198.702,360.631 1233.591,270.232 1618.000 C 238.156 1754.400,208.892 1879.095,205.201 1895.100 C 198.597 1923.736,198.637 1924.662,207.697 1953.100 C 240.818 2057.065,286.973 2108.470,379.175 2144.084 C 476.820 2181.800,563.565 2202.449,608.700 2198.721 C 656.086 2194.807,668.000 2183.215,668.000 2141.022 C 668.000 2119.505,666.513 2116.292,632.467 2064.282 C 612.925 2034.427,592.882 2001.946,587.928 1992.102 L 578.922 1974.205 585.845 1934.102 C 589.653 1912.046,606.152 1830.100,622.509 1752.000 C 638.867 1673.900,658.351 1574.900,665.808 1532.000 C 675.009 1479.066,684.053 1441.146,693.951 1414.000 C 701.972 1392.000,712.971 1351.874,718.393 1324.831 C 732.936 1252.287,746.842 1221.454,778.576 1191.387 C 819.013 1153.075,855.779 1139.496,951.760 1127.423 C 1061.850 1113.576,1064.153 1105.656,959.704 1100.101 C 908.478 1097.376,881.517 1094.003,858.000 1087.375 C 826.767 1078.574,820.420 1078.324,593.163 1076.945 L 360.326 1075.532 366.712 1094.273 M828.234 1203.334 C 788.759 1230.778,773.467 1261.603,761.429 1338.000 C 757.963 1360.000,746.339 1403.966,735.599 1435.703 C 724.859 1467.439,716.838 1494.171,717.774 1495.108 C 718.710 1496.044,725.186 1485.377,732.164 1471.405 C 739.143 1457.432,755.215 1431.600,767.880 1414.000 C 800.154 1369.152,806.763 1354.349,813.669 1311.430 C 820.868 1266.693,827.429 1246.943,846.303 1213.192 C 862.814 1183.669,859.288 1181.745,828.234 1203.334 M1369.727 2020.604 C 1383.195 2026.740,1386.772 2041.293,1378.880 2057.843 C 1372.161 2071.933,1360.077 2075.912,1324.000 2075.912 C 1287.110 2075.912,1275.588 2071.990,1269.471 2057.351 C 1264.571 2045.623,1264.636 2042.374,1269.975 2032.049 C 1273.718 2024.811,1281.138 2018.648,1289.050 2016.205 C 1304.875 2011.320,1355.397 2014.074,1369.727 2020.604 M1663.650 2015.658 C 1678.856 2017.818,1687.488 2021.434,1692.650 2027.809 C 1702.664 2040.176,1701.944 2045.697,1688.331 2060.937 L 1676.663 2074.000 1635.960 2074.000 C 1595.536 2074.000,1595.191 2073.918,1585.648 2062.000 C 1573.513 2046.845,1573.588 2041.918,1586.204 2025.378 C 1595.736 2012.880,1597.906 2012.019,1619.204 2012.292 C 1631.742 2012.453,1651.742 2013.967,1663.650 2015.658 M1981.000 2015.965 C 2005.235 2016.042,2017.732 2049.953,1999.580 2066.380 C 1992.592 2072.704,1984.939 2074.000,1954.580 2074.000 C 1898.741 2074.000,1879.146 2060.724,1894.000 2032.956 C 1903.115 2015.916,1916.374 2011.494,1950.000 2014.276 C 1961.000 2015.186,1974.950 2015.946,1981.000 2015.965 " fill="#1D1E23" stroke="none" fill-rule="evenodd"/></svg>