<svg viewBox="0 0 2400 2400" fill="none" xmlns="http://www.w3.org/2000/svg"><path d="M911.279 210.318 C 887.454 217.650,851.667 249.900,839.527 274.978 L 830.470 293.686 828.715 652.843 L 826.959 1012.000 859.480 1012.000 L 892.000 1012.000 892.000 732.000 L 892.000 452.000 1392.000 452.000 L 1892.000 452.000 1892.000 853.338 C 1892.000 1074.075,1890.803 1411.575,1889.341 1603.338 L 1886.682 1952.000 1389.341 1952.000 L 892.000 1952.000 892.000 1920.000 L 892.000 1888.000 859.542 1888.000 L 827.084 1888.000 828.816 1997.000 C 830.229 2085.955,831.740 2108.743,837.034 2120.915 C 845.945 2141.405,877.900 2174.623,902.000 2188.450 L 922.000 2199.925 1392.544 2199.962 L 1863.088 2200.000 1887.787 2183.507 C 1914.483 2165.680,1938.896 2136.128,1949.404 2108.919 C 1955.462 2093.232,1955.997 2018.996,1955.961 1198.919 L 1955.922 306.000 1946.115 284.935 C 1931.644 253.852,1916.816 236.385,1890.380 219.282 L 1866.760 204.000 1398.380 204.279 C 1002.577 204.514,927.099 205.450,911.279 210.318 M1535.545 334.330 C 1549.140 351.614,1549.619 359.123,1538.087 374.242 L 1527.514 388.103 1388.757 387.052 L 1250.000 386.000 1242.602 370.857 C 1234.313 353.889,1236.115 338.569,1246.965 333.772 C 1258.561 328.646,1324.131 325.358,1428.710 324.659 L 1527.419 324.000 1535.545 334.330 M992.083 583.917 C 986.131 589.869,984.743 595.079,986.490 604.917 C 991.523 633.262,1032.618 819.328,1038.561 840.677 L 1044.873 863.355 1077.678 866.087 C 1095.721 867.590,1141.875 867.973,1180.242 866.939 C 1237.382 865.398,1254.586 863.515,1275.356 856.529 C 1299.747 848.325,1307.669 847.996,1483.356 847.905 C 1649.619 847.818,1691.496 845.895,1699.317 837.987 C 1704.884 832.358,1700.725 776.798,1692.494 746.834 C 1682.433 710.205,1661.053 666.033,1643.965 646.572 C 1627.638 627.976,1616.940 625.928,1474.000 614.046 C 1332.846 602.311,1007.328 576.024,1003.000 576.010 C 1001.350 576.004,996.438 579.563,992.083 583.917 M1340.000 892.145 C 1305.900 893.631,1265.400 897.774,1250.000 901.354 C 1234.364 904.988,1204.337 907.916,1182.000 907.985 C 1160.000 908.053,1137.950 909.195,1133.000 910.521 C 1109.694 916.767,1133.421 925.524,1186.000 930.081 C 1224.528 933.421,1269.210 944.373,1292.244 956.125 C 1316.325 968.410,1347.167 998.622,1358.541 1021.068 C 1363.900 1031.643,1372.715 1062.048,1378.130 1088.636 C 1383.545 1115.224,1393.244 1152.508,1399.683 1171.489 C 1406.123 1190.470,1416.804 1238.400,1423.419 1278.000 C 1430.034 1317.600,1449.031 1415.161,1465.635 1494.802 L 1495.825 1639.603 1459.172 1696.635 C 1427.200 1746.384,1422.296 1756.363,1420.769 1774.786 C 1418.585 1801.119,1426.070 1813.977,1446.962 1819.779 C 1483.114 1829.819,1537.901 1820.544,1621.768 1790.185 C 1678.848 1769.523,1710.540 1752.828,1730.416 1732.952 C 1764.135 1699.234,1798.701 1621.078,1794.341 1588.418 C 1791.979 1570.727,1772.026 1479.757,1702.568 1170.000 C 1681.848 1077.600,1662.569 985.485,1659.725 965.299 C 1654.667 929.398,1655.609 919.489,1666.593 893.000 C 1668.231 889.050,1640.662 888.152,1535.333 888.722 C 1462.000 889.119,1374.100 890.660,1340.000 892.145 M1282.090 1013.368 C 1290.972 1032.593,1298.395 1058.232,1303.580 1087.596 C 1311.223 1130.877,1312.266 1133.468,1333.245 1161.228 C 1345.204 1177.052,1359.887 1198.550,1365.874 1209.000 C 1371.862 1219.450,1377.403 1228.000,1378.189 1228.000 C 1379.878 1228.000,1372.543 1204.819,1358.572 1166.000 C 1353.030 1150.600,1346.371 1121.800,1343.776 1102.000 C 1336.862 1049.259,1327.774 1028.252,1301.469 1004.211 C 1270.121 975.561,1265.607 977.694,1282.090 1013.368 M769.623 1133.282 L 750.681 1190.565 718.341 1207.792 L 686.000 1225.020 641.631 1216.510 C 569.461 1202.668,572.268 1201.883,546.838 1243.000 C 534.932 1262.250,519.584 1287.937,512.731 1300.082 L 500.272 1322.165 540.049 1368.082 L 579.826 1414.000 579.913 1450.036 L 580.000 1486.072 539.648 1531.212 L 499.295 1576.351 530.648 1630.534 C 547.891 1660.335,565.739 1687.259,570.309 1690.366 C 577.584 1695.312,585.446 1694.754,633.475 1685.882 L 688.331 1675.749 719.165 1692.951 L 750.000 1710.153 769.409 1767.077 L 788.819 1824.000 859.513 1824.000 L 930.206 1824.000 949.119 1767.000 L 968.031 1710.000 1001.015 1692.817 L 1034.000 1675.635 1087.518 1686.046 C 1116.953 1691.773,1143.315 1695.584,1146.100 1694.515 C 1152.429 1692.087,1216.000 1586.962,1216.000 1578.925 C 1216.000 1575.683,1198.906 1553.449,1178.012 1529.516 L 1140.025 1486.000 1140.087 1450.000 L 1140.150 1414.000 1180.032 1368.412 L 1219.914 1322.824 1207.174 1300.412 C 1200.168 1288.085,1185.217 1262.700,1173.952 1244.000 C 1149.382 1203.217,1149.411 1203.225,1079.860 1216.190 L 1032.779 1224.966 1000.356 1207.483 L 967.932 1190.000 949.069 1133.000 L 930.206 1076.000 859.386 1076.000 L 788.565 1076.000 769.623 1133.282 M924.706 1328.699 C 950.475 1342.434,965.461 1357.448,982.738 1386.841 C 993.244 1404.713,994.000 1408.955,994.000 1450.000 C 994.000 1491.177,993.268 1495.245,982.593 1513.407 C 933.693 1596.601,831.395 1614.235,766.589 1550.643 C 733.783 1518.451,725.994 1498.740,726.028 1448.000 C 726.053 1410.268,727.140 1403.942,736.717 1385.746 C 748.929 1362.548,771.927 1340.287,796.820 1327.570 C 824.323 1313.520,832.085 1312.047,867.565 1314.147 C 895.204 1315.783,905.294 1318.352,924.706 1328.699 M1127.951 2021.956 C 1138.967 2031.925,1138.833 2056.196,1127.706 2066.266 C 1121.762 2071.645,1111.570 2074.215,1091.732 2075.336 C 1040.788 2078.214,1020.000 2068.695,1020.000 2042.490 C 1020.000 2019.329,1038.343 2011.620,1088.951 2013.513 C 1112.102 2014.380,1121.930 2016.507,1127.951 2021.956 M1443.229 2026.249 C 1453.925 2038.684,1452.650 2052.759,1439.628 2066.000 C 1432.745 2072.998,1426.471 2074.000,1389.523 2074.000 C 1349.960 2074.000,1346.803 2073.402,1339.643 2064.557 C 1335.440 2059.363,1332.000 2050.257,1332.000 2044.321 C 1332.000 2019.627,1350.894 2011.392,1401.936 2013.840 C 1430.786 2015.224,1434.777 2016.423,1443.229 2026.249 M1754.618 2025.538 C 1765.174 2037.810,1765.993 2043.250,1759.449 2057.613 C 1753.541 2070.578,1737.190 2076.000,1704.000 2076.000 C 1670.810 2076.000,1654.459 2070.578,1648.551 2057.613 C 1642.215 2043.706,1642.799 2038.605,1652.080 2026.807 C 1662.134 2014.025,1669.533 2012.388,1711.618 2013.635 C 1742.667 2014.555,1745.952 2015.464,1754.618 2025.538 " fill="#1D1E23" stroke="none" fill-rule="evenodd"/></svg>