<svg viewBox="0 0 2400 2400" fill="none" xmlns="http://www.w3.org/2000/svg"><path d="M1226.000 203.452 C 1161.669 205.863,1157.011 206.582,1139.665 216.779 C 1129.581 222.707,1114.557 235.056,1106.277 244.220 C 1077.935 275.591,1078.266 273.423,1076.750 437.561 L 1075.386 585.123 1088.193 582.561 C 1095.237 581.153,1108.875 580.000,1118.500 580.000 L 1136.000 580.000 1136.000 516.000 L 1136.000 452.000 1636.000 452.000 L 2136.000 452.000 2136.000 1202.000 L 2136.000 1952.000 1638.648 1952.000 L 1141.296 1952.000 1138.648 1813.346 C 1137.192 1737.087,1136.000 1565.020,1136.000 1430.976 L 1136.000 1187.259 1115.000 1206.158 C 1103.450 1216.553,1089.869 1226.946,1084.820 1229.253 L 1075.640 1233.448 1077.001 1669.724 C 1078.069 2012.201,1079.472 2109.440,1083.526 2122.000 C 1089.789 2141.404,1126.526 2178.010,1152.823 2191.049 L 1171.073 2200.098 1638.536 2199.049 L 2106.000 2198.000 2125.080 2188.605 C 2135.573 2183.437,2152.045 2171.323,2161.684 2161.684 C 2171.323 2152.045,2183.437 2135.573,2188.605 2125.080 L 2198.000 2106.000 2198.000 1200.000 L 2198.000 294.000 2188.308 274.308 C 2176.039 249.379,2153.846 227.097,2128.486 214.246 L 2108.698 204.219 1701.349 202.561 C 1477.307 201.649,1263.400 202.050,1226.000 203.452 M1735.366 326.650 L 1780.732 329.264 1787.125 342.670 C 1795.014 359.213,1790.479 375.496,1775.934 382.856 C 1768.568 386.583,1732.089 387.897,1634.818 387.941 L 1503.636 388.000 1493.818 378.182 C 1487.629 371.993,1484.000 363.793,1484.000 356.000 C 1484.000 348.207,1487.629 340.007,1493.818 333.818 L 1503.636 324.000 1596.818 324.018 C 1648.068 324.028,1710.415 325.213,1735.366 326.650 M1150.000 702.777 C 1141.200 703.564,1006.200 714.090,850.000 726.167 C 516.849 751.927,438.364 758.897,421.782 764.198 C 407.096 768.893,381.312 794.727,364.507 821.583 C 340.818 859.442,321.368 922.789,317.377 975.086 C 315.299 1002.313,315.988 1007.193,323.153 1016.000 L 331.288 1026.000 578.644 1028.000 L 826.000 1030.000 860.777 1041.174 L 895.555 1052.348 1011.583 1051.174 C 1088.161 1050.399,1129.086 1048.524,1131.946 1045.660 C 1141.315 1036.278,1210.335 729.657,1206.089 716.280 C 1203.417 707.862,1187.126 699.733,1174.812 700.672 C 1169.965 701.042,1158.800 701.989,1150.000 702.777 M1536.000 704.064 C 1519.500 705.635,1498.556 709.711,1489.457 713.122 C 1436.630 732.924,1388.375 782.444,1366.790 839.005 C 1358.274 861.322,1358.015 866.834,1358.008 1026.000 C 1358.001 1175.444,1358.661 1191.953,1365.451 1212.000 C 1386.333 1273.656,1433.407 1322.147,1494.323 1344.751 C 1516.400 1352.943,1526.312 1353.641,1641.000 1355.073 L 1764.000 1356.610 1764.000 1310.710 L 1764.000 1264.810 1649.000 1263.211 C 1521.090 1261.431,1518.329 1260.924,1488.152 1233.662 C 1455.224 1203.913,1455.997 1208.788,1456.022 1031.159 C 1456.036 936.650,1457.671 868.143,1460.126 859.307 C 1465.537 839.824,1502.756 805.484,1523.156 801.152 C 1531.320 799.418,1583.900 798.000,1640.000 798.000 C 1753.906 798.000,1762.501 799.468,1789.164 823.483 C 1814.540 846.338,1820.075 863.485,1822.823 927.745 L 1825.200 983.328 1870.432 1028.430 C 1906.824 1064.719,1916.183 1072.177,1918.326 1066.593 C 1919.791 1062.776,1920.098 1016.981,1919.010 964.827 C 1917.297 882.754,1915.893 866.464,1908.574 843.711 C 1891.348 790.159,1856.554 749.945,1802.999 721.691 L 1774.000 706.391 1706.000 703.471 C 1625.294 700.006,1576.847 700.175,1536.000 704.064 M1512.000 1092.000 L 1512.000 1140.000 1621.000 1140.095 C 1680.950 1140.148,1737.067 1141.830,1745.705 1143.833 C 1767.695 1148.933,1791.719 1166.863,1807.000 1189.579 L 1820.000 1208.904 1820.000 1372.000 L 1820.000 1535.096 1807.000 1554.548 C 1799.850 1565.247,1785.432 1579.726,1774.960 1586.725 C 1745.953 1606.111,1722.407 1609.250,1622.000 1607.122 C 1523.458 1605.034,1513.627 1602.831,1486.661 1576.805 C 1460.085 1551.154,1455.833 1538.363,1453.168 1476.043 L 1450.800 1420.678 1403.112 1373.339 L 1355.424 1326.000 1357.053 1432.000 C 1358.536 1528.422,1359.467 1540.139,1367.359 1561.677 C 1383.203 1604.917,1417.984 1647.614,1456.596 1671.227 C 1493.932 1694.059,1510.904 1697.014,1616.182 1699.009 C 1732.149 1701.207,1761.920 1697.854,1802.000 1678.077 C 1853.687 1652.575,1889.829 1611.566,1908.652 1557.065 C 1917.835 1530.479,1918.000 1527.206,1918.000 1372.000 C 1918.000 1232.225,1917.188 1211.462,1910.965 1192.000 C 1886.372 1115.099,1816.354 1055.587,1741.194 1047.703 C 1724.037 1045.904,1665.450 1044.334,1611.000 1044.216 L 1512.000 1044.000 1512.000 1092.000 M368.215 1098.626 C 383.398 1142.754,384.643 1136.138,271.669 1611.662 C 232.251 1777.577,200.000 1917.297,200.000 1922.152 C 200.000 1935.626,218.512 1989.388,234.896 2023.496 C 245.892 2046.389,257.177 2061.606,280.124 2084.485 C 315.093 2119.352,333.546 2129.318,416.000 2157.872 C 527.724 2196.563,582.827 2206.172,632.225 2195.578 C 662.757 2189.030,668.000 2181.905,668.000 2146.963 L 668.000 2117.927 623.953 2052.473 C 599.727 2016.473,578.915 1983.070,577.704 1978.243 C 576.492 1973.417,592.605 1889.488,613.509 1791.734 C 655.593 1594.942,666.128 1541.558,669.898 1506.000 C 674.196 1465.449,680.187 1443.440,697.031 1406.306 C 710.195 1377.286,713.844 1363.825,716.550 1334.306 C 724.869 1243.540,763.164 1184.158,834.356 1151.632 C 864.866 1137.693,908.082 1129.185,970.637 1124.803 C 1005.799 1122.340,1022.241 1119.452,1029.984 1114.378 C 1035.875 1110.519,1039.558 1106.224,1038.169 1104.835 C 1036.780 1103.446,1001.074 1101.061,958.822 1099.534 C 891.841 1097.114,877.901 1095.435,850.000 1086.430 L 818.000 1076.102 589.215 1076.051 L 360.431 1076.000 368.215 1098.626 M837.811 1195.655 C 788.682 1223.835,769.662 1261.861,760.347 1350.525 C 757.598 1376.698,753.028 1394.731,744.223 1414.149 C 729.808 1445.941,715.912 1489.229,716.208 1501.421 C 716.323 1506.140,720.507 1498.998,725.505 1485.551 C 737.410 1453.526,750.816 1431.345,776.002 1402.000 C 803.569 1369.881,806.156 1363.997,811.521 1321.203 C 817.007 1277.452,828.221 1239.279,841.252 1220.000 C 869.364 1178.409,869.252 1177.621,837.811 1195.655 M1375.724 2021.750 C 1387.035 2031.987,1386.953 2056.091,1375.571 2066.380 C 1368.362 2072.896,1360.796 2074.000,1323.339 2074.000 C 1281.331 2074.000,1279.222 2073.590,1271.857 2064.000 C 1263.012 2052.482,1262.185 2044.360,1268.456 2030.596 C 1275.458 2015.229,1286.678 2011.985,1328.724 2013.170 C 1359.931 2014.049,1369.055 2015.714,1375.724 2021.750 M1669.788 2014.591 C 1686.297 2016.854,1689.520 2018.916,1695.216 2030.861 C 1701.057 2043.110,1701.113 2045.655,1695.749 2055.212 C 1686.721 2071.296,1673.585 2075.920,1638.000 2075.542 C 1597.953 2075.117,1589.089 2072.626,1581.167 2059.570 C 1573.706 2047.273,1576.455 2031.545,1588.102 2019.898 C 1594.431 2013.569,1601.451 2012.000,1623.442 2012.000 C 1638.535 2012.000,1659.391 2013.166,1669.788 2014.591 M1993.541 2016.519 C 2008.940 2023.535,2014.686 2041.474,2006.819 2057.972 C 2000.997 2070.181,1998.409 2071.623,1977.676 2074.213 C 1965.162 2075.777,1943.045 2075.947,1928.527 2074.591 C 1901.112 2072.031,1888.300 2063.349,1888.089 2047.188 C 1887.942 2035.898,1896.380 2021.073,1905.456 2016.678 C 1917.092 2011.044,1981.270 2010.928,1993.541 2016.519 " fill="#1D1E23" stroke="none" fill-rule="evenodd"/></svg>