<svg viewBox="0 0 2400 2400" fill="none" xmlns="http://www.w3.org/2000/svg"><path d="M200.000 950.000 L 200.000 1700.000 326.000 1700.000 L 452.000 1700.000 452.000 950.000 L 452.000 200.000 326.000 200.000 L 200.000 200.000 200.000 950.000 M576.000 732.000 L 576.000 1264.000 670.000 1264.000 L 764.000 1264.000 764.000 732.000 L 764.000 200.000 670.000 200.000 L 576.000 200.000 576.000 732.000 M888.000 732.000 L 888.000 1264.000 950.000 1264.000 L 1012.000 1264.000 1012.000 732.000 L 1012.000 200.000 950.000 200.000 L 888.000 200.000 888.000 732.000 M1140.000 732.000 L 1140.000 1264.000 1202.000 1264.000 L 1264.000 1264.000 1264.000 732.000 L 1264.000 200.000 1202.000 200.000 L 1140.000 200.000 1140.000 732.000 M1388.000 732.000 L 1388.000 1264.000 1482.000 1264.000 L 1576.000 1264.000 1576.000 732.000 L 1576.000 200.000 1482.000 200.000 L 1388.000 200.000 1388.000 732.000 M1700.000 732.000 L 1700.000 1264.000 1762.000 1264.000 L 1824.000 1264.000 1824.000 732.000 L 1824.000 200.000 1762.000 200.000 L 1700.000 200.000 1700.000 732.000 M1952.000 950.000 L 1952.000 1700.000 2076.000 1700.000 L 2200.000 1700.000 2200.000 950.000 L 2200.000 200.000 2076.000 200.000 L 1952.000 200.000 1952.000 950.000 M852.000 1516.084 C 817.900 1517.629,779.200 1521.126,766.000 1523.855 C 693.574 1538.829,614.958 1611.299,587.236 1688.646 C 578.415 1713.259,578.152 1718.209,578.267 1858.000 L 578.385 2002.000 588.823 2028.494 C 616.175 2097.922,668.962 2152.470,735.889 2180.468 C 762.933 2191.782,771.882 2193.338,829.889 2196.818 C 928.556 2202.736,1171.581 2198.534,1203.588 2190.356 C 1279.291 2171.014,1361.263 2095.801,1382.174 2026.494 C 1390.854 1997.725,1395.694 1918.685,1395.859 1803.000 L 1396.000 1704.000 1338.632 1704.000 L 1281.264 1704.000 1278.500 1825.442 C 1275.540 1955.447,1272.271 1987.946,1259.669 2012.648 C 1249.788 2032.017,1224.367 2057.093,1200.221 2071.288 L 1182.000 2082.000 984.000 2082.000 C 763.660 2082.000,779.668 2083.905,744.354 2053.476 C 734.648 2045.113,719.798 2027.580,711.354 2014.515 L 696.000 1990.760 696.000 1858.145 L 696.000 1725.529 710.269 1701.765 C 740.610 1651.230,765.268 1636.489,827.490 1631.688 C 850.870 1629.883,882.623 1628.316,898.052 1628.204 L 926.103 1628.000 984.000 1570.000 L 1041.897 1512.000 977.948 1512.637 C 942.777 1512.987,886.100 1514.538,852.000 1516.084 M1268.000 1519.822 C 1199.980 1522.005,1187.279 1523.461,1168.737 1531.208 C 1103.335 1558.530,1046.738 1614.427,1021.354 1676.769 C 1012.495 1698.525,1010.619 1711.090,1007.731 1768.000 C 1005.890 1804.300,1004.297 1873.150,1004.191 1921.000 L 1004.000 2008.000 1062.000 2008.000 L 1120.000 2008.000 1120.089 1953.000 C 1120.241 1858.328,1127.316 1736.399,1133.988 1713.448 C 1142.763 1683.263,1174.487 1651.143,1204.299 1642.260 C 1249.226 1628.872,1387.338 1624.584,1548.478 1631.572 C 1614.419 1634.432,1620.107 1635.302,1636.813 1645.093 C 1659.244 1658.239,1682.630 1683.887,1692.473 1706.137 C 1705.537 1735.670,1709.442 1797.098,1704.594 1896.771 C 1702.207 1945.847,1698.418 1992.367,1696.174 2000.149 C 1690.086 2021.261,1655.595 2057.653,1629.636 2070.354 C 1608.888 2080.504,1603.186 2081.319,1540.146 2083.139 L 1472.816 2085.083 1415.408 2142.937 L 1358.000 2200.791 1488.000 2198.965 C 1615.029 2197.180,1618.670 2196.904,1647.338 2186.852 C 1688.951 2172.263,1717.499 2154.209,1749.886 2122.000 C 1779.536 2092.514,1797.194 2063.669,1812.326 2020.000 C 1820.567 1996.221,1821.489 1984.923,1823.120 1887.769 C 1825.821 1726.989,1818.982 1684.429,1781.238 1627.108 C 1760.715 1595.943,1733.507 1571.688,1694.000 1549.340 C 1641.347 1519.556,1649.188 1520.724,1490.000 1518.937 C 1410.800 1518.047,1310.900 1518.446,1268.000 1519.822 " fill="#1D1E23" stroke="none" fill-rule="evenodd"/></svg>