<svg viewBox="0 0 2400 2400" fill="none" xmlns="http://www.w3.org/2000/svg"><path d="M1340.000 207.837 C 1128.078 210.403,1143.945 207.709,1107.234 247.361 C 1091.444 264.415,1084.421 275.559,1082.510 286.591 C 1081.041 295.066,1078.685 365.733,1077.274 443.629 L 1074.708 585.258 1087.854 582.629 C 1095.084 581.183,1108.875 580.000,1118.500 580.000 L 1136.000 580.000 1136.000 516.000 L 1136.000 452.000 1636.000 452.000 L 2136.000 452.000 2136.000 1202.000 L 2136.000 1952.000 1638.655 1952.000 L 1141.309 1952.000 1138.659 1733.000 C 1137.201 1612.550,1136.006 1440.627,1136.004 1350.949 L 1136.000 1187.898 1105.391 1212.949 L 1074.783 1238.000 1077.196 1675.315 L 1079.609 2112.630 1089.702 2129.852 C 1101.489 2149.966,1135.101 2181.338,1156.632 2192.322 C 1171.217 2199.763,1186.129 2200.000,1640.120 2200.000 L 2108.559 2200.000 2125.497 2188.346 C 2148.739 2172.355,2191.225 2126.208,2194.946 2112.911 C 2196.626 2106.910,2197.961 1696.100,2197.913 1200.000 C 2197.844 473.843,2196.820 295.112,2192.665 283.188 C 2186.403 265.217,2152.121 229.520,2126.972 214.781 L 2108.575 204.000 1817.288 204.792 C 1657.079 205.228,1442.300 206.598,1340.000 207.837 M1774.895 330.607 C 1784.728 333.047,1790.764 352.989,1786.109 367.656 C 1780.702 384.693,1772.407 385.759,1633.184 387.315 L 1500.368 388.798 1492.199 375.399 C 1481.966 358.615,1481.984 353.356,1492.331 336.384 L 1500.632 322.768 1633.316 325.584 C 1706.292 327.133,1770.003 329.393,1774.895 330.607 M1551.194 704.326 C 1510.701 708.613,1490.883 714.145,1462.917 728.968 C 1434.302 744.135,1395.507 784.809,1374.000 822.190 L 1358.000 850.000 1358.650 1020.000 C 1359.261 1179.781,1359.789 1191.382,1367.433 1212.995 C 1389.611 1275.704,1450.020 1332.052,1512.459 1348.274 C 1522.584 1350.904,1579.462 1353.686,1647.000 1354.853 L 1764.000 1356.875 1764.000 1311.080 L 1764.000 1265.286 1647.773 1262.609 C 1516.842 1259.593,1516.016 1259.414,1482.526 1226.903 L 1465.115 1210.000 1462.558 1142.361 C 1461.151 1105.160,1460.000 1025.859,1460.000 966.138 L 1460.000 857.554 1469.823 844.239 C 1475.226 836.916,1489.176 823.746,1500.823 814.972 L 1522.000 799.020 1638.624 800.804 C 1765.539 802.745,1761.782 802.079,1789.366 827.518 C 1810.759 847.246,1815.999 863.719,1820.843 926.458 L 1825.327 984.529 1867.258 1024.264 C 1890.320 1046.119,1911.887 1064.000,1915.185 1064.000 C 1920.409 1064.000,1920.882 1052.011,1918.857 971.000 C 1916.365 871.375,1912.873 849.323,1893.507 810.933 C 1878.554 781.290,1833.214 738.955,1798.242 721.979 C 1770.206 708.370,1769.408 708.240,1688.781 704.135 C 1599.617 699.596,1595.821 699.601,1551.194 704.326 M1106.000 706.790 C 1095.000 707.531,995.100 715.363,884.000 724.194 C 486.220 755.811,440.695 760.260,418.018 769.735 C 400.001 777.263,369.987 812.804,354.103 845.421 C 335.938 882.721,320.790 936.619,317.637 975.175 C 315.363 1002.976,315.973 1007.079,323.848 1017.000 L 332.581 1028.000 437.290 1028.303 C 494.881 1028.469,610.400 1030.031,694.000 1031.773 C 825.081 1034.505,848.477 1035.916,864.000 1042.030 C 878.727 1047.831,898.550 1049.468,973.020 1051.032 C 1023.080 1052.083,1079.237 1051.677,1097.812 1050.130 L 1131.584 1047.316 1137.716 1028.658 C 1158.642 964.982,1206.799 735.696,1202.687 719.314 C 1198.936 704.368,1179.428 701.841,1106.000 706.790 M1512.000 1091.422 L 1512.000 1140.000 1567.000 1140.204 C 1597.250 1140.316,1651.088 1141.850,1686.640 1143.613 C 1746.649 1146.589,1752.602 1147.593,1769.715 1157.622 C 1779.854 1163.564,1795.408 1177.608,1804.280 1188.831 L 1820.409 1209.236 1819.205 1371.618 C 1817.862 1552.548,1818.812 1546.166,1789.387 1572.002 C 1781.125 1579.256,1764.383 1589.873,1752.183 1595.596 C 1730.183 1605.914,1729.239 1605.996,1638.000 1605.488 C 1580.836 1605.169,1539.384 1603.170,1528.528 1600.206 C 1508.147 1594.644,1473.625 1564.573,1465.501 1545.306 C 1462.557 1538.324,1457.986 1507.368,1455.344 1476.515 L 1450.539 1420.418 1402.851 1373.209 L 1355.162 1326.000 1357.280 1426.000 C 1359.632 1536.993,1363.228 1558.834,1385.169 1595.359 C 1405.241 1628.772,1440.556 1661.873,1473.294 1677.958 C 1499.338 1690.755,1507.008 1692.476,1556.000 1696.516 C 1623.569 1702.089,1734.170 1698.928,1763.474 1690.586 C 1832.257 1671.008,1887.290 1618.628,1908.450 1552.600 C 1915.931 1529.258,1917.209 1513.752,1918.884 1426.000 C 1919.934 1371.000,1918.905 1296.379,1916.598 1260.176 C 1912.523 1196.244,1911.979 1193.496,1897.697 1164.597 C 1869.744 1108.038,1808.890 1061.248,1751.806 1052.421 C 1737.613 1050.226,1677.850 1047.173,1619.000 1045.637 L 1512.000 1042.844 1512.000 1091.422 M367.328 1099.050 C 379.596 1146.136,374.033 1175.372,262.282 1651.178 C 228.027 1797.025,200.000 1919.732,200.000 1923.859 C 200.000 1936.686,223.993 2000.716,239.023 2028.000 C 247.001 2042.481,265.896 2066.492,281.673 2082.196 C 315.377 2115.745,351.716 2135.742,422.000 2159.418 C 520.410 2192.568,585.739 2204.490,624.465 2196.367 C 655.258 2189.908,664.988 2178.937,667.214 2148.165 C 669.168 2121.149,670.099 2123.165,616.470 2038.295 C 598.501 2009.857,582.738 1982.364,581.442 1977.201 C 578.822 1966.762,660.458 1549.298,681.800 1464.000 C 736.664 1244.718,744.673 1222.811,782.670 1188.083 C 821.279 1152.797,850.629 1142.646,961.763 1126.139 C 1060.197 1111.518,1058.973 1107.373,954.000 1099.847 C 921.000 1097.482,878.055 1092.001,858.567 1087.667 C 826.444 1080.524,801.554 1079.551,592.060 1077.247 L 360.986 1074.705 367.328 1099.050 M829.582 1203.695 C 790.225 1230.170,776.314 1257.605,760.294 1340.342 C 755.784 1363.630,744.873 1405.273,736.047 1432.880 C 727.221 1460.488,720.021 1485.534,720.046 1488.538 C 720.071 1491.542,726.491 1482.502,734.312 1468.450 C 742.134 1454.397,759.073 1427.225,771.956 1408.066 C 801.387 1364.295,805.382 1354.580,815.864 1301.291 C 821.893 1270.640,829.188 1248.363,840.849 1224.993 C 849.907 1206.839,856.384 1191.051,855.242 1189.908 C 854.099 1188.766,842.552 1194.970,829.582 1203.695 M1684.275 2022.142 C 1701.409 2031.003,1702.825 2042.234,1688.968 2059.382 C 1677.461 2073.621,1676.368 2074.030,1646.772 2075.165 C 1606.467 2076.710,1591.960 2072.589,1582.862 2057.010 C 1576.120 2045.466,1576.034 2043.536,1581.773 2032.440 C 1585.198 2025.817,1591.150 2018.436,1595.000 2016.039 C 1604.439 2010.160,1669.738 2014.625,1684.275 2022.142 M1376.606 2027.747 C 1385.764 2039.067,1383.885 2053.532,1371.637 2066.000 C 1364.810 2072.949,1358.491 2074.000,1323.535 2074.000 C 1286.069 2074.000,1282.766 2073.349,1275.647 2064.557 C 1265.462 2051.979,1265.985 2036.662,1277.000 2024.927 C 1285.557 2015.810,1288.037 2015.403,1327.360 2016.669 C 1365.562 2017.898,1369.323 2018.744,1376.606 2027.747 M1999.710 2026.539 C 2009.520 2039.012,2010.267 2050.983,2001.972 2062.826 C 1994.123 2074.032,1963.076 2078.048,1928.000 2072.394 C 1889.497 2066.188,1879.693 2048.819,1901.249 2025.000 C 1908.687 2016.781,1912.956 2016.000,1950.407 2016.000 C 1989.949 2016.000,1991.717 2016.378,1999.710 2026.539 " fill="#1D1E23" stroke="none" fill-rule="evenodd"/></svg>