<svg viewBox="0 0 2400 2400" fill="none" xmlns="http://www.w3.org/2000/svg"><path d="M952.000 203.412 C 920.465 205.683,910.310 208.178,892.310 218.074 C 868.299 231.276,843.000 260.190,835.337 283.186 C 831.614 294.360,830.057 385.724,829.002 655.000 L 827.603 1012.000 859.802 1012.000 L 892.000 1012.000 892.000 732.000 L 892.000 452.000 1392.000 452.000 L 1892.000 452.000 1892.000 913.340 C 1892.000 1167.076,1890.804 1504.576,1889.342 1663.340 L 1886.685 1952.000 1389.342 1952.000 L 892.000 1952.000 892.000 1920.000 L 892.000 1888.000 859.580 1888.000 L 827.160 1888.000 828.722 1997.000 C 830.167 2097.867,830.921 2107.402,838.822 2124.785 C 849.907 2149.173,876.589 2175.591,903.862 2189.182 L 925.571 2200.000 1391.728 2200.000 L 1857.885 2200.000 1879.308 2189.161 C 1907.221 2175.038,1937.148 2142.087,1947.718 2113.837 L 1956.000 2091.700 1956.000 1200.206 L 1956.000 308.712 1947.322 286.034 C 1936.591 257.994,1911.272 229.229,1884.490 214.653 L 1864.194 203.606 1427.097 202.141 C 1186.694 201.334,972.900 201.906,952.000 203.412 M1537.796 337.378 C 1550.476 354.001,1550.573 360.561,1538.351 374.777 L 1528.702 386.000 1390.437 387.239 L 1252.173 388.477 1244.101 375.239 C 1234.590 359.639,1233.863 348.451,1241.666 337.780 C 1249.398 327.207,1273.522 325.350,1412.796 324.610 L 1527.593 324.000 1537.796 337.378 M990.132 583.855 C 983.293 591.412,983.650 594.635,999.553 668.855 C 1023.806 782.040,1042.201 859.533,1045.633 862.974 C 1047.293 864.638,1090.034 866.545,1140.614 867.211 C 1229.321 868.379,1233.807 868.061,1267.289 858.210 L 1302.000 847.998 1490.740 847.999 C 1602.274 848.000,1683.631 846.422,1689.628 844.141 C 1703.506 838.865,1706.244 824.433,1700.673 785.907 C 1694.389 742.441,1678.390 696.489,1659.912 668.828 C 1631.436 626.202,1635.098 627.747,1543.090 619.558 C 1448.799 611.167,1013.042 575.974,1003.620 575.989 C 1000.111 575.995,994.041 579.535,990.132 583.855 M1300.000 892.097 C 1287.900 893.774,1267.272 898.038,1254.160 901.573 C 1238.317 905.844,1213.493 908.021,1180.160 908.061 C 1126.966 908.126,1114.908 910.795,1126.045 920.038 C 1129.900 923.237,1150.141 926.646,1176.661 928.562 C 1268.431 935.194,1324.280 961.564,1355.029 1012.782 C 1367.398 1033.385,1371.400 1048.074,1383.697 1118.000 C 1386.018 1131.200,1393.334 1154.881,1399.953 1170.624 C 1406.573 1186.367,1413.867 1213.367,1416.162 1230.624 C 1424.195 1291.022,1433.222 1339.181,1464.583 1488.938 L 1496.191 1639.875 1458.095 1698.164 C 1420.780 1755.260,1420.000 1756.939,1420.000 1780.226 C 1420.000 1810.662,1426.926 1818.291,1458.094 1822.185 C 1496.634 1827.000,1526.935 1822.123,1590.614 1800.854 C 1674.809 1772.731,1707.508 1756.873,1732.191 1732.190 C 1753.521 1710.860,1776.393 1667.916,1790.297 1623.094 C 1797.358 1600.329,1797.335 1599.863,1786.507 1547.094 C 1780.515 1517.892,1753.294 1395.900,1726.015 1276.000 C 1652.863 954.462,1649.508 935.244,1661.523 906.512 C 1665.085 897.993,1668.000 890.343,1668.000 889.512 C 1668.000 886.631,1321.899 889.063,1300.000 892.097 M1268.000 983.090 C 1268.000 985.236,1272.453 994.960,1277.896 1004.698 C 1292.733 1031.244,1299.249 1052.552,1304.326 1091.130 C 1309.683 1131.824,1309.031 1130.332,1336.176 1164.000 C 1347.706 1178.300,1362.328 1200.800,1368.669 1214.000 C 1378.198 1233.835,1379.753 1235.571,1377.629 1224.000 C 1376.216 1216.300,1371.488 1201.000,1367.121 1190.000 C 1350.424 1147.933,1348.205 1139.836,1343.949 1105.421 C 1337.578 1053.906,1333.094 1039.553,1316.691 1018.158 C 1302.663 999.861,1268.000 974.896,1268.000 983.090 M769.623 1133.282 L 750.681 1190.565 718.341 1207.693 L 686.000 1224.820 630.943 1214.209 C 600.662 1208.373,574.182 1204.652,572.099 1205.939 C 568.075 1208.426,533.562 1263.164,512.660 1300.209 L 500.129 1322.418 540.044 1368.209 L 579.959 1414.000 579.934 1450.000 L 579.910 1486.000 539.779 1531.349 L 499.649 1576.698 510.431 1595.349 C 550.636 1664.897,564.521 1687.453,569.855 1691.880 C 574.789 1695.975,586.328 1694.918,631.531 1686.230 L 687.138 1675.543 718.972 1692.677 L 750.805 1709.811 769.685 1766.905 L 788.565 1824.000 859.386 1824.000 L 930.206 1824.000 949.149 1767.000 L 968.091 1710.000 1000.477 1692.772 L 1032.862 1675.543 1089.121 1686.356 L 1145.380 1697.168 1153.090 1687.648 C 1158.847 1680.537,1203.670 1606.423,1218.631 1579.274 C 1219.457 1577.775,1202.103 1556.268,1180.067 1531.482 L 1140.000 1486.416 1140.075 1450.208 L 1140.150 1414.000 1180.079 1368.358 L 1220.008 1322.716 1209.398 1304.358 C 1169.726 1235.718,1155.503 1212.567,1150.401 1208.333 C 1145.806 1204.519,1132.995 1205.742,1089.294 1214.164 L 1034.000 1224.820 1000.987 1207.410 L 967.974 1190.000 949.090 1133.000 L 930.206 1076.000 859.386 1076.000 L 788.565 1076.000 769.623 1133.282 M920.889 1325.281 C 946.821 1337.969,971.270 1362.932,985.750 1391.506 C 994.643 1409.056,996.000 1416.840,996.000 1450.307 C 996.000 1485.963,995.040 1490.681,983.309 1512.690 C 948.246 1578.477,869.654 1607.600,805.816 1578.464 C 726.465 1542.248,697.805 1447.694,743.612 1373.248 C 757.395 1350.849,770.530 1340.237,805.188 1323.502 C 827.955 1312.508,832.829 1311.640,864.323 1312.960 C 891.625 1314.105,903.197 1316.625,920.889 1325.281 M1121.541 2016.519 C 1146.632 2027.951,1142.609 2068.078,1115.835 2073.433 C 1094.293 2077.741,1046.594 2076.183,1036.000 2070.824 C 1011.833 2058.600,1012.727 2023.518,1037.386 2016.375 C 1055.541 2011.117,1109.889 2011.210,1121.541 2016.519 M1436.141 2018.073 C 1451.091 2025.804,1455.039 2040.735,1446.735 2058.148 C 1441.331 2069.479,1437.696 2071.855,1422.209 2074.178 C 1412.209 2075.677,1391.412 2076.191,1375.993 2075.320 C 1353.949 2074.075,1346.111 2071.889,1339.313 2065.090 C 1322.407 2048.185,1331.939 2018.432,1355.416 2014.825 C 1382.907 2010.601,1424.964 2012.293,1436.141 2018.073 M1748.141 2018.073 C 1768.753 2028.732,1768.629 2060.385,1747.934 2070.856 C 1742.278 2073.717,1723.357 2075.882,1704.000 2075.882 C 1684.643 2075.882,1665.722 2073.717,1660.066 2070.856 C 1639.817 2060.610,1639.207 2029.028,1659.051 2018.261 C 1674.177 2010.054,1732.396 2009.931,1748.141 2018.073 " fill="#1D1E23" stroke="none" fill-rule="evenodd"/></svg>