<svg viewBox="0 0 2400 2400" fill="none" xmlns="http://www.w3.org/2000/svg"><path d="M200.000 950.000 L 200.000 1700.000 326.000 1700.000 L 452.000 1700.000 452.000 950.000 L 452.000 200.000 326.000 200.000 L 200.000 200.000 200.000 950.000 M576.000 732.000 L 576.000 1264.000 670.000 1264.000 L 764.000 1264.000 764.000 732.000 L 764.000 200.000 670.000 200.000 L 576.000 200.000 576.000 732.000 M888.000 732.000 L 888.000 1264.000 950.000 1264.000 L 1012.000 1264.000 1012.000 732.000 L 1012.000 200.000 950.000 200.000 L 888.000 200.000 888.000 732.000 M1140.000 732.000 L 1140.000 1264.000 1202.000 1264.000 L 1264.000 1264.000 1264.000 732.000 L 1264.000 200.000 1202.000 200.000 L 1140.000 200.000 1140.000 732.000 M1388.000 732.000 L 1388.000 1264.000 1482.000 1264.000 L 1576.000 1264.000 1576.000 732.000 L 1576.000 200.000 1482.000 200.000 L 1388.000 200.000 1388.000 732.000 M1700.000 732.000 L 1700.000 1264.000 1762.000 1264.000 L 1824.000 1264.000 1824.000 732.000 L 1824.000 200.000 1762.000 200.000 L 1700.000 200.000 1700.000 732.000 M1952.000 950.000 L 1952.000 1700.000 2076.000 1700.000 L 2200.000 1700.000 2200.000 950.000 L 2200.000 200.000 2076.000 200.000 L 1952.000 200.000 1952.000 950.000 M862.000 1516.218 C 824.600 1517.857,783.482 1521.148,770.626 1523.532 C 702.878 1536.095,629.645 1597.817,594.676 1671.825 C 579.312 1704.342,576.534 1736.774,576.225 1887.278 L 576.000 1996.556 588.323 2026.158 C 619.587 2101.257,674.146 2156.605,742.139 2182.197 C 777.319 2195.439,834.389 2199.890,968.000 2199.811 C 1117.941 2199.724,1191.622 2194.909,1224.246 2183.067 C 1291.826 2158.537,1364.879 2085.913,1382.054 2026.187 C 1390.664 1996.249,1395.979 1910.356,1395.990 1801.000 L 1396.000 1704.000 1338.588 1704.000 L 1281.176 1704.000 1278.390 1813.000 C 1275.114 1941.124,1270.700 1987.830,1259.719 2010.552 C 1249.966 2030.735,1215.607 2063.957,1192.067 2075.966 C 1174.723 2084.814,1174.704 2084.814,984.361 2082.942 C 852.433 2081.644,789.316 2079.598,778.740 2076.275 C 760.593 2070.573,722.697 2034.130,706.918 2007.206 L 696.000 1988.575 696.000 1857.639 L 696.000 1726.703 706.569 1708.351 C 738.515 1652.880,762.703 1638.176,832.000 1632.101 C 857.300 1629.883,888.823 1628.053,902.052 1628.034 L 926.103 1628.000 984.000 1570.000 L 1041.897 1512.000 985.948 1512.620 C 955.177 1512.960,899.400 1514.580,862.000 1516.218 M1202.000 1523.781 C 1174.173 1527.191,1140.693 1543.054,1105.526 1569.490 C 1058.428 1604.894,1020.461 1662.956,1011.948 1712.598 C 1009.552 1726.569,1006.514 1798.750,1005.198 1873.000 L 1002.805 2008.000 1060.761 2008.000 L 1118.717 2008.000 1121.341 1907.000 C 1124.369 1790.413,1129.787 1725.039,1138.064 1705.230 C 1154.514 1665.859,1187.260 1643.248,1238.000 1636.223 C 1288.905 1629.176,1434.359 1626.732,1528.938 1631.335 C 1627.296 1636.121,1634.226 1637.995,1664.116 1667.884 C 1698.728 1702.497,1704.441 1726.699,1704.273 1838.000 C 1704.131 1931.677,1698.824 1994.936,1689.615 2012.745 C 1680.048 2031.245,1647.273 2061.702,1625.686 2072.152 C 1609.190 2080.137,1599.034 2081.439,1539.896 2083.146 L 1472.816 2085.083 1415.408 2142.937 L 1358.000 2200.791 1488.000 2198.855 L 1618.000 2196.918 1650.000 2185.365 C 1667.600 2179.010,1692.181 2167.041,1704.624 2158.766 C 1739.947 2135.277,1781.173 2089.292,1797.387 2055.296 C 1821.502 2004.733,1821.839 2002.052,1821.923 1860.000 C 1821.990 1747.200,1821.051 1726.560,1814.831 1704.000 C 1793.667 1627.248,1751.026 1577.713,1672.699 1538.891 L 1638.621 1522.000 1432.310 1521.419 C 1318.840 1521.100,1215.200 1522.163,1202.000 1523.781 " fill="#1D1E23" stroke="none" fill-rule="evenodd"/></svg>