<svg viewBox="0 0 2400 2400" fill="none" xmlns="http://www.w3.org/2000/svg"><path d="M921.733 353.000 C 893.720 437.150,869.615 506.485,868.167 507.078 C 857.078 511.616,763.543 565.427,737.048 582.511 L 704.096 603.758 631.048 588.069 C 556.533 572.066,408.068 544.000,397.923 544.000 C 394.837 544.000,388.470 548.050,383.774 553.000 C 367.892 569.743,203.839 851.733,204.114 861.819 C 204.176 864.118,250.958 919.100,308.073 984.000 L 411.919 1102.000 411.893 1200.000 L 411.867 1298.000 357.470 1360.000 C 210.803 1527.165,206.952 1531.992,209.198 1545.832 C 211.415 1559.495,256.283 1639.224,336.475 1772.000 C 385.232 1852.729,386.224 1854.019,400.452 1855.209 C 408.400 1855.874,470.500 1845.278,538.452 1831.664 C 606.403 1818.049,673.700 1806.705,688.000 1806.455 C 713.514 1806.009,714.973 1806.572,766.000 1836.595 C 794.600 1853.423,829.786 1872.980,844.192 1880.055 L 870.384 1892.920 921.506 2046.460 L 972.628 2200.000 1160.000 2200.000 L 1347.372 2200.000 1398.503 2046.433 L 1449.634 1892.865 1471.817 1882.020 C 1484.018 1876.054,1521.559 1855.059,1555.242 1835.363 L 1616.484 1799.552 1760.261 1827.776 C 1839.338 1843.299,1910.243 1856.000,1917.827 1856.000 C 1929.550 1856.000,1933.366 1853.453,1943.297 1839.000 C 1957.471 1818.372,2072.741 1621.350,2098.397 1573.899 L 2116.798 1539.866 2093.399 1511.256 C 2070.988 1483.853,1973.808 1372.003,1929.242 1322.318 L 1908.000 1298.637 1908.000 1199.867 L 1908.000 1101.097 1960.807 1041.548 C 2032.715 960.461,2112.560 867.010,2114.773 861.345 C 2115.773 858.784,2104.581 835.384,2089.901 809.345 C 2055.254 747.884,1945.880 564.907,1936.117 552.072 L 1928.565 542.144 1885.283 549.378 C 1861.477 553.356,1791.219 567.163,1729.154 580.060 L 1616.308 603.508 1562.913 570.754 C 1533.546 552.739,1495.997 530.912,1479.470 522.249 L 1449.422 506.497 1398.397 353.249 L 1347.372 200.000 1160.019 200.000 L 972.666 200.000 921.733 353.000 M759.000 729.807 L 812.000 755.608 812.000 776.780 L 812.000 797.952 932.969 918.970 L 1053.938 1039.988 1026.963 1066.963 L 999.988 1093.938 880.969 974.969 L 761.951 856.000 739.975 855.932 L 718.000 855.865 689.163 800.636 L 660.326 745.408 680.073 724.704 C 690.934 713.317,701.211 704.001,702.910 704.003 C 704.610 704.005,729.850 715.616,759.000 729.807 M1475.423 711.836 C 1489.405 713.858,1501.797 716.464,1502.960 717.627 C 1504.124 718.790,1474.837 750.850,1437.879 788.871 C 1369.155 859.571,1348.000 886.414,1348.000 902.916 C 1348.000 940.477,1419.377 1012.000,1456.861 1012.000 C 1470.935 1012.000,1496.606 991.929,1572.468 921.612 C 1607.841 888.826,1638.184 861.474,1639.898 860.831 C 1646.703 858.278,1649.307 876.813,1651.060 940.291 C 1652.818 1003.958,1652.494 1007.565,1642.864 1031.406 C 1609.569 1113.835,1548.439 1169.930,1470.000 1190.030 C 1434.524 1199.121,1392.888 1201.711,1368.011 1196.376 L 1346.312 1191.723 1178.156 1359.079 C 835.228 1700.376,838.101 1697.897,786.000 1697.461 C 752.287 1697.178,727.976 1687.517,702.964 1664.461 C 674.854 1638.551,666.000 1616.759,666.000 1573.487 C 666.000 1537.497,666.227 1536.644,681.816 1514.008 C 700.319 1487.144,862.419 1318.646,1041.172 1140.469 L 1167.109 1014.938 1165.041 966.469 C 1162.674 911.004,1168.029 882.694,1188.527 842.310 C 1203.023 813.752,1234.526 773.738,1256.274 756.261 C 1269.326 745.772,1320.149 718.209,1340.000 710.855 C 1349.919 707.180,1448.139 707.892,1475.423 711.836 M1428.751 1268.467 C 1436.864 1270.506,1452.164 1279.027,1462.751 1287.402 C 1512.920 1327.089,1636.740 1495.992,1650.655 1543.724 C 1672.638 1619.127,1613.624 1697.026,1534.066 1697.622 C 1504.194 1697.846,1481.469 1687.836,1426.000 1650.022 C 1329.366 1584.144,1251.999 1516.158,1208.305 1458.720 L 1190.609 1435.458 1278.305 1347.661 L 1366.000 1259.864 1390.000 1262.312 C 1403.200 1263.658,1420.638 1266.428,1428.751 1268.467 " fill="#1D1E23" stroke="none" fill-rule="evenodd"/></svg>