<svg viewBox="0 0 2400 2400" fill="none" xmlns="http://www.w3.org/2000/svg"><path d="M921.366 353.961 L 870.104 507.922 830.330 526.961 C 808.454 537.432,771.323 558.748,747.817 574.328 L 705.079 602.656 553.540 571.483 C 470.193 554.337,398.369 540.240,393.930 540.155 C 387.459 540.031,367.721 571.490,294.271 699.000 C 243.896 786.450,202.159 859.046,201.522 860.325 C 200.884 861.603,248.929 917.403,308.288 984.325 L 416.214 1106.000 413.531 1122.000 C 410.071 1142.643,410.047 1257.150,413.498 1278.000 L 416.147 1294.000 308.264 1415.619 C 210.893 1525.388,200.815 1538.055,204.829 1545.619 C 208.831 1553.159,334.419 1771.210,372.220 1836.250 L 387.477 1862.500 546.456 1830.031 L 705.436 1797.562 747.952 1825.781 C 771.335 1841.301,808.445 1862.748,830.419 1873.440 L 870.371 1892.879 921.499 2046.440 L 972.628 2200.000 1160.000 2200.000 L 1347.372 2200.000 1398.501 2046.440 L 1449.629 1892.879 1489.411 1873.440 C 1511.291 1862.748,1548.418 1841.295,1571.915 1825.766 L 1614.638 1797.532 1772.319 1830.072 C 1859.044 1847.969,1931.164 1861.574,1932.587 1860.306 C 1934.010 1859.038,1972.498 1793.200,2018.116 1714.000 C 2063.733 1634.800,2105.275 1562.717,2110.430 1553.816 L 2119.803 1537.633 2011.661 1415.816 L 1903.518 1294.000 1906.062 1276.614 C 1909.354 1254.117,1909.358 1145.929,1906.069 1123.386 L 1903.532 1106.000 2011.530 984.170 L 2119.528 862.341 2106.764 839.950 C 1977.403 613.023,1933.428 540.096,1926.000 540.180 C 1921.600 540.230,1849.716 554.367,1766.257 571.596 L 1614.515 602.922 1576.257 577.216 C 1555.216 563.077,1518.135 541.577,1493.855 529.437 L 1449.710 507.363 1398.541 353.682 L 1347.372 200.000 1160.000 200.000 L 972.628 200.000 921.366 353.961 M763.000 730.468 L 812.000 756.446 812.000 777.199 L 812.000 797.952 932.969 918.970 L 1053.938 1039.988 1026.963 1066.963 L 999.988 1093.938 880.969 974.969 L 761.951 856.000 739.675 856.000 L 717.398 856.000 688.909 800.939 L 660.420 745.878 680.739 722.714 C 694.971 706.489,702.996 700.290,707.529 702.019 C 711.088 703.377,736.050 716.179,763.000 730.468 M1480.000 710.146 C 1492.100 713.817,1502.794 717.580,1503.764 718.508 C 1504.735 719.436,1472.004 753.902,1431.030 795.098 C 1390.056 836.294,1354.612 875.067,1352.266 881.260 C 1341.335 910.115,1349.029 932.781,1381.500 967.379 C 1420.771 1009.223,1451.009 1020.793,1481.199 1005.526 C 1488.239 1001.966,1526.807 966.523,1566.904 926.764 C 1607.001 887.005,1640.698 855.365,1641.786 856.452 C 1642.873 857.540,1646.926 870.033,1650.792 884.215 C 1661.918 925.034,1660.177 990.020,1646.958 1027.338 C 1617.107 1111.612,1553.573 1170.626,1469.562 1192.112 C 1436.059 1200.681,1392.310 1202.181,1364.285 1195.721 L 1346.571 1191.639 1102.285 1435.222 C 911.432 1625.528,853.750 1680.810,838.570 1687.968 C 778.404 1716.338,704.063 1690.409,672.834 1630.161 C 658.140 1601.814,657.607 1551.495,671.688 1522.000 C 679.231 1506.201,732.367 1450.724,924.679 1257.865 L 1168.121 1013.730 1164.061 992.319 C 1144.337 888.320,1200.810 775.589,1296.232 728.476 C 1314.805 719.307,1341.700 709.171,1356.000 705.952 C 1388.189 698.707,1449.084 700.767,1480.000 710.146 M1419.558 1264.006 C 1436.600 1264.012,1440.348 1266.062,1468.929 1291.006 C 1504.132 1321.731,1525.674 1347.883,1589.143 1436.946 C 1650.816 1523.489,1658.026 1538.084,1657.899 1576.121 C 1657.817 1600.815,1655.794 1610.339,1646.675 1628.979 C 1612.208 1699.426,1521.347 1721.614,1459.609 1674.659 C 1449.924 1667.293,1416.800 1643.583,1386.000 1621.970 C 1290.833 1555.189,1260.007 1526.456,1202.273 1450.721 L 1190.625 1435.442 1278.313 1347.440 L 1366.000 1259.438 1383.558 1261.719 C 1393.215 1262.974,1409.415 1264.003,1419.558 1264.006 " fill="#1D1E23" stroke="none" fill-rule="evenodd"/></svg>