<svg viewBox="0 0 2400 2400" fill="none" xmlns="http://www.w3.org/2000/svg"><path d="M388.000 262.000 L 388.000 324.000 514.000 324.000 L 640.000 324.000 640.000 262.000 L 640.000 200.000 514.000 200.000 L 388.000 200.000 388.000 262.000 M700.000 262.000 L 700.000 324.000 982.000 324.000 L 1264.000 324.000 1264.000 262.000 L 1264.000 200.000 982.000 200.000 L 700.000 200.000 700.000 262.000 M1761.993 356.007 L 1606.065 511.974 1543.978 449.978 L 1481.892 387.983 1434.962 435.035 L 1388.033 482.087 1497.037 591.038 L 1606.041 699.988 1809.045 496.955 L 2012.048 293.923 1964.984 246.982 L 1917.921 200.041 1761.993 356.007 M388.000 450.000 L 388.000 512.000 670.000 512.000 L 952.000 512.000 952.000 450.000 L 952.000 388.000 670.000 388.000 L 388.000 388.000 388.000 450.000 M1012.000 450.000 L 1012.000 512.000 1138.000 512.000 L 1264.000 512.000 1264.000 450.000 L 1264.000 388.000 1138.000 388.000 L 1012.000 388.000 1012.000 450.000 M388.000 638.000 L 388.000 700.000 576.000 700.000 L 764.000 700.000 764.000 638.000 L 764.000 576.000 576.000 576.000 L 388.000 576.000 388.000 638.000 M824.000 638.000 L 824.000 700.000 1044.000 700.000 L 1264.000 700.000 1264.000 638.000 L 1264.000 576.000 1044.000 576.000 L 824.000 576.000 824.000 638.000 M388.000 918.000 L 388.000 1012.000 450.000 1012.000 L 512.000 1012.000 512.000 918.000 L 512.000 824.000 450.000 824.000 L 388.000 824.000 388.000 918.000 M576.000 917.832 L 576.000 1012.000 608.074 1012.000 L 640.147 1012.000 639.074 919.000 L 638.000 826.000 607.000 824.832 L 576.000 823.663 576.000 917.832 M700.000 918.000 L 700.000 1012.000 762.000 1012.000 L 824.000 1012.000 824.000 918.000 L 824.000 824.000 762.000 824.000 L 700.000 824.000 700.000 918.000 M888.000 917.832 L 888.000 1012.000 920.074 1012.000 L 952.147 1012.000 951.074 919.000 L 950.000 826.000 919.000 824.832 L 888.000 823.663 888.000 917.832 M1012.000 917.898 L 1012.000 1012.000 1076.074 1012.000 L 1140.147 1012.000 1139.074 919.000 L 1138.000 826.000 1075.000 824.898 L 1012.000 823.797 1012.000 917.898 M1200.000 918.000 L 1200.000 1012.000 1232.000 1012.000 L 1264.000 1012.000 1264.000 918.000 L 1264.000 824.000 1232.000 824.000 L 1200.000 824.000 1200.000 918.000 M1324.000 918.000 L 1324.000 1012.000 1356.000 1012.000 L 1388.000 1012.000 1388.000 918.000 L 1388.000 824.000 1356.000 824.000 L 1324.000 824.000 1324.000 918.000 M1450.667 826.667 C 1449.200 828.133,1448.000 870.433,1448.000 920.667 L 1448.000 1012.000 1512.000 1012.000 L 1576.000 1012.000 1576.000 918.000 L 1576.000 824.000 1514.667 824.000 C 1480.933 824.000,1452.133 825.200,1450.667 826.667 M1638.667 826.667 C 1637.200 828.133,1636.000 870.433,1636.000 920.667 L 1636.000 1012.000 1668.000 1012.000 L 1700.000 1012.000 1700.000 918.000 L 1700.000 824.000 1670.667 824.000 C 1654.533 824.000,1640.133 825.200,1638.667 826.667 M1764.000 918.000 L 1764.000 1012.000 1794.000 1012.000 L 1824.000 1012.000 1824.000 918.000 L 1824.000 824.000 1794.000 824.000 L 1764.000 824.000 1764.000 918.000 M1888.000 918.000 L 1888.000 1012.000 1950.000 1012.000 L 2012.000 1012.000 2012.000 918.000 L 2012.000 824.000 1950.000 824.000 L 1888.000 824.000 1888.000 918.000 M200.000 1106.000 L 200.000 1136.000 1200.000 1136.000 L 2200.000 1136.000 2200.000 1106.000 L 2200.000 1076.000 1200.000 1076.000 L 200.000 1076.000 200.000 1106.000 M388.000 1388.000 L 388.000 1576.000 450.000 1576.000 L 512.000 1576.000 512.000 1388.000 L 512.000 1200.000 450.000 1200.000 L 388.000 1200.000 388.000 1388.000 M576.000 1326.168 L 576.000 1452.337 607.000 1451.168 L 638.000 1450.000 639.057 1325.000 L 640.114 1200.000 608.057 1200.000 L 576.000 1200.000 576.000 1326.168 M700.000 1326.000 L 700.000 1452.000 762.000 1452.000 L 824.000 1452.000 824.000 1326.000 L 824.000 1200.000 762.000 1200.000 L 700.000 1200.000 700.000 1326.000 M888.000 1326.168 L 888.000 1452.337 919.000 1451.168 L 950.000 1450.000 951.057 1325.000 L 952.114 1200.000 920.057 1200.000 L 888.000 1200.000 888.000 1326.168 M1012.943 1325.000 L 1014.000 1450.000 1076.000 1450.000 L 1138.000 1450.000 1139.057 1325.000 L 1140.114 1200.000 1076.000 1200.000 L 1011.886 1200.000 1012.943 1325.000 M1200.000 1326.168 L 1200.000 1452.337 1231.000 1451.168 L 1262.000 1450.000 1263.057 1325.000 L 1264.114 1200.000 1232.057 1200.000 L 1200.000 1200.000 1200.000 1326.168 M1324.943 1325.000 L 1326.000 1450.000 1357.000 1451.168 L 1388.000 1452.337 1388.000 1326.168 L 1388.000 1200.000 1355.943 1200.000 L 1323.886 1200.000 1324.943 1325.000 M1448.943 1325.000 L 1450.000 1450.000 1512.000 1450.000 L 1574.000 1450.000 1575.057 1325.000 L 1576.114 1200.000 1512.000 1200.000 L 1447.886 1200.000 1448.943 1325.000 M1636.943 1325.000 L 1638.000 1450.000 1669.000 1451.168 L 1700.000 1452.337 1700.000 1326.168 L 1700.000 1200.000 1667.943 1200.000 L 1635.886 1200.000 1636.943 1325.000 M1764.000 1326.000 L 1764.000 1452.000 1794.000 1452.000 L 1824.000 1452.000 1824.000 1326.000 L 1824.000 1200.000 1794.000 1200.000 L 1764.000 1200.000 1764.000 1326.000 M1888.000 1388.000 L 1888.000 1576.000 1950.000 1576.000 L 2012.000 1576.000 2012.000 1388.000 L 2012.000 1200.000 1950.000 1200.000 L 1888.000 1200.000 1888.000 1388.000 M388.000 1762.000 L 388.000 1824.000 418.000 1824.000 L 448.000 1824.000 448.000 1856.000 L 448.000 1888.000 418.000 1888.000 L 388.000 1888.000 388.000 1950.000 L 388.000 2012.000 418.000 2012.000 L 448.000 2012.000 448.000 2074.000 L 448.000 2136.000 418.000 2136.000 L 388.000 2136.000 388.000 2168.000 L 388.000 2200.000 420.000 2200.000 L 452.000 2200.000 452.000 2168.000 L 452.000 2136.000 482.000 2136.000 L 512.000 2136.000 512.000 2168.000 L 512.000 2200.000 576.000 2200.000 L 640.000 2200.000 640.000 2170.000 L 640.000 2140.000 670.000 2140.000 L 700.000 2140.000 700.000 2170.000 L 700.000 2200.000 762.000 2200.000 L 824.000 2200.000 824.000 2170.000 L 824.000 2140.000 856.000 2140.000 L 888.000 2140.000 888.000 2046.168 L 888.000 1952.337 857.000 1951.168 L 826.000 1950.000 824.832 1919.000 L 823.663 1888.000 855.832 1888.000 L 888.000 1888.000 888.000 1856.000 L 888.000 1824.000 856.000 1824.000 L 824.000 1824.000 824.000 1794.000 L 824.000 1764.000 856.000 1764.000 L 888.000 1764.000 888.000 1732.000 L 888.000 1700.000 826.000 1700.000 L 764.000 1700.000 764.000 1732.000 L 764.000 1764.000 700.000 1764.000 L 636.000 1764.000 636.000 1794.000 L 636.000 1824.000 606.000 1824.000 L 576.000 1824.000 576.000 1794.168 L 576.000 1764.337 607.000 1763.168 L 638.000 1762.000 639.168 1731.000 L 640.337 1700.000 576.168 1700.000 L 512.000 1700.000 512.000 1762.000 L 512.000 1824.000 482.000 1824.000 L 452.000 1824.000 452.000 1762.000 L 452.000 1700.000 420.000 1700.000 L 388.000 1700.000 388.000 1762.000 M1553.090 1725.000 C 1507.567 1831.550,1446.760 1930.801,1390.202 1990.874 C 1360.348 2022.584,1307.143 2067.841,1299.578 2067.962 C 1298.246 2067.983,1285.646 2053.349,1271.578 2035.443 C 1222.286 1972.700,1180.404 1944.392,1131.718 1940.908 C 1065.368 1936.161,1012.000 1977.660,1012.000 2034.000 C 1012.000 2084.474,1060.308 2134.292,1118.031 2143.344 C 1160.227 2149.961,1222.082 2136.282,1272.573 2109.167 L 1291.146 2099.193 1326.573 2134.907 C 1374.180 2182.899,1403.706 2198.001,1449.916 2197.997 C 1476.286 2197.994,1485.918 2196.124,1504.000 2187.495 C 1546.161 2167.376,1577.791 2131.218,1590.790 2088.280 C 1601.796 2051.924,1609.443 2046.404,1613.516 2071.874 C 1616.301 2089.290,1626.096 2097.622,1636.765 2091.651 C 1640.373 2089.632,1650.720 2072.702,1659.759 2054.027 C 1678.328 2015.663,1700.025 1990.869,1713.364 1992.769 C 1728.707 1994.956,1726.846 2016.012,1708.265 2050.460 C 1681.436 2100.199,1687.424 2105.377,1738.590 2076.682 C 1777.062 2055.106,1806.101 2043.926,1823.140 2044.131 C 1844.025 2044.382,1874.353 2058.597,1918.595 2088.872 C 1962.882 2119.178,1988.858 2129.131,2006.246 2122.459 C 2018.490 2117.761,2010.733 2106.347,1993.271 2103.366 C 1972.156 2099.761,1956.575 2091.801,1924.000 2067.975 C 1878.446 2034.657,1858.288 2026.216,1824.000 2026.101 C 1797.470 2026.012,1790.365 2027.736,1762.569 2041.007 C 1737.998 2052.739,1731.774 2054.485,1734.050 2049.007 C 1742.574 2028.492,1748.037 2004.962,1746.098 1997.111 C 1740.573 1974.734,1715.384 1965.908,1691.821 1978.092 C 1677.383 1985.559,1652.745 2016.114,1642.098 2039.757 C 1634.845 2055.864,1634.011 2056.512,1631.939 2047.652 C 1630.069 2039.659,1626.852 2037.792,1613.221 2036.789 C 1599.226 2035.759,1596.365 2033.998,1594.115 2025.033 C 1587.756 1999.699,1558.098 1976.000,1532.751 1976.000 C 1518.182 1976.000,1496.923 1990.135,1485.095 2007.687 C 1473.579 2024.775,1473.197 2048.520,1484.152 2066.246 C 1494.215 2082.528,1527.787 2100.000,1549.012 2100.000 L 1564.452 2100.000 1557.226 2112.322 C 1544.995 2133.176,1519.064 2156.499,1496.000 2167.388 C 1445.897 2191.043,1397.858 2176.618,1342.805 2121.386 C 1325.862 2104.388,1312.000 2089.262,1312.000 2087.772 C 1312.000 2086.282,1318.750 2080.583,1327.000 2075.108 C 1372.337 2045.020,1430.619 1982.710,1473.954 1918.000 C 1521.090 1847.613,1584.050 1720.324,1578.667 1706.296 C 1573.559 1692.983,1563.684 1700.204,1553.090 1725.000 M576.000 1918.000 L 576.000 2012.000 544.000 2012.000 L 512.000 2012.000 512.000 1982.000 L 512.000 1952.000 482.000 1952.000 L 452.000 1952.000 452.000 1920.000 L 452.000 1888.000 482.000 1888.000 L 512.000 1888.000 512.000 1856.000 L 512.000 1824.000 544.000 1824.000 L 576.000 1824.000 576.000 1918.000 M700.000 1856.000 L 700.000 1888.000 732.000 1888.000 L 764.000 1888.000 764.000 1856.000 L 764.000 1824.000 794.000 1824.000 L 824.000 1824.000 824.000 1856.000 L 824.000 1888.000 794.000 1888.000 L 764.000 1888.000 764.000 1920.000 L 764.000 1952.000 794.000 1952.000 L 824.000 1952.000 824.000 1982.000 L 824.000 2012.000 762.000 2012.000 L 700.000 2012.000 700.000 2044.000 L 700.000 2076.000 670.000 2076.000 L 640.000 2076.000 640.000 2014.000 L 640.000 1952.000 670.000 1952.000 L 700.000 1952.000 700.000 1920.000 L 700.000 1888.000 670.000 1888.000 L 640.000 1888.000 640.000 1856.000 L 640.000 1824.000 670.000 1824.000 L 700.000 1824.000 700.000 1856.000 M1175.785 1973.874 C 1187.767 1979.955,1207.630 1995.071,1219.925 2007.465 C 1242.768 2030.492,1281.986 2079.466,1279.422 2081.763 C 1278.640 2082.464,1268.653 2087.732,1257.229 2093.470 C 1161.463 2141.570,1082.210 2134.440,1047.912 2074.638 C 1034.146 2050.637,1032.126 2023.373,1042.493 2001.526 C 1061.332 1961.826,1125.727 1948.467,1175.785 1973.874 M1563.994 2014.604 C 1578.964 2031.654,1580.881 2059.119,1568.000 2072.000 C 1554.490 2085.510,1522.696 2079.112,1506.257 2059.576 C 1493.870 2044.855,1493.383 2035.178,1504.151 2017.755 C 1519.130 1993.520,1544.317 1992.194,1563.994 2014.604 M636.000 2106.000 L 636.000 2136.000 574.000 2136.000 L 512.000 2136.000 512.000 2106.000 L 512.000 2076.000 574.000 2076.000 L 636.000 2076.000 636.000 2106.000 M824.000 2108.000 L 824.000 2140.000 794.000 2140.000 L 764.000 2140.000 764.000 2108.000 L 764.000 2076.000 794.000 2076.000 L 824.000 2076.000 824.000 2108.000 " fill="#1D1E23" stroke="none" fill-rule="evenodd"/></svg>