<svg viewBox="0 0 2400 2400" fill="none" xmlns="http://www.w3.org/2000/svg"><path d="M688.737 212.275 C 653.853 219.141,616.433 253.724,607.603 287.258 C 603.782 301.768,602.319 508.943,601.125 1204.796 C 599.768 1995.815,600.299 2104.976,605.552 2115.133 C 617.700 2138.625,643.988 2167.330,668.099 2183.431 L 692.912 2200.000 867.456 2199.748 C 1029.015 2199.515,1104.610 2196.724,1110.563 2190.770 C 1113.915 2187.419,1084.600 2147.522,1032.110 2084.000 C 1007.569 2054.300,973.654 2012.479,956.745 1991.065 L 926.000 1952.129 795.000 1952.065 L 664.000 1952.000 664.000 1202.000 L 664.000 452.000 1164.000 452.000 L 1664.000 452.000 1664.000 1073.383 L 1664.000 1694.767 1694.597 1713.463 L 1725.194 1732.159 1722.675 1019.079 C 1721.289 626.886,1718.589 298.498,1716.675 289.330 C 1712.530 269.474,1693.936 244.878,1666.939 223.538 L 1647.282 208.000 1176.641 208.438 C 917.788 208.679,698.232 210.406,688.737 212.275 M1336.573 276.307 C 1348.096 282.474,1349.330 294.903,1339.931 310.112 L 1331.284 324.103 1192.648 323.051 L 1054.013 322.000 1046.232 307.480 C 1038.876 293.754,1038.819 292.399,1045.180 282.691 C 1050.656 274.332,1055.825 272.095,1072.954 270.667 C 1108.711 267.685,1329.282 272.405,1336.573 276.307 M724.000 1076.000 L 724.000 1576.000 952.000 1576.000 L 1180.000 1576.000 1180.000 1544.000 L 1180.000 1512.000 984.000 1512.000 L 788.000 1512.000 788.000 1138.000 L 788.000 764.000 1162.000 764.000 L 1536.000 764.000 1536.000 1138.000 L 1536.000 1512.000 1496.000 1512.000 L 1456.000 1512.000 1456.000 1544.000 L 1456.000 1576.000 1528.000 1576.000 L 1600.000 1576.000 1600.000 1076.000 L 1600.000 576.000 1162.000 576.000 L 724.000 576.000 724.000 1076.000 M1288.000 670.000 L 1288.000 700.000 1256.000 700.000 L 1224.000 700.000 1224.000 670.000 L 1224.000 640.000 1256.000 640.000 L 1288.000 640.000 1288.000 670.000 M1412.000 670.000 L 1412.000 700.000 1382.000 700.000 L 1352.000 700.000 1352.000 670.000 L 1352.000 640.000 1382.000 640.000 L 1412.000 640.000 1412.000 670.000 M1536.000 670.000 L 1536.000 700.000 1506.000 700.000 L 1476.000 700.000 1476.000 670.000 L 1476.000 640.000 1506.000 640.000 L 1536.000 640.000 1536.000 670.000 M850.667 826.667 C 849.200 828.133,848.000 842.533,848.000 858.667 L 848.000 888.000 880.000 888.000 L 912.000 888.000 912.000 920.000 L 912.000 952.000 944.000 952.000 L 976.000 952.000 976.000 982.000 L 976.000 1012.000 1006.000 1012.000 L 1036.000 1012.000 1036.000 1044.000 L 1036.000 1076.000 1068.000 1076.000 L 1100.000 1076.000 1100.000 1108.168 L 1100.000 1140.337 1131.000 1139.168 L 1162.000 1138.000 1163.168 1107.000 L 1164.337 1076.000 1132.168 1076.000 L 1100.000 1076.000 1100.000 1044.000 L 1100.000 1012.000 1068.000 1012.000 L 1036.000 1012.000 1036.000 982.000 L 1036.000 952.000 1006.000 952.000 L 976.000 952.000 976.000 920.000 L 976.000 888.000 944.000 888.000 L 912.000 888.000 912.000 856.000 L 912.000 824.000 882.667 824.000 C 866.533 824.000,852.133 825.200,850.667 826.667 M1288.000 855.534 L 1288.000 888.000 1317.832 888.000 L 1347.663 888.000 1348.832 919.000 L 1350.000 950.000 1381.000 951.168 L 1412.000 952.337 1412.000 981.621 L 1412.000 1010.905 1385.961 1012.995 C 1351.391 1015.770,1348.000 1019.119,1348.000 1050.490 L 1348.000 1076.000 1318.000 1076.000 L 1288.000 1076.000 1288.000 1108.168 L 1288.000 1140.337 1319.000 1139.168 L 1350.000 1138.000 1351.168 1107.000 L 1352.337 1076.000 1382.168 1076.000 L 1412.000 1076.000 1412.000 1044.000 L 1412.000 1012.000 1444.000 1012.000 L 1476.000 1012.000 1476.000 982.000 L 1476.000 952.000 1444.000 952.000 L 1412.000 952.000 1412.000 920.000 L 1412.000 888.000 1382.000 888.000 L 1352.000 888.000 1352.000 864.765 C 1352.000 832.142,1347.015 826.826,1314.484 824.754 L 1288.000 823.068 1288.000 855.534 M1289.729 1335.868 C 1265.252 1348.274,1247.588 1368.541,1243.695 1388.685 C 1241.854 1398.208,1240.270 1523.635,1240.174 1667.412 L 1240.000 1928.824 1213.000 1904.951 C 1128.458 1830.203,1073.874 1803.647,1029.390 1815.626 C 995.495 1824.753,971.519 1868.395,979.924 1905.665 C 984.348 1925.277,999.832 1947.519,1061.388 2022.682 C 1088.721 2056.058,1131.309 2109.608,1156.028 2141.682 L 1200.970 2200.000 1526.485 2200.000 L 1852.000 2200.000 1852.000 2043.555 L 1852.000 1887.110 1835.786 1867.745 C 1801.060 1826.269,1758.594 1818.274,1721.877 1846.302 C 1709.985 1855.379,1703.287 1858.376,1702.320 1855.054 C 1701.512 1852.274,1697.667 1837.400,1693.775 1822.000 C 1683.240 1780.309,1655.041 1756.116,1616.872 1756.022 C 1601.247 1755.984,1578.713 1767.680,1561.000 1785.022 L 1544.000 1801.666 1543.756 1777.833 C 1543.367 1739.897,1532.850 1712.384,1513.556 1698.823 C 1482.950 1677.312,1447.762 1679.270,1416.170 1704.242 L 1396.000 1720.186 1395.817 1655.093 C 1395.716 1619.292,1394.097 1543.719,1392.220 1487.153 C 1388.292 1368.825,1386.505 1361.726,1356.000 1343.203 C 1330.704 1327.844,1310.067 1325.560,1289.729 1335.868 M899.710 2026.539 C 909.520 2039.012,910.267 2050.983,901.972 2062.826 C 894.123 2074.032,863.076 2078.048,828.000 2072.394 C 789.497 2066.188,779.693 2048.819,801.249 2025.000 C 808.687 2016.781,812.956 2016.000,850.407 2016.000 C 889.949 2016.000,891.717 2016.378,899.710 2026.539 " fill="#1D1E23" stroke="none" fill-rule="evenodd"/></svg>