<svg viewBox="0 0 2400 2400" fill="none" xmlns="http://www.w3.org/2000/svg"><path d="M1120.000 810.507 C 1038.846 826.290,955.091 871.910,893.913 933.654 C 836.651 991.445,793.145 1073.495,768.065 1171.000 L 763.692 1188.000 664.643 1188.000 L 565.594 1188.000 556.979 1170.268 C 544.672 1144.936,501.216 1100.547,471.546 1083.000 L 446.182 1068.000 388.977 1068.000 C 332.809 1068.000,331.321 1068.228,306.886 1080.553 C 259.281 1104.565,220.670 1154.324,206.032 1210.524 C 195.522 1250.872,200.030 1283.573,222.678 1331.290 C 247.870 1384.369,303.709 1427.899,362.174 1440.036 C 389.292 1445.666,433.648 1438.004,466.234 1422.061 C 489.777 1410.542,548.002 1352.656,558.781 1330.053 L 565.482 1316.000 666.009 1316.000 L 766.537 1316.000 773.460 1345.000 C 789.231 1411.069,818.031 1471.661,860.368 1527.846 C 914.195 1599.281,985.023 1648.134,1086.886 1684.087 C 1119.985 1695.770,1122.170 1696.000,1200.000 1696.000 C 1278.437 1696.000,1279.774 1695.856,1314.681 1683.625 C 1398.138 1654.384,1444.363 1626.618,1496.444 1574.448 C 1562.904 1507.872,1602.000 1439.524,1625.402 1349.000 L 1633.933 1316.000 1733.974 1316.000 L 1834.014 1316.000 1843.563 1334.001 C 1856.065 1357.568,1909.948 1408.798,1936.252 1422.128 C 1947.659 1427.908,1969.368 1435.218,1984.496 1438.372 C 2008.624 1443.403,2015.548 1443.367,2040.905 1438.080 C 2082.995 1429.304,2110.153 1414.559,2140.000 1384.280 C 2170.020 1353.825,2185.649 1324.614,2195.014 1281.458 C 2200.572 1255.850,2200.806 1247.207,2196.610 1222.735 C 2193.904 1206.953,2187.282 1184.413,2181.894 1172.645 C 2168.992 1144.463,2122.307 1096.476,2092.159 1080.408 C 2069.227 1068.185,2068.023 1068.000,2011.349 1068.000 L 1953.818 1068.000 1928.454 1083.000 C 1898.784 1100.547,1855.328 1144.936,1843.021 1170.268 L 1834.406 1188.000 1735.357 1188.000 L 1636.308 1188.000 1631.879 1171.000 C 1598.435 1042.627,1543.647 956.712,1450.000 885.790 C 1418.978 862.296,1345.243 825.985,1312.000 817.831 C 1286.319 811.533,1142.863 806.060,1120.000 810.507 M1080.377 1051.575 C 1054.002 1081.324,1055.144 1080.792,994.024 1091.814 C 947.497 1100.205,926.501 1109.540,908.790 1129.712 C 889.658 1151.501,887.157 1167.682,888.699 1259.691 C 890.266 1353.233,890.573 1354.346,923.194 1384.859 C 936.082 1396.914,948.529 1404.616,958.543 1406.733 C 967.044 1408.530,1021.700 1410.000,1080.000 1410.000 C 1183.105 1410.000,1186.520 1409.744,1205.041 1400.623 C 1226.533 1390.040,1250.391 1363.385,1256.278 1343.380 C 1258.444 1336.021,1261.351 1290.850,1262.740 1243.000 L 1265.264 1156.000 1295.015 1156.000 L 1324.765 1156.000 1321.931 1257.000 L 1319.098 1358.000 1306.632 1381.675 C 1281.806 1428.824,1236.936 1461.961,1184.437 1471.917 C 1158.672 1476.803,1014.006 1477.040,972.775 1472.263 C 921.477 1466.320,874.926 1436.893,850.273 1394.826 C 834.108 1367.244,827.339 1326.709,827.088 1256.000 C 826.726 1154.139,838.204 1111.103,875.450 1074.665 C 913.906 1037.043,952.777 1026.930,1067.412 1024.721 L 1104.824 1024.000 1080.377 1051.575 M1483.707 1043.442 C 1509.551 1057.223,1542.485 1090.102,1553.945 1113.562 C 1568.232 1142.811,1573.195 1188.688,1571.012 1271.347 C 1568.913 1350.861,1563.665 1372.749,1537.579 1410.783 C 1511.443 1448.890,1480.991 1465.511,1425.700 1471.845 C 1381.051 1476.960,1309.231 1477.229,1306.181 1472.292 C 1304.920 1470.253,1314.645 1456.118,1327.791 1440.882 L 1351.692 1413.180 1390.846 1410.784 C 1412.381 1409.465,1437.200 1406.087,1446.000 1403.275 C 1466.935 1396.586,1497.996 1365.603,1503.896 1345.523 C 1506.405 1336.985,1509.442 1292.200,1510.646 1246.000 L 1512.835 1162.000 1500.097 1143.085 C 1493.091 1132.682,1478.268 1116.932,1467.157 1108.085 L 1446.955 1092.000 1392.477 1092.227 C 1301.547 1092.606,1198.271 1098.520,1187.725 1103.951 C 1168.535 1113.835,1151.812 1133.681,1145.642 1153.891 C 1141.346 1167.965,1138.797 1200.112,1137.147 1261.000 L 1134.790 1348.000 1104.793 1348.000 L 1074.796 1348.000 1077.570 1263.000 C 1080.689 1167.469,1084.780 1133.993,1096.034 1111.934 C 1111.909 1080.816,1153.102 1046.643,1188.000 1035.641 C 1193.500 1033.907,1258.300 1032.828,1332.000 1033.244 C 1464.450 1033.991,1466.205 1034.109,1483.707 1043.442 M417.558 1130.658 C 436.432 1133.776,481.438 1163.081,483.385 1173.521 C 484.156 1177.657,482.360 1182.580,479.394 1184.459 C 476.427 1186.339,448.471 1187.905,417.268 1187.939 L 360.536 1188.000 346.627 1205.000 C 322.054 1235.035,321.048 1268.432,344.023 1291.408 C 358.726 1306.111,376.980 1311.202,435.000 1316.782 C 461.950 1319.373,484.000 1323.195,484.000 1325.275 C 484.000 1332.310,454.138 1357.274,436.265 1365.179 C 410.804 1376.442,358.389 1375.806,333.869 1363.937 C 314.131 1354.382,285.895 1324.938,277.473 1305.128 C 273.925 1296.785,272.000 1276.363,272.000 1247.075 C 272.000 1202.092,272.061 1201.802,285.957 1181.168 C 300.123 1160.133,328.034 1137.740,347.366 1131.900 C 360.623 1127.895,396.942 1127.253,417.558 1130.658 M2066.000 1138.979 C 2081.903 1147.289,2108.805 1172.979,2121.409 1191.890 C 2126.623 1199.714,2128.000 1211.898,2128.000 1250.207 L 2128.000 1298.634 2112.902 1320.317 C 2095.992 1344.602,2067.591 1365.648,2042.673 1372.357 C 2019.210 1378.675,1984.632 1375.222,1964.077 1364.508 C 1941.104 1352.534,1910.809 1327.520,1914.825 1323.841 C 1916.571 1322.242,1941.400 1318.800,1970.000 1316.193 C 2033.700 1310.387,2052.065 1303.394,2063.747 1280.496 C 2074.380 1259.653,2074.110 1246.658,2062.528 1222.000 C 2047.064 1189.076,2046.317 1188.772,1977.322 1187.297 C 1943.949 1186.584,1915.270 1184.621,1913.590 1182.935 C 1905.409 1174.723,1947.606 1138.076,1972.493 1131.780 C 1996.483 1125.710,2048.231 1129.694,2066.000 1138.979 " fill="#1D1E23" stroke="none" fill-rule="evenodd"/></svg>