<svg viewBox="0 0 2400 2400" fill="none" xmlns="http://www.w3.org/2000/svg"><path d="M285.330 207.359 C 248.277 220.245,222.039 246.085,207.706 283.807 C 200.256 303.413,200.000 319.807,200.000 777.893 L 200.000 1251.700 208.563 1274.850 C 220.145 1306.158,249.842 1335.855,281.150 1347.437 C 304.215 1355.969,305.713 1356.000,690.150 1356.000 L 1076.000 1356.000 1076.047 1015.000 C 1076.085 743.041,1077.178 669.951,1081.445 654.000 C 1095.103 602.948,1133.069 555.939,1179.176 532.992 C 1193.165 526.030,1217.730 518.215,1234.459 515.404 L 1264.566 510.345 1263.283 404.072 L 1262.000 297.799 1248.819 271.042 C 1234.770 242.520,1217.944 225.884,1188.123 211.028 L 1170.000 202.000 738.000 201.085 C 331.224 200.224,304.793 200.590,285.330 207.359 M388.000 340.000 L 388.000 356.000 404.000 356.000 L 420.000 356.000 420.000 372.000 C 420.000 387.566,420.374 388.000,433.759 388.000 C 446.770 388.000,447.584 388.815,448.759 403.000 C 449.929 417.139,450.847 418.070,464.772 419.228 C 478.651 420.382,479.618 421.349,480.772 435.228 C 481.930 449.153,482.861 450.071,497.000 451.241 L 512.000 452.483 512.000 482.241 L 512.000 512.000 496.000 512.000 L 480.000 512.000 480.000 528.000 L 480.000 544.000 464.000 544.000 L 448.000 544.000 448.000 560.000 C 448.000 575.566,447.626 576.000,434.241 576.000 C 421.230 576.000,420.416 576.815,419.241 591.000 C 418.067 605.185,417.185 606.067,403.000 607.241 C 388.815 608.416,388.000 609.230,388.000 622.241 L 388.000 636.000 356.000 636.000 L 324.000 636.000 324.000 622.000 C 324.000 608.333,324.381 608.000,340.000 608.000 L 356.000 608.000 356.000 592.000 L 356.000 576.000 372.000 576.000 L 388.000 576.000 388.000 560.000 L 388.000 544.000 404.000 544.000 L 420.000 544.000 420.000 528.000 L 420.000 512.000 436.000 512.000 L 452.000 512.000 452.000 482.000 L 452.000 452.000 436.000 452.000 L 420.000 452.000 420.000 436.000 L 420.000 420.000 404.000 420.000 L 388.000 420.000 388.000 404.000 L 388.000 388.000 372.000 388.000 L 356.000 388.000 356.000 372.000 L 356.000 356.000 340.000 356.000 L 324.000 356.000 324.000 340.000 L 324.000 324.000 356.000 324.000 L 388.000 324.000 388.000 340.000 M732.000 340.000 L 732.000 356.000 748.057 356.000 L 764.114 356.000 763.057 481.000 L 762.000 606.000 747.000 607.241 C 732.815 608.416,732.000 609.230,732.000 622.241 L 732.000 636.000 670.000 636.000 L 608.000 636.000 608.000 622.000 C 608.000 608.333,607.619 608.000,592.000 608.000 L 576.000 608.000 576.000 482.000 L 576.000 356.000 592.000 356.000 L 608.000 356.000 608.000 340.000 L 608.000 324.000 670.000 324.000 L 732.000 324.000 732.000 340.000 M948.000 480.000 L 948.000 636.000 918.000 636.000 L 888.000 636.000 888.000 512.000 L 888.000 388.000 856.000 388.000 L 824.000 388.000 824.000 356.000 L 824.000 324.000 886.000 324.000 L 948.000 324.000 948.000 480.000 M636.926 481.000 L 638.000 574.000 669.000 575.168 L 700.000 576.337 700.000 482.168 L 700.000 388.000 667.926 388.000 L 635.853 388.000 636.926 481.000 M1223.529 581.486 C 1186.539 594.797,1157.059 623.406,1145.135 657.563 C 1138.414 676.815,1138.000 712.082,1138.000 1266.000 L 1138.000 1854.000 1149.201 1876.810 C 1162.804 1904.511,1192.995 1932.732,1219.023 1942.078 C 1242.061 1950.349,1348.000 1955.763,1348.000 1948.668 C 1348.000 1943.122,1317.908 1905.755,1285.775 1871.399 C 1229.591 1811.330,1216.320 1742.212,1250.174 1685.992 L 1264.000 1663.031 1264.000 1181.515 L 1264.000 700.000 1670.142 700.000 L 2076.284 700.000 2075.142 1325.888 L 2074.000 1951.776 2090.000 1949.449 C 2130.974 1943.491,2169.912 1915.070,2188.308 1877.692 L 2198.000 1858.000 2198.000 1262.000 L 2198.000 666.000 2188.576 648.000 C 2175.736 623.475,2153.970 601.424,2130.000 588.654 L 2110.000 578.000 1674.000 577.139 C 1324.305 576.449,1235.136 577.310,1223.529 581.486 M480.759 779.000 C 481.933 793.185,482.815 794.067,497.000 795.241 L 512.000 796.483 512.000 920.241 L 512.000 1044.000 496.000 1044.000 L 480.000 1044.000 480.000 1060.000 L 480.000 1076.000 418.000 1076.000 L 356.000 1076.000 356.000 1060.000 L 356.000 1044.000 340.000 1044.000 L 324.000 1044.000 324.000 920.000 L 324.000 796.000 340.000 796.000 L 356.000 796.000 356.000 780.000 L 356.000 764.000 417.759 764.000 L 479.517 764.000 480.759 779.000 M700.000 920.000 L 700.000 1076.000 670.057 1076.000 L 640.114 1076.000 639.057 951.000 L 638.000 826.000 607.000 824.832 L 576.000 823.663 576.000 793.832 L 576.000 764.000 638.000 764.000 L 700.000 764.000 700.000 920.000 M920.000 780.000 C 920.000 795.619,920.333 796.000,934.000 796.000 L 948.000 796.000 948.000 920.000 L 948.000 1044.000 934.000 1044.000 C 920.333 1044.000,920.000 1044.381,920.000 1060.000 L 920.000 1076.000 858.000 1076.000 L 796.000 1076.000 796.000 1060.000 L 796.000 1044.000 780.000 1044.000 L 764.000 1044.000 764.000 920.241 L 764.000 796.483 779.000 795.241 C 793.185 794.067,794.067 793.185,795.241 779.000 L 796.483 764.000 858.241 764.000 L 920.000 764.000 920.000 780.000 M1324.000 920.000 L 1324.000 1076.000 1668.000 1076.000 L 2012.000 1076.000 2012.000 920.000 L 2012.000 764.000 1668.000 764.000 L 1324.000 764.000 1324.000 920.000 M388.000 917.832 L 388.000 1012.000 420.074 1012.000 L 452.147 1012.000 451.074 919.000 L 450.000 826.000 419.000 824.832 L 388.000 823.663 388.000 917.832 M824.000 918.000 L 824.000 1012.000 856.000 1012.000 L 888.000 1012.000 888.000 918.000 L 888.000 824.000 856.000 824.000 L 824.000 824.000 824.000 918.000 M1324.000 1324.000 L 1324.000 1512.000 1388.000 1512.000 L 1452.000 1512.000 1452.000 1404.639 L 1452.000 1297.278 1464.145 1272.973 C 1478.004 1245.239,1500.665 1222.936,1527.510 1210.608 C 1553.865 1198.505,1599.186 1198.997,1624.000 1211.655 C 1648.306 1224.053,1674.404 1249.742,1687.337 1274.000 L 1698.000 1294.000 1699.286 1403.000 L 1700.572 1512.000 1856.286 1512.000 L 2012.000 1512.000 2012.000 1324.000 L 2012.000 1136.000 1668.000 1136.000 L 1324.000 1136.000 1324.000 1324.000 M1545.554 1271.619 C 1538.709 1275.793,1528.809 1285.236,1523.554 1292.604 L 1514.000 1306.000 1512.909 1549.444 L 1511.819 1792.888 1480.909 1763.437 C 1428.924 1713.904,1389.537 1691.391,1353.312 1690.506 C 1305.733 1689.343,1280.501 1738.444,1302.898 1788.612 C 1307.468 1798.848,1323.988 1821.008,1339.609 1837.856 C 1376.552 1877.698,1403.278 1913.262,1465.972 2006.000 C 1557.126 2140.836,1588.725 2176.639,1628.954 2190.663 C 1658.393 2200.926,1781.476 2200.993,1819.503 2190.766 C 1861.226 2179.546,1898.862 2157.559,1930.025 2126.201 C 1972.496 2083.462,1996.697 2030.816,2007.699 1957.234 C 2013.326 1919.599,2013.352 1760.089,2007.734 1745.260 C 1998.681 1721.368,1968.002 1700.000,1942.751 1700.000 C 1925.289 1700.000,1903.905 1714.368,1895.006 1732.080 L 1888.012 1746.000 1887.918 1718.000 C 1887.751 1668.221,1865.346 1639.303,1826.989 1639.358 C 1799.344 1639.397,1782.161 1649.604,1768.668 1674.000 C 1765.064 1680.517,1764.221 1677.151,1764.122 1655.848 C 1763.899 1607.880,1738.443 1575.984,1700.408 1576.015 C 1678.316 1576.033,1659.174 1586.602,1647.978 1604.963 L 1640.030 1618.000 1639.920 1476.000 C 1639.859 1397.900,1638.172 1326.939,1636.170 1318.310 C 1626.054 1274.694,1579.689 1250.804,1545.554 1271.619 " fill="#1D1E23" stroke="none" fill-rule="evenodd"/></svg>