<svg viewBox="0 0 2400 2400" fill="none" xmlns="http://www.w3.org/2000/svg"><path d="M1116.000 809.720 C 1030.075 827.770,953.419 870.593,891.177 935.316 C 829.097 999.870,794.352 1066.338,767.976 1171.000 L 763.692 1188.000 664.846 1187.985 L 566.000 1187.970 552.614 1162.083 C 535.805 1129.574,499.100 1094.557,463.430 1077.000 C 438.044 1064.505,435.138 1064.000,388.623 1064.000 C 333.308 1064.000,315.514 1069.603,276.105 1099.432 C 238.980 1127.531,218.296 1159.004,206.171 1205.840 C 179.352 1309.445,255.535 1422.249,364.986 1440.998 C 394.597 1446.070,433.861 1438.923,469.804 1421.919 C 494.896 1410.049,540.691 1363.682,556.204 1334.440 L 565.986 1316.000 666.193 1316.000 L 766.399 1316.000 771.523 1341.000 C 778.886 1376.925,805.386 1445.105,824.716 1477.855 C 848.647 1518.402,870.651 1545.890,906.484 1580.007 C 955.416 1626.597,1004.780 1655.844,1077.154 1681.128 L 1114.000 1694.000 1200.000 1693.953 L 1286.000 1693.906 1330.000 1678.748 C 1406.407 1652.427,1457.367 1619.360,1512.936 1560.045 C 1569.025 1500.175,1606.514 1430.612,1625.481 1351.212 L 1633.893 1316.000 1733.946 1316.010 L 1834.000 1316.019 1845.073 1337.213 C 1872.811 1390.302,1936.667 1434.042,1998.210 1442.109 C 2023.317 1445.400,2063.801 1436.254,2095.941 1420.030 C 2154.967 1390.233,2200.000 1316.332,2200.000 1249.263 C 2200.000 1180.754,2154.640 1110.069,2090.266 1078.261 C 2061.909 1064.250,2060.541 1064.000,2012.192 1064.000 C 1964.757 1064.000,1962.029 1064.469,1936.570 1077.000 C 1900.839 1094.587,1864.187 1129.576,1847.386 1162.138 L 1834.000 1188.080 1734.513 1187.040 L 1635.027 1186.000 1621.447 1136.000 C 1584.805 1001.090,1500.780 899.262,1378.934 842.105 C 1321.067 814.959,1285.584 807.403,1208.000 805.704 C 1162.454 804.706,1133.942 805.951,1116.000 809.720 M1081.650 1050.228 C 1068.985 1064.653,1055.002 1078.393,1050.576 1080.762 C 1046.150 1083.131,1021.824 1087.477,996.518 1090.420 C 941.359 1096.836,921.161 1106.970,902.106 1137.792 L 890.000 1157.373 890.000 1249.686 L 890.000 1342.000 900.802 1360.374 C 911.821 1379.118,927.934 1393.630,950.801 1405.407 C 961.782 1411.062,979.296 1412.000,1073.930 1412.000 C 1196.681 1412.000,1199.127 1411.578,1228.199 1385.389 C 1258.868 1357.761,1261.600 1346.830,1263.292 1245.000 L 1264.771 1156.000 1295.022 1156.000 L 1325.273 1156.000 1322.783 1256.212 L 1320.293 1356.423 1307.619 1382.168 C 1283.928 1430.292,1239.948 1463.844,1189.795 1472.057 C 1159.625 1476.998,998.348 1477.046,964.301 1472.125 C 911.543 1464.499,865.757 1430.916,842.047 1382.455 C 829.224 1356.245,821.905 1283.990,825.389 1218.000 C 829.567 1138.863,839.563 1108.586,872.499 1075.310 C 911.808 1035.597,947.315 1025.738,1055.338 1024.545 L 1104.676 1024.000 1081.650 1050.228 M1477.681 1039.110 C 1521.101 1059.060,1556.440 1100.387,1566.436 1142.905 C 1574.526 1177.315,1577.946 1279.345,1572.440 1322.000 C 1564.142 1386.277,1529.270 1439.261,1481.132 1460.734 C 1457.980 1471.061,1407.564 1476.535,1348.303 1475.156 L 1298.606 1474.000 1325.311 1443.513 L 1352.016 1413.027 1395.008 1411.131 C 1443.074 1409.011,1459.145 1403.781,1479.321 1383.688 C 1508.072 1355.057,1509.858 1347.665,1511.276 1251.381 C 1512.461 1170.949,1511.975 1163.632,1504.475 1148.931 C 1495.101 1130.556,1459.394 1097.004,1445.503 1093.518 C 1440.260 1092.202,1383.327 1091.847,1318.985 1092.729 C 1188.964 1094.512,1190.751 1094.167,1162.942 1122.898 C 1154.660 1131.455,1145.898 1144.653,1143.470 1152.228 C 1141.041 1159.803,1138.155 1206.950,1137.056 1257.000 L 1135.058 1348.000 1105.529 1348.000 L 1076.000 1348.000 1076.033 1277.000 C 1076.071 1193.758,1081.264 1141.339,1091.840 1117.431 C 1101.440 1095.727,1132.350 1062.476,1155.580 1048.863 C 1188.742 1029.428,1200.537 1028.124,1334.000 1029.131 C 1453.265 1030.031,1458.751 1030.412,1477.681 1039.110 M437.878 1135.629 C 461.337 1146.144,490.041 1172.912,486.830 1181.280 C 484.569 1187.171,476.642 1188.000,422.540 1188.000 L 360.829 1188.000 347.914 1202.709 C 321.404 1232.902,318.768 1255.656,338.352 1285.249 C 352.695 1306.922,368.986 1312.347,431.394 1316.228 C 460.816 1318.058,485.916 1320.582,487.171 1321.838 C 491.186 1325.853,463.981 1350.732,442.643 1362.558 C 424.201 1372.780,418.161 1373.997,386.000 1373.971 C 343.597 1373.938,327.329 1367.185,301.104 1338.735 C 273.518 1308.808,268.000 1294.016,268.000 1250.000 C 268.000 1207.763,273.124 1192.666,296.492 1166.051 C 313.818 1146.318,330.431 1135.249,351.755 1129.231 C 374.605 1122.782,416.092 1125.864,437.878 1135.629 M2062.203 1135.770 C 2084.869 1145.667,2106.596 1165.840,2120.275 1189.689 C 2130.953 1208.305,2131.928 1213.265,2131.962 1249.133 C 2131.995 1282.755,2130.623 1290.984,2122.221 1307.563 C 2107.555 1336.506,2076.683 1362.219,2044.613 1372.202 C 2012.455 1382.213,1994.071 1380.394,1961.147 1363.942 C 1936.787 1351.769,1908.409 1326.258,1913.530 1321.137 C 1915.171 1319.496,1941.350 1317.069,1971.706 1315.744 C 2031.733 1313.123,2047.282 1307.902,2062.011 1285.422 C 2079.970 1258.013,2077.340 1232.351,2053.746 1204.788 L 2039.377 1188.000 1982.015 1188.000 C 1922.795 1188.000,1912.000 1186.517,1912.000 1178.384 C 1912.000 1173.935,1932.894 1152.450,1949.223 1140.109 C 1971.143 1123.542,2029.102 1121.316,2062.203 1135.770 " fill="#1D1E23" stroke="none" fill-rule="evenodd"/></svg>