<svg viewBox="0 0 2400 2400" fill="none" xmlns="http://www.w3.org/2000/svg"><path d="M724.000 203.410 C 692.578 205.674,682.291 208.190,664.578 217.940 C 640.852 230.999,624.655 248.523,611.028 275.877 L 602.000 294.000 602.000 1200.000 L 602.000 2106.000 611.395 2125.080 C 623.404 2149.466,650.534 2176.596,674.920 2188.605 L 694.000 2198.000 903.631 2199.169 C 1018.928 2199.812,1114.725 2198.875,1116.514 2197.086 C 1120.958 2192.642,1047.182 2097.044,992.206 2036.011 C 967.440 2008.517,942.692 1978.367,937.209 1969.011 L 927.240 1952.000 795.620 1952.000 L 664.000 1952.000 664.000 1202.000 L 664.000 452.000 1164.000 452.000 L 1664.000 452.000 1664.000 1074.099 L 1664.000 1696.198 1674.817 1700.310 C 1680.766 1702.572,1694.317 1710.662,1704.931 1718.287 L 1724.229 1732.151 1723.114 1011.076 C 1722.020 302.773,1721.860 289.717,1714.116 274.000 C 1703.940 253.351,1673.700 223.071,1652.405 212.207 C 1635.718 203.693,1635.266 203.683,1198.850 202.178 C 958.583 201.349,744.900 201.903,724.000 203.410 M1340.358 275.443 C 1350.751 288.285,1349.958 302.406,1338.182 314.182 L 1328.364 324.000 1194.000 324.000 L 1059.636 324.000 1049.818 314.182 C 1044.418 308.782,1040.000 300.182,1040.000 295.072 C 1040.000 282.537,1050.078 268.954,1061.035 266.719 C 1065.966 265.713,1129.111 265.140,1201.358 265.445 L 1332.716 266.000 1340.358 275.443 M724.000 1076.000 L 724.000 1576.000 952.000 1576.000 L 1180.000 1576.000 1180.000 1544.000 L 1180.000 1512.000 984.000 1512.000 L 788.000 1512.000 788.000 1138.000 L 788.000 764.000 1162.000 764.000 L 1536.000 764.000 1536.000 1138.000 L 1536.000 1512.000 1496.000 1512.000 L 1456.000 1512.000 1456.000 1544.000 L 1456.000 1576.000 1528.000 1576.000 L 1600.000 1576.000 1600.000 1076.000 L 1600.000 576.000 1162.000 576.000 L 724.000 576.000 724.000 1076.000 M1288.000 670.000 L 1288.000 700.000 1256.000 700.000 L 1224.000 700.000 1224.000 670.000 L 1224.000 640.000 1256.000 640.000 L 1288.000 640.000 1288.000 670.000 M1412.000 670.000 L 1412.000 700.000 1382.000 700.000 L 1352.000 700.000 1352.000 670.000 L 1352.000 640.000 1382.000 640.000 L 1412.000 640.000 1412.000 670.000 M1536.000 670.000 L 1536.000 700.000 1506.000 700.000 L 1476.000 700.000 1476.000 670.000 L 1476.000 640.000 1506.000 640.000 L 1536.000 640.000 1536.000 670.000 M850.667 826.667 C 849.200 828.133,848.000 842.533,848.000 858.667 L 848.000 888.000 880.000 888.000 L 912.000 888.000 912.000 920.000 L 912.000 952.000 944.000 952.000 L 976.000 952.000 976.000 982.000 L 976.000 1012.000 1006.000 1012.000 L 1036.000 1012.000 1036.000 1044.000 L 1036.000 1076.000 1068.000 1076.000 L 1100.000 1076.000 1100.000 1108.168 L 1100.000 1140.337 1131.000 1139.168 L 1162.000 1138.000 1163.168 1107.000 L 1164.337 1076.000 1132.168 1076.000 L 1100.000 1076.000 1100.000 1044.000 L 1100.000 1012.000 1068.000 1012.000 L 1036.000 1012.000 1036.000 982.000 L 1036.000 952.000 1006.000 952.000 L 976.000 952.000 976.000 920.000 L 976.000 888.000 944.000 888.000 L 912.000 888.000 912.000 856.000 L 912.000 824.000 882.667 824.000 C 866.533 824.000,852.133 825.200,850.667 826.667 M1288.000 856.000 L 1288.000 888.000 1317.832 888.000 L 1347.663 888.000 1348.832 919.000 L 1350.000 950.000 1381.000 951.168 L 1412.000 952.337 1412.000 982.168 L 1412.000 1012.000 1389.000 1012.055 C 1348.409 1012.151,1348.000 1012.494,1348.000 1046.467 L 1348.000 1076.000 1318.000 1076.000 L 1288.000 1076.000 1288.000 1108.168 L 1288.000 1140.337 1319.000 1139.168 L 1350.000 1138.000 1351.168 1107.000 L 1352.337 1076.000 1382.168 1076.000 L 1412.000 1076.000 1412.000 1044.000 L 1412.000 1012.000 1444.000 1012.000 L 1476.000 1012.000 1476.000 982.000 L 1476.000 952.000 1444.000 952.000 L 1412.000 952.000 1412.000 920.000 L 1412.000 888.000 1382.000 888.000 L 1352.000 888.000 1352.000 858.467 C 1352.000 824.494,1351.591 824.151,1311.000 824.055 L 1288.000 824.000 1288.000 856.000 M1298.000 1328.643 C 1279.919 1335.239,1261.851 1350.072,1251.379 1366.914 L 1242.000 1382.000 1240.843 1655.282 L 1239.685 1928.564 1207.451 1899.282 C 1144.698 1842.277,1110.093 1820.323,1069.811 1811.961 C 1040.479 1805.871,1023.241 1809.398,1005.287 1825.163 C 970.133 1856.028,966.742 1907.124,997.237 1946.467 C 1004.256 1955.523,1026.849 1981.623,1047.442 2004.467 C 1068.036 2027.310,1110.962 2080.650,1142.834 2123.000 L 1200.783 2200.000 1526.643 2200.000 L 1852.503 2200.000 1851.252 2042.651 L 1850.000 1885.302 1838.477 1868.682 C 1820.548 1842.820,1795.207 1828.000,1768.919 1828.000 C 1741.304 1828.000,1721.188 1837.536,1710.439 1855.722 L 1702.000 1870.000 1698.797 1840.000 C 1694.457 1799.343,1683.968 1778.663,1660.802 1765.086 C 1624.141 1743.602,1581.396 1753.750,1557.000 1789.731 L 1544.000 1808.904 1543.912 1773.452 C 1543.804 1729.928,1535.726 1709.117,1513.314 1694.630 C 1494.077 1682.195,1476.311 1678.445,1453.119 1681.923 C 1438.661 1684.091,1431.132 1688.487,1416.055 1703.564 L 1397.136 1722.484 1394.586 1678.242 C 1393.184 1653.909,1392.028 1576.612,1392.018 1506.472 C 1391.997 1360.579,1392.627 1363.503,1356.232 1340.149 C 1334.076 1325.931,1315.495 1322.260,1298.000 1328.643 M893.541 2016.519 C 908.940 2023.535,914.686 2041.474,906.819 2057.972 C 900.997 2070.181,898.409 2071.623,877.676 2074.213 C 865.162 2075.777,843.045 2075.947,828.527 2074.591 C 801.112 2072.031,788.300 2063.349,788.089 2047.188 C 787.942 2035.898,796.380 2021.073,805.456 2016.678 C 817.092 2011.044,881.270 2010.928,893.541 2016.519 " fill="#1D1E23" stroke="none" fill-rule="evenodd"/></svg>