<svg viewBox="0 0 2400 2400" fill="none" xmlns="http://www.w3.org/2000/svg"><path d="M322.000 203.511 C 267.507 207.841,234.095 228.643,213.160 271.274 L 202.000 294.000 200.880 791.714 L 199.760 1289.429 210.557 1311.496 C 223.961 1338.893,250.512 1365.913,275.215 1377.296 L 294.000 1385.952 684.688 1387.312 L 1075.376 1388.672 1076.820 1023.336 L 1078.264 658.000 1087.253 636.545 C 1114.620 571.224,1163.426 530.973,1232.607 516.668 L 1264.000 510.176 1264.000 405.727 L 1264.000 301.278 1251.509 276.281 C 1236.443 246.131,1218.528 227.443,1191.620 213.808 L 1171.508 203.616 764.754 202.133 C 541.039 201.317,341.800 201.937,322.000 203.511 M388.000 340.000 C 388.000 355.959,388.040 356.000,403.759 356.000 C 419.077 356.000,419.552 356.418,420.759 370.982 C 421.849 384.136,423.464 386.213,434.000 388.008 C 443.045 389.548,446.341 392.508,447.383 400.026 C 449.278 413.689,454.668 419.304,467.293 420.763 C 475.247 421.682,478.356 424.571,479.383 432.000 C 481.367 446.338,487.341 452.000,500.490 452.000 L 512.000 452.000 512.000 482.000 L 512.000 512.000 496.000 512.000 L 480.000 512.000 480.000 528.000 C 480.000 543.959,479.960 544.000,464.241 544.000 C 448.923 544.000,448.448 544.418,447.241 558.982 C 446.151 572.136,444.536 574.213,434.000 576.008 C 424.955 577.548,421.659 580.508,420.617 588.026 C 418.722 601.689,413.332 607.304,400.707 608.763 C 391.865 609.784,389.782 612.265,388.747 623.000 L 387.493 636.000 355.493 636.000 L 323.493 636.000 324.747 623.000 C 325.891 611.132,327.306 609.892,341.000 608.759 C 355.585 607.551,356.000 607.081,356.000 591.759 C 356.000 576.040,356.041 576.000,372.000 576.000 L 388.000 576.000 388.000 560.000 L 388.000 544.000 404.000 544.000 L 420.000 544.000 420.000 528.000 L 420.000 512.000 436.000 512.000 L 452.000 512.000 452.000 482.000 L 452.000 452.000 436.000 452.000 L 420.000 452.000 420.000 436.000 L 420.000 420.000 404.000 420.000 L 388.000 420.000 388.000 404.000 L 388.000 388.000 372.000 388.000 L 356.000 388.000 356.000 372.000 L 356.000 356.000 340.000 356.000 L 324.000 356.000 324.000 340.000 L 324.000 324.000 356.000 324.000 L 388.000 324.000 388.000 340.000 M732.759 339.000 C 733.892 352.694,735.132 354.109,747.000 355.253 L 760.000 356.507 760.000 482.000 L 760.000 607.493 747.000 608.747 C 735.569 609.849,733.849 611.569,732.747 623.000 L 731.493 636.000 670.000 636.000 L 608.507 636.000 607.253 623.000 C 606.109 611.132,604.694 609.892,591.000 608.759 L 576.000 607.517 576.000 481.759 L 576.000 356.000 592.000 356.000 L 608.000 356.000 608.000 340.000 L 608.000 324.000 669.759 324.000 L 731.517 324.000 732.759 339.000 M948.000 480.000 L 948.000 636.000 918.000 636.000 L 888.000 636.000 888.000 512.000 L 888.000 388.000 856.000 388.000 L 824.000 388.000 824.000 356.000 L 824.000 324.000 886.000 324.000 L 948.000 324.000 948.000 480.000 M636.926 481.000 L 638.000 574.000 669.000 575.168 L 700.000 576.337 700.000 482.168 L 700.000 388.000 667.926 388.000 L 635.853 388.000 636.926 481.000 M1267.636 579.392 C 1218.052 581.960,1216.927 582.230,1194.938 596.840 C 1170.579 613.026,1151.684 637.186,1143.917 662.077 C 1140.092 674.336,1138.513 812.637,1137.054 1263.101 L 1135.160 1848.203 1146.339 1871.050 C 1159.179 1897.295,1187.277 1927.062,1208.777 1937.197 C 1234.359 1949.258,1339.960 1957.773,1345.846 1948.250 C 1347.120 1946.187,1334.177 1928.013,1317.082 1907.862 C 1264.607 1846.007,1259.335 1838.851,1246.464 1812.000 C 1235.529 1789.189,1234.000 1781.830,1234.000 1752.000 C 1234.000 1720.332,1235.029 1716.088,1249.000 1690.131 L 1264.000 1662.262 1264.000 1181.131 L 1264.000 700.000 1670.592 700.000 L 2077.185 700.000 2075.102 1326.000 C 2073.426 1829.764,2074.009 1952.000,2078.088 1952.000 C 2080.876 1952.000,2094.947 1948.358,2109.357 1943.908 C 2141.480 1933.986,2174.413 1905.776,2189.710 1875.078 L 2200.000 1854.429 2200.000 1262.653 L 2200.000 670.876 2191.000 652.438 C 2179.856 629.608,2150.548 599.503,2128.531 588.271 C 2112.044 579.860,2109.740 579.804,1714.976 578.299 C 1496.639 577.466,1295.336 577.958,1267.636 579.392 M480.000 775.200 C 480.000 789.414,486.586 796.000,500.800 796.000 L 512.000 796.000 512.000 920.000 L 512.000 1044.000 496.000 1044.000 L 480.000 1044.000 480.000 1060.000 L 480.000 1076.000 418.000 1076.000 L 356.000 1076.000 356.000 1060.000 L 356.000 1044.000 340.000 1044.000 L 324.000 1044.000 324.000 920.000 L 324.000 796.000 340.000 796.000 L 356.000 796.000 356.000 780.000 L 356.000 764.000 418.000 764.000 L 480.000 764.000 480.000 775.200 M700.000 920.000 L 700.000 1076.000 668.000 1076.000 L 636.000 1076.000 636.000 950.000 L 636.000 824.000 606.000 824.000 L 576.000 824.000 576.000 794.000 L 576.000 764.000 638.000 764.000 L 700.000 764.000 700.000 920.000 M920.759 779.000 C 921.892 792.694,923.132 794.109,935.000 795.253 L 948.000 796.507 948.000 920.000 L 948.000 1043.493 935.000 1044.747 C 923.132 1045.891,921.892 1047.306,920.759 1061.000 L 919.517 1076.000 857.759 1076.000 L 796.000 1076.000 796.000 1060.000 L 796.000 1044.000 780.000 1044.000 L 764.000 1044.000 764.000 920.000 L 764.000 796.000 775.200 796.000 C 781.360 796.000,788.560 793.840,791.200 791.200 C 793.840 788.560,796.000 781.360,796.000 775.200 L 796.000 764.000 857.759 764.000 L 919.517 764.000 920.759 779.000 M1324.000 920.000 L 1324.000 1076.000 1668.000 1076.000 L 2012.000 1076.000 2012.000 920.000 L 2012.000 764.000 1668.000 764.000 L 1324.000 764.000 1324.000 920.000 M388.000 918.000 L 388.000 1012.000 420.000 1012.000 L 452.000 1012.000 452.000 920.467 L 452.000 828.933 443.000 826.521 C 438.050 825.195,423.650 824.085,411.000 824.055 L 388.000 824.000 388.000 918.000 M824.000 918.000 L 824.000 1012.000 856.000 1012.000 L 888.000 1012.000 888.000 918.000 L 888.000 824.000 856.000 824.000 L 824.000 824.000 824.000 918.000 M1324.000 1326.000 L 1324.000 1512.000 1388.000 1512.000 L 1452.000 1512.000 1452.000 1402.765 L 1452.000 1293.529 1466.059 1269.765 C 1493.691 1223.058,1525.167 1203.952,1574.263 1204.088 C 1613.435 1204.196,1632.380 1211.999,1659.626 1239.245 C 1696.425 1276.045,1696.963 1278.272,1699.172 1403.000 L 1701.102 1512.000 1856.551 1512.000 L 2012.000 1512.000 2012.000 1326.000 L 2012.000 1140.000 1668.000 1140.000 L 1324.000 1140.000 1324.000 1326.000 M1548.481 1270.842 C 1541.046 1274.505,1529.796 1284.634,1523.481 1293.351 L 1512.000 1309.200 1512.000 1551.085 L 1512.000 1792.969 1483.792 1766.359 C 1430.219 1715.821,1388.626 1691.998,1354.000 1692.018 C 1314.112 1692.042,1294.008 1715.350,1296.749 1758.393 C 1298.575 1787.069,1307.870 1802.610,1355.477 1856.578 C 1382.107 1886.767,1406.863 1920.827,1498.970 2053.998 C 1557.763 2139.004,1597.035 2180.469,1627.221 2189.413 C 1656.828 2198.185,1730.284 2201.597,1778.797 2196.454 C 1841.681 2189.787,1882.629 2170.694,1927.429 2127.153 C 1958.245 2097.201,1978.175 2064.526,1992.055 2021.193 C 2007.996 1971.431,2012.885 1921.669,2011.307 1825.243 L 2010.000 1745.355 1999.109 1731.087 C 1987.530 1715.918,1959.486 1700.000,1944.342 1700.000 C 1929.274 1700.000,1908.099 1712.279,1898.302 1726.696 L 1889.093 1740.249 1887.142 1712.984 C 1884.639 1677.999,1875.834 1659.628,1856.310 1648.655 C 1827.423 1632.419,1793.671 1639.205,1775.315 1664.940 L 1766.000 1678.000 1763.716 1652.000 C 1762.460 1637.700,1758.188 1619.215,1754.223 1610.921 C 1733.123 1566.790,1674.497 1564.864,1647.511 1607.415 L 1636.348 1625.018 1635.174 1465.509 L 1634.000 1306.000 1624.663 1292.909 C 1613.834 1277.726,1589.231 1263.960,1573.159 1264.091 C 1567.022 1264.141,1555.917 1267.179,1548.481 1270.842 M264.000 1796.074 L 264.000 1952.147 357.000 1951.074 L 450.000 1950.000 451.168 1919.000 L 452.337 1888.000 388.168 1888.000 L 324.000 1888.000 324.000 1764.000 L 324.000 1640.000 294.000 1640.000 L 264.000 1640.000 264.000 1796.074 M512.953 1795.000 L 514.000 1950.000 544.000 1950.000 L 574.000 1950.000 575.047 1795.000 L 576.094 1640.000 544.000 1640.000 L 511.906 1640.000 512.953 1795.000 M636.000 1670.000 L 636.000 1700.000 668.000 1700.000 L 700.000 1700.000 700.000 1826.168 L 700.000 1952.337 731.000 1951.168 L 762.000 1950.000 763.057 1825.000 L 764.114 1700.000 794.057 1700.000 L 824.000 1700.000 824.000 1670.000 L 824.000 1640.000 730.000 1640.000 L 636.000 1640.000 636.000 1670.000 M888.000 1796.074 L 888.000 1952.147 981.000 1951.074 L 1074.000 1950.000 1075.168 1919.000 L 1076.337 1888.000 1014.168 1888.000 L 952.000 1888.000 952.000 1856.000 L 952.000 1824.000 1014.000 1824.000 L 1076.000 1824.000 1076.000 1794.000 L 1076.000 1764.000 1014.000 1764.000 L 952.000 1764.000 952.000 1732.000 L 952.000 1700.000 1014.000 1700.000 L 1076.000 1700.000 1076.000 1670.000 L 1076.000 1640.000 982.000 1640.000 L 888.000 1640.000 888.000 1796.074 " fill="#1D1E23" stroke="none" fill-rule="evenodd"/></svg>