<svg viewBox="0 0 2400 2400" fill="none" xmlns="http://www.w3.org/2000/svg"><path d="M828.852 207.945 C 747.621 217.032,660.796 299.120,637.284 389.061 C 631.928 409.548,630.696 437.912,630.382 547.939 L 630.000 681.877 655.373 687.366 C 674.561 691.517,681.874 691.728,685.373 688.233 C 688.603 685.007,690.370 648.662,691.225 567.806 L 692.451 452.000 1160.225 452.000 L 1628.000 452.000 1628.000 572.511 L 1628.000 693.022 1645.000 690.349 C 1654.350 688.879,1668.999 685.812,1677.553 683.535 L 1693.106 679.394 1690.830 542.697 C 1688.370 394.966,1687.183 385.734,1665.014 341.940 C 1640.242 293.005,1595.719 250.617,1540.218 223.127 L 1506.000 206.179 1182.000 205.432 C 1003.800 205.021,844.883 206.152,828.852 207.945 M1306.980 339.347 C 1318.012 352.434,1318.189 358.361,1308.044 375.000 L 1300.118 388.000 1160.000 388.000 L 1019.882 388.000 1011.956 375.000 C 1002.041 358.738,1001.974 351.392,1011.633 339.443 C 1018.261 331.244,1023.927 329.672,1054.633 327.510 C 1074.085 326.141,1136.800 325.847,1194.000 326.857 L 1298.000 328.694 1306.980 339.347 M1047.399 514.890 C 1029.505 516.784,1028.425 519.073,989.479 637.697 C 964.786 712.908,960.832 722.033,950.476 727.697 C 944.138 731.164,918.330 746.331,893.125 761.401 L 847.299 788.803 741.377 768.027 C 638.019 747.755,635.258 747.431,627.276 754.626 C 619.406 761.720,582.743 822.062,526.283 920.847 L 499.507 967.695 571.754 1048.826 L 644.000 1129.957 643.917 1199.979 L 643.835 1270.000 571.534 1351.146 L 499.233 1432.292 546.122 1513.146 C 603.972 1612.901,626.173 1647.550,634.218 1650.637 C 637.638 1651.949,686.998 1643.571,743.908 1632.019 L 847.381 1611.014 858.690 1619.010 C 864.911 1623.408,890.672 1638.845,915.937 1653.315 L 961.874 1679.624 996.271 1782.812 L 1030.668 1886.000 1160.000 1886.000 L 1289.332 1886.000 1323.737 1782.790 L 1358.141 1679.581 1390.070 1661.333 C 1407.632 1651.297,1433.284 1635.857,1447.076 1627.023 L 1472.152 1610.961 1565.076 1629.584 C 1616.184 1639.827,1665.152 1648.611,1673.894 1649.104 C 1689.053 1649.959,1690.465 1648.983,1704.427 1628.000 C 1726.236 1595.226,1816.000 1440.252,1816.000 1435.374 C 1816.000 1429.406,1800.752 1410.812,1734.338 1335.791 L 1676.095 1270.000 1676.048 1199.863 L 1676.000 1129.725 1747.986 1048.458 C 1787.578 1003.761,1819.348 966.023,1818.586 964.596 C 1798.429 926.854,1697.727 759.183,1692.227 754.206 C 1684.896 747.571,1679.700 748.202,1578.890 767.975 L 1473.235 788.698 1426.966 761.349 C 1401.518 746.307,1375.590 731.166,1369.349 727.702 C 1359.124 722.029,1354.660 711.289,1324.282 619.288 L 1290.565 517.171 1236.650 514.586 C 1181.522 511.942,1073.617 512.115,1047.399 514.890 M1207.007 809.909 C 1214.594 815.065,1227.822 828.625,1236.401 840.043 L 1252.000 860.803 1252.000 1076.852 L 1252.000 1292.900 1307.593 1239.097 C 1338.169 1209.505,1371.653 1179.685,1382.001 1172.830 C 1429.137 1141.609,1496.576 1158.077,1520.459 1206.641 C 1532.586 1231.298,1533.633 1274.849,1522.594 1295.383 C 1515.519 1308.542,1344.673 1486.399,1222.344 1607.954 L 1159.996 1669.907 1091.671 1601.954 C 962.129 1473.116,804.866 1309.277,798.004 1296.007 C 788.990 1278.576,785.747 1240.947,791.703 1222.899 C 799.018 1200.735,818.212 1177.106,836.946 1167.201 C 850.186 1160.202,860.709 1158.165,884.000 1158.093 C 924.097 1157.969,935.002 1164.762,1009.000 1235.965 L 1068.000 1292.736 1068.000 1077.151 L 1068.000 861.566 1079.328 843.704 C 1092.976 822.184,1112.756 804.846,1127.308 801.649 C 1133.189 800.357,1139.800 798.606,1142.000 797.757 C 1152.996 793.514,1194.220 801.220,1207.007 809.909 M650.521 1714.902 L 627.043 1721.096 629.031 1857.548 C 631.232 2008.631,631.895 2013.193,659.304 2066.000 C 677.842 2101.716,724.411 2149.019,759.019 2167.285 C 772.780 2174.547,796.945 2184.880,812.720 2190.245 L 841.401 2200.000 1164.979 2200.000 L 1488.556 2200.000 1518.869 2187.381 C 1598.695 2154.149,1652.304 2099.085,1678.992 2022.913 C 1688.880 1994.690,1689.170 1990.740,1691.112 1857.450 L 1693.102 1720.899 1672.354 1716.450 C 1644.041 1710.378,1633.294 1710.859,1630.428 1718.327 C 1629.093 1721.807,1628.000 1775.807,1628.000 1838.327 L 1628.000 1952.000 1160.000 1952.000 L 692.000 1952.000 691.601 1841.000 C 691.382 1779.950,689.953 1725.509,688.426 1720.021 C 685.002 1707.717,680.208 1707.069,650.521 1714.902 M899.229 2026.249 C 909.925 2038.684,908.650 2052.759,895.628 2066.000 C 888.745 2072.998,882.471 2074.000,845.523 2074.000 C 805.960 2074.000,802.803 2073.402,795.643 2064.557 C 791.440 2059.363,788.000 2050.257,788.000 2044.321 C 788.000 2019.627,806.894 2011.392,857.936 2013.840 C 886.786 2015.224,890.777 2016.423,899.229 2026.249 M1210.618 2025.538 C 1221.174 2037.810,1221.993 2043.250,1215.449 2057.613 C 1209.541 2070.578,1193.190 2076.000,1160.000 2076.000 C 1126.810 2076.000,1110.459 2070.578,1104.551 2057.613 C 1098.215 2043.706,1098.799 2038.605,1108.080 2026.807 C 1118.134 2014.025,1125.533 2012.388,1167.618 2013.635 C 1198.667 2014.555,1201.952 2015.464,1210.618 2025.538 M1521.978 2023.979 C 1533.436 2034.744,1534.475 2043.611,1526.160 2059.690 C 1519.194 2073.161,1510.477 2075.947,1476.000 2075.720 C 1427.426 2075.400,1404.756 2059.144,1415.778 2032.536 C 1422.525 2016.248,1436.771 2011.937,1478.978 2013.411 C 1507.190 2014.397,1513.403 2015.924,1521.978 2023.979 " fill="#1D1E23" stroke="none" fill-rule="evenodd"/></svg>