<svg viewBox="0 0 2400 2400" fill="none" xmlns="http://www.w3.org/2000/svg"><path d="M1090.315 211.828 C 968.226 238.411,872.353 290.579,785.758 377.549 C 730.902 432.643,695.127 483.054,664.577 548.308 C 627.168 628.213,609.605 693.565,603.833 774.340 C 596.388 878.511,608.558 962.925,644.122 1053.800 C 679.733 1144.796,711.256 1194.197,777.505 1262.834 C 842.164 1329.824,908.225 1377.655,966.858 1399.934 C 991.245 1409.200,992.000 1408.293,992.000 1369.730 L 992.000 1344.115 967.000 1331.546 C 845.181 1270.302,738.330 1146.405,692.789 1013.589 C 669.921 946.897,668.000 932.598,668.000 829.078 C 668.000 719.642,671.287 695.406,694.729 632.000 C 764.933 442.116,915.224 310.154,1103.161 273.381 C 1145.695 265.058,1240.832 264.022,1284.000 271.412 C 1395.930 290.572,1496.895 344.677,1578.731 429.351 C 1641.858 494.669,1682.443 561.504,1709.800 645.198 C 1728.640 702.834,1736.245 753.112,1736.372 820.865 C 1736.559 920.291,1720.269 992.245,1678.011 1078.655 C 1625.998 1185.015,1549.281 1266.758,1446.490 1325.344 L 1415.744 1342.867 1434.161 1367.367 L 1452.578 1391.867 1469.289 1383.401 C 1528.691 1353.303,1628.634 1266.218,1676.167 1203.137 C 1734.812 1125.309,1783.169 1001.306,1795.899 896.105 C 1809.228 785.947,1786.975 657.796,1735.504 548.308 C 1704.549 482.463,1669.066 432.510,1614.282 377.656 C 1560.018 323.321,1513.034 289.516,1450.269 259.647 C 1365.290 219.206,1313.216 207.871,1202.000 205.606 C 1137.672 204.296,1120.519 205.252,1090.315 211.828 M856.000 515.915 C 850.751 519.232,850.000 558.408,850.000 828.853 L 850.000 1138.000 900.000 1138.000 L 950.000 1138.000 951.024 827.560 L 952.049 517.120 931.024 514.595 C 900.272 510.901,862.892 511.559,856.000 515.915 M1000.000 734.335 L 1000.000 956.670 1019.914 926.896 C 1030.867 910.520,1042.567 894.849,1045.914 892.071 C 1051.201 887.683,1052.000 862.741,1052.000 701.977 L 1052.000 516.933 1043.000 514.521 C 1038.050 513.195,1026.350 512.085,1017.000 512.055 L 1000.000 512.000 1000.000 734.335 M1100.000 687.484 L 1100.000 862.967 1118.870 859.442 C 1137.836 855.899,1167.368 859.334,1189.000 867.599 L 1200.000 871.802 1200.000 691.901 L 1200.000 512.000 1150.000 512.000 L 1100.000 512.000 1100.000 687.484 M1250.667 514.667 C 1249.200 516.133,1248.000 603.847,1248.000 709.586 L 1248.000 901.838 1266.257 937.919 C 1276.299 957.764,1285.536 981.650,1286.784 991.000 C 1289.127 1008.548,1293.336 1012.713,1297.572 1001.673 C 1298.907 998.193,1300.000 886.593,1300.000 753.673 L 1300.000 512.000 1276.667 512.000 C 1263.833 512.000,1252.133 513.200,1250.667 514.667 M1350.667 514.667 C 1349.200 516.133,1348.000 628.633,1348.000 764.667 L 1348.000 1012.000 1374.000 1012.000 L 1400.000 1012.000 1400.000 762.000 L 1400.000 512.000 1376.667 512.000 C 1363.833 512.000,1352.133 513.200,1350.667 514.667 M1456.000 515.915 C 1450.751 519.232,1450.000 558.408,1450.000 828.853 L 1450.000 1138.000 1500.000 1138.000 L 1550.000 1138.000 1551.024 827.560 L 1552.049 517.120 1531.024 514.595 C 1500.272 510.901,1462.892 511.559,1456.000 515.915 M1120.575 924.585 C 1100.287 930.424,1077.960 946.742,1065.324 964.966 C 1054.252 980.936,1053.943 982.863,1051.414 1051.649 C 1049.992 1090.342,1048.642 1224.765,1048.414 1350.368 C 1048.186 1475.970,1046.823 1603.276,1045.385 1633.270 L 1042.769 1687.804 1006.385 1650.845 C 965.195 1609.004,915.547 1570.238,882.353 1553.998 C 840.691 1533.614,797.552 1535.391,771.922 1558.546 C 743.308 1584.397,731.380 1624.476,739.976 1665.884 C 745.511 1692.547,763.935 1720.387,829.155 1800.642 C 869.170 1849.881,912.307 1910.165,1034.018 2086.936 C 1060.123 2124.851,1089.275 2165.801,1098.800 2177.936 L 1116.117 2200.000 1379.247 2200.000 L 1642.376 2200.000 1656.707 2185.000 C 1716.904 2121.993,1754.917 2030.656,1763.775 1927.734 C 1770.095 1854.301,1772.979 1701.183,1768.769 1662.567 C 1765.623 1633.703,1762.764 1624.085,1753.352 1610.693 C 1727.598 1574.049,1681.735 1553.527,1649.428 1564.189 C 1633.132 1569.567,1604.696 1593.548,1599.999 1605.874 C 1597.381 1612.745,1596.572 1611.838,1594.761 1600.000 C 1582.320 1518.687,1573.556 1497.938,1544.445 1480.877 C 1518.499 1465.672,1481.119 1465.896,1454.637 1481.415 C 1444.255 1487.500,1431.764 1498.648,1426.880 1506.189 C 1421.996 1513.731,1416.920 1519.923,1415.599 1519.950 C 1414.278 1519.978,1412.018 1503.350,1410.575 1483.000 C 1406.135 1420.372,1381.522 1385.822,1334.439 1376.125 C 1300.683 1369.172,1270.025 1382.725,1247.026 1414.768 L 1234.000 1432.915 1231.688 1217.457 C 1230.168 1075.872,1227.850 997.494,1224.926 988.858 C 1213.490 955.076,1188.426 931.827,1155.176 924.157 C 1135.448 919.607,1137.982 919.576,1120.575 924.585 " fill="#1D1E23" stroke="none" fill-rule="evenodd"/></svg>