<svg viewBox="0 0 2400 2400" fill="none" xmlns="http://www.w3.org/2000/svg"><path d="M404.000 303.537 C 296.141 305.715,280.440 306.851,268.543 313.339 C 250.318 323.278,220.702 351.039,213.533 364.903 C 201.129 388.889,199.621 463.987,200.813 998.000 L 202.000 1530.000 211.355 1548.818 C 222.138 1570.508,247.519 1595.330,272.602 1608.716 C 289.601 1617.787,293.180 1618.046,428.669 1620.000 C 504.936 1621.100,568.557 1623.221,570.049 1624.714 C 571.540 1626.206,549.267 1718.006,520.552 1828.714 C 454.557 2083.158,452.356 2092.000,455.037 2092.000 C 458.455 2092.000,619.794 1969.653,858.000 1786.425 L 1074.000 1620.277 1590.000 1619.138 C 2105.574 1618.001,2106.015 1617.993,2124.000 1609.553 C 2145.940 1599.258,2178.088 1571.300,2186.344 1555.335 C 2198.765 1531.316,2200.339 1453.325,2199.166 920.000 C 2198.026 401.904,2197.823 389.641,2190.116 374.000 C 2180.059 353.591,2149.775 323.109,2129.055 312.538 C 2113.067 304.382,2109.648 304.340,1319.500 302.711 C 883.075 301.811,471.100 302.183,404.000 303.537 M1259.682 428.315 C 1319.579 438.441,1396.594 499.724,1425.171 560.000 C 1454.902 622.709,1455.138 695.825,1425.814 759.339 L 1415.351 782.000 1452.927 818.000 C 1473.593 837.800,1537.031 898.630,1593.900 953.179 C 1669.375 1025.574,1699.013 1051.623,1703.649 1049.636 C 1707.142 1048.138,1725.300 1041.486,1744.000 1034.853 C 1774.252 1024.122,1783.071 1022.788,1824.000 1022.758 C 1863.690 1022.729,1874.389 1024.224,1902.000 1033.654 C 1959.027 1053.131,2003.711 1086.439,2034.063 1132.094 C 2064.442 1177.791,2069.798 1196.961,2069.798 1260.000 C 2069.798 1322.120,2064.258 1342.628,2035.592 1386.626 C 2004.484 1434.372,1960.712 1467.175,1902.000 1486.739 C 1874.758 1495.817,1863.161 1497.403,1824.000 1497.403 C 1784.927 1497.403,1773.134 1495.798,1745.686 1486.744 C 1680.905 1465.376,1631.055 1422.122,1601.601 1361.723 C 1570.190 1297.311,1568.318 1232.248,1596.000 1166.992 L 1608.298 1138.000 1562.988 1094.000 C 1538.068 1069.800,1475.002 1008.828,1422.842 958.506 L 1328.007 867.012 1307.220 875.954 C 1264.724 894.236,1247.455 897.745,1200.000 897.745 C 1152.545 897.745,1135.276 894.236,1092.780 875.954 L 1071.994 867.012 981.246 954.506 C 931.335 1002.628,868.258 1063.600,841.077 1090.000 L 791.655 1138.000 803.591 1166.074 C 831.292 1231.228,829.867 1298.873,799.455 1362.397 C 783.574 1395.569,733.728 1447.972,700.000 1466.952 C 657.726 1490.743,631.388 1497.158,576.000 1497.158 C 534.718 1497.158,521.467 1495.603,500.000 1488.237 C 455.835 1473.084,427.593 1455.669,395.889 1424.040 C 348.306 1376.570,328.000 1327.504,328.000 1260.000 C 328.000 1201.227,343.060 1158.820,380.261 1112.844 C 453.030 1022.910,579.965 997.455,696.235 1049.479 C 700.767 1051.507,730.152 1025.757,803.897 955.134 C 859.682 901.710,923.180 840.900,945.003 820.000 L 984.682 782.000 974.191 759.313 C 941.999 689.696,946.170 605.076,984.953 540.981 C 1019.427 484.009,1090.232 434.902,1153.002 424.431 C 1175.695 420.646,1224.915 422.438,1259.682 428.315 M637.784 492.625 C 685.432 508.628,719.958 539.125,743.917 586.373 C 755.329 608.876,755.901 612.396,755.949 660.361 C 755.998 708.916,755.547 711.628,743.376 735.985 C 718.893 784.979,667.511 824.171,612.803 835.580 C 549.207 848.842,482.573 827.450,438.205 779.529 C 372.345 708.392,372.351 611.602,438.219 540.456 C 488.205 486.466,564.791 468.110,637.784 492.625 M1906.111 499.760 C 1940.401 515.308,1975.301 548.686,1991.346 581.278 C 2025.060 649.762,2014.522 722.577,1962.812 778.429 C 1916.545 828.404,1843.144 850.856,1780.524 834.189 C 1726.399 819.783,1680.201 783.166,1656.624 735.985 C 1644.453 711.628,1644.002 708.916,1644.051 660.361 C 1644.099 612.396,1644.671 608.876,1656.083 586.373 C 1686.163 527.055,1736.224 491.131,1798.000 484.532 C 1835.280 480.550,1876.572 486.366,1906.111 499.760 M1146.000 553.510 C 1053.069 597.338,1053.883 723.644,1147.378 767.368 C 1178.024 781.700,1220.253 782.099,1251.080 768.349 C 1277.534 756.549,1308.790 723.213,1317.576 697.429 C 1336.685 641.347,1309.503 579.233,1254.684 553.708 C 1225.352 540.052,1174.733 539.959,1146.000 553.510 M1234.059 1084.349 C 1310.416 1098.465,1373.114 1162.131,1383.402 1236.000 C 1395.785 1324.916,1336.453 1410.272,1245.860 1433.868 C 1121.820 1466.177,998.490 1359.877,1016.032 1235.776 C 1026.111 1164.468,1086.605 1101.217,1159.805 1085.451 C 1188.555 1079.259,1205.185 1079.012,1234.059 1084.349 M547.849 1143.527 C 508.022 1151.795,470.375 1183.496,458.300 1218.934 C 435.672 1285.346,472.928 1354.860,541.454 1374.088 C 655.095 1405.974,747.713 1272.964,671.867 1186.798 C 643.161 1154.186,588.453 1135.098,547.849 1143.527 M1801.122 1144.353 C 1774.866 1147.803,1749.510 1162.512,1728.318 1186.588 C 1687.625 1232.818,1692.861 1302.937,1740.200 1345.705 C 1765.125 1368.224,1788.778 1377.464,1822.000 1377.663 C 1861.680 1377.900,1887.559 1367.987,1913.582 1342.580 C 1940.498 1316.302,1949.862 1290.997,1947.076 1252.067 C 1941.858 1179.127,1880.587 1133.910,1801.122 1144.353 " fill="#1D1E23" stroke="none" fill-rule="evenodd"/></svg>