<svg viewBox="0 0 2400 2400" fill="none" xmlns="http://www.w3.org/2000/svg"><path d="M290.000 305.577 C 263.283 314.057,249.874 322.740,230.888 343.857 C 197.550 380.937,200.000 332.019,200.000 960.563 C 200.000 1509.367,200.147 1520.094,207.977 1541.020 C 218.113 1568.112,242.963 1594.066,271.645 1607.516 L 294.000 1618.000 434.220 1620.000 L 574.440 1622.000 513.324 1856.000 C 479.710 1984.700,452.673 2091.536,453.242 2093.413 C 453.810 2095.290,593.713 1989.620,764.138 1858.591 L 1074.000 1620.357 1584.850 1620.178 C 2095.522 1620.000,2095.708 1619.997,2118.850 1611.502 C 2135.596 1605.356,2148.181 1596.730,2164.344 1580.324 C 2203.214 1540.868,2200.000 1596.783,2200.000 960.000 C 2200.000 457.582,2199.354 399.530,2193.576 382.571 C 2184.832 356.910,2153.553 323.491,2127.080 311.527 L 2106.000 302.000 1206.000 301.250 C 488.031 300.651,302.764 301.526,290.000 305.577 M1272.000 430.228 C 1353.279 454.401,1421.331 523.293,1441.886 602.209 C 1454.564 650.880,1447.950 716.685,1426.033 759.934 C 1420.515 770.824,1416.000 780.371,1416.000 781.149 C 1416.000 782.947,1672.685 1029.727,1687.668 1042.334 L 1698.821 1051.719 1726.410 1040.267 C 1819.467 1001.641,1926.595 1021.330,1999.977 1090.545 C 2029.771 1118.647,2052.539 1154.456,2064.484 1192.000 C 2076.000 1228.197,2076.019 1291.696,2064.523 1328.000 C 2020.953 1465.601,1862.227 1536.454,1725.268 1479.438 C 1599.962 1427.273,1541.967 1285.423,1596.484 1164.447 C 1602.818 1150.392,1608.000 1138.449,1608.000 1137.905 C 1608.000 1137.362,1544.918 1076.202,1467.817 1001.995 L 1327.634 867.072 1304.642 877.390 C 1238.227 907.195,1161.759 907.189,1095.321 877.373 L 1072.292 867.039 932.146 1001.916 C 855.066 1076.099,792.000 1137.298,792.000 1137.913 C 792.000 1138.529,796.415 1148.701,801.811 1160.517 C 843.260 1251.272,825.420 1354.132,756.208 1423.465 C 725.737 1453.989,696.995 1472.130,655.338 1487.132 C 629.557 1496.416,619.937 1497.701,576.000 1497.723 C 530.494 1497.746,522.928 1496.660,491.823 1485.634 C 416.131 1458.806,358.495 1400.694,335.477 1328.000 C 323.981 1291.696,324.000 1228.197,335.516 1192.000 C 359.413 1116.890,425.582 1053.353,503.874 1030.342 C 557.263 1014.649,627.231 1019.378,678.746 1042.160 L 700.897 1051.956 712.191 1042.453 C 727.270 1029.765,984.000 782.957,984.000 781.149 C 984.000 780.371,979.485 770.824,973.967 759.934 C 952.050 716.685,945.436 650.880,958.114 602.209 C 981.834 511.142,1065.369 437.520,1162.000 422.519 C 1184.329 419.053,1249.869 423.646,1272.000 430.228 M619.077 486.031 C 674.728 499.151,718.345 533.348,742.963 583.160 C 757.722 613.023,758.000 614.440,758.000 659.793 C 758.000 703.484,757.303 707.472,745.194 733.034 C 708.204 811.123,621.335 853.543,535.197 835.580 C 434.194 814.517,368.177 712.808,393.580 617.401 C 419.275 520.894,519.442 462.540,619.077 486.031 M1890.174 492.372 C 1935.495 509.260,1968.265 536.774,1989.477 575.748 C 2046.234 680.031,1989.270 803.264,1870.160 833.873 C 1784.161 855.974,1692.770 813.180,1654.806 733.034 C 1642.697 707.472,1642.000 703.484,1642.000 659.793 C 1642.000 614.440,1642.278 613.023,1657.037 583.160 C 1681.154 534.362,1724.533 499.814,1779.091 485.953 C 1810.116 478.071,1859.443 480.921,1890.174 492.372 M1170.000 543.471 C 1132.967 553.203,1104.765 575.713,1088.283 608.696 C 1063.113 659.067,1077.071 718.679,1122.059 752.939 C 1185.647 801.365,1274.831 782.283,1310.941 712.527 C 1321.907 691.345,1324.000 682.971,1324.000 660.289 C 1324.000 596.360,1274.732 545.809,1208.609 541.893 C 1193.974 541.026,1176.600 541.736,1170.000 543.471 M1236.454 1083.995 C 1269.228 1090.072,1311.028 1112.515,1334.761 1136.777 C 1405.920 1209.518,1403.833 1318.337,1329.956 1387.446 C 1254.992 1457.570,1145.008 1457.570,1070.044 1387.446 C 994.775 1317.035,994.052 1204.860,1068.411 1133.934 C 1113.929 1090.517,1174.519 1072.511,1236.454 1083.995 M539.802 1145.209 C 452.159 1169.999,421.570 1272.585,481.907 1339.370 C 490.052 1348.386,506.905 1360.765,519.358 1366.881 C 551.202 1382.519,595.809 1382.779,628.355 1367.516 C 703.958 1332.062,723.412 1237.817,667.013 1180.235 C 634.888 1147.437,582.714 1133.071,539.802 1145.209 M1790.000 1145.339 C 1764.023 1153.971,1749.186 1163.075,1732.076 1180.881 C 1676.729 1238.481,1696.628 1332.337,1771.645 1367.516 C 1804.290 1382.826,1848.788 1382.524,1880.858 1366.775 C 1992.928 1311.742,1958.944 1150.032,1833.584 1141.827 C 1816.540 1140.712,1799.887 1142.053,1790.000 1145.339 " fill="#1D1E23" stroke="none" fill-rule="evenodd"/></svg>