<svg viewBox="0 0 2400 2400" fill="none" xmlns="http://www.w3.org/2000/svg"><path d="M1568.000 404.519 C 1465.465 414.942,1368.408 443.193,1237.205 500.805 L 1200.410 516.962 1139.205 490.800 C 1036.877 447.059,951.650 420.368,888.000 412.130 C 847.814 406.929,725.959 406.976,684.225 412.209 C 603.509 422.330,509.681 478.717,462.225 545.623 C 430.252 590.699,405.532 649.040,396.302 701.205 C 394.044 713.967,390.959 758.967,389.448 801.205 L 386.699 878.000 335.211 933.589 C 232.886 1044.066,204.000 1106.055,204.000 1215.163 C 204.000 1264.325,205.020 1271.864,216.173 1305.155 C 240.796 1378.648,279.390 1436.896,346.648 1502.071 L 388.000 1542.142 388.059 1578.071 C 388.285 1714.954,405.125 1790.922,450.997 1862.000 C 489.695 1921.962,548.749 1967.256,626.354 1996.501 C 679.740 2016.618,727.511 2021.995,820.929 2018.401 C 876.325 2016.270,891.167 2014.108,944.929 2000.342 C 1015.493 1982.274,1074.152 1961.930,1147.235 1930.182 L 1198.989 1907.698 1260.494 1933.305 C 1469.011 2020.118,1618.992 2042.386,1747.395 2005.597 C 1864.569 1972.025,1943.913 1899.530,1983.637 1789.748 C 2003.926 1733.678,2009.324 1697.928,2009.679 1617.287 L 2010.000 1544.575 2053.125 1501.287 C 2144.284 1409.784,2189.092 1329.294,2195.622 1245.317 C 2199.825 1191.268,2194.575 1147.422,2178.532 1102.595 C 2154.772 1036.201,2128.850 998.492,2051.843 918.298 L 2013.148 878.000 2010.438 802.000 C 2006.537 692.582,1999.434 659.186,1965.682 591.574 C 1911.983 484.005,1808.951 419.319,1667.158 404.154 C 1623.977 399.536,1616.761 399.563,1568.000 404.519 M902.842 478.202 C 965.434 489.817,1119.305 543.131,1122.888 554.444 C 1123.662 556.888,1090.753 581.843,1049.757 609.899 L 975.218 660.911 899.269 676.457 C 731.283 710.843,643.992 739.931,515.000 804.508 L 452.000 836.047 452.014 817.024 C 452.040 780.844,460.563 707.080,468.141 677.450 C 472.325 661.091,483.343 632.922,492.626 614.853 C 529.120 543.819,611.717 485.188,694.000 471.909 C 722.124 467.371,868.194 471.772,902.842 478.202 M1732.574 479.553 C 1820.442 502.262,1892.391 566.436,1923.649 649.981 C 1928.463 662.847,1934.909 690.077,1937.974 710.491 C 1945.447 760.276,1950.165 837.515,1945.603 835.393 C 1943.621 834.471,1910.547 818.010,1872.105 798.812 C 1791.675 758.645,1742.052 738.527,1673.182 718.164 C 1618.339 701.948,1525.927 680.350,1466.356 669.827 L 1426.713 662.824 1351.366 611.045 C 1309.925 582.567,1275.113 557.800,1274.005 556.008 C 1269.972 549.483,1401.527 500.030,1465.031 484.199 C 1515.019 471.738,1556.403 468.279,1634.000 470.077 C 1684.610 471.249,1709.819 473.673,1732.574 479.553 M1244.607 617.000 C 1268.438 630.750,1287.951 643.099,1287.968 644.443 C 1288.058 651.398,1152.546 654.858,1118.524 648.769 L 1103.049 646.000 1150.524 619.131 C 1176.636 604.353,1198.737 592.203,1199.639 592.131 C 1200.540 592.059,1220.776 603.250,1244.607 617.000 M1346.000 720.153 C 1397.574 725.014,1408.750 729.860,1451.898 766.070 C 1485.649 794.394,1604.537 914.049,1644.585 960.000 C 1701.564 1025.377,1769.235 1119.993,1805.870 1185.502 L 1821.080 1212.700 1811.834 1229.350 C 1799.940 1250.770,1753.812 1319.889,1720.638 1366.000 C 1670.734 1435.364,1625.852 1486.701,1542.278 1570.013 C 1454.721 1657.294,1411.870 1693.364,1388.000 1699.875 C 1347.111 1711.029,1168.834 1715.678,1080.000 1707.908 C 995.139 1700.485,981.888 1692.867,878.372 1592.000 C 759.206 1475.882,661.217 1354.490,598.274 1245.005 L 579.306 1212.010 594.393 1185.005 C 655.615 1075.422,792.173 906.599,896.349 811.703 C 976.348 738.831,997.984 725.001,1039.603 720.137 C 1079.734 715.446,1296.175 715.458,1346.000 720.153 M863.333 747.783 C 862.600 749.863,830.111 785.538,791.136 827.059 C 702.830 921.133,663.530 968.017,613.821 1038.593 C 553.477 1124.266,543.459 1137.059,539.677 1133.277 C 528.719 1122.319,474.410 964.697,466.098 919.725 C 463.676 906.625,464.515 905.379,484.515 892.362 C 515.349 872.294,627.383 819.270,678.000 800.789 C 724.960 783.644,850.450 744.464,859.333 744.174 C 862.267 744.078,864.067 745.702,863.333 747.783 M1684.067 787.743 C 1753.233 810.713,1827.733 843.656,1886.887 877.430 L 1930.000 902.044 1929.534 924.022 C 1928.824 957.497,1867.379 1136.000,1856.566 1136.000 C 1854.622 1136.000,1836.263 1111.250,1815.767 1081.000 C 1746.636 978.967,1705.019 928.278,1598.486 816.350 C 1564.119 780.243,1536.000 749.319,1536.000 747.631 C 1536.000 743.371,1614.445 764.622,1684.067 787.743 M1135.802 907.956 C 1075.274 917.652,1001.145 962.276,960.353 1013.572 C 933.137 1047.798,914.249 1084.015,901.721 1126.000 C 888.283 1171.037,886.274 1241.872,897.240 1284.000 C 906.673 1320.235,935.775 1377.319,959.896 1406.900 C 999.168 1455.059,1044.756 1485.482,1112.200 1508.539 C 1146.409 1520.234,1154.560 1521.474,1198.000 1521.591 C 1235.866 1521.692,1252.574 1519.844,1277.135 1512.835 C 1366.598 1487.306,1438.817 1427.360,1478.127 1346.000 C 1503.742 1292.986,1509.629 1267.072,1509.478 1208.000 C 1509.364 1163.096,1508.098 1154.216,1497.060 1120.879 C 1480.571 1071.083,1456.674 1032.191,1420.233 995.846 C 1383.902 959.610,1341.131 932.249,1298.588 918.027 C 1272.377 909.264,1258.138 907.267,1212.588 905.963 C 1182.565 905.104,1148.011 906.001,1135.802 907.956 M2054.520 1014.000 C 2084.327 1050.978,2122.043 1123.645,2127.986 1155.546 C 2133.155 1183.292,2132.986 1248.837,2127.685 1272.000 C 2121.962 1297.011,2086.915 1367.205,2066.308 1394.931 C 2041.150 1428.780,1999.314 1472.963,1995.952 1469.233 C 1994.351 1467.455,1982.675 1435.400,1970.007 1398.000 C 1957.338 1360.600,1935.564 1303.646,1921.619 1271.436 L 1896.264 1212.873 1922.050 1151.436 C 1936.232 1117.646,1958.223 1058.181,1970.918 1019.291 L 1994.000 948.581 2011.363 965.291 C 2020.913 974.481,2040.334 996.400,2054.520 1014.000 M431.907 1029.075 C 444.904 1065.595,466.548 1122.428,480.005 1155.370 L 504.471 1215.264 490.756 1242.632 C 474.776 1274.521,438.636 1368.127,419.574 1427.000 C 412.273 1449.550,404.127 1468.000,401.473 1468.000 C 393.891 1468.000,345.594 1413.268,322.055 1378.000 C 281.608 1317.399,268.153 1274.970,268.059 1207.726 C 267.987 1156.374,273.251 1136.810,302.634 1079.219 C 331.317 1022.999,394.551 948.951,404.975 959.375 C 406.790 961.190,418.909 992.555,431.907 1029.075 M582.337 1339.126 C 650.104 1438.503,699.789 1499.210,805.662 1612.000 C 831.475 1639.500,854.381 1665.254,856.562 1669.231 C 860.174 1675.816,859.165 1676.213,845.264 1673.678 C 816.278 1668.392,721.826 1639.419,668.000 1619.302 C 581.419 1586.945,484.950 1537.331,469.086 1517.003 C 463.458 1509.792,464.323 1504.742,480.559 1450.000 C 505.944 1364.411,537.661 1282.082,543.790 1285.870 C 545.910 1287.180,563.256 1311.146,582.337 1339.126 M1897.247 1381.062 C 1906.906 1407.978,1919.956 1448.706,1926.247 1471.569 L 1937.686 1513.139 1925.119 1523.569 C 1905.562 1539.800,1826.612 1581.480,1778.000 1601.235 C 1701.912 1632.158,1555.053 1678.069,1541.354 1675.215 C 1537.743 1674.463,1557.800 1650.387,1594.020 1612.000 C 1698.718 1501.035,1746.677 1442.596,1813.959 1344.000 C 1860.468 1275.845,1855.904 1278.866,1868.783 1307.708 C 1874.780 1321.137,1887.589 1354.147,1897.247 1381.062 M672.000 1687.153 C 734.856 1708.654,804.608 1727.257,908.000 1750.094 C 944.300 1758.112,980.300 1768.414,988.000 1772.987 C 1021.538 1792.904,1123.834 1866.337,1122.736 1869.707 C 1119.558 1879.464,967.180 1934.030,909.827 1945.949 C 889.866 1950.097,848.121 1953.425,797.858 1954.874 C 711.576 1957.362,678.320 1953.298,634.000 1934.850 C 554.950 1901.946,485.202 1822.254,467.705 1744.846 C 461.318 1716.589,452.000 1637.421,452.000 1611.413 L 452.000 1588.522 533.000 1627.918 C 577.833 1649.723,639.897 1676.171,672.000 1687.153 M1945.194 1632.230 C 1942.841 1741.414,1921.182 1804.568,1865.957 1863.272 C 1829.255 1902.287,1796.066 1923.965,1746.952 1941.005 L 1710.000 1953.825 1620.000 1953.890 C 1514.157 1953.967,1498.090 1951.302,1392.000 1916.068 C 1315.403 1890.629,1276.000 1874.521,1276.000 1868.647 C 1276.000 1866.561,1308.994 1842.252,1349.320 1814.626 L 1422.640 1764.399 1508.320 1745.847 C 1667.090 1711.469,1777.372 1674.783,1880.615 1622.000 C 1912.177 1605.864,1939.800 1593.145,1942.000 1593.736 C 1944.380 1594.376,1945.673 1609.969,1945.194 1632.230 M1287.708 1778.564 C 1290.614 1781.147,1275.496 1790.816,1237.406 1810.733 L 1200.811 1829.869 1185.406 1822.662 C 1158.530 1810.090,1112.000 1782.694,1112.000 1779.442 C 1112.000 1773.578,1281.147 1772.733,1287.708 1778.564 " fill="#1D1E23" stroke="none" fill-rule="evenodd"/></svg>