<svg viewBox="0 0 2400 2400" fill="none" xmlns="http://www.w3.org/2000/svg"><path d="M200.000 356.000 L 200.000 512.000 262.000 512.000 L 324.000 512.000 324.000 418.000 L 324.000 324.000 418.000 324.000 L 512.000 324.000 512.000 262.000 L 512.000 200.000 356.000 200.000 L 200.000 200.000 200.000 356.000 M636.000 262.000 L 636.000 324.000 762.000 324.000 L 888.000 324.000 888.000 262.000 L 888.000 200.000 762.000 200.000 L 636.000 200.000 636.000 262.000 M1012.000 262.000 L 1012.000 324.000 1138.000 324.000 L 1264.000 324.000 1264.000 262.000 L 1264.000 200.000 1138.000 200.000 L 1012.000 200.000 1012.000 262.000 M1388.000 262.000 L 1388.000 324.000 1482.000 324.000 L 1576.000 324.000 1576.000 388.000 L 1576.000 452.000 1638.000 452.000 L 1700.000 452.000 1700.000 326.000 L 1700.000 200.000 1544.000 200.000 L 1388.000 200.000 1388.000 262.000 M1849.874 599.845 C 1695.804 612.461,1566.001 624.788,1561.422 627.239 C 1527.342 645.478,1491.862 719.065,1483.978 787.862 C 1478.873 832.405,1478.745 830.745,1488.000 840.000 C 1495.782 847.782,1501.369 848.001,1693.000 848.051 L 1890.000 848.102 1921.152 858.051 C 1950.591 867.453,1957.343 868.000,2043.867 868.000 C 2121.771 868.000,2136.366 867.062,2141.714 861.714 C 2145.171 858.257,2148.000 854.847,2148.000 854.136 C 2148.000 853.425,2159.700 798.464,2174.000 732.000 C 2188.300 665.536,2200.000 608.508,2200.000 605.270 C 2200.000 602.033,2194.738 594.123,2188.308 587.692 C 2177.907 577.292,2174.040 576.050,2153.308 576.453 C 2140.488 576.703,2003.943 587.229,1849.874 599.845 M200.000 762.000 L 200.000 888.000 262.000 888.000 L 324.000 888.000 324.000 762.000 L 324.000 636.000 262.000 636.000 L 200.000 636.000 200.000 762.000 M948.000 670.000 L 948.000 700.000 1161.002 700.000 L 1374.004 700.000 1382.399 677.000 C 1387.016 664.350,1392.158 650.850,1393.825 647.000 C 1396.691 640.380,1384.657 640.000,1172.428 640.000 L 948.000 640.000 948.000 670.000 M668.859 1136.754 C 549.431 1341.517,452.389 1509.722,453.210 1510.543 C 454.031 1511.364,650.251 1511.578,889.255 1511.018 L 1323.808 1510.000 1108.415 1140.710 C 989.948 937.601,891.441 769.854,889.510 767.939 C 887.505 765.950,792.924 924.038,668.859 1136.754 M1076.000 794.000 L 1076.000 824.000 1215.456 824.000 L 1354.913 824.000 1357.456 805.442 C 1358.855 795.235,1360.000 781.735,1360.000 775.442 L 1360.000 764.000 1218.000 764.000 L 1076.000 764.000 1076.000 794.000 M1200.000 920.000 L 1200.000 952.000 1302.467 952.000 C 1420.225 952.000,1413.094 955.403,1385.423 912.409 L 1370.000 888.445 1285.000 888.222 L 1200.000 888.000 1200.000 920.000 M1522.878 903.000 C 1537.304 936.445,1534.405 953.417,1457.940 1283.203 L 1386.247 1592.405 1393.028 1618.258 C 1410.435 1684.625,1448.184 1738.205,1495.157 1763.216 C 1507.721 1769.905,1550.400 1786.316,1590.000 1799.683 C 1655.771 1821.885,1664.942 1823.986,1696.000 1823.972 C 1756.114 1823.943,1768.000 1816.534,1768.000 1779.091 C 1768.000 1760.777,1761.422 1748.079,1719.329 1685.133 C 1704.298 1662.657,1692.000 1640.410,1692.000 1635.697 C 1692.000 1630.984,1709.100 1546.614,1730.000 1448.208 C 1751.469 1347.121,1768.000 1259.802,1768.000 1247.484 C 1768.000 1219.542,1776.722 1186.265,1791.956 1156.086 C 1800.274 1139.610,1804.021 1126.314,1804.069 1113.114 C 1804.254 1062.441,1827.613 1003.324,1857.719 977.341 C 1893.958 946.064,1934.557 932.610,2004.974 928.544 C 2048.865 926.010,2056.742 924.517,2061.667 917.800 C 2067.259 910.176,2065.929 909.946,2002.694 907.588 C 1950.803 905.653,1933.324 903.476,1914.374 896.588 C 1891.471 888.263,1885.013 888.000,1703.578 888.000 L 1516.408 888.000 1522.878 903.000 M1901.575 987.840 C 1864.471 1009.031,1845.875 1046.139,1841.501 1107.719 C 1839.600 1134.492,1836.099 1148.688,1825.517 1172.539 C 1813.249 1200.191,1801.686 1243.019,1805.467 1246.801 C 1806.296 1247.629,1809.109 1239.687,1811.720 1229.153 C 1817.180 1207.122,1828.709 1188.354,1857.973 1153.858 C 1878.273 1129.928,1878.756 1128.759,1881.161 1097.710 C 1884.262 1057.682,1896.356 1018.231,1912.252 996.287 C 1919.037 986.920,1923.936 978.603,1923.138 977.805 C 1922.340 977.007,1912.637 981.522,1901.575 987.840 M200.000 1200.000 L 200.000 1388.000 262.000 1388.000 L 324.000 1388.000 324.000 1200.000 L 324.000 1012.000 262.000 1012.000 L 200.000 1012.000 200.000 1200.000 M908.835 1016.165 C 916.994 1018.431,929.144 1025.759,935.835 1032.450 L 948.000 1044.615 948.000 1136.169 L 948.000 1227.722 936.056 1241.325 C 907.530 1273.815,848.126 1267.632,830.426 1230.332 C 825.195 1219.308,824.001 1202.031,824.006 1137.395 C 824.013 1044.477,826.369 1035.865,855.848 1021.000 C 875.594 1011.043,886.732 1010.026,908.835 1016.165 M1324.000 1044.183 L 1324.000 1076.366 1350.753 1075.183 L 1377.505 1074.000 1382.068 1056.000 C 1384.577 1046.100,1387.793 1032.150,1389.215 1025.000 L 1391.800 1012.000 1357.900 1012.000 L 1324.000 1012.000 1324.000 1044.183 M922.574 1336.550 C 938.354 1346.057,948.000 1365.961,948.000 1389.013 C 948.000 1422.116,919.596 1449.503,885.792 1448.992 C 845.727 1448.386,817.553 1410.796,828.023 1371.914 C 839.169 1330.521,884.456 1313.582,922.574 1336.550 M200.000 1638.000 L 200.000 1764.000 262.000 1764.000 L 324.000 1764.000 324.000 1638.000 L 324.000 1512.000 262.000 1512.000 L 200.000 1512.000 200.000 1638.000 M200.000 2044.000 L 200.000 2200.000 356.000 2200.000 L 512.000 2200.000 512.000 2138.000 L 512.000 2076.000 418.000 2076.000 L 324.000 2076.000 324.000 1982.000 L 324.000 1888.000 262.000 1888.000 L 200.000 1888.000 200.000 2044.000 M1576.000 2014.000 L 1576.000 2076.000 1482.000 2076.000 L 1388.000 2076.000 1388.000 2138.000 L 1388.000 2200.000 1544.000 2200.000 L 1700.000 2200.000 1700.000 2076.000 L 1700.000 1952.000 1638.000 1952.000 L 1576.000 1952.000 1576.000 2014.000 M636.000 2138.000 L 636.000 2200.000 762.000 2200.000 L 888.000 2200.000 888.000 2138.000 L 888.000 2076.000 762.000 2076.000 L 636.000 2076.000 636.000 2138.000 M1012.000 2138.000 L 1012.000 2200.000 1138.000 2200.000 L 1264.000 2200.000 1264.000 2138.000 L 1264.000 2076.000 1138.000 2076.000 L 1012.000 2076.000 1012.000 2138.000 " fill="#1D1E23" stroke="none" fill-rule="evenodd"/></svg>