<svg viewBox="0 0 2400 2400" fill="none" xmlns="http://www.w3.org/2000/svg"><path d="M1557.031 406.088 C 1462.727 417.970,1370.613 444.541,1257.002 492.633 L 1200.004 516.761 1151.002 496.001 C 975.406 421.609,898.537 404.829,754.000 409.339 C 671.804 411.904,637.798 418.742,591.365 442.045 C 504.026 485.878,450.065 544.421,416.279 632.000 C 398.341 678.498,392.285 716.425,389.358 800.600 L 386.676 877.735 340.980 927.714 C 263.228 1012.754,230.004 1063.604,214.040 1122.000 C 210.221 1135.969,206.565 1169.406,205.294 1202.000 C 202.798 1265.984,206.448 1285.776,231.388 1343.475 C 253.280 1394.121,283.278 1435.719,338.715 1492.306 L 388.000 1542.613 388.000 1591.464 C 388.000 1774.942,437.055 1885.394,551.353 1959.269 C 610.043 1997.201,673.596 2015.679,756.000 2018.769 C 877.717 2023.333,975.218 2001.722,1137.180 1934.279 L 1199.597 1908.287 1228.798 1920.449 C 1402.610 1992.835,1512.773 2021.240,1620.000 2021.315 C 1764.785 2021.417,1880.002 1965.870,1946.524 1863.894 C 1989.583 1797.886,2005.842 1735.385,2010.185 1619.183 L 2013.070 1542.000 2055.558 1498.000 C 2160.237 1389.597,2195.799 1317.127,2195.903 1212.000 C 2195.949 1164.586,2187.522 1122.965,2168.661 1077.457 C 2147.905 1027.378,2119.859 989.395,2049.539 916.132 L 2012.000 877.022 2012.000 839.092 C 2012.000 780.906,2004.706 704.063,1995.884 669.323 C 1985.201 627.248,1953.206 563.868,1925.998 530.883 C 1848.206 436.571,1703.511 387.631,1557.031 406.088 M940.000 487.251 C 1021.612 508.826,1120.000 546.178,1120.000 555.587 C 1120.000 559.946,1091.975 581.040,1026.696 625.815 L 975.392 661.005 902.696 676.122 C 726.443 712.774,640.618 741.656,502.410 810.828 L 450.820 836.648 453.638 792.115 C 459.350 701.845,475.576 638.548,503.903 596.031 C 531.051 555.284,579.277 514.876,626.634 493.195 C 670.723 473.011,678.514 472.078,790.000 473.637 C 890.783 475.046,895.423 475.467,940.000 487.251 M1751.605 485.915 C 1842.879 517.271,1915.314 597.736,1933.523 688.000 C 1939.056 715.428,1947.859 798.825,1947.959 824.760 L 1948.000 835.520 1877.000 801.328 C 1787.697 758.322,1730.738 735.221,1672.073 718.217 C 1618.687 702.743,1518.813 679.352,1464.000 669.487 L 1426.000 662.647 1350.909 610.597 C 1309.609 581.969,1276.448 556.657,1277.217 554.349 C 1280.580 544.261,1422.226 493.625,1484.414 480.280 C 1517.331 473.216,1534.173 472.348,1620.000 473.293 C 1716.250 474.351,1718.600 474.577,1751.605 485.915 M1241.822 615.650 C 1263.723 628.453,1282.237 640.712,1282.964 642.891 C 1284.946 648.839,1248.785 651.982,1184.000 651.492 C 1093.958 650.811,1094.158 651.004,1150.502 619.131 C 1176.626 604.353,1198.900 592.286,1200.000 592.316 C 1201.100 592.346,1219.920 602.846,1241.822 615.650 M1320.000 719.957 C 1390.792 724.521,1400.795 727.265,1432.769 750.896 C 1467.298 776.415,1622.414 932.475,1664.462 984.000 C 1719.276 1051.167,1773.171 1128.372,1807.446 1188.825 C 1822.911 1216.103,1824.502 1211.391,1773.877 1288.233 C 1699.002 1401.882,1642.058 1470.458,1532.057 1579.452 C 1453.655 1657.135,1409.818 1693.387,1386.695 1699.661 C 1344.658 1711.067,1161.027 1715.977,1078.077 1707.912 C 995.045 1699.840,975.977 1688.180,865.825 1578.113 C 750.375 1462.753,669.219 1362.660,607.234 1259.183 L 579.189 1212.366 599.700 1176.525 C 690.098 1018.557,917.658 766.565,1004.000 728.817 C 1030.021 717.441,1204.909 712.537,1320.000 719.957 M861.199 749.560 C 859.439 752.617,828.967 786.367,793.482 824.560 C 689.986 935.951,668.636 961.947,586.153 1077.000 C 564.466 1107.250,544.441 1132.000,541.652 1132.000 C 533.691 1132.000,493.469 1023.209,473.624 948.000 L 463.597 910.000 476.799 898.743 C 492.418 885.424,591.727 836.073,654.000 810.683 C 678.200 800.816,731.300 782.530,772.000 770.046 C 812.700 757.562,847.800 746.737,850.000 745.990 C 859.654 742.711,864.289 744.189,861.199 749.560 M1584.941 758.027 C 1686.696 784.474,1796.016 827.512,1881.000 874.583 L 1928.000 900.615 1928.000 919.614 C 1928.000 949.983,1897.957 1048.798,1869.195 1113.027 C 1860.788 1131.800,1857.851 1135.196,1853.296 1131.415 C 1850.222 1128.865,1828.047 1098.459,1804.018 1063.848 C 1751.783 988.610,1706.402 932.526,1639.592 860.642 C 1542.603 756.287,1535.336 748.000,1540.817 748.000 C 1543.867 748.000,1563.722 752.512,1584.941 758.027 M1098.000 919.394 C 959.672 968.184,875.598 1103.688,892.323 1250.885 C 903.172 1346.363,970.376 1441.238,1058.725 1485.802 C 1111.881 1512.614,1143.845 1520.659,1197.706 1520.782 C 1254.380 1520.911,1282.952 1514.700,1330.311 1491.956 C 1415.140 1451.216,1477.136 1375.618,1502.489 1282.000 C 1511.406 1249.071,1509.770 1162.621,1499.601 1129.421 C 1474.105 1046.186,1411.522 972.220,1334.000 933.701 C 1289.786 911.732,1270.174 908.094,1196.000 908.101 C 1133.829 908.107,1128.144 908.762,1098.000 919.394 M2022.300 977.000 C 2035.039 990.750,2053.336 1012.688,2062.960 1025.751 C 2088.797 1060.821,2123.555 1133.507,2128.114 1162.000 C 2133.094 1193.126,2133.043 1237.293,2127.997 1264.454 C 2123.065 1290.994,2089.500 1361.298,2066.225 1393.834 C 2039.441 1431.277,2001.426 1470.694,1996.626 1466.000 C 1994.377 1463.800,1981.350 1430.500,1967.678 1392.000 C 1954.006 1353.500,1932.374 1297.203,1919.607 1266.895 L 1896.393 1211.790 1910.533 1178.895 C 1930.825 1131.688,1952.143 1074.440,1973.800 1009.000 C 1984.175 977.650,1994.120 952.000,1995.901 952.000 C 1997.681 952.000,2009.561 963.250,2022.300 977.000 M409.140 967.000 C 414.647 985.589,465.305 1119.785,483.729 1164.587 L 504.532 1215.174 492.759 1238.587 C 478.228 1267.482,449.931 1338.881,428.787 1400.000 C 410.624 1452.499,403.993 1468.000,399.694 1468.000 C 394.687 1468.000,352.435 1419.902,331.176 1390.000 C 283.806 1323.374,270.371 1283.212,270.295 1208.000 C 270.244 1156.333,270.804 1152.590,283.274 1121.356 C 300.056 1079.322,335.746 1022.650,367.497 987.620 C 392.475 960.063,405.217 953.754,409.140 967.000 M572.002 1325.000 C 640.737 1425.342,693.522 1490.492,797.496 1603.313 C 850.084 1660.376,862.012 1676.000,852.987 1676.000 C 837.818 1676.000,684.603 1626.996,632.000 1605.320 C 582.448 1584.901,491.690 1537.643,478.450 1525.366 C 468.156 1515.821,467.250 1512.925,469.256 1495.984 C 471.750 1474.927,513.433 1346.475,529.283 1311.000 C 534.935 1298.350,541.157 1288.000,543.109 1288.000 C 545.060 1288.000,558.063 1304.650,572.002 1325.000 M1874.770 1322.296 C 1890.359 1360.333,1930.195 1480.313,1934.040 1500.805 C 1936.626 1514.593,1935.827 1516.080,1919.388 1528.086 C 1860.109 1571.375,1655.384 1652.825,1552.409 1674.089 L 1538.818 1676.895 1547.095 1665.270 C 1551.648 1658.877,1573.769 1633.925,1596.252 1609.823 C 1696.939 1501.886,1740.393 1449.070,1808.331 1352.057 C 1833.088 1316.705,1855.241 1288.414,1857.560 1289.187 C 1859.879 1289.960,1867.623 1304.859,1874.770 1322.296 M636.000 1673.340 C 693.197 1695.929,768.891 1717.843,879.056 1743.707 C 925.836 1754.689,972.532 1767.400,982.825 1771.953 C 1004.111 1781.369,1120.000 1863.203,1120.000 1868.819 C 1120.000 1878.780,951.822 1939.180,899.882 1947.873 C 885.647 1950.255,839.800 1953.293,798.000 1954.622 C 705.294 1957.571,670.566 1952.383,622.000 1928.330 C 554.026 1894.665,495.833 1830.982,474.367 1766.770 C 466.226 1742.418,456.852 1680.386,453.436 1628.270 L 450.796 1587.972 520.398 1621.572 C 558.679 1640.052,610.700 1663.347,636.000 1673.340 M1942.812 1653.000 C 1938.547 1753.824,1915.696 1812.301,1858.051 1869.909 C 1820.344 1907.592,1795.395 1923.161,1741.516 1942.630 L 1702.000 1956.909 1614.000 1954.738 C 1556.005 1953.308,1515.286 1950.340,1494.576 1946.034 C 1460.549 1938.960,1331.420 1896.866,1296.415 1881.437 C 1275.832 1872.364,1275.141 1871.580,1281.523 1864.527 C 1285.205 1860.459,1318.318 1836.362,1355.108 1810.978 L 1422.000 1764.825 1480.000 1752.171 C 1661.946 1712.474,1764.595 1679.134,1879.508 1622.412 C 1908.937 1607.885,1935.762 1596.000,1939.119 1596.000 C 1944.418 1596.000,1944.905 1603.517,1942.812 1653.000 M1285.613 1779.373 C 1287.618 1782.618,1246.244 1807.860,1214.879 1822.527 L 1199.757 1829.597 1173.786 1816.790 C 1139.736 1800.000,1116.000 1784.867,1116.000 1779.950 C 1116.000 1775.053,1282.593 1774.487,1285.613 1779.373 " fill="#1D1E23" stroke="none" fill-rule="evenodd"/></svg>