<svg viewBox="0 0 2400 2400" fill="none" xmlns="http://www.w3.org/2000/svg"><path d="M1564.000 404.420 C 1473.891 412.293,1366.420 442.605,1259.026 490.438 L 1200.052 516.705 1137.026 488.768 C 1063.940 456.372,981.425 429.035,916.000 415.542 C 875.326 407.154,859.348 406.062,778.000 406.112 C 670.199 406.178,648.933 410.281,582.000 443.932 C 513.739 478.250,464.680 527.323,431.974 594.000 C 421.183 616.000,408.688 647.414,404.207 663.810 C 392.469 706.762,386.643 773.858,389.717 830.671 L 392.350 879.341 375.591 892.671 C 366.373 900.002,337.765 928.997,312.017 957.103 C 258.888 1015.100,232.682 1059.033,213.656 1122.000 C 198.726 1171.408,197.630 1245.978,211.139 1293.154 C 234.658 1375.286,289.136 1455.864,363.411 1518.378 L 391.477 1542.000 389.330 1602.000 C 385.053 1721.525,411.892 1818.062,469.479 1890.283 C 510.048 1941.160,565.925 1978.940,630.864 1999.399 C 690.031 2018.039,715.870 2021.704,786.000 2021.405 C 841.509 2021.168,858.137 2019.458,911.334 2008.511 C 985.641 1993.221,1059.983 1968.866,1140.083 1933.570 L 1200.032 1907.155 1255.435 1931.610 C 1366.164 1980.486,1453.206 2005.929,1552.000 2018.298 C 1711.073 2038.214,1857.098 1988.460,1931.618 1888.953 C 1990.347 1810.532,2018.307 1704.848,2009.657 1593.977 L 2005.919 1546.071 2019.960 1534.387 C 2027.682 1527.961,2051.322 1505.166,2072.494 1483.730 C 2218.356 1336.053,2238.949 1167.466,2130.846 1006.000 C 2122.009 992.800,2090.661 958.013,2061.186 928.696 L 2007.593 875.392 2010.270 822.696 C 2014.844 732.668,2001.789 661.589,1968.266 594.000 C 1933.004 522.904,1889.096 478.996,1818.000 443.734 C 1772.030 420.933,1732.720 410.012,1675.476 404.138 C 1630.838 399.557,1619.326 399.586,1564.000 404.420 M874.000 472.346 C 915.646 477.595,985.875 496.238,1038.587 516.037 C 1089.536 535.174,1128.000 552.202,1128.000 555.620 C 1128.000 557.010,1115.047 566.214,1099.215 576.074 C 1083.384 585.933,1048.447 609.563,1021.579 628.584 L 972.727 663.168 919.363 672.056 C 763.594 698.000,613.294 748.265,493.151 814.594 C 473.818 825.267,456.650 834.600,455.000 835.333 C 446.664 839.038,454.960 720.761,466.036 678.000 C 474.743 644.384,496.499 599.942,517.798 572.263 C 559.111 518.573,638.039 476.419,713.265 467.868 C 746.054 464.141,826.731 466.389,874.000 472.346 M1743.868 480.040 C 1842.617 513.334,1910.379 583.978,1933.752 678.000 C 1943.322 716.498,1952.852 836.000,1946.351 836.000 C 1945.445 836.000,1932.180 828.780,1916.875 819.956 C 1873.857 795.154,1772.861 749.706,1721.112 731.862 C 1664.619 712.382,1548.976 683.735,1478.000 671.637 L 1426.000 662.774 1374.000 626.078 C 1345.400 605.894,1310.750 582.514,1297.000 574.122 C 1283.250 565.729,1272.000 557.565,1272.000 555.978 C 1272.000 545.847,1419.554 492.396,1488.000 477.732 C 1556.983 462.953,1696.933 464.215,1743.868 480.040 M1220.266 602.135 C 1237.230 610.731,1281.820 637.549,1287.884 642.803 C 1288.920 643.700,1287.120 646.110,1283.884 648.156 C 1277.199 652.384,1147.242 652.819,1120.306 648.704 L 1102.612 646.000 1150.152 619.000 C 1176.300 604.150,1198.272 592.000,1198.979 592.000 C 1199.687 592.000,1209.266 596.561,1220.266 602.135 M1312.000 716.181 C 1348.300 718.459,1384.306 722.001,1392.012 724.050 C 1413.718 729.822,1467.178 774.853,1546.097 853.841 C 1621.583 929.391,1676.220 992.121,1722.177 1056.000 C 1758.705 1106.774,1796.344 1165.049,1809.941 1191.884 L 1821.030 1213.767 1809.899 1233.884 C 1803.777 1244.948,1783.528 1276.500,1764.901 1304.000 C 1679.920 1429.461,1615.855 1504.599,1503.426 1610.668 C 1435.563 1674.692,1410.922 1693.978,1390.000 1699.445 C 1346.729 1710.752,1183.338 1715.321,1084.000 1708.002 C 1001.131 1701.896,999.162 1701.161,947.104 1656.928 C 810.535 1540.889,668.935 1373.134,594.317 1238.979 L 579.288 1211.959 593.977 1184.979 C 617.351 1142.045,680.165 1049.839,718.397 1002.338 C 815.028 882.281,969.261 734.476,1009.148 723.703 C 1044.874 714.054,1212.006 709.903,1312.000 716.181 M859.697 755.000 C 854.364 761.050,824.753 792.100,793.894 824.000 C 696.231 924.961,655.478 974.922,584.307 1080.942 C 564.021 1111.160,545.959 1136.790,544.167 1137.897 C 536.663 1142.534,493.762 1029.586,475.857 958.052 L 463.021 906.773 472.511 899.531 C 509.680 871.167,629.756 815.066,711.976 787.651 C 762.594 770.772,854.981 744.636,865.697 744.163 C 867.731 744.073,865.031 748.950,859.697 755.000 M1594.000 759.634 C 1692.854 784.344,1795.462 824.373,1874.775 869.168 C 1941.082 906.617,1937.606 902.883,1931.997 930.629 C 1921.807 981.039,1864.314 1140.300,1856.464 1139.863 C 1855.109 1139.787,1839.133 1116.837,1820.962 1088.863 C 1755.080 987.439,1704.583 925.541,1603.000 821.692 C 1563.950 781.771,1532.000 747.838,1532.000 746.285 C 1532.000 744.732,1535.150 744.400,1539.000 745.549 C 1542.850 746.697,1567.600 753.035,1594.000 759.634 M1150.000 903.728 C 1028.030 923.767,934.232 1008.662,899.114 1130.803 C 887.444 1171.391,886.581 1248.339,897.351 1288.000 C 913.949 1349.121,951.884 1408.214,1002.851 1452.340 C 1029.579 1475.481,1086.589 1504.622,1123.452 1513.987 C 1310.790 1561.580,1497.306 1425.390,1510.750 1231.191 C 1520.942 1083.953,1422.180 948.015,1277.356 909.944 C 1249.482 902.616,1178.002 899.128,1150.000 903.728 M2062.572 1022.000 C 2122.091 1095.606,2147.120 1184.770,2130.502 1264.000 C 2122.241 1303.385,2090.197 1367.767,2060.408 1404.831 C 2035.580 1435.722,1997.251 1474.710,1994.611 1471.759 C 1993.746 1470.791,1987.284 1451.100,1980.250 1428.000 C 1960.966 1364.673,1945.503 1323.438,1919.283 1265.422 L 1895.521 1212.843 1921.208 1153.422 C 1948.471 1090.353,1974.148 1019.635,1986.071 974.781 L 1993.306 947.563 2015.001 968.781 C 2026.934 980.452,2048.341 1004.400,2062.572 1022.000 M417.633 987.000 C 433.937 1040.953,454.542 1096.659,480.738 1157.605 L 504.638 1213.210 486.423 1251.935 C 462.671 1302.431,444.702 1349.499,423.789 1416.000 C 414.449 1445.700,406.128 1470.797,405.299 1471.771 C 404.469 1472.745,392.927 1462.845,379.648 1449.771 C 289.064 1360.581,250.123 1257.914,269.683 1159.849 C 277.846 1118.924,304.475 1061.725,330.547 1029.115 C 351.156 1003.337,400.336 952.000,404.421 952.000 C 405.871 952.000,411.816 967.750,417.633 987.000 M576.065 1330.000 C 646.866 1436.998,708.299 1512.039,809.770 1615.473 C 845.096 1651.482,870.400 1679.916,866.000 1678.659 C 861.600 1677.402,845.400 1673.522,830.000 1670.037 C 746.204 1651.076,623.206 1606.782,554.000 1570.643 C 507.656 1546.443,468.135 1521.006,465.266 1513.531 C 459.389 1498.215,535.879 1273.736,543.935 1282.659 C 545.593 1284.497,560.052 1305.800,576.065 1330.000 M1890.064 1358.000 C 1899.568 1382.200,1914.199 1426.984,1922.576 1457.519 L 1937.806 1513.038 1924.432 1524.204 C 1905.260 1540.210,1829.379 1580.590,1778.000 1602.130 C 1710.132 1630.582,1614.839 1660.673,1538.000 1677.917 C 1528.018 1680.157,1536.800 1669.629,1590.230 1615.305 C 1692.386 1511.440,1741.056 1452.074,1821.696 1332.969 L 1857.392 1280.246 1865.087 1297.123 C 1869.319 1306.405,1880.559 1333.800,1890.064 1358.000 M636.000 1674.830 C 724.695 1708.478,810.234 1731.456,923.211 1751.984 C 968.129 1760.146,974.759 1762.509,999.211 1779.076 C 1092.075 1841.995,1124.000 1864.857,1124.000 1868.441 C 1124.000 1874.217,1081.055 1892.938,1019.221 1914.118 C 914.552 1949.970,876.583 1956.567,776.000 1956.377 C 690.728 1956.216,665.795 1951.260,608.000 1922.985 C 559.914 1899.460,512.490 1852.019,489.057 1804.000 C 479.932 1785.300,469.751 1759.200,466.434 1746.000 C 459.396 1717.991,452.000 1650.196,452.000 1613.685 L 452.000 1588.217 517.000 1621.281 C 552.750 1639.466,606.300 1663.563,636.000 1674.830 M1947.997 1615.236 C 1947.991 1650.847,1940.600 1719.938,1933.990 1746.168 C 1915.661 1818.895,1857.017 1892.071,1792.000 1923.342 C 1735.863 1950.341,1697.683 1957.935,1620.000 1957.549 C 1545.313 1957.178,1506.643 1951.456,1433.557 1929.959 C 1382.196 1914.852,1307.317 1887.707,1282.735 1875.282 L 1267.469 1867.567 1302.735 1845.436 C 1322.131 1833.264,1355.100 1811.136,1376.000 1796.263 C 1396.900 1781.389,1417.765 1767.235,1422.367 1764.808 C 1426.969 1762.381,1456.415 1755.671,1487.803 1749.897 C 1648.878 1720.264,1793.405 1672.089,1900.000 1612.501 C 1923.100 1599.588,1943.350 1589.799,1945.000 1590.747 C 1946.650 1591.696,1947.998 1602.716,1947.997 1615.236 M1274.000 1775.361 L 1294.000 1778.022 1260.000 1798.528 C 1202.743 1833.061,1202.134 1833.287,1187.000 1825.620 C 1179.850 1821.998,1158.700 1809.801,1140.000 1798.517 L 1106.000 1778.000 1124.000 1775.601 C 1148.875 1772.285,1249.666 1772.124,1274.000 1775.361 " fill="#1D1E23" stroke="none" fill-rule="evenodd"/></svg>