<svg viewBox="0 0 2400 2400" fill="none" xmlns="http://www.w3.org/2000/svg"><path d="M415.525 205.493 C 374.198 216.686,337.245 257.294,328.128 301.534 C 325.266 315.419,324.246 487.085,324.955 835.381 L 326.000 1348.762 347.262 1318.308 L 368.525 1287.855 398.447 1131.254 C 414.904 1045.124,432.044 963.706,436.536 950.327 C 453.619 899.446,493.695 848.151,544.000 812.781 C 558.300 802.726,570.293 794.387,570.652 794.250 C 571.010 794.112,575.867 773.727,581.444 748.950 C 593.731 694.364,608.569 665.064,639.193 634.915 C 667.956 606.598,701.098 586.670,742.000 573.099 C 770.514 563.638,780.319 562.455,832.000 562.241 C 882.047 562.033,894.114 563.285,920.000 571.367 C 982.283 590.815,1026.970 621.479,1055.676 664.466 C 1081.675 703.400,1088.000 730.201,1088.000 801.434 L 1088.000 862.026 1102.335 882.013 C 1121.302 908.457,1133.885 933.493,1141.670 960.274 L 1148.046 982.207 1200.000 982.207 L 1251.954 982.207 1258.330 960.274 C 1266.115 933.493,1278.698 908.457,1297.665 882.013 L 1312.000 862.026 1312.000 801.434 C 1312.000 752.050,1313.487 736.030,1320.037 714.822 C 1340.865 647.388,1396.331 597.693,1480.141 571.376 C 1505.936 563.276,1517.893 562.033,1568.000 562.241 C 1619.681 562.455,1629.486 563.638,1658.000 573.099 C 1698.902 586.670,1732.044 606.598,1760.807 634.915 C 1791.431 665.064,1806.269 694.364,1818.556 748.950 C 1824.133 773.727,1828.990 794.158,1829.348 794.352 C 1843.488 801.984,1875.915 827.187,1894.848 845.259 C 1925.525 874.540,1949.664 910.978,1962.128 946.819 C 1967.345 961.819,1985.147 1044.774,2001.688 1131.163 L 2031.762 1288.233 2050.574 1315.116 C 2060.920 1329.902,2070.913 1343.749,2072.779 1345.886 C 2074.645 1348.024,2075.684 1112.224,2075.086 821.886 L 2074.000 294.000 2064.095 274.000 C 2051.456 248.477,2027.249 224.266,2001.896 211.790 L 1982.000 202.000 1208.000 201.244 C 599.069 200.650,430.060 201.556,415.525 205.493 M1538.917 331.855 C 1578.377 349.768,1586.813 400.572,1555.523 431.861 C 1522.273 465.111,1465.429 448.787,1452.594 402.303 C 1444.916 374.496,1461.496 341.944,1489.559 329.729 C 1506.628 322.299,1519.044 322.834,1538.917 331.855 M1726.470 331.655 C 1766.245 349.717,1774.572 400.430,1742.818 431.207 C 1717.297 455.943,1682.807 456.044,1657.440 431.457 C 1625.934 400.920,1633.683 351.883,1673.098 332.373 C 1693.807 322.122,1705.142 321.970,1726.470 331.655 M1914.406 332.196 C 1965.293 356.830,1959.258 429.181,1904.803 447.324 C 1877.834 456.310,1845.436 441.376,1831.941 413.737 C 1821.715 392.795,1821.932 381.797,1833.000 359.848 C 1839.575 346.809,1846.809 339.575,1859.848 333.000 C 1881.914 321.872,1892.750 321.713,1914.406 332.196 M773.392 629.679 C 725.410 641.318,676.011 676.444,658.226 711.570 C 653.093 721.706,644.951 749.800,640.131 774.000 C 635.312 798.200,630.452 821.906,629.331 826.679 C 628.069 832.056,617.576 841.042,601.756 850.294 C 549.595 880.799,508.655 927.520,494.838 972.312 C 491.158 984.240,474.428 1065.978,457.660 1153.950 L 427.173 1313.900 404.046 1345.950 C 290.570 1503.204,203.438 1734.864,202.425 1882.000 C 202.133 1924.493,203.319 1933.366,212.764 1959.338 C 227.931 2001.044,245.631 2028.962,279.791 2065.062 C 411.278 2204.015,662.126 2240.881,858.564 2150.121 C 956.294 2104.967,1030.012 2023.734,1049.930 1939.247 C 1054.297 1920.721,1055.897 1889.130,1055.941 1820.572 C 1055.996 1733.097,1056.446 1727.341,1063.000 1730.229 C 1066.850 1731.926,1086.200 1737.780,1106.000 1743.238 C 1136.640 1751.684,1150.635 1753.165,1200.000 1753.183 C 1249.806 1753.201,1263.086 1751.782,1294.000 1743.138 C 1313.800 1737.602,1333.038 1731.781,1336.752 1730.203 C 1342.969 1727.562,1343.606 1735.520,1344.794 1830.667 C 1345.993 1926.706,1346.737 1935.835,1355.345 1960.000 C 1427.406 2162.289,1730.515 2259.352,1979.202 2159.773 C 2032.051 2138.611,2070.672 2113.060,2111.871 2072.000 C 2153.341 2030.670,2170.797 2004.570,2187.217 1959.338 C 2207.939 1902.257,2199.327 1809.539,2161.777 1685.470 C 2124.230 1561.408,2067.737 1445.583,1996.469 1346.546 L 1973.048 1314.000 1940.378 1144.266 C 1903.975 955.137,1900.356 943.777,1863.298 902.307 C 1845.627 882.533,1821.551 864.270,1778.523 838.000 C 1774.053 835.271,1768.655 817.477,1761.535 782.000 C 1755.794 753.400,1746.900 721.706,1741.770 711.570 C 1723.368 675.209,1670.322 638.747,1620.803 628.420 C 1590.148 622.028,1531.092 622.985,1502.577 630.337 C 1449.868 643.927,1404.022 677.981,1385.830 717.054 C 1376.620 736.835,1376.076 742.063,1376.039 811.057 L 1376.000 884.113 1358.005 906.206 C 1323.970 947.992,1312.123 981.636,1312.047 1036.720 L 1312.000 1071.440 1287.547 1061.503 C 1274.098 1056.038,1248.898 1049.498,1231.547 1046.969 C 1192.965 1041.346,1148.795 1046.736,1112.453 1061.503 L 1088.000 1071.440 1087.953 1036.720 C 1087.879 983.079,1076.536 949.638,1044.793 909.480 L 1029.011 889.515 1027.308 815.757 C 1025.707 746.451,1024.969 740.619,1015.078 719.119 C 996.248 678.188,951.213 644.206,897.423 630.337 C 868.117 622.781,803.248 622.437,773.392 629.679 M1261.233 1492.100 C 1299.787 1506.750,1319.402 1525.866,1322.939 1552.237 C 1329.188 1598.830,1274.605 1636.000,1199.935 1636.000 C 1078.667 1636.000,1030.264 1539.688,1129.483 1495.814 C 1168.181 1478.702,1221.979 1477.185,1261.233 1492.100 M712.000 1644.447 C 749.869 1650.339,804.613 1669.679,837.402 1688.749 C 876.779 1711.650,915.189 1750.972,932.317 1785.916 C 945.264 1812.329,946.000 1816.101,946.000 1856.000 C 946.000 1895.622,945.203 1899.787,932.801 1924.980 C 899.256 1993.120,821.734 2045.441,723.795 2066.043 C 602.173 2091.627,468.216 2060.422,391.646 1988.669 C 355.020 1954.347,337.727 1926.345,329.861 1888.623 C 318.531 1834.281,333.752 1784.166,375.176 1739.423 C 449.448 1659.201,576.525 1623.368,712.000 1644.447 M1814.000 1641.773 C 1893.993 1647.765,1974.479 1685.045,2024.824 1739.423 C 2115.883 1837.778,2077.205 1969.889,1937.927 2036.237 C 1878.391 2064.599,1802.238 2079.129,1738.391 2074.309 C 1610.141 2064.627,1508.355 2008.580,1467.199 1924.980 C 1454.797 1899.787,1454.000 1895.622,1454.000 1856.000 C 1454.000 1816.454,1454.814 1812.179,1467.083 1787.256 C 1497.610 1725.247,1559.740 1678.964,1646.000 1653.976 C 1681.197 1643.780,1744.080 1636.037,1772.000 1638.460 C 1779.700 1639.129,1798.600 1640.619,1814.000 1641.773 " fill="#1D1E23" stroke="none" fill-rule="evenodd"/></svg>