<svg viewBox="0 0 2400 2400" fill="none" xmlns="http://www.w3.org/2000/svg"><path d="M200.000 1199.009 L 200.000 2200.000 684.080 2200.000 L 1168.159 2200.000 1167.080 2115.731 L 1166.000 2031.462 1124.000 2015.666 C 1035.129 1982.241,936.430 1926.596,866.000 1870.210 C 827.168 1839.121,756.049 1768.305,725.189 1730.000 C 632.721 1615.225,566.449 1476.930,534.327 1331.717 C 519.943 1266.692,516.738 1228.011,513.549 1081.000 L 510.751 952.000 699.375 952.000 L 888.000 952.000 888.000 918.991 L 888.000 885.983 544.000 542.000 L 200.000 198.017 200.000 1199.009 M1356.232 212.257 C 1289.165 230.755,1230.312 266.017,1181.683 316.836 C 1144.145 356.065,1123.908 385.573,1105.655 427.693 C 1076.855 494.151,1078.577 468.717,1076.968 851.486 C 1075.520 1196.059,1075.539 1197.048,1084.153 1225.486 C 1124.278 1357.946,1208.165 1449.294,1328.222 1491.263 C 1396.680 1515.194,1482.371 1517.816,1549.857 1498.044 C 1678.520 1460.348,1768.682 1370.215,1811.823 1236.162 L 1824.000 1198.324 1823.916 858.162 L 1823.832 518.000 1814.323 485.605 C 1779.576 367.234,1718.047 292.313,1612.536 239.904 C 1555.687 211.666,1534.409 206.980,1456.000 205.430 C 1394.972 204.224,1382.185 205.099,1356.232 212.257 M701.318 1185.000 C 707.809 1299.930,757.556 1449.305,820.709 1543.499 C 855.775 1595.799,876.123 1620.530,921.794 1666.354 C 992.788 1737.587,1067.689 1788.598,1155.675 1825.637 C 1209.403 1848.255,1280.745 1869.864,1323.093 1876.347 L 1356.000 1881.384 1356.000 2040.692 L 1356.000 2200.000 1450.000 2200.000 L 1544.000 2200.000 1544.000 2040.515 L 1544.000 1881.031 1565.000 1878.294 C 1620.120 1871.111,1707.692 1843.622,1771.876 1813.356 C 1883.726 1760.613,1987.543 1672.338,2066.271 1563.030 C 2140.058 1460.585,2190.391 1315.368,2198.685 1181.000 L 2201.216 1140.000 2107.081 1140.000 L 2012.946 1140.000 2010.185 1175.000 C 1998.178 1327.209,1933.554 1456.580,1818.000 1559.737 C 1747.509 1622.665,1653.978 1669.490,1557.191 1690.306 C 1513.428 1699.718,1386.572 1699.718,1342.809 1690.306 C 1245.999 1669.485,1150.586 1621.745,1082.000 1559.811 C 964.724 1453.909,902.182 1328.650,889.860 1175.000 L 887.054 1140.000 792.915 1140.000 L 698.776 1140.000 701.318 1185.000 M1863.701 1976.179 C 1823.165 1995.847,1777.400 2016.152,1762.000 2021.300 L 1734.000 2030.661 1732.920 2115.331 L 1731.841 2200.000 1966.892 2200.000 L 2201.943 2200.000 2095.972 2093.736 C 2037.687 2035.291,1978.165 1976.885,1963.701 1963.945 L 1937.402 1940.419 1863.701 1976.179 " fill="#1D1E23" stroke="none" fill-rule="evenodd"/></svg>