<svg viewBox="0 0 2400 2400" fill="none" xmlns="http://www.w3.org/2000/svg"><path d="M200.000 1199.009 L 200.000 2200.000 684.000 2200.000 L 1168.000 2200.000 1168.000 2116.545 L 1168.000 2033.089 1121.000 2013.957 C 980.766 1956.871,884.386 1893.085,785.184 1791.710 C 673.173 1677.245,593.917 1540.621,549.874 1386.078 C 526.014 1302.351,519.201 1238.524,513.684 1047.000 L 510.947 952.000 699.473 952.000 L 888.000 952.000 888.000 918.991 L 888.000 885.983 544.000 542.000 L 200.000 198.017 200.000 1199.009 M1354.879 213.997 C 1277.232 233.719,1182.399 302.941,1137.104 372.961 C 1112.750 410.608,1092.646 455.217,1085.553 487.347 C 1080.732 509.183,1079.251 576.897,1077.356 862.000 L 1075.043 1210.000 1095.088 1256.968 C 1121.871 1319.726,1146.510 1358.129,1185.551 1397.966 C 1255.058 1468.891,1331.689 1502.883,1431.138 1506.904 C 1537.033 1511.186,1611.094 1486.856,1689.063 1422.172 C 1741.774 1378.442,1780.836 1318.845,1810.502 1236.892 L 1824.000 1199.603 1823.980 852.802 L 1823.961 506.000 1802.828 454.000 C 1777.087 390.659,1754.603 355.225,1715.648 316.610 C 1667.698 269.077,1609.010 233.395,1553.410 217.969 C 1519.590 208.585,1386.656 205.926,1354.879 213.997 M700.000 1167.476 C 700.000 1256.867,751.856 1429.756,804.827 1516.969 C 859.137 1606.388,952.718 1703.753,1042.729 1764.492 C 1085.065 1793.060,1161.062 1828.685,1224.764 1849.825 C 1275.280 1866.590,1329.974 1880.000,1347.831 1880.000 C 1355.920 1880.000,1356.000 1881.566,1356.000 2040.000 L 1356.000 2200.000 1450.000 2200.000 L 1544.000 2200.000 1544.000 2040.780 L 1544.000 1881.560 1573.484 1876.606 C 1603.810 1871.510,1667.117 1853.042,1720.000 1833.863 C 1762.875 1818.314,1820.347 1788.735,1864.169 1759.665 C 1915.416 1725.668,2040.814 1600.887,2072.860 1552.000 C 2097.877 1513.836,2129.957 1451.409,2148.424 1404.953 C 2173.339 1342.278,2200.000 1216.939,2200.000 1162.487 L 2200.000 1140.000 2106.587 1140.000 L 2013.174 1140.000 2006.305 1191.973 C 1991.305 1305.488,1958.628 1388.976,1896.723 1471.952 C 1821.249 1573.115,1699.939 1654.001,1577.368 1684.888 C 1546.081 1692.772,1531.615 1693.812,1452.000 1693.900 C 1377.890 1693.982,1356.350 1692.679,1330.000 1686.517 C 1232.723 1663.770,1146.619 1616.408,1070.610 1543.837 C 963.553 1441.624,909.258 1332.022,891.857 1183.000 L 886.836 1140.000 793.418 1140.000 L 700.000 1140.000 700.000 1167.476 M1870.000 1972.840 C 1837.000 1988.318,1792.900 2007.891,1772.000 2016.336 L 1734.000 2031.691 1732.920 2115.845 L 1731.841 2200.000 1966.920 2199.870 L 2202.000 2199.739 2073.103 2071.870 C 1996.252 1995.630,1941.339 1944.141,1937.103 1944.349 C 1933.197 1944.542,1903.000 1957.362,1870.000 1972.840 " fill="#1D1E23" stroke="none" fill-rule="evenodd"/></svg>