<svg viewBox="0 0 2400 2400" fill="none" xmlns="http://www.w3.org/2000/svg"><path d="M200.000 1199.009 L 200.000 2200.000 684.000 2200.000 L 1168.000 2200.000 1168.000 2116.416 L 1168.000 2032.832 1122.599 2014.664 C 999.537 1965.418,916.868 1914.689,826.540 1832.992 C 693.728 1712.871,600.167 1562.295,549.964 1387.875 C 524.225 1298.450,519.000 1250.417,513.542 1053.000 L 510.749 952.000 699.375 952.000 L 888.000 952.000 888.000 918.991 L 888.000 885.983 544.000 542.000 L 200.000 198.017 200.000 1199.009 M1384.000 208.095 C 1298.376 219.074,1195.235 286.673,1140.022 368.000 C 1117.963 400.492,1097.286 443.570,1087.840 476.716 C 1079.753 505.094,1079.424 516.825,1077.222 856.000 L 1074.949 1206.000 1089.039 1242.273 C 1118.587 1318.344,1147.811 1363.847,1196.833 1410.114 C 1236.838 1447.871,1277.667 1472.165,1332.901 1491.076 C 1379.315 1506.967,1428.327 1511.973,1491.595 1507.283 C 1564.959 1501.845,1643.163 1466.137,1701.741 1411.332 C 1754.131 1362.315,1782.921 1315.983,1811.624 1234.499 L 1824.128 1198.999 1823.064 850.499 L 1822.000 502.000 1804.920 458.072 C 1779.766 393.377,1759.005 359.538,1720.000 319.659 C 1666.461 264.920,1595.268 223.963,1536.293 213.973 C 1495.517 207.066,1415.972 203.995,1384.000 208.095 M700.000 1167.603 C 700.000 1249.442,745.404 1410.225,793.008 1496.959 C 845.829 1593.199,944.787 1699.213,1044.000 1765.848 C 1115.455 1813.840,1242.509 1863.698,1327.000 1876.902 L 1356.000 1881.434 1356.000 2040.717 L 1356.000 2200.000 1450.000 2200.000 L 1544.000 2200.000 1544.000 2040.461 L 1544.000 1880.922 1567.000 1878.064 C 1599.929 1873.973,1677.162 1851.026,1735.682 1827.948 C 1789.636 1806.670,1836.566 1780.394,1889.145 1742.024 C 1935.135 1708.463,2032.414 1610.016,2065.056 1564.000 C 2094.965 1521.836,2133.245 1448.046,2152.209 1396.000 C 2178.149 1324.808,2200.000 1216.810,2200.000 1159.795 L 2200.000 1140.000 2106.518 1140.000 L 2013.037 1140.000 2008.104 1184.667 C 1996.946 1285.707,1967.061 1370.328,1915.602 1446.590 C 1845.407 1550.616,1747.247 1626.211,1624.817 1670.529 C 1570.737 1690.105,1530.279 1696.000,1450.000 1696.000 C 1371.335 1696.000,1330.631 1690.278,1277.515 1671.751 C 1190.556 1641.420,1122.540 1598.155,1054.795 1530.079 C 954.855 1429.651,904.854 1319.661,889.741 1167.000 L 887.068 1140.000 793.534 1140.000 L 700.000 1140.000 700.000 1167.603 M1876.000 1970.495 C 1841.900 1986.620,1796.000 2006.938,1774.000 2015.647 L 1734.000 2031.481 1732.920 2115.741 L 1731.841 2200.000 1966.890 2200.000 L 2201.939 2200.000 2103.969 2101.735 C 2050.086 2047.689,1990.700 1989.454,1972.000 1972.323 L 1938.000 1941.177 1876.000 1970.495 " fill="#1D1E23" stroke="none" fill-rule="evenodd"/></svg>