<svg viewBox="0 0 2400 2400" fill="none" xmlns="http://www.w3.org/2000/svg"><path d="M200.000 1199.009 L 200.000 2200.000 684.000 2200.000 L 1168.000 2200.000 1168.000 2116.296 L 1168.000 2032.593 1125.364 2016.124 C 993.369 1965.140,893.713 1901.282,797.448 1806.000 C 708.668 1718.127,649.277 1633.540,599.582 1524.189 C 563.839 1445.539,534.237 1347.359,524.148 1274.000 C 519.499 1240.199,512.213 1072.964,512.079 997.000 L 512.000 952.000 700.000 952.000 L 888.000 952.000 888.000 918.991 L 888.000 885.983 544.000 542.000 L 200.000 198.017 200.000 1199.009 M1378.000 208.067 C 1309.312 218.609,1221.459 270.429,1167.501 332.230 C 1124.903 381.021,1092.975 442.690,1083.159 495.136 C 1079.371 515.375,1078.115 607.326,1078.065 868.000 L 1078.000 1214.000 1089.505 1244.000 C 1134.062 1360.188,1195.906 1430.483,1294.017 1476.460 C 1346.054 1500.845,1388.143 1509.685,1452.000 1509.639 C 1516.253 1509.593,1553.752 1501.191,1610.000 1474.240 C 1653.694 1453.304,1677.450 1436.466,1713.320 1401.007 C 1757.659 1357.176,1784.726 1312.056,1809.667 1240.402 L 1824.000 1199.226 1824.000 857.119 L 1824.000 515.013 1810.216 473.821 C 1786.249 402.197,1759.239 356.252,1715.465 312.647 C 1676.946 274.276,1618.114 238.002,1564.018 219.269 C 1529.571 207.339,1424.119 200.990,1378.000 208.067 M700.000 1164.487 C 700.000 1247.211,737.879 1388.445,785.346 1482.701 C 845.207 1601.570,969.357 1728.511,1089.688 1793.886 C 1156.906 1830.405,1273.106 1870.565,1333.323 1878.088 L 1356.000 1880.922 1356.000 2040.461 L 1356.000 2200.000 1450.000 2200.000 L 1544.000 2200.000 1544.000 2040.461 L 1544.000 1880.922 1566.677 1878.088 C 1623.822 1870.949,1746.181 1829.198,1804.000 1797.111 C 1935.629 1724.061,2054.313 1603.044,2116.957 1478.000 C 2162.819 1386.456,2192.138 1279.828,2198.498 1181.454 L 2201.178 1140.000 2107.175 1140.000 L 2013.172 1140.000 2008.593 1185.000 C 1994.073 1327.696,1937.134 1444.785,1834.593 1542.815 C 1773.608 1601.117,1705.847 1642.346,1623.337 1671.352 C 1564.623 1691.992,1536.438 1696.000,1450.000 1696.000 C 1363.779 1696.000,1335.769 1692.038,1276.663 1671.482 C 1187.933 1640.623,1125.457 1601.418,1057.641 1534.044 C 958.050 1435.100,905.603 1325.186,891.471 1185.801 L 886.828 1140.000 793.414 1140.000 L 700.000 1140.000 700.000 1164.487 M1865.900 1975.016 C 1826.355 1993.848,1780.500 2014.186,1764.000 2020.211 L 1734.000 2031.165 1732.920 2115.582 L 1731.841 2200.000 1966.891 2200.000 L 2201.941 2200.000 2099.971 2097.735 C 2043.887 2041.490,1984.455 1983.164,1967.900 1968.123 L 1937.800 1940.775 1865.900 1975.016 " fill="#1D1E23" stroke="none" fill-rule="evenodd"/></svg>