<svg viewBox="0 0 2400 2400" fill="none" xmlns="http://www.w3.org/2000/svg"><path d="M200.000 1199.009 L 200.000 2200.000 684.080 2200.000 L 1168.159 2200.000 1167.080 2115.572 L 1166.000 2031.145 1128.000 2017.718 C 1077.701 1999.945,987.249 1954.804,940.000 1923.894 C 712.811 1775.268,563.144 1540.019,521.442 1266.000 C 517.354 1239.143,514.635 1180.986,513.166 1089.000 L 510.977 952.000 699.489 952.000 L 888.000 952.000 888.000 918.991 L 888.000 885.983 544.000 542.000 L 200.000 198.017 200.000 1199.009 M1394.000 204.155 C 1262.587 224.647,1147.855 316.783,1100.236 440.063 C 1075.359 504.466,1075.585 500.288,1076.946 870.000 L 1078.183 1206.000 1087.308 1235.731 C 1128.185 1368.913,1225.372 1465.196,1354.120 1500.062 C 1393.972 1510.855,1467.872 1514.883,1506.357 1508.360 C 1656.150 1482.974,1770.245 1380.685,1812.853 1233.580 L 1822.000 1202.000 1822.000 858.000 L 1822.000 514.000 1812.783 480.267 C 1783.102 371.644,1715.563 289.675,1614.831 240.021 C 1592.374 228.952,1559.600 216.241,1542.000 211.775 C 1504.967 202.379,1430.109 198.525,1394.000 204.155 M700.033 1161.000 C 700.169 1248.384,731.595 1374.573,775.741 1465.001 C 842.835 1602.439,957.297 1722.317,1091.051 1795.233 C 1162.796 1834.345,1266.695 1869.925,1333.000 1878.090 L 1356.000 1880.922 1356.000 2040.461 L 1356.000 2200.000 1450.000 2200.000 L 1544.000 2200.000 1544.000 2040.461 L 1544.000 1880.922 1567.000 1878.090 C 1601.077 1873.894,1674.754 1854.143,1716.569 1837.994 C 1810.143 1801.855,1892.763 1749.425,1964.826 1680.449 C 2073.744 1576.198,2141.824 1459.873,2178.122 1316.000 C 2188.859 1273.443,2200.000 1194.917,2200.000 1161.795 L 2200.000 1140.000 2106.574 1140.000 L 2013.148 1140.000 2010.399 1177.000 C 2000.108 1315.545,1945.049 1435.289,1846.169 1534.169 C 1764.213 1616.125,1673.305 1665.082,1556.000 1690.436 C 1530.090 1696.036,1504.867 1697.784,1450.000 1697.784 C 1395.133 1697.784,1369.910 1696.036,1344.000 1690.436 C 1226.695 1665.082,1135.787 1616.125,1053.831 1534.169 C 954.951 1435.289,899.892 1315.545,889.601 1177.000 L 886.852 1140.000 793.426 1140.000 L 700.000 1140.000 700.033 1161.000 M1870.000 1973.579 C 1834.800 1991.471,1789.800 2011.687,1770.000 2018.503 L 1734.000 2030.897 1732.920 2115.449 L 1731.841 2200.000 1966.897 2200.000 L 2201.954 2200.000 2072.000 2070.000 C 2000.525 1998.500,1940.236 1940.236,1938.023 1940.525 C 1935.810 1940.813,1905.200 1955.688,1870.000 1973.579 " fill="#1D1E23" stroke="none" fill-rule="evenodd"/></svg>