<svg viewBox="0 0 2400 2400" fill="none" xmlns="http://www.w3.org/2000/svg"><path d="M1156.000 302.240 C 1150.500 303.182,1133.400 305.996,1118.000 308.493 C 1081.717 314.376,1037.593 329.203,1000.000 348.146 C 888.671 404.244,808.716 502.302,775.488 623.491 C 763.580 666.919,760.769 753.622,769.723 801.248 C 799.336 958.743,912.610 1085.302,1067.206 1133.621 C 1085.470 1139.330,1102.036 1144.000,1104.019 1144.000 C 1106.003 1144.000,1111.084 1136.183,1115.310 1126.628 C 1129.938 1093.560,1162.567 1072.108,1198.000 1072.263 C 1237.425 1072.436,1265.286 1089.196,1282.343 1123.000 C 1288.170 1134.550,1294.435 1144.000,1296.263 1144.000 C 1298.091 1144.000,1314.530 1139.300,1332.794 1133.554 C 1487.602 1084.858,1600.691 958.602,1630.231 801.490 C 1639.232 753.616,1636.450 667.032,1624.512 623.491 C 1580.636 463.468,1453.942 344.396,1290.554 309.626 C 1262.477 303.651,1175.595 298.881,1156.000 302.240 M1268.529 438.965 C 1300.262 454.602,1328.371 483.265,1343.217 515.128 C 1352.260 534.535,1353.881 543.453,1353.917 574.000 C 1353.956 606.199,1352.617 612.840,1341.237 636.899 C 1284.592 756.663,1115.384 756.605,1058.718 636.803 C 1047.388 612.850,1046.044 606.172,1046.083 574.000 C 1046.119 543.606,1047.758 534.499,1056.604 515.520 C 1074.521 477.079,1102.765 450.354,1143.570 433.232 C 1162.726 425.194,1171.563 423.979,1204.109 424.910 C 1237.785 425.873,1245.277 427.508,1268.529 438.965 M1293.854 792.091 C 1320.173 794.271,1353.473 798.949,1367.854 802.486 C 1403.517 811.258,1445.573 833.893,1462.115 853.218 L 1475.820 869.230 1466.910 885.615 C 1462.010 894.627,1440.900 919.202,1420.000 940.227 C 1387.102 973.323,1376.898 980.916,1344.000 996.787 C 1286.382 1024.585,1263.357 1029.875,1200.000 1029.875 C 1136.643 1029.875,1113.618 1024.585,1056.000 996.787 C 1023.102 980.916,1012.898 973.323,980.000 940.227 C 959.100 919.202,937.990 894.627,933.090 885.615 L 924.180 869.230 937.885 853.218 C 954.535 833.766,996.537 811.246,1032.817 802.318 C 1086.010 789.227,1203.650 784.618,1293.854 792.091 M1179.443 1139.637 C 1170.474 1146.891,1169.934 1150.056,1168.687 1202.637 L 1167.374 1258.000 1145.565 1267.548 C 1118.356 1279.461,1090.993 1308.926,1082.002 1335.995 C 1077.889 1348.378,1075.816 1365.874,1076.448 1382.876 L 1077.456 1410.000 1033.983 1434.578 C 1010.073 1448.096,988.145 1462.390,985.255 1466.342 C 972.003 1484.465,986.857 1512.000,1009.885 1512.000 C 1016.328 1512.000,1039.911 1501.603,1064.319 1488.000 C 1088.006 1474.800,1108.371 1464.000,1109.576 1464.000 C 1110.780 1464.000,1119.469 1469.389,1128.883 1475.975 C 1138.297 1482.562,1158.150 1490.921,1173.000 1494.550 C 1198.090 1500.683,1201.910 1500.683,1227.000 1494.550 C 1241.850 1490.921,1261.703 1482.562,1271.117 1475.975 C 1280.531 1469.389,1289.220 1464.000,1290.424 1464.000 C 1291.629 1464.000,1311.994 1474.800,1335.681 1488.000 C 1361.416 1502.342,1383.547 1512.000,1390.676 1512.000 C 1413.293 1512.000,1427.887 1484.316,1414.745 1466.342 C 1411.855 1462.390,1389.805 1448.052,1365.745 1434.481 L 1322.000 1409.805 1323.359 1383.014 C 1324.250 1365.432,1322.435 1349.351,1318.077 1336.231 C 1309.004 1308.916,1281.756 1279.509,1254.435 1267.548 L 1232.626 1258.000 1231.313 1202.637 C 1230.066 1150.056,1229.526 1146.891,1220.557 1139.637 C 1215.363 1135.437,1206.113 1132.000,1200.000 1132.000 C 1193.887 1132.000,1184.637 1135.437,1179.443 1139.637 M563.678 1252.042 C 346.222 1288.846,190.021 1479.154,201.185 1693.687 C 213.472 1929.819,418.186 2110.719,659.668 2098.836 C 852.077 2089.367,1013.696 1958.836,1062.674 1773.349 C 1071.704 1739.152,1073.044 1726.145,1072.910 1674.000 C 1072.816 1637.135,1070.593 1604.746,1067.145 1590.000 C 1060.933 1563.425,1061.553 1563.704,1027.080 1572.039 C 1002.675 1577.940,970.226 1569.222,949.782 1551.272 C 904.738 1511.723,908.218 1441.146,956.798 1408.997 L 973.154 1398.173 937.122 1364.087 C 854.581 1286.003,753.897 1247.426,635.372 1248.470 C 606.017 1248.729,573.755 1250.336,563.678 1252.042 M1668.613 1256.173 C 1590.405 1273.102,1520.043 1310.009,1462.878 1364.087 L 1426.846 1398.173 1443.202 1408.997 C 1491.782 1441.146,1495.262 1511.723,1450.218 1551.272 C 1429.774 1569.222,1397.325 1577.940,1372.920 1572.039 C 1338.074 1563.613,1338.617 1563.371,1332.588 1590.000 C 1329.355 1604.280,1327.110 1638.300,1327.045 1674.000 C 1326.951 1725.968,1328.319 1739.235,1337.265 1773.109 C 1349.054 1817.746,1375.032 1875.200,1400.285 1912.490 C 1425.251 1949.357,1477.521 1999.956,1517.680 2026.133 C 1736.835 2168.986,2029.990 2095.814,2151.228 1868.000 C 2278.171 1629.466,2146.769 1336.182,1879.573 1261.675 C 1847.498 1252.731,1832.050 1250.970,1774.000 1249.639 C 1716.680 1248.325,1700.128 1249.351,1668.613 1256.173 M677.930 1374.150 C 720.850 1385.329,756.024 1413.582,777.342 1454.000 C 789.225 1476.531,790.000 1480.571,790.000 1520.000 C 790.000 1558.169,788.973 1564.007,778.745 1584.000 C 763.122 1614.540,731.926 1645.078,702.418 1658.715 C 680.781 1668.715,673.445 1670.000,638.000 1670.000 C 601.363 1670.000,595.747 1668.932,571.197 1657.302 C 523.551 1634.730,492.398 1594.222,484.375 1544.409 C 466.763 1435.048,568.420 1345.626,677.930 1374.150 M1803.056 1373.700 C 1941.440 1410.539,1958.274 1595.967,1828.803 1657.302 C 1804.253 1668.932,1798.637 1670.000,1762.000 1670.000 C 1725.589 1670.000,1719.667 1668.892,1696.000 1657.654 C 1664.555 1642.722,1635.909 1614.720,1620.959 1584.299 C 1611.125 1564.290,1610.000 1557.687,1610.000 1520.000 C 1610.000 1480.665,1610.798 1476.473,1622.586 1453.935 C 1635.694 1428.870,1665.709 1397.527,1687.292 1386.366 C 1720.797 1369.040,1766.689 1364.019,1803.056 1373.700 M768.689 1741.879 C 832.928 1751.562,880.070 1772.893,902.645 1802.491 L 912.842 1815.860 902.199 1834.021 C 896.346 1844.009,880.462 1864.041,866.903 1878.536 C 753.379 1999.894,559.078 2010.865,433.489 1903.008 C 402.172 1876.112,364.000 1829.092,364.000 1817.411 C 364.000 1807.559,391.542 1781.358,414.927 1768.963 C 462.051 1743.985,509.738 1736.901,634.000 1736.419 C 699.523 1736.165,742.282 1737.899,768.689 1741.879 M1920.000 1745.767 C 1972.539 1757.534,2026.739 1789.122,2034.081 1812.254 C 2037.735 1823.768,2012.308 1859.117,1975.388 1893.848 C 1917.785 1948.037,1843.921 1976.724,1762.000 1976.724 C 1681.633 1976.724,1606.218 1947.728,1549.975 1895.203 C 1523.331 1870.321,1488.000 1824.848,1488.000 1815.439 C 1488.000 1806.631,1526.640 1774.301,1549.622 1763.881 C 1571.503 1753.959,1610.381 1744.132,1650.000 1738.507 C 1656.600 1737.570,1713.300 1737.308,1776.000 1737.925 C 1864.967 1738.801,1896.588 1740.523,1920.000 1745.767 " fill="#1D1E23" stroke="none" fill-rule="evenodd"/></svg>