<svg viewBox="0 0 2400 2400" fill="none" xmlns="http://www.w3.org/2000/svg"><path d="M294.000 307.745 C 262.247 313.191,228.860 339.250,214.286 369.963 C 201.852 396.164,200.379 475.105,200.184 1125.248 L 200.000 1740.495 210.101 1761.847 C 223.444 1790.053,244.657 1812.745,273.765 1829.952 L 297.529 1844.000 654.765 1844.000 L 1012.000 1844.000 1012.000 1908.000 L 1012.000 1972.000 888.000 1972.000 L 764.000 1972.000 764.000 2036.000 L 764.000 2100.000 1202.000 2100.000 L 1640.000 2100.000 1640.000 2036.000 L 1640.000 1972.000 1514.000 1972.000 L 1388.000 1972.000 1388.000 1908.000 L 1388.000 1844.000 1745.235 1844.000 L 2102.471 1844.000 2126.235 1829.952 C 2155.426 1812.696,2178.115 1788.577,2190.658 1761.467 L 2200.158 1740.935 2199.079 1067.467 C 2198.043 421.135,2197.701 393.400,2190.591 379.098 C 2179.942 357.680,2155.166 330.865,2132.712 316.457 L 2113.300 304.000 1211.650 304.501 C 715.742 304.776,302.800 306.236,294.000 307.745 M2075.997 775.000 C 2075.995 965.850,2074.799 1255.650,2073.339 1419.000 L 2070.684 1716.000 1200.000 1716.000 L 329.315 1716.000 326.657 1433.340 C 325.196 1277.877,324.000 988.077,324.000 789.340 L 324.000 428.000 1200.000 428.000 L 2076.000 428.000 2075.997 775.000 M1131.956 677.000 L 1131.912 794.000 1036.864 696.299 L 941.816 598.599 923.495 609.335 C 913.419 615.240,901.916 623.673,897.933 628.075 C 891.592 635.081,891.361 637.332,896.078 646.146 C 899.042 651.683,937.942 694.416,982.523 741.107 L 1063.580 826.000 1063.790 1032.043 L 1064.000 1238.086 1134.000 1308.000 L 1204.000 1377.914 1204.000 1327.869 L 1204.000 1277.823 1170.000 1244.000 L 1136.000 1210.177 1136.000 1039.088 L 1136.000 868.000 1220.917 868.000 L 1305.833 868.000 1270.000 832.000 L 1234.167 796.000 1198.463 796.000 L 1162.760 796.000 1186.603 780.590 C 1217.195 760.817,1234.657 739.528,1242.628 712.289 C 1250.667 684.816,1248.085 647.689,1236.565 625.108 C 1219.500 591.658,1175.133 560.130,1145.000 560.039 L 1132.000 560.000 1131.956 677.000 M812.135 717.793 C 799.715 736.856,796.052 745.861,798.096 752.304 C 799.618 757.098,828.569 789.332,862.432 823.935 L 924.000 886.850 924.000 938.365 L 924.000 989.880 848.409 912.940 C 806.833 870.623,770.789 836.000,768.310 836.000 C 761.842 836.000,756.609 852.136,753.730 880.955 C 751.397 904.310,752.022 907.080,762.995 922.000 C 789.579 958.149,982.574 1157.354,987.851 1154.092 C 990.595 1152.396,992.000 1101.375,992.000 1003.377 L 992.000 855.226 913.385 773.613 C 870.147 728.726,833.458 692.000,831.855 692.000 C 830.251 692.000,821.377 703.607,812.135 717.793 M1204.000 1050.156 L 1204.000 1220.311 1239.000 1219.156 L 1274.000 1218.000 1276.465 1108.000 C 1277.820 1047.500,1279.170 986.342,1279.465 972.094 L 1280.000 946.188 1311.935 977.936 L 1343.870 1009.684 1344.935 1113.842 L 1346.000 1218.000 1379.235 1220.000 L 1412.471 1222.000 1421.274 1248.211 C 1436.395 1293.230,1465.219 1321.466,1508.768 1333.921 C 1527.425 1339.257,1534.637 1339.598,1548.701 1335.811 C 1575.898 1328.488,1601.329 1313.926,1616.771 1296.834 C 1632.852 1279.034,1649.580 1238.838,1646.316 1225.837 C 1645.130 1221.109,1625.054 1197.161,1601.703 1172.620 L 1559.247 1128.000 1523.624 1128.000 L 1488.000 1128.000 1488.000 1174.000 L 1488.000 1220.000 1452.000 1220.000 L 1416.000 1220.000 1416.000 1153.079 L 1416.000 1086.158 1381.083 1051.079 L 1346.167 1016.000 1390.847 1016.000 C 1417.404 1016.000,1436.569 1014.316,1438.093 1011.849 C 1439.504 1009.566,1425.791 992.466,1407.620 973.849 L 1374.581 940.000 1324.190 940.000 L 1273.800 940.000 1244.000 910.000 C 1227.610 893.500,1211.905 880.000,1209.100 880.000 C 1205.047 880.000,1204.000 914.916,1204.000 1050.156 M752.125 1070.000 L 752.098 1122.000 879.049 1252.037 C 948.872 1323.557,1050.550 1427.899,1105.000 1483.908 L 1204.000 1585.742 1203.982 1533.871 L 1203.964 1482.000 1033.139 1306.000 C 939.186 1209.200,837.528 1104.800,807.233 1074.000 L 752.152 1018.000 752.125 1070.000 " fill="#1D1E23" stroke="none" fill-rule="evenodd"/></svg>