<svg viewBox="0 0 2400 2400" fill="none" xmlns="http://www.w3.org/2000/svg"><path d="M1952.902 208.370 C 1943.499 213.079,1917.717 234.131,1895.610 255.151 L 1855.416 293.369 1980.646 418.646 L 2105.876 543.924 2133.218 516.962 C 2148.255 502.133,2168.387 479.667,2177.954 467.037 C 2212.898 420.907,2208.520 403.570,2144.179 333.278 C 2094.624 279.141,2031.364 219.974,2012.971 210.561 C 1991.973 199.814,1971.477 199.067,1952.902 208.370 M1246.976 903.024 L 699.982 1450.029 825.005 1575.006 L 950.029 1699.982 1497.024 1152.976 L 2044.018 605.971 1918.995 480.994 L 1793.971 356.018 1246.976 903.024 M200.000 1450.000 L 200.000 2200.000 324.000 2200.000 L 448.000 2200.000 448.000 1450.000 L 448.000 700.000 324.000 700.000 L 200.000 700.000 200.000 1450.000 M576.000 1048.967 L 576.000 1397.935 668.000 1306.000 L 760.000 1214.065 760.000 957.033 L 760.000 700.000 668.000 700.000 L 576.000 700.000 576.000 1048.967 M888.000 892.952 L 888.000 1085.903 950.000 1024.000 L 1012.000 962.097 1012.000 831.048 L 1012.000 700.000 950.000 700.000 L 888.000 700.000 888.000 892.952 M1136.189 769.000 L 1136.378 838.000 1196.189 776.493 C 1229.085 742.664,1256.000 712.775,1256.000 710.072 C 1256.000 704.353,1218.913 700.071,1169.000 700.028 L 1136.000 700.000 1136.189 769.000 M2038.966 787.033 L 1952.000 874.067 1952.000 1537.033 L 1952.000 2200.000 2076.000 2200.000 L 2200.000 2200.000 2200.000 1450.000 L 2200.000 700.000 2162.966 700.000 L 2125.932 700.000 2038.966 787.033 M1760.952 1065.047 L 1700.000 1126.094 1700.000 1475.047 L 1700.000 1824.000 1762.000 1824.000 L 1824.000 1824.000 1824.000 1414.000 C 1824.000 1188.500,1823.528 1004.000,1822.952 1004.000 C 1822.375 1004.000,1794.475 1031.471,1760.952 1065.047 M1480.968 1345.031 L 1388.000 1438.063 1388.000 1631.031 L 1388.000 1824.000 1482.000 1824.000 L 1576.000 1824.000 1576.000 1538.000 C 1576.000 1380.700,1575.536 1252.000,1574.968 1252.000 C 1574.401 1252.000,1532.101 1293.864,1480.968 1345.031 M604.900 1545.094 L 576.000 1574.188 576.000 1699.094 L 576.000 1824.000 701.100 1824.000 L 826.200 1824.000 855.714 1794.288 L 885.227 1764.576 869.071 1745.288 C 848.747 1721.026,641.174 1516.000,636.934 1516.000 C 635.210 1516.000,620.795 1529.092,604.900 1545.094 M1196.952 1629.047 L 1136.000 1690.094 1136.000 1757.047 L 1136.000 1824.000 1198.000 1824.000 L 1260.000 1824.000 1260.000 1696.000 C 1260.000 1625.600,1259.528 1568.000,1258.952 1568.000 C 1258.375 1568.000,1230.475 1595.471,1196.952 1629.047 " fill="#1D1E23" stroke="none" fill-rule="evenodd"/></svg>