<svg viewBox="0 0 2400 2400" fill="none" xmlns="http://www.w3.org/2000/svg"><path d="M1144.000 608.035 C 999.488 618.699,812.242 714.606,709.660 830.501 C 683.111 860.497,644.924 910.977,625.999 941.097 C 614.306 959.706,612.979 960.502,574.000 972.316 C 465.499 1005.198,401.722 1041.492,335.832 1107.852 C 222.323 1222.168,176.228 1381.493,213.805 1529.627 C 238.534 1627.113,274.849 1687.777,353.057 1762.250 C 412.838 1819.175,480.373 1856.789,568.637 1882.318 L 606.000 1893.125 916.752 1897.159 C 1328.372 1902.502,1827.616 1896.634,1870.000 1885.953 C 1941.573 1867.918,2014.388 1828.020,2067.957 1777.485 C 2236.616 1618.381,2242.724 1378.247,2082.425 1208.714 C 2045.544 1169.708,1997.098 1136.716,1936.880 1109.596 L 1898.556 1092.336 1885.399 1055.168 C 1847.188 947.226,1789.893 863.338,1696.547 778.661 C 1611.574 701.579,1493.856 641.470,1381.949 618.021 C 1355.711 612.523,1219.649 603.142,1190.000 604.787 C 1185.600 605.031,1164.900 606.493,1144.000 608.035 M1599.101 1037.630 C 1650.195 1085.827,1692.000 1126.777,1692.000 1128.630 C 1692.000 1130.484,1665.900 1132.000,1634.000 1132.000 L 1576.000 1132.000 1576.000 1428.000 L 1576.000 1724.000 1450.000 1724.000 L 1324.000 1724.000 1324.000 1428.104 L 1324.000 1132.208 1263.268 1131.104 L 1202.536 1130.000 1325.951 1013.141 L 1449.367 896.282 1477.784 923.141 C 1493.414 937.913,1548.006 989.434,1599.101 1037.630 M1200.000 1488.000 L 1200.000 1724.000 1076.000 1724.000 L 952.000 1724.000 952.000 1488.000 L 952.000 1252.000 1076.000 1252.000 L 1200.000 1252.000 1200.000 1488.000 M824.000 1606.000 L 824.000 1724.000 700.000 1724.000 L 576.000 1724.000 576.000 1606.000 L 576.000 1488.000 700.000 1488.000 L 824.000 1488.000 824.000 1606.000 " fill="#1D1E23" stroke="none" fill-rule="evenodd"/></svg>