<svg viewBox="0 0 2400 2400" fill="none" xmlns="http://www.w3.org/2000/svg"><path d="M1525.467 222.771 L 1448.934 244.695 1446.495 259.348 C 1445.154 267.406,1442.871 299.512,1441.421 330.692 L 1438.785 387.385 1405.329 420.668 L 1371.872 453.951 1300.435 457.595 L 1228.997 461.238 1212.192 525.619 C 1202.949 561.029,1194.403 598.307,1193.200 608.460 L 1191.014 626.920 1249.341 667.541 C 1313.235 712.038,1308.032 705.096,1322.054 764.575 L 1329.010 794.078 1296.806 858.390 L 1264.603 922.702 1324.297 982.297 L 1383.992 1041.892 1450.228 1008.845 L 1516.465 975.799 1548.439 985.899 C 1566.025 991.455,1583.862 996.000,1588.077 996.000 C 1596.147 996.000,1607.306 1009.804,1653.551 1077.000 C 1675.515 1108.915,1682.222 1116.000,1690.471 1116.000 C 1702.435 1116.000,1767.385 1099.855,1811.563 1085.899 C 1847.966 1074.399,1845.567 1079.616,1850.147 1002.000 C 1853.967 937.288,1856.323 930.940,1889.048 897.190 L 1917.352 868.000 1941.676 867.937 C 1966.626 867.872,2060.496 860.838,2062.447 858.887 C 2063.044 858.289,2072.878 822.807,2084.300 780.039 L 2105.066 702.278 2089.533 688.803 C 2080.990 681.391,2053.814 661.694,2029.142 645.032 L 1984.284 614.736 1975.675 577.483 C 1970.235 553.938,1968.029 535.099,1969.682 526.288 C 1971.121 518.620,1984.660 487.326,1999.770 456.747 L 2027.243 401.147 1966.621 340.875 L 1906.000 280.602 1866.000 300.874 C 1844.000 312.024,1814.222 326.172,1799.827 332.315 L 1773.654 343.483 1733.171 333.332 L 1692.689 323.180 1661.767 276.590 C 1627.297 224.653,1608.656 199.789,1604.664 200.423 C 1603.199 200.656,1567.560 210.713,1525.467 222.771 M1722.893 511.567 C 1753.814 528.254,1785.048 560.755,1799.216 590.989 C 1808.969 611.799,1810.000 618.399,1810.000 660.000 C 1810.000 703.433,1809.287 707.504,1797.227 732.963 C 1773.635 782.767,1726.297 818.107,1668.874 828.786 C 1604.827 840.697,1527.420 798.447,1495.888 734.368 C 1454.248 649.747,1490.074 549.475,1576.880 507.679 C 1601.194 495.972,1603.540 495.625,1650.000 496.859 C 1695.710 498.073,1699.187 498.774,1722.893 511.567 M542.000 867.808 L 406.000 870.000 384.643 881.830 C 358.305 896.419,330.012 926.812,312.925 958.870 L 300.000 983.120 300.048 1440.560 L 300.095 1898.000 313.048 1921.127 C 330.028 1951.446,370.970 1992.204,399.975 2007.664 L 423.120 2020.000 622.911 2020.000 L 822.703 2020.000 813.453 1973.000 C 808.365 1947.150,804.157 1922.122,804.102 1917.382 L 804.000 1908.764 627.000 1907.330 C 430.976 1905.742,432.011 1905.878,418.923 1879.995 C 412.263 1866.826,411.909 1840.618,412.923 1436.000 C 414.107 963.317,412.854 986.142,438.000 979.208 C 444.600 977.388,629.509 974.728,848.909 973.298 L 1247.818 970.697 1231.820 953.341 C 1204.448 923.646,1204.355 922.346,1225.916 871.000 C 1228.701 864.368,1214.370 864.043,953.428 864.808 C 801.943 865.253,616.800 866.603,542.000 867.808 M520.484 1035.775 C 497.698 1041.550,488.432 1048.581,479.619 1066.786 C 468.445 1089.869,471.633 1107.337,489.955 1123.424 C 505.370 1136.959,524.793 1141.230,562.000 1139.266 L 586.000 1138.000 587.007 1092.000 C 587.561 1066.700,586.464 1043.602,584.568 1040.672 C 580.343 1034.138,539.313 1031.003,520.484 1035.775 M660.660 1035.596 C 651.123 1037.264,641.701 1041.187,639.721 1044.314 C 637.742 1047.441,636.095 1066.650,636.061 1087.000 C 635.973 1140.056,636.641 1140.559,705.115 1139.115 L 758.000 1138.000 759.122 1093.932 C 759.916 1062.756,758.746 1047.912,755.122 1043.193 C 749.114 1035.368,689.418 1030.568,660.660 1035.596 M819.987 1042.035 C 817.652 1048.176,816.250 1072.280,816.871 1095.600 L 818.000 1138.000 856.000 1137.839 C 900.318 1137.651,915.425 1131.721,925.461 1110.572 C 934.169 1092.220,933.686 1076.814,923.897 1060.759 C 913.510 1043.721,896.637 1036.907,856.556 1033.565 L 824.232 1030.869 819.987 1042.035 M1798.000 1145.930 C 1795.800 1146.644,1775.727 1152.072,1753.393 1157.992 L 1712.785 1168.755 1711.053 1521.377 C 1709.253 1887.610,1708.875 1895.475,1692.720 1902.125 C 1689.024 1903.647,1661.264 1906.177,1631.032 1907.748 C 1600.799 1909.318,1575.144 1911.522,1574.021 1912.645 C 1571.539 1915.128,1582.346 1947.053,1600.043 1989.517 L 1613.177 2021.035 1662.012 2019.153 C 1718.062 2016.994,1731.112 2012.382,1769.751 1981.078 C 1804.432 1952.981,1809.357 1944.681,1812.623 1908.831 C 1814.167 1891.874,1815.559 1712.850,1815.715 1511.000 C 1815.985 1163.919,1815.620 1144.017,1809.000 1144.316 C 1805.150 1144.489,1800.200 1145.216,1798.000 1145.930 M1042.000 1452.260 C 986.146 1497.272,948.676 1542.609,919.896 1600.000 C 906.629 1626.455,879.230 1697.024,874.469 1717.000 L 871.848 1728.000 1181.470 1728.000 L 1491.092 1728.000 1493.783 1709.000 C 1500.486 1661.689,1535.939 1557.009,1568.979 1486.972 C 1580.143 1463.307,1587.941 1442.607,1586.308 1440.972 C 1584.675 1439.337,1466.037 1437.582,1322.669 1437.071 L 1062.000 1436.143 1042.000 1452.260 M945.095 1742.994 C 870.295 1744.140,868.054 1744.416,863.245 1753.086 C 856.192 1765.801,856.358 1897.005,863.476 1936.000 C 879.990 2026.466,917.246 2110.893,969.824 2177.000 L 988.117 2200.000 1301.058 2199.601 C 1473.176 2199.382,1617.939 2198.032,1622.754 2196.601 C 1631.213 2194.088,1630.776 2192.719,1609.792 2156.000 C 1564.097 2076.043,1520.807 1966.260,1503.904 1887.472 C 1499.483 1866.862,1493.734 1825.250,1491.128 1795.000 L 1486.390 1740.000 1254.195 1740.908 C 1126.488 1741.408,987.393 1742.347,945.095 1742.994 " fill="#1D1E23" stroke="none" fill-rule="evenodd"/></svg>