<svg viewBox="0 0 2400 2400" fill="none" xmlns="http://www.w3.org/2000/svg"><path d="M1142.289 608.272 C 1041.158 618.676,930.159 661.407,830.000 728.493 C 753.344 779.836,697.752 835.997,639.732 920.708 C 626.465 940.079,612.548 957.535,608.805 959.501 C 605.062 961.467,579.616 970.534,552.258 979.649 C 457.052 1011.369,395.225 1048.484,334.574 1110.327 C 237.548 1209.260,187.075 1348.855,203.581 1472.625 C 218.731 1586.233,258.908 1667.409,339.962 1748.177 C 405.950 1813.932,460.461 1846.685,556.250 1878.136 L 602.000 1893.157 840.000 1896.900 C 1101.902 1901.019,1670.205 1898.153,1790.302 1892.109 C 1860.317 1888.584,1869.544 1887.230,1902.302 1875.674 C 2047.511 1824.446,2153.030 1713.206,2188.459 1574.000 C 2201.701 1521.972,2201.061 1449.174,2186.890 1395.524 C 2162.486 1303.134,2108.130 1221.754,2034.193 1166.910 C 2000.670 1142.044,1981.986 1131.337,1930.319 1107.382 L 1898.638 1092.694 1885.836 1057.347 C 1846.856 949.717,1800.236 879.263,1712.130 794.837 C 1628.031 714.249,1514.175 650.519,1408.000 624.600 C 1350.333 610.522,1206.389 601.677,1142.289 608.272 M1599.129 1038.000 C 1647.990 1084.200,1687.974 1124.250,1687.983 1127.000 C 1687.996 1130.763,1674.142 1132.000,1632.000 1132.000 L 1576.000 1132.000 1576.000 1428.000 L 1576.000 1724.000 1450.000 1724.000 L 1324.000 1724.000 1324.000 1428.104 L 1324.000 1132.208 1263.268 1131.104 L 1202.536 1130.000 1325.961 1013.132 L 1449.387 896.263 1479.838 925.132 C 1496.587 941.009,1550.268 991.800,1599.129 1038.000 M1200.000 1488.000 L 1200.000 1724.000 1076.000 1724.000 L 952.000 1724.000 952.000 1488.000 L 952.000 1252.000 1076.000 1252.000 L 1200.000 1252.000 1200.000 1488.000 M824.000 1606.000 L 824.000 1724.000 700.000 1724.000 L 576.000 1724.000 576.000 1606.000 L 576.000 1488.000 700.000 1488.000 L 824.000 1488.000 824.000 1606.000 " fill="#1D1E23" stroke="none" fill-rule="evenodd"/></svg>