<svg viewBox="0 0 2400 2400" fill="none" xmlns="http://www.w3.org/2000/svg"><path d="M744.000 207.852 C 643.605 210.248,643.957 210.161,610.380 240.773 C 597.356 252.647,590.225 262.972,587.434 274.000 C 580.885 299.872,576.585 687.229,576.553 1254.000 C 576.521 1817.815,580.293 2098.512,588.285 2127.207 C 592.040 2140.686,598.608 2149.105,618.606 2166.071 C 632.647 2177.982,651.754 2190.039,661.067 2192.864 C 674.436 2196.919,776.074 2198.000,1144.000 2198.000 C 1571.258 2198.000,1610.998 2197.446,1622.000 2191.341 C 1643.267 2179.538,1667.018 2156.480,1683.813 2131.328 L 1700.200 2106.789 1699.100 1200.394 C 1698.207 464.387,1697.016 291.768,1692.768 282.128 C 1683.748 261.664,1659.487 235.494,1634.659 219.447 L 1610.760 204.000 1222.380 204.852 C 1008.771 205.321,793.500 206.671,744.000 207.852 M1251.586 277.620 C 1262.061 287.106,1262.154 294.418,1252.012 311.052 L 1244.055 324.104 1105.034 323.052 L 966.013 322.000 958.153 307.332 C 951.254 294.458,950.957 291.423,955.725 282.514 C 958.713 276.931,964.047 271.546,967.579 270.548 C 971.110 269.549,1034.564 269.017,1108.586 269.366 C 1234.824 269.961,1243.694 270.473,1251.586 277.620 M1636.000 1202.000 L 1636.000 1952.000 1138.000 1952.000 L 640.000 1952.000 640.000 1202.000 L 640.000 452.000 1138.000 452.000 L 1636.000 452.000 1636.000 1202.000 M1078.123 832.172 C 1045.533 837.303,1008.136 850.065,970.276 868.973 C 877.653 915.233,812.000 993.136,776.280 1099.167 C 769.127 1120.403,768.008 1133.426,768.059 1194.874 C 768.130 1280.335,772.432 1302.341,799.946 1358.000 C 843.877 1446.868,921.572 1518.805,1006.508 1549.253 C 1148.151 1600.030,1292.190 1568.673,1398.334 1463.952 C 1433.966 1428.797,1457.492 1394.809,1481.988 1343.099 C 1506.860 1290.592,1509.393 1275.055,1506.916 1190.164 C 1504.520 1108.082,1501.263 1093.535,1472.965 1038.545 C 1449.420 992.791,1427.297 963.663,1388.495 927.330 C 1341.317 883.153,1285.606 852.985,1223.484 837.976 C 1192.032 830.376,1110.262 827.111,1078.123 832.172 M1194.265 928.310 C 1222.697 933.474,1285.044 962.078,1308.355 980.653 C 1352.239 1015.620,1397.551 1086.152,1407.640 1135.197 C 1414.359 1167.862,1413.169 1250.573,1405.610 1276.274 C 1379.611 1364.670,1300.670 1443.611,1212.274 1469.610 C 1183.886 1477.959,1099.703 1478.170,1064.959 1469.978 C 1015.120 1458.227,971.544 1428.093,921.631 1370.861 C 878.077 1320.922,862.978 1277.890,862.379 1202.000 C 861.953 1148.001,867.007 1122.195,885.099 1086.000 C 924.558 1007.056,985.963 954.299,1064.513 931.853 C 1094.088 923.402,1157.677 921.666,1194.265 928.310 M1095.491 1019.751 C 1053.053 1028.030,991.834 1076.398,972.375 1117.024 C 937.404 1190.035,948.426 1265.441,1002.627 1323.984 C 1042.576 1367.133,1081.100 1384.243,1138.532 1384.343 C 1194.263 1384.441,1235.550 1365.808,1274.092 1323.165 C 1323.173 1268.861,1336.282 1187.020,1306.364 1121.672 C 1292.794 1092.031,1249.600 1048.966,1219.022 1034.589 C 1186.650 1019.370,1131.438 1012.738,1095.491 1019.751 M1176.118 1118.514 C 1186.633 1122.721,1198.880 1132.985,1210.703 1147.499 L 1229.007 1169.970 1226.598 1198.478 C 1223.737 1232.321,1220.389 1242.170,1205.890 1259.401 C 1174.581 1296.610,1117.410 1301.093,1080.215 1269.256 C 1057.158 1249.520,1048.000 1229.765,1048.000 1199.764 C 1048.000 1171.309,1055.006 1154.029,1074.169 1135.217 C 1096.978 1112.826,1143.042 1105.279,1176.118 1118.514 M869.727 2020.604 C 883.195 2026.740,886.772 2041.293,878.880 2057.843 C 872.161 2071.933,860.077 2075.912,824.000 2075.912 C 787.110 2075.912,775.588 2071.990,769.471 2057.351 C 764.571 2045.623,764.636 2042.374,769.975 2032.049 C 773.718 2024.811,781.138 2018.648,789.050 2016.205 C 804.875 2011.320,855.397 2014.074,869.727 2020.604 M1163.650 2015.658 C 1178.856 2017.818,1187.488 2021.434,1192.650 2027.809 C 1202.664 2040.176,1201.944 2045.697,1188.331 2060.937 L 1176.663 2074.000 1135.960 2074.000 C 1095.536 2074.000,1095.191 2073.918,1085.648 2062.000 C 1073.513 2046.845,1073.588 2041.918,1086.204 2025.378 C 1095.736 2012.880,1097.906 2012.019,1119.204 2012.292 C 1131.742 2012.453,1151.742 2013.967,1163.650 2015.658 M1481.000 2015.965 C 1505.235 2016.042,1517.732 2049.953,1499.580 2066.380 C 1492.592 2072.704,1484.939 2074.000,1454.580 2074.000 C 1398.741 2074.000,1379.146 2060.724,1394.000 2032.956 C 1403.115 2015.916,1416.374 2011.494,1450.000 2014.276 C 1461.000 2015.186,1474.950 2015.946,1481.000 2015.965 " fill="#1D1E23" stroke="none" fill-rule="evenodd"/></svg>