<svg xmlns="http://www.w3.org/2000/svg" width="1200" height="1200" fill="none"><path fill="#1D1E23" d="M100 100h150v450H100zM100 650v-50h300v50zM500 600h-50v50h50zM250 850h100v100H250z"/><path fill="#1D1E23" fill-rule="evenodd" d="M500.31 1100H100.313V700H500.31zm-49.997-350h-300v300h300z"/><path fill="#1D1E23" d="M950 700v50h50v50h50v-50h-50v-50z"/><path fill="#1D1E23" fill-rule="evenodd" d="M950 700h-50v-50h-50v-50H650v50h-50v-50h-50v100h100v150h-50v-50h-50v50h50v50h-50v200h250v-50H700v-50h100v-50h50v150h100v-50h50v-50h50v100h50V950h-50v-50h-50v-50h100V600h-50v50h-50v-50h-50zm-50 100h-50v50h-50v100H700v50H600V900h150V800h50v-50h-50l1.19-97.815L850 650v100h100v50h50v50h-50v50H850v-50h50zm100 200v-50h-50v50z"/><path fill="#1D1E23" d="M400 100H300v450h100zM550 100h100v450H550zM500 100h-50v450h50zM700 100h102.375v450H700zM900 100h-50v450h50zM950 100h150v450H950z"/></svg>