<svg xmlns="http://www.w3.org/2000/svg" width="1200" height="1200" fill="none"><path fill="#000" d="M100 100h125v750H100zM975 100h125v750H975zM919.445 100H850v597.22h69.445zM619.82 723.515l40.44 41.29-40.44 41.305zM619.82 976.505l40.44-41.29-40.44-41.33z"/><path fill="#000" fill-rule="evenodd" d="M780.555 850c0 198.145-73.655 250-180.525 250-106.891 0-180.585-51.855-180.585-250s73.713-250 180.585-250c106.87 0 180.525 51.855 180.525 250m-291.47-89.61 87.5 89.61-87.5 89.61 25.355 25.895 69.72-71.21v170.685l126.755-129.475L627.22 850l83.695-85.49L584.16 635.04v170.685l-69.72-71.235z"/><path fill="#000" d="M787.235 605.39c2.47 2.75 4.86 5.595 7.21 8.5V100h-97.22v447.475c34.955 11.125 66.07 31.15 90.01 57.915M627.78 544.445q-13.403-1.344-27.78-1.345c-9.585.01-18.84.46-27.775 1.345V100h55.555zM502.78 551.52V100h-55.557v486.11c16.49-15.24 35.318-26.965 55.557-34.59M377.778 100v577.065a299 299 0 0 0-7.616 20.155h-89.607V100z"/></svg>