<svg width="1200" height="1200" viewBox="0 0 1200 1200" fill="none" xmlns="http://www.w3.org/2000/svg"><path d="M150 150H300V100H100V300H150V150Z" fill="black"/><path d="M350 200H200V1000H350V200Z" fill="black"/><path d="M1000 200H850V1000H1000V200Z" fill="black"/><path d="M400 200H450V849.995H400V200Z" fill="black"/><path d="M800 200H700V849.995L800 850V200Z" fill="black"/><path d="M500 200H650V850H500V200Z" fill="black"/><path d="M900 150V100H1100V300H1050V150H900Z" fill="black"/><path d="M1050 1050H900V1100H1100V900H1050V1050Z" fill="black"/><path d="M100 900H150V1049.995H300V1099.995H100V900Z" fill="black"/></svg>