<svg width="1200" height="1200" viewBox="0 0 1200 1200" fill="none" xmlns="http://www.w3.org/2000/svg"><path d="M100 100H225V850H100V100Z" fill="#1D1E23"/><path d="M975 100H1100V850H975V100Z" fill="#1D1E23"/><path d="M919.445 100H850V697.22H919.445V100Z" fill="#1D1E23"/><path d="M619.82 723.515L660.26 764.805L619.82 806.11V723.515Z" fill="#1D1E23"/><path d="M619.82 976.505L660.26 935.215L619.82 893.885V976.505Z" fill="#1D1E23"/><path fill-rule="evenodd" d="M780.555 850C780.555 1048.145 706.9 1100 600.03 1100C493.139 1100 419.445 1048.145 419.445 850C419.445 651.855 493.158 600 600.03 600C706.9 600 780.555 651.855 780.555 850ZM489.085 760.39L576.585 850L489.085 939.61L514.44 965.505L584.16 894.295V1064.98L710.915 935.505L627.22 850L710.915 764.51L584.16 635.04V805.725L514.44 734.49L489.085 760.39Z" fill="#1D1E23"/><path d="M787.235 605.39C789.705 608.14 792.095 610.985 794.445 613.89V100H697.225V547.475C732.18 558.6 763.295 578.625 787.235 605.39Z" fill="#1D1E23"/><path d="M627.78 544.445C618.845 543.55 609.585 543.1 600 543.1C590.415 543.11 581.16 543.56 572.225 544.445V100H627.78V544.445Z" fill="#1D1E23"/><path d="M502.78 551.52V100H447.223V586.11C463.713 570.87 482.541 559.145 502.78 551.52Z" fill="#1D1E23"/><path d="M377.778 100V677.065C375.05 683.55 372.512 690.27 370.162 697.22H280.555V100H377.778Z" fill="#1D1E23"/></svg>