<svg width="1200" height="1200" viewBox="0 0 1200 1200" fill="none" xmlns="http://www.w3.org/2000/svg"><path d="M881.25 725L506.25 1100L318.75 912.5L381.25 850L506.25 975L818.75 662.5L881.25 725Z" fill="black"/><path d="M225 850H100V100H225V850Z" fill="black"/><path d="M1100 850H975V100H1100V850Z" fill="black"/><path d="M381.25 693.75H287.5V100H381.25V693.75Z" fill="black"/><path d="M506.25 693.75H443.75V100H506.25V693.75Z" fill="black"/><path d="M631.25 693.75H568.75V100H631.25V693.75Z" fill="black"/><path d="M787.5 605.37L699.12 693.75H693.75V100H787.5V605.37Z" fill="black"/><path d="M912.5 100V667.87L850 605.37V100H912.5Z" fill="black"/></svg>