<svg xmlns="http://www.w3.org/2000/svg" width="1200" height="1200" fill="none" viewBox="0 0 1200 1200"><path fill="#000" d="M887.5 100h-525a62.5 62.5 0 0 0-62.5 62.5v875a62.503 62.503 0 0 0 62.5 62.5h525a62.5 62.5 0 0 0 44.195-18.305A62.5 62.5 0 0 0 950 1037.5v-875a62.503 62.503 0 0 0-62.5-62.5M500 950H362.5V850H500zm0-200H350V650h150zm0-200H350V450h150zm200 400H550V850h150zm0-200H550V650h150zm0-200H550V450h150zm200 500H750V850h150zm0-300H750V650h150zm0-200H750V450h150zm0-200H350V150h550z"/></svg>