<svg width="1200" height="1200" viewBox="0 0 1200 1200" fill="none" xmlns="http://www.w3.org/2000/svg"><path d="M631.545 478.467C645.055 478.468 656.33 484.155 656.69 491.26L659.425 544.775C659.82 552.48 648.56 558.785 634.275 558.79H530.76C516.485 558.785 505.25 552.48 505.665 544.775L508.4 491.26C508.775 484.117 520.015 478.467 533.545 478.467H631.545Z" fill="black"/><path fill-rule="evenodd" d="M771.825 429.394C810.96 429.397 845.83 445.51 849.61 465.82L883.935 648.635L419.824 950H322.217C268.41 950 230.172 920.345 236.768 885.155L315.381 465.82C319.191 445.505 354.07 429.394 393.213 429.394H771.825ZM389.941 453.613C376.642 453.613 365.031 459.112 363.965 465.967L299.609 885.305C297.82 896.89 310.615 906.44 328.174 906.445H423.535L441.357 697.805C443.694 670.435 482.502 648.78 527.735 648.78H829.1L801.075 465.967C800.03 459.11 788.38 453.613 775.1 453.613H389.941ZM492.138 808.645L489.307 864.65L577.49 808.645H492.138ZM526.66 681.15C511.205 681.15 498.274 688.6 497.802 697.85L496.973 714.795L725.145 714.845L778.175 681.15H526.66Z" fill="black"/><path d="M894.385 300C907.205 299.966 919.94 302.466 931.785 307.373C943.63 312.281 954.385 319.524 963.43 328.613L1064.99 430.176L963.43 531.69C954.435 540.71 943.735 547.92 931.98 552.83L919.09 483.985L972.95 430.176L917.385 374.609C914.37 371.589 910.78 369.164 906.835 367.53C902.895 365.899 898.65 365.086 894.385 365.088H270.557C261.933 365.096 253.655 368.51 247.559 374.609L192.041 430.176L245.85 483.985L232.959 552.83C221.211 547.915 210.557 540.705 201.563 531.69L100 430.176L201.563 328.613C210.609 319.522 221.353 312.281 233.203 307.373C245.044 302.471 257.741 299.969 270.557 300H894.385Z" fill="black"/></svg>