<svg xmlns="http://www.w3.org/2000/svg" width="1200" height="1200" fill="none" viewBox="0 0 1200 1200"><path fill="#000" d="M250 500.56h100c27.614 0 50 22.39 50 50V650c0 27.615-22.386 50-50 50H250c-27.614 0-50-22.385-50-50v-99.44c0-27.61 22.386-50 50-50"/><path fill="#000" fill-rule="evenodd" d="M150 200h900a100 100 0 0 1 100 100v600a100 100 0 0 1-100 100H150A99.999 99.999 0 0 1 50 900V300a100 100 0 0 1 29.29-70.71A100 100 0 0 1 150 200m935.355 64.644A50 50 0 0 0 1050 250H150a50 50 0 0 0-35.356 14.644A50 50 0 0 0 100 300v600a50 50 0 0 0 50 50h900c13.26 0 25.98-5.27 35.355-14.645A50 50 0 0 0 1100 900V300a50 50 0 0 0-14.645-35.356"/></svg>