<svg xmlns="http://www.w3.org/2000/svg" width="1200" height="1200" fill="none" viewBox="0 0 1200 1200"><path fill="#000" d="M100 100h1000.06v750.045h-100.005v-50h50.005V150.003H150.003v650.042H550.03v50H100z"/><path fill="#000" d="M900.05 300.012H300.012v50.003H900.05zM950.055 400.024H250.009v50.004h700.046zM950.05 775.035l-48.25-34 24.815-53.505-58.755-5.315-5.315-58.75-53.5 24.81-34.005-48.25-34 48.25-53.505-24.81-5.31 58.75-58.755 5.315 24.815 53.505-48.255 34 48.255 34-24.815 53.505 58.755 5.315 5.31 58.75 53.505-24.81 34 48.25 34.005-48.25 53.5 24.81 5.315-58.75 58.755-5.315-24.815-53.505zM737.54 965.31l37.5 53.25 37.505-53.25 37.375 17.375v117.32l-74.88-24.94-74.88 24.94v-117.32z"/></svg>