<svg xmlns="http://www.w3.org/2000/svg" width="1200" height="1200" fill="none"><path fill="#1D1E23" fill-rule="evenodd" d="M1037.55 577.785c16.545.065 32.395 6.715 44.09 18.505a63.4 63.4 0 0 1 18.36 44.435V987.06a63.4 63.4 0 0 1-18.36 44.435c-11.71 11.795-27.625 18.46-44.19 18.505H459.326c-16.559-.05-32.431-6.71-44.14-18.505a63.37 63.37 0 0 1-18.36-44.435V798.145h62.5v31.495h578.124V640.725H846.045c-6.29-24.385-19.685-46.315-38.475-62.94zm-578.175 377.78v31.495h578.175v-31.495z"/><path fill="#1D1E23" fill-rule="evenodd" d="M662.5 200c62.5 0 343.8 346.29 343.8 346.29H818.75l-187.5-157.423-5.86 3.955c70.255 78.917 129.945 152.338 130.86 153.468H600l-80.615-57.96L475 577.785h250c24.86 0 48.73 9.93 66.31 27.635 17.58 17.71 27.44 41.75 27.44 66.795 0 25.05-9.86 49.085-27.44 66.8-17.585 17.705-41.45 27.635-66.31 27.635H287.5c-62.331-.005-186.811-62.59-187.5-62.94V325.928S599.93 200.02 662.5 200M725 609.275c-34.51.01-31.25 28.185-31.25 62.94 0 34.765-3.265 62.98 31.25 62.99 16.57 0 32.47-6.66 44.19-18.455 11.72-11.81 18.31-27.835 18.31-44.535 0-16.695-6.59-32.725-18.31-44.53a62.3 62.3 0 0 0-44.19-18.41"/></svg>