<svg width="1200" height="1200" viewBox="0 0 1200 1200" fill="none" xmlns="http://www.w3.org/2000/svg"><path fill-rule="evenodd" d="M1037.55 577.785C1054.095 577.85 1069.945 584.5 1081.64 596.29C1093.335 608.08 1099.95 624.055 1100 640.725V987.06C1099.95 1003.73 1093.335 1019.705 1081.64 1031.495C1069.93 1043.29 1054.015 1049.955 1037.45 1050H459.326C442.767 1049.95 426.895 1043.29 415.186 1031.495C403.485 1019.7 396.877 1003.735 396.826 987.06V798.145H459.326V829.64H1037.45V640.725H846.045C839.755 616.34 826.36 594.41 807.57 577.785H1037.55ZM459.375 955.565V987.06H1037.55V955.565H459.375Z" fill="black"/><path fill-rule="evenodd" d="M662.5 200C725 200 1006.3 546.29 1006.3 546.29H818.75L631.25 388.867L625.39 392.822C695.645 471.739 755.335 545.16 756.25 546.29H600L519.385 488.33L475 577.785H725C749.86 577.785 773.73 587.715 791.31 605.42C808.89 623.13 818.75 647.17 818.75 672.215C818.75 697.265 808.89 721.3 791.31 739.015C773.725 756.72 749.86 766.65 725 766.65H287.5C225.169 766.645 100.689 704.06 100 703.71V325.928C100 325.928 599.93 200.02 662.5 200ZM725 609.275C690.49 609.285 693.75 637.46 693.75 672.215C693.75 706.98 690.485 735.195 725 735.205C741.57 735.205 757.47 728.545 769.19 716.75C780.91 704.94 787.5 688.915 787.5 672.215C787.5 655.52 780.91 639.49 769.19 627.685C757.47 615.89 741.57 609.275 725 609.275Z" fill="black"/></svg>