<svg width="1200" height="1200" viewBox="0 0 1200 1200" fill="none" xmlns="http://www.w3.org/2000/svg"><path d="M275 209.571C305.858 186.18 350 208.387 350 247.315C350.015 254.597 348.33 261.787 345.117 268.31C341.905 274.829 337.255 280.523 331.494 284.912C288.748 317.128 254.035 358.938 230.127 407.031C206.218 455.134 193.753 508.21 193.75 562.01V687.99C193.753 741.78 206.222 794.82 230.127 842.92C254.036 891.025 288.74 932.87 331.494 965.09C337.254 969.48 341.906 975.17 345.117 981.69C348.331 988.215 350.014 995.4 350 1002.685C349.995 1041.605 305.857 1063.835 275 1040.43C220.675 999.41 176.564 946.185 146.192 885.01C115.825 823.84 100.002 756.385 100 687.99V562.01C100.002 493.605 115.82 426.118 146.192 364.941C176.563 303.773 220.682 250.584 275 209.571Z" fill="black"/><path d="M849.95 247.315C849.95 208.387 894.095 186.181 924.95 209.571C979.27 250.584 1023.39 303.773 1053.76 364.941C1084.13 426.118 1099.95 493.605 1099.95 562.01V687.99C1099.95 756.385 1084.125 823.84 1053.76 885.01C1023.39 946.185 979.275 999.41 924.95 1040.43C894.095 1063.83 849.955 1041.605 849.95 1002.685C849.94 995.4 851.62 988.215 854.835 981.69C858.045 975.17 862.7 969.48 868.455 965.09C911.21 932.87 945.915 891.025 969.825 842.92C993.73 794.82 1006.2 741.78 1006.2 687.99V562.01C1006.2 508.21 993.735 455.134 969.825 407.031C945.915 358.938 911.205 317.128 868.455 284.912C862.695 280.523 858.045 274.829 854.835 268.31C851.62 261.787 849.935 254.597 849.95 247.315Z" fill="black"/><path d="M331.543 369.19C360.431 337.925 412.451 358.904 412.451 401.612C412.424 413.567 407.938 425.087 399.853 433.838C367.759 468.685 349.916 514.47 349.951 562.01V687.99C349.891 735.575 367.733 781.425 399.853 816.31C407.934 825.045 412.423 836.545 412.451 848.485C412.451 891.195 360.43 912.205 331.543 880.91C283.08 828.56 256.13 759.63 256.201 688.035V562.06C256.137 490.473 283.087 421.537 331.543 369.19Z" fill="black"/><path d="M787.45 401.563C787.45 358.852 839.495 337.865 868.36 369.141C916.83 421.483 943.77 490.418 943.7 562.01V687.99C943.74 759.54 916.805 828.45 868.36 880.76C839.49 912.035 787.46 891.04 787.45 848.34C787.475 836.385 791.965 824.86 800.05 816.115C832.14 781.26 849.98 735.485 849.95 687.94V561.965C849.985 514.415 832.145 468.588 800.05 433.74C791.98 424.995 787.48 413.504 787.45 401.563Z" fill="black"/><path fill-rule="evenodd" d="M662.5 436.035C695.65 436.035 727.485 449.326 750.93 472.949C774.36 496.57 787.5 528.61 787.5 562.01V687.99C787.5 721.39 774.36 753.43 750.93 777.05C727.485 800.675 695.65 813.965 662.5 813.965H537.5C504.355 813.96 472.558 800.67 449.121 777.05C425.685 753.43 412.502 721.39 412.5 687.99V562.01C412.5 528.61 425.685 496.571 449.121 472.949C472.558 449.331 504.355 436.041 537.5 436.035H662.5ZM537.5 530.52C529.22 530.525 521.285 533.845 515.43 539.745C509.57 545.65 506.25 553.66 506.25 562.01V687.99C506.25 696.34 509.57 704.35 515.43 710.255C521.285 716.15 529.22 719.475 537.5 719.48H662.5C670.785 719.48 678.76 716.16 684.62 710.255C690.48 704.35 693.75 696.34 693.75 687.99V562.01C693.75 553.66 690.48 545.65 684.62 539.745C678.76 533.84 670.79 530.52 662.5 530.52H537.5Z" fill="black"/></svg>