<svg xmlns="http://www.w3.org/2000/svg" width="1200" height="1200" fill="none"><path fill="#1D1E23" d="M411.111 154.214a24.999 24.999 0 1 1 27.778 41.57 24.999 24.999 0 0 1-27.778-41.57M775 150a24.99 24.99 0 0 0-23.095 15.433 24.97 24.97 0 0 0-1.425 14.444 25 25 0 0 0 6.84 12.8 25 25 0 0 0 12.805 6.842c4.845.965 9.875.47 14.44-1.422a25 25 0 0 0 11.22-9.208A24.98 24.98 0 0 0 800 175c0-6.631-2.635-12.99-7.32-17.677A25 25 0 0 0 775 150M733.75 650h69.5a100.002 100.002 0 0 1 171.86-41.105A100 100 0 0 1 1000.075 675a100 100 0 0 1-24.965 66.105 100 100 0 0 1-62.435 33.1A100.002 100.002 0 0 1 803.25 700h-37L651.31 958.56 448 551.935 389.125 650H225a25 25 0 0 1-17.678-7.325A25 25 0 0 1 200 625a25 25 0 0 1 7.322-17.68A25.02 25.02 0 0 1 225 600h135.875L452 448.062l196.69 393.373z"/><path fill="#1D1E23" fill-rule="evenodd" d="M900 200h200a50 50 0 0 1 50 50v831.25a68.77 68.77 0 0 1-20.135 48.615A68.77 68.77 0 0 1 1081.25 1150h-962.5a68.76 68.76 0 0 1-48.614-20.135A68.76 68.76 0 0 1 50 1081.25V250a50.003 50.003 0 0 1 50-50h200V100a50 50 0 0 1 50-50h500a49.997 49.997 0 0 1 50 50zm-50-100H350v150h500zM100 1100h1000V250H900v50H300v-50H100z"/></svg>