<svg width="1200" height="1200" viewBox="0 0 1200 1200" fill="none" xmlns="http://www.w3.org/2000/svg"><path d="M858.445 631.25V659.765C873.44 661.955 885.17 668.41 893.605 679.15C902.035 689.89 906.25 703.82 906.25 720.9H869.63C869.63 710.38 867.56 702.475 863.38 697.265C861.4 694.735 858.82 692.715 855.91 691.355C852.995 690.005 849.79 689.335 846.58 689.455C839.66 689.455 834.42 691.545 830.52 695.605C826.73 699.67 824.805 705.315 824.805 712.5C824.52 718.355 826.52 724.1 830.37 728.515C834.095 732.535 841.005 736.655 851.075 740.87C859.61 744.305 867.94 748.3 875.975 752.785C882.05 756.155 887.595 760.395 892.43 765.38C896.87 770 900.35 775.48 902.685 781.445C905.165 788.145 906.385 795.25 906.25 802.395C906.26 817.31 901.78 829.405 892.82 838.67C883.87 847.935 871.55 853.395 855.86 855.08V881.25H835.695V855.225C818.38 853.31 805 846.915 795.51 836.085C786.015 825.25 781.25 810.865 781.25 792.92H817.97C817.955 803.335 820.33 811.335 825.1 816.895C829.875 822.455 836.76 825.245 845.705 825.245C853.125 825.255 858.985 823.23 863.28 819.14C865.435 817.005 867.12 814.45 868.215 811.62C869.3 808.795 869.79 805.755 869.63 802.735C869.605 795.515 867.675 789.765 863.865 785.545C860.055 781.33 853.535 777.42 844.335 773.83C836.175 770.68 828.165 767.085 820.41 763.035C814.16 759.765 808.41 755.615 803.27 750.78C798.51 746.175 794.72 740.67 792.14 734.57C789.35 727.505 788.02 719.945 788.23 712.355C788.23 697.55 792.79 685.395 801.905 675.93C811.015 666.47 823.125 660.95 838.23 659.375V631.25H858.445Z" fill="black"/><path d="M718.75 850H468.75V787.5H718.75V850Z" fill="black"/><path d="M718.75 725H468.75V662.5H718.75V725Z" fill="black"/><path d="M906.25 568.75H468.75V506.25H906.25V568.75Z" fill="black"/><path d="M906.25 443.75H468.75V381.25H906.25V443.75Z" fill="black"/><path d="M500 256.25C517.26 256.25 531.25 270.241 531.25 287.5C531.235 304.748 517.25 318.75 500 318.75C482.749 318.75 468.763 304.748 468.75 287.5C468.75 270.241 482.741 256.25 500 256.25Z" fill="black"/><path d="M625 256.25C642.26 256.25 656.25 270.241 656.25 287.5C656.235 304.748 642.25 318.75 625 318.75C607.75 318.75 593.765 304.748 593.75 287.5C593.75 270.241 607.74 256.25 625 256.25Z" fill="black"/><path d="M750 256.25C767.26 256.25 781.25 270.241 781.25 287.5C781.235 304.748 767.25 318.75 750 318.75C732.75 318.75 718.765 304.748 718.75 287.5C718.75 270.241 732.74 256.25 750 256.25Z" fill="black"/><path d="M875 256.25C892.26 256.25 906.25 270.241 906.25 287.5C906.235 304.748 892.25 318.75 875 318.75C857.75 318.75 843.765 304.748 843.75 287.5C843.75 270.241 857.74 256.25 875 256.25Z" fill="black"/><path fill-rule="evenodd" d="M875 100C908.15 100 939.935 113.18 963.38 136.621C986.82 160.063 1000 191.848 1000 225V1100L937.5 1037.5L875 1100L812.5 1037.5L750 1100L687.5 1037.5L625 1100L562.5 1037.5L500 1100L437.5 1037.5L375 1100V225H250C250 224.859 250.07 100 375 100H875ZM406.25 131.25C388.174 130.937 370.188 134.12 353.321 140.625C369.159 148.305 382.539 160.285 391.894 175.195C401.251 190.115 406.234 207.389 406.25 225V1024.56L437.5 993.31L500 1055.81L562.5 993.31L625 1055.81L687.5 993.31L750 1055.81L812.5 993.31L875 1055.81L937.5 993.31L968.75 1024.56V225C968.75 200.136 958.89 176.273 941.31 158.692C923.725 141.11 899.865 131.25 875 131.25H406.25Z" fill="black"/></svg>