<svg xmlns="http://www.w3.org/2000/svg" width="1200" height="1200" fill="none"><path fill="#1D1E23" d="M755.42 631.25c16.81.005 31.3 12.945 32.08 29.735a31.3 31.3 0 0 1-1.905 12.405 31.3 31.3 0 0 1-6.69 10.69c-2.92 3.065-6.46 5.465-10.35 7.13-3.895 1.665-8.07 2.545-12.305 2.54h-500c-8.288 0-16.258 3.27-22.119 9.13S225 716.71 225 725v187.5c0 8.29 3.27 16.26 9.131 22.12s13.831 9.13 22.119 9.13h99.121l-40.43-40.43c-2.898-2.9-5.169-6.37-6.738-10.155a31.3 31.3 0 0 1-2.393-11.965 31.4 31.4 0 0 1 2.393-11.96 31.3 31.3 0 0 1 6.738-10.11 31.4 31.4 0 0 1 10.156-6.785 31.3 31.3 0 0 1 11.963-2.395c4.105 0 8.171.825 11.964 2.395a31.4 31.4 0 0 1 10.155 6.785L475 974.95l-115.967 115.87a31.1 31.1 0 0 1-10.107 6.785 31.4 31.4 0 0 1-12.012 2.395 31.2 31.2 0 0 1-11.963-2.395 31.1 31.1 0 0 1-10.107-6.785c-2.897-2.9-5.218-6.32-6.787-10.105a31.4 31.4 0 0 1-2.393-11.965c0-4.1.824-8.175 2.393-11.965a31.4 31.4 0 0 1 6.787-10.155l40.478-40.38H256.25c-24.864 0-48.727-9.86-66.308-27.44A93.78 93.78 0 0 1 162.5 912.5V725a93.78 93.78 0 0 1 27.442-66.31c17.581-17.58 41.444-27.44 66.308-27.44z"/><path fill="#1D1E23" fill-rule="evenodd" d="M662.5 850c33.15 0 64.935 13.18 88.38 36.62A125 125 0 0 1 787.5 975c0 33.15-13.18 64.935-36.62 88.38A125 125 0 0 1 662.5 1100c-33.15 0-64.935-13.18-88.38-36.62A125 125 0 0 1 537.5 975c0-33.15 13.18-64.935 36.62-88.38A125 125 0 0 1 662.5 850m0 62.5a62.5 62.5 0 0 0-44.19 18.31A62.5 62.5 0 0 0 600 975c0 16.575 6.59 32.47 18.31 44.19a62.5 62.5 0 0 0 44.19 18.31c16.575 0 32.47-6.59 44.19-18.31A62.5 62.5 0 0 0 725 975c0-16.575-6.59-32.47-18.31-44.19a62.5 62.5 0 0 0-44.19-18.31M975 537.5c33.15 0 64.935 13.18 88.38 36.62A125 125 0 0 1 1100 662.5c0 33.15-13.18 64.935-36.62 88.38A125 125 0 0 1 975 787.5c-33.15 0-64.935-13.18-88.38-36.62A125 125 0 0 1 850 662.5c0-33.15 13.18-64.935 36.62-88.38A125 125 0 0 1 975 537.5m0 62.5a62.5 62.5 0 0 0-44.19 18.31 62.5 62.5 0 0 0-18.31 44.19c0 16.575 6.59 32.47 18.31 44.19A62.5 62.5 0 0 0 975 725c16.575 0 32.47-6.59 44.19-18.31a62.5 62.5 0 0 0 18.31-44.19c0-16.575-6.59-32.47-18.31-44.19A62.5 62.5 0 0 0 975 600"/><path fill="#1D1E23" d="M912.5 193.75a93.8 93.8 0 0 1 66.31 27.441c17.58 17.582 27.44 41.445 27.44 66.309v67.871l40.43-40.43a31.26 31.26 0 0 1 22.07-9.131c8.285 0 16.26 3.275 22.12 9.131 5.855 5.86 9.13 13.836 9.13 22.119a31.27 31.27 0 0 1-9.13 22.071L975 475 859.13 359.082a31.22 31.22 0 0 1-9.13-22.07c0-8.281 3.28-16.212 9.13-22.071a31.369 31.369 0 0 1 22.12-9.179c4.09.003 8.135.829 11.915 2.393a31.3 31.3 0 0 1 10.155 6.786l40.43 40.43V287.5c0-8.288-3.27-16.259-9.13-22.119s-13.835-9.131-22.12-9.131H444.58c-16.806-.008-31.294-12.929-32.08-29.737a31.4 31.4 0 0 1 1.953-12.45 31.3 31.3 0 0 1 6.641-10.645 31.4 31.4 0 0 1 10.351-7.178 31.3 31.3 0 0 1 12.305-2.49z"/><path fill="#1D1E23" fill-rule="evenodd" d="M225 100a125 125 0 0 1 88.379 36.621A125 125 0 0 1 350 225a125 125 0 0 1-36.621 88.379A125 125 0 0 1 225 350a125 125 0 0 1-88.379-36.621A125 125 0 0 1 100 225a125 125 0 0 1 36.621-88.379A125 125 0 0 1 225 100m0 62.5a62.5 62.5 0 0 0-44.189 18.311A62.5 62.5 0 0 0 162.5 225a62.5 62.5 0 0 0 18.311 44.19A62.5 62.5 0 0 0 225 287.5a62.5 62.5 0 0 0 44.19-18.31A62.5 62.5 0 0 0 287.5 225a62.5 62.5 0 0 0-18.31-44.189A62.5 62.5 0 0 0 225 162.5"/></svg>