<svg xmlns="http://www.w3.org/2000/svg" width="1200" height="1200" fill="none"><path fill="#1D1E23" d="M375 300q-31.25 0-53.125 21.875T300 375t21.875 53.125T375 450t53.125-21.875T450 375t-21.875-53.125T375 300m0 500q-31.25-.001-53.125 21.875C307.291 836.46 300 854.165 300 875s7.291 38.54 21.875 53.125Q343.75 950.001 375 950q31.25.001 53.125-21.875C442.709 913.54 450 895.835 450 875s-7.291-38.54-21.875-53.125Q406.25 799.999 375 800M150 600V150h900v450zm100-350v250h700V250zm-100 850V650h900v450zm100-350v250h700V750z"/></svg>