<svg width="1200" height="1200" viewBox="0 0 1200 1200" fill="none" xmlns="http://www.w3.org/2000/svg"><path fill-rule="evenodd" d="M287.5 568.75C304.076 568.75 319.969 575.34 331.69 587.06C343.411 598.78 350 614.675 350 631.25C350 647.825 343.411 663.72 331.69 675.44C319.969 687.16 304.076 693.75 287.5 693.75C270.924 693.75 255.031 687.16 243.31 675.44C231.589 663.72 225 647.825 225 631.25C225 614.675 231.589 598.78 243.31 587.06C255.031 575.34 270.924 568.75 287.5 568.75ZM287.5 600C279.212 600 271.241 603.27 265.381 609.13C259.52 614.99 256.25 622.96 256.25 631.25C256.25 639.54 259.52 647.51 265.381 653.37C271.241 659.23 279.212 662.5 287.5 662.5C295.788 662.5 303.759 659.23 309.619 653.37C315.48 647.51 318.75 639.54 318.75 631.25C318.75 622.96 315.48 614.99 309.619 609.13C303.759 603.27 295.788 600 287.5 600Z" fill="black"/><path d="M965.82 465.82C968.725 468.722 971.035 472.185 972.605 475.976C974.18 479.769 975 483.835 975 487.939C975 492.044 974.18 496.111 972.605 499.902C971.035 503.695 968.725 507.155 965.82 510.06C962.93 512.95 959.49 515.23 955.715 516.795C951.925 518.365 947.85 519.185 943.75 519.19C939.65 519.19 935.575 518.365 931.785 516.795C928 515.23 924.53 512.955 921.63 510.06L881.2 469.629V568.75C881.2 593.615 871.34 617.475 853.76 635.06C836.18 652.635 812.31 662.5 787.45 662.5H412.451C408.226 662.495 404.03 661.625 400.146 659.96C396.264 658.295 392.758 655.845 389.844 652.785C386.93 649.72 384.677 646.1 383.203 642.14C381.729 638.175 381.045 633.96 381.25 629.735C382.11 612.94 396.543 600 413.379 600H787.45C795.735 600 803.71 596.725 809.57 590.87C815.43 585.01 818.7 577.04 818.7 568.75V469.629L778.27 510.06C775.375 512.96 771.95 515.275 768.165 516.845C764.375 518.415 760.3 519.235 756.2 519.24C752.1 519.24 748.03 518.415 744.24 516.845C740.445 515.275 736.985 512.96 734.08 510.06C731.185 507.16 728.865 503.735 727.295 499.951C725.725 496.162 724.95 492.089 724.95 487.988C724.95 483.889 725.73 479.814 727.295 476.025C728.865 472.233 731.18 468.771 734.08 465.869L850 350L965.82 465.82Z" fill="black"/><path d="M850 193.75C884.52 193.75 912.5 221.732 912.5 256.25C912.485 290.757 884.51 318.75 850 318.75C815.49 318.75 787.515 290.757 787.5 256.25C787.5 221.732 815.48 193.75 850 193.75Z" fill="black"/><path fill-rule="evenodd" d="M1100 131.25H1068.75V756.25H1100V787.5H631.25V984.13L747.07 1100H702.88L631.25 1028.32V1100H568.75V1028.32L497.07 1100H452.881L568.75 984.13V787.5H100V756.25H131.25V131.25H100V100H1100V131.25ZM162.5 756.25H1037.5V131.25H162.5V756.25Z" fill="black"/></svg>