<svg width="1200" height="1200" viewBox="0 0 1200 1200" fill="none" xmlns="http://www.w3.org/2000/svg"><path fill-rule="evenodd" d="M599.705 250C637.475 249.988 671.76 255.512 702.54 266.553C733.065 277.414 760.265 295.986 781.495 320.459C803.34 345.341 820.23 377.854 832.13 417.969C844.025 458.082 849.95 507.04 849.95 564.845V682.665C849.94 740.475 844.01 789.52 832.13 829.785C820.24 870.055 803.465 902.84 781.785 928.075C760.8 952.815 733.755 971.72 703.32 982.96C672.7 994.325 638.49 1000 600.73 1000C563.305 1000 529.2 994.325 498.438 982.96C467.798 971.705 440.543 952.805 419.238 928.075C397.181 902.83 380.124 870.045 368.066 829.785C356.013 789.53 349.952 740.495 349.951 682.665V564.845C349.938 507.01 355.924 458.057 367.822 417.969C379.721 377.886 396.566 345.366 418.408 320.459C439.642 295.983 466.883 277.413 497.412 266.553C528.19 255.528 562.29 250 599.705 250ZM599.705 347.754C580.13 347.767 562.73 351.212 547.51 358.057C532.295 364.904 519.415 376.075 508.935 391.601C498.455 407.147 490.488 427.552 485.058 452.783C479.629 478.017 476.905 509.195 476.905 546.29V700.195C476.917 736.965 479.718 768.215 485.302 793.945C490.914 819.635 498.991 840.545 509.475 856.64C519.95 872.725 532.895 884.455 548.29 891.795C564.72 899.36 582.65 903.1 600.73 902.785C620.68 902.835 638.195 899.195 653.225 891.795C668.245 884.405 680.925 872.675 691.26 856.64C701.65 840.585 709.44 819.675 714.65 793.945C719.855 768.215 722.46 736.965 722.46 700.195V546.29C722.475 509.195 719.785 478.017 714.355 452.783C708.925 427.553 700.96 407.147 690.48 391.601C680.04 376.089 667.17 364.916 651.905 358.057C636.635 351.195 619.235 347.755 599.705 347.754Z" fill="black"/><path d="M287.5 625L100 812.5V437.5L287.5 625Z" fill="black"/><path d="M1099.95 812.5L912.45 625L1099.95 437.5V812.5Z" fill="black"/></svg>