<svg xmlns="http://www.w3.org/2000/svg" width="1200" height="1200" fill="none"><g fill="#000" clip-path="url(#a)"><path fill-rule="evenodd" d="M924.375 879.685h55.315c30.42 0 55.31 24.895 55.31 55.315s-24.89 55.31-55.31 55.31H205.313C174.891 990.31 150 965.42 150 935s24.891-55.315 55.313-55.315h55.312V492.5c0-154.322 105.647-284.306 248.905-320.812v-38.719C509.53 87.059 546.59 50 592.5 50s82.97 37.059 82.97 82.969v38.719c143.26 36.506 248.905 166.49 248.905 320.812zm-276.56-221.25h55.31c30.42 0 55.315-24.89 55.315-55.31s-24.895-55.315-55.315-55.315h-55.31V492.5c0-30.422-24.895-55.312-55.315-55.312s-55.31 24.89-55.31 55.312v55.31h-55.315c-30.422 0-55.312 24.895-55.312 55.315s24.89 55.31 55.312 55.31h55.315v55.315c0 30.42 24.89 55.31 55.31 55.31s55.315-24.89 55.315-55.31z"/><path d="M703.125 1045.625c0 60.845-49.78 110.625-110.625 110.625s-110.625-49.78-110.625-110.625z"/></g><defs><clipPath id="a"><path fill="#fff" d="M0 0h1200v1200H0z"/></clipPath></defs></svg>