<svg width="1200" height="1200" viewBox="0 0 1200 1200" fill="none" xmlns="http://www.w3.org/2000/svg"><g clip-path="url(#clip0_122_379)"><path d="M379.001 204L307.502 132.5C187.502 224 108.502 365 101.501 525H201.501C209.002 392.5 277.001 276.5 379.001 204ZM998.5 525H1098.5C1091 365 1012 224 892.5 132.5L821.5 204C922.5 276.5 991 392.5 998.5 525ZM900 550C900 396.5 818 268 675 234V125H525V234C381.501 268 300.001 396 300.001 550V800L200.001 900V950H1000V900L900 800V550ZM600 1100C607 1100 613.5 1099.5 620 1098C652.5 1091 679 1069 692 1039C697 1027 699.5 1014 699.5 1000H499.502C500 1055 544.5 1100 600 1100Z" fill="#1D1E23"/></g><defs><clipPath id="clip0_122_379"><path width="24" fill="white" d="M0 0H1200V1200H0V0z"/></clipPath></defs></svg>