<svg xmlns="http://www.w3.org/2000/svg" width="1200" height="1200" fill="none" viewBox="0 0 1200 1200"><g fill="#000" clip-path="url(#a)"><path d="M750 100H575l-50-50H275l-50 50H50v100h700zM750 600h75v210l145 85-40 60-180-105z"/><path fill-rule="evenodd" d="M800 450c-35 0-68.5 5-100 14.5V250H100v700h384c56 118 176.5 200 316 200 193.5 0 350-156.5 350-350S993.5 450 800 450m0 600c-138 0-250-112-250-250s112-250 250-250 250 112 250 250-112 250-250 250"/></g><defs><clipPath id="a"><path fill="#fff" d="M0 0h1200v1200H0z"/></clipPath></defs></svg>