<svg xmlns="http://www.w3.org/2000/svg" width="1200" height="1200" fill="none" viewBox="0 0 1200 1200"><g fill="#000" clip-path="url(#a)"><path d="M700 200c27.5 0 50-22.5 50-50s-22.5-50-50-50H575l-35.5-35.5c-9-9-22-14.5-35-14.5h-209c-13 0-26 5.5-35 14.5L225 100H100c-27.5 0-50 22.5-50 50s22.5 50 50 50zM750 637.5c0-20.5 17-37.5 37.5-37.5s37.5 17 37.5 37.5V810l112 66c18 10.5 23.5 34 12 51-10.5 15.5-31.5 20.5-48 11l-126-73.5c-15.5-9-25-25-25-43z"/><path fill-rule="evenodd" d="M800 450c-35 0-68.5 5-100 14.5V250H100v600c0 55 45 100 100 100h284c56 118 176.5 200 316 200 193.5 0 350-156.5 350-350S993.5 450 800 450m0 600c-138 0-250-112-250-250s112-250 250-250 250 112 250 250-112 250-250 250"/></g><defs><clipPath id="a"><path fill="#fff" d="M0 0h1200v1200H0z"/></clipPath></defs></svg>