<svg width="1200" height="1200" viewBox="0 0 1200 1200" fill="none" xmlns="http://www.w3.org/2000/svg"><g clip-path="url(#clip0_125_1307)"><path fill-rule="evenodd" d="M750 100H575L525 50H275L225 100H50V200H750V100ZM800 450C765 450 731.5 455 700 464.5V250H100V950H484C540 1068 660.5 1150 800 1150C993.5 1150 1150 993.5 1150 800C1150 606.5 993.5 450 800 450ZM800 1050C662 1050 550 938 550 800C550 662 662 550 800 550C938 550 1050 662 1050 800C1050 938 938 1050 800 1050ZM750 600H825V810L970 895L930 955L750 850V600Z" fill="#1D1E23"/></g><defs><clipPath id="clip0_125_1307"><path width="24" fill="white" d="M0 0H1200V1200H0V0z"/></clipPath></defs></svg>