<svg width="1200" height="1200" viewBox="0 0 1200 1200" fill="none" xmlns="http://www.w3.org/2000/svg"><g clip-path="url(#clip0_223_2049)"><path d="M600.005 299.509L976.505 950.01H223.506L600.005 299.509ZM137.006 900.01C98.506 966.51 146.506 1050.01 223.506 1050.01H976.505C1053.505 1050.01 1101.505 966.51 1063.005 900.01L686.505 249.509C648.005 183.009 552.005 183.009 513.505 249.509L137.006 900.01ZM550.005 550.01V650.01C550.005 677.51 572.505 700.01 600.005 700.01C627.505 700.01 650.005 677.51 650.005 650.01V550.01C650.005 522.51 627.505 500.01 600.005 500.01C572.505 500.01 550.005 522.51 550.005 550.01ZM550.005 800.01H650.005V900.01H550.005V800.01Z" fill="#1D1E23"/></g><defs><clipPath id="clip0_223_2049"><path width="24" fill="white" d="M0 0H1200V1200H0V0z"/></clipPath></defs></svg>