<svg width="1200" height="1200" viewBox="0 0 1200 1200" fill="none" xmlns="http://www.w3.org/2000/svg"><path d="M462.000 351.750 C 451.207 355.304,440.416 362.057,433.864 369.357 C 430.089 373.563,398.227 423.090,363.059 479.418 L 299.119 581.831 220.059 582.415 L 141.000 583.000 130.289 588.933 C 97.481 607.105,90.083 649.864,114.961 677.534 C 120.321 683.496,128.097 689.362,134.441 692.228 L 145.000 697.000 245.000 697.000 C 342.262 697.000,345.246 696.885,354.000 692.816 C 358.950 690.515,365.898 686.183,369.439 683.190 C 372.981 680.196,396.749 644.375,422.258 603.587 L 468.638 529.428 473.011 538.214 C 475.417 543.046,511.498 620.218,553.192 709.707 C 599.402 808.887,631.453 875.287,635.282 879.771 C 655.545 903.497,693.079 906.118,716.856 885.466 C 721.672 881.284,747.442 841.910,789.810 774.000 L 855.319 669.000 934.159 668.000 C 1022.772 666.876,1021.592 667.064,1037.384 651.603 C 1062.124 627.382,1060.449 587.095,1033.826 566.051 C 1016.975 552.731,1019.529 553.000,910.000 553.000 L 811.000 553.000 800.546 557.727 C 794.796 560.326,786.693 566.176,782.538 570.727 C 778.383 575.277,755.208 610.700,731.036 649.444 C 706.865 688.189,686.484 719.239,685.744 718.444 C 685.005 717.650,648.600 640.218,604.843 546.373 C 519.458 363.247,520.707 365.540,501.202 356.098 C 491.049 351.183,470.608 348.916,462.000 351.750 " fill="#1D1E23" stroke="none" fill-rule="evenodd"></path></svg>