<svg width="1200" height="1200" viewBox="0 0 1200 1200" fill="none" xmlns="http://www.w3.org/2000/svg"><path d="M574.726 51.950 C 551.764 56.846,526.725 77.283,516.476 99.494 C 511.628 109.998,511.100 113.623,510.411 141.131 L 509.655 171.262 489.327 177.848 C 378.403 213.783,292.885 308.315,268.291 422.184 C 260.592 457.827,260.000 476.317,260.000 681.050 L 260.000 879.676 224.500 880.340 C 184.617 881.086,181.796 881.879,166.481 896.653 C 156.688 906.099,150.000 921.661,150.000 935.000 C 150.000 954.449,163.304 975.354,182.000 985.283 C 188.746 988.865,203.523 989.019,588.925 989.519 C 944.978 989.982,989.870 989.700,998.144 986.952 C 1019.239 979.946,1034.774 957.972,1034.723 935.213 C 1034.673 913.202,1023.949 896.284,1003.600 886.116 C 991.407 880.023,991.236 880.000,957.748 880.000 L 924.136 880.000 923.479 663.500 C 922.826 448.455,922.792 446.870,918.400 427.646 C 894.573 323.368,833.263 243.356,741.942 197.362 C 728.160 190.421,707.795 181.765,696.687 178.127 L 676.489 171.511 675.529 143.256 C 674.761 120.653,673.706 112.799,670.256 104.000 C 661.474 81.605,644.152 64.321,622.000 55.852 C 609.663 51.136,587.229 49.284,574.726 51.950 M615.000 442.716 C 627.325 448.481,637.165 458.158,642.743 470.000 C 646.440 477.850,647.068 483.387,647.654 513.340 L 648.326 547.681 683.663 548.349 C 715.304 548.948,719.837 549.469,727.000 553.332 C 745.717 563.427,756.052 579.378,757.569 600.510 C 758.448 612.749,757.928 615.262,752.046 627.209 C 747.334 636.781,743.111 642.124,736.645 646.698 C 722.483 656.716,717.713 657.683,681.665 657.848 L 648.330 658.000 647.656 692.500 C 647.069 722.531,646.433 728.189,642.745 736.179 C 630.019 763.753,598.009 776.272,571.000 764.240 C 558.967 758.880,551.442 752.043,544.322 740.000 C 539.221 731.373,538.959 729.507,538.000 695.000 L 537.000 659.000 501.000 657.972 C 469.165 657.063,464.075 656.447,457.000 652.647 C 422.366 634.045,416.920 586.356,446.535 561.006 C 459.027 550.313,469.668 548.000,506.363 548.000 L 538.000 548.000 538.000 513.393 C 538.000 480.245,538.217 478.351,543.134 468.482 C 556.472 441.717,588.394 430.272,615.000 442.716 M482.000 1052.580 C 482.000 1062.645,487.396 1081.572,494.377 1096.000 C 507.382 1122.874,539.535 1147.583,569.598 1153.806 C 633.876 1167.112,694.572 1122.304,702.759 1055.500 L 703.923 1046.000 592.962 1046.000 L 482.000 1046.000 482.000 1052.580 " fill="#1D1E23" stroke="none" fill-rule="evenodd"></path></svg>