<svg width="1200" height="1200" viewBox="0 0 1200 1200" fill="none" xmlns="http://www.w3.org/2000/svg"><path d="M982.171 103.434 C 977.315 105.149,969.581 110.314,964.983 114.911 C 952.575 127.320,950.000 137.021,950.000 171.356 L 950.000 200.000 921.356 200.000 C 887.048 200.000,877.316 202.579,864.947 214.947 C 845.384 234.511,845.384 265.489,864.947 285.053 C 877.316 297.421,887.048 300.000,921.356 300.000 L 950.000 300.000 950.000 328.644 C 950.000 362.952,952.579 372.684,964.947 385.053 C 984.511 404.616,1015.489 404.616,1035.053 385.053 C 1047.421 372.684,1050.000 362.952,1050.000 328.644 L 1050.000 300.000 1078.644 300.000 C 1112.952 300.000,1122.684 297.421,1135.053 285.053 C 1144.033 276.072,1150.000 262.080,1150.000 250.000 C 1150.000 237.920,1144.033 223.928,1135.053 214.947 C 1122.684 202.579,1112.952 200.000,1078.644 200.000 L 1050.000 200.000 1050.000 171.356 C 1050.000 137.048,1047.421 127.316,1035.053 114.947 C 1021.176 101.071,1001.185 96.718,982.171 103.434 M381.000 401.113 C 378.800 401.623,372.090 403.036,366.089 404.255 C 341.774 409.193,312.737 425.526,293.386 445.150 C 250.799 488.340,238.600 550.828,261.683 607.549 C 276.054 642.864,307.136 673.946,342.451 688.317 C 426.583 722.555,519.320 676.876,544.312 588.887 C 550.651 566.570,550.651 533.430,544.312 511.113 C 536.654 484.149,525.568 465.420,505.080 444.830 C 489.865 429.539,483.989 425.169,468.000 417.258 C 457.550 412.088,444.050 406.512,438.000 404.867 C 427.033 401.886,388.595 399.354,381.000 401.113 M781.000 401.113 C 778.800 401.623,772.090 403.036,766.089 404.255 C 741.774 409.193,712.737 425.526,693.386 445.150 C 650.799 488.340,638.600 550.828,661.683 607.549 C 676.054 642.864,707.136 673.946,742.451 688.317 C 826.583 722.555,919.320 676.876,944.312 588.887 C 950.651 566.570,950.651 533.430,944.312 511.113 C 936.654 484.149,925.568 465.420,905.080 444.830 C 889.865 429.539,883.989 425.169,868.000 417.258 C 857.550 412.088,844.050 406.512,838.000 404.867 C 827.033 401.886,788.595 399.354,781.000 401.113 M358.576 802.044 C 298.198 807.912,228.518 824.621,178.328 845.265 C 106.824 874.677,61.798 914.199,52.171 956.000 C 51.031 960.950,50.076 985.765,50.049 1011.144 C 49.992 1064.629,51.373 1071.478,64.947 1085.053 C 81.064 1101.169,54.861 1100.000,400.000 1100.000 C 745.139 1100.000,718.936 1101.169,735.053 1085.053 C 748.627 1071.478,750.008 1064.629,749.951 1011.144 C 749.924 985.765,748.969 960.950,747.829 956.000 C 738.436 915.215,694.857 876.203,626.000 846.938 C 586.127 829.991,525.096 813.683,473.000 806.054 C 440.829 801.343,385.673 799.410,358.576 802.044 M764.130 801.697 L 751.260 803.000 762.943 811.801 C 803.814 842.590,833.451 886.284,845.508 933.525 C 850.649 953.666,850.643 1067.233,845.500 1085.289 C 843.575 1092.047,842.000 1098.122,842.000 1098.789 C 842.000 1099.455,901.690 1100.000,974.644 1100.000 C 1124.322 1100.000,1119.672 1100.433,1135.053 1085.053 C 1148.627 1071.478,1150.008 1064.629,1149.951 1011.144 C 1149.924 985.765,1148.969 960.950,1147.829 956.000 C 1138.436 915.215,1094.857 876.203,1026.000 846.938 C 986.127 829.991,925.096 813.683,873.000 806.054 C 843.487 801.732,786.361 799.446,764.130 801.697 " fill="#1D1E23" stroke="none" fill-rule="evenodd"></path></svg>