<svg width="1200" height="1200" viewBox="0 0 1200 1200" fill="none" xmlns="http://www.w3.org/2000/svg"><path d="M582.171 253.434 C 577.315 255.149,569.581 260.314,564.983 264.911 C 549.598 280.297,550.000 276.100,550.000 421.356 L 550.000 550.000 421.356 550.000 C 276.146 550.000,280.291 549.604,264.947 564.947 C 245.384 584.511,245.384 615.489,264.947 635.053 C 280.291 650.396,276.146 650.000,421.356 650.000 L 550.000 650.000 550.000 778.644 C 550.000 923.854,549.604 919.709,564.947 935.053 C 584.511 954.616,615.489 954.616,635.053 935.053 C 650.396 919.709,650.000 923.854,650.000 778.644 L 650.000 650.000 778.644 650.000 C 923.854 650.000,919.709 650.396,935.053 635.053 C 954.616 615.489,954.616 584.511,935.053 564.947 C 919.709 549.604,923.854 550.000,778.644 550.000 L 650.000 550.000 650.000 421.356 C 650.000 276.146,650.396 280.291,635.053 264.947 C 621.176 251.071,601.185 246.718,582.171 253.434 " fill="#1D1E23" stroke="none" fill-rule="evenodd"></path></svg>