<svg width="1200" height="1200" viewBox="0 0 1200 1200" fill="none" xmlns="http://www.w3.org/2000/svg"><path d="M950.000 150.000 L 950.000 200.000 900.000 200.000 L 850.000 200.000 850.000 250.000 L 850.000 300.000 900.000 300.000 L 950.000 300.000 950.000 350.000 L 950.000 400.000 1000.000 400.000 L 1050.000 400.000 1050.000 350.000 L 1050.000 300.000 1100.000 300.000 L 1150.000 300.000 1150.000 250.000 L 1150.000 200.000 1100.000 200.000 L 1050.000 200.000 1050.000 150.000 L 1050.000 100.000 1000.000 100.000 L 950.000 100.000 950.000 150.000 M381.000 401.113 C 378.800 401.623,372.090 403.036,366.089 404.255 C 341.774 409.193,312.737 425.526,293.386 445.150 C 250.799 488.340,238.600 550.828,261.683 607.549 C 276.054 642.864,307.136 673.946,342.451 688.317 C 426.583 722.555,519.320 676.876,544.312 588.887 C 550.651 566.570,550.651 533.430,544.312 511.113 C 536.654 484.149,525.568 465.420,505.080 444.830 C 489.865 429.539,483.989 425.169,468.000 417.258 C 457.550 412.088,444.050 406.512,438.000 404.867 C 427.033 401.886,388.595 399.354,381.000 401.113 M781.000 401.113 C 778.800 401.623,772.090 403.036,766.089 404.255 C 741.774 409.193,712.737 425.526,693.386 445.150 C 650.799 488.340,638.600 550.828,661.683 607.549 C 676.054 642.864,707.136 673.946,742.451 688.317 C 826.583 722.555,919.320 676.876,944.312 588.887 C 950.651 566.570,950.651 533.430,944.312 511.113 C 936.654 484.149,925.568 465.420,905.080 444.830 C 889.865 429.539,883.989 425.169,868.000 417.258 C 857.550 412.088,844.050 406.512,838.000 404.867 C 827.033 401.886,788.595 399.354,781.000 401.113 M358.576 802.044 C 298.198 807.912,228.518 824.621,178.328 845.265 C 106.824 874.677,61.798 914.199,52.171 956.000 C 50.965 961.236,50.077 993.233,50.049 1032.500 L 50.000 1100.000 400.000 1100.000 L 750.000 1100.000 749.951 1032.500 C 749.923 993.233,749.035 961.236,747.829 956.000 C 738.436 915.215,694.857 876.203,626.000 846.938 C 586.127 829.991,525.096 813.683,473.000 806.054 C 440.829 801.343,385.673 799.410,358.576 802.044 M764.248 801.697 L 751.495 803.000 761.248 809.967 C 788.697 829.577,821.877 870.502,834.301 900.073 C 848.086 932.883,848.630 937.257,849.518 1022.500 L 850.326 1100.000 1000.163 1100.000 L 1150.000 1100.000 1149.951 1032.500 C 1149.923 993.233,1149.035 961.236,1147.829 956.000 C 1138.436 915.215,1094.857 876.203,1026.000 846.938 C 986.127 829.991,925.096 813.683,873.000 806.054 C 843.505 801.735,786.304 799.443,764.248 801.697 " fill="#1D1E23" stroke="none" fill-rule="evenodd"></path></svg>