<svg width="1200" height="1200" viewBox="0 0 1200 1200" fill="none" xmlns="http://www.w3.org/2000/svg"><path d="M524.000 143.000 C 524.000 208.871,523.932 210.000,519.963 210.000 C 517.743 210.000,505.818 213.253,493.463 217.228 C 364.009 258.884,270.641 370.747,253.000 505.323 C 250.547 524.030,250.000 557.656,250.000 689.617 L 250.000 851.030 200.000 901.000 L 150.000 950.970 150.000 975.485 L 150.000 1000.000 600.000 1000.000 L 1050.000 1000.000 1050.000 974.485 L 1050.000 948.970 1000.000 899.000 L 950.000 849.030 950.000 688.617 C 950.000 557.544,949.451 524.020,947.000 505.323 C 929.359 370.747,835.991 258.884,706.537 217.228 C 694.182 213.253,682.257 210.000,680.037 210.000 C 676.068 210.000,676.000 208.871,676.000 143.000 L 676.000 76.000 600.000 76.000 L 524.000 76.000 524.000 143.000 M650.000 475.000 L 650.000 550.000 725.000 550.000 L 800.000 550.000 800.000 600.000 L 800.000 650.000 725.000 650.000 L 650.000 650.000 650.000 725.000 L 650.000 800.000 600.000 800.000 L 550.000 800.000 550.000 725.000 L 550.000 650.000 475.000 650.000 L 400.000 650.000 400.000 600.000 L 400.000 550.000 475.000 550.000 L 550.000 550.000 550.000 475.000 L 550.000 400.000 600.000 400.000 L 650.000 400.000 650.000 475.000 M500.870 1060.441 C 505.501 1095.351,526.884 1125.732,556.719 1139.792 C 619.561 1169.407,689.872 1130.230,699.130 1060.441 L 700.515 1050.000 600.000 1050.000 L 499.485 1050.000 500.870 1060.441 " fill="#1D1E23" stroke="none" fill-rule="evenodd"></path></svg>