<svg width="1200" height="1200" viewBox="0 0 1200 1200" fill="none" xmlns="http://www.w3.org/2000/svg"><path d="M727.000 201.208 C 642.372 213.748,578.822 268.918,556.592 349.147 C 551.681 366.870,551.091 372.326,551.091 400.000 C 551.091 427.564,551.692 433.167,556.510 450.545 C 576.304 521.937,628.063 573.696,699.455 593.490 C 716.833 598.308,722.436 598.909,750.000 598.909 C 777.674 598.909,783.130 598.319,800.853 593.408 C 862.807 576.241,912.606 532.162,935.756 474.000 C 970.018 387.920,939.479 287.257,863.435 235.617 C 845.841 223.668,817.156 210.706,797.913 206.007 C 781.485 201.996,740.431 199.218,727.000 201.208 M232.171 353.434 C 220.364 357.604,207.459 370.822,203.312 382.991 C 200.553 391.089,200.000 401.671,200.000 446.356 L 200.000 500.000 146.356 500.000 C 84.602 500.000,78.836 501.059,64.947 514.947 C 45.384 534.511,45.384 565.489,64.947 585.053 C 78.836 598.941,84.602 600.000,146.356 600.000 L 200.000 600.000 200.000 653.644 C 200.000 698.329,200.553 708.911,203.312 717.009 C 209.598 735.455,230.181 750.000,250.000 750.000 C 269.819 750.000,290.402 735.455,296.688 717.009 C 299.447 708.911,300.000 698.329,300.000 653.644 L 300.000 600.000 353.644 600.000 C 415.398 600.000,421.164 598.941,435.053 585.053 C 454.616 565.489,454.616 534.511,435.053 514.947 C 421.164 501.059,415.398 500.000,353.644 500.000 L 300.000 500.000 300.000 446.356 C 300.000 384.602,298.941 378.836,285.053 364.947 C 271.176 351.071,251.185 346.718,232.171 353.434 M706.000 702.213 C 642.020 707.813,561.637 726.044,507.472 747.240 C 454.507 767.965,415.974 791.331,387.957 819.711 C 356.535 851.540,350.000 869.334,350.000 923.064 C 350.000 963.457,352.112 972.218,364.947 985.053 C 381.149 1001.254,348.842 1000.000,750.000 1000.000 C 1151.259 1000.000,1118.843 1001.262,1135.098 985.007 C 1148.690 971.415,1150.511 962.919,1149.578 917.433 C 1148.844 881.611,1148.431 878.086,1143.503 865.550 C 1118.160 801.072,1023.719 745.983,889.000 717.093 C 818.417 701.957,761.653 697.342,706.000 702.213 " fill="#1D1E23" stroke="none" fill-rule="evenodd"></path></svg>