<svg width="1200" height="1200" viewBox="0 0 1200 1200" fill="none" xmlns="http://www.w3.org/2000/svg"><path d="M727.000 201.208 C 642.372 213.748,578.822 268.918,556.592 349.147 C 551.681 366.870,551.091 372.326,551.091 400.000 C 551.091 427.564,551.692 433.167,556.510 450.545 C 576.304 521.937,628.063 573.696,699.455 593.490 C 716.833 598.308,722.436 598.909,750.000 598.909 C 777.674 598.909,783.130 598.319,800.853 593.408 C 862.807 576.241,912.606 532.162,935.756 474.000 C 970.018 387.920,939.479 287.257,863.435 235.617 C 845.841 223.668,817.156 210.706,797.913 206.007 C 781.485 201.996,740.431 199.218,727.000 201.208 M200.000 425.000 L 200.000 500.000 125.000 500.000 L 50.000 500.000 50.000 550.000 L 50.000 600.000 125.000 600.000 L 200.000 600.000 200.000 675.000 L 200.000 750.000 250.000 750.000 L 300.000 750.000 300.000 675.000 L 300.000 600.000 375.000 600.000 L 450.000 600.000 450.000 550.000 L 450.000 500.000 375.000 500.000 L 300.000 500.000 300.000 425.000 L 300.000 350.000 250.000 350.000 L 200.000 350.000 200.000 425.000 M706.000 702.213 C 642.020 707.813,561.637 726.044,507.472 747.240 C 479.679 758.115,447.249 774.393,426.000 788.135 C 400.663 804.519,371.303 834.101,362.544 852.069 C 350.995 875.762,350.000 883.087,350.000 944.420 L 350.000 1000.000 750.132 1000.000 L 1150.264 1000.000 1149.595 939.500 C 1148.929 879.317,1148.898 878.930,1143.571 865.550 C 1117.821 800.866,1023.702 745.979,889.000 717.093 C 818.417 701.957,761.653 697.342,706.000 702.213 " fill="#1D1E23" stroke="none" fill-rule="evenodd"></path></svg>