<svg width="1200" height="1200" viewBox="0 0 1200 1200" fill="none" xmlns="http://www.w3.org/2000/svg"><path d="M556.000 101.964 C 416.854 115.864,295.231 181.195,209.663 288.000 C 73.683 457.729,63.352 695.839,184.124 876.644 C 320.097 1080.207,579.558 1155.722,802.848 1056.720 C 826.359 1046.296,830.000 1043.429,830.000 1035.340 C 830.000 1030.239,825.446 1024.709,800.707 999.771 C 784.595 983.530,768.991 969.239,766.031 968.013 C 761.488 966.131,758.256 966.734,745.306 971.879 C 594.412 1031.820,422.420 993.308,309.703 874.339 C 185.959 743.732,164.997 545.854,258.647 392.374 C 291.918 337.848,340.714 289.589,396.229 256.309 C 515.580 184.760,673.465 181.967,791.000 249.326 C 799.800 254.369,809.539 258.534,812.642 258.581 C 817.291 258.652,823.543 253.416,848.165 228.835 C 864.600 212.428,878.547 197.428,879.158 195.502 C 881.375 188.518,877.438 183.895,860.187 173.224 C 802.410 137.484,732.198 112.962,662.000 104.004 C 638.994 101.068,576.922 99.874,556.000 101.964 M1010.000 214.016 C 1003.082 217.201,946.523 272.617,765.538 453.539 L 530.076 688.918 473.538 632.803 C 441.181 600.688,413.952 575.293,409.873 573.427 C 392.336 565.404,373.610 567.380,357.761 578.929 C 341.057 591.099,334.272 613.526,341.016 634.281 C 344.251 644.237,349.907 650.430,420.520 721.330 C 503.300 804.445,508.172 808.417,527.800 808.788 C 551.171 809.230,533.871 825.190,815.358 543.523 L 1073.716 285.000 1077.156 273.000 C 1083.476 250.953,1074.978 229.340,1055.177 217.098 C 1042.259 209.112,1023.441 207.828,1010.000 214.016 M983.181 603.147 C 971.791 607.320,962.844 614.851,956.545 625.568 L 951.000 635.000 950.387 692.500 L 949.775 750.000 896.139 750.000 C 838.203 750.000,832.096 750.876,818.682 761.107 C 815.056 763.873,809.594 770.380,806.545 775.568 C 801.816 783.611,801.000 787.209,801.000 800.000 C 801.000 812.791,801.816 816.389,806.545 824.432 C 809.594 829.620,815.056 836.127,818.682 838.893 C 832.100 849.127,838.194 850.000,896.251 850.000 L 950.000 850.000 950.011 903.500 C 950.018 934.183,950.905 960.177,952.091 964.449 C 955.148 975.457,965.751 988.120,976.574 993.690 C 996.581 1003.986,1019.488 1000.618,1035.007 985.098 C 1048.947 971.158,1050.000 965.440,1050.000 903.644 L 1050.000 850.000 1103.644 850.000 C 1165.398 850.000,1171.164 848.941,1185.053 835.053 C 1204.616 815.489,1204.616 784.511,1185.053 764.947 C 1171.164 751.059,1165.398 750.000,1103.644 750.000 L 1050.000 750.000 1050.000 696.356 C 1050.000 634.602,1048.941 628.836,1035.053 614.947 C 1021.434 601.329,1000.896 596.656,983.181 603.147 " fill="#1D1E23" stroke="none" fill-rule="evenodd"></path></svg>