<svg width="1200" height="1200" viewBox="0 0 1200 1200" fill="none" xmlns="http://www.w3.org/2000/svg"><path d="M236.804 151.901 C 194.159 158.541,161.401 189.064,152.837 230.139 C 150.396 241.846,150.255 248.783,152.038 269.669 C 173.301 518.869,298.717 741.593,500.621 888.711 C 564.867 935.525,644.964 977.239,720.841 1003.400 C 797.618 1029.872,882.295 1046.402,943.127 1046.793 L 975.253 1047.000 992.394 1038.518 C 1019.162 1025.273,1036.045 1004.985,1045.324 974.915 C 1048.534 964.511,1049.000 955.644,1049.000 905.000 C 1049.000 843.330,1048.043 835.685,1037.809 815.626 C 1027.316 795.058,997.183 771.697,974.000 766.158 C 969.050 764.976,932.600 760.321,893.000 755.814 C 810.706 746.448,804.655 746.626,778.035 759.184 C 764.243 765.691,758.993 770.302,711.035 818.028 L 659.000 869.811 648.000 863.656 C 581.921 826.681,538.587 795.784,489.583 750.702 C 430.742 696.571,381.627 633.555,340.794 559.804 L 329.592 539.571 382.547 486.286 C 411.672 456.978,437.062 429.928,438.970 426.174 C 445.083 414.147,449.900 397.912,451.102 385.285 C 452.478 370.833,437.757 239.486,432.802 222.000 C 424.398 192.342,398.156 165.595,367.496 155.438 C 356.286 151.725,349.443 151.248,301.000 150.806 C 271.300 150.536,242.412 151.028,236.804 151.901 M832.171 153.434 C 820.364 157.604,807.459 170.822,803.312 182.991 C 800.553 191.089,800.000 201.671,800.000 246.356 L 800.000 300.000 746.356 300.000 C 684.602 300.000,678.836 301.059,664.947 314.947 C 645.384 334.511,645.384 365.489,664.947 385.053 C 678.836 398.941,684.602 400.000,746.356 400.000 L 800.000 400.000 800.000 453.644 C 800.000 498.329,800.553 508.911,803.312 517.009 C 809.598 535.455,830.181 550.000,850.000 550.000 C 869.819 550.000,890.402 535.455,896.688 517.009 C 899.447 508.911,900.000 498.329,900.000 453.644 L 900.000 400.000 953.644 400.000 C 1015.398 400.000,1021.164 398.941,1035.053 385.053 C 1054.616 365.489,1054.616 334.511,1035.053 314.947 C 1021.164 301.059,1015.398 300.000,953.644 300.000 L 900.000 300.000 900.000 246.356 C 900.000 184.602,898.941 178.836,885.053 164.947 C 871.176 151.071,851.185 146.718,832.171 153.434 " fill="#1D1E23" stroke="none" fill-rule="evenodd"></path></svg>