<svg width="1200" height="1200" viewBox="0 0 1200 1200" fill="none" xmlns="http://www.w3.org/2000/svg"><path d="M556.000 101.962 C 416.815 115.884,295.232 181.194,209.663 288.000 C 73.683 457.729,63.352 695.839,184.124 876.644 C 338.485 1107.735,647.309 1169.297,878.000 1014.964 C 1107.746 861.264,1168.863 552.043,1014.964 322.000 C 936.423 204.599,815.946 128.109,674.644 105.934 C 645.457 101.354,582.987 99.262,556.000 101.962 M617.009 353.312 C 622.825 355.294,630.145 360.040,635.233 365.127 C 649.515 379.410,650.000 382.930,650.000 472.299 L 650.000 549.871 731.558 550.436 L 813.115 551.000 823.039 556.109 C 858.085 574.152,858.085 625.848,823.039 643.891 L 813.115 649.000 731.558 649.564 L 650.000 650.129 650.000 727.701 C 650.000 817.070,649.515 820.590,635.233 834.873 C 615.483 854.622,584.596 854.701,564.947 835.053 C 550.325 820.430,550.000 818.118,550.000 728.644 L 550.000 650.000 471.356 650.000 C 381.882 650.000,379.570 649.675,364.947 635.053 C 345.384 615.489,345.384 584.511,364.947 564.947 C 379.570 550.325,381.882 550.000,471.356 550.000 L 550.000 550.000 550.000 471.356 C 550.000 381.845,550.319 379.575,564.983 364.911 C 578.874 351.021,597.860 346.788,617.009 353.312 " fill="#1D1E23" stroke="none" fill-rule="evenodd"></path></svg>