<svg width="1200" height="1200" viewBox="0 0 1200 1200" fill="none" xmlns="http://www.w3.org/2000/svg"><path d="M782.171 153.434 C 777.315 155.149,769.581 160.314,764.983 164.911 C 749.836 180.058,750.000 178.583,750.000 300.000 C 750.000 421.375,749.842 419.947,764.947 435.053 C 784.511 454.616,815.489 454.616,835.053 435.053 C 847.421 422.684,850.000 412.952,850.000 378.644 L 850.000 350.000 928.644 350.000 C 1018.118 350.000,1020.430 349.675,1035.053 335.053 C 1054.616 315.489,1054.616 284.511,1035.053 264.947 C 1020.430 250.325,1018.118 250.000,928.644 250.000 L 850.000 250.000 850.000 221.356 C 850.000 187.048,847.421 177.316,835.053 164.947 C 821.176 151.071,801.185 146.718,782.171 153.434 M182.171 253.434 C 164.528 259.666,150.000 280.694,150.000 300.000 C 150.000 312.080,155.967 326.072,164.947 335.053 C 180.860 350.966,164.294 350.000,421.356 350.000 L 650.000 350.000 650.000 300.000 L 650.000 250.000 420.500 250.158 C 218.004 250.297,189.961 250.683,182.171 253.434 M382.171 453.434 C 377.315 455.149,369.581 460.314,364.983 464.911 C 352.575 477.320,350.000 487.021,350.000 521.356 L 350.000 550.000 271.356 550.000 C 181.882 550.000,179.570 550.325,164.947 564.947 C 145.384 584.511,145.384 615.489,164.947 635.053 C 179.570 649.675,181.882 650.000,271.356 650.000 L 350.000 650.000 350.000 678.644 C 350.000 712.952,352.579 722.684,364.947 735.053 C 384.511 754.616,415.489 754.616,435.053 735.053 C 450.158 719.947,450.000 721.375,450.000 600.000 C 450.000 478.625,450.158 480.053,435.053 464.947 C 421.176 451.071,401.185 446.718,382.171 453.434 M550.000 600.000 L 550.000 650.000 778.644 650.000 C 1035.706 650.000,1019.140 650.966,1035.053 635.053 C 1054.616 615.489,1054.616 584.511,1035.053 564.947 C 1019.140 549.034,1035.706 550.000,778.644 550.000 L 550.000 550.000 550.000 600.000 M582.171 753.434 C 577.315 755.149,569.581 760.314,564.983 764.911 C 549.836 780.058,550.000 778.583,550.000 900.000 C 550.000 1021.375,549.842 1019.947,564.947 1035.053 C 584.511 1054.616,615.489 1054.616,635.053 1035.053 C 647.421 1022.684,650.000 1012.952,650.000 978.644 L 650.000 950.000 828.644 950.000 C 1029.747 950.000,1019.353 950.753,1035.053 935.053 C 1054.616 915.489,1054.616 884.511,1035.053 864.947 C 1019.353 849.247,1029.747 850.000,828.644 850.000 L 650.000 850.000 650.000 821.356 C 650.000 787.048,647.421 777.316,635.053 764.947 C 621.176 751.071,601.185 746.718,582.171 753.434 M182.171 853.434 C 164.528 859.666,150.000 880.694,150.000 900.000 C 150.000 912.080,155.967 926.072,164.947 935.053 C 180.291 950.396,176.146 950.000,321.356 950.000 L 450.000 950.000 450.000 900.000 L 450.000 850.000 320.500 850.158 C 208.589 850.294,189.801 850.739,182.171 853.434 " fill="#1D1E23" stroke="none" fill-rule="evenodd"></path></svg>