<svg width="1200" height="1200" viewBox="0 0 1200 1200" fill="none" xmlns="http://www.w3.org/2000/svg"><path d="M750.000 300.000 L 750.000 450.000 800.000 450.000 L 850.000 450.000 850.000 400.000 L 850.000 350.000 950.000 350.000 L 1050.000 350.000 1050.000 300.000 L 1050.000 250.000 950.000 250.000 L 850.000 250.000 850.000 200.000 L 850.000 150.000 800.000 150.000 L 750.000 150.000 750.000 300.000 M150.000 300.000 L 150.000 350.000 400.000 350.000 L 650.000 350.000 650.000 300.000 L 650.000 250.000 400.000 250.000 L 150.000 250.000 150.000 300.000 M350.000 500.000 L 350.000 550.000 250.000 550.000 L 150.000 550.000 150.000 600.000 L 150.000 650.000 250.000 650.000 L 350.000 650.000 350.000 700.000 L 350.000 750.000 400.000 750.000 L 450.000 750.000 450.000 600.000 L 450.000 450.000 400.000 450.000 L 350.000 450.000 350.000 500.000 M550.000 600.000 L 550.000 650.000 800.000 650.000 L 1050.000 650.000 1050.000 600.000 L 1050.000 550.000 800.000 550.000 L 550.000 550.000 550.000 600.000 M550.000 900.000 L 550.000 1050.000 600.000 1050.000 L 650.000 1050.000 650.000 1000.000 L 650.000 950.000 850.000 950.000 L 1050.000 950.000 1050.000 900.000 L 1050.000 850.000 850.000 850.000 L 650.000 850.000 650.000 800.000 L 650.000 750.000 600.000 750.000 L 550.000 750.000 550.000 900.000 M150.000 900.000 L 150.000 950.000 300.000 950.000 L 450.000 950.000 450.000 900.000 L 450.000 850.000 300.000 850.000 L 150.000 850.000 150.000 900.000 " fill="#1D1E23" stroke="none" fill-rule="evenodd"></path></svg>