<svg width="1200" height="1200" viewBox="0 0 1200 1200" fill="none" xmlns="http://www.w3.org/2000/svg"><path d="M305.795 116.500 C 300.909 118.975,260.319 151.382,215.595 188.516 C 141.472 250.059,133.811 256.987,128.996 266.828 C 116.825 291.706,125.759 319.613,150.143 332.885 C 163.337 340.066,178.431 340.676,192.169 334.584 C 200.845 330.736,353.296 206.027,363.674 194.288 C 385.114 170.036,377.976 131.316,349.445 117.098 C 335.837 110.317,318.470 110.079,305.795 116.500 M853.000 115.735 C 826.248 127.930,815.940 156.485,828.801 182.772 C 833.820 193.031,840.708 199.280,917.431 263.179 C 963.184 301.285,1003.818 333.799,1007.728 335.433 C 1018.298 339.850,1035.345 339.530,1046.022 334.716 C 1072.653 322.708,1083.707 292.252,1070.822 266.394 C 1066.209 257.138,1056.761 248.626,984.360 188.501 C 939.655 151.376,899.082 118.975,894.200 116.500 C 882.965 110.805,864.563 110.464,853.000 115.735 M567.000 201.205 C 501.043 208.015,454.091 220.834,402.808 246.036 C 263.740 314.376,170.977 445.651,152.969 599.598 C 131.010 787.314,231.572 970.142,403.000 1054.170 C 559.156 1130.712,745.189 1109.908,881.549 1000.655 C 962.659 935.669,1020.151 841.505,1040.692 740.000 C 1091.874 487.085,921.329 243.600,666.000 205.058 C 645.574 201.975,583.097 199.543,567.000 201.205 M656.000 304.745 C 797.331 328.443,910.064 434.403,940.874 572.503 C 972.814 715.667,913.825 862.101,791.884 942.354 C 637.738 1043.801,432.130 1007.814,320.304 859.814 C 285.891 814.269,263.197 760.114,253.750 701.000 C 250.454 680.372,250.454 619.628,253.750 599.000 C 274.084 471.755,356.864 368.904,475.964 322.907 C 503.450 312.292,531.169 306.021,572.000 301.180 C 585.215 299.613,639.008 301.896,656.000 304.745 M571.000 403.650 C 561.449 408.169,557.200 412.639,553.076 422.509 C 550.420 428.867,550.000 446.878,550.000 554.579 C 550.000 693.800,549.783 691.413,563.748 705.851 C 571.088 713.439,749.508 821.772,764.117 827.510 C 776.516 832.381,789.094 829.433,799.251 819.275 C 814.438 804.088,815.158 783.136,800.972 769.232 C 797.475 765.804,756.709 740.558,710.381 713.130 L 626.149 663.260 625.574 545.130 C 625.020 431.146,624.860 426.762,621.000 420.212 C 618.800 416.479,613.611 410.685,609.469 407.337 C 599.713 399.452,583.217 397.871,571.000 403.650 " fill="#1D1E23" stroke="none" fill-rule="evenodd"></path></svg>