<svg width="1200" height="1200" viewBox="0 0 1200 1200" fill="none" xmlns="http://www.w3.org/2000/svg"><path d="M218.619 185.763 C 155.709 238.143,104.184 281.701,104.119 282.558 C 103.948 284.793,165.521 358.165,167.419 357.988 C 169.896 357.758,395.717 169.213,395.867 167.250 C 395.965 165.960,342.518 100.564,334.173 91.763 C 333.528 91.083,281.528 133.383,218.619 185.763 M834.500 128.884 C 817.725 149.058,804.053 166.336,804.117 167.281 C 804.217 168.762,1028.840 356.994,1032.256 358.461 C 1033.845 359.143,1096.040 285.155,1095.886 282.767 C 1095.742 280.545,870.509 93.143,867.333 92.603 C 866.050 92.385,851.275 108.711,834.500 128.884 M567.000 201.205 C 501.166 208.002,454.524 220.739,402.880 246.025 C 311.777 290.631,240.486 361.896,195.830 453.000 C 119.288 609.156,140.092 795.189,249.345 931.549 C 278.203 967.568,315.998 1001.740,356.000 1027.981 C 396.457 1054.521,456.300 1079.430,504.610 1089.838 C 707.081 1133.459,912.766 1033.475,1004.170 847.000 C 1080.712 690.844,1059.908 504.811,950.655 368.451 C 880.381 280.741,777.978 221.961,666.000 205.058 C 645.574 201.975,583.097 199.543,567.000 201.205 M656.000 304.745 C 779.930 325.526,881.782 408.640,927.093 525.964 C 942.308 565.360,948.807 602.485,948.807 650.000 C 948.807 687.139,946.756 704.767,938.689 736.982 C 896.304 906.249,728.645 1020.110,555.690 997.085 C 399.528 976.296,278.829 857.937,253.750 701.000 C 250.454 680.372,250.454 619.628,253.750 599.000 C 274.043 472.013,357.105 368.811,475.964 322.907 C 503.450 312.292,531.169 306.021,572.000 301.180 C 585.215 299.613,639.008 301.896,656.000 304.745 M550.487 550.393 L 551.000 700.786 668.913 771.549 C 778.804 837.498,787.011 842.063,789.547 838.656 C 793.290 833.630,824.000 782.639,824.000 781.452 C 824.000 780.925,779.450 754.099,725.000 721.839 L 626.000 663.183 626.000 531.592 L 626.000 400.000 587.987 400.000 L 549.975 400.000 550.487 550.393 " fill="#1D1E23" stroke="none" fill-rule="evenodd"></path></svg>