<svg width="1200" height="1200" viewBox="0 0 1200 1200" fill="none" xmlns="http://www.w3.org/2000/svg"><path d="M524.000 180.063 C 524.000 221.605,523.421 234.288,521.500 234.829 C 435.369 259.052,375.081 308.017,336.396 385.169 C 320.088 417.692,306.551 465.566,302.111 506.421 C 300.838 518.129,300.000 580.492,300.000 663.436 L 300.000 801.030 250.000 851.000 L 200.000 900.970 200.000 925.485 L 200.000 950.000 600.000 950.000 L 1000.000 950.000 1000.000 924.485 L 1000.000 898.970 950.000 849.000 L 900.000 799.030 900.000 661.698 C 900.000 547.608,899.460 520.190,896.808 499.683 C 881.463 381.005,818.948 291.585,722.147 249.851 C 712.019 245.485,697.718 240.265,690.367 238.252 L 677.000 234.591 676.468 180.296 L 675.936 126.000 599.968 126.000 L 524.000 126.000 524.000 180.063 M500.760 1011.150 C 505.731 1053.444,538.234 1089.164,579.598 1097.790 C 636.678 1109.693,692.401 1069.341,699.240 1011.150 L 700.551 1000.000 600.000 1000.000 L 499.449 1000.000 500.760 1011.150 " fill="#1D1E23" stroke="none" fill-rule="evenodd"></path></svg>