<svg width="1200" height="1200" viewBox="0 0 1200 1200" fill="none" xmlns="http://www.w3.org/2000/svg"><path d="M574.672 129.700 C 555.096 136.465,537.448 153.979,529.639 174.393 C 526.699 182.080,525.282 191.794,524.492 209.677 C 523.812 225.078,522.575 234.576,521.201 234.943 C 424.960 260.672,354.314 326.569,321.304 421.402 C 312.714 446.083,304.914 480.634,302.111 506.421 C 300.838 518.129,300.000 580.494,300.000 663.443 L 300.000 801.043 264.860 836.021 C 245.533 855.260,227.834 874.600,225.528 879.000 C 216.450 896.324,221.425 921.480,236.903 936.511 C 251.811 950.990,225.178 950.000,599.624 950.000 C 860.286 950.000,938.399 949.444,944.768 947.542 C 957.757 943.664,972.896 927.635,976.991 913.426 C 984.152 888.579,978.875 878.648,934.731 833.895 L 900.000 798.685 900.000 661.526 C 900.000 547.593,899.460 520.187,896.808 499.683 C 881.463 381.005,818.948 291.585,722.147 249.851 C 712.019 245.485,697.718 240.267,690.367 238.257 L 677.000 234.600 675.688 209.800 C 674.216 181.972,670.505 169.260,659.769 155.275 C 644.736 135.693,625.127 126.131,600.000 126.131 C 590.795 126.131,581.010 127.510,574.672 129.700 M500.760 1011.150 C 505.731 1053.444,538.234 1089.164,579.598 1097.790 C 636.678 1109.693,692.401 1069.341,699.240 1011.150 L 700.551 1000.000 600.000 1000.000 L 499.449 1000.000 500.760 1011.150 " fill="#1D1E23" stroke="none" fill-rule="evenodd"></path></svg>