<svg width="1200" height="1200" viewBox="0 0 1200 1200" fill="none" xmlns="http://www.w3.org/2000/svg"><path d="M524.000 180.063 C 524.000 221.605,523.421 234.288,521.500 234.829 C 435.369 259.052,375.081 308.017,336.396 385.169 C 320.088 417.692,306.551 465.566,302.111 506.421 C 300.838 518.129,300.000 580.492,300.000 663.436 L 300.000 801.030 250.000 851.000 L 200.000 900.970 200.000 925.485 L 200.000 950.000 600.000 950.000 L 1000.000 950.000 1000.000 924.485 L 1000.000 898.970 950.000 849.000 L 900.000 799.030 900.000 661.698 C 900.000 547.608,899.460 520.190,896.808 499.683 C 881.463 381.005,818.948 291.585,722.147 249.851 C 712.019 245.485,697.718 240.265,690.367 238.252 L 677.000 234.591 676.468 180.296 L 675.936 126.000 599.968 126.000 L 524.000 126.000 524.000 180.063 M290.000 146.574 C 251.284 178.971,213.933 220.910,185.422 264.000 C 154.936 310.076,125.510 380.162,113.209 436.000 C 107.879 460.196,102.000 502.926,102.000 517.475 L 102.000 526.070 151.500 525.535 L 201.000 525.000 202.553 512.000 C 213.100 423.707,237.391 360.680,286.571 294.000 C 302.815 271.977,344.912 229.335,364.500 215.064 C 371.925 209.655,378.000 204.718,378.000 204.093 C 378.000 203.469,362.025 187.071,342.500 167.653 L 307.000 132.348 290.000 146.574 M856.073 168.927 C 836.886 188.137,821.596 204.178,822.094 204.574 C 822.592 204.970,828.672 209.591,835.604 214.844 C 881.257 249.435,926.151 304.492,953.967 360.000 C 978.138 408.236,990.009 449.735,997.447 512.000 L 999.000 525.000 1048.798 525.536 L 1098.595 526.071 1097.253 506.972 C 1094.450 467.093,1081.678 408.971,1066.864 368.681 C 1057.167 342.305,1033.012 293.180,1018.835 271.000 C 987.066 221.299,950.292 179.869,904.722 142.441 C 899.070 137.799,893.660 134.000,892.701 134.000 C 891.742 134.000,875.259 149.717,856.073 168.927 M500.000 1006.580 C 500.000 1016.424,505.436 1035.395,511.539 1046.850 C 519.724 1062.214,540.605 1082.229,556.000 1089.467 C 581.188 1101.310,605.043 1103.106,629.247 1094.981 C 637.471 1092.220,646.630 1088.450,649.600 1086.602 C 677.847 1069.032,695.132 1042.502,699.186 1010.500 L 700.515 1000.000 600.258 1000.000 L 500.000 1000.000 500.000 1006.580 " fill="#1D1E23" stroke="none" fill-rule="evenodd"></path></svg>