<svg width="1200" height="1200" viewBox="0 0 1200 1200" fill="none" xmlns="http://www.w3.org/2000/svg"><path d="M575.149 129.046 C 562.256 133.952,548.171 144.016,540.938 153.488 C 529.687 168.223,525.751 181.680,524.503 209.677 C 523.817 225.069,522.574 234.576,521.201 234.943 C 424.960 260.672,354.314 326.569,321.304 421.402 C 312.714 446.083,304.914 480.634,302.111 506.421 C 300.840 518.112,300.000 580.144,300.000 662.270 L 300.000 798.698 263.319 835.849 C 230.854 868.730,226.229 874.237,223.072 883.762 C 214.260 910.349,229.910 940.975,255.882 947.968 C 261.110 949.376,373.093 949.877,603.298 949.523 L 943.000 949.000 951.000 944.683 C 973.486 932.550,984.408 903.207,974.904 880.462 C 972.984 875.866,958.176 859.348,935.904 836.958 L 900.000 800.863 900.000 662.615 C 900.000 547.685,899.462 520.204,896.808 499.683 C 881.463 381.005,818.948 291.585,722.147 249.851 C 712.019 245.485,697.718 240.267,690.367 238.257 L 677.000 234.600 675.678 209.800 C 674.002 178.383,669.815 166.349,654.986 150.332 C 639.185 133.265,626.031 127.384,602.000 126.643 C 588.742 126.235,580.627 126.961,575.149 129.046 M293.000 151.775 C 281.431 154.775,274.286 160.040,253.283 181.042 C 185.603 248.722,139.463 330.392,116.020 424.000 C 106.296 462.829,104.872 475.169,108.629 488.054 C 116.322 514.436,144.106 530.592,168.935 523.120 C 193.196 515.818,201.634 504.185,209.023 467.851 C 217.674 425.317,227.995 395.398,247.023 357.697 C 267.727 316.672,288.852 287.495,324.998 250.000 C 350.913 223.118,354.018 217.629,353.980 198.768 C 353.944 180.601,341.466 161.780,324.836 154.810 C 316.658 151.383,300.466 149.839,293.000 151.775 M881.427 152.748 C 853.506 160.538,838.114 193.426,850.063 219.762 C 852.416 224.947,863.246 238.010,876.594 251.762 C 888.999 264.543,903.694 280.850,909.249 288.000 C 950.202 340.709,977.490 400.678,990.989 467.631 C 997.029 497.591,1002.478 508.033,1016.642 516.790 C 1026.765 523.049,1041.858 525.597,1054.620 523.203 C 1064.767 521.300,1079.451 510.663,1084.879 501.283 C 1093.331 486.680,1094.518 478.274,1090.995 457.972 C 1076.506 374.461,1038.228 290.191,983.690 221.733 C 962.618 195.282,929.088 161.492,918.790 156.330 C 907.867 150.854,893.240 149.452,881.427 152.748 M500.000 1007.637 C 500.000 1036.184,525.226 1074.419,553.521 1088.757 C 612.093 1118.438,683.508 1084.498,697.061 1020.540 C 698.639 1013.093,699.946 1005.425,699.965 1003.500 C 699.998 1000.213,693.918 1000.000,600.000 1000.000 L 500.000 1000.000 500.000 1007.637 " fill="#1D1E23" stroke="none" fill-rule="evenodd"></path></svg>