<svg width="1200" height="1200" viewBox="0 0 1200 1200" fill="none" xmlns="http://www.w3.org/2000/svg"><path d="M350.000 350.000 L 350.000 550.000 221.000 550.000 L 92.000 550.000 92.000 600.000 L 92.000 650.000 221.000 650.000 L 350.000 650.000 350.000 850.000 L 350.000 1050.000 425.000 1050.000 L 500.000 1050.000 500.000 850.000 L 500.000 650.000 600.000 650.000 L 700.000 650.000 700.000 775.000 L 700.000 900.000 775.000 900.000 L 850.000 900.000 850.000 775.000 L 850.000 650.000 975.000 650.000 L 1100.000 650.000 1100.000 600.000 L 1100.000 550.000 975.000 550.000 L 850.000 550.000 850.000 425.000 L 850.000 300.000 775.000 300.000 L 700.000 300.000 700.000 425.000 L 700.000 550.000 600.000 550.000 L 500.000 550.000 500.000 350.000 L 500.000 150.000 425.000 150.000 L 350.000 150.000 350.000 350.000 " fill="#1D1E23" stroke="none" fill-rule="evenodd"></path></svg>