<svg width="1200" height="1200" viewBox="0 0 1200 1200" fill="none" xmlns="http://www.w3.org/2000/svg"><path d="M550.000 225.000 L 550.000 350.000 350.000 350.000 L 150.000 350.000 150.000 425.000 L 150.000 500.000 350.000 500.000 L 550.000 500.000 550.000 600.000 L 550.000 700.000 425.000 700.000 L 300.000 700.000 300.000 775.000 L 300.000 850.000 425.000 850.000 L 550.000 850.000 550.000 975.000 L 550.000 1100.000 600.000 1100.000 L 650.000 1100.000 650.000 975.000 L 650.000 850.000 775.000 850.000 L 900.000 850.000 900.000 775.000 L 900.000 700.000 775.000 700.000 L 650.000 700.000 650.000 600.000 L 650.000 500.000 850.000 500.000 L 1050.000 500.000 1050.000 425.000 L 1050.000 350.000 850.000 350.000 L 650.000 350.000 650.000 225.000 L 650.000 100.000 600.000 100.000 L 550.000 100.000 550.000 225.000 " fill="#1D1E23" stroke="none" fill-rule="evenodd"></path></svg>