<svg width="1200" height="1200" viewBox="0 0 1200 1200" fill="none" xmlns="http://www.w3.org/2000/svg"><path d="M1032.171 103.434 C 1020.364 107.604,1007.459 120.822,1003.312 132.991 C 1000.267 141.928,1000.000 179.602,1000.000 600.000 C 1000.000 1113.221,998.629 1068.734,1014.947 1085.053 C 1034.511 1104.616,1065.489 1104.616,1085.053 1085.053 C 1101.371 1068.734,1100.000 1113.221,1100.000 600.000 C 1100.000 86.779,1101.371 131.266,1085.053 114.947 C 1071.176 101.071,1051.185 96.718,1032.171 103.434 M157.492 352.157 C 136.230 357.209,117.148 373.081,107.189 394.000 C 101.692 405.547,101.000 409.012,101.000 425.000 C 101.000 440.988,101.692 444.453,107.189 456.000 C 115.055 472.522,127.478 484.945,144.000 492.811 L 157.000 499.000 500.000 499.000 L 843.000 499.000 856.000 492.811 C 872.522 484.945,884.945 472.522,892.811 456.000 C 898.308 444.453,899.000 440.988,899.000 425.000 C 899.000 408.982,898.316 405.569,892.783 394.000 C 884.913 377.542,872.582 365.223,856.000 357.250 L 843.000 351.000 504.000 350.687 C 311.081 350.508,161.765 351.142,157.492 352.157 M457.492 702.147 C 436.197 707.236,417.145 723.087,407.189 744.000 C 401.692 755.547,401.000 759.012,401.000 775.000 C 401.000 790.988,401.692 794.453,407.189 806.000 C 415.055 822.522,427.478 834.945,444.000 842.811 L 457.000 849.000 650.000 849.000 L 843.000 849.000 856.000 842.811 C 872.522 834.945,884.945 822.522,892.811 806.000 C 898.308 794.453,899.000 790.988,899.000 775.000 C 899.000 758.982,898.316 755.569,892.783 744.000 C 884.913 727.542,872.582 715.223,856.000 707.250 L 843.000 701.000 654.000 700.676 C 548.066 700.495,461.700 701.141,457.492 702.147 " fill="#1D1E23" stroke="none" fill-rule="evenodd"></path></svg>