<svg width="1200" height="1200" viewBox="0 0 1200 1200" fill="none" xmlns="http://www.w3.org/2000/svg"><path d="M582.171 103.434 C 577.315 105.149,569.581 110.314,564.983 114.911 C 549.886 130.009,550.000 129.009,550.000 246.303 L 550.000 349.893 378.500 350.446 L 207.000 351.000 194.000 357.189 C 177.478 365.055,165.055 377.478,157.189 394.000 C 151.692 405.547,151.000 409.012,151.000 425.000 C 151.000 440.988,151.692 444.453,157.189 456.000 C 165.055 472.522,177.478 484.945,194.000 492.811 L 207.000 499.000 378.500 499.543 L 550.000 500.087 550.000 599.954 L 550.000 699.821 453.500 700.410 L 357.000 701.000 344.000 707.189 C 327.478 715.055,315.055 727.478,307.189 744.000 C 301.692 755.547,301.000 759.012,301.000 775.000 C 301.000 790.988,301.692 794.453,307.189 806.000 C 315.055 822.522,327.478 834.945,344.000 842.811 L 357.000 849.000 453.500 849.573 L 550.000 850.146 550.000 953.717 C 550.000 1070.947,549.892 1069.997,564.947 1085.053 C 584.511 1104.616,615.489 1104.616,635.053 1085.053 C 650.108 1069.997,650.000 1070.947,650.000 953.717 L 650.000 850.146 746.500 849.573 L 843.000 849.000 856.000 842.811 C 872.522 834.945,884.945 822.522,892.811 806.000 C 898.308 794.453,899.000 790.988,899.000 775.000 C 899.000 758.982,898.316 755.569,892.783 744.000 C 884.913 727.542,872.582 715.223,856.000 707.250 L 843.000 701.000 746.500 700.410 L 650.000 699.821 650.000 599.954 L 650.000 500.087 821.500 499.543 L 993.000 499.000 1006.000 492.811 C 1022.522 484.945,1034.945 472.522,1042.811 456.000 C 1048.308 444.453,1049.000 440.988,1049.000 425.000 C 1049.000 408.982,1048.316 405.569,1042.783 394.000 C 1034.913 377.542,1022.582 365.223,1006.000 357.250 L 993.000 351.000 821.500 350.446 L 650.000 349.893 650.000 246.303 C 650.000 129.051,650.108 130.003,635.053 114.947 C 621.176 101.071,601.185 96.718,582.171 103.434 " fill="#1D1E23" stroke="none" fill-rule="evenodd"></path></svg>