<svg width="1200" height="1200" viewBox="0 0 1200 1200" fill="none" xmlns="http://www.w3.org/2000/svg"><path d="M132.171 103.434 C 114.528 109.666,100.000 130.694,100.000 150.000 C 100.000 162.080,105.967 176.072,114.947 185.053 C 131.266 201.371,86.779 200.000,600.000 200.000 C 1113.221 200.000,1068.734 201.371,1085.053 185.053 C 1104.616 165.489,1104.616 134.511,1085.053 114.947 C 1068.727 98.622,1113.377 99.981,599.144 100.158 C 189.545 100.299,140.064 100.646,132.171 103.434 M407.492 302.044 C 385.868 307.507,367.118 323.146,357.189 344.000 L 351.000 357.000 351.000 700.000 L 351.000 1043.000 357.189 1056.000 C 365.055 1072.522,377.478 1084.945,394.000 1092.811 C 405.547 1098.308,409.012 1099.000,425.000 1099.000 C 440.988 1099.000,444.453 1098.308,456.000 1092.811 C 472.522 1084.945,484.945 1072.522,492.811 1056.000 L 499.000 1043.000 499.000 700.000 L 499.000 357.000 492.783 344.000 C 480.523 318.363,457.094 302.394,429.587 300.926 C 421.564 300.498,411.621 301.001,407.492 302.044 M757.492 302.044 C 735.868 307.507,717.118 323.146,707.189 344.000 L 701.000 357.000 701.000 550.000 L 701.000 743.000 707.189 756.000 C 715.055 772.522,727.478 784.945,744.000 792.811 C 755.547 798.308,759.012 799.000,775.000 799.000 C 790.988 799.000,794.453 798.308,806.000 792.811 C 822.522 784.945,834.945 772.522,842.811 756.000 L 849.000 743.000 849.000 550.000 L 849.000 357.000 842.783 344.000 C 830.523 318.363,807.094 302.394,779.587 300.926 C 771.564 300.498,761.621 301.001,757.492 302.044 " fill="#1D1E23" stroke="none" fill-rule="evenodd"></path></svg>