<svg width="1200" height="1200" viewBox="0 0 1200 1200" fill="none" xmlns="http://www.w3.org/2000/svg"><path d="M132.171 103.434 C 120.364 107.604,107.459 120.822,103.312 132.991 C 100.267 141.928,100.000 179.602,100.000 600.000 C 100.000 1113.221,98.629 1068.734,114.947 1085.053 C 134.511 1104.616,165.489 1104.616,185.053 1085.053 C 201.371 1068.734,200.000 1113.221,200.000 600.000 C 200.000 86.779,201.371 131.266,185.053 114.947 C 171.176 101.071,151.185 96.718,132.171 103.434 M357.492 352.157 C 336.230 357.209,317.148 373.081,307.189 394.000 C 301.692 405.547,301.000 409.012,301.000 425.000 C 301.000 440.988,301.692 444.453,307.189 456.000 C 315.055 472.522,327.478 484.945,344.000 492.811 L 357.000 499.000 700.000 499.000 L 1043.000 499.000 1056.000 492.811 C 1072.522 484.945,1084.945 472.522,1092.811 456.000 C 1098.308 444.453,1099.000 440.988,1099.000 425.000 C 1099.000 408.982,1098.316 405.569,1092.783 394.000 C 1084.913 377.542,1072.582 365.223,1056.000 357.250 L 1043.000 351.000 704.000 350.687 C 511.081 350.508,361.765 351.142,357.492 352.157 M357.492 702.147 C 336.197 707.236,317.145 723.087,307.189 744.000 C 301.692 755.547,301.000 759.012,301.000 775.000 C 301.000 790.988,301.692 794.453,307.189 806.000 C 315.055 822.522,327.478 834.945,344.000 842.811 L 357.000 849.000 550.000 849.000 L 743.000 849.000 756.000 842.811 C 772.522 834.945,784.945 822.522,792.811 806.000 C 798.308 794.453,799.000 790.988,799.000 775.000 C 799.000 758.982,798.316 755.569,792.783 744.000 C 784.913 727.542,772.582 715.223,756.000 707.250 L 743.000 701.000 554.000 700.676 C 448.066 700.495,361.700 701.141,357.492 702.147 " fill="#1D1E23" stroke="none" fill-rule="evenodd"></path></svg>