<svg width="1200" height="1200" viewBox="0 0 1200 1200" fill="none" xmlns="http://www.w3.org/2000/svg"><path d="M182.171 153.434 C 164.528 159.666,150.000 180.694,150.000 200.000 C 150.000 212.080,155.967 226.072,164.947 235.053 C 181.214 251.319,142.814 250.000,600.000 250.000 C 1057.186 250.000,1018.786 251.319,1035.053 235.053 C 1054.616 215.489,1054.616 184.511,1035.053 164.947 C 1018.777 148.672,1057.342 149.981,599.144 150.158 C 234.834 150.299,190.052 150.651,182.171 153.434 M182.171 353.434 C 164.528 359.666,150.000 380.694,150.000 400.000 C 150.000 412.080,155.967 426.072,164.947 435.053 C 180.948 451.053,160.865 450.000,450.000 450.000 C 739.135 450.000,719.052 451.053,735.053 435.053 C 754.616 415.489,754.616 384.511,735.053 364.947 C 719.038 348.933,739.288 349.980,449.144 350.158 C 220.702 350.298,189.984 350.675,182.171 353.434 M182.171 553.434 C 164.528 559.666,150.000 580.694,150.000 600.000 C 150.000 612.080,155.967 626.072,164.947 635.053 C 181.214 651.319,142.814 650.000,600.000 650.000 C 1057.186 650.000,1018.786 651.319,1035.053 635.053 C 1054.616 615.489,1054.616 584.511,1035.053 564.947 C 1018.777 548.672,1057.342 549.981,599.144 550.158 C 234.834 550.299,190.052 550.651,182.171 553.434 M182.171 753.434 C 164.528 759.666,150.000 780.694,150.000 800.000 C 150.000 812.080,155.967 826.072,164.947 835.053 C 180.948 851.053,160.865 850.000,450.000 850.000 C 739.135 850.000,719.052 851.053,735.053 835.053 C 754.616 815.489,754.616 784.511,735.053 764.947 C 719.038 748.933,739.288 749.980,449.144 750.158 C 220.702 750.298,189.984 750.675,182.171 753.434 M182.171 953.434 C 164.528 959.666,150.000 980.694,150.000 1000.000 C 150.000 1012.080,155.967 1026.072,164.947 1035.053 C 181.214 1051.319,142.814 1050.000,600.000 1050.000 C 1057.186 1050.000,1018.786 1051.319,1035.053 1035.053 C 1054.616 1015.489,1054.616 984.511,1035.053 964.947 C 1018.777 948.672,1057.342 949.981,599.144 950.158 C 234.834 950.299,190.052 950.651,182.171 953.434 " fill="#1D1E23" stroke="none" fill-rule="evenodd"></path></svg>