<svg width="1200" height="1200" viewBox="0 0 1200 1200" fill="none" xmlns="http://www.w3.org/2000/svg"><path d="M407.492 102.044 C 385.868 107.507,367.118 123.146,357.189 144.000 L 351.000 157.000 351.000 500.000 L 351.000 843.000 357.189 856.000 C 365.055 872.522,377.478 884.945,394.000 892.811 C 405.547 898.308,409.012 899.000,425.000 899.000 C 440.988 899.000,444.453 898.308,456.000 892.811 C 472.522 884.945,484.945 872.522,492.811 856.000 L 499.000 843.000 499.000 500.000 L 499.000 157.000 492.783 144.000 C 480.523 118.363,457.094 102.394,429.587 100.926 C 421.564 100.498,411.621 101.001,407.492 102.044 M757.492 402.044 C 735.868 407.507,717.118 423.146,707.189 444.000 L 701.000 457.000 701.000 650.000 L 701.000 843.000 707.189 856.000 C 715.055 872.522,727.478 884.945,744.000 892.811 C 755.547 898.308,759.012 899.000,775.000 899.000 C 790.988 899.000,794.453 898.308,806.000 892.811 C 822.522 884.945,834.945 872.522,842.811 856.000 L 849.000 843.000 849.000 650.000 L 849.000 457.000 842.783 444.000 C 830.523 418.363,807.094 402.394,779.587 400.926 C 771.564 400.498,761.621 401.001,757.492 402.044 M132.171 1003.434 C 114.528 1009.666,100.000 1030.694,100.000 1050.000 C 100.000 1062.080,105.967 1076.072,114.947 1085.053 C 131.266 1101.371,86.779 1100.000,600.000 1100.000 C 1113.221 1100.000,1068.734 1101.371,1085.053 1085.053 C 1104.616 1065.489,1104.616 1034.511,1085.053 1014.947 C 1068.727 998.622,1113.377 999.981,599.144 1000.158 C 189.545 1000.299,140.064 1000.646,132.171 1003.434 " fill="#1D1E23" stroke="none" fill-rule="evenodd"></path></svg>