<svg width="1200" height="1200" viewBox="0 0 1200 1200" fill="none" xmlns="http://www.w3.org/2000/svg"><path d="M234.000 151.324 C 223.649 153.002,204.632 160.766,194.526 167.438 C 173.539 181.296,157.312 205.132,152.210 229.598 C 149.085 244.585,149.085 955.415,152.210 970.402 C 160.026 1007.883,192.117 1039.974,229.598 1047.790 C 244.585 1050.915,955.415 1050.915,970.402 1047.790 C 1007.883 1039.974,1039.974 1007.883,1047.790 970.402 C 1050.915 955.415,1050.915 244.585,1047.790 229.598 C 1040.894 196.531,1017.041 169.355,983.000 155.784 L 971.000 151.000 605.000 150.757 C 403.700 150.623,236.750 150.878,234.000 151.324 M918.185 370.650 C 933.818 378.897,940.937 400.652,933.015 415.971 C 929.158 423.430,687.329 695.533,679.176 701.586 C 670.834 707.782,653.521 712.621,645.467 711.009 C 627.013 707.314,625.886 706.412,568.973 649.784 L 512.946 594.038 419.973 687.154 C 367.476 739.731,323.661 782.008,319.329 784.262 C 305.187 791.624,287.419 788.805,276.478 777.462 C 265.688 766.275,262.967 751.152,269.098 736.436 C 272.903 727.300,474.635 524.307,487.499 516.668 C 499.095 509.782,516.710 508.235,529.487 512.979 C 537.410 515.921,548.442 525.903,595.501 572.710 L 652.001 628.908 656.790 623.954 C 659.423 621.229,710.332 564.100,769.921 497.000 C 845.631 411.747,880.730 373.645,886.447 370.500 C 896.913 364.744,907.080 364.792,918.185 370.650 " fill="#1D1E23" stroke="none" fill-rule="evenodd"></path></svg>