<svg width="1200" height="1200" viewBox="0 0 1200 1200" fill="none" xmlns="http://www.w3.org/2000/svg"><path d="M418.861 54.932 C 415.704 59.750,416.187 60.880,439.815 103.908 C 453.117 128.131,464.000 148.696,464.000 149.607 C 464.000 150.518,460.175 153.376,455.500 155.957 C 391.407 191.351,341.319 251.869,321.222 318.197 C 314.851 339.223,310.000 366.918,310.000 382.262 L 310.000 394.000 615.301 394.000 L 920.601 394.000 919.310 374.500 C 913.606 288.388,859.093 204.690,778.534 158.357 C 771.640 154.392,766.000 150.475,766.000 149.652 C 766.000 148.830,776.892 128.303,790.204 104.038 C 813.895 60.853,814.338 59.814,811.157 54.960 C 807.353 49.153,801.892 48.569,797.508 53.500 C 795.797 55.425,783.989 75.900,771.268 99.000 C 758.189 122.751,747.023 140.832,745.570 140.613 C 744.156 140.400,733.872 137.006,722.717 133.071 C 646.831 106.306,561.441 109.114,485.771 140.865 C 483.193 141.947,477.817 133.632,459.093 99.610 C 446.195 76.174,434.234 55.425,432.512 53.500 C 428.107 48.577,422.649 49.150,418.861 54.932 M490.000 237.839 C 497.216 242.811,502.383 253.718,501.218 261.519 C 498.095 282.443,473.169 290.862,458.316 276.009 C 436.982 254.674,465.164 220.723,490.000 237.839 M768.000 237.796 C 785.219 249.810,781.575 276.371,761.900 282.266 C 731.224 291.457,715.553 250.165,744.142 235.477 C 751.879 231.502,760.128 232.304,768.000 237.796 M993.248 407.145 C 968.557 415.052,951.164 434.125,946.011 458.945 C 944.579 465.843,944.068 519.112,944.454 621.109 C 945.111 794.605,943.925 783.050,963.215 803.886 C 977.973 819.826,989.649 824.862,1012.030 824.940 C 1027.285 824.994,1030.444 824.319,1042.359 818.459 C 1057.588 810.968,1066.370 801.927,1073.798 786.091 L 1079.000 775.000 1079.000 615.000 L 1079.000 455.000 1073.697 443.689 C 1059.718 413.871,1023.549 397.442,993.248 407.145 M195.594 409.465 C 181.727 414.677,168.735 424.705,161.887 435.482 C 149.563 454.877,149.850 450.237,150.452 620.177 L 151.000 775.000 156.202 786.091 C 163.627 801.921,172.409 810.966,187.629 818.459 C 199.485 824.296,202.751 825.000,217.958 825.000 C 232.141 825.000,236.845 824.130,246.000 819.811 C 260.028 813.195,273.195 800.028,279.811 786.000 L 285.000 775.000 285.000 616.000 L 285.000 457.000 280.462 447.159 C 273.501 432.065,263.621 421.422,249.668 413.984 C 238.883 408.235,234.622 407.135,221.000 406.581 C 209.295 406.104,202.475 406.879,195.594 409.465 M312.000 642.822 C 312.000 857.270,312.174 868.201,315.761 879.729 C 322.622 901.771,337.777 917.740,359.766 926.095 C 368.400 929.376,375.145 930.000,401.959 930.000 L 433.875 930.000 434.438 1014.546 L 435.000 1099.093 441.600 1112.494 C 448.904 1127.327,459.171 1137.101,475.159 1144.442 C 488.925 1150.763,514.891 1150.851,528.434 1144.622 C 542.486 1138.160,556.550 1123.955,563.241 1109.469 L 569.000 1097.000 569.601 1013.500 L 570.203 930.000 615.101 930.000 L 660.000 930.000 660.000 1005.727 C 660.000 1083.316,661.006 1096.553,668.005 1111.010 C 673.324 1121.998,686.824 1135.300,699.000 1141.550 C 713.620 1149.054,736.613 1150.042,752.985 1143.869 C 769.230 1137.743,785.704 1121.368,791.675 1105.410 C 795.849 1094.252,796.000 1091.003,796.000 1012.054 L 796.000 930.258 830.556 929.629 C 865.037 929.001,865.140 928.986,878.472 922.416 C 893.718 914.903,903.967 904.303,911.749 888.000 L 917.000 877.000 917.533 647.500 L 918.066 418.000 615.033 418.000 L 312.000 418.000 312.000 642.822 " fill="#1D1E23" stroke="none" fill-rule="evenodd"></path></svg>