<svg width="1200" height="1200" viewBox="0 0 1200 1200" fill="none" xmlns="http://www.w3.org/2000/svg"><path d="M198.107 63.342 C 121.061 147.274,72.297 249.755,55.044 364.000 C 50.449 394.425,48.937 451.682,51.875 484.000 C 63.179 608.330,111.514 717.998,196.705 812.603 L 210.755 828.205 247.200 791.800 L 283.645 755.396 269.240 739.198 C 205.152 667.130,166.350 580.532,155.950 486.356 C 152.838 458.168,154.426 394.067,158.884 368.000 C 173.907 280.146,212.694 199.955,270.696 136.836 L 283.711 122.671 247.178 86.178 L 210.644 49.684 198.107 63.342 M952.615 86.502 L 916.275 123.000 928.200 136.000 C 1040.526 258.454,1075.921 433.482,1020.038 590.139 C 1000.879 643.848,970.608 694.389,930.760 739.198 L 916.355 755.396 952.839 791.839 L 989.322 828.282 1003.357 812.641 C 1083.901 722.884,1129.711 623.942,1146.257 504.000 C 1149.699 479.052,1149.699 398.948,1146.257 374.000 C 1129.722 254.134,1082.304 151.980,1002.978 65.323 L 988.955 50.004 952.615 86.502 M341.029 213.283 C 295.225 265.650,266.228 332.004,258.086 403.081 C 247.550 495.053,278.772 593.540,341.029 664.717 L 356.526 682.434 393.165 645.835 L 429.805 609.236 422.045 600.817 C 382.856 558.302,360.000 498.692,360.000 439.000 C 360.000 379.308,382.856 319.698,422.045 277.183 L 429.805 268.764 393.165 232.165 L 356.526 195.566 341.029 213.283 M806.556 232.565 L 770.282 269.000 779.315 279.000 C 859.395 367.657,860.049 505.883,780.819 597.154 L 770.269 609.309 806.823 645.824 L 843.378 682.338 853.837 670.669 C 903.901 614.813,933.557 548.290,941.959 473.000 C 951.853 384.335,922.407 289.277,862.968 218.000 C 841.632 192.415,848.222 190.713,806.556 232.565 M571.000 304.960 C 521.324 315.895,483.281 351.646,467.737 402.000 C 464.086 413.827,463.106 421.654,463.106 439.000 C 463.106 464.204,467.444 481.591,479.461 504.556 C 487.639 520.185,508.018 543.117,521.038 551.343 L 529.993 557.000 529.996 853.500 L 530.000 1150.000 599.000 1150.000 L 668.000 1150.000 668.000 854.332 L 668.000 558.665 679.125 551.003 C 704.243 533.703,725.299 503.029,733.355 472.000 C 737.874 454.595,737.912 422.998,733.435 406.000 C 717.257 344.576,661.738 301.706,599.000 302.194 C 590.200 302.262,577.600 303.507,571.000 304.960 " fill="#1D1E23" stroke="none" fill-rule="evenodd"></path></svg>