<svg width="1200" height="1200" viewBox="0 0 1200 1200" fill="none" xmlns="http://www.w3.org/2000/svg"><path d="M199.987 51.752 C 182.865 57.358,170.688 70.697,139.505 118.000 C 97.284 182.049,67.999 259.024,55.696 338.289 C 49.252 379.806,49.252 456.194,55.696 497.711 C 68.013 577.066,97.379 654.205,139.558 718.000 C 166.972 759.463,180.416 775.446,192.680 781.156 C 212.192 790.241,229.251 786.710,246.333 770.052 C 255.510 761.104,258.307 756.774,261.032 747.307 C 266.596 727.967,262.732 712.457,247.365 692.458 C 211.428 645.689,182.933 587.870,168.285 532.000 C 156.715 487.869,155.069 473.683,155.059 418.000 C 155.050 373.719,155.639 363.790,159.532 342.633 C 172.865 270.172,199.164 209.260,242.628 150.173 C 257.971 129.315,260.969 123.360,263.008 109.693 C 266.007 89.586,252.842 65.612,233.335 55.661 C 224.615 51.212,207.693 49.229,199.987 51.752 M977.000 51.762 C 961.310 55.797,945.812 69.926,939.981 85.510 C 932.079 106.630,935.943 121.208,957.117 150.159 C 1016.822 231.796,1046.000 319.721,1046.000 418.000 C 1046.000 486.895,1032.008 549.000,1002.743 610.000 C 987.733 641.287,977.018 659.146,956.545 687.000 C 946.885 700.143,940.762 710.714,938.684 717.834 C 928.501 752.724,956.998 788.925,991.985 785.545 C 1012.666 783.547,1023.659 772.985,1057.087 723.000 C 1153.704 578.528,1176.114 397.744,1117.703 234.000 C 1102.521 191.438,1080.789 147.846,1057.383 113.000 C 1039.801 86.825,1018.347 60.914,1010.709 56.630 C 1001.970 51.728,986.064 49.432,977.000 51.762 M343.275 198.810 C 339.026 200.391,332.872 204.230,329.599 207.342 C 319.888 216.577,302.969 243.518,290.179 270.111 C 239.100 376.316,246.175 500.662,309.005 601.000 C 328.848 632.688,341.392 641.654,362.792 639.446 C 375.771 638.106,382.506 634.825,392.772 624.839 C 404.174 613.748,408.921 601.938,408.878 584.766 C 408.847 572.807,407.860 568.653,402.699 558.766 C 380.340 515.941,375.330 505.313,370.915 491.343 C 356.495 445.721,356.513 389.937,370.962 344.657 C 375.775 329.574,381.948 316.378,399.463 283.725 C 409.694 264.650,411.802 251.223,407.103 235.059 C 403.292 221.949,391.645 207.941,379.335 201.661 C 369.041 196.409,353.115 195.150,343.275 198.810 M829.987 197.869 C 807.529 204.700,790.000 228.011,790.000 251.045 C 790.000 261.493,795.043 275.047,806.563 295.558 C 819.591 318.755,826.630 336.057,833.534 361.853 C 838.108 378.941,838.670 384.872,838.759 417.000 C 838.846 448.223,838.238 455.521,834.176 472.000 C 827.945 497.282,820.059 516.922,806.692 540.441 C 792.644 565.160,789.370 575.547,790.845 590.714 C 795.165 635.150,846.330 656.209,873.841 624.875 C 903.082 591.572,929.684 528.730,940.250 468.000 C 943.626 448.596,943.640 387.529,940.274 368.000 C 933.907 331.066,921.720 293.228,906.410 262.856 C 895.611 241.435,876.124 212.143,868.281 205.543 C 858.293 197.139,842.675 194.009,829.987 197.869 M583.519 282.214 C 528.580 288.129,481.484 329.221,466.602 384.225 C 461.973 401.330,461.969 434.567,466.593 452.000 C 474.337 481.198,493.123 509.485,516.382 526.968 L 529.000 536.453 530.000 812.869 L 531.000 1089.285 537.021 1101.057 C 548.984 1124.446,565.140 1131.053,606.914 1129.641 C 628.965 1128.895,631.907 1128.331,641.740 1122.964 C 653.227 1116.695,660.021 1109.225,664.938 1097.457 C 667.637 1090.997,668.000 1057.420,668.000 814.160 L 668.000 538.192 677.308 531.788 C 742.446 486.972,756.895 394.729,708.269 334.140 C 677.580 295.900,632.127 276.981,583.519 282.214 " fill="#1D1E23" stroke="none" fill-rule="evenodd"></path></svg>