<svg width="1200" height="1200" viewBox="0 0 1200 1200" fill="none" xmlns="http://www.w3.org/2000/svg"><path d="M204.000 204.000 C 200.116 207.884,200.000 210.667,200.000 300.000 C 200.000 389.333,200.116 392.116,204.000 396.000 C 207.884 399.884,210.667 400.000,300.000 400.000 C 389.333 400.000,392.116 399.884,396.000 396.000 C 399.884 392.116,400.000 389.333,400.000 300.000 C 400.000 210.667,399.884 207.884,396.000 204.000 C 392.116 200.116,389.333 200.000,300.000 200.000 C 210.667 200.000,207.884 200.116,204.000 204.000 M504.000 204.000 C 500.116 207.884,500.000 210.667,500.000 300.000 C 500.000 389.333,500.116 392.116,504.000 396.000 C 507.884 399.884,510.667 400.000,600.000 400.000 C 689.333 400.000,692.116 399.884,696.000 396.000 C 699.884 392.116,700.000 389.333,700.000 300.000 C 700.000 210.667,699.884 207.884,696.000 204.000 C 692.116 200.116,689.333 200.000,600.000 200.000 C 510.667 200.000,507.884 200.116,504.000 204.000 M804.000 204.000 C 800.116 207.884,800.000 210.667,800.000 300.000 C 800.000 389.333,800.116 392.116,804.000 396.000 C 807.884 399.884,810.667 400.000,900.000 400.000 C 989.333 400.000,992.116 399.884,996.000 396.000 C 999.884 392.116,1000.000 389.333,1000.000 300.000 C 1000.000 210.667,999.884 207.884,996.000 204.000 C 992.116 200.116,989.333 200.000,900.000 200.000 C 810.667 200.000,807.884 200.116,804.000 204.000 M204.000 504.000 C 200.116 507.884,200.000 510.667,200.000 600.000 C 200.000 689.333,200.116 692.116,204.000 696.000 C 207.884 699.884,210.667 700.000,300.000 700.000 C 389.333 700.000,392.116 699.884,396.000 696.000 C 399.884 692.116,400.000 689.333,400.000 600.000 C 400.000 510.667,399.884 507.884,396.000 504.000 C 392.116 500.116,389.333 500.000,300.000 500.000 C 210.667 500.000,207.884 500.116,204.000 504.000 M504.000 504.000 C 500.116 507.884,500.000 510.667,500.000 600.000 C 500.000 689.333,500.116 692.116,504.000 696.000 C 507.811 699.811,510.667 700.000,564.519 700.000 L 621.038 700.000 660.519 660.482 L 700.000 620.963 700.000 564.482 C 700.000 510.667,699.811 507.811,696.000 504.000 C 692.116 500.116,689.333 500.000,600.000 500.000 C 510.667 500.000,507.884 500.116,504.000 504.000 M963.000 501.863 C 960.800 502.850,948.659 514.091,936.019 526.842 L 913.038 550.027 956.517 593.505 L 999.996 636.984 1024.498 612.482 C 1048.560 588.420,1049.000 587.818,1049.000 578.997 C 1049.000 570.039,1048.909 569.923,1014.938 535.953 C 986.331 507.346,979.765 501.745,973.938 500.979 C 970.122 500.478,965.200 500.875,963.000 501.863 M716.496 746.504 L 550.000 913.009 550.000 956.504 L 550.000 1000.000 593.504 1000.000 L 637.009 1000.000 803.994 833.006 L 970.978 666.013 928.006 623.006 C 904.372 599.353,884.575 580.000,884.013 580.000 C 883.451 580.000,808.068 654.927,716.496 746.504 M204.000 804.000 C 200.116 807.884,200.000 810.667,200.000 900.000 C 200.000 989.333,200.116 992.116,204.000 996.000 C 207.884 999.884,210.667 1000.000,300.000 1000.000 C 389.333 1000.000,392.116 999.884,396.000 996.000 C 399.884 992.116,400.000 989.333,400.000 900.000 C 400.000 810.667,399.884 807.884,396.000 804.000 C 392.116 800.116,389.333 800.000,300.000 800.000 C 210.667 800.000,207.884 800.116,204.000 804.000 " fill="#1D1E23" stroke="none" fill-rule="evenodd"></path></svg>