<svg width="1200" height="1200" viewBox="0 0 1200 1200" fill="none" xmlns="http://www.w3.org/2000/svg"><path d="M224.000 215.052 L 224.000 230.104 162.000 343.552 L 100.000 457.000 100.000 485.500 L 100.000 514.000 600.000 514.000 L 1100.000 514.000 1100.000 485.500 L 1100.000 457.000 1038.000 343.552 L 976.000 230.104 976.000 215.052 L 976.000 200.000 600.000 200.000 L 224.000 200.000 224.000 215.052 M194.000 772.000 L 194.000 1000.000 225.000 1000.000 L 256.000 1000.000 256.000 829.000 L 256.000 658.000 365.000 658.000 L 474.000 658.000 474.000 829.000 L 474.000 1000.000 740.000 1000.000 L 1006.000 1000.000 1006.000 772.000 L 1006.000 544.000 600.000 544.000 L 194.000 544.000 194.000 772.000 M944.000 772.000 L 944.000 886.000 741.000 886.000 L 538.000 886.000 538.000 772.000 L 538.000 658.000 741.000 658.000 L 944.000 658.000 944.000 772.000 " fill="#1D1E23" stroke="none" fill-rule="evenodd"></path></svg>