<svg width="1200" height="1200" viewBox="0 0 1200 1200" fill="none" xmlns="http://www.w3.org/2000/svg"><path d="M578.000 152.205 C 505.391 160.369,436.803 190.216,383.487 236.851 C 356.629 260.343,328.150 295.203,313.703 322.271 C 307.777 333.372,307.507 333.577,295.670 335.905 C 251.099 344.674,203.641 370.402,170.021 404.021 C 97.452 476.590,79.584 583.869,125.053 674.000 C 154.199 731.774,206.304 776.182,269.000 796.685 C 287.686 802.796,311.499 808.000,320.776 808.000 L 327.291 808.000 323.597 793.500 C 318.745 774.452,318.532 739.170,323.157 720.508 C 345.924 628.642,448.169 578.185,546.857 610.114 C 562.419 615.149,584.143 625.828,596.500 634.518 C 599.271 636.467,600.729 636.467,603.500 634.518 C 615.857 625.828,637.581 615.149,653.143 610.114 C 751.671 578.236,854.078 628.620,876.748 720.128 C 882.400 742.944,880.450 786.961,872.921 806.500 C 871.715 809.628,873.056 810.000,885.524 810.000 C 925.003 810.000,971.406 795.132,1008.556 770.578 C 1038.390 750.860,1069.862 712.653,1083.749 679.293 C 1095.042 652.165,1098.888 632.353,1098.947 601.000 C 1099.027 558.505,1090.312 527.036,1069.112 493.267 C 1054.868 470.580,1044.110 458.086,1026.000 443.200 C 1003.520 424.722,983.940 413.180,959.506 404.002 L 949.000 400.057 944.118 383.727 C 929.964 336.384,899.593 287.232,861.075 249.331 C 788.226 177.647,680.492 140.682,578.000 152.205 M649.511 182.019 C 743.172 191.887,828.306 242.457,878.329 317.941 C 896.710 345.677,916.156 390.477,920.983 416.205 C 922.254 422.983,922.987 423.527,936.658 427.863 C 988.866 444.421,1028.397 477.961,1051.023 524.893 C 1062.670 549.055,1065.961 562.389,1067.338 591.000 C 1069.631 638.663,1055.819 678.757,1024.346 715.808 C 1002.903 741.050,961.896 765.931,929.000 773.659 L 913.000 777.418 911.682 750.209 C 909.225 699.458,893.556 663.266,859.145 628.855 C 797.705 567.415,699.797 552.652,616.500 592.267 L 600.000 600.114 583.500 592.267 C 542.148 572.600,498.702 566.149,453.497 572.963 C 357.628 587.414,288.000 663.523,288.000 753.865 L 288.000 771.899 271.500 765.868 C 199.188 739.434,145.911 675.750,133.938 601.436 C 130.563 580.487,132.519 539.978,137.920 519.000 C 142.683 500.495,156.049 471.642,168.233 453.560 C 172.888 446.652,183.514 434.192,191.848 425.872 C 224.782 392.989,262.616 373.112,309.653 363.981 C 319.912 361.990,328.525 360.054,328.792 359.680 C 329.059 359.306,333.960 350.450,339.682 340.000 C 398.974 231.720,522.655 168.655,649.511 182.019 M458.972 632.910 C 429.734 638.224,404.445 651.833,384.097 673.205 C 352.749 706.130,342.163 752.599,356.341 795.050 L 361.000 809.000 382.000 809.538 L 403.000 810.076 434.473 749.406 C 451.784 716.038,468.505 684.058,471.632 678.340 L 477.317 667.945 523.002 785.472 C 548.128 850.113,569.337 903.761,570.133 904.690 C 570.929 905.620,582.700 884.711,596.290 858.227 L 621.000 810.074 642.265 810.037 L 663.531 810.000 668.845 799.137 C 679.086 778.206,696.198 767.730,722.306 766.406 C 737.564 765.633,740.889 766.114,750.397 770.467 C 774.388 781.450,786.696 799.875,786.627 824.702 C 786.597 835.542,785.440 841.418,781.845 849.000 C 759.816 895.452,690.151 895.759,668.438 849.500 L 663.980 840.000 652.312 840.000 L 640.644 840.000 604.822 908.799 C 585.120 946.638,568.146 977.758,567.102 977.954 C 566.058 978.151,544.774 925.983,519.805 862.026 C 494.836 798.069,473.962 745.295,473.418 744.751 C 472.873 744.207,466.367 755.290,458.959 769.381 C 451.551 783.471,440.160 805.096,433.645 817.435 L 421.800 839.871 399.668 840.435 L 377.536 841.000 389.086 856.000 C 418.674 894.428,454.278 928.220,546.279 1005.196 L 600.161 1050.280 652.581 1006.450 C 770.776 907.622,810.227 867.098,833.118 821.000 C 845.936 795.187,850.810 774.001,849.449 750.018 C 847.590 717.280,835.437 691.558,810.701 668.007 C 777.764 636.648,729.100 623.749,681.223 633.688 C 657.162 638.683,630.189 651.516,613.338 665.986 C 606.924 671.494,600.922 676.000,600.000 676.000 C 599.078 676.000,593.076 671.494,586.662 665.986 C 553.881 637.837,503.572 624.805,458.972 632.910 " fill="#1D1E23" stroke="none" fill-rule="evenodd"></path></svg>