<svg width="1200" height="1200" viewBox="0 0 1200 1200" fill="none" xmlns="http://www.w3.org/2000/svg"><path d="M233.181 203.147 C 221.791 207.320,212.844 214.851,206.545 225.568 L 201.000 235.000 201.000 300.000 L 201.000 365.000 206.545 374.432 C 213.017 385.443,221.835 392.708,233.889 396.961 C 247.055 401.606,353.213 401.388,367.009 396.688 C 379.667 392.374,392.374 379.667,396.688 367.009 C 401.589 352.624,401.589 247.376,396.688 232.991 C 392.374 220.333,379.667 207.626,367.009 203.312 C 353.664 198.765,245.505 198.631,233.181 203.147 M533.181 203.147 C 521.791 207.320,512.844 214.851,506.545 225.568 L 501.000 235.000 501.000 300.000 L 501.000 365.000 506.545 374.432 C 513.017 385.443,521.835 392.708,533.889 396.961 C 547.055 401.606,653.213 401.388,667.009 396.688 C 679.667 392.374,692.374 379.667,696.688 367.009 C 701.589 352.624,701.589 247.376,696.688 232.991 C 692.374 220.333,679.667 207.626,667.009 203.312 C 653.664 198.765,545.505 198.631,533.181 203.147 M833.181 203.147 C 821.791 207.320,812.844 214.851,806.545 225.568 L 801.000 235.000 801.000 300.000 L 801.000 365.000 806.545 374.432 C 813.017 385.443,821.835 392.708,833.889 396.961 C 847.055 401.606,953.213 401.388,967.009 396.688 C 979.667 392.374,992.374 379.667,996.688 367.009 C 1001.589 352.624,1001.589 247.376,996.688 232.991 C 992.374 220.333,979.667 207.626,967.009 203.312 C 953.664 198.765,845.505 198.631,833.181 203.147 M233.181 503.147 C 221.791 507.320,212.844 514.851,206.545 525.568 L 201.000 535.000 201.000 600.000 L 201.000 665.000 206.545 674.432 C 213.017 685.443,221.835 692.708,233.889 696.961 C 247.055 701.606,353.213 701.388,367.009 696.688 C 379.667 692.374,392.374 679.667,396.688 667.009 C 401.589 652.624,401.589 547.376,396.688 532.991 C 392.374 520.333,379.667 507.626,367.009 503.312 C 353.664 498.765,245.505 498.631,233.181 503.147 M533.181 503.147 C 521.791 507.320,512.844 514.851,506.545 525.568 L 501.000 535.000 501.000 600.000 L 501.000 665.000 506.545 674.432 C 513.017 685.443,521.835 692.708,533.889 696.961 C 547.055 701.606,653.213 701.388,667.009 696.688 C 679.667 692.374,692.374 679.667,696.688 667.009 C 701.589 652.624,701.589 547.376,696.688 532.991 C 692.374 520.333,679.667 507.626,667.009 503.312 C 653.664 498.765,545.505 498.631,533.181 503.147 M833.181 503.147 C 821.791 507.320,812.844 514.851,806.545 525.568 L 801.000 535.000 801.000 600.000 L 801.000 665.000 806.545 674.432 C 813.017 685.443,821.835 692.708,833.889 696.961 C 847.055 701.606,953.213 701.388,967.009 696.688 C 979.667 692.374,992.374 679.667,996.688 667.009 C 1001.589 652.624,1001.589 547.376,996.688 532.991 C 992.374 520.333,979.667 507.626,967.009 503.312 C 953.664 498.765,845.505 498.631,833.181 503.147 M233.181 803.147 C 221.791 807.320,212.844 814.851,206.545 825.568 L 201.000 835.000 201.000 900.000 L 201.000 965.000 206.545 974.432 C 213.017 985.443,221.835 992.708,233.889 996.961 C 247.055 1001.606,353.213 1001.388,367.009 996.688 C 379.667 992.374,392.374 979.667,396.688 967.009 C 401.589 952.624,401.589 847.376,396.688 832.991 C 392.374 820.333,379.667 807.626,367.009 803.312 C 353.664 798.765,245.505 798.631,233.181 803.147 M533.181 803.147 C 521.791 807.320,512.844 814.851,506.545 825.568 L 501.000 835.000 501.000 900.000 L 501.000 965.000 506.545 974.432 C 513.017 985.443,521.835 992.708,533.889 996.961 C 547.055 1001.606,653.213 1001.388,667.009 996.688 C 679.667 992.374,692.374 979.667,696.688 967.009 C 701.589 952.624,701.589 847.376,696.688 832.991 C 692.374 820.333,679.667 807.626,667.009 803.312 C 653.664 798.765,545.505 798.631,533.181 803.147 M833.181 803.147 C 821.791 807.320,812.844 814.851,806.545 825.568 L 801.000 835.000 801.000 900.000 L 801.000 965.000 806.545 974.432 C 813.017 985.443,821.835 992.708,833.889 996.961 C 847.055 1001.606,953.213 1001.388,967.009 996.688 C 979.667 992.374,992.374 979.667,996.688 967.009 C 1001.589 952.624,1001.589 847.376,996.688 832.991 C 992.374 820.333,979.667 807.626,967.009 803.312 C 953.664 798.765,845.505 798.631,833.181 803.147 " fill="#1D1E23" stroke="none" fill-rule="evenodd"></path></svg>