<svg width="1200" height="1200" viewBox="0 0 1200 1200" fill="none" xmlns="http://www.w3.org/2000/svg"><path d="M200.000 300.000 L 200.000 400.000 300.000 400.000 L 400.000 400.000 400.000 300.000 L 400.000 200.000 300.000 200.000 L 200.000 200.000 200.000 300.000 M500.000 300.000 L 500.000 400.000 600.000 400.000 L 700.000 400.000 700.000 300.000 L 700.000 200.000 600.000 200.000 L 500.000 200.000 500.000 300.000 M800.000 300.000 L 800.000 400.000 900.000 400.000 L 1000.000 400.000 1000.000 300.000 L 1000.000 200.000 900.000 200.000 L 800.000 200.000 800.000 300.000 M200.000 600.000 L 200.000 700.000 300.000 700.000 L 400.000 700.000 400.000 600.000 L 400.000 500.000 300.000 500.000 L 200.000 500.000 200.000 600.000 M500.000 600.000 L 500.000 700.000 600.000 700.000 L 700.000 700.000 700.000 600.000 L 700.000 500.000 600.000 500.000 L 500.000 500.000 500.000 600.000 M800.000 600.000 L 800.000 700.000 900.000 700.000 L 1000.000 700.000 1000.000 600.000 L 1000.000 500.000 900.000 500.000 L 800.000 500.000 800.000 600.000 M200.000 900.000 L 200.000 1000.000 300.000 1000.000 L 400.000 1000.000 400.000 900.000 L 400.000 800.000 300.000 800.000 L 200.000 800.000 200.000 900.000 M500.000 900.000 L 500.000 1000.000 600.000 1000.000 L 700.000 1000.000 700.000 900.000 L 700.000 800.000 600.000 800.000 L 500.000 800.000 500.000 900.000 M800.000 900.000 L 800.000 1000.000 900.000 1000.000 L 1000.000 1000.000 1000.000 900.000 L 1000.000 800.000 900.000 800.000 L 800.000 800.000 800.000 900.000 " fill="#1D1E23" stroke="none" fill-rule="evenodd"></path></svg>