<svg width="1200" height="1200" viewBox="0 0 1200 1200" fill="none" xmlns="http://www.w3.org/2000/svg"><path d="M181.000 51.252 C 160.162 55.355,153.561 57.157,143.089 61.599 C 106.145 77.271,76.040 107.170,61.683 142.451 C 52.514 164.981,50.000 182.004,50.000 221.559 C 50.000 263.599,52.003 272.109,64.947 285.053 C 84.511 304.616,115.489 304.616,135.053 285.053 C 147.738 272.368,150.000 263.278,150.000 225.000 C 150.000 186.722,152.262 177.632,164.947 164.947 C 177.632 152.262,186.722 150.000,225.000 150.000 C 263.278 150.000,272.368 147.738,285.053 135.053 C 304.616 115.489,304.616 84.511,285.053 64.947 C 271.981 51.876,263.655 49.959,221.144 50.232 C 201.265 50.360,183.200 50.818,181.000 51.252 M932.171 53.323 C 914.423 59.815,900.000 80.742,900.000 100.000 C 900.000 112.080,905.967 126.072,914.947 135.053 C 927.632 147.738,936.722 150.000,975.000 150.000 C 1013.419 150.000,1022.348 152.242,1035.233 165.127 C 1047.550 177.445,1050.000 187.544,1050.000 226.007 C 1050.000 263.187,1052.345 272.450,1064.947 285.053 C 1073.928 294.033,1087.920 300.000,1100.000 300.000 C 1119.819 300.000,1140.402 285.455,1146.688 267.009 C 1151.219 253.709,1151.369 192.460,1146.923 170.933 C 1135.205 114.203,1094.889 71.491,1037.000 54.475 C 1030.006 52.419,1014.076 51.319,984.000 50.814 C 948.114 50.212,939.539 50.627,932.171 53.323 M584.602 214.274 C 577.783 215.254,568.080 217.822,563.040 219.983 C 558.001 222.143,495.195 257.456,423.472 298.455 C 305.973 365.622,291.762 374.287,279.887 386.000 C 272.115 393.667,264.537 403.513,261.415 410.000 C 249.823 434.089,250.000 431.150,250.000 600.000 C 250.000 768.867,249.824 765.932,261.423 790.000 C 273.042 814.107,278.994 818.207,420.911 899.849 C 492.363 940.953,555.598 976.696,561.434 979.277 C 585.449 989.897,614.551 989.897,638.566 979.277 C 644.402 976.696,707.637 940.953,779.089 899.849 C 921.006 818.207,926.958 814.107,938.577 790.000 C 950.176 765.932,950.000 768.867,950.000 600.000 C 950.000 431.133,950.176 434.068,938.577 410.000 C 927.022 386.025,921.090 381.951,777.706 299.517 C 705.494 258.002,642.324 222.282,637.328 220.141 C 630.288 217.123,599.179 210.980,597.355 212.247 C 597.160 212.383,591.421 213.295,584.602 214.274 M699.094 369.500 C 752.296 400.025,795.601 425.790,795.327 426.755 C 795.054 427.720,750.993 454.084,697.415 485.340 L 600.000 542.170 502.585 485.340 C 449.007 454.084,404.942 427.720,404.664 426.755 C 404.094 424.774,595.519 314.155,599.681 314.061 C 601.156 314.027,645.892 338.975,699.094 369.500 M471.500 582.908 L 550.000 628.630 550.000 743.433 C 550.000 806.575,549.325 857.877,548.500 857.438 C 547.675 856.999,502.675 831.207,448.500 800.123 L 350.000 743.606 350.000 627.870 L 350.000 512.135 371.500 524.661 C 383.325 531.550,428.325 557.762,471.500 582.908 M850.000 627.803 L 850.000 743.606 751.500 800.123 C 697.325 831.207,652.325 856.999,651.500 857.438 C 650.675 857.877,650.000 806.570,650.000 743.423 L 650.000 628.610 749.500 570.444 C 804.225 538.453,849.225 512.216,849.500 512.139 C 849.775 512.063,850.000 564.111,850.000 627.803 M82.171 903.434 C 70.364 907.604,57.459 920.822,53.312 932.991 C 48.781 946.291,48.631 1007.540,53.077 1029.067 C 65.505 1089.234,110.766 1134.495,170.933 1146.923 C 181.095 1149.022,197.190 1150.000,221.559 1150.000 C 263.599 1150.000,272.109 1147.997,285.053 1135.053 C 304.616 1115.489,304.616 1084.511,285.053 1064.947 C 272.368 1052.262,263.278 1050.000,225.000 1050.000 C 186.722 1050.000,177.632 1047.738,164.947 1035.053 C 152.262 1022.368,150.000 1013.278,150.000 975.000 C 150.000 936.722,147.738 927.632,135.053 914.947 C 121.176 901.071,101.185 896.718,82.171 903.434 M1082.171 903.434 C 1070.364 907.604,1057.459 920.822,1053.312 932.991 C 1050.785 940.409,1050.000 950.124,1050.000 973.993 C 1050.000 1012.456,1047.550 1022.555,1035.233 1034.873 C 1022.348 1047.758,1013.419 1050.000,975.000 1050.000 C 936.722 1050.000,927.632 1052.262,914.947 1064.947 C 895.384 1084.511,895.384 1115.489,914.947 1135.053 C 927.891 1147.997,936.401 1150.000,978.441 1150.000 C 1002.810 1150.000,1018.905 1149.022,1029.067 1146.923 C 1089.234 1134.495,1134.495 1089.234,1146.923 1029.067 C 1151.369 1007.540,1151.219 946.291,1146.688 932.991 C 1138.031 907.585,1108.597 894.100,1082.171 903.434 " fill="#1D1E23" stroke="none" fill-rule="evenodd"></path></svg>