<svg width="1200" height="1200" viewBox="0 0 1200 1200" fill="none" xmlns="http://www.w3.org/2000/svg"><path d="M50.000 175.000 L 50.000 300.000 100.000 300.000 L 150.000 300.000 150.000 225.000 L 150.000 150.000 225.000 150.000 L 300.000 150.000 300.000 100.000 L 300.000 50.000 175.000 50.000 L 50.000 50.000 50.000 175.000 M900.000 100.000 L 900.000 150.000 975.000 150.000 L 1050.000 150.000 1050.000 225.000 L 1050.000 300.000 1100.000 300.000 L 1150.000 300.000 1150.000 175.000 L 1150.000 50.000 1025.000 50.000 L 900.000 50.000 900.000 100.000 M423.500 298.455 L 250.000 398.627 250.000 600.114 L 250.000 801.601 424.012 901.801 C 519.719 956.910,598.913 1002.000,600.000 1002.000 C 601.087 1002.000,680.281 956.910,775.988 901.801 L 950.000 801.601 950.000 600.109 L 950.000 398.616 776.697 298.808 C 681.380 243.914,601.955 198.839,600.197 198.641 C 598.439 198.444,518.925 243.360,423.500 298.455 M699.094 369.500 C 752.296 400.025,795.601 425.790,795.327 426.755 C 795.054 427.720,750.993 454.084,697.415 485.340 L 600.000 542.170 502.585 485.340 C 449.007 454.084,404.942 427.720,404.664 426.755 C 404.094 424.774,595.519 314.155,599.681 314.061 C 601.156 314.027,645.892 338.975,699.094 369.500 M471.500 582.908 L 550.000 628.630 550.000 743.433 C 550.000 806.575,549.325 857.877,548.500 857.438 C 547.675 856.999,502.675 831.207,448.500 800.123 L 350.000 743.606 350.000 627.870 L 350.000 512.135 371.500 524.661 C 383.325 531.550,428.325 557.762,471.500 582.908 M850.000 627.803 L 850.000 743.606 751.500 800.123 C 697.325 831.207,652.325 856.999,651.500 857.438 C 650.675 857.877,650.000 806.570,650.000 743.423 L 650.000 628.610 749.500 570.444 C 804.225 538.453,849.225 512.216,849.500 512.139 C 849.775 512.063,850.000 564.111,850.000 627.803 M50.000 1025.000 L 50.000 1150.000 175.000 1150.000 L 300.000 1150.000 300.000 1100.000 L 300.000 1050.000 225.000 1050.000 L 150.000 1050.000 150.000 975.000 L 150.000 900.000 100.000 900.000 L 50.000 900.000 50.000 1025.000 M1050.000 975.000 L 1050.000 1050.000 975.000 1050.000 L 900.000 1050.000 900.000 1100.000 L 900.000 1150.000 1025.000 1150.000 L 1150.000 1150.000 1150.000 1025.000 L 1150.000 900.000 1100.000 900.000 L 1050.000 900.000 1050.000 975.000 " fill="#1D1E23" stroke="none" fill-rule="evenodd"></path></svg>