<svg width="1200" height="1200" viewBox="0 0 1200 1200" fill="none" xmlns="http://www.w3.org/2000/svg"><path d="M589.000 221.775 C 585.700 222.631,579.850 224.923,576.000 226.869 C 572.150 228.816,492.762 306.591,399.582 399.704 C 216.161 582.992,221.247 577.309,221.246 599.000 C 221.245 620.785,212.874 611.415,398.716 797.633 C 493.472 892.581,573.430 971.556,576.400 973.133 C 596.550 983.830,618.710 980.125,635.042 963.328 C 645.892 952.169,650.029 942.305,649.956 927.768 C 649.863 909.092,649.422 908.590,516.425 775.500 L 391.012 650.000 674.150 650.000 C 992.237 650.000,968.987 651.118,985.053 635.053 C 1004.616 615.489,1004.616 584.511,985.053 564.947 C 968.987 548.882,992.237 550.000,674.150 550.000 L 391.012 550.000 516.425 424.500 C 612.690 328.168,642.776 296.908,645.875 290.000 C 652.912 274.312,650.182 253.483,639.201 239.086 C 629.460 226.315,604.580 217.736,589.000 221.775 " fill="#1D1E23" stroke="none" fill-rule="evenodd"></path></svg>