<svg width="1200" height="1200" viewBox="0 0 1200 1200" fill="none" xmlns="http://www.w3.org/2000/svg"><path d="M589.000 221.775 C 579.673 224.194,571.573 229.049,564.724 236.329 C 551.287 250.611,547.502 266.286,552.924 285.196 C 556.299 296.966,556.673 297.365,682.618 423.500 L 808.927 550.000 525.820 550.000 C 207.767 550.000,231.012 548.882,214.947 564.947 C 195.384 584.511,195.384 615.489,214.947 635.053 C 231.013 651.118,207.763 650.000,525.850 650.000 L 808.988 650.000 683.575 775.500 C 550.187 908.981,550.136 909.039,550.044 928.144 C 549.859 966.595,588.318 990.854,622.506 973.851 C 628.322 970.958,684.414 916.244,800.414 800.313 C 983.817 617.020,978.753 622.679,978.754 601.000 C 978.755 579.544,986.244 587.982,803.809 403.883 C 683.422 282.398,631.440 231.242,624.590 227.514 C 614.122 221.817,598.534 219.303,589.000 221.775 " fill="#1D1E23" stroke="none" fill-rule="evenodd"></path></svg>