<svg width="1200" height="1200" viewBox="0 0 1200 1200" fill="none" xmlns="http://www.w3.org/2000/svg"><path d="M582.171 203.434 C 577.315 205.149,569.581 210.314,564.983 214.911 C 548.876 231.019,550.000 207.694,550.000 525.850 L 550.000 808.988 424.500 683.686 C 355.475 614.770,295.974 556.872,292.275 555.024 C 281.727 549.754,266.219 548.941,253.954 553.015 C 225.926 562.325,212.297 595.511,225.825 621.506 C 228.043 625.769,304.171 703.326,402.362 801.360 C 574.203 972.924,575.053 973.735,586.533 977.012 C 597.931 980.264,603.155 980.037,618.000 975.641 C 623.438 974.031,663.520 935.126,797.633 801.284 C 892.581 706.528,971.556 626.570,973.133 623.600 C 974.709 620.630,976.970 613.676,978.155 608.147 C 984.529 578.425,956.701 547.749,925.898 550.542 C 919.711 551.103,911.578 553.097,907.824 554.973 C 904.071 556.849,844.525 614.770,775.500 683.686 L 650.000 808.988 650.000 525.850 C 650.000 207.763,651.118 231.013,635.053 214.947 C 621.176 201.071,601.185 196.718,582.171 203.434 " fill="#1D1E23" stroke="none" fill-rule="evenodd"></path></svg>