<svg width="1200" height="1200" viewBox="0 0 1200 1200" fill="none" xmlns="http://www.w3.org/2000/svg"><path d="M580.277 225.075 C 576.215 226.839,505.616 295.324,401.901 398.109 C 271.356 527.485,229.145 570.473,225.643 577.612 C 219.763 589.600,219.361 609.605,224.791 620.000 C 237.139 643.639,260.564 654.139,285.196 647.076 C 296.966 643.701,297.365 643.327,423.500 517.382 L 550.000 391.073 550.000 674.180 C 550.000 992.233,548.882 968.988,564.947 985.053 C 584.511 1004.616,615.489 1004.616,635.053 985.053 C 651.118 968.987,650.000 992.237,650.000 674.150 L 650.000 391.012 775.500 516.425 C 908.981 649.813,909.039 649.864,928.144 649.956 C 966.050 650.138,991.174 611.130,974.171 578.494 C 968.278 567.183,628.876 228.912,619.564 225.069 C 610.240 221.221,589.148 221.224,580.277 225.075 " fill="#1D1E23" stroke="none" fill-rule="evenodd"></path></svg>