<svg width="1200" height="1200" viewBox="0 0 1200 1200" fill="none" xmlns="http://www.w3.org/2000/svg"><path d="M392.665 103.683 C 374.142 110.119,361.020 123.041,353.853 141.903 C 350.555 150.583,350.000 157.356,350.000 188.953 L 350.000 225.863 246.500 226.431 L 143.000 227.000 134.417 231.583 C 122.788 237.793,111.691 249.277,105.846 261.154 L 101.000 271.000 100.480 659.372 L 99.960 1047.744 104.288 1059.310 C 110.121 1074.900,125.078 1089.871,140.637 1095.692 L 152.150 1100.000 600.000 1100.000 L 1047.850 1100.000 1059.363 1095.692 C 1074.922 1089.871,1089.879 1074.900,1095.712 1059.310 L 1100.040 1047.744 1099.520 659.372 L 1099.000 271.000 1094.154 261.154 C 1088.309 249.277,1077.212 237.793,1065.583 231.583 L 1057.000 227.000 953.500 226.431 L 850.000 225.863 850.000 189.007 C 850.000 156.846,849.482 150.765,845.933 141.281 C 840.500 126.760,828.447 113.496,814.429 106.612 L 803.000 101.000 603.000 100.546 C 415.077 100.119,402.376 100.308,392.665 103.683 M803.518 135.989 C 807.103 138.175,811.825 142.897,814.011 146.482 C 817.769 152.645,817.985 156.673,817.993 220.500 L 818.000 288.000 600.000 288.000 L 382.000 288.000 382.007 220.500 C 382.015 156.673,382.231 152.645,385.989 146.482 C 388.175 142.897,392.897 138.175,396.482 135.989 C 402.869 132.095,406.946 132.015,600.000 132.015 C 793.054 132.015,797.131 132.095,803.518 135.989 M433.481 164.859 C 423.407 168.453,420.043 171.512,415.727 181.000 C 411.020 191.346,411.085 196.891,416.029 206.869 C 420.703 216.301,427.611 221.882,437.320 224.072 C 458.165 228.773,478.714 207.903,473.967 186.854 C 471.877 177.585,461.323 166.557,452.089 163.992 C 443.276 161.543,442.696 161.570,433.481 164.859 M747.638 163.900 C 724.613 171.117,717.828 198.228,734.800 215.200 C 750.364 230.764,774.126 226.738,783.971 206.869 C 789.145 196.426,789.049 190.917,783.500 179.970 C 776.842 166.834,760.969 159.721,747.638 163.900 M350.000 304.000 L 350.000 320.000 600.000 320.000 L 850.000 320.000 850.000 304.000 L 850.000 288.000 944.000 288.000 L 1038.000 288.000 1038.000 663.000 L 1038.000 1038.000 600.000 1038.000 L 162.000 1038.000 162.000 663.000 L 162.000 288.000 256.000 288.000 L 350.000 288.000 350.000 304.000 M286.013 412.858 L 225.026 443.500 287.513 474.756 L 350.000 506.013 412.487 474.756 L 474.974 443.500 413.987 412.858 C 380.444 396.005,351.650 382.216,350.000 382.216 C 348.350 382.216,319.556 396.005,286.013 412.858 M224.000 517.993 L 224.000 571.987 281.987 600.993 C 313.879 616.947,340.429 630.000,340.987 630.000 C 341.544 630.000,342.000 605.703,342.000 576.007 L 342.000 522.013 284.013 493.007 C 252.121 477.053,225.571 464.000,225.013 464.000 C 224.456 464.000,224.000 488.297,224.000 517.993 M415.500 493.115 L 358.000 522.014 358.000 576.007 C 358.000 605.703,358.456 630.000,359.013 630.000 C 359.571 630.000,386.121 616.947,418.013 600.993 L 476.000 571.987 476.000 517.993 C 476.000 488.297,475.325 464.049,474.500 464.108 C 473.675 464.167,447.125 477.221,415.500 493.115 M538.000 523.009 L 538.000 570.018 756.500 569.509 L 975.000 569.000 975.537 522.500 L 976.074 476.000 757.037 476.000 L 538.000 476.000 538.000 523.009 M286.013 756.858 L 225.026 787.500 287.513 818.756 L 350.000 850.013 412.487 818.756 L 474.974 787.500 413.987 756.858 C 380.444 740.005,351.650 726.216,350.000 726.216 C 348.350 726.216,319.556 740.005,286.013 756.858 M224.000 861.993 L 224.000 915.987 281.987 944.993 C 313.879 960.947,340.429 974.000,340.987 974.000 C 341.544 974.000,342.000 949.703,342.000 920.007 L 342.000 866.013 284.013 837.007 C 252.121 821.053,225.571 808.000,225.013 808.000 C 224.456 808.000,224.000 832.297,224.000 861.993 M415.500 837.115 L 358.000 866.014 358.000 920.007 C 358.000 949.703,358.456 974.000,359.013 974.000 C 359.571 974.000,386.121 960.947,418.013 944.993 L 476.000 915.987 476.000 861.993 C 476.000 832.297,475.325 808.049,474.500 808.108 C 473.675 808.167,447.125 821.221,415.500 837.115 M538.000 866.000 L 538.000 912.000 757.000 912.000 L 976.000 912.000 976.000 866.000 L 976.000 820.000 757.000 820.000 L 538.000 820.000 538.000 866.000 " fill="#1D1E23" stroke="none" fill-rule="evenodd"></path></svg>