<svg width="1200" height="1200" viewBox="0 0 1200 1200" fill="none" xmlns="http://www.w3.org/2000/svg"><path d="M521.628 52.014 C 492.122 56.711,461.062 68.981,436.565 85.617 C 397.778 111.956,369.818 151.693,356.464 199.455 L 351.000 219.000 351.000 560.000 L 351.000 901.000 355.513 921.377 C 368.884 981.751,393.752 1027.818,435.896 1070.278 C 478.580 1113.284,525.310 1137.633,583.526 1147.203 C 609.036 1151.396,657.447 1149.949,682.000 1144.259 C 792.407 1118.674,872.006 1037.567,895.221 927.000 C 898.827 909.824,899.000 895.626,899.000 616.686 L 899.000 324.372 892.884 316.686 C 884.052 305.587,871.426 299.524,859.359 300.589 C 847.261 301.657,834.923 310.001,829.178 321.000 C 825.012 328.978,824.997 329.798,823.972 616.000 L 822.944 903.000 818.289 920.000 C 812.814 939.992,797.047 974.271,786.657 988.769 C 750.556 1039.144,702.317 1067.757,643.000 1073.976 C 585.604 1079.994,526.055 1058.359,483.848 1016.152 C 459.131 991.435,441.171 960.737,431.435 926.568 L 427.000 911.000 426.410 575.000 C 425.754 201.220,424.893 226.569,439.243 196.976 C 452.559 169.517,472.347 149.509,498.761 136.798 C 517.794 127.638,530.811 125.344,556.947 126.542 C 583.705 127.769,598.273 132.394,618.958 146.229 C 642.783 162.164,659.581 184.037,668.199 210.345 L 673.000 225.000 673.000 508.157 L 673.000 791.313 666.928 801.157 C 656.740 817.673,635.740 827.654,617.427 824.682 C 605.192 822.696,589.900 812.225,583.072 801.158 L 577.000 791.316 576.000 560.158 C 575.007 330.572,574.972 328.946,570.822 321.000 C 565.077 310.001,552.739 301.657,540.641 300.589 C 528.575 299.524,515.948 305.587,507.116 316.685 L 501.000 324.370 500.444 551.685 C 499.814 808.862,499.150 796.369,515.235 829.669 C 540.978 882.960,598.671 910.407,654.781 896.056 C 690.546 886.909,720.216 863.394,735.749 831.884 C 750.694 801.567,749.927 818.746,749.965 513.762 C 750.003 214.725,750.379 225.066,738.184 189.214 C 715.515 122.564,662.664 72.829,596.467 55.853 C 578.640 51.281,539.001 49.248,521.628 52.014 " fill="#1D1E23" stroke="none" fill-rule="evenodd"></path></svg>