<svg width="1200" height="1200" viewBox="0 0 1200 1200" fill="none" xmlns="http://www.w3.org/2000/svg"><path d="M527.000 51.208 C 442.383 63.746,379.007 118.751,356.547 199.147 L 351.000 219.000 351.000 564.000 C 351.000 894.601,351.158 909.751,354.779 927.000 C 378.348 1039.255,460.923 1121.820,573.000 1145.196 C 598.242 1150.460,651.758 1150.460,677.000 1145.196 C 732.404 1133.640,780.010 1108.132,819.071 1069.071 C 857.225 1030.916,881.254 986.975,894.573 931.000 C 898.839 913.074,898.859 911.743,899.477 606.500 L 900.098 300.000 862.086 300.000 L 824.075 300.000 823.530 605.500 L 822.986 911.000 818.387 927.000 C 776.612 1072.340,601.662 1122.943,489.587 1022.104 C 464.981 999.965,441.535 961.505,431.609 927.000 L 427.006 911.000 426.469 572.458 C 425.878 199.840,425.209 221.472,438.137 195.398 C 451.095 169.263,469.687 150.639,495.272 138.165 C 512.329 129.848,529.459 126.059,550.000 126.059 C 598.906 126.059,640.704 151.932,661.846 195.294 C 674.670 221.595,674.093 205.937,673.521 512.558 L 673.000 791.314 666.928 801.157 C 656.740 817.673,635.739 827.654,617.427 824.682 C 605.191 822.696,589.900 812.226,583.072 801.157 L 577.000 791.315 576.477 545.657 L 575.953 300.000 537.977 300.000 L 500.000 300.000 500.000 544.680 C 500.000 781.655,500.124 789.846,503.944 804.781 C 520.770 870.571,584.952 910.821,651.000 897.001 C 686.817 889.507,719.906 864.022,735.878 831.628 C 750.896 801.168,750.144 819.289,749.540 502.436 L 749.000 219.000 743.681 199.761 C 730.549 152.255,702.213 111.950,663.435 85.617 C 645.841 73.668,617.156 60.706,597.913 56.007 C 581.485 51.996,540.431 49.218,527.000 51.208 " fill="#1D1E23" stroke="none" fill-rule="evenodd"></path></svg>