<svg width="1200" height="1200" viewBox="0 0 1200 1200" fill="none" xmlns="http://www.w3.org/2000/svg"><path d="M463.000 102.182 C 457.500 103.283,444.501 108.296,434.114 113.324 C 418.635 120.816,412.467 125.259,399.922 137.957 C 387.427 150.604,382.681 157.343,374.078 174.654 L 363.540 195.859 264.270 196.430 L 165.000 197.000 153.365 202.450 C 138.614 209.359,118.529 229.256,111.423 244.000 C 99.324 269.105,100.000 246.325,100.000 629.000 C 100.000 1014.382,99.200 989.286,112.316 1015.463 C 120.066 1030.930,137.878 1048.334,153.079 1055.294 C 159.241 1058.115,170.295 1061.198,177.642 1062.146 C 184.989 1063.094,250.625 1063.899,323.500 1063.935 C 439.375 1063.992,456.000 1063.627,456.000 1061.030 C 456.000 1059.397,453.727 1050.216,450.948 1040.627 C 446.397 1024.922,442.155 1001.960,438.917 975.500 L 437.755 966.000 311.877 966.000 L 186.000 966.000 186.000 629.000 L 186.000 292.000 229.000 292.000 L 272.000 292.000 272.000 336.690 C 272.000 377.445,272.322 381.671,275.657 384.690 C 279.011 387.725,296.460 388.000,485.657 388.000 C 689.333 388.000,692.052 387.948,696.000 384.000 C 699.758 380.242,700.000 377.333,700.000 336.000 L 700.000 292.000 743.000 292.000 L 786.000 292.000 786.000 437.000 L 786.000 582.000 800.500 582.036 C 813.823 582.068,830.348 583.478,860.591 587.161 L 872.182 588.572 871.591 430.786 L 871.000 273.000 865.566 258.113 C 855.658 230.971,840.418 213.587,816.860 202.554 L 805.000 197.000 705.718 196.430 L 606.435 195.859 602.070 184.187 C 588.798 148.698,555.568 116.967,520.000 105.820 C 504.856 101.073,477.325 99.316,463.000 102.182 M508.350 203.110 C 524.885 214.732,532.550 241.510,525.000 261.279 C 510.603 298.977,466.202 302.338,448.930 267.037 C 436.778 242.198,445.194 212.163,467.742 199.900 C 478.845 193.862,497.262 195.318,508.350 203.110 M309.000 485.870 C 294.570 489.383,280.662 501.103,275.101 514.436 C 271.261 523.643,271.084 541.936,274.750 550.710 C 278.954 560.772,290.007 572.208,300.000 576.834 C 308.864 580.937,311.558 581.009,478.870 581.565 C 596.860 581.957,651.980 581.457,659.350 579.927 C 683.936 574.823,699.008 556.616,698.991 532.042 C 698.984 521.409,697.959 517.257,693.446 509.568 C 690.402 504.380,684.821 497.779,681.046 494.899 C 666.503 483.807,669.720 483.983,485.182 484.205 C 391.582 484.317,312.300 485.067,309.000 485.870 M298.918 682.734 C 281.268 690.953,271.969 705.728,272.044 725.436 C 272.096 739.142,276.710 750.387,285.983 759.407 C 300.229 773.265,297.754 772.938,393.184 773.579 L 479.368 774.158 488.488 758.462 C 500.421 737.925,518.598 713.948,537.329 694.037 L 552.416 678.000 430.708 678.020 L 309.000 678.039 298.918 682.734 M703.642 726.328 C 699.596 727.429,693.055 731.181,689.109 734.665 C 684.929 738.355,663.709 770.226,638.284 811.000 L 594.635 881.000 540.818 882.000 C 489.709 882.950,486.572 883.229,478.502 887.540 C 452.808 901.265,451.264 938.006,475.668 954.973 L 484.336 961.000 551.084 961.600 C 623.434 962.250,629.788 961.576,640.567 952.112 C 644.150 948.966,660.917 924.202,677.827 897.082 C 694.737 869.962,709.253 848.499,710.086 849.386 C 710.918 850.274,735.438 902.300,764.574 965.000 C 821.750 1088.038,824.679 1093.118,841.301 1098.051 C 852.549 1101.388,865.915 1099.089,875.335 1092.195 C 881.129 1087.955,893.986 1068.947,928.000 1014.336 L 973.000 942.086 1025.107 942.043 C 1077.157 942.000,1077.226 941.994,1087.636 936.807 C 1101.545 929.875,1108.933 917.805,1108.933 902.012 C 1108.933 888.935,1104.554 880.298,1093.317 871.212 L 1085.634 865.000 1015.317 864.381 C 969.557 863.978,942.457 864.507,937.720 865.895 C 927.116 869.003,920.243 877.798,888.014 929.500 C 872.072 955.075,858.506 976.000,857.869 976.000 C 857.232 976.000,837.958 935.725,815.038 886.500 C 744.606 735.235,745.538 737.056,735.593 731.331 C 725.320 725.417,713.688 723.596,703.642 726.328 " fill="#1D1E23" stroke="none" fill-rule="evenodd"></path></svg>