<svg width="1200" height="1200" viewBox="0 0 1200 1200" fill="none" xmlns="http://www.w3.org/2000/svg"><path d="M365.859 202.608 C 344.407 208.690,325.411 225.651,318.067 245.281 C 314.036 256.055,314.000 259.167,314.000 600.000 C 314.000 942.861,314.012 943.882,318.141 954.918 C 323.957 970.463,338.625 985.913,354.417 993.128 C 365.112 998.015,369.551 998.880,384.000 998.895 C 398.154 998.910,402.882 998.038,412.240 993.686 C 427.424 986.625,438.053 976.563,446.202 961.537 L 453.000 949.000 453.000 600.000 L 453.000 251.000 446.140 238.348 C 433.970 215.901,413.388 202.510,388.581 200.898 C 380.698 200.386,371.164 201.103,365.859 202.608 M790.542 203.080 C 770.256 208.544,755.038 221.619,745.246 242.000 L 739.000 255.000 739.000 600.000 L 739.000 945.000 745.246 958.000 C 755.183 978.682,769.584 991.024,790.883 997.111 C 823.267 1006.365,857.707 990.367,873.162 958.891 L 879.000 947.000 879.533 606.000 C 879.904 368.890,879.412 261.842,877.919 254.634 C 875.028 240.675,862.628 222.001,850.889 213.923 C 839.603 206.158,820.887 199.949,809.322 200.132 C 804.745 200.204,796.294 201.531,790.542 203.080 M152.507 362.204 C 140.220 365.139,120.359 379.340,112.601 390.737 C 99.402 410.131,99.861 402.061,100.459 604.153 L 101.000 787.000 106.340 798.393 C 129.562 847.934,198.391 854.098,228.735 809.356 C 242.654 788.832,242.164 797.031,241.551 594.812 L 241.000 413.000 235.366 401.524 C 223.516 377.385,201.125 362.258,175.259 360.915 C 167.417 360.508,157.178 361.088,152.507 362.204 M579.469 362.051 C 559.590 367.065,542.831 380.759,533.584 399.542 L 527.000 412.916 527.000 600.000 L 527.000 787.084 533.584 800.458 C 541.110 815.745,551.728 826.002,568.000 833.706 C 577.180 838.052,581.812 838.910,596.000 838.895 C 610.414 838.880,614.897 838.011,625.469 833.180 C 647.229 823.236,662.016 803.693,665.902 779.742 C 668.714 762.412,668.714 437.588,665.902 420.258 C 660.484 386.869,634.123 362.971,600.488 360.958 C 593.070 360.514,583.611 361.006,579.469 362.051 M1007.725 363.821 C 992.840 368.583,979.636 378.314,971.086 390.825 C 957.701 410.409,958.000 405.629,958.000 600.000 C 958.000 794.371,957.701 789.591,971.086 809.175 C 984.807 829.253,1004.080 839.006,1030.000 838.989 C 1044.711 838.980,1048.601 838.194,1058.891 833.151 C 1074.003 825.745,1085.771 813.981,1093.177 798.876 L 1099.000 787.000 1099.552 606.065 C 1099.930 481.913,1099.424 421.857,1097.938 414.699 C 1094.861 399.879,1083.000 382.527,1069.862 373.628 C 1050.191 360.303,1029.122 356.978,1007.725 363.821 " fill="#1D1E23" stroke="none" fill-rule="evenodd"></path></svg>