<svg width="1200" height="1200" viewBox="0 0 1200 1200" fill="none" xmlns="http://www.w3.org/2000/svg"><path d="M134.000 451.284 C 93.343 458.885,60.373 490.455,52.210 529.598 C 50.759 536.555,50.000 576.241,50.000 645.098 L 50.000 750.000 88.000 750.000 L 126.000 750.000 126.000 713.000 L 126.000 676.000 175.000 676.000 L 224.000 676.000 224.000 713.000 L 224.000 750.000 262.000 750.000 L 300.000 750.000 300.000 645.098 C 300.000 576.241,299.241 536.555,297.790 529.598 C 290.836 496.252,266.992 469.142,233.000 455.934 C 222.010 451.663,217.551 451.232,180.000 450.810 C 157.450 450.556,136.750 450.770,134.000 451.284 M350.000 554.902 C 350.000 623.759,350.759 663.445,352.210 670.402 C 360.026 707.883,392.117 739.974,429.598 747.790 C 445.973 751.205,508.692 750.634,523.080 746.939 C 560.836 737.244,590.103 707.261,597.790 670.402 C 599.241 663.445,600.000 623.759,600.000 554.902 L 600.000 450.000 562.000 450.000 L 524.000 450.000 524.000 554.847 L 524.000 659.693 518.871 665.788 C 511.973 673.987,503.400 675.978,475.000 675.978 C 446.600 675.978,438.027 673.987,431.129 665.788 L 426.000 659.693 426.000 554.847 L 426.000 450.000 388.000 450.000 L 350.000 450.000 350.000 554.902 M624.456 487.500 L 625.000 525.000 668.500 525.539 L 712.000 526.078 712.000 638.039 L 712.000 750.000 750.000 750.000 L 788.000 750.000 788.000 638.039 L 788.000 526.078 831.500 525.539 L 875.000 525.000 875.544 487.500 L 876.088 450.000 750.000 450.000 L 623.912 450.000 624.456 487.500 M959.492 452.107 C 940.675 456.702,922.465 469.623,912.350 485.555 C 900.439 504.314,900.000 508.391,900.000 600.152 C 900.000 678.082,900.264 684.416,904.009 696.289 C 911.552 720.204,929.796 738.448,953.711 745.991 C 965.225 749.623,971.937 750.000,1025.000 750.000 C 1078.063 750.000,1084.775 749.623,1096.289 745.991 C 1120.204 738.448,1138.448 720.204,1145.991 696.289 C 1149.736 684.416,1150.000 678.082,1150.000 600.152 C 1150.000 508.391,1149.561 504.314,1137.650 485.555 C 1129.631 472.925,1119.878 464.684,1104.095 457.205 L 1091.000 451.000 1029.000 450.637 C 994.900 450.437,963.621 451.099,959.492 452.107 M217.200 532.800 L 224.000 539.600 224.000 569.800 L 224.000 600.000 175.000 600.000 L 126.000 600.000 126.000 569.800 L 126.000 539.600 132.800 532.800 L 139.600 526.000 175.000 526.000 L 210.400 526.000 217.200 532.800 M1074.000 601.000 L 1074.000 676.000 1025.000 676.000 L 976.000 676.000 976.000 601.000 L 976.000 526.000 1025.000 526.000 L 1074.000 526.000 1074.000 601.000 " fill="#1D1E23" stroke="none" fill-rule="evenodd"></path></svg>