<svg width="1200" height="1200" viewBox="0 0 1200 1200" fill="none" xmlns="http://www.w3.org/2000/svg"><path d="M279.770 52.727 C 269.512 56.438,263.409 61.279,243.042 81.856 L 225.083 100.000 158.898 100.000 C 83.258 100.000,79.258 100.636,64.947 114.947 C 45.384 134.511,45.384 165.489,64.947 185.053 C 81.064 201.169,54.861 200.000,400.000 200.000 C 745.139 200.000,718.936 201.169,735.053 185.053 C 754.616 165.489,754.616 134.511,735.053 114.947 C 720.742 100.636,716.741 100.000,641.104 100.000 L 574.921 100.000 555.960 80.859 C 545.532 70.332,532.950 59.307,528.000 56.359 L 519.000 51.000 403.000 50.556 C 311.584 50.205,285.468 50.666,279.770 52.727 M100.000 554.902 C 100.000 769.771,100.653 862.933,102.210 870.402 C 110.026 907.883,142.117 939.974,179.598 947.790 C 186.778 949.287,237.532 950.000,336.925 950.000 L 483.653 950.000 491.996 965.500 C 555.115 1082.758,678.830 1154.066,811.000 1149.372 C 845.038 1148.163,867.695 1144.641,898.000 1135.847 C 954.973 1119.314,1003.802 1090.198,1047.000 1047.000 C 1099.334 994.666,1131.738 932.630,1145.202 859.000 C 1150.328 830.967,1150.328 769.033,1145.202 741.000 C 1131.735 667.353,1099.318 605.301,1046.986 553.000 C 1017.511 523.542,993.527 506.222,957.000 488.017 C 911.595 465.387,877.748 455.942,826.510 451.607 C 787.803 448.331,740.687 452.799,704.500 463.176 L 700.000 464.467 700.000 357.233 L 700.000 250.000 400.000 250.000 L 100.000 250.000 100.000 554.902 M830.052 552.078 C 868.433 556.784,907.677 571.604,941.186 594.045 C 961.456 607.620,992.380 638.544,1005.955 658.814 C 1055.877 733.357,1063.557 826.900,1026.182 905.186 C 992.067 976.645,933.927 1024.038,856.548 1043.463 C 837.219 1048.316,831.395 1048.873,800.000 1048.873 C 768.605 1048.873,762.781 1048.316,743.452 1043.463 C 666.073 1024.038,607.933 976.645,573.818 905.186 C 542.626 839.852,542.626 760.148,573.818 694.814 C 587.530 666.092,601.784 645.851,623.818 623.818 C 678.768 568.867,753.883 542.738,830.052 552.078 M772.116 604.369 C 767.230 606.916,760.480 612.458,757.116 616.684 L 751.000 624.367 750.405 725.684 C 749.968 800.238,750.448 829.300,752.223 835.706 C 756.861 852.445,767.339 860.469,838.666 901.906 C 874.783 922.888,907.633 940.771,911.666 941.646 C 922.092 943.909,933.988 940.907,942.543 933.855 C 957.360 921.642,958.674 896.768,945.210 883.379 C 941.681 879.870,913.469 862.150,882.516 844.000 L 826.236 811.000 825.618 720.000 C 825.022 632.227,824.852 628.716,820.822 621.000 C 811.364 602.891,789.364 595.379,772.116 604.369 " fill="#1D1E23" stroke="none" fill-rule="evenodd"></path></svg>