<svg width="1200" height="1200" viewBox="0 0 1200 1200" fill="none" xmlns="http://www.w3.org/2000/svg"><path d="M221.055 453.500 C 219.543 457.355,138.298 689.941,114.864 757.500 L 100.122 800.000 142.976 800.000 L 185.831 800.000 190.061 785.500 C 192.387 777.525,196.615 763.125,199.455 753.500 L 204.619 736.000 259.945 736.000 L 315.272 736.000 324.357 767.500 L 333.443 799.000 376.901 799.540 C 401.222 799.841,420.060 799.307,419.680 798.326 C 419.306 797.362,391.595 718.594,358.100 623.287 L 297.200 450.000 259.814 450.000 C 226.065 450.000,222.294 450.340,221.055 453.500 M416.000 451.846 C 416.000 453.582,482.720 785.832,485.010 795.500 C 486.073 799.985,486.213 800.000,526.903 800.000 C 564.079 800.000,567.818 799.687,568.713 796.500 C 569.253 794.575,578.802 752.050,589.932 702.000 C 601.062 651.950,610.848 609.309,611.678 607.243 C 612.662 604.795,620.818 637.723,635.085 701.743 L 656.983 800.000 698.357 800.000 C 736.030 800.000,739.824 799.687,740.773 796.500 C 741.347 794.575,756.747 717.400,774.997 625.000 C 793.247 532.600,808.655 455.406,809.237 453.457 C 810.230 450.138,807.802 449.949,770.789 450.457 L 731.281 451.000 712.727 557.740 C 702.522 616.447,693.909 665.266,693.587 666.227 C 693.264 667.188,683.622 624.555,672.160 571.487 C 660.698 518.419,650.050 469.375,648.497 462.500 L 645.673 450.000 612.193 450.000 L 578.712 450.000 555.872 558.082 C 542.266 622.465,532.467 664.715,531.635 662.582 C 530.387 659.380,493.967 455.166,493.991 451.500 C 493.996 450.675,476.450 450.000,455.000 450.000 C 432.502 450.000,416.000 450.781,416.000 451.846 M840.000 624.857 L 840.000 800.000 919.084 800.000 C 983.138 800.000,1001.056 799.404,1013.360 796.862 C 1055.546 788.148,1081.500 768.771,1094.276 736.450 C 1098.069 726.853,1098.813 721.115,1098.871 701.000 C 1098.931 680.492,1098.270 675.328,1094.329 665.507 C 1088.316 650.521,1072.864 633.695,1058.791 626.810 L 1047.822 621.443 1057.884 615.696 C 1071.686 607.814,1083.003 592.905,1088.218 575.733 C 1093.834 557.244,1092.898 526.795,1086.182 509.507 C 1076.704 485.106,1050.749 465.608,1014.259 455.476 C 1000.155 451.560,992.985 451.182,919.500 450.477 L 840.000 449.715 840.000 624.857 M993.000 520.000 C 1006.713 526.856,1011.923 536.355,1011.967 554.580 C 1012.014 574.100,1007.191 582.730,992.373 589.643 C 981.667 594.637,979.240 594.949,951.000 594.974 C 928.214 594.994,921.048 594.399,921.200 592.500 C 921.310 591.125,921.535 572.819,921.700 551.821 L 922.000 513.641 952.500 514.321 C 980.278 514.939,983.893 515.446,993.000 520.000 M276.836 607.786 C 286.276 640.116,294.000 667.340,294.000 668.284 C 294.000 669.228,278.154 670.000,258.786 670.000 C 231.439 670.000,223.785 669.441,224.527 667.500 C 225.052 666.125,232.970 638.697,242.122 606.548 C 251.275 574.400,258.967 548.301,259.217 548.550 C 259.467 548.800,267.395 575.456,276.836 607.786 M995.892 654.326 C 1020.381 663.572,1028.171 703.549,1009.405 723.667 C 998.829 735.005,991.691 736.821,954.500 737.638 L 920.000 738.396 920.000 693.931 L 920.000 649.467 955.392 650.932 C 974.857 651.738,993.082 653.265,995.892 654.326 " fill="#1D1E23" stroke="none" fill-rule="evenodd"></path></svg>