<svg width="1200" height="1200" viewBox="0 0 1200 1200" fill="none" xmlns="http://www.w3.org/2000/svg"><path d="M330.000 152.181 C 316.230 154.893,297.854 164.821,286.557 175.652 C 279.503 182.416,236.011 245.973,145.173 382.262 C -0.304 600.530,5.908 589.778,12.246 612.328 C 14.558 620.555,45.069 667.719,145.423 818.193 C 230.339 945.519,279.107 1016.837,285.685 1023.312 C 291.232 1028.772,300.164 1035.631,305.535 1038.554 C 327.827 1050.687,302.708 1050.000,724.322 1050.000 C 998.020 1050.000,1112.876 1049.359,1120.402 1047.790 C 1157.883 1039.974,1189.974 1007.883,1197.790 970.402 C 1200.915 955.415,1200.915 244.585,1197.790 229.598 C 1190.894 196.531,1167.041 169.355,1133.000 155.784 L 1121.000 151.000 730.000 150.704 C 509.513 150.537,335.075 151.182,330.000 152.181 M542.790 376.313 C 547.944 378.885,578.733 408.054,625.500 454.669 L 700.000 528.928 774.500 454.669 C 824.702 404.630,851.935 378.921,858.000 375.845 C 869.502 370.010,889.628 369.536,900.000 374.857 C 909.742 379.854,919.588 389.543,924.536 399.000 C 930.475 410.354,930.303 429.882,924.155 442.000 C 921.079 448.065,895.370 475.298,845.331 525.500 L 771.072 600.000 845.331 674.500 C 893.127 722.451,921.088 752.001,923.795 757.420 C 928.949 767.742,929.494 788.546,924.899 799.564 C 921.000 808.911,911.238 819.197,901.506 824.213 C 890.162 830.060,878.389 830.973,864.804 827.061 C 853.195 823.718,851.739 822.405,776.500 747.390 L 700.000 671.118 623.500 747.390 C 548.261 822.405,546.805 823.718,535.196 827.061 C 510.574 834.152,486.938 823.551,474.857 800.000 C 469.536 789.628,470.010 769.502,475.845 758.000 C 478.921 751.935,504.630 724.702,554.669 674.500 L 628.928 600.000 554.669 525.500 C 504.630 475.298,478.921 448.065,475.845 442.000 C 470.010 430.498,469.536 410.372,474.857 400.000 C 488.327 373.741,517.358 363.618,542.790 376.313 " fill="#1D1E23" stroke="none" fill-rule="evenodd"></path></svg>