<svg width="1200" height="1200" viewBox="0 0 1200 1200" fill="none" xmlns="http://www.w3.org/2000/svg"><path d="M150.000 375.000 L -0.009 600.000 150.000 825.000 L 300.009 1050.000 750.004 1050.000 L 1200.000 1050.000 1200.000 600.000 L 1200.000 150.000 750.004 150.000 L 300.009 150.000 150.000 375.000 M789.508 439.492 L 879.015 350.001 914.507 385.493 L 949.999 420.985 860.508 510.492 L 771.017 600.000 860.508 689.508 L 949.999 779.015 914.507 814.507 L 879.015 849.999 789.508 760.508 L 700.000 671.017 610.492 760.508 L 520.985 849.999 485.493 814.507 L 450.001 779.015 539.492 689.508 L 628.983 600.000 539.492 510.492 L 450.001 420.985 485.493 385.493 L 520.985 350.001 610.492 439.492 L 700.000 528.983 789.508 439.492 " fill="#1D1E23" stroke="none" fill-rule="evenodd"></path></svg>