<svg width="1200" height="1200" viewBox="0 0 1200 1200" fill="none" xmlns="http://www.w3.org/2000/svg"><path d="M554.273 102.069 C 398.160 117.159,260.373 202.186,175.186 336.000 C 159.234 361.058,136.757 409.284,126.142 441.230 C 91.501 545.477,91.501 654.523,126.142 758.770 C 150.487 832.034,190.954 897.156,246.899 953.101 C 324.364 1030.567,419.809 1078.547,530.000 1095.418 C 561.811 1100.288,637.929 1100.275,668.732 1095.393 C 700.806 1090.310,731.637 1082.978,757.798 1074.213 C 929.348 1016.733,1056.410 871.947,1090.730 694.842 C 1144.765 415.999,954.991 148.178,673.350 105.808 C 642.882 101.224,582.596 99.331,554.273 102.069 M637.000 202.067 C 728.175 210.617,811.670 249.020,877.725 312.786 C 1002.244 432.989,1035.081 619.965,958.972 775.424 C 898.174 899.610,779.813 982.445,641.000 997.956 C 542.578 1008.954,436.771 978.739,355.000 916.285 C 337.015 902.549,303.337 869.207,288.046 850.000 C 268.510 825.461,255.353 804.553,240.851 775.000 C 173.046 636.832,191.464 471.084,288.076 350.000 C 303.498 330.672,334.753 299.697,354.000 284.667 C 433.438 222.636,536.275 192.620,637.000 202.067 M407.492 402.044 C 385.868 407.507,367.118 423.146,357.189 444.000 C 351.692 455.547,351.000 459.012,351.000 475.000 C 351.000 490.988,351.692 494.453,357.189 506.000 C 365.055 522.522,377.478 534.945,394.000 542.811 C 405.547 548.308,409.012 549.000,425.000 549.000 C 440.988 549.000,444.453 548.308,456.000 542.811 C 472.522 534.945,484.945 522.522,492.811 506.000 C 498.308 494.453,499.000 490.988,499.000 475.000 C 499.000 458.982,498.316 455.569,492.783 444.000 C 480.523 418.363,457.094 402.394,429.587 400.926 C 421.564 400.498,411.621 401.001,407.492 402.044 M757.492 402.044 C 735.868 407.507,717.118 423.146,707.189 444.000 C 701.692 455.547,701.000 459.012,701.000 475.000 C 701.000 490.988,701.692 494.453,707.189 506.000 C 715.055 522.522,727.478 534.945,744.000 542.811 C 755.547 548.308,759.012 549.000,775.000 549.000 C 790.988 549.000,794.453 548.308,806.000 542.811 C 822.522 534.945,834.945 522.522,842.811 506.000 C 848.308 494.453,849.000 490.988,849.000 475.000 C 849.000 458.982,848.316 455.569,842.783 444.000 C 830.523 418.363,807.094 402.394,779.587 400.926 C 771.564 400.498,761.621 401.001,757.492 402.044 M564.000 677.338 C 494.579 686.603,429.304 724.151,384.412 780.642 C 358.386 813.394,354.238 827.771,366.846 841.529 L 373.693 849.000 600.000 849.000 L 826.307 849.000 833.154 841.529 C 845.736 827.800,841.603 813.379,815.765 780.866 C 775.556 730.266,721.618 696.090,659.223 681.676 C 645.157 678.427,633.015 677.345,606.000 676.935 C 586.750 676.643,567.850 676.824,564.000 677.338 " fill="#1D1E23" stroke="none" fill-rule="evenodd"></path></svg>