<svg width="1200" height="1200" viewBox="0 0 1200 1200" fill="none" xmlns="http://www.w3.org/2000/svg"><path d="M100.000 200.000 L 100.000 300.000 125.000 300.000 L 150.000 300.000 150.000 225.000 L 150.000 150.000 225.000 150.000 L 300.000 150.000 300.000 125.000 L 300.000 100.000 200.000 100.000 L 100.000 100.000 100.000 200.000 M900.000 125.000 L 900.000 150.000 975.000 150.000 L 1050.000 150.000 1050.000 225.000 L 1050.000 300.000 1075.000 300.000 L 1100.000 300.000 1100.000 200.000 L 1100.000 100.000 1000.000 100.000 L 900.000 100.000 900.000 125.000 M200.000 600.000 L 200.000 1000.000 275.000 1000.000 L 350.000 1000.000 350.000 600.000 L 350.000 200.000 275.000 200.000 L 200.000 200.000 200.000 600.000 M400.000 525.000 L 400.000 850.000 425.000 850.000 L 450.000 850.000 450.000 525.000 L 450.000 200.000 425.000 200.000 L 400.000 200.000 400.000 525.000 M500.000 525.000 L 500.000 850.000 575.000 850.000 L 650.000 850.000 650.000 525.000 L 650.000 200.000 575.000 200.000 L 500.000 200.000 500.000 525.000 M700.000 525.000 L 700.000 850.000 750.000 850.000 L 800.000 850.000 800.000 525.000 L 800.000 200.000 750.000 200.000 L 700.000 200.000 700.000 525.000 M850.000 600.000 L 850.000 1000.000 925.000 1000.000 L 1000.000 1000.000 1000.000 600.000 L 1000.000 200.000 925.000 200.000 L 850.000 200.000 850.000 600.000 M100.000 1000.000 L 100.000 1100.000 200.000 1100.000 L 300.000 1100.000 300.000 1075.000 L 300.000 1050.000 225.000 1050.000 L 150.000 1050.000 150.000 975.000 L 150.000 900.000 125.000 900.000 L 100.000 900.000 100.000 1000.000 M1050.000 975.000 L 1050.000 1050.000 975.000 1050.000 L 900.000 1050.000 900.000 1075.000 L 900.000 1100.000 1000.000 1100.000 L 1100.000 1100.000 1100.000 1000.000 L 1100.000 900.000 1075.000 900.000 L 1050.000 900.000 1050.000 975.000 " fill="#1D1E23" stroke="none" fill-rule="evenodd"></path></svg>