<svg width="1200" height="1200" viewBox="0 0 1200 1200" fill="none" xmlns="http://www.w3.org/2000/svg"><path d="M100.000 475.000 L 100.000 850.000 163.000 850.000 L 226.000 850.000 226.000 475.000 L 226.000 100.000 163.000 100.000 L 100.000 100.000 100.000 475.000 M280.493 398.500 L 281.000 697.000 325.218 697.538 L 369.436 698.075 373.718 687.771 L 378.000 677.467 378.000 388.733 L 378.000 100.000 328.993 100.000 L 279.987 100.000 280.493 398.500 M446.000 342.214 C 446.000 540.931,446.470 584.248,448.617 583.424 C 450.056 582.871,455.878 578.950,461.555 574.710 C 467.232 570.469,478.879 563.289,487.438 558.754 L 503.000 550.509 503.509 325.254 L 504.017 100.000 475.009 100.000 L 446.000 100.000 446.000 342.214 M572.000 322.000 L 572.000 544.000 600.000 544.000 L 628.000 544.000 628.000 322.000 L 628.000 100.000 600.000 100.000 L 572.000 100.000 572.000 322.000 M696.491 323.267 L 697.000 546.534 714.636 554.173 C 738.009 564.297,762.286 580.700,779.761 598.175 L 794.000 612.414 794.000 356.207 L 794.000 100.000 744.991 100.000 L 695.983 100.000 696.491 323.267 M850.000 399.047 L 850.000 698.094 884.500 697.547 L 919.000 697.000 919.507 398.500 L 920.013 100.000 885.007 100.000 L 850.000 100.000 850.000 399.047 M974.000 475.000 L 974.000 850.000 1037.000 850.000 L 1100.000 850.000 1100.000 475.000 L 1100.000 100.000 1037.000 100.000 L 974.000 100.000 974.000 475.000 M566.538 602.128 C 547.282 604.633,530.379 609.456,514.390 617.007 C 449.326 647.736,420.000 720.125,420.000 850.000 C 420.000 1024.340,474.475 1100.000,600.000 1100.000 C 679.601 1100.000,729.761 1069.426,756.447 1004.642 C 772.835 964.856,780.000 917.816,780.000 850.000 C 780.000 689.803,735.147 615.052,631.204 602.019 C 612.798 599.711,584.757 599.758,566.538 602.128 M709.899 764.043 C 709.954 764.616,691.475 784.191,668.834 807.543 L 627.667 850.000 668.834 892.457 C 691.475 915.809,709.954 935.384,709.899 935.957 C 709.843 936.531,681.513 965.800,646.942 1001.000 L 584.087 1065.000 584.043 980.021 L 584.000 895.043 548.999 930.001 L 513.999 964.959 501.534 952.494 L 489.070 940.030 504.022 924.515 C 512.245 915.982,532.018 895.725,547.962 879.500 L 576.950 850.000 547.962 820.500 C 532.018 804.275,512.245 784.018,504.022 775.485 L 489.070 759.970 501.534 747.506 L 513.999 735.041 548.999 769.999 L 584.000 804.957 584.043 719.979 L 584.087 635.000 646.942 699.000 C 681.513 734.200,709.843 763.469,709.899 764.043 M620.000 764.001 L 620.000 804.925 639.944 785.056 L 659.888 765.187 645.574 750.093 C 637.701 741.792,628.727 732.317,625.630 729.038 L 620.000 723.077 620.000 764.001 M620.000 935.538 C 620.000 957.792,620.278 976.000,620.618 976.000 C 620.958 976.000,629.892 966.692,640.471 955.316 L 659.705 934.632 639.853 914.853 L 620.000 895.075 620.000 935.538 " fill="#1D1E23" stroke="none" fill-rule="evenodd"></path></svg>