<svg width="1200" height="1200" viewBox="0 0 1200 1200" fill="none" xmlns="http://www.w3.org/2000/svg"><path d="M100.000 325.000 L 100.000 550.000 175.000 550.000 L 250.000 550.000 250.000 325.000 L 250.000 100.000 175.000 100.000 L 100.000 100.000 100.000 325.000 M300.000 325.000 L 300.000 550.000 350.000 550.000 L 400.000 550.000 400.000 325.000 L 400.000 100.000 350.000 100.000 L 300.000 100.000 300.000 325.000 M450.000 325.000 L 450.000 550.000 475.000 550.000 L 500.000 550.000 500.000 325.000 L 500.000 100.000 475.000 100.000 L 450.000 100.000 450.000 325.000 M550.000 325.000 L 550.000 550.000 600.000 550.000 L 650.000 550.000 650.000 325.000 L 650.000 100.000 600.000 100.000 L 550.000 100.000 550.000 325.000 M700.000 325.000 L 700.000 550.000 751.000 550.000 L 802.000 550.000 802.000 325.000 L 802.000 100.000 751.000 100.000 L 700.000 100.000 700.000 325.000 M850.000 325.000 L 850.000 550.000 875.000 550.000 L 900.000 550.000 900.000 325.000 L 900.000 100.000 875.000 100.000 L 850.000 100.000 850.000 325.000 M950.000 325.000 L 950.000 550.000 1025.000 550.000 L 1100.000 550.000 1100.000 325.000 L 1100.000 100.000 1025.000 100.000 L 950.000 100.000 950.000 325.000 M100.000 625.000 L 100.000 650.000 250.000 650.000 L 400.000 650.000 400.000 625.000 L 400.000 600.000 250.000 600.000 L 100.000 600.000 100.000 625.000 M450.000 625.000 L 450.000 650.000 475.000 650.000 L 500.000 650.000 500.000 625.000 L 500.000 600.000 475.000 600.000 L 450.000 600.000 450.000 625.000 M550.000 650.000 L 550.000 700.000 600.000 700.000 L 650.000 700.000 650.000 775.000 L 650.000 850.000 625.000 850.000 L 600.000 850.000 600.000 825.000 L 600.000 800.000 575.000 800.000 L 550.000 800.000 550.000 825.000 L 550.000 850.000 575.000 850.000 L 600.000 850.000 600.000 875.000 L 600.000 900.000 575.000 900.000 L 550.000 900.000 550.000 1000.000 L 550.000 1100.000 675.000 1100.000 L 800.000 1100.000 800.000 1075.000 L 800.000 1050.000 750.000 1050.000 L 700.000 1050.000 700.000 1025.000 L 700.000 1000.000 750.000 1000.000 L 800.000 1000.000 800.000 975.000 L 800.000 950.000 825.000 950.000 L 850.000 950.000 850.000 1025.000 L 850.000 1100.000 900.000 1100.000 L 950.000 1100.000 950.000 1075.000 L 950.000 1050.000 975.000 1050.000 L 1000.000 1050.000 1000.000 1025.000 L 1000.000 1000.000 1025.000 1000.000 L 1050.000 1000.000 1050.000 1050.000 L 1050.000 1100.000 1075.000 1100.000 L 1100.000 1100.000 1100.000 1025.000 L 1100.000 950.000 1075.000 950.000 L 1050.000 950.000 1050.000 925.000 L 1050.000 900.000 1025.000 900.000 L 1000.000 900.000 1000.000 875.000 L 1000.000 850.000 1050.000 850.000 L 1100.000 850.000 1100.000 725.000 L 1100.000 600.000 1075.000 600.000 L 1050.000 600.000 1050.000 625.000 L 1050.000 650.000 1025.000 650.000 L 1000.000 650.000 1000.000 625.000 L 1000.000 600.000 975.000 600.000 L 950.000 600.000 950.000 650.000 L 950.000 700.000 925.000 700.000 L 900.000 700.000 900.000 675.000 L 900.000 650.000 875.000 650.000 L 850.000 650.000 850.000 625.000 L 850.000 600.000 750.000 600.000 L 650.000 600.000 650.000 625.000 L 650.000 650.000 625.000 650.000 L 600.000 650.000 600.000 625.000 L 600.000 600.000 575.000 600.000 L 550.000 600.000 550.000 650.000 M850.000 700.000 L 850.000 750.000 900.000 750.000 L 950.000 750.000 950.000 725.000 L 950.000 700.000 975.000 700.000 L 1000.000 700.000 1000.000 725.000 L 1000.000 750.000 1025.000 750.000 L 1050.000 750.000 1050.000 775.000 L 1050.000 800.000 1025.000 800.000 L 1000.000 800.000 1000.000 825.000 L 1000.000 850.000 975.000 850.000 L 950.000 850.000 950.000 875.000 L 950.000 900.000 900.000 900.000 L 850.000 900.000 850.000 875.000 L 850.000 850.000 825.000 850.000 L 800.000 850.000 800.000 900.000 L 800.000 950.000 750.000 950.000 L 700.000 950.000 700.000 975.000 L 700.000 1000.000 650.000 1000.000 L 600.000 1000.000 600.000 950.000 L 600.000 900.000 675.000 900.000 L 750.000 900.000 750.000 850.000 L 750.000 800.000 775.000 800.000 L 800.000 800.000 800.000 775.000 L 800.000 750.000 775.000 750.000 L 750.000 750.000 750.008 726.500 C 750.013 713.575,750.600 691.547,751.314 677.548 L 752.612 652.096 784.806 651.495 C 802.513 651.164,824.425 650.693,833.500 650.447 L 850.000 650.000 850.000 700.000 M100.000 900.000 L 100.000 1100.000 300.000 1100.000 L 500.000 1100.000 500.000 900.000 L 500.000 700.000 300.000 700.000 L 100.000 700.000 100.000 900.000 M450.000 900.000 L 450.000 1050.000 300.000 1050.000 L 150.000 1050.000 150.000 900.000 L 150.000 750.000 300.000 750.000 L 450.000 750.000 450.000 900.000 M950.000 775.000 L 950.000 800.000 975.000 800.000 L 1000.000 800.000 1000.000 775.000 L 1000.000 750.000 975.000 750.000 L 950.000 750.000 950.000 775.000 M850.000 825.000 L 850.000 850.000 875.000 850.000 L 900.000 850.000 900.000 825.000 L 900.000 800.000 875.000 800.000 L 850.000 800.000 850.000 825.000 M250.000 900.000 L 250.000 950.000 300.000 950.000 L 350.000 950.000 350.000 900.000 L 350.000 850.000 300.000 850.000 L 250.000 850.000 250.000 900.000 M1000.000 975.000 L 1000.000 1000.000 975.000 1000.000 L 950.000 1000.000 950.000 975.000 L 950.000 950.000 975.000 950.000 L 1000.000 950.000 1000.000 975.000 " fill="#1D1E23" stroke="none" fill-rule="evenodd"></path></svg>