<svg width="1200" height="1200" viewBox="0 0 1200 1200" fill="none" xmlns="http://www.w3.org/2000/svg"><path d="M100.000 600.000 L 100.000 1000.000 175.000 1000.000 L 250.000 1000.000 250.000 600.000 L 250.000 200.000 175.000 200.000 L 100.000 200.000 100.000 600.000 M300.000 550.000 L 300.000 900.000 350.000 900.000 L 400.000 900.000 400.000 550.000 L 400.000 200.000 350.000 200.000 L 300.000 200.000 300.000 550.000 M450.000 550.000 L 450.000 900.000 500.000 900.000 L 550.000 900.000 550.000 550.000 L 550.000 200.000 500.000 200.000 L 450.000 200.000 450.000 550.000 M600.000 550.000 L 600.000 900.000 625.000 900.000 L 650.000 900.000 650.000 550.000 L 650.000 200.000 625.000 200.000 L 600.000 200.000 600.000 550.000 M700.000 550.000 L 700.000 900.000 750.000 900.000 L 800.000 900.000 800.000 550.000 L 800.000 200.000 750.000 200.000 L 700.000 200.000 700.000 550.000 M850.000 550.000 L 850.000 900.000 875.000 900.000 L 900.000 900.000 900.000 550.000 L 900.000 200.000 875.000 200.000 L 850.000 200.000 850.000 550.000 M950.000 600.000 L 950.000 1000.000 1025.000 1000.000 L 1100.000 1000.000 1100.000 600.000 L 1100.000 200.000 1025.000 200.000 L 950.000 200.000 950.000 600.000 " fill="#1D1E23" stroke="none" fill-rule="evenodd"></path></svg>