<svg width="1200" height="1200" viewBox="0 0 1200 1200" fill="none" xmlns="http://www.w3.org/2000/svg"><path d="M100.000 475.000 L 100.000 850.000 163.000 850.000 L 226.000 850.000 226.000 475.000 L 226.000 100.000 163.000 100.000 L 100.000 100.000 100.000 475.000 M288.000 397.000 L 288.000 694.000 308.706 694.000 L 329.412 694.000 355.693 648.500 L 381.974 603.000 381.987 351.500 L 382.000 100.000 335.000 100.000 L 288.000 100.000 288.000 397.000 M444.000 363.962 L 444.000 627.924 448.500 628.946 C 463.045 632.249,471.277 633.908,473.334 633.951 C 474.617 633.978,482.492 613.525,490.834 588.499 L 506.000 542.998 506.000 321.499 L 506.000 100.000 475.000 100.000 L 444.000 100.000 444.000 363.962 M568.491 318.500 L 569.000 537.000 600.500 537.551 L 632.000 538.102 632.000 319.051 L 632.000 100.000 599.991 100.000 L 567.982 100.000 568.491 318.500 M694.000 321.499 L 694.000 542.998 709.166 588.499 C 717.508 613.525,725.017 634.000,725.854 634.000 C 726.691 634.000,740.707 631.300,757.000 628.000 C 773.293 624.700,786.934 622.000,787.312 622.000 C 787.690 622.000,788.000 504.550,788.000 361.000 L 788.000 100.000 741.000 100.000 L 694.000 100.000 694.000 321.499 M850.000 379.016 L 850.000 658.032 860.225 676.016 L 870.451 694.000 891.225 694.000 L 912.000 694.000 912.000 397.000 L 912.000 100.000 881.000 100.000 L 850.000 100.000 850.000 379.016 M974.000 475.000 L 974.000 850.000 1037.000 850.000 L 1100.000 850.000 1100.000 475.000 L 1100.000 100.000 1037.000 100.000 L 974.000 100.000 974.000 475.000 M540.061 638.814 L 527.238 677.629 515.269 683.314 C 508.685 686.441,499.632 691.646,495.150 694.879 L 487.000 700.759 449.000 693.116 C 428.100 688.913,410.100 685.139,409.000 684.730 C 407.284 684.091,395.916 702.672,366.507 754.190 L 360.013 765.565 386.507 795.515 L 413.000 825.465 412.824 850.173 L 412.648 874.881 386.824 904.338 C 372.621 920.539,361.269 934.874,361.598 936.193 C 362.029 937.917,404.554 1012.427,406.783 1015.362 C 406.934 1015.562,424.772 1012.076,446.423 1007.616 L 485.789 999.508 498.394 1007.463 C 505.327 1011.839,514.753 1017.331,519.339 1019.668 L 527.678 1023.917 540.300 1061.959 L 552.921 1100.000 599.969 1100.000 L 647.017 1100.000 660.008 1061.500 C 671.994 1025.982,673.465 1022.788,679.000 1020.266 C 682.300 1018.762,691.593 1013.481,699.652 1008.529 L 714.303 999.527 753.623 1007.626 C 775.248 1012.080,793.066 1015.562,793.217 1015.362 C 793.501 1014.988,838.023 937.976,839.241 935.752 C 839.617 935.065,828.017 921.013,813.463 904.524 L 787.000 874.545 787.201 849.803 L 787.403 825.062 812.973 796.031 C 827.037 780.064,838.601 766.221,838.672 765.269 C 838.934 761.743,792.927 684.019,791.000 684.733 C 789.900 685.141,771.900 688.913,751.000 693.116 L 713.000 700.759 704.850 694.879 C 700.368 691.646,691.315 686.441,684.731 683.314 L 672.762 677.629 659.939 638.814 L 647.115 600.000 600.000 600.000 L 552.885 600.000 540.061 638.814 M617.133 758.161 C 644.773 763.193,671.106 783.023,683.408 808.071 C 711.470 865.205,677.332 931.553,614.313 942.360 C 564.588 950.887,516.233 915.514,507.799 864.441 C 499.893 816.570,532.362 768.965,579.903 758.725 C 594.262 755.633,602.557 755.507,617.133 758.161 " fill="#1D1E23" stroke="none" fill-rule="evenodd"></path></svg>