<svg width="1200" height="1200" viewBox="0 0 1200 1200" fill="none" xmlns="http://www.w3.org/2000/svg"><path d="M100.000 475.000 L 100.000 850.000 163.000 850.000 L 226.000 850.000 226.000 475.000 L 226.000 100.000 163.000 100.000 L 100.000 100.000 100.000 475.000 M288.000 397.000 L 288.000 694.000 335.000 694.000 L 382.000 694.000 382.000 397.000 L 382.000 100.000 335.000 100.000 L 288.000 100.000 288.000 397.000 M444.000 397.000 L 444.000 694.000 475.000 694.000 L 506.000 694.000 506.000 397.000 L 506.000 100.000 475.000 100.000 L 444.000 100.000 444.000 397.000 M568.000 397.000 L 568.000 694.000 600.000 694.000 L 632.000 694.000 632.000 397.000 L 632.000 100.000 600.000 100.000 L 568.000 100.000 568.000 397.000 M694.000 397.000 C 694.000 634.316,694.506 694.000,696.517 694.000 C 697.901 694.000,719.051 673.968,743.517 649.484 L 788.000 604.967 788.000 352.484 L 788.000 100.000 741.000 100.000 L 694.000 100.000 694.000 397.000 M850.000 352.524 L 850.000 605.048 881.000 636.000 L 912.000 666.952 912.000 383.476 L 912.000 100.000 881.000 100.000 L 850.000 100.000 850.000 352.524 M974.000 475.000 L 974.000 850.000 1037.000 850.000 L 1100.000 850.000 1100.000 475.000 L 1100.000 100.000 1037.000 100.000 L 974.000 100.000 974.000 475.000 M661.504 819.493 L 506.010 974.986 443.487 912.487 L 380.964 849.988 349.998 881.002 L 319.032 912.016 413.010 1006.010 L 506.988 1100.004 693.494 913.506 C 796.072 810.932,880.000 726.095,880.000 724.979 C 880.000 722.364,821.592 664.000,818.974 664.000 C 817.887 664.000,747.025 733.972,661.504 819.493 " fill="#1D1E23" stroke="none" fill-rule="evenodd"></path></svg>