<svg width="1200" height="1200" viewBox="0 0 1200 1200" fill="none" xmlns="http://www.w3.org/2000/svg"><path d="M100.000 475.000 L 100.000 850.000 163.000 850.000 L 226.000 850.000 226.000 475.000 L 226.000 100.000 163.000 100.000 L 100.000 100.000 100.000 475.000 M288.000 366.000 L 288.000 632.000 335.000 632.000 L 382.000 632.000 382.000 366.000 L 382.000 100.000 335.000 100.000 L 288.000 100.000 288.000 366.000 M444.000 366.000 L 444.000 632.000 475.000 632.000 L 506.000 632.000 506.000 366.000 L 506.000 100.000 475.000 100.000 L 444.000 100.000 444.000 366.000 M568.493 365.500 L 569.000 631.000 600.500 631.551 L 632.000 632.102 632.000 366.051 L 632.000 100.000 599.993 100.000 L 567.985 100.000 568.493 365.500 M694.000 366.000 L 694.000 632.000 741.000 632.000 L 788.000 632.000 788.000 366.000 L 788.000 100.000 741.000 100.000 L 694.000 100.000 694.000 366.000 M850.000 366.000 L 850.000 632.000 881.000 632.000 L 912.000 632.000 912.000 366.000 L 912.000 100.000 881.000 100.000 L 850.000 100.000 850.000 366.000 M974.000 475.000 L 974.000 850.000 1037.000 850.000 L 1100.000 850.000 1100.000 475.000 L 1100.000 100.000 1037.000 100.000 L 974.000 100.000 974.000 475.000 M290.000 727.011 C 290.000 728.970,598.364 1098.000,600.000 1098.000 C 601.636 1098.000,910.000 728.970,910.000 727.011 C 910.000 726.455,770.500 726.000,600.000 726.000 C 429.500 726.000,290.000 726.455,290.000 727.011 " fill="#1D1E23" stroke="none" fill-rule="evenodd"></path></svg>