<svg width="1200" height="1200" viewBox="0 0 1200 1200" fill="none" xmlns="http://www.w3.org/2000/svg"><path d="M406.729 202.059 C 403.281 203.124,396.081 206.921,390.729 210.498 C 381.000 217.000,380.997 217.006,310.071 358.326 L 239.142 499.652 190.071 500.391 C 134.896 501.222,132.769 501.678,117.195 516.034 C 102.719 529.377,99.510 540.599,100.331 575.000 C 100.968 601.652,101.284 603.513,106.898 613.647 C 117.169 632.189,134.086 642.000,155.786 642.000 L 167.069 642.000 203.759 821.293 C 223.938 919.904,241.718 1003.624,243.270 1007.337 C 247.658 1017.839,259.015 1029.061,270.517 1034.261 L 281.000 1039.000 600.000 1039.000 L 919.000 1039.000 929.000 1034.393 C 941.549 1028.611,949.100 1021.510,954.937 1010.000 C 958.164 1003.638,970.260 948.381,996.201 821.500 L 1032.900 642.000 1044.199 642.000 C 1065.914 642.000,1082.828 632.194,1093.102 613.647 C 1098.897 603.185,1099.000 602.478,1099.000 573.000 C 1099.000 545.907,1098.573 542.202,1094.596 534.767 C 1087.283 521.098,1079.790 513.731,1067.086 507.721 L 1055.000 502.003 1007.503 502.002 L 960.006 502.000 891.003 364.006 C 819.042 220.095,814.902 212.974,799.000 205.731 C 786.228 199.914,766.935 200.705,753.765 207.585 C 733.726 218.054,722.728 240.890,727.876 261.338 C 729.112 266.245,756.197 322.401,788.065 386.130 L 846.007 502.000 599.003 502.000 C 463.152 502.000,352.000 501.566,352.000 501.036 C 352.000 500.506,378.625 446.731,411.167 381.536 C 475.150 253.352,474.057 256.150,468.206 235.584 C 464.925 224.052,454.321 211.265,443.430 205.709 C 434.178 200.989,416.038 199.185,406.729 202.059 M426.801 618.788 C 430.470 620.321,436.066 624.976,439.236 629.131 L 445.000 636.687 445.540 776.345 C 446.066 912.429,445.977 916.204,442.096 923.813 C 436.666 934.455,429.839 939.328,416.378 942.167 C 402.212 945.155,382.929 942.358,374.035 936.025 C 370.666 933.626,366.130 928.175,363.955 923.911 C 360.129 916.412,360.000 911.689,360.000 779.000 C 360.000 646.311,360.129 641.588,363.955 634.089 C 367.644 626.857,374.996 620.075,382.000 617.443 C 388.301 615.076,420.208 616.033,426.801 618.788 M626.157 620.548 C 629.868 623.049,634.951 628.132,637.452 631.843 L 642.000 638.592 642.000 778.395 C 642.000 931.440,642.557 924.127,630.092 934.616 C 622.477 941.023,605.088 944.779,591.367 942.979 C 576.612 941.044,565.293 933.934,560.192 923.397 C 556.062 914.865,556.000 912.728,556.000 778.683 L 556.000 642.629 560.650 633.815 C 567.916 620.042,576.744 616.073,600.204 616.033 C 616.900 616.004,620.290 616.594,626.157 620.548 M819.861 618.928 C 827.696 622.980,835.452 632.705,837.912 641.562 C 840.737 651.734,840.737 906.266,837.912 916.438 C 836.776 920.529,833.524 926.636,830.685 930.010 C 822.195 940.100,815.004 942.746,795.919 942.805 C 776.287 942.865,769.449 939.979,759.212 927.314 L 753.000 919.629 753.000 779.168 L 753.000 638.707 757.943 631.494 C 766.264 619.350,774.189 616.099,795.599 616.046 C 808.097 616.015,816.056 616.961,819.861 618.928 " fill="#1D1E23" stroke="none" fill-rule="evenodd"></path></svg>