<svg width="1200" height="1200" viewBox="0 0 1200 1200" fill="none" xmlns="http://www.w3.org/2000/svg"><path d="M532.171 103.434 C 527.315 105.149,519.581 110.314,514.983 114.911 C 502.584 127.311,500.000 137.028,500.000 171.265 L 500.000 199.818 425.452 200.409 L 350.904 201.000 337.536 207.584 C 323.003 214.742,313.067 224.747,305.613 239.728 L 301.000 249.000 301.000 649.000 L 301.000 1049.000 306.202 1060.091 C 313.627 1075.921,322.409 1084.966,337.629 1092.459 L 350.916 1099.000 600.000 1099.000 L 849.084 1099.000 862.458 1092.416 C 876.998 1085.258,886.931 1075.258,894.387 1060.272 L 899.000 1051.000 899.000 650.000 L 899.000 249.000 894.387 239.728 C 886.933 224.747,876.997 214.742,862.464 207.584 L 849.096 201.000 774.548 200.409 L 700.000 199.818 700.000 171.265 C 700.000 137.056,697.413 127.307,685.053 114.947 C 670.951 100.846,665.902 99.977,599.144 100.158 C 551.888 100.286,539.347 100.900,532.171 103.434 M638.257 429.133 C 649.788 435.096,650.000 437.023,650.000 535.936 L 650.000 626.000 683.847 626.000 C 717.290 626.000,717.766 626.061,723.810 631.147 C 727.175 633.978,730.970 639.774,732.244 644.025 C 735.206 653.913,737.547 649.069,657.383 798.915 C 615.240 877.689,592.543 918.111,589.005 920.688 C 582.441 925.469,571.016 925.662,562.271 921.140 C 550.142 914.868,550.000 913.641,550.000 815.064 L 550.000 726.000 519.500 725.997 C 485.892 725.993,479.120 724.230,471.188 713.414 C 462.393 701.422,462.001 702.329,536.045 563.173 C 590.913 460.057,606.226 432.809,611.000 429.798 C 618.300 425.195,630.086 424.907,638.257 429.133 " fill="#1D1E23" stroke="none" fill-rule="evenodd"></path></svg>