<svg width="1200" height="1200" viewBox="0 0 1200 1200" fill="none" xmlns="http://www.w3.org/2000/svg"><path d="M500.000 150.000 L 500.000 200.000 400.000 200.000 L 300.000 200.000 300.000 650.000 L 300.000 1100.000 600.000 1100.000 L 900.000 1100.000 900.000 650.000 L 900.000 200.000 800.000 200.000 L 700.000 200.000 700.000 150.000 L 700.000 100.000 600.000 100.000 L 500.000 100.000 500.000 150.000 M650.000 575.000 L 650.000 700.000 600.000 700.000 L 550.000 700.000 550.000 575.000 L 550.000 450.000 600.000 450.000 L 650.000 450.000 650.000 575.000 M650.000 850.000 L 650.000 900.000 600.000 900.000 L 550.000 900.000 550.000 850.000 L 550.000 800.000 600.000 800.000 L 650.000 800.000 650.000 850.000 " fill="#1D1E23" stroke="none" fill-rule="evenodd"></path></svg>