<svg width="1200" height="1200" viewBox="0 0 1200 1200" fill="none" xmlns="http://www.w3.org/2000/svg"><path d="M500.000 150.000 L 500.000 200.000 400.000 200.000 L 300.000 200.000 300.000 650.000 L 300.000 1100.000 600.000 1100.000 L 900.000 1100.000 900.000 650.000 L 900.000 200.000 800.000 200.000 L 700.000 200.000 700.000 150.000 L 700.000 100.000 600.000 100.000 L 500.000 100.000 500.000 150.000 M699.014 626.000 C 725.956 626.000,748.000 626.564,748.000 627.254 C 748.000 627.943,703.675 711.614,649.500 813.189 L 551.000 997.870 550.486 861.935 L 549.972 726.000 500.986 726.000 C 465.985 726.000,452.000 725.357,452.000 723.746 C 452.000 722.507,496.325 638.386,550.500 536.811 L 649.000 352.130 649.514 489.065 L 650.028 626.000 699.014 626.000 " fill="#1D1E23" stroke="none" fill-rule="evenodd"></path></svg>