<svg width="1200" height="1200" viewBox="0 0 1200 1200" fill="none" xmlns="http://www.w3.org/2000/svg"><path d="M556.000 101.962 C 416.815 115.884,295.232 181.194,209.663 288.000 C 73.683 457.729,63.352 695.839,184.124 876.644 C 338.485 1107.735,647.309 1169.297,878.000 1014.964 C 1107.746 861.264,1168.863 552.043,1014.964 322.000 C 936.423 204.599,815.946 128.109,674.644 105.934 C 645.457 101.354,582.987 99.262,556.000 101.962 M637.000 202.067 C 728.175 210.617,811.670 249.020,877.725 312.786 C 1001.561 432.329,1034.873 618.574,960.039 773.000 C 948.729 796.339,933.747 821.049,921.428 836.684 L 915.373 844.367 635.778 564.778 C 413.656 342.660,356.645 284.632,358.430 282.482 C 363.664 276.175,404.620 250.728,426.896 239.942 C 492.142 208.350,564.642 195.280,637.000 202.067 M844.000 916.127 C 844.000 916.750,832.924 924.607,819.386 933.586 C 702.022 1011.428,553.548 1021.417,426.426 960.024 C 385.300 940.162,355.704 919.425,322.290 887.060 C 286.688 852.575,262.768 819.662,240.851 775.000 C 187.186 665.646,186.856 536.585,239.961 427.000 C 251.271 403.661,266.253 378.951,278.572 363.316 L 284.627 355.633 564.314 635.314 C 718.141 789.138,844.000 915.504,844.000 916.127 " fill="#1D1E23" stroke="none" fill-rule="evenodd"></path></svg>