<svg width="1200" height="1200" viewBox="0 0 1200 1200" fill="none" xmlns="http://www.w3.org/2000/svg"><path d="M565.000 101.199 C 510.546 106.765,462.206 117.544,423.074 132.845 C 184.501 226.128,53.758 475.862,115.158 721.000 C 159.715 898.894,301.106 1040.285,479.000 1084.842 C 552.654 1103.290,632.796 1104.682,704.838 1088.765 C 898.675 1045.938,1049.225 893.844,1089.656 700.000 C 1097.320 663.256,1098.955 645.677,1098.955 600.000 C 1098.955 554.323,1097.320 536.744,1089.656 500.000 C 1069.627 403.973,1023.163 317.856,953.887 248.366 C 877.356 171.600,779.313 121.744,673.617 105.847 C 648.168 102.019,583.887 99.269,565.000 101.199 M661.434 205.013 C 743.794 217.659,821.628 257.495,882.067 317.933 C 942.967 378.834,982.137 455.818,995.406 540.691 C 1000.106 570.754,1000.020 632.914,995.240 660.988 C 986.511 712.251,971.426 754.598,946.535 797.715 C 937.817 812.818,916.799 844.000,915.337 844.000 C 915.149 844.000,789.133 718.136,635.302 564.302 L 355.610 284.605 369.590 274.437 C 385.649 262.756,417.880 243.806,433.989 236.573 C 478.041 216.795,513.172 207.645,570.000 201.151 C 584.120 199.537,641.578 201.964,661.434 205.013 M565.862 634.862 C 803.933 872.937,844.350 914.169,842.195 916.765 C 838.258 921.509,802.826 944.518,784.000 954.556 C 748.529 973.470,701.989 988.732,656.792 996.272 C 647.320 997.853,624.592 998.907,600.000 998.907 C 556.089 998.907,542.667 997.362,503.502 987.798 C 348.837 950.030,229.551 818.939,204.594 659.309 C 199.894 629.246,199.980 567.086,204.760 539.012 C 213.474 487.840,228.469 445.546,252.880 403.285 C 264.652 382.906,283.306 356.000,285.663 356.000 C 286.401 356.000,412.491 481.488,565.862 634.862 " fill="#1D1E23" stroke="none" fill-rule="evenodd"></path></svg>