<svg width="1200" height="1200" viewBox="0 0 1200 1200" fill="none" xmlns="http://www.w3.org/2000/svg"><path d="M556.000 101.962 C 416.815 115.884,295.232 181.194,209.663 288.000 C 73.683 457.729,63.352 695.839,184.124 876.644 C 338.485 1107.735,647.309 1169.297,878.000 1014.964 C 1107.746 861.264,1168.863 552.043,1014.964 322.000 C 936.423 204.599,815.946 128.109,674.644 105.934 C 645.457 101.354,582.987 99.262,556.000 101.962 M637.000 202.067 C 666.134 204.799,701.249 212.171,727.590 221.085 C 764.476 233.568,810.041 257.578,836.684 278.572 L 844.367 284.627 564.778 564.222 C 342.660 786.344,284.632 843.355,282.482 841.570 C 280.994 840.335,273.439 829.848,265.694 818.266 C 188.773 703.233,179.141 550.749,240.851 425.000 C 262.547 380.788,286.581 347.609,321.320 313.909 C 355.346 280.902,382.681 261.634,425.000 240.826 C 490.494 208.622,563.867 195.208,637.000 202.067 M934.306 381.734 C 1011.315 496.899,1020.847 649.038,958.972 775.424 C 878.566 939.661,700.282 1027.532,520.000 991.780 C 465.317 980.936,408.330 954.983,357.000 917.547 C 355.874 916.726,477.299 793.769,634.906 636.136 C 857.276 413.728,915.368 356.645,917.518 358.430 C 919.006 359.665,926.561 370.152,934.306 381.734 " fill="#1D1E23" stroke="none" fill-rule="evenodd"></path></svg>