<svg width="1200" height="1200" viewBox="0 0 1200 1200" fill="none" xmlns="http://www.w3.org/2000/svg"><path d="M392.665 103.702 C 356.701 116.130,340.116 156.670,356.933 191.042 C 367.419 212.474,386.886 223.711,419.000 226.867 C 548.148 239.559,677.413 298.686,776.739 390.499 C 882.071 487.864,953.590 625.735,971.007 765.000 C 976.749 810.910,981.858 823.824,999.645 837.390 C 1037.213 866.044,1093.705 841.858,1099.286 794.730 C 1101.733 774.073,1088.986 696.798,1075.082 648.000 C 1038.785 520.609,974.553 410.588,883.000 318.986 C 822.232 258.186,761.052 214.389,683.000 175.812 C 604.685 137.104,528.648 114.148,442.317 103.146 C 411.377 99.203,405.494 99.269,392.665 103.702 M142.665 353.572 C 124.011 360.253,110.994 373.108,103.853 391.903 C 100.129 401.704,100.000 409.849,100.008 635.521 C 100.017 894.474,99.711 887.678,113.172 927.919 C 126.220 966.926,145.263 997.433,175.138 1027.189 C 226.209 1078.057,302.907 1105.591,372.312 1097.971 C 418.194 1092.934,452.453 1080.762,488.735 1056.609 C 560.950 1008.533,602.764 926.651,599.349 840.000 C 595.746 748.598,542.258 666.842,459.000 625.479 C 393.518 592.947,311.853 592.025,246.302 623.076 C 235.941 627.984,227.176 632.000,226.822 632.000 C 226.469 632.000,225.915 579.575,225.590 515.500 C 225.004 399.846,224.968 398.930,220.542 389.341 C 213.642 374.390,205.279 365.239,192.093 358.211 C 176.376 349.834,157.935 348.103,142.665 353.572 M398.294 356.150 C 380.526 359.644,363.605 373.694,355.241 391.898 C 348.677 406.186,349.290 429.519,356.622 444.448 C 362.482 456.381,373.584 467.449,385.248 472.984 C 389.003 474.766,404.883 478.848,420.538 482.057 C 541.824 506.915,637.152 581.078,689.110 691.000 C 702.863 720.094,710.794 744.389,717.913 779.231 C 721.138 795.012,725.234 810.997,727.016 814.752 C 732.551 826.416,743.619 837.518,755.552 843.378 C 770.550 850.743,793.806 851.325,808.245 844.695 C 828.503 835.394,842.636 815.851,845.114 793.714 C 847.483 772.542,831.396 706.712,812.689 661.029 C 786.479 597.025,745.702 536.853,696.981 490.286 C 625.458 421.926,537.437 376.478,442.665 358.974 C 413.867 353.655,411.688 353.517,398.294 356.150 M390.000 731.871 C 426.299 744.383,454.858 772.648,467.573 808.648 C 474.327 827.772,476.014 861.043,471.184 879.894 C 452.941 951.106,378.027 991.749,308.867 967.954 C 269.762 954.500,238.544 919.959,229.035 879.623 C 225.126 863.042,225.195 834.688,229.181 819.289 C 240.630 775.066,275.555 740.065,319.202 729.071 C 336.823 724.633,373.171 726.070,390.000 731.871 " fill="#1D1E23" stroke="none" fill-rule="evenodd"></path></svg>