<svg width="1200" height="1200" viewBox="0 0 1200 1200" fill="none" xmlns="http://www.w3.org/2000/svg"><path d="M265.000 101.383 C 187.710 112.267,126.780 165.612,105.531 241.000 L 101.021 257.000 100.437 500.000 C 99.787 770.181,99.490 763.039,113.077 803.643 C 138.081 878.367,197.196 937.805,270.446 961.872 C 303.115 972.606,317.271 974.320,382.500 975.436 L 444.000 976.488 444.000 981.784 C 444.000 990.937,451.992 1016.400,459.123 1029.967 C 472.346 1055.126,494.166 1076.950,517.176 1088.031 C 540.376 1099.204,547.518 1099.938,633.355 1099.970 C 678.821 1099.988,718.243 1099.091,727.273 1097.835 C 762.788 1092.896,794.663 1078.574,832.262 1050.663 C 874.446 1019.347,891.332 1011.424,923.749 1007.738 C 974.164 1002.005,1009.006 1018.058,1026.284 1054.979 C 1030.972 1064.997,1035.566 1082.562,1037.930 1099.500 C 1037.969 1099.775,1052.074 1100.000,1069.276 1100.000 L 1100.552 1100.000 1099.238 1087.170 C 1094.784 1043.693,1073.056 1000.048,1044.382 976.980 C 1030.106 965.495,1005.258 953.227,987.000 948.649 C 965.589 943.280,914.807 943.759,891.566 949.550 C 859.585 957.518,839.967 967.674,801.000 996.436 C 769.940 1019.361,746.692 1030.868,723.238 1034.926 C 697.565 1039.369,567.412 1039.391,552.476 1034.956 C 533.501 1029.321,512.092 1004.163,507.194 981.744 L 506.046 976.488 567.523 975.436 C 632.727 974.320,646.887 972.605,679.554 961.872 C 752.789 937.810,812.171 878.105,836.825 803.746 C 850.603 762.192,850.259 770.369,849.576 500.000 L 848.963 257.000 844.461 241.000 C 825.557 173.813,774.705 123.436,707.787 105.603 L 691.000 101.130 481.000 100.834 C 365.500 100.671,268.300 100.918,265.000 101.383 M709.000 138.489 C 735.014 147.415,753.009 158.607,772.201 177.799 C 791.393 196.991,802.585 214.986,811.511 241.000 L 817.000 257.000 817.000 509.000 L 817.000 761.000 811.638 780.412 C 789.991 858.773,731.415 916.509,652.339 937.428 C 634.929 942.034,628.263 942.639,585.500 943.501 L 538.000 944.459 538.000 928.229 L 538.000 912.000 578.824 912.000 C 624.360 912.000,638.878 910.015,666.358 900.031 C 697.224 888.817,732.923 861.254,753.175 833.000 C 769.260 810.560,781.773 778.482,785.835 749.273 C 787.274 738.931,788.000 664.320,788.000 526.855 L 788.000 320.000 475.000 320.000 L 162.000 320.000 162.000 526.855 C 162.000 664.320,162.726 738.931,164.165 749.273 C 171.795 804.131,201.566 850.927,248.642 882.058 C 283.472 905.091,311.748 912.000,371.176 912.000 L 412.000 912.000 412.000 928.229 L 412.000 944.459 364.500 943.501 C 321.737 942.639,315.071 942.034,297.661 937.428 C 218.585 916.509,160.009 858.773,138.362 780.412 L 133.000 761.000 133.000 509.000 L 133.000 257.000 138.489 241.000 C 154.391 194.651,188.786 158.313,232.612 141.560 C 257.261 132.137,254.311 132.243,480.000 132.633 L 693.000 133.000 709.000 138.489 M392.000 163.386 C 380.703 167.664,378.035 182.591,387.270 189.855 C 392.407 193.896,394.605 194.000,475.000 194.000 C 555.395 194.000,557.593 193.896,562.730 189.855 C 569.556 184.486,570.107 172.527,563.792 166.810 C 559.812 163.207,555.118 162.980,477.292 162.625 C 432.031 162.419,393.650 162.761,392.000 163.386 M287.520 475.500 L 287.000 569.000 256.500 569.552 L 226.000 570.104 226.000 476.052 L 226.000 382.000 257.020 382.000 L 288.040 382.000 287.520 475.500 M350.000 444.000 L 350.000 506.000 335.000 506.000 L 320.000 506.000 320.000 444.000 L 320.000 382.000 335.000 382.000 L 350.000 382.000 350.000 444.000 M412.000 444.000 L 412.000 506.000 397.000 506.000 L 382.000 506.000 382.000 444.000 L 382.000 382.000 397.000 382.000 L 412.000 382.000 412.000 444.000 M506.000 444.000 L 506.000 506.000 475.000 506.000 L 444.000 506.000 444.000 444.000 L 444.000 382.000 475.000 382.000 L 506.000 382.000 506.000 444.000 M568.000 444.000 L 568.000 506.000 553.000 506.000 L 538.000 506.000 538.000 444.000 L 538.000 382.000 553.000 382.000 L 568.000 382.000 568.000 444.000 M662.000 476.000 L 662.000 570.000 631.000 570.000 L 600.000 570.000 600.000 476.000 L 600.000 382.000 631.000 382.000 L 662.000 382.000 662.000 476.000 M287.520 725.500 L 287.000 819.000 256.500 819.552 L 226.000 820.104 226.000 726.052 L 226.000 632.000 257.020 632.000 L 288.040 632.000 287.520 725.500 M350.000 694.000 L 350.000 756.000 335.000 756.000 L 320.000 756.000 320.000 694.000 L 320.000 632.000 335.000 632.000 L 350.000 632.000 350.000 694.000 M412.000 694.000 L 412.000 756.000 397.000 756.000 L 382.000 756.000 382.000 694.000 L 382.000 632.000 397.000 632.000 L 412.000 632.000 412.000 694.000 M474.000 694.000 L 474.000 756.000 459.000 756.000 L 444.000 756.000 444.000 694.000 L 444.000 632.000 459.000 632.000 L 474.000 632.000 474.000 694.000 M568.000 694.000 L 568.000 756.000 537.000 756.000 L 506.000 756.000 506.000 694.000 L 506.000 632.000 537.000 632.000 L 568.000 632.000 568.000 694.000 M662.000 726.000 L 662.000 820.000 631.000 820.000 L 600.000 820.000 600.000 726.000 L 600.000 632.000 631.000 632.000 L 662.000 632.000 662.000 726.000 " fill="#1D1E23" stroke="none" fill-rule="evenodd"></path></svg>