<svg width="1200" height="1200" viewBox="0 0 1200 1200" fill="none" xmlns="http://www.w3.org/2000/svg"><path d="M590.653 122.220 C 579.477 124.254,571.604 128.547,563.222 137.178 C 550.245 150.539,550.000 152.648,550.000 250.871 L 550.000 339.030 600.000 389.000 L 650.000 438.970 650.000 365.001 L 650.000 291.032 696.998 337.998 L 743.996 384.964 707.998 421.002 C 688.199 440.823,672.000 457.940,672.000 459.041 C 672.000 460.142,687.533 476.556,706.517 495.517 L 741.034 529.992 798.433 472.496 C 840.530 430.328,856.910 412.601,859.873 406.000 C 865.264 393.988,865.257 375.985,859.857 364.000 C 856.761 357.130,829.204 328.427,743.401 242.703 C 671.079 170.447,628.147 129.006,623.000 126.481 C 613.261 121.704,601.791 120.193,590.653 122.220 M259.000 221.775 C 249.673 224.194,241.573 229.049,234.724 236.329 C 221.290 250.608,217.503 266.283,222.920 285.196 L 226.301 297.000 377.617 448.497 L 528.933 599.994 402.621 726.497 C 276.673 852.635,276.299 853.034,272.924 864.804 C 267.364 884.197,272.053 901.857,286.325 915.276 C 300.622 928.718,316.292 932.500,335.196 927.070 C 346.906 923.707,347.810 922.872,448.500 822.385 L 550.000 721.090 550.000 879.294 C 550.000 1012.943,550.454 1038.783,552.923 1045.780 C 561.986 1071.470,590.280 1085.423,616.238 1077.006 C 626.328 1073.734,632.873 1067.662,721.000 979.820 L 815.000 886.124 859.000 929.870 C 901.152 971.779,903.496 973.760,914.804 977.038 C 934.885 982.860,952.460 977.831,966.557 962.228 C 975.318 952.529,981.029 935.182,979.033 924.331 C 975.302 904.055,984.462 913.649,636.578 565.638 C 408.620 337.596,300.432 230.694,294.140 227.269 C 284.071 221.789,268.398 219.339,259.000 221.775 M697.516 768.516 L 744.000 815.032 697.000 862.000 L 650.000 908.968 650.000 815.484 C 650.000 764.068,650.232 722.000,650.516 722.000 C 650.800 722.000,671.950 742.932,697.516 768.516 " fill="#1D1E23" stroke="none" fill-rule="evenodd"></path></svg>