<svg width="1200" height="1200" viewBox="0 0 1200 1200" fill="none" xmlns="http://www.w3.org/2000/svg"><path d="M550.000 289.493 L 550.000 478.987 435.493 364.493 L 320.986 249.999 285.492 285.494 L 249.998 320.988 389.494 460.494 L 528.989 600.000 389.494 739.506 L 249.998 879.012 285.492 914.506 L 320.986 950.001 435.493 835.507 L 550.000 721.013 550.000 910.507 L 550.000 1100.000 575.495 1100.000 L 600.990 1100.000 743.494 957.506 L 885.998 815.012 778.506 707.506 L 671.014 600.000 778.506 492.494 L 885.998 384.988 743.494 242.494 L 600.990 100.000 575.495 100.000 L 550.000 100.000 550.000 289.493 M697.516 338.516 L 744.000 385.032 697.000 432.000 L 650.000 478.968 650.000 385.484 C 650.000 334.068,650.232 292.000,650.516 292.000 C 650.800 292.000,671.950 312.932,697.516 338.516 M697.516 768.516 L 744.000 815.032 697.000 862.000 L 650.000 908.968 650.000 815.484 C 650.000 764.068,650.232 722.000,650.516 722.000 C 650.800 722.000,671.950 742.932,697.516 768.516 " fill="#1D1E23" stroke="none" fill-rule="evenodd"></path></svg>