<svg width="1200" height="1200" viewBox="0 0 1200 1200" fill="none" xmlns="http://www.w3.org/2000/svg"><path d="M550.000 225.515 L 550.000 351.030 600.000 401.000 L 650.000 450.970 650.000 371.001 L 650.000 291.032 696.999 337.999 L 743.998 384.966 703.998 425.002 L 663.997 465.039 699.514 500.514 L 735.030 535.990 810.513 460.487 L 885.996 384.985 743.493 242.493 L 600.990 100.000 575.495 100.000 L 550.000 100.000 550.000 225.515 M235.494 235.492 L 199.997 270.988 364.494 435.494 L 528.990 599.999 389.494 739.506 L 249.998 879.012 285.492 914.506 L 320.986 950.001 435.493 835.507 L 550.000 721.013 550.000 910.507 L 550.000 1100.000 575.507 1100.000 L 601.014 1100.000 707.997 993.003 L 814.980 886.006 872.007 943.007 L 929.034 1000.008 964.508 964.493 L 999.982 928.978 635.486 564.486 L 270.991 199.995 235.494 235.492 M697.516 768.516 L 744.000 815.032 697.000 862.000 L 650.000 908.968 650.000 815.484 C 650.000 764.068,650.232 722.000,650.516 722.000 C 650.800 722.000,671.950 742.932,697.516 768.516 " fill="#1D1E23" stroke="none" fill-rule="evenodd"></path></svg>