<svg width="1200" height="1200" viewBox="0 0 1200 1200" fill="none" xmlns="http://www.w3.org/2000/svg"><path d="M450.000 289.493 L 450.000 478.987 335.493 364.493 L 220.986 249.999 185.492 285.494 L 149.998 320.988 289.494 460.494 L 428.989 600.000 289.494 739.506 L 149.998 879.012 185.492 914.506 L 220.986 950.001 335.493 835.507 L 450.000 721.013 450.000 910.507 L 450.000 1100.000 475.495 1100.000 L 500.990 1100.000 643.494 957.506 L 785.998 815.012 678.506 707.506 L 571.014 600.000 678.506 492.494 L 785.998 384.988 643.494 242.494 L 500.990 100.000 475.495 100.000 L 450.000 100.000 450.000 289.493 M597.516 338.516 L 644.000 385.032 597.000 432.000 L 550.000 478.968 550.000 385.484 C 550.000 334.068,550.232 292.000,550.516 292.000 C 550.800 292.000,571.950 312.932,597.516 338.516 M945.197 367.803 L 913.634 399.412 918.580 409.206 C 934.995 441.715,948.750 484.779,956.206 527.000 C 960.055 548.801,960.813 560.268,960.898 598.000 C 961.007 646.234,959.512 660.281,949.937 701.000 C 943.256 729.409,934.914 753.691,922.546 780.735 L 913.520 800.470 943.260 830.301 C 977.445 864.590,971.955 864.112,988.652 834.257 C 1060.954 704.977,1069.847 547.080,1012.713 407.000 C 1004.752 387.480,985.497 348.861,979.107 339.597 C 977.047 336.612,972.886 340.073,945.197 367.803 M769.487 543.513 L 712.000 601.026 769.902 658.902 C 826.158 715.133,827.859 716.630,829.777 711.585 C 834.499 699.166,842.080 671.608,845.344 655.000 C 850.285 629.857,850.287 570.163,845.348 545.000 C 841.451 525.145,830.054 486.000,828.170 486.000 C 827.512 486.000,801.105 511.881,769.487 543.513 M597.516 768.516 L 644.000 815.032 597.000 862.000 L 550.000 908.968 550.000 815.484 C 550.000 764.068,550.232 722.000,550.516 722.000 C 550.800 722.000,571.950 742.932,597.516 768.516 " fill="#1D1E23" stroke="none" fill-rule="evenodd"></path></svg>