<svg width="1200" height="1200" viewBox="0 0 1200 1200" fill="none" xmlns="http://www.w3.org/2000/svg"><path d="M506.000 168.622 L 506.000 237.244 495.500 239.908 C 479.209 244.040,452.812 254.552,430.082 265.959 L 409.379 276.348 361.176 228.176 L 312.974 180.004 246.490 246.510 L 180.006 313.016 228.180 361.191 L 276.355 409.365 265.962 430.076 C 254.553 452.811,244.041 479.207,239.908 495.500 L 237.244 506.000 168.622 506.000 L 100.000 506.000 100.000 600.000 L 100.000 694.000 168.622 694.000 L 237.244 694.000 239.908 704.500 C 244.035 720.771,254.911 748.128,266.109 770.410 L 276.294 790.676 228.149 838.851 L 180.004 887.026 246.510 953.510 L 313.016 1019.994 361.191 971.820 L 409.365 923.645 430.076 934.038 C 452.811 945.447,479.207 955.959,495.500 960.092 L 506.000 962.756 506.000 1031.378 L 506.000 1100.000 600.000 1100.000 L 694.000 1100.000 694.000 1031.378 L 694.000 962.756 704.500 960.092 C 720.793 955.959,747.189 945.447,769.924 934.038 L 790.635 923.645 838.809 971.820 L 886.984 1019.994 953.490 953.510 L 1019.996 887.026 971.851 838.851 L 923.706 790.676 933.891 770.410 C 945.089 748.128,955.965 720.771,960.092 704.500 L 962.756 694.000 1031.378 694.000 L 1100.000 694.000 1100.000 600.000 L 1100.000 506.000 1031.378 506.000 L 962.756 506.000 960.092 495.500 C 955.960 479.209,945.448 452.812,934.041 430.082 L 923.652 409.379 971.824 361.176 L 1019.996 312.974 953.490 246.490 L 886.984 180.006 838.696 228.293 L 790.409 276.581 770.374 266.290 C 748.687 255.150,721.218 244.149,704.500 239.908 L 694.000 237.244 694.000 168.622 L 694.000 100.000 600.000 100.000 L 506.000 100.000 506.000 168.622 M703.005 537.995 L 641.024 600.000 703.005 662.005 L 764.985 724.009 670.493 818.502 L 576.000 912.995 576.000 789.012 L 576.000 665.029 524.473 716.527 L 472.946 768.025 453.999 748.999 L 435.051 729.972 500.014 664.986 L 564.977 600.000 500.014 535.014 L 435.051 470.028 453.999 451.001 L 472.946 431.975 524.473 483.473 L 576.000 534.971 576.000 410.988 L 576.000 287.005 670.493 381.498 L 764.985 475.991 703.005 537.995 M630.000 476.000 L 630.000 534.983 659.492 505.492 L 688.983 476.000 659.492 446.508 L 630.000 417.017 630.000 476.000 M630.000 724.000 L 630.000 782.983 659.492 753.492 L 688.983 724.000 659.492 694.508 L 630.000 665.017 630.000 724.000 " fill="#1D1E23" stroke="none" fill-rule="evenodd"></path></svg>