<svg width="1200" height="1200" viewBox="0 0 1200 1200" fill="none" xmlns="http://www.w3.org/2000/svg"><path d="M490.653 122.220 C 479.477 124.254,471.604 128.547,463.222 137.178 C 449.570 151.234,450.000 145.267,450.000 320.829 L 450.000 478.946 350.500 379.672 C 281.890 311.219,248.206 278.983,242.000 275.839 C 229.879 269.698,210.348 269.528,199.000 275.464 C 176.160 287.413,165.938 310.830,172.924 335.196 C 176.299 346.966,176.673 347.365,302.618 473.500 L 428.927 600.000 302.618 726.500 C 176.673 852.635,176.299 853.034,172.924 864.804 C 167.364 884.197,172.053 901.857,186.325 915.276 C 200.622 928.718,216.292 932.500,235.196 927.070 C 246.906 923.707,247.810 922.872,348.500 822.385 L 450.000 721.090 450.000 879.294 C 450.000 1050.730,449.717 1046.030,460.914 1060.709 C 463.702 1064.364,470.712 1069.954,476.491 1073.131 C 490.240 1080.687,508.420 1081.259,522.000 1074.561 C 535.323 1067.990,754.199 848.447,759.836 836.000 C 765.259 824.027,765.275 806.038,759.874 794.000 C 756.816 787.184,733.409 762.551,663.426 692.500 L 571.016 600.000 663.426 507.500 C 733.409 437.449,756.816 412.816,759.874 406.000 C 765.264 393.987,765.256 375.983,759.857 364.000 C 756.761 357.130,729.204 328.427,643.401 242.703 C 571.079 170.447,528.147 129.006,523.000 126.481 C 513.261 121.704,501.791 120.193,490.653 122.220 M597.516 338.516 L 644.000 385.032 597.000 432.000 L 550.000 478.968 550.000 385.484 C 550.000 334.068,550.232 292.000,550.516 292.000 C 550.800 292.000,571.950 312.932,597.516 338.516 M951.231 366.945 C 935.815 372.439,921.912 391.927,922.042 407.856 C 922.065 410.685,924.401 419.300,927.233 427.000 C 941.162 464.880,948.150 487.664,952.768 510.254 C 970.217 595.617,962.920 680.764,931.365 759.996 C 920.487 787.311,919.912 801.258,929.125 814.380 C 947.004 839.845,983.885 838.972,999.270 812.720 C 1017.212 782.104,1036.962 719.739,1045.418 667.000 C 1050.456 635.575,1050.388 556.188,1045.295 524.000 C 1038.570 481.493,1021.973 425.233,1006.514 392.537 C 995.469 369.177,973.500 359.007,951.231 366.945 M809.000 508.160 C 805.063 509.275,789.476 523.463,763.660 549.430 C 720.406 592.937,718.207 596.402,724.896 610.499 C 726.694 614.287,745.453 634.489,766.582 655.392 C 809.334 697.684,811.559 699.036,827.082 692.170 C 832.213 689.900,836.891 686.048,838.614 682.675 C 852.554 655.370,852.532 549.891,838.579 520.412 C 833.865 510.453,820.477 504.908,809.000 508.160 M597.516 768.516 L 644.000 815.032 597.000 862.000 L 550.000 908.968 550.000 815.484 C 550.000 764.068,550.232 722.000,550.516 722.000 C 550.800 722.000,571.950 742.932,597.516 768.516 " fill="#1D1E23" stroke="none" fill-rule="evenodd"></path></svg>