<svg width="1200" height="1200" viewBox="0 0 1200 1200" fill="none" xmlns="http://www.w3.org/2000/svg"><path d="M382.171 203.380 C 377.315 205.125,369.581 210.314,364.983 214.911 C 348.825 231.070,350.000 204.788,350.000 550.000 C 350.000 895.231,348.823 868.928,364.993 885.098 C 380.777 900.882,372.236 900.243,557.249 899.474 C 719.104 898.801,721.178 898.742,736.380 894.381 C 773.866 883.625,801.594 867.980,828.189 842.581 C 847.742 823.907,859.084 808.483,869.901 785.857 C 889.878 744.069,892.894 698.418,878.660 653.271 C 863.461 605.064,831.034 565.869,788.422 544.201 L 779.844 539.839 790.422 531.505 C 821.089 507.344,842.729 477.250,855.505 441.000 C 861.661 423.532,863.691 391.130,860.052 368.414 C 847.014 287.035,792.223 227.144,711.000 205.489 C 695.423 201.336,690.980 201.210,543.000 200.715 C 408.418 200.266,389.988 200.572,382.171 203.380 M682.067 332.435 C 696.194 339.373,710.627 353.806,717.565 367.933 C 722.431 377.841,723.000 381.200,723.000 400.000 C 723.000 418.800,722.431 422.159,717.565 432.067 C 706.789 454.008,685.106 470.064,660.898 474.029 C 654.354 475.100,615.475 475.982,574.500 475.988 L 500.000 476.000 500.000 400.919 L 500.000 325.838 585.500 326.419 L 671.000 327.000 682.067 332.435 M709.642 633.854 C 772.469 667.919,757.511 760.934,687.133 773.826 C 679.754 775.178,642.116 776.000,587.633 776.000 L 500.000 776.000 500.000 700.928 L 500.000 625.857 598.500 626.428 L 697.000 627.000 709.642 633.854 " fill="#1D1E23" stroke="none" fill-rule="evenodd"></path></svg>