<svg width="1200" height="1200" viewBox="0 0 1200 1200" fill="none" xmlns="http://www.w3.org/2000/svg"><path d="M350.000 549.974 L 350.000 900.134 541.500 899.528 L 733.000 898.922 748.940 894.318 C 828.129 871.446,880.886 805.842,887.184 722.408 C 892.623 650.364,851.589 576.322,788.422 544.201 L 779.844 539.839 790.422 531.505 C 821.089 507.344,842.729 477.250,855.505 441.000 C 861.661 423.532,863.691 391.130,860.052 368.414 C 847.014 287.036,792.286 227.210,711.000 205.477 C 695.345 201.291,691.279 201.184,522.500 200.507 L 350.000 199.814 350.000 549.974 M682.067 332.435 C 696.194 339.373,710.627 353.806,717.565 367.933 C 722.431 377.841,723.000 381.200,723.000 400.000 C 723.000 418.800,722.431 422.159,717.565 432.067 C 706.789 454.008,685.106 470.064,660.898 474.029 C 654.354 475.100,615.475 475.982,574.500 475.988 L 500.000 476.000 500.000 400.919 L 500.000 325.838 585.500 326.419 L 671.000 327.000 682.067 332.435 M709.642 633.854 C 772.469 667.919,757.511 760.934,687.133 773.826 C 679.754 775.178,642.116 776.000,587.633 776.000 L 500.000 776.000 500.000 700.928 L 500.000 625.857 598.500 626.428 L 697.000 627.000 709.642 633.854 " fill="#1D1E23" stroke="none" fill-rule="evenodd"></path></svg>