<svg width="1200" height="1200" viewBox="0 0 1200 1200" fill="none" xmlns="http://www.w3.org/2000/svg"><path d="M250.000 599.950 L 250.000 1049.901 254.500 1048.142 C 256.975 1047.175,335.725 1013.479,429.500 973.264 L 600.000 900.145 770.500 973.264 C 864.275 1013.479,943.025 1047.175,945.500 1048.142 L 950.000 1049.901 950.000 599.950 L 950.000 150.000 600.000 150.000 L 250.000 150.000 250.000 599.950 M850.000 575.027 L 850.000 900.054 843.500 897.278 C 839.925 895.751,784.123 871.439,719.495 843.251 C 654.867 815.063,601.061 792.000,599.926 792.000 C 598.791 792.000,545.019 815.066,480.431 843.259 C 415.844 871.451,360.075 895.763,356.500 897.285 L 350.000 900.054 350.000 575.027 L 350.000 250.000 600.000 250.000 L 850.000 250.000 850.000 575.027 " fill="#1D1E23" stroke="none" fill-rule="evenodd"></path></svg>