<svg width="1200" height="1200" viewBox="0 0 1200 1200" fill="none" xmlns="http://www.w3.org/2000/svg"><path d="M517.000 118.000 L 435.018 200.000 317.509 200.000 L 200.000 200.000 200.000 317.491 L 200.000 434.982 117.509 517.491 L 35.018 600.000 117.509 682.509 L 200.000 765.018 200.000 882.509 L 200.000 1000.000 317.491 1000.000 L 434.982 1000.000 517.491 1082.491 L 600.000 1164.982 682.509 1082.491 L 765.018 1000.000 882.509 1000.000 L 1000.000 1000.000 1000.000 882.509 L 1000.000 765.018 1082.491 682.509 L 1164.982 600.000 1082.491 517.491 L 1000.000 434.982 1000.000 317.491 L 1000.000 200.000 882.491 200.000 L 764.982 200.000 683.000 118.000 C 637.910 72.900,600.560 36.000,600.000 36.000 C 599.440 36.000,562.090 72.900,517.000 118.000 M631.579 302.113 C 732.848 313.131,818.354 371.670,866.099 462.670 C 892.207 512.431,903.563 569.821,898.339 625.598 C 890.886 705.172,857.651 771.004,797.646 825.047 C 750.362 867.634,684.679 895.052,619.749 899.307 L 600.000 900.601 600.000 600.301 L 600.000 300.000 606.079 300.000 C 609.422 300.000,620.897 300.951,631.579 302.113 " fill="#1D1E23" stroke="none" fill-rule="evenodd"></path></svg>