<svg width="1200" height="1200" viewBox="0 0 1200 1200" fill="none" xmlns="http://www.w3.org/2000/svg"><path d="M575.545 79.110 C 551.886 84.845,546.148 89.287,489.000 146.106 L 435.000 199.796 357.000 200.435 C 280.358 201.063,278.791 201.157,267.000 205.821 C 233.051 219.251,209.110 246.514,202.210 279.598 C 200.833 286.204,200.000 317.447,200.000 362.519 L 200.000 434.841 146.417 488.921 C 109.555 526.125,91.165 546.167,87.483 553.150 C 72.394 581.768,72.285 616.675,87.192 646.534 C 91.092 654.345,106.061 670.709,146.208 711.047 L 200.000 765.095 200.000 837.449 C 200.000 882.545,200.833 913.796,202.210 920.402 C 210.026 957.883,242.117 989.974,279.598 997.790 C 286.204 999.167,317.455 1000.000,362.550 1000.000 L 434.904 1000.000 487.952 1052.740 C 519.276 1083.883,544.994 1107.773,550.754 1111.079 C 571.885 1123.208,601.226 1127.108,624.917 1120.938 C 649.713 1114.479,657.550 1108.472,714.167 1052.532 L 767.334 1000.000 838.568 1000.000 C 882.847 1000.000,913.814 999.164,920.402 997.790 C 957.883 989.974,989.974 957.883,997.790 920.402 C 999.167 913.796,1000.000 882.545,1000.000 837.450 L 1000.000 765.096 1052.740 712.048 C 1083.883 680.724,1107.773 655.006,1111.079 649.246 C 1123.145 628.224,1127.108 598.773,1121.017 575.387 C 1114.774 551.418,1110.526 545.957,1053.792 488.953 L 1000.000 434.905 1000.000 362.551 C 1000.000 317.455,999.167 286.204,997.790 279.598 C 990.890 246.514,966.949 219.251,933.000 205.821 C 921.211 201.157,919.629 201.062,843.000 200.424 L 765.000 199.774 711.000 146.304 C 673.827 109.497,653.830 91.163,646.827 87.470 C 626.381 76.689,598.851 73.460,575.545 79.110 M676.654 310.284 C 769.836 333.378,851.851 409.737,883.641 503.000 C 895.313 537.241,898.660 558.857,898.660 600.000 C 898.660 641.143,895.313 662.759,883.641 697.000 C 853.697 784.847,781.040 856.514,693.138 884.909 C 662.267 894.881,649.964 896.969,638.738 894.143 C 621.413 889.780,606.612 875.129,601.918 857.694 C 600.650 852.985,600.130 758.956,600.470 595.675 L 601.000 341.000 605.299 332.974 C 613.096 318.417,625.395 308.813,640.000 305.878 C 648.324 304.205,655.703 305.092,676.654 310.284 " fill="#1D1E23" stroke="none" fill-rule="evenodd"></path></svg>