<svg width="1200" height="1200" viewBox="0 0 1200 1200" fill="none" xmlns="http://www.w3.org/2000/svg"><path d="M880.315 259.791 C 840.676 289.500,807.292 315.586,806.129 317.759 C 804.966 319.932,804.629 323.350,805.381 325.355 C 807.704 331.552,853.749 391.725,857.845 393.917 C 859.971 395.055,863.350 395.366,865.355 394.609 C 871.759 392.190,1011.718 286.264,1013.902 282.183 C 1017.031 276.337,1014.702 272.269,988.606 238.000 C 967.827 210.712,964.245 206.927,958.693 206.388 C 953.164 205.851,943.501 212.435,880.315 259.791 M510.000 384.501 L 403.000 449.000 291.000 450.012 L 179.000 451.024 167.000 455.796 C 132.990 469.321,109.107 496.525,102.210 529.598 C 99.262 543.737,99.262 656.263,102.210 670.402 C 110.026 707.883,142.117 739.974,179.598 747.790 C 185.428 749.005,203.653 750.000,220.098 750.000 L 250.000 750.000 250.007 840.500 C 250.015 926.732,250.199 931.302,253.919 937.403 C 260.688 948.505,266.212 950.001,300.401 949.993 C 327.221 949.986,331.791 949.503,337.403 946.081 C 350.147 938.310,350.000 939.547,350.000 840.099 L 350.000 750.000 374.820 750.000 L 399.640 750.000 508.031 815.000 C 567.645 850.750,618.351 880.104,620.710 880.230 C 628.373 880.642,632.899 879.663,638.468 876.390 C 650.660 869.223,650.000 885.046,650.000 600.000 C 650.000 314.218,650.711 330.827,638.159 323.412 C 624.537 315.365,625.271 315.015,510.000 384.501 M700.000 600.127 L 700.000 766.875 712.157 754.937 C 736.695 730.844,758.642 691.591,767.972 655.110 C 787.956 576.974,761.960 487.970,704.324 437.190 L 700.000 433.380 700.000 600.127 M904.000 554.000 C 900.254 557.746,900.000 560.667,900.000 600.000 C 900.000 639.333,900.254 642.254,904.000 646.000 C 907.884 649.884,910.667 650.000,1000.000 650.000 C 1089.333 650.000,1092.116 649.884,1096.000 646.000 C 1099.746 642.254,1100.000 639.333,1100.000 600.000 C 1100.000 560.667,1099.746 557.746,1096.000 554.000 C 1092.116 550.116,1089.333 550.000,1000.000 550.000 C 910.667 550.000,907.884 550.116,904.000 554.000 M852.604 810.500 C 846.945 816.720,809.025 868.348,806.099 873.816 C 804.169 877.421,804.321 879.192,806.899 883.127 C 810.101 888.013,948.049 992.056,954.720 994.616 C 956.683 995.369,960.029 995.055,962.155 993.917 C 966.010 991.854,1012.255 931.695,1014.364 926.000 C 1014.975 924.350,1014.732 921.002,1013.824 918.560 C 1012.883 916.030,981.150 890.869,940.043 860.060 C 863.404 802.620,861.008 801.262,852.604 810.500 " fill="#1D1E23" stroke="none" fill-rule="evenodd"></path></svg>