<svg width="1200" height="1200" viewBox="0 0 1200 1200" fill="none" xmlns="http://www.w3.org/2000/svg"><path d="M142.665 103.693 C 124.154 110.106,111.022 123.034,103.853 141.903 C 100.091 151.804,100.000 162.591,100.000 599.946 L 100.000 1047.850 104.308 1059.363 C 110.120 1074.898,125.102 1089.880,140.637 1095.692 L 152.150 1100.000 600.000 1100.000 L 1047.850 1100.000 1059.363 1095.692 C 1074.898 1089.880,1089.880 1074.898,1095.692 1059.363 L 1100.000 1047.850 1100.000 600.000 C 1100.000 154.599,1099.978 152.091,1095.933 141.281 C 1090.500 126.760,1078.447 113.496,1064.429 106.612 L 1053.000 101.000 603.000 100.556 C 175.096 100.134,152.493 100.288,142.665 103.693 M226.564 134.697 C 236.998 139.069,246.246 148.138,251.266 158.918 C 259.783 177.208,256.526 195.343,242.038 210.307 C 215.661 237.550,171.785 224.498,164.021 187.100 C 159.687 166.225,169.763 145.652,188.619 136.872 C 200.471 131.354,216.407 130.441,226.564 134.697 M356.272 137.587 C 393.742 157.100,385.619 214.888,344.156 223.780 C 315.347 229.958,288.000 207.664,288.000 178.000 C 288.000 142.802,324.639 121.114,356.272 137.587 M476.564 134.697 C 486.998 139.069,496.246 148.138,501.266 158.918 C 509.783 177.208,506.526 195.343,492.038 210.307 C 465.661 237.550,421.785 224.498,414.021 187.100 C 409.687 166.225,419.763 145.652,438.619 136.872 C 450.471 131.354,466.407 130.441,476.564 134.697 M1038.000 647.000 L 1038.000 1038.000 600.000 1038.000 L 162.000 1038.000 162.000 647.000 L 162.000 256.000 600.000 256.000 L 1038.000 256.000 1038.000 647.000 M372.804 352.971 C 338.173 360.506,307.603 387.230,294.177 421.707 L 289.000 435.000 288.458 657.549 C 287.975 855.791,288.263 881.439,291.101 892.389 C 300.949 930.394,329.243 959.028,369.105 971.329 C 380.337 974.796,393.200 975.000,600.000 975.000 C 806.800 975.000,819.663 974.796,830.895 971.329 C 870.344 959.156,899.222 929.981,908.874 892.549 C 911.744 881.417,912.027 856.501,911.542 657.549 L 911.000 435.000 906.442 423.000 C 893.061 387.765,861.874 360.426,826.515 352.933 C 807.304 348.862,391.530 348.897,372.804 352.971 M802.000 663.000 L 802.000 866.000 600.000 866.000 L 398.000 866.000 398.000 663.000 L 398.000 460.000 600.000 460.000 L 802.000 460.000 802.000 663.000 M506.000 663.000 L 506.000 756.000 600.000 756.000 L 694.000 756.000 694.000 663.000 L 694.000 570.000 600.000 570.000 L 506.000 570.000 506.000 663.000 " fill="#1D1E23" stroke="none" fill-rule="evenodd"></path></svg>