<svg width="1200" height="1200" viewBox="0 0 1200 1200" fill="none" xmlns="http://www.w3.org/2000/svg"><path d="M352.000 52.234 C 326.126 53.767,300.910 58.442,276.705 66.196 C 260.051 71.531,236.398 81.000,234.098 83.254 C 233.601 83.740,275.183 126.182,326.500 177.569 C 427.311 278.516,427.890 279.215,427.937 300.000 C 427.980 319.791,423.367 326.130,371.723 377.238 C 319.662 428.759,315.575 431.548,295.208 429.446 C 289.291 428.835,281.424 426.823,277.725 424.975 C 274.026 423.127,228.519 379.224,176.598 327.413 L 82.196 233.212 77.914 243.106 C 70.251 260.810,60.325 292.538,55.734 314.000 C 49.168 344.697,49.098 403.294,55.589 435.511 C 75.799 535.813,137.521 618.454,226.276 664.044 C 301.774 702.825,388.556 710.076,472.624 684.628 L 490.248 679.293 696.624 885.402 C 920.489 1108.978,910.708 1100.064,943.000 1109.919 C 987.566 1123.519,1035.323 1111.886,1069.681 1079.060 C 1087.410 1062.122,1097.918 1045.621,1105.381 1023.000 C 1112.731 1000.720,1113.124 969.843,1106.336 948.000 C 1095.912 914.461,1105.524 925.036,882.447 701.669 L 677.383 496.338 684.675 471.669 C 709.264 388.483,703.456 310.584,666.989 234.448 C 609.451 114.322,488.175 44.166,352.000 52.234 " fill="#1D1E23" stroke="none" fill-rule="evenodd"></path></svg>