<svg width="1200" height="1200" viewBox="0 0 1200 1200" fill="none" xmlns="http://www.w3.org/2000/svg"><path d="M352.000 52.234 C 326.126 53.767,300.910 58.442,276.705 66.196 C 260.014 71.543,236.396 81.002,234.087 83.265 C 233.585 83.757,281.731 132.723,341.078 192.078 L 448.983 299.997 374.000 375.000 L 299.017 450.003 190.607 341.607 L 82.196 233.210 77.914 243.105 C 70.251 260.810,60.325 292.538,55.734 314.000 C 49.168 344.697,49.098 403.294,55.589 435.511 C 75.799 535.813,137.521 618.454,226.276 664.044 C 301.780 702.828,388.556 710.076,472.639 684.624 L 490.278 679.284 735.642 924.642 L 981.006 1170.000 1073.503 1077.503 L 1166.000 985.006 921.687 740.687 L 677.374 496.368 684.671 471.684 C 709.264 388.482,703.458 310.590,666.989 234.448 C 609.451 114.322,488.175 44.166,352.000 52.234 " fill="#1D1E23" stroke="none" fill-rule="evenodd"></path></svg>