<svg width="1200" height="1200" viewBox="0 0 1200 1200" fill="none" xmlns="http://www.w3.org/2000/svg"><path d="M179.020 152.350 C 142.964 159.226,109.965 192.414,102.210 229.598 C 100.639 237.132,100.000 356.143,100.000 641.098 C 100.000 1039.333,100.027 1042.027,104.000 1046.000 C 107.978 1049.978,110.667 1050.000,600.000 1050.000 C 1089.333 1050.000,1092.022 1049.978,1096.000 1046.000 C 1099.965 1042.035,1100.000 1039.333,1100.000 741.098 C 1100.000 529.149,1099.347 437.064,1097.790 429.598 C 1089.841 391.483,1056.913 359.068,1019.133 352.168 C 1011.113 350.703,941.250 350.000,803.633 350.000 L 600.000 350.000 600.000 295.098 C 600.000 262.744,599.092 235.844,597.790 229.598 C 589.841 191.483,556.913 159.068,519.133 152.168 C 504.061 149.415,193.540 149.582,179.020 152.350 M296.000 254.000 C 299.746 257.746,300.000 260.667,300.000 300.000 C 300.000 339.333,299.746 342.254,296.000 346.000 C 292.254 349.746,289.333 350.000,250.000 350.000 C 210.667 350.000,207.746 349.746,204.000 346.000 C 200.254 342.254,200.000 339.333,200.000 300.000 C 200.000 260.667,200.254 257.746,204.000 254.000 C 207.746 250.254,210.667 250.000,250.000 250.000 C 289.333 250.000,292.254 250.254,296.000 254.000 M496.000 254.000 C 499.746 257.746,500.000 260.667,500.000 300.000 C 500.000 339.333,499.746 342.254,496.000 346.000 C 492.254 349.746,489.333 350.000,450.000 350.000 C 410.667 350.000,407.746 349.746,404.000 346.000 C 400.254 342.254,400.000 339.333,400.000 300.000 C 400.000 260.667,400.254 257.746,404.000 254.000 C 407.746 250.254,410.667 250.000,450.000 250.000 C 489.333 250.000,492.254 250.254,496.000 254.000 M296.000 454.000 C 299.746 457.746,300.000 460.667,300.000 500.000 C 300.000 539.333,299.746 542.254,296.000 546.000 C 292.254 549.746,289.333 550.000,250.000 550.000 C 210.667 550.000,207.746 549.746,204.000 546.000 C 200.254 542.254,200.000 539.333,200.000 500.000 C 200.000 460.667,200.254 457.746,204.000 454.000 C 207.746 450.254,210.667 450.000,250.000 450.000 C 289.333 450.000,292.254 450.254,296.000 454.000 M496.000 454.000 C 499.746 457.746,500.000 460.667,500.000 500.000 C 500.000 539.333,499.746 542.254,496.000 546.000 C 492.254 549.746,489.333 550.000,450.000 550.000 C 410.667 550.000,407.746 549.746,404.000 546.000 C 400.254 542.254,400.000 539.333,400.000 500.000 C 400.000 460.667,400.254 457.746,404.000 454.000 C 407.746 450.254,410.667 450.000,450.000 450.000 C 489.333 450.000,492.254 450.254,496.000 454.000 M1000.000 700.000 L 1000.000 950.000 800.000 950.000 L 600.000 950.000 600.000 900.000 L 600.000 850.000 646.000 850.000 C 689.333 850.000,692.232 849.768,696.000 846.000 C 699.746 842.254,700.000 839.333,700.000 800.000 C 700.000 760.667,699.746 757.746,696.000 754.000 C 692.232 750.232,689.333 750.000,646.000 750.000 L 600.000 750.000 600.000 700.000 L 600.000 650.000 646.000 650.000 C 689.333 650.000,692.232 649.768,696.000 646.000 C 699.746 642.254,700.000 639.333,700.000 600.000 C 700.000 560.667,699.746 557.746,696.000 554.000 C 692.232 550.232,689.333 550.000,646.000 550.000 L 600.000 550.000 600.000 500.000 L 600.000 450.000 800.000 450.000 L 1000.000 450.000 1000.000 700.000 M804.000 554.000 C 800.254 557.746,800.000 560.667,800.000 600.000 C 800.000 639.333,800.254 642.254,804.000 646.000 C 807.746 649.746,810.667 650.000,850.000 650.000 C 889.333 650.000,892.254 649.746,896.000 646.000 C 899.746 642.254,900.000 639.333,900.000 600.000 C 900.000 560.667,899.746 557.746,896.000 554.000 C 892.254 550.254,889.333 550.000,850.000 550.000 C 810.667 550.000,807.746 550.254,804.000 554.000 M296.000 654.000 C 299.746 657.746,300.000 660.667,300.000 700.000 C 300.000 739.333,299.746 742.254,296.000 746.000 C 292.254 749.746,289.333 750.000,250.000 750.000 C 210.667 750.000,207.746 749.746,204.000 746.000 C 200.254 742.254,200.000 739.333,200.000 700.000 C 200.000 660.667,200.254 657.746,204.000 654.000 C 207.746 650.254,210.667 650.000,250.000 650.000 C 289.333 650.000,292.254 650.254,296.000 654.000 M496.000 654.000 C 499.746 657.746,500.000 660.667,500.000 700.000 C 500.000 739.333,499.746 742.254,496.000 746.000 C 492.254 749.746,489.333 750.000,450.000 750.000 C 410.667 750.000,407.746 749.746,404.000 746.000 C 400.254 742.254,400.000 739.333,400.000 700.000 C 400.000 660.667,400.254 657.746,404.000 654.000 C 407.746 650.254,410.667 650.000,450.000 650.000 C 489.333 650.000,492.254 650.254,496.000 654.000 M804.000 754.000 C 800.254 757.746,800.000 760.667,800.000 800.000 C 800.000 839.333,800.254 842.254,804.000 846.000 C 807.746 849.746,810.667 850.000,850.000 850.000 C 889.333 850.000,892.254 849.746,896.000 846.000 C 899.746 842.254,900.000 839.333,900.000 800.000 C 900.000 760.667,899.746 757.746,896.000 754.000 C 892.254 750.254,889.333 750.000,850.000 750.000 C 810.667 750.000,807.746 750.254,804.000 754.000 M296.000 854.000 C 299.746 857.746,300.000 860.667,300.000 900.000 C 300.000 939.333,299.746 942.254,296.000 946.000 C 292.254 949.746,289.333 950.000,250.000 950.000 C 210.667 950.000,207.746 949.746,204.000 946.000 C 200.254 942.254,200.000 939.333,200.000 900.000 C 200.000 860.667,200.254 857.746,204.000 854.000 C 207.746 850.254,210.667 850.000,250.000 850.000 C 289.333 850.000,292.254 850.254,296.000 854.000 M496.000 854.000 C 499.746 857.746,500.000 860.667,500.000 900.000 C 500.000 939.333,499.746 942.254,496.000 946.000 C 492.254 949.746,489.333 950.000,450.000 950.000 C 410.667 950.000,407.746 949.746,404.000 946.000 C 400.254 942.254,400.000 939.333,400.000 900.000 C 400.000 860.667,400.254 857.746,404.000 854.000 C 407.746 850.254,410.667 850.000,450.000 850.000 C 489.333 850.000,492.254 850.254,496.000 854.000 " fill="#1D1E23" stroke="none" fill-rule="evenodd"></path></svg>