<svg width="1200" height="1200" viewBox="0 0 1200 1200" fill="none" xmlns="http://www.w3.org/2000/svg"><path d="M174.665 229.588 C 123.314 247.900,108.666 313.929,147.368 352.632 C 190.505 395.768,264.106 371.789,273.935 311.398 C 279.059 279.915,261.582 246.896,232.179 232.511 C 217.580 225.368,190.375 223.986,174.665 229.588 M350.000 300.000 L 350.000 350.000 700.000 350.000 L 1050.000 350.000 1050.000 300.000 L 1050.000 250.000 700.000 250.000 L 350.000 250.000 350.000 300.000 M174.665 529.588 C 141.561 541.393,120.454 576.923,126.065 611.398 C 135.894 671.789,209.495 695.768,252.632 652.632 C 289.095 616.169,278.728 555.285,232.179 532.511 C 217.580 525.368,190.375 523.986,174.665 529.588 M350.000 600.000 L 350.000 650.000 700.000 650.000 L 1050.000 650.000 1050.000 600.000 L 1050.000 550.000 700.000 550.000 L 350.000 550.000 350.000 600.000 M176.648 828.766 C 164.589 832.700,155.858 838.599,145.146 850.051 C 128.245 868.119,121.928 890.320,126.902 914.172 C 130.424 931.066,134.046 938.082,145.645 950.483 C 157.782 963.458,168.474 969.480,185.782 973.089 C 198.345 975.708,201.655 975.708,214.218 973.089 C 231.526 969.480,242.218 963.458,254.355 950.483 C 265.954 938.082,269.576 931.066,273.098 914.172 C 278.181 889.798,271.709 867.912,253.831 849.008 C 238.685 832.993,225.778 827.290,203.112 826.597 C 191.776 826.250,181.876 827.061,176.648 828.766 M350.000 900.000 L 350.000 950.000 700.000 950.000 L 1050.000 950.000 1050.000 900.000 L 1050.000 850.000 700.000 850.000 L 350.000 850.000 350.000 900.000 " fill="#1D1E23" stroke="none" fill-rule="evenodd"></path></svg>