<svg width="1200" height="1200" viewBox="0 0 1200 1200" fill="none" xmlns="http://www.w3.org/2000/svg"><path d="M525.000 101.192 C 391.316 107.884,317.828 124.920,266.950 161.012 C 251.716 171.819,231.016 193.884,222.231 208.680 C 213.197 223.898,204.698 249.805,202.021 270.292 C 200.510 281.852,200.016 370.199,200.419 557.000 L 201.000 827.000 205.700 841.000 C 213.034 862.850,225.257 884.611,238.016 898.535 L 249.697 911.283 250.348 952.141 L 251.000 993.000 257.189 1006.000 C 265.055 1022.522,277.478 1034.945,294.000 1042.811 C 305.547 1048.308,309.012 1049.000,325.000 1049.000 C 340.988 1049.000,344.453 1048.308,356.000 1042.811 C 372.547 1034.933,384.968 1022.498,392.768 1006.000 C 398.186 994.540,399.005 990.453,399.678 971.500 L 400.442 950.000 600.000 950.000 L 799.558 950.000 800.343 971.500 C 801.010 989.745,801.966 994.817,806.661 1005.000 C 813.906 1020.714,829.297 1036.197,844.791 1043.357 C 855.323 1048.225,859.472 1049.000,875.000 1049.000 C 890.528 1049.000,894.677 1048.225,905.209 1043.357 C 920.653 1036.220,936.057 1020.750,943.403 1005.000 C 948.869 993.282,949.015 992.040,949.652 952.141 L 950.303 911.283 961.984 898.535 C 974.743 884.611,986.966 862.850,994.300 841.000 L 999.000 827.000 999.628 558.000 C 1000.304 268.811,1000.251 267.036,990.045 236.540 C 982.920 215.247,974.089 200.586,958.050 183.420 C 915.131 137.485,845.854 113.946,724.000 103.896 C 699.190 101.850,551.849 99.848,525.000 101.192 M900.000 425.000 L 900.000 550.000 600.000 550.000 L 300.000 550.000 300.000 425.000 L 300.000 300.000 600.000 300.000 L 900.000 300.000 900.000 425.000 M406.587 707.603 C 422.573 715.198,434.980 727.679,442.773 744.000 C 448.293 755.561,448.980 758.993,448.980 775.000 C 448.980 790.977,448.286 794.461,442.801 806.000 C 434.950 822.516,422.528 834.942,406.000 842.811 C 394.453 848.308,390.988 849.000,375.000 849.000 C 359.012 849.000,355.547 848.308,344.000 842.811 C 327.472 834.942,315.050 822.516,307.199 806.000 C 301.714 794.461,301.020 790.977,301.020 775.000 C 301.020 759.023,301.714 755.539,307.199 744.000 C 317.108 723.154,335.862 707.508,357.492 702.044 C 371.096 698.608,392.837 701.069,406.587 707.603 M856.587 707.603 C 872.573 715.198,884.980 727.679,892.773 744.000 C 898.293 755.561,898.980 758.993,898.980 775.000 C 898.980 790.977,898.286 794.461,892.801 806.000 C 884.950 822.516,872.528 834.942,856.000 842.811 C 844.453 848.308,840.988 849.000,825.000 849.000 C 809.012 849.000,805.547 848.308,794.000 842.811 C 777.472 834.942,765.050 822.516,757.199 806.000 C 751.714 794.461,751.020 790.977,751.020 775.000 C 751.020 759.023,751.714 755.539,757.199 744.000 C 767.108 723.154,785.862 707.508,807.492 702.044 C 821.096 698.608,842.837 701.069,856.587 707.603 " fill="#1D1E23" stroke="none" fill-rule="evenodd"></path></svg>