<svg width="1200" height="1200" viewBox="0 0 1200 1200" fill="none" xmlns="http://www.w3.org/2000/svg"><path d="M525.000 101.192 C 391.316 107.884,317.828 124.920,266.950 161.012 C 251.716 171.819,231.016 193.884,222.231 208.680 C 213.197 223.898,204.698 249.805,202.021 270.292 C 200.510 281.852,200.016 370.199,200.419 557.000 L 201.000 827.000 205.700 841.000 C 213.059 862.924,225.271 884.626,238.167 898.700 L 250.000 911.613 250.000 980.807 L 250.000 1050.000 325.000 1050.000 L 400.000 1050.000 400.000 1000.000 L 400.000 950.000 600.000 950.000 L 800.000 950.000 800.000 1000.000 L 800.000 1050.000 875.000 1050.000 L 950.000 1050.000 950.000 980.807 L 950.000 911.613 961.833 898.700 C 974.729 884.626,986.941 862.924,994.300 841.000 L 999.000 827.000 999.628 558.000 C 1000.304 268.811,1000.251 267.036,990.045 236.540 C 982.920 215.247,974.089 200.586,958.050 183.420 C 915.131 137.485,845.854 113.946,724.000 103.896 C 699.190 101.850,551.849 99.848,525.000 101.192 M900.000 425.000 L 900.000 550.000 600.000 550.000 L 300.000 550.000 300.000 425.000 L 300.000 300.000 600.000 300.000 L 900.000 300.000 900.000 425.000 M406.587 707.603 C 422.573 715.198,434.980 727.679,442.773 744.000 C 448.293 755.561,448.980 758.993,448.980 775.000 C 448.980 790.977,448.286 794.461,442.801 806.000 C 434.950 822.516,422.528 834.942,406.000 842.811 C 394.453 848.308,390.988 849.000,375.000 849.000 C 359.012 849.000,355.547 848.308,344.000 842.811 C 327.472 834.942,315.050 822.516,307.199 806.000 C 301.714 794.461,301.020 790.977,301.020 775.000 C 301.020 759.023,301.714 755.539,307.199 744.000 C 317.108 723.154,335.862 707.508,357.492 702.044 C 371.096 698.608,392.837 701.069,406.587 707.603 M856.587 707.603 C 872.573 715.198,884.980 727.679,892.773 744.000 C 898.293 755.561,898.980 758.993,898.980 775.000 C 898.980 790.977,898.286 794.461,892.801 806.000 C 884.950 822.516,872.528 834.942,856.000 842.811 C 844.453 848.308,840.988 849.000,825.000 849.000 C 809.012 849.000,805.547 848.308,794.000 842.811 C 777.472 834.942,765.050 822.516,757.199 806.000 C 751.714 794.461,751.020 790.977,751.020 775.000 C 751.020 759.023,751.714 755.539,757.199 744.000 C 767.108 723.154,785.862 707.508,807.492 702.044 C 821.096 698.608,842.837 701.069,856.587 707.603 " fill="#1D1E23" stroke="none" fill-rule="evenodd"></path></svg>