<svg width="1200" height="1200" viewBox="0 0 1200 1200" fill="none" xmlns="http://www.w3.org/2000/svg"><path d="M284.000 151.324 C 273.649 153.002,254.632 160.766,244.526 167.438 C 222.940 181.692,206.855 205.768,202.061 231.000 C 200.415 239.664,199.964 304.164,200.441 463.000 L 201.101 683.000 206.535 701.587 C 227.425 773.035,278.407 823.671,349.455 843.536 L 369.000 849.000 550.000 849.000 L 731.000 849.000 750.853 843.453 C 826.291 822.378,880.398 764.630,895.863 688.686 C 899.658 670.049,900.000 661.419,900.000 584.186 L 900.000 500.000 954.902 500.000 C 987.256 500.000,1014.156 499.092,1020.402 497.790 C 1057.883 489.974,1089.974 457.883,1097.790 420.402 C 1100.800 405.965,1100.800 244.035,1097.790 229.598 C 1090.894 196.531,1067.041 169.355,1033.000 155.784 L 1021.000 151.000 655.000 150.757 C 453.700 150.623,286.750 150.878,284.000 151.324 M1000.000 325.000 L 1000.000 400.000 950.000 400.000 L 900.000 400.000 900.000 325.000 L 900.000 250.000 950.000 250.000 L 1000.000 250.000 1000.000 325.000 M132.171 953.434 C 114.528 959.666,100.000 980.694,100.000 1000.000 C 100.000 1012.080,105.967 1026.072,114.947 1035.053 C 131.214 1051.319,92.814 1050.000,550.000 1050.000 C 1007.186 1050.000,968.786 1051.319,985.053 1035.053 C 1004.616 1015.489,1004.616 984.511,985.053 964.947 C 968.777 948.672,1007.342 949.981,549.144 950.158 C 184.834 950.299,140.052 950.651,132.171 953.434 " fill="#1D1E23" stroke="none" fill-rule="evenodd"></path></svg>