<svg width="1200" height="1200" viewBox="0 0 1200 1200" fill="none" xmlns="http://www.w3.org/2000/svg"><path d="M200.000 499.972 L 200.000 850.000 550.000 850.000 L 900.000 850.000 900.000 675.000 L 900.000 500.000 954.902 500.000 C 987.256 500.000,1014.156 499.092,1020.402 497.790 C 1057.883 489.974,1089.974 457.883,1097.790 420.402 C 1100.800 405.965,1100.800 244.035,1097.790 229.598 C 1090.894 196.531,1067.041 169.355,1033.000 155.784 L 1021.000 151.000 610.500 150.472 L 200.000 149.944 200.000 499.972 M1000.000 325.000 L 1000.000 400.000 950.000 400.000 L 900.000 400.000 900.000 325.000 L 900.000 250.000 950.000 250.000 L 1000.000 250.000 1000.000 325.000 M100.000 1000.000 L 100.000 1050.000 550.000 1050.000 L 1000.000 1050.000 1000.000 1000.000 L 1000.000 950.000 550.000 950.000 L 100.000 950.000 100.000 1000.000 " fill="#1D1E23" stroke="none" fill-rule="evenodd"></path></svg>