<svg width="1200" height="1200" viewBox="0 0 1200 1200" fill="none" xmlns="http://www.w3.org/2000/svg"><path d="M342.665 103.688 C 324.148 110.113,311.021 123.038,303.853 141.903 C 300.091 151.804,300.000 162.591,300.000 599.946 L 300.000 1047.850 304.308 1059.363 C 310.120 1074.898,325.102 1089.880,340.637 1095.692 L 352.150 1100.000 625.000 1100.000 L 897.850 1100.000 909.363 1095.692 C 924.898 1089.880,939.880 1074.898,945.692 1059.363 L 950.000 1047.850 950.000 600.000 C 950.000 154.599,949.978 152.091,945.933 141.281 C 940.500 126.760,928.447 113.496,914.429 106.612 L 903.000 101.000 628.000 100.551 C 368.087 100.126,352.433 100.298,342.665 103.688 M900.000 250.000 L 900.000 350.000 625.000 350.000 L 350.000 350.000 350.000 250.000 L 350.000 150.000 625.000 150.000 L 900.000 150.000 900.000 250.000 M500.000 500.000 L 500.000 550.000 425.000 550.000 L 350.000 550.000 350.000 500.000 L 350.000 450.000 425.000 450.000 L 500.000 450.000 500.000 500.000 M700.000 500.000 L 700.000 550.000 625.000 550.000 L 550.000 550.000 550.000 500.000 L 550.000 450.000 625.000 450.000 L 700.000 450.000 700.000 500.000 M900.000 500.000 L 900.000 550.000 825.000 550.000 L 750.000 550.000 750.000 500.000 L 750.000 450.000 825.000 450.000 L 900.000 450.000 900.000 500.000 M500.000 700.000 L 500.000 750.000 425.000 750.000 L 350.000 750.000 350.000 700.000 L 350.000 650.000 425.000 650.000 L 500.000 650.000 500.000 700.000 M700.000 700.000 L 700.000 750.000 625.000 750.000 L 550.000 750.000 550.000 700.000 L 550.000 650.000 625.000 650.000 L 700.000 650.000 700.000 700.000 M900.000 700.000 L 900.000 750.000 825.000 750.000 L 750.000 750.000 750.000 700.000 L 750.000 650.000 825.000 650.000 L 900.000 650.000 900.000 700.000 M500.000 900.000 L 500.000 950.000 431.000 950.000 L 362.000 950.000 362.000 900.000 L 362.000 850.000 431.000 850.000 L 500.000 850.000 500.000 900.000 M700.000 900.000 L 700.000 950.000 625.000 950.000 L 550.000 950.000 550.000 900.000 L 550.000 850.000 625.000 850.000 L 700.000 850.000 700.000 900.000 M900.000 950.000 L 900.000 1050.000 825.000 1050.000 L 750.000 1050.000 750.000 950.000 L 750.000 850.000 825.000 850.000 L 900.000 850.000 900.000 950.000 " fill="#1D1E23" stroke="none" fill-rule="evenodd"></path></svg>