<svg width="1200" height="1200" viewBox="0 0 1200 1200" fill="none" xmlns="http://www.w3.org/2000/svg"><path d="M333.181 53.147 C 321.791 57.320,312.844 64.851,306.545 75.568 C 301.199 84.661,300.976 86.167,300.328 117.500 L 299.656 150.000 271.195 150.000 C 255.542 150.000,237.394 150.972,230.867 152.161 C 203.479 157.147,174.813 178.589,162.258 203.479 C 149.333 229.104,150.062 205.425,150.030 600.402 C 150.009 855.166,150.643 962.889,152.210 970.402 C 160.164 1008.541,192.834 1040.692,231.000 1047.937 C 239.436 1049.539,282.496 1050.035,376.000 1049.608 C 508.473 1049.002,509.032 1048.983,517.189 1044.618 C 526.724 1039.516,537.327 1028.099,541.250 1018.710 C 544.787 1010.244,544.787 989.756,541.250 981.290 C 537.327 971.901,526.724 960.484,517.189 955.382 C 509.114 951.061,507.448 950.986,398.000 950.000 L 287.000 949.000 277.498 944.320 C 272.271 941.747,265.321 936.397,262.053 932.432 C 249.338 917.006,250.000 932.319,250.000 653.644 L 250.000 400.000 599.887 400.000 L 949.775 400.000 950.387 457.500 C 950.973 512.420,951.199 515.372,955.431 523.285 C 974.445 558.837,1025.555 558.837,1044.569 523.285 L 1049.000 515.000 1049.607 379.000 C 1050.034 283.278,1049.540 239.446,1047.937 231.000 C 1041.511 197.144,1017.281 169.141,983.000 155.951 C 972.535 151.925,966.459 151.220,935.500 150.444 L 900.000 149.554 900.000 121.133 C 900.000 87.033,897.405 77.300,885.007 64.902 C 864.034 43.929,828.491 46.201,810.599 69.660 C 801.562 81.507,800.024 89.040,800.011 121.500 L 800.000 150.000 600.000 150.000 L 400.000 150.000 400.000 121.356 C 400.000 87.048,397.421 77.316,385.053 64.947 C 371.434 51.329,350.896 46.656,333.181 53.147 M825.000 601.256 C 755.845 608.764,690.896 645.687,649.598 700.969 C 634.120 721.688,615.454 759.883,609.022 784.000 C 593.730 841.335,599.094 903.400,623.818 955.186 C 637.530 983.908,651.784 1004.149,673.818 1026.182 C 759.281 1111.646,889.753 1123.885,991.186 1055.955 C 1011.456 1042.380,1042.380 1011.456,1055.955 991.186 C 1114.164 904.269,1114.164 795.731,1055.955 708.814 C 1042.578 688.839,1011.538 657.674,991.984 644.584 C 949.820 616.358,908.207 602.787,859.000 601.217 C 844.700 600.760,829.400 600.778,825.000 601.256 M989.191 755.808 C 998.302 759.945,1005.594 769.948,1007.339 780.701 C 1009.878 796.348,1008.594 797.903,918.259 888.608 C 871.367 935.693,830.300 975.892,827.000 977.940 C 818.438 983.255,808.004 984.692,797.818 981.961 C 790.197 979.917,782.926 973.582,744.262 935.298 C 689.712 881.285,685.730 874.486,696.605 853.920 C 704.227 839.507,722.311 832.488,737.370 838.097 C 740.466 839.251,757.628 854.769,775.506 872.581 L 808.013 904.967 882.506 830.564 C 923.478 789.642,959.250 755.282,962.000 754.207 C 969.845 751.142,980.269 751.756,989.191 755.808 " fill="#1D1E23" stroke="none" fill-rule="evenodd"></path></svg>