<svg width="1200" height="1200" viewBox="0 0 1200 1200" fill="none" xmlns="http://www.w3.org/2000/svg"><path d="M333.181 103.147 C 321.791 107.320,312.844 114.851,306.545 125.568 C 301.199 134.661,300.976 136.167,300.328 167.500 L 299.656 200.000 271.195 200.000 C 255.542 200.000,237.394 200.972,230.867 202.161 C 203.479 207.147,174.813 228.589,162.258 253.479 C 149.333 279.104,150.062 255.425,150.030 650.402 C 150.009 905.166,150.643 1012.889,152.210 1020.402 C 160.164 1058.541,192.834 1090.692,231.000 1097.937 C 239.436 1099.539,282.496 1100.035,376.000 1099.608 C 508.473 1099.002,509.032 1098.983,517.189 1094.618 C 526.724 1089.516,537.327 1078.099,541.250 1068.710 C 544.787 1060.244,544.787 1039.756,541.250 1031.290 C 537.327 1021.901,526.724 1010.484,517.189 1005.382 C 509.114 1001.061,507.448 1000.986,398.000 1000.000 L 287.000 999.000 277.498 994.320 C 272.271 991.747,265.321 986.397,262.053 982.432 C 249.338 967.006,250.000 982.319,250.000 703.644 L 250.000 450.000 600.000 450.000 L 950.000 450.000 950.011 577.500 C 950.018 659.162,950.766 707.678,952.091 712.449 C 955.148 723.457,965.751 736.120,976.574 741.690 C 996.581 751.986,1019.488 748.618,1035.007 733.098 C 1050.895 717.210,1050.000 731.260,1050.000 497.742 C 1050.000 353.949,1049.321 286.941,1047.790 279.598 C 1040.878 246.453,1016.631 218.891,983.000 205.951 C 972.535 201.925,966.459 201.220,935.500 200.444 L 900.000 199.554 900.000 171.133 C 900.000 137.033,897.405 127.300,885.007 114.902 C 864.034 93.929,828.491 96.201,810.599 119.660 C 801.562 131.507,800.024 139.040,800.011 171.500 L 800.000 200.000 600.000 200.000 L 400.000 200.000 400.000 171.356 C 400.000 137.048,397.421 127.316,385.053 114.947 C 371.434 101.329,350.896 96.656,333.181 103.147 M895.000 856.226 C 812.677 861.512,741.553 898.409,701.796 956.457 C 683.246 983.541,667.384 1016.556,666.387 1030.157 C 664.591 1054.648,682.522 1072.058,709.436 1071.956 C 731.730 1071.871,743.556 1062.866,763.000 1031.165 C 789.629 987.750,830.535 957.013,879.000 944.003 C 903.123 937.527,939.612 936.469,964.027 941.537 C 985.283 945.950,1007.479 954.249,1024.000 963.962 C 1036.019 971.027,1062.000 991.303,1062.000 993.617 C 1062.000 994.412,1051.200 1005.834,1038.000 1019.000 C 1017.293 1039.654,1014.000 1043.818,1014.000 1049.355 C 1014.000 1062.086,1013.361 1062.000,1107.445 1062.000 C 1189.333 1062.000,1192.126 1061.874,1196.000 1058.000 C 1199.876 1054.124,1200.000 1051.333,1200.000 968.145 L 1200.000 882.290 1194.686 878.110 C 1191.267 875.421,1187.878 874.370,1185.186 875.163 C 1182.884 875.841,1168.400 888.827,1153.000 904.020 L 1125.000 931.644 1111.657 920.322 C 1056.775 873.754,979.242 850.816,895.000 856.226 " fill="#1D1E23" stroke="none" fill-rule="evenodd"></path></svg>