<svg width="1200" height="1200" viewBox="0 0 1200 1200" fill="none" xmlns="http://www.w3.org/2000/svg"><path d="M332.171 103.434 C 327.315 105.149,319.581 110.314,314.983 114.911 C 302.575 127.320,300.000 137.021,300.000 171.356 L 300.000 200.000 271.367 200.000 C 255.619 200.000,237.394 200.972,230.867 202.161 C 203.479 207.147,174.813 228.589,162.258 253.479 C 149.333 279.104,150.062 255.425,150.030 650.402 C 150.009 905.166,150.643 1012.889,152.210 1020.402 C 160.026 1057.883,192.117 1089.974,229.598 1097.790 C 244.585 1100.915,955.415 1100.915,970.402 1097.790 C 1007.883 1089.974,1039.974 1057.883,1047.790 1020.402 C 1050.915 1005.415,1050.915 294.585,1047.790 279.598 C 1040.878 246.453,1016.631 218.891,983.000 205.951 C 972.535 201.925,966.459 201.220,935.500 200.444 L 900.000 199.554 900.000 171.133 C 900.000 137.068,897.400 127.295,885.053 114.947 C 876.072 105.967,862.080 100.000,850.000 100.000 C 837.920 100.000,823.928 105.967,814.947 114.947 C 802.579 127.316,800.000 137.048,800.000 171.356 L 800.000 200.000 600.000 200.000 L 400.000 200.000 400.000 171.356 C 400.000 137.048,397.421 127.316,385.053 114.947 C 371.176 101.071,351.185 96.718,332.171 103.434 M950.000 702.637 C 950.000 986.987,950.932 969.173,935.233 984.873 C 918.905 1001.200,945.501 1000.000,600.000 1000.000 C 254.861 1000.000,281.064 1001.169,264.947 985.053 C 248.957 969.062,250.000 988.698,250.000 703.644 L 250.000 450.000 600.000 450.000 L 950.000 450.000 950.000 702.637 M632.171 653.434 C 620.364 657.604,607.459 670.822,603.312 682.991 C 600.440 691.420,600.000 703.653,600.000 775.000 C 600.000 868.526,600.248 870.354,614.947 885.053 C 629.646 899.752,631.474 900.000,725.000 900.000 C 818.526 900.000,820.354 899.752,835.053 885.053 C 849.752 870.354,850.000 868.526,850.000 775.000 C 850.000 681.474,849.752 679.646,835.053 664.947 C 820.303 650.198,818.658 649.978,724.144 650.158 C 654.231 650.291,639.595 650.812,632.171 653.434 " fill="#1D1E23" stroke="none" fill-rule="evenodd"></path></svg>