<svg width="1200" height="1200" viewBox="0 0 1200 1200" fill="none" xmlns="http://www.w3.org/2000/svg"><path d="M333.181 103.147 C 321.791 107.320,312.844 114.851,306.545 125.568 C 301.199 134.661,300.976 136.167,300.328 167.500 L 299.656 200.000 271.195 200.000 C 255.542 200.000,237.394 200.972,230.867 202.161 C 203.479 207.147,174.813 228.589,162.258 253.479 C 149.333 279.104,150.062 255.425,150.030 650.402 C 150.009 905.166,150.643 1012.889,152.210 1020.402 C 160.026 1057.883,192.117 1089.974,229.598 1097.790 C 236.832 1099.298,291.801 1100.000,402.742 1100.000 C 585.840 1100.000,577.446 1100.659,593.053 1085.053 C 612.873 1065.232,612.643 1034.195,592.531 1014.648 C 577.090 999.641,581.126 1000.000,427.993 1000.000 C 275.369 1000.000,280.351 1000.457,264.947 985.053 C 248.957 969.062,250.000 988.698,250.000 703.644 L 250.000 450.000 600.000 450.000 L 950.000 450.000 950.000 598.268 C 950.000 709.733,950.610 748.579,952.458 754.768 C 953.958 759.792,958.829 767.024,964.958 773.328 C 986.194 795.168,1016.299 794.602,1036.638 771.980 C 1041.372 766.715,1046.315 758.836,1047.622 754.472 C 1050.889 743.570,1051.047 295.216,1047.790 279.598 C 1040.878 246.453,1016.631 218.891,983.000 205.951 C 972.535 201.925,966.459 201.220,935.500 200.444 L 900.000 199.554 900.000 171.133 C 900.000 137.033,897.405 127.300,885.007 114.902 C 864.034 93.929,828.491 96.201,810.599 119.660 C 801.562 131.507,800.024 139.040,800.011 171.500 L 800.000 200.000 600.000 200.000 L 400.000 200.000 400.000 171.356 C 400.000 137.048,397.421 127.316,385.053 114.947 C 371.434 101.329,350.896 96.656,333.181 103.147 M960.000 915.553 C 958.350 916.086,955.425 917.894,953.500 919.571 C 950.392 922.278,950.000 926.957,950.000 961.310 L 950.000 1000.000 851.318 1000.000 C 744.469 1000.000,740.825 1000.319,726.954 1010.899 C 723.179 1013.779,717.594 1020.380,714.545 1025.568 C 709.816 1033.611,709.000 1037.209,709.000 1050.000 C 709.000 1062.791,709.816 1066.389,714.545 1074.432 C 717.594 1079.620,723.056 1086.127,726.682 1088.893 C 741.118 1099.904,742.185 1100.000,850.209 1100.000 L 949.915 1100.000 950.458 1139.286 L 951.000 1178.573 956.110 1182.385 C 960.099 1185.362,962.291 1185.770,966.110 1184.245 C 968.799 1183.171,1004.075 1153.866,1044.500 1119.123 C 1110.585 1062.325,1118.000 1055.351,1118.000 1049.994 C 1118.000 1044.633,1110.574 1037.669,1043.929 980.536 C 1003.190 945.611,968.315 916.484,966.429 915.810 C 964.543 915.135,961.650 915.020,960.000 915.553 " fill="#1D1E23" stroke="none" fill-rule="evenodd"></path></svg>