<svg width="1200" height="1200" viewBox="0 0 1200 1200" fill="none" xmlns="http://www.w3.org/2000/svg"><path d="M282.171 53.434 C 277.315 55.149,269.581 60.314,264.983 64.911 C 252.596 77.299,250.000 87.040,250.000 121.133 L 250.000 149.554 214.500 150.444 C 183.541 151.220,177.465 151.925,167.000 155.951 C 133.369 168.891,109.122 196.453,102.210 229.598 C 99.081 244.606,99.081 1055.394,102.210 1070.402 C 110.026 1107.883,142.117 1139.974,179.598 1147.790 C 194.606 1150.919,1005.394 1150.919,1020.402 1147.790 C 1057.883 1139.974,1089.974 1107.883,1097.790 1070.402 C 1100.919 1055.394,1100.919 244.606,1097.790 229.598 C 1090.878 196.453,1066.631 168.891,1033.000 155.951 C 1022.535 151.925,1016.459 151.220,985.500 150.444 L 950.000 149.554 950.000 121.133 C 950.000 87.068,947.400 77.295,935.053 64.947 C 915.489 45.384,884.511 45.384,864.947 64.947 C 852.579 77.316,850.000 87.048,850.000 121.356 L 850.000 150.000 600.000 150.000 L 350.000 150.000 350.000 121.356 C 350.000 87.048,347.421 77.316,335.053 64.947 C 321.176 51.071,301.185 46.718,282.171 53.434 M1000.000 702.637 C 1000.000 1042.810,1001.056 1019.049,985.233 1034.873 C 968.820 1051.285,1001.556 1050.000,600.000 1050.000 C 198.842 1050.000,231.149 1051.254,214.947 1035.053 C 198.838 1018.944,200.000 1044.701,200.000 703.644 L 200.000 400.000 600.000 400.000 L 1000.000 400.000 1000.000 702.637 " fill="#1D1E23" stroke="none" fill-rule="evenodd"></path></svg>