<svg width="1200" height="1200" viewBox="0 0 1200 1200" fill="none" xmlns="http://www.w3.org/2000/svg"><path d="M250.000 100.000 L 250.000 150.000 175.000 150.000 L 100.000 150.000 100.000 650.000 L 100.000 1150.000 600.000 1150.000 L 1100.000 1150.000 1100.000 650.000 L 1100.000 150.000 1025.000 150.000 L 950.000 150.000 950.000 100.000 L 950.000 50.000 900.000 50.000 L 850.000 50.000 850.000 100.000 L 850.000 150.000 600.000 150.000 L 350.000 150.000 350.000 100.000 L 350.000 50.000 300.000 50.000 L 250.000 50.000 250.000 100.000 M1000.000 725.000 L 1000.000 1050.000 600.000 1050.000 L 200.000 1050.000 200.000 725.000 L 200.000 400.000 600.000 400.000 L 1000.000 400.000 1000.000 725.000 " fill="#1D1E23" stroke="none" fill-rule="evenodd"></path></svg>