<svg width="1200" height="1200" viewBox="0 0 1200 1200" fill="none" xmlns="http://www.w3.org/2000/svg"><path d="M333.181 103.147 C 321.791 107.320,312.844 114.851,306.545 125.568 C 301.199 134.661,300.976 136.167,300.328 167.500 L 299.656 200.000 271.195 200.000 C 255.542 200.000,237.394 200.972,230.867 202.161 C 203.479 207.147,174.813 228.589,162.258 253.479 C 149.333 279.104,150.062 255.425,150.030 650.402 C 150.009 905.166,150.643 1012.889,152.210 1020.402 C 160.026 1057.883,192.117 1089.974,229.598 1097.790 C 236.824 1099.297,290.610 1099.994,398.598 1099.980 L 557.000 1099.961 567.015 1095.297 C 577.924 1090.217,588.920 1079.074,593.250 1068.710 C 596.787 1060.244,596.787 1039.756,593.250 1031.290 C 589.327 1021.901,578.724 1010.484,569.189 1005.382 C 561.047 1001.025,560.220 1000.994,424.000 1000.000 L 287.000 999.000 277.498 994.320 C 272.271 991.747,265.321 986.397,262.053 982.432 C 249.338 967.006,250.000 982.319,250.000 703.644 L 250.000 450.000 600.000 450.000 L 950.000 450.000 950.000 503.644 C 950.000 565.398,951.059 571.164,964.947 585.053 C 984.486 604.591,1014.673 604.652,1034.696 585.192 C 1050.490 569.842,1050.000 575.013,1050.000 423.742 C 1050.000 333.973,1049.276 286.723,1047.790 279.598 C 1040.878 246.453,1016.631 218.891,983.000 205.951 C 972.535 201.925,966.459 201.220,935.500 200.444 L 900.000 199.554 900.000 171.133 C 900.000 137.033,897.405 127.300,885.007 114.902 C 864.034 93.929,828.491 96.201,810.599 119.660 C 801.562 131.507,800.024 139.040,800.011 171.500 L 800.000 200.000 600.000 200.000 L 400.000 200.000 400.000 171.356 C 400.000 137.048,397.421 127.316,385.053 114.947 C 371.434 101.329,350.896 96.656,333.181 103.147 M1015.000 703.794 C 1011.700 705.872,1000.229 716.456,989.509 727.313 L 970.018 747.054 1011.573 788.574 L 1053.129 830.094 1075.410 807.511 C 1098.021 784.593,1101.605 778.680,1099.057 768.500 C 1097.528 762.396,1044.481 707.505,1035.599 702.838 C 1028.289 698.996,1022.166 699.281,1015.000 703.794 M822.494 894.506 L 700.000 1017.012 700.000 1058.506 L 700.000 1100.000 741.506 1100.000 L 783.012 1100.000 905.994 977.006 L 1028.976 854.012 988.006 813.006 C 965.473 790.453,946.576 772.000,946.012 772.000 C 945.449 772.000,889.866 827.128,822.494 894.506 " fill="#1D1E23" stroke="none" fill-rule="evenodd"></path></svg>