<svg width="1200" height="1200" viewBox="0 0 1200 1200" fill="none" xmlns="http://www.w3.org/2000/svg"><path d="M300.000 150.000 L 300.000 200.000 225.000 200.000 L 150.000 200.000 150.000 650.000 L 150.000 1100.000 600.000 1100.000 L 1050.000 1100.000 1050.000 650.000 L 1050.000 200.000 975.000 200.000 L 900.000 200.000 900.000 150.000 L 900.000 100.000 850.000 100.000 L 800.000 100.000 800.000 150.000 L 800.000 200.000 600.000 200.000 L 400.000 200.000 400.000 150.000 L 400.000 100.000 350.000 100.000 L 300.000 100.000 300.000 150.000 M950.000 725.000 L 950.000 1000.000 600.000 1000.000 L 250.000 1000.000 250.000 725.000 L 250.000 450.000 600.000 450.000 L 950.000 450.000 950.000 725.000 M412.541 649.844 C 359.529 713.368,350.453 725.162,352.541 727.819 C 353.893 729.542,382.000 763.362,415.000 802.975 L 475.000 875.000 475.535 825.500 L 476.070 776.000 600.000 776.000 L 723.930 776.000 724.465 825.500 L 725.000 875.000 785.000 802.975 C 818.000 763.362,846.107 729.542,847.459 727.819 C 849.547 725.162,840.471 713.368,787.459 649.844 L 725.000 575.000 724.466 625.500 L 723.931 676.000 600.000 676.000 L 476.069 676.000 475.534 625.500 L 475.000 575.000 412.541 649.844 " fill="#1D1E23" stroke="none" fill-rule="evenodd"></path></svg>