<svg width="1200" height="1200" viewBox="0 0 1200 1200" fill="none" xmlns="http://www.w3.org/2000/svg"><path d="M186.288 252.174 C 170.048 257.135,156.493 270.974,152.177 287.000 C 149.102 298.419,149.134 955.648,152.210 970.402 C 160.026 1007.883,192.117 1039.974,229.598 1047.790 C 237.071 1049.348,331.212 1050.000,548.742 1050.000 C 895.290 1050.000,868.934 1051.171,885.053 1035.053 C 904.616 1015.489,904.616 984.511,885.053 964.947 C 868.989 948.884,892.135 950.000,575.000 950.000 C 257.865 950.000,281.011 951.116,264.947 935.053 C 248.835 918.940,250.011 945.213,249.912 599.144 C 249.817 266.225,250.388 283.753,239.167 269.041 C 227.894 254.262,204.196 246.703,186.288 252.174 M457.469 402.143 C 437.020 407.050,415.864 424.758,406.798 444.555 C 401.877 455.302,401.099 459.456,401.099 475.000 C 401.099 490.465,401.887 494.719,406.692 505.209 C 413.764 520.646,429.195 536.032,445.000 543.403 L 457.000 549.000 600.000 549.000 L 743.000 549.000 755.209 543.357 C 770.674 536.210,786.077 520.728,793.372 505.000 C 798.165 494.665,798.935 490.502,798.919 475.000 C 798.904 459.479,798.116 455.286,793.202 444.555 C 786.222 429.312,770.655 413.960,754.505 406.392 L 743.000 401.000 604.000 400.668 C 526.799 400.484,461.652 401.140,457.469 402.143 M707.469 652.143 C 687.020 657.050,665.864 674.758,656.798 694.555 C 651.877 705.302,651.099 709.456,651.099 725.000 C 651.099 740.465,651.887 744.719,656.692 755.209 C 663.764 770.646,679.195 786.032,695.000 793.403 L 707.000 799.000 850.000 799.000 L 993.000 799.000 1005.209 793.357 C 1020.674 786.210,1036.077 770.728,1043.372 755.000 C 1048.165 744.665,1048.935 740.502,1048.919 725.000 C 1048.904 709.479,1048.116 705.286,1043.202 694.555 C 1036.222 679.312,1020.655 663.960,1004.505 656.392 L 993.000 651.000 854.000 650.668 C 776.799 650.484,711.652 651.140,707.469 652.143 " fill="#1D1E23" stroke="none" fill-rule="evenodd"></path></svg>