<svg width="1200" height="1200" viewBox="0 0 1200 1200" fill="none" xmlns="http://www.w3.org/2000/svg"><path d="M283.181 53.147 C 271.791 57.320,262.844 64.851,256.545 75.568 C 251.199 84.661,250.976 86.167,250.328 117.500 L 249.656 150.000 221.195 150.000 C 205.542 150.000,187.394 150.972,180.867 152.161 C 153.479 157.147,124.813 178.589,112.258 203.479 C 99.333 229.104,100.062 205.425,100.030 600.402 C 100.009 855.166,100.643 962.889,102.210 970.402 C 110.164 1008.541,142.834 1040.692,181.000 1047.937 C 189.436 1049.539,232.496 1050.035,326.000 1049.608 C 458.473 1049.002,459.032 1048.983,467.189 1044.618 C 476.724 1039.516,487.327 1028.099,491.250 1018.710 C 494.787 1010.244,494.787 989.756,491.250 981.290 C 487.327 971.901,476.724 960.484,467.189 955.382 C 459.114 951.061,457.448 950.986,348.000 950.000 L 237.000 949.000 227.498 944.320 C 222.271 941.747,215.321 936.397,212.053 932.432 C 199.338 917.006,200.000 932.319,200.000 653.644 L 200.000 400.000 549.887 400.000 L 899.775 400.000 900.387 457.500 C 900.973 512.420,901.199 515.372,905.431 523.285 C 924.445 558.837,975.555 558.837,994.569 523.285 L 999.000 515.000 999.607 379.000 C 1000.034 283.278,999.540 239.446,997.937 231.000 C 991.511 197.144,967.281 169.141,933.000 155.951 C 922.535 151.925,916.459 151.220,885.500 150.444 L 850.000 149.554 850.000 121.133 C 850.000 87.033,847.405 77.300,835.007 64.902 C 814.034 43.929,778.491 46.201,760.599 69.660 C 751.562 81.507,750.024 89.040,750.011 121.500 L 750.000 150.000 550.000 150.000 L 350.000 150.000 350.000 121.356 C 350.000 87.048,347.421 77.316,335.053 64.947 C 321.434 51.329,300.896 46.656,283.181 53.147 M762.193 607.096 C 741.992 610.635,709.048 621.402,691.657 630.151 C 623.698 664.336,574.996 727.996,558.655 804.000 C 553.602 827.502,553.628 880.176,558.704 903.592 C 569.546 953.605,590.989 993.102,626.901 1029.208 C 647.496 1049.914,667.066 1064.429,689.974 1075.989 C 786.831 1124.866,903.758 1106.351,980.054 1030.054 C 1056.111 953.997,1074.838 837.381,1026.472 741.000 C 1014.498 717.139,1000.225 697.803,979.208 676.969 C 942.989 641.066,903.849 619.811,853.675 608.797 C 833.016 604.263,783.613 603.344,762.193 607.096 M735.000 738.212 C 741.344 739.949,749.321 746.665,773.530 770.647 L 804.059 800.891 833.530 771.522 C 870.979 734.201,878.577 730.660,899.107 740.966 C 911.364 747.119,918.290 756.905,919.531 769.828 C 921.173 786.914,917.912 792.282,886.317 824.495 L 857.216 854.164 885.409 882.582 C 900.915 898.212,915.041 913.880,916.801 917.401 C 921.119 926.040,920.878 941.426,916.289 949.981 C 909.894 961.906,899.611 968.628,886.290 969.592 C 877.935 970.196,872.713 969.468,867.821 967.018 C 864.069 965.139,848.201 950.904,832.558 935.384 L 804.116 907.168 774.558 936.283 C 742.426 967.933,737.069 971.188,719.828 969.531 C 706.905 968.290,697.119 961.364,690.966 949.107 C 680.660 928.577,684.201 920.979,721.522 883.530 L 750.891 854.059 720.634 823.530 C 695.173 797.840,690.003 791.602,688.025 784.182 C 682.837 764.722,692.698 745.553,711.310 738.917 C 720.790 735.537,724.793 735.418,735.000 738.212 " fill="#1D1E23" stroke="none" fill-rule="evenodd"></path></svg>