<svg width="1200" height="1200" viewBox="0 0 1200 1200" fill="none" xmlns="http://www.w3.org/2000/svg"><path d="M300.000 150.000 L 300.000 200.000 225.000 200.000 L 150.000 200.000 150.000 650.000 L 150.000 1100.000 600.000 1100.000 L 1050.000 1100.000 1050.000 650.000 L 1050.000 200.000 975.000 200.000 L 900.000 200.000 900.000 150.000 L 900.000 100.000 850.000 100.000 L 800.000 100.000 800.000 150.000 L 800.000 200.000 600.000 200.000 L 400.000 200.000 400.000 150.000 L 400.000 100.000 350.000 100.000 L 300.000 100.000 300.000 150.000 M950.000 725.000 L 950.000 1000.000 600.000 1000.000 L 250.000 1000.000 250.000 725.000 L 250.000 450.000 600.000 450.000 L 950.000 450.000 950.000 725.000 M350.000 600.000 L 350.000 650.000 400.000 650.000 L 450.000 650.000 450.000 600.000 L 450.000 550.000 400.000 550.000 L 350.000 550.000 350.000 600.000 M550.000 600.000 L 550.000 650.000 600.000 650.000 L 650.000 650.000 650.000 600.000 L 650.000 550.000 600.000 550.000 L 550.000 550.000 550.000 600.000 M750.000 600.000 L 750.000 650.000 800.000 650.000 L 850.000 650.000 850.000 600.000 L 850.000 550.000 800.000 550.000 L 750.000 550.000 750.000 600.000 M350.000 750.000 L 350.000 800.000 400.000 800.000 L 450.000 800.000 450.000 750.000 L 450.000 700.000 400.000 700.000 L 350.000 700.000 350.000 750.000 M550.000 750.000 L 550.000 800.000 600.000 800.000 L 650.000 800.000 650.000 750.000 L 650.000 700.000 600.000 700.000 L 550.000 700.000 550.000 750.000 M750.000 750.000 L 750.000 800.000 800.000 800.000 L 850.000 800.000 850.000 750.000 L 850.000 700.000 800.000 700.000 L 750.000 700.000 750.000 750.000 M350.000 900.000 L 350.000 950.000 400.000 950.000 L 450.000 950.000 450.000 900.000 L 450.000 850.000 400.000 850.000 L 350.000 850.000 350.000 900.000 M550.000 900.000 L 550.000 950.000 600.000 950.000 L 650.000 950.000 650.000 900.000 L 650.000 850.000 600.000 850.000 L 550.000 850.000 550.000 900.000 M750.000 900.000 L 750.000 950.000 800.000 950.000 L 850.000 950.000 850.000 900.000 L 850.000 850.000 800.000 850.000 L 750.000 850.000 750.000 900.000 " fill="#1D1E23" stroke="none" fill-rule="evenodd"></path></svg>