<svg width="1200" height="1200" viewBox="0 0 1200 1200" fill="none" xmlns="http://www.w3.org/2000/svg"><path d="M713.945 83.272 C 705.551 88.825,605.921 188.649,602.691 194.743 C 596.299 206.800,598.076 209.179,658.588 269.554 C 714.143 324.984,715.309 326.000,723.308 326.000 C 729.443 326.000,732.756 324.698,736.727 320.727 L 742.000 315.455 742.000 277.803 L 742.000 240.151 755.500 241.232 C 814.081 245.924,861.573 267.335,901.119 306.881 C 944.151 349.913,966.523 403.846,966.707 465.000 C 966.795 493.893,963.825 512.216,954.615 539.610 C 946.894 562.575,946.913 570.828,954.716 582.406 C 970.223 605.418,1001.862 605.291,1017.454 582.154 C 1022.828 574.180,1032.216 545.769,1037.348 521.952 C 1042.581 497.663,1042.535 432.178,1037.267 408.000 C 1007.534 271.516,898.046 175.625,761.743 166.693 L 742.000 165.399 742.000 127.877 L 742.000 90.356 735.847 85.178 C 728.785 79.236,721.061 78.563,713.945 83.272 M184.734 152.822 C 173.264 156.455,162.780 164.963,156.401 175.813 C 151.436 184.258,151.022 186.615,151.271 205.000 C 152.144 269.474,173.818 374.609,202.061 451.361 C 232.887 535.133,279.191 620.740,330.503 688.821 C 381.196 756.081,448.514 822.978,515.266 872.426 C 608.847 941.749,720.796 995.007,833.366 1023.755 C 889.463 1038.081,955.027 1048.215,995.000 1048.738 C 1013.500 1048.980,1015.707 1048.584,1024.432 1043.455 C 1029.620 1040.406,1036.127 1034.944,1038.893 1031.318 C 1050.021 1016.729,1050.000 1016.983,1050.000 894.923 L 1050.000 782.349 1043.475 769.745 C 1032.307 748.171,1033.568 748.619,919.726 725.763 C 865.584 714.893,818.457 706.000,814.999 706.000 C 811.542 706.000,804.277 707.483,798.856 709.295 C 790.146 712.206,781.316 720.228,722.908 778.295 C 686.558 814.433,656.040 844.000,655.092 844.000 C 654.144 844.000,644.285 838.450,633.184 831.667 C 526.994 766.782,429.932 668.880,365.220 561.385 L 355.820 545.771 420.410 479.774 C 489.712 408.963,493.904 403.564,494.000 385.000 C 494.029 379.500,485.315 331.916,474.636 279.259 C 452.420 169.711,451.967 168.416,432.000 157.186 L 421.000 151.000 307.000 150.602 C 217.699 150.290,191.209 150.771,184.734 152.822 " fill="#1D1E23" stroke="none" fill-rule="evenodd"></path></svg>