<svg width="1200" height="1200" viewBox="0 0 1200 1200" fill="none" xmlns="http://www.w3.org/2000/svg"><path d="M713.945 83.272 C 705.551 88.825,605.921 188.649,602.691 194.743 C 596.299 206.800,598.076 209.179,658.588 269.554 C 709.627 320.477,715.803 326.000,721.712 326.000 C 728.963 326.000,735.717 323.018,739.436 318.173 C 741.146 315.946,741.892 303.821,741.936 277.500 L 742.000 240.000 746.500 240.006 C 748.975 240.009,759.100 241.004,769.000 242.217 C 845.190 251.554,911.904 299.318,944.840 368.112 C 968.944 418.457,974.099 476.601,958.865 526.302 C 956.050 535.486,952.363 547.518,950.672 553.040 C 948.203 561.103,948.042 564.727,949.852 571.449 C 955.911 593.952,980.222 605.717,1001.083 596.241 C 1016.121 589.410,1023.509 576.161,1033.002 539.000 C 1040.267 510.560,1042.733 484.897,1041.346 452.155 C 1039.392 406.029,1030.914 373.246,1010.015 331.000 C 963.392 236.757,868.282 173.674,762.347 166.732 L 742.000 165.399 742.000 128.546 L 742.000 91.692 736.154 85.846 C 729.467 79.160,721.548 78.242,713.945 83.272 M134.444 152.939 C 122.696 156.608,113.128 164.369,106.545 175.568 C 101.335 184.429,101.015 186.331,101.250 207.000 C 101.899 264.134,119.131 353.051,144.123 428.228 C 229.117 683.895,422.751 888.942,672.696 987.957 C 758.027 1021.761,858.229 1044.837,938.706 1049.220 C 960.546 1050.409,961.223 1050.316,971.963 1044.632 C 984.185 1038.163,994.730 1025.897,997.909 1014.449 C 999.219 1009.731,999.982 966.218,999.989 895.751 C 1000.001 775.280,1000.030 775.639,988.994 761.169 C 978.914 747.955,970.248 745.390,866.000 724.775 C 763.968 704.598,757.900 703.920,743.608 711.110 C 739.973 712.938,707.526 743.791,671.503 779.673 L 606.006 844.913 598.542 840.956 C 594.437 838.780,576.661 827.422,559.039 815.715 C 462.592 751.641,379.865 666.006,319.138 567.382 L 305.827 545.763 370.413 479.814 C 407.949 441.486,436.947 410.223,439.648 405.170 C 442.750 399.367,444.349 392.903,444.455 385.737 C 444.548 379.403,436.622 336.044,425.125 280.000 C 403.456 174.372,401.939 169.696,386.069 159.620 C 381.157 156.502,373.957 153.066,370.069 151.986 C 358.512 148.775,145.012 149.639,134.444 152.939 " fill="#1D1E23" stroke="none" fill-rule="evenodd"></path></svg>