<svg width="1200" height="1200" viewBox="0 0 1200 1200" fill="none" xmlns="http://www.w3.org/2000/svg"><path d="M474.113 102.181 C 462.664 104.426,438.924 115.739,430.216 123.099 C 426.485 126.253,409.013 144.621,391.391 163.917 L 359.349 199.000 269.175 200.028 C 180.101 201.043,178.853 201.113,167.000 205.812 C 133.028 219.277,109.109 246.518,102.210 279.598 C 99.091 294.557,99.091 905.443,102.210 920.402 C 110.026 957.883,142.117 989.974,179.598 997.790 C 194.606 1000.919,1005.394 1000.919,1020.402 997.790 C 1057.883 989.974,1089.974 957.883,1097.790 920.402 C 1100.909 905.443,1100.909 294.557,1097.790 279.598 C 1090.891 246.518,1066.972 219.277,1033.000 205.812 C 1021.147 201.113,1019.898 201.043,930.838 200.028 L 840.676 199.000 806.476 161.868 C 787.666 141.445,768.839 122.364,764.638 119.466 C 753.419 111.727,736.182 104.310,724.081 102.015 C 710.988 99.532,486.863 99.681,474.113 102.181 M630.052 352.078 C 668.433 356.784,707.677 371.604,741.186 394.045 C 761.456 407.620,792.380 438.544,805.955 458.814 C 855.877 533.357,863.557 626.900,826.182 705.186 C 792.067 776.645,733.927 824.038,656.548 843.463 C 624.876 851.414,575.124 851.414,543.452 843.463 C 466.073 824.038,407.933 776.645,373.818 705.186 C 336.443 626.900,344.123 533.357,394.045 458.814 C 407.620 438.544,438.544 407.620,458.814 394.045 C 510.430 359.477,570.445 344.769,630.052 352.078 M575.150 451.982 C 560.088 454.714,546.502 459.587,529.806 468.247 C 461.554 503.647,432.222 585.155,461.683 657.549 C 476.054 692.864,507.136 723.946,542.451 738.317 C 599.444 761.511,662.569 748.919,705.744 705.744 C 761.909 649.578,764.747 560.606,712.275 501.000 C 694.845 481.201,663.819 461.966,637.816 454.841 C 624.541 451.203,588.508 449.559,575.150 451.982 " fill="#1D1E23" stroke="none" fill-rule="evenodd"></path></svg>