<svg width="1200" height="1200" viewBox="0 0 1200 1200" fill="none" xmlns="http://www.w3.org/2000/svg"><path d="M552.000 103.358 C 485.382 110.186,417.425 130.808,360.000 161.620 C 336.753 174.094,298.790 200.122,295.350 205.947 C 287.468 219.289,286.573 217.414,368.557 359.238 C 410.601 431.969,446.350 493.430,448.000 495.819 C 454.497 505.226,471.337 506.913,482.745 499.299 C 488.540 495.433,691.930 141.983,693.332 133.344 C 694.735 124.699,689.793 113.911,682.468 109.627 C 674.306 104.853,640.630 101.960,597.422 102.320 C 576.290 102.496,555.850 102.963,552.000 103.358 M774.878 143.748 C 766.665 148.757,613.370 413.226,612.435 424.000 C 612.052 428.415,613.304 433.364,615.826 437.403 C 624.244 450.887,609.744 450.110,842.107 449.527 L 1052.308 449.000 1059.154 441.529 C 1068.928 430.864,1068.444 423.299,1056.239 395.946 C 1010.065 292.468,927.125 206.190,824.132 154.500 C 792.908 138.830,785.571 137.228,774.878 143.748 M220.637 282.251 C 212.765 284.468,203.880 294.621,184.977 323.000 C 143.860 384.727,117.859 452.706,105.793 530.024 C 97.770 581.441,100.286 671.545,110.200 687.849 C 118.009 700.688,109.358 700.123,289.122 699.534 L 452.308 699.000 459.154 691.529 C 472.611 676.844,478.446 689.070,359.739 483.244 C 301.295 381.910,251.308 296.087,248.657 292.527 C 241.224 282.545,231.830 279.100,220.637 282.251 M748.837 501.938 C 746.547 502.864,742.272 506.476,739.337 509.964 C 727.946 523.501,723.009 513.428,843.421 722.293 C 913.125 843.199,954.685 913.335,957.921 915.516 C 960.963 917.567,966.898 918.953,972.717 918.971 C 981.854 918.998,982.988 918.395,991.717 908.865 C 996.823 903.291,1006.982 889.791,1014.294 878.865 C 1081.345 778.674,1110.607 655.861,1095.723 537.107 C 1093.075 515.973,1090.183 509.273,1081.403 503.919 C 1075.188 500.130,1070.273 500.018,914.000 500.134 C 825.450 500.200,751.127 501.011,748.837 501.938 M719.247 699.515 C 710.951 704.554,507.962 1055.412,506.541 1067.169 C 505.313 1077.335,509.840 1086.780,517.951 1090.975 C 528.205 1096.277,553.685 1098.754,598.000 1098.757 C 665.380 1098.760,713.398 1090.314,776.121 1067.425 C 824.549 1049.752,893.937 1010.287,904.354 994.489 C 912.827 981.639,913.289 982.634,838.733 853.227 C 750.114 699.410,751.188 701.183,744.988 698.359 C 737.518 694.955,725.895 695.477,719.247 699.515 M145.746 753.367 C 138.558 757.828,134.000 766.184,134.000 774.898 C 134.000 789.263,163.531 847.577,189.757 885.000 C 237.406 952.991,302.835 1009.344,376.861 1046.148 C 407.011 1061.138,414.529 1062.712,425.126 1056.250 C 429.894 1053.342,448.507 1022.653,509.122 917.757 C 582.229 791.244,586.993 782.409,586.996 773.346 C 587.000 764.751,586.181 762.942,579.529 756.846 L 572.059 750.000 361.529 750.053 C 170.443 750.102,150.515 750.408,145.746 753.367 " fill="#1D1E23" stroke="none" fill-rule="evenodd"></path></svg>