<svg width="1200" height="1200" viewBox="0 0 1200 1200" fill="none" xmlns="http://www.w3.org/2000/svg"><path d="M566.000 101.175 C 562.150 101.630,550.450 102.930,540.000 104.064 C 481.636 110.397,418.492 130.263,364.231 159.365 C 343.193 170.647,302.993 196.901,290.528 207.498 L 284.056 213.000 375.197 371.000 C 425.324 457.900,466.546 529.209,466.800 529.464 C 467.134 529.800,702.456 123.013,707.333 113.669 C 710.572 107.463,597.427 97.461,566.000 101.175 M775.367 135.500 C 774.888 136.325,735.580 204.500,688.015 287.000 C 640.450 369.500,599.765 439.925,597.604 443.500 L 593.674 450.000 835.054 450.000 L 1076.434 450.000 1075.094 444.500 C 1072.124 432.305,1054.912 391.644,1043.556 370.000 C 995.754 278.885,922.674 205.896,831.080 157.788 C 810.383 146.917,781.475 134.000,777.843 134.000 C 776.959 134.000,775.845 134.675,775.367 135.500 M214.912 282.500 C 136.551 377.335,96.035 496.355,100.703 618.000 C 101.936 650.136,103.801 668.027,108.155 689.500 L 110.284 700.000 297.193 700.000 L 484.103 700.000 481.256 694.500 C 478.750 689.658,441.369 624.808,274.320 335.500 C 251.613 296.175,232.397 264.000,231.617 264.000 C 230.837 264.000,223.319 272.325,214.912 282.500 M718.260 504.500 C 723.321 513.987,966.440 935.052,967.404 936.000 C 968.836 937.409,983.749 920.344,1000.611 898.000 C 1049.700 832.950,1082.436 754.152,1095.333 670.000 C 1101.789 627.868,1099.987 548.267,1091.700 509.500 L 1089.669 500.000 902.764 500.000 L 715.859 500.000 718.260 504.500 M730.654 674.415 C 728.148 677.693,704.954 717.702,587.164 921.932 C 521.524 1035.743,492.809 1087.279,494.520 1088.205 C 497.958 1090.064,533.118 1095.663,556.000 1097.995 C 645.363 1107.100,745.647 1087.231,830.615 1043.586 C 850.797 1033.220,897.902 1002.819,909.493 992.680 L 915.986 987.000 826.124 831.231 C 776.700 745.558,735.445 674.645,734.446 673.646 C 733.359 672.559,731.838 672.867,730.654 674.415 M124.906 755.500 C 127.876 767.695,145.088 808.356,156.444 830.000 C 205.074 922.693,281.587 998.282,373.720 1044.650 C 405.149 1060.468,421.722 1067.118,423.891 1064.781 C 424.799 1063.801,464.450 995.500,512.003 913.000 C 559.556 830.500,600.232 760.075,602.395 756.500 L 606.326 750.000 364.946 750.000 L 123.566 750.000 124.906 755.500 " fill="#1D1E23" stroke="none" fill-rule="evenodd"></path></svg>