<svg width="1200" height="1200" viewBox="0 0 1200 1200" fill="none" xmlns="http://www.w3.org/2000/svg"><path d="M553.444 2.071 C 510.187 5.696,450.288 17.310,443.592 23.369 C 434.637 31.473,434.973 31.871,536.500 133.519 C 589.575 186.657,635.032 230.653,637.515 231.287 C 640.124 231.954,644.133 231.062,647.015 229.174 L 652.000 225.908 652.000 163.810 L 652.000 101.712 663.500 103.029 C 684.252 105.407,723.092 113.795,747.265 121.121 C 824.493 144.525,890.884 183.820,949.755 240.969 C 1021.650 310.760,1066.356 389.930,1090.254 489.778 C 1093.516 503.406,1097.461 517.023,1099.020 520.038 C 1110.573 542.379,1135.866 553.811,1158.917 547.110 C 1176.789 541.915,1189.595 527.851,1193.005 509.678 C 1194.658 500.866,1190.219 475.857,1180.636 440.000 C 1137.244 277.622,1025.725 142.135,872.000 65.034 C 811.636 34.758,742.234 13.805,673.000 4.954 C 643.185 1.142,582.098 -0.331,553.444 2.071 M474.554 324.779 L 449.775 349.559 414.387 350.446 C 383.544 351.220,377.459 351.927,367.000 355.951 C 333.369 368.891,309.122 396.453,302.210 429.598 C 299.129 444.372,299.129 755.628,302.210 770.402 C 310.026 807.883,342.117 839.974,379.598 847.790 C 394.463 850.890,805.537 850.890,820.402 847.790 C 857.883 839.974,889.974 807.883,897.790 770.402 C 900.871 755.628,900.871 444.372,897.790 429.598 C 890.877 396.450,866.616 368.874,833.000 355.957 C 822.569 351.949,816.424 351.231,786.000 350.465 L 751.000 349.583 725.692 324.792 L 700.383 300.000 599.858 300.000 L 499.333 300.000 474.554 324.779 M633.087 506.186 C 662.422 517.118,682.554 537.194,694.067 567.000 C 697.858 576.814,698.703 582.826,698.703 600.000 C 698.703 617.174,697.858 623.186,694.067 633.000 C 671.920 690.336,611.173 715.454,556.719 689.792 C 534.244 679.201,515.821 658.599,505.933 633.000 C 499.267 615.745,499.281 584.188,505.961 567.000 C 514.502 545.027,526.965 529.033,544.642 517.361 C 554.469 510.873,573.099 503.227,584.000 501.209 C 595.043 499.164,621.419 501.838,633.087 506.186 M41.641 652.714 C 24.724 657.407,12.505 669.763,7.739 687.000 C 4.937 697.133,9.168 723.001,20.170 763.000 C 47.689 863.047,101.222 953.829,175.296 1026.067 C 206.840 1056.830,226.454 1072.666,264.000 1097.685 C 401.093 1189.039,571.128 1220.837,730.795 1184.981 C 742.782 1182.289,754.257 1178.577,756.295 1176.733 C 765.379 1168.512,765.218 1168.321,663.500 1066.481 C 610.425 1013.343,564.968 969.347,562.485 968.713 C 559.876 968.046,555.867 968.938,552.985 970.826 L 548.000 974.092 548.000 1036.190 L 548.000 1098.288 536.500 1096.971 C 518.643 1094.925,478.866 1086.711,459.217 1081.012 C 379.864 1057.994,311.272 1018.110,251.517 960.240 C 179.172 890.176,135.205 813.354,110.823 714.406 C 106.838 698.233,102.355 682.633,100.861 679.740 C 89.724 658.169,64.112 646.481,41.641 652.714 " fill="#1D1E23" stroke="none" fill-rule="evenodd"></path></svg>