<svg width="1200" height="1200" viewBox="0 0 1200 1200" fill="none" xmlns="http://www.w3.org/2000/svg"><path d="M565.000 101.172 C 520.583 105.593,485.249 112.224,453.000 122.190 C 284.423 174.286,156.079 310.771,114.167 482.517 C 103.543 526.050,101.078 548.175,101.078 600.000 C 101.078 651.825,103.543 673.950,114.167 717.483 C 131.390 788.061,166.354 859.369,210.184 913.314 C 280.027 999.274,375.403 1059.693,482.517 1085.833 C 525.836 1096.404,548.142 1098.882,600.000 1098.882 C 651.858 1098.882,674.164 1096.404,717.483 1085.833 C 754.779 1076.732,785.760 1065.421,821.000 1048.042 C 954.632 982.138,1050.427 862.569,1085.833 717.483 C 1096.404 674.164,1098.882 651.858,1098.882 600.000 C 1098.882 565.054,1097.975 547.101,1095.345 530.000 C 1077.928 416.747,1026.240 316.245,945.739 239.106 C 869.948 166.480,777.010 121.307,670.000 105.083 C 649.917 102.038,581.793 99.501,565.000 101.172 M442.790 376.313 C 447.944 378.885,478.733 408.054,525.500 454.669 L 600.000 528.928 674.500 454.669 C 724.702 404.630,751.935 378.921,758.000 375.845 C 769.502 370.010,789.628 369.536,800.000 374.857 C 809.742 379.854,819.588 389.543,824.536 399.000 C 830.475 410.354,830.303 429.882,824.155 442.000 C 821.079 448.065,795.370 475.298,745.331 525.500 L 671.072 600.000 745.331 674.500 C 793.127 722.451,821.088 752.001,823.795 757.420 C 828.949 767.742,829.494 788.546,824.899 799.564 C 821.000 808.911,811.238 819.197,801.506 824.213 C 790.162 830.060,778.389 830.973,764.804 827.061 C 753.195 823.718,751.739 822.405,676.500 747.390 L 600.000 671.118 523.500 747.390 C 448.261 822.405,446.805 823.718,435.196 827.061 C 410.574 834.152,386.938 823.551,374.857 800.000 C 369.536 789.628,370.010 769.502,375.845 758.000 C 378.921 751.935,404.630 724.702,454.669 674.500 L 528.928 600.000 454.669 525.500 C 404.630 475.298,378.921 448.065,375.845 442.000 C 370.010 430.498,369.536 410.372,374.857 400.000 C 388.327 373.741,417.358 363.618,442.790 376.313 " fill="#1D1E23" stroke="none" fill-rule="evenodd"></path></svg>