<svg width="1200" height="1200" viewBox="0 0 1200 1200" fill="none" xmlns="http://www.w3.org/2000/svg"><path d="M565.000 101.172 C 520.583 105.593,485.249 112.224,453.000 122.190 C 284.423 174.286,156.079 310.771,114.167 482.517 C 103.543 526.050,101.078 548.175,101.078 600.000 C 101.078 651.825,103.543 673.950,114.167 717.483 C 131.390 788.061,166.354 859.369,210.184 913.314 C 280.027 999.274,375.403 1059.693,482.517 1085.833 C 525.836 1096.404,548.142 1098.882,600.000 1098.882 C 651.858 1098.882,674.164 1096.404,717.483 1085.833 C 754.779 1076.732,785.760 1065.421,821.000 1048.042 C 954.632 982.138,1050.427 862.569,1085.833 717.483 C 1096.404 674.164,1098.882 651.858,1098.882 600.000 C 1098.882 565.054,1097.975 547.101,1095.345 530.000 C 1077.928 416.747,1026.240 316.245,945.739 239.106 C 869.948 166.480,777.010 121.307,670.000 105.083 C 649.917 102.038,581.793 99.501,565.000 101.172 M636.288 202.019 C 788.530 216.859,916.970 313.759,972.935 456.000 C 1016.866 567.656,1005.711 700.316,943.691 803.771 C 836.000 983.409,611.250 1050.747,425.000 959.175 C 259.888 877.997,171.345 696.961,208.919 517.378 C 231.483 409.538,300.055 313.964,396.229 256.309 C 467.345 213.676,554.249 194.022,636.288 202.019 M435.493 435.493 L 400.004 470.982 464.491 535.491 L 528.977 600.000 464.491 664.509 L 400.004 729.018 435.493 764.507 L 470.982 799.996 535.491 735.509 L 600.000 671.023 664.509 735.509 L 729.018 799.996 764.507 764.507 L 799.996 729.018 735.509 664.509 L 671.023 600.000 735.509 535.491 L 799.996 470.982 764.507 435.493 L 729.018 400.004 664.509 464.491 L 600.000 528.977 535.491 464.491 L 470.982 400.004 435.493 435.493 " fill="#1D1E23" stroke="none" fill-rule="evenodd"></path></svg>