<svg width="1200" height="1200" viewBox="0 0 1200 1200" fill="none" xmlns="http://www.w3.org/2000/svg"><path d="M565.000 101.172 C 520.583 105.593,485.249 112.224,453.000 122.190 C 284.423 174.286,156.079 310.771,114.167 482.517 C 103.543 526.050,101.078 548.175,101.078 600.000 C 101.078 651.825,103.543 673.950,114.167 717.483 C 131.390 788.061,166.354 859.369,210.184 913.314 C 280.027 999.274,375.403 1059.693,482.517 1085.833 C 525.836 1096.404,548.142 1098.882,600.000 1098.882 C 651.858 1098.882,674.164 1096.404,717.483 1085.833 C 754.779 1076.732,785.760 1065.421,821.000 1048.042 C 954.632 982.138,1050.427 862.569,1085.833 717.483 C 1096.404 674.164,1098.882 651.858,1098.882 600.000 C 1098.882 565.054,1097.975 547.101,1095.345 530.000 C 1077.928 416.747,1026.240 316.245,945.739 239.106 C 869.948 166.480,777.010 121.307,670.000 105.083 C 649.917 102.038,581.793 99.501,565.000 101.172 M689.508 439.492 L 779.015 350.001 814.507 385.493 L 849.999 420.985 760.508 510.492 L 671.017 600.000 760.508 689.508 L 849.999 779.015 814.507 814.507 L 779.015 849.999 689.508 760.508 L 600.000 671.017 510.492 760.508 L 420.985 849.999 385.493 814.507 L 350.001 779.015 439.492 689.508 L 528.983 600.000 439.492 510.492 L 350.001 420.985 385.493 385.493 L 420.985 350.001 510.492 439.492 L 600.000 528.983 689.508 439.492 " fill="#1D1E23" stroke="none" fill-rule="evenodd"></path></svg>