<svg width="1200" height="1200" viewBox="0 0 1200 1200" fill="none" xmlns="http://www.w3.org/2000/svg"><path d="M565.000 101.172 C 520.583 105.593,485.249 112.224,453.000 122.190 C 284.423 174.286,156.079 310.771,114.167 482.517 C 103.543 526.050,101.078 548.175,101.078 600.000 C 101.078 651.825,103.543 673.950,114.167 717.483 C 131.390 788.061,166.354 859.369,210.184 913.314 C 280.027 999.274,375.403 1059.693,482.517 1085.833 C 525.836 1096.404,548.142 1098.882,600.000 1098.882 C 651.858 1098.882,674.164 1096.404,717.483 1085.833 C 754.779 1076.732,785.760 1065.421,821.000 1048.042 C 954.632 982.138,1050.427 862.569,1085.833 717.483 C 1096.404 674.164,1098.882 651.858,1098.882 600.000 C 1098.882 565.054,1097.975 547.101,1095.345 530.000 C 1077.928 416.747,1026.240 316.245,945.739 239.106 C 869.948 166.480,777.010 121.307,670.000 105.083 C 649.917 102.038,581.793 99.501,565.000 101.172 M636.288 202.019 C 788.530 216.859,916.970 313.759,972.935 456.000 C 1016.866 567.656,1005.711 700.316,943.691 803.771 C 836.000 983.409,611.250 1050.747,425.000 959.175 C 259.888 877.997,171.345 696.961,208.919 517.378 C 231.483 409.538,300.055 313.964,396.229 256.309 C 467.345 213.676,554.249 194.022,636.288 202.019 M459.000 421.775 C 449.673 424.194,441.573 429.049,434.724 436.329 C 421.266 450.633,417.490 466.314,422.956 485.196 C 426.259 496.605,428.090 498.725,477.601 548.500 L 528.829 600.000 477.601 651.500 C 428.090 701.275,426.259 703.395,422.956 714.804 C 417.351 734.167,422.031 751.837,436.325 765.276 C 450.640 778.735,466.315 782.509,485.196 777.044 C 496.605 773.741,498.725 771.910,548.500 722.399 L 600.000 671.171 651.500 722.399 C 701.275 771.910,703.395 773.741,714.804 777.044 C 734.167 782.649,751.837 777.969,765.276 763.675 C 778.735 749.360,782.509 733.685,777.044 714.804 C 773.741 703.395,771.910 701.275,722.399 651.500 L 671.171 600.000 722.399 548.500 C 771.910 498.725,773.741 496.605,777.044 485.196 C 780.975 471.613,780.069 459.856,774.213 448.494 C 769.197 438.762,758.911 429.000,749.564 425.101 C 738.531 420.500,717.738 421.050,707.420 426.217 C 702.268 428.797,679.786 449.543,649.500 479.664 L 600.000 528.894 550.500 479.664 C 521.007 450.332,497.682 428.772,492.790 426.324 C 483.368 421.608,467.753 419.506,459.000 421.775 " fill="#1D1E23" stroke="none" fill-rule="evenodd"></path></svg>