<svg width="1200" height="1200" viewBox="0 0 1200 1200" fill="none" xmlns="http://www.w3.org/2000/svg"><path d="M247.268 303.173 C 223.576 308.908,216.512 314.460,156.411 374.589 L 99.930 431.096 153.465 484.257 C 201.186 531.645,224.509 552.000,231.086 552.000 C 232.268 552.000,236.065 537.006,239.569 518.500 L 245.912 485.000 218.957 457.975 L 192.002 430.950 222.501 400.690 C 239.275 384.047,254.966 369.433,257.369 368.215 C 260.509 366.622,351.773 366.000,582.066 366.000 C 862.921 366.000,903.176 366.370,908.729 369.005 C 912.213 370.659,928.087 385.058,944.005 401.005 L 972.946 429.998 946.089 456.911 L 919.232 483.824 924.979 515.881 C 928.139 533.512,931.387 549.008,932.195 550.315 C 935.690 555.970,956.810 538.215,1010.338 484.624 L 1065.000 429.896 1008.000 373.371 C 946.023 311.911,939.584 307.084,913.035 302.176 C 904.843 300.661,803.649 300.051,580.133 300.167 C 309.999 300.307,257.137 300.784,247.268 303.173 M362.525 433.028 C 346.855 436.433,327.084 446.846,320.901 454.951 C 316.791 460.340,310.959 488.965,276.088 674.879 C 254.040 792.432,236.000 891.448,236.000 894.913 C 236.000 904.333,245.288 921.159,254.690 928.772 C 266.063 937.982,273.653 941.563,291.436 946.112 C 304.738 949.514,313.729 950.000,363.306 950.000 L 419.971 950.000 651.486 799.726 C 778.819 717.076,883.227 649.274,883.504 649.056 C 884.088 648.596,850.535 468.992,848.745 463.000 C 845.315 451.513,827.631 439.788,805.008 434.002 C 789.831 430.120,783.127 430.005,582.180 430.159 C 415.802 430.287,372.543 430.852,362.525 433.028 M791.060 456.896 C 794.872 458.489,798.837 461.864,799.870 464.396 C 801.701 468.881,828.114 639.589,828.038 646.445 C 828.002 649.671,817.537 649.924,662.500 650.446 L 497.000 651.003 485.000 655.559 C 467.241 662.302,453.045 672.504,446.948 682.908 C 441.811 691.675,441.408 694.860,432.866 794.466 C 428.029 850.860,424.056 899.025,424.036 901.500 L 424.000 906.000 370.869 906.000 C 335.435 906.000,316.282 905.251,313.369 903.750 C 305.499 899.697,300.000 893.392,300.000 888.422 C 300.000 882.604,363.671 467.185,365.156 463.315 C 365.721 461.843,369.067 459.203,372.591 457.448 C 378.327 454.591,400.277 454.242,581.564 454.128 C 754.073 454.019,785.157 454.430,791.060 456.896 M522.259 480.001 C 509.045 483.122,508.167 485.503,507.552 519.856 L 507.000 550.705 514.000 554.852 C 520.523 558.718,524.618 559.045,574.151 559.666 C 632.489 560.397,648.091 558.818,655.471 551.438 C 659.930 546.980,659.969 546.501,658.272 517.133 C 656.376 484.306,656.204 483.913,642.092 479.993 C 633.735 477.671,532.096 477.678,522.259 480.001 M775.833 682.741 C 775.375 683.148,763.365 690.798,749.144 699.741 L 723.288 716.000 610.644 716.000 L 498.000 716.000 498.000 705.382 C 498.000 693.589,500.144 689.636,509.000 685.099 C 514.216 682.426,532.088 682.023,645.833 682.012 C 717.792 682.006,776.292 682.333,775.833 682.741 M575.169 809.500 C 572.118 812.555,490.994 863.661,490.299 862.965 C 489.902 862.569,490.231 850.039,491.030 835.122 L 492.482 808.000 534.575 808.000 C 557.725 808.000,575.993 808.675,575.169 809.500 " fill="#1D1E23" stroke="none" fill-rule="evenodd"></path></svg>