<svg width="1200" height="1200" viewBox="0 0 1200 1200" fill="none" xmlns="http://www.w3.org/2000/svg"><path d="M134.000 201.369 C 94.202 208.131,60.365 240.495,52.210 279.598 C 49.091 294.557,49.091 905.443,52.210 920.402 C 60.026 957.883,92.117 989.974,129.598 997.790 C 137.158 999.366,272.226 1000.000,600.678 1000.000 C 1007.541 1000.000,1062.548 999.644,1073.080 996.939 C 1110.836 987.244,1140.103 957.261,1147.790 920.402 C 1150.909 905.443,1150.909 294.557,1147.790 279.598 C 1140.849 246.315,1117.331 219.526,1083.000 205.798 L 1071.000 201.000 605.000 200.760 C 348.700 200.628,136.750 200.902,134.000 201.369 M1067.009 253.312 C 1072.758 255.271,1080.130 260.025,1085.053 264.947 C 1101.169 281.064,1100.000 254.861,1100.000 600.000 C 1100.000 945.139,1101.169 918.936,1085.053 935.053 C 1068.734 951.371,1113.221 950.000,600.000 950.000 C 86.779 950.000,131.266 951.371,114.947 935.053 C 98.831 918.936,100.000 945.139,100.000 600.000 C 100.000 254.788,98.825 281.070,114.983 264.911 C 130.895 249.000,87.101 250.334,599.144 250.158 C 1020.594 250.013,1058.066 250.265,1067.009 253.312 M240.000 501.794 C 223.274 505.356,208.130 518.554,202.980 534.059 C 200.271 542.217,199.875 552.958,200.391 604.344 L 201.000 665.000 206.545 674.432 C 213.017 685.443,221.835 692.708,233.889 696.961 C 247.055 701.606,353.213 701.388,367.009 696.688 C 379.667 692.374,392.374 679.667,396.688 667.009 C 401.452 653.025,401.598 547.402,396.871 533.531 C 393.216 522.804,383.226 511.810,371.387 505.487 C 363.305 501.170,360.893 500.994,305.000 500.655 C 273.100 500.462,243.850 500.975,240.000 501.794 " fill="#1D1E23" stroke="none" fill-rule="evenodd"></path></svg>