<svg width="1200" height="1200" viewBox="0 0 1200 1200" fill="none" xmlns="http://www.w3.org/2000/svg"><path d="M583.492 452.171 C 565.539 456.402,556.616 463.798,459.438 554.989 C 348.302 659.278,350.936 656.117,351.079 685.000 C 351.141 697.455,352.163 703.054,355.692 710.272 C 362.974 725.163,372.952 735.234,387.542 742.416 L 400.916 749.000 599.958 749.000 L 799.000 749.000 810.296 743.704 C 824.681 736.960,836.960 724.681,843.704 710.296 C 847.957 701.224,849.000 696.046,849.000 684.000 C 849.000 656.260,850.755 658.361,742.917 557.038 C 690.734 508.007,644.106 465.237,639.300 461.993 C 624.219 451.815,601.768 447.864,583.492 452.171 " fill="#1D1E23" stroke="none" fill-rule="evenodd"></path></svg>