<svg width="1200" height="1200" viewBox="0 0 1200 1200" fill="none" xmlns="http://www.w3.org/2000/svg"><path d="M583.492 202.046 C 565.478 206.593,556.405 214.123,459.604 304.871 C 348.312 409.204,350.947 406.044,351.065 435.000 C 351.123 449.291,351.851 452.342,357.881 463.570 C 365.798 478.312,374.597 486.616,389.909 493.798 L 401.000 499.000 600.000 499.000 L 799.000 499.000 810.788 493.212 C 835.439 481.108,848.964 460.143,848.987 434.000 C 849.011 406.107,851.025 408.505,740.357 304.688 C 632.263 203.285,631.340 202.579,604.688 200.975 C 597.160 200.522,587.621 201.003,583.492 202.046 M400.821 702.244 C 371.221 708.990,348.204 739.818,350.373 769.810 C 352.132 794.115,352.867 794.966,455.453 891.335 C 506.779 939.551,552.424 981.936,556.886 985.524 C 566.505 993.258,586.601 1000.000,600.032 1000.000 C 612.733 1000.000,632.307 993.755,641.561 986.751 C 645.653 983.655,691.475 941.237,743.388 892.489 C 850.698 791.723,849.000 793.756,849.000 766.000 C 849.000 739.892,835.452 718.898,810.788 706.788 L 799.000 701.000 604.000 700.690 C 489.422 700.508,405.627 701.149,400.821 702.244 " fill="#1D1E23" stroke="none" fill-rule="evenodd"></path></svg>