<svg width="1200" height="1200" viewBox="0 0 1200 1200" fill="none" xmlns="http://www.w3.org/2000/svg"><path d="M134.000 151.327 C 123.664 152.996,104.637 160.762,94.526 167.438 C 73.539 181.296,57.312 205.132,52.210 229.598 C 50.888 235.937,50.000 263.728,50.000 298.742 C 50.000 365.917,50.877 370.983,64.947 385.053 C 84.511 404.616,115.489 404.616,135.053 385.053 C 147.738 372.368,150.000 363.278,150.000 325.000 C 150.000 286.722,152.262 277.632,164.947 264.947 C 181.214 248.681,142.814 250.000,600.000 250.000 C 1057.620 250.000,1018.754 248.649,1035.233 265.127 C 1051.062 280.956,1050.000 256.882,1050.000 600.000 C 1050.000 943.118,1051.062 919.044,1035.233 934.873 C 1019.646 950.459,1024.510 950.000,875.000 950.000 C 725.720 950.000,730.325 949.570,714.947 964.947 C 695.384 984.511,695.384 1015.489,714.947 1035.053 C 730.528 1050.633,722.632 1050.000,901.258 1050.000 C 1009.278 1050.000,1063.181 1049.296,1070.402 1047.790 C 1088.823 1043.948,1105.855 1034.500,1120.177 1020.177 C 1134.500 1005.855,1143.948 988.823,1147.790 970.402 C 1150.915 955.415,1150.915 244.585,1147.790 229.598 C 1140.894 196.531,1117.041 169.355,1083.000 155.784 L 1071.000 151.000 605.000 150.760 C 348.700 150.628,136.750 150.883,134.000 151.327 M89.000 503.870 C 49.608 513.460,36.909 563.312,67.104 589.823 C 76.965 598.481,80.869 599.770,110.241 604.067 C 210.286 618.704,297.618 661.840,367.155 730.965 C 437.332 800.726,481.361 889.313,495.936 990.069 C 500.194 1019.505,503.350 1027.420,514.706 1037.140 C 534.655 1054.216,562.351 1053.445,581.675 1035.276 C 595.857 1021.942,599.640 1007.652,596.116 980.731 C 583.573 884.932,545.349 792.384,486.590 715.545 C 467.370 690.410,427.364 648.785,402.000 627.530 C 325.873 563.736,229.333 520.599,130.000 505.992 C 101.169 501.752,98.307 501.604,89.000 503.870 M83.255 706.936 C 71.952 710.965,61.714 720.072,56.009 731.172 C 52.049 738.876,51.000 743.891,51.000 755.116 C 51.000 767.428,51.804 770.616,57.047 779.096 C 66.378 794.187,75.076 799.073,106.402 806.820 C 154.258 818.656,192.298 839.933,226.182 873.818 C 260.018 907.654,280.856 944.881,292.995 993.180 C 300.904 1024.650,305.886 1033.667,320.284 1042.568 C 352.217 1062.311,396.000 1038.019,396.000 1000.559 C 396.000 980.512,379.848 927.277,363.972 895.000 C 317.876 801.284,227.116 730.226,125.351 708.177 C 103.081 703.352,94.056 703.086,83.255 706.936 M50.000 974.742 L 50.000 1050.000 125.000 1050.000 L 200.000 1050.000 200.000 1042.916 C 200.000 1031.696,194.342 1007.254,188.317 992.451 C 167.940 942.377,118.795 906.262,63.637 900.827 L 50.000 899.483 50.000 974.742 " fill="#1D1E23" stroke="none" fill-rule="evenodd"></path></svg>