<svg width="1200" height="1200" viewBox="0 0 1200 1200" fill="none" xmlns="http://www.w3.org/2000/svg"><path d="M50.000 275.000 L 50.000 400.000 100.000 400.000 L 150.000 400.000 150.000 325.000 L 150.000 250.000 600.000 250.000 L 1050.000 250.000 1050.000 600.000 L 1050.000 950.000 875.000 950.000 L 700.000 950.000 700.000 1000.000 L 700.000 1050.000 925.000 1050.000 L 1150.000 1050.000 1150.000 600.000 L 1150.000 150.000 600.000 150.000 L 50.000 150.000 50.000 275.000 M50.000 549.423 L 50.000 599.431 72.500 600.804 C 186.929 607.791,289.048 653.156,367.946 732.054 C 446.844 810.952,492.209 913.071,499.196 1027.500 L 500.569 1050.000 550.589 1050.000 L 600.609 1050.000 599.275 1023.427 C 593.692 912.187,555.958 808.246,488.456 718.167 C 469.722 693.168,418.003 639.761,394.953 621.612 C 300.880 547.544,194.082 507.150,75.500 500.784 L 50.000 499.416 50.000 549.423 M50.000 749.597 L 50.000 799.193 73.500 801.574 C 103.785 804.642,129.937 811.763,155.186 823.818 C 183.908 837.530,204.149 851.784,226.182 873.818 C 268.215 915.851,292.393 966.949,298.426 1026.500 L 300.807 1050.000 350.707 1050.000 L 400.608 1050.000 399.350 1029.500 C 394.021 942.695,358.814 864.792,296.986 803.000 C 267.511 773.542,243.527 756.222,207.000 738.017 C 176.207 722.669,151.765 713.891,123.517 708.035 C 105.235 704.245,69.980 700.000,56.788 700.000 L 50.000 700.000 50.000 749.597 M50.000 974.742 L 50.000 1050.000 125.000 1050.000 L 200.000 1050.000 200.000 1042.916 C 200.000 1031.696,194.342 1007.254,188.317 992.451 C 167.940 942.377,118.795 906.262,63.637 900.827 L 50.000 899.483 50.000 974.742 " fill="#1D1E23" stroke="none" fill-rule="evenodd"></path></svg>