<svg width="1200" height="1200" viewBox="0 0 1200 1200" fill="none" xmlns="http://www.w3.org/2000/svg"><path d="M907.492 202.044 C 885.868 207.507,867.118 223.146,857.189 244.000 L 851.000 257.000 851.000 600.000 L 851.000 943.000 857.189 956.000 C 865.055 972.522,877.478 984.945,894.000 992.811 C 905.547 998.308,909.012 999.000,925.000 999.000 C 940.988 999.000,944.453 998.308,956.000 992.811 C 972.522 984.945,984.945 972.522,992.811 956.000 L 999.000 943.000 999.000 600.000 L 999.000 257.000 992.783 244.000 C 980.523 218.363,957.094 202.394,929.587 200.926 C 921.564 200.498,911.621 201.001,907.492 202.044 M607.492 452.044 C 585.868 457.507,567.118 473.146,557.189 494.000 L 551.000 507.000 551.000 725.000 L 551.000 943.000 557.189 956.000 C 565.055 972.522,577.478 984.945,594.000 992.811 C 605.547 998.308,609.012 999.000,625.000 999.000 C 640.988 999.000,644.453 998.308,656.000 992.811 C 672.522 984.945,684.945 972.522,692.811 956.000 L 699.000 943.000 699.000 725.000 L 699.000 507.000 692.783 494.000 C 680.523 468.363,657.094 452.394,629.587 450.926 C 621.564 450.498,611.621 451.001,607.492 452.044 M307.492 702.044 C 285.868 707.507,267.118 723.146,257.189 744.000 L 251.000 757.000 251.000 850.000 L 251.000 943.000 257.189 956.000 C 265.055 972.522,277.478 984.945,294.000 992.811 C 305.547 998.308,309.012 999.000,325.000 999.000 C 340.988 999.000,344.453 998.308,356.000 992.811 C 372.522 984.945,384.945 972.522,392.811 956.000 L 399.000 943.000 399.000 850.000 L 399.000 757.000 392.783 744.000 C 380.523 718.363,357.094 702.394,329.587 700.926 C 321.564 700.498,311.621 701.001,307.492 702.044 " fill="#1D1E23" stroke="none" fill-rule="evenodd"></path></svg>