<svg width="1200" height="1200" viewBox="0 0 1200 1200" fill="none" xmlns="http://www.w3.org/2000/svg"><path d="M100.000 475.000 L 100.000 850.000 325.000 850.000 L 550.000 850.000 550.000 825.000 L 550.000 800.000 350.000 800.000 L 150.000 800.000 150.000 475.000 L 150.000 150.000 600.000 150.000 L 1050.000 150.000 1050.000 475.000 L 1050.000 800.000 1025.000 800.000 L 1000.000 800.000 1000.000 825.000 L 1000.000 850.000 1050.000 850.000 L 1100.000 850.000 1100.000 475.000 L 1100.000 100.000 600.000 100.000 L 100.000 100.000 100.000 475.000 M300.000 325.000 L 300.000 350.000 600.000 350.000 L 900.000 350.000 900.000 325.000 L 900.000 300.000 600.000 300.000 L 300.000 300.000 300.000 325.000 M250.000 425.000 L 250.000 450.000 600.000 450.000 L 950.000 450.000 950.000 425.000 L 950.000 400.000 600.000 400.000 L 250.000 400.000 250.000 425.000 M758.017 623.976 C 748.812 637.189,741.091 648.000,740.860 648.000 C 740.628 648.000,728.865 642.663,714.719 636.141 C 692.341 625.822,688.825 624.718,687.653 627.641 C 686.913 629.488,685.371 642.141,684.228 655.758 C 683.085 669.375,681.691 680.975,681.130 681.536 C 680.569 682.097,667.858 683.709,652.883 685.117 C 637.908 686.525,625.275 688.058,624.810 688.524 C 624.344 688.989,629.413 700.900,636.074 714.993 C 642.735 729.085,647.468 741.267,646.592 742.063 C 645.716 742.859,635.100 750.482,623.000 759.002 C 610.900 767.523,600.782 774.676,600.516 774.898 C 600.249 775.120,610.824 782.821,624.016 792.011 C 637.207 801.201,648.000 808.892,648.000 809.104 C 648.000 809.315,642.627 821.060,636.060 835.204 C 629.492 849.347,624.767 861.481,625.560 862.168 C 626.352 862.855,639.074 864.447,653.831 865.706 C 668.588 866.965,680.993 868.327,681.397 868.731 C 681.802 869.135,683.265 881.699,684.650 896.650 C 686.035 911.602,687.673 924.339,688.289 924.956 C 688.906 925.572,700.946 920.633,715.045 913.979 C 729.145 907.325,741.294 902.582,742.043 903.440 C 742.793 904.298,749.974 914.450,758.000 926.000 C 766.026 937.550,773.191 947.686,773.921 948.524 C 774.650 949.362,782.779 939.237,791.983 926.024 C 801.188 912.811,808.911 902.000,809.146 902.000 C 809.381 902.000,821.072 907.427,835.127 914.060 C 849.181 920.693,861.296 925.418,862.049 924.560 C 862.801 923.702,864.447 910.926,865.706 896.169 C 866.965 881.412,868.298 869.036,868.667 868.667 C 869.036 868.298,881.412 866.965,896.169 865.706 C 910.926 864.447,923.702 862.801,924.560 862.049 C 925.418 861.296,920.675 849.145,914.021 835.045 C 907.367 820.946,902.313 809.020,902.790 808.544 C 903.266 808.067,913.693 800.635,925.961 792.028 C 938.228 783.420,948.431 775.902,948.633 775.321 C 948.835 774.740,939.100 767.366,927.000 758.935 C 914.900 750.504,904.298 742.947,903.440 742.143 C 902.582 741.339,907.325 729.145,913.979 715.045 C 920.633 700.946,925.687 689.020,925.210 688.544 C 924.734 688.067,912.092 686.525,897.117 685.117 C 882.142 683.709,869.464 682.130,868.943 681.609 C 868.422 681.089,866.965 668.588,865.706 653.831 C 864.447 639.074,862.873 626.392,862.208 625.649 C 861.544 624.906,849.371 629.656,835.157 636.206 C 820.943 642.755,808.702 647.413,807.954 646.557 C 807.206 645.701,800.026 635.550,792.000 624.000 C 783.974 612.450,776.809 602.314,776.079 601.476 C 775.350 600.638,767.221 610.763,758.017 623.976 M717.500 974.479 L 700.000 982.612 700.000 1041.520 C 700.000 1087.803,700.536 1100.231,702.500 1099.508 C 703.875 1099.002,720.722 1093.366,739.938 1086.982 L 774.876 1075.376 809.938 1086.971 C 829.222 1093.349,846.125 1098.986,847.500 1099.497 C 849.464 1100.229,850.000 1087.805,850.000 1041.501 L 850.000 982.573 833.500 975.083 C 824.425 970.964,815.945 967.165,814.655 966.642 C 813.351 966.113,804.089 977.310,793.812 991.836 C 783.639 1006.216,774.814 1017.480,774.200 1016.867 C 773.587 1016.254,765.416 1004.852,756.043 991.530 C 746.669 978.209,738.100 967.092,737.000 966.828 C 735.900 966.564,727.125 970.007,717.500 974.479 " fill="#1D1E23" stroke="none" fill-rule="evenodd"></path></svg>