<svg width="1200" height="1200" viewBox="0 0 1200 1200" fill="none" xmlns="http://www.w3.org/2000/svg"><path d="M534.000 101.269 C 503.358 106.574,473.137 129.283,460.208 156.719 C 450.652 176.996,450.000 184.234,450.000 270.019 L 450.000 349.842 314.500 350.421 L 179.000 351.000 167.000 355.784 C 132.959 369.355,109.106 396.531,102.210 429.598 C 99.094 444.540,99.094 1005.460,102.210 1020.402 C 110.026 1057.883,142.117 1089.974,179.598 1097.790 C 194.606 1100.919,1005.394 1100.919,1020.402 1097.790 C 1057.883 1089.974,1089.974 1057.883,1097.790 1020.402 C 1100.906 1005.460,1100.906 444.540,1097.790 429.598 C 1090.894 396.531,1067.041 369.355,1033.000 355.784 L 1021.000 351.000 885.500 350.421 L 750.000 349.842 750.000 270.019 C 750.000 219.471,749.189 186.310,747.790 179.598 C 740.888 146.504,716.898 119.194,683.000 105.841 C 671.320 101.241,669.239 101.105,605.000 100.759 C 568.700 100.563,536.750 100.793,534.000 101.269 M644.154 205.846 L 650.000 211.692 650.000 325.000 L 650.000 438.308 644.154 444.154 L 638.308 450.000 600.000 450.000 L 561.692 450.000 555.846 444.154 L 550.000 438.308 550.000 325.000 L 550.000 211.692 555.846 205.846 L 561.692 200.000 600.000 200.000 L 638.308 200.000 644.154 205.846 M476.000 604.957 C 495.825 611.939,512.149 628.502,520.105 649.710 C 526.649 667.152,525.174 690.687,516.427 708.445 C 508.775 723.978,496.219 736.120,480.000 743.672 C 470.678 748.013,466.102 748.804,450.000 748.861 C 432.608 748.923,429.882 748.385,417.787 742.499 C 402.762 735.188,390.955 723.495,382.625 707.680 C 377.447 697.848,377.000 695.254,377.000 675.000 C 377.000 654.866,377.466 652.116,382.496 642.574 C 393.177 622.314,409.353 608.882,430.066 603.075 C 442.939 599.465,462.708 600.275,476.000 604.957 M894.154 605.846 C 899.999 611.691,900.000 611.697,900.000 636.978 C 900.000 651.266,899.060 664.019,897.839 666.301 C 892.944 675.448,887.373 676.000,800.000 676.000 C 712.627 676.000,707.056 675.448,702.161 666.301 C 700.940 664.019,700.000 651.266,700.000 636.978 C 700.000 611.697,700.001 611.691,705.846 605.846 L 711.692 600.000 800.000 600.000 L 888.308 600.000 894.154 605.846 M894.154 755.846 C 899.999 761.691,900.000 761.697,900.000 786.978 C 900.000 801.266,899.060 814.019,897.839 816.301 C 892.944 825.448,887.373 826.000,800.000 826.000 C 712.627 826.000,707.056 825.448,702.161 816.301 C 700.940 814.019,700.000 801.266,700.000 786.978 C 700.000 761.697,700.001 761.691,705.846 755.846 L 711.692 750.000 800.000 750.000 L 888.308 750.000 894.154 755.846 M481.266 790.164 C 536.463 797.841,584.645 821.657,596.249 847.000 C 600.872 857.095,601.218 877.844,596.903 886.188 C 595.199 889.482,590.924 893.934,587.403 896.081 C 581.225 899.848,576.403 899.985,450.401 899.993 C 306.273 900.001,311.895 900.484,303.919 887.403 C 298.722 878.880,298.636 858.171,303.751 847.000 C 317.888 816.124,383.972 789.086,447.355 788.244 C 457.451 788.110,472.710 788.974,481.266 790.164 " fill="#1D1E23" stroke="none" fill-rule="evenodd"></path></svg>