<svg width="1200" height="1200" viewBox="0 0 1200 1200" fill="none" xmlns="http://www.w3.org/2000/svg"><path d="M482.000 101.296 C 429.044 109.249,393.862 126.127,359.877 159.880 C 328.726 190.819,308.333 231.436,302.055 275.047 C 300.439 286.269,299.958 334.594,300.432 438.000 C 301.090 581.642,301.205 585.351,305.439 600.373 C 327.272 677.840,377.438 728.514,454.000 750.441 C 468.437 754.576,473.446 754.764,587.500 755.471 L 706.000 756.205 706.000 709.102 L 706.000 662.000 597.420 662.000 C 477.849 662.000,476.960 661.923,452.150 649.487 C 426.472 636.616,404.065 607.449,397.075 577.794 C 392.589 558.762,392.589 297.238,397.075 278.206 C 406.339 238.904,438.904 206.339,478.206 197.075 C 497.060 192.631,665.020 192.650,683.894 197.098 C 715.698 204.594,742.638 225.751,756.354 254.000 C 766.683 275.276,768.000 284.493,768.000 335.512 L 768.000 380.827 814.988 427.914 L 861.977 475.000 861.962 378.000 C 861.949 291.093,861.559 279.127,858.213 263.000 C 840.829 179.212,774.156 115.764,690.000 102.923 C 675.263 100.674,650.357 100.082,579.000 100.284 C 528.400 100.427,484.750 100.883,482.000 101.296 M456.000 490.897 L 456.000 538.000 563.902 538.000 C 634.025 538.000,675.514 538.764,682.402 540.182 C 710.696 546.007,741.828 569.408,755.332 595.000 C 768.148 619.291,768.000 617.234,768.000 770.690 C 768.000 863.356,767.271 913.342,765.818 920.402 C 759.828 949.495,736.201 980.426,710.000 993.474 C 684.858 1005.995,682.497 1006.209,576.663 1005.574 C 482.477 1005.009,480.799 1004.929,468.000 1000.372 C 441.896 991.078,419.804 972.103,407.230 948.175 C 395.838 926.495,394.063 915.175,394.030 863.984 L 394.000 818.968 347.000 772.000 L 300.000 725.032 300.000 819.254 C 300.000 920.454,300.901 932.439,310.650 961.000 C 321.135 991.717,337.007 1017.209,359.899 1040.101 C 390.276 1070.477,427.165 1089.604,469.762 1097.064 C 494.154 1101.336,667.946 1101.313,692.480 1097.035 C 776.521 1082.379,841.187 1019.722,858.312 936.354 C 861.923 918.775,862.107 908.998,861.533 765.354 C 860.937 615.985,860.840 612.699,856.583 597.649 C 845.567 558.708,826.978 527.019,800.075 501.316 C 773.115 475.559,746.263 460.372,710.000 450.371 L 691.000 445.132 573.500 444.463 L 456.000 443.794 456.000 490.897 " fill="#1D1E23" stroke="none" fill-rule="evenodd"></path></svg>