<svg width="1200" height="1200" viewBox="0 0 1200 1200" fill="none" xmlns="http://www.w3.org/2000/svg"><path d="M357.492 252.044 C 336.089 257.451,317.129 273.274,307.217 294.000 L 301.000 307.000 300.402 374.402 C 299.818 440.085,299.908 441.908,303.902 445.902 C 307.870 449.870,310.130 450.000,375.000 450.000 C 439.870 450.000,442.130 449.870,446.098 445.902 C 450.092 441.908,450.182 440.085,449.598 374.402 L 449.000 307.000 443.357 294.791 C 436.256 279.425,420.701 263.881,405.480 256.941 C 392.615 251.075,370.330 248.801,357.492 252.044 M607.492 452.044 C 586.089 457.451,567.129 473.274,557.217 494.000 L 551.000 507.000 550.359 549.359 C 549.745 589.978,549.889 591.889,553.859 595.859 C 557.882 599.882,559.907 600.000,625.000 600.000 C 690.093 600.000,692.118 599.882,696.141 595.859 C 700.111 591.889,700.255 589.978,699.641 549.359 C 699.011 507.746,698.901 506.785,693.357 494.791 C 686.256 479.425,670.701 463.881,655.480 456.941 C 642.615 451.075,620.330 448.801,607.492 452.044 M304.000 504.000 C 300.044 507.956,300.000 510.667,300.000 750.000 C 300.000 989.333,300.044 992.044,304.000 996.000 C 307.841 999.841,310.667 1000.000,375.000 1000.000 C 439.333 1000.000,442.159 999.841,446.000 996.000 C 449.956 992.044,450.000 989.333,450.000 750.000 C 450.000 510.667,449.956 507.956,446.000 504.000 C 442.159 500.159,439.333 500.000,375.000 500.000 C 310.667 500.000,307.841 500.159,304.000 504.000 M554.000 654.000 C 550.064 657.936,550.000 660.667,550.000 825.000 C 550.000 989.333,550.064 992.064,554.000 996.000 C 557.841 999.841,560.667 1000.000,625.000 1000.000 C 689.333 1000.000,692.159 999.841,696.000 996.000 C 699.936 992.064,700.000 989.333,700.000 825.000 C 700.000 660.667,699.936 657.936,696.000 654.000 C 692.159 650.159,689.333 650.000,625.000 650.000 C 560.667 650.000,557.841 650.159,554.000 654.000 M857.492 652.044 C 836.058 657.459,817.054 673.335,807.311 693.965 C 802.309 704.555,801.033 710.157,800.346 724.534 C 799.033 751.990,793.199 750.000,875.000 750.000 C 956.804 750.000,950.985 751.983,949.623 724.569 C 948.505 702.051,941.995 686.794,927.357 672.388 C 913.583 658.831,898.153 651.912,879.480 650.918 C 871.516 650.494,861.621 651.001,857.492 652.044 M804.000 804.000 C 800.116 807.884,800.000 810.667,800.000 900.000 C 800.000 989.333,800.116 992.116,804.000 996.000 C 807.841 999.841,810.667 1000.000,875.000 1000.000 C 939.333 1000.000,942.159 999.841,946.000 996.000 C 949.884 992.116,950.000 989.333,950.000 900.000 C 950.000 810.667,949.884 807.884,946.000 804.000 C 942.159 800.159,939.333 800.000,875.000 800.000 C 810.667 800.000,807.841 800.159,804.000 804.000 " fill="#1D1E23" stroke="none" fill-rule="evenodd"></path></svg>