<svg width="1200" height="1200" viewBox="0 0 1200 1200" fill="none" xmlns="http://www.w3.org/2000/svg"><path d="M513.299 105.196 C 276.136 148.042,100.014 358.904,100.014 600.000 C 100.014 821.891,249.820 1021.113,463.217 1083.012 C 485.383 1089.441,527.196 1098.000,536.441 1098.000 C 550.142 1098.000,550.000 1098.798,550.000 1021.725 C 550.000 969.709,549.386 951.926,547.500 949.353 C 546.020 947.333,536.025 943.583,523.000 940.161 C 436.369 917.399,357.882 859.918,306.600 781.679 C 249.903 695.180,235.539 595.466,266.209 501.300 C 303.681 386.248,407.856 288.997,525.673 259.080 C 537.138 256.169,545.939 252.789,547.456 250.715 C 549.399 248.058,550.000 230.862,550.000 177.928 C 550.000 113.323,549.752 108.395,546.343 105.310 C 542.006 101.386,534.530 101.360,513.299 105.196 M653.500 105.426 C 650.310 108.971,650.000 115.413,650.000 178.275 C 650.000 230.969,650.601 248.057,652.547 250.719 C 654.186 252.961,663.764 256.276,679.407 260.018 C 741.713 274.921,796.382 305.146,843.683 350.843 C 894.735 400.163,927.848 457.974,943.863 525.743 C 950.084 552.068,943.339 550.000,1023.000 550.000 C 1103.855 550.000,1099.437 551.284,1097.311 528.403 C 1094.422 497.327,1082.298 448.409,1067.716 409.000 C 1032.297 313.277,962.664 227.576,877.301 174.649 C 855.326 161.023,809.479 138.759,786.000 130.309 C 749.953 117.337,700.623 105.548,671.000 102.825 C 658.699 101.694,656.575 102.010,653.500 105.426 M951.220 653.757 C 949.350 655.824,946.039 665.049,943.863 674.257 C 931.640 725.981,908.090 774.347,875.249 815.175 C 857.742 836.940,824.847 868.011,801.840 884.514 C 766.967 909.527,715.836 932.262,673.060 941.773 C 661.869 944.261,654.158 947.079,652.560 949.263 C 650.597 951.949,650.000 968.912,650.000 1022.072 C 650.000 1103.987,648.695 1099.439,671.597 1097.311 C 702.740 1094.416,751.740 1082.262,791.000 1067.692 C 918.862 1020.242,1020.242 918.862,1067.692 791.000 C 1082.487 751.131,1094.698 701.602,1097.325 670.801 C 1099.186 648.983,1102.874 650.000,1021.865 650.000 C 958.608 650.000,954.418 650.223,951.220 653.757 " fill="#1D1E23" stroke="none" fill-rule="evenodd"></path></svg>