<svg width="1200" height="1200" viewBox="0 0 1200 1200" fill="none" xmlns="http://www.w3.org/2000/svg"><path d="M729.000 202.290 C 677.415 208.866,628.537 233.107,590.822 270.822 C 556.858 304.787,535.785 343.498,524.681 392.325 C 520.048 412.701,520.048 467.299,524.681 487.675 C 535.785 536.502,556.858 575.213,590.822 609.178 C 624.804 643.160,663.702 664.325,712.325 675.291 C 732.661 679.877,787.339 679.877,807.675 675.291 C 856.298 664.325,895.196 643.160,929.178 609.178 C 963.160 575.196,984.325 536.298,995.291 487.675 C 999.877 467.339,999.877 412.661,995.291 392.325 C 984.325 343.702,963.160 304.804,929.178 270.822 C 876.204 217.849,803.152 192.839,729.000 202.290 M334.000 562.264 C 257.367 574.777,200.069 642.259,200.069 720.000 C 200.069 790.419,244.889 850.681,314.000 873.187 C 329.390 878.198,333.746 878.722,360.000 878.722 C 386.254 878.722,390.610 878.198,406.000 873.187 C 459.015 855.923,495.923 819.015,513.187 766.000 C 518.198 750.610,518.722 746.254,518.722 720.000 C 518.722 693.746,518.198 689.390,513.187 674.000 C 487.752 595.893,413.107 549.346,334.000 562.264 M721.000 801.946 C 678.786 811.296,648.093 843.331,641.651 884.765 C 633.207 939.081,670.390 989.895,724.765 998.349 C 779.081 1006.793,829.895 969.610,838.349 915.235 C 845.725 867.786,817.910 821.557,772.497 805.791 C 759.485 801.274,732.974 799.294,721.000 801.946 " fill="#1D1E23" stroke="none" fill-rule="evenodd"></path></svg>