<svg width="1200" height="1200" viewBox="0 0 1200 1200" fill="none" xmlns="http://www.w3.org/2000/svg"><path d="M234.000 151.324 C 223.649 153.002,204.632 160.766,194.526 167.438 C 173.539 181.296,157.312 205.132,152.210 229.598 C 149.085 244.585,149.085 955.415,152.210 970.402 C 160.026 1007.883,192.117 1039.974,229.598 1047.790 C 244.585 1050.915,955.415 1050.915,970.402 1047.790 C 1007.883 1039.974,1039.974 1007.883,1047.790 970.402 C 1050.915 955.415,1050.915 244.585,1047.790 229.598 C 1040.894 196.531,1017.041 169.355,983.000 155.784 L 971.000 151.000 605.000 150.757 C 403.700 150.623,236.750 150.878,234.000 151.324 M717.009 253.312 C 735.455 259.598,750.000 280.181,750.000 300.000 C 750.000 319.819,735.455 340.402,717.009 346.688 C 703.213 351.388,597.055 351.606,583.889 346.961 C 571.835 342.708,563.017 335.443,556.545 324.432 C 551.816 316.389,551.000 312.791,551.000 300.000 C 551.000 287.209,551.816 283.611,556.545 275.568 C 562.844 264.851,571.791 257.320,583.181 253.147 C 595.505 248.631,703.664 248.765,717.009 253.312 M817.009 403.312 C 835.455 409.598,850.000 430.181,850.000 450.000 C 850.000 462.080,844.033 476.072,835.053 485.053 C 819.946 500.159,821.387 500.000,699.895 500.000 C 583.489 500.000,583.213 499.977,568.682 488.893 C 565.056 486.127,559.594 479.620,556.545 474.432 C 551.816 466.389,551.000 462.791,551.000 450.000 C 551.000 437.209,551.816 433.611,556.545 425.568 C 559.594 420.380,565.076 413.858,568.726 411.073 C 582.908 400.257,582.473 400.293,699.144 400.141 C 794.800 400.016,808.410 400.382,817.009 403.312 M917.009 553.312 C 935.455 559.598,950.000 580.181,950.000 600.000 C 950.000 612.080,944.033 626.072,935.053 635.053 C 919.479 650.626,927.232 650.000,749.895 650.000 C 578.886 650.000,583.625 650.290,568.682 638.893 C 565.056 636.127,559.594 629.620,556.545 624.432 C 551.816 616.389,551.000 612.791,551.000 600.000 C 551.000 587.209,551.816 583.611,556.545 575.568 C 559.594 570.380,565.076 563.858,568.726 561.073 C 583.266 549.983,578.145 550.293,749.144 550.141 C 891.334 550.014,908.268 550.334,917.009 553.312 " fill="#1D1E23" stroke="none" fill-rule="evenodd"></path></svg>