<svg width="1200" height="1200" viewBox="0 0 1200 1200" fill="none" xmlns="http://www.w3.org/2000/svg"><path d="M524.470 104.855 C 480.096 113.326,447.234 130.590,415.879 161.902 C 395.411 182.342,381.889 202.247,371.757 226.856 C 346.570 288.027,352.317 357.196,387.277 413.647 C 392.776 422.526,404.842 437.067,415.893 448.133 C 446.089 478.369,478.171 495.722,520.000 504.443 C 546.908 510.053,587.305 508.632,613.000 501.171 C 634.493 494.930,662.819 481.383,678.000 470.084 C 693.583 458.485,714.893 437.110,725.234 422.703 C 736.742 406.672,750.614 377.112,756.067 357.000 C 761.613 336.546,763.590 294.455,760.039 272.431 C 747.327 193.591,687.281 128.363,608.467 107.780 C 588.129 102.469,544.860 100.962,524.470 104.855 M584.930 207.066 C 601.304 211.331,614.752 219.054,629.108 232.437 C 649.480 251.430,660.000 276.140,660.000 305.000 C 660.000 332.844,651.050 355.004,631.642 375.216 C 611.902 395.773,587.719 406.000,558.848 406.000 C 469.833 406.000,424.625 298.324,487.000 234.875 C 501.081 220.551,513.914 212.612,530.797 207.779 C 546.139 203.386,569.617 203.077,584.930 207.066 M338.000 509.199 C 310.103 512.422,288.598 518.773,264.000 531.054 C 242.336 541.870,226.600 553.741,207.693 573.530 C 182.331 600.077,165.242 632.642,156.581 670.931 C 152.632 688.391,152.131 732.342,155.692 749.000 C 165.210 793.532,184.953 829.325,216.506 859.248 C 242.106 883.527,272.180 900.076,307.588 909.371 C 324.099 913.704,331.335 914.466,356.000 914.466 C 380.860 914.466,387.849 913.719,404.953 909.233 C 517.892 879.615,583.085 765.913,550.870 654.745 C 545.523 636.293,533.824 611.279,523.575 596.382 C 514.853 583.706,492.964 560.976,479.505 550.619 C 457.120 533.394,425.783 518.948,397.953 513.023 C 384.028 510.059,349.578 507.861,338.000 509.199 M374.227 611.988 C 392.180 615.300,415.618 628.141,428.654 641.808 C 466.974 681.982,466.446 743.924,427.452 782.918 C 386.978 823.393,326.140 823.863,285.769 784.012 C 243.528 742.316,244.193 678.152,287.284 637.860 C 311.297 615.407,342.473 606.129,374.227 611.988 M807.480 695.043 C 703.602 714.639,630.604 811.379,641.800 914.607 C 651.980 1008.470,721.139 1081.107,814.581 1096.079 C 837.818 1099.801,874.550 1097.600,897.000 1091.138 C 968.294 1070.619,1022.686 1015.524,1041.274 945.000 C 1045.846 927.654,1046.545 921.020,1046.545 895.000 C 1046.545 869.110,1045.837 862.321,1041.374 845.445 C 1028.561 796.992,999.353 755.071,959.245 727.566 C 942.187 715.868,913.363 702.774,893.913 697.888 C 871.656 692.297,829.410 690.906,807.480 695.043 M869.000 796.714 C 919.359 810.141,952.122 859.236,944.299 909.551 C 934.592 971.990,871.890 1010.832,812.816 991.002 C 794.185 984.748,783.815 978.248,770.717 964.617 C 717.953 909.702,743.932 817.534,818.000 796.869 C 830.062 793.503,856.657 793.423,869.000 796.714 " fill="#1D1E23" stroke="none" fill-rule="evenodd"></path></svg>