<svg width="1200" height="1200" viewBox="0 0 1200 1200" fill="none" xmlns="http://www.w3.org/2000/svg"><path d="M133.181 103.147 C 121.791 107.320,112.844 114.851,106.545 125.568 L 101.000 135.000 100.483 595.723 C 100.132 908.757,100.630 1058.913,102.038 1064.139 C 105.047 1075.316,115.625 1088.055,126.574 1093.690 C 146.581 1103.986,169.488 1100.618,185.007 1085.098 C 201.379 1068.726,200.000 1113.341,200.000 600.000 C 200.000 86.779,201.371 131.266,185.053 114.947 C 171.434 101.329,150.896 96.656,133.181 103.147 M333.181 303.147 C 321.791 307.320,312.844 314.851,306.545 325.568 C 301.816 333.611,301.000 337.209,301.000 350.000 C 301.000 362.791,301.816 366.389,306.545 374.432 C 309.594 379.620,315.056 386.127,318.682 388.893 C 333.994 400.572,319.509 400.000,599.895 400.000 C 889.148 400.000,869.052 401.053,885.053 385.053 C 904.616 365.489,904.616 334.511,885.053 314.947 C 869.039 298.934,889.282 299.983,599.144 300.141 C 380.328 300.260,339.809 300.718,333.181 303.147 M333.181 553.147 C 321.791 557.320,312.844 564.851,306.545 575.568 C 301.816 583.611,301.000 587.209,301.000 600.000 C 301.000 612.791,301.816 616.389,306.545 624.432 C 309.594 629.620,315.056 636.127,318.682 638.893 C 334.165 650.702,310.055 650.000,699.895 650.000 C 1101.170 650.000,1068.851 651.254,1085.053 635.053 C 1104.616 615.489,1104.616 584.511,1085.053 564.947 C 1068.842 548.737,1101.307 549.983,699.144 550.141 C 393.536 550.261,339.853 550.702,333.181 553.147 M533.181 803.147 C 521.791 807.320,512.844 814.851,506.545 825.568 C 501.816 833.611,501.000 837.209,501.000 850.000 C 501.000 862.791,501.816 866.389,506.545 874.432 C 509.594 879.620,515.056 886.127,518.682 888.893 C 533.851 900.463,524.214 900.000,749.895 900.000 C 983.168 900.000,969.219 900.887,985.053 885.053 C 1004.616 865.489,1004.616 834.511,985.053 814.947 C 969.203 799.098,983.301 799.982,749.144 800.141 C 573.724 800.260,539.771 800.732,533.181 803.147 " fill="#1D1E23" stroke="none" fill-rule="evenodd"></path></svg>