<svg width="1200" height="1200" viewBox="0 0 1200 1200" fill="none" xmlns="http://www.w3.org/2000/svg"><path d="M581.859 252.608 C 561.133 258.484,545.614 271.843,536.202 291.909 L 531.000 303.000 530.476 622.476 C 529.955 940.273,529.973 941.973,533.976 945.976 C 537.835 949.835,540.543 950.000,600.000 950.000 C 659.457 950.000,662.165 949.835,666.024 945.976 C 670.027 941.973,670.045 940.273,669.524 622.476 L 669.000 303.000 663.730 291.760 C 652.342 267.474,630.950 252.628,604.887 250.924 C 596.701 250.389,587.247 251.080,581.859 252.608 M307.492 462.044 C 286.089 467.451,267.129 483.274,257.217 504.000 L 251.000 517.000 250.465 729.465 C 249.933 940.244,249.961 941.961,253.965 945.965 C 257.851 949.851,260.471 950.000,325.000 950.000 C 389.529 950.000,392.149 949.851,396.035 945.965 C 400.039 941.961,400.067 940.244,399.535 729.465 L 399.000 517.000 393.357 504.791 C 386.256 489.425,370.701 473.881,355.480 466.941 C 342.615 461.075,320.330 458.801,307.492 462.044 M861.859 652.608 C 841.133 658.484,825.614 671.843,816.202 691.909 L 811.000 703.000 810.440 822.440 C 809.888 940.182,809.937 941.937,813.940 945.940 C 817.845 949.845,820.360 950.000,880.000 950.000 C 939.640 950.000,942.155 949.845,946.060 945.940 C 950.063 941.937,950.112 940.182,949.560 822.440 L 949.000 703.000 943.730 691.760 C 932.342 667.474,910.950 652.628,884.887 650.924 C 876.701 650.389,867.247 651.080,861.859 652.608 " fill="#1D1E23" stroke="none" fill-rule="evenodd"></path></svg>