<svg width="1200" height="1200" viewBox="0 0 1200 1200" fill="none" xmlns="http://www.w3.org/2000/svg"><path d="M417.533 120.500 C 415.756 121.875,404.407 144.985,392.313 171.856 L 370.325 220.713 322.921 242.118 C 296.849 253.892,273.826 264.973,271.759 266.743 C 267.441 270.439,266.856 277.756,270.500 282.467 C 271.875 284.244,294.924 295.565,321.720 307.625 L 370.439 329.551 392.838 379.126 C 416.598 431.712,418.682 434.659,429.420 430.851 C 433.848 429.280,438.043 421.464,457.100 379.276 L 479.561 329.551 528.280 307.625 C 555.076 295.565,578.125 284.244,579.500 282.467 C 583.144 277.756,582.559 270.439,578.241 266.743 C 576.174 264.973,553.151 253.892,527.079 242.118 L 479.675 220.713 457.687 171.856 C 445.593 144.985,434.244 121.875,432.467 120.500 C 430.690 119.125,427.330 118.000,425.000 118.000 C 422.670 118.000,419.310 119.125,417.533 120.500 M741.745 321.214 C 740.235 322.982,730.857 342.100,720.903 363.700 L 702.807 402.971 663.684 420.986 C 642.167 430.894,623.086 440.235,621.281 441.745 C 617.084 445.256,617.046 454.696,621.214 458.255 C 622.982 459.765,642.075 469.132,663.643 479.071 L 702.858 497.142 720.929 536.357 C 730.868 557.925,740.235 577.018,741.745 578.786 C 745.280 582.925,754.720 582.925,758.255 578.786 C 759.765 577.018,769.132 557.925,779.071 536.357 L 797.142 497.142 836.357 479.071 C 857.925 469.132,877.018 459.765,878.786 458.255 C 882.954 454.696,882.916 445.256,878.719 441.745 C 876.914 440.235,857.833 430.894,836.316 420.986 L 797.193 402.971 779.097 363.700 C 769.143 342.100,759.765 322.982,758.255 321.214 C 756.745 319.446,753.031 318.000,750.000 318.000 C 746.969 318.000,743.255 319.446,741.745 321.214 M1072.660 400.055 C 1068.073 400.699,1060.216 403.875,1055.200 407.113 C 1049.198 410.987,991.236 474.755,885.682 593.611 L 725.284 774.222 640.142 689.210 C 576.158 625.323,552.764 603.190,546.000 600.143 C 532.987 594.280,515.579 594.604,502.893 600.945 C 489.624 607.578,184.857 912.262,177.749 926.000 C 174.088 933.077,173.093 938.206,173.093 950.000 C 173.093 967.896,177.118 976.991,190.500 989.325 C 200.750 998.774,210.910 1002.733,225.089 1002.806 C 246.730 1002.916,242.044 1006.994,387.994 861.018 C 462.241 786.758,523.895 726.000,525.003 726.000 C 526.112 726.000,564.364 763.411,610.009 809.135 C 657.081 856.289,696.462 894.119,701.000 896.543 C 706.730 899.604,712.688 900.842,722.000 900.908 C 747.414 901.088,733.843 914.651,937.721 685.303 C 1038.968 571.407,1123.626 474.653,1125.850 470.293 C 1131.944 458.348,1132.908 448.149,1129.162 435.261 C 1121.975 410.538,1099.173 396.330,1072.660 400.055 M191.745 421.214 C 190.235 422.982,180.857 442.100,170.903 463.700 L 152.807 502.971 113.684 520.986 C 92.167 530.894,73.086 540.235,71.281 541.745 C 67.084 545.256,67.046 554.696,71.214 558.255 C 72.982 559.765,92.075 569.132,113.643 579.071 L 152.858 597.142 170.929 636.357 C 180.868 657.925,190.235 677.018,191.745 678.786 C 195.280 682.925,204.720 682.925,208.255 678.786 C 209.765 677.018,219.132 657.925,229.071 636.357 L 247.142 597.142 286.357 579.071 C 307.925 569.132,327.018 559.765,328.786 558.255 C 332.954 554.696,332.916 545.256,328.719 541.745 C 326.914 540.235,307.833 530.894,286.316 520.986 L 247.193 502.971 229.097 463.700 C 219.143 442.100,209.765 422.982,208.255 421.214 C 206.745 419.446,203.031 418.000,200.000 418.000 C 196.969 418.000,193.255 419.446,191.745 421.214 " fill="#1D1E23" stroke="none" fill-rule="evenodd"></path></svg>