<svg width="1200" height="1200" viewBox="0 0 1200 1200" fill="none" xmlns="http://www.w3.org/2000/svg"><path d="M527.000 101.208 C 442.372 113.748,378.822 168.918,356.592 249.147 C 351.681 266.870,351.091 272.326,351.091 300.000 C 351.091 327.564,351.692 333.167,356.510 350.545 C 376.304 421.937,428.063 473.696,499.455 493.490 C 516.833 498.308,522.436 498.909,550.000 498.909 C 577.674 498.909,583.130 498.319,600.853 493.408 C 662.807 476.241,712.606 432.162,735.756 374.000 C 770.018 287.920,739.479 187.257,663.435 135.617 C 645.841 123.668,617.156 110.706,597.913 106.007 C 581.485 101.996,540.431 99.218,527.000 101.208 M583.087 206.186 C 612.422 217.118,632.554 237.194,644.067 267.000 C 647.858 276.814,648.703 282.826,648.703 300.000 C 648.703 317.174,647.858 323.186,644.067 333.000 C 634.179 358.599,615.756 379.201,593.281 389.792 C 538.827 415.454,478.080 390.336,455.933 333.000 C 449.267 315.745,449.281 284.188,455.961 267.000 C 464.502 245.027,476.965 229.033,494.642 217.361 C 504.469 210.873,523.099 203.227,534.000 201.209 C 545.043 199.164,571.419 201.838,583.087 206.186 M327.000 501.208 C 242.372 513.748,178.822 568.918,156.592 649.147 C 151.681 666.870,151.091 672.326,151.091 700.000 C 151.091 727.564,151.692 733.167,156.510 750.545 C 176.304 821.937,228.063 873.696,299.455 893.490 C 316.833 898.308,322.436 898.909,350.000 898.909 C 377.674 898.909,383.130 898.319,400.853 893.408 C 462.807 876.241,512.606 832.162,535.756 774.000 C 570.018 687.920,539.479 587.257,463.435 535.617 C 445.841 523.668,417.156 510.706,397.913 506.007 C 381.485 501.996,340.431 499.218,327.000 501.208 M383.087 606.186 C 412.422 617.118,432.554 637.194,444.067 667.000 C 447.858 676.814,448.703 682.826,448.703 700.000 C 448.703 717.174,447.858 723.186,444.067 733.000 C 421.920 790.336,361.173 815.454,306.719 789.792 C 284.244 779.201,265.821 758.599,255.933 733.000 C 249.267 715.745,249.281 684.188,255.961 667.000 C 264.502 645.027,276.965 629.033,294.642 617.361 C 304.469 610.873,323.099 603.227,334.000 601.209 C 345.043 599.164,371.419 601.838,383.087 606.186 M807.000 681.208 C 722.372 693.748,658.822 748.918,636.592 829.147 C 631.681 846.870,631.091 852.326,631.091 880.000 C 631.091 907.564,631.692 913.167,636.510 930.545 C 656.304 1001.937,708.063 1053.696,779.455 1073.490 C 796.833 1078.308,802.436 1078.909,830.000 1078.909 C 857.674 1078.909,863.130 1078.319,880.853 1073.408 C 942.807 1056.241,992.606 1012.162,1015.756 954.000 C 1050.018 867.920,1019.479 767.257,943.435 715.617 C 925.841 703.668,897.156 690.706,877.913 686.007 C 861.485 681.996,820.431 679.218,807.000 681.208 M863.087 786.186 C 892.422 797.118,912.554 817.194,924.067 847.000 C 927.858 856.814,928.703 862.826,928.703 880.000 C 928.703 897.174,927.858 903.186,924.067 913.000 C 901.920 970.336,841.173 995.454,786.719 969.792 C 764.244 959.201,745.821 938.599,735.933 913.000 C 729.267 895.745,729.281 864.188,735.961 847.000 C 744.502 825.027,756.965 809.033,774.642 797.361 C 784.469 790.873,803.099 783.227,814.000 781.209 C 825.043 779.164,851.419 781.838,863.087 786.186 " fill="#1D1E23" stroke="none" fill-rule="evenodd"></path></svg>