<svg width="1200" height="1200" viewBox="0 0 1200 1200" fill="none" xmlns="http://www.w3.org/2000/svg"><path d="M556.000 101.962 C 416.815 115.884,295.232 181.194,209.663 288.000 C 73.683 457.729,63.352 695.839,184.124 876.644 C 338.485 1107.735,647.309 1169.297,878.000 1014.964 C 1107.746 861.264,1168.863 552.043,1014.964 322.000 C 936.423 204.599,815.946 128.109,674.644 105.934 C 645.457 101.354,582.987 99.262,556.000 101.962 M550.000 600.000 C 550.000 987.127,549.915 996.000,546.216 996.000 C 537.314 996.000,499.169 987.114,477.000 979.875 C 332.056 932.549,228.181 810.194,204.589 659.000 C 199.925 629.114,199.925 570.886,204.589 541.000 C 227.801 392.242,329.160 270.902,471.000 222.071 C 493.047 214.481,534.726 204.444,545.500 204.131 L 550.000 204.000 550.000 600.000 M677.398 208.168 C 816.599 235.030,934.371 339.045,978.939 474.487 C 986.449 497.311,996.000 537.960,996.000 547.102 C 996.000 549.610,972.751 550.000,823.000 550.000 L 650.000 550.000 650.000 377.000 C 650.000 227.249,650.390 204.000,652.898 204.000 C 654.493 204.000,665.518 205.876,677.398 208.168 M996.000 652.898 C 996.000 662.040,986.449 702.689,978.939 725.513 C 939.722 844.691,845.411 939.100,725.868 978.845 C 701.560 986.927,663.436 996.000,653.784 996.000 C 650.101 996.000,650.000 991.373,650.000 823.000 L 650.000 650.000 823.000 650.000 C 972.751 650.000,996.000 650.390,996.000 652.898 " fill="#1D1E23" stroke="none" fill-rule="evenodd"></path></svg>