<svg width="1200" height="1200" viewBox="0 0 1200 1200" fill="none" xmlns="http://www.w3.org/2000/svg"><path d="M234.000 151.324 C 223.649 153.002,204.632 160.766,194.526 167.438 C 173.539 181.296,157.312 205.132,152.210 229.598 C 149.085 244.585,149.085 955.415,152.210 970.402 C 160.026 1007.883,192.117 1039.974,229.598 1047.790 C 244.585 1050.915,955.415 1050.915,970.402 1047.790 C 1007.883 1039.974,1039.974 1007.883,1047.790 970.402 C 1050.915 955.415,1050.915 244.585,1047.790 229.598 C 1040.894 196.531,1017.041 169.355,983.000 155.784 L 971.000 151.000 605.000 150.757 C 403.700 150.623,236.750 150.878,234.000 151.324 M617.009 353.312 C 622.758 355.271,630.130 360.025,635.053 364.947 C 650.952 380.847,650.000 364.773,650.000 617.356 C 650.000 839.333,649.953 842.047,646.000 846.000 C 642.254 849.746,639.333 850.000,600.000 850.000 C 560.667 850.000,557.746 849.746,554.000 846.000 C 550.047 842.047,550.000 839.333,550.000 617.356 C 550.000 364.712,549.042 380.853,564.983 364.911 C 578.874 351.021,597.860 346.788,617.009 353.312 M417.009 503.312 C 422.758 505.271,430.130 510.025,435.053 514.947 C 450.572 530.466,450.000 523.682,450.000 692.356 C 450.000 839.333,449.929 842.071,446.000 846.000 C 442.254 849.746,439.333 850.000,400.000 850.000 C 360.667 850.000,357.746 849.746,354.000 846.000 C 350.071 842.071,350.000 839.333,350.000 692.356 C 350.000 523.633,349.422 530.472,364.983 514.911 C 378.874 501.021,397.860 496.788,417.009 503.312 M817.009 653.312 C 829.667 657.626,842.374 670.333,846.688 682.991 C 849.538 691.357,850.000 703.124,850.000 767.356 C 850.000 839.333,849.857 842.143,846.000 846.000 C 842.254 849.746,839.333 850.000,800.000 850.000 C 760.667 850.000,757.746 849.746,754.000 846.000 C 750.143 842.143,750.000 839.333,750.000 767.356 C 750.000 682.291,750.410 679.484,764.983 664.911 C 778.874 651.021,797.860 646.788,817.009 653.312 " fill="#1D1E23" stroke="none" fill-rule="evenodd"></path></svg>