<svg width="1200" height="1200" viewBox="0 0 1200 1200" fill="none" xmlns="http://www.w3.org/2000/svg"><path d="M1017.000 150.671 C 1012.600 152.121,1006.907 154.589,1004.349 156.154 C 1001.791 157.719,926.654 241.124,837.378 341.498 L 675.057 523.996 589.029 438.166 C 526.317 375.600,500.832 351.446,495.000 349.052 C 483.643 344.388,464.568 344.772,453.694 349.884 C 447.194 352.939,403.642 395.348,286.688 512.509 C 136.358 663.105,128.302 671.537,124.985 681.777 C 113.580 716.988,138.441 751.862,175.000 751.937 C 197.920 751.983,194.367 755.060,340.971 608.227 L 474.943 474.046 560.971 559.782 C 654.173 652.667,651.993 650.914,674.000 650.690 C 697.149 650.454,686.299 661.412,888.247 434.299 C 1008.085 299.528,1073.926 223.986,1076.433 218.385 C 1082.167 205.575,1082.802 197.782,1079.139 185.182 C 1071.361 158.427,1042.346 142.313,1017.000 150.671 M1017.000 450.671 C 1012.600 452.121,1006.907 454.589,1004.349 456.154 C 1001.791 457.719,926.654 541.124,837.378 641.498 L 675.057 823.996 589.029 738.166 C 526.317 675.600,500.832 651.446,495.000 649.052 C 482.707 644.004,464.347 644.729,452.680 650.724 C 445.492 654.418,402.521 696.277,285.738 813.349 C 136.369 963.088,128.301 971.541,124.986 981.777 C 113.580 1016.987,138.441 1051.862,175.000 1051.937 C 197.920 1051.983,194.367 1055.060,340.971 908.227 L 474.943 774.046 560.971 859.782 C 654.173 952.667,651.993 950.914,674.000 950.690 C 697.149 950.454,686.299 961.412,888.247 734.299 C 1008.085 599.528,1073.926 523.986,1076.433 518.385 C 1082.167 505.575,1082.802 497.782,1079.139 485.182 C 1071.361 458.427,1042.346 442.313,1017.000 450.671 " fill="#1D1E23" stroke="none" fill-rule="evenodd"></path></svg>