<svg width="1200" height="1200" viewBox="0 0 1200 1200" fill="none" xmlns="http://www.w3.org/2000/svg"><path d="M234.000 151.324 C 223.649 153.002,204.632 160.766,194.526 167.438 C 173.539 181.296,157.312 205.132,152.210 229.598 C 149.085 244.585,149.085 955.415,152.210 970.402 C 160.026 1007.883,192.117 1039.974,229.598 1047.790 C 244.585 1050.915,955.415 1050.915,970.402 1047.790 C 1007.883 1039.974,1039.974 1007.883,1047.790 970.402 C 1050.915 955.415,1050.915 244.585,1047.790 229.598 C 1040.894 196.531,1017.041 169.355,983.000 155.784 L 971.000 151.000 605.000 150.757 C 403.700 150.623,236.750 150.878,234.000 151.324 M950.000 600.000 L 950.000 950.000 600.000 950.000 L 250.000 950.000 250.000 600.000 L 250.000 250.000 600.000 250.000 L 950.000 250.000 950.000 600.000 M583.181 353.147 C 571.791 357.320,562.844 364.851,556.545 375.568 L 551.000 385.000 550.467 613.467 C 549.938 840.250,549.964 841.964,553.967 845.967 C 557.755 849.755,560.552 850.000,600.000 850.000 C 639.333 850.000,642.254 849.746,646.000 846.000 C 649.953 842.047,650.000 839.333,650.000 617.356 C 650.000 364.773,650.952 380.847,635.053 364.947 C 621.434 351.329,600.896 346.656,583.181 353.147 M383.181 503.147 C 371.791 507.320,362.844 514.851,356.545 525.568 L 351.000 535.000 350.452 688.452 C 349.910 840.213,349.949 841.949,353.952 845.952 C 357.759 849.759,360.501 850.000,400.000 850.000 C 439.333 850.000,442.254 849.746,446.000 846.000 C 449.929 842.071,450.000 839.333,450.000 692.356 C 450.000 523.682,450.572 530.466,435.053 514.947 C 421.434 501.329,400.896 496.656,383.181 503.147 M783.181 653.147 C 771.791 657.320,762.844 664.851,756.545 675.568 L 751.000 685.000 750.413 763.413 C 749.839 840.115,749.916 841.916,753.913 845.913 C 757.769 849.769,760.369 850.000,800.000 850.000 C 839.333 850.000,842.254 849.746,846.000 846.000 C 849.857 842.143,850.000 839.333,850.000 767.356 C 850.000 682.328,849.584 679.479,835.053 664.947 C 821.434 651.329,800.896 646.656,783.181 653.147 " fill="#1D1E23" stroke="none" fill-rule="evenodd"></path></svg>