<svg width="1200" height="1200" viewBox="0 0 1200 1200" fill="none" xmlns="http://www.w3.org/2000/svg"><path d="M1017.000 300.671 C 1012.600 302.121,1006.907 304.589,1004.349 306.154 C 1001.791 307.719,926.654 391.124,837.378 491.498 L 675.057 673.996 589.029 588.166 C 526.317 525.600,500.832 501.446,495.000 499.052 C 482.707 494.004,464.347 494.729,452.680 500.724 C 445.492 504.418,402.521 546.277,285.738 663.349 C 136.369 813.088,128.301 821.541,124.986 831.777 C 113.580 866.987,138.441 901.862,175.000 901.937 C 197.920 901.983,194.367 905.060,340.971 758.227 L 474.943 624.046 560.971 709.782 C 654.173 802.667,651.993 800.914,674.000 800.690 C 697.149 800.454,686.299 811.412,888.247 584.299 C 1008.085 449.528,1073.926 373.986,1076.433 368.385 C 1082.167 355.575,1082.802 347.782,1079.139 335.182 C 1071.361 308.427,1042.346 292.313,1017.000 300.671 " fill="#1D1E23" stroke="none" fill-rule="evenodd"></path></svg>