<svg width="1200" height="1200" viewBox="0 0 1200 1200" fill="none" xmlns="http://www.w3.org/2000/svg"><path d="M513.000 105.180 C 468.029 113.111,427.818 126.222,384.287 147.148 C 350.220 163.524,328.811 176.489,299.863 198.273 C 208.462 267.053,143.147 365.753,115.415 477.000 C 103.785 523.657,101.094 546.764,101.094 600.000 C 101.094 653.236,103.785 676.343,115.415 723.000 C 156.888 889.369,281.338 1023.879,443.000 1077.064 C 472.213 1086.675,508.260 1095.160,528.534 1097.199 C 539.983 1098.350,542.678 1098.006,546.034 1094.970 C 549.968 1091.409,550.000 1087.455,550.000 600.000 C 550.000 126.499,549.867 108.500,546.343 105.310 C 542.012 101.391,534.651 101.363,513.000 105.180 M655.500 105.437 C 652.212 109.080,652.000 122.470,652.000 326.544 L 652.000 543.773 656.445 546.887 C 660.401 549.657,684.451 550.000,875.000 550.000 C 1070.612 550.000,1089.516 549.715,1093.815 546.705 C 1098.231 543.612,1098.440 542.557,1097.230 529.531 C 1094.502 500.183,1081.284 450.457,1065.881 411.596 C 1011.606 274.666,891.260 163.790,749.567 120.175 C 725.289 112.701,688.685 104.531,672.000 102.861 C 660.682 101.728,658.547 102.061,655.500 105.437 M656.445 653.113 L 652.000 656.227 652.000 873.803 C 652.000 1082.048,652.157 1091.522,655.657 1094.690 C 660.428 1099.007,667.239 1098.865,693.398 1093.901 C 849.081 1064.362,981.848 963.114,1051.084 821.130 C 1073.883 774.374,1093.540 710.300,1097.202 670.795 C 1098.443 657.414,1098.247 656.400,1093.815 653.295 C 1089.516 650.285,1070.612 650.000,875.000 650.000 C 684.451 650.000,660.401 650.343,656.445 653.113 " fill="#1D1E23" stroke="none" fill-rule="evenodd"></path></svg>