<svg width="1200" height="1200" viewBox="0 0 1200 1200" fill="none" xmlns="http://www.w3.org/2000/svg"><path d="M798.000 151.251 C 722.437 160.839,659.494 194.365,614.219 249.140 C 538.875 340.293,529.029 466.300,589.416 566.539 C 660.461 684.468,807.892 731.608,934.815 676.976 C 996.145 650.577,1050.577 596.145,1076.976 534.815 C 1146.862 372.452,1049.602 188.785,875.852 155.012 C 859.314 151.797,811.789 149.502,798.000 151.251 M854.966 253.050 C 922.007 264.741,976.141 314.496,994.294 381.108 C 1000.382 403.447,1000.470 446.247,994.474 468.187 C 977.669 529.679,933.871 574.648,872.593 593.326 C 856.857 598.123,851.833 598.689,825.000 598.689 C 798.167 598.689,793.143 598.123,777.407 593.326 C 744.371 583.256,719.548 567.908,697.122 543.686 C 643.568 485.842,635.262 402.463,676.179 333.432 C 687.274 314.714,714.714 287.274,733.432 276.179 C 771.723 253.483,812.714 245.682,854.966 253.050 M327.000 501.208 C 242.372 513.748,178.822 568.918,156.592 649.147 C 151.681 666.870,151.091 672.326,151.091 700.000 C 151.091 727.564,151.692 733.167,156.510 750.545 C 176.304 821.937,228.063 873.696,299.455 893.490 C 316.833 898.308,322.436 898.909,350.000 898.909 C 377.674 898.909,383.130 898.319,400.853 893.408 C 462.807 876.241,512.606 832.162,535.756 774.000 C 570.018 687.920,539.479 587.257,463.435 535.617 C 445.841 523.668,417.156 510.706,397.913 506.007 C 381.485 501.996,340.431 499.218,327.000 501.208 M383.087 606.186 C 412.422 617.118,432.554 637.194,444.067 667.000 C 447.858 676.814,448.703 682.826,448.703 700.000 C 448.703 717.174,447.858 723.186,444.067 733.000 C 421.920 790.336,361.173 815.454,306.719 789.792 C 284.244 779.201,265.821 758.599,255.933 733.000 C 249.267 715.745,249.281 684.188,255.961 667.000 C 264.502 645.027,276.965 629.033,294.642 617.361 C 304.469 610.873,323.099 603.227,334.000 601.209 C 345.043 599.164,371.419 601.838,383.087 606.186 M721.000 753.168 C 663.562 765.965,620.375 807.193,604.778 864.116 C 599.960 881.701,599.960 918.299,604.778 935.884 C 618.988 987.743,655.520 1026.157,707.000 1043.371 C 720.987 1048.049,726.272 1048.732,749.000 1048.807 C 768.072 1048.869,778.464 1047.935,788.000 1045.300 C 838.579 1031.326,878.723 992.332,894.344 942.000 C 901.077 920.309,901.077 879.691,894.344 858.000 C 878.454 806.802,839.545 769.349,787.000 754.670 C 771.279 750.279,737.426 749.508,721.000 753.168 M771.436 854.708 C 796.056 867.440,806.717 895.967,795.838 920.000 C 787.045 939.425,772.508 948.802,751.000 948.922 C 735.225 949.010,726.497 945.654,716.124 935.513 C 705.653 925.276,701.279 914.811,701.279 900.000 C 701.279 876.955,714.627 859.410,737.987 851.750 C 745.263 849.364,764.369 851.054,771.436 854.708 " fill="#1D1E23" stroke="none" fill-rule="evenodd"></path></svg>