<svg width="1200" height="1200" viewBox="0 0 1200 1200" fill="none" xmlns="http://www.w3.org/2000/svg"><path d="M925.319 102.095 C 908.507 104.917,889.446 111.613,876.000 119.420 C 859.152 129.202,829.186 159.174,819.431 176.000 C 794.171 219.569,794.171 280.431,819.431 324.000 C 829.196 340.843,859.157 370.804,876.000 380.569 C 902.029 395.660,936.864 402.505,967.500 398.548 C 1005.060 393.698,1027.492 382.540,1055.016 355.016 C 1082.540 327.492,1093.698 305.060,1098.548 267.500 C 1102.505 236.864,1095.660 202.029,1080.569 176.000 C 1070.804 159.157,1040.843 129.196,1024.000 119.431 C 996.212 103.321,958.007 96.609,925.319 102.095 M261.492 202.171 C 239.231 207.418,219.322 223.720,208.545 245.526 L 201.000 260.792 200.479 630.896 L 199.959 1001.000 280.479 920.525 L 361.000 840.050 650.104 839.525 L 939.209 839.000 954.322 831.531 C 972.523 822.534,983.862 810.952,992.671 792.359 L 999.000 779.000 999.564 637.296 L 1000.129 495.592 987.564 497.296 C 980.654 498.233,962.624 499.000,947.498 499.000 L 919.997 499.000 919.998 629.500 L 920.000 760.000 640.518 760.000 L 361.036 760.000 320.518 800.482 L 280.000 840.963 280.000 560.482 L 280.000 280.000 490.500 280.002 L 701.000 280.003 701.000 252.502 C 701.000 237.376,701.763 219.375,702.696 212.500 L 704.393 200.000 486.696 200.201 C 366.963 200.311,265.621 201.198,261.492 202.171 " fill="#1D1E23" stroke="none" fill-rule="evenodd"></path></svg>