<svg width="1200" height="1200" viewBox="0 0 1200 1200" fill="none" xmlns="http://www.w3.org/2000/svg"><path d="M184.000 101.326 C 173.657 102.999,154.635 110.764,144.526 117.438 C 123.539 131.296,107.312 155.132,102.210 179.598 C 100.634 187.156,100.000 320.853,100.000 645.591 L 100.000 1100.985 200.507 1000.493 L 301.015 900.000 655.409 900.000 C 906.411 900.000,1012.895 899.355,1020.402 897.790 C 1057.883 889.974,1089.974 857.883,1097.790 820.402 C 1100.909 805.443,1100.909 194.557,1097.790 179.598 C 1090.894 146.531,1067.041 119.355,1033.000 105.784 L 1021.000 101.000 605.000 100.758 C 376.200 100.626,186.750 100.881,184.000 101.326 " fill="#1D1E23" stroke="none" fill-rule="evenodd"></path></svg>