<svg width="1200" height="1200" viewBox="0 0 1200 1200" fill="none" xmlns="http://www.w3.org/2000/svg"><path d="M132.171 103.434 C 127.315 105.149,119.581 110.314,114.983 114.911 C 98.766 131.129,100.000 100.823,100.000 482.911 C 100.000 787.581,100.325 823.574,103.113 827.555 C 110.642 838.303,111.058 837.960,208.000 741.000 L 298.984 650.000 553.135 650.000 C 838.759 650.000,819.061 651.044,835.053 635.053 C 850.978 619.127,850.000 636.141,850.000 375.000 C 850.000 113.859,850.978 130.873,835.053 114.947 C 818.880 98.775,848.301 99.981,474.144 100.158 C 177.767 100.298,140.026 100.660,132.171 103.434 M746.000 204.000 C 749.936 207.936,750.000 210.667,750.000 375.000 C 750.000 539.333,749.936 542.064,746.000 546.000 C 742.044 549.956,739.333 550.000,500.710 550.000 L 259.420 550.000 239.096 570.000 C 217.511 591.240,211.706 593.974,203.657 586.690 C 200.164 583.528,200.000 574.981,200.000 395.690 C 200.000 210.667,200.057 207.943,204.000 204.000 C 207.960 200.040,210.667 200.000,475.000 200.000 C 739.333 200.000,742.040 200.040,746.000 204.000 M950.000 525.000 L 950.000 750.000 625.000 750.000 L 300.000 750.000 300.000 803.644 C 300.000 865.398,301.059 871.164,314.947 885.053 C 331.003 901.109,308.242 900.000,621.865 900.000 L 901.016 900.000 992.000 991.000 C 1088.942 1087.960,1089.358 1088.303,1096.887 1077.555 C 1099.677 1073.571,1100.000 1035.208,1100.000 707.911 C 1100.000 297.889,1101.266 331.160,1085.053 314.947 C 1071.164 301.059,1065.398 300.000,1003.644 300.000 L 950.000 300.000 950.000 525.000 " fill="#1D1E23" stroke="none" fill-rule="evenodd"></path></svg>