<svg width="1200" height="1200" viewBox="0 0 1200 1200" fill="none" xmlns="http://www.w3.org/2000/svg"><path d="M261.000 202.818 C 237.554 208.628,218.142 224.812,207.386 247.518 L 201.000 261.000 200.473 617.473 C 199.948 972.427,199.963 973.963,203.973 977.973 C 206.188 980.188,210.030 982.000,212.511 982.000 C 215.774 982.000,236.651 962.364,288.000 911.000 L 358.979 840.000 493.723 840.000 C 621.153 840.000,628.404 839.810,627.320 836.500 C 626.690 834.575,622.590 822.650,618.209 810.000 C 613.828 797.350,609.145 780.925,607.801 773.500 L 605.359 760.000 482.434 760.000 L 359.509 760.000 328.126 791.000 C 294.626 824.091,289.719 826.986,283.113 817.555 C 280.334 813.587,280.000 784.951,280.000 550.555 C 280.000 290.667,280.041 287.959,284.000 284.000 C 287.966 280.034,290.667 280.000,600.000 280.000 C 909.333 280.000,912.034 280.034,916.000 284.000 C 919.653 287.653,920.000 290.667,920.000 318.716 L 920.000 349.433 956.500 350.505 C 976.575 351.095,994.649 352.247,996.664 353.066 C 1000.165 354.488,1000.299 352.473,999.664 307.777 L 999.000 261.000 992.614 247.518 C 981.524 224.107,960.814 207.428,936.402 202.249 C 920.445 198.863,274.765 199.407,261.000 202.818 M725.169 352.077 C 628.043 367.362,555.812 446.436,550.627 543.157 C 545.492 638.948,605.081 722.541,699.000 751.301 C 715.879 756.469,719.305 756.813,754.000 756.813 C 788.666 756.813,792.135 756.466,809.000 751.313 C 831.797 744.347,859.556 730.791,874.911 719.124 L 886.822 710.075 891.411 714.386 C 895.223 717.967,896.000 720.762,896.000 730.885 L 896.000 743.074 968.500 815.394 C 1046.220 892.921,1046.788 893.366,1061.021 888.019 C 1069.342 884.893,1085.514 868.533,1088.135 860.590 C 1092.827 846.375,1092.308 845.720,1015.339 768.500 L 943.074 696.000 930.885 696.000 C 920.762 696.000,917.967 695.223,914.386 691.411 L 910.075 686.822 919.124 674.911 C 930.791 659.556,944.347 631.797,951.313 609.000 C 956.466 592.135,956.813 588.666,956.813 554.000 C 956.813 519.305,956.469 515.879,951.301 499.000 C 928.383 424.157,871.478 370.960,797.000 354.754 C 779.783 351.008,741.119 349.567,725.169 352.077 M787.970 417.116 C 815.157 423.524,843.177 441.066,862.888 464.020 C 873.173 475.998,888.254 505.440,891.808 520.480 C 903.306 569.144,888.660 620.061,853.115 655.000 C 827.962 679.724,798.258 693.039,763.105 695.348 C 695.721 699.775,632.509 653.280,617.116 587.970 C 612.733 569.373,613.106 538.135,617.937 519.246 C 630.454 470.304,669.675 430.812,718.459 418.030 C 736.716 413.247,769.712 412.813,787.970 417.116 " fill="#1D1E23" stroke="none" fill-rule="evenodd"></path></svg>