<svg width="1200" height="1200" viewBox="0 0 1200 1200" fill="none" xmlns="http://www.w3.org/2000/svg"><path d="M707.614 327.516 C 701.567 331.050,632.261 400.061,512.743 521.562 L 327.257 710.123 262.372 643.972 C 222.154 602.969,194.353 576.196,189.244 573.549 C 183.347 570.495,177.299 569.266,168.000 569.234 C 145.966 569.158,128.612 581.742,120.888 603.396 C 117.296 613.465,117.361 619.122,121.214 632.098 C 124.884 644.453,125.974 645.640,234.919 755.789 C 277.978 799.324,301.624 821.781,307.000 824.245 C 318.966 829.730,336.804 829.213,349.107 823.024 C 356.867 819.120,402.983 773.365,563.000 610.805 C 675.200 496.822,769.430 399.993,772.400 395.629 C 787.316 373.716,779.189 341.647,755.240 327.911 C 746.589 322.949,742.828 322.037,731.000 322.035 C 719.350 322.033,715.424 322.953,707.614 327.516 M1007.614 327.516 C 1001.567 331.050,932.342 399.979,812.988 521.312 L 627.747 709.625 619.374 704.836 C 607.563 698.083,595.361 698.362,583.892 705.649 C 572.945 712.604,562.672 724.101,557.781 734.869 C 552.886 745.647,552.898 764.440,557.807 775.000 C 563.189 786.577,595.060 818.868,606.003 823.831 C 619.028 829.739,636.404 829.414,649.107 823.024 C 656.867 819.120,702.983 773.365,863.000 610.805 C 975.200 496.822,1069.430 399.993,1072.400 395.629 C 1087.316 373.716,1079.189 341.647,1055.240 327.911 C 1046.589 322.949,1042.828 322.037,1031.000 322.035 C 1019.350 322.033,1015.424 322.953,1007.614 327.516 " fill="#1D1E23" stroke="none" fill-rule="evenodd"></path></svg>