<svg width="1200" height="1200" viewBox="0 0 1200 1200" fill="none" xmlns="http://www.w3.org/2000/svg"><path d="M261.492 202.157 C 239.181 207.458,219.318 223.728,208.545 245.526 L 201.000 260.792 200.479 630.896 L 199.959 1001.000 280.479 920.525 L 361.000 840.050 650.104 839.525 L 939.209 839.000 954.322 831.531 C 972.523 822.534,983.862 810.952,992.671 792.359 L 999.000 779.000 999.000 519.896 L 999.000 260.793 991.455 245.527 C 982.545 227.498,971.047 216.335,952.000 207.221 L 939.000 201.000 604.000 200.686 C 413.401 200.508,265.764 201.142,261.492 202.157 M920.000 520.000 L 920.000 760.000 640.518 760.000 L 361.036 760.000 320.518 800.482 L 280.000 840.963 280.000 560.482 L 280.000 280.000 600.000 280.000 L 920.000 280.000 920.000 520.000 M481.000 379.800 C 456.747 391.053,447.119 419.406,459.270 443.790 C 474.782 474.919,518.195 478.200,539.129 449.825 C 556.623 426.113,546.271 390.308,518.564 378.697 C 509.314 374.821,490.543 375.372,481.000 379.800 M698.503 382.058 C 656.653 406.058,673.653 468.852,722.000 468.852 C 749.765 468.852,768.000 450.072,768.000 421.476 C 768.000 410.755,767.008 407.171,761.500 397.998 C 748.506 376.358,720.706 369.324,698.503 382.058 M453.058 571.500 C 461.248 591.242,481.840 618.796,499.376 633.477 C 521.030 651.607,549.037 665.328,575.941 670.988 C 594.284 674.846,628.056 674.849,646.719 670.995 C 697.747 660.454,741.520 626.487,765.899 578.511 C 769.255 571.908,772.000 565.942,772.000 565.253 C 772.000 564.564,699.538 564.000,610.973 564.000 L 449.946 564.000 453.058 571.500 " fill="#1D1E23" stroke="none" fill-rule="evenodd"></path></svg>