<svg width="1200" height="1200" viewBox="0 0 1200 1200" fill="none" xmlns="http://www.w3.org/2000/svg"><path d="M184.000 101.326 C 173.657 102.999,154.635 110.764,144.526 117.438 C 123.539 131.296,107.312 155.132,102.210 179.598 C 100.639 187.131,100.000 305.535,100.000 588.847 C 100.000 933.393,100.397 988.621,102.923 995.780 C 111.990 1021.480,140.305 1035.437,166.238 1026.990 C 176.154 1023.761,181.882 1018.629,239.070 961.742 L 301.140 900.000 655.472 900.000 C 906.428 900.000,1012.895 899.355,1020.402 897.790 C 1057.883 889.974,1089.974 857.883,1097.790 820.402 C 1100.909 805.443,1100.909 194.557,1097.790 179.598 C 1090.894 146.531,1067.041 119.355,1033.000 105.784 L 1021.000 101.000 605.000 100.758 C 376.200 100.626,186.750 100.881,184.000 101.326 M1000.000 500.000 L 1000.000 800.000 629.524 800.000 L 259.048 800.000 229.524 829.475 L 200.000 858.950 200.000 529.475 L 200.000 200.000 600.000 200.000 L 1000.000 200.000 1000.000 500.000 " fill="#1D1E23" stroke="none" fill-rule="evenodd"></path></svg>