<svg width="1200" height="1200" viewBox="0 0 1200 1200" fill="none" xmlns="http://www.w3.org/2000/svg"><path d="M556.000 101.962 C 416.815 115.884,295.232 181.194,209.663 288.000 C 73.683 457.729,63.352 695.839,184.124 876.644 C 338.485 1107.735,647.309 1169.297,878.000 1014.964 C 1107.746 861.264,1168.863 552.043,1014.964 322.000 C 936.423 204.599,815.946 128.109,674.644 105.934 C 645.457 101.354,582.987 99.262,556.000 101.962 M636.288 202.019 C 788.530 216.859,916.970 313.759,972.935 456.000 C 1016.866 567.656,1005.711 700.316,943.691 803.771 C 836.000 983.409,611.250 1050.747,425.000 959.175 C 259.888 877.997,171.345 696.961,208.919 517.378 C 231.483 409.538,300.055 313.964,396.229 256.309 C 467.345 213.676,554.249 194.022,636.288 202.019 M813.000 403.058 C 808.600 404.643,804.564 405.953,804.031 405.970 C 803.498 405.986,734.872 474.168,651.529 557.484 L 499.997 708.967 449.498 658.679 C 421.724 631.020,395.929 606.854,392.176 604.976 C 365.726 591.743,331.481 607.531,322.945 636.893 C 319.441 648.948,320.861 662.269,326.859 673.600 C 328.431 676.570,362.406 711.522,402.359 751.271 C 480.511 829.026,480.166 828.755,501.000 828.754 C 522.679 828.753,517.020 833.817,700.313 650.414 C 816.244 534.414,870.958 478.322,873.851 472.506 C 893.946 432.101,855.183 387.861,813.000 403.058 " fill="#1D1E23" stroke="none" fill-rule="evenodd"></path></svg>