<svg width="1200" height="1200" viewBox="0 0 1200 1200" fill="none" xmlns="http://www.w3.org/2000/svg"><path d="M969.000 301.775 C 965.700 302.631,959.850 304.926,956.000 306.875 C 952.150 308.824,836.735 422.577,699.522 559.660 L 450.045 808.902 360.522 719.685 C 299.778 659.148,268.107 628.991,262.000 625.874 C 249.897 619.695,230.383 619.509,219.000 625.464 C 209.591 630.386,199.913 640.196,194.791 650.000 C 189.509 660.113,189.829 680.537,195.433 691.000 C 197.916 695.636,247.088 746.250,312.359 811.355 C 423.586 922.300,425.145 923.751,436.533 927.007 C 447.930 930.264,453.135 930.039,468.000 925.645 C 473.480 924.025,534.196 864.456,747.635 651.288 C 911.155 487.977,1021.988 375.798,1024.561 371.000 C 1030.172 360.539,1030.494 340.118,1025.209 330.000 C 1020.208 320.428,1010.447 310.396,1001.790 305.932 C 993.334 301.572,977.517 299.567,969.000 301.775 " fill="#1D1E23" stroke="none" fill-rule="evenodd"></path></svg>