<svg width="1200" height="1200" viewBox="0 0 1200 1200" fill="none" xmlns="http://www.w3.org/2000/svg"><path d="M381.504 303.492 L 276.012 408.983 223.002 356.002 L 169.993 303.021 134.996 338.018 L 99.999 373.015 188.506 461.506 L 277.014 549.997 417.993 409.007 L 558.973 268.016 524.008 233.008 C 504.777 213.754,488.582 198.000,488.019 198.000 C 487.456 198.000,439.524 245.471,381.504 303.492 M650.000 400.000 L 650.000 450.000 875.000 450.000 L 1100.000 450.000 1100.000 400.000 L 1100.000 350.000 875.000 350.000 L 650.000 350.000 650.000 400.000 M381.504 703.492 L 276.012 808.983 223.002 756.002 L 169.993 703.021 134.996 738.018 L 99.999 773.015 188.506 861.506 L 277.014 949.997 417.993 809.007 L 558.973 668.016 524.008 633.008 C 504.777 613.754,488.582 598.000,488.019 598.000 C 487.456 598.000,439.524 645.471,381.504 703.492 M650.000 800.000 L 650.000 850.000 875.000 850.000 L 1100.000 850.000 1100.000 800.000 L 1100.000 750.000 875.000 750.000 L 650.000 750.000 650.000 800.000 " fill="#1D1E23" stroke="none" fill-rule="evenodd"></path></svg>