<svg width="1200" height="1200" viewBox="0 0 1200 1200" fill="none" xmlns="http://www.w3.org/2000/svg"><path d="M569.000 101.336 C 491.488 107.763,436.553 122.558,374.854 153.625 C 262.050 210.425,172.977 310.121,130.216 427.440 C 93.552 528.033,90.383 641.403,121.368 744.000 C 164.935 888.260,271.569 1005.580,411.029 1062.689 C 449.342 1078.378,487.012 1088.440,537.000 1096.337 C 561.932 1100.276,641.773 1099.684,670.000 1095.352 C 814.081 1073.239,936.621 995.422,1016.994 875.000 C 1061.168 808.816,1089.451 729.802,1098.142 648.299 C 1102.483 607.591,1098.028 527.455,1090.328 507.722 C 1086.839 498.783,1075.519 487.594,1065.015 482.703 C 1040.784 471.419,1012.006 481.198,999.395 505.000 C 994.371 514.483,993.837 530.664,997.566 560.421 C 1011.215 669.333,967.922 789.989,884.070 876.726 C 826.816 935.950,760.761 973.559,683.766 990.769 C 538.469 1023.246,381.562 967.016,287.725 848.842 C 180.210 713.442,171.550 522.347,266.478 380.000 C 377.646 213.299,589.544 153.694,770.262 238.288 C 790.491 247.757,794.434 248.927,806.000 248.892 C 820.902 248.846,831.181 244.412,841.276 233.675 C 851.763 222.522,854.895 214.542,854.888 199.000 C 854.876 174.563,846.088 163.348,815.984 149.355 C 736.659 112.484,646.339 94.923,569.000 101.336 M1006.893 214.956 C 999.214 218.802,944.651 272.271,763.039 453.919 L 529.079 687.928 472.039 631.225 C 419.706 579.201,414.111 574.233,404.226 571.010 C 368.914 559.495,334.874 586.788,338.645 623.594 C 339.264 629.631,341.879 637.805,344.726 642.594 C 352.386 655.484,497.099 798.635,508.000 804.106 C 518.446 809.349,534.687 810.214,547.000 806.183 C 553.615 804.017,599.415 759.203,811.594 547.282 C 952.720 406.327,1069.921 288.233,1072.039 284.852 C 1074.158 281.470,1076.886 274.067,1078.101 268.399 C 1081.568 252.235,1076.624 237.890,1063.023 224.648 C 1046.831 208.883,1026.145 205.311,1006.893 214.956 " fill="#1D1E23" stroke="none" fill-rule="evenodd"></path></svg>