<svg width="1200" height="1200" viewBox="0 0 1200 1200" fill="none" xmlns="http://www.w3.org/2000/svg"><path d="M556.000 101.962 C 416.815 115.884,295.232 181.194,209.663 288.000 C 73.683 457.729,63.352 695.839,184.124 876.644 C 338.485 1107.735,647.309 1169.297,878.000 1014.964 C 1107.746 861.264,1168.863 552.043,1014.964 322.000 C 936.423 204.599,815.946 128.109,674.644 105.934 C 645.457 101.354,582.987 99.262,556.000 101.962 M916.007 365.064 L 950.865 400.129 725.935 625.065 L 501.005 850.001 376.014 725.010 L 251.023 600.019 285.997 565.003 L 320.970 529.987 410.489 619.489 L 500.007 708.990 689.502 519.495 C 793.725 415.273,879.482 330.000,880.073 330.000 C 880.665 330.000,896.835 345.779,916.007 365.064 " fill="#1D1E23" stroke="none" fill-rule="evenodd"></path></svg>