<svg width="1200" height="1200" viewBox="0 0 1200 1200" fill="none" xmlns="http://www.w3.org/2000/svg"><path d="M234.000 151.324 C 223.649 153.002,204.632 160.766,194.526 167.438 C 173.539 181.296,157.312 205.132,152.210 229.598 C 149.085 244.585,149.085 955.415,152.210 970.402 C 160.026 1007.883,192.117 1039.974,229.598 1047.790 C 244.585 1050.915,955.415 1050.915,970.402 1047.790 C 1007.883 1039.974,1039.974 1007.883,1047.790 970.402 C 1050.915 955.415,1050.915 244.585,1047.790 229.598 C 1040.894 196.531,1017.041 169.355,983.000 155.784 L 971.000 151.000 605.000 150.757 C 403.700 150.623,236.750 150.878,234.000 151.324 M917.009 253.312 C 922.825 255.294,930.145 260.040,935.233 265.127 C 951.062 280.956,950.000 256.882,950.000 600.000 C 950.000 943.118,951.062 919.044,935.233 934.873 C 918.905 951.200,945.501 950.000,600.000 950.000 C 254.861 950.000,281.064 951.169,264.947 935.053 C 248.831 918.936,250.000 945.139,250.000 600.000 C 250.000 254.788,248.825 281.070,264.983 264.911 C 280.716 249.179,254.540 250.334,599.144 250.158 C 880.976 250.013,908.118 250.283,917.009 253.312 " fill="#1D1E23" stroke="none" fill-rule="evenodd"></path></svg>