<svg width="1200" height="1200" viewBox="0 0 1200 1200" fill="none" xmlns="http://www.w3.org/2000/svg"><path d="M556.000 102.110 C 333.377 122.436,151.666 286.379,109.270 505.158 C 73.957 687.385,142.627 873.791,288.000 990.328 C 474.109 1139.520,739.811 1135.777,923.000 981.383 C 1071.472 856.249,1134.486 651.262,1081.197 466.769 C 1077.421 453.696,1073.312 440.348,1072.066 437.106 L 1069.800 431.213 1029.848 471.165 L 989.896 511.116 993.946 535.058 C 1007.823 617.090,995.701 700.401,958.972 775.424 C 898.174 899.610,779.813 982.445,641.000 997.956 C 542.578 1008.954,436.771 978.739,355.000 916.285 C 337.015 902.549,303.337 869.207,288.046 850.000 C 224.730 770.468,193.637 669.925,201.611 570.500 C 209.651 470.251,250.571 382.540,321.320 313.909 C 355.378 280.871,382.746 261.586,425.000 240.851 C 541.523 183.668,679.419 187.221,792.771 250.325 L 814.541 262.445 850.416 226.570 L 886.291 190.695 870.645 180.550 C 777.343 120.045,665.351 92.126,556.000 102.110 M779.504 439.494 L 530.010 688.988 459.003 618.003 L 387.996 547.018 352.505 582.509 L 317.014 618.000 423.002 724.002 L 528.990 830.004 814.486 544.514 L 1099.982 259.023 1065.512 224.512 C 1046.554 205.530,1030.583 190.000,1030.020 190.000 C 1029.458 190.000,916.726 302.272,779.504 439.494 " fill="#1D1E23" stroke="none" fill-rule="evenodd"></path></svg>