<svg width="1200" height="1200" viewBox="0 0 1200 1200" fill="none" xmlns="http://www.w3.org/2000/svg"><path d="M556.000 101.962 C 416.815 115.884,295.232 181.194,209.663 288.000 C 73.683 457.729,63.352 695.839,184.124 876.644 C 338.485 1107.735,647.309 1169.297,878.000 1014.964 C 1107.746 861.264,1168.863 552.043,1014.964 322.000 C 936.423 204.599,815.946 128.109,674.644 105.934 C 645.457 101.354,582.987 99.262,556.000 101.962 M899.000 354.775 C 910.769 360.348,920.571 370.060,924.899 380.436 C 928.871 389.960,928.884 409.992,924.924 419.564 C 922.757 424.803,863.803 485.106,725.424 623.632 C 617.391 731.780,526.570 821.555,523.600 823.132 C 512.220 829.175,498.968 830.561,486.547 827.008 C 475.181 823.757,473.468 822.178,377.358 726.353 C 319.983 669.148,277.976 625.701,275.497 621.000 C 272.481 615.280,271.266 609.295,271.234 600.000 C 271.131 570.029,295.586 547.540,324.982 550.574 C 330.794 551.174,338.576 553.186,342.275 555.046 C 345.974 556.905,382.980 592.294,424.510 633.688 L 500.020 708.949 676.537 532.475 C 773.621 435.414,853.491 355.986,854.027 355.970 C 854.562 355.953,858.600 354.643,863.000 353.058 C 874.962 348.748,887.541 349.348,899.000 354.775 " fill="#1D1E23" stroke="none" fill-rule="evenodd"></path></svg>