<svg width="1200" height="1200" viewBox="0 0 1200 1200" fill="none" xmlns="http://www.w3.org/2000/svg"><path d="M234.000 151.324 C 223.649 153.002,204.632 160.766,194.526 167.438 C 173.539 181.296,157.312 205.132,152.210 229.598 C 149.085 244.585,149.085 955.415,152.210 970.402 C 160.026 1007.883,192.117 1039.974,229.598 1047.790 C 244.585 1050.915,955.415 1050.915,970.402 1047.790 C 1007.883 1039.974,1039.974 1007.883,1047.790 970.402 C 1050.915 955.415,1050.915 244.585,1047.790 229.598 C 1040.894 196.531,1017.041 169.355,983.000 155.784 L 971.000 151.000 605.000 150.757 C 403.700 150.623,236.750 150.878,234.000 151.324 M899.000 354.775 C 910.769 360.348,920.571 370.060,924.899 380.436 C 929.623 391.763,928.951 411.603,923.500 421.736 C 920.706 426.929,844.682 504.409,723.000 626.075 C 511.702 837.345,520.695 829.178,499.728 828.859 C 479.395 828.549,479.961 829.024,375.582 724.524 C 308.714 657.579,277.203 624.668,275.085 619.564 C 270.856 609.372,271.181 588.991,275.731 579.000 C 280.424 568.696,292.879 557.523,304.709 553.005 C 315.603 548.844,331.633 549.707,342.275 555.026 C 345.974 556.874,382.974 592.269,424.497 633.681 L 499.994 708.975 676.524 532.487 C 773.615 435.419,853.491 355.986,854.027 355.970 C 854.562 355.953,858.600 354.643,863.000 353.058 C 874.962 348.748,887.541 349.348,899.000 354.775 " fill="#1D1E23" stroke="none" fill-rule="evenodd"></path></svg>