<svg width="1200" height="1200" viewBox="0 0 1200 1200" fill="none" xmlns="http://www.w3.org/2000/svg"><path d="M680.000 325.164 C 672.246 328.495,431.753 567.185,426.865 576.400 C 420.826 587.785,419.440 601.035,422.988 613.453 C 426.254 624.881,427.548 626.263,548.644 747.640 C 617.187 816.343,674.296 871.994,678.494 874.177 C 704.496 887.701,737.676 874.073,746.985 846.046 C 751.063 833.766,750.244 818.252,744.960 807.725 C 743.104 804.026,696.461 755.771,641.310 700.490 L 541.034 599.981 641.325 499.490 C 696.484 444.221,743.100 396.027,744.914 392.392 C 749.646 382.918,750.981 367.648,748.007 357.027 C 744.848 345.744,731.849 330.650,721.077 325.757 C 711.102 321.226,689.880 320.919,680.000 325.164 " fill="#1D1E23" stroke="none" fill-rule="evenodd"></path></svg>