<svg width="1200" height="1200" viewBox="0 0 1200 1200" fill="none" xmlns="http://www.w3.org/2000/svg"><path d="M479.000 325.806 C 454.988 336.964,443.561 366.452,454.125 390.000 C 457.196 396.844,482.220 423.078,558.574 499.500 L 658.985 600.000 558.574 700.500 C 452.128 807.040,450.136 809.376,450.044 827.768 C 449.971 842.305,454.108 852.169,464.958 863.328 C 481.289 880.124,503.440 883.828,523.600 873.135 C 526.570 871.560,584.026 815.085,651.281 747.635 C 783.056 615.478,778.755 620.493,778.754 599.000 C 778.753 577.776,779.674 578.848,650.413 449.598 C 559.110 358.304,528.881 329.242,522.000 326.142 C 510.182 320.818,490.071 320.661,479.000 325.806 " fill="#1D1E23" stroke="none" fill-rule="evenodd"></path></svg>