<svg width="1200" height="1200" viewBox="0 0 1200 1200" fill="none" xmlns="http://www.w3.org/2000/svg"><path d="M261.895 102.989 C 217.901 111.761,181.353 145.545,167.225 190.500 C 166.268 193.545,163.359 194.000,144.835 194.000 C 126.652 194.000,122.410 194.638,115.772 198.368 C 100.858 206.751,95.673 228.572,105.477 241.703 C 114.050 253.186,118.673 254.930,143.371 256.000 L 166.459 257.000 171.015 269.604 C 191.663 326.720,256.767 361.217,315.758 346.300 C 324.957 343.973,337.663 339.483,343.991 336.320 L 355.498 330.570 364.221 341.503 C 378.466 359.354,385.209 361.929,395.202 353.333 C 403.386 346.294,402.305 338.153,391.488 325.368 C 378.904 310.494,379.007 311.060,386.987 300.609 C 394.541 290.716,404.741 270.849,407.066 261.500 L 408.434 256.000 444.217 256.000 C 477.363 256.000,480.000 256.266,480.000 259.606 C 480.000 261.589,483.517 270.484,487.815 279.372 C 502.273 309.269,530.415 333.592,563.000 344.355 C 574.361 348.108,581.335 348.979,600.000 348.979 C 625.677 348.979,641.689 344.973,661.800 333.516 C 685.906 319.783,709.572 291.261,717.408 266.500 L 720.730 256.000 755.896 256.000 L 791.061 256.000 794.735 266.500 C 807.208 302.147,836.022 330.431,873.000 343.328 C 887.124 348.254,891.814 348.902,913.000 348.858 C 933.791 348.814,938.962 348.104,951.669 343.545 C 988.600 330.297,1016.790 303.338,1028.985 269.604 L 1033.541 257.000 1056.629 256.000 C 1081.531 254.921,1085.919 253.227,1094.876 241.230 C 1100.590 233.577,1100.590 216.423,1094.876 208.770 C 1085.920 196.774,1081.537 195.078,1056.706 194.000 L 1033.680 193.000 1029.857 182.126 C 1013.933 136.824,970.018 104.112,920.671 100.792 C 866.388 97.139,813.561 131.193,795.533 181.460 L 791.036 194.000 756.331 194.000 C 722.778 194.000,721.589 193.861,720.529 189.808 C 719.926 187.502,715.892 178.294,711.565 169.346 C 700.990 147.479,677.843 124.251,656.000 113.590 C 639.845 105.704,616.341 100.000,600.000 100.000 C 583.659 100.000,560.155 105.704,544.000 113.590 C 522.157 124.251,499.010 147.479,488.435 169.346 C 484.108 178.294,480.074 187.502,479.471 189.808 C 478.411 193.861,477.222 194.000,443.669 194.000 L 408.964 194.000 404.467 181.460 C 384.177 124.885,322.456 90.914,261.895 102.989 M313.091 168.813 C 327.299 175.277,336.938 184.438,343.420 197.637 C 348.128 207.224,348.995 211.501,348.970 225.000 C 348.935 243.605,344.810 254.664,333.048 267.683 C 321.663 280.285,306.315 286.790,288.000 286.774 C 268.096 286.757,255.317 281.190,242.172 266.807 C 230.700 254.255,226.000 242.105,226.000 225.000 C 226.000 208.792,230.503 196.264,240.348 185.079 C 259.733 163.057,287.025 156.954,313.091 168.813 M625.245 167.945 C 636.806 172.999,649.370 184.958,655.637 196.873 C 660.261 205.664,660.963 209.374,660.963 225.000 C 660.963 240.626,660.261 244.336,655.637 253.127 C 649.241 265.289,636.849 276.933,624.245 282.627 C 609.920 289.097,588.312 288.579,573.667 281.414 C 561.242 275.335,550.644 264.822,543.601 251.590 C 537.025 239.235,536.985 210.837,543.527 198.556 C 553.208 180.380,569.022 167.627,586.294 164.067 C 597.689 161.718,614.928 163.435,625.245 167.945 M938.000 168.269 C 948.881 173.019,960.452 183.836,967.664 196.000 C 972.490 204.139,973.000 206.913,973.000 225.000 C 973.000 243.087,972.490 245.861,967.664 254.000 C 951.965 280.480,923.747 292.862,896.891 285.054 C 863.819 275.440,845.003 244.702,851.888 211.538 C 856.410 189.756,876.568 169.418,898.821 164.185 C 909.690 161.629,926.898 163.423,938.000 168.269 M416.458 375.339 C 412.212 377.047,407.672 387.814,409.180 392.600 C 409.943 395.020,420.428 408.873,432.482 423.385 C 456.659 452.493,461.883 455.855,471.632 448.576 C 477.226 444.400,480.097 436.967,478.197 431.580 C 476.489 426.736,435.973 378.126,431.769 375.876 C 428.058 373.891,420.699 373.632,416.458 375.339 M490.145 473.270 C 483.430 481.807,484.753 486.153,499.312 503.365 L 508.079 513.730 497.490 529.365 C 491.666 537.964,485.162 550.175,483.037 556.500 L 479.172 568.000 443.741 568.000 L 408.310 568.000 405.882 560.500 C 393.202 521.333,357.543 488.447,317.521 479.011 C 301.297 475.186,272.045 475.189,256.920 479.017 C 218.431 488.760,186.438 517.176,170.929 555.396 L 166.221 567.000 144.333 568.186 C 120.470 569.478,112.954 572.256,105.209 582.647 C 99.099 590.844,99.328 608.656,105.658 617.530 C 113.076 627.930,120.409 630.632,144.611 631.883 L 166.221 633.000 170.930 644.604 C 181.790 671.370,201.556 694.737,224.577 708.022 C 259.674 728.278,304.562 730.151,341.066 712.882 C 370.769 698.830,395.877 670.405,405.882 639.500 L 408.310 632.000 443.790 632.000 L 479.270 632.000 482.780 643.136 C 484.710 649.260,491.176 661.447,497.149 670.219 L 508.008 686.166 498.021 698.166 C 492.528 704.766,487.478 712.385,486.797 715.098 C 484.468 724.378,496.446 735.687,505.483 732.741 C 507.417 732.110,514.430 725.751,521.067 718.609 L 533.135 705.624 540.202 709.794 C 544.089 712.088,552.316 715.700,558.483 717.822 C 602.914 733.109,650.185 723.119,685.838 690.909 C 697.005 680.820,713.058 656.338,717.272 642.972 L 720.730 632.000 756.210 632.000 L 791.690 632.000 794.118 639.500 C 814.675 702.997,885.993 739.714,949.000 719.238 C 987.090 706.859,1013.980 681.794,1029.070 644.604 L 1033.779 633.000 1055.389 631.883 C 1079.591 630.632,1086.924 627.930,1094.342 617.530 C 1100.672 608.656,1100.901 590.844,1094.791 582.647 C 1086.937 572.110,1079.149 569.222,1055.454 568.062 L 1033.779 567.000 1029.070 555.396 C 1013.563 517.178,981.569 488.760,943.080 479.017 C 927.955 475.189,898.703 475.186,882.479 479.011 C 842.454 488.448,806.799 521.330,794.118 560.500 L 791.690 568.000 756.210 568.000 L 720.730 568.000 717.357 557.297 C 710.463 535.427,691.512 511.301,669.987 496.991 C 648.018 482.387,632.954 477.561,606.000 476.495 C 579.819 475.460,565.004 478.312,545.000 488.241 L 533.000 494.197 521.000 481.039 C 510.327 469.336,508.187 467.888,501.645 467.941 C 496.124 467.985,493.257 469.314,490.145 473.270 M315.000 544.500 C 326.949 550.659,337.871 561.689,344.211 574.000 C 347.989 581.337,348.845 586.141,348.842 600.000 C 348.838 614.493,348.055 618.507,343.530 627.215 C 336.814 640.139,320.747 654.688,308.632 658.816 C 279.857 668.621,247.620 656.229,232.936 629.718 C 227.523 619.945,227.000 617.325,227.000 600.000 C 227.000 582.675,227.523 580.055,232.936 570.282 C 240.157 557.245,251.301 547.366,264.849 541.993 C 279.225 536.291,301.206 537.389,315.000 544.500 M626.846 543.877 C 639.360 549.997,649.976 560.601,656.154 573.154 C 663.138 587.344,663.110 612.711,656.095 626.968 C 628.551 682.944,544.158 668.039,538.551 606.208 C 535.957 577.599,552.464 551.197,579.324 540.997 C 591.141 536.510,614.699 537.938,626.846 543.877 M934.584 542.016 C 949.351 547.541,960.576 557.776,967.863 572.358 C 973.114 582.865,974.000 586.858,974.000 600.000 C 974.000 613.119,973.110 617.141,967.906 627.556 C 957.336 648.708,940.317 660.024,916.758 661.563 C 897.484 662.822,885.125 658.561,871.241 645.872 C 856.743 632.622,851.131 619.837,851.104 600.000 C 851.088 588.615,852.181 582.590,855.640 575.000 C 863.087 558.659,878.554 545.196,896.000 539.870 C 905.646 536.925,923.655 537.927,934.584 542.016 M455.603 751.460 C 448.848 755.891,411.037 801.446,409.172 807.400 C 407.561 812.545,412.291 822.916,417.090 824.758 C 418.870 825.441,422.929 826.000,426.108 826.000 C 431.073 826.000,435.029 822.259,454.128 799.500 C 466.359 784.925,477.161 770.975,478.133 768.500 C 483.116 755.815,467.253 743.817,455.603 751.460 M376.917 844.783 C 374.732 846.313,369.002 852.507,364.182 858.546 L 355.420 869.527 341.153 862.752 C 315.668 850.649,291.237 847.535,263.468 852.848 C 221.285 860.919,185.161 891.267,170.950 930.574 L 166.458 943.000 143.363 944.000 C 124.146 944.832,119.343 945.692,114.758 949.124 C 104.550 956.762,101.000 963.439,101.000 975.000 C 101.000 986.565,104.553 993.245,114.765 1000.876 C 119.354 1004.306,124.164 1005.168,143.358 1006.000 L 166.434 1007.000 171.082 1019.386 C 184.026 1053.873,211.642 1080.384,248.331 1093.545 C 261.077 1098.118,266.146 1098.809,287.000 1098.817 C 307.581 1098.825,313.218 1098.083,326.567 1093.604 C 363.296 1081.283,396.010 1048.754,406.124 1014.500 L 408.633 1006.000 443.951 1006.000 L 479.270 1006.000 482.592 1016.500 C 490.428 1041.261,514.094 1069.783,538.200 1083.516 C 558.815 1095.260,574.222 1099.019,601.000 1098.838 C 621.483 1098.699,627.150 1097.914,639.670 1093.479 C 660.712 1086.025,674.417 1077.060,690.342 1060.333 C 703.993 1045.994,720.000 1018.616,720.000 1009.606 C 720.000 1006.266,722.638 1006.000,755.814 1006.000 L 791.628 1006.000 795.186 1017.314 C 797.144 1023.537,802.922 1035.026,808.026 1042.846 C 838.326 1089.260,897.468 1110.645,950.000 1094.180 C 985.762 1082.972,1017.704 1052.450,1029.856 1017.874 L 1033.678 1007.000 1056.698 1006.000 C 1075.835 1005.169,1080.648 1004.305,1085.235 1000.876 C 1099.494 990.220,1103.753 974.222,1096.002 960.432 C 1088.679 947.402,1080.223 944.000,1055.165 944.000 C 1036.641 944.000,1033.732 943.545,1032.775 940.500 C 1015.764 886.370,966.732 849.848,911.324 850.035 C 861.869 850.201,812.132 885.176,795.533 931.460 L 791.036 944.000 756.331 944.000 C 722.778 944.000,721.589 943.861,720.529 939.808 C 719.926 937.502,715.892 928.294,711.565 919.346 C 700.990 897.479,677.843 874.251,656.000 863.590 C 639.845 855.704,616.341 850.000,600.000 850.000 C 583.867 850.000,560.273 855.750,544.000 863.648 C 522.172 874.241,499.029 897.440,488.435 919.346 C 484.108 928.294,480.074 937.502,479.471 939.808 C 478.411 943.862,477.225 944.000,443.504 944.000 L 408.633 944.000 406.149 935.500 C 403.181 925.343,393.714 907.858,385.593 897.535 C 379.019 889.180,378.947 889.455,391.692 874.394 C 402.572 861.537,403.552 853.848,395.222 846.683 C 389.045 841.370,382.726 840.714,376.917 844.783 M313.091 918.879 C 327.245 925.226,336.919 934.400,343.420 947.637 C 348.128 957.224,348.995 961.501,348.970 975.000 C 348.935 993.605,344.810 1004.664,333.048 1017.683 C 321.663 1030.285,306.315 1036.790,288.000 1036.774 C 268.096 1036.757,255.317 1031.190,242.172 1016.807 C 230.700 1004.255,226.000 992.105,226.000 975.000 C 226.000 958.792,230.503 946.264,240.348 935.079 C 259.699 913.096,286.757 907.070,313.091 918.879 M625.245 917.945 C 636.806 922.999,649.370 934.958,655.637 946.873 C 660.261 955.664,660.963 959.374,660.963 975.000 C 660.963 990.626,660.261 994.336,655.637 1003.127 C 649.241 1015.289,636.849 1026.933,624.245 1032.627 C 609.920 1039.097,588.312 1038.579,573.667 1031.414 C 561.242 1025.335,550.644 1014.822,543.601 1001.590 C 539.813 994.473,539.029 989.913,539.029 975.000 C 539.029 955.237,542.024 946.946,554.152 933.132 C 571.016 913.925,601.267 907.462,625.245 917.945 M938.000 918.296 C 948.867 923.007,960.441 933.816,967.664 946.000 C 972.490 954.139,973.000 956.913,973.000 975.000 C 973.000 993.087,972.490 995.861,967.664 1004.000 C 960.338 1016.357,948.912 1026.929,937.000 1032.372 C 922.882 1038.823,900.956 1038.619,887.000 1031.906 C 874.306 1025.800,862.158 1013.695,855.931 1000.948 C 849.282 987.338,849.140 963.303,855.629 949.939 C 862.144 936.519,870.341 927.539,881.734 921.338 C 899.991 911.401,919.644 910.338,938.000 918.296 " fill="#1D1E23" stroke="none" fill-rule="evenodd"></path></svg>