<svg width="1200" height="1200" viewBox="0 0 1200 1200" fill="none" xmlns="http://www.w3.org/2000/svg"><path d="M574.586 102.882 C 533.279 112.305,496.333 144.998,479.094 187.382 L 474.368 199.000 370.638 200.000 L 266.907 201.000 253.661 207.523 C 229.254 219.543,209.956 245.021,203.041 274.352 C 198.543 293.433,198.543 1004.567,203.041 1023.648 C 207.532 1042.699,215.145 1056.940,228.432 1071.143 C 242.499 1086.181,258.609 1094.887,278.000 1097.930 C 286.423 1099.252,399.784 1099.970,600.000 1099.970 C 800.216 1099.970,913.577 1099.252,922.000 1097.930 C 958.153 1092.256,987.684 1062.993,996.959 1023.650 C 1001.457 1004.568,1001.458 293.435,996.959 274.352 C 990.044 245.021,970.746 219.543,946.339 207.523 L 933.093 201.000 829.492 200.000 L 725.891 199.000 719.347 183.944 C 697.882 134.559,654.534 103.006,605.184 100.846 C 593.829 100.349,582.338 101.113,574.586 102.882 M616.564 202.694 C 625.299 206.351,636.672 219.390,640.991 230.697 C 651.074 257.100,635.541 290.555,610.140 297.144 C 564.899 308.879,536.646 244.345,572.255 210.610 C 575.965 207.096,581.250 203.328,584.000 202.237 C 591.311 199.337,609.143 199.587,616.564 202.694 M378.000 345.690 C 378.000 389.600,378.164 391.529,382.210 395.190 C 386.295 398.887,392.777 399.000,600.000 399.000 C 807.223 399.000,813.705 398.887,817.790 395.190 C 821.836 391.529,822.000 389.600,822.000 345.690 L 822.000 300.000 866.000 300.000 L 910.000 300.000 910.000 650.000 L 910.000 1000.000 600.000 1000.000 L 290.000 1000.000 290.000 650.000 L 290.000 300.000 334.000 300.000 L 378.000 300.000 378.000 345.690 M407.000 503.806 C 396.226 508.812,384.848 521.083,381.086 531.751 C 374.651 550.000,378.223 567.367,391.433 582.060 C 407.674 600.123,393.845 599.000,600.000 599.000 C 806.155 599.000,792.326 600.123,808.567 582.060 C 826.434 562.186,826.693 536.439,809.225 516.595 C 793.591 498.833,809.494 500.088,600.000 500.088 C 423.886 500.088,414.616 500.266,407.000 503.806 M407.000 703.806 C 396.226 708.812,384.848 721.083,381.086 731.751 C 374.651 750.000,378.223 767.367,391.433 782.060 C 407.398 799.816,399.418 799.000,557.000 799.000 L 695.000 799.000 704.555 794.254 C 716.785 788.179,727.288 775.877,731.045 763.224 C 734.732 750.808,734.734 747.186,731.057 734.863 C 727.233 722.043,718.011 711.086,705.864 704.931 L 696.133 700.000 555.566 700.044 C 422.813 700.085,414.555 700.294,407.000 703.806 " fill="#1D1E23" stroke="none" fill-rule="evenodd"></path></svg>