<svg width="1200" height="1200" viewBox="0 0 1200 1200" fill="none" xmlns="http://www.w3.org/2000/svg"><path d="M572.000 52.900 C 543.796 58.950,519.707 71.167,499.995 89.417 C 485.254 103.065,469.185 125.223,462.838 140.655 L 459.000 149.985 304.500 149.993 L 150.000 150.000 150.000 600.000 L 150.000 1050.000 600.000 1050.000 L 1050.000 1050.000 1050.000 600.000 L 1050.000 150.000 895.500 149.993 L 741.000 149.985 737.306 141.002 C 720.941 101.209,680.523 66.526,637.000 54.929 C 620.243 50.464,588.040 49.458,572.000 52.900 M623.250 156.220 C 642.867 166.315,653.124 188.886,648.165 211.046 C 639.683 248.946,592.489 262.594,564.993 235.098 C 545.365 215.471,545.361 184.533,564.983 164.911 C 580.378 149.516,603.517 146.065,623.250 156.220 M850.000 400.000 L 850.000 450.000 600.000 450.000 L 350.000 450.000 350.000 400.000 L 350.000 350.000 600.000 350.000 L 850.000 350.000 850.000 400.000 M850.000 600.000 L 850.000 650.000 600.000 650.000 L 350.000 650.000 350.000 600.000 L 350.000 550.000 600.000 550.000 L 850.000 550.000 850.000 600.000 M700.000 800.000 L 700.000 850.000 525.000 850.000 L 350.000 850.000 350.000 800.000 L 350.000 750.000 525.000 750.000 L 700.000 750.000 700.000 800.000 " fill="#1D1E23" stroke="none" fill-rule="evenodd"></path></svg>