<svg width="1200" height="1200" viewBox="0 0 1200 1200" fill="none" xmlns="http://www.w3.org/2000/svg"><path d="M572.000 52.900 C 543.796 58.950,519.707 71.167,499.995 89.417 C 485.307 103.016,469.222 125.169,462.850 140.573 L 459.026 149.821 344.013 150.410 L 229.000 151.000 217.000 155.784 C 182.959 169.355,159.106 196.531,152.210 229.598 C 149.085 244.585,149.085 955.415,152.210 970.402 C 160.026 1007.883,192.117 1039.974,229.598 1047.790 C 237.108 1049.356,345.049 1050.000,600.000 1050.000 C 854.951 1050.000,962.892 1049.356,970.402 1047.790 C 1007.883 1039.974,1039.974 1007.883,1047.790 970.402 C 1050.915 955.415,1050.915 244.585,1047.790 229.598 C 1040.894 196.531,1017.041 169.355,983.000 155.784 L 971.000 151.000 855.987 150.410 L 740.974 149.821 737.293 140.920 C 720.828 101.110,680.477 66.514,637.000 54.929 C 620.243 50.464,588.040 49.458,572.000 52.900 M623.250 156.220 C 642.867 166.315,653.124 188.886,648.165 211.046 C 639.683 248.946,592.489 262.594,564.993 235.098 C 545.365 215.471,545.361 184.533,564.983 164.911 C 580.378 149.516,603.517 146.065,623.250 156.220 M823.036 356.109 C 858.087 374.148,858.087 425.852,823.036 443.891 L 813.108 449.000 603.152 449.527 C 366.662 450.121,380.877 450.982,364.993 435.098 C 345.365 415.471,345.361 384.533,364.983 364.911 C 380.552 349.343,365.561 350.245,602.054 350.644 L 813.108 351.000 823.036 356.109 M823.036 556.109 C 858.087 574.148,858.087 625.852,823.036 643.891 L 813.108 649.000 603.152 649.527 C 366.662 650.121,380.877 650.982,364.993 635.098 C 345.365 615.471,345.361 584.533,364.983 564.911 C 380.552 549.343,365.561 550.245,602.054 550.644 L 813.108 551.000 823.036 556.109 M673.037 756.109 C 708.086 774.149,708.086 825.850,673.037 843.891 L 663.110 849.000 528.196 849.541 C 375.583 850.154,380.482 850.587,364.993 835.098 C 345.365 815.471,345.361 784.533,364.983 764.911 C 380.196 749.698,374.175 750.229,527.055 750.637 L 663.110 751.000 673.037 756.109 " fill="#1D1E23" stroke="none" fill-rule="evenodd"></path></svg>