<svg width="1200" height="1200" viewBox="0 0 1200 1200" fill="none" xmlns="http://www.w3.org/2000/svg"><path d="M564.000 101.343 C 559.050 101.697,544.650 103.398,532.000 105.123 C 422.908 120.002,326.169 167.976,247.923 246.000 C 168.403 325.295,122.278 417.402,104.701 532.000 C 99.785 564.052,99.785 635.948,104.701 668.000 C 116.711 746.301,140.912 810.906,181.493 873.000 C 202.215 904.707,218.858 925.013,247.923 954.052 C 326.794 1032.852,425.009 1080.829,539.000 1096.241 C 559.150 1098.965,628.018 1099.834,636.463 1097.471 C 644.215 1095.302,655.516 1084.789,660.412 1075.193 C 665.510 1065.200,666.032 1044.548,661.462 1033.721 C 657.262 1023.772,644.960 1010.584,635.136 1005.498 C 628.200 1001.906,621.840 1001.067,592.000 999.807 C 524.798 996.968,474.895 984.620,421.000 957.495 C 341.484 917.474,278.633 853.617,239.976 773.574 C 186.716 663.292,186.740 536.658,240.042 426.291 C 261.236 382.406,286.510 347.570,322.280 312.940 C 355.725 280.561,385.312 259.832,426.426 239.976 C 562.949 174.043,723.352 190.804,845.000 283.715 C 861.971 296.677,896.256 330.296,910.558 348.000 C 945.699 391.499,973.102 445.553,986.739 498.271 C 994.644 528.830,998.284 554.896,999.828 592.000 C 1001.071 621.869,1001.903 628.193,1005.498 635.136 C 1010.584 644.960,1023.772 657.262,1033.721 661.462 C 1044.548 666.032,1065.200 665.510,1075.193 660.412 C 1084.789 655.516,1095.302 644.215,1097.471 636.463 C 1100.312 626.312,1098.750 556.261,1095.141 532.000 C 1072.046 376.729,988.084 250.661,854.000 169.930 C 770.017 119.364,663.669 94.212,564.000 101.343 M565.000 355.741 C 557.036 360.688,550.748 367.730,548.133 374.630 C 544.946 383.043,545.200 627.866,548.408 638.572 C 553.175 654.482,564.301 662.835,644.680 710.841 L 720.359 756.041 737.116 739.284 C 746.332 730.068,758.401 719.074,763.936 714.853 C 769.471 710.632,773.997 706.688,773.993 706.089 C 773.989 705.490,739.805 684.750,698.028 660.000 L 622.069 615.000 622.034 502.598 C 621.999 386.032,621.312 374.750,613.663 365.025 C 603.847 352.547,578.064 347.628,565.000 355.741 M925.000 701.256 C 867.530 707.496,814.861 732.775,773.818 773.818 C 688.354 859.281,676.115 989.753,744.045 1091.186 C 757.620 1111.456,788.544 1142.380,808.814 1155.955 C 895.731 1214.164,1004.269 1214.164,1091.186 1155.955 C 1111.456 1142.380,1142.380 1111.456,1155.955 1091.186 C 1214.164 1004.269,1214.164 895.731,1155.955 808.814 C 1142.578 788.839,1111.538 757.674,1091.984 744.584 C 1049.820 716.358,1008.207 702.787,959.000 701.217 C 944.700 700.760,929.400 700.778,925.000 701.256 M980.000 780.064 C 1029.581 794.442,1060.837 850.493,1046.021 898.460 C 1041.099 914.397,1035.459 922.262,1009.265 949.723 C 984.421 975.767,978.488 986.506,976.436 1009.150 L 975.000 1025.000 950.000 1025.000 L 925.000 1025.000 925.588 1009.177 C 926.749 977.897,935.975 960.421,969.819 925.393 C 981.719 913.077,993.129 899.850,995.175 896.000 C 1000.602 885.786,1000.287 863.662,994.558 852.811 C 989.540 843.304,978.136 832.688,968.710 828.750 C 960.244 825.213,939.756 825.213,931.290 828.750 C 915.958 835.156,903.460 851.168,900.797 867.816 L 899.489 876.000 874.459 876.000 L 849.430 876.000 850.662 864.218 C 854.338 829.043,880.904 794.180,913.257 782.076 C 935.866 773.616,955.704 773.018,980.000 780.064 M975.000 1100.000 L 975.000 1125.000 950.000 1125.000 L 925.000 1125.000 924.431 1102.122 C 924.118 1089.540,924.325 1078.037,924.892 1076.560 C 925.693 1074.473,931.378 1074.001,950.461 1074.438 L 975.000 1075.000 975.000 1100.000 " fill="#1D1E23" stroke="none" fill-rule="evenodd"></path></svg>