<svg width="1200" height="1200" viewBox="0 0 1200 1200" fill="none" xmlns="http://www.w3.org/2000/svg"><path d="M565.000 101.199 C 510.546 106.765,462.206 117.544,423.074 132.845 C 184.501 226.128,53.758 475.862,115.158 721.000 C 159.715 898.894,301.106 1040.285,479.000 1084.842 C 552.654 1103.290,632.796 1104.682,704.838 1088.765 C 898.675 1045.938,1049.225 893.844,1089.656 700.000 C 1097.320 663.256,1098.955 645.677,1098.955 600.000 C 1098.955 554.323,1097.320 536.744,1089.656 500.000 C 1069.627 403.973,1023.163 317.856,953.887 248.366 C 877.356 171.600,779.313 121.744,673.617 105.847 C 648.168 102.019,583.887 99.269,565.000 101.199 M607.911 356.704 C 612.317 359.619,617.739 365.568,619.960 369.923 C 623.875 377.597,624.000 381.410,624.000 493.633 L 624.000 609.424 721.500 668.094 C 775.125 700.362,821.801 729.674,825.225 733.232 C 838.812 747.353,838.076 771.947,823.663 785.405 C 812.496 795.831,796.687 798.500,783.000 792.271 C 771.091 786.852,572.293 664.135,564.884 657.630 C 561.376 654.549,556.572 647.536,554.210 642.044 C 549.944 632.128,549.918 631.178,550.457 503.214 L 551.000 374.369 557.116 366.685 C 570.598 349.744,591.260 345.684,607.911 356.704 " fill="#1D1E23" stroke="none" fill-rule="evenodd"></path></svg>