<svg width="1200" height="1200" viewBox="0 0 1200 1200" fill="none" xmlns="http://www.w3.org/2000/svg"><path d="M564.000 101.343 C 559.050 101.697,544.650 103.398,532.000 105.123 C 422.908 120.002,326.169 167.976,247.923 246.000 C 168.403 325.295,122.278 417.402,104.701 532.000 C 99.785 564.052,99.785 635.948,104.701 668.000 C 116.711 746.301,140.912 810.906,181.493 873.000 C 202.215 904.707,218.858 925.013,247.923 954.052 C 326.794 1032.852,425.009 1080.829,539.000 1096.241 C 559.150 1098.965,628.018 1099.834,636.463 1097.471 C 644.215 1095.302,655.516 1084.789,660.412 1075.193 C 665.510 1065.200,666.032 1044.548,661.462 1033.721 C 657.262 1023.772,644.960 1010.584,635.136 1005.498 C 628.200 1001.906,621.840 1001.067,592.000 999.807 C 524.798 996.968,474.895 984.620,421.000 957.495 C 341.484 917.474,278.633 853.617,239.976 773.574 C 186.716 663.292,186.740 536.658,240.042 426.291 C 261.236 382.406,286.510 347.570,322.280 312.940 C 355.725 280.561,385.312 259.832,426.426 239.976 C 562.949 174.043,723.352 190.804,845.000 283.715 C 861.971 296.677,896.256 330.296,910.558 348.000 C 945.699 391.499,973.102 445.553,986.739 498.271 C 994.644 528.830,998.284 554.896,999.828 592.000 C 1001.071 621.869,1001.903 628.193,1005.498 635.136 C 1010.584 644.960,1023.772 657.262,1033.721 661.462 C 1044.548 666.032,1065.200 665.510,1075.193 660.412 C 1084.789 655.516,1095.302 644.215,1097.471 636.463 C 1100.312 626.312,1098.750 556.261,1095.141 532.000 C 1072.046 376.729,988.084 250.661,854.000 169.930 C 770.017 119.364,663.669 94.212,564.000 101.343 M565.000 355.741 C 557.036 360.688,550.748 367.730,548.133 374.630 C 544.946 383.043,545.200 627.866,548.408 638.572 C 553.175 654.482,564.301 662.835,644.680 710.841 L 720.359 756.041 737.116 739.284 C 746.332 730.068,758.401 719.074,763.936 714.853 C 769.471 710.632,773.997 706.688,773.993 706.089 C 773.989 705.490,739.805 684.750,698.028 660.000 L 622.069 615.000 622.034 502.598 C 621.999 386.032,621.312 374.750,613.663 365.025 C 603.847 352.547,578.064 347.628,565.000 355.741 M896.597 703.248 C 882.404 710.247,883.063 704.324,882.437 830.500 L 881.874 944.000 871.937 944.000 L 862.000 944.000 862.000 851.901 C 862.000 775.390,861.510 758.853,859.102 754.198 C 850.255 737.088,823.745 737.088,814.898 754.198 C 812.460 758.911,812.000 779.194,812.000 881.901 L 812.000 1004.000 804.213 1004.000 L 796.425 1004.000 782.198 968.500 C 774.373 948.975,766.254 930.179,764.156 926.732 C 753.278 908.859,720.174 897.995,707.344 908.087 C 696.259 916.806,696.669 918.429,732.935 1009.387 C 751.271 1055.374,769.032 1097.950,772.403 1104.000 C 788.116 1132.197,813.308 1155.793,842.845 1169.978 C 868.398 1182.250,880.811 1184.888,913.000 1184.888 C 945.189 1184.888,957.602 1182.250,983.155 1169.978 C 1016.873 1153.785,1041.324 1129.281,1057.971 1095.000 C 1074.117 1061.750,1074.000 1062.977,1074.000 926.914 C 1074.000 811.346,1073.877 807.444,1070.052 802.073 C 1067.880 799.023,1063.363 795.393,1060.014 794.006 C 1052.333 790.824,1038.992 792.502,1033.569 797.331 C 1024.559 805.354,1024.000 810.121,1024.000 878.936 L 1024.000 944.000 1014.000 944.000 L 1004.000 944.000 1004.000 846.901 C 1004.000 741.211,1004.128 742.475,992.664 734.964 C 986.290 730.787,973.099 730.200,966.384 733.794 C 963.855 735.148,960.037 739.123,957.900 742.628 C 954.194 748.707,954.015 753.486,954.007 846.605 L 954.000 944.209 943.500 943.605 L 933.000 943.000 932.000 829.000 C 931.261 744.774,930.365 713.893,928.569 710.761 C 925.717 705.787,914.407 699.981,907.698 700.046 C 905.114 700.071,900.119 701.512,896.597 703.248 " fill="#1D1E23" stroke="none" fill-rule="evenodd"></path></svg>