<svg width="1200" height="1200" viewBox="0 0 1200 1200" fill="none" xmlns="http://www.w3.org/2000/svg"><path d="M564.000 101.343 C 559.050 101.697,544.650 103.398,532.000 105.123 C 422.908 120.002,326.169 167.976,247.923 246.000 C 168.403 325.295,122.278 417.402,104.701 532.000 C 99.785 564.052,99.785 635.948,104.701 668.000 C 116.711 746.301,140.912 810.906,181.493 873.000 C 202.215 904.707,218.858 925.013,247.923 954.052 C 326.794 1032.852,425.009 1080.829,539.000 1096.241 C 559.150 1098.965,628.018 1099.834,636.463 1097.471 C 644.215 1095.302,655.516 1084.789,660.412 1075.193 C 665.510 1065.200,666.032 1044.548,661.462 1033.721 C 657.262 1023.772,644.960 1010.584,635.136 1005.498 C 628.200 1001.906,621.840 1001.067,592.000 999.807 C 524.798 996.968,474.895 984.620,421.000 957.495 C 341.484 917.474,278.633 853.617,239.976 773.574 C 186.716 663.292,186.740 536.658,240.042 426.291 C 261.236 382.406,286.510 347.570,322.280 312.940 C 355.725 280.561,385.312 259.832,426.426 239.976 C 562.949 174.043,723.352 190.804,845.000 283.715 C 861.971 296.677,896.256 330.296,910.558 348.000 C 945.699 391.499,973.102 445.553,986.739 498.271 C 994.644 528.830,998.284 554.896,999.828 592.000 C 1001.071 621.869,1001.903 628.193,1005.498 635.136 C 1010.584 644.960,1023.772 657.262,1033.721 661.462 C 1044.548 666.032,1065.200 665.510,1075.193 660.412 C 1084.789 655.516,1095.302 644.215,1097.471 636.463 C 1100.312 626.312,1098.750 556.261,1095.141 532.000 C 1072.046 376.729,988.084 250.661,854.000 169.930 C 770.017 119.364,663.669 94.212,564.000 101.343 M565.000 355.741 C 557.036 360.688,550.748 367.730,548.133 374.630 C 544.946 383.043,545.200 627.866,548.408 638.572 C 553.175 654.482,564.301 662.835,644.680 710.841 L 720.359 756.041 737.116 739.284 C 746.332 730.068,758.401 719.074,763.936 714.853 C 769.471 710.632,773.997 706.688,773.993 706.089 C 773.989 705.490,739.805 684.750,698.028 660.000 L 622.069 615.000 622.034 502.598 C 621.999 386.032,621.312 374.750,613.663 365.025 C 603.847 352.547,578.064 347.628,565.000 355.741 M996.121 803.879 C 992.241 807.759,992.000 810.284,992.000 847.000 L 992.000 886.000 890.500 886.044 C 792.715 886.086,788.671 886.237,780.000 890.162 C 760.508 898.985,751.119 913.562,751.119 935.000 C 751.119 955.718,760.225 970.659,778.974 980.701 C 786.840 984.914,789.044 985.012,889.500 985.616 L 992.000 986.232 992.000 1023.671 C 992.000 1065.527,993.166 1070.000,1004.081 1070.000 C 1008.867 1070.000,1023.171 1058.689,1082.467 1008.018 C 1122.360 973.928,1156.263 943.941,1157.808 941.380 C 1159.506 938.563,1160.072 934.802,1159.241 931.861 C 1157.390 925.310,1012.035 801.231,1005.213 800.379 C 1002.207 800.003,998.614 801.386,996.121 803.879 " fill="#1D1E23" stroke="none" fill-rule="evenodd"></path></svg>