<svg width="1200" height="1200" viewBox="0 0 1200 1200" fill="none" xmlns="http://www.w3.org/2000/svg"><path d="M564.000 101.343 C 559.050 101.697,544.650 103.398,532.000 105.123 C 422.908 120.002,326.169 167.976,247.923 246.000 C 168.403 325.295,122.278 417.402,104.701 532.000 C 99.785 564.052,99.785 635.948,104.701 668.000 C 116.711 746.301,140.912 810.906,181.493 873.000 C 202.215 904.707,218.858 925.013,247.923 954.052 C 326.794 1032.852,425.009 1080.829,539.000 1096.241 C 559.150 1098.965,628.018 1099.834,636.463 1097.471 C 644.215 1095.302,655.516 1084.789,660.412 1075.193 C 665.510 1065.200,666.032 1044.548,661.462 1033.721 C 657.262 1023.772,644.960 1010.584,635.136 1005.498 C 628.200 1001.906,621.840 1001.067,592.000 999.807 C 524.798 996.968,474.895 984.620,421.000 957.495 C 341.484 917.474,278.633 853.617,239.976 773.574 C 186.716 663.292,186.740 536.658,240.042 426.291 C 261.236 382.406,286.510 347.570,322.280 312.940 C 355.725 280.561,385.312 259.832,426.426 239.976 C 562.949 174.043,723.352 190.804,845.000 283.715 C 861.971 296.677,896.256 330.296,910.558 348.000 C 945.699 391.499,973.102 445.553,986.739 498.271 C 994.644 528.830,998.284 554.896,999.828 592.000 C 1001.071 621.869,1001.903 628.193,1005.498 635.136 C 1010.584 644.960,1023.772 657.262,1033.721 661.462 C 1044.548 666.032,1065.200 665.510,1075.193 660.412 C 1084.789 655.516,1095.302 644.215,1097.471 636.463 C 1100.312 626.312,1098.750 556.261,1095.141 532.000 C 1072.046 376.729,988.084 250.661,854.000 169.930 C 770.017 119.364,663.669 94.212,564.000 101.343 M565.000 355.741 C 557.036 360.688,550.748 367.730,548.133 374.630 C 544.946 383.043,545.200 627.866,548.408 638.572 C 553.400 655.234,562.669 661.859,674.797 728.910 C 732.985 763.705,784.432 793.201,789.124 794.456 C 819.284 802.522,844.407 764.266,825.354 739.286 C 821.683 734.473,791.904 715.752,721.146 673.774 L 622.079 615.000 622.040 502.598 C 621.999 386.037,621.311 374.749,613.663 365.025 C 603.847 352.547,578.064 347.628,565.000 355.741 M1065.000 753.794 C 1061.700 755.872,1050.229 766.456,1039.509 777.313 L 1020.018 797.054 1061.573 838.574 L 1103.129 880.094 1125.410 857.511 C 1148.021 834.593,1151.605 828.680,1149.057 818.500 C 1147.528 812.396,1094.481 757.505,1085.599 752.838 C 1078.289 748.996,1072.166 749.281,1065.000 753.794 M872.494 944.506 L 750.000 1067.012 750.000 1108.506 L 750.000 1150.000 791.506 1150.000 L 833.012 1150.000 955.994 1027.006 L 1078.976 904.012 1038.006 863.006 C 1015.473 840.453,996.576 822.000,996.012 822.000 C 995.449 822.000,939.866 877.128,872.494 944.506 " fill="#1D1E23" stroke="none" fill-rule="evenodd"></path></svg>