<svg width="1200" height="1200" viewBox="0 0 1200 1200" fill="none" xmlns="http://www.w3.org/2000/svg"><path d="M564.000 101.194 C 439.613 112.145,333.327 160.838,247.923 246.000 C 168.403 325.295,122.278 417.402,104.701 532.000 C 99.785 564.052,99.785 635.948,104.701 668.000 C 116.711 746.301,140.912 810.906,181.493 873.000 C 202.215 904.707,218.858 925.013,247.923 954.052 C 326.794 1032.852,425.009 1080.829,539.000 1096.241 C 559.150 1098.965,628.018 1099.834,636.463 1097.471 C 644.215 1095.302,655.516 1084.789,660.412 1075.193 C 665.510 1065.200,666.032 1044.548,661.462 1033.721 C 657.262 1023.772,644.960 1010.584,635.136 1005.498 C 628.200 1001.906,621.840 1001.067,592.000 999.807 C 524.798 996.968,474.895 984.620,421.000 957.495 C 341.484 917.474,278.633 853.617,239.976 773.574 C 172.634 634.132,191.854 468.752,289.438 348.000 C 303.750 330.290,338.036 296.671,355.000 283.715 C 425.695 229.720,512.674 200.000,600.000 200.000 C 690.517 200.000,781.117 232.155,852.000 289.438 C 869.710 303.750,903.329 338.036,916.285 355.000 C 952.966 403.027,980.383 462.945,991.785 520.000 C 996.301 542.598,999.992 572.061,998.612 574.500 C 998.146 575.325,980.377 576.000,959.127 576.000 C 930.644 576.000,919.951 576.657,918.440 578.500 C 916.457 580.918,915.295 586.510,915.770 591.346 C 916.134 595.056,1039.952 738.710,1045.245 741.564 C 1049.112 743.649,1050.888 743.649,1054.755 741.564 C 1057.370 740.154,1087.520 706.306,1121.755 666.346 C 1175.511 603.600,1184.000 592.813,1184.000 587.246 C 1184.000 583.701,1182.920 579.720,1181.600 578.400 C 1179.895 576.695,1167.742 576.000,1139.638 576.000 C 1100.201 576.000,1100.073 575.986,1099.209 571.500 C 1098.732 569.025,1097.363 556.650,1096.167 544.000 C 1085.231 428.368,1024.547 309.451,936.153 230.433 C 858.920 161.391,769.843 119.766,667.607 104.944 C 647.380 102.012,581.713 99.635,564.000 101.194 M565.000 355.741 C 557.036 360.688,550.748 367.730,548.133 374.630 C 544.946 383.043,545.200 627.866,548.408 638.572 C 553.400 655.234,562.669 661.859,674.797 728.910 C 732.985 763.705,784.432 793.201,789.124 794.456 C 819.284 802.522,844.407 764.266,825.354 739.286 C 821.683 734.473,791.904 715.752,721.146 673.774 L 622.079 615.000 622.040 502.598 C 621.999 386.037,621.311 374.749,613.663 365.025 C 603.847 352.547,578.064 347.628,565.000 355.741 " fill="#1D1E23" stroke="none" fill-rule="evenodd"></path></svg>