<svg width="1200" height="1200" viewBox="0 0 1200 1200" fill="none" xmlns="http://www.w3.org/2000/svg"><path d="M554.273 102.069 C 398.160 117.159,260.373 202.186,175.186 336.000 C 159.234 361.058,136.757 409.284,126.142 441.230 C 91.501 545.477,91.501 654.523,126.142 758.770 C 150.487 832.034,190.954 897.156,246.899 953.101 C 324.364 1030.567,419.809 1078.547,530.000 1095.418 C 561.811 1100.288,637.929 1100.275,668.732 1095.393 C 700.806 1090.310,731.637 1082.978,757.798 1074.213 C 929.348 1016.733,1056.410 871.947,1090.730 694.842 C 1144.765 415.999,954.991 148.178,673.350 105.808 C 642.882 101.224,582.596 99.331,554.273 102.069 M637.000 202.067 C 728.175 210.617,811.670 249.020,877.725 312.786 C 1002.244 432.989,1035.081 619.965,958.972 775.424 C 898.174 899.610,779.813 982.445,641.000 997.956 C 542.578 1008.954,436.771 978.739,355.000 916.285 C 337.015 902.549,303.337 869.207,288.046 850.000 C 268.510 825.461,255.353 804.553,240.851 775.000 C 173.046 636.832,191.464 471.084,288.076 350.000 C 303.498 330.672,334.753 299.697,354.000 284.667 C 433.438 222.636,536.275 192.620,637.000 202.067 M571.000 353.650 C 561.449 358.169,557.200 362.639,553.076 372.509 C 550.420 378.867,550.000 396.878,550.000 504.579 C 550.000 643.800,549.783 641.412,563.748 655.851 C 568.091 660.341,614.304 689.304,678.943 728.047 C 777.811 787.305,787.772 792.818,797.433 793.619 C 810.545 794.706,817.950 791.754,826.865 781.886 C 834.353 773.597,837.157 763.906,835.328 752.636 C 832.942 737.932,827.869 733.811,769.000 698.754 C 738.200 680.413,693.459 653.769,669.575 639.547 L 626.149 613.687 625.575 495.344 C 625.020 381.147,624.860 376.762,621.000 370.212 C 618.800 366.479,613.611 360.685,609.469 357.337 C 599.713 349.452,583.217 347.871,571.000 353.650 " fill="#1D1E23" stroke="none" fill-rule="evenodd"></path></svg>