<svg width="1200" height="1200" viewBox="0 0 1200 1200" fill="none" xmlns="http://www.w3.org/2000/svg"><path d="M483.181 53.147 C 471.791 57.320,462.844 64.851,456.545 75.568 C 451.816 83.611,451.000 87.209,451.000 100.000 C 451.000 112.791,451.816 116.389,456.545 124.432 C 459.594 129.620,465.056 136.127,468.682 138.893 C 483.213 149.977,483.489 150.000,599.895 150.000 C 721.387 150.000,719.946 150.159,735.053 135.053 C 754.616 115.489,754.616 84.511,735.053 64.947 C 719.913 49.808,721.510 49.981,599.144 50.141 C 510.522 50.256,489.589 50.799,483.181 53.147 M567.000 201.205 C 501.166 208.002,454.524 220.739,402.880 246.025 C 311.777 290.631,240.486 361.896,195.830 453.000 C 143.888 558.968,135.940 678.259,173.242 792.000 C 194.673 857.348,232.399 918.399,282.000 968.000 C 331.601 1017.601,392.652 1055.327,458.000 1076.758 C 552.636 1107.795,647.364 1107.795,742.000 1076.758 C 807.348 1055.327,868.399 1017.601,918.000 968.000 C 990.246 895.754,1035.049 802.838,1047.031 700.402 C 1059.863 590.710,1028.973 473.791,964.017 386.184 L 951.679 369.545 972.804 348.108 C 997.015 323.538,1002.353 314.104,1002.266 296.035 C 1002.201 282.362,998.889 273.429,990.227 263.564 C 976.492 247.921,952.776 243.487,932.738 252.817 C 926.218 255.853,914.749 265.038,901.287 278.004 L 880.097 298.413 872.549 292.464 C 858.012 281.006,824.597 260.119,803.494 249.299 C 761.622 227.830,713.508 212.363,666.000 205.099 C 645.637 201.986,583.221 199.531,567.000 201.205 M634.288 302.098 C 660.819 304.786,687.182 310.274,710.517 317.968 C 736.251 326.452,781.376 349.393,803.986 365.486 C 828.328 382.812,867.188 421.672,884.514 446.014 C 900.601 468.616,923.547 513.747,932.024 539.459 C 955.245 609.893,955.245 690.107,932.024 760.541 C 923.547 786.253,900.601 831.384,884.514 853.986 C 867.090 878.465,828.111 917.419,804.453 933.995 C 759.028 965.823,712.429 985.432,659.000 995.202 C 630.967 1000.328,569.033 1000.328,541.000 995.202 C 467.353 981.735,405.301 949.318,353.000 896.986 C 324.810 868.779,306.992 844.466,289.251 810.000 C 245.584 725.163,238.388 626.875,269.203 536.143 C 278.359 509.183,298.333 470.349,315.560 446.014 C 332.724 421.768,371.575 382.882,396.014 365.486 C 419.814 348.546,464.494 326.100,492.000 317.265 C 538.444 302.347,586.343 297.241,634.288 302.098 M583.181 403.147 C 571.791 407.320,562.844 414.851,556.545 425.568 L 551.000 435.000 550.435 545.546 C 550.061 618.863,550.584 658.742,551.990 663.962 C 555.043 675.302,565.563 688.023,576.574 693.690 C 596.581 703.986,619.488 700.618,635.007 685.098 C 650.165 669.940,650.000 671.428,650.000 550.000 C 650.000 428.625,650.158 430.053,635.053 414.947 C 621.434 401.329,600.896 396.656,583.181 403.147 " fill="#1D1E23" stroke="none" fill-rule="evenodd"></path></svg>