<svg width="1200" height="1200" viewBox="0 0 1200 1200" fill="none" xmlns="http://www.w3.org/2000/svg"><path d="M535.193 104.278 C 452.705 114.862,369.682 148.676,301.895 199.297 L 283.813 212.799 319.569 248.555 L 355.324 284.310 370.814 273.197 C 414.815 241.628,471.582 217.618,525.865 207.616 L 550.000 203.170 550.000 152.585 C 550.000 124.763,549.775 102.114,549.500 102.253 C 549.225 102.392,542.787 103.303,535.193 104.278 M652.000 153.127 L 652.000 203.625 662.500 205.017 C 668.275 205.783,684.755 209.397,699.122 213.050 C 769.768 231.009,829.831 265.395,882.125 317.818 C 943.708 379.555,978.949 448.062,995.387 538.000 C 997.987 552.225,998.859 567.806,998.859 600.000 C 998.859 645.635,997.042 660.964,986.961 700.352 C 949.232 847.772,825.222 964.294,676.087 992.453 L 652.008 997.000 652.004 1047.635 C 652.000 1094.894,652.233 1098.205,655.500 1097.303 C 657.425 1096.771,663.500 1095.771,669.000 1095.080 C 688.922 1092.579,721.487 1085.439,744.000 1078.636 C 853.016 1045.695,947.840 976.221,1012.385 882.000 C 1128.850 711.987,1128.850 488.013,1012.385 318.000 C 992.774 289.373,977.744 271.472,951.089 245.000 C 874.327 168.763,775.838 119.816,669.500 105.057 L 652.000 102.629 652.000 153.127 M199.690 301.414 C 146.150 373.299,116.845 446.604,103.310 542.500 L 102.251 550.000 153.126 550.000 C 203.420 550.000,204.000 549.952,204.000 545.814 C 204.000 536.066,212.850 499.070,221.148 474.132 C 232.336 440.506,247.430 409.391,266.327 381.000 C 274.381 368.900,281.603 358.042,282.377 356.871 C 283.181 355.654,268.572 339.548,248.286 319.285 L 212.788 283.829 199.690 301.414 M566.142 355.503 C 562.370 357.426,556.520 362.459,553.142 366.686 L 547.000 374.372 547.000 505.686 C 547.000 636.992,547.000 637.000,551.382 645.189 C 553.792 649.694,558.894 656.126,562.718 659.484 C 570.732 666.521,769.451 786.212,783.262 792.322 C 800.269 799.845,818.954 792.977,827.500 776.060 C 829.975 771.161,832.000 763.707,832.000 759.497 C 832.000 749.810,825.825 737.572,818.197 732.140 C 814.956 729.832,769.260 702.362,716.652 671.096 L 621.000 614.248 620.000 494.624 C 619.029 378.463,618.881 374.797,614.889 368.001 C 606.314 353.405,582.320 347.254,566.142 355.503 M102.991 655.500 C 103.482 658.525,104.888 667.750,106.118 676.000 C 117.980 755.607,150.094 831.995,199.696 898.593 L 212.799 916.187 248.555 880.431 L 284.310 844.676 273.304 829.334 C 250.111 797.009,232.596 761.791,219.384 720.917 C 212.483 699.569,204.000 662.771,204.000 654.186 C 204.000 650.048,203.421 650.000,153.050 650.000 L 102.100 650.000 102.991 655.500 M319.285 951.714 L 283.829 987.212 301.414 1000.310 C 372.192 1053.025,456.445 1086.522,543.500 1096.558 L 550.000 1097.307 550.000 1046.884 L 550.000 996.461 538.500 995.051 C 518.666 992.621,475.044 980.525,451.556 970.943 C 423.804 959.622,400.634 947.266,377.091 931.236 C 367.208 924.506,358.136 918.374,356.932 917.608 C 355.661 916.800,339.867 931.108,319.285 951.714 " fill="#1D1E23" stroke="none" fill-rule="evenodd"></path></svg>