<svg width="1200" height="1200" viewBox="0 0 1200 1200" fill="none" xmlns="http://www.w3.org/2000/svg"><path d="M554.273 102.069 C 398.160 117.159,260.373 202.186,175.186 336.000 C 159.234 361.058,136.757 409.284,126.142 441.230 C 91.501 545.477,91.501 654.523,126.142 758.770 C 150.487 832.034,190.954 897.156,246.899 953.101 C 323.819 1030.021,420.445 1078.815,528.000 1095.049 C 556.175 1099.302,622.228 1101.250,633.526 1098.162 C 665.937 1089.303,675.911 1045.172,651.489 1018.678 C 637.154 1003.126,632.002 1001.493,592.000 999.828 C 526.159 997.088,474.840 984.388,421.000 957.511 C 383.294 938.688,354.021 917.795,322.290 887.060 C 286.688 852.575,262.768 819.662,240.851 775.000 C 165.023 620.483,197.577 433.947,321.320 313.909 C 355.378 280.871,382.746 261.586,425.000 240.851 C 565.262 172.018,736.187 192.515,855.000 292.416 C 901.025 331.114,933.228 372.104,959.161 425.000 C 986.084 479.913,999.947 540.650,1000.018 604.000 C 1000.042 625.815,1004.349 637.993,1016.197 649.752 C 1037.146 670.542,1071.053 670.274,1089.580 649.172 C 1098.115 639.452,1099.977 631.007,1099.982 602.000 C 1100.025 352.981,919.318 142.811,673.350 105.808 C 642.882 101.224,582.596 99.331,554.273 102.069 M566.142 355.503 C 562.370 357.426,556.520 362.459,553.142 366.686 L 547.000 374.372 547.000 505.686 C 547.000 636.992,547.000 637.000,551.382 645.189 C 553.792 649.694,558.887 656.120,562.703 659.471 C 566.519 662.822,603.543 685.914,644.977 710.788 L 720.312 756.012 738.290 738.034 C 748.179 728.146,760.258 717.190,765.134 713.689 C 770.010 710.187,773.983 706.799,773.962 706.161 C 773.942 705.522,739.517 684.577,697.462 659.615 L 621.000 614.230 620.000 494.615 C 619.029 378.463,618.881 374.797,614.889 368.001 C 606.314 353.405,582.320 347.254,566.142 355.503 M925.000 701.256 C 855.845 708.764,790.896 745.687,749.598 800.969 C 734.120 821.688,715.454 859.883,709.022 884.000 C 693.730 941.335,699.094 1003.400,723.818 1055.186 C 737.530 1083.908,751.784 1104.149,773.818 1126.182 C 859.281 1211.646,989.753 1223.885,1091.186 1155.955 C 1111.456 1142.380,1142.380 1111.456,1155.955 1091.186 C 1214.164 1004.269,1214.164 895.731,1155.955 808.814 C 1142.578 788.839,1111.538 757.674,1091.984 744.584 C 1049.820 716.358,1008.207 702.787,959.000 701.217 C 944.700 700.760,929.400 700.778,925.000 701.256 M1089.191 855.808 C 1098.302 859.945,1105.594 869.948,1107.339 880.701 C 1109.878 896.348,1108.594 897.903,1018.259 988.608 C 971.367 1035.693,930.300 1075.892,927.000 1077.940 C 918.438 1083.255,908.004 1084.692,897.818 1081.961 C 890.197 1079.917,882.926 1073.582,844.262 1035.298 C 789.712 981.285,785.730 974.486,796.605 953.920 C 804.227 939.507,822.311 932.488,837.370 938.097 C 840.466 939.251,857.628 954.769,875.506 972.581 L 908.013 1004.967 982.506 930.564 C 1023.478 889.642,1059.250 855.282,1062.000 854.207 C 1069.845 851.142,1080.269 851.756,1089.191 855.808 " fill="#1D1E23" stroke="none" fill-rule="evenodd"></path></svg>