<svg width="1200" height="1200" viewBox="0 0 1200 1200" fill="none" xmlns="http://www.w3.org/2000/svg"><path d="M564.000 101.343 C 559.050 101.697,544.650 103.398,532.000 105.123 C 422.908 120.002,326.169 167.976,247.923 246.000 C 168.403 325.295,122.278 417.402,104.701 532.000 C 99.785 564.052,99.785 635.948,104.701 668.000 C 116.711 746.301,140.912 810.906,181.493 873.000 C 202.215 904.707,218.858 925.013,247.923 954.052 C 326.794 1032.852,425.009 1080.829,539.000 1096.241 C 559.150 1098.965,628.018 1099.834,636.463 1097.471 C 644.215 1095.302,655.516 1084.789,660.412 1075.193 C 665.510 1065.200,666.032 1044.548,661.462 1033.721 C 657.262 1023.772,644.960 1010.584,635.136 1005.498 C 628.200 1001.906,621.840 1001.067,592.000 999.807 C 524.798 996.968,474.895 984.620,421.000 957.495 C 341.484 917.474,278.633 853.617,239.976 773.574 C 186.716 663.292,186.740 536.658,240.042 426.291 C 261.236 382.406,286.510 347.570,322.280 312.940 C 355.725 280.561,385.312 259.832,426.426 239.976 C 562.949 174.043,723.352 190.804,845.000 283.715 C 861.971 296.677,896.256 330.296,910.558 348.000 C 945.699 391.499,973.102 445.553,986.739 498.271 C 994.644 528.830,998.284 554.896,999.828 592.000 C 1001.071 621.869,1001.903 628.193,1005.498 635.136 C 1010.584 644.960,1023.772 657.262,1033.721 661.462 C 1044.548 666.032,1065.200 665.510,1075.193 660.412 C 1084.789 655.516,1095.302 644.215,1097.471 636.463 C 1100.312 626.312,1098.750 556.261,1095.141 532.000 C 1072.046 376.729,988.084 250.661,854.000 169.930 C 770.017 119.364,663.669 94.212,564.000 101.343 M565.000 355.741 C 557.036 360.688,550.748 367.730,548.133 374.630 C 544.946 383.043,545.200 627.866,548.408 638.572 C 553.175 654.482,564.301 662.835,644.680 710.841 L 720.359 756.041 737.116 739.284 C 746.332 730.068,758.401 719.074,763.936 714.853 C 769.471 710.632,773.997 706.688,773.993 706.089 C 773.989 705.490,739.805 684.750,698.028 660.000 L 622.069 615.000 622.034 502.598 C 621.999 386.032,621.312 374.750,613.663 365.025 C 603.847 352.547,578.064 347.628,565.000 355.741 M806.485 768.514 C 763.058 811.967,756.000 819.864,756.000 825.000 C 756.000 830.136,763.058 838.033,806.485 881.486 C 859.643 934.674,862.845 937.011,870.690 928.343 C 873.474 925.267,874.000 919.700,874.000 893.343 L 874.000 862.000 997.369 862.000 C 1118.998 862.000,1120.861 861.940,1129.501 857.758 C 1142.491 851.469,1149.000 840.534,1149.000 825.000 C 1149.000 809.466,1142.491 798.531,1129.501 792.242 C 1120.861 788.060,1118.998 788.000,997.369 788.000 L 874.000 788.000 874.000 756.310 C 874.000 728.149,873.593 724.251,870.343 721.310 C 861.961 713.725,859.212 715.758,806.485 768.514 M1030.000 934.000 C 1026.344 937.656,1026.000 940.667,1026.000 969.000 L 1026.000 1000.000 903.500 1000.044 C 788.679 1000.085,780.498 1000.319,773.000 1003.780 C 744.686 1016.848,742.363 1055.089,768.995 1069.705 C 774.333 1072.634,788.889 1073.111,900.000 1074.000 L 1025.000 1075.000 1025.554 1105.902 C 1026.006 1131.099,1026.710 1137.469,1029.364 1140.402 C 1037.148 1149.004,1040.421 1146.610,1093.515 1093.486 C 1136.831 1050.144,1144.000 1042.127,1144.000 1037.029 C 1144.000 1031.930,1136.831 1023.918,1093.456 980.544 C 1040.586 927.673,1038.129 925.871,1030.000 934.000 " fill="#1D1E23" stroke="none" fill-rule="evenodd"></path></svg>