<svg width="1200" height="1200" viewBox="0 0 1200 1200" fill="none" xmlns="http://www.w3.org/2000/svg"><path d="M565.000 101.199 C 510.546 106.765,462.206 117.544,423.074 132.845 C 184.501 226.128,53.758 475.862,115.158 721.000 C 159.715 898.894,301.106 1040.285,479.000 1084.842 C 552.654 1103.290,632.796 1104.682,704.838 1088.765 C 898.675 1045.938,1049.225 893.844,1089.656 700.000 C 1097.320 663.256,1098.955 645.677,1098.955 600.000 C 1098.955 554.323,1097.320 536.744,1089.656 500.000 C 1069.627 403.973,1023.163 317.856,953.887 248.366 C 877.356 171.600,779.313 121.744,673.617 105.847 C 648.168 102.019,583.887 99.269,565.000 101.199 M624.000 479.710 L 624.000 609.419 733.500 675.031 C 793.725 711.117,844.512 741.664,846.361 742.912 C 849.354 744.933,847.641 748.565,830.716 776.091 C 820.263 793.091,811.101 807.598,810.355 808.330 C 809.610 809.061,750.950 773.904,680.000 730.203 L 551.000 650.747 550.487 500.373 L 549.975 350.000 586.987 350.000 L 624.000 350.000 624.000 479.710 " fill="#1D1E23" stroke="none" fill-rule="evenodd"></path></svg>