<svg width="1200" height="1200" viewBox="0 0 1200 1200" fill="none" xmlns="http://www.w3.org/2000/svg"><path d="M229.020 202.335 C 192.911 209.278,159.963 242.420,152.210 279.598 C 149.091 294.557,149.091 905.443,152.210 920.402 C 160.026 957.883,192.117 989.974,229.598 997.790 C 244.585 1000.915,955.415 1000.915,970.402 997.790 C 1007.883 989.974,1039.974 957.883,1047.790 920.402 C 1050.909 905.443,1050.909 294.557,1047.790 279.598 C 1040.894 246.531,1017.041 219.355,983.000 205.784 L 971.000 201.000 605.000 200.708 C 378.291 200.527,235.202 201.146,229.020 202.335 M517.009 453.312 C 530.500 457.909,542.861 470.688,546.868 484.178 C 548.716 490.403,550.000 502.242,550.000 513.067 C 550.000 528.847,549.363 532.353,545.440 538.175 C 542.932 541.897,538.657 546.067,535.940 547.441 C 529.064 550.920,497.619 550.730,489.069 547.158 C 482.468 544.399,476.000 535.463,476.000 529.099 C 476.000 526.381,469.724 526.000,424.976 526.000 L 373.951 526.000 374.476 600.500 L 375.000 675.000 424.549 675.535 C 470.449 676.031,474.179 675.810,475.195 672.535 C 480.934 654.038,487.690 650.000,512.902 650.000 C 542.688 650.000,549.980 657.301,549.993 687.137 C 550.003 711.422,546.117 723.988,535.233 734.873 C 520.326 749.779,518.715 750.000,425.000 750.000 C 331.474 750.000,329.646 749.752,314.947 735.053 C 299.842 719.947,300.000 721.375,300.000 600.000 C 300.000 478.583,299.836 480.058,314.983 464.911 C 329.446 450.449,330.279 450.336,424.144 450.158 C 496.565 450.020,508.541 450.427,517.009 453.312 M867.009 453.312 C 880.500 457.909,892.861 470.688,896.868 484.178 C 898.716 490.403,900.000 502.242,900.000 513.067 C 900.000 528.847,899.363 532.353,895.440 538.175 C 892.932 541.897,888.657 546.067,885.940 547.441 C 879.064 550.920,847.619 550.730,839.069 547.158 C 832.468 544.399,826.000 535.463,826.000 529.099 C 826.000 526.381,819.724 526.000,774.976 526.000 L 723.951 526.000 724.476 600.500 L 725.000 675.000 774.549 675.535 C 820.449 676.031,824.179 675.810,825.195 672.535 C 830.934 654.038,837.690 650.000,862.902 650.000 C 892.688 650.000,899.980 657.301,899.993 687.137 C 900.003 711.422,896.117 723.988,885.233 734.873 C 870.326 749.779,868.715 750.000,775.000 750.000 C 681.474 750.000,679.646 749.752,664.947 735.053 C 649.842 719.947,650.000 721.375,650.000 600.000 C 650.000 478.583,649.836 480.058,664.983 464.911 C 679.446 450.449,680.279 450.336,774.144 450.158 C 846.565 450.020,858.541 450.427,867.009 453.312 " fill="#1D1E23" stroke="none" fill-rule="evenodd"></path></svg>