<svg width="1200" height="1200" viewBox="0 0 1200 1200" fill="none" xmlns="http://www.w3.org/2000/svg"><path d="M309.000 271.775 C 299.673 274.194,291.573 279.049,284.724 286.329 C 271.287 300.611,267.502 316.286,272.924 335.196 C 276.299 346.966,276.673 347.365,402.618 473.500 L 528.927 600.000 402.618 726.500 C 276.673 852.635,276.299 853.034,272.924 864.804 C 267.364 884.197,272.053 901.857,286.325 915.276 C 300.618 928.714,316.287 932.498,335.196 927.076 C 346.966 923.701,347.365 923.327,473.500 797.382 L 600.000 671.073 726.500 797.382 C 852.635 923.327,853.034 923.701,864.804 927.076 C 884.197 932.636,901.857 927.947,915.276 913.675 C 928.714 899.382,932.498 883.713,927.076 864.804 C 923.701 853.034,923.327 852.635,797.375 726.493 L 671.058 599.985 795.333 475.493 C 874.919 395.767,921.031 348.123,923.564 343.000 C 936.025 317.803,926.133 288.167,901.241 276.117 C 889.793 270.575,870.301 270.594,858.000 276.160 C 851.135 279.266,819.459 309.733,724.485 404.579 L 599.970 528.926 475.485 404.659 C 394.255 323.571,348.147 278.971,342.790 276.303 C 333.353 271.604,317.734 269.511,309.000 271.775 " fill="#1D1E23" stroke="none" fill-rule="evenodd"></path></svg>