<svg width="1200" height="1200" viewBox="0 0 1200 1200" fill="none" xmlns="http://www.w3.org/2000/svg"><path d="M150.000 600.000 L 150.000 1000.000 600.000 1000.000 L 1050.000 1000.000 1050.000 600.000 L 1050.000 200.000 600.000 200.000 L 150.000 200.000 150.000 600.000 M550.000 500.000 L 550.000 550.000 513.000 550.000 L 476.000 550.000 476.000 538.000 L 476.000 526.000 424.976 526.000 L 373.951 526.000 374.476 600.500 L 375.000 675.000 425.000 675.000 L 475.000 675.000 475.595 662.500 L 476.191 650.000 513.095 650.000 L 550.000 650.000 550.000 700.000 L 550.000 750.000 425.000 750.000 L 300.000 750.000 300.000 600.000 L 300.000 450.000 425.000 450.000 L 550.000 450.000 550.000 500.000 M900.000 500.000 L 900.000 550.000 863.000 550.000 L 826.000 550.000 826.000 538.000 L 826.000 526.000 774.976 526.000 L 723.951 526.000 724.476 600.500 L 725.000 675.000 775.000 675.000 L 825.000 675.000 825.595 662.500 L 826.191 650.000 863.095 650.000 L 900.000 650.000 900.000 700.000 L 900.000 750.000 775.000 750.000 L 650.000 750.000 650.000 600.000 L 650.000 450.000 775.000 450.000 L 900.000 450.000 900.000 500.000 " fill="#1D1E23" stroke="none" fill-rule="evenodd"></path></svg>