<svg width="1200" height="1200" viewBox="0 0 1200 1200" fill="none" xmlns="http://www.w3.org/2000/svg"><path d="M584.000 301.414 C 579.050 301.808,565.070 303.873,552.934 306.004 C 454.251 323.330,370.741 378.819,318.599 461.709 L 306.830 480.418 284.915 486.018 C 206.711 506.002,144.158 559.637,116.036 630.822 C 92.058 691.518,95.403 757.256,125.513 817.055 C 153.916 873.463,211.704 920.596,275.000 938.981 C 314.299 950.395,306.349 950.156,624.554 949.495 L 917.000 948.887 936.342 943.497 C 1002.282 925.125,1051.791 886.033,1078.948 830.895 C 1098.103 792.006,1104.453 746.437,1096.238 706.818 C 1081.462 635.551,1033.056 579.000,963.748 552.034 L 949.831 546.619 942.239 524.690 C 913.891 442.804,851.384 374.062,770.000 335.271 C 712.357 307.795,648.937 296.251,584.000 301.414 M514.121 587.879 L 491.242 609.567 464.121 610.480 C 433.285 611.517,426.764 613.527,412.970 626.241 C 398.246 639.814,397.000 645.566,397.000 700.000 C 397.000 739.440,397.532 748.171,400.306 754.279 C 405.169 764.989,416.817 776.969,427.559 782.307 C 436.972 786.986,437.227 787.000,514.000 787.000 C 590.305 787.000,591.084 786.959,600.337 782.400 C 605.472 779.871,613.287 773.881,617.703 769.090 C 630.599 755.100,632.000 747.313,632.000 689.637 L 632.000 640.000 655.000 640.000 L 678.000 640.000 678.000 691.902 C 678.000 749.893,676.831 758.720,666.531 778.505 C 653.583 803.374,628.767 822.094,599.648 828.959 C 581.285 833.288,446.713 833.288,428.350 828.959 C 391.108 820.179,362.380 792.689,353.062 756.917 C 349.325 742.567,348.713 660.343,352.219 643.598 C 357.666 617.587,379.935 589.423,404.511 577.467 C 424.588 567.699,434.716 566.339,488.000 566.262 L 537.000 566.191 514.121 587.879 M771.650 569.041 C 809.395 577.940,840.388 608.292,847.781 643.598 C 851.287 660.343,850.675 742.567,846.938 756.917 C 840.003 783.542,818.946 809.585,795.314 820.765 C 774.968 830.390,763.147 831.947,711.000 831.870 L 663.000 831.799 685.801 810.118 L 708.602 788.437 735.801 787.588 C 767.171 786.609,776.646 783.411,789.136 769.586 C 802.525 754.766,803.000 752.383,803.000 700.000 C 803.000 645.566,801.754 639.814,787.030 626.241 C 770.098 610.634,772.524 611.000,686.000 611.000 C 609.695 611.000,608.916 611.041,599.663 615.600 C 594.528 618.129,586.713 624.119,582.297 628.910 C 569.401 642.900,568.000 650.687,568.000 708.363 L 568.000 758.000 545.000 758.000 L 522.000 758.000 522.000 706.098 C 522.000 675.613,522.920 649.824,524.229 643.598 C 531.949 606.893,560.699 578.594,600.000 569.015 C 616.726 564.937,754.333 564.959,771.650 569.041 " fill="#1D1E23" stroke="none" fill-rule="evenodd"></path></svg>