<svg width="1200" height="1200" viewBox="0 0 1200 1200" fill="none" xmlns="http://www.w3.org/2000/svg"><path d="M184.484 228.516 L 150.010 263.032 219.029 332.016 L 288.049 401.000 270.525 402.323 C 185.255 408.760,100.247 459.375,51.053 533.000 C 29.527 565.217,14.525 600.982,5.549 641.483 C -0.709 669.717,-0.660 730.101,5.643 758.681 C 25.792 850.041,81.795 924.210,162.047 965.822 C 187.526 979.034,211.520 987.713,241.319 994.496 L 261.000 998.977 574.000 999.525 L 887.000 1000.074 937.018 1050.041 L 987.036 1100.007 1022.006 1064.994 L 1056.977 1029.980 638.990 611.990 C 409.098 382.096,220.543 194.000,219.980 194.000 C 219.418 194.000,203.444 209.532,184.484 228.516 M562.000 202.205 C 519.758 206.955,479.469 218.504,440.465 237.043 L 417.161 248.121 454.081 285.158 C 482.601 313.770,491.910 321.980,495.000 321.249 C 497.200 320.728,506.778 317.582,516.284 314.256 C 544.859 304.260,565.076 301.143,601.000 301.196 C 648.166 301.264,682.541 309.182,722.248 329.125 C 751.617 343.875,769.199 356.757,794.115 381.783 C 818.935 406.712,832.995 426.166,847.033 455.000 C 865.284 492.490,871.898 520.402,873.407 566.306 L 874.502 599.612 925.751 600.541 C 979.347 601.512,984.857 602.284,1008.000 612.062 C 1051.181 630.305,1084.446 669.514,1096.181 716.000 C 1099.722 730.027,1099.789 769.565,1096.296 784.000 C 1094.832 790.050,1089.181 804.266,1083.737 815.591 C 1075.403 832.930,1071.170 838.931,1056.930 853.591 L 1040.020 871.000 1074.990 905.973 L 1109.960 940.946 1125.997 925.003 C 1193.742 857.655,1217.076 760.406,1186.993 670.789 C 1158.634 586.310,1080.516 519.250,994.950 505.929 C 965.506 501.346,968.174 503.263,962.969 482.946 C 923.513 328.953,794.581 218.108,636.288 202.095 C 612.654 199.704,583.866 199.747,562.000 202.205 M587.004 700.031 L 787.000 900.061 528.000 899.530 L 269.000 898.999 249.761 893.681 C 202.256 880.549,161.950 852.213,135.617 813.435 C 123.530 795.637,110.673 767.053,105.680 746.880 C 99.756 722.943,99.302 680.522,104.719 657.000 C 123.894 573.732,192.313 511.916,277.000 501.348 C 280.300 500.936,306.402 500.464,335.004 500.300 L 387.008 500.000 587.004 700.031 " fill="#1D1E23" stroke="none" fill-rule="evenodd"></path></svg>