<svg width="1200" height="1200" viewBox="0 0 1200 1200" fill="none" xmlns="http://www.w3.org/2000/svg"><path d="M560.214 202.286 C 443.920 214.442,332.810 286.237,276.909 385.345 L 267.690 401.691 253.345 403.992 C 129.042 423.931,33.462 515.537,5.549 641.483 C -0.709 669.717,-0.660 730.101,5.643 758.681 C 12.105 787.979,20.826 812.204,34.181 837.953 C 76.524 919.590,151.396 975.236,246.000 995.380 C 262.047 998.797,283.232 999.000,624.000 999.000 L 985.000 999.000 1006.548 993.527 C 1056.237 980.906,1095.707 958.416,1129.181 923.651 C 1162.074 889.488,1181.633 853.839,1193.429 806.548 C 1198.141 787.657,1198.816 780.931,1198.902 752.000 C 1199.039 705.887,1192.413 676.551,1173.317 638.722 C 1138.207 569.171,1068.677 517.406,994.950 505.929 C 965.506 501.346,968.174 503.263,962.969 482.946 C 916.557 301.804,745.894 182.877,560.214 202.286 M665.515 685.485 L 501.013 849.996 413.506 762.506 L 325.999 675.016 360.996 640.019 L 395.993 605.021 448.003 657.003 L 500.012 708.984 629.495 579.501 L 758.978 450.018 794.497 485.496 L 830.016 520.975 665.515 685.485 " fill="#1D1E23" stroke="none" fill-rule="evenodd"></path></svg>