<svg width="1200" height="1200" viewBox="0 0 1200 1200" fill="none" xmlns="http://www.w3.org/2000/svg"><path d="M560.214 202.286 C 443.920 214.442,332.810 286.237,276.909 385.345 L 267.690 401.691 253.345 403.992 C 129.042 423.931,33.462 515.537,5.549 641.483 C -0.709 669.717,-0.660 730.101,5.643 758.681 C 12.105 787.979,20.826 812.204,34.181 837.953 C 76.524 919.590,151.396 975.236,246.000 995.380 C 262.047 998.797,283.232 999.000,624.000 999.000 L 985.000 999.000 1006.548 993.527 C 1056.237 980.906,1095.707 958.416,1129.181 923.651 C 1162.074 889.488,1181.633 853.839,1193.429 806.548 C 1198.141 787.657,1198.816 780.931,1198.902 752.000 C 1199.039 705.887,1192.413 676.551,1173.317 638.722 C 1138.207 569.171,1068.677 517.406,994.950 505.929 C 965.506 501.346,968.174 503.263,962.969 482.946 C 916.557 301.804,745.894 182.877,560.214 202.286 M651.632 305.009 C 686.849 311.774,724.249 327.377,755.970 348.539 C 775.788 361.760,814.484 400.824,827.750 421.000 C 840.672 440.654,854.161 468.046,860.744 488.000 C 869.480 514.478,872.270 531.737,873.407 566.306 L 874.502 599.612 925.751 600.541 C 962.960 601.215,979.739 602.284,987.000 604.442 C 1034.435 618.541,1070.043 649.659,1088.338 693.000 C 1096.534 712.415,1098.958 725.425,1098.958 750.000 C 1098.958 763.008,1097.751 777.779,1096.181 784.000 C 1084.353 830.851,1050.277 870.929,1007.451 888.357 C 977.034 900.736,996.748 900.174,615.000 899.531 L 267.000 898.944 248.105 893.405 C 175.093 872.001,121.393 815.667,104.736 743.000 C 99.698 721.025,99.698 678.975,104.736 657.000 C 117.070 603.192,151.245 555.887,197.292 528.883 C 231.756 508.672,255.957 502.151,302.322 500.584 L 335.644 499.457 340.060 486.229 C 361.629 421.630,412.077 363.211,473.803 331.355 C 506.135 314.669,532.541 306.366,567.218 301.982 C 586.388 299.558,631.716 301.184,651.632 305.009 " fill="#1D1E23" stroke="none" fill-rule="evenodd"></path></svg>