<svg width="1200" height="1200" viewBox="0 0 1200 1200" fill="none" xmlns="http://www.w3.org/2000/svg"><path d="M560.214 202.286 C 443.920 214.442,332.810 286.237,276.909 385.345 L 267.690 401.691 253.345 403.992 C 129.042 423.931,33.462 515.537,5.549 641.483 C -0.709 669.717,-0.660 730.101,5.643 758.681 C 12.105 787.979,20.826 812.204,34.181 837.953 C 76.524 919.590,151.396 975.236,246.000 995.380 C 262.047 998.797,283.232 999.000,624.000 999.000 L 985.000 999.000 1006.548 993.527 C 1056.237 980.906,1095.707 958.416,1129.181 923.651 C 1162.074 889.488,1181.633 853.839,1193.429 806.548 C 1198.141 787.657,1198.816 780.931,1198.902 752.000 C 1199.039 705.887,1192.413 676.551,1173.317 638.722 C 1138.207 569.171,1068.677 517.406,994.950 505.929 C 965.506 501.346,968.174 503.263,962.969 482.946 C 916.557 301.804,745.894 182.877,560.214 202.286 M781.837 475.917 C 790.700 480.438,801.369 492.000,805.250 501.290 C 809.361 511.129,808.672 531.313,803.860 542.000 C 800.747 548.913,768.646 582.164,665.404 685.415 C 519.910 830.920,522.463 828.695,500.911 828.805 C 480.321 828.911,477.869 827.035,411.609 760.496 C 343.931 692.533,344.682 693.580,346.411 669.677 C 347.500 654.617,355.735 641.189,368.858 633.076 C 376.816 628.156,381.255 626.913,392.988 626.321 C 414.216 625.249,418.879 628.291,462.490 671.659 L 499.980 708.941 616.490 592.630 C 723.975 485.328,733.775 476.076,743.000 473.188 C 755.176 469.375,771.225 470.503,781.837 475.917 " fill="#1D1E23" stroke="none" fill-rule="evenodd"></path></svg>