<svg width="1200" height="1200" viewBox="0 0 1200 1200" fill="none" xmlns="http://www.w3.org/2000/svg"><path d="M562.000 202.205 C 519.758 206.955,479.469 218.504,440.465 237.043 L 417.161 248.121 454.081 285.158 C 482.601 313.770,491.910 321.980,495.000 321.249 C 497.200 320.728,506.778 317.582,516.284 314.256 C 544.859 304.260,565.076 301.143,601.000 301.196 C 648.166 301.264,682.541 309.182,722.248 329.125 C 751.617 343.875,769.199 356.757,794.115 381.783 C 818.935 406.712,832.995 426.166,847.033 455.000 C 865.284 492.490,871.898 520.402,873.407 566.306 L 874.502 599.612 925.751 600.541 C 979.347 601.512,984.857 602.284,1008.000 612.062 C 1051.181 630.305,1084.446 669.514,1096.181 716.000 C 1099.722 730.027,1099.789 769.565,1096.296 784.000 C 1094.832 790.050,1089.181 804.266,1083.737 815.591 C 1075.403 832.930,1071.170 838.931,1056.930 853.591 L 1040.020 871.000 1074.990 905.973 L 1109.960 940.946 1125.997 925.003 C 1193.742 857.655,1217.076 760.406,1186.993 670.789 C 1158.634 586.310,1080.516 519.250,994.950 505.929 C 965.506 501.346,968.174 503.263,962.969 482.946 C 923.525 328.998,794.534 218.103,636.288 202.095 C 612.654 199.704,583.866 199.747,562.000 202.205 M198.337 219.207 C 181.867 227.414,171.417 243.943,171.281 262.000 C 171.120 283.305,171.870 284.326,232.373 345.192 L 288.230 401.384 267.615 402.590 C 242.723 404.046,215.120 410.819,186.188 422.572 C 104.762 455.649,40.832 524.779,14.198 608.553 C 3.769 641.356,1.044 660.698,1.176 701.000 C 1.270 730.041,2.131 740.906,5.625 757.208 C 17.930 814.614,42.076 861.008,80.642 901.348 C 124.918 947.662,181.902 979.131,249.000 994.322 L 269.000 998.850 577.988 999.480 L 886.976 1000.110 923.988 1036.807 C 950.501 1063.094,962.986 1074.101,968.000 1075.609 C 982.744 1080.043,988.036 1080.274,999.467 1076.979 C 1008.526 1074.369,1013.154 1071.440,1021.042 1063.328 C 1036.684 1047.241,1040.271 1028.028,1031.186 1009.000 C 1027.300 1000.860,953.758 926.414,635.706 608.659 C 295.247 268.517,243.971 218.041,237.000 216.170 C 223.142 212.450,209.792 213.499,198.337 219.207 M587.004 700.035 L 787.000 900.070 527.000 899.494 L 267.000 898.918 248.105 893.392 C 175.145 872.054,121.394 815.671,104.736 743.000 C 99.698 721.025,99.698 678.975,104.736 657.000 C 123.804 573.818,192.312 511.917,277.000 501.348 C 280.300 500.936,306.402 500.464,335.004 500.300 L 387.008 500.000 587.004 700.035 " fill="#1D1E23" stroke="none" fill-rule="evenodd"></path></svg>