<svg width="1200" height="1200" viewBox="0 0 1200 1200" fill="none" xmlns="http://www.w3.org/2000/svg"><path d="M369.000 21.760 C 359.018 24.373,351.071 29.330,343.591 37.609 C 335.101 47.007,331.246 57.434,331.246 71.000 C 331.247 89.733,336.156 96.592,384.400 145.270 L 428.831 190.100 295.509 323.550 C 142.851 476.355,151.154 466.209,151.056 500.042 C 150.956 534.010,141.790 523.023,311.409 692.259 C 451.518 832.052,459.608 839.753,471.000 844.163 C 487.781 850.659,512.219 850.659,529.000 844.163 C 540.392 839.753,548.482 832.052,688.591 692.259 C 858.210 523.023,849.044 534.010,848.944 500.042 C 848.843 465.442,866.974 486.162,624.415 243.452 C 477.484 96.429,408.424 28.653,402.730 25.885 C 393.344 21.324,377.890 19.434,369.000 21.760 M620.000 381.000 L 738.987 500.000 500.000 500.000 L 261.013 500.000 380.000 381.000 C 445.443 315.550,499.443 262.000,500.000 262.000 C 500.557 262.000,554.557 315.550,620.000 381.000 M935.673 591.500 C 884.473 652.712,854.141 706.890,850.632 743.400 C 845.332 798.554,893.288 850.000,950.000 850.000 C 1006.712 850.000,1054.668 798.554,1049.368 743.400 C 1046.542 713.993,1026.506 673.166,992.391 627.300 C 974.761 603.598,951.956 576.000,950.000 576.000 C 949.251 576.000,942.804 582.975,935.673 591.500 M184.000 1001.326 C 173.657 1002.999,154.635 1010.764,144.526 1017.438 C 117.393 1035.355,100.000 1067.605,100.000 1100.000 C 100.000 1146.006,134.495 1188.384,179.598 1197.790 C 194.606 1200.919,1005.394 1200.919,1020.402 1197.790 C 1057.883 1189.974,1089.974 1157.883,1097.790 1120.402 C 1107.933 1071.760,1081.589 1025.155,1033.000 1005.784 L 1021.000 1001.000 605.000 1000.758 C 376.200 1000.626,186.750 1000.881,184.000 1001.326 " fill="#1D1E23" stroke="none" fill-rule="evenodd"></path></svg>