<svg width="1200" height="1200" viewBox="0 0 1200 1200" fill="none" xmlns="http://www.w3.org/2000/svg"><path d="M346.002 34.998 L 311.026 70.017 370.513 129.504 L 429.999 188.991 274.503 344.497 L 119.006 500.003 309.503 690.500 L 500.000 880.997 690.499 690.499 L 880.998 500.000 630.988 249.990 L 380.978 -0.020 346.002 34.998 M620.000 381.000 L 738.987 500.000 500.000 500.000 L 261.013 500.000 380.000 381.000 C 445.443 315.550,499.443 262.000,500.000 262.000 C 500.557 262.000,554.557 315.550,620.000 381.000 M935.673 591.500 C 884.473 652.712,854.141 706.890,850.632 743.400 C 845.332 798.554,893.288 850.000,950.000 850.000 C 1006.712 850.000,1054.668 798.554,1049.368 743.400 C 1046.542 713.993,1026.506 673.166,992.391 627.300 C 974.761 603.598,951.956 576.000,950.000 576.000 C 949.251 576.000,942.804 582.975,935.673 591.500 M100.000 1100.000 L 100.000 1200.000 600.000 1200.000 L 1100.000 1200.000 1100.000 1100.000 L 1100.000 1000.000 600.000 1000.000 L 100.000 1000.000 100.000 1100.000 " fill="#1D1E23" stroke="none" fill-rule="evenodd"></path></svg>