<svg width="1200" height="1200" viewBox="0 0 1200 1200" fill="none" xmlns="http://www.w3.org/2000/svg"><path d="M184.000 51.340 C 173.722 52.974,154.657 60.749,144.526 67.438 C 123.539 81.296,107.312 105.132,102.210 129.598 C 100.645 137.105,100.000 243.726,100.000 495.098 L 100.000 850.000 150.000 850.000 L 200.000 850.000 200.000 500.000 L 200.000 150.000 500.000 150.000 L 800.000 150.000 800.000 100.000 L 800.000 50.000 494.500 50.272 C 326.475 50.422,186.750 50.902,184.000 51.340 M384.000 251.320 C 373.631 253.009,354.626 260.770,344.526 267.438 C 323.539 281.296,307.312 305.132,302.210 329.598 C 299.085 344.585,299.085 1055.415,302.210 1070.402 C 310.026 1107.883,342.117 1139.974,379.598 1147.790 C 394.540 1150.906,955.460 1150.906,970.402 1147.790 C 1007.883 1139.974,1039.974 1107.883,1047.790 1070.402 C 1050.915 1055.415,1050.915 344.585,1047.790 329.598 C 1040.894 296.531,1017.041 269.355,983.000 255.784 L 971.000 251.000 680.000 250.753 C 519.950 250.617,386.750 250.872,384.000 251.320 M950.000 700.000 L 950.000 1050.000 675.000 1050.000 L 400.000 1050.000 400.000 700.000 L 400.000 350.000 675.000 350.000 L 950.000 350.000 950.000 700.000 " fill="#1D1E23" stroke="none" fill-rule="evenodd"></path></svg>