<svg width="1200" height="1200" viewBox="0 0 1200 1200" fill="none" xmlns="http://www.w3.org/2000/svg"><path d="M100.000 450.000 L 100.000 850.000 150.000 850.000 L 200.000 850.000 200.000 500.000 L 200.000 150.000 500.000 150.000 L 800.000 150.000 800.000 100.000 L 800.000 50.000 450.000 50.000 L 100.000 50.000 100.000 450.000 M300.000 700.000 L 300.000 1150.000 675.000 1150.000 L 1050.000 1150.000 1050.000 700.000 L 1050.000 250.000 675.000 250.000 L 300.000 250.000 300.000 700.000 M950.000 700.000 L 950.000 1050.000 675.000 1050.000 L 400.000 1050.000 400.000 700.000 L 400.000 350.000 675.000 350.000 L 950.000 350.000 950.000 700.000 " fill="#1D1E23" stroke="none" fill-rule="evenodd"></path></svg>