<svg width="1200" height="1200" viewBox="0 0 1200 1200" fill="none" xmlns="http://www.w3.org/2000/svg"><path d="M556.000 101.962 C 416.815 115.884,295.232 181.194,209.663 288.000 C 73.683 457.729,63.352 695.839,184.124 876.644 C 338.485 1107.735,647.309 1169.297,878.000 1014.964 C 1107.746 861.264,1168.863 552.043,1014.964 322.000 C 936.423 204.599,815.946 128.109,674.644 105.934 C 645.457 101.354,582.987 99.262,556.000 101.962 M680.791 208.919 C 828.476 238.822,948.921 353.072,986.930 499.313 C 995.675 532.958,998.844 559.745,998.844 600.000 C 998.844 667.955,986.004 722.678,956.374 781.000 C 906.220 879.719,817.192 953.174,710.000 984.278 C 695.324 988.537,659.531 996.000,653.784 996.000 C 650.085 996.000,650.000 987.127,650.000 600.000 C 650.000 235.859,650.261 204.000,653.249 204.000 C 655.036 204.000,667.430 206.214,680.791 208.919 " fill="#1D1E23" stroke="none" fill-rule="evenodd"></path></svg>