<svg width="1200" height="1200" viewBox="0 0 1200 1200" fill="none" xmlns="http://www.w3.org/2000/svg"><path d="M100.000 600.000 L 100.000 1000.000 600.000 1000.000 L 1100.000 1000.000 1100.000 650.000 L 1100.000 300.000 850.485 300.000 L 600.970 300.000 551.000 250.000 L 501.030 200.000 300.515 200.000 L 100.000 200.000 100.000 600.000 M800.000 525.000 L 800.000 600.000 875.000 600.000 L 950.000 600.000 950.000 650.000 L 950.000 700.000 875.000 700.000 L 800.000 700.000 800.000 775.000 L 800.000 850.000 750.000 850.000 L 700.000 850.000 700.000 775.000 L 700.000 700.000 625.000 700.000 L 550.000 700.000 550.000 650.000 L 550.000 600.000 625.000 600.000 L 700.000 600.000 700.000 525.000 L 700.000 450.000 750.000 450.000 L 800.000 450.000 800.000 525.000 " fill="#1D1E23" stroke="none" fill-rule="evenodd"></path></svg>