<svg width="1200" height="1200" viewBox="0 0 1200 1200" fill="none" xmlns="http://www.w3.org/2000/svg"><path d="M179.020 202.313 C 152.750 207.421,123.013 230.330,111.475 254.350 C 99.515 279.250,100.062 262.722,100.030 600.402 C 100.009 818.663,100.651 912.925,102.210 920.402 C 110.026 957.883,142.117 989.974,179.598 997.790 C 194.606 1000.919,1005.394 1000.919,1020.402 997.790 C 1057.883 989.974,1089.974 957.883,1097.790 920.402 C 1100.901 905.481,1100.901 394.519,1097.790 379.598 C 1090.894 346.531,1067.041 319.355,1033.000 305.784 L 1021.000 301.000 811.093 300.447 L 601.187 299.893 563.037 262.190 C 541.703 241.105,519.248 220.841,512.092 216.216 C 487.497 200.319,496.715 201.121,334.000 200.726 C 246.930 200.514,185.013 201.148,179.020 202.313 M767.009 453.312 C 772.825 455.294,780.145 460.040,785.233 465.127 C 798.763 478.658,800.000 485.538,800.000 547.275 L 800.000 599.824 856.561 600.412 C 912.751 600.996,913.186 601.033,923.042 606.109 C 935.710 612.633,944.989 624.765,948.165 638.954 C 953.145 661.209,942.869 683.680,923.042 693.891 C 913.186 698.967,912.751 699.004,856.561 699.588 L 800.000 700.176 800.000 752.725 C 800.000 814.462,798.763 821.342,785.233 834.873 C 765.483 854.622,734.596 854.701,714.947 835.053 C 701.059 821.164,700.000 815.398,700.000 753.644 L 700.000 700.000 646.356 700.000 C 584.602 700.000,578.836 698.941,564.947 685.053 C 545.384 665.489,545.384 634.511,564.947 614.947 C 578.836 601.059,584.602 600.000,646.356 600.000 L 700.000 600.000 700.000 546.356 C 700.000 484.569,701.054 478.841,714.983 464.911 C 728.874 451.021,747.860 446.788,767.009 453.312 " fill="#1D1E23" stroke="none" fill-rule="evenodd"></path></svg>