<svg width="1200" height="1200" viewBox="0 0 1200 1200" fill="none" xmlns="http://www.w3.org/2000/svg"><path d="M179.020 202.350 C 152.857 207.340,123.025 230.306,111.475 254.350 C 99.515 279.250,100.062 262.722,100.030 600.402 C 100.009 818.663,100.651 912.925,102.210 920.402 C 110.026 957.883,142.117 989.974,179.598 997.790 C 194.606 1000.919,1005.394 1000.919,1020.402 997.790 C 1057.883 989.974,1089.974 957.883,1097.790 920.402 C 1100.909 905.443,1100.909 294.557,1097.790 279.598 C 1089.841 241.483,1056.913 209.068,1019.133 202.168 C 1003.766 199.361,193.773 199.537,179.020 202.350 M1000.000 350.000 L 1000.000 400.000 600.000 400.000 L 200.000 400.000 200.000 350.000 L 200.000 300.000 600.000 300.000 L 1000.000 300.000 1000.000 350.000 M1000.000 727.637 C 1000.000 872.609,1000.260 869.846,985.233 884.873 C 968.820 901.285,1001.556 900.000,600.000 900.000 C 198.842 900.000,231.149 901.254,214.947 885.053 C 199.604 869.709,200.000 873.854,200.000 728.644 L 200.000 600.000 600.000 600.000 L 1000.000 600.000 1000.000 727.637 " fill="#1D1E23" stroke="none" fill-rule="evenodd"></path></svg>