<svg width="1200" height="1200" viewBox="0 0 1200 1200" fill="none" xmlns="http://www.w3.org/2000/svg"><path d="M634.000 203.209 C 584.537 211.360,479.400 234.190,353.000 264.227 C 282.396 281.005,125.547 319.275,107.789 324.057 L 100.000 326.154 100.000 515.169 L 100.000 704.183 117.500 712.263 C 168.976 736.029,226.357 756.876,257.000 762.943 C 271.155 765.746,300.323 766.047,510.000 765.556 L 747.000 765.000 758.528 760.346 C 782.208 750.785,803.199 729.701,812.155 706.481 C 818.367 690.375,819.637 663.855,815.015 646.778 C 806.285 614.527,777.413 587.333,744.402 580.268 C 737.122 578.710,693.434 578.000,604.902 578.000 C 534.006 578.000,476.000 577.555,476.000 577.012 C 476.000 574.572,519.110 490.000,520.353 490.000 C 521.122 490.000,539.131 502.575,560.375 517.944 L 599.000 545.888 677.743 545.944 L 756.486 546.000 747.662 535.500 C 706.312 486.294,670.164 443.822,649.990 420.741 C 634.922 403.502,626.660 392.540,627.844 391.356 C 628.882 390.318,630.917 389.978,632.366 390.600 C 633.815 391.222,676.254 426.441,726.676 468.865 L 818.352 546.000 912.525 546.000 L 1006.697 546.000 1002.681 541.500 C 1000.472 539.025,989.320 525.750,977.897 512.000 C 904.285 423.387,839.582 351.374,780.107 291.863 C 727.041 238.764,702.765 217.926,681.231 206.992 C 665.793 199.152,660.962 198.765,634.000 203.209 M815.814 586.441 C 826.134 596.971,837.093 614.578,842.001 628.517 L 845.693 639.000 941.846 639.519 L 1038.000 640.038 1038.000 735.019 L 1038.000 830.000 749.000 830.000 L 460.000 830.000 460.000 814.000 L 460.000 798.000 427.914 798.000 L 395.828 798.000 396.414 899.500 L 397.000 1001.000 402.296 1012.296 C 408.748 1026.058,420.010 1037.685,433.154 1044.154 L 443.000 1049.000 748.000 1049.000 L 1053.000 1049.000 1062.245 1044.725 C 1075.514 1038.590,1087.038 1027.358,1093.440 1014.321 L 1099.000 1003.000 1099.000 814.000 L 1099.000 625.000 1093.440 613.679 C 1087.038 600.642,1075.514 589.410,1062.245 583.275 C 1053.165 579.076,1050.814 578.990,930.212 578.441 L 807.424 577.881 815.814 586.441 M751.000 615.689 C 774.070 626.621,786.688 646.530,786.688 672.000 C 786.688 690.446,782.130 701.756,769.069 715.719 C 757.404 728.190,743.248 734.597,727.000 734.759 C 712.404 734.904,704.559 731.317,699.101 722.000 C 695.319 715.544,695.000 711.735,695.000 673.000 C 695.000 626.346,696.219 620.248,706.841 613.771 C 716.676 607.773,736.073 608.616,751.000 615.689 M1037.584 971.500 L 1037.000 987.000 748.500 987.507 L 460.000 988.014 460.000 972.007 L 460.000 956.000 749.084 956.000 L 1038.168 956.000 1037.584 971.500 " fill="#1D1E23" stroke="none" fill-rule="evenodd"></path></svg>