<svg width="1200" height="1200" viewBox="0 0 1200 1200" fill="none" xmlns="http://www.w3.org/2000/svg"><path d="M250.000 150.000 L 250.000 250.000 150.000 250.000 L 50.000 250.000 50.000 300.000 L 50.000 350.000 150.000 350.000 L 250.000 350.000 250.000 650.000 L 250.000 950.000 550.000 950.000 L 850.000 950.000 850.000 1050.000 L 850.000 1150.000 900.000 1150.000 L 950.000 1150.000 950.000 1050.000 L 950.000 950.000 1050.000 950.000 L 1150.000 950.000 1150.000 900.000 L 1150.000 850.000 750.000 850.000 L 350.000 850.000 350.000 450.000 L 350.000 50.000 300.000 50.000 L 250.000 50.000 250.000 150.000 M450.000 300.000 L 450.000 350.000 650.000 350.000 L 850.000 350.000 850.000 550.000 L 850.000 750.000 900.000 750.000 L 950.000 750.000 950.000 500.000 L 950.000 250.000 700.000 250.000 L 450.000 250.000 450.000 300.000 " fill="#1D1E23" stroke="none" fill-rule="evenodd"></path></svg>