<svg width="1200" height="1200" viewBox="0 0 1200 1200" fill="none" xmlns="http://www.w3.org/2000/svg"><path d="M531.754 154.968 C 435.808 170.516,348.423 215.100,280.984 282.911 C 222.006 342.215,179.242 419.852,161.169 500.434 C 115.382 704.585,214.955 911.997,403.000 1004.170 C 527.333 1065.113,672.598 1065.117,797.000 1004.179 C 886.030 960.568,958.252 889.375,1001.865 802.233 C 1036.014 734.000,1055.750 647.293,1042.661 623.000 C 1032.946 604.969,1017.311 595.263,998.000 595.274 C 985.747 595.281,983.449 596.100,958.000 609.540 C 911.119 634.297,872.527 644.440,825.000 644.494 C 708.631 644.628,606.183 570.531,568.967 459.315 C 558.407 427.755,555.406 404.956,556.686 366.000 C 558.452 312.253,566.877 284.125,597.891 228.434 C 601.127 222.623,604.365 213.935,605.085 209.127 C 606.960 196.627,601.596 179.778,592.557 169.772 C 578.280 153.970,562.149 150.042,531.754 154.968 " fill="#1D1E23" stroke="none" fill-rule="evenodd"></path></svg>