<svg width="1200" height="1200" viewBox="0 0 1200 1200" fill="none" xmlns="http://www.w3.org/2000/svg"><path d="M567.000 151.352 C 456.702 160.719,358.090 206.018,281.696 282.412 C 221.767 342.342,177.806 422.713,160.162 504.610 C 116.541 707.081,216.525 912.766,403.000 1004.170 C 559.156 1080.712,745.189 1059.908,881.549 950.655 C 932.968 909.458,974.647 857.230,1004.170 797.000 C 1033.941 736.264,1050.000 667.440,1050.000 600.591 C 1050.000 578.070,1046.685 536.178,1044.740 534.121 C 1044.282 533.637,1042.374 535.437,1040.499 538.121 C 1034.377 546.885,1015.548 566.756,1002.136 578.609 C 932.329 640.299,832.901 660.660,742.553 631.765 C 674.336 609.948,615.546 559.272,583.101 494.320 C 572.870 473.838,562.735 442.461,559.095 420.000 C 555.108 395.396,555.140 353.829,559.165 329.852 C 567.203 281.964,590.499 232.887,622.290 196.866 C 633.361 184.322,653.337 165.469,661.879 159.501 C 664.563 157.626,666.363 155.703,665.879 155.227 C 662.600 152.002,591.951 149.233,567.000 151.352 " fill="#1D1E23" stroke="none" fill-rule="evenodd"></path></svg>