<svg width="1200" height="1200" viewBox="0 0 1200 1200" fill="none" xmlns="http://www.w3.org/2000/svg"><path d="M182.171 153.434 C 177.315 155.149,169.581 160.314,164.983 164.911 C 149.108 180.787,150.000 166.786,150.000 400.000 C 150.000 633.155,149.114 619.219,164.947 635.053 C 180.520 650.625,172.781 650.000,350.000 650.000 C 527.219 650.000,519.480 650.625,535.053 635.053 C 550.886 619.219,550.000 633.155,550.000 400.000 C 550.000 166.845,550.886 180.781,535.053 164.947 C 519.456 149.351,527.366 149.980,349.144 150.158 C 211.285 150.296,189.868 150.716,182.171 153.434 M682.171 153.434 C 677.315 155.149,669.581 160.314,664.983 164.911 C 649.836 180.058,650.000 178.583,650.000 300.000 C 650.000 421.375,649.842 419.947,664.947 435.053 C 680.520 450.625,672.781 450.000,850.000 450.000 C 1027.219 450.000,1019.480 450.625,1035.053 435.053 C 1050.158 419.947,1050.000 421.375,1050.000 300.000 C 1050.000 178.625,1050.158 180.053,1035.053 164.947 C 1019.456 149.351,1027.366 149.980,849.144 150.158 C 711.285 150.296,689.868 150.716,682.171 153.434 M682.171 553.434 C 677.315 555.149,669.581 560.314,664.983 564.911 C 649.108 580.787,650.000 566.786,650.000 800.000 C 650.000 1033.155,649.114 1019.219,664.947 1035.053 C 680.520 1050.625,672.781 1050.000,850.000 1050.000 C 1027.219 1050.000,1019.480 1050.625,1035.053 1035.053 C 1050.886 1019.219,1050.000 1033.155,1050.000 800.000 C 1050.000 566.845,1050.886 580.781,1035.053 564.947 C 1019.456 549.351,1027.366 549.980,849.144 550.158 C 711.285 550.296,689.868 550.716,682.171 553.434 M182.171 753.434 C 177.315 755.149,169.581 760.314,164.983 764.911 C 149.836 780.058,150.000 778.583,150.000 900.000 C 150.000 1021.375,149.842 1019.947,164.947 1035.053 C 180.520 1050.625,172.781 1050.000,350.000 1050.000 C 527.219 1050.000,519.480 1050.625,535.053 1035.053 C 550.158 1019.947,550.000 1021.375,550.000 900.000 C 550.000 778.625,550.158 780.053,535.053 764.947 C 519.456 749.351,527.366 749.980,349.144 750.158 C 211.285 750.296,189.868 750.716,182.171 753.434 " fill="#1D1E23" stroke="none" fill-rule="evenodd"></path></svg>