<svg width="1200" height="1200" viewBox="0 0 1200 1200" fill="none" xmlns="http://www.w3.org/2000/svg"><path d="M150.000 400.000 L 150.000 650.000 350.000 650.000 L 550.000 650.000 550.000 400.000 L 550.000 150.000 350.000 150.000 L 150.000 150.000 150.000 400.000 M650.000 300.000 L 650.000 450.000 850.000 450.000 L 1050.000 450.000 1050.000 300.000 L 1050.000 150.000 850.000 150.000 L 650.000 150.000 650.000 300.000 M650.000 800.000 L 650.000 1050.000 850.000 1050.000 L 1050.000 1050.000 1050.000 800.000 L 1050.000 550.000 850.000 550.000 L 650.000 550.000 650.000 800.000 M150.000 900.000 L 150.000 1050.000 350.000 1050.000 L 550.000 1050.000 550.000 900.000 L 550.000 750.000 350.000 750.000 L 150.000 750.000 150.000 900.000 " fill="#1D1E23" stroke="none" fill-rule="evenodd"></path></svg>