<svg width="1200" height="1200" viewBox="0 0 1200 1200" fill="none" xmlns="http://www.w3.org/2000/svg"><path d="M100.009 599.500 L 100.000 1100.000 163.000 1100.000 L 226.000 1100.000 226.000 662.565 L 226.000 225.130 163.009 162.065 L 100.018 99.000 100.009 599.500 M288.000 662.516 L 288.000 1038.000 335.000 1038.000 L 382.000 1038.000 382.000 709.484 L 382.000 380.968 335.000 334.000 L 288.000 287.032 288.000 662.516 M444.000 740.524 L 444.000 1038.000 475.000 1038.000 L 506.000 1038.000 506.000 771.476 L 506.000 504.952 475.000 474.000 L 444.000 443.048 444.000 740.524 M568.492 803.500 L 569.000 1037.000 600.500 1037.551 L 632.000 1038.102 632.000 834.527 L 632.000 630.952 601.477 600.476 C 584.689 583.714,570.285 570.000,569.468 570.000 C 568.652 570.000,568.212 675.075,568.492 803.500 M694.000 865.516 L 694.000 1038.000 741.000 1038.000 L 788.000 1038.000 788.000 912.484 L 788.000 786.968 741.000 740.000 L 694.000 693.032 694.000 865.516 M850.000 943.524 L 850.000 1038.000 881.000 1038.000 L 912.000 1038.000 912.000 974.476 L 912.000 910.952 881.000 880.000 L 850.000 849.048 850.000 943.524 M974.000 1038.000 L 974.000 1100.000 1037.488 1100.000 L 1100.976 1100.000 1039.000 1038.000 C 1004.913 1003.900,976.344 976.000,975.512 976.000 C 974.680 976.000,974.000 1003.900,974.000 1038.000 " fill="#1D1E23" stroke="none" fill-rule="evenodd"></path></svg>