<svg width="1200" height="1200" viewBox="0 0 1200 1200" fill="none" xmlns="http://www.w3.org/2000/svg"><path d="M479.770 152.727 C 469.512 156.438,463.409 161.279,443.042 181.856 L 425.083 200.000 358.898 200.000 C 283.258 200.000,279.258 200.636,264.947 214.947 C 245.384 234.511,245.384 265.489,264.947 285.053 C 281.064 301.169,254.861 300.000,600.000 300.000 C 945.139 300.000,918.936 301.169,935.053 285.053 C 954.616 265.489,954.616 234.511,935.053 214.947 C 920.742 200.636,916.741 200.000,841.104 200.000 L 774.921 200.000 755.960 180.859 C 745.532 170.332,732.950 159.307,728.000 156.359 L 719.000 151.000 603.000 150.556 C 511.584 150.205,485.468 150.666,479.770 152.727 M300.000 654.902 C 300.000 869.771,300.653 962.933,302.210 970.402 C 310.026 1007.883,342.117 1039.974,379.598 1047.790 C 394.463 1050.890,805.537 1050.890,820.402 1047.790 C 857.883 1039.974,889.974 1007.883,897.790 970.402 C 899.347 962.933,900.000 869.771,900.000 654.902 L 900.000 350.000 600.000 350.000 L 300.000 350.000 300.000 654.902 M516.769 550.392 C 521.273 552.690,541.862 571.266,562.522 591.673 L 600.087 628.775 637.543 591.615 C 679.983 549.511,686.235 545.279,706.000 545.279 C 720.948 545.279,731.269 549.681,741.276 560.325 C 751.368 571.059,754.734 579.486,754.727 594.000 C 754.718 613.770,750.484 620.022,708.342 662.500 L 671.138 700.000 708.342 737.500 C 750.484 779.978,754.718 786.230,754.727 806.000 C 754.734 820.514,751.368 828.941,741.276 839.675 C 727.830 853.977,710.154 858.654,690.809 853.030 C 679.597 849.771,677.044 847.651,639.505 810.409 L 600.000 771.218 560.495 810.409 C 522.956 847.651,520.403 849.771,509.191 853.030 C 490.327 858.514,474.648 854.743,460.325 841.276 C 449.681 831.269,445.279 820.948,445.279 806.000 C 445.279 786.232,449.509 779.985,491.659 737.499 L 528.863 699.998 490.666 661.499 C 469.658 640.325,450.938 619.974,449.067 616.275 C 444.429 607.108,442.957 590.295,445.959 580.788 C 451.450 563.397,465.278 550.225,482.664 545.824 C 491.839 543.501,507.327 545.576,516.769 550.392 " fill="#1D1E23" stroke="none" fill-rule="evenodd"></path></svg>