<svg width="1200" height="1200" viewBox="0 0 1200 1200" fill="none" xmlns="http://www.w3.org/2000/svg"><path d="M450.000 175.000 L 425.060 200.000 337.530 200.000 L 250.000 200.000 250.000 250.000 L 250.000 300.000 600.000 300.000 L 950.000 300.000 950.000 250.000 L 950.000 200.000 862.470 200.000 L 774.940 200.000 750.000 175.000 L 725.060 150.000 600.000 150.000 L 474.940 150.000 450.000 175.000 M300.000 700.000 L 300.000 1050.000 600.000 1050.000 L 900.000 1050.000 900.000 700.000 L 900.000 350.000 600.000 350.000 L 300.000 350.000 300.000 700.000 M547.486 576.486 L 600.000 628.972 653.004 575.996 L 706.007 523.021 741.493 558.507 L 776.979 593.993 724.004 646.996 L 671.028 700.000 724.004 753.004 L 776.979 806.007 741.493 841.493 L 706.007 876.979 653.004 824.004 L 600.000 771.028 546.996 824.004 L 493.993 876.979 458.507 841.493 L 423.021 806.007 475.996 753.004 L 528.972 700.000 476.004 647.004 L 423.036 594.007 457.996 559.004 C 477.225 539.752,493.411 524.000,493.965 524.000 C 494.519 524.000,518.603 547.619,547.486 576.486 " fill="#1D1E23" stroke="none" fill-rule="evenodd"></path></svg>