<svg width="1200" height="1200" viewBox="0 0 1200 1200" fill="none" xmlns="http://www.w3.org/2000/svg"><path d="M450.000 175.000 L 425.060 200.000 337.530 200.000 L 250.000 200.000 250.000 250.000 L 250.000 300.000 600.000 300.000 L 950.000 300.000 950.000 250.000 L 950.000 200.000 862.470 200.000 L 774.940 200.000 750.000 175.000 L 725.060 150.000 600.000 150.000 L 474.940 150.000 450.000 175.000 M300.000 700.000 L 300.000 1050.000 600.000 1050.000 L 900.000 1050.000 900.000 700.000 L 900.000 350.000 600.000 350.000 L 300.000 350.000 300.000 700.000 M800.000 700.000 L 800.000 950.000 600.000 950.000 L 400.000 950.000 400.000 700.000 L 400.000 450.000 600.000 450.000 L 800.000 450.000 800.000 700.000 " fill="#1D1E23" stroke="none" fill-rule="evenodd"></path></svg>