<svg width="1200" height="1200" viewBox="0 0 1200 1200" fill="none" xmlns="http://www.w3.org/2000/svg"><path d="M479.770 152.727 C 469.512 156.438,463.409 161.279,443.042 181.856 L 425.083 200.000 358.898 200.000 C 283.258 200.000,279.258 200.636,264.947 214.947 C 245.384 234.511,245.384 265.489,264.947 285.053 C 281.064 301.169,254.861 300.000,600.000 300.000 C 945.139 300.000,918.936 301.169,935.053 285.053 C 954.616 265.489,954.616 234.511,935.053 214.947 C 920.742 200.636,916.741 200.000,841.104 200.000 L 774.921 200.000 755.960 180.859 C 745.532 170.332,732.950 159.307,728.000 156.359 L 719.000 151.000 603.000 150.556 C 511.584 150.205,485.468 150.666,479.770 152.727 M300.000 654.902 C 300.000 869.771,300.653 962.933,302.210 970.402 C 310.026 1007.883,342.117 1039.974,379.598 1047.790 C 394.463 1050.890,805.537 1050.890,820.402 1047.790 C 857.883 1039.974,889.974 1007.883,897.790 970.402 C 899.347 962.933,900.000 869.771,900.000 654.902 L 900.000 350.000 600.000 350.000 L 300.000 350.000 300.000 654.902 M800.000 677.637 C 800.000 934.085,800.851 919.254,785.233 934.873 C 769.450 950.655,777.469 950.000,600.000 950.000 C 422.781 950.000,430.520 950.625,414.947 935.053 C 399.034 919.140,400.000 935.706,400.000 678.644 L 400.000 450.000 600.000 450.000 L 800.000 450.000 800.000 677.637 " fill="#1D1E23" stroke="none" fill-rule="evenodd"></path></svg>