<svg width="1200" height="1200" viewBox="0 0 1200 1200" fill="none" xmlns="http://www.w3.org/2000/svg"><path d="M225.998 225.002 L 101.008 350.004 219.497 468.493 L 337.986 586.982 353.481 571.486 L 368.977 555.991 265.993 452.993 L 163.010 349.995 256.498 256.507 L 349.987 163.019 365.462 178.494 L 380.937 193.969 365.467 209.530 L 349.997 225.091 365.529 240.532 L 381.060 255.972 396.515 240.518 L 411.969 225.063 427.997 240.997 L 444.024 256.930 413.000 288.000 L 381.976 319.070 397.522 334.525 L 413.068 349.980 444.000 319.000 L 474.932 288.020 490.467 303.464 L 506.003 318.909 490.533 334.470 L 475.063 350.031 490.516 365.484 L 505.969 380.937 521.520 365.477 L 537.071 350.018 546.523 359.471 L 555.976 368.924 570.988 354.012 C 579.245 345.810,586.000 338.175,586.000 337.044 C 586.000 335.913,533.122 282.115,468.494 217.494 L 350.988 100.000 225.998 225.002 M920.648 102.751 C 907.193 107.165,900.377 112.418,875.017 137.915 L 851.034 162.029 944.547 255.514 L 1038.060 349.000 1064.767 322.000 C 1087.886 298.628,1092.074 293.387,1095.936 283.000 C 1101.560 267.870,1100.798 249.152,1093.970 234.715 C 1087.217 220.437,981.299 114.528,966.305 107.061 C 953.264 100.567,933.107 98.664,920.648 102.751 M475.492 537.508 L 131.994 881.010 225.502 974.502 L 319.010 1067.994 662.508 724.492 L 1006.006 380.990 912.498 287.498 L 818.990 194.006 475.492 537.508 M845.988 629.012 L 831.076 644.024 840.529 653.477 L 849.982 662.929 834.523 678.480 L 819.063 694.031 834.516 709.484 L 849.969 724.937 865.530 709.467 L 881.091 693.997 896.536 709.533 L 911.980 725.068 881.000 756.000 L 850.020 786.932 865.475 802.478 L 880.930 818.024 912.000 787.000 L 943.070 755.976 958.988 771.988 L 974.906 788.000 959.452 803.546 L 943.997 819.091 959.529 834.532 L 975.060 849.972 990.530 834.502 L 1006.000 819.032 1021.491 834.523 L 1036.981 850.013 943.493 943.502 L 850.005 1036.990 747.007 934.007 L 644.009 831.023 628.679 846.353 L 613.350 861.682 731.127 980.883 L 848.905 1100.083 974.452 974.548 L 1100.000 849.012 982.506 731.506 C 917.885 666.878,864.087 614.000,862.956 614.000 C 861.825 614.000,854.190 620.755,845.988 629.012 M100.000 1007.000 L 100.000 1100.000 193.492 1100.000 L 286.984 1100.000 194.000 1007.000 C 142.859 955.850,100.788 914.000,100.508 914.000 C 100.229 914.000,100.000 955.850,100.000 1007.000 " fill="#1D1E23" stroke="none" fill-rule="evenodd"></path></svg>