<svg width="1200" height="1200" viewBox="0 0 1200 1200" fill="none" xmlns="http://www.w3.org/2000/svg"><path d="M134.000 101.327 C 123.664 102.996,104.637 110.762,94.526 117.438 C 73.539 131.296,57.312 155.132,52.210 179.598 C 49.091 194.557,49.091 805.443,52.210 820.402 C 60.026 857.883,92.117 889.974,129.598 897.790 C 136.881 899.308,196.486 900.000,320.098 900.000 L 500.000 900.000 500.000 950.000 L 500.000 1000.000 471.356 1000.000 C 437.048 1000.000,427.316 1002.579,414.947 1014.947 C 395.384 1034.511,395.384 1065.489,414.947 1085.053 C 430.520 1100.625,422.781 1100.000,600.000 1100.000 C 777.219 1100.000,769.480 1100.625,785.053 1085.053 C 804.616 1065.489,804.616 1034.511,785.053 1014.947 C 772.684 1002.579,762.952 1000.000,728.644 1000.000 L 700.000 1000.000 700.000 950.000 L 700.000 900.000 879.902 900.000 C 1003.514 900.000,1063.119 899.308,1070.402 897.790 C 1107.883 889.974,1139.974 857.883,1147.790 820.402 C 1150.909 805.443,1150.909 194.557,1147.790 179.598 C 1140.894 146.531,1117.041 119.355,1083.000 105.784 L 1071.000 101.000 605.000 100.760 C 348.700 100.628,136.750 100.883,134.000 101.327 M1017.009 203.312 C 1022.825 205.294,1030.145 210.040,1035.233 215.127 C 1050.940 230.834,1050.000 212.706,1050.000 500.000 C 1050.000 787.294,1050.940 769.166,1035.233 784.873 C 1018.754 801.351,1057.620 800.000,600.000 800.000 C 142.814 800.000,181.214 801.319,164.947 785.053 C 148.947 769.052,150.000 789.135,150.000 500.000 C 150.000 210.799,148.941 230.954,164.983 214.911 C 180.849 199.046,142.921 200.334,599.144 200.158 C 974.054 200.013,1008.079 200.270,1017.009 203.312 " fill="#1D1E23" stroke="none" fill-rule="evenodd"></path></svg>