<svg width="1200" height="1200" viewBox="0 0 1200 1200" fill="none" xmlns="http://www.w3.org/2000/svg"><path d="M50.000 500.000 L 50.000 900.000 275.000 900.000 L 500.000 900.000 500.000 950.000 L 500.000 1000.000 450.000 1000.000 L 400.000 1000.000 400.000 1050.000 L 400.000 1100.000 600.000 1100.000 L 800.000 1100.000 800.000 1050.000 L 800.000 1000.000 750.000 1000.000 L 700.000 1000.000 700.000 950.000 L 700.000 900.000 925.000 900.000 L 1150.000 900.000 1150.000 500.000 L 1150.000 100.000 600.000 100.000 L 50.000 100.000 50.000 500.000 M1050.000 500.000 L 1050.000 800.000 600.000 800.000 L 150.000 800.000 150.000 500.000 L 150.000 200.000 600.000 200.000 L 1050.000 200.000 1050.000 500.000 " fill="#1D1E23" stroke="none" fill-rule="evenodd"></path></svg>