<svg width="1200" height="1200" viewBox="0 0 1200 1200" fill="none" xmlns="http://www.w3.org/2000/svg"><path d="M434.000 51.318 C 403.823 56.244,373.137 79.282,360.208 106.719 C 351.027 126.200,350.000 135.461,350.000 198.742 C 350.000 265.917,350.877 270.983,364.947 285.053 C 384.511 304.616,415.489 304.616,435.053 285.053 C 447.421 272.684,450.000 262.952,450.000 228.644 L 450.000 200.000 700.000 200.000 L 950.000 200.000 950.000 600.000 L 950.000 1000.000 700.000 1000.000 L 450.000 1000.000 450.000 971.356 C 450.000 937.048,447.421 927.316,435.053 914.947 C 415.489 895.384,384.511 895.384,364.947 914.947 C 350.877 929.017,350.000 934.083,350.000 1001.258 C 350.000 1036.272,350.888 1064.063,352.210 1070.402 C 360.026 1107.883,392.117 1139.974,429.598 1147.790 C 444.519 1150.901,955.481 1150.901,970.402 1147.790 C 1007.883 1139.974,1039.974 1107.883,1047.790 1070.402 C 1050.923 1055.378,1050.923 144.622,1047.790 129.598 C 1040.894 96.531,1017.041 69.355,983.000 55.784 L 971.000 51.000 705.000 50.751 C 558.700 50.614,436.750 50.869,434.000 51.318 M346.396 353.346 C 336.974 357.989,334.405 364.501,329.474 396.231 C 325.194 423.772,324.975 424.426,319.051 427.451 C 315.723 429.151,306.988 434.411,299.640 439.140 L 286.280 447.738 257.640 436.705 C 225.539 424.338,219.109 423.900,209.733 433.439 C 206.727 436.498,194.653 455.650,182.901 476.000 C 159.629 516.301,156.152 526.829,162.774 536.936 C 164.576 539.686,176.014 549.937,188.192 559.715 L 210.334 577.492 210.667 600.579 C 210.972 621.701,210.660 623.877,207.000 626.152 C 198.098 631.684,163.926 660.401,162.031 663.941 C 160.914 666.029,160.000 671.471,160.000 676.035 C 160.000 682.970,163.858 691.057,183.500 725.293 C 208.084 768.144,213.104 774.000,225.250 774.000 C 228.428 774.000,243.612 769.163,258.993 763.251 L 286.959 752.502 297.979 759.970 C 304.041 764.077,312.622 769.279,317.050 771.530 L 325.100 775.622 329.473 803.761 C 334.452 835.802,337.422 843.127,347.069 847.158 C 356.863 851.250,443.137 851.250,452.931 847.158 C 462.578 843.127,465.548 835.802,470.527 803.761 L 474.900 775.622 482.950 771.530 C 487.378 769.279,496.043 764.020,502.206 759.844 L 513.411 752.251 541.606 763.125 C 557.114 769.106,571.963 774.000,574.605 774.000 C 585.564 774.000,592.094 766.185,616.392 723.993 C 648.005 669.100,648.035 669.798,612.793 641.463 L 589.378 622.637 589.183 599.677 L 588.989 576.718 611.445 558.865 C 623.797 549.046,635.410 538.212,637.253 534.790 C 642.945 524.221,640.104 515.883,617.562 477.000 C 590.776 430.798,592.241 433.005,585.856 429.233 C 577.099 424.060,568.915 425.345,540.429 436.367 C 516.389 445.668,513.191 446.451,509.317 443.985 C 506.943 442.474,498.216 437.371,489.925 432.646 L 474.850 424.055 470.502 396.077 C 463.186 349.001,464.695 349.982,399.698 350.046 C 360.669 350.084,351.916 350.626,346.396 353.346 M433.087 506.158 C 458.917 515.721,477.641 532.742,489.449 557.394 C 508.005 596.134,500.278 640.116,469.520 670.834 C 417.791 722.497,332.921 702.868,305.933 633.000 C 299.267 615.745,299.281 584.188,305.961 567.000 C 314.502 545.027,326.965 529.033,344.642 517.361 C 354.469 510.873,373.099 503.227,384.000 501.209 C 394.985 499.174,421.425 501.840,433.087 506.158 " fill="#1D1E23" stroke="none" fill-rule="evenodd"></path></svg>