<svg width="1200" height="1200" viewBox="0 0 1200 1200" fill="none" xmlns="http://www.w3.org/2000/svg"><path d="M134.000 201.340 C 123.722 202.974,104.657 210.749,94.526 217.438 C 73.539 231.296,57.312 255.132,52.210 279.598 C 49.091 294.557,49.091 905.443,52.210 920.402 C 60.026 957.883,92.117 989.974,129.598 997.790 C 136.356 999.199,170.476 1000.000,223.742 1000.000 C 318.667 1000.000,320.328 999.777,335.053 985.053 C 354.616 965.489,354.616 934.511,335.053 914.947 C 321.027 900.922,315.783 900.000,250.000 900.000 C 184.217 900.000,178.973 899.078,164.947 885.053 C 148.947 869.052,150.000 889.135,150.000 600.000 C 150.000 310.865,148.947 330.948,164.947 314.947 C 181.214 298.681,142.814 300.000,600.000 300.000 C 1057.186 300.000,1018.786 301.319,1035.053 285.053 C 1054.616 265.489,1054.616 234.511,1035.053 214.947 C 1018.745 198.639,1060.518 199.967,573.144 200.272 C 334.365 200.422,136.750 200.902,134.000 201.340 M785.255 402.912 C 774.473 406.789,764.067 415.674,757.000 427.037 L 751.000 436.685 750.478 697.777 L 749.956 958.869 755.058 969.298 C 760.892 981.222,770.993 990.895,783.291 996.335 C 791.408 999.925,798.932 1000.068,952.551 999.546 L 1113.316 999.000 1123.089 992.957 C 1134.491 985.907,1144.972 973.024,1147.909 962.449 C 1150.775 952.128,1150.775 447.872,1147.909 437.551 C 1144.972 426.976,1134.491 414.093,1123.089 407.043 L 1113.316 401.000 953.158 400.564 C 820.514 400.202,791.669 400.606,785.255 402.912 M1050.000 700.000 L 1050.000 900.000 950.000 900.000 L 850.000 900.000 850.000 700.000 L 850.000 500.000 950.000 500.000 L 1050.000 500.000 1050.000 700.000 M482.171 603.434 C 477.315 605.149,469.581 610.314,464.983 614.911 C 453.151 626.744,450.000 637.477,450.000 665.950 L 450.000 689.188 441.855 697.094 C 416.907 721.311,400.000 762.879,400.000 800.000 C 400.000 837.121,416.907 878.689,441.855 902.906 L 450.000 910.812 450.000 934.050 C 450.000 962.497,453.154 973.259,464.947 985.053 C 478.973 999.078,484.217 1000.000,550.000 1000.000 C 615.783 1000.000,621.027 999.078,635.053 985.053 C 646.797 973.308,650.000 962.465,650.000 934.450 L 650.000 911.613 661.833 898.700 C 675.244 884.064,687.426 862.049,694.314 840.000 C 701.042 818.463,701.042 781.537,694.314 760.000 C 687.426 737.951,675.244 715.936,661.833 701.300 L 650.000 688.387 650.000 665.550 C 650.000 637.535,646.797 626.692,635.053 614.947 C 620.951 600.846,615.902 599.977,549.144 600.158 C 501.888 600.286,489.347 600.900,482.171 603.434 M582.179 732.511 C 596.189 739.365,610.638 753.829,617.565 767.933 C 622.431 777.841,623.000 781.200,623.000 800.000 C 623.000 818.800,622.431 822.159,617.565 832.067 C 603.056 861.608,570.131 879.067,538.602 873.935 C 515.002 870.094,493.094 853.811,482.562 832.283 C 475.679 818.215,473.982 793.965,478.737 777.610 C 484.726 757.006,503.852 737.011,524.672 729.586 C 540.375 723.986,567.583 725.370,582.179 732.511 " fill="#1D1E23" stroke="none" fill-rule="evenodd"></path></svg>