<svg width="1200" height="1200" viewBox="0 0 1200 1200" fill="none" xmlns="http://www.w3.org/2000/svg"><path d="M350.000 175.000 L 350.000 300.000 400.000 300.000 L 450.000 300.000 450.000 250.000 L 450.000 200.000 700.000 200.000 L 950.000 200.000 950.000 600.000 L 950.000 1000.000 700.000 1000.000 L 450.000 1000.000 450.000 950.000 L 450.000 900.000 400.000 900.000 L 350.000 900.000 350.000 1025.000 L 350.000 1150.000 700.000 1150.000 L 1050.000 1150.000 1050.000 600.000 L 1050.000 50.000 700.000 50.000 L 350.000 50.000 350.000 175.000 M335.460 355.500 C 334.888 358.525,332.310 375.264,329.731 392.697 C 325.090 424.063,324.978 424.425,319.020 427.467 C 315.709 429.158,307.003 434.401,299.673 439.118 L 286.345 447.696 250.775 433.913 C 231.211 426.332,214.994 420.340,214.737 420.596 C 213.343 421.990,152.018 529.087,152.115 529.959 C 152.178 530.532,165.272 541.445,181.213 554.212 L 210.197 577.424 210.598 599.952 L 211.000 622.481 181.433 646.396 L 151.866 670.311 155.694 676.655 C 157.799 680.145,171.926 704.600,187.088 731.000 C 202.250 757.400,214.834 779.251,215.053 779.559 C 215.272 779.866,231.446 773.840,250.997 766.168 L 286.543 752.220 297.771 759.828 C 303.947 764.013,312.609 769.272,317.019 771.514 L 325.038 775.591 329.729 807.295 C 332.310 824.733,334.888 841.475,335.460 844.500 L 336.500 850.000 399.991 850.000 L 463.481 850.000 467.746 822.500 C 470.091 807.375,472.587 790.678,473.292 785.395 C 474.459 776.641,475.301 775.419,482.786 771.613 C 487.304 769.316,496.053 764.013,502.229 759.828 L 513.457 752.220 549.003 766.168 C 568.554 773.840,584.728 779.866,584.947 779.559 C 585.166 779.251,597.750 757.400,612.912 731.000 C 628.074 704.600,642.219 680.116,644.346 676.591 L 648.213 670.182 618.607 646.591 L 589.000 623.000 589.335 600.076 L 589.669 577.152 618.897 553.413 L 648.125 529.674 644.293 523.337 C 642.185 519.852,628.134 495.402,613.068 469.005 C 598.003 442.607,585.474 420.807,585.226 420.560 C 584.979 420.312,568.804 426.336,549.282 433.946 L 513.787 447.782 500.394 439.161 C 493.027 434.420,484.203 429.113,480.785 427.367 C 475.520 424.677,474.374 422.725,473.290 414.596 C 472.586 409.318,470.091 392.625,467.746 377.500 L 463.481 350.000 399.991 350.000 L 336.500 350.000 335.460 355.500 M433.087 506.158 C 458.917 515.721,477.641 532.742,489.449 557.394 C 508.005 596.134,500.278 640.116,469.520 670.834 C 417.791 722.497,332.921 702.868,305.933 633.000 C 299.267 615.745,299.281 584.188,305.961 567.000 C 314.502 545.027,326.965 529.033,344.642 517.361 C 354.469 510.873,373.099 503.227,384.000 501.209 C 394.985 499.174,421.425 501.840,433.087 506.158 " fill="#1D1E23" stroke="none" fill-rule="evenodd"></path></svg>