<svg width="1200" height="1200" viewBox="0 0 1200 1200" fill="none" xmlns="http://www.w3.org/2000/svg"><path d="M50.000 600.000 L 50.000 1000.000 200.000 1000.000 L 350.000 1000.000 350.000 950.000 L 350.000 900.000 250.000 900.000 L 150.000 900.000 150.000 600.000 L 150.000 300.000 600.000 300.000 L 1050.000 300.000 1050.000 250.000 L 1050.000 200.000 550.000 200.000 L 50.000 200.000 50.000 600.000 M750.000 700.000 L 750.000 1000.000 950.000 1000.000 L 1150.000 1000.000 1150.000 700.000 L 1150.000 400.000 950.000 400.000 L 750.000 400.000 750.000 700.000 M1050.000 700.000 L 1050.000 900.000 950.000 900.000 L 850.000 900.000 850.000 700.000 L 850.000 500.000 950.000 500.000 L 1050.000 500.000 1050.000 700.000 M450.000 644.594 L 450.000 689.188 441.855 697.094 C 416.907 721.311,400.000 762.879,400.000 800.000 C 400.000 837.121,416.907 878.689,441.855 902.906 L 450.000 910.812 450.000 955.406 L 450.000 1000.000 550.000 1000.000 L 650.000 1000.000 650.000 955.807 L 650.000 911.613 661.833 898.700 C 675.244 884.064,687.426 862.049,694.314 840.000 C 701.042 818.463,701.042 781.537,694.314 760.000 C 687.426 737.951,675.244 715.936,661.833 701.300 L 650.000 688.387 650.000 644.193 L 650.000 600.000 550.000 600.000 L 450.000 600.000 450.000 644.594 M582.179 732.511 C 596.189 739.365,610.638 753.829,617.565 767.933 C 622.431 777.841,623.000 781.200,623.000 800.000 C 623.000 818.800,622.431 822.159,617.565 832.067 C 603.056 861.608,570.131 879.067,538.602 873.935 C 515.002 870.094,493.094 853.811,482.562 832.283 C 475.679 818.215,473.982 793.965,478.737 777.610 C 484.726 757.006,503.852 737.011,524.672 729.586 C 540.375 723.986,567.583 725.370,582.179 732.511 " fill="#1D1E23" stroke="none" fill-rule="evenodd"></path></svg>