<svg width="1200" height="1200" viewBox="0 0 1200 1200" fill="none" xmlns="http://www.w3.org/2000/svg"><path d="M392.665 103.683 C 374.142 110.119,361.020 123.041,353.853 141.903 C 350.091 151.804,350.000 162.591,350.000 599.946 L 350.000 1047.850 354.308 1059.363 C 360.120 1074.898,375.102 1089.880,390.637 1095.692 C 402.139 1099.996,402.338 1100.000,600.000 1100.000 C 797.662 1100.000,797.861 1099.996,809.363 1095.692 C 824.898 1089.880,839.880 1074.898,845.692 1059.363 L 850.000 1047.850 850.000 600.000 C 850.000 154.599,849.978 152.091,845.933 141.281 C 840.500 126.760,828.447 113.496,814.429 106.612 L 803.000 101.000 603.000 100.546 C 415.077 100.119,402.376 100.308,392.665 103.683 M658.180 167.722 C 663.499 174.296,663.049 183.132,657.091 189.091 L 652.182 194.000 600.000 194.000 L 547.818 194.000 542.909 189.091 C 535.156 181.338,537.148 167.892,546.631 163.965 C 549.034 162.970,574.256 162.346,602.680 162.578 C 654.346 163.000,654.360 163.001,658.180 167.722 M818.000 601.000 L 818.000 976.000 600.000 976.000 L 382.000 976.000 382.000 601.000 L 382.000 226.000 600.000 226.000 L 818.000 226.000 818.000 601.000 M579.000 351.211 C 513.258 360.913,461.348 397.691,432.509 455.000 C 420.425 479.012,411.895 514.754,412.070 540.645 C 412.486 602.456,460.186 693.792,540.354 786.285 C 561.104 810.226,598.398 850.000,600.095 850.000 C 601.911 850.000,654.276 793.177,671.055 773.000 C 734.834 696.300,774.882 623.803,785.084 566.577 C 788.478 547.534,788.660 535.032,785.835 514.727 C 774.984 436.708,716.862 372.220,641.981 355.118 C 627.222 351.747,590.715 349.483,579.000 351.211 M627.642 482.137 C 674.062 505.333,673.119 569.720,626.000 594.264 C 618.621 598.108,613.939 598.952,600.000 598.952 C 586.061 598.952,581.379 598.108,574.000 594.264 C 552.603 583.118,539.953 564.145,538.490 541.000 C 536.860 515.211,549.244 493.687,572.358 482.137 C 582.865 476.886,586.858 476.000,600.000 476.000 C 613.142 476.000,617.135 476.886,627.642 482.137 M468.730 1010.145 C 472.795 1013.342,474.000 1016.053,474.000 1022.000 C 474.000 1027.947,472.795 1030.658,468.730 1033.855 C 464.202 1037.417,460.664 1038.000,443.576 1038.000 C 424.266 1038.000,423.524 1037.831,417.846 1032.154 C 414.631 1028.938,412.000 1024.369,412.000 1022.000 C 412.000 1019.631,414.631 1015.062,417.846 1011.846 C 423.524 1006.169,424.266 1006.000,443.576 1006.000 C 460.664 1006.000,464.202 1006.583,468.730 1010.145 M624.730 1010.145 C 628.795 1013.342,630.000 1016.053,630.000 1022.000 C 630.000 1027.947,628.795 1030.658,624.730 1033.855 C 620.219 1037.403,616.659 1038.000,600.000 1038.000 C 583.341 1038.000,579.781 1037.403,575.270 1033.855 C 567.825 1027.999,567.825 1016.001,575.270 1010.145 C 579.781 1006.597,583.341 1006.000,600.000 1006.000 C 616.659 1006.000,620.219 1006.597,624.730 1010.145 M782.154 1011.846 C 785.369 1015.062,788.000 1019.631,788.000 1022.000 C 788.000 1024.369,785.369 1028.938,782.154 1032.154 C 776.476 1037.831,775.734 1038.000,756.424 1038.000 C 739.336 1038.000,735.798 1037.417,731.270 1033.855 C 723.825 1027.999,723.825 1016.001,731.270 1010.145 C 735.798 1006.583,739.336 1006.000,756.424 1006.000 C 775.734 1006.000,776.476 1006.169,782.154 1011.846 " fill="#1D1E23" stroke="none" fill-rule="evenodd"></path></svg>