<svg width="1200" height="1200" viewBox="0 0 1200 1200" fill="none" xmlns="http://www.w3.org/2000/svg"><path d="M100.000 525.000 L 100.000 850.000 50.000 850.000 L 0.000 850.000 0.000 925.000 L 0.000 1000.000 350.000 1000.000 L 700.000 1000.000 700.000 925.000 L 700.000 850.000 450.000 850.000 L 200.000 850.000 200.000 575.000 L 200.000 300.000 650.000 300.000 L 1100.000 300.000 1100.000 250.000 L 1100.000 200.000 600.000 200.000 L 100.000 200.000 100.000 525.000 M800.000 700.000 L 800.000 1000.000 1000.000 1000.000 L 1200.000 1000.000 1200.000 700.000 L 1200.000 400.000 1000.000 400.000 L 800.000 400.000 800.000 700.000 M1100.000 675.000 L 1100.000 850.000 1000.000 850.000 L 900.000 850.000 900.000 675.000 L 900.000 500.000 1000.000 500.000 L 1100.000 500.000 1100.000 675.000 " fill="#1D1E23" stroke="none" fill-rule="evenodd"></path></svg>