<svg width="1200" height="1200" viewBox="0 0 1200 1200" fill="none" xmlns="http://www.w3.org/2000/svg"><path d="M284.000 51.209 C 281.250 51.718,273.600 54.022,267.000 56.329 C 197.387 80.658,177.583 167.938,229.823 220.177 C 269.629 259.983,330.371 259.983,370.177 220.177 C 422.446 167.909,403.030 82.052,333.087 56.158 C 321.425 51.840,294.985 49.174,284.000 51.209 M584.000 51.209 C 581.250 51.718,573.600 54.022,567.000 56.329 C 497.387 80.658,477.583 167.938,529.823 220.177 C 569.629 259.983,630.371 259.983,670.177 220.177 C 722.446 167.909,703.030 82.052,633.087 56.158 C 621.425 51.840,594.985 49.174,584.000 51.209 M884.000 51.209 C 881.250 51.718,873.600 54.022,867.000 56.329 C 797.387 80.658,777.583 167.938,829.823 220.177 C 869.629 259.983,930.371 259.983,970.177 220.177 C 1022.446 167.909,1003.030 82.052,933.087 56.158 C 921.425 51.840,894.985 49.174,884.000 51.209 M284.000 351.209 C 281.250 351.718,273.600 354.022,267.000 356.329 C 197.387 380.658,177.583 467.938,229.823 520.177 C 269.629 559.983,330.371 559.983,370.177 520.177 C 422.446 467.909,403.030 382.052,333.087 356.158 C 321.425 351.840,294.985 349.174,284.000 351.209 M584.000 351.209 C 581.250 351.718,573.600 354.022,567.000 356.329 C 497.387 380.658,477.583 467.938,529.823 520.177 C 569.629 559.983,630.371 559.983,670.177 520.177 C 722.446 467.909,703.030 382.052,633.087 356.158 C 621.425 351.840,594.985 349.174,584.000 351.209 M884.000 351.209 C 881.250 351.718,873.600 354.022,867.000 356.329 C 797.387 380.658,777.583 467.938,829.823 520.177 C 869.629 559.983,930.371 559.983,970.177 520.177 C 1022.446 467.909,1003.030 382.052,933.087 356.158 C 921.425 351.840,894.985 349.174,884.000 351.209 M284.000 651.209 C 281.250 651.718,273.600 654.022,267.000 656.329 C 197.387 680.658,177.583 767.938,229.823 820.177 C 269.629 859.983,330.371 859.983,370.177 820.177 C 422.446 767.909,403.030 682.052,333.087 656.158 C 321.425 651.840,294.985 649.174,284.000 651.209 M584.000 651.209 C 581.250 651.718,573.600 654.022,567.000 656.329 C 497.387 680.658,477.583 767.938,529.823 820.177 C 569.629 859.983,630.371 859.983,670.177 820.177 C 722.446 767.909,703.030 682.052,633.087 656.158 C 621.425 651.840,594.985 649.174,584.000 651.209 M884.000 651.209 C 881.250 651.718,873.600 654.022,867.000 656.329 C 797.387 680.658,777.583 767.938,829.823 820.177 C 869.629 859.983,930.371 859.983,970.177 820.177 C 1022.446 767.909,1003.030 682.052,933.087 656.158 C 921.425 651.840,894.985 649.174,884.000 651.209 M584.000 951.209 C 543.854 958.643,510.301 990.802,502.210 1029.598 C 489.451 1090.782,537.548 1150.000,600.000 1150.000 C 646.006 1150.000,688.384 1115.505,697.790 1070.402 C 710.240 1010.697,666.052 953.789,605.087 951.015 C 596.239 950.612,586.750 950.699,584.000 951.209 " fill="#1D1E23" stroke="none" fill-rule="evenodd"></path></svg>