<svg width="1200" height="1200" viewBox="0 0 1200 1200" fill="none" xmlns="http://www.w3.org/2000/svg"><path d="M491.111 104.534 C 486.773 106.992,481.373 112.152,479.111 116.001 C 475.171 122.709,475.000 125.960,475.000 194.147 L 475.000 265.293 480.000 272.676 C 488.414 285.100,497.229 288.000,526.579 288.000 L 551.896 288.000 552.448 318.500 L 553.000 349.000 600.000 349.000 L 647.000 349.000 647.552 318.500 L 648.104 288.000 673.421 288.000 C 702.771 288.000,711.586 285.100,720.000 272.676 L 725.000 265.293 725.000 194.147 C 725.000 125.960,724.829 122.709,720.889 116.001 C 718.627 112.152,713.227 106.992,708.889 104.534 C 701.012 100.073,700.841 100.066,600.000 100.066 C 499.159 100.066,498.988 100.073,491.111 104.534 M262.000 385.895 C 184.782 402.309,125.199 460.170,105.367 538.000 C 101.557 552.953,101.036 560.418,101.036 600.000 C 101.036 639.582,101.557 647.047,105.367 662.000 C 124.076 735.425,177.040 790.368,249.000 811.002 C 275.709 818.661,309.390 820.615,394.000 819.416 C 456.731 818.527,469.532 817.826,485.000 814.428 C 537.420 802.914,583.451 771.684,612.390 728.000 C 641.847 683.533,648.672 650.372,647.583 557.000 L 647.000 507.000 600.000 507.000 L 553.000 507.000 551.901 574.000 C 551.250 613.685,549.925 643.493,548.651 647.116 C 538.783 675.169,515.441 702.503,492.000 713.456 C 468.006 724.667,464.548 725.000,372.000 725.000 C 289.890 725.000,286.524 724.850,273.000 720.584 C 238.281 709.632,213.303 686.134,200.129 652.030 C 195.368 639.707,195.095 636.885,195.095 600.000 C 195.095 563.115,195.368 560.293,200.129 547.970 C 210.322 521.583,228.201 500.846,251.433 488.464 C 271.110 477.976,282.508 476.000,323.327 476.000 C 364.780 476.000,358.596 478.569,373.883 455.000 C 388.995 431.700,414.579 405.958,438.494 389.988 L 450.456 382.000 364.728 382.141 C 290.019 382.263,276.815 382.746,262.000 385.895 M539.000 383.434 C 513.627 386.964,479.519 400.164,456.620 415.315 C 442.081 424.936,418.213 447.440,406.733 462.352 C 395.257 477.259,383.149 499.922,376.998 518.006 C 367.283 546.569,366.000 559.543,366.000 629.221 L 366.000 694.000 413.000 694.000 L 460.000 694.000 460.030 632.500 C 460.053 584.721,460.733 568.141,463.080 558.186 C 471.891 520.804,503.484 488.856,541.406 478.978 C 558.779 474.453,907.515 474.530,924.917 479.062 C 958.755 487.876,986.516 513.397,999.871 547.970 C 1004.632 560.293,1004.905 563.115,1004.905 600.000 C 1004.905 636.885,1004.632 639.707,999.871 652.030 C 986.896 685.618,962.374 708.981,928.000 720.503 C 915.311 724.757,911.840 724.886,782.745 725.930 L 650.490 727.000 638.102 745.524 C 623.680 767.087,602.822 789.063,583.000 803.579 C 575.300 809.218,567.200 815.179,565.000 816.827 C 561.436 819.495,578.770 819.828,724.000 819.879 C 813.650 819.911,897.389 819.076,910.087 818.023 C 1000.866 810.499,1072.232 750.158,1094.618 662.000 C 1098.387 647.155,1098.939 639.423,1098.967 601.000 C 1099.004 551.725,1096.996 538.544,1084.844 508.271 C 1064.827 458.406,1020.988 415.057,971.017 395.720 C 934.886 381.738,939.950 382.022,732.000 382.326 C 629.150 382.476,542.300 382.975,539.000 383.434 M366.000 880.778 L 366.000 911.555 337.319 912.297 C 309.539 913.015,308.408 913.214,301.317 918.623 C 287.616 929.073,287.793 927.841,288.429 1008.538 C 289.074 1090.334,288.584 1087.772,305.131 1095.971 C 312.953 1099.847,317.048 1100.000,412.696 1100.000 C 523.087 1100.000,521.046 1100.226,531.236 1086.871 L 537.000 1079.318 537.568 1009.159 C 538.133 939.492,538.105 938.937,533.568 930.046 C 526.166 915.537,519.897 913.123,487.500 912.308 L 460.000 911.616 460.000 880.808 L 460.000 850.000 413.000 850.000 L 366.000 850.000 366.000 880.778 M740.000 880.808 L 740.000 911.616 712.500 912.308 C 680.103 913.123,673.834 915.537,666.432 930.046 C 661.895 938.937,661.867 939.492,662.432 1009.159 L 663.000 1079.318 668.764 1086.871 C 678.954 1100.226,676.913 1100.000,787.304 1100.000 C 882.651 1100.000,887.077 1099.836,895.000 1096.000 C 900.267 1093.450,904.848 1089.181,907.632 1084.228 C 911.893 1076.647,912.000 1074.726,912.000 1006.128 C 912.000 928.044,912.127 928.877,898.683 918.623 C 891.592 913.214,890.461 913.015,862.681 912.297 L 834.000 911.555 834.000 880.778 L 834.000 850.000 787.000 850.000 L 740.000 850.000 740.000 880.808 " fill="#1D1E23" stroke="none" fill-rule="evenodd"></path></svg>