<svg width="1200" height="1200" viewBox="0 0 1200 1200" fill="none" xmlns="http://www.w3.org/2000/svg"><path d="M284.000 151.382 C 253.952 156.412,224.343 178.142,211.516 204.578 C 195.491 237.604,39.883 605.355,37.006 617.000 C 32.252 636.239,32.582 666.450,37.763 686.350 C 51.239 738.112,87.812 776.339,141.000 794.253 L 155.000 798.969 310.103 799.984 L 465.207 801.000 441.699 914.000 C 428.770 976.150,417.602 1032.001,416.881 1038.114 C 414.400 1059.160,424.772 1085.484,441.247 1099.948 C 458.179 1114.815,483.225 1122.099,503.207 1117.967 C 528.088 1112.822,523.534 1116.884,682.284 958.211 C 827.492 813.074,831.761 808.590,838.633 794.000 C 842.518 785.750,846.665 773.660,847.849 767.133 C 849.312 759.060,849.989 673.363,849.965 499.133 C 849.927 217.331,850.357 227.627,837.631 203.460 C 824.419 178.368,795.733 157.098,768.227 151.998 C 757.859 150.075,295.320 149.487,284.000 151.382 M1034.000 151.209 C 993.854 158.643,960.301 190.802,952.210 229.598 C 950.678 236.946,950.000 304.558,950.000 450.000 C 950.000 595.442,950.678 663.054,952.210 670.402 C 961.616 715.505,1003.994 750.000,1050.000 750.000 C 1096.006 750.000,1138.384 715.505,1147.790 670.402 C 1149.322 663.054,1150.000 595.442,1150.000 450.000 C 1150.000 304.558,1149.322 236.946,1147.790 229.598 C 1138.657 185.805,1100.029 153.060,1055.087 151.015 C 1046.239 150.612,1036.750 150.699,1034.000 151.209 " fill="#1D1E23" stroke="none" fill-rule="evenodd"></path></svg>