<svg width="1200" height="1200" viewBox="0 0 1200 1200" fill="none" xmlns="http://www.w3.org/2000/svg"><path d="M132.171 103.434 C 114.528 109.666,100.000 130.694,100.000 150.000 C 100.000 162.080,105.967 176.072,114.947 185.053 C 131.266 201.371,86.779 200.000,600.000 200.000 C 1113.221 200.000,1068.734 201.371,1085.053 185.053 C 1104.616 165.489,1104.616 134.511,1085.053 114.947 C 1068.727 98.622,1113.377 99.981,599.144 100.158 C 189.545 100.299,140.064 100.646,132.171 103.434 M401.688 528.767 C 381.160 536.157,365.194 550.599,356.382 569.750 C 351.991 579.295,351.196 583.880,351.139 600.000 C 351.077 617.392,351.615 620.118,357.501 632.213 C 368.168 654.135,388.340 669.272,412.948 673.821 C 429.307 676.845,770.693 676.845,787.052 673.821 C 811.660 669.272,831.832 654.135,842.499 632.213 C 848.360 620.168,848.929 617.320,848.929 600.000 C 848.929 582.680,848.360 579.832,842.499 567.787 C 835.188 552.762,823.495 540.955,807.680 532.625 L 797.000 527.000 603.000 526.568 C 446.796 526.219,407.576 526.648,401.688 528.767 M132.171 1003.434 C 114.528 1009.666,100.000 1030.694,100.000 1050.000 C 100.000 1062.080,105.967 1076.072,114.947 1085.053 C 131.266 1101.371,86.779 1100.000,600.000 1100.000 C 1113.221 1100.000,1068.734 1101.371,1085.053 1085.053 C 1104.616 1065.489,1104.616 1034.511,1085.053 1014.947 C 1068.727 998.622,1113.377 999.981,599.144 1000.158 C 189.545 1000.299,140.064 1000.646,132.171 1003.434 " fill="#1D1E23" stroke="none" fill-rule="evenodd"></path></svg>