<svg width="1200" height="1200" viewBox="0 0 1200 1200" fill="none" xmlns="http://www.w3.org/2000/svg"><path d="M132.171 103.434 C 120.364 107.604,107.459 120.822,103.312 132.991 C 100.267 141.928,100.000 179.602,100.000 600.000 C 100.000 1113.221,98.629 1068.734,114.947 1085.053 C 134.511 1104.616,165.489 1104.616,185.053 1085.053 C 201.371 1068.734,200.000 1113.221,200.000 600.000 C 200.000 86.779,201.371 131.266,185.053 114.947 C 171.176 101.071,151.185 96.718,132.171 103.434 M1032.171 103.434 C 1020.364 107.604,1007.459 120.822,1003.312 132.991 C 1000.267 141.928,1000.000 179.602,1000.000 600.000 C 1000.000 1113.221,998.629 1068.734,1014.947 1085.053 C 1034.511 1104.616,1065.489 1104.616,1085.053 1085.053 C 1101.371 1068.734,1100.000 1113.221,1100.000 600.000 C 1100.000 86.779,1101.371 131.266,1085.053 114.947 C 1071.176 101.071,1051.185 96.718,1032.171 103.434 M580.066 353.202 C 552.233 360.682,531.615 383.542,526.179 412.948 C 523.155 429.307,523.155 770.693,526.179 787.052 C 530.728 811.660,545.865 831.832,567.787 842.499 C 579.882 848.385,582.608 848.923,600.000 848.861 C 616.102 848.804,620.678 848.013,630.000 843.672 C 652.874 833.022,669.302 811.828,673.826 787.133 C 676.845 770.651,676.841 429.283,673.821 412.948 C 668.302 383.091,647.680 360.554,619.060 353.100 C 604.545 349.319,594.415 349.346,580.066 353.202 " fill="#1D1E23" stroke="none" fill-rule="evenodd"></path></svg>