<svg width="1200" height="1200" viewBox="0 0 1200 1200" fill="none" xmlns="http://www.w3.org/2000/svg"><path d="M136.000 52.173 C 119.744 55.306,95.975 68.665,82.259 82.378 C 68.310 96.324,56.035 118.858,52.180 137.598 C 49.102 152.562,49.102 1047.438,52.180 1062.402 C 53.379 1068.231,57.872 1080.358,62.165 1089.351 C 76.661 1119.718,105.079 1141.966,137.000 1147.936 C 145.709 1149.565,274.618 1150.019,607.000 1149.590 L 1065.000 1149.000 1077.000 1144.442 C 1103.931 1134.214,1125.790 1114.333,1137.956 1089.000 C 1142.182 1080.200,1146.621 1068.231,1147.820 1062.402 C 1149.343 1054.999,1150.000 950.512,1150.000 715.844 L 1150.000 379.884 989.500 214.984 L 829.000 50.084 487.000 50.261 C 298.900 50.359,140.950 51.219,136.000 52.173 M774.486 297.500 L 775.000 435.000 908.500 435.514 L 1042.000 436.028 1042.000 738.014 L 1042.000 1040.000 600.000 1040.000 L 158.000 1040.000 158.000 600.000 L 158.000 160.000 465.986 160.000 L 773.972 160.000 774.486 297.500 M564.000 599.120 C 548.050 602.558,525.884 613.267,514.474 623.048 C 474.759 657.091,455.774 737.045,467.026 822.875 C 476.369 894.150,507.196 936.710,560.000 951.235 C 578.082 956.209,621.887 956.224,639.840 951.263 C 688.157 937.910,718.376 900.376,731.068 837.950 C 732.740 829.728,734.657 808.150,735.327 790.000 C 737.372 734.665,731.266 698.415,713.844 662.462 C 696.794 627.277,671.083 606.585,635.000 599.009 C 617.548 595.345,581.251 595.402,564.000 599.120 M866.150 598.175 C 840.583 603.191,823.678 612.090,805.909 629.888 C 775.224 660.623,761.399 705.738,761.441 775.000 C 761.482 844.431,775.440 891.245,805.000 921.096 C 828.856 945.188,855.164 954.854,897.000 954.899 C 926.670 954.931,938.582 952.598,959.665 942.627 C 978.723 933.613,994.642 917.633,1005.507 896.610 C 1015.175 877.902,1021.536 858.678,1018.874 856.211 C 1016.899 854.381,959.237 839.999,953.878 840.000 C 951.813 840.000,949.900 843.339,948.227 849.869 C 945.347 861.104,934.372 880.360,927.574 886.104 C 920.235 892.304,902.842 896.650,890.955 895.253 C 865.927 892.311,853.277 880.129,844.948 850.944 C 840.479 835.287,838.396 745.230,841.895 718.937 C 847.710 675.241,864.227 656.039,896.000 656.039 C 921.672 656.039,937.203 668.307,946.131 695.639 C 948.531 702.987,951.143 709.715,951.936 710.588 C 952.728 711.462,968.367 708.425,986.688 703.840 C 1024.699 694.327,1023.002 696.088,1014.915 674.546 C 994.911 621.260,956.392 595.634,897.180 596.219 C 884.981 596.340,871.018 597.220,866.150 598.175 M192.000 776.040 L 192.000 950.346 263.500 949.534 C 332.950 948.745,335.468 948.578,351.323 943.712 C 390.763 931.608,416.154 905.439,430.796 861.803 C 445.518 817.931,446.367 741.985,432.674 694.000 C 420.764 652.265,392.434 621.034,355.155 608.543 L 339.000 603.130 265.500 602.432 L 192.000 601.735 192.000 776.040 M618.555 658.120 C 634.947 662.672,646.809 679.071,652.751 705.395 C 657.155 724.908,657.390 824.114,653.079 844.453 C 649.697 860.416,643.495 875.138,637.402 881.670 C 621.232 899.005,583.751 900.195,565.261 883.961 C 557.368 877.031,550.837 862.928,546.884 844.279 C 542.711 824.593,542.884 727.328,547.129 706.416 C 554.315 671.013,569.496 656.287,599.000 656.099 C 605.600 656.057,614.400 656.966,618.555 658.120 M328.022 665.229 C 345.782 673.345,357.256 690.255,361.844 715.071 C 365.215 733.306,364.583 824.278,360.979 839.563 C 351.656 879.107,330.250 893.394,283.000 891.605 L 267.000 891.000 266.484 775.303 L 265.967 659.607 292.484 660.357 C 313.909 660.962,320.732 661.898,328.022 665.229 " fill="#1D1E23" stroke="none" fill-rule="evenodd"></path></svg>