<svg width="1200" height="1200" viewBox="0 0 1200 1200" fill="none" xmlns="http://www.w3.org/2000/svg"><path d="M50.000 600.000 L 50.000 1150.000 600.000 1150.000 L 1150.000 1150.000 1150.000 749.495 L 1150.000 348.990 1000.495 199.495 L 850.990 50.000 450.495 50.000 L 50.000 50.000 50.000 600.000 M800.000 275.000 L 800.000 400.000 925.000 400.000 L 1050.000 400.000 1050.000 725.000 L 1050.000 1050.000 600.000 1050.000 L 150.000 1050.000 150.000 600.000 L 150.000 150.000 475.000 150.000 L 800.000 150.000 800.000 275.000 M867.000 600.253 C 845.099 602.985,826.431 613.110,807.000 632.795 C 785.456 654.620,774.741 676.889,766.003 718.000 C 762.448 734.726,761.237 784.095,763.722 811.005 C 766.564 841.794,771.937 862.286,783.382 886.000 C 790.839 901.450,795.397 907.835,807.776 920.172 C 833.986 946.294,852.594 952.657,903.000 952.737 C 928.614 952.777,934.639 952.172,944.212 948.599 C 965.855 940.520,982.603 927.280,997.386 906.564 C 1007.014 893.071,1017.857 869.870,1017.946 862.570 C 1018.017 856.749,1014.202 854.928,989.608 849.047 C 967.489 843.758,956.191 842.410,952.600 844.629 C 951.363 845.394,946.701 852.671,942.239 860.800 C 930.363 882.439,923.677 888.639,907.567 892.957 C 895.931 896.076,892.908 896.214,884.971 893.992 C 870.562 889.957,861.193 881.914,854.084 867.474 C 845.273 849.576,843.680 835.160,843.317 770.000 C 843.016 715.917,843.231 712.265,847.517 698.633 C 852.740 682.021,861.956 668.924,872.107 663.684 C 876.049 661.649,886.002 659.442,894.453 658.727 C 908.480 657.542,910.394 657.851,918.533 662.620 C 928.247 668.313,932.812 673.771,946.109 695.585 L 955.000 710.171 963.000 708.850 C 972.966 707.204,1001.969 698.902,1011.141 695.070 C 1019.190 691.707,1019.410 689.935,1013.687 674.575 C 1005.047 651.385,988.716 630.772,968.154 617.102 C 949.877 604.952,942.256 602.538,914.476 600.101 C 888.214 597.797,886.644 597.802,867.000 600.253 M561.000 601.955 C 550.190 603.921,543.943 606.634,530.665 615.128 C 515.995 624.512,499.599 640.132,492.236 651.736 C 485.749 661.961,475.360 690.019,470.784 709.670 C 462.425 745.569,463.451 812.244,472.921 848.569 C 485.600 897.203,507.205 926.198,543.768 943.650 C 562.725 952.698,587.478 955.642,619.916 952.706 C 639.558 950.928,643.614 949.850,658.435 942.468 C 686.922 928.280,707.786 903.792,720.073 870.126 C 742.453 808.802,740.268 721.531,715.020 668.368 C 706.813 651.084,704.052 647.312,686.713 629.675 C 669.304 611.969,655.655 604.834,633.993 602.118 C 615.333 599.778,573.486 599.685,561.000 601.955 M192.000 775.704 L 192.000 950.000 241.500 949.968 C 292.868 949.935,331.270 947.683,347.545 943.749 C 364.397 939.676,384.102 927.964,398.423 913.509 C 431.224 880.402,446.116 822.667,440.440 750.611 C 434.892 680.160,415.849 644.072,369.942 617.014 C 353.117 607.097,352.848 607.019,331.000 605.687 C 318.900 604.950,282.675 603.685,250.500 602.877 L 192.000 601.407 192.000 775.704 M623.107 662.966 C 641.575 672.236,649.365 690.803,652.597 733.249 C 654.092 752.887,654.137 775.137,652.744 806.249 C 650.834 848.920,650.478 851.582,645.087 863.524 C 634.959 885.956,619.057 895.528,595.442 893.407 C 577.221 891.770,566.433 885.240,558.777 871.211 C 548.445 852.278,546.999 840.219,547.005 773.000 C 547.008 721.725,547.525 711.129,550.557 700.133 C 554.868 684.499,561.265 672.636,568.116 667.574 C 582.502 656.942,607.015 654.888,623.107 662.966 M297.579 662.113 C 324.732 665.067,330.891 667.060,339.181 675.569 C 357.400 694.272,361.998 713.967,361.931 773.000 C 361.856 837.634,357.042 859.156,338.919 875.861 C 328.074 885.857,314.852 889.963,288.829 891.415 L 268.658 892.541 267.332 821.770 C 266.603 782.847,266.005 730.525,266.003 705.500 L 266.000 660.000 272.079 660.000 C 275.422 660.000,286.897 660.951,297.579 662.113 " fill="#1D1E23" stroke="none" fill-rule="evenodd"></path></svg>