<svg width="1200" height="1200" viewBox="0 0 1200 1200" fill="none" xmlns="http://www.w3.org/2000/svg"><path d="M284.000 101.340 C 273.722 102.974,254.657 110.749,244.526 117.438 C 223.539 131.296,207.312 155.132,202.210 179.598 C 199.081 194.606,199.081 1005.394,202.210 1020.402 C 210.026 1057.883,242.117 1089.974,279.598 1097.790 C 294.557 1100.909,905.443 1100.909,920.402 1097.790 C 957.883 1089.974,989.974 1057.883,997.790 1020.402 C 999.348 1012.931,999.966 924.102,999.885 719.402 C 999.756 395.834,1000.577 415.346,986.092 391.446 C 975.906 374.640,718.734 118.725,704.561 111.292 C 683.051 100.011,683.830 100.048,478.000 100.307 C 374.050 100.438,286.750 100.902,284.000 101.340 M808.571 449.516 C 677.777 450.102,680.244 450.349,664.993 435.098 C 649.727 419.832,650.000 422.454,650.000 291.149 L 650.000 175.011 787.006 312.005 L 924.012 449.000 808.571 449.516 M773.036 606.109 C 808.086 624.149,808.086 675.851,773.036 693.891 L 763.110 699.000 603.177 699.535 C 422.618 700.140,430.651 700.756,414.993 685.098 C 395.365 665.471,395.361 634.533,414.983 614.911 C 430.348 599.547,421.316 600.236,602.055 600.640 L 763.109 601.000 773.036 606.109 M773.036 806.109 C 808.086 824.149,808.086 875.851,773.036 893.891 L 763.110 899.000 603.177 899.535 C 422.618 900.140,430.651 900.756,414.993 885.098 C 395.365 865.471,395.361 834.533,414.983 814.911 C 430.348 799.547,421.316 800.236,602.055 800.640 L 763.109 801.000 773.036 806.109 " fill="#1D1E23" stroke="none" fill-rule="evenodd"></path></svg>