<svg width="1200" height="1200" viewBox="0 0 1200 1200" fill="none" xmlns="http://www.w3.org/2000/svg"><path d="M564.000 101.211 C 478.563 108.820,415.881 128.541,346.478 169.649 C 291.438 202.249,250.463 237.633,211.624 286.102 C 149.241 363.954,114.743 447.672,102.882 550.000 C 92.907 636.044,111.883 737.552,153.915 823.000 C 181.149 878.364,205.862 911.983,253.223 958.098 C 295.856 999.609,329.962 1024.000,380.158 1048.875 C 424.735 1070.966,494.404 1092.627,537.948 1097.934 C 558.982 1100.498,636.319 1100.547,662.361 1098.013 C 694.999 1094.837,753.065 1078.615,795.638 1060.778 C 908.366 1013.549,1004.941 919.582,1055.143 808.278 C 1075.830 762.413,1093.165 702.725,1097.917 661.000 C 1100.568 637.727,1100.569 581.643,1097.921 548.790 C 1090.871 461.353,1050.786 361.588,994.342 291.000 C 975.765 267.768,939.881 231.563,917.000 212.966 C 846.404 155.589,757.535 116.301,672.602 104.921 C 649.815 101.868,582.460 99.567,564.000 101.211 M683.000 207.867 C 838.436 241.696,959.755 364.245,991.011 519.000 C 1013.939 632.525,988.189 746.912,918.298 842.000 C 904.972 860.132,868.418 898.027,848.487 914.375 C 777.861 972.302,664.317 1008.051,576.420 1000.034 C 422.917 986.033,304.673 905.107,240.281 769.981 C 171.585 625.821,196.975 451.188,303.870 332.634 C 314.961 320.332,331.003 304.276,339.518 296.955 C 382.949 259.610,449.254 225.581,507.000 211.000 C 537.544 203.288,551.368 202.173,608.000 202.853 C 655.392 203.423,665.766 204.116,683.000 207.867 M550.000 273.764 L 550.000 299.529 532.516 304.980 C 501.356 314.695,478.128 328.351,454.241 351.000 C 436.974 367.372,427.260 381.030,415.073 406.069 C 402.916 431.045,401.338 440.426,402.468 480.974 C 403.534 519.224,405.954 528.526,421.977 555.960 C 447.528 599.710,481.237 626.958,529.521 642.891 C 539.440 646.164,546.833 649.820,548.021 652.040 C 549.221 654.282,550.000 684.124,550.000 727.869 L 550.000 800.000 475.000 800.000 L 400.000 800.000 400.000 851.000 L 400.000 902.000 475.000 902.000 L 550.000 902.000 550.000 927.034 L 550.000 952.069 600.500 951.534 L 651.000 951.000 652.000 925.212 L 653.000 899.424 668.385 894.988 C 721.028 879.812,757.556 848.940,783.754 797.483 C 796.797 771.865,798.485 762.306,797.616 718.991 C 796.907 683.649,796.773 682.699,790.223 666.296 C 777.681 634.890,750.740 601.085,723.094 582.065 C 710.257 573.233,679.654 558.994,664.500 554.802 L 652.000 551.344 652.000 474.672 L 652.000 398.000 727.000 398.000 L 802.000 398.000 802.000 348.000 L 802.000 298.000 727.000 298.000 L 652.000 298.000 652.000 273.000 L 652.000 248.000 601.000 248.000 L 550.000 248.000 550.000 273.764 M550.000 474.000 C 550.000 512.500,549.235 544.000,548.300 544.000 C 541.718 544.000,519.909 522.174,510.330 506.000 C 505.301 497.508,505.027 495.728,505.484 474.475 C 505.998 450.512,508.157 442.416,517.188 430.575 C 522.824 423.186,545.144 404.000,548.104 404.000 C 549.263 404.000,550.000 431.222,550.000 474.000 M665.320 663.658 C 678.111 673.776,687.684 684.884,692.219 694.869 C 697.258 705.962,697.605 745.036,692.751 754.599 C 685.669 768.551,668.847 786.927,657.500 793.107 L 652.000 796.103 652.000 726.051 C 652.000 685.291,652.761 656.000,653.820 656.000 C 654.822 656.000,659.997 659.446,665.320 663.658 " fill="#1D1E23" stroke="none" fill-rule="evenodd"></path></svg>