<svg width="1200" height="1200" viewBox="0 0 1200 1200" fill="none" xmlns="http://www.w3.org/2000/svg"><path d="M536.000 104.175 C 409.338 120.426,289.028 188.110,209.301 287.971 C 165.450 342.895,130.206 414.996,113.968 483.000 C 103.461 527.000,101.078 548.629,101.078 600.000 C 101.078 651.907,103.540 673.940,114.239 717.775 C 131.219 787.348,165.072 856.368,209.993 913.000 C 226.298 933.555,266.445 973.702,287.000 990.007 C 354.071 1043.209,441.822 1082.007,522.000 1093.911 C 530.250 1095.135,539.925 1096.597,543.500 1097.159 L 550.000 1098.181 550.000 1047.365 L 550.000 996.549 534.500 994.145 C 500.196 988.825,453.492 973.747,421.193 957.566 C 318.681 906.208,241.274 810.723,213.201 701.000 C 203.607 663.501,201.305 643.955,201.305 600.000 C 201.305 556.045,203.607 536.499,213.201 499.000 C 250.795 352.062,372.663 237.544,522.499 208.357 L 549.999 203.000 549.999 152.500 C 550.000 124.725,549.775 102.114,549.500 102.254 C 549.225 102.393,543.150 103.258,536.000 104.175 M650.000 152.946 L 650.000 203.170 674.135 207.616 C 728.418 217.618,785.185 241.628,829.186 273.197 L 844.676 284.310 880.431 248.555 L 916.187 212.799 898.105 199.297 C 830.050 148.477,745.115 113.988,664.500 104.440 L 650.000 102.723 650.000 152.946 M951.330 319.670 L 915.701 355.340 926.809 370.822 C 958.372 414.814,982.383 471.586,992.384 525.865 L 996.830 550.000 1047.439 550.000 L 1098.047 550.000 1096.891 541.500 C 1084.515 450.508,1053.287 372.711,1000.556 301.500 C 993.429 291.875,987.454 284.000,987.278 284.000 C 987.102 284.000,970.925 300.052,951.330 319.670 M550.000 475.000 L 550.000 600.000 450.502 600.000 L 351.004 600.000 475.502 724.498 L 600.000 848.996 724.498 724.498 L 848.996 600.000 749.498 600.000 L 650.000 600.000 650.000 475.000 L 650.000 350.000 600.000 350.000 L 550.000 350.000 550.000 475.000 M992.303 674.635 C 982.301 729.363,952.737 796.962,921.437 836.674 L 915.389 844.347 951.194 880.213 L 987.000 916.079 992.583 909.540 C 1003.825 896.371,1033.906 849.513,1044.576 828.547 C 1071.385 775.871,1087.946 722.003,1096.855 658.500 L 1098.047 650.000 1047.427 650.000 L 996.806 650.000 992.303 674.635 M831.000 925.365 C 802.214 947.125,761.599 967.517,720.917 980.634 C 699.542 987.526,662.741 996.000,654.186 996.000 C 650.048 996.000,650.000 996.579,650.000 1046.962 L 650.000 1097.923 659.500 1096.769 C 683.320 1093.874,730.212 1083.264,754.422 1075.292 C 805.149 1058.587,855.220 1032.765,896.180 1002.187 L 916.200 987.240 880.621 951.620 C 861.052 932.029,844.582 916.066,844.021 916.147 C 843.459 916.227,837.600 920.376,831.000 925.365 " fill="#1D1E23" stroke="none" fill-rule="evenodd"></path></svg>