<svg width="1200" height="1200" viewBox="0 0 1200 1200" fill="none" xmlns="http://www.w3.org/2000/svg"><path d="M464.014 119.189 C 309.360 162.241,181.036 282.641,128.412 434.067 C 108.150 492.375,101.078 535.301,101.078 600.000 C 101.078 652.165,103.598 674.723,114.250 717.933 C 144.612 841.098,217.806 945.539,323.639 1016.710 C 366.705 1045.672,424.140 1071.154,476.000 1084.309 L 501.000 1090.650 512.583 1087.245 C 546.551 1077.259,560.293 1038.825,540.425 1009.374 C 533.188 998.645,522.356 993.014,493.810 985.139 C 381.171 954.069,289.162 876.719,238.627 770.615 C 201.759 693.204,191.098 602.547,208.875 517.594 C 239.544 371.025,351.819 252.644,496.854 213.952 C 509.973 210.452,524.075 205.360,528.191 202.636 C 542.762 192.994,551.254 174.726,549.421 156.967 C 546.716 130.762,526.010 111.988,500.000 112.161 C 493.780 112.202,478.142 115.256,464.014 119.189 M680.000 116.036 C 662.603 124.154,652.517 138.190,650.578 156.982 C 648.196 180.052,662.839 202.552,684.274 208.759 C 740.749 225.111,764.755 234.317,792.463 250.246 C 800.458 254.842,810.747 260.750,815.326 263.375 C 834.490 274.360,857.524 270.666,874.265 253.925 C 891.534 236.656,894.225 211.626,880.967 191.591 C 864.726 167.049,748.598 115.582,703.000 112.716 C 691.698 112.006,687.266 112.646,680.000 116.036 M970.241 312.291 C 948.485 316.238,932.412 335.107,930.503 358.941 C 929.591 370.327,930.053 371.949,938.785 388.000 C 963.770 433.924,979.793 472.236,986.985 503.247 C 990.928 520.250,996.271 530.283,1005.379 537.791 C 1037.619 564.366,1088.020 542.785,1088.296 502.286 C 1088.517 469.853,1049.233 370.609,1020.496 331.000 C 1009.920 316.423,989.454 308.804,970.241 312.291 M582.171 353.434 C 577.315 355.149,569.581 360.314,564.983 364.911 C 549.885 380.009,550.000 379.003,550.000 496.356 L 550.000 600.000 507.500 600.011 C 482.644 600.018,461.695 600.940,457.039 602.233 C 429.984 609.743,414.239 639.370,423.023 666.238 C 426.282 676.207,431.783 682.269,497.724 748.541 C 547.867 798.937,571.581 821.394,577.953 824.522 C 590.543 830.700,609.646 830.574,622.000 824.231 C 633.802 818.170,767.870 684.372,773.535 673.000 C 785.985 648.010,776.325 618.838,751.136 605.355 C 743.565 601.303,739.770 600.956,696.500 600.367 L 650.000 599.734 650.000 496.223 C 650.000 379.060,650.107 380.002,635.053 364.947 C 621.176 351.071,601.185 346.718,582.171 353.434 M1020.274 654.738 C 1011.393 657.952,998.774 668.702,994.752 676.480 C 992.979 679.909,988.959 692.303,985.819 704.024 C 978.169 732.575,964.463 766.237,949.590 793.000 C 942.866 805.100,935.933 817.700,934.182 821.000 C 929.439 829.943,930.100 850.931,935.447 861.136 C 945.984 881.246,968.948 892.685,990.000 888.310 C 1011.330 883.877,1021.343 872.995,1043.659 830.000 C 1066.618 785.764,1088.044 723.049,1087.956 700.340 C 1087.881 681.004,1076.706 663.765,1059.044 655.742 C 1049.737 651.514,1030.556 651.018,1020.274 654.738 M825.835 931.909 C 822.994 932.770,811.744 938.729,800.835 945.151 C 768.517 964.174,735.104 977.445,685.347 991.021 C 648.991 1000.941,638.268 1048.505,666.325 1075.399 C 684.734 1093.045,703.370 1092.380,763.119 1071.940 C 802.826 1058.356,860.891 1028.801,874.389 1015.303 C 893.921 995.772,892.140 959.984,870.758 942.301 C 858.552 932.207,839.440 927.786,825.835 931.909 " fill="#1D1E23" stroke="none" fill-rule="evenodd"></path></svg>