<svg width="1200" height="1200" viewBox="0 0 1200 1200" fill="none" xmlns="http://www.w3.org/2000/svg"><path d="M482.171 153.434 C 477.315 155.149,469.581 160.314,464.983 164.911 C 449.598 180.297,450.000 176.100,450.000 321.356 L 450.000 450.000 407.500 450.011 C 382.644 450.018,361.695 450.940,357.039 452.233 C 329.999 459.739,314.262 489.330,322.999 516.238 C 326.297 526.396,333.295 533.819,447.746 648.560 C 535.175 736.209,571.511 771.353,578.000 774.540 C 590.533 780.697,609.660 780.565,622.000 774.237 C 634.735 767.706,867.802 534.536,874.125 522.000 C 883.157 504.091,878.969 479.276,864.465 464.772 C 851.557 451.865,847.783 451.065,796.500 450.367 L 750.000 449.734 750.000 321.223 C 750.000 176.161,750.395 180.290,735.053 164.947 C 719.910 149.805,721.514 149.979,599.144 150.158 C 506.580 150.293,489.728 150.765,482.171 153.434 M282.171 903.434 C 264.528 909.666,250.000 930.694,250.000 950.000 C 250.000 962.080,255.967 976.072,264.947 985.053 C 281.064 1001.169,254.861 1000.000,600.000 1000.000 C 945.139 1000.000,918.936 1001.169,935.053 985.053 C 954.616 965.489,954.616 934.511,935.053 914.947 C 918.925 898.820,945.293 899.981,599.144 900.158 C 325.412 900.298,290.014 900.664,282.171 903.434 " fill="#1D1E23" stroke="none" fill-rule="evenodd"></path></svg>