<svg width="1200" height="1200" viewBox="0 0 1200 1200" fill="none" xmlns="http://www.w3.org/2000/svg"><path d="M556.000 101.962 C 416.815 115.884,295.232 181.194,209.663 288.000 C 73.683 457.729,63.352 695.839,184.124 876.644 C 338.485 1107.735,647.309 1169.297,878.000 1014.964 C 1107.746 861.264,1168.863 552.043,1014.964 322.000 C 936.423 204.599,815.946 128.109,674.644 105.934 C 645.457 101.354,582.987 99.262,556.000 101.962 M750.931 552.842 C 764.669 558.582,768.287 577.607,758.227 591.200 C 747.623 605.528,615.266 735.238,608.533 737.900 C 594.405 743.488,594.432 743.509,512.461 661.435 L 436.000 584.879 436.000 575.593 C 436.000 565.619,442.454 555.329,450.837 551.938 C 453.127 551.011,520.054 550.196,599.564 550.127 C 720.191 550.021,745.255 550.471,750.931 552.842 " fill="#1D1E23" stroke="none" fill-rule="evenodd"></path></svg>