<svg width="1200" height="1200" viewBox="0 0 1200 1200" fill="none" xmlns="http://www.w3.org/2000/svg"><path d="M288.558 202.531 C 285.015 203.889,276.505 209.050,269.646 214.000 C 253.728 225.489,209.958 268.681,195.340 287.325 C 144.020 352.781,110.499 436.317,102.089 519.712 C 99.379 546.578,99.379 703.422,102.089 730.288 C 110.513 813.820,144.629 898.695,195.498 962.675 C 224.560 999.226,273.955 1043.676,290.457 1048.127 C 328.092 1058.278,361.309 1020.030,345.922 984.261 C 342.257 975.742,338.001 970.887,324.182 959.463 C 250.466 898.518,206.409 817.905,196.041 725.000 C 194.937 715.100,194.033 670.100,194.033 625.000 C 194.033 579.900,194.937 534.900,196.041 525.000 C 206.409 432.095,250.466 351.482,324.182 290.537 C 338.001 279.113,342.257 274.258,345.922 265.739 C 358.646 236.161,338.613 203.034,306.686 200.858 C 300.183 200.415,292.143 201.157,288.558 202.531 M881.496 202.854 C 855.163 212.251,842.903 241.676,854.736 267.086 C 858.271 274.677,863.582 280.594,876.216 291.012 C 933.722 338.434,973.583 398.740,992.816 467.416 C 1004.631 509.602,1005.000 514.380,1005.000 625.000 C 1005.000 715.218,1004.581 729.195,1001.370 746.000 C 984.531 834.149,944.691 901.838,875.808 959.334 C 862.109 970.769,857.719 975.799,854.104 984.202 C 838.676 1020.065,871.778 1058.314,909.449 1048.152 C 924.815 1044.008,967.131 1006.977,996.472 972.000 C 1052.810 904.839,1089.007 818.588,1097.911 730.288 C 1100.621 703.422,1100.621 546.578,1097.911 519.712 C 1088.997 431.318,1052.866 345.282,996.315 277.791 C 969.107 245.320,927.512 208.468,911.525 202.671 C 902.801 199.507,890.667 199.581,881.496 202.854 M351.116 356.984 C 340.030 360.933,334.749 365.269,320.700 381.955 C 297.915 409.015,277.897 447.366,267.189 484.471 C 256.850 520.294,255.632 537.545,256.530 635.423 C 257.427 733.232,257.960 738.471,271.101 778.564 C 287.871 829.724,328.541 887.342,352.529 893.922 C 376.294 900.441,402.076 887.044,409.724 864.202 C 412.907 854.693,412.559 839.209,408.967 830.613 C 407.299 826.621,402.062 818.775,397.330 813.177 C 377.571 789.806,364.146 764.585,356.323 736.140 L 351.059 717.000 351.059 625.000 L 351.059 533.000 356.323 513.860 C 364.146 485.415,377.571 460.194,397.330 436.823 C 408.243 423.915,412.005 414.860,411.980 401.564 C 411.941 380.345,399.006 362.921,378.772 356.831 C 367.169 353.339,361.255 353.372,351.116 356.984 M819.255 356.817 C 800.992 363.608,789.789 378.614,788.374 398.183 C 787.290 413.172,790.407 421.865,801.805 435.637 C 823.341 461.657,836.943 487.670,844.477 517.246 C 848.841 534.374,849.000 538.138,849.000 624.000 C 849.000 691.676,848.350 715.875,846.288 725.000 C 838.585 759.085,824.152 788.341,803.368 812.000 C 788.754 828.635,784.662 845.364,790.460 864.768 C 795.400 881.302,816.824 896.033,835.856 895.980 C 847.983 895.947,862.077 887.813,874.311 873.787 C 905.585 837.930,927.339 793.725,938.486 743.377 C 942.829 723.760,942.997 719.347,942.997 625.000 C 942.997 530.653,942.829 526.240,938.486 506.623 C 929.999 468.290,915.680 434.218,894.939 403.000 C 880.790 381.705,865.356 364.773,855.518 359.754 C 845.049 354.413,829.176 353.128,819.255 356.817 M513.000 438.960 C 466.147 449.274,431.219 481.961,416.669 529.112 C 413.357 539.842,413.000 549.183,413.000 625.000 C 413.000 718.549,412.935 718.002,427.410 746.881 C 437.345 766.702,461.547 790.405,482.258 800.598 C 507.525 813.033,515.448 813.931,600.000 813.931 C 684.224 813.931,691.974 813.066,717.629 800.814 C 737.832 791.166,763.881 765.482,773.336 745.888 C 787.040 717.487,787.000 717.842,787.000 625.000 C 787.000 532.180,787.044 532.568,773.355 504.112 C 764.179 485.036,738.050 459.315,718.000 449.621 C 692.205 437.148,681.832 435.979,598.584 436.159 C 545.524 436.274,521.653 437.055,513.000 438.960 M678.000 535.046 C 682.145 537.442,686.835 542.712,689.500 547.970 C 693.905 556.660,694.000 558.287,694.000 625.000 C 694.000 691.699,693.904 693.343,689.500 702.076 C 686.213 708.595,682.595 712.213,676.076 715.500 C 667.350 719.900,665.662 720.000,600.000 720.000 C 534.338 720.000,532.650 719.900,523.924 715.500 C 517.405 712.213,513.787 708.595,510.500 702.076 C 506.093 693.338,506.001 691.740,506.044 625.076 C 506.109 523.587,499.702 529.835,603.000 530.537 C 667.152 530.974,671.396 531.229,678.000 535.046 " fill="#1D1E23" stroke="none" fill-rule="evenodd"></path></svg>