<svg width="1200" height="1200" viewBox="0 0 1200 1200" fill="none" xmlns="http://www.w3.org/2000/svg"><path d="M769.495 163.505 L 706.004 227.020 800.004 321.004 L 894.004 414.988 957.499 351.493 L 1020.993 287.999 926.990 193.995 L 832.986 99.991 769.495 163.505 M425.497 507.503 L 200.000 733.007 200.000 827.503 L 200.000 922.000 293.503 922.000 L 387.007 922.000 613.998 695.002 L 840.989 468.005 748.002 375.002 C 696.860 323.851,654.111 282.000,653.005 282.000 C 651.898 282.000,549.520 383.476,425.497 507.503 M100.000 1111.000 L 100.000 1200.000 600.000 1200.000 L 1100.000 1200.000 1100.000 1111.000 L 1100.000 1022.000 600.000 1022.000 L 100.000 1022.000 100.000 1111.000 " fill="#1D1E23" stroke="none" fill-rule="evenodd"></path></svg>