<svg width="1200" height="1200" viewBox="0 0 1200 1200" fill="none" xmlns="http://www.w3.org/2000/svg"><path d="M819.987 101.869 C 808.417 105.388,800.713 112.028,755.009 157.874 L 707.018 206.013 800.503 299.497 L 893.987 392.982 942.927 344.073 C 997.706 289.328,1001.125 284.505,999.587 264.132 C 999.125 258.010,997.078 249.400,995.038 245.000 C 992.624 239.792,969.284 214.873,928.165 173.602 C 875.866 121.110,863.108 109.329,854.000 105.121 C 842.875 99.981,830.182 98.768,819.987 101.869 M430.999 481.952 C 255.162 657.741,208.070 705.877,204.526 713.445 C 200.174 722.739,200.051 724.836,200.026 790.144 C 199.996 866.851,200.603 870.708,214.947 885.053 C 229.250 899.356,233.288 900.000,308.624 900.000 C 352.463 900.000,377.293 899.225,382.768 897.685 C 389.942 895.668,419.851 866.562,615.512 671.185 L 840.024 447.000 746.511 353.507 L 652.997 260.013 430.999 481.952 M184.000 1001.326 C 173.657 1002.999,154.635 1010.764,144.526 1017.438 C 117.393 1035.355,100.000 1067.605,100.000 1100.000 C 100.000 1146.006,134.495 1188.384,179.598 1197.790 C 194.606 1200.919,1005.394 1200.919,1020.402 1197.790 C 1057.883 1189.974,1089.974 1157.883,1097.790 1120.402 C 1107.933 1071.760,1081.589 1025.155,1033.000 1005.784 L 1021.000 1001.000 605.000 1000.758 C 376.200 1000.626,186.750 1000.881,184.000 1001.326 " fill="#1D1E23" stroke="none" fill-rule="evenodd"></path></svg>