<svg width="1200" height="1200" viewBox="0 0 1200 1200" fill="none" xmlns="http://www.w3.org/2000/svg"><path d="M869.987 151.869 C 858.417 155.388,850.713 162.028,805.009 207.874 L 757.018 256.013 850.503 349.497 L 943.987 442.982 992.201 394.991 C 1043.849 343.581,1049.942 335.487,1049.980 318.232 C 1050.026 297.707,1050.206 297.941,979.154 226.273 C 907.968 154.470,902.231 149.883,884.000 150.191 C 879.050 150.275,872.744 151.030,869.987 151.869 M426.995 586.005 L 151.000 862.005 151.000 948.964 L 151.000 1035.923 157.537 1042.462 L 164.073 1049.000 247.466 1049.565 C 303.098 1049.941,332.569 1049.421,335.995 1048.002 C 338.820 1046.832,464.627 922.376,615.568 771.432 L 890.005 496.989 796.497 403.497 L 702.989 310.005 426.995 586.005 " fill="#1D1E23" stroke="none" fill-rule="evenodd"></path></svg>