<svg width="1200" height="1200" viewBox="0 0 1200 1200" fill="none" xmlns="http://www.w3.org/2000/svg"><path d="M308.800 291.782 C 304.510 294.962,236.068 362.687,156.706 442.282 C 4.039 595.397,7.753 591.215,11.068 606.310 C 12.820 614.287,29.337 631.237,190.291 790.233 L 315.582 914.000 324.820 914.000 C 332.549 914.000,335.279 912.882,341.529 907.157 L 349.000 900.314 349.600 849.765 L 350.200 799.215 250.608 699.608 L 151.015 600.000 250.608 500.392 L 350.200 400.785 349.600 350.235 L 349.000 299.686 341.529 292.843 C 331.534 283.687,320.215 283.320,308.800 291.782 M608.800 291.782 C 604.510 294.962,536.068 362.687,456.706 442.282 C 303.856 595.581,307.817 591.115,311.047 606.500 C 312.137 611.692,341.456 642.129,456.706 757.718 C 536.068 837.313,604.510 905.038,608.800 908.218 C 620.216 916.680,631.534 916.313,641.529 907.155 L 649.000 900.311 649.569 822.851 L 650.138 745.391 691.569 746.627 C 833.428 750.860,949.211 784.299,1046.000 848.987 C 1100.969 885.725,1146.492 928.921,1187.102 982.877 C 1193.406 991.252,1198.887 997.780,1199.283 997.384 C 1200.530 996.137,1180.770 920.037,1172.958 896.000 C 1093.382 651.157,924.526 500.326,679.367 455.098 C 664.169 452.294,651.375 450.000,650.936 450.000 C 650.498 450.000,649.883 416.180,649.570 374.844 L 649.000 299.689 641.529 292.844 C 631.534 283.687,620.216 283.320,608.800 291.782 " fill="#1D1E23" stroke="none" fill-rule="evenodd"></path></svg>