<svg width="1200" height="1200" viewBox="0 0 1200 1200" fill="none" xmlns="http://www.w3.org/2000/svg"><path d="M180.113 202.167 C 153.459 207.435,124.394 229.448,112.203 253.598 C 99.418 278.924,100.062 260.585,100.030 600.402 C 100.009 818.663,100.651 912.925,102.210 920.402 C 110.026 957.883,142.117 989.974,179.598 997.790 C 194.606 1000.919,1005.394 1000.919,1020.402 997.790 C 1057.883 989.974,1089.974 957.883,1097.790 920.402 C 1100.909 905.443,1100.909 294.557,1097.790 279.598 C 1090.894 246.531,1067.041 219.355,1033.000 205.784 L 1021.000 201.000 605.000 200.705 C 372.779 200.541,185.074 201.186,180.113 202.167 M256.000 336.722 C 259.850 338.122,338.822 386.682,431.493 444.631 L 599.986 549.994 771.032 443.114 C 909.520 356.578,943.799 335.975,951.116 334.878 C 964.617 332.853,977.258 337.153,987.284 347.179 C 1004.161 364.056,1004.177 387.944,987.322 405.061 C 979.111 413.400,633.195 631.198,618.235 637.449 C 609.149 641.245,590.825 641.234,581.714 637.427 C 566.690 631.150,220.906 413.431,212.678 405.068 C 195.696 387.808,195.828 364.067,213.002 346.893 C 225.205 334.690,240.481 331.076,256.000 336.722 " fill="#1D1E23" stroke="none" fill-rule="evenodd"></path></svg>