<svg width="1200" height="1200" viewBox="0 0 1200 1200" fill="none" xmlns="http://www.w3.org/2000/svg"><path d="M100.000 600.000 L 100.000 1000.000 600.000 1000.000 L 1100.000 1000.000 1100.000 600.000 L 1100.000 200.000 600.000 200.000 L 100.000 200.000 100.000 600.000 M996.900 301.698 C 995.855 302.632,906.125 358.884,797.500 426.701 L 600.000 550.005 402.500 426.701 C 293.875 358.884,204.145 302.632,203.100 301.698 C 202.055 300.764,380.660 300.000,600.000 300.000 C 819.340 300.000,997.945 300.764,996.900 301.698 M415.500 534.695 L 600.000 650.003 784.500 534.695 C 885.975 471.275,975.975 415.018,984.500 409.680 L 1000.000 399.973 1000.000 649.986 L 1000.000 900.000 600.000 900.000 L 200.000 900.000 200.000 649.986 L 200.000 399.973 215.500 409.680 C 224.025 415.018,314.025 471.275,415.500 534.695 " fill="#1D1E23" stroke="none" fill-rule="evenodd"></path></svg>