<svg width="1200" height="1200" viewBox="0 0 1200 1200" fill="none" xmlns="http://www.w3.org/2000/svg"><path d="M180.113 202.167 C 153.459 207.435,124.394 229.448,112.203 253.598 C 99.418 278.924,100.062 260.585,100.030 600.402 C 100.009 818.663,100.651 912.925,102.210 920.402 C 110.026 957.883,142.117 989.974,179.598 997.790 C 194.606 1000.919,1005.394 1000.919,1020.402 997.790 C 1057.883 989.974,1089.974 957.883,1097.790 920.402 C 1100.909 905.443,1100.909 294.557,1097.790 279.598 C 1090.894 246.531,1067.041 219.355,1033.000 205.784 L 1021.000 201.000 605.000 200.705 C 372.779 200.541,185.074 201.186,180.113 202.167 M996.900 301.698 C 995.855 302.632,906.125 358.884,797.500 426.701 L 600.000 550.005 402.500 426.701 C 293.875 358.884,204.145 302.632,203.100 301.698 C 202.055 300.764,380.660 300.000,600.000 300.000 C 819.340 300.000,997.945 300.764,996.900 301.698 M386.803 516.982 C 477.994 574.032,558.094 623.011,564.803 625.823 C 575.534 630.323,579.764 630.930,600.000 630.878 C 618.989 630.830,624.958 630.043,634.229 626.367 C 640.405 623.919,725.005 572.132,822.229 511.286 L 999.000 400.656 999.509 627.787 C 1000.082 883.957,1000.900 869.206,985.265 884.841 C 968.814 901.291,1001.626 900.000,600.000 900.000 C 198.842 900.000,231.149 901.254,214.947 885.053 C 199.034 869.139,200.000 885.713,200.000 628.582 L 200.000 399.877 210.500 406.566 C 216.275 410.245,295.611 459.932,386.803 516.982 " fill="#1D1E23" stroke="none" fill-rule="evenodd"></path></svg>