<svg width="1200" height="1200" viewBox="0 0 1200 1200" fill="none" xmlns="http://www.w3.org/2000/svg"><path d="M556.000 101.962 C 416.815 115.884,295.232 181.194,209.663 288.000 C 60.486 474.201,64.228 740.009,218.601 923.000 C 302.142 1022.027,424.692 1085.919,554.000 1097.862 C 567.563 1099.115,633.007 1099.989,713.500 1099.993 L 850.000 1100.000 850.000 1050.107 L 850.000 1000.214 703.500 999.492 C 577.862 998.872,554.436 998.297,538.994 995.456 C 451.988 979.447,378.846 941.249,318.000 880.046 C 202.243 763.607,168.617 594.339,231.973 447.000 C 252.500 399.265,281.692 356.343,319.017 319.017 C 435.659 202.375,605.125 168.386,753.000 231.973 C 859.733 277.869,942.894 368.081,980.003 478.222 C 995.339 523.740,1000.692 567.752,999.684 640.050 L 999.000 689.101 992.129 703.050 C 983.608 720.352,967.974 736.361,952.536 743.592 C 936.070 751.306,913.930 751.306,897.464 743.592 C 881.782 736.246,865.447 719.501,857.422 702.548 L 851.010 689.000 849.741 626.000 C 848.552 566.957,848.144 561.706,843.244 542.407 C 823.801 465.816,776.243 407.741,705.186 373.818 C 639.852 342.626,560.148 342.626,494.814 373.818 C 420.351 409.367,369.743 474.378,353.773 555.000 C 350.125 573.419,350.125 626.581,353.773 645.000 C 373.378 743.974,444.965 818.862,543.452 843.429 C 562.343 848.141,569.069 848.816,598.000 848.902 C 633.960 849.009,647.933 847.019,677.000 837.654 C 710.217 826.952,745.840 806.373,767.558 785.341 L 776.116 777.053 788.558 790.186 C 827.489 831.278,877.415 851.873,932.000 849.357 C 1016.495 845.462,1084.250 784.454,1097.873 700.000 C 1100.602 683.079,1100.595 583.589,1097.862 554.000 C 1078.451 343.823,925.266 165.219,721.483 115.165 C 672.284 103.080,601.376 97.423,556.000 101.962 M637.000 454.646 C 683.081 467.404,720.024 499.613,738.338 543.000 C 746.534 562.415,748.958 575.425,748.958 600.000 C 748.958 613.008,747.751 627.779,746.181 634.000 C 734.365 680.805,700.273 720.931,657.549 738.317 C 590.197 765.727,513.500 742.059,475.050 682.000 C 457.386 654.410,451.042 632.742,451.042 600.000 C 451.042 567.245,457.396 545.554,475.062 518.000 C 494.976 486.939,531.666 461.245,566.089 454.255 C 572.090 453.036,578.800 451.623,581.000 451.113 C 588.348 449.411,626.873 451.842,637.000 454.646 " fill="#1D1E23" stroke="none" fill-rule="evenodd"></path></svg>