<svg width="1200" height="1200" viewBox="0 0 1200 1200" fill="none" xmlns="http://www.w3.org/2000/svg"><path d="M386.000 101.967 C 386.000 102.994,391.781 125.320,398.846 151.581 C 405.912 177.842,412.319 202.668,413.085 206.750 C 414.875 216.294,409.747 230.175,402.031 236.667 C 394.320 243.155,352.351 254.814,343.467 252.936 C 333.363 250.799,324.219 244.272,320.161 236.298 C 318.118 232.284,310.945 208.300,304.221 183.000 C 297.497 157.700,291.293 134.436,290.434 131.302 L 288.874 125.604 278.489 134.940 C 263.482 148.433,249.755 170.081,242.854 191.139 C 237.667 206.964,237.010 211.735,237.084 233.000 C 237.158 254.513,237.798 258.786,243.254 274.236 C 256.894 312.858,283.309 340.355,321.830 356.031 L 334.660 361.252 351.239 425.126 C 360.357 460.257,367.858 489.675,367.909 490.500 C 367.959 491.325,336.073 492.000,297.051 492.000 L 226.102 492.000 225.551 460.500 L 225.000 429.000 162.500 428.472 L 100.000 427.943 100.000 737.896 L 100.000 1047.850 104.308 1059.363 C 110.128 1074.919,125.100 1089.879,140.683 1095.710 L 152.242 1100.034 602.621 1099.517 L 1053.000 1099.000 1064.321 1093.440 C 1077.358 1087.038,1088.590 1075.514,1094.725 1062.245 L 1099.000 1053.000 1099.525 740.471 L 1100.049 427.943 1037.525 428.471 L 975.000 429.000 974.449 460.500 L 973.898 492.000 897.067 492.000 C 854.810 492.000,819.851 491.325,819.380 490.500 C 818.758 489.410,865.275 313.126,866.844 310.628 C 866.973 310.423,890.461 316.532,919.039 324.203 C 947.618 331.875,973.541 338.256,976.646 338.384 C 987.911 338.849,990.238 333.569,1007.727 267.865 C 1016.677 234.240,1024.000 204.706,1024.000 202.233 C 1024.000 195.511,1020.808 190.808,1014.576 188.345 C 1011.509 187.133,986.500 180.155,959.000 172.838 C 931.500 165.520,908.651 159.214,908.224 158.824 C 907.797 158.434,908.579 154.075,909.961 149.139 C 913.150 137.749,911.415 130.833,904.471 127.251 C 898.084 123.956,809.534 100.000,803.742 100.000 C 797.662 100.000,790.606 108.492,789.054 117.679 C 788.281 122.256,786.600 126.000,785.318 126.000 C 784.036 126.000,777.140 124.328,769.992 122.284 L 756.997 118.568 688.999 132.460 C 651.599 140.101,620.461 146.948,619.802 147.676 C 618.165 149.483,595.347 236.015,596.266 236.928 C 596.670 237.328,629.850 246.439,670.000 257.174 C 710.150 267.910,743.638 277.220,744.417 277.864 C 745.545 278.795,695.126 478.970,691.161 489.301 C 690.288 491.576,674.583 491.952,598.569 491.520 L 507.028 491.000 487.620 419.000 C 476.946 379.400,467.140 342.358,465.829 336.684 L 463.446 326.368 472.623 314.684 C 489.706 292.937,502.000 258.333,502.000 232.000 C 502.000 214.154,496.338 191.922,486.834 172.454 C 471.803 141.665,444.983 118.027,412.669 107.090 C 395.835 101.393,386.000 99.503,386.000 101.967 M397.204 604.000 C 404.141 630.950,410.325 655.025,410.946 657.500 L 412.076 662.000 319.038 662.000 L 226.000 662.000 226.000 607.977 L 226.000 553.954 305.296 554.477 L 384.592 555.000 397.204 604.000 M673.607 557.500 C 673.134 559.425,666.954 583.725,659.874 611.500 L 647.000 662.000 599.926 662.000 L 552.852 662.000 539.125 610.500 C 531.574 582.175,524.986 557.875,524.484 556.500 C 523.765 554.528,539.508 554.000,599.019 554.000 C 669.868 554.000,674.414 554.213,673.607 557.500 M974.000 608.000 L 974.000 662.000 872.786 662.000 C 792.667 662.000,771.760 661.479,772.475 659.500 C 772.971 658.125,779.592 633.827,787.189 605.505 L 801.000 554.011 887.500 554.005 L 974.000 554.000 974.000 608.000 M637.297 748.992 L 644.864 771.983 658.304 779.764 L 671.743 787.545 693.372 782.822 C 705.267 780.225,716.350 778.094,718.000 778.087 C 719.744 778.080,727.044 788.554,735.438 803.109 L 749.876 828.144 732.938 846.898 L 716.000 865.652 716.000 880.596 L 716.000 895.541 732.895 914.481 L 749.790 933.420 735.576 958.210 C 727.758 971.845,721.134 983.297,720.854 983.660 C 720.575 984.023,709.293 982.086,695.782 979.357 L 671.218 974.394 657.987 982.286 L 644.756 990.177 636.971 1014.089 L 629.186 1038.000 600.000 1038.000 L 570.814 1038.000 562.935 1013.800 C 555.289 990.315,554.819 989.480,547.028 985.539 C 542.613 983.305,536.728 979.878,533.951 977.924 C 529.077 974.493,528.046 974.542,504.277 979.345 C 490.734 982.081,479.414 984.023,479.122 983.660 C 478.830 983.297,472.145 971.897,464.267 958.327 L 449.942 933.653 466.749 914.650 L 483.556 895.647 483.556 880.804 L 483.556 865.961 466.702 847.067 L 449.849 828.174 464.132 803.587 C 471.988 790.064,478.694 778.703,479.034 778.340 C 479.375 777.977,490.734 779.919,504.277 782.655 C 528.046 787.458,529.077 787.507,533.951 784.076 C 536.728 782.122,542.600 778.700,547.000 776.474 C 554.711 772.572,555.276 771.586,562.635 749.213 L 570.270 726.000 600.000 726.000 L 629.730 726.000 637.297 748.992 M589.404 820.287 C 560.291 824.562,538.005 850.513,538.002 880.144 C 537.999 898.093,542.545 910.086,554.172 922.807 C 567.375 937.254,580.185 942.869,600.000 942.896 C 617.615 942.921,628.895 938.601,641.900 926.852 C 666.171 904.925,668.583 865.757,647.202 840.778 C 633.887 825.222,611.016 817.114,589.404 820.287 " fill="#1D1E23" stroke="none" fill-rule="evenodd"></path></svg>