<svg width="1200" height="1200" viewBox="0 0 1200 1200" fill="none" xmlns="http://www.w3.org/2000/svg"><path d="M544.000 402.186 C 348.597 415.907,168.127 498.907,29.381 638.867 L -0.239 668.745 91.373 760.373 C 141.759 810.768,183.887 851.944,184.992 851.876 C 186.096 851.808,230.200 817.357,283.000 775.317 L 379.000 698.881 380.000 614.059 L 381.000 529.237 393.000 525.600 C 426.733 515.377,466.202 506.865,509.000 500.583 C 543.727 495.486,654.232 495.477,690.000 500.569 C 724.919 505.541,768.854 514.617,796.000 522.468 L 819.000 529.120 820.000 614.268 L 821.000 699.417 905.000 766.047 C 951.200 802.694,994.931 837.399,1002.179 843.168 L 1015.358 853.658 1107.820 761.180 L 1200.283 668.701 1169.535 637.851 C 1003.112 470.868,777.320 385.803,544.000 402.186 " fill="#1D1E23" stroke="none" fill-rule="evenodd"></path></svg>