<svg width="1200" height="1200" viewBox="0 0 1200 1200" fill="none" xmlns="http://www.w3.org/2000/svg"><path d="M553.000 401.264 C 424.541 409.884,312.100 440.574,203.000 496.794 C 140.156 529.178,73.670 574.629,30.910 614.437 C -1.715 644.810,-9.021 691.716,12.473 732.814 C 20.954 749.029,97.205 824.857,114.000 833.776 C 144.060 849.741,178.332 850.236,208.738 835.143 C 220.736 829.187,314.999 755.708,334.026 737.479 C 347.764 724.317,357.920 706.974,361.829 690.000 C 363.050 684.701,363.922 651.319,363.951 608.825 L 364.000 536.650 386.500 530.359 C 525.789 491.419,667.192 490.062,799.000 526.402 C 811.100 529.738,824.375 533.372,828.500 534.477 L 836.000 536.487 836.000 610.033 C 836.000 677.746,836.315 684.598,839.970 696.434 C 844.424 710.852,856.055 729.824,866.237 739.280 C 883.037 754.880,982.189 830.759,992.561 835.953 C 1023.021 851.205,1064.350 848.746,1092.211 830.023 C 1097.045 826.774,1119.031 806.315,1141.069 784.558 C 1172.250 753.774,1182.552 742.297,1187.519 732.814 C 1209.025 691.745,1201.719 644.813,1169.090 614.437 C 1126.330 574.629,1059.844 529.178,997.000 496.794 C 899.475 446.538,800.513 417.018,689.000 404.916 C 661.607 401.944,576.809 399.667,553.000 401.264 " fill="#1D1E23" stroke="none" fill-rule="evenodd"></path></svg>