<svg width="1200" height="1200" viewBox="0 0 1200 1200" fill="none" xmlns="http://www.w3.org/2000/svg"><path d="M100.000 385.682 C 100.000 622.452,100.471 672.930,102.753 680.511 C 108.415 699.324,125.869 716.731,144.882 722.526 C 150.913 724.364,181.464 725.000,263.716 725.000 L 374.433 725.000 387.312 703.000 C 394.395 690.900,400.934 679.740,401.842 678.200 C 403.219 675.868,410.473 676.828,445.307 683.953 L 487.120 692.505 497.235 686.281 C 505.155 681.407,507.854 678.373,509.675 672.296 C 510.954 668.028,512.000 663.965,512.000 663.268 C 512.000 662.571,475.550 662.000,431.000 662.000 L 350.000 662.000 350.000 616.000 L 350.000 570.000 600.000 570.000 L 850.000 570.000 850.000 616.000 L 850.000 662.000 769.000 662.000 C 724.450 662.000,688.000 662.571,688.000 663.268 C 688.000 663.965,689.046 668.028,690.325 672.296 C 692.146 678.373,694.845 681.407,702.765 686.281 L 712.880 692.505 754.693 683.953 C 789.527 676.828,796.781 675.868,798.158 678.200 C 799.066 679.740,805.605 690.900,812.688 703.000 L 825.567 725.000 936.284 725.000 C 1018.536 725.000,1049.087 724.364,1055.118 722.526 C 1074.026 716.763,1090.189 700.811,1096.757 681.430 C 1099.676 672.816,1100.000 648.002,1100.000 432.930 L 1100.000 194.000 710.000 194.000 L 320.000 194.000 320.000 147.000 L 320.000 100.000 210.000 100.000 L 100.000 100.000 100.000 385.682 M350.000 131.000 L 350.000 162.000 467.000 162.000 L 584.000 162.000 584.000 131.000 L 584.000 100.000 467.000 100.000 L 350.000 100.000 350.000 131.000 M616.000 131.000 L 616.000 162.000 733.000 162.000 L 850.000 162.000 850.000 131.000 L 850.000 100.000 733.000 100.000 L 616.000 100.000 616.000 131.000 M882.000 131.000 L 882.000 162.000 991.000 162.000 L 1100.000 162.000 1100.000 131.000 L 1100.000 100.000 991.000 100.000 L 882.000 100.000 882.000 131.000 M256.000 303.000 L 256.000 350.000 209.000 350.000 L 162.000 350.000 162.000 303.000 L 162.000 256.000 209.000 256.000 L 256.000 256.000 256.000 303.000 M412.000 303.000 L 412.000 350.000 366.000 350.000 L 320.000 350.000 320.000 303.000 L 320.000 256.000 366.000 256.000 L 412.000 256.000 412.000 303.000 M568.000 303.000 L 568.000 350.000 522.000 350.000 L 476.000 350.000 476.000 303.000 L 476.000 256.000 522.000 256.000 L 568.000 256.000 568.000 303.000 M724.000 303.000 L 724.000 350.000 678.000 350.000 L 632.000 350.000 632.000 303.000 L 632.000 256.000 678.000 256.000 L 724.000 256.000 724.000 303.000 M882.000 303.000 L 882.000 350.000 835.000 350.000 L 788.000 350.000 788.000 303.000 L 788.000 256.000 835.000 256.000 L 882.000 256.000 882.000 303.000 M1038.000 303.000 L 1038.000 350.000 991.000 350.000 L 944.000 350.000 944.000 303.000 L 944.000 256.000 991.000 256.000 L 1038.000 256.000 1038.000 303.000 M334.000 459.000 L 334.000 506.000 287.000 506.000 L 240.000 506.000 240.000 459.000 L 240.000 412.000 287.000 412.000 L 334.000 412.000 334.000 459.000 M490.000 459.000 L 490.000 506.000 444.000 506.000 L 398.000 506.000 398.000 459.000 L 398.000 412.000 444.000 412.000 L 490.000 412.000 490.000 459.000 M646.000 459.000 L 646.000 506.000 600.000 506.000 L 554.000 506.000 554.000 459.000 L 554.000 412.000 600.000 412.000 L 646.000 412.000 646.000 459.000 M802.000 459.000 L 802.000 506.000 756.000 506.000 L 710.000 506.000 710.000 459.000 L 710.000 412.000 756.000 412.000 L 802.000 412.000 802.000 459.000 M960.000 459.000 L 960.000 506.000 913.000 506.000 L 866.000 506.000 866.000 459.000 L 866.000 412.000 913.000 412.000 L 960.000 412.000 960.000 459.000 M555.411 633.462 C 554.931 634.308,549.445 650.369,543.219 669.154 C 532.090 702.731,531.773 703.367,524.449 706.806 C 520.352 708.731,511.600 713.775,505.000 718.016 L 493.000 725.727 456.042 717.988 C 435.715 713.732,418.949 710.418,418.785 710.625 C 416.618 713.345,376.000 784.966,376.000 786.067 C 376.000 786.901,386.941 799.933,400.313 815.026 L 424.626 842.467 424.497 865.689 L 424.367 888.911 400.684 915.683 C 387.658 930.407,376.700 943.253,376.333 944.228 C 375.309 946.951,418.071 1019.999,420.694 1020.008 C 421.962 1020.012,438.925 1016.820,458.390 1012.914 L 493.779 1005.813 504.390 1012.660 C 510.225 1016.426,518.984 1021.643,523.853 1024.253 L 532.706 1029.000 544.520 1064.500 L 556.333 1100.000 600.000 1100.000 L 643.667 1100.000 655.480 1064.500 L 667.294 1029.000 676.147 1024.253 C 681.016 1021.643,689.775 1016.426,695.610 1012.660 L 706.221 1005.813 741.610 1012.914 C 761.075 1016.820,778.038 1020.012,779.306 1020.008 C 781.929 1019.999,824.691 946.951,823.667 944.228 C 823.300 943.253,812.342 930.407,799.316 915.683 L 775.633 888.911 775.503 865.689 L 775.374 842.467 799.687 815.026 C 813.059 799.933,824.000 786.901,824.000 786.067 C 824.000 784.966,783.382 713.345,781.215 710.625 C 781.051 710.418,764.285 713.732,743.958 717.988 L 707.000 725.727 695.000 718.016 C 688.400 713.775,679.648 708.731,675.551 706.807 C 668.220 703.363,667.919 702.756,656.386 668.154 L 644.669 633.000 600.476 632.462 C 576.170 632.166,555.891 632.616,555.411 633.462 M636.924 786.643 C 663.578 799.301,680.915 822.108,686.431 851.768 C 689.300 867.192,686.514 887.149,679.292 902.925 C 672.489 917.783,654.406 936.485,639.771 943.799 C 604.675 961.336,564.186 954.331,537.215 926.055 C 523.803 911.993,516.395 896.982,513.436 877.869 C 507.890 842.034,527.244 804.535,559.758 788.122 C 576.590 779.626,584.199 778.041,604.430 778.819 C 619.494 779.399,623.907 780.461,636.924 786.643 " fill="#1D1E23" stroke="none" fill-rule="evenodd"></path></svg>