<svg width="1200" height="1200" viewBox="0 0 1200 1200" fill="none" xmlns="http://www.w3.org/2000/svg"><path d="M100.000 319.258 L 100.000 538.517 114.266 537.111 C 145.480 534.035,174.501 520.821,197.912 499.024 C 229.096 469.990,248.647 457.780,277.000 449.632 C 297.716 443.679,337.806 443.251,357.884 448.768 C 402.229 460.953,438.015 490.286,457.750 530.626 C 469.796 555.247,474.000 573.197,474.000 600.000 C 474.000 626.949,469.792 644.754,457.457 670.000 C 448.494 688.347,444.910 693.274,429.099 709.001 C 403.305 734.654,381.914 746.305,348.092 753.120 C 326.051 757.562,294.864 756.209,275.000 749.950 C 246.706 741.034,231.677 731.582,199.000 702.153 C 174.132 679.757,143.581 666.199,111.500 663.321 L 100.000 662.289 100.000 881.145 L 100.000 1100.000 600.000 1100.000 L 1100.000 1100.000 1100.000 881.031 L 1100.000 662.061 1087.500 663.210 C 1053.131 666.367,1026.550 678.330,1000.713 702.266 C 977.184 724.064,965.748 732.426,948.000 740.808 C 923.833 752.223,910.590 755.011,881.000 754.918 C 850.031 754.820,837.410 751.904,810.000 738.511 C 793.746 730.569,788.236 726.465,771.876 710.114 C 754.976 693.224,751.561 688.557,742.517 670.000 C 730.202 644.732,726.000 626.922,726.000 600.000 C 726.000 573.503,730.181 555.435,741.982 530.934 C 761.274 490.882,797.734 460.964,842.116 448.768 C 862.222 443.243,902.295 443.678,923.000 449.646 C 947.733 456.775,967.487 468.443,992.954 490.965 C 1018.814 513.834,1031.126 521.842,1051.222 528.863 C 1064.769 533.596,1085.916 537.953,1095.500 537.985 L 1100.000 538.000 1100.000 319.000 L 1100.000 100.000 600.000 100.000 L 100.000 100.000 100.000 319.258 " fill="#1D1E23" stroke="none" fill-rule="evenodd"></path></svg>