<svg width="1200" height="1200" viewBox="0 0 1200 1200" fill="none" xmlns="http://www.w3.org/2000/svg"><path d="M332.171 53.434 C 320.364 57.604,307.459 70.822,303.312 82.991 C 300.553 91.089,300.000 101.671,300.000 146.356 L 300.000 200.000 196.356 200.000 C 78.992 200.000,80.011 199.884,64.902 214.993 C 48.611 231.283,49.900 190.532,50.482 671.071 L 51.000 1099.000 56.528 1110.253 C 63.050 1123.527,78.149 1138.349,91.482 1144.563 L 101.000 1149.000 600.000 1149.000 L 1099.000 1149.000 1110.253 1143.472 C 1123.527 1136.950,1138.349 1121.851,1144.563 1108.518 L 1149.000 1099.000 1149.518 671.071 C 1150.100 190.532,1151.389 231.283,1135.098 214.993 C 1119.989 199.884,1121.008 200.000,1003.644 200.000 L 900.000 200.000 900.000 146.356 C 900.000 84.602,898.941 78.836,885.053 64.947 C 869.038 48.933,889.288 49.980,599.144 50.158 C 370.702 50.298,339.984 50.675,332.171 53.434 M850.000 175.000 L 850.000 250.000 600.000 250.000 L 350.000 250.000 350.000 175.000 L 350.000 100.000 600.000 100.000 L 850.000 100.000 850.000 175.000 M411.825 154.560 C 402.752 160.674,399.650 167.138,400.699 177.743 C 403.027 201.282,433.645 207.799,446.081 187.403 C 451.045 179.262,451.045 170.738,446.081 162.597 C 438.437 150.061,423.650 146.591,411.825 154.560 M761.825 154.560 C 752.752 160.674,749.650 167.138,750.699 177.743 C 753.027 201.282,783.645 207.799,796.081 187.403 C 803.402 175.397,798.861 159.651,786.188 153.097 C 777.791 148.755,769.720 149.239,761.825 154.560 M300.000 275.000 L 300.000 300.000 600.000 300.000 L 900.000 300.000 900.000 275.000 L 900.000 250.000 1000.000 250.000 L 1100.000 250.000 1100.000 675.000 L 1100.000 1100.000 600.000 1100.000 L 100.000 1100.000 100.000 675.000 L 100.000 250.000 200.000 250.000 L 300.000 250.000 300.000 275.000 M405.775 524.939 L 361.000 599.878 290.000 599.947 C 223.169 600.011,218.624 600.244,212.597 603.919 C 200.458 611.321,196.747 625.640,203.919 637.403 C 211.650 650.083,210.989 650.000,304.632 650.000 L 389.463 650.000 418.208 602.000 C 434.017 575.600,447.415 554.000,447.981 554.000 C 448.546 554.000,494.521 645.029,550.147 756.287 L 651.284 958.574 708.531 829.787 L 765.777 701.000 784.888 700.428 C 800.221 699.968,804.000 700.410,804.000 702.659 C 804.000 708.915,818.549 733.949,827.783 743.579 C 847.893 764.554,871.018 774.434,900.000 774.434 C 946.395 774.434,985.127 744.260,996.938 698.917 C 1010.332 647.491,977.507 592.038,925.835 578.801 C 908.462 574.350,879.226 575.793,864.179 581.843 C 848.771 588.039,831.376 600.848,822.178 612.769 C 814.418 622.828,804.058 642.616,804.020 647.454 C 804.005 649.279,794.914 650.048,768.565 650.454 L 733.131 651.000 693.935 739.487 C 672.377 788.154,653.342 830.904,651.636 834.487 L 648.534 841.000 550.772 645.500 C 497.002 537.975,452.456 450.000,451.779 450.000 C 451.103 450.000,430.400 483.723,405.775 524.939 " fill="#1D1E23" stroke="none" fill-rule="evenodd"></path></svg>