<svg width="1200" height="1200" viewBox="0 0 1200 1200" fill="none" xmlns="http://www.w3.org/2000/svg"><path d="M142.665 103.693 C 124.154 110.106,111.022 123.034,103.853 141.903 C 100.091 151.804,100.000 162.591,100.000 599.946 L 100.000 1047.850 104.308 1059.363 C 110.120 1074.898,125.102 1089.880,140.637 1095.692 L 152.150 1100.000 600.000 1100.000 L 1047.850 1100.000 1059.363 1095.692 C 1074.898 1089.880,1089.880 1074.898,1095.692 1059.363 L 1100.000 1047.850 1100.000 600.000 C 1100.000 154.599,1099.978 152.091,1095.933 141.281 C 1090.500 126.760,1078.447 113.496,1064.429 106.612 L 1053.000 101.000 603.000 100.556 C 175.096 100.134,152.493 100.288,142.665 103.693 M229.112 135.772 C 239.098 140.308,250.578 153.366,253.679 163.717 C 259.017 181.535,255.337 196.573,242.366 209.951 C 201.305 252.295,137.270 195.667,173.097 148.695 C 184.496 133.751,211.132 127.606,229.112 135.772 M355.648 137.199 C 362.693 140.710,368.174 145.420,372.522 151.699 C 378.123 159.790,379.048 162.951,379.630 176.000 C 380.200 188.790,379.591 192.326,375.497 200.000 C 366.588 216.700,344.738 227.949,327.570 224.675 C 304.726 220.320,288.000 200.590,288.000 178.000 C 288.000 143.171,324.028 121.442,355.648 137.199 M479.112 135.772 C 489.098 140.308,500.578 153.366,503.679 163.717 C 509.017 181.535,505.337 196.573,492.366 209.951 C 451.305 252.295,387.270 195.667,423.097 148.695 C 434.496 133.751,461.132 127.606,479.112 135.772 M1038.000 647.000 L 1038.000 1038.000 600.000 1038.000 L 162.000 1038.000 162.000 647.000 L 162.000 256.000 600.000 256.000 L 1038.000 256.000 1038.000 647.000 M709.892 493.773 C 705.001 496.948,643.253 557.473,572.672 628.273 C 462.413 738.875,444.002 758.170,441.914 765.307 C 433.451 794.223,464.586 816.786,490.108 800.233 C 494.999 797.061,556.743 736.536,627.317 665.733 C 737.448 555.245,755.980 535.823,758.076 528.693 C 766.624 499.611,735.567 477.103,709.892 493.773 M356.644 492.002 C 347.092 494.157,340.895 499.832,264.389 576.491 L 193.779 647.242 270.588 723.308 C 339.873 791.922,348.273 799.594,356.339 801.625 C 371.321 805.397,386.346 798.867,393.207 785.600 C 397.174 777.929,397.225 764.135,393.314 756.723 C 391.653 753.575,366.828 727.640,338.147 699.090 C 309.466 670.539,286.000 646.781,286.000 646.294 C 286.000 645.807,310.216 621.467,339.813 592.205 C 386.488 546.056,393.865 537.939,395.433 531.000 C 400.848 507.044,380.527 486.613,356.644 492.002 M828.246 492.083 C 808.234 496.574,798.100 517.962,807.049 536.821 C 809.159 541.267,831.203 564.344,862.252 594.612 C 890.682 622.325,913.956 645.490,913.972 646.090 C 913.987 646.689,890.534 670.539,861.853 699.090 C 833.172 727.640,808.347 753.575,806.686 756.723 C 802.775 764.135,802.826 777.929,806.793 785.600 C 813.654 798.867,828.679 805.397,843.661 801.625 C 851.727 799.594,860.127 791.922,929.412 723.307 L 1006.221 647.242 933.611 574.574 C 893.675 534.606,857.850 499.783,854.000 497.189 C 845.733 491.619,837.548 489.996,828.246 492.083 " fill="#1D1E23" stroke="none" fill-rule="evenodd"></path></svg>