<svg width="1200" height="1200" viewBox="0 0 1200 1200" fill="none" xmlns="http://www.w3.org/2000/svg"><path d="M421.213 122.539 C 403.673 178.939,384.437 255.393,373.293 313.000 C 358.783 388.005,352.310 444.379,350.672 510.000 C 348.173 610.152,360.844 687.864,391.386 759.701 C 437.744 868.737,529.540 942.741,648.462 966.950 C 673.711 972.090,725.136 977.530,727.368 975.298 C 730.551 972.115,716.953 886.355,703.955 827.630 C 666.333 657.660,590.715 442.083,505.640 262.261 C 493.344 236.271,489.728 228.000,490.661 228.000 C 491.055 228.000,499.463 238.125,509.347 250.500 C 574.559 332.149,628.582 438.773,676.294 580.000 C 721.928 715.076,762.672 897.072,783.083 1057.000 C 786.031 1080.100,788.787 1099.369,789.208 1099.820 C 791.322 1102.085,806.266 1095.242,809.673 1090.450 C 817.275 1079.754,817.977 1071.401,817.989 991.613 L 818.000 914.226 831.911 892.855 C 885.350 810.759,908.654 714.603,896.924 624.602 C 878.222 481.121,785.376 347.302,616.198 219.992 C 571.085 186.043,496.100 137.818,439.599 106.414 L 428.198 100.078 421.213 122.539 " fill="#1D1E23" stroke="none" fill-rule="evenodd"></path></svg>