<svg width="1200" height="1200" viewBox="0 0 1200 1200" fill="none" xmlns="http://www.w3.org/2000/svg"><path d="M556.000 101.962 C 416.815 115.884,295.232 181.194,209.663 288.000 C 73.683 457.729,63.352 695.839,184.124 876.644 C 338.485 1107.735,647.309 1169.297,878.000 1014.964 C 1107.746 861.264,1168.863 552.043,1014.964 322.000 C 936.423 204.599,815.946 128.109,674.644 105.934 C 645.457 101.354,582.987 99.262,556.000 101.962 M617.009 353.312 C 622.825 355.294,630.145 360.040,635.233 365.127 C 650.000 379.894,650.000 379.897,650.000 500.000 C 650.000 620.103,650.000 620.106,635.233 634.873 C 615.483 654.622,584.596 654.701,564.947 635.053 C 549.842 619.947,550.000 621.375,550.000 500.000 C 550.000 378.583,549.836 380.058,564.983 364.911 C 578.874 351.021,597.860 346.788,617.009 353.312 M650.000 800.000 L 650.000 850.000 600.000 850.000 L 550.000 850.000 550.000 800.000 L 550.000 750.000 600.000 750.000 L 650.000 750.000 650.000 800.000 " fill="#1D1E23" stroke="none" fill-rule="evenodd"></path></svg>