<svg width="1200" height="1200" viewBox="0 0 1200 1200" fill="none" xmlns="http://www.w3.org/2000/svg"><path d="M554.273 102.069 C 398.160 117.159,260.373 202.186,175.186 336.000 C 159.234 361.058,136.757 409.284,126.142 441.230 C 91.501 545.477,91.501 654.523,126.142 758.770 C 150.487 832.034,190.954 897.156,246.899 953.101 C 324.364 1030.567,419.809 1078.547,530.000 1095.418 C 561.811 1100.288,637.929 1100.275,668.732 1095.393 C 700.806 1090.310,731.637 1082.978,757.798 1074.213 C 929.348 1016.733,1056.410 871.947,1090.730 694.842 C 1144.765 415.999,954.991 148.178,673.350 105.808 C 642.882 101.224,582.596 99.331,554.273 102.069 M637.000 202.067 C 728.175 210.617,811.670 249.020,877.725 312.786 C 1002.244 432.989,1035.081 619.965,958.972 775.424 C 898.174 899.610,779.813 982.445,641.000 997.956 C 542.578 1008.954,436.771 978.739,355.000 916.285 C 337.015 902.549,303.337 869.207,288.046 850.000 C 268.510 825.461,255.353 804.553,240.851 775.000 C 173.046 636.832,191.464 471.084,288.076 350.000 C 303.498 330.672,334.753 299.697,354.000 284.667 C 433.438 222.636,536.275 192.620,637.000 202.067 M582.171 353.434 C 577.315 355.149,569.581 360.314,564.983 364.911 C 549.836 380.058,550.000 378.583,550.000 500.000 C 550.000 621.375,549.842 619.947,564.947 635.053 C 584.511 654.616,615.489 654.616,635.053 635.053 C 650.158 619.947,650.000 621.375,650.000 500.000 C 650.000 378.625,650.158 380.053,635.053 364.947 C 621.176 351.071,601.185 346.718,582.171 353.434 M550.000 800.000 L 550.000 850.000 600.000 850.000 L 650.000 850.000 650.000 800.000 L 650.000 750.000 600.000 750.000 L 550.000 750.000 550.000 800.000 " fill="#1D1E23" stroke="none" fill-rule="evenodd"></path></svg>