<svg width="1200" height="1200" viewBox="0 0 1200 1200" fill="none" xmlns="http://www.w3.org/2000/svg"><path d="M185.181 413.010 L 49.924 576.000 185.253 739.076 C 320.366 901.893,320.588 902.146,324.790 898.431 C 327.106 896.385,344.075 882.266,362.500 867.055 C 380.925 851.844,396.000 838.653,396.000 837.741 C 396.000 836.829,347.402 777.565,288.004 706.042 L 180.008 576.000 288.004 445.958 C 347.402 374.435,396.000 315.180,396.000 314.281 C 396.000 313.381,384.525 303.182,370.500 291.617 C 356.475 280.052,339.474 265.961,332.719 260.305 L 320.438 250.020 185.181 413.010 M860.008 281.151 C 839.663 298.091,822.739 312.783,822.399 313.802 C 822.060 314.821,870.429 374.232,929.887 445.827 L 1037.992 576.000 929.996 706.042 C 870.598 777.565,822.000 836.829,822.000 837.741 C 822.000 838.653,837.075 851.844,855.500 867.055 C 873.925 882.266,890.896 896.387,893.214 898.436 C 897.423 902.156,897.592 901.964,1032.732 739.080 L 1168.035 576.000 1036.721 417.500 C 964.499 330.325,903.516 257.054,901.204 254.677 L 897.000 250.353 860.008 281.151 M358.000 576.000 L 358.000 626.000 409.000 626.000 L 460.000 626.000 460.000 576.000 L 460.000 526.000 409.000 526.000 L 358.000 526.000 358.000 576.000 M558.000 576.000 L 558.000 626.000 609.000 626.000 L 660.000 626.000 660.000 576.000 L 660.000 526.000 609.000 526.000 L 558.000 526.000 558.000 576.000 M758.000 576.000 L 758.000 626.000 809.000 626.000 L 860.000 626.000 860.000 576.000 L 860.000 526.000 809.000 526.000 L 758.000 526.000 758.000 576.000 " fill="#1D1E23" stroke="none" fill-rule="evenodd"></path></svg>