<svg width="1200" height="1200" viewBox="0 0 1200 1200" fill="none" xmlns="http://www.w3.org/2000/svg"><path d="M351.000 454.578 C 329.761 464.761,317.408 487.459,321.845 508.147 C 323.030 513.676,325.290 520.630,326.865 523.600 C 328.440 526.570,384.915 584.026,452.365 651.281 C 584.522 783.056,579.507 778.755,601.000 778.754 C 622.218 778.753,621.155 779.667,750.311 650.407 C 829.215 571.439,871.022 528.184,873.758 522.684 C 879.508 511.122,880.886 500.028,878.043 488.177 C 874.739 474.406,866.777 464.151,853.846 457.014 C 844.671 451.949,840.843 451.033,829.000 451.066 C 819.423 451.093,812.789 452.255,808.000 454.745 C 804.150 456.747,755.775 503.520,700.500 558.685 L 600.000 658.985 499.500 558.685 C 444.225 503.520,395.891 456.830,392.090 454.929 C 388.290 453.029,379.740 451.093,373.090 450.629 C 363.290 449.944,359.106 450.692,351.000 454.578 " fill="#1D1E23" stroke="none" fill-rule="evenodd"></path></svg>