<svg width="1200" height="1200" viewBox="0 0 1200 1200" fill="none" xmlns="http://www.w3.org/2000/svg"><path d="M578.000 426.043 C 570.972 429.132,542.770 456.403,449.292 550.499 C 383.453 616.775,327.902 674.292,325.845 678.316 C 314.028 701.438,322.610 729.961,345.416 743.366 C 353.652 748.207,357.110 748.994,370.000 748.960 C 380.607 748.932,387.050 747.847,392.000 745.253 C 395.850 743.235,444.229 696.461,499.510 641.310 L 600.019 541.034 700.510 641.436 C 807.039 747.871,809.376 749.864,827.768 749.956 C 842.305 750.029,852.169 745.892,863.328 735.042 C 880.124 718.711,883.828 696.560,873.135 676.400 C 871.560 673.430,815.535 616.362,748.635 549.582 C 664.339 465.436,624.717 427.217,619.564 425.082 C 609.056 420.727,589.043 421.190,578.000 426.043 " fill="#1D1E23" stroke="none" fill-rule="evenodd"></path></svg>