<svg width="1200" height="1200" viewBox="0 0 1200 1200" fill="none" xmlns="http://www.w3.org/2000/svg"><path d="M867.000 153.058 C 862.600 154.643,858.575 155.953,858.056 155.970 C 857.537 155.986,819.972 193.100,774.578 238.445 L 692.045 320.891 658.522 287.686 C 640.085 269.424,621.974 252.948,618.275 251.073 C 608.935 246.339,591.952 244.934,581.032 247.991 C 569.744 251.152,554.651 264.148,549.757 274.923 C 547.518 279.852,546.071 287.718,546.044 295.107 C 545.980 312.707,551.985 323.119,575.959 346.980 L 596.034 366.959 373.517 589.483 L 151.000 812.007 151.000 923.965 L 151.000 1035.923 157.537 1042.462 L 164.075 1049.000 271.537 1049.571 C 330.642 1049.885,381.250 1049.608,384.000 1048.957 C 387.121 1048.217,472.419 964.400,611.025 825.873 L 833.050 603.975 853.025 624.203 C 865.990 637.333,876.509 646.104,883.000 649.196 C 908.452 661.323,938.710 649.801,949.935 623.708 C 955.281 611.280,954.904 595.552,948.957 583.000 C 946.802 578.450,930.946 560.525,912.186 541.431 L 879.204 507.861 960.390 426.431 C 1005.043 381.644,1043.215 341.850,1045.217 338.000 C 1050.321 328.184,1050.294 305.699,1045.165 295.000 C 1042.751 289.964,1017.927 263.511,978.165 223.602 C 925.866 171.110,913.108 159.329,904.000 155.121 C 891.505 149.348,879.201 148.662,867.000 153.058 M701.484 498.484 C 727.068 524.050,748.000 545.877,748.000 546.988 C 748.000 548.099,657.771 639.233,547.490 749.510 L 346.981 950.012 299.000 902.000 L 251.019 853.988 452.006 652.994 C 562.549 542.447,653.437 452.000,653.981 452.000 C 654.524 452.000,675.901 472.918,701.484 498.484 " fill="#1D1E23" stroke="none" fill-rule="evenodd"></path></svg>