<svg width="1200" height="1200" viewBox="0 0 1200 1200" fill="none" xmlns="http://www.w3.org/2000/svg"><path d="M787.504 225.491 L 692.013 320.982 644.002 273.002 L 595.991 225.023 560.510 260.504 L 525.028 295.986 560.505 331.505 L 595.983 367.024 372.992 590.008 L 150.000 812.993 150.000 931.497 L 150.000 1050.000 268.503 1050.000 L 387.007 1050.000 609.992 827.008 L 832.976 604.017 868.495 639.495 L 904.014 674.972 939.496 639.490 L 974.977 604.009 927.000 556.000 L 879.023 507.992 975.004 411.996 L 1070.984 316.000 978.000 223.000 C 926.859 171.850,884.561 130.000,884.005 130.000 C 883.450 130.000,840.024 172.971,787.504 225.491 M702.007 499.007 L 748.983 546.015 547.499 747.499 L 346.014 948.983 298.001 901.001 L 249.988 853.019 450.490 652.510 C 560.767 542.229,651.901 452.000,653.012 452.000 C 654.123 452.000,676.171 473.153,702.007 499.007 " fill="#1D1E23" stroke="none" fill-rule="evenodd"></path></svg>