<svg width="1200" height="1200" viewBox="0 0 1200 1200" fill="none" xmlns="http://www.w3.org/2000/svg"><path d="M556.000 101.962 C 449.371 112.628,357.554 151.199,275.831 219.657 C 135.100 337.544,70.606 532.925,112.981 713.000 C 152.788 882.163,277.835 1019.690,441.000 1073.753 C 464.118 1081.413,513.871 1094.000,521.032 1094.000 C 521.564 1094.000,522.000 1015.250,522.000 919.000 L 522.000 744.000 459.000 744.000 L 396.000 744.000 396.000 672.000 L 396.000 600.000 459.000 600.000 L 522.000 600.000 522.000 536.448 C 522.000 469.912,523.538 448.633,530.102 424.369 C 547.288 360.838,588.406 319.590,651.636 302.452 C 669.775 297.536,673.846 297.198,716.000 297.109 C 748.447 297.042,769.508 298.066,791.500 300.783 L 822.000 304.550 822.000 366.275 L 822.000 428.000 785.500 428.035 C 746.493 428.072,728.629 430.537,714.265 437.865 C 697.438 446.449,684.789 464.199,680.249 485.598 C 678.914 491.890,678.000 517.287,678.000 548.098 L 678.000 600.000 747.000 600.000 C 811.430 600.000,815.991 600.232,815.871 603.500 C 815.800 605.425,811.040 637.600,805.293 675.000 L 794.845 743.000 736.423 743.530 L 678.000 744.060 678.000 919.030 C 678.000 1015.264,678.436 1094.000,678.968 1094.000 C 686.129 1094.000,735.882 1081.413,759.000 1073.753 C 862.687 1039.397,954.101 969.361,1015.813 877.000 C 1166.748 651.100,1109.179 346.554,886.005 190.300 C 822.606 145.911,753.427 118.298,674.644 105.934 C 645.457 101.354,582.987 99.262,556.000 101.962 " fill="#1D1E23" stroke="none" fill-rule="evenodd"></path></svg>