<svg width="1200" height="1200" viewBox="0 0 1200 1200" fill="none" xmlns="http://www.w3.org/2000/svg"><path d="M222.000 102.998 C 174.993 112.478,136.166 142.469,115.598 185.184 C 101.727 213.990,101.476 215.726,100.528 289.491 C 99.543 366.068,100.177 370.283,114.902 385.007 C 134.512 404.617,165.468 404.637,185.053 385.053 C 199.083 371.022,199.987 365.859,200.088 299.144 C 200.182 236.627,200.772 232.232,210.833 219.041 C 213.750 215.217,220.380 209.594,225.568 206.545 L 235.000 201.000 299.000 200.000 C 361.033 199.031,363.292 198.856,372.502 194.320 C 402.894 179.354,409.064 138.491,384.531 114.648 C 370.307 100.824,365.023 99.970,295.137 100.188 C 254.184 100.316,230.853 101.212,222.000 102.998 M833.340 103.173 C 814.987 108.951,800.000 130.001,800.000 150.000 C 800.000 169.819,814.545 190.402,832.991 196.688 C 841.150 199.467,851.923 200.000,900.000 200.000 C 965.783 200.000,971.027 200.922,985.053 214.947 C 999.078 228.973,1000.000 234.217,1000.000 300.000 C 1000.000 365.783,1000.922 371.027,1014.947 385.053 C 1034.511 404.616,1065.489 404.616,1085.053 385.053 C 1099.153 370.952,1100.000 366.011,1100.000 297.865 C 1100.000 227.710,1098.241 214.549,1085.179 187.000 C 1069.924 154.822,1048.025 132.321,1017.000 116.945 C 986.325 101.742,983.654 101.340,909.000 100.699 C 854.351 100.230,841.339 100.656,833.340 103.173 M409.859 402.606 C 389.716 408.320,369.976 425.030,361.476 443.561 C 357.977 451.189,357.132 456.838,357.073 473.000 C 357.009 490.584,357.645 494.376,362.340 504.393 C 369.153 518.927,383.073 532.847,397.607 539.660 C 407.573 544.331,411.505 545.000,429.000 545.000 C 446.836 545.000,450.229 544.397,460.355 539.424 C 467.338 535.995,475.989 529.226,482.821 521.847 C 524.107 477.253,494.388 404.375,433.480 400.851 C 425.010 400.361,415.206 401.089,409.859 402.606 M751.859 402.606 C 711.669 414.008,689.487 455.255,701.780 495.726 C 707.158 513.432,722.299 530.906,739.645 539.424 C 749.771 544.397,753.164 545.000,771.000 545.000 C 788.495 545.000,792.427 544.331,802.393 539.660 C 816.927 532.847,830.847 518.927,837.660 504.393 C 842.331 494.426,843.000 490.496,843.000 473.000 C 842.999 455.205,842.390 451.759,837.471 441.747 C 830.685 427.932,815.511 413.386,800.916 406.704 C 787.626 400.620,765.404 398.763,751.859 402.606 M359.317 697.649 C 354.778 702.665,355.129 706.410,361.276 718.566 C 384.646 764.785,428.692 809.064,475.804 833.701 C 514.984 854.190,555.149 863.984,600.000 863.984 C 644.851 863.984,685.016 854.190,724.196 833.701 C 771.841 808.785,816.669 763.426,839.347 717.186 C 844.559 706.558,844.724 705.471,841.884 700.411 L 838.847 695.000 600.741 694.492 C 372.059 694.004,362.503 694.129,359.317 697.649 M133.340 803.246 C 120.395 807.224,107.623 820.083,103.103 833.689 C 100.062 842.846,99.770 851.563,100.528 910.509 C 101.476 984.261,101.725 985.988,115.586 1014.816 C 130.684 1046.218,154.728 1069.912,187.000 1085.191 C 214.560 1098.240,227.739 1100.000,297.865 1100.000 C 366.011 1100.000,370.952 1099.153,385.053 1085.053 C 404.394 1065.711,404.612 1034.612,385.540 1015.540 C 371.292 1001.292,370.537 1001.157,299.000 1000.018 L 235.000 999.000 225.568 993.455 C 220.380 990.406,213.750 984.783,210.833 980.959 C 200.772 967.768,200.182 963.373,200.088 900.856 C 199.986 833.530,199.141 828.847,184.531 814.648 C 170.617 801.125,153.010 797.203,133.340 803.246 M1033.340 803.246 C 1020.754 807.113,1007.736 820.009,1003.312 832.991 C 1000.532 841.151,1000.000 851.930,1000.000 900.105 C 1000.000 962.109,999.226 967.771,988.893 981.318 C 986.127 984.944,979.620 990.406,974.432 993.455 L 965.000 999.000 901.000 1000.000 C 838.967 1000.969,836.708 1001.144,827.498 1005.680 C 797.431 1020.486,791.007 1061.112,814.947 1085.053 C 829.048 1099.153,833.989 1100.000,902.135 1100.000 C 972.290 1100.000,985.451 1098.241,1013.000 1085.179 C 1045.950 1069.558,1067.879 1047.879,1083.991 1015.000 C 1098.391 985.614,1100.000 974.274,1100.000 902.135 C 1100.000 833.377,1099.211 828.916,1084.531 814.648 C 1070.617 801.125,1053.010 797.203,1033.340 803.246 " fill="#1D1E23" stroke="none" fill-rule="evenodd"></path></svg>