<svg width="1200" height="1200" viewBox="0 0 1200 1200" fill="none" xmlns="http://www.w3.org/2000/svg"><path d="M200.000 600.163 L 200.000 900.220 210.667 892.610 C 216.534 888.425,311.920 821.100,422.636 743.000 C 533.352 664.900,623.920 600.550,623.898 600.000 C 623.875 599.450,544.072 542.750,446.558 474.000 C 349.043 405.250,253.675 337.999,234.629 324.553 L 200.000 300.107 200.000 600.163 M650.000 600.163 L 650.000 900.220 660.667 892.610 C 666.534 888.425,761.920 821.100,872.636 743.000 C 983.352 664.900,1073.920 600.550,1073.898 600.000 C 1073.875 599.450,994.072 542.750,896.558 474.000 C 799.043 405.250,703.675 337.999,684.629 324.553 L 650.000 300.107 650.000 600.163 " fill="#1D1E23" stroke="none" fill-rule="evenodd"></path></svg>