<svg width="1200" height="1200" viewBox="0 0 1200 1200" fill="none" xmlns="http://www.w3.org/2000/svg"><path d="M239.000 347.775 C 229.425 350.258,220.716 355.461,213.222 363.178 C 199.332 377.479,200.000 365.513,200.000 600.105 C 200.000 829.501,199.549 819.809,210.914 834.709 C 213.702 838.364,220.712 843.962,226.491 847.149 C 240.125 854.667,258.524 855.206,271.347 848.463 C 287.238 840.108,567.033 641.776,575.113 633.139 C 584.196 623.431,588.009 613.244,587.980 598.768 C 587.958 587.633,581.161 571.358,573.765 564.731 C 565.829 557.620,279.618 355.887,271.827 351.912 C 263.309 347.566,247.493 345.573,239.000 347.775 M691.000 347.979 C 680.438 349.650,671.735 354.412,663.222 363.178 C 649.332 377.479,650.000 365.513,650.000 600.105 C 650.000 829.501,649.549 819.809,660.914 834.709 C 663.702 838.364,670.712 843.962,676.491 847.149 C 690.125 854.667,708.524 855.206,721.347 848.463 C 737.238 840.108,1017.033 641.776,1025.113 633.139 C 1034.196 623.431,1038.009 613.244,1037.980 598.768 C 1037.958 587.630,1031.158 571.352,1023.765 564.737 C 1014.339 556.305,725.366 353.533,719.255 351.063 C 710.646 347.584,700.497 346.476,691.000 347.979 " fill="#1D1E23" stroke="none" fill-rule="evenodd"></path></svg>