<svg width="1200" height="1200" viewBox="0 0 1200 1200" fill="none" xmlns="http://www.w3.org/2000/svg"><path d="M280.113 102.181 C 253.511 107.397,224.398 129.440,212.203 153.598 C 199.283 179.192,200.062 150.598,200.030 600.402 C 200.009 891.669,200.638 1012.861,202.210 1020.402 C 210.026 1057.883,242.117 1089.974,279.598 1097.790 C 294.557 1100.909,905.443 1100.909,920.402 1097.790 C 957.883 1089.974,989.974 1057.883,997.790 1020.402 C 999.347 1012.932,1000.000 919.644,1000.000 704.430 L 1000.000 399.056 850.472 249.528 L 700.944 100.000 494.972 100.219 C 381.687 100.340,285.001 101.222,280.113 102.181 M787.500 312.685 C 890.184 415.198,906.000 431.768,906.000 436.836 C 906.000 440.053,904.511 444.331,902.690 446.343 C 899.553 449.809,893.073 450.000,778.690 450.000 C 660.667 450.000,657.912 449.912,654.000 446.000 C 650.088 442.088,650.000 439.333,650.000 321.145 L 650.000 200.290 655.314 196.110 C 658.726 193.427,662.127 192.369,664.814 193.156 C 667.116 193.831,722.325 247.619,787.500 312.685 " fill="#1D1E23" stroke="none" fill-rule="evenodd"></path></svg>