<svg width="1200" height="1200" viewBox="0 0 1200 1200" fill="none" xmlns="http://www.w3.org/2000/svg"><path d="M182.171 303.434 C 164.528 309.666,150.000 330.694,150.000 350.000 C 150.000 362.080,155.967 376.072,164.947 385.053 C 181.214 401.319,142.814 400.000,600.000 400.000 C 1057.186 400.000,1018.786 401.319,1035.053 385.053 C 1054.616 365.489,1054.616 334.511,1035.053 314.947 C 1018.777 298.672,1057.342 299.981,599.144 300.158 C 234.834 300.299,190.052 300.651,182.171 303.434 M332.171 553.434 C 314.528 559.666,300.000 580.694,300.000 600.000 C 300.000 612.080,305.967 626.072,314.947 635.053 C 330.948 651.053,310.865 650.000,600.000 650.000 C 889.135 650.000,869.052 651.053,885.053 635.053 C 904.616 615.489,904.616 584.511,885.053 564.947 C 869.038 548.933,889.288 549.980,599.144 550.158 C 370.702 550.298,339.984 550.675,332.171 553.434 M532.171 803.434 C 514.528 809.666,500.000 830.694,500.000 850.000 C 500.000 869.819,514.545 890.402,532.991 896.688 C 541.150 899.467,551.923 900.000,600.000 900.000 C 665.783 900.000,671.027 899.078,685.053 885.053 C 704.616 865.489,704.616 834.511,685.053 814.947 C 670.951 800.846,665.902 799.977,599.144 800.158 C 551.888 800.286,539.347 800.900,532.171 803.434 " fill="#1D1E23" stroke="none" fill-rule="evenodd"></path></svg>