<svg width="1200" height="1200" viewBox="0 0 1200 1200" fill="none" xmlns="http://www.w3.org/2000/svg"><path d="M235.181 203.147 C 223.791 207.320,214.844 214.851,208.545 225.568 C 201.366 237.780,200.694 258.466,207.069 271.000 C 209.307 275.400,276.132 362.501,355.569 464.557 L 500.000 650.115 500.000 779.959 C 500.000 867.026,500.728 913.295,502.210 920.402 C 511.616 965.505,553.994 1000.000,600.000 1000.000 C 646.006 1000.000,688.384 965.505,697.790 920.402 C 699.272 913.295,700.000 867.026,700.000 779.959 L 700.000 650.115 844.431 464.557 C 923.868 362.501,990.693 275.400,992.931 271.000 C 999.306 258.466,998.634 237.780,991.455 225.568 C 984.696 214.070,975.260 206.590,962.772 202.831 C 948.594 198.564,246.858 198.868,235.181 203.147 " fill="#1D1E23" stroke="none" fill-rule="evenodd"></path></svg>