<svg width="1200" height="1200" viewBox="0 0 1200 1200" fill="none" xmlns="http://www.w3.org/2000/svg"><path d="M832.163 231.062 C 826.202 232.728,818.102 236.010,814.163 238.356 C 810.223 240.701,733.454 316.009,643.564 405.706 L 480.128 568.792 435.150 524.325 C 383.823 473.581,378.370 469.915,352.040 468.447 C 330.461 467.244,316.937 472.605,300.771 488.771 C 284.575 504.968,279.223 518.489,280.496 540.000 C 282.024 565.818,283.421 567.704,352.833 637.610 C 387.025 672.045,419.500 703.193,425.000 706.826 C 442.698 718.517,456.501 722.604,479.000 722.814 C 501.577 723.024,517.974 718.622,534.000 708.047 C 538.950 704.780,625.143 620.912,725.540 521.672 C 921.022 328.443,915.198 334.789,920.258 309.475 C 922.178 299.874,922.008 295.702,919.240 284.486 C 909.419 244.690,869.982 220.494,832.163 231.062 M282.171 903.434 C 264.528 909.666,250.000 930.694,250.000 950.000 C 250.000 962.080,255.967 976.072,264.947 985.053 C 281.064 1001.169,254.861 1000.000,600.000 1000.000 C 945.139 1000.000,918.936 1001.169,935.053 985.053 C 954.616 965.489,954.616 934.511,935.053 914.947 C 918.925 898.820,945.293 899.981,599.144 900.158 C 325.412 900.298,290.014 900.664,282.171 903.434 " fill="#1D1E23" stroke="none" fill-rule="evenodd"></path></svg>