<svg width="1200" height="1200" viewBox="0 0 1200 1200" fill="none" xmlns="http://www.w3.org/2000/svg"><path d="M332.171 303.434 C 327.315 305.149,319.581 310.314,314.983 314.911 C 298.941 330.954,300.000 310.799,300.000 600.000 C 300.000 889.135,298.947 869.052,314.947 885.053 C 334.511 904.616,365.489 904.616,385.053 885.053 C 401.053 869.052,400.000 889.135,400.000 600.000 C 400.000 310.865,401.053 330.948,385.053 314.947 C 371.176 301.071,351.185 296.718,332.171 303.434 M839.000 321.775 C 835.700 322.631,830.300 324.770,827.000 326.530 C 823.700 328.290,765.940 384.915,698.644 452.365 C 577.547 573.738,576.254 575.119,572.988 586.547 C 569.440 598.965,570.826 612.215,576.865 623.600 C 578.440 626.570,634.915 684.026,702.365 751.281 C 796.810 845.453,826.609 874.038,832.000 875.638 C 846.862 880.046,852.056 880.268,863.467 876.979 C 872.548 874.362,877.161 871.437,885.165 863.216 C 899.675 848.315,903.280 832.630,896.740 812.856 C 893.801 803.970,883.524 793.014,792.276 701.491 L 691.072 599.982 791.328 499.491 C 846.469 444.221,893.104 395.974,894.960 392.275 C 902.726 376.802,900.793 355.212,890.352 340.808 C 880.041 326.585,855.513 317.494,839.000 321.775 " fill="#1D1E23" stroke="none" fill-rule="evenodd"></path></svg>