<svg width="1200" height="1200" viewBox="0 0 1200 1200" fill="none" xmlns="http://www.w3.org/2000/svg"><path d="M250.000 625.000 L 250.000 1050.000 300.000 1050.000 L 350.000 1050.000 350.000 875.000 L 350.000 700.000 490.000 700.000 C 567.000 700.000,630.000 700.282,630.000 700.626 C 630.000 701.585,647.788 790.383,649.006 795.500 L 650.076 800.000 825.038 800.000 L 1000.000 800.000 1000.000 550.000 L 1000.000 300.000 860.000 300.000 C 783.000 300.000,720.000 299.718,720.000 299.374 C 720.000 298.415,702.212 209.617,700.994 204.500 L 699.924 200.000 474.962 200.000 L 250.000 200.000 250.000 625.000 " fill="#1D1E23" stroke="none" fill-rule="evenodd"></path></svg>