<svg width="1200" height="1200" viewBox="0 0 1200 1200" fill="none" xmlns="http://www.w3.org/2000/svg"><path d="M282.171 203.414 C 277.315 205.140,269.581 210.314,264.983 214.911 C 248.705 231.190,250.000 195.745,250.000 625.000 C 250.000 1054.171,248.711 1018.817,264.947 1035.053 C 284.511 1054.616,315.489 1054.616,335.053 1035.053 C 350.600 1019.505,350.000 1026.789,350.000 853.644 L 350.000 700.000 490.000 700.000 C 567.000 700.000,630.000 700.310,630.000 700.688 C 630.000 703.570,642.521 762.441,644.266 767.761 C 647.171 776.623,658.668 789.187,668.864 794.645 C 676.969 798.983,677.541 799.002,816.825 799.553 C 974.962 800.178,969.454 800.651,985.007 785.098 C 1000.894 769.211,1000.000 783.229,1000.000 550.000 C 1000.000 316.845,1000.886 330.781,985.053 314.947 C 969.811 299.706,972.689 300.000,838.644 300.000 C 773.390 300.000,720.000 299.690,720.000 299.312 C 720.000 296.430,707.479 237.559,705.734 232.239 C 702.829 223.377,691.332 210.813,681.136 205.355 L 673.000 201.000 482.000 200.637 C 312.940 200.317,289.986 200.636,282.171 203.414 " fill="#1D1E23" stroke="none" fill-rule="evenodd"></path></svg>