<svg width="1200" height="1200" viewBox="0 0 1200 1200" fill="none" xmlns="http://www.w3.org/2000/svg"><path d="M557.492 102.044 C 535.868 107.507,517.118 123.146,507.189 144.000 L 501.000 157.000 500.000 303.803 L 499.000 450.607 309.000 569.285 C 188.855 644.330,116.655 690.614,112.623 695.173 C 96.458 713.447,96.114 743.095,111.845 762.179 C 114.998 766.005,122.395 771.756,128.283 774.961 C 148.692 786.069,144.223 787.099,330.911 728.276 C 422.162 699.524,497.537 676.000,498.411 676.000 C 499.285 676.000,500.000 737.636,500.000 812.968 L 500.000 949.936 452.466 985.650 C 423.220 1007.623,403.983 1023.445,402.466 1026.776 C 401.024 1029.941,400.003 1040.662,400.007 1052.594 C 400.014 1069.304,400.722 1074.160,403.919 1079.403 C 408.173 1086.379,417.237 1092.000,424.234 1092.000 C 426.671 1092.000,461.603 1082.532,501.860 1070.960 L 575.054 1049.920 648.027 1070.957 C 688.162 1082.527,723.070 1091.995,725.599 1091.997 C 732.747 1092.002,741.789 1086.442,746.081 1079.403 C 749.278 1074.160,749.986 1069.304,749.993 1052.594 C 749.997 1040.662,748.976 1029.941,747.534 1026.776 C 746.017 1023.445,726.780 1007.623,697.534 985.650 L 650.000 949.936 650.000 812.968 C 650.000 737.636,650.715 676.000,651.589 676.000 C 652.463 676.000,727.838 699.524,819.089 728.276 C 1005.777 787.099,1001.308 786.069,1021.717 774.961 C 1052.253 758.341,1059.101 720.839,1036.439 694.343 C 1033.318 690.694,950.031 637.405,841.000 569.296 L 651.000 450.607 650.000 303.803 L 649.000 157.000 642.783 144.000 C 630.523 118.363,607.094 102.394,579.587 100.926 C 571.564 100.498,561.621 101.001,557.492 102.044 " fill="#1D1E23" stroke="none" fill-rule="evenodd"></path></svg>