<svg width="1200" height="1200" viewBox="0 0 1200 1200" fill="none" xmlns="http://www.w3.org/2000/svg"><path d="M580.066 103.202 C 552.233 110.682,531.615 133.542,526.179 162.948 C 524.745 170.704,523.983 221.972,523.951 312.867 L 523.902 451.000 312.451 575.262 L 101.000 699.524 100.465 749.989 C 100.040 790.071,100.452 800.259,102.465 799.504 C 106.761 797.892,521.691 676.000,522.882 676.000 C 523.497 676.000,523.973 737.875,523.939 813.500 L 523.878 951.000 461.939 987.981 L 400.000 1024.962 400.000 1062.616 C 400.000 1097.545,400.253 1100.193,403.500 1099.214 C 405.425 1098.634,450.425 1087.320,503.500 1074.072 L 600.000 1049.984 696.500 1074.072 C 749.575 1087.320,794.575 1098.634,796.500 1099.214 C 799.747 1100.193,800.000 1097.545,800.000 1062.616 L 800.000 1024.962 738.061 987.981 L 676.122 951.000 676.061 813.500 C 676.027 737.875,676.503 676.000,677.118 676.000 C 678.309 676.000,1093.239 797.892,1097.535 799.504 C 1099.548 800.259,1099.960 790.071,1099.535 749.989 L 1099.000 699.524 887.549 575.262 L 676.098 451.000 676.049 312.867 C 676.017 221.972,675.255 170.704,673.821 162.948 C 668.302 133.091,647.680 110.554,619.060 103.100 C 604.545 99.319,594.415 99.346,580.066 103.202 " fill="#1D1E23" stroke="none" fill-rule="evenodd"></path></svg>