<svg width="1200" height="1200" viewBox="0 0 1200 1200" fill="none" xmlns="http://www.w3.org/2000/svg"><path d="M557.492 102.044 C 535.868 107.507,517.118 123.146,507.189 144.000 L 501.000 157.000 500.000 303.812 L 499.000 450.624 300.000 575.000 L 101.000 699.375 100.465 749.915 C 99.996 794.208,100.302 800.312,102.937 799.301 C 107.512 797.545,490.027 678.069,495.351 676.733 L 500.000 675.566 500.000 812.775 L 500.000 949.983 450.000 987.477 L 400.000 1024.971 400.000 1062.621 C 400.000 1100.086,400.021 1100.263,404.246 1098.922 C 406.581 1098.181,445.950 1086.872,491.733 1073.791 L 574.973 1050.007 659.987 1074.270 C 706.744 1087.615,746.125 1098.960,747.500 1099.481 C 749.445 1100.218,750.000 1092.054,750.000 1062.700 L 750.000 1024.971 700.000 987.477 L 650.000 949.983 650.000 812.775 L 650.000 675.566 654.649 676.733 C 659.973 678.069,1042.488 797.545,1047.063 799.301 C 1049.698 800.312,1050.004 794.208,1049.535 749.915 L 1049.000 699.375 850.000 575.000 L 651.000 450.624 650.000 303.812 L 649.000 157.000 642.783 144.000 C 630.523 118.363,607.094 102.394,579.587 100.926 C 571.564 100.498,561.621 101.001,557.492 102.044 " fill="#1D1E23" stroke="none" fill-rule="evenodd"></path></svg>