<svg width="1200" height="1200" viewBox="0 0 1200 1200" fill="none" xmlns="http://www.w3.org/2000/svg"><path d="M580.066 103.202 C 552.233 110.682,531.615 133.542,526.179 162.948 C 524.745 170.702,523.982 221.988,523.947 312.867 L 523.894 451.000 324.834 568.000 C 215.351 632.350,122.194 688.022,117.818 691.715 C 105.497 702.114,101.093 712.195,101.093 730.000 C 101.093 741.499,102.091 746.867,105.371 753.000 C 114.691 770.426,132.950 781.879,151.539 781.956 C 159.529 781.989,205.002 769.411,339.539 729.954 C 437.143 701.328,518.575 677.418,520.500 676.819 C 523.810 675.789,523.997 683.187,523.940 813.365 L 523.880 951.000 466.847 985.000 C 435.480 1003.700,407.832 1021.095,405.408 1023.655 C 401.494 1027.789,400.934 1030.816,400.415 1050.655 C 399.721 1077.118,402.322 1084.333,414.866 1090.749 L 422.731 1094.772 511.934 1072.437 L 601.137 1050.102 687.407 1072.033 C 747.197 1087.233,775.521 1093.596,779.683 1092.763 C 787.793 1091.141,797.605 1081.140,799.146 1072.923 C 801.502 1060.367,799.279 1031.238,795.528 1025.521 C 793.413 1022.295,769.414 1006.707,734.092 985.614 L 676.127 951.000 676.063 813.283 L 676.000 675.566 680.500 676.732 C 682.975 677.373,763.300 700.927,859.000 729.075 C 954.700 757.222,1038.169 780.770,1044.487 781.403 C 1058.675 782.824,1071.201 778.519,1082.452 768.354 C 1094.785 757.211,1098.907 747.604,1098.907 730.000 C 1098.907 712.196,1094.504 702.115,1082.183 691.715 C 1077.808 688.022,984.649 632.350,875.163 568.000 L 676.097 451.000 676.048 312.867 C 676.017 221.969,675.255 170.704,673.821 162.948 C 668.302 133.091,647.680 110.554,619.060 103.100 C 604.545 99.319,594.415 99.346,580.066 103.202 " fill="#1D1E23" stroke="none" fill-rule="evenodd"></path></svg>