<svg width="1200" height="1200" viewBox="0 0 1200 1200" fill="none" xmlns="http://www.w3.org/2000/svg"><path d="M180.113 202.144 C 153.373 207.499,124.387 229.461,112.203 253.598 C 99.418 278.924,100.062 260.585,100.030 600.402 C 100.009 818.663,100.651 912.925,102.210 920.402 C 110.026 957.883,142.117 989.974,179.598 997.790 C 194.606 1000.919,1005.394 1000.919,1020.402 997.790 C 1057.883 989.974,1089.974 957.883,1097.790 920.402 C 1100.901 905.481,1100.901 394.519,1097.790 379.598 C 1090.894 346.531,1067.041 319.355,1033.000 305.784 L 1021.000 301.000 811.093 300.447 L 601.187 299.893 563.037 262.190 C 541.703 241.105,519.248 220.841,512.092 216.216 C 487.497 200.320,496.714 201.122,334.000 200.721 C 254.250 200.525,185.001 201.165,180.113 202.144 M967.009 403.312 C 972.825 405.294,980.145 410.040,985.233 415.127 C 1000.764 430.659,1000.000 418.503,1000.000 650.000 C 1000.000 881.497,1000.764 869.341,985.233 884.873 C 968.820 901.285,1001.556 900.000,600.000 900.000 C 198.842 900.000,231.149 901.254,214.947 885.053 C 199.114 869.219,200.000 883.155,200.000 650.000 C 200.000 416.786,199.108 430.787,214.983 414.911 C 230.791 399.103,198.734 400.334,599.144 400.158 C 927.515 400.013,958.096 400.275,967.009 403.312 " fill="#1D1E23" stroke="none" fill-rule="evenodd"></path></svg>