<svg width="1200" height="1200" viewBox="0 0 1200 1200" fill="none" xmlns="http://www.w3.org/2000/svg"><path d="M176.525 203.028 C 144.556 209.974,117.556 233.762,105.293 265.788 L 101.000 277.000 100.462 576.999 C 100.096 781.089,100.596 880.237,102.027 887.129 C 108.942 920.439,136.022 949.669,169.566 960.030 C 182.216 963.936,189.106 964.000,600.000 964.000 C 1010.894 964.000,1017.784 963.936,1030.434 960.030 C 1063.150 949.924,1088.434 923.565,1097.017 890.613 C 1101.573 873.122,1101.496 386.583,1096.934 369.070 C 1088.055 334.980,1060.569 308.348,1024.594 298.978 C 1014.825 296.434,983.100 296.000,806.744 296.000 L 600.329 296.000 550.289 248.000 L 500.248 200.000 344.624 200.159 C 221.633 200.285,186.384 200.886,176.525 203.028 M509.000 343.959 L 559.000 391.831 779.500 391.915 L 1000.000 392.000 1000.000 631.000 L 1000.000 870.000 600.000 870.000 L 200.000 870.000 200.000 583.000 L 200.000 296.000 329.500 296.044 L 459.000 296.087 509.000 343.959 M720.000 443.771 C 701.767 449.666,691.654 455.927,677.964 469.795 C 657.513 490.510,648.492 513.876,650.556 540.783 C 653.392 577.752,677.986 609.429,715.320 624.199 C 725.134 628.081,730.674 628.819,750.000 628.819 C 769.326 628.819,774.866 628.081,784.680 624.199 C 811.786 613.475,834.779 591.186,843.910 566.780 C 863.021 515.702,833.123 459.537,778.137 443.223 C 763.405 438.852,734.369 439.126,720.000 443.771 M715.000 680.188 C 646.336 688.560,579.608 716.274,560.518 744.348 C 551.378 757.789,550.000 764.332,550.000 794.298 L 550.000 822.000 750.141 822.000 L 950.282 822.000 949.641 791.500 C 949.106 766.054,948.347 759.674,945.058 753.000 C 930.092 722.629,875.436 695.691,803.000 682.984 C 780.457 679.029,736.068 677.619,715.000 680.188 " fill="#1D1E23" stroke="none" fill-rule="evenodd"></path></svg>