<svg width="1200" height="1200" viewBox="0 0 1200 1200" fill="none" xmlns="http://www.w3.org/2000/svg"><path d="M310.424 255.500 C 309.342 258.525,250.304 415.695,179.229 604.766 C 108.153 793.838,50.000 948.876,50.000 949.296 C 50.000 949.715,77.200 949.820,110.445 949.529 L 170.890 949.000 202.091 861.000 L 233.292 773.000 375.146 772.506 L 517.000 772.012 548.068 860.506 L 579.135 949.000 639.568 949.529 C 672.805 949.820,700.000 949.708,700.000 949.279 C 700.000 948.851,641.847 793.812,570.771 604.750 C 499.695 415.687,440.657 258.525,439.576 255.500 L 437.609 250.000 375.000 250.000 L 312.391 250.000 310.424 255.500 M428.165 523.000 C 455.558 601.100,477.977 666.125,477.985 667.500 C 477.997 669.468,456.075 670.000,375.000 670.000 C 297.573 670.000,272.000 669.418,272.000 667.655 C 272.000 665.988,346.561 451.216,371.046 382.352 C 374.607 372.337,379.843 385.230,428.165 523.000 M900.000 475.000 L 900.000 550.000 825.000 550.000 L 750.000 550.000 750.000 600.000 L 750.000 650.000 825.000 650.000 L 900.000 650.000 900.000 725.000 L 900.000 800.000 950.000 800.000 L 1000.000 800.000 1000.000 725.000 L 1000.000 650.000 1075.000 650.000 L 1150.000 650.000 1150.000 600.000 L 1150.000 550.000 1075.000 550.000 L 1000.000 550.000 1000.000 475.000 L 1000.000 400.000 950.000 400.000 L 900.000 400.000 900.000 475.000 " fill="#1D1E23" stroke="none" fill-rule="evenodd"></path></svg>