<svg width="1200" height="1200" viewBox="0 0 1200 1200" fill="none" xmlns="http://www.w3.org/2000/svg"><path d="M356.000 252.066 C 333.684 256.746,308.721 274.660,297.558 294.006 C 293.305 301.375,84.238 855.064,75.999 880.775 C 72.676 891.148,74.651 906.203,81.053 919.287 C 97.069 952.022,141.127 959.943,167.899 934.901 C 173.112 930.025,178.886 922.653,180.732 918.518 C 182.578 914.383,195.183 879.950,208.743 842.000 L 233.398 773.000 375.199 772.501 L 517.000 772.001 542.988 846.501 L 568.977 921.000 579.988 932.333 C 588.964 941.571,593.191 944.297,602.850 947.077 C 632.546 955.623,661.249 941.248,672.041 912.425 C 676.776 899.778,676.999 892.092,673.022 878.699 C 671.385 873.184,621.873 740.496,562.997 583.836 C 480.923 365.449,454.207 296.464,448.475 288.128 C 439.580 275.190,422.203 261.860,406.644 256.039 C 393.709 251.199,369.275 249.282,356.000 252.066 M428.152 523.000 C 455.537 601.100,477.955 666.125,477.971 667.500 C 477.994 669.468,455.904 670.000,374.108 670.000 L 270.215 670.000 273.898 659.500 C 275.924 653.725,298.399 589.600,323.842 517.000 C 349.286 444.400,370.527 383.808,371.046 382.352 C 374.610 372.336,379.839 385.213,428.152 523.000 M932.171 403.434 C 920.364 407.604,907.459 420.822,903.312 432.991 C 900.553 441.089,900.000 451.671,900.000 496.356 L 900.000 550.000 846.356 550.000 C 784.602 550.000,778.836 551.059,764.947 564.947 C 745.384 584.511,745.384 615.489,764.947 635.053 C 778.836 648.941,784.602 650.000,846.356 650.000 L 900.000 650.000 900.000 703.644 C 900.000 748.329,900.553 758.911,903.312 767.009 C 909.598 785.455,930.181 800.000,950.000 800.000 C 969.819 800.000,990.402 785.455,996.688 767.009 C 999.447 758.911,1000.000 748.329,1000.000 703.644 L 1000.000 650.000 1053.644 650.000 C 1115.398 650.000,1121.164 648.941,1135.053 635.053 C 1154.616 615.489,1154.616 584.511,1135.053 564.947 C 1121.164 551.059,1115.398 550.000,1053.644 550.000 L 1000.000 550.000 1000.000 496.356 C 1000.000 434.602,998.941 428.836,985.053 414.947 C 971.176 401.071,951.185 396.718,932.171 403.434 " fill="#1D1E23" stroke="none" fill-rule="evenodd"></path></svg>