<svg width="1200" height="1200" viewBox="0 0 1200 1200" fill="none" xmlns="http://www.w3.org/2000/svg"><path d="M82.171 53.434 C 77.315 55.149,69.581 60.314,64.983 64.911 C 49.836 80.058,50.000 78.583,50.000 200.000 C 50.000 321.375,49.842 319.947,64.947 335.053 C 77.316 347.421,87.048 350.000,121.356 350.000 L 150.000 350.000 150.000 600.000 L 150.000 850.000 121.356 850.000 C 87.048 850.000,77.316 852.579,64.947 864.947 C 49.842 880.053,50.000 878.625,50.000 1000.000 C 50.000 1121.375,49.842 1119.947,64.947 1135.053 C 80.053 1150.158,78.625 1150.000,200.000 1150.000 C 321.375 1150.000,319.947 1150.158,335.053 1135.053 C 347.421 1122.684,350.000 1112.952,350.000 1078.644 L 350.000 1050.000 600.000 1050.000 L 850.000 1050.000 850.000 1078.644 C 850.000 1112.952,852.579 1122.684,864.947 1135.053 C 880.053 1150.158,878.625 1150.000,1000.000 1150.000 C 1121.375 1150.000,1119.947 1150.158,1135.053 1135.053 C 1150.158 1119.947,1150.000 1121.375,1150.000 1000.000 C 1150.000 878.625,1150.158 880.053,1135.053 864.947 C 1122.684 852.579,1112.952 850.000,1078.644 850.000 L 1050.000 850.000 1050.000 600.000 L 1050.000 350.000 1078.644 350.000 C 1112.952 350.000,1122.684 347.421,1135.053 335.053 C 1150.158 319.947,1150.000 321.375,1150.000 200.000 C 1150.000 78.625,1150.158 80.053,1135.053 64.947 C 1119.947 49.842,1121.375 50.000,1000.000 50.000 C 878.625 50.000,880.053 49.842,864.947 64.947 C 852.579 77.316,850.000 87.048,850.000 121.356 L 850.000 150.000 600.000 150.000 L 350.000 150.000 350.000 121.356 C 350.000 87.048,347.421 77.316,335.053 64.947 C 319.910 49.805,321.514 49.979,199.144 50.158 C 106.580 50.293,89.728 50.765,82.171 53.434 M250.000 200.000 L 250.000 250.000 200.000 250.000 L 150.000 250.000 150.000 200.000 L 150.000 150.000 200.000 150.000 L 250.000 150.000 250.000 200.000 M1050.000 200.000 L 1050.000 250.000 1000.000 250.000 L 950.000 250.000 950.000 200.000 L 950.000 150.000 1000.000 150.000 L 1050.000 150.000 1050.000 200.000 M850.000 278.644 C 850.000 312.952,852.579 322.684,864.947 335.053 C 877.316 347.421,887.048 350.000,921.356 350.000 L 950.000 350.000 950.000 600.000 L 950.000 850.000 921.356 850.000 C 887.048 850.000,877.316 852.579,864.947 864.947 C 852.579 877.316,850.000 887.048,850.000 921.356 L 850.000 950.000 600.000 950.000 L 350.000 950.000 350.000 921.356 C 350.000 887.048,347.421 877.316,335.053 864.947 C 322.684 852.579,312.952 850.000,278.644 850.000 L 250.000 850.000 250.000 600.000 L 250.000 350.000 278.644 350.000 C 312.952 350.000,322.684 347.421,335.053 335.053 C 347.421 322.684,350.000 312.952,350.000 278.644 L 350.000 250.000 600.000 250.000 L 850.000 250.000 850.000 278.644 M583.116 352.984 C 573.324 356.472,566.810 361.263,559.800 370.129 C 551.366 380.797,412.000 751.406,412.000 763.165 C 412.000 790.392,441.911 808.400,465.842 795.581 C 470.706 792.976,476.405 788.541,478.507 785.725 C 480.609 782.909,488.930 762.694,496.998 740.803 L 511.667 701.000 599.237 701.000 L 686.806 701.000 696.438 727.000 C 714.511 775.784,716.529 780.463,722.356 787.100 C 744.698 812.546,788.000 796.303,788.000 762.475 C 788.000 756.465,768.629 703.116,716.915 566.705 C 677.818 463.575,643.986 376.214,641.734 372.570 C 630.736 354.774,603.570 345.698,583.116 352.984 M632.543 541.510 C 649.892 592.930,664.067 635.675,664.043 636.500 C 664.019 637.325,635.200 638.000,600.000 638.000 C 550.150 638.000,535.993 637.447,535.969 635.500 C 535.925 632.027,598.766 448.041,600.000 448.030 C 600.550 448.024,615.194 490.091,632.543 541.510 M250.000 1000.000 L 250.000 1050.000 200.000 1050.000 L 150.000 1050.000 150.000 1000.000 L 150.000 950.000 200.000 950.000 L 250.000 950.000 250.000 1000.000 M1050.000 1000.000 L 1050.000 1050.000 1000.000 1050.000 L 950.000 1050.000 950.000 1000.000 L 950.000 950.000 1000.000 950.000 L 1050.000 950.000 1050.000 1000.000 " fill="#1D1E23" stroke="none" fill-rule="evenodd"></path></svg>