<svg width="1200" height="1200" viewBox="0 0 1200 1200" fill="none" xmlns="http://www.w3.org/2000/svg"><path d="M708.471 292.844 L 701.000 299.689 700.430 374.844 C 700.117 416.180,699.502 450.000,699.064 450.000 C 698.625 450.000,685.831 452.294,670.633 455.098 C 598.800 468.350,543.148 486.882,483.355 517.461 C 337.986 591.806,236.510 717.098,177.593 894.983 C 168.449 922.590,149.259 995.926,150.781 997.448 C 151.142 997.809,156.594 991.252,162.898 982.877 C 203.508 928.921,249.031 885.725,304.000 848.987 C 400.789 784.299,516.572 750.860,658.431 746.627 L 699.862 745.391 700.431 822.851 L 701.000 900.311 708.471 907.155 C 714.783 912.939,717.414 914.000,725.440 914.000 L 734.939 914.000 889.470 759.518 C 1012.348 636.677,1044.000 604.004,1044.000 600.000 C 1044.000 595.996,1012.348 563.323,889.470 440.482 L 734.939 286.000 725.440 286.000 C 717.414 286.000,714.783 287.061,708.471 292.844 " fill="#1D1E23" stroke="none" fill-rule="evenodd"></path></svg>