<svg width="1200" height="1200" viewBox="0 0 1200 1200" fill="none" xmlns="http://www.w3.org/2000/svg"><path d="M584.743 104.987 C 570.020 113.813,570.000 113.937,570.000 197.969 C 570.000 238.869,569.262 272.033,568.359 271.667 C 567.457 271.300,544.781 248.500,517.969 221.000 C 491.156 193.500,466.020 168.926,462.110 166.392 C 448.778 157.750,429.952 162.961,421.333 177.679 C 416.861 185.316,416.568 199.496,420.721 207.277 C 422.401 210.425,456.663 246.750,496.858 288.000 L 569.941 363.000 569.970 453.714 C 569.997 534.455,569.662 544.298,566.930 543.250 C 565.241 542.602,530.366 522.268,489.430 498.064 L 415.000 454.057 388.078 350.680 C 366.888 269.313,360.130 246.085,356.340 241.580 C 343.199 225.963,322.698 226.085,309.426 241.859 C 299.874 253.210,300.318 256.857,320.757 335.000 C 331.115 374.600,339.272 407.335,338.884 407.744 C 338.496 408.153,310.485 392.089,276.637 372.045 C 242.789 352.001,212.246 335.139,208.764 334.574 C 181.209 330.103,162.794 366.983,182.822 386.529 C 186.468 390.088,216.139 408.691,248.757 427.869 C 281.375 447.047,307.373 463.332,306.531 464.059 C 305.689 464.785,274.400 473.703,237.000 483.877 C 164.371 503.633,158.213 506.216,152.788 519.199 C 148.813 528.713,149.386 537.799,154.534 546.889 C 159.973 556.491,169.226 562.228,179.397 562.305 C 183.579 562.337,231.404 550.140,285.675 535.201 L 384.350 508.040 461.156 553.467 C 519.529 587.993,537.367 599.429,535.481 601.121 C 530.733 605.381,386.252 690.000,383.727 690.000 C 382.328 690.000,336.493 677.726,281.870 662.725 C 170.637 632.177,173.021 632.508,159.765 645.765 C 147.237 658.292,147.369 678.201,160.058 690.055 C 165.983 695.589,166.417 695.725,262.595 722.144 C 298.610 732.036,307.644 735.173,305.595 737.072 C 304.168 738.395,276.868 754.869,244.928 773.682 C 212.988 792.495,184.188 810.672,180.928 814.075 C 175.532 819.708,175.000 821.496,175.000 834.020 C 175.000 847.008,175.388 848.178,181.930 854.928 C 190.487 863.757,201.466 867.147,211.150 863.951 C 214.939 862.700,245.213 845.583,278.426 825.912 C 311.639 806.241,339.028 790.362,339.291 790.625 C 339.554 790.888,331.243 823.480,320.822 863.051 C 308.189 911.021,302.192 937.194,302.825 941.582 C 306.136 964.518,330.672 976.028,349.580 963.515 C 353.861 960.682,358.517 955.579,359.927 952.176 C 361.337 948.772,374.314 900.787,388.765 845.542 L 415.039 745.097 484.456 703.952 C 522.636 681.323,557.502 660.768,561.937 658.276 L 570.000 653.744 570.000 744.958 L 570.000 836.172 497.500 910.211 C 457.625 950.933,423.319 987.378,421.265 991.200 C 411.340 1009.668,422.774 1033.226,442.756 1035.478 C 447.709 1036.037,454.291 1035.885,457.381 1035.141 C 461.189 1034.225,480.211 1016.260,516.408 979.394 L 569.816 925.000 569.908 1001.031 C 569.993 1071.125,570.290 1077.607,573.708 1084.031 C 584.822 1104.918,616.692 1104.441,626.753 1083.237 C 629.565 1077.312,630.014 1066.253,630.103 1000.698 L 630.206 925.000 682.603 978.327 C 711.421 1007.657,737.016 1032.659,739.481 1033.887 C 744.926 1036.601,755.226 1037.142,762.000 1035.070 C 778.728 1029.953,787.375 1006.654,778.500 990.611 C 776.575 987.131,742.375 950.958,702.500 910.228 L 630.000 836.172 630.000 745.045 L 630.000 653.919 637.500 657.882 C 641.625 660.062,676.498 680.581,714.995 703.480 L 784.990 745.115 811.270 845.599 C 825.723 900.866,838.673 948.795,840.045 952.110 C 850.338 976.959,888.126 973.070,896.135 946.337 C 898.509 938.415,897.687 934.391,879.438 864.547 C 868.881 824.145,860.453 790.880,860.709 790.624 C 860.965 790.368,886.335 805.052,917.087 823.255 C 986.137 864.126,985.891 864.000,996.625 864.000 C 1023.381 864.000,1036.019 828.830,1015.758 810.756 C 1013.141 808.422,986.250 791.911,956.000 774.065 C 892.863 736.818,891.409 735.924,892.363 734.970 C 892.754 734.580,924.408 725.636,962.707 715.095 C 1001.006 704.554,1034.501 694.371,1037.141 692.465 C 1039.782 690.559,1043.865 685.113,1046.216 680.363 C 1053.204 666.239,1049.291 651.621,1035.830 641.571 C 1025.097 633.559,1022.012 634.113,917.648 662.792 C 863.192 677.756,817.550 690.000,816.220 690.000 C 813.734 690.000,668.985 605.213,664.493 601.125 C 662.561 599.367,679.588 588.416,738.724 553.383 L 815.463 507.923 914.231 535.149 C 968.554 550.123,1016.403 562.346,1020.562 562.312 C 1046.508 562.096,1059.250 528.083,1040.182 509.943 C 1033.193 503.295,1028.714 501.780,963.879 484.135 C 925.995 473.826,894.299 464.782,893.443 464.038 C 892.586 463.294,919.873 446.112,954.081 425.856 C 1023.345 384.840,1025.000 383.412,1025.000 364.647 C 1025.000 347.189,1012.783 334.982,995.353 335.026 C 985.518 335.051,981.916 336.887,923.360 371.720 C 889.458 391.887,861.385 408.052,860.975 407.642 C 860.566 407.232,868.778 374.520,879.225 334.949 C 897.092 267.274,898.088 262.465,895.986 254.000 C 889.361 227.318,857.966 221.528,841.763 244.000 C 839.760 246.778,826.494 293.885,811.913 350.000 C 795.580 412.858,784.410 452.234,782.335 454.269 C 779.086 457.453,638.839 541.036,632.956 543.294 C 630.375 544.284,630.000 532.929,630.000 453.714 L 630.000 363.000 702.173 289.000 C 741.869 248.300,776.065 212.300,778.166 209.000 C 783.082 201.276,783.139 187.061,778.289 178.019 C 774.160 170.318,760.508 162.000,752.000 162.000 C 741.521 162.000,730.161 171.579,682.029 221.000 C 655.246 248.500,632.583 271.300,631.666 271.667 C 630.750 272.033,630.000 238.869,630.000 197.969 C 630.000 113.705,629.996 113.683,615.064 104.932 C 604.408 98.687,595.225 98.704,584.743 104.987 " fill="#1D1E23" stroke="none" fill-rule="evenodd"></path></svg>