<svg width="1200" height="1200" viewBox="0 0 1200 1200" fill="none" xmlns="http://www.w3.org/2000/svg"><path d="M282.171 253.434 C 270.364 257.604,257.459 270.822,253.312 282.991 C 250.440 291.420,250.000 303.653,250.000 375.000 C 250.000 468.526,250.248 470.354,264.947 485.053 C 284.511 504.616,315.489 504.616,335.053 485.053 C 348.941 471.164,350.000 465.398,350.000 403.644 L 350.000 350.000 403.644 350.000 C 465.398 350.000,471.164 348.941,485.053 335.053 C 504.616 315.489,504.616 284.511,485.053 264.947 C 470.303 250.198,468.658 249.978,374.144 250.158 C 304.231 250.291,289.595 250.812,282.171 253.434 M732.171 253.434 C 714.528 259.666,700.000 280.694,700.000 300.000 C 700.000 319.819,714.545 340.402,732.991 346.688 C 741.089 349.447,751.671 350.000,796.356 350.000 L 850.000 350.000 850.000 403.644 C 850.000 465.398,851.059 471.164,864.947 485.053 C 884.511 504.616,915.489 504.616,935.053 485.053 C 949.752 470.354,950.000 468.526,950.000 375.000 C 950.000 281.474,949.752 279.646,935.053 264.947 C 920.303 250.198,918.658 249.978,824.144 250.158 C 754.231 250.291,739.595 250.812,732.171 253.434 M282.171 703.434 C 270.364 707.604,257.459 720.822,253.312 732.991 C 250.440 741.420,250.000 753.653,250.000 825.000 C 250.000 918.526,250.248 920.354,264.947 935.053 C 279.646 949.752,281.474 950.000,375.000 950.000 C 468.526 950.000,470.354 949.752,485.053 935.053 C 504.616 915.489,504.616 884.511,485.053 864.947 C 471.164 851.059,465.398 850.000,403.644 850.000 L 350.000 850.000 350.000 796.356 C 350.000 734.602,348.941 728.836,335.053 714.947 C 321.176 701.071,301.185 696.718,282.171 703.434 M882.171 703.434 C 870.364 707.604,857.459 720.822,853.312 732.991 C 850.553 741.089,850.000 751.671,850.000 796.356 L 850.000 850.000 796.356 850.000 C 734.602 850.000,728.836 851.059,714.947 864.947 C 695.384 884.511,695.384 915.489,714.947 935.053 C 729.646 949.752,731.474 950.000,825.000 950.000 C 918.526 950.000,920.354 949.752,935.053 935.053 C 949.752 920.354,950.000 918.526,950.000 825.000 C 950.000 731.474,949.752 729.646,935.053 714.947 C 921.176 701.071,901.185 696.718,882.171 703.434 " fill="#1D1E23" stroke="none" fill-rule="evenodd"></path></svg>