<svg width="1200" height="1200" viewBox="0 0 1200 1200" fill="none" xmlns="http://www.w3.org/2000/svg"><path d="M400.000 325.000 L 400.000 400.000 325.000 400.000 L 250.000 400.000 250.000 450.000 L 250.000 500.000 375.000 500.000 L 500.000 500.000 500.000 375.000 L 500.000 250.000 450.000 250.000 L 400.000 250.000 400.000 325.000 M700.000 375.000 L 700.000 500.000 825.000 500.000 L 950.000 500.000 950.000 450.000 L 950.000 400.000 875.000 400.000 L 800.000 400.000 800.000 325.000 L 800.000 250.000 750.000 250.000 L 700.000 250.000 700.000 375.000 M250.000 750.000 L 250.000 800.000 325.000 800.000 L 400.000 800.000 400.000 875.000 L 400.000 950.000 450.000 950.000 L 500.000 950.000 500.000 825.000 L 500.000 700.000 375.000 700.000 L 250.000 700.000 250.000 750.000 M700.000 825.000 L 700.000 950.000 750.000 950.000 L 800.000 950.000 800.000 875.000 L 800.000 800.000 875.000 800.000 L 950.000 800.000 950.000 750.000 L 950.000 700.000 825.000 700.000 L 700.000 700.000 700.000 825.000 " fill="#1D1E23" stroke="none" fill-rule="evenodd"></path></svg>