<svg width="1200" height="1200" viewBox="0 0 1200 1200" fill="none" xmlns="http://www.w3.org/2000/svg"><path d="M432.171 253.434 C 420.364 257.604,407.459 270.822,403.312 282.991 C 400.553 291.089,400.000 301.671,400.000 346.356 L 400.000 400.000 346.356 400.000 C 284.602 400.000,278.836 401.059,264.947 414.947 C 245.384 434.511,245.384 465.489,264.947 485.053 C 279.646 499.752,281.474 500.000,375.000 500.000 C 468.526 500.000,470.354 499.752,485.053 485.053 C 499.752 470.354,500.000 468.526,500.000 375.000 C 500.000 281.474,499.752 279.646,485.053 264.947 C 471.176 251.071,451.185 246.718,432.171 253.434 M732.171 253.434 C 720.364 257.604,707.459 270.822,703.312 282.991 C 700.440 291.420,700.000 303.653,700.000 375.000 C 700.000 468.526,700.248 470.354,714.947 485.053 C 729.646 499.752,731.474 500.000,825.000 500.000 C 918.526 500.000,920.354 499.752,935.053 485.053 C 954.616 465.489,954.616 434.511,935.053 414.947 C 921.164 401.059,915.398 400.000,853.644 400.000 L 800.000 400.000 800.000 346.356 C 800.000 284.602,798.941 278.836,785.053 264.947 C 771.176 251.071,751.185 246.718,732.171 253.434 M282.171 703.434 C 264.528 709.666,250.000 730.694,250.000 750.000 C 250.000 769.819,264.545 790.402,282.991 796.688 C 291.089 799.447,301.671 800.000,346.356 800.000 L 400.000 800.000 400.000 853.644 C 400.000 898.329,400.553 908.911,403.312 917.009 C 409.598 935.455,430.181 950.000,450.000 950.000 C 462.080 950.000,476.072 944.033,485.053 935.053 C 499.752 920.354,500.000 918.526,500.000 825.000 C 500.000 731.474,499.752 729.646,485.053 714.947 C 470.303 700.198,468.658 699.978,374.144 700.158 C 304.231 700.291,289.595 700.812,282.171 703.434 M732.171 703.434 C 720.364 707.604,707.459 720.822,703.312 732.991 C 700.440 741.420,700.000 753.653,700.000 825.000 C 700.000 918.526,700.248 920.354,714.947 935.053 C 723.928 944.033,737.920 950.000,750.000 950.000 C 769.819 950.000,790.402 935.455,796.688 917.009 C 799.447 908.911,800.000 898.329,800.000 853.644 L 800.000 800.000 853.644 800.000 C 915.398 800.000,921.164 798.941,935.053 785.053 C 954.616 765.489,954.616 734.511,935.053 714.947 C 920.303 700.198,918.658 699.978,824.144 700.158 C 754.231 700.291,739.595 700.812,732.171 703.434 " fill="#1D1E23" stroke="none" fill-rule="evenodd"></path></svg>