<svg width="1200" height="1200" viewBox="0 0 1200 1200" fill="none" xmlns="http://www.w3.org/2000/svg"><path d="M250.000 375.000 L 250.000 500.000 300.000 500.000 L 350.000 500.000 350.000 425.000 L 350.000 350.000 425.000 350.000 L 500.000 350.000 500.000 300.000 L 500.000 250.000 375.000 250.000 L 250.000 250.000 250.000 375.000 M700.000 300.000 L 700.000 350.000 775.000 350.000 L 850.000 350.000 850.000 425.000 L 850.000 500.000 900.000 500.000 L 950.000 500.000 950.000 375.000 L 950.000 250.000 825.000 250.000 L 700.000 250.000 700.000 300.000 M250.000 825.000 L 250.000 950.000 375.000 950.000 L 500.000 950.000 500.000 900.000 L 500.000 850.000 425.000 850.000 L 350.000 850.000 350.000 775.000 L 350.000 700.000 300.000 700.000 L 250.000 700.000 250.000 825.000 M850.000 775.000 L 850.000 850.000 775.000 850.000 L 700.000 850.000 700.000 900.000 L 700.000 950.000 825.000 950.000 L 950.000 950.000 950.000 825.000 L 950.000 700.000 900.000 700.000 L 850.000 700.000 850.000 775.000 " fill="#1D1E23" stroke="none" fill-rule="evenodd"></path></svg>