<svg width="1200" height="1200" viewBox="0 0 1200 1200" fill="none" xmlns="http://www.w3.org/2000/svg"><path d="M365.000 102.291 C 344.558 104.551,311.124 112.815,292.458 120.221 C 192.579 159.856,124.627 242.529,104.417 349.000 C 101.317 365.330,101.000 388.618,101.000 600.000 C 101.000 855.358,100.506 843.563,113.018 887.000 C 119.505 909.519,136.054 944.304,150.716 966.238 C 196.417 1034.604,265.641 1079.761,349.000 1095.583 C 365.330 1098.683,388.618 1099.000,600.000 1099.000 C 811.382 1099.000,834.670 1098.683,851.000 1095.583 C 879.874 1090.103,903.417 1082.555,927.238 1071.143 C 1017.073 1028.103,1076.789 950.013,1095.583 851.000 C 1098.683 834.670,1099.000 811.382,1099.000 600.000 C 1099.000 344.642,1099.494 356.437,1086.982 313.000 C 1080.495 290.481,1063.946 255.696,1049.284 233.762 C 999.830 159.783,920.021 111.506,831.579 102.072 C 807.632 99.517,388.313 99.715,365.000 102.291 M851.895 206.615 C 927.322 228.646,980.497 285.855,995.913 361.559 C 1000.036 381.804,1000.091 385.534,999.543 606.559 L 998.986 831.000 993.630 850.416 C 973.815 922.237,920.108 975.214,847.445 994.610 L 831.000 999.000 600.000 999.000 L 369.000 999.000 352.555 994.610 C 279.727 975.170,226.683 922.861,206.464 850.545 L 201.000 831.000 201.000 600.000 L 201.000 369.000 206.464 349.455 C 228.412 270.955,289.467 215.846,369.839 201.992 C 374.877 201.124,481.150 200.567,606.000 200.755 L 833.000 201.096 851.895 206.615 M352.381 466.050 C 331.764 471.451,319.155 478.803,302.790 494.966 C 284.889 512.645,273.628 534.595,267.652 563.458 C 261.772 591.857,263.253 637.277,270.897 662.946 C 278.488 688.437,286.713 702.837,302.939 719.044 C 325.717 741.794,351.227 751.246,385.000 749.451 C 416.725 747.765,436.792 736.268,447.868 713.432 L 453.898 701.000 453.949 723.566 L 454.000 746.131 476.500 745.566 L 499.000 745.000 499.524 669.500 L 500.048 594.000 447.024 594.000 L 394.000 594.000 394.000 616.000 L 394.000 638.000 421.000 638.000 L 448.000 638.000 448.000 650.268 C 448.000 666.923,444.659 676.839,436.061 685.699 C 419.046 703.231,390.385 708.161,361.020 698.607 C 347.042 694.059,329.972 676.787,324.820 661.980 C 321.480 652.379,321.000 645.097,321.000 604.000 C 321.000 557.595,321.066 556.861,326.180 546.000 C 333.581 530.285,340.513 522.983,354.624 516.036 C 377.504 504.772,406.746 505.924,425.469 518.826 C 430.697 522.429,438.693 530.812,443.239 537.455 L 451.505 549.533 471.752 537.664 C 482.889 531.137,492.000 524.705,492.000 523.371 C 492.000 519.356,478.156 500.081,468.937 491.262 C 447.987 471.218,421.911 461.921,387.180 462.110 C 374.047 462.182,361.895 463.558,352.381 466.050 M556.000 487.000 L 556.000 508.000 575.019 508.000 L 594.038 508.000 593.519 605.500 L 593.000 703.000 574.500 703.575 L 556.000 704.150 556.000 724.075 L 556.000 744.000 620.000 744.000 L 684.000 744.000 684.000 724.075 L 684.000 704.150 665.500 703.575 L 647.000 703.000 646.481 605.500 L 645.962 508.000 664.981 508.000 L 684.000 508.000 684.000 487.000 L 684.000 466.000 620.000 466.000 L 556.000 466.000 556.000 487.000 M746.000 605.000 L 746.000 744.000 772.000 744.000 L 798.000 744.000 798.000 685.000 L 798.000 626.000 853.000 626.000 L 908.000 626.000 908.000 603.000 L 908.000 580.000 853.000 580.000 L 798.000 580.000 798.000 546.000 L 798.000 512.000 861.000 512.000 L 924.000 512.000 924.000 489.000 L 924.000 466.000 835.000 466.000 L 746.000 466.000 746.000 605.000 " fill="#1D1E23" stroke="none" fill-rule="evenodd"></path></svg>