<svg width="1200" height="1200" viewBox="0 0 1200 1200" fill="none" xmlns="http://www.w3.org/2000/svg"><path d="M333.000 102.781 C 319.627 107.038,312.932 111.375,303.444 121.928 C 286.540 140.730,288.000 95.523,288.000 600.000 C 288.000 1104.532,286.535 1059.265,303.469 1078.099 C 308.474 1083.666,317.166 1090.646,322.785 1093.611 L 333.000 1099.000 565.338 1099.533 L 797.676 1100.065 809.276 1095.725 C 824.902 1089.879,839.865 1074.938,845.692 1059.363 L 850.000 1047.850 850.000 600.000 C 850.000 154.599,849.978 152.091,845.933 141.281 C 840.500 126.760,828.447 113.496,814.429 106.612 L 803.000 101.000 572.000 100.617 C 389.593 100.314,339.317 100.770,333.000 102.781 M626.000 136.000 C 628.476 138.476,630.000 142.667,630.000 147.000 C 630.000 151.333,628.476 155.524,626.000 158.000 C 622.155 161.845,619.333 162.000,553.000 162.000 C 486.667 162.000,483.845 161.845,480.000 158.000 C 477.524 155.524,476.000 151.333,476.000 147.000 C 476.000 142.667,477.524 138.476,480.000 136.000 C 483.845 132.155,486.667 132.000,553.000 132.000 C 619.333 132.000,622.155 132.155,626.000 136.000 M818.000 319.503 L 818.000 413.006 568.000 663.000 L 318.000 912.994 318.000 569.497 L 318.000 226.000 568.000 226.000 L 818.000 226.000 818.000 319.503 M525.000 352.785 C 517.627 356.109,510.964 363.158,508.133 370.630 C 506.774 374.219,506.000 401.065,506.000 444.661 C 506.000 507.393,506.307 513.640,509.703 520.031 C 513.105 526.432,524.244 536.000,528.296 536.000 C 529.233 536.000,530.000 519.044,530.000 498.319 L 530.000 460.639 536.137 448.358 C 551.301 418.011,585.219 404.931,614.000 418.330 C 627.254 424.500,638.572 435.487,645.597 449.000 C 650.328 458.102,650.870 461.580,651.626 487.737 L 652.457 516.473 673.301 495.737 L 694.145 475.000 693.572 422.642 C 692.942 364.981,693.039 365.437,679.233 355.124 C 673.928 351.161,670.929 350.982,602.356 350.540 C 545.900 350.176,529.747 350.645,525.000 352.785 M582.000 445.443 C 574.610 448.220,567.238 455.256,563.811 462.802 C 560.414 470.282,560.083 477.046,560.036 540.000 L 559.985 609.000 556.011 602.482 C 549.763 592.235,540.831 587.643,528.861 588.523 C 510.179 589.898,500.101 602.973,499.873 626.131 C 499.786 634.952,499.223 637.742,498.081 635.000 C 497.165 632.800,493.563 628.300,490.076 625.000 C 484.387 619.615,482.421 619.000,470.902 619.000 C 458.842 619.000,457.634 619.433,450.897 626.169 C 443.405 633.662,440.132 642.945,440.048 656.945 L 440.000 664.890 436.707 659.945 C 426.160 644.104,407.771 642.990,392.002 657.236 C 382.412 665.900,379.982 675.729,380.045 705.598 C 380.101 731.730,383.333 775.163,385.512 779.057 C 386.686 781.155,417.817 751.192,503.667 665.333 L 620.227 548.761 619.613 505.880 C 619.052 466.671,618.658 462.541,615.000 457.635 C 607.252 447.244,592.103 441.647,582.000 445.443 M818.000 726.000 L 818.000 976.000 569.000 976.000 C 432.050 976.000,320.000 975.330,320.000 974.512 C 320.000 973.693,347.670 945.343,381.488 911.512 L 442.976 850.000 520.988 849.953 L 599.000 849.906 610.000 835.771 C 616.050 827.996,632.115 805.742,645.700 786.318 C 672.933 747.379,684.670 732.297,704.878 710.281 C 720.175 693.613,724.462 685.146,724.462 671.592 C 724.462 654.115,711.286 640.000,694.973 640.000 C 680.794 640.000,660.554 651.703,638.855 672.447 L 620.000 690.473 620.000 681.744 L 620.000 673.015 718.492 574.508 C 772.663 520.328,817.213 476.000,817.492 476.000 C 817.772 476.000,818.000 588.500,818.000 726.000 M434.771 1008.259 C 441.847 1011.484,445.161 1020.368,442.071 1027.828 C 438.557 1036.312,431.204 1038.501,408.932 1037.697 C 391.511 1037.068,389.272 1036.542,385.821 1032.278 C 380.501 1025.704,380.950 1016.868,386.909 1010.909 C 391.432 1006.386,393.312 1006.000,410.815 1006.000 C 421.263 1006.000,432.043 1007.017,434.771 1008.259 M596.181 1011.722 C 601.140 1017.853,601.042 1026.127,595.945 1031.599 C 590.428 1037.521,585.177 1038.520,563.884 1037.701 C 547.575 1037.074,545.239 1036.500,541.822 1032.278 C 536.436 1025.625,536.949 1016.869,543.084 1010.734 C 548.013 1005.806,548.842 1005.671,570.264 1006.325 C 590.660 1006.948,592.655 1007.363,596.181 1011.722 M751.091 1010.909 C 757.050 1016.869,757.499 1025.705,752.177 1032.278 C 748.554 1036.753,747.130 1037.000,725.000 1037.000 C 702.870 1037.000,701.446 1036.753,697.823 1032.278 C 692.501 1025.705,692.950 1016.869,698.909 1010.909 C 703.503 1006.315,705.177 1006.000,725.000 1006.000 C 744.823 1006.000,746.497 1006.315,751.091 1010.909 " fill="#1D1E23" stroke="none" fill-rule="evenodd"></path></svg>