<svg width="1200" height="1200" viewBox="0 0 1200 1200" fill="none" xmlns="http://www.w3.org/2000/svg"><path d="M331.000 201.227 C 328.800 201.674,322.090 203.036,316.089 204.255 C 272.229 213.162,229.135 249.565,211.683 292.451 C 199.577 322.197,200.000 311.064,200.000 600.000 C 200.000 888.936,199.577 877.803,211.683 907.549 C 226.054 942.864,257.136 973.946,292.451 988.317 C 322.197 1000.423,311.064 1000.000,600.000 1000.000 C 888.871 1000.000,877.822 1000.419,907.483 988.341 C 942.497 974.083,974.083 942.497,988.341 907.483 C 1000.419 877.822,1000.000 888.871,1000.000 600.000 C 1000.000 370.019,999.602 333.903,996.923 320.933 C 985.200 264.178,946.365 222.960,887.000 204.265 C 878.130 201.472,846.382 201.076,606.000 200.765 C 456.950 200.573,333.200 200.780,331.000 201.227 M867.009 303.312 C 872.825 305.294,880.145 310.040,885.233 315.127 C 900.940 330.834,900.000 312.706,900.000 600.000 C 900.000 887.294,900.940 869.166,885.233 884.873 C 869.021 901.084,889.460 900.000,600.000 900.000 C 310.865 900.000,330.948 901.053,314.947 885.053 C 298.947 869.052,300.000 889.135,300.000 600.000 C 300.000 310.799,298.941 330.954,314.983 314.911 C 330.613 299.282,310.334 300.335,599.144 300.158 C 834.437 300.014,858.148 300.293,867.009 303.312 " fill="#1D1E23" stroke="none" fill-rule="evenodd"></path></svg>