<svg width="1200" height="1200" viewBox="0 0 1200 1200" fill="none" xmlns="http://www.w3.org/2000/svg"><path d="M234.000 151.295 C 223.509 153.057,204.586 160.796,194.526 167.438 C 173.539 181.296,157.312 205.132,152.210 229.598 C 149.166 244.198,149.166 455.802,152.210 470.402 C 160.026 507.883,192.117 539.974,229.598 547.790 C 244.198 550.834,455.802 550.834,470.402 547.790 C 507.883 539.974,539.974 507.883,547.790 470.402 C 550.834 455.802,550.834 244.198,547.790 229.598 C 540.894 196.531,517.041 169.355,483.000 155.784 L 471.000 151.000 355.000 150.727 C 291.200 150.578,236.750 150.833,234.000 151.295 M734.000 151.295 C 723.509 153.057,704.586 160.796,694.526 167.438 C 673.539 181.296,657.312 205.132,652.210 229.598 C 650.752 236.590,650.000 277.564,650.000 350.000 C 650.000 422.436,650.752 463.410,652.210 470.402 C 660.026 507.883,692.117 539.974,729.598 547.790 C 744.198 550.834,955.802 550.834,970.402 547.790 C 1007.883 539.974,1039.974 507.883,1047.790 470.402 C 1050.834 455.802,1050.834 244.198,1047.790 229.598 C 1040.894 196.531,1017.041 169.355,983.000 155.784 L 971.000 151.000 855.000 150.727 C 791.200 150.578,736.750 150.833,734.000 151.295 M234.000 651.295 C 223.509 653.057,204.586 660.796,194.526 667.438 C 173.539 681.296,157.312 705.132,152.210 729.598 C 149.166 744.198,149.166 955.802,152.210 970.402 C 160.026 1007.883,192.117 1039.974,229.598 1047.790 C 244.198 1050.834,455.802 1050.834,470.402 1047.790 C 507.883 1039.974,539.974 1007.883,547.790 970.402 C 550.834 955.802,550.834 744.198,547.790 729.598 C 540.894 696.531,517.041 669.355,483.000 655.784 L 471.000 651.000 355.000 650.727 C 291.200 650.578,236.750 650.833,234.000 651.295 M734.000 651.295 C 723.509 653.057,704.586 660.796,694.526 667.438 C 673.539 681.296,657.312 705.132,652.210 729.598 C 650.752 736.590,650.000 777.564,650.000 850.000 C 650.000 922.436,650.752 963.410,652.210 970.402 C 660.026 1007.883,692.117 1039.974,729.598 1047.790 C 744.198 1050.834,955.802 1050.834,970.402 1047.790 C 1007.883 1039.974,1039.974 1007.883,1047.790 970.402 C 1050.834 955.802,1050.834 744.198,1047.790 729.598 C 1040.894 696.531,1017.041 669.355,983.000 655.784 L 971.000 651.000 855.000 650.727 C 791.200 650.578,736.750 650.833,734.000 651.295 " fill="#1D1E23" stroke="none" fill-rule="evenodd"></path></svg>