<svg width="1200" height="1200" viewBox="0 0 1200 1200" fill="none" xmlns="http://www.w3.org/2000/svg"><path d="M184.000 101.326 C 173.657 102.999,154.635 110.764,144.526 117.438 C 123.539 131.296,107.312 155.132,102.210 179.598 C 99.081 194.606,99.081 1005.394,102.210 1020.402 C 110.026 1057.883,142.117 1089.974,179.598 1097.790 C 194.606 1100.919,1005.394 1100.919,1020.402 1097.790 C 1057.883 1089.974,1089.974 1057.883,1097.790 1020.402 C 1100.919 1005.394,1100.919 194.606,1097.790 179.598 C 1090.894 146.531,1067.041 119.355,1033.000 105.784 L 1021.000 101.000 605.000 100.758 C 376.200 100.626,186.750 100.881,184.000 101.326 M400.000 300.000 L 400.000 400.000 300.000 400.000 L 200.000 400.000 200.000 321.356 C 200.000 231.845,200.319 229.575,214.983 214.911 C 229.377 200.518,230.677 200.336,320.500 200.158 L 400.000 200.000 400.000 300.000 M700.000 300.000 L 700.000 400.000 600.000 400.000 L 500.000 400.000 500.000 300.000 L 500.000 200.000 600.000 200.000 L 700.000 200.000 700.000 300.000 M967.009 203.312 C 972.825 205.294,980.145 210.040,985.233 215.127 C 999.516 229.411,1000.000 232.923,1000.000 322.363 L 1000.000 400.000 900.000 400.000 L 800.000 400.000 800.000 300.000 L 800.000 200.000 878.644 200.000 C 946.599 200.000,958.609 200.450,967.009 203.312 M400.000 600.000 L 400.000 700.000 300.000 700.000 L 200.000 700.000 200.000 600.000 L 200.000 500.000 300.000 500.000 L 400.000 500.000 400.000 600.000 M700.000 600.000 L 700.000 700.000 600.000 700.000 L 500.000 700.000 500.000 600.000 L 500.000 500.000 600.000 500.000 L 700.000 500.000 700.000 600.000 M1000.000 600.000 L 1000.000 700.000 900.000 700.000 L 800.000 700.000 800.000 600.000 L 800.000 500.000 900.000 500.000 L 1000.000 500.000 1000.000 600.000 M400.000 900.000 L 400.000 1000.000 321.356 1000.000 C 231.882 1000.000,229.570 999.675,214.947 985.053 C 200.325 970.430,200.000 968.118,200.000 878.644 L 200.000 800.000 300.000 800.000 L 400.000 800.000 400.000 900.000 M700.000 900.000 L 700.000 1000.000 600.000 1000.000 L 500.000 1000.000 500.000 900.000 L 500.000 800.000 600.000 800.000 L 700.000 800.000 700.000 900.000 M1000.000 877.637 C 1000.000 967.077,999.516 970.589,985.233 984.873 C 970.403 999.702,968.304 1000.000,878.644 1000.000 L 800.000 1000.000 800.000 900.000 L 800.000 800.000 900.000 800.000 L 1000.000 800.000 1000.000 877.637 " fill="#1D1E23" stroke="none" fill-rule="evenodd"></path></svg>