<svg width="1200" height="1200" viewBox="0 0 1200 1200" fill="none" xmlns="http://www.w3.org/2000/svg"><path d="M381.000 251.113 C 378.800 251.623,372.090 253.036,366.089 254.255 C 341.774 259.193,312.737 275.526,293.386 295.150 C 250.799 338.340,238.600 400.828,261.683 457.549 C 276.054 492.864,307.136 523.946,342.451 538.317 C 426.583 572.555,519.320 526.876,544.312 438.887 C 550.651 416.570,550.651 383.430,544.312 361.113 C 536.654 334.149,525.568 315.420,505.080 294.830 C 489.865 279.539,483.989 275.169,468.000 267.258 C 457.550 262.088,444.050 256.512,438.000 254.867 C 427.033 251.886,388.595 249.354,381.000 251.113 M781.000 251.113 C 778.800 251.623,772.090 253.036,766.089 254.255 C 741.774 259.193,712.737 275.526,693.386 295.150 C 650.799 338.340,638.600 400.828,661.683 457.549 C 676.054 492.864,707.136 523.946,742.451 538.317 C 826.583 572.555,919.320 526.876,944.312 438.887 C 950.651 416.570,950.651 383.430,944.312 361.113 C 936.654 334.149,925.568 315.420,905.080 294.830 C 889.865 279.539,883.989 275.169,868.000 267.258 C 857.550 262.088,844.050 256.512,838.000 254.867 C 827.033 251.886,788.595 249.354,781.000 251.113 M358.576 652.044 C 298.198 657.912,228.518 674.621,178.328 695.265 C 106.824 724.677,61.798 764.199,52.171 806.000 C 50.965 811.236,50.077 843.233,50.049 882.500 L 50.000 950.000 400.000 950.000 L 750.000 950.000 749.951 882.500 C 749.923 843.233,749.035 811.236,747.829 806.000 C 738.436 765.215,694.857 726.203,626.000 696.938 C 586.127 679.991,525.096 663.683,473.000 656.054 C 440.829 651.343,385.673 649.410,358.576 652.044 M764.248 651.697 L 751.495 653.000 761.248 659.967 C 788.697 679.577,821.877 720.502,834.301 750.073 C 848.086 782.883,848.630 787.257,849.518 872.500 L 850.326 950.000 1000.163 950.000 L 1150.000 950.000 1149.951 882.500 C 1149.923 843.233,1149.035 811.236,1147.829 806.000 C 1138.436 765.215,1094.857 726.203,1026.000 696.938 C 986.127 679.991,925.096 663.683,873.000 656.054 C 843.505 651.735,786.304 649.443,764.248 651.697 " fill="#1D1E23" stroke="none" fill-rule="evenodd"></path></svg>