<svg width="1200" height="1200" viewBox="0 0 1200 1200" fill="none" xmlns="http://www.w3.org/2000/svg"><path d="M581.000 301.113 C 578.800 301.623,572.090 303.036,566.089 304.255 C 541.774 309.193,512.737 325.526,493.386 345.150 C 450.799 388.340,438.600 450.828,461.683 507.549 C 476.054 542.864,507.136 573.946,542.451 588.317 C 570.532 599.745,600.830 602.755,629.067 596.923 C 689.234 584.495,734.495 539.234,746.923 479.067 C 752.755 450.830,749.745 420.532,738.317 392.451 C 721.278 350.579,682.958 317.370,637.000 304.646 C 626.873 301.842,588.348 299.411,581.000 301.113 M184.000 451.209 C 181.250 451.718,173.600 454.022,167.000 456.329 C 97.387 480.658,77.583 567.938,129.823 620.177 C 169.629 659.983,230.371 659.983,270.177 620.177 C 322.446 567.909,303.030 482.052,233.087 456.158 C 221.425 451.840,194.985 449.174,184.000 451.209 M984.000 451.209 C 981.250 451.718,973.600 454.022,967.000 456.329 C 897.387 480.658,877.583 567.938,929.823 620.177 C 969.629 659.983,1030.371 659.983,1070.177 620.177 C 1122.446 567.909,1103.030 482.052,1033.087 456.158 C 1021.425 451.840,994.985 449.174,984.000 451.209 M548.000 640.148 C 502.113 645.224,451.988 657.535,410.272 673.974 C 376.480 687.290,361.933 696.090,344.015 714.051 C 312.504 745.639,300.000 779.095,300.000 831.820 C 300.000 862.680,302.899 873.004,314.947 885.053 C 330.948 901.053,310.865 900.000,600.000 900.000 C 889.218 900.000,869.044 901.061,885.098 885.007 C 898.444 871.661,900.709 861.938,899.488 823.225 C 898.674 797.389,897.587 788.224,894.007 777.000 C 884.911 748.484,870.125 725.409,848.520 706.013 C 820.945 681.257,745.340 653.933,674.000 642.941 C 648.966 639.084,572.866 637.397,548.000 640.148 M163.000 702.200 C 126.535 706.001,81.163 718.865,54.142 733.064 C 28.587 746.493,10.336 769.488,3.168 797.289 C -1.222 814.316,-1.140 853.942,3.312 867.009 C 7.626 879.667,20.333 892.374,32.991 896.688 C 41.483 899.581,54.301 900.000,134.356 900.000 L 226.000 900.000 226.000 848.262 C 226.000 779.679,229.887 757.908,248.845 720.295 C 252.921 712.207,255.974 705.317,255.628 704.983 C 255.283 704.649,245.169 703.391,233.153 702.188 C 208.618 699.731,186.651 699.735,163.000 702.200 M963.060 702.376 C 953.194 703.386,944.811 704.522,944.432 704.901 C 944.053 705.280,946.838 711.757,950.620 719.295 C 970.153 758.220,974.000 779.442,974.000 848.262 L 974.000 900.000 1065.644 900.000 C 1169.583 900.000,1170.180 899.925,1185.053 885.053 C 1196.919 873.186,1200.000 862.547,1200.000 833.432 C 1200.000 772.045,1175.924 740.642,1112.259 718.992 C 1064.274 702.675,1014.395 697.119,963.060 702.376 " fill="#1D1E23" stroke="none" fill-rule="evenodd"></path></svg>