<svg width="1200" height="1200" viewBox="0 0 1200 1200" fill="none" xmlns="http://www.w3.org/2000/svg"><path d="M182.171 303.434 C 164.528 309.666,150.000 330.694,150.000 350.000 C 150.000 362.080,155.967 376.072,164.947 385.053 C 181.214 401.319,142.814 400.000,600.000 400.000 C 1057.186 400.000,1018.786 401.319,1035.053 385.053 C 1054.616 365.489,1054.616 334.511,1035.053 314.947 C 1018.777 298.672,1057.342 299.981,599.144 300.158 C 234.834 300.299,190.052 300.651,182.171 303.434 M182.171 553.434 C 164.528 559.666,150.000 580.694,150.000 600.000 C 150.000 612.080,155.967 626.072,164.947 635.053 C 181.214 651.319,142.814 650.000,600.000 650.000 C 1057.186 650.000,1018.786 651.319,1035.053 635.053 C 1054.616 615.489,1054.616 584.511,1035.053 564.947 C 1018.777 548.672,1057.342 549.981,599.144 550.158 C 234.834 550.299,190.052 550.651,182.171 553.434 M182.171 803.434 C 164.528 809.666,150.000 830.694,150.000 850.000 C 150.000 862.080,155.967 876.072,164.947 885.053 C 181.214 901.319,142.814 900.000,600.000 900.000 C 1057.186 900.000,1018.786 901.319,1035.053 885.053 C 1054.616 865.489,1054.616 834.511,1035.053 814.947 C 1018.777 798.672,1057.342 799.981,599.144 800.158 C 234.834 800.299,190.052 800.651,182.171 803.434 " fill="#1D1E23" stroke="none" fill-rule="evenodd"></path></svg>