<svg width="1200" height="1200" viewBox="0 0 1200 1200" fill="none" xmlns="http://www.w3.org/2000/svg"><path d="M182.171 303.434 C 164.528 309.666,150.000 330.694,150.000 350.000 C 150.000 362.080,155.967 376.072,164.947 385.053 C 180.520 400.625,172.781 400.000,350.000 400.000 C 527.219 400.000,519.480 400.625,535.053 385.053 C 554.616 365.489,554.616 334.511,535.053 314.947 C 519.456 299.351,527.366 299.980,349.144 300.158 C 211.285 300.296,189.868 300.716,182.171 303.434 M182.171 553.434 C 164.528 559.666,150.000 580.694,150.000 600.000 C 150.000 612.080,155.967 626.072,164.947 635.053 C 180.520 650.625,172.781 650.000,350.000 650.000 C 527.219 650.000,519.480 650.625,535.053 635.053 C 554.616 615.489,554.616 584.511,535.053 564.947 C 519.456 549.351,527.366 549.980,349.144 550.158 C 211.285 550.296,189.868 550.716,182.171 553.434 M182.171 803.434 C 164.528 809.666,150.000 830.694,150.000 850.000 C 150.000 862.080,155.967 876.072,164.947 885.053 C 180.520 900.625,172.781 900.000,350.000 900.000 C 527.219 900.000,519.480 900.625,535.053 885.053 C 554.616 865.489,554.616 834.511,535.053 814.947 C 519.456 799.351,527.366 799.980,349.144 800.158 C 211.285 800.296,189.868 800.716,182.171 803.434 " fill="#1D1E23" stroke="none" fill-rule="evenodd"></path></svg>