<svg width="1200" height="1200" viewBox="0 0 1200 1200" fill="none" xmlns="http://www.w3.org/2000/svg"><path d="M668.729 52.059 C 655.844 56.038,643.353 66.484,637.315 78.331 L 631.540 89.661 622.690 338.331 C 614.554 566.911,613.546 587.404,610.215 592.000 C 602.925 602.058,587.593 601.711,582.299 591.368 C 580.884 588.604,576.788 511.398,571.144 381.101 L 562.225 175.201 556.567 164.101 C 547.197 145.714,525.869 134.286,505.428 136.699 C 493.592 138.096,477.075 146.858,470.821 155.056 C 459.150 170.359,460.104 155.463,452.630 438.990 C 445.170 721.962,446.129 707.293,434.753 712.476 C 431.197 714.097,428.145 714.168,424.359 712.719 C 421.412 711.591,390.650 690.603,356.000 666.078 C 316.652 638.228,286.242 618.210,275.000 612.758 C 234.050 592.899,197.233 597.298,165.483 625.845 C 150.485 639.329,146.602 651.995,152.868 666.992 C 156.451 675.568,461.819 1049.718,481.158 1069.227 C 517.318 1105.705,562.481 1130.587,615.972 1143.499 C 636.125 1148.363,640.122 1148.611,712.000 1149.436 C 794.080 1150.379,810.142 1149.117,844.908 1138.995 C 926.892 1115.125,993.318 1054.812,1024.176 976.222 C 1033.873 951.527,1041.161 920.766,1042.778 897.706 C 1043.422 888.518,1051.788 769.768,1061.368 633.817 C 1078.754 387.094,1078.779 386.617,1075.110 377.010 C 1070.696 365.451,1059.981 353.092,1049.927 347.963 C 1025.401 335.451,993.891 345.600,981.507 370.000 C 976.086 380.681,975.662 383.958,966.860 483.000 C 961.874 539.100,956.982 586.977,955.989 589.394 C 951.344 600.693,933.408 603.061,926.964 593.226 C 924.483 589.440,922.400 549.906,915.029 366.710 C 907.881 189.075,905.482 143.034,903.010 136.028 C 896.191 116.701,880.538 104.387,860.501 102.588 C 837.528 100.525,819.252 110.494,809.222 130.559 L 803.444 142.117 794.548 347.559 C 787.374 513.258,785.086 553.888,782.721 557.591 C 776.089 567.975,763.218 568.170,755.725 558.000 C 752.328 553.390,751.346 535.071,743.123 323.000 C 735.763 133.199,733.640 91.370,730.974 83.674 C 727.180 72.725,717.096 61.661,705.532 55.761 C 696.191 50.996,678.075 49.174,668.729 52.059 " fill="#1D1E23" stroke="none" fill-rule="evenodd"></path></svg>