<svg width="1200" height="1200" viewBox="0 0 1200 1200" fill="none" xmlns="http://www.w3.org/2000/svg"><path d="M50.000 597.000 L 50.000 694.000 88.000 694.000 L 126.000 694.000 126.000 659.000 L 126.000 624.000 192.000 624.000 L 258.000 624.000 258.000 659.000 L 258.000 694.000 297.000 694.000 L 336.000 694.000 336.000 597.000 L 336.000 500.000 297.000 500.000 L 258.000 500.000 258.000 540.000 L 258.000 580.000 192.000 580.000 L 126.000 580.000 126.000 540.000 L 126.000 500.000 88.000 500.000 L 50.000 500.000 50.000 597.000 M366.000 524.000 L 366.000 548.000 473.000 548.000 L 580.000 548.000 580.000 597.000 L 580.000 646.000 510.000 646.000 L 440.000 646.000 440.000 613.000 L 440.000 580.000 403.000 580.000 L 366.000 580.000 366.000 637.000 L 366.000 694.000 487.644 694.000 C 621.113 694.000,619.665 694.119,634.432 681.947 C 638.396 678.680,643.970 671.328,646.820 665.610 L 652.000 655.215 652.000 597.000 L 652.000 538.785 646.820 528.390 C 643.970 522.672,638.345 515.269,634.320 511.939 C 619.973 500.073,619.074 500.000,486.637 500.000 L 366.000 500.000 366.000 524.000 M684.000 596.954 L 684.000 694.000 721.000 694.000 L 758.000 694.000 758.000 621.000 L 758.000 548.000 792.000 548.000 L 826.000 548.000 826.000 621.000 L 826.000 694.000 863.000 694.000 L 900.000 694.000 900.000 621.000 L 900.000 548.000 935.000 548.000 L 970.000 548.000 970.000 621.000 L 970.000 694.000 1007.108 694.000 L 1044.216 694.000 1043.608 616.500 C 1042.938 531.120,1043.089 532.213,1029.940 517.237 C 1026.331 513.127,1019.694 507.792,1015.189 505.382 L 1007.000 501.000 845.500 500.454 L 684.000 499.908 684.000 596.954 M1074.000 597.000 L 1074.000 694.000 1112.000 694.000 L 1150.000 694.000 1150.000 597.000 L 1150.000 500.000 1112.000 500.000 L 1074.000 500.000 1074.000 597.000 " fill="#1D1E23" stroke="none" fill-rule="evenodd"></path></svg>