<svg width="1200" height="1200" viewBox="0 0 1200 1200" fill="none" xmlns="http://www.w3.org/2000/svg"><path d="M150.000 600.000 L 150.000 750.000 188.000 750.000 L 226.000 750.000 226.000 688.000 L 226.000 626.000 275.000 626.000 L 324.000 626.000 324.000 688.000 L 324.000 750.000 362.000 750.000 L 400.000 750.000 400.000 600.000 L 400.000 450.000 362.000 450.000 L 324.000 450.000 324.000 500.000 L 324.000 550.000 275.000 550.000 L 226.000 550.000 226.000 500.000 L 226.000 450.000 188.000 450.000 L 150.000 450.000 150.000 600.000 M474.000 599.983 L 474.000 750.146 570.500 749.573 L 667.000 749.000 679.545 743.207 C 695.791 735.704,713.706 716.993,720.306 700.634 C 724.987 689.033,725.000 688.747,725.000 600.000 C 725.000 511.383,724.980 510.950,720.330 499.431 C 713.793 483.234,697.175 465.814,680.364 457.535 L 667.093 451.000 570.547 450.410 L 474.000 449.821 474.000 599.983 M800.000 600.000 L 800.000 750.000 838.000 750.000 L 876.000 750.000 876.000 699.944 L 876.000 649.887 903.210 650.444 L 930.421 651.000 952.624 700.500 L 974.827 750.000 1012.440 750.000 L 1050.054 750.000 1047.325 743.500 C 1045.824 739.925,1035.771 716.433,1024.986 691.295 L 1005.375 645.590 1012.188 640.421 C 1025.572 630.265,1036.572 617.229,1042.738 604.217 L 1049.000 591.000 1049.000 549.000 C 1049.000 507.332,1048.957 506.912,1043.556 495.925 C 1032.920 474.289,1015.855 459.527,994.137 453.177 C 984.911 450.479,969.462 450.000,891.637 450.000 L 800.000 450.000 800.000 600.000 M650.000 601.000 L 650.000 676.000 600.000 676.000 L 550.000 676.000 550.000 601.000 L 550.000 526.000 600.000 526.000 L 650.000 526.000 650.000 601.000 M974.000 551.000 L 974.000 576.000 925.000 576.000 L 876.000 576.000 876.000 551.000 L 876.000 526.000 925.000 526.000 L 974.000 526.000 974.000 551.000 " fill="#1D1E23" stroke="none" fill-rule="evenodd"></path></svg>