<svg width="1200" height="1200" viewBox="0 0 1200 1200" fill="none" xmlns="http://www.w3.org/2000/svg"><path d="M566.000 151.232 C 455.820 161.342,359.655 207.211,282.833 286.297 C 199.672 371.909,149.973 492.911,150.007 609.683 C 150.016 638.100,152.175 644.427,164.482 652.101 C 170.225 655.682,173.736 656.096,194.000 655.583 C 213.269 655.095,217.881 654.351,222.434 651.000 C 231.619 644.239,233.998 636.577,234.017 613.698 C 234.108 504.262,270.025 413.770,341.897 341.897 C 371.412 312.383,399.988 291.874,438.000 272.926 C 482.195 250.895,521.262 240.164,572.944 235.860 C 622.684 231.718,674.925 238.812,724.000 256.374 C 838.130 297.216,926.365 395.648,954.916 513.976 C 964.872 555.237,965.000 558.076,965.000 738.000 L 965.000 907.000 960.175 919.000 C 953.575 935.414,935.414 953.575,919.000 960.175 L 907.000 965.000 809.500 965.572 L 712.000 966.144 712.000 959.435 C 712.000 950.707,706.716 932.866,701.504 924.000 C 695.681 914.094,680.420 898.648,671.000 893.126 C 654.824 883.644,644.332 882.000,600.000 882.000 C 545.466 882.000,532.609 885.704,511.805 907.408 C 493.692 926.305,487.002 944.538,488.401 971.194 C 489.139 985.249,490.389 990.018,496.667 1002.720 C 507.903 1025.455,524.985 1039.523,550.285 1046.878 C 560.286 1049.786,580.070 1050.061,740.225 1049.523 C 938.922 1048.855,926.430 1049.688,957.488 1035.041 C 993.479 1018.068,1017.982 993.623,1034.892 957.822 C 1049.686 926.500,1049.000 936.898,1049.000 744.000 C 1049.000 609.328,1048.404 567.012,1046.310 553.000 C 1030.730 448.760,986.748 357.929,917.167 286.297 C 848.195 215.292,760.727 169.609,665.962 155.098 C 645.499 151.965,583.955 149.584,566.000 151.232 M374.323 436.008 C 337.976 445.669,309.604 472.386,296.581 509.217 L 291.000 525.000 291.000 614.000 C 291.000 702.544,291.025 703.075,295.801 717.655 C 307.381 753.006,333.911 779.742,369.000 791.422 C 384.783 796.676,385.772 796.750,442.000 796.874 C 497.922 796.998,499.200 796.910,509.559 792.228 C 523.584 785.890,537.058 770.857,541.064 757.075 C 543.682 748.069,544.030 727.498,543.554 609.803 C 543.001 473.153,542.995 472.991,538.596 464.767 C 531.828 452.116,525.316 445.361,513.665 438.908 L 503.000 433.000 446.000 432.554 C 394.944 432.154,387.469 432.514,374.323 436.008 M695.405 434.885 C 677.359 441.322,662.835 456.478,657.986 473.931 C 656.792 478.229,656.018 533.182,656.011 614.137 C 656.002 727.069,656.458 748.817,659.020 757.443 C 663.022 770.919,676.635 785.989,690.441 792.228 C 700.800 796.910,702.078 796.998,758.000 796.874 C 814.228 796.750,815.217 796.676,831.000 791.422 C 865.425 779.963,890.754 754.965,903.609 719.762 L 909.000 705.000 909.618 621.936 C 910.311 528.632,909.529 520.707,897.019 494.364 C 888.739 476.930,869.293 456.324,851.705 446.348 C 830.093 434.089,816.025 431.989,756.180 432.088 C 716.707 432.153,701.043 432.874,695.405 434.885 M460.000 614.000 L 460.000 712.000 427.901 712.000 C 392.085 712.000,386.745 710.598,379.919 699.403 C 376.222 693.339,376.015 688.828,376.007 614.309 C 375.999 525.714,375.711 527.531,390.935 519.995 C 397.929 516.533,403.049 516.003,429.500 516.002 L 460.000 516.000 460.000 614.000 M808.912 519.958 C 824.289 527.401,824.001 525.601,823.993 614.309 C 823.985 688.828,823.778 693.339,820.081 699.403 C 813.255 710.598,807.915 712.000,772.099 712.000 L 740.000 712.000 740.000 614.000 L 740.000 516.000 770.369 516.000 C 796.541 516.000,801.867 516.547,808.912 519.958 " fill="#1D1E23" stroke="none" fill-rule="evenodd"></path></svg>