<svg width="1200" height="1200" viewBox="0 0 1200 1200" fill="none" xmlns="http://www.w3.org/2000/svg"><path d="M556.000 101.962 C 416.815 115.884,295.232 181.194,209.663 288.000 C 73.683 457.729,63.352 695.839,184.124 876.644 C 338.485 1107.735,647.309 1169.297,878.000 1014.964 C 1107.746 861.264,1168.863 552.043,1014.964 322.000 C 936.423 204.599,815.946 128.109,674.644 105.934 C 645.457 101.354,582.987 99.262,556.000 101.962 M636.288 202.019 C 788.530 216.859,916.970 313.759,972.935 456.000 C 1016.866 567.656,1005.711 700.316,943.691 803.771 C 836.000 983.409,611.250 1050.747,425.000 959.175 C 259.888 877.997,171.345 696.961,208.919 517.378 C 231.483 409.538,300.055 313.964,396.229 256.309 C 467.345 213.676,554.249 194.022,636.288 202.019 M577.000 301.208 C 521.667 309.407,476.756 334.550,443.490 375.951 C 419.776 405.466,403.613 446.086,400.696 483.500 L 399.410 500.000 449.474 500.000 L 499.539 500.000 500.972 488.535 C 505.705 450.650,529.913 420.376,567.000 405.961 C 584.188 399.281,615.745 399.267,633.000 405.933 C 662.735 417.419,682.482 437.182,694.017 467.000 C 700.550 483.889,700.739 514.113,694.410 530.000 C 686.046 550.999,675.622 561.722,622.000 604.492 C 576.031 641.157,554.393 679.977,550.649 732.500 L 549.401 750.000 599.293 750.000 L 649.186 750.000 651.556 733.500 C 656.448 699.445,674.170 674.421,725.700 628.807 C 760.000 598.445,775.404 580.582,786.132 558.731 C 797.162 536.263,800.643 518.458,799.372 491.000 C 796.454 427.919,764.634 370.385,713.435 335.617 C 695.841 323.668,667.156 310.706,647.913 306.007 C 631.485 301.996,590.431 299.218,577.000 301.208 M550.000 850.000 L 550.000 900.000 600.000 900.000 L 650.000 900.000 650.000 850.000 L 650.000 800.000 600.000 800.000 L 550.000 800.000 550.000 850.000 " fill="#1D1E23" stroke="none" fill-rule="evenodd"></path></svg>