<svg width="1200" height="1200" viewBox="0 0 1200 1200" fill="none" xmlns="http://www.w3.org/2000/svg"><path d="M556.000 101.962 C 416.815 115.884,295.232 181.194,209.663 288.000 C 73.683 457.729,63.352 695.839,184.124 876.644 C 338.485 1107.735,647.309 1169.297,878.000 1014.964 C 1107.746 861.264,1168.863 552.043,1014.964 322.000 C 936.423 204.599,815.946 128.109,674.644 105.934 C 645.457 101.354,582.987 99.262,556.000 101.962 M647.913 256.007 C 681.050 264.098,716.459 284.169,741.145 308.855 C 766.051 333.761,785.846 368.857,794.313 403.120 C 800.169 426.818,800.621 468.540,795.233 487.995 C 784.923 525.222,773.591 541.957,724.604 592.305 C 684.467 633.558,669.868 652.490,661.927 673.585 C 655.729 690.049,652.135 708.229,650.674 730.500 L 649.396 750.000 599.698 750.000 L 550.000 750.000 550.040 731.500 C 550.137 685.830,560.535 650.106,584.172 614.227 C 592.777 601.164,608.361 583.547,639.834 551.305 C 676.438 513.806,684.524 504.449,689.562 493.762 C 715.467 438.820,690.579 378.174,633.000 355.933 C 623.186 352.142,617.174 351.297,600.000 351.297 C 582.826 351.297,576.814 352.142,567.000 355.933 C 531.144 369.783,507.286 398.542,501.504 434.881 L 499.098 450.000 449.273 450.000 L 399.448 450.000 400.834 434.500 C 402.740 413.180,407.300 393.761,414.573 376.000 C 442.785 307.107,500.856 262.491,577.000 251.208 C 590.431 249.218,631.485 251.996,647.913 256.007 M650.000 900.000 L 650.000 950.000 600.000 950.000 L 550.000 950.000 550.000 900.000 L 550.000 850.000 600.000 850.000 L 650.000 850.000 650.000 900.000 " fill="#1D1E23" stroke="none" fill-rule="evenodd"></path></svg>