<svg width="1200" height="1200" viewBox="0 0 1200 1200" fill="none" xmlns="http://www.w3.org/2000/svg"><path d="M556.000 101.962 C 416.815 115.884,295.232 181.194,209.663 288.000 C 73.683 457.729,63.352 695.839,184.124 876.644 C 338.485 1107.735,647.309 1169.297,878.000 1014.964 C 1107.746 861.264,1168.863 552.043,1014.964 322.000 C 936.423 204.599,815.946 128.109,674.644 105.934 C 645.457 101.354,582.987 99.262,556.000 101.962 M640.333 256.167 C 674.136 264.178,715.521 289.013,741.693 316.990 C 795.235 374.226,812.559 442.028,789.749 505.066 C 780.451 530.761,767.560 548.125,726.104 590.789 C 676.510 641.829,665.972 657.479,656.729 693.822 C 654.046 704.370,651.299 721.325,650.624 731.500 L 649.397 750.000 599.698 750.000 L 550.000 750.000 550.040 731.500 C 550.138 685.687,560.934 648.806,584.607 613.415 C 592.859 601.077,609.846 581.991,639.955 551.226 C 676.591 513.791,684.375 504.785,689.650 493.732 C 708.286 454.685,700.701 410.321,670.177 379.841 C 631.034 340.754,571.100 340.258,530.694 378.688 C 519.988 388.870,515.782 394.967,506.375 413.937 C 496.935 432.971,493.525 437.905,486.331 442.937 C 478.060 448.722,476.728 449.000,457.331 449.000 C 433.324 449.000,424.761 445.777,415.762 433.354 C 402.387 414.890,403.602 397.982,420.811 363.105 C 440.543 323.116,470.186 292.550,508.000 273.202 C 531.702 261.076,550.455 255.422,581.000 251.194 C 592.434 249.611,623.745 252.235,640.333 256.167 M650.000 900.000 L 650.000 950.000 600.000 950.000 L 550.000 950.000 550.000 900.000 L 550.000 850.000 600.000 850.000 L 650.000 850.000 650.000 900.000 " fill="#1D1E23" stroke="none" fill-rule="evenodd"></path></svg>