<svg width="1200" height="1200" viewBox="0 0 1200 1200" fill="none" xmlns="http://www.w3.org/2000/svg"><path d="M556.000 101.962 C 416.815 115.884,295.232 181.194,209.663 288.000 C 73.683 457.729,63.352 695.839,184.124 876.644 C 338.485 1107.735,647.309 1169.297,878.000 1014.964 C 1107.746 861.264,1168.863 552.043,1014.964 322.000 C 936.423 204.599,815.946 128.109,674.644 105.934 C 645.457 101.354,582.987 99.262,556.000 101.962 M636.288 202.019 C 788.530 216.859,916.970 313.759,972.935 456.000 C 1016.866 567.656,1005.711 700.316,943.691 803.771 C 836.000 983.409,611.250 1050.747,425.000 959.175 C 259.888 877.997,171.345 696.961,208.919 517.378 C 231.483 409.538,300.055 313.964,396.229 256.309 C 467.345 213.676,554.249 194.022,636.288 202.019 M576.000 301.192 C 530.412 309.650,499.505 323.419,469.318 348.719 C 441.751 371.823,415.436 413.818,408.148 446.339 C 405.547 457.944,408.966 472.289,416.771 482.522 C 429.932 499.777,460.080 505.548,481.445 494.902 C 493.752 488.769,498.831 482.435,509.674 459.697 C 534.579 407.473,592.011 386.465,643.296 410.820 C 689.914 432.959,712.789 491.202,692.171 535.263 C 684.352 551.971,669.853 567.106,635.000 594.944 C 591.574 629.628,575.553 648.834,562.172 682.252 C 555.850 698.041,550.000 726.401,550.000 741.262 L 550.000 750.000 599.725 750.000 L 649.449 750.000 650.766 738.500 C 653.483 714.775,665.233 689.846,683.526 669.000 C 687.387 664.600,704.569 648.384,721.708 632.964 C 768.194 591.139,784.471 569.959,793.919 539.000 C 802.402 511.203,801.321 479.442,790.689 444.050 C 770.638 377.307,715.713 323.806,649.000 306.036 C 633.413 301.884,588.378 298.896,576.000 301.192 M550.000 850.000 L 550.000 900.000 600.000 900.000 L 650.000 900.000 650.000 850.000 L 650.000 800.000 600.000 800.000 L 550.000 800.000 550.000 850.000 " fill="#1D1E23" stroke="none" fill-rule="evenodd"></path></svg>