<svg width="1200" height="1200" viewBox="0 0 1200 1200" fill="none" xmlns="http://www.w3.org/2000/svg"><path d="M614.000 151.375 C 596.745 152.671,562.852 158.307,542.161 163.321 C 510.828 170.914,484.096 180.708,452.808 196.058 C 378.988 232.276,317.494 286.679,272.019 356.000 C 245.479 396.457,220.570 456.300,210.162 504.610 C 205.169 527.788,200.000 569.891,200.000 587.390 L 200.000 599.804 149.843 600.402 L 99.686 601.000 92.843 608.471 C 87.271 614.554,86.006 617.526,86.031 624.471 C 86.047 629.162,86.838 634.226,87.787 635.724 C 88.737 637.223,123.085 672.062,164.118 713.145 C 216.341 765.432,240.414 788.212,244.361 789.079 C 258.156 792.109,259.754 790.829,332.715 718.301 C 371.058 680.185,405.033 645.490,408.215 641.200 C 416.680 629.786,416.314 618.468,407.157 608.471 L 400.314 601.000 350.157 600.402 L 300.000 599.804 300.000 593.114 C 300.000 589.434,300.944 577.103,302.098 565.712 C 311.443 473.467,354.875 390.994,425.000 332.332 C 518.330 254.259,644.364 229.930,758.342 267.986 C 816.523 287.413,875.930 327.702,914.959 374.202 C 990.742 464.494,1016.729 574.750,988.680 686.982 C 964.649 783.135,897.014 867.383,808.027 912.009 C 690.163 971.116,551.925 960.349,446.652 883.862 C 426.617 869.306,419.126 866.192,404.000 866.132 C 390.448 866.078,379.528 870.880,369.598 881.262 C 359.829 891.474,356.000 901.243,356.000 915.958 C 356.000 939.507,363.231 948.446,404.870 976.368 C 534.170 1063.073,704.681 1073.786,847.000 1004.146 C 988.046 935.129,1081.899 799.870,1098.195 642.131 C 1101.093 614.074,1099.497 558.433,1095.036 532.028 C 1079.320 439.006,1038.340 357.744,973.089 290.208 C 877.284 191.049,748.534 141.271,614.000 151.375 M622.040 404.500 C 617.195 406.975,610.480 412.458,607.116 416.685 L 601.000 424.370 601.000 529.685 C 601.000 647.009,600.423 641.792,614.996 656.299 C 618.699 659.985,658.799 684.985,704.108 711.856 C 778.156 755.770,787.542 760.799,796.896 761.574 C 831.782 764.467,850.675 721.961,825.117 698.083 C 822.222 695.378,787.712 674.057,748.427 650.703 L 677.000 608.240 675.978 518.620 C 675.416 469.329,674.158 427.200,673.183 425.000 C 666.740 410.473,652.129 400.132,637.924 400.044 C 634.032 400.020,626.884 402.025,622.040 404.500 " fill="#1D1E23" stroke="none" fill-rule="evenodd"></path></svg>