<svg width="1200" height="1200" viewBox="0 0 1200 1200" fill="none" xmlns="http://www.w3.org/2000/svg"><path d="M379.020 102.324 C 342.876 109.311,309.962 142.424,302.210 179.598 C 300.785 186.434,300.010 221.942,300.030 279.598 C 300.062 378.365,300.632 384.186,312.482 406.814 C 317.725 416.826,334.912 435.148,408.833 509.528 L 498.804 600.056 408.787 690.528 C 334.435 765.254,317.669 783.117,312.447 793.163 C 300.316 816.501,300.000 819.705,300.000 919.322 C 300.000 977.652,300.785 1013.569,302.210 1020.402 C 310.026 1057.883,342.117 1089.974,379.598 1097.790 C 386.947 1099.322,454.741 1100.000,600.678 1100.000 C 830.087 1100.000,821.391 1100.404,846.000 1088.603 C 860.033 1081.874,881.700 1060.133,888.633 1045.824 C 899.582 1023.228,900.000 1018.672,900.000 921.900 C 900.000 839.172,899.707 831.495,895.998 816.992 C 893.797 808.386,889.636 797.217,886.752 792.172 C 883.622 786.698,844.736 746.117,790.294 691.510 L 699.079 600.021 790.331 508.510 C 889.239 409.322,890.251 408.099,896.989 379.521 C 901.399 360.814,901.358 194.131,896.939 176.920 C 888.303 143.290,866.651 119.199,833.000 105.784 L 821.000 101.000 605.000 100.698 C 473.190 100.513,385.110 101.147,379.020 102.324 M800.000 287.528 L 800.000 375.055 702.452 472.528 C 626.780 548.142,603.805 570.000,600.000 570.000 C 596.195 570.000,573.220 548.142,497.548 472.528 L 400.000 375.055 400.000 287.528 L 400.000 200.000 600.000 200.000 L 800.000 200.000 800.000 287.528 " fill="#1D1E23" stroke="none" fill-rule="evenodd"></path></svg>