<svg width="1200" height="1200" viewBox="0 0 1200 1200" fill="none" xmlns="http://www.w3.org/2000/svg"><path d="M234.000 151.324 C 223.649 153.002,204.632 160.766,194.526 167.438 C 173.539 181.296,157.312 205.132,152.210 229.598 C 149.085 244.585,149.085 955.415,152.210 970.402 C 160.026 1007.883,192.117 1039.974,229.598 1047.790 C 244.585 1050.915,955.415 1050.915,970.402 1047.790 C 1007.883 1039.974,1039.974 1007.883,1047.790 970.402 C 1050.915 955.415,1050.915 244.585,1047.790 229.598 C 1040.894 196.531,1017.041 169.355,983.000 155.784 L 971.000 151.000 605.000 150.757 C 403.700 150.623,236.750 150.878,234.000 151.324 M950.000 600.000 L 950.000 950.000 600.000 950.000 L 250.000 950.000 250.000 600.000 L 250.000 250.000 600.000 250.000 L 950.000 250.000 950.000 600.000 M571.000 302.075 C 535.040 307.690,503.428 323.142,477.259 347.894 C 455.147 368.811,440.088 391.945,440.088 405.000 C 440.088 419.734,454.075 436.992,469.845 441.717 C 490.329 447.855,505.860 441.705,531.805 417.184 C 559.871 390.659,574.310 384.806,607.715 386.415 C 623.065 387.154,629.628 388.452,638.465 392.498 C 677.145 410.206,691.882 453.896,672.704 494.000 C 668.589 502.605,658.610 513.754,626.875 545.203 C 570.940 600.634,558.915 620.108,556.525 659.126 C 555.696 672.664,556.187 676.517,559.586 683.126 C 573.749 710.676,609.406 716.745,631.675 695.399 C 640.444 686.994,645.149 677.532,649.017 660.527 C 654.012 638.565,663.538 624.780,697.663 590.132 C 757.439 529.443,770.970 504.561,770.608 456.000 C 770.401 428.220,765.816 408.724,753.676 384.000 C 746.893 370.184,741.927 363.611,727.165 348.906 C 705.286 327.114,683.041 314.578,652.420 306.789 C 630.422 301.192,591.197 298.922,571.000 302.075 M586.687 776.000 C 543.477 784.979,523.290 835.068,547.905 872.230 C 569.271 904.486,616.359 909.170,643.765 881.765 C 655.373 870.156,660.768 857.766,661.668 840.651 C 662.688 821.237,658.422 808.972,645.872 795.241 C 630.928 778.889,608.254 771.518,586.687 776.000 " fill="#1D1E23" stroke="none" fill-rule="evenodd"></path></svg>