<svg width="1200" height="1200" viewBox="0 0 1200 1200" fill="none" xmlns="http://www.w3.org/2000/svg"><path d="M234.000 151.324 C 223.649 153.002,204.632 160.766,194.526 167.438 C 173.539 181.296,157.312 205.132,152.210 229.598 C 149.085 244.585,149.085 955.415,152.210 970.402 C 160.026 1007.883,192.117 1039.974,229.598 1047.790 C 244.585 1050.915,955.415 1050.915,970.402 1047.790 C 1007.883 1039.974,1039.974 1007.883,1047.790 970.402 C 1050.915 955.415,1050.915 244.585,1047.790 229.598 C 1040.894 196.531,1017.041 169.355,983.000 155.784 L 971.000 151.000 605.000 150.757 C 403.700 150.623,236.750 150.878,234.000 151.324 M734.600 618.704 C 739.690 620.831,760.555 647.426,832.279 743.204 C 882.442 810.192,924.091 867.566,924.831 870.701 C 926.708 878.650,922.836 888.941,915.713 894.935 L 909.693 900.000 600.916 900.000 L 292.139 900.000 285.132 893.847 C 277.337 887.004,274.167 876.523,277.349 868.118 C 280.413 860.026,407.753 697.421,414.294 693.248 C 422.410 688.071,434.515 689.834,442.372 697.340 C 445.632 700.453,470.874 730.225,498.465 763.500 C 526.057 796.775,549.236 824.000,549.974 824.000 C 550.713 824.000,586.664 778.467,629.867 722.816 C 717.493 609.941,716.348 611.078,734.600 618.704 " fill="#1D1E23" stroke="none" fill-rule="evenodd"></path></svg>