<svg width="1200" height="1200" viewBox="0 0 1200 1200" fill="none" xmlns="http://www.w3.org/2000/svg"><path d="M300.000 500.000 L 300.000 900.000 700.000 900.000 L 1100.000 900.000 1100.000 500.000 L 1100.000 100.000 700.000 100.000 L 300.000 100.000 300.000 500.000 M100.000 700.000 L 100.000 1100.000 500.000 1100.000 L 900.000 1100.000 900.000 1050.000 L 900.000 1000.000 550.000 1000.000 L 200.000 1000.000 200.000 650.000 L 200.000 300.000 150.000 300.000 L 100.000 300.000 100.000 700.000 M900.807 676.000 L 1000.020 800.000 700.003 800.000 L 399.985 800.000 474.241 701.000 C 515.082 646.550,549.179 602.000,550.013 602.000 C 550.847 602.000,573.815 631.732,601.053 668.071 C 628.291 704.409,651.270 733.884,652.118 733.571 C 652.965 733.257,686.224 692.275,726.026 642.500 C 765.828 592.725,799.113 552.000,799.994 552.000 C 800.874 552.000,846.240 607.800,900.807 676.000 " fill="#1D1E23" stroke="none" fill-rule="evenodd"></path></svg>