<svg width="1200" height="1200" viewBox="0 0 1200 1200" fill="none" xmlns="http://www.w3.org/2000/svg"><path d="M384.000 101.322 C 373.638 103.006,354.628 110.768,344.526 117.438 C 323.539 131.296,307.312 155.132,302.210 179.598 C 299.091 194.557,299.091 805.443,302.210 820.402 C 310.026 857.883,342.117 889.974,379.598 897.790 C 394.557 900.909,1005.443 900.909,1020.402 897.790 C 1057.883 889.974,1089.974 857.883,1097.790 820.402 C 1100.909 805.443,1100.909 194.557,1097.790 179.598 C 1090.894 146.531,1067.041 119.355,1033.000 105.784 L 1021.000 101.000 705.000 100.754 C 531.200 100.619,386.750 100.874,384.000 101.322 M132.171 303.434 C 127.315 305.149,119.581 310.314,114.983 314.911 C 98.777 331.118,100.000 301.625,100.000 676.258 C 100.000 912.039,100.648 1012.910,102.210 1020.402 C 110.026 1057.883,142.117 1089.974,179.598 1097.790 C 187.090 1099.352,287.961 1100.000,523.742 1100.000 C 898.298 1100.000,868.889 1101.217,885.053 1085.053 C 904.616 1065.489,904.616 1034.511,885.053 1014.947 C 868.936 998.831,895.139 1000.000,550.000 1000.000 C 204.861 1000.000,231.064 1001.169,214.947 985.053 C 198.831 968.936,200.000 995.139,200.000 650.000 C 200.000 304.861,201.169 331.064,185.053 314.947 C 171.176 301.071,151.185 296.718,132.171 303.434 M812.296 568.500 C 816.501 570.978,965.409 755.422,969.744 763.521 C 975.478 774.236,970.456 791.593,960.065 796.966 C 951.169 801.567,446.831 801.567,437.935 796.966 C 427.506 791.573,422.524 774.232,428.301 763.437 C 433.155 754.368,531.969 624.249,536.313 621.206 C 542.831 616.640,558.221 617.025,564.429 621.908 C 567.162 624.058,587.662 650.190,609.985 679.980 C 632.308 709.769,651.265 733.886,652.113 733.571 C 652.961 733.257,681.657 697.900,715.882 655.000 C 750.106 612.100,780.975 574.525,784.479 571.500 C 791.572 565.375,804.609 563.969,812.296 568.500 " fill="#1D1E23" stroke="none" fill-rule="evenodd"></path></svg>