<svg width="1200" height="1200" viewBox="0 0 1200 1200" fill="none" xmlns="http://www.w3.org/2000/svg"><path d="M150.000 600.000 L 150.000 1050.000 600.000 1050.000 L 1050.000 1050.000 1050.000 600.000 L 1050.000 150.000 600.000 150.000 L 150.000 150.000 150.000 600.000 M838.750 751.500 L 950.021 900.000 600.048 900.000 L 250.075 900.000 334.319 791.500 C 380.653 731.825,420.119 681.341,422.023 679.314 C 425.344 675.776,427.962 678.613,487.061 749.814 C 520.928 790.616,549.237 824.000,549.970 824.000 C 550.703 824.000,590.363 773.623,638.103 712.051 C 685.843 650.480,725.482 600.755,726.191 601.551 C 726.900 602.348,777.551 669.825,838.750 751.500 " fill="#1D1E23" stroke="none" fill-rule="evenodd"></path></svg>