<svg width="1200" height="1200" viewBox="0 0 1200 1200" fill="none" xmlns="http://www.w3.org/2000/svg"><path d="M574.672 79.586 C 555.008 86.598,537.579 103.898,529.532 124.393 C 525.997 133.396,525.227 140.671,524.443 172.500 C 523.576 207.671,523.283 210.000,519.722 210.000 C 517.634 210.000,505.818 213.253,493.463 217.228 C 364.009 258.884,270.641 370.747,253.000 505.323 C 250.547 524.030,250.000 557.656,250.000 689.624 L 250.000 851.043 214.860 886.021 C 195.533 905.260,177.834 924.600,175.528 929.000 C 166.450 946.324,171.425 971.480,186.903 986.511 C 201.877 1001.054,169.626 1000.000,599.624 1000.000 C 899.830 1000.000,988.381 999.449,994.768 997.542 C 1007.757 993.664,1022.896 977.635,1026.991 963.426 C 1034.152 938.579,1028.875 928.648,984.731 883.895 L 950.000 848.685 950.000 688.445 C 950.000 557.525,949.451 524.018,947.000 505.323 C 929.359 370.747,835.991 258.884,706.537 217.228 C 694.182 213.253,682.257 210.000,680.037 210.000 C 676.171 210.000,676.000 208.753,675.988 180.500 C 675.975 145.780,673.893 130.911,667.105 117.036 C 660.615 103.771,645.898 89.223,632.179 82.511 C 617.583 75.370,590.375 73.986,574.672 79.586 M617.009 403.312 C 622.825 405.294,630.145 410.040,635.233 415.127 C 648.869 428.764,650.000 435.264,650.000 500.000 C 650.000 564.736,648.869 571.236,635.233 584.873 C 615.483 604.622,584.596 604.701,564.947 585.053 C 550.922 571.027,550.000 565.783,550.000 500.000 C 550.000 434.183,550.917 428.978,564.983 414.911 C 578.874 401.021,597.860 396.788,617.009 403.312 M650.000 750.000 L 650.000 800.000 600.000 800.000 L 550.000 800.000 550.000 750.000 L 550.000 700.000 600.000 700.000 L 650.000 700.000 650.000 750.000 M500.870 1060.441 C 505.501 1095.351,526.884 1125.732,556.719 1139.792 C 619.561 1169.407,689.872 1130.230,699.130 1060.441 L 700.515 1050.000 600.000 1050.000 L 499.485 1050.000 500.870 1060.441 " fill="#1D1E23" stroke="none" fill-rule="evenodd"></path></svg>