<svg width="1200" height="1200" viewBox="0 0 1200 1200" fill="none" xmlns="http://www.w3.org/2000/svg"><path d="M224.000 153.629 C 189.770 162.576,162.993 189.837,154.037 224.857 C 150.061 240.400,150.000 246.098,150.000 600.221 C 150.000 855.011,150.644 962.892,152.210 970.402 C 157.806 997.237,180.022 1026.849,203.474 1038.733 C 226.708 1050.507,206.661 1049.938,599.402 1049.970 C 854.896 1049.991,962.888 1049.357,970.402 1047.790 C 1007.883 1039.974,1039.974 1007.883,1047.790 970.402 C 1050.915 955.415,1050.915 244.585,1047.790 229.598 C 1039.841 191.483,1006.913 159.068,969.133 152.168 C 960.878 150.660,847.623 150.035,597.133 150.115 C 264.929 150.222,235.992 150.494,224.000 153.629 M950.000 500.000 L 950.000 750.000 850.000 750.000 L 750.000 750.000 750.000 755.779 C 750.000 758.958,748.603 769.083,746.896 778.279 C 738.172 825.275,701.499 870.417,657.483 888.341 C 581.843 919.142,498.604 886.198,464.310 811.886 C 455.565 792.937,452.829 783.120,450.826 763.500 L 449.448 750.000 349.724 750.000 L 250.000 750.000 250.000 500.000 L 250.000 250.000 600.000 250.000 L 950.000 250.000 950.000 500.000 " fill="#1D1E23" stroke="none" fill-rule="evenodd"></path></svg>