<svg width="1200" height="1200" viewBox="0 0 1200 1200" fill="none" xmlns="http://www.w3.org/2000/svg"><path d="M182.171 153.434 C 164.528 159.666,150.000 180.694,150.000 200.000 C 150.000 212.080,155.967 226.072,164.947 235.053 C 181.214 251.319,142.814 250.000,600.000 250.000 C 1057.186 250.000,1018.786 251.319,1035.053 235.053 C 1054.616 215.489,1054.616 184.511,1035.053 164.947 C 1018.777 148.672,1057.342 149.981,599.144 150.158 C 234.834 150.299,190.052 150.651,182.171 153.434 M582.171 353.434 C 564.528 359.666,550.000 380.694,550.000 400.000 C 550.000 412.080,555.967 426.072,564.947 435.053 C 580.781 450.886,566.845 450.000,800.000 450.000 C 1033.155 450.000,1019.219 450.886,1035.053 435.053 C 1054.616 415.489,1054.616 384.511,1035.053 364.947 C 1019.201 349.096,1033.306 349.980,799.144 350.158 C 615.993 350.297,589.940 350.690,582.171 353.434 M158.471 442.846 L 151.000 449.691 150.400 595.346 C 149.989 695.024,150.479 743.336,151.950 748.400 C 154.244 756.292,161.389 762.542,170.691 764.794 C 182.246 767.592,190.538 760.647,265.311 685.542 C 342.128 608.384,342.798 607.538,338.155 593.469 C 336.662 588.947,312.643 563.602,260.436 511.462 L 184.878 436.000 175.410 436.000 C 167.418 436.000,164.776 437.067,158.471 442.846 M582.171 553.434 C 564.528 559.666,550.000 580.694,550.000 600.000 C 550.000 612.080,555.967 626.072,564.947 635.053 C 580.781 650.886,566.845 650.000,800.000 650.000 C 1033.155 650.000,1019.219 650.886,1035.053 635.053 C 1054.616 615.489,1054.616 584.511,1035.053 564.947 C 1019.201 549.096,1033.306 549.980,799.144 550.158 C 615.993 550.297,589.940 550.690,582.171 553.434 M582.171 753.434 C 564.528 759.666,550.000 780.694,550.000 800.000 C 550.000 812.080,555.967 826.072,564.947 835.053 C 580.781 850.886,566.845 850.000,800.000 850.000 C 1033.155 850.000,1019.219 850.886,1035.053 835.053 C 1054.616 815.489,1054.616 784.511,1035.053 764.947 C 1019.201 749.096,1033.306 749.980,799.144 750.158 C 615.993 750.297,589.940 750.690,582.171 753.434 M182.171 953.434 C 164.528 959.666,150.000 980.694,150.000 1000.000 C 150.000 1012.080,155.967 1026.072,164.947 1035.053 C 181.214 1051.319,142.814 1050.000,600.000 1050.000 C 1057.186 1050.000,1018.786 1051.319,1035.053 1035.053 C 1054.616 1015.489,1054.616 984.511,1035.053 964.947 C 1018.777 948.672,1057.342 949.981,599.144 950.158 C 234.834 950.299,190.052 950.651,182.171 953.434 " fill="#1D1E23" stroke="none" fill-rule="evenodd"></path></svg>