<svg width="1200" height="1200" viewBox="0 0 1200 1200" fill="none" xmlns="http://www.w3.org/2000/svg"><path d="M150.000 200.000 L 150.000 250.000 600.000 250.000 L 1050.000 250.000 1050.000 200.000 L 1050.000 150.000 600.000 150.000 L 150.000 150.000 150.000 200.000 M550.000 400.000 L 550.000 450.000 800.000 450.000 L 1050.000 450.000 1050.000 400.000 L 1050.000 350.000 800.000 350.000 L 550.000 350.000 550.000 400.000 M249.997 501.003 L 151.010 600.005 250.505 699.500 L 350.000 798.995 350.000 600.497 C 350.000 491.324,349.772 402.000,349.492 402.000 C 349.213 402.000,304.441 446.551,249.997 501.003 M550.000 600.000 L 550.000 650.000 800.000 650.000 L 1050.000 650.000 1050.000 600.000 L 1050.000 550.000 800.000 550.000 L 550.000 550.000 550.000 600.000 M550.000 800.000 L 550.000 850.000 800.000 850.000 L 1050.000 850.000 1050.000 800.000 L 1050.000 750.000 800.000 750.000 L 550.000 750.000 550.000 800.000 M150.000 1000.000 L 150.000 1050.000 600.000 1050.000 L 1050.000 1050.000 1050.000 1000.000 L 1050.000 950.000 600.000 950.000 L 150.000 950.000 150.000 1000.000 " fill="#1D1E23" stroke="none" fill-rule="evenodd"></path></svg>