<svg width="1200" height="1200" viewBox="0 0 1200 1200" fill="none" xmlns="http://www.w3.org/2000/svg"><path d="M556.000 101.962 C 416.815 115.884,295.232 181.194,209.663 288.000 C 73.683 457.729,63.352 695.839,184.124 876.644 C 338.485 1107.735,647.309 1169.297,878.000 1014.964 C 1107.746 861.264,1168.863 552.043,1014.964 322.000 C 936.423 204.599,815.946 128.109,674.644 105.934 C 645.457 101.354,582.987 99.262,556.000 101.962 M650.000 400.000 L 650.000 450.000 600.000 450.000 L 550.000 450.000 550.000 400.000 L 550.000 350.000 600.000 350.000 L 650.000 350.000 650.000 400.000 M617.009 553.312 C 622.825 555.294,630.145 560.040,635.233 565.127 C 650.000 579.894,650.000 579.897,650.000 700.000 C 650.000 820.103,650.000 820.106,635.233 834.873 C 615.483 854.622,584.596 854.701,564.947 835.053 C 549.842 819.947,550.000 821.375,550.000 700.000 C 550.000 578.583,549.836 580.058,564.983 564.911 C 578.874 551.021,597.860 546.788,617.009 553.312 " fill="#1D1E23" stroke="none" fill-rule="evenodd"></path></svg>