<svg width="1200" height="1200" viewBox="0 0 1200 1200" fill="none" xmlns="http://www.w3.org/2000/svg"><path d="M419.000 102.169 C 397.000 103.021,370.000 104.742,359.000 105.992 C 286.515 114.231,229.425 139.432,186.134 182.299 C 156.337 211.805,137.231 241.528,124.205 278.640 C 102.998 339.060,100.022 378.611,100.022 600.000 C 100.022 821.470,103.015 861.197,124.235 921.360 C 136.855 957.139,156.395 987.854,184.270 1015.730 C 218.935 1050.394,255.949 1071.098,308.000 1084.938 C 355.002 1097.435,403.831 1099.945,600.000 1099.945 C 828.485 1099.945,867.166 1096.764,929.329 1072.868 C 993.688 1048.127,1049.208 992.186,1073.446 927.658 C 1096.757 865.596,1099.978 825.824,1099.978 600.000 C 1099.978 378.526,1096.984 338.791,1075.763 278.640 C 1062.867 242.084,1044.805 213.763,1015.676 184.422 C 971.430 139.855,915.937 114.823,842.000 106.080 C 808.070 102.069,720.273 100.059,591.000 100.336 C 518.400 100.492,441.000 101.317,419.000 102.169 M815.000 193.945 C 881.119 200.013,918.776 214.893,951.941 248.059 C 985.524 281.642,1000.362 319.718,1006.094 387.025 C 1009.424 426.119,1010.915 689.593,1008.211 761.044 C 1005.068 844.095,1000.106 873.984,983.979 907.000 C 957.359 961.495,908.673 993.812,838.000 1003.895 C 808.210 1008.145,738.436 1009.929,601.000 1009.953 C 405.171 1009.988,360.588 1007.450,317.687 993.830 C 248.173 971.760,205.923 916.858,196.052 835.770 C 187.913 768.908,187.913 431.092,196.052 364.230 C 204.613 293.899,237.273 243.280,291.143 216.852 C 323.572 200.942,356.564 194.797,424.397 192.033 C 481.121 189.721,785.190 191.210,815.000 193.945 M840.358 280.137 C 812.761 293.927,800.720 323.674,810.728 353.341 C 817.411 373.153,834.249 387.126,857.394 392.067 C 877.652 396.392,901.905 386.325,915.143 368.097 C 931.498 345.576,929.901 314.678,911.240 292.616 C 908.270 289.105,900.332 283.480,893.600 280.116 C 883.360 274.999,879.016 274.000,867.000 274.000 C 854.974 274.000,850.642 274.998,840.358 280.137 M556.874 347.118 C 505.180 355.808,457.289 380.762,418.928 418.995 C 388.971 448.852,370.250 478.972,356.983 518.657 C 338.868 572.847,339.312 631.707,358.241 685.377 C 384.643 760.233,443.012 817.728,518.081 842.824 C 546.312 852.262,569.553 856.000,600.000 856.000 C 670.001 856.000,731.847 830.398,781.003 781.072 C 811.198 750.773,829.816 720.832,843.017 681.343 C 852.265 653.679,856.000 630.276,856.000 600.000 C 856.000 529.998,830.396 468.146,781.072 419.000 C 730.883 368.991,668.869 343.657,598.000 344.212 C 584.250 344.319,565.743 345.627,556.874 347.118 M633.584 437.168 C 735.260 458.065,793.354 567.835,753.522 663.795 C 707.928 773.638,562.640 801.240,480.709 715.625 C 399.359 630.618,428.238 491.365,536.560 446.318 C 565.512 434.278,602.534 430.787,633.584 437.168 " fill="#1D1E23" stroke="none" fill-rule="evenodd"></path></svg>