<svg width="1200" height="1200" viewBox="0 0 1200 1200" fill="none" xmlns="http://www.w3.org/2000/svg"><path d="M412.706 246.929 L 397.111 293.858 273.010 294.429 L 148.910 295.000 135.369 301.668 C 125.633 306.462,119.606 311.146,113.920 318.340 C 98.930 337.303,99.893 311.696,100.476 676.093 L 101.000 1003.000 105.275 1012.245 C 111.410 1025.514,122.642 1037.038,135.679 1043.440 L 147.000 1049.000 600.000 1049.000 L 1053.000 1049.000 1064.321 1043.440 C 1077.358 1037.038,1088.590 1025.514,1094.725 1012.245 L 1099.000 1003.000 1099.524 676.093 C 1100.107 311.696,1101.070 337.303,1086.080 318.340 C 1080.394 311.146,1074.367 306.462,1064.631 301.668 L 1051.090 295.000 926.990 294.429 L 802.889 293.858 787.294 246.929 L 771.698 200.000 600.000 200.000 L 428.302 200.000 412.706 246.929 M661.564 363.746 C 778.794 388.803,871.181 476.034,901.190 590.000 C 922.340 670.317,911.506 757.623,871.779 827.024 C 860.240 847.181,838.063 877.450,827.182 887.892 L 820.000 894.785 820.000 736.904 L 820.000 579.023 756.512 515.512 L 693.023 452.000 537.512 452.000 L 382.000 452.000 382.000 674.406 L 382.000 896.812 373.825 888.906 C 361.956 877.428,340.088 847.754,328.221 827.024 C 288.481 757.600,277.421 667.570,298.982 589.013 C 333.113 464.659,436.572 375.636,566.000 359.253 C 583.458 357.044,643.387 359.861,661.564 363.746 M662.000 547.000 L 662.000 610.000 725.012 610.000 L 788.024 610.000 787.512 767.368 L 787.000 924.736 773.000 934.319 C 743.863 954.263,697.970 973.463,661.901 980.798 C 621.962 988.921,578.038 988.921,538.099 980.798 C 502.030 973.463,456.137 954.263,427.000 934.319 L 413.000 924.736 412.491 704.368 L 411.982 484.000 536.991 484.000 L 662.000 484.000 662.000 547.000 M444.000 577.000 L 444.000 640.000 452.000 640.000 L 460.000 640.000 460.000 577.000 L 460.000 514.000 452.000 514.000 L 444.000 514.000 444.000 577.000 M474.898 516.545 C 474.361 517.945,474.164 539.320,474.461 564.045 L 475.000 609.000 482.500 609.621 L 490.000 610.241 490.000 562.121 L 490.000 514.000 482.937 514.000 C 479.053 514.000,475.435 515.145,474.898 516.545 M506.000 562.084 L 506.000 610.168 521.500 609.584 L 537.000 609.000 537.536 561.500 L 538.072 514.000 522.036 514.000 L 506.000 514.000 506.000 562.084 M552.898 516.545 C 552.361 517.945,552.164 539.320,552.461 564.045 L 553.000 609.000 560.500 609.621 L 568.000 610.241 568.000 562.121 L 568.000 514.000 560.937 514.000 C 557.053 514.000,553.435 515.145,552.898 516.545 M584.464 561.500 L 585.000 609.000 592.500 609.621 L 600.000 610.241 600.000 562.121 L 600.000 514.000 591.964 514.000 L 583.928 514.000 584.464 561.500 M616.000 576.879 L 616.000 640.000 624.028 640.000 L 632.057 640.000 631.528 577.500 L 631.000 515.000 623.500 514.379 L 616.000 513.759 616.000 576.879 M444.000 720.000 L 444.000 736.000 600.000 736.000 L 756.000 736.000 756.000 720.000 L 756.000 704.000 600.000 704.000 L 444.000 704.000 444.000 720.000 M444.000 782.000 L 444.000 798.000 600.000 798.000 L 756.000 798.000 756.000 782.000 L 756.000 766.000 600.000 766.000 L 444.000 766.000 444.000 782.000 M444.000 846.015 L 444.000 862.030 568.500 861.515 L 693.000 861.000 693.584 845.500 L 694.168 830.000 569.084 830.000 L 444.000 830.000 444.000 846.015 " fill="#1D1E23" stroke="none" fill-rule="evenodd"></path></svg>