<svg width="1200" height="1200" viewBox="0 0 1200 1200" fill="none" xmlns="http://www.w3.org/2000/svg"><path d="M501.000 150.000 L 401.015 250.000 475.508 250.000 L 550.000 250.000 550.000 525.000 L 550.000 800.000 600.000 800.000 L 650.000 800.000 650.000 525.024 L 650.000 250.048 725.008 249.524 L 800.017 249.000 700.501 149.500 L 600.985 50.000 501.000 150.000 M200.000 775.000 L 200.000 1150.000 600.000 1150.000 L 1000.000 1150.000 1000.000 775.000 L 1000.000 400.000 875.000 400.000 L 750.000 400.000 750.000 450.000 L 750.000 500.000 825.000 500.000 L 900.000 500.000 900.000 775.000 L 900.000 1050.000 600.000 1050.000 L 300.000 1050.000 300.000 775.000 L 300.000 500.000 375.000 500.000 L 450.000 500.000 450.000 450.000 L 450.000 400.000 325.000 400.000 L 200.000 400.000 200.000 775.000 " fill="#1D1E23" stroke="none" fill-rule="evenodd"></path></svg>