<svg width="1200" height="1200" viewBox="0 0 1200 1200" fill="none" xmlns="http://www.w3.org/2000/svg"><path d="M590.000 63.175 C 582.768 66.293,452.679 194.109,441.784 208.800 C 433.320 220.214,433.686 231.532,442.843 241.529 L 449.686 249.000 499.843 249.598 L 550.000 250.196 550.000 503.741 C 550.000 788.687,548.957 769.063,564.947 785.053 C 584.511 804.616,615.489 804.616,635.053 785.053 C 651.043 769.063,650.000 788.687,650.000 503.741 L 650.000 250.196 700.157 249.598 L 750.314 249.000 757.157 241.529 C 762.932 235.225,764.000 232.581,764.000 224.591 L 764.000 215.124 689.500 140.353 C 647.774 98.475,612.169 64.354,608.564 62.791 C 600.623 59.347,598.789 59.385,590.000 63.175 M284.000 401.340 C 273.722 402.974,254.657 410.749,244.526 417.438 C 223.539 431.296,207.312 455.132,202.210 479.598 C 199.094 494.540,199.094 1055.460,202.210 1070.402 C 210.026 1107.883,242.117 1139.974,279.598 1147.790 C 294.557 1150.909,905.443 1150.909,920.402 1147.790 C 938.823 1143.948,955.855 1134.500,970.177 1120.177 C 984.500 1105.855,993.948 1088.823,997.790 1070.402 C 1000.906 1055.460,1000.906 494.540,997.790 479.598 C 990.888 446.501,966.882 419.175,933.000 405.848 C 921.447 401.304,918.635 401.101,857.465 400.415 C 784.219 399.593,779.574 400.320,764.993 414.902 C 745.383 434.512,745.363 465.468,764.947 485.053 C 778.836 498.941,784.602 500.000,846.356 500.000 L 900.000 500.000 900.000 775.000 L 900.000 1050.000 600.000 1050.000 L 300.000 1050.000 300.000 775.000 L 300.000 500.000 353.644 500.000 C 415.398 500.000,421.164 498.941,435.053 485.053 C 454.616 465.489,454.616 434.511,435.053 414.947 C 420.885 400.780,416.029 399.960,348.144 400.272 C 315.615 400.422,286.750 400.902,284.000 401.340 " fill="#1D1E23" stroke="none" fill-rule="evenodd"></path></svg>