<svg width="1200" height="1200" viewBox="0 0 1200 1200" fill="none" xmlns="http://www.w3.org/2000/svg"><path d="M150.000 600.000 L 150.000 1050.000 600.000 1050.000 L 1050.000 1050.000 1050.000 600.000 L 1050.000 150.000 600.000 150.000 L 150.000 150.000 150.000 600.000 M950.000 601.000 L 950.000 950.000 600.502 950.000 L 251.004 950.000 600.000 601.000 C 791.948 409.050,949.222 252.000,949.498 252.000 C 949.774 252.000,950.000 409.050,950.000 601.000 M450.000 326.000 L 450.000 376.000 500.000 376.000 L 550.000 376.000 550.000 413.000 L 550.000 450.000 500.000 450.000 L 450.000 450.000 450.000 500.000 L 450.000 550.000 413.000 550.000 L 376.000 550.000 376.000 500.000 L 376.000 450.000 326.000 450.000 L 276.000 450.000 276.000 413.035 L 276.000 376.070 325.500 375.535 L 375.000 375.000 375.535 325.500 L 376.070 276.000 413.035 276.000 L 450.000 276.000 450.000 326.000 M600.000 813.000 L 600.000 850.000 725.000 850.000 L 850.000 850.000 850.000 813.000 L 850.000 776.000 725.000 776.000 L 600.000 776.000 600.000 813.000 " fill="#1D1E23" stroke="none" fill-rule="evenodd"></path></svg>