<svg width="1200" height="1200" viewBox="0 0 1200 1200" fill="none" xmlns="http://www.w3.org/2000/svg"><path d="M234.000 151.324 C 223.649 153.002,204.632 160.766,194.526 167.438 C 173.539 181.296,157.312 205.132,152.210 229.598 C 149.085 244.585,149.085 955.415,152.210 970.402 C 160.026 1007.883,192.117 1039.974,229.598 1047.790 C 244.585 1050.915,955.415 1050.915,970.402 1047.790 C 1007.883 1039.974,1039.974 1007.883,1047.790 970.402 C 1050.915 955.415,1050.915 244.585,1047.790 229.598 C 1040.894 196.531,1017.041 169.355,983.000 155.784 L 971.000 151.000 605.000 150.757 C 403.700 150.623,236.750 150.878,234.000 151.324 M946.906 915.620 C 944.740 923.070,941.215 928.890,935.265 934.841 C 918.861 951.244,948.091 950.000,579.146 950.000 L 251.004 950.000 600.002 600.998 L 949.000 251.996 949.506 578.465 C 949.956 868.699,949.667 906.121,946.906 915.620 M430.077 280.040 C 434.432 282.261,440.472 287.817,443.498 292.385 C 448.943 300.605,449.006 301.084,449.621 338.346 L 450.242 376.000 486.201 376.000 C 527.504 376.000,533.828 377.782,543.296 392.089 C 554.314 408.738,550.257 429.397,533.320 442.884 L 525.639 449.000 487.820 449.656 L 450.000 450.312 449.956 484.656 C 449.919 513.732,449.345 520.249,446.214 527.141 C 433.235 555.718,393.952 557.347,379.944 529.891 C 376.450 523.042,376.000 518.042,376.000 486.080 L 376.000 450.000 340.936 450.000 C 296.761 450.000,288.863 447.363,279.787 429.580 C 272.868 416.022,275.332 398.197,285.627 387.328 C 294.912 377.526,297.067 377.051,337.000 376.000 L 375.000 375.000 376.000 337.000 C 376.618 313.525,377.890 297.471,379.328 295.000 C 382.789 289.052,392.317 280.501,398.000 278.241 C 406.541 274.846,421.545 275.687,430.077 280.040 M619.680 780.044 C 605.497 787.536,598.391 802.301,600.904 819.057 C 602.052 826.714,604.111 830.302,611.729 837.920 C 617.579 843.770,623.664 847.833,627.818 848.664 C 636.533 850.407,813.467 850.407,822.182 848.664 C 826.336 847.833,832.421 843.770,838.271 837.920 C 845.889 830.302,847.948 826.714,849.096 819.057 C 851.644 802.066,844.421 787.357,829.891 779.944 C 822.501 776.174,817.848 776.004,724.580 776.088 C 632.072 776.172,626.620 776.378,619.680 780.044 " fill="#1D1E23" stroke="none" fill-rule="evenodd"></path></svg>