<svg width="1200" height="1200" viewBox="0 0 1200 1200" fill="none" xmlns="http://www.w3.org/2000/svg"><path d="M557.492 202.139 C 536.172 207.256,517.143 223.092,507.189 244.000 C 501.692 255.547,501.000 259.012,501.000 275.000 C 501.000 290.988,501.692 294.453,507.189 306.000 C 515.056 322.524,527.480 334.947,544.000 342.807 C 556.149 348.588,558.742 349.039,583.600 349.695 C 598.231 350.081,609.931 351.113,609.600 351.988 C 609.270 352.863,570.873 442.696,524.272 551.618 L 439.544 749.657 398.272 750.328 L 357.000 751.000 344.000 757.189 C 327.478 765.055,315.055 777.478,307.189 794.000 C 301.692 805.547,301.000 809.012,301.000 825.000 C 301.000 840.988,301.692 844.453,307.189 856.000 C 315.055 872.522,327.478 884.945,344.000 892.811 L 357.000 899.000 500.000 899.000 L 643.000 899.000 656.000 892.811 C 672.522 884.945,684.945 872.522,692.811 856.000 C 698.308 844.453,699.000 840.988,699.000 825.000 C 699.000 808.982,698.316 805.569,692.783 794.000 C 684.896 777.508,672.548 765.191,656.000 757.309 C 643.897 751.544,641.165 751.062,616.411 750.324 C 601.788 749.888,590.088 748.832,590.411 747.976 C 590.735 747.121,629.133 657.291,675.740 548.353 L 760.481 350.284 801.740 349.642 L 843.000 349.000 856.000 342.811 C 872.522 334.945,884.945 322.522,892.811 306.000 C 898.308 294.453,899.000 290.988,899.000 275.000 C 899.000 258.982,898.316 255.569,892.783 244.000 C 884.913 227.542,872.582 215.223,856.000 207.250 L 843.000 201.000 704.000 200.668 C 627.065 200.485,561.648 201.141,557.492 202.139 " fill="#1D1E23" stroke="none" fill-rule="evenodd"></path></svg>