<svg width="1200" height="1200" viewBox="0 0 1200 1200" fill="none" xmlns="http://www.w3.org/2000/svg"><path d="M500.000 275.000 L 500.000 350.000 555.167 350.000 C 586.777 350.000,610.049 350.764,609.667 351.789 C 609.300 352.773,570.839 442.773,524.199 551.789 L 439.398 750.000 369.699 750.000 L 300.000 750.000 300.000 825.000 L 300.000 900.000 500.000 900.000 L 700.000 900.000 700.000 825.000 L 700.000 750.000 644.833 750.000 C 613.223 750.000,589.951 749.236,590.333 748.211 C 590.700 747.227,629.161 657.227,675.801 548.211 L 760.602 350.000 830.301 350.000 L 900.000 350.000 900.000 275.000 L 900.000 200.000 700.000 200.000 L 500.000 200.000 500.000 275.000 " fill="#1D1E23" stroke="none" fill-rule="evenodd"></path></svg>