<svg width="1200" height="1200" viewBox="0 0 1200 1200" fill="none" xmlns="http://www.w3.org/2000/svg"><path d="M136.000 52.173 C 119.744 55.306,95.975 68.665,82.259 82.378 C 68.310 96.324,56.035 118.858,52.180 137.598 C 49.102 152.562,49.102 1047.438,52.180 1062.402 C 53.379 1068.231,57.872 1080.358,62.165 1089.351 C 76.661 1119.718,105.079 1141.966,137.000 1147.936 C 145.709 1149.565,274.618 1150.019,607.000 1149.590 L 1065.000 1149.000 1077.000 1144.442 C 1103.931 1134.214,1125.790 1114.333,1137.956 1089.000 C 1142.182 1080.200,1146.621 1068.231,1147.820 1062.402 C 1149.343 1054.999,1150.000 950.512,1150.000 715.844 L 1150.000 379.884 989.500 214.984 L 829.000 50.084 487.000 50.261 C 298.900 50.359,140.950 51.219,136.000 52.173 M774.486 297.500 L 775.000 435.000 908.500 435.514 L 1042.000 436.028 1042.000 738.014 L 1042.000 1040.000 600.000 1040.000 L 158.000 1040.000 158.000 600.000 L 158.000 160.000 465.986 160.000 L 773.972 160.000 774.486 297.500 M852.403 599.922 C 798.389 614.525,768.730 658.133,759.855 736.000 C 756.872 762.163,758.512 822.461,762.843 845.943 C 774.205 907.536,803.564 945.907,845.600 954.103 C 882.775 961.351,917.638 945.195,934.283 913.005 C 944.272 893.687,946.000 895.456,946.000 925.000 L 946.000 950.000 979.000 950.000 L 1012.000 950.000 1012.000 857.000 L 1012.000 764.000 949.000 764.000 L 886.000 764.000 886.000 790.000 L 886.000 816.000 916.000 816.000 L 946.000 816.000 946.000 832.369 C 946.000 856.119,941.389 870.589,930.126 882.186 C 922.433 890.106,919.141 891.961,909.159 894.003 C 881.248 899.712,858.872 889.682,848.021 866.598 C 840.263 850.093,837.808 833.167,836.623 788.000 C 834.041 689.606,847.350 656.088,889.000 656.088 C 912.696 656.088,927.197 668.192,936.903 696.073 C 941.902 710.434,943.035 712.174,946.775 711.239 C 949.099 710.658,964.725 706.914,981.500 702.920 C 998.275 698.925,1012.000 694.991,1012.000 694.178 C 1012.000 693.366,1009.767 686.134,1007.037 678.108 C 993.653 638.759,972.164 615.772,936.239 602.378 C 917.403 595.355,874.000 594.084,852.403 599.922 M226.000 632.000 L 226.000 662.000 283.000 662.000 L 340.000 662.000 340.000 757.902 C 340.000 820.086,339.227 857.409,337.800 864.059 C 332.891 886.951,312.370 898.973,287.222 893.692 C 272.343 890.567,259.672 877.127,254.000 858.452 L 249.826 844.711 215.413 851.712 C 196.486 855.562,180.627 859.000,180.171 859.352 C 178.289 860.803,186.787 885.922,193.575 898.975 C 208.989 928.615,234.571 946.940,268.891 952.925 C 291.188 956.813,306.827 956.811,329.164 952.915 C 373.966 945.103,407.194 913.362,413.871 872.000 C 415.178 863.905,415.975 810.519,415.985 730.500 L 416.000 602.000 321.000 602.000 L 226.000 602.000 226.000 632.000 M488.000 776.000 L 488.000 950.000 526.000 950.000 L 564.000 950.000 564.000 886.000 L 564.000 822.000 604.500 821.885 C 650.765 821.753,663.767 819.441,682.882 807.949 C 719.959 785.656,736.814 738.023,727.038 683.162 C 719.871 642.942,694.321 615.326,654.736 605.015 C 645.383 602.579,628.261 602.000,565.580 602.000 L 488.000 602.000 488.000 776.000 M633.791 667.000 C 644.391 673.244,648.179 679.947,650.599 696.746 C 653.303 715.516,650.391 739.839,644.492 747.754 C 635.975 759.181,629.783 760.940,595.500 761.676 L 564.000 762.351 564.000 712.000 L 564.000 661.649 595.500 662.324 C 622.636 662.906,627.941 663.554,633.791 667.000 " fill="#1D1E23" stroke="none" fill-rule="evenodd"></path></svg>