<svg width="1200" height="1200" viewBox="0 0 1200 1200" fill="none" xmlns="http://www.w3.org/2000/svg"><path d="M50.000 600.000 L 50.000 1150.000 600.000 1150.000 L 1150.000 1150.000 1150.000 749.495 L 1150.000 348.990 1000.495 199.495 L 850.990 50.000 450.495 50.000 L 50.000 50.000 50.000 600.000 M800.000 275.000 L 800.000 400.000 925.000 400.000 L 1050.000 400.000 1050.000 725.000 L 1050.000 1050.000 600.000 1050.000 L 150.000 1050.000 150.000 600.000 L 150.000 150.000 475.000 150.000 L 800.000 150.000 800.000 275.000 M840.448 605.816 C 804.338 623.258,783.181 648.530,770.209 689.717 C 760.919 719.215,759.515 731.088,759.534 780.000 C 759.553 828.903,760.982 840.985,770.209 870.283 C 781.350 905.655,803.667 935.889,826.640 946.731 C 844.238 955.038,859.364 957.029,876.116 953.246 C 896.931 948.546,908.338 941.445,926.148 922.103 C 934.749 912.762,942.432 905.765,943.221 906.554 C 944.010 907.344,945.076 917.442,945.590 928.995 L 946.524 950.000 979.262 950.000 L 1012.000 950.000 1012.000 857.000 L 1012.000 764.000 949.000 764.000 L 886.000 764.000 886.000 790.000 L 886.000 816.000 913.755 816.000 C 935.738 816.000,942.018 816.612,943.951 818.941 C 947.275 822.946,943.216 853.433,937.628 866.421 C 929.131 886.173,906.709 898.417,887.088 894.020 C 867.073 889.534,857.292 881.768,849.268 863.994 C 841.643 847.100,839.251 825.989,839.414 777.000 C 839.690 693.779,845.413 673.112,871.365 661.633 C 878.822 658.334,883.053 657.749,892.400 658.726 C 912.198 660.796,918.630 665.878,933.756 691.401 C 942.146 705.559,943.637 707.061,949.892 707.656 C 957.373 708.368,990.291 701.392,1002.691 696.467 C 1009.647 693.705,1010.273 692.863,1009.234 687.670 C 1006.710 675.048,995.385 652.040,986.664 641.816 C 973.890 626.839,953.111 610.734,940.000 605.646 C 930.508 601.962,923.790 601.266,891.000 600.565 L 853.000 599.754 840.448 605.816 M226.000 632.000 L 226.000 662.000 283.325 662.000 L 340.650 662.000 339.282 741.500 C 337.542 842.582,335.656 870.057,329.901 878.139 C 324.856 885.224,313.494 891.394,302.154 893.207 C 284.694 895.999,266.222 882.539,255.022 858.864 C 252.256 853.016,249.280 847.791,248.410 847.254 C 246.997 846.380,194.452 856.317,185.561 859.139 C 180.784 860.656,181.073 865.445,186.870 880.847 C 199.449 914.267,222.895 936.938,257.513 949.156 C 268.690 953.100,274.939 953.921,294.000 953.946 C 322.629 953.984,336.580 951.759,352.497 944.616 C 366.591 938.291,385.032 924.229,394.297 912.742 C 397.731 908.484,403.281 899.210,406.631 892.133 C 412.461 879.814,412.785 877.726,414.223 843.133 C 415.050 823.260,415.788 760.875,415.863 704.500 L 416.000 602.000 321.000 602.000 L 226.000 602.000 226.000 632.000 M488.000 776.000 L 488.000 950.000 526.000 950.000 L 564.000 950.000 564.000 886.315 L 564.000 822.629 604.500 821.340 C 663.704 819.456,676.355 815.577,698.280 792.587 C 711.450 778.776,720.775 761.450,725.235 742.500 C 729.601 723.951,728.068 685.670,722.311 669.503 C 711.110 638.045,684.025 613.653,654.000 607.983 C 643.276 605.958,549.500 602.130,508.500 602.043 L 488.000 602.000 488.000 776.000 M621.989 666.182 C 643.026 669.565,647.558 677.839,647.839 713.370 C 648.016 735.734,646.377 742.241,638.486 750.513 C 631.193 758.158,623.193 760.010,591.500 761.393 L 564.000 762.594 564.000 712.057 L 564.000 661.520 587.500 662.968 C 600.425 663.764,615.945 665.210,621.989 666.182 " fill="#1D1E23" stroke="none" fill-rule="evenodd"></path></svg>