<svg width="1200" height="1200" viewBox="0 0 1200 1200" fill="none" xmlns="http://www.w3.org/2000/svg"><path d="M100.000 600.000 L 100.000 950.000 600.000 950.000 L 1100.000 950.000 1100.000 600.000 L 1100.000 250.000 600.000 250.000 L 100.000 250.000 100.000 600.000 M350.000 450.000 L 350.000 500.000 300.000 500.000 L 250.000 500.000 250.000 450.000 L 250.000 400.000 300.000 400.000 L 350.000 400.000 350.000 450.000 M500.000 450.000 L 500.000 500.000 450.000 500.000 L 400.000 500.000 400.000 450.000 L 400.000 400.000 450.000 400.000 L 500.000 400.000 500.000 450.000 M650.000 450.000 L 650.000 500.000 600.000 500.000 L 550.000 500.000 550.000 450.000 L 550.000 400.000 600.000 400.000 L 650.000 400.000 650.000 450.000 M800.000 450.000 L 800.000 500.000 750.000 500.000 L 700.000 500.000 700.000 450.000 L 700.000 400.000 750.000 400.000 L 800.000 400.000 800.000 450.000 M950.000 450.000 L 950.000 500.000 900.000 500.000 L 850.000 500.000 850.000 450.000 L 850.000 400.000 900.000 400.000 L 950.000 400.000 950.000 450.000 M350.000 600.000 L 350.000 650.000 300.000 650.000 L 250.000 650.000 250.000 600.000 L 250.000 550.000 300.000 550.000 L 350.000 550.000 350.000 600.000 M500.000 600.000 L 500.000 650.000 450.000 650.000 L 400.000 650.000 400.000 600.000 L 400.000 550.000 450.000 550.000 L 500.000 550.000 500.000 600.000 M650.000 600.000 L 650.000 650.000 600.000 650.000 L 550.000 650.000 550.000 600.000 L 550.000 550.000 600.000 550.000 L 650.000 550.000 650.000 600.000 M800.000 600.000 L 800.000 650.000 750.000 650.000 L 700.000 650.000 700.000 600.000 L 700.000 550.000 750.000 550.000 L 800.000 550.000 800.000 600.000 M950.000 600.000 L 950.000 650.000 900.000 650.000 L 850.000 650.000 850.000 600.000 L 850.000 550.000 900.000 550.000 L 950.000 550.000 950.000 600.000 M800.000 800.000 L 800.000 850.000 600.000 850.000 L 400.000 850.000 400.000 800.000 L 400.000 750.000 600.000 750.000 L 800.000 750.000 800.000 800.000 " fill="#1D1E23" stroke="none" fill-rule="evenodd"></path></svg>