<svg width="1200" height="1200" viewBox="0 0 1200 1200" fill="none" xmlns="http://www.w3.org/2000/svg"><path d="M100.000 600.000 L 100.000 1100.000 600.000 1100.000 L 1100.000 1100.000 1100.000 600.000 L 1100.000 100.000 600.000 100.000 L 100.000 100.000 100.000 600.000 M1068.000 601.000 L 1068.000 1070.000 600.000 1070.000 L 132.000 1070.000 132.000 601.000 L 132.000 132.000 600.000 132.000 L 1068.000 132.000 1068.000 601.000 M256.472 256.500 L 257.000 319.000 288.000 319.000 L 319.000 319.000 319.528 256.500 L 320.057 194.000 288.000 194.000 L 255.943 194.000 256.472 256.500 M350.000 257.084 L 350.000 320.168 365.500 319.584 L 381.000 319.000 381.528 256.500 L 382.057 194.000 366.028 194.000 L 350.000 194.000 350.000 257.084 M412.472 256.500 L 413.000 319.000 444.000 319.000 L 475.000 319.000 475.528 256.500 L 476.057 194.000 444.000 194.000 L 411.943 194.000 412.472 256.500 M506.472 256.500 L 507.000 319.000 522.000 319.000 L 537.000 319.000 537.528 256.500 L 538.057 194.000 522.000 194.000 L 505.943 194.000 506.472 256.500 M568.472 256.500 L 569.000 319.000 584.500 319.584 L 600.000 320.168 600.000 257.084 L 600.000 194.000 583.972 194.000 L 567.943 194.000 568.472 256.500 M632.000 257.000 L 632.000 320.000 663.000 320.000 L 694.000 320.000 694.000 257.000 L 694.000 194.000 663.000 194.000 L 632.000 194.000 632.000 257.000 M724.472 256.500 L 725.000 319.000 740.500 319.584 L 756.000 320.168 756.000 257.084 L 756.000 194.000 739.972 194.000 L 723.943 194.000 724.472 256.500 M788.000 257.000 L 788.000 320.000 819.000 320.000 L 850.000 320.000 850.000 257.000 L 850.000 194.000 819.000 194.000 L 788.000 194.000 788.000 257.000 M882.000 257.000 L 882.000 320.000 913.000 320.000 L 944.000 320.000 944.000 257.000 L 944.000 194.000 913.000 194.000 L 882.000 194.000 882.000 257.000 M194.000 366.000 L 194.000 382.000 600.000 382.000 L 1006.000 382.000 1006.000 366.000 L 1006.000 350.000 600.000 350.000 L 194.000 350.000 194.000 366.000 M256.477 490.449 L 257.000 569.000 288.000 569.000 L 319.000 569.000 319.000 491.000 L 319.000 413.000 287.477 412.449 L 255.953 411.898 256.477 490.449 M350.000 475.000 L 350.000 538.000 366.000 538.000 L 382.000 538.000 382.000 475.000 L 382.000 412.000 366.000 412.000 L 350.000 412.000 350.000 475.000 M412.000 475.000 L 412.000 538.102 443.500 537.551 L 475.000 537.000 475.000 475.000 L 475.000 413.000 443.500 412.449 L 412.000 411.898 412.000 475.000 M506.000 475.000 L 506.000 538.000 522.000 538.000 L 538.000 538.000 538.000 475.000 L 538.000 412.000 522.000 412.000 L 506.000 412.000 506.000 475.000 M568.907 414.522 C 568.374 415.909,568.178 444.034,568.470 477.022 L 569.000 537.000 584.500 537.584 L 600.000 538.168 600.000 475.084 L 600.000 412.000 584.937 412.000 C 574.662 412.000,569.567 412.802,568.907 414.522 M632.000 475.000 L 632.000 538.000 663.000 538.000 L 694.000 538.000 694.000 475.000 L 694.000 412.000 663.000 412.000 L 632.000 412.000 632.000 475.000 M724.907 414.522 C 724.374 415.909,724.178 444.034,724.470 477.022 L 725.000 537.000 740.500 537.584 L 756.000 538.168 756.000 475.084 L 756.000 412.000 740.937 412.000 C 730.662 412.000,725.567 412.802,724.907 414.522 M788.000 475.000 L 788.000 538.000 819.000 538.000 L 850.000 538.000 850.000 475.000 L 850.000 412.000 819.000 412.000 L 788.000 412.000 788.000 475.000 M882.000 491.000 L 882.000 570.000 913.000 570.000 L 944.000 570.000 944.000 491.000 L 944.000 412.000 913.000 412.000 L 882.000 412.000 882.000 491.000 M632.000 694.000 L 632.000 756.000 663.000 756.000 L 694.000 756.000 694.000 788.000 L 694.000 820.000 663.000 820.000 L 632.000 820.000 632.000 851.000 L 632.000 882.000 663.000 882.000 L 694.000 882.000 694.000 913.000 L 694.000 944.000 663.000 944.000 L 632.000 944.000 632.000 975.000 L 632.000 1006.000 694.000 1006.000 L 756.000 1006.000 756.000 975.000 L 756.000 944.000 787.000 944.000 L 818.000 944.000 818.000 975.000 L 818.000 1006.000 912.000 1006.000 L 1006.000 1006.000 1006.000 913.000 L 1006.000 820.000 944.000 820.000 L 882.000 820.000 882.000 788.000 L 882.000 756.000 851.000 756.000 L 820.000 756.000 820.000 725.000 L 820.000 694.000 882.000 694.000 L 944.000 694.000 944.000 725.000 L 944.000 756.000 975.000 756.000 L 1006.000 756.000 1006.000 694.000 L 1006.000 632.000 912.000 632.000 L 818.000 632.000 818.000 663.000 L 818.000 694.000 787.000 694.000 L 756.000 694.000 756.000 663.000 L 756.000 632.000 694.000 632.000 L 632.000 632.000 632.000 694.000 M414.000 787.000 C 362.859 838.150,320.123 880.000,319.032 880.000 C 317.940 880.000,303.308 866.282,286.515 849.516 L 255.984 819.032 224.990 850.026 L 193.996 881.020 256.507 943.507 L 319.018 1005.994 444.002 880.998 L 568.986 756.002 537.985 725.001 L 506.984 694.000 414.000 787.000 M756.000 725.000 L 756.000 756.000 787.000 756.000 L 818.000 756.000 818.000 788.052 L 818.000 820.104 787.500 819.552 L 757.000 819.000 756.449 787.500 L 755.898 756.000 724.949 756.000 L 694.000 756.000 694.000 725.000 L 694.000 694.000 725.000 694.000 L 756.000 694.000 756.000 725.000 M756.000 851.000 L 756.000 882.000 725.000 882.000 L 694.000 882.000 694.000 851.000 L 694.000 820.000 725.000 820.000 L 756.000 820.000 756.000 851.000 M882.000 851.000 L 882.000 882.000 913.000 882.000 L 944.000 882.000 944.000 913.000 L 944.000 944.000 913.000 944.000 L 882.000 944.000 882.000 913.000 L 882.000 882.000 851.000 882.000 L 820.000 882.000 820.000 851.000 L 820.000 820.000 851.000 820.000 L 882.000 820.000 882.000 851.000 " fill="#1D1E23" stroke="none" fill-rule="evenodd"></path></svg>