<svg width="1200" height="1200" viewBox="0 0 1200 1200" fill="none" xmlns="http://www.w3.org/2000/svg"><path d="M233.000 252.193 C 195.393 257.662,160.175 291.405,152.210 329.598 C 149.099 344.519,149.099 855.481,152.210 870.402 C 160.036 907.931,191.441 939.002,229.756 947.123 C 240.764 949.457,290.956 949.936,527.080 949.965 C 836.971 950.003,821.206 950.561,845.715 938.687 C 866.243 928.741,875.584 916.964,981.070 768.038 C 1036.764 689.410,1083.607 622.025,1085.166 618.294 C 1088.807 609.579,1088.807 590.421,1085.166 581.706 C 1081.615 573.207,882.244 291.806,872.300 281.257 C 863.062 271.457,848.390 261.952,833.000 255.798 L 821.000 251.000 533.000 250.724 C 374.600 250.572,239.600 251.234,233.000 252.193 " fill="#1D1E23" stroke="none" fill-rule="evenodd"></path></svg>