<svg width="1200" height="1200" viewBox="0 0 1200 1200" fill="none" xmlns="http://www.w3.org/2000/svg"><path d="M100.000 499.486 L 100.000 798.971 150.485 849.486 L 200.971 900.000 100.485 900.000 L 0.000 900.000 0.000 950.000 L 0.000 1000.000 600.000 1000.000 L 1200.000 1000.000 1200.000 950.000 L 1200.000 900.000 1100.515 900.000 L 1001.030 900.000 1050.515 850.485 L 1100.000 800.971 1100.000 500.485 L 1100.000 200.000 600.000 200.000 L 100.000 200.000 100.000 499.486 M1000.000 550.000 L 1000.000 800.000 600.000 800.000 L 200.000 800.000 200.000 550.000 L 200.000 300.000 600.000 300.000 L 1000.000 300.000 1000.000 550.000 " fill="#1D1E23" stroke="none" fill-rule="evenodd"></path></svg>