<svg width="1200" height="1200" viewBox="0 0 1200 1200" fill="none" xmlns="http://www.w3.org/2000/svg"><path d="M832.171 303.434 C 827.315 305.149,819.581 310.314,814.983 314.911 C 798.941 330.954,800.000 310.799,800.000 600.000 C 800.000 889.135,798.947 869.052,814.947 885.053 C 834.511 904.616,865.489 904.616,885.053 885.053 C 901.053 869.052,900.000 889.135,900.000 600.000 C 900.000 310.865,901.053 330.948,885.053 314.947 C 871.176 301.071,851.185 296.718,832.171 303.434 M338.664 321.824 C 328.948 324.284,314.752 333.327,309.891 340.153 C 304.713 347.425,300.000 362.105,300.000 370.962 C 300.000 374.441,301.467 381.723,303.260 387.144 C 306.199 396.030,316.476 406.986,407.724 498.509 L 508.928 600.018 408.672 700.509 C 353.531 755.779,306.765 804.150,304.747 808.000 C 302.153 812.950,301.068 819.393,301.040 830.000 C 301.006 842.890,301.793 846.348,306.634 854.584 C 320.268 877.780,348.259 885.905,372.684 873.758 C 378.184 871.022,421.439 829.215,500.407 750.311 C 629.667 621.155,628.753 622.218,628.754 601.000 C 628.755 579.508,633.055 584.522,501.281 452.360 C 434.026 384.908,375.756 328.031,371.790 325.967 C 363.273 321.534,347.567 319.570,338.664 321.824 " fill="#1D1E23" stroke="none" fill-rule="evenodd"></path></svg>