<svg width="1200" height="1200" viewBox="0 0 1200 1200" fill="none" xmlns="http://www.w3.org/2000/svg"><path d="M376.048 274.035 C 253.424 369.557,152.810 448.571,152.460 449.621 C 152.110 450.671,252.657 529.958,375.898 625.814 L 599.973 800.098 784.487 656.458 C 885.969 577.455,986.775 499.044,1008.500 482.210 C 1030.225 465.376,1048.000 450.916,1048.000 450.077 C 1048.000 448.698,602.899 101.439,600.158 100.679 C 599.521 100.503,498.672 178.513,376.048 274.035 M204.934 660.733 C 190.598 671.880,172.344 686.078,164.370 692.284 L 149.872 703.567 373.859 877.784 C 497.052 973.603,598.754 1052.000,599.864 1052.000 C 601.571 1052.000,1040.571 711.853,1047.349 705.278 C 1049.126 703.554,1044.036 698.623,1026.418 685.000 C 1013.615 675.100,995.317 660.933,985.757 653.519 L 968.375 640.037 786.979 781.132 C 687.212 858.734,604.046 923.187,602.166 924.360 C 599.307 926.146,569.855 904.028,421.874 788.960 C 324.594 713.317,241.850 648.960,238.000 645.946 L 231.000 640.465 204.934 660.733 " fill="#1D1E23" stroke="none" fill-rule="evenodd"></path></svg>