<svg width="1200" height="1200" viewBox="0 0 1200 1200" fill="none" xmlns="http://www.w3.org/2000/svg"><path d="M584.000 127.250 C 570.771 129.808,553.346 136.925,543.688 143.714 C 517.819 161.897,202.186 409.080,194.887 416.872 C 178.553 434.308,177.412 462.670,192.318 480.754 C 200.443 490.611,542.701 756.319,555.748 762.898 C 583.964 777.128,618.030 776.498,647.614 761.200 C 653.164 758.330,974.025 509.889,998.791 489.285 C 1011.575 478.651,1017.969 465.195,1017.937 449.000 C 1017.906 433.825,1013.253 423.426,1001.802 412.939 C 991.467 403.474,664.824 149.206,652.869 141.320 C 640.190 132.957,623.146 127.844,605.216 127.024 C 596.297 126.616,586.750 126.718,584.000 127.250 M213.770 656.759 C 197.627 662.528,185.709 676.502,181.695 694.367 C 179.195 705.493,182.734 721.663,189.791 731.354 C 196.247 740.221,538.987 1007.591,553.646 1015.196 C 581.317 1029.552,617.508 1029.546,645.534 1015.181 C 656.263 1009.682,987.908 752.512,1002.435 738.427 C 1012.980 728.203,1018.011 716.459,1017.980 702.144 C 1017.942 684.185,1004.155 664.297,986.681 656.996 C 977.458 653.142,958.517 653.152,949.271 657.016 C 945.301 658.675,870.811 715.510,783.738 783.318 C 669.952 871.927,622.551 907.700,615.212 910.503 C 604.019 914.778,591.622 914.403,579.725 909.431 C 576.026 907.885,501.839 851.294,414.863 783.673 C 327.141 715.471,252.985 659.228,248.323 657.363 C 238.413 653.397,223.888 653.144,213.770 656.759 " fill="#1D1E23" stroke="none" fill-rule="evenodd"></path></svg>