<svg width="1200" height="1200" viewBox="0 0 1200 1200" fill="none" xmlns="http://www.w3.org/2000/svg"><path d="M561.000 115.347 C 445.134 181.507,305.738 237.594,191.435 264.045 C 165.513 270.044,161.550 272.446,155.210 286.000 C 151.037 294.922,150.995 296.664,150.380 486.000 C 149.724 687.661,149.862 691.445,159.070 724.213 C 191.298 838.913,317.388 959.480,515.000 1064.551 C 532.600 1073.909,556.228 1085.774,567.506 1090.918 L 588.012 1100.271 617.506 1086.031 C 674.206 1058.655,735.717 1023.319,784.000 990.386 C 908.743 905.300,986.553 817.726,1013.575 732.000 C 1025.215 695.072,1025.000 699.605,1025.000 491.000 L 1025.000 299.000 1020.332 287.436 C 1017.765 281.076,1013.482 274.442,1010.813 272.694 C 1008.145 270.945,991.795 266.093,974.481 261.910 C 861.220 234.548,735.137 183.434,617.000 116.989 C 604.900 110.183,593.200 103.689,591.000 102.558 C 587.689 100.855,582.524 103.056,561.000 115.347 M494.073 307.500 C 499.804 318.225,506.246 329.910,508.389 333.467 L 512.286 339.934 519.643 336.838 C 531.777 331.730,557.842 326.156,575.992 324.785 C 597.698 323.147,624.054 326.590,646.000 333.931 C 655.350 337.059,663.287 339.029,663.638 338.309 C 672.333 320.478,691.877 288.886,694.529 288.375 C 701.946 286.947,700.071 294.426,687.189 317.659 C 679.935 330.742,674.000 342.313,674.000 343.374 C 674.000 344.434,680.627 349.500,688.727 354.631 C 706.701 366.017,728.752 388.806,739.656 407.265 C 750.463 425.562,758.194 449.409,759.506 468.500 L 760.572 484.000 587.286 484.000 L 414.000 484.000 414.000 477.176 C 414.000 465.186,419.592 440.607,425.542 426.446 C 433.539 407.412,444.525 391.281,459.909 375.981 C 470.910 365.041,494.226 347.591,500.748 345.417 C 501.747 345.084,496.587 333.944,489.282 320.661 C 475.363 295.353,473.235 288.000,479.827 288.000 C 482.623 288.000,486.463 293.256,494.073 307.500 M498.377 396.078 C 489.558 404.294,495.781 420.000,507.856 420.000 C 516.180 420.000,522.203 414.281,522.434 406.157 C 522.789 393.663,507.738 387.357,498.377 396.078 M656.349 396.629 C 650.707 402.634,650.818 410.193,656.629 415.651 C 666.296 424.733,680.667 418.761,680.667 405.663 C 680.667 393.307,664.953 387.469,656.349 396.629 M380.000 496.076 C 388.719 500.433,392.983 505.078,396.924 514.509 C 399.536 520.760,399.993 535.090,399.956 609.436 C 399.915 690.399,399.633 697.603,396.208 705.000 C 386.983 724.925,366.329 733.205,346.509 724.924 C 337.008 720.954,332.465 716.745,327.787 707.580 C 324.237 700.623,324.000 694.525,324.000 610.015 C 324.000 538.829,324.568 518.511,326.702 513.405 C 329.853 505.863,342.100 494.478,348.537 493.107 C 359.110 490.854,361.313 490.674,367.000 491.600 C 370.300 492.138,376.150 494.152,380.000 496.076 M832.077 494.040 C 836.432 496.261,842.472 501.819,845.498 506.390 L 851.000 514.702 851.580 604.851 C 852.235 706.658,852.277 706.316,837.580 718.896 C 819.651 734.242,792.177 729.446,780.563 708.941 C 776.080 701.026,776.066 700.698,776.033 608.401 C 775.997 507.862,775.728 510.450,787.321 499.768 C 796.126 491.655,800.104 490.126,812.580 490.061 C 820.349 490.020,826.765 491.329,832.077 494.040 M759.956 626.500 C 759.907 769.821,760.513 763.306,745.907 777.515 C 737.414 785.778,729.356 787.975,707.500 787.989 L 690.000 788.000 690.000 835.369 C 690.000 879.551,689.715 883.326,685.758 891.501 C 673.594 916.628,636.907 918.944,620.723 895.606 L 615.000 887.353 614.402 837.677 L 613.804 788.000 588.031 788.000 L 562.258 788.000 561.629 836.500 C 561.002 884.855,560.984 885.027,555.696 894.021 C 540.936 919.128,504.094 919.102,490.025 893.975 C 485.102 885.181,484.987 884.020,484.371 836.500 L 483.742 788.000 465.807 788.000 C 440.133 788.000,428.361 782.262,419.805 765.580 C 416.180 758.510,416.000 752.008,416.000 628.080 L 416.000 498.000 588.000 498.000 L 760.000 498.000 759.956 626.500 " fill="#1D1E23" stroke="none" fill-rule="evenodd"></path></svg>