<svg width="1200" height="1200" viewBox="0 0 1200 1200" fill="none" xmlns="http://www.w3.org/2000/svg"><path d="M563.233 102.050 C 504.025 108.841,450.953 128.033,403.849 159.687 C 317.793 217.517,263.337 308.711,251.744 414.409 C 248.985 439.573,250.543 484.166,255.086 510.000 C 263.200 556.147,286.343 612.362,312.281 648.931 C 328.449 671.725,362.163 706.811,382.931 722.457 L 399.000 734.562 400.000 798.842 C 400.997 862.937,401.015 863.150,406.109 873.042 C 411.861 884.211,424.418 894.817,435.551 897.909 C 445.788 900.752,754.212 900.752,764.449 897.909 C 775.582 894.817,788.139 884.211,793.891 873.042 C 798.985 863.150,799.003 862.935,800.000 798.865 L 801.000 734.608 816.000 722.532 C 861.421 685.966,902.561 631.324,923.311 580.003 C 940.230 538.156,947.587 504.858,949.384 462.000 C 951.194 418.818,946.035 382.600,931.838 338.819 C 892.718 218.186,787.799 127.485,662.355 105.856 C 635.546 101.233,586.702 99.358,563.233 102.050 M450.362 1031.567 C 450.953 1060.828,451.373 1063.858,456.109 1073.048 C 461.862 1084.213,474.422 1094.818,485.551 1097.909 C 495.687 1100.724,704.313 1100.724,714.449 1097.909 C 725.578 1094.818,738.138 1084.213,743.891 1073.048 C 748.627 1063.858,749.047 1060.828,749.638 1031.567 L 750.275 1000.000 600.000 1000.000 L 449.725 1000.000 450.362 1031.567 " fill="#1D1E23" stroke="none" fill-rule="evenodd"></path></svg>