<svg width="1200" height="1200" viewBox="0 0 1200 1200" fill="none" xmlns="http://www.w3.org/2000/svg"><path d="M350.000 138.000 L 350.000 176.000 468.000 176.000 C 532.900 176.000,586.000 176.459,586.000 177.021 C 586.000 177.583,577.895 194.233,567.989 214.021 C 552.704 244.556,549.300 250.005,545.489 250.031 C 543.020 250.048,527.500 250.951,511.000 252.039 C 427.325 257.552,363.262 273.111,320.443 298.319 C 314.202 301.994,300.865 313.100,290.806 323.000 C 276.156 337.419,271.102 343.984,265.404 356.000 C 249.976 388.536,251.000 368.552,251.000 637.000 L 251.000 877.000 257.327 895.098 C 266.320 920.819,276.232 936.646,294.844 955.000 C 317.617 977.457,334.063 986.272,373.893 997.370 C 375.722 997.879,362.664 1012.312,338.393 1036.607 L 300.000 1075.038 300.000 1087.519 L 300.000 1100.000 350.515 1100.000 L 401.030 1100.000 451.000 1050.000 L 500.970 1000.000 601.000 1000.000 L 701.030 1000.000 751.000 1050.000 L 800.970 1100.000 850.485 1100.000 L 900.000 1100.000 900.000 1087.519 L 900.000 1075.038 861.607 1036.607 C 837.336 1012.312,824.278 997.879,826.107 997.370 C 865.937 986.272,882.383 977.457,905.156 955.000 C 923.768 936.646,933.680 920.819,942.673 895.098 L 949.000 877.000 949.000 637.000 C 949.000 368.563,950.015 388.379,934.609 356.146 C 925.646 337.394,899.825 310.619,878.748 298.221 C 835.257 272.640,773.483 257.605,689.000 252.039 C 672.500 250.951,656.978 250.048,654.507 250.031 C 650.348 250.002,651.387 247.249,668.482 213.000 L 686.950 176.000 768.475 176.000 L 850.000 176.000 850.000 138.000 L 850.000 100.000 600.000 100.000 L 350.000 100.000 350.000 138.000 M850.000 575.000 L 850.000 700.000 600.000 700.000 L 350.000 700.000 350.000 575.000 L 350.000 450.000 600.000 450.000 L 850.000 450.000 850.000 575.000 M632.179 782.511 C 646.189 789.365,660.638 803.829,667.565 817.933 C 672.431 827.841,673.000 831.200,673.000 850.000 C 673.000 868.800,672.431 872.159,667.565 882.067 C 653.056 911.608,620.131 929.067,588.602 923.935 C 565.002 920.094,543.094 903.811,532.562 882.283 C 525.679 868.215,523.982 843.965,528.737 827.610 C 534.726 807.006,553.852 787.011,574.672 779.586 C 590.375 773.986,617.583 775.370,632.179 782.511 " fill="#1D1E23" stroke="none" fill-rule="evenodd"></path></svg>