<svg width="1200" height="1200" viewBox="0 0 1200 1200" fill="none" xmlns="http://www.w3.org/2000/svg"><path d="M582.171 53.434 C 570.364 57.604,557.459 70.822,553.312 82.991 C 548.411 97.376,548.411 202.624,553.312 217.009 C 559.598 235.455,580.181 250.000,600.000 250.000 C 619.819 250.000,640.402 235.455,646.688 217.009 C 651.589 202.624,651.589 97.376,646.688 82.991 C 638.031 57.585,608.597 44.100,582.171 53.434 M253.000 215.775 C 243.673 218.194,235.573 223.049,228.724 230.329 C 215.274 244.625,211.486 260.329,216.953 279.134 C 220.142 290.103,222.490 293.025,252.619 323.504 C 289.391 360.704,299.035 367.085,317.989 366.758 C 324.045 366.653,332.215 365.202,336.145 363.534 C 361.521 352.761,374.073 319.864,361.976 295.837 C 356.129 284.225,300.481 227.986,288.252 221.330 C 278.084 215.796,262.432 213.330,253.000 215.775 M922.143 216.220 C 918.371 217.364,911.621 220.851,907.143 223.969 C 893.756 233.288,842.882 286.211,837.901 296.000 C 832.426 306.757,831.754 325.209,836.439 336.145 C 844.315 354.531,863.457 366.664,884.342 366.507 C 901.988 366.375,911.294 360.011,947.695 323.186 C 977.507 293.028,979.861 290.094,983.047 279.134 C 990.012 255.176,979.764 231.260,957.648 219.860 C 948.611 215.201,931.342 213.431,922.143 216.220 M567.000 352.290 C 544.290 355.185,516.406 363.499,494.814 373.812 C 420.333 409.389,369.743 474.380,353.773 555.000 C 350.125 573.419,350.125 626.581,353.773 645.000 C 373.377 743.967,444.801 818.698,543.452 843.463 C 575.124 851.414,624.876 851.414,656.548 843.463 C 705.986 831.053,745.657 808.469,779.181 773.651 C 812.045 739.518,831.558 703.971,843.463 656.548 C 848.316 637.219,848.873 631.395,848.873 600.000 C 848.873 568.605,848.316 562.781,843.463 543.452 C 836.888 517.259,826.695 492.044,814.578 472.000 C 762.915 386.535,665.996 339.672,567.000 352.290 M82.171 553.434 C 64.528 559.666,50.000 580.694,50.000 600.000 C 50.000 619.819,64.545 640.402,82.991 646.688 C 91.150 649.467,101.923 650.000,150.000 650.000 C 215.783 650.000,221.027 649.078,235.053 635.053 C 254.616 615.489,254.616 584.511,235.053 564.947 C 220.951 550.846,215.902 549.977,149.144 550.158 C 101.888 550.286,89.347 550.900,82.171 553.434 M982.171 553.434 C 964.528 559.666,950.000 580.694,950.000 600.000 C 950.000 619.819,964.545 640.402,982.991 646.688 C 991.150 649.467,1001.923 650.000,1050.000 650.000 C 1115.783 650.000,1121.027 649.078,1135.053 635.053 C 1154.616 615.489,1154.616 584.511,1135.053 564.947 C 1120.951 550.846,1115.902 549.977,1049.144 550.158 C 1001.888 550.286,989.347 550.900,982.171 553.434 M293.000 839.817 C 287.361 843.077,269.358 859.437,251.715 877.335 C 223.585 905.873,220.106 910.165,217.215 919.900 C 213.383 932.804,213.251 937.253,216.335 949.503 C 219.738 963.018,235.385 978.562,249.863 982.812 C 263.411 986.788,266.630 986.785,280.100 982.785 C 289.838 979.893,294.117 976.423,322.643 948.285 C 355.164 916.205,361.987 907.396,365.950 892.364 C 371.056 873.001,360.233 850.162,340.921 839.547 C 332.806 835.086,328.452 834.088,317.000 834.065 C 305.173 834.042,301.448 834.935,293.000 839.817 M860.542 838.190 C 843.503 846.624,833.419 863.234,833.314 883.040 C 833.215 901.574,839.291 910.605,876.814 947.695 C 906.972 977.507,909.906 979.861,920.866 983.047 C 940.151 988.653,957.846 983.960,971.276 969.675 C 984.728 955.368,988.513 939.670,983.047 920.866 C 979.859 909.898,977.509 906.975,947.435 876.551 C 910.161 838.842,902.725 833.999,882.107 834.002 C 872.835 834.003,866.526 835.228,860.542 838.190 M582.171 953.434 C 570.364 957.604,557.459 970.822,553.312 982.991 C 548.411 997.376,548.411 1102.624,553.312 1117.009 C 559.598 1135.455,580.181 1150.000,600.000 1150.000 C 619.819 1150.000,640.402 1135.455,646.688 1117.009 C 651.589 1102.624,651.589 997.376,646.688 982.991 C 638.031 957.585,608.597 944.100,582.171 953.434 " fill="#1D1E23" stroke="none" fill-rule="evenodd"></path></svg>