<svg width="1200" height="1200" viewBox="0 0 1200 1200" fill="none" xmlns="http://www.w3.org/2000/svg"><path d="M550.000 150.000 L 550.000 250.000 600.000 250.000 L 650.000 250.000 650.000 150.000 L 650.000 50.000 600.000 50.000 L 550.000 50.000 550.000 150.000 M227.995 229.005 L 193.034 264.009 255.001 326.001 L 316.968 387.992 352.488 352.512 L 388.009 317.033 326.517 255.516 C 292.696 221.682,264.559 194.000,263.991 194.000 C 263.422 194.000,247.224 209.752,227.995 229.005 M874.488 254.512 C 841.219 287.794,814.000 315.928,814.000 317.034 C 814.000 318.139,829.532 334.556,848.516 353.517 L 883.033 387.991 945.000 326.000 L 1006.966 264.009 972.005 229.005 C 952.776 209.752,936.578 194.000,936.009 194.000 C 935.441 194.000,907.756 221.230,874.488 254.512 M567.000 352.290 C 544.290 355.185,516.406 363.499,494.814 373.812 C 420.333 409.389,369.743 474.380,353.773 555.000 C 350.125 573.419,350.125 626.581,353.773 645.000 C 373.377 743.967,444.801 818.698,543.452 843.463 C 575.124 851.414,624.876 851.414,656.548 843.463 C 705.986 831.053,745.657 808.469,779.181 773.651 C 812.045 739.518,831.558 703.971,843.463 656.548 C 848.316 637.219,848.873 631.395,848.873 600.000 C 848.873 568.605,848.316 562.781,843.463 543.452 C 836.888 517.259,826.695 492.044,814.578 472.000 C 762.915 386.535,665.996 339.672,567.000 352.290 M50.000 600.000 L 50.000 650.000 150.000 650.000 L 250.000 650.000 250.000 600.000 L 250.000 550.000 150.000 550.000 L 50.000 550.000 50.000 600.000 M950.000 600.000 L 950.000 650.000 1050.000 650.000 L 1150.000 650.000 1150.000 600.000 L 1150.000 550.000 1050.000 550.000 L 950.000 550.000 950.000 600.000 M255.479 873.520 L 193.991 935.033 229.512 970.512 L 265.032 1005.992 326.521 944.480 L 388.009 882.967 352.488 847.488 L 316.968 812.008 255.479 873.520 M846.483 848.516 L 812.009 883.033 874.007 945.007 L 936.005 1006.981 971.493 971.493 L 1006.981 936.005 946.003 875.003 C 912.465 841.451,884.109 814.000,882.991 814.000 C 881.872 814.000,865.444 829.532,846.483 848.516 M550.000 1050.000 L 550.000 1150.000 600.000 1150.000 L 650.000 1150.000 650.000 1050.000 L 650.000 950.000 600.000 950.000 L 550.000 950.000 550.000 1050.000 " fill="#1D1E23" stroke="none" fill-rule="evenodd"></path></svg>