<svg width="1200" height="1200" viewBox="0 0 1200 1200" fill="none" xmlns="http://www.w3.org/2000/svg"><path d="M350.000 138.000 L 350.000 176.000 468.000 176.000 C 532.900 176.000,586.000 176.459,586.000 177.021 C 586.000 177.583,577.895 194.233,567.989 214.021 C 552.704 244.556,549.300 250.005,545.489 250.031 C 543.020 250.048,527.500 250.951,511.000 252.039 C 427.325 257.552,363.262 273.111,320.443 298.319 C 314.202 301.994,300.865 313.100,290.806 323.000 C 276.156 337.419,271.102 343.984,265.404 356.000 C 249.976 388.536,251.000 368.552,251.000 637.000 L 251.000 877.000 257.327 895.098 C 266.320 920.819,276.232 936.646,294.844 955.000 C 317.590 977.430,334.330 986.405,373.850 997.353 C 375.633 997.847,364.648 1010.287,344.518 1030.572 C 309.121 1066.239,306.731 1070.304,312.718 1084.633 C 318.325 1098.054,324.438 1099.984,361.370 1099.993 C 379.378 1099.997,396.217 1099.058,399.323 1097.877 C 402.394 1096.710,426.567 1074.210,453.042 1047.877 L 501.177 1000.000 601.074 1000.000 L 700.971 1000.000 750.495 1049.500 L 800.020 1099.000 835.510 1099.562 C 868.374 1100.083,871.490 1099.821,877.620 1096.018 C 885.966 1090.842,890.792 1079.878,888.994 1070.177 C 887.911 1064.334,881.698 1056.989,855.560 1030.650 L 823.457 998.300 832.228 996.098 C 861.893 988.650,889.623 972.585,909.358 951.414 C 924.779 934.871,934.531 918.386,942.673 895.098 L 949.000 877.000 949.000 637.000 C 949.000 368.563,950.015 388.379,934.609 356.146 C 925.646 337.394,899.825 310.619,878.748 298.221 C 835.257 272.640,773.483 257.605,689.000 252.039 C 672.500 250.951,656.978 250.048,654.507 250.031 C 650.348 250.002,651.387 247.249,668.482 213.000 L 686.950 176.000 768.475 176.000 L 850.000 176.000 850.000 138.000 L 850.000 100.000 600.000 100.000 L 350.000 100.000 350.000 138.000 M850.000 575.000 L 850.000 700.000 600.000 700.000 L 350.000 700.000 350.000 575.000 L 350.000 450.000 600.000 450.000 L 850.000 450.000 850.000 575.000 M632.179 782.511 C 646.189 789.365,660.638 803.829,667.565 817.933 C 672.431 827.841,673.000 831.200,673.000 850.000 C 673.000 868.800,672.431 872.159,667.565 882.067 C 653.056 911.608,620.131 929.067,588.602 923.935 C 565.002 920.094,543.094 903.811,532.562 882.283 C 525.679 868.215,523.982 843.965,528.737 827.610 C 534.726 807.006,553.852 787.011,574.672 779.586 C 590.375 773.986,617.583 775.370,632.179 782.511 " fill="#1D1E23" stroke="none" fill-rule="evenodd"></path></svg>