<svg width="1200" height="1200" viewBox="0 0 1200 1200" fill="none" xmlns="http://www.w3.org/2000/svg"><path d="M685.688 84.675 C 681.667 86.173,674.467 89.720,669.688 92.557 C 664.910 95.394,594.800 164.154,513.889 245.357 C 355.969 403.848,360.229 399.039,353.063 426.920 C 350.389 437.327,350.000 471.911,350.000 699.322 C 350.000 881.762,350.662 962.978,352.210 970.402 C 360.026 1007.883,392.117 1039.974,429.598 1047.790 C 436.988 1049.331,511.490 1050.000,675.678 1050.000 C 932.141 1050.000,921.442 1050.446,945.595 1038.745 C 959.257 1032.127,977.287 1015.317,985.321 1001.708 C 995.010 985.295,1157.186 604.986,1162.206 586.907 C 1168.307 564.932,1168.307 535.106,1162.207 513.000 C 1150.087 469.083,1122.709 435.534,1083.000 415.936 C 1051.715 400.496,1061.014 401.257,888.897 400.066 L 734.793 399.000 758.301 286.000 C 771.230 223.850,782.398 167.999,783.119 161.886 C 785.600 140.840,775.228 114.516,758.753 100.052 C 744.745 87.753,732.839 83.308,712.000 82.598 C 699.400 82.169,690.537 82.869,685.688 84.675 M134.000 451.209 C 93.854 458.643,60.301 490.802,52.210 529.598 C 49.110 544.463,49.110 955.537,52.210 970.402 C 61.616 1015.505,103.994 1050.000,150.000 1050.000 C 196.006 1050.000,238.384 1015.505,247.790 970.402 C 250.890 955.537,250.890 544.463,247.790 529.598 C 238.657 485.805,200.029 453.060,155.087 451.015 C 146.239 450.612,136.750 450.699,134.000 451.209 " fill="#1D1E23" stroke="none" fill-rule="evenodd"></path></svg>