<svg width="1200" height="1200" viewBox="0 0 1200 1200" fill="none" xmlns="http://www.w3.org/2000/svg"><path d="M162.000 263.000 L 75.017 350.000 137.509 350.000 L 200.000 350.000 200.000 600.000 L 200.000 850.000 137.503 850.000 L 75.006 850.000 162.503 937.497 L 250.000 1024.994 337.497 937.497 L 424.994 850.000 362.497 850.000 L 300.000 850.000 300.000 600.000 L 300.000 350.000 362.491 350.000 L 424.983 350.000 338.000 263.000 C 290.159 215.150,250.559 176.000,250.000 176.000 C 249.441 176.000,209.841 215.150,162.000 263.000 M500.000 300.000 L 500.000 350.000 800.000 350.000 L 1100.000 350.000 1100.000 300.000 L 1100.000 250.000 800.000 250.000 L 500.000 250.000 500.000 300.000 M500.000 600.000 L 500.000 650.000 800.000 650.000 L 1100.000 650.000 1100.000 600.000 L 1100.000 550.000 800.000 550.000 L 500.000 550.000 500.000 600.000 M500.000 900.000 L 500.000 950.000 800.000 950.000 L 1100.000 950.000 1100.000 900.000 L 1100.000 850.000 800.000 850.000 L 500.000 850.000 500.000 900.000 " fill="#1D1E23" stroke="none" fill-rule="evenodd"></path></svg>