<svg width="1200" height="1200" viewBox="0 0 1200 1200" fill="none" xmlns="http://www.w3.org/2000/svg"><path d="M328.000 352.236 C 247.928 361.400,171.146 411.626,131.889 480.520 C 78.824 573.645,93.816 692.159,168.674 771.331 C 202.549 807.157,242.430 830.377,292.407 843.371 L 313.000 848.725 410.574 849.499 C 521.451 850.378,520.848 850.445,535.533 835.467 C 557.841 812.713,553.445 778.425,526.034 761.375 C 519.129 757.080,517.238 756.978,423.000 755.817 C 314.940 754.486,315.261 754.525,283.000 738.926 C 261.109 728.341,245.738 716.411,230.931 698.515 C 208.180 671.017,196.000 636.950,196.000 600.811 C 196.000 573.525,200.108 554.820,210.893 533.000 C 229.887 494.570,260.079 468.832,304.000 453.627 L 323.000 447.049 418.000 446.017 C 499.174 445.135,514.019 444.521,520.000 441.795 C 552.782 426.859,559.962 386.722,534.024 363.401 C 528.735 358.646,520.836 353.685,516.472 352.378 C 507.110 349.573,352.285 349.456,328.000 352.236 M682.345 352.451 C 678.685 353.670,671.341 358.578,666.025 363.357 C 640.037 386.723,647.185 426.845,680.000 441.795 C 685.981 444.521,700.826 445.135,782.000 446.017 L 877.000 447.049 896.000 453.627 C 939.921 468.832,970.113 494.570,989.107 533.000 C 1009.760 574.786,1009.396 625.868,988.137 669.000 C 972.865 699.985,948.983 723.461,917.000 738.926 C 884.739 754.525,885.060 754.486,777.000 755.817 C 682.762 756.978,680.871 757.080,673.966 761.375 C 646.555 778.425,642.159 812.713,664.467 835.467 C 679.152 850.445,678.549 850.378,789.426 849.499 L 887.000 848.725 907.593 843.371 C 958.526 830.128,997.740 807.095,1032.799 769.827 C 1074.560 725.435,1096.822 671.651,1099.449 608.806 C 1104.522 487.446,1020.461 384.298,893.000 355.480 C 876.545 351.759,867.018 351.360,782.000 350.823 C 717.799 350.417,686.939 350.921,682.345 352.451 M432.171 553.434 C 414.528 559.666,400.000 580.694,400.000 600.000 C 400.000 612.080,405.967 626.072,414.947 635.053 C 430.520 650.625,422.781 650.000,600.000 650.000 C 777.219 650.000,769.480 650.625,785.053 635.053 C 804.616 615.489,804.616 584.511,785.053 564.947 C 769.456 549.351,777.366 549.980,599.144 550.158 C 461.285 550.296,439.868 550.716,432.171 553.434 " fill="#1D1E23" stroke="none" fill-rule="evenodd"></path></svg>