<svg width="1200" height="1200" viewBox="0 0 1200 1200" fill="none" xmlns="http://www.w3.org/2000/svg"><path d="M555.000 102.111 C 496.782 108.131,444.051 122.073,393.338 144.854 L 381.676 150.093 382.509 206.547 C 383.303 260.356,383.591 263.872,388.663 281.613 C 393.951 300.112,406.544 330.000,409.051 330.000 C 409.772 330.000,415.006 326.057,420.681 321.237 C 435.225 308.887,463.383 290.949,481.010 282.805 C 519.603 264.974,555.347 257.317,600.000 257.317 C 644.653 257.317,680.397 264.974,718.990 282.805 C 736.617 290.949,764.775 308.887,779.319 321.237 C 784.994 326.057,790.228 330.000,790.949 330.000 C 791.670 330.000,795.356 323.301,799.139 315.113 C 814.262 282.381,819.863 247.033,819.955 183.745 C 819.987 161.118,819.310 151.925,817.500 150.445 C 809.091 143.568,755.485 123.848,721.423 115.101 C 675.621 103.339,600.114 97.446,555.000 102.111 M295.586 203.451 C 268.173 224.025,222.904 269.556,201.578 298.000 C 148.400 368.930,117.763 443.751,103.715 537.000 C 100.104 560.975,100.104 639.025,103.715 663.000 C 121.422 780.538,167.330 873.548,246.899 953.093 C 271.333 977.520,312.866 1012.000,317.856 1012.000 C 318.782 1012.000,320.004 993.775,320.572 971.500 C 321.676 928.180,323.924 913.661,333.964 885.000 C 341.722 862.853,346.294 852.772,356.982 834.241 L 366.207 818.248 361.311 810.493 C 344.108 783.241,328.576 742.383,323.165 710.148 C 318.544 682.620,318.544 517.380,323.165 489.852 C 328.576 457.617,344.108 416.759,361.311 389.507 L 366.207 381.752 356.982 365.759 C 346.294 347.228,341.722 337.147,333.964 315.000 C 323.924 286.339,321.676 271.820,320.572 228.500 C 320.004 206.225,318.782 188.000,317.856 188.000 C 316.929 188.000,306.908 194.953,295.586 203.451 M881.942 202.270 C 881.672 270.269,870.128 318.758,843.018 365.759 L 833.793 381.752 838.689 389.507 C 855.894 416.762,870.855 456.164,877.227 491.000 C 880.416 508.438,880.884 522.399,880.884 600.000 C 880.884 677.601,880.416 691.562,877.227 709.000 C 870.855 743.836,855.894 783.238,838.689 810.493 L 833.793 818.248 843.018 834.241 C 853.705 852.769,858.276 862.849,866.037 885.000 C 876.056 913.593,879.625 938.915,882.505 1001.826 L 883.000 1012.651 904.000 996.875 C 932.035 975.813,977.159 930.458,998.389 902.000 C 1051.982 830.164,1082.224 756.331,1096.285 663.000 C 1097.953 651.924,1098.996 627.689,1098.996 600.000 C 1098.996 572.311,1097.953 548.076,1096.285 537.000 C 1078.664 420.032,1032.624 326.425,954.097 247.906 C 930.142 223.953,904.143 201.766,887.500 191.073 L 882.000 187.540 881.942 202.270 M580.000 320.404 C 536.229 323.637,489.476 343.231,458.107 371.488 L 447.214 381.300 455.900 389.150 C 481.775 412.535,513.838 429.032,551.864 438.526 C 576.368 444.644,623.632 444.644,648.136 438.526 C 686.163 429.032,718.225 412.535,744.102 389.149 L 752.789 381.297 741.042 370.791 C 734.581 365.012,721.648 355.726,712.303 350.154 C 671.996 326.126,630.091 316.703,580.000 320.404 M402.153 444.347 C 394.509 461.214,388.637 479.456,384.874 498.028 C 382.276 510.852,381.893 528.338,382.488 607.150 L 383.197 701.000 388.301 718.000 C 393.900 736.651,405.449 765.423,407.958 766.974 C 408.831 767.514,415.483 763.089,422.740 757.140 C 456.696 729.307,498.044 709.622,543.854 699.480 C 571.417 693.378,628.583 693.378,656.146 699.480 C 702.212 709.679,745.546 730.404,777.546 757.541 C 784.446 763.392,790.887 767.688,791.861 767.086 C 794.724 765.316,806.209 736.382,811.345 718.000 C 817.641 695.462,819.909 664.211,819.909 600.000 C 819.909 535.789,817.641 504.538,811.345 482.000 C 806.320 464.013,794.744 434.696,791.997 432.998 C 791.098 432.443,785.107 436.340,778.682 441.659 C 743.601 470.698,701.086 491.020,654.000 501.255 C 629.896 506.495,570.104 506.495,546.000 501.255 C 499.843 491.222,455.796 470.378,423.000 443.050 C 407.710 430.309,408.539 430.257,402.153 444.347 M573.000 758.184 C 531.202 763.156,487.846 782.841,454.909 811.802 L 447.173 818.604 457.031 827.530 C 488.536 856.053,532.202 874.919,578.865 880.170 C 635.904 886.589,700.690 865.807,742.969 827.530 L 752.827 818.604 745.091 811.802 C 729.018 797.670,716.327 789.339,695.000 778.920 C 655.648 759.697,616.386 753.024,573.000 758.184 M400.840 884.933 C 397.046 893.146,391.483 908.671,388.478 919.433 C 383.126 938.605,383.015 940.128,383.008 994.940 L 383.000 1050.879 403.000 1059.436 C 442.833 1076.477,488.486 1089.038,537.000 1096.304 C 560.235 1099.784,641.120 1099.810,663.000 1096.344 C 713.040 1088.418,750.516 1078.413,789.000 1062.708 C 823.013 1048.827,820.008 1053.318,819.955 1016.454 C 819.863 952.959,814.277 917.652,799.139 884.887 C 795.356 876.699,791.790 870.000,791.214 870.000 C 790.639 870.000,782.595 876.075,773.339 883.500 C 734.151 914.936,684.601 935.421,632.052 941.908 C 560.417 950.751,483.079 928.758,426.661 883.500 C 417.405 876.075,409.361 870.000,408.786 870.000 C 408.210 870.000,404.635 876.720,400.840 884.933 " fill="#1D1E23" stroke="none" fill-rule="evenodd"></path></svg>