<svg width="1200" height="1200" viewBox="0 0 1200 1200" fill="none" xmlns="http://www.w3.org/2000/svg"><path d="M153.859 102.723 C 133.308 108.290,115.838 123.354,106.270 143.760 L 101.000 155.000 101.000 600.000 L 101.000 1045.000 106.321 1056.350 C 113.770 1072.242,126.060 1084.794,141.713 1092.500 L 154.916 1099.000 600.000 1099.000 L 1045.084 1099.000 1058.287 1092.500 C 1073.940 1084.794,1086.230 1072.242,1093.679 1056.350 L 1099.000 1045.000 1099.000 599.958 L 1099.000 154.916 1092.500 141.713 C 1084.794 126.060,1072.242 113.770,1056.350 106.321 L 1045.000 101.000 604.000 100.624 C 258.766 100.329,161.015 100.785,153.859 102.723 M358.612 246.495 C 431.220 280.977,420.894 386.627,342.930 406.934 C 284.631 422.119,228.479 370.601,238.047 310.707 C 245.165 266.146,281.868 236.636,327.502 238.782 C 341.222 239.427,346.466 240.727,358.612 246.495 M835.000 469.778 C 884.348 482.727,918.391 514.136,935.235 562.260 C 949.961 604.331,951.955 633.523,951.979 807.500 L 952.000 952.000 878.000 952.000 L 804.000 952.000 804.000 819.145 C 804.000 737.923,803.186 680.209,801.907 670.645 C 797.714 639.313,787.222 617.073,771.686 606.585 C 756.566 596.377,750.936 594.992,725.000 595.099 C 704.958 595.182,699.119 595.942,689.597 599.707 C 666.856 608.697,651.949 627.345,643.513 657.351 C 639.205 672.679,639.101 675.866,638.468 812.500 L 637.822 952.000 563.911 952.000 L 490.000 952.000 490.000 714.000 L 490.000 476.000 560.950 476.000 L 631.901 476.000 632.450 508.460 L 633.000 540.921 642.250 527.960 C 663.370 498.368,695.128 476.763,730.936 467.626 C 751.222 462.450,811.850 463.704,835.000 469.778 M396.000 714.000 L 396.000 952.000 322.000 952.000 L 248.000 952.000 248.000 714.000 L 248.000 476.000 322.000 476.000 L 396.000 476.000 396.000 714.000 " fill="#1D1E23" stroke="none" fill-rule="evenodd"></path></svg>