<svg width="1200" height="1200" viewBox="0 0 1200 1200" fill="none" xmlns="http://www.w3.org/2000/svg"><path d="M317.000 352.290 C 294.290 355.185,266.406 363.499,244.814 373.812 C 170.333 409.389,119.743 474.380,103.773 555.000 C 100.125 573.419,100.125 626.581,103.773 645.000 C 123.375 743.955,194.495 818.393,293.452 843.527 L 315.000 849.000 416.000 849.000 C 527.724 849.000,522.072 849.620,535.846 835.846 C 557.840 813.853,553.329 778.346,526.416 761.611 C 519.020 757.012,518.742 756.997,424.000 755.824 C 334.582 754.717,328.060 754.391,313.000 750.278 C 241.447 730.736,196.069 672.417,196.069 600.000 C 196.069 556.371,210.380 521.694,241.037 491.037 C 257.850 474.224,271.725 464.877,292.071 456.659 C 316.540 446.776,324.777 446.072,416.402 446.035 C 470.452 446.013,505.542 445.198,511.988 443.816 C 525.821 440.849,537.733 431.432,544.660 417.986 C 549.524 408.547,550.195 405.298,549.424 394.910 C 548.374 380.769,544.717 372.831,534.822 363.222 C 521.396 350.182,519.531 349.971,420.144 350.253 C 371.115 350.392,324.700 351.309,317.000 352.290 M680.706 353.256 C 671.375 356.564,659.619 367.068,654.784 376.418 C 653.012 379.845,651.103 387.711,650.542 393.898 C 648.740 413.767,660.494 432.953,679.855 441.745 C 686.014 444.543,700.384 445.142,784.000 446.089 C 878.330 447.157,881.385 447.314,895.000 451.791 C 953.536 471.040,995.795 520.642,1003.036 578.599 C 1003.843 585.051,1006.176 592.227,1008.379 595.028 L 1012.290 600.000 1052.145 600.000 C 1090.071 600.000,1092.205 599.795,1096.235 595.765 C 1100.064 591.936,1100.337 590.159,1099.083 577.265 C 1093.617 521.051,1070.323 469.849,1031.609 428.950 C 991.601 386.685,937.185 359.084,880.052 352.078 C 870.493 350.906,825.153 350.069,776.052 350.158 C 704.856 350.287,687.489 350.851,680.706 353.256 M433.181 553.147 C 421.791 557.320,412.844 564.851,406.545 575.568 C 401.816 583.611,401.000 587.209,401.000 600.000 C 401.000 612.791,401.816 616.389,406.545 624.432 C 409.594 629.620,415.056 636.127,418.682 638.893 C 433.625 650.290,428.886 650.000,599.895 650.000 C 777.232 650.000,769.479 650.626,785.053 635.053 C 804.616 615.489,804.616 584.511,785.053 564.947 C 769.458 549.353,777.361 549.982,599.144 550.141 C 467.122 550.259,439.709 550.755,433.181 553.147 M883.181 603.147 C 871.791 607.320,862.844 614.851,856.545 625.568 L 851.000 635.000 850.387 692.500 L 849.775 750.000 796.139 750.000 C 738.203 750.000,732.096 750.876,718.682 761.107 C 715.056 763.873,709.594 770.380,706.545 775.568 C 701.816 783.611,701.000 787.209,701.000 800.000 C 701.000 812.791,701.816 816.389,706.545 824.432 C 709.594 829.620,715.056 836.127,718.682 838.893 C 732.100 849.127,738.194 850.000,796.251 850.000 L 850.000 850.000 850.011 903.500 C 850.018 934.183,850.905 960.177,852.091 964.449 C 855.148 975.457,865.751 988.120,876.574 993.690 C 896.581 1003.986,919.488 1000.618,935.007 985.098 C 948.947 971.158,950.000 965.440,950.000 903.644 L 950.000 850.000 1003.644 850.000 C 1065.398 850.000,1071.164 848.941,1085.053 835.053 C 1104.616 815.489,1104.616 784.511,1085.053 764.947 C 1071.164 751.059,1065.398 750.000,1003.644 750.000 L 950.000 750.000 950.000 696.356 C 950.000 634.602,948.941 628.836,935.053 614.947 C 921.434 601.329,900.896 596.656,883.181 603.147 " fill="#1D1E23" stroke="none" fill-rule="evenodd"></path></svg>