<svg width="1200" height="1200" viewBox="0 0 1200 1200" fill="none" xmlns="http://www.w3.org/2000/svg"><path d="M150.000 350.000 L 150.000 450.000 250.000 450.000 L 350.000 450.000 350.000 350.000 L 350.000 250.000 250.000 250.000 L 150.000 250.000 150.000 350.000 M400.000 350.000 L 400.000 450.000 725.000 450.000 L 1050.000 450.000 1050.000 350.000 L 1050.000 250.000 725.000 250.000 L 400.000 250.000 400.000 350.000 M150.000 600.000 L 150.000 700.000 250.000 700.000 L 350.000 700.000 350.000 600.000 L 350.000 500.000 250.000 500.000 L 150.000 500.000 150.000 600.000 M400.000 600.000 L 400.000 700.000 725.000 700.000 L 1050.000 700.000 1050.000 600.000 L 1050.000 500.000 725.000 500.000 L 400.000 500.000 400.000 600.000 M150.000 850.000 L 150.000 950.000 250.000 950.000 L 350.000 950.000 350.000 850.000 L 350.000 750.000 250.000 750.000 L 150.000 750.000 150.000 850.000 M400.000 850.000 L 400.000 950.000 725.000 950.000 L 1050.000 950.000 1050.000 850.000 L 1050.000 750.000 725.000 750.000 L 400.000 750.000 400.000 850.000 " fill="#1D1E23" stroke="none" fill-rule="evenodd"></path></svg>