<svg width="1200" height="1200" viewBox="0 0 1200 1200" fill="none" xmlns="http://www.w3.org/2000/svg"><path d="M233.181 153.147 C 221.791 157.320,212.844 164.851,206.545 175.568 C 201.816 183.611,201.000 187.209,201.000 200.000 C 201.000 212.791,201.816 216.389,206.545 224.432 C 209.594 229.620,215.056 236.127,218.682 238.893 C 234.165 250.702,210.055 250.000,599.895 250.000 C 1001.170 250.000,968.851 251.254,985.053 235.053 C 1004.616 215.489,1004.616 184.511,985.053 164.947 C 968.842 148.737,1001.307 149.983,599.144 150.141 C 293.536 150.261,239.853 150.702,233.181 153.147 M233.181 353.147 C 221.791 357.320,212.844 364.851,206.545 375.568 C 201.816 383.611,201.000 387.209,201.000 400.000 C 201.000 412.791,201.816 416.389,206.545 424.432 C 209.594 429.620,215.056 436.127,218.682 438.893 C 234.165 450.702,210.055 450.000,599.895 450.000 C 1001.170 450.000,968.851 451.254,985.053 435.053 C 1004.616 415.489,1004.616 384.511,985.053 364.947 C 968.842 348.737,1001.307 349.983,599.144 350.141 C 293.536 350.261,239.853 350.702,233.181 353.147 M233.181 553.147 C 221.791 557.320,212.844 564.851,206.545 575.568 C 201.816 583.611,201.000 587.209,201.000 600.000 C 201.000 612.791,201.816 616.389,206.545 624.432 C 209.594 629.620,215.056 636.127,218.682 638.893 C 234.165 650.702,210.055 650.000,599.895 650.000 C 1001.170 650.000,968.851 651.254,985.053 635.053 C 1004.616 615.489,1004.616 584.511,985.053 564.947 C 968.842 548.737,1001.307 549.983,599.144 550.141 C 293.536 550.261,239.853 550.702,233.181 553.147 M233.181 753.147 C 221.791 757.320,212.844 764.851,206.545 775.568 C 201.816 783.611,201.000 787.209,201.000 800.000 C 201.000 812.791,201.816 816.389,206.545 824.432 C 209.594 829.620,215.056 836.127,218.682 838.893 C 233.454 850.160,231.200 850.000,374.895 850.000 C 524.292 850.000,519.674 850.431,535.053 835.053 C 544.033 826.072,550.000 812.080,550.000 800.000 C 550.000 787.920,544.033 773.928,535.053 764.947 C 519.648 749.543,524.419 749.982,374.144 750.141 C 263.822 750.258,239.660 750.773,233.181 753.147 M906.000 776.956 C 900.269 779.993,874.138 804.642,834.063 844.812 L 771.125 907.899 751.063 888.210 C 726.503 864.109,717.800 859.153,700.000 859.134 C 684.733 859.117,674.714 863.286,663.807 874.193 C 649.241 888.759,646.090 914.644,656.698 932.594 C 659.430 937.217,680.416 959.551,703.333 982.225 C 735.074 1013.628,746.906 1024.087,753.000 1026.125 C 765.222 1030.214,781.507 1029.372,792.000 1024.109 C 798.185 1021.007,827.153 993.536,884.599 936.297 C 930.579 890.484,969.906 850.271,971.993 846.936 C 986.677 823.468,977.817 791.231,952.921 777.547 C 939.430 770.131,919.354 769.879,906.000 776.956 M233.181 953.147 C 221.791 957.320,212.844 964.851,206.545 975.568 C 201.816 983.611,201.000 987.209,201.000 1000.000 C 201.000 1012.791,201.816 1016.389,206.545 1024.432 C 209.594 1029.620,215.056 1036.127,218.682 1038.893 C 233.454 1050.160,231.200 1050.000,374.895 1050.000 C 524.292 1050.000,519.674 1050.431,535.053 1035.053 C 544.033 1026.072,550.000 1012.080,550.000 1000.000 C 550.000 987.920,544.033 973.928,535.053 964.947 C 519.648 949.543,524.419 949.982,374.144 950.141 C 263.822 950.258,239.660 950.773,233.181 953.147 " fill="#1D1E23" stroke="none" fill-rule="evenodd"></path></svg>