<svg width="1200" height="1200" viewBox="0 0 1200 1200" fill="none" xmlns="http://www.w3.org/2000/svg"><path d="M182.171 253.434 C 170.364 257.604,157.459 270.822,153.312 282.991 C 148.411 297.376,148.411 402.624,153.312 417.009 C 157.626 429.667,170.333 442.374,182.991 446.688 C 197.376 451.589,302.624 451.589,317.009 446.688 C 329.667 442.374,342.374 429.667,346.688 417.009 C 351.589 402.624,351.589 297.376,346.688 282.991 C 342.374 270.333,329.667 257.626,317.009 253.312 C 303.121 248.580,195.639 248.677,182.171 253.434 M432.171 253.434 C 420.364 257.604,407.459 270.822,403.312 282.991 C 400.533 291.150,400.000 301.923,400.000 350.000 C 400.000 415.783,400.922 421.027,414.947 435.053 C 431.011 451.116,407.865 450.000,725.000 450.000 C 1042.135 450.000,1018.989 451.116,1035.053 435.053 C 1049.078 421.027,1050.000 415.783,1050.000 350.000 C 1050.000 284.217,1049.078 278.973,1035.053 264.947 C 1018.977 248.872,1042.288 249.980,724.144 250.158 C 473.057 250.298,440.000 250.669,432.171 253.434 M182.171 503.434 C 170.364 507.604,157.459 520.822,153.312 532.991 C 148.411 547.376,148.411 652.624,153.312 667.009 C 157.626 679.667,170.333 692.374,182.991 696.688 C 197.376 701.589,302.624 701.589,317.009 696.688 C 329.667 692.374,342.374 679.667,346.688 667.009 C 351.589 652.624,351.589 547.376,346.688 532.991 C 342.374 520.333,329.667 507.626,317.009 503.312 C 303.121 498.580,195.639 498.677,182.171 503.434 M432.171 503.434 C 420.364 507.604,407.459 520.822,403.312 532.991 C 400.533 541.150,400.000 551.923,400.000 600.000 C 400.000 665.783,400.922 671.027,414.947 685.053 C 431.011 701.116,407.865 700.000,725.000 700.000 C 1042.135 700.000,1018.989 701.116,1035.053 685.053 C 1049.078 671.027,1050.000 665.783,1050.000 600.000 C 1050.000 534.217,1049.078 528.973,1035.053 514.947 C 1018.977 498.872,1042.288 499.980,724.144 500.158 C 473.057 500.298,440.000 500.669,432.171 503.434 M182.171 753.434 C 170.364 757.604,157.459 770.822,153.312 782.991 C 148.411 797.376,148.411 902.624,153.312 917.009 C 157.626 929.667,170.333 942.374,182.991 946.688 C 197.376 951.589,302.624 951.589,317.009 946.688 C 329.667 942.374,342.374 929.667,346.688 917.009 C 351.589 902.624,351.589 797.376,346.688 782.991 C 342.374 770.333,329.667 757.626,317.009 753.312 C 303.121 748.580,195.639 748.677,182.171 753.434 M432.171 753.434 C 420.364 757.604,407.459 770.822,403.312 782.991 C 400.533 791.150,400.000 801.923,400.000 850.000 C 400.000 915.783,400.922 921.027,414.947 935.053 C 431.011 951.116,407.865 950.000,725.000 950.000 C 1042.135 950.000,1018.989 951.116,1035.053 935.053 C 1049.078 921.027,1050.000 915.783,1050.000 850.000 C 1050.000 784.217,1049.078 778.973,1035.053 764.947 C 1018.977 748.872,1042.288 749.980,724.144 750.158 C 473.057 750.298,440.000 750.669,432.171 753.434 " fill="#1D1E23" stroke="none" fill-rule="evenodd"></path></svg>