<svg width="1200" height="1200" viewBox="0 0 1200 1200" fill="none" xmlns="http://www.w3.org/2000/svg"><path d="M234.000 151.340 C 223.762 152.967,204.674 160.738,194.642 167.361 C 176.488 179.348,164.065 195.540,155.789 218.003 L 151.000 231.000 151.000 600.000 L 151.000 969.000 155.761 982.000 C 166.989 1012.655,187.209 1032.865,218.003 1044.211 L 231.000 1049.000 600.000 1049.000 L 969.000 1049.000 982.000 1044.239 C 1012.655 1033.011,1032.865 1012.791,1044.211 981.997 L 1049.000 969.000 1049.000 600.000 L 1049.000 231.000 1044.239 218.000 C 1038.172 201.435,1028.132 186.240,1016.304 175.720 C 1005.046 165.708,982.901 154.796,968.227 152.030 C 957.986 150.100,246.008 149.431,234.000 151.340 M950.000 600.000 L 950.000 950.000 600.000 950.000 L 250.000 950.000 250.000 600.000 L 250.000 250.000 600.000 250.000 L 950.000 250.000 950.000 600.000 M383.340 353.246 C 365.033 358.871,350.000 379.952,350.000 400.000 C 350.000 426.368,373.632 450.000,400.000 450.000 C 426.368 450.000,450.000 426.368,450.000 400.000 C 450.000 379.509,434.748 358.753,415.487 353.033 C 403.026 349.332,395.927 349.379,383.340 353.246 M582.171 353.434 C 564.528 359.666,550.000 380.694,550.000 400.000 C 550.000 412.080,555.967 426.072,564.947 435.053 C 580.053 450.158,578.625 450.000,700.000 450.000 C 821.375 450.000,819.947 450.158,835.053 435.053 C 854.616 415.489,854.616 384.511,835.053 364.947 C 819.910 349.805,821.514 349.979,699.144 350.158 C 606.580 350.293,589.728 350.765,582.171 353.434 M383.340 553.246 C 365.033 558.871,350.000 579.952,350.000 600.000 C 350.000 626.368,373.632 650.000,400.000 650.000 C 426.368 650.000,450.000 626.368,450.000 600.000 C 450.000 579.509,434.748 558.753,415.487 553.033 C 403.026 549.332,395.927 549.379,383.340 553.246 M582.171 553.434 C 564.528 559.666,550.000 580.694,550.000 600.000 C 550.000 612.080,555.967 626.072,564.947 635.053 C 580.053 650.158,578.625 650.000,700.000 650.000 C 821.375 650.000,819.947 650.158,835.053 635.053 C 854.616 615.489,854.616 584.511,835.053 564.947 C 819.910 549.805,821.514 549.979,699.144 550.158 C 606.580 550.293,589.728 550.765,582.171 553.434 M383.340 753.246 C 365.033 758.871,350.000 779.952,350.000 800.000 C 350.000 826.368,373.632 850.000,400.000 850.000 C 426.368 850.000,450.000 826.368,450.000 800.000 C 450.000 779.509,434.748 758.753,415.487 753.033 C 403.026 749.332,395.927 749.379,383.340 753.246 M582.171 753.434 C 564.528 759.666,550.000 780.694,550.000 800.000 C 550.000 812.080,555.967 826.072,564.947 835.053 C 580.053 850.158,578.625 850.000,700.000 850.000 C 821.375 850.000,819.947 850.158,835.053 835.053 C 854.616 815.489,854.616 784.511,835.053 764.947 C 819.910 749.805,821.514 749.979,699.144 750.158 C 606.580 750.293,589.728 750.765,582.171 753.434 " fill="#1D1E23" stroke="none" fill-rule="evenodd"></path></svg>