<svg width="1200" height="1200" viewBox="0 0 1200 1200" fill="none" xmlns="http://www.w3.org/2000/svg"><path d="M248.440 115.156 C 237.267 120.723,230.332 127.818,223.404 140.767 L 219.000 149.000 219.000 600.000 L 219.000 1051.000 223.404 1059.233 C 230.503 1072.502,237.435 1079.428,249.592 1085.398 L 261.000 1091.000 600.000 1091.000 L 939.000 1091.000 950.408 1085.398 C 962.565 1079.428,969.497 1072.502,976.596 1059.233 L 981.000 1051.000 981.000 600.000 L 981.000 149.000 976.596 140.767 C 969.668 127.818,962.733 120.723,951.560 115.156 L 941.215 110.000 600.000 110.000 L 258.785 110.000 248.440 115.156 M872.000 600.000 L 872.000 982.000 600.000 982.000 L 328.000 982.000 328.000 600.000 L 328.000 218.000 600.000 218.000 L 872.000 218.000 872.000 600.000 M472.632 330.652 C 450.724 338.729,436.932 358.653,437.086 382.000 C 437.233 404.255,448.539 421.713,469.000 431.284 L 479.000 435.961 600.000 435.961 L 721.000 435.961 731.000 431.284 C 736.500 428.711,744.780 422.489,749.399 417.457 C 775.091 389.472,763.548 343.991,727.368 330.652 C 722.754 328.951,687.668 328.304,600.000 328.304 C 512.332 328.304,477.246 328.951,472.632 330.652 M468.958 550.715 C 448.315 560.328,437.137 577.641,437.137 600.000 C 437.137 621.408,448.387 639.795,467.193 649.127 C 474.664 652.833,480.382 653.000,600.000 653.000 C 739.820 653.000,731.314 653.839,747.131 638.479 C 757.797 628.120,762.863 615.728,762.863 600.000 C 762.863 577.641,751.685 560.328,731.042 550.715 L 721.000 546.039 600.000 546.039 L 479.000 546.039 468.958 550.715 M475.987 765.839 C 453.312 772.872,436.000 796.013,436.000 819.288 C 436.000 838.766,452.973 862.548,471.341 868.807 C 484.944 873.442,714.856 873.637,727.929 869.025 C 746.497 862.474,760.366 844.696,763.209 823.804 C 765.969 803.521,752.941 779.960,733.090 769.331 C 725.070 765.037,723.949 764.997,603.000 764.642 C 535.900 764.445,478.744 764.983,475.987 765.839 " fill="#1D1E23" stroke="none" fill-rule="evenodd"></path></svg>