<svg width="1200" height="1200" viewBox="0 0 1200 1200" fill="none" xmlns="http://www.w3.org/2000/svg"><path d="M150.000 400.000 L 150.000 450.000 200.000 450.000 L 250.000 450.000 250.000 400.000 L 250.000 350.000 200.000 350.000 L 150.000 350.000 150.000 400.000 M350.000 400.000 L 350.000 450.000 700.000 450.000 L 1050.000 450.000 1050.000 400.000 L 1050.000 350.000 700.000 350.000 L 350.000 350.000 350.000 400.000 M150.000 600.000 L 150.000 650.000 200.000 650.000 L 250.000 650.000 250.000 600.000 L 250.000 550.000 200.000 550.000 L 150.000 550.000 150.000 600.000 M350.000 600.000 L 350.000 650.000 700.000 650.000 L 1050.000 650.000 1050.000 600.000 L 1050.000 550.000 700.000 550.000 L 350.000 550.000 350.000 600.000 M150.000 800.000 L 150.000 850.000 200.000 850.000 L 250.000 850.000 250.000 800.000 L 250.000 750.000 200.000 750.000 L 150.000 750.000 150.000 800.000 M350.000 800.000 L 350.000 850.000 700.000 850.000 L 1050.000 850.000 1050.000 800.000 L 1050.000 750.000 700.000 750.000 L 350.000 750.000 350.000 800.000 " fill="#1D1E23" stroke="none" fill-rule="evenodd"></path></svg>