<svg width="1200" height="1200" viewBox="0 0 1200 1200" fill="none" xmlns="http://www.w3.org/2000/svg"><path d="M827.496 96.854 C 816.433 100.801,806.807 108.914,800.545 119.568 C 795.801 127.637,795.006 131.167,795.040 144.000 C 795.068 154.667,796.147 161.022,798.774 166.000 C 800.806 169.850,819.658 190.325,840.667 211.500 L 878.865 250.000 840.667 288.500 C 819.658 309.675,800.938 330.026,799.067 333.725 C 787.592 356.407,796.786 386.064,819.416 399.366 C 827.652 404.207,831.110 404.994,844.000 404.960 C 854.667 404.932,861.022 403.853,866.000 401.226 C 869.850 399.194,890.325 380.342,911.500 359.333 L 950.000 321.135 988.500 359.333 C 1009.675 380.342,1030.150 399.194,1034.000 401.226 C 1038.978 403.853,1045.333 404.932,1056.000 404.960 C 1068.890 404.994,1072.348 404.207,1080.584 399.366 C 1091.700 392.833,1101.068 380.876,1104.226 369.192 C 1106.969 359.045,1105.446 342.645,1100.933 333.725 C 1099.062 330.026,1080.342 309.675,1059.333 288.500 L 1021.135 250.000 1059.333 211.500 C 1080.342 190.325,1099.062 169.974,1100.933 166.275 C 1102.804 162.576,1104.809 154.926,1105.388 149.275 C 1109.126 112.778,1074.883 85.513,1039.774 97.031 C 1030.147 100.190,1024.796 104.728,989.500 139.674 L 950.000 178.782 910.500 139.694 C 876.798 106.344,869.553 100.121,861.144 97.303 C 849.372 93.358,837.727 93.202,827.496 96.854 M559.434 152.233 C 517.386 156.285,466.635 170.302,427.315 188.723 C 287.203 254.363,199.755 396.722,200.039 558.712 C 200.286 699.787,294.349 860.710,484.160 1044.788 C 520.749 1080.272,597.146 1149.000,600.000 1149.000 C 600.918 1149.000,619.968 1132.810,642.334 1113.021 C 689.919 1070.920,777.581 984.068,809.621 947.279 C 920.326 820.166,977.551 716.759,996.270 610.000 C 999.228 593.133,999.882 534.176,997.341 513.500 L 995.682 500.000 847.841 500.000 L 700.000 500.000 700.000 331.335 L 700.000 162.670 677.500 158.320 C 635.655 150.231,599.537 148.369,559.434 152.233 M633.087 456.186 C 662.422 467.118,682.554 487.194,694.067 517.000 C 697.858 526.814,698.703 532.826,698.703 550.000 C 698.703 567.174,697.858 573.186,694.067 583.000 C 671.920 640.336,611.173 665.454,556.719 639.792 C 534.244 629.201,515.821 608.599,505.933 583.000 C 499.267 565.745,499.281 534.188,505.961 517.000 C 514.502 495.027,526.965 479.033,544.642 467.361 C 554.469 460.873,573.099 453.227,584.000 451.209 C 595.043 449.164,621.419 451.838,633.087 456.186 " fill="#1D1E23" stroke="none" fill-rule="evenodd"></path></svg>