<svg width="1200" height="1200" viewBox="0 0 1200 1200" fill="none" xmlns="http://www.w3.org/2000/svg"><path d="M582.171 53.434 C 577.315 55.149,569.581 60.314,564.983 64.911 C 552.429 77.466,550.000 86.877,550.000 122.974 L 550.000 153.235 531.500 155.811 C 521.325 157.229,501.300 161.373,487.000 165.022 C 362.526 196.783,255.775 283.289,196.980 400.041 C 177.016 439.682,160.699 492.632,154.466 538.000 L 152.954 549.000 119.977 550.000 C 82.578 551.134,73.273 553.956,62.053 567.568 C 41.445 592.570,49.038 630.305,77.498 644.320 C 85.954 648.485,90.630 649.110,119.977 650.000 L 152.954 651.000 154.466 662.000 C 174.486 807.709,267.019 936.032,400.565 1003.284 C 439.319 1022.801,493.283 1039.390,538.000 1045.534 L 549.000 1047.046 550.000 1080.023 C 551.134 1117.422,553.956 1126.727,567.568 1137.947 C 592.570 1158.555,630.305 1150.962,644.320 1122.502 C 648.485 1114.046,649.110 1109.370,650.000 1080.023 L 651.000 1047.046 662.000 1045.534 C 807.662 1025.520,936.054 932.938,1003.284 799.435 C 1022.801 760.681,1039.390 706.717,1045.534 662.000 L 1047.046 651.000 1080.023 650.000 C 1117.422 648.866,1126.727 646.044,1137.947 632.432 C 1158.555 607.430,1150.962 569.695,1122.502 555.680 C 1114.046 551.515,1109.370 550.890,1080.023 550.000 L 1047.046 549.000 1045.534 538.000 C 1032.327 441.873,986.744 350.757,917.730 282.529 C 891.464 256.562,874.968 243.007,847.000 224.410 C 795.338 190.058,727.668 164.052,668.500 155.811 L 650.000 153.235 650.000 122.974 C 650.000 86.905,647.568 77.462,635.053 64.947 C 621.176 51.071,601.185 46.718,582.171 53.434 M634.288 252.098 C 660.819 254.786,687.182 260.274,710.517 267.968 C 736.251 276.452,781.376 299.393,803.986 315.486 C 828.328 332.812,867.188 371.672,884.514 396.014 C 900.601 418.616,923.547 463.747,932.024 489.459 C 946.412 533.101,952.266 582.585,948.352 627.500 C 943.946 678.073,934.426 711.972,911.983 757.000 C 893.778 793.527,876.458 817.511,847.000 846.986 C 794.699 899.318,732.647 931.735,659.000 945.202 C 630.967 950.328,569.033 950.328,541.000 945.202 C 467.353 931.735,405.301 899.318,353.000 846.986 C 324.810 818.779,306.992 794.466,289.251 760.000 C 259.044 701.313,246.064 636.591,251.648 572.500 C 256.054 521.921,267.078 483.077,289.251 440.000 C 307.000 405.517,324.818 381.210,353.014 353.014 C 382.452 323.577,406.423 306.256,443.000 287.991 C 504.927 257.069,567.486 245.331,634.288 252.098 M577.000 401.208 C 492.372 413.748,428.822 468.918,406.592 549.147 C 401.681 566.870,401.091 572.326,401.091 600.000 C 401.091 627.564,401.692 633.167,406.510 650.545 C 426.304 721.937,478.063 773.696,549.455 793.490 C 566.833 798.308,572.436 798.909,600.000 798.909 C 627.674 798.909,633.130 798.319,650.853 793.408 C 712.807 776.241,762.606 732.162,785.756 674.000 C 820.018 587.920,789.479 487.257,713.435 435.617 C 695.841 423.668,667.156 410.706,647.913 406.007 C 631.485 401.996,590.431 399.218,577.000 401.208 " fill="#1D1E23" stroke="none" fill-rule="evenodd"></path></svg>