<svg width="1200" height="1200" viewBox="0 0 1200 1200" fill="none" xmlns="http://www.w3.org/2000/svg"><path d="M50.000 525.000 L 50.000 850.000 100.000 850.000 L 150.000 850.000 150.000 857.084 C 150.000 877.480,161.416 912.402,174.552 932.193 C 214.417 992.252,290.524 1015.594,357.549 988.317 C 392.864 973.946,423.946 942.864,438.317 907.549 C 444.342 892.746,450.000 868.304,450.000 857.084 L 450.000 850.000 600.000 850.000 L 750.000 850.000 750.000 857.084 C 750.000 877.480,761.416 912.402,774.552 932.193 C 814.417 992.252,890.524 1015.594,957.549 988.317 C 992.864 973.946,1023.946 942.864,1038.317 907.549 C 1044.342 892.746,1050.000 868.304,1050.000 857.084 L 1050.000 850.000 1100.000 850.000 L 1150.000 850.000 1150.000 724.979 L 1150.000 599.959 1074.984 499.979 L 999.969 400.000 924.984 400.000 L 850.000 400.000 850.000 300.000 L 850.000 200.000 450.000 200.000 L 50.000 200.000 50.000 525.000 M1022.384 535.356 C 1048.023 568.001,1069.720 595.901,1070.599 597.356 C 1071.918 599.536,1052.685 600.000,961.099 600.000 L 850.000 600.000 850.000 538.000 L 850.000 476.000 912.884 476.000 L 975.767 476.000 1022.384 535.356 M323.250 806.220 C 342.867 816.315,353.124 838.886,348.165 861.046 C 339.683 898.946,292.489 912.594,264.993 885.098 C 245.365 865.471,245.361 834.533,264.983 814.911 C 280.378 799.516,303.517 796.065,323.250 806.220 M923.250 806.220 C 942.867 816.315,953.124 838.886,948.165 861.046 C 939.683 898.946,892.489 912.594,864.993 885.098 C 845.365 865.471,845.361 834.533,864.983 814.911 C 880.378 799.516,903.517 796.065,923.250 806.220 " fill="#1D1E23" stroke="none" fill-rule="evenodd"></path></svg>