<svg width="1200" height="1200" viewBox="0 0 1200 1200" fill="none" xmlns="http://www.w3.org/2000/svg"><path d="M567.000 52.290 C 531.523 56.812,491.259 72.343,458.814 94.020 C 438.412 107.651,405.695 140.593,392.294 161.000 C 366.171 200.778,349.253 252.556,355.848 272.541 C 358.876 281.714,373.382 295.086,383.291 297.837 C 412.635 305.985,438.433 288.727,452.963 251.228 C 470.388 206.257,496.493 177.430,536.319 159.179 C 556.140 150.097,575.832 145.993,599.395 146.035 C 643.763 146.113,678.171 160.246,708.963 191.037 C 725.776 207.850,735.123 221.725,743.341 242.071 C 752.689 265.214,753.928 276.691,753.965 340.453 L 754.000 399.905 516.500 400.453 L 279.000 401.000 267.000 405.784 C 232.959 419.355,209.106 446.531,202.210 479.598 C 199.099 494.519,199.099 1005.481,202.210 1020.402 C 210.026 1057.883,242.117 1089.974,279.598 1097.790 C 294.557 1100.909,905.443 1100.909,920.402 1097.790 C 957.883 1089.974,989.974 1057.883,997.790 1020.402 C 1000.901 1005.481,1000.901 494.519,997.790 479.598 C 990.878 446.453,966.631 418.891,933.000 405.951 C 922.544 401.928,916.455 401.220,885.677 400.448 L 850.354 399.561 849.486 331.281 C 848.649 265.386,848.433 262.280,843.318 242.407 C 836.744 216.869,826.435 191.615,814.578 172.000 C 762.915 86.535,665.996 39.672,567.000 52.290 M900.000 750.000 L 900.000 1000.000 600.000 1000.000 L 300.000 1000.000 300.000 750.000 L 300.000 500.000 600.000 500.000 L 900.000 500.000 900.000 750.000 M584.000 651.209 C 581.250 651.718,573.600 654.022,567.000 656.329 C 497.387 680.658,477.583 767.938,529.823 820.177 C 569.629 859.983,630.371 859.983,670.177 820.177 C 722.446 767.909,703.030 682.052,633.087 656.158 C 621.425 651.840,594.985 649.174,584.000 651.209 " fill="#1D1E23" stroke="none" fill-rule="evenodd"></path></svg>