<svg width="1200" height="1200" viewBox="0 0 1200 1200" fill="none" xmlns="http://www.w3.org/2000/svg"><path d="M566.000 102.193 C 451.827 114.935,352.352 195.179,315.918 303.927 C 301.856 345.899,301.304 351.310,300.474 455.500 L 299.721 550.000 249.861 550.000 L 200.000 550.000 200.000 825.000 L 200.000 1100.000 600.000 1100.000 L 1000.000 1100.000 1000.000 825.000 L 1000.000 550.000 950.157 550.000 L 900.313 550.000 899.438 457.500 C 898.645 373.741,898.173 363.185,894.449 345.795 C 881.249 284.170,852.813 231.143,809.905 188.138 C 744.917 123.004,657.026 92.034,566.000 102.193 M650.593 206.748 C 689.421 216.793,727.203 240.753,753.488 272.000 C 769.004 290.445,788.139 327.938,794.317 352.000 C 798.417 367.970,798.730 374.485,799.485 459.500 L 800.288 550.000 600.000 550.000 L 399.712 550.000 400.515 459.500 C 401.264 375.192,401.608 367.905,405.551 353.000 C 426.646 273.250,485.640 218.328,566.899 202.787 C 588.364 198.682,626.367 200.481,650.593 206.748 " fill="#1D1E23" stroke="none" fill-rule="evenodd"></path></svg>