<svg width="1200" height="1200" viewBox="0 0 1200 1200" fill="none" xmlns="http://www.w3.org/2000/svg"><path d="M567.000 52.290 C 474.854 64.036,392.776 131.698,363.134 220.352 C 352.198 253.057,351.578 258.539,350.582 331.281 L 349.646 399.561 314.323 400.448 C 283.545 401.220,277.456 401.928,267.000 405.951 C 233.369 418.891,209.122 446.453,202.210 479.598 C 199.099 494.519,199.099 1005.481,202.210 1020.402 C 210.026 1057.883,242.117 1089.974,279.598 1097.790 C 294.557 1100.909,905.443 1100.909,920.402 1097.790 C 957.883 1089.974,989.974 1057.883,997.790 1020.402 C 1000.901 1005.481,1000.901 494.519,997.790 479.598 C 990.878 446.453,966.631 418.891,933.000 405.951 C 922.544 401.928,916.455 401.220,885.677 400.448 L 850.354 399.561 849.486 331.281 C 848.649 265.386,848.433 262.280,843.318 242.407 C 836.744 216.869,826.435 191.615,814.578 172.000 C 762.915 86.535,665.996 39.672,567.000 52.290 M637.000 154.646 C 690.251 169.389,729.090 208.142,745.594 263.000 C 747.904 270.676,748.805 287.757,749.471 336.500 L 750.339 400.000 600.000 400.000 L 449.661 400.000 450.529 336.500 C 451.445 269.518,451.854 266.160,462.062 242.000 C 468.876 225.870,481.903 206.493,494.198 194.198 C 513.031 175.365,542.349 159.076,566.089 154.255 C 572.090 153.036,578.800 151.623,581.000 151.113 C 588.348 149.411,626.873 151.842,637.000 154.646 M633.087 656.186 C 662.422 667.118,682.554 687.194,694.067 717.000 C 697.858 726.814,698.703 732.826,698.703 750.000 C 698.703 767.174,697.858 773.186,694.067 783.000 C 671.920 840.336,611.173 865.454,556.719 839.792 C 534.244 829.201,515.821 808.599,505.933 783.000 C 499.267 765.745,499.281 734.188,505.961 717.000 C 514.502 695.027,526.965 679.033,544.642 667.361 C 554.469 660.873,573.099 653.227,584.000 651.209 C 595.043 649.164,621.419 651.838,633.087 656.186 " fill="#1D1E23" stroke="none" fill-rule="evenodd"></path></svg>