<svg width="1200" height="1200" viewBox="0 0 1200 1200" fill="none" xmlns="http://www.w3.org/2000/svg"><path d="M566.000 102.193 C 451.827 114.935,352.352 195.179,315.918 303.927 C 301.861 345.883,301.304 351.340,300.475 455.249 L 299.724 549.498 278.362 550.393 C 260.567 551.140,254.962 552.207,244.791 556.787 C 229.368 563.732,214.017 579.091,206.597 595.000 L 201.000 607.000 201.000 825.000 L 201.000 1043.000 207.250 1056.000 C 215.223 1072.582,227.542 1084.913,244.000 1092.783 L 257.000 1099.000 600.000 1099.000 L 943.000 1099.000 955.209 1093.357 C 970.653 1086.220,986.057 1070.750,993.403 1055.000 L 999.000 1043.000 999.000 825.000 L 999.000 607.000 993.252 594.555 C 986.173 579.230,970.496 563.837,954.516 556.521 C 945.033 552.180,939.283 551.105,921.666 550.379 L 900.311 549.499 899.436 457.249 C 898.645 373.741,898.172 363.180,894.449 345.795 C 881.249 284.170,852.813 231.143,809.905 188.138 C 744.917 123.004,657.026 92.034,566.000 102.193 M647.913 206.007 C 681.050 214.098,716.459 234.169,741.145 258.855 C 765.596 283.306,785.443 318.147,794.254 352.087 C 798.387 368.009,798.693 374.304,799.482 459.500 L 800.319 550.000 600.015 550.000 L 399.712 550.000 400.515 459.500 C 401.273 374.092,401.567 368.048,405.728 352.087 C 410.888 332.291,423.938 303.799,436.107 285.755 C 465.179 242.652,516.838 210.731,571.628 202.015 C 589.175 199.224,628.575 201.286,647.913 206.007 " fill="#1D1E23" stroke="none" fill-rule="evenodd"></path></svg>