<svg width="1200" height="1200" viewBox="0 0 1200 1200" fill="none" xmlns="http://www.w3.org/2000/svg"><path d="M567.000 52.290 C 531.523 56.812,491.259 72.343,458.814 94.020 C 450.116 99.831,433.955 113.678,422.901 124.792 C 394.176 153.671,375.480 183.633,363.017 220.759 C 352.218 252.929,351.576 258.642,350.580 331.500 L 349.643 400.000 274.821 400.000 L 200.000 400.000 200.000 750.000 L 200.000 1100.000 600.000 1100.000 L 1000.000 1100.000 1000.000 750.000 L 1000.000 400.000 925.000 400.000 L 850.000 400.000 850.000 346.145 C 850.000 316.524,849.041 285.249,847.868 276.645 C 831.824 158.885,742.941 66.415,632.000 52.064 C 614.043 49.741,586.241 49.838,567.000 52.290 M637.000 154.646 C 690.251 169.389,729.090 208.142,745.594 263.000 C 747.904 270.676,748.805 287.757,749.471 336.500 L 750.339 400.000 600.000 400.000 L 449.661 400.000 450.529 336.500 C 451.445 269.518,451.854 266.160,462.062 242.000 C 468.876 225.870,481.903 206.493,494.198 194.198 C 513.031 175.365,542.349 159.076,566.089 154.255 C 572.090 153.036,578.800 151.623,581.000 151.113 C 588.348 149.411,626.873 151.842,637.000 154.646 M633.087 656.186 C 654.621 664.210,670.916 676.862,682.616 694.642 C 709.232 735.088,703.888 786.565,669.520 820.803 C 617.695 872.432,532.910 852.839,505.933 783.000 C 499.267 765.745,499.281 734.188,505.961 717.000 C 514.502 695.027,526.965 679.033,544.642 667.361 C 554.469 660.873,573.099 653.227,584.000 651.209 C 595.043 649.164,621.419 651.838,633.087 656.186 " fill="#1D1E23" stroke="none" fill-rule="evenodd"></path></svg>