<svg width="1200" height="1200" viewBox="0 0 1200 1200" fill="none" xmlns="http://www.w3.org/2000/svg"><path d="M600.000 200.000 L 600.000 250.000 800.000 250.000 L 1000.000 250.000 1000.000 600.000 L 1000.000 950.000 800.000 950.000 L 600.000 950.000 600.000 1000.000 L 600.000 1050.000 850.000 1050.000 L 1100.000 1050.000 1100.000 600.000 L 1100.000 150.000 850.000 150.000 L 600.000 150.000 600.000 200.000 M516.005 384.995 L 481.033 420.010 546.005 485.005 L 610.977 550.000 355.488 550.000 L 100.000 550.000 100.000 600.000 L 100.000 650.000 355.488 650.000 L 610.977 650.000 545.998 715.002 L 481.019 780.004 516.016 815.002 L 551.013 849.999 676.003 724.997 L 800.992 599.996 675.984 474.988 L 550.977 349.981 516.005 384.995 " fill="#1D1E23" stroke="none" fill-rule="evenodd"></path></svg>