<svg width="1200" height="1200" viewBox="0 0 1200 1200" fill="none" xmlns="http://www.w3.org/2000/svg"><path d="M632.171 153.404 C 614.500 159.706,600.000 180.707,600.000 200.000 C 600.000 212.080,605.967 226.072,614.947 235.053 C 630.647 250.753,620.253 250.000,821.356 250.000 L 1000.000 250.000 1000.000 600.000 L 1000.000 950.000 821.356 950.000 C 620.253 950.000,630.647 949.247,614.947 964.947 C 595.384 984.511,595.384 1015.489,614.947 1035.053 C 630.673 1050.778,619.671 1050.000,826.258 1050.000 C 952.530 1050.000,1013.110 1049.310,1020.402 1047.790 C 1057.883 1039.974,1089.974 1007.883,1097.790 970.402 C 1100.915 955.415,1100.915 244.585,1097.790 229.598 C 1090.894 196.531,1067.041 169.355,1033.000 155.784 L 1021.000 151.000 831.000 150.628 C 662.571 150.297,639.998 150.613,632.171 153.404 M539.000 371.775 C 524.946 375.419,512.091 386.025,504.791 400.000 C 499.847 409.465,499.832 430.486,504.763 440.000 C 506.758 443.850,531.471 470.175,559.681 498.500 L 610.971 550.000 376.842 550.000 C 113.638 550.000,130.879 549.016,114.947 564.947 C 95.384 584.511,95.384 615.489,114.947 635.053 C 130.879 650.984,113.638 650.000,376.842 650.000 L 610.971 650.000 559.681 701.500 C 531.471 729.825,506.758 756.150,504.763 760.000 C 499.832 769.514,499.847 790.535,504.791 800.000 C 509.889 809.758,519.558 819.584,529.000 824.601 C 540.367 830.641,559.836 830.475,572.000 824.235 C 578.120 821.095,611.211 789.436,675.400 725.309 C 777.624 623.184,778.753 621.827,778.754 601.000 C 778.755 579.758,781.032 582.506,676.277 477.358 C 622.775 423.655,575.756 378.028,571.790 375.965 C 563.358 371.579,547.549 369.559,539.000 371.775 " fill="#1D1E23" stroke="none" fill-rule="evenodd"></path></svg>