<svg width="1200" height="1200" viewBox="0 0 1200 1200" fill="none" xmlns="http://www.w3.org/2000/svg"><path d="M340.347 152.082 C 303.858 156.666,263.485 170.420,233.530 188.472 C 165.105 229.707,122.154 290.933,104.783 372.000 C 99.594 396.212,99.585 451.485,104.765 479.000 C 125.561 589.458,197.630 692.828,364.000 850.822 C 443.204 926.038,596.648 1066.000,599.905 1066.000 C 601.858 1066.000,739.244 941.471,803.343 881.601 C 997.094 700.632,1073.297 595.526,1095.235 479.000 C 1100.415 451.485,1100.406 396.212,1095.217 372.000 C 1077.846 290.933,1034.895 229.707,966.470 188.472 C 899.618 148.184,811.620 139.255,734.733 164.958 C 691.430 179.434,649.902 204.668,617.594 236.136 L 600.000 253.273 582.406 236.136 C 540.469 195.289,482.134 164.820,427.000 154.965 C 405.148 151.059,360.353 149.569,340.347 152.082 M400.617 252.150 C 442.957 258.481,479.595 276.428,510.918 306.182 C 526.983 321.442,542.759 343.088,549.162 358.655 L 553.000 367.985 600.345 367.993 L 647.690 368.000 649.923 361.232 C 653.982 348.935,675.395 319.055,690.071 305.211 C 739.491 258.591,807.648 240.073,871.276 255.980 C 879.924 258.142,896.450 264.611,908.000 270.356 C 926.545 279.579,931.350 283.150,949.100 300.900 C 966.850 318.650,970.421 323.455,979.644 342.000 C 1015.301 413.690,1003.701 490.806,943.697 580.994 C 894.566 654.840,827.017 725.292,654.468 882.658 L 600.019 932.316 557.514 893.658 C 377.008 729.490,306.160 655.910,255.926 580.438 C 215.578 519.820,197.798 466.504,200.756 415.000 C 202.313 387.881,207.917 367.009,220.356 342.000 C 229.606 323.402,233.099 318.712,250.900 300.990 C 267.246 284.718,274.361 279.241,289.000 271.662 C 325.060 252.993,362.491 246.450,400.617 252.150 " fill="#1D1E23" stroke="none" fill-rule="evenodd"></path></svg>