<svg width="1200" height="1200" viewBox="0 0 1200 1200" fill="none" xmlns="http://www.w3.org/2000/svg"><path d="M340.347 152.082 C 303.858 156.666,263.485 170.420,233.530 188.472 C 165.105 229.707,122.154 290.933,104.783 372.000 C 99.594 396.212,99.585 451.485,104.765 479.000 C 126.658 595.289,203.263 701.009,396.157 881.141 C 460.875 941.578,598.139 1066.000,600.095 1066.000 C 603.389 1066.000,758.030 924.912,836.000 850.769 C 1003.000 691.967,1074.425 589.536,1095.235 479.000 C 1100.415 451.485,1100.406 396.212,1095.217 372.000 C 1077.846 290.933,1034.895 229.707,966.470 188.472 C 899.618 148.184,811.620 139.255,734.733 164.958 C 691.430 179.434,649.902 204.668,617.594 236.136 L 600.000 253.273 582.406 236.136 C 540.469 195.289,482.134 164.820,427.000 154.965 C 405.148 151.059,360.353 149.569,340.347 152.082 " fill="#1D1E23" stroke="none" fill-rule="evenodd"></path></svg>