<svg width="1200" height="1200" viewBox="0 0 1200 1200" fill="none" xmlns="http://www.w3.org/2000/svg"><path d="M348.000 151.251 C 279.989 159.881,224.871 186.279,179.981 231.722 C 148.345 263.749,127.576 297.039,114.215 337.137 C 103.182 370.250,100.990 385.272,101.103 427.000 C 101.188 458.622,101.962 468.525,105.716 486.000 C 129.016 594.481,200.781 695.777,364.831 851.741 C 417.906 902.200,513.075 989.842,532.662 1006.299 C 555.574 1025.549,577.075 1033.048,604.881 1031.489 C 624.534 1030.387,639.331 1025.808,653.287 1016.508 C 662.946 1010.072,772.039 911.028,825.913 859.784 C 1000.784 693.449,1069.552 597.239,1094.512 484.000 C 1100.293 457.769,1100.757 397.223,1095.368 372.000 C 1083.369 315.828,1059.844 272.034,1020.019 231.728 C 980.173 191.401,930.430 165.225,873.703 154.735 C 845.630 149.543,797.308 150.037,770.000 155.795 C 711.367 168.159,659.710 195.396,617.670 236.115 L 600.000 253.230 582.330 236.115 C 539.981 195.097,481.973 164.791,427.000 154.965 C 409.177 151.780,361.501 149.538,348.000 151.251 M400.617 252.150 C 442.957 258.481,479.595 276.428,510.918 306.182 C 526.983 321.442,542.759 343.088,549.162 358.655 L 553.000 367.985 600.304 367.993 L 647.609 368.000 649.831 361.625 C 651.053 358.119,656.189 348.615,661.244 340.504 C 697.433 282.442,768.906 245.959,837.077 250.751 C 863.119 252.581,883.703 258.271,908.000 270.356 C 926.545 279.579,931.350 283.150,949.100 300.900 C 966.850 318.650,970.421 323.455,979.644 342.000 C 1015.237 413.562,1003.708 490.845,944.074 580.438 C 893.841 655.908,822.991 729.492,642.496 893.649 L 600.000 932.298 557.504 893.649 C 377.009 729.492,306.159 655.908,255.926 580.438 C 215.578 519.820,197.798 466.504,200.756 415.000 C 202.313 387.881,207.917 367.009,220.356 342.000 C 229.606 323.402,233.099 318.712,250.900 300.990 C 267.246 284.718,274.361 279.241,289.000 271.662 C 325.060 252.993,362.491 246.450,400.617 252.150 " fill="#1D1E23" stroke="none" fill-rule="evenodd"></path></svg>