<svg width="1200" height="1200" viewBox="0 0 1200 1200" fill="none" xmlns="http://www.w3.org/2000/svg"><path d="M465.319 151.958 C 446.907 155.309,428.935 161.912,413.000 171.178 C 398.955 179.345,385.698 191.748,304.500 272.692 C 223.361 353.576,212.000 365.642,212.000 370.929 C 212.000 376.049,216.887 381.849,244.477 409.478 L 276.955 442.000 205.927 442.000 L 134.900 442.000 120.450 456.547 C 108.976 468.098,106.000 472.327,106.000 477.080 C 106.000 482.298,116.576 493.629,188.556 565.532 C 259.311 636.211,271.941 648.000,276.911 648.000 C 281.448 648.000,285.896 644.814,297.355 633.355 L 312.000 618.710 312.000 547.934 L 312.000 477.158 344.637 509.579 C 371.197 535.963,378.315 542.000,382.867 542.000 C 387.121 542.000,392.133 538.425,403.809 527.063 L 419.158 512.125 463.573 556.573 L 507.988 601.021 344.918 764.010 C 158.620 950.216,168.992 938.014,169.010 970.958 C 169.019 987.028,169.708 990.454,175.312 1002.303 C 183.038 1018.635,193.951 1029.846,210.442 1038.391 C 222.154 1044.460,224.348 1044.899,243.000 1044.909 C 278.139 1044.927,251.394 1068.813,549.254 771.402 L 811.508 509.543 824.955 512.915 C 864.750 522.895,906.814 519.646,941.518 503.911 C 985.061 484.167,1020.585 444.548,1036.043 398.487 C 1041.739 381.515,1042.708 375.587,1043.551 352.554 C 1044.373 330.069,1043.863 323.330,1040.145 307.554 C 1033.941 281.233,1030.656 275.159,1022.187 274.350 C 1015.679 273.729,1012.785 276.297,955.117 333.850 C 908.615 380.261,893.718 394.000,889.902 394.000 C 882.853 394.000,820.000 331.133,820.000 324.083 C 820.000 320.364,834.439 304.721,881.000 258.000 C 914.550 224.334,942.000 195.262,942.000 193.395 C 942.000 180.232,899.842 168.485,860.148 170.587 C 821.206 172.650,789.765 184.837,758.387 210.031 C 733.354 230.132,711.123 264.227,701.594 297.136 C 697.622 310.850,697.016 317.336,697.117 345.000 C 697.214 371.747,697.908 379.018,701.342 389.291 L 705.450 401.581 659.209 447.791 L 612.968 494.001 568.467 449.467 L 523.966 404.934 538.983 390.017 C 549.549 379.522,554.000 373.644,554.000 370.187 C 554.000 366.514,545.815 357.034,521.566 332.624 L 489.131 299.973 539.566 249.396 C 591.893 196.921,594.033 194.033,586.308 186.308 C 574.834 174.834,548.276 160.890,526.928 155.130 C 512.582 151.260,478.730 149.517,465.319 151.958 M737.484 725.515 C 700.808 762.216,690.000 774.170,690.000 778.037 C 690.000 781.993,716.518 809.535,816.500 909.418 C 919.771 1012.587,944.836 1036.626,953.000 1040.331 C 961.317 1044.105,966.534 1044.879,984.000 1044.934 C 1003.308 1044.995,1005.929 1044.529,1016.531 1039.160 C 1030.005 1032.337,1046.625 1015.617,1051.990 1003.489 C 1057.364 991.340,1059.893 972.910,1057.901 960.413 C 1053.796 934.660,1056.040 937.256,921.396 802.496 C 811.949 692.954,796.277 677.993,790.984 677.996 C 785.800 677.999,778.406 684.567,737.484 725.515 " fill="#1D1E23" stroke="none" fill-rule="evenodd"></path></svg>