<svg width="1200" height="1200" viewBox="0 0 1200 1200" fill="none" xmlns="http://www.w3.org/2000/svg"><path d="M901.000 196.440 C 819.600 228.077,751.681 253.971,750.069 253.981 C 748.456 253.992,680.314 230.616,598.640 202.034 L 450.143 150.069 300.072 200.521 L 150.000 250.973 150.000 655.487 C 150.000 877.969,150.675 1059.992,151.500 1059.982 C 152.325 1059.973,219.837 1033.985,301.526 1002.231 L 450.052 944.498 600.069 997.024 L 750.085 1049.550 898.543 999.559 C 980.194 972.064,1047.677 948.943,1048.505 948.179 C 1049.333 947.415,1049.783 765.019,1049.505 542.854 L 1049.000 138.917 901.000 196.440 M602.498 309.190 L 749.996 361.000 749.998 652.714 C 750.000 885.229,749.493 944.247,747.500 943.535 C 746.125 943.045,678.625 919.323,597.501 890.821 L 450.002 839.000 450.001 547.286 C 450.000 314.766,450.507 255.756,452.500 256.476 C 453.875 256.974,521.374 280.695,602.498 309.190 " fill="#1D1E23" stroke="none" fill-rule="evenodd"></path></svg>