<svg width="1200" height="1200" viewBox="0 0 1200 1200" fill="none" xmlns="http://www.w3.org/2000/svg"><path d="M429.000 158.109 C 410.954 161.876,211.100 230.221,200.658 236.196 C 185.762 244.718,170.429 260.425,162.562 275.219 C 149.229 300.294,150.000 279.233,150.000 618.322 C 150.000 835.075,150.652 928.930,152.210 936.402 C 162.073 983.697,210.209 1019.790,257.233 1015.150 C 272.537 1013.640,280.782 1010.780,367.000 977.066 C 409.614 960.403,440.912 949.280,447.000 948.635 C 456.185 947.661,467.596 951.284,587.000 993.081 C 658.500 1018.109,721.950 1039.904,728.000 1041.515 C 735.474 1043.505,744.449 1044.117,756.000 1043.425 C 771.471 1042.498,782.863 1039.069,882.657 1005.301 C 942.969 984.893,996.075 965.992,1000.671 963.299 C 1011.328 957.053,1028.998 939.421,1035.192 928.854 C 1037.826 924.358,1042.011 915.352,1044.491 908.840 L 1049.000 897.000 1049.566 589.000 C 1049.976 366.129,1049.505 277.230,1047.862 267.360 C 1040.989 226.075,1005.179 191.303,964.238 186.162 C 938.015 182.870,929.821 185.101,843.000 219.174 C 770.209 247.741,761.829 250.588,750.000 250.768 C 737.942 250.952,727.636 247.676,607.744 205.548 C 536.653 180.568,474.553 159.223,469.744 158.114 C 459.477 155.747,440.324 155.744,429.000 158.109 M602.498 309.190 L 749.996 361.000 749.998 652.714 C 750.000 885.229,749.493 944.247,747.500 943.535 C 746.125 943.045,678.625 919.323,597.501 890.821 L 450.002 839.000 450.001 547.286 C 450.000 314.766,450.507 255.756,452.500 256.476 C 453.875 256.974,521.374 280.695,602.498 309.190 " fill="#1D1E23" stroke="none" fill-rule="evenodd"></path></svg>