<svg width="1200" height="1200" viewBox="0 0 1200 1200" fill="none" xmlns="http://www.w3.org/2000/svg"><path d="M100.000 319.276 L 100.000 538.552 112.660 537.255 C 145.802 533.860,173.241 521.539,198.227 498.835 C 223.872 475.532,229.781 471.012,246.000 462.302 C 293.244 436.929,351.564 438.406,398.612 466.167 C 415.847 476.337,442.279 502.360,451.709 518.442 C 467.132 544.746,473.911 569.770,473.965 600.605 C 474.012 626.876,469.745 644.840,457.483 670.000 C 448.406 688.625,445.086 693.149,428.124 710.000 C 406.480 731.503,388.151 742.524,361.000 750.359 C 338.085 756.973,297.723 756.906,276.000 750.219 C 251.375 742.639,232.679 731.648,209.209 710.955 C 183.566 688.346,175.526 682.750,157.000 674.621 C 142.837 668.407,129.623 665.174,110.500 663.247 L 100.000 662.188 100.000 881.094 L 100.000 1100.000 319.258 1100.000 L 538.517 1100.000 537.111 1085.734 C 533.763 1051.754,521.759 1027.266,492.222 994.158 C 468.359 967.411,456.951 948.345,449.646 923.000 C 443.678 902.295,443.243 862.222,448.768 842.116 C 460.960 797.746,490.866 761.295,530.934 741.968 C 558.525 728.659,575.718 725.205,607.750 726.536 C 626.303 727.307,636.448 728.751,646.000 731.980 C 697.918 749.531,735.904 788.606,750.409 839.381 C 756.223 859.732,756.666 900.063,751.296 920.000 C 744.475 945.324,731.859 967.056,709.008 992.849 C 685.927 1018.901,678.322 1030.656,671.010 1051.586 C 666.385 1064.823,662.047 1086.002,662.015 1095.500 L 662.000 1100.000 881.000 1100.000 L 1100.000 1100.000 1100.000 880.901 L 1100.000 661.801 1087.500 663.068 C 1050.387 666.829,1027.818 677.654,993.825 707.995 C 956.931 740.926,930.300 752.950,888.918 755.361 C 814.213 759.715,748.605 710.517,729.765 636.015 C 724.098 613.603,725.160 574.105,731.971 554.000 C 741.121 526.987,751.560 510.262,771.914 490.000 C 793.530 468.481,811.857 457.461,839.000 449.659 C 861.866 443.087,900.134 443.087,923.000 449.659 C 946.623 456.449,967.720 468.586,988.681 487.444 C 1012.470 508.846,1027.833 519.547,1044.533 526.348 C 1057.516 531.634,1085.207 538.000,1095.221 538.000 L 1100.000 538.000 1100.000 319.000 L 1100.000 100.000 880.742 100.000 L 661.483 100.000 662.889 114.266 C 665.984 145.681,678.754 173.569,701.505 198.604 C 724.437 223.836,729.013 229.829,737.698 246.000 C 757.768 283.369,761.260 329.770,747.073 370.565 C 739.512 392.307,727.083 411.327,708.198 430.054 C 689.375 448.718,670.379 460.115,645.277 467.804 C 561.743 493.391,473.684 445.154,449.604 360.619 C 443.150 337.960,443.169 299.471,449.646 277.000 C 456.775 252.267,468.443 232.513,490.965 207.046 C 513.834 181.186,521.842 168.874,528.863 148.778 C 533.596 135.231,537.953 114.084,537.985 104.500 L 538.000 100.000 319.000 100.000 L 100.000 100.000 100.000 319.276 " fill="#1D1E23" stroke="none" fill-rule="evenodd"></path></svg>