<svg width="1200" height="1200" viewBox="0 0 1200 1200" fill="none" xmlns="http://www.w3.org/2000/svg"><path d="M398.262 103.082 C 372.755 108.617,343.611 126.542,327.819 146.408 C 316.784 160.290,306.699 181.703,303.023 199.057 C 298.596 219.955,298.573 979.850,302.999 1001.000 C 310.545 1037.065,335.657 1069.748,368.116 1085.749 C 397.538 1100.253,392.622 1099.926,582.180 1099.965 C 744.076 1099.999,752.024 1099.830,766.781 1096.056 C 812.623 1084.332,848.415 1048.558,858.886 1004.000 C 861.571 992.574,861.941 943.667,861.941 600.000 C 861.941 166.020,862.921 197.449,848.471 168.000 C 833.217 136.912,798.350 110.395,763.000 102.999 C 742.919 98.797,417.666 98.871,398.262 103.082 M653.222 166.683 C 657.112 170.030,658.667 173.260,658.667 178.000 C 658.667 182.740,657.112 185.970,653.222 189.317 L 647.777 194.000 581.158 194.000 C 516.790 194.000,514.361 193.860,509.270 189.855 C 500.818 183.207,502.799 167.975,512.631 164.014 C 515.034 163.046,546.425 162.196,582.388 162.127 L 647.777 162.000 653.222 166.683 M831.505 600.500 L 831.000 975.000 581.500 975.508 L 332.000 976.016 332.000 601.008 L 332.000 226.000 582.005 226.000 L 832.010 226.000 831.505 600.500 M554.242 368.125 C 522.665 373.750,494.603 388.963,469.780 413.913 C 455.585 428.181,450.927 434.539,443.260 450.111 C 428.733 479.618,425.851 493.843,424.546 542.500 L 423.433 584.000 408.647 584.000 L 393.862 584.000 394.431 686.500 L 395.000 789.000 400.389 799.215 C 403.354 804.834,410.492 813.668,416.252 818.847 L 426.726 828.264 474.221 780.632 L 521.715 733.000 520.330 721.000 C 518.133 701.964,520.987 684.914,529.138 668.370 C 545.130 635.914,577.079 615.953,612.920 616.024 C 624.118 616.046,644.848 620.181,647.611 622.944 C 648.269 623.602,636.024 636.948,620.399 652.600 C 590.983 682.069,587.264 687.794,590.261 699.000 C 592.303 706.638,615.257 729.507,623.070 731.688 C 634.294 734.821,639.939 731.177,668.973 702.057 C 684.358 686.625,697.545 674.000,698.278 674.000 C 700.863 674.000,704.187 687.182,705.338 702.000 C 707.504 729.881,698.130 755.783,678.921 774.992 C 658.731 795.182,625.418 806.791,600.447 802.338 L 589.000 800.297 572.014 817.148 L 555.029 834.000 636.439 834.000 C 713.061 834.000,718.481 833.764,728.584 829.984 C 750.354 821.839,764.131 803.960,767.973 778.867 C 769.302 770.188,769.892 731.327,769.548 675.000 L 769.000 585.000 753.695 584.419 L 738.389 583.839 737.525 540.419 C 736.726 500.276,736.250 495.642,731.215 479.000 C 715.345 426.549,675.332 386.604,624.000 371.969 C 606.765 367.056,571.237 365.098,554.242 368.125 M598.218 430.041 C 622.443 434.636,649.560 453.299,661.424 473.544 C 671.997 491.584,674.000 502.995,674.000 545.178 L 674.000 584.000 581.000 584.000 L 488.000 584.000 488.024 546.500 C 488.040 521.208,488.937 505.659,490.780 498.737 C 503.468 451.088,550.529 420.997,598.218 430.041 M451.091 1010.909 C 457.050 1016.869,457.499 1025.705,452.177 1032.278 C 448.554 1036.753,447.130 1037.000,425.000 1037.000 C 402.870 1037.000,401.446 1036.753,397.823 1032.278 C 392.501 1025.705,392.950 1016.869,398.909 1010.909 C 403.503 1006.315,405.177 1006.000,425.000 1006.000 C 444.823 1006.000,446.497 1006.315,451.091 1010.909 M607.091 1010.909 C 613.050 1016.868,613.499 1025.705,608.178 1032.278 C 604.761 1036.500,602.425 1037.074,586.116 1037.701 C 564.823 1038.520,559.572 1037.521,554.055 1031.599 C 547.229 1024.272,549.684 1011.619,558.631 1008.014 C 561.034 1007.046,571.816 1006.196,582.591 1006.127 C 600.810 1006.009,602.526 1006.344,607.091 1010.909 M763.091 1010.909 C 769.050 1016.868,769.499 1025.704,764.179 1032.278 C 760.728 1036.542,758.489 1037.068,741.068 1037.697 C 718.796 1038.501,711.443 1036.312,707.929 1027.828 C 704.945 1020.625,708.077 1011.552,714.642 1008.377 C 717.039 1007.219,727.816 1006.210,738.591 1006.135 C 756.816 1006.009,758.524 1006.342,763.091 1010.909 " fill="#1D1E23" stroke="none" fill-rule="evenodd"></path></svg>