<svg width="1200" height="1200" viewBox="0 0 1200 1200" fill="none" xmlns="http://www.w3.org/2000/svg"><path d="M183.181 103.147 C 171.791 107.320,162.844 114.851,156.545 125.568 L 151.000 135.000 150.456 301.467 C 149.925 463.510,150.022 468.479,154.085 488.418 C 170.988 571.363,238.505 635.319,321.046 646.574 L 338.000 648.886 338.000 849.087 C 338.000 1074.492,337.007 1059.789,353.469 1078.099 C 358.474 1083.666,367.166 1090.634,372.785 1093.583 C 381.537 1098.176,385.435 1098.944,400.000 1098.944 C 414.565 1098.944,418.463 1098.176,427.215 1093.583 C 432.834 1090.634,441.526 1083.666,446.531 1078.099 C 462.993 1059.789,462.000 1074.492,462.000 849.087 L 462.000 648.886 478.954 646.574 C 561.397 635.332,629.014 571.353,645.870 488.636 C 649.843 469.140,650.000 462.200,650.000 305.542 C 650.000 122.061,650.669 130.563,635.007 114.902 C 619.488 99.382,596.581 96.014,576.574 106.310 C 565.751 111.880,555.148 124.543,552.091 135.551 C 550.749 140.383,550.018 196.927,550.011 296.500 L 550.000 450.000 500.000 450.000 L 450.000 450.000 450.000 296.356 C 450.000 123.148,450.608 130.502,435.007 114.902 C 419.488 99.382,396.581 96.014,376.574 106.310 C 365.751 111.880,355.148 124.543,352.091 135.551 C 350.749 140.383,350.018 196.927,350.011 296.500 L 350.000 450.000 300.000 450.000 L 250.000 450.000 250.000 296.356 C 250.000 123.211,250.600 130.495,235.053 114.947 C 221.434 101.329,200.896 96.656,183.181 103.147 M1026.000 101.279 C 1023.250 101.682,1014.250 102.995,1006.000 104.196 C 971.591 109.203,925.594 128.497,893.411 151.422 C 859.721 175.420,826.718 213.818,812.834 245.167 C 809.952 251.675,805.885 263.669,803.797 271.820 C 800.190 285.897,800.000 296.793,800.000 489.320 C 800.000 689.333,800.053 692.053,804.000 696.000 C 807.816 699.816,810.667 700.000,865.937 700.000 L 923.875 700.000 924.437 875.500 L 925.000 1051.000 930.296 1062.296 C 944.707 1093.033,978.388 1107.422,1008.938 1095.891 C 1024.928 1089.855,1039.822 1075.054,1045.692 1059.363 L 1050.000 1047.850 1050.000 577.925 C 1050.000 110.667,1049.977 107.977,1046.000 104.000 C 1042.189 100.189,1037.640 99.570,1026.000 101.279 " fill="#1D1E23" stroke="none" fill-rule="evenodd"></path></svg>