<svg width="1200" height="1200" viewBox="0 0 1200 1200" fill="none" xmlns="http://www.w3.org/2000/svg"><path d="M450.000 200.000 L 450.000 250.000 350.000 250.000 L 250.000 250.000 250.000 350.000 L 250.000 450.000 200.000 450.000 L 150.000 450.000 150.000 500.000 L 150.000 550.000 200.000 550.000 L 250.000 550.000 250.000 600.000 L 250.000 650.000 200.000 650.000 L 150.000 650.000 150.000 700.000 L 150.000 750.000 200.000 750.000 L 250.000 750.000 250.000 850.000 L 250.000 950.000 350.000 950.000 L 450.000 950.000 450.000 1000.000 L 450.000 1050.000 500.000 1050.000 L 550.000 1050.000 550.000 1000.000 L 550.000 950.000 600.000 950.000 L 650.000 950.000 650.000 1000.000 L 650.000 1050.000 700.000 1050.000 L 750.000 1050.000 750.000 1000.000 L 750.000 950.000 850.000 950.000 L 950.000 950.000 950.000 850.000 L 950.000 750.000 1000.000 750.000 L 1050.000 750.000 1050.000 700.000 L 1050.000 650.000 1000.000 650.000 L 950.000 650.000 950.000 600.000 L 950.000 550.000 1000.000 550.000 L 1050.000 550.000 1050.000 500.000 L 1050.000 450.000 1000.000 450.000 L 950.000 450.000 950.000 350.000 L 950.000 250.000 850.000 250.000 L 750.000 250.000 750.000 200.000 L 750.000 150.000 700.000 150.000 L 650.000 150.000 650.000 200.000 L 650.000 250.000 600.000 250.000 L 550.000 250.000 550.000 200.000 L 550.000 150.000 500.000 150.000 L 450.000 150.000 450.000 200.000 M850.000 600.000 L 850.000 850.000 600.000 850.000 L 350.000 850.000 350.000 600.000 L 350.000 350.000 600.000 350.000 L 850.000 350.000 850.000 600.000 M450.000 600.000 L 450.000 750.000 600.000 750.000 L 750.000 750.000 750.000 600.000 L 750.000 450.000 600.000 450.000 L 450.000 450.000 450.000 600.000 M650.000 600.000 L 650.000 650.000 600.000 650.000 L 550.000 650.000 550.000 600.000 L 550.000 550.000 600.000 550.000 L 650.000 550.000 650.000 600.000 " fill="#1D1E23" stroke="none" fill-rule="evenodd"></path></svg>