<svg width="1200" height="1200" viewBox="0 0 1200 1200" fill="none" xmlns="http://www.w3.org/2000/svg"><path d="M100.000 600.493 L 100.000 1100.985 200.507 1000.493 L 301.015 900.000 700.507 900.000 L 1100.000 900.000 1100.000 500.000 L 1100.000 100.000 600.000 100.000 L 100.000 100.000 100.000 600.493 M900.000 350.000 L 900.000 400.000 600.000 400.000 L 300.000 400.000 300.000 350.000 L 300.000 300.000 600.000 300.000 L 900.000 300.000 900.000 350.000 M900.000 500.000 L 900.000 550.000 600.000 550.000 L 300.000 550.000 300.000 500.000 L 300.000 450.000 600.000 450.000 L 900.000 450.000 900.000 500.000 M700.000 650.000 L 700.000 700.000 500.000 700.000 L 300.000 700.000 300.000 650.000 L 300.000 600.000 500.000 600.000 L 700.000 600.000 700.000 650.000 " fill="#1D1E23" stroke="none" fill-rule="evenodd"></path></svg>