<svg width="1200" height="1200" viewBox="0 0 1200 1200" fill="none" xmlns="http://www.w3.org/2000/svg"><path d="M180.113 102.167 C 153.459 107.435,124.394 129.448,112.203 153.598 C 99.240 179.277,100.062 146.032,100.030 645.993 L 100.000 1100.985 200.507 1000.493 L 301.015 900.000 655.409 900.000 C 906.411 900.000,1012.895 899.355,1020.402 897.790 C 1057.883 889.974,1089.974 857.883,1097.790 820.402 C 1100.909 805.443,1100.909 194.557,1097.790 179.598 C 1090.894 146.531,1067.041 119.355,1033.000 105.784 L 1021.000 101.000 605.000 100.705 C 372.779 100.541,185.074 101.186,180.113 102.167 M873.035 306.109 C 908.087 324.148,908.087 375.852,873.035 393.891 L 863.108 399.000 603.137 399.522 C 310.686 400.110,331.023 401.128,314.993 385.098 C 295.365 365.471,295.361 334.533,314.983 314.911 C 330.683 299.212,309.776 300.251,602.054 300.646 L 863.108 301.000 873.035 306.109 M873.035 456.109 C 908.087 474.148,908.087 525.852,873.035 543.891 L 863.108 549.000 603.137 549.522 C 310.686 550.110,331.023 551.128,314.993 535.098 C 295.365 515.471,295.361 484.533,314.983 464.911 C 330.683 449.212,309.776 450.251,602.054 450.646 L 863.108 451.000 873.035 456.109 M673.036 606.109 C 708.086 624.149,708.086 675.851,673.036 693.891 L 663.110 699.000 503.177 699.535 C 322.618 700.140,330.651 700.756,314.993 685.098 C 295.365 665.471,295.361 634.533,314.983 614.911 C 330.348 599.547,321.316 600.236,502.055 600.640 L 663.109 601.000 673.036 606.109 " fill="#1D1E23" stroke="none" fill-rule="evenodd"></path></svg>