<svg width="1200" height="1200" viewBox="0 0 1200 1200" fill="none" xmlns="http://www.w3.org/2000/svg"><path d="M575.527 101.928 C 560.671 104.645,546.345 109.808,529.000 118.695 C 509.476 128.699,482.804 154.315,471.418 174.000 C 463.823 187.129,455.534 210.288,453.165 225.000 L 451.876 233.000 600.938 381.995 L 750.000 530.990 750.000 383.411 C 750.000 222.357,749.914 220.946,738.317 192.451 C 721.278 150.579,682.958 117.370,637.000 104.646 C 624.593 101.210,588.238 99.603,575.527 101.928 M184.486 178.513 L 150.016 213.026 300.008 363.008 L 450.000 512.990 450.000 538.579 C 450.000 590.056,462.973 624.333,494.320 655.680 C 516.256 677.616,540.408 690.618,570.933 696.923 C 587.974 700.443,610.905 700.846,623.885 697.854 L 632.771 695.807 673.390 736.390 C 695.731 758.710,713.739 777.783,713.409 778.774 C 712.464 781.609,684.954 791.548,663.000 796.986 C 571.008 819.772,471.580 791.282,405.295 723.144 C 363.447 680.127,336.000 616.592,336.000 562.738 L 336.000 550.000 292.699 550.000 L 249.399 550.000 250.708 569.971 C 260.125 713.682,367.621 840.098,512.453 877.789 C 524.854 881.016,538.375 884.225,542.500 884.919 L 550.000 886.181 550.000 968.091 L 550.000 1050.000 600.000 1050.000 L 650.000 1050.000 650.000 968.091 L 650.000 886.181 657.500 884.905 C 689.333 879.491,725.736 867.367,757.652 851.553 L 778.305 841.319 883.145 946.145 L 987.986 1050.971 1023.003 1015.997 L 1058.020 981.023 639.512 562.512 C 409.332 332.330,220.543 144.000,219.980 144.000 C 219.418 144.000,203.445 159.531,184.486 178.513 M864.000 562.738 C 864.000 576.781,859.541 605.049,854.689 621.759 L 851.566 632.518 882.259 663.259 C 899.140 680.167,913.649 694.000,914.501 694.000 C 916.723 694.000,925.251 674.237,933.056 651.000 C 941.702 625.260,947.588 595.974,949.268 570.347 L 950.601 550.000 907.301 550.000 L 864.000 550.000 864.000 562.738 " fill="#1D1E23" stroke="none" fill-rule="evenodd"></path></svg>