<svg width="1200" height="1200" viewBox="0 0 1200 1200" fill="none" xmlns="http://www.w3.org/2000/svg"><path d="M575.527 101.928 C 560.671 104.645,546.345 109.808,529.000 118.695 C 509.476 128.699,482.804 154.315,471.418 174.000 C 463.823 187.129,455.534 210.288,453.165 225.000 L 451.876 233.000 600.938 381.995 L 750.000 530.990 750.000 383.411 C 750.000 222.357,749.914 220.946,738.317 192.451 C 721.278 150.579,682.958 117.370,637.000 104.646 C 624.593 101.210,588.238 99.603,575.527 101.928 M198.337 169.207 C 176.142 180.267,165.758 206.446,173.827 231.000 C 175.972 237.528,201.593 264.216,313.028 376.000 L 449.600 513.000 450.582 539.000 C 451.728 569.327,457.327 591.415,470.076 615.901 C 499.811 673.012,563.009 707.711,620.000 698.218 L 633.000 696.053 673.505 736.513 C 695.782 758.766,713.739 777.783,713.409 778.774 C 712.464 781.609,684.954 791.548,663.000 796.986 C 598.807 812.886,534.915 804.965,473.249 773.462 C 402.366 737.249,354.776 673.451,338.892 593.344 C 334.965 573.542,330.599 565.704,318.970 557.581 C 303.633 546.868,282.243 548.370,268.092 561.155 C 249.454 577.994,249.060 597.331,266.283 650.000 C 298.139 747.419,377.521 828.811,477.831 866.903 C 494.416 873.202,527.048 882.287,542.500 884.909 L 550.000 886.181 550.000 946.734 C 550.000 1016.132,550.809 1020.915,564.947 1035.053 C 584.511 1054.616,615.489 1054.616,635.053 1035.053 C 649.191 1020.915,650.000 1016.132,650.000 946.734 L 650.000 886.181 657.500 884.905 C 689.333 879.491,725.736 867.367,757.652 851.553 L 778.303 841.320 868.652 931.578 C 964.420 1027.251,967.532 1029.865,985.768 1029.956 C 1000.305 1030.029,1010.169 1025.892,1021.328 1015.042 C 1038.125 998.710,1041.831 976.544,1031.131 956.400 C 1029.554 953.430,852.029 774.896,636.631 559.659 C 295.330 218.610,243.972 168.041,237.000 166.170 C 223.142 162.450,209.792 163.499,198.337 169.207 M890.466 552.246 C 880.762 555.047,866.779 569.416,864.431 579.000 C 863.354 583.400,860.097 597.320,857.194 609.934 L 851.915 632.868 882.433 663.434 C 899.218 680.245,913.649 694.000,914.501 694.000 C 919.039 694.000,940.323 633.729,944.681 608.535 C 948.624 585.747,946.476 576.536,934.290 563.975 C 921.766 551.066,907.649 547.288,890.466 552.246 " fill="#1D1E23" stroke="none" fill-rule="evenodd"></path></svg>