<svg width="1200" height="1200" viewBox="0 0 1200 1200" fill="none" xmlns="http://www.w3.org/2000/svg"><path d="M198.262 103.082 C 172.755 108.617,143.611 126.542,127.819 146.408 C 116.784 160.290,106.699 181.703,103.023 199.057 C 98.596 219.955,98.573 979.850,102.999 1001.000 C 110.544 1037.063,135.655 1069.745,168.116 1085.751 C 198.040 1100.506,192.776 1100.175,387.626 1099.553 L 561.000 1099.000 577.000 1093.374 C 597.751 1086.077,615.319 1074.540,629.887 1058.640 C 640.871 1046.653,654.115 1023.743,657.061 1011.635 L 658.366 1006.269 611.683 1005.635 L 565.000 1005.000 552.000 998.805 C 544.850 995.398,535.174 988.873,530.498 984.305 L 521.995 976.000 326.998 976.000 L 132.000 976.000 132.000 601.000 L 132.000 226.000 382.000 226.000 L 632.000 226.000 632.000 248.255 L 632.000 270.509 640.500 262.680 C 645.175 258.373,651.925 252.690,655.500 250.049 L 662.000 245.248 661.970 227.124 C 661.954 217.156,660.566 203.150,658.886 196.000 C 648.176 150.424,609.259 112.678,563.000 102.999 C 542.919 98.797,217.666 98.871,198.262 103.082 M453.222 166.683 C 460.693 173.110,460.693 182.890,453.222 189.317 L 447.777 194.000 381.158 194.000 C 316.790 194.000,314.361 193.860,309.270 189.855 C 300.818 183.207,302.799 167.975,312.631 164.014 C 315.034 163.046,346.425 162.196,382.388 162.127 L 447.777 162.000 453.222 166.683 M775.903 228.982 C 758.983 232.172,730.125 241.881,715.000 249.473 C 658.038 278.065,613.833 329.854,595.059 389.992 C 585.877 419.405,584.025 439.105,584.012 507.500 L 584.000 570.000 561.000 570.000 L 538.000 570.000 538.000 754.064 C 538.000 957.101,537.308 945.807,550.601 959.675 C 554.121 963.347,560.600 968.297,565.000 970.675 L 573.000 975.000 813.853 975.539 C 1087.577 976.152,1069.729 977.151,1086.038 960.307 C 1091.262 954.911,1096.114 947.505,1097.538 942.754 C 1099.409 936.508,1100.000 890.808,1100.000 752.268 L 1100.000 570.000 1077.211 570.000 L 1054.422 570.000 1053.452 500.500 C 1052.618 440.744,1051.921 428.476,1048.484 413.000 C 1028.456 322.810,964.559 255.911,876.101 232.515 C 860.192 228.307,851.486 227.352,824.000 226.800 C 801.288 226.343,786.293 227.024,775.903 228.982 M492.549 260.106 C 487.808 262.498,482.101 267.581,479.549 271.685 C 475.392 278.369,474.938 281.844,474.285 311.961 C 473.426 351.539,475.365 362.662,484.701 371.710 C 493.846 380.574,500.753 382.000,534.530 382.000 C 563.294 382.000,564.136 381.879,565.954 377.500 C 566.981 375.025,570.584 366.174,573.960 357.831 C 577.336 349.487,584.576 334.852,590.049 325.307 C 599.192 309.362,600.000 306.893,600.000 294.912 C 600.000 278.623,596.536 270.139,586.874 262.764 L 579.323 257.000 540.161 256.422 C 503.534 255.881,500.453 256.119,492.549 260.106 M855.026 324.007 C 903.399 336.379,943.861 378.126,955.325 427.493 C 958.383 440.663,958.931 452.493,958.963 506.000 L 959.000 569.000 818.338 569.514 L 677.676 570.027 678.532 502.514 C 679.477 427.962,680.034 423.961,693.159 397.403 C 711.030 361.242,744.174 334.070,782.745 323.957 C 802.715 318.722,834.448 318.744,855.026 324.007 M181.000 446.764 C 172.894 450.447,166.312 457.938,163.952 466.167 C 161.304 475.402,161.448 540.283,164.133 547.370 C 166.809 554.431,173.226 561.401,181.000 565.690 C 185.991 568.443,193.391 569.000,225.000 569.000 C 266.874 569.000,270.458 568.164,280.682 556.013 C 287.734 547.632,288.433 542.067,287.666 500.441 C 286.938 460.932,286.381 458.949,273.236 449.124 C 268.148 445.320,264.585 444.963,227.360 444.519 C 196.711 444.153,185.556 444.694,181.000 446.764 M335.000 635.721 C 320.054 644.953,318.000 652.101,318.000 694.875 C 318.000 726.479,318.351 729.839,322.500 737.959 C 331.012 754.618,332.324 755.000,381.000 755.000 C 421.014 755.000,424.055 754.740,429.230 750.876 C 442.535 740.943,442.941 739.414,443.620 696.739 C 444.193 660.742,443.925 657.107,440.120 649.248 C 437.452 643.737,433.259 639.196,428.228 636.368 C 420.960 632.284,417.873 632.000,380.728 632.007 C 345.550 632.014,340.313 632.439,335.000 635.721 M848.779 666.893 C 854.744 684.051,855.411 685.028,865.000 690.661 L 875.000 696.535 892.173 693.267 C 901.617 691.470,910.803 690.000,912.584 690.000 C 915.458 690.000,918.958 695.217,935.608 724.322 C 938.604 729.560,938.440 729.879,925.348 744.322 L 912.044 759.000 912.022 771.339 C 912.001 783.240,912.337 784.056,921.500 794.349 C 940.620 815.827,939.946 810.963,926.978 833.866 C 920.708 844.940,914.956 854.000,914.195 854.000 C 913.435 854.000,904.634 852.215,894.638 850.033 L 876.463 846.066 865.512 852.533 C 854.709 858.913,854.483 859.241,848.655 877.000 L 842.748 895.000 818.769 895.558 L 794.790 896.117 788.947 877.833 C 783.262 860.044,782.819 859.367,772.576 852.815 L 762.048 846.081 742.804 850.040 C 732.220 852.218,723.294 854.000,722.970 854.000 C 721.911 854.000,700.000 815.825,700.000 813.981 C 700.000 812.994,705.843 805.620,712.984 797.593 C 725.797 783.194,725.969 782.846,725.984 771.358 C 726.000 759.891,725.813 759.508,713.500 745.774 C 706.625 738.106,700.703 730.978,700.339 729.934 C 699.584 727.763,719.227 692.714,722.244 690.849 C 723.338 690.173,732.600 691.196,742.827 693.122 L 761.421 696.625 772.308 690.396 C 783.130 684.204,783.228 684.062,788.992 666.025 L 794.790 647.883 818.674 648.442 L 842.558 649.000 848.779 666.893 M799.000 729.800 C 770.559 742.996,763.355 779.072,784.389 802.967 C 794.508 814.463,805.717 818.739,822.872 817.646 C 838.880 816.627,849.898 809.741,858.953 795.095 C 864.112 786.750,864.989 783.382,864.926 772.157 C 864.813 751.968,854.542 736.231,836.564 728.697 C 827.314 724.821,808.543 725.372,799.000 729.800 M176.620 824.154 C 164.191 832.116,161.994 840.701,162.044 881.131 C 162.094 921.722,164.024 929.466,176.267 938.198 C 182.861 942.901,183.864 943.000,225.000 943.000 C 266.136 943.000,267.139 942.901,273.733 938.198 C 285.976 929.466,287.906 921.722,287.956 881.131 C 287.996 848.887,287.581 844.398,283.858 836.707 C 276.263 821.017,272.640 819.995,224.764 820.034 C 186.152 820.065,182.518 820.376,176.620 824.154 M332.608 824.500 C 319.731 833.646,319.000 836.683,319.000 881.000 C 319.000 927.340,320.204 931.478,336.046 939.579 C 344.616 943.961,346.688 944.133,384.360 943.579 C 420.487 943.048,424.173 942.661,429.236 938.876 C 442.528 928.941,442.942 927.390,443.618 884.916 C 444.179 849.714,443.867 845.276,440.254 837.109 C 433.138 821.021,429.655 820.016,380.972 820.007 C 340.591 820.000,338.695 820.176,332.608 824.500 M486.120 827.129 C 475.257 836.943,473.385 846.577,474.285 888.039 C 474.940 918.215,475.387 921.622,479.575 928.358 C 484.112 935.654,497.606 944.000,504.865 944.000 C 507.624 944.000,508.184 942.947,507.261 939.500 C 506.597 937.025,506.042 909.125,506.027 877.500 L 506.000 820.000 500.006 820.000 C 495.944 820.000,491.468 822.298,486.120 827.129 M251.091 1010.909 C 257.050 1016.869,257.499 1025.705,252.177 1032.278 C 248.554 1036.753,247.130 1037.000,225.000 1037.000 C 202.870 1037.000,201.446 1036.753,197.823 1032.278 C 192.501 1025.705,192.950 1016.869,198.909 1010.909 C 203.503 1006.315,205.177 1006.000,225.000 1006.000 C 244.823 1006.000,246.497 1006.315,251.091 1010.909 M407.091 1010.909 C 413.050 1016.868,413.499 1025.705,408.178 1032.278 C 404.761 1036.500,402.425 1037.074,386.116 1037.701 C 364.823 1038.520,359.572 1037.521,354.055 1031.599 C 347.229 1024.272,349.684 1011.619,358.631 1008.014 C 361.034 1007.046,371.816 1006.196,382.591 1006.127 C 400.810 1006.009,402.526 1006.344,407.091 1010.909 M563.091 1010.909 C 569.050 1016.868,569.499 1025.704,564.179 1032.278 C 560.728 1036.542,558.489 1037.068,541.068 1037.697 C 518.796 1038.501,511.443 1036.312,507.929 1027.828 C 504.945 1020.625,508.077 1011.552,514.642 1008.377 C 517.039 1007.219,527.816 1006.210,538.591 1006.135 C 556.816 1006.009,558.524 1006.342,563.091 1010.909 " fill="#1D1E23" stroke="none" fill-rule="evenodd"></path></svg>