<svg width="1200" height="1200" viewBox="0 0 1200 1200" fill="none" xmlns="http://www.w3.org/2000/svg"><path d="M434.000 51.318 C 403.823 56.244,373.137 79.282,360.208 106.719 C 351.027 126.200,350.000 135.461,350.000 198.742 C 350.000 265.917,350.877 270.983,364.947 285.053 C 384.511 304.616,415.489 304.616,435.053 285.053 C 447.421 272.684,450.000 262.952,450.000 228.644 L 450.000 200.000 700.000 200.000 L 950.000 200.000 950.000 600.000 L 950.000 1000.000 700.000 1000.000 L 450.000 1000.000 450.000 971.356 C 450.000 937.048,447.421 927.316,435.053 914.947 C 415.489 895.384,384.511 895.384,364.947 914.947 C 350.877 929.017,350.000 934.083,350.000 1001.258 C 350.000 1036.272,350.888 1064.063,352.210 1070.402 C 360.026 1107.883,392.117 1139.974,429.598 1147.790 C 444.519 1150.901,955.481 1150.901,970.402 1147.790 C 1007.883 1139.974,1039.974 1107.883,1047.790 1070.402 C 1050.923 1055.378,1050.923 144.622,1047.790 129.598 C 1040.894 96.531,1017.041 69.355,983.000 55.784 L 971.000 51.000 705.000 50.751 C 558.700 50.614,436.750 50.869,434.000 51.318 M628.000 399.026 C 623.662 400.960,569.477 453.640,485.523 537.545 L 350.047 672.942 299.523 622.696 C 271.736 595.060,245.850 570.842,242.000 568.878 C 232.052 563.804,213.326 564.121,202.811 569.542 C 181.010 580.782,171.714 608.519,182.751 629.392 C 184.382 632.477,217.055 666.206,255.358 704.346 C 323.164 771.865,325.304 773.780,336.547 777.002 C 348.967 780.561,362.210 779.179,373.600 773.133 C 376.570 771.557,447.977 701.132,532.283 616.634 C 656.357 492.276,686.032 461.530,688.008 455.288 C 694.264 435.530,686.499 413.415,669.548 402.714 C 658.939 396.018,638.766 394.227,628.000 399.026 " fill="#1D1E23" stroke="none" fill-rule="evenodd"></path></svg>