<svg width="1200" height="1200" viewBox="0 0 1200 1200" fill="none" xmlns="http://www.w3.org/2000/svg"><path d="M350.000 175.000 L 350.000 300.000 400.000 300.000 L 450.000 300.000 450.000 250.000 L 450.000 200.000 700.000 200.000 L 950.000 200.000 950.000 600.000 L 950.000 1000.000 700.000 1000.000 L 450.000 1000.000 450.000 950.000 L 450.000 900.000 400.000 900.000 L 350.000 900.000 350.000 1025.000 L 350.000 1150.000 700.000 1150.000 L 1050.000 1150.000 1050.000 600.000 L 1050.000 50.000 700.000 50.000 L 350.000 50.000 350.000 175.000 M497.503 525.493 L 350.010 672.987 286.488 609.487 L 222.965 545.988 190.996 578.004 L 159.026 610.021 254.016 705.011 L 349.007 800.002 528.989 620.011 L 708.972 440.020 678.010 409.010 C 660.981 391.955,646.587 378.000,646.023 378.000 C 645.458 378.000,578.625 444.372,497.503 525.493 " fill="#1D1E23" stroke="none" fill-rule="evenodd"></path></svg>