<svg width="1200" height="1200" viewBox="0 0 1200 1200" fill="none" xmlns="http://www.w3.org/2000/svg"><path d="M560.000 102.051 C 433.903 117.317,330.912 212.051,305.737 335.929 C 300.592 361.250,298.784 407.204,301.884 433.856 C 307.782 484.551,318.481 510.506,365.698 588.677 C 373.564 601.700,380.000 612.725,380.000 613.177 C 380.000 613.630,372.060 614.000,362.356 614.000 C 339.280 614.000,327.909 617.901,315.858 629.951 C 304.139 641.671,299.046 655.610,300.525 671.922 C 301.831 686.322,307.254 696.960,318.641 707.456 C 332.553 720.279,341.132 722.000,391.146 722.000 C 440.062 722.000,433.956 718.645,438.141 747.821 C 441.318 769.967,439.420 808.066,434.047 830.000 C 429.282 849.454,415.081 879.695,399.766 903.000 C 386.646 922.966,352.264 957.637,330.592 972.757 C 304.227 991.151,298.550 1000.661,300.631 1022.949 C 303.665 1055.443,323.381 1081.865,354.000 1094.471 L 365.000 1099.000 557.466 1099.548 C 718.088 1100.006,753.164 1099.613,769.466 1097.175 C 840.600 1086.535,902.416 1044.959,931.032 988.508 C 939.636 971.535,941.458 961.352,938.062 949.221 C 934.780 937.501,926.693 928.102,913.900 921.139 C 887.446 906.741,852.111 918.631,826.107 950.682 C 808.084 972.895,791.281 983.095,763.129 988.910 C 750.468 991.525,726.619 992.000,607.967 992.000 L 467.766 992.000 476.904 980.125 C 496.462 954.708,520.222 911.550,530.925 882.000 C 543.006 848.646,546.328 828.463,547.382 782.000 C 547.941 757.353,547.527 735.411,546.412 730.591 L 544.466 722.182 617.733 721.591 L 691.000 721.000 702.635 715.287 C 722.729 705.420,733.596 685.471,731.495 662.307 C 730.222 648.262,724.661 636.751,715.091 628.348 C 699.171 614.370,704.844 615.065,601.000 614.381 L 507.000 613.762 492.000 586.515 C 483.750 571.529,468.900 547.203,459.000 532.457 C 423.351 479.359,418.772 470.359,412.521 441.111 C 407.815 419.094,407.904 376.448,412.698 355.572 C 422.279 313.849,445.749 276.552,479.097 250.051 C 516.143 220.612,548.582 209.395,597.000 209.283 C 631.100 209.203,652.026 213.718,679.000 226.975 C 703.204 238.871,719.212 251.440,743.710 277.785 C 766.374 302.157,780.249 311.034,799.184 313.276 C 827.528 316.633,854.521 295.432,857.344 267.594 C 858.294 258.219,857.602 255.439,851.321 243.431 C 835.620 213.411,800.237 175.558,765.879 152.026 C 731.634 128.571,692.024 112.100,652.911 105.050 C 631.377 101.169,580.778 99.536,560.000 102.051 " fill="#1D1E23" stroke="none" fill-rule="evenodd"></path></svg>