<svg width="1200" height="1200" viewBox="0 0 1200 1200" fill="none" xmlns="http://www.w3.org/2000/svg"><path d="M715.000 151.262 C 634.741 157.901,565.782 181.521,502.000 224.221 C 422.309 277.570,362.549 351.581,329.787 437.500 L 325.020 450.000 258.762 450.000 C 187.140 450.000,182.493 450.573,168.682 461.107 C 165.056 463.873,159.594 470.380,156.545 475.568 C 151.816 483.611,151.000 487.209,151.000 500.000 C 151.000 512.791,151.816 516.389,156.545 524.432 C 159.594 529.620,165.056 536.127,168.682 538.893 C 182.118 549.142,188.152 550.000,246.751 550.000 L 301.000 550.000 301.000 600.000 L 301.000 650.000 246.751 650.000 C 188.152 650.000,182.118 650.858,168.682 661.107 C 165.056 663.873,159.594 670.380,156.545 675.568 C 151.816 683.611,151.000 687.209,151.000 700.000 C 151.000 712.791,151.816 716.389,156.545 724.432 C 159.594 729.620,165.056 736.127,168.682 738.893 C 182.490 749.425,187.144 749.999,258.751 750.007 L 325.000 750.014 331.813 767.507 C 380.125 891.548,492.794 994.794,620.141 1031.722 C 743.080 1067.372,872.900 1050.718,980.980 985.434 C 995.291 976.789,1009.588 967.305,1012.752 964.358 C 1026.588 951.470,1030.016 928.844,1020.902 910.555 C 1012.251 893.194,996.483 884.000,975.363 884.000 C 959.314 884.000,953.869 885.926,930.153 899.995 C 852.584 946.010,766.941 960.474,677.000 942.750 C 580.163 923.666,491.041 856.444,442.009 765.500 L 433.653 750.000 570.470 750.000 C 724.811 750.000,719.635 750.470,735.053 735.053 C 754.616 715.489,754.616 684.511,735.053 664.947 C 719.520 649.415,726.543 650.000,555.734 650.000 L 404.181 650.000 402.645 642.500 C 400.615 632.593,400.580 567.074,402.600 557.500 L 404.181 550.000 555.734 550.000 C 726.543 550.000,719.520 550.585,735.053 535.053 C 754.616 515.489,754.616 484.511,735.053 464.947 C 719.636 449.531,724.794 450.000,570.610 450.000 L 433.933 450.000 439.058 439.885 C 476.741 365.521,545.924 303.046,623.964 272.907 C 698.225 244.228,788.674 242.877,864.623 269.313 C 886.100 276.789,915.848 291.054,937.147 304.090 C 963.091 319.970,985.120 321.026,1005.407 307.362 C 1027.398 292.551,1032.972 258.090,1016.424 239.248 C 1010.160 232.116,971.323 207.958,947.000 196.065 C 903.059 174.578,861.066 161.437,815.714 154.983 C 793.396 151.807,734.650 149.637,715.000 151.262 " fill="#1D1E23" stroke="none" fill-rule="evenodd"></path></svg>