<svg width="1200" height="1200" viewBox="0 0 1200 1200" fill="none" xmlns="http://www.w3.org/2000/svg"><path d="M533.181 153.147 C 521.791 157.320,512.844 164.851,506.545 175.568 C 501.117 184.801,500.986 185.771,500.342 221.466 L 499.683 257.931 491.342 260.037 C 406.487 281.455,347.379 332.331,329.896 399.000 C 324.007 421.457,323.982 458.675,329.841 481.000 C 342.892 530.724,374.483 567.801,430.000 598.552 C 459.283 614.772,497.597 628.603,555.630 643.904 C 617.781 660.290,649.728 673.486,674.504 693.003 C 718.363 727.552,721.993 788.929,682.272 824.324 C 656.791 847.028,604.807 858.905,552.299 854.019 C 523.229 851.314,507.119 847.382,487.000 838.081 C 466.260 828.493,450.908 814.369,438.000 793.000 C 418.446 760.627,398.814 748.523,368.968 750.439 C 352.010 751.527,340.508 757.081,331.179 768.686 C 325.654 775.557,325.002 777.781,325.022 789.686 C 325.038 799.521,326.421 806.281,330.313 815.558 C 354.596 873.435,409.894 917.753,481.528 936.750 L 499.000 941.384 500.000 978.192 C 500.972 1013.961,501.157 1015.266,506.545 1024.432 C 518.869 1045.398,531.172 1050.000,574.895 1050.000 C 613.288 1050.000,622.359 1047.746,635.053 1035.053 C 647.735 1022.371,650.000 1013.275,650.000 975.037 L 650.000 942.787 668.563 938.312 C 693.324 932.343,725.522 919.194,745.069 907.069 C 764.038 895.303,792.236 867.655,801.709 851.533 C 817.914 823.955,824.422 798.579,824.415 763.000 C 824.401 695.470,796.155 643.618,738.463 605.211 C 701.683 580.725,667.891 567.045,589.284 544.818 C 498.624 519.183,463.203 500.268,448.082 469.414 C 428.282 429.011,447.004 383.729,492.544 361.877 C 518.790 349.284,541.446 345.399,582.000 346.541 C 610.258 347.336,617.225 348.195,630.488 352.518 C 659.436 361.956,675.533 375.886,690.142 404.145 C 701.497 426.110,716.964 442.006,731.766 446.922 C 747.584 452.176,770.327 450.533,782.778 443.236 C 804.768 430.349,808.540 410.836,795.195 379.000 C 784.848 354.317,769.319 331.701,750.124 313.363 C 726.105 290.415,701.108 275.737,667.500 264.846 L 650.000 259.176 650.000 225.944 C 650.000 186.635,647.812 177.707,635.053 164.947 C 622.236 152.131,613.365 149.974,574.144 150.141 C 550.657 150.241,538.722 151.117,533.181 153.147 " fill="#1D1E23" stroke="none" fill-rule="evenodd"></path></svg>