<svg width="1200" height="1200" viewBox="0 0 1200 1200" fill="none" xmlns="http://www.w3.org/2000/svg"><path d="M184.000 151.326 C 173.657 152.999,154.635 160.764,144.526 167.438 C 123.539 181.296,107.312 205.132,102.210 229.598 C 99.094 244.540,99.094 805.460,102.210 820.402 C 110.026 857.883,142.117 889.974,179.598 897.790 C 186.301 899.187,219.275 900.000,269.294 900.000 L 348.391 900.000 330.272 919.145 C 306.017 944.775,301.040 954.957,301.017 979.000 C 301.003 994.291,301.793 998.691,306.270 1008.240 C 313.683 1024.050,324.261 1034.893,339.672 1042.481 L 352.914 1049.000 593.957 1049.617 C 767.479 1050.061,837.936 1049.602,845.480 1047.978 C 869.176 1042.877,890.804 1021.159,897.170 996.073 C 904.283 968.043,897.014 948.615,868.593 919.686 L 849.251 900.000 930.205 900.000 C 995.449 900.000,1013.379 899.422,1022.594 897.022 C 1060.368 887.183,1089.218 857.552,1097.061 820.540 C 1101.443 799.861,1101.347 246.966,1096.959 228.350 C 1088.933 194.305,1066.889 169.295,1033.000 155.784 L 1021.000 151.000 605.000 150.758 C 376.200 150.626,186.750 150.881,184.000 151.326 M1000.000 525.000 L 1000.000 800.000 600.000 800.000 L 200.000 800.000 200.000 525.000 L 200.000 250.000 600.000 250.000 L 1000.000 250.000 1000.000 525.000 " fill="#1D1E23" stroke="none" fill-rule="evenodd"></path></svg>