<svg width="1200" height="1200" viewBox="0 0 1200 1200" fill="none" xmlns="http://www.w3.org/2000/svg"><path d="M100.000 525.000 L 100.000 900.000 225.471 900.000 L 350.942 900.000 325.471 925.528 L 300.000 951.056 300.000 1000.528 L 300.000 1050.000 600.000 1050.000 L 900.000 1050.000 900.000 999.529 L 900.000 949.058 875.530 924.529 L 851.060 900.000 975.530 900.000 L 1100.000 900.000 1100.000 525.000 L 1100.000 150.000 600.000 150.000 L 100.000 150.000 100.000 525.000 M1000.000 525.000 L 1000.000 800.000 600.000 800.000 L 200.000 800.000 200.000 525.000 L 200.000 250.000 600.000 250.000 L 1000.000 250.000 1000.000 525.000 " fill="#1D1E23" stroke="none" fill-rule="evenodd"></path></svg>