<svg width="1200" height="1200" viewBox="0 0 1200 1200" fill="none" xmlns="http://www.w3.org/2000/svg"><path d="M584.000 201.209 C 581.250 201.718,573.600 204.022,567.000 206.329 C 497.387 230.658,477.583 317.938,529.823 370.177 C 569.629 409.983,630.371 409.983,670.177 370.177 C 722.446 317.909,703.030 232.052,633.087 206.158 C 621.425 201.840,594.985 199.174,584.000 201.209 M584.000 501.209 C 581.250 501.718,573.600 504.022,567.000 506.329 C 497.387 530.658,477.583 617.938,529.823 670.177 C 569.629 709.983,630.371 709.983,670.177 670.177 C 722.446 617.909,703.030 532.052,633.087 506.158 C 621.425 501.840,594.985 499.174,584.000 501.209 M584.000 801.209 C 581.250 801.718,573.600 804.022,567.000 806.329 C 497.387 830.658,477.583 917.938,529.823 970.177 C 569.629 1009.983,630.371 1009.983,670.177 970.177 C 722.446 917.909,703.030 832.052,633.087 806.158 C 621.425 801.840,594.985 799.174,584.000 801.209 " fill="#1D1E23" stroke="none" fill-rule="evenodd"></path></svg>