<svg width="1200" height="1200" viewBox="0 0 1200 1200" fill="none" xmlns="http://www.w3.org/2000/svg"><path d="M284.000 501.209 C 281.250 501.718,273.600 504.022,267.000 506.329 C 197.387 530.658,177.583 617.938,229.823 670.177 C 269.629 709.983,330.371 709.983,370.177 670.177 C 422.446 617.909,403.030 532.052,333.087 506.158 C 321.425 501.840,294.985 499.174,284.000 501.209 M584.000 501.209 C 581.250 501.718,573.600 504.022,567.000 506.329 C 497.387 530.658,477.583 617.938,529.823 670.177 C 569.629 709.983,630.371 709.983,670.177 670.177 C 722.446 617.909,703.030 532.052,633.087 506.158 C 621.425 501.840,594.985 499.174,584.000 501.209 M884.000 501.209 C 881.250 501.718,873.600 504.022,867.000 506.329 C 797.387 530.658,777.583 617.938,829.823 670.177 C 869.629 709.983,930.371 709.983,970.177 670.177 C 1022.446 617.909,1003.030 532.052,933.087 506.158 C 921.425 501.840,894.985 499.174,884.000 501.209 " fill="#1D1E23" stroke="none" fill-rule="evenodd"></path></svg>