<svg width="1200" height="1200" viewBox="0 0 1200 1200" fill="none" xmlns="http://www.w3.org/2000/svg"><path d="M100.000 319.028 L 100.000 538.057 162.500 537.528 L 225.000 537.000 225.509 318.500 L 226.018 100.000 163.009 100.000 L 100.000 100.000 100.000 319.028 M288.000 319.000 L 288.000 538.000 335.000 538.000 L 382.000 538.000 382.000 319.000 L 382.000 100.000 335.000 100.000 L 288.000 100.000 288.000 319.000 M444.000 319.000 L 444.000 538.000 475.000 538.000 L 506.000 538.000 506.000 319.000 L 506.000 100.000 475.000 100.000 L 444.000 100.000 444.000 319.000 M568.491 318.500 L 569.000 537.000 600.500 537.551 L 632.000 538.102 632.000 319.051 L 632.000 100.000 599.991 100.000 L 567.982 100.000 568.491 318.500 M694.000 319.000 L 694.000 538.000 741.000 538.000 L 788.000 538.000 788.000 319.000 L 788.000 100.000 741.000 100.000 L 694.000 100.000 694.000 319.000 M850.000 319.000 L 850.000 538.000 881.000 538.000 L 912.000 538.000 912.000 319.000 L 912.000 100.000 881.000 100.000 L 850.000 100.000 850.000 319.000 M974.491 318.500 L 975.000 537.000 1037.500 537.528 L 1100.000 538.057 1100.000 319.028 L 1100.000 100.000 1036.991 100.000 L 973.982 100.000 974.491 318.500 M100.000 631.000 L 100.000 662.000 225.000 662.000 L 350.000 662.000 350.000 631.000 L 350.000 600.000 225.000 600.000 L 100.000 600.000 100.000 631.000 M412.000 631.000 L 412.000 662.000 444.000 662.000 L 476.000 662.000 476.000 631.000 L 476.000 600.000 444.000 600.000 L 412.000 600.000 412.000 631.000 M538.000 663.000 L 538.000 726.000 600.000 726.000 L 662.000 726.000 662.000 788.000 L 662.000 850.000 631.000 850.000 L 600.000 850.000 600.000 819.000 L 600.000 788.000 569.000 788.000 L 538.000 788.000 538.000 819.000 L 538.000 850.000 569.000 850.000 L 600.000 850.000 600.000 881.000 L 600.000 912.000 569.000 912.000 L 538.000 912.000 538.000 1006.000 L 538.000 1100.000 663.000 1100.000 L 788.000 1100.000 788.000 1069.000 L 788.000 1038.000 725.000 1038.000 L 662.000 1038.000 662.000 1007.000 L 662.000 976.000 631.000 976.000 L 600.000 976.000 600.000 944.000 L 600.000 912.000 631.000 912.000 L 662.000 912.000 662.000 881.000 L 662.000 850.000 692.972 850.000 L 723.943 850.000 724.472 912.500 L 725.000 975.000 787.500 975.528 L 850.000 976.057 850.000 1038.028 L 850.000 1100.000 881.000 1100.000 L 912.000 1100.000 912.000 1038.000 L 912.000 976.000 943.000 976.000 L 974.000 976.000 974.000 1038.000 L 974.000 1100.000 1006.000 1100.000 L 1038.000 1100.000 1038.000 1069.000 L 1038.000 1038.000 1069.000 1038.000 L 1100.000 1038.000 1100.000 975.000 L 1100.000 912.000 1069.000 912.000 L 1038.000 912.000 1038.000 881.000 L 1038.000 850.000 1069.000 850.000 L 1100.000 850.000 1100.000 819.000 L 1100.000 788.000 1069.000 788.000 L 1038.000 788.000 1038.000 757.000 L 1038.000 726.000 1069.000 726.000 L 1100.000 726.000 1100.000 663.000 L 1100.000 600.000 1006.000 600.000 L 912.000 600.000 912.000 631.000 L 912.000 662.000 881.000 662.000 L 850.000 662.000 850.000 631.000 L 850.000 600.000 756.000 600.000 L 662.000 600.000 662.000 631.000 L 662.000 662.000 631.000 662.000 L 600.000 662.000 600.000 631.000 L 600.000 600.000 569.000 600.000 L 538.000 600.000 538.000 663.000 M850.000 694.000 L 850.000 726.000 881.000 726.000 L 912.000 726.000 912.000 757.000 L 912.000 788.000 850.000 788.000 L 788.000 788.000 788.000 819.000 L 788.000 850.000 819.000 850.000 L 850.000 850.000 850.000 881.000 L 850.000 912.000 881.000 912.000 L 912.000 912.000 912.000 881.000 L 912.000 850.000 943.000 850.000 L 974.000 850.000 974.000 881.000 L 974.000 912.000 943.000 912.000 L 912.000 912.000 912.000 944.000 L 912.000 976.000 881.000 976.000 L 850.000 976.000 850.000 944.000 L 850.000 912.000 819.000 912.000 L 788.000 912.000 788.000 881.000 L 788.000 850.000 757.000 850.000 L 726.000 850.000 726.000 819.000 L 726.000 788.000 757.000 788.000 L 788.000 788.000 788.000 757.000 L 788.000 726.000 757.000 726.000 L 726.000 726.000 726.000 694.000 L 726.000 662.000 788.000 662.000 L 850.000 662.000 850.000 694.000 M1037.551 693.500 L 1037.000 725.000 975.000 725.000 L 913.000 725.000 912.449 693.500 L 911.898 662.000 975.000 662.000 L 1038.102 662.000 1037.551 693.500 M319.505 881.489 L 226.022 974.973 195.487 944.487 C 178.693 927.719,164.053 914.000,162.952 914.000 C 161.852 914.000,147.240 927.733,130.482 944.518 L 100.012 975.035 162.515 1037.515 L 225.018 1099.994 350.002 974.998 L 474.986 850.002 443.988 819.004 L 412.989 788.005 319.505 881.489 M1038.000 819.000 L 1038.000 850.000 1007.000 850.000 L 976.000 850.000 976.000 819.000 L 976.000 788.000 1007.000 788.000 L 1038.000 788.000 1038.000 819.000 M1037.551 943.500 L 1037.000 975.000 1006.500 975.552 L 976.000 976.104 976.000 944.052 L 976.000 912.000 1007.051 912.000 L 1038.102 912.000 1037.551 943.500 " fill="#1D1E23" stroke="none" fill-rule="evenodd"></path></svg>