<svg width="1200" height="1200" viewBox="0 0 1200 1200" fill="none" xmlns="http://www.w3.org/2000/svg"><path d="M187.000 102.341 C 159.187 107.606,126.856 131.897,113.284 157.723 C 99.225 184.479,100.062 160.886,100.030 530.993 L 100.000 864.986 210.000 755.000 L 320.000 645.014 320.000 560.011 L 320.000 475.008 382.478 537.486 L 444.956 599.964 281.828 763.482 C 132.083 913.586,118.185 928.075,112.419 940.106 C 104.768 956.068,100.069 975.145,100.030 990.402 C 99.897 1041.693,138.489 1088.092,189.605 1098.095 C 214.016 1102.872,245.156 1097.005,267.000 1083.512 C 272.974 1079.822,342.016 1012.465,438.494 916.202 L 599.989 755.069 763.494 918.184 C 913.587 1067.918,928.075 1081.815,940.106 1087.581 C 956.068 1095.232,975.145 1099.931,990.402 1099.970 C 1041.693 1100.103,1088.092 1061.511,1098.095 1010.395 C 1102.872 985.984,1097.005 954.844,1083.512 933.000 C 1079.822 927.026,1012.458 857.977,916.184 761.488 L 755.033 599.975 817.516 537.492 L 880.000 475.008 880.000 560.011 L 880.000 645.014 990.000 755.000 L 1100.000 864.986 1100.000 531.592 C 1100.000 294.490,1099.357 195.136,1097.774 187.598 C 1088.562 143.725,1050.620 108.021,1006.353 101.569 C 983.625 98.256,964.156 101.483,942.000 112.234 L 925.000 120.483 762.500 282.702 L 600.000 444.920 437.500 282.801 C 286.761 132.416,273.952 120.144,260.515 113.240 C 237.392 101.359,212.038 97.600,187.000 102.341 " fill="#1D1E23" stroke="none" fill-rule="evenodd"></path></svg>