<svg width="1200" height="1200" viewBox="0 0 1200 1200" fill="none" xmlns="http://www.w3.org/2000/svg"><path d="M550.000 101.617 L 550.000 153.235 531.500 155.811 C 521.325 157.229,501.300 161.373,487.000 165.022 C 362.526 196.783,255.775 283.289,196.980 400.041 C 177.019 439.677,160.721 492.561,154.462 538.000 L 152.947 549.000 101.473 549.534 L 50.000 550.068 50.000 600.000 L 50.000 649.932 101.473 650.466 L 152.947 651.000 154.462 662.000 C 174.544 807.798,267.013 936.029,400.565 1003.284 C 439.313 1022.798,493.213 1039.369,538.000 1045.538 L 549.000 1047.053 549.534 1098.527 L 550.068 1150.000 600.000 1150.000 L 649.932 1150.000 650.466 1098.527 L 651.000 1047.053 662.000 1045.538 C 807.751 1025.462,936.050 932.944,1003.284 799.435 C 1022.798 760.687,1039.369 706.787,1045.538 662.000 L 1047.053 651.000 1098.527 650.466 L 1150.000 649.932 1150.000 600.000 L 1150.000 550.068 1098.527 549.534 L 1047.053 549.000 1045.538 538.000 C 1032.285 441.786,986.746 350.759,917.730 282.529 C 891.464 256.562,874.968 243.007,847.000 224.410 C 795.338 190.058,727.668 164.052,668.500 155.811 L 650.000 153.235 650.000 101.617 L 650.000 50.000 600.000 50.000 L 550.000 50.000 550.000 101.617 M634.288 252.098 C 660.819 254.786,687.182 260.274,710.517 267.968 C 736.251 276.452,781.376 299.393,803.986 315.486 C 828.328 332.812,867.188 371.672,884.514 396.014 C 900.601 418.616,923.547 463.747,932.024 489.459 C 946.412 533.101,952.266 582.585,948.352 627.500 C 943.946 678.073,934.426 711.972,911.983 757.000 C 893.778 793.527,876.458 817.511,847.000 846.986 C 794.699 899.318,732.647 931.735,659.000 945.202 C 630.967 950.328,569.033 950.328,541.000 945.202 C 467.353 931.735,405.301 899.318,353.000 846.986 C 324.810 818.779,306.992 794.466,289.251 760.000 C 259.044 701.313,246.064 636.591,251.648 572.500 C 256.054 521.921,267.078 483.077,289.251 440.000 C 307.000 405.517,324.818 381.210,353.014 353.014 C 382.452 323.577,406.423 306.256,443.000 287.991 C 504.927 257.069,567.486 245.331,634.288 252.098 M577.000 401.208 C 492.372 413.748,428.822 468.918,406.592 549.147 C 401.681 566.870,401.091 572.326,401.091 600.000 C 401.091 627.564,401.692 633.167,406.510 650.545 C 426.304 721.937,478.063 773.696,549.455 793.490 C 566.833 798.308,572.436 798.909,600.000 798.909 C 627.674 798.909,633.130 798.319,650.853 793.408 C 712.807 776.241,762.606 732.162,785.756 674.000 C 820.018 587.920,789.479 487.257,713.435 435.617 C 695.841 423.668,667.156 410.706,647.913 406.007 C 631.485 401.996,590.431 399.218,577.000 401.208 " fill="#1D1E23" stroke="none" fill-rule="evenodd"></path></svg>