<svg width="1200" height="1200" viewBox="0 0 1200 1200" fill="none" xmlns="http://www.w3.org/2000/svg"><path d="M567.000 101.156 C 512.467 106.482,472.543 115.520,429.529 132.276 C 319.302 175.217,228.619 257.314,173.138 364.393 C 58.769 585.125,119.719 857.426,316.576 1005.219 C 378.786 1051.924,453.001 1082.955,532.071 1095.322 C 564.150 1100.340,635.850 1100.340,667.929 1095.322 C 780.016 1077.791,877.601 1024.777,955.678 939.000 C 1025.063 862.773,1071.614 756.592,1081.874 651.153 C 1102.196 442.312,994.630 242.797,812.240 151.032 C 746.750 118.083,685.131 102.816,611.000 101.173 C 591.200 100.734,571.400 100.727,567.000 101.156 M676.406 204.667 C 781.892 227.675,871.624 291.000,928.479 382.559 C 1010.585 514.780,1010.585 685.220,928.479 817.441 C 904.679 855.767,866.553 897.973,832.441 923.755 C 692.316 1029.659,507.684 1029.659,367.559 923.755 C 346.319 907.701,310.299 871.681,294.245 850.441 C 171.786 688.412,183.610 463.562,322.295 317.052 C 371.330 265.249,437.902 226.126,506.556 208.765 C 542.995 199.550,557.608 198.109,607.000 198.861 C 647.217 199.474,655.943 200.204,676.406 204.667 M802.000 343.212 C 791.042 347.268,511.429 479.732,505.089 483.870 C 500.738 486.710,494.357 492.732,490.909 497.253 C 487.461 501.774,461.164 558.466,432.472 623.236 C 403.780 688.006,373.711 755.850,365.652 774.000 C 352.603 803.389,351.000 808.349,351.000 819.328 C 351.000 829.785,351.914 832.971,357.027 840.328 C 360.506 845.334,366.847 850.958,372.027 853.631 C 389.033 862.407,386.526 863.353,546.000 788.022 C 625.750 750.351,693.987 717.292,697.637 714.558 C 701.287 711.824,706.824 706.067,709.941 701.764 C 714.813 695.039,745.570 626.821,830.215 435.000 C 851.557 386.635,853.294 378.568,845.505 364.000 C 839.026 351.883,827.029 343.631,814.641 342.770 C 809.338 342.402,803.650 342.601,802.000 343.212 M627.127 542.532 C 639.153 548.656,650.824 560.976,656.706 573.755 C 659.980 580.868,660.965 586.920,660.980 600.000 C 660.997 614.595,660.208 618.614,655.399 628.405 C 632.163 675.724,567.837 675.724,544.601 628.405 C 539.792 618.614,539.003 614.595,539.020 600.000 C 539.035 586.920,540.020 580.868,543.294 573.755 C 551.037 556.934,566.044 543.660,584.000 537.751 C 593.791 534.530,616.315 537.027,627.127 542.532 " fill="#1D1E23" stroke="none" fill-rule="evenodd"></path></svg>