<svg width="1200" height="1200" viewBox="0 0 1200 1200" fill="none" xmlns="http://www.w3.org/2000/svg"><path d="M942.000 195.432 C 935.756 197.755,216.468 498.560,205.505 503.432 C 182.422 513.693,169.208 536.528,173.845 558.147 C 177.683 576.043,185.299 586.479,200.000 593.986 C 203.850 595.951,263.250 619.344,332.000 645.970 C 400.750 672.596,462.377 696.564,468.948 699.232 C 480.507 703.926,492.198 713.085,496.335 720.688 C 497.439 722.716,522.520 786.922,552.071 863.368 C 581.676 939.954,608.082 1005.352,610.883 1009.025 C 613.679 1012.690,621.015 1018.159,627.185 1021.178 C 652.302 1033.467,681.496 1024.206,693.953 1000.000 C 702.399 983.589,1004.381 260.656,1006.345 252.146 C 1010.858 232.597,997.575 207.960,977.206 198.100 C 968.993 194.124,949.488 192.646,942.000 195.432 " fill="#1D1E23" stroke="none" fill-rule="evenodd"></path></svg>