<svg width="1200" height="1200" viewBox="0 0 1200 1200" fill="none" xmlns="http://www.w3.org/2000/svg"><path d="M193.000 75.313 C 183.880 80.106,174.991 89.202,160.079 109.000 C 77.907 218.095,38.526 359.607,52.938 494.000 C 60.226 561.964,76.831 619.476,106.929 681.000 C 133.115 734.529,173.048 791.400,191.680 801.700 C 209.281 811.430,234.136 806.190,249.136 789.586 C 267.395 769.376,268.091 742.343,250.960 718.737 C 182.920 624.982,154.000 541.545,154.000 439.000 C 154.000 340.564,184.721 247.578,242.543 171.000 C 262.415 144.683,267.046 129.503,261.269 109.629 C 257.397 96.310,245.497 82.050,233.346 76.168 C 222.735 71.031,201.985 70.592,193.000 75.313 M966.475 76.223 C 954.349 82.225,942.577 96.400,938.731 109.629 C 932.958 129.487,937.560 144.595,957.624 171.656 C 1038.396 280.592,1065.470 416.340,1032.772 548.443 C 1019.018 604.008,991.871 660.797,956.638 707.709 C 937.769 732.831,933.049 748.824,938.731 768.371 C 945.208 790.650,965.593 806.400,987.954 806.400 C 1009.913 806.400,1023.480 794.148,1056.975 744.070 C 1103.514 674.491,1133.430 595.262,1145.357 510.000 C 1150.660 472.090,1150.120 398.434,1144.259 360.289 C 1135.317 302.089,1119.020 250.117,1093.057 197.000 C 1067.364 144.434,1027.164 86.885,1008.919 76.551 C 998.123 70.436,978.473 70.284,966.475 76.223 M349.810 217.971 C 337.664 220.164,329.484 226.518,317.467 243.093 C 303.560 262.273,282.389 304.299,274.190 329.000 C 242.025 425.901,253.782 531.686,306.242 617.395 C 327.535 652.183,337.685 660.657,358.000 660.605 C 377.141 660.556,393.950 649.860,403.023 631.954 C 412.981 612.302,411.017 591.309,397.038 568.000 C 371.497 525.411,360.000 485.370,360.000 439.000 C 360.000 392.147,371.558 351.926,397.131 309.794 C 405.852 295.426,410.806 276.482,409.049 264.226 C 404.727 234.081,377.655 212.943,349.810 217.971 M820.475 222.223 C 803.539 230.606,790.000 252.276,790.000 271.000 C 790.000 280.779,795.741 297.921,803.091 310.088 C 848.799 385.751,852.382 475.882,812.623 549.888 C 794.199 584.183,792.026 589.186,790.787 600.173 C 786.124 641.502,829.473 674.754,862.661 655.304 C 879.476 645.450,909.309 595.172,924.660 550.816 C 949.981 477.652,949.985 400.456,924.672 327.184 C 909.574 283.479,880.789 234.217,864.204 223.699 C 852.562 216.317,833.695 215.679,820.475 222.223 M582.430 416.514 C 574.474 419.063,558.949 432.364,554.987 440.024 C 552.127 445.556,274.000 1147.430,274.000 1149.117 C 274.000 1149.603,420.796 1150.000,600.214 1150.000 C 860.364 1150.000,926.234 1149.494,925.469 1147.500 C 912.592 1113.946,646.744 443.475,644.939 440.000 C 634.561 420.024,605.524 409.114,582.430 416.514 M664.549 678.527 C 699.500 767.887,728.075 841.679,728.049 842.508 C 728.022 843.337,683.887 808.725,629.972 765.591 C 576.057 722.458,532.182 686.530,532.472 685.752 C 543.136 657.168,599.298 516.010,600.000 516.028 C 600.550 516.042,629.597 589.166,664.549 678.527 M599.576 829.000 C 649.196 868.600,689.840 901.453,689.897 902.006 C 689.954 902.560,622.035 936.991,538.967 978.521 C 393.499 1051.247,388.032 1053.789,390.596 1047.515 C 392.061 1043.932,418.385 976.849,449.096 898.443 C 480.572 818.081,505.898 756.129,507.146 756.443 C 508.363 756.749,549.957 789.400,599.576 829.000 M771.001 950.500 C 780.510 974.029,822.000 1080.245,822.000 1081.060 C 822.000 1081.577,746.625 1081.951,654.500 1081.890 L 487.000 1081.780 626.000 1012.000 C 702.450 973.621,765.577 942.170,766.283 942.110 C 766.988 942.049,769.112 945.825,771.001 950.500 " fill="#1D1E23" stroke="none" fill-rule="evenodd"></path></svg>