<svg width="1200" height="1200" viewBox="0 0 1200 1200" fill="none" xmlns="http://www.w3.org/2000/svg"><path d="M198.107 63.342 C 120.550 147.830,72.758 248.658,54.648 366.000 C 49.639 398.455,49.639 479.545,54.648 512.000 C 64.161 573.641,81.253 628.932,106.889 681.000 C 131.351 730.683,157.691 769.277,196.705 812.603 L 210.755 828.205 247.200 791.800 L 283.645 755.396 269.281 739.198 C 206.521 668.421,169.115 587.100,157.076 495.260 C 151.284 451.079,153.904 387.514,163.267 345.000 C 180.600 266.308,218.846 192.839,272.839 134.520 L 283.762 122.722 247.203 86.203 L 210.644 49.684 198.107 63.342 M952.411 86.484 L 915.821 123.218 920.163 127.109 C 922.550 129.249,931.676 139.550,940.443 150.000 C 1033.984 261.507,1067.733 407.210,1032.751 548.525 C 1015.680 617.488,980.629 683.026,930.967 738.844 L 916.295 755.335 952.655 791.656 L 989.016 827.976 1003.163 812.488 C 1082.561 725.568,1129.628 624.107,1146.268 504.000 C 1150.220 475.480,1149.648 396.967,1145.271 367.000 C 1128.360 251.226,1078.509 146.170,1000.720 62.375 L 989.000 49.749 952.411 86.484 M343.910 209.787 C 305.085 253.152,276.790 308.268,264.230 365.000 C 240.788 470.888,269.518 582.913,341.123 664.816 L 356.526 682.434 393.231 645.769 L 429.937 609.104 423.175 602.052 C 403.260 581.283,381.191 543.393,371.307 513.000 C 356.731 468.182,356.266 414.376,370.052 367.882 C 378.503 339.382,401.255 299.456,421.336 277.889 L 429.819 268.779 393.203 232.203 L 356.587 195.627 343.910 209.787 M806.432 232.462 L 769.864 269.175 775.137 274.088 C 794.426 292.060,821.816 340.315,830.840 372.224 C 853.192 451.267,834.975 533.288,780.911 597.018 L 770.385 609.425 806.882 645.882 L 843.378 682.338 853.837 670.669 C 886.325 634.423,908.791 596.290,924.863 550.116 C 965.572 433.163,938.099 299.621,854.559 208.375 L 843.000 195.749 806.432 232.462 M582.430 416.514 C 574.474 419.063,558.949 432.364,554.987 440.024 C 552.127 445.556,274.000 1147.430,274.000 1149.117 C 274.000 1149.603,420.796 1150.000,600.214 1150.000 C 860.364 1150.000,926.234 1149.494,925.469 1147.500 C 912.592 1113.946,646.744 443.475,644.939 440.000 C 634.561 420.024,605.524 409.114,582.430 416.514 M664.549 678.527 C 699.500 767.887,728.075 841.679,728.049 842.508 C 728.022 843.337,683.887 808.725,629.972 765.591 C 576.057 722.458,532.182 686.530,532.472 685.752 C 543.136 657.168,599.298 516.010,600.000 516.028 C 600.550 516.042,629.597 589.166,664.549 678.527 M599.576 829.000 C 649.196 868.600,689.840 901.453,689.897 902.006 C 689.954 902.560,622.035 936.991,538.967 978.521 C 393.499 1051.247,388.032 1053.789,390.596 1047.515 C 392.061 1043.932,418.385 976.849,449.096 898.443 C 480.572 818.081,505.898 756.129,507.146 756.443 C 508.363 756.749,549.957 789.400,599.576 829.000 M771.001 950.500 C 780.510 974.029,822.000 1080.245,822.000 1081.060 C 822.000 1081.577,746.625 1081.951,654.500 1081.890 L 487.000 1081.780 626.000 1012.000 C 702.450 973.621,765.577 942.170,766.283 942.110 C 766.988 942.049,769.112 945.825,771.001 950.500 " fill="#1D1E23" stroke="none" fill-rule="evenodd"></path></svg>