<svg width="1200" height="1200" viewBox="0 0 1200 1200" fill="none" xmlns="http://www.w3.org/2000/svg"><path d="M211.000 202.818 C 187.554 208.628,168.142 224.812,157.386 247.518 L 151.000 261.000 150.479 631.000 L 149.959 1001.000 230.489 920.500 L 311.018 840.000 444.742 840.000 C 571.202 840.000,578.404 839.810,577.320 836.500 C 576.690 834.575,572.590 822.650,568.209 810.000 C 563.828 797.350,559.145 780.925,557.801 773.500 L 555.359 760.000 433.198 760.000 L 311.036 760.000 270.518 800.482 L 230.000 840.963 230.000 560.482 L 230.000 280.000 550.000 280.000 L 870.000 280.000 870.000 314.716 L 870.000 349.433 906.500 350.505 C 926.575 351.095,944.649 352.247,946.664 353.066 C 950.165 354.488,950.299 352.473,949.664 307.777 L 949.000 261.000 942.614 247.518 C 931.524 224.107,910.814 207.428,886.402 202.249 C 870.445 198.863,224.765 199.407,211.000 202.818 M816.198 402.235 C 765.607 408.102,716.692 431.922,677.332 469.859 C 638.043 507.728,614.039 551.176,603.773 603.000 C 600.095 621.570,600.095 678.430,603.773 697.000 C 614.162 749.446,638.317 792.798,678.617 831.325 C 707.305 858.751,736.398 876.419,771.691 887.848 C 799.750 896.935,814.251 899.000,850.000 899.000 C 885.864 899.000,900.234 896.941,928.686 887.725 C 989.550 868.011,1045.306 819.420,1074.890 760.309 C 1092.313 725.497,1099.000 694.902,1099.000 650.000 C 1099.000 614.136,1096.941 599.766,1087.725 571.314 C 1075.468 533.472,1054.110 500.165,1022.668 469.859 C 966.865 416.073,896.266 392.951,816.198 402.235 M874.472 562.500 L 875.000 625.000 937.500 625.528 L 1000.000 626.057 1000.000 651.028 L 1000.000 676.000 937.000 676.000 L 874.000 676.000 874.000 738.000 L 874.000 800.000 850.000 800.000 L 826.000 800.000 826.000 738.000 L 826.000 676.000 763.000 676.000 L 700.000 676.000 700.000 651.028 L 700.000 626.057 762.500 625.528 L 825.000 625.000 825.528 562.500 L 826.057 500.000 850.000 500.000 L 873.943 500.000 874.472 562.500 " fill="#1D1E23" stroke="none" fill-rule="evenodd"></path></svg>