<svg width="1200" height="1200" viewBox="0 0 1200 1200" fill="none" xmlns="http://www.w3.org/2000/svg"><path d="M365.818 153.657 C 346.845 161.334,294.500 203.398,255.948 241.949 C 201.016 296.879,161.119 354.548,135.123 416.596 C 83.188 540.558,87.208 667.689,146.901 789.000 C 186.988 870.468,250.892 944.441,336.055 1007.960 C 348.933 1017.565,362.363 1026.432,365.898 1027.665 C 409.682 1042.928,453.052 1006.650,444.196 962.171 C 440.877 945.501,432.160 934.744,405.706 914.673 C 333.593 859.961,284.649 804.002,252.928 740.000 C 224.745 683.134,214.172 635.321,216.665 576.000 C 218.672 528.224,228.366 491.236,251.124 444.513 C 265.379 415.250,286.360 382.907,307.529 357.567 C 323.002 339.044,377.229 286.000,380.691 286.000 C 381.918 286.000,457.189 360.107,547.961 450.683 C 653.068 555.563,715.636 616.563,720.259 618.663 C 734.065 624.932,746.129 626.672,758.290 624.147 C 795.848 616.350,815.390 577.684,799.806 542.000 C 796.689 534.862,757.378 494.735,609.754 348.000 C 485.751 224.745,420.284 161.060,413.602 157.186 C 400.461 149.569,379.709 148.036,365.818 153.657 M793.405 152.885 C 789.228 154.375,782.326 157.900,778.067 160.718 C 746.021 181.926,745.735 230.753,777.516 254.714 C 826.721 291.811,868.213 329.879,893.362 361.000 C 924.271 399.250,952.918 449.852,965.824 489.000 C 977.779 525.261,980.953 546.801,980.855 591.000 C 980.780 624.632,980.052 634.343,976.282 652.000 C 958.933 733.241,911.803 810.518,840.193 875.138 L 817.386 895.718 651.748 731.413 C 560.647 641.045,482.260 564.833,477.555 562.054 C 470.105 557.653,466.676 557.002,451.000 557.014 C 430.500 557.031,422.422 560.165,409.533 573.104 C 398.058 584.624,393.170 596.476,393.078 613.000 C 392.928 639.965,382.885 628.674,590.623 835.116 C 693.146 937.000,780.297 1022.036,784.328 1024.119 C 801.519 1033.003,821.325 1032.926,838.626 1023.908 C 849.041 1018.479,882.361 993.088,906.923 971.864 C 1038.741 857.957,1109.315 706.324,1097.974 561.380 C 1088.668 442.455,1036.787 336.515,941.069 240.986 C 900.999 200.996,848.635 159.575,829.705 152.896 C 819.532 149.307,803.450 149.302,793.405 152.885 " fill="#1D1E23" stroke="none" fill-rule="evenodd"></path></svg>