<svg width="1200" height="1200" viewBox="0 0 1200 1200" fill="none" xmlns="http://www.w3.org/2000/svg"><path d="M656.768 102.031 C 535.193 113.865,431.417 162.382,346.898 246.899 C 268.604 325.192,221.078 420.135,204.684 531.000 C 199.720 564.569,199.692 637.968,204.631 670.000 C 226.930 814.612,303.822 936.108,423.870 1016.416 C 483.721 1056.454,554.949 1083.738,630.000 1095.374 C 661.973 1100.330,737.658 1100.294,769.422 1095.306 C 812.428 1088.553,858.546 1075.483,894.696 1059.804 C 914.066 1051.403,918.860 1048.006,923.205 1039.604 C 929.958 1026.545,925.178 1018.075,900.478 999.332 C 789.695 915.265,721.992 798.553,703.636 660.000 C 700.394 635.529,700.416 562.251,703.672 539.000 C 723.271 399.057,789.905 284.574,900.694 200.504 C 923.199 183.427,927.456 176.836,924.080 164.297 C 921.180 153.527,915.685 149.296,891.363 139.106 C 850.851 122.133,809.431 110.807,766.000 104.827 C 739.643 101.198,680.804 99.692,656.768 102.031 " fill="#1D1E23" stroke="none" fill-rule="evenodd"></path></svg>