<svg width="1200" height="1200" viewBox="0 0 1200 1200" fill="none" xmlns="http://www.w3.org/2000/svg"><path d="M583.485 179.500 C 549.444 219.787,476.000 315.320,476.000 319.313 C 476.000 322.485,895.830 740.837,897.418 739.249 C 898.288 738.379,898.993 722.217,898.984 703.334 C 898.967 666.296,897.026 653.477,885.612 615.032 C 853.366 506.413,757.640 350.165,625.520 190.500 C 612.549 174.825,601.112 162.000,600.104 162.000 C 599.096 162.000,591.617 169.875,583.485 179.500 M234.494 292.492 L 200.002 326.984 282.976 409.992 L 365.950 493.000 356.389 512.044 C 332.870 558.891,314.589 607.892,305.670 648.000 C 299.224 676.986,299.231 729.145,305.684 758.681 C 325.625 849.951,381.607 924.113,462.047 965.822 C 502.512 986.804,541.971 997.407,587.000 999.398 C 661.930 1002.711,730.102 979.557,792.556 929.581 L 798.112 925.135 863.573 990.573 L 929.033 1056.010 964.005 1020.995 L 998.976 985.981 634.990 621.990 C 434.798 421.796,270.550 258.000,269.995 258.000 C 269.440 258.000,253.464 273.521,234.494 292.492 " fill="#1D1E23" stroke="none" fill-rule="evenodd"></path></svg>