<svg width="1200" height="1200" viewBox="0 0 1200 1200" fill="none" xmlns="http://www.w3.org/2000/svg"><path d="M584.444 190.822 C 579.738 192.356,572.913 195.880,569.278 198.652 C 560.319 205.486,476.000 314.485,476.000 319.233 C 476.000 321.874,895.649 741.018,896.970 739.696 C 897.594 739.073,898.650 726.961,899.319 712.782 C 900.240 693.231,899.697 681.683,897.071 665.000 C 880.650 560.673,802.911 417.385,669.197 244.983 C 639.669 206.911,631.536 198.134,621.278 193.266 C 611.162 188.466,594.968 187.391,584.444 190.822 M248.337 283.207 C 224.681 294.995,214.238 324.771,225.581 348.094 C 228.588 354.277,250.641 377.712,297.701 424.733 L 365.489 492.467 352.003 520.733 C 328.505 569.983,313.664 611.204,304.741 652.000 C 299.276 676.989,299.758 731.559,305.684 758.681 C 325.645 850.042,381.527 924.071,462.047 965.822 C 502.512 986.804,541.971 997.407,587.000 999.398 C 661.929 1002.711,730.104 979.556,792.554 929.582 L 798.109 925.138 849.554 976.374 C 877.850 1004.553,903.973 1029.096,907.608 1030.912 C 930.973 1042.589,962.294 1031.182,974.158 1006.675 C 980.015 994.574,980.168 978.324,974.539 966.000 C 971.340 958.997,895.502 882.157,632.714 619.660 C 264.911 252.264,292.357 278.037,268.893 278.011 C 261.996 278.004,255.466 279.654,248.337 283.207 " fill="#1D1E23" stroke="none" fill-rule="evenodd"></path></svg>