<svg width="1200" height="1200" viewBox="0 0 1200 1200" fill="none" xmlns="http://www.w3.org/2000/svg"><path d="M284.000 101.340 C 273.722 102.974,254.657 110.749,244.526 117.438 C 223.539 131.296,207.312 155.132,202.210 179.598 C 199.081 194.606,199.081 1005.394,202.210 1020.402 C 210.026 1057.883,242.117 1089.974,279.598 1097.790 C 294.557 1100.909,905.443 1100.909,920.402 1097.790 C 957.883 1089.974,989.974 1057.883,997.790 1020.402 C 999.347 1012.932,1000.000 919.635,1000.000 704.397 L 1000.000 398.990 850.495 249.495 L 700.990 100.000 494.995 100.272 C 381.698 100.422,286.750 100.902,284.000 101.340 M650.000 321.000 C 650.000 439.333,650.088 442.088,654.000 446.000 C 657.912 449.912,660.667 450.000,779.000 450.000 L 900.000 450.000 900.000 725.000 L 900.000 1000.000 600.000 1000.000 L 300.000 1000.000 300.000 600.000 L 300.000 200.000 475.000 200.000 L 650.000 200.000 650.000 321.000 M433.181 603.147 C 421.791 607.320,412.844 614.851,406.545 625.568 C 401.816 633.611,401.000 637.209,401.000 650.000 C 401.000 662.791,401.816 666.389,406.545 674.432 C 409.594 679.620,415.056 686.127,418.682 688.893 C 433.625 700.290,428.886 700.000,599.895 700.000 C 777.232 700.000,769.479 700.626,785.053 685.053 C 804.616 665.489,804.616 634.511,785.053 614.947 C 769.458 599.353,777.361 599.982,599.144 600.141 C 467.122 600.259,439.709 600.755,433.181 603.147 M433.181 803.147 C 421.791 807.320,412.844 814.851,406.545 825.568 C 401.816 833.611,401.000 837.209,401.000 850.000 C 401.000 862.791,401.816 866.389,406.545 874.432 C 409.594 879.620,415.056 886.127,418.682 888.893 C 433.625 900.290,428.886 900.000,599.895 900.000 C 777.232 900.000,769.479 900.626,785.053 885.053 C 804.616 865.489,804.616 834.511,785.053 814.947 C 769.458 799.353,777.361 799.982,599.144 800.141 C 467.122 800.259,439.709 800.755,433.181 803.147 " fill="#1D1E23" stroke="none" fill-rule="evenodd"></path></svg>