<svg width="1200" height="1200" viewBox="0 0 1200 1200" fill="none" xmlns="http://www.w3.org/2000/svg"><path d="M581.469 102.048 C 558.323 107.894,537.086 127.408,528.764 150.478 C 527.006 155.353,525.114 170.042,524.345 184.800 L 523.000 210.600 509.000 214.333 C 490.601 219.238,442.776 243.173,424.594 256.575 L 410.188 267.194 655.094 512.094 L 900.000 756.994 899.963 616.997 C 899.925 468.567,899.310 456.474,890.026 421.410 C 876.545 370.496,851.407 327.460,812.018 287.859 C 777.575 253.231,742.483 231.519,697.270 216.865 L 677.000 210.294 675.792 186.647 C 674.382 159.035,671.882 148.492,663.690 135.606 C 649.962 114.009,629.578 102.072,604.391 100.877 C 595.926 100.475,585.611 101.002,581.469 102.048 M129.000 161.775 C 114.946 165.419,102.091 176.025,94.791 190.000 C 89.358 200.401,89.834 220.450,95.787 232.000 C 98.935 238.105,133.225 273.881,202.398 343.229 L 304.370 445.459 302.191 463.229 C 300.763 474.873,300.009 544.614,300.006 665.500 L 300.000 850.000 271.251 850.000 C 231.531 850.000,218.562 855.125,206.545 875.568 C 201.816 883.611,201.000 887.209,201.000 900.000 C 201.000 912.791,201.816 916.389,206.545 924.432 C 209.594 929.620,215.056 936.127,218.682 938.893 C 234.048 950.613,217.146 950.000,524.935 950.000 L 807.368 950.000 885.465 1026.880 C 961.263 1101.498,963.901 1103.860,975.085 1107.111 C 999.372 1114.171,1023.144 1103.439,1035.133 1080.000 C 1040.039 1070.409,1040.101 1049.346,1035.252 1040.000 C 1030.439 1030.726,171.097 170.829,161.790 165.975 C 153.365 161.581,137.558 159.556,129.000 161.775 M500.000 1006.543 C 500.000 1017.241,506.949 1039.071,514.120 1050.904 C 548.136 1107.029,625.422 1116.489,670.859 1070.090 C 687.571 1053.025,700.000 1025.308,700.000 1005.105 L 700.000 1000.000 600.000 1000.000 L 500.000 1000.000 500.000 1006.543 " fill="#1D1E23" stroke="none" fill-rule="evenodd"></path></svg>