<svg width="1200" height="1200" viewBox="0 0 1200 1200" fill="none" xmlns="http://www.w3.org/2000/svg"><path d="M111.825 204.560 C 102.752 210.674,99.650 217.138,100.699 227.743 C 101.334 234.168,103.222 238.146,107.818 242.743 C 113.747 248.674,115.005 249.036,131.961 249.696 L 149.850 250.392 150.425 318.160 L 151.000 385.928 157.257 392.182 C 161.854 396.778,165.832 398.666,172.257 399.301 C 182.862 400.350,189.326 397.248,195.440 388.175 L 200.000 381.408 199.971 300.204 C 199.938 211.534,200.067 212.574,188.175 204.560 C 181.845 200.294,179.382 200.000,150.000 200.000 C 120.618 200.000,118.155 200.294,111.825 204.560 M382.171 253.434 C 364.528 259.666,350.000 280.694,350.000 300.000 C 350.000 312.080,355.967 326.072,364.947 335.053 C 381.064 351.169,354.861 350.000,700.000 350.000 C 1045.139 350.000,1018.936 351.169,1035.053 335.053 C 1054.616 315.489,1054.616 284.511,1035.053 264.947 C 1018.925 248.820,1045.293 249.981,699.144 250.158 C 425.412 250.298,390.014 250.664,382.171 253.434 M111.825 504.560 C 102.752 510.674,99.650 517.138,100.699 527.743 C 101.334 534.166,103.223 538.147,107.815 542.743 L 114.067 549.000 151.976 549.621 L 189.884 550.241 146.764 600.459 C 123.048 628.079,102.746 653.000,101.649 655.839 C 100.552 658.677,100.001 666.652,100.426 673.560 C 101.099 684.523,102.016 686.939,107.634 692.560 L 114.071 699.000 172.536 699.517 C 236.756 700.084,237.492 699.970,245.440 688.175 C 253.470 676.259,250.588 662.925,238.175 654.560 C 231.758 650.236,229.561 650.000,195.642 650.000 L 159.875 650.000 202.142 600.835 C 225.388 573.795,245.661 549.270,247.192 546.335 C 250.647 539.714,250.794 520.685,247.441 514.060 C 246.067 511.343,241.897 507.068,238.175 504.560 C 231.529 500.081,230.406 500.000,175.000 500.000 C 119.594 500.000,118.471 500.081,111.825 504.560 M382.171 553.434 C 364.528 559.666,350.000 580.694,350.000 600.000 C 350.000 612.080,355.967 626.072,364.947 635.053 C 381.064 651.169,354.861 650.000,700.000 650.000 C 1045.139 650.000,1018.936 651.169,1035.053 635.053 C 1054.616 615.489,1054.616 584.511,1035.053 564.947 C 1018.925 548.820,1045.293 549.981,699.144 550.158 C 425.412 550.298,390.014 550.664,382.171 553.434 M111.825 804.560 C 102.752 810.674,99.650 817.138,100.699 827.743 C 101.334 834.167,103.223 838.147,107.816 842.743 L 114.068 849.000 157.034 849.610 L 200.000 850.220 200.000 863.110 L 200.000 876.000 183.500 876.007 C 162.850 876.017,155.426 879.777,151.736 892.093 C 149.691 898.918,149.760 901.826,152.127 908.594 C 156.150 920.100,164.376 924.452,184.279 925.604 L 200.000 926.514 200.000 938.257 L 200.000 950.000 159.296 950.000 C 120.237 950.000,118.318 950.184,111.825 954.560 C 102.752 960.674,99.650 967.138,100.699 977.743 C 101.334 984.168,103.222 988.146,107.817 992.743 L 114.071 999.000 172.536 999.517 C 236.756 1000.084,237.492 999.970,245.440 988.175 L 250.000 981.408 249.971 900.204 C 249.938 811.534,250.067 812.574,238.175 804.560 C 231.529 800.081,230.406 800.000,175.000 800.000 C 119.594 800.000,118.471 800.081,111.825 804.560 M382.171 853.434 C 364.528 859.666,350.000 880.694,350.000 900.000 C 350.000 912.080,355.967 926.072,364.947 935.053 C 381.064 951.169,354.861 950.000,700.000 950.000 C 1045.139 950.000,1018.936 951.169,1035.053 935.053 C 1054.616 915.489,1054.616 884.511,1035.053 864.947 C 1018.925 848.820,1045.293 849.981,699.144 850.158 C 425.412 850.298,390.014 850.664,382.171 853.434 " fill="#1D1E23" stroke="none" fill-rule="evenodd"></path></svg>