<svg width="1200" height="1200" viewBox="0 0 1200 1200" fill="none" xmlns="http://www.w3.org/2000/svg"><path d="M100.000 225.000 L 100.000 250.000 125.000 250.000 L 150.000 250.000 150.000 325.000 L 150.000 400.000 175.000 400.000 L 200.000 400.000 200.000 300.000 L 200.000 200.000 150.000 200.000 L 100.000 200.000 100.000 225.000 M350.000 300.000 L 350.000 350.000 700.000 350.000 L 1050.000 350.000 1050.000 300.000 L 1050.000 250.000 700.000 250.000 L 350.000 250.000 350.000 300.000 M100.000 525.000 L 100.000 550.000 145.033 550.000 L 190.066 550.000 145.033 602.492 L 100.000 654.984 100.000 677.492 L 100.000 700.000 175.000 700.000 L 250.000 700.000 250.000 675.000 L 250.000 650.000 204.967 650.000 L 159.934 650.000 204.967 597.508 L 250.000 545.016 250.000 522.508 L 250.000 500.000 175.000 500.000 L 100.000 500.000 100.000 525.000 M350.000 600.000 L 350.000 650.000 700.000 650.000 L 1050.000 650.000 1050.000 600.000 L 1050.000 550.000 700.000 550.000 L 350.000 550.000 350.000 600.000 M100.000 825.000 L 100.000 850.000 150.000 850.000 L 200.000 850.000 200.000 863.000 L 200.000 876.000 175.000 876.000 L 150.000 876.000 150.000 901.000 L 150.000 926.000 175.000 926.000 L 200.000 926.000 200.000 938.000 L 200.000 950.000 150.000 950.000 L 100.000 950.000 100.000 975.000 L 100.000 1000.000 175.000 1000.000 L 250.000 1000.000 250.000 900.000 L 250.000 800.000 175.000 800.000 L 100.000 800.000 100.000 825.000 M350.000 900.000 L 350.000 950.000 700.000 950.000 L 1050.000 950.000 1050.000 900.000 L 1050.000 850.000 700.000 850.000 L 350.000 850.000 350.000 900.000 " fill="#1D1E23" stroke="none" fill-rule="evenodd"></path></svg>