<svg width="1200" height="1200" viewBox="0 0 1200 1200" fill="none" xmlns="http://www.w3.org/2000/svg"><path d="M100.000 225.000 L 100.000 350.000 131.000 350.000 L 162.000 350.000 162.000 256.000 L 162.000 162.000 256.000 162.000 L 350.000 162.000 350.000 131.000 L 350.000 100.000 225.000 100.000 L 100.000 100.000 100.000 225.000 M850.000 131.000 L 850.000 162.000 944.000 162.000 L 1038.000 162.000 1038.000 256.000 L 1038.000 350.000 1069.000 350.000 L 1100.000 350.000 1100.000 225.000 L 1100.000 100.000 975.000 100.000 L 850.000 100.000 850.000 131.000 M289.202 447.188 C 267.842 452.356,252.380 461.401,235.000 478.895 C 217.162 496.850,209.610 510.156,200.636 539.441 C 195.566 555.985,195.247 559.371,195.127 598.000 C 194.979 645.712,197.092 657.501,211.209 687.720 C 218.528 703.385,222.487 708.939,235.477 721.760 C 253.357 739.408,265.438 746.485,287.171 752.044 C 330.469 763.118,372.008 752.222,402.327 721.839 C 429.737 694.371,441.507 662.022,443.384 609.000 C 446.017 534.634,422.024 482.375,373.558 456.906 C 350.145 444.603,316.096 440.680,289.202 447.188 M572.144 447.106 C 541.891 453.667,512.804 474.369,497.451 500.266 C 476.871 534.984,469.283 592.844,478.210 647.000 C 487.334 702.352,518.988 739.721,567.192 752.049 C 580.760 755.519,589.417 756.000,638.320 756.000 L 694.000 756.000 694.000 741.084 L 694.000 726.168 709.500 725.584 L 725.000 725.000 725.000 694.000 L 725.000 663.000 693.500 662.449 L 662.000 661.898 662.000 677.949 L 662.000 694.000 624.500 693.989 C 583.767 693.977,573.923 692.384,565.506 684.445 C 552.737 672.401,546.704 637.540,548.641 587.000 C 550.248 545.066,556.435 522.787,569.062 513.462 C 576.564 507.922,591.817 506.000,628.273 506.000 L 662.000 506.000 662.000 530.051 L 662.000 554.102 693.500 553.551 L 725.000 553.000 725.552 522.500 L 726.104 492.000 710.052 492.000 L 694.000 492.000 694.000 468.000 L 694.000 444.000 639.500 444.159 C 600.913 444.272,581.246 445.132,572.144 447.106 M756.000 600.000 L 756.000 756.000 788.000 756.000 L 820.000 756.000 820.000 694.000 L 820.000 632.000 835.000 632.000 L 850.000 632.000 850.000 647.000 L 850.000 662.000 866.000 662.000 L 882.000 662.000 882.000 678.000 L 882.000 694.000 896.916 694.000 L 911.832 694.000 912.416 709.500 L 913.000 725.000 928.500 725.584 L 944.000 726.168 944.000 741.084 L 944.000 756.000 975.000 756.000 L 1006.000 756.000 1006.000 725.000 L 1006.000 694.000 991.084 694.000 L 976.168 694.000 975.584 678.500 L 975.000 663.000 959.500 662.416 L 944.000 661.832 944.000 615.997 L 944.000 570.162 960.500 569.581 L 977.000 569.000 977.551 537.500 L 978.102 506.000 961.051 506.000 L 944.000 506.000 944.000 475.000 L 944.000 444.000 850.000 444.000 L 756.000 444.000 756.000 600.000 M345.798 511.897 C 356.183 517.195,364.671 531.594,369.437 552.000 C 374.368 573.106,374.346 626.967,369.399 648.208 C 364.809 667.917,355.526 683.377,345.000 688.844 C 334.223 694.442,302.369 694.842,292.603 689.502 C 271.971 678.220,262.399 643.490,264.629 588.000 C 266.722 535.914,277.194 515.095,305.000 507.745 C 314.970 505.109,336.860 507.337,345.798 511.897 M912.000 538.000 L 912.000 570.000 866.000 570.000 L 820.000 570.000 820.000 538.000 L 820.000 506.000 866.000 506.000 L 912.000 506.000 912.000 538.000 M100.000 975.000 L 100.000 1100.000 225.000 1100.000 L 350.000 1100.000 350.000 1069.000 L 350.000 1038.000 256.000 1038.000 L 162.000 1038.000 162.000 944.000 L 162.000 850.000 131.000 850.000 L 100.000 850.000 100.000 975.000 M1038.000 944.000 L 1038.000 1038.000 944.000 1038.000 L 850.000 1038.000 850.000 1069.000 L 850.000 1100.000 975.000 1100.000 L 1100.000 1100.000 1100.000 975.000 L 1100.000 850.000 1069.000 850.000 L 1038.000 850.000 1038.000 944.000 " fill="#1D1E23" stroke="none" fill-rule="evenodd"></path></svg>