<svg width="1200" height="1200" viewBox="0 0 1200 1200" fill="none" xmlns="http://www.w3.org/2000/svg"><path d="M485.388 101.500 C 484.921 102.325,473.102 137.200,459.122 179.000 L 433.703 255.000 412.352 265.341 C 400.608 271.029,382.327 281.523,371.727 288.661 L 352.453 301.640 274.870 285.820 C 232.199 277.119,196.311 270.000,195.119 270.000 C 193.385 270.000,152.598 339.114,106.467 420.219 L 99.935 431.704 153.984 492.352 L 208.033 553.000 206.759 560.981 C 205.063 571.610,205.127 628.915,206.846 639.089 L 208.207 647.142 154.603 707.831 C 125.121 741.209,101.296 769.527,101.659 770.760 C 102.021 771.992,122.964 808.659,148.199 852.241 L 194.081 931.483 265.541 916.844 C 304.843 908.793,340.560 901.453,344.910 900.532 C 352.471 898.932,353.760 899.479,374.112 912.929 C 385.822 920.668,404.355 931.374,415.294 936.720 L 435.185 946.440 460.756 1023.239 L 486.327 1100.039 580.515 1099.519 L 674.704 1099.000 699.629 1022.784 L 724.554 946.568 744.575 936.784 C 755.587 931.403,774.282 920.599,786.120 912.776 L 807.643 898.551 884.321 914.236 C 926.495 922.863,962.350 929.931,964.000 929.942 C 966.310 929.959,1029.954 823.004,1057.454 772.891 C 1059.749 768.710,1056.386 764.462,1005.864 707.709 L 951.819 647.000 953.061 638.307 C 954.707 626.789,954.654 572.729,952.987 561.610 L 951.671 552.833 1005.335 492.132 C 1034.851 458.747,1058.735 430.540,1058.411 429.450 C 1058.087 428.359,1037.127 391.693,1011.833 347.969 L 965.843 268.471 943.422 273.179 C 931.090 275.768,895.346 283.149,863.992 289.580 L 806.983 301.272 787.992 288.514 C 777.546 281.497,759.100 270.800,747.000 264.741 L 725.000 253.727 699.035 176.863 L 673.070 100.000 579.653 100.000 C 528.274 100.000,485.854 100.675,485.388 101.500 M698.367 355.514 C 735.571 371.971,747.381 418.521,722.542 450.802 C 694.596 487.123,639.702 481.257,617.621 439.590 C 611.036 427.164,611.004 399.051,617.560 385.745 C 625.575 369.477,641.560 356.366,659.000 351.758 C 668.565 349.231,688.453 351.128,698.367 355.514 M583.116 386.500 C 579.966 397.000,579.701 425.041,582.662 434.546 L 585.636 444.092 467.963 443.546 C 352.669 443.011,350.179 442.917,344.769 438.876 C 330.335 428.097,326.480 412.987,334.393 398.211 C 343.472 381.257,337.318 382.000,468.702 382.000 L 584.467 382.000 583.116 386.500 M658.823 385.782 C 644.337 394.615,639.264 408.259,644.940 423.121 C 657.075 454.897,704.333 446.816,704.333 412.964 C 704.333 389.346,678.390 373.850,658.823 385.782 M813.869 385.933 C 828.849 393.575,834.417 416.451,824.523 429.703 C 815.771 441.426,811.523 442.950,785.580 443.674 C 762.803 444.310,761.524 444.140,762.944 440.674 C 763.772 438.653,765.394 430.700,766.549 423.000 C 768.224 411.832,768.036 406.269,765.618 395.500 L 762.588 382.000 784.374 382.000 C 802.089 382.000,807.600 382.735,813.869 385.933 M509.002 542.173 C 523.885 547.741,538.259 562.115,543.827 576.998 C 559.998 620.219,528.549 663.978,483.000 661.634 C 424.563 658.627,402.637 584.368,449.919 549.597 C 466.210 537.616,489.128 534.737,509.002 542.173 M396.071 574.813 C 391.224 587.563,391.729 614.753,397.068 628.500 C 398.310 631.697,396.636 631.996,377.714 631.956 C 361.854 631.922,355.079 631.040,348.802 628.189 C 332.337 620.712,325.737 602.197,333.860 586.274 C 340.897 572.480,347.046 570.016,374.450 570.007 L 397.901 570.000 396.071 574.813 M466.245 577.017 C 452.361 589.560,451.684 608.008,464.612 621.539 C 479.489 637.109,504.344 632.947,513.858 613.293 C 516.136 608.587,518.000 602.605,518.000 600.000 C 518.000 592.123,510.127 578.405,503.122 574.075 C 498.532 571.238,493.107 570.000,485.270 570.000 C 475.207 570.000,473.187 570.745,466.245 577.017 M815.419 573.929 C 823.057 578.586,830.013 591.253,829.967 600.420 C 829.915 610.785,822.271 622.350,812.068 627.500 L 803.152 632.000 688.869 632.000 L 574.586 632.000 577.430 621.500 C 580.232 611.158,579.917 584.764,576.870 574.500 L 575.533 570.000 692.267 570.007 C 804.619 570.015,809.241 570.162,815.419 573.929 M607.642 732.137 C 654.062 755.333,653.119 819.720,606.000 844.264 C 598.618 848.109,593.944 848.951,580.000 848.948 C 565.440 848.944,561.534 848.174,552.785 843.583 C 506.795 819.446,506.549 755.028,552.358 732.137 C 562.865 726.886,566.858 726.000,580.000 726.000 C 593.142 726.000,597.135 726.886,607.642 732.137 M488.676 764.500 C 486.507 775.501,486.546 798.383,488.755 810.622 L 490.491 820.245 422.745 819.622 C 345.540 818.913,344.056 818.633,334.932 803.064 C 329.364 793.564,328.703 784.975,332.788 775.199 C 335.689 768.255,346.090 759.114,353.000 757.436 C 355.200 756.901,387.004 756.360,423.676 756.232 L 490.352 756.000 488.676 764.500 M565.970 760.500 C 554.789 766.167,549.231 775.416,549.231 788.351 C 549.231 815.810,584.453 828.419,603.254 807.690 C 617.032 792.498,611.975 768.338,593.235 759.827 C 582.420 754.916,576.708 755.057,565.970 760.500 M816.871 762.764 C 830.539 773.193,833.419 789.760,824.166 804.731 C 815.711 818.412,812.780 818.926,739.269 819.625 C 703.117 819.969,672.405 819.816,671.020 819.285 C 669.024 818.518,669.100 816.116,671.392 807.659 C 674.177 797.387,673.860 775.931,670.710 761.402 L 669.496 755.805 739.407 756.402 L 809.318 757.000 816.871 762.764 " fill="#1D1E23" stroke="none" fill-rule="evenodd"></path></svg>