<svg width="1200" height="1200" viewBox="0 0 1200 1200" fill="none" xmlns="http://www.w3.org/2000/svg"><path d="M341.000 200.000 L 390.970 250.000 474.129 250.000 C 568.624 250.000,570.336 249.769,585.053 235.053 C 594.033 226.072,600.000 212.080,600.000 200.000 C 600.000 187.920,594.033 173.928,585.053 164.947 C 569.668 149.562,574.379 150.000,424.159 150.000 L 291.030 150.000 341.000 200.000 M722.445 153.113 C 719.449 155.212,718.000 158.283,718.000 162.538 C 718.000 168.144,724.754 175.616,778.474 229.443 L 838.949 290.037 736.982 392.018 L 635.014 494.000 670.507 529.493 L 706.000 564.986 808.510 462.490 L 911.020 359.995 971.997 420.997 C 1021.856 470.876,1033.960 482.000,1038.374 482.000 C 1050.450 482.000,1050.000 488.448,1050.000 315.555 C 1050.000 160.667,1049.932 157.932,1046.000 154.000 C 1042.068 150.068,1039.333 150.000,884.445 150.000 C 745.082 150.000,726.377 150.359,722.445 153.113 M119.075 166.113 C 100.224 175.516,91.119 190.136,91.119 211.000 C 91.119 230.198,94.682 236.003,124.857 265.970 L 150.000 290.940 150.000 625.372 C 150.000 861.800,150.648 962.909,152.210 970.402 C 160.026 1007.883,192.117 1039.974,229.598 1047.790 C 237.091 1049.352,338.200 1050.000,574.628 1050.000 L 909.060 1050.000 934.030 1075.143 C 947.764 1088.972,962.437 1102.072,966.637 1104.254 C 998.101 1120.599,1037.910 1096.594,1037.980 1061.232 C 1038.027 1037.964,1072.041 1073.688,601.191 602.487 C 284.964 286.024,166.725 168.904,160.522 165.987 C 149.181 160.654,129.901 160.712,119.075 166.113 M469.015 660.062 C 441.313 688.059,435.714 697.268,435.714 714.834 C 435.714 742.518,457.278 764.286,484.701 764.286 C 502.790 764.286,511.729 758.897,539.938 730.985 L 565.100 706.088 687.044 828.044 L 808.988 950.000 529.494 950.000 L 250.000 950.000 250.000 670.506 L 250.000 391.012 371.956 512.956 L 493.912 634.900 469.015 660.062 M983.181 603.147 C 971.791 607.320,962.844 614.851,956.545 625.568 L 951.000 635.000 950.443 722.000 L 949.886 809.000 999.943 858.985 L 1050.000 908.970 1050.000 775.841 C 1050.000 625.621,1050.438 630.332,1035.053 614.947 C 1021.434 601.329,1000.896 596.656,983.181 603.147 " fill="#1D1E23" stroke="none" fill-rule="evenodd"></path></svg>