<svg width="1200" height="1200" viewBox="0 0 1200 1200" fill="none" xmlns="http://www.w3.org/2000/svg"><path d="M756.143 152.330 C 729.930 159.858,714.369 189.915,723.056 216.238 C 726.248 225.912,731.020 231.457,770.240 271.067 L 813.873 315.133 563.964 565.036 L 314.056 814.938 269.528 770.711 C 221.471 722.979,219.187 721.391,198.845 721.574 C 185.660 721.693,172.879 727.234,163.489 736.903 C 149.796 751.002,150.000 748.757,150.000 885.000 C 150.000 1023.113,149.667 1019.773,164.947 1035.053 C 180.229 1050.334,176.875 1050.000,315.105 1050.000 C 417.344 1050.000,438.861 1049.519,445.780 1047.077 C 471.510 1038.000,485.477 1009.621,476.944 983.762 C 473.752 974.088,468.980 968.543,429.760 928.933 L 386.127 884.867 636.036 634.964 L 885.944 385.062 930.472 429.365 C 973.273 471.950,975.459 473.800,986.843 477.076 C 996.833 479.950,1000.332 480.115,1009.212 478.127 C 1020.790 475.536,1033.383 467.942,1039.885 459.630 C 1049.960 446.751,1050.000 446.175,1050.000 315.105 C 1050.000 176.875,1050.334 180.229,1035.053 164.947 C 1019.747 149.642,1023.145 149.977,885.144 150.180 C 811.536 150.289,760.275 151.143,756.143 152.330 " fill="#1D1E23" stroke="none" fill-rule="evenodd"></path></svg>