<svg width="1200" height="1200" viewBox="0 0 1200 1200" fill="none" xmlns="http://www.w3.org/2000/svg"><path d="M229.020 152.350 C 192.964 159.226,159.965 192.414,152.210 229.598 C 149.085 244.585,149.085 955.415,152.210 970.402 C 160.026 1007.883,192.117 1039.974,229.598 1047.790 C 244.585 1050.915,955.415 1050.915,970.402 1047.790 C 1007.883 1039.974,1039.974 1007.883,1047.790 970.402 C 1049.296 963.181,1050.000 909.278,1050.000 801.258 C 1050.000 622.632,1050.633 630.528,1035.053 614.947 C 1015.489 595.384,984.511 595.384,964.947 614.947 C 949.579 630.316,950.000 625.838,950.000 773.993 C 950.000 923.021,950.295 919.811,935.233 934.873 C 918.905 951.200,945.501 950.000,600.000 950.000 C 254.861 950.000,281.064 951.169,264.947 935.053 C 248.831 918.936,250.000 945.139,250.000 600.000 C 250.000 254.861,248.831 281.064,264.947 264.947 C 280.325 249.570,275.720 250.000,425.000 250.000 C 574.280 250.000,569.675 250.430,585.053 235.053 C 604.616 215.489,604.616 184.511,585.053 164.947 C 569.442 149.337,577.503 149.972,398.144 150.224 C 306.824 150.352,234.747 151.258,229.020 152.350 M732.171 153.434 C 714.528 159.666,700.000 180.694,700.000 200.000 C 700.000 219.819,714.545 240.402,732.991 246.688 C 741.291 249.516,752.673 250.000,810.836 250.000 L 878.960 250.000 646.623 482.500 L 414.287 715.000 410.913 726.804 C 405.368 746.206,410.060 763.864,424.325 777.276 C 438.611 790.708,454.278 794.494,473.196 789.087 L 485.000 785.713 717.500 553.377 L 950.000 321.040 950.000 389.164 C 950.000 466.953,950.582 470.687,964.947 485.053 C 984.511 504.616,1015.489 504.616,1035.053 485.053 C 1050.430 469.675,1050.000 474.280,1050.000 325.000 C 1050.000 175.720,1050.430 180.325,1035.053 164.947 C 1019.646 149.541,1024.424 149.980,874.144 150.158 C 758.932 150.295,739.811 150.736,732.171 153.434 " fill="#1D1E23" stroke="none" fill-rule="evenodd"></path></svg>