<svg width="1200" height="1200" viewBox="0 0 1200 1200" fill="none" xmlns="http://www.w3.org/2000/svg"><path d="M637.000 69.831 C 624.872 75.506,460.000 241.466,460.000 247.999 C 460.000 254.568,622.730 418.030,635.387 424.175 C 651.427 431.963,669.229 428.766,680.735 416.030 C 687.103 408.981,691.978 397.695,691.978 390.000 C 691.978 388.350,690.998 383.400,689.801 379.000 C 688.021 372.458,679.925 363.255,645.374 328.500 L 603.123 286.000 645.805 286.000 C 693.409 286.000,717.434 288.687,753.636 298.058 C 873.269 329.026,980.974 436.731,1011.942 556.364 C 1020.707 590.224,1024.000 617.160,1024.000 655.000 C 1024.000 758.168,989.108 842.535,916.122 915.848 C 843.228 989.069,758.334 1024.269,654.000 1024.533 C 615.526 1024.631,592.703 1022.286,558.234 1014.694 C 518.413 1005.924,491.540 995.342,453.064 973.283 C 436.452 963.759,434.165 963.003,422.064 963.040 C 411.074 963.074,407.666 963.979,400.599 968.741 C 385.883 978.655,380.191 992.123,384.003 1008.011 C 386.716 1019.322,393.853 1026.762,413.359 1038.610 C 500.746 1091.695,635.849 1113.178,742.814 1090.997 C 868.423 1064.950,982.426 979.753,1045.222 865.000 C 1084.992 792.325,1102.281 719.823,1099.354 638.000 C 1095.143 520.329,1049.827 420.114,962.748 335.903 C 925.344 299.731,892.044 276.037,847.849 254.149 C 784.685 222.867,723.443 210.000,637.720 210.000 L 603.129 210.000 643.332 169.500 C 665.444 147.225,685.159 125.850,687.144 122.000 C 696.510 103.831,688.504 80.595,669.636 71.193 C 657.359 65.075,647.999 64.684,637.000 69.831 M318.887 391.940 C 314.425 392.614,306.775 395.543,301.887 398.448 C 288.461 406.428,81.468 614.855,75.904 625.997 C 70.288 637.245,69.706 653.647,74.484 666.025 C 77.365 673.488,97.441 694.466,190.484 787.239 C 295.160 891.610,303.666 899.606,312.552 901.988 C 325.491 905.457,342.125 903.497,352.594 897.270 C 363.425 890.827,574.500 679.168,578.961 670.275 C 583.688 660.855,585.044 643.950,581.988 632.552 C 579.606 623.668,571.650 615.200,468.214 511.445 C 392.713 435.713,354.431 398.692,349.000 396.161 C 339.313 391.646,329.723 390.302,318.887 391.940 M413.509 568.509 L 498.000 653.018 413.000 738.000 L 328.000 822.982 243.000 738.000 L 158.000 653.018 242.491 568.509 C 288.961 522.029,327.440 484.000,328.000 484.000 C 328.560 484.000,367.039 522.029,413.509 568.509 " fill="#1D1E23" stroke="none" fill-rule="evenodd"></path></svg>