<svg width="1200" height="1200" viewBox="0 0 1200 1200" fill="none" xmlns="http://www.w3.org/2000/svg"><path d="M577.000 102.327 C 571.500 103.361,559.350 107.855,550.000 112.314 L 533.000 120.423 409.404 243.711 C 341.427 311.520,282.565 371.858,278.601 377.796 C 274.637 383.734,269.086 394.984,266.265 402.796 C 261.906 414.870,261.127 420.449,261.068 440.000 C 261.012 459.007,261.808 465.340,265.656 476.478 C 268.217 483.891,271.240 490.530,272.374 491.231 C 273.509 491.933,286.039 480.930,300.219 466.782 C 323.304 443.748,326.000 440.336,326.000 434.160 C 326.000 430.367,327.778 423.604,329.952 419.131 C 335.561 407.592,570.260 173.299,580.436 169.082 C 584.525 167.387,593.329 166.000,600.000 166.000 C 606.671 166.000,615.475 167.387,619.564 169.082 C 629.740 173.299,864.439 407.592,870.048 419.131 C 875.276 429.888,875.332 449.968,870.166 461.000 C 867.623 466.429,827.623 507.678,745.709 589.340 C 629.106 705.587,624.631 709.788,614.137 712.840 C 600.671 716.757,599.267 716.755,585.918 712.790 C 577.223 710.208,572.149 706.699,559.968 694.845 L 544.825 680.110 521.913 703.151 L 499.000 726.192 517.022 743.736 C 529.470 755.853,539.059 763.233,548.022 767.596 C 582.217 784.241,617.313 784.277,652.000 767.701 C 663.802 762.062,676.498 750.036,789.730 637.245 C 868.392 558.889,917.341 508.621,922.260 501.144 C 943.304 469.156,945.378 425.942,927.665 388.532 C 921.713 375.962,912.223 365.953,794.129 247.692 L 667.000 120.384 650.000 112.330 C 625.282 100.619,602.615 97.513,577.000 102.327 M721.985 397.927 C 708.205 399.732,698.306 402.918,683.000 410.474 C 672.674 415.572,653.601 433.739,546.282 540.699 C 477.688 609.065,418.530 669.655,414.821 675.344 C 406.110 688.704,398.402 711.825,396.851 729.239 C 395.250 747.231,399.725 768.443,409.249 788.000 C 415.884 801.626,421.288 807.764,468.227 855.000 L 519.901 907.000 542.941 884.042 L 565.981 861.084 517.250 812.042 C 477.241 771.777,467.891 761.309,465.008 753.552 C 460.869 742.417,461.564 726.605,466.660 715.946 C 468.620 711.847,520.923 658.153,591.516 587.772 C 722.653 457.029,716.926 461.937,738.232 462.044 C 751.235 462.109,763.385 468.598,778.511 483.554 L 792.021 496.914 815.005 473.995 L 837.988 451.077 822.782 435.781 C 814.418 427.368,802.046 417.196,795.288 413.178 C 773.980 400.509,746.282 394.746,721.985 397.927 M413.202 423.054 C 406.713 424.698,395.463 428.886,388.202 432.361 C 376.102 438.152,364.309 449.372,246.865 566.840 C 127.755 685.974,118.281 695.952,112.340 708.511 C 95.958 743.141,95.959 775.471,112.341 810.000 L 120.407 827.000 246.704 953.296 L 373.000 1079.593 390.000 1087.659 C 424.543 1104.048,456.922 1104.043,491.489 1087.641 C 503.992 1081.708,514.292 1071.975,629.602 957.115 C 699.032 887.956,757.443 828.143,761.520 822.030 C 774.876 802.007,778.776 788.309,778.895 761.000 C 778.983 740.886,778.246 734.818,774.344 723.522 C 771.783 716.109,768.760 709.470,767.626 708.769 C 766.492 708.068,754.414 718.619,740.785 732.214 C 720.866 752.086,715.776 758.313,714.835 763.967 C 711.640 783.149,713.686 780.842,589.269 905.554 C 506.046 988.974,466.391 1027.374,460.530 1030.218 C 450.724 1034.976,434.511 1035.755,422.818 1032.029 C 416.489 1030.012,392.208 1006.818,295.350 910.269 C 209.228 824.421,174.341 788.357,170.850 781.566 C 165.076 770.335,164.288 752.003,169.082 740.436 C 173.733 729.212,407.872 494.999,420.000 489.439 C 431.318 484.249,450.276 484.017,460.107 488.948 C 463.898 490.850,476.226 501.524,487.502 512.669 L 508.003 532.932 531.002 509.998 L 554.000 487.065 532.500 465.453 C 508.451 441.277,497.845 433.648,478.357 426.503 C 461.243 420.228,430.735 418.613,413.202 423.054 M384.467 566.532 L 361.999 589.064 384.531 611.533 L 407.064 634.001 429.999 611.001 L 452.933 588.001 431.001 566.001 C 418.938 553.900,408.588 544.000,408.001 544.000 C 407.415 544.000,396.824 554.139,384.467 566.532 M906.478 566.521 L 884.021 589.042 955.054 660.021 C 1000.584 705.517,1027.507 733.919,1030.043 739.131 C 1035.810 750.982,1035.422 769.366,1029.150 781.566 C 1025.659 788.357,990.772 824.421,904.650 910.269 C 776.473 1038.037,780.343 1034.708,760.000 1034.708 C 741.868 1034.708,737.155 1031.628,701.947 996.768 L 668.893 964.041 645.947 987.104 L 623.000 1010.167 659.000 1045.621 C 689.136 1075.300,697.204 1082.133,708.532 1087.574 C 744.977 1105.076,783.508 1103.523,819.239 1083.110 C 825.650 1079.447,871.997 1034.545,954.291 952.267 L 1079.581 827.000 1087.653 810.000 C 1104.057 775.451,1104.046 743.009,1087.618 708.511 C 1081.810 696.316,1073.880 687.648,1006.175 619.500 C 964.920 577.975,930.664 544.000,930.051 544.000 C 929.437 544.000,918.829 554.134,906.478 566.521 M622.460 602.539 L 599.984 625.078 615.999 640.999 L 632.014 656.920 655.001 633.999 L 677.988 611.077 662.541 595.538 C 654.045 586.992,646.608 580.000,646.014 580.000 C 645.421 580.000,634.821 590.143,622.460 602.539 " fill="#1D1E23" stroke="none" fill-rule="evenodd"></path></svg>