<svg width="1200" height="1200" viewBox="0 0 1200 1200" fill="none" xmlns="http://www.w3.org/2000/svg"><path d="M556.000 101.960 C 409.550 116.625,282.377 188.710,196.161 305.928 C 102.041 433.891,75.057 603.555,124.789 754.685 C 187.623 945.632,358.059 1080.788,557.950 1098.183 C 624.489 1103.974,659.156 1093.792,691.830 1058.863 C 705.067 1044.713,717.779 1020.855,722.128 1002.000 C 730.006 967.844,720.895 928.225,698.223 898.052 C 687.324 883.546,685.186 876.755,688.449 867.005 C 689.852 862.813,693.538 857.496,696.640 855.191 C 702.027 851.188,705.349 850.947,770.640 849.815 C 830.342 848.780,841.493 848.085,858.681 844.323 C 887.858 837.938,912.135 829.209,937.953 815.822 C 1018.265 774.179,1075.255 698.602,1094.152 608.681 C 1105.572 554.339,1099.843 485.375,1078.583 421.263 C 1042.017 310.997,957.905 215.953,847.000 159.582 C 789.180 130.193,739.290 114.629,672.000 104.989 C 646.656 101.357,579.521 99.604,556.000 101.960 M506.587 307.603 C 522.573 315.198,534.980 327.679,542.773 344.000 C 548.293 355.561,548.980 358.993,548.980 375.000 C 548.980 390.977,548.286 394.461,542.801 406.000 C 534.950 422.516,522.528 434.942,506.000 442.811 C 494.453 448.308,490.988 449.000,475.000 449.000 C 459.012 449.000,455.547 448.308,444.000 442.811 C 427.472 434.942,415.050 422.516,407.199 406.000 C 401.714 394.461,401.020 390.977,401.020 375.000 C 401.020 359.023,401.714 355.539,407.199 344.000 C 417.108 323.154,435.862 307.508,457.492 302.044 C 471.096 298.608,492.837 301.069,506.587 307.603 M756.587 307.603 C 772.573 315.198,784.980 327.679,792.773 344.000 C 798.293 355.561,798.980 358.993,798.980 375.000 C 798.980 390.977,798.286 394.461,792.801 406.000 C 784.950 422.516,772.528 434.942,756.000 442.811 C 744.453 448.308,740.988 449.000,725.000 449.000 C 709.012 449.000,705.547 448.308,694.000 442.811 C 677.472 434.942,665.050 422.516,657.199 406.000 C 651.714 394.461,651.020 390.977,651.020 375.000 C 651.020 359.023,651.714 355.539,657.199 344.000 C 667.108 323.154,685.862 307.508,707.492 302.044 C 721.096 298.608,742.837 301.069,756.587 307.603 M356.587 507.603 C 372.573 515.198,384.980 527.679,392.773 544.000 C 398.293 555.561,398.980 558.993,398.980 575.000 C 398.980 590.977,398.286 594.461,392.801 606.000 C 384.950 622.516,372.528 634.942,356.000 642.811 C 344.453 648.308,340.988 649.000,325.000 649.000 C 309.012 649.000,305.547 648.308,294.000 642.811 C 277.472 634.942,265.050 622.516,257.199 606.000 C 251.714 594.461,251.020 590.977,251.020 575.000 C 251.020 559.023,251.714 555.539,257.199 544.000 C 267.108 523.154,285.862 507.508,307.492 502.044 C 321.096 498.608,342.837 501.069,356.587 507.603 M906.587 507.603 C 922.573 515.198,934.980 527.679,942.773 544.000 C 948.293 555.561,948.980 558.993,948.980 575.000 C 948.980 590.977,948.286 594.461,942.801 606.000 C 934.950 622.516,922.528 634.942,906.000 642.811 C 894.453 648.308,890.988 649.000,875.000 649.000 C 859.012 649.000,855.547 648.308,844.000 642.811 C 827.472 634.942,815.050 622.516,807.199 606.000 C 801.714 594.461,801.020 590.977,801.020 575.000 C 801.020 559.023,801.714 555.539,807.199 544.000 C 817.108 523.154,835.862 507.508,857.492 502.044 C 871.096 498.608,892.837 501.069,906.587 507.603 " fill="#1D1E23" stroke="none" fill-rule="evenodd"></path></svg>