<svg width="1200" height="1200" viewBox="0 0 1200 1200" fill="none" xmlns="http://www.w3.org/2000/svg"><path d="M267.815 254.540 L 259.000 259.080 155.604 465.040 C 98.735 578.318,51.610 673.925,50.881 677.500 C 48.955 686.939,51.412 696.995,57.376 704.082 C 61.016 708.408,78.984 718.486,116.797 737.412 C 146.608 752.334,173.616 765.298,176.813 766.221 C 184.233 768.365,197.629 765.062,204.685 759.349 C 207.639 756.957,213.428 748.558,217.548 740.684 L 225.040 726.369 359.020 825.494 C 500.104 929.874,510.916 936.930,542.000 944.906 C 583.949 955.669,635.107 947.712,671.351 924.787 C 687.848 914.353,800.170 827.504,798.867 826.190 C 798.219 825.536,762.883 796.104,720.344 760.786 L 643.000 696.572 608.000 714.294 C 567.388 734.859,554.533 738.773,528.000 738.656 C 497.497 738.520,470.705 729.460,446.419 711.067 C 432.279 700.358,396.444 658.224,389.511 644.154 C 385.901 636.829,385.000 631.603,385.000 618.000 C 385.000 587.421,381.267 592.333,479.306 493.900 L 566.057 406.799 546.350 395.400 L 526.642 384.000 461.402 384.000 L 396.161 384.000 406.397 362.948 C 417.566 339.976,419.112 329.820,413.187 318.361 C 408.259 308.832,400.836 304.283,344.368 276.187 C 286.666 247.478,283.348 246.539,267.815 254.540 M822.360 276.857 C 792.717 291.629,765.317 306.478,761.470 309.856 C 753.700 316.678,749.022 330.268,751.259 339.519 C 751.987 342.533,756.961 353.775,762.310 364.500 L 772.036 384.000 727.525 384.000 L 683.013 384.000 566.654 500.346 L 450.295 616.692 462.648 631.710 C 480.481 653.393,486.852 659.351,498.528 665.267 C 510.966 671.570,529.574 673.584,543.390 670.123 C 548.676 668.799,574.366 656.529,600.479 642.858 C 626.593 629.186,649.093 618.022,650.479 618.049 C 651.866 618.076,698.413 655.778,753.919 701.830 L 854.837 785.561 874.603 770.281 C 885.474 761.876,904.591 747.120,917.084 737.488 L 939.799 719.976 949.109 738.001 C 960.247 759.567,966.080 764.461,982.017 765.614 C 993.137 766.418,994.091 766.031,1049.504 738.214 C 1085.144 720.322,1107.226 708.073,1109.849 704.738 C 1115.227 697.901,1118.471 685.617,1116.758 678.575 C 1114.273 668.358,910.512 263.074,905.536 258.452 C 900.246 253.538,890.244 250.000,881.641 250.000 C 878.679 250.000,852.002 262.086,822.360 276.857 " fill="#1D1E23" stroke="none" fill-rule="evenodd"></path></svg>