<svg width="1200" height="1200" viewBox="0 0 1200 1200" fill="none" xmlns="http://www.w3.org/2000/svg"><path d="M384.000 251.209 C 343.854 258.643,310.301 290.802,302.210 329.598 C 299.099 344.519,299.099 855.481,302.210 870.402 C 311.616 915.505,353.994 950.000,400.000 950.000 C 446.006 950.000,488.384 915.505,497.790 870.402 C 500.901 855.481,500.901 344.519,497.790 329.598 C 488.657 285.805,450.029 253.060,405.087 251.015 C 396.239 250.612,386.750 250.699,384.000 251.209 M784.000 251.209 C 743.854 258.643,710.301 290.802,702.210 329.598 C 699.099 344.519,699.099 855.481,702.210 870.402 C 711.616 915.505,753.994 950.000,800.000 950.000 C 846.006 950.000,888.384 915.505,897.790 870.402 C 900.901 855.481,900.901 344.519,897.790 329.598 C 888.657 285.805,850.029 253.060,805.087 251.015 C 796.239 250.612,786.750 250.699,784.000 251.209 " fill="#1D1E23" stroke="none" fill-rule="evenodd"></path></svg>