<svg width="1200" height="1200" viewBox="0 0 1200 1200" fill="none" xmlns="http://www.w3.org/2000/svg"><path d="M556.000 101.962 C 416.815 115.884,295.232 181.194,209.663 288.000 C 73.683 457.729,63.352 695.839,184.124 876.644 C 338.485 1107.735,647.309 1169.297,878.000 1014.964 C 1107.746 861.264,1168.863 552.043,1014.964 322.000 C 936.423 204.599,815.946 128.109,674.644 105.934 C 645.457 101.354,582.987 99.262,556.000 101.962 M550.000 600.000 L 550.000 800.000 500.000 800.000 L 450.000 800.000 450.000 600.000 L 450.000 400.000 500.000 400.000 L 550.000 400.000 550.000 600.000 M750.000 600.000 L 750.000 800.000 700.000 800.000 L 650.000 800.000 650.000 600.000 L 650.000 400.000 700.000 400.000 L 750.000 400.000 750.000 600.000 " fill="#1D1E23" stroke="none" fill-rule="evenodd"></path></svg>