<svg width="1200" height="1200" viewBox="0 0 1200 1200" fill="none" xmlns="http://www.w3.org/2000/svg"><path d="M50.000 600.000 L 50.000 1150.000 600.000 1150.000 L 1150.000 1150.000 1150.000 749.495 L 1150.000 348.990 1000.495 199.495 L 850.990 50.000 450.495 50.000 L 50.000 50.000 50.000 600.000 M800.000 275.000 L 800.000 400.000 925.000 400.000 L 1050.000 400.000 1050.000 725.000 L 1050.000 1050.000 600.000 1050.000 L 150.000 1050.000 150.000 600.000 L 150.000 150.000 475.000 150.000 L 800.000 150.000 800.000 275.000 M198.000 776.000 L 198.000 950.000 236.000 950.000 L 274.000 950.000 274.000 886.000 L 274.000 822.000 304.552 822.000 C 365.871 822.000,386.323 815.899,410.239 790.473 C 432.874 766.410,437.809 750.518,437.935 701.292 L 438.000 675.585 430.512 661.292 C 421.623 644.325,399.383 621.038,385.786 614.462 C 380.718 612.010,371.731 609.087,365.815 607.965 C 354.933 605.901,261.899 602.106,220.500 602.037 L 198.000 602.000 198.000 776.000 M482.000 776.292 L 482.000 950.584 548.500 949.354 C 622.456 947.986,637.952 946.120,657.569 936.218 C 673.752 928.048,696.241 906.668,706.036 890.141 C 714.827 875.306,724.177 848.307,728.249 826.000 C 732.601 802.158,731.636 739.719,726.549 716.000 C 715.708 665.455,696.235 637.598,655.645 614.571 L 641.000 606.263 584.239 604.132 C 553.021 602.959,517.246 602.000,504.739 602.000 L 482.000 602.000 482.000 776.292 M780.000 776.000 L 780.000 950.000 817.000 950.000 L 854.000 950.000 854.000 877.000 L 854.000 804.000 924.000 804.000 L 994.000 804.000 994.000 773.000 L 994.000 742.000 923.693 742.000 L 853.385 742.000 854.693 717.686 C 855.412 704.313,856.000 686.763,856.000 678.686 L 856.000 664.000 893.500 663.995 C 914.125 663.992,949.225 663.399,971.500 662.677 L 1012.000 661.365 1012.000 631.683 L 1012.000 602.000 896.000 602.000 L 780.000 602.000 780.000 776.000 M590.070 662.103 C 612.929 664.449,621.154 667.747,632.467 679.104 C 645.142 691.829,648.197 700.733,650.121 730.561 C 653.444 782.073,651.876 828.177,646.068 849.747 C 643.148 860.591,632.328 876.076,624.510 880.601 C 614.464 886.415,598.912 889.882,576.500 891.306 L 556.000 892.608 556.000 776.304 L 556.000 660.000 562.788 660.000 C 566.522 660.000,578.798 660.946,590.070 662.103 M331.716 665.893 C 342.539 667.940,349.951 673.228,354.497 682.142 C 359.631 692.210,359.540 734.111,354.363 744.031 C 347.867 756.480,336.825 760.236,303.009 761.502 L 274.000 762.588 274.000 712.002 L 274.000 661.416 298.500 662.830 C 311.975 663.608,326.922 664.986,331.716 665.893 " fill="#1D1E23" stroke="none" fill-rule="evenodd"></path></svg>