<svg width="1200" height="1200" viewBox="0 0 1200 1200" fill="none" xmlns="http://www.w3.org/2000/svg"><path d="M136.000 52.173 C 119.744 55.306,95.975 68.665,82.259 82.378 C 68.310 96.324,56.035 118.858,52.180 137.598 C 49.102 152.562,49.102 1047.438,52.180 1062.402 C 53.379 1068.231,57.872 1080.358,62.165 1089.351 C 76.661 1119.718,105.079 1141.966,137.000 1147.936 C 145.709 1149.565,274.618 1150.019,607.000 1149.590 L 1065.000 1149.000 1077.000 1144.442 C 1103.931 1134.214,1125.790 1114.333,1137.956 1089.000 C 1142.182 1080.200,1146.621 1068.231,1147.820 1062.402 C 1149.343 1054.999,1150.000 950.512,1150.000 715.844 L 1150.000 379.884 989.500 214.984 L 829.000 50.084 487.000 50.261 C 298.900 50.359,140.950 51.219,136.000 52.173 M774.486 297.500 L 775.000 435.000 908.500 435.514 L 1042.000 436.028 1042.000 738.014 L 1042.000 1040.000 600.000 1040.000 L 158.000 1040.000 158.000 600.000 L 158.000 160.000 465.986 160.000 L 773.972 160.000 774.486 297.500 M198.000 776.000 L 198.000 950.000 236.000 950.000 L 274.000 950.000 274.000 886.000 L 274.000 822.000 314.211 822.000 C 344.312 822.000,357.476 821.209,366.569 818.853 C 400.968 809.939,424.454 786.746,435.279 751.000 C 440.403 734.082,440.403 689.918,435.279 673.000 C 424.326 636.831,401.040 614.295,365.080 605.061 C 355.381 602.571,338.700 602.000,275.580 602.000 L 198.000 602.000 198.000 776.000 M482.000 776.040 L 482.000 950.346 553.500 949.534 C 622.950 948.745,625.468 948.578,641.323 943.712 C 691.462 928.325,720.550 888.033,729.864 821.066 C 732.951 798.874,732.503 746.198,729.046 724.885 C 718.866 662.123,691.443 624.154,645.000 608.517 L 629.000 603.130 555.500 602.432 L 482.000 601.735 482.000 776.040 M780.000 776.000 L 780.000 950.000 817.000 950.000 L 854.000 950.000 854.000 877.000 L 854.000 804.000 924.000 804.000 L 994.000 804.000 994.000 773.000 L 994.000 742.000 923.958 742.000 L 853.915 742.000 854.458 702.500 L 855.000 663.000 933.500 662.477 L 1012.000 661.954 1012.000 631.977 L 1012.000 602.000 896.000 602.000 L 780.000 602.000 780.000 776.000 M612.137 663.188 C 627.892 667.813,642.140 682.850,648.262 701.316 C 652.418 713.850,652.862 719.438,653.550 767.817 C 654.368 825.395,652.946 840.002,644.770 858.000 C 633.226 883.415,615.264 892.000,573.633 892.000 L 556.000 892.000 556.000 776.000 L 556.000 660.000 578.637 660.000 C 593.477 660.000,605.016 661.098,612.137 663.188 M336.906 664.217 C 348.488 667.433,357.007 676.917,359.734 689.633 C 364.365 711.223,361.453 739.071,353.509 749.170 C 345.358 759.532,336.067 761.908,303.500 761.956 L 274.000 762.000 274.000 712.000 L 274.000 662.000 301.500 662.011 C 316.625 662.017,332.558 663.010,336.906 664.217 " fill="#1D1E23" stroke="none" fill-rule="evenodd"></path></svg>