<svg width="1200" height="1200" viewBox="0 0 1200 1200" fill="none" xmlns="http://www.w3.org/2000/svg"><path d="M556.000 101.962 C 416.815 115.884,295.232 181.194,209.663 288.000 C 73.683 457.729,63.352 695.839,184.124 876.644 C 338.485 1107.735,647.309 1169.297,878.000 1014.964 C 1107.746 861.264,1168.863 552.043,1014.964 322.000 C 936.423 204.599,815.946 128.109,674.644 105.934 C 645.457 101.354,582.987 99.262,556.000 101.962 M382.179 532.511 C 396.189 539.365,410.638 553.829,417.565 567.933 C 422.431 577.841,423.000 581.200,423.000 600.000 C 423.000 618.800,422.431 622.159,417.565 632.067 C 403.056 661.608,370.131 679.067,338.602 673.935 C 315.002 670.094,293.094 653.811,282.562 632.283 C 275.679 618.215,273.982 593.965,278.737 577.610 C 284.726 557.006,303.852 537.011,324.672 529.586 C 340.375 523.986,367.583 525.370,382.179 532.511 M632.179 532.511 C 646.189 539.365,660.638 553.829,667.565 567.933 C 672.431 577.841,673.000 581.200,673.000 600.000 C 673.000 618.800,672.431 622.159,667.565 632.067 C 653.056 661.608,620.131 679.067,588.602 673.935 C 565.002 670.094,543.094 653.811,532.562 632.283 C 525.679 618.215,523.982 593.965,528.737 577.610 C 534.726 557.006,553.852 537.011,574.672 529.586 C 590.375 523.986,617.583 525.370,632.179 532.511 M882.179 532.511 C 896.189 539.365,910.638 553.829,917.565 567.933 C 922.431 577.841,923.000 581.200,923.000 600.000 C 923.000 618.800,922.431 622.159,917.565 632.067 C 903.056 661.608,870.131 679.067,838.602 673.935 C 815.002 670.094,793.094 653.811,782.562 632.283 C 775.679 618.215,773.982 593.965,778.737 577.610 C 784.726 557.006,803.852 537.011,824.672 529.586 C 840.375 523.986,867.583 525.370,882.179 532.511 " fill="#1D1E23" stroke="none" fill-rule="evenodd"></path></svg>