<svg width="1200" height="1200" viewBox="0 0 1200 1200" fill="none" xmlns="http://www.w3.org/2000/svg"><path d="M521.628 202.015 C 492.131 206.707,461.064 218.980,436.565 235.617 C 397.745 261.978,369.711 301.844,356.510 349.455 C 351.692 366.833,351.091 372.436,351.091 400.000 C 351.091 427.674,351.681 433.130,356.592 450.853 C 373.759 512.807,417.838 562.606,476.000 585.756 C 566.686 621.851,673.103 585.496,722.186 501.651 C 775.145 411.184,749.242 293.887,663.435 235.617 C 645.841 223.668,617.156 210.706,597.913 206.007 C 578.575 201.286,539.175 199.224,521.628 202.015 M818.198 552.093 C 753.256 560.250,689.388 597.705,649.598 650.969 C 634.120 671.688,615.454 709.883,609.022 734.000 C 590.234 804.444,602.771 879.741,643.387 940.398 C 656.214 959.554,680.886 985.355,700.531 1000.158 C 721.037 1015.610,759.659 1034.490,784.000 1040.962 C 855.128 1059.874,929.418 1047.321,991.186 1005.955 C 1011.456 992.380,1042.380 961.456,1055.955 941.186 C 1070.524 919.431,1084.828 888.684,1090.932 866.000 C 1128.661 725.796,1041.197 584.787,898.000 554.958 C 879.455 551.094,837.996 549.606,818.198 552.093 M901.895 606.922 C 962.714 623.699,1012.757 668.215,1035.756 726.000 C 1061.937 791.776,1050.486 869.317,1006.510 924.049 C 967.484 972.618,911.060 1000.000,850.000 1000.000 C 759.588 1000.000,681.161 939.521,656.592 850.853 C 651.681 833.130,651.091 827.674,651.091 800.000 C 651.091 772.436,651.692 766.833,656.510 749.455 C 678.248 671.052,738.206 616.881,819.839 601.889 C 824.877 600.964,841.150 600.545,856.000 600.958 C 877.246 601.549,887.027 602.820,901.895 606.922 M500.292 652.158 C 421.662 658.190,342.988 679.331,270.972 713.780 C 209.387 743.239,184.128 763.797,167.251 798.193 C 152.208 828.852,151.480 833.210,150.500 898.437 C 149.499 965.015,150.418 970.523,164.947 985.053 C 180.843 1000.948,166.630 1000.083,402.498 999.509 L 611.909 999.000 603.866 986.280 C 543.613 890.986,533.620 769.903,577.368 665.209 C 581.318 655.758,581.770 653.086,579.648 651.740 C 576.447 649.710,528.936 649.961,500.292 652.158 M812.396 653.346 C 799.806 659.550,799.808 659.537,800.434 747.714 L 801.000 827.373 806.000 833.816 C 811.819 841.314,912.344 897.658,922.984 899.385 C 935.758 901.458,950.000 890.185,950.000 878.000 C 950.000 866.846,945.290 863.202,897.109 837.080 L 850.000 811.540 850.000 739.671 C 850.000 660.000,849.890 659.251,837.286 653.270 C 828.619 649.157,820.847 649.181,812.396 653.346 " fill="#1D1E23" stroke="none" fill-rule="evenodd"></path></svg>