<svg width="1200" height="1200" viewBox="0 0 1200 1200" fill="none" xmlns="http://www.w3.org/2000/svg"><path d="M521.628 202.015 C 492.131 206.707,461.064 218.980,436.565 235.617 C 397.745 261.978,369.711 301.844,356.510 349.455 C 351.692 366.833,351.091 372.436,351.091 400.000 C 351.091 427.674,351.681 433.130,356.592 450.853 C 373.759 512.807,417.838 562.606,476.000 585.756 C 566.686 621.851,673.103 585.496,722.186 501.651 C 775.145 411.184,749.242 293.887,663.435 235.617 C 645.841 223.668,617.156 210.706,597.913 206.007 C 578.575 201.286,539.175 199.224,521.628 202.015 M854.882 620.837 C 851.203 623.525,850.970 626.983,850.419 686.837 L 849.838 750.000 772.282 750.000 C 682.931 750.000,679.409 750.485,665.127 764.767 C 645.378 784.517,645.299 815.404,664.947 835.053 C 679.570 849.675,681.882 850.000,771.356 850.000 L 850.000 850.000 850.000 912.000 C 850.000 971.333,850.172 974.172,854.000 978.000 C 863.556 987.556,862.929 988.067,956.495 894.431 C 1038.032 812.835,1044.000 806.391,1044.000 799.956 C 1044.000 793.521,1038.043 787.094,956.475 705.525 C 864.648 613.699,864.649 613.700,854.882 620.837 M500.292 652.158 C 421.662 658.190,342.988 679.331,270.972 713.780 C 209.387 743.239,184.128 763.797,167.251 798.193 C 152.208 828.852,151.480 833.210,150.500 898.437 C 149.499 965.015,150.418 970.523,164.947 985.053 C 180.843 1000.948,166.630 1000.083,402.498 999.509 L 611.909 999.000 603.866 986.280 C 543.613 890.986,533.620 769.903,577.368 665.209 C 581.318 655.758,581.770 653.086,579.648 651.740 C 576.447 649.710,528.936 649.961,500.292 652.158 " fill="#1D1E23" stroke="none" fill-rule="evenodd"></path></svg>