<svg width="1200" height="1200" viewBox="0 0 1200 1200" fill="none" xmlns="http://www.w3.org/2000/svg"><path d="M577.000 201.208 C 492.372 213.748,428.822 268.918,406.592 349.147 C 401.681 366.870,401.091 372.326,401.091 400.000 C 401.091 427.564,401.692 433.167,406.510 450.545 C 426.304 521.937,478.063 573.696,549.455 593.490 C 566.833 598.308,572.436 598.909,600.000 598.909 C 627.674 598.909,633.130 598.319,650.853 593.408 C 712.807 576.241,762.606 532.162,785.756 474.000 C 820.018 387.920,789.479 287.257,713.435 235.617 C 695.841 223.668,667.156 210.706,647.913 206.007 C 631.485 201.996,590.431 199.218,577.000 201.208 M556.000 702.213 C 492.020 707.813,411.637 726.044,357.472 747.240 C 329.679 758.115,297.249 774.393,276.000 788.135 C 250.663 804.519,221.303 834.101,212.544 852.069 C 200.995 875.762,200.000 883.087,200.000 944.420 L 200.000 1000.000 600.132 1000.000 L 1000.264 1000.000 999.595 939.500 C 998.929 879.317,998.898 878.930,993.571 865.550 C 967.821 800.866,873.702 745.979,739.000 717.093 C 668.417 701.957,611.653 697.342,556.000 702.213 " fill="#1D1E23" stroke="none" fill-rule="evenodd"></path></svg>