<svg width="1200" height="1200" viewBox="0 0 1200 1200" fill="none" xmlns="http://www.w3.org/2000/svg"><path d="M471.628 202.015 C 442.131 206.707,411.064 218.980,386.565 235.617 C 347.745 261.978,319.711 301.844,306.510 349.455 C 301.692 366.833,301.091 372.436,301.091 400.000 C 301.091 427.674,301.681 433.130,306.592 450.853 C 323.759 512.807,367.838 562.606,426.000 585.756 C 516.686 621.851,623.103 585.496,672.186 501.651 C 725.145 411.184,699.242 293.887,613.435 235.617 C 595.841 223.668,567.156 210.706,547.913 206.007 C 528.575 201.286,489.175 199.224,471.628 202.015 M774.000 602.141 C 753.761 604.685,736.601 609.737,716.755 618.994 C 692.247 630.426,676.007 641.689,657.848 659.848 C 632.798 684.898,617.320 711.369,606.890 747.000 C 599.366 772.702,597.972 811.185,603.583 838.237 C 628.492 958.323,753.109 1029.319,866.406 987.970 C 875.160 984.776,886.481 979.838,891.563 976.997 L 900.804 971.832 950.902 1021.721 C 978.456 1049.160,1003.973 1073.095,1007.608 1074.912 C 1038.539 1090.370,1077.911 1065.933,1077.980 1031.232 C 1078.026 1008.661,1079.982 1011.176,994.544 923.955 L 971.971 900.911 978.848 886.955 C 1000.030 843.973,1005.018 797.379,993.297 752.000 C 984.204 716.800,968.728 689.185,943.002 662.258 C 898.581 615.763,837.760 594.128,774.000 602.141 M460.000 702.308 C 426.467 704.851,376.553 713.051,340.509 721.938 C 250.840 744.045,183.894 775.421,142.484 814.747 C 124.721 831.615,113.743 847.113,106.497 865.550 C 101.569 878.086,101.156 881.611,100.422 917.433 C 99.489 962.919,101.310 971.415,114.902 985.007 C 130.826 1000.932,115.622 1000.000,359.613 1000.000 L 576.513 1000.000 571.222 993.500 C 536.941 951.379,513.647 902.495,504.749 854.000 C 497.624 815.169,501.018 752.728,512.194 717.000 C 514.259 710.400,515.960 703.875,515.974 702.500 C 516.004 699.596,496.641 699.529,460.000 702.308 M833.087 706.186 C 862.422 717.118,882.554 737.194,894.067 767.000 C 897.858 776.814,898.703 782.826,898.703 800.000 C 898.703 817.174,897.858 823.186,894.067 833.000 C 884.179 858.599,865.756 879.201,843.281 889.792 C 788.827 915.454,728.080 890.336,705.933 833.000 C 699.267 815.745,699.281 784.188,705.961 767.000 C 714.502 745.027,726.965 729.033,744.642 717.361 C 754.469 710.873,773.099 703.227,784.000 701.209 C 795.043 699.164,821.419 701.838,833.087 706.186 " fill="#1D1E23" stroke="none" fill-rule="evenodd"></path></svg>