<svg width="1200" height="1200" viewBox="0 0 1200 1200" fill="none" xmlns="http://www.w3.org/2000/svg"><path d="M571.628 202.015 C 542.131 206.707,511.064 218.980,486.565 235.617 C 447.745 261.978,419.711 301.844,406.510 349.455 C 401.692 366.833,401.091 372.436,401.091 400.000 C 401.091 427.674,401.681 433.130,406.592 450.853 C 423.759 512.807,467.838 562.606,526.000 585.756 C 616.686 621.851,723.103 585.496,772.186 501.651 C 825.145 411.184,799.242 293.887,713.435 235.617 C 695.841 223.668,667.156 210.706,647.913 206.007 C 628.575 201.286,589.175 199.224,571.628 202.015 M780.826 662.328 C 738.022 694.409,702.339 721.634,701.531 722.828 C 699.314 726.104,699.709 790.787,702.060 809.537 C 709.361 867.757,741.572 925.380,787.000 961.486 C 804.199 975.157,835.499 991.998,853.347 997.187 C 864.182 1000.337,864.616 1000.300,879.682 994.961 C 948.520 970.564,1000.942 911.395,1020.163 836.396 C 1026.766 810.630,1030.746 737.483,1026.196 725.514 C 1023.592 718.665,870.201 604.000,863.643 604.000 C 860.215 604.000,834.281 622.265,780.826 662.328 M550.292 652.158 C 471.662 658.190,392.988 679.331,320.972 713.780 C 259.387 743.239,234.128 763.797,217.251 798.193 C 202.208 828.852,201.480 833.210,200.500 898.437 C 199.499 965.015,200.418 970.523,214.947 985.053 C 230.843 1000.948,216.630 1000.083,452.498 999.509 L 661.909 999.000 653.866 986.280 C 593.613 890.986,583.620 769.903,627.368 665.209 C 631.318 655.758,631.770 653.086,629.648 651.740 C 626.447 649.710,578.936 649.961,550.292 652.158 " fill="#1D1E23" stroke="none" fill-rule="evenodd"></path></svg>