<svg width="1200" height="1200" viewBox="0 0 1200 1200" fill="none" xmlns="http://www.w3.org/2000/svg"><path d="M572.000 52.900 C 543.796 58.950,519.707 71.167,499.995 89.417 C 485.307 103.016,469.222 125.169,462.850 140.573 L 459.026 149.821 344.013 150.410 L 229.000 151.000 217.000 155.784 C 182.959 169.355,159.106 196.531,152.210 229.598 C 149.085 244.585,149.085 955.415,152.210 970.402 C 160.026 1007.883,192.117 1039.974,229.598 1047.790 C 237.108 1049.356,345.049 1050.000,600.000 1050.000 C 854.951 1050.000,962.892 1049.356,970.402 1047.790 C 1007.883 1039.974,1039.974 1007.883,1047.790 970.402 C 1050.915 955.415,1050.915 244.585,1047.790 229.598 C 1040.894 196.531,1017.041 169.355,983.000 155.784 L 971.000 151.000 855.987 150.410 L 740.974 149.821 737.293 140.920 C 720.828 101.110,680.477 66.514,637.000 54.929 C 620.243 50.464,588.040 49.458,572.000 52.900 M623.250 156.220 C 642.867 166.315,653.124 188.886,648.165 211.046 C 639.683 248.946,592.489 262.594,564.993 235.098 C 545.365 215.471,545.361 184.533,564.983 164.911 C 580.378 149.516,603.517 146.065,623.250 156.220 M637.000 354.646 C 683.081 367.404,720.024 399.613,738.338 443.000 C 746.534 462.415,748.958 475.425,748.958 500.000 C 748.958 513.008,747.751 527.779,746.181 534.000 C 734.365 580.805,700.273 620.931,657.549 638.317 C 590.197 665.727,513.500 642.059,475.050 582.000 C 457.386 554.410,451.042 532.742,451.042 500.000 C 451.042 467.245,457.396 445.554,475.062 418.000 C 494.976 386.939,531.666 361.245,566.089 354.255 C 572.090 353.036,578.800 351.623,581.000 351.113 C 588.348 349.411,626.873 351.842,637.000 354.646 M671.000 731.811 C 758.969 747.451,834.717 780.250,871.419 818.591 C 892.687 840.809,900.000 859.097,900.000 890.064 C 900.000 912.045,895.990 924.116,885.053 935.053 C 869.052 951.053,889.135 950.000,600.000 950.000 C 310.865 950.000,330.948 951.053,314.947 935.053 C 304.010 924.116,300.000 912.045,300.000 890.064 C 300.000 859.097,307.313 840.809,328.581 818.591 C 358.687 787.140,414.637 759.382,483.000 741.981 C 508.649 735.452,523.425 732.657,561.000 727.224 C 564.300 726.747,585.000 726.624,607.000 726.950 C 636.858 727.393,653.085 728.626,671.000 731.811 " fill="#1D1E23" stroke="none" fill-rule="evenodd"></path></svg>