<svg width="1200" height="1200" viewBox="0 0 1200 1200" fill="none" xmlns="http://www.w3.org/2000/svg"><path d="M339.000 230.929 C 240.000 274.168,156.922 311.080,154.383 312.955 L 149.765 316.364 150.539 462.682 C 151.365 619.029,151.217 616.422,162.197 667.646 C 167.675 693.205,183.234 739.521,195.730 767.471 C 235.059 855.437,300.857 933.377,381.000 986.930 C 416.897 1010.918,473.586 1036.528,513.920 1046.979 C 525.127 1049.883,526.228 1049.804,543.239 1044.875 C 559.994 1040.019,601.653 1025.014,603.497 1023.170 C 603.970 1022.696,600.350 1015.707,595.452 1007.638 C 560.662 950.328,545.861 888.845,551.600 825.479 C 558.871 745.180,591.938 679.367,652.347 624.959 C 715.244 568.311,804.490 541.453,890.605 553.256 L 900.000 554.544 900.000 435.582 C 900.000 324.798,899.759 316.407,896.500 313.522 C 890.740 308.425,529.786 151.987,524.175 152.157 C 521.329 152.243,438.000 187.691,339.000 230.929 M821.000 652.201 C 794.189 656.028,759.905 669.694,736.000 686.085 C 695.563 713.811,666.022 757.766,654.736 807.000 C 649.698 828.975,649.698 871.025,654.736 893.000 C 672.151 968.970,730.940 1027.766,807.000 1045.281 C 830.522 1050.698,872.943 1050.244,896.880 1044.320 C 931.163 1035.835,966.245 1016.045,991.145 991.145 C 1016.030 966.260,1035.806 931.213,1044.337 896.880 C 1050.660 871.434,1050.660 828.566,1044.337 803.120 C 1035.768 768.634,1015.894 733.473,991.039 708.828 C 946.258 664.425,882.985 643.353,821.000 652.201 M863.002 721.085 C 881.825 725.987,895.161 737.795,901.958 755.575 C 910.105 776.889,904.947 798.954,888.143 814.673 C 875.413 826.580,866.120 830.416,850.000 830.416 C 833.880 830.416,824.587 826.580,811.857 814.673 C 795.053 798.954,789.895 776.889,798.042 755.575 C 804.696 738.168,818.147 726.019,836.113 721.190 C 850.009 717.454,849.079 717.458,863.002 721.085 M886.000 879.336 C 927.494 887.999,956.625 905.589,961.186 924.735 C 962.435 929.980,961.033 931.947,944.776 947.761 C 916.232 975.526,888.767 986.855,850.000 986.855 C 812.847 986.855,784.656 975.713,757.734 950.386 C 748.990 942.160,740.917 933.714,739.795 931.617 C 734.547 921.810,749.607 903.207,770.980 893.096 C 776.742 890.370,789.454 885.817,799.228 882.978 C 830.873 873.787,854.643 872.789,886.000 879.336 " fill="#1D1E23" stroke="none" fill-rule="evenodd"></path></svg>