<svg width="1200" height="1200" viewBox="0 0 1200 1200" fill="none" xmlns="http://www.w3.org/2000/svg"><path d="M577.000 201.208 C 492.372 213.748,428.822 268.918,406.592 349.147 C 401.681 366.870,401.091 372.326,401.091 400.000 C 401.091 427.564,401.692 433.167,406.510 450.545 C 426.304 521.937,478.063 573.696,549.455 593.490 C 566.833 598.308,572.436 598.909,600.000 598.909 C 627.674 598.909,633.130 598.319,650.853 593.408 C 712.807 576.241,762.606 532.162,785.756 474.000 C 820.018 387.920,789.479 287.257,713.435 235.617 C 695.841 223.668,667.156 210.706,647.913 206.007 C 631.485 201.996,590.431 199.218,577.000 201.208 M556.000 702.213 C 492.020 707.813,411.637 726.044,357.472 747.240 C 304.507 767.965,265.974 791.331,237.957 819.711 C 206.535 851.540,200.000 869.334,200.000 923.064 C 200.000 963.457,202.112 972.218,214.947 985.053 C 231.149 1001.254,198.842 1000.000,600.000 1000.000 C 1001.259 1000.000,968.843 1001.262,985.098 985.007 C 998.690 971.415,1000.511 962.919,999.578 917.433 C 998.844 881.611,998.431 878.086,993.503 865.550 C 968.160 801.072,873.719 745.983,739.000 717.093 C 668.417 701.957,611.653 697.342,556.000 702.213 " fill="#1D1E23" stroke="none" fill-rule="evenodd"></path></svg>