<svg width="1200" height="1200" viewBox="0 0 1200 1200" fill="none" xmlns="http://www.w3.org/2000/svg"><path d="M471.628 202.015 C 442.131 206.707,411.064 218.980,386.565 235.617 C 347.745 261.978,319.711 301.844,306.510 349.455 C 301.692 366.833,301.091 372.436,301.091 400.000 C 301.091 427.674,301.681 433.130,306.592 450.853 C 323.759 512.807,367.838 562.606,426.000 585.756 C 516.686 621.851,623.103 585.496,672.186 501.651 C 725.145 411.184,699.242 293.887,613.435 235.617 C 595.841 223.668,567.156 210.706,547.913 206.007 C 528.575 201.286,489.175 199.224,471.628 202.015 M777.000 601.208 C 692.372 613.748,628.822 668.918,606.592 749.147 C 601.681 766.870,601.091 772.326,601.091 800.000 C 601.091 827.564,601.692 833.167,606.510 850.545 C 626.307 921.946,678.153 973.784,749.455 993.466 C 766.440 998.155,772.798 998.870,798.000 998.931 C 820.001 998.983,830.620 998.087,842.000 995.219 C 859.511 990.805,884.136 981.436,893.701 975.549 L 900.402 971.425 964.710 1035.710 L 1029.018 1099.996 1064.507 1064.507 L 1099.996 1029.018 1035.811 964.811 L 971.626 900.603 977.701 889.801 C 981.042 883.861,986.462 870.900,989.746 861.000 C 1017.313 777.874,985.782 684.746,913.435 635.617 C 895.841 623.668,867.156 610.706,847.913 606.007 C 831.485 601.996,790.431 599.218,777.000 601.208 M460.000 702.308 C 426.467 704.851,376.553 713.051,340.509 721.938 C 250.840 744.045,183.894 775.421,142.484 814.747 C 124.783 831.556,113.801 847.031,106.429 865.550 C 101.102 878.930,101.071 879.317,100.405 939.500 L 99.736 1000.000 338.124 1000.000 L 576.513 1000.000 571.222 993.500 C 536.941 951.379,513.647 902.495,504.749 854.000 C 497.624 815.169,501.018 752.728,512.194 717.000 C 514.259 710.400,515.960 703.875,515.974 702.500 C 516.004 699.596,496.641 699.529,460.000 702.308 M833.087 706.186 C 862.422 717.118,882.554 737.194,894.067 767.000 C 897.858 776.814,898.703 782.826,898.703 800.000 C 898.703 817.174,897.858 823.186,894.067 833.000 C 884.179 858.599,865.756 879.201,843.281 889.792 C 788.827 915.454,728.080 890.336,705.933 833.000 C 699.267 815.745,699.281 784.188,705.961 767.000 C 714.502 745.027,726.965 729.033,744.642 717.361 C 754.469 710.873,773.099 703.227,784.000 701.209 C 795.043 699.164,821.419 701.838,833.087 706.186 " fill="#1D1E23" stroke="none" fill-rule="evenodd"></path></svg>