<svg width="1200" height="1200" viewBox="0 0 1200 1200" fill="none" xmlns="http://www.w3.org/2000/svg"><path d="M643.954 80.552 C 602.296 94.756,575.400 131.811,575.400 175.000 C 575.400 202.108,585.257 225.628,604.815 245.185 C 624.372 264.743,647.892 274.600,675.000 274.600 C 702.108 274.600,725.628 264.743,745.185 245.185 C 782.768 207.603,784.729 148.837,749.725 109.144 C 724.102 80.088,680.154 68.208,643.954 80.552 M574.331 303.150 C 560.593 305.551,535.803 315.312,433.331 358.669 C 320.299 406.493,308.591 411.879,304.500 417.933 L 300.000 424.592 300.011 515.796 C 300.018 572.454,300.806 609.822,302.091 614.449 C 305.148 625.457,315.751 638.120,326.574 643.690 C 351.818 656.680,382.163 647.190,394.320 622.502 C 398.872 613.261,399.027 611.171,400.000 546.297 L 401.000 479.594 444.648 462.611 C 468.654 453.271,488.577 445.937,488.923 446.314 C 489.268 446.691,460.856 591.450,425.784 768.000 C 387.978 958.319,362.032 1093.478,362.053 1100.000 C 362.159 1133.627,396.895 1157.996,429.354 1147.215 C 442.649 1142.799,452.751 1133.969,458.821 1121.459 C 462.320 1114.248,476.052 1056.970,503.045 937.000 C 524.577 841.300,542.826 760.069,543.597 756.488 L 545.000 749.975 597.500 800.088 L 650.000 850.200 650.011 978.600 C 650.018 1060.882,650.765 1109.676,652.091 1114.449 C 655.148 1125.457,665.751 1138.120,676.574 1143.690 C 696.581 1153.986,719.488 1150.618,735.007 1135.098 C 750.666 1119.440,750.000 1127.881,750.000 944.942 C 750.000 839.643,749.282 780.539,747.958 776.739 C 746.724 773.199,730.303 756.109,706.458 733.547 C 684.756 713.014,662.139 691.274,656.197 685.237 L 645.394 674.261 660.138 600.256 L 674.881 526.251 693.941 544.679 C 747.807 596.760,807.575 628.224,880.686 642.989 C 905.343 647.968,906.807 648.049,917.264 645.009 C 949.807 635.549,960.371 593.846,937.109 566.669 C 927.811 555.807,914.759 549.354,888.000 542.393 C 833.422 528.194,786.136 498.416,754.388 458.252 C 749.956 452.646,732.232 425.532,715.000 398.000 C 677.853 338.647,672.216 331.211,655.143 319.028 C 631.449 302.120,607.334 297.382,574.331 303.150 " fill="#1D1E23" stroke="none" fill-rule="evenodd"></path></svg>