<svg width="1200" height="1200" viewBox="0 0 1200 1200" fill="none" xmlns="http://www.w3.org/2000/svg"><path d="M443.954 80.552 C 402.296 94.756,375.400 131.811,375.400 175.000 C 375.400 202.108,385.257 225.628,404.815 245.185 C 424.372 264.743,447.892 274.600,475.000 274.600 C 502.108 274.600,525.628 264.743,545.185 245.185 C 582.768 207.603,584.729 148.837,549.725 109.144 C 524.102 80.088,480.154 68.208,443.954 80.552 M378.000 303.017 C 367.638 305.546,129.565 402.067,113.541 410.237 C 99.762 417.261,99.999 415.407,100.011 516.401 C 100.018 572.642,100.807 609.825,102.091 614.449 C 105.148 625.457,115.751 638.120,126.574 643.690 C 146.581 653.986,169.488 650.618,185.007 635.098 C 199.257 620.849,200.000 616.376,200.000 544.880 L 200.000 482.472 242.500 464.226 C 265.875 454.191,285.504 445.985,286.121 445.990 C 286.737 445.996,259.030 590.225,224.550 766.500 C 189.228 947.078,161.803 1092.052,161.730 1098.571 C 161.131 1152.054,235.681 1169.640,258.755 1121.459 C 262.238 1114.187,275.735 1056.161,303.058 931.000 C 324.671 832.000,342.499 750.854,342.677 750.675 C 342.854 750.496,367.075 772.813,396.500 800.270 L 450.000 850.190 450.011 978.595 C 450.018 1060.880,450.765 1109.676,452.091 1114.449 C 455.148 1125.457,465.751 1138.120,476.574 1143.690 C 496.581 1153.986,519.488 1150.618,535.007 1135.098 C 550.681 1119.424,550.000 1128.169,550.000 942.512 C 550.000 826.129,549.351 776.454,547.789 773.369 C 546.572 770.966,523.478 746.799,496.468 719.664 L 447.359 670.329 461.991 596.664 C 470.039 556.149,476.819 522.740,477.057 522.422 C 477.295 522.103,488.630 532.913,502.245 546.443 C 547.544 591.458,596.132 620.218,655.000 636.861 C 685.133 645.380,704.909 648.057,716.157 645.139 C 729.012 641.805,738.620 634.114,744.117 622.758 C 753.552 603.267,750.591 582.051,736.146 565.640 C 726.551 554.741,715.006 548.941,690.542 542.733 C 647.636 531.846,613.308 513.565,579.282 483.484 C 558.342 464.971,541.586 442.211,510.459 390.000 C 491.481 358.167,477.497 337.054,470.545 329.737 C 447.346 305.322,411.258 294.902,378.000 303.017 M756.485 756.514 C 713.058 799.967,706.000 807.864,706.000 813.000 C 706.000 818.136,713.058 826.033,756.485 869.486 C 809.643 922.674,812.845 925.011,820.690 916.343 C 823.474 913.267,824.000 907.700,824.000 881.343 L 824.000 850.000 946.500 849.956 C 1061.321 849.915,1069.502 849.681,1077.000 846.220 C 1104.916 833.336,1107.834 796.061,1082.212 779.644 L 1073.000 773.742 949.000 774.262 L 825.000 774.783 824.446 743.989 C 823.994 718.893,823.289 712.529,820.636 709.598 C 812.852 700.996,809.579 703.390,756.485 756.514 M979.310 921.657 C 976.526 924.733,976.000 930.300,976.000 956.657 L 976.000 988.000 852.631 988.000 C 731.002 988.000,729.139 988.060,720.499 992.242 C 707.509 998.531,701.000 1009.466,701.000 1025.000 C 701.000 1040.534,707.509 1051.469,720.499 1057.758 C 729.139 1061.940,731.002 1062.000,852.631 1062.000 L 976.000 1062.000 976.000 1093.690 C 976.000 1121.851,976.407 1125.749,979.657 1128.690 C 988.042 1136.278,990.777 1134.254,1043.765 1081.235 C 1085.341 1039.635,1094.500 1029.483,1094.500 1025.000 C 1094.500 1020.517,1085.341 1010.365,1043.765 968.765 C 990.343 915.312,987.159 912.985,979.310 921.657 " fill="#1D1E23" stroke="none" fill-rule="evenodd"></path></svg>