<svg width="1200" height="1200" viewBox="0 0 1200 1200" fill="none" xmlns="http://www.w3.org/2000/svg"><path d="M184.000 201.340 C 173.722 202.974,154.657 210.749,144.526 217.438 C 123.539 231.296,107.312 255.132,102.210 279.598 C 100.658 287.043,100.000 373.411,100.000 569.842 L 100.000 849.486 78.379 850.377 C 59.555 851.153,55.093 852.051,43.879 857.323 C 27.516 865.016,15.060 877.468,7.189 894.000 C 1.692 905.547,1.000 909.012,1.000 925.000 C 1.000 940.988,1.692 944.453,7.189 956.000 C 15.055 972.522,27.478 984.945,44.000 992.811 L 57.000 999.000 350.000 999.000 L 643.000 999.000 656.000 992.811 C 672.522 984.945,684.945 972.522,692.811 956.000 C 698.308 944.453,699.000 940.988,699.000 925.000 C 699.000 908.982,698.316 905.569,692.783 894.000 C 684.913 877.542,672.582 865.223,656.000 857.250 L 643.000 851.000 421.500 850.458 L 200.000 849.915 200.000 596.314 C 200.000 311.307,198.957 330.938,214.947 314.947 C 231.214 298.681,192.814 300.000,650.000 300.000 C 1107.186 300.000,1068.786 301.319,1085.053 285.053 C 1104.616 265.489,1104.616 234.511,1085.053 214.947 C 1068.745 198.639,1110.518 199.967,623.144 200.272 C 384.365 200.422,186.750 200.902,184.000 201.340 M832.171 403.434 C 827.315 405.149,819.581 410.314,814.983 414.911 C 798.941 430.954,800.000 410.799,800.000 700.000 C 800.000 989.135,798.947 969.052,814.947 985.053 C 830.520 1000.625,822.781 1000.000,1000.000 1000.000 C 1177.219 1000.000,1169.480 1000.625,1185.053 985.053 C 1201.053 969.052,1200.000 989.135,1200.000 700.000 C 1200.000 410.865,1201.053 430.948,1185.053 414.947 C 1169.456 399.351,1177.366 399.980,999.144 400.158 C 861.285 400.296,839.868 400.716,832.171 403.434 M1100.000 675.000 L 1100.000 850.000 1000.000 850.000 L 900.000 850.000 900.000 675.000 L 900.000 500.000 1000.000 500.000 L 1100.000 500.000 1100.000 675.000 " fill="#1D1E23" stroke="none" fill-rule="evenodd"></path></svg>