<svg width="1200" height="1200" viewBox="0 0 1200 1200" fill="none" xmlns="http://www.w3.org/2000/svg"><path d="M348.000 53.068 C 303.127 62.740,265.647 99.462,253.944 145.219 C 250.077 160.337,250.000 169.266,250.000 600.000 C 250.000 1030.734,250.077 1039.663,253.944 1054.781 C 263.091 1090.546,286.606 1120.216,318.116 1135.749 C 348.010 1150.486,337.954 1149.931,575.000 1149.931 C 811.825 1149.931,802.026 1150.467,831.628 1135.876 C 864.020 1119.909,889.507 1086.819,897.001 1051.000 C 901.411 1029.925,901.411 170.075,897.001 149.000 C 888.072 106.324,855.306 70.261,812.000 55.447 L 799.000 51.000 580.000 50.633 C 398.694 50.330,358.762 50.749,348.000 53.068 M800.000 550.000 L 800.000 900.000 575.000 900.000 L 350.000 900.000 350.000 550.000 L 350.000 200.000 575.000 200.000 L 800.000 200.000 800.000 550.000 M606.587 957.603 C 622.573 965.198,634.980 977.679,642.773 994.000 C 648.293 1005.561,648.980 1008.993,648.980 1025.000 C 648.980 1040.977,648.286 1044.461,642.801 1056.000 C 634.950 1072.516,622.528 1084.942,606.000 1092.811 C 594.453 1098.308,590.988 1099.000,575.000 1099.000 C 559.012 1099.000,555.547 1098.308,544.000 1092.811 C 527.472 1084.942,515.050 1072.516,507.199 1056.000 C 501.714 1044.461,501.020 1040.977,501.020 1025.000 C 501.020 1009.023,501.714 1005.539,507.199 994.000 C 517.108 973.154,535.862 957.508,557.492 952.044 C 571.096 948.608,592.837 951.069,606.587 957.603 " fill="#1D1E23" stroke="none" fill-rule="evenodd"></path></svg>