<svg width="1200" height="1200" viewBox="0 0 1200 1200" fill="none" xmlns="http://www.w3.org/2000/svg"><path d="M861.763 61.006 C 850.341 67.213,850.000 70.031,850.000 158.217 L 850.000 238.829 798.500 187.699 C 743.077 132.675,741.574 131.606,726.576 136.551 C 712.776 141.100,705.945 158.564,712.868 171.599 C 714.446 174.570,743.246 204.444,776.868 237.988 C 810.491 271.531,838.000 299.863,838.000 300.947 C 838.000 302.032,809.200 331.769,774.000 367.031 L 710.000 431.142 710.000 440.301 C 710.000 459.111,729.553 471.652,745.599 463.133 C 748.570 461.556,773.050 438.148,800.000 411.115 L 849.000 361.965 850.000 446.138 L 851.000 530.311 858.471 537.156 C 868.465 546.312,879.783 546.680,891.200 538.220 C 903.975 528.754,1003.268 427.566,1006.954 420.257 C 1014.052 406.180,1012.351 403.678,959.847 350.947 C 933.531 324.518,912.000 302.011,912.000 300.931 C 912.000 299.851,933.153 277.829,959.007 251.993 C 990.342 220.679,1006.731 202.846,1008.164 198.502 C 1012.716 184.710,1011.160 182.636,950.274 121.343 C 918.773 89.632,890.570 62.407,887.599 60.843 C 880.756 57.240,868.550 57.318,861.763 61.006 M924.532 167.531 L 948.001 191.061 924.001 214.999 L 900.000 238.937 900.000 191.469 C 900.000 165.361,900.239 144.000,900.531 144.000 C 900.823 144.000,911.624 154.589,924.532 167.531 M235.071 152.226 C 200.337 157.285,166.279 186.478,155.789 220.182 C 147.268 247.560,154.701 321.533,173.991 401.327 C 248.470 709.421,490.785 951.636,799.000 1026.079 C 878.348 1045.244,952.582 1052.688,979.818 1044.211 C 1001.774 1037.377,1024.195 1019.072,1036.628 997.828 C 1047.692 978.923,1050.003 962.873,1049.970 905.180 C 1049.938 848.200,1048.489 836.996,1038.488 816.395 C 1027.861 794.505,1001.512 773.016,977.000 766.247 C 972.600 765.032,936.150 760.284,896.000 755.696 C 811.122 745.997,804.606 746.185,778.309 759.098 C 764.380 765.937,758.354 771.223,711.448 817.741 L 659.897 868.867 647.448 862.118 C 542.748 805.353,457.768 730.658,389.761 635.618 C 372.289 611.199,349.944 575.322,337.963 552.450 L 331.390 539.900 383.227 487.450 C 437.827 432.204,442.659 425.916,449.095 401.737 C 453.384 385.622,452.692 368.988,444.902 301.000 C 437.231 234.053,434.748 220.904,426.586 204.000 C 414.427 178.816,382.362 156.178,353.000 152.048 C 336.084 149.669,251.750 149.796,235.071 152.226 M926.011 432.989 C 913.391 445.645,902.376 456.000,901.533 456.000 C 900.690 456.000,900.000 434.630,900.000 408.510 L 900.000 361.020 924.479 385.499 L 948.957 409.978 926.011 432.989 " fill="#1D1E23" stroke="none" fill-rule="evenodd"></path></svg>