<svg width="1200" height="1200" viewBox="0 0 1200 1200" fill="none" xmlns="http://www.w3.org/2000/svg"><path d="M150.811 157.304 C 148.620 168.981,151.458 262.453,154.900 292.000 C 175.324 467.332,243.552 624.022,356.504 755.000 C 383.390 786.177,436.311 837.289,468.000 862.686 C 497.002 885.930,541.301 916.523,572.000 934.511 C 681.720 998.798,808.354 1037.840,939.900 1047.936 C 969.043 1050.172,1038.198 1050.696,1045.514 1048.736 L 1050.027 1047.526 1049.514 910.278 L 1049.000 773.029 918.000 757.760 L 787.000 742.491 723.805 805.428 L 660.611 868.366 648.061 862.031 C 578.993 827.166,496.341 761.698,437.186 695.000 C 399.857 652.911,355.161 587.901,335.734 547.440 L 331.144 537.879 394.400 474.440 L 457.656 411.000 442.406 280.500 L 427.156 150.000 289.668 150.000 L 152.181 150.000 150.811 157.304 " fill="#1D1E23" stroke="none" fill-rule="evenodd"></path></svg>