<svg width="1200" height="1200" viewBox="0 0 1200 1200" fill="none" xmlns="http://www.w3.org/2000/svg"><path d="M381.000 51.222 C 378.800 51.672,372.090 53.036,366.089 54.255 C 322.229 63.162,279.135 99.565,261.683 142.451 C 249.321 172.826,250.000 146.244,250.000 600.000 C 250.000 964.991,250.365 1015.938,253.077 1029.067 C 265.505 1089.234,310.766 1134.495,370.933 1146.923 C 393.329 1151.549,806.671 1151.549,829.067 1146.923 C 889.234 1134.495,934.495 1089.234,946.923 1029.067 C 949.635 1015.938,950.000 964.991,950.000 600.000 C 950.000 146.244,950.679 172.826,938.317 142.451 C 921.310 100.659,885.505 69.498,837.000 54.276 C 828.199 51.514,800.505 51.094,606.000 50.771 C 484.450 50.570,383.200 50.773,381.000 51.222 M850.000 550.000 L 850.000 900.000 600.000 900.000 L 350.000 900.000 350.000 550.000 L 350.000 200.000 600.000 200.000 L 850.000 200.000 850.000 550.000 M687.403 1003.919 C 699.939 1011.563,703.409 1026.350,695.440 1038.175 C 687.425 1050.068,688.459 1049.941,600.000 1049.941 C 511.541 1049.941,512.575 1050.068,504.560 1038.175 C 496.591 1026.350,500.061 1011.563,512.597 1003.919 C 518.669 1000.217,523.183 1000.015,600.000 1000.015 C 676.817 1000.015,681.331 1000.217,687.403 1003.919 " fill="#1D1E23" stroke="none" fill-rule="evenodd"></path></svg>