<svg width="1200" height="1200" viewBox="0 0 1200 1200" fill="none" xmlns="http://www.w3.org/2000/svg"><path d="M235.071 152.226 C 200.337 157.285,166.279 186.478,155.789 220.182 C 147.268 247.560,154.701 321.533,173.991 401.327 C 248.470 709.421,490.785 951.636,799.000 1026.079 C 878.348 1045.244,952.582 1052.688,979.818 1044.211 C 1001.774 1037.377,1024.195 1019.072,1036.628 997.828 C 1047.692 978.923,1050.003 962.873,1049.970 905.180 C 1049.938 848.200,1048.489 836.996,1038.488 816.395 C 1027.861 794.505,1001.512 773.016,977.000 766.247 C 972.600 765.032,936.150 760.284,896.000 755.696 C 811.122 745.997,804.606 746.185,778.309 759.098 C 764.380 765.937,758.354 771.223,711.448 817.741 L 659.897 868.867 647.448 862.118 C 542.748 805.353,457.768 730.658,389.761 635.618 C 372.289 611.199,349.944 575.322,337.963 552.450 L 331.390 539.900 383.227 487.450 C 437.827 432.204,442.659 425.916,449.095 401.737 C 453.384 385.622,452.692 368.988,444.902 301.000 C 437.231 234.053,434.748 220.904,426.586 204.000 C 414.427 178.816,382.362 156.178,353.000 152.048 C 336.084 149.669,251.750 149.796,235.071 152.226 " fill="#1D1E23" stroke="none" fill-rule="evenodd"></path></svg>