<svg width="1200" height="1200" viewBox="0 0 1200 1200" fill="none" xmlns="http://www.w3.org/2000/svg"><path d="M235.071 152.226 C 200.337 157.285,166.279 186.478,155.789 220.182 C 147.268 247.560,154.701 321.533,173.991 401.327 C 248.470 709.421,490.785 951.636,799.000 1026.079 C 878.348 1045.244,952.582 1052.688,979.818 1044.211 C 1001.774 1037.377,1024.195 1019.072,1036.628 997.828 C 1047.692 978.923,1050.003 962.873,1049.970 905.180 C 1049.938 848.200,1048.489 836.996,1038.488 816.395 C 1027.861 794.505,1001.512 773.016,977.000 766.247 C 972.600 765.032,936.150 760.284,896.000 755.696 C 811.122 745.997,804.606 746.185,778.309 759.098 C 764.380 765.937,758.354 771.223,711.448 817.741 L 659.897 868.867 647.448 862.118 C 542.748 805.353,457.768 730.658,389.761 635.618 C 372.289 611.199,349.944 575.322,337.963 552.450 L 331.390 539.900 383.227 487.450 C 437.827 432.204,442.659 425.916,449.095 401.737 C 453.384 385.622,452.692 368.988,444.902 301.000 C 437.231 234.053,434.748 220.904,426.586 204.000 C 414.427 178.816,382.362 156.178,353.000 152.048 C 336.084 149.669,251.750 149.796,235.071 152.226 M640.653 154.070 C 628.544 156.492,621.479 160.706,612.581 170.815 C 595.311 190.434,595.649 216.279,613.433 236.060 C 623.651 247.424,631.289 250.626,659.000 255.164 C 761.450 271.941,853.296 336.359,904.841 427.587 C 924.134 461.734,938.550 502.613,944.836 541.000 C 949.218 567.756,952.615 576.213,962.722 585.531 C 984.300 605.420,1015.097 604.224,1033.940 582.763 C 1048.052 566.690,1049.459 552.579,1041.076 511.180 C 1016.986 392.215,949.175 291.498,847.867 224.213 C 790.013 185.789,729.185 163.473,654.000 153.091 C 651.250 152.711,645.244 153.151,640.653 154.070 M639.000 357.748 C 617.851 363.238,600.000 385.701,600.000 406.824 C 600.000 420.731,610.091 440.036,621.147 447.280 C 623.831 449.039,635.398 453.879,646.851 458.037 C 695.061 475.537,725.870 506.641,743.291 555.398 C 751.491 578.349,756.698 585.890,769.568 593.455 C 777.611 598.184,781.209 599.000,794.000 599.000 C 806.696 599.000,810.411 598.170,818.187 593.599 C 833.626 584.523,844.000 566.941,844.000 549.852 C 844.000 529.565,822.366 480.146,801.054 451.749 C 785.683 431.269,759.321 405.835,740.599 393.423 C 702.828 368.383,658.283 352.742,639.000 357.748 " fill="#1D1E23" stroke="none" fill-rule="evenodd"></path></svg>