<svg width="1200" height="1200" viewBox="0 0 1200 1200" fill="none" xmlns="http://www.w3.org/2000/svg"><path d="M250.000 600.000 L 250.000 1150.000 575.000 1150.000 L 900.000 1150.000 900.000 600.000 L 900.000 50.000 575.000 50.000 L 250.000 50.000 250.000 600.000 M800.000 550.000 L 800.000 900.000 575.000 900.000 L 350.000 900.000 350.000 550.000 L 350.000 200.000 575.000 200.000 L 800.000 200.000 800.000 550.000 M606.587 957.603 C 622.573 965.198,634.980 977.679,642.773 994.000 C 648.293 1005.561,648.980 1008.993,648.980 1025.000 C 648.980 1040.977,648.286 1044.461,642.801 1056.000 C 634.950 1072.516,622.528 1084.942,606.000 1092.811 C 594.453 1098.308,590.988 1099.000,575.000 1099.000 C 559.012 1099.000,555.547 1098.308,544.000 1092.811 C 527.472 1084.942,515.050 1072.516,507.199 1056.000 C 501.714 1044.461,501.020 1040.977,501.020 1025.000 C 501.020 1009.023,501.714 1005.539,507.199 994.000 C 517.108 973.154,535.862 957.508,557.492 952.044 C 571.096 948.608,592.837 951.069,606.587 957.603 " fill="#1D1E23" stroke="none" fill-rule="evenodd"></path></svg>