<svg width="1200" height="1200" viewBox="0 0 1200 1200" fill="none" xmlns="http://www.w3.org/2000/svg"><path d="M150.811 157.304 C 148.620 168.981,151.458 262.453,154.900 292.000 C 175.324 467.332,243.552 624.022,356.504 755.000 C 383.390 786.177,436.311 837.289,468.000 862.686 C 497.002 885.930,541.301 916.523,572.000 934.511 C 681.720 998.798,808.354 1037.840,939.900 1047.936 C 969.043 1050.172,1038.198 1050.696,1045.514 1048.736 L 1050.027 1047.526 1049.514 910.278 L 1049.000 773.029 918.000 757.760 L 787.000 742.491 723.805 805.428 L 660.611 868.366 648.061 862.031 C 578.993 827.166,496.341 761.698,437.186 695.000 C 399.857 652.911,355.161 587.901,335.734 547.440 L 331.144 537.879 394.400 474.440 L 457.656 411.000 442.406 280.500 L 427.156 150.000 289.668 150.000 L 152.181 150.000 150.811 157.304 M600.000 199.341 L 600.000 249.252 627.500 251.648 C 675.270 255.810,710.283 265.224,751.545 285.001 C 824.054 319.755,880.276 376.007,915.082 448.629 C 934.773 489.711,944.196 524.796,948.352 572.500 L 950.748 600.000 1000.374 600.000 L 1050.000 600.000 1050.000 589.347 C 1050.000 583.488,1049.043 568.863,1047.874 556.847 C 1032.844 402.391,938.305 265.570,799.251 197.030 C 742.671 169.141,687.803 154.791,622.500 150.804 L 600.000 149.431 600.000 199.341 M600.000 399.742 L 600.000 449.483 613.637 450.827 C 685.530 457.911,742.089 514.470,749.173 586.363 L 750.517 600.000 800.554 600.000 L 850.590 600.000 849.290 581.500 C 841.033 464.046,747.837 366.521,630.052 352.078 C 620.731 350.935,610.156 350.000,606.552 350.000 L 600.000 350.000 600.000 399.742 " fill="#1D1E23" stroke="none" fill-rule="evenodd"></path></svg>