<svg width="1200" height="1200" viewBox="0 0 1200 1200" fill="none" xmlns="http://www.w3.org/2000/svg"><path d="M850.000 144.487 L 850.000 238.974 793.014 182.014 L 736.029 125.055 717.999 143.001 L 699.969 160.948 769.474 230.474 L 838.979 300.000 769.474 369.526 L 699.969 439.052 717.999 456.999 L 736.029 474.945 793.014 417.986 L 850.000 361.026 850.000 455.513 L 850.000 550.000 862.511 550.000 L 875.021 550.000 945.511 479.490 C 984.280 440.709,1016.000 408.123,1016.000 407.076 C 1016.000 406.030,992.389 381.501,963.532 352.569 L 911.064 299.964 964.530 246.470 L 1017.997 192.976 946.488 121.488 L 874.979 50.000 862.490 50.000 L 850.000 50.000 850.000 144.487 M923.489 215.489 L 900.000 238.979 900.000 192.000 L 900.000 145.021 923.489 168.511 L 946.979 192.000 923.489 215.489 M150.811 157.304 C 148.620 168.981,151.458 262.453,154.900 292.000 C 175.324 467.332,243.552 624.022,356.504 755.000 C 383.390 786.177,436.311 837.289,468.000 862.686 C 497.002 885.930,541.301 916.523,572.000 934.511 C 681.720 998.798,808.354 1037.840,939.900 1047.936 C 969.043 1050.172,1038.198 1050.696,1045.514 1048.736 L 1050.027 1047.526 1049.514 910.278 L 1049.000 773.029 918.000 757.760 L 787.000 742.491 723.805 805.428 L 660.611 868.366 648.061 862.031 C 578.993 827.166,496.341 761.698,437.186 695.000 C 399.857 652.911,355.161 587.901,335.734 547.440 L 331.144 537.879 394.400 474.440 L 457.656 411.000 442.406 280.500 L 427.156 150.000 289.668 150.000 L 152.181 150.000 150.811 157.304 M923.489 431.489 L 900.000 454.979 900.000 408.000 L 900.000 361.021 923.489 384.511 L 946.979 408.000 923.489 431.489 " fill="#1D1E23" stroke="none" fill-rule="evenodd"></path></svg>