<svg width="1200" height="1200" viewBox="0 0 1200 1200" fill="none" xmlns="http://www.w3.org/2000/svg"><path d="M279.000 302.897 C 224.773 311.373,175.971 340.882,141.798 385.857 C 128.029 403.978,113.033 435.224,106.672 459.047 C 102.041 476.389,101.324 483.056,101.190 510.000 C 100.985 551.620,107.031 576.300,126.094 611.648 C 150.787 657.435,197.043 695.649,246.517 711.136 C 259.666 715.252,259.601 714.730,249.496 735.000 C 233.481 767.125,204.576 804.013,170.822 835.401 C 142.505 861.733,136.173 875.891,142.716 898.248 C 146.801 912.206,156.194 923.342,168.858 929.238 C 182.445 935.565,191.029 935.233,222.414 927.168 C 346.510 895.280,436.438 828.935,483.825 734.308 C 511.901 678.245,525.186 620.157,527.388 543.827 C 529.204 480.906,524.085 451.430,504.839 413.982 C 464.192 334.892,370.171 288.645,279.000 302.897 M856.651 302.934 C 813.691 309.602,775.933 328.613,743.161 360.076 C 714.400 387.688,694.917 420.757,684.534 459.588 C 680.057 476.333,679.323 483.259,679.190 510.000 C 679.031 542.163,680.948 554.811,689.917 580.797 C 710.431 640.230,764.137 692.235,824.517 711.136 C 837.666 715.252,837.601 714.730,827.496 735.000 C 811.453 767.182,782.607 803.976,748.965 835.174 C 727.437 855.137,721.242 864.209,718.870 879.248 C 716.059 897.072,727.874 919.773,744.330 928.168 C 758.399 935.346,768.226 935.189,799.397 927.292 C 947.211 889.843,1047.166 801.648,1085.331 675.000 C 1106.288 605.452,1112.074 503.020,1097.919 452.135 C 1070.124 352.217,963.587 286.334,856.651 302.934 " fill="#1D1E23" stroke="none" fill-rule="evenodd"></path></svg>