<svg width="1200" height="1200" viewBox="0 0 1200 1200" fill="none" xmlns="http://www.w3.org/2000/svg"><path d="M559.434 102.233 C 517.386 106.285,466.635 120.302,427.315 138.723 C 287.203 204.363,199.755 346.722,200.039 508.712 C 200.309 662.639,312.067 839.837,539.540 1047.008 C 574.299 1078.664,581.697 1083.000,600.959 1083.000 C 619.169 1083.000,625.080 1079.510,659.000 1048.734 C 885.680 843.063,999.692 662.489,999.961 508.712 C 1000.103 427.376,976.424 344.524,934.607 280.050 C 854.249 156.151,709.898 87.734,559.434 102.233 M633.087 406.186 C 662.422 417.118,682.554 437.194,694.067 467.000 C 697.858 476.814,698.703 482.826,698.703 500.000 C 698.703 517.174,697.858 523.186,694.067 533.000 C 684.179 558.599,665.756 579.201,643.281 589.792 C 588.827 615.454,528.080 590.336,505.933 533.000 C 499.267 515.745,499.281 484.188,505.961 467.000 C 514.502 445.027,526.965 429.033,544.642 417.361 C 554.469 410.873,573.099 403.227,584.000 401.209 C 595.043 399.164,621.419 401.838,633.087 406.186 " fill="#1D1E23" stroke="none" fill-rule="evenodd"></path></svg>