<svg width="1200" height="1200" viewBox="0 0 1200 1200" fill="none" xmlns="http://www.w3.org/2000/svg"><path d="M250.000 225.000 L 250.000 350.000 400.000 350.000 L 550.000 350.000 550.000 225.000 L 550.000 100.000 400.000 100.000 L 250.000 100.000 250.000 225.000 M650.000 225.000 L 650.000 350.000 800.000 350.000 L 950.000 350.000 950.000 225.000 L 950.000 100.000 800.000 100.000 L 650.000 100.000 650.000 225.000 M100.000 375.000 L 100.000 450.000 600.000 450.000 L 1100.000 450.000 1100.000 375.000 L 1100.000 300.000 1075.000 300.000 L 1050.000 300.000 1050.000 350.000 L 1050.000 400.000 600.000 400.000 L 150.000 400.000 150.000 350.000 L 150.000 300.000 125.000 300.000 L 100.000 300.000 100.000 375.000 M250.000 775.000 L 250.000 1000.000 400.000 1000.000 L 550.000 1000.000 550.000 775.000 L 550.000 550.000 400.000 550.000 L 250.000 550.000 250.000 775.000 M650.000 775.000 L 650.000 1000.000 800.000 1000.000 L 950.000 1000.000 950.000 775.000 L 950.000 550.000 800.000 550.000 L 650.000 550.000 650.000 775.000 M100.000 1025.000 L 100.000 1100.000 600.000 1100.000 L 1100.000 1100.000 1100.000 1025.000 L 1100.000 950.000 1075.000 950.000 L 1050.000 950.000 1050.000 1000.000 L 1050.000 1050.000 600.000 1050.000 L 150.000 1050.000 150.000 1000.000 L 150.000 950.000 125.000 950.000 L 100.000 950.000 100.000 1025.000 " fill="#1D1E23" stroke="none" fill-rule="evenodd"></path></svg>