<svg width="1200" height="1200" viewBox="0 0 1200 1200" fill="none" xmlns="http://www.w3.org/2000/svg"><path d="M556.000 101.962 C 416.815 115.884,295.232 181.194,209.663 288.000 C 73.683 457.729,63.352 695.839,184.124 876.644 C 338.485 1107.735,647.309 1169.297,878.000 1014.964 C 1107.746 861.264,1168.863 552.043,1014.964 322.000 C 936.423 204.599,815.946 128.109,674.644 105.934 C 645.457 101.354,582.987 99.262,556.000 101.962 M537.387 403.910 C 553.582 413.784,776.260 582.537,779.381 587.301 C 783.898 594.195,783.898 605.805,779.381 612.699 C 776.260 617.463,553.582 786.216,537.387 796.090 C 529.261 801.045,520.734 801.042,512.597 796.081 C 499.297 787.972,500.000 798.912,500.000 600.000 C 500.000 401.088,499.297 412.028,512.597 403.919 C 520.734 398.958,529.261 398.955,537.387 403.910 " fill="#1D1E23" stroke="none" fill-rule="evenodd"></path></svg>