<svg width="1200" height="1200" viewBox="0 0 1200 1200" fill="none" xmlns="http://www.w3.org/2000/svg"><path d="M50.000 600.000 L 50.000 1150.000 600.000 1150.000 L 1150.000 1150.000 1150.000 749.495 L 1150.000 348.990 1000.495 199.495 L 850.990 50.000 450.495 50.000 L 50.000 50.000 50.000 600.000 M800.000 275.000 L 800.000 400.000 925.000 400.000 L 1050.000 400.000 1050.000 725.000 L 1050.000 1050.000 600.000 1050.000 L 150.000 1050.000 150.000 600.000 L 150.000 150.000 475.000 150.000 L 800.000 150.000 800.000 275.000 M840.448 605.816 C 804.338 623.258,783.181 648.530,770.209 689.717 C 760.919 719.215,759.515 731.088,759.534 780.000 C 759.553 828.903,760.982 840.985,770.209 870.283 C 781.350 905.655,803.667 935.889,826.640 946.731 C 844.238 955.038,859.364 957.029,876.116 953.246 C 896.931 948.546,908.338 941.445,926.148 922.103 C 934.749 912.762,942.432 905.765,943.221 906.554 C 944.010 907.344,945.076 917.442,945.590 928.995 L 946.524 950.000 979.262 950.000 L 1012.000 950.000 1012.000 857.000 L 1012.000 764.000 949.000 764.000 L 886.000 764.000 886.000 790.000 L 886.000 816.000 913.755 816.000 C 935.738 816.000,942.018 816.612,943.951 818.941 C 947.275 822.946,943.216 853.433,937.628 866.421 C 929.131 886.173,906.709 898.417,887.088 894.020 C 867.073 889.534,857.292 881.768,849.268 863.994 C 841.643 847.100,839.251 825.989,839.414 777.000 C 839.690 693.779,845.413 673.112,871.365 661.633 C 878.822 658.334,883.053 657.749,892.400 658.726 C 912.198 660.796,918.630 665.878,933.756 691.401 C 942.146 705.559,943.637 707.061,949.892 707.656 C 957.373 708.368,990.291 701.392,1002.691 696.467 C 1009.647 693.705,1010.273 692.863,1009.234 687.670 C 1006.710 675.048,995.385 652.040,986.664 641.816 C 973.890 626.839,953.111 610.734,940.000 605.646 C 930.508 601.962,923.790 601.266,891.000 600.565 L 853.000 599.754 840.448 605.816 M198.000 776.000 L 198.000 950.000 236.000 950.000 L 274.000 950.000 274.000 886.000 L 274.000 822.000 304.552 822.000 C 365.871 822.000,386.323 815.899,410.239 790.473 C 432.874 766.410,437.809 750.518,437.935 701.292 L 438.000 675.585 430.512 661.292 C 421.623 644.325,399.383 621.038,385.786 614.462 C 380.718 612.010,371.731 609.087,365.815 607.965 C 354.933 605.901,261.899 602.106,220.500 602.037 L 198.000 602.000 198.000 776.000 M480.000 776.000 L 480.000 950.000 512.000 950.000 L 544.000 950.000 544.130 901.500 C 544.310 834.552,547.045 730.288,548.664 728.669 C 549.399 727.935,550.475 727.808,551.056 728.389 C 552.723 730.056,570.081 778.223,601.006 867.000 L 629.571 949.000 674.786 949.538 L 720.000 950.075 720.000 776.038 L 720.000 602.000 688.299 602.000 L 656.598 602.000 655.250 698.500 C 654.508 751.575,653.339 802.562,652.651 811.806 L 651.400 828.611 647.959 821.806 C 644.705 815.368,611.683 721.619,583.751 639.520 L 571.000 602.040 525.500 602.020 L 480.000 602.000 480.000 776.000 M331.716 665.893 C 342.539 667.940,349.951 673.228,354.497 682.142 C 359.631 692.210,359.540 734.111,354.363 744.031 C 347.867 756.480,336.825 760.236,303.009 761.502 L 274.000 762.588 274.000 712.002 L 274.000 661.416 298.500 662.830 C 311.975 663.608,326.922 664.986,331.716 665.893 " fill="#1D1E23" stroke="none" fill-rule="evenodd"></path></svg>