<svg width="1200" height="1200" viewBox="0 0 1200 1200" fill="none" xmlns="http://www.w3.org/2000/svg"><path d="M136.000 52.173 C 119.744 55.306,95.975 68.665,82.259 82.378 C 68.310 96.324,56.035 118.858,52.180 137.598 C 49.102 152.562,49.102 1047.438,52.180 1062.402 C 53.379 1068.231,57.872 1080.358,62.165 1089.351 C 76.661 1119.718,105.079 1141.966,137.000 1147.936 C 145.709 1149.565,274.618 1150.019,607.000 1149.590 L 1065.000 1149.000 1077.000 1144.442 C 1103.931 1134.214,1125.790 1114.333,1137.956 1089.000 C 1142.182 1080.200,1146.621 1068.231,1147.820 1062.402 C 1149.343 1054.999,1150.000 950.512,1150.000 715.844 L 1150.000 379.884 989.500 214.984 L 829.000 50.084 487.000 50.261 C 298.900 50.359,140.950 51.219,136.000 52.173 M774.486 297.500 L 775.000 435.000 908.500 435.514 L 1042.000 436.028 1042.000 738.014 L 1042.000 1040.000 600.000 1040.000 L 158.000 1040.000 158.000 600.000 L 158.000 160.000 465.986 160.000 L 773.972 160.000 774.486 297.500 M852.403 599.922 C 798.389 614.525,768.730 658.133,759.855 736.000 C 756.872 762.163,758.512 822.461,762.843 845.943 C 774.205 907.536,803.564 945.907,845.600 954.103 C 882.775 961.351,917.638 945.195,934.283 913.005 C 944.272 893.687,946.000 895.456,946.000 925.000 L 946.000 950.000 979.000 950.000 L 1012.000 950.000 1012.000 857.000 L 1012.000 764.000 949.000 764.000 L 886.000 764.000 886.000 790.000 L 886.000 816.000 916.000 816.000 L 946.000 816.000 946.000 832.369 C 946.000 856.119,941.389 870.589,930.126 882.186 C 922.433 890.106,919.141 891.961,909.159 894.003 C 881.248 899.712,858.872 889.682,848.021 866.598 C 840.263 850.093,837.808 833.167,836.623 788.000 C 834.041 689.606,847.350 656.088,889.000 656.088 C 912.696 656.088,927.197 668.192,936.903 696.073 C 941.902 710.434,943.035 712.174,946.775 711.239 C 949.099 710.658,964.725 706.914,981.500 702.920 C 998.275 698.925,1012.000 694.991,1012.000 694.178 C 1012.000 693.366,1009.767 686.134,1007.037 678.108 C 993.653 638.759,972.164 615.772,936.239 602.378 C 917.403 595.355,874.000 594.084,852.403 599.922 M198.000 776.000 L 198.000 950.000 236.000 950.000 L 274.000 950.000 274.000 886.000 L 274.000 822.000 314.211 822.000 C 344.312 822.000,357.476 821.209,366.569 818.853 C 400.968 809.939,424.454 786.746,435.279 751.000 C 440.403 734.082,440.403 689.918,435.279 673.000 C 424.326 636.831,401.040 614.295,365.080 605.061 C 355.381 602.571,338.700 602.000,275.580 602.000 L 198.000 602.000 198.000 776.000 M480.000 776.000 L 480.000 950.000 512.000 950.000 L 544.000 950.000 544.000 833.853 C 544.000 727.927,544.285 717.764,547.235 718.353 C 549.579 718.822,561.327 750.694,589.865 834.000 L 629.260 949.000 674.630 949.538 L 720.000 950.075 720.000 776.038 L 720.000 602.000 688.000 602.000 L 656.000 602.000 656.000 716.882 C 656.000 799.014,655.366 832.156,653.776 833.138 C 652.553 833.894,650.978 833.544,650.276 832.361 C 649.574 831.177,631.450 778.867,610.000 716.116 L 571.000 602.023 525.500 602.012 L 480.000 602.000 480.000 776.000 M336.906 664.217 C 348.488 667.433,357.007 676.917,359.734 689.633 C 364.365 711.223,361.453 739.071,353.509 749.170 C 345.358 759.532,336.067 761.908,303.500 761.956 L 274.000 762.000 274.000 712.000 L 274.000 662.000 301.500 662.011 C 316.625 662.017,332.558 663.010,336.906 664.217 " fill="#1D1E23" stroke="none" fill-rule="evenodd"></path></svg>