<svg width="1200" height="1200" viewBox="0 0 1200 1200" fill="none" xmlns="http://www.w3.org/2000/svg"><path d="M554.273 102.069 C 398.160 117.159,260.373 202.186,175.186 336.000 C 159.234 361.058,136.757 409.284,126.142 441.230 C 91.501 545.477,91.501 654.523,126.142 758.770 C 150.487 832.034,190.954 897.156,246.899 953.101 C 324.364 1030.567,419.809 1078.547,530.000 1095.418 C 561.811 1100.288,637.929 1100.275,668.732 1095.393 C 700.806 1090.310,731.637 1082.978,757.798 1074.213 C 929.348 1016.733,1056.410 871.947,1090.730 694.842 C 1144.765 415.999,954.991 148.178,673.350 105.808 C 642.882 101.224,582.596 99.331,554.273 102.069 M524.705 405.072 C 548.610 411.525,572.852 425.302,591.146 442.831 L 600.000 451.314 608.854 442.831 C 620.251 431.910,639.413 418.924,652.989 412.920 C 673.462 403.866,687.407 401.195,714.000 401.233 C 736.027 401.265,740.903 401.925,755.000 406.782 C 798.878 421.899,828.049 451.063,843.237 495.000 C 848.168 509.266,848.769 513.818,848.785 537.000 C 848.798 557.937,847.925 566.116,844.298 579.000 C 831.331 625.064,797.321 672.861,732.219 736.509 C 694.233 773.648,601.558 858.198,599.598 857.502 C 595.599 856.082,498.123 765.995,464.884 733.000 C 410.656 679.169,385.599 647.694,368.179 611.523 C 338.155 549.182,346.570 484.002,390.286 440.286 C 409.303 421.269,436.857 406.678,462.410 402.093 C 476.578 399.551,510.210 401.159,524.705 405.072 " fill="#1D1E23" stroke="none" fill-rule="evenodd"></path></svg>