<svg width="1200" height="1200" viewBox="0 0 1200 1200" fill="none" xmlns="http://www.w3.org/2000/svg"><path d="M554.273 102.069 C 398.160 117.159,260.373 202.186,175.186 336.000 C 159.234 361.058,136.757 409.284,126.142 441.230 C 91.501 545.477,91.501 654.523,126.142 758.770 C 150.487 832.034,190.954 897.156,246.899 953.101 C 324.364 1030.567,419.809 1078.547,530.000 1095.418 C 561.811 1100.288,637.929 1100.275,668.732 1095.393 C 700.806 1090.310,731.637 1082.978,757.798 1074.213 C 929.348 1016.733,1056.410 871.947,1090.730 694.842 C 1144.765 415.999,954.991 148.178,673.350 105.808 C 642.882 101.224,582.596 99.331,554.273 102.069 M610.779 282.500 C 614.167 285.549,628.455 316.992,655.082 380.000 C 676.699 431.150,695.212 473.869,696.223 474.931 C 697.736 476.519,882.085 493.646,900.591 493.918 C 912.055 494.086,919.850 509.070,914.081 519.848 C 913.026 521.820,877.026 553.830,834.081 590.981 C 791.137 628.132,756.000 659.227,756.000 660.081 C 756.000 660.935,766.350 706.135,779.000 760.526 C 791.650 814.917,802.000 861.749,802.000 864.598 C 802.000 867.446,799.867 872.257,797.259 875.288 C 788.065 885.978,786.802 885.409,690.719 827.347 C 642.164 798.006,601.341 774.000,600.000 774.000 C 598.659 774.000,557.836 798.006,509.281 827.347 C 413.198 885.409,411.935 885.978,402.741 875.288 C 400.133 872.257,398.000 867.475,398.000 864.661 C 398.000 861.847,408.409 814.872,421.131 760.272 C 434.457 703.083,443.571 659.995,442.631 658.628 C 441.734 657.324,409.500 629.092,371.000 595.890 C 282.220 519.329,284.000 521.046,284.000 511.961 C 284.000 503.916,289.442 496.613,296.555 495.109 C 299.000 494.592,346.450 490.401,402.000 485.795 C 457.550 481.190,503.285 477.192,503.633 476.911 C 503.981 476.631,522.256 433.786,544.243 381.700 C 571.381 317.415,585.827 285.555,589.222 282.500 C 591.973 280.025,596.823 278.000,600.000 278.000 C 603.177 278.000,608.028 280.025,610.779 282.500 " fill="#1D1E23" stroke="none" fill-rule="evenodd"></path></svg>