<svg width="1200" height="1200" viewBox="0 0 1200 1200" fill="none" xmlns="http://www.w3.org/2000/svg"><path d="M895.000 152.255 C 812.221 162.595,738.987 223.109,712.095 303.393 C 680.940 396.405,713.086 497.440,792.698 556.729 C 828.093 583.088,879.756 599.976,925.000 599.976 C 1020.476 599.976,1107.541 537.258,1137.905 446.607 C 1149.398 412.293,1152.431 377.288,1147.021 341.393 C 1128.780 220.378,1017.602 136.940,895.000 152.255 M946.000 232.000 C 946.000 239.700,946.866 246.000,947.925 246.000 C 955.347 246.000,973.614 255.705,983.610 264.960 C 994.397 274.947,1005.867 292.799,1003.206 295.460 C 1001.653 297.014,971.816 310.000,969.801 310.000 C 968.959 310.000,967.697 308.195,966.997 305.989 C 964.869 299.284,955.959 290.064,947.248 285.552 C 936.109 279.781,916.210 279.763,904.994 285.513 C 892.656 291.837,887.558 298.444,886.534 309.435 C 884.801 328.050,895.730 336.910,940.503 353.183 C 969.665 363.782,983.486 371.733,995.112 384.597 C 1006.896 397.636,1012.000 411.963,1012.000 432.000 C 1012.000 461.666,999.714 481.863,973.774 494.840 C 966.044 498.707,956.633 502.450,952.860 503.158 L 946.000 504.445 946.000 518.223 L 946.000 532.000 926.000 532.000 L 906.000 532.000 906.000 518.316 L 906.000 504.632 891.801 499.061 C 872.578 491.519,854.734 474.911,845.044 455.544 C 841.170 447.799,838.000 440.331,838.000 438.948 C 838.000 437.566,841.825 434.894,846.500 433.012 C 851.175 431.130,859.242 427.908,864.426 425.853 L 873.851 422.117 879.962 434.920 C 886.945 449.552,900.573 462.859,911.755 465.965 C 928.574 470.637,949.570 467.469,960.010 458.685 C 968.612 451.447,972.000 443.859,972.000 431.835 C 972.000 418.715,967.016 410.339,954.443 402.326 C 945.479 396.614,940.480 394.435,903.324 380.049 C 872.472 368.104,855.426 352.322,849.124 329.869 C 845.029 315.277,845.181 309.072,850.021 293.404 C 856.527 272.339,875.256 254.372,897.500 247.857 L 906.000 245.367 906.000 231.683 L 906.000 218.000 926.000 218.000 L 946.000 218.000 946.000 232.000 M50.000 825.000 L 50.000 1100.000 150.000 1100.000 L 250.000 1100.000 250.000 825.000 L 250.000 550.000 150.000 550.000 L 50.000 550.000 50.000 825.000 M350.003 775.500 L 350.005 1001.000 524.983 1050.475 L 699.960 1099.949 898.480 1025.705 C 1007.666 984.871,1097.858 950.680,1098.906 949.725 C 1102.064 946.847,1096.494 920.139,1089.928 906.670 C 1078.887 884.024,1057.467 864.905,1032.497 855.411 C 1021.049 851.058,1020.195 851.035,832.000 849.933 L 643.000 848.827 595.337 831.583 C 569.122 822.099,547.304 813.970,546.852 813.518 C 545.940 812.607,558.655 773.922,561.318 769.506 C 562.674 767.257,571.342 769.938,606.000 783.326 L 649.000 799.937 728.000 799.469 L 807.000 799.000 817.000 793.679 C 828.978 787.305,837.925 778.198,844.194 766.000 C 850.631 753.475,850.787 728.755,844.505 716.767 C 838.319 704.961,830.798 696.636,821.289 691.068 C 816.730 688.398,730.876 655.566,630.502 618.107 L 448.004 550.000 399.002 550.000 L 350.000 550.000 350.003 775.500 " fill="#1D1E23" stroke="none" fill-rule="evenodd"></path></svg>