<svg width="1200" height="1200" viewBox="0 0 1200 1200" fill="none" xmlns="http://www.w3.org/2000/svg"><path d="M941.515 71.500 C 939.808 73.425,926.935 100.347,912.910 131.326 L 887.409 187.652 831.205 213.098 C 800.292 227.094,773.425 239.911,771.500 241.582 C 769.575 243.253,768.000 247.041,768.000 250.000 C 768.000 252.959,769.575 256.777,771.500 258.485 C 773.425 260.192,800.309 273.048,831.242 287.052 L 887.485 312.515 912.948 368.758 C 926.952 399.691,939.808 426.575,941.515 428.500 C 943.223 430.425,947.041 432.000,950.000 432.000 C 952.959 432.000,956.777 430.425,958.485 428.500 C 960.192 426.575,973.048 399.691,987.052 368.758 L 1012.515 312.515 1068.758 287.052 C 1099.691 273.048,1126.575 260.192,1128.500 258.485 C 1130.425 256.777,1132.000 252.959,1132.000 250.000 C 1132.000 247.041,1130.425 243.253,1128.500 241.582 C 1126.575 239.911,1099.708 227.094,1068.795 213.098 L 1012.591 187.652 987.090 131.326 C 973.065 100.347,960.192 73.425,958.485 71.500 C 956.777 69.575,952.959 68.000,950.000 68.000 C 947.041 68.000,943.223 69.575,941.515 71.500 M410.011 202.180 C 335.321 209.366,260.303 240.038,200.000 288.046 C 180.793 303.337,147.451 337.015,133.715 355.000 C 79.720 425.695,50.000 512.674,50.000 600.000 C 50.000 690.517,82.155 781.117,139.438 852.000 C 153.750 869.710,188.036 903.329,205.000 916.285 C 275.655 970.249,362.662 999.967,450.000 999.967 C 537.338 999.967,624.345 970.249,695.000 916.285 C 711.964 903.329,746.250 869.710,760.562 852.000 C 817.817 781.151,849.967 690.532,849.967 600.000 C 849.967 497.942,810.190 398.507,740.037 325.195 C 653.497 234.757,534.075 190.243,410.011 202.180 M577.000 453.780 C 610.355 469.174,605.689 515.605,569.960 523.838 C 565.032 524.973,547.275 525.924,530.500 525.951 L 500.000 526.000 499.956 635.500 C 499.915 738.122,499.677 745.517,496.174 753.232 C 489.286 768.399,474.003 775.902,450.000 775.902 C 425.997 775.902,410.714 768.399,403.826 753.232 C 400.323 745.517,400.085 738.122,400.044 635.500 L 400.000 526.000 369.500 525.951 C 352.725 525.924,334.968 524.973,330.040 523.838 C 294.311 515.605,289.645 469.174,323.000 453.780 C 330.494 450.321,338.529 450.088,450.000 450.088 C 561.471 450.088,569.506 450.321,577.000 453.780 M941.515 771.500 C 939.808 773.425,926.935 800.347,912.910 831.326 L 887.409 887.652 831.205 913.098 C 800.292 927.094,773.425 939.911,771.500 941.582 C 769.575 943.253,768.000 947.041,768.000 950.000 C 768.000 952.959,769.575 956.777,771.500 958.485 C 773.425 960.192,800.309 973.048,831.242 987.052 L 887.485 1012.515 912.948 1068.758 C 926.952 1099.691,939.808 1126.575,941.515 1128.500 C 943.223 1130.425,947.041 1132.000,950.000 1132.000 C 952.959 1132.000,956.777 1130.425,958.485 1128.500 C 960.192 1126.575,973.048 1099.691,987.052 1068.758 L 1012.515 1012.515 1068.758 987.052 C 1099.691 973.048,1126.575 960.192,1128.500 958.485 C 1130.425 956.777,1132.000 952.959,1132.000 950.000 C 1132.000 947.041,1130.425 943.253,1128.500 941.582 C 1126.575 939.911,1099.708 927.094,1068.795 913.098 L 1012.591 887.652 987.090 831.326 C 973.065 800.347,960.192 773.425,958.485 771.500 C 956.777 769.575,952.959 768.000,950.000 768.000 C 947.041 768.000,943.223 769.575,941.515 771.500 " fill="#1D1E23" stroke="none" fill-rule="evenodd"></path></svg>