<svg width="1200" height="1200" viewBox="0 0 1200 1200" fill="none" xmlns="http://www.w3.org/2000/svg"><path d="M331.000 151.227 C 328.800 151.674,322.267 152.997,316.482 154.167 C 272.113 163.143,229.270 199.234,211.683 242.451 C 199.467 272.469,200.000 256.143,200.000 600.000 C 200.000 943.857,199.467 927.531,211.683 957.549 C 226.054 992.864,257.136 1023.946,292.451 1038.317 C 322.197 1050.423,311.064 1050.000,600.000 1050.000 C 829.981 1050.000,866.097 1049.602,879.067 1046.923 C 939.010 1034.541,984.541 989.010,996.923 929.067 C 1001.433 907.229,1001.524 292.523,997.020 271.262 C 986.856 223.291,958.192 186.442,914.816 165.586 C 882.173 149.891,908.549 151.157,606.000 150.765 C 456.950 150.573,333.200 150.780,331.000 151.227 M867.009 253.312 C 872.825 255.294,880.145 260.040,885.233 265.127 C 901.062 280.956,900.000 256.882,900.000 600.000 C 900.000 943.118,901.062 919.044,885.233 934.873 C 869.021 951.084,889.460 950.000,600.000 950.000 C 310.865 950.000,330.948 951.053,314.947 935.053 C 298.831 918.936,300.000 945.139,300.000 600.000 C 300.000 254.788,298.825 281.070,314.983 264.911 C 330.613 249.282,310.334 250.335,599.144 250.158 C 834.437 250.014,858.148 250.293,867.009 253.312 M576.688 389.951 C 545.007 396.723,514.559 420.107,500.260 448.648 C 467.728 513.583,502.871 591.124,572.920 608.964 C 631.853 623.973,693.780 586.700,708.964 527.080 C 720.205 482.941,700.878 432.071,663.533 407.503 C 644.504 394.986,627.655 389.610,605.065 388.849 C 594.029 388.478,581.259 388.973,576.688 389.951 M566.000 702.231 C 538.540 705.365,507.459 712.185,481.083 720.865 C 426.314 738.887,393.380 761.396,380.449 789.642 C 376.130 799.075,375.213 804.504,374.408 825.382 L 373.460 850.000 600.000 850.000 L 826.540 850.000 825.592 825.382 C 824.787 804.504,823.870 799.075,819.551 789.642 C 806.620 761.396,773.686 738.887,718.917 720.865 C 666.448 703.599,612.069 696.973,566.000 702.231 " fill="#1D1E23" stroke="none" fill-rule="evenodd"></path></svg>