<svg width="1200" height="1200" viewBox="0 0 1200 1200" fill="none" xmlns="http://www.w3.org/2000/svg"><path d="M568.000 131.753 L 568.000 163.506 548.500 165.898 C 455.125 177.349,370.795 216.665,299.135 282.157 C 281.669 298.120,252.029 333.514,235.830 357.754 C 199.181 412.591,173.698 481.809,165.419 549.000 L 162.954 569.000 131.477 569.551 L 100.000 570.102 100.000 601.051 L 100.000 632.000 131.742 632.000 L 163.483 632.000 164.853 646.500 C 170.338 704.549,195.495 777.866,227.756 829.820 C 262.936 886.475,313.525 937.064,370.180 972.244 C 422.134 1004.505,495.451 1029.662,553.500 1035.147 L 568.000 1036.517 568.000 1068.258 L 568.000 1100.000 600.000 1100.000 L 632.000 1100.000 632.000 1068.258 L 632.000 1036.517 646.500 1035.147 C 691.128 1030.930,749.751 1013.701,793.810 991.853 C 926.209 926.196,1016.172 799.231,1034.262 652.500 L 1036.789 632.000 1068.395 632.000 L 1100.000 632.000 1100.000 601.051 L 1100.000 570.102 1068.598 569.551 L 1037.196 569.000 1033.731 543.813 C 1026.777 493.274,1014.281 452.190,992.116 407.000 C 926.889 274.013,799.852 184.091,651.500 165.898 L 632.000 163.506 632.000 131.753 L 632.000 100.000 600.000 100.000 L 568.000 100.000 568.000 131.753 M568.448 256.500 L 569.000 287.000 600.500 287.551 L 632.000 288.102 632.000 257.101 L 632.000 226.100 637.500 227.017 C 640.525 227.522,650.200 228.939,659.000 230.167 C 691.891 234.757,734.905 248.432,766.875 264.462 C 855.821 309.060,922.176 385.076,954.920 479.883 C 962.417 501.592,971.257 541.690,972.362 559.000 L 973.000 569.000 942.500 569.552 L 912.000 570.104 912.000 601.052 L 912.000 632.000 942.754 632.000 L 973.509 632.000 972.569 641.500 C 970.646 660.934,961.906 699.888,954.930 720.117 C 927.911 798.462,878.848 863.227,811.366 909.629 C 764.667 941.741,700.042 965.944,642.500 972.873 L 632.000 974.138 632.000 943.018 L 632.000 911.898 600.500 912.449 L 569.000 913.000 568.448 943.562 L 567.895 974.124 557.448 972.866 C 501.635 966.149,439.655 943.433,393.000 912.595 C 324.388 867.245,272.637 799.904,245.080 720.117 C 238.098 699.899,229.357 660.962,227.431 641.500 L 226.491 632.000 257.246 632.000 L 288.000 632.000 288.000 601.052 L 288.000 570.104 257.500 569.552 L 227.000 569.000 227.638 559.000 C 227.989 553.500,230.434 538.147,233.072 524.883 C 263.549 371.625,390.440 251.720,546.000 229.182 C 556.450 227.669,565.652 226.333,566.448 226.215 C 567.244 226.097,568.144 239.725,568.448 256.500 M507.869 488.196 C 457.189 564.204,415.240 627.654,414.648 629.196 C 413.736 631.572,425.404 632.000,491.000 632.000 C 552.150 632.000,568.215 632.526,567.413 634.500 C 566.854 635.875,546.872 682.450,523.008 738.000 C 499.143 793.550,478.760 841.250,477.712 844.000 C 475.357 850.179,466.067 859.515,638.916 682.000 L 778.158 539.000 701.019 538.000 L 623.880 537.000 704.940 444.362 C 749.523 393.412,786.000 351.337,786.000 350.862 C 786.000 350.388,744.153 350.000,693.007 350.000 L 600.015 350.000 507.869 488.196 " fill="#1D1E23" stroke="none" fill-rule="evenodd"></path></svg>