<svg width="1200" height="1200" viewBox="0 0 1200 1200" fill="none" xmlns="http://www.w3.org/2000/svg"><path d="M136.000 52.173 C 119.744 55.306,95.975 68.665,82.259 82.378 C 68.310 96.324,56.035 118.858,52.180 137.598 C 49.102 152.562,49.102 1047.438,52.180 1062.402 C 53.379 1068.231,57.872 1080.358,62.165 1089.351 C 76.661 1119.718,105.079 1141.966,137.000 1147.936 C 145.709 1149.565,274.618 1150.019,607.000 1149.590 L 1065.000 1149.000 1077.000 1144.442 C 1103.931 1134.214,1125.790 1114.333,1137.956 1089.000 C 1142.182 1080.200,1146.621 1068.231,1147.820 1062.402 C 1149.343 1054.999,1150.000 950.512,1150.000 715.844 L 1150.000 379.884 989.500 214.984 L 829.000 50.084 487.000 50.261 C 298.900 50.359,140.950 51.219,136.000 52.173 M774.486 297.500 L 775.000 435.000 908.500 435.514 L 1042.000 436.028 1042.000 738.014 L 1042.000 1040.000 600.000 1040.000 L 158.000 1040.000 158.000 600.000 L 158.000 160.000 465.986 160.000 L 773.972 160.000 774.486 297.500 M198.000 776.000 L 198.000 950.000 236.000 950.000 L 274.000 950.000 274.000 886.000 L 274.000 822.000 314.211 822.000 C 344.312 822.000,357.476 821.209,366.569 818.853 C 400.968 809.939,424.454 786.746,435.279 751.000 C 440.403 734.082,440.403 689.918,435.279 673.000 C 424.326 636.831,401.040 614.295,365.080 605.061 C 355.381 602.571,338.700 602.000,275.580 602.000 L 198.000 602.000 198.000 776.000 M488.000 776.000 L 488.000 950.000 526.000 950.000 L 564.000 950.000 564.000 886.000 L 564.000 822.000 604.500 821.885 C 650.765 821.753,663.767 819.441,682.882 807.949 C 719.959 785.656,736.814 738.023,727.038 683.162 C 719.871 642.942,694.321 615.326,654.736 605.015 C 645.383 602.579,628.261 602.000,565.580 602.000 L 488.000 602.000 488.000 776.000 M752.000 632.000 L 752.000 662.000 802.000 662.000 L 852.000 662.000 852.000 806.000 L 852.000 950.000 890.000 950.000 L 928.000 950.000 928.000 806.000 L 928.000 662.000 978.000 662.000 L 1028.000 662.000 1028.000 632.000 L 1028.000 602.000 890.000 602.000 L 752.000 602.000 752.000 632.000 M336.906 664.217 C 348.488 667.433,357.007 676.917,359.734 689.633 C 364.365 711.223,361.453 739.071,353.509 749.170 C 345.358 759.532,336.067 761.908,303.500 761.956 L 274.000 762.000 274.000 712.000 L 274.000 662.000 301.500 662.011 C 316.625 662.017,332.558 663.010,336.906 664.217 M633.791 667.000 C 644.391 673.244,648.179 679.947,650.599 696.746 C 653.303 715.516,650.391 739.839,644.492 747.754 C 635.975 759.181,629.783 760.940,595.500 761.676 L 564.000 762.351 564.000 712.000 L 564.000 661.649 595.500 662.324 C 622.636 662.906,627.941 663.554,633.791 667.000 " fill="#1D1E23" stroke="none" fill-rule="evenodd"></path></svg>