<svg width="1200" height="1200" viewBox="0 0 1200 1200" fill="none" xmlns="http://www.w3.org/2000/svg"><path d="M50.000 600.000 L 50.000 1150.000 600.000 1150.000 L 1150.000 1150.000 1150.000 749.495 L 1150.000 348.990 1000.495 199.495 L 850.990 50.000 450.495 50.000 L 50.000 50.000 50.000 600.000 M800.000 275.000 L 800.000 400.000 925.000 400.000 L 1050.000 400.000 1050.000 725.000 L 1050.000 1050.000 600.000 1050.000 L 150.000 1050.000 150.000 600.000 L 150.000 150.000 475.000 150.000 L 800.000 150.000 800.000 275.000 M198.000 776.000 L 198.000 950.000 236.000 950.000 L 274.000 950.000 274.000 886.000 L 274.000 822.000 304.552 822.000 C 365.871 822.000,386.323 815.899,410.239 790.473 C 432.874 766.410,437.809 750.518,437.935 701.292 L 438.000 675.585 430.512 661.292 C 421.623 644.325,399.383 621.038,385.786 614.462 C 380.718 612.010,371.731 609.087,365.815 607.965 C 354.933 605.901,261.899 602.106,220.500 602.037 L 198.000 602.000 198.000 776.000 M488.000 776.000 L 488.000 950.000 526.000 950.000 L 564.000 950.000 564.000 886.315 L 564.000 822.629 604.500 821.340 C 663.704 819.456,676.355 815.577,698.280 792.587 C 711.450 778.776,720.775 761.450,725.235 742.500 C 729.601 723.951,728.068 685.670,722.311 669.503 C 711.110 638.045,684.025 613.653,654.000 607.983 C 643.276 605.958,549.500 602.130,508.500 602.043 L 488.000 602.000 488.000 776.000 M752.000 632.000 L 752.000 662.000 802.000 662.000 L 852.000 662.000 852.000 806.000 L 852.000 950.000 890.000 950.000 L 928.000 950.000 928.000 806.000 L 928.000 662.000 978.000 662.000 L 1028.000 662.000 1028.000 632.000 L 1028.000 602.000 890.000 602.000 L 752.000 602.000 752.000 632.000 M331.716 665.893 C 342.539 667.940,349.951 673.228,354.497 682.142 C 359.631 692.210,359.540 734.111,354.363 744.031 C 347.867 756.480,336.825 760.236,303.009 761.502 L 274.000 762.588 274.000 712.002 L 274.000 661.416 298.500 662.830 C 311.975 663.608,326.922 664.986,331.716 665.893 M621.989 666.182 C 643.026 669.565,647.558 677.839,647.839 713.370 C 648.016 735.734,646.377 742.241,638.486 750.513 C 631.193 758.158,623.193 760.010,591.500 761.393 L 564.000 762.594 564.000 712.057 L 564.000 661.520 587.500 662.968 C 600.425 663.764,615.945 665.210,621.989 666.182 " fill="#1D1E23" stroke="none" fill-rule="evenodd"></path></svg>