<svg width="1200" height="1200" viewBox="0 0 1200 1200" fill="none" xmlns="http://www.w3.org/2000/svg"><path d="M162.000 225.000 L 162.000 350.000 194.000 350.000 L 226.000 350.000 226.000 225.000 L 226.000 100.000 194.000 100.000 L 162.000 100.000 162.000 225.000 M256.000 194.051 L 256.000 288.102 287.500 287.551 L 319.000 287.000 319.520 193.500 L 320.040 100.000 288.020 100.000 L 256.000 100.000 256.000 194.051 M350.000 194.000 L 350.000 288.000 366.000 288.000 L 382.000 288.000 382.000 194.000 L 382.000 100.000 366.000 100.000 L 350.000 100.000 350.000 194.000 M412.000 194.000 L 412.000 288.000 428.000 288.000 L 444.000 288.000 444.000 194.000 L 444.000 100.000 428.000 100.000 L 412.000 100.000 412.000 194.000 M474.480 193.500 L 475.000 287.000 506.500 287.551 L 538.000 288.102 538.000 194.051 L 538.000 100.000 505.980 100.000 L 473.960 100.000 474.480 193.500 M568.480 193.500 L 569.000 287.000 584.500 287.584 L 600.000 288.168 600.000 194.084 L 600.000 100.000 583.980 100.000 L 567.960 100.000 568.480 193.500 M632.000 225.000 L 632.000 350.000 663.000 350.000 L 694.000 350.000 694.000 225.000 L 694.000 100.000 663.000 100.000 L 632.000 100.000 632.000 225.000 M974.996 538.004 L 897.032 615.987 865.510 584.510 L 833.987 553.034 810.506 576.515 L 787.025 599.997 840.998 653.998 C 870.684 683.699,895.882 708.000,896.994 708.000 C 898.105 708.000,944.242 662.766,999.519 607.481 L 1100.024 506.961 1076.492 483.491 L 1052.960 460.020 974.996 538.004 M162.000 507.051 L 162.000 538.102 193.500 537.551 L 225.000 537.000 225.552 506.500 L 226.104 476.000 194.052 476.000 L 162.000 476.000 162.000 507.051 M256.000 507.000 L 256.000 538.000 272.000 538.000 L 288.000 538.000 288.000 507.000 L 288.000 476.000 272.000 476.000 L 256.000 476.000 256.000 507.000 M318.448 506.500 L 319.000 537.000 350.500 537.551 L 382.000 538.102 382.000 507.051 L 382.000 476.000 349.948 476.000 L 317.896 476.000 318.448 506.500 M412.000 507.000 L 412.000 538.000 428.000 538.000 L 444.000 538.000 444.000 507.000 L 444.000 476.000 428.000 476.000 L 412.000 476.000 412.000 507.000 M474.448 506.500 L 475.000 537.000 506.500 537.551 L 538.000 538.102 538.000 507.051 L 538.000 476.000 505.948 476.000 L 473.896 476.000 474.448 506.500 M568.448 506.500 L 569.000 537.000 584.500 537.584 L 600.000 538.168 600.000 507.084 L 600.000 476.000 583.948 476.000 L 567.896 476.000 568.448 506.500 M632.000 507.000 L 632.000 538.000 663.000 538.000 L 694.000 538.000 694.000 507.000 L 694.000 476.000 663.000 476.000 L 632.000 476.000 632.000 507.000 M100.000 585.000 L 100.000 600.000 428.000 600.000 L 756.000 600.000 756.000 585.000 L 756.000 570.000 428.000 570.000 L 100.000 570.000 100.000 585.000 M162.463 678.500 L 163.000 725.000 194.000 725.000 L 225.000 725.000 225.537 678.500 L 226.074 632.000 194.000 632.000 L 161.926 632.000 162.463 678.500 M256.000 647.000 L 256.000 662.000 272.000 662.000 L 288.000 662.000 288.000 647.000 L 288.000 632.000 272.000 632.000 L 256.000 632.000 256.000 647.000 M318.000 647.000 L 318.000 662.000 350.000 662.000 L 382.000 662.000 382.000 647.000 L 382.000 632.000 350.000 632.000 L 318.000 632.000 318.000 647.000 M412.000 647.000 L 412.000 662.000 428.000 662.000 L 444.000 662.000 444.000 647.000 L 444.000 632.000 428.000 632.000 L 412.000 632.000 412.000 647.000 M474.000 647.000 L 474.000 662.000 506.000 662.000 L 538.000 662.000 538.000 647.000 L 538.000 632.000 506.000 632.000 L 474.000 632.000 474.000 647.000 M568.000 647.000 L 568.000 662.000 584.000 662.000 L 600.000 662.000 600.000 647.000 L 600.000 632.000 584.000 632.000 L 568.000 632.000 568.000 647.000 M632.000 679.000 L 632.000 726.000 663.000 726.000 L 694.000 726.000 694.000 679.000 L 694.000 632.000 663.000 632.000 L 632.000 632.000 632.000 679.000 M162.000 975.000 L 162.000 1100.000 194.000 1100.000 L 226.000 1100.000 226.000 975.000 L 226.000 850.000 194.000 850.000 L 162.000 850.000 162.000 975.000 M256.000 944.000 L 256.000 1038.000 272.000 1038.000 L 288.000 1038.000 288.000 944.000 L 288.000 850.000 272.000 850.000 L 256.000 850.000 256.000 944.000 M318.480 943.500 L 319.000 1037.000 334.500 1037.584 L 350.000 1038.168 350.000 944.084 L 350.000 850.000 333.980 850.000 L 317.960 850.000 318.480 943.500 M382.000 944.000 L 382.000 1038.000 413.000 1038.000 L 444.000 1038.000 444.000 944.000 L 444.000 850.000 413.000 850.000 L 382.000 850.000 382.000 944.000 M474.480 943.500 L 475.000 1037.000 490.500 1037.584 L 506.000 1038.168 506.000 944.084 L 506.000 850.000 489.980 850.000 L 473.960 850.000 474.480 943.500 M538.000 944.000 L 538.000 1038.000 569.000 1038.000 L 600.000 1038.000 600.000 944.000 L 600.000 850.000 569.000 850.000 L 538.000 850.000 538.000 944.000 M632.000 975.000 L 632.000 1100.000 663.000 1100.000 L 694.000 1100.000 694.000 975.000 L 694.000 850.000 663.000 850.000 L 632.000 850.000 632.000 975.000 " fill="#1D1E23" stroke="none" fill-rule="evenodd"></path></svg>