<svg width="1200" height="1200" viewBox="0 0 1200 1200" fill="none" xmlns="http://www.w3.org/2000/svg"><path d="M556.000 101.962 C 416.815 115.884,295.232 181.194,209.663 288.000 C 73.683 457.729,63.352 695.839,184.124 876.644 C 338.485 1107.735,647.309 1169.297,878.000 1014.964 C 1107.746 861.264,1168.863 552.043,1014.964 322.000 C 936.423 204.599,815.946 128.109,674.644 105.934 C 645.457 101.354,582.987 99.262,556.000 101.962 M619.317 254.647 C 626.786 258.509,635.552 267.332,639.494 274.954 C 641.211 278.275,643.152 288.074,643.808 296.730 L 645.000 312.469 659.852 316.233 C 691.095 324.153,727.702 347.141,746.213 370.465 C 756.835 383.850,760.011 391.469,759.956 403.436 C 759.872 421.736,747.442 438.538,730.155 443.717 C 711.249 449.382,701.332 445.566,679.064 424.062 C 669.077 414.417,656.219 404.152,650.491 401.249 C 621.578 386.597,584.893 386.782,552.928 401.740 C 536.564 409.398,525.379 419.792,518.560 433.679 C 511.137 448.794,510.778 470.168,517.709 484.433 C 528.054 505.725,557.061 523.901,611.000 542.889 C 676.763 566.038,696.689 574.839,722.680 592.215 C 750.557 610.852,772.207 636.061,783.473 663.000 C 797.447 696.416,797.654 753.336,783.929 788.192 C 765.812 834.198,723.554 867.781,664.208 883.334 L 644.000 888.630 644.000 899.828 C 644.000 921.848,635.890 936.707,619.381 944.934 C 606.026 951.589,593.974 951.589,580.619 944.934 C 563.622 936.464,556.000 921.930,556.000 897.988 L 556.000 884.950 542.709 881.144 C 527.311 876.734,501.900 864.826,488.382 855.686 C 462.692 838.316,436.909 809.573,423.899 783.800 C 408.091 752.484,425.911 720.027,460.755 716.672 C 469.270 715.852,472.857 716.641,482.000 721.343 C 491.541 726.250,494.624 729.477,505.245 745.672 C 525.892 777.158,542.904 791.733,570.473 801.560 C 582.954 806.009,588.239 806.730,608.000 806.681 C 627.420 806.633,633.540 805.792,647.322 801.281 C 686.847 788.343,707.452 760.450,705.702 722.249 C 703.685 678.201,672.903 653.749,577.000 620.015 C 519.232 599.694,487.829 581.934,462.548 555.284 C 423.131 513.734,414.599 451.794,440.744 397.000 C 460.094 356.445,495.227 328.653,544.500 314.921 L 556.000 311.716 556.000 300.345 C 556.000 294.091,556.875 285.921,557.945 282.190 C 561.873 268.496,573.721 256.283,587.297 251.937 C 594.926 249.494,612.176 250.954,619.317 254.647 " fill="#1D1E23" stroke="none" fill-rule="evenodd"></path></svg>