<svg width="1200" height="1200" viewBox="0 0 1200 1200" fill="none" xmlns="http://www.w3.org/2000/svg"><path d="M556.000 101.962 C 416.815 115.884,295.232 181.194,209.663 288.000 C 73.683 457.729,63.352 695.839,184.124 876.644 C 338.485 1107.735,647.309 1169.297,878.000 1014.964 C 1107.746 861.264,1168.863 552.043,1014.964 322.000 C 936.423 204.599,815.946 128.109,674.644 105.934 C 645.457 101.354,582.987 99.262,556.000 101.962 M644.000 280.962 L 644.000 311.924 649.500 313.130 C 688.181 321.617,721.997 341.746,746.414 370.819 C 759.516 386.419,778.116 420.796,774.984 423.623 C 770.947 427.268,699.968 456.216,698.020 455.012 C 696.909 454.326,696.000 452.607,696.000 451.192 C 696.000 446.949,681.190 425.589,672.049 416.648 C 649.539 394.631,614.084 385.603,579.175 392.998 C 549.831 399.215,528.431 413.577,518.560 433.679 C 511.137 448.794,510.778 470.168,517.709 484.433 C 528.054 505.725,557.061 523.901,611.000 542.889 C 676.763 566.038,696.689 574.839,722.680 592.215 C 750.557 610.852,772.207 636.061,783.473 663.000 C 797.447 696.416,797.654 753.336,783.929 788.192 C 765.812 834.198,723.554 867.781,664.208 883.334 L 644.000 888.630 644.000 919.315 L 644.000 950.000 600.050 950.000 L 556.099 950.000 555.550 917.617 L 555.000 885.234 544.000 881.914 C 480.622 862.785,431.033 814.205,409.822 750.464 C 407.494 743.468,405.906 737.510,406.294 737.223 C 406.682 736.936,422.200 730.595,440.777 723.133 C 459.354 715.670,477.442 708.358,480.971 706.883 L 487.389 704.202 493.734 720.904 C 510.038 763.828,542.096 795.304,579.406 805.022 C 604.682 811.605,643.776 806.903,666.475 794.548 C 695.561 778.718,710.976 747.858,705.812 715.796 C 702.322 694.126,690.217 676.598,668.352 661.554 C 654.198 651.816,617.563 635.386,580.000 621.931 C 525.197 602.300,498.969 588.860,473.419 567.316 C 452.596 549.758,434.625 519.398,428.795 491.930 C 424.990 474.000,425.962 443.059,430.898 425.000 C 438.903 395.712,458.099 366.012,481.048 347.408 C 495.589 335.621,524.028 321.350,542.417 316.613 L 556.000 313.114 556.000 281.557 L 556.000 250.000 600.000 250.000 L 644.000 250.000 644.000 280.962 " fill="#1D1E23" stroke="none" fill-rule="evenodd"></path></svg>