<svg width="1200" height="1200" viewBox="0 0 1200 1200" fill="none" xmlns="http://www.w3.org/2000/svg"><path d="M131.770 252.759 C 120.553 256.768,112.518 263.406,106.508 273.631 L 101.000 283.000 100.478 631.651 C 100.006 946.731,100.262 980.947,103.132 986.997 C 109.482 1000.378,105.194 1000.000,250.802 1000.000 L 382.000 1000.000 382.000 625.000 L 382.000 250.000 260.500 250.088 C 166.449 250.156,137.367 250.759,131.770 252.759 M404.000 625.000 L 404.000 1000.000 463.028 1000.000 L 522.057 1000.000 517.116 992.500 C 505.843 975.387,506.000 978.645,506.000 761.580 L 506.000 562.000 528.698 562.000 L 551.396 562.000 552.598 509.500 C 553.383 475.209,554.913 450.757,557.009 439.000 C 560.802 417.730,571.808 384.274,581.066 365.878 C 601.078 326.112,634.625 288.301,671.504 263.944 L 692.617 250.000 548.308 250.000 L 404.000 250.000 404.000 625.000 M794.000 251.389 C 704.221 260.992,625.507 323.890,597.003 408.803 C 586.203 440.974,585.609 446.416,584.583 522.500 L 583.619 594.000 560.810 594.000 L 538.000 594.000 538.000 777.268 C 538.000 910.566,538.633 962.648,540.321 968.283 C 543.640 979.362,554.221 990.742,565.856 995.747 L 575.885 1000.062 821.600 999.531 L 1067.315 999.000 1077.105 992.947 C 1083.171 989.196,1089.196 983.171,1092.947 977.105 L 1099.000 967.316 1099.540 780.658 L 1100.080 594.000 1077.040 594.000 L 1054.000 594.000 1053.984 536.500 C 1053.966 473.214,1052.274 451.968,1045.109 425.000 C 1020.601 332.762,942.566 264.296,848.000 252.064 C 833.436 250.180,808.246 249.865,794.000 251.389 M334.000 367.000 L 334.000 390.000 240.000 390.000 L 146.000 390.000 146.000 367.000 L 146.000 344.000 240.000 344.000 L 334.000 344.000 334.000 367.000 M861.000 350.751 C 901.114 363.655,932.757 392.984,948.655 432.000 C 957.605 453.961,958.328 460.447,959.419 528.500 L 960.470 594.000 819.073 594.000 L 677.676 594.000 678.435 526.500 C 679.178 460.323,679.293 458.699,684.331 443.667 C 692.462 419.404,702.793 402.803,721.045 384.670 C 734.524 371.280,740.860 366.709,756.242 359.279 C 780.949 347.343,797.318 343.853,824.000 344.833 C 839.449 345.400,849.229 346.964,861.000 350.751 M790.225 379.041 C 752.220 389.685,718.814 425.014,711.998 461.773 C 710.899 467.698,710.000 492.673,710.000 517.273 L 710.000 562.000 780.000 562.000 L 850.000 562.000 850.000 471.118 C 850.000 401.826,849.421 379.878,847.563 378.730 C 842.636 375.685,801.410 375.909,790.225 379.041 M186.462 421.538 C 194.673 429.750,195.883 440.730,189.599 450.000 C 181.020 462.655,164.740 464.433,154.176 453.868 C 144.862 444.554,144.643 431.278,153.639 421.268 C 161.875 412.103,177.152 412.229,186.462 421.538 M250.931 416.842 C 259.796 420.546,264.789 430.042,263.384 440.522 C 260.729 460.317,236.772 467.532,223.439 452.552 C 214.172 442.139,216.193 426.371,227.796 418.569 C 235.651 413.288,241.397 412.859,250.931 416.842 M322.065 417.034 C 334.336 423.379,337.817 441.157,328.871 451.788 C 310.614 473.486,277.969 451.199,291.025 425.951 C 296.664 415.048,310.524 411.066,322.065 417.034 " fill="#1D1E23" stroke="none" fill-rule="evenodd"></path></svg>