<svg width="1200" height="1200" viewBox="0 0 1200 1200" fill="none" xmlns="http://www.w3.org/2000/svg"><path d="M300.000 250.000 L 300.000 350.000 600.000 350.000 L 900.000 350.000 900.000 250.000 L 900.000 150.000 600.000 150.000 L 300.000 150.000 300.000 250.000 M231.000 401.233 C 228.800 401.677,222.090 403.036,216.089 404.255 C 172.229 413.162,129.135 449.565,111.683 492.451 C 100.020 521.109,100.000 521.454,100.000 692.916 L 100.000 850.000 200.000 850.000 L 300.000 850.000 300.000 950.000 L 300.000 1050.000 600.000 1050.000 L 900.000 1050.000 900.000 950.000 L 900.000 850.000 1000.000 850.000 L 1100.000 850.000 1100.000 692.916 C 1100.000 559.318,1099.540 533.604,1096.923 520.933 C 1085.199 464.176,1046.461 423.056,987.000 404.252 C 978.048 401.421,938.102 401.055,606.000 400.758 C 401.950 400.576,233.200 400.790,231.000 401.233 M973.250 506.220 C 992.867 516.315,1003.124 538.886,998.165 561.046 C 989.683 598.946,942.489 612.594,914.993 585.098 C 895.365 565.471,895.361 534.533,914.983 514.911 C 930.378 499.516,953.517 496.065,973.250 506.220 M800.000 825.000 L 800.000 950.000 600.000 950.000 L 400.000 950.000 400.000 825.000 L 400.000 700.000 600.000 700.000 L 800.000 700.000 800.000 825.000 " fill="#1D1E23" stroke="none" fill-rule="evenodd"></path></svg>