<svg width="1200" height="1200" viewBox="0 0 1200 1200" fill="none" xmlns="http://www.w3.org/2000/svg"><path d="M320.549 104.186 C 315.901 106.487,310.276 111.318,308.049 114.921 C 304.055 121.382,304.000 124.170,304.000 318.440 L 304.000 515.408 308.500 522.020 C 310.975 525.657,315.540 530.515,318.644 532.816 C 324.123 536.879,326.692 537.017,407.144 537.603 L 490.000 538.205 490.000 554.103 L 490.000 570.000 318.500 570.020 L 147.000 570.039 136.671 574.848 C 123.833 580.826,112.341 592.124,105.916 605.084 L 101.000 615.000 101.000 834.000 L 101.000 1053.000 105.275 1062.245 C 111.410 1075.514,122.642 1087.038,135.679 1093.440 L 147.000 1099.000 600.000 1099.000 L 1053.000 1099.000 1064.321 1093.440 C 1077.358 1087.038,1088.590 1075.514,1094.725 1062.245 L 1099.000 1053.000 1099.000 834.000 L 1099.000 615.000 1094.084 605.084 C 1088.154 593.122,1077.205 581.789,1065.583 575.583 L 1057.000 571.000 883.500 570.457 L 710.000 569.914 710.000 554.060 L 710.000 538.205 792.856 537.603 C 873.308 537.017,875.877 536.879,881.356 532.816 C 884.460 530.515,889.025 525.657,891.500 522.020 L 896.000 515.408 896.000 319.173 C 896.000 97.151,897.234 113.677,879.975 104.550 L 871.371 100.000 600.185 100.002 C 329.069 100.003,328.998 100.004,320.549 104.186 M866.000 319.000 L 866.000 506.000 600.000 506.000 L 334.000 506.000 334.000 319.000 L 334.000 132.000 600.000 132.000 L 866.000 132.000 866.000 319.000 M398.000 225.000 L 398.000 256.000 600.000 256.000 L 802.000 256.000 802.000 225.000 L 802.000 194.000 600.000 194.000 L 398.000 194.000 398.000 225.000 M398.000 319.000 L 398.000 350.000 600.000 350.000 L 802.000 350.000 802.000 319.000 L 802.000 288.000 600.000 288.000 L 398.000 288.000 398.000 319.000 M396.000 413.000 L 396.000 444.000 568.000 444.000 L 740.000 444.000 740.000 413.000 L 740.000 382.000 568.000 382.000 L 396.000 382.000 396.000 413.000 M256.000 679.037 L 256.000 726.074 209.500 725.537 L 163.000 725.000 162.463 678.500 L 161.926 632.000 208.963 632.000 L 256.000 632.000 256.000 679.037 M412.000 679.037 L 412.000 726.074 365.500 725.537 L 319.000 725.000 318.463 678.500 L 317.926 632.000 364.963 632.000 L 412.000 632.000 412.000 679.037 M569.537 678.500 L 569.000 725.000 522.000 725.000 L 475.000 725.000 474.463 678.500 L 473.926 632.000 522.000 632.000 L 570.074 632.000 569.537 678.500 M725.537 678.500 L 725.000 725.000 678.500 725.537 L 632.000 726.074 632.000 679.037 L 632.000 632.000 679.037 632.000 L 726.074 632.000 725.537 678.500 M881.537 678.500 L 881.000 725.000 834.500 725.537 L 788.000 726.074 788.000 679.037 L 788.000 632.000 835.037 632.000 L 882.074 632.000 881.537 678.500 M1037.537 678.500 L 1037.000 725.000 990.500 725.537 L 944.000 726.074 944.000 679.037 L 944.000 632.000 991.037 632.000 L 1038.074 632.000 1037.537 678.500 M334.000 835.000 L 334.000 882.000 287.000 882.000 L 240.000 882.000 240.000 835.000 L 240.000 788.000 287.000 788.000 L 334.000 788.000 334.000 835.000 M490.000 835.037 L 490.000 882.074 443.500 881.537 L 397.000 881.000 396.463 834.500 L 395.926 788.000 442.963 788.000 L 490.000 788.000 490.000 835.037 M647.537 834.500 L 647.000 881.000 600.000 881.000 L 553.000 881.000 552.463 834.500 L 551.926 788.000 600.000 788.000 L 648.074 788.000 647.537 834.500 M803.537 834.500 L 803.000 881.000 756.500 881.537 L 710.000 882.074 710.000 835.037 L 710.000 788.000 757.037 788.000 L 804.074 788.000 803.537 834.500 M960.000 835.000 L 960.000 882.000 913.000 882.000 L 866.000 882.000 866.000 835.000 L 866.000 788.000 913.000 788.000 L 960.000 788.000 960.000 835.000 M850.000 991.000 L 850.000 1038.000 600.000 1038.000 L 350.000 1038.000 350.000 991.000 L 350.000 944.000 600.000 944.000 L 850.000 944.000 850.000 991.000 " fill="#1D1E23" stroke="none" fill-rule="evenodd"></path></svg>