<svg width="1200" height="1200" viewBox="0 0 1200 1200" fill="none" xmlns="http://www.w3.org/2000/svg"><path d="M145.345 102.865 C 133.203 106.129,121.028 114.608,112.580 125.684 C 99.019 143.463,99.921 106.805,100.487 617.409 L 101.000 1079.707 105.124 1085.230 C 107.392 1088.268,111.732 1092.608,114.770 1094.876 C 120.237 1098.959,122.061 1099.005,297.146 1099.532 L 474.000 1100.064 474.000 600.032 L 474.000 100.000 314.500 100.135 C 190.419 100.240,152.856 100.846,145.345 102.865 M506.000 599.985 L 506.000 1100.040 792.854 1099.520 C 1079.052 1099.001,1079.720 1098.991,1085.230 1094.876 C 1088.268 1092.608,1092.608 1088.267,1094.876 1085.230 L 1099.000 1079.707 1099.000 613.353 L 1099.000 147.000 1094.725 137.755 C 1088.590 124.486,1077.358 112.962,1064.321 106.560 L 1053.000 101.000 779.500 100.465 L 506.000 99.931 506.000 599.985 M412.000 256.000 L 412.000 288.000 287.000 288.000 L 162.000 288.000 162.000 257.333 C 162.000 240.467,162.600 226.067,163.333 225.333 C 164.067 224.600,220.317 224.000,288.333 224.000 L 412.000 224.000 412.000 256.000 M202.089 319.992 C 205.988 321.075,211.981 324.895,215.407 328.480 C 228.215 341.886,227.623 360.455,213.993 372.768 C 203.682 382.084,192.975 383.797,181.071 378.035 C 154.622 365.231,157.631 328.456,185.827 319.911 C 192.967 317.748,194.031 317.753,202.089 319.992 M296.202 320.277 C 309.636 324.777,318.000 336.181,318.000 350.000 C 318.000 359.902,314.187 367.805,306.141 374.574 C 282.745 394.261,247.785 368.089,258.833 339.159 C 262.778 328.828,267.117 324.553,277.368 320.898 C 286.872 317.508,287.839 317.476,296.202 320.277 M394.060 322.500 C 415.825 333.495,418.570 360.209,399.435 374.804 C 389.631 382.282,378.952 383.240,368.117 377.613 C 355.166 370.887,351.000 364.167,351.000 350.000 C 351.000 341.344,352.073 336.822,355.117 332.647 C 359.667 326.406,374.522 318.000,381.000 318.000 C 383.284 318.000,389.161 320.025,394.060 322.500 M1037.523 553.508 L 1038.046 632.017 803.523 631.508 L 569.000 631.000 568.475 555.006 C 568.187 513.210,568.385 477.881,568.916 476.498 C 569.685 474.494,617.340 474.087,803.440 474.492 L 1037.000 475.000 1037.523 553.508 M600.000 569.000 L 600.000 600.000 803.000 600.000 L 1006.000 600.000 1006.000 569.000 L 1006.000 538.000 803.000 538.000 L 600.000 538.000 600.000 569.000 M838.000 687.839 L 838.000 713.679 848.500 717.113 C 854.275 719.003,862.500 722.307,866.779 724.457 L 874.558 728.366 892.813 710.187 L 911.068 692.008 935.999 716.999 L 960.930 741.990 942.609 760.495 L 924.287 779.000 928.920 788.000 C 931.468 792.950,934.696 800.825,936.093 805.500 L 938.633 814.000 964.317 814.000 L 990.000 814.000 990.000 850.000 L 990.000 886.000 964.000 886.000 C 940.601 886.000,937.992 886.350,937.922 889.500 C 937.880 891.425,934.843 899.300,931.173 907.000 L 924.501 921.000 942.716 939.505 L 960.930 958.010 935.999 983.001 L 911.068 1007.992 892.938 989.938 L 874.809 971.884 861.904 977.663 C 854.807 980.842,846.525 984.035,843.500 984.759 L 838.000 986.076 838.000 1012.038 L 838.000 1038.000 803.000 1038.000 L 768.000 1038.000 768.000 1012.161 L 768.000 986.321 757.500 982.887 C 751.725 980.997,743.500 977.693,739.221 975.543 L 731.442 971.634 713.187 989.813 L 694.932 1007.992 670.001 983.001 L 645.070 958.010 663.391 939.505 L 681.713 921.000 677.080 912.000 C 674.532 907.050,671.304 899.175,669.907 894.500 L 667.367 886.000 641.683 886.000 L 616.000 886.000 616.000 850.000 L 616.000 814.000 641.683 814.000 L 667.367 814.000 669.907 805.500 C 671.304 800.825,674.532 792.950,677.080 788.000 L 681.713 779.000 663.391 760.495 L 645.070 741.990 670.001 716.999 L 694.932 692.008 713.187 710.187 L 731.442 728.366 739.221 724.457 C 743.500 722.307,751.725 719.003,757.500 717.113 L 768.000 713.679 768.000 687.839 L 768.000 662.000 803.000 662.000 L 838.000 662.000 838.000 687.839 M783.447 782.721 C 772.348 785.843,754.627 797.464,748.664 805.530 C 737.070 821.211,735.000 827.949,735.000 850.000 C 735.000 869.108,735.502 871.952,740.569 881.569 C 747.741 895.181,759.451 906.454,773.681 913.441 C 783.512 918.269,787.366 919.000,803.000 919.000 C 818.328 919.000,822.691 918.207,832.393 913.660 C 885.867 888.594,886.371 813.024,833.237 787.028 C 819.495 780.305,798.491 778.488,783.447 782.721 " fill="#1D1E23" stroke="none" fill-rule="evenodd"></path></svg>