<svg width="1200" height="1200" viewBox="0 0 1200 1200" fill="none" xmlns="http://www.w3.org/2000/svg"><path d="M332.171 153.434 C 320.364 157.604,307.459 170.822,303.312 182.991 C 300.533 191.150,300.000 201.923,300.000 250.000 C 300.000 315.783,300.922 321.027,314.947 335.053 C 330.948 351.053,310.865 350.000,600.000 350.000 C 889.135 350.000,869.052 351.053,885.053 335.053 C 899.078 321.027,900.000 315.783,900.000 250.000 C 900.000 184.217,899.078 178.973,885.053 164.947 C 869.038 148.933,889.288 149.980,599.144 150.158 C 370.702 150.298,339.984 150.675,332.171 153.434 M231.000 401.233 C 228.800 401.677,222.090 403.036,216.089 404.255 C 172.229 413.162,129.135 449.565,111.683 492.451 C 100.417 520.133,100.000 525.683,100.000 647.817 C 100.000 721.847,100.749 763.395,102.210 770.402 C 110.026 807.883,142.117 839.974,179.598 847.790 C 185.844 849.092,212.744 850.000,245.098 850.000 L 300.000 850.000 300.000 904.902 C 300.000 937.256,300.908 964.156,302.210 970.402 C 310.026 1007.883,342.117 1039.974,379.598 1047.790 C 394.463 1050.890,805.537 1050.890,820.402 1047.790 C 857.883 1039.974,889.974 1007.883,897.790 970.402 C 899.092 964.156,900.000 937.256,900.000 904.902 L 900.000 850.000 954.902 850.000 C 987.256 850.000,1014.156 849.092,1020.402 847.790 C 1057.883 839.974,1089.974 807.883,1097.790 770.402 C 1099.251 763.395,1100.000 721.847,1100.000 647.817 C 1100.000 554.811,1099.478 533.306,1096.923 520.933 C 1085.199 464.176,1046.461 423.056,987.000 404.252 C 978.048 401.421,938.102 401.055,606.000 400.758 C 401.950 400.576,233.200 400.790,231.000 401.233 M973.250 506.220 C 992.867 516.315,1003.124 538.886,998.165 561.046 C 989.683 598.946,942.489 612.594,914.993 585.098 C 895.365 565.471,895.361 534.533,914.983 514.911 C 930.378 499.516,953.517 496.065,973.250 506.220 M800.000 802.637 C 800.000 919.810,799.963 920.142,785.233 934.873 C 769.450 950.655,777.469 950.000,600.000 950.000 C 422.781 950.000,430.520 950.625,414.947 935.053 C 399.891 919.996,400.000 920.955,400.000 803.644 L 400.000 700.000 600.000 700.000 L 800.000 700.000 800.000 802.637 " fill="#1D1E23" stroke="none" fill-rule="evenodd"></path></svg>