<svg width="1200" height="1200" viewBox="0 0 1200 1200" fill="none" xmlns="http://www.w3.org/2000/svg"><path d="M584.000 151.209 C 543.854 158.643,510.301 190.802,502.210 229.598 C 499.110 244.463,499.110 655.537,502.210 670.402 C 511.616 715.505,553.994 750.000,600.000 750.000 C 646.006 750.000,688.384 715.505,697.790 670.402 C 700.890 655.537,700.890 244.463,697.790 229.598 C 688.657 185.805,650.029 153.060,605.087 151.015 C 596.239 150.612,586.750 150.699,584.000 151.209 M579.020 852.350 C 542.964 859.226,509.965 892.414,502.210 929.598 C 489.451 990.782,537.548 1050.000,600.000 1050.000 C 653.979 1050.000,700.000 1003.979,700.000 950.000 C 700.000 923.862,689.494 899.139,670.177 879.823 C 645.637 855.283,613.862 845.706,579.020 852.350 " fill="#1D1E23" stroke="none" fill-rule="evenodd"></path></svg>