<svg width="1200" height="1200" viewBox="0 0 1200 1200" fill="none" xmlns="http://www.w3.org/2000/svg"><path d="M150.000 599.909 L 150.000 750.000 188.000 750.000 L 226.000 750.000 226.000 700.000 L 226.000 650.000 279.789 650.000 C 328.059 650.000,334.883 649.589,346.289 645.991 C 370.204 638.448,388.448 620.204,395.991 596.289 C 401.301 579.453,401.821 522.955,396.823 505.863 C 390.282 483.492,376.537 467.840,354.095 457.205 L 341.000 451.000 245.500 450.409 L 150.000 449.819 150.000 599.909 M474.000 600.000 L 474.000 750.000 512.000 750.000 L 550.000 750.000 550.000 700.000 L 550.000 650.000 577.500 650.004 L 605.000 650.008 627.189 699.504 L 649.379 749.000 686.838 749.545 C 722.429 750.062,724.240 749.906,723.130 746.410 C 722.488 744.387,712.531 720.807,701.004 694.010 C 689.477 667.213,680.260 645.167,680.523 645.020 C 690.119 639.637,703.627 627.068,709.881 617.703 C 721.400 600.453,724.266 589.427,725.465 557.748 C 726.582 528.250,724.407 509.948,718.013 495.031 C 713.274 483.975,698.153 467.430,686.597 460.658 C 669.288 450.515,663.991 450.049,565.500 450.024 L 474.000 450.000 474.000 600.000 M859.492 452.107 C 840.675 456.702,822.465 469.623,812.350 485.555 C 800.439 504.314,800.000 508.391,800.000 600.152 C 800.000 678.082,800.264 684.416,804.009 696.289 C 811.552 720.204,829.796 738.448,853.711 745.991 C 865.225 749.623,871.937 750.000,925.000 750.000 C 978.063 750.000,984.775 749.623,996.289 745.991 C 1020.204 738.448,1038.448 720.204,1045.991 696.289 C 1049.736 684.416,1050.000 678.082,1050.000 600.152 C 1050.000 508.391,1049.561 504.314,1037.650 485.555 C 1029.631 472.925,1019.878 464.684,1004.095 457.205 L 991.000 451.000 929.000 450.637 C 894.900 450.437,863.621 451.099,859.492 452.107 M324.000 551.000 L 324.000 576.000 275.000 576.000 L 226.000 576.000 226.000 551.000 L 226.000 526.000 275.000 526.000 L 324.000 526.000 324.000 551.000 M650.000 551.000 L 650.000 576.000 600.000 576.000 L 550.000 576.000 550.000 551.000 L 550.000 526.000 600.000 526.000 L 650.000 526.000 650.000 551.000 M974.000 601.000 L 974.000 676.000 925.000 676.000 L 876.000 676.000 876.000 601.000 L 876.000 526.000 925.000 526.000 L 974.000 526.000 974.000 601.000 " fill="#1D1E23" stroke="none" fill-rule="evenodd"></path></svg>