<svg width="1200" height="1200" viewBox="0 0 1200 1200" fill="none" xmlns="http://www.w3.org/2000/svg"><path d="M364.464 52.097 C 336.124 57.764,308.864 84.994,302.078 114.417 C 299.359 126.202,299.359 1073.798,302.078 1085.583 C 305.563 1100.691,312.492 1112.688,324.902 1125.098 C 337.312 1137.508,349.309 1144.437,364.417 1147.922 C 369.795 1149.163,454.814 1149.920,592.080 1149.951 C 782.339 1149.994,812.728 1149.597,823.080 1146.939 C 860.836 1137.244,890.103 1107.261,897.790 1070.402 C 900.717 1056.363,900.846 127.093,897.922 114.417 C 892.369 90.341,875.919 70.133,852.421 58.518 L 837.210 51.000 605.105 50.695 C 477.447 50.527,369.159 51.158,364.464 52.097 M696.000 104.000 C 701.582 109.582,701.063 116.873,694.730 121.855 C 689.577 125.908,687.476 126.000,600.000 126.000 C 512.524 126.000,510.423 125.908,505.270 121.855 C 498.937 116.873,498.418 109.582,504.000 104.000 C 507.884 100.116,510.667 100.000,600.000 100.000 C 689.333 100.000,692.116 100.116,696.000 104.000 M850.000 575.000 L 850.000 1000.000 600.000 1000.000 L 350.000 1000.000 350.000 575.000 L 350.000 150.000 600.000 150.000 L 850.000 150.000 850.000 575.000 M700.000 600.000 L 700.000 900.000 750.000 900.000 L 800.000 900.000 800.000 600.000 L 800.000 300.000 750.000 300.000 L 700.000 300.000 700.000 600.000 M550.000 700.000 L 550.000 900.000 600.000 900.000 L 650.000 900.000 650.000 700.000 L 650.000 500.000 600.000 500.000 L 550.000 500.000 550.000 700.000 M400.000 800.000 L 400.000 900.000 450.000 900.000 L 500.000 900.000 500.000 800.000 L 500.000 700.000 450.000 700.000 L 400.000 700.000 400.000 800.000 M636.188 1053.097 C 643.614 1056.937,649.985 1067.051,649.985 1075.000 C 649.985 1078.300,648.228 1083.881,646.081 1087.403 C 639.330 1098.475,633.752 1100.000,600.000 1100.000 C 566.248 1100.000,560.670 1098.475,553.919 1087.403 C 546.747 1075.640,550.458 1061.321,562.597 1053.919 C 568.209 1050.497,572.779 1050.014,599.599 1050.007 C 623.325 1050.002,631.544 1050.696,636.188 1053.097 " fill="#1D1E23" stroke="none" fill-rule="evenodd"></path></svg>