<svg width="1200" height="1200" viewBox="0 0 1200 1200" fill="none" xmlns="http://www.w3.org/2000/svg"><path d="M561.000 302.040 L 531.000 353.806 530.432 332.903 L 529.865 312.000 498.932 312.000 L 468.000 312.000 468.000 386.821 L 468.000 461.642 453.500 486.637 L 439.000 511.633 438.482 411.816 L 437.963 312.000 406.982 312.000 L 376.000 312.000 376.000 465.748 L 376.000 619.496 361.000 645.199 L 346.000 670.902 346.000 491.451 L 346.000 312.000 330.000 312.000 L 314.000 312.000 314.000 518.862 L 314.000 725.724 237.928 856.123 C 196.088 927.843,162.190 986.857,162.599 987.266 C 163.008 987.675,356.492 987.782,592.563 987.505 L 1021.784 987.000 977.938 912.000 C 953.823 870.750,934.071 836.325,934.046 835.500 C 934.021 834.675,939.850 834.000,947.000 834.000 L 960.000 834.000 960.000 757.000 L 960.000 680.000 928.916 680.000 L 897.832 680.000 898.416 695.500 L 899.000 711.000 914.500 711.584 L 930.000 712.168 930.000 770.417 C 930.000 802.455,929.640 828.292,929.200 827.833 C 928.760 827.375,914.810 803.712,898.200 775.249 L 868.000 723.498 868.000 701.749 L 868.000 680.000 855.307 680.000 L 842.614 680.000 809.307 622.840 L 776.000 565.681 776.000 530.840 L 776.000 496.000 755.500 495.978 L 735.000 495.955 726.738 481.478 L 718.476 467.000 739.238 466.432 L 760.000 465.865 760.000 457.932 C 760.000 450.011,760.011 450.000,768.000 450.000 L 776.000 450.000 776.000 389.121 L 776.000 328.241 768.500 327.621 C 761.407 327.034,760.966 326.593,760.379 319.500 L 759.759 312.000 728.879 312.000 L 698.000 312.000 698.000 320.000 C 698.000 327.800,697.826 328.000,691.042 328.000 L 684.085 328.000 683.542 367.170 L 683.000 406.341 639.067 330.960 C 614.904 289.501,594.204 254.386,593.067 252.927 C 591.510 250.929,583.595 263.051,561.000 302.040 M100.000 573.000 L 100.000 834.000 146.000 834.000 L 192.000 834.000 192.000 573.000 L 192.000 312.000 146.000 312.000 L 100.000 312.000 100.000 573.000 M222.491 526.500 L 223.000 741.000 253.500 741.552 L 284.000 742.104 284.000 527.052 L 284.000 312.000 252.991 312.000 L 221.982 312.000 222.491 526.500 M806.000 327.000 L 806.000 342.000 822.000 342.000 L 838.000 342.000 838.000 404.000 L 838.000 466.000 853.000 466.000 L 868.000 466.000 868.000 389.000 L 868.000 312.000 837.000 312.000 L 806.000 312.000 806.000 327.000 M898.000 327.000 L 898.000 342.000 914.000 342.000 L 930.000 342.000 930.000 404.000 L 930.000 466.000 945.000 466.000 L 960.000 466.000 960.000 389.000 L 960.000 312.000 929.000 312.000 L 898.000 312.000 898.000 327.000 M1006.000 320.000 L 1006.000 328.000 997.971 328.000 L 989.941 328.000 990.471 388.500 L 991.000 449.000 998.386 449.614 C 1005.326 450.191,1005.809 450.674,1006.386 457.614 L 1007.000 465.000 1037.500 465.552 L 1068.000 466.104 1068.000 458.052 L 1068.000 450.000 1076.000 450.000 L 1084.000 450.000 1084.000 389.000 L 1084.000 328.000 1076.000 328.000 L 1068.000 328.000 1068.000 320.000 L 1068.000 312.000 1037.000 312.000 L 1006.000 312.000 1006.000 320.000 M746.000 388.000 L 746.000 434.000 730.000 434.000 L 714.000 434.000 714.000 388.000 L 714.000 342.000 730.000 342.000 L 746.000 342.000 746.000 388.000 M1052.000 388.000 L 1052.000 434.000 1037.000 434.000 L 1022.000 434.000 1022.000 388.000 L 1022.000 342.000 1037.000 342.000 L 1052.000 342.000 1052.000 388.000 M753.000 648.453 C 841.000 799.338,913.300 923.512,913.667 924.395 C 914.033 925.278,769.358 926.000,592.167 926.000 C 414.975 926.000,270.000 925.488,270.000 924.862 C 270.000 922.768,590.638 373.999,591.827 374.058 C 592.472 374.090,665.000 497.568,753.000 648.453 M806.000 511.000 L 806.000 526.000 822.000 526.000 L 838.000 526.000 838.000 588.000 L 838.000 650.000 853.000 650.000 L 868.000 650.000 868.000 573.000 L 868.000 496.000 837.000 496.000 L 806.000 496.000 806.000 511.000 M914.000 504.000 C 914.000 511.810,913.833 512.000,907.000 512.000 L 900.000 512.000 900.000 573.000 L 900.000 634.000 906.879 634.000 C 913.385 634.000,913.792 634.407,914.379 641.500 L 915.000 649.000 945.500 649.552 L 976.000 650.104 976.000 642.052 L 976.000 634.000 984.000 634.000 L 992.000 634.000 992.000 573.121 L 992.000 512.241 984.500 511.621 C 977.407 511.034,976.966 510.593,976.379 503.500 L 975.759 496.000 944.879 496.000 L 914.000 496.000 914.000 504.000 M1022.000 511.000 L 1022.000 526.000 1037.000 526.000 L 1052.000 526.000 1052.000 588.000 L 1052.000 650.000 1068.000 650.000 L 1084.000 650.000 1084.000 573.000 L 1084.000 496.000 1053.000 496.000 L 1022.000 496.000 1022.000 511.000 M960.000 573.000 L 960.000 620.000 945.000 620.000 L 930.000 620.000 930.000 573.000 L 930.000 526.000 945.000 526.000 L 960.000 526.000 960.000 573.000 M1006.000 688.000 L 1006.000 696.000 998.000 696.000 L 990.000 696.000 990.000 757.000 L 990.000 818.000 998.000 818.000 L 1006.000 818.000 1006.000 826.000 L 1006.000 834.000 1037.000 834.000 L 1068.000 834.000 1068.000 826.000 L 1068.000 818.000 1076.000 818.000 L 1084.000 818.000 1084.000 757.000 L 1084.000 696.000 1076.000 696.000 L 1068.000 696.000 1068.000 688.000 L 1068.000 680.000 1037.000 680.000 L 1006.000 680.000 1006.000 688.000 M1052.000 758.000 L 1052.000 804.000 1037.000 804.000 L 1022.000 804.000 1022.000 758.000 L 1022.000 712.000 1037.000 712.000 L 1052.000 712.000 1052.000 758.000 " fill="#1D1E23" stroke="none" fill-rule="evenodd"></path></svg>