<svg width="1200" height="1200" viewBox="0 0 1200 1200" fill="none" xmlns="http://www.w3.org/2000/svg"><path d="M397.987 151.749 C 383.041 156.653,368.785 169.242,362.598 183.000 C 359.285 190.366,358.955 200.516,358.427 311.153 L 357.854 431.306 342.486 433.695 C 309.437 438.833,278.513 460.742,263.213 489.859 C 249.484 515.984,250.062 504.210,250.030 758.402 C 250.009 919.256,250.665 990.970,252.226 998.402 C 256.530 1018.903,266.690 1037.158,282.452 1052.712 C 299.388 1069.425,311.722 1076.558,333.171 1082.044 C 348.141 1085.872,355.962 1085.999,575.820 1085.965 C 768.095 1085.936,805.151 1085.478,817.000 1082.986 C 858.349 1074.288,892.218 1040.276,901.054 998.574 C 905.321 978.436,905.337 539.638,901.072 519.509 C 891.231 473.073,852.882 438.189,805.743 432.795 L 794.485 431.506 793.578 415.830 C 792.831 402.929,791.630 398.470,786.792 390.646 C 766.184 357.313,720.186 354.735,696.649 385.593 C 688.860 395.805,686.026 405.105,686.011 420.500 L 686.000 432.000 576.060 432.000 L 466.120 432.000 465.560 311.500 C 465.011 193.405,464.915 190.820,460.752 182.000 C 455.574 171.031,445.921 161.061,435.165 155.574 C 426.437 151.121,406.235 149.043,397.987 151.749 M820.226 492.424 C 831.890 499.281,840.584 509.137,844.805 520.290 C 847.810 528.230,848.053 549.520,847.551 761.000 C 847.028 981.198,846.814 993.374,843.339 1000.359 C 838.131 1010.827,826.781 1021.849,816.140 1026.772 C 807.003 1030.999,806.922 1031.000,577.000 1031.000 L 347.000 1031.000 335.592 1025.398 C 323.435 1019.428,316.503 1012.502,309.404 999.233 L 305.000 991.000 305.000 760.000 C 305.000 568.520,305.473 527.660,307.765 521.168 C 311.587 510.340,325.049 496.310,337.000 490.699 L 347.000 486.004 579.000 486.502 L 811.000 487.000 820.226 492.424 M397.987 587.869 C 388.356 590.798,380.644 595.802,373.395 603.826 C 358.893 619.879,359.000 619.204,359.000 694.141 L 359.000 761.283 365.021 773.055 C 368.756 780.359,374.294 787.309,379.609 791.363 C 396.636 804.349,391.177 804.000,577.000 804.000 C 767.638 804.000,759.055 804.656,776.032 788.777 C 781.450 783.709,787.433 775.525,789.882 769.831 C 794.063 760.113,794.176 757.715,793.597 691.403 L 793.000 623.000 787.502 613.647 C 784.478 608.503,778.678 601.553,774.614 598.203 C 759.252 585.540,766.554 585.983,576.144 586.172 C 480.915 586.266,400.744 587.030,397.987 587.869 " stroke="none" fill-rule="evenodd"></path></svg>