<svg width="1200" height="1200" viewBox="0 0 1200 1200" fill="none" xmlns="http://www.w3.org/2000/svg"><path d="M300.000 150.000 L 300.000 200.000 350.089 200.000 L 400.179 200.000 399.486 338.500 C 398.896 456.679,398.339 478.467,395.690 487.000 C 380.711 535.255,349.347 571.308,307.549 588.317 C 292.746 594.342,268.304 600.000,257.084 600.000 L 250.000 600.000 250.000 650.000 L 250.000 700.000 399.000 700.000 L 548.000 700.000 548.000 874.529 L 548.000 1049.058 573.529 1074.530 L 599.058 1100.002 623.529 1075.472 L 648.000 1050.942 648.000 875.471 L 648.000 700.000 799.000 700.000 L 950.000 700.000 950.000 650.000 L 950.000 600.000 942.916 600.000 C 931.696 600.000,907.254 594.342,892.451 588.317 C 850.653 571.308,819.289 535.255,804.310 487.000 C 801.661 478.467,801.104 456.679,800.514 338.500 L 799.821 200.000 849.911 200.000 L 900.000 200.000 900.000 150.000 L 900.000 100.000 600.000 100.000 L 300.000 100.000 300.000 150.000 " fill="#1D1E23" stroke="none" fill-rule="evenodd"></path></svg>