<svg width="1200" height="1200" viewBox="0 0 1200 1200" fill="none" xmlns="http://www.w3.org/2000/svg"><path d="M100.000 225.000 L 100.000 350.000 150.000 350.000 L 200.000 350.000 200.000 275.000 L 200.000 200.000 275.000 200.000 L 350.000 200.000 350.000 150.000 L 350.000 100.000 225.000 100.000 L 100.000 100.000 100.000 225.000 M850.000 150.000 L 850.000 200.000 925.000 200.000 L 1000.000 200.000 1000.000 275.000 L 1000.000 350.000 1050.000 350.000 L 1100.000 350.000 1100.000 225.000 L 1100.000 100.000 975.000 100.000 L 850.000 100.000 850.000 150.000 M250.000 400.000 L 250.000 550.000 400.000 550.000 L 550.000 550.000 550.000 400.000 L 550.000 250.000 400.000 250.000 L 250.000 250.000 250.000 400.000 M650.000 400.000 L 650.000 550.000 800.000 550.000 L 950.000 550.000 950.000 400.000 L 950.000 250.000 800.000 250.000 L 650.000 250.000 650.000 400.000 M474.000 401.000 L 474.000 476.000 400.000 476.000 L 326.000 476.000 326.000 401.000 L 326.000 326.000 400.000 326.000 L 474.000 326.000 474.000 401.000 M874.000 401.000 L 874.000 476.000 800.000 476.000 L 726.000 476.000 726.000 401.000 L 726.000 326.000 800.000 326.000 L 874.000 326.000 874.000 401.000 M250.000 800.000 L 250.000 950.000 400.000 950.000 L 550.000 950.000 550.000 800.000 L 550.000 650.000 400.000 650.000 L 250.000 650.000 250.000 800.000 M650.000 688.000 L 650.000 726.000 687.000 726.000 L 724.000 726.000 724.000 763.000 L 724.000 800.000 687.000 800.000 L 650.000 800.000 650.000 838.000 L 650.000 876.000 687.000 876.000 L 724.000 876.000 724.000 913.000 L 724.000 950.000 762.000 950.000 L 800.000 950.000 800.000 913.000 L 800.000 876.000 837.000 876.000 L 874.000 876.000 874.000 913.000 L 874.000 950.000 912.000 950.000 L 950.000 950.000 950.000 913.000 L 950.000 876.000 913.000 876.000 L 876.000 876.000 876.000 838.000 L 876.000 800.000 913.000 800.000 L 950.000 800.000 950.000 763.000 L 950.000 726.000 913.000 726.000 L 876.000 726.000 876.000 688.000 L 876.000 650.000 838.000 650.000 L 800.000 650.000 800.000 688.000 L 800.000 726.000 763.000 726.000 L 726.000 726.000 726.000 688.000 L 726.000 650.000 688.000 650.000 L 650.000 650.000 650.000 688.000 M474.000 801.000 L 474.000 876.000 400.000 876.000 L 326.000 876.000 326.000 801.000 L 326.000 726.000 400.000 726.000 L 474.000 726.000 474.000 801.000 M874.000 763.000 L 874.000 800.000 837.000 800.000 L 800.000 800.000 800.000 838.000 L 800.000 876.000 763.000 876.000 L 726.000 876.000 726.000 838.000 L 726.000 800.000 763.000 800.000 L 800.000 800.000 800.000 763.000 L 800.000 726.000 837.000 726.000 L 874.000 726.000 874.000 763.000 M100.000 975.000 L 100.000 1100.000 225.000 1100.000 L 350.000 1100.000 350.000 1050.000 L 350.000 1000.000 275.000 1000.000 L 200.000 1000.000 200.000 925.000 L 200.000 850.000 150.000 850.000 L 100.000 850.000 100.000 975.000 M1000.000 925.000 L 1000.000 1000.000 925.000 1000.000 L 850.000 1000.000 850.000 1050.000 L 850.000 1100.000 975.000 1100.000 L 1100.000 1100.000 1100.000 975.000 L 1100.000 850.000 1050.000 850.000 L 1000.000 850.000 1000.000 925.000 " fill="#1D1E23" stroke="none" fill-rule="evenodd"></path></svg>