<svg width="1200" height="1200" viewBox="0 0 1200 1200" fill="none" xmlns="http://www.w3.org/2000/svg"><path d="M132.171 103.434 C 120.364 107.604,107.459 120.822,103.312 132.991 C 100.440 141.420,100.000 153.653,100.000 225.000 C 100.000 318.526,100.248 320.354,114.947 335.053 C 134.511 354.616,165.489 354.616,185.053 335.053 C 198.941 321.164,200.000 315.398,200.000 253.644 L 200.000 200.000 253.644 200.000 C 315.398 200.000,321.164 198.941,335.053 185.053 C 354.616 165.489,354.616 134.511,335.053 114.947 C 320.303 100.198,318.658 99.978,224.144 100.158 C 154.231 100.291,139.595 100.812,132.171 103.434 M882.171 103.434 C 864.528 109.666,850.000 130.694,850.000 150.000 C 850.000 169.819,864.545 190.402,882.991 196.688 C 891.089 199.447,901.671 200.000,946.356 200.000 L 1000.000 200.000 1000.000 253.644 C 1000.000 315.398,1001.059 321.164,1014.947 335.053 C 1034.511 354.616,1065.489 354.616,1085.053 335.053 C 1099.752 320.354,1100.000 318.526,1100.000 225.000 C 1100.000 131.474,1099.752 129.646,1085.053 114.947 C 1070.303 100.198,1068.658 99.978,974.144 100.158 C 904.231 100.291,889.595 100.812,882.171 103.434 M250.000 400.000 L 250.000 550.000 400.000 550.000 L 550.000 550.000 550.000 400.000 L 550.000 250.000 400.000 250.000 L 250.000 250.000 250.000 400.000 M650.000 400.000 L 650.000 550.000 800.000 550.000 L 950.000 550.000 950.000 400.000 L 950.000 250.000 800.000 250.000 L 650.000 250.000 650.000 400.000 M474.000 401.000 L 474.000 476.000 400.000 476.000 L 326.000 476.000 326.000 401.000 L 326.000 326.000 400.000 326.000 L 474.000 326.000 474.000 401.000 M874.000 401.000 L 874.000 476.000 800.000 476.000 L 726.000 476.000 726.000 401.000 L 726.000 326.000 800.000 326.000 L 874.000 326.000 874.000 401.000 M250.000 800.000 L 250.000 950.000 400.000 950.000 L 550.000 950.000 550.000 800.000 L 550.000 650.000 400.000 650.000 L 250.000 650.000 250.000 800.000 M650.000 688.000 L 650.000 726.000 687.000 726.000 L 724.000 726.000 724.000 763.000 L 724.000 800.000 687.000 800.000 L 650.000 800.000 650.000 838.000 L 650.000 876.000 687.000 876.000 L 724.000 876.000 724.000 913.000 L 724.000 950.000 762.000 950.000 L 800.000 950.000 800.000 913.000 L 800.000 876.000 837.000 876.000 L 874.000 876.000 874.000 913.000 L 874.000 950.000 912.000 950.000 L 950.000 950.000 950.000 913.000 L 950.000 876.000 913.000 876.000 L 876.000 876.000 876.000 838.000 L 876.000 800.000 913.000 800.000 L 950.000 800.000 950.000 763.000 L 950.000 726.000 913.000 726.000 L 876.000 726.000 876.000 688.000 L 876.000 650.000 838.000 650.000 L 800.000 650.000 800.000 688.000 L 800.000 726.000 763.000 726.000 L 726.000 726.000 726.000 688.000 L 726.000 650.000 688.000 650.000 L 650.000 650.000 650.000 688.000 M474.000 801.000 L 474.000 876.000 400.000 876.000 L 326.000 876.000 326.000 801.000 L 326.000 726.000 400.000 726.000 L 474.000 726.000 474.000 801.000 M874.000 763.000 L 874.000 800.000 837.000 800.000 L 800.000 800.000 800.000 838.000 L 800.000 876.000 763.000 876.000 L 726.000 876.000 726.000 838.000 L 726.000 800.000 763.000 800.000 L 800.000 800.000 800.000 763.000 L 800.000 726.000 837.000 726.000 L 874.000 726.000 874.000 763.000 M132.171 853.434 C 120.364 857.604,107.459 870.822,103.312 882.991 C 100.440 891.420,100.000 903.653,100.000 975.000 C 100.000 1068.526,100.248 1070.354,114.947 1085.053 C 129.646 1099.752,131.474 1100.000,225.000 1100.000 C 318.526 1100.000,320.354 1099.752,335.053 1085.053 C 354.616 1065.489,354.616 1034.511,335.053 1014.947 C 321.164 1001.059,315.398 1000.000,253.644 1000.000 L 200.000 1000.000 200.000 946.356 C 200.000 884.602,198.941 878.836,185.053 864.947 C 171.176 851.071,151.185 846.718,132.171 853.434 M1032.171 853.434 C 1020.364 857.604,1007.459 870.822,1003.312 882.991 C 1000.553 891.089,1000.000 901.671,1000.000 946.356 L 1000.000 1000.000 946.356 1000.000 C 884.602 1000.000,878.836 1001.059,864.947 1014.947 C 845.384 1034.511,845.384 1065.489,864.947 1085.053 C 879.646 1099.752,881.474 1100.000,975.000 1100.000 C 1068.526 1100.000,1070.354 1099.752,1085.053 1085.053 C 1099.752 1070.354,1100.000 1068.526,1100.000 975.000 C 1100.000 881.474,1099.752 879.646,1085.053 864.947 C 1071.176 851.071,1051.185 846.718,1032.171 853.434 " fill="#1D1E23" stroke="none" fill-rule="evenodd"></path></svg>