<svg width="1200" height="1200" viewBox="0 0 1200 1200" fill="none" xmlns="http://www.w3.org/2000/svg"><path d="M384.000 101.322 C 373.638 103.006,354.628 110.768,344.526 117.438 C 323.539 131.296,307.312 155.132,302.210 179.598 C 299.091 194.557,299.091 805.443,302.210 820.402 C 310.026 857.883,342.117 889.974,379.598 897.790 C 394.557 900.909,1005.443 900.909,1020.402 897.790 C 1057.883 889.974,1089.974 857.883,1097.790 820.402 C 1100.909 805.443,1100.909 194.557,1097.790 179.598 C 1090.894 146.531,1067.041 119.355,1033.000 105.784 L 1021.000 101.000 705.000 100.754 C 531.200 100.619,386.750 100.874,384.000 101.322 M717.009 253.312 C 729.667 257.626,742.374 270.333,746.688 282.991 C 749.550 291.391,750.000 303.401,750.000 371.356 L 750.000 450.000 828.644 450.000 C 918.118 450.000,920.430 450.325,935.053 464.947 C 954.616 484.511,954.616 515.489,935.053 535.053 C 920.430 549.675,918.118 550.000,828.644 550.000 L 750.000 550.000 750.000 628.644 C 750.000 718.118,749.675 720.430,735.053 735.053 C 715.489 754.616,684.511 754.616,664.947 735.053 C 650.325 720.430,650.000 718.118,650.000 628.644 L 650.000 550.000 571.356 550.000 C 481.882 550.000,479.570 549.675,464.947 535.053 C 445.384 515.489,445.384 484.511,464.947 464.947 C 479.570 450.325,481.882 450.000,571.356 450.000 L 650.000 450.000 650.000 371.356 C 650.000 281.845,650.319 279.575,664.983 264.911 C 678.874 251.021,697.860 246.788,717.009 253.312 M133.181 303.147 C 121.791 307.320,112.844 314.851,106.545 325.568 L 101.000 335.000 100.409 671.000 C 99.980 914.746,100.439 1010.295,102.079 1019.000 C 109.263 1057.119,141.451 1089.835,179.598 1097.790 C 187.090 1099.352,287.961 1100.000,523.742 1100.000 C 898.298 1100.000,868.889 1101.217,885.053 1085.053 C 904.616 1065.489,904.616 1034.511,885.053 1014.947 C 868.897 998.792,897.708 1000.000,528.644 1000.000 L 200.000 1000.000 200.000 671.356 C 200.000 302.292,201.208 331.103,185.053 314.947 C 171.434 301.329,150.896 296.656,133.181 303.147 " fill="#1D1E23" stroke="none" fill-rule="evenodd"></path></svg>