<svg width="1200" height="1200" viewBox="0 0 1200 1200" fill="none" xmlns="http://www.w3.org/2000/svg"><path d="M556.000 101.962 C 416.815 115.884,295.232 181.194,209.663 288.000 C 73.683 457.729,63.352 695.839,184.124 876.644 C 338.485 1107.735,647.309 1169.297,878.000 1014.964 C 1107.746 861.264,1168.863 552.043,1014.964 322.000 C 936.423 204.599,815.946 128.109,674.644 105.934 C 645.457 101.354,582.987 99.262,556.000 101.962 M637.000 202.067 C 728.175 210.617,811.670 249.020,877.725 312.786 C 1002.244 432.989,1035.081 619.965,958.972 775.424 C 898.174 899.610,779.813 982.445,641.000 997.956 C 542.578 1008.954,436.771 978.739,355.000 916.285 C 337.015 902.549,303.337 869.207,288.046 850.000 C 268.510 825.461,255.353 804.553,240.851 775.000 C 173.046 636.832,191.464 471.084,288.076 350.000 C 303.498 330.672,334.753 299.697,354.000 284.667 C 433.438 222.636,536.275 192.620,637.000 202.067 M567.000 352.290 C 542.434 355.422,515.849 363.663,491.000 375.851 C 418.687 411.318,369.520 475.506,353.773 555.000 C 350.125 573.419,350.125 626.581,353.773 645.000 C 374.106 747.647,452.353 825.894,555.000 846.227 C 573.419 849.875,626.581 849.875,645.000 846.227 C 692.721 836.774,735.944 814.774,770.399 782.399 C 807.408 747.625,830.649 707.593,843.463 656.548 C 848.316 637.219,848.873 631.395,848.873 600.000 C 848.873 568.605,848.316 562.781,843.463 543.452 C 833.839 505.114,818.664 473.631,796.286 445.575 C 741.079 376.363,654.499 341.138,567.000 352.290 " fill="#1D1E23" stroke="none" fill-rule="evenodd"></path></svg>