<svg width="1200" height="1200" viewBox="0 0 1200 1200" fill="none" xmlns="http://www.w3.org/2000/svg"><path d="M654.000 153.066 C 629.363 159.972,610.207 176.848,596.185 204.000 C 585.239 225.196,579.392 242.651,568.964 285.255 C 563.953 305.729,558.600 325.480,557.068 329.145 C 555.537 332.811,546.242 345.177,536.414 356.626 C 526.585 368.076,510.155 388.594,499.901 402.222 C 472.501 438.641,445.583 471.973,436.747 480.425 L 428.986 487.849 333.993 488.425 L 239.000 489.000 229.668 494.486 C 224.535 497.503,217.141 503.705,213.235 508.267 C 199.149 524.724,199.873 510.564,200.466 758.119 L 201.000 981.000 206.402 991.239 C 212.268 1002.360,219.929 1009.728,232.767 1016.596 C 240.719 1020.849,243.329 1021.020,309.168 1021.596 C 374.314 1022.166,377.833 1022.006,388.563 1017.992 C 401.596 1013.116,418.791 996.058,421.052 985.763 L 422.429 979.492 435.166 980.797 C 453.148 982.639,476.295 989.744,516.333 1005.711 C 601.420 1039.643,641.699 1047.728,734.172 1049.440 C 809.863 1050.841,838.717 1047.442,875.274 1032.817 C 897.597 1023.886,912.134 1014.255,929.046 997.190 C 954.448 971.560,967.255 942.775,972.288 900.000 C 974.193 883.807,975.624 879.168,981.976 868.600 C 996.779 843.971,1007.475 799.173,1004.598 773.852 C 1003.831 767.100,1004.605 762.649,1007.554 756.852 C 1019.362 733.644,1025.345 698.631,1022.085 671.817 C 1019.931 654.103,1019.945 653.995,1025.943 642.112 C 1029.254 635.553,1034.363 622.269,1037.295 612.593 C 1041.891 597.427,1042.644 591.276,1042.758 568.000 C 1042.883 542.502,1042.525 539.943,1036.327 522.000 C 1021.359 478.670,989.965 444.521,949.450 427.499 C 928.014 418.492,910.274 416.000,867.591 416.000 L 829.533 416.000 830.860 411.500 C 840.685 378.163,842.526 367.714,843.478 339.859 C 846.541 250.284,814.067 188.566,750.326 162.820 C 723.352 151.924,675.396 147.069,654.000 153.066 M711.000 239.053 C 725.621 243.127,739.166 252.548,746.107 263.473 C 756.497 279.825,758.870 291.388,758.939 326.000 C 759.014 363.929,756.866 372.002,733.936 420.000 C 718.584 452.137,710.047 478.340,710.014 493.428 L 710.000 499.857 808.546 500.428 L 907.092 501.000 920.462 507.584 C 940.848 517.623,954.607 535.664,957.936 556.720 C 960.114 570.501,957.124 589.872,950.733 603.382 C 944.796 615.931,930.446 632.000,925.176 632.000 C 923.246 632.000,921.967 632.675,922.333 633.500 C 922.700 634.325,926.150 641.281,930.000 648.958 C 936.732 662.382,937.000 663.759,937.000 684.958 C 937.000 705.464,936.568 707.912,930.795 720.095 C 927.382 727.297,921.724 736.453,918.222 740.442 L 911.854 747.694 916.149 760.347 C 922.658 779.525,920.878 801.407,911.220 820.950 C 907.079 829.328,900.572 838.632,895.901 842.851 L 887.782 850.187 887.391 878.593 C 887.016 905.866,886.752 907.519,880.783 920.000 C 873.713 934.783,861.160 948.113,848.568 954.209 C 829.802 963.294,821.225 964.490,767.929 965.457 C 684.856 966.964,653.459 961.966,569.000 933.790 C 487.013 906.440,461.684 900.030,435.500 900.008 L 426.000 900.000 426.000 736.000 L 426.000 572.000 438.681 572.000 C 469.812 572.000,492.634 551.341,561.370 460.942 C 578.073 438.974,598.916 413.044,607.687 403.320 C 632.387 375.938,640.526 357.204,651.926 301.504 C 658.889 267.480,663.750 252.461,671.350 241.494 L 676.755 233.695 688.878 234.981 C 695.545 235.688,705.500 237.520,711.000 239.053 M332.185 872.654 C 363.988 889.443,359.879 937.747,325.682 949.106 C 286.271 962.196,253.198 913.832,280.385 882.867 C 293.786 867.604,314.780 863.465,332.185 872.654 " fill="#1D1E23" stroke="none" fill-rule="evenodd"></path></svg>