<svg width="1200" height="1200" viewBox="0 0 1200 1200" fill="none" xmlns="http://www.w3.org/2000/svg"><path d="M1000.000 100.000 L 1000.000 150.000 950.000 150.000 L 900.000 150.000 900.000 200.000 L 900.000 250.000 950.000 250.000 L 1000.000 250.000 1000.000 300.000 L 1000.000 350.000 1050.000 350.000 L 1100.000 350.000 1100.000 300.000 L 1100.000 250.000 1150.000 250.000 L 1200.000 250.000 1200.000 200.000 L 1200.000 150.000 1150.000 150.000 L 1100.000 150.000 1100.000 100.000 L 1100.000 50.000 1050.000 50.000 L 1000.000 50.000 1000.000 100.000 M554.273 102.215 C 400.364 115.895,260.328 202.256,175.186 336.000 C 159.234 361.058,136.757 409.284,126.142 441.230 C 84.483 566.598,93.342 701.708,150.912 819.000 C 176.882 871.910,205.022 911.225,246.899 953.101 C 324.364 1030.567,419.809 1078.547,530.000 1095.418 C 561.811 1100.288,637.929 1100.275,668.732 1095.393 C 751.931 1082.208,821.806 1054.649,886.005 1009.700 C 1054.834 891.495,1134.161 682.865,1085.773 484.310 C 1082.464 470.730,1078.934 457.455,1077.928 454.810 L 1076.099 450.000 988.050 450.000 L 900.000 450.000 900.000 400.000 L 900.000 350.000 850.018 350.000 L 800.036 350.000 799.518 245.742 L 799.000 141.484 779.000 133.623 C 711.360 107.040,629.191 95.555,554.273 102.215 M456.587 407.603 C 472.573 415.198,484.980 427.679,492.773 444.000 C 498.293 455.561,498.980 458.993,498.980 475.000 C 498.980 490.977,498.286 494.461,492.801 506.000 C 484.950 522.516,472.528 534.942,456.000 542.811 C 444.453 548.308,440.988 549.000,425.000 549.000 C 409.012 549.000,405.547 548.308,394.000 542.811 C 377.472 534.942,365.050 522.516,357.199 506.000 C 351.714 494.461,351.020 490.977,351.020 475.000 C 351.020 459.023,351.714 455.539,357.199 444.000 C 367.108 423.154,385.862 407.508,407.492 402.044 C 421.096 398.608,442.837 401.069,456.587 407.603 M806.587 407.603 C 822.573 415.198,834.980 427.679,842.773 444.000 C 848.293 455.561,848.980 458.993,848.980 475.000 C 848.980 490.977,848.286 494.461,842.801 506.000 C 834.950 522.516,822.528 534.942,806.000 542.811 C 794.453 548.308,790.988 549.000,775.000 549.000 C 759.012 549.000,755.547 548.308,744.000 542.811 C 727.472 534.942,715.050 522.516,707.199 506.000 C 701.714 494.461,701.020 490.977,701.020 475.000 C 701.020 459.023,701.714 455.539,707.199 444.000 C 717.108 423.154,735.862 407.508,757.492 402.044 C 771.096 398.608,792.837 401.069,806.587 407.603 M854.000 702.198 C 854.000 706.389,835.477 741.074,825.268 756.000 C 811.090 776.729,779.151 809.204,758.361 824.029 C 664.039 891.293,535.961 891.293,441.639 824.029 C 420.849 809.204,388.910 776.729,374.732 756.000 C 364.523 741.074,346.000 706.389,346.000 702.198 C 346.000 700.612,416.767 700.000,600.000 700.000 C 783.233 700.000,854.000 700.612,854.000 702.198 " fill="#1D1E23" stroke="none" fill-rule="evenodd"></path></svg>