<svg width="1200" height="1200" viewBox="0 0 1200 1200" fill="none" xmlns="http://www.w3.org/2000/svg"><path d="M349.150 102.098 C 294.129 111.427,257.189 153.586,250.662 214.500 L 249.430 226.000 311.715 226.000 L 374.000 226.000 374.000 662.000 C 374.000 901.800,374.664 1098.000,375.477 1098.000 C 376.289 1098.000,390.689 1084.286,407.477 1067.524 L 438.001 1037.048 469.524 1068.525 L 501.047 1100.001 532.000 1069.000 L 562.953 1037.999 593.992 1068.992 L 625.031 1099.985 656.508 1068.508 L 687.984 1037.031 719.508 1068.508 L 751.031 1099.985 782.031 1068.984 L 813.032 1037.984 843.993 1068.993 L 874.953 1100.001 906.476 1068.525 L 937.999 1037.048 969.000 1068.000 L 1000.000 1098.952 999.965 655.976 C 999.927 162.542,1000.988 199.029,985.776 168.171 C 971.820 139.859,944.368 116.519,912.000 105.447 L 899.000 101.000 629.000 100.714 C 480.500 100.557,354.568 101.180,349.150 102.098 M908.450 137.625 C 934.976 148.340,955.724 170.678,963.981 197.411 C 967.950 210.260,968.000 215.447,968.000 616.661 L 968.000 1022.900 952.987 1007.987 L 937.973 993.074 906.471 1024.529 L 874.969 1055.985 843.493 1024.509 L 812.016 993.032 781.008 1023.992 L 750.000 1054.952 719.000 1024.000 L 687.999 993.048 656.484 1024.516 L 624.969 1055.985 593.493 1024.509 L 562.016 993.032 531.008 1023.992 L 500.000 1054.952 469.011 1024.011 L 438.023 993.071 422.011 1008.989 L 406.000 1024.906 406.000 618.873 C 406.000 180.220,406.523 202.627,395.789 181.586 C 390.396 171.015,373.546 153.020,362.292 145.811 L 353.584 140.233 364.292 137.224 C 370.181 135.569,377.250 133.832,380.000 133.365 C 382.750 132.897,500.200 132.624,641.000 132.757 L 897.000 133.000 908.450 137.625 M486.765 259.827 C 456.912 273.384,467.063 318.000,500.000 318.000 C 525.661 318.000,539.796 289.644,524.785 268.284 C 520.944 262.818,507.266 256.088,500.000 256.088 C 497.250 256.088,491.294 257.771,486.765 259.827 M612.901 258.704 C 593.135 267.667,588.005 293.871,603.067 308.933 C 623.633 329.499,658.678 313.145,655.448 284.488 C 653.129 263.912,630.996 250.499,612.901 258.704 M736.765 259.827 C 706.912 273.384,717.063 318.000,750.000 318.000 C 775.661 318.000,789.796 289.644,774.785 268.284 C 770.944 262.818,757.266 256.088,750.000 256.088 C 747.250 256.088,741.294 257.771,736.765 259.827 M862.901 258.704 C 843.135 267.667,838.005 293.871,853.067 308.933 C 873.633 329.499,908.678 313.145,905.448 284.488 C 903.129 263.912,880.996 250.499,862.901 258.704 M468.448 412.500 L 469.000 443.000 687.500 443.509 L 906.000 444.018 906.000 413.009 L 906.000 382.000 686.948 382.000 L 467.896 382.000 468.448 412.500 M468.000 537.000 L 468.000 568.000 687.000 568.000 L 906.000 568.000 906.000 537.000 L 906.000 506.000 687.000 506.000 L 468.000 506.000 468.000 537.000 M838.000 645.777 L 838.000 659.555 830.593 660.944 C 803.573 666.013,785.982 689.876,788.533 718.001 C 790.684 741.722,804.320 756.638,836.423 770.383 C 859.428 780.232,867.079 786.630,868.926 797.563 C 871.226 811.178,863.694 822.487,850.702 824.924 C 835.773 827.725,821.622 817.519,819.012 802.069 L 817.648 794.000 799.824 794.000 L 782.000 794.000 782.000 800.637 C 782.000 814.236,787.854 828.045,797.862 838.053 C 806.952 847.143,810.877 849.031,833.500 855.193 C 835.175 855.650,836.000 860.184,836.000 868.937 L 836.000 882.000 845.909 882.000 L 855.817 882.000 856.409 868.583 L 857.000 855.165 864.531 853.608 C 883.084 849.770,899.402 835.423,904.034 818.878 C 907.345 807.054,905.606 786.988,900.384 776.752 C 894.272 764.771,883.628 756.513,859.003 744.645 C 846.901 738.813,835.572 732.907,833.827 731.521 C 828.507 727.295,826.000 720.716,826.000 710.978 C 826.000 693.862,841.990 684.721,857.710 692.850 C 863.922 696.062,867.381 702.426,869.242 714.065 L 870.511 722.000 888.535 722.000 L 906.560 722.000 905.381 710.578 C 902.974 687.263,886.799 666.777,866.824 661.747 L 858.000 659.525 858.000 645.763 L 858.000 632.000 848.000 632.000 L 838.000 632.000 838.000 645.777 M468.886 664.577 C 468.335 666.011,468.136 680.193,468.443 696.092 L 469.000 725.000 594.000 725.000 L 719.000 725.000 719.000 694.000 L 719.000 663.000 594.443 662.485 C 493.546 662.068,469.696 662.465,468.886 664.577 M468.000 819.000 L 468.000 850.000 594.000 850.000 L 720.000 850.000 720.000 819.000 L 720.000 788.000 594.000 788.000 L 468.000 788.000 468.000 819.000 " fill="#1D1E23" stroke="none" fill-rule="evenodd"></path></svg>