<svg width="1200" height="1200" viewBox="0 0 1200 1200" fill="none" xmlns="http://www.w3.org/2000/svg"><path d="M529.487 402.171 C 429.903 410.395,329.062 450.588,249.000 513.968 C 213.970 541.698,170.222 588.589,143.542 627.000 C 128.167 649.136,104.885 690.304,100.821 702.540 C 90.771 732.796,104.182 763.962,133.450 778.371 C 151.980 787.493,168.050 787.478,186.650 778.321 C 202.253 770.640,208.891 763.198,220.959 739.854 C 279.946 625.751,394.313 545.730,522.610 528.793 C 559.101 523.976,618.335 525.880,652.000 532.953 C 686.584 540.219,720.762 551.969,750.195 566.712 C 775.479 579.377,808.440 600.266,823.000 612.852 L 831.000 619.767 779.695 671.384 C 751.477 699.773,726.800 726.150,724.857 730.000 C 716.524 746.507,721.958 771.997,736.903 786.511 C 751.204 800.401,746.061 800.000,910.000 800.000 C 1076.040 800.000,1069.551 800.554,1085.053 785.053 C 1100.555 769.550,1100.000 776.053,1100.000 609.895 C 1100.000 485.729,1099.539 461.198,1097.077 454.220 C 1089.883 433.828,1071.978 421.251,1050.006 421.157 C 1041.274 421.119,1034.371 422.349,1029.000 424.899 C 1024.067 427.242,1001.380 448.151,969.822 479.442 C 924.238 524.641,918.348 529.829,915.928 526.914 C 910.144 519.944,866.789 488.958,841.989 474.068 C 748.906 418.181,639.741 393.066,529.487 402.171 " fill="#1D1E23" stroke="none" fill-rule="evenodd"></path></svg>