<svg width="1200" height="1200" viewBox="0 0 1200 1200" fill="none" xmlns="http://www.w3.org/2000/svg"><path d="M1009.682 441.312 L 920.369 530.625 909.685 521.602 C 852.190 473.051,775.291 434.082,701.000 415.851 C 557.238 380.571,407.956 406.376,286.000 487.588 C 207.600 539.795,143.231 613.475,103.049 697.000 C 93.439 716.975,78.000 755.461,78.000 759.439 C 78.000 760.327,103.425 769.496,134.500 779.814 C 165.575 790.133,191.900 798.894,193.000 799.283 C 194.100 799.671,197.584 793.017,200.743 784.495 C 241.692 674.015,334.246 584.574,447.733 545.812 C 491.459 530.876,534.738 524.989,588.967 526.598 C 632.724 527.896,660.667 532.784,701.136 546.217 C 741.079 559.475,796.004 589.509,823.000 612.855 L 831.000 619.773 741.008 709.887 L 651.017 800.000 875.508 800.000 L 1100.000 800.000 1100.000 576.000 C 1100.000 452.800,1099.774 352.000,1099.497 352.000 C 1099.221 352.000,1058.804 392.191,1009.682 441.312 " fill="#1D1E23" stroke="none" fill-rule="evenodd"></path></svg>