<svg width="1200" height="1200" viewBox="0 0 1200 1200" fill="none" xmlns="http://www.w3.org/2000/svg"><path d="M560.011 202.035 C 404.227 218.351,272.887 322.739,222.206 470.520 C 167.854 629.002,218.583 805.475,348.770 910.800 C 419.870 968.323,509.029 999.967,600.000 999.967 C 764.993 999.967,913.924 897.130,972.766 742.572 C 978.819 726.671,986.000 704.219,986.000 701.192 C 986.000 700.536,962.789 700.000,934.420 700.000 L 882.841 700.000 875.196 718.054 C 859.521 755.072,837.413 786.500,805.269 817.461 C 764.712 856.523,717.214 881.443,658.517 894.451 C 630.283 900.709,569.899 900.660,541.319 894.357 C 424.630 868.621,336.340 783.810,308.903 671.098 C 285.854 576.414,311.252 473.081,374.959 402.347 C 447.226 322.109,548.279 286.824,653.410 305.121 C 703.011 313.754,761.068 342.575,796.745 376.276 L 811.000 389.742 731.009 469.871 L 651.019 550.000 825.509 550.000 L 1000.000 550.000 1000.000 375.513 L 1000.000 201.025 941.500 259.292 L 883.000 317.560 864.000 300.595 C 808.123 250.706,735.423 216.470,660.881 204.942 C 636.506 201.172,582.976 199.630,560.011 202.035 " fill="#1D1E23" stroke="none" fill-rule="evenodd"></path></svg>