<svg width="1200" height="1200" viewBox="0 0 1200 1200" fill="none" xmlns="http://www.w3.org/2000/svg"><path d="M559.000 202.166 C 394.449 218.971,253.640 340.853,212.987 501.671 C 204.564 534.991,201.560 560.196,201.390 599.000 C 200.930 703.520,239.453 801.021,310.635 875.498 C 463.391 1035.321,712.756 1042.047,873.976 890.691 C 905.694 860.913,937.430 818.389,956.434 780.203 C 963.892 765.217,964.992 761.325,964.970 750.000 C 964.948 739.389,963.860 735.035,959.047 726.304 C 946.056 702.737,916.306 693.557,892.494 705.768 C 881.739 711.283,877.271 716.794,863.730 741.249 C 795.399 864.654,660.060 924.029,524.701 889.985 C 452.248 871.762,389.247 826.704,349.069 764.371 C 316.503 713.849,301.302 661.210,301.313 599.000 C 301.326 516.796,330.297 447.235,388.818 388.891 C 460.362 317.563,554.120 287.841,653.186 305.082 C 702.498 313.665,759.831 341.925,796.153 375.554 L 810.177 388.538 770.380 428.769 C 746.184 453.229,728.771 472.528,725.960 478.000 C 716.462 496.487,721.072 521.137,736.903 536.511 C 750.712 549.923,751.415 550.000,860.000 550.000 C 970.226 550.000,970.089 550.016,985.053 535.053 C 1000.018 520.087,1000.000 520.238,1000.000 409.895 C 1000.000 329.584,999.487 311.050,997.077 304.220 C 989.883 283.828,971.978 271.251,950.006 271.157 C 932.246 271.081,924.885 275.105,901.632 297.606 L 882.264 316.348 863.632 300.017 C 779.789 226.527,668.980 190.934,559.000 202.166 " fill="#1D1E23" stroke="none" fill-rule="evenodd"></path></svg>