<svg width="1200" height="1200" viewBox="0 0 1200 1200" fill="none" xmlns="http://www.w3.org/2000/svg"><path d="M882.171 153.434 C 864.528 159.666,850.000 180.694,850.000 200.000 C 850.000 212.080,855.967 226.072,864.947 235.053 C 880.053 250.158,878.625 250.000,1000.000 250.000 C 1121.375 250.000,1119.947 250.158,1135.053 235.053 C 1144.033 226.072,1150.000 212.080,1150.000 200.000 C 1150.000 187.920,1144.033 173.928,1135.053 164.947 C 1119.910 149.805,1121.514 149.979,999.144 150.158 C 906.580 150.293,889.728 150.765,882.171 153.434 M381.000 351.113 C 378.800 351.623,372.090 353.036,366.089 354.255 C 341.774 359.193,312.737 375.526,293.386 395.150 C 250.799 438.340,238.600 500.828,261.683 557.549 C 276.054 592.864,307.136 623.946,342.451 638.317 C 426.583 672.555,519.320 626.876,544.312 538.887 C 550.651 516.570,550.651 483.430,544.312 461.113 C 536.654 434.149,525.568 415.420,505.080 394.830 C 489.865 379.539,483.989 375.169,468.000 367.258 C 457.550 362.088,444.050 356.512,438.000 354.867 C 427.033 351.886,388.595 349.354,381.000 351.113 M781.000 351.113 C 778.800 351.623,772.090 353.036,766.089 354.255 C 741.774 359.193,712.737 375.526,693.386 395.150 C 650.799 438.340,638.600 500.828,661.683 557.549 C 676.054 592.864,707.136 623.946,742.451 638.317 C 826.583 672.555,919.320 626.876,944.312 538.887 C 950.651 516.570,950.651 483.430,944.312 461.113 C 936.654 434.149,925.568 415.420,905.080 394.830 C 889.865 379.539,883.989 375.169,868.000 367.258 C 857.550 362.088,844.050 356.512,838.000 354.867 C 827.033 351.886,788.595 349.354,781.000 351.113 M358.576 752.044 C 298.198 757.912,228.518 774.621,178.328 795.265 C 106.824 824.677,61.798 864.199,52.171 906.000 C 51.031 910.950,50.076 935.765,50.049 961.144 C 49.992 1014.629,51.373 1021.478,64.947 1035.053 C 81.064 1051.169,54.861 1050.000,400.000 1050.000 C 745.139 1050.000,718.936 1051.169,735.053 1035.053 C 748.627 1021.478,750.008 1014.629,749.951 961.144 C 749.924 935.765,748.969 910.950,747.829 906.000 C 738.436 865.215,694.857 826.203,626.000 796.938 C 586.127 779.991,525.096 763.683,473.000 756.054 C 440.829 751.343,385.673 749.410,358.576 752.044 M764.130 751.697 L 751.260 753.000 762.943 761.801 C 803.814 792.590,833.451 836.284,845.508 883.525 C 850.649 903.666,850.643 1017.233,845.500 1035.289 C 843.575 1042.047,842.000 1048.122,842.000 1048.789 C 842.000 1049.455,901.690 1050.000,974.644 1050.000 C 1124.322 1050.000,1119.672 1050.433,1135.053 1035.053 C 1148.627 1021.478,1150.008 1014.629,1149.951 961.144 C 1149.924 935.765,1148.969 910.950,1147.829 906.000 C 1138.436 865.215,1094.857 826.203,1026.000 796.938 C 986.127 779.991,925.096 763.683,873.000 756.054 C 843.487 751.732,786.361 749.446,764.130 751.697 " fill="#1D1E23" stroke="none" fill-rule="evenodd"></path></svg>