<svg width="1200" height="1200" viewBox="0 0 1200 1200" fill="none" xmlns="http://www.w3.org/2000/svg"><path d="M229.020 152.335 C 192.911 159.278,159.963 192.420,152.210 229.598 C 149.085 244.585,149.085 955.415,152.210 970.402 C 160.026 1007.883,192.117 1039.974,229.598 1047.790 C 244.585 1050.915,955.415 1050.915,970.402 1047.790 C 1007.883 1039.974,1039.974 1007.883,1047.790 970.402 C 1050.915 955.415,1050.915 244.585,1047.790 229.598 C 1040.894 196.531,1017.041 169.355,983.000 155.784 L 971.000 151.000 605.000 150.708 C 378.291 150.527,235.202 151.146,229.020 152.335 M823.036 556.109 C 858.087 574.148,858.087 625.852,823.036 643.891 L 813.108 649.000 603.152 649.527 C 366.662 650.121,380.877 650.982,364.993 635.098 C 345.365 615.471,345.361 584.533,364.983 564.911 C 380.552 549.343,365.561 550.245,602.054 550.644 L 813.108 551.000 823.036 556.109 " fill="#1D1E23" stroke="none" fill-rule="evenodd"></path></svg>