<svg width="1200" height="1200" viewBox="0 0 1200 1200" fill="none" xmlns="http://www.w3.org/2000/svg"><path d="M636.000 103.078 C 601.382 110.598,566.565 137.357,551.529 168.000 C 538.805 193.932,538.063 200.197,538.030 281.953 L 538.000 354.906 554.000 339.000 L 570.000 323.094 570.000 274.547 L 570.000 226.000 819.000 226.000 L 1068.000 226.000 1068.000 601.000 L 1068.000 976.000 819.000 976.000 L 570.000 976.000 570.000 926.453 L 570.000 876.906 554.000 861.000 L 538.000 845.094 538.030 918.047 C 538.053 976.389,538.671 993.604,541.114 1004.000 C 551.585 1048.558,587.377 1084.332,633.219 1096.056 C 647.976 1099.830,655.924 1099.999,817.820 1099.965 C 1007.185 1099.926,1002.496 1100.235,1031.628 1085.876 C 1064.020 1069.909,1089.507 1036.819,1097.001 1001.000 C 1101.406 979.949,1101.406 220.051,1097.001 199.000 C 1088.072 156.323,1055.301 120.255,1012.000 105.449 L 999.000 101.003 824.000 100.629 C 679.719 100.320,646.718 100.750,636.000 103.078 M892.179 167.722 C 897.835 174.710,897.175 184.785,890.730 189.855 C 885.639 193.860,883.210 194.000,818.842 194.000 L 752.223 194.000 746.778 189.317 C 739.268 182.857,739.306 173.111,746.865 166.608 L 752.397 161.850 820.377 162.425 L 888.357 163.000 892.179 167.722 M700.411 280.589 L 667.867 313.178 673.212 318.089 C 683.231 327.295,708.692 358.958,720.582 377.000 C 736.157 400.633,757.946 445.596,766.854 472.488 C 788.228 537.014,792.670 613.678,778.958 681.400 C 764.402 753.289,727.989 823.973,678.659 876.100 L 668.155 887.199 701.602 920.603 L 735.050 954.007 752.357 934.503 C 786.360 896.186,807.351 865.275,828.903 821.785 C 852.983 773.196,867.869 725.843,876.305 671.000 C 882.400 631.375,882.400 568.625,876.305 529.000 C 860.652 427.240,815.674 332.971,748.568 261.281 C 741.731 253.976,735.421 248.000,734.546 248.000 C 733.671 248.000,718.310 262.665,700.411 280.589 M568.616 412.500 L 536.277 445.000 547.262 458.000 C 569.650 484.494,584.175 512.736,593.497 547.899 C 597.874 564.411,598.575 571.338,598.667 599.000 C 598.755 625.500,598.019 634.039,594.382 648.680 C 585.556 684.208,571.796 711.845,548.976 739.881 L 536.349 755.394 569.087 788.087 L 601.824 820.779 606.162 816.890 C 613.737 810.097,633.065 785.563,643.890 769.000 C 664.778 737.037,680.201 698.299,688.480 657.005 C 694.758 625.697,694.758 574.303,688.480 542.995 C 679.635 498.877,664.118 461.225,640.091 425.578 C 627.023 406.189,605.318 380.000,602.318 380.000 C 601.568 380.000,586.402 394.625,568.616 412.500 M270.243 414.254 C 253.948 416.961,235.313 426.815,222.172 439.674 C 169.917 490.805,193.981 578.418,265.387 597.017 C 317.131 610.494,370.811 574.481,379.976 520.140 C 388.263 471.012,352.313 422.127,302.000 414.103 C 287.297 411.759,285.209 411.769,270.243 414.254 M223.000 650.298 C 141.871 660.681,105.440 695.888,100.677 768.510 L 99.397 788.021 287.199 787.510 L 475.000 787.000 474.353 771.000 C 472.934 735.875,461.634 705.335,443.309 687.097 C 424.287 668.165,395.402 656.338,355.374 651.091 C 329.231 647.664,247.410 647.174,223.000 650.298 M684.771 1008.259 C 691.847 1011.484,695.161 1020.368,692.071 1027.828 C 688.557 1036.312,681.204 1038.501,658.932 1037.697 C 641.511 1037.068,639.272 1036.542,635.821 1032.278 C 630.501 1025.704,630.950 1016.868,636.909 1010.909 C 641.432 1006.386,643.312 1006.000,660.815 1006.000 C 671.263 1006.000,682.043 1007.017,684.771 1008.259 M846.181 1011.722 C 851.140 1017.853,851.042 1026.127,845.945 1031.599 C 840.428 1037.521,835.177 1038.520,813.884 1037.701 C 797.575 1037.074,795.239 1036.500,791.822 1032.278 C 786.436 1025.625,786.949 1016.869,793.084 1010.734 C 798.013 1005.806,798.842 1005.671,820.264 1006.325 C 840.660 1006.948,842.655 1007.363,846.181 1011.722 M1001.091 1010.909 C 1007.050 1016.869,1007.499 1025.705,1002.177 1032.278 C 998.554 1036.753,997.130 1037.000,975.000 1037.000 C 952.870 1037.000,951.446 1036.753,947.823 1032.278 C 942.501 1025.705,942.950 1016.869,948.909 1010.909 C 953.503 1006.315,955.177 1006.000,975.000 1006.000 C 994.823 1006.000,996.497 1006.315,1001.091 1010.909 " fill="#1D1E23" stroke="none" fill-rule="evenodd"></path></svg>