<svg width="1200" height="1200" viewBox="0 0 1200 1200" fill="none" xmlns="http://www.w3.org/2000/svg"><path d="M477.000 201.208 C 392.372 213.748,328.822 268.918,306.592 349.147 C 301.681 366.870,301.091 372.326,301.091 400.000 C 301.091 427.564,301.692 433.167,306.510 450.545 C 326.304 521.937,378.063 573.696,449.455 593.490 C 466.833 598.308,472.436 598.909,500.000 598.909 C 527.674 598.909,533.130 598.319,550.853 593.408 C 612.807 576.241,662.606 532.162,685.756 474.000 C 720.018 387.920,689.479 287.257,613.435 235.617 C 595.841 223.668,567.156 210.706,547.913 206.007 C 531.485 201.996,490.431 199.218,477.000 201.208 M882.171 503.434 C 864.528 509.666,850.000 530.694,850.000 550.000 C 850.000 562.080,855.967 576.072,864.947 585.053 C 880.053 600.158,878.625 600.000,1000.000 600.000 C 1121.375 600.000,1119.947 600.158,1135.053 585.053 C 1144.033 576.072,1150.000 562.080,1150.000 550.000 C 1150.000 537.920,1144.033 523.928,1135.053 514.947 C 1119.910 499.805,1121.514 499.979,999.144 500.158 C 906.580 500.293,889.728 500.765,882.171 503.434 M456.000 702.213 C 392.020 707.813,311.637 726.044,257.472 747.240 C 204.507 767.965,165.974 791.331,137.957 819.711 C 106.535 851.540,100.000 869.334,100.000 923.064 C 100.000 963.457,102.112 972.218,114.947 985.053 C 131.149 1001.254,98.842 1000.000,500.000 1000.000 C 901.259 1000.000,868.843 1001.262,885.098 985.007 C 898.690 971.415,900.511 962.919,899.578 917.433 C 898.844 881.611,898.431 878.086,893.503 865.550 C 868.160 801.072,773.719 745.983,639.000 717.093 C 568.417 701.957,511.653 697.342,456.000 702.213 " fill="#1D1E23" stroke="none" fill-rule="evenodd"></path></svg>