<svg width="1200" height="1200" viewBox="0 0 1200 1200" fill="none" xmlns="http://www.w3.org/2000/svg"><path d="M850.000 200.000 L 850.000 250.000 1000.000 250.000 L 1150.000 250.000 1150.000 200.000 L 1150.000 150.000 1000.000 150.000 L 850.000 150.000 850.000 200.000 M381.000 351.113 C 378.800 351.623,372.090 353.036,366.089 354.255 C 341.774 359.193,312.737 375.526,293.386 395.150 C 250.799 438.340,238.600 500.828,261.683 557.549 C 276.054 592.864,307.136 623.946,342.451 638.317 C 426.583 672.555,519.320 626.876,544.312 538.887 C 550.651 516.570,550.651 483.430,544.312 461.113 C 536.654 434.149,525.568 415.420,505.080 394.830 C 489.865 379.539,483.989 375.169,468.000 367.258 C 457.550 362.088,444.050 356.512,438.000 354.867 C 427.033 351.886,388.595 349.354,381.000 351.113 M781.000 351.113 C 778.800 351.623,772.090 353.036,766.089 354.255 C 741.774 359.193,712.737 375.526,693.386 395.150 C 650.799 438.340,638.600 500.828,661.683 557.549 C 676.054 592.864,707.136 623.946,742.451 638.317 C 826.583 672.555,919.320 626.876,944.312 538.887 C 950.651 516.570,950.651 483.430,944.312 461.113 C 936.654 434.149,925.568 415.420,905.080 394.830 C 889.865 379.539,883.989 375.169,868.000 367.258 C 857.550 362.088,844.050 356.512,838.000 354.867 C 827.033 351.886,788.595 349.354,781.000 351.113 M358.576 752.044 C 298.198 757.912,228.518 774.621,178.328 795.265 C 106.824 824.677,61.798 864.199,52.171 906.000 C 50.965 911.236,50.077 943.233,50.049 982.500 L 50.000 1050.000 400.000 1050.000 L 750.000 1050.000 749.951 982.500 C 749.923 943.233,749.035 911.236,747.829 906.000 C 738.436 865.215,694.857 826.203,626.000 796.938 C 586.127 779.991,525.096 763.683,473.000 756.054 C 440.829 751.343,385.673 749.410,358.576 752.044 M764.248 751.697 L 751.495 753.000 761.248 759.967 C 788.697 779.577,821.877 820.502,834.301 850.073 C 848.086 882.883,848.630 887.257,849.518 972.500 L 850.326 1050.000 1000.163 1050.000 L 1150.000 1050.000 1149.951 982.500 C 1149.923 943.233,1149.035 911.236,1147.829 906.000 C 1138.436 865.215,1094.857 826.203,1026.000 796.938 C 986.127 779.991,925.096 763.683,873.000 756.054 C 843.505 751.735,786.304 749.443,764.248 751.697 " fill="#1D1E23" stroke="none" fill-rule="evenodd"></path></svg>