<svg width="1200" height="1200" viewBox="0 0 1200 1200" fill="none" xmlns="http://www.w3.org/2000/svg"><path d="M556.000 101.962 C 416.815 115.884,295.232 181.194,209.663 288.000 C 73.683 457.729,63.352 695.839,184.124 876.644 C 338.485 1107.735,647.309 1169.297,878.000 1014.964 C 1107.746 861.264,1168.863 552.043,1014.964 322.000 C 936.423 204.599,815.946 128.109,674.644 105.934 C 645.457 101.354,582.987 99.262,556.000 101.962 M823.036 556.109 C 858.087 574.148,858.087 625.852,823.036 643.891 L 813.108 649.000 603.152 649.527 C 366.662 650.121,380.877 650.982,364.993 635.098 C 345.365 615.471,345.361 584.533,364.983 564.911 C 380.552 549.343,365.561 550.245,602.054 550.644 L 813.108 551.000 823.036 556.109 " fill="#1D1E23" stroke="none" fill-rule="evenodd"></path></svg>