<svg width="1200" height="1200" viewBox="0 0 1200 1200" fill="none" xmlns="http://www.w3.org/2000/svg"><path d="M477.000 201.208 C 392.372 213.748,328.822 268.918,306.592 349.147 C 301.681 366.870,301.091 372.326,301.091 400.000 C 301.091 427.564,301.692 433.167,306.510 450.545 C 326.304 521.937,378.063 573.696,449.455 593.490 C 466.833 598.308,472.436 598.909,500.000 598.909 C 527.674 598.909,533.130 598.319,550.853 593.408 C 612.807 576.241,662.606 532.162,685.756 474.000 C 720.018 387.920,689.479 287.257,613.435 235.617 C 595.841 223.668,567.156 210.706,547.913 206.007 C 531.485 201.996,490.431 199.218,477.000 201.208 M850.000 550.000 L 850.000 600.000 1000.000 600.000 L 1150.000 600.000 1150.000 550.000 L 1150.000 500.000 1000.000 500.000 L 850.000 500.000 850.000 550.000 M456.000 702.213 C 392.020 707.813,311.637 726.044,257.472 747.240 C 229.679 758.115,197.249 774.393,176.000 788.135 C 150.663 804.519,121.303 834.101,112.544 852.069 C 100.995 875.762,100.000 883.087,100.000 944.420 L 100.000 1000.000 500.132 1000.000 L 900.264 1000.000 899.595 939.500 C 898.929 879.317,898.898 878.930,893.571 865.550 C 867.821 800.866,773.702 745.979,639.000 717.093 C 568.417 701.957,511.653 697.342,456.000 702.213 " fill="#1D1E23" stroke="none" fill-rule="evenodd"></path></svg>