<svg width="1200" height="1200" viewBox="0 0 1200 1200" fill="none" xmlns="http://www.w3.org/2000/svg"><path d="M466.000 102.241 C 372.045 111.689,283.733 154.023,217.642 221.296 C 184.053 255.486,161.867 286.511,142.057 327.000 C 102.126 408.609,90.457 501.795,109.108 590.128 C 151.967 793.122,341.406 931.047,548.288 909.881 C 575.997 907.046,611.569 899.377,636.549 890.852 C 661.950 882.183,712.342 857.324,731.000 844.258 L 745.000 834.454 873.000 961.919 C 975.434 1063.925,1002.997 1090.319,1011.000 1094.064 C 1026.219 1101.185,1049.095 1100.918,1064.321 1093.440 C 1077.413 1087.011,1088.661 1075.439,1094.641 1062.245 C 1097.779 1055.321,1098.829 1048.983,1098.821 1037.000 C 1098.804 1009.334,1103.508 1014.966,961.025 872.000 L 834.455 745.000 844.258 731.000 C 857.324 712.342,882.183 661.950,890.852 636.549 C 908.612 584.508,915.922 518.980,909.989 465.000 C 895.823 336.121,826.040 226.005,715.989 158.871 C 642.712 114.170,551.914 93.601,466.000 102.241 M568.317 199.853 C 630.527 213.233,681.136 240.826,726.077 285.867 C 770.945 330.836,797.071 377.952,811.143 439.278 C 818.886 473.023,820.233 522.493,814.347 557.000 C 791.672 689.948,689.999 791.624,557.000 814.356 C 536.479 817.863,527.781 818.290,497.000 817.300 C 443.070 815.565,410.652 807.421,363.484 783.760 C 317.735 760.810,272.324 719.635,243.533 675.000 C 221.502 640.843,205.307 598.438,198.181 556.249 C 181.392 456.857,216.133 352.248,289.270 281.961 C 337.092 236.003,392.510 208.543,461.000 196.868 C 484.707 192.826,543.215 194.454,568.317 199.853 M457.999 230.500 C 450.110 235.885,444.000 246.619,444.000 255.093 C 444.000 260.757,439.479 264.863,387.470 306.432 L 330.941 351.615 321.823 350.587 C 310.430 349.303,297.669 355.253,291.813 364.581 C 285.958 373.907,287.194 393.744,294.091 401.125 C 305.060 412.867,322.621 415.651,335.500 407.691 C 343.006 403.052,349.883 390.610,349.956 381.537 C 349.994 376.806,357.295 370.233,404.500 332.435 C 434.475 308.434,460.128 288.112,461.506 287.276 C 462.884 286.440,468.058 286.363,473.004 287.105 C 481.885 288.437,482.582 289.144,529.498 344.376 L 577.000 400.298 577.243 410.752 C 577.659 428.599,586.983 440.095,603.586 443.233 C 619.215 446.186,638.000 431.597,638.000 416.507 C 638.000 410.481,639.718 408.685,658.943 394.620 L 679.886 379.299 692.062 379.796 C 702.557 380.224,705.189 379.568,711.121 375.043 C 727.718 362.384,728.647 340.592,713.205 326.166 C 706.093 319.522,688.181 317.916,678.619 323.065 C 670.709 327.325,664.884 336.045,662.938 346.539 C 661.691 353.263,659.350 355.657,641.270 368.695 C 621.794 382.740,620.629 383.279,611.533 382.457 L 602.066 381.602 553.709 324.698 L 505.352 267.794 505.176 256.307 C 504.975 243.170,501.162 235.870,491.391 229.912 C 482.298 224.367,466.578 224.644,457.999 230.500 M460.000 514.000 L 460.000 662.000 475.000 662.000 L 490.000 662.000 490.000 514.000 L 490.000 366.000 475.000 366.000 L 460.000 366.000 460.000 514.000 M382.000 545.000 L 382.000 662.000 405.000 662.000 L 428.000 662.000 428.000 545.000 L 428.000 428.000 405.000 428.000 L 382.000 428.000 382.000 545.000 M522.000 561.000 L 522.000 662.000 537.000 662.000 L 552.000 662.000 552.000 561.000 L 552.000 460.000 537.000 460.000 L 522.000 460.000 522.000 561.000 M662.000 577.000 L 662.000 694.000 693.000 694.000 L 724.000 694.000 724.000 577.000 L 724.000 460.000 693.000 460.000 L 662.000 460.000 662.000 577.000 M288.000 592.000 L 288.000 694.000 319.000 694.000 L 350.000 694.000 350.000 592.000 L 350.000 490.000 319.000 490.000 L 288.000 490.000 288.000 592.000 M584.000 592.000 L 584.000 662.000 607.000 662.000 L 630.000 662.000 630.000 592.000 L 630.000 522.000 607.000 522.000 L 584.000 522.000 584.000 592.000 " fill="#1D1E23" stroke="none" fill-rule="evenodd"></path></svg>