<svg width="1200" height="1200" viewBox="0 0 1200 1200" fill="none" xmlns="http://www.w3.org/2000/svg"><path d="M600.000 124.125 L 600.000 199.245 570.500 201.611 C 469.724 209.693,382.348 250.633,312.940 322.290 C 280.575 355.704,259.838 385.300,239.976 426.426 C 189.096 531.780,186.799 651.177,233.567 759.511 C 241.404 777.666,260.008 811.981,262.021 811.993 C 262.582 811.997,279.167 795.856,298.875 776.125 L 334.708 740.251 328.476 726.625 C 312.847 692.455,305.441 664.860,301.654 626.674 C 297.558 585.390,304.310 533.937,318.872 495.459 C 354.277 401.905,435.337 330.414,531.000 308.373 C 548.313 304.384,581.259 300.000,593.921 300.000 L 600.000 300.000 600.000 375.498 L 600.000 450.995 700.498 350.498 L 800.995 250.000 700.498 149.502 L 600.000 49.005 600.000 124.125 M901.146 423.854 L 865.334 459.708 871.924 474.354 C 910.661 560.442,908.537 656.645,866.118 737.330 C 847.609 772.536,827.864 797.831,797.646 825.047 C 750.362 867.634,684.679 895.052,619.749 899.307 L 600.000 900.601 600.000 825.803 L 600.000 751.005 500.503 850.503 L 401.005 950.000 500.503 1049.497 L 600.000 1148.995 600.000 1074.497 L 600.000 1000.000 611.500 999.984 C 659.190 999.916,724.122 983.906,773.574 960.024 C 814.688 940.168,844.275 919.439,877.720 887.060 C 913.490 852.430,938.764 817.594,959.958 773.709 C 1011.064 667.890,1013.207 549.066,965.988 439.489 C 958.516 422.150,939.947 388.019,937.979 388.007 C 937.418 388.003,920.843 404.134,901.146 423.854 " fill="#1D1E23" stroke="none" fill-rule="evenodd"></path></svg>