<svg width="1200" height="1200" viewBox="0 0 1200 1200" fill="none" xmlns="http://www.w3.org/2000/svg"><path d="M434.000 201.209 C 431.250 201.718,423.600 204.022,417.000 206.329 C 347.387 230.658,327.583 317.938,379.823 370.177 C 419.629 409.983,480.371 409.983,520.177 370.177 C 572.446 317.909,553.030 232.052,483.087 206.158 C 471.425 201.840,444.985 199.174,434.000 201.209 M738.113 202.049 C 733.225 203.080,722.597 207.071,714.496 210.919 C 676.277 229.069,653.052 272.623,659.473 314.106 C 667.492 365.915,715.217 403.882,766.450 399.208 C 812.083 395.046,849.349 360.256,856.340 315.293 C 863.709 267.894,836.948 223.136,791.087 206.158 C 777.520 201.135,751.876 199.146,738.113 202.049 M434.000 501.209 C 431.250 501.718,423.600 504.022,417.000 506.329 C 347.387 530.658,327.583 617.938,379.823 670.177 C 419.629 709.983,480.435 709.983,520.146 670.177 C 534.252 656.037,541.951 642.504,546.939 623.080 C 562.207 563.620,517.226 503.843,455.087 501.015 C 446.239 500.612,436.750 500.699,434.000 501.209 M738.113 502.049 C 733.225 503.080,722.597 507.071,714.496 510.919 C 676.277 529.069,653.052 572.623,659.473 614.106 C 669.068 676.093,733.705 715.078,791.450 693.707 C 868.256 665.281,881.161 562.008,813.474 517.461 C 792.087 503.386,761.465 497.123,738.113 502.049 M434.000 801.209 C 431.250 801.718,423.600 804.022,417.000 806.329 C 347.387 830.658,327.583 917.938,379.823 970.177 C 419.629 1009.983,480.371 1009.983,520.177 970.177 C 572.446 917.909,553.030 832.052,483.087 806.158 C 471.425 801.840,444.985 799.174,434.000 801.209 M738.113 802.049 C 733.225 803.080,722.597 807.071,714.496 810.919 C 676.277 829.069,653.052 872.623,659.473 914.106 C 667.492 965.915,715.217 1003.882,766.450 999.208 C 812.083 995.046,849.349 960.256,856.340 915.293 C 863.709 867.894,836.948 823.136,791.087 806.158 C 777.520 801.135,751.876 799.146,738.113 802.049 " fill="#1D1E23" stroke="none" fill-rule="evenodd"></path></svg>