<svg width="1200" height="1200" viewBox="0 0 1200 1200" fill="none" xmlns="http://www.w3.org/2000/svg"><path d="M854.000 122.000 C 850.172 125.828,850.000 128.667,850.000 188.000 L 850.000 250.000 571.251 250.000 C 267.494 250.000,284.040 249.393,268.682 261.107 C 265.056 263.873,259.594 270.380,256.545 275.568 L 251.000 285.000 250.435 395.546 C 250.061 468.863,250.584 508.742,251.990 513.962 C 255.043 525.302,265.563 538.023,276.574 543.690 C 296.581 553.986,319.488 550.618,335.007 535.098 C 349.682 520.423,350.000 518.165,350.000 428.644 L 350.000 350.000 600.000 350.000 L 850.000 350.000 850.000 411.555 C 850.000 464.030,850.459 473.766,853.113 477.555 C 860.628 488.284,861.223 487.795,955.508 393.492 C 1032.746 316.239,1044.000 304.222,1044.000 298.996 C 1044.000 293.770,1032.868 281.885,956.431 205.505 C 862.911 112.054,863.482 112.518,854.000 122.000 M883.181 653.147 C 871.791 657.320,862.844 664.851,856.545 675.568 L 851.000 685.000 850.417 767.500 L 849.833 850.000 599.917 850.000 L 350.000 850.000 350.000 788.000 C 350.000 728.667,349.828 725.828,346.000 722.000 C 336.518 712.518,337.089 712.054,243.569 805.505 C 167.024 881.994,156.000 893.765,156.000 899.013 C 156.000 904.261,167.138 916.153,244.508 993.508 C 338.778 1087.760,339.388 1088.261,346.887 1077.555 C 349.541 1073.766,350.000 1064.030,350.000 1011.555 L 350.000 950.000 628.644 950.000 C 941.697 950.000,918.998 951.107,935.053 935.053 C 950.158 919.947,950.000 921.375,950.000 800.000 C 950.000 678.625,950.158 680.053,935.053 664.947 C 921.434 651.329,900.896 646.656,883.181 653.147 " fill="#1D1E23" stroke="none" fill-rule="evenodd"></path></svg>