<svg width="1200" height="1200" viewBox="0 0 1200 1200" fill="none" xmlns="http://www.w3.org/2000/svg"><path d="M475.004 175.995 L 351.008 300.004 475.504 424.500 L 600.000 548.996 600.000 449.498 L 600.000 350.000 606.079 350.000 C 618.741 350.000,651.687 354.384,669.000 358.373 C 715.277 369.036,763.000 393.749,797.748 425.045 C 845.505 468.057,876.584 519.282,891.097 578.902 C 908.163 649.010,899.123 724.388,866.099 787.330 C 823.018 869.441,750.937 924.010,658.681 944.357 C 630.157 950.648,569.843 950.648,541.319 944.357 C 487.520 932.491,439.595 908.589,402.354 875.047 C 342.258 820.922,309.125 755.293,301.661 675.598 L 299.263 650.000 249.632 650.000 L 200.000 650.000 200.000 661.079 C 200.000 709.073,215.909 773.739,239.976 823.574 C 259.832 864.688,280.561 894.275,312.940 927.720 C 347.570 963.490,382.406 988.764,426.291 1009.958 C 565.784 1077.326,731.275 1058.124,852.000 960.562 C 869.710 946.250,903.329 911.964,916.285 895.000 C 970.249 824.345,999.967 737.338,999.967 650.000 C 999.967 547.942,960.190 448.507,890.037 375.195 C 819.716 301.707,731.326 259.777,629.518 251.612 L 600.037 249.248 599.518 150.617 L 599.000 51.987 475.004 175.995 " fill="#1D1E23" stroke="none" fill-rule="evenodd"></path></svg>