<svg width="1200" height="1200" viewBox="0 0 1200 1200" fill="none" xmlns="http://www.w3.org/2000/svg"><path d="M463.616 187.403 C 392.322 258.647,361.775 290.471,360.911 294.403 C 357.824 308.459,357.616 308.215,459.693 410.638 C 513.212 464.338,559.430 509.563,562.401 511.138 C 565.371 512.712,571.459 514.000,575.930 514.000 C 582.396 514.000,585.587 512.600,591.529 507.156 L 599.000 500.311 599.570 425.156 L 600.139 350.000 608.570 350.039 C 622.013 350.101,657.670 355.320,675.156 359.784 C 787.714 388.523,874.021 482.233,895.474 599.000 C 899.968 623.464,899.863 676.390,895.270 701.472 C 885.113 756.934,865.189 799.855,829.508 843.139 C 786.938 894.779,728.476 929.237,658.000 944.226 C 627.872 950.634,572.012 950.723,542.792 944.409 C 480.492 930.949,432.949 905.231,388.859 861.141 C 343.531 815.813,318.606 769.013,305.156 703.978 C 299.718 677.681,294.481 667.472,282.340 659.500 C 267.349 649.657,255.743 647.906,238.863 652.943 C 218.387 659.051,204.059 678.244,204.020 699.615 C 203.971 726.187,220.585 783.421,240.042 823.709 C 261.196 867.511,286.390 902.260,322.280 937.134 C 397.475 1010.202,494.774 1049.817,599.398 1049.961 C 821.961 1050.267,1000.000 872.958,1000.000 651.000 C 1000.000 541.504,956.592 439.263,877.710 362.969 C 807.531 295.092,720.888 257.160,621.569 250.829 L 600.138 249.463 599.569 174.576 L 599.000 99.689 591.529 92.844 C 585.221 87.064,582.584 86.000,574.575 86.000 L 565.092 86.000 463.616 187.403 " fill="#1D1E23" stroke="none" fill-rule="evenodd"></path></svg>