<svg width="1200" height="1200" viewBox="0 0 1200 1200" fill="none" xmlns="http://www.w3.org/2000/svg"><path d="M436.143 322.220 C 432.371 323.364,425.621 326.860,421.143 329.990 C 416.664 333.120,359.745 389.078,294.656 454.341 C 176.852 572.458,176.296 573.054,172.926 584.804 C 169.167 597.908,169.925 610.044,175.159 620.534 C 179.805 629.848,419.190 869.318,429.000 874.466 C 446.316 883.552,471.476 878.579,486.511 863.097 C 498.637 850.612,500.000 843.393,500.000 791.644 L 500.000 746.000 525.600 746.000 C 604.359 746.000,695.328 760.553,764.510 784.219 C 874.071 821.699,966.476 889.041,1037.102 982.877 C 1043.406 991.252,1048.887 997.780,1049.283 997.384 C 1050.530 996.137,1030.770 920.037,1022.958 896.000 C 943.382 651.157,774.526 500.326,529.367 455.098 C 514.169 452.294,501.344 450.000,500.867 450.000 C 500.390 450.000,500.000 430.313,500.000 406.251 C 500.000 359.069,498.866 352.113,489.086 339.291 C 478.516 325.433,452.846 317.156,436.143 322.220 " fill="#1D1E23" stroke="none" fill-rule="evenodd"></path></svg>