<svg width="1200" height="1200" viewBox="0 0 1200 1200" fill="none" xmlns="http://www.w3.org/2000/svg"><path d="M325.003 425.997 L 151.006 600.003 325.503 774.500 L 500.000 948.997 500.000 847.192 L 500.000 745.387 541.500 746.625 C 683.431 750.860,799.192 784.286,896.000 848.987 C 950.969 885.725,996.492 928.921,1037.102 982.877 C 1043.406 991.252,1048.887 997.780,1049.283 997.384 C 1050.530 996.137,1030.770 920.037,1022.958 896.000 C 943.382 651.157,774.526 500.326,529.367 455.098 C 514.169 452.294,501.352 450.000,500.886 450.000 C 500.419 450.000,499.804 405.448,499.519 350.995 L 499.000 251.990 325.003 425.997 " fill="#1D1E23" stroke="none" fill-rule="evenodd"></path></svg>