<svg width="1200" height="1200" viewBox="0 0 1200 1200" fill="none" xmlns="http://www.w3.org/2000/svg"><path d="M230.113 202.181 C 203.511 207.397,174.398 229.440,162.203 253.598 C 149.342 279.076,150.062 255.597,150.030 650.402 C 150.009 905.166,150.643 1012.889,152.210 1020.402 C 160.026 1057.883,192.117 1089.974,229.598 1097.790 C 244.585 1100.915,955.415 1100.915,970.402 1097.790 C 1007.883 1089.974,1039.974 1057.883,1047.790 1020.402 C 1049.337 1012.985,1050.000 933.141,1050.000 754.430 L 1050.000 499.056 900.472 349.528 L 750.944 200.000 494.972 200.219 C 354.187 200.340,235.001 201.222,230.113 202.181 M837.500 412.685 C 940.184 515.198,956.000 531.768,956.000 536.836 C 956.000 540.053,954.511 544.331,952.690 546.343 C 949.553 549.809,943.073 550.000,828.690 550.000 C 710.667 550.000,707.912 549.912,704.000 546.000 C 700.088 542.088,700.000 539.333,700.000 421.145 L 700.000 300.290 705.314 296.110 C 708.726 293.427,712.127 292.369,714.814 293.156 C 717.116 293.831,772.325 347.619,837.500 412.685 M423.250 406.220 C 442.867 416.315,453.124 438.886,448.165 461.046 C 439.683 498.946,392.489 512.594,364.993 485.098 C 345.365 465.471,345.361 434.533,364.983 414.911 C 380.378 399.516,403.517 396.065,423.250 406.220 M423.250 606.220 C 442.867 616.315,453.124 638.886,448.165 661.046 C 439.683 698.946,392.489 712.594,364.993 685.098 C 345.365 665.471,345.361 634.533,364.983 614.911 C 380.378 599.516,403.517 596.065,423.250 606.220 M423.250 806.220 C 442.867 816.315,453.124 838.886,448.165 861.046 C 439.683 898.946,392.489 912.594,364.993 885.098 C 345.365 865.471,345.361 834.533,364.983 814.911 C 380.378 799.516,403.517 796.065,423.250 806.220 " fill="#1D1E23" stroke="none" fill-rule="evenodd"></path></svg>