<svg width="1200" height="1200" viewBox="0 0 1200 1200" fill="none" xmlns="http://www.w3.org/2000/svg"><path d="M500.005 200.994 L 401.010 300.005 500.505 399.500 L 600.000 498.995 600.000 424.497 L 600.000 350.000 606.079 350.000 C 618.741 350.000,651.687 354.384,669.000 358.373 C 777.717 383.422,866.485 472.184,891.641 581.000 C 907.131 648.004,899.900 716.321,870.798 777.914 C 856.076 809.073,838.009 834.275,811.141 861.129 C 766.286 905.961,722.079 929.735,655.500 944.829 L 650.000 946.076 650.000 996.038 C 650.000 1043.715,650.173 1046.000,653.784 1046.000 C 659.531 1046.000,695.324 1038.537,710.000 1034.278 C 867.082 988.698,980.103 854.154,997.877 691.579 C 1010.379 577.222,970.001 458.760,890.037 375.195 C 819.718 301.709,731.326 259.777,629.524 251.613 L 600.048 249.249 599.524 175.616 L 599.000 101.983 500.005 200.994 M304.571 380.708 C 279.430 407.584,257.604 439.926,239.976 476.426 C 186.730 586.680,186.736 713.130,239.994 823.574 C 259.479 863.980,279.848 893.193,311.892 926.689 C 368.850 986.228,440.571 1025.464,522.716 1042.025 C 533.560 1044.211,544.135 1046.000,546.216 1046.000 C 549.827 1046.000,550.000 1043.715,550.000 996.038 L 550.000 946.076 544.500 944.829 C 477.921 929.735,433.714 905.961,388.859 861.129 C 313.127 785.435,284.211 683.274,308.968 578.879 C 319.831 533.074,346.107 483.274,376.626 450.649 L 388.700 437.742 353.871 402.871 C 334.716 383.692,318.461 368.000,317.751 368.000 C 317.040 368.000,311.109 373.719,304.571 380.708 " fill="#1D1E23" stroke="none" fill-rule="evenodd"></path></svg>