<svg width="1200" height="1200" viewBox="0 0 1200 1200" fill="none" xmlns="http://www.w3.org/2000/svg"><path d="M488.633 212.392 C 435.298 265.661,411.773 290.482,410.914 294.392 C 407.881 308.200,409.020 309.608,484.698 385.641 C 524.464 425.594,559.430 459.569,562.401 461.141 C 565.371 462.714,571.459 464.000,575.930 464.000 C 582.396 464.000,585.587 462.600,591.529 457.157 L 599.000 450.314 599.598 400.157 L 600.196 350.000 606.177 350.000 C 609.466 350.000,620.897 350.951,631.579 352.113 C 732.775 363.123,818.388 421.735,866.099 512.670 C 912.782 601.646,910.433 710.626,859.928 798.897 C 832.114 847.509,784.326 892.696,733.938 918.031 C 725.536 922.255,709.288 928.970,697.831 932.953 C 674.166 941.180,667.120 945.386,659.691 955.723 C 638.428 985.312,654.807 1026.927,690.677 1034.451 C 700.656 1036.544,702.959 1036.231,721.974 1030.203 C 886.832 977.942,999.967 823.211,999.967 650.000 C 999.967 547.942,960.190 448.507,890.037 375.195 C 819.738 301.730,731.322 259.777,629.596 251.618 L 600.191 249.260 599.596 199.473 L 599.000 149.686 591.529 142.843 C 585.225 137.068,582.581 136.000,574.590 136.000 L 565.121 136.000 488.633 212.392 M307.000 392.198 C 302.600 393.276,295.445 396.610,291.101 399.607 C 280.180 407.141,258.425 439.425,242.078 472.358 C 186.750 583.821,186.008 711.826,240.042 823.709 C 288.397 923.834,379.732 1001.797,484.341 1032.243 C 498.344 1036.318,500.689 1036.482,511.232 1034.123 C 521.066 1031.922,524.444 1029.864,533.969 1020.269 C 553.035 1001.063,555.423 976.755,540.309 955.723 C 532.880 945.386,525.834 941.180,502.169 932.953 C 457.290 917.352,423.994 896.247,388.859 861.129 C 344.709 817.001,318.888 769.410,305.775 708.000 C 299.317 677.755,299.312 622.286,305.765 592.000 C 314.721 549.970,328.771 516.725,353.347 479.412 C 369.394 455.047,372.204 444.516,367.218 427.417 C 359.560 401.158,333.248 385.769,307.000 392.198 " fill="#1D1E23" stroke="none" fill-rule="evenodd"></path></svg>