<svg width="1200" height="1200" viewBox="0 0 1200 1200" fill="none" xmlns="http://www.w3.org/2000/svg"><path d="M180.113 102.167 C 153.459 107.435,124.394 129.448,112.203 153.598 C 99.252 179.253,100.062 147.428,100.030 632.055 C 100.003 1028.038,100.318 1073.564,103.113 1077.555 C 110.642 1088.303,111.058 1087.960,208.000 991.000 L 298.984 900.000 654.393 900.000 C 906.137 900.000,1012.894 899.355,1020.402 897.790 C 1057.883 889.974,1089.974 857.883,1097.790 820.402 C 1100.909 805.443,1100.909 194.557,1097.790 179.598 C 1090.894 146.531,1067.041 119.355,1033.000 105.784 L 1021.000 101.000 605.000 100.705 C 372.779 100.541,185.074 101.186,180.113 102.167 M1000.000 500.000 L 1000.000 800.000 629.524 800.000 L 259.048 800.000 229.524 829.475 L 200.000 858.950 200.000 529.475 L 200.000 200.000 600.000 200.000 L 1000.000 200.000 1000.000 500.000 M450.531 426.482 L 300.000 576.964 300.000 634.482 C 300.000 689.333,300.185 692.185,304.000 696.000 C 307.814 699.814,310.667 700.000,365.245 700.000 L 422.491 700.000 571.039 552.955 C 661.432 463.476,720.915 403.111,722.980 398.760 C 730.048 383.865,728.799 382.050,673.259 326.500 L 622.767 276.000 611.915 276.000 L 601.062 276.000 450.531 426.482 M575.000 650.000 L 525.030 700.000 691.159 700.000 C 878.264 700.000,869.424 700.682,885.053 685.053 C 904.616 665.489,904.616 634.511,885.053 614.947 C 869.839 599.734,872.401 600.000,741.129 600.000 L 624.970 600.000 575.000 650.000 " fill="#1D1E23" stroke="none" fill-rule="evenodd"></path></svg>