<svg width="1200" height="1200" viewBox="0 0 1200 1200" fill="none" xmlns="http://www.w3.org/2000/svg"><path d="M198.262 102.948 C 172.414 108.828,143.522 126.653,127.819 146.408 C 88.078 196.402,91.991 268.184,136.903 313.097 C 185.768 361.961,264.031 361.904,312.968 312.968 C 351.802 274.134,360.570 218.468,335.776 168.171 C 321.707 139.631,293.409 115.704,262.000 105.791 C 244.929 100.404,215.263 99.081,198.262 102.948 M251.173 168.916 C 299.133 190.428,298.524 259.172,250.173 281.734 C 233.300 289.608,215.307 289.162,197.571 280.430 C 175.405 269.518,163.357 249.975,163.342 224.908 C 163.314 179.152,209.025 150.012,251.173 168.916 M432.000 196.241 C 419.011 201.406,410.271 217.324,413.097 230.667 C 414.975 239.538,423.308 249.915,431.199 253.212 C 436.778 255.543,477.130 256.000,677.512 256.000 L 917.152 256.000 926.076 260.500 C 932.595 263.787,936.213 267.405,939.500 273.924 C 943.669 282.191,944.000 285.493,944.000 318.809 L 944.000 354.770 922.500 333.651 C 910.675 322.036,898.120 311.063,894.599 309.266 C 872.186 297.829,845.548 319.179,851.039 344.179 C 852.126 349.127,866.787 365.337,912.681 412.336 C 945.800 446.251,973.406 474.000,974.027 474.000 C 974.648 474.000,1002.121 447.025,1035.078 414.056 C 1079.154 369.963,1095.740 352.089,1097.799 346.461 C 1106.868 321.668,1079.003 297.222,1055.401 309.266 C 1051.880 311.063,1039.325 322.036,1027.500 333.651 L 1006.000 354.770 1005.976 314.885 C 1005.951 272.815,1004.471 262.498,995.926 244.847 C 985.256 222.805,957.349 201.443,932.402 196.219 C 918.427 193.293,439.362 193.314,432.000 196.241 M947.000 540.987 C 887.885 554.134,846.316 610.217,850.608 671.036 C 857.118 763.289,958.612 816.758,1038.270 769.901 C 1083.839 743.095,1108.369 687.810,1097.122 637.258 C 1081.821 568.483,1015.269 525.804,947.000 540.987 M1000.764 605.897 C 1014.677 612.652,1023.463 621.419,1030.361 635.430 C 1043.095 661.297,1037.563 689.233,1015.840 708.764 C 991.735 730.437,957.526 730.067,933.241 707.872 C 919.236 695.072,913.429 681.998,913.310 663.000 C 913.134 634.667,931.129 610.150,957.585 602.680 C 969.800 599.232,990.158 600.748,1000.764 605.897 M233.255 634.221 C 210.363 639.596,183.770 660.747,172.878 682.241 C 162.575 702.574,162.061 709.013,162.030 818.402 C 162.010 884.818,162.763 923.460,164.210 930.402 C 169.683 956.647,189.328 983.515,211.107 994.544 C 232.112 1005.181,238.377 1006.000,298.752 1006.000 L 354.779 1006.000 332.499 1028.582 C 320.245 1041.002,309.270 1053.661,308.109 1056.712 C 298.933 1080.848,321.358 1105.666,345.693 1098.308 C 351.322 1096.606,367.012 1082.064,414.000 1035.000 L 475.000 973.901 415.000 914.167 C 350.613 850.065,347.566 847.760,331.252 850.821 C 317.551 853.391,306.000 867.670,306.000 882.035 C 306.000 891.996,311.285 899.730,333.651 922.500 L 354.770 944.000 303.016 944.000 C 254.759 944.000,250.685 943.720,242.707 939.858 C 238.001 937.580,232.317 932.749,230.075 929.122 C 226.112 922.710,226.000 919.675,226.000 819.165 C 226.000 705.359,225.640 708.809,238.470 699.658 L 245.000 695.000 506.156 694.000 L 767.313 693.000 774.478 687.534 C 788.637 676.734,791.475 656.813,780.682 643.987 C 769.875 631.144,789.616 631.980,502.599 632.201 C 353.394 632.315,237.672 633.183,233.255 634.221 M636.000 852.972 C 601.050 860.850,566.533 887.422,551.529 918.000 C 514.803 992.848,556.064 1079.058,637.258 1097.122 C 648.450 1099.612,657.437 1100.240,670.117 1099.418 C 762.911 1093.406,816.990 991.785,769.951 911.816 C 755.131 886.619,728.768 865.515,700.274 856.038 C 683.445 850.441,653.556 849.015,636.000 852.972 M688.540 918.448 C 700.711 923.652,716.504 940.713,720.788 953.285 C 724.898 965.347,724.898 984.653,720.788 996.715 C 716.376 1009.663,700.758 1026.293,687.540 1032.117 C 672.607 1038.697,650.878 1038.612,637.000 1031.919 C 624.243 1025.766,610.872 1012.416,605.424 1000.393 C 599.983 988.384,599.551 962.876,604.593 951.324 C 618.696 919.009,655.834 904.465,688.540 918.448 " fill="#1D1E23" stroke="none" fill-rule="evenodd"></path></svg>