<svg width="1200" height="1200" viewBox="0 0 1200 1200" fill="none" xmlns="http://www.w3.org/2000/svg"><path d="M550.000 126.104 L 550.000 203.194 525.365 207.697 C 403.663 229.940,296.315 311.813,241.003 424.576 C 186.673 535.337,186.306 662.238,239.994 773.574 C 259.479 813.980,279.848 843.193,311.892 876.689 C 368.850 936.228,440.571 975.464,522.716 992.025 C 533.560 994.211,544.135 996.000,546.216 996.000 C 549.827 996.000,550.000 993.715,550.000 946.038 L 550.000 896.076 544.500 894.829 C 480.333 880.282,434.719 856.285,391.657 814.422 C 346.853 770.865,319.010 720.158,305.765 658.000 C 302.050 640.566,301.291 630.717,301.291 600.000 C 301.291 569.283,302.050 559.434,305.765 542.000 C 319.036 479.717,347.157 428.592,391.941 385.325 C 432.767 345.882,484.211 318.110,536.500 307.283 L 550.000 304.488 550.000 402.451 L 550.000 500.413 644.500 407.902 C 696.475 357.021,747.774 306.749,758.497 296.186 L 777.994 276.981 663.997 162.997 L 550.000 49.013 550.000 126.104 M879.665 391.440 L 844.330 427.000 851.293 437.000 C 860.245 449.856,878.556 487.251,884.100 504.000 C 886.467 511.150,889.957 524.200,891.856 533.000 L 895.308 549.000 945.846 549.535 L 996.385 550.069 995.029 539.535 C 987.824 483.556,953.691 403.002,919.565 361.440 L 915.000 355.880 879.665 391.440 M895.055 652.500 C 894.605 653.875,893.181 660.400,891.892 667.000 C 886.501 694.592,869.894 734.687,852.735 761.539 C 849.031 767.335,846.000 772.745,846.000 773.560 C 846.000 774.376,861.615 790.638,880.699 809.699 L 915.398 844.356 923.121 833.835 C 953.605 792.307,976.309 743.142,988.618 692.000 C 991.398 680.450,994.281 666.275,995.024 660.500 L 996.375 650.000 946.125 650.000 C 907.695 650.000,895.682 650.588,895.055 652.500 M763.096 850.091 C 742.402 865.748,692.236 886.909,663.076 892.282 L 650.000 894.691 650.000 945.346 C 650.000 973.588,650.787 996.000,651.779 996.000 C 656.562 996.000,689.075 989.246,705.474 984.846 C 752.157 972.320,792.385 952.623,842.913 917.552 C 844.727 916.293,774.897 843.899,772.021 844.056 C 771.459 844.086,767.443 846.802,763.096 850.091 " fill="#1D1E23" stroke="none" fill-rule="evenodd"></path></svg>