<svg width="1200" height="1200" viewBox="0 0 1200 1200" fill="none" xmlns="http://www.w3.org/2000/svg"><path d="M535.497 163.502 L 421.995 277.018 535.997 388.612 L 650.000 500.206 650.000 402.347 L 650.000 304.488 663.500 307.283 C 715.789 318.110,767.233 345.882,808.059 385.325 C 852.861 428.610,881.043 479.861,894.210 542.000 C 897.892 559.379,898.660 569.379,898.660 600.000 C 898.660 630.621,897.892 640.621,894.210 658.000 C 881.070 720.014,853.165 770.847,808.343 814.422 C 765.281 856.285,719.667 880.282,655.500 894.829 L 650.000 896.076 650.000 946.038 C 650.000 993.715,650.173 996.000,653.784 996.000 C 659.531 996.000,695.324 988.537,710.000 984.278 C 820.106 952.329,910.474 876.172,960.024 773.574 C 1013.284 663.292,1013.260 536.658,959.958 426.291 C 905.166 312.838,797.167 230.092,674.659 207.701 L 650.046 203.203 649.523 126.594 L 649.000 49.985 535.497 163.502 M275.573 368.323 C 254.721 397.593,237.254 430.285,225.134 462.727 C 217.240 483.859,207.134 522.317,204.951 539.535 L 203.615 550.069 254.154 549.535 L 304.692 549.000 308.178 533.000 C 315.047 501.471,329.300 467.277,347.040 439.767 L 355.574 426.533 320.089 391.089 L 284.604 355.645 275.573 368.323 M204.971 660.465 C 211.993 715.020,241.119 785.492,276.585 833.739 L 284.479 844.478 319.240 809.761 C 338.358 790.666,354.000 774.376,354.000 773.560 C 354.000 772.745,350.713 766.940,346.696 760.660 C 330.124 734.754,314.654 697.170,308.144 667.000 L 304.692 651.000 254.154 650.465 L 203.615 649.931 204.971 660.465 M391.041 879.959 C 356.622 914.418,355.288 916.047,359.062 919.005 C 405.173 955.150,481.681 987.369,539.500 994.991 L 550.000 996.375 550.000 945.415 L 550.000 894.454 540.500 893.089 C 515.537 889.501,463.376 868.130,438.299 851.217 C 432.413 847.248,427.454 844.000,427.278 844.000 C 427.102 844.000,410.795 860.182,391.041 879.959 " fill="#1D1E23" stroke="none" fill-rule="evenodd"></path></svg>