<svg width="1200" height="1200" viewBox="0 0 1200 1200" fill="none" xmlns="http://www.w3.org/2000/svg"><path d="M586.143 122.220 C 582.371 123.364,575.621 126.847,571.143 129.960 C 559.012 138.392,453.115 245.891,448.950 254.000 C 446.915 257.962,444.978 267.076,444.486 275.000 C 443.101 297.300,445.903 301.048,512.394 365.863 C 543.961 396.634,573.353 423.629,577.711 425.852 C 597.651 436.025,618.669 432.167,635.042 415.328 C 648.990 400.982,650.000 396.337,650.000 346.512 L 650.000 304.488 663.500 307.283 C 715.789 318.110,767.233 345.882,808.059 385.325 C 852.866 428.614,881.065 479.900,894.203 542.000 C 900.645 572.451,900.659 627.944,894.232 658.000 C 881.032 719.725,855.514 766.743,811.126 811.121 C 775.754 846.485,742.701 867.217,695.097 883.899 C 673.917 891.320,666.546 895.574,660.355 903.947 C 639.451 932.222,652.465 973.628,685.254 983.160 C 698.483 987.006,705.779 985.999,733.000 976.570 C 784.369 958.777,835.592 927.377,875.810 889.029 C 954.824 813.686,999.905 708.909,999.984 600.421 C 1000.122 409.761,864.593 245.000,677.501 208.382 L 650.001 203.000 650.001 182.751 C 650.000 160.643,647.363 150.142,639.086 139.291 C 628.516 125.433,602.846 117.156,586.143 122.220 M275.849 387.098 C 261.591 391.491,252.841 401.667,239.697 429.146 C 227.508 454.626,214.000 492.078,214.000 500.390 C 214.000 511.815,220.134 525.818,229.039 534.723 C 248.495 554.179,278.666 554.850,298.679 536.272 C 305.783 529.677,308.595 524.300,316.180 502.811 C 319.505 493.389,326.675 475.987,332.113 464.140 C 339.713 447.581,341.995 440.331,341.980 432.799 C 341.940 412.286,327.240 392.940,307.137 386.943 C 295.146 383.365,287.847 383.401,275.849 387.098 M250.288 652.174 C 232.451 657.623,219.465 672.009,215.555 690.652 C 213.247 701.655,213.432 702.752,221.769 727.496 C 230.548 753.553,246.929 789.556,254.226 798.833 C 261.253 807.767,274.920 814.374,288.652 815.476 C 311.014 817.271,330.855 804.607,338.969 783.359 C 344.596 768.624,342.535 756.666,329.581 728.909 C 323.444 715.759,316.327 698.403,313.766 690.340 C 308.428 673.535,299.590 661.913,287.430 655.709 C 278.031 650.914,260.022 649.200,250.288 652.174 M412.889 862.747 C 381.336 877.440,373.598 920.063,398.248 943.389 C 411.692 956.111,483.080 986.000,500.021 986.000 C 511.063 986.000,521.837 981.648,531.202 973.404 C 547.725 958.861,553.473 939.489,547.026 920.079 C 540.883 901.583,530.503 892.902,503.857 883.976 C 496.786 881.607,480.595 874.793,467.877 868.834 C 440.593 856.050,429.830 854.858,412.889 862.747 " fill="#1D1E23" stroke="none" fill-rule="evenodd"></path></svg>