<svg width="1200" height="1200" viewBox="0 0 1200 1200" fill="none" xmlns="http://www.w3.org/2000/svg"><path d="M590.000 121.799 C 573.514 125.299,558.281 138.408,553.129 153.531 C 551.101 159.480,550.000 169.838,550.000 182.953 L 550.000 203.194 525.365 207.697 C 494.366 213.362,453.654 226.895,424.448 241.242 C 287.242 308.641,200.000 448.088,200.000 600.000 C 200.000 770.985,310.599 924.531,473.000 979.009 C 491.087 985.076,496.884 986.200,505.594 985.329 C 550.171 980.871,566.069 921.611,529.857 894.895 C 526.513 892.428,514.282 887.129,502.676 883.120 C 400.940 847.977,328.630 765.308,305.765 658.000 C 302.050 640.566,301.291 630.717,301.291 600.000 C 301.291 569.283,302.050 559.434,305.765 542.000 C 319.036 479.717,347.157 428.592,391.941 385.325 C 432.767 345.882,484.211 318.110,536.500 307.283 L 550.000 304.488 550.000 346.512 C 550.000 373.194,550.868 391.433,552.378 396.472 C 555.554 407.074,569.944 422.724,580.485 427.041 C 592.099 431.797,608.822 431.623,620.000 426.629 C 632.153 421.199,746.948 308.697,752.272 297.000 C 754.274 292.600,755.932 284.388,755.956 278.751 C 756.047 257.559,754.908 256.045,689.440 190.364 C 656.198 157.014,625.829 128.074,621.953 126.054 C 613.456 121.625,599.545 119.772,590.000 121.799 M891.255 386.814 C 871.868 394.031,858.000 413.581,858.000 433.692 C 858.000 442.741,859.879 448.729,868.712 467.833 C 874.604 480.575,881.919 498.650,884.968 508.000 C 889.688 522.473,892.035 526.493,900.756 535.042 C 915.802 549.791,932.685 553.612,952.689 546.796 C 970.741 540.646,986.000 519.334,986.000 500.271 C 986.000 486.425,954.887 410.925,944.411 399.349 C 932.959 386.695,907.622 380.720,891.255 386.814 M920.093 652.343 C 911.177 654.902,899.556 663.296,894.320 670.960 C 892.051 674.282,886.936 686.374,882.953 697.831 C 878.970 709.288,872.097 725.851,867.680 734.637 C 854.309 761.231,855.106 781.605,870.190 798.741 C 880.943 810.957,895.123 816.779,911.018 815.503 C 934.198 813.642,944.127 804.653,960.173 771.000 C 976.820 736.089,986.774 705.683,985.235 694.451 C 981.013 663.646,950.172 643.710,920.093 652.343 M755.000 857.887 C 751.700 858.699,741.742 863.033,732.872 867.517 C 724.002 872.001,708.336 878.607,698.059 882.195 C 673.777 890.674,662.535 898.323,656.236 910.651 C 639.072 944.239,662.148 984.329,698.611 984.269 C 715.847 984.240,775.012 961.470,796.626 946.546 C 813.929 934.600,820.762 908.810,812.013 888.473 C 806.134 874.807,793.344 863.148,779.827 859.134 C 768.516 855.775,764.414 855.569,755.000 857.887 " fill="#1D1E23" stroke="none" fill-rule="evenodd"></path></svg>