<svg width="1200" height="1200" viewBox="0 0 1200 1200" fill="none" xmlns="http://www.w3.org/2000/svg"><path d="M200.000 292.398 L 200.000 363.375 229.500 364.664 C 450.729 374.331,651.239 499.568,758.757 695.234 C 804.516 778.509,831.126 874.158,835.336 970.500 L 836.625 1000.000 907.625 1000.000 L 978.625 1000.000 977.321 968.500 C 965.467 682.366,798.521 426.988,541.000 301.063 C 442.540 252.917,344.098 228.186,229.500 222.806 L 200.000 221.421 200.000 292.398 M200.000 576.000 C 200.000 614.500,200.319 646.000,200.710 646.000 C 211.858 646.000,256.945 651.108,270.605 653.919 C 315.567 663.170,367.078 685.391,404.000 711.463 C 428.287 728.613,470.991 771.348,488.477 796.000 C 521.890 843.108,546.982 910.234,550.964 963.169 C 551.619 971.876,552.635 983.725,553.221 989.500 L 554.288 1000.000 624.923 1000.000 L 695.557 1000.000 694.697 982.500 C 693.277 953.581,689.980 926.390,684.746 900.431 C 642.910 692.915,469.461 533.658,258.399 508.968 C 244.443 507.336,225.594 506.000,216.512 506.000 L 200.000 506.000 200.000 576.000 M284.551 785.023 C 246.166 793.364,212.289 827.119,203.075 866.206 C 184.746 943.962,256.038 1015.254,333.794 996.925 C 362.914 990.061,390.992 968.394,404.787 942.141 C 448.153 859.616,375.884 765.178,284.551 785.023 " fill="#1D1E23" stroke="none" fill-rule="evenodd"></path></svg>