<svg width="1200" height="1200" viewBox="0 0 1200 1200" fill="none" xmlns="http://www.w3.org/2000/svg"><path d="M248.600 229.583 C 210.638 243.214,191.568 281.614,204.074 319.239 C 207.846 330.585,210.785 335.136,220.824 345.175 C 236.062 360.412,246.242 364.424,281.000 368.890 C 352.878 378.125,416.108 397.409,481.956 430.177 C 545.911 462.003,592.244 494.783,642.719 543.913 C 749.512 647.859,814.429 779.648,831.913 928.000 C 835.777 960.786,848.830 981.238,873.681 993.441 C 883.512 998.269,887.366 999.000,903.000 999.000 C 918.840 999.000,922.427 998.300,932.891 993.162 C 956.717 981.463,971.696 959.708,973.525 934.146 C 974.652 918.401,968.481 873.227,959.708 833.000 C 916.672 635.661,796.120 461.052,625.791 349.348 C 533.143 288.588,433.446 250.087,322.000 232.029 C 283.534 225.796,261.219 225.052,248.600 229.583 M256.263 512.098 C 207.283 522.047,183.807 581.517,213.192 621.208 C 222.041 633.161,234.428 642.917,245.889 646.961 C 250.612 648.627,264.873 652.322,277.581 655.172 C 365.556 674.904,442.224 727.266,492.300 801.819 C 517.852 839.861,535.431 880.174,544.820 922.262 C 547.674 935.056,551.373 949.388,553.039 954.111 C 559.331 971.943,577.763 989.766,596.672 996.300 C 625.662 1006.319,660.173 994.220,677.769 967.871 C 692.542 945.748,693.063 930.599,680.743 881.468 C 658.489 792.720,614.411 714.499,550.689 650.675 C 484.240 584.119,398.238 536.854,308.000 517.298 C 279.117 511.039,267.316 509.852,256.263 512.098 M284.551 785.023 C 246.166 793.364,212.289 827.119,203.075 866.206 C 184.746 943.962,256.038 1015.254,333.794 996.925 C 362.914 990.061,390.992 968.394,404.787 942.141 C 448.153 859.616,375.884 765.178,284.551 785.023 " fill="#1D1E23" stroke="none" fill-rule="evenodd"></path></svg>