<svg width="1200" height="1200" viewBox="0 0 1200 1200" fill="none" xmlns="http://www.w3.org/2000/svg"><path d="M250.000 405.028 L 250.000 710.057 312.500 709.528 L 375.000 709.000 375.517 597.500 L 376.034 486.000 425.665 486.000 L 475.296 486.000 553.824 639.318 C 619.147 766.855,632.030 793.340,630.434 796.818 C 629.379 799.118,594.200 867.953,552.258 949.784 C 510.316 1031.615,476.000 1098.890,476.000 1099.284 C 476.000 1099.678,506.043 1100.000,542.763 1100.000 L 609.526 1100.000 668.221 989.058 C 700.503 928.040,727.494 878.765,728.200 879.558 C 728.906 880.351,755.475 930.257,787.242 990.460 L 845.000 1099.921 911.500 1099.960 C 948.075 1099.982,978.000 1099.389,978.000 1098.643 C 978.000 1097.896,943.200 1029.312,900.667 946.233 C 858.133 863.154,823.333 794.199,823.333 793.000 C 823.333 791.801,858.133 722.846,900.667 639.767 C 943.200 556.688,978.000 488.104,978.000 487.357 C 978.000 486.611,948.075 486.018,911.500 486.040 L 845.000 486.079 787.242 595.540 C 755.475 655.743,728.885 705.670,728.153 706.489 C 727.023 707.753,594.000 458.931,594.000 455.553 C 594.000 454.901,600.075 451.039,607.500 446.972 C 634.632 432.110,657.189 412.678,671.314 392.000 C 698.087 352.806,708.058 293.247,696.853 239.438 C 682.778 171.844,631.652 124.794,554.000 107.975 C 522.552 101.163,495.956 100.000,371.653 100.000 L 250.000 100.000 250.000 405.028 M507.000 205.022 C 546.563 213.365,568.583 237.147,574.322 277.731 C 580.232 319.520,563.112 357.480,531.435 372.824 C 510.422 383.002,501.951 384.000,436.580 384.000 L 376.000 384.000 376.000 293.000 L 376.000 202.000 434.500 202.035 C 478.313 202.061,496.515 202.811,507.000 205.022 " fill="#1D1E23" stroke="none" fill-rule="evenodd"></path></svg>