<svg width="1200" height="1200" viewBox="0 0 1200 1200" fill="none" xmlns="http://www.w3.org/2000/svg"><path d="M554.273 102.069 C 398.160 117.159,260.373 202.186,175.186 336.000 C 159.234 361.058,136.757 409.284,126.142 441.230 C 91.501 545.477,91.501 654.523,126.142 758.770 C 150.487 832.034,190.954 897.156,246.899 953.101 C 324.364 1030.567,419.809 1078.547,530.000 1095.418 C 561.811 1100.288,637.929 1100.275,668.732 1095.393 C 700.806 1090.310,731.637 1082.978,757.798 1074.213 C 929.348 1016.733,1056.410 871.947,1090.730 694.842 C 1144.765 415.999,954.991 148.178,673.350 105.808 C 642.882 101.224,582.596 99.331,554.273 102.069 M637.000 202.067 C 728.175 210.617,811.670 249.020,877.725 312.786 C 1002.244 432.989,1035.081 619.965,958.972 775.424 C 898.174 899.610,779.813 982.445,641.000 997.956 C 542.578 1008.954,436.771 978.739,355.000 916.285 C 337.015 902.549,303.337 869.207,288.046 850.000 C 268.510 825.461,255.353 804.553,240.851 775.000 C 173.046 636.832,191.464 471.084,288.076 350.000 C 303.498 330.672,334.753 299.697,354.000 284.667 C 433.438 222.636,536.275 192.620,637.000 202.067 M407.492 402.044 C 386.089 407.451,367.129 423.274,357.217 444.000 C 351.684 455.569,351.000 458.982,351.000 475.000 C 351.000 490.528,351.775 494.677,356.643 505.209 C 363.780 520.653,379.250 536.057,395.000 543.403 C 405.347 548.229,409.480 549.000,425.000 549.000 C 440.528 549.000,444.677 548.225,455.209 543.357 C 470.653 536.220,486.057 520.750,493.403 505.000 C 498.229 494.653,499.000 490.520,499.000 475.000 C 499.000 459.472,498.225 455.323,493.357 444.791 C 486.256 429.425,470.701 413.881,455.480 406.941 C 442.615 401.075,420.330 398.801,407.492 402.044 M757.492 402.044 C 736.089 407.451,717.129 423.274,707.217 444.000 C 701.684 455.569,701.000 458.982,701.000 475.000 C 701.000 490.528,701.775 494.677,706.643 505.209 C 713.780 520.653,729.250 536.057,745.000 543.403 C 755.347 548.229,759.480 549.000,775.000 549.000 C 790.528 549.000,794.677 548.225,805.209 543.357 C 820.653 536.220,836.057 520.750,843.403 505.000 C 848.229 494.653,849.000 490.520,849.000 475.000 C 849.000 459.472,848.225 455.323,843.357 444.791 C 836.256 429.425,820.701 413.881,805.480 406.941 C 792.615 401.075,770.330 398.801,757.492 402.044 M345.925 704.803 C 358.879 738.875,390.089 782.051,420.388 807.815 C 546.898 915.392,735.515 890.060,827.948 753.077 C 836.833 739.909,849.923 715.724,854.075 704.803 L 855.901 700.000 814.234 700.000 L 772.566 700.000 764.969 711.500 C 755.004 726.583,730.145 752.173,714.703 763.245 C 697.914 775.282,668.675 788.678,647.000 794.264 C 621.213 800.909,578.787 800.909,553.000 794.264 C 531.325 788.678,502.086 775.282,485.297 763.245 C 469.855 752.173,444.996 726.583,435.031 711.500 L 427.434 700.000 385.766 700.000 L 344.099 700.000 345.925 704.803 " fill="#1D1E23" stroke="none" fill-rule="evenodd"></path></svg>