<svg width="1200" height="1200" viewBox="0 0 1200 1200" fill="none" xmlns="http://www.w3.org/2000/svg"><path d="M554.273 102.069 C 398.160 117.159,260.373 202.186,175.186 336.000 C 159.234 361.058,136.757 409.284,126.142 441.230 C 91.501 545.477,91.501 654.523,126.142 758.770 C 150.487 832.034,190.954 897.156,246.899 953.101 C 324.364 1030.567,419.809 1078.547,530.000 1095.418 C 561.811 1100.288,637.929 1100.275,668.732 1095.393 C 700.806 1090.310,731.637 1082.978,757.798 1074.213 C 929.348 1016.733,1056.410 871.947,1090.730 694.842 C 1144.765 415.999,954.991 148.178,673.350 105.808 C 642.882 101.224,582.596 99.331,554.273 102.069 M637.000 202.067 C 728.175 210.617,811.670 249.020,877.725 312.786 C 1002.244 432.989,1035.081 619.965,958.972 775.424 C 898.174 899.610,779.813 982.445,641.000 997.956 C 542.578 1008.954,436.771 978.739,355.000 916.285 C 337.015 902.549,303.337 869.207,288.046 850.000 C 268.510 825.461,255.353 804.553,240.851 775.000 C 173.046 636.832,191.464 471.084,288.076 350.000 C 303.498 330.672,334.753 299.697,354.000 284.667 C 433.438 222.636,536.275 192.620,637.000 202.067 M407.492 402.044 C 386.089 407.451,367.129 423.274,357.217 444.000 C 351.684 455.569,351.000 458.982,351.000 475.000 C 351.000 490.528,351.775 494.677,356.643 505.209 C 363.780 520.653,379.250 536.057,395.000 543.403 C 405.347 548.229,409.480 549.000,425.000 549.000 C 440.528 549.000,444.677 548.225,455.209 543.357 C 470.653 536.220,486.057 520.750,493.403 505.000 C 498.229 494.653,499.000 490.520,499.000 475.000 C 499.000 459.472,498.225 455.323,493.357 444.791 C 486.256 429.425,470.701 413.881,455.480 406.941 C 442.615 401.075,420.330 398.801,407.492 402.044 M757.492 402.044 C 736.089 407.451,717.129 423.274,707.217 444.000 C 701.684 455.569,701.000 458.982,701.000 475.000 C 701.000 490.528,701.775 494.677,706.643 505.209 C 713.780 520.653,729.250 536.057,745.000 543.403 C 755.347 548.229,759.480 549.000,775.000 549.000 C 790.528 549.000,794.677 548.225,805.209 543.357 C 820.653 536.220,836.057 520.750,843.403 505.000 C 848.229 494.653,849.000 490.520,849.000 475.000 C 849.000 459.472,848.225 455.323,843.357 444.791 C 836.256 429.425,820.701 413.881,805.480 406.941 C 792.615 401.075,770.330 398.801,757.492 402.044 M384.040 692.500 C 363.716 702.883,356.878 722.608,366.716 742.466 C 373.796 756.756,389.297 776.929,406.706 794.509 C 445.664 833.848,498.950 861.507,554.553 871.252 C 578.852 875.510,621.307 875.441,646.000 871.103 C 719.392 858.208,784.776 815.873,827.338 753.688 C 840.947 733.804,841.298 716.980,828.422 701.677 C 821.613 693.586,812.689 690.000,799.360 690.000 C 785.179 690.000,778.344 694.728,763.126 715.061 C 719.565 773.268,659.078 802.875,591.000 799.316 C 528.267 796.037,475.943 767.602,438.568 716.481 C 425.295 698.327,420.381 693.794,410.202 690.320 C 400.250 686.924,393.922 687.451,384.040 692.500 " fill="#1D1E23" stroke="none" fill-rule="evenodd"></path></svg>