<svg width="1200" height="1200" viewBox="0 0 1200 1200" fill="none" xmlns="http://www.w3.org/2000/svg"><path d="M550.000 391.488 L 550.000 632.977 486.488 569.488 C 451.557 534.570,422.072 506.000,420.967 506.000 C 419.862 506.000,403.445 521.531,384.486 540.513 L 350.015 575.027 475.007 700.007 L 600.000 824.988 724.993 700.007 L 849.986 575.026 814.509 539.508 L 779.032 503.991 714.516 568.484 L 650.000 632.977 650.000 391.488 L 650.000 150.000 600.000 150.000 L 550.000 150.000 550.000 391.488 M150.000 825.000 L 150.000 1050.000 600.000 1050.000 L 1050.000 1050.000 1050.000 825.000 L 1050.000 600.000 1000.000 600.000 L 950.000 600.000 950.000 775.000 L 950.000 950.000 600.000 950.000 L 250.000 950.000 250.000 775.000 L 250.000 600.000 200.000 600.000 L 150.000 600.000 150.000 825.000 " fill="#1D1E23" stroke="none" fill-rule="evenodd"></path></svg>