<svg width="1200" height="1200" viewBox="0 0 1200 1200" fill="none" xmlns="http://www.w3.org/2000/svg"><path d="M582.171 153.434 C 577.315 155.149,569.581 160.314,564.983 164.911 C 549.059 180.836,550.000 165.265,550.000 412.734 L 550.000 632.756 500.295 583.412 C 445.467 528.983,441.478 526.117,420.436 526.044 C 405.803 525.993,397.599 528.962,387.237 538.060 C 372.211 551.253,366.791 571.108,372.994 590.238 C 376.266 600.330,382.418 606.959,471.742 696.644 C 524.396 749.512,571.025 794.684,576.000 797.644 C 583.615 802.176,587.308 803.000,600.000 803.000 C 612.700 803.000,616.380 802.178,624.000 797.636 C 636.598 790.128,818.519 607.198,823.529 597.000 C 835.634 572.361,826.940 544.749,802.921 531.547 C 794.990 527.187,790.392 526.093,780.000 526.091 C 758.218 526.086,754.515 528.730,699.500 583.560 L 650.000 632.894 650.000 412.803 C 650.000 165.317,650.936 180.830,635.053 164.947 C 621.176 151.071,601.185 146.718,582.171 153.434 M182.171 603.434 C 177.315 605.149,169.581 610.314,164.983 614.911 C 149.361 630.534,150.000 622.582,150.000 801.258 C 150.000 909.278,150.704 963.181,152.210 970.402 C 160.026 1007.883,192.117 1039.974,229.598 1047.790 C 244.585 1050.915,955.415 1050.915,970.402 1047.790 C 1007.883 1039.974,1039.974 1007.883,1047.790 970.402 C 1049.296 963.181,1050.000 909.278,1050.000 801.258 C 1050.000 622.632,1050.633 630.528,1035.053 614.947 C 1015.489 595.384,984.511 595.384,964.947 614.947 C 949.579 630.316,950.000 625.838,950.000 773.993 C 950.000 923.021,950.295 919.811,935.233 934.873 C 918.905 951.200,945.501 950.000,600.000 950.000 C 254.861 950.000,281.064 951.169,264.947 935.053 C 249.570 919.675,250.000 924.280,250.000 775.000 C 250.000 625.720,250.430 630.325,235.053 614.947 C 221.176 601.071,201.185 596.718,182.171 603.434 " fill="#1D1E23" stroke="none" fill-rule="evenodd"></path></svg>