<svg width="1200" height="1200" viewBox="0 0 1200 1200" fill="none" xmlns="http://www.w3.org/2000/svg"><path d="M229.020 152.350 C 192.964 159.226,159.965 192.414,152.210 229.598 C 149.085 244.585,149.085 955.415,152.210 970.402 C 160.026 1007.883,192.117 1039.974,229.598 1047.790 C 244.585 1050.915,955.415 1050.915,970.402 1047.790 C 1007.883 1039.974,1039.974 1007.883,1047.790 970.402 C 1049.347 962.932,1050.000 869.634,1050.000 654.394 L 1050.000 348.985 950.493 249.492 L 850.985 150.000 544.993 150.224 C 360.726 150.358,235.030 151.204,229.020 152.350 M750.000 350.000 L 750.000 450.000 500.000 450.000 L 250.000 450.000 250.000 350.000 L 250.000 250.000 500.000 250.000 L 750.000 250.000 750.000 350.000 M637.000 654.646 C 683.081 667.404,720.024 699.613,738.338 743.000 C 746.534 762.415,748.958 775.425,748.958 800.000 C 748.958 813.008,747.751 827.779,746.181 834.000 C 734.365 880.805,700.273 920.931,657.549 938.317 C 590.197 965.727,513.500 942.059,475.050 882.000 C 457.386 854.410,451.042 832.742,451.042 800.000 C 451.042 767.245,457.396 745.554,475.062 718.000 C 494.976 686.939,531.666 661.245,566.089 654.255 C 572.090 653.036,578.800 651.623,581.000 651.113 C 588.348 649.411,626.873 651.842,637.000 654.646 " fill="#1D1E23" stroke="none" fill-rule="evenodd"></path></svg>