<svg width="1200" height="1200" viewBox="0 0 1200 1200" fill="none" xmlns="http://www.w3.org/2000/svg"><path d="M300.000 400.000 L 300.000 600.000 200.000 600.000 L 100.000 600.000 100.000 800.000 L 100.000 1000.000 600.000 1000.000 L 1100.000 1000.000 1100.000 800.000 L 1100.000 600.000 1000.000 600.000 L 900.000 600.000 900.000 400.000 L 900.000 200.000 600.000 200.000 L 300.000 200.000 300.000 400.000 M800.000 450.000 L 800.000 600.000 600.000 600.000 L 400.000 600.000 400.000 450.000 L 400.000 300.000 600.000 300.000 L 800.000 300.000 800.000 450.000 M923.250 756.220 C 942.867 766.315,953.124 788.886,948.165 811.046 C 939.683 848.946,892.489 862.594,864.993 835.098 C 845.365 815.471,845.361 784.533,864.983 764.911 C 880.378 749.516,903.517 746.065,923.250 756.220 " fill="#1D1E23" stroke="none" fill-rule="evenodd"></path></svg>