<svg width="1200" height="1200" viewBox="0 0 1200 1200" fill="none" xmlns="http://www.w3.org/2000/svg"><path d="M100.000 475.000 L 100.000 850.000 163.000 850.000 L 226.000 850.000 226.000 475.000 L 226.000 100.000 163.000 100.000 L 100.000 100.000 100.000 475.000 M288.000 366.000 L 288.000 632.000 335.000 632.000 L 382.000 632.000 382.000 366.000 L 382.000 100.000 335.000 100.000 L 288.000 100.000 288.000 366.000 M444.000 366.000 L 444.000 632.000 475.000 632.000 L 506.000 632.000 506.000 366.000 L 506.000 100.000 475.000 100.000 L 444.000 100.000 444.000 366.000 M570.000 366.000 L 570.000 632.000 601.000 632.000 L 632.000 632.000 632.000 366.000 L 632.000 100.000 601.000 100.000 L 570.000 100.000 570.000 366.000 M694.000 366.000 L 694.000 632.000 741.000 632.000 L 788.000 632.000 788.000 366.000 L 788.000 100.000 741.000 100.000 L 694.000 100.000 694.000 366.000 M850.000 366.000 L 850.000 632.000 881.000 632.000 L 912.000 632.000 912.000 366.000 L 912.000 100.000 881.000 100.000 L 850.000 100.000 850.000 366.000 M976.000 475.000 L 976.000 850.000 1038.000 850.000 L 1100.000 850.000 1100.000 475.000 L 1100.000 100.000 1038.000 100.000 L 976.000 100.000 976.000 475.000 M393.530 758.168 C 379.241 760.262,358.424 768.426,344.009 777.591 C 318.695 793.684,297.044 824.651,290.928 853.510 C 286.808 872.951,286.848 985.865,290.981 1003.392 C 302.062 1050.383,340.110 1086.838,388.507 1096.835 C 401.169 1099.450,419.395 1099.994,493.416 1099.965 C 594.642 1099.926,599.781 1099.388,627.921 1085.894 C 657.916 1071.511,683.626 1040.898,693.352 1007.985 C 696.001 999.022,696.759 983.658,697.471 924.500 L 698.343 852.000 669.171 852.000 L 640.000 852.000 640.000 913.727 C 640.000 977.232,638.796 990.961,631.995 1005.010 C 626.728 1015.891,613.279 1029.211,601.000 1035.708 L 591.000 1041.000 495.770 1041.573 C 401.972 1042.137,400.364 1042.080,388.832 1037.765 C 374.800 1032.515,359.236 1017.855,351.923 1003.000 C 347.003 993.006,347.000 992.960,347.000 928.958 L 347.000 864.916 353.584 851.542 C 360.760 836.966,370.812 826.999,385.728 819.671 C 393.941 815.636,398.924 814.995,429.358 814.058 L 463.715 813.000 491.858 785.291 C 507.336 770.052,520.000 757.227,520.000 756.791 C 520.000 755.257,404.847 756.510,393.530 758.168 M613.000 757.368 C 598.595 759.506,581.992 764.860,569.000 771.557 C 550.422 781.133,525.511 805.997,516.444 824.015 C 503.868 849.004,503.486 851.953,502.529 931.500 L 501.657 1004.000 530.709 1004.000 L 559.761 1004.000 560.463 935.500 C 561.291 854.770,561.339 854.531,580.842 834.793 C 601.740 813.643,599.574 814.000,707.005 814.000 C 785.594 814.000,799.152 814.439,807.430 817.249 C 828.989 824.567,845.254 841.628,851.047 863.000 C 853.786 873.103,854.197 884.327,853.650 934.000 C 853.010 992.060,852.921 993.159,848.064 1003.000 C 841.737 1015.818,827.739 1029.825,815.000 1036.086 C 805.767 1040.623,802.381 1041.048,770.850 1041.625 L 736.699 1042.250 707.850 1071.234 L 679.000 1100.218 744.000 1099.527 C 808.659 1098.839,809.086 1098.806,825.429 1093.353 C 845.251 1086.739,868.412 1071.745,880.965 1057.401 C 893.027 1043.620,905.534 1019.184,909.072 1002.490 C 911.193 992.482,911.931 973.257,911.931 928.000 C 911.931 857.588,910.711 848.673,897.631 823.510 C 882.785 794.947,858.250 774.396,824.981 762.655 L 809.000 757.015 714.000 756.747 C 661.750 756.599,616.300 756.879,613.000 757.368 " fill="#1D1E23" stroke="none" fill-rule="evenodd"></path></svg>