<svg width="1200" height="1200" viewBox="0 0 1200 1200" fill="none" xmlns="http://www.w3.org/2000/svg"><path d="M456.665 103.681 C 444.026 108.075,433.633 115.780,425.844 126.533 C 413.690 143.311,414.000 137.968,414.000 330.363 L 414.000 506.000 430.000 506.000 L 446.000 506.000 446.000 366.000 L 446.000 226.000 696.005 226.000 L 946.010 226.000 945.505 600.500 L 945.000 975.000 695.500 975.508 L 446.000 976.016 446.000 960.008 L 446.000 944.000 429.882 944.000 L 413.765 944.000 414.382 998.500 C 414.957 1049.220,415.296 1053.641,419.275 1062.245 C 425.410 1075.514,436.642 1087.038,449.679 1093.440 L 461.000 1099.000 696.000 1099.000 L 931.000 1099.000 940.536 1094.263 C 953.855 1087.647,967.065 1073.556,972.467 1060.204 L 977.000 1049.000 977.000 600.000 L 977.000 151.000 972.512 139.915 C 967.042 126.407,955.346 113.834,941.418 106.492 L 931.000 101.000 699.000 100.544 C 480.254 100.114,466.410 100.293,456.665 103.681 M768.154 167.846 C 774.516 174.208,775.170 177.245,771.779 184.685 C 767.760 193.507,763.632 194.000,693.815 194.000 L 627.818 194.000 622.909 189.091 C 615.153 181.334,617.157 167.831,626.631 164.014 C 629.034 163.046,660.544 162.196,696.654 162.127 L 762.308 162.000 768.154 167.846 M495.143 291.143 C 493.414 292.871,492.007 294.896,492.015 295.643 C 492.083 301.881,520.345 429.006,522.146 431.176 C 524.044 433.463,533.525 434.000,571.990 434.000 C 617.238 434.000,620.215 433.763,634.807 429.000 L 650.124 424.000 747.919 424.000 C 837.370 424.000,846.005 423.709,849.121 420.593 C 856.367 413.347,848.259 367.304,835.532 343.426 C 828.582 330.385,815.639 314.790,810.381 313.121 C 807.121 312.086,512.069 288.001,502.643 288.000 C 500.246 288.000,496.871 289.414,495.143 291.143 M634.000 449.125 C 620.870 453.391,615.322 453.998,589.500 453.999 C 572.350 454.000,560.000 454.790,560.000 455.887 C 560.000 460.879,569.335 464.000,584.269 464.000 C 626.980 464.000,662.306 479.746,677.407 505.514 C 685.179 518.776,688.180 529.089,690.092 549.105 C 691.448 563.291,693.341 570.436,698.837 582.105 C 705.748 596.782,709.971 615.331,709.968 631.000 C 709.967 635.400,718.579 679.711,729.106 729.469 L 748.245 819.937 729.122 849.071 L 710.000 878.205 710.000 891.056 C 710.000 908.310,713.307 910.590,739.879 911.657 C 758.938 912.423,759.444 912.319,796.372 900.154 C 846.642 883.592,860.457 875.811,875.165 855.775 C 884.374 843.230,898.000 808.817,898.000 798.104 C 898.000 793.464,882.250 721.417,863.000 638.000 C 826.200 478.535,824.446 468.377,831.000 452.692 C 832.650 448.743,834.000 445.171,834.000 444.756 C 834.000 444.340,792.375 444.057,741.500 444.126 C 649.079 444.252,648.987 444.257,634.000 449.125 M635.031 495.327 C 646.607 512.995,650.680 525.635,653.037 551.199 C 654.323 565.149,654.590 565.693,668.236 582.143 C 678.154 594.097,683.271 602.335,686.126 610.943 L 690.126 623.000 689.039 613.000 C 688.442 607.500,684.761 596.270,680.859 588.045 C 674.999 575.692,673.453 569.602,671.970 553.045 C 670.982 542.020,668.736 528.830,666.978 523.733 C 662.988 512.163,651.969 499.086,641.865 493.931 C 631.761 488.776,630.859 488.961,635.031 495.327 M384.771 566.765 L 375.259 595.530 365.129 600.685 C 359.558 603.520,352.564 607.411,349.587 609.330 C 344.374 612.692,343.190 612.620,317.587 607.393 C 302.964 604.408,289.517 601.974,287.704 601.983 C 285.003 601.997,270.237 625.288,250.693 660.363 C 250.275 661.113,258.948 671.866,269.967 684.259 L 290.000 706.792 289.987 724.896 L 289.973 743.000 269.920 765.721 L 249.866 788.442 254.171 795.721 C 256.538 799.725,264.294 813.125,271.405 825.500 C 279.731 839.989,285.521 848.001,287.667 848.001 C 289.500 848.002,303.025 845.604,317.722 842.673 C 343.213 837.588,344.686 837.499,349.722 840.751 C 352.625 842.626,359.558 846.480,365.129 849.315 L 375.259 854.470 384.771 883.235 L 394.283 912.000 429.693 912.000 L 465.103 912.000 474.556 883.415 L 484.008 854.829 494.504 849.495 C 500.277 846.561,507.375 842.626,510.278 840.751 C 515.314 837.499,516.787 837.588,542.278 842.673 C 556.975 845.604,570.500 848.002,572.333 848.001 C 574.493 848.001,580.382 839.732,589.071 824.500 C 596.444 811.575,604.196 798.150,606.298 794.667 L 610.120 788.334 590.060 765.771 L 570.000 743.208 570.000 725.075 L 570.000 706.942 590.022 684.174 L 610.044 661.406 605.784 654.203 C 603.442 650.241,595.706 636.875,588.595 624.500 C 580.297 610.059,574.472 601.994,572.333 601.983 C 570.500 601.974,557.036 604.408,542.413 607.393 C 516.810 612.620,515.626 612.692,510.413 609.330 C 507.436 607.411,500.277 603.439,494.504 600.505 L 484.008 595.171 474.556 566.585 L 465.103 538.000 429.693 538.000 L 394.283 538.000 384.771 566.765 M444.890 657.048 C 463.951 660.138,483.705 675.855,493.437 695.673 C 498.270 705.513,499.000 709.363,499.000 725.000 C 499.000 740.634,498.269 744.488,493.441 754.319 C 478.416 784.916,444.485 801.245,413.000 793.032 C 362.706 779.912,343.601 719.628,376.871 679.027 C 388.408 664.947,416.924 652.834,433.000 655.185 C 435.200 655.506,440.550 656.345,444.890 657.048 M565.091 1010.909 C 571.050 1016.868,571.499 1025.704,566.179 1032.278 C 562.728 1036.542,560.489 1037.068,543.068 1037.697 C 531.164 1038.127,521.590 1037.487,518.061 1036.025 C 506.475 1031.226,505.206 1014.050,516.033 1008.572 C 518.999 1007.071,528.891 1006.047,540.591 1006.029 C 558.744 1006.002,560.542 1006.360,565.091 1010.909 M720.730 1010.145 C 727.175 1015.214,727.835 1025.290,722.180 1032.278 C 718.701 1036.577,716.548 1037.062,698.118 1037.689 C 676.018 1038.442,669.936 1036.438,665.629 1026.984 C 662.846 1020.876,666.424 1011.384,672.642 1008.377 C 675.039 1007.219,685.654 1006.210,696.230 1006.135 C 712.782 1006.019,716.195 1006.577,720.730 1010.145 M876.730 1010.145 C 880.795 1013.342,882.000 1016.053,882.000 1022.000 C 882.000 1027.947,880.795 1030.658,876.730 1033.855 C 872.212 1037.409,868.661 1038.000,851.842 1038.000 C 834.152 1038.000,831.688 1037.539,826.778 1033.317 C 822.888 1029.970,821.333 1026.740,821.333 1022.000 C 821.333 1017.260,822.888 1014.030,826.778 1010.683 C 831.688 1006.461,834.152 1006.000,851.842 1006.000 C 868.661 1006.000,872.212 1006.591,876.730 1010.145 " fill="#1D1E23" stroke="none" fill-rule="evenodd"></path></svg>