<svg width="1200" height="1200" viewBox="0 0 1200 1200" fill="none" xmlns="http://www.w3.org/2000/svg"><path d="M384.000 201.314 C 373.601 203.021,354.616 210.776,344.526 217.438 C 323.539 231.296,307.312 255.132,302.210 279.598 C 300.707 286.806,300.000 339.674,300.000 444.861 L 300.000 599.526 261.500 600.557 C 236.596 601.223,219.469 602.616,213.000 604.501 C 166.085 618.169,128.708 650.615,111.683 692.451 C 100.779 719.244,100.000 727.937,100.000 822.817 C 100.000 878.595,100.793 913.606,102.210 920.402 C 110.026 957.883,142.117 989.974,179.598 997.790 C 194.606 1000.919,1005.394 1000.919,1020.402 997.790 C 1057.883 989.974,1089.974 957.883,1097.790 920.402 C 1099.207 913.606,1100.000 878.595,1100.000 822.817 C 1100.000 727.937,1099.221 719.244,1088.317 692.451 C 1071.292 650.615,1033.915 618.169,987.000 604.501 C 980.531 602.616,963.404 601.223,938.500 600.557 L 900.000 599.526 900.000 444.861 C 900.000 339.674,899.293 286.806,897.790 279.598 C 890.894 246.531,867.041 219.355,833.000 205.784 L 821.000 201.000 605.000 200.747 C 486.200 200.607,386.750 200.862,384.000 201.314 M800.000 450.000 L 800.000 600.000 600.000 600.000 L 400.000 600.000 400.000 450.000 L 400.000 300.000 600.000 300.000 L 800.000 300.000 800.000 450.000 M923.250 756.220 C 942.867 766.315,953.124 788.886,948.165 811.046 C 939.683 848.946,892.489 862.594,864.993 835.098 C 845.365 815.471,845.361 784.533,864.983 764.911 C 880.378 749.516,903.517 746.065,923.250 756.220 " fill="#1D1E23" stroke="none" fill-rule="evenodd"></path></svg>