<svg width="1200" height="1200" viewBox="0 0 1200 1200" fill="none" xmlns="http://www.w3.org/2000/svg"><path d="M583.000 102.781 C 569.627 107.038,562.932 111.375,553.444 121.928 C 538.302 138.771,538.000 140.717,538.000 221.606 L 538.000 292.500 544.250 291.250 C 547.688 290.563,554.438 290.000,559.250 290.000 L 568.000 290.000 568.000 258.000 L 568.000 226.000 818.000 226.000 L 1068.000 226.000 1068.000 601.008 L 1068.000 976.016 818.500 975.508 L 569.000 975.000 568.490 784.236 L 567.980 593.472 558.068 602.743 C 552.616 607.843,545.870 613.056,543.078 614.329 L 538.000 616.642 538.000 832.965 C 538.000 1076.424,536.946 1059.722,553.469 1078.099 C 558.474 1083.666,567.166 1090.646,572.785 1093.611 L 583.000 1099.000 815.338 1099.533 L 1047.676 1100.065 1059.276 1095.725 C 1074.902 1089.879,1089.865 1074.938,1095.692 1059.363 L 1100.000 1047.850 1100.000 600.000 C 1100.000 154.599,1099.978 152.091,1095.933 141.281 C 1090.500 126.760,1078.447 113.496,1064.429 106.612 L 1053.000 101.000 822.000 100.617 C 639.593 100.314,589.317 100.770,583.000 102.781 M892.179 167.722 C 897.835 174.710,897.175 184.785,890.730 189.855 C 885.639 193.860,883.210 194.000,818.842 194.000 L 752.223 194.000 746.778 189.317 C 739.268 182.857,739.306 173.111,746.865 166.608 L 752.397 161.850 820.377 162.425 L 888.357 163.000 892.179 167.722 M397.427 364.970 C 215.674 379.166,211.715 379.564,205.070 384.292 C 184.769 398.736,167.496 432.182,160.929 469.762 C 156.766 493.586,157.072 505.072,162.000 510.000 C 165.912 513.912,168.667 514.000,286.674 514.000 L 407.349 514.000 427.174 519.977 L 447.000 525.954 505.190 525.977 C 559.490 525.998,563.606 525.750,566.762 522.263 C 568.971 519.822,576.014 491.591,587.072 440.847 C 596.382 398.123,604.000 362.005,604.000 360.584 C 604.000 355.578,596.174 349.994,589.500 350.237 C 585.925 350.368,499.492 356.997,397.427 364.970 M756.369 352.978 C 719.769 361.161,687.984 393.966,680.194 431.598 C 676.614 448.891,677.325 583.885,681.080 599.814 C 689.589 635.914,718.774 665.417,755.289 674.832 C 765.105 677.363,779.088 678.000,824.789 678.000 L 882.000 678.000 882.000 655.137 L 882.000 632.275 824.500 631.637 C 770.860 631.043,766.384 630.715,757.821 626.755 C 746.760 621.638,736.132 611.405,730.873 600.807 C 727.239 593.482,727.000 588.119,727.000 514.000 C 727.000 425.843,726.697 427.970,741.346 413.321 C 755.966 398.700,759.530 397.995,818.478 398.044 C 876.946 398.093,881.372 398.928,895.675 412.613 C 908.662 425.039,910.819 431.864,911.594 463.000 L 912.291 491.000 934.613 513.500 C 946.890 525.875,957.624 536.000,958.467 536.000 C 961.279 536.000,960.160 446.081,957.173 431.993 C 949.701 396.750,924.939 368.249,890.839 355.640 C 879.891 351.593,874.859 351.221,824.000 350.709 C 782.249 350.288,765.957 350.835,756.369 352.978 M756.000 546.000 L 756.000 570.000 814.080 570.000 C 869.153 570.000,872.595 570.218,880.580 574.216 C 891.466 579.666,901.243 588.952,906.675 599.000 C 910.900 606.815,911.000 608.822,911.000 686.000 C 911.000 763.657,910.925 765.140,906.584 773.256 C 899.645 786.228,885.935 797.032,871.430 800.958 C 860.998 803.782,851.382 804.227,812.972 803.662 C 761.191 802.901,756.067 801.710,741.633 787.070 C 728.894 774.151,727.078 768.299,726.354 737.824 L 725.709 710.647 701.854 686.855 L 678.000 663.063 678.000 710.433 C 678.000 737.030,678.962 762.451,680.194 768.402 C 688.040 806.305,718.826 838.114,756.186 846.920 C 774.617 851.265,864.182 851.278,881.080 846.939 C 919.540 837.063,948.979 806.680,957.067 768.515 C 961.135 749.318,961.165 622.824,957.106 603.674 C 952.636 582.585,944.996 568.681,929.159 552.815 C 913.817 537.446,897.339 528.159,878.402 524.210 C 872.129 522.902,844.986 522.000,811.902 522.000 L 756.000 522.000 756.000 546.000 M184.151 548.950 C 191.853 570.861,191.739 571.494,143.614 773.708 L 99.179 960.415 102.624 973.548 C 107.777 993.196,121.041 1021.912,129.932 1032.673 C 140.533 1045.500,154.688 1057.105,168.000 1063.881 C 174.050 1066.961,198.658 1075.961,222.685 1083.882 C 271.478 1099.968,290.057 1102.851,314.363 1098.109 C 332.357 1094.598,334.000 1092.583,334.000 1074.034 L 334.000 1058.688 310.897 1024.844 C 289.501 993.500,287.850 990.409,288.544 983.000 C 288.956 978.600,299.255 929.550,311.430 874.000 C 325.462 809.982,334.028 766.409,334.825 755.000 C 336.436 731.946,339.457 720.802,349.706 700.110 C 356.664 686.064,358.006 681.402,358.035 671.183 C 358.150 630.777,377.681 596.122,409.872 579.206 C 430.466 568.384,450.273 563.846,482.590 562.545 C 505.742 561.613,510.970 560.813,515.090 557.572 C 517.791 555.448,520.000 552.943,520.000 552.005 C 520.000 551.067,502.225 549.971,480.500 549.568 C 443.958 548.890,439.802 548.432,425.000 543.443 L 409.000 538.051 294.651 538.026 L 180.303 538.000 184.151 548.950 M420.400 596.682 C 395.326 609.806,383.317 632.591,380.812 671.797 C 379.720 688.871,378.613 693.113,370.824 710.058 C 362.665 727.808,357.843 744.776,358.115 754.773 C 358.179 757.098,359.760 753.150,361.629 746.000 C 365.983 729.342,372.444 718.463,388.856 700.161 C 396.122 692.057,402.435 683.531,402.883 681.213 C 403.331 678.896,404.670 668.250,405.857 657.555 C 408.327 635.305,413.323 620.380,423.230 605.658 C 432.565 591.787,432.455 591.988,430.618 592.090 C 429.728 592.140,425.130 594.206,420.400 596.682 M684.771 1008.259 C 691.847 1011.484,695.161 1020.368,692.071 1027.828 C 688.557 1036.312,681.204 1038.501,658.932 1037.697 C 641.511 1037.068,639.272 1036.542,635.821 1032.278 C 630.501 1025.704,630.950 1016.868,636.909 1010.909 C 641.432 1006.386,643.312 1006.000,660.815 1006.000 C 671.263 1006.000,682.043 1007.017,684.771 1008.259 M846.181 1011.722 C 851.140 1017.853,851.042 1026.127,845.945 1031.599 C 840.428 1037.521,835.177 1038.520,813.884 1037.701 C 797.575 1037.074,795.239 1036.500,791.822 1032.278 C 786.436 1025.625,786.949 1016.869,793.084 1010.734 C 798.013 1005.806,798.842 1005.671,820.264 1006.325 C 840.660 1006.948,842.655 1007.363,846.181 1011.722 M1001.091 1010.909 C 1007.050 1016.869,1007.499 1025.705,1002.177 1032.278 C 998.554 1036.753,997.130 1037.000,975.000 1037.000 C 952.870 1037.000,951.446 1036.753,947.823 1032.278 C 942.501 1025.705,942.950 1016.869,948.909 1010.909 C 953.503 1006.315,955.177 1006.000,975.000 1006.000 C 994.823 1006.000,996.497 1006.315,1001.091 1010.909 " fill="#1D1E23" stroke="none" fill-rule="evenodd"></path></svg>