<svg width="1200" height="1200" viewBox="0 0 1200 1200" fill="none" xmlns="http://www.w3.org/2000/svg"><path d="M460.876 101.757 C 451.007 104.310,434.086 114.323,428.515 120.908 C 418.926 132.241,413.199 147.717,413.309 162.000 C 413.364 169.150,413.767 176.253,414.204 177.785 C 414.738 179.655,380.891 201.077,311.221 242.962 L 207.441 305.354 197.577 298.715 C 184.791 290.111,174.061 287.336,158.000 288.481 C 135.067 290.117,115.198 304.174,105.316 325.755 C 99.438 338.591,99.438 361.409,105.316 374.245 C 111.110 386.897,122.751 399.261,134.873 405.637 C 143.652 410.254,147.395 410.966,163.000 410.982 C 179.232 410.998,182.052 410.417,191.711 405.067 C 213.980 392.733,227.049 368.767,225.632 342.861 L 225.000 331.309 326.000 270.517 C 381.550 237.082,428.081 209.259,429.402 208.687 C 430.723 208.115,434.835 209.959,438.539 212.784 C 454.242 224.762,478.233 227.797,497.828 220.286 L 508.657 216.135 521.904 228.567 C 529.190 235.405,568.978 272.788,610.322 311.640 L 685.494 382.279 681.586 394.640 C 669.224 433.743,699.468 474.286,741.000 474.286 C 757.377 474.286,770.402 469.166,782.759 457.872 C 795.375 446.342,801.648 433.386,803.328 415.387 L 804.495 402.890 895.495 364.535 L 986.495 326.179 995.986 334.183 C 1022.152 356.246,1057.417 355.020,1081.218 331.218 C 1111.725 300.712,1103.289 250.785,1064.390 231.625 C 1056.685 227.830,1051.771 227.000,1037.000 227.000 C 1020.786 227.000,1017.937 227.589,1008.289 232.933 C 987.968 244.188,975.809 263.854,975.003 286.771 C 974.717 294.906,973.850 296.955,969.830 299.006 C 967.173 300.362,926.043 317.865,878.429 337.904 L 791.859 374.338 783.674 366.943 C 770.640 355.168,759.603 351.060,741.000 351.060 C 728.986 351.060,722.724 352.105,715.865 355.256 L 706.729 359.452 622.865 280.626 C 576.739 237.272,537.023 199.820,534.607 197.400 L 530.214 193.000 534.321 181.000 C 544.387 151.585,529.451 118.379,500.367 105.514 C 490.442 101.123,470.617 99.237,460.876 101.757 M444.000 648.000 L 444.000 976.000 475.000 976.000 L 506.000 976.000 506.000 648.000 L 506.000 320.000 475.000 320.000 L 444.000 320.000 444.000 648.000 M288.000 710.037 L 288.000 976.074 334.500 975.537 L 381.000 975.000 381.507 709.500 L 382.015 444.000 335.007 444.000 L 288.000 444.000 288.000 710.037 M568.493 709.500 L 569.000 975.000 600.000 975.000 L 631.000 975.000 631.507 709.500 L 632.015 444.000 600.000 444.000 L 567.985 444.000 568.493 709.500 M974.000 772.000 L 974.000 1100.000 1037.000 1100.000 L 1100.000 1100.000 1100.000 772.000 L 1100.000 444.000 1037.000 444.000 L 974.000 444.000 974.000 772.000 M100.000 802.972 L 100.000 1100.000 163.007 1100.000 L 226.013 1100.000 225.507 803.500 L 225.000 507.000 162.500 506.472 L 100.000 505.943 100.000 802.972 M850.000 741.000 L 850.000 976.000 881.000 976.000 L 912.000 976.000 912.000 741.000 L 912.000 506.000 881.000 506.000 L 850.000 506.000 850.000 741.000 M694.000 773.037 L 694.000 976.074 740.500 975.537 L 787.000 975.000 787.510 772.500 L 788.019 570.000 741.010 570.000 L 694.000 570.000 694.000 773.037 " fill="#1D1E23" stroke="none" fill-rule="evenodd"></path></svg>