<svg width="1200" height="1200" viewBox="0 0 1200 1200" fill="none" xmlns="http://www.w3.org/2000/svg"><path d="M100.000 231.000 L 100.000 262.000 281.500 261.892 L 463.000 261.784 524.000 231.000 L 585.000 200.216 342.500 200.108 L 100.000 200.000 100.000 231.000 M538.500 293.746 C 435.925 345.030,352.000 387.445,352.000 388.000 C 352.000 389.636,721.718 574.000,725.000 574.000 C 728.282 574.000,1098.000 389.637,1098.000 388.000 C 1098.000 387.445,1014.075 345.030,911.500 293.746 L 725.000 200.503 538.500 293.746 M100.000 357.000 L 100.000 388.000 194.000 388.000 L 288.000 388.000 288.000 368.459 L 288.000 348.918 310.500 337.575 L 333.000 326.232 216.500 326.116 L 100.000 326.000 100.000 357.000 M100.000 481.000 L 100.000 512.000 194.000 512.000 L 288.000 512.000 288.000 481.000 L 288.000 450.000 194.000 450.000 L 100.000 450.000 100.000 481.000 M350.000 613.995 L 350.000 777.995 522.000 864.000 L 694.000 950.005 694.000 786.005 L 694.000 622.005 522.000 536.000 L 350.000 449.995 350.000 613.995 M927.500 536.112 L 756.000 622.005 756.000 786.005 L 756.000 950.005 928.000 864.000 L 1100.000 777.995 1100.000 613.998 C 1100.000 523.799,1099.775 450.050,1099.500 450.110 C 1099.225 450.171,1021.825 488.872,927.500 536.112 " fill="#1D1E23" stroke="none" fill-rule="evenodd"></path></svg>