<svg width="1200" height="1200" viewBox="0 0 1200 1200" fill="none" xmlns="http://www.w3.org/2000/svg"><path d="M333.181 53.147 C 321.791 57.320,312.844 64.851,306.545 75.568 C 301.199 84.661,300.976 86.167,300.328 117.500 L 299.656 150.000 271.195 150.000 C 255.542 150.000,237.394 150.972,230.867 152.161 C 203.479 157.147,174.813 178.589,162.258 203.479 C 149.333 229.104,150.062 205.425,150.030 600.402 C 150.009 855.166,150.643 962.889,152.210 970.402 C 160.164 1008.541,192.834 1040.692,231.000 1047.937 C 239.436 1049.539,282.496 1050.035,376.000 1049.608 C 508.473 1049.002,509.032 1048.983,517.189 1044.618 C 526.724 1039.516,537.327 1028.099,541.250 1018.710 C 544.787 1010.244,544.787 989.756,541.250 981.290 C 537.327 971.901,526.724 960.484,517.189 955.382 C 509.114 951.061,507.448 950.986,398.000 950.000 L 287.000 949.000 277.498 944.320 C 272.271 941.747,265.321 936.397,262.053 932.432 C 249.338 917.006,250.000 932.319,250.000 653.644 L 250.000 400.000 599.887 400.000 L 949.775 400.000 950.387 457.500 C 950.973 512.420,951.199 515.372,955.431 523.285 C 974.445 558.837,1025.555 558.837,1044.569 523.285 L 1049.000 515.000 1049.607 379.000 C 1050.034 283.278,1049.540 239.446,1047.937 231.000 C 1041.511 197.144,1017.281 169.141,983.000 155.951 C 972.535 151.925,966.459 151.220,935.500 150.444 L 900.000 149.554 900.000 121.133 C 900.000 87.033,897.405 77.300,885.007 64.902 C 864.034 43.929,828.491 46.201,810.599 69.660 C 801.562 81.507,800.024 89.040,800.011 121.500 L 800.000 150.000 600.000 150.000 L 400.000 150.000 400.000 121.356 C 400.000 87.048,397.421 77.316,385.053 64.947 C 371.434 51.329,350.896 46.656,333.181 53.147 M817.000 602.290 C 753.367 610.401,688.664 648.353,649.992 700.249 C 628.296 729.365,610.072 771.078,603.791 806.000 C 602.307 814.250,601.093 834.050,601.093 850.000 C 601.093 882.217,603.746 900.572,612.118 926.292 C 627.937 974.891,660.149 1020.107,700.249 1050.003 C 729.350 1071.698,771.070 1089.927,806.000 1096.209 C 814.250 1097.693,834.050 1098.907,850.000 1098.907 C 894.942 1098.907,925.646 1091.603,964.405 1071.694 C 1101.308 1001.372,1142.195 823.960,1050.008 700.249 C 996.950 629.047,906.247 590.915,817.000 602.290 M875.529 783.046 L 876.059 841.092 922.018 887.018 L 967.977 932.944 950.516 950.486 L 933.055 968.028 878.528 913.528 L 824.000 859.027 824.000 792.847 C 824.000 756.448,824.626 726.040,825.392 725.275 C 826.157 724.509,837.632 724.134,850.892 724.442 L 875.000 725.000 875.529 783.046 " fill="#1D1E23" stroke="none" fill-rule="evenodd"></path></svg>