<svg width="1200" height="1200" viewBox="0 0 1200 1200" fill="none" xmlns="http://www.w3.org/2000/svg"><path d="M332.786 295.698 C 188.569 374.514,69.094 440.235,67.286 441.745 C 62.970 445.350,63.087 454.561,67.500 458.521 C 73.872 464.239,595.894 748.000,600.042 748.000 C 602.278 748.000,702.925 694.033,823.701 628.073 C 944.477 562.113,1044.803 507.566,1046.647 506.859 C 1049.766 505.662,1050.001 516.091,1050.011 656.286 C 1050.018 753.939,1050.751 809.623,1052.091 814.449 C 1055.148 825.457,1065.751 838.120,1076.574 843.690 C 1096.581 853.986,1119.488 850.618,1135.007 835.098 C 1150.753 819.352,1150.000 829.660,1150.000 629.954 C 1150.000 463.595,1149.783 452.425,1146.500 449.478 C 1139.669 443.345,603.272 152.003,599.171 152.198 C 596.877 152.308,477.004 216.883,332.786 295.698 M254.000 672.000 C 250.119 675.881,250.000 678.667,250.000 765.618 C 250.000 834.214,250.586 856.012,252.500 858.544 C 255.937 863.093,595.066 1048.000,599.971 1048.000 C 604.881 1048.000,944.066 863.095,947.500 858.547 C 949.414 856.012,950.000 834.213,950.000 765.618 C 950.000 678.667,949.881 675.881,946.000 672.000 C 943.800 669.800,940.103 668.000,937.784 668.000 C 935.465 668.000,859.383 708.500,768.712 758.000 C 678.042 807.500,602.093 848.000,599.938 848.000 C 597.782 848.000,521.869 807.500,431.243 758.000 C 340.617 708.500,264.563 668.000,262.234 668.000 C 259.905 668.000,256.200 669.800,254.000 672.000 " fill="#1D1E23" stroke="none" fill-rule="evenodd"></path></svg>