<svg width="1200" height="1200" viewBox="0 0 1200 1200" fill="none" xmlns="http://www.w3.org/2000/svg"><path d="M575.149 1.478 L 567.299 2.283 662.135 97.135 L 756.971 191.986 790.187 158.814 L 823.403 125.641 835.859 131.929 C 989.601 209.538,1097.418 361.098,1120.105 531.500 L 1122.568 550.000 1160.308 550.000 L 1198.047 550.000 1197.042 542.500 C 1196.490 538.375,1195.087 527.800,1193.926 519.000 C 1159.681 259.483,955.192 49.672,696.000 8.114 C 653.618 1.319,603.516 -1.432,575.149 1.478 M245.497 247.503 L 34.001 459.006 387.504 812.504 L 741.006 1166.001 953.000 954.000 L 1164.994 741.999 811.999 388.999 C 617.852 194.850,458.552 36.000,457.999 36.000 C 457.445 36.000,361.820 131.176,245.497 247.503 M758.999 441.999 L 1058.993 741.998 900.000 901.000 L 741.007 1060.002 440.505 759.505 L 140.002 459.007 298.496 300.504 C 385.668 213.327,457.444 142.000,457.998 142.000 C 458.552 142.000,594.002 277.000,758.999 441.999 M3.158 659.500 C 14.551 759.600,46.449 849.396,98.892 929.000 C 193.969 1073.321,343.837 1168.754,515.000 1193.970 C 544.955 1198.383,612.132 1201.546,624.926 1199.146 L 632.676 1197.692 537.879 1102.879 L 443.082 1008.066 409.724 1041.215 L 376.367 1074.364 356.040 1063.923 C 248.358 1008.611,155.149 904.593,111.131 790.615 C 96.263 752.117,83.043 699.437,78.982 662.500 L 77.607 650.000 39.842 650.000 L 2.077 650.000 3.158 659.500 " fill="#1D1E23" stroke="none" fill-rule="evenodd"></path></svg>