<svg width="1200" height="1200" viewBox="0 0 1200 1200" fill="none" xmlns="http://www.w3.org/2000/svg"><path d="M582.219 5.590 C 580.999 7.871,580.000 10.898,580.000 12.316 C 580.000 13.735,619.813 54.746,668.474 103.452 L 756.948 192.009 790.275 158.726 L 823.601 125.442 844.627 136.571 C 985.045 210.890,1083.862 343.975,1114.894 500.560 C 1120.121 526.935,1122.927 534.670,1129.295 540.264 C 1139.735 549.434,1156.708 552.657,1169.370 547.873 C 1175.654 545.498,1185.218 537.080,1188.485 531.047 C 1195.058 518.909,1193.569 502.174,1181.719 455.000 C 1155.457 350.458,1103.957 258.633,1028.197 181.270 C 959.908 111.537,882.755 63.027,790.393 31.753 C 735.482 13.159,685.229 4.262,625.719 2.598 C 585.407 1.471,584.386 1.541,582.219 5.590 M436.572 68.787 C 431.937 70.299,424.287 73.829,419.572 76.632 C 414.857 79.435,335.764 157.164,243.809 249.364 C 53.525 440.154,67.040 424.128,67.015 459.000 C 66.989 494.518,37.011 461.501,387.754 812.251 C 738.521 1163.023,705.390 1132.944,741.031 1132.980 C 776.442 1133.015,761.877 1145.352,955.191 951.585 C 1146.027 760.303,1132.884 775.799,1132.958 742.000 C 1133.034 707.376,1164.751 742.273,814.263 391.357 C 466.032 42.701,493.291 67.826,462.000 66.667 C 451.334 66.273,441.860 67.062,436.572 68.787 M475.000 164.173 C 481.947 166.041,519.012 202.288,756.707 439.662 C 946.607 629.305,1031.563 715.450,1034.164 721.000 C 1039.330 732.025,1039.277 752.107,1034.053 762.869 C 1031.410 768.312,986.623 814.357,898.553 902.175 C 755.055 1045.261,763.485 1038.053,739.768 1037.956 C 733.349 1037.930,725.365 1036.279,720.000 1033.869 C 712.956 1030.704,652.247 971.048,440.699 759.413 C 292.033 610.686,168.839 485.891,166.935 482.090 C 165.031 478.290,163.019 469.517,162.463 462.595 C 160.477 437.854,154.183 445.352,297.751 301.443 C 396.719 202.239,429.318 170.728,436.893 166.943 C 447.776 161.505,461.394 160.515,475.000 164.173 M30.000 653.189 C 19.435 657.765,12.224 665.769,9.056 676.435 C 6.568 684.815,6.592 688.250,9.248 703.516 C 43.491 900.339,174.292 1067.854,357.066 1148.961 C 430.671 1181.623,514.241 1200.000,589.166 1200.000 C 613.168 1200.000,614.003 1199.855,617.096 1195.134 C 619.687 1191.180,619.837 1189.400,617.898 1185.634 C 616.586 1183.085,576.714 1142.068,529.293 1094.484 L 443.074 1007.969 409.460 1041.484 L 375.847 1075.000 357.423 1065.214 C 332.004 1051.713,305.424 1034.845,282.423 1017.618 C 257.474 998.932,212.012 954.620,191.588 929.081 C 138.333 862.488,102.889 786.945,85.936 703.899 C 81.705 683.174,78.087 670.610,74.946 665.742 C 66.162 652.127,45.667 646.402,30.000 653.189 " fill="#1D1E23" stroke="none" fill-rule="evenodd"></path></svg>