<svg width="1200" height="1200" viewBox="0 0 1200 1200" fill="none" xmlns="http://www.w3.org/2000/svg"><path d="M518.502 103.004 C 492.988 108.605,494.141 107.589,350.874 250.865 C 235.545 366.202,215.998 386.589,211.390 396.342 C 199.392 421.737,200.000 404.449,200.000 720.322 C 200.000 923.934,200.656 1012.947,202.210 1020.402 C 210.026 1057.883,242.117 1089.974,279.598 1097.790 C 294.557 1100.909,905.443 1100.909,920.402 1097.790 C 957.883 1089.974,989.974 1057.883,997.790 1020.402 C 1000.919 1005.394,1000.919 194.606,997.790 179.598 C 990.894 146.531,967.041 119.355,933.000 105.784 L 921.000 101.000 726.000 100.630 C 567.120 100.329,528.685 100.769,518.502 103.004 M567.009 203.312 C 572.825 205.294,580.145 210.040,585.233 215.127 C 598.869 228.764,600.000 235.264,600.000 300.000 C 600.000 364.736,598.869 371.236,585.233 384.873 C 565.483 404.622,534.596 404.701,514.947 385.053 C 500.922 371.027,500.000 365.783,500.000 300.000 C 500.000 234.183,500.917 228.978,514.983 214.911 C 528.874 201.021,547.860 196.788,567.009 203.312 M717.009 203.312 C 722.825 205.294,730.145 210.040,735.233 215.127 C 748.869 228.764,750.000 235.264,750.000 300.000 C 750.000 364.736,748.869 371.236,735.233 384.873 C 715.483 404.622,684.596 404.701,664.947 385.053 C 650.922 371.027,650.000 365.783,650.000 300.000 C 650.000 234.183,650.917 228.978,664.983 214.911 C 678.874 201.021,697.860 196.788,717.009 203.312 M867.009 203.312 C 872.825 205.294,880.145 210.040,885.233 215.127 C 898.869 228.764,900.000 235.264,900.000 300.000 C 900.000 364.736,898.869 371.236,885.233 384.873 C 865.483 404.622,834.596 404.701,814.947 385.053 C 800.922 371.027,800.000 365.783,800.000 300.000 C 800.000 234.183,800.917 228.978,814.983 214.911 C 828.874 201.021,847.860 196.788,867.009 203.312 " fill="#1D1E23" stroke="none" fill-rule="evenodd"></path></svg>