<svg width="1200" height="1200" viewBox="0 0 1200 1200" fill="none" xmlns="http://www.w3.org/2000/svg"><path d="M350.495 250.505 L 200.000 401.010 200.000 750.505 L 200.000 1100.000 600.000 1100.000 L 1000.000 1100.000 1000.000 600.000 L 1000.000 100.000 750.495 100.000 L 500.990 100.000 350.495 250.505 M600.000 300.000 L 600.000 400.000 550.000 400.000 L 500.000 400.000 500.000 300.000 L 500.000 200.000 550.000 200.000 L 600.000 200.000 600.000 300.000 M750.000 300.000 L 750.000 400.000 700.000 400.000 L 650.000 400.000 650.000 300.000 L 650.000 200.000 700.000 200.000 L 750.000 200.000 750.000 300.000 M900.000 300.000 L 900.000 400.000 850.000 400.000 L 800.000 400.000 800.000 300.000 L 800.000 200.000 850.000 200.000 L 900.000 200.000 900.000 300.000 " fill="#1D1E23" stroke="none" fill-rule="evenodd"></path></svg>