<svg width="1200" height="1200" viewBox="0 0 1200 1200" fill="none" xmlns="http://www.w3.org/2000/svg"><path d="M438.000 152.071 C 311.501 167.557,205.998 253.757,166.243 374.109 C 144.888 438.758,144.918 512.295,166.326 576.833 C 202.808 686.815,296.512 769.964,411.000 793.946 C 437.083 799.410,484.568 801.405,511.165 798.154 C 561.402 792.014,613.091 773.235,653.376 746.488 L 664.254 739.265 791.627 866.562 C 930.971 1005.824,926.972 1002.400,950.311 1002.400 C 972.694 1002.400,992.221 988.410,999.210 967.366 C 1003.179 955.420,1002.248 938.227,997.026 927.000 C 994.502 921.573,952.480 878.038,866.376 791.645 L 739.447 664.290 748.873 649.645 C 769.269 617.956,786.353 575.217,794.180 536.302 C 799.356 510.565,801.255 464.247,798.174 438.845 C 791.904 387.139,775.748 342.005,748.476 300.000 C 698.511 223.043,619.753 170.506,531.000 154.928 C 509.209 151.103,458.607 149.549,438.000 152.071 M508.607 252.979 C 610.430 268.327,687.603 349.481,698.490 452.657 C 709.467 556.687,644.870 656.012,545.000 688.665 C 438.811 723.385,323.463 674.928,273.176 574.474 C 259.820 547.794,250.024 505.705,250.024 475.000 C 250.024 444.295,259.820 402.206,273.176 375.526 C 294.646 332.636,332.636 294.646,375.526 273.176 C 414.446 253.692,463.724 246.214,508.607 252.979 " fill="#1D1E23" stroke="none" fill-rule="evenodd"></path></svg>