<svg width="1200" height="1200" viewBox="0 0 1200 1200" fill="none" xmlns="http://www.w3.org/2000/svg"><path d="M574.741 63.029 C 562.218 66.405,207.119 223.981,195.488 231.323 C 183.192 239.085,169.747 253.769,162.521 267.326 C 149.840 291.117,149.999 288.919,150.007 439.920 C 150.014 579.677,150.908 602.510,158.157 648.000 C 190.657 851.944,327.312 1035.845,507.000 1117.447 C 539.196 1132.068,588.551 1148.603,600.000 1148.603 C 611.449 1148.603,660.804 1132.068,693.000 1117.447 C 872.573 1035.897,1009.351 851.830,1041.842 648.000 C 1049.092 602.517,1049.986 579.684,1049.993 439.920 C 1050.001 288.919,1050.160 291.117,1037.479 267.326 C 1030.253 253.769,1016.808 239.085,1004.512 231.323 C 991.972 223.407,637.348 66.300,624.418 62.932 C 610.517 59.312,588.370 59.355,574.741 63.029 M600.000 380.000 L 600.000 600.000 775.024 600.000 L 950.047 600.000 948.794 608.500 C 922.394 787.535,810.211 949.474,663.000 1021.049 C 642.258 1031.133,605.222 1046.000,600.841 1046.000 C 600.378 1046.000,600.000 945.650,600.000 823.000 L 600.000 600.000 425.000 600.000 L 250.000 600.000 250.015 457.500 L 250.031 315.000 423.515 237.702 C 518.932 195.188,597.675 160.313,598.500 160.202 C 599.325 160.091,600.000 259.000,600.000 380.000 " fill="#1D1E23" stroke="none" fill-rule="evenodd"></path></svg>