<svg width="1200" height="1200" viewBox="0 0 1200 1200" fill="none" xmlns="http://www.w3.org/2000/svg"><path d="M574.741 63.029 C 562.218 66.405,207.119 223.981,195.488 231.323 C 183.192 239.085,169.747 253.769,162.521 267.326 C 149.840 291.117,149.999 288.919,150.007 439.920 C 150.014 579.677,150.908 602.510,158.157 648.000 C 190.657 851.944,327.312 1035.845,507.000 1117.447 C 539.196 1132.068,588.551 1148.603,600.000 1148.603 C 611.449 1148.603,660.804 1132.068,693.000 1117.447 C 872.573 1035.897,1009.351 851.830,1041.842 648.000 C 1049.092 602.517,1049.986 579.684,1049.993 439.920 C 1050.001 288.919,1050.160 291.117,1037.479 267.326 C 1030.253 253.769,1016.808 239.085,1004.512 231.323 C 991.972 223.407,637.348 66.300,624.418 62.932 C 610.517 59.312,588.370 59.355,574.741 63.029 M849.000 404.775 C 860.769 410.348,870.571 420.060,874.899 430.436 C 878.872 439.961,878.884 459.993,874.923 469.564 C 872.763 474.783,820.726 528.182,700.423 648.633 C 606.140 743.031,526.570 821.556,523.600 823.133 C 512.212 829.178,498.967 830.561,486.547 827.003 C 475.287 823.777,473.196 821.898,402.354 751.347 C 360.614 709.778,327.915 675.597,325.494 671.000 C 322.482 665.283,321.266 659.289,321.234 650.000 C 321.131 620.029,345.586 597.540,374.982 600.574 C 380.794 601.174,388.576 603.191,392.275 605.057 C 395.974 606.922,421.733 631.057,449.517 658.689 L 500.034 708.930 651.548 557.465 C 734.881 474.159,803.498 405.986,804.031 405.970 C 804.564 405.953,808.600 404.643,813.000 403.058 C 824.962 398.748,837.541 399.348,849.000 404.775 " fill="#1D1E23" stroke="none" fill-rule="evenodd"></path></svg>