<svg width="1200" height="1200" viewBox="0 0 1200 1200" fill="none" xmlns="http://www.w3.org/2000/svg"><path d="M375.000 149.877 L 151.000 249.548 150.384 409.274 C 149.743 575.537,150.616 602.192,158.238 649.000 C 191.470 853.072,327.664 1036.005,507.000 1117.447 C 539.196 1132.068,588.551 1148.603,600.000 1148.603 C 611.449 1148.603,660.804 1132.068,693.000 1117.447 C 872.222 1036.056,1008.538 852.960,1041.761 649.000 C 1049.384 602.199,1050.257 575.543,1049.616 409.274 L 1049.000 249.548 825.000 149.877 C 701.800 95.058,600.550 50.205,600.000 50.205 C 599.450 50.205,498.200 95.058,375.000 149.877 M866.007 415.064 L 900.864 450.128 700.935 650.065 L 501.006 850.001 401.015 750.010 L 301.024 650.019 335.996 615.004 L 370.967 579.990 435.489 644.488 L 500.010 708.987 664.503 544.493 C 754.975 454.022,829.481 380.000,830.073 380.000 C 830.665 380.000,846.835 395.779,866.007 415.064 " fill="#1D1E23" stroke="none" fill-rule="evenodd"></path></svg>