<svg width="1200" height="1200" viewBox="0 0 1200 1200" fill="none" xmlns="http://www.w3.org/2000/svg"><path d="M375.000 149.877 L 151.000 249.548 150.384 409.274 C 149.743 575.537,150.616 602.192,158.238 649.000 C 191.470 853.072,327.664 1036.005,507.000 1117.447 C 539.196 1132.068,588.551 1148.603,600.000 1148.603 C 611.449 1148.603,660.804 1132.068,693.000 1117.447 C 872.222 1036.056,1008.538 852.960,1041.761 649.000 C 1049.384 602.199,1050.257 575.543,1049.616 409.274 L 1049.000 249.548 825.000 149.877 C 701.800 95.058,600.550 50.205,600.000 50.205 C 599.450 50.205,498.200 95.058,375.000 149.877 M600.000 380.000 L 600.000 600.000 775.024 600.000 L 950.047 600.000 948.794 608.500 C 922.394 787.535,810.211 949.474,663.000 1021.049 C 642.258 1031.133,605.222 1046.000,600.841 1046.000 C 600.378 1046.000,600.000 945.650,600.000 823.000 L 600.000 600.000 425.000 600.000 L 250.000 600.000 250.015 457.500 L 250.031 315.000 423.515 237.702 C 518.932 195.188,597.675 160.313,598.500 160.202 C 599.325 160.091,600.000 259.000,600.000 380.000 " fill="#1D1E23" stroke="none" fill-rule="evenodd"></path></svg>