<svg width="1200" height="1200" viewBox="0 0 1200 1200" fill="none" xmlns="http://www.w3.org/2000/svg"><path d="M133.255 178.829 C 121.858 183.049,111.681 192.137,106.009 203.160 L 101.000 212.893 101.000 341.947 L 101.000 471.000 106.634 480.584 C 113.007 491.427,125.152 501.119,135.808 503.866 C 139.764 504.885,299.600 526.560,491.000 552.032 C 682.400 577.505,840.350 598.843,842.000 599.451 C 843.650 600.059,685.121 621.890,489.714 647.963 C 150.380 693.241,134.016 695.610,125.281 700.729 C 114.899 706.814,106.774 716.511,102.854 727.496 C 98.804 738.844,98.784 975.324,102.831 988.772 C 106.590 1001.260,114.070 1010.696,125.568 1017.455 C 133.689 1022.229,137.085 1022.983,150.000 1022.881 L 165.000 1022.762 601.228 835.561 C 841.153 732.600,1040.953 646.557,1045.228 644.355 C 1055.215 639.209,1064.963 629.001,1068.899 619.564 C 1073.143 609.388,1072.826 589.007,1068.269 579.000 C 1060.080 561.019,1079.758 570.044,606.008 367.003 C 127.522 161.933,152.275 171.786,133.255 178.829 " fill="#1D1E23" stroke="none" fill-rule="evenodd"></path></svg>