<svg width="1200" height="1200" viewBox="0 0 1200 1200" fill="none" xmlns="http://www.w3.org/2000/svg"><path d="M100.000 324.723 L 100.000 499.682 105.500 500.762 C 108.525 501.356,274.800 523.553,475.000 550.088 C 675.200 576.624,840.350 598.833,842.000 599.442 C 843.650 600.050,677.687 622.914,473.193 650.248 C 268.699 677.583,101.069 700.265,100.682 700.652 C 100.295 701.039,100.208 779.735,100.489 875.533 L 101.000 1049.711 624.500 825.359 C 912.425 701.965,1147.980 600.555,1147.955 600.003 C 1147.929 599.452,912.804 498.270,625.455 375.155 C 338.105 252.041,102.325 150.963,101.500 150.537 C 100.675 150.112,100.000 228.496,100.000 324.723 " fill="#1D1E23" stroke="none" fill-rule="evenodd"></path></svg>