<svg width="1200" height="1200" viewBox="0 0 1200 1200" fill="none" xmlns="http://www.w3.org/2000/svg"><path d="M478.008 101.500 C 478.021 104.054,457.987 244.731,456.936 249.456 C 456.216 252.696,451.450 256.068,439.473 261.811 C 420.906 270.715,392.735 287.497,381.743 296.203 C 377.718 299.391,373.204 301.985,371.712 301.966 C 370.220 301.947,337.248 289.011,298.441 273.219 L 227.881 244.505 220.211 257.753 C 215.993 265.039,190.696 308.800,163.997 355.000 C 137.299 401.200,113.306 442.714,110.681 447.254 L 105.909 455.507 166.930 503.254 L 227.951 551.000 226.538 564.000 C 225.335 575.063,225.388 608.441,226.662 641.852 L 227.000 650.705 168.000 697.176 C 135.294 722.936,109.107 744.961,109.240 746.596 C 109.567 750.618,226.409 952.282,228.985 953.271 C 230.115 953.704,263.079 941.201,302.240 925.485 L 373.441 896.912 383.220 904.141 C 397.382 914.610,428.912 933.089,443.329 939.370 C 451.671 943.004,456.068 946.139,456.688 948.894 C 457.197 951.152,462.374 986.075,468.193 1026.500 L 478.773 1100.000 600.386 1100.000 C 667.274 1100.000,722.000 1099.433,722.000 1098.741 C 722.000 1096.307,742.061 954.949,743.005 950.731 C 743.694 947.653,749.682 943.657,764.480 936.402 C 775.766 930.869,794.624 919.965,806.388 912.172 L 827.775 898.002 898.911 926.160 C 938.035 941.647,970.938 954.021,972.028 953.657 C 975.319 952.560,1094.345 745.455,1092.417 744.181 C 1091.434 743.532,1063.956 721.992,1031.356 696.316 L 972.082 649.632 973.541 634.316 C 975.231 616.578,975.439 585.113,974.000 565.084 L 973.000 551.169 1033.000 503.949 C 1066.000 477.979,1093.000 455.837,1093.000 454.745 C 1093.000 451.379,975.151 247.616,972.623 246.611 C 971.316 246.092,938.683 258.436,900.105 274.043 L 829.964 302.418 810.279 289.188 C 799.453 281.911,780.365 270.739,767.862 264.361 L 745.130 252.765 733.693 177.883 C 727.402 136.697,722.198 102.325,722.128 101.500 C 722.057 100.675,667.100 100.000,600.000 100.000 C 532.900 100.000,478.004 100.675,478.008 101.500 M645.000 430.784 C 659.532 434.804,686.565 447.461,699.519 456.311 C 723.761 472.873,744.064 497.168,757.879 526.143 C 770.668 552.968,773.000 564.357,773.000 600.000 C 773.000 635.643,770.668 647.032,757.879 673.857 C 747.481 695.665,735.572 712.200,719.295 727.426 C 660.076 782.822,569.765 790.516,503.650 745.796 C 476.396 727.362,456.591 704.206,442.121 673.857 C 429.332 647.032,427.000 635.643,427.000 600.000 C 427.000 564.357,429.332 552.968,442.121 526.143 C 466.309 475.412,508.645 441.581,564.000 428.750 C 579.393 425.182,629.274 426.435,645.000 430.784 " fill="#1D1E23" stroke="none" fill-rule="evenodd"></path></svg>