<svg width="1200" height="1200" viewBox="0 0 1200 1200" fill="none" xmlns="http://www.w3.org/2000/svg"><path d="M460.683 176.981 L 435.052 253.961 415.165 263.481 C 404.227 268.716,385.662 279.374,373.909 287.164 L 352.540 301.328 276.770 285.741 C 235.096 277.169,199.184 270.120,196.965 270.077 C 193.729 270.015,183.861 285.745,147.135 349.500 C 121.948 393.225,101.080 429.523,100.761 430.162 C 100.442 430.802,124.465 458.702,154.144 492.162 L 208.107 553.000 206.766 561.000 C 205.036 571.322,205.023 628.575,206.749 639.000 L 208.073 647.000 154.132 707.810 C 105.447 762.694,100.407 769.028,102.415 772.810 C 104.415 776.579,167.209 885.605,186.110 918.125 L 193.738 931.250 273.228 915.015 L 352.718 898.781 373.976 912.891 C 385.668 920.651,404.223 931.374,415.209 936.720 L 435.185 946.440 460.750 1023.220 L 486.314 1100.000 580.000 1100.000 L 673.686 1100.000 699.250 1023.220 L 724.815 946.440 744.706 936.720 C 755.645 931.374,774.209 920.647,785.958 912.883 L 807.319 898.766 886.160 915.036 C 929.522 923.984,965.582 930.787,966.294 930.153 C 967.005 929.519,986.249 896.600,1009.058 857.000 C 1031.867 817.400,1052.637 781.359,1055.215 776.908 L 1059.902 768.816 1005.830 707.908 L 951.759 647.000 953.031 638.307 C 954.677 627.059,954.679 572.964,953.034 561.693 L 951.766 553.000 1005.765 492.085 L 1059.764 431.170 1053.382 419.975 C 988.702 306.511,966.714 270.048,963.000 270.090 C 960.800 270.115,924.858 277.184,883.129 285.798 L 807.257 301.461 788.129 288.608 C 777.608 281.539,759.067 270.788,746.928 264.718 L 724.855 253.682 699.271 176.841 L 673.686 100.000 580.000 100.000 L 486.314 100.000 460.683 176.981 M381.500 365.234 L 406.000 378.223 406.000 388.599 L 406.000 398.976 466.485 459.485 L 526.969 519.994 513.482 533.481 L 499.994 546.969 440.485 487.484 L 380.975 428.000 369.837 428.000 L 358.699 428.000 344.455 400.470 L 330.210 372.939 340.369 361.357 C 347.485 353.244,351.498 350.145,353.764 351.010 C 355.544 351.689,368.025 358.090,381.500 365.234 M740.000 355.073 C 746.050 356.908,751.397 358.790,751.882 359.254 C 752.367 359.718,736.002 376.951,715.515 397.549 C 695.028 418.147,677.306 437.534,676.133 440.630 C 670.668 455.058,674.515 466.391,690.750 483.690 C 710.385 504.612,725.505 510.397,740.599 502.763 C 744.120 500.983,763.403 483.261,783.452 463.382 C 803.501 443.502,820.349 427.682,820.893 428.226 C 821.437 428.770,823.463 435.017,825.396 442.107 C 830.959 462.517,830.089 495.010,823.479 513.669 C 808.554 555.806,776.787 585.313,734.781 596.056 C 718.029 600.340,696.155 601.090,682.143 597.861 L 673.285 595.819 551.143 717.611 C 455.716 812.764,426.875 840.405,419.285 843.984 C 389.202 858.169,352.032 845.204,336.417 815.080 C 329.070 800.907,328.804 775.748,335.844 761.000 C 339.615 753.100,366.183 725.362,462.339 628.933 L 584.061 506.865 582.030 496.160 C 572.169 444.160,600.405 387.795,648.116 364.238 C 657.402 359.653,670.850 354.585,678.000 352.976 C 694.095 349.354,724.542 350.383,740.000 355.073 M709.779 632.003 C 718.300 632.006,720.174 633.031,734.464 645.503 C 752.066 660.865,762.837 673.941,794.572 718.473 C 825.408 761.745,829.013 769.042,828.950 788.061 C 828.908 800.408,827.897 805.170,823.337 814.490 C 806.104 849.713,760.673 860.807,729.805 837.330 C 724.962 833.647,708.400 821.792,693.000 810.985 C 645.417 777.594,630.004 763.228,601.136 725.361 L 595.313 717.721 639.156 673.720 L 683.000 629.719 691.779 630.860 C 696.608 631.487,704.708 632.001,709.779 632.003 " fill="#1D1E23" stroke="none" fill-rule="evenodd"></path></svg>