<svg width="1200" height="1200" viewBox="0 0 1200 1200" fill="none" xmlns="http://www.w3.org/2000/svg"><path d="M289.571 103.101 C 195.070 117.816,119.572 192.672,103.236 287.852 C 82.390 409.310,165.417 525.751,287.852 546.764 C 409.310 567.610,525.751 484.583,546.764 362.148 C 563.341 265.566,513.205 167.594,424.474 123.176 C 385.541 103.686,334.548 96.098,289.571 103.101 M650.000 325.000 L 650.000 550.000 875.000 550.000 L 1100.000 550.000 1100.000 325.000 L 1100.000 100.000 875.000 100.000 L 650.000 100.000 650.000 325.000 M289.571 653.101 C 243.940 660.207,200.293 682.372,167.209 715.243 C 78.105 803.770,77.658 945.251,166.203 1033.797 C 254.302 1121.895,395.698 1121.895,483.797 1033.797 C 592.493 925.100,562.410 742.227,424.474 673.176 C 385.541 653.686,334.548 646.098,289.571 653.101 M839.571 653.101 C 793.940 660.207,750.293 682.372,717.209 715.243 C 628.105 803.770,627.658 945.251,716.203 1033.797 C 804.302 1121.895,945.698 1121.895,1033.797 1033.797 C 1142.493 925.100,1112.410 742.227,974.474 673.176 C 935.541 653.686,884.548 646.098,839.571 653.101 " fill="#1D1E23" stroke="none" fill-rule="evenodd"></path></svg>