<svg width="1200" height="1200" viewBox="0 0 1200 1200" fill="none" xmlns="http://www.w3.org/2000/svg"><path d="M881.000 101.113 C 878.800 101.623,872.090 103.036,866.089 104.255 C 832.381 111.100,794.911 137.135,774.492 167.898 C 757.592 193.358,748.587 227.240,750.828 256.930 C 751.578 266.868,752.373 277.443,752.596 280.429 C 752.981 285.606,745.114 290.461,583.000 385.098 C 489.500 439.679,410.554 485.620,407.564 487.187 C 402.399 489.894,401.603 489.637,391.564 482.020 C 377.139 471.074,357.947 461.282,340.000 455.712 C 327.597 451.863,320.671 451.068,300.000 451.123 C 286.250 451.159,270.950 452.303,266.000 453.664 C 206.684 469.974,164.987 513.277,153.077 570.933 C 133.515 665.639,211.098 755.067,307.926 749.423 C 337.971 747.672,368.858 736.105,391.701 718.048 L 402.216 709.737 579.608 813.418 L 757.000 917.100 756.000 925.050 C 753.435 945.438,755.146 974.969,759.761 990.000 C 774.958 1039.490,810.211 1074.770,860.000 1090.316 C 881.535 1097.041,918.465 1097.041,940.000 1090.316 C 989.754 1074.781,1024.781 1039.754,1040.316 990.000 C 1047.041 968.465,1047.041 931.535,1040.316 910.000 C 1027.555 869.131,1000.637 837.286,963.510 819.134 C 941.560 808.403,926.610 805.110,900.000 805.143 C 866.111 805.185,840.789 813.437,813.975 833.176 C 807.290 838.098,801.185 841.788,800.410 841.376 C 799.634 840.965,719.543 794.433,622.429 737.972 L 445.858 635.316 447.429 626.158 C 449.445 614.408,449.452 585.631,447.442 573.930 L 445.884 564.860 621.828 462.293 L 797.772 359.727 808.293 368.043 C 857.534 406.966,930.057 410.054,982.193 375.448 C 1042.252 335.583,1065.594 259.476,1038.317 192.451 C 1021.278 150.579,982.958 117.370,937.000 104.646 C 926.873 101.842,888.348 99.411,881.000 101.113 " fill="#1D1E23" stroke="none" fill-rule="evenodd"></path></svg>