<svg width="1200" height="1200" viewBox="0 0 1200 1200" fill="none" xmlns="http://www.w3.org/2000/svg"><path d="M180.113 202.144 C 153.373 207.499,124.387 229.461,112.203 253.598 C 99.418 278.924,100.062 260.585,100.030 600.402 C 100.009 818.663,100.651 912.925,102.210 920.402 C 110.026 957.883,142.117 989.974,179.598 997.790 C 194.606 1000.919,1005.394 1000.919,1020.402 997.790 C 1057.883 989.974,1089.974 957.883,1097.790 920.402 C 1100.901 905.481,1100.901 394.519,1097.790 379.598 C 1090.894 346.531,1067.041 319.355,1033.000 305.784 L 1021.000 301.000 811.093 300.447 L 601.187 299.893 563.037 262.190 C 541.703 241.105,519.248 220.841,512.092 216.216 C 487.497 200.320,496.714 201.122,334.000 200.721 C 254.250 200.525,185.001 201.165,180.113 202.144 M783.087 456.186 C 812.422 467.118,832.554 487.194,844.067 517.000 C 847.858 526.814,848.703 532.826,848.703 550.000 C 848.703 567.174,847.858 573.186,844.067 583.000 C 834.179 608.599,815.756 629.201,793.281 639.792 C 738.827 665.454,678.080 640.336,655.933 583.000 C 649.267 565.745,649.281 534.188,655.961 517.000 C 664.502 495.027,676.965 479.033,694.642 467.361 C 704.469 460.873,723.099 453.227,734.000 451.209 C 745.043 449.164,771.419 451.838,783.087 456.186 M786.398 702.984 C 850.024 711.383,901.769 731.652,929.294 758.957 C 947.791 777.306,950.000 784.071,950.000 822.363 L 950.000 850.000 750.000 850.000 L 550.000 850.000 550.000 822.363 C 550.000 784.071,552.209 777.306,570.706 758.957 C 592.206 737.629,627.376 720.984,674.000 710.071 C 716.341 700.161,749.282 698.084,786.398 702.984 " fill="#1D1E23" stroke="none" fill-rule="evenodd"></path></svg>