<svg width="1200" height="1200" viewBox="0 0 1200 1200" fill="none" xmlns="http://www.w3.org/2000/svg"><path d="M491.111 104.534 C 471.227 115.797,469.951 142.855,488.647 156.791 C 494.220 160.945,495.665 161.000,600.000 161.000 C 704.335 161.000,705.780 160.945,711.353 156.791 C 730.097 142.820,728.223 114.317,707.878 103.938 C 700.500 100.174,695.719 100.001,599.580 100.033 C 499.203 100.066,498.984 100.075,491.111 104.534 M395.901 228.700 C 376.719 233.924,361.253 248.073,354.242 266.813 C 350.194 277.632,350.000 281.609,350.000 353.896 L 350.000 429.642 464.500 391.405 L 579.000 353.167 600.000 353.142 L 621.000 353.118 733.000 390.877 C 794.600 411.645,846.165 429.055,847.588 429.566 C 849.683 430.319,850.064 415.511,849.588 351.748 C 849.024 276.189,848.827 272.626,844.725 263.755 C 838.590 250.486,827.358 238.962,814.321 232.560 L 803.000 227.000 604.000 226.611 C 450.962 226.312,402.898 226.795,395.901 228.700 M573.000 421.853 C 541.783 430.557,319.290 506.129,309.516 511.348 C 286.673 523.546,266.019 550.624,260.159 576.056 C 257.091 589.370,257.577 611.838,261.199 624.137 C 265.782 639.698,323.371 781.364,329.213 791.447 C 334.834 801.150,347.085 809.167,359.265 811.115 C 366.253 812.232,370.117 811.246,384.265 804.737 C 399.232 797.851,402.690 797.036,417.000 797.019 C 432.515 797.001,433.788 797.377,459.000 809.441 C 557.141 856.401,642.244 856.418,740.756 809.500 C 766.197 797.383,767.490 797.001,783.000 797.019 C 797.310 797.036,800.768 797.851,815.735 804.737 C 833.565 812.940,841.628 813.445,853.710 807.113 C 867.488 799.893,871.011 793.241,904.124 711.904 C 921.792 668.507,937.542 628.086,939.124 622.080 C 950.654 578.301,927.329 529.086,885.716 509.394 C 877.622 505.564,814.984 483.825,746.520 461.086 C 630.454 422.537,620.856 419.682,604.520 418.846 C 591.124 418.160,583.704 418.868,573.000 421.853 M398.000 937.296 C 379.206 940.118,366.022 943.295,345.000 950.067 C 292.354 967.026,267.575 971.248,203.000 974.263 C 151.972 976.646,141.997 978.612,127.497 989.142 C 88.662 1017.345,92.143 1075.477,133.821 1094.755 C 142.322 1098.687,146.322 1098.998,188.000 1098.978 C 248.906 1098.948,290.929 1092.930,335.267 1077.888 C 372.672 1065.198,392.331 1061.623,424.387 1061.681 C 451.033 1061.729,461.204 1063.716,498.000 1076.063 C 573.398 1101.363,626.737 1101.355,702.000 1076.032 C 739.505 1063.413,749.957 1061.453,779.000 1061.595 C 807.633 1061.734,823.712 1064.683,861.000 1076.634 C 915.213 1094.009,948.583 1098.947,1012.000 1098.978 C 1053.678 1098.998,1057.678 1098.687,1066.179 1094.755 C 1077.911 1089.328,1089.354 1077.873,1094.725 1066.179 C 1100.801 1052.949,1100.608 1028.518,1094.327 1015.728 C 1087.353 1001.525,1077.562 991.390,1063.661 983.981 C 1051.020 977.243,1051.011 977.242,1013.009 975.639 C 943.402 972.702,903.997 966.308,856.000 950.160 C 817.089 937.068,780.823 933.043,747.860 938.158 C 740.212 939.344,720.762 944.758,704.638 950.189 C 658.511 965.724,641.260 968.791,600.000 968.791 C 558.907 968.791,542.520 965.884,495.000 950.163 C 478.500 944.704,459.150 939.291,452.000 938.134 C 439.695 936.143,408.864 935.664,398.000 937.296 " fill="#1D1E23" stroke="none" fill-rule="evenodd"></path></svg>