<svg width="1200" height="1200" viewBox="0 0 1200 1200" fill="none" xmlns="http://www.w3.org/2000/svg"><path d="M474.000 131.000 L 474.000 162.000 600.000 162.000 L 726.000 162.000 726.000 131.000 L 726.000 100.000 600.000 100.000 L 474.000 100.000 474.000 131.000 M395.901 228.700 C 376.792 233.904,361.142 248.370,354.016 267.416 C 350.254 277.471,350.000 282.946,350.000 353.914 L 350.000 429.678 475.000 388.000 L 600.000 346.322 725.000 388.000 L 850.000 429.678 850.000 353.914 C 850.000 282.633,849.759 277.507,845.933 267.281 C 840.500 252.760,828.447 239.496,814.429 232.612 L 803.000 227.000 604.000 226.611 C 450.962 226.312,402.898 226.795,395.901 228.700 M412.500 474.652 C 309.925 508.935,226.000 537.688,226.000 538.548 C 226.000 540.820,340.262 822.702,341.943 824.579 C 344.367 827.284,386.334 804.811,399.998 793.492 L 412.996 782.725 425.998 791.113 C 470.621 819.902,525.361 838.826,578.606 843.871 C 638.858 849.580,715.216 828.971,774.000 791.134 L 787.000 782.766 800.000 793.454 C 813.366 804.443,855.844 827.134,858.089 824.484 C 859.723 822.557,974.000 540.682,974.000 538.580 C 974.000 537.444,618.886 417.759,601.000 412.868 C 599.900 412.567,515.075 440.370,412.500 474.652 M405.849 913.223 C 392.186 927.940,354.123 947.839,320.763 957.705 C 274.579 971.363,207.905 977.647,147.500 974.037 C 128.525 972.902,110.075 971.430,106.500 970.765 L 100.000 969.555 100.000 1032.598 L 100.000 1095.641 117.500 1097.320 C 149.386 1100.381,234.399 1099.159,260.932 1095.259 C 321.679 1086.331,369.798 1068.395,400.075 1043.394 L 412.996 1032.725 425.998 1041.112 C 457.301 1061.305,502.041 1079.900,538.106 1087.708 C 592.975 1099.587,639.997 1096.693,696.422 1077.964 C 721.730 1069.564,757.832 1052.365,775.692 1040.201 L 786.833 1032.613 800.984 1043.859 C 833.890 1070.008,882.806 1087.695,946.000 1096.294 C 967.677 1099.243,1055.578 1099.904,1082.500 1097.320 L 1100.000 1095.641 1100.000 1032.662 L 1100.000 969.682 1094.500 970.826 C 1091.475 971.455,1073.015 972.898,1053.479 974.033 C 998.626 977.219,937.348 972.517,895.560 961.914 C 851.243 950.670,818.544 935.129,795.613 914.412 L 788.070 907.597 774.957 915.879 C 732.462 942.717,679.618 961.926,631.000 968.208 C 608.025 971.177,568.848 969.352,544.267 964.168 C 505.714 956.037,460.207 937.731,426.728 916.886 C 418.878 911.999,412.060 908.000,411.577 908.000 C 411.093 908.000,408.515 910.350,405.849 913.223 " fill="#1D1E23" stroke="none" fill-rule="evenodd"></path></svg>