<svg width="1200" height="1200" viewBox="0 0 1200 1200" fill="none" xmlns="http://www.w3.org/2000/svg"><path d="M284.000 101.382 C 244.324 108.023,210.364 140.500,202.210 179.598 C 199.081 194.606,199.081 1005.394,202.210 1020.402 C 210.026 1057.883,242.117 1089.974,279.598 1097.790 C 287.072 1099.348,381.735 1100.000,600.678 1100.000 C 872.881 1100.000,912.629 1099.623,923.080 1096.939 C 960.836 1087.244,990.103 1057.261,997.790 1020.402 C 999.355 1012.894,1000.000 906.137,1000.000 654.394 L 1000.000 298.985 900.493 199.492 L 800.985 100.000 544.993 100.272 C 404.197 100.422,286.750 100.921,284.000 101.382 M450.000 525.000 L 450.000 650.000 700.000 650.000 L 950.000 650.000 950.000 725.000 L 950.000 800.000 600.000 800.000 L 250.000 800.000 250.000 621.356 C 250.000 420.199,249.241 430.654,264.983 414.911 C 279.377 400.518,280.677 400.336,370.500 400.158 L 450.000 400.000 450.000 525.000 M700.000 500.000 L 700.000 600.000 600.000 600.000 L 500.000 600.000 500.000 500.000 L 500.000 400.000 600.000 400.000 L 700.000 400.000 700.000 500.000 M917.009 403.312 C 929.667 407.626,942.374 420.333,946.688 432.991 C 949.550 441.391,950.000 453.401,950.000 521.356 L 950.000 600.000 850.000 600.000 L 750.000 600.000 750.000 500.000 L 750.000 400.000 828.644 400.000 C 896.599 400.000,908.609 400.450,917.009 403.312 M450.000 950.000 L 450.000 1050.000 371.356 1050.000 C 281.882 1050.000,279.570 1049.675,264.947 1035.053 C 250.325 1020.430,250.000 1018.118,250.000 928.644 L 250.000 850.000 350.000 850.000 L 450.000 850.000 450.000 950.000 M700.000 950.000 L 700.000 1050.000 600.000 1050.000 L 500.000 1050.000 500.000 950.000 L 500.000 850.000 600.000 850.000 L 700.000 850.000 700.000 950.000 M950.000 928.644 C 950.000 1018.118,949.675 1020.430,935.053 1035.053 C 920.430 1049.675,918.118 1050.000,828.644 1050.000 L 750.000 1050.000 750.000 950.000 L 750.000 850.000 850.000 850.000 L 950.000 850.000 950.000 928.644 " fill="#1D1E23" stroke="none" fill-rule="evenodd"></path></svg>