<svg width="1200" height="1200" viewBox="0 0 1200 1200" fill="none" xmlns="http://www.w3.org/2000/svg"><path d="M194.000 131.000 L 194.000 162.000 257.000 162.000 L 320.000 162.000 320.000 131.000 L 320.000 100.000 257.000 100.000 L 194.000 100.000 194.000 131.000 M350.000 131.000 L 350.000 162.000 491.000 162.000 L 632.000 162.000 632.000 131.000 L 632.000 100.000 491.000 100.000 L 350.000 100.000 350.000 131.000 M880.996 178.004 L 803.032 255.987 771.989 224.989 L 740.946 193.991 717.481 217.518 L 694.016 241.044 748.519 295.519 L 803.021 349.994 904.522 248.478 L 1006.024 146.961 982.492 123.491 L 958.960 100.020 880.996 178.004 M194.000 225.000 L 194.000 256.000 335.000 256.000 L 476.000 256.000 476.000 225.000 L 476.000 194.000 335.000 194.000 L 194.000 194.000 194.000 225.000 M506.000 225.000 L 506.000 256.000 569.000 256.000 L 632.000 256.000 632.000 225.000 L 632.000 194.000 569.000 194.000 L 506.000 194.000 506.000 225.000 M194.000 319.000 L 194.000 350.000 288.000 350.000 L 382.000 350.000 382.000 319.000 L 382.000 288.000 288.000 288.000 L 194.000 288.000 194.000 319.000 M412.000 319.000 L 412.000 350.000 522.000 350.000 L 632.000 350.000 632.000 319.000 L 632.000 288.000 522.000 288.000 L 412.000 288.000 412.000 319.000 M194.000 459.000 L 194.000 506.000 225.000 506.000 L 256.000 506.000 256.000 459.000 L 256.000 412.000 225.000 412.000 L 194.000 412.000 194.000 459.000 M288.000 458.916 L 288.000 506.000 304.037 506.000 L 320.074 506.000 319.537 459.500 L 319.000 413.000 303.500 412.416 L 288.000 411.832 288.000 458.916 M350.000 459.000 L 350.000 506.000 381.000 506.000 L 412.000 506.000 412.000 459.000 L 412.000 412.000 381.000 412.000 L 350.000 412.000 350.000 459.000 M444.000 458.916 L 444.000 506.000 460.037 506.000 L 476.074 506.000 475.537 459.500 L 475.000 413.000 459.500 412.416 L 444.000 411.832 444.000 458.916 M506.000 458.949 L 506.000 506.000 538.037 506.000 L 570.074 506.000 569.537 459.500 L 569.000 413.000 537.500 412.449 L 506.000 411.898 506.000 458.949 M600.000 459.000 L 600.000 506.000 616.000 506.000 L 632.000 506.000 632.000 459.000 L 632.000 412.000 616.000 412.000 L 600.000 412.000 600.000 459.000 M662.000 459.000 L 662.000 506.000 678.000 506.000 L 694.000 506.000 694.000 459.000 L 694.000 412.000 678.000 412.000 L 662.000 412.000 662.000 459.000 M725.333 413.333 C 724.600 414.067,724.000 435.217,724.000 460.333 L 724.000 506.000 756.000 506.000 L 788.000 506.000 788.000 459.000 L 788.000 412.000 757.333 412.000 C 740.467 412.000,726.067 412.600,725.333 413.333 M819.333 413.333 C 818.600 414.067,818.000 435.217,818.000 460.333 L 818.000 506.000 834.000 506.000 L 850.000 506.000 850.000 459.000 L 850.000 412.000 835.333 412.000 C 827.267 412.000,820.067 412.600,819.333 413.333 M882.000 459.000 L 882.000 506.000 897.000 506.000 L 912.000 506.000 912.000 459.000 L 912.000 412.000 897.000 412.000 L 882.000 412.000 882.000 459.000 M944.000 459.000 L 944.000 506.000 975.000 506.000 L 1006.000 506.000 1006.000 459.000 L 1006.000 412.000 975.000 412.000 L 944.000 412.000 944.000 459.000 M100.000 553.000 L 100.000 568.000 600.000 568.000 L 1100.000 568.000 1100.000 553.000 L 1100.000 538.000 600.000 538.000 L 100.000 538.000 100.000 553.000 M194.000 694.000 L 194.000 788.000 225.000 788.000 L 256.000 788.000 256.000 694.000 L 256.000 600.000 225.000 600.000 L 194.000 600.000 194.000 694.000 M288.000 663.084 L 288.000 726.168 303.500 725.584 L 319.000 725.000 319.528 662.500 L 320.057 600.000 304.028 600.000 L 288.000 600.000 288.000 663.084 M350.000 663.000 L 350.000 726.000 381.000 726.000 L 412.000 726.000 412.000 663.000 L 412.000 600.000 381.000 600.000 L 350.000 600.000 350.000 663.000 M444.000 663.084 L 444.000 726.168 459.500 725.584 L 475.000 725.000 475.528 662.500 L 476.057 600.000 460.028 600.000 L 444.000 600.000 444.000 663.084 M506.472 662.500 L 507.000 725.000 538.000 725.000 L 569.000 725.000 569.528 662.500 L 570.057 600.000 538.000 600.000 L 505.943 600.000 506.472 662.500 M600.000 663.084 L 600.000 726.168 615.500 725.584 L 631.000 725.000 631.528 662.500 L 632.057 600.000 616.028 600.000 L 600.000 600.000 600.000 663.084 M662.472 662.500 L 663.000 725.000 678.500 725.584 L 694.000 726.168 694.000 663.084 L 694.000 600.000 677.972 600.000 L 661.943 600.000 662.472 662.500 M724.472 662.500 L 725.000 725.000 756.000 725.000 L 787.000 725.000 787.528 662.500 L 788.057 600.000 756.000 600.000 L 723.943 600.000 724.472 662.500 M818.472 662.500 L 819.000 725.000 834.500 725.584 L 850.000 726.168 850.000 663.084 L 850.000 600.000 833.972 600.000 L 817.943 600.000 818.472 662.500 M882.000 663.000 L 882.000 726.000 897.000 726.000 L 912.000 726.000 912.000 663.000 L 912.000 600.000 897.000 600.000 L 882.000 600.000 882.000 663.000 M944.000 694.000 L 944.000 788.000 975.000 788.000 L 1006.000 788.000 1006.000 694.000 L 1006.000 600.000 975.000 600.000 L 944.000 600.000 944.000 694.000 M194.000 881.000 L 194.000 912.000 209.000 912.000 L 224.000 912.000 224.000 928.000 L 224.000 944.000 209.000 944.000 L 194.000 944.000 194.000 975.000 L 194.000 1006.000 209.000 1006.000 L 224.000 1006.000 224.000 1037.000 L 224.000 1068.000 209.000 1068.000 L 194.000 1068.000 194.000 1084.000 L 194.000 1100.000 210.000 1100.000 L 226.000 1100.000 226.000 1084.000 L 226.000 1068.000 241.000 1068.000 L 256.000 1068.000 256.000 1084.000 L 256.000 1100.000 288.000 1100.000 L 320.000 1100.000 320.000 1085.000 L 320.000 1070.000 335.000 1070.000 L 350.000 1070.000 350.000 1085.000 L 350.000 1100.000 381.000 1100.000 L 412.000 1100.000 412.000 1085.000 L 412.000 1070.000 428.000 1070.000 L 444.000 1070.000 444.000 1023.084 L 444.000 976.168 428.500 975.584 L 413.000 975.000 412.416 959.500 L 411.832 944.000 427.916 944.000 L 444.000 944.000 444.000 928.000 L 444.000 912.000 428.000 912.000 L 412.000 912.000 412.000 897.000 L 412.000 882.000 428.000 882.000 L 444.000 882.000 444.000 866.000 L 444.000 850.000 413.000 850.000 L 382.000 850.000 382.000 866.000 L 382.000 882.000 350.000 882.000 L 318.000 882.000 318.000 897.000 L 318.000 912.000 303.000 912.000 L 288.000 912.000 288.000 897.084 L 288.000 882.168 303.500 881.584 L 319.000 881.000 319.584 865.500 L 320.168 850.000 288.084 850.000 L 256.000 850.000 256.000 881.000 L 256.000 912.000 241.000 912.000 L 226.000 912.000 226.000 881.000 L 226.000 850.000 210.000 850.000 L 194.000 850.000 194.000 881.000 M776.545 862.500 C 753.783 915.775,723.380 965.401,695.101 995.437 C 680.174 1011.292,653.571 1033.921,649.789 1033.981 C 649.123 1033.991,642.823 1026.675,635.789 1017.721 C 611.143 986.350,590.202 972.196,565.859 970.454 C 532.684 968.080,506.000 988.830,506.000 1017.000 C 506.000 1042.237,530.154 1067.146,559.015 1071.672 C 580.113 1074.980,611.041 1068.141,636.287 1054.584 L 645.573 1049.597 663.287 1067.453 C 687.090 1091.450,701.853 1099.001,724.958 1098.998 C 738.143 1098.997,742.959 1098.062,752.000 1093.748 C 773.081 1083.688,788.896 1065.609,795.395 1044.140 C 800.898 1025.962,804.722 1023.202,806.758 1035.937 C 808.150 1044.645,813.048 1048.811,818.383 1045.826 C 820.186 1044.816,825.360 1036.351,829.879 1027.014 C 839.164 1007.831,850.012 995.434,856.682 996.385 C 864.354 997.478,863.423 1008.006,854.132 1025.230 C 840.718 1050.100,843.712 1052.689,869.295 1038.341 C 888.531 1027.553,903.051 1021.963,911.570 1022.065 C 922.012 1022.191,937.176 1029.298,959.297 1044.436 C 981.441 1059.589,994.429 1064.566,1003.123 1061.229 C 1009.245 1058.880,1005.367 1053.173,996.636 1051.683 C 986.078 1049.880,978.287 1045.900,962.000 1033.988 C 939.223 1017.329,929.144 1013.108,912.000 1013.050 C 898.735 1013.006,895.182 1013.868,881.285 1020.504 C 868.999 1026.370,865.887 1027.243,867.025 1024.504 C 871.287 1014.246,874.018 1002.481,873.049 998.555 C 870.286 987.367,857.692 982.954,845.911 989.046 C 838.692 992.779,826.372 1008.057,821.049 1019.879 C 817.423 1027.932,817.006 1028.256,815.969 1023.826 C 815.035 1019.829,813.426 1018.896,806.611 1018.394 C 799.613 1017.879,798.182 1016.999,797.057 1012.516 C 793.878 999.849,779.049 988.000,766.375 988.000 C 759.091 988.000,748.462 995.068,742.548 1003.843 C 736.790 1012.388,736.598 1024.260,742.076 1033.123 C 747.108 1041.264,763.894 1050.000,774.506 1050.000 L 782.226 1050.000 778.613 1056.161 C 772.498 1066.588,759.532 1078.249,748.000 1083.694 C 722.948 1095.521,698.929 1088.309,671.403 1060.693 C 662.931 1052.194,656.000 1044.631,656.000 1043.886 C 656.000 1043.141,659.375 1040.292,663.500 1037.554 C 686.168 1022.510,715.310 991.355,736.977 959.000 C 760.545 923.807,792.025 860.162,789.334 853.148 C 786.779 846.492,781.842 850.102,776.545 862.500 M288.000 959.000 L 288.000 1006.000 272.000 1006.000 L 256.000 1006.000 256.000 991.000 L 256.000 976.000 241.000 976.000 L 226.000 976.000 226.000 960.000 L 226.000 944.000 241.000 944.000 L 256.000 944.000 256.000 928.000 L 256.000 912.000 272.000 912.000 L 288.000 912.000 288.000 959.000 M350.000 928.000 L 350.000 944.000 366.000 944.000 L 382.000 944.000 382.000 928.000 L 382.000 912.000 397.000 912.000 L 412.000 912.000 412.000 928.000 L 412.000 944.000 397.000 944.000 L 382.000 944.000 382.000 960.000 L 382.000 976.000 397.000 976.000 L 412.000 976.000 412.000 991.000 L 412.000 1006.000 381.000 1006.000 L 350.000 1006.000 350.000 1022.000 L 350.000 1038.000 335.000 1038.000 L 320.000 1038.000 320.000 1007.000 L 320.000 976.000 335.000 976.000 L 350.000 976.000 350.000 960.000 L 350.000 944.000 335.000 944.000 L 320.000 944.000 320.000 928.000 L 320.000 912.000 335.000 912.000 L 350.000 912.000 350.000 928.000 M587.893 986.937 C 593.884 989.978,603.815 997.536,609.963 1003.733 C 621.384 1015.246,640.993 1039.733,639.711 1040.882 C 639.320 1041.232,634.326 1043.866,628.614 1046.735 C 580.731 1070.785,541.105 1067.220,523.956 1037.319 C 517.073 1025.319,516.063 1011.687,521.247 1000.763 C 530.666 980.913,562.863 974.233,587.893 986.937 M781.997 1007.302 C 789.482 1015.827,790.441 1029.559,784.000 1036.000 C 777.245 1042.755,761.348 1039.556,753.129 1029.788 C 746.935 1022.428,746.692 1017.589,752.076 1008.877 C 759.565 996.760,772.159 996.097,781.997 1007.302 M318.000 1053.000 L 318.000 1068.000 287.000 1068.000 L 256.000 1068.000 256.000 1053.000 L 256.000 1038.000 287.000 1038.000 L 318.000 1038.000 318.000 1053.000 M412.000 1054.000 L 412.000 1070.000 397.000 1070.000 L 382.000 1070.000 382.000 1054.000 L 382.000 1038.000 397.000 1038.000 L 412.000 1038.000 412.000 1054.000 " fill="#1D1E23" stroke="none" fill-rule="evenodd"></path></svg>