<svg width="1200" height="1200" viewBox="0 0 1200 1200" fill="none" xmlns="http://www.w3.org/2000/svg"><path d="M832.171 303.434 C 827.315 305.149,819.581 310.314,814.983 314.911 C 798.941 330.954,800.000 310.799,800.000 600.000 C 800.000 889.135,798.947 869.052,814.947 885.053 C 834.511 904.616,865.489 904.616,885.053 885.053 C 901.053 869.052,900.000 889.135,900.000 600.000 C 900.000 310.865,901.053 330.948,885.053 314.947 C 871.176 301.071,851.185 296.718,832.171 303.434 M339.000 347.775 C 329.425 350.258,320.716 355.461,313.222 363.178 C 299.332 377.479,300.000 365.513,300.000 600.105 C 300.000 829.501,299.549 819.809,310.914 834.709 C 313.702 838.364,320.712 843.962,326.491 847.149 C 340.125 854.667,358.524 855.206,371.347 848.463 C 387.238 840.108,667.033 641.776,675.113 633.139 C 684.196 623.431,688.009 613.244,687.980 598.768 C 687.958 587.633,681.161 571.358,673.765 564.731 C 665.829 557.620,379.618 355.887,371.827 351.912 C 363.309 347.566,347.493 345.573,339.000 347.775 " fill="#1D1E23" stroke="none" fill-rule="evenodd"></path></svg>