<svg width="1200" height="1200" viewBox="0 0 1200 1200" fill="none" xmlns="http://www.w3.org/2000/svg"><path d="M332.171 303.434 C 327.315 305.149,319.581 310.314,314.983 314.911 C 298.941 330.954,300.000 310.799,300.000 600.000 C 300.000 889.135,298.947 869.052,314.947 885.053 C 334.511 904.616,365.489 904.616,385.053 885.053 C 401.053 869.052,400.000 889.135,400.000 600.000 C 400.000 310.865,401.053 330.948,385.053 314.947 C 371.176 301.071,351.185 296.718,332.171 303.434 M840.000 347.786 C 836.150 348.596,830.750 350.459,828.000 351.926 C 821.391 355.450,541.533 552.560,530.252 561.637 C 507.574 579.882,506.075 617.076,527.247 636.195 C 534.946 643.147,816.717 841.548,827.326 847.487 C 851.552 861.048,882.093 851.149,894.820 825.610 L 900.000 815.215 900.000 600.543 C 900.000 366.603,900.639 380.082,888.814 364.579 C 879.297 352.102,856.598 344.293,840.000 347.786 " fill="#1D1E23" stroke="none" fill-rule="evenodd"></path></svg>