<svg width="1200" height="1200" viewBox="0 0 1200 1200" fill="none" xmlns="http://www.w3.org/2000/svg"><path d="M281.000 151.231 C 278.800 151.676,272.090 153.036,266.089 154.255 C 222.229 163.162,179.135 199.565,161.683 242.451 C 149.467 272.469,150.000 256.143,150.000 600.000 C 150.000 943.857,149.467 927.531,161.683 957.549 C 176.054 992.864,207.136 1023.946,242.451 1038.317 C 272.469 1050.533,256.143 1050.000,600.000 1050.000 C 944.468 1050.000,928.633 1050.522,958.142 1038.184 C 993.339 1023.467,1024.069 992.562,1038.317 957.549 C 1050.533 927.531,1050.000 943.857,1050.000 600.000 C 1050.000 321.485,1049.641 284.082,1046.840 270.416 C 1035.336 214.306,996.236 172.957,937.000 154.257 C 928.083 151.442,892.246 151.064,606.000 150.761 C 429.450 150.575,283.200 150.786,281.000 151.231 M917.009 253.312 C 922.825 255.294,930.145 260.040,935.233 265.127 C 951.062 280.956,950.000 256.882,950.000 600.000 C 950.000 943.118,951.062 919.044,935.233 934.873 C 918.905 951.200,945.501 950.000,600.000 950.000 C 254.861 950.000,281.064 951.169,264.947 935.053 C 248.831 918.936,250.000 945.139,250.000 600.000 C 250.000 254.788,248.825 281.070,264.983 264.911 C 280.716 249.179,254.540 250.334,599.144 250.158 C 880.976 250.013,908.118 250.283,917.009 253.312 M510.761 431.819 C 507.330 433.912,503.505 438.542,502.261 442.110 C 500.656 446.714,500.000 492.653,500.000 600.363 C 500.000 763.421,499.952 762.622,510.109 768.059 C 519.337 772.997,526.304 773.927,533.027 771.118 C 541.155 767.721,728.999 617.608,731.897 612.192 C 734.607 607.129,734.607 592.871,731.897 587.808 C 729.819 583.925,544.625 434.616,536.479 430.256 C 530.062 426.822,517.727 427.571,510.761 431.819 " fill="#1D1E23" stroke="none" fill-rule="evenodd"></path></svg>