<svg width="1200" height="1200" viewBox="0 0 1200 1200" fill="none" xmlns="http://www.w3.org/2000/svg"><path d="M150.000 600.000 L 150.000 1050.000 600.000 1050.000 L 1050.000 1050.000 1050.000 600.000 L 1050.000 150.000 600.000 150.000 L 150.000 150.000 150.000 600.000 M950.000 600.000 L 950.000 950.000 600.000 950.000 L 250.000 950.000 250.000 600.000 L 250.000 250.000 600.000 250.000 L 950.000 250.000 950.000 600.000 M500.000 600.000 L 500.000 800.020 624.000 700.807 C 692.200 646.240,748.000 600.877,748.000 600.000 C 748.000 599.123,692.200 553.760,624.000 499.193 L 500.000 399.980 500.000 600.000 " fill="#1D1E23" stroke="none" fill-rule="evenodd"></path></svg>