<svg width="1200" height="1200" viewBox="0 0 1200 1200" fill="none" xmlns="http://www.w3.org/2000/svg"><path d="M565.671 403.087 C 491.721 414.606,426.367 467.590,397.988 539.031 C 394.546 547.696,389.661 563.384,387.134 573.893 L 382.538 593.000 332.769 593.507 L 283.000 594.015 277.196 581.519 C 269.534 565.020,251.224 546.745,234.000 538.405 C 181.053 512.768,118.233 542.840,103.062 601.083 C 88.936 655.318,125.408 711.225,180.916 720.423 C 197.594 723.187,216.463 720.139,233.992 711.849 C 249.708 704.416,269.292 685.075,276.872 669.500 L 282.469 658.000 332.753 658.000 L 383.036 658.000 386.684 674.500 C 396.228 717.667,422.014 763.470,452.473 791.357 C 478.427 815.120,513.335 834.311,547.047 843.351 C 564.866 848.129,570.530 848.701,600.000 848.701 C 629.261 848.701,635.200 848.110,652.412 843.488 C 721.838 824.844,776.036 776.308,802.589 709.000 C 806.495 699.100,811.263 683.575,813.186 674.500 L 816.681 658.000 867.106 658.000 L 917.531 658.000 923.128 669.500 C 940.160 704.497,982.866 726.775,1020.147 720.112 C 1075.395 710.239,1110.784 655.403,1096.832 601.289 C 1081.748 542.788,1019.118 512.685,966.000 538.405 C 948.776 546.745,930.466 565.020,922.804 581.519 L 917.000 594.015 867.198 593.507 L 817.395 593.000 811.909 571.000 C 808.891 558.900,803.625 542.520,800.207 534.601 C 759.720 440.796,664.905 387.629,565.671 403.087 M540.248 525.720 C 533.558 533.266,526.940 540.351,525.542 541.464 C 524.144 542.577,513.069 543.936,500.932 544.483 C 476.310 545.593,467.821 548.627,456.585 560.332 C 445.521 571.858,444.000 579.675,444.000 625.000 C 444.000 670.325,445.521 678.142,456.585 689.668 C 460.113 693.343,466.600 698.297,471.000 700.675 C 478.537 704.750,482.098 705.036,532.576 705.620 C 592.312 706.311,601.038 705.078,614.320 694.071 C 618.347 690.735,623.747 683.729,626.320 678.502 C 630.738 669.533,631.037 666.448,631.664 623.500 L 632.327 578.000 647.164 578.000 L 662.000 578.000 662.000 623.637 C 662.000 659.437,661.315 671.615,658.823 680.137 C 650.607 708.235,627.112 730.164,598.961 736.008 C 591.787 737.497,568.580 738.041,531.512 737.587 C 478.693 736.941,474.275 736.606,463.904 732.456 C 441.740 723.585,425.765 707.095,417.496 684.550 C 413.860 674.634,413.142 667.413,412.422 633.518 C 411.489 589.621,413.368 573.316,421.287 556.577 C 430.993 536.061,453.565 518.600,476.091 514.185 C 480.991 513.224,500.168 512.340,518.706 512.219 L 552.412 512.000 540.248 525.720 M735.188 517.257 C 758.187 526.561,774.236 542.908,782.504 565.450 C 786.140 575.366,786.858 582.587,787.578 616.482 C 788.108 641.447,787.558 660.895,786.082 669.374 C 780.005 704.269,756.545 729.026,722.934 736.011 C 717.398 737.162,698.307 737.855,680.508 737.552 L 648.148 737.000 662.574 721.588 L 677.000 706.176 699.000 705.489 C 716.779 704.935,722.590 703.972,729.285 700.470 C 739.710 695.019,750.657 682.370,753.679 672.283 C 756.791 661.896,756.791 588.104,753.679 577.717 C 750.673 567.685,739.764 555.035,729.285 549.431 C 721.288 545.154,719.022 545.000,664.000 545.000 C 599.334 545.000,596.383 545.512,582.822 559.072 C 569.693 572.202,568.000 580.457,568.000 631.363 L 568.000 674.000 553.000 674.000 L 538.000 674.000 538.000 627.363 C 538.000 575.829,539.440 566.739,550.317 549.606 C 561.623 531.797,582.437 517.395,601.863 513.939 C 606.888 513.044,636.650 512.498,668.000 512.724 C 720.377 513.102,725.826 513.470,735.188 517.257 M219.311 567.020 C 229.910 571.734,246.000 586.336,246.000 591.241 C 246.000 593.471,239.869 594.000,214.006 594.000 L 182.012 594.000 174.020 601.220 C 159.519 614.320,158.460 631.856,171.310 646.080 C 180.539 656.296,187.336 657.975,219.500 657.989 C 234.075 657.995,246.000 658.791,246.000 659.759 C 246.000 663.786,228.875 678.732,219.311 683.053 C 198.204 692.588,177.597 690.795,158.678 677.778 C 120.691 651.642,123.591 591.186,163.885 569.256 C 181.819 559.495,200.680 558.734,219.311 567.020 M1033.416 568.253 C 1055.442 578.746,1068.000 599.372,1068.000 625.054 C 1068.000 655.181,1050.346 678.555,1021.189 687.031 C 1007.439 691.028,995.817 689.887,980.689 683.053 C 971.125 678.732,954.000 663.786,954.000 659.759 C 954.000 658.791,965.925 657.995,980.500 657.989 C 1012.664 657.975,1019.461 656.296,1028.690 646.080 C 1041.540 631.856,1040.481 614.320,1025.980 601.220 L 1017.988 594.000 985.994 594.000 C 949.587 594.000,948.980 593.655,961.917 580.324 C 981.388 560.261,1007.417 555.866,1033.416 568.253 " fill="#1D1E23" stroke="none" fill-rule="evenodd"></path></svg>