<svg width="1200" height="1200" viewBox="0 0 1200 1200" fill="none" xmlns="http://www.w3.org/2000/svg"><path d="M142.665 103.679 C 124.138 110.122,111.019 123.043,103.853 141.903 C 100.128 151.706,100.000 159.903,100.000 388.946 L 100.000 625.850 104.282 637.425 C 110.072 653.079,124.921 667.928,140.575 673.718 C 152.108 677.984,152.857 678.000,345.075 678.000 L 538.000 678.000 538.024 507.500 C 538.043 371.520,538.589 334.975,540.723 327.000 C 547.551 301.474,566.535 277.970,589.588 266.496 C 596.582 263.015,608.865 259.107,617.230 257.702 L 632.283 255.172 631.642 202.036 L 631.000 148.899 624.410 135.521 C 617.385 121.260,608.972 112.942,594.061 105.514 L 585.000 101.000 369.000 100.543 C 165.612 100.112,152.397 100.295,142.665 103.679 M194.000 170.000 L 194.000 178.000 202.000 178.000 L 210.000 178.000 210.000 186.000 C 210.000 193.783,210.187 194.000,216.879 194.000 C 223.385 194.000,223.792 194.407,224.379 201.500 C 224.964 208.570,225.424 209.035,232.386 209.614 C 239.326 210.191,239.809 210.674,240.386 217.614 C 240.965 224.576,241.430 225.036,248.500 225.621 L 256.000 226.241 256.000 241.121 L 256.000 256.000 248.000 256.000 L 240.000 256.000 240.000 264.000 L 240.000 272.000 232.000 272.000 L 224.000 272.000 224.000 280.000 C 224.000 287.783,223.813 288.000,217.121 288.000 C 210.615 288.000,210.208 288.407,209.621 295.500 C 209.034 302.593,208.593 303.034,201.500 303.621 C 194.407 304.208,194.000 304.615,194.000 311.121 L 194.000 318.000 178.000 318.000 L 162.000 318.000 162.000 311.000 C 162.000 304.167,162.190 304.000,170.000 304.000 L 178.000 304.000 178.000 296.000 L 178.000 288.000 186.000 288.000 L 194.000 288.000 194.000 280.000 L 194.000 272.000 202.000 272.000 L 210.000 272.000 210.000 264.000 L 210.000 256.000 218.000 256.000 L 226.000 256.000 226.000 241.000 L 226.000 226.000 218.000 226.000 L 210.000 226.000 210.000 218.000 L 210.000 210.000 202.000 210.000 L 194.000 210.000 194.000 202.000 L 194.000 194.000 186.000 194.000 L 178.000 194.000 178.000 186.000 L 178.000 178.000 170.000 178.000 L 162.000 178.000 162.000 170.000 L 162.000 162.000 178.000 162.000 L 194.000 162.000 194.000 170.000 M366.000 170.000 L 366.000 178.000 374.028 178.000 L 382.057 178.000 381.528 240.500 L 381.000 303.000 373.500 303.621 C 366.407 304.208,366.000 304.615,366.000 311.121 L 366.000 318.000 335.000 318.000 L 304.000 318.000 304.000 311.000 C 304.000 304.167,303.810 304.000,296.000 304.000 L 288.000 304.000 288.000 241.000 L 288.000 178.000 296.000 178.000 L 304.000 178.000 304.000 170.000 L 304.000 162.000 335.000 162.000 L 366.000 162.000 366.000 170.000 M474.000 240.000 L 474.000 318.000 459.000 318.000 L 444.000 318.000 444.000 256.000 L 444.000 194.000 428.000 194.000 L 412.000 194.000 412.000 178.000 L 412.000 162.000 443.000 162.000 L 474.000 162.000 474.000 240.000 M318.463 240.500 L 319.000 287.000 334.500 287.584 L 350.000 288.168 350.000 241.084 L 350.000 194.000 333.963 194.000 L 317.926 194.000 318.463 240.500 M611.765 290.743 C 593.269 297.399,578.529 311.703,572.567 328.781 C 569.207 338.408,569.000 356.041,569.000 633.000 L 569.000 927.000 574.601 938.405 C 581.402 952.255,596.497 966.366,609.512 971.039 C 621.030 975.175,674.000 977.881,674.000 974.334 C 674.000 971.561,658.954 952.877,642.887 935.699 C 614.796 905.665,608.160 871.106,625.087 842.996 L 632.000 831.515 632.000 590.758 L 632.000 350.000 835.071 350.000 L 1038.142 350.000 1037.571 662.944 L 1037.000 975.888 1045.000 974.725 C 1065.487 971.745,1084.956 957.535,1094.154 938.846 L 1099.000 929.000 1099.000 631.000 L 1099.000 333.000 1094.288 324.000 C 1087.868 311.738,1076.985 300.712,1065.000 294.327 L 1055.000 289.000 837.000 288.570 C 662.153 288.225,617.568 288.655,611.765 290.743 M240.379 389.500 C 240.966 396.593,241.407 397.034,248.500 397.621 L 256.000 398.241 256.000 460.121 L 256.000 522.000 248.000 522.000 L 240.000 522.000 240.000 530.000 L 240.000 538.000 209.000 538.000 L 178.000 538.000 178.000 530.000 L 178.000 522.000 170.000 522.000 L 162.000 522.000 162.000 460.000 L 162.000 398.000 170.000 398.000 L 178.000 398.000 178.000 390.000 L 178.000 382.000 208.879 382.000 L 239.759 382.000 240.379 389.500 M350.000 460.000 L 350.000 538.000 335.028 538.000 L 320.057 538.000 319.528 475.500 L 319.000 413.000 303.500 412.416 L 288.000 411.832 288.000 396.916 L 288.000 382.000 319.000 382.000 L 350.000 382.000 350.000 460.000 M460.000 390.000 C 460.000 397.810,460.167 398.000,467.000 398.000 L 474.000 398.000 474.000 460.000 L 474.000 522.000 467.000 522.000 C 460.167 522.000,460.000 522.190,460.000 530.000 L 460.000 538.000 429.000 538.000 L 398.000 538.000 398.000 530.000 L 398.000 522.000 390.000 522.000 L 382.000 522.000 382.000 460.121 L 382.000 398.241 389.500 397.621 C 396.593 397.034,397.034 396.593,397.621 389.500 L 398.241 382.000 429.121 382.000 L 460.000 382.000 460.000 390.000 M662.000 460.000 L 662.000 538.000 834.000 538.000 L 1006.000 538.000 1006.000 460.000 L 1006.000 382.000 834.000 382.000 L 662.000 382.000 662.000 460.000 M194.000 458.916 L 194.000 506.000 210.037 506.000 L 226.074 506.000 225.537 459.500 L 225.000 413.000 209.500 412.416 L 194.000 411.832 194.000 458.916 M412.000 459.000 L 412.000 506.000 428.000 506.000 L 444.000 506.000 444.000 459.000 L 444.000 412.000 428.000 412.000 L 412.000 412.000 412.000 459.000 M662.000 662.000 L 662.000 756.000 694.000 756.000 L 726.000 756.000 726.000 702.319 L 726.000 648.639 732.073 636.487 C 739.002 622.619,750.332 611.468,763.755 605.304 C 776.933 599.252,799.593 599.498,812.000 605.827 C 824.153 612.027,837.202 624.871,843.668 637.000 L 849.000 647.000 849.643 701.500 L 850.286 756.000 928.143 756.000 L 1006.000 756.000 1006.000 662.000 L 1006.000 568.000 834.000 568.000 L 662.000 568.000 662.000 662.000 M772.777 635.810 C 769.355 637.897,764.405 642.618,761.777 646.302 L 757.000 653.000 756.455 774.722 L 755.909 896.444 740.455 881.719 C 714.462 856.952,694.768 845.696,676.656 845.253 C 652.867 844.671,640.251 869.222,651.449 894.306 C 653.734 899.424,661.994 910.504,669.805 918.928 C 688.276 938.849,701.639 956.631,732.986 1003.000 C 778.563 1070.418,794.363 1088.320,814.477 1095.332 C 829.197 1100.463,890.738 1100.496,909.751 1095.383 C 930.613 1089.773,949.431 1078.780,965.012 1063.100 C 986.248 1041.731,998.349 1015.408,1003.850 978.617 C 1006.663 959.799,1006.676 880.044,1003.867 872.630 C 999.340 860.684,984.001 850.000,971.375 850.000 C 962.644 850.000,951.953 857.184,947.503 866.040 L 944.006 873.000 943.959 859.000 C 943.876 834.110,932.673 819.651,913.494 819.679 C 899.672 819.699,891.080 824.802,884.334 837.000 C 882.532 840.258,882.110 838.576,882.061 827.924 C 881.949 803.940,869.221 787.992,850.204 788.007 C 839.158 788.016,829.587 793.301,823.989 802.482 L 820.015 809.000 819.960 738.000 C 819.929 698.950,819.086 663.470,818.085 659.155 C 813.027 637.347,789.845 625.402,772.777 635.810 " fill="#1D1E23" stroke="none" fill-rule="evenodd"></path></svg>