<svg width="1200" height="1200" viewBox="0 0 1200 1200" fill="none" xmlns="http://www.w3.org/2000/svg"><path d="M342.665 103.685 C 324.145 110.116,311.021 123.039,303.853 141.903 C 300.091 151.804,300.000 162.591,300.000 599.946 L 300.000 1047.850 304.308 1059.363 C 310.120 1074.898,325.102 1089.880,340.637 1095.692 C 351.882 1099.900,354.573 1100.000,456.075 1100.000 C 513.234 1100.000,560.000 1099.379,560.000 1098.619 C 560.000 1096.466,520.965 1045.410,509.476 1032.536 C 503.814 1026.191,493.195 1014.700,485.879 1007.000 C 478.563 999.300,470.629 989.175,468.248 984.500 L 463.919 976.000 397.959 976.000 L 332.000 976.000 332.000 601.000 L 332.000 226.000 582.000 226.000 L 832.000 226.000 832.000 536.973 L 832.000 847.946 839.500 851.063 C 843.625 852.778,850.375 856.882,854.500 860.185 L 862.000 866.188 862.000 508.451 C 862.000 185.205,861.690 149.804,858.788 141.285 C 854.416 128.455,838.776 111.746,825.540 105.764 L 815.000 101.000 584.000 100.548 C 366.322 100.122,352.404 100.303,342.665 103.685 M670.000 136.000 C 672.476 138.476,674.000 142.667,674.000 147.000 C 674.000 151.333,672.476 155.524,670.000 158.000 C 666.155 161.845,663.333 162.000,597.000 162.000 C 530.667 162.000,527.845 161.845,524.000 158.000 C 521.524 155.524,520.000 151.333,520.000 147.000 C 520.000 142.667,521.524 138.476,524.000 136.000 C 527.845 132.155,530.667 132.000,597.000 132.000 C 663.333 132.000,666.155 132.155,670.000 136.000 M362.000 538.000 L 362.000 788.000 476.000 788.000 L 590.000 788.000 590.000 772.000 L 590.000 756.000 492.000 756.000 L 394.000 756.000 394.000 569.000 L 394.000 382.000 581.000 382.000 L 768.000 382.000 768.000 569.000 L 768.000 756.000 748.000 756.000 L 728.000 756.000 728.000 772.000 L 728.000 788.000 764.000 788.000 L 800.000 788.000 800.000 538.000 L 800.000 288.000 581.000 288.000 L 362.000 288.000 362.000 538.000 M644.000 335.000 L 644.000 350.000 628.000 350.000 L 612.000 350.000 612.000 335.000 L 612.000 320.000 628.000 320.000 L 644.000 320.000 644.000 335.000 M706.000 335.000 L 706.000 350.000 691.000 350.000 L 676.000 350.000 676.000 335.000 L 676.000 320.000 691.000 320.000 L 706.000 320.000 706.000 335.000 M768.000 335.000 L 768.000 350.000 753.000 350.000 L 738.000 350.000 738.000 335.000 L 738.000 320.000 753.000 320.000 L 768.000 320.000 768.000 335.000 M425.333 413.333 C 424.600 414.067,424.000 421.267,424.000 429.333 L 424.000 444.000 440.000 444.000 L 456.000 444.000 456.000 460.000 L 456.000 476.000 472.000 476.000 L 488.000 476.000 488.000 491.000 L 488.000 506.000 503.000 506.000 L 518.000 506.000 518.000 522.000 L 518.000 538.000 534.000 538.000 L 550.000 538.000 550.000 554.084 L 550.000 570.168 565.500 569.584 L 581.000 569.000 581.584 553.500 L 582.168 538.000 566.084 538.000 L 550.000 538.000 550.000 522.000 L 550.000 506.000 534.000 506.000 L 518.000 506.000 518.000 491.000 L 518.000 476.000 503.000 476.000 L 488.000 476.000 488.000 460.000 L 488.000 444.000 472.000 444.000 L 456.000 444.000 456.000 428.000 L 456.000 412.000 441.333 412.000 C 433.267 412.000,426.067 412.600,425.333 413.333 M644.000 427.916 L 644.000 444.000 658.916 444.000 L 673.832 444.000 674.416 459.500 L 675.000 475.000 690.500 475.584 L 706.000 476.168 706.000 491.000 L 706.000 505.832 690.500 506.416 L 675.000 507.000 674.416 522.500 L 673.832 538.000 658.916 538.000 L 644.000 538.000 644.000 554.084 L 644.000 570.168 659.500 569.584 L 675.000 569.000 675.584 553.500 L 676.168 538.000 691.084 538.000 L 706.000 538.000 706.000 522.000 L 706.000 506.000 722.000 506.000 L 738.000 506.000 738.000 491.000 L 738.000 476.000 722.000 476.000 L 706.000 476.000 706.000 460.000 L 706.000 444.000 691.084 444.000 L 676.168 444.000 675.584 428.500 L 675.000 413.000 659.500 412.416 L 644.000 411.832 644.000 427.916 M647.275 664.930 C 637.416 668.444,628.506 676.818,623.792 687.000 C 620.303 694.535,620.085 702.874,620.044 830.371 L 620.000 965.742 604.726 950.665 C 574.896 921.221,549.555 905.987,528.000 904.542 C 516.215 903.753,514.139 904.226,505.788 909.609 C 489.523 920.092,483.997 939.538,491.240 960.796 C 493.538 967.541,499.389 975.563,511.370 988.397 C 535.759 1014.520,552.058 1034.407,577.195 1068.711 L 599.390 1099.000 762.695 1099.512 L 926.000 1100.023 925.989 1025.512 C 925.982 977.800,925.191 948.123,923.789 943.000 C 920.892 932.411,905.844 917.785,894.282 914.321 C 878.355 909.549,861.117 916.012,853.994 929.427 L 850.582 935.853 849.357 919.977 C 847.882 900.844,842.890 889.969,832.394 883.023 C 812.385 869.782,785.576 877.306,775.759 898.917 L 772.088 907.000 772.041 887.000 C 771.987 863.926,769.371 856.776,757.520 847.308 C 748.902 840.424,733.092 838.009,721.558 841.816 C 713.104 844.606,702.217 854.933,699.225 863.000 C 697.514 867.614,696.769 847.946,696.000 777.842 L 695.000 686.684 689.234 679.127 C 683.390 671.467,666.534 661.979,659.000 662.107 C 656.800 662.145,651.524 663.415,647.275 664.930 M451.091 1010.909 C 457.050 1016.869,457.499 1025.705,452.177 1032.278 C 448.554 1036.753,447.130 1037.000,425.000 1037.000 C 402.870 1037.000,401.446 1036.753,397.823 1032.278 C 392.501 1025.705,392.950 1016.869,398.909 1010.909 C 403.503 1006.315,405.177 1006.000,425.000 1006.000 C 444.823 1006.000,446.497 1006.315,451.091 1010.909 " fill="#1D1E23" stroke="none" fill-rule="evenodd"></path></svg>