<svg width="1200" height="1200" viewBox="0 0 1200 1200" fill="none" xmlns="http://www.w3.org/2000/svg"><path d="M334.000 51.340 C 323.722 52.974,304.657 60.749,294.526 67.438 C 273.539 81.296,257.312 105.132,252.210 129.598 C 249.077 144.622,249.077 1055.378,252.210 1070.402 C 260.026 1107.883,292.117 1139.974,329.598 1147.790 C 344.519 1150.901,855.481 1150.901,870.402 1147.790 C 907.883 1139.974,939.974 1107.883,947.790 1070.402 C 949.366 1062.842,950.000 927.774,950.000 599.322 C 950.000 95.927,950.762 129.208,938.662 104.235 C 926.341 78.805,894.413 56.185,865.000 52.048 C 851.727 50.182,345.534 49.506,334.000 51.340 M850.000 600.000 L 850.000 950.000 600.000 950.000 L 350.000 950.000 350.000 600.000 L 350.000 250.000 600.000 250.000 L 850.000 250.000 850.000 600.000 " fill="#1D1E23" stroke="none" fill-rule="evenodd"></path></svg>