<svg width="1200" height="1200" viewBox="0 0 1200 1200" fill="none" xmlns="http://www.w3.org/2000/svg"><path d="M100.000 600.493 L 100.000 1100.985 200.507 1000.493 L 301.015 900.000 700.507 900.000 L 1100.000 900.000 1100.000 500.000 L 1100.000 100.000 600.000 100.000 L 100.000 100.000 100.000 600.493 M450.000 500.000 L 450.000 550.000 400.000 550.000 L 350.000 550.000 350.000 500.000 L 350.000 450.000 400.000 450.000 L 450.000 450.000 450.000 500.000 M650.000 500.000 L 650.000 550.000 600.000 550.000 L 550.000 550.000 550.000 500.000 L 550.000 450.000 600.000 450.000 L 650.000 450.000 650.000 500.000 M850.000 500.000 L 850.000 550.000 800.000 550.000 L 750.000 550.000 750.000 500.000 L 750.000 450.000 800.000 450.000 L 850.000 450.000 850.000 500.000 " fill="#1D1E23" stroke="none" fill-rule="evenodd"></path></svg>