<svg width="1200" height="1200" viewBox="0 0 1200 1200" fill="none" xmlns="http://www.w3.org/2000/svg"><path d="M180.113 102.167 C 153.459 107.435,124.394 129.448,112.203 153.598 C 99.240 179.277,100.062 146.032,100.030 645.993 L 100.000 1100.985 200.507 1000.493 L 301.015 900.000 655.409 900.000 C 906.411 900.000,1012.895 899.355,1020.402 897.790 C 1057.883 889.974,1089.974 857.883,1097.790 820.402 C 1100.909 805.443,1100.909 194.557,1097.790 179.598 C 1090.894 146.531,1067.041 119.355,1033.000 105.784 L 1021.000 101.000 605.000 100.705 C 372.779 100.541,185.074 101.186,180.113 102.167 M450.000 500.000 L 450.000 550.000 400.000 550.000 L 350.000 550.000 350.000 500.000 L 350.000 450.000 400.000 450.000 L 450.000 450.000 450.000 500.000 M650.000 500.000 L 650.000 550.000 600.000 550.000 L 550.000 550.000 550.000 500.000 L 550.000 450.000 600.000 450.000 L 650.000 450.000 650.000 500.000 M850.000 500.000 L 850.000 550.000 800.000 550.000 L 750.000 550.000 750.000 500.000 L 750.000 450.000 800.000 450.000 L 850.000 450.000 850.000 500.000 " fill="#1D1E23" stroke="none" fill-rule="evenodd"></path></svg>