<svg width="1200" height="1200" viewBox="0 0 1200 1200" fill="none" xmlns="http://www.w3.org/2000/svg"><path d="M885.000 153.780 C 875.318 158.249,869.225 164.580,865.095 174.463 C 862.340 181.057,862.000 221.607,862.000 543.356 L 862.000 904.840 806.427 849.496 C 770.349 813.567,748.271 793.073,743.491 791.076 C 734.927 787.498,722.657 787.094,714.630 790.127 C 702.419 794.741,690.144 811.934,690.044 824.564 C 689.937 838.095,695.207 844.067,798.314 947.251 L 900.487 1049.502 1001.744 947.625 C 1063.700 885.288,1104.338 842.886,1106.448 838.374 C 1110.890 828.872,1110.821 820.963,1106.208 811.000 C 1096.983 791.075,1076.329 782.795,1056.509 791.076 C 1051.729 793.073,1029.651 813.567,993.573 849.496 L 938.000 904.840 937.956 542.920 C 937.914 195.329,937.766 180.683,934.220 173.000 C 925.173 153.398,903.860 145.076,885.000 153.780 M398.000 228.241 C 391.611 230.782,382.449 239.456,378.821 246.401 C 372.572 258.363,376.968 281.026,387.360 290.424 C 397.569 299.655,401.213 300.003,487.436 299.956 C 562.456 299.916,569.642 299.616,577.000 296.220 C 595.988 287.457,604.590 266.857,596.924 248.509 C 592.954 239.008,588.745 234.465,579.580 229.787 C 572.632 226.241,566.773 226.008,487.580 226.127 C 436.541 226.203,401.017 227.042,398.000 228.241 M250.290 452.140 C 241.445 455.683,233.912 462.331,229.955 470.089 C 225.272 479.268,224.715 495.739,228.821 503.599 C 232.610 510.851,241.733 519.267,248.630 521.873 C 252.436 523.311,305.768 524.000,413.210 524.000 C 565.236 524.000,572.483 523.835,579.580 520.213 C 607.617 505.903,606.115 467.218,577.000 453.780 C 569.432 450.287,560.515 450.092,412.000 450.171 C 318.513 450.220,253.095 451.017,250.290 452.140 M98.000 678.241 C 91.611 680.782,82.449 689.456,78.821 696.401 C 72.572 708.363,76.968 731.026,87.360 740.424 C 98.340 750.352,89.182 750.003,337.436 749.956 C 558.292 749.914,569.370 749.741,577.000 746.220 C 595.988 737.457,604.590 716.857,596.924 698.509 C 592.954 689.008,588.745 684.465,579.580 679.787 C 572.419 676.132,563.956 676.004,337.580 676.127 C 187.137 676.208,101.207 676.967,98.000 678.241 " fill="#1D1E23" stroke="none" fill-rule="evenodd"></path></svg>