<svg width="1200" height="1200" viewBox="0 0 1200 1200" fill="none" xmlns="http://www.w3.org/2000/svg"><path d="M897.000 203.668 C 887.272 208.294,881.201 214.636,877.095 224.463 C 874.344 231.048,874.000 268.399,874.000 560.423 L 874.000 888.975 813.500 828.559 C 751.048 766.194,745.763 761.956,730.564 762.044 C 710.743 762.159,692.022 780.595,692.022 800.000 C 692.022 814.425,693.724 816.379,793.667 916.706 C 849.164 972.416,893.766 1015.613,897.436 1017.206 C 906.543 1021.160,920.838 1020.687,929.580 1016.142 C 933.661 1014.021,979.875 969.246,1032.277 916.642 C 1108.417 840.210,1128.047 819.447,1130.009 813.267 C 1139.368 783.791,1113.426 756.192,1083.725 764.026 C 1076.050 766.050,1067.598 773.704,1013.523 827.597 L 952.047 888.867 951.523 558.933 L 951.000 229.000 946.460 220.502 C 937.163 203.097,914.454 195.368,897.000 203.668 M401.000 249.773 C 367.354 265.271,364.511 310.592,395.998 329.500 L 406.823 336.000 486.476 336.000 C 553.962 336.000,567.264 335.526,573.564 332.894 C 604.022 320.171,610.385 277.446,584.946 256.476 C 572.762 246.434,568.605 245.997,485.768 246.044 C 415.471 246.084,408.326 246.398,401.000 249.773 M267.000 476.413 C 263.700 477.567,258.095 480.676,254.545 483.323 C 232.725 499.590,231.626 535.525,252.412 553.051 C 265.866 564.396,259.847 564.000,419.000 564.000 C 578.153 564.000,572.134 564.396,585.588 553.051 C 606.062 535.788,605.742 501.619,584.946 484.476 C 581.002 481.225,574.346 477.538,570.155 476.283 C 559.945 473.224,275.775 473.346,267.000 476.413 M127.000 705.731 C 116.712 710.417,104.855 723.596,102.144 733.358 C 97.606 749.700,100.547 763.246,111.380 775.902 C 126.179 793.191,107.045 791.906,350.564 791.956 C 584.034 792.004,571.933 792.565,585.588 781.051 C 606.249 763.630,605.741 729.626,584.558 712.152 C 580.401 708.723,573.850 705.041,570.000 703.970 C 565.655 702.761,481.820 702.035,349.000 702.055 C 146.281 702.086,134.578 702.280,127.000 705.731 " fill="#1D1E23" stroke="none" fill-rule="evenodd"></path></svg>