<svg width="1200" height="1200" viewBox="0 0 1200 1200" fill="none" xmlns="http://www.w3.org/2000/svg"><path d="M250.000 600.000 L 250.000 1100.000 600.000 1100.000 L 950.000 1100.000 950.000 600.000 L 950.000 100.000 600.000 100.000 L 250.000 100.000 250.000 600.000 M633.087 206.186 C 662.422 217.118,682.554 237.194,694.067 267.000 C 697.858 276.814,698.703 282.826,698.703 300.000 C 698.703 317.174,697.858 323.186,694.067 333.000 C 666.897 403.340,582.164 422.519,529.823 370.177 C 499.437 339.791,491.806 295.195,510.333 256.265 C 522.564 230.562,551.439 207.843,579.020 202.219 C 593.983 199.168,619.222 201.020,633.087 206.186 M630.052 502.078 C 668.433 506.784,707.677 521.604,741.186 544.045 C 761.456 557.620,792.380 588.544,805.955 608.814 C 855.877 683.357,863.557 776.900,826.182 855.186 C 792.067 926.645,733.927 974.038,656.548 993.463 C 624.876 1001.414,575.124 1001.414,543.452 993.463 C 466.073 974.038,407.933 926.645,373.818 855.186 C 342.626 789.852,342.626 710.148,373.818 644.814 C 387.530 616.092,401.784 595.851,423.818 573.818 C 478.768 518.867,553.883 492.738,630.052 502.078 M581.000 601.113 C 578.800 601.623,572.090 603.036,566.089 604.255 C 541.774 609.193,512.737 625.526,493.386 645.150 C 450.799 688.340,438.600 750.828,461.683 807.549 C 476.054 842.864,507.136 873.946,542.451 888.317 C 570.532 899.745,600.830 902.755,629.067 896.923 C 689.234 884.495,734.495 839.234,746.923 779.067 C 752.755 750.830,749.745 720.532,738.317 692.451 C 721.278 650.579,682.958 617.370,637.000 604.646 C 626.873 601.842,588.348 599.411,581.000 601.113 " fill="#1D1E23" stroke="none" fill-rule="evenodd"></path></svg>