<svg width="1200" height="1200" viewBox="0 0 1200 1200" fill="none" xmlns="http://www.w3.org/2000/svg"><path d="M421.000 101.356 C 381.049 106.916,342.993 135.595,325.931 173.000 C 315.143 196.651,313.827 208.671,314.441 277.919 L 315.000 340.837 327.000 343.331 C 348.136 347.724,346.000 354.170,346.000 286.000 L 346.000 226.000 580.000 226.000 L 814.000 226.000 814.000 286.256 L 814.000 346.511 822.500 345.175 C 827.175 344.439,834.438 342.923,838.640 341.804 L 846.279 339.771 845.548 271.385 C 844.856 206.661,844.572 202.250,840.248 189.000 C 827.474 149.858,797.869 119.851,758.000 105.635 L 745.000 101.000 586.000 100.760 C 498.550 100.629,424.300 100.897,421.000 101.356 M648.631 164.327 C 658.462 169.563,660.879 179.999,654.179 188.278 L 650.357 193.000 581.163 193.575 L 511.968 194.150 506.984 189.166 C 498.937 181.118,500.746 169.918,511.000 164.309 C 516.757 161.161,642.717 161.176,648.631 164.327 M514.942 258.472 C 514.418 259.863,506.506 283.500,497.360 311.000 L 480.732 361.000 462.866 370.524 C 453.040 375.762,440.217 383.336,434.372 387.356 L 423.744 394.663 372.372 384.223 C 344.117 378.481,319.531 373.355,317.735 372.831 C 315.236 372.103,307.905 383.266,286.474 420.440 C 271.076 447.148,256.525 472.300,254.140 476.333 L 249.802 483.666 286.260 524.802 L 322.718 565.939 322.718 599.897 L 322.718 633.856 286.310 674.923 L 249.902 715.991 282.236 772.040 C 306.718 814.480,315.350 827.866,317.785 827.172 C 319.553 826.668,344.118 821.549,372.374 815.797 L 423.748 805.339 434.374 812.646 C 440.218 816.664,453.042 824.238,462.870 829.476 L 480.740 839.000 498.037 891.000 L 515.334 943.000 580.000 943.000 L 644.666 943.000 661.939 891.000 L 679.212 839.000 694.298 831.000 C 702.596 826.600,715.438 819.027,722.836 814.171 L 736.287 805.343 787.644 815.780 C 815.890 821.520,840.383 826.618,842.074 827.108 C 844.172 827.716,847.439 824.030,852.363 815.500 C 856.331 808.625,870.881 783.435,884.697 759.522 L 909.816 716.043 873.468 674.944 L 837.119 633.846 837.051 599.928 L 836.982 566.011 873.443 524.850 L 909.904 483.689 904.452 474.289 C 901.453 469.118,886.935 443.972,872.188 418.408 C 852.098 383.582,844.576 372.156,842.188 372.837 C 840.435 373.336,815.909 378.445,787.686 384.190 L 736.372 394.636 724.686 386.850 C 718.259 382.567,705.408 374.999,696.130 370.032 L 679.260 361.000 661.964 309.000 L 644.667 257.000 580.282 256.472 C 529.844 256.059,515.689 256.492,514.942 258.472 M604.002 404.500 C 612.351 409.514,616.104 413.453,620.413 421.728 L 626.000 432.457 626.000 539.645 L 626.000 646.832 656.500 616.653 C 690.426 583.084,698.979 577.425,716.000 577.287 C 730.472 577.170,740.723 580.862,750.582 589.741 C 766.466 604.048,771.430 629.342,762.034 648.090 C 758.972 654.198,729.657 684.986,668.808 746.000 L 580.049 835.000 492.135 747.119 C 430.340 685.347,402.582 656.232,398.705 649.119 C 385.326 624.574,395.628 594.385,422.000 580.857 C 432.451 575.496,452.529 576.005,464.000 581.921 C 469.104 584.553,486.202 599.584,503.500 616.644 L 534.000 646.726 534.000 539.297 L 534.000 431.867 538.971 422.058 C 547.446 405.333,559.485 398.326,580.088 398.127 C 591.426 398.017,594.625 398.870,604.002 404.500 M331.000 856.192 C 326.600 857.177,320.975 858.454,318.500 859.030 L 314.000 860.076 314.000 922.122 C 314.000 990.406,315.593 1004.471,325.868 1026.908 C 342.072 1062.295,375.756 1089.160,413.888 1097.111 C 426.277 1099.694,451.559 1100.054,586.700 1099.568 L 745.000 1099.000 759.669 1093.642 C 799.002 1079.274,827.507 1050.039,840.248 1011.000 C 844.572 997.749,844.855 993.340,845.548 928.573 L 846.280 860.146 841.640 859.089 C 826.991 855.752,818.712 854.092,816.500 854.049 C 814.554 854.011,814.000 867.507,814.000 915.000 L 814.000 976.000 580.000 976.000 L 346.000 976.000 346.000 915.000 C 346.000 846.674,347.487 852.502,331.000 856.192 M448.730 1010.145 C 455.175 1015.214,455.835 1025.290,450.180 1032.278 C 446.701 1036.577,444.548 1037.062,426.118 1037.689 C 404.018 1038.442,397.936 1036.438,393.629 1026.984 C 390.846 1020.876,394.424 1011.384,400.642 1008.377 C 403.039 1007.219,413.654 1006.210,424.230 1006.135 C 440.782 1006.019,444.195 1006.577,448.730 1010.145 M604.730 1010.145 C 608.795 1013.342,610.000 1016.053,610.000 1022.000 C 610.000 1027.947,608.795 1030.658,604.730 1033.855 C 600.212 1037.409,596.661 1038.000,579.842 1038.000 C 562.152 1038.000,559.688 1037.539,554.778 1033.317 C 550.888 1029.970,549.333 1026.740,549.333 1022.000 C 549.333 1017.260,550.888 1014.030,554.778 1010.683 C 559.688 1006.461,562.152 1006.000,579.842 1006.000 C 596.661 1006.000,600.212 1006.591,604.730 1010.145 M761.222 1010.683 C 768.782 1017.186,768.696 1026.887,761.021 1033.490 C 755.702 1038.064,754.186 1038.307,734.892 1037.673 C 710.716 1036.879,706.000 1034.293,706.000 1021.835 C 706.000 1016.066,707.241 1013.314,711.270 1010.145 C 715.788 1006.591,719.339 1006.000,736.158 1006.000 C 753.848 1006.000,756.312 1006.461,761.222 1010.683 " fill="#1D1E23" stroke="none" fill-rule="evenodd"></path></svg>