<svg width="1200" height="1200" viewBox="0 0 1200 1200" fill="none" xmlns="http://www.w3.org/2000/svg"><path d="M529.130 267.007 C 490.701 357.753,458.301 432.001,457.130 432.003 C 449.962 432.013,103.236 462.097,102.566 462.767 C 102.113 463.220,162.501 516.108,236.761 580.295 C 311.021 644.483,371.829 698.250,371.890 699.777 C 371.950 701.304,353.948 779.927,331.885 874.495 C 309.821 969.062,292.216 1046.883,292.763 1047.430 C 293.310 1047.976,362.662 1006.848,446.879 956.034 L 600.000 863.645 753.121 956.034 C 837.338 1006.848,906.691 1047.976,907.239 1047.428 C 907.787 1046.880,890.182 968.571,868.118 873.408 C 846.053 778.244,828.000 699.880,828.000 699.265 C 828.000 698.650,888.941 645.241,963.424 580.580 L 1098.849 463.014 1088.924 461.562 C 1083.466 460.764,1003.400 453.685,911.000 445.831 C 806.230 436.926,742.170 430.695,740.796 429.276 C 739.584 428.024,707.634 353.880,669.796 264.512 C 631.958 175.143,600.550 102.021,600.000 102.018 C 599.450 102.016,567.558 176.260,529.130 267.007 M643.050 407.007 C 665.804 460.903,685.001 505.560,685.710 506.245 C 686.420 506.930,731.550 511.281,786.000 515.916 C 840.450 520.550,889.149 524.940,894.219 525.671 L 903.438 527.000 820.910 598.560 L 738.383 670.120 741.075 681.560 C 766.396 789.142,787.971 882.670,787.543 883.004 C 787.244 883.237,745.150 858.053,694.000 827.039 L 601.000 770.650 600.492 538.983 C 600.212 411.566,600.365 307.698,600.832 308.165 C 601.298 308.631,620.297 353.110,643.050 407.007 " fill="#1D1E23" stroke="none" fill-rule="evenodd"></path></svg>