<svg width="1200" height="1200" viewBox="0 0 1200 1200" fill="none" xmlns="http://www.w3.org/2000/svg"><path d="M583.340 181.246 C 577.175 183.141,570.663 187.250,565.340 192.607 C 557.861 200.134,551.958 212.917,508.134 316.500 C 481.257 380.025,458.757 431.982,458.134 431.961 C 450.749 431.707,213.021 452.816,207.584 454.209 C 182.229 460.705,166.268 491.709,174.900 517.699 C 179.135 530.449,184.082 535.122,290.611 627.000 C 335.250 665.500,371.824 698.245,371.886 699.766 C 371.949 701.287,359.710 754.837,344.690 818.766 C 315.266 943.997,313.887 952.777,321.415 967.000 C 333.539 989.905,359.167 1001.056,381.544 993.161 C 385.970 991.599,436.940 961.822,494.812 926.990 L 600.034 863.658 702.976 925.908 C 759.594 960.146,809.762 989.903,814.459 992.036 C 836.971 1002.253,864.464 992.678,876.592 970.395 C 886.393 952.387,886.836 955.572,856.181 823.639 C 840.682 756.930,828.051 701.146,828.114 699.675 C 828.176 698.204,864.750 665.500,909.389 627.000 C 1016.013 535.040,1020.862 530.458,1025.118 517.644 C 1032.979 493.977,1022.481 468.271,1000.405 457.128 C 992.273 453.023,986.886 452.433,852.000 440.878 C 785.359 435.170,742.141 430.659,740.789 429.270 C 739.572 428.022,717.072 376.150,690.789 314.000 C 637.337 187.608,637.278 187.504,615.822 181.132 C 603.026 177.332,595.999 177.357,583.340 181.246 M642.843 406.500 C 665.707 460.675,684.996 505.560,685.707 506.245 C 686.418 506.930,731.550 511.281,786.000 515.916 C 840.450 520.550,889.149 524.940,894.219 525.671 L 903.438 527.000 820.910 598.560 L 738.383 670.120 741.075 681.560 C 766.397 789.144,787.971 882.670,787.543 883.004 C 787.244 883.237,744.935 857.923,693.523 826.749 L 600.046 770.071 506.918 826.263 C 455.697 857.170,413.509 882.129,413.166 881.728 C 412.822 881.328,423.710 833.317,437.360 775.038 C 457.873 687.459,461.701 668.723,459.426 667.038 C 457.913 665.917,420.894 633.950,377.163 596.000 C 301.424 530.273,297.921 526.932,303.326 525.571 C 306.447 524.784,353.550 520.462,408.000 515.965 C 462.450 511.468,508.859 507.411,511.130 506.949 C 514.490 506.266,523.045 487.648,557.027 407.055 C 579.999 352.575,599.352 308.000,600.034 308.000 C 600.715 308.000,619.980 352.325,642.843 406.500 " fill="#1D1E23" stroke="none" fill-rule="evenodd"></path></svg>