<svg width="1200" height="1200" viewBox="0 0 1200 1200" fill="none" xmlns="http://www.w3.org/2000/svg"><path d="M885.000 102.818 C 839.206 111.757,800.058 142.871,771.532 193.000 C 745.927 237.996,730.616 299.313,725.920 375.660 C 722.960 423.798,724.744 439.412,741.045 508.000 C 751.665 552.685,756.000 577.076,756.000 592.145 L 756.000 600.000 911.909 600.000 L 1067.819 600.000 1068.737 593.500 C 1069.242 589.925,1070.607 578.450,1071.771 568.000 C 1072.934 557.550,1078.011 532.350,1083.053 512.000 C 1099.987 443.647,1102.820 414.457,1098.003 358.000 C 1084.623 201.171,1017.713 105.079,919.000 100.927 C 906.740 100.411,893.582 101.143,885.000 102.818 M257.000 290.935 C 197.681 303.873,149.935 354.532,124.046 432.000 C 109.681 474.981,102.477 519.793,100.733 577.000 C 99.377 621.472,100.749 632.120,115.990 695.458 C 124.850 732.281,127.731 748.112,131.283 779.500 L 132.245 788.000 288.123 788.000 L 444.000 788.000 444.012 779.500 C 444.031 765.525,449.388 734.227,456.810 704.729 C 472.234 643.426,474.647 627.961,474.555 591.000 C 474.255 471.124,440.175 371.382,383.242 323.754 C 365.848 309.203,338.009 295.174,318.369 291.063 C 300.835 287.392,273.505 287.335,257.000 290.935 M756.838 684.488 C 763.757 806.433,773.781 845.614,806.364 878.069 C 828.421 900.040,856.604 909.837,902.400 911.452 C 961.354 913.532,995.064 903.117,1022.507 874.346 C 1051.222 844.242,1063.462 791.431,1066.394 685.000 L 1067.000 663.000 911.281 662.488 L 755.561 661.975 756.838 684.488 M132.000 864.841 C 132.000 886.174,135.757 937.596,139.057 961.445 C 150.143 1041.542,176.774 1078.434,235.000 1094.350 C 248.770 1098.114,256.157 1098.724,288.000 1098.724 C 319.767 1098.724,327.218 1098.112,340.684 1094.397 C 403.694 1077.012,429.335 1035.722,437.809 938.000 C 438.906 925.350,440.423 900.375,441.180 882.500 L 442.557 850.000 287.278 850.000 L 132.000 850.000 132.000 864.841 " fill="#1D1E23" stroke="none" fill-rule="evenodd"></path></svg>