<svg width="1200" height="1200" viewBox="0 0 1200 1200" fill="none" xmlns="http://www.w3.org/2000/svg"><path d="M257.000 153.190 C 249.251 154.776,234.516 160.260,224.000 165.472 C 197.333 178.689,178.269 197.708,165.248 224.086 C 149.018 256.965,150.069 230.933,150.069 600.000 C 150.069 969.067,149.018 943.035,165.248 975.914 C 178.327 1002.408,197.589 1021.671,224.086 1034.754 C 256.285 1050.651,249.746 1050.206,441.681 1049.547 L 611.000 1048.965 624.000 1044.326 C 639.817 1038.682,659.718 1028.023,670.271 1019.542 C 684.064 1008.457,1022.485 630.861,1030.558 617.548 C 1034.714 610.693,1040.564 597.865,1043.558 589.042 L 1049.000 573.000 1049.572 422.715 C 1050.219 252.585,1050.456 255.852,1035.178 225.000 C 1020.808 195.984,1000.104 176.150,969.355 161.947 C 942.352 149.474,958.382 149.984,598.584 150.163 C 322.611 150.300,268.794 150.777,257.000 153.190 M920.296 246.296 C 934.681 253.040,946.960 265.319,953.704 279.704 L 959.000 291.000 959.595 380.297 L 960.190 469.593 854.595 470.590 C 739.497 471.676,732.741 472.254,697.659 484.007 C 603.612 515.516,535.897 594.659,519.050 692.762 C 516.539 707.386,516.000 732.575,516.000 835.326 L 516.000 960.127 403.500 959.564 L 291.000 959.000 279.704 953.704 C 265.319 946.960,253.040 934.681,246.296 920.296 L 241.000 909.000 241.000 600.000 L 241.000 291.000 246.296 279.704 C 255.086 260.955,272.184 246.744,291.469 242.160 C 295.760 241.140,430.196 240.506,604.000 240.685 L 909.000 241.000 920.296 246.296 M954.918 554.500 C 954.174 556.975,952.088 561.401,950.283 564.335 C 939.122 582.474,623.883 935.667,608.345 947.441 C 592.559 959.403,593.660 968.717,594.527 830.500 C 595.358 698.134,595.258 699.511,606.076 670.408 C 625.130 619.144,667.342 578.076,719.991 559.579 C 744.593 550.936,752.617 550.384,856.635 550.188 L 956.270 550.000 954.918 554.500 " fill="#1D1E23" stroke="none" fill-rule="evenodd"></path></svg>