<svg width="1200" height="1200" viewBox="0 0 1200 1200" fill="none" xmlns="http://www.w3.org/2000/svg"><path d="M384.000 301.314 C 373.601 303.021,354.616 310.776,344.526 317.438 C 323.539 331.296,307.312 355.132,302.210 379.598 C 299.110 394.463,299.110 805.537,302.210 820.402 C 310.026 857.883,342.117 889.974,379.598 897.790 C 394.463 900.890,805.537 900.890,820.402 897.790 C 857.883 889.974,889.974 857.883,897.790 820.402 C 900.890 805.537,900.890 394.463,897.790 379.598 C 890.894 346.531,867.041 319.355,833.000 305.784 L 821.000 301.000 605.000 300.747 C 486.200 300.607,386.750 300.862,384.000 301.314 " fill="#1D1E23" stroke="none" fill-rule="evenodd"></path></svg>