<svg width="1200" height="1200" viewBox="0 0 1200 1200" fill="none" xmlns="http://www.w3.org/2000/svg"><path d="M556.000 101.962 C 416.815 115.884,295.232 181.194,209.663 288.000 C 73.683 457.729,63.352 695.839,184.124 876.644 C 338.485 1107.735,647.309 1169.297,878.000 1014.964 C 1107.746 861.264,1168.863 552.043,1014.964 322.000 C 936.423 204.599,815.946 128.109,674.644 105.934 C 645.457 101.354,582.987 99.262,556.000 101.962 M767.009 403.312 C 772.825 405.294,780.145 410.040,785.233 415.127 C 800.490 430.385,800.000 424.251,800.000 600.000 C 800.000 775.749,800.490 769.615,785.233 784.873 C 769.450 800.655,777.469 800.000,600.000 800.000 C 422.781 800.000,430.520 800.625,414.947 785.053 C 399.375 769.480,400.000 777.219,400.000 600.000 C 400.000 422.730,399.369 430.526,414.983 414.911 C 430.232 399.663,421.847 400.335,599.144 400.158 C 741.363 400.016,758.266 400.334,767.009 403.312 " fill="#1D1E23" stroke="none" fill-rule="evenodd"></path></svg>