<svg width="1200" height="1200" viewBox="0 0 1200 1200" fill="none" xmlns="http://www.w3.org/2000/svg"><path d="M204.000 204.000 C 200.254 207.746,200.000 210.667,200.000 250.000 C 200.000 289.333,200.254 292.254,204.000 296.000 C 207.973 299.973,210.667 300.000,600.000 300.000 C 989.333 300.000,992.027 299.973,996.000 296.000 C 999.746 292.254,1000.000 289.333,1000.000 250.000 C 1000.000 210.667,999.746 207.746,996.000 204.000 C 992.027 200.027,989.333 200.000,600.000 200.000 C 210.667 200.000,207.973 200.027,204.000 204.000 M202.371 353.629 C 199.632 356.368,192.768 387.132,174.371 479.129 L 149.999 601.000 150.000 646.500 C 150.000 703.026,148.360 700.000,179.000 700.000 L 200.000 700.000 200.000 846.000 C 200.000 989.453,200.070 992.070,204.010 996.010 C 207.975 999.975,210.181 1000.014,403.294 999.510 L 598.569 999.000 602.443 993.810 C 605.951 989.112,606.098 987.503,603.997 976.810 C 602.721 970.315,601.173 950.375,600.558 932.500 L 599.440 900.000 449.720 900.000 L 300.000 900.000 300.000 800.000 L 300.000 700.000 450.000 700.000 L 600.000 700.000 600.300 799.500 C 600.464 854.225,600.923 896.300,601.319 893.000 C 610.748 814.389,641.655 749.932,695.831 695.895 C 735.182 656.645,775.552 631.888,827.000 615.456 C 862.767 604.032,883.666 600.992,926.000 601.056 C 968.239 601.120,991.744 604.790,1027.898 616.966 C 1039.387 620.835,1049.059 624.000,1049.393 624.000 C 1053.127 624.000,1046.405 583.019,1025.629 479.129 C 1007.232 387.132,1000.368 356.368,997.629 353.629 C 994.148 350.148,977.902 350.000,600.000 350.000 C 222.098 350.000,205.852 350.148,202.371 353.629 M1025.049 704.717 C 1019.248 708.959,1020.678 717.659,1029.729 733.200 C 1034.278 741.010,1037.995 748.210,1037.989 749.200 C 1037.983 750.190,974.925 787.382,897.860 831.849 C 820.795 876.316,756.000 914.912,753.871 917.619 C 743.812 930.406,754.113 950.000,770.893 950.000 C 774.042 950.000,830.744 918.406,916.525 868.855 C 993.786 824.226,1057.782 787.551,1058.738 787.355 C 1059.693 787.160,1064.896 794.415,1070.299 803.477 C 1080.971 821.378,1086.295 824.887,1094.563 819.470 C 1098.099 817.153,1102.110 806.993,1112.796 773.278 C 1125.992 731.648,1126.375 729.870,1123.202 725.028 C 1121.390 722.263,1119.498 720.000,1118.997 720.000 C 1118.497 720.000,1099.549 715.950,1076.891 711.000 C 1031.048 700.985,1030.280 700.892,1025.049 704.717 " fill="#1D1E23" stroke="none" fill-rule="evenodd"></path></svg>