<svg width="1200" height="1200" viewBox="0 0 1200 1200" fill="none" xmlns="http://www.w3.org/2000/svg"><path d="M254.000 204.000 C 250.254 207.746,250.000 210.667,250.000 250.000 C 250.000 289.333,250.254 292.254,254.000 296.000 C 257.973 299.973,260.667 300.000,650.000 300.000 C 1039.333 300.000,1042.027 299.973,1046.000 296.000 C 1049.746 292.254,1050.000 289.333,1050.000 250.000 C 1050.000 210.667,1049.746 207.746,1046.000 204.000 C 1042.027 200.027,1039.333 200.000,650.000 200.000 C 260.667 200.000,257.973 200.027,254.000 204.000 M252.337 353.500 C 248.891 356.438,244.361 376.417,224.113 478.000 L 199.995 599.000 199.998 645.500 C 200.001 703.176,198.310 700.000,229.000 700.000 L 250.000 700.000 250.000 846.000 C 250.000 989.333,250.073 992.073,254.000 996.000 C 257.956 999.956,260.667 1000.000,500.000 1000.000 C 739.333 1000.000,742.044 999.956,746.000 996.000 C 749.927 992.073,750.000 989.333,750.000 846.000 L 750.000 700.000 850.000 700.000 L 950.000 700.000 950.000 846.000 C 950.000 989.333,950.073 992.073,954.000 996.000 C 957.746 999.746,960.667 1000.000,1000.000 1000.000 C 1039.333 1000.000,1042.254 999.746,1046.000 996.000 C 1049.927 992.073,1050.000 989.333,1050.000 846.000 L 1050.000 700.000 1071.000 700.000 C 1101.690 700.000,1099.999 703.176,1100.002 645.500 L 1100.005 599.000 1075.887 478.000 C 1055.639 376.417,1051.109 356.438,1047.663 353.500 C 1043.783 350.192,1021.919 350.000,650.000 350.000 C 278.081 350.000,256.217 350.192,252.337 353.500 M650.000 800.000 L 650.000 900.000 500.000 900.000 L 350.000 900.000 350.000 800.000 L 350.000 700.000 500.000 700.000 L 650.000 700.000 650.000 800.000 " fill="#1D1E23" stroke="none" fill-rule="evenodd"></path></svg>