<svg width="1200" height="1200" viewBox="0 0 1200 1200" fill="none" xmlns="http://www.w3.org/2000/svg"><path d="M204.000 204.000 C 200.254 207.746,200.000 210.667,200.000 250.000 C 200.000 289.333,200.254 292.254,204.000 296.000 C 207.973 299.973,210.667 300.000,600.000 300.000 C 989.333 300.000,992.027 299.973,996.000 296.000 C 999.746 292.254,1000.000 289.333,1000.000 250.000 C 1000.000 210.667,999.746 207.746,996.000 204.000 C 992.027 200.027,989.333 200.000,600.000 200.000 C 210.667 200.000,207.973 200.027,204.000 204.000 M202.371 353.629 C 199.632 356.368,192.768 387.132,174.371 479.129 L 149.999 601.000 150.000 646.500 C 150.000 703.026,148.360 700.000,179.000 700.000 L 200.000 700.000 200.000 846.000 C 200.000 989.453,200.070 992.070,204.010 996.010 C 207.975 999.975,210.181 1000.014,403.294 999.510 L 598.569 999.000 602.443 993.810 C 605.951 989.112,606.098 987.503,603.997 976.810 C 602.721 970.315,601.173 950.375,600.558 932.500 L 599.440 900.000 449.720 900.000 L 300.000 900.000 300.000 800.000 L 300.000 700.000 450.000 700.000 L 600.000 700.000 600.300 799.500 C 600.464 854.225,600.923 896.300,601.319 893.000 C 610.748 814.389,641.655 749.932,695.831 695.895 C 735.182 656.645,775.552 631.888,827.000 615.456 C 862.767 604.032,883.666 600.992,926.000 601.056 C 968.239 601.120,991.744 604.790,1027.898 616.966 C 1039.387 620.835,1049.059 624.000,1049.393 624.000 C 1053.127 624.000,1046.405 583.019,1025.629 479.129 C 1007.232 387.132,1000.368 356.368,997.629 353.629 C 994.148 350.148,977.902 350.000,600.000 350.000 C 222.098 350.000,205.852 350.148,202.371 353.629 M843.610 705.610 C 811.770 737.451,806.000 744.127,806.000 749.130 C 806.000 754.138,811.869 760.901,844.519 793.519 C 884.900 833.860,888.038 835.962,896.000 828.000 C 899.574 824.426,900.000 821.333,900.000 798.962 C 900.000 774.060,900.024 773.929,904.500 774.835 C 906.975 775.337,914.313 776.278,920.807 776.927 C 957.636 780.608,998.284 804.931,1020.882 836.811 C 1050.139 878.085,1057.128 923.923,1041.799 974.000 C 1036.845 990.181,1038.109 999.801,1046.258 1007.950 C 1054.946 1016.638,1069.157 1018.195,1077.646 1011.389 C 1086.180 1004.547,1097.164 966.854,1099.217 937.365 C 1101.507 904.462,1093.522 864.694,1078.770 835.526 C 1055.913 790.334,1012.463 752.330,964.972 735.990 C 949.708 730.739,924.003 726.000,910.779 726.000 L 900.000 726.000 900.000 701.000 C 900.000 678.667,899.573 675.573,896.000 672.000 C 887.233 663.233,883.758 665.463,843.610 705.610 M726.000 836.529 C 715.726 841.606,705.749 869.418,701.564 904.646 C 694.751 962.003,714.948 1020.110,756.856 1063.718 C 790.248 1098.466,836.052 1120.392,881.500 1123.385 L 900.000 1124.603 900.000 1149.302 C 900.000 1171.333,900.432 1174.432,904.000 1178.000 C 912.003 1186.003,915.137 1183.904,955.519 1143.481 C 988.006 1110.962,994.000 1104.048,994.000 1099.092 C 994.000 1094.139,988.120 1087.341,956.390 1055.610 C 916.242 1015.463,912.767 1013.233,904.000 1022.000 C 900.426 1025.574,900.000 1028.667,900.000 1051.038 C 900.000 1075.940,899.976 1076.071,895.500 1075.165 C 893.025 1074.663,885.840 1073.740,879.534 1073.113 C 842.228 1069.404,801.912 1045.345,779.118 1013.189 C 749.752 971.761,742.801 926.130,758.221 876.000 C 764.251 856.396,760.572 843.574,747.081 837.172 C 739.090 833.380,732.764 833.187,726.000 836.529 " fill="#1D1E23" stroke="none" fill-rule="evenodd"></path></svg>