<svg width="1200" height="1200" viewBox="0 0 1200 1200" fill="none" xmlns="http://www.w3.org/2000/svg"><path d="M204.000 204.000 C 200.254 207.746,200.000 210.667,200.000 250.000 C 200.000 289.333,200.254 292.254,204.000 296.000 C 207.973 299.973,210.667 300.000,600.000 300.000 C 989.333 300.000,992.027 299.973,996.000 296.000 C 999.746 292.254,1000.000 289.333,1000.000 250.000 C 1000.000 210.667,999.746 207.746,996.000 204.000 C 992.027 200.027,989.333 200.000,600.000 200.000 C 210.667 200.000,207.973 200.027,204.000 204.000 M202.371 353.629 C 199.632 356.368,192.768 387.132,174.371 479.129 L 149.999 601.000 150.000 646.500 C 150.000 703.026,148.360 700.000,179.000 700.000 L 200.000 700.000 200.000 846.000 C 200.000 989.453,200.070 992.070,204.010 996.010 C 207.975 999.975,210.181 1000.014,403.294 999.510 L 598.569 999.000 602.443 993.810 C 605.951 989.112,606.098 987.503,603.997 976.810 C 602.721 970.315,601.173 950.375,600.558 932.500 L 599.440 900.000 449.720 900.000 L 300.000 900.000 300.000 800.000 L 300.000 700.000 450.000 700.000 L 600.000 700.000 600.300 799.500 C 600.464 854.225,600.923 896.300,601.319 893.000 C 610.748 814.389,641.655 749.932,695.831 695.895 C 735.182 656.645,775.552 631.888,827.000 615.456 C 862.767 604.032,883.666 600.992,926.000 601.056 C 968.239 601.120,991.744 604.790,1027.898 616.966 C 1039.387 620.835,1049.059 624.000,1049.393 624.000 C 1053.127 624.000,1046.405 583.019,1025.629 479.129 C 1007.232 387.132,1000.368 356.368,997.629 353.629 C 994.148 350.148,977.902 350.000,600.000 350.000 C 222.098 350.000,205.852 350.148,202.371 353.629 M1072.799 717.531 C 1067.934 720.780,1066.000 728.554,1066.000 744.869 L 1066.000 762.000 906.250 762.000 C 818.387 762.000,743.700 762.560,740.278 763.244 C 730.697 765.161,724.000 773.043,724.000 782.404 C 724.000 792.344,726.585 797.166,733.960 800.979 C 739.030 803.601,761.338 804.000,902.901 804.000 L 1066.000 804.000 1066.029 821.500 C 1066.066 843.145,1068.487 848.796,1078.046 849.543 C 1084.445 850.043,1087.396 847.919,1115.000 822.936 C 1131.500 808.003,1146.575 793.933,1148.500 791.671 C 1156.419 782.363,1153.554 778.602,1105.578 735.324 C 1084.927 716.695,1078.928 713.439,1072.799 717.531 M770.749 886.500 C 757.813 896.157,708.016 942.797,706.906 946.297 C 706.259 948.334,706.259 951.666,706.906 953.703 C 708.016 957.203,757.813 1003.843,770.749 1013.500 C 778.411 1019.220,781.028 1019.154,787.091 1013.091 C 791.617 1008.565,792.000 1006.694,792.000 989.091 L 792.000 970.000 956.968 970.000 L 1121.937 970.000 1128.241 964.367 C 1133.491 959.676,1134.545 957.274,1134.545 950.000 C 1134.545 942.726,1133.491 940.324,1128.241 935.633 L 1121.937 930.000 956.968 930.000 L 792.000 930.000 792.000 910.909 C 792.000 893.306,791.617 891.435,787.091 886.909 C 781.028 880.846,778.411 880.780,770.749 886.500 " fill="#1D1E23" stroke="none" fill-rule="evenodd"></path></svg>