<svg width="1200" height="1200" viewBox="0 0 1200 1200" fill="none" xmlns="http://www.w3.org/2000/svg"><path d="M100.000 116.000 L 100.000 132.000 116.000 132.000 L 132.000 132.000 132.000 444.000 L 132.000 756.000 116.000 756.000 L 100.000 756.000 100.000 772.000 L 100.000 788.000 334.000 788.000 L 568.000 788.000 568.000 886.487 L 568.000 984.975 510.513 1042.487 L 453.026 1100.000 474.993 1100.000 L 496.959 1100.000 532.480 1064.521 L 568.000 1029.042 568.000 1064.521 L 568.000 1100.000 600.000 1100.000 L 632.000 1100.000 632.000 1064.521 L 632.000 1029.042 667.520 1064.521 L 703.041 1100.000 725.007 1100.000 L 746.974 1100.000 689.487 1042.487 L 632.000 984.975 632.000 886.487 L 632.000 788.000 866.000 788.000 L 1100.000 788.000 1100.000 772.000 L 1100.000 756.000 1085.000 756.000 L 1070.000 756.000 1070.000 444.000 L 1070.000 132.000 1085.000 132.000 L 1100.000 132.000 1100.000 116.000 L 1100.000 100.000 600.000 100.000 L 100.000 100.000 100.000 116.000 M1038.000 444.000 L 1038.000 756.000 600.000 756.000 L 162.000 756.000 162.000 444.000 L 162.000 132.000 600.000 132.000 L 1038.000 132.000 1038.000 444.000 M830.000 197.198 C 804.462 206.417,788.000 229.534,788.000 256.176 C 788.000 279.312,800.100 299.885,820.282 311.064 C 830.055 316.477,832.675 317.000,850.000 317.000 C 867.325 317.000,869.945 316.477,879.718 311.064 C 901.365 299.074,912.923 278.047,911.634 253.000 C 910.428 229.562,897.365 209.841,876.472 199.914 C 863.981 193.980,842.407 192.719,830.000 197.198 M788.595 410.501 C 752.953 446.320,727.828 473.117,727.140 476.046 C 723.625 491.004,725.157 499.056,733.216 507.975 C 742.162 517.878,752.357 521.135,764.323 517.913 C 770.818 516.164,777.624 510.807,795.323 493.513 L 818.000 471.353 818.000 523.756 C 818.000 571.915,817.681 576.784,814.067 583.869 C 811.372 589.151,807.395 592.904,801.435 595.789 C 792.776 599.981,791.866 600.000,600.000 600.000 C 410.824 600.000,407.113 600.074,399.131 604.029 C 387.869 609.610,383.351 616.607,382.421 629.909 C 381.782 639.054,382.474 642.228,386.363 648.000 C 396.427 662.936,381.826 661.993,603.137 661.997 C 819.338 662.000,809.283 662.500,832.833 650.575 C 844.599 644.616,861.204 628.495,868.624 615.828 C 879.669 596.969,882.000 580.857,882.000 523.357 L 882.000 471.353 904.677 493.513 C 922.376 510.807,929.182 516.164,935.677 517.913 C 958.106 523.952,979.372 502.959,973.652 480.425 C 972.001 473.922,961.672 462.652,910.283 411.283 L 848.886 349.910 788.595 410.501 M264.648 573.275 C 255.002 576.693,240.093 589.142,234.172 598.721 C 231.927 602.355,228.661 610.904,226.915 617.720 C 219.755 645.666,234.256 674.614,262.000 687.761 C 277.927 695.309,298.556 695.182,314.321 687.440 C 360.677 664.676,361.554 599.079,315.808 576.220 C 305.013 570.825,301.346 570.021,288.181 570.158 C 279.831 570.245,269.242 571.647,264.648 573.275 M301.975 604.550 C 323.509 615.937,323.500 647.675,301.960 658.497 C 287.538 665.743,271.569 661.377,261.184 647.348 C 254.737 638.639,255.519 622.631,262.860 613.006 C 272.949 599.778,287.147 596.709,301.975 604.550 " fill="#1D1E23" stroke="none" fill-rule="evenodd"></path></svg>