<svg width="1200" height="1200" viewBox="0 0 1200 1200" fill="none" xmlns="http://www.w3.org/2000/svg"><path d="M134.000 301.327 C 123.664 302.996,104.637 310.762,94.526 317.438 C 73.539 331.296,57.312 355.132,52.210 379.598 C 49.110 394.463,49.110 805.537,52.210 820.402 C 60.026 857.883,92.117 889.974,129.598 897.790 C 144.622 900.923,1055.378 900.923,1070.402 897.790 C 1107.883 889.974,1139.974 857.883,1147.790 820.402 C 1150.890 805.537,1150.890 394.463,1147.790 379.598 C 1140.894 346.531,1117.041 319.355,1083.000 305.784 L 1071.000 301.000 605.000 300.760 C 348.700 300.628,136.750 300.883,134.000 301.327 M250.000 478.644 C 250.000 568.118,250.325 570.430,264.947 585.053 C 284.511 604.616,315.489 604.616,335.053 585.053 C 349.675 570.430,350.000 568.118,350.000 478.644 L 350.000 400.000 400.000 400.000 L 450.000 400.000 450.000 478.644 C 450.000 568.118,450.325 570.430,464.947 585.053 C 484.511 604.616,515.489 604.616,535.053 585.053 C 549.675 570.430,550.000 568.118,550.000 478.644 L 550.000 400.000 600.000 400.000 L 650.000 400.000 650.000 478.644 C 650.000 568.118,650.325 570.430,664.947 585.053 C 684.511 604.616,715.489 604.616,735.053 585.053 C 749.675 570.430,750.000 568.118,750.000 478.644 L 750.000 400.000 800.000 400.000 L 850.000 400.000 850.000 478.644 C 850.000 568.118,850.325 570.430,864.947 585.053 C 884.511 604.616,915.489 604.616,935.053 585.053 C 949.675 570.430,950.000 568.118,950.000 478.644 L 950.000 400.000 978.644 400.000 C 1013.088 400.000,1022.666 402.560,1035.233 415.127 C 1050.490 430.385,1050.000 424.251,1050.000 600.000 C 1050.000 775.749,1050.490 769.615,1035.233 784.873 C 1018.754 801.351,1057.620 800.000,600.000 800.000 C 142.814 800.000,181.214 801.319,164.947 785.053 C 149.375 769.480,150.000 777.219,150.000 600.000 C 150.000 422.730,149.369 430.526,164.983 414.911 C 177.307 402.588,185.751 400.344,220.500 400.158 L 250.000 400.000 250.000 478.644 " fill="#1D1E23" stroke="none" fill-rule="evenodd"></path></svg>