<svg width="1200" height="1200" viewBox="0 0 1200 1200" fill="none" xmlns="http://www.w3.org/2000/svg"><path d="M50.000 600.000 L 50.000 900.000 600.000 900.000 L 1150.000 900.000 1150.000 600.000 L 1150.000 300.000 600.000 300.000 L 50.000 300.000 50.000 600.000 M250.000 500.000 L 250.000 600.000 300.000 600.000 L 350.000 600.000 350.000 500.000 L 350.000 400.000 400.000 400.000 L 450.000 400.000 450.000 500.000 L 450.000 600.000 500.000 600.000 L 550.000 600.000 550.000 500.000 L 550.000 400.000 600.000 400.000 L 650.000 400.000 650.000 500.000 L 650.000 600.000 700.000 600.000 L 750.000 600.000 750.000 500.000 L 750.000 400.000 800.000 400.000 L 850.000 400.000 850.000 500.000 L 850.000 600.000 900.000 600.000 L 950.000 600.000 950.000 500.000 L 950.000 400.000 1000.000 400.000 L 1050.000 400.000 1050.000 600.000 L 1050.000 800.000 600.000 800.000 L 150.000 800.000 150.000 600.000 L 150.000 400.000 200.000 400.000 L 250.000 400.000 250.000 500.000 " fill="#1D1E23" stroke="none" fill-rule="evenodd"></path></svg>