<svg width="1200" height="1200" viewBox="0 0 1200 1200" fill="none" xmlns="http://www.w3.org/2000/svg"><path d="M250.000 275.000 L 250.000 350.000 375.000 350.000 L 500.000 350.000 500.000 425.000 L 500.000 500.000 600.000 500.000 L 700.000 500.000 700.000 425.000 L 700.000 350.000 825.000 350.000 L 950.000 350.000 950.000 275.000 L 950.000 200.000 600.000 200.000 L 250.000 200.000 250.000 275.000 M150.000 650.000 L 150.000 700.000 600.000 700.000 L 1050.000 700.000 1050.000 650.000 L 1050.000 600.000 600.000 600.000 L 150.000 600.000 150.000 650.000 M500.000 875.000 L 500.000 950.000 600.000 950.000 L 700.000 950.000 700.000 875.000 L 700.000 800.000 600.000 800.000 L 500.000 800.000 500.000 875.000 " fill="#1D1E23" stroke="none" fill-rule="evenodd"></path></svg>