<svg width="1200" height="1200" viewBox="0 0 1200 1200" fill="none" xmlns="http://www.w3.org/2000/svg"><path d="M307.492 202.155 C 286.223 207.215,267.147 223.083,257.189 244.000 C 251.692 255.547,251.000 259.012,251.000 275.000 C 251.000 290.988,251.692 294.453,257.189 306.000 C 265.055 322.522,277.478 334.945,294.000 342.811 L 307.000 349.000 403.500 349.573 L 500.000 350.146 500.000 425.073 L 500.000 500.000 600.000 500.000 L 700.000 500.000 700.000 425.073 L 700.000 350.146 796.500 349.573 L 893.000 349.000 906.000 342.811 C 922.522 334.945,934.945 322.522,942.811 306.000 C 948.308 294.453,949.000 290.988,949.000 275.000 C 949.000 258.982,948.316 255.569,942.783 244.000 C 934.913 227.542,922.582 215.223,906.000 207.250 L 893.000 201.000 604.000 200.684 C 440.075 200.505,311.751 201.141,307.492 202.155 M182.171 603.434 C 164.528 609.666,150.000 630.694,150.000 650.000 C 150.000 662.080,155.967 676.072,164.947 685.053 C 181.214 701.319,142.814 700.000,600.000 700.000 C 1057.186 700.000,1018.786 701.319,1035.053 685.053 C 1054.616 665.489,1054.616 634.511,1035.053 614.947 C 1018.777 598.672,1057.342 599.981,599.144 600.158 C 234.834 600.299,190.052 600.651,182.171 603.434 M500.000 829.902 C 500.000 846.347,500.995 864.572,502.210 870.402 C 511.616 915.505,553.994 950.000,600.000 950.000 C 646.006 950.000,688.384 915.505,697.790 870.402 C 699.005 864.572,700.000 846.347,700.000 829.902 L 700.000 800.000 600.000 800.000 L 500.000 800.000 500.000 829.902 " fill="#1D1E23" stroke="none" fill-rule="evenodd"></path></svg>