<svg width="1200" height="1200" viewBox="0 0 1200 1200" fill="none" xmlns="http://www.w3.org/2000/svg"><path d="M551.584 108.500 C 549.835 109.875,547.774 113.115,547.004 115.699 C 545.773 119.832,550.934 125.748,589.802 164.757 C 614.111 189.153,634.000 209.980,634.000 211.039 C 634.000 212.097,520.722 326.371,382.272 464.982 C 144.852 702.675,130.399 717.543,127.997 726.552 C 121.916 749.365,130.555 771.850,149.847 783.419 C 163.824 791.800,174.400 793.313,189.307 789.061 L 201.000 785.726 453.497 533.377 L 705.994 281.027 750.513 325.514 C 786.423 361.397,796.071 370.000,800.403 370.000 C 812.273 370.000,812.000 373.133,812.000 236.865 C 812.000 119.038,811.811 112.449,808.343 109.310 C 805.021 106.304,793.195 106.000,679.725 106.000 C 582.786 106.000,554.051 106.561,551.584 108.500 M1017.000 409.341 C 1014.800 409.847,1009.850 411.198,1006.000 412.343 C 1000.534 413.969,943.671 469.706,746.503 666.699 L 494.006 918.973 449.487 874.486 C 402.857 827.891,400.071 825.929,392.000 834.000 C 388.086 837.914,388.000 840.667,388.000 962.690 C 388.000 1080.948,388.189 1087.551,391.657 1090.690 C 394.979 1093.696,406.822 1094.000,520.515 1094.000 C 657.728 1094.000,652.000 1094.508,652.000 1082.340 C 652.000 1078.006,643.674 1068.646,609.000 1034.000 C 585.350 1010.369,566.000 990.126,566.000 989.014 C 566.000 987.903,678.141 874.945,815.203 737.997 C 1016.594 536.772,1065.322 487.081,1069.183 479.000 C 1080.342 455.644,1071.244 427.724,1048.509 415.556 C 1038.996 410.465,1024.525 407.611,1017.000 409.341 " fill="#1D1E23" stroke="none" fill-rule="evenodd"></path></svg>