<svg width="1200" height="1200" viewBox="0 0 1200 1200" fill="none" xmlns="http://www.w3.org/2000/svg"><path d="M574.000 101.186 C 537.950 105.490,505.545 114.370,477.237 127.700 C 388.201 169.629,325.959 251.255,305.527 352.886 C 299.071 384.998,299.134 441.571,305.660 473.000 C 314.902 517.510,331.082 556.289,356.181 594.084 C 372.359 618.446,410.457 656.712,435.281 673.533 C 453.202 685.676,488.130 704.000,493.355 704.000 C 495.325 704.000,496.000 699.968,496.000 688.193 L 496.000 672.387 481.536 665.039 C 405.766 626.546,352.093 553.360,334.779 464.927 C 329.921 440.114,329.866 385.804,334.674 361.000 C 346.865 298.107,375.289 245.422,419.434 203.898 C 500.356 127.779,618.440 109.977,716.455 159.121 C 788.940 195.464,843.338 264.932,861.993 344.979 C 891.906 473.330,833.491 604.508,719.655 664.613 C 706.436 671.593,706.348 671.695,710.387 675.330 C 712.630 677.348,717.101 682.820,720.321 687.489 L 726.177 695.978 735.756 691.124 C 771.657 672.931,819.557 630.103,843.461 594.823 C 867.989 558.622,885.119 517.581,894.306 473.000 C 900.823 441.376,900.907 384.769,894.483 352.886 C 868.829 225.563,776.360 129.738,656.071 105.821 C 637.709 102.170,588.863 99.412,574.000 101.186 M424.944 258.438 C 424.406 259.847,424.199 330.300,424.483 415.000 L 425.000 569.000 450.000 569.000 L 475.000 569.000 475.000 413.000 L 475.000 257.000 450.461 256.438 C 431.939 256.014,425.682 256.504,424.944 258.438 M500.088 367.405 L 500.177 479.000 504.342 471.000 C 506.633 466.600,512.452 458.346,517.274 452.658 L 526.040 442.315 525.520 349.658 L 525.000 257.000 512.500 256.405 L 500.000 255.809 500.088 367.405 M550.000 343.860 L 550.000 431.721 556.487 429.860 C 566.263 427.057,577.813 427.721,589.500 431.758 L 600.000 435.385 600.000 345.693 L 600.000 256.000 575.000 256.000 L 550.000 256.000 550.000 343.860 M625.333 257.333 C 624.600 258.067,624.004 302.392,624.009 355.833 L 624.017 453.000 630.024 462.000 C 637.706 473.512,644.000 490.207,644.000 499.075 C 644.000 503.897,644.911 506.000,647.000 506.000 C 649.635 506.000,650.000 490.778,650.000 381.000 L 650.000 256.000 638.333 256.000 C 631.917 256.000,626.067 256.600,625.333 257.333 M675.333 257.333 C 674.600 258.067,674.000 314.317,674.000 382.333 L 674.000 506.000 687.000 506.000 L 700.000 506.000 700.000 381.000 L 700.000 256.000 688.333 256.000 C 681.917 256.000,676.067 256.600,675.333 257.333 M724.944 258.438 C 724.406 259.847,724.199 330.300,724.483 415.000 L 725.000 569.000 750.000 569.000 L 775.000 569.000 775.000 413.000 L 775.000 257.000 750.461 256.438 C 731.939 256.014,725.682 256.504,724.944 258.438 M552.460 464.230 C 547.763 466.555,540.768 472.140,536.915 476.641 C 523.618 492.176,524.000 486.272,524.000 676.431 L 524.000 848.137 510.130 832.422 C 488.063 807.421,461.715 786.004,440.000 775.419 C 423.025 767.144,403.345 766.497,391.433 773.821 C 375.824 783.419,366.940 802.732,368.452 823.783 C 369.817 842.782,376.842 855.896,399.259 881.287 C 426.710 912.378,447.644 940.807,493.682 1009.514 C 515.984 1042.797,539.590 1076.772,546.140 1085.014 L 558.048 1100.000 689.592 1100.000 L 821.137 1100.000 831.290 1089.500 C 850.244 1069.898,863.789 1045.071,873.025 1013.000 C 882.949 978.540,884.618 960.707,884.817 887.000 C 884.996 820.567,884.899 818.810,880.596 810.767 C 873.668 797.818,866.733 790.723,855.560 785.156 C 843.395 779.093,829.069 778.356,818.733 783.261 C 810.339 787.244,800.694 798.567,798.634 806.858 C 797.512 811.375,796.757 807.179,795.780 791.000 C 794.370 767.635,791.651 758.646,782.822 748.154 C 774.760 738.572,764.157 734.000,750.000 734.000 C 731.401 734.000,716.133 743.685,709.378 759.768 C 706.631 766.310,706.504 765.810,705.577 744.768 C 704.503 720.399,701.467 710.868,691.399 700.256 C 670.631 678.367,637.265 682.563,621.863 709.000 L 616.038 719.000 616.019 611.863 C 615.998 492.766,615.886 491.596,603.040 476.588 C 589.438 460.698,569.458 455.816,552.460 464.230 " fill="#1D1E23" stroke="none" fill-rule="evenodd"></path></svg>