<svg width="1200" height="1200" viewBox="0 0 1200 1200" fill="none" xmlns="http://www.w3.org/2000/svg"><path d="M713.000 83.741 C 705.387 88.470,550.893 223.698,551.308 225.270 C 551.847 227.311,706.736 362.368,713.000 366.259 C 724.295 373.274,738.766 369.400,746.081 357.403 C 749.413 351.938,749.986 347.263,749.993 325.500 L 750.000 300.000 803.644 300.000 C 865.440 300.000,871.158 298.947,885.098 285.007 C 898.427 271.678,900.449 262.721,899.662 220.496 C 899.016 185.867,898.865 184.770,893.455 175.568 C 890.406 170.380,884.783 163.750,880.959 160.833 C 867.875 150.853,863.100 150.182,804.500 150.088 L 750.000 150.000 749.993 124.500 C 749.986 102.737,749.413 98.062,746.081 92.597 C 738.766 80.600,724.295 76.726,713.000 83.741 M962.597 283.919 C 951.918 290.431,950.000 296.669,950.000 324.901 L 950.000 350.000 895.500 350.088 C 836.900 350.182,832.125 350.853,819.041 360.833 C 815.217 363.750,809.594 370.380,806.545 375.568 C 801.135 384.770,800.984 385.867,800.338 420.496 C 799.551 462.721,801.573 471.678,814.902 485.007 C 828.842 498.947,834.560 500.000,896.356 500.000 L 950.000 500.000 950.007 525.500 C 950.014 547.263,950.587 551.938,953.919 557.403 C 961.234 569.400,975.705 573.274,987.000 566.259 C 993.264 562.368,1148.153 427.311,1148.692 425.270 C 1149.107 423.698,994.613 288.470,987.000 283.741 C 979.278 278.945,970.652 279.008,962.597 283.919 M421.169 352.072 C 340.895 364.736,278.308 420.622,256.624 499.000 C 251.650 516.978,251.100 522.134,251.177 550.000 C 251.252 577.049,251.935 583.497,256.540 600.593 C 276.098 673.209,333.105 728.023,407.000 745.265 C 429.064 750.413,470.936 750.413,493.000 745.265 C 547.964 732.440,593.821 699.199,622.013 651.745 C 662.962 582.818,658.129 494.193,609.934 430.233 C 582.348 393.623,543.933 367.897,500.101 356.678 C 478.504 351.151,440.917 348.957,421.169 352.072 M415.000 851.221 C 321.516 860.942,251.614 877.794,184.000 906.913 C 112.211 937.829,64.619 981.440,53.036 1026.920 C 50.904 1035.291,50.000 1049.032,50.000 1073.064 C 50.000 1113.457,52.112 1122.218,64.947 1135.053 C 81.149 1151.254,48.842 1150.000,450.000 1150.000 C 851.158 1150.000,818.851 1151.254,835.053 1135.053 C 847.888 1122.218,850.000 1113.457,850.000 1073.064 C 850.000 1034.690,847.937 1023.008,837.464 1002.086 C 824.670 976.524,788.897 944.661,748.000 922.399 C 691.383 891.580,603.954 865.725,520.000 854.974 C 495.667 851.858,431.078 849.550,415.000 851.221 " fill="#1D1E23" stroke="none" fill-rule="evenodd"></path></svg>