<svg width="1200" height="1200" viewBox="0 0 1200 1200" fill="none" xmlns="http://www.w3.org/2000/svg"><path d="M650.316 137.205 C 596.040 184.712,551.782 224.350,551.964 225.290 C 552.146 226.231,596.779 265.934,651.148 313.520 L 750.000 400.041 750.000 350.020 L 750.000 300.000 825.000 300.000 L 900.000 300.000 900.000 225.000 L 900.000 150.000 825.034 150.000 L 750.069 150.000 749.534 100.415 L 749.000 50.830 650.316 137.205 M950.000 299.962 L 950.000 350.000 875.000 350.000 L 800.000 350.000 800.000 425.000 L 800.000 500.000 875.000 500.000 L 950.000 500.000 950.000 550.015 L 950.000 600.030 1049.974 512.544 C 1143.584 430.626,1149.726 424.851,1146.474 421.808 C 1144.563 420.020,1099.575 380.615,1046.500 334.241 L 950.000 249.925 950.000 299.962 M427.000 351.208 C 342.372 363.748,278.822 418.918,256.592 499.147 C 251.681 516.870,251.091 522.326,251.091 550.000 C 251.091 577.564,251.692 583.167,256.510 600.545 C 276.304 671.937,328.063 723.696,399.455 743.490 C 416.833 748.308,422.436 748.909,450.000 748.909 C 477.674 748.909,483.130 748.319,500.853 743.408 C 562.807 726.241,612.606 682.162,635.756 624.000 C 670.018 537.920,639.479 437.257,563.435 385.617 C 545.841 373.668,517.156 360.706,497.913 356.007 C 481.485 351.996,440.431 349.218,427.000 351.208 M406.000 852.213 C 342.020 857.813,261.637 876.044,207.472 897.240 C 179.679 908.115,147.249 924.393,126.000 938.135 C 100.663 954.519,71.303 984.101,62.544 1002.069 C 50.995 1025.762,50.000 1033.087,50.000 1094.420 L 50.000 1150.000 450.132 1150.000 L 850.264 1150.000 849.595 1089.500 C 848.929 1029.317,848.898 1028.930,843.571 1015.550 C 817.821 950.866,723.702 895.979,589.000 867.093 C 518.417 851.957,461.653 847.342,406.000 852.213 " fill="#1D1E23" stroke="none" fill-rule="evenodd"></path></svg>