<svg width="1200" height="1200" viewBox="0 0 1200 1200" fill="none" xmlns="http://www.w3.org/2000/svg"><path d="M904.000 222.000 C 900.172 225.828,900.000 228.667,900.000 288.000 L 900.000 350.000 546.251 350.000 C 160.400 350.000,184.160 349.301,168.682 361.107 C 165.056 363.873,159.594 370.380,156.545 375.568 C 151.816 383.611,151.000 387.209,151.000 400.000 C 151.000 412.791,151.816 416.389,156.545 424.432 C 159.594 429.620,165.056 436.127,168.682 438.893 C 184.160 450.699,160.400 450.000,546.251 450.000 L 900.000 450.000 900.000 511.555 C 900.000 564.030,900.459 573.766,903.113 577.555 C 910.628 588.284,911.223 587.795,1005.508 493.492 C 1082.746 416.239,1094.000 404.222,1094.000 398.996 C 1094.000 393.770,1082.868 381.885,1006.431 305.505 C 912.911 212.054,913.482 212.518,904.000 222.000 M193.548 705.548 C 117.319 781.777,106.000 793.867,106.000 799.056 C 106.000 804.247,117.425 816.440,194.508 893.508 C 258.634 957.622,284.254 982.000,287.508 982.000 C 289.979 982.000,293.800 980.200,296.000 978.000 C 299.828 974.172,300.000 971.333,300.000 912.000 L 300.000 850.000 653.644 850.000 C 1050.719 850.000,1018.857 851.249,1035.053 835.053 C 1054.873 815.232,1054.643 784.195,1034.531 764.648 C 1018.291 748.865,1047.887 750.000,652.637 750.000 L 300.000 750.000 300.000 688.000 C 300.000 628.667,299.828 625.828,296.000 622.000 C 286.493 612.493,287.085 612.011,193.548 705.548 " fill="#1D1E23" stroke="none" fill-rule="evenodd"></path></svg>