<svg width="1200" height="1200" viewBox="0 0 1200 1200" fill="none" xmlns="http://www.w3.org/2000/svg"><path d="M488.633 162.392 C 435.298 215.661,411.773 240.482,410.914 244.392 C 407.881 258.200,409.020 259.608,484.698 335.641 C 524.464 375.594,559.430 409.569,562.401 411.141 C 565.371 412.714,571.459 414.000,575.930 414.000 C 582.396 414.000,585.587 412.600,591.529 407.157 L 599.000 400.314 599.598 350.157 L 600.196 300.000 606.177 300.000 C 618.751 300.000,651.744 304.397,669.000 308.373 C 777.717 333.422,866.485 422.184,891.641 531.000 C 900.784 570.550,901.998 615.611,894.960 654.250 C 893.282 663.463,887.742 683.849,882.648 699.553 C 873.675 727.218,873.462 728.442,875.804 738.905 C 880.193 758.516,895.202 773.634,914.539 777.920 C 927.286 780.746,937.881 778.774,950.509 771.228 C 963.585 763.415,971.375 750.954,979.801 724.373 C 993.350 681.634,997.751 656.792,999.352 614.000 C 1003.373 506.535,963.986 402.474,890.037 325.195 C 819.738 251.730,731.322 209.777,629.596 201.618 L 600.191 199.260 599.596 149.473 L 599.000 99.686 591.529 92.843 C 585.225 87.068,582.581 86.000,574.590 86.000 L 565.121 86.000 488.633 162.392 M249.924 428.513 C 236.377 436.608,228.722 448.742,220.199 475.627 C 206.650 518.366,202.249 543.208,200.648 586.000 C 197.165 679.064,226.257 769.770,283.715 845.000 C 296.671 861.964,330.290 896.250,348.000 910.562 C 396.853 950.042,459.908 979.811,520.000 991.767 C 544.424 996.626,572.182 999.960,588.402 999.984 L 599.804 1000.000 600.402 1050.157 L 601.000 1100.314 608.471 1107.157 C 614.775 1112.932,617.419 1114.000,625.410 1114.000 L 634.878 1114.000 710.436 1038.538 C 762.643 986.398,786.662 961.053,788.155 956.531 C 792.779 942.521,791.913 941.415,718.264 867.262 C 680.169 828.907,645.490 794.932,641.200 791.762 C 629.776 783.323,618.456 783.697,608.471 792.843 L 601.000 799.686 600.400 850.137 L 599.801 900.588 580.152 899.301 C 449.983 890.770,337.617 795.558,308.359 669.000 C 295.216 612.149,298.298 556.519,317.797 498.603 C 327.039 471.153,327.121 470.500,323.045 456.776 C 316.619 435.137,298.255 422.000,274.433 422.000 C 262.637 422.000,259.370 422.868,249.924 428.513 " fill="#1D1E23" stroke="none" fill-rule="evenodd"></path></svg>