<svg width="1200" height="1200" viewBox="0 0 1200 1200" fill="none" xmlns="http://www.w3.org/2000/svg"><path d="M488.633 162.392 C 435.298 215.661,411.773 240.482,410.914 244.392 C 407.881 258.200,409.020 259.608,484.698 335.641 C 524.464 375.594,559.430 409.569,562.401 411.141 C 565.371 412.714,571.459 414.000,575.930 414.000 C 582.396 414.000,585.587 412.600,591.529 407.157 L 599.000 400.314 599.598 350.157 L 600.196 300.000 606.177 300.000 C 619.727 300.000,652.279 304.493,671.121 308.965 C 776.241 333.912,863.130 419.669,890.010 525.000 C 904.993 583.711,902.445 641.275,882.203 701.397 C 872.904 729.017,872.856 729.421,877.150 743.883 C 883.675 765.853,909.069 782.508,930.574 778.921 C 940.961 777.189,955.520 769.984,961.417 763.657 C 974.919 749.172,992.562 690.093,997.874 641.579 C 1011.078 520.974,966.067 397.983,877.573 312.858 C 808.502 246.417,726.446 209.615,629.595 201.640 L 600.191 199.219 599.595 149.453 L 599.000 99.686 591.529 92.843 C 585.225 87.068,582.581 86.000,574.590 86.000 L 565.121 86.000 488.633 162.392 M252.337 427.207 C 235.657 435.519,227.526 449.283,216.260 488.278 C 180.470 612.156,205.015 741.959,283.715 845.000 C 296.671 861.964,330.290 896.250,348.000 910.562 C 407.535 958.674,481.946 989.554,558.421 997.884 C 569.103 999.048,582.828 1000.000,588.921 1000.000 L 600.000 1000.000 600.000 1047.198 C 600.000 1099.119,600.939 1104.148,611.841 1110.588 C 615.018 1112.465,621.501 1114.000,626.247 1114.000 L 634.878 1114.000 710.496 1038.500 C 791.172 957.951,793.444 955.143,788.200 942.483 C 786.896 939.334,751.865 902.838,710.353 861.379 L 634.878 786.000 625.410 786.000 C 617.419 786.000,614.775 787.068,608.471 792.843 L 601.000 799.686 600.400 850.131 L 599.801 900.576 579.400 899.241 C 471.749 892.195,376.588 826.865,328.857 727.238 C 308.934 685.652,301.134 649.505,301.185 599.000 C 301.226 558.568,304.030 541.466,317.345 500.447 C 326.374 472.629,326.550 471.611,324.153 460.901 C 316.996 428.920,281.921 412.464,252.337 427.207 " fill="#1D1E23" stroke="none" fill-rule="evenodd"></path></svg>