<svg width="1200" height="1200" viewBox="0 0 1200 1200" fill="none" xmlns="http://www.w3.org/2000/svg"><path d="M178.006 234.994 L 143.034 270.009 201.907 328.907 L 260.780 387.805 255.250 397.403 C 219.289 459.817,200.067 530.179,200.016 599.579 C 199.945 698.217,239.014 798.085,304.868 867.600 L 318.736 882.239 259.881 941.120 L 201.025 1000.000 350.513 1000.000 L 500.000 1000.000 500.000 850.513 L 500.000 701.027 444.325 756.675 L 388.650 812.323 376.124 798.662 C 322.286 739.942,293.721 653.299,301.695 572.906 C 305.313 536.437,315.457 499.310,329.485 471.193 L 334.379 461.386 536.073 663.073 C 647.004 774.000,737.400 865.352,736.953 866.077 C 736.505 866.801,728.007 870.803,718.069 874.971 L 700.000 882.548 700.000 934.274 C 700.000 977.079,700.479 986.000,702.778 986.000 C 713.240 986.000,773.769 961.007,800.506 945.646 L 812.013 939.036 876.523 1003.523 L 941.033 1068.010 976.005 1032.995 L 1010.978 997.979 611.978 598.979 L 212.978 199.979 178.006 234.994 M700.000 350.487 L 700.000 500.973 756.138 444.987 L 812.275 389.000 824.339 401.992 C 838.223 416.944,857.252 444.643,867.169 464.336 C 905.864 541.173,909.996 631.055,878.426 709.176 L 874.314 719.353 912.096 757.096 L 949.879 794.840 960.754 771.920 C 986.221 718.247,999.942 658.264,999.984 600.421 C 1000.055 502.097,960.567 400.934,895.601 333.010 L 882.201 319.000 941.588 259.500 L 1000.975 200.000 850.487 200.000 L 700.000 200.000 700.000 350.487 M478.000 219.762 C 456.942 226.709,430.353 237.825,416.580 245.439 L 406.160 251.199 443.580 288.503 L 481.000 325.807 490.500 321.648 L 500.000 317.490 500.000 265.745 C 500.000 225.642,499.438 214.017,497.500 214.076 C 496.125 214.119,487.350 216.677,478.000 219.762 " fill="#1D1E23" stroke="none" fill-rule="evenodd"></path></svg>