<svg width="1200" height="1200" viewBox="0 0 1200 1200" fill="none" xmlns="http://www.w3.org/2000/svg"><path d="M500.005 150.994 L 401.010 250.005 500.505 349.500 L 600.000 448.995 600.000 374.497 L 600.000 300.000 606.079 300.000 C 609.422 300.000,620.897 300.951,631.579 302.113 C 732.775 313.123,818.388 371.735,866.099 462.670 C 908.902 544.250,910.882 640.577,871.524 726.625 L 865.292 740.251 901.125 776.125 C 920.833 795.856,937.418 811.997,937.979 811.993 C 939.947 811.981,958.516 777.850,965.988 760.511 C 1013.182 650.993,1011.060 532.102,960.024 426.426 C 940.938 386.906,919.716 356.210,890.037 325.195 C 819.718 251.709,731.326 209.777,629.524 201.613 L 600.048 199.249 599.524 125.616 L 599.000 51.983 500.005 150.994 M251.279 404.995 C 187.485 516.441,183.229 656.072,240.042 773.709 C 261.236 817.594,286.510 852.430,322.280 887.060 C 355.725 919.439,385.312 940.168,426.426 960.024 C 475.878 983.906,540.810 999.916,588.500 999.984 L 600.000 1000.000 600.000 1075.498 L 600.000 1150.995 700.498 1050.498 L 800.995 950.000 700.498 849.502 L 600.000 749.005 600.000 824.803 L 600.000 900.601 580.251 899.307 C 450.533 890.806,339.728 797.588,308.872 671.000 C 292.784 604.995,299.571 536.570,328.476 473.375 L 334.708 459.749 298.875 423.875 C 279.167 404.144,262.582 388.003,262.021 388.007 C 261.459 388.010,256.626 395.655,251.279 404.995 " fill="#1D1E23" stroke="none" fill-rule="evenodd"></path></svg>