<svg width="1200" height="1200" viewBox="0 0 1200 1200" fill="none" xmlns="http://www.w3.org/2000/svg"><path d="M700.456 325.110 L 701.000 450.309 708.471 457.154 C 714.763 462.921,717.425 464.000,725.354 464.000 L 734.766 464.000 772.949 426.000 C 793.949 405.100,811.636 388.000,812.253 388.000 C 814.654 388.000,840.042 419.864,850.498 436.000 C 878.514 479.235,893.464 522.350,898.284 573.806 C 902.343 617.145,895.755 664.934,879.847 707.559 L 875.160 720.118 911.059 756.059 C 930.804 775.827,947.698 792.000,948.602 792.000 C 949.506 792.000,954.650 782.775,960.033 771.500 C 1011.857 662.953,1013.271 546.232,964.099 436.000 C 947.791 399.441,922.320 361.100,895.603 332.895 L 882.206 318.752 917.311 283.876 C 959.979 241.486,964.000 236.387,964.000 224.671 C 964.000 217.520,962.762 214.590,957.154 208.471 L 950.309 201.000 825.110 200.456 L 699.912 199.912 700.456 325.110 M203.726 221.318 C 193.367 223.094,177.386 234.607,171.072 244.843 C 165.694 253.561,165.005 256.420,165.040 269.843 C 165.068 280.650,166.138 287.009,168.769 292.000 C 170.798 295.850,192.340 319.011,216.639 343.469 L 260.821 387.939 256.267 395.469 C 253.762 399.611,246.450 413.800,240.018 427.000 C 213.862 480.679,200.060 540.227,200.016 599.579 C 199.945 698.202,239.015 798.086,304.844 867.575 L 318.687 882.188 277.344 923.703 L 236.000 965.218 236.000 974.638 C 236.000 982.576,237.078 985.235,242.845 991.529 L 249.691 999.000 365.345 999.496 C 455.352 999.883,482.096 999.433,485.940 997.467 C 488.657 996.078,492.953 991.866,495.487 988.106 L 500.093 981.270 499.547 865.480 L 499.000 749.691 491.529 742.845 C 485.237 737.079,482.574 736.000,474.646 736.000 L 465.234 736.000 427.051 774.000 C 406.051 794.900,388.364 812.000,387.747 812.000 C 387.130 812.000,380.751 805.025,373.571 796.500 C 296.492 704.975,278.926 583.700,327.392 477.675 L 334.693 461.701 536.347 663.347 C 647.256 774.252,738.000 865.599,738.000 866.341 C 738.000 867.083,734.682 868.785,730.626 870.123 C 720.531 873.455,705.484 888.997,702.445 899.232 C 699.376 909.567,699.295 927.297,702.276 936.202 C 705.742 946.552,713.137 955.324,723.568 961.455 C 731.274 965.986,735.378 966.997,746.000 966.986 C 758.082 966.972,760.695 966.079,783.000 954.339 C 796.200 947.392,807.859 940.869,808.909 939.845 C 810.104 938.679,830.304 957.304,862.909 989.634 C 919.147 1045.398,920.015 1046.023,941.232 1045.980 C 976.598 1045.910,1000.616 1006.069,984.243 974.637 C 979.373 965.289,243.734 229.742,234.813 225.301 C 228.054 221.936,212.068 219.888,203.726 221.318 M426.121 241.262 C 416.154 246.356,408.000 251.091,408.000 251.783 C 408.000 252.475,424.259 269.232,444.131 289.021 L 480.261 325.000 487.769 316.650 C 496.433 307.015,500.000 296.909,500.000 282.000 C 500.000 260.319,490.932 245.045,473.142 236.762 C 457.270 229.371,447.569 230.299,426.121 241.262 " fill="#1D1E23" stroke="none" fill-rule="evenodd"></path></svg>