<svg width="1200" height="1200" viewBox="0 0 1200 1200" fill="none" xmlns="http://www.w3.org/2000/svg"><path d="M134.000 201.327 C 123.664 202.996,104.637 210.762,94.526 217.438 C 73.539 231.296,57.312 255.132,52.210 279.598 C 49.091 294.557,49.091 905.443,52.210 920.402 C 60.026 957.883,92.117 989.974,129.598 997.790 C 137.158 999.366,272.226 1000.000,600.678 1000.000 C 1104.073 1000.000,1070.792 1000.762,1095.765 988.662 C 1110.555 981.496,1129.956 961.956,1137.882 946.244 C 1150.467 921.294,1149.927 936.827,1149.965 598.598 C 1149.990 381.048,1149.349 287.075,1147.790 279.598 C 1140.894 246.531,1117.041 219.355,1083.000 205.784 L 1071.000 201.000 605.000 200.760 C 348.700 200.628,136.750 200.883,134.000 201.327 M950.000 600.000 L 950.000 900.000 600.000 900.000 L 250.000 900.000 250.000 600.000 L 250.000 300.000 600.000 300.000 L 950.000 300.000 950.000 600.000 " fill="#1D1E23" stroke="none" fill-rule="evenodd"></path></svg>