<svg width="1200" height="1200" viewBox="0 0 1200 1200" fill="none" xmlns="http://www.w3.org/2000/svg"><path d="M234.000 151.325 C 223.653 153.000,204.633 160.765,194.526 167.438 C 173.539 181.296,157.312 205.132,152.210 229.598 C 149.085 244.585,149.085 955.415,152.210 970.402 C 160.026 1007.883,192.117 1039.974,229.598 1047.790 C 244.596 1050.917,1005.404 1050.917,1020.402 1047.790 C 1057.883 1039.974,1089.974 1007.883,1097.790 970.402 C 1100.915 955.415,1100.915 244.585,1097.790 229.598 C 1090.894 196.531,1067.041 169.355,1033.000 155.784 L 1021.000 151.000 630.000 150.758 C 414.950 150.624,236.750 150.880,234.000 151.325 M1000.000 325.000 L 1000.000 400.000 625.000 400.000 L 250.000 400.000 250.000 325.000 L 250.000 250.000 625.000 250.000 L 1000.000 250.000 1000.000 325.000 M400.000 725.000 L 400.000 950.000 325.000 950.000 L 250.000 950.000 250.000 725.000 L 250.000 500.000 325.000 500.000 L 400.000 500.000 400.000 725.000 M750.000 725.000 L 750.000 950.000 625.000 950.000 L 500.000 950.000 500.000 725.000 L 500.000 500.000 625.000 500.000 L 750.000 500.000 750.000 725.000 M1000.000 725.000 L 1000.000 950.000 925.000 950.000 L 850.000 950.000 850.000 725.000 L 850.000 500.000 925.000 500.000 L 1000.000 500.000 1000.000 725.000 " fill="#1D1E23" stroke="none" fill-rule="evenodd"></path></svg>