<svg width="1200" height="1200" viewBox="0 0 1200 1200" fill="none" xmlns="http://www.w3.org/2000/svg"><path d="M100.000 600.000 L 100.000 1200.000 575.000 1200.000 L 1050.000 1200.000 1050.000 600.000 L 1050.000 0.000 575.000 0.000 L 100.000 0.000 100.000 600.000 M950.000 550.000 L 950.000 950.000 575.000 950.000 L 200.000 950.000 200.000 550.000 L 200.000 150.000 575.000 150.000 L 950.000 150.000 950.000 550.000 M606.587 1007.603 C 622.573 1015.198,634.980 1027.679,642.773 1044.000 C 648.293 1055.561,648.980 1058.993,648.980 1075.000 C 648.980 1090.977,648.286 1094.461,642.801 1106.000 C 634.950 1122.516,622.528 1134.942,606.000 1142.811 C 594.453 1148.308,590.988 1149.000,575.000 1149.000 C 559.012 1149.000,555.547 1148.308,544.000 1142.811 C 527.472 1134.942,515.050 1122.516,507.199 1106.000 C 501.714 1094.461,501.020 1090.977,501.020 1075.000 C 501.020 1059.023,501.714 1055.539,507.199 1044.000 C 517.108 1023.154,535.862 1007.508,557.492 1002.044 C 571.096 998.608,592.837 1001.069,606.587 1007.603 " fill="#1D1E23" stroke="none" fill-rule="evenodd"></path></svg>