<svg width="1200" height="1200" viewBox="0 0 1200 1200" fill="none" xmlns="http://www.w3.org/2000/svg"><path d="M100.000 345.503 L 100.000 591.005 375.001 866.001 L 650.002 1140.996 895.499 895.499 L 1140.996 650.002 866.001 375.001 L 591.005 100.000 345.503 100.000 L 100.000 100.000 100.000 345.503 M306.587 207.603 C 322.573 215.198,334.980 227.679,342.773 244.000 C 348.293 255.561,348.980 258.993,348.980 275.000 C 348.980 290.977,348.286 294.461,342.801 306.000 C 334.950 322.516,322.528 334.942,306.000 342.811 C 294.453 348.308,290.988 349.000,275.000 349.000 C 259.012 349.000,255.547 348.308,244.000 342.811 C 227.472 334.942,215.050 322.516,207.199 306.000 C 201.714 294.461,201.020 290.977,201.020 275.000 C 201.020 259.023,201.714 255.539,207.199 244.000 C 217.108 223.154,235.862 207.508,257.492 202.044 C 271.096 198.608,292.837 201.069,306.587 207.603 " fill="#1D1E23" stroke="none" fill-rule="evenodd"></path></svg>