<svg width="1200" height="1200" viewBox="0 0 1200 1200" fill="none" xmlns="http://www.w3.org/2000/svg"><path d="M174.000 102.196 C 150.300 106.824,122.092 128.110,111.216 149.574 C 99.630 172.437,100.000 164.411,100.000 393.000 C 100.000 621.475,99.626 613.326,111.175 636.534 C 115.377 644.977,158.005 688.677,331.692 862.592 C 450.111 981.168,550.955 1080.827,555.789 1084.057 C 584.151 1103.006,621.782 1104.710,653.000 1088.459 C 667.438 1080.943,1080.943 667.438,1088.459 653.000 C 1104.709 621.785,1103.007 584.164,1084.060 555.789 C 1080.832 550.955,980.723 449.725,861.596 330.832 C 659.796 129.432,644.162 114.300,632.733 109.325 C 625.986 106.388,615.738 103.088,609.960 101.992 C 596.793 99.495,186.848 99.687,174.000 102.196 M799.496 400.496 L 1006.000 606.993 806.504 806.496 L 607.007 1006.000 400.504 799.504 L 194.000 593.007 194.000 393.504 L 194.000 194.000 393.496 194.000 L 592.993 194.000 799.496 400.496 M356.165 291.176 C 288.036 309.494,264.992 397.252,315.142 447.403 C 344.863 477.124,394.486 483.244,429.781 461.540 C 471.243 436.044,486.088 384.950,464.989 340.356 C 446.134 300.504,399.633 279.489,356.165 291.176 " fill="#1D1E23" stroke="none" fill-rule="evenodd"></path></svg>