<svg width="1200" height="1200" viewBox="0 0 1200 1200" fill="none" xmlns="http://www.w3.org/2000/svg"><path d="M482.171 153.434 C 477.315 155.149,469.581 160.314,464.983 164.911 C 452.586 177.309,450.000 187.031,450.000 221.241 L 450.000 249.769 378.500 250.385 L 307.000 251.000 294.000 257.189 C 279.035 264.314,265.668 276.830,259.058 289.909 C 256.531 294.909,231.184 365.600,202.732 447.000 L 151.000 595.000 151.000 794.000 L 151.000 993.000 157.189 1006.000 C 165.055 1022.522,177.478 1034.945,194.000 1042.811 C 205.547 1048.308,209.012 1049.000,225.000 1049.000 C 240.988 1049.000,244.453 1048.308,256.000 1042.811 C 272.547 1034.933,284.968 1022.498,292.768 1006.000 C 298.186 994.540,299.005 990.453,299.678 971.500 L 300.442 950.000 600.000 950.000 L 899.558 950.000 900.343 971.500 C 901.010 989.745,901.966 994.817,906.661 1005.000 C 913.906 1020.714,929.297 1036.197,944.791 1043.357 C 955.323 1048.225,959.472 1049.000,975.000 1049.000 C 990.528 1049.000,994.677 1048.225,1005.209 1043.357 C 1020.653 1036.220,1036.057 1020.750,1043.403 1005.000 L 1049.000 993.000 1049.000 794.000 L 1049.000 595.000 996.327 444.000 C 941.215 286.009,938.187 278.720,922.802 266.985 C 919.029 264.107,910.780 259.333,904.471 256.376 L 893.000 251.000 821.500 250.385 L 750.000 249.769 750.000 221.241 C 750.000 187.058,747.410 177.305,735.053 164.947 C 719.910 149.805,721.514 149.979,599.144 150.158 C 506.580 150.293,489.728 150.765,482.171 153.434 M912.342 438.000 L 949.662 550.000 599.617 550.000 C 320.424 550.000,249.758 549.494,250.491 547.500 C 250.997 546.125,267.818 495.725,287.872 435.500 L 324.333 326.000 599.678 326.000 L 875.022 326.000 912.342 438.000 M356.587 657.603 C 372.573 665.198,384.980 677.679,392.773 694.000 C 398.293 705.561,398.980 708.993,398.980 725.000 C 398.980 740.977,398.286 744.461,392.801 756.000 C 384.950 772.516,372.528 784.942,356.000 792.811 C 344.453 798.308,340.988 799.000,325.000 799.000 C 309.012 799.000,305.547 798.308,294.000 792.811 C 277.472 784.942,265.050 772.516,257.199 756.000 C 251.714 744.461,251.020 740.977,251.020 725.000 C 251.020 709.023,251.714 705.539,257.199 694.000 C 267.108 673.154,285.862 657.508,307.492 652.044 C 321.096 648.608,342.837 651.069,356.587 657.603 M906.587 657.603 C 922.573 665.198,934.980 677.679,942.773 694.000 C 948.293 705.561,948.980 708.993,948.980 725.000 C 948.980 740.977,948.286 744.461,942.801 756.000 C 934.950 772.516,922.528 784.942,906.000 792.811 C 894.453 798.308,890.988 799.000,875.000 799.000 C 859.012 799.000,855.547 798.308,844.000 792.811 C 827.472 784.942,815.050 772.516,807.199 756.000 C 801.714 744.461,801.020 740.977,801.020 725.000 C 801.020 709.023,801.714 705.539,807.199 694.000 C 817.108 673.154,835.862 657.508,857.492 652.044 C 871.096 648.608,892.837 651.069,906.587 657.603 " fill="#1D1E23" stroke="none" fill-rule="evenodd"></path></svg>