<svg width="1200" height="1200" viewBox="0 0 1200 1200" fill="none" xmlns="http://www.w3.org/2000/svg"><path d="M579.000 152.822 C 557.030 158.275,536.115 173.104,524.233 191.653 C 520.857 196.924,470.663 327.651,409.123 491.448 C 307.222 762.674,300.001 782.727,300.020 794.448 C 300.084 835.690,344.131 862.281,381.125 843.410 C 392.678 837.517,400.040 830.128,405.446 819.000 C 407.584 814.600,420.427 779.725,433.986 741.500 L 458.639 672.000 600.048 672.000 L 741.457 672.000 744.656 680.500 C 746.415 685.175,757.654 716.900,769.631 751.000 C 793.207 818.125,796.699 826.274,805.317 834.280 C 841.207 867.624,899.905 842.917,899.980 794.434 C 899.999 782.695,892.828 762.781,790.870 491.434 C 729.569 328.290,679.119 196.903,675.760 191.653 C 655.539 160.051,615.163 143.847,579.000 152.822 M652.849 422.501 C 680.266 500.876,703.087 566.125,703.563 567.500 C 704.248 569.479,682.670 570.000,600.000 570.000 C 517.330 570.000,495.752 569.479,496.437 567.500 C 558.583 387.866,597.435 280.000,599.991 280.001 C 602.175 280.002,616.675 319.094,652.849 422.501 M184.000 1001.326 C 173.657 1002.999,154.635 1010.764,144.526 1017.438 C 117.393 1035.355,100.000 1067.605,100.000 1100.000 C 100.000 1146.006,134.495 1188.384,179.598 1197.790 C 194.606 1200.919,1005.394 1200.919,1020.402 1197.790 C 1057.883 1189.974,1089.974 1157.883,1097.790 1120.402 C 1107.933 1071.760,1081.589 1025.155,1033.000 1005.784 L 1021.000 1001.000 605.000 1000.758 C 376.200 1000.626,186.750 1000.881,184.000 1001.326 " fill="#1D1E23" stroke="none" fill-rule="evenodd"></path></svg>