<svg width="1200" height="1200" viewBox="0 0 1200 1200" fill="none" xmlns="http://www.w3.org/2000/svg"><path d="M179.020 152.350 C 142.964 159.226,109.965 192.414,102.210 229.598 C 99.166 244.198,99.166 455.802,102.210 470.402 C 110.026 507.883,142.117 539.974,179.598 547.790 C 194.035 550.800,355.965 550.800,370.402 547.790 C 407.883 539.974,439.974 507.883,447.790 470.402 C 449.005 464.572,450.000 446.347,450.000 429.902 L 450.000 400.000 500.000 400.000 L 550.000 400.000 550.000 604.902 C 550.000 746.765,550.680 813.064,552.210 820.402 C 560.026 857.883,592.117 889.974,629.598 897.790 C 635.844 899.092,662.744 900.000,695.098 900.000 L 750.000 900.000 750.000 929.902 C 750.000 946.347,750.995 964.572,752.210 970.402 C 760.026 1007.883,792.117 1039.974,829.598 1047.790 C 836.370 1049.202,870.816 1050.000,925.000 1050.000 C 979.184 1050.000,1013.630 1049.202,1020.402 1047.790 C 1057.883 1039.974,1089.974 1007.883,1097.790 970.402 C 1099.248 963.410,1100.000 922.436,1100.000 850.000 C 1100.000 777.564,1099.248 736.590,1097.790 729.598 C 1089.841 691.483,1056.913 659.068,1019.133 652.168 C 1011.855 650.838,975.450 650.000,925.000 650.000 C 874.550 650.000,838.145 650.838,830.867 652.168 C 793.087 659.068,760.159 691.483,752.210 729.598 C 750.995 735.428,750.000 753.653,750.000 770.098 L 750.000 800.000 700.000 800.000 L 650.000 800.000 650.000 600.000 L 650.000 400.000 700.000 400.000 L 750.000 400.000 750.000 429.902 C 750.000 446.347,750.995 464.572,752.210 470.402 C 760.026 507.883,792.117 539.974,829.598 547.790 C 844.035 550.800,1005.965 550.800,1020.402 547.790 C 1057.883 539.974,1089.974 507.883,1097.790 470.402 C 1100.834 455.802,1100.834 244.198,1097.790 229.598 C 1089.841 191.483,1056.913 159.068,1019.133 152.168 C 1011.855 150.838,975.450 150.000,925.000 150.000 C 874.550 150.000,838.145 150.838,830.867 152.168 C 793.087 159.068,760.159 191.483,752.210 229.598 C 750.995 235.428,750.000 253.653,750.000 270.098 L 750.000 300.000 600.000 300.000 L 450.000 300.000 450.000 270.098 C 450.000 253.653,449.005 235.428,447.790 229.598 C 439.841 191.483,406.913 159.068,369.133 152.168 C 354.378 149.473,193.299 149.628,179.020 152.350 " fill="#1D1E23" stroke="none" fill-rule="evenodd"></path></svg>