<svg width="1200" height="1200" viewBox="0 0 1200 1200" fill="none" xmlns="http://www.w3.org/2000/svg"><path d="M482.171 53.434 C 464.528 59.666,450.000 80.694,450.000 100.000 C 450.000 112.080,455.967 126.072,464.947 135.053 C 480.053 150.158,478.625 150.000,600.000 150.000 C 721.375 150.000,719.947 150.158,735.053 135.053 C 754.616 115.489,754.616 84.511,735.053 64.947 C 719.910 49.805,721.514 49.979,599.144 50.158 C 506.580 50.293,489.728 50.765,482.171 53.434 M567.000 201.224 C 455.198 213.028,365.735 253.948,288.736 328.500 C 247.754 368.180,219.847 406.245,195.993 455.000 C 166.451 515.383,152.719 569.836,150.567 635.131 C 148.134 708.968,163.195 780.437,194.876 845.384 C 210.562 877.541,220.046 893.050,241.657 921.883 C 314.293 1018.794,426.540 1082.637,549.598 1097.031 C 613.687 1104.528,677.981 1097.754,742.000 1076.758 C 807.348 1055.327,868.399 1017.601,918.000 968.000 C 1002.250 883.750,1050.000 768.715,1050.000 650.000 C 1050.000 556.384,1018.468 459.623,964.040 386.216 L 951.726 369.607 974.680 346.159 C 994.517 325.894,998.067 321.254,1000.817 311.992 C 1004.743 298.774,1004.771 295.311,1001.057 282.863 C 994.800 261.889,976.054 248.000,954.002 248.000 C 947.330 248.000,938.525 249.385,934.436 251.079 C 930.172 252.844,917.397 263.713,904.486 276.560 C 887.414 293.547,881.311 298.483,879.236 296.981 C 806.970 244.654,742.217 216.753,666.000 205.099 C 645.559 201.974,583.067 199.528,567.000 201.224 M617.009 403.312 C 622.825 405.294,630.145 410.040,635.233 415.127 C 650.000 429.894,650.000 429.897,650.000 550.000 C 650.000 670.103,650.000 670.106,635.233 684.873 C 615.483 704.622,584.596 704.701,564.947 685.053 C 549.842 669.947,550.000 671.375,550.000 550.000 C 550.000 428.583,549.836 430.058,564.983 414.911 C 578.874 401.021,597.860 396.788,617.009 403.312 " fill="#1D1E23" stroke="none" fill-rule="evenodd"></path></svg>