<svg width="1200" height="1200" viewBox="0 0 1200 1200" fill="none" xmlns="http://www.w3.org/2000/svg"><path d="M179.020 202.350 C 152.857 207.340,123.025 230.306,111.475 254.350 C 99.515 279.250,100.062 262.722,100.030 600.402 C 100.009 818.663,100.651 912.925,102.210 920.402 C 110.026 957.883,142.117 989.974,179.598 997.790 C 194.606 1000.919,1005.394 1000.919,1020.402 997.790 C 1057.883 989.974,1089.974 957.883,1097.790 920.402 C 1100.909 905.443,1100.909 294.557,1097.790 279.598 C 1089.841 241.483,1056.913 209.068,1019.133 202.168 C 1003.766 199.361,193.773 199.537,179.020 202.350 M525.852 305.012 C 581.209 315.772,629.563 341.398,669.083 380.917 C 708.847 420.682,734.121 468.563,745.268 525.252 C 750.106 549.856,750.130 600.583,745.315 624.748 C 733.954 681.760,708.806 729.372,669.083 769.071 C 629.988 808.142,582.393 833.642,527.000 845.196 C 501.758 850.460,448.242 850.460,423.000 845.196 C 367.607 833.642,320.012 808.142,280.917 769.071 C 241.188 729.366,216.013 681.698,204.695 624.748 C 199.844 600.342,199.844 549.658,204.695 525.252 C 216.011 468.312,241.178 420.656,280.917 380.917 C 325.966 335.869,380.644 309.797,448.000 301.251 C 461.789 299.502,509.314 301.797,525.852 305.012 M462.597 403.919 C 449.914 411.652,449.995 411.000,450.044 504.401 C 450.084 582.202,450.383 589.643,453.761 597.000 C 455.782 601.400,459.137 606.451,461.218 608.225 C 464.763 611.248,599.474 689.583,613.401 696.720 C 621.900 701.076,629.584 700.848,637.526 696.006 C 651.081 687.741,653.521 669.824,642.475 659.666 C 639.464 656.896,606.625 637.257,569.500 616.022 L 502.000 577.414 502.000 496.977 C 502.000 418.434,501.902 416.414,497.823 411.230 C 488.938 399.933,474.163 396.867,462.597 403.919 " fill="#1D1E23" stroke="none" fill-rule="evenodd"></path></svg>