<svg width="1200" height="1200" viewBox="0 0 1200 1200" fill="none" xmlns="http://www.w3.org/2000/svg"><path d="M450.000 100.000 L 450.000 150.000 600.000 150.000 L 750.000 150.000 750.000 100.000 L 750.000 50.000 600.000 50.000 L 450.000 50.000 450.000 100.000 M567.000 201.205 C 501.166 208.002,454.524 220.739,402.880 246.025 C 311.777 290.631,240.486 361.896,195.830 453.000 C 143.888 558.968,135.940 678.259,173.242 792.000 C 194.673 857.348,232.399 918.399,282.000 968.000 C 331.601 1017.601,392.652 1055.327,458.000 1076.758 C 552.636 1107.795,647.364 1107.795,742.000 1076.758 C 807.348 1055.327,868.399 1017.601,918.000 968.000 C 990.246 895.754,1035.049 802.838,1047.031 700.402 C 1059.866 590.682,1028.976 473.795,963.978 386.132 L 951.601 369.440 987.122 333.878 L 1022.643 298.316 1008.821 282.862 C 1001.220 274.363,985.552 258.549,974.004 247.721 L 953.007 228.033 917.497 263.502 C 890.390 290.578,881.338 298.501,879.244 296.986 C 806.904 244.624,742.227 216.754,666.000 205.099 C 645.637 201.986,583.221 199.531,567.000 201.205 M650.000 550.000 L 650.000 700.000 600.000 700.000 L 550.000 700.000 550.000 550.000 L 550.000 400.000 600.000 400.000 L 650.000 400.000 650.000 550.000 " fill="#1D1E23" stroke="none" fill-rule="evenodd"></path></svg>