<svg width="1200" height="1200" viewBox="0 0 1200 1200" fill="none" xmlns="http://www.w3.org/2000/svg"><path d="M179.020 202.350 C 152.857 207.340,123.025 230.306,111.475 254.350 C 99.515 279.250,100.062 262.722,100.030 600.402 C 100.009 818.663,100.651 912.925,102.210 920.402 C 110.026 957.883,142.117 989.974,179.598 997.790 C 186.988 999.331,261.396 1000.000,425.332 1000.000 L 660.467 1000.000 659.246 995.500 C 650.271 962.404,648.208 907.891,654.695 875.252 C 669.376 801.381,711.468 737.104,771.122 697.463 C 819.733 665.159,866.239 651.167,925.000 651.167 C 984.218 651.167,1032.348 665.841,1080.500 698.575 L 1100.000 711.831 1100.000 501.014 C 1100.000 354.832,1099.322 286.947,1097.790 279.598 C 1089.841 241.483,1056.913 209.068,1019.133 202.168 C 1003.766 199.361,193.773 199.537,179.020 202.350 M525.852 305.012 C 581.209 315.772,629.563 341.398,669.083 380.917 C 708.847 420.682,734.121 468.563,745.268 525.252 C 750.106 549.856,750.130 600.583,745.315 624.748 C 733.954 681.760,708.806 729.372,669.083 769.071 C 629.988 808.142,582.393 833.642,527.000 845.196 C 501.758 850.460,448.242 850.460,423.000 845.196 C 367.607 833.642,320.012 808.142,280.917 769.071 C 241.188 729.366,216.013 681.698,204.695 624.748 C 199.844 600.342,199.844 549.658,204.695 525.252 C 216.011 468.312,241.178 420.656,280.917 380.917 C 325.966 335.869,380.644 309.797,448.000 301.251 C 461.789 299.502,509.314 301.797,525.852 305.012 M460.837 401.938 C 458.547 402.864,454.272 406.476,451.337 409.964 L 446.000 416.307 446.000 504.253 C 446.000 598.541,445.922 597.759,456.310 607.314 C 458.889 609.687,494.750 631.189,536.000 655.097 C 618.224 702.754,621.479 704.099,634.000 695.603 C 646.045 687.431,648.414 668.360,638.489 659.478 C 636.570 657.760,604.400 638.787,567.000 617.314 L 499.000 578.273 498.000 497.545 C 497.086 423.724,496.687 416.341,493.344 411.242 C 487.277 401.986,471.722 397.534,460.837 401.938 M895.000 702.255 C 823.522 711.183,756.258 759.440,723.176 825.526 C 709.820 852.206,700.024 894.295,700.024 925.000 C 700.024 955.705,709.820 997.794,723.176 1024.474 C 744.455 1066.982,783.018 1105.545,825.526 1126.824 C 852.206 1140.180,894.295 1149.976,925.000 1149.976 C 955.705 1149.976,997.794 1140.180,1024.474 1126.824 C 1066.982 1105.545,1105.545 1066.982,1126.824 1024.474 C 1140.180 997.794,1149.976 955.705,1149.976 925.000 C 1149.976 917.300,1148.647 902.177,1147.021 891.393 C 1128.764 770.266,1017.716 686.926,895.000 702.255 M1050.030 840.500 C 1055.021 843.030,1060.534 847.833,1062.621 851.470 C 1066.667 858.521,1067.564 873.412,1064.300 879.320 C 1063.182 881.344,1026.432 918.698,982.633 962.329 C 895.740 1048.890,896.397 1048.373,879.063 1043.785 C 872.397 1042.020,863.669 1034.361,828.677 999.563 C 793.698 964.779,786.008 956.115,784.365 949.640 C 778.957 928.336,797.488 908.858,819.307 912.912 C 825.774 914.114,831.862 919.163,857.517 944.604 L 888.035 974.867 952.486 909.125 C 1028.037 832.063,1030.277 830.488,1050.030 840.500 " fill="#1D1E23" stroke="none" fill-rule="evenodd"></path></svg>