<svg width="1200" height="1200" viewBox="0 0 1200 1200" fill="none" xmlns="http://www.w3.org/2000/svg"><path d="M317.000 352.290 C 294.290 355.185,266.406 363.499,244.814 373.812 C 170.333 409.389,119.743 474.380,103.773 555.000 C 100.125 573.419,100.125 626.581,103.773 645.000 C 123.375 743.955,194.495 818.393,293.452 843.527 L 315.000 849.000 600.000 849.000 L 885.000 849.000 906.548 843.527 C 956.237 830.906,995.707 808.416,1029.181 773.651 C 1062.045 739.518,1081.558 703.971,1093.463 656.548 C 1098.316 637.219,1098.873 631.395,1098.873 600.000 C 1098.873 568.605,1098.316 562.781,1093.463 543.452 C 1080.749 492.805,1057.979 453.386,1021.324 418.568 C 983.469 382.609,932.180 358.470,880.052 352.078 C 858.958 349.492,337.416 349.688,317.000 352.290 M887.000 454.646 C 933.081 467.404,970.024 499.613,988.338 543.000 C 996.534 562.415,998.958 575.425,998.958 600.000 C 998.958 613.008,997.751 627.779,996.181 634.000 C 984.365 680.805,950.273 720.931,907.549 738.317 C 840.197 765.727,763.500 742.059,725.050 682.000 C 707.386 654.410,701.042 632.742,701.042 600.000 C 701.042 567.245,707.396 545.554,725.062 518.000 C 744.976 486.939,781.666 461.245,816.089 454.255 C 822.090 453.036,828.800 451.623,831.000 451.113 C 838.348 449.411,876.873 451.842,887.000 454.646 " fill="#1D1E23" stroke="none" fill-rule="evenodd"></path></svg>