<svg width="1200" height="1200" viewBox="0 0 1200 1200" fill="none" xmlns="http://www.w3.org/2000/svg"><path d="M317.000 352.290 C 294.290 355.185,266.406 363.499,244.814 373.812 C 170.333 409.389,119.743 474.380,103.773 555.000 C 100.125 573.419,100.125 626.581,103.773 645.000 C 123.375 743.955,194.495 818.393,293.452 843.527 L 315.000 849.000 600.000 849.000 L 885.000 849.000 906.548 843.527 C 956.237 830.906,995.707 808.416,1029.181 773.651 C 1062.045 739.518,1081.558 703.971,1093.463 656.548 C 1098.316 637.219,1098.873 631.395,1098.873 600.000 C 1098.873 568.605,1098.316 562.781,1093.463 543.452 C 1080.749 492.805,1057.979 453.386,1021.324 418.568 C 983.469 382.609,932.180 358.470,880.052 352.078 C 858.958 349.492,337.416 349.688,317.000 352.290 M387.000 454.646 C 441.186 469.648,482.492 511.777,496.181 566.000 C 499.786 580.279,499.786 619.721,496.181 634.000 C 484.365 680.805,450.273 720.931,407.549 738.317 C 340.197 765.727,263.500 742.059,225.050 682.000 C 207.386 654.410,201.042 632.742,201.042 600.000 C 201.042 567.245,207.396 545.554,225.062 518.000 C 244.976 486.939,281.666 461.245,316.089 454.255 C 322.090 453.036,328.800 451.623,331.000 451.113 C 338.348 449.411,376.873 451.842,387.000 454.646 " fill="#1D1E23" stroke="none" fill-rule="evenodd"></path></svg>