<svg width="1200" height="1200" viewBox="0 0 1200 1200" fill="none" xmlns="http://www.w3.org/2000/svg"><path d="M534.417 52.142 C 479.190 59.314,424.099 90.251,389.886 133.305 C 368.180 160.619,354.738 187.624,345.484 222.510 C 341.765 236.527,341.105 244.399,341.078 275.000 C 341.049 308.188,341.476 312.541,346.538 330.732 C 353.976 357.463,363.558 378.884,377.343 399.602 C 389.509 417.887,414.819 444.513,430.595 455.624 L 440.000 462.249 440.000 362.492 C 440.000 298.784,440.791 258.446,442.190 250.867 C 453.301 190.647,510.703 146.622,572.671 150.792 C 632.840 154.840,680.341 199.863,687.880 259.989 C 689.096 269.687,690.000 315.929,690.000 368.448 C 690.000 418.801,690.592 460.000,691.315 460.000 C 694.239 460.000,714.035 443.266,727.315 429.570 C 809.834 344.457,810.151 207.641,728.028 121.178 C 677.515 67.995,606.719 42.751,534.417 52.142 M547.235 202.097 C 534.646 205.259,516.227 216.111,508.599 224.860 C 504.695 229.337,499.139 237.950,496.251 244.000 L 491.000 255.000 490.473 533.710 L 489.945 812.420 485.473 811.339 C 483.013 810.745,443.694 802.461,398.098 792.931 C 299.087 772.236,293.720 771.892,274.824 785.032 C 266.830 790.591,261.496 796.326,257.182 804.000 C 251.704 813.747,251.000 816.823,251.000 831.000 C 251.000 844.833,251.768 848.386,256.671 857.231 C 260.695 864.489,293.523 898.516,369.671 974.354 C 485.709 1089.920,486.178 1090.319,514.186 1096.920 C 533.109 1101.381,846.649 1101.438,865.538 1096.985 C 883.247 1092.810,896.929 1085.305,910.599 1072.268 C 923.364 1060.095,930.138 1049.911,936.355 1033.549 C 940.634 1022.288,973.975 793.174,973.991 774.920 C 974.012 751.337,962.810 725.034,944.973 706.786 C 933.300 694.844,929.585 692.803,818.886 637.495 C 748.568 602.363,700.796 579.644,694.315 578.254 C 688.533 577.014,673.973 576.000,661.959 576.000 L 640.115 576.000 639.558 417.500 L 639.000 259.000 634.359 247.507 C 628.012 231.789,612.831 215.644,597.132 207.916 C 583.168 201.042,561.501 198.515,547.235 202.097 " fill="#1D1E23" stroke="none" fill-rule="evenodd"></path></svg>