<svg width="1200" height="1200" viewBox="0 0 1200 1200" fill="none" xmlns="http://www.w3.org/2000/svg"><path d="M507.000 52.255 C 436.146 61.105,368.057 109.823,336.429 174.298 C 305.678 236.984,304.556 304.574,333.189 369.576 C 345.268 397.000,373.234 431.809,400.218 453.009 L 412.000 462.265 412.015 369.633 C 412.024 318.685,412.880 269.613,413.918 260.584 C 417.181 232.206,430.380 205.551,451.245 185.201 C 511.696 126.243,613.686 145.055,650.240 221.906 C 661.432 245.437,661.927 251.334,661.965 361.624 L 662.000 462.249 671.405 455.624 C 687.181 444.513,712.491 417.887,724.657 399.602 C 738.442 378.884,748.024 357.463,755.462 330.732 C 760.516 312.571,760.953 308.134,760.953 275.000 C 760.953 241.866,760.516 237.429,755.462 219.268 C 743.787 177.314,725.139 144.864,696.106 115.984 C 645.988 66.129,578.366 43.340,507.000 52.255 M517.859 202.606 C 496.360 208.705,475.932 226.995,467.608 247.597 L 463.000 259.000 462.466 535.529 L 461.931 812.059 457.466 811.017 C 455.010 810.445,409.872 800.920,357.160 789.851 L 261.320 769.727 230.651 800.349 L 199.981 830.970 334.491 965.493 L 469.000 1100.015 685.887 1099.508 L 902.774 1099.000 929.447 909.226 C 944.116 804.850,955.832 719.165,955.481 718.814 C 955.130 718.464,890.979 686.426,812.922 647.620 L 671.000 577.063 642.000 576.032 L 613.000 575.000 612.000 415.000 L 611.000 255.000 605.568 243.939 C 597.120 226.738,587.569 216.994,571.250 208.929 C 554.347 200.575,533.656 198.125,517.859 202.606 " fill="#1D1E23" stroke="none" fill-rule="evenodd"></path></svg>