<svg width="1200" height="1200" viewBox="0 0 1200 1200" fill="none" xmlns="http://www.w3.org/2000/svg"><path d="M531.000 101.208 C 498.019 102.906,455.367 106.411,434.000 109.179 C 291.961 127.579,214.847 181.549,201.999 271.550 C 200.456 282.355,199.975 364.873,200.397 546.000 L 201.000 805.000 206.518 822.593 C 216.098 853.134,228.155 873.948,248.885 895.728 C 277.701 926.004,317.779 945.457,359.040 949.196 L 374.266 950.576 343.288 981.788 C 323.077 1002.153,311.801 1015.041,310.845 1018.872 C 308.643 1027.694,313.721 1040.010,321.796 1045.435 C 328.180 1049.723,330.565 1050.000,361.166 1050.000 C 379.298 1050.000,396.215 1049.059,399.323 1047.877 C 402.394 1046.710,426.567 1024.210,453.042 997.877 L 501.177 950.000 601.074 950.000 L 700.971 950.000 750.495 999.500 L 800.020 1049.000 835.510 1049.562 C 868.374 1050.083,871.490 1049.821,877.620 1046.018 C 885.967 1040.842,890.792 1029.878,888.993 1020.177 C 887.912 1014.351,881.831 1007.122,856.698 981.788 L 825.734 950.576 840.960 949.196 C 882.221 945.457,922.299 926.004,951.115 895.728 C 971.845 873.948,983.902 853.134,993.482 822.593 L 999.000 805.000 999.603 546.000 C 1000.025 364.873,999.544 282.355,998.001 271.550 C 986.523 191.146,923.453 139.302,809.000 116.189 C 785.469 111.437,750.868 106.886,716.000 103.956 C 690.894 101.846,557.182 99.861,531.000 101.208 M550.000 400.000 L 550.000 500.000 425.000 500.000 L 300.000 500.000 300.000 400.000 L 300.000 300.000 425.000 300.000 L 550.000 300.000 550.000 400.000 M900.000 400.000 L 900.000 500.000 775.000 500.000 L 650.000 500.000 650.000 400.000 L 650.000 300.000 775.000 300.000 L 900.000 300.000 900.000 400.000 M406.587 707.603 C 422.573 715.198,434.980 727.679,442.773 744.000 C 448.293 755.561,448.980 758.993,448.980 775.000 C 448.980 790.977,448.286 794.461,442.801 806.000 C 434.950 822.516,422.528 834.942,406.000 842.811 C 394.453 848.308,390.988 849.000,375.000 849.000 C 359.012 849.000,355.547 848.308,344.000 842.811 C 327.472 834.942,315.050 822.516,307.199 806.000 C 301.714 794.461,301.020 790.977,301.020 775.000 C 301.020 759.023,301.714 755.539,307.199 744.000 C 317.108 723.154,335.862 707.508,357.492 702.044 C 371.096 698.608,392.837 701.069,406.587 707.603 M856.587 707.603 C 872.573 715.198,884.980 727.679,892.773 744.000 C 898.293 755.561,898.980 758.993,898.980 775.000 C 898.980 790.977,898.286 794.461,892.801 806.000 C 884.950 822.516,872.528 834.942,856.000 842.811 C 844.453 848.308,840.988 849.000,825.000 849.000 C 809.012 849.000,805.547 848.308,794.000 842.811 C 777.472 834.942,765.050 822.516,757.199 806.000 C 751.714 794.461,751.020 790.977,751.020 775.000 C 751.020 759.023,751.714 755.539,757.199 744.000 C 767.108 723.154,785.862 707.508,807.492 702.044 C 821.096 698.608,842.837 701.069,856.587 707.603 " fill="#1D1E23" stroke="none" fill-rule="evenodd"></path></svg>