<svg width="1200" height="1200" viewBox="0 0 1200 1200" fill="none" xmlns="http://www.w3.org/2000/svg"><path d="M159.000 321.870 C 149.209 324.254,141.143 329.250,133.591 337.609 C 125.101 347.007,121.246 357.434,121.246 371.000 C 121.247 392.522,117.517 388.308,284.598 555.560 C 403.466 674.549,441.277 711.256,448.893 715.060 C 461.598 721.405,479.011 721.721,491.970 715.843 C 498.657 712.810,522.588 690.182,586.010 626.921 L 671.079 542.067 793.003 664.004 L 914.928 785.940 875.464 825.584 L 836.000 865.228 836.000 874.643 C 836.000 882.575,837.079 885.236,842.845 891.529 L 849.691 899.000 964.345 899.534 C 1072.541 900.037,1079.386 899.860,1085.845 896.379 C 1089.610 894.351,1094.335 889.625,1096.345 885.877 C 1099.760 879.510,1100.000 871.725,1100.000 767.432 C 1100.000 646.078,1100.278 649.229,1088.770 640.177 C 1082.503 635.247,1070.360 634.643,1062.401 638.865 C 1059.430 640.441,1040.821 657.980,1021.046 677.840 L 985.091 713.950 843.020 572.090 C 734.561 463.792,698.825 429.266,691.974 426.158 C 679.873 420.669,660.187 420.577,649.131 425.957 C 643.849 428.528,611.228 459.704,556.021 514.945 L 471.042 599.976 334.021 463.156 C 201.312 330.642,196.658 326.237,186.137 323.168 C 174.592 319.801,168.664 319.518,159.000 321.870 " fill="#1D1E23" stroke="none" fill-rule="evenodd"></path></svg>