<svg width="1200" height="1200" viewBox="0 0 1200 1200" fill="none" xmlns="http://www.w3.org/2000/svg"><path d="M850.837 301.938 C 842.475 305.320,836.000 315.621,836.000 325.539 L 836.000 334.772 875.464 374.416 L 914.928 414.060 792.993 536.007 L 671.059 657.953 587.030 574.296 C 540.813 528.285,499.539 488.569,495.310 486.039 C 490.032 482.882,483.307 481.130,473.871 480.455 C 449.099 478.683,456.915 471.912,284.598 644.424 C 156.857 772.309,129.424 800.727,125.721 809.000 C 108.005 848.590,145.126 890.310,186.238 877.015 C 196.433 873.719,204.217 866.333,334.021 736.780 L 471.042 600.025 557.021 686.032 C 649.929 778.970,649.860 778.913,670.911 778.805 C 692.446 778.695,689.343 781.415,843.030 627.914 L 985.079 486.037 1021.039 522.154 C 1040.818 542.018,1059.430 559.559,1062.401 561.135 C 1070.360 565.357,1082.503 564.753,1088.770 559.823 C 1100.275 550.774,1100.000 553.879,1100.000 433.035 C 1100.000 310.381,1100.124 311.675,1087.620 304.051 C 1081.180 300.125,1077.929 300.018,968.000 300.134 C 905.850 300.200,853.127 301.011,850.837 301.938 " fill="#1D1E23" stroke="none" fill-rule="evenodd"></path></svg>