<svg width="1200" height="1200" viewBox="0 0 1200 1200" fill="none" xmlns="http://www.w3.org/2000/svg"><path d="M134.000 151.327 C 123.664 152.996,104.637 160.762,94.526 167.438 C 73.539 181.296,57.312 205.132,52.210 229.598 C 49.091 244.557,49.091 855.443,52.210 870.402 C 60.026 907.883,92.117 939.974,129.598 947.790 C 136.706 949.272,182.989 950.000,270.098 950.000 L 400.000 950.000 400.000 978.644 C 400.000 1012.952,402.579 1022.684,414.947 1035.053 C 430.520 1050.625,422.781 1050.000,600.000 1050.000 C 777.219 1050.000,769.480 1050.625,785.053 1035.053 C 797.421 1022.684,800.000 1012.952,800.000 978.644 L 800.000 950.000 930.580 950.000 C 1072.411 950.000,1072.358 950.004,1095.765 938.662 C 1110.555 931.496,1129.956 911.956,1137.882 896.244 C 1150.467 871.294,1149.927 886.827,1149.965 548.598 C 1149.990 331.048,1149.349 237.075,1147.790 229.598 C 1140.894 196.531,1117.041 169.355,1083.000 155.784 L 1071.000 151.000 605.000 150.760 C 348.700 150.628,136.750 150.883,134.000 151.327 M1017.009 253.312 C 1022.825 255.294,1030.145 260.040,1035.233 265.127 C 1050.940 280.834,1050.000 262.706,1050.000 550.000 C 1050.000 837.294,1050.940 819.166,1035.233 834.873 C 1018.754 851.351,1057.620 850.000,600.000 850.000 C 142.814 850.000,181.214 851.319,164.947 835.053 C 148.947 819.052,150.000 839.135,150.000 550.000 C 150.000 260.799,148.941 280.954,164.983 264.911 C 180.849 249.046,142.921 250.334,599.144 250.158 C 974.054 250.013,1008.079 250.270,1017.009 253.312 " fill="#1D1E23" stroke="none" fill-rule="evenodd"></path></svg>