<svg width="1200" height="1200" viewBox="0 0 1200 1200" fill="none" xmlns="http://www.w3.org/2000/svg"><path d="M764.499 201.996 C 725.861 207.442,687.494 225.060,656.331 251.666 C 630.175 273.997,605.162 314.322,594.715 351.000 C 588.486 372.867,585.970 418.326,589.886 438.231 C 591.201 444.918,591.874 450.793,591.380 451.287 C 589.961 452.705,549.305 448.296,523.548 443.930 C 428.955 427.897,335.191 386.115,260.671 326.790 C 233.028 304.783,197.920 270.862,178.738 247.628 C 174.482 242.473,170.450 238.198,169.778 238.128 C 167.240 237.863,153.367 271.546,148.457 289.892 C 144.063 306.312,143.323 313.360,143.199 340.000 C 143.075 366.427,143.746 373.636,147.748 388.866 C 153.908 412.311,163.131 433.864,174.568 451.545 C 184.641 467.116,208.774 493.427,221.764 503.000 C 226.242 506.300,229.927 509.618,229.953 510.374 C 230.003 511.829,223.197 511.157,202.000 507.615 C 187.983 505.273,159.820 496.005,147.190 489.577 L 139.379 485.602 140.682 502.554 C 145.840 569.649,185.787 633.134,243.697 666.268 C 252.003 671.020,268.701 678.221,280.803 682.269 L 302.807 689.629 293.903 692.314 C 287.869 694.135,273.349 695.000,248.844 695.000 L 212.688 695.000 217.363 706.927 C 242.478 771.006,304.110 820.830,372.000 831.938 C 380.250 833.288,390.600 835.009,395.000 835.763 L 403.000 837.134 379.878 852.538 C 332.413 884.159,281.448 905.268,226.596 916.027 C 196.900 921.852,151.063 924.848,124.390 922.707 C 98.886 920.660,98.921 920.372,122.950 934.500 C 174.780 964.974,247.109 991.587,308.837 1002.895 C 351.945 1010.791,378.023 1012.617,430.786 1011.433 C 498.583 1009.911,548.084 1001.740,605.882 982.529 C 686.958 955.581,754.792 914.242,816.682 854.067 C 897.571 775.416,952.412 679.196,980.858 566.012 C 991.255 524.641,996.016 489.093,997.397 442.503 L 998.598 402.005 1015.799 388.242 C 1037.677 370.736,1067.359 340.081,1084.604 317.179 C 1091.985 307.377,1097.791 299.124,1097.506 298.839 C 1097.221 298.554,1083.940 302.715,1067.994 308.087 C 1039.819 317.577,1013.439 324.201,993.000 326.918 L 983.000 328.247 993.442 321.110 C 1018.822 303.761,1043.177 276.046,1058.061 247.575 C 1066.480 231.469,1072.984 215.148,1070.466 216.444 C 1024.823 239.940,990.852 253.386,957.644 261.098 L 942.287 264.664 930.834 254.196 C 903.668 229.368,871.172 212.607,835.000 204.766 C 817.849 201.048,781.389 199.615,764.499 201.996 " fill="#1D1E23" stroke="none" fill-rule="evenodd"></path></svg>