<svg width="1200" height="1200" viewBox="0 0 1200 1200" fill="none" xmlns="http://www.w3.org/2000/svg"><path d="M552.576 52.045 C 428.388 64.107,314.528 114.519,227.354 196.037 L 211.708 210.668 248.315 247.315 L 284.922 283.962 295.961 273.271 C 348.459 222.428,428.381 180.273,503.000 164.070 C 601.357 142.712,705.242 154.792,793.379 197.835 C 836.744 219.013,869.950 241.389,900.885 270.279 L 916.306 284.681 952.653 248.200 L 989.000 211.720 972.000 195.645 C 894.825 122.668,789.028 72.243,679.000 55.995 C 646.894 51.254,581.695 49.217,552.576 52.045 M566.280 258.158 C 504.699 264.099,443.177 288.088,393.704 325.449 C 377.367 337.787,358.000 355.227,358.000 357.601 C 358.000 358.393,373.975 374.985,393.500 394.471 L 429.000 429.900 442.000 418.817 C 487.959 379.635,540.675 360.016,600.000 360.016 C 659.216 360.016,711.984 379.660,758.000 418.833 L 771.000 429.900 806.500 394.471 C 826.025 374.985,842.000 358.393,842.000 357.601 C 842.000 355.227,822.633 337.787,806.296 325.449 C 738.160 273.993,652.135 249.875,566.280 258.158 M50.000 572.369 C 50.000 650.672,50.736 654.782,67.899 672.296 C 77.215 681.802,81.205 684.297,92.711 687.812 C 132.174 699.867,172.488 685.963,186.228 655.559 C 190.913 645.192,191.011 643.754,191.620 576.500 L 192.239 508.000 173.265 508.000 L 154.291 508.000 153.645 573.500 C 153.066 632.327,152.624 639.755,149.314 646.412 C 142.321 660.472,121.715 665.869,104.633 658.113 C 89.261 651.134,89.083 650.217,88.400 574.500 L 87.800 508.000 68.900 508.000 L 50.000 508.000 50.000 572.369 M228.000 600.000 L 228.000 692.000 247.000 692.000 L 266.000 692.000 266.000 653.000 L 266.000 614.000 303.000 614.000 L 340.000 614.000 340.000 653.000 L 340.000 692.000 360.000 692.000 L 380.000 692.000 380.000 600.000 L 380.000 508.000 360.000 508.000 L 340.000 508.000 340.000 545.000 L 340.000 582.000 303.000 582.000 L 266.000 582.000 266.000 545.000 L 266.000 508.000 247.000 508.000 L 228.000 508.000 228.000 600.000 M416.000 600.000 L 416.000 692.000 435.000 692.000 L 454.000 692.000 454.000 655.045 L 454.000 618.090 490.500 617.545 L 527.000 617.000 527.584 601.500 L 528.168 586.000 491.084 586.000 L 454.000 586.000 454.000 562.000 L 454.000 538.000 495.000 538.000 L 536.000 538.000 536.000 523.000 L 536.000 508.000 476.000 508.000 L 416.000 508.000 416.000 600.000 M612.000 599.839 L 612.000 692.000 631.000 692.000 L 650.000 692.000 650.000 659.000 L 650.000 626.000 665.631 626.000 L 681.262 626.000 698.131 658.963 L 715.000 691.925 735.500 691.963 C 746.775 691.983,756.000 691.473,756.000 690.830 C 756.000 690.186,747.450 673.613,737.000 654.000 C 726.550 634.387,718.000 617.558,718.000 616.601 C 718.000 615.645,720.574 613.342,723.720 611.484 C 753.328 593.994,758.709 549.644,734.116 525.794 C 718.685 510.829,712.428 509.396,658.500 508.473 L 612.000 507.678 612.000 599.839 M782.000 600.000 L 782.000 692.000 802.000 692.000 L 822.000 692.000 822.000 655.000 L 822.000 618.000 858.000 618.000 L 894.000 618.000 894.000 602.000 L 894.000 586.000 858.000 586.000 L 822.000 586.000 822.000 562.000 L 822.000 538.000 863.000 538.000 L 904.000 538.000 904.000 523.000 L 904.000 508.000 843.000 508.000 L 782.000 508.000 782.000 600.000 M936.000 600.000 L 936.000 692.000 956.000 692.000 L 976.000 692.000 976.000 600.000 L 976.000 508.000 956.000 508.000 L 936.000 508.000 936.000 600.000 M1008.000 600.147 L 1008.000 692.295 1048.500 691.647 L 1089.000 691.000 1102.551 684.581 C 1133.798 669.780,1150.000 640.899,1150.000 600.000 C 1150.000 553.676,1127.721 521.166,1089.080 511.104 C 1080.531 508.878,1067.379 508.000,1042.580 508.000 L 1008.000 508.000 1008.000 600.147 M698.955 542.787 C 706.829 547.946,710.220 554.788,710.304 565.690 C 710.468 586.819,699.980 594.000,668.960 594.000 L 650.000 594.000 650.000 565.717 L 650.000 537.434 671.983 538.475 C 687.539 539.213,695.424 540.473,698.955 542.787 M1088.341 544.305 C 1104.835 553.411,1110.660 567.946,1110.660 600.000 C 1110.660 624.130,1108.359 634.144,1100.238 645.354 C 1092.336 656.263,1082.356 660.687,1063.500 661.640 L 1048.000 662.424 1048.000 599.926 L 1048.000 537.428 1063.919 538.520 C 1075.348 539.303,1082.236 540.935,1088.341 544.305 M393.447 807.067 L 357.930 843.707 369.137 854.307 C 412.244 895.075,478.951 927.642,543.000 939.189 C 570.779 944.196,629.221 944.196,657.000 939.189 C 721.151 927.624,787.749 895.082,831.023 854.155 L 842.391 843.404 806.340 807.354 L 770.290 771.304 763.028 777.152 C 727.096 806.087,707.744 817.474,676.991 827.776 C 626.911 844.552,568.442 844.176,519.533 826.764 C 490.811 816.539,468.128 802.857,436.556 776.714 L 428.964 770.428 393.447 807.067 M248.236 952.764 L 211.719 989.320 228.157 1004.784 C 325.485 1096.343,462.812 1149.957,600.000 1149.957 C 736.635 1149.957,873.563 1096.708,970.752 1005.777 L 988.310 989.349 951.805 952.804 L 915.299 916.259 900.150 930.460 C 836.829 989.817,752.185 1029.334,659.000 1043.045 C 629.638 1047.365,570.446 1047.372,541.000 1043.060 C 447.952 1029.432,361.330 988.947,299.450 930.167 L 284.753 916.207 248.236 952.764 " fill="#1D1E23" stroke="none" fill-rule="evenodd"></path></svg>