<svg width="1200" height="1200" viewBox="0 0 1200 1200" fill="none" xmlns="http://www.w3.org/2000/svg"><path d="M100.000 574.508 L 100.000 800.000 325.492 800.000 L 550.984 800.000 460.354 709.354 L 369.724 618.708 378.752 611.310 C 406.699 588.410,456.809 560.621,492.640 548.152 C 535.821 533.126,565.483 527.858,614.000 526.600 C 686.550 524.718,740.595 536.394,803.000 567.432 C 892.848 612.117,964.686 691.580,999.238 784.495 C 1003.079 794.825,1005.865 799.667,1007.594 799.022 C 1009.020 798.489,1035.345 789.868,1066.094 779.864 C 1107.860 766.274,1122.000 760.879,1122.000 758.531 C 1122.000 752.712,1103.716 709.201,1090.681 684.000 C 1058.080 620.971,1006.538 558.256,951.000 514.040 C 878.062 455.970,786.636 417.058,694.862 405.023 C 575.261 389.338,456.907 413.975,355.141 475.740 C 331.796 489.909,289.497 520.377,284.037 526.955 C 281.575 529.922,271.774 520.759,190.643 439.643 L 100.000 349.016 100.000 574.508 " fill="#1D1E23" stroke="none" fill-rule="evenodd"></path></svg>