<svg width="1200" height="1200" viewBox="0 0 1200 1200" fill="none" xmlns="http://www.w3.org/2000/svg"><path d="M580.000 401.980 C 495.653 410.590,423.474 434.267,355.141 475.740 C 331.893 489.850,289.504 520.368,284.087 526.895 C 281.688 529.786,275.776 524.584,231.193 480.347 C 199.964 449.360,177.707 428.872,172.284 426.121 C 153.948 416.817,128.455 421.492,113.489 436.903 C 99.599 451.204,100.000 446.061,100.000 610.000 C 100.000 776.040,99.446 769.551,114.947 785.053 C 130.450 800.555,123.947 800.000,290.105 800.000 C 414.271 800.000,438.802 799.539,445.780 797.077 C 471.501 788.003,485.466 759.642,476.957 733.762 C 473.737 723.967,468.766 718.311,421.658 670.835 L 369.898 618.670 381.449 609.606 C 430.081 571.446,488.023 545.283,554.000 531.695 C 578.878 526.571,643.453 524.462,671.320 527.862 C 803.474 543.990,917.235 622.034,979.082 739.000 C 995.804 770.626,1014.010 784.525,1039.000 784.744 C 1080.486 785.107,1112.266 745.457,1101.146 707.207 C 1094.960 685.927,1066.497 638.308,1038.261 602.000 C 1020.856 579.619,983.726 541.445,960.000 521.540 C 925.042 492.211,872.411 459.932,830.000 441.811 C 791.580 425.395,744.732 412.309,701.136 405.817 C 671.192 401.358,606.247 399.300,580.000 401.980 " fill="#1D1E23" stroke="none" fill-rule="evenodd"></path></svg>