<svg width="1200" height="1200" viewBox="0 0 1200 1200" fill="none" xmlns="http://www.w3.org/2000/svg"><path d="M588.664 171.824 C 585.179 172.706,578.429 175.733,573.664 178.550 C 568.899 181.367,527.908 220.924,482.572 266.456 C 393.198 356.216,392.124 357.547,392.044 378.564 C 391.938 406.433,413.009 428.534,439.863 428.723 C 461.650 428.877,461.418 429.054,533.514 357.303 L 600.028 291.108 666.514 357.323 C 716.454 407.060,734.742 424.059,740.000 425.627 C 754.816 430.045,760.049 430.270,771.467 426.979 C 780.526 424.369,785.154 421.440,793.042 413.328 C 803.892 402.169,808.029 392.305,807.956 377.768 C 807.865 359.633,804.935 356.112,714.418 265.365 C 667.438 218.266,625.756 178.039,621.790 175.972 C 613.277 171.535,597.572 169.568,588.664 171.824 M420.923 775.757 C 410.747 780.379,397.429 795.345,394.352 805.614 C 390.781 817.532,391.555 829.946,396.526 840.492 C 399.910 847.673,421.700 870.731,486.000 935.178 C 533.187 982.473,574.334 1022.085,578.494 1024.223 C 589.848 1030.059,601.620 1030.970,615.196 1027.065 C 626.848 1023.713,628.100 1022.573,712.564 938.335 C 806.666 844.484,808.035 842.802,807.956 821.107 C 807.899 805.432,803.126 795.092,791.032 784.446 C 780.430 775.114,771.895 772.006,757.000 772.055 C 738.039 772.117,733.715 775.506,664.500 844.565 L 599.999 908.918 534.500 843.552 C 490.733 799.875,466.533 777.160,461.564 775.093 C 451.354 770.846,431.002 771.178,420.923 775.757 " fill="#1D1E23" stroke="none" fill-rule="evenodd"></path></svg>