<svg width="1200" height="1200" viewBox="0 0 1200 1200" fill="none" xmlns="http://www.w3.org/2000/svg"><path d="M485.007 265.993 L 371.028 379.985 405.999 414.999 L 440.969 450.012 520.485 370.515 L 600.000 291.019 679.515 370.515 L 759.031 450.012 794.001 414.999 L 828.972 379.985 714.993 265.993 C 652.304 203.297,600.557 152.000,600.000 152.000 C 599.443 152.000,547.696 203.297,485.007 265.993 M406.007 784.993 L 371.045 819.998 485.023 934.436 C 547.710 997.378,599.261 1049.314,599.580 1049.851 C 599.899 1050.388,651.871 999.122,715.073 935.927 L 829.986 821.027 794.508 785.508 L 759.030 749.988 679.515 829.485 L 600.000 908.981 520.485 829.485 L 440.969 749.988 406.007 784.993 " fill="#1D1E23" stroke="none" fill-rule="evenodd"></path></svg>