<svg width="1200" height="1200" viewBox="0 0 1200 1200" fill="none" xmlns="http://www.w3.org/2000/svg"><path d="M426.000 223.073 C 405.648 229.393,392.018 248.641,392.063 271.000 C 392.108 292.777,392.604 293.391,484.606 385.405 C 576.017 476.827,578.311 478.699,599.089 478.805 C 620.292 478.914,619.891 479.243,715.207 383.510 C 790.300 308.086,803.674 293.783,805.665 286.768 C 813.816 258.037,799.583 230.716,772.307 222.733 C 760.515 219.282,747.290 220.277,737.026 225.388 C 733.712 227.038,701.531 257.764,665.514 293.668 L 600.029 358.949 533.514 292.645 C 470.397 229.727,466.445 226.179,456.137 223.171 C 443.172 219.387,437.927 219.370,426.000 223.073 M578.893 726.936 C 571.442 730.654,547.727 753.245,482.836 818.436 C 389.515 912.191,391.975 909.135,392.020 931.232 C 392.089 965.932,431.456 990.368,462.392 974.913 C 466.027 973.097,498.475 942.229,534.500 906.317 L 600.000 841.023 665.500 906.317 C 701.525 942.229,733.973 973.097,737.608 974.913 C 768.544 990.368,807.911 965.932,807.980 931.232 C 808.025 909.148,810.468 912.187,717.164 818.279 C 649.435 750.111,628.860 730.539,621.000 726.798 C 607.335 720.295,592.102 720.345,578.893 726.936 " fill="#1D1E23" stroke="none" fill-rule="evenodd"></path></svg>