<svg width="1200" height="1200" viewBox="0 0 1200 1200" fill="none" xmlns="http://www.w3.org/2000/svg"><path d="M405.999 235.001 L 371.028 270.015 486.007 385.007 L 600.987 500.000 715.487 385.513 L 829.986 271.027 794.508 235.508 L 759.030 199.988 679.515 279.485 L 600.000 358.981 520.485 279.485 L 440.969 199.988 405.999 235.001 M485.007 815.993 L 371.028 929.985 405.999 964.999 L 440.969 1000.012 520.485 920.515 L 600.000 841.019 679.515 920.515 L 759.031 1000.012 794.001 964.999 L 828.972 929.985 714.993 815.993 C 652.304 753.297,600.557 702.000,600.000 702.000 C 599.443 702.000,547.696 753.297,485.007 815.993 " fill="#1D1E23" stroke="none" fill-rule="evenodd"></path></svg>