<svg width="1200" height="1200" viewBox="0 0 1200 1200" fill="none" xmlns="http://www.w3.org/2000/svg"><path d="M572.000 101.393 C 502.262 108.894,438.927 139.092,390.066 188.138 C 347.159 231.207,318.810 284.079,305.533 345.795 C 301.782 363.233,301.324 373.487,300.560 457.249 L 299.719 549.498 278.239 550.383 C 259.472 551.156,255.132 552.040,243.879 557.384 C 227.457 565.183,215.092 577.532,207.217 594.000 L 201.000 607.000 201.000 825.000 L 201.000 1043.000 206.597 1055.000 C 213.943 1070.750,229.347 1086.220,244.791 1093.357 L 257.000 1099.000 600.000 1099.000 L 943.000 1099.000 956.000 1092.811 C 972.522 1084.945,984.945 1072.522,992.811 1056.000 L 999.000 1043.000 999.000 825.000 L 999.000 607.000 992.811 594.000 C 984.945 577.478,972.522 565.055,956.000 557.189 L 943.000 551.000 671.353 550.465 L 399.707 549.930 400.572 461.465 C 401.275 389.592,402.034 370.562,404.618 360.000 C 414.982 317.632,435.395 281.992,465.343 253.976 C 490.131 230.789,519.008 214.973,553.649 205.612 C 574.918 199.864,620.077 199.405,643.000 204.705 C 686.414 214.741,726.850 239.604,754.450 273.231 C 771.344 293.815,780.550 299.014,800.000 298.954 C 817.952 298.898,827.834 294.503,838.793 281.700 C 847.017 272.092,849.992 263.369,849.945 249.000 C 849.900 235.278,845.086 225.811,827.519 204.896 C 789.640 159.796,733.310 124.633,675.156 109.784 C 644.110 101.858,600.592 98.318,572.000 101.393 " fill="#1D1E23" stroke="none" fill-rule="evenodd"></path></svg>