<svg width="1200" height="1200" viewBox="0 0 1200 1200" fill="none" xmlns="http://www.w3.org/2000/svg"><path d="M572.000 101.393 C 502.464 108.873,439.111 139.084,390.112 188.131 C 347.380 230.905,318.780 284.219,305.533 345.795 C 301.781 363.238,301.325 373.486,300.559 457.500 L 299.717 550.000 249.858 550.000 L 200.000 550.000 200.000 825.000 L 200.000 1100.000 600.000 1100.000 L 1000.000 1100.000 1000.000 825.000 L 1000.000 550.000 699.853 550.000 L 399.706 550.000 400.470 461.500 C 401.231 373.415,401.259 372.909,406.480 353.588 C 416.843 315.235,433.989 285.586,461.815 257.902 C 488.191 231.659,520.170 213.847,557.525 204.592 C 578.905 199.295,624.030 199.888,647.000 205.767 C 667.818 211.096,695.933 223.769,714.245 236.079 C 730.672 247.122,754.805 271.562,765.004 287.483 L 773.000 299.965 827.500 299.983 C 858.980 299.993,882.000 299.230,882.000 298.177 C 882.000 294.498,867.857 263.454,860.237 250.406 C 811.717 167.327,726.778 112.226,631.579 102.072 C 612.988 100.089,586.891 99.791,572.000 101.393 " fill="#1D1E23" stroke="none" fill-rule="evenodd"></path></svg>