<svg width="1200" height="1200" viewBox="0 0 1200 1200" fill="none" xmlns="http://www.w3.org/2000/svg"><path d="M567.000 52.290 C 531.523 56.812,491.259 72.343,458.814 94.020 C 438.412 107.651,405.695 140.593,392.294 161.000 C 367.787 198.317,353.706 239.356,350.654 282.354 L 349.401 300.000 399.296 300.000 L 449.191 300.000 451.608 280.862 C 456.107 245.242,473.543 209.786,497.191 188.174 C 525.340 162.447,570.538 147.552,610.791 150.737 C 675.304 155.843,726.076 198.125,745.594 263.000 C 747.904 270.676,748.805 287.757,749.471 336.500 L 750.339 400.000 475.169 400.000 L 200.000 400.000 200.000 750.000 L 200.000 1100.000 600.000 1100.000 L 1000.000 1100.000 1000.000 750.000 L 1000.000 400.000 925.000 400.000 L 850.000 400.000 850.000 346.145 C 850.000 316.524,849.041 285.249,847.868 276.645 C 831.824 158.885,742.941 66.415,632.000 52.064 C 614.043 49.741,586.241 49.838,567.000 52.290 M619.133 652.168 C 659.250 659.495,691.947 693.588,698.349 734.765 C 707.667 794.701,660.471 850.000,600.000 850.000 C 551.593 850.000,509.141 813.411,501.651 765.235 C 496.666 733.166,506.601 703.045,529.823 679.823 C 554.242 655.404,584.890 645.913,619.133 652.168 " fill="#1D1E23" stroke="none" fill-rule="evenodd"></path></svg>