<svg width="1200" height="1200" viewBox="0 0 1200 1200" fill="none" xmlns="http://www.w3.org/2000/svg"><path d="M567.000 52.290 C 529.030 57.130,482.329 76.171,450.969 99.598 C 432.359 113.500,408.899 137.416,395.640 156.000 C 378.212 180.428,359.786 222.415,356.739 244.640 C 352.599 274.843,380.113 302.612,411.018 299.422 C 434.642 296.984,447.860 284.496,456.978 256.000 C 464.536 232.378,475.998 213.890,494.940 194.770 C 510.344 179.222,515.794 175.179,532.000 167.282 C 578.364 144.689,620.661 144.391,665.920 166.337 C 684.252 175.226,689.109 178.750,705.179 194.821 C 721.256 210.897,724.769 215.740,733.655 234.080 C 748.279 264.260,750.000 275.851,750.000 344.173 L 750.000 399.905 514.500 400.452 L 279.000 401.000 267.000 405.784 C 232.959 419.355,209.106 446.531,202.210 479.598 C 199.099 494.519,199.099 1005.481,202.210 1020.402 C 210.026 1057.883,242.117 1089.974,279.598 1097.790 C 294.557 1100.909,905.443 1100.909,920.402 1097.790 C 957.883 1089.974,989.974 1057.883,997.790 1020.402 C 1000.901 1005.481,1000.901 494.519,997.790 479.598 C 990.878 446.453,966.631 418.891,933.000 405.951 C 922.544 401.928,916.455 401.220,885.677 400.448 L 850.354 399.561 849.486 331.281 C 848.649 265.386,848.433 262.280,843.318 242.407 C 836.744 216.869,826.435 191.615,814.578 172.000 C 762.915 86.535,665.996 39.672,567.000 52.290 M633.087 656.186 C 662.422 667.118,682.554 687.194,694.067 717.000 C 697.858 726.814,698.703 732.826,698.703 750.000 C 698.703 767.174,697.858 773.186,694.067 783.000 C 671.920 840.336,611.173 865.454,556.719 839.792 C 534.244 829.201,515.821 808.599,505.933 783.000 C 499.267 765.745,499.281 734.188,505.961 717.000 C 514.502 695.027,526.965 679.033,544.642 667.361 C 554.469 660.873,573.099 653.227,584.000 651.209 C 595.043 649.164,621.419 651.838,633.087 656.186 " fill="#1D1E23" stroke="none" fill-rule="evenodd"></path></svg>