<svg width="1200" height="1200" viewBox="0 0 1200 1200" fill="none" xmlns="http://www.w3.org/2000/svg"><path d="M158.765 201.889 C 138.643 206.722,116.671 225.058,106.737 245.307 L 101.000 257.000 101.000 600.000 L 101.000 943.000 106.737 954.693 C 114.067 969.634,130.344 985.911,145.297 993.254 L 157.000 999.000 412.724 999.530 L 668.449 1000.060 667.046 994.530 C 663.487 980.492,659.880 958.140,658.702 942.808 L 657.410 926.000 416.705 926.000 L 176.000 926.000 176.000 639.000 C 176.000 481.150,176.449 352.000,176.999 352.000 C 177.548 352.000,270.473 411.141,383.499 483.424 L 589.000 614.849 600.000 614.841 L 611.000 614.834 816.514 483.417 C 929.546 411.138,1022.471 352.000,1023.014 352.000 C 1023.556 352.000,1024.000 410.860,1024.000 482.801 L 1024.000 613.601 1034.500 616.046 C 1050.732 619.825,1082.176 630.053,1090.420 634.236 C 1094.502 636.306,1098.348 638.000,1098.969 638.000 C 1099.590 638.000,1099.851 552.275,1099.549 447.500 L 1099.000 257.000 1092.723 245.000 C 1084.913 230.070,1067.633 213.481,1052.505 206.392 L 1041.000 201.000 603.000 200.696 C 362.100 200.528,162.194 201.065,158.765 201.889 M1015.964 280.636 C 1012.134 283.185,918.899 341.685,808.776 410.636 C 625.009 525.697,607.850 536.000,600.000 536.000 C 592.150 536.000,574.991 525.697,391.224 410.636 C 281.101 341.685,187.866 283.185,184.036 280.636 L 177.071 276.000 600.000 276.000 L 1022.929 276.000 1015.964 280.636 M939.632 684.160 C 908.311 687.477,882.001 695.793,853.000 711.541 C 812.992 733.267,769.413 780.762,752.052 821.558 C 722.428 891.173,726.786 973.726,763.300 1034.661 C 787.835 1075.605,831.055 1113.850,872.584 1131.365 C 936.665 1158.391,1015.293 1155.689,1074.866 1124.413 C 1105.088 1108.547,1140.372 1077.205,1160.038 1048.757 C 1215.119 969.080,1213.101 856.207,1155.210 778.684 C 1114.122 723.664,1056.739 690.747,990.288 684.078 C 967.369 681.779,962.034 681.787,939.632 684.160 M1096.204 892.560 C 1100.711 895.584,1103.892 899.919,1105.650 905.433 C 1108.017 912.859,1107.886 914.681,1104.420 922.517 C 1097.294 938.625,1102.881 938.000,966.098 938.000 C 835.278 938.000,839.269 938.330,830.177 926.770 C 825.030 920.227,824.577 906.030,829.287 898.843 C 836.456 887.902,833.085 888.167,966.204 888.080 L 1089.408 888.000 1096.204 892.560 " fill="#1D1E23" stroke="none" fill-rule="evenodd"></path></svg>