<svg width="1200" height="1200" viewBox="0 0 1200 1200" fill="none" xmlns="http://www.w3.org/2000/svg"><path d="M567.000 151.205 C 501.166 158.002,454.524 170.739,402.880 196.025 C 311.777 240.631,240.486 311.896,195.830 403.000 C 134.884 527.338,134.884 672.662,195.830 797.000 C 240.538 888.211,311.789 959.462,403.000 1004.170 C 559.156 1080.712,745.189 1059.908,881.549 950.655 C 917.568 921.797,951.740 884.002,977.981 844.000 C 1004.521 803.543,1029.430 743.700,1039.838 695.390 C 1044.842 672.161,1050.000 630.098,1050.000 612.512 L 1050.000 600.000 1000.274 600.000 L 950.548 600.000 949.165 619.500 C 943.976 692.669,921.710 753.519,879.458 810.000 C 804.467 910.244,678.760 963.469,555.690 947.085 C 399.528 926.296,278.829 807.937,253.750 651.000 C 250.454 630.372,250.454 569.628,253.750 549.000 C 270.299 445.442,328.279 357.440,416.062 302.645 C 530.975 230.915,681.181 233.479,794.000 309.096 C 812.989 321.824,843.854 347.294,845.507 351.599 C 846.191 353.382,820.140 380.847,773.801 427.199 L 701.021 500.000 875.510 500.000 L 1050.000 500.000 1050.000 325.511 L 1050.000 151.023 984.145 216.855 L 918.289 282.688 902.256 267.605 C 839.991 209.030,754.847 168.470,666.000 155.058 C 645.574 151.975,583.097 149.543,567.000 151.205 M550.485 525.374 L 551.000 650.748 656.781 713.426 C 714.960 747.900,762.741 775.856,762.959 775.553 C 766.382 770.796,799.978 713.380,799.921 712.384 C 799.877 711.623,760.952 688.009,713.421 659.908 L 627.000 608.817 626.482 504.408 L 625.964 400.000 587.967 400.000 L 549.970 400.000 550.485 525.374 " fill="#1D1E23" stroke="none" fill-rule="evenodd"></path></svg>