<svg width="1200" height="1200" viewBox="0 0 1200 1200" fill="none" xmlns="http://www.w3.org/2000/svg"><path d="M558.000 152.084 C 421.319 165.200,298.608 240.153,221.828 357.420 C 187.912 409.221,164.655 470.613,154.556 535.000 C 149.684 566.064,149.749 634.801,154.679 665.000 C 162.960 715.718,174.723 753.258,196.044 797.000 C 240.507 888.219,311.324 959.067,403.000 1004.045 C 606.273 1103.775,851.409 1036.223,976.525 846.000 C 1013.146 790.323,1041.852 711.846,1045.295 658.000 C 1046.678 636.379,1044.787 629.591,1033.940 617.237 C 1006.823 586.353,956.013 600.297,948.196 640.767 C 947.109 646.395,944.704 659.100,942.850 669.000 C 933.981 716.380,910.157 769.499,879.696 809.814 C 810.167 901.833,702.841 953.366,589.000 949.390 C 447.317 944.442,322.721 853.217,270.916 716.501 C 263.748 697.585,254.380 657.371,252.064 635.579 C 238.038 503.596,301.939 373.883,416.086 302.629 C 547.962 220.310,719.681 236.651,837.000 342.685 L 847.000 351.723 794.772 404.362 C 766.046 433.313,741.071 459.225,739.272 461.945 C 737.472 464.665,736.000 470.753,736.000 475.474 C 736.000 482.460,737.275 485.450,742.846 491.529 L 749.691 499.000 890.346 499.492 C 1000.350 499.877,1032.076 499.435,1035.940 497.463 C 1038.657 496.076,1042.950 491.871,1045.479 488.117 L 1050.078 481.292 1049.539 340.492 L 1049.000 199.691 1041.529 192.846 C 1035.231 187.074,1032.578 186.000,1024.623 186.000 L 1015.187 186.000 967.094 233.890 L 919.000 281.780 902.000 266.694 C 832.945 205.413,753.212 168.023,664.000 155.087 C 636.244 151.062,584.056 149.584,558.000 152.084 M572.040 404.500 C 567.195 406.975,560.480 412.458,557.116 416.685 L 551.000 424.370 551.000 529.685 C 551.000 646.993,550.424 641.774,564.980 656.299 C 568.674 659.985,608.777 684.985,654.099 711.856 C 728.139 755.754,737.558 760.800,746.902 761.575 C 771.240 763.593,792.118 740.307,786.349 717.578 C 782.146 701.018,779.087 698.675,700.573 651.879 L 626.000 607.430 626.000 520.967 C 626.000 428.014,625.540 423.287,615.432 412.293 C 609.492 405.833,596.614 400.098,587.924 400.044 C 584.032 400.020,576.884 402.025,572.040 404.500 " fill="#1D1E23" stroke="none" fill-rule="evenodd"></path></svg>