<svg width="1200" height="1200" viewBox="0 0 1200 1200" fill="none" xmlns="http://www.w3.org/2000/svg"><path d="M589.000 171.775 C 585.700 172.631,580.300 174.773,577.000 176.536 C 568.297 181.185,329.047 421.686,324.854 430.000 C 316.526 446.512,321.960 471.999,336.903 486.511 C 349.292 498.544,356.791 500.000,406.356 500.000 L 450.000 500.000 450.000 628.644 C 450.000 773.854,449.604 769.709,464.947 785.053 C 480.053 800.158,478.625 800.000,600.000 800.000 C 721.375 800.000,719.947 800.158,735.053 785.053 C 750.396 769.709,750.000 773.854,750.000 628.644 L 750.000 500.000 793.749 500.000 C 827.008 500.000,839.483 499.299,845.780 497.077 C 871.473 488.013,885.427 459.713,877.001 433.762 C 873.703 423.606,866.746 416.222,753.471 302.664 C 673.555 222.548,630.344 180.646,624.188 177.295 C 614.076 171.792,598.413 169.335,589.000 171.775 M282.171 903.434 C 264.528 909.666,250.000 930.694,250.000 950.000 C 250.000 962.080,255.967 976.072,264.947 985.053 C 281.064 1001.169,254.861 1000.000,600.000 1000.000 C 945.139 1000.000,918.936 1001.169,935.053 985.053 C 954.616 965.489,954.616 934.511,935.053 914.947 C 918.925 898.820,945.293 899.981,599.144 900.158 C 325.412 900.298,290.014 900.664,282.171 903.434 " fill="#1D1E23" stroke="none" fill-rule="evenodd"></path></svg>