<svg width="1200" height="1200" viewBox="0 0 1200 1200" fill="none" xmlns="http://www.w3.org/2000/svg"><path d="M200.000 600.000 L 200.000 1100.000 600.000 1100.000 L 1000.000 1100.000 1000.000 749.495 L 1000.000 398.990 850.495 249.495 L 700.990 100.000 450.495 100.000 L 200.000 100.000 200.000 600.000 M788.000 313.000 L 924.989 450.000 787.495 450.000 L 650.000 450.000 650.000 313.000 C 650.000 237.650,650.227 176.000,650.505 176.000 C 650.783 176.000,712.656 237.650,788.000 313.000 M724.500 749.524 L 650.000 750.049 650.000 850.024 L 650.000 950.000 600.000 950.000 L 550.000 950.000 550.000 850.000 L 550.000 750.000 475.458 750.000 L 400.917 750.000 500.958 650.000 L 601.000 550.000 700.000 649.500 L 799.000 749.000 724.500 749.524 " fill="#1D1E23" stroke="none" fill-rule="evenodd"></path></svg>