<svg width="1200" height="1200" viewBox="0 0 1200 1200" fill="none" xmlns="http://www.w3.org/2000/svg"><path d="M280.113 102.152 C 253.405 107.475,224.390 129.456,212.203 153.598 C 199.283 179.192,200.062 150.598,200.030 600.402 C 200.009 891.669,200.638 1012.861,202.210 1020.402 C 210.026 1057.883,242.117 1089.974,279.598 1097.790 C 294.557 1100.909,905.443 1100.909,920.402 1097.790 C 957.883 1089.974,989.974 1057.883,997.790 1020.402 C 999.345 1012.943,999.991 924.062,999.970 720.402 C 999.938 401.758,1000.561 418.185,987.565 393.186 C 982.223 382.909,961.163 360.899,853.115 252.667 C 761.354 160.749,721.353 122.008,712.148 116.140 C 686.839 100.004,702.748 101.080,484.000 100.710 C 376.750 100.529,285.001 101.178,280.113 102.152 M808.571 449.516 C 677.777 450.102,680.244 450.349,664.993 435.098 C 649.727 419.832,650.000 422.454,650.000 291.149 L 650.000 175.011 787.006 312.005 L 924.012 449.000 808.571 449.516 M613.599 564.869 C 620.111 568.328,758.645 707.151,761.790 713.369 C 765.006 719.726,764.495 731.544,760.729 737.920 C 753.936 749.420,750.935 750.000,698.191 750.000 L 650.000 750.000 650.000 827.637 C 650.000 917.077,649.516 920.589,635.233 934.873 C 615.483 954.622,584.596 954.701,564.947 935.053 C 550.327 920.432,550.000 918.107,550.000 828.741 L 550.000 750.196 499.843 749.598 L 449.686 749.000 442.843 741.529 C 437.061 735.217,436.000 732.585,436.000 724.558 L 436.000 715.058 512.529 638.529 L 589.058 562.000 598.628 562.000 C 603.892 562.000,610.629 563.291,613.599 564.869 " fill="#1D1E23" stroke="none" fill-rule="evenodd"></path></svg>