<svg width="1200" height="1200" viewBox="0 0 1200 1200" fill="none" xmlns="http://www.w3.org/2000/svg"><path d="M138.835 352.828 C 107.902 359.907,75.679 384.927,62.495 412.106 C 49.801 438.273,50.062 433.914,50.030 620.500 L 50.000 790.000 89.000 790.000 L 128.000 790.000 128.033 621.500 L 128.066 453.000 132.574 445.041 C 138.736 434.160,149.989 428.073,164.000 428.040 C 176.925 428.011,184.813 432.089,193.268 443.173 L 199.000 450.687 199.533 620.344 L 200.066 790.000 239.000 790.000 L 277.934 790.000 278.467 620.353 L 279.000 450.705 283.966 443.459 C 298.720 421.930,332.128 422.854,345.196 445.154 L 350.000 453.351 350.000 621.676 L 350.000 790.000 389.063 790.000 L 428.126 790.000 427.563 615.500 L 427.000 441.000 421.754 427.517 C 407.623 391.195,385.758 369.401,350.669 356.664 C 317.255 344.536,277.169 350.549,246.999 372.216 L 237.988 378.686 233.494 374.614 C 212.565 355.648,169.664 345.774,138.835 352.828 M486.014 379.186 C 456.213 392.110,456.477 428.375,486.463 440.905 C 520.007 454.920,553.045 416.563,530.503 389.774 C 520.032 377.330,500.831 372.760,486.014 379.186 M804.804 390.971 C 779.163 396.550,760.052 411.343,749.217 434.000 L 743.000 447.000 743.000 524.000 L 743.000 601.000 769.000 601.577 C 783.300 601.894,797.025 601.652,799.500 601.039 L 804.000 599.924 804.000 529.115 L 804.000 458.307 809.146 452.191 C 823.081 435.630,854.000 442.646,854.000 462.369 C 854.000 471.816,859.479 479.957,868.633 484.113 C 882.921 490.600,897.094 487.867,905.664 476.973 C 912.062 468.839,911.858 443.055,905.284 429.000 C 890.959 398.375,847.089 381.772,804.804 390.971 M1013.375 397.003 C 995.416 401.940,981.437 410.474,965.950 425.956 C 944.015 447.883,934.000 471.406,934.000 501.000 C 934.000 554.942,973.698 600.568,1027.448 608.402 C 1059.095 613.015,1091.994 602.036,1116.013 578.847 C 1144.307 551.531,1155.760 513.682,1146.989 476.479 C 1138.038 438.515,1106.923 406.962,1068.594 396.978 C 1054.744 393.371,1026.543 393.384,1013.375 397.003 M634.894 400.806 C 598.947 412.065,568.439 445.561,561.788 481.074 C 557.387 504.568,563.178 534.018,576.182 554.283 C 585.436 568.705,604.071 584.827,621.378 593.387 L 636.773 601.000 667.886 601.589 C 694.642 602.096,699.980 601.676,706.000 598.589 C 715.168 593.888,720.286 583.289,720.286 569.000 C 720.286 555.122,715.222 544.390,706.229 539.213 C 700.892 536.141,694.096 535.070,674.132 534.158 C 646.184 532.880,640.969 530.966,633.912 519.391 C 628.428 510.398,628.587 492.058,634.236 482.008 C 641.351 469.347,649.929 466.001,675.272 465.997 C 691.962 465.995,698.616 465.183,703.970 462.497 C 724.369 452.262,725.735 415.588,706.204 402.540 C 699.912 398.336,697.318 398.010,671.204 398.134 C 654.386 398.214,639.728 399.293,634.894 400.806 M482.666 456.195 C 474.042 458.691,466.496 468.239,465.030 478.510 C 464.363 483.179,464.083 512.650,464.409 544.000 L 465.000 601.000 500.500 601.546 L 536.000 602.092 535.971 537.546 C 535.949 490.300,535.277 471.660,533.464 468.000 C 529.530 460.060,515.254 453.969,501.076 454.180 C 494.434 454.280,486.150 455.186,482.666 456.195 M1059.501 468.242 C 1072.527 474.548,1078.924 485.353,1078.966 501.123 C 1078.995 511.839,1078.137 514.864,1073.000 522.142 C 1065.422 532.879,1054.264 538.798,1041.951 538.612 C 1009.200 538.118,992.916 501.319,1014.547 476.683 C 1026.104 463.520,1043.139 460.322,1059.501 468.242 M666.000 656.141 C 560.939 659.367,512.736 672.350,499.759 700.917 C 492.187 717.588,497.192 733.731,514.679 749.036 C 528.827 761.418,549.852 771.795,583.000 782.756 C 614.162 793.060,624.000 798.092,624.000 803.726 C 624.000 812.336,620.036 813.003,569.185 812.951 C 542.683 812.924,506.600 811.699,489.000 810.228 C 471.400 808.757,454.839 807.429,452.199 807.277 C 447.751 807.020,446.460 809.560,434.657 841.792 C 427.650 860.928,422.161 876.818,422.459 877.103 C 423.722 878.315,537.073 881.995,571.480 881.942 C 676.740 881.778,715.638 870.970,731.835 837.387 C 739.766 820.943,741.246 809.309,737.184 795.337 C 730.330 771.759,703.618 755.122,647.000 739.169 C 585.741 721.907,573.672 716.394,577.173 707.271 C 580.559 698.447,606.750 696.117,703.286 696.052 C 774.034 696.004,779.676 695.746,781.000 692.500 C 781.785 690.575,784.930 681.707,787.988 672.793 L 793.549 656.585 771.274 655.302 C 746.621 653.881,737.135 653.957,666.000 656.141 M827.552 675.256 L 820.462 695.000 830.731 695.470 C 836.379 695.729,851.114 697.400,863.477 699.184 L 885.953 702.427 919.169 681.775 C 950.882 662.057,952.127 661.044,946.692 659.367 C 943.561 658.402,917.069 657.139,887.821 656.562 L 834.642 655.512 827.552 675.256 M961.116 688.935 C 935.880 699.148,913.927 708.328,912.331 709.335 C 909.959 710.831,910.360 711.776,914.522 714.503 C 919.472 717.746,921.277 717.298,978.308 698.658 L 1037.000 679.475 1025.000 674.841 C 1018.400 672.292,1011.650 670.242,1010.000 670.286 C 1008.350 670.330,986.352 678.722,961.116 688.935 M999.000 707.842 C 966.000 716.377,936.602 723.951,933.672 724.675 C 928.752 725.889,928.508 726.426,930.489 731.675 C 932.222 736.265,931.900 738.865,928.818 745.180 C 918.232 766.863,867.674 784.825,804.717 789.269 L 786.435 790.560 771.194 833.780 C 762.812 857.551,755.964 877.818,755.977 878.817 C 756.004 880.946,821.844 879.033,856.000 875.912 C 977.511 864.808,1056.794 837.486,1101.603 791.274 C 1113.116 779.401,1116.263 774.710,1118.974 765.387 C 1121.983 755.036,1122.006 753.045,1119.227 743.500 C 1117.545 737.725,1113.437 729.289,1110.098 724.754 C 1100.215 711.330,1072.539 691.863,1063.764 692.163 C 1061.144 692.252,1032.000 699.308,999.000 707.842 " fill="#1D1E23" stroke="none" fill-rule="evenodd"></path></svg>