<svg width="1200" height="1200" viewBox="0 0 1200 1200" fill="none" xmlns="http://www.w3.org/2000/svg"><path d="M590.000 69.422 C 584.785 72.087,569.400 91.083,529.667 143.915 C 499.592 183.906,475.827 217.364,475.172 220.639 C 473.503 228.984,480.197 242.965,487.725 246.858 C 492.402 249.277,500.271 250.000,521.901 250.000 L 550.000 250.000 550.000 450.000 L 550.000 650.000 475.000 650.000 L 400.000 650.000 400.000 598.190 L 400.000 546.380 408.500 541.392 C 421.041 534.032,440.621 512.618,447.784 498.428 C 456.882 480.405,460.648 462.324,459.341 442.946 C 456.023 393.770,420.902 353.124,373.000 343.022 C 355.522 339.336,344.636 339.299,327.802 342.867 C 277.479 353.534,240.000 399.265,240.000 450.000 C 240.000 465.627,243.984 482.100,251.516 497.612 C 257.994 510.955,279.153 534.163,291.364 541.319 L 300.000 546.380 300.000 603.092 C 300.000 636.767,300.898 664.108,302.210 670.402 C 310.026 707.883,342.117 739.974,379.598 747.790 C 386.311 749.190,419.493 750.000,470.098 750.000 L 550.000 750.000 550.000 826.545 L 550.000 903.090 542.501 907.045 C 530.384 913.436,509.450 935.722,502.499 949.634 C 470.387 1013.895,505.010 1089.109,574.920 1106.957 C 631.072 1121.292,691.976 1084.359,706.943 1026.895 C 718.359 983.068,699.441 934.603,660.942 909.049 L 650.000 901.786 650.000 825.893 L 650.000 750.000 729.902 750.000 C 780.507 750.000,813.689 749.190,820.402 747.790 C 846.800 742.285,875.497 721.231,887.497 698.563 C 899.243 676.376,900.000 670.884,900.000 607.893 L 900.000 550.511 908.184 549.203 C 925.225 546.478,938.520 536.166,945.838 520.000 C 949.648 511.584,949.915 507.038,949.956 449.893 L 950.000 388.785 944.820 378.390 C 938.730 366.170,928.741 357.310,916.256 353.056 C 902.587 348.399,796.815 348.602,782.991 353.312 C 770.333 357.626,757.626 370.333,753.312 382.991 C 748.411 397.376,748.411 502.624,753.312 517.009 C 759.042 533.824,780.147 550.000,796.356 550.000 C 799.784 550.000,800.000 552.963,800.000 600.000 L 800.000 650.000 725.000 650.000 L 650.000 650.000 650.000 450.000 L 650.000 250.000 678.500 249.993 C 712.179 249.984,717.355 248.059,722.925 233.476 C 725.964 225.518,726.008 223.890,723.357 217.545 C 719.505 208.327,619.456 75.046,613.419 71.091 C 605.783 66.087,597.656 65.508,590.000 69.422 " fill="#1D1E23" stroke="none" fill-rule="evenodd"></path></svg>