<svg width="1200" height="1200" viewBox="0 0 1200 1200" fill="none" xmlns="http://www.w3.org/2000/svg"><path d="M528.662 142.548 L 480.324 233.000 514.162 233.547 L 548.000 234.094 548.000 516.302 L 548.000 798.509 539.500 790.681 C 534.825 786.375,508.727 765.088,481.505 743.377 C 411.023 687.164,387.486 662.525,371.118 627.822 C 360.423 605.149,358.000 592.921,358.000 561.631 L 358.000 534.103 364.119 530.938 C 380.931 522.245,395.928 502.412,401.173 481.937 C 409.838 448.114,393.174 410.797,362.452 395.229 C 313.809 370.580,255.189 403.184,250.642 457.417 C 248.181 486.780,262.703 514.200,289.500 530.788 L 298.000 536.050 298.000 560.763 C 298.000 628.915,320.973 679.488,376.278 733.081 C 397.524 753.669,412.865 766.322,464.751 806.051 C 529.515 855.641,548.082 881.677,547.946 922.711 L 547.891 939.000 531.455 946.784 C 489.713 966.552,465.126 1011.727,471.595 1056.768 C 478.831 1107.155,520.216 1145.597,571.395 1149.472 C 619.677 1153.127,667.583 1120.559,682.198 1074.144 C 687.596 1057.000,688.021 1031.426,683.181 1015.000 C 673.986 983.793,654.769 961.180,625.758 947.426 L 607.984 939.000 608.492 842.953 L 609.000 746.907 615.689 733.325 C 628.416 707.480,649.267 689.435,709.051 652.524 C 749.859 627.329,768.534 614.699,784.338 601.608 C 831.317 562.695,852.631 524.463,858.251 469.029 L 860.586 446.000 881.293 446.000 L 902.000 446.000 902.000 374.000 L 902.000 302.000 829.000 302.000 L 756.000 302.000 756.000 374.000 L 756.000 446.000 778.276 446.000 L 800.552 446.000 799.185 461.084 C 796.296 492.959,784.559 516.925,759.611 541.893 C 741.519 559.998,722.851 573.589,673.766 604.390 C 653.948 616.825,631.434 631.725,623.735 637.500 C 616.036 643.275,609.346 648.000,608.868 648.000 C 608.391 648.000,608.000 554.871,608.000 441.047 L 608.000 234.094 641.640 233.547 L 675.279 233.000 627.730 143.030 C 601.578 93.547,579.465 52.843,578.591 52.578 C 577.716 52.312,555.248 92.799,528.662 142.548 " fill="#1D1E23" stroke="none" fill-rule="evenodd"></path></svg>