<svg width="1200" height="1200" viewBox="0 0 1200 1200" fill="none" xmlns="http://www.w3.org/2000/svg"><path d="M524.241 151.000 L 449.985 250.000 499.993 250.000 L 550.000 250.000 550.000 450.000 L 550.000 650.000 475.000 650.000 L 400.000 650.000 400.000 598.190 L 400.000 546.380 408.500 541.392 C 421.058 534.022,440.624 512.611,447.809 498.378 C 457.423 479.333,460.700 463.972,459.410 444.000 C 456.275 395.479,423.647 355.930,376.885 343.971 C 357.251 338.949,342.749 338.949,323.115 343.971 C 255.475 361.270,221.098 434.968,251.481 497.540 C 257.990 510.945,279.128 534.148,291.364 541.319 L 300.000 546.380 300.000 603.092 C 300.000 636.767,300.898 664.108,302.210 670.402 C 310.026 707.883,342.117 739.974,379.598 747.790 C 386.311 749.190,419.493 750.000,470.098 750.000 L 550.000 750.000 549.960 826.500 L 549.921 903.000 539.722 909.000 C 518.758 921.333,499.939 947.909,493.043 974.920 C 479.447 1028.175,511.796 1085.865,565.619 1104.348 C 584.593 1110.864,615.407 1110.864,634.381 1104.348 C 711.600 1077.830,735.180 980.810,678.185 924.117 C 670.932 916.903,661.624 909.220,657.499 907.045 L 650.000 903.090 650.000 826.545 L 650.000 750.000 729.902 750.000 C 780.507 750.000,813.689 749.190,820.402 747.790 C 857.883 739.974,889.974 707.883,897.790 670.402 C 899.092 664.156,900.000 637.256,900.000 604.902 L 900.000 550.000 925.000 550.000 L 950.000 550.000 950.000 450.000 L 950.000 350.000 850.000 350.000 L 750.000 350.000 750.000 450.000 L 750.000 550.000 775.000 550.000 L 800.000 550.000 800.000 600.000 L 800.000 650.000 725.000 650.000 L 650.000 650.000 650.000 450.000 L 650.000 250.000 700.007 250.000 L 750.015 250.000 675.759 151.000 C 634.918 96.550,600.826 52.000,600.000 52.000 C 599.174 52.000,565.082 96.550,524.241 151.000 " fill="#1D1E23" stroke="none" fill-rule="evenodd"></path></svg>