<svg width="1200" height="1200" viewBox="0 0 1200 1200" fill="none" xmlns="http://www.w3.org/2000/svg"><path d="M402.381 154.050 C 381.745 159.456,369.138 166.813,352.834 182.966 C 337.464 198.193,328.371 214.051,323.043 234.920 C 309.447 288.175,341.796 345.865,395.619 364.348 C 414.516 370.838,445.415 370.862,464.217 364.403 C 497.300 353.037,523.026 327.352,534.348 294.381 C 540.864 275.407,540.864 244.593,534.348 225.619 C 525.556 200.016,505.440 175.891,482.518 163.456 C 469.051 156.151,444.359 149.973,429.180 150.110 C 422.481 150.171,410.422 151.944,402.381 154.050 M778.000 359.206 C 721.552 374.309,697.370 443.553,732.149 490.496 C 770.128 541.759,849.331 534.075,876.614 476.482 C 882.644 463.752,883.000 461.717,883.000 440.000 C 883.000 418.817,882.554 416.092,877.357 405.505 C 858.756 367.612,817.841 348.547,778.000 359.206 M403.000 381.256 C 367.843 385.078,338.759 394.578,315.583 409.812 C 281.104 432.475,259.057 467.290,252.137 510.000 C 250.851 517.934,250.032 564.307,250.035 629.000 L 250.039 735.000 254.775 745.000 C 264.058 764.603,280.032 774.685,301.425 774.442 L 313.851 774.301 314.425 892.651 C 314.954 1001.598,315.286 1011.636,318.601 1019.000 C 326.609 1036.788,346.350 1049.961,365.000 1049.961 C 383.650 1049.961,403.391 1036.788,411.399 1019.000 C 414.729 1011.603,415.043 1001.163,415.569 880.500 L 416.138 750.000 430.000 750.000 L 443.862 750.000 444.431 880.500 C 444.957 1001.163,445.271 1011.603,448.601 1019.000 C 456.609 1036.788,476.350 1049.961,495.000 1049.961 C 513.650 1049.961,533.391 1036.788,541.399 1019.000 C 544.714 1011.636,545.046 1001.598,545.575 892.651 L 546.149 774.301 558.575 774.479 C 574.161 774.701,586.371 769.560,596.217 758.628 C 610.635 742.620,610.301 746.078,609.516 620.926 C 608.827 511.338,608.718 508.688,604.276 494.055 C 587.032 437.250,543.691 398.534,483.000 385.719 C 465.358 381.994,419.663 379.445,403.000 381.256 M759.308 537.148 C 708.268 548.526,674.558 580.062,664.946 625.426 C 660.877 644.625,660.671 804.948,664.702 814.595 C 670.555 828.604,689.269 839.429,704.177 837.430 L 711.888 836.396 712.444 931.014 L 713.000 1025.632 719.116 1033.316 C 726.495 1042.587,740.231 1050.000,750.031 1050.000 C 760.277 1050.000,776.067 1041.447,782.000 1032.683 L 787.000 1025.297 787.552 921.648 L 788.104 818.000 800.052 818.000 L 812.000 818.000 812.044 918.500 C 812.085 1011.679,812.355 1019.589,815.759 1027.083 C 828.191 1054.451,866.774 1057.529,882.399 1032.399 C 886.989 1025.018,887.002 1024.777,888.000 931.164 L 889.000 837.327 900.000 837.109 C 914.889 836.813,925.174 831.441,932.270 820.253 L 938.000 811.217 937.970 724.108 C 937.937 626.576,937.448 621.979,924.463 597.206 C 910.001 569.617,881.547 548.157,847.000 538.784 C 829.694 534.089,777.407 533.113,759.308 537.148 " fill="#1D1E23" stroke="none" fill-rule="evenodd"></path></svg>