<svg width="1200" height="1200" viewBox="0 0 1200 1200" fill="none" xmlns="http://www.w3.org/2000/svg"><path d="M577.000 201.208 C 492.372 213.748,428.822 268.918,406.592 349.147 C 401.681 366.870,401.091 372.326,401.091 400.000 C 401.091 427.564,401.692 433.167,406.510 450.545 C 426.304 521.937,478.063 573.696,549.455 593.490 C 566.833 598.308,572.436 598.909,600.000 598.909 C 627.674 598.909,633.130 598.319,650.853 593.408 C 712.807 576.241,762.606 532.162,785.756 474.000 C 820.018 387.920,789.479 287.257,713.435 235.617 C 695.841 223.668,667.156 210.706,647.913 206.007 C 631.485 201.996,590.431 199.218,577.000 201.208 M556.000 652.213 C 492.020 657.813,411.637 676.044,357.472 697.240 C 329.679 708.115,297.249 724.393,276.000 738.135 C 250.663 754.519,221.303 784.101,212.544 802.069 C 200.884 825.991,200.000 832.752,200.000 898.064 C 200.000 965.990,200.854 970.959,214.947 985.053 C 231.149 1001.254,198.842 1000.000,600.000 1000.000 C 1001.259 1000.000,968.843 1001.262,985.098 985.007 C 999.635 970.470,1000.355 965.878,999.597 892.600 C 998.938 829.013,998.937 828.997,993.577 815.550 C 967.790 750.847,873.700 695.979,739.000 667.093 C 668.417 651.957,611.653 647.342,556.000 652.213 " fill="#1D1E23" stroke="none" fill-rule="evenodd"></path></svg>