<svg width="1200" height="1200" viewBox="0 0 1200 1200" fill="none" xmlns="http://www.w3.org/2000/svg"><path d="M471.628 202.015 C 442.131 206.707,411.064 218.980,386.565 235.617 C 347.745 261.978,319.711 301.844,306.510 349.455 C 301.692 366.833,301.091 372.436,301.091 400.000 C 301.091 427.674,301.681 433.130,306.592 450.853 C 323.759 512.807,367.838 562.606,426.000 585.756 C 516.686 621.851,623.103 585.496,672.186 501.651 C 725.145 411.184,699.242 293.887,613.435 235.617 C 595.841 223.668,567.156 210.706,547.913 206.007 C 528.575 201.286,489.175 199.224,471.628 202.015 M799.518 552.500 C 799.017 553.875,795.566 570.592,791.849 589.650 L 785.091 624.299 771.045 630.836 C 763.320 634.431,750.984 641.518,743.631 646.584 L 730.261 655.795 694.721 643.907 C 675.174 637.368,658.542 632.690,657.761 633.509 C 656.981 634.329,645.539 653.677,632.335 676.505 L 608.329 718.010 636.743 743.013 L 665.157 768.015 663.294 784.008 C 662.142 793.894,662.144 806.120,663.298 816.030 L 665.165 832.060 636.757 857.043 L 608.349 882.025 632.346 923.513 C 645.543 946.331,656.981 965.671,657.761 966.491 C 658.542 967.310,675.222 962.616,694.827 956.058 L 730.472 944.135 742.914 953.013 C 749.756 957.896,762.061 965.075,770.257 968.968 L 785.158 976.044 791.883 1010.522 C 795.582 1029.485,799.017 1046.125,799.518 1047.500 C 800.213 1049.408,812.161 1050.000,850.000 1050.000 C 887.839 1050.000,899.787 1049.408,900.482 1047.500 C 900.983 1046.125,904.418 1029.485,908.117 1010.522 L 914.842 976.044 929.743 968.968 C 937.939 965.075,950.244 957.896,957.086 953.013 L 969.528 944.135 1005.173 956.058 C 1024.778 962.616,1041.458 967.310,1042.239 966.491 C 1043.019 965.671,1054.457 946.331,1067.654 923.513 L 1091.651 882.025 1062.925 856.763 C 1035.110 832.302,1034.244 831.303,1035.600 825.251 C 1037.408 817.178,1037.413 782.842,1035.607 774.785 C 1034.261 768.778,1035.179 767.720,1062.943 743.290 L 1091.671 718.010 1067.665 676.505 C 1054.461 653.677,1043.019 634.329,1042.239 633.509 C 1041.458 632.690,1024.826 637.368,1005.279 643.907 L 969.739 655.795 956.369 646.584 C 949.016 641.518,936.680 634.431,928.955 630.836 L 914.909 624.299 908.151 589.650 C 904.434 570.592,900.983 553.875,900.482 552.500 C 899.787 550.592,887.839 550.000,850.000 550.000 C 812.161 550.000,800.213 550.592,799.518 552.500 M460.000 651.382 C 380.846 656.004,296.117 677.996,222.751 712.961 C 150.606 747.344,124.276 771.747,107.748 819.546 L 101.021 839.000 100.387 919.500 L 99.753 1000.000 330.877 1000.000 C 457.995 1000.000,562.000 999.578,562.000 999.062 C 562.000 998.547,558.064 992.022,553.253 984.562 C 528.943 946.867,511.638 900.191,503.737 851.000 C 499.878 826.973,500.498 767.389,504.861 743.000 C 509.180 718.859,515.713 695.772,525.109 671.442 C 530.532 657.400,531.536 652.940,529.557 651.684 C 527.150 650.156,484.180 649.970,460.000 651.382 M883.087 706.186 C 912.422 717.118,932.554 737.194,944.067 767.000 C 947.858 776.814,948.703 782.826,948.703 800.000 C 948.703 817.174,947.858 823.186,944.067 833.000 C 934.179 858.599,915.756 879.201,893.281 889.792 C 838.827 915.454,778.080 890.336,755.933 833.000 C 749.267 815.745,749.281 784.188,755.961 767.000 C 764.502 745.027,776.965 729.033,794.642 717.361 C 804.469 710.873,823.099 703.227,834.000 701.209 C 845.043 699.164,871.419 701.838,883.087 706.186 " fill="#1D1E23" stroke="none" fill-rule="evenodd"></path></svg>