<svg width="1200" height="1200" viewBox="0 0 1200 1200" fill="none" xmlns="http://www.w3.org/2000/svg"><path d="M471.628 202.015 C 442.131 206.707,411.064 218.980,386.565 235.617 C 347.745 261.978,319.711 301.844,306.510 349.455 C 301.692 366.833,301.091 372.436,301.091 400.000 C 301.091 427.674,301.681 433.130,306.592 450.853 C 323.759 512.807,367.838 562.606,426.000 585.756 C 516.686 621.851,623.103 585.496,672.186 501.651 C 725.145 411.184,699.242 293.887,613.435 235.617 C 595.841 223.668,567.156 210.706,547.913 206.007 C 528.575 201.286,489.175 199.224,471.628 202.015 M815.083 551.459 C 808.618 553.101,801.956 558.274,799.192 563.797 C 797.761 566.659,794.126 581.600,791.115 597.000 L 785.641 625.000 774.321 629.946 C 768.094 632.667,755.859 639.661,747.130 645.489 L 731.260 656.085 704.128 647.043 C 674.331 637.112,666.001 636.169,657.000 641.706 C 649.743 646.169,615.985 703.975,616.027 711.865 C 616.085 722.634,619.213 726.912,641.584 746.806 L 664.618 767.289 664.809 799.968 L 665.000 832.646 642.359 852.565 C 619.701 872.497,616.000 877.444,616.000 887.795 C 616.000 893.049,646.209 948.495,653.402 956.445 C 655.161 958.388,659.773 960.854,663.652 961.925 C 669.755 963.610,674.821 962.522,701.306 953.836 L 731.908 943.801 742.454 951.687 C 748.254 956.025,760.356 963.245,769.347 967.732 L 785.694 975.891 787.839 986.445 C 789.019 992.250,791.666 1005.296,793.720 1015.436 C 800.340 1048.101,803.457 1050.001,850.436 1049.997 C 898.124 1049.992,900.970 1047.950,908.957 1008.000 C 911.707 994.250,914.389 981.152,914.917 978.893 C 915.551 976.186,919.630 973.231,926.886 970.224 C 932.939 967.715,945.208 960.765,954.150 954.781 L 970.407 943.899 1000.418 953.748 C 1042.747 967.640,1042.265 967.859,1067.844 923.154 C 1084.758 893.592,1086.684 887.307,1082.168 876.406 C 1080.827 873.169,1069.516 861.772,1056.968 851.016 C 1035.047 832.225,1034.252 831.266,1035.600 825.249 C 1036.370 821.812,1037.000 810.450,1037.000 800.000 C 1037.000 789.550,1036.370 778.188,1035.600 774.751 C 1034.252 768.734,1035.047 767.775,1056.968 748.984 C 1079.917 729.312,1084.744 722.755,1084.429 711.682 C 1084.218 704.244,1055.919 653.671,1046.837 644.500 C 1038.001 635.577,1031.138 635.956,997.294 647.235 L 969.584 656.470 964.292 652.330 C 955.688 645.599,933.401 632.528,924.359 628.910 C 919.028 626.777,915.597 623.990,914.960 621.276 C 914.408 618.924,911.707 605.750,908.957 592.000 C 900.968 552.042,897.994 549.899,851.000 550.235 C 833.400 550.361,817.238 550.912,815.083 551.459 M460.000 651.382 C 380.846 656.004,296.117 677.996,222.751 712.961 C 150.567 747.363,124.187 771.821,107.791 819.546 L 101.107 839.000 100.395 897.507 C 99.571 965.179,100.465 970.570,114.902 985.007 C 130.798 1000.903,116.490 1000.000,352.356 1000.000 C 467.660 1000.000,562.000 999.578,562.000 999.062 C 562.000 998.547,558.064 992.022,553.253 984.562 C 528.943 946.867,511.638 900.191,503.737 851.000 C 499.878 826.973,500.498 767.389,504.861 743.000 C 509.180 718.859,515.713 695.772,525.109 671.442 C 530.532 657.400,531.536 652.940,529.557 651.684 C 527.150 650.156,484.180 649.970,460.000 651.382 M883.087 706.186 C 912.422 717.118,932.554 737.194,944.067 767.000 C 947.858 776.814,948.703 782.826,948.703 800.000 C 948.703 817.174,947.858 823.186,944.067 833.000 C 934.179 858.599,915.756 879.201,893.281 889.792 C 838.827 915.454,778.080 890.336,755.933 833.000 C 749.267 815.745,749.281 784.188,755.961 767.000 C 764.502 745.027,776.965 729.033,794.642 717.361 C 804.469 710.873,823.099 703.227,834.000 701.209 C 845.043 699.164,871.419 701.838,883.087 706.186 " fill="#1D1E23" stroke="none" fill-rule="evenodd"></path></svg>