<svg width="1200" height="1200" viewBox="0 0 1200 1200" fill="none" xmlns="http://www.w3.org/2000/svg"><path d="M740.000 151.375 C 725.132 153.843,699.428 161.219,686.134 166.832 C 631.010 190.105,599.151 230.121,585.687 293.000 C 579.828 320.362,583.237 378.978,592.958 418.000 L 595.698 429.000 591.349 423.210 C 532.955 345.476,474.966 301.124,409.000 283.743 C 392.880 279.495,386.927 279.015,352.000 279.147 C 316.578 279.280,311.227 279.770,293.681 284.485 C 283.056 287.341,264.651 293.546,252.782 298.273 C 214.533 313.508,153.263 351.270,150.787 361.135 C 149.033 368.125,151.393 375.534,156.191 378.102 C 160.539 380.429,313.322 412.000,320.235 412.000 C 322.431 412.000,341.818 400.692,363.318 386.871 C 384.818 373.050,402.817 362.151,403.316 362.650 C 403.815 363.149,401.473 377.894,398.112 395.417 C 390.803 433.517,390.711 436.144,396.500 441.347 C 398.975 443.571,426.043 455.650,456.652 468.188 C 513.572 491.504,516.220 493.240,495.699 493.801 C 481.436 494.190,441.305 502.094,423.289 508.063 C 330.237 538.888,270.443 609.389,249.479 712.995 C 245.776 731.294,245.024 741.626,245.013 774.339 C 245.000 813.229,245.055 813.737,249.849 818.839 C 259.362 828.965,261.981 827.645,321.235 782.841 C 351.173 760.203,377.140 740.055,378.939 738.067 C 381.561 735.170,382.831 724.985,385.340 686.726 C 387.061 660.477,388.802 638.636,389.209 638.192 C 389.616 637.748,396.936 643.680,405.475 651.374 C 423.651 667.754,428.587 670.718,434.535 668.830 C 436.945 668.065,467.293 647.464,501.973 623.050 C 536.653 598.636,567.089 577.558,569.608 576.210 L 574.188 573.758 573.493 724.379 C 572.747 886.115,573.056 880.664,561.723 932.110 L 557.513 951.219 529.257 954.625 C 441.877 965.157,372.604 992.966,331.532 1033.999 C 319.722 1045.797,314.446 1052.947,309.228 1064.226 C 300.100 1083.956,298.958 1090.958,304.042 1096.042 C 307.950 1099.950,311.690 1100.000,599.618 1100.000 C 841.378 1100.000,891.867 1099.538,894.931 1097.298 C 905.943 1089.245,890.453 1054.443,865.245 1030.599 C 829.765 997.042,782.069 976.019,702.653 958.936 L 698.307 958.001 699.420 871.500 C 701.105 740.523,695.568 669.872,678.775 608.044 C 673.260 587.740,663.994 565.518,658.520 559.469 C 655.721 556.376,655.622 555.470,657.927 554.045 C 660.467 552.475,686.513 574.609,746.614 629.410 C 758.686 640.418,765.745 642.618,772.568 637.500 C 774.401 636.125,784.291 622.704,794.546 607.677 L 813.190 580.353 826.845 621.677 C 834.354 644.404,841.962 664.687,843.749 666.748 C 848.030 671.685,1000.814 790.217,1007.338 793.664 C 1013.298 796.812,1022.872 793.845,1026.076 787.857 C 1030.188 780.175,1027.561 739.458,1020.731 705.000 C 1013.424 668.137,995.379 626.916,973.998 598.249 C 958.812 577.888,930.929 551.491,909.739 537.415 C 876.309 515.208,827.034 495.248,784.482 486.676 C 774.867 484.739,768.350 482.877,770.000 482.537 C 771.650 482.198,794.454 477.957,820.675 473.112 C 852.623 467.209,869.578 463.192,872.073 460.934 C 874.472 458.763,877.663 449.289,881.049 434.283 C 883.939 421.477,886.703 409.756,887.191 408.235 C 887.762 406.455,895.012 412.200,907.559 424.375 C 918.274 434.772,929.357 444.797,932.187 446.651 C 936.836 449.697,942.806 449.894,993.936 448.684 C 1048.203 447.400,1050.748 447.164,1055.603 442.989 C 1064.171 435.619,1062.499 428.775,1047.410 409.451 C 1016.057 369.299,973.894 341.397,926.749 329.603 C 905.147 324.199,855.898 323.238,833.000 327.773 C 778.471 338.575,727.652 366.538,683.460 410.060 C 670.512 422.810,660.171 432.738,660.480 432.121 C 660.788 431.505,665.643 422.000,671.267 411.000 C 684.823 384.490,701.350 346.756,712.856 316.048 C 723.666 287.195,725.244 291.393,698.000 276.522 L 681.000 267.242 706.750 262.704 C 720.913 260.208,732.911 257.755,733.413 257.253 C 733.915 256.751,741.342 235.789,749.917 210.670 C 766.413 162.348,766.788 159.580,757.699 153.214 C 753.191 150.057,749.961 149.721,740.000 151.375 " fill="#1D1E23" stroke="none" fill-rule="evenodd"></path></svg>