<svg width="1200" height="1200" viewBox="0 0 1200 1200" fill="none" xmlns="http://www.w3.org/2000/svg"><path d="M384.000 152.331 C 359.250 194.262,337.980 229.971,336.734 231.685 C 335.201 233.792,305.424 241.327,244.734 254.963 L 155.000 275.125 155.535 281.063 C 155.829 284.328,159.611 325.992,163.939 373.649 L 171.809 460.298 110.845 530.145 L 49.881 599.992 106.248 664.496 C 137.250 699.973,164.704 731.276,167.258 734.057 L 171.900 739.115 164.105 824.057 C 159.818 870.776,156.026 912.512,155.679 916.804 L 155.048 924.608 244.843 945.020 C 303.142 958.272,335.402 966.483,336.819 968.431 C 338.018 970.081,359.250 1005.738,384.000 1047.669 C 408.750 1089.599,429.793 1123.927,430.763 1123.953 C 431.733 1123.979,470.206 1107.696,516.260 1087.769 L 599.994 1051.538 684.296 1087.702 C 730.663 1107.592,769.262 1123.456,770.072 1122.955 C 770.882 1122.455,791.586 1088.213,816.081 1046.863 C 840.576 1005.513,862.053 970.022,863.808 967.994 C 866.184 965.249,887.705 959.633,948.000 946.025 C 992.550 935.970,1032.632 926.842,1037.072 925.742 L 1045.144 923.741 1036.626 831.424 L 1028.107 739.107 1032.746 734.054 C 1035.297 731.274,1062.749 699.975,1093.748 664.500 L 1150.112 600.000 1093.748 535.500 C 1062.749 500.025,1035.298 468.727,1032.748 465.948 L 1028.111 460.897 1036.648 368.560 L 1045.186 276.223 1024.093 271.331 C 1012.492 268.640,971.890 259.423,933.866 250.848 L 864.732 235.258 817.866 155.685 C 792.090 111.919,770.220 76.086,769.266 76.056 C 768.313 76.025,729.838 92.245,683.766 112.101 L 600.000 148.201 516.234 112.101 C 470.162 92.245,431.687 76.021,430.734 76.047 C 429.780 76.073,408.750 110.401,384.000 152.331 M819.000 419.780 C 828.844 424.324,841.006 436.337,846.556 447.000 C 852.953 459.287,852.405 478.075,845.269 491.166 C 841.229 498.578,797.903 543.088,685.364 655.440 C 518.917 821.612,526.680 814.754,505.000 814.754 C 484.356 814.754,484.019 814.494,412.431 743.249 C 340.275 671.440,335.990 666.050,336.011 647.107 C 336.028 631.645,339.226 623.293,349.509 611.856 C 366.828 592.594,388.616 587.083,409.000 596.812 C 416.402 600.344,430.169 612.812,461.988 644.798 L 504.977 688.012 637.988 555.080 C 723.369 469.750,773.507 421.075,778.000 419.152 C 787.932 414.902,809.135 415.227,819.000 419.780 " fill="#1D1E23" stroke="none" fill-rule="evenodd"></path></svg>