<svg width="1200" height="1200" viewBox="0 0 1200 1200" fill="none" xmlns="http://www.w3.org/2000/svg"><path d="M554.000 102.085 C 402.462 116.645,267.010 197.826,182.590 324.686 C 152.924 369.265,127.484 427.949,114.167 482.517 C 103.543 526.050,101.078 548.175,101.078 600.000 C 101.078 651.825,103.543 673.950,114.167 717.483 C 123.268 754.779,134.579 785.760,151.958 821.000 C 225.362 969.838,362.801 1069.587,530.000 1095.369 C 558.792 1099.809,635.700 1100.342,663.000 1096.290 C 743.901 1084.285,812.171 1058.774,875.026 1017.060 C 932.825 978.702,977.364 934.300,1015.876 876.644 C 1167.459 649.712,1108.602 344.211,883.274 188.361 C 820.947 145.251,749.971 117.334,673.426 105.819 C 642.803 101.212,582.654 99.331,554.000 102.085 M637.000 202.067 C 728.175 210.617,811.670 249.020,877.725 312.786 C 1002.244 432.989,1035.081 619.965,958.972 775.424 C 898.174 899.610,779.813 982.445,641.000 997.956 C 542.578 1008.954,436.771 978.739,355.000 916.285 C 337.015 902.549,303.337 869.207,288.046 850.000 C 268.510 825.461,255.353 804.553,240.851 775.000 C 173.046 636.832,191.464 471.084,288.076 350.000 C 303.498 330.672,334.753 299.697,354.000 284.667 C 433.438 222.636,536.275 192.620,637.000 202.067 M390.488 444.512 L 338.004 497.023 364.484 523.503 L 390.964 549.983 417.482 523.519 L 444.000 497.056 470.527 523.528 L 497.055 550.001 523.521 523.480 L 549.987 496.959 497.480 444.480 C 468.601 415.616,444.522 392.000,443.972 392.000 C 443.422 392.000,419.354 415.630,390.488 444.512 M702.488 444.512 L 650.004 497.023 676.484 523.503 L 702.964 549.983 729.482 523.519 L 756.000 497.056 782.527 523.528 L 809.055 550.001 835.521 523.480 L 861.987 496.959 809.480 444.480 C 780.601 415.616,756.522 392.000,755.972 392.000 C 755.422 392.000,731.354 415.630,702.488 444.512 M349.281 711.444 C 373.670 766.591,422.900 818.289,476.862 845.423 C 553.747 884.082,646.253 884.082,723.138 845.423 C 777.100 818.289,826.330 766.591,850.719 711.444 L 855.780 700.000 600.000 700.000 L 344.220 700.000 349.281 711.444 " fill="#1D1E23" stroke="none" fill-rule="evenodd"></path></svg>