<svg width="1200" height="1200" viewBox="0 0 1200 1200" fill="none" xmlns="http://www.w3.org/2000/svg"><path d="M184.000 201.326 C 173.657 202.999,154.635 210.764,144.526 217.438 C 123.539 231.296,107.312 255.132,102.210 279.598 C 99.091 294.557,99.091 905.443,102.210 920.402 C 110.026 957.883,142.117 989.974,179.598 997.790 C 194.606 1000.919,1005.394 1000.919,1020.402 997.790 C 1057.883 989.974,1089.974 957.883,1097.790 920.402 C 1100.909 905.443,1100.909 294.557,1097.790 279.598 C 1090.894 246.531,1067.041 219.355,1033.000 205.784 L 1021.000 201.000 605.000 200.758 C 376.200 200.626,186.750 200.881,184.000 201.326 M537.064 418.614 C 544.153 420.478,577.951 441.163,655.000 490.790 C 714.400 529.049,765.144 562.298,767.765 564.676 C 775.625 571.809,781.958 587.610,781.980 600.141 C 782.006 614.539,774.153 630.604,762.993 638.986 C 758.590 642.294,708.198 675.106,651.011 711.902 C 576.500 759.845,544.061 779.631,536.539 781.725 C 516.902 787.190,494.773 778.149,482.539 759.661 L 477.000 751.292 477.000 600.000 L 477.000 448.708 482.421 440.516 C 489.554 429.737,500.097 421.898,511.641 418.790 C 523.785 415.520,525.264 415.510,537.064 418.614 " fill="#1D1E23" stroke="none" fill-rule="evenodd"></path></svg>