<svg width="1200" height="1200" viewBox="0 0 1200 1200" fill="none" xmlns="http://www.w3.org/2000/svg"><path d="M182.171 303.434 C 177.315 305.149,169.581 310.314,164.983 314.911 C 148.941 330.954,150.000 310.799,150.000 600.000 C 150.000 889.135,148.947 869.052,164.947 885.053 C 181.064 901.169,154.861 900.000,500.000 900.000 C 845.139 900.000,818.936 901.169,835.053 885.053 C 849.916 870.189,850.000 869.523,850.000 766.177 L 850.000 675.066 931.500 756.392 C 1001.180 825.924,1014.041 837.907,1020.177 839.021 C 1029.913 840.789,1040.877 835.938,1045.949 827.620 C 1049.933 821.086,1049.985 818.143,1049.985 600.000 C 1049.985 381.857,1049.933 378.914,1045.949 372.380 C 1040.877 364.062,1029.913 359.211,1020.177 360.979 C 1014.041 362.093,1001.180 374.076,931.500 443.608 L 850.000 524.934 850.000 433.823 C 850.000 330.477,849.916 329.811,835.053 314.947 C 818.925 298.820,845.293 299.981,499.144 300.158 C 225.412 300.298,190.014 300.664,182.171 303.434 M750.000 600.000 L 750.000 800.000 500.000 800.000 L 250.000 800.000 250.000 600.000 L 250.000 400.000 500.000 400.000 L 750.000 400.000 750.000 600.000 " fill="#1D1E23" stroke="none" fill-rule="evenodd"></path></svg>