<svg width="1200" height="1200" viewBox="0 0 1200 1200" fill="none" xmlns="http://www.w3.org/2000/svg"><path d="M182.171 303.434 C 177.315 305.149,169.581 310.314,164.983 314.911 C 148.941 330.954,150.000 310.799,150.000 600.000 C 150.000 889.135,148.947 869.052,164.947 885.053 C 181.064 901.169,154.861 900.000,500.000 900.000 C 845.139 900.000,818.936 901.169,835.053 885.053 C 849.916 870.189,850.000 869.521,850.000 766.187 L 850.000 675.086 911.500 736.290 C 980.233 804.691,981.373 805.519,1004.014 803.466 C 1024.092 801.646,1040.511 789.099,1047.146 770.504 C 1049.300 764.471,1049.833 730.855,1049.868 599.000 C 1049.911 438.238,1049.832 434.822,1045.838 426.000 C 1034.984 402.022,1009.621 390.820,983.232 398.349 C 976.329 400.318,964.912 410.718,912.500 462.777 L 850.000 524.857 850.000 433.785 C 850.000 330.482,849.916 329.810,835.053 314.947 C 818.925 298.820,845.293 299.981,499.144 300.158 C 225.412 300.298,190.014 300.664,182.171 303.434 " fill="#1D1E23" stroke="none" fill-rule="evenodd"></path></svg>