<svg width="1200" height="1200" viewBox="0 0 1200 1200" fill="none" xmlns="http://www.w3.org/2000/svg"><path d="M833.048 129.193 C 828.675 130.794,822.134 134.105,818.513 136.552 C 814.892 138.998,791.080 165.975,765.597 196.500 L 719.264 252.000 431.132 252.020 L 143.000 252.039 132.958 256.715 C 121.121 262.227,111.555 271.265,105.423 282.731 L 101.000 291.000 100.473 580.904 C 99.885 904.663,98.884 881.352,114.130 898.674 C 123.629 909.464,135.442 915.556,150.707 917.535 L 162.007 919.000 147.763 936.000 C 139.928 945.350,131.754 956.893,129.599 961.650 C 114.468 995.049,133.196 1033.087,169.778 1043.258 C 190.998 1049.158,211.211 1042.887,228.008 1025.194 C 252.669 999.215,902.892 218.135,906.628 210.000 C 912.389 197.459,913.334 179.048,908.901 165.702 C 903.884 150.597,886.629 133.530,871.975 129.178 C 858.908 125.297,843.674 125.303,833.048 129.193 M1065.000 316.882 C 1061.700 318.381,1018.500 360.201,969.000 409.816 L 879.000 500.025 878.000 455.990 L 877.000 411.956 821.500 478.333 L 766.000 544.711 766.000 676.355 L 766.000 808.000 656.047 808.000 L 546.095 808.000 501.047 861.943 C 476.271 891.612,456.000 916.380,456.000 916.982 C 456.000 917.585,541.725 917.836,646.500 917.539 L 837.000 917.000 847.665 911.092 C 859.316 904.639,865.828 897.884,872.596 885.233 C 876.931 877.128,877.016 875.387,878.000 773.489 L 879.000 669.978 965.000 756.191 C 1012.300 803.608,1054.510 845.013,1058.800 848.202 C 1067.929 854.988,1079.165 855.901,1088.159 850.588 C 1100.694 843.183,1100.001 858.820,1099.993 583.698 C 1099.985 335.775,1099.940 332.927,1095.949 326.380 C 1091.991 319.888,1081.621 313.923,1074.564 314.078 C 1072.604 314.121,1068.300 315.383,1065.000 316.882 M624.748 364.407 C 623.930 365.731,540.528 465.856,439.411 586.907 L 255.561 807.000 233.781 807.566 L 212.000 808.131 212.000 585.066 L 212.000 362.000 419.118 362.000 C 580.046 362.000,625.904 362.537,624.748 364.407 " fill="#1D1E23" stroke="none" fill-rule="evenodd"></path></svg>