<svg width="1200" height="1200" viewBox="0 0 1200 1200" fill="none" xmlns="http://www.w3.org/2000/svg"><path d="M100.000 178.000 L 100.000 256.000 131.000 256.000 L 162.000 256.000 162.000 209.000 L 162.000 162.000 209.000 162.000 L 256.000 162.000 256.000 131.000 L 256.000 100.000 178.000 100.000 L 100.000 100.000 100.000 178.000 M318.000 131.000 L 318.000 162.000 381.000 162.000 L 444.000 162.000 444.000 131.000 L 444.000 100.000 381.000 100.000 L 318.000 100.000 318.000 131.000 M506.000 131.000 L 506.000 162.000 569.000 162.000 L 632.000 162.000 632.000 131.000 L 632.000 100.000 569.000 100.000 L 506.000 100.000 506.000 131.000 M694.000 131.000 L 694.000 162.000 741.000 162.000 L 788.000 162.000 788.000 194.000 L 788.000 226.000 819.000 226.000 L 850.000 226.000 850.000 163.000 L 850.000 100.000 772.000 100.000 L 694.000 100.000 694.000 131.000 M924.937 299.923 C 847.902 306.231,783.001 312.394,780.711 313.619 C 763.671 322.739,745.931 359.532,741.989 393.931 C 739.437 416.203,739.373 415.373,744.000 420.000 C 747.891 423.891,750.684 424.001,846.500 424.026 L 945.000 424.051 960.576 429.026 C 975.295 433.726,978.671 434.000,1021.933 434.000 C 1060.886 434.000,1068.183 433.531,1070.857 430.857 C 1072.586 429.129,1074.000 427.423,1074.000 427.068 C 1074.000 426.713,1079.850 399.232,1087.000 366.000 C 1094.150 332.768,1100.000 304.254,1100.000 302.635 C 1100.000 301.017,1097.369 297.062,1094.154 293.846 C 1088.954 288.646,1087.020 288.025,1076.654 288.227 C 1070.244 288.351,1001.972 293.615,924.937 299.923 M100.000 381.000 L 100.000 444.000 131.000 444.000 L 162.000 444.000 162.000 381.000 L 162.000 318.000 131.000 318.000 L 100.000 318.000 100.000 381.000 M474.000 335.000 L 474.000 350.000 580.501 350.000 L 687.002 350.000 691.199 338.500 C 693.508 332.175,696.079 325.425,696.912 323.500 C 698.346 320.190,692.328 320.000,586.214 320.000 L 474.000 320.000 474.000 335.000 M334.429 568.377 C 274.715 670.758,226.194 754.861,226.605 755.272 C 227.015 755.682,325.126 755.789,444.628 755.509 L 661.904 755.000 554.207 570.355 C 494.974 468.801,445.721 384.927,444.755 383.969 C 443.752 382.975,396.462 462.019,334.429 568.377 M538.000 397.000 L 538.000 412.000 607.728 412.000 L 677.456 412.000 678.728 402.721 C 679.428 397.617,680.000 390.867,680.000 387.721 L 680.000 382.000 609.000 382.000 L 538.000 382.000 538.000 397.000 M600.000 460.000 L 600.000 476.000 651.233 476.000 C 710.112 476.000,706.547 477.702,692.712 456.204 L 685.000 444.222 642.500 444.111 L 600.000 444.000 600.000 460.000 M761.439 451.500 C 768.652 468.223,767.203 476.709,728.970 641.601 L 693.124 796.203 696.514 809.129 C 705.217 842.312,724.092 869.102,747.579 881.608 C 753.860 884.953,775.200 893.158,795.000 899.842 C 827.885 910.942,832.471 911.993,848.000 911.986 C 878.057 911.971,884.000 908.267,884.000 889.546 C 884.000 880.389,880.711 874.039,859.664 842.567 C 852.149 831.328,846.000 820.205,846.000 817.849 C 846.000 815.492,854.550 773.307,865.000 724.104 C 875.735 673.561,884.000 629.901,884.000 623.742 C 884.000 609.771,888.361 593.133,895.978 578.043 C 900.137 569.805,902.011 563.157,902.035 556.557 C 902.127 531.221,913.807 501.662,928.860 488.670 C 946.979 473.032,967.279 466.305,1002.487 464.272 C 1024.433 463.005,1028.371 462.259,1030.834 458.900 C 1033.629 455.088,1032.965 454.973,1001.347 453.794 C 975.401 452.826,966.662 451.738,957.187 448.294 C 945.736 444.132,942.507 444.000,851.789 444.000 L 758.204 444.000 761.439 451.500 M950.788 493.920 C 932.235 504.515,922.938 523.069,920.751 553.860 C 919.800 567.246,918.050 574.344,912.759 586.270 C 906.624 600.096,900.843 621.510,902.734 623.400 C 903.148 623.814,904.555 619.844,905.860 614.577 C 908.590 603.561,914.354 594.177,928.986 576.929 C 939.136 564.964,939.378 564.379,940.581 548.855 C 942.131 528.841,948.178 509.116,956.126 498.144 C 959.519 493.460,961.968 489.301,961.569 488.902 C 961.170 488.503,956.318 490.761,950.788 493.920 M100.000 600.000 L 100.000 694.000 131.000 694.000 L 162.000 694.000 162.000 600.000 L 162.000 506.000 131.000 506.000 L 100.000 506.000 100.000 600.000 M454.417 508.082 C 458.497 509.215,464.572 512.880,467.917 516.225 L 474.000 522.308 474.000 568.084 L 474.000 613.861 468.028 620.663 C 453.765 636.907,424.063 633.816,415.213 615.166 C 412.597 609.654,412.001 601.015,412.003 568.698 C 412.007 522.238,413.185 517.933,427.924 510.500 C 437.797 505.521,443.366 505.013,454.417 508.082 M662.000 522.091 L 662.000 538.183 675.376 537.591 L 688.753 537.000 691.034 528.000 C 692.288 523.050,693.897 516.075,694.608 512.500 L 695.900 506.000 678.950 506.000 L 662.000 506.000 662.000 522.091 M461.287 668.275 C 469.177 673.029,474.000 682.981,474.000 694.506 C 474.000 711.058,459.798 724.751,442.896 724.496 C 422.863 724.193,408.777 705.398,414.012 685.957 C 419.585 665.260,442.228 656.791,461.287 668.275 M100.000 819.000 L 100.000 882.000 131.000 882.000 L 162.000 882.000 162.000 819.000 L 162.000 756.000 131.000 756.000 L 100.000 756.000 100.000 819.000 M100.000 1022.000 L 100.000 1100.000 178.000 1100.000 L 256.000 1100.000 256.000 1069.000 L 256.000 1038.000 209.000 1038.000 L 162.000 1038.000 162.000 991.000 L 162.000 944.000 131.000 944.000 L 100.000 944.000 100.000 1022.000 M788.000 1007.000 L 788.000 1038.000 741.000 1038.000 L 694.000 1038.000 694.000 1069.000 L 694.000 1100.000 772.000 1100.000 L 850.000 1100.000 850.000 1038.000 L 850.000 976.000 819.000 976.000 L 788.000 976.000 788.000 1007.000 M318.000 1069.000 L 318.000 1100.000 381.000 1100.000 L 444.000 1100.000 444.000 1069.000 L 444.000 1038.000 381.000 1038.000 L 318.000 1038.000 318.000 1069.000 M506.000 1069.000 L 506.000 1100.000 569.000 1100.000 L 632.000 1100.000 632.000 1069.000 L 632.000 1038.000 569.000 1038.000 L 506.000 1038.000 506.000 1069.000 " fill="#1D1E23" stroke="none" fill-rule="evenodd"></path></svg>