<svg width="1200" height="1200" viewBox="0 0 1200 1200" fill="none" xmlns="http://www.w3.org/2000/svg"><path d="M356.000 202.028 C 309.161 208.560,275.681 224.171,246.875 252.911 C 222.063 277.666,206.961 306.777,199.037 345.122 C 194.837 365.446,193.158 402.475,195.508 422.972 C 197.319 438.768,197.282 438.986,192.170 442.763 C 180.499 451.386,140.276 493.899,132.339 506.000 C 78.921 587.445,92.531 674.953,170.097 748.767 C 180.136 758.320,190.344 767.444,192.782 769.041 C 196.912 771.747,197.111 772.864,195.709 785.472 C 190.616 831.282,197.836 879.403,215.120 914.848 C 251.784 990.037,337.711 1024.716,443.000 1006.819 C 467.728 1002.615,495.432 995.455,519.837 986.960 C 538.516 980.459,550.163 975.652,587.529 959.027 L 600.059 953.452 624.529 964.483 C 685.508 991.972,733.230 1005.480,786.628 1010.366 C 832.205 1014.536,872.600 1007.824,909.000 990.034 C 944.323 972.770,966.542 950.563,984.073 915.000 C 1001.428 879.794,1008.530 838.751,1004.689 795.855 L 1002.642 773.000 1009.821 767.057 C 1077.594 710.950,1108.456 645.379,1097.863 580.000 C 1093.300 551.835,1078.706 519.395,1059.624 495.000 C 1049.426 481.962,1020.038 452.271,1009.971 444.834 C 1005.275 441.365,1002.484 437.866,1003.087 436.204 C 1003.645 434.666,1004.621 421.166,1005.255 406.204 C 1007.860 344.752,991.402 293.589,957.124 256.576 C 890.231 184.345,763.648 181.628,619.709 249.333 L 600.000 258.603 580.291 249.333 C 535.135 228.093,491.235 213.545,449.299 205.924 C 423.881 201.305,375.635 199.291,356.000 202.028 M454.000 238.689 C 466.650 241.392,487.800 247.144,501.000 251.469 C 528.584 260.509,566.194 276.068,565.027 277.957 C 564.591 278.661,556.733 283.822,547.563 289.426 C 538.394 295.029,520.888 306.774,508.662 315.526 L 486.433 331.439 459.716 335.846 C 408.790 344.248,355.363 358.802,311.506 376.221 C 290.964 384.380,248.662 405.007,235.728 413.172 C 231.521 415.827,227.612 418.000,227.040 418.000 C 224.677 418.000,226.234 373.331,229.205 355.852 C 236.693 311.808,256.383 279.785,289.377 257.992 C 305.764 247.168,326.461 239.036,348.107 234.917 C 371.216 230.519,424.689 232.424,454.000 238.689 M864.756 237.763 C 918.673 252.149,954.879 288.694,968.030 342.000 C 972.109 358.537,976.249 418.000,973.321 418.000 C 972.627 418.000,967.772 415.362,962.530 412.138 C 947.418 402.842,896.798 378.953,876.000 371.302 C 833.331 355.606,788.598 343.996,738.462 335.605 L 713.000 331.344 688.288 313.635 C 674.696 303.895,657.355 292.231,649.752 287.714 C 642.149 283.197,635.535 278.866,635.055 278.088 C 633.971 276.335,668.525 261.589,694.000 252.933 C 740.790 237.035,771.951 231.905,816.000 232.851 C 841.490 233.398,852.586 234.516,864.756 237.763 M622.090 307.546 C 654.193 327.119,656.577 325.223,599.924 325.170 C 572.508 325.144,550.735 324.538,551.539 323.823 C 556.305 319.581,597.375 296.000,599.995 296.000 C 601.732 296.000,611.675 301.196,622.090 307.546 M660.000 357.992 C 701.805 361.062,699.796 360.390,721.591 378.588 C 764.506 414.421,817.884 470.213,850.262 513.077 C 876.661 548.026,910.005 599.962,909.996 606.116 C 909.983 614.526,856.483 692.495,824.306 731.000 C 803.789 755.551,747.551 811.387,722.191 832.386 C 698.762 851.785,702.566 850.562,655.000 854.003 C 621.828 856.402,578.172 856.402,545.000 854.003 C 497.473 850.564,501.171 851.745,478.373 832.732 C 410.277 775.940,348.077 704.209,304.105 631.760 C 296.347 618.978,290.000 607.232,290.000 605.657 C 290.000 601.947,316.952 557.888,332.608 536.005 C 357.194 501.642,383.671 470.210,414.949 438.254 C 454.268 398.082,492.392 364.718,502.000 362.072 C 520.937 356.856,612.370 354.495,660.000 357.992 M402.575 406.500 C 352.037 457.292,324.117 491.310,290.197 543.421 C 280.739 557.952,272.445 569.877,271.768 569.921 C 270.135 570.026,260.275 547.743,251.170 523.370 C 242.779 500.907,231.125 457.148,232.555 453.470 C 235.226 446.603,296.739 415.057,336.000 400.419 C 363.296 390.242,423.332 372.950,433.951 372.207 C 435.574 372.093,421.455 387.525,402.575 406.500 M783.423 376.093 C 829.398 386.798,875.984 403.099,913.000 421.435 C 940.224 434.920,966.167 450.185,967.445 453.470 C 970.829 462.174,934.259 570.000,927.922 570.000 C 927.074 570.000,923.914 565.725,920.899 560.500 C 912.807 546.474,887.192 509.436,872.153 490.015 C 849.431 460.673,832.779 442.068,797.407 406.500 C 778.537 387.525,763.716 372.000,764.471 372.000 C 765.227 372.000,773.755 373.842,783.423 376.093 M567.996 452.970 C 477.671 470.991,422.671 566.738,452.078 654.765 C 474.425 721.658,538.502 765.466,608.000 761.365 C 631.387 759.984,646.244 756.174,667.000 746.234 C 706.499 727.318,734.165 696.016,747.933 654.666 C 774.007 576.353,734.759 492.034,657.650 460.702 C 632.349 450.421,596.340 447.316,567.996 452.970 M215.003 513.000 C 220.172 529.500,230.717 557.240,238.435 574.643 L 252.469 606.287 243.293 625.794 C 230.521 652.946,216.850 688.931,209.892 713.709 C 206.657 725.230,203.534 735.133,202.951 735.716 C 201.304 737.363,176.821 712.471,165.855 698.000 C 128.350 648.510,121.710 593.369,147.224 543.287 C 157.774 522.577,164.657 513.263,184.869 492.342 C 201.559 475.065,202.995 474.028,204.249 478.342 C 204.994 480.904,209.833 496.500,215.003 513.000 M1044.902 528.739 C 1065.371 561.580,1072.757 600.423,1065.088 634.895 C 1061.012 653.215,1047.871 680.065,1034.201 698.000 C 1023.362 712.222,998.697 737.363,997.125 735.791 C 996.583 735.250,993.043 724.050,989.257 710.903 C 981.617 684.373,970.342 654.929,956.609 625.643 L 947.531 606.287 961.528 574.643 C 975.287 543.536,985.771 514.464,993.069 487.185 L 996.764 473.371 1016.007 493.312 C 1026.591 504.280,1039.594 520.222,1044.902 528.739 M292.546 671.501 C 328.315 725.485,361.992 765.959,410.697 813.500 C 425.629 828.075,437.423 840.000,436.906 840.000 C 436.390 840.000,426.749 837.812,415.484 835.139 C 368.783 824.055,319.992 806.902,283.000 788.564 C 258.738 776.536,232.000 759.670,232.000 756.393 C 232.000 751.688,241.677 715.553,247.638 698.000 C 252.979 682.272,270.161 640.000,271.213 640.000 C 271.467 640.000,281.066 654.175,292.546 671.501 M950.902 693.996 C 957.943 714.223,968.036 751.115,967.964 756.362 C 967.916 759.922,951.940 770.158,923.000 785.173 C 894.932 799.736,862.304 812.854,828.869 823.020 C 808.857 829.104,766.587 840.000,762.993 840.000 C 762.421 840.000,774.571 827.727,789.992 812.726 C 837.217 766.789,869.202 728.444,905.387 674.389 L 928.555 639.777 936.128 656.541 C 940.293 665.762,946.941 682.617,950.902 693.996 M249.197 805.927 C 305.771 837.388,378.463 861.631,456.000 874.896 C 482.706 879.466,488.108 881.024,495.000 886.150 C 499.400 889.422,516.500 901.149,533.000 912.209 C 549.500 923.269,563.255 933.013,563.567 933.861 C 564.673 936.869,519.770 954.892,485.949 965.015 C 450.011 975.772,427.761 978.932,389.000 978.782 C 358.549 978.665,350.534 977.973,337.000 974.290 C 281.139 959.090,246.388 924.277,231.897 869.000 C 227.880 853.675,223.653 794.000,226.585 794.000 C 227.226 794.000,237.402 799.367,249.197 805.927 M973.425 823.500 C 972.116 858.010,967.618 878.858,956.817 900.481 C 934.471 945.216,896.317 970.717,840.554 978.189 C 816.206 981.451,776.712 979.283,747.148 973.062 C 720.420 967.438,672.795 951.907,648.941 941.037 L 633.193 933.860 645.096 926.689 C 657.198 919.400,690.465 896.809,705.000 886.010 C 711.914 880.873,717.209 879.358,744.000 874.854 C 821.064 861.897,900.693 835.067,954.000 804.097 C 963.350 798.665,971.797 794.171,972.772 794.110 C 973.773 794.048,974.057 806.829,973.425 823.500 M646.541 888.960 C 633.272 897.929,602.169 916.000,600.000 916.000 C 597.831 916.000,566.728 897.929,553.459 888.960 C 550.665 887.071,560.484 886.566,600.000 886.566 C 639.516 886.566,649.335 887.071,646.541 888.960 " fill="#1D1E23" stroke="none" fill-rule="evenodd"></path></svg>