<svg width="1200" height="1200" viewBox="0 0 1200 1200" fill="none" xmlns="http://www.w3.org/2000/svg"><path d="M551.000 202.247 C 347.728 219.498,169.642 338.708,74.818 521.000 C 67.952 534.200,59.513 551.788,56.065 560.083 L 49.795 575.167 57.015 592.083 C 96.261 684.037,163.935 769.959,245.655 831.589 C 456.211 990.381,749.505 989.048,958.738 828.348 C 1037.969 767.494,1104.570 682.091,1142.985 592.083 L 1150.205 575.167 1143.935 560.083 C 1140.487 551.788,1132.048 534.200,1125.182 521.000 C 1069.870 414.667,987.486 330.206,882.542 272.246 C 784.488 218.091,664.017 192.656,551.000 202.247 M643.229 329.096 C 743.340 346.554,822.558 423.244,844.558 524.000 C 850.421 550.849,850.421 599.151,844.558 626.000 C 830.188 691.811,791.562 748.254,736.133 784.439 C 653.871 838.140,546.129 838.140,463.867 784.439 C 408.438 748.254,369.812 691.811,355.442 626.000 C 349.579 599.151,349.579 550.849,355.442 524.000 C 369.543 459.419,407.501 403.349,462.000 366.593 C 486.025 350.391,525.417 334.591,555.194 329.213 C 576.803 325.311,621.185 325.252,643.229 329.096 M566.962 428.939 C 514.353 440.394,472.684 479.764,455.715 534.050 C 448.978 555.602,448.978 594.398,455.715 615.950 C 481.756 699.257,564.897 743.261,646.997 717.189 C 692.955 702.595,728.890 665.201,744.285 615.950 C 751.022 594.398,751.022 555.602,744.285 534.050 C 727.170 479.298,685.435 440.153,632.126 428.852 C 615.861 425.404,582.996 425.448,566.962 428.939 " fill="#1D1E23" stroke="none" fill-rule="evenodd"></path></svg>