<svg width="1200" height="1200" viewBox="0 0 1200 1200" fill="none" xmlns="http://www.w3.org/2000/svg"><path d="M207.763 102.746 C 187.099 108.343,168.622 128.647,164.064 150.767 C 162.633 157.709,162.123 243.543,162.478 417.690 L 163.000 674.381 173.631 659.154 L 184.262 643.928 199.223 565.627 C 207.452 522.562,216.022 481.853,218.268 475.163 C 226.809 449.723,246.847 424.076,272.000 406.390 C 279.150 401.363,285.147 397.194,285.326 397.125 C 285.505 397.056,287.933 386.864,290.722 374.475 C 296.865 347.182,304.284 332.532,319.596 317.457 C 333.978 303.299,350.549 293.335,371.000 286.549 C 385.257 281.819,390.159 281.228,416.000 281.120 C 441.023 281.017,447.057 281.642,460.000 285.684 C 491.142 295.408,513.485 310.739,527.838 332.233 C 540.838 351.700,544.000 365.101,544.000 400.717 L 544.000 431.013 551.168 441.006 C 560.651 454.229,566.942 466.747,570.835 480.137 L 574.023 491.103 600.000 491.103 L 625.977 491.103 629.165 480.137 C 633.058 466.747,639.349 454.229,648.832 441.006 L 656.000 431.013 656.000 400.717 C 656.000 376.025,656.743 368.015,660.019 357.411 C 670.433 323.694,698.166 298.847,740.070 285.688 C 752.968 281.638,758.947 281.016,784.000 281.120 C 809.841 281.228,814.743 281.819,829.000 286.549 C 849.451 293.335,866.022 303.299,880.404 317.457 C 895.716 332.532,903.135 347.182,909.278 374.475 C 912.067 386.864,914.495 397.079,914.674 397.176 C 921.744 400.992,937.957 413.594,947.424 422.630 C 962.763 437.270,974.832 455.489,981.064 473.409 C 983.672 480.910,992.573 522.387,1000.844 565.581 L 1015.881 644.116 1025.287 657.558 C 1030.460 664.951,1035.456 671.874,1036.390 672.943 C 1037.323 674.012,1037.842 556.112,1037.543 410.943 L 1037.000 147.000 1032.048 137.000 C 1025.728 124.239,1013.624 112.133,1000.948 105.895 L 991.000 101.000 604.000 100.622 C 299.534 100.325,215.030 100.778,207.763 102.746 M769.459 165.928 C 789.188 174.884,793.406 200.286,777.762 215.931 C 761.137 232.556,732.715 224.394,726.297 201.152 C 722.458 187.248,730.748 170.972,744.779 164.864 C 753.314 161.149,759.522 161.417,769.459 165.928 M863.235 165.827 C 883.122 174.859,887.286 200.215,871.409 215.604 C 858.649 227.971,841.404 228.022,828.720 215.729 C 812.967 200.460,816.842 175.941,836.549 166.186 C 846.903 161.061,852.571 160.985,863.235 165.827 M957.203 166.098 C 982.646 178.415,979.629 214.590,952.401 223.662 C 938.917 228.155,922.718 220.688,915.970 206.869 C 910.858 196.398,910.966 190.898,916.500 179.924 C 919.787 173.405,923.405 169.787,929.924 166.500 C 940.957 160.936,946.375 160.856,957.203 166.098 M386.696 314.840 C 362.705 320.659,338.005 338.222,329.113 355.785 C 326.547 360.853,322.475 374.900,320.066 387.000 C 317.656 399.100,315.226 410.953,314.666 413.340 C 314.035 416.028,308.788 420.521,300.878 425.147 C 274.797 440.399,254.328 463.760,247.419 486.156 C 245.579 492.120,237.214 532.989,228.830 576.975 L 213.587 656.950 202.023 672.975 C 145.285 751.602,101.719 867.432,101.213 941.000 C 101.066 962.247,101.660 966.683,106.382 979.669 C 113.966 1000.522,122.815 1014.481,139.895 1032.531 C 205.639 1102.008,331.063 1120.440,429.282 1075.060 C 478.147 1052.483,515.006 1011.867,524.965 969.623 C 527.149 960.360,527.949 944.565,527.970 910.286 C 527.998 866.548,528.223 863.670,531.500 865.115 C 533.425 865.963,543.100 868.890,553.000 871.619 C 568.320 875.842,575.318 876.583,600.000 876.591 C 624.903 876.601,631.543 875.891,647.000 871.569 C 656.900 868.801,666.519 865.891,668.376 865.102 C 671.484 863.781,671.803 867.760,672.397 915.334 C 672.996 963.353,673.369 967.918,677.673 980.000 C 713.703 1081.145,865.258 1129.676,989.601 1079.887 C 1016.026 1069.306,1035.336 1056.530,1055.936 1036.000 C 1076.671 1015.335,1085.398 1002.285,1093.609 979.669 C 1103.970 951.129,1099.663 904.769,1080.889 842.735 C 1062.115 780.704,1033.869 722.791,998.235 673.273 L 986.524 657.000 970.189 572.133 C 951.987 477.568,950.178 471.888,931.649 451.154 C 922.813 441.266,910.775 432.135,889.262 419.000 C 887.027 417.636,884.328 408.738,880.767 391.000 C 877.897 376.700,873.450 360.853,870.885 355.785 C 861.684 337.605,835.161 319.373,810.402 314.210 C 795.074 311.014,765.546 311.492,751.289 315.168 C 724.934 321.963,702.011 338.990,692.915 358.527 C 688.310 368.418,688.038 371.031,688.020 405.528 L 688.000 442.057 679.003 453.103 C 661.985 473.996,656.061 490.818,656.024 518.360 L 656.000 535.720 643.773 530.752 C 637.049 528.019,624.449 524.749,615.773 523.485 C 596.483 520.673,574.398 523.368,556.227 530.752 L 544.000 535.720 543.976 518.360 C 543.940 491.540,538.268 474.819,522.397 454.740 L 514.506 444.757 513.654 407.879 C 512.854 373.225,512.485 370.310,507.539 359.559 C 498.124 339.094,475.607 322.103,448.711 315.168 C 434.059 311.391,401.624 311.219,386.696 314.840 M630.616 746.050 C 649.893 753.375,659.701 762.933,661.470 776.119 C 664.594 799.415,637.302 818.000,599.968 818.000 C 539.334 818.000,515.132 769.844,564.741 747.907 C 584.091 739.351,610.990 738.593,630.616 746.050 M356.000 822.224 C 374.934 825.170,402.306 834.840,418.701 844.375 C 438.390 855.825,457.595 875.486,466.159 892.958 C 472.632 906.165,473.000 908.051,473.000 928.000 C 473.000 947.811,472.601 949.894,466.400 962.490 C 449.628 996.560,410.867 1022.721,361.898 1033.022 C 301.087 1045.814,234.108 1030.211,195.823 994.335 C 177.510 977.173,168.863 963.172,164.931 944.312 C 159.265 917.141,166.876 892.083,187.588 869.712 C 224.724 829.600,288.263 811.684,356.000 822.224 M907.000 820.886 C 946.997 823.883,987.240 842.522,1012.412 869.712 C 1057.941 918.889,1038.603 984.945,968.964 1018.119 C 939.196 1032.299,901.119 1039.564,869.196 1037.154 C 805.071 1032.314,754.178 1004.290,733.600 962.490 C 727.399 949.894,727.000 947.811,727.000 928.000 C 727.000 908.227,727.407 906.090,733.542 893.628 C 748.805 862.623,779.870 839.482,823.000 826.988 C 840.598 821.890,872.040 818.018,886.000 819.230 C 889.850 819.564,899.300 820.310,907.000 820.886 " fill="#1D1E23" stroke="none" fill-rule="evenodd"></path></svg>