<svg width="1200" height="1200" viewBox="0 0 1200 1200" fill="none" xmlns="http://www.w3.org/2000/svg"><path d="M135.478 157.521 C 117.065 175.958,102.000 191.928,102.000 193.010 C 102.000 194.093,131.766 224.754,168.147 261.147 L 234.295 327.317 217.638 341.459 C 194.170 361.382,151.560 405.531,134.112 428.000 C 103.761 467.085,72.603 520.008,55.184 562.059 L 49.774 575.119 57.005 592.059 C 115.210 728.435,231.317 844.621,366.820 902.087 C 503.618 960.103,649.604 965.414,791.614 917.542 L 816.227 909.245 901.629 994.629 L 987.030 1080.013 1021.871 1045.130 L 1056.711 1010.246 615.089 567.123 C 372.197 323.405,172.452 124.000,171.211 124.000 C 169.971 124.000,153.891 139.085,135.478 157.521 M551.000 202.247 C 512.208 205.539,451.428 217.238,425.511 226.401 L 418.021 229.049 471.888 282.888 L 525.756 336.728 545.378 332.084 C 572.227 325.730,615.566 324.282,641.922 328.859 C 716.292 341.774,779.520 386.274,817.404 452.363 C 848.689 506.942,857.428 571.552,841.818 632.878 L 837.776 648.757 913.378 724.378 C 954.959 765.970,990.003 800.000,991.254 800.000 C 992.504 800.000,1006.628 786.515,1022.640 770.033 C 1074.949 716.188,1113.828 658.709,1142.223 593.240 L 1150.095 575.090 1145.749 564.045 C 1143.359 557.970,1134.574 539.500,1126.228 523.000 C 1049.087 370.505,905.255 256.841,739.000 216.990 C 676.714 202.060,612.520 197.026,551.000 202.247 M682.012 493.035 C 721.361 532.413,747.250 556.899,747.633 555.104 C 748.604 550.558,742.713 529.427,736.006 513.397 C 724.261 485.327,698.862 458.255,670.255 443.316 C 655.017 435.359,632.456 428.000,623.301 428.000 C 617.467 428.000,621.624 432.604,682.012 493.035 M451.040 572.522 C 451.006 596.897,451.676 603.154,455.694 615.950 C 474.820 676.861,522.589 716.797,584.774 723.863 C 595.468 725.078,606.463 725.066,615.190 723.830 L 628.857 721.895 667.429 760.428 C 688.643 781.622,706.000 799.448,706.000 800.042 C 706.000 802.933,662.445 817.404,642.086 821.276 C 619.379 825.595,580.166 825.568,557.000 821.216 C 481.363 807.006,420.745 764.043,382.596 697.606 C 345.643 633.251,340.185 550.266,368.434 482.292 L 374.546 467.584 412.814 505.814 L 451.081 544.043 451.040 572.522 " fill="#1D1E23" stroke="none" fill-rule="evenodd"></path></svg>