<svg width="1200" height="1200" viewBox="0 0 1200 1200" fill="none" xmlns="http://www.w3.org/2000/svg"><path d="M100.000 599.504 L 100.000 1100.000 342.040 1100.000 L 584.080 1100.000 583.540 1057.786 L 583.000 1015.572 564.000 1008.859 C 538.851 999.973,493.625 977.402,470.000 961.947 C 356.406 887.634,281.572 770.010,260.721 633.000 C 258.677 619.571,257.318 590.493,256.583 544.500 L 255.489 476.000 349.744 476.000 L 444.000 476.000 444.000 459.496 L 444.000 442.991 272.000 271.000 L 100.000 99.009 100.000 599.504 M697.000 102.078 C 631.294 112.324,573.927 158.391,550.118 220.031 C 537.679 252.233,537.793 250.144,538.473 435.000 L 539.091 603.000 543.654 617.865 C 564.092 684.456,612.686 732.598,677.060 750.031 C 696.986 755.427,733.936 757.441,753.179 754.180 C 828.075 741.487,885.123 690.343,906.427 616.790 L 911.000 601.000 911.000 429.000 L 911.000 257.000 906.391 240.134 C 891.551 185.822,857.781 144.838,807.416 120.011 C 796.187 114.476,779.800 108.120,771.000 105.888 C 752.484 101.189,715.055 99.262,697.000 102.078 M350.016 580.500 C 350.085 624.192,365.798 687.286,387.870 732.501 C 421.418 801.220,478.648 861.158,545.526 897.616 C 581.398 917.172,633.347 934.963,666.500 939.045 L 678.000 940.461 678.000 1020.230 L 678.000 1100.000 725.000 1100.000 L 772.000 1100.000 772.000 1020.230 L 772.000 940.461 783.500 939.045 C 800.539 936.947,837.377 927.071,858.284 918.997 C 905.072 900.928,946.381 874.712,982.413 840.225 C 1036.872 788.099,1070.912 729.936,1089.061 658.000 C 1094.430 636.722,1100.000 597.458,1100.000 580.898 L 1100.000 570.000 1053.287 570.000 L 1006.574 570.000 1005.200 588.500 C 1000.054 657.773,972.524 717.645,923.085 767.085 C 882.107 808.062,836.652 832.541,778.000 845.218 C 765.045 848.018,752.434 848.892,725.000 848.892 C 697.566 848.892,684.955 848.018,672.000 845.218 C 613.348 832.541,567.893 808.062,526.915 767.085 C 477.476 717.645,449.946 657.773,444.800 588.500 L 443.426 570.000 396.713 570.000 L 350.000 570.000 350.016 580.500 M935.000 986.790 C 917.400 995.735,894.900 1005.843,885.000 1009.252 L 867.000 1015.449 866.460 1057.724 L 865.920 1100.000 983.449 1100.000 L 1100.977 1100.000 1036.000 1035.000 C 1000.263 999.250,970.118 970.118,969.012 970.262 C 967.905 970.407,952.600 977.844,935.000 986.790 " fill="#1D1E23" stroke="none" fill-rule="evenodd"></path></svg>