<svg width="1200" height="1200" viewBox="0 0 1200 1200" fill="none" xmlns="http://www.w3.org/2000/svg"><path d="M638.000 140.469 L 638.000 181.524 657.500 182.891 C 732.603 188.154,793.960 208.582,852.181 247.707 C 942.254 308.237,1000.598 403.310,1013.063 509.867 C 1014.678 523.677,1016.000 539.256,1016.000 544.488 L 1016.000 554.000 1058.000 554.000 L 1100.000 554.000 1100.000 542.212 C 1100.000 535.728,1099.060 521.103,1097.911 509.712 C 1087.750 408.948,1041.933 310.885,971.862 239.924 C 888.090 155.089,782.700 107.840,661.500 100.782 L 638.000 99.413 638.000 140.469 M638.879 266.594 C 638.346 267.982,638.156 286.641,638.455 308.059 L 639.000 347.000 657.165 348.279 C 681.090 349.965,704.792 356.266,727.395 366.951 C 752.410 378.776,765.992 388.096,785.737 406.987 C 821.423 441.128,843.071 486.356,847.488 536.000 L 849.000 553.000 890.500 553.541 L 932.000 554.081 932.000 541.239 C 932.000 522.457,925.161 485.956,917.289 462.729 C 902.839 420.091,881.592 385.716,850.000 353.862 C 826.051 329.715,808.767 316.374,783.000 302.148 C 747.651 282.632,704.226 269.168,669.602 266.988 C 659.371 266.344,648.491 265.424,645.424 264.943 C 642.072 264.418,639.461 265.077,638.879 266.594 M111.927 336.500 C 122.686 368.405,223.446 664.456,232.420 690.532 L 236.389 702.064 290.478 701.532 L 344.568 701.000 412.975 501.469 L 481.382 301.938 426.227 302.469 L 371.071 303.000 331.105 446.469 C 309.123 525.377,290.520 589.277,289.764 588.469 C 289.008 587.661,270.603 522.875,248.863 444.500 L 209.337 302.000 154.815 302.000 L 100.293 302.000 111.927 336.500 M616.386 410.064 C 567.891 416.672,525.022 446.185,503.183 488.000 C 491.484 510.400,487.236 527.855,487.120 554.000 C 487.013 578.299,489.233 590.501,497.436 610.689 C 536.156 705.980,663.929 732.712,739.530 661.340 C 813.194 591.798,796.227 473.155,705.887 426.076 C 679.271 412.206,645.286 406.126,616.386 410.064 M649.052 484.179 C 673.077 488.620,693.632 504.214,703.660 525.607 C 708.299 535.505,708.990 539.493,708.923 556.000 C 708.854 573.278,708.282 576.094,702.610 587.073 C 695.056 601.697,681.618 614.522,666.350 621.679 C 656.556 626.270,652.395 627.000,636.000 627.000 C 619.605 627.000,615.444 626.270,605.650 621.679 C 589.752 614.227,577.205 601.940,569.500 586.280 C 563.624 574.338,563.000 571.340,563.000 555.035 C 563.000 539.156,563.698 535.579,568.838 525.109 C 579.440 503.516,599.790 487.998,622.452 484.224 C 637.190 481.770,636.031 481.772,649.052 484.179 M344.000 933.000 L 344.000 1100.000 455.000 1100.000 L 566.000 1100.000 566.000 1069.000 L 566.000 1038.000 496.000 1038.000 L 426.000 1038.000 426.000 902.000 L 426.000 766.000 385.000 766.000 L 344.000 766.000 344.000 933.000 M544.448 796.500 L 545.000 827.000 594.500 827.535 L 644.000 828.070 644.000 964.035 L 644.000 1100.000 684.000 1100.000 L 724.000 1100.000 724.000 964.034 L 724.000 828.069 774.500 827.534 L 825.000 827.000 825.552 796.500 L 826.104 766.000 685.000 766.000 L 543.896 766.000 544.448 796.500 M868.000 933.000 L 868.000 1100.000 984.000 1100.000 L 1100.000 1100.000 1100.000 1069.000 L 1100.000 1038.000 1025.000 1038.000 L 950.000 1038.000 950.000 998.000 L 950.000 958.000 1013.000 958.000 L 1076.000 958.000 1076.000 928.000 L 1076.000 898.000 1013.000 898.000 L 950.000 898.000 950.000 863.000 L 950.000 828.000 1025.000 828.000 L 1100.000 828.000 1100.000 797.000 L 1100.000 766.000 984.000 766.000 L 868.000 766.000 868.000 933.000 " fill="#1D1E23" stroke="none" fill-rule="evenodd"></path></svg>