<svg width="1200" height="1200" viewBox="0 0 1200 1200" fill="none" xmlns="http://www.w3.org/2000/svg"><path d="M724.407 182.256 C 715.057 186.885,707.849 195.086,703.062 206.543 C 699.119 215.981,699.119 238.019,703.062 247.457 C 709.495 262.854,714.788 267.192,744.900 281.749 C 777.805 297.656,801.218 312.478,825.863 333.002 C 880.162 378.221,921.419 444.048,938.689 513.018 C 946.756 545.233,948.807 562.861,948.807 600.000 C 948.807 619.250,947.656 642.200,946.250 651.000 C 930.909 747.001,880.567 829.069,802.392 885.519 C 792.826 892.426,769.439 905.834,750.419 915.314 C 705.499 937.703,700.000 944.141,700.000 974.339 C 700.000 995.447,711.466 1013.331,729.363 1020.139 C 741.032 1024.578,754.780 1022.738,775.423 1013.974 C 941.395 943.512,1050.000 779.770,1050.000 600.000 C 1050.000 420.930,941.884 257.200,777.411 187.190 C 751.983 176.366,738.788 175.138,724.407 182.256 M536.143 272.220 C 532.371 273.364,525.621 276.866,521.143 280.003 C 516.664 283.140,476.104 322.673,431.009 367.853 L 349.018 450.000 270.865 450.000 C 181.937 450.000,179.559 450.336,164.947 464.947 C 149.842 480.053,150.000 478.625,150.000 600.000 C 150.000 721.375,149.842 719.947,164.947 735.053 C 179.580 749.685,181.830 750.000,271.826 750.000 L 350.940 750.000 437.970 836.851 C 523.392 922.097,525.213 923.763,536.547 927.007 C 548.999 930.570,562.019 929.196,573.871 923.067 C 582.215 918.752,594.950 903.391,597.648 894.386 C 599.403 888.528,600.000 813.719,600.000 599.519 C 600.000 287.667,600.588 304.370,589.086 289.291 C 578.516 275.433,552.846 267.156,536.143 272.220 M700.000 600.000 C 700.000 710.000,700.675 799.998,701.500 799.995 C 702.325 799.992,708.327 796.777,714.838 792.851 C 840.202 717.259,862.289 547.802,760.374 443.499 C 741.674 424.360,708.479 400.000,701.099 400.000 C 700.495 400.000,700.000 490.000,700.000 600.000 " fill="#1D1E23" stroke="none" fill-rule="evenodd"></path></svg>