<svg width="1200" height="1200" viewBox="0 0 1200 1200" fill="none" xmlns="http://www.w3.org/2000/svg"><path d="M180.486 182.514 L 146.014 217.028 254.969 325.969 L 363.923 434.910 356.556 442.455 L 349.188 450.000 249.594 450.000 L 150.000 450.000 150.000 600.000 L 150.000 750.000 249.494 750.000 L 348.988 750.000 474.494 875.494 L 600.000 1000.988 600.000 836.001 L 600.000 671.014 704.000 775.000 C 761.200 832.192,807.986 879.439,807.969 879.993 C 807.901 882.170,770.593 905.277,752.471 914.365 C 741.928 919.653,725.809 926.419,716.651 929.402 L 700.000 934.824 700.000 986.412 C 700.000 1014.786,700.294 1038.000,700.653 1038.000 C 704.791 1038.000,748.375 1024.227,764.314 1017.882 C 800.228 1003.586,841.461 980.264,873.587 956.077 L 880.126 951.155 930.577 1001.577 C 958.326 1029.310,981.932 1052.000,983.036 1052.000 C 984.140 1052.000,1000.554 1036.470,1019.512 1017.489 L 1053.981 982.977 636.489 565.489 C 406.868 335.870,218.088 148.000,216.977 148.000 C 215.866 148.000,199.445 163.531,180.486 182.514 M700.466 213.134 L 701.000 264.268 721.000 271.836 C 881.376 332.521,974.060 494.578,943.968 661.693 C 941.771 673.895,937.647 691.241,934.805 700.239 L 929.637 716.598 967.299 754.299 C 988.013 775.035,1005.419 791.998,1005.980 791.995 C 1007.506 791.988,1020.981 759.262,1026.979 741.000 C 1057.439 648.250,1057.368 549.844,1026.775 458.197 C 979.428 316.359,866.644 208.890,721.276 167.096 C 711.528 164.293,702.738 162.000,701.743 162.000 C 700.696 162.000,700.158 183.563,700.466 213.134 M552.484 248.516 L 506.000 295.032 553.000 342.000 L 600.000 388.968 600.000 295.484 C 600.000 244.068,599.768 202.000,599.484 202.000 C 599.200 202.000,578.050 222.932,552.484 248.516 M700.000 444.512 L 700.000 489.024 761.726 550.726 C 832.086 621.058,827.370 618.778,823.844 580.757 C 818.888 527.296,797.896 481.900,760.374 443.499 C 741.674 424.360,708.479 400.000,701.099 400.000 C 700.495 400.000,700.000 420.030,700.000 444.512 " fill="#1D1E23" stroke="none" fill-rule="evenodd"></path></svg>