<svg width="1200" height="1200" viewBox="0 0 1200 1200" fill="none" xmlns="http://www.w3.org/2000/svg"><path d="M700.466 213.134 L 701.000 264.268 721.000 271.836 C 809.150 305.191,875.678 366.248,916.217 451.000 C 966.489 556.097,959.551 682.885,898.050 783.000 C 856.886 850.011,796.332 899.659,721.000 928.164 L 701.000 935.732 700.466 986.866 C 700.173 1014.990,700.641 1038.000,701.506 1038.000 C 705.631 1038.000,735.358 1029.031,756.000 1021.558 C 881.771 976.027,984.905 869.539,1026.754 742.000 C 1107.246 496.688,970.134 238.645,721.276 167.096 C 711.528 164.293,702.738 162.000,701.743 162.000 C 700.696 162.000,700.158 183.563,700.466 213.134 M474.000 325.000 L 349.012 450.000 249.506 450.000 L 150.000 450.000 150.000 600.000 L 150.000 750.000 250.494 750.000 L 350.988 750.000 475.494 874.494 L 600.000 998.988 600.000 599.494 C 600.000 379.772,599.772 200.000,599.494 200.000 C 599.216 200.000,542.743 256.250,474.000 325.000 M700.000 600.000 C 700.000 710.000,700.675 799.998,701.500 799.995 C 702.325 799.992,708.327 796.777,714.838 792.851 C 840.202 717.259,862.289 547.802,760.374 443.499 C 741.674 424.360,708.479 400.000,701.099 400.000 C 700.495 400.000,700.000 490.000,700.000 600.000 " fill="#1D1E23" stroke="none" fill-rule="evenodd"></path></svg>