<svg width="1200" height="1200" viewBox="0 0 1200 1200" fill="none" xmlns="http://www.w3.org/2000/svg"><path d="M636.143 272.220 C 632.371 273.364,625.621 276.866,621.143 280.003 C 616.664 283.140,576.104 322.673,531.009 367.853 L 449.018 450.000 370.865 450.000 C 281.937 450.000,279.559 450.336,264.947 464.947 C 249.842 480.053,250.000 478.625,250.000 600.000 C 250.000 721.375,249.842 719.947,264.947 735.053 C 279.580 749.685,281.830 750.000,371.826 750.000 L 450.940 750.000 537.970 836.851 C 623.392 922.097,625.213 923.763,636.547 927.007 C 648.999 930.570,662.019 929.196,673.871 923.067 C 682.215 918.752,694.950 903.391,697.648 894.386 C 699.403 888.528,700.000 813.719,700.000 599.519 C 700.000 287.667,700.588 304.370,689.086 289.291 C 678.516 275.433,652.846 267.156,636.143 272.220 M800.000 600.000 C 800.000 710.000,800.675 799.998,801.500 799.995 C 802.325 799.992,808.327 796.777,814.838 792.851 C 940.202 717.259,962.289 547.802,860.374 443.499 C 841.674 424.360,808.479 400.000,801.099 400.000 C 800.495 400.000,800.000 490.000,800.000 600.000 " fill="#1D1E23" stroke="none" fill-rule="evenodd"></path></svg>