<svg width="1200" height="1200" viewBox="0 0 1200 1200" fill="none" xmlns="http://www.w3.org/2000/svg"><path d="M193.079 173.547 C 169.060 186.749,160.367 214.360,172.471 239.000 C 174.963 244.072,210.739 281.422,270.234 341.061 L 364.067 435.123 356.449 442.561 L 348.831 450.000 270.772 450.000 C 181.948 450.000,179.557 450.338,164.947 464.947 C 149.842 480.053,150.000 478.625,150.000 600.000 C 150.000 721.375,149.842 719.947,164.947 735.053 C 179.580 749.685,181.830 750.000,271.826 750.000 L 350.940 750.000 437.970 836.851 C 523.392 922.097,525.213 923.763,536.547 927.007 C 548.999 930.570,562.019 929.196,573.871 923.067 C 582.215 918.752,594.950 903.391,597.648 894.386 C 599.324 888.791,600.000 855.585,600.000 778.775 L 600.000 671.014 703.885 774.885 C 761.021 832.013,807.265 879.572,806.648 880.570 C 803.890 885.032,767.124 907.199,742.834 919.045 C 714.245 932.987,708.701 937.840,703.039 953.889 C 696.297 972.998,700.354 990.470,714.932 1005.111 C 726.604 1016.832,738.016 1021.012,754.466 1019.591 C 773.642 1017.934,822.464 993.179,860.713 965.719 L 880.426 951.566 916.713 987.658 C 941.703 1012.514,955.802 1025.021,962.000 1027.831 C 973.662 1033.119,992.053 1033.282,1003.000 1028.194 C 1012.954 1023.569,1024.816 1011.374,1028.902 1001.564 C 1033.264 991.094,1032.792 972.961,1027.873 962.000 C 1022.239 949.447,253.802 180.200,239.566 172.862 C 225.842 165.788,206.681 166.070,193.079 173.547 M725.962 181.899 C 717.282 186.490,708.642 194.964,704.492 202.958 C 700.392 210.855,698.837 235.416,701.858 244.568 C 707.282 261.003,713.739 266.545,745.320 281.868 C 761.644 289.789,783.550 302.017,794.000 309.041 C 865.756 357.277,918.207 431.221,938.689 513.018 C 946.847 545.597,948.836 562.934,948.782 601.000 C 948.725 640.493,944.745 668.774,934.822 700.184 L 929.637 716.598 967.299 754.299 C 988.013 775.035,1005.419 791.998,1005.980 791.995 C 1007.506 791.988,1020.981 759.262,1026.979 741.000 C 1040.755 699.051,1047.558 660.675,1049.315 615.000 C 1056.407 430.582,946.813 258.781,775.757 186.169 C 753.478 176.711,738.241 175.405,725.962 181.899 M541.000 271.979 C 531.389 273.500,523.582 277.587,513.425 286.415 L 505.850 293.000 552.925 339.984 L 600.000 386.968 600.000 349.840 C 600.000 307.373,598.190 298.928,586.511 286.903 C 574.795 274.839,557.913 269.303,541.000 271.979 M700.000 443.512 L 700.000 487.024 761.714 548.714 C 831.534 618.506,827.253 616.292,823.897 580.874 C 818.803 527.110,797.899 481.902,760.374 443.499 C 741.674 424.360,708.479 400.000,701.099 400.000 C 700.495 400.000,700.000 419.580,700.000 443.512 " fill="#1D1E23" stroke="none" fill-rule="evenodd"></path></svg>