<svg width="1200" height="1200" viewBox="0 0 1200 1200" fill="none" xmlns="http://www.w3.org/2000/svg"><path d="M736.143 272.220 C 732.371 273.364,725.621 276.866,721.143 280.003 C 716.664 283.140,676.104 322.673,631.009 367.853 L 549.018 450.000 470.865 450.000 C 381.937 450.000,379.559 450.336,364.947 464.947 C 349.842 480.053,350.000 478.625,350.000 600.000 C 350.000 721.375,349.842 719.947,364.947 735.053 C 379.580 749.685,381.830 750.000,471.826 750.000 L 550.940 750.000 637.970 836.851 C 723.392 922.097,725.213 923.763,736.547 927.007 C 748.999 930.570,762.019 929.196,773.871 923.067 C 782.215 918.752,794.950 903.391,797.648 894.386 C 799.403 888.528,800.000 813.719,800.000 599.519 C 800.000 287.667,800.588 304.370,789.086 289.291 C 778.516 275.433,752.846 267.156,736.143 272.220 " fill="#1D1E23" stroke="none" fill-rule="evenodd"></path></svg>