<svg width="1200" height="1200" viewBox="0 0 1200 1200" fill="none" xmlns="http://www.w3.org/2000/svg"><path d="M324.622 575.500 L 50.560 1049.000 325.280 1049.507 C 476.376 1049.786,723.633 1049.786,874.739 1049.507 L 1149.479 1049.000 875.344 575.500 C 724.570 315.075,600.641 102.000,599.947 102.000 C 599.253 102.000,475.357 315.075,324.622 575.500 M650.000 600.000 L 650.000 700.000 600.000 700.000 L 550.000 700.000 550.000 600.000 L 550.000 500.000 600.000 500.000 L 650.000 500.000 650.000 600.000 M650.000 850.000 L 650.000 900.000 600.000 900.000 L 550.000 900.000 550.000 850.000 L 550.000 800.000 600.000 800.000 L 650.000 800.000 650.000 850.000 " fill="#1D1E23" stroke="none" fill-rule="evenodd"></path></svg>