<svg width="1200" height="1200" viewBox="0 0 1200 1200" fill="none" xmlns="http://www.w3.org/2000/svg"><path d="M556.000 152.183 C 535.185 156.218,507.783 173.873,496.196 190.716 C 482.924 210.005,110.108 856.472,106.052 867.228 C 86.225 919.814,117.918 980.377,173.863 996.809 C 183.645 999.682,223.672 1000.000,575.943 1000.000 C 1004.144 1000.000,977.832 1000.714,1000.850 988.469 C 1015.302 980.781,1034.310 960.930,1041.780 945.723 C 1054.347 920.139,1056.267 895.267,1047.679 869.274 C 1045.403 862.384,967.870 726.298,859.666 539.274 C 643.331 165.351,658.809 191.505,646.653 179.338 C 623.392 156.056,589.065 145.773,556.000 152.183 M591.137 452.943 C 604.188 456.836,614.473 465.654,620.820 478.390 L 626.000 488.785 625.980 549.893 C 625.961 609.847,625.872 611.191,621.253 621.111 C 604.482 657.126,554.919 660.067,534.640 626.251 C 526.351 612.429,525.494 603.500,526.361 540.000 C 527.130 483.628,527.918 479.551,540.601 466.329 C 554.579 451.757,571.839 447.185,591.137 452.943 M626.000 800.000 L 626.000 850.000 576.000 850.000 L 526.000 850.000 526.000 800.000 L 526.000 750.000 576.000 750.000 L 626.000 750.000 626.000 800.000 " fill="#1D1E23" stroke="none" fill-rule="evenodd"></path></svg>