<svg width="1200" height="1200" viewBox="0 0 1200 1200" fill="none" xmlns="http://www.w3.org/2000/svg"><path d="M574.529 203.083 C 550.059 209.673,528.722 225.872,514.312 248.799 C 493.577 281.790,134.494 904.609,130.217 915.000 C 123.578 931.131,122.095 958.423,126.950 975.126 C 137.343 1010.876,164.524 1037.936,199.083 1046.938 C 209.446 1049.637,257.009 1050.000,600.000 1050.000 C 1028.466 1050.000,999.615 1050.836,1024.236 1037.713 C 1038.174 1030.284,1057.599 1010.605,1064.567 996.855 C 1077.687 970.964,1079.715 939.128,1069.782 915.000 C 1065.512 904.628,706.526 281.985,685.683 248.799 C 665.923 217.340,634.709 199.799,599.080 200.132 C 591.336 200.204,580.288 201.532,574.529 203.083 M788.862 626.000 L 975.781 949.000 787.891 949.510 C 684.551 949.791,515.447 949.791,412.105 949.510 L 224.209 949.000 411.453 625.450 C 514.438 447.497,599.427 302.147,600.320 302.450 C 601.212 302.752,686.056 448.350,788.862 626.000 M582.171 503.434 C 570.364 507.604,557.459 520.822,553.312 532.991 C 548.411 547.376,548.411 652.624,553.312 667.009 C 559.598 685.455,580.181 700.000,600.000 700.000 C 619.819 700.000,640.402 685.455,646.688 667.009 C 651.589 652.624,651.589 547.376,646.688 532.991 C 638.031 507.585,608.597 494.100,582.171 503.434 M550.000 850.000 L 550.000 900.000 600.000 900.000 L 650.000 900.000 650.000 850.000 L 650.000 800.000 600.000 800.000 L 550.000 800.000 550.000 850.000 " fill="#1D1E23" stroke="none" fill-rule="evenodd"></path></svg>