<svg width="1200" height="1200" viewBox="0 0 1200 1200" fill="none" xmlns="http://www.w3.org/2000/svg"><path d="M324.622 575.500 L 50.560 1049.000 325.280 1049.507 C 476.376 1049.786,723.633 1049.786,874.739 1049.507 L 1149.479 1049.000 875.344 575.500 C 724.570 315.075,600.641 102.000,599.947 102.000 C 599.253 102.000,475.357 315.075,324.622 575.500 M788.868 626.000 L 975.793 949.000 787.897 949.510 C 684.553 949.791,515.444 949.791,412.098 949.510 L 224.196 949.000 411.447 625.450 C 514.435 447.497,599.429 302.147,600.321 302.450 C 601.213 302.752,686.059 448.350,788.868 626.000 M550.000 600.000 L 550.000 700.000 600.000 700.000 L 650.000 700.000 650.000 600.000 L 650.000 500.000 600.000 500.000 L 550.000 500.000 550.000 600.000 M550.000 850.000 L 550.000 900.000 600.000 900.000 L 650.000 900.000 650.000 850.000 L 650.000 800.000 600.000 800.000 L 550.000 800.000 550.000 850.000 " fill="#1D1E23" stroke="none" fill-rule="evenodd"></path></svg>