<svg width="1200" height="1200" viewBox="0 0 1200 1200" fill="none" xmlns="http://www.w3.org/2000/svg"><path d="M399.963 0.500 C 399.943 0.775,389.180 65.328,376.046 143.952 L 352.165 286.904 343.583 293.764 C 328.687 305.669,295.375 340.351,282.306 357.559 C 172.668 501.923,172.668 698.077,282.306 842.441 C 295.375 859.649,328.687 894.331,343.583 906.236 L 352.165 913.096 376.046 1056.048 C 389.180 1134.672,399.943 1199.225,399.963 1199.500 C 399.983 1199.775,489.902 1200.000,599.783 1200.000 L 799.566 1200.000 800.654 1195.500 C 801.252 1193.025,812.183 1128.589,824.946 1052.308 L 848.149 913.616 854.575 908.467 C 866.516 898.897,903.166 861.097,914.942 846.204 C 947.560 804.956,973.738 752.056,986.798 701.000 C 997.056 660.900,998.859 645.797,998.859 600.000 C 998.859 554.203,997.056 539.100,986.798 499.000 C 973.149 445.641,946.903 393.637,911.405 349.615 C 896.914 331.645,870.888 305.180,855.622 292.892 L 848.245 286.953 824.993 147.977 C 812.205 71.539,801.252 6.975,800.654 4.500 L 799.566 -0.000 599.783 -0.000 C 489.902 -0.000,399.983 0.225,399.963 0.500 M631.579 302.113 C 707.388 310.361,772.615 344.138,824.955 402.252 C 855.987 436.707,879.714 482.139,891.097 528.902 C 908.163 599.010,899.123 674.388,866.099 737.330 C 823.018 819.441,750.937 874.010,658.681 894.357 C 630.157 900.648,569.843 900.648,541.319 894.357 C 474.117 879.536,420.785 848.534,374.959 797.653 C 294.880 708.741,277.597 574.259,332.267 465.459 C 388.218 354.110,508.110 288.680,631.579 302.113 " fill="#1D1E23" stroke="none" fill-rule="evenodd"></path></svg>