<svg width="1200" height="1200" viewBox="0 0 1200 1200" fill="none" xmlns="http://www.w3.org/2000/svg"><path d="M250.000 600.000 L 250.000 750.000 288.000 750.000 L 326.000 750.000 326.000 600.000 L 326.000 450.000 288.000 450.000 L 250.000 450.000 250.000 600.000 M457.492 452.171 C 436.489 457.121,417.164 473.200,407.217 494.000 L 401.000 507.000 401.000 544.042 L 401.000 581.084 407.548 594.385 C 415.687 610.918,431.480 625.906,447.507 632.309 C 458.387 636.656,462.066 636.937,516.500 637.588 L 574.000 638.275 574.000 657.137 L 574.000 676.000 500.920 676.000 C 432.132 676.000,427.387 676.232,420.109 679.944 C 405.595 687.349,398.356 702.069,400.897 719.013 C 402.712 731.116,414.831 744.993,426.278 748.075 C 431.279 749.422,462.505 749.962,513.533 749.586 L 593.000 749.000 605.000 743.403 C 620.750 736.057,636.220 720.653,643.357 705.209 C 648.904 693.207,649.000 692.372,649.000 656.000 C 649.000 620.049,648.848 618.676,643.640 607.564 C 632.796 584.428,611.386 567.982,586.889 563.970 C 580.350 562.899,552.725 562.018,525.500 562.012 L 476.000 562.000 476.000 544.114 L 476.000 526.228 548.500 525.614 C 619.455 525.013,621.181 524.903,629.498 520.460 C 657.045 505.745,655.632 466.728,627.083 453.759 C 619.668 450.391,612.635 450.101,542.000 450.245 C 499.650 450.331,461.621 451.198,457.492 452.171 M781.552 452.958 C 768.107 456.659,756.321 464.104,745.368 475.814 C 725.729 496.809,724.000 506.860,724.000 600.000 C 724.000 677.652,725.058 689.980,733.201 707.224 C 739.330 720.203,756.634 736.644,771.495 743.608 L 783.000 749.000 850.000 749.000 L 917.000 749.000 928.505 743.608 C 943.366 736.644,960.670 720.203,966.799 707.224 C 974.942 689.980,976.000 677.652,976.000 600.000 C 976.000 506.860,974.271 496.809,954.632 475.814 C 943.362 463.765,931.913 456.680,917.528 452.850 C 903.184 449.032,795.506 449.117,781.552 452.958 M900.000 601.000 L 900.000 676.000 850.000 676.000 L 800.000 676.000 800.000 601.000 L 800.000 526.000 850.000 526.000 L 900.000 526.000 900.000 601.000 " fill="#1D1E23" stroke="none" fill-rule="evenodd"></path></svg>