<svg width="1200" height="1200" viewBox="0 0 1200 1200" fill="none" xmlns="http://www.w3.org/2000/svg"><path d="M100.097 351.500 C 100.151 352.325,123.396 464.600,151.754 601.000 L 203.313 849.000 263.973 849.000 L 324.634 849.000 355.817 709.508 C 372.968 632.787,387.469 570.012,388.043 570.008 C 388.617 570.003,403.505 632.775,421.128 709.500 L 453.169 849.000 514.084 849.518 L 575.000 850.036 624.812 602.518 C 652.208 466.383,675.030 353.875,675.526 352.500 C 676.234 350.537,664.160 350.000,619.349 350.000 C 566.709 350.000,562.190 350.272,561.250 353.500 C 560.689 355.425,548.460 423.600,534.075 505.000 C 519.689 586.400,507.262 654.567,506.459 656.482 C 505.572 658.599,492.124 600.161,472.169 507.482 C 454.112 423.617,438.941 353.875,438.455 352.500 C 437.781 350.593,426.034 350.000,388.904 350.000 C 362.137 350.000,339.827 350.675,339.327 351.500 C 338.827 352.325,323.285 422.487,304.790 507.415 C 286.295 592.343,270.982 661.643,270.761 661.415 C 270.540 661.187,258.116 593.500,243.154 511.000 C 228.191 428.500,215.439 358.525,214.816 355.500 L 213.682 350.000 156.841 350.000 C 125.578 350.000,100.044 350.675,100.097 351.500 M726.000 599.979 L 726.000 850.229 845.500 849.490 C 960.958 848.776,965.566 848.602,981.726 844.352 C 1003.817 838.541,1025.159 829.867,1042.050 819.832 C 1095.414 788.129,1116.095 708.879,1086.502 649.493 C 1076.323 629.067,1058.937 612.076,1038.277 602.365 L 1022.316 594.863 1033.658 588.942 C 1057.959 576.255,1077.974 549.287,1084.902 519.894 C 1088.918 502.856,1088.885 469.018,1084.838 453.289 C 1071.977 403.307,1033.956 372.538,964.000 355.500 C 948.101 351.628,939.845 351.307,836.500 350.544 L 726.000 349.728 726.000 599.979 M922.136 444.990 C 934.281 446.513,953.475 455.783,961.871 464.178 C 972.492 474.800,976.918 486.517,976.912 504.000 C 976.904 528.108,966.478 542.783,942.664 552.205 C 932.026 556.413,927.194 556.886,887.711 557.576 L 844.422 558.333 843.272 533.666 C 842.640 520.100,841.643 494.398,841.057 476.551 L 839.991 444.102 871.496 443.551 C 904.017 442.982,906.747 443.060,922.136 444.990 M951.136 643.355 C 960.148 648.179,971.837 660.212,977.387 670.381 C 980.278 675.677,981.000 681.597,981.000 700.000 C 981.000 721.537,980.647 723.600,975.453 732.436 C 969.176 743.114,957.511 751.971,943.430 756.751 C 935.671 759.385,924.981 760.000,886.930 760.000 L 840.000 760.000 840.000 698.877 L 840.000 637.754 891.500 638.377 C 939.928 638.963,943.485 639.260,951.136 643.355 " fill="#1D1E23" stroke="none" fill-rule="evenodd"></path></svg>