<svg width="1200" height="1200" viewBox="0 0 1200 1200" fill="none" xmlns="http://www.w3.org/2000/svg"><path d="M142.665 153.693 C 129.503 158.253,119.782 165.689,111.782 177.317 C 99.289 195.475,99.996 173.830,100.047 536.818 L 100.095 869.000 104.766 880.357 C 111.836 897.545,120.307 906.916,135.569 914.430 L 148.913 921.000 327.456 921.542 L 506.000 922.083 506.000 954.042 L 506.000 986.000 444.000 986.000 L 382.000 986.000 382.000 1018.000 L 382.000 1050.000 601.000 1050.000 L 820.000 1050.000 820.000 1018.000 L 820.000 986.000 757.000 986.000 L 694.000 986.000 694.000 954.042 L 694.000 922.083 872.544 921.542 L 1051.087 921.000 1064.550 914.371 C 1080.007 906.761,1089.465 896.008,1095.952 878.669 C 1100.025 867.783,1100.043 866.032,1099.523 532.364 L 1099.000 197.000 1094.105 187.052 C 1087.849 174.340,1074.396 160.886,1062.393 155.340 L 1053.000 151.000 603.000 150.556 C 175.096 150.134,152.493 150.288,142.665 153.693 M1037.506 535.500 L 1037.000 857.000 600.000 857.000 L 163.000 857.000 162.494 535.500 L 161.988 214.000 600.000 214.000 L 1038.012 214.000 1037.506 535.500 M567.063 279.603 C 566.478 280.188,566.000 306.797,566.000 338.733 L 566.000 396.800 518.351 347.943 L 470.703 299.086 459.214 306.043 C 437.930 318.931,435.584 313.776,486.701 366.435 L 531.904 413.000 531.983 516.000 L 532.063 619.000 567.031 654.217 L 602.000 689.434 602.000 664.421 L 602.000 639.408 585.000 621.774 L 568.000 604.139 568.000 519.069 L 568.000 434.000 610.458 434.000 L 652.917 434.000 635.000 416.000 L 617.083 398.000 598.042 397.985 L 579.000 397.969 591.929 391.485 C 642.416 366.162,632.271 290.524,577.002 280.198 C 572.121 279.286,567.648 279.019,567.063 279.603 M407.479 356.500 C 393.814 377.266,391.654 371.901,428.900 409.721 L 462.000 443.330 461.972 469.165 L 461.944 495.000 422.688 454.384 C 401.097 432.046,382.762 414.496,381.943 415.384 C 380.021 417.470,376.000 441.209,376.000 450.469 C 376.000 457.101,380.248 462.062,435.500 519.954 L 495.000 582.297 495.524 505.004 L 496.047 427.711 456.642 386.856 C 434.970 364.385,416.597 346.000,415.813 346.000 C 415.030 346.000,411.280 350.725,407.479 356.500 M602.000 523.078 L 602.000 610.156 619.500 609.578 L 637.000 609.000 638.000 540.454 L 639.000 471.907 655.465 488.460 L 671.930 505.014 672.465 557.007 L 673.000 609.000 690.115 609.572 L 707.230 610.144 709.626 621.746 C 714.321 644.479,730.585 661.158,753.873 667.125 C 764.892 669.948,767.142 669.939,778.500 667.034 C 793.252 663.261,804.520 655.986,812.363 645.173 C 818.048 637.333,824.000 620.933,824.000 613.104 C 824.000 610.455,815.788 600.746,801.469 586.467 L 778.937 564.000 761.469 564.000 L 744.000 564.000 744.000 587.000 L 744.000 610.000 726.000 610.000 L 708.000 610.000 708.000 576.540 L 708.000 543.079 690.542 525.540 L 673.083 508.000 697.542 508.000 C 710.994 508.000,722.000 507.343,722.000 506.540 C 722.000 505.736,714.144 497.186,704.542 487.540 L 687.083 470.000 661.759 470.000 L 636.435 470.000 620.344 453.000 C 611.493 443.650,603.745 436.000,603.126 436.000 C 602.507 436.000,602.000 475.185,602.000 523.078 M376.000 534.689 L 376.000 560.335 481.316 668.667 C 539.240 728.250,590.090 780.587,594.316 784.971 L 602.000 792.941 601.939 766.971 L 601.879 741.000 499.845 636.000 C 443.727 578.250,392.904 526.060,386.906 520.022 L 376.000 509.043 376.000 534.689 " fill="#1D1E23" stroke="none" fill-rule="evenodd"></path></svg>