<svg width="1200" height="1200" viewBox="0 0 1200 1200" fill="none" xmlns="http://www.w3.org/2000/svg"><path d="M578.000 151.120 C 575.250 151.591,566.700 152.998,559.000 154.247 C 540.859 157.188,518.796 164.602,500.000 174.073 C 444.335 202.122,404.358 251.151,387.744 311.746 C 381.790 333.460,380.384 376.811,384.862 400.624 C 399.668 479.371,456.305 542.651,533.603 566.811 C 542.735 569.665,551.018 572.000,552.010 572.000 C 553.001 572.000,555.542 568.091,557.655 563.314 C 564.969 546.780,581.284 536.054,599.000 536.132 C 618.712 536.218,632.643 544.598,641.171 561.500 C 644.085 567.275,647.217 572.000,648.131 572.000 C 649.046 572.000,657.265 569.650,666.397 566.777 C 743.801 542.429,800.346 479.301,815.116 400.745 C 819.616 376.808,818.225 333.516,812.256 311.746 C 790.318 231.734,726.971 172.198,645.277 154.813 C 631.239 151.825,587.797 149.441,578.000 151.120 M634.264 219.483 C 650.131 227.301,664.185 241.633,671.608 257.564 C 676.130 267.268,676.940 271.727,676.959 287.000 C 676.978 303.099,676.308 306.420,670.619 318.450 C 642.296 378.331,557.692 378.302,529.359 318.401 C 523.694 306.425,523.022 303.086,523.041 287.000 C 523.060 271.803,523.879 267.250,528.302 257.760 C 537.260 238.539,551.382 225.177,571.785 216.616 C 581.363 212.597,585.781 211.990,602.054 212.455 C 618.892 212.937,622.639 213.754,634.264 219.483 M646.927 396.045 C 660.087 397.135,676.737 399.474,683.927 401.243 C 701.759 405.629,722.787 416.947,731.057 426.609 L 737.910 434.615 733.455 442.808 C 731.005 447.313,720.450 459.601,710.000 470.114 C 693.551 486.661,688.449 490.458,672.000 498.394 C 643.191 512.292,631.678 514.938,600.000 514.938 C 568.322 514.938,556.809 512.292,528.000 498.394 C 511.551 490.458,506.449 486.661,490.000 470.114 C 479.550 459.601,468.995 447.313,466.545 442.808 L 462.090 434.615 468.943 426.609 C 477.268 416.883,498.268 405.623,516.408 401.159 C 543.005 394.614,601.825 392.309,646.927 396.045 M589.722 569.819 C 585.237 573.446,584.967 575.028,584.343 601.319 L 583.687 629.000 572.782 633.774 C 559.178 639.730,545.496 654.463,541.001 667.997 C 538.944 674.189,537.908 682.937,538.224 691.438 L 538.728 705.000 516.991 717.289 C 505.036 724.048,494.073 731.195,492.627 733.171 C 486.002 742.232,493.429 756.000,504.942 756.000 C 508.164 756.000,519.955 750.801,532.160 744.000 C 544.003 737.400,554.185 732.000,554.788 732.000 C 555.390 732.000,559.734 734.694,564.442 737.988 C 569.149 741.281,579.075 745.460,586.500 747.275 C 599.045 750.341,600.955 750.341,613.500 747.275 C 620.925 745.460,630.851 741.281,635.558 737.988 C 640.266 734.694,644.610 732.000,645.212 732.000 C 645.815 732.000,655.997 737.400,667.840 744.000 C 680.708 751.171,691.774 756.000,695.338 756.000 C 706.647 756.000,713.944 742.158,707.373 733.171 C 705.927 731.195,694.902 724.026,682.873 717.240 L 661.000 704.903 661.679 691.507 C 662.125 682.716,661.217 674.676,659.038 668.115 C 654.502 654.458,640.878 639.755,627.218 633.774 L 616.313 629.000 615.657 601.319 C 615.033 575.028,614.763 573.446,610.278 569.819 C 607.682 567.718,603.056 566.000,600.000 566.000 C 596.944 566.000,592.318 567.718,589.722 569.819 M281.839 626.021 C 173.111 644.423,95.011 739.577,100.592 846.843 C 106.736 964.909,209.093 1055.359,329.834 1049.418 C 426.039 1044.684,506.848 979.418,531.337 886.674 C 535.852 869.576,536.522 863.072,536.455 837.000 C 536.408 818.567,535.296 802.373,533.573 795.000 C 530.466 781.713,530.777 781.852,513.540 786.020 C 501.338 788.970,485.113 784.611,474.891 775.636 C 452.369 755.861,454.109 720.573,478.399 704.499 L 486.577 699.087 468.561 682.043 C 427.290 643.001,376.949 623.713,317.686 624.235 C 303.009 624.365,286.877 625.168,281.839 626.021 M834.306 628.086 C 795.203 636.551,760.022 655.004,731.439 682.043 L 713.423 699.087 721.601 704.499 C 745.891 720.573,747.631 755.861,725.109 775.636 C 714.887 784.611,698.662 788.970,686.460 786.020 C 669.037 781.807,669.309 781.686,666.294 795.000 C 664.678 802.140,663.555 819.150,663.523 837.000 C 663.475 862.984,664.159 869.618,668.633 886.555 C 674.527 908.873,687.516 937.600,700.142 956.245 C 712.626 974.678,738.761 999.978,758.840 1013.067 C 868.418 1084.493,1014.995 1047.907,1075.614 934.000 C 1139.086 814.733,1073.385 668.091,939.786 630.838 C 923.749 626.365,916.025 625.485,887.000 624.819 C 858.340 624.162,850.064 624.675,834.306 628.086 M338.965 687.075 C 360.425 692.665,378.012 706.791,388.671 727.000 C 394.613 738.266,395.000 740.285,395.000 760.000 C 395.000 779.085,394.487 782.003,389.373 792.000 C 381.561 807.270,365.963 822.539,351.209 829.357 C 340.390 834.357,336.722 835.000,319.000 835.000 C 300.681 835.000,297.873 834.466,285.599 828.651 C 261.775 817.365,246.199 797.111,242.188 772.204 C 233.382 717.524,284.210 672.813,338.965 687.075 M901.528 686.850 C 970.720 705.269,979.137 797.983,914.401 828.651 C 902.127 834.466,899.319 835.000,881.000 835.000 C 862.794 835.000,859.834 834.446,848.000 828.827 C 832.277 821.361,817.955 807.360,810.480 792.150 C 805.563 782.145,805.000 778.844,805.000 760.000 C 805.000 740.332,805.399 738.237,811.293 726.967 C 817.847 714.435,832.855 698.764,843.646 693.183 C 860.398 684.520,883.344 682.010,901.528 686.850 M384.344 870.940 C 416.464 875.781,440.035 886.447,451.323 901.245 L 456.421 907.930 451.100 917.010 C 448.173 922.005,440.231 932.021,433.452 939.268 C 376.689 999.947,279.539 1005.432,216.745 951.504 C 201.086 938.056,182.000 914.546,182.000 908.706 C 182.000 903.780,195.771 890.679,207.463 884.481 C 231.026 871.993,254.869 868.451,317.000 868.210 C 349.762 868.083,371.141 868.949,384.344 870.940 M960.000 872.883 C 986.269 878.767,1013.369 894.561,1017.040 906.127 C 1018.867 911.884,1006.154 929.558,987.694 946.924 C 958.893 974.018,921.960 988.362,881.000 988.362 C 840.817 988.362,803.109 973.864,774.987 947.601 C 761.666 935.160,744.000 912.424,744.000 907.719 C 744.000 903.315,763.320 887.151,774.811 881.940 C 785.752 876.980,805.191 872.066,825.000 869.253 C 828.300 868.785,856.650 868.654,888.000 868.963 C 932.483 869.401,948.294 870.262,960.000 872.883 " fill="#1D1E23" stroke="none" fill-rule="evenodd"></path></svg>