<svg width="1200" height="1200" viewBox="0 0 1200 1200" fill="none" xmlns="http://www.w3.org/2000/svg"><path d="M554.273 102.069 C 398.160 117.159,260.373 202.186,175.186 336.000 C 159.234 361.058,136.757 409.284,126.142 441.230 C 91.501 545.477,91.501 654.523,126.142 758.770 C 150.487 832.034,190.954 897.156,246.899 953.101 C 324.364 1030.567,419.809 1078.547,530.000 1095.418 C 561.811 1100.288,637.929 1100.275,668.732 1095.393 C 700.806 1090.310,731.637 1082.978,757.798 1074.213 C 929.348 1016.733,1056.410 871.947,1090.730 694.842 C 1144.765 415.999,954.991 148.178,673.350 105.808 C 642.882 101.224,582.596 99.331,554.273 102.069 M616.240 227.086 C 645.482 273.784,669.282 323.232,686.708 373.500 L 695.895 400.000 600.000 400.000 L 504.105 400.000 513.294 373.500 C 522.237 347.709,538.666 308.601,550.193 285.666 C 565.947 254.323,597.459 203.486,600.505 204.502 C 601.612 204.871,608.692 215.034,616.240 227.086 M460.155 241.691 C 440.822 280.217,416.014 345.369,405.016 386.500 L 401.406 400.000 327.696 400.000 L 253.986 400.000 261.493 387.909 C 298.121 328.913,354.823 276.878,417.000 245.203 C 431.203 237.968,466.899 222.222,469.518 222.037 C 469.803 222.016,465.590 230.861,460.155 241.691 M753.000 231.020 C 829.713 263.575,893.913 317.924,938.505 388.060 L 946.097 400.000 872.345 400.000 L 798.594 400.000 794.984 386.500 C 783.999 345.416,759.179 280.218,739.895 241.790 L 730.064 222.200 737.532 224.912 C 741.639 226.404,748.600 229.152,753.000 231.020 M381.191 507.500 C 373.705 555.851,373.705 644.149,381.191 692.500 L 382.352 700.000 297.524 700.000 L 212.695 700.000 208.385 678.151 C 206.014 666.135,202.989 643.635,201.663 628.151 C 198.865 595.480,201.226 558.130,208.385 521.849 L 212.695 500.000 297.524 500.000 L 382.352 500.000 381.191 507.500 M719.760 520.000 C 723.554 546.122,723.554 653.878,719.760 680.000 L 717.000 699.000 600.000 699.000 L 483.000 699.000 480.285 680.000 C 474.882 642.196,477.121 511.949,483.353 501.484 C 483.850 500.650,536.623 500.200,600.628 500.484 L 717.000 501.000 719.760 520.000 M991.615 521.849 C 993.986 533.865,997.011 556.365,998.337 571.849 C 1001.135 604.520,998.774 641.870,991.615 678.151 L 987.305 700.000 902.476 700.000 L 817.648 700.000 818.809 692.500 C 822.412 669.230,824.409 636.242,824.409 600.000 C 824.409 563.758,822.412 530.770,818.809 507.500 L 817.648 500.000 902.476 500.000 L 987.305 500.000 991.615 521.849 M405.016 813.500 C 416.010 854.619,440.822 919.783,460.142 958.283 L 470.010 977.948 458.505 973.750 C 381.589 945.688,305.854 883.543,261.493 812.091 L 253.986 800.000 327.696 800.000 L 401.406 800.000 405.016 813.500 M686.708 826.500 C 675.315 859.366,657.497 900.088,641.861 929.000 C 625.230 959.750,602.873 995.000,600.000 995.000 C 597.127 995.000,574.770 959.750,558.139 929.000 C 542.503 900.088,524.685 859.366,513.292 826.500 L 504.105 800.000 600.000 800.000 L 695.895 800.000 686.708 826.500 M938.264 812.320 C 906.746 861.891,866.384 902.888,818.000 934.474 C 796.294 948.644,761.587 966.470,741.495 973.768 L 729.990 977.948 739.858 958.283 C 759.178 919.783,783.990 854.619,794.984 813.500 L 798.594 800.000 872.345 800.000 L 946.097 800.000 938.264 812.320 " fill="#1D1E23" stroke="none" fill-rule="evenodd"></path></svg>