<svg width="1200" height="1200" viewBox="0 0 1200 1200" fill="none" xmlns="http://www.w3.org/2000/svg"><path d="M229.020 152.350 C 192.964 159.226,159.965 192.414,152.210 229.598 C 149.085 244.585,149.085 955.415,152.210 970.402 C 160.026 1007.883,192.117 1039.974,229.598 1047.790 C 237.109 1049.356,345.232 1050.000,600.678 1050.000 C 917.768 1050.000,962.594 1049.632,973.080 1046.939 C 1010.836 1037.244,1040.103 1007.261,1047.790 970.402 C 1049.296 963.181,1050.000 909.278,1050.000 801.258 C 1050.000 622.568,1050.641 630.536,1035.007 614.902 C 1019.488 599.382,996.581 596.014,976.574 606.310 C 965.751 611.880,955.148 624.543,952.091 635.551 C 950.749 640.383,950.018 696.927,950.011 796.500 L 950.000 950.000 600.000 950.000 L 250.000 950.000 250.000 600.000 L 250.000 250.000 403.644 250.000 C 576.789 250.000,569.505 250.600,585.053 235.053 C 604.616 215.489,604.616 184.511,585.053 164.947 C 569.442 149.337,577.503 149.972,398.144 150.224 C 306.824 150.352,234.747 151.258,229.020 152.350 M876.000 203.158 C 872.076 204.841,854.718 220.397,836.495 238.562 L 803.989 270.965 865.482 332.483 C 899.304 366.317,927.892 394.000,929.011 394.000 C 933.118 394.000,993.839 331.023,996.924 323.564 C 1004.821 304.474,1001.200 298.447,952.394 249.439 C 902.569 199.407,895.183 194.933,876.000 203.158 M584.492 490.508 L 400.000 675.008 400.000 737.504 L 400.000 800.000 462.504 800.000 L 525.008 800.000 709.508 615.492 L 894.008 430.984 831.496 368.496 L 768.984 306.008 584.492 490.508 " fill="#1D1E23" stroke="none" fill-rule="evenodd"></path></svg>