<svg width="1200" height="1200" viewBox="0 0 1200 1200" fill="none" xmlns="http://www.w3.org/2000/svg"><path d="M442.000 252.171 C 318.364 254.989,236.697 259.967,212.399 266.164 C 181.445 274.059,150.796 296.362,135.608 322.044 C 126.985 336.626,115.363 371.717,111.115 396.000 C 104.534 433.620,101.574 484.426,100.551 577.326 C 98.774 738.790,107.017 820.439,130.059 869.608 C 139.698 890.178,148.721 901.571,164.846 913.535 C 204.172 942.713,241.974 947.074,499.442 952.136 C 683.824 955.761,930.383 948.871,979.986 938.708 C 1019.561 930.599,1050.925 907.979,1066.932 876.000 C 1085.761 838.383,1092.230 803.290,1098.135 706.731 C 1103.313 622.049,1098.163 449.033,1088.885 396.000 C 1084.637 371.717,1073.015 336.626,1064.392 322.044 C 1049.204 296.362,1018.555 274.059,987.601 266.164 C 940.394 254.123,665.561 247.075,442.000 252.171 M633.713 521.982 C 706.381 559.921,765.199 591.557,764.418 592.283 C 762.762 593.825,500.202 730.000,498.886 730.000 C 498.399 730.000,498.000 667.375,498.000 590.833 C 498.000 509.543,498.746 451.944,499.794 452.333 C 500.781 452.700,561.044 484.042,633.713 521.982 " fill="#1D1E23" stroke="none" fill-rule="evenodd"></path></svg>