<svg width="1200" height="1200" viewBox="0 0 1200 1200" fill="none" xmlns="http://www.w3.org/2000/svg"><path d="M976.165 103.123 C 972.406 104.754,960.006 115.264,948.610 126.478 L 927.891 146.867 990.422 209.422 L 1052.954 271.978 1073.496 251.506 C 1096.669 228.411,1101.358 219.940,1099.296 204.895 C 1097.508 191.854,1090.852 183.466,1050.674 143.626 C 1013.639 106.902,1004.087 100.053,990.000 100.122 C 986.150 100.141,979.924 101.491,976.165 103.123 M623.488 451.512 L 349.991 725.015 412.503 787.503 L 475.014 849.991 748.512 576.488 L 1022.009 302.985 959.497 240.497 L 896.986 178.009 623.488 451.512 M100.000 725.000 L 100.000 1100.000 162.000 1100.000 L 224.000 1100.000 224.000 725.000 L 224.000 350.000 162.000 350.000 L 100.000 350.000 100.000 725.000 M288.000 524.484 L 288.000 698.968 335.000 652.000 L 382.000 605.032 382.000 477.516 L 382.000 350.000 335.000 350.000 L 288.000 350.000 288.000 524.484 M444.000 446.476 L 444.000 542.952 475.000 512.000 L 506.000 481.048 506.000 415.524 L 506.000 350.000 475.000 350.000 L 444.000 350.000 444.000 446.476 M568.000 384.476 L 568.000 418.952 599.000 388.000 C 616.050 370.977,630.000 355.463,630.000 353.524 C 630.000 350.310,627.272 350.000,599.000 350.000 L 568.000 350.000 568.000 384.476 M1019.483 393.517 L 976.000 437.033 976.000 768.517 L 976.000 1100.000 1038.000 1100.000 L 1100.000 1100.000 1100.000 725.000 L 1100.000 350.000 1081.483 350.000 L 1062.966 350.000 1019.483 393.517 M880.476 532.523 L 850.000 563.047 850.000 737.523 L 850.000 912.000 881.000 912.000 L 912.000 912.000 912.000 707.000 C 912.000 594.250,911.764 502.000,911.476 502.000 C 911.187 502.000,897.237 515.736,880.476 532.523 M740.484 672.516 L 694.000 719.031 694.000 815.516 L 694.000 912.000 741.000 912.000 L 788.000 912.000 788.000 769.000 C 788.000 690.350,787.768 626.000,787.484 626.000 C 787.200 626.000,766.050 646.932,740.484 672.516 M302.450 772.547 L 288.000 787.094 288.000 849.547 L 288.000 912.000 350.550 912.000 L 413.100 912.000 427.550 897.453 C 435.498 889.452,442.000 882.022,442.000 880.941 C 442.000 878.326,321.555 758.000,318.938 758.000 C 317.817 758.000,310.397 764.546,302.450 772.547 M598.476 814.523 L 568.000 845.047 568.000 878.523 L 568.000 912.000 599.000 912.000 L 630.000 912.000 630.000 848.000 C 630.000 812.800,629.764 784.000,629.476 784.000 C 629.187 784.000,615.237 797.736,598.476 814.523 " fill="#1D1E23" stroke="none" fill-rule="evenodd"></path></svg>