<svg width="1200" height="1200" viewBox="0 0 1200 1200" fill="none" xmlns="http://www.w3.org/2000/svg"><path d="M576.108 302.296 C 469.407 313.438,372.230 374.277,316.661 464.725 L 307.000 480.450 285.000 486.026 C 194.808 508.884,127.143 575.593,105.882 662.613 C 103.680 671.626,101.327 689.850,100.653 703.112 C 94.561 823.068,185.332 927.854,312.000 947.091 C 340.569 951.430,890.339 951.389,917.115 947.046 C 1009.973 931.985,1081.839 863.604,1097.200 775.693 C 1101.211 752.739,1099.986 720.379,1094.220 697.000 C 1077.997 631.212,1027.725 576.014,961.284 551.036 L 949.452 546.588 942.752 526.112 C 927.631 479.895,897.323 432.962,858.925 396.301 C 785.376 326.080,680.899 291.352,576.108 302.296 M793.824 513.157 L 848.648 565.000 818.324 565.552 L 788.000 566.104 788.000 714.052 L 788.000 862.000 725.000 862.000 L 662.000 862.000 662.000 714.052 L 662.000 566.104 631.545 565.552 L 601.090 565.000 662.954 506.493 L 724.818 447.987 731.909 454.650 C 735.809 458.315,763.671 484.643,793.824 513.157 M600.000 744.000 L 600.000 862.000 538.000 862.000 L 476.000 862.000 476.000 744.000 L 476.000 626.000 538.000 626.000 L 600.000 626.000 600.000 744.000 M412.000 803.000 L 412.000 862.000 350.000 862.000 L 288.000 862.000 288.000 803.000 L 288.000 744.000 350.000 744.000 L 412.000 744.000 412.000 803.000 " fill="#1D1E23" stroke="none" fill-rule="evenodd"></path></svg>