<svg width="1200" height="1200" viewBox="0 0 1200 1200" fill="none" xmlns="http://www.w3.org/2000/svg"><path d="M764.329 111.020 C 743.059 116.881,725.117 122.216,724.458 122.876 C 723.798 123.535,722.299 140.033,721.126 159.538 L 718.994 195.000 703.130 210.641 L 687.267 226.281 651.005 228.477 L 614.744 230.672 604.310 269.836 C 598.571 291.376,593.903 309.996,593.938 311.214 C 593.972 312.432,606.755 321.882,622.344 332.214 C 655.407 354.128,655.969 354.617,656.101 361.643 C 656.156 364.589,658.256 373.300,660.766 381.000 L 665.331 395.000 648.816 428.176 L 632.302 461.352 662.149 491.149 L 691.996 520.946 725.033 504.463 L 758.069 487.981 770.120 492.040 C 776.748 494.273,786.128 496.642,790.965 497.305 L 799.759 498.511 820.169 529.255 C 831.395 546.165,841.410 560.000,842.423 560.000 C 845.052 560.000,920.796 539.566,922.000 538.532 C 922.550 538.060,923.927 521.754,925.059 502.296 L 927.119 466.919 943.143 450.744 L 959.166 434.568 994.856 432.344 C 1014.486 431.121,1030.822 429.845,1031.158 429.509 C 1031.495 429.172,1036.359 411.820,1041.968 390.948 C 1047.577 370.077,1052.517 351.964,1052.945 350.698 C 1053.372 349.432,1039.915 339.230,1023.039 328.026 L 992.356 307.656 989.192 294.328 C 987.451 286.998,984.999 277.400,983.742 273.000 C 981.506 265.175,981.809 264.300,997.573 233.000 L 1013.690 201.000 983.520 170.651 L 953.350 140.302 921.355 156.323 C 900.345 166.843,887.925 171.981,885.180 171.288 C 882.881 170.707,873.135 168.197,863.522 165.712 L 846.044 161.192 825.732 130.596 C 814.560 113.768,804.875 100.082,804.210 100.182 C 803.544 100.283,785.598 105.160,764.329 111.020 M860.405 254.511 C 888.764 268.527,905.998 294.292,907.614 325.092 C 909.961 369.802,880.888 406.127,836.089 414.458 C 811.972 418.943,784.515 410.279,765.324 392.130 C 717.388 346.794,735.499 269.647,799.000 248.687 C 803.984 247.042,814.247 246.249,826.224 246.583 C 843.807 247.073,846.726 247.751,860.405 254.511 M207.000 434.804 C 183.808 442.158,168.808 454.761,158.556 475.505 L 151.000 490.794 151.000 719.939 L 151.000 949.085 157.654 962.602 C 166.120 979.798,180.199 993.878,197.395 1002.346 L 210.908 1009.000 311.196 1009.570 L 411.483 1010.140 407.760 994.570 C 405.712 986.006,403.456 973.401,402.748 966.559 L 401.460 954.117 311.874 953.559 C 224.870 953.016,222.126 952.881,216.645 948.858 C 213.540 946.580,209.418 941.630,207.484 937.858 C 204.184 931.422,203.999 917.845,204.484 717.000 C 204.982 510.576,205.134 502.802,208.797 497.398 C 216.930 485.398,205.553 486.000,424.325 486.000 L 624.850 486.000 615.811 476.500 C 600.653 460.567,601.042 462.024,607.901 446.899 C 611.255 439.500,614.000 433.121,614.000 432.723 C 614.000 432.326,524.225 432.060,414.500 432.134 C 259.203 432.238,213.227 432.830,207.000 434.804 M255.285 518.056 C 238.918 522.961,231.035 542.833,239.771 557.160 C 245.781 567.014,255.083 570.251,275.467 569.578 L 293.000 569.000 293.564 544.158 C 293.985 525.627,293.477 518.902,291.564 517.688 C 288.242 515.580,262.683 515.839,255.285 518.056 M322.500 518.441 C 318.209 520.510,318.000 521.711,318.000 544.268 C 318.000 572.490,315.134 570.417,353.000 569.577 L 379.000 569.000 379.565 545.284 C 379.941 529.508,379.357 520.635,377.820 518.784 C 374.965 515.343,329.507 515.062,322.500 518.441 M410.365 518.560 C 408.603 520.683,408.036 528.541,408.435 545.284 L 409.000 569.000 425.000 569.628 C 433.800 569.974,444.309 569.283,448.353 568.092 C 459.021 564.952,466.000 555.796,466.000 544.941 C 466.000 525.320,456.321 517.630,430.043 516.373 C 416.457 515.724,412.339 516.181,410.365 518.560 M905.000 571.164 C 903.900 571.502,892.425 574.641,879.500 578.139 L 856.000 584.499 856.000 762.381 C 856.000 885.978,855.341 941.495,853.839 944.301 C 849.880 951.698,839.966 954.000,812.064 954.000 C 797.729 954.000,786.000 954.355,786.000 954.789 C 786.000 957.964,795.593 985.520,800.589 996.696 L 806.711 1010.392 830.902 1009.696 C 853.712 1009.040,855.885 1008.610,868.981 1002.161 C 884.496 994.520,900.685 979.636,905.179 968.880 C 907.733 962.768,908.129 934.706,908.039 766.526 C 907.982 659.134,907.724 571.106,907.467 570.908 C 907.210 570.710,906.100 570.825,905.000 571.164 M520.832 726.189 C 486.026 750.279,458.953 790.394,442.197 842.703 C 438.788 853.343,436.000 862.487,436.000 863.024 C 436.000 863.561,505.750 864.000,591.000 864.000 L 746.000 864.000 746.000 858.862 C 746.000 839.310,775.754 754.187,791.773 727.910 C 794.089 724.109,795.988 720.325,795.993 719.500 C 795.997 718.675,736.749 718.000,664.332 718.000 L 532.663 718.000 520.832 726.189 M433.245 871.603 C 430.071 876.740,427.599 912.013,428.663 937.000 C 430.821 987.701,443.394 1026.924,470.974 1069.000 C 476.742 1077.800,484.508 1088.404,488.231 1092.564 L 495.000 1100.128 656.363 1099.564 L 817.725 1099.000 809.713 1087.000 C 795.905 1066.322,774.461 1020.128,764.152 988.856 C 751.308 949.892,746.100 924.735,744.618 894.500 L 743.418 870.000 588.827 870.000 C 503.802 870.000,433.790 870.721,433.245 871.603 " fill="#1D1E23" stroke="none" fill-rule="evenodd"></path></svg>