<svg width="1200" height="1200" viewBox="0 0 1200 1200" fill="none" xmlns="http://www.w3.org/2000/svg"><path d="M333.000 102.781 C 319.627 107.038,312.932 111.375,303.444 121.928 C 286.540 140.730,288.000 95.523,288.000 600.000 C 288.000 1104.532,286.535 1059.265,303.469 1078.099 C 308.474 1083.666,317.166 1090.646,322.785 1093.611 L 333.000 1099.000 565.338 1099.533 L 797.676 1100.065 809.276 1095.725 C 824.902 1089.879,839.865 1074.938,845.692 1059.363 L 850.000 1047.850 850.000 600.000 C 850.000 154.599,849.978 152.091,845.933 141.281 C 840.500 126.760,828.447 113.496,814.429 106.612 L 803.000 101.000 572.000 100.617 C 389.593 100.314,339.317 100.770,333.000 102.781 M626.000 136.000 C 628.476 138.476,630.000 142.667,630.000 147.000 C 630.000 151.333,628.476 155.524,626.000 158.000 C 622.155 161.845,619.333 162.000,553.000 162.000 C 486.667 162.000,483.845 161.845,480.000 158.000 C 477.524 155.524,476.000 151.333,476.000 147.000 C 476.000 142.667,477.524 138.476,480.000 136.000 C 483.845 132.155,486.667 132.000,553.000 132.000 C 619.333 132.000,622.155 132.155,626.000 136.000 M818.000 601.000 L 818.000 976.000 569.000 976.000 L 320.000 976.000 320.000 601.000 L 320.000 226.000 569.000 226.000 L 818.000 226.000 818.000 601.000 M546.000 414.141 C 512.596 418.339,477.745 433.168,450.757 454.665 C 422.005 477.568,398.183 513.890,387.574 551.000 C 383.640 564.761,383.000 571.617,383.000 600.000 C 383.000 628.473,383.631 635.195,387.603 649.000 C 410.022 726.930,475.902 780.667,557.039 787.206 C 589.719 789.839,630.579 780.224,661.870 762.536 C 681.230 751.592,707.951 727.428,720.934 709.124 C 732.784 692.416,742.974 671.420,749.348 650.577 C 754.255 634.533,754.724 630.121,754.724 600.000 C 754.724 569.879,754.255 565.467,749.348 549.423 C 738.915 515.307,722.528 488.494,697.746 464.991 C 666.200 435.073,633.082 419.520,589.204 414.019 C 571.200 411.761,564.792 411.779,546.000 414.141 M599.000 462.991 C 619.368 467.241,646.531 481.351,662.484 495.970 C 720.977 549.568,724.555 638.538,670.540 696.285 C 628.206 741.543,561.050 752.948,504.000 724.567 C 492.615 718.903,484.647 712.754,470.936 699.052 C 451.036 679.164,441.745 663.919,433.728 638.000 C 427.141 616.702,427.141 583.298,433.728 562.000 C 449.322 511.583,489.528 473.692,538.810 462.970 C 555.177 459.409,581.879 459.418,599.000 462.991 M550.217 508.163 C 535.123 511.127,516.511 521.229,503.793 533.360 C 465.461 569.923,465.834 631.064,504.610 667.337 C 534.405 695.209,572.589 701.401,608.991 684.264 C 667.497 656.721,680.457 577.157,633.691 532.629 C 612.013 511.988,579.405 502.431,550.217 508.163 M594.327 561.094 C 599.045 564.410,605.587 571.461,608.864 576.762 C 613.927 584.951,614.824 588.420,614.824 599.822 C 614.824 610.829,613.842 614.918,609.367 622.554 C 600.059 638.437,586.679 646.283,568.898 646.285 C 554.947 646.286,543.314 641.106,534.319 630.888 C 518.160 612.530,517.917 588.163,533.710 569.713 C 543.977 557.718,553.796 553.745,571.374 554.471 C 583.590 554.976,587.036 555.970,594.327 561.094 M434.771 1008.259 C 441.847 1011.484,445.161 1020.368,442.071 1027.828 C 438.557 1036.312,431.204 1038.501,408.932 1037.697 C 391.511 1037.068,389.272 1036.542,385.821 1032.278 C 380.501 1025.704,380.950 1016.868,386.909 1010.909 C 391.432 1006.386,393.312 1006.000,410.815 1006.000 C 421.263 1006.000,432.043 1007.017,434.771 1008.259 M596.181 1011.722 C 601.140 1017.853,601.042 1026.127,595.945 1031.599 C 590.428 1037.521,585.177 1038.520,563.884 1037.701 C 547.575 1037.074,545.239 1036.500,541.822 1032.278 C 536.436 1025.625,536.949 1016.869,543.084 1010.734 C 548.013 1005.806,548.842 1005.671,570.264 1006.325 C 590.660 1006.948,592.655 1007.363,596.181 1011.722 M751.091 1010.909 C 757.050 1016.869,757.499 1025.705,752.177 1032.278 C 748.554 1036.753,747.130 1037.000,725.000 1037.000 C 702.870 1037.000,701.446 1036.753,697.823 1032.278 C 692.501 1025.705,692.950 1016.869,698.909 1010.909 C 703.503 1006.315,705.177 1006.000,725.000 1006.000 C 744.823 1006.000,746.497 1006.315,751.091 1010.909 " fill="#1D1E23" stroke="none" fill-rule="evenodd"></path></svg>