<svg width="1200" height="1200" viewBox="0 0 1200 1200" fill="none" xmlns="http://www.w3.org/2000/svg"><path d="M570.000 251.194 C 501.886 259.327,461.224 276.845,425.775 313.330 C 389.020 351.158,367.242 401.256,355.566 474.832 C 351.864 498.160,351.315 512.287,350.504 605.000 C 349.404 730.760,351.684 766.216,363.944 814.000 C 387.333 905.164,434.889 962.128,507.368 985.797 C 534.956 994.807,555.724 998.224,590.000 999.392 C 656.373 1001.655,710.322 987.163,751.755 955.943 C 802.446 917.746,832.740 855.209,846.188 761.000 C 849.473 737.990,850.978 544.170,848.129 511.051 C 834.919 357.488,773.845 275.649,657.000 254.941 C 639.623 251.861,584.351 249.481,570.000 251.194 M628.965 351.028 C 649.539 355.386,663.201 362.852,678.017 377.836 C 693.628 393.622,703.643 412.607,710.812 440.000 C 720.621 477.475,721.000 484.329,721.000 624.000 C 721.000 740.412,720.599 757.530,717.399 777.715 C 703.965 862.471,666.943 902.137,601.145 902.272 C 560.541 902.356,530.853 887.917,511.469 858.658 C 499.888 841.177,493.132 824.928,487.117 800.090 C 478.532 764.634,477.626 744.306,478.551 608.000 C 479.472 472.368,479.717 468.717,490.309 433.000 C 503.621 388.111,531.500 359.470,570.000 351.133 C 587.178 347.413,611.695 347.369,628.965 351.028 M100.000 625.492 L 100.000 812.984 194.000 719.000 L 288.000 625.016 194.508 531.508 C 143.087 480.079,100.787 438.000,100.508 438.000 C 100.229 438.000,100.000 522.371,100.000 625.492 M1005.492 531.508 L 912.000 625.016 1006.000 719.000 L 1100.000 812.984 1100.000 625.492 C 1100.000 522.371,1099.771 438.000,1099.492 438.000 C 1099.213 438.000,1056.913 480.079,1005.492 531.508 " fill="#1D1E23" stroke="none" fill-rule="evenodd"></path></svg>