<svg width="1200" height="1200" viewBox="0 0 1200 1200" fill="none" xmlns="http://www.w3.org/2000/svg"><path d="M150.000 300.487 L 150.000 450.974 207.512 393.488 L 265.023 336.002 336.996 407.996 L 408.969 479.990 444.490 444.511 L 480.011 409.031 408.008 337.008 L 336.006 264.986 393.499 207.493 L 450.991 150.000 300.496 150.000 L 150.000 150.000 150.000 300.487 M808.001 207.001 L 864.976 264.003 792.997 336.003 L 721.017 408.003 756.507 443.493 L 791.997 478.983 863.997 407.003 L 935.997 335.024 992.999 391.999 L 1050.000 448.974 1050.000 299.487 L 1050.000 150.000 900.513 150.000 L 751.026 150.000 808.001 207.001 M336.001 792.999 L 265.023 863.998 207.512 806.512 L 150.000 749.026 150.000 899.513 L 150.000 1050.000 300.487 1050.000 L 450.974 1050.000 393.488 992.488 L 336.002 934.977 407.996 863.004 L 479.990 791.031 445.516 756.516 C 426.556 737.532,410.128 722.000,409.011 722.000 C 407.893 722.000,375.039 753.950,336.001 792.999 M755.994 757.006 L 721.032 792.011 793.004 864.004 L 864.976 935.997 808.001 992.999 L 751.026 1050.000 900.513 1050.000 L 1050.000 1050.000 1050.000 900.513 L 1050.000 751.026 992.999 808.001 L 935.997 864.976 864.488 793.488 C 825.158 754.170,792.524 722.000,791.968 722.000 C 791.412 722.000,775.224 737.752,755.994 757.006 " fill="#1D1E23" stroke="none" fill-rule="evenodd"></path></svg>