<svg width="1200" height="1200" viewBox="0 0 1200 1200" fill="none" xmlns="http://www.w3.org/2000/svg"><path d="M179.255 148.936 C 168.443 152.791,157.888 161.791,152.000 172.179 C 145.575 183.514,144.940 206.929,150.758 218.000 C 152.781 221.850,182.444 253.125,216.676 287.500 L 278.915 350.000 235.814 350.000 C 185.683 350.000,178.347 351.547,164.947 364.947 C 145.384 384.511,145.384 415.489,164.947 435.053 C 180.053 450.158,178.625 450.000,300.000 450.000 C 421.375 450.000,419.947 450.158,435.053 435.053 C 450.158 419.947,450.000 421.375,450.000 300.000 C 450.000 178.625,450.158 180.053,435.053 164.947 C 415.489 145.384,384.511 145.384,364.947 164.947 C 351.549 178.346,350.000 185.686,350.000 235.786 L 350.000 278.859 286.500 215.706 C 230.395 159.909,221.852 152.172,213.144 149.277 C 201.271 145.330,189.699 145.213,179.255 148.936 M986.000 149.419 C 978.483 152.011,966.537 162.930,913.500 215.691 L 850.000 278.859 850.000 235.786 C 850.000 185.686,848.451 178.346,835.053 164.947 C 815.489 145.384,784.511 145.384,764.947 164.947 C 749.842 180.053,750.000 178.625,750.000 300.000 C 750.000 421.375,749.842 419.947,764.947 435.053 C 780.053 450.158,778.625 450.000,900.000 450.000 C 1021.375 450.000,1019.947 450.158,1035.053 435.053 C 1054.616 415.489,1054.616 384.511,1035.053 364.947 C 1021.654 351.549,1014.314 350.000,964.214 350.000 L 921.141 350.000 984.314 286.500 C 1042.610 227.902,1047.757 222.168,1050.995 212.226 C 1064.233 171.574,1026.763 135.364,986.000 149.419 M182.171 753.434 C 164.528 759.666,150.000 780.694,150.000 800.000 C 150.000 819.819,164.545 840.402,182.991 846.688 C 190.857 849.368,200.942 850.000,235.814 850.000 L 278.915 850.000 216.676 912.500 C 182.444 946.875,152.912 978.026,151.050 981.725 C 139.606 1004.456,148.793 1034.069,171.416 1047.366 C 179.652 1052.207,183.110 1052.994,196.000 1052.960 C 206.630 1052.932,213.039 1051.849,218.000 1049.242 C 221.850 1047.219,253.125 1017.556,287.500 983.324 L 350.000 921.085 350.000 964.186 C 350.000 1014.317,351.547 1021.653,364.947 1035.053 C 384.511 1054.616,415.489 1054.616,435.053 1035.053 C 450.158 1019.947,450.000 1021.375,450.000 900.000 C 450.000 778.625,450.158 780.053,435.053 764.947 C 419.910 749.805,421.514 749.979,299.144 750.158 C 206.580 750.293,189.728 750.765,182.171 753.434 M782.171 753.434 C 777.315 755.149,769.581 760.314,764.983 764.911 C 749.836 780.058,750.000 778.583,750.000 900.000 C 750.000 1021.375,749.842 1019.947,764.947 1035.053 C 784.511 1054.616,815.489 1054.616,835.053 1035.053 C 848.453 1021.653,850.000 1014.317,850.000 964.186 L 850.000 921.085 912.500 983.324 C 946.875 1017.556,978.150 1047.219,982.000 1049.242 C 986.961 1051.849,993.370 1052.932,1004.000 1052.960 C 1016.890 1052.994,1020.348 1052.207,1028.584 1047.366 C 1039.700 1040.833,1049.068 1028.876,1052.226 1017.192 C 1054.964 1007.062,1053.449 990.662,1048.950 981.725 C 1047.088 978.026,1017.556 946.875,983.324 912.500 L 921.085 850.000 964.186 850.000 C 999.058 850.000,1009.143 849.368,1017.009 846.688 C 1035.455 840.402,1050.000 819.819,1050.000 800.000 C 1050.000 787.920,1044.033 773.928,1035.053 764.947 C 1019.910 749.805,1021.514 749.979,899.144 750.158 C 806.580 750.293,789.728 750.765,782.171 753.434 " fill="#1D1E23" stroke="none" fill-rule="evenodd"></path></svg>