<svg width="1200" height="1200" viewBox="0 0 1200 1200" fill="none" xmlns="http://www.w3.org/2000/svg"><path d="M161.894 154.513 C 158.134 157.047,153.922 161.343,152.533 164.060 C 150.567 167.904,150.117 194.648,150.504 284.655 L 151.000 400.309 158.471 407.155 C 164.550 412.725,167.540 414.000,174.526 414.000 C 179.247 414.000,185.335 412.527,188.055 410.726 C 190.775 408.925,209.207 391.377,229.017 371.729 L 265.033 336.006 321.017 392.210 C 383.182 454.619,387.681 457.980,409.000 457.937 C 423.623 457.907,434.262 453.340,444.402 442.738 C 454.091 432.610,458.004 422.760,457.980 408.564 C 457.945 387.716,454.301 382.865,392.210 321.017 L 336.006 265.033 371.729 229.017 C 391.377 209.207,408.925 190.775,410.726 188.055 C 412.527 185.335,414.000 179.247,414.000 174.526 C 414.000 167.540,412.725 164.550,407.155 158.471 L 400.309 151.000 284.520 150.453 L 168.730 149.907 161.894 154.513 M800.837 151.938 C 792.475 155.320,786.000 165.621,786.000 175.539 L 786.000 184.772 825.461 224.413 L 864.921 264.053 807.544 321.527 C 744.597 384.579,742.088 387.933,742.088 409.000 C 742.088 423.622,746.640 434.242,757.262 444.402 C 767.402 454.102,777.255 458.010,791.436 457.956 C 812.031 457.878,815.729 455.095,878.473 392.456 L 935.947 335.079 975.587 374.539 L 1015.228 414.000 1024.643 414.000 C 1032.575 414.000,1035.236 412.921,1041.529 407.155 L 1049.000 400.309 1049.496 284.655 C 1049.883 194.648,1049.433 167.904,1047.467 164.060 C 1046.078 161.343,1041.897 157.068,1038.175 154.560 L 1031.408 150.000 918.204 150.127 C 855.942 150.196,803.127 151.011,800.837 151.938 M388.000 746.152 C 381.440 749.115,363.538 765.638,321.966 807.097 L 264.932 863.978 231.966 830.780 C 191.582 790.113,186.319 786.000,174.671 786.000 C 167.520 786.000,164.590 787.238,158.471 792.846 L 151.000 799.693 151.000 917.808 L 151.000 1035.923 157.538 1042.462 L 164.077 1049.000 282.192 1049.000 L 400.307 1049.000 407.154 1041.529 C 412.725 1035.450,414.000 1032.460,414.000 1025.474 C 414.000 1020.753,412.527 1014.665,410.726 1011.945 C 408.925 1009.225,391.377 990.793,371.729 970.983 L 336.006 934.967 392.210 878.983 C 454.619 816.818,457.980 812.319,457.937 791.000 C 457.922 783.677,456.482 775.852,454.243 770.923 C 449.678 760.874,433.877 746.710,424.245 744.035 C 412.733 740.837,397.843 741.707,388.000 746.152 M774.807 744.158 C 766.024 746.707,750.087 761.390,745.757 770.923 C 740.749 781.948,740.915 800.387,746.127 812.000 C 749.090 818.600,765.465 836.324,807.544 878.473 L 864.921 935.947 825.461 975.587 L 786.000 1015.228 786.000 1024.643 C 786.000 1032.575,787.079 1035.236,792.845 1041.529 L 799.691 1049.000 915.345 1049.496 C 1005.352 1049.883,1032.096 1049.433,1035.940 1047.467 C 1038.657 1046.078,1042.953 1041.866,1045.487 1038.106 L 1050.093 1031.270 1049.547 915.480 L 1049.000 799.691 1041.529 792.845 C 1035.236 787.079,1032.575 786.000,1024.643 786.000 L 1015.228 786.000 975.604 825.444 L 935.980 864.888 878.490 807.553 C 836.557 765.733,818.565 749.117,812.000 746.152 C 802.416 741.824,785.900 740.939,774.807 744.158 " fill="#1D1E23" stroke="none" fill-rule="evenodd"></path></svg>