<svg width="1200" height="1200" viewBox="0 0 1200 1200" fill="none" xmlns="http://www.w3.org/2000/svg"><path d="M437.000 152.142 C 369.243 160.199,302.751 191.325,253.279 238.146 C 189.282 298.712,154.216 375.148,150.583 462.000 C 143.909 621.539,253.162 760.389,412.000 794.235 C 440.687 800.348,500.967 800.872,531.000 795.269 C 571.390 787.735,616.953 769.914,649.680 748.851 L 664.360 739.402 791.680 866.620 C 930.950 1005.777,927.005 1002.400,950.311 1002.400 C 979.342 1002.400,1002.400 979.204,1002.400 950.000 C 1002.400 927.057,1005.507 930.680,866.620 791.680 L 739.402 664.360 748.855 649.680 C 769.027 618.351,786.436 574.803,794.180 536.302 C 799.356 510.565,801.255 464.247,798.174 438.845 C 791.904 387.139,775.748 342.005,748.476 300.000 C 698.511 223.043,619.753 170.506,531.000 154.928 C 508.948 151.057,458.657 149.567,437.000 152.142 M521.000 254.989 C 648.782 281.704,727.105 412.215,690.716 537.787 C 676.846 585.650,645.656 629.833,606.000 657.793 C 464.195 757.774,269.701 669.743,251.510 497.343 C 241.797 405.285,291.655 315.161,375.526 273.176 C 391.508 265.175,420.122 256.145,439.571 252.966 C 461.154 249.437,498.933 250.376,521.000 254.989 M361.825 454.560 C 352.752 460.674,349.650 467.138,350.699 477.743 C 351.334 484.169,353.222 488.145,357.819 492.743 L 364.075 499.000 472.537 499.498 C 591.077 500.042,587.202 500.399,595.440 488.175 C 603.470 476.259,600.588 462.925,588.175 454.560 L 581.408 450.000 475.000 450.000 L 368.592 450.000 361.825 454.560 " fill="#1D1E23" stroke="none" fill-rule="evenodd"></path></svg>