<svg viewBox="0 0 24 24" fill="none" xmlns="http://www.w3.org/2000/svg"><g><path d="M13.9998 8H15.9998V10C15.9998 10.55 16.4498 11 16.9998 11C17.5498 11 17.9998 10.55 17.9998 10V8H19.9998C20.5498 8 20.9998 7.55 20.9998 7C20.9998 6.45 20.5498 6 19.9998 6H17.9998V4C17.9998 3.45 17.5498 3 16.9998 3C16.4498 3 15.9998 3.45 15.9998 4V6H13.9998C13.4498 6 12.9998 6.45 12.9998 7C12.9998 7.55 13.4498 8 13.9998 8ZM19.2098 15.27L16.6698 14.98C16.0598 14.91 15.4598 15.12 15.0298 15.55L13.1898 17.39C10.3598 15.95 8.03979 13.64 6.59979 10.8L8.44979 8.95C8.87979 8.52 9.08979 7.91 9.01979 7.31L8.72979 4.79C8.61979 3.78 7.75979 3.01 6.74979 3.01H5.01979C3.88979 3.01 2.94979 3.95 3.01979 5.08C3.54979 13.62 10.3798 20.44 18.9098 20.97C20.0398 21.04 20.9798 20.1 20.9798 18.97V17.24C20.9898 16.24 20.2198 15.38 19.2098 15.27Z" fill="#1D1E23"/></g></svg>