<svg viewBox="0 0 24 24" fill="none" xmlns="http://www.w3.org/2000/svg"><g><path fill-rule="evenodd" clip-rule="evenodd" d="M10 12C12.2091 12 14 10.2091 14 8C14 5.79086 12.2091 4 10 4C7.79086 4 6 5.79086 6 8C6 10.2091 7.79086 12 10 12ZM10.35 14.01C7.62 13.91 2 15.27 2 18V20H11.54C9.07 17.24 10.31 14.11 10.35 14.01ZM20 16C20 16.74 19.79 17.43 19.43 18.02L22 20.59L20.59 22L18.02 19.43C17.43 19.78 16.74 20 16 20C13.79 20 12 18.21 12 16C12 13.79 13.79 12 16 12C18.21 12 20 13.79 20 16ZM14 16C14 17.1 14.9 18 16 18C17.1 18 18 17.1 18 16C18 14.9 17.1 14 16 14C14.9 14 14 14.9 14 16Z" fill="#1D1E23"/></g></svg>