<svg viewBox="0 0 24 24" fill="none" xmlns="http://www.w3.org/2000/svg"><g><path fill-rule="evenodd" clip-rule="evenodd" d="M4 11.6301C4 10.7801 4.75 10.0901 5.59 10.2301C9.79 10.9001 13.1 14.2101 13.78 18.4101C13.91 19.2501 13.22 20.0001 12.37 20.0001C11.66 20.0001 11.09 19.4701 10.97 18.7701C10.45 15.8501 8.15 13.5401 5.23 13.0301C4.53 12.9101 4 12.3401 4 11.6301ZM4 5.93009C4 5.10009 4.73 4.43009 5.56 4.52009C12.91 5.25009 18.75 11.1001 19.48 18.4401C19.56 19.2701 18.9 20.0001 18.06 20.0001C17.33 20.0001 16.73 19.4501 16.66 18.7201C16.06 12.7101 11.28 7.93009 5.27 7.33009C4.55 7.26009 4 6.66009 4 5.93009ZM8.36 17.8201C8.36 19.0241 7.38398 20.0001 6.18 20.0001C4.97602 20.0001 4 19.0241 4 17.8201C4 16.6161 4.97602 15.6401 6.18 15.6401C7.38398 15.6401 8.36 16.6161 8.36 17.8201Z" fill="#1D1E23"/></g></svg>