<svg viewBox="0 0 24 24" fill="none" xmlns="http://www.w3.org/2000/svg"><path fill-rule="evenodd" clip-rule="evenodd" d="M2 2H5V11H2V2ZM2 13V12H8V13H2ZM10 12H9V13H10V12ZM10.0062 22H2.00625V14H10.0062V22ZM9.00625 15H3.00625V21H9.00625V15ZM5 17H7V19H5V17ZM18 16H17V17H16V19H14V20H12V18H15V16H16V15H15L15.0238 13.0437L17 13V15H19V16H20V17H19V18H17V17H18V16ZM19 14V15H20V16H21V15H20V14H19ZM19 14H18V13H17V12H13V13H12V12H11V14H13V17H12V16H11V17H12V18H11V22H16V21H14V20H16V19H17V22H19V21H20V20H21V22H22V20V19H21V18H20V17H22V12H21V13H20V12H19V14ZM20 20V19H19V20H20ZM8 2H6V11H8V2ZM11 2H13V11H11V2ZM10 2H9V11H10V2ZM14 2H16.0475V11H14V2ZM18 2H17V11H18V2ZM19 2H22V11H19V2Z" fill="#1D1E23"/></svg>