<svg viewBox="0 0 24 24" fill="none" xmlns="http://www.w3.org/2000/svg"><path fill-rule="evenodd" clip-rule="evenodd" d="M21.7071 5.29289C21.5196 5.10536 21.2652 5 21 5H3C2.73478 5 2.48043 5.10536 2.29289 5.29289C2.10536 5.48043 2 5.73478 2 6V18C2 18.2652 2.10536 18.5196 2.29289 18.7071C2.48043 18.8946 2.73478 19 3 19H21C21.2652 19 21.5196 18.8946 21.7071 18.7071C21.8946 18.5196 22 18.2652 22 18V6C22 5.73478 21.8946 5.48043 21.7071 5.29289ZM3 4H21C21.5304 4 22.0391 4.21071 22.4142 4.58579C22.7893 4.96086 23 5.46957 23 6V18C23 18.5304 22.7893 19.0391 22.4142 19.4142C22.0391 19.7893 21.5304 20 21 20H3C2.46957 20 1.96086 19.7893 1.58579 19.4142C1.21071 19.0391 1 18.5304 1 18V6C1 5.46957 1.21071 4.96086 1.58579 4.58579C1.96086 4.21071 2.46957 4 3 4ZM5 10.0112H7C7.55228 10.0112 8 10.459 8 11.0112V13C8 13.5523 7.55228 14 7 14H5C4.44772 14 4 13.5523 4 13V11.0112C4 10.459 4.44772 10.0112 5 10.0112Z" fill="#1D1E23"/></svg>