<svg viewBox="0 0 24 24" fill="none" xmlns="http://www.w3.org/2000/svg"><path fill-rule="evenodd" clip-rule="evenodd" d="M2 2H22.0012V17.0009H20.0011V16.0009H21.0012V3.00006H3.00006V16.0009H11.0006V17.0009H2V2ZM18.001 6.00024H6.00024V7.00031H18.001V6.00024ZM19.0011 8.00049H5.00018V9.00055H19.0011V8.00049ZM19.001 15.5007L18.036 14.8207L18.5323 13.7506L17.3572 13.6443L17.2509 12.4693L16.1809 12.9655L15.5008 12.0005L14.8208 12.9655L13.7507 12.4693L13.6445 13.6443L12.4694 13.7506L12.9657 14.8207L12.0006 15.5007L12.9657 16.1807L12.4694 17.2508L13.6445 17.3571L13.7507 18.5321L14.8208 18.0359L15.5008 19.0009L16.1809 18.0359L17.2509 18.5321L17.3572 17.3571L18.5323 17.2508L18.036 16.1807L19.001 15.5007ZM14.7508 19.3062L15.5008 20.3712L16.2509 19.3062L16.9984 19.6537V22.0001L15.5008 21.5013L14.0032 22.0001V19.6537L14.7508 19.3062Z" fill="#1D1E23"/></svg>