<svg viewBox="0 0 24 24" fill="none" xmlns="http://www.w3.org/2000/svg"><path fill-rule="evenodd" clip-rule="evenodd" d="M21.3773 3.87196H20.6742C20.535 3.33567 20.2216 2.86081 19.7832 2.52198C19.3448 2.18315 18.8063 1.99954 18.2522 2C17.6981 1.99954 17.1596 2.18315 16.7212 2.52198C16.2829 2.86081 15.9694 3.33567 15.8302 3.87196H14.4224C14.2832 3.33567 13.9697 2.86081 13.5314 2.52198C13.093 2.18315 12.5545 1.99954 12.0004 2C11.4463 1.99954 10.9078 2.18315 10.4694 2.52198C10.031 2.86081 9.71763 3.33567 9.57842 3.87196H8.17212C8.03291 3.33567 7.7195 2.86081 7.28111 2.52198C6.84273 2.18315 6.30421 1.99954 5.75015 2C5.19608 1.99954 4.65757 2.18315 4.21918 2.52198C3.7808 2.86081 3.46739 3.33567 3.32818 3.87196H2.62502C2.45926 3.87196 2.30028 3.93781 2.18306 4.05502C2.06585 4.17224 2 4.33121 2 4.49698C2 4.66275 2.06585 4.82173 2.18306 4.93894C2.30028 5.05615 2.45926 5.122 2.62502 5.122H3.32818C3.46621 5.65946 3.77911 6.13571 4.2176 6.47575C4.6561 6.81579 5.19526 7.0003 5.75015 7.0002C6.22793 7.00071 6.69578 6.86375 7.09786 6.60566L7.4674 7.04864C7.49674 7.08386 7.53348 7.1122 7.57499 7.13165C7.61651 7.15109 7.6618 7.16116 7.70765 7.16115C7.78058 7.16109 7.8512 7.13552 7.90726 7.08887C7.93874 7.06253 7.96472 7.03026 7.98371 6.99387C8.00271 6.95749 8.01435 6.91773 8.01798 6.87684C8.02161 6.83596 8.01715 6.79477 8.00486 6.75561C7.99256 6.71645 7.97267 6.68009 7.94633 6.64862L7.57678 6.20525C7.86234 5.89956 8.06663 5.52711 8.17095 5.122H9.57725C9.71528 5.65946 10.0282 6.13571 10.4667 6.47575C10.9052 6.81579 11.4443 7.0003 11.9992 7.0002C12.5541 7.0003 13.0933 6.81579 13.5318 6.47575C13.9703 6.13571 14.2832 5.65946 14.4212 5.122H15.8275C15.9655 5.65946 16.2784 6.13571 16.7169 6.47575C17.1554 6.81579 17.6946 7.0003 18.2495 7.0002C18.8044 7.0003 19.3435 6.81579 19.782 6.47575C20.2205 6.13571 20.5334 5.65946 20.6714 5.122H21.3746C21.5404 5.122 21.6993 5.05615 21.8165 4.93894C21.9338 4.82173 21.9996 4.66275 21.9996 4.49698C21.9996 4.33169 21.9341 4.17312 21.8175 4.05598C21.7009 3.93885 21.5426 3.87268 21.3773 3.87196ZM4.50166 4.5001C4.50166 4.16857 4.63336 3.85062 4.86779 3.61619C5.10222 3.38176 5.42018 3.25005 5.75171 3.25005C6.08325 3.25005 6.4012 3.38176 6.63563 3.61619C6.87006 3.85062 7.00176 4.16857 7.00176 4.5001C7.00176 4.83163 6.87006 5.14959 6.63563 5.38402C6.4012 5.61845 6.08325 5.75015 5.75171 5.75015C5.42018 5.75015 5.10222 5.61845 4.86779 5.38402C4.63336 5.14959 4.50166 4.83163 4.50166 4.5001ZM12.002 5.75015C11.6704 5.75015 11.3525 5.61845 11.118 5.38402C10.8836 5.14959 10.7519 4.83163 10.7519 4.5001C10.7519 4.16857 10.8836 3.85062 11.118 3.61619C11.3525 3.38176 11.6704 3.25005 12.002 3.25005C12.3335 3.25005 12.6514 3.38176 12.8859 3.61619C13.1203 3.85062 13.252 4.16857 13.252 4.5001C13.252 4.83163 13.1203 5.14959 12.8859 5.38402C12.6514 5.61845 12.3335 5.75015 12.002 5.75015ZM18.2522 5.75015C17.9207 5.75015 17.6027 5.61845 17.3683 5.38402C17.1339 5.14959 17.0022 4.83163 17.0022 4.5001C17.0022 4.16857 17.1339 3.85062 17.3683 3.61619C17.6027 3.38176 17.9207 3.25005 18.2522 3.25005C18.5837 3.25005 18.9017 3.38176 19.1361 3.61619C19.3706 3.85062 19.5023 4.16857 19.5023 4.5001C19.5023 4.83163 19.3706 5.14959 19.1361 5.38402C18.9017 5.61845 18.5837 5.75015 18.2522 5.75015ZM21.3773 11.3723H20.6742C20.535 10.836 20.2216 10.3612 19.7832 10.0223C19.3448 9.68352 18.8063 9.49991 18.2522 9.50037C17.6981 9.49991 17.1596 9.68352 16.7212 10.0223C16.2829 10.3612 15.9694 10.836 15.8302 11.3723H14.4224C14.2832 10.836 13.9697 10.3612 13.5314 10.0223C13.093 9.68352 12.5545 9.49991 12.0004 9.50037C11.5226 9.49961 11.0547 9.6366 10.6527 9.89492L10.2831 9.45154C10.2568 9.42006 10.2245 9.3941 10.1881 9.3751C10.1518 9.3561 10.112 9.34445 10.0711 9.34082C10.0302 9.33719 9.98903 9.34166 9.94987 9.35395C9.91071 9.36625 9.87436 9.38613 9.84289 9.41247C9.77944 9.46566 9.73969 9.54186 9.73236 9.62433C9.72504 9.7068 9.75074 9.7888 9.80382 9.85234L10.1734 10.2957C9.8891 10.5998 9.68539 10.9702 9.58077 11.3731H8.17212C8.03291 10.8368 7.7195 10.362 7.28111 10.0231C6.84273 9.6843 6.30421 9.50069 5.75015 9.50115C5.19608 9.50069 4.65757 9.6843 4.21918 10.0231C3.7808 10.362 3.46739 10.8368 3.32818 11.3731H2.62502C2.45926 11.3731 2.30028 11.439 2.18306 11.5562C2.06585 11.6734 2 11.8324 2 11.9981C2 12.1639 2.06585 12.3229 2.18306 12.4401C2.30028 12.5573 2.45926 12.6232 2.62502 12.6232H3.32818C3.46621 13.1606 3.77911 13.6369 4.2176 13.9769C4.6561 14.3169 5.19526 14.5014 5.75015 14.5013C6.30504 14.5014 6.8442 14.3169 7.28269 13.9769C7.72118 13.6369 8.03409 13.1606 8.17212 12.6232H9.57842C9.68269 13.0284 9.88714 13.4009 10.173 13.7064L9.80343 14.1498C9.77709 14.1812 9.7572 14.2176 9.74491 14.2568C9.73261 14.2959 9.72815 14.3371 9.73178 14.378C9.73541 14.4189 9.74705 14.4586 9.76605 14.495C9.78504 14.5314 9.81102 14.5637 9.8425 14.59C9.89867 14.6368 9.96944 14.6623 10.0425 14.6623C10.0884 14.6623 10.1336 14.6522 10.1752 14.6328C10.2167 14.6134 10.2534 14.585 10.2827 14.5498L10.6523 14.1068C11.0544 14.3649 11.5222 14.5019 12 14.5013C12.5549 14.5014 13.0941 14.3169 13.5325 13.9769C13.971 13.6369 14.2839 13.1606 14.422 12.6232H15.8283C15.9663 13.1606 16.2792 13.6369 16.7177 13.9769C17.1562 14.3169 17.6954 14.5014 18.2502 14.5013C18.8051 14.5014 19.3443 14.3169 19.7828 13.9769C20.2213 13.6369 20.5342 13.1606 20.6722 12.6232H21.3754C21.5411 12.6232 21.7001 12.5573 21.8173 12.4401C21.9345 12.3229 22.0004 12.1639 22.0004 11.9981C22.0006 11.8326 21.9351 11.6737 21.8183 11.5564C21.7015 11.439 21.5429 11.3728 21.3773 11.3723ZM5.75171 13.2505C5.42018 13.2505 5.10222 13.1188 4.86779 12.8844C4.63336 12.65 4.50166 12.332 4.50166 12.0005C4.50166 11.6689 4.63336 11.351 4.86779 11.1166C5.10222 10.8821 5.42018 10.7504 5.75171 10.7504C6.08325 10.7504 6.4012 10.8821 6.63563 11.1166C6.87006 11.351 7.00176 11.6689 7.00176 12.0005C7.00176 12.332 6.87006 12.65 6.63563 12.8844C6.4012 13.1188 6.08325 13.2505 5.75171 13.2505ZM12.002 13.2505C11.6704 13.2505 11.3525 13.1188 11.118 12.8844C10.8836 12.65 10.7519 12.332 10.7519 12.0005C10.7519 11.6689 10.8836 11.351 11.118 11.1166C11.3525 10.8821 11.6704 10.7504 12.002 10.7504C12.3335 10.7504 12.6514 10.8821 12.8859 11.1166C13.1203 11.351 13.252 11.6689 13.252 12.0005C13.252 12.332 13.1203 12.65 12.8859 12.8844C12.6514 13.1188 12.3335 13.2505 12.002 13.2505ZM18.2522 13.2505C17.9207 13.2505 17.6027 13.1188 17.3683 12.8844C17.1339 12.65 17.0022 12.332 17.0022 12.0005C17.0022 11.6689 17.1339 11.351 17.3683 11.1166C17.6027 10.8821 17.9207 10.7504 18.2522 10.7504C18.5837 10.7504 18.9017 10.8821 19.1361 11.1166C19.3706 11.351 19.5023 11.6689 19.5023 12.0005C19.5023 12.332 19.3706 12.65 19.1361 12.8844C18.9017 13.1188 18.5837 13.2505 18.2522 13.2505ZM20.6742 18.8724H21.3773C21.4594 18.8723 21.5408 18.8883 21.6167 18.9196C21.6926 18.9509 21.7616 18.9968 21.8197 19.0548C21.8779 19.1128 21.9241 19.1816 21.9556 19.2574C21.9871 19.3333 22.0034 19.4146 22.0035 19.4967C22.0035 19.6624 21.9377 19.8214 21.8204 19.9386C21.7032 20.0558 21.5443 20.1217 21.3785 20.1217H20.6753C20.5373 20.6591 20.2244 21.1354 19.7859 21.4754C19.3474 21.8155 18.8083 22 18.2534 21.9999C17.6985 22 17.1593 21.8155 16.7208 21.4754C16.2823 21.1354 15.9694 20.6591 15.8314 20.1217H14.4251C14.2871 20.6591 13.9741 21.1354 13.5357 21.4754C13.0972 21.8155 12.558 22 12.0031 21.9999C11.4482 22 10.9091 21.8155 10.4706 21.4754C10.0321 21.1354 9.71917 20.6591 9.58114 20.1217H8.17483C8.0368 20.6591 7.7239 21.1354 7.28541 21.4754C6.84691 21.8155 6.30776 22 5.75286 21.9999C5.19797 22 4.65882 21.8155 4.22032 21.4754C3.78183 21.1354 3.46892 20.6591 3.33089 20.1217H2.62774C2.46197 20.1217 2.303 20.0558 2.18579 19.9386C2.06857 19.8214 2.00272 19.6624 2.00272 19.4967C2.00272 19.3309 2.06857 19.1719 2.18579 19.0547C2.303 18.9375 2.46197 18.8716 2.62774 18.8716H3.33089C3.4701 18.3353 3.78351 17.8605 4.2219 17.5217C4.66028 17.1828 5.1988 16.9992 5.75286 16.9997C6.23068 16.999 6.69857 17.136 7.10057 17.3942L7.47012 16.9509C7.52331 16.8874 7.5995 16.8477 7.68197 16.8403C7.76444 16.833 7.84645 16.8587 7.90998 16.9118C7.97343 16.965 8.01318 17.0412 8.0205 17.1236C8.02783 17.2061 8.00213 17.2881 7.94905 17.3517L7.5795 17.795C7.86376 18.0991 8.06748 18.4695 8.1721 18.8724H9.57841C9.71762 18.3361 10.031 17.8613 10.4694 17.5224C10.9078 17.1836 11.4463 17 12.0004 17.0005C12.5544 17 13.093 17.1836 13.5313 17.5224C13.9697 17.8613 14.2831 18.3361 14.4223 18.8724H15.8302C15.9694 18.3361 16.2828 17.8613 16.7212 17.5224C17.1596 17.1836 17.6981 17 18.2522 17.0005C18.8063 17 19.3448 17.1836 19.7832 17.5224C20.2215 17.8613 20.535 18.3361 20.6742 18.8724ZM4.86778 20.3845C5.10221 20.6189 5.42016 20.7506 5.7517 20.7506C6.08323 20.7506 6.40118 20.6189 6.63561 20.3845C6.87004 20.1501 7.00174 19.8321 7.00174 19.5006C7.00174 19.169 6.87004 18.8511 6.63561 18.6167C6.40118 18.3822 6.08323 18.2505 5.7517 18.2505C5.42016 18.2505 5.10221 18.3822 4.86778 18.6167C4.63335 18.8511 4.50165 19.169 4.50165 19.5006C4.50165 19.8321 4.63335 20.1501 4.86778 20.3845ZM11.118 20.3845C11.3525 20.6189 11.6704 20.7506 12.0019 20.7506C12.3335 20.7506 12.6514 20.6189 12.8859 20.3845C13.1203 20.1501 13.252 19.8321 13.252 19.5006C13.252 19.169 13.1203 18.8511 12.8859 18.6167C12.6514 18.3822 12.3335 18.2505 12.0019 18.2505C11.6704 18.2505 11.3525 18.3822 11.118 18.6167C10.8836 18.8511 10.7519 19.169 10.7519 19.5006C10.7519 19.8321 10.8836 20.1501 11.118 20.3845ZM17.3683 20.3845C17.6027 20.6189 17.9207 20.7506 18.2522 20.7506C18.5837 20.7506 18.9017 20.6189 19.1361 20.3845C19.3705 20.1501 19.5022 19.8321 19.5022 19.5006C19.5022 19.169 19.3705 18.8511 19.1361 18.6167C18.9017 18.3822 18.5837 18.2505 18.2522 18.2505C17.9207 18.2505 17.6027 18.3822 17.3683 18.6167C17.1338 18.8511 17.0021 19.169 17.0021 19.5006C17.0021 19.8321 17.1338 20.1501 17.3683 20.3845ZM9.2661 9.03006C9.33912 9.03013 9.40982 9.00439 9.46572 8.9574C9.49719 8.93106 9.52317 8.89877 9.54217 8.86239C9.56116 8.82601 9.57281 8.78624 9.57643 8.74536C9.58006 8.70448 9.5756 8.66329 9.56331 8.62414C9.55101 8.58498 9.53113 8.54862 9.50478 8.51715L8.72623 7.58313C8.69989 7.55166 8.66761 7.52568 8.63123 7.50668C8.59485 7.48768 8.55508 7.47604 8.5142 7.47241C8.47332 7.46879 8.43212 7.47324 8.39296 7.48554C8.35381 7.49783 8.31746 7.51772 8.28599 7.54407C8.25451 7.57041 8.22853 7.60269 8.20954 7.63907C8.19054 7.67545 8.17889 7.71521 8.17526 7.7561C8.17164 7.79698 8.1761 7.83817 8.18839 7.87733C8.20069 7.91649 8.22058 7.95285 8.24692 7.98432L9.02547 8.91873C9.05496 8.95379 9.09181 8.98194 9.13339 9.00118C9.17498 9.02042 9.22028 9.03028 9.2661 9.03006ZM8.61987 16.5008C8.57835 16.5203 8.53306 16.5303 8.48722 16.5303C8.41409 16.5298 8.34345 16.5037 8.2876 16.4565C8.25612 16.4301 8.23015 16.3979 8.21115 16.3615C8.19216 16.3251 8.18051 16.2853 8.17688 16.2445C8.17325 16.2036 8.17772 16.1624 8.19001 16.1232C8.2023 16.0841 8.22219 16.0477 8.24853 16.0162L9.02708 15.0822C9.08027 15.0188 9.15646 14.979 9.23893 14.9717C9.3214 14.9644 9.40341 14.9901 9.46694 15.0431C9.49842 15.0695 9.5244 15.1018 9.54339 15.1381C9.56239 15.1745 9.57403 15.2143 9.57766 15.2552C9.58129 15.2961 9.57683 15.3373 9.56453 15.3764C9.55224 15.4156 9.53235 15.4519 9.50601 15.4834L8.72746 16.4178C8.69812 16.453 8.66139 16.4814 8.61987 16.5008Z" fill="#1D1E23"/></svg>