<svg viewBox="0 0 24 24" fill="none" xmlns="http://www.w3.org/2000/svg"><path fill-rule="evenodd" clip-rule="evenodd" d="M16.26 21.9514C15.9345 21.8584 15.6045 21.4764 15.5352 21.1116C15.4901 20.8741 15.5451 20.7097 15.8917 20.0511C17.2858 17.391 17.8918 14.9433 17.8918 11.9723C17.8918 9.10045 17.3555 6.86652 16.0228 4.18843C15.7364 3.61383 15.5027 3.07984 15.5027 3.00288C15.5027 2.71773 15.7443 2.30485 16.0061 2.14352C16.365 1.92126 16.9666 1.96267 17.2545 2.22947C17.365 2.33181 17.653 2.79741 17.8934 3.2638C18.8576 5.14288 19.5091 7.16267 19.823 9.24577C20.0211 10.5508 20.0607 13.0242 19.9022 14.2191C19.608 16.423 19.0178 18.3902 18.0736 20.3163C17.5029 21.4811 17.1444 21.96 16.8458 21.96C16.7722 21.9623 16.6992 21.9734 16.6284 21.9932C16.5686 22.0108 16.4038 21.9932 16.2624 21.9522L16.26 21.9514ZM12.3786 19.9487C11.8791 19.8054 11.5195 19.2019 11.6656 18.7491C11.7005 18.6394 11.9358 18.1347 12.1881 17.6277C13.2574 15.4793 13.7002 13.1773 13.4824 10.916C13.3034 9.05865 12.9675 7.88719 12.1156 6.17315C11.5452 5.02317 11.5187 4.84503 11.8502 4.38176C12.1671 3.94153 12.9529 3.87007 13.3667 4.24428C13.6531 4.50365 14.5446 6.33955 14.8888 7.37938C16.0275 10.8203 15.8536 14.5144 14.3941 17.8945C13.6468 19.6265 13.122 20.16 12.3805 19.9487H12.3786ZM8.37829 17.9175C8.21923 17.8418 8.07894 17.7326 7.96732 17.5976C7.85571 17.4627 7.77548 17.3052 7.7323 17.1363C7.68795 16.9386 7.76359 16.7199 8.12837 15.989C9.47262 13.3039 9.48728 10.718 8.17274 8.09577C7.59567 6.94383 7.58299 6.71454 8.07094 6.25986C8.31175 6.03603 8.41433 5.99619 8.75257 5.99619C9.32014 5.99619 9.61442 6.27744 10.1218 7.30476C10.9016 8.88521 11.2213 10.2563 11.2185 12.0125C11.2157 13.818 10.9171 15.0574 10.0838 16.7237C9.6065 17.678 9.37083 17.9296 8.89278 17.9944C8.7175 18.0095 8.54108 17.9836 8.3779 17.9187L8.37829 17.9175ZM4.64378 16.0257C4.3994 15.9261 4.12018 15.5984 4.0374 15.3128C3.94511 14.9945 4.02037 14.7418 4.38752 14.1468C4.85924 13.3816 4.96895 12.9711 4.96895 11.9711C4.96895 10.9711 4.85924 10.5606 4.38752 9.79534C4.2291 9.53597 4.06711 9.22544 4.03106 9.10474C3.87897 8.60045 4.30515 7.98251 4.87746 7.87665C5.36264 7.78681 5.69573 8.00048 6.1417 8.68719C7.43288 10.675 7.43288 13.3308 6.1417 15.3023C5.68623 15.9976 5.17807 16.2433 4.64497 16.0257H4.64378Z" fill="#1D1E23"/></svg>