<svg viewBox="0 0 24 24" fill="none" xmlns="http://www.w3.org/2000/svg"><path fill-rule="evenodd" clip-rule="evenodd" d="M15.8262 14.7801C15.4746 15.1343 14.9976 15.3333 14.5003 15.3333H5.7501C4.50007 15.3333 2 14.0741 2 14.0741V6.51852C2 6.51852 12.0003 4 13.2503 4C14.5003 4 20.1255 10.9259 20.1255 10.9259H16.3754L12.6253 7.77778L12.5081 7.85648C13.9242 9.44708 15.1254 10.9259 15.1254 10.9259H12.0003L10.3881 9.7662L9.50021 11.5556H14.5003C14.9976 11.5556 15.4746 11.7546 15.8262 12.1088C16.1778 12.463 16.3754 12.9435 16.3754 13.4444C16.3754 13.9454 16.1778 14.4258 15.8262 14.7801ZM15.3842 12.554C15.1498 12.3178 14.8319 12.1852 14.5003 12.1852C13.8659 12.1852 13.8697 12.661 13.8745 13.2774C13.8749 13.3321 13.8753 13.3878 13.8753 13.4444C13.8753 13.5011 13.8749 13.5568 13.8745 13.6115C13.8697 14.2279 13.8659 14.7037 14.5003 14.7037C14.8319 14.7037 15.1498 14.571 15.3842 14.3349C15.6187 14.0987 15.7504 13.7784 15.7504 13.4444C15.7504 13.1105 15.6187 12.7902 15.3842 12.554ZM16.1513 11.5557H20.7507C21.0817 11.5569 21.3988 11.69 21.6328 11.9259C21.8668 12.1619 21.9986 12.4814 21.9995 12.8149V19.7409C21.9986 20.0745 21.8666 20.3943 21.6324 20.6302C21.3981 20.8662 21.0807 20.9992 20.7495 21.0001H9.18668C8.85544 20.9992 8.53802 20.8662 8.30379 20.6302C8.06957 20.3943 7.93757 20.0745 7.93665 19.7409V15.9631H9.18668V16.5927H20.7495V12.8149H16.9213C16.7955 12.327 16.5273 11.8883 16.1513 11.5557ZM9.18785 19.7409H20.7507V19.1112H9.18785V19.7409Z" fill="#1D1E23"/></svg>