<svg viewBox="0 0 24 24" fill="none" xmlns="http://www.w3.org/2000/svg"><path fill-rule="evenodd" clip-rule="evenodd" d="M6.62964 19.3017C5.77456 18.6573 5.08037 17.8209 4.60218 16.8588C4.124 15.8967 3.87501 14.8356 3.87498 13.7596V11.2402C3.87504 10.1643 4.12405 9.10309 4.60223 8.14104C5.08041 7.17898 5.77458 6.34254 6.62964 5.69812C6.74495 5.61028 6.83843 5.49663 6.90269 5.36615C6.96696 5.23566 7.00025 5.09192 6.99995 4.94625C6.99995 4.16762 6.11675 3.7232 5.49957 4.19124C4.41311 5.01162 3.53121 6.07575 2.92376 7.29928C2.31632 8.52282 2.00005 9.87212 2 11.2402V13.7596C2.00002 15.1277 2.31628 16.477 2.92372 17.7006C3.53117 18.9241 4.41309 19.9882 5.49957 20.8086C6.11675 21.277 6.99995 20.8322 6.99995 20.0536C7.00022 19.9079 6.96691 19.7642 6.90265 19.6337C6.83839 19.5032 6.74493 19.3896 6.62964 19.3017ZM18.874 13.7596V11.2402C18.8754 9.80832 18.3368 8.42937 17.3674 7.38251C16.79 6.75701 15.749 7.17664 15.749 8.03085C15.7495 8.27002 15.8397 8.50018 16.0014 8.67525C16.6433 9.3722 16.9997 10.2881 16.999 11.2391V13.7584C16.9997 14.7094 16.6433 15.6255 16.0014 16.3226C15.8397 16.4975 15.7495 16.7275 15.749 16.9666C15.749 17.8208 16.79 18.2408 17.3674 17.6149C18.3363 16.5687 18.8748 15.1907 18.874 13.7596ZM6.99924 13.7596V11.2403C6.99852 10.2894 7.35494 9.37342 7.99688 8.67647C8.1586 8.5014 8.24872 8.27124 8.24922 8.03207C8.24922 7.17786 7.20822 6.75823 6.63049 7.38373C5.6613 8.43074 5.12292 9.80963 5.12426 11.2415V13.7608C5.12284 15.1926 5.66123 16.5716 6.63049 17.6185C7.20822 18.2444 8.24922 17.8244 8.24922 16.9702C8.24878 16.7311 8.15864 16.5011 7.99688 16.3262C7.35443 15.6285 6.99799 14.7114 6.99924 13.7596ZM15.0181 9.45885C15.487 9.93132 15.7504 10.5721 15.7504 11.2403V13.7596C15.7504 14.4278 15.487 15.0686 15.0181 15.541C14.5493 16.0135 13.9134 16.2789 13.2504 16.2789H10.7504C10.0874 16.2789 9.4515 16.0135 8.98266 15.541C8.51382 15.0686 8.25043 14.4278 8.25043 13.7596V11.2403C8.25043 10.5721 8.51382 9.93132 8.98266 9.45885C9.4515 8.98638 10.0874 8.72095 10.7504 8.72095H13.2504C13.9134 8.72095 14.5493 8.98638 15.0181 9.45885ZM13.6923 14.205C13.8095 14.0869 13.8754 13.9266 13.8754 13.7596V11.2403C13.8754 11.0732 13.8095 10.913 13.6923 10.7949C13.5751 10.6768 13.4161 10.6104 13.2504 10.6104H10.7504C10.5847 10.6104 10.4257 10.6768 10.3085 10.7949C10.1913 10.913 10.1254 11.0732 10.1254 11.2403V13.7596C10.1254 13.9266 10.1913 14.0869 10.3085 14.205C10.4257 14.3231 10.5847 14.3894 10.7504 14.3894H13.2504C13.4161 14.3894 13.5751 14.3231 13.6923 14.205ZM16.9991 4.94625C16.9991 4.16762 17.8823 3.7232 18.4995 4.19124C19.5859 5.01162 20.4678 6.07575 21.0753 7.29928C21.6827 8.52282 21.999 9.87212 21.9991 11.2402V13.7596C21.999 15.1277 21.6828 16.477 21.0753 17.7006C20.4679 18.9241 19.586 19.9882 18.4995 20.8086C17.8823 21.277 16.9991 20.8322 16.9991 20.0536C16.9988 19.9079 17.0321 19.7642 17.0964 19.6337C17.1607 19.5032 17.2541 19.3896 17.3694 19.3017C18.2245 18.6573 18.9187 17.8209 19.3969 16.8588C19.8751 15.8967 20.124 14.8356 20.1241 13.7596V11.2402C20.124 10.1643 19.875 9.10309 19.3968 8.14104C18.9187 7.17898 18.2245 6.34254 17.3694 5.69812C17.2541 5.61028 17.1606 5.49663 17.0964 5.36615C17.0321 5.23566 16.9988 5.09192 16.9991 4.94625Z" fill="#1D1E23"/></svg>