<svg viewBox="0 0 24 24" fill="none" xmlns="http://www.w3.org/2000/svg"><path fill-rule="evenodd" clip-rule="evenodd" d="M18 4H22C22.2652 4 22.5196 4.10536 22.7071 4.29289C22.8946 4.48043 23 4.73478 23 5V21.625C23 21.9897 22.8551 22.3394 22.5973 22.5973C22.3394 22.8551 21.9897 23 21.625 23H2.375C2.01033 23 1.66059 22.8551 1.40273 22.5973C1.14487 22.3394 1 21.9897 1 21.625V5C1 4.73478 1.10536 4.48043 1.29289 4.29289C1.48043 4.10536 1.73478 4 2 4H6V2C6 1.73478 6.10536 1.48043 6.29289 1.29289C6.48043 1.10536 6.73478 1 7 1H17C17.2652 1 17.5196 1.10536 17.7071 1.29289C17.8946 1.48043 18 1.73478 18 2V4ZM17 2H7V5H17V2ZM2 22H22V5H18V6H6V5H2V22ZM8.22222 3.08427C8.30444 3.02932 8.40111 3 8.5 3C8.63261 3 8.75979 3.05268 8.85355 3.14645C8.94732 3.24021 9 3.36739 9 3.5C9 3.59889 8.97068 3.69556 8.91574 3.77779C8.86079 3.86001 8.78271 3.9241 8.69134 3.96194C8.59998 3.99978 8.49945 4.00969 8.40246 3.99039C8.30546 3.9711 8.21637 3.92348 8.14645 3.85355C8.07652 3.78363 8.0289 3.69454 8.00961 3.59755C7.99031 3.50055 8.00022 3.40002 8.03806 3.30866C8.0759 3.2173 8.13999 3.13921 8.22222 3.08427ZM15.5 3C15.4011 3 15.3044 3.02932 15.2222 3.08427C15.14 3.13921 15.0759 3.2173 15.0381 3.30866C15.0002 3.40002 14.9903 3.50055 15.0096 3.59755C15.0289 3.69454 15.0765 3.78363 15.1464 3.85355C15.2164 3.92348 15.3055 3.9711 15.4025 3.99039C15.4994 4.00969 15.6 3.99978 15.6913 3.96194C15.7827 3.9241 15.8608 3.86001 15.9157 3.77779C15.9707 3.69556 16 3.59889 16 3.5C16 3.36739 15.9473 3.24021 15.8536 3.14645C15.7598 3.05268 15.6326 3 15.5 3ZM14.675 13H16.065C16.1867 12.5287 16.4761 12.1179 16.879 11.8447C17.2819 11.5715 17.7706 11.4546 18.2535 11.5159C18.7364 11.5773 19.1804 11.8126 19.5022 12.1779C19.824 12.5431 20.0015 13.0132 20.0015 13.5C20.0015 13.9868 19.824 14.4569 19.5022 14.8221C19.1804 15.1874 18.7364 15.4227 18.2535 15.4841C17.7706 15.5454 17.2819 15.4285 16.879 15.1553C16.4761 14.8821 16.1867 14.4713 16.065 14H15.325L13.0262 19.1712L8.96 11.0387L7.7825 13H4.5C4.36739 13 4.24021 12.9473 4.14645 12.8535C4.05268 12.7598 4 12.6326 4 12.5C4 12.3674 4.05268 12.2402 4.14645 12.1464C4.24021 12.0527 4.36739 12 4.5 12H7.2175L9.04 8.96124L12.9738 16.8287L14.675 13Z" fill="#1D1E23"/></svg>