<svg viewBox="0 0 24 24" fill="none" xmlns="http://www.w3.org/2000/svg"><path fill-rule="evenodd" clip-rule="evenodd" d="M7.5 2H17.5C18.1631 2 18.7989 2.26339 19.2678 2.73223C19.7366 3.20107 20 3.83696 20 4.5V22L18.75 20.75L17.5 22L16.25 20.75L15 22L13.75 20.75L12.5 22L11.25 20.75L10 22L8.75 20.75L7.5 22V4.5H5C5 4.5 5 2 7.5 2ZM18.75 19.866L19.375 20.491V4.5C19.375 4.00272 19.1775 3.5258 18.8258 3.17416C18.4742 2.82253 17.9973 2.625 17.5 2.625H8.125C7.76348 2.61874 7.40417 2.6824 7.06681 2.81249C7.38373 2.96618 7.65103 3.20592 7.83816 3.50433C8.02528 3.80273 8.12468 4.14778 8.125 4.5V20.491L8.75 19.866L10 21.116L11.25 19.866L12.5 21.116L13.75 19.866L15 21.116L16.25 19.866L17.5 21.116L18.75 19.866ZM10.625 5.74951C10.625 6.09469 10.3452 6.37451 10 6.37451C9.65482 6.37451 9.375 6.09469 9.375 5.74951C9.375 5.40433 9.65482 5.12451 10 5.12451C10.3452 5.12451 10.625 5.40433 10.625 5.74951ZM12.5 6.37451C12.8452 6.37451 13.125 6.09469 13.125 5.74951C13.125 5.40433 12.8452 5.12451 12.5 5.12451C12.1548 5.12451 11.875 5.40433 11.875 5.74951C11.875 6.09469 12.1548 6.37451 12.5 6.37451ZM15.625 5.74951C15.625 6.09469 15.3452 6.37451 15 6.37451C14.6548 6.37451 14.375 6.09469 14.375 5.74951C14.375 5.40433 14.6548 5.12451 15 5.12451C15.3452 5.12451 15.625 5.40433 15.625 5.74951ZM17.5 6.37451C17.8452 6.37451 18.125 6.09469 18.125 5.74951C18.125 5.40433 17.8452 5.12451 17.5 5.12451C17.1548 5.12451 16.875 5.40433 16.875 5.74951C16.875 6.09469 17.1548 6.37451 17.5 6.37451ZM9.375 7.62451H18.125V8.87451H9.375V7.62451ZM18.125 10.1245H9.375V11.3745H18.125V10.1245ZM9.375 13.2495H14.375V14.4995H9.375V13.2495ZM14.375 15.7495H9.375V16.9995H14.375V15.7495ZM16.932 13.7895C16.7934 13.7895 16.6883 13.8305 16.6102 13.9117C16.5344 13.993 16.4965 14.1059 16.4965 14.2496C16.4906 14.3669 16.5306 14.4819 16.6078 14.5703C16.6823 14.6508 16.8203 14.7332 17.0219 14.8176C17.1926 14.8863 17.3588 14.9658 17.5195 15.0555C17.6411 15.123 17.752 15.208 17.8488 15.3078C17.9376 15.4002 18.0073 15.5092 18.0539 15.6285C18.1036 15.7626 18.1277 15.9047 18.125 16.0477C18.1253 16.3461 18.0358 16.588 17.8566 16.7734C17.6775 16.9589 17.4309 17.0684 17.1168 17.102V17.625H16.7141V17.1043C16.3677 17.066 16.0996 16.9386 15.9098 16.7219C15.7199 16.5052 15.625 16.2175 15.625 15.8586H16.3594C16.3591 16.0672 16.4068 16.2271 16.5024 16.3383C16.5979 16.4495 16.7352 16.5051 16.9141 16.5051C17.0625 16.5053 17.1797 16.4646 17.2656 16.3828C17.3087 16.3401 17.3423 16.2887 17.3641 16.2321C17.3859 16.1755 17.3955 16.1149 17.3922 16.0543C17.3917 15.9098 17.3533 15.7953 17.277 15.7109C17.2007 15.6266 17.0704 15.5484 16.8863 15.4766C16.7231 15.4136 16.5636 15.3415 16.4086 15.2606C16.2835 15.1951 16.168 15.1128 16.0652 15.016C15.97 14.9239 15.8942 14.8135 15.8426 14.6914C15.7868 14.55 15.7602 14.3988 15.7645 14.2469C15.7645 13.9508 15.8556 13.7081 16.0379 13.5188C16.2202 13.3294 16.4625 13.219 16.7649 13.1875V12.625H17.1688V13.1949C17.4688 13.2387 17.7031 13.368 17.8719 13.5828C18.0406 13.7977 18.125 14.0759 18.125 14.4176H17.393C17.393 14.2072 17.3512 14.0499 17.2676 13.9457C17.228 13.895 17.177 13.8544 17.1186 13.8272C17.0603 13.8 16.9963 13.7871 16.932 13.7895Z" fill="#1D1E23"/></svg>