<svg viewBox="0 0 24 24" fill="none" xmlns="http://www.w3.org/2000/svg"><path fill-rule="evenodd" clip-rule="evenodd" d="M7 4.5C7 3.83696 6.73661 3.20108 6.26777 2.73224C5.79893 2.2634 5.16304 2 4.5 2C3.83696 2 3.20107 2.2634 2.73223 2.73224C2.26339 3.20108 2 3.83696 2 4.5C2 5.16304 2.26339 5.79893 2.73223 6.26777C3.20107 6.73661 3.83696 7 4.5 7C5.16304 7 5.79893 6.73661 6.26777 6.26777C6.73661 5.79893 7 5.16304 7 4.5ZM18.066 6.29844C18.008 6.24039 17.9391 6.19434 17.8632 6.16292C17.7874 6.1315 17.7061 6.11533 17.624 6.11533C17.542 6.11533 17.4607 6.1315 17.3848 6.16292C17.309 6.19434 17.2401 6.24039 17.182 6.29844C17.0649 6.41564 16.9991 6.57455 16.9991 6.74024C16.9991 6.90593 17.0649 7.06484 17.182 7.18204L19.4996 9.5L21.8164 7.18282C21.9335 7.06562 21.9993 6.90671 21.9993 6.74102C21.9993 6.57533 21.9335 6.41642 21.8164 6.29922C21.6992 6.1821 21.5403 6.11631 21.3746 6.11631C21.2089 6.11631 21.05 6.1821 20.9328 6.29922L20.1246 7.10703V5.75C20.1246 5.25272 19.9271 4.77581 19.5755 4.42418C19.2238 4.07255 18.7469 3.875 18.2496 3.875H8.87463C8.78996 3.8749 8.70615 3.89201 8.62829 3.92529C8.55043 3.95856 8.48015 4.00731 8.4217 4.06857C8.36325 4.12983 8.31786 4.20232 8.28828 4.28166C8.2587 4.36099 8.24555 4.44551 8.24963 4.53008C8.26525 4.86641 8.55509 5.125 8.89142 5.125H18.2488C18.4146 5.125 18.5736 5.19085 18.6908 5.30806C18.808 5.42527 18.8738 5.58424 18.8738 5.75V7.10703L18.066 6.29844ZM6.1637 17.3852C6.19512 17.3094 6.24117 17.2405 6.29922 17.1824C6.41642 17.0653 6.57533 16.9995 6.74102 16.9995C6.9067 16.9995 7.06561 17.0653 7.18281 17.1824L9.5 19.4992L7.18242 21.8168C7.12445 21.875 7.05553 21.9212 6.97963 21.9526C6.90374 21.984 6.82238 22.0001 6.74023 22C6.65815 22.0001 6.57684 21.984 6.50102 21.9526C6.42519 21.9211 6.35634 21.875 6.29844 21.8168C6.24039 21.7588 6.19434 21.6899 6.16292 21.614C6.1315 21.5382 6.11533 21.4569 6.11533 21.3748C6.11533 21.2927 6.1315 21.2114 6.16292 21.1356C6.19434 21.0598 6.24039 20.9909 6.29844 20.9328L7.10625 20.125H5.125C4.62772 20.125 4.1508 19.9275 3.79917 19.5758C3.44754 19.2242 3.25 18.7473 3.25 18.25V14.5C3.25 14.0027 3.44754 13.5258 3.79917 13.1742C4.1508 12.8226 4.62772 12.625 5.125 12.625H15.1082C15.4445 12.625 15.7344 12.8836 15.75 13.2195C15.7541 13.3041 15.741 13.3887 15.7115 13.4681C15.6819 13.5475 15.6365 13.62 15.5781 13.6813C15.5196 13.7426 15.4493 13.7914 15.3714 13.8247C15.2935 13.858 15.2097 13.8751 15.125 13.875H5.125C4.95924 13.875 4.80027 13.9408 4.68306 14.0581C4.56585 14.1753 4.5 14.3342 4.5 14.5V18.25C4.5 18.4158 4.56585 18.5747 4.68306 18.6919C4.80027 18.8092 4.95924 18.875 5.125 18.875H7.10781L6.29922 18.0664C6.24117 18.0084 6.19512 17.9395 6.1637 17.8636C6.13228 17.7878 6.11611 17.7065 6.11611 17.6244C6.11611 17.5423 6.13228 17.461 6.1637 17.3852ZM19.5 10.75C18.837 10.75 18.2011 11.0134 17.7322 11.4822C17.2634 11.9511 17 12.587 17 13.25C17 13.913 17.2634 14.5489 17.7322 15.0178C18.2011 15.4866 18.837 15.75 19.5 15.75C20.163 15.75 20.7989 15.4866 21.2678 15.0178C21.7366 14.5489 22 13.913 22 13.25C22 12.587 21.7366 11.9511 21.2678 11.4822C20.7989 11.0134 20.163 10.75 19.5 10.75ZM11.4822 17.7322C11.9511 17.2634 12.587 17 13.25 17C13.913 17 14.5489 17.2634 15.0178 17.7322C15.4866 18.2011 15.75 18.837 15.75 19.5C15.75 20.163 15.4866 20.7989 15.0178 21.2678C14.5489 21.7366 13.913 22 13.25 22C12.587 22 11.9511 21.7366 11.4822 21.2678C11.0134 20.7989 10.75 20.163 10.75 19.5C10.75 18.837 11.0134 18.2011 11.4822 17.7322Z" fill="#1D1E23"/></svg>