<svg viewBox="0 0 24 24" fill="none" xmlns="http://www.w3.org/2000/svg"><path fill-rule="evenodd" clip-rule="evenodd" d="M11 6.5C11 8.98528 8.98528 11 6.5 11C4.01472 11 2 8.98528 2 6.5C2 4.01472 4.01472 2 6.5 2C8.98528 2 11 4.01472 11 6.5ZM11 17.5C11 19.9853 8.98528 22 6.5 22C4.01472 22 2 19.9853 2 17.5C2 15.0147 4.01472 13 6.5 13C8.98528 13 11 15.0147 11 17.5ZM17.5 22C19.9853 22 22 19.9853 22 17.5C22 15.0147 19.9853 13 17.5 13C15.0147 13 13 15.0147 13 17.5C13 19.9853 15.0147 22 17.5 22ZM13 2H22L22 11H13V2Z" fill="#1D1E23"/></svg>