<svg viewBox="0 0 24 24" fill="none" xmlns="http://www.w3.org/2000/svg"><path d="M8.56208 21.8387C8.56085 21.6526 8.51868 21.4691 8.43855 21.3011C8.35842 21.1332 8.24229 20.9849 8.09843 20.8669C7.83574 20.648 7.62816 20.3704 7.49247 20.0566C7.35677 19.7427 7.29675 19.4013 7.31723 19.06C7.35011 18.5212 7.5805 18.0135 7.96431 17.6339C8.34813 17.2543 8.85844 17.0296 9.39758 17.0028C9.69318 16.9888 9.98854 17.035 10.2658 17.1385C10.543 17.242 10.7964 17.4007 11.0105 17.605C11.2246 17.8092 11.3951 18.0548 11.5116 18.3269C11.628 18.5989 11.6881 18.8918 11.688 19.1877C11.6884 19.5113 11.6167 19.831 11.4783 20.1235C11.3399 20.416 11.1382 20.6741 10.8877 20.879C10.7457 20.9976 10.6317 21.1463 10.5539 21.3143C10.4762 21.4822 10.4366 21.6653 10.4381 21.8504C10.4382 21.8901 10.454 21.928 10.4821 21.9561C10.5101 21.9841 10.5481 21.9999 10.5877 22H17.0002V15.5876C17 15.5482 17.0154 15.5104 17.0431 15.4823C17.0708 15.4543 17.1085 15.4384 17.1479 15.438C17.3332 15.4362 17.5167 15.4756 17.685 15.5533C17.8533 15.6309 18.0023 15.745 18.1212 15.8872C18.3262 16.1377 18.5842 16.3395 18.8767 16.478C19.1692 16.6165 19.4889 16.6882 19.8125 16.6879C20.1085 16.688 20.4014 16.6279 20.6735 16.5114C20.9456 16.3949 21.1912 16.2245 21.3955 16.0103C21.5997 15.7961 21.7584 15.5427 21.8619 15.2654C21.9654 14.9882 22.0116 14.6928 21.9975 14.3971C21.9706 13.858 21.7458 13.3478 21.3663 12.964C20.9867 12.5802 20.479 12.3498 19.9402 12.3168C19.5989 12.2963 19.2575 12.3563 18.9436 12.492C18.6298 12.6277 18.3522 12.8353 18.1333 13.098C18.0147 13.2424 17.8657 13.3588 17.6969 13.4389C17.5281 13.5191 17.3437 13.561 17.1568 13.5616C17.1149 13.5605 17.075 13.543 17.0458 13.5128C17.0166 13.4827 17.0004 13.4423 17.0006 13.4003V6.99968H10.5866C10.5469 6.99958 10.5089 6.98378 10.4809 6.95575C10.4528 6.92772 10.4371 6.88973 10.437 6.85008C10.4355 6.66501 10.475 6.48191 10.5528 6.31394C10.6305 6.14598 10.7445 5.99732 10.8865 5.87867C11.137 5.67373 11.3387 5.41566 11.4771 5.12315C11.6156 4.83064 11.6872 4.51102 11.6869 4.18742C11.6869 3.89148 11.6268 3.59862 11.5104 3.32657C11.3939 3.05451 11.2235 2.80891 11.0094 2.60465C10.7952 2.40038 10.5419 2.24169 10.2646 2.13818C9.98738 2.03466 9.692 1.98848 9.39639 2.00243C8.85726 2.0293 8.34697 2.25402 7.96315 2.63358C7.57933 3.01314 7.34894 3.5209 7.31607 4.05969C7.29558 4.40102 7.35561 4.74237 7.4913 5.05624C7.627 5.3701 7.83457 5.64768 8.09727 5.86657C8.24113 5.98461 8.35724 6.13285 8.43736 6.3008C8.51749 6.46875 8.55968 6.65228 8.56091 6.83836C8.56097 6.85953 8.55683 6.8805 8.54877 6.90007C8.5407 6.91964 8.52885 6.93742 8.5139 6.9524C8.49895 6.96739 8.48121 6.97928 8.46166 6.98739C8.44211 6.9955 8.42115 6.99968 8.39998 6.99968H2V13.5616H2.16131C2.34738 13.5603 2.53089 13.5181 2.69883 13.438C2.86677 13.3579 3.01503 13.2418 3.13312 13.098C3.35204 12.8352 3.62969 12.6276 3.94363 12.4919C4.25758 12.3562 4.59903 12.2962 4.94043 12.3168C5.47913 12.3499 5.98676 12.5803 6.36623 12.9641C6.7457 13.3479 6.97038 13.8581 6.99733 14.3971C7.01134 14.6928 6.9652 14.9882 6.86171 15.2654C6.75822 15.5427 6.59954 15.7961 6.39526 16.0103C6.19098 16.2245 5.94537 16.3949 5.67328 16.5114C5.40119 16.6279 5.10829 16.688 4.81232 16.6879C4.48868 16.6882 4.16903 16.6165 3.87652 16.478C3.58401 16.3395 3.32596 16.1377 3.12103 15.8872C3.00231 15.7453 2.85362 15.6314 2.68567 15.5537C2.51771 15.4761 2.33464 15.4366 2.1496 15.438H2V22H8.40115C8.42231 22 8.44328 21.9958 8.46283 21.9877C8.48238 21.9796 8.50013 21.9677 8.51508 21.9527C8.53003 21.9377 8.54188 21.92 8.54995 21.9004C8.55801 21.8808 8.56213 21.8599 8.56208 21.8387Z" fill="#1D1E23"/></svg>