<svg viewBox="0 0 24 24" fill="none" xmlns="http://www.w3.org/2000/svg"><path d="M11.375 3.5625C11.375 3.64538 11.3421 3.72487 11.2835 3.78348C11.2249 3.84208 11.1454 3.875 11.0625 3.875H7.9375C7.85462 3.875 7.77513 3.84208 7.71653 3.78348C7.65792 3.72487 7.625 3.64538 7.625 3.5625C7.625 3.47962 7.65792 3.40014 7.71653 3.34153C7.77513 3.28293 7.85462 3.25 7.9375 3.25H11.0625C11.1454 3.25 11.2249 3.28293 11.2835 3.34153C11.3421 3.40014 11.375 3.47962 11.375 3.5625ZM22 22H20.75C20.7332 21.6514 20.6438 21.3101 20.4875 20.9981C20.1805 20.4121 19.6531 20.125 18.875 20.125C17.8336 20.125 17.3555 20.4836 16.75 20.9375C16.0859 21.4356 15.3336 22 13.875 22H11.375C9.71055 22 8.875 20.3984 8.875 19.5H7C5.67392 19.5 4.40215 18.9732 3.46447 18.0355C2.52679 17.0979 2 15.8261 2 14.5V5.75C2 4.75544 2.39509 3.80162 3.09835 3.09836C3.80161 2.39509 4.75544 2 5.75 2H13.25C14.2446 2 15.1984 2.39509 15.9017 3.09836C16.6049 3.80162 17 4.75544 17 5.75V14.5C17 15.8261 16.4732 17.0979 15.5355 18.0355C14.5979 18.9732 13.3261 19.5 12 19.5H10.125C10.125 19.8016 10.5012 20.75 11.375 20.75H13.875C14.9168 20.75 15.3949 20.3914 16 19.9375C16.6641 19.4395 17.4168 18.875 18.875 18.875C20.1316 18.875 21.107 19.4418 21.6215 20.4707C21.856 20.9474 21.9851 21.469 22 22ZM11.375 15.125V12.625H10.125V15.125H11.375ZM11.375 10.125V7.625H10.75V10.125H11.375ZM8.25 12.625H7.625V15.125H8.25V12.625ZM8.25 7.625H7.625V10.125H8.25V7.625ZM15.75 6.375V14.5C15.749 15.4942 15.3535 16.4475 14.6505 17.1505C13.9475 17.8535 12.9942 18.249 12 18.25H10.75V18.875H12C12.5748 18.8766 13.1442 18.7641 13.6752 18.5442C14.2062 18.3243 14.6884 18.0012 15.0938 17.5938C15.5012 17.1884 15.8243 16.7062 16.0442 16.1752C16.2642 15.6442 16.3766 15.0748 16.375 14.5V5.75C16.3741 4.92148 16.0445 4.12717 15.4587 3.54132C14.8728 2.95547 14.0785 2.62593 13.25 2.625H5.75C4.92148 2.62593 4.12717 2.95547 3.54132 3.54132C2.95547 4.12717 2.62593 4.92148 2.625 5.75V14.5C2.62338 15.0748 2.73583 15.6442 2.95583 16.1753C3.17583 16.7064 3.499 17.1885 3.90664 17.5938C4.31194 18.0012 4.79403 18.3243 5.325 18.5442C5.85597 18.7641 6.42529 18.8766 7 18.875H8.25V18.25H7C6.00579 18.2489 5.05262 17.8534 4.34961 17.1504C3.64659 16.4474 3.25114 15.4942 3.25 14.5V6.375H15.75ZM7 10.125V7.625H6.375V10.125H7ZM6.375 12.625V15.125H7V12.625H6.375ZM5.75 11.375V7.625H4.5V11.375H5.75ZM4.5 12.625V16.375H5.75V12.625H4.5ZM12 12.625V16.375H13.25V12.625H12ZM13.25 11.375V7.625H12V11.375H13.25ZM9.5 12.625H8.875V15.125H9.5V12.625ZM10.125 10.125V7.625H8.875V10.125H10.125Z" fill="#1D1E23"/></svg>