<svg viewBox="0 0 24 24" fill="none" xmlns="http://www.w3.org/2000/svg"><path d="M9.5 5.125V2.625C9.5 2.45924 9.56586 2.30027 9.68307 2.18306C9.80028 2.06585 9.95924 2 10.125 2H13.875C14.0408 2 14.1997 2.06585 14.317 2.18306C14.4342 2.30027 14.5 2.45924 14.5 2.625V5.125C14.5 5.29076 14.4342 5.44973 14.317 5.56694C14.1997 5.68415 14.0408 5.75 13.875 5.75H12.9375V6.9918H11.0625V5.75H10.125C9.95924 5.75 9.80028 5.68415 9.68307 5.56694C9.56586 5.44973 9.5 5.29076 9.5 5.125ZM10.125 18.25H9.1875V17H7.3125V18.25H6.375C6.20924 18.25 6.05028 18.3158 5.93307 18.4331C5.81586 18.5503 5.75 18.7092 5.75 18.875V21.375C5.75 21.5408 5.81586 21.6997 5.93307 21.8169C6.05028 21.9342 6.20924 22 6.375 22H10.125C10.2908 22 10.4497 21.9342 10.567 21.8169C10.6842 21.6997 10.75 21.5408 10.75 21.375V18.875C10.75 18.7092 10.6842 18.5503 10.567 18.4331C10.4497 18.3158 10.2908 18.25 10.125 18.25ZM17.625 18.25H16.6875V17H14.8125V18.25H13.875C13.7092 18.25 13.5503 18.3158 13.4331 18.4331C13.3159 18.5503 13.25 18.7092 13.25 18.875V21.375C13.25 21.5408 13.3159 21.6997 13.4331 21.8169C13.5503 21.9342 13.7092 22 13.875 22H17.625C17.7908 22 17.9497 21.9342 18.067 21.8169C18.1842 21.6997 18.25 21.5408 18.25 21.375V18.875C18.25 18.7092 18.1842 18.5503 18.067 18.4331C17.9497 18.3158 17.7908 18.25 17.625 18.25ZM8.875 16.375C9.95203 16.3737 10.9846 15.9452 11.7461 15.1836C12.5077 14.4221 12.9362 13.3895 12.9375 12.3125V10.125H11.0625V12.3125C11.0618 12.8924 10.8311 13.4484 10.421 13.8585C10.0109 14.2686 9.45494 14.4993 8.875 14.5H6.0625C5.48256 14.4993 4.92658 14.2686 4.5165 13.8585C4.10642 13.4484 3.87572 12.8924 3.875 12.3125V11.6875C3.87562 11.1075 4.10628 10.5515 4.51638 10.1414C4.92649 9.73129 5.48253 9.50062 6.0625 9.5H7.23008C7.64501 8.71776 8.27161 8.06801 9.03829 7.625H6.0625C4.98541 7.62614 3.95276 8.05452 3.19114 8.81614C2.42952 9.57776 2.00114 10.6104 2 11.6875V12.3125C2.00124 13.3896 2.42966 14.4222 3.19125 15.1838C3.95285 15.9454 4.98544 16.3738 6.0625 16.375H8.875ZM17.9375 7.625H11.375C10.2979 7.62614 9.26526 8.05452 8.50364 8.81614C7.74202 9.57776 7.31364 10.6104 7.3125 11.6875V13.875H9.1875V11.6875C9.18812 11.1075 9.41878 10.5515 9.82888 10.1414C10.239 9.73129 10.795 9.50062 11.375 9.5H17.9375C18.5174 9.50072 19.0734 9.73143 19.4835 10.1415C19.8936 10.5516 20.1243 11.1076 20.125 11.6875V12.3125C20.1243 12.8924 19.8936 13.4484 19.4835 13.8585C19.0734 14.2686 18.5174 14.4993 17.9375 14.5H13.0195C12.6043 15.282 11.9778 15.9317 11.2113 16.375H17.9375C19.0145 16.3737 20.0471 15.9452 20.8086 15.1836C21.5702 14.4221 21.9987 13.3895 22 12.3125V11.6875C21.9988 10.6104 21.5703 9.57785 20.8087 8.81625C20.0471 8.05466 19.0146 7.62624 17.9375 7.625Z" fill="#1D1E23"/></svg>