<svg viewBox="0 0 24 24" fill="none" xmlns="http://www.w3.org/2000/svg"><path d="M17.6244 8.875C18.0483 8.87436 18.4679 8.96026 18.8574 9.12744C19.247 9.29462 19.5983 9.53956 19.8899 9.84727C20.162 10.1329 20.4892 10.3601 20.8518 10.5153C21.2144 10.6705 21.6048 10.7503 21.9992 10.75V2H2V10.75H2.07578C2.45618 10.7475 2.83203 10.667 3.18016 10.5136C3.52828 10.3603 3.8413 10.1372 4.09992 9.8582C4.52859 9.40269 5.08409 9.08633 5.69454 8.95002C6.30499 8.81371 6.94231 8.86372 7.52401 9.09362C8.10572 9.32352 8.60505 9.7227 8.9574 10.2395C9.30975 10.7563 9.4989 11.367 9.50038 11.9925C9.50186 12.618 9.3156 13.2296 8.9657 13.7481C8.6158 14.2665 8.11836 14.6681 7.53775 14.9007C6.95713 15.1334 6.32007 15.1864 5.70898 15.053C5.09788 14.9196 4.5409 14.6058 4.11007 14.1523C3.83805 13.8668 3.51078 13.6395 3.14817 13.4844C2.78556 13.3293 2.39518 13.2495 2.00078 13.25V22H22V13.25H21.9242C21.5438 13.2525 21.168 13.3328 20.8199 13.4861C20.4717 13.6395 20.1587 13.8625 19.9001 14.1414C19.5452 14.5186 19.1021 14.8017 18.6106 14.9652C18.1192 15.1287 17.5948 15.1675 17.0847 15.0781C16.5745 14.9886 16.0946 14.7738 15.6881 14.4529C15.2816 14.132 14.9612 13.7151 14.7557 13.2396C14.5503 12.7642 14.4662 12.2451 14.5111 11.7291C14.556 11.2131 14.7284 10.7164 15.0129 10.2836C15.2974 9.85074 15.685 9.49542 16.1408 9.24955C16.5967 9.00368 17.1065 8.87497 17.6244 8.875Z" fill="#1D1E23"/></svg>