<svg viewBox="0 0 24 24" fill="none" xmlns="http://www.w3.org/2000/svg"><path fill-rule="evenodd" clip-rule="evenodd" d="M15.75 2H7C6.66848 2 6.35054 2.1317 6.11612 2.36612C5.88169 2.60054 5.75 2.91848 5.75 3.25V20.75C5.75 21.0816 5.88169 21.3995 6.11612 21.6339C6.35054 21.8683 6.66848 22 7 22H15.75C16.0815 22 16.3995 21.8683 16.6339 21.6339C16.8683 21.3995 17 21.0816 17 20.75V3.25C17 2.91848 16.8683 2.60054 16.6339 2.36612C16.3995 2.1317 16.0815 2 15.75 2ZM9.81251 2.625H12.3125C12.3954 2.625 12.4749 2.65792 12.5335 2.71653C12.5921 2.77514 12.625 2.85462 12.625 2.9375C12.625 3.02038 12.5921 3.09987 12.5335 3.15847C12.4749 3.21708 12.3954 3.25 12.3125 3.25H9.81251C9.72963 3.25 9.65014 3.21708 9.59154 3.15847C9.53293 3.09987 9.50001 3.02038 9.50001 2.9375C9.50001 2.85462 9.53293 2.77514 9.59154 2.71653C9.65014 2.65792 9.72963 2.625 9.81251 2.625ZM14.8125 20.75H14.1875C14.1046 20.75 14.0251 20.7171 13.9665 20.6585C13.9079 20.5999 13.875 20.5204 13.875 20.4375C13.875 20.3546 13.9079 20.2752 13.9665 20.2166C14.0251 20.158 14.1046 20.125 14.1875 20.125H14.8125C14.8954 20.125 14.9749 20.158 15.0335 20.2166C15.0921 20.2752 15.125 20.3546 15.125 20.4375C15.125 20.5204 15.0921 20.5999 15.0335 20.6585C14.9749 20.7171 14.8954 20.75 14.8125 20.75ZM11.6875 20.75H11.0625C10.9796 20.75 10.9001 20.7171 10.8415 20.6585C10.7829 20.5999 10.75 20.5204 10.75 20.4375C10.75 20.3546 10.7829 20.2752 10.8415 20.2166C10.9001 20.158 10.9796 20.125 11.0625 20.125H11.6875C11.7704 20.125 11.8499 20.158 11.9085 20.2166C11.9671 20.2752 12 20.3546 12 20.4375C12 20.5204 11.9671 20.5999 11.9085 20.6585C11.8499 20.7171 11.7704 20.75 11.6875 20.75ZM8.5625 20.75H7.9375C7.85462 20.75 7.77514 20.7171 7.71653 20.6585C7.65793 20.5999 7.625 20.5204 7.625 20.4375C7.625 20.3546 7.65793 20.2752 7.71653 20.2166C7.77514 20.158 7.85462 20.125 7.9375 20.125H8.5625C8.64538 20.125 8.72487 20.158 8.78348 20.2166C8.84208 20.2752 8.875 20.3546 8.875 20.4375C8.875 20.5204 8.84208 20.5999 8.78348 20.6585C8.72487 20.7171 8.64538 20.75 8.5625 20.75ZM16.375 19.5H6.375L8.875 17H11.9691C12.2431 16.6934 12.5255 16.2845 12.8249 15.8511C13.2364 15.2554 13.6799 14.6134 14.1774 14.1266C14.4965 13.8133 14.5863 13.3875 14.4117 13.1C13.8047 12.1008 12.4086 13.8293 12.4086 13.8293V13.466L16.375 9.50001V19.5ZM8.07578 16.5492L6.375 18.25L6.37461 4.5H16.3746V8.25001L12.4086 12.216L8.07578 16.5492ZM13.0335 9.46953V10.341L13.8745 9.5V7.625C13.8745 7.45924 13.8087 7.30027 13.6915 7.18306C13.5743 7.06585 13.4153 7 13.2495 7H10.7495C10.5838 7 10.4248 7.06585 10.3076 7.18306C10.1904 7.30027 10.1245 7.45924 10.1245 7.625V10.125C10.1246 10.2624 10.17 10.396 10.2537 10.505C10.3374 10.6141 10.4547 10.6925 10.5874 10.7281V9.46953C10.5874 8.83125 11.1702 8.25 11.8105 8.25C12.4507 8.25 13.0335 8.83125 13.0335 9.46953ZM11.8111 8.875C12.1104 8.875 12.4092 9.17227 12.4092 9.46953V10.966L11.2131 12.1617V9.46953C11.2131 9.17227 11.5104 8.875 11.8111 8.875ZM10.9481 11.8499C10.8302 11.7708 10.6878 11.7362 10.5467 11.7525C10.399 11.7705 10.2632 11.8423 10.165 11.9541C10.0669 12.0659 10.0134 12.2099 10.0147 12.3587V12.9376C10.0144 12.8538 9.99642 12.7709 9.96195 12.6944C9.92747 12.618 9.87726 12.5497 9.8146 12.4939C9.75193 12.4382 9.67822 12.3963 9.59827 12.371C9.51832 12.3457 9.43393 12.3375 9.3506 12.347C9.20335 12.3656 9.06806 12.4376 8.97041 12.5493C8.87276 12.6611 8.81956 12.8048 8.82092 12.9532V13.5322C8.82092 13.1814 8.58341 12.8986 8.22287 12.9376C7.9174 12.9712 7.62482 13.2654 7.62482 13.5708V14.7142C7.62204 15.0308 7.65334 15.3468 7.71818 15.6568L11.1904 12.1845C11.152 12.0477 11.0661 11.9291 10.9481 11.8499Z" fill="#1D1E23"/></svg>