<svg viewBox="0 0 24 24" fill="none" xmlns="http://www.w3.org/2000/svg"><path d="M10.125 13.875L11.375 15.125L6.375 20.125L3.875 17.625L5.125 16.375L6.375 17.625L10.125 13.875ZM8.25 8.25V10.75H9.5V8.25H8.25ZM9.5 3.875H8.25V6.375H9.5V3.875ZM17 8.25H15.75V10.75H17V8.25ZM17 3.875H15.75V6.375H17V3.875ZM15.125 8.25H14.5V10.75H15.125V8.25ZM12 3.875H11.375V6.375H12V3.875ZM13.875 3.875H12.625V6.375H13.875V3.875ZM11.375 10.75H12V8.25H11.375V10.75ZM13.875 8.25H12.625V10.75H13.875V8.25ZM15.125 3.875H14.5V6.375H15.125V3.875ZM10.125 8.25V10.75H10.75V8.25H10.125ZM10.75 3.875H10.125V6.375H10.75V3.875ZM7.625 3.875H7V6.375H7.625V3.875ZM18.875 8.25H17.625V11.375H18.875V8.25ZM18.875 3.875H17.625V6.375H18.875V3.875ZM6.375 8.25H5.125V11.375H6.375V8.25ZM6.375 3.875H5.125V6.375H6.375V3.875ZM7 8.25V10.75H7.625V8.25H7ZM20.125 7H3.875V7.625H20.125V7ZM22 2V22H2V2H22ZM21.375 2.625H2.625V21.375H21.375V2.625ZM17.625 16.375V15.125H16.375V16.375H17.625ZM17.625 12.625H16.375V13.875H18.875V15.125H20.125V12.625H17.625ZM15.125 15.125H16.375V13.875H15.125V15.125ZM15.125 13.875V12.625H12.625V15.125H13.875V13.875H15.125ZM15.125 15.125H13.875V16.375H15.125V15.125ZM12.625 16.375V17.625H13.875V16.375H12.625ZM18.875 17.625V18.875H17.625V17.625H16.375V16.375H15.125V17.625H13.875V18.875H12.625V20.125H15.125V18.875H16.375V20.125H20.125V16.375H17.625V17.625H18.875Z" fill="#1D1E23"/></svg>