<svg viewBox="0 0 24 24" fill="none" xmlns="http://www.w3.org/2000/svg"><g><path fill-rule="evenodd" clip-rule="evenodd" d="M20.0289 5.35938C15.8125 4.5 11.75 2 11.75 2C11.75 2 7.6875 4.5 3.47109 5.35938C3.09805 5.4375 3 5.95781 3 6.33828V13.25C3 18.25 11.75 22 11.75 22C11.75 22 20.5 18.25 20.5 13.25V6.33828C20.5 5.95781 20.402 5.4375 20.0289 5.35938ZM8.00313 13.7969C8.00313 14.0015 7.92184 14.1977 7.77716 14.3424C7.63248 14.4871 7.43625 14.5684 7.23164 14.5684C7.02703 14.5684 6.8308 14.4871 6.68612 14.3424C6.54144 14.1977 6.46016 14.0015 6.46016 13.7969V10.5664C6.46469 10.3647 6.54799 10.1729 6.69221 10.0319C6.83644 9.89085 7.03013 9.81189 7.23184 9.81189C7.43354 9.81189 7.62724 9.89085 7.77146 10.0319C7.91568 10.1729 7.99898 10.3647 8.00352 10.5664L8.00313 13.7969ZM14.3766 15.7695H13.8141V17.4785C13.8141 17.6831 13.7328 17.8794 13.5881 18.024C13.4434 18.1687 13.2472 18.25 13.0426 18.25C12.838 18.25 12.6417 18.1687 12.4971 18.024C12.3524 17.8794 12.2711 17.6831 12.2711 17.4785V15.7688H11.2297V17.4777C11.232 17.5805 11.2138 17.6827 11.176 17.7783C11.1383 17.8739 11.0819 17.961 11.01 18.0344C10.9382 18.1079 10.8524 18.1663 10.7576 18.2062C10.6629 18.246 10.5612 18.2666 10.4584 18.2666C10.3556 18.2666 10.2539 18.246 10.1592 18.2062C10.0644 18.1663 9.97862 18.1079 9.90677 18.0344C9.83492 17.961 9.77848 17.8739 9.74076 17.7783C9.70304 17.6827 9.6848 17.5805 9.68711 17.4777V15.7684H9.12617C9.01799 15.7687 8.9108 15.7477 8.81078 15.7064C8.71076 15.6652 8.61988 15.6046 8.54338 15.5281C8.46689 15.4516 8.40627 15.3607 8.36504 15.2607C8.32381 15.1607 8.30276 15.0535 8.30312 14.9453V9.93867H15.2004V14.9453C15.2001 15.1636 15.1131 15.3728 14.9587 15.5271C14.8042 15.6813 14.5949 15.768 14.3766 15.768V15.7695ZM8.27344 9.6707C8.27344 8.47695 8.98828 7.4375 10.0465 6.8918L9.50781 5.90898C9.50109 5.89667 9.49686 5.88316 9.49537 5.86921C9.49387 5.85527 9.49513 5.84116 9.49909 5.82771C9.50304 5.81425 9.50961 5.8017 9.51841 5.79078C9.52721 5.77986 9.53808 5.77078 9.55039 5.76406C9.5627 5.75734 9.57622 5.75311 9.59016 5.75162C9.60411 5.75012 9.61821 5.75138 9.63167 5.75534C9.64513 5.75929 9.65767 5.76586 9.66859 5.77466C9.67951 5.78346 9.68859 5.79433 9.69531 5.80664L10.2398 6.79766C10.7159 6.589 11.23 6.48127 11.7498 6.48127C12.2696 6.48127 12.7837 6.589 13.2598 6.79766L13.8035 5.80391C13.8101 5.79121 13.8191 5.77995 13.8301 5.77079C13.8411 5.76164 13.8538 5.75478 13.8674 5.75062C13.8811 5.74645 13.8955 5.74507 13.9097 5.74654C13.9239 5.74802 13.9377 5.75233 13.9502 5.75922C13.9627 5.76611 13.9737 5.77543 13.9826 5.78665C13.9915 5.79786 13.998 5.81074 14.0018 5.82451C14.0056 5.83829 14.0066 5.85269 14.0048 5.86686C14.0029 5.88104 13.9982 5.89469 13.991 5.90703L13.4523 6.89062C14.5094 7.4375 15.2234 8.475 15.223 9.66836L8.27344 9.6707ZM16.2691 14.566C16.1678 14.5661 16.0675 14.5461 15.9738 14.5074C15.8802 14.4686 15.7952 14.4118 15.7235 14.3402C15.6519 14.2685 15.595 14.1834 15.5563 14.0898C15.5175 13.9962 15.4976 13.8959 15.4977 13.7945V10.5641C15.4953 10.4613 15.5136 10.3591 15.5513 10.2635C15.589 10.1679 15.6455 10.0808 15.7173 10.0074C15.7892 9.93387 15.875 9.87548 15.9697 9.83562C16.0644 9.79575 16.1662 9.77522 16.2689 9.77522C16.3717 9.77522 16.4735 9.79575 16.5682 9.83562C16.6629 9.87548 16.7487 9.93387 16.8206 10.0074C16.8924 10.0808 16.9489 10.1679 16.9866 10.2635C17.0243 10.3591 17.0425 10.4613 17.0402 10.5641V13.7949C17.0401 13.9994 16.9589 14.1955 16.8143 14.3401C16.6697 14.4846 16.4736 14.5659 16.2691 14.566ZM13.3316 7.82773C13.2739 7.82758 13.2174 7.84455 13.1694 7.8765C13.1213 7.90845 13.0838 7.95395 13.0615 8.00723C13.0393 8.06051 13.0334 8.11919 13.0445 8.17583C13.0557 8.23248 13.0834 8.28454 13.1241 8.32545C13.1649 8.36635 13.2168 8.39425 13.2734 8.40561C13.33 8.41698 13.3887 8.4113 13.4421 8.3893C13.4954 8.3673 13.5411 8.32996 13.5732 8.28201C13.6054 8.23406 13.6226 8.17765 13.6227 8.11992C13.6224 8.04272 13.5916 7.96876 13.5372 7.91406C13.4827 7.85937 13.4088 7.82835 13.3316 7.82773ZM10.0055 7.87769C10.0535 7.84563 10.1099 7.82851 10.1676 7.82851C10.245 7.82851 10.3192 7.85926 10.3739 7.91398C10.4286 7.9687 10.4594 8.04292 10.4594 8.12031C10.4594 8.17802 10.4423 8.23444 10.4102 8.28242C10.3781 8.33041 10.3326 8.36781 10.2792 8.3899C10.2259 8.41198 10.1673 8.41776 10.1107 8.4065C10.054 8.39524 10.0021 8.36745 9.96125 8.32664C9.92044 8.28583 9.89265 8.23384 9.88139 8.17724C9.87013 8.12063 9.87591 8.06196 9.89799 8.00864C9.92008 7.95533 9.95748 7.90975 10.0055 7.87769Z" fill="#1D1E23"/></g></svg>