<svg viewBox="0 0 24 24" fill="none" xmlns="http://www.w3.org/2000/svg"><path d="M14.75 2H8.5C7.83696 2 7.20107 2.26339 6.73223 2.73223C6.26339 3.20107 6 3.83696 6 4.5V19.5C6 20.163 6.26339 20.7989 6.73223 21.2678C7.20107 21.7366 7.83696 22 8.5 22H14.75C15.413 22 16.0489 21.7366 16.5178 21.2678C16.9866 20.7989 17.25 20.163 17.25 19.5V4.5C17.25 3.83696 16.9866 3.20107 16.5178 2.73223C16.0489 2.26339 15.413 2 14.75 2ZM10.375 3.25H12.875C12.9579 3.25 13.0374 3.28293 13.096 3.34153C13.1546 3.40014 13.1875 3.47962 13.1875 3.5625C13.1875 3.64538 13.1546 3.72488 13.096 3.78348C13.0374 3.84209 12.9579 3.875 12.875 3.875H10.375C10.2921 3.875 10.2126 3.84209 10.154 3.78348C10.0954 3.72488 10.0625 3.64538 10.0625 3.5625C10.0625 3.47962 10.0954 3.40014 10.154 3.34153C10.2126 3.28293 10.2921 3.25 10.375 3.25ZM8.8125 20.75H8.1875C8.10462 20.75 8.02514 20.7171 7.96653 20.6585C7.90793 20.5999 7.875 20.5204 7.875 20.4375C7.875 20.3546 7.90793 20.2751 7.96653 20.2165C8.02514 20.1579 8.10462 20.125 8.1875 20.125H8.8125C8.89538 20.125 8.97486 20.1579 9.03346 20.2165C9.09207 20.2751 9.125 20.3546 9.125 20.4375C9.125 20.5204 9.09207 20.5999 9.03346 20.6585C8.97486 20.7171 8.89538 20.75 8.8125 20.75ZM11.9375 20.75H11.3125C11.2296 20.75 11.1501 20.7171 11.0915 20.6585C11.0329 20.5999 11 20.5204 11 20.4375C11 20.3546 11.0329 20.2751 11.0915 20.2165C11.1501 20.1579 11.2296 20.125 11.3125 20.125H11.9375C12.0204 20.125 12.0999 20.1579 12.1585 20.2165C12.2171 20.2751 12.25 20.3546 12.25 20.4375C12.25 20.5204 12.2171 20.5999 12.1585 20.6585C12.0999 20.7171 12.0204 20.75 11.9375 20.75ZM15.0625 20.75H14.4375C14.3546 20.75 14.2751 20.7171 14.2165 20.6585C14.1579 20.5999 14.125 20.5204 14.125 20.4375C14.125 20.3546 14.1579 20.2751 14.2165 20.2165C14.2751 20.1579 14.3546 20.125 14.4375 20.125H15.0625C15.1454 20.125 15.2249 20.1579 15.2835 20.2165C15.3421 20.2751 15.375 20.3546 15.375 20.4375C15.375 20.5204 15.3421 20.5999 15.2835 20.6585C15.2249 20.7171 15.1454 20.75 15.0625 20.75ZM16.625 19.5H6.625V4.5H16.625V19.5ZM8.55937 16.552L10.4387 14.6727C10.3535 14.3547 10.3535 14.0199 10.4387 13.7019C10.524 13.384 10.6914 13.094 10.9242 12.8613C11.1883 12.5971 11.5252 12.4179 11.8919 12.3465C12.2585 12.2751 12.6381 12.3148 12.982 12.4605L11.9184 13.5242C11.8747 13.5678 11.84 13.6195 11.8163 13.6765C11.7927 13.7335 11.7805 13.7946 11.7805 13.8563C11.7805 13.9179 11.7927 13.979 11.8163 14.036C11.84 14.093 11.8747 14.1447 11.9184 14.1883L12.25 14.5199C12.2935 14.5636 12.3453 14.5983 12.4023 14.622C12.4593 14.6456 12.5203 14.6578 12.582 14.6578C12.6437 14.6578 12.7048 14.6456 12.7618 14.622C12.8188 14.5983 12.8705 14.5636 12.9141 14.5199L13.9777 13.4563C14.1235 13.8002 14.1632 14.1798 14.0918 14.5464C14.0204 14.913 13.8411 15.25 13.577 15.5141C13.3442 15.7469 13.0543 15.9143 12.7364 15.9996C12.4184 16.0848 12.0836 16.0848 11.7656 15.9996L11.077 16.6887H14.1262C14.4577 16.6887 14.7756 16.557 15.0101 16.3226C15.2445 16.0881 15.3762 15.7702 15.3762 15.4387V11.6887H14.7512V10.4387C14.7512 9.60988 14.4219 8.81501 13.8359 8.22896C13.2498 7.64291 12.455 7.31368 11.6262 7.31368C10.7974 7.31368 10.0025 7.64291 9.41646 8.22896C8.83041 8.81501 8.50118 9.60988 8.50118 10.4387V11.6887H7.87618V15.4387C7.87633 15.6692 7.94022 15.8952 8.06079 16.0916C8.18137 16.2881 8.35392 16.4474 8.55937 16.552ZM9.75 10.4375C9.75 9.94022 9.94755 9.46331 10.2992 9.11168C10.6508 8.76005 11.1277 8.5625 11.625 8.5625C12.1223 8.5625 12.5992 8.76005 12.9508 9.11168C13.3025 9.46331 13.5 9.94022 13.5 10.4375V11.6875H9.75V10.4375Z" fill="#1D1E23"/></svg>