<svg viewBox="0 0 24 24" fill="none" xmlns="http://www.w3.org/2000/svg"><path d="M21.999 17.3133V4.18742C21.9991 3.75473 21.8708 3.33175 21.6304 2.97197C21.39 2.6122 21.0483 2.33178 20.6486 2.1662C20.249 2.00086 19.8093 1.95767 19.3852 2.04208C18.961 2.12649 18.5714 2.33472 18.2656 2.64045L11.9995 8.90651L5.73346 2.64045C5.4276 2.33472 5.038 2.12649 4.61386 2.04208C4.18972 1.95767 3.75008 2.00086 3.35048 2.1662C2.95072 2.33178 2.60904 2.6122 2.36866 2.97197C2.12827 3.33175 1.99998 3.75473 2 4.18742V17.3133L6.3753 12.938V9.46748L8.90672 11.9993L2.64067 18.2654C2.23047 18.6756 2.00004 19.232 2.00004 19.8121C2.00004 20.3923 2.23047 20.9487 2.64067 21.3589C2.84355 21.5625 3.08466 21.7239 3.35015 21.8339C3.61564 21.9439 3.90027 22.0004 4.18765 22C4.47503 22.0003 4.75963 21.9439 5.02511 21.8338C5.2906 21.7238 5.53173 21.5624 5.73464 21.3589L11.9983 15.0929L18.2644 21.3589C18.4673 21.5625 18.7084 21.7239 18.9739 21.8339C19.2394 21.9439 19.524 22.0004 19.8114 22C20.0988 22.0003 20.3834 21.9439 20.6489 21.8338C20.9143 21.7238 21.1555 21.5624 21.3584 21.3589C21.7686 20.9487 21.999 20.3923 21.999 19.8121C21.999 19.232 21.7686 18.6756 21.3584 18.2654L15.0919 11.9993L17.6237 9.46748V12.9369L21.999 17.3133Z" fill="#1D1E23"/></svg>