<svg viewBox="0 0 24 24" fill="none" xmlns="http://www.w3.org/2000/svg"><path fill-rule="evenodd" clip-rule="evenodd" d="M19.098 11.9941C19.0984 12.3096 19.079 12.6248 19.0398 12.9379L21.1984 15.368L19.3262 18.6168L16.1406 17.9676C15.6383 18.3509 15.0894 18.6689 14.507 18.9141L13.482 21.9973L9.73203 22L8.70234 18.9188C8.11962 18.6743 7.5702 18.3571 7.06719 17.9746L3.88281 18.6289L2.00547 15.3836L4.15977 12.95C4.12028 12.637 4.10032 12.3218 4.1 12.0063C4.0996 11.6906 4.11904 11.3753 4.1582 11.0621L2 8.63203L3.87187 5.3836L7.05781 6.03281C7.56023 5.64955 8.10912 5.3314 8.6914 5.08594L9.71602 2.00313L13.466 2L14.4957 5.08125C15.0784 5.32575 15.6278 5.64298 16.1309 6.02539L19.3156 5.3711L21.193 8.6168L19.0383 11.0504C19.078 11.3634 19.0979 11.6786 19.098 11.9941ZM14.3581 7.36651C14.1237 7.13209 13.8057 7.00039 13.4742 7.00039V7C13.31 7 13.1475 7.03234 12.9958 7.09519C12.8441 7.15803 12.7063 7.25014 12.5902 7.36626C12.4741 7.48237 12.3821 7.62022 12.3193 7.77192C12.2565 7.92362 12.2242 8.08621 12.2242 8.25039C12.2242 8.58191 12.3559 8.89986 12.5903 9.13428C12.8248 9.3687 13.1427 9.50039 13.4742 9.50039C13.8057 9.50039 14.1237 9.3687 14.3581 9.13428C14.5925 8.89986 14.7242 8.58191 14.7242 8.25039C14.7242 7.91887 14.5925 7.60093 14.3581 7.36651ZM6.78228 7.80845C6.66507 7.92566 6.59922 8.08463 6.59922 8.25039H6.59883C6.59883 8.41615 6.66467 8.57512 6.78189 8.69233C6.8991 8.80954 7.05807 8.87539 7.22383 8.87539H11.7062C11.6352 8.67468 11.5988 8.46332 11.5988 8.25039C11.5988 8.03747 11.6352 7.8261 11.7062 7.62539H7.22422C7.05846 7.62539 6.89949 7.69124 6.78228 7.80845ZM10.6081 12.8843C10.8425 12.6499 10.9742 12.3319 10.9742 12.0004V12C10.9741 11.6685 10.8424 11.3507 10.608 11.1164C10.3736 10.882 10.0557 10.7504 9.72422 10.7504C9.3927 10.7504 9.07475 10.8821 8.84033 11.1165C8.60591 11.3509 8.47422 11.6689 8.47422 12.0004C8.47422 12.3319 8.60591 12.6499 8.84033 12.8843C9.07475 13.1187 9.3927 13.2504 9.72422 13.2504C10.0557 13.2504 10.3737 13.1187 10.6081 12.8843ZM6.78228 11.5584C6.66507 11.6757 6.59922 11.8346 6.59922 12.0004H6.59883C6.59883 12.1662 6.66467 12.3251 6.78189 12.4423C6.8991 12.5595 7.05807 12.6254 7.22383 12.6254H7.95625C7.88516 12.4247 7.84883 12.2133 7.84883 12.0004C7.84883 11.7875 7.88516 11.5761 7.95625 11.3754H7.22422C7.05846 11.3754 6.89949 11.4412 6.78228 11.5584ZM6.78228 16.1923C6.89949 16.3095 7.05846 16.3754 7.22422 16.3754H9.83125C9.76016 16.1747 9.72383 15.9633 9.72383 15.7504C9.72383 15.5375 9.76016 15.3261 9.83125 15.1254H7.22422C7.05846 15.1254 6.89949 15.1912 6.78228 15.3084C6.66507 15.4257 6.59922 15.5846 6.59922 15.7504C6.59922 15.9162 6.66507 16.0751 6.78228 16.1923ZM10.7153 16.6343C10.9498 16.8687 11.2677 17.0004 11.5992 17.0004V17C11.9307 17 12.2486 16.8684 12.483 16.634C12.7174 16.3997 12.8491 16.0818 12.8492 15.7504C12.8492 15.4189 12.7175 15.1009 12.4831 14.8665C12.2487 14.6321 11.9307 14.5004 11.5992 14.5004C11.2677 14.5004 10.9498 14.6321 10.7153 14.8665C10.4809 15.1009 10.3492 15.4189 10.3492 15.7504C10.3492 16.0819 10.4809 16.3999 10.7153 16.6343ZM13.3668 16.3754H15.9742V16.375C16.1399 16.375 16.2988 16.3092 16.416 16.1921C16.5332 16.075 16.5991 15.9161 16.5992 15.7504C16.5992 15.5846 16.5334 15.4257 16.4162 15.3084C16.299 15.1912 16.14 15.1254 15.9742 15.1254H13.3668C13.4381 15.3261 13.4744 15.5374 13.4742 15.7504C13.4744 15.9633 13.4381 16.1747 13.3668 16.3754ZM16.4162 12.4423C16.5334 12.3251 16.5992 12.1662 16.5992 12.0004C16.5992 11.8346 16.5334 11.6757 16.4162 11.5584C16.299 11.4412 16.14 11.3754 15.9742 11.3754H11.4918C11.5631 11.5761 11.5994 11.7874 11.5992 12.0004C11.5994 12.2133 11.5631 12.4247 11.4918 12.6254H15.9742C16.14 12.6254 16.299 12.5595 16.4162 12.4423ZM16.4162 8.69233C16.5334 8.57512 16.5992 8.41615 16.5992 8.25039C16.5992 8.08463 16.5334 7.92566 16.4162 7.80845C16.299 7.69124 16.14 7.62539 15.9742 7.62539H15.2418C15.3131 7.82605 15.3494 8.03745 15.3492 8.25039C15.3494 8.46333 15.3131 8.67473 15.2418 8.87539H15.9742C16.14 8.87539 16.299 8.80954 16.4162 8.69233ZM14.0996 8.25C14.0996 8.59518 13.8198 8.875 13.4746 8.875C13.1294 8.875 12.8496 8.59518 12.8496 8.25C12.8496 7.90482 13.1294 7.625 13.4746 7.625C13.8198 7.625 14.0996 7.90482 14.0996 8.25ZM10.3496 12C10.3496 12.3452 10.0698 12.625 9.72461 12.625C9.37943 12.625 9.09961 12.3452 9.09961 12C9.09961 11.6548 9.37943 11.375 9.72461 11.375C10.0698 11.375 10.3496 11.6548 10.3496 12ZM11.5996 16.375C11.9448 16.375 12.2246 16.0952 12.2246 15.75C12.2246 15.4048 11.9448 15.125 11.5996 15.125C11.2544 15.125 10.9746 15.4048 10.9746 15.75C10.9746 16.0952 11.2544 16.375 11.5996 16.375Z" fill="#1D1E23"/></svg>