<svg viewBox="0 0 24 24" fill="none" xmlns="http://www.w3.org/2000/svg"><path fill-rule="evenodd" clip-rule="evenodd" d="M11.3106 3.58591L6.78207 8.11478C6.69145 8.2052 6.61966 8.31269 6.57085 8.43103C6.52204 8.54938 6.49718 8.67621 6.4977 8.80422V8.83547L5.46177 9.8714C5.23332 9.44118 5.14896 8.94901 5.2211 8.46727C5.29325 7.98554 5.51809 7.53967 5.86255 7.19525L10.391 2.66638C10.8179 2.23969 11.3968 2 12.0004 2C12.604 2 13.1828 2.23969 13.6097 2.66638L18.1382 7.19604C18.5629 7.62084 18.8025 8.19633 18.8046 8.79701C18.8067 9.3977 18.5712 9.97485 18.1496 10.4026L18.1382 10.4144L13.6097 14.9432C13.189 15.364 12.6203 15.6032 12.0253 15.6095C11.4303 15.6159 10.8566 15.3889 10.427 14.9772L9.96603 14.5179L10.8863 13.5964L11.3461 14.0561C11.5318 14.2236 11.7747 14.3135 12.0247 14.3071C12.2748 14.3008 12.5128 14.1988 12.6898 14.0222L17.2187 9.49367L17.23 9.48196C17.4075 9.29793 17.5057 9.05168 17.5035 8.79606C17.5014 8.54044 17.3992 8.29584 17.2187 8.11478L12.6898 3.58591C12.5068 3.40331 12.2588 3.30076 12.0002 3.30076C11.7416 3.30076 11.4936 3.40331 11.3106 3.58591ZM7.22991 11.7835L8.14943 10.862L9.04786 11.7605L8.13966 12.6683L8.12834 12.68L7.22991 11.7835ZM21.3335 16.8046C21.5449 16.5933 21.7126 16.3425 21.827 16.0663C21.9414 15.7902 22.0003 15.4943 22.0003 15.1954C22.0003 14.8965 21.9414 14.6006 21.827 14.3245C21.7126 14.0484 21.5449 13.7975 21.3335 13.5862L18.6093 10.8617L18.6038 10.8674C18.6011 10.8703 18.5984 10.8731 18.5956 10.8757L17.6898 11.7835L20.414 14.5077C20.5966 14.6908 20.6991 14.9388 20.6991 15.1974C20.6991 15.4559 20.5966 15.7039 20.414 15.887L15.8855 20.4155C15.7024 20.5981 15.4544 20.7006 15.1958 20.7006C14.9373 20.7006 14.6893 20.5981 14.5062 20.4155L13.3785 19.2874L12.4589 20.2069L13.5851 21.3331C13.7964 21.5445 14.0473 21.7122 14.3234 21.8266C14.5996 21.941 14.8956 21.9999 15.1945 21.9999C15.4934 21.9999 15.7894 21.941 16.0655 21.8266C16.3416 21.7122 16.5925 21.5445 16.8038 21.3331L21.3335 16.8046ZM14.3071 15.1632L15.343 14.1272C15.5715 14.5578 15.6558 15.0503 15.5833 15.5323C15.5109 16.0143 15.2856 16.4602 14.9406 16.8046L10.4137 21.3331C10.2025 21.5445 9.95159 21.7122 9.67548 21.8266C9.39938 21.941 9.10343 21.9999 8.80456 21.9999C8.50568 21.9999 8.20973 21.941 7.93362 21.8266C7.65751 21.7122 7.40666 21.5445 7.19539 21.3331L2.66652 16.8046C2.23975 16.3778 2 15.799 2 15.1954C2 14.5919 2.23975 14.013 2.66652 13.5862L7.19539 9.05736C7.62222 8.63069 8.20104 8.39102 8.80456 8.39102C9.40808 8.39102 9.98689 8.63069 10.4137 9.05736L11.0805 9.72415L10.161 10.6437L9.4942 9.97689C9.31113 9.79429 9.06312 9.69174 8.80456 9.69174C8.54599 9.69174 8.29798 9.79429 8.11491 9.97689L3.58604 14.5058C3.40345 14.6888 3.3009 14.9368 3.3009 15.1954C3.3009 15.454 3.40345 15.702 3.58604 15.885L8.11335 20.4128C8.29642 20.5954 8.54443 20.6979 8.80299 20.6979C9.06156 20.6979 9.30957 20.5954 9.49264 20.4128L14.0211 15.8843C14.112 15.7939 14.1841 15.6864 14.2332 15.568C14.2823 15.4496 14.3074 15.3226 14.3071 15.1944V15.1632ZM12.9195 11.5634L12 12.4829L12.6551 13.1381L13.5746 12.2186L12.9195 11.5634ZM10.3903 18.1377L8.59732 16.3448C8.17247 15.9201 7.93273 15.3447 7.93039 14.744C7.92805 14.1434 8.16329 13.5661 8.58482 13.1382L13.1246 8.59756C13.5453 8.17681 14.1141 7.93763 14.7091 7.93128C15.3041 7.92492 15.8778 8.1519 16.3074 8.56358L16.7687 9.02452L15.8492 9.94405L15.3895 9.48388C15.2037 9.3163 14.9607 9.2264 14.7106 9.23273C14.4605 9.23905 14.2224 9.34111 14.0453 9.51787L9.50552 14.0581C9.32809 14.2421 9.22989 14.4883 9.23201 14.744C9.23413 14.9996 9.33639 15.2442 9.51684 15.4252L11.3098 17.2182L10.3903 18.1377Z" fill="#1D1E23"/></svg>