<svg viewBox="0 0 24 24" fill="none" xmlns="http://www.w3.org/2000/svg"><path d="M15.75 7L12.4688 10.75H15.5938L9.5 17L11.375 12.625H8.25L12 7H15.75ZM22 11.375V12.625H20.7273C20.4215 16.9609 16.959 20.4219 12.625 20.7277V22H11.375V20.7277C7.03906 20.4219 3.57814 16.9594 3.27228 12.625H2V11.375H3.27228C3.57814 7.04102 7.04063 3.57852 11.375 3.27266V2H12.625V3.27266C16.9609 3.57852 20.4215 7.04102 20.7273 11.375H22ZM18.25 12.625V11.375H19.4746C19.3265 9.60819 18.5572 7.95101 17.3032 6.69751C16.0493 5.44402 14.3919 4.67529 12.625 4.52773V5.75156H11.375V4.52773C9.60804 4.67551 7.95058 5.44454 6.69679 6.69833C5.44299 7.95213 4.67395 9.6096 4.52617 11.3766H5.75V12.6266H4.52617C4.67386 14.3936 5.44285 16.0511 6.69666 17.305C7.95046 18.5589 9.60797 19.328 11.375 19.4758V18.2516H12.625V19.4758C14.3924 19.3281 16.0503 18.5589 17.3043 17.3047C18.5583 16.0505 19.3272 14.3924 19.4746 12.625H18.25Z" fill="#1D1E23"/></svg>