<svg viewBox="0 0 24 24" fill="none" xmlns="http://www.w3.org/2000/svg"><path d="M21.0625 11.875V9.68751C21.0625 8.4443 20.5687 7.25201 19.6896 6.37293 18.8105 5.49385 17.6182 5 16.375 5 15.1318 5 13.9395 5.49385 13.0604 6.37293 12.1814 7.25201 11.6875 8.4443 11.6875 9.68751V11.875H10.75V19.0625C10.7507 19.3109 10.8497 19.549 11.0254 19.7246 11.201 19.9003 11.4391 19.9993 11.6875 20H21.0625C21.3109 19.9993 21.549 19.9003 21.7246 19.7246 21.9003 19.549 21.9993 19.3109 22 19.0625V11.875H21.0625ZM19.1875 11.875H13.5625V9.68751C13.5625 8.94158 13.8588 8.22621 14.3863 7.69877 14.9137 7.17132 15.6291 6.875 16.375 6.875 17.1209 6.875 17.8363 7.17132 18.3637 7.69877 18.8912 8.22621 19.1875 8.94158 19.1875 9.68751V11.875ZM2 5.9375V19.5312C2 19.6556 2.04939 19.7748 2.1373 19.8627 2.2252 19.9506 2.34443 20 2.46875 20H7.62501V5H2.9375C2.68886 5 2.4504 5.09877 2.27459 5.27458 2.09877 5.4504 2 5.68886 2 5.9375ZM3.40625 9.21876C3.31354 9.21876 3.22292 9.19126 3.14583 9.13975 3.06875 9.08825 3.00866 9.01504 2.97318 8.92939 2.9377 8.84374 2.92842 8.74948 2.94651 8.65855 2.9646 8.56762 3.00924 8.4841 3.0748 8.41855 3.14035 8.35299 3.22388 8.30834 3.3148 8.29026 3.40573 8.27217 3.49999 8.28146 3.58564 8.31694 3.67129 8.35242 3.7445 8.41249 3.796 8.48957 3.84751 8.56666 3.875 8.65729 3.875 8.75 3.875 8.87433 3.82562 8.99356 3.73771 9.08146 3.6498 9.16937 3.53057 9.21876 3.40625 9.21876ZM4.8125 9.21876C4.71979 9.21876 4.62917 9.19126 4.55208 9.13975 4.475 9.08825 4.41491 9.01504 4.37943 8.92939 4.34396 8.84374 4.33467 8.74948 4.35276 8.65855 4.37085 8.56762 4.41549 8.4841 4.48105 8.41855 4.5466 8.35299 4.63013 8.30834 4.72106 8.29026 4.81198 8.27217 4.90624 8.28146 4.99189 8.31694 5.07754 8.35242 5.15075 8.41249 5.20226 8.48957 5.25376 8.56666 5.28125 8.65729 5.28125 8.75 5.28125 8.87433 5.23187 8.99356 5.14396 9.08146 5.05606 9.16937 4.93682 9.21876 4.8125 9.21876ZM6.21876 9.21876C6.12605 9.21876 6.03542 9.19126 5.95834 9.13975 5.88125 9.08825 5.82117 9.01504 5.78569 8.92939 5.75021 8.84374 5.74093 8.74948 5.75901 8.65855 5.7771 8.56762 5.82174 8.4841 5.8873 8.41855 5.95286 8.35299 6.03638 8.30834 6.12731 8.29026 6.21824 8.27217 6.31249 8.28146 6.39814 8.31694 6.48379 8.35242 6.557 8.41249 6.60851 8.48957 6.66002 8.56666 6.68751 8.65729 6.68751 8.75 6.68751 8.87433 6.63812 8.99356 6.55021 9.08146 6.46231 9.16937 6.34308 9.21876 6.21876 9.21876ZM6.68751 7.8125H2.9375V6.875H6.68751V7.8125Z" fill="#1D1E23"/><path d="M17 11.25V7.59143C16.6735 7.49409 16.3288 7.47436 15.9934 7.53379 15.6579 7.59323 15.341 7.7302 15.0678 7.93378 14.7946 8.13736 14.5728 8.40194 14.42 8.70641 14.2671 9.01089 14.1875 9.34685 14.1875 9.68753V11.25H17ZM10.125 19.0625V11.25H11.0625V9.68751C11.0633 8.72452 11.3255 7.77982 11.8213 6.95425 12.3171 6.12868 13.0277 5.45323 13.8774 5H8.09375V20H10.4375C10.2342 19.7298 10.1245 19.4007 10.125 19.0625Z" fill="#1D1E23"/></svg>