<svg viewBox="0 0 24 24" fill="none" xmlns="http://www.w3.org/2000/svg"><path d="M21.528 18.4945C21.2309 18.9334 20.7981 19.2628 20.2958 19.432L19.0124 19.8617C18.5306 20.0238 18.0123 20.0438 17.5193 19.9195C17.4688 19.9066 17.4241 19.8772 17.3922 19.8359C17.3603 19.7947 17.343 19.744 17.3432 19.6918V19.2472C17.343 19.1978 17.3584 19.1495 17.3873 19.1094L18.2352 17.8495C18.2532 17.8224 18.2653 17.7918 18.2708 17.7597C18.2764 17.7276 18.2751 17.6948 18.2672 17.6632C18.1833 17.3229 17.3432 13.4294 17.3432 13.4294C17.3432 12.0231 16.8776 12.0231 16.8776 11.5523C16.8776 9.20574 14.7686 9.20574 13.8363 9.20574C13.7625 9.20574 13.6953 9.11824 13.602 8.97135H15.0131C15.1674 8.97135 15.3544 8.90847 15.5524 8.84206C15.6919 8.79518 15.8649 8.73659 15.943 8.73659H20.418C20.242 9.05832 20.1866 9.43236 20.2618 9.79133L21.9928 17.11C22.0682 17.469 21.528 18.4945 21.528 18.4945ZM16.4117 11.5856C16.4117 11.5746 16.4117 11.5637 16.4117 11.5523C16.4117 11.5211 16.4117 11.4902 16.4117 11.4598C16.3879 10.4476 15.9692 10.0054 15.3704 9.81515C15.3751 9.83464 15.3848 9.85257 15.3986 9.86711C15.7262 10.2144 15.9453 10.7441 15.9453 11.5523C15.9453 11.7539 16.4503 12.1332 16.6484 12.4954C16.8249 12.8215 16.8768 13.3157 16.8764 13.311C16.8593 12.6583 16.7257 12.3954 16.6167 12.2055C16.5285 12.0524 16.4207 11.8645 16.4125 11.5856H16.4117ZM12.6381 8.33148C12.6519 8.38027 12.6812 8.42324 12.7216 8.45395C12.762 8.48466 12.8112 8.50146 12.8619 8.50181H15.0143C15.2486 8.50181 15.7126 8.26742 15.9453 8.26742H20.6016C20.6638 8.26742 20.7234 8.24272 20.7673 8.19876C20.8113 8.15481 20.8359 8.0952 20.8359 8.03304V7.90177C20.8359 7.22713 20.609 6.44506 20.1806 5.92668C20.0084 5.71807 19.8271 5.56182 19.6729 5.56182L12.5256 5.00163C12.4502 4.99566 12.3743 5.00612 12.3033 5.03229C12.2323 5.05845 12.1679 5.0997 12.1143 5.1532L12.0897 5.17781C12.0536 5.21391 12.0271 5.25851 12.0127 5.30752C11.9983 5.35653 11.9965 5.40838 12.0073 5.45829L12.6381 8.33148ZM8.38879 14.1036L9.19724 15.0158L8.49424 16.2338L7.2999 15.9893C7.11136 16.1328 6.90547 16.252 6.68712 16.344L6.30163 17.4999H4.89562L4.51052 16.344C4.29213 16.252 4.08624 16.1329 3.89773 15.9893L2.70301 16.2338L2 15.0158L2.80885 14.1036C2.79392 13.9863 2.78649 13.868 2.78659 13.7497C2.78648 13.6314 2.79391 13.5132 2.80885 13.3958L2 12.4836L2.70301 11.2656L3.89773 11.5102C4.08624 11.3666 4.29213 11.2474 4.51052 11.1555L4.89562 9.99953H6.30163L6.68712 11.1555C6.90547 11.2475 7.11136 11.3666 7.2999 11.5102L8.49424 11.2656L9.19724 12.4836L8.38879 13.3958C8.4034 13.5132 8.41071 13.6314 8.41066 13.7497C8.4107 13.868 8.40339 13.9862 8.38879 14.1036ZM7.00464 13.7497C7.00464 13.3767 6.85651 13.019 6.59283 12.7553C6.32915 12.4916 5.97152 12.3434 5.59862 12.3434C5.22573 12.3434 4.8681 12.4916 4.60442 12.7553C4.34074 13.019 4.19261 13.3767 4.19261 13.7497C4.19261 14.1227 4.34074 14.4804 4.60442 14.7441C4.8681 15.0079 5.22573 15.156 5.59862 15.156C5.7834 15.1562 5.9664 15.12 6.13716 15.0494C6.30793 14.9789 6.46311 14.8753 6.59384 14.7447C6.72457 14.6141 6.82827 14.459 6.89903 14.2883C6.96978 14.1175 7.0062 13.9345 7.0062 13.7497H7.00464ZM12.2014 10.8097C11.9339 11.0676 11.9421 11.5059 12.205 11.7684L13.5606 13.1247H10.4361C10.2704 13.1247 10.1114 13.1905 9.99424 13.3078C9.87705 13.425 9.81121 13.5839 9.81121 13.7497C9.81121 13.9155 9.87705 14.0745 9.99424 14.1917C10.1114 14.3089 10.2704 14.3747 10.4361 14.3747H13.5606L12.205 15.7307C11.9421 15.9936 11.9339 16.4315 12.2014 16.6893C12.3266 16.8095 12.4939 16.8759 12.6674 16.8743C12.8409 16.8727 13.0069 16.8032 13.1298 16.6807L16.059 13.7509L13.1298 10.8211C13.0073 10.6987 12.8418 10.629 12.6687 10.6269C12.4956 10.6248 12.3285 10.6904 12.203 10.8097H12.2014Z" fill="#1D1E23"/></svg>