<svg viewBox="0 0 24 24" fill="none" xmlns="http://www.w3.org/2000/svg"><path d="M2 10.1282H4.5V22H2V10.1282ZM19.5 22H22V8.87855H19.5V22ZM8.875 19.5007H10.125V6.37923H8.875V19.5007ZM5.75 19.5007H7.625V8.87855H5.75V19.5007ZM13.875 19.5007H15.75V11.3779H13.875V19.5007ZM11.375 19.5007H12.625V8.87855H11.375V19.5007ZM17 19.5007H18.25V10.1282H17V19.5007ZM19.7559 6.51162C19.9355 6.7473 20.1931 6.91146 20.4827 6.97483C20.7723 7.0382 21.0749 6.99663 21.3367 6.85756C21.5984 6.71849 21.8022 6.49096 21.9116 6.21558C22.0211 5.9402 22.0291 5.63488 21.9343 5.35414C21.8394 5.07339 21.6478 4.83548 21.3937 4.68287C21.1397 4.53027 20.8396 4.47289 20.5471 4.52098C20.2547 4.56908 19.9888 4.71951 19.797 4.94544C19.6052 5.17136 19.4999 5.45807 19.5 5.7544C19.5001 5.81517 19.5045 5.87586 19.5133 5.936L15.8164 7.49417C15.6263 7.24312 15.3484 7.07308 15.0383 7.01805C14.7281 6.96302 14.4087 7.02706 14.1437 7.19737L10.5977 3.86077C10.6986 3.68081 10.7534 3.47868 10.7571 3.2724C10.7609 3.06612 10.7135 2.86212 10.6192 2.67861C10.5249 2.4951 10.3866 2.33779 10.2167 2.22072C10.0468 2.10364 9.85048 2.03043 9.64538 2.00765C9.44028 1.98486 9.23272 2.01319 9.04123 2.09012C8.84975 2.16704 8.68029 2.29017 8.54799 2.44851C8.41569 2.60684 8.32466 2.79546 8.28302 2.99753C8.24139 3.1996 8.25044 3.40883 8.30938 3.60654L4.13633 6.11017C3.92 5.89628 3.63307 5.76861 3.32931 5.7511C3.02556 5.73359 2.72585 5.82743 2.48636 6.01505C2.24688 6.20266 2.08406 6.47115 2.02843 6.7702C1.9728 7.06924 2.02817 7.3783 2.18418 7.63945C2.34019 7.90059 2.58611 8.09589 2.87585 8.18873C3.16559 8.28156 3.47924 8.26556 3.75803 8.14373C4.03681 8.02189 4.26158 7.8026 4.39019 7.52693C4.5188 7.25127 4.54243 6.93818 4.45664 6.64635L8.63242 4.14155C8.83202 4.33728 9.09149 4.46045 9.36936 4.49139C9.64723 4.52233 9.92745 4.45924 10.1652 4.31222L13.7199 7.65584C13.6298 7.82323 13.5791 8.00897 13.5717 8.19891C13.5642 8.38885 13.6002 8.578 13.6769 8.75194C13.7536 8.92588 13.8689 9.08004 14.0142 9.20269C14.1595 9.32533 14.3308 9.41324 14.5152 9.4597C14.6995 9.50616 14.8921 9.50997 15.0781 9.47082C15.2642 9.43167 15.4389 9.3506 15.5889 9.23379C15.7389 9.11697 15.8602 8.96747 15.9437 8.79669C16.0272 8.62591 16.0707 8.43835 16.0707 8.24826C16.0706 8.1888 16.0663 8.12943 16.0578 8.07057L19.7559 6.51162Z" fill="#1D1E23"/></svg>