<svg viewBox="0 0 24 24" fill="none" xmlns="http://www.w3.org/2000/svg"><path d="M20.125 10.5714C19.7372 10.5714 19.359 10.695 19.0424 10.9253C18.7257 11.1555 18.4863 11.4811 18.357 11.8571H16.3301C16.1798 10.7862 15.6593 9.80673 14.8641 9.09834C14.0688 8.38994 13.052 8.00001 12 8C10.9479 7.99992 9.93101 8.38981 9.13568 9.09821C8.34034 9.80662 7.81984 10.7861 7.66954 11.8571H5.64296C5.5137 11.4811 5.27428 11.1555 4.95765 10.9253C4.64102 10.695 4.26277 10.5714 3.875 10.5714C3.37772 10.5714 2.90081 10.7746 2.54918 11.1363C2.19755 11.498 2 11.9885 2 12.5C2 13.0115 2.19755 13.502 2.54918 13.8637C2.90081 14.2254 3.37772 14.4286 3.875 14.4286C4.26277 14.4286 4.64102 14.305 4.95765 14.0747C5.27428 13.8445 5.5137 13.5189 5.64296 13.1429H7.66954C7.81984 14.2139 8.34034 15.1934 9.13568 15.9018C9.93101 16.6102 10.9479 17.0001 12 17C13.052 17 14.0688 16.6101 14.8641 15.9017C15.6593 15.1933 16.1798 14.2138 16.3301 13.1429H18.357C18.4863 13.5189 18.7257 13.8445 19.0424 14.0747C19.359 14.305 19.7372 14.4286 20.125 14.4286C20.6223 14.4286 21.0992 14.2254 21.4508 13.8637C21.8024 13.502 22 13.0115 22 12.5C22 11.9885 21.8024 11.498 21.4508 11.1363C21.0992 10.7746 20.6223 10.5714 20.125 10.5714ZM3.875 13.1429H4.95742C4.84772 13.3383 4.68995 13.5006 4.49994 13.6134C4.30994 13.7263 4.0944 13.7857 3.875 13.7857C3.54348 13.7857 3.22554 13.6503 2.99112 13.4091C2.7567 13.168 2.625 12.841 2.625 12.5C2.625 12.159 2.7567 11.832 2.99112 11.5909C3.22554 11.3498 3.54348 11.2143 3.875 11.2143C4.0944 11.2143 4.30994 11.2737 4.49994 11.3866C4.68995 11.4994 4.84772 11.6617 4.95742 11.8571H3.875C3.70924 11.8571 3.55028 11.9249 3.43307 12.0454C3.31586 12.166 3.25 12.3295 3.25 12.5C3.25 12.6705 3.31586 12.834 3.43307 12.9546C3.55028 13.0751 3.70924 13.1429 3.875 13.1429ZM11.6875 14.75H9.8125C9.3981 14.75 9.00067 14.5807 8.70765 14.2793C8.41462 13.9779 8.25 13.5691 8.25 13.1429V11.8571C8.25 11.4309 8.41462 11.0221 8.70765 10.7207C9.00067 10.4193 9.3981 10.25 9.8125 10.25H11.0625L10.4375 10.8929H9.8125C9.56386 10.8929 9.3254 10.9945 9.14958 11.1753C8.97377 11.3561 8.875 11.6014 8.875 11.8571V13.1429C8.875 13.3986 8.97377 13.6439 9.14958 13.8247C9.3254 14.0056 9.56386 14.1071 9.8125 14.1071H11.6875C11.9361 14.1071 12.1746 14.0056 12.3504 13.8247C12.5262 13.6439 12.625 13.3986 12.625 13.1429V11.5357H13.25V13.1429C13.25 13.5691 13.0854 13.9779 12.7924 14.2793C12.4993 14.5807 12.1019 14.75 11.6875 14.75ZM15.75 13.1429C15.75 13.5691 15.5854 13.9779 15.2924 14.2793C14.9993 14.5807 14.6019 14.75 14.1875 14.75H12.9375L13.5625 14.1071H14.1875C14.4361 14.1071 14.6746 14.0056 14.8504 13.8247C15.0262 13.6439 15.125 13.3986 15.125 13.1429V11.8571C15.125 11.6014 15.0262 11.3561 14.8504 11.1753C14.6746 10.9945 14.4361 10.8929 14.1875 10.8929H12.3125C12.0639 10.8929 11.8254 10.9945 11.6496 11.1753C11.4738 11.3561 11.375 11.6014 11.375 11.8571V13.4643H10.75V11.8571C10.75 11.4309 10.9146 11.0221 11.2076 10.7207C11.5007 10.4193 11.8981 10.25 12.3125 10.25H14.1875C14.6019 10.25 14.9993 10.4193 15.2924 10.7207C15.5854 11.0221 15.75 11.4309 15.75 11.8571V13.1429ZM20.125 13.7857C19.9056 13.7857 19.6901 13.7263 19.5001 13.6134C19.3101 13.5006 19.1523 13.3383 19.0426 13.1429H20.125C20.2908 13.1429 20.4497 13.0751 20.5669 12.9546C20.6841 12.834 20.75 12.6705 20.75 12.5C20.75 12.3295 20.6841 12.166 20.5669 12.0454C20.4497 11.9249 20.2908 11.8571 20.125 11.8571H19.0426C19.1523 11.6617 19.3101 11.4994 19.5001 11.3866C19.6901 11.2737 19.9056 11.2143 20.125 11.2143C20.4565 11.2143 20.7745 11.3498 21.0089 11.5909C21.2433 11.832 21.375 12.159 21.375 12.5C21.375 12.841 21.2433 13.168 21.0089 13.4091C20.7745 13.6503 20.4565 13.7857 20.125 13.7857Z" fill="#1D1E23"/></svg>