<svg viewBox="0 0 24 24" fill="none" xmlns="http://www.w3.org/2000/svg"><path d="M18.9835 10.9326C18.5444 9.26003 17.4206 7.82088 15.8592 6.93172C14.2979 6.04256 12.4269 5.77624 10.6578 6.19134C9.68923 6.41859 8.78458 6.84255 8.00679 7.43378C7.229 8.02501 6.59673 8.7693 6.15393 9.61491C5.50683 9.71977 4.88792 9.94416 4.33255 10.2752C3.77718 10.6063 3.29623 11.0375 2.91718 11.5444C2.53813 12.0512 2.2684 12.6237 2.12341 13.2291C1.97842 13.8345 1.961 14.461 2.07215 15.0728C2.27151 16.1722 2.87577 17.1695 3.77801 17.8883C4.68025 18.607 5.82229 19.0008 7.00208 19H17.6234C18.1978 19.0004 18.7666 18.8938 19.2974 18.6863C19.8282 18.4789 20.3106 18.1746 20.717 17.7908C21.1234 17.4071 21.4459 16.9514 21.666 16.4498C21.8861 15.9483 21.9996 15.4106 22 14.8675C22.0006 13.9948 21.709 13.1443 21.1672 12.4377C20.6254 11.7312 19.861 11.2049 18.9835 10.9341V10.9326ZM8.25164 17.2264H5.75251V14.8635H8.25164V17.2264ZM12.0003 17.2264H9.50121V12.5006H12.0003V17.2264ZM15.749 11.3191V17.2264H13.2499V11.3191H12.0003L14.4995 8.95627L16.9986 11.3191H15.749Z" fill="#1D1E23"/></svg>