<svg xmlns="http://www.w3.org/2000/svg" width="1200" height="1200" fill="none" viewBox="0 0 1200 1200"><g clip-path="url(#a)"><path fill="#000" d="M625.005 400.003h-75v300.002l237.5 142.5 37.5-61.5-200-118.5zm241.85-309.5 230.35 192.25-64 76.75-230.5-192.15zm-533.699 0 64.101 76.8-230.4 192.2-64.001-76.8zm266.849 109.5c-248.499 0-449.999 201.5-449.999 450.002 0 248.5 201.5 450 449.999 450s450-201.5 450-450c0-248.502-201.5-450.002-450-450.002m0 800.002c-192.999 0-349.998-157-349.998-350 0-193.002 156.999-350.002 349.998-350.002 193 0 350 157 350 350.002 0 193-157 350-350 350"/></g><defs><clipPath id="a"><path fill="#fff" d="M0 0h1200v1200H0z"/></clipPath></defs></svg>