<svg xmlns="http://www.w3.org/2000/svg" width="1200" height="1200" fill="none"><g fill="#1D1E23" clip-path="url(#a)"><path d="M100 300c27.5 0 50-22.5 50-50v-50c0-27.5 22.5-50 50-50h50c27.5 0 50-22.5 50-50s-22.5-50-50-50h-50c-83 0-150 67-150 150v50c0 27.5 22.5 50 50 50M250 1050h-50c-27.5 0-50-22.5-50-50v-50c0-27.5-22.5-50-50-50s-50 22.5-50 50v50c0 83 67 150 150 150h50c27.5 0 50-22.5 50-50s-22.5-50-50-50M950 50h50c83 0 150 67 150 150v50c0 27.5-22.5 50-50 50s-50-22.5-50-50v-50c0-27.5-22.5-50-50-50h-50c-27.5 0-50-22.5-50-50s22.5-50 50-50M1100 900c-27.5 0-50 22.5-50 50v50c0 27.5-22.5 50-50 50h-50c-27.5 0-50 22.5-50 50s22.5 50 50 50h50c83 0 150-67 150-150v-50c0-27.5-22.5-50-50-50"/><path fill-rule="evenodd" d="M950 456.5v287c0 36-19 69-50 86.5L650 974c-15.5 9-32.5 13.5-50 13.5s-34.5-4.5-50-13.5L300 830c-31-17.5-50-50.5-50-86.5v-287c0-36 19-69 50-87L550 226c15.5-9 32.5-13.5 50-13.5s34.5 4.5 50 13.5l250 144c31 17.5 50 50.5 50 86.5m-600 287 200 115v-230L350 512zm52-317L600 542l198-115.5-198-114zm248 432 200-115V512L650 628.5z"/></g><defs><clipPath id="a"><path fill="#fff" d="M0 0h1200v1200H0z"/></clipPath></defs></svg>