<svg width="1200" height="1200" viewBox="0 0 1200 1200" fill="none" xmlns="http://www.w3.org/2000/svg"><g clip-path="url(#clip0_117_807)"><path d="M950 400L750 600H900C900 765.5 765.5 900 600 900C549.5 900 501.5 887.5 460 865L387 938C448.5 977 521.5 1000 600 1000C821 1000 1000 821 1000 600H1150L950 400ZM300 600C300 434.5 434.5 300 600 300C650.5 300 698.5 312.5 740 335L813 262C751.5 223 678.5 200 600 200C379 200 200 379 200 600H50L250 800L450 600H300Z" fill="#1D1E23"/></g><defs><clipPath id="clip0_117_807"><path width="24" fill="white" d="M0 0H1200V1200H0V0z"/></clipPath></defs></svg>