<svg xmlns="http://www.w3.org/2000/svg" width="1200" height="1200" fill="none" viewBox="0 0 1200 1200"><g clip-path="url(#a)"><path fill="#000" d="M950 400 750 600h150c0 165.5-134.5 300-300 300-50.5 0-98.5-12.5-140-35l-73 73c61.5 39 134.5 62 213 62 221 0 400-179 400-400h150zM300 600c0-165.5 134.5-300 300-300 50.5 0 98.5 12.5 140 35l73-73c-61.5-39-134.5-62-213-62-221 0-400 179-400 400H50l200 200 200-200z"/></g><defs><clipPath id="a"><path fill="#fff" d="M0 0h1200v1200H0z"/></clipPath></defs></svg>