<svg xmlns="http://www.w3.org/2000/svg" width="1200" height="1200" fill="none"><g fill="#1D1E23" clip-path="url(#a)"><path d="M450 950H350V850h100zM650 950H550V850h100zM850 950H750V850h100zM450 800H350V700h100zM650 800H550V700h100zM850 800H750V700h100zM450 650H350V550h100zM650 650H550V550h100zM850 650H750V550h100z"/><path fill-rule="evenodd" d="M400 200h400V100h100v100h150v900H150l.489-900H300V100h100zm-150 800h700V450H250z"/></g><defs><clipPath id="a"><path fill="#fff" d="M0 0h1200v1200H0z"/></clipPath></defs></svg>