<svg xmlns="http://www.w3.org/2000/svg" width="1200" height="1200" fill="none" viewBox="0 0 1200 1200"><g fill="#000" clip-path="url(#a)"><path d="M400 550c-27.614 0-50 22.385-50 50s22.386 50 50 50h400c27.615 0 50-22.385 50-50s-22.385-50-50-50z"/><path fill-rule="evenodd" d="M900 200h50c55 0 100 45 100 100v700c0 55-45 100-100 100H250c-55.5 0-100-45-100-100l.5-700c0-55 44-100 99.5-100h50v-50c0-27.5 22.5-50 50-50s50 22.5 50 50v50h400v-50c0-27.5 22.5-50 50-50s50 22.5 50 50zm-600 800h600c27.5 0 50-22.5 50-50V450H250v500c0 27.5 22.5 50 50 50"/></g><defs><clipPath id="a"><path fill="#fff" d="M0 0h1200v1200H0z"/></clipPath></defs></svg>