<svg xmlns="http://www.w3.org/2000/svg" width="1200" height="1200" fill="none"><g fill="#1D1E23" clip-path="url(#a)"><path d="M350 600c0-27.615 22.386-50 50-50h400c27.615 0 50 22.385 50 50s-22.385 50-50 50H400c-27.614 0-50-22.385-50-50M400 750c-27.614 0-50 22.385-50 50s22.386 50 50 50h300c27.615 0 50-22.385 50-50s-22.385-50-50-50z"/><path fill-rule="evenodd" d="M950 200h-50v-50c0-27.5-22.5-50-50-50s-50 22.5-50 50v50H400v-50c0-27.5-22.5-50-50-50s-50 22.5-50 50v50h-50c-55.5 0-99.5 45-99.5 100l-.5 700c0 55 44.5 100 100 100h700c55 0 100-45 100-100V300c0-55-45-100-100-100m-50 800H300c-27.5 0-50-22.5-50-50V450h700v500c0 27.5-22.5 50-50 50"/></g><defs><clipPath id="a"><path fill="#fff" d="M0 0h1200v1200H0z"/></clipPath></defs></svg>