<svg xmlns="http://www.w3.org/2000/svg" width="1200" height="1200" fill="none" viewBox="0 0 1200 1200"><path fill="#000" d="M850 150h50c55 0 100 45 100 100v250.67c0 27.61-22.385 50-50 50-26.755 0-48.605-21.02-49.935-47.445l-.065-.015V400H200v500c0 27.5 22.5 50 50 50h202.246v.55c24.063 3.61 42.516 24.38 42.516 49.45s-18.451 45.83-42.516 49.445v.555H200c-55.5 0-100-45-100-100l.5-700c0-55 44-100 99.5-100h50v-50c0-27.614 22.386-50 50-50s50 22.386 50 50v50h400v-50c0-27.614 22.385-50 50-50s50 22.386 50 50z"/><path fill="#000" fill-rule="evenodd" d="M980.345 1030.33c97.635-97.63 97.635-255.92 0-353.555-97.63-97.63-255.92-97.63-353.55 0-97.635 97.635-97.63 255.925 0 353.555s255.92 97.63 353.55 0M803.57 906.585l-53.035 53.035c-14.58 14.585-38.445 14.585-53.03 0s-14.585-38.45 0-53.035l53.03-53.03-53.03-53.035c-14.585-14.585-14.585-38.45 0-53.035 14.585-14.58 38.45-14.58 53.03 0l53.035 53.035 53.035-53.035c14.58-14.58 38.445-14.58 53.03 0 14.585 14.585 14.585 38.45 0 53.035l-53.03 53.035 53.03 53.03c14.585 14.585 14.585 38.45 0 53.035s-38.45 14.585-53.03 0z"/></svg>