<svg xmlns="http://www.w3.org/2000/svg" width="1200" height="1200" fill="none"><g fill="#000" clip-path="url(#a)"><path d="M480.706 690.435v-74.08c0-18.625-21.473-27.73-33.8-14.485L335.964 717.34c-7.954 8.275-7.954 21.105 0 29.385l110.942 115.47c12.327 12.83 33.8 3.725 33.8-14.9v-74.08H719.29v74.08c0 18.625 21.475 27.73 33.8 14.49L864.035 746.31c7.95-8.275 7.95-21.105 0-29.385L753.09 601.455c-12.325-12.83-33.8-3.725-33.8 14.485v74.495z"/><path fill-rule="evenodd" d="M900 200h50c55 0 100 45 100 100v700c0 55-45 100-100 100H250c-55.5 0-100-45-100-100l.5-700c0-55 44-100 99.5-100h50v-50c0-27.5 22.5-50 50-50s50 22.5 50 50v50h400v-50c0-27.5 22.5-50 50-50s50 22.5 50 50zm-600 800h600c27.5 0 50-22.5 50-50V450H250v500c0 27.5 22.5 50 50 50"/></g><defs><clipPath id="a"><path fill="#fff" d="M0 0h1200v1200H0z"/></clipPath></defs></svg>