<svg xmlns="http://www.w3.org/2000/svg" width="1200" height="1200" fill="none"><g clip-path="url(#a)"><path fill="#000" d="M600 100c-276 0-500 224-500 500s224 500 500 500 500-224 500-500-224-500-500-500m0 900c-220.5 0-400-179.5-400-400s179.5-400 400-400 400 179.5 400 400-179.5 400-400 400m194-585.5-294 294-94-94c-19.5-19.5-51-19.5-70.5 0s-19.5 51 0 70.5L465 814.5c19.5 19.5 51 19.5 70.5 0L865 485c19.5-19.5 19.5-51 0-70.5s-51.5-19.5-71 0"/></g><defs><clipPath id="a"><path fill="#fff" d="M0 0h1200v1200H0z"/></clipPath></defs></svg>