<svg width="1200" height="1200" viewBox="0 0 1200 1200" fill="none" xmlns="http://www.w3.org/2000/svg"><g clip-path="url(#clip0_117_785)"><path d="M1100 259L529.5 830L317.5 618L388 547.5L529.5 689L1029.5 189L1100 259ZM989.5 511C996 539.5 1000 569.5 1000 600C1000 821 821 1000 600 1000C379 1000 200 821 200 600C200 379 379 200 600 200C679 200 752 223 814 262.5L886 190.5C805 133.5 706.5 100 600 100C324 100 100 324 100 600C100 876 324 1100 600 1100C876 1100 1100 876 1100 600C1100 540.5 1089 483.5 1070 430.5L989.5 511Z" fill="black"/></g><defs><clipPath id="clip0_117_785"><path width="24" fill="white" d="M0 0H1200V1200H0V0z"/></clipPath></defs></svg>