<svg xmlns="http://www.w3.org/2000/svg" width="1200" height="1200" fill="none" viewBox="0 0 1200 1200"><g clip-path="url(#a)"><path fill="#000" d="M1100 259 529.5 830l-212-212 70.5-70.5L529.5 689l500-500zM989.5 511c6.5 28.5 10.5 58.5 10.5 89 0 221-179 400-400 400S200 821 200 600s179-400 400-400c79 0 152 23 214 62.5l72-72c-81-57-179.5-90.5-286-90.5-276 0-500 224-500 500s224 500 500 500 500-224 500-500c0-59.5-11-116.5-30-169.5z"/></g><defs><clipPath id="a"><path fill="#fff" d="M0 0h1200v1200H0z"/></clipPath></defs></svg>