<svg xmlns="http://www.w3.org/2000/svg" width="1200" height="1200" fill="none" viewBox="0 0 1200 1200"><g clip-path="url(#a)"><path fill="#000" d="M950 150H741C720 92 665 50 600 50S480 92 459 150H250c-55 0-100 45-100 100v700c0 55 45 100 100 100h700c55 0 100-45 100-100V250c0-55-45-100-100-100m-350 0c27.5 0 50 22.5 50 50s-22.5 50-50 50-50-22.5-50-50 22.5-50 50-50m50 700H400c-27.5 0-50-22.5-50-50s22.5-50 50-50h250c27.5 0 50 22.5 50 50s-22.5 50-50 50m150-200H400c-27.5 0-50-22.5-50-50s22.5-50 50-50h400c27.5 0 50 22.5 50 50s-22.5 50-50 50m0-200H400c-27.5 0-50-22.5-50-50s22.5-50 50-50h400c27.5 0 50 22.5 50 50s-22.5 50-50 50"/></g><defs><clipPath id="a"><path fill="#fff" d="M0 0h1200v1200H0z"/></clipPath></defs></svg>