<svg width="1200" height="1200" viewBox="0 0 1200 1200" fill="none" xmlns="http://www.w3.org/2000/svg"><g clip-path="url(#clip0_117_764)"><path d="M599.5 100C323.5 100 100 324 100 600C100 876 323.5 1100 599.5 1100C876 1100 1100 876 1100 600C1100 324 876 100 599.5 100ZM600 1000C379 1000 200 821 200 600C200 379 379 200 600 200C821 200 1000 379 1000 600C1000 821 821 1000 600 1000ZM625 350H550V650L812.5 807.5L850 746L625 612.5V350Z" fill="black"/></g><defs><clipPath id="clip0_117_764"><path width="24" fill="white" d="M0 0H1200V1200H0V0z"/></clipPath></defs></svg>