<svg xmlns="http://www.w3.org/2000/svg" width="1200" height="1200" fill="none" viewBox="0 0 1200 1200"><g clip-path="url(#a)"><path fill="#000" d="M599.5 100C323.5 100 100 324 100 600s223.5 500 499.5 500C876 1100 1100 876 1100 600S876 100 599.5 100m.5 900c-221 0-400-179-400-400s179-400 400-400 400 179 400 400-179 400-400 400m-11-650h-3c-20 0-36 16-36 36v236c0 17.5 9 34 24.5 43L782 789.5c17 10 39 5 49-12 10.5-17 5-39.5-12.5-49.5L625 613V386c0-20-16-36-36-36"/></g><defs><clipPath id="a"><path fill="#fff" d="M0 0h1200v1200H0z"/></clipPath></defs></svg>