<svg xmlns="http://www.w3.org/2000/svg" width="1200" height="1200" fill="none" viewBox="0 0 1200 1200"><g clip-path="url(#a)"><path fill="#000" d="M300 950c0 55 45 100 100 100h400c55 0 100-45 100-100V350H300zm158.5-320.5c-19.5-19.5-19.5-51 0-70.5s51-19.5 70.5 0l71 70.5 70.5-70.5c19.5-19.5 51-19.5 70.5 0s19.5 51 0 70.5L670.5 700l70.5 70.5c19.5 19.5 19.5 51 0 70.5s-51 19.5-70.5 0L600 770.5 529.5 841c-19.5 19.5-51 19.5-70.5 0s-19.5-51 0-70.5l70.5-70.5zM900 200H775l-35.5-35.5c-9-9-22-14.5-35-14.5h-209c-13 0-26 5.5-35 14.5L425 200H300c-27.5 0-50 22.5-50 50s22.5 50 50 50h600c27.5 0 50-22.5 50-50s-22.5-50-50-50"/></g><defs><clipPath id="a"><path fill="#fff" d="M0 0h1200v1200H0z"/></clipPath></defs></svg>