<svg xmlns="http://www.w3.org/2000/svg" width="1200" height="1200" fill="none"><g clip-path="url(#a)"><path fill="#1D1E23" d="M729.5 129.5c-19-19-44.5-29.5-71-29.5H300c-55 0-100 45-100 100v800c0 55 44.5 100 99.5 100H900c55 0 100-45 100-100V441.5c0-26.5-10.5-52-29.5-70.5zM750 900H450c-27.5 0-50-22.5-50-50s22.5-50 50-50h300c27.5 0 50 22.5 50 50s-22.5 50-50 50m0-200H450c-27.5 0-50-22.5-50-50s22.5-50 50-50h300c27.5 0 50 22.5 50 50s-22.5 50-50 50M650 400V175l275 275H700c-27.5 0-50-22.5-50-50"/></g><defs><clipPath id="a"><path fill="#fff" d="M0 0h1200v1200H0z"/></clipPath></defs></svg>