<svg width="1200" height="1200" viewBox="0 0 1200 1200" fill="none" xmlns="http://www.w3.org/2000/svg"><g clip-path="url(#clip0_117_789)"><path d="M650 150C401.5 150 200 351.5 200 600H50L244.5 794.5L248 801.5L450 600H300C300 406.5 456.5 250 650 250C843.5 250 1000 406.5 1000 600C1000 793.5 843.5 950 650 950C553.5 950 466 910.5 403 847L332 918C413.5 999.5 525.5 1050 650 1050C898.5 1050 1100 848.5 1100 600C1100 351.5 898.5 150 650 150ZM600 400V650L812.5 776L851 711.5L675 607V400H600Z" fill="black"/></g><defs><clipPath id="clip0_117_789"><path width="24" fill="white" d="M0 0H1200V1200H0V0z"/></clipPath></defs></svg>