<svg xmlns="http://www.w3.org/2000/svg" width="1200" height="1200" fill="none" viewBox="0 0 1200 1200"><g fill="#000" clip-path="url(#a)"><path d="M649.995 750c0 27.5-22.5 50-50 50s-50-22.5-50-50V249.998h-89.498c-22.5 0-33.5-27-18-42.5l139.498-139.5c10-10 25.5-10 35.5 0l139.5 139.5c16 15.5 5 42.5-17.5 42.5h-89.5z"/><path d="M800 400h100c55 0 100 45 100 100v550c0 55-45 100-100 100H300c-55 0-100-45-100-100V500c0-55 45-100 100-100h100c27.5 0 50 22.5 50 50s-22.5 50-50 50H300v550h600V500H800c-27.5 0-50-22.5-50-50s22.5-50 50-50"/></g><defs><clipPath id="a"><path fill="#fff" d="M0 0h1200v1200H0z"/></clipPath></defs></svg>