<svg xmlns="http://www.w3.org/2000/svg" width="1200" height="1200" fill="none" viewBox="0 0 1200 1200"><g clip-path="url(#a)"><path fill="#000" d="m656 102.998-277 277c-18.5 18.5-29 44-29 70.5V950c0 55 45 100 100 100h450c40 0 76-24 92-60.5L1155 609c42-99-30.5-209.001-138-209.001H734.5l47.5-229c5-25-2.5-50.501-20.5-68.5-29.5-29-76.5-29-105.5.499M150 1050c55 0 100-45 100-100V550c0-55.002-45-100.002-100-100.002S50 494.998 50 550v400c0 55 45 100 100 100"/></g><defs><clipPath id="a"><path fill="#fff" d="M0 0h1200v1200H0z"/></clipPath></defs></svg>