<svg xmlns="http://www.w3.org/2000/svg" width="1200" height="1200" fill="none" viewBox="0 0 1200 1200"><g clip-path="url(#a)"><path fill="#000" d="M900 400h-50V300c0-138-112-250-250-250S350 162 350 300v100h-50c-55 0-100 45-100 100v500c0 55 45 100 100 100h600c55 0 100-45 100-100V500c0-55-45-100-100-100M600 850c-55 0-100-45-100-100s45-100 100-100 100 45 100 100-45 100-100 100M450 400V300c0-83 67-150 150-150s150 67 150 150v100z"/></g><defs><clipPath id="a"><path fill="#fff" d="M0 0h1200v1200H0z"/></clipPath></defs></svg>