<svg width="1200" height="1200" viewBox="0 0 1200 1200" fill="none" xmlns="http://www.w3.org/2000/svg"><g clip-path="url(#clip0_755_1945)"><path d="M899.97 549.775V404.906C899.97 240.412 769.6 102.794 605.105 100.044C565.285 99.364 525.725 106.62 488.733 121.391C451.743 136.162 418.065 158.151 389.664 186.076C361.262 214 338.706 247.3 323.311 284.035C307.916 320.769 299.99 360.201 299.995 400.031V550.025H200V1100H999.965V549.775H899.97ZM399.992 399.781C399.992 346.739 421.061 295.871 458.567 258.365C496.073 220.859 546.94 199.79 599.985 199.79C653.025 199.79 703.89 220.859 741.4 258.365C778.905 295.871 799.975 346.739 799.975 399.781V549.775H399.992V399.781Z" fill="#1D1E23"/></g><defs><clipPath id="clip0_755_1945"><path width="24" fill="white" d="M0 0H1200V1200H0V0z"/></clipPath></defs></svg>