<svg xmlns="http://www.w3.org/2000/svg" width="1200" height="1200" fill="none"><g clip-path="url(#a)"><path fill="#000" d="M899.97 549.96V404.906c0-164.494-130.37-302.112-294.865-304.862a299.974 299.974 0 0 0-215.441 86.032 300.004 300.004 0 0 0-89.669 213.955v149.994h-24.998A74.993 74.993 0 0 0 200 625.02v399.985A74.995 74.995 0 0 0 274.997 1100H924.97a74.994 74.994 0 0 0 74.995-74.995V625.02a74.994 74.994 0 0 0-74.995-74.995zM399.992 399.969a199.99 199.99 0 0 1 199.993-199.992A200 200 0 0 1 741.4 258.553a200 200 0 0 1 58.575 141.416V549.96H399.992z"/></g><defs><clipPath id="a"><path fill="#fff" d="M0 0h1200v1200H0z"/></clipPath></defs></svg>