<svg xmlns="http://www.w3.org/2000/svg" width="1200" height="1200" fill="none"><g clip-path="url(#a)"><path fill="#000" d="M515 385c-19.5 19.5-19.5 50.5 0 70l95 95H150c-27.5 0-50 22.5-50 50s22.5 50 50 50h460l-95 95c-19.5 19.5-19.5 50.5 0 70s50.5 19.5 70 0l179.5-179.5c19.5-19.5 19.5-51 0-70.5L585 385c-19.5-19.5-50.5-19.5-70 0m485 565H650c-27.5 0-50 22.5-50 50s22.5 50 50 50h350c55 0 100-45 100-100V250c0-55-45-100-100-100H650c-27.5 0-50 22.5-50 50s22.5 50 50 50h350z"/></g><defs><clipPath id="a"><path fill="#fff" d="M0 0h1200v1200H0z"/></clipPath></defs></svg>