<svg xmlns="http://www.w3.org/2000/svg" width="1200" height="1200" fill="none" viewBox="0 0 1200 1200"><g fill="#000" clip-path="url(#a)"><path d="M550 250H250v700h300c27.5 0 50 22.5 50 50s-22.5 50-50 50H250c-55 0-100-45-100-100V250c0-55 45-100 100-100h300c27.5 0 50 22.5 50 50s-22.5 50-50 50"/><path d="m893 443 139.5 139.5c9.5 9.5 9.5 25.5-.5 35L892.5 757c-15.5 16-42.5 5-42.5-17.5V650H500c-27.5 0-50-22.5-50-50s22.5-50 50-50h350v-89.5c0-22.5 27-33.5 43-17.5"/></g><defs><clipPath id="a"><path fill="#fff" d="M0 0h1200v1200H0z"/></clipPath></defs></svg>