<svg width="1200" height="1200" viewBox="0 0 1200 1200" fill="none" xmlns="http://www.w3.org/2000/svg"><g clip-path="url(#clip0_223_1871)"><path d="M983 199.508C851 109.509 688 151.508 600 254.508C512 151.508 348.998 109.008 216.999 199.508C146.999 247.508 102.998 328.509 99.999 414.009C92.998 608.01 264.998 763.51 527.5 1002.01L532.5 1006.51C570.5 1041.01 629 1041.01 667 1006.01L672.5 1001.01C935 763.01 1106.5 607.51 1100 413.509C1097 328.509 1053 247.508 983 199.508ZM605 927.51L600 932.51L595 927.51C356.998 712.01 199.998 569.51 199.998 425.009C199.998 325.008 274.999 250.008 374.999 250.008C451.999 250.008 527 299.509 553.5 368.009H647C673 299.509 748 250.008 825 250.008C925 250.008 1000 325.008 1000 425.009C1000 569.51 843 712.01 605 927.51Z" fill="black"/></g><defs><clipPath id="clip0_223_1871"><path width="24" fill="white" d="M0 0H1200V1200H0V0z"/></clipPath></defs></svg>