<svg xmlns="http://www.w3.org/2000/svg" width="1200" height="1200" fill="none"><g clip-path="url(#a)"><path fill="#1D1E23" d="M983 199.508c-132-89.999-295-48-383 55-88-103-251.002-145.5-383.001-55-70 48-114.001 129.001-117 214.501C92.998 608.01 264.998 763.51 527.5 1002.01l5 4.5c38 34.5 96.5 34.5 134.5-.5l5.5-5c262.5-238 434-393.5 427.5-587.501-3-85-47-166.001-117-214.001M605 927.51l-5 5-5-5c-238.002-215.5-395.002-358-395.002-502.501 0-100.001 75.001-175.001 175.001-175.001 77 0 152.001 49.501 178.501 118.001H647c26-68.5 101-118.001 178-118.001 100 0 175 75 175 175.001 0 144.501-157 287.001-395 502.501"/></g><defs><clipPath id="a"><path fill="#fff" d="M0 0h1200v1200H0z"/></clipPath></defs></svg>