<svg xmlns="http://www.w3.org/2000/svg" width="1200" height="1200" fill="none"><g clip-path="url(#a)"><path fill="#1D1E23" d="M825 150c-87 0-170.5 40.5-225 104.5-54.5-64-138-104.5-225-104.5-154 0-275 121-275 275 0 189 170 343 427.5 577l72.5 65.5 72.5-66C930 768 1100 614 1100 425c0-154-121-275-275-275M605 927.5l-5 5-5-5C357 712 200 569.5 200 425c0-100 75-175 175-175 77 0 152 49.5 178.5 118H647c26-68.5 101-118 178-118 100 0 175 75 175 175 0 144.5-157 287-395 502.5"/></g><defs><clipPath id="a"><path fill="#fff" d="M0 0h1200v1200H0z"/></clipPath></defs></svg>