<svg xmlns="http://www.w3.org/2000/svg" width="1200" height="1200" fill="none" viewBox="0 0 1200 1200"><g clip-path="url(#a)"><path fill="#000" d="M600 100c-276 0-500 224-500 500s224 500 500 500 500-224 500-500-224-500-500-500m44 788v62h-87.5v-64.5c-37-9-119.5-38.5-151-148L488 704c3 11 29 104.5 120 104.5 46.5 0 99-24 99-80.5 0-48-35-73-114-101.5C538 607 425.5 575 425.5 461c0-5 .5-120 131-148v-63H644v62c92 16 125.5 89.5 133 111.5L698 457c-5.5-17.5-29.5-67-95-67-35 0-90.5 18.5-90.5 69.5 0 47.5 43 65.5 132 95C764.5 596 795 657 795 727c0 131.5-125 156.5-151 161"/></g><defs><clipPath id="a"><path fill="#fff" d="M0 0h1200v1200H0z"/></clipPath></defs></svg>