<svg width="1200" height="1200" viewBox="0 0 1200 1200" fill="none" xmlns="http://www.w3.org/2000/svg"><g clip-path="url(#clip0_117_800)"><path d="M600 300V450L800 250L600 50V200C379 200 200 379 200 600C200 678.5 223 751.5 262 813L335 740C312.5 698.5 300 650.5 300 600C300 434.5 434.5 300 600 300ZM938 387L865 460C887 502 900 549.5 900 600C900 765.5 765.5 900 600 900V750L400 950L600 1150V1000C821 1000 1000 821 1000 600C1000 521.5 977 448.5 938 387Z" fill="black"/></g><defs><clipPath id="clip0_117_800"><path width="24" fill="white" d="M0 0H1200V1200H0V0z"/></clipPath></defs></svg>