<svg xmlns="http://www.w3.org/2000/svg" width="1200" height="1200" fill="none" viewBox="0 0 1200 1200"><path fill="#000" d="m737.5 1000 100 100H300q-41.25.001-70.625-29.375T200 1000V200q0-41.25 29.375-70.625Q258.75 99.999 300 100h450l250 300v600q.001 24.999-10.625 45.625T960 1080L700 822.5c-14.165 9.165-29.585 16.04-46.25 20.625S619.165 850 600 850q-82.5-.001-141.25-58.75T400 650t58.75-141.25T600 450t141.25 58.75Q799.999 567.499 800 650c0 19.165-2.29 37.085-6.875 53.75S781.665 735.835 772.5 750L900 880V435L702.5 200H300v800zM600 750q41.249.001 70.625-29.375T700 650q.001-41.249-29.375-70.625T600 550q-41.249-.001-70.625 29.375T500 650q-.001 41.249 29.375 70.625T600 750"/></svg>