<svg width="1200" height="1200" viewBox="0 0 1200 1200" fill="none" xmlns="http://www.w3.org/2000/svg"><g clip-path="url(#clip0_217_678)"><path d="M725.03 650.03L721.53 686.53C781.53 616.53 812.53 521.03 795.53 419.531C772.03 280.531 656.03 169.531 516.03 152.531C304.531 126.531 126.531 304.531 152.531 516.03C169.531 656.03 280.531 772.03 419.531 795.53C521.03 812.53 616.53 781.53 686.53 721.53L650.03 725.03L912.53 987.53C933.03 1008.03 966.53 1008.03 987.03 987.53C1007.53 967.03 1007.53 933.53 987.03 913.03L725.03 650.03ZM475.031 700.03C350.531 700.03 250.031 599.53 250.031 475.031C250.031 350.531 350.531 250.031 475.031 250.031C599.53 250.031 700.03 350.531 700.03 475.031C700.03 599.53 599.53 700.03 475.031 700.03Z" fill="black"/></g><defs><clipPath id="clip0_217_678"><path width="24" fill="white" d="M0 0H1200V1200H0V0z"/></clipPath></defs></svg>