<svg xmlns="http://www.w3.org/2000/svg" width="1200" height="1200" fill="none"><g clip-path="url(#a)"><path fill="#000" d="m559.5 68-350 155.5c-36 16-59.5 52-59.5 91.5v235c0 277.5 192 537 450 600 258-63 450-322.5 450-600V315c0-39.5-23.5-75.5-59.5-91.5L640.5 68c-25.5-11.5-55.5-11.5-81 0m-95 746.5L335 685c-19.5-19.5-19.5-51 0-70.5s51-19.5 70.5 0l94.5 94 294-294c19.5-19.5 51-19.5 70.5 0s19.5 51 0 70.5L535 814.5c-19 19.5-51 19.5-70.5 0"/></g><defs><clipPath id="a"><path fill="#fff" d="M0 0h1200v1200H0z"/></clipPath></defs></svg>