<svg xmlns="http://www.w3.org/2000/svg" width="1200" height="1200" fill="none"><g clip-path="url(#a)"><path fill="#000" d="M900 804c-38 0-72 15-98 38.5L445.5 635c2.5-11.5 4.5-23 4.5-35s-2-23.5-4.5-35L798 359.5c27 25 62.5 40.5 102 40.5 83 0 150-67 150-150s-67-150-150-150-150 67-150 150c0 12 2 23.5 4.5 35L402 490.5c-27-25-62.5-40.5-102-40.5-83 0-150 67-150 150s67 150 150 150c39.5 0 75-15.5 102-40.5l356 208c-2.5 10.5-4 21.5-4 32.5 0 80.5 65.5 146 146 146s146-65.5 146-146-65.5-146-146-146"/></g><defs><clipPath id="a"><path fill="#fff" d="M0 0h1200v1200H0z"/></clipPath></defs></svg>