<svg xmlns="http://www.w3.org/2000/svg" width="1200" height="1200" fill="none" viewBox="0 0 1200 1200"><path fill="#000" d="M276.255 1050q-33.75 0-60-20.625-26.251-20.626-36.251-53.125L52.505 513.75Q46.255 490 60.63 470t39.375-20h237.5l220-327.5q6.249-10 17.5-16.25 11.249-6.25 23.75-6.25t23.75 6.25q11.251 6.25 17.5 16.25l220 327.5h240q24.997 0 39.375 20c9.585 13.334 12.29 27.916 8.125 43.75l-127.5 462.5q-9.999 32.499-36.25 53.125t-60 20.625zm-1.25-100h650l110-400h-870zm325-100q41.249.001 70.625-29.375T700.005 750q.001-41.249-29.375-70.625T600.005 650q-41.249-.001-70.625 29.375T500.005 750q-.001 41.249 29.375 70.625T600.005 850m-141.25-400h281.25l-141.25-210z"/></svg>