<svg xmlns="http://www.w3.org/2000/svg" width="1200" height="1200" fill="none"><g clip-path="url(#a)"><path fill="#1D1E23" d="m842.5 857.51 72-72-244-244L506 706.01c-19.501 19.5-51.001 19.5-70.501 0l-300-300.499c-19.5-19.501-19.5-51.001 0-70.5 19.5-19.501 51-19.501 70.5 0l264.5 264.999L635 435.51c19.5-19.5 51-19.5 70.5 0l279.5 279 72-72c15.5-15.5 42.5-4.5 42.5 17.5v214.5c0 14-11 25-25 25H860c-22 .5-33-26.5-17.5-42"/></g><defs><clipPath id="a"><path fill="#fff" d="M0 0h1200v1200H0z"/></clipPath></defs></svg>