<svg xmlns="http://www.w3.org/2000/svg" width="1200" height="1200" fill="none" viewBox="0 0 1200 1200"><g clip-path="url(#a)"><path fill="#000" fill-rule="evenodd" d="M1000 399.994H850v-89.5c0-130.5-95.5-247-225.5-259.5-149-14-274.5 103-274.5 249h100c0-56.5 30-112 82-135 110.5-49.5 218 30 218 135v100H200v700.001h800zM600 850c55.23 0 100-44.77 100-100 0-55.225-44.77-100-100-100s-100 44.775-100 100c0 55.23 44.77 100 100 100"/></g><defs><clipPath id="a"><path fill="#fff" d="M0 0h1200v1200H0z"/></clipPath></defs></svg>