<svg width="1200" height="1200" viewBox="0 0 1200 1200" fill="none" xmlns="http://www.w3.org/2000/svg"><g clip-path="url(#clip0_755_1932)"><path fill-rule="evenodd" d="M1000 399.994H850V310.494C850 179.994 754.5 63.494 624.5 50.994C475.5 36.994 350 153.994 350 299.994H450C450 243.494 480 187.994 532 164.994C642.5 115.494 750 194.994 750 299.994V399.994H200V1099.995H1000V399.994ZM600 850C655.23 850 700 805.23 700 750C700 694.775 655.23 650 600 650C544.77 650 500 694.775 500 750C500 805.23 544.77 850 600 850Z" fill="#1D1E23"/></g><defs><clipPath id="clip0_755_1932"><path width="24" fill="white" d="M0 0H1200V1200H0V0z"/></clipPath></defs></svg>