<svg xmlns="http://www.w3.org/2000/svg" width="1200" height="1200" fill="none"><g clip-path="url(#a)"><path fill="#1D1E23" fill-rule="evenodd" d="M600 50c138 0 250 112 250 250v100h50c55 0 100 45 100 100v500c0 55-45 100-100 100H300c-55 0-100-45-100-100V500c0-55 45-100 100-100h450V300c0-82.5-67.5-150-150-150-68.5 0-128.019 46.5-145.019 112.5-7.003 26.997-34.488 42.986-60.987 35.987-26.994-7.004-42.985-33.99-35.986-60.987C386.509 127.001 486 50 600 50m0 600c-55 0-100 45-100 100s45 100 100 100 100-45 100-100-45-100-100-100"/></g><defs><clipPath id="a"><path fill="#fff" d="M0 0h1200v1200H0z"/></clipPath></defs></svg>