<svg width="1200" height="1200" viewBox="0 0 1200 1200" fill="none" xmlns="http://www.w3.org/2000/svg"><g clip-path="url(#clip0_221_1768)"><path d="M550 400V650L762.5 776L801 712L625 607.5V400H550ZM1050 500V150L918 282C837 200.5 724.5 150 600 150C351.5 150 150 351.5 150 600C150 848.5 351.5 1050 600 1050C848.5 1050 1050 848.5 1050 600H950C950 793 793 950 600 950C407 950 250 793 250 600C250 407 407 250 600 250C696.5 250 784 289.5 847.5 352.5L700 500H1050Z" fill="#1D1E23"/></g><defs><clipPath id="clip0_221_1768"><path width="24" fill="white" d="M0 0H1200V1200H0V0z"/></clipPath></defs></svg>