<svg xmlns="http://www.w3.org/2000/svg" width="1200" height="1200" fill="none" viewBox="0 0 1200 1200"><g clip-path="url(#a)"><path fill="#000" d="M500 800.01h200c27.5 0 50-22.5 50-50v-250h79.5c44.5 0 67-53.999 35.5-85.5L635.5 185.011c-19.5-19.5-51-19.5-70.5 0L335.5 414.51c-31.5 31.501-9.5 85.5 35 85.5H450v250c0 27.5 22.5 50 50 50m-200 100h600c27.5 0 50 22.5 50 50s-22.5 50-50 50H300c-27.5 0-50-22.5-50-50s22.5-50 50-50"/></g><defs><clipPath id="a"><path fill="#fff" d="M0 0h1200v1200H0z"/></clipPath></defs></svg>