<svg xmlns="http://www.w3.org/2000/svg" width="1200" height="1200" fill="none"><g fill="#1D1E23" clip-path="url(#a)"><path d="M500 600c110.455 0 200-89.545 200-200 0-110.457-89.545-200-200-200-110.457 0-200 89.543-200 200 0 110.455 89.543 200 200 200M533.5 651c-11-.5-22-1-33.5-1-121 0-234 33.5-330.5 91-44 26-69.5 75-69.5 126.5V950c0 27.5 22.5 50 50 50h413c-39.5-56.5-63-125.5-63-200 0-53.5 12.5-103.5 33.5-149"/><path fill-rule="evenodd" d="M1034.69 769.81c1.435 10.025 2.81 19.65 2.81 30.19s-1.375 20.165-2.81 30.185l-.19 1.315 42 36.5c9 8 11 21 5 31.5l-29.5 51c-6 10-18 15-29.5 11l-53-18q-24 20.25-54 31.5l-11 54.5c-2.5 11.5-12.5 20-24.5 20h-59c-12 0-22-8.5-24.5-20l-11-54.5q-30-11.25-54-31.5l-53 18c-11 4-23.5-.5-29.5-11l-29.5-51c-6-10.5-4-23.5 5-31.5l42-36.5c-.06-.44-.125-.875-.185-1.315-1.435-10.02-2.815-19.645-2.815-30.185s1.38-20.165 2.815-30.19c.06-.435.125-.87.185-1.31l-42-36.5c-9-8-11-21-5-31.5l29.5-51c6-10 18-15 29.5-11l53 18q24-20.25 54-31.5l11-54.5c2.5-11.5 12.5-20 24.5-20h59c12 0 22 8.5 24.5 20l11 54.5q30 11.25 54 31.5l53-18c11-4 23.5.5 29.5 11l29.5 51c6 10.5 4 23.5-5 31.5l-42 36.5zM750 800c0 55 45 100 100 100s100-45 100-100-45-100-100-100-100 45-100 100"/></g><defs><clipPath id="a"><path fill="#fff" d="M0 0h1200v1200H0z"/></clipPath></defs></svg>