<svg xmlns="http://www.w3.org/2000/svg" width="1200" height="1200" fill="none" viewBox="0 0 1200 1200"><g fill="#000" clip-path="url(#a)"><path d="M500 600c110.455 0 200-89.545 200-200 0-110.457-89.545-200-200-200-110.457 0-200 89.543-200 200 0 110.455 89.543 200 200 200M533.5 651c-11-.5-22-1-33.5-1-121 0-234 33.5-330.5 91-44 26-69.5 75-69.5 126.5V1000h463c-39.5-56.5-63-125.5-63-200 0-53.5 12.5-103.5 33.5-149"/><path fill-rule="evenodd" d="M1034.69 769.815c1.435 10.025 2.81 19.645 2.81 30.185s-1.375 20.16-2.81 30.185l-.19 1.315 57 50.5-50 86.5L969 944q-24 20.25-54 31.5l-15 74.5H800l-15-74.5q-30-11.25-54-31.5l-72.5 24.5-50-86.5 57-50.5c-.065-.44-.125-.875-.19-1.315-1.435-10.02-2.81-19.645-2.81-30.185s1.375-20.165 2.81-30.185c.065-.44.125-.875.19-1.315l-57-50.5 50-86.5L731 656q24-20.25 54-31.5l15-74.5h100l15 74.5q30 11.25 54 31.5l72.5-24.5 50 86.5-57 50.5zM750 800c0 55 45 100 100 100s100-45 100-100-45-100-100-100-100 45-100 100"/></g><defs><clipPath id="a"><path fill="#fff" d="M0 0h1200v1200H0z"/></clipPath></defs></svg>