<svg width="1200" height="1200" viewBox="0 0 1200 1200" fill="none" xmlns="http://www.w3.org/2000/svg"><g clip-path="url(#clip0_223_1915)"><path d="M1150 600L1028 460.5L1045 276L864.5 235L770 75L600 148L430 75L335.5 234.5L155 275L172 460L50 600L172 739.5L155 924.5L335.5 965.5L430 1125L600 1051.5L770 1124.5L864.5 965L1045 924L1028 739.5L1150 600ZM469 800.5L350 680.5C330.5 661 330.5 629.5 350 610L353.5 606.5C373 587 405 587 424.5 606.5L505 687.5L762.5 429.5C782 410 814 410 833.5 429.5L837 433C856.5 452.5 856.5 484 837 503.5L541 800.5C520.5 820 489 820 469 800.5Z" fill="#1D1E23"/></g><defs><clipPath id="clip0_223_1915"><path width="24" fill="white" d="M0 0H1200V1200H0V0z"/></clipPath></defs></svg>