<svg xmlns="http://www.w3.org/2000/svg" width="1200" height="1200" fill="none" viewBox="0 0 1200 1200"><g clip-path="url(#a)"><path fill="#000" d="M600 325.01c138 0 250 112 250 250 0 25.5-5 50-12 73l153 153c69.5-61.5 124.5-138.5 159-226.5-86.5-219-300-374.5-550-374.5-63.5 0-124.5 10-182 28.5l108.5 108.5c23.5-7 48-12 73.5-12m-429-202.5-70.5 71 134 134c-81.5 64-146 149-184.5 247.5 86.5 219.5 300 375 550 375 76 0 148.5-15 215.5-41l171.5 171.5 70.5-70.5zm429 702.5c-138 0-250-112-250-250 0-38.5 9-75 24.5-107l78.5 78.5c-1.5 9-3 18.5-3 28.5 0 83 67 150 150 150 10 0 19-1.5 28.5-3.5l78.5 78.5c-32.5 16-68.5 25-107 25m148.5-266.5c-7.5-70-62.5-124.5-132-132z"/></g><defs><clipPath id="a"><path fill="#fff" d="M0 0h1200v1200H0z"/></clipPath></defs></svg>