<svg width="1200" height="1200" viewBox="0 0 1200 1200" fill="none" xmlns="http://www.w3.org/2000/svg"><g clip-path="url(#clip0_117_814)"><path d="M725 650L721.5 686.5C770.5 629.5 800 555.5 800 475C800 295.5 654.5 150 475 150C295.5 150 150 295.5 150 475C150 654.5 295.5 800 475 800C555.5 800 629.5 770.5 686.5 721.5L650 725L950 1024.5L1024.5 950L725 650ZM475 700C350.5 700 250 599.5 250 475C250 350.5 350.5 250 475 250C599.5 250 700 350.5 700 475C700 599.5 599.5 700 475 700ZM350 450H600V500H350V450Z" fill="black"/></g><defs><clipPath id="clip0_117_814"><path width="24" fill="white" d="M0 0H1200V1200H0V0z"/></clipPath></defs></svg>