<svg viewBox="0 0 2400 2400" fill="none" xmlns="http://www.w3.org/2000/svg"><path d="M880.000 216.488 C 784.082 227.519,684.141 251.343,622.923 277.770 C 562.925 303.670,531.947 324.058,491.902 364.000 C 447.791 407.999,435.338 429.149,414.385 495.661 L 400.000 541.321 400.000 1098.147 L 400.000 1654.972 417.191 1694.486 C 436.221 1738.227,453.235 1766.474,481.311 1800.943 L 500.000 1823.887 500.000 1961.943 L 500.000 2100.000 650.000 2100.000 L 800.000 2100.000 800.000 2000.000 L 800.000 1900.000 1200.000 1900.000 L 1600.000 1900.000 1600.000 2000.000 L 1600.000 2100.000 1750.000 2100.000 L 1900.000 2100.000 1900.000 1960.697 L 1900.000 1821.395 1910.375 1811.697 C 1929.493 1793.830,1963.910 1737.392,1982.461 1693.492 L 2000.840 1650.000 1998.877 1090.000 L 1996.914 530.000 1986.025 496.000 C 1954.934 398.924,1903.218 339.554,1808.449 292.142 C 1737.717 256.755,1618.307 225.786,1516.000 216.295 C 1460.996 211.192,924.634 211.355,880.000 216.488 M1800.000 850.000 L 1800.000 1100.000 1200.000 1100.000 L 600.000 1100.000 600.000 850.000 L 600.000 600.000 1200.000 600.000 L 1800.000 600.000 1800.000 850.000 M812.000 1417.768 C 835.643 1429.975,859.897 1451.967,875.300 1475.167 L 890.000 1497.306 890.000 1550.167 L 890.000 1603.027 874.336 1625.770 C 855.846 1652.616,833.206 1673.027,807.133 1686.355 C 780.677 1699.879,721.154 1700.344,693.286 1687.244 C 668.527 1675.606,631.865 1639.161,617.552 1611.956 C 606.932 1591.772,606.044 1586.837,606.545 1550.808 C 607.036 1515.541,608.350 1509.058,619.668 1486.069 C 633.503 1457.964,663.446 1427.814,690.000 1415.248 C 711.701 1404.979,790.377 1406.604,812.000 1417.768 M1712.000 1417.768 C 1735.643 1429.975,1759.897 1451.967,1775.300 1475.167 L 1790.000 1497.306 1790.000 1550.167 L 1790.000 1603.027 1774.336 1625.770 C 1755.846 1652.616,1733.206 1673.027,1707.133 1686.355 C 1680.677 1699.879,1621.154 1700.344,1593.286 1687.244 C 1568.527 1675.606,1531.865 1639.161,1517.552 1611.956 C 1506.932 1591.772,1506.044 1586.837,1506.545 1550.808 C 1507.036 1515.541,1508.350 1509.058,1519.668 1486.069 C 1533.503 1457.964,1563.446 1427.814,1590.000 1415.248 C 1611.701 1404.979,1690.377 1406.604,1712.000 1417.768 " fill="#1D1E23" stroke="none" fill-rule="evenodd"/></svg>