<svg viewBox="0 0 2400 2400" fill="none" xmlns="http://www.w3.org/2000/svg"><path d="M990.000 207.862 C 736.861 219.071,561.636 276.229,477.811 374.937 C 439.283 420.305,429.611 439.270,411.437 505.090 L 402.349 538.000 400.958 1094.351 L 399.567 1650.703 412.117 1682.351 C 431.565 1731.400,450.788 1765.324,476.458 1795.897 L 500.000 1823.935 500.000 1904.407 L 500.000 1984.880 513.000 2009.281 C 530.132 2041.437,560.427 2071.802,589.527 2085.987 C 610.244 2096.085,617.468 2097.455,650.000 2097.455 C 682.301 2097.455,689.809 2096.054,709.718 2086.313 C 739.432 2071.775,771.687 2039.811,785.742 2010.974 C 795.311 1991.341,797.271 1981.468,799.049 1943.974 L 801.133 1900.000 1200.000 1900.000 L 1598.867 1900.000 1600.912 1943.145 C 1603.525 1998.272,1613.085 2020.251,1649.775 2055.482 C 1684.913 2089.223,1703.864 2097.091,1750.000 2097.091 C 1778.279 2097.091,1790.615 2095.218,1805.398 2088.679 C 1831.451 2077.154,1872.075 2037.164,1886.352 2008.988 C 1897.907 1986.183,1898.011 1985.348,1899.422 1904.000 L 1900.844 1822.000 1915.560 1806.000 C 1946.056 1772.842,1970.708 1729.579,1989.798 1675.711 L 2000.533 1645.422 1998.862 1095.711 C 1997.405 616.078,1996.395 542.431,1990.942 518.000 C 1966.927 410.413,1915.296 345.137,1812.669 292.610 C 1733.147 251.910,1626.784 225.820,1484.000 211.991 C 1429.073 206.671,1082.342 203.773,990.000 207.862 M1800.000 850.000 L 1800.000 1100.000 1200.000 1100.000 L 600.000 1100.000 600.000 850.000 L 600.000 600.000 1200.000 600.000 L 1800.000 600.000 1800.000 850.000 M812.786 1416.849 C 840.462 1429.618,867.642 1455.956,882.755 1484.650 C 893.106 1504.303,894.000 1509.498,894.000 1550.000 C 894.000 1590.636,893.129 1595.655,882.607 1615.642 C 867.849 1643.678,838.075 1672.440,809.172 1686.580 C 789.147 1696.378,781.563 1697.818,750.000 1697.818 C 718.437 1697.818,710.853 1696.378,690.828 1686.580 C 659.113 1671.064,630.312 1641.839,615.462 1610.105 C 604.004 1585.620,603.336 1581.601,604.636 1545.004 C 606.243 1499.789,614.318 1479.536,642.442 1450.184 C 677.550 1413.543,701.253 1403.824,752.000 1405.261 C 783.108 1406.141,794.133 1408.243,812.786 1416.849 M1712.786 1416.849 C 1740.462 1429.618,1767.642 1455.956,1782.755 1484.650 C 1793.106 1504.303,1794.000 1509.498,1794.000 1550.000 C 1794.000 1590.636,1793.129 1595.655,1782.607 1615.642 C 1767.849 1643.678,1738.075 1672.440,1709.172 1686.580 C 1689.147 1696.378,1681.563 1697.818,1650.000 1697.818 C 1618.437 1697.818,1610.853 1696.378,1590.828 1686.580 C 1559.113 1671.064,1530.312 1641.839,1515.462 1610.105 C 1504.004 1585.620,1503.336 1581.601,1504.636 1545.004 C 1506.243 1499.789,1514.318 1479.536,1542.442 1450.184 C 1577.550 1413.543,1601.253 1403.824,1652.000 1405.261 C 1683.108 1406.141,1694.133 1408.243,1712.786 1416.849 " fill="#1D1E23" stroke="none" fill-rule="evenodd"/></svg>