<svg viewBox="0 0 2400 2400" fill="none" xmlns="http://www.w3.org/2000/svg"><path d="M1050.000 202.383 C 782.631 215.768,635.655 249.839,533.899 322.024 C 503.432 343.637,462.033 387.768,444.463 417.361 C 426.393 447.795,409.396 499.610,404.041 540.585 C 401.020 563.703,400.033 740.397,400.837 1114.000 L 402.000 1654.000 411.399 1682.000 C 426.119 1725.849,450.541 1769.251,476.335 1797.400 L 500.000 1823.227 500.000 1961.613 L 500.000 2100.000 650.000 2100.000 L 800.000 2100.000 800.000 2000.000 L 800.000 1900.000 1200.000 1900.000 L 1600.000 1900.000 1600.000 2000.000 L 1600.000 2100.000 1750.000 2100.000 L 1900.000 2100.000 1900.000 1961.613 L 1900.000 1823.227 1923.665 1797.400 C 1949.459 1769.251,1973.881 1725.849,1988.601 1682.000 L 1998.000 1654.000 1999.256 1116.000 C 2000.607 537.623,2000.501 534.072,1980.091 473.081 C 1965.839 430.494,1948.178 401.172,1916.101 366.840 C 1830.263 274.969,1691.709 227.892,1448.000 207.793 C 1398.380 203.700,1103.699 199.695,1050.000 202.383 M1800.000 850.000 L 1800.000 1100.000 1200.000 1100.000 L 600.000 1100.000 600.000 850.000 L 600.000 600.000 1200.000 600.000 L 1800.000 600.000 1800.000 850.000 M813.175 1415.206 C 845.145 1430.397,869.961 1455.357,885.546 1488.000 C 896.586 1511.122,897.960 1517.985,897.960 1550.000 C 897.960 1581.955,896.572 1588.921,885.602 1612.000 C 869.901 1645.033,845.056 1669.884,812.000 1685.622 C 788.906 1696.617,781.977 1698.000,750.000 1698.000 C 718.023 1698.000,711.094 1696.617,688.000 1685.622 C 654.944 1669.884,630.099 1645.033,614.398 1612.000 C 603.428 1588.921,602.040 1581.955,602.040 1550.000 C 602.040 1518.045,603.428 1511.079,614.398 1488.000 C 634.216 1446.307,671.724 1415.017,714.984 1404.088 C 742.192 1397.215,785.674 1402.138,813.175 1415.206 M1713.175 1415.206 C 1745.145 1430.397,1769.961 1455.357,1785.546 1488.000 C 1796.586 1511.122,1797.960 1517.985,1797.960 1550.000 C 1797.960 1581.955,1796.572 1588.921,1785.602 1612.000 C 1769.901 1645.033,1745.056 1669.884,1712.000 1685.622 C 1688.906 1696.617,1681.977 1698.000,1650.000 1698.000 C 1618.023 1698.000,1611.094 1696.617,1588.000 1685.622 C 1554.944 1669.884,1530.099 1645.033,1514.398 1612.000 C 1503.428 1588.921,1502.040 1581.955,1502.040 1550.000 C 1502.040 1518.045,1503.428 1511.079,1514.398 1488.000 C 1534.216 1446.307,1571.724 1415.017,1614.984 1404.088 C 1642.192 1397.215,1685.674 1402.138,1713.175 1415.206 " fill="#1D1E23" stroke="none" fill-rule="evenodd"/></svg>