<svg viewBox="0 0 2400 2400" fill="none" xmlns="http://www.w3.org/2000/svg"><path d="M942.000 210.582 C 713.667 227.683,556.270 283.870,477.196 376.508 C 440.452 419.554,430.307 439.288,411.899 503.517 L 400.000 545.033 400.123 1099.517 L 400.246 1654.000 415.691 1691.094 C 434.400 1736.024,451.195 1764.453,479.000 1798.256 L 500.000 1823.787 500.000 1961.893 L 500.000 2100.000 650.000 2100.000 L 800.000 2100.000 800.000 2000.000 L 800.000 1900.000 1200.000 1900.000 L 1600.000 1900.000 1600.000 2000.000 L 1600.000 2100.000 1750.000 2100.000 L 1900.000 2100.000 1900.000 1961.588 L 1900.000 1823.175 1918.231 1802.898 C 1942.761 1775.614,1965.525 1736.400,1984.263 1689.143 L 1999.784 1650.000 1999.561 1228.000 C 1999.438 995.900,1998.004 741.200,1996.373 662.000 L 1993.409 518.000 1980.469 480.000 C 1973.353 459.100,1962.893 433.900,1957.225 424.000 C 1901.993 327.525,1794.178 265.505,1624.000 232.312 C 1518.229 211.681,1506.110 211.002,1226.000 210.015 C 1080.800 209.503,953.000 209.759,942.000 210.582 M1800.000 850.000 L 1800.000 1100.000 1200.000 1100.000 L 600.000 1100.000 600.000 850.000 L 600.000 600.000 1200.000 600.000 L 1800.000 600.000 1800.000 850.000 M810.842 1416.361 C 833.314 1425.994,866.002 1456.818,880.450 1482.000 C 891.295 1500.902,891.927 1504.589,891.962 1549.159 C 891.994 1589.398,890.752 1598.764,883.500 1612.981 C 870.842 1637.791,835.061 1673.143,809.534 1686.059 C 789.603 1696.143,782.749 1697.455,750.000 1697.455 C 717.151 1697.455,710.428 1696.158,690.204 1685.926 C 659.205 1670.242,623.426 1631.531,611.958 1601.268 C 604.465 1581.492,603.465 1572.775,605.299 1543.192 C 608.000 1499.607,617.549 1476.980,645.182 1448.683 C 668.142 1425.172,688.136 1413.244,713.375 1408.002 C 737.054 1403.084,790.576 1407.674,810.842 1416.361 M1710.842 1416.361 C 1733.314 1425.994,1766.002 1456.818,1780.450 1482.000 C 1791.295 1500.902,1791.927 1504.589,1791.962 1549.159 C 1791.994 1589.398,1790.752 1598.764,1783.500 1612.981 C 1770.842 1637.791,1735.061 1673.143,1709.534 1686.059 C 1689.603 1696.143,1682.749 1697.455,1650.000 1697.455 C 1617.151 1697.455,1610.428 1696.158,1590.204 1685.926 C 1559.205 1670.242,1523.426 1631.531,1511.958 1601.268 C 1504.465 1581.492,1503.465 1572.775,1505.299 1543.192 C 1508.000 1499.607,1517.549 1476.980,1545.182 1448.683 C 1568.142 1425.172,1588.136 1413.244,1613.375 1408.002 C 1637.054 1403.084,1690.576 1407.674,1710.842 1416.361 " fill="#1D1E23" stroke="none" fill-rule="evenodd"/></svg>