<svg viewBox="0 0 2400 2400" fill="none" xmlns="http://www.w3.org/2000/svg"><path d="M400.000 999.660 L 400.000 1700.000 1100.000 1700.000 L 1800.000 1700.000 1800.000 1350.405 L 1800.000 1000.810 1915.000 999.012 C 2009.759 997.530,2033.872 995.985,2052.000 990.233 C 2120.465 968.509,2175.840 910.880,2192.515 844.000 C 2200.371 812.489,2200.418 492.689,2192.571 458.000 C 2179.545 400.413,2143.921 356.294,2083.911 323.427 L 2050.000 304.854 1225.000 302.087 L 400.000 299.320 400.000 999.660 M2000.000 650.000 L 2000.000 800.000 1900.000 800.000 L 1800.000 800.000 1800.000 650.000 L 1800.000 500.000 1900.000 500.000 L 2000.000 500.000 2000.000 650.000 M200.000 2000.000 L 200.000 2100.000 1100.000 2100.000 L 2000.000 2100.000 2000.000 2000.000 L 2000.000 1900.000 1100.000 1900.000 L 200.000 1900.000 200.000 2000.000 " fill="#1D1E23" stroke="none" fill-rule="evenodd"/></svg>