<svg viewBox="0 0 2400 2400" fill="none" xmlns="http://www.w3.org/2000/svg"><path d="M705.904 307.873 L 541.807 310.000 514.812 323.296 C 464.367 348.141,424.278 394.780,409.339 446.000 C 402.896 468.092,402.230 505.624,400.965 918.102 L 399.591 1366.203 412.236 1402.102 C 440.046 1481.050,466.124 1525.377,514.629 1576.146 C 564.808 1628.669,614.492 1658.028,703.228 1687.596 L 740.455 1700.000 1100.000 1700.000 L 1459.545 1700.000 1496.772 1687.621 C 1596.972 1654.303,1663.533 1609.424,1717.391 1538.867 C 1744.703 1503.088,1763.073 1467.157,1783.893 1408.789 L 1800.000 1363.638 1800.000 1181.819 L 1800.000 1000.000 1899.000 999.921 C 1953.450 999.877,2010.600 998.040,2026.000 995.838 C 2080.143 988.097,2132.716 954.648,2163.300 908.481 C 2197.400 857.005,2199.647 840.870,2199.857 645.895 C 2200.056 461.910,2194.969 429.974,2157.983 382.992 C 2137.522 357.001,2114.177 338.653,2075.415 318.098 L 2048.830 304.000 1459.415 304.873 C 1135.237 305.353,796.157 306.703,705.904 307.873 M2000.000 650.000 L 2000.000 800.000 1900.000 800.000 L 1800.000 800.000 1800.000 650.000 L 1800.000 500.000 1900.000 500.000 L 2000.000 500.000 2000.000 650.000 M604.550 1903.842 L 255.101 1906.000 237.284 1925.681 C 197.761 1969.340,191.910 2003.348,216.285 2047.723 C 224.056 2061.871,234.844 2076.753,240.257 2080.795 C 261.987 2097.018,287.938 2097.523,1100.000 2097.523 C 1910.614 2097.523,1938.046 2096.994,1959.545 2080.943 C 1971.801 2071.792,1990.130 2039.388,1996.400 2015.786 C 2000.558 2000.135,2000.189 1994.225,1993.776 1973.786 C 1985.203 1946.463,1957.446 1915.068,1937.812 1910.488 C 1922.690 1906.960,1346.831 1900.310,1124.000 1901.090 C 1030.500 1901.417,796.748 1902.656,604.550 1903.842 " fill="#1D1E23" stroke="none" fill-rule="evenodd"/></svg>