<svg viewBox="0 0 2400 2400" fill="none" xmlns="http://www.w3.org/2000/svg"><path d="M400.000 999.347 L 400.000 1700.000 1100.000 1700.000 L 1800.000 1700.000 1800.000 1350.000 L 1800.000 1000.000 1903.000 999.970 C 1959.650 999.953,2017.665 998.047,2031.922 995.734 C 2100.319 984.637,2162.943 931.114,2188.773 861.677 C 2197.183 839.068,2197.648 830.964,2199.072 682.000 C 2200.869 493.989,2198.199 455.635,2180.708 418.258 C 2162.478 379.301,2127.812 344.844,2084.172 322.305 L 2049.316 304.303 1224.658 301.498 L 400.000 298.693 400.000 999.347 M2000.000 650.000 L 2000.000 800.000 1900.000 800.000 L 1800.000 800.000 1800.000 650.000 L 1800.000 500.000 1900.000 500.000 L 2000.000 500.000 2000.000 650.000 M200.000 2000.000 L 200.000 2100.000 1100.000 2100.000 L 2000.000 2100.000 2000.000 2000.000 L 2000.000 1900.000 1100.000 1900.000 L 200.000 1900.000 200.000 2000.000 " fill="#1D1E23" stroke="none" fill-rule="evenodd"/></svg>