<svg viewBox="0 0 2400 2400" fill="none" xmlns="http://www.w3.org/2000/svg"><path d="M563.997 307.629 C 510.215 312.533,448.245 359.166,421.432 414.912 C 409.070 440.614,406.672 450.535,403.452 489.285 C 401.373 514.316,400.235 718.888,400.869 954.000 L 402.000 1374.000 415.493 1412.000 C 441.144 1484.236,474.187 1537.918,522.366 1585.625 C 569.270 1632.070,618.091 1659.914,699.229 1686.494 L 740.459 1700.000 1100.000 1700.000 L 1459.541 1700.000 1501.404 1686.287 C 1581.621 1660.010,1636.816 1626.917,1686.289 1575.437 C 1734.143 1525.641,1758.119 1484.650,1784.903 1406.846 L 1797.588 1370.000 1799.046 1185.000 L 1800.504 1000.000 1903.252 999.970 C 1959.763 999.953,2017.665 998.047,2031.922 995.734 C 2100.319 984.637,2162.943 931.114,2188.773 861.677 C 2197.183 839.068,2197.648 830.964,2199.072 682.000 C 2200.869 493.989,2198.199 455.635,2180.708 418.258 C 2162.427 379.193,2127.828 344.853,2083.878 322.154 L 2048.729 304.000 1319.365 304.629 C 918.214 304.976,578.299 306.326,563.997 307.629 M2000.000 650.000 L 2000.000 800.000 1900.000 800.000 L 1800.000 800.000 1800.000 650.000 L 1800.000 500.000 1900.000 500.000 L 2000.000 500.000 2000.000 650.000 M496.579 1903.820 L 255.159 1906.000 233.800 1928.950 C 194.673 1970.991,190.940 2012.775,222.169 2059.147 C 246.574 2095.386,234.316 2093.492,464.000 2096.508 C 724.371 2099.926,1475.629 2099.926,1736.000 2096.508 C 1965.482 2093.495,1952.395 2095.517,1977.250 2059.232 C 1996.218 2031.540,2003.147 2002.402,1996.306 1979.102 C 1987.576 1949.367,1968.509 1923.797,1948.216 1914.609 C 1930.843 1906.742,1920.280 1906.230,1720.000 1903.546 C 1484.022 1900.384,861.574 1900.523,496.579 1903.820 " fill="#1D1E23" stroke="none" fill-rule="evenodd"/></svg>