<svg viewBox="0 0 2400 2400" fill="none" xmlns="http://www.w3.org/2000/svg"><path d="M856.000 307.856 L 542.000 310.000 520.000 321.309 C 470.342 346.837,439.339 378.551,417.101 426.568 C 406.848 448.708,406.097 454.411,403.489 530.000 C 401.971 574.000,400.565 780.461,400.364 988.802 L 400.000 1367.603 414.169 1406.802 C 448.142 1500.784,487.757 1558.794,554.135 1611.759 C 590.327 1640.638,634.051 1663.205,693.445 1683.660 L 740.889 1700.000 1099.659 1700.000 L 1458.428 1700.000 1499.314 1686.231 C 1578.452 1659.580,1630.897 1628.800,1679.949 1580.216 C 1728.796 1531.834,1758.544 1481.681,1787.625 1398.681 L 1800.000 1363.363 1800.000 1182.086 L 1800.000 1000.810 1915.000 999.012 C 2009.759 997.530,2033.872 995.985,2052.000 990.233 C 2120.465 968.509,2175.840 910.880,2192.515 844.000 C 2200.371 812.489,2200.418 492.689,2192.571 458.000 C 2179.611 400.707,2144.227 356.729,2083.953 323.000 L 2050.000 304.000 1610.000 304.856 C 1368.000 305.327,1028.700 306.677,856.000 307.856 M2000.000 650.000 L 2000.000 800.000 1900.000 800.000 L 1800.000 800.000 1800.000 650.000 L 1800.000 500.000 1900.000 500.000 L 2000.000 500.000 2000.000 650.000 M641.419 1903.804 C 265.208 1905.952,256.646 1906.173,248.078 1913.928 C 231.923 1928.551,211.196 1960.070,205.677 1978.407 C 198.276 2003.000,204.094 2028.717,224.043 2059.581 C 236.229 2078.435,242.714 2084.493,254.746 2088.261 C 276.704 2095.139,996.849 2099.514,1515.000 2095.919 C 1818.367 2093.813,1934.103 2091.754,1945.254 2088.261 C 1957.299 2084.489,1963.773 2078.432,1976.028 2059.472 C 1984.563 2046.266,1993.614 2026.132,1996.141 2014.730 C 2000.211 1996.364,1999.750 1991.383,1992.097 1971.045 C 1986.665 1956.610,1976.880 1941.512,1965.732 1930.364 C 1949.519 1914.150,1945.872 1912.431,1923.003 1910.224 C 1894.694 1907.491,1203.361 1899.638,1096.000 1900.830 C 1057.500 1901.258,852.938 1902.596,641.419 1903.804 " fill="#1D1E23" stroke="none" fill-rule="evenodd"/></svg>