<svg viewBox="0 0 2400 2400" fill="none" xmlns="http://www.w3.org/2000/svg"><path d="M400.000 999.494 L 400.000 1700.000 1100.000 1700.000 L 1800.000 1700.000 1800.000 1350.000 L 1800.000 1000.000 1899.000 999.921 C 1953.450 999.877,2010.600 998.040,2026.000 995.838 C 2080.143 988.097,2132.716 954.648,2163.300 908.481 C 2197.400 857.005,2199.647 840.870,2199.857 645.895 C 2200.056 461.910,2194.969 429.974,2157.983 382.992 C 2137.547 357.032,2114.006 338.516,2076.000 318.508 L 2050.000 304.820 1225.000 301.904 L 400.000 298.988 400.000 999.494 M2000.000 650.000 L 2000.000 800.000 1900.000 800.000 L 1800.000 800.000 1800.000 650.000 L 1800.000 500.000 1900.000 500.000 L 2000.000 500.000 2000.000 650.000 M200.000 2000.000 L 200.000 2100.000 1100.000 2100.000 L 2000.000 2100.000 2000.000 2000.000 L 2000.000 1900.000 1100.000 1900.000 L 200.000 1900.000 200.000 2000.000 " fill="#1D1E23" stroke="none" fill-rule="evenodd"/></svg>