<svg viewBox="0 0 2400 2400" fill="none" xmlns="http://www.w3.org/2000/svg"><path d="M568.000 302.648 C 547.298 306.004,509.264 321.531,489.052 334.877 C 445.880 363.383,413.709 411.536,404.121 462.000 C 400.829 479.328,399.928 608.328,400.881 926.000 L 402.201 1366.000 413.070 1403.174 C 454.849 1546.071,556.815 1647.343,698.911 1687.071 L 738.000 1698.000 1100.000 1698.000 L 1462.000 1698.000 1501.706 1686.907 C 1652.582 1644.755,1760.796 1529.260,1791.726 1377.372 C 1799.317 1340.099,1800.000 1322.837,1800.000 1168.372 L 1800.000 1000.000 1909.803 1000.000 C 1974.512 1000.000,2028.311 998.185,2040.803 995.580 C 2115.765 979.947,2179.947 915.765,2195.580 840.803 C 2201.601 811.931,2201.601 488.069,2195.580 459.197 C 2181.788 393.062,2134.082 338.710,2066.000 311.568 L 2042.000 302.000 1310.000 301.513 C 907.400 301.246,573.500 301.756,568.000 302.648 M2000.000 650.000 L 2000.000 800.000 1900.000 800.000 L 1800.000 800.000 1800.000 650.000 L 1800.000 500.000 1900.000 500.000 L 2000.000 500.000 2000.000 650.000 M264.342 1906.868 C 229.056 1919.332,200.000 1961.388,200.000 2000.000 C 200.000 2024.160,211.933 2052.144,229.895 2070.105 C 262.428 2102.639,185.628 2100.000,1100.000 2100.000 C 2014.372 2100.000,1937.572 2102.639,1970.105 2070.105 C 2009.232 2030.979,2009.232 1969.021,1970.105 1929.895 C 1937.555 1897.344,2014.683 1899.961,1098.287 1900.316 C 369.667 1900.598,280.104 1901.301,264.342 1906.868 " fill="#1D1E23" stroke="none" fill-rule="evenodd"/></svg>