<svg viewBox="0 0 2400 2400" fill="none" xmlns="http://www.w3.org/2000/svg"><path d="M400.000 999.944 L 400.000 1700.000 1100.000 1700.000 L 1800.000 1700.000 1800.000 1350.000 L 1800.000 1000.000 1909.803 1000.000 C 1974.512 1000.000,2028.311 998.185,2040.803 995.580 C 2115.765 979.947,2179.947 915.765,2195.580 840.803 C 2201.601 811.931,2201.601 488.069,2195.580 459.197 C 2181.788 393.062,2134.082 338.710,2066.000 311.568 L 2042.000 302.000 1221.000 300.944 L 400.000 299.887 400.000 999.944 M2000.000 650.000 L 2000.000 800.000 1900.000 800.000 L 1800.000 800.000 1800.000 650.000 L 1800.000 500.000 1900.000 500.000 L 2000.000 500.000 2000.000 650.000 M200.000 2000.000 L 200.000 2100.000 1100.000 2100.000 L 2000.000 2100.000 2000.000 2000.000 L 2000.000 1900.000 1100.000 1900.000 L 200.000 1900.000 200.000 2000.000 " fill="#1D1E23" stroke="none" fill-rule="evenodd"/></svg>