<svg viewBox="0 0 2400 2400" fill="none" xmlns="http://www.w3.org/2000/svg"><path d="M730.000 303.853 L 546.000 306.000 514.898 321.199 C 455.382 350.284,412.762 406.842,403.836 468.579 C 401.786 482.758,400.125 685.120,400.080 926.173 L 400.000 1358.346 410.308 1394.173 C 431.446 1467.642,468.503 1532.508,517.656 1582.079 C 565.760 1630.592,618.001 1660.957,695.661 1685.544 L 741.321 1700.000 1100.000 1700.000 L 1458.679 1700.000 1504.339 1685.602 C 1650.017 1639.666,1745.954 1542.586,1786.581 1400.000 L 1797.408 1362.000 1798.993 1181.000 L 1800.577 1000.000 1905.288 999.977 C 1962.880 999.964,2020.800 998.199,2034.000 996.054 C 2114.684 982.945,2185.154 910.133,2196.517 828.138 C 2198.968 810.447,2200.025 730.720,2199.166 628.349 C 2197.753 460.132,2197.616 457.700,2188.242 434.000 C 2167.400 381.308,2134.254 345.699,2082.797 320.722 L 2050.000 304.803 1482.000 303.254 C 1169.600 302.402,831.200 302.671,730.000 303.853 M2000.000 650.000 L 2000.000 800.000 1900.000 800.000 L 1800.000 800.000 1800.000 650.000 L 1800.000 500.000 1900.000 500.000 L 2000.000 500.000 2000.000 650.000 M344.000 1904.090 C 296.700 1905.448,257.510 1906.884,256.911 1907.280 C 256.311 1907.676,247.610 1915.569,237.573 1924.820 C 191.783 1967.028,188.479 2017.525,228.218 2067.799 C 241.780 2084.956,246.540 2088.023,266.843 2092.684 C 301.121 2100.553,1898.911 2100.545,1933.196 2092.676 C 1954.209 2087.852,1958.059 2085.227,1974.110 2064.776 C 2006.227 2023.857,2007.417 1980.073,1977.519 1939.345 C 1955.704 1909.627,1949.730 1907.747,1864.469 1903.777 C 1781.742 1899.925,479.701 1900.192,344.000 1904.090 " fill="#1D1E23" stroke="none" fill-rule="evenodd"/></svg>