<svg viewBox="0 0 2400 2400" fill="none" xmlns="http://www.w3.org/2000/svg"><path d="M400.000 999.390 L 400.000 1700.000 1100.000 1700.000 L 1800.000 1700.000 1800.000 1350.000 L 1800.000 1000.000 1905.000 999.977 C 1962.750 999.964,2020.800 998.199,2034.000 996.054 C 2114.684 982.945,2185.154 910.133,2196.517 828.138 C 2198.968 810.447,2200.025 730.720,2199.166 628.349 C 2197.753 460.132,2197.616 457.700,2188.242 434.000 C 2167.368 381.226,2134.514 346.014,2081.767 319.884 L 2047.940 303.127 1223.970 300.954 L 400.000 298.780 400.000 999.390 M2000.000 650.000 L 2000.000 800.000 1900.000 800.000 L 1800.000 800.000 1800.000 650.000 L 1800.000 500.000 1900.000 500.000 L 2000.000 500.000 2000.000 650.000 M200.000 2000.000 L 200.000 2100.000 1100.000 2100.000 L 2000.000 2100.000 2000.000 2000.000 L 2000.000 1900.000 1100.000 1900.000 L 200.000 1900.000 200.000 2000.000 " fill="#1D1E23" stroke="none" fill-rule="evenodd"/></svg>