<svg viewBox="0 0 2400 2400" fill="none" xmlns="http://www.w3.org/2000/svg"><path d="M613.377 507.639 C 598.594 509.440,586.294 514.600,569.943 525.862 C 540.699 546.002,525.706 564.069,513.396 594.000 C 500.762 624.718,437.346 802.517,360.386 1022.994 L 300.000 1195.988 300.000 1590.434 L 300.000 1984.880 313.000 2009.281 C 330.132 2041.437,360.427 2071.802,389.527 2085.987 C 410.244 2096.085,417.468 2097.455,450.000 2097.455 C 482.301 2097.455,489.809 2096.054,509.718 2086.313 C 539.432 2071.775,571.687 2039.811,585.742 2010.974 C 595.311 1991.341,597.271 1981.468,599.049 1943.974 L 601.133 1900.000 1200.000 1900.000 L 1798.867 1900.000 1800.912 1943.145 C 1803.525 1998.272,1813.085 2020.251,1849.775 2055.482 C 1884.913 2089.223,1903.864 2097.091,1950.000 2097.091 C 1978.222 2097.091,1990.624 2095.214,2005.304 2088.720 C 2030.826 2077.431,2069.575 2039.637,2086.310 2009.711 L 2100.000 1985.231 2100.000 1588.414 L 2100.000 1191.597 2014.325 948.799 C 1918.876 678.303,1897.712 620.361,1880.851 583.372 C 1867.665 554.443,1843.408 529.916,1812.494 514.250 L 1792.266 504.000 1213.133 504.563 C 894.610 504.873,624.720 506.257,613.377 507.639 M1728.317 667.000 C 1746.819 679.800,1752.459 686.987,1766.762 716.000 C 1781.612 746.120,1886.969 1053.508,1893.952 1087.088 L 1896.674 1100.175 1202.670 1099.088 C 820.967 1098.489,507.346 1096.681,505.734 1095.068 C 502.469 1091.802,595.243 808.375,619.794 746.611 C 639.730 696.459,651.544 678.814,675.088 664.028 L 694.000 652.152 1200.317 652.076 L 1706.634 652.000 1728.317 667.000 M712.786 1316.849 C 740.462 1329.618,767.642 1355.956,782.755 1384.650 C 793.106 1404.303,794.000 1409.498,794.000 1450.000 C 794.000 1490.636,793.129 1495.655,782.607 1515.642 C 767.849 1543.678,738.075 1572.440,709.172 1586.580 C 689.147 1596.378,681.563 1597.818,650.000 1597.818 C 618.437 1597.818,610.853 1596.378,590.828 1586.580 C 559.113 1571.064,530.312 1541.839,515.462 1510.105 C 504.004 1485.620,503.336 1481.601,504.636 1445.004 C 506.243 1399.789,514.318 1379.536,542.442 1350.184 C 577.550 1313.543,601.253 1303.824,652.000 1305.261 C 683.108 1306.141,694.133 1308.243,712.786 1316.849 M1812.786 1316.849 C 1840.462 1329.618,1867.642 1355.956,1882.755 1384.650 C 1893.106 1404.303,1894.000 1409.498,1894.000 1450.000 C 1894.000 1490.636,1893.129 1495.655,1882.607 1515.642 C 1867.849 1543.678,1838.075 1572.440,1809.172 1586.580 C 1789.147 1596.378,1781.563 1597.818,1750.000 1597.818 C 1718.437 1597.818,1710.853 1596.378,1690.828 1586.580 C 1659.113 1571.064,1630.312 1541.839,1615.462 1510.105 C 1604.004 1485.620,1603.336 1481.601,1604.636 1445.004 C 1606.243 1399.789,1614.318 1379.536,1642.442 1350.184 C 1677.550 1313.543,1701.253 1303.824,1752.000 1305.261 C 1783.108 1306.141,1794.133 1308.243,1812.786 1316.849 " fill="#1D1E23" stroke="none" fill-rule="evenodd"/></svg>