<svg viewBox="0 0 2400 2400" fill="none" xmlns="http://www.w3.org/2000/svg"><path d="M539.580 511.000 C 537.257 517.050,482.402 674.568,417.679 861.039 L 300.000 1200.079 300.000 1650.039 L 300.000 2100.000 450.000 2100.000 L 600.000 2100.000 600.000 2000.000 L 600.000 1900.000 1200.000 1900.000 L 1800.000 1900.000 1800.000 2000.000 L 1800.000 2100.000 1950.000 2100.000 L 2100.000 2100.000 2100.140 1651.000 L 2100.279 1202.000 1979.180 851.000 L 1858.081 500.000 1200.942 500.000 L 543.802 500.000 539.580 511.000 M1824.685 876.000 L 1899.325 1100.000 1199.234 1100.000 C 640.848 1100.000,499.516 1098.988,500.983 1095.000 C 501.994 1092.250,535.637 991.450,575.744 871.000 L 648.666 652.000 1199.355 652.000 L 1750.044 652.000 1824.685 876.000 M713.175 1315.206 C 745.145 1330.397,769.961 1355.357,785.546 1388.000 C 796.586 1411.122,797.960 1417.985,797.960 1450.000 C 797.960 1481.955,796.572 1488.921,785.602 1512.000 C 769.901 1545.033,745.056 1569.884,712.000 1585.622 C 688.906 1596.617,681.977 1598.000,650.000 1598.000 C 618.023 1598.000,611.094 1596.617,588.000 1585.622 C 554.944 1569.884,530.099 1545.033,514.398 1512.000 C 503.428 1488.921,502.040 1481.955,502.040 1450.000 C 502.040 1418.045,503.428 1411.079,514.398 1388.000 C 534.216 1346.307,571.724 1315.017,614.984 1304.088 C 642.192 1297.215,685.674 1302.138,713.175 1315.206 M1813.175 1315.206 C 1845.145 1330.397,1869.961 1355.357,1885.546 1388.000 C 1896.586 1411.122,1897.960 1417.985,1897.960 1450.000 C 1897.960 1481.955,1896.572 1488.921,1885.602 1512.000 C 1869.901 1545.033,1845.056 1569.884,1812.000 1585.622 C 1788.906 1596.617,1781.977 1598.000,1750.000 1598.000 C 1718.023 1598.000,1711.094 1596.617,1688.000 1585.622 C 1654.944 1569.884,1630.099 1545.033,1614.398 1512.000 C 1603.428 1488.921,1602.040 1481.955,1602.040 1450.000 C 1602.040 1418.045,1603.428 1411.079,1614.398 1388.000 C 1634.216 1346.307,1671.724 1315.017,1714.984 1304.088 C 1742.192 1297.215,1785.674 1302.138,1813.175 1315.206 " fill="#1D1E23" stroke="none" fill-rule="evenodd"/></svg>