<svg viewBox="0 0 2400 2400" fill="none" xmlns="http://www.w3.org/2000/svg"><path d="M718.000 507.884 L 598.000 510.000 578.841 521.262 C 550.787 537.752,534.894 553.005,523.136 574.725 C 510.830 597.457,470.154 709.197,371.827 990.386 L 300.000 1195.789 300.000 1590.028 L 300.000 1984.266 310.514 2005.015 C 324.504 2032.621,364.251 2073.416,389.342 2085.920 C 406.969 2094.704,414.795 2096.000,450.190 2096.000 C 486.091 2096.000,493.084 2094.804,510.404 2085.701 C 537.883 2071.258,574.333 2034.198,586.683 2008.145 C 595.181 1990.219,597.410 1978.535,599.088 1943.145 L 601.133 1900.000 1200.566 1900.000 L 1800.000 1900.000 1800.000 1927.454 C 1800.000 1987.592,1810.442 2014.842,1847.800 2052.200 C 1883.575 2087.976,1896.447 2093.571,1946.986 2095.314 C 1983.206 2096.563,1990.163 2095.666,2006.821 2087.603 C 2030.546 2076.118,2071.625 2035.350,2087.675 2007.361 L 2099.925 1986.000 2099.962 1588.669 L 2100.000 1191.337 2035.547 1008.669 C 1904.289 636.667,1886.154 588.385,1867.487 561.254 C 1854.895 542.953,1832.944 524.898,1807.159 511.634 C 1792.771 504.233,1777.780 504.027,1315.159 504.884 C 1052.722 505.371,784.000 506.721,718.000 507.884 M1726.590 666.229 C 1753.651 684.866,1766.734 710.176,1804.008 816.000 C 1839.237 916.018,1890.037 1069.260,1893.845 1087.000 L 1896.636 1100.000 1364.973 1100.000 C 1072.559 1100.000,760.116 1098.807,670.656 1097.349 C 527.375 1095.015,508.000 1093.959,508.000 1088.484 C 508.000 1079.435,556.266 927.728,590.874 828.000 C 629.241 717.437,646.221 684.104,673.548 665.702 L 693.893 652.000 1199.912 652.000 L 1705.931 652.000 1726.590 666.229 M710.842 1316.361 C 733.314 1325.994,766.002 1356.818,780.450 1382.000 C 791.295 1400.902,791.927 1404.589,791.962 1449.159 C 791.994 1489.398,790.752 1498.764,783.500 1512.981 C 770.842 1537.791,735.061 1573.143,709.534 1586.059 C 689.603 1596.143,682.749 1597.455,650.000 1597.455 C 617.151 1597.455,610.428 1596.158,590.204 1585.926 C 559.205 1570.242,523.426 1531.531,511.958 1501.268 C 504.465 1481.492,503.465 1472.775,505.299 1443.192 C 508.000 1399.607,517.549 1376.980,545.182 1348.683 C 568.142 1325.172,588.136 1313.244,613.375 1308.002 C 637.054 1303.084,690.576 1307.674,710.842 1316.361 M1810.842 1316.361 C 1833.314 1325.994,1866.002 1356.818,1880.450 1382.000 C 1891.295 1400.902,1891.927 1404.589,1891.962 1449.159 C 1891.994 1489.398,1890.752 1498.764,1883.500 1512.981 C 1870.842 1537.791,1835.061 1573.143,1809.534 1586.059 C 1789.603 1596.143,1782.749 1597.455,1750.000 1597.455 C 1717.151 1597.455,1710.428 1596.158,1690.204 1585.926 C 1659.205 1570.242,1623.426 1531.531,1611.958 1501.268 C 1604.465 1481.492,1603.465 1472.775,1605.299 1443.192 C 1608.000 1399.607,1617.549 1376.980,1645.182 1348.683 C 1668.142 1325.172,1688.136 1313.244,1713.375 1308.002 C 1737.054 1303.084,1790.576 1307.674,1810.842 1316.361 " fill="#1D1E23" stroke="none" fill-rule="evenodd"/></svg>