<svg viewBox="0 0 2400 2400" fill="none" xmlns="http://www.w3.org/2000/svg"><path d="M540.167 509.560 C 535.969 520.602,460.158 738.505,365.609 1011.291 L 300.000 1200.582 300.000 1650.291 L 300.000 2100.000 450.000 2100.000 L 600.000 2100.000 600.000 2000.000 L 600.000 1900.000 1200.000 1900.000 L 1800.000 1900.000 1800.000 2000.000 L 1800.000 2100.000 1950.000 2100.000 L 2100.000 2100.000 2100.040 1651.000 L 2100.079 1202.000 1979.066 851.000 L 1858.053 500.000 1200.927 500.000 L 543.802 500.000 540.167 509.560 M1824.685 876.000 L 1899.325 1100.000 1220.662 1099.965 C 847.398 1099.946,532.771 1098.822,521.491 1097.466 L 500.982 1095.002 574.829 873.501 L 648.675 652.000 1199.360 652.000 L 1750.044 652.000 1824.685 876.000 M710.842 1316.361 C 733.314 1325.994,766.002 1356.818,780.450 1382.000 C 791.295 1400.902,791.927 1404.589,791.962 1449.159 C 791.994 1489.398,790.752 1498.764,783.500 1512.981 C 770.842 1537.791,735.061 1573.143,709.534 1586.059 C 689.603 1596.143,682.749 1597.455,650.000 1597.455 C 617.151 1597.455,610.428 1596.158,590.204 1585.926 C 559.205 1570.242,523.426 1531.531,511.958 1501.268 C 504.465 1481.492,503.465 1472.775,505.299 1443.192 C 508.000 1399.607,517.549 1376.980,545.182 1348.683 C 568.142 1325.172,588.136 1313.244,613.375 1308.002 C 637.054 1303.084,690.576 1307.674,710.842 1316.361 M1810.842 1316.361 C 1833.314 1325.994,1866.002 1356.818,1880.450 1382.000 C 1891.295 1400.902,1891.927 1404.589,1891.962 1449.159 C 1891.994 1489.398,1890.752 1498.764,1883.500 1512.981 C 1870.842 1537.791,1835.061 1573.143,1809.534 1586.059 C 1789.603 1596.143,1782.749 1597.455,1750.000 1597.455 C 1717.151 1597.455,1710.428 1596.158,1690.204 1585.926 C 1659.205 1570.242,1623.426 1531.531,1611.958 1501.268 C 1604.465 1481.492,1603.465 1472.775,1605.299 1443.192 C 1608.000 1399.607,1617.549 1376.980,1645.182 1348.683 C 1668.142 1325.172,1688.136 1313.244,1713.375 1308.002 C 1737.054 1303.084,1790.576 1307.674,1810.842 1316.361 " fill="#1D1E23" stroke="none" fill-rule="evenodd"/></svg>