<svg viewBox="0 0 2400 2400" fill="none" xmlns="http://www.w3.org/2000/svg"><path d="M756.000 503.659 L 602.000 506.000 582.502 517.461 C 557.947 531.893,534.577 552.886,523.985 570.025 C 514.716 585.021,480.006 680.871,373.728 984.945 L 300.000 1195.889 300.000 1589.407 L 300.000 1982.925 314.005 2010.920 C 330.795 2044.480,358.886 2072.235,391.128 2087.117 C 410.463 2096.043,419.608 2097.686,450.269 2097.747 C 483.108 2097.811,489.010 2096.601,512.689 2084.944 C 544.370 2069.347,572.538 2040.528,587.021 2008.894 C 595.649 1990.047,597.793 1978.505,599.255 1943.021 L 601.028 1900.000 1200.000 1900.000 L 1798.972 1900.000 1800.764 1943.483 C 1802.314 1981.111,1804.103 1990.134,1814.044 2010.483 C 1828.921 2040.935,1861.637 2073.506,1890.927 2087.025 C 1910.502 2096.060,1919.458 2097.675,1950.000 2097.675 C 1980.542 2097.675,1989.498 2096.060,2009.073 2087.025 C 2039.168 2073.135,2071.158 2040.824,2087.316 2007.998 L 2100.115 1981.997 2099.058 1583.998 L 2098.000 1186.000 2010.668 938.000 C 1910.125 652.480,1891.792 602.930,1874.660 570.383 C 1861.796 545.946,1845.020 530.882,1812.000 514.118 L 1794.000 504.980 1352.000 503.149 C 1108.900 502.142,840.700 502.372,756.000 503.659 M1725.507 664.415 C 1749.648 678.855,1759.440 692.410,1776.508 735.018 C 1796.265 784.339,1899.497 1095.169,1896.962 1097.704 C 1895.700 1098.967,1581.767 1100.000,1199.333 1100.000 C 565.872 1100.000,504.000 1099.433,504.000 1093.628 C 504.000 1085.290,591.678 819.934,614.897 758.000 C 637.809 696.882,648.326 680.186,673.663 664.700 L 694.000 652.270 1199.375 652.135 L 1704.750 652.000 1725.507 664.415 M700.000 1310.948 C 736.989 1323.373,767.584 1351.718,786.136 1390.752 C 794.500 1408.349,796.000 1417.357,796.000 1450.000 C 796.000 1482.941,794.531 1491.601,785.819 1510.017 C 770.647 1542.088,743.855 1569.601,713.008 1584.787 C 688.987 1596.612,683.156 1597.818,650.000 1597.818 C 616.844 1597.818,611.013 1596.612,586.992 1584.787 C 556.761 1569.904,530.180 1542.965,514.319 1511.137 C 505.273 1492.985,504.000 1485.440,504.000 1450.000 C 504.000 1414.107,505.213 1407.127,514.811 1387.785 C 534.842 1347.422,578.058 1312.131,617.375 1304.029 C 638.055 1299.768,676.236 1302.965,700.000 1310.948 M1800.000 1310.948 C 1836.989 1323.373,1867.584 1351.718,1886.136 1390.752 C 1894.500 1408.349,1896.000 1417.357,1896.000 1450.000 C 1896.000 1482.941,1894.531 1491.601,1885.819 1510.017 C 1870.647 1542.088,1843.855 1569.601,1813.008 1584.787 C 1788.987 1596.612,1783.156 1597.818,1750.000 1597.818 C 1716.844 1597.818,1711.013 1596.612,1686.992 1584.787 C 1656.761 1569.904,1630.180 1542.965,1614.319 1511.137 C 1605.273 1492.985,1604.000 1485.440,1604.000 1450.000 C 1604.000 1414.107,1605.213 1407.127,1614.811 1387.785 C 1634.842 1347.422,1678.058 1312.131,1717.375 1304.029 C 1738.055 1299.768,1776.236 1302.965,1800.000 1310.948 " fill="#1D1E23" stroke="none" fill-rule="evenodd"/></svg>