<svg viewBox="0 0 2400 2400" fill="none" xmlns="http://www.w3.org/2000/svg"><path d="M540.167 509.560 C 535.969 520.602,460.158 738.505,365.609 1011.291 L 300.000 1200.582 300.000 1650.291 L 300.000 2100.000 450.000 2100.000 L 600.000 2100.000 600.000 2000.000 L 600.000 1900.000 1200.000 1900.000 L 1800.000 1900.000 1800.000 2000.000 L 1800.000 2100.000 1950.000 2100.000 L 2100.000 2100.000 2100.040 1651.000 L 2100.079 1202.000 1979.066 851.000 L 1858.053 500.000 1200.927 500.000 L 543.802 500.000 540.167 509.560 M1824.685 876.000 L 1899.325 1100.000 1218.221 1100.000 C 843.613 1100.000,528.983 1098.885,519.042 1097.523 L 500.967 1095.045 574.821 873.523 L 648.675 652.000 1199.360 652.000 L 1750.044 652.000 1824.685 876.000 M712.000 1317.768 C 735.643 1329.975,759.897 1351.967,775.300 1375.167 L 790.000 1397.306 790.000 1450.167 L 790.000 1503.027 774.336 1525.770 C 755.846 1552.616,733.206 1573.027,707.133 1586.355 C 680.677 1599.879,621.154 1600.344,593.286 1587.244 C 568.527 1575.606,531.865 1539.161,517.552 1511.956 C 506.932 1491.772,506.044 1486.837,506.545 1450.808 C 507.036 1415.541,508.350 1409.058,519.668 1386.069 C 533.503 1357.964,563.446 1327.814,590.000 1315.248 C 611.701 1304.979,690.377 1306.604,712.000 1317.768 M1812.000 1317.768 C 1835.643 1329.975,1859.897 1351.967,1875.300 1375.167 L 1890.000 1397.306 1890.000 1450.167 L 1890.000 1503.027 1874.336 1525.770 C 1855.846 1552.616,1833.206 1573.027,1807.133 1586.355 C 1780.677 1599.879,1721.154 1600.344,1693.286 1587.244 C 1668.527 1575.606,1631.865 1539.161,1617.552 1511.956 C 1606.932 1491.772,1606.044 1486.837,1606.545 1450.808 C 1607.036 1415.541,1608.350 1409.058,1619.668 1386.069 C 1633.503 1357.964,1663.446 1327.814,1690.000 1315.248 C 1711.701 1304.979,1790.377 1306.604,1812.000 1317.768 " fill="#1D1E23" stroke="none" fill-rule="evenodd"/></svg>