<svg viewBox="0 0 2400 2400" fill="none" xmlns="http://www.w3.org/2000/svg"><path d="M1088.000 215.518 C 1064.461 228.422,1037.282 254.979,1018.768 283.168 L 1001.144 310.000 997.011 600.000 C 994.737 759.500,991.708 892.700,990.278 896.000 C 984.866 908.496,945.133 934.468,600.302 1150.919 C 234.331 1380.639,213.926 1395.137,203.837 1432.605 C 192.223 1475.735,220.033 1531.853,263.037 1552.068 C 298.329 1568.657,308.245 1566.237,690.000 1447.863 C 953.618 1366.121,986.080 1356.747,990.441 1361.107 C 993.534 1364.200,999.296 1635.633,999.731 1798.748 L 1000.000 1899.495 941.000 1944.375 C 908.550 1969.059,863.550 2004.374,841.000 2022.853 L 800.000 2056.451 800.098 2089.225 C 800.264 2145.070,808.646 2167.400,833.403 2177.955 C 848.997 2184.603,859.321 2182.348,1016.047 2138.066 L 1150.095 2100.191 1268.047 2133.600 C 1437.817 2181.685,1453.789 2185.428,1464.850 2179.721 C 1492.281 2165.568,1501.259 2141.001,1499.177 2085.787 L 1498.000 2054.552 1464.000 2026.995 C 1445.300 2011.838,1400.468 1976.732,1364.373 1948.981 L 1298.745 1898.524 1301.471 1648.262 C 1302.971 1510.618,1305.261 1388.773,1306.560 1377.495 C 1308.678 1359.112,1309.806 1357.194,1317.461 1358.955 C 1334.964 1362.983,1451.647 1398.554,1638.000 1456.671 C 1925.600 1546.364,1987.719 1562.986,2017.506 1558.223 C 2039.085 1554.772,2073.552 1528.479,2084.419 1507.179 C 2095.010 1486.418,2098.379 1451.565,2092.072 1428.000 C 2082.565 1392.480,2072.550 1385.455,1676.000 1136.168 C 1410.129 969.031,1335.392 921.178,1318.774 907.439 L 1306.000 896.878 1302.000 603.439 L 1298.000 310.000 1287.221 291.664 C 1271.678 265.227,1233.896 228.405,1212.458 218.804 C 1185.208 206.599,1107.989 204.560,1088.000 215.518 " fill="#1D1E23" stroke="none" fill-rule="evenodd"/></svg>