<svg viewBox="0 0 2400 2400" fill="none" xmlns="http://www.w3.org/2000/svg"><path d="M1106.730 208.206 C 1076.617 215.663,1038.780 248.856,1014.798 288.855 L 1001.096 311.709 998.118 598.725 C 996.480 756.584,993.614 889.756,991.748 894.662 C 986.753 907.800,951.214 930.881,506.000 1210.129 C 250.534 1370.363,224.059 1388.813,209.669 1416.640 C 186.522 1461.401,211.895 1527.744,261.308 1551.665 C 297.902 1569.380,308.526 1566.849,666.000 1455.255 C 938.975 1370.039,988.902 1355.291,992.373 1358.851 C 994.061 1360.583,996.737 1482.764,998.319 1630.365 L 1001.196 1898.730 967.598 1924.100 C 905.345 1971.108,846.149 2017.411,822.527 2037.574 L 799.055 2057.610 800.787 2102.859 C 802.692 2152.623,806.933 2163.029,831.074 2177.167 C 846.324 2186.099,848.112 2185.717,1023.315 2136.070 L 1150.015 2100.168 1270.008 2134.284 C 1336.003 2153.048,1404.970 2172.006,1423.266 2176.413 C 1455.470 2184.170,1456.924 2184.196,1468.847 2177.213 C 1493.108 2163.005,1497.306 2152.686,1499.225 2102.542 L 1500.969 2056.976 1473.485 2034.203 C 1458.368 2021.678,1413.150 1986.234,1373.000 1955.438 L 1300.000 1899.445 1300.227 1700.722 C 1300.441 1513.899,1304.372 1362.294,1309.127 1357.539 C 1311.486 1355.181,1360.941 1370.079,1637.457 1456.445 C 2005.124 1571.282,2011.213 1572.547,2052.000 1542.580 C 2080.522 1521.624,2093.371 1499.920,2095.313 1469.420 C 2097.505 1435.007,2090.022 1410.022,2072.183 1392.183 C 2056.539 1376.539,1953.422 1309.931,1660.000 1125.934 C 1425.873 979.119,1335.340 921.152,1318.764 907.445 L 1306.000 896.889 1303.482 743.445 C 1302.098 659.050,1300.731 527.900,1300.445 452.000 L 1299.925 314.000 1287.356 292.000 C 1280.443 279.900,1263.411 258.815,1249.507 245.145 C 1229.664 225.635,1219.687 219.017,1203.114 214.373 C 1175.424 206.615,1125.943 203.448,1106.730 208.206 " fill="#1D1E23" stroke="none" fill-rule="evenodd"/></svg>