<svg viewBox="0 0 2400 2400" fill="none" xmlns="http://www.w3.org/2000/svg"><path d="M1114.984 204.088 C 1071.735 215.014,1034.235 246.291,1014.378 288.000 L 1002.000 314.000 1000.000 607.624 L 998.000 901.248 600.000 1149.999 L 202.000 1398.750 200.930 1499.830 C 199.993 1588.416,200.604 1600.624,205.873 1598.602 C 215.025 1595.090,980.054 1356.139,990.702 1353.466 L 1000.000 1351.133 1000.000 1625.549 L 1000.000 1899.966 900.000 1974.954 L 800.000 2049.943 800.000 2125.241 C 800.000 2200.172,800.041 2200.526,808.492 2197.844 C 813.162 2196.362,891.900 2173.743,983.465 2147.581 L 1149.947 2100.014 1319.973 2148.541 C 1413.488 2175.230,1492.250 2197.920,1495.000 2198.962 C 1498.890 2200.435,1500.000 2184.108,1500.000 2125.399 L 1500.000 2049.943 1400.000 1974.954 L 1300.000 1899.966 1300.000 1625.549 L 1300.000 1351.133 1309.298 1353.466 C 1319.946 1356.139,2084.975 1595.090,2094.127 1598.602 C 2099.396 1600.624,2100.007 1588.416,2099.070 1499.830 L 2098.000 1398.750 1700.000 1149.999 L 1302.000 901.248 1300.000 607.624 L 1298.000 314.000 1285.566 288.000 C 1261.046 236.727,1214.188 204.789,1159.175 201.852 C 1143.129 200.996,1123.243 202.002,1114.984 204.088 " fill="#1D1E23" stroke="none" fill-rule="evenodd"/></svg>