<svg viewBox="0 0 2400 2400" fill="none" xmlns="http://www.w3.org/2000/svg"><path d="M1088.000 215.518 C 1064.678 228.303,1037.056 255.142,1019.053 282.512 L 1002.000 308.436 997.675 600.158 C 993.544 878.778,993.005 892.264,985.675 900.457 C 970.949 916.917,836.286 1003.055,365.000 1297.476 L 200.000 1400.555 200.018 1451.277 C 200.028 1479.175,201.203 1522.250,202.629 1547.000 C 204.789 1584.476,206.290 1591.998,211.611 1591.987 C 220.092 1591.970,366.994 1547.499,650.000 1459.278 C 934.878 1370.472,988.438 1354.838,992.808 1359.208 C 994.687 1361.087,997.366 1483.308,998.761 1630.809 L 1001.297 1898.994 900.648 1974.468 L 800.000 2049.943 800.000 2120.735 C 800.000 2161.048,801.633 2192.537,803.794 2193.872 C 807.644 2196.252,892.581 2173.675,1058.143 2126.264 L 1149.609 2100.072 1289.804 2139.662 C 1491.758 2196.691,1491.679 2196.670,1496.030 2193.981 C 1498.415 2192.508,1500.000 2163.258,1500.000 2120.735 L 1500.000 2049.943 1400.000 1974.954 L 1300.000 1899.966 1300.301 1716.983 C 1300.618 1523.874,1304.559 1362.107,1309.056 1357.611 C 1310.533 1356.133,1414.850 1386.898,1540.871 1425.976 C 1873.591 1529.151,2080.806 1592.000,2088.255 1592.000 C 2093.775 1592.000,2095.170 1584.570,2097.385 1543.372 C 2098.823 1516.627,2100.000 1473.571,2100.000 1447.693 L 2100.000 1400.642 1785.000 1203.589 C 1431.209 982.269,1325.655 915.044,1314.000 903.621 C 1306.219 895.995,1305.890 887.752,1302.000 602.890 L 1298.000 310.000 1287.221 291.664 C 1271.678 265.227,1233.896 228.405,1212.458 218.804 C 1185.208 206.599,1107.989 204.560,1088.000 215.518 " fill="#1D1E23" stroke="none" fill-rule="evenodd"/></svg>