<svg viewBox="0 0 2400 2400" fill="none" xmlns="http://www.w3.org/2000/svg"><path d="M1099.686 209.187 C 1069.771 220.470,1030.604 257.529,1012.869 291.329 L 1000.973 314.000 998.612 602.000 C 997.314 760.400,995.143 893.600,993.787 898.000 C 992.180 903.217,854.009 991.717,596.661 1152.364 L 202.000 1398.728 200.730 1452.364 C 200.032 1481.864,200.669 1526.398,202.145 1551.329 L 204.830 1596.659 215.415 1594.072 C 221.237 1592.650,372.700 1545.821,552.000 1490.008 C 731.300 1434.196,904.100 1380.454,936.000 1370.582 L 994.000 1352.634 996.650 1371.317 C 998.107 1381.593,999.457 1504.742,999.650 1644.983 L 1000.000 1899.966 900.000 1974.954 L 800.000 2049.943 800.000 2123.417 L 800.000 2196.890 814.237 2194.219 C 822.067 2192.751,900.823 2170.982,989.251 2145.846 L 1150.028 2100.143 1310.736 2145.838 C 1399.125 2170.970,1477.869 2192.739,1485.722 2194.212 L 1500.000 2196.890 1500.000 2123.417 L 1500.000 2049.943 1400.000 1974.954 L 1300.000 1899.966 1300.350 1644.983 C 1300.543 1504.742,1301.893 1381.615,1303.350 1371.367 L 1306.000 1352.733 1336.000 1362.057 C 1352.500 1367.184,1525.300 1420.899,1720.000 1481.422 C 1914.700 1541.945,2078.763 1592.633,2084.585 1594.061 L 2095.170 1596.659 2097.855 1551.329 C 2099.331 1526.398,2099.968 1481.864,2099.270 1452.364 L 2098.000 1398.728 1703.339 1152.364 C 1447.397 992.594,1307.792 903.188,1306.160 898.000 C 1304.775 893.600,1302.582 760.400,1301.286 602.000 L 1298.929 314.000 1288.950 294.118 C 1274.959 266.242,1235.735 226.592,1212.086 216.418 C 1186.796 205.539,1120.641 201.283,1099.686 209.187 " fill="#1D1E23" stroke="none" fill-rule="evenodd"/></svg>