<svg viewBox="0 0 2400 2400" fill="none" xmlns="http://www.w3.org/2000/svg"><path d="M1139.781 261.802 C 1098.599 276.974,1103.020 273.808,872.000 453.573 C 563.436 693.679,402.420 821.425,385.923 839.217 C 362.336 864.654,357.954 916.542,376.736 947.995 C 381.831 956.527,403.100 977.379,424.000 994.332 C 525.547 1076.700,891.150 1361.047,1038.545 1472.292 C 1123.966 1536.763,1143.381 1545.506,1199.976 1544.993 C 1247.876 1544.558,1279.538 1533.761,1319.247 1504.318 C 1437.693 1416.496,1988.352 987.640,2006.677 968.945 C 2035.997 939.032,2043.949 892.026,2026.032 854.527 C 2016.942 835.502,2012.853 832.113,1770.000 642.367 C 1438.183 383.112,1308.800 284.072,1288.831 274.042 C 1278.288 268.746,1261.638 262.565,1251.831 260.305 C 1226.839 254.545,1156.943 255.479,1139.781 261.802 M430.345 1312.966 C 420.435 1315.586,406.983 1324.609,393.689 1337.552 C 376.988 1353.814,371.299 1362.822,365.900 1381.552 C 359.507 1403.733,359.510 1406.578,365.964 1430.419 C 371.399 1450.498,376.248 1458.879,389.408 1470.942 C 417.940 1497.096,639.566 1672.154,882.000 1860.032 C 1052.406 1992.090,1105.431 2030.464,1130.430 2039.817 C 1177.426 2057.401,1239.991 2054.234,1286.000 2031.944 C 1302.417 2023.991,1459.674 1904.446,1714.000 1706.583 C 1967.173 1509.617,2010.300 1474.325,2021.795 1454.711 C 2063.794 1383.044,2002.102 1297.179,1917.704 1309.835 C 1896.236 1313.055,1859.688 1339.874,1566.000 1567.920 C 1369.496 1720.503,1251.083 1810.200,1235.553 1818.231 C 1218.783 1826.903,1195.275 1829.190,1176.068 1824.018 C 1156.926 1818.864,1088.402 1768.195,846.000 1579.956 C 598.251 1387.565,497.672 1313.323,481.064 1310.578 C 461.455 1307.337,449.508 1307.899,430.345 1312.966 " fill="#1D1E23" stroke="none" fill-rule="evenodd"/></svg>