<svg viewBox="0 0 2400 2400" fill="none" xmlns="http://www.w3.org/2000/svg"><path d="M1152.446 260.300 C 1115.732 266.762,1083.229 289.631,824.000 491.392 C 587.040 675.822,429.635 802.019,399.414 831.801 C 376.820 854.066,372.211 861.003,368.720 878.000 C 366.171 890.409,365.948 904.832,368.132 916.000 C 370.068 925.900,371.730 935.390,371.826 937.089 C 372.568 950.252,440.047 1007.680,632.000 1158.508 C 975.089 1428.093,1116.227 1532.266,1147.345 1538.884 C 1172.245 1544.179,1244.593 1542.548,1260.000 1536.344 C 1278.418 1528.928,1320.052 1500.831,1396.000 1444.562 C 1576.949 1310.500,1938.846 1026.272,1996.179 973.192 C 2023.216 948.161,2033.857 925.228,2033.863 891.982 C 2033.870 851.762,2029.326 847.249,1832.000 691.482 C 1620.238 524.318,1364.145 328.206,1303.215 286.546 C 1269.094 263.217,1202.120 251.558,1152.446 260.300 M442.000 1311.701 C 411.594 1319.203,377.262 1349.935,368.026 1377.920 C 361.007 1399.188,364.973 1436.515,375.880 1451.831 C 392.814 1475.613,508.356 1569.461,800.000 1796.321 C 1132.129 2054.673,1132.419 2054.847,1220.723 2047.423 C 1274.058 2042.939,1283.823 2037.024,1460.000 1902.472 C 1754.068 1677.883,1944.785 1527.206,1989.376 1484.236 C 2027.092 1447.891,2033.343 1436.965,2032.988 1408.000 C 2032.681 1382.828,2027.642 1367.530,2013.590 1349.107 C 1988.691 1316.462,1934.233 1302.460,1898.828 1319.599 C 1878.921 1329.236,1746.134 1428.514,1556.000 1575.914 C 1362.360 1726.033,1256.502 1804.016,1228.385 1817.262 C 1204.574 1828.480,1201.524 1828.997,1185.096 1824.603 C 1155.522 1816.693,1116.072 1788.471,880.000 1606.337 C 673.234 1446.814,521.894 1334.244,499.084 1323.003 C 474.243 1310.761,458.469 1307.638,442.000 1311.701 " fill="#1D1E23" stroke="none" fill-rule="evenodd"/></svg>