<svg viewBox="0 0 2400 2400" fill="none" xmlns="http://www.w3.org/2000/svg"><path d="M1151.726 259.772 C 1112.665 266.948,1093.117 280.865,792.000 515.869 C 558.035 698.464,395.591 828.578,383.191 843.314 C 358.550 872.598,359.611 929.601,385.343 958.929 C 412.074 989.394,991.315 1441.673,1086.265 1506.217 C 1135.813 1539.899,1154.003 1545.440,1207.756 1543.225 C 1276.606 1540.388,1267.545 1546.112,1554.000 1324.497 C 1755.445 1168.651,1979.981 992.079,1999.337 974.292 C 2024.410 951.251,2033.593 931.436,2033.816 899.900 C 2034.143 853.545,2029.893 848.121,1932.131 770.124 C 1819.234 680.052,1471.061 409.208,1372.416 334.721 C 1321.677 296.409,1287.076 273.206,1272.416 267.664 C 1247.307 258.171,1183.238 253.982,1151.726 259.772 M430.978 1313.712 C 392.377 1327.487,362.214 1368.077,362.397 1406.000 C 362.571 1442.116,373.590 1458.555,426.572 1501.736 C 526.462 1583.149,852.957 1838.878,992.000 1944.612 C 1095.636 2023.420,1119.839 2038.529,1154.979 2046.346 C 1206.594 2057.830,1259.323 2048.645,1302.296 2020.686 C 1331.241 2001.854,1479.921 1888.505,1696.000 1720.539 C 2003.823 1481.258,2020.404 1467.064,2030.047 1434.595 C 2037.463 1409.621,2037.474 1402.407,2030.132 1377.726 C 2018.426 1338.376,1979.788 1310.801,1935.657 1310.299 C 1911.507 1310.025,1907.344 1311.299,1885.657 1325.598 C 1852.166 1347.679,1761.805 1416.109,1584.000 1554.041 C 1256.292 1808.260,1228.181 1828.101,1196.000 1827.890 C 1170.638 1827.724,1129.711 1799.548,927.998 1643.387 C 613.549 1399.949,513.394 1325.188,486.873 1314.107 C 469.131 1306.694,451.003 1306.566,430.978 1313.712 " fill="#1D1E23" stroke="none" fill-rule="evenodd"/></svg>