<svg viewBox="0 0 2400 2400" fill="none" xmlns="http://www.w3.org/2000/svg"><path d="M1164.000 258.623 C 1158.500 259.467,1148.024 261.127,1140.719 262.313 C 1115.174 266.458,1054.028 311.222,762.000 539.562 C 458.553 776.831,386.102 836.368,374.853 857.701 C 363.030 880.123,363.228 919.476,375.282 942.806 C 385.144 961.894,435.379 1004.103,632.000 1158.505 C 917.920 1383.032,1086.191 1509.827,1123.080 1528.542 C 1149.007 1541.695,1150.745 1542.000,1199.804 1542.000 C 1248.947 1542.000,1250.571 1541.714,1277.213 1528.346 C 1335.722 1498.989,1995.829 986.220,2017.745 953.102 C 2029.635 935.136,2037.148 900.404,2033.505 880.245 C 2027.647 847.829,2022.065 842.203,1897.380 743.047 C 1630.868 531.102,1315.660 290.043,1284.160 274.081 C 1258.806 261.233,1197.988 253.410,1164.000 258.623 M436.575 1312.381 C 406.947 1321.359,379.374 1347.531,368.224 1377.260 C 362.343 1392.938,362.950 1425.757,369.405 1441.128 C 379.904 1466.132,445.973 1520.705,790.000 1788.542 C 1124.941 2049.306,1126.355 2050.206,1200.000 2049.469 C 1245.146 2049.018,1272.425 2040.544,1309.402 2015.483 C 1342.415 1993.109,1498.651 1873.906,1696.000 1720.522 C 2032.237 1459.191,2033.639 1457.886,2033.639 1406.000 C 2033.639 1376.780,2023.300 1354.872,2000.168 1335.072 C 1980.900 1318.579,1960.989 1312.000,1930.344 1312.000 C 1911.216 1312.000,1904.158 1314.212,1885.788 1325.963 C 1857.851 1343.834,1738.458 1434.240,1566.000 1568.110 C 1385.195 1708.459,1275.696 1790.757,1244.000 1810.118 C 1208.256 1831.952,1187.963 1832.093,1153.067 1810.751 C 1122.716 1792.189,1040.912 1730.871,864.000 1594.076 C 680.156 1451.921,560.367 1361.621,519.969 1334.736 C 483.317 1310.344,462.080 1304.652,436.575 1312.381 " fill="#1D1E23" stroke="none" fill-rule="evenodd"/></svg>