<svg viewBox="0 0 2400 2400" fill="none" xmlns="http://www.w3.org/2000/svg"><path d="M1181.104 215.660 C 1160.864 230.322,601.494 665.586,454.000 781.444 C 327.851 880.535,308.000 896.669,308.000 900.107 C 308.000 904.458,463.781 1027.294,893.008 1361.398 L 1200.015 1600.368 1453.008 1403.406 C 1914.600 1044.041,2069.865 922.798,2083.033 911.434 L 2096.066 900.187 2049.033 862.826 C 1910.180 752.529,1315.462 289.416,1252.657 242.680 C 1196.369 200.793,1199.826 202.098,1181.104 215.660 M409.869 1321.407 C 381.196 1343.733,344.669 1372.170,328.697 1384.601 L 299.658 1407.202 646.829 1676.895 C 1131.980 2053.775,1192.225 2100.000,1198.266 2100.000 C 1203.966 2100.000,1285.396 2039.435,1424.000 1932.108 C 2014.483 1474.872,2092.000 1414.145,2092.000 1408.796 C 2092.000 1402.318,2068.690 1382.827,1953.422 1292.926 L 1936.844 1279.996 1717.422 1450.715 C 1493.222 1625.152,1236.394 1823.073,1212.919 1839.504 L 1199.837 1848.661 1164.919 1823.740 C 1117.741 1790.069,544.669 1347.969,478.000 1293.812 L 462.000 1280.815 409.869 1321.407 " fill="#1D1E23" stroke="none" fill-rule="evenodd"/></svg>