<svg viewBox="0 0 2400 2400" fill="none" xmlns="http://www.w3.org/2000/svg"><path d="M1168.000 254.500 C 1141.543 259.617,1106.693 273.850,1087.376 287.427 C 1035.638 323.794,404.371 818.160,389.773 833.744 C 357.105 868.617,354.825 925.341,384.636 961.507 C 400.886 981.221,1085.401 1512.637,1111.496 1525.797 C 1167.928 1554.256,1236.060 1552.996,1295.228 1522.399 C 1306.327 1516.659,1948.050 1019.778,1997.583 978.571 C 2023.149 957.301,2035.939 930.389,2035.873 898.000 C 2035.811 867.650,2026.506 846.853,2003.604 825.878 C 1982.934 806.947,1329.647 298.412,1305.737 282.640 C 1280.381 265.914,1246.291 255.687,1210.432 254.048 C 1192.594 253.233,1173.500 253.436,1168.000 254.500 M427.540 1313.518 C 395.254 1325.056,371.418 1353.005,363.390 1388.734 C 358.390 1410.987,365.468 1443.326,379.581 1462.708 C 392.494 1480.441,1077.973 2015.181,1107.292 2030.392 C 1162.634 2059.104,1235.016 2059.093,1291.067 2030.362 C 1312.526 2019.363,1975.815 1505.024,2004.870 1476.853 C 2025.959 1456.405,2036.022 1432.919,2035.961 1404.287 C 2035.884 1368.369,2008.309 1328.593,1973.363 1313.991 C 1954.917 1306.284,1917.035 1306.305,1898.541 1314.032 C 1890.601 1317.349,1741.622 1431.021,1567.476 1566.635 C 1339.904 1743.854,1245.102 1815.401,1230.423 1821.007 C 1208.038 1829.556,1183.244 1828.807,1159.450 1818.862 C 1152.053 1815.770,1003.677 1702.587,829.727 1567.345 C 654.283 1430.942,505.970 1318.456,496.646 1314.725 C 476.826 1306.795,447.775 1306.287,427.540 1313.518 " fill="#1D1E23" stroke="none" fill-rule="evenodd"/></svg>