<svg viewBox="0 0 2400 2400" fill="none" xmlns="http://www.w3.org/2000/svg"><path d="M700.000 276.000 L 700.000 352.000 929.673 352.000 C 1055.993 352.000,1162.158 353.079,1165.595 354.398 C 1170.701 356.357,1165.992 368.368,1139.863 420.028 C 1122.273 454.806,1104.758 486.945,1100.940 491.449 C 1094.822 498.667,1086.424 500.161,1030.000 504.065 C 880.664 514.398,775.902 535.404,690.870 572.063 C 643.926 592.302,618.246 610.170,577.265 651.111 C 551.091 677.259,540.782 691.137,528.241 717.111 C 519.507 735.200,510.334 760.800,507.857 774.000 C 504.761 790.502,502.702 945.693,501.265 1270.750 L 499.176 1743.500 510.085 1776.750 C 532.016 1843.599,566.598 1894.125,618.764 1935.537 C 646.686 1957.703,673.094 1971.179,714.000 1984.136 C 729.400 1989.014,743.574 1994.443,745.497 1996.200 C 747.421 1997.957,715.471 2033.449,674.497 2075.071 L 600.000 2150.747 600.000 2175.373 L 600.000 2200.000 701.030 2200.000 L 802.060 2200.000 902.000 2100.000 L 1001.940 2000.000 1202.000 2000.000 L 1402.060 2000.000 1502.000 2100.000 L 1601.940 2200.000 1700.970 2200.000 L 1800.000 2200.000 1800.000 2175.373 L 1800.000 2150.747 1725.503 2075.071 C 1684.529 2033.449,1652.579 1997.957,1654.503 1996.200 C 1656.426 1994.443,1670.600 1989.039,1686.000 1984.190 C 1727.520 1971.118,1758.940 1954.404,1787.409 1930.247 C 1838.386 1886.990,1864.532 1848.487,1887.612 1782.681 L 1900.000 1747.363 1899.792 1348.681 C 1899.550 885.690,1896.947 781.191,1884.804 747.051 C 1858.021 671.751,1787.347 604.215,1696.000 566.630 C 1612.723 532.366,1510.009 513.592,1341.000 501.744 C 1320.650 500.318,1303.958 497.992,1303.906 496.575 C 1303.854 495.159,1319.521 462.050,1338.721 423.000 L 1373.630 352.000 1536.815 352.000 L 1700.000 352.000 1700.000 276.000 L 1700.000 200.000 1200.000 200.000 L 700.000 200.000 700.000 276.000 M1700.000 1150.000 L 1700.000 1400.000 1200.000 1400.000 L 700.000 1400.000 700.000 1150.000 L 700.000 900.000 1200.000 900.000 L 1700.000 900.000 1700.000 1150.000 M1262.142 1565.550 C 1290.637 1578.596,1316.180 1602.924,1331.438 1631.552 C 1343.374 1653.945,1344.000 1657.357,1344.000 1700.000 C 1344.000 1742.643,1343.374 1746.055,1331.438 1768.448 C 1273.885 1876.429,1120.963 1874.189,1067.000 1764.574 C 1054.892 1739.981,1054.013 1735.416,1054.189 1698.084 C 1054.357 1662.324,1055.571 1655.695,1065.439 1636.639 C 1086.187 1596.573,1126.312 1563.502,1163.996 1555.409 C 1189.674 1549.895,1239.101 1555.002,1262.142 1565.550 " fill="#1D1E23" stroke="none" fill-rule="evenodd"/></svg>