<svg viewBox="0 0 2400 2400" fill="none" xmlns="http://www.w3.org/2000/svg"><path d="M700.000 276.000 L 700.000 352.000 929.673 352.000 C 1055.993 352.000,1162.158 353.079,1165.595 354.398 C 1170.701 356.357,1165.992 368.368,1139.863 420.028 C 1122.273 454.806,1104.758 486.945,1100.940 491.449 C 1094.822 498.667,1086.424 500.161,1030.000 504.065 C 880.664 514.398,775.902 535.404,690.870 572.063 C 643.926 592.302,618.246 610.170,577.265 651.111 C 551.091 677.259,540.782 691.137,528.241 717.111 C 519.507 735.200,510.334 760.800,507.857 774.000 C 504.761 790.502,502.702 945.693,501.265 1270.750 L 499.176 1743.500 510.085 1776.750 C 532.016 1843.599,566.598 1894.125,618.764 1935.537 C 646.686 1957.703,673.094 1971.179,714.000 1984.136 C 729.400 1989.014,743.447 1994.316,745.215 1995.918 C 746.984 1997.520,721.601 2026.877,688.808 2061.155 C 656.016 2095.433,626.805 2129.229,623.894 2136.256 C 616.999 2152.901,625.046 2177.604,641.283 2189.638 C 651.374 2197.116,659.181 2198.145,715.144 2199.375 C 753.906 2200.227,783.419 2199.043,792.693 2196.265 C 804.127 2192.839,830.754 2169.119,905.371 2095.890 L 1003.077 2000.000 1202.568 2000.000 L 1402.060 2000.000 1502.000 2100.000 L 1601.940 2200.000 1669.098 2200.000 C 1755.550 2200.000,1769.546 2194.490,1777.729 2157.233 C 1782.048 2137.568,1772.514 2124.090,1707.313 2057.691 L 1647.615 1996.896 1676.807 1988.045 C 1754.011 1964.637,1817.544 1917.024,1855.667 1854.002 C 1863.185 1841.576,1875.785 1814.892,1883.667 1794.704 L 1898.000 1758.000 1899.090 1368.000 C 1900.349 917.427,1897.232 782.089,1884.791 747.051 C 1858.068 671.796,1787.355 604.219,1696.000 566.630 C 1612.723 532.366,1510.009 513.592,1341.000 501.744 C 1320.650 500.318,1303.958 497.992,1303.906 496.575 C 1303.854 495.159,1319.521 462.050,1338.721 423.000 L 1373.630 352.000 1536.815 352.000 L 1700.000 352.000 1700.000 276.000 L 1700.000 200.000 1200.000 200.000 L 700.000 200.000 700.000 276.000 M1700.000 1150.000 L 1700.000 1400.000 1200.000 1400.000 L 700.000 1400.000 700.000 1150.000 L 700.000 900.000 1200.000 900.000 L 1700.000 900.000 1700.000 1150.000 M1262.142 1565.550 C 1290.637 1578.596,1316.180 1602.924,1331.438 1631.552 C 1343.374 1653.945,1344.000 1657.357,1344.000 1700.000 C 1344.000 1742.643,1343.374 1746.055,1331.438 1768.448 C 1273.885 1876.429,1120.963 1874.189,1067.000 1764.574 C 1054.892 1739.981,1054.013 1735.416,1054.189 1698.084 C 1054.357 1662.324,1055.571 1655.695,1065.439 1636.639 C 1086.187 1596.573,1126.312 1563.502,1163.996 1555.409 C 1189.674 1549.895,1239.101 1555.002,1262.142 1565.550 " fill="#1D1E23" stroke="none" fill-rule="evenodd"/></svg>