<svg viewBox="0 0 2400 2400" fill="none" xmlns="http://www.w3.org/2000/svg"><path d="M700.000 275.402 L 700.000 350.805 929.000 353.690 C 1054.950 355.277,1159.644 358.179,1161.653 360.140 C 1165.855 364.241,1131.301 437.838,1108.759 472.802 C 1094.124 495.501,1093.939 495.623,1068.029 499.681 C 1053.713 501.923,1021.300 505.717,996.000 508.112 C 878.033 519.282,772.141 540.759,707.523 566.622 C 600.700 609.377,517.896 699.306,508.154 783.144 C 506.182 800.115,503.991 1027.300,503.284 1288.000 L 502.000 1762.000 517.145 1795.524 C 558.649 1887.393,611.891 1940.860,698.659 1977.806 C 718.097 1986.082,735.634 1994.385,737.631 1996.257 C 742.354 2000.686,715.183 2032.728,651.107 2098.297 L 600.000 2150.594 600.000 2175.297 L 600.000 2200.000 701.030 2200.000 L 802.060 2200.000 902.000 2100.000 L 1001.940 2000.000 1202.000 2000.000 L 1402.060 2000.000 1502.000 2100.000 L 1601.940 2200.000 1700.970 2200.000 L 1800.000 2200.000 1800.000 2175.297 L 1800.000 2150.594 1748.893 2098.297 C 1684.768 2032.678,1657.648 2000.689,1662.369 1996.240 C 1664.366 1994.358,1680.239 1986.946,1697.643 1979.768 C 1740.244 1962.199,1757.717 1952.002,1785.379 1928.565 C 1832.556 1888.595,1863.037 1845.202,1888.220 1782.163 L 1900.938 1750.325 1898.635 1294.163 C 1897.368 1043.273,1894.655 820.900,1892.605 800.000 C 1890.555 779.100,1886.178 754.315,1882.880 744.922 C 1857.688 673.189,1774.240 598.722,1675.381 559.756 C 1622.960 539.094,1532.415 522.142,1398.000 507.825 C 1354.000 503.138,1316.289 497.659,1314.197 495.649 C 1309.183 490.830,1315.216 474.628,1347.203 407.000 L 1373.218 352.000 1536.609 352.000 L 1700.000 352.000 1700.000 276.000 L 1700.000 200.000 1200.000 200.000 L 700.000 200.000 700.000 275.402 M1700.000 1150.000 L 1700.000 1400.000 1200.000 1400.000 L 700.000 1400.000 700.000 1150.000 L 700.000 900.000 1200.000 900.000 L 1700.000 900.000 1700.000 1150.000 M1230.000 1560.163 C 1262.132 1564.759,1291.455 1582.090,1313.803 1609.695 C 1337.840 1639.386,1340.000 1646.927,1340.000 1701.181 L 1340.000 1750.760 1324.590 1774.603 C 1306.637 1802.379,1286.646 1820.036,1256.207 1835.000 C 1237.698 1844.100,1229.230 1845.714,1200.000 1845.714 C 1170.770 1845.714,1162.302 1844.100,1143.793 1835.000 C 1113.354 1820.036,1093.363 1802.379,1075.410 1774.603 L 1060.000 1750.760 1060.000 1697.820 L 1060.000 1644.880 1077.387 1621.262 C 1100.454 1589.927,1128.220 1568.152,1155.766 1559.793 C 1170.302 1555.382,1197.521 1555.518,1230.000 1560.163 " fill="#1D1E23" stroke="none" fill-rule="evenodd"/></svg>