<svg viewBox="0 0 2400 2400" fill="none" xmlns="http://www.w3.org/2000/svg"><path d="M700.000 276.000 L 700.000 352.000 936.000 352.000 C 1065.800 352.000,1172.000 352.919,1172.000 354.042 C 1172.000 355.165,1155.791 388.465,1135.979 428.042 C 1105.408 489.112,1098.599 500.009,1090.979 500.062 C 1086.041 500.096,1055.000 501.903,1022.000 504.077 C 854.650 515.104,726.524 546.222,640.886 596.638 C 628.403 603.987,601.730 626.200,581.612 646.000 C 552.311 674.838,542.204 687.968,530.808 712.000 C 499.951 777.072,502.000 737.103,502.000 1274.000 L 502.000 1754.000 514.654 1790.196 C 532.639 1841.639,552.463 1873.291,589.688 1910.000 C 635.180 1954.861,668.661 1972.809,747.700 1994.707 C 751.265 1995.695,729.297 2020.573,689.036 2061.143 C 618.243 2132.478,613.461 2140.607,625.435 2169.266 C 636.651 2196.108,648.877 2199.968,722.740 2199.985 C 758.757 2199.993,792.434 2198.116,798.646 2195.754 C 804.788 2193.419,853.135 2148.419,906.083 2095.754 L 1002.353 2000.000 1202.147 2000.000 L 1401.941 2000.000 1500.991 2099.000 L 1600.040 2198.000 1671.020 2199.125 C 1736.749 2200.166,1742.980 2199.642,1755.241 2192.037 C 1771.932 2181.685,1781.583 2159.756,1777.988 2140.353 C 1775.823 2128.667,1763.397 2113.977,1711.121 2061.300 L 1646.913 1996.601 1664.457 1992.196 C 1723.786 1977.301,1779.246 1945.171,1818.717 1902.828 C 1849.558 1869.743,1869.062 1836.772,1885.346 1790.196 L 1898.000 1754.000 1898.000 1274.000 C 1898.000 737.126,1900.031 776.758,1869.218 712.292 C 1851.292 674.788,1799.649 621.238,1757.495 596.443 C 1670.513 545.281,1546.966 515.211,1378.000 504.077 C 1345.000 501.903,1313.956 500.096,1309.014 500.062 C 1300.696 500.005,1302.774 494.498,1336.964 426.000 L 1373.900 352.000 1536.950 352.000 L 1700.000 352.000 1700.000 276.000 L 1700.000 200.000 1200.000 200.000 L 700.000 200.000 700.000 276.000 M1700.000 1150.000 L 1700.000 1400.000 1200.000 1400.000 L 700.000 1400.000 700.000 1150.000 L 700.000 900.000 1200.000 900.000 L 1700.000 900.000 1700.000 1150.000 M1264.357 1565.021 C 1292.378 1578.730,1321.276 1607.658,1335.130 1635.867 C 1344.861 1655.681,1346.000 1662.400,1346.000 1700.000 C 1346.000 1737.600,1344.861 1744.319,1335.130 1764.133 C 1306.113 1823.217,1240.261 1858.133,1177.205 1847.871 C 1130.004 1840.189,1086.189 1807.623,1065.123 1764.566 C 1051.357 1736.430,1047.964 1687.929,1057.473 1655.220 C 1069.453 1614.011,1107.703 1574.021,1149.344 1559.171 C 1180.749 1547.972,1235.166 1550.739,1264.357 1565.021 " fill="#1D1E23" stroke="none" fill-rule="evenodd"/></svg>