<svg viewBox="0 0 2400 2400" fill="none" xmlns="http://www.w3.org/2000/svg"><path d="M700.000 275.847 L 700.000 351.693 931.669 352.847 C 1059.088 353.481,1164.464 355.126,1165.839 356.503 C 1169.233 359.900,1152.591 396.849,1123.427 450.664 C 1106.170 482.508,1096.665 495.970,1090.309 497.565 C 1085.407 498.795,1049.132 502.605,1009.698 506.030 C 860.008 519.033,772.970 537.276,690.000 573.037 C 648.746 590.819,621.939 609.265,584.897 645.362 C 547.030 682.263,532.797 702.683,517.469 742.104 L 506.623 770.000 503.674 934.000 C 502.053 1024.200,500.563 1243.935,500.363 1422.299 L 500.000 1746.599 509.799 1775.409 C 545.376 1880.009,615.545 1951.991,712.957 1983.816 C 727.783 1988.660,740.891 1994.206,742.086 1996.139 C 743.281 1998.073,731.151 2014.183,715.130 2031.939 C 616.904 2140.801,618.360 2138.798,622.483 2159.413 C 626.073 2177.367,640.234 2191.998,658.000 2196.108 C 666.800 2198.144,698.182 2199.852,727.737 2199.905 C 773.804 2199.986,783.884 2198.833,798.359 2191.826 C 808.734 2186.804,851.480 2148.249,909.231 2091.826 L 1003.218 2000.000 1202.639 2000.000 L 1402.060 2000.000 1502.000 2100.000 L 1601.940 2200.000 1661.970 2199.902 C 1749.924 2199.759,1767.924 2193.994,1776.183 2163.320 C 1782.540 2139.712,1773.640 2126.109,1707.093 2057.722 L 1647.676 1996.662 1670.838 1990.051 C 1708.018 1979.438,1757.103 1953.886,1789.000 1928.538 C 1828.179 1897.404,1855.649 1859.997,1878.984 1806.000 L 1898.000 1762.000 1899.162 1372.000 C 1900.382 962.078,1896.822 795.394,1885.966 754.221 C 1877.013 720.266,1858.806 690.850,1824.555 655.000 C 1735.213 561.486,1611.755 522.242,1343.015 501.929 C 1323.773 500.474,1307.266 498.048,1306.332 496.538 C 1305.399 495.027,1320.084 461.888,1338.966 422.896 L 1373.298 352.000 1536.649 352.000 L 1700.000 352.000 1700.000 276.000 L 1700.000 200.000 1200.000 200.000 L 700.000 200.000 700.000 275.847 M1700.000 1150.000 L 1700.000 1400.000 1200.000 1400.000 L 700.000 1400.000 700.000 1150.000 L 700.000 900.000 1200.000 900.000 L 1700.000 900.000 1700.000 1150.000 M1246.000 1560.655 C 1283.228 1570.009,1329.778 1614.957,1339.871 1651.295 C 1345.596 1671.908,1344.686 1735.096,1338.411 1752.665 C 1335.530 1760.731,1326.428 1776.519,1318.183 1787.750 C 1282.137 1836.856,1217.974 1858.680,1159.726 1841.647 C 1117.030 1829.162,1087.648 1803.847,1066.131 1761.009 C 1057.141 1743.109,1056.004 1735.950,1056.038 1697.419 C 1056.073 1656.406,1056.748 1652.826,1068.226 1632.811 C 1090.494 1593.982,1128.854 1563.469,1164.587 1556.164 C 1183.606 1552.275,1220.819 1554.328,1246.000 1560.655 " fill="#1D1E23" stroke="none" fill-rule="evenodd"/></svg>