<svg viewBox="0 0 2400 2400" fill="none" xmlns="http://www.w3.org/2000/svg"><path d="M700.000 276.000 L 700.000 352.000 936.000 352.000 C 1065.800 352.000,1172.000 352.919,1172.000 354.042 C 1172.000 355.165,1155.791 388.465,1135.979 428.042 C 1105.408 489.112,1098.599 500.009,1090.979 500.062 C 1086.041 500.096,1055.000 501.903,1022.000 504.077 C 854.650 515.104,726.524 546.222,640.886 596.638 C 628.403 603.987,601.730 626.200,581.612 646.000 C 552.311 674.838,542.204 687.968,530.808 712.000 C 499.951 777.072,502.000 737.103,502.000 1274.000 L 502.000 1754.000 514.654 1790.196 C 532.639 1841.639,552.463 1873.291,589.688 1910.000 C 635.233 1954.913,668.126 1972.544,747.786 1994.740 C 751.443 1995.759,725.328 2024.623,676.786 2073.213 L 600.000 2150.075 600.000 2175.038 L 600.000 2200.000 701.030 2200.000 L 802.060 2200.000 902.000 2100.000 L 1001.940 2000.000 1202.000 2000.000 L 1402.060 2000.000 1502.000 2100.000 L 1601.940 2200.000 1700.970 2200.000 L 1800.000 2200.000 1800.000 2175.038 L 1800.000 2150.075 1723.214 2073.213 C 1674.672 2024.623,1648.557 1995.759,1652.214 1994.740 C 1731.874 1972.544,1764.767 1954.913,1810.312 1910.000 C 1847.537 1873.291,1867.361 1841.639,1885.346 1790.196 L 1898.000 1754.000 1898.000 1274.000 C 1898.000 737.126,1900.031 776.758,1869.218 712.292 C 1851.292 674.788,1799.649 621.238,1757.495 596.443 C 1670.513 545.281,1546.966 515.211,1378.000 504.077 C 1345.000 501.903,1313.956 500.096,1309.014 500.062 C 1300.696 500.005,1302.774 494.498,1336.964 426.000 L 1373.900 352.000 1536.950 352.000 L 1700.000 352.000 1700.000 276.000 L 1700.000 200.000 1200.000 200.000 L 700.000 200.000 700.000 276.000 M1700.000 1150.000 L 1700.000 1400.000 1200.000 1400.000 L 700.000 1400.000 700.000 1150.000 L 700.000 900.000 1200.000 900.000 L 1700.000 900.000 1700.000 1150.000 M1264.357 1565.021 C 1292.378 1578.730,1321.276 1607.658,1335.130 1635.867 C 1344.861 1655.681,1346.000 1662.400,1346.000 1700.000 C 1346.000 1737.600,1344.861 1744.319,1335.130 1764.133 C 1306.113 1823.217,1240.261 1858.133,1177.205 1847.871 C 1130.004 1840.189,1086.189 1807.623,1065.123 1764.566 C 1051.357 1736.430,1047.964 1687.929,1057.473 1655.220 C 1069.453 1614.011,1107.703 1574.021,1149.344 1559.171 C 1180.749 1547.972,1235.166 1550.739,1264.357 1565.021 " fill="#1D1E23" stroke="none" fill-rule="evenodd"/></svg>