<svg viewBox="0 0 2400 2400" fill="none" xmlns="http://www.w3.org/2000/svg"><path d="M260.000 407.641 C 234.860 410.458,208.167 422.451,180.283 443.457 C 135.143 477.462,110.218 522.303,104.084 580.541 C 99.466 624.384,99.020 1387.295,103.552 1490.000 C 106.477 1556.295,106.883 1558.646,119.717 1583.759 C 134.727 1613.130,168.285 1650.215,195.867 1667.915 C 217.946 1682.083,253.017 1694.798,279.824 1698.354 L 298.914 1700.887 301.176 1727.443 C 303.699 1757.051,322.195 1813.457,341.366 1850.000 C 349.361 1865.241,367.284 1887.284,390.475 1910.398 C 421.182 1941.004,432.962 1949.707,464.497 1965.090 C 485.124 1975.152,513.446 1986.323,527.435 1989.915 C 564.136 1999.337,637.132 1998.606,676.616 1988.421 C 758.659 1967.258,829.550 1908.739,869.478 1829.220 C 882.002 1804.277,900.000 1737.257,900.000 1715.562 L 900.000 1700.000 1199.422 1700.000 L 1498.843 1700.000 1501.203 1725.269 C 1504.404 1759.548,1524.532 1820.473,1542.903 1851.489 C 1575.436 1906.415,1633.492 1955.861,1690.562 1977.249 C 1737.951 1995.008,1752.426 1997.634,1802.000 1997.465 C 1844.811 1997.318,1854.108 1995.944,1888.000 1984.747 C 1937.373 1968.437,1970.567 1948.565,2006.175 1914.000 C 2039.560 1881.593,2063.144 1846.877,2077.763 1808.621 C 2089.101 1778.950,2099.822 1732.977,2099.931 1713.567 L 2100.000 1701.135 2163.000 1699.085 C 2236.519 1696.693,2245.977 1693.762,2272.678 1665.089 C 2287.285 1649.402,2292.079 1640.780,2294.678 1625.516 C 2300.501 1591.311,2298.789 1241.437,2292.668 1214.765 C 2288.980 1198.698,2279.857 1180.351,2263.095 1155.290 C 2226.874 1101.139,2038.246 850.246,2020.151 832.151 C 1992.094 804.094,1996.073 804.771,1840.655 801.617 L 1700.000 798.761 1699.824 700.381 C 1699.728 646.271,1698.148 589.058,1696.314 573.241 C 1689.011 510.257,1648.149 455.348,1583.878 422.154 L 1548.729 404.000 915.365 404.588 C 567.014 404.912,272.100 406.285,260.000 407.641 M1910.874 954.622 L 1955.747 957.208 2029.367 1051.604 C 2069.858 1103.522,2110.487 1156.751,2119.653 1169.892 C 2134.496 1191.169,2135.537 1194.092,2129.160 1196.610 C 2125.222 1198.165,2027.050 1199.564,1911.000 1199.719 L 1700.000 1200.000 1700.000 1076.000 L 1700.000 952.000 1783.000 952.018 C 1828.650 952.028,1886.193 953.200,1910.874 954.622 M642.726 1612.352 C 700.555 1640.346,713.760 1720.650,668.543 1769.357 C 635.274 1805.194,575.454 1808.132,538.650 1775.737 C 514.319 1754.320,504.000 1731.946,504.000 1700.609 C 504.000 1671.782,510.000 1655.112,527.583 1635.086 C 554.733 1604.164,605.221 1594.196,642.726 1612.352 M1842.726 1612.352 C 1900.555 1640.346,1913.760 1720.650,1868.543 1769.357 C 1835.274 1805.194,1775.454 1808.132,1738.650 1775.737 C 1714.319 1754.320,1704.000 1731.946,1704.000 1700.609 C 1704.000 1671.782,1710.000 1655.112,1727.583 1635.086 C 1754.733 1604.164,1805.221 1594.196,1842.726 1612.352 " fill="#1D1E23" stroke="none" fill-rule="evenodd"/></svg>