<svg viewBox="0 0 2400 2400" fill="none" xmlns="http://www.w3.org/2000/svg"><path d="M100.000 1050.000 L 100.000 1700.000 199.422 1700.000 L 298.843 1700.000 301.194 1725.000 C 303.863 1753.373,322.353 1813.050,338.289 1844.719 C 345.194 1858.443,364.089 1881.000,391.498 1908.240 C 426.082 1942.612,439.589 1953.134,464.000 1964.722 C 520.913 1991.740,531.624 1994.026,600.000 1993.750 C 655.984 1993.525,665.105 1992.471,694.000 1982.892 C 767.761 1958.439,832.771 1902.224,866.187 1834.000 C 881.574 1802.584,899.975 1737.807,899.990 1715.000 L 900.000 1700.000 1199.422 1700.000 L 1498.843 1700.000 1501.194 1725.000 C 1503.863 1753.373,1522.353 1813.050,1538.289 1844.719 C 1545.214 1858.482,1564.012 1880.894,1591.498 1908.158 C 1625.978 1942.359,1639.663 1953.009,1664.000 1964.580 C 1720.991 1991.677,1731.727 1994.000,1800.000 1994.000 C 1854.200 1994.000,1865.523 1992.830,1890.000 1984.698 C 1966.429 1959.306,2032.152 1903.072,2066.128 1834.000 C 2081.544 1802.660,2099.975 1737.890,2099.990 1715.000 L 2100.000 1700.000 2200.000 1700.000 L 2300.000 1700.000 2300.000 1449.959 L 2300.000 1199.917 2149.969 999.959 L 1999.938 800.000 1849.969 800.000 L 1700.000 800.000 1700.000 600.000 L 1700.000 400.000 900.000 400.000 L 100.000 400.000 100.000 1050.000 M1901.317 954.618 L 1955.899 957.235 2021.285 1041.618 C 2107.978 1153.497,2132.000 1185.878,2132.000 1190.856 C 2132.000 1198.915,2104.897 1200.000,1903.500 1200.000 L 1700.000 1200.000 1700.000 1076.000 L 1700.000 952.000 1773.368 952.000 C 1813.720 952.000,1871.297 953.178,1901.317 954.618 M643.581 1614.540 C 682.568 1633.968,702.340 1677.357,692.416 1721.705 C 667.914 1831.189,514.026 1818.550,505.017 1706.314 C 503.306 1684.994,504.581 1677.451,513.007 1659.045 C 535.429 1610.068,594.324 1589.995,643.581 1614.540 M1843.581 1614.540 C 1882.568 1633.968,1902.340 1677.357,1892.416 1721.705 C 1867.914 1831.189,1714.026 1818.550,1705.017 1706.314 C 1703.306 1684.994,1704.581 1677.451,1713.007 1659.045 C 1735.429 1610.068,1794.324 1589.995,1843.581 1614.540 " fill="#1D1E23" stroke="none" fill-rule="evenodd"/></svg>