<svg viewBox="0 0 2400 2400" fill="none" xmlns="http://www.w3.org/2000/svg"><path d="M100.000 1050.000 L 100.000 1700.000 200.000 1700.000 L 300.000 1700.000 300.000 1717.360 C 300.000 1745.251,314.487 1795.067,334.501 1836.000 C 350.291 1868.294,358.578 1879.466,389.691 1910.404 C 420.379 1940.919,432.424 1949.816,464.151 1965.400 C 516.278 1991.005,544.137 1997.615,600.000 1997.634 C 651.645 1997.652,690.375 1988.968,733.023 1967.808 C 794.769 1937.172,848.871 1879.911,875.260 1817.265 C 886.306 1791.041,899.935 1734.642,899.972 1715.000 L 900.000 1700.000 1200.000 1700.000 L 1500.000 1700.000 1500.000 1717.360 C 1500.000 1745.251,1514.487 1795.067,1534.501 1836.000 C 1550.291 1868.294,1558.578 1879.466,1589.691 1910.404 C 1620.379 1940.919,1632.424 1949.816,1664.151 1965.400 C 1716.278 1991.005,1744.137 1997.615,1800.000 1997.634 C 1851.645 1997.652,1890.375 1988.968,1933.023 1967.808 C 1994.769 1937.172,2048.871 1879.911,2075.260 1817.265 C 2086.306 1791.041,2099.935 1734.642,2099.972 1715.000 L 2100.000 1700.000 2200.000 1700.000 L 2300.000 1700.000 2300.000 1449.959 L 2300.000 1199.917 2149.969 999.959 L 1999.938 800.000 1849.969 800.000 L 1700.000 800.000 1700.000 600.000 L 1700.000 400.000 900.000 400.000 L 100.000 400.000 100.000 1050.000 M2046.854 1073.598 C 2115.774 1161.584,2139.144 1194.079,2135.268 1196.537 C 2132.371 1198.374,2033.250 1199.905,1915.000 1199.939 L 1700.000 1200.000 1700.000 1075.944 L 1700.000 951.888 1826.586 952.944 L 1953.171 954.000 2046.854 1073.598 M643.633 1611.813 C 677.306 1628.991,696.101 1659.224,696.676 1697.133 C 697.295 1737.999,678.361 1769.882,642.000 1789.203 C 621.337 1800.182,580.455 1800.922,559.570 1790.695 C 496.906 1760.011,482.189 1678.902,530.515 1630.576 C 560.311 1600.780,606.869 1593.057,643.633 1611.813 M1843.633 1611.813 C 1877.306 1628.991,1896.101 1659.224,1896.676 1697.133 C 1897.295 1737.999,1878.361 1769.882,1842.000 1789.203 C 1821.337 1800.182,1780.455 1800.922,1759.570 1790.695 C 1696.906 1760.011,1682.189 1678.902,1730.515 1630.576 C 1760.311 1600.780,1806.869 1593.057,1843.633 1611.813 " fill="#1D1E23" stroke="none" fill-rule="evenodd"/></svg>