<svg viewBox="0 0 2400 2400" fill="none" xmlns="http://www.w3.org/2000/svg"><path d="M100.000 1050.000 L 100.000 1700.000 199.430 1700.000 L 298.860 1700.000 301.351 1723.829 C 304.715 1756.011,328.960 1829.640,344.005 1853.364 C 350.726 1863.962,372.948 1889.220,393.386 1909.493 C 421.436 1937.316,438.324 1950.354,462.273 1962.679 C 516.850 1990.765,530.016 1993.703,600.000 1993.417 C 656.148 1993.188,664.932 1992.166,693.058 1982.591 C 766.703 1957.519,830.223 1903.528,863.181 1837.986 C 878.935 1806.658,895.618 1752.828,898.694 1723.401 L 901.140 1700.000 1200.000 1700.000 L 1498.860 1700.000 1501.351 1723.829 C 1504.715 1756.011,1528.960 1829.640,1544.005 1853.364 C 1550.726 1863.962,1572.948 1889.220,1593.386 1909.493 C 1632.170 1947.964,1667.878 1970.334,1716.000 1986.310 C 1747.947 1996.915,1852.535 1996.970,1884.000 1986.398 C 1962.893 1959.890,2029.766 1904.447,2063.307 1837.737 C 2078.949 1806.629,2095.627 1752.739,2098.694 1723.401 L 2101.140 1700.000 2200.570 1700.000 L 2300.000 1700.000 2300.000 1449.959 L 2300.000 1199.917 2149.969 999.959 L 1999.938 800.000 1849.969 800.000 L 1700.000 800.000 1700.000 600.000 L 1700.000 400.000 900.000 400.000 L 100.000 400.000 100.000 1050.000 M1892.975 954.639 L 1955.950 957.250 2033.288 1057.625 C 2126.529 1178.640,2133.257 1188.342,2127.751 1193.852 C 2125.024 1196.581,2051.175 1198.399,1911.803 1199.166 L 1700.000 1200.332 1700.000 1076.166 L 1700.000 952.000 1765.000 952.013 C 1800.750 952.021,1858.339 953.202,1892.975 954.639 M625.995 1608.416 C 647.605 1613.858,673.507 1635.431,684.647 1657.269 C 695.167 1677.890,696.027 1715.446,686.491 1737.785 C 668.713 1779.429,639.730 1797.792,595.704 1795.304 C 559.892 1793.280,535.637 1778.512,518.716 1748.429 C 489.411 1696.329,510.835 1632.762,564.961 1611.218 C 585.157 1603.178,602.105 1602.400,625.995 1608.416 M1825.995 1608.416 C 1847.605 1613.858,1873.507 1635.431,1884.647 1657.269 C 1895.167 1677.890,1896.027 1715.446,1886.491 1737.785 C 1868.713 1779.429,1839.730 1797.792,1795.704 1795.304 C 1759.892 1793.280,1735.637 1778.512,1718.716 1748.429 C 1689.411 1696.329,1710.835 1632.762,1764.961 1611.218 C 1785.157 1603.178,1802.105 1602.400,1825.995 1608.416 " fill="#1D1E23" stroke="none" fill-rule="evenodd"/></svg>