<svg viewBox="0 0 2400 2400" fill="none" xmlns="http://www.w3.org/2000/svg"><path d="M100.000 1050.000 L 100.000 1700.000 199.420 1700.000 L 298.840 1700.000 301.139 1727.000 C 303.694 1756.999,322.097 1813.269,341.366 1850.000 C 349.361 1865.241,367.284 1887.284,390.475 1910.398 C 421.182 1941.004,432.962 1949.707,464.497 1965.090 C 485.124 1975.152,513.446 1986.323,527.435 1989.915 C 564.136 1999.337,637.132 1998.606,676.616 1988.421 C 758.659 1967.258,829.550 1908.739,869.478 1829.220 C 882.002 1804.277,900.000 1737.257,900.000 1715.562 L 900.000 1700.000 1199.420 1700.000 L 1498.840 1700.000 1501.139 1727.000 C 1503.694 1756.999,1522.097 1813.269,1541.366 1850.000 C 1549.361 1865.241,1567.284 1887.284,1590.475 1910.398 C 1621.182 1941.004,1632.962 1949.707,1664.497 1965.090 C 1715.921 1990.175,1743.013 1996.458,1799.435 1996.381 C 1871.290 1996.284,1918.003 1981.738,1974.000 1942.022 C 2013.218 1914.207,2046.174 1875.246,2069.418 1829.220 C 2081.968 1804.368,2100.000 1737.353,2100.000 1715.562 L 2100.000 1700.000 2200.000 1700.000 L 2300.000 1700.000 2300.000 1449.959 L 2300.000 1199.917 2149.969 999.959 L 1999.938 800.000 1849.969 800.000 L 1700.000 800.000 1700.000 600.000 L 1700.000 400.000 900.000 400.000 L 100.000 400.000 100.000 1050.000 M1910.874 954.622 L 1955.747 957.208 2029.367 1051.604 C 2069.858 1103.522,2110.487 1156.751,2119.653 1169.892 C 2134.496 1191.169,2135.537 1194.092,2129.160 1196.610 C 2125.222 1198.165,2027.050 1199.564,1911.000 1199.719 L 1700.000 1200.000 1700.000 1076.000 L 1700.000 952.000 1783.000 952.018 C 1828.650 952.028,1886.193 953.200,1910.874 954.622 M642.726 1612.352 C 700.555 1640.346,713.760 1720.650,668.543 1769.357 C 635.274 1805.194,575.454 1808.132,538.650 1775.737 C 514.319 1754.320,504.000 1731.946,504.000 1700.609 C 504.000 1671.782,510.000 1655.112,527.583 1635.086 C 554.733 1604.164,605.221 1594.196,642.726 1612.352 M1842.726 1612.352 C 1900.555 1640.346,1913.760 1720.650,1868.543 1769.357 C 1835.274 1805.194,1775.454 1808.132,1738.650 1775.737 C 1714.319 1754.320,1704.000 1731.946,1704.000 1700.609 C 1704.000 1671.782,1710.000 1655.112,1727.583 1635.086 C 1754.733 1604.164,1805.221 1594.196,1842.726 1612.352 " fill="#1D1E23" stroke="none" fill-rule="evenodd"/></svg>