<svg viewBox="0 0 2400 2400" fill="none" xmlns="http://www.w3.org/2000/svg"><path d="M834.000 323.940 C 804.788 331.765,702.527 366.096,555.828 417.330 C 402.518 470.872,389.271 477.477,352.052 518.928 C 324.871 549.199,312.706 573.802,307.462 609.111 C 301.929 646.360,298.178 1623.658,302.988 1774.662 L 306.449 1883.324 321.031 1912.829 C 349.542 1970.516,413.252 2018.161,476.090 2028.788 C 511.364 2034.753,537.048 2027.684,700.000 1967.156 C 859.647 1907.856,888.964 1898.710,909.347 1901.845 C 929.223 1904.902,1050.347 1944.201,1270.374 2018.981 C 1367.380 2051.950,1457.685 2080.851,1471.054 2083.206 C 1514.609 2090.878,1544.075 2083.803,1740.000 2018.633 C 1878.086 1972.701,1965.632 1941.335,1989.490 1929.245 C 2026.931 1910.272,2080.442 1850.365,2092.431 1814.000 C 2096.686 1801.095,2097.957 1675.126,2099.004 1162.758 L 2100.302 527.516 2083.151 494.868 C 2061.845 454.310,2019.779 410.039,1987.905 394.629 C 1957.871 380.109,1911.395 370.794,1886.070 374.220 C 1852.365 378.780,1807.463 393.407,1673.557 443.447 C 1532.747 496.067,1507.069 502.865,1474.579 496.120 C 1463.102 493.738,1389.876 470.050,1311.856 443.481 C 958.547 323.165,933.633 315.744,884.648 316.220 C 872.192 316.341,849.400 319.815,834.000 323.940 M1070.757 571.499 C 1158.341 602.023,1291.043 648.365,1365.651 674.481 L 1501.303 721.964 1498.603 1221.982 C 1497.119 1496.992,1494.743 1757.513,1493.323 1800.918 L 1490.742 1879.837 1480.371 1877.432 C 1460.949 1872.928,1250.467 1801.473,1074.524 1739.655 L 899.049 1678.000 901.573 1116.000 C 903.822 615.101,905.241 516.000,910.160 516.000 C 910.904 516.000,983.173 540.974,1070.757 571.499 " fill="#1D1E23" stroke="none" fill-rule="evenodd"/></svg>