<svg viewBox="0 0 2400 2400" fill="none" xmlns="http://www.w3.org/2000/svg"><path d="M2050.000 298.779 C 2028.000 306.473,1895.852 356.696,1756.339 410.384 C 1616.825 464.073,1501.028 508.000,1499.013 508.000 C 1496.998 508.000,1361.375 461.262,1197.629 404.138 L 899.910 300.276 599.645 401.138 L 299.381 502.000 301.116 1298.000 C 302.070 1735.800,304.265 2098.224,305.993 2103.386 C 308.613 2111.213,311.070 2112.386,320.778 2110.444 C 333.273 2107.945,530.013 2033.195,758.902 1943.982 L 900.037 1888.972 1200.493 1994.173 L 1500.950 2099.373 1785.475 2002.335 C 1941.964 1948.964,2075.666 1902.354,2082.591 1898.757 L 2095.182 1892.218 2098.125 1841.183 C 2102.420 1766.725,2098.231 292.589,2093.713 288.307 C 2091.547 286.254,2073.337 290.616,2050.000 298.779 M1070.757 571.499 C 1158.341 602.023,1291.043 648.365,1365.651 674.481 L 1501.303 721.964 1498.603 1221.982 C 1497.119 1496.992,1494.743 1757.513,1493.323 1800.918 L 1490.742 1879.837 1480.371 1877.432 C 1460.949 1872.928,1250.467 1801.473,1074.524 1739.655 L 899.049 1678.000 901.573 1116.000 C 903.822 615.101,905.241 516.000,910.160 516.000 C 910.904 516.000,983.173 540.974,1070.757 571.499 " fill="#1D1E23" stroke="none" fill-rule="evenodd"/></svg>