<svg viewBox="0 0 2400 2400" fill="none" xmlns="http://www.w3.org/2000/svg"><path d="M1906.000 352.315 C 1804.800 391.831,1671.971 443.245,1610.824 466.569 L 1499.649 508.976 1446.824 490.657 C 1417.771 480.581,1282.875 433.606,1147.055 386.267 L 900.110 300.198 600.055 401.098 L 300.000 501.999 300.281 1304.000 C 300.436 1745.100,301.786 2108.928,303.281 2112.507 C 306.516 2120.248,273.467 2132.258,635.123 1991.923 L 900.246 1889.046 1200.438 1994.153 L 1500.629 2099.261 1787.315 2002.088 C 1944.992 1948.643,2078.697 1903.050,2084.437 1900.770 C 2091.581 1897.934,2095.683 1892.583,2097.437 1883.813 C 2098.847 1876.766,2100.000 1513.025,2100.000 1075.500 C 2100.000 441.642,2098.984 280.048,2095.000 280.234 C 2092.250 280.363,2007.200 312.800,1906.000 352.315 M1232.995 628.279 L 1499.991 722.000 1499.505 1264.000 C 1499.238 1562.100,1497.890 1824.176,1496.510 1846.390 L 1494.000 1886.780 1197.003 1782.390 L 900.006 1678.000 900.019 1146.000 C 900.026 853.400,901.197 591.168,902.620 563.262 L 905.208 512.525 935.604 523.541 C 952.322 529.600,1086.148 576.732,1232.995 628.279 " fill="#1D1E23" stroke="none" fill-rule="evenodd"/></svg>