<svg viewBox="0 0 2400 2400" fill="none" xmlns="http://www.w3.org/2000/svg"><path d="M858.000 316.217 C 821.908 323.753,422.200 460.443,401.316 472.391 C 371.524 489.436,340.858 520.849,325.125 550.438 C 298.458 600.589,300.000 558.467,300.000 1236.644 C 300.000 1670.150,301.304 1857.861,304.420 1872.803 C 324.146 1967.393,420.418 2039.581,514.466 2030.301 C 545.074 2027.281,561.564 2021.559,734.000 1954.132 C 819.229 1920.806,881.824 1898.559,894.000 1897.269 C 912.370 1895.322,935.192 1902.568,1174.000 1986.161 C 1317.000 2036.218,1443.900 2079.809,1456.000 2083.030 C 1470.949 2087.010,1488.897 2088.234,1512.000 2086.850 C 1542.942 2084.995,1565.726 2078.137,1765.314 2010.602 C 1885.937 1969.786,1992.149 1931.984,2001.341 1926.597 C 2022.655 1914.107,2057.997 1878.843,2070.383 1857.707 C 2075.652 1848.717,2084.021 1830.705,2088.981 1817.680 L 2098.000 1794.000 2099.133 1178.000 C 2099.952 732.257,2099.010 554.460,2095.724 534.721 C 2081.978 452.150,2010.357 382.606,1928.477 372.325 C 1876.029 365.739,1859.641 370.201,1686.000 438.348 C 1540.418 495.482,1523.657 501.177,1500.000 501.537 C 1475.884 501.904,1455.272 495.352,1215.488 411.096 C 1073.306 361.136,949.106 318.445,939.488 316.228 C 918.954 311.493,880.649 311.488,858.000 316.217 M1204.996 618.381 L 1499.992 722.000 1499.996 1305.428 C 1499.999 1770.457,1498.985 1888.494,1495.000 1887.071 C 1492.250 1886.089,1357.251 1838.647,1195.002 1781.643 L 900.004 1678.000 900.002 1094.572 C 900.000 629.531,901.015 511.511,905.000 512.953 C 907.750 513.947,1042.748 561.390,1204.996 618.381 " fill="#1D1E23" stroke="none" fill-rule="evenodd"/></svg>