<svg viewBox="0 0 2400 2400" fill="none" xmlns="http://www.w3.org/2000/svg"><path d="M1151.783 115.462 C 1108.963 143.062,1100.000 166.762,1100.000 252.380 L 1100.000 307.080 1067.000 311.865 C 1013.923 319.561,916.356 346.024,867.356 366.014 C 749.490 414.098,649.671 481.114,558.000 573.709 C 429.298 703.708,349.103 859.615,314.037 1048.000 C 310.557 1066.700,306.911 1085.767,305.936 1090.370 C 304.261 1098.279,300.793 1098.884,243.082 1101.336 C 170.858 1104.405,156.693 1107.781,135.427 1126.993 C 111.554 1148.562,102.296 1168.962,102.296 1200.000 C 102.296 1230.516,111.111 1250.254,134.661 1272.470 C 155.735 1292.349,168.711 1295.773,239.186 1300.047 C 272.838 1302.088,302.088 1304.818,304.186 1306.115 C 306.284 1307.411,308.000 1312.209,308.000 1316.777 C 308.000 1336.130,330.025 1429.930,345.957 1478.433 C 408.817 1669.792,535.349 1836.080,703.960 1948.918 C 755.692 1983.538,851.322 2030.436,910.000 2049.962 C 963.257 2067.685,1041.726 2087.304,1072.667 2090.632 L 1095.334 2093.070 1097.694 2131.535 C 1104.064 2235.337,1109.897 2256.631,1137.421 2276.570 C 1181.419 2308.441,1234.956 2304.741,1270.797 2267.351 C 1292.565 2244.641,1297.083 2228.334,1299.667 2163.131 C 1301.447 2118.219,1303.423 2102.940,1308.000 2098.689 C 1311.300 2095.624,1335.171 2089.227,1361.046 2084.474 C 1444.835 2069.081,1521.455 2043.299,1601.047 2003.712 C 1782.650 1913.390,1940.051 1749.678,2020.030 1567.933 C 2049.532 1500.891,2084.078 1383.900,2090.618 1328.888 C 2091.998 1317.276,2095.042 1306.592,2097.382 1305.146 C 2099.722 1303.700,2127.818 1301.184,2159.818 1299.556 C 2247.811 1295.078,2265.819 1287.113,2288.892 1242.466 C 2300.788 1219.446,2300.888 1179.968,2289.106 1157.621 C 2278.969 1138.394,2256.230 1117.359,2236.809 1109.245 C 2227.864 1105.507,2200.749 1102.661,2159.439 1101.125 C 2099.060 1098.879,2095.751 1098.336,2094.059 1090.380 C 2093.079 1085.771,2088.437 1062.328,2083.743 1038.284 C 2024.994 737.357,1831.273 494.721,1555.295 376.404 C 1480.341 344.270,1404.415 322.197,1333.542 311.937 L 1301.084 307.238 1299.093 240.619 C 1296.824 164.679,1293.784 153.725,1268.701 131.091 C 1246.237 110.821,1228.007 104.000,1196.295 104.000 C 1173.679 104.000,1166.830 105.764,1151.783 115.462 M1315.762 512.645 C 1401.673 526.554,1456.330 546.290,1549.295 596.973 C 1604.862 627.267,1630.843 647.449,1689.712 706.049 C 1759.658 775.674,1777.567 800.560,1822.099 890.000 C 1881.966 1010.243,1893.847 1062.333,1893.719 1204.000 C 1893.645 1286.573,1892.530 1303.101,1884.546 1339.962 C 1870.962 1402.674,1857.580 1439.465,1823.427 1508.000 C 1787.145 1580.807,1772.805 1603.089,1730.888 1651.785 C 1606.949 1795.771,1438.402 1882.741,1257.000 1896.310 C 1031.608 1913.171,828.363 1830.295,675.251 1659.095 C 616.161 1593.024,570.824 1514.922,540.491 1426.941 C 516.675 1357.865,507.430 1305.891,505.038 1227.628 C 501.025 1096.323,521.638 996.428,574.597 890.537 C 616.949 805.853,671.673 736.090,747.593 670.000 C 796.202 627.685,831.186 604.765,894.000 574.083 C 1030.720 507.302,1163.391 487.975,1315.762 512.645 M1122.000 808.476 C 1031.016 832.250,968.241 867.518,911.896 926.515 C 860.860 979.954,825.536 1046.124,809.675 1118.000 C 798.587 1168.245,800.103 1247.376,813.093 1296.476 C 851.652 1442.211,957.617 1548.278,1103.177 1586.834 C 1156.600 1600.985,1236.834 1601.835,1289.228 1588.803 C 1365.937 1569.725,1430.999 1532.560,1484.301 1477.373 C 1562.463 1396.447,1597.551 1309.102,1597.332 1196.000 C 1597.225 1140.574,1589.948 1104.239,1567.895 1049.021 C 1532.715 960.938,1462.580 886.581,1372.422 841.782 C 1316.698 814.093,1286.271 807.509,1206.000 805.769 C 1166.402 804.910,1131.317 806.041,1122.000 808.476 " fill="#1D1E23" stroke="none" fill-rule="evenodd"/></svg>