<svg viewBox="0 0 2400 2400" fill="none" xmlns="http://www.w3.org/2000/svg"><path d="M1167.540 369.273 C 1148.609 376.360,1130.214 389.655,1120.535 403.249 C 1109.349 418.958,489.456 1931.545,486.126 1951.256 C 476.291 2009.468,538.521 2071.655,597.217 2062.269 C 606.132 2060.844,737.754 2004.455,889.713 1936.961 L 1166.000 1814.244 1200.000 1814.137 L 1234.000 1814.030 1512.000 1937.772 C 1783.152 2058.466,1790.640 2061.517,1816.000 2061.622 C 1844.963 2061.743,1861.500 2055.096,1883.351 2034.552 C 1909.991 2009.505,1922.044 1968.531,1911.884 1937.551 C 1897.174 1892.691,1290.095 419.580,1280.762 406.095 C 1264.129 382.065,1237.661 367.451,1207.214 365.487 C 1191.859 364.496,1176.346 365.977,1167.540 369.273 " fill="#1D1E23" stroke="none" fill-rule="evenodd"/></svg>