<svg viewBox="0 0 2400 2400" fill="none" xmlns="http://www.w3.org/2000/svg"><path d="M1432.000 579.346 C 1065.700 732.865,661.150 902.335,533.000 955.946 L 300.000 1053.422 300.000 1098.091 C 300.000 1135.651,301.114 1143.727,307.000 1148.837 C 315.697 1156.387,344.143 1167.918,596.000 1265.982 C 707.100 1309.241,838.769 1360.753,888.598 1380.455 L 979.197 1416.276 1007.273 1485.138 C 1035.370 1554.053,1137.912 1815.678,1209.069 2000.000 L 1246.901 2098.000 1296.664 2099.114 L 1346.427 2100.227 1717.097 1215.114 C 2133.976 219.662,2100.455 299.963,2099.054 300.111 C 2098.474 300.172,1798.300 425.828,1432.000 579.346 " fill="#1D1E23" stroke="none" fill-rule="evenodd"/></svg>