<svg viewBox="0 0 2400 2400" fill="none" xmlns="http://www.w3.org/2000/svg"><path d="M2038.000 325.499 C 2005.000 339.394,1600.450 508.823,1139.000 702.007 L 300.000 1053.252 300.000 1100.136 C 300.000 1132.804,301.516 1148.256,305.000 1151.095 C 307.750 1153.336,449.500 1209.210,620.000 1275.258 C 790.500 1341.306,941.133 1400.177,954.739 1406.082 L 979.478 1416.819 999.081 1463.410 C 1020.659 1514.693,1105.325 1730.664,1191.404 1954.000 L 1246.906 2098.000 1296.560 2099.113 L 1346.215 2100.226 1402.814 1965.113 C 1433.944 1890.801,1546.124 1623.000,1652.104 1370.000 C 1758.084 1117.000,1900.601 776.800,1968.809 614.000 C 2097.979 305.694,2100.370 299.926,2098.901 300.118 C 2098.405 300.183,2071.000 311.604,2038.000 325.499 " fill="#1D1E23" stroke="none" fill-rule="evenodd"/></svg>