<svg viewBox="0 0 2400 2400" fill="none" xmlns="http://www.w3.org/2000/svg"><path d="M1862.000 398.715 C 1642.305 490.417,706.247 884.196,604.000 927.927 C 425.987 1004.063,388.876 1021.595,372.838 1037.132 C 341.652 1067.345,341.829 1130.909,373.194 1164.752 C 387.813 1180.527,420.774 1195.837,549.698 1246.737 C 838.826 1360.886,880.904 1378.012,926.940 1400.273 L 975.880 1423.938 991.426 1454.969 C 999.977 1472.036,1038.002 1563.400,1075.926 1658.000 C 1168.923 1889.977,1210.747 1990.822,1221.996 2010.201 C 1239.374 2040.136,1291.916 2059.099,1326.557 2047.937 C 1352.533 2039.567,1373.442 2019.220,1391.057 1985.170 C 1422.691 1924.021,1808.240 1006.683,1960.139 631.151 C 2009.735 508.539,2015.610 488.030,2008.307 463.006 C 1996.883 423.863,1973.401 403.550,1928.708 394.149 C 1892.202 386.470,1891.166 386.541,1862.000 398.715 " fill="#1D1E23" stroke="none" fill-rule="evenodd"/></svg>