<svg viewBox="0 0 2400 2400" fill="none" xmlns="http://www.w3.org/2000/svg"><path d="M1558.000 526.151 C 1377.600 602.014,1111.200 713.839,966.000 774.649 C 556.970 945.954,396.862 1014.936,382.023 1026.254 C 349.800 1050.831,338.865 1102.464,357.510 1142.000 C 375.151 1179.408,373.716 1178.683,618.000 1273.828 C 986.850 1417.492,969.596 1409.282,991.298 1451.442 C 999.949 1468.249,1027.315 1533.300,1052.110 1596.000 C 1135.768 1807.548,1199.137 1965.863,1209.816 1990.000 C 1223.510 2020.952,1236.422 2034.087,1262.887 2043.988 C 1316.064 2063.884,1363.467 2044.712,1389.619 1992.732 C 1417.976 1936.368,1973.883 607.357,1999.715 534.169 C 2015.606 489.146,2015.675 468.538,2000.025 441.251 C 1980.117 406.540,1958.772 393.994,1913.508 390.401 L 1886.000 388.217 1558.000 526.151 " fill="#1D1E23" stroke="none" fill-rule="evenodd"/></svg>