<svg viewBox="0 0 2400 2400" fill="none" xmlns="http://www.w3.org/2000/svg"><path d="M1676.000 477.326 C 1558.300 526.633,1224.794 666.217,934.875 787.513 C 644.956 908.810,400.669 1012.738,392.015 1018.465 C 364.132 1036.917,346.662 1067.346,346.673 1097.438 C 346.683 1123.397,358.382 1152.797,375.264 1169.281 C 391.978 1185.602,404.686 1191.028,644.000 1284.017 C 870.972 1372.210,948.977 1403.872,964.942 1414.288 C 984.685 1427.169,990.545 1439.416,1054.525 1601.508 C 1213.019 2003.047,1217.490 2013.906,1228.663 2024.482 C 1253.515 2048.006,1295.368 2057.696,1330.108 2047.970 C 1339.993 2045.202,1356.005 2035.962,1365.690 2027.437 C 1381.855 2013.208,1387.238 2002.664,1431.275 1898.968 C 1519.180 1691.978,1814.463 985.898,1951.087 656.000 C 2019.888 489.869,2021.663 482.904,2004.127 447.952 C 1985.079 409.988,1959.015 392.595,1916.645 389.577 L 1890.000 387.678 1676.000 477.326 " fill="#1D1E23" stroke="none" fill-rule="evenodd"/></svg>