<svg viewBox="0 0 2400 2400" fill="none" xmlns="http://www.w3.org/2000/svg"><path d="M1876.000 393.360 C 1753.900 444.610,1349.350 614.085,977.000 769.971 L 300.000 1053.401 300.061 1097.700 C 300.095 1122.065,301.560 1144.265,303.318 1147.033 C 307.240 1153.212,329.689 1162.256,670.000 1294.759 C 819.600 1353.007,950.413 1404.278,960.695 1408.694 L 979.390 1416.723 1001.084 1469.361 C 1028.078 1534.861,1117.941 1763.737,1191.366 1954.000 L 1246.938 2098.000 1296.617 2099.113 L 1346.296 2100.226 1665.994 1337.113 C 2135.681 215.976,2100.640 299.917,2098.901 300.089 C 2098.405 300.138,1998.100 342.110,1876.000 393.360 " fill="#1D1E23" stroke="none" fill-rule="evenodd"/></svg>