<svg viewBox="0 0 2400 2400" fill="none" xmlns="http://www.w3.org/2000/svg"><path d="M1125.418 204.365 C 987.557 216.668,844.750 269.680,730.000 351.150 C 573.130 462.524,457.936 643.405,418.261 840.651 C 379.167 1035.011,403.456 1198.638,500.400 1394.000 C 561.686 1517.503,654.144 1649.054,784.346 1798.000 C 846.325 1868.902,1002.146 2024.192,1092.000 2104.606 C 1201.540 2202.638,1195.202 2197.600,1203.902 2193.545 C 1241.690 2175.931,1577.271 1846.803,1662.262 1744.000 C 1870.411 1492.226,1974.583 1285.988,1995.919 1083.429 C 2013.591 915.653,1967.582 718.865,1876.385 572.156 C 1720.232 320.956,1427.186 177.435,1125.418 204.365 M1224.105 804.228 C 1292.729 812.789,1347.761 852.026,1378.568 914.361 L 1394.000 945.585 1394.000 1000.000 L 1394.000 1054.415 1378.908 1084.952 C 1336.684 1170.386,1241.567 1216.418,1153.840 1193.873 C 1095.141 1178.788,1048.737 1140.887,1021.504 1085.786 L 1006.000 1054.415 1006.000 1000.000 L 1006.000 945.585 1021.432 914.361 C 1052.175 852.155,1119.390 805.084,1184.105 800.438 C 1187.463 800.197,1205.463 801.903,1224.105 804.228 " fill="#1D1E23" stroke="none" fill-rule="evenodd"/></svg>