<svg viewBox="0 0 2400 2400" fill="none" xmlns="http://www.w3.org/2000/svg"><path d="M1114.000 206.646 C 1032.607 216.464,954.792 236.718,886.000 265.991 C 628.260 375.665,457.773 598.917,409.477 890.000 C 400.641 943.254,399.527 1065.206,407.431 1114.000 C 441.368 1323.520,566.078 1550.082,781.734 1794.000 C 856.206 1878.231,1088.332 2105.639,1167.178 2171.609 C 1195.523 2195.325,1196.664 2195.857,1207.178 2190.262 C 1249.468 2167.757,1556.493 1865.501,1658.920 1745.537 C 1909.733 1451.779,2022.573 1179.549,1995.782 932.842 C 1976.564 755.868,1906.236 590.029,1800.163 471.554 C 1644.116 297.263,1427.596 202.409,1190.795 204.599 C 1155.158 204.929,1120.600 205.850,1114.000 206.646 M1240.803 808.407 C 1294.273 819.523,1343.830 857.043,1375.297 910.233 L 1392.000 938.465 1392.000 1000.000 L 1392.000 1061.535 1375.699 1088.973 C 1329.179 1167.279,1248.142 1209.885,1171.706 1196.225 C 1111.600 1185.483,1058.803 1147.240,1024.735 1089.767 L 1008.000 1061.535 1008.010 999.767 L 1008.021 938.000 1022.427 914.000 C 1051.846 864.992,1087.387 832.761,1134.000 812.818 C 1156.941 803.003,1205.219 801.009,1240.803 808.407 " fill="#1D1E23" stroke="none" fill-rule="evenodd"/></svg>