<svg viewBox="0 0 2400 2400" fill="none" xmlns="http://www.w3.org/2000/svg"><path d="M1138.000 204.158 C 952.713 216.961,765.964 301.674,635.951 431.896 C 452.476 615.665,364.224 902.637,414.498 1152.000 C 458.678 1371.141,613.837 1624.258,858.774 1876.767 C 972.871 1994.391,1157.325 2168.881,1190.863 2190.917 C 1198.891 2196.192,1200.962 2195.865,1212.863 2187.440 C 1254.603 2157.889,1462.086 1958.506,1570.909 1843.370 C 1785.155 1616.698,1925.137 1392.418,1974.516 1196.711 C 1999.414 1098.034,2005.438 1013.539,1994.247 920.000 C 1974.947 758.696,1913.460 608.391,1819.961 493.956 C 1787.723 454.498,1711.437 382.360,1672.343 354.364 C 1519.211 244.704,1328.216 191.014,1138.000 204.158 M1251.067 810.460 C 1302.208 823.747,1344.913 857.473,1374.471 907.916 L 1392.000 937.833 1392.000 1000.000 L 1392.000 1062.167 1374.337 1092.341 C 1291.218 1234.333,1108.822 1234.401,1025.738 1092.470 L 1008.000 1062.167 1008.000 1000.000 L 1008.000 937.833 1025.663 907.659 C 1054.748 857.972,1102.086 820.072,1152.419 806.175 C 1176.460 799.536,1215.559 801.235,1251.067 810.460 " fill="#1D1E23" stroke="none" fill-rule="evenodd"/></svg>