<svg viewBox="0 0 2400 2400" fill="none" xmlns="http://www.w3.org/2000/svg"><path d="M1118.868 204.467 C 1034.772 212.570,933.270 240.604,854.630 277.445 C 574.406 408.726,399.511 693.444,400.078 1017.424 C 400.572 1299.574,588.697 1621.420,968.320 1989.576 C 1041.498 2060.544,1194.292 2198.000,1200.000 2198.000 C 1201.835 2198.000,1239.936 2165.619,1284.668 2126.042 C 1379.839 2041.841,1555.162 1868.137,1619.242 1794.559 C 1815.114 1569.655,1929.702 1377.126,1976.403 1194.465 C 2013.544 1049.199,2005.922 892.305,1954.206 737.537 C 1837.341 387.802,1493.482 168.368,1118.868 204.467 M1266.174 812.372 C 1324.845 834.235,1365.108 874.388,1388.135 934.000 C 1395.716 953.628,1397.405 965.651,1397.405 1000.000 C 1397.405 1034.349,1395.716 1046.372,1388.135 1066.000 C 1368.358 1117.198,1331.511 1158.402,1286.562 1179.584 C 1177.653 1230.908,1056.161 1180.672,1011.865 1066.000 C 998.535 1031.489,998.562 968.375,1011.923 934.000 C 1029.004 890.053,1053.929 858.066,1089.285 834.722 C 1108.937 821.747,1146.198 806.455,1168.000 802.417 C 1190.086 798.327,1242.837 803.676,1266.174 812.372 " fill="#1D1E23" stroke="none" fill-rule="evenodd"/></svg>