<svg viewBox="0 0 2400 2400" fill="none" xmlns="http://www.w3.org/2000/svg"><path d="M994.913 207.844 C 975.779 211.553,961.152 225.226,955.252 244.919 C 951.470 257.542,951.845 264.143,957.332 281.550 C 961.013 293.228,967.544 305.968,971.845 309.860 C 983.176 320.114,1040.974 323.593,1200.000 323.593 C 1358.212 323.593,1416.843 320.097,1428.002 309.998 C 1439.461 299.628,1448.983 267.310,1445.715 249.886 C 1442.299 231.678,1421.484 210.097,1403.958 206.592 C 1386.262 203.052,1013.749 204.193,994.913 207.844 M864.000 459.841 C 772.830 462.241,766.257 463.868,738.406 490.920 C 730.039 499.047,717.992 514.764,711.634 525.848 L 700.075 546.000 700.038 702.680 L 700.000 859.359 926.961 783.680 L 1153.921 708.000 1199.764 708.000 L 1245.608 708.000 1462.220 780.000 C 1581.356 819.600,1683.863 852.000,1690.013 852.000 L 1701.194 852.000 1699.066 698.994 C 1696.731 531.052,1696.691 530.768,1671.500 502.001 C 1664.075 493.521,1647.371 479.702,1634.380 471.292 L 1610.760 456.000 1278.380 456.841 C 1095.571 457.303,909.100 458.653,864.000 459.841 M1146.000 845.609 C 1084.051 859.856,677.217 999.463,626.000 1024.049 C 576.113 1047.997,541.222 1090.613,523.292 1149.495 C 507.237 1202.223,514.257 1231.756,584.743 1408.000 C 633.573 1530.095,664.055 1592.641,680.840 1605.179 C 707.749 1625.280,717.670 1625.797,768.359 1609.736 C 832.456 1589.426,849.462 1591.085,936.313 1626.126 C 1039.910 1667.924,1084.295 1680.054,1147.000 1683.705 C 1228.032 1688.423,1297.541 1683.071,1346.653 1668.332 C 1387.984 1655.928,1459.245 1629.193,1501.114 1610.384 C 1521.195 1601.363,1529.662 1600.000,1565.638 1600.000 C 1600.057 1600.000,1611.533 1601.688,1633.615 1610.000 C 1648.849 1615.734,1668.616 1620.000,1679.952 1620.000 C 1696.499 1620.000,1702.104 1617.908,1714.335 1607.169 C 1722.372 1600.112,1733.029 1587.875,1738.015 1579.976 C 1750.874 1559.606,1786.844 1477.225,1827.810 1374.320 C 1879.815 1243.684,1882.052 1236.201,1881.700 1194.000 C 1881.348 1151.699,1872.615 1125.162,1846.367 1086.639 C 1821.872 1050.687,1791.452 1029.547,1727.908 1004.313 C 1669.245 981.018,1372.556 881.532,1292.052 858.161 C 1233.332 841.115,1183.985 836.874,1146.000 845.609 M1512.000 1875.756 C 1486.785 1879.463,1466.693 1884.607,1378.121 1910.028 C 1300.051 1932.435,1252.978 1937.896,1167.262 1934.489 C 1100.970 1931.854,1079.359 1927.507,967.571 1894.321 C 928.163 1882.622,912.434 1880.114,863.571 1877.738 C 794.762 1874.393,770.833 1877.724,684.037 1902.727 C 587.016 1930.677,519.451 1942.134,406.000 1949.876 C 322.340 1955.585,290.479 1960.605,270.786 1971.184 C 214.056 2001.656,185.797 2076.940,211.473 2129.198 C 216.661 2139.757,229.392 2157.109,239.763 2167.757 C 266.820 2195.535,278.465 2197.437,406.322 2194.964 C 537.864 2192.419,549.927 2190.343,722.000 2140.640 C 756.115 2130.787,762.504 2130.268,844.000 2130.734 L 930.000 2131.226 1002.000 2153.162 C 1096.585 2181.979,1119.954 2185.762,1204.000 2185.859 C 1283.209 2185.950,1288.092 2185.115,1398.000 2152.683 L 1474.000 2130.256 1558.000 2130.320 C 1636.244 2130.379,1644.467 2131.091,1678.000 2140.711 C 1854.072 2191.223,1861.603 2192.499,1998.000 2194.938 C 2126.917 2197.242,2132.202 2196.320,2162.237 2166.284 C 2185.917 2142.605,2196.000 2117.433,2196.000 2082.000 C 2196.000 2034.678,2168.720 1990.609,2126.908 1970.385 C 2105.061 1959.819,2103.518 1959.606,1948.252 1945.771 C 1858.453 1937.770,1826.184 1932.016,1736.000 1907.929 C 1613.841 1875.300,1563.896 1868.127,1512.000 1875.756 " fill="#1D1E23" stroke="none" fill-rule="evenodd"/></svg>