<svg viewBox="0 0 2400 2400" fill="none" xmlns="http://www.w3.org/2000/svg"><path d="M982.223 209.068 C 942.455 231.593,939.902 285.710,977.293 313.582 C 988.440 321.891,991.331 322.000,1200.000 322.000 C 1408.669 322.000,1411.560 321.891,1422.707 313.582 C 1460.193 285.639,1456.445 228.634,1415.756 207.876 C 1401.000 200.348,1391.437 200.003,1199.159 200.066 C 998.407 200.131,997.968 200.150,982.223 209.068 M791.802 457.400 C 753.438 467.848,722.506 496.146,708.483 533.627 C 700.387 555.265,700.000 563.218,700.000 707.792 L 700.000 859.285 929.000 782.810 L 1158.000 706.334 1200.000 706.285 L 1242.000 706.236 1466.000 781.754 C 1589.200 823.290,1692.329 858.110,1695.176 859.132 C 1699.367 860.637,1700.128 831.021,1699.176 703.495 C 1698.048 552.378,1697.654 545.251,1689.451 527.510 C 1677.179 500.971,1654.716 477.924,1628.642 465.119 L 1606.000 454.000 1208.000 453.222 C 901.924 452.624,805.797 453.589,791.802 457.400 M1146.000 843.706 C 1083.566 861.114,638.580 1012.258,619.032 1022.697 C 573.347 1047.091,532.038 1101.247,520.318 1152.111 C 514.182 1178.740,515.154 1223.676,522.399 1248.274 C 531.565 1279.396,646.742 1562.728,658.425 1582.894 C 669.668 1602.300,694.170 1618.335,718.531 1622.230 C 732.506 1624.464,740.234 1622.492,768.531 1609.474 C 798.464 1595.703,805.381 1594.072,834.000 1594.038 C 865.030 1594.001,867.576 1594.754,918.000 1618.882 C 1114.282 1712.801,1284.488 1712.837,1481.511 1618.999 C 1532.393 1594.765,1534.979 1594.001,1566.000 1594.038 C 1594.619 1594.072,1601.536 1595.703,1631.469 1609.474 C 1667.131 1625.881,1683.255 1626.890,1707.420 1614.227 C 1734.977 1599.786,1742.022 1586.481,1808.249 1423.809 C 1843.584 1337.014,1875.084 1256.172,1878.248 1244.160 C 1901.308 1156.603,1854.657 1058.173,1771.432 1018.788 C 1755.245 1011.128,1629.968 967.651,1493.040 922.173 C 1260.908 845.075,1241.712 839.364,1209.040 837.692 C 1182.249 836.321,1167.409 837.737,1146.000 843.706 M796.000 1874.591 C 758.412 1880.237,732.044 1886.590,690.000 1900.134 C 584.708 1934.052,535.151 1942.496,406.000 1948.526 C 303.943 1953.292,283.993 1957.223,254.994 1978.284 C 177.324 2034.690,184.287 2150.955,267.642 2189.509 C 284.645 2197.373,292.645 2197.997,376.000 2197.956 C 497.811 2197.896,581.859 2185.859,670.535 2155.775 C 745.345 2130.396,784.663 2123.245,848.774 2123.362 C 902.066 2123.458,922.408 2127.433,996.000 2152.127 C 1146.796 2202.726,1253.475 2202.710,1404.000 2152.063 C 1479.011 2126.825,1499.915 2122.906,1558.000 2123.189 C 1615.265 2123.468,1647.425 2129.367,1722.000 2153.268 C 1830.426 2188.018,1897.166 2197.893,2024.000 2197.956 C 2107.355 2197.997,2115.355 2197.373,2132.358 2189.509 C 2155.822 2178.656,2178.707 2155.747,2189.449 2132.358 C 2201.601 2105.898,2201.216 2057.035,2188.654 2031.456 C 2174.705 2003.051,2155.124 1982.780,2127.322 1967.961 C 2102.040 1954.486,2102.023 1954.483,2026.018 1951.277 C 1886.803 1945.405,1807.993 1932.616,1712.000 1900.319 C 1634.177 1874.137,1561.645 1866.087,1495.720 1876.315 C 1480.424 1878.689,1441.523 1889.517,1409.275 1900.378 C 1317.021 1931.449,1282.521 1937.582,1200.000 1937.582 C 1117.815 1937.582,1085.040 1931.767,990.000 1900.326 C 957.000 1889.408,918.300 1878.582,904.000 1876.268 C 879.390 1872.285,817.729 1871.328,796.000 1874.591 " fill="#1D1E23" stroke="none" fill-rule="evenodd"/></svg>