<svg viewBox="0 0 2400 2400" fill="none" xmlns="http://www.w3.org/2000/svg"><path d="M948.000 262.000 L 948.000 324.000 1200.000 324.000 L 1452.000 324.000 1452.000 262.000 L 1452.000 200.000 1200.000 200.000 L 948.000 200.000 948.000 262.000 M856.000 459.798 C 767.657 462.292,764.412 463.300,732.180 498.268 C 701.787 531.240,702.429 527.063,700.771 702.797 L 699.292 859.593 949.646 776.118 L 1200.000 692.643 1450.446 776.149 L 1700.893 859.655 1698.929 704.827 C 1697.696 607.592,1695.304 544.695,1692.499 535.739 C 1686.256 515.808,1662.526 489.458,1634.515 471.354 L 1610.760 456.000 1272.380 456.798 C 1086.271 457.238,898.900 458.588,856.000 459.798 M835.204 947.712 C 637.866 1013.641,471.028 1070.366,464.452 1073.766 L 452.497 1079.949 531.823 1276.974 C 660.699 1597.069,682.352 1648.008,689.536 1647.988 C 697.919 1647.965,746.775 1621.401,787.453 1594.748 L 828.075 1568.132 855.037 1584.719 C 916.696 1622.650,1012.658 1660.292,1089.550 1676.709 C 1122.391 1683.721,1143.920 1685.385,1204.000 1685.557 C 1268.740 1685.742,1282.755 1684.590,1316.000 1676.350 C 1396.986 1656.278,1479.240 1623.543,1541.084 1586.773 L 1572.168 1568.291 1611.084 1593.756 C 1632.488 1607.761,1663.098 1626.048,1679.106 1634.393 C 1707.851 1649.379,1708.302 1649.470,1715.579 1641.783 C 1722.834 1634.119,1784.034 1486.868,1892.470 1216.174 C 1922.836 1140.369,1947.065 1077.732,1946.312 1076.979 C 1940.575 1071.241,1237.871 837.185,1206.000 830.396 C 1196.631 828.400,1115.338 854.120,835.204 947.712 M806.000 1830.526 C 770.080 1862.391,691.852 1900.624,626.358 1918.324 C 530.847 1944.137,409.119 1955.243,297.514 1948.324 C 255.981 1945.750,217.050 1942.614,211.000 1941.355 L 200.000 1939.067 200.000 2065.246 L 200.000 2191.424 223.000 2194.712 C 256.974 2199.569,442.890 2198.011,496.000 2192.425 C 612.478 2180.174,709.857 2147.233,791.119 2092.592 L 827.772 2067.947 854.886 2084.638 C 915.637 2122.037,1013.283 2161.007,1090.000 2178.473 C 1135.510 2188.834,1264.974 2189.085,1308.000 2178.895 C 1385.459 2160.551,1475.893 2125.021,1537.621 2088.682 L 1573.242 2067.712 1595.621 2083.244 C 1670.794 2135.419,1745.688 2165.716,1850.970 2186.539 C 1884.637 2193.198,2148.226 2199.274,2182.231 2194.175 L 2200.000 2191.510 2200.000 2065.437 L 2200.000 1939.364 2189.000 1941.616 C 2182.950 1942.854,2146.500 1945.875,2108.000 1948.330 C 1900.172 1961.583,1701.747 1917.383,1600.198 1835.216 L 1576.017 1815.650 1545.008 1834.512 C 1485.815 1870.517,1404.277 1903.817,1325.693 1924.079 C 1282.597 1935.191,1274.485 1936.000,1206.172 1936.000 C 1157.147 1936.000,1122.214 1933.976,1100.656 1929.887 C 1032.775 1917.010,922.977 1875.002,860.124 1837.861 C 839.777 1825.838,822.875 1816.075,822.564 1816.167 C 822.254 1816.258,814.800 1822.720,806.000 1830.526 " fill="#1D1E23" stroke="none" fill-rule="evenodd"/></svg>