<svg viewBox="0 0 2400 2400" fill="none" xmlns="http://www.w3.org/2000/svg"><path d="M1027.792 207.733 C 998.112 209.327,982.558 211.989,975.390 216.700 C 963.835 224.296,951.981 246.584,952.039 260.605 C 952.097 274.579,969.965 310.363,978.525 313.648 C 995.510 320.166,1073.814 323.731,1200.000 323.731 C 1346.056 323.731,1411.631 319.783,1426.408 310.100 C 1439.800 301.326,1450.115 264.528,1444.204 246.617 C 1437.503 226.315,1419.357 211.280,1397.142 207.626 C 1375.792 204.114,1093.641 204.195,1027.792 207.733 M946.000 459.972 C 762.903 462.728,765.006 462.359,733.647 497.238 C 698.492 536.339,700.000 527.092,700.000 703.520 L 700.000 859.359 926.961 783.680 L 1153.921 708.000 1200.039 708.000 L 1246.158 708.000 1360.079 746.157 C 1525.861 801.685,1684.251 852.000,1693.270 852.000 C 1700.954 852.000,1701.062 849.085,1698.802 703.000 C 1697.341 608.554,1694.783 547.855,1691.817 537.215 C 1685.675 515.190,1665.649 492.317,1634.934 472.249 L 1610.067 456.000 1358.033 456.782 C 1219.415 457.212,1034.000 458.648,946.000 459.972 M1157.410 844.344 C 1113.900 849.796,697.048 991.874,628.947 1024.463 C 586.430 1044.809,557.561 1073.020,538.469 1112.878 C 502.744 1187.459,506.559 1211.848,584.432 1406.709 C 629.453 1519.364,660.786 1584.519,678.421 1602.154 C 700.856 1624.590,713.714 1624.786,792.000 1603.892 C 837.231 1591.820,856.264 1595.198,951.795 1632.247 C 1064.387 1675.913,1086.168 1680.711,1182.000 1682.955 C 1297.311 1685.654,1340.468 1676.662,1470.000 1622.948 C 1513.353 1604.971,1521.727 1602.853,1556.494 1601.077 C 1589.880 1599.371,1599.701 1600.496,1630.494 1609.556 C 1672.721 1621.979,1689.691 1622.597,1706.537 1612.326 C 1732.827 1596.294,1754.819 1554.518,1814.530 1407.179 C 1879.663 1246.462,1886.101 1223.201,1879.760 1171.531 C 1872.791 1114.743,1834.527 1059.304,1782.000 1029.888 C 1751.335 1012.715,1711.958 997.618,1576.000 950.911 C 1441.467 904.693,1294.988 858.153,1260.000 850.508 C 1225.092 842.882,1187.237 840.607,1157.410 844.344 M1510.000 1876.468 C 1496.800 1878.390,1453.600 1888.976,1414.000 1899.994 C 1296.136 1932.787,1291.407 1933.539,1202.000 1933.704 C 1112.042 1933.870,1098.388 1931.785,993.367 1901.834 C 943.290 1887.552,918.855 1882.842,876.860 1879.376 C 809.854 1873.845,776.605 1877.807,687.148 1901.985 C 574.332 1932.476,528.946 1940.270,408.000 1949.919 C 286.393 1959.621,271.754 1963.691,239.305 1996.821 C 203.418 2033.460,192.268 2089.947,213.017 2130.000 C 224.738 2152.627,247.483 2177.311,265.716 2187.192 C 281.474 2195.732,399.945 2198.661,482.250 2192.546 C 545.265 2187.864,578.219 2181.190,681.786 2152.138 L 753.573 2132.000 842.994 2132.000 L 932.416 2132.000 997.208 2151.636 C 1097.639 2182.074,1115.091 2184.934,1202.000 2185.199 C 1286.891 2185.459,1288.478 2185.191,1401.888 2151.538 L 1469.775 2131.393 1565.888 2133.046 L 1662.000 2134.699 1726.000 2153.514 C 1847.750 2189.305,1894.077 2195.739,2031.229 2195.909 C 2119.252 2196.018,2134.162 2192.960,2157.852 2169.937 C 2186.122 2142.461,2193.896 2123.956,2193.952 2084.000 C 2193.993 2054.830,2192.415 2046.772,2182.840 2027.274 C 2169.885 2000.894,2150.623 1982.578,2122.183 1969.597 C 2105.255 1961.871,2084.257 1958.734,1992.000 1950.147 C 1863.412 1938.179,1844.788 1935.026,1720.000 1904.096 C 1634.132 1882.813,1569.827 1871.268,1544.000 1872.499 C 1538.500 1872.761,1523.200 1874.547,1510.000 1876.468 " fill="#1D1E23" stroke="none" fill-rule="evenodd"/></svg>