<svg viewBox="0 0 2400 2400" fill="none" xmlns="http://www.w3.org/2000/svg"><path d="M948.000 262.000 L 948.000 324.000 1200.000 324.000 L 1452.000 324.000 1452.000 262.000 L 1452.000 200.000 1200.000 200.000 L 948.000 200.000 948.000 262.000 M792.000 459.745 C 760.289 466.143,728.074 493.065,711.246 527.229 C 702.141 545.714,701.979 548.385,700.646 702.797 L 699.292 859.593 949.646 776.118 L 1200.000 692.643 1450.354 776.118 L 1700.708 859.593 1699.229 702.797 C 1697.569 526.775,1698.272 531.305,1667.387 497.798 C 1657.914 487.521,1641.127 473.929,1630.082 467.594 L 1610.000 456.075 1208.000 456.498 C 986.900 456.730,799.700 458.191,792.000 459.745 M1174.000 835.011 C 1089.559 861.383,493.167 1061.328,475.161 1069.302 L 452.322 1079.417 523.631 1256.709 C 643.492 1554.709,681.045 1644.652,686.475 1646.736 C 694.912 1649.973,734.791 1629.678,782.819 1597.703 L 827.637 1567.864 854.819 1584.583 C 920.167 1624.776,1007.645 1659.385,1086.000 1676.045 C 1144.106 1688.400,1230.931 1691.063,1284.488 1682.133 C 1366.820 1668.405,1462.361 1633.303,1536.278 1589.624 L 1573.089 1567.871 1607.788 1591.638 C 1645.520 1617.481,1700.940 1648.000,1710.136 1648.000 C 1713.302 1648.000,1718.782 1641.250,1722.313 1633.000 C 1756.669 1552.733,1915.914 1160.548,1937.409 1103.267 L 1947.440 1076.535 1918.720 1066.646 C 1619.675 963.682,1208.680 827.631,1198.953 828.382 C 1196.229 828.593,1185.000 831.576,1174.000 835.011 M802.979 1833.827 C 780.924 1854.130,713.134 1889.863,663.773 1907.205 C 599.814 1929.675,511.018 1944.438,406.000 1950.063 C 362.037 1952.417,244.141 1947.178,213.000 1941.486 L 200.000 1939.110 200.000 2065.011 L 200.000 2190.913 218.663 2193.471 C 290.465 2203.312,470.048 2199.020,548.000 2185.599 C 656.400 2166.936,739.369 2133.016,814.411 2076.683 L 826.823 2067.366 853.398 2083.631 C 916.656 2122.350,988.877 2152.388,1068.000 2172.889 C 1107.417 2183.102,1123.732 2185.101,1182.000 2186.857 C 1233.774 2188.417,1258.700 2187.388,1286.458 2182.547 C 1365.991 2168.675,1464.596 2131.982,1536.458 2089.517 L 1573.448 2067.659 1607.724 2091.320 C 1687.408 2146.327,1783.016 2179.773,1896.000 2192.169 C 1935.169 2196.466,2158.535 2197.608,2183.361 2193.638 L 2200.000 2190.978 2200.000 2065.055 L 2200.000 1939.133 2191.000 1941.337 C 2186.050 1942.549,2148.300 1945.635,2107.111 1948.194 C 1893.821 1961.448,1701.337 1917.997,1597.048 1833.052 L 1575.669 1815.638 1546.834 1833.604 C 1486.559 1871.160,1393.668 1908.502,1312.000 1928.008 C 1279.457 1935.780,1263.660 1937.043,1202.000 1936.801 C 1118.063 1936.471,1091.229 1932.035,1012.000 1905.389 C 952.591 1885.409,892.631 1858.336,850.930 1832.665 C 836.041 1823.499,823.441 1816.071,822.930 1816.159 C 822.418 1816.246,813.441 1824.197,802.979 1833.827 " fill="#1D1E23" stroke="none" fill-rule="evenodd"/></svg>