<svg viewBox="0 0 2400 2400" fill="none" xmlns="http://www.w3.org/2000/svg"><path d="M948.000 262.000 L 948.000 324.000 1200.000 324.000 L 1452.000 324.000 1452.000 262.000 L 1452.000 200.000 1200.000 200.000 L 948.000 200.000 948.000 262.000 M846.000 455.431 C 789.348 457.857,784.805 458.662,764.578 469.866 C 740.791 483.041,724.276 500.925,710.896 528.000 C 702.230 545.535,701.969 550.046,700.787 702.749 L 699.575 859.499 949.787 776.071 L 1200.000 692.643 1450.213 776.071 L 1700.425 859.499 1699.213 702.749 C 1698.001 546.122,1697.992 545.985,1688.308 526.308 C 1676.040 501.381,1653.846 479.097,1628.491 466.249 L 1608.710 456.225 1257.355 454.543 C 1064.110 453.618,879.000 454.017,846.000 455.431 M856.000 939.617 C 470.220 1068.508,450.864 1075.326,453.303 1081.468 C 521.594 1253.487,674.154 1629.069,680.725 1641.351 C 683.686 1646.886,687.294 1648.052,695.329 1646.072 C 712.243 1641.902,770.032 1609.169,798.444 1587.664 C 812.733 1576.849,825.484 1568.000,826.780 1568.000 C 828.075 1568.000,840.225 1575.004,853.779 1583.564 C 981.424 1664.179,1146.091 1703.256,1276.387 1683.853 C 1366.097 1670.493,1469.346 1632.115,1546.260 1583.539 C 1559.792 1574.993,1572.167 1568.000,1573.759 1568.000 C 1575.351 1568.000,1584.165 1574.155,1593.345 1581.677 C 1614.440 1598.963,1680.822 1638.331,1698.979 1644.323 C 1706.799 1646.904,1714.241 1647.359,1716.223 1645.377 C 1722.396 1639.204,1949.212 1079.879,1946.601 1077.268 C 1940.277 1070.944,1212.993 827.997,1200.431 828.013 C 1194.694 828.020,1039.700 878.242,856.000 939.617 M808.753 1829.224 C 778.168 1860.779,689.384 1903.512,616.554 1921.732 C 522.835 1945.177,403.691 1954.934,294.246 1948.127 C 255.444 1945.714,218.365 1942.673,211.848 1941.370 L 200.000 1939.000 200.000 2065.039 L 200.000 2191.078 221.000 2193.407 C 317.916 2204.152,487.719 2198.555,569.493 2181.918 C 666.207 2162.242,741.905 2131.523,795.256 2090.302 C 811.132 2078.036,825.249 2068.000,826.628 2068.000 C 828.007 2068.000,840.185 2074.979,853.691 2083.508 C 925.764 2129.026,1026.021 2167.593,1109.039 2181.734 C 1152.994 2189.222,1237.895 2190.362,1278.526 2184.010 C 1366.043 2170.328,1471.519 2130.742,1546.309 2083.508 C 1559.815 2074.979,1572.010 2068.000,1573.410 2068.000 C 1574.810 2068.000,1590.609 2078.865,1608.519 2092.145 C 1673.132 2140.052,1762.058 2172.638,1876.000 2190.160 C 1922.301 2197.280,2123.602 2200.216,2173.000 2194.492 L 2200.000 2191.363 2200.000 2065.364 L 2200.000 1939.364 2189.000 1941.637 C 2182.950 1942.886,2146.407 1945.812,2107.792 1948.138 C 1891.907 1961.142,1694.806 1916.881,1597.177 1833.474 L 1576.034 1815.410 1547.017 1833.484 C 1482.205 1873.852,1400.756 1906.915,1317.685 1926.578 C 1274.438 1936.815,1263.485 1937.837,1200.000 1937.560 C 1144.051 1937.316,1122.038 1935.522,1090.333 1928.621 C 1013.415 1911.880,916.498 1873.035,850.930 1832.666 C 836.041 1823.500,823.344 1816.000,822.714 1816.000 C 822.085 1816.000,815.802 1821.951,808.753 1829.224 " fill="#1D1E23" stroke="none" fill-rule="evenodd"/></svg>