<svg viewBox="0 0 2400 2400" fill="none" xmlns="http://www.w3.org/2000/svg"><path d="M1031.792 203.450 C 1001.548 205.277,986.540 208.000,978.847 213.056 C 953.916 229.441,946.123 259.559,959.178 289.074 C 974.531 323.782,961.497 322.000,1200.000 322.000 C 1438.503 322.000,1425.469 323.782,1440.822 289.074 C 1454.723 257.649,1445.294 227.445,1416.278 210.454 C 1404.298 203.439,1391.818 202.838,1238.696 201.904 C 1148.113 201.352,1055.006 202.047,1031.792 203.450 M794.000 459.745 C 760.217 465.539,726.408 493.451,709.696 529.343 L 700.078 550.000 700.039 704.680 L 700.000 859.359 926.961 783.680 L 1153.921 708.000 1200.356 708.000 L 1246.792 708.000 1460.396 779.759 C 1577.878 819.226,1679.400 852.076,1686.000 852.759 L 1698.000 854.000 1697.801 700.000 C 1697.610 553.103,1697.220 545.170,1689.343 528.000 C 1679.239 505.977,1656.628 482.968,1630.000 467.610 L 1610.000 456.075 1210.000 456.538 C 990.000 456.793,802.800 458.236,794.000 459.745 M1132.000 848.569 C 971.988 898.540,656.336 1007.059,621.365 1024.122 C 563.337 1052.435,516.000 1128.704,516.000 1193.886 C 516.000 1230.047,523.435 1253.614,578.106 1390.753 C 655.351 1584.519,667.112 1605.748,704.003 1618.001 C 725.742 1625.221,727.379 1624.938,786.000 1603.811 C 805.430 1596.809,816.094 1595.505,842.000 1596.962 C 869.424 1598.505,879.904 1601.442,915.290 1617.500 C 965.548 1640.308,1049.118 1669.295,1091.052 1678.466 C 1134.698 1688.010,1265.302 1688.010,1308.948 1678.466 C 1351.768 1669.102,1435.323 1639.973,1484.710 1617.192 C 1525.268 1598.484,1526.709 1598.147,1566.000 1598.153 C 1601.209 1598.159,1609.114 1599.524,1632.000 1609.552 C 1688.326 1634.232,1717.774 1622.149,1748.071 1561.923 C 1768.185 1521.940,1823.518 1389.165,1858.163 1297.748 C 1874.958 1253.431,1881.302 1230.921,1882.874 1210.063 C 1888.408 1136.650,1846.002 1060.960,1779.867 1026.207 C 1764.334 1018.045,1719.287 999.865,1679.761 985.807 C 1570.901 947.088,1294.231 856.552,1258.000 847.793 C 1215.629 837.549,1166.316 837.852,1132.000 848.569 M1505.074 1876.565 C 1491.364 1878.532,1458.064 1886.647,1431.074 1894.597 C 1289.525 1936.294,1304.502 1933.756,1200.000 1933.756 C 1095.477 1933.756,1104.498 1935.306,968.000 1893.878 C 921.046 1879.626,914.090 1878.596,853.812 1876.957 C 794.897 1875.355,786.025 1876.072,745.812 1885.693 C 721.715 1891.458,691.200 1899.685,678.000 1903.975 C 599.533 1929.481,528.763 1941.153,399.656 1949.880 C 349.967 1953.240,300.844 1958.536,290.494 1961.651 C 251.549 1973.372,218.374 2009.390,205.795 2053.607 C 194.055 2094.878,204.896 2132.428,238.595 2167.221 C 265.367 2194.861,275.011 2196.819,382.330 2196.411 C 509.194 2195.929,563.494 2188.107,676.000 2154.105 C 759.515 2128.865,771.930 2127.126,856.037 2128.884 C 928.796 2130.404,930.749 2130.675,976.000 2145.473 C 1073.344 2177.307,1111.475 2184.822,1186.000 2186.857 C 1262.619 2188.950,1292.939 2184.463,1384.650 2157.461 C 1491.174 2126.098,1485.518 2127.122,1554.000 2126.808 C 1623.664 2126.488,1641.105 2129.278,1724.000 2153.996 C 1841.754 2189.108,1891.493 2196.246,2022.528 2196.836 C 2125.125 2197.299,2130.393 2196.248,2160.186 2169.389 C 2184.730 2147.261,2195.912 2120.930,2195.961 2085.150 C 2196.018 2042.686,2185.509 2017.962,2155.651 1990.318 C 2124.011 1961.025,2111.210 1957.772,1997.088 1950.015 C 1896.020 1943.145,1830.014 1933.711,1774.000 1918.129 C 1610.409 1872.623,1572.917 1866.828,1505.074 1876.565 " fill="#1D1E23" stroke="none" fill-rule="evenodd"/></svg>