<svg viewBox="0 0 2400 2400" fill="none" xmlns="http://www.w3.org/2000/svg"><path d="M964.342 306.868 C 954.630 310.299,939.161 320.628,929.967 329.823 C 905.172 354.618,900.000 374.061,900.000 442.482 L 900.000 499.538 757.000 500.769 L 614.000 502.000 588.000 514.378 C 558.069 528.628,531.337 553.661,518.117 579.817 C 513.063 589.818,462.369 731.200,405.464 894.000 L 302.000 1190.000 302.000 1588.000 L 302.000 1986.000 314.378 2012.000 C 330.110 2045.044,354.956 2069.890,388.000 2085.622 C 411.094 2096.617,418.023 2098.000,450.000 2098.000 C 481.977 2098.000,488.906 2096.617,512.000 2085.622 C 545.095 2069.866,569.936 2044.995,585.536 2012.000 C 596.372 1989.080,598.009 1980.906,599.357 1943.000 L 600.885 1900.000 1200.000 1900.000 L 1799.115 1900.000 1800.686 1943.000 C 1802.020 1979.489,1803.933 1989.634,1813.323 2010.000 C 1827.812 2041.427,1858.595 2072.394,1889.582 2086.715 C 1910.647 2096.450,1918.943 2098.000,1950.000 2098.000 C 1981.057 2098.000,1989.353 2096.450,2010.418 2086.715 C 2041.307 2072.439,2072.114 2041.500,2086.806 2010.000 L 2098.000 1986.000 2098.000 1588.000 L 2098.000 1190.000 1992.654 888.000 C 1882.430 572.018,1876.375 557.439,1845.605 533.970 C 1838.058 528.214,1821.560 518.666,1808.942 512.752 L 1786.000 502.000 1643.000 500.769 L 1500.000 499.538 1500.000 442.482 C 1500.000 374.116,1494.821 354.610,1470.105 329.895 C 1439.820 299.609,1443.028 299.958,1198.287 300.316 C 1013.160 300.586,979.456 301.530,964.342 306.868 M1824.685 876.000 L 1899.325 1100.000 1199.234 1100.000 C 640.848 1100.000,499.516 1098.988,500.983 1095.000 C 501.994 1092.250,535.637 991.450,575.744 871.000 L 648.666 652.000 1199.355 652.000 L 1750.044 652.000 1824.685 876.000 M713.175 1315.206 C 745.145 1330.397,769.961 1355.357,785.546 1388.000 C 796.586 1411.122,797.960 1417.985,797.960 1450.000 C 797.960 1481.955,796.572 1488.921,785.602 1512.000 C 769.901 1545.033,745.056 1569.884,712.000 1585.622 C 688.906 1596.617,681.977 1598.000,650.000 1598.000 C 618.023 1598.000,611.094 1596.617,588.000 1585.622 C 554.944 1569.884,530.099 1545.033,514.398 1512.000 C 503.428 1488.921,502.040 1481.955,502.040 1450.000 C 502.040 1418.045,503.428 1411.079,514.398 1388.000 C 534.216 1346.307,571.724 1315.017,614.984 1304.088 C 642.192 1297.215,685.674 1302.138,713.175 1315.206 M1813.175 1315.206 C 1845.145 1330.397,1869.961 1355.357,1885.546 1388.000 C 1896.586 1411.122,1897.960 1417.985,1897.960 1450.000 C 1897.960 1481.955,1896.572 1488.921,1885.602 1512.000 C 1869.901 1545.033,1845.056 1569.884,1812.000 1585.622 C 1788.906 1596.617,1781.977 1598.000,1750.000 1598.000 C 1718.023 1598.000,1711.094 1596.617,1688.000 1585.622 C 1654.944 1569.884,1630.099 1545.033,1614.398 1512.000 C 1603.428 1488.921,1602.040 1481.955,1602.040 1450.000 C 1602.040 1418.045,1603.428 1411.079,1614.398 1388.000 C 1634.216 1346.307,1671.724 1315.017,1714.984 1304.088 C 1742.192 1297.215,1785.674 1302.138,1813.175 1315.206 " fill="#1D1E23" stroke="none" fill-rule="evenodd"/></svg>