<svg viewBox="0 0 2400 2400" fill="none" xmlns="http://www.w3.org/2000/svg"><path d="M993.748 303.551 C 966.185 305.821,959.015 308.032,944.430 318.759 C 907.467 345.941,900.000 367.601,900.000 447.632 L 900.000 498.870 756.244 500.846 L 612.489 502.822 590.760 513.453 C 565.213 525.952,535.921 550.711,524.152 569.754 C 514.720 585.015,480.401 679.740,373.728 984.945 L 300.000 1195.889 300.000 1589.407 L 300.000 1982.925 314.005 2010.920 C 330.795 2044.480,358.886 2072.235,391.128 2087.117 C 410.463 2096.043,419.608 2097.686,450.269 2097.747 C 483.108 2097.811,489.010 2096.601,512.689 2084.944 C 544.370 2069.347,572.538 2040.528,587.021 2008.894 C 595.649 1990.047,597.793 1978.505,599.255 1943.021 L 601.028 1900.000 1200.000 1900.000 L 1798.972 1900.000 1800.764 1943.483 C 1802.314 1981.111,1804.103 1990.134,1814.044 2010.483 C 1828.921 2040.935,1861.637 2073.506,1890.927 2087.025 C 1910.502 2096.060,1919.458 2097.675,1950.000 2097.675 C 1980.542 2097.675,1989.498 2096.060,2009.073 2087.025 C 2039.168 2073.135,2071.158 2040.824,2087.316 2007.998 L 2100.115 1981.997 2099.058 1583.998 L 2098.000 1186.000 2010.668 938.000 C 1910.125 652.480,1891.792 602.930,1874.660 570.383 C 1861.601 545.575,1845.155 530.988,1810.063 513.086 L 1790.125 502.915 1645.469 500.884 L 1500.813 498.852 1499.188 436.426 C 1497.998 390.719,1495.840 370.077,1491.132 359.351 C 1482.243 339.102,1455.560 313.491,1437.260 307.643 C 1420.223 302.198,1051.466 298.796,993.748 303.551 M1824.685 876.000 L 1899.325 1100.000 1226.662 1099.972 C 856.698 1099.956,542.076 1098.817,527.502 1097.440 L 501.003 1094.937 574.839 873.468 L 648.675 652.000 1199.360 652.000 L 1750.044 652.000 1824.685 876.000 M700.000 1310.948 C 736.989 1323.373,767.584 1351.718,786.136 1390.752 C 794.500 1408.349,796.000 1417.357,796.000 1450.000 C 796.000 1482.941,794.531 1491.601,785.819 1510.017 C 770.647 1542.088,743.855 1569.601,713.008 1584.787 C 688.987 1596.612,683.156 1597.818,650.000 1597.818 C 616.844 1597.818,611.013 1596.612,586.992 1584.787 C 556.761 1569.904,530.180 1542.965,514.319 1511.137 C 505.273 1492.985,504.000 1485.440,504.000 1450.000 C 504.000 1414.107,505.213 1407.127,514.811 1387.785 C 534.842 1347.422,578.058 1312.131,617.375 1304.029 C 638.055 1299.768,676.236 1302.965,700.000 1310.948 M1800.000 1310.948 C 1836.989 1323.373,1867.584 1351.718,1886.136 1390.752 C 1894.500 1408.349,1896.000 1417.357,1896.000 1450.000 C 1896.000 1482.941,1894.531 1491.601,1885.819 1510.017 C 1870.647 1542.088,1843.855 1569.601,1813.008 1584.787 C 1788.987 1596.612,1783.156 1597.818,1750.000 1597.818 C 1716.844 1597.818,1711.013 1596.612,1686.992 1584.787 C 1656.761 1569.904,1630.180 1542.965,1614.319 1511.137 C 1605.273 1492.985,1604.000 1485.440,1604.000 1450.000 C 1604.000 1414.107,1605.213 1407.127,1614.811 1387.785 C 1634.842 1347.422,1678.058 1312.131,1717.375 1304.029 C 1738.055 1299.768,1776.236 1302.965,1800.000 1310.948 " fill="#1D1E23" stroke="none" fill-rule="evenodd"/></svg>