<svg viewBox="0 0 2400 2400" fill="none" xmlns="http://www.w3.org/2000/svg"><path d="M900.000 400.000 L 900.000 500.000 798.643 500.000 C 742.897 500.000,662.110 501.178,619.117 502.618 L 540.948 505.236 420.474 851.956 L 300.000 1198.676 300.000 1649.338 L 300.000 2100.000 450.000 2100.000 L 600.000 2100.000 600.000 2000.000 L 600.000 1900.000 1200.000 1900.000 L 1800.000 1900.000 1800.000 2000.000 L 1800.000 2100.000 1950.000 2100.000 L 2100.000 2100.000 2100.040 1651.000 L 2100.079 1202.000 1979.066 851.000 L 1858.053 500.000 1679.026 500.000 L 1500.000 500.000 1500.000 400.000 L 1500.000 300.000 1200.000 300.000 L 900.000 300.000 900.000 400.000 M1824.685 876.000 L 1899.325 1100.000 1224.249 1100.000 C 852.958 1100.000,538.333 1098.867,525.084 1097.482 L 500.994 1094.964 574.835 873.482 L 648.675 652.000 1199.360 652.000 L 1750.044 652.000 1824.685 876.000 M712.786 1316.849 C 740.462 1329.618,767.642 1355.956,782.755 1384.650 C 793.106 1404.303,794.000 1409.498,794.000 1450.000 C 794.000 1490.636,793.129 1495.655,782.607 1515.642 C 767.849 1543.678,738.075 1572.440,709.172 1586.580 C 689.147 1596.378,681.563 1597.818,650.000 1597.818 C 618.437 1597.818,610.853 1596.378,590.828 1586.580 C 559.113 1571.064,530.312 1541.839,515.462 1510.105 C 504.004 1485.620,503.336 1481.601,504.636 1445.004 C 506.243 1399.789,514.318 1379.536,542.442 1350.184 C 577.550 1313.543,601.253 1303.824,652.000 1305.261 C 683.108 1306.141,694.133 1308.243,712.786 1316.849 M1812.786 1316.849 C 1840.462 1329.618,1867.642 1355.956,1882.755 1384.650 C 1893.106 1404.303,1894.000 1409.498,1894.000 1450.000 C 1894.000 1490.636,1893.129 1495.655,1882.607 1515.642 C 1867.849 1543.678,1838.075 1572.440,1809.172 1586.580 C 1789.147 1596.378,1781.563 1597.818,1750.000 1597.818 C 1718.437 1597.818,1710.853 1596.378,1690.828 1586.580 C 1659.113 1571.064,1630.312 1541.839,1615.462 1510.105 C 1604.004 1485.620,1603.336 1481.601,1604.636 1445.004 C 1606.243 1399.789,1614.318 1379.536,1642.442 1350.184 C 1677.550 1313.543,1701.253 1303.824,1752.000 1305.261 C 1783.108 1306.141,1794.133 1308.243,1812.786 1316.849 " fill="#1D1E23" stroke="none" fill-rule="evenodd"/></svg>