<svg viewBox="0 0 2400 2400" fill="none" xmlns="http://www.w3.org/2000/svg"><path d="M986.000 305.810 C 983.800 306.654,975.143 308.494,966.761 309.898 C 947.196 313.177,921.243 336.311,910.844 359.742 C 904.543 373.937,902.561 389.624,900.928 438.201 L 898.888 498.918 754.444 501.819 L 610.000 504.719 586.483 517.193 C 558.729 531.913,531.015 558.409,519.250 581.471 C 509.424 600.730,471.187 706.787,371.716 990.681 L 300.000 1195.363 300.000 1589.814 L 300.000 1984.266 310.514 2005.015 C 324.504 2032.621,364.251 2073.416,389.342 2085.920 C 406.969 2094.704,414.795 2096.000,450.190 2096.000 C 486.091 2096.000,493.084 2094.804,510.404 2085.701 C 537.883 2071.258,574.333 2034.198,586.683 2008.145 C 595.181 1990.219,597.410 1978.535,599.088 1943.145 L 601.133 1900.000 1200.566 1900.000 L 1800.000 1900.000 1800.000 1927.454 C 1800.000 1987.592,1810.442 2014.842,1847.800 2052.200 C 1883.575 2087.976,1896.447 2093.571,1946.986 2095.314 C 1983.206 2096.563,1990.163 2095.666,2006.821 2087.603 C 2030.546 2076.118,2071.625 2035.350,2087.675 2007.361 L 2099.925 1986.000 2099.962 1588.720 L 2100.000 1191.440 2038.369 1016.720 C 1887.008 587.623,1881.290 572.896,1856.357 548.009 C 1846.260 537.932,1828.100 524.070,1816.000 517.206 L 1794.000 504.724 1647.557 501.832 L 1501.113 498.940 1499.056 438.470 C 1496.375 359.630,1488.169 339.738,1448.000 314.720 C 1434.099 306.062,1432.425 305.994,1212.000 305.137 C 1089.900 304.663,988.200 304.965,986.000 305.810 M1824.685 876.000 L 1899.325 1100.000 1220.662 1099.965 C 847.398 1099.946,532.771 1098.822,521.491 1097.466 L 500.982 1095.002 574.829 873.501 L 648.675 652.000 1199.360 652.000 L 1750.044 652.000 1824.685 876.000 M710.842 1316.361 C 733.314 1325.994,766.002 1356.818,780.450 1382.000 C 791.295 1400.902,791.927 1404.589,791.962 1449.159 C 791.994 1489.398,790.752 1498.764,783.500 1512.981 C 770.842 1537.791,735.061 1573.143,709.534 1586.059 C 689.603 1596.143,682.749 1597.455,650.000 1597.455 C 617.151 1597.455,610.428 1596.158,590.204 1585.926 C 559.205 1570.242,523.426 1531.531,511.958 1501.268 C 504.465 1481.492,503.465 1472.775,505.299 1443.192 C 508.000 1399.607,517.549 1376.980,545.182 1348.683 C 568.142 1325.172,588.136 1313.244,613.375 1308.002 C 637.054 1303.084,690.576 1307.674,710.842 1316.361 M1810.842 1316.361 C 1833.314 1325.994,1866.002 1356.818,1880.450 1382.000 C 1891.295 1400.902,1891.927 1404.589,1891.962 1449.159 C 1891.994 1489.398,1890.752 1498.764,1883.500 1512.981 C 1870.842 1537.791,1835.061 1573.143,1809.534 1586.059 C 1789.603 1596.143,1782.749 1597.455,1750.000 1597.455 C 1717.151 1597.455,1710.428 1596.158,1690.204 1585.926 C 1659.205 1570.242,1623.426 1531.531,1611.958 1501.268 C 1604.465 1481.492,1603.465 1472.775,1605.299 1443.192 C 1608.000 1399.607,1617.549 1376.980,1645.182 1348.683 C 1668.142 1325.172,1688.136 1313.244,1713.375 1308.002 C 1737.054 1303.084,1790.576 1307.674,1810.842 1316.361 " fill="#1D1E23" stroke="none" fill-rule="evenodd"/></svg>