<svg viewBox="0 0 2400 2400" fill="none" xmlns="http://www.w3.org/2000/svg"><path d="M946.000 210.341 C 628.227 239.206,460.234 332.173,411.067 506.371 L 402.140 538.000 400.933 1072.219 L 399.726 1606.437 414.165 1648.219 C 452.002 1757.698,517.726 1830.452,616.922 1872.664 C 648.071 1885.919,707.881 1899.862,733.961 1899.947 L 749.921 1900.000 674.961 1975.038 L 600.000 2050.077 600.000 2075.038 L 600.000 2100.000 701.030 2100.000 L 802.060 2100.000 902.000 2000.000 L 1001.940 1900.000 1202.000 1900.000 L 1402.060 1900.000 1502.000 2000.000 L 1601.940 2100.000 1700.970 2100.000 L 1800.000 2100.000 1800.000 2075.038 L 1800.000 2050.077 1725.039 1975.038 L 1650.079 1900.000 1666.039 1899.947 C 1712.041 1899.796,1788.265 1875.330,1834.742 1845.798 C 1908.125 1799.169,1954.727 1738.229,1985.835 1648.219 L 2000.274 1606.437 1999.067 1072.219 C 1997.864 539.885,1997.830 537.894,1989.286 508.000 C 1967.591 432.086,1932.708 381.387,1870.000 334.631 C 1787.240 272.924,1670.066 235.398,1492.000 213.573 C 1415.173 204.157,1038.624 201.928,946.000 210.341 M1100.000 800.000 L 1100.000 1000.000 850.000 1000.000 L 600.000 1000.000 600.000 800.000 L 600.000 600.000 850.000 600.000 L 1100.000 600.000 1100.000 800.000 M1800.000 800.000 L 1800.000 1000.000 1550.000 1000.000 L 1300.000 1000.000 1300.000 800.000 L 1300.000 600.000 1550.000 600.000 L 1800.000 600.000 1800.000 800.000 M800.000 1410.948 C 836.989 1423.373,867.584 1451.718,886.136 1490.752 C 894.500 1508.349,896.000 1517.357,896.000 1550.000 C 896.000 1582.941,894.531 1591.601,885.819 1610.017 C 870.647 1642.088,843.855 1669.601,813.008 1684.787 C 788.987 1696.612,783.156 1697.818,750.000 1697.818 C 716.844 1697.818,711.013 1696.612,686.992 1684.787 C 656.761 1669.904,630.180 1642.965,614.319 1611.137 C 605.273 1592.985,604.000 1585.440,604.000 1550.000 C 604.000 1514.107,605.213 1507.127,614.811 1487.785 C 634.842 1447.422,678.058 1412.131,717.375 1404.029 C 738.055 1399.768,776.236 1402.965,800.000 1410.948 M1700.000 1410.948 C 1736.989 1423.373,1767.584 1451.718,1786.136 1490.752 C 1794.500 1508.349,1796.000 1517.357,1796.000 1550.000 C 1796.000 1582.941,1794.531 1591.601,1785.819 1610.017 C 1770.647 1642.088,1743.855 1669.601,1713.008 1684.787 C 1688.987 1696.612,1683.156 1697.818,1650.000 1697.818 C 1616.844 1697.818,1611.013 1696.612,1586.992 1684.787 C 1556.761 1669.904,1530.180 1642.965,1514.319 1611.137 C 1505.273 1592.985,1504.000 1585.440,1504.000 1550.000 C 1504.000 1514.107,1505.213 1507.127,1514.811 1487.785 C 1534.842 1447.422,1578.058 1412.131,1617.375 1404.029 C 1638.055 1399.768,1676.236 1402.965,1700.000 1410.948 " fill="#1D1E23" stroke="none" fill-rule="evenodd"/></svg>