<svg viewBox="0 0 2400 2400" fill="none" xmlns="http://www.w3.org/2000/svg"><path d="M960.000 212.254 C 861.086 217.816,740.646 240.074,668.000 266.217 C 632.352 279.046,573.159 308.177,548.000 325.274 C 477.985 372.853,442.599 419.857,412.457 505.319 L 400.000 540.637 400.000 1074.470 L 400.000 1608.302 413.500 1643.259 C 468.946 1786.826,547.910 1859.166,685.073 1892.050 C 703.183 1896.392,724.916 1899.957,733.368 1899.972 L 748.736 1900.000 692.895 1958.054 C 662.183 1989.984,632.907 2023.926,627.838 2033.481 L 618.621 2050.855 626.701 2066.427 C 640.978 2093.946,652.702 2097.798,727.086 2099.413 L 792.173 2100.826 821.280 2074.775 C 837.289 2060.447,884.761 2015.262,926.774 1974.362 L 1003.162 1900.000 1202.611 1900.000 L 1402.060 1900.000 1502.030 2000.356 L 1602.000 2100.711 1670.000 2098.922 C 1751.296 2096.784,1763.445 2093.212,1773.314 2068.548 C 1777.778 2057.392,1778.758 2049.253,1776.387 2043.019 C 1771.079 2029.056,1745.764 1998.572,1698.691 1949.456 C 1675.211 1924.957,1656.000 1904.064,1656.000 1903.026 C 1656.000 1901.989,1666.640 1900.028,1679.645 1898.668 C 1692.649 1897.309,1720.999 1890.550,1742.645 1883.648 C 1808.376 1862.689,1847.055 1840.972,1887.457 1802.341 C 1930.733 1760.961,1957.659 1717.647,1987.020 1642.178 L 2001.095 1606.000 1998.602 1082.000 C 1997.073 760.516,1994.535 547.470,1992.036 530.754 C 1978.531 440.421,1913.267 354.828,1819.296 304.207 C 1753.978 269.021,1655.632 239.346,1553.476 223.997 C 1461.832 210.228,1117.279 203.411,960.000 212.254 M1100.000 800.000 L 1100.000 1000.000 850.000 1000.000 L 600.000 1000.000 600.000 800.000 L 600.000 600.000 850.000 600.000 L 1100.000 600.000 1100.000 800.000 M1800.000 800.000 L 1800.000 1000.000 1550.000 1000.000 L 1300.000 1000.000 1300.000 800.000 L 1300.000 600.000 1550.000 600.000 L 1800.000 600.000 1800.000 800.000 M812.000 1417.768 C 835.643 1429.975,859.897 1451.967,875.300 1475.167 L 890.000 1497.306 890.000 1550.167 L 890.000 1603.027 874.336 1625.770 C 855.846 1652.616,833.206 1673.027,807.133 1686.355 C 780.677 1699.879,721.154 1700.344,693.286 1687.244 C 668.527 1675.606,631.865 1639.161,617.552 1611.956 C 606.932 1591.772,606.044 1586.837,606.545 1550.808 C 607.036 1515.541,608.350 1509.058,619.668 1486.069 C 633.503 1457.964,663.446 1427.814,690.000 1415.248 C 711.701 1404.979,790.377 1406.604,812.000 1417.768 M1712.000 1417.768 C 1735.643 1429.975,1759.897 1451.967,1775.300 1475.167 L 1790.000 1497.306 1790.000 1550.167 L 1790.000 1603.027 1774.336 1625.770 C 1755.846 1652.616,1733.206 1673.027,1707.133 1686.355 C 1680.677 1699.879,1621.154 1700.344,1593.286 1687.244 C 1568.527 1675.606,1531.865 1639.161,1517.552 1611.956 C 1506.932 1591.772,1506.044 1586.837,1506.545 1550.808 C 1507.036 1515.541,1508.350 1509.058,1519.668 1486.069 C 1533.503 1457.964,1563.446 1427.814,1590.000 1415.248 C 1611.701 1404.979,1690.377 1406.604,1712.000 1417.768 " fill="#1D1E23" stroke="none" fill-rule="evenodd"/></svg>