<svg viewBox="0 0 2400 2400" fill="none" xmlns="http://www.w3.org/2000/svg"><path d="M1012.000 208.247 C 821.945 214.969,658.912 253.171,562.784 313.508 C 481.704 364.400,434.793 424.831,410.027 510.294 L 400.000 544.895 400.000 1076.129 L 400.000 1607.363 412.460 1642.681 C 446.324 1738.672,492.979 1800.369,566.479 1846.359 C 611.389 1874.460,691.528 1900.000,734.792 1900.000 L 749.921 1900.000 674.961 1975.038 L 600.000 2050.077 600.000 2075.038 L 600.000 2100.000 701.030 2100.000 L 802.060 2100.000 902.000 2000.000 L 1001.940 1900.000 1202.000 1900.000 L 1402.060 1900.000 1502.000 2000.000 L 1601.940 2100.000 1700.970 2100.000 L 1800.000 2100.000 1800.000 2075.038 L 1800.000 2050.077 1725.039 1975.038 L 1650.079 1900.000 1668.527 1900.000 C 1697.065 1900.000,1760.345 1882.253,1801.109 1862.816 C 1890.713 1820.092,1949.218 1750.909,1987.843 1642.000 L 2000.610 1606.000 1998.867 1070.000 C 1996.920 471.659,1999.320 519.980,1968.273 454.000 C 1907.942 325.783,1770.497 252.794,1524.000 218.072 C 1444.833 206.921,1188.549 202.003,1012.000 208.247 M1100.000 800.000 L 1100.000 1000.000 850.000 1000.000 L 600.000 1000.000 600.000 800.000 L 600.000 600.000 850.000 600.000 L 1100.000 600.000 1100.000 800.000 M1800.000 800.000 L 1800.000 1000.000 1550.000 1000.000 L 1300.000 1000.000 1300.000 800.000 L 1300.000 600.000 1550.000 600.000 L 1800.000 600.000 1800.000 800.000 M812.786 1416.849 C 840.462 1429.618,867.642 1455.956,882.755 1484.650 C 893.106 1504.303,894.000 1509.498,894.000 1550.000 C 894.000 1590.636,893.129 1595.655,882.607 1615.642 C 867.849 1643.678,838.075 1672.440,809.172 1686.580 C 789.147 1696.378,781.563 1697.818,750.000 1697.818 C 718.437 1697.818,710.853 1696.378,690.828 1686.580 C 659.113 1671.064,630.312 1641.839,615.462 1610.105 C 604.004 1585.620,603.336 1581.601,604.636 1545.004 C 606.243 1499.789,614.318 1479.536,642.442 1450.184 C 677.550 1413.543,701.253 1403.824,752.000 1405.261 C 783.108 1406.141,794.133 1408.243,812.786 1416.849 M1712.786 1416.849 C 1740.462 1429.618,1767.642 1455.956,1782.755 1484.650 C 1793.106 1504.303,1794.000 1509.498,1794.000 1550.000 C 1794.000 1590.636,1793.129 1595.655,1782.607 1615.642 C 1767.849 1643.678,1738.075 1672.440,1709.172 1686.580 C 1689.147 1696.378,1681.563 1697.818,1650.000 1697.818 C 1618.437 1697.818,1610.853 1696.378,1590.828 1686.580 C 1559.113 1671.064,1530.312 1641.839,1515.462 1610.105 C 1504.004 1585.620,1503.336 1581.601,1504.636 1545.004 C 1506.243 1499.789,1514.318 1479.536,1542.442 1450.184 C 1577.550 1413.543,1601.253 1403.824,1652.000 1405.261 C 1683.108 1406.141,1694.133 1408.243,1712.786 1416.849 " fill="#1D1E23" stroke="none" fill-rule="evenodd"/></svg>