<svg viewBox="0 0 2400 2400" fill="none" xmlns="http://www.w3.org/2000/svg"><path d="M1108.545 204.138 C 796.319 234.318,520.746 404.372,350.372 672.000 C 318.468 722.115,273.515 818.568,252.284 882.460 C 183.002 1090.954,183.002 1309.046,252.284 1517.540 C 300.974 1664.069,381.908 1794.313,493.797 1906.203 C 648.729 2061.134,839.618 2157.095,1060.000 2190.836 C 1123.622 2200.577,1275.859 2200.550,1337.463 2190.786 C 1401.612 2180.620,1463.274 2165.956,1515.596 2148.425 C 1858.696 2033.465,2112.820 1743.895,2181.460 1389.683 C 2289.531 831.998,1909.983 296.356,1346.700 211.616 C 1285.763 202.448,1165.192 198.663,1108.545 204.138 M1232.479 454.172 C 1290.965 547.568,1338.563 646.465,1373.417 747.000 L 1391.791 800.000 1200.000 800.000 L 1008.209 800.000 1026.587 747.000 C 1044.474 695.417,1077.333 617.202,1100.387 571.333 C 1131.893 508.646,1194.918 406.973,1201.011 409.004 C 1203.224 409.741,1217.385 430.067,1232.479 454.172 M920.311 483.381 C 881.644 560.434,832.028 690.738,810.032 773.000 L 802.813 800.000 655.393 800.000 L 507.973 800.000 522.986 775.818 C 596.241 657.825,709.646 553.756,834.000 490.406 C 862.406 475.935,933.799 444.443,939.036 444.073 C 939.607 444.033,931.180 461.721,920.311 483.381 M1506.000 462.039 C 1659.426 527.151,1787.826 635.848,1877.011 776.119 L 1892.194 800.000 1744.691 800.000 L 1597.187 800.000 1589.968 773.000 C 1567.998 690.832,1518.357 560.436,1479.790 483.581 L 1460.128 444.400 1475.064 449.825 C 1483.279 452.808,1497.200 458.305,1506.000 462.039 M762.381 1015.000 C 747.411 1111.702,747.411 1288.298,762.381 1385.000 L 764.703 1400.000 595.047 1400.000 L 425.391 1400.000 416.769 1356.303 C 412.027 1332.269,405.978 1287.269,403.326 1256.303 C 397.729 1190.959,402.453 1116.259,416.769 1043.697 L 425.391 1000.000 595.047 1000.000 L 764.703 1000.000 762.381 1015.000 M1439.520 1040.000 C 1447.109 1092.245,1447.109 1307.755,1439.520 1360.000 L 1434.000 1398.000 1200.000 1398.000 L 966.000 1398.000 960.570 1360.000 C 949.765 1284.393,954.242 1023.897,966.706 1002.968 C 967.699 1001.300,1073.247 1000.400,1201.256 1000.968 L 1434.000 1002.000 1439.520 1040.000 M1983.231 1043.697 C 1987.973 1067.731,1994.022 1112.731,1996.674 1143.697 C 2002.271 1209.041,1997.547 1283.741,1983.231 1356.303 L 1974.609 1400.000 1804.953 1400.000 L 1635.297 1400.000 1637.619 1385.000 C 1644.824 1338.460,1648.817 1272.484,1648.817 1200.000 C 1648.817 1127.516,1644.824 1061.540,1637.619 1015.000 L 1635.297 1000.000 1804.953 1000.000 L 1974.609 1000.000 1983.231 1043.697 M810.032 1627.000 C 832.021 1709.237,881.643 1839.565,920.284 1916.567 L 940.020 1955.895 917.010 1947.500 C 763.178 1891.375,611.707 1767.086,522.986 1624.182 L 507.973 1600.000 655.393 1600.000 L 802.813 1600.000 810.032 1627.000 M1373.417 1653.000 C 1350.629 1718.732,1314.994 1800.176,1283.721 1858.000 C 1250.460 1919.501,1205.746 1990.000,1200.000 1990.000 C 1194.254 1990.000,1149.540 1919.501,1116.279 1858.000 C 1085.006 1800.176,1049.371 1718.732,1026.583 1653.000 L 1008.209 1600.000 1200.000 1600.000 L 1391.791 1600.000 1373.417 1653.000 M1876.528 1624.639 C 1813.493 1723.783,1732.768 1805.776,1636.000 1868.948 C 1592.588 1897.288,1523.174 1932.940,1482.990 1947.537 L 1459.980 1955.895 1479.716 1916.567 C 1518.357 1839.565,1567.979 1709.237,1589.968 1627.000 L 1597.187 1600.000 1744.691 1600.000 L 1892.194 1600.000 1876.528 1624.639 " fill="#1D1E23" stroke="none" fill-rule="evenodd"/></svg>