<svg viewBox="0 0 2400 2400" fill="none" xmlns="http://www.w3.org/2000/svg"><path d="M358.510 297.873 C 336.885 305.581,315.775 323.583,304.000 344.358 C 291.150 367.029,289.880 413.857,301.515 436.000 C 305.562 443.700,364.888 506.250,433.351 575.000 L 557.830 700.000 471.628 700.000 C 371.367 700.000,356.695 703.095,329.895 729.895 C 290.768 769.021,290.768 830.979,329.895 870.105 C 360.105 900.316,357.251 900.000,600.000 900.000 C 842.749 900.000,839.895 900.316,870.105 870.105 C 900.316 839.895,900.000 842.749,900.000 600.000 C 900.000 357.251,900.316 360.105,870.105 329.895 C 830.979 290.768,769.021 290.768,729.895 329.895 C 703.098 356.692,700.000 371.373,700.000 471.572 L 700.000 557.718 573.000 431.413 C 460.791 319.817,443.704 304.344,426.287 298.554 C 402.542 290.659,379.399 290.427,358.510 297.873 M1972.000 298.838 C 1956.966 304.022,1933.074 325.860,1827.000 431.381 L 1700.000 557.718 1700.000 471.572 C 1700.000 371.373,1696.902 356.692,1670.105 329.895 C 1630.979 290.768,1569.021 290.768,1529.895 329.895 C 1499.684 360.105,1500.000 357.251,1500.000 600.000 C 1500.000 842.749,1499.684 839.895,1529.895 870.105 C 1560.105 900.316,1557.251 900.000,1800.000 900.000 C 2042.749 900.000,2039.895 900.316,2070.105 870.105 C 2109.232 830.979,2109.232 769.021,2070.105 729.895 C 2043.308 703.098,2028.627 700.000,1928.428 700.000 L 1842.282 700.000 1968.627 573.000 C 2085.220 455.803,2095.514 444.337,2101.989 424.453 C 2128.467 343.148,2053.526 270.728,1972.000 298.838 M364.342 1506.868 C 329.056 1519.332,300.000 1561.388,300.000 1600.000 C 300.000 1639.639,329.089 1680.804,365.983 1693.375 C 381.713 1698.735,401.883 1700.000,471.628 1700.000 L 557.830 1700.000 433.351 1825.000 C 364.888 1893.750,305.825 1956.053,302.101 1963.450 C 279.212 2008.913,297.587 2068.137,342.831 2094.733 C 359.303 2104.415,366.221 2105.989,392.000 2105.921 C 413.261 2105.864,426.078 2103.698,436.000 2098.485 C 443.700 2094.438,506.250 2035.112,575.000 1966.649 L 700.000 1842.170 700.000 1928.372 C 700.000 2028.633,703.095 2043.305,729.895 2070.105 C 769.021 2109.232,830.979 2109.232,870.105 2070.105 C 900.316 2039.895,900.000 2042.749,900.000 1800.000 C 900.000 1557.251,900.316 1560.105,870.105 1529.895 C 839.820 1499.609,843.028 1499.958,598.287 1500.316 C 413.160 1500.586,379.456 1501.530,364.342 1506.868 M1564.342 1506.868 C 1554.630 1510.299,1539.161 1520.628,1529.967 1529.823 C 1499.673 1560.117,1500.000 1557.166,1500.000 1800.000 C 1500.000 2042.749,1499.684 2039.895,1529.895 2070.105 C 1569.021 2109.232,1630.979 2109.232,1670.105 2070.105 C 1696.905 2043.305,1700.000 2028.633,1700.000 1928.372 L 1700.000 1842.170 1825.000 1966.649 C 1893.750 2035.112,1956.300 2094.438,1964.000 2098.485 C 1973.922 2103.698,1986.739 2105.864,2008.000 2105.921 C 2033.779 2105.989,2040.697 2104.415,2057.169 2094.733 C 2079.400 2081.665,2098.136 2057.752,2104.452 2034.384 C 2109.928 2014.125,2106.898 1981.324,2097.899 1963.450 C 2094.175 1956.053,2035.112 1893.750,1966.649 1825.000 L 1842.170 1700.000 1928.372 1700.000 C 1998.117 1700.000,2018.287 1698.735,2034.017 1693.375 C 2070.911 1680.804,2100.000 1639.639,2100.000 1600.000 C 2100.000 1575.840,2088.067 1547.856,2070.105 1529.895 C 2039.820 1499.609,2043.028 1499.958,1798.287 1500.316 C 1613.160 1500.586,1579.456 1501.530,1564.342 1506.868 " fill="#1D1E23" stroke="none" fill-rule="evenodd"/></svg>