<svg viewBox="0 0 2400 2400" fill="none" xmlns="http://www.w3.org/2000/svg"><path d="M300.000 600.974 L 300.000 901.948 415.023 786.976 L 530.046 672.005 673.992 815.992 L 817.939 959.980 888.980 889.021 L 960.021 818.062 816.016 674.016 L 672.012 529.971 786.997 414.986 L 901.983 300.000 600.991 300.000 L 300.000 300.000 300.000 600.974 M1616.003 414.003 L 1729.953 528.005 1585.994 672.006 L 1442.035 816.007 1513.014 886.986 L 1583.993 957.965 1727.994 814.006 L 1871.995 670.047 1985.997 783.997 L 2100.000 897.947 2100.000 598.974 L 2100.000 300.000 1801.026 300.000 L 1502.053 300.000 1616.003 414.003 M672.002 1585.998 L 530.047 1727.996 415.023 1613.024 L 300.000 1498.052 300.000 1799.026 L 300.000 2100.000 600.974 2100.000 L 901.948 2100.000 786.976 1984.977 L 672.005 1869.954 815.992 1726.008 L 959.979 1582.063 891.032 1513.031 C 853.112 1475.064,820.257 1444.000,818.022 1444.000 C 815.787 1444.000,750.078 1507.899,672.002 1585.998 M1511.989 1514.011 L 1442.064 1584.022 1586.008 1728.008 L 1729.953 1871.995 1616.003 1985.997 L 1502.053 2100.000 1801.026 2100.000 L 2100.000 2100.000 2100.000 1801.026 L 2100.000 1502.053 1985.997 1616.003 L 1871.995 1729.953 1728.977 1586.976 C 1650.317 1508.339,1585.049 1444.000,1583.937 1444.000 C 1582.824 1444.000,1550.448 1475.505,1511.989 1514.011 " fill="#1D1E23" stroke="none" fill-rule="evenodd"/></svg>