<svg viewBox="0 0 2400 2400" fill="none" xmlns="http://www.w3.org/2000/svg"><path d="M361.288 299.679 C 341.640 304.614,317.688 326.048,306.314 348.873 C 295.275 371.025,292.356 405.895,299.883 425.692 C 305.125 439.480,360.327 499.873,465.383 606.754 C 542.648 685.363,551.679 695.879,543.383 697.582 C 538.222 698.641,497.664 701.284,453.254 703.454 C 355.473 708.233,344.130 711.807,322.456 744.656 C 303.316 773.663,297.030 798.315,303.374 819.488 C 309.453 839.779,329.187 865.922,350.960 882.529 C 373.970 900.079,387.453 900.902,626.000 899.324 C 850.435 897.838,835.414 899.840,869.662 866.856 C 880.366 856.547,888.941 843.785,891.737 834.000 C 894.774 823.377,897.139 743.146,898.777 595.252 L 901.245 372.504 885.622 351.984 C 857.697 315.306,823.622 299.778,783.009 305.226 C 763.514 307.840,725.211 333.393,715.234 350.440 C 704.517 368.752,700.063 408.452,700.030 485.959 L 700.000 557.919 627.000 485.526 C 510.504 369.999,451.183 315.360,434.000 307.759 C 414.798 299.264,378.842 295.269,361.288 299.679 M1973.468 301.500 C 1955.190 309.843,1909.589 351.213,1798.544 460.194 L 1700.000 556.906 1699.892 497.453 C 1699.749 419.085,1694.559 367.105,1685.301 351.324 C 1674.848 333.506,1636.898 307.896,1616.991 305.226 C 1576.392 299.780,1542.302 315.306,1514.404 351.950 L 1498.807 372.436 1501.434 595.218 C 1502.879 717.748,1505.202 824.190,1506.596 831.755 C 1508.249 840.730,1515.674 852.055,1527.958 864.339 C 1563.971 900.352,1544.293 897.841,1801.285 899.213 L 2028.569 900.426 2048.339 885.350 C 2082.224 859.508,2096.024 833.833,2095.962 796.740 C 2095.888 751.850,2062.022 713.676,2016.775 707.482 C 2004.249 705.767,1960.338 703.112,1919.196 701.582 L 1844.391 698.801 1948.673 592.400 C 2101.851 436.112,2114.319 418.550,2104.202 373.340 C 2099.082 350.461,2077.748 322.677,2054.059 308.037 C 2036.166 296.978,1991.339 293.342,1973.468 301.500 M409.692 1507.427 C 366.692 1509.717,359.653 1511.147,345.624 1520.440 C 336.956 1526.182,324.495 1538.628,317.932 1548.098 C 306.914 1563.998,306.000 1567.992,306.000 1600.264 C 306.000 1632.982,306.794 1636.323,318.448 1652.606 C 334.824 1675.490,365.820 1694.144,392.864 1697.392 C 404.489 1698.788,439.200 1700.126,470.000 1700.364 C 500.800 1700.602,530.440 1702.035,535.867 1703.548 L 545.734 1706.298 527.867 1726.149 C 518.040 1737.067,475.046 1782.000,432.324 1826.000 C 313.231 1948.656,292.000 1975.505,292.000 2003.454 C 292.000 2023.313,307.632 2059.289,323.370 2075.651 C 342.382 2095.416,379.232 2109.623,402.454 2106.141 C 434.020 2101.407,462.913 2077.010,612.852 1928.481 C 656.221 1885.520,693.097 1851.764,694.800 1853.467 C 696.503 1855.170,698.964 1893.787,700.268 1939.282 C 702.919 2031.724,705.303 2041.303,732.408 2068.408 C 746.407 2082.407,783.851 2100.000,799.647 2100.000 C 824.734 2100.000,864.854 2074.999,887.862 2045.028 L 901.253 2027.585 898.808 1808.793 C 896.036 1560.693,895.481 1555.495,869.341 1532.512 C 839.769 1506.513,844.482 1507.064,642.000 1505.906 C 540.800 1505.328,436.261 1506.012,409.692 1507.427 M1615.673 1507.458 C 1560.410 1509.866,1556.604 1510.566,1543.234 1520.776 C 1535.472 1526.702,1523.019 1541.060,1515.561 1552.681 L 1502.000 1573.810 1500.903 1801.468 L 1499.807 2029.126 1513.983 2047.321 C 1531.762 2070.141,1558.646 2089.461,1581.542 2095.872 C 1596.341 2100.015,1602.731 2099.774,1621.320 2094.370 C 1651.888 2085.483,1672.377 2068.383,1688.860 2038.000 C 1696.748 2023.461,1697.692 2014.696,1699.203 1942.000 C 1700.117 1898.000,1702.234 1859.495,1703.909 1856.433 C 1706.110 1852.407,1739.673 1882.705,1825.138 1965.870 C 1890.140 2029.122,1949.895 2085.550,1957.927 2091.264 C 1968.870 2099.051,1978.744 2102.050,1997.328 2103.234 C 2028.672 2105.229,2050.011 2099.492,2068.717 2084.041 C 2086.486 2069.363,2108.000 2028.060,2108.000 2008.624 C 2108.000 1976.578,2083.418 1945.686,1942.652 1800.832 C 1894.993 1751.790,1856.000 1710.083,1856.000 1708.151 C 1856.000 1703.981,1885.777 1701.093,1962.000 1697.870 C 2031.295 1694.939,2042.928 1691.986,2063.387 1672.131 C 2109.302 1627.572,2109.209 1578.001,2063.115 1527.101 L 2046.000 1508.202 1860.000 1506.559 C 1757.700 1505.655,1647.753 1506.059,1615.673 1507.458 " fill="#1D1E23" stroke="none" fill-rule="evenodd"/></svg>