<svg viewBox="0 0 2400 2400" fill="none" xmlns="http://www.w3.org/2000/svg"><path d="M1987.197 296.061 C 1979.055 297.500,1965.131 303.483,1956.255 309.356 C 1947.379 315.230,1886.306 373.150,1820.537 438.066 L 1700.957 556.097 1698.914 467.048 C 1697.790 418.072,1694.824 371.371,1692.322 363.268 C 1685.709 341.856,1652.702 313.590,1624.859 305.496 C 1584.258 293.693,1542.503 311.033,1514.102 351.491 L 1502.000 368.730 1502.154 595.365 C 1502.272 767.688,1503.525 825.536,1507.383 836.753 C 1513.950 855.845,1537.861 880.315,1560.802 891.420 C 1578.894 900.178,1579.355 900.193,1805.123 899.097 L 2031.317 898.000 2048.533 885.898 C 2106.139 845.403,2114.934 777.757,2068.608 731.489 C 2057.649 720.543,2043.423 710.925,2034.000 708.090 C 2024.880 705.347,1980.585 702.348,1930.986 701.116 L 1843.973 698.955 1951.318 590.106 C 2075.379 464.306,2097.951 438.466,2104.267 415.008 C 2122.243 348.252,2058.478 283.465,1987.197 296.061 M350.000 302.627 C 334.053 311.007,312.694 331.372,305.555 345.002 C 296.454 362.378,291.875 394.035,295.587 413.908 C 299.950 437.259,310.060 448.908,445.994 587.202 L 555.845 698.959 468.922 701.118 C 421.006 702.308,375.081 705.370,366.581 707.942 C 333.689 717.894,300.000 764.189,300.000 799.437 C 300.000 832.271,329.126 876.086,361.308 891.665 C 378.121 899.804,383.734 900.000,600.000 900.000 C 819.059 900.000,821.670 899.905,839.399 891.323 C 862.177 880.296,886.084 855.770,892.590 836.753 C 896.411 825.584,897.681 766.945,897.819 595.366 L 898.000 368.733 885.898 351.492 C 857.558 311.118,815.732 293.696,775.337 305.439 C 749.316 313.004,717.892 338.692,708.813 359.822 C 704.169 370.630,702.274 395.737,700.842 465.449 L 698.964 556.898 610.482 469.185 C 492.808 352.533,450.623 313.501,431.900 303.949 C 412.340 293.970,367.839 293.252,350.000 302.627 M1620.000 1503.651 C 1580.220 1505.429,1562.697 1507.865,1553.458 1512.898 C 1535.806 1522.516,1508.760 1554.460,1503.776 1571.577 C 1501.000 1581.113,1499.987 1661.439,1500.788 1808.659 L 1502.000 2031.317 1514.102 2048.533 C 1531.457 2073.222,1556.082 2090.549,1582.082 2096.368 C 1601.405 2100.692,1607.278 2100.428,1626.504 2094.367 C 1653.533 2085.847,1678.363 2064.410,1689.477 2040.000 C 1696.760 2024.002,1697.850 2012.103,1699.270 1933.030 L 1700.867 1844.060 1817.434 1958.633 C 1881.545 2021.648,1942.712 2080.135,1953.359 2088.603 C 1972.105 2103.512,1973.713 2104.000,2004.099 2104.000 C 2041.750 2104.000,2053.178 2100.165,2073.339 2080.762 C 2101.714 2053.454,2113.145 2017.961,2104.228 1984.847 C 2098.186 1962.407,2076.131 1937.217,1950.667 1809.448 C 1894.200 1751.944,1848.000 1704.012,1848.000 1702.932 C 1848.000 1701.851,1887.150 1700.157,1935.000 1699.167 C 2029.505 1697.211,2042.390 1694.604,2065.357 1672.788 C 2109.751 1630.618,2110.034 1573.512,2066.065 1529.543 L 2045.353 1508.831 2011.676 1506.539 C 1959.725 1503.003,1680.551 1500.945,1620.000 1503.651 M357.966 1511.460 C 339.522 1519.839,317.630 1543.123,309.179 1563.347 C 301.800 1581.008,301.857 1619.128,309.289 1636.916 C 317.375 1656.268,338.453 1679.009,357.621 1689.060 C 372.619 1696.924,381.502 1697.784,463.000 1699.258 C 511.950 1700.144,552.000 1701.769,552.000 1702.870 C 552.000 1703.971,503.105 1754.626,443.345 1815.436 C 310.023 1951.101,297.925 1965.222,294.299 1989.398 C 286.847 2039.092,316.459 2086.209,365.347 2102.447 C 388.222 2110.045,412.558 2107.965,435.013 2096.492 C 443.256 2092.280,506.055 2033.769,574.567 1966.467 L 699.134 1844.099 700.731 1933.049 C 702.150 2012.103,703.240 2024.003,710.523 2040.000 C 721.637 2064.410,746.467 2085.847,773.496 2094.367 C 792.722 2100.428,798.595 2100.692,817.918 2096.368 C 843.938 2090.545,868.562 2073.208,885.898 2048.503 L 898.000 2031.259 897.740 1804.629 C 897.545 1634.637,896.232 1574.294,892.485 1563.169 C 885.489 1542.393,849.190 1509.902,829.304 1506.617 C 820.887 1505.226,715.000 1504.108,594.000 1504.132 C 389.798 1504.173,372.849 1504.699,357.966 1511.460 " fill="#1D1E23" stroke="none" fill-rule="evenodd"/></svg>