<svg viewBox="0 0 2400 2400" fill="none" xmlns="http://www.w3.org/2000/svg"><path d="M356.820 300.268 C 336.264 306.591,305.633 338.720,299.873 360.000 C 293.002 385.381,293.704 415.957,301.504 431.040 C 308.335 444.251,423.246 566.357,505.618 647.935 C 531.128 673.199,552.000 694.969,552.000 696.313 C 552.000 697.657,515.783 700.002,471.518 701.524 C 377.957 704.741,358.605 708.058,338.972 724.241 C 321.011 739.047,300.000 780.046,300.000 800.289 C 300.000 836.019,339.165 885.837,375.101 895.818 C 396.457 901.749,802.678 901.455,826.361 895.492 C 847.487 890.172,879.792 862.948,889.664 842.143 C 895.511 829.822,896.602 800.927,898.799 600.295 L 901.293 372.440 884.526 350.232 C 860.684 318.653,833.974 304.087,799.823 304.038 C 777.329 304.005,770.622 305.829,752.151 317.000 C 740.329 324.150,725.330 336.644,718.820 344.764 C 704.161 363.048,700.528 391.399,700.216 489.963 L 700.000 557.927 619.000 477.720 C 513.422 373.177,459.328 322.316,440.380 309.777 C 422.867 298.187,379.592 293.263,356.820 300.268 M1962.000 307.380 C 1950.500 314.134,1890.575 369.618,1821.000 437.931 L 1700.000 556.736 1699.826 499.368 C 1699.730 467.816,1698.109 423.383,1696.225 400.629 C 1693.151 363.512,1691.593 357.754,1681.071 344.629 C 1674.621 336.583,1659.671 324.150,1647.849 317.000 C 1629.378 305.829,1622.671 304.005,1600.177 304.038 C 1566.037 304.086,1539.315 318.655,1515.494 350.205 L 1498.747 372.387 1501.055 599.559 C 1502.929 783.981,1504.444 829.319,1509.107 840.479 C 1517.507 860.584,1552.090 890.066,1573.639 895.492 C 1585.836 898.563,1661.304 900.000,1810.408 900.000 L 2029.273 900.000 2050.470 883.996 C 2112.296 837.317,2113.538 760.963,2053.147 719.413 C 2036.849 708.199,2032.622 707.313,1978.932 703.847 C 1947.619 701.825,1904.220 700.133,1882.490 700.086 L 1842.980 700.000 1945.257 596.134 C 2069.424 470.039,2097.241 438.141,2103.958 414.151 C 2114.590 376.175,2095.736 333.149,2058.390 310.163 C 2042.306 300.264,2033.674 297.873,2010.390 296.864 C 1984.992 295.764,1979.892 296.873,1962.000 307.380 M377.620 1507.616 C 353.785 1510.527,335.239 1523.124,317.855 1548.210 C 306.925 1563.981,306.000 1568.043,306.000 1600.264 C 306.000 1633.020,306.784 1636.304,318.490 1652.606 C 336.263 1677.359,359.721 1692.827,384.929 1696.416 C 396.518 1698.066,435.700 1699.575,472.000 1699.769 C 508.300 1699.964,540.507 1701.710,543.571 1703.650 C 547.773 1706.311,524.282 1732.577,447.930 1810.589 C 290.439 1971.503,285.742 1978.038,295.191 2023.087 C 303.968 2064.930,333.557 2095.299,374.470 2104.455 C 393.140 2108.633,399.433 2108.379,417.378 2102.722 C 441.072 2095.253,479.708 2060.737,618.038 1923.459 C 659.858 1881.957,695.190 1848.000,696.554 1848.000 C 697.917 1848.000,699.766 1887.150,700.663 1935.000 C 702.185 2016.233,702.914 2023.280,711.652 2041.306 C 730.587 2080.369,780.977 2106.508,818.083 2096.516 C 842.848 2089.848,868.947 2071.231,885.892 2048.147 L 901.300 2027.157 898.649 1798.820 C 895.650 1540.524,897.733 1556.233,862.531 1526.397 C 846.070 1512.445,840.168 1509.992,816.815 1507.394 C 784.897 1503.843,406.942 1504.034,377.620 1507.616 M1572.919 1507.589 C 1563.524 1509.223,1550.924 1514.194,1544.919 1518.636 C 1527.542 1531.489,1505.106 1563.662,1502.490 1579.479 C 1501.169 1587.466,1500.068 1691.859,1500.044 1811.464 L 1500.000 2028.928 1514.758 2049.033 C 1531.111 2071.310,1557.440 2089.925,1581.917 2096.516 C 1618.157 2106.275,1667.850 2080.828,1687.624 2042.386 C 1697.317 2023.542,1697.776 2019.343,1699.340 1935.386 C 1700.235 1887.324,1701.817 1848.000,1702.855 1848.000 C 1703.893 1848.000,1754.525 1896.801,1815.371 1956.447 C 1876.217 2016.092,1935.694 2073.220,1947.543 2083.396 C 1968.354 2101.271,1970.095 2101.950,1998.789 2103.399 C 2020.033 2104.472,2033.526 2102.976,2046.172 2098.147 C 2078.098 2085.954,2108.000 2041.424,2108.000 2006.073 C 2108.000 1974.255,2081.235 1941.673,1924.476 1782.661 C 1868.295 1725.673,1851.641 1706.553,1856.102 1704.164 C 1859.346 1702.427,1897.100 1699.985,1940.000 1698.737 C 1982.900 1697.489,2025.200 1694.383,2034.000 1691.835 C 2056.358 1685.360,2085.085 1654.841,2093.952 1628.143 C 2105.585 1593.121,2096.352 1562.837,2062.715 1525.681 L 2044.898 1506.000 1817.449 1505.309 C 1692.352 1504.930,1582.313 1505.956,1572.919 1507.589 " fill="#1D1E23" stroke="none" fill-rule="evenodd"/></svg>