<svg viewBox="0 0 2400 2400" fill="none" xmlns="http://www.w3.org/2000/svg"><path d="M323.504 309.438 C 315.531 315.029,307.431 322.843,305.504 326.802 C 303.577 330.761,301.482 438.604,300.849 566.453 L 299.698 798.906 313.922 811.395 C 330.627 826.062,342.865 829.854,361.950 826.273 C 373.089 824.184,391.143 808.693,452.924 748.215 L 530.000 672.764 642.000 783.602 C 703.600 844.562,760.717 898.517,768.928 903.501 C 788.086 915.131,821.961 918.724,846.896 911.770 C 871.446 904.924,904.124 873.266,911.136 849.536 C 918.597 824.281,917.138 796.895,907.230 776.263 C 901.134 763.567,864.067 723.248,785.635 644.000 L 672.810 530.000 748.238 452.924 C 808.688 391.153,824.184 373.087,826.273 361.950 C 829.782 343.249,826.025 330.392,812.692 315.471 L 801.553 303.003 569.776 301.137 L 338.000 299.272 323.504 309.438 M1633.591 303.702 C 1610.960 305.130,1594.588 308.160,1590.327 311.709 C 1579.476 320.746,1572.000 338.308,1572.000 354.765 C 1572.000 369.132,1576.132 374.063,1650.840 448.841 L 1729.680 527.755 1621.585 636.877 C 1562.133 696.895,1507.424 754.906,1500.009 765.791 C 1473.846 804.198,1479.280 851.723,1513.779 886.221 C 1548.277 920.720,1595.802 926.154,1634.209 899.991 C 1645.094 892.576,1703.105 837.867,1763.123 778.415 L 1872.245 670.320 1951.159 749.160 C 2025.937 823.868,2030.868 828.000,2045.235 828.000 C 2062.704 828.000,2078.086 820.951,2091.155 806.958 L 2100.309 797.155 2099.155 565.578 C 2098.283 390.689,2096.788 331.884,2093.051 325.358 C 2090.328 320.604,2082.016 312.954,2074.578 308.358 C 2061.303 300.153,2057.486 300.013,1865.528 300.702 C 1757.988 301.088,1653.616 302.438,1633.591 303.702 M788.000 1488.462 C 766.291 1494.999,753.537 1506.230,637.814 1620.702 L 529.627 1727.718 463.814 1661.674 C 427.616 1625.350,390.041 1590.313,380.314 1583.815 C 354.168 1566.348,335.548 1568.342,311.000 1591.237 L 300.000 1601.497 300.000 1835.937 L 300.000 2070.376 315.169 2085.188 L 330.337 2100.000 564.754 2100.000 L 799.171 2100.000 811.528 2085.927 C 826.066 2069.369,829.846 2057.094,826.273 2038.050 C 824.183 2026.909,808.698 2008.867,748.190 1947.076 L 672.714 1870.000 781.780 1760.000 C 841.766 1699.500,895.801 1642.076,901.858 1632.391 C 914.674 1611.896,919.217 1578.569,912.544 1554.000 C 899.504 1505.995,837.728 1473.488,788.000 1488.462 M1555.238 1487.240 C 1538.164 1491.618,1509.419 1514.027,1497.209 1532.478 C 1487.234 1547.551,1486.000 1553.003,1486.000 1582.000 C 1486.000 1611.236,1487.188 1616.380,1497.565 1632.060 C 1503.925 1641.671,1558.731 1699.667,1619.356 1760.939 L 1729.582 1872.343 1650.791 1951.208 C 1576.131 2025.938,1572.000 2030.868,1572.000 2045.235 C 1572.000 2062.704,1579.049 2078.086,1593.042 2091.155 L 1602.845 2100.309 1834.422 2099.155 C 2009.311 2098.283,2068.116 2096.788,2074.642 2093.051 C 2079.396 2090.328,2087.046 2082.016,2091.642 2074.578 C 2099.865 2061.274,2100.000 2057.351,2100.000 1831.276 L 2100.000 1601.497 2089.000 1591.237 C 2073.404 1576.690,2062.748 1572.000,2045.300 1572.000 C 2030.849 1572.000,2026.056 1576.013,1951.246 1650.753 L 1872.419 1729.506 1757.094 1615.629 C 1688.452 1547.848,1635.542 1498.796,1626.385 1494.451 C 1609.758 1486.561,1572.582 1482.793,1555.238 1487.240 " fill="#1D1E23" stroke="none" fill-rule="evenodd"/></svg>