<svg viewBox="0 0 2400 2400" fill="none" xmlns="http://www.w3.org/2000/svg"><path d="M321.641 311.062 L 305.282 323.121 302.641 378.193 C 301.189 408.483,300.000 515.467,300.000 615.935 L 300.000 798.605 309.000 806.835 C 324.784 821.267,343.951 828.899,357.860 826.290 C 370.617 823.897,443.780 759.971,501.875 700.458 C 515.006 687.006,527.358 676.000,529.323 676.000 C 531.289 676.000,575.445 717.700,627.448 768.668 C 773.409 911.720,785.056 920.232,826.971 914.487 C 895.884 905.042,938.170 825.622,902.641 772.369 C 888.418 751.050,813.669 670.790,738.640 596.276 L 672.461 530.551 729.231 472.101 C 815.779 382.990,826.000 370.102,826.000 350.087 C 826.000 337.947,822.936 329.360,814.796 318.689 L 803.593 304.000 740.796 303.995 C 706.258 303.992,601.500 302.868,508.000 301.496 L 338.000 299.003 321.641 311.062 M1608.360 307.855 C 1587.476 311.233,1577.813 321.431,1573.976 344.143 C 1570.433 365.113,1574.710 370.727,1661.389 458.891 L 1729.120 527.782 1631.837 626.891 C 1517.961 742.904,1494.749 769.894,1487.943 794.205 C 1471.788 851.903,1523.499 916.000,1586.201 916.000 C 1619.678 916.000,1642.040 897.874,1792.764 748.569 L 1871.528 670.547 1946.963 744.273 C 1988.452 784.823,2027.235 820.542,2033.148 823.649 C 2046.765 830.804,2069.732 824.758,2088.305 809.129 L 2100.971 798.471 2099.261 566.236 C 2097.989 393.451,2096.298 331.707,2092.657 325.041 C 2081.105 303.896,2081.874 303.960,1845.199 304.501 C 1724.639 304.776,1618.062 306.285,1608.360 307.855 M765.172 1501.955 C 753.775 1509.630,696.199 1563.397,637.225 1621.438 L 530.000 1726.967 463.565 1662.419 C 427.025 1626.917,389.776 1592.775,380.788 1586.546 C 358.561 1571.143,340.815 1571.101,319.048 1586.398 L 302.000 1598.379 300.968 1833.988 L 299.935 2069.597 314.779 2084.798 L 329.624 2100.000 564.115 2100.000 L 798.605 2100.000 806.835 2091.000 C 821.267 2075.216,828.899 2056.049,826.290 2042.140 C 823.897 2029.383,759.971 1956.220,700.458 1898.125 C 687.006 1884.994,676.000 1872.642,676.000 1870.677 C 676.000 1868.711,717.700 1824.555,768.668 1772.552 C 890.422 1648.322,905.659 1630.431,911.914 1604.359 C 922.729 1559.276,905.054 1521.146,863.780 1500.521 C 843.298 1490.287,833.898 1488.000,812.308 1488.000 C 788.763 1488.000,783.642 1489.516,765.172 1501.955 M1548.000 1490.899 C 1544.700 1492.146,1534.416 1498.562,1525.148 1505.155 C 1492.753 1528.201,1480.297 1558.535,1486.051 1600.369 C 1489.640 1626.466,1498.814 1637.378,1627.872 1769.058 L 1728.877 1872.117 1655.439 1947.257 C 1615.047 1988.585,1579.458 2027.235,1576.351 2033.148 C 1569.194 2046.769,1575.243 2069.733,1590.884 2088.321 L 1601.555 2101.003 1833.778 2099.249 C 2005.703 2097.951,2068.326 2096.232,2074.959 2092.629 C 2079.886 2089.953,2087.064 2081.966,2090.911 2074.881 C 2097.290 2063.132,2098.028 2041.729,2099.308 1831.283 L 2100.713 1600.566 2083.884 1588.376 C 2062.384 1572.801,2043.271 1568.937,2030.176 1577.517 C 2024.792 1581.045,1986.892 1616.671,1945.954 1656.687 L 1871.521 1729.442 1796.760 1655.479 C 1682.183 1542.124,1640.366 1503.782,1622.428 1495.636 C 1606.431 1488.371,1562.146 1485.553,1548.000 1490.899 " fill="#1D1E23" stroke="none" fill-rule="evenodd"/></svg>