<svg viewBox="0 0 2400 2400" fill="none" xmlns="http://www.w3.org/2000/svg"><path d="M319.988 322.012 L 250.062 392.023 404.012 546.012 L 557.961 700.000 428.981 700.000 L 300.000 700.000 300.000 800.000 L 300.000 900.000 600.000 900.000 L 900.000 900.000 900.000 600.000 L 900.000 300.000 800.000 300.000 L 700.000 300.000 700.000 428.981 L 700.000 557.961 546.981 404.981 C 462.820 320.841,393.051 252.000,391.938 252.000 C 390.825 252.000,358.448 283.505,319.988 322.012 M1852.993 404.993 L 1700.000 557.987 1700.000 428.993 L 1700.000 300.000 1600.000 300.000 L 1500.000 300.000 1500.000 600.000 L 1500.000 900.000 1800.000 900.000 L 2100.000 900.000 2100.000 800.000 L 2100.000 700.000 1971.019 700.000 L 1842.039 700.000 1995.988 546.012 L 2149.938 392.023 2080.012 322.012 C 2041.552 283.505,2009.164 252.000,2008.036 252.000 C 2006.909 252.000,1937.140 320.847,1852.993 404.993 M300.000 1600.000 L 300.000 1700.000 428.981 1700.000 L 557.961 1700.000 403.997 1854.003 L 250.034 2008.005 321.014 2078.986 L 391.995 2149.966 545.997 1996.003 L 700.000 1842.039 700.000 1971.019 L 700.000 2100.000 800.000 2100.000 L 900.000 2100.000 900.000 1800.000 L 900.000 1500.000 600.000 1500.000 L 300.000 1500.000 300.000 1600.000 M1500.000 1800.000 L 1500.000 2100.000 1600.000 2100.000 L 1700.000 2100.000 1700.000 1971.019 L 1700.000 1842.039 1854.003 1996.003 L 2008.005 2149.966 2078.986 2078.986 L 2149.966 2008.005 1996.003 1854.003 L 1842.039 1700.000 1971.019 1700.000 L 2100.000 1700.000 2100.000 1600.000 L 2100.000 1500.000 1800.000 1500.000 L 1500.000 1500.000 1500.000 1800.000 " fill="#1D1E23" stroke="none" fill-rule="evenodd"/></svg>