<svg viewBox="0 0 2400 2400" fill="none" xmlns="http://www.w3.org/2000/svg"><path d="M754.000 307.857 L 438.000 310.000 412.000 323.985 C 377.702 342.433,337.717 383.050,320.566 416.866 L 307.132 443.353 303.289 526.676 C 297.956 642.314,301.592 1914.780,307.337 1943.355 C 315.339 1983.160,338.152 2017.909,379.392 2053.111 C 405.251 2075.184,430.368 2087.675,459.177 2092.791 C 489.529 2098.181,1734.342 2101.738,1858.628 2096.790 C 1950.678 2093.125,1951.424 2093.024,1978.144 2080.520 C 1997.673 2071.381,2013.470 2059.460,2035.858 2036.969 C 2075.755 1996.886,2086.335 1978.316,2092.243 1938.000 C 2095.635 1914.850,2097.459 1705.654,2098.835 1181.596 L 2100.739 457.192 2089.891 435.596 C 2062.494 381.050,2030.774 348.501,1975.668 318.389 L 1949.336 304.000 1509.668 304.857 C 1267.851 305.328,927.800 306.678,754.000 307.857 M1802.249 716.121 C 1813.254 721.448,1827.102 733.220,1836.808 745.499 L 1853.004 765.988 1850.935 799.142 C 1849.294 825.442,1846.830 835.367,1839.016 847.148 C 1816.109 881.683,1183.891 1517.111,1078.385 1611.641 C 1025.075 1659.406,998.138 1667.390,961.918 1646.164 C 940.624 1633.684,568.165 1264.485,556.204 1244.000 C 546.991 1228.220,545.150 1192.422,552.241 1166.891 C 561.334 1134.144,595.935 1108.698,636.354 1105.033 C 679.578 1101.114,666.661 1090.998,861.319 1281.205 L 1000.638 1417.338 1243.319 1175.311 C 1576.540 842.988,1700.903 722.418,1721.074 712.128 C 1742.206 701.347,1775.070 702.963,1802.249 716.121 " fill="#1D1E23" stroke="none" fill-rule="evenodd"/></svg>