<svg viewBox="0 0 2400 2400" fill="none" xmlns="http://www.w3.org/2000/svg"><path d="M468.000 302.648 C 447.298 306.004,409.264 321.531,389.052 334.877 C 347.077 362.593,314.625 410.264,304.420 459.197 C 298.170 489.170,298.170 1910.830,304.420 1940.803 C 320.053 2015.765,384.235 2079.947,459.197 2095.580 C 489.170 2101.830,1910.830 2101.830,1940.803 2095.580 C 2015.765 2079.947,2079.947 2015.765,2095.580 1940.803 C 2101.830 1910.830,2101.830 489.170,2095.580 459.197 C 2081.788 393.062,2034.082 338.710,1966.000 311.568 L 1942.000 302.000 1210.000 301.513 C 807.400 301.246,473.500 301.756,468.000 302.648 M1834.017 506.625 C 1845.651 510.589,1860.290 520.080,1870.465 530.255 C 1902.123 561.913,1900.000 513.764,1900.000 1200.000 C 1900.000 1886.236,1902.123 1838.087,1870.465 1869.745 C 1837.810 1902.400,1891.001 1900.000,1200.000 1900.000 C 509.722 1900.000,562.127 1902.338,529.895 1870.105 C 497.662 1837.873,500.000 1890.278,500.000 1200.000 C 500.000 509.576,497.650 562.140,529.967 529.823 C 561.432 498.358,509.080 500.669,1198.287 500.316 C 1761.952 500.027,1816.235 500.566,1834.017 506.625 " fill="#1D1E23" stroke="none" fill-rule="evenodd"/></svg>