<svg viewBox="0 0 2400 2400" fill="none" xmlns="http://www.w3.org/2000/svg"><path d="M464.000 307.634 C 407.168 312.827,349.836 356.788,319.481 418.448 C 307.693 442.392,306.397 448.971,303.559 499.257 C 299.361 573.640,299.540 1832.012,303.759 1901.226 C 306.852 1951.976,308.187 1958.623,320.231 1983.226 C 337.936 2019.395,380.684 2062.103,416.955 2079.858 C 442.253 2092.243,447.536 2093.252,502.955 2096.288 C 579.921 2100.504,1820.079 2100.504,1897.045 2096.288 C 1952.464 2093.252,1957.747 2092.243,1983.045 2079.858 C 2019.172 2062.173,2062.071 2019.383,2079.622 1983.525 C 2091.386 1959.492,2092.932 1951.928,2096.385 1901.525 C 2098.632 1868.729,2099.741 1561.095,2099.094 1150.000 L 2098.000 454.000 2083.065 422.721 C 2062.058 378.727,2029.502 345.717,1983.878 322.154 L 1948.729 304.000 1219.365 304.629 C 818.214 304.976,478.300 306.328,464.000 307.634 M1810.208 718.106 C 1822.350 725.613,1834.387 737.652,1841.894 749.798 C 1852.487 766.937,1853.968 772.922,1853.747 797.692 C 1853.576 816.803,1851.155 830.442,1846.297 839.671 C 1832.774 865.360,1161.469 1541.398,1076.169 1615.229 C 1030.197 1655.020,1011.192 1663.583,984.625 1656.477 C 974.453 1653.757,956.727 1644.276,945.233 1635.408 C 914.222 1611.483,571.231 1268.886,557.665 1248.285 C 547.288 1232.526,546.025 1227.228,546.223 1200.285 C 546.478 1165.748,551.974 1152.263,575.006 1129.657 C 595.558 1109.488,610.670 1104.000,645.664 1104.000 L 675.585 1104.000 698.792 1123.422 C 711.557 1134.104,784.627 1204.554,861.171 1279.978 L 1000.341 1417.112 1345.171 1073.399 C 1534.827 884.357,1699.000 723.768,1710.000 716.535 C 1728.864 704.131,1731.722 703.458,1760.314 704.692 C 1785.740 705.789,1793.785 707.952,1810.208 718.106 " fill="#1D1E23" stroke="none" fill-rule="evenodd"/></svg>