<svg viewBox="0 0 2400 2400" fill="none" xmlns="http://www.w3.org/2000/svg"><path d="M604.000 307.874 L 438.000 310.000 408.990 325.501 C 373.153 344.649,337.817 381.203,319.837 417.725 C 307.603 442.575,306.747 447.297,303.644 506.982 C 299.338 589.807,299.478 1793.584,303.803 1884.000 C 307.592 1963.210,310.402 1972.975,341.493 2015.005 C 361.303 2041.783,398.738 2072.044,428.000 2084.931 C 442.565 2091.346,460.120 2093.506,520.000 2096.248 C 614.878 2100.594,1782.071 2100.694,1880.092 2096.365 C 1947.942 2093.369,1956.030 2092.215,1976.092 2082.672 C 2008.566 2067.223,2044.247 2036.272,2065.214 2005.364 C 2100.466 1953.396,2097.486 2024.918,2099.036 1193.871 L 2100.409 457.743 2084.321 425.871 C 2058.174 374.070,2026.733 343.685,1969.133 314.554 L 1948.266 304.000 1359.133 304.874 C 1035.110 305.355,695.300 306.705,604.000 307.874 M1809.591 718.847 C 1818.477 725.093,1831.821 738.165,1839.242 747.896 C 1852.514 765.295,1852.714 766.159,1851.368 800.169 C 1850.065 833.098,1849.309 835.591,1835.535 852.375 C 1781.532 918.173,1121.526 1579.013,1063.226 1625.659 C 1014.644 1664.530,990.964 1667.467,951.616 1639.504 C 931.043 1624.883,586.550 1283.217,563.569 1254.641 C 548.409 1235.790,548.000 1234.447,548.000 1203.512 C 548.000 1164.774,553.383 1150.994,576.991 1129.304 C 597.793 1110.190,615.665 1104.054,650.622 1104.022 C 672.950 1104.002,676.861 1105.329,692.622 1118.269 C 702.180 1126.117,775.402 1196.610,855.338 1274.919 L 1000.676 1417.301 1257.338 1161.336 C 1587.680 831.890,1703.225 719.405,1720.258 710.674 C 1741.837 699.613,1788.267 703.861,1809.591 718.847 " fill="#1D1E23" stroke="none" fill-rule="evenodd"/></svg>