<svg viewBox="0 0 2400 2400" fill="none" xmlns="http://www.w3.org/2000/svg"><path d="M468.000 302.648 C 447.298 306.004,409.264 321.531,389.052 334.877 C 347.077 362.593,314.625 410.264,304.420 459.197 C 298.170 489.170,298.170 1910.830,304.420 1940.803 C 320.053 2015.765,384.235 2079.947,459.197 2095.580 C 489.170 2101.830,1910.830 2101.830,1940.803 2095.580 C 2015.765 2079.947,2079.947 2015.765,2095.580 1940.803 C 2101.830 1910.830,2101.830 489.170,2095.580 459.197 C 2081.788 393.062,2034.082 338.710,1966.000 311.568 L 1942.000 302.000 1210.000 301.513 C 807.400 301.246,473.500 301.756,468.000 302.648 M1798.000 709.549 C 1821.538 720.696,1841.142 740.120,1849.797 760.872 C 1859.246 783.526,1857.902 823.206,1847.000 843.471 C 1841.413 853.857,1689.364 1008.818,1446.000 1252.150 C 1023.405 1674.691,1041.389 1658.356,999.456 1657.717 C 958.791 1657.098,959.922 1658.048,751.163 1449.049 C 617.428 1315.159,554.405 1249.337,550.170 1239.128 C 541.713 1218.744,542.363 1177.981,551.463 1158.000 C 560.849 1137.391,585.759 1115.045,609.419 1106.009 C 631.206 1097.689,663.265 1099.413,684.550 1110.051 C 691.947 1113.749,765.948 1184.538,848.994 1267.362 L 999.989 1417.949 1353.048 1064.975 C 1547.230 870.839,1706.982 711.973,1708.053 711.940 C 1709.124 711.907,1717.200 709.286,1726.000 706.115 C 1749.923 697.497,1775.082 698.697,1798.000 709.549 " fill="#1D1E23" stroke="none" fill-rule="evenodd"/></svg>