<svg viewBox="0 0 2400 2400" fill="none" xmlns="http://www.w3.org/2000/svg"><path d="M630.000 303.853 L 446.000 306.000 414.898 321.199 C 372.974 341.687,342.148 372.239,321.857 413.412 C 307.722 442.092,306.123 448.701,303.467 489.412 C 299.672 547.583,299.672 1852.417,303.467 1910.588 C 306.115 1951.178,307.743 1957.942,321.620 1986.020 C 341.843 2026.938,373.089 2058.170,414.060 2078.419 C 442.639 2092.544,448.510 2093.919,491.492 2096.548 C 552.161 2100.260,1847.839 2100.260,1908.508 2096.548 C 1951.490 2093.919,1957.361 2092.544,1985.940 2078.419 C 2026.884 2058.184,2058.159 2026.934,2078.346 1986.089 C 2092.951 1956.536,2093.690 1953.063,2096.932 1898.657 C 2098.789 1867.496,2099.789 1530.600,2099.154 1150.000 L 2098.000 458.000 2088.375 434.000 C 2067.128 381.025,2034.163 345.655,1982.797 320.722 L 1950.000 304.803 1382.000 303.254 C 1069.600 302.402,731.200 302.671,630.000 303.853 M1840.000 509.593 C 1863.026 522.081,1880.097 536.585,1886.623 549.204 C 1897.643 570.515,1899.696 672.712,1899.696 1200.000 C 1899.696 1706.975,1897.457 1829.993,1887.893 1848.550 C 1880.826 1862.262,1863.696 1879.828,1850.848 1886.539 C 1844.714 1889.742,1821.314 1894.021,1798.848 1896.047 C 1745.519 1900.856,654.481 1900.856,601.152 1896.047 C 578.686 1894.021,555.286 1889.742,549.152 1886.539 C 536.330 1879.842,519.176 1862.268,512.149 1848.629 C 502.491 1829.882,500.262 1708.263,500.262 1200.000 C 500.262 673.750,502.332 570.472,513.298 549.468 C 520.236 536.179,537.651 519.223,551.937 511.846 C 569.762 502.643,679.158 501.044,1258.000 501.526 C 1807.778 501.985,1826.449 502.244,1840.000 509.593 " fill="#1D1E23" stroke="none" fill-rule="evenodd"/></svg>