<svg viewBox="0 0 2400 2400" fill="none" xmlns="http://www.w3.org/2000/svg"><path d="M604.000 307.874 L 438.000 310.000 408.990 325.501 C 373.153 344.649,337.817 381.203,319.837 417.725 C 307.603 442.575,306.747 447.297,303.644 506.982 C 299.338 589.807,299.478 1793.584,303.803 1884.000 C 307.592 1963.210,310.402 1972.975,341.493 2015.005 C 361.303 2041.783,398.738 2072.044,428.000 2084.931 C 442.565 2091.346,460.120 2093.506,520.000 2096.248 C 614.878 2100.594,1782.071 2100.694,1880.092 2096.365 C 1947.942 2093.369,1956.030 2092.215,1976.092 2082.672 C 2008.566 2067.223,2044.247 2036.272,2065.214 2005.364 C 2100.466 1953.396,2097.486 2024.918,2099.036 1193.871 L 2100.409 457.743 2084.321 425.871 C 2058.174 374.070,2026.733 343.685,1969.133 314.554 L 1948.266 304.000 1359.133 304.874 C 1035.110 305.355,695.300 306.705,604.000 307.874 M1852.000 518.454 C 1883.071 536.044,1887.648 545.915,1892.959 606.790 C 1898.144 666.221,1897.970 1709.666,1892.761 1792.607 C 1889.886 1838.386,1888.525 1844.813,1878.501 1859.961 C 1860.385 1887.336,1844.244 1892.136,1756.581 1896.218 C 1659.703 1900.729,740.403 1900.739,644.000 1896.230 C 562.428 1892.414,543.205 1887.718,526.139 1867.436 C 520.732 1861.009,514.047 1849.057,511.284 1840.876 C 504.832 1821.767,501.452 646.858,507.689 590.994 C 514.157 533.056,533.104 511.792,581.996 507.598 C 597.398 506.276,884.500 505.376,1220.000 505.598 L 1830.000 506.000 1852.000 518.454 " fill="#1D1E23" stroke="none" fill-rule="evenodd"/></svg>