<svg viewBox="0 0 2400 2400" fill="none" xmlns="http://www.w3.org/2000/svg"><path d="M630.000 303.853 L 446.000 306.000 414.898 321.199 C 372.974 341.687,342.148 372.239,321.857 413.412 C 307.722 442.092,306.123 448.701,303.467 489.412 C 299.672 547.583,299.672 1852.417,303.467 1910.588 C 306.115 1951.178,307.743 1957.942,321.620 1986.020 C 341.843 2026.938,373.089 2058.170,414.060 2078.419 C 442.639 2092.544,448.510 2093.919,491.492 2096.548 C 552.161 2100.260,1847.839 2100.260,1908.508 2096.548 C 1951.490 2093.919,1957.361 2092.544,1985.940 2078.419 C 2026.884 2058.184,2058.159 2026.934,2078.346 1986.089 C 2092.951 1956.536,2093.690 1953.063,2096.932 1898.657 C 2098.789 1867.496,2099.789 1530.600,2099.154 1150.000 L 2098.000 458.000 2088.375 434.000 C 2067.128 381.025,2034.163 345.655,1982.797 320.722 L 1950.000 304.803 1382.000 303.254 C 1069.600 302.402,731.200 302.671,630.000 303.853 M1802.758 712.807 C 1825.506 724.168,1846.740 748.490,1852.503 769.788 C 1859.197 794.526,1854.589 829.694,1842.202 848.412 C 1829.578 867.488,1205.540 1495.385,1112.767 1582.358 C 1076.289 1616.555,1039.689 1647.310,1029.737 1652.127 C 1006.481 1663.385,979.949 1660.212,953.150 1642.968 C 933.597 1630.385,589.923 1289.257,562.558 1255.269 C 550.569 1240.378,547.016 1232.069,545.227 1214.737 C 541.718 1180.732,549.989 1153.800,570.127 1133.662 C 595.255 1108.534,609.239 1102.479,642.460 1102.341 C 666.668 1102.240,673.313 1103.806,686.941 1112.824 C 695.752 1118.655,769.912 1189.584,851.742 1270.443 L 1000.522 1417.461 1353.261 1065.001 C 1681.910 736.612,1707.366 712.116,1726.000 706.324 C 1751.130 698.513,1778.819 700.851,1802.758 712.807 " fill="#1D1E23" stroke="none" fill-rule="evenodd"/></svg>