<svg viewBox="0 0 2400 2400" fill="none" xmlns="http://www.w3.org/2000/svg"><path d="M464.000 307.634 C 407.168 312.827,349.836 356.788,319.481 418.448 C 307.693 442.392,306.397 448.971,303.559 499.257 C 299.361 573.640,299.540 1832.012,303.759 1901.226 C 306.852 1951.976,308.187 1958.623,320.231 1983.226 C 337.936 2019.395,380.684 2062.103,416.955 2079.858 C 442.253 2092.243,447.536 2093.252,502.955 2096.288 C 579.921 2100.504,1820.079 2100.504,1897.045 2096.288 C 1952.464 2093.252,1957.747 2092.243,1983.045 2079.858 C 2019.172 2062.173,2062.071 2019.383,2079.622 1983.525 C 2091.386 1959.492,2092.932 1951.928,2096.385 1901.525 C 2098.632 1868.729,2099.741 1561.095,2099.094 1150.000 L 2098.000 454.000 2083.065 422.721 C 2062.058 378.727,2029.502 345.717,1983.878 322.154 L 1948.729 304.000 1219.365 304.629 C 818.214 304.976,478.300 306.328,464.000 307.634 M1612.734 1107.370 C 1638.565 1109.723,1645.902 1112.102,1658.734 1122.286 C 1714.456 1166.508,1705.588 1255.054,1642.000 1289.366 L 1626.000 1298.000 1199.720 1297.911 L 773.439 1297.821 754.078 1287.857 C 717.616 1269.094,693.851 1217.689,704.079 1179.707 C 714.135 1142.363,741.313 1113.103,770.489 1108.212 C 794.302 1104.220,1569.652 1103.444,1612.734 1107.370 " fill="#1D1E23" stroke="none" fill-rule="evenodd"/></svg>