<svg viewBox="0 0 2400 2400" fill="none" xmlns="http://www.w3.org/2000/svg"><path d="M754.000 307.857 L 438.000 310.000 412.000 323.985 C 377.702 342.433,337.717 383.050,320.566 416.866 L 307.132 443.353 303.289 526.676 C 297.956 642.314,301.592 1914.780,307.337 1943.355 C 315.339 1983.160,338.152 2017.909,379.392 2053.111 C 405.251 2075.184,430.368 2087.675,459.177 2092.791 C 489.529 2098.181,1734.342 2101.738,1858.628 2096.790 C 1950.678 2093.125,1951.424 2093.024,1978.144 2080.520 C 1997.673 2071.381,2013.470 2059.460,2035.858 2036.969 C 2075.755 1996.886,2086.335 1978.316,2092.243 1938.000 C 2095.635 1914.850,2097.459 1705.654,2098.835 1181.596 L 2100.739 457.192 2089.891 435.596 C 2062.494 381.050,2030.774 348.501,1975.668 318.389 L 1949.336 304.000 1509.668 304.857 C 1267.851 305.328,927.800 306.678,754.000 307.857 M1654.459 1121.173 C 1678.315 1137.369,1692.983 1166.314,1693.121 1197.471 C 1693.181 1211.014,1690.441 1228.520,1687.003 1236.558 C 1678.565 1256.291,1653.890 1282.873,1635.128 1292.445 C 1620.038 1300.143,1610.770 1300.283,1198.855 1299.003 C 876.916 1298.003,774.529 1296.527,763.230 1292.724 C 754.702 1289.852,741.570 1279.923,732.153 1269.224 C 701.220 1234.083,696.256 1184.084,719.986 1146.667 C 735.419 1122.331,747.741 1115.101,779.383 1111.812 C 794.022 1110.291,993.200 1109.261,1222.000 1109.523 L 1638.000 1110.000 1654.459 1121.173 " fill="#1D1E23" stroke="none" fill-rule="evenodd"/></svg>