<svg viewBox="0 0 2400 2400" fill="none" xmlns="http://www.w3.org/2000/svg"><path d="M1118.000 206.424 C 956.947 218.282,787.043 277.650,644.362 371.923 C 494.452 470.972,358.807 630.799,288.119 791.674 C 266.998 839.740,242.361 911.165,230.085 959.915 C 182.920 1147.222,193.856 1354.889,260.483 1537.119 C 334.478 1739.503,470.551 1912.980,650.000 2033.707 C 696.182 2064.777,800.010 2116.962,857.739 2138.120 C 908.419 2156.694,1005.333 2181.431,1062.000 2190.256 C 1129.444 2200.759,1285.600 2199.715,1350.000 2188.330 C 1565.633 2150.209,1739.801 2062.760,1894.450 1914.965 C 2167.011 1654.483,2267.301 1255.006,2149.937 897.307 C 2068.516 649.154,1906.900 452.080,1682.000 326.706 C 1573.429 266.182,1435.324 222.100,1324.000 212.437 C 1271.207 207.854,1147.583 204.246,1118.000 206.424 M1287.158 408.247 C 1556.534 437.697,1788.969 599.273,1910.863 841.813 C 1938.710 897.222,1957.093 945.349,1971.924 1001.674 C 1986.944 1058.714,1990.974 1090.207,1994.233 1176.000 C 1997.080 1250.956,1993.509 1297.702,1979.795 1365.005 C 1950.808 1507.254,1867.612 1660.483,1762.048 1766.048 C 1629.243 1898.852,1440.200 1984.568,1254.852 1996.020 C 1107.516 2005.123,983.283 1980.563,848.418 1915.670 C 816.748 1900.431,776.248 1878.250,758.418 1866.379 C 693.514 1823.165,583.536 1713.367,539.344 1647.664 C 510.368 1604.584,459.907 1500.907,443.137 1450.000 C 412.672 1357.516,401.470 1274.055,405.287 1168.000 C 409.667 1046.335,434.062 951.378,489.040 842.000 C 548.441 723.821,637.903 619.970,746.288 543.374 C 795.772 508.404,884.405 464.413,949.285 442.622 C 988.197 429.553,1061.631 413.223,1102.000 408.662 C 1147.749 403.493,1241.749 403.282,1287.158 408.247 " fill="#1D1E23" stroke="none" fill-rule="evenodd"/></svg>