<svg viewBox="0 0 2400 2400" fill="none" xmlns="http://www.w3.org/2000/svg"><path d="M1062.000 210.040 C 838.845 245.765,647.360 340.791,498.022 489.920 C 335.373 652.340,239.530 845.602,207.371 1076.000 C 199.343 1133.512,200.542 1278.601,209.535 1338.000 C 259.968 1671.099,465.368 1953.685,762.000 2098.072 C 996.553 2212.242,1262.178 2230.922,1508.000 2150.533 C 1764.708 2066.585,1981.131 1878.587,2098.027 1638.000 C 2234.203 1357.731,2233.307 1038.111,2095.564 760.000 C 2043.904 655.694,1982.750 570.004,1904.273 491.959 C 1757.151 345.647,1581.994 255.288,1368.000 215.310 C 1310.952 204.652,1116.566 201.304,1062.000 210.040 M1266.000 404.219 C 1510.640 425.302,1729.489 554.522,1864.401 757.547 C 2061.310 1053.868,2039.279 1442.225,1810.063 1715.408 C 1653.899 1901.527,1415.174 2007.575,1172.020 1998.846 C 1015.900 1993.241,861.732 1940.377,730.098 1847.311 C 690.853 1819.565,600.112 1731.929,571.356 1694.000 C 494.846 1593.087,441.151 1476.899,417.965 1362.085 C 360.620 1078.124,456.419 792.201,673.499 599.415 C 832.760 457.978,1051.938 385.771,1266.000 404.219 " fill="#1D1E23" stroke="none" fill-rule="evenodd"/></svg>