<svg viewBox="0 0 2400 2400" fill="none" xmlns="http://www.w3.org/2000/svg"><path d="M1112.000 203.923 C 833.630 231.768,590.463 362.388,419.326 576.000 C 147.365 915.458,126.704 1391.677,368.248 1753.288 C 676.969 2215.470,1294.618 2338.595,1756.000 2029.929 C 2215.492 1722.528,2337.727 1104.086,2029.929 644.000 C 1872.846 409.198,1631.891 256.219,1349.288 211.869 C 1290.914 202.708,1165.973 198.524,1112.000 203.923 M1274.000 404.133 C 1456.349 421.235,1623.340 498.040,1755.450 625.571 C 2004.489 865.978,2070.161 1239.929,1917.944 1550.849 C 1796.348 1799.221,1559.627 1964.889,1282.000 1995.912 C 1085.155 2017.907,873.543 1957.479,710.000 1832.570 C 674.030 1805.098,606.674 1738.415,576.092 1700.000 C 537.021 1650.922,510.707 1609.106,481.701 1550.000 C 346.093 1273.664,382.928 942.169,576.152 700.000 C 606.996 661.343,669.507 599.393,708.000 569.335 C 866.875 445.271,1072.549 385.240,1274.000 404.133 M1134.000 704.581 C 1084.868 710.843,1031.698 727.326,982.000 751.702 C 837.375 822.636,739.040 951.012,707.546 1110.000 C 700.249 1146.837,700.249 1253.163,707.546 1290.000 C 748.212 1495.294,904.706 1651.788,1110.000 1692.454 C 1146.837 1699.751,1253.163 1699.751,1290.000 1692.454 C 1385.442 1673.548,1471.887 1629.548,1540.798 1564.798 C 1614.816 1495.251,1661.298 1415.186,1686.927 1313.096 C 1696.631 1274.439,1697.745 1262.790,1697.745 1200.000 C 1697.745 1137.210,1696.631 1125.561,1686.927 1086.904 C 1667.678 1010.229,1637.327 947.261,1592.571 891.151 C 1482.157 752.726,1308.997 682.275,1134.000 704.581 " fill="#1D1E23" stroke="none" fill-rule="evenodd"/></svg>