<svg viewBox="0 0 2400 2400" fill="none" xmlns="http://www.w3.org/2000/svg"><path d="M1192.171 223.000 C 1189.358 229.050,1133.466 358.200,1067.967 510.000 C 1002.467 661.800,941.260 803.342,931.950 824.539 L 915.024 863.077 892.512 865.530 C 880.130 866.879,735.900 879.722,572.000 894.069 C 206.556 926.060,215.966 925.113,214.931 930.000 C 214.294 933.005,630.240 1301.111,729.186 1385.108 L 744.372 1398.000 683.994 1660.000 C 630.381 1892.645,598.046 2035.418,590.005 2075.000 C 588.553 2082.150,589.017 2088.000,591.036 2088.000 C 597.247 2088.000,711.502 2021.199,961.000 1871.696 L 1200.000 1728.483 1439.000 1871.705 C 1696.714 2026.142,1802.314 2088.000,1808.245 2088.000 C 1810.310 2088.000,1812.000 2087.069,1812.000 2085.932 C 1812.000 2081.186,1789.615 1981.259,1742.570 1776.000 C 1682.307 1513.067,1663.597 1426.730,1662.687 1407.385 C 1662.005 1392.883,1663.553 1391.409,1864.232 1215.385 C 2178.758 939.503,2188.683 930.446,2180.021 927.233 C 2175.918 925.711,2089.185 917.120,1987.281 908.141 C 1620.172 875.796,1486.315 863.648,1485.246 862.579 C 1483.391 860.725,1439.374 759.580,1330.065 506.000 C 1197.591 198.679,1203.479 212.000,1200.119 212.000 C 1198.560 212.000,1194.983 216.950,1192.171 223.000 " fill="#1D1E23" stroke="none" fill-rule="evenodd"/></svg>