<svg viewBox="0 0 2400 2400" fill="none" xmlns="http://www.w3.org/2000/svg"><path d="M1166.681 362.493 C 1154.350 366.281,1141.327 374.501,1130.681 385.214 C 1115.721 400.268,1103.916 425.834,1016.267 633.000 C 962.514 760.050,917.514 863.965,916.267 863.922 C 901.497 863.414,426.041 905.633,415.168 908.418 C 364.457 921.409,332.535 983.418,349.800 1035.398 C 358.270 1060.897,368.165 1070.244,581.221 1254.000 C 670.499 1331.000,743.647 1396.489,743.772 1399.532 C 743.898 1402.574,719.421 1509.674,689.380 1637.532 C 630.531 1887.993,627.774 1905.554,642.830 1934.000 C 667.078 1979.811,718.334 2002.112,763.088 1986.322 C 771.939 1983.199,873.881 1923.645,989.625 1853.979 L 1200.068 1727.315 1405.953 1851.817 C 1519.189 1920.292,1619.524 1979.807,1628.918 1984.071 C 1673.942 2004.507,1728.928 1985.355,1753.184 1940.790 C 1772.786 1904.775,1773.672 1911.144,1712.363 1647.278 C 1681.363 1513.860,1656.102 1402.292,1656.228 1399.350 C 1656.353 1396.407,1729.501 1331.000,1818.779 1254.000 C 2032.025 1070.081,2041.724 1060.915,2050.236 1035.288 C 2065.958 987.955,2044.962 936.541,2000.809 914.255 C 1984.546 906.047,1973.772 904.867,1704.000 881.757 C 1570.719 870.339,1484.281 861.317,1481.577 858.541 C 1479.144 856.043,1434.144 752.300,1381.577 628.000 C 1274.673 375.216,1274.556 375.008,1231.644 362.265 C 1206.052 354.665,1191.999 354.714,1166.681 362.493 M1285.687 813.000 C 1331.415 921.350,1369.992 1011.120,1371.414 1012.490 C 1372.836 1013.859,1463.100 1022.563,1572.000 1031.831 C 1680.900 1041.100,1778.297 1049.879,1788.438 1051.341 L 1806.876 1054.000 1641.821 1197.120 L 1476.765 1340.239 1482.151 1363.120 C 1532.793 1578.288,1575.942 1765.341,1575.087 1766.008 C 1574.489 1766.475,1489.871 1715.846,1387.046 1653.499 L 1200.091 1540.141 1013.835 1652.527 C 911.395 1714.339,827.018 1764.257,826.331 1763.456 C 825.645 1762.655,847.420 1666.635,874.720 1550.077 C 915.745 1374.918,923.402 1337.446,918.853 1334.077 C 915.826 1331.835,841.789 1267.900,754.326 1192.000 C 602.847 1060.547,595.842 1053.864,606.652 1051.141 C 612.893 1049.569,707.100 1040.924,816.000 1031.930 C 924.900 1022.936,1017.717 1014.822,1022.260 1013.898 C 1028.981 1012.532,1046.089 975.296,1114.055 814.109 C 1159.999 705.149,1198.704 616.000,1200.067 616.000 C 1201.430 616.000,1239.959 704.650,1285.687 813.000 " fill="#1D1E23" stroke="none" fill-rule="evenodd"/></svg>