<svg viewBox="0 0 2400 2400" fill="none" xmlns="http://www.w3.org/2000/svg"><path d="M1178.000 359.550 C 1149.727 366.881,1130.042 382.196,1114.446 408.997 C 1109.005 418.349,1063.063 523.075,1012.353 641.723 C 961.644 760.370,918.728 858.872,916.984 860.616 C 915.241 862.359,859.856 868.382,793.907 873.999 C 474.668 901.192,414.995 907.679,396.000 917.258 C 360.005 935.410,338.016 986.384,348.082 1028.341 C 354.643 1055.690,370.706 1071.721,528.104 1208.000 C 634.631 1300.233,717.826 1373.358,737.270 1391.849 C 744.277 1398.512,742.798 1406.308,696.593 1606.382 C 626.176 1911.288,626.694 1907.759,647.579 1940.692 C 669.216 1974.810,706.136 1994.404,741.353 1990.460 C 765.254 1987.784,767.377 1986.607,1006.955 1843.234 L 1199.910 1727.762 1410.765 1854.631 C 1526.735 1924.409,1628.005 1983.783,1635.810 1986.574 C 1668.137 1998.135,1703.119 1990.826,1730.404 1966.809 C 1763.790 1937.421,1769.970 1911.906,1758.377 1851.315 C 1755.284 1835.151,1730.853 1726.724,1704.084 1610.367 C 1657.128 1406.255,1655.671 1398.563,1662.707 1391.871 C 1682.659 1372.895,1765.795 1299.807,1871.857 1208.000 C 2024.605 1075.782,2045.153 1055.533,2051.282 1031.195 C 2057.542 1006.333,2057.232 993.040,2049.888 971.489 C 2041.723 947.526,2023.754 926.499,2003.005 916.630 C 1982.722 906.981,1960.085 904.251,1748.000 885.870 C 1658.900 878.148,1562.879 869.168,1534.620 865.915 C 1506.360 862.662,1482.699 860.000,1482.040 860.000 C 1481.380 860.000,1442.620 770.450,1395.907 661.000 C 1311.980 464.361,1286.735 408.938,1270.870 386.496 C 1256.359 365.970,1207.697 351.851,1178.000 359.550 M1286.234 815.000 C 1331.892 922.250,1369.723 1010.607,1370.305 1011.348 C 1372.332 1013.931,1431.224 1019.885,1615.960 1036.181 C 1718.238 1045.204,1802.785 1053.452,1803.844 1054.511 C 1804.902 1055.569,1803.891 1057.687,1801.597 1059.217 C 1799.303 1060.748,1725.060 1124.790,1636.612 1201.533 C 1520.749 1302.065,1476.373 1342.874,1477.851 1347.533 C 1480.204 1354.953,1550.680 1656.359,1565.176 1721.000 C 1570.480 1744.650,1573.643 1764.000,1572.206 1764.000 C 1570.769 1764.000,1506.684 1725.918,1429.796 1679.373 C 1352.908 1632.828,1270.942 1583.268,1247.649 1569.239 L 1205.298 1543.731 1202.649 1375.210 C 1199.776 1192.422,1198.989 620.000,1201.611 620.000 C 1202.497 620.000,1240.577 707.750,1286.234 815.000 " fill="#1D1E23" stroke="none" fill-rule="evenodd"/></svg>