<svg viewBox="0 0 2400 2400" fill="none" xmlns="http://www.w3.org/2000/svg"><path d="M1058.260 534.013 C 981.402 715.506,916.602 864.003,914.260 864.006 C 899.924 864.026,206.472 924.194,205.132 925.534 C 204.226 926.441,325.001 1032.216,473.522 1160.591 C 622.042 1288.966,743.658 1396.499,743.779 1399.554 C 743.901 1402.609,707.896 1559.855,663.769 1748.990 C 619.642 1938.125,584.433 2093.766,585.526 2094.860 C 586.620 2095.953,725.324 2013.697,893.757 1912.068 L 1200.000 1727.289 1506.243 1912.068 C 1674.676 2013.697,1813.382 2095.951,1814.478 2094.855 C 1815.574 2093.760,1780.364 1937.142,1736.235 1746.815 C 1692.106 1556.489,1656.000 1399.760,1656.000 1398.530 C 1656.000 1397.299,1777.882 1290.483,1926.849 1161.160 L 2197.697 926.027 2177.849 923.125 C 2166.932 921.528,2006.800 907.370,1822.000 891.663 C 1612.460 873.852,1484.341 861.390,1481.592 858.552 C 1479.168 856.048,1415.268 707.760,1339.592 529.023 C 1263.916 350.286,1201.100 204.042,1200.000 204.037 C 1198.900 204.031,1135.117 352.521,1058.260 534.013 M1286.101 814.013 C 1331.608 921.806,1370.002 1011.120,1371.421 1012.490 C 1372.839 1013.859,1463.100 1022.563,1572.000 1031.831 C 1680.900 1041.100,1778.297 1049.879,1788.438 1051.341 L 1806.876 1054.000 1641.821 1197.120 L 1476.765 1340.239 1482.151 1363.120 C 1532.792 1578.283,1575.942 1765.341,1575.087 1766.008 C 1574.489 1766.474,1490.300 1716.106,1388.000 1654.078 L 1202.000 1541.299 1200.983 1077.966 C 1200.424 823.133,1200.730 615.397,1201.663 616.330 C 1202.596 617.263,1240.593 706.220,1286.101 814.013 " fill="#1D1E23" stroke="none" fill-rule="evenodd"/></svg>