<svg viewBox="0 0 2400 2400" fill="none" xmlns="http://www.w3.org/2000/svg"><path d="M1171.056 363.745 C 1152.057 369.878,1133.468 383.447,1122.783 398.983 C 1111.117 415.942,1094.421 452.396,1016.057 632.000 C 918.763 854.989,916.876 858.878,904.728 861.387 C 894.428 863.514,826.379 870.512,566.301 896.191 C 398.471 912.761,398.678 912.718,375.365 936.652 C 354.242 958.338,348.056 974.528,348.022 1008.217 C 347.982 1048.783,351.969 1053.060,561.669 1237.433 C 631.888 1299.170,700.931 1360.772,715.100 1374.328 C 739.340 1397.518,740.699 1399.771,738.117 1412.487 C 736.608 1419.919,719.198 1498.900,699.427 1588.000 C 632.078 1891.528,629.958 1904.476,643.331 1930.689 C 659.627 1962.631,705.050 1992.115,737.726 1991.961 C 755.844 1991.875,794.956 1970.030,1046.645 1819.422 L 1199.291 1728.081 1368.645 1829.475 C 1644.951 1994.901,1646.058 1995.461,1682.106 1987.978 C 1711.047 1981.970,1737.075 1964.416,1750.167 1942.075 C 1770.853 1906.779,1772.318 1917.419,1703.884 1606.000 C 1682.129 1507.000,1663.187 1418.736,1661.791 1409.857 L 1659.252 1393.715 1798.626 1271.863 C 1875.282 1204.845,1963.477 1124.810,1994.615 1094.006 C 2045.409 1043.759,2051.512 1036.252,2053.967 1021.000 C 2059.797 984.778,2042.935 945.997,2012.639 925.948 C 1990.663 911.405,1960.349 906.862,1759.114 887.948 C 1574.015 870.550,1483.735 861.188,1482.083 859.220 C 1481.519 858.549,1459.008 806.700,1432.058 744.000 C 1330.438 507.577,1288.302 415.169,1270.867 390.496 C 1266.395 384.168,1255.089 375.608,1245.741 371.473 C 1225.938 362.714,1186.799 358.664,1171.056 363.745 M1273.287 786.068 C 1351.398 966.379,1369.483 1005.973,1375.408 1009.634 C 1381.788 1013.577,1452.985 1021.739,1623.488 1038.074 C 1779.337 1053.005,1796.000 1055.112,1796.000 1059.896 C 1796.000 1061.489,1768.550 1086.754,1735.000 1116.041 C 1592.292 1240.617,1484.382 1337.234,1482.512 1342.108 C 1479.889 1348.944,1489.003 1393.214,1531.899 1582.000 C 1574.667 1770.218,1573.687 1765.490,1569.428 1762.983 C 1567.542 1761.874,1484.846 1712.196,1385.658 1652.588 L 1205.315 1544.211 1202.658 1285.446 C 1198.250 856.319,1199.545 626.211,1206.328 632.995 C 1206.956 633.622,1237.087 702.505,1273.287 786.068 " fill="#1D1E23" stroke="none" fill-rule="evenodd"/></svg>