<svg viewBox="0 0 2400 2400" fill="none" xmlns="http://www.w3.org/2000/svg"><path d="M1058.260 534.013 C 981.402 715.506,916.602 864.003,914.260 864.006 C 899.924 864.026,206.472 924.194,205.132 925.534 C 204.226 926.441,325.001 1032.216,473.522 1160.591 C 622.042 1288.966,743.658 1396.499,743.779 1399.554 C 743.901 1402.609,707.896 1559.855,663.769 1748.990 C 619.642 1938.125,584.433 2093.766,585.526 2094.860 C 586.620 2095.953,725.324 2013.697,893.757 1912.068 L 1200.000 1727.289 1506.243 1912.068 C 1674.676 2013.697,1813.380 2095.953,1814.474 2094.860 C 1815.567 2093.766,1780.358 1938.125,1736.231 1748.990 C 1692.104 1559.855,1656.099 1402.609,1656.219 1399.554 C 1656.340 1396.499,1777.950 1288.960,1926.463 1160.577 C 2074.977 1032.195,2195.759 926.425,2194.867 925.533 C 2193.548 924.214,1500.075 864.051,1485.740 864.012 C 1483.398 864.005,1418.598 715.506,1341.740 534.013 C 1264.883 352.521,1201.100 204.027,1200.000 204.027 C 1198.900 204.027,1135.117 352.521,1058.260 534.013 " fill="#1D1E23" stroke="none" fill-rule="evenodd"/></svg>