<svg viewBox="0 0 2400 2400" fill="none" xmlns="http://www.w3.org/2000/svg"><path d="M1058.260 534.013 C 981.402 715.506,916.602 864.003,914.260 864.006 C 899.924 864.026,206.472 924.194,205.132 925.534 C 204.226 926.441,325.001 1032.216,473.522 1160.591 C 622.042 1288.966,743.658 1396.499,743.779 1399.554 C 743.901 1402.609,707.896 1559.855,663.769 1748.990 C 619.642 1938.125,584.433 2093.766,585.526 2094.860 C 586.620 2095.953,725.324 2013.697,893.757 1912.068 L 1200.000 1727.289 1506.243 1912.068 C 1674.676 2013.697,1813.382 2095.951,1814.478 2094.855 C 1815.574 2093.760,1780.364 1937.142,1736.235 1746.815 C 1692.106 1556.489,1656.000 1399.760,1656.000 1398.530 C 1656.000 1397.299,1777.882 1290.483,1926.849 1161.160 L 2197.697 926.027 2177.849 923.125 C 2166.932 921.528,2006.800 907.370,1822.000 891.663 C 1612.460 873.852,1484.341 861.390,1481.592 858.552 C 1479.168 856.048,1415.268 707.760,1339.592 529.023 C 1263.916 350.286,1201.100 204.042,1200.000 204.037 C 1198.900 204.031,1135.117 352.521,1058.260 534.013 M1285.687 813.000 C 1331.415 921.350,1369.992 1011.120,1371.414 1012.490 C 1372.836 1013.859,1463.100 1022.563,1572.000 1031.831 C 1680.900 1041.100,1778.297 1049.879,1788.438 1051.341 L 1806.876 1054.000 1641.821 1197.120 L 1476.765 1340.239 1482.151 1363.120 C 1532.793 1578.288,1575.942 1765.341,1575.087 1766.008 C 1574.489 1766.475,1489.871 1715.846,1387.046 1653.499 L 1200.091 1540.141 1013.835 1652.527 C 911.395 1714.339,827.018 1764.257,826.331 1763.456 C 825.645 1762.655,847.420 1666.635,874.720 1550.077 C 915.745 1374.918,923.402 1337.446,918.853 1334.077 C 915.826 1331.835,841.789 1267.900,754.326 1192.000 C 602.847 1060.547,595.842 1053.864,606.652 1051.141 C 612.893 1049.569,707.100 1040.924,816.000 1031.930 C 924.900 1022.936,1017.717 1014.822,1022.260 1013.898 C 1028.981 1012.532,1046.089 975.296,1114.055 814.109 C 1159.999 705.149,1198.704 616.000,1200.067 616.000 C 1201.430 616.000,1239.959 704.650,1285.687 813.000 " fill="#1D1E23" stroke="none" fill-rule="evenodd"/></svg>