<svg viewBox="0 0 2400 2400" fill="none" xmlns="http://www.w3.org/2000/svg"><path d="M1178.870 360.630 C 1142.274 368.609,1121.654 389.649,1098.546 442.593 C 1061.741 526.917,926.687 838.987,922.661 849.010 C 920.229 855.065,915.485 860.846,912.119 861.856 C 905.874 863.729,819.099 871.967,616.000 889.969 C 473.133 902.632,410.310 910.600,396.327 917.831 C 380.258 926.140,357.732 952.704,351.681 970.477 C 344.602 991.271,345.267 1027.208,353.006 1042.000 C 360.550 1056.422,416.955 1111.623,480.000 1166.283 C 505.300 1188.218,574.348 1248.427,633.439 1300.080 L 740.878 1393.994 738.684 1412.524 C 737.477 1422.715,718.218 1510.917,695.886 1608.527 C 626.939 1909.894,627.050 1909.117,648.288 1941.180 C 664.500 1965.655,688.216 1982.579,714.566 1988.476 C 752.116 1996.880,741.478 2002.197,1016.651 1837.471 L 1199.303 1728.130 1390.651 1842.708 C 1495.893 1905.726,1597.295 1965.307,1615.989 1975.109 C 1647.603 1991.687,1651.585 1992.786,1672.990 1990.845 C 1712.860 1987.230,1750.946 1957.285,1760.554 1922.000 C 1762.950 1913.200,1763.896 1894.988,1762.655 1881.530 C 1761.415 1868.071,1738.609 1761.281,1711.975 1644.218 C 1685.341 1527.154,1662.547 1422.917,1661.323 1412.579 L 1659.097 1393.783 1826.548 1247.387 C 2013.402 1084.028,2044.994 1053.482,2051.564 1029.817 C 2063.343 987.390,2046.251 943.011,2010.000 921.901 C 1987.291 908.676,1969.506 906.258,1746.000 886.013 C 1557.776 868.963,1484.021 861.432,1481.759 859.033 C 1481.223 858.465,1444.445 773.400,1400.029 670.000 C 1355.613 566.600,1308.186 459.500,1294.636 432.000 C 1270.201 382.407,1269.821 381.913,1248.000 371.356 C 1223.014 359.268,1200.875 355.833,1178.870 360.630 M1288.000 819.472 C 1352.193 969.869,1371.737 1012.014,1378.000 1013.549 C 1382.400 1014.627,1478.700 1023.949,1592.000 1034.263 C 1705.300 1044.577,1799.226 1054.137,1800.724 1055.508 C 1802.221 1056.878,1789.637 1069.700,1772.759 1084.000 C 1720.253 1128.485,1535.429 1290.001,1506.032 1317.089 L 1478.065 1342.861 1484.862 1374.430 C 1488.601 1391.794,1509.718 1483.400,1531.789 1578.000 C 1553.860 1672.600,1571.936 1753.297,1571.959 1757.326 C 1571.998 1764.342,1571.449 1764.324,1559.000 1756.911 C 1551.850 1752.653,1469.344 1702.989,1375.653 1646.546 L 1205.306 1543.922 1202.657 1342.961 C 1199.078 1071.354,1199.292 623.076,1203.000 625.442 C 1204.650 626.495,1242.900 713.808,1288.000 819.472 " fill="#1D1E23" stroke="none" fill-rule="evenodd"/></svg>