<svg viewBox="0 0 2400 2400" fill="none" xmlns="http://www.w3.org/2000/svg"><path d="M1166.363 366.050 C 1136.121 377.600,1124.992 389.985,1102.335 437.304 C 1090.565 461.887,1044.489 567.500,999.945 672.000 C 955.401 776.500,918.734 862.306,918.464 862.681 C 918.193 863.055,833.378 870.840,729.986 879.979 C 445.721 905.108,414.973 909.011,392.684 922.791 C 382.544 929.060,368.821 941.910,362.189 951.347 C 351.941 965.928,349.904 972.986,348.623 998.356 C 347.723 1016.172,349.073 1032.935,351.972 1039.933 C 358.930 1056.732,405.260 1099.985,583.000 1255.621 C 697.689 1356.047,740.000 1395.397,740.000 1401.634 C 740.000 1406.330,724.623 1478.533,705.830 1562.086 C 631.560 1892.276,629.626 1903.359,641.801 1929.015 C 656.979 1961.001,692.423 1986.532,727.403 1990.675 C 744.528 1992.703,750.102 1990.914,788.129 1971.179 C 811.158 1959.229,913.102 1899.648,1014.670 1838.779 L 1199.341 1728.107 1380.670 1836.802 C 1583.985 1958.674,1645.138 1992.000,1665.460 1992.000 C 1711.607 1992.000,1756.147 1953.224,1762.400 1907.606 C 1765.651 1883.887,1759.959 1855.126,1703.506 1610.000 L 1655.602 1402.000 1675.184 1383.824 C 1685.953 1373.828,1744.993 1321.441,1806.382 1267.410 C 1950.186 1140.842,2022.598 1073.927,2038.930 1052.514 C 2050.570 1037.253,2052.000 1032.553,2052.000 1009.561 C 2052.000 968.205,2034.027 935.487,2003.109 920.558 C 1981.342 910.048,1938.586 904.890,1684.350 882.105 C 1573.442 872.165,1482.349 863.575,1481.920 863.016 C 1481.491 862.457,1447.358 782.800,1406.067 686.000 C 1327.895 502.734,1286.919 412.952,1271.692 391.567 C 1254.212 367.019,1198.907 353.621,1166.363 366.050 " fill="#1D1E23" stroke="none" fill-rule="evenodd"/></svg>