<svg viewBox="0 0 2400 2400" fill="none" xmlns="http://www.w3.org/2000/svg"><path d="M1185.628 238.253 C 1174.581 263.020,936.878 812.097,923.138 844.584 C 913.661 866.993,951.650 861.264,622.000 889.998 C 192.451 927.439,212.703 925.165,220.809 935.049 C 230.015 946.273,629.982 1300.551,723.143 1380.000 L 744.250 1398.000 683.885 1660.000 C 610.142 1980.067,587.054 2084.388,589.435 2086.768 C 590.437 2087.770,597.274 2085.523,604.628 2081.774 C 627.064 2070.337,836.085 1946.863,1022.999 1834.631 L 1199.998 1728.353 1386.999 1840.601 C 1699.465 2028.159,1806.748 2090.586,1810.376 2086.958 C 1812.749 2084.584,1799.193 2022.336,1736.559 1748.000 C 1685.738 1525.411,1660.000 1408.136,1660.000 1399.166 C 1660.000 1396.163,1677.550 1378.506,1699.000 1359.930 C 1790.742 1280.478,2147.882 967.596,2168.000 949.051 C 2180.100 937.897,2189.100 927.869,2188.000 926.766 C 2186.900 925.662,2161.700 922.684,2132.000 920.147 C 1975.252 906.757,1504.318 863.604,1493.850 861.672 C 1481.988 859.482,1479.628 854.584,1394.126 654.714 C 1272.095 369.456,1209.506 227.792,1202.338 220.624 C 1196.848 215.133,1195.134 216.941,1185.628 238.253 M1218.189 662.190 C 1227.938 683.195,1258.613 752.851,1286.357 816.982 C 1348.801 961.329,1364.710 995.617,1374.394 1006.727 C 1381.552 1014.940,1393.509 1016.541,1577.398 1033.907 C 1778.739 1052.920,1796.000 1054.972,1796.000 1059.896 C 1796.000 1061.489,1768.550 1086.754,1735.000 1116.041 C 1589.118 1243.387,1484.362 1337.287,1482.363 1342.497 C 1479.672 1349.510,1486.333 1381.758,1531.837 1582.000 C 1551.834 1670.000,1569.086 1746.050,1570.174 1751.000 C 1571.262 1755.950,1571.123 1760.000,1569.865 1760.000 C 1565.773 1760.000,1484.798 1712.613,1343.388 1627.464 C 1267.151 1581.559,1202.673 1544.000,1200.103 1544.000 C 1197.534 1544.000,1131.209 1582.445,1052.716 1629.434 C 907.665 1716.266,851.940 1748.517,838.546 1753.387 C 829.060 1756.836,826.496 1770.793,878.410 1536.416 C 901.506 1432.144,919.863 1343.849,919.202 1340.204 C 918.541 1336.559,873.900 1295.090,820.000 1248.052 C 682.686 1128.219,607.689 1059.740,609.880 1056.194 C 612.076 1052.642,612.414 1052.605,812.000 1034.041 C 989.125 1017.567,1015.139 1014.019,1025.131 1004.976 C 1034.847 996.183,1049.084 965.559,1123.819 792.693 C 1196.625 624.288,1196.753 624.000,1198.874 624.000 C 1199.749 624.000,1208.440 641.186,1218.189 662.190 " fill="#1D1E23" stroke="none" fill-rule="evenodd"/></svg>