<svg viewBox="0 0 2400 2400" fill="none" xmlns="http://www.w3.org/2000/svg"><path d="M1171.974 363.737 C 1155.455 368.762,1138.528 378.662,1129.429 388.620 C 1115.680 403.668,1098.115 442.001,1005.997 658.000 C 958.147 770.200,918.768 862.304,918.489 862.677 C 918.209 863.049,833.385 870.710,729.990 879.703 C 509.668 898.864,431.751 906.851,410.637 912.438 C 389.631 917.997,362.044 944.388,353.273 967.316 C 344.438 990.412,344.495 1025.691,353.395 1042.861 C 363.343 1062.052,390.153 1086.964,573.448 1247.339 L 740.895 1393.849 738.692 1412.451 C 737.480 1422.683,718.218 1510.917,695.886 1608.527 C 626.939 1909.894,627.050 1909.117,648.288 1941.180 C 664.500 1965.655,688.216 1982.579,714.566 1988.476 C 752.116 1996.880,741.478 2002.197,1016.651 1837.471 L 1199.303 1728.130 1390.651 1842.708 C 1619.778 1979.907,1642.150 1992.063,1665.098 1991.824 C 1714.376 1991.313,1757.947 1953.496,1762.737 1907.079 C 1765.514 1880.175,1763.788 1871.517,1703.520 1610.000 L 1655.585 1402.000 1676.944 1382.000 C 1688.692 1371.000,1756.735 1310.814,1828.152 1248.254 C 1969.539 1124.399,2037.172 1060.671,2047.042 1042.000 C 2056.610 1023.900,2055.224 986.099,2044.141 962.891 C 2032.133 937.743,2008.196 917.563,1984.295 912.437 C 1958.440 906.892,1877.523 898.701,1664.419 880.057 C 1564.550 871.320,1482.422 863.683,1481.913 863.086 C 1481.404 862.489,1444.573 776.500,1400.066 672.000 C 1303.409 445.057,1280.601 396.869,1262.199 380.712 C 1242.670 363.564,1199.341 355.413,1171.974 363.737 " fill="#1D1E23" stroke="none" fill-rule="evenodd"/></svg>