<svg viewBox="0 0 2400 2400" fill="none" xmlns="http://www.w3.org/2000/svg"><path d="M1192.130 223.756 C 1189.704 228.290,1133.980 356.649,1068.298 508.999 C 1002.616 661.350,941.260 803.342,931.950 824.539 L 915.024 863.077 892.512 865.530 C 880.130 866.879,735.900 879.722,572.000 894.069 C 206.556 926.060,215.966 925.113,214.931 930.000 C 214.294 933.005,630.240 1301.111,729.186 1385.108 L 744.372 1398.000 683.994 1660.000 C 630.381 1892.645,598.046 2035.418,590.005 2075.000 C 588.553 2082.150,589.017 2088.000,591.036 2088.000 C 597.247 2088.000,711.500 2021.201,960.969 1871.714 L 1199.939 1728.519 1458.969 1883.607 C 1735.604 2049.235,1806.883 2090.451,1810.474 2086.860 C 1813.115 2084.219,1806.288 2053.137,1729.780 1719.491 C 1698.186 1581.712,1669.277 1452.263,1665.538 1431.827 L 1658.740 1394.671 1668.404 1386.335 C 1798.457 1274.160,2169.727 948.986,2179.785 938.446 C 2191.482 926.187,2192.391 924.000,2185.785 923.997 C 2168.405 923.992,1519.412 865.465,1495.702 861.765 L 1481.403 859.534 1370.681 600.767 C 1238.336 291.468,1206.107 218.702,1200.652 216.884 C 1198.391 216.130,1194.557 219.223,1192.130 223.756 M1290.755 826.000 C 1357.381 980.384,1368.416 1004.113,1376.688 1010.790 C 1379.610 1013.149,1463.000 1022.629,1562.000 1031.857 C 1754.989 1049.846,1795.541 1054.208,1798.647 1057.314 C 1799.735 1058.402,1775.036 1081.502,1743.760 1108.646 C 1606.584 1227.701,1486.354 1334.529,1482.492 1340.792 C 1479.321 1345.933,1489.225 1395.048,1523.222 1542.792 C 1574.281 1764.681,1574.558 1765.992,1569.624 1763.172 C 1567.631 1762.032,1484.845 1712.280,1385.656 1652.611 L 1205.312 1544.124 1202.660 1313.062 C 1199.278 1018.464,1199.310 666.710,1202.721 646.056 L 1205.353 630.111 1216.982 656.056 C 1223.377 670.325,1256.575 746.800,1290.755 826.000 " fill="#1D1E23" stroke="none" fill-rule="evenodd"/></svg>