<svg viewBox="0 0 2400 2400" fill="none" xmlns="http://www.w3.org/2000/svg"><path d="M1164.956 365.339 C 1143.403 373.156,1126.386 389.615,1112.037 416.523 C 1104.564 430.535,1058.388 534.546,1009.423 647.659 C 960.459 760.771,918.057 855.610,915.198 858.413 C 911.695 861.847,844.152 869.524,708.000 881.962 C 494.873 901.433,422.149 909.582,401.264 916.331 C 386.379 921.141,361.646 947.083,353.611 966.313 C 350.525 973.700,348.000 992.131,348.000 1007.271 C 348.000 1050.695,348.276 1050.986,591.000 1263.108 C 698.616 1357.157,740.000 1395.663,740.000 1401.747 C 740.000 1406.381,724.623 1478.533,705.830 1562.086 C 631.560 1892.276,629.626 1903.359,641.801 1929.015 C 656.979 1961.001,692.423 1986.532,727.403 1990.675 C 744.528 1992.703,750.102 1990.914,788.129 1971.179 C 811.158 1959.229,913.092 1899.654,1014.649 1838.792 L 1199.299 1728.132 1378.649 1835.364 C 1640.026 1991.637,1637.029 1990.026,1666.000 1989.876 C 1719.011 1989.601,1764.000 1946.631,1764.000 1896.276 C 1764.000 1882.040,1739.806 1766.601,1694.106 1562.789 C 1677.432 1488.423,1662.747 1419.976,1661.474 1410.685 L 1659.158 1393.793 1814.435 1257.896 C 1999.725 1095.732,2045.494 1051.680,2051.623 1029.602 C 2061.741 993.161,2052.036 959.966,2023.855 934.629 C 1995.318 908.972,1998.675 909.535,1722.000 884.028 C 1552.843 868.434,1483.706 861.237,1481.873 859.033 C 1481.401 858.465,1456.233 800.400,1425.944 730.000 C 1315.918 474.273,1279.768 396.199,1265.375 383.220 C 1242.540 362.628,1195.517 354.256,1164.956 365.339 M1290.755 826.000 C 1357.381 980.384,1368.416 1004.113,1376.688 1010.790 C 1379.610 1013.149,1463.000 1022.629,1562.000 1031.857 C 1754.989 1049.846,1795.541 1054.208,1798.647 1057.314 C 1799.735 1058.402,1775.036 1081.502,1743.760 1108.646 C 1606.584 1227.701,1486.354 1334.529,1482.492 1340.792 C 1479.321 1345.933,1489.225 1395.048,1523.222 1542.792 C 1574.281 1764.681,1574.558 1765.992,1569.624 1763.172 C 1567.631 1762.032,1484.845 1712.280,1385.656 1652.611 L 1205.312 1544.124 1202.660 1313.062 C 1199.278 1018.464,1199.310 666.710,1202.721 646.056 L 1205.353 630.111 1216.982 656.056 C 1223.377 670.325,1256.575 746.800,1290.755 826.000 " fill="#1D1E23" stroke="none" fill-rule="evenodd"/></svg>