<svg viewBox="0 0 2400 2400" fill="none" xmlns="http://www.w3.org/2000/svg"><path d="M1185.628 238.253 C 1174.581 263.020,936.878 812.097,923.138 844.584 C 913.661 866.993,951.650 861.264,622.000 889.998 C 192.451 927.439,212.703 925.165,220.809 935.049 C 230.015 946.273,629.982 1300.551,723.143 1380.000 L 744.250 1398.000 683.885 1660.000 C 610.142 1980.067,587.054 2084.388,589.435 2086.768 C 590.437 2087.770,597.274 2085.523,604.628 2081.774 C 627.064 2070.337,836.085 1946.863,1022.999 1834.631 L 1199.998 1728.353 1386.999 1840.601 C 1699.465 2028.159,1806.748 2090.586,1810.376 2086.958 C 1812.749 2084.584,1799.193 2022.336,1736.559 1748.000 C 1685.738 1525.411,1660.000 1408.136,1660.000 1399.166 C 1660.000 1396.163,1677.550 1378.506,1699.000 1359.930 C 1790.742 1280.478,2147.882 967.596,2168.000 949.051 C 2180.100 937.897,2189.100 927.869,2188.000 926.766 C 2186.900 925.662,2161.700 922.684,2132.000 920.147 C 1975.252 906.757,1504.318 863.604,1493.850 861.672 C 1481.988 859.482,1479.628 854.584,1394.126 654.714 C 1272.095 369.456,1209.506 227.792,1202.338 220.624 C 1196.848 215.133,1195.134 216.941,1185.628 238.253 M1273.287 786.068 C 1351.398 966.379,1369.483 1005.973,1375.408 1009.634 C 1381.788 1013.577,1452.985 1021.739,1623.488 1038.074 C 1779.337 1053.005,1796.000 1055.112,1796.000 1059.896 C 1796.000 1061.489,1768.550 1086.754,1735.000 1116.041 C 1592.292 1240.617,1484.382 1337.234,1482.512 1342.108 C 1479.889 1348.944,1489.003 1393.214,1531.899 1582.000 C 1574.667 1770.218,1573.687 1765.490,1569.428 1762.983 C 1567.542 1761.874,1484.846 1712.196,1385.658 1652.588 L 1205.315 1544.211 1202.658 1285.446 C 1198.250 856.319,1199.545 626.211,1206.328 632.995 C 1206.956 633.622,1237.087 702.505,1273.287 786.068 " fill="#1D1E23" stroke="none" fill-rule="evenodd"/></svg>