<svg viewBox="0 0 2400 2400" fill="none" xmlns="http://www.w3.org/2000/svg"><path d="M1174.357 364.585 C 1151.017 369.892,1134.096 382.025,1120.618 403.114 C 1106.576 425.085,1069.693 507.782,981.961 714.000 C 947.331 795.400,918.773 862.283,918.498 862.628 C 918.224 862.974,826.200 871.545,714.000 881.674 C 481.643 902.652,424.631 909.589,402.000 919.639 C 381.120 928.911,356.859 954.272,351.944 971.964 C 345.979 993.435,347.254 1027.218,354.614 1042.729 C 362.224 1058.765,412.074 1105.380,571.993 1246.000 C 634.541 1301.000,698.127 1357.911,713.293 1372.468 C 739.370 1397.497,740.720 1399.671,738.121 1412.468 C 736.610 1419.911,719.198 1498.900,699.427 1588.000 C 632.078 1891.528,629.958 1904.476,643.331 1930.689 C 659.627 1962.631,705.050 1992.115,737.726 1991.961 C 755.844 1991.875,794.956 1970.030,1046.645 1819.422 L 1199.291 1728.081 1368.645 1829.411 C 1615.638 1977.193,1650.268 1995.275,1677.759 1990.814 C 1722.480 1983.557,1764.106 1937.913,1763.965 1896.287 C 1763.908 1879.471,1742.677 1779.591,1697.826 1585.144 L 1655.582 1402.000 1674.791 1384.408 C 1685.356 1374.732,1739.000 1327.054,1794.000 1278.457 C 1936.204 1152.807,2021.343 1074.506,2036.310 1055.609 C 2051.508 1036.419,2055.622 1010.782,2048.266 981.098 C 2041.037 951.926,2027.399 934.224,2003.204 922.609 C 1977.408 910.225,1951.164 906.921,1680.193 881.949 C 1571.399 871.922,1482.173 863.332,1481.913 862.859 C 1481.654 862.387,1450.203 789.100,1412.024 700.000 C 1336.257 523.185,1293.695 428.421,1278.079 401.773 C 1261.309 373.158,1212.932 355.812,1174.357 364.585 " fill="#1D1E23" stroke="none" fill-rule="evenodd"/></svg>