<svg viewBox="0 0 2400 2400" fill="none" xmlns="http://www.w3.org/2000/svg"><path d="M1184.259 241.000 C 1177.147 256.950,1122.195 384.300,1062.143 524.000 C 957.222 768.083,917.073 860.260,914.608 862.725 C 913.974 863.359,779.478 875.564,615.728 889.847 C 202.684 925.876,214.313 924.792,211.217 927.535 C 209.687 928.891,237.526 955.200,273.083 986.000 C 308.639 1016.800,423.968 1117.600,529.370 1210.000 C 634.772 1302.400,726.255 1382.513,732.666 1388.029 L 744.322 1398.057 668.468 1728.029 C 581.699 2105.482,585.411 2088.000,592.029 2088.000 C 598.041 2088.000,724.313 2013.860,994.931 1851.439 L 1199.862 1728.441 1504.069 1910.749 C 1671.383 2011.019,1809.412 2091.921,1810.800 2090.533 C 1813.898 2087.436,1811.937 2078.518,1725.450 1702.381 C 1678.080 1496.368,1656.947 1397.453,1659.710 1394.690 C 1661.950 1392.450,1781.172 1287.879,1924.647 1162.309 C 2068.122 1036.739,2186.117 932.064,2186.857 929.697 C 2187.722 926.930,2169.240 923.694,2135.101 920.633 C 2105.895 918.014,1948.022 904.173,1784.272 889.874 C 1620.522 875.576,1486.052 863.386,1485.452 862.785 C 1482.829 860.162,1436.109 753.006,1335.999 520.000 C 1207.158 220.126,1203.570 212.000,1200.000 212.000 C 1198.455 212.000,1191.372 225.050,1184.259 241.000 " fill="#1D1E23" stroke="none" fill-rule="evenodd"/></svg>