<svg viewBox="0 0 2400 2400" fill="none" xmlns="http://www.w3.org/2000/svg"><path d="M1085.891 469.000 C 983.517 709.004,918.269 859.064,914.764 862.570 C 913.990 863.343,839.702 870.261,749.679 877.941 C 406.807 907.196,209.934 924.880,208.156 926.585 C 207.142 927.558,211.056 932.324,216.853 937.177 C 229.721 947.949,456.853 1145.794,593.796 1265.516 C 648.854 1313.650,705.204 1363.391,719.020 1376.050 L 744.140 1399.068 716.336 1520.534 C 701.044 1587.340,668.759 1727.500,644.591 1832.000 C 590.790 2064.633,585.947 2087.281,589.290 2090.623 C 590.746 2092.079,728.751 2011.043,895.968 1910.544 L 1200.000 1727.817 1504.032 1910.544 C 1671.249 2011.043,1809.281 2092.052,1810.770 2090.563 C 1814.235 2087.098,1805.728 2048.248,1723.493 1692.000 L 1655.627 1398.000 1664.813 1389.979 C 1669.866 1385.568,1730.700 1332.419,1800.000 1271.871 C 1869.300 1211.323,1987.123 1108.733,2061.828 1043.892 L 2197.656 926.000 2173.828 923.139 C 2160.723 921.566,2033.900 910.249,1892.000 897.991 C 1640.548 876.269,1484.119 861.453,1481.804 859.138 C 1480.113 857.447,1401.859 675.378,1296.068 427.000 C 1244.765 306.550,1201.537 208.000,1200.006 208.000 C 1198.475 208.000,1147.123 325.450,1085.891 469.000 M1286.182 815.000 C 1331.890 922.250,1369.755 1010.607,1370.326 1011.348 C 1372.311 1013.929,1431.178 1019.881,1615.960 1036.181 C 1718.238 1045.204,1802.785 1053.452,1803.844 1054.511 C 1804.902 1055.569,1803.891 1057.687,1801.597 1059.217 C 1799.303 1060.748,1725.060 1124.790,1636.612 1201.533 C 1520.749 1302.065,1476.373 1342.874,1477.851 1347.533 C 1480.204 1354.953,1550.680 1656.359,1565.176 1721.000 C 1570.480 1744.650,1573.598 1764.000,1572.105 1764.000 C 1570.613 1764.000,1486.299 1713.705,1384.740 1652.233 L 1200.089 1540.465 1017.577 1650.233 C 917.196 1710.605,833.476 1760.000,831.533 1760.000 C 829.590 1760.000,828.000 1758.240,828.000 1756.088 C 828.000 1753.936,845.861 1675.186,867.692 1581.088 C 908.372 1405.740,922.854 1337.237,919.758 1334.797 C 907.016 1324.756,642.075 1094.127,625.142 1078.336 C 612.414 1066.466,603.271 1055.464,604.825 1053.886 C 608.277 1050.380,633.157 1047.901,844.000 1030.053 C 935.300 1022.324,1013.760 1015.139,1018.356 1014.086 C 1027.539 1011.981,1044.795 977.713,1087.890 876.000 C 1168.096 686.696,1197.310 620.000,1200.022 620.000 C 1201.701 620.000,1240.473 707.750,1286.182 815.000 " fill="#1D1E23" stroke="none" fill-rule="evenodd"/></svg>