<svg viewBox="0 0 2400 2400" fill="none" xmlns="http://www.w3.org/2000/svg"><path d="M648.000 708.078 C 595.963 710.900,585.682 712.734,548.000 725.924 C 465.926 754.651,399.489 796.898,340.734 857.724 C 283.767 916.700,251.313 971.678,220.198 1061.914 L 204.000 1108.889 204.000 1200.000 L 204.000 1291.111 220.350 1338.555 C 251.688 1429.493,289.344 1492.575,346.165 1549.323 C 409.940 1613.015,469.207 1647.867,569.373 1680.578 L 628.847 1700.000 1198.191 1700.000 L 1767.535 1700.000 1814.768 1685.746 C 1926.111 1652.146,1976.006 1623.921,2044.126 1556.000 C 2096.335 1503.945,2120.746 1471.221,2147.309 1417.685 C 2182.524 1346.712,2197.395 1281.196,2197.175 1198.000 C 2196.882 1086.927,2165.297 991.674,2099.860 904.520 C 2026.898 807.345,1916.054 736.558,1800.000 713.025 C 1774.200 707.794,1695.518 706.802,1238.000 705.937 C 945.400 705.385,679.900 706.348,648.000 708.078 M1738.825 907.839 C 1773.693 910.724,1789.881 914.166,1811.698 923.332 C 1902.616 961.532,1977.796 1055.127,1992.336 1148.215 C 1997.801 1183.203,1994.628 1248.229,1985.803 1282.111 C 1966.561 1355.986,1899.426 1435.125,1826.806 1469.536 C 1783.484 1490.064,1749.416 1497.272,1696.000 1497.212 C 1655.590 1497.167,1645.489 1495.678,1612.879 1484.964 C 1531.091 1458.093,1471.251 1405.600,1430.455 1324.939 C 1411.787 1288.028,1406.313 1259.361,1406.598 1200.000 C 1406.906 1135.862,1412.802 1109.129,1436.913 1062.547 C 1457.243 1023.268,1512.741 964.808,1550.000 943.423 C 1613.053 907.233,1649.191 900.423,1738.825 907.839 " fill="#1D1E23" stroke="none" fill-rule="evenodd"/></svg>