<svg viewBox="0 0 2400 2400" fill="none" xmlns="http://www.w3.org/2000/svg"><path d="M602.000 712.123 C 554.909 718.493,473.500 754.105,416.036 793.472 C 375.863 820.994,314.243 882.743,288.122 921.655 C 262.350 960.047,237.507 1011.911,218.317 1067.387 L 204.000 1108.774 204.000 1200.000 L 204.000 1291.226 218.317 1332.613 C 249.920 1423.972,283.945 1482.513,339.169 1540.545 C 404.562 1609.262,465.837 1646.206,573.322 1681.721 L 628.644 1700.000 1199.898 1700.000 L 1771.153 1700.000 1831.102 1680.423 C 1936.207 1646.099,1978.969 1620.388,2049.251 1549.258 C 2096.622 1501.315,2118.650 1472.395,2141.612 1428.000 C 2180.317 1353.168,2196.000 1287.999,2196.000 1202.000 C 2196.000 1114.108,2180.782 1048.417,2143.646 976.000 C 2081.823 855.444,1969.002 762.576,1834.000 721.118 L 1798.000 710.062 1212.000 709.469 C 889.700 709.143,615.200 710.337,602.000 712.123 M769.504 912.174 C 859.401 925.730,955.617 1018.899,986.407 1122.209 C 994.985 1150.989,995.962 1233.135,988.165 1270.000 C 966.950 1370.311,873.992 1463.356,768.023 1490.347 C 728.526 1500.407,644.185 1496.543,604.941 1482.875 C 535.027 1458.526,467.936 1398.798,434.660 1331.280 C 413.040 1287.413,408.073 1261.778,408.030 1193.840 C 407.994 1136.808,413.596 1111.666,436.958 1064.000 C 473.387 989.673,566.184 920.151,644.541 908.482 C 671.375 904.486,730.010 906.218,769.504 912.174 " fill="#1D1E23" stroke="none" fill-rule="evenodd"/></svg>