<svg viewBox="0 0 2400 2400" fill="none" xmlns="http://www.w3.org/2000/svg"><path d="M812.000 703.722 C 639.743 706.225,610.360 707.545,586.000 713.870 C 462.476 745.947,353.866 821.763,286.519 922.926 C 255.884 968.944,237.347 1008.005,219.150 1064.893 L 206.000 1106.000 206.000 1200.000 L 206.000 1294.000 219.372 1336.000 C 259.969 1463.512,332.011 1557.577,441.192 1625.626 C 477.196 1648.067,521.033 1666.362,585.232 1685.742 L 632.465 1700.000 1199.585 1700.000 L 1766.706 1700.000 1812.353 1686.504 C 1933.064 1650.813,2000.065 1610.799,2069.559 1532.894 C 2165.629 1425.197,2208.778 1295.172,2196.111 1151.539 C 2181.571 986.658,2079.436 836.430,1929.083 758.776 C 1869.796 728.155,1815.304 711.890,1758.430 707.838 C 1690.920 703.028,1051.212 700.246,812.000 703.722 M1788.000 913.952 C 1888.086 944.463,1976.741 1044.527,1992.416 1144.673 C 1999.524 1190.080,1995.010 1260.139,1982.697 1295.547 C 1957.383 1368.335,1900.302 1433.458,1831.197 1468.390 C 1771.058 1498.789,1686.964 1507.018,1622.803 1488.783 C 1544.843 1466.626,1486.525 1421.296,1442.285 1348.468 C 1423.758 1317.970,1413.539 1289.371,1407.587 1251.364 C 1402.092 1216.270,1405.231 1147.210,1413.731 1116.181 C 1439.534 1021.990,1529.718 934.563,1626.266 910.145 C 1658.211 902.066,1756.608 904.382,1788.000 913.952 " fill="#1D1E23" stroke="none" fill-rule="evenodd"/></svg>