<svg viewBox="0 0 2400 2400" fill="none" xmlns="http://www.w3.org/2000/svg"><path d="M722.000 704.109 C 623.251 706.362,606.214 707.720,578.000 715.591 C 391.474 767.624,259.155 903.011,211.992 1090.086 C 204.189 1121.040,202.948 1136.220,203.009 1200.000 C 203.060 1253.985,204.811 1281.132,209.481 1300.370 C 242.400 1435.975,316.081 1543.816,425.124 1615.990 C 469.448 1645.327,520.209 1667.652,583.838 1685.793 L 633.668 1700.000 1200.000 1700.000 L 1766.332 1700.000 1814.166 1686.349 C 1921.522 1655.713,1983.946 1620.552,2052.249 1552.249 C 2122.577 1481.922,2167.491 1399.163,2190.232 1298.000 C 2200.383 1252.842,2200.421 1146.585,2190.301 1102.000 C 2146.869 910.640,2013.459 769.772,1826.000 717.332 C 1793.510 708.244,1779.275 706.934,1680.000 703.902 C 1555.266 700.092,891.765 700.235,722.000 704.109 M763.106 908.176 C 864.384 925.410,962.394 1019.496,989.846 1125.840 C 998.118 1157.884,998.118 1242.116,989.846 1274.160 C 966.730 1363.707,893.785 1446.608,810.537 1477.943 C 735.739 1506.097,664.629 1506.317,591.214 1478.624 C 505.728 1446.377,434.635 1366.501,411.738 1276.977 C 401.120 1235.459,401.120 1164.541,411.738 1123.023 C 445.317 991.733,574.510 894.916,706.000 902.507 C 725.800 903.650,751.498 906.201,763.106 908.176 " fill="#1D1E23" stroke="none" fill-rule="evenodd"/></svg>