<svg viewBox="0 0 2400 2400" fill="none" xmlns="http://www.w3.org/2000/svg"><path d="M812.000 703.722 C 639.743 706.225,610.360 707.545,586.000 713.870 C 462.476 745.947,353.866 821.763,286.519 922.926 C 255.884 968.944,237.347 1008.005,219.150 1064.893 L 206.000 1106.000 206.000 1200.000 L 206.000 1294.000 219.372 1336.000 C 259.969 1463.512,332.011 1557.577,441.192 1625.626 C 477.196 1648.067,521.033 1666.362,585.232 1685.742 L 632.465 1700.000 1199.585 1700.000 L 1766.706 1700.000 1812.353 1686.504 C 1933.064 1650.813,2000.065 1610.799,2069.559 1532.894 C 2165.629 1425.197,2208.778 1295.172,2196.111 1151.539 C 2181.571 986.658,2079.436 836.430,1929.083 758.776 C 1869.796 728.155,1815.304 711.890,1758.430 707.838 C 1690.920 703.028,1051.212 700.246,812.000 703.722 M788.000 913.952 C 888.086 944.463,976.741 1044.527,992.416 1144.673 C 999.524 1190.080,995.010 1260.139,982.697 1295.547 C 957.383 1368.335,900.302 1433.458,831.197 1468.390 C 753.350 1507.740,647.855 1508.178,570.763 1469.469 C 498.114 1432.992,444.092 1371.185,417.393 1294.000 C 407.154 1264.398,406.325 1257.354,406.325 1200.000 C 406.325 1142.518,407.136 1135.668,417.457 1106.000 C 444.163 1029.230,495.028 970.377,566.186 933.912 C 614.789 909.005,641.325 903.708,708.000 905.599 C 746.598 906.695,773.359 909.489,788.000 913.952 " fill="#1D1E23" stroke="none" fill-rule="evenodd"/></svg>