<svg viewBox="0 0 2400 2400" fill="none" xmlns="http://www.w3.org/2000/svg"><path d="M648.000 708.078 C 595.963 710.900,585.682 712.734,548.000 725.924 C 465.926 754.651,399.489 796.898,340.734 857.724 C 283.767 916.700,251.313 971.678,220.198 1061.914 L 204.000 1108.889 204.000 1200.000 L 204.000 1291.111 220.350 1338.555 C 251.688 1429.493,289.344 1492.575,346.165 1549.323 C 409.940 1613.015,469.207 1647.867,569.373 1680.578 L 628.847 1700.000 1198.191 1700.000 L 1767.535 1700.000 1814.768 1685.746 C 1926.111 1652.146,1976.006 1623.921,2044.126 1556.000 C 2096.335 1503.945,2120.746 1471.221,2147.309 1417.685 C 2182.524 1346.712,2197.395 1281.196,2197.175 1198.000 C 2196.882 1086.927,2165.297 991.674,2099.860 904.520 C 2026.898 807.345,1916.054 736.558,1800.000 713.025 C 1774.200 707.794,1695.518 706.802,1238.000 705.937 C 945.400 705.385,679.900 706.348,648.000 708.078 M734.534 907.774 C 774.246 910.662,788.219 913.467,811.407 923.210 C 902.625 961.536,977.775 1054.993,992.336 1148.215 C 997.801 1183.203,994.628 1248.229,985.803 1282.111 C 961.011 1377.295,868.615 1466.467,769.889 1490.489 C 729.825 1500.237,663.145 1499.302,622.308 1488.419 C 545.167 1467.861,472.517 1408.340,435.810 1335.623 C 411.690 1287.842,408.000 1269.846,408.000 1200.000 C 408.000 1145.698,409.277 1131.958,416.243 1111.278 C 444.276 1028.065,493.933 971.538,574.000 931.695 C 605.800 915.871,620.150 911.099,644.000 908.414 C 684.997 903.800,680.336 903.833,734.534 907.774 " fill="#1D1E23" stroke="none" fill-rule="evenodd"/></svg>