<svg viewBox="0 0 2400 2400" fill="none" xmlns="http://www.w3.org/2000/svg"><path d="M722.000 704.109 C 623.251 706.362,606.214 707.720,578.000 715.591 C 391.474 767.624,259.155 903.011,211.992 1090.086 C 204.189 1121.040,202.948 1136.220,203.009 1200.000 C 203.060 1253.985,204.811 1281.132,209.481 1300.370 C 242.400 1435.975,316.081 1543.816,425.124 1615.990 C 469.448 1645.327,520.209 1667.652,583.838 1685.793 L 633.668 1700.000 1200.000 1700.000 L 1766.332 1700.000 1814.166 1686.349 C 1921.522 1655.713,1983.946 1620.552,2052.249 1552.249 C 2122.577 1481.922,2167.491 1399.163,2190.232 1298.000 C 2200.383 1252.842,2200.421 1146.585,2190.301 1102.000 C 2146.869 910.640,2013.459 769.772,1826.000 717.332 C 1793.510 708.244,1779.275 706.934,1680.000 703.902 C 1555.266 700.092,891.765 700.235,722.000 704.109 M1763.106 908.176 C 1864.384 925.410,1962.394 1019.496,1989.846 1125.840 C 1998.118 1157.884,1998.118 1242.116,1989.846 1274.160 C 1966.730 1363.707,1893.785 1446.608,1810.537 1477.943 C 1735.739 1506.097,1664.629 1506.317,1591.214 1478.624 C 1524.058 1453.291,1465.957 1399.131,1430.292 1328.616 C 1394.612 1258.073,1394.578 1142.342,1430.216 1071.384 C 1484.394 963.512,1594.527 896.072,1706.000 902.507 C 1725.800 903.650,1751.498 906.201,1763.106 908.176 " fill="#1D1E23" stroke="none" fill-rule="evenodd"/></svg>