<svg viewBox="0 0 2400 2400" fill="none" xmlns="http://www.w3.org/2000/svg"><path d="M634.000 704.581 C 588.581 710.370,532.812 726.997,489.628 747.625 C 340.667 818.778,239.486 948.760,207.546 1110.000 C 200.249 1146.837,200.249 1253.163,207.546 1290.000 C 246.750 1487.910,388.990 1636.786,586.904 1687.054 L 630.000 1698.000 1200.000 1698.000 L 1770.000 1698.000 1813.096 1687.054 C 1912.474 1661.813,1991.414 1616.833,2058.361 1547.302 C 2124.091 1479.035,2163.117 1407.942,2186.927 1313.096 C 2196.631 1274.439,2197.745 1262.790,2197.745 1200.000 C 2197.745 1137.210,2196.631 1125.561,2186.927 1086.904 C 2161.498 985.610,2115.958 906.773,2042.648 837.136 C 1966.938 765.219,1864.359 716.940,1760.105 704.156 C 1717.916 698.983,674.831 699.376,634.000 704.581 M774.000 909.291 C 882.372 939.296,964.985 1023.554,992.362 1132.000 C 999.571 1160.559,999.571 1239.441,992.362 1268.000 C 968.730 1361.610,900.546 1441.862,815.098 1476.635 C 680.394 1531.453,527.000 1484.117,450.100 1364.000 C 414.772 1308.819,402.085 1265.483,402.085 1200.000 C 402.085 1134.490,414.792 1091.108,450.124 1036.000 C 489.952 973.878,563.333 922.491,632.178 908.510 C 644.180 906.073,657.600 903.245,662.000 902.226 C 676.697 898.823,753.745 903.683,774.000 909.291 " fill="#1D1E23" stroke="none" fill-rule="evenodd"/></svg>