<svg width="1200" height="1200" viewBox="0 0 1200 1200" fill="none" xmlns="http://www.w3.org/2000/svg"><path d="M689.475 476.135L629.435 536.19V416.025L689.475 476.135ZM629.295 783.995L689.395 723.885L629.355 663.815L629.295 783.995ZM963.28 693.78C954.52 727.755 941.015 760.32 923.165 790.52L1019.92 887.335L887.265 1019.905L790.47 923.09C760.28 940.965 727.72 954.485 693.75 963.25V1100H506.25V963.25C472.281 954.49 439.72 940.975 409.531 923.105L312.735 1019.905L180.078 887.335L276.856 790.52C259.002 760.32 245.497 727.755 236.739 693.78H100V506.24H236.816C245.573 472.26 259.079 439.686 276.933 409.481L180.078 312.721L312.656 180.115L409.453 276.913C439.661 259.022 472.25 245.499 506.25 236.748V100H693.75V236.748C727.72 245.493 760.285 259.003 790.47 276.874L887.265 180.076L1019.92 312.721L923.145 409.52C941.005 439.712 954.515 472.273 963.28 506.24H1100V693.78H963.28ZM640.51 600.01L764.785 475.686L576.56 287.443V535.545L473.047 432.005L435.41 469.65L565.33 599.95L435.41 730.235L473.047 767.895L576.56 664.36V912.46L764.765 724.195L640.51 600.01Z" fill="#1D1E23"/></svg>