<svg width="1200" height="1200" viewBox="0 0 1200 1200" fill="none" xmlns="http://www.w3.org/2000/svg"><path d="M100 912.5L287.5 1100H100V912.5ZM1081.7 217.422L982.58 118.301C970.855 106.583 954.96 100 938.39 100C921.815 100 905.92 106.583 894.2 118.301L850.275 162.227L1037.775 349.726L1081.7 305.801C1093.415 294.081 1100 278.186 1100 261.612C1100 245.038 1093.415 229.143 1081.7 217.422ZM131.25 881.25L318.75 1068.75L1006.525 380.976L819.025 193.477L131.25 881.25ZM368.301 555.8L162.5 350L350 162.5L381.25 193.75L350 225L381.25 256.25L412.5 225L443.75 256.25L381.25 318.75L412.5 350L475 287.5L506.25 318.75L475 350L506.25 381.25L537.5 350L555.82 368.32L587.07 337.07L350.019 100.019L100.019 350.019L337.07 587.07L368.301 555.8ZM831.7 644.2L849.98 662.48L818.73 693.73L849.98 724.98L881.23 693.73L912.48 724.98L849.98 787.48L881.23 818.73L943.73 756.23L974.98 787.48L943.73 818.73L974.98 849.98L1006.23 818.73L1037.48 849.98L849.98 1037.48L644.18 831.66L612.93 862.91L849.98 1099.98L1099.98 849.98L862.93 612.93L831.7 644.2Z" fill="#1D1E23"/></svg>