<svg width="1200" height="1200" viewBox="0 0 1200 1200" fill="none" xmlns="http://www.w3.org/2000/svg"><path d="M974.77 428.49V490.989H818.09L866.92 310.133L972.54 338.317C974.525 338.844 976.595 338.975 978.63 338.702C980.67 338.429 982.63 337.757 984.405 336.725C986.18 335.692 987.735 334.32 988.98 332.686C990.225 331.052 991.14 329.189 991.66 327.203L1024.005 206.463C1024.54 204.481 1024.68 202.412 1024.415 200.376C1024.15 198.34 1023.485 196.375 1022.46 194.596C1021.435 192.816 1020.07 191.257 1018.44 190.006C1016.81 188.755 1014.955 187.835 1012.97 187.303L907.345 159.004L911.39 143.925C911.92 141.942 912.055 139.875 911.79 137.84C911.52 135.805 910.855 133.842 909.83 132.065C908.8 130.287 907.435 128.73 905.805 127.48C904.18 126.232 902.32 125.316 900.335 124.785L809.81 100.528C805.81 99.46 801.545 100.025 797.96 102.098C794.375 104.171 791.76 107.583 790.69 111.583L786.625 126.66L756.45 118.574L619.58 146.582L595.32 237.127L746.2 277.79L691.12 490.989H506.965L462.728 325.953C479.22 309.45 491.078 288.897 497.112 266.359C503.145 243.822 503.14 220.092 497.102 197.557C490.266 171.995 475.949 149.058 455.989 131.686C436.029 114.315 411.334 103.301 385.072 100.059L412.65 202.909C414.924 211.406 413.734 220.458 409.339 228.078C404.945 235.699 397.707 241.264 389.213 243.553L357.144 252.127C348.644 254.38 339.599 253.18 331.981 248.789C324.363 244.399 318.791 237.174 316.48 228.69L288.922 125.801C267.801 141.758 251.923 163.655 243.319 188.689C234.714 213.722 233.775 240.755 240.622 266.326C246.638 288.864 258.485 309.421 274.97 325.925C291.454 342.431 311.996 354.303 334.526 360.347L368.178 491.028H224.998V428.529H100V1037.5C100.046 1054.065 106.646 1069.935 118.356 1081.645C130.067 1093.355 145.938 1099.955 162.499 1100H1037.265C1053.83 1099.96 1069.7 1093.36 1081.415 1081.65C1093.125 1069.94 1099.725 1054.065 1099.765 1037.5V428.529L974.77 428.49ZM674.99 553.49L646.785 662.605H553.04L523.74 553.49H674.99ZM224.959 662.605V553.49H384.233L412.338 662.605H224.959ZM717.02 880.825C717.02 885.755 716.715 890.68 716.1 895.57L749.79 933.6L720.495 984.38L670.73 974.24C662.885 980.265 654.31 985.275 645.205 989.145L629.15 1037.52H570.555L554.505 989.145C545.39 985.23 536.81 980.18 528.955 974.125L479.212 984.32L449.915 933.54L483.606 895.55C482.993 890.66 482.686 885.735 482.688 880.805C482.687 875.88 482.993 870.965 483.606 866.08L449.915 828.09L479.212 777.31L528.955 787.565C536.82 781.62 545.405 776.69 554.505 772.895L570.555 724.99H629.15L645.205 772.895C654.295 776.64 662.875 781.52 670.73 787.43L720.495 777.25L749.79 828.035L716.1 866.02C716.715 870.92 717.02 875.85 717.02 880.785V880.825ZM771.705 662.605L801.16 553.49H974.71V662.605H771.705ZM662.335 881.235C662.335 897.81 655.75 913.71 644.025 925.43C632.305 937.15 616.41 943.735 599.835 943.735C583.26 943.735 567.36 937.15 555.64 925.43C543.92 913.71 537.335 897.81 537.335 881.235C537.335 864.66 543.92 848.765 555.64 837.04C567.36 825.32 583.26 818.735 599.835 818.735C616.405 818.73 632.3 825.31 644.025 837.02C655.75 848.735 662.34 864.625 662.35 881.195L662.335 881.235Z" fill="#1D1E23"/></svg>