<svg width="1200" height="1200" viewBox="0 0 1200 1200" fill="none" xmlns="http://www.w3.org/2000/svg"><path d="M812.56 545.155C809.575 542.2 807.205 538.68 805.59 534.805C803.975 530.925 803.14 526.77 803.14 522.57C803.14 518.37 803.975 514.21 805.59 510.33C807.205 506.455 809.575 502.935 812.56 499.981C815.55 496.999 819.105 494.637 823.01 493.031C826.92 491.425 831.105 490.608 835.33 490.625C839.555 490.608 843.745 491.425 847.65 493.031C851.56 494.637 855.11 496.999 858.105 499.981L1006.25 646.875L858.105 793.77C855.11 796.75 851.56 799.11 847.65 800.72C843.745 802.325 839.555 803.14 835.33 803.125C831.105 803.14 826.92 802.325 823.01 800.72C819.105 799.11 815.55 796.75 812.56 793.77C809.575 790.815 807.205 787.295 805.59 783.42C803.975 779.545 803.145 775.39 803.145 771.19C803.145 766.99 803.975 762.835 805.59 758.96C807.205 755.085 809.575 751.57 812.56 748.615L915.155 646.875L812.56 545.155ZM364.688 803.125C368.913 803.14 373.099 802.325 377.007 800.72C380.915 799.11 384.468 796.75 387.461 793.77C390.444 790.815 392.812 787.295 394.428 783.42C396.044 779.545 396.877 775.39 396.877 771.19C396.877 766.99 396.044 762.835 394.428 758.96C392.812 755.085 390.444 751.57 387.461 748.615L284.863 646.875L387.461 545.155C390.445 542.2 392.814 538.68 394.43 534.805C396.046 530.925 396.878 526.77 396.878 522.57C396.878 518.37 396.046 514.21 394.43 510.33C392.814 506.455 390.445 502.935 387.461 499.981C384.468 496.999 380.915 494.637 377.007 493.031C373.099 491.425 368.913 490.608 364.688 490.625C360.462 490.608 356.276 491.425 352.368 493.031C348.46 494.637 344.907 496.999 341.914 499.981L193.75 646.875L341.914 793.77C344.907 796.75 348.46 799.11 352.368 800.72C356.276 802.325 360.462 803.14 364.688 803.125ZM494.883 797.165L750.31 541.755C753.28 538.79 755.635 535.27 757.24 531.39C758.84 527.515 759.66 523.355 759.65 519.16C759.66 514.965 758.84 510.81 757.24 506.935C755.635 503.06 753.28 499.543 750.31 496.582C744.32 490.598 736.195 487.238 727.725 487.238C719.255 487.238 711.13 490.598 705.135 496.582L449.726 752.01C446.746 754.965 444.383 758.485 442.774 762.36C441.164 766.235 440.341 770.39 440.351 774.59C440.343 778.785 441.167 782.94 442.776 786.82C444.386 790.695 446.748 794.21 449.726 797.165C455.717 803.15 463.838 806.51 472.305 806.51C480.771 806.51 488.892 803.15 494.883 797.165ZM1100 162.5V1037.5C1100 1054.075 1093.415 1069.975 1081.695 1081.695C1069.975 1093.415 1054.075 1100 1037.5 1100H162.5C145.924 1100 130.027 1093.415 118.306 1081.695C106.585 1069.975 100 1054.075 100 1037.5V162.5C100 145.924 106.585 130.027 118.306 118.306C130.027 106.585 145.924 100 162.5 100H1037.5C1054.075 100 1069.975 106.585 1081.695 118.306C1093.415 130.027 1100 145.924 1100 162.5ZM412.5 178.125C412.5 190.557 417.438 202.479 426.229 211.27C435.02 220.06 446.943 225 459.375 225C471.807 225 483.73 220.06 492.521 211.27C501.31 202.479 506.25 190.557 506.25 178.125C506.25 165.693 501.31 153.77 492.521 144.979C483.73 136.189 471.807 131.25 459.375 131.25C446.943 131.25 435.02 136.189 426.229 144.979C417.438 153.77 412.5 165.693 412.5 178.125ZM287.5 178.125C287.5 190.557 292.438 202.479 301.229 211.27C310.02 220.06 321.943 225 334.375 225C346.807 225 358.73 220.06 367.521 211.27C376.311 202.479 381.25 190.557 381.25 178.125C381.25 165.693 376.311 153.77 367.521 144.979C358.73 136.189 346.807 131.25 334.375 131.25C321.943 131.25 310.02 136.189 301.229 144.979C292.438 153.77 287.5 165.693 287.5 178.125ZM162.5 178.125C162.5 190.557 167.439 202.479 176.229 211.27C185.02 220.06 196.943 225 209.375 225C221.807 225 233.73 220.06 242.52 211.27C251.311 202.479 256.25 190.557 256.25 178.125C256.25 165.693 251.311 153.77 242.52 144.979C233.73 136.189 221.807 131.25 209.375 131.25C196.943 131.25 185.02 136.189 176.229 144.979C167.439 153.77 162.5 165.693 162.5 178.125ZM1037.5 256.25H162.5V1037.5H1037.5V256.25Z" fill="#1D1E23"/></svg>