<svg width="1200" height="1200" viewBox="0 0 1200 1200" fill="none" xmlns="http://www.w3.org/2000/svg"><path d="M881.22 443.75C902.415 443.718 923.395 448.013 942.87 456.372C962.35 464.731 979.915 476.978 994.495 492.363C1008.1 506.645 1024.46 518.005 1042.59 525.765C1060.72 533.525 1080.24 537.515 1099.96 537.5V100H100V537.5H103.789C122.809 537.375 141.602 533.35 159.008 525.68C176.414 518.015 192.065 506.86 204.996 492.91C226.43 470.135 254.204 454.317 284.727 447.501C315.25 440.686 347.115 443.186 376.2 454.681C405.286 466.176 430.252 486.135 447.87 511.975C465.487 537.815 474.945 568.35 475.019 599.625C475.093 630.9 465.78 661.48 448.285 687.405C430.79 713.325 405.918 733.405 376.887 745.035C347.857 756.67 316.004 759.32 285.449 752.65C254.894 745.98 227.045 730.29 205.504 707.615C191.903 693.34 175.539 681.975 157.409 674.22C139.278 666.465 119.759 662.475 100.039 662.5V1100H1100V662.5H1096.21C1077.19 662.625 1058.4 666.64 1040.995 674.305C1023.585 681.975 1007.935 693.125 995.005 707.07C977.26 725.93 955.105 740.085 930.53 748.26C905.96 756.435 879.74 758.375 854.235 753.905C828.725 749.43 804.73 738.69 784.405 722.645C764.08 706.6 748.06 685.755 737.785 661.98C727.515 638.21 723.31 612.255 725.555 586.455C727.8 560.655 736.42 535.82 750.645 514.18C764.87 492.537 784.25 474.771 807.04 462.477C829.835 450.184 855.325 443.748 881.22 443.75Z" fill="#1D1E23"/></svg>