<svg width="1200" height="1200" viewBox="0 0 1200 1200" fill="none" xmlns="http://www.w3.org/2000/svg"><path fill-rule="evenodd" d="M787.5 100H350C333.424 100 317.527 106.585 305.806 118.306C294.084 130.027 287.5 145.924 287.5 162.5V1037.5C287.5 1054.08 294.084 1069.975 305.806 1081.695C317.527 1093.415 333.424 1100 350 1100H787.5C804.075 1100 819.975 1093.415 831.695 1081.695C843.415 1069.975 850 1054.08 850 1037.5V162.5C850 145.924 843.415 130.027 831.695 118.306C819.975 106.585 804.075 100 787.5 100ZM490.625 131.25H615.625C619.77 131.25 623.745 132.896 626.675 135.827C629.605 138.757 631.25 142.731 631.25 146.875C631.25 151.019 629.605 154.994 626.675 157.923C623.745 160.854 619.77 162.5 615.625 162.5H490.625C486.481 162.5 482.507 160.854 479.577 157.923C476.647 154.994 475 151.019 475 146.875C475 142.731 476.647 138.757 479.577 135.827C482.507 132.896 486.481 131.25 490.625 131.25ZM740.625 1037.5H709.375C705.23 1037.5 701.255 1035.855 698.325 1032.925C695.395 1029.995 693.75 1026.02 693.75 1021.875C693.75 1017.73 695.395 1013.76 698.325 1010.83C701.255 1007.9 705.23 1006.25 709.375 1006.25H740.625C744.77 1006.25 748.745 1007.9 751.675 1010.83C754.605 1013.76 756.25 1017.73 756.25 1021.875C756.25 1026.02 754.605 1029.995 751.675 1032.925C748.745 1035.855 744.77 1037.5 740.625 1037.5ZM584.375 1037.5H553.125C548.98 1037.5 545.005 1035.855 542.075 1032.925C539.145 1029.995 537.5 1026.02 537.5 1021.875C537.5 1017.73 539.145 1013.76 542.075 1010.83C545.005 1007.9 548.98 1006.25 553.125 1006.25H584.375C588.52 1006.25 592.495 1007.9 595.425 1010.83C598.355 1013.76 600 1017.73 600 1021.875C600 1026.02 598.355 1029.995 595.425 1032.925C592.495 1035.855 588.52 1037.5 584.375 1037.5ZM428.125 1037.5H396.875C392.731 1037.5 388.757 1035.855 385.827 1032.925C382.897 1029.995 381.25 1026.02 381.25 1021.875C381.25 1017.73 382.897 1013.76 385.827 1010.83C388.757 1007.9 392.731 1006.25 396.875 1006.25H428.125C432.269 1006.25 436.243 1007.9 439.174 1010.83C442.104 1013.76 443.75 1017.73 443.75 1021.875C443.75 1026.02 442.104 1029.995 439.174 1032.925C436.243 1035.855 432.269 1037.5 428.125 1037.5ZM818.75 975H318.75L443.75 850H598.455C612.155 834.67 626.275 814.225 641.245 792.555C661.82 762.77 683.995 730.67 708.87 706.33C724.825 690.665 729.315 669.375 720.585 655C690.235 605.04 620.43 691.465 620.43 691.465V673.3L818.75 475V975ZM403.789 827.46L318.75 912.5L318.731 225H818.73V412.5L620.43 610.8L403.789 827.46ZM651.675 473.477V517.05L693.725 475V381.25C693.725 372.962 690.435 365.014 684.575 359.153C678.715 353.293 670.765 350 662.475 350H537.475C529.19 350 521.24 353.293 515.38 359.153C509.52 365.014 506.225 372.962 506.225 381.25V506.25C506.23 513.12 508.5 519.8 512.685 525.25C516.87 530.705 522.735 534.625 529.37 536.405V473.477C529.37 441.563 558.51 412.5 590.525 412.5C622.535 412.5 651.675 441.563 651.675 473.477ZM590.555 443.75C605.52 443.75 620.46 458.613 620.46 473.477V548.3L560.655 608.085V473.477C560.655 458.613 575.52 443.75 590.555 443.75ZM547.405 592.495C541.51 588.54 534.39 586.81 527.335 587.625C519.95 588.525 513.16 592.115 508.25 597.705C503.345 603.295 500.67 610.495 500.735 617.935V646.88C500.72 642.69 499.821 638.545 498.097 634.72C496.373 630.9 493.863 627.485 490.73 624.695C487.596 621.91 483.911 619.815 479.913 618.55C475.916 617.285 471.697 616.875 467.53 617.35C460.168 618.28 453.403 621.88 448.52 627.465C443.638 633.055 440.978 640.24 441.046 647.66V676.61C441.046 659.07 429.171 644.93 411.144 646.88C395.87 648.56 381.241 663.27 381.241 678.54V735.71C381.102 751.54 382.667 767.34 385.909 782.84L559.52 609.225C557.6 602.385 553.305 596.455 547.405 592.495Z" fill="#1D1E23"/></svg>