<svg width="1200" height="1200" viewBox="0 0 1200 1200" fill="none" xmlns="http://www.w3.org/2000/svg"><path d="M506.25 693.75L568.75 756.25L318.75 1006.25L193.75 881.25L256.25 818.75L318.75 881.25L506.25 693.75ZM412.5 412.5V537.5H475V412.5H412.5ZM475 193.75H412.5V318.75H475V193.75ZM850 412.5H787.5V537.5H850V412.5ZM850 193.75H787.5V318.75H850V193.75ZM756.25 412.5H725V537.5H756.25V412.5ZM600 193.75H568.75V318.75H600V193.75ZM693.75 193.75H631.25V318.75H693.75V193.75ZM568.75 537.5H600V412.5H568.75V537.5ZM693.75 412.5H631.25V537.5H693.75V412.5ZM756.25 193.75H725V318.75H756.25V193.75ZM506.25 412.5V537.5H537.5V412.5H506.25ZM537.5 193.75H506.25V318.75H537.5V193.75ZM381.25 193.75H350V318.75H381.25V193.75ZM943.75 412.5H881.25V568.75H943.75V412.5ZM943.75 193.75H881.25V318.75H943.75V193.75ZM318.75 412.5H256.25V568.75H318.75V412.5ZM318.75 193.75H256.25V318.75H318.75V193.75ZM350 412.5V537.5H381.25V412.5H350ZM1006.25 350H193.75V381.25H1006.25V350ZM1100 100V1100H100V100H1100ZM1068.75 131.25H131.25V1068.75H1068.75V131.25ZM881.25 818.75V756.25H818.75V818.75H881.25ZM881.25 631.25H818.75V693.75H943.75V756.25H1006.25V631.25H881.25ZM756.25 756.25H818.75V693.75H756.25V756.25ZM756.25 693.75V631.25H631.25V756.25H693.75V693.75H756.25ZM756.25 756.25H693.75V818.75H756.25V756.25ZM631.25 818.75V881.25H693.75V818.75H631.25ZM943.75 881.25V943.75H881.25V881.25H818.75V818.75H756.25V881.25H693.75V943.75H631.25V1006.25H756.25V943.75H818.75V1006.25H1006.25V818.75H881.25V881.25H943.75Z" fill="#1D1E23"/></svg>