<svg width="1200" height="1200" viewBox="0 0 1200 1200" fill="none" xmlns="http://www.w3.org/2000/svg"><path d="M881.265 443.723C902.465 443.69 923.445 447.986 942.92 456.348C962.4 464.71 979.965 476.962 994.54 492.352C1008.145 506.625 1024.51 517.98 1042.64 525.735C1060.765 533.49 1080.28 537.48 1100 537.465V100H662.535V103.788C662.66 122.808 666.685 141.6 674.35 159.006C682.02 176.412 693.17 192.061 707.12 204.992C722.66 219.578 735.04 237.199 743.495 256.763C751.95 276.327 756.3 297.419 756.275 318.733C756.28 339.491 752.145 360.041 744.12 379.183C736.09 398.326 724.33 415.677 709.52 430.223C694.71 444.769 677.15 456.217 657.865 463.901C638.585 471.584 617.96 475.347 597.205 474.97C556.23 474.334 517.15 457.579 488.438 428.336C459.725 399.092 443.689 359.715 443.801 318.733C443.773 297.537 448.071 276.558 456.433 257.081C464.794 237.603 477.043 220.038 492.431 205.46C506.705 191.857 518.065 175.493 525.82 157.364C533.575 139.234 537.565 119.718 537.545 100H100.078V537.465H103.789C122.809 537.345 141.603 533.325 159.008 525.655C176.415 517.985 192.064 506.83 204.992 492.88C219.58 477.341 237.201 464.962 256.765 456.506C276.329 448.051 297.42 443.701 318.733 443.723C339.491 443.719 360.041 447.853 379.184 455.881C398.327 463.908 415.677 475.671 430.223 490.481C444.769 505.29 456.217 522.85 463.901 542.135C471.584 561.415 475.347 582.04 474.97 602.795C474.339 643.775 457.586 682.855 428.342 711.565C399.098 740.28 359.717 756.315 318.733 756.2C297.536 756.23 276.557 751.935 257.079 743.57C237.602 735.21 220.037 722.96 205.46 707.57C191.857 693.295 175.493 681.935 157.364 674.18C139.235 666.425 119.718 662.435 100 662.455V1099.92H537.465V1096.135C537.34 1077.115 533.325 1058.325 525.66 1040.92C517.995 1023.51 506.845 1007.86 492.899 994.93C477.355 980.345 464.97 962.725 456.511 943.16C448.052 923.595 443.699 902.505 443.723 881.19C443.719 860.43 447.853 839.88 455.881 820.735C463.909 801.595 475.671 784.245 490.48 769.7C505.29 755.155 522.85 743.705 542.135 736.02C561.415 728.34 582.04 724.575 602.795 724.95C643.77 725.585 682.855 742.335 711.565 771.58C740.28 800.825 756.315 840.205 756.2 881.19C756.23 902.385 751.935 923.365 743.57 942.845C735.21 962.32 722.96 979.885 707.57 994.46C693.295 1008.065 681.935 1024.43 674.18 1042.555C666.425 1060.685 662.435 1080.205 662.455 1099.92H1099.92V662.455H1096.135C1077.115 662.58 1058.325 666.6 1040.92 674.265C1023.51 681.925 1007.86 693.075 994.93 707.02C980.345 722.57 962.73 734.955 943.165 743.415C923.6 751.875 902.505 756.225 881.19 756.2C860.43 756.2 839.88 752.07 820.74 744.04C801.595 736.01 784.245 724.25 769.7 709.44C755.155 694.63 743.705 677.075 736.02 657.79C728.34 638.505 724.575 617.885 724.95 597.13C725.59 556.135 742.355 517.05 771.615 488.333C800.875 459.617 840.27 443.59 881.265 443.723Z" fill="#1D1E23"/></svg>