<svg width="1200" height="1200" viewBox="0 0 1200 1200" fill="none" xmlns="http://www.w3.org/2000/svg"><path d="M443.75 850V912.5C443.75 920.79 440.458 928.735 434.597 934.595C428.737 940.455 420.788 943.75 412.5 943.75H350C341.712 943.75 333.764 940.455 327.903 934.595C322.043 928.735 318.75 920.79 318.75 912.5V850C318.75 841.71 322.043 833.765 327.903 827.9C333.764 822.04 341.712 818.75 350 818.75H412.5C420.788 818.75 428.737 822.04 434.597 827.9C440.458 833.765 443.75 841.71 443.75 850ZM443.75 662.5C443.75 654.21 440.458 646.265 434.597 640.4C428.737 634.54 420.788 631.25 412.5 631.25H350C341.712 631.25 333.764 634.54 327.903 640.4C322.043 646.265 318.75 654.21 318.75 662.5V725C318.75 733.29 322.043 741.235 327.903 747.095C333.764 752.955 341.712 756.25 350 756.25H412.5C420.788 756.25 428.737 752.955 434.597 747.095C440.458 741.235 443.75 733.29 443.75 725V662.5ZM287.5 475C287.5 466.712 284.207 458.763 278.347 452.902C272.486 447.042 264.538 443.75 256.25 443.75H193.75C185.462 443.75 177.513 447.042 171.653 452.902C165.793 458.763 162.5 466.712 162.5 475V537.5C162.5 545.79 165.793 553.735 171.653 559.595C177.513 565.455 185.462 568.75 193.75 568.75H256.25C264.538 568.75 272.486 565.455 278.347 559.595C284.207 553.735 287.5 545.79 287.5 537.5V475ZM256.25 818.75H193.75C185.462 818.75 177.513 822.04 171.653 827.9C165.793 833.765 162.5 841.71 162.5 850V912.5C162.5 920.79 165.793 928.735 171.653 934.595C177.513 940.455 185.462 943.75 193.75 943.75H256.25C264.538 943.75 272.486 940.455 278.347 934.595C284.207 928.735 287.5 920.79 287.5 912.5V850C287.5 841.71 284.207 833.765 278.347 827.9C272.486 822.04 264.538 818.75 256.25 818.75ZM584.375 1006.25H658.595C651.665 1033.09 636.005 1056.87 614.085 1073.84C592.165 1090.81 565.225 1100.015 537.5 1100H225C191.848 1100 160.054 1086.83 136.612 1063.39C113.169 1039.945 100 1008.15 100 975V225C100 191.848 113.169 160.054 136.612 136.612C160.054 113.169 191.848 100 225 100H537.5C570.65 100 602.445 113.169 625.89 136.612C649.33 160.054 662.5 191.848 662.5 225V244.727C651.41 252.808 640.965 261.734 631.25 271.426V225H131.25V975H521.875C529.15 984.705 538.59 992.58 549.435 998C560.285 1003.425 572.245 1006.25 584.375 1006.25ZM303.125 178.125C303.125 182.269 304.771 186.243 307.701 189.173C310.632 192.103 314.606 193.75 318.75 193.75H443.75C447.894 193.75 451.868 192.103 454.798 189.173C457.728 186.243 459.375 182.269 459.375 178.125C459.375 173.981 457.728 170.007 454.798 167.077C451.868 164.147 447.894 162.5 443.75 162.5H318.75C316.696 162.5 314.662 162.905 312.765 163.691C310.868 164.478 309.145 165.63 307.695 167.084C306.243 168.536 305.092 170.261 304.308 172.159C303.525 174.057 303.123 176.09 303.125 178.144V178.125ZM256.25 1021.875C256.25 1017.73 254.603 1013.755 251.674 1010.825C248.743 1007.895 244.769 1006.25 240.625 1006.25H209.375C205.231 1006.25 201.256 1007.895 198.326 1010.825C195.396 1013.755 193.75 1017.73 193.75 1021.875C193.75 1026.02 195.396 1029.995 198.326 1032.925C201.256 1035.855 205.231 1037.5 209.375 1037.5H240.625C244.766 1037.5 248.737 1035.855 251.667 1032.93C254.596 1030.005 256.245 1026.035 256.25 1021.895V1021.875ZM412.5 1021.875C412.5 1017.73 410.853 1013.755 407.923 1010.825C404.993 1007.895 401.019 1006.25 396.875 1006.25H365.625C361.481 1006.25 357.507 1007.895 354.576 1010.825C351.646 1013.755 350 1017.73 350 1021.875C350 1026.02 351.646 1029.995 354.576 1032.925C357.507 1035.855 361.481 1037.5 365.625 1037.5H396.875C401.016 1037.5 404.987 1035.855 407.916 1032.93C410.846 1030.005 412.495 1026.035 412.5 1021.895V1021.875ZM568.75 1021.875C568.75 1017.73 567.105 1013.755 564.175 1010.825C561.245 1007.895 557.27 1006.25 553.125 1006.25H521.875C517.73 1006.25 513.755 1007.895 510.825 1010.825C507.895 1013.755 506.25 1017.73 506.25 1021.875C506.25 1026.02 507.895 1029.995 510.825 1032.925C513.755 1035.855 517.73 1037.5 521.875 1037.5H553.125C557.265 1037.5 561.235 1035.855 564.165 1032.93C567.095 1030.005 568.745 1026.035 568.75 1021.895V1021.875ZM1100 568.75V928.125C1099.97 940.545 1095.02 952.45 1086.235 961.235C1077.45 970.02 1065.545 974.97 1053.125 975H584.375C571.95 974.97 560.045 970.02 551.265 961.235C542.48 952.45 537.53 940.545 537.5 928.125V568.75H584.375V459.375C584.455 397.238 609.17 337.669 653.105 293.733C697.045 249.795 756.615 225.077 818.75 225C880.89 225.073 940.46 249.788 984.4 293.726C1028.335 337.664 1053.055 397.237 1053.125 459.375V568.75H1100ZM911.775 759.705L938.73 729.295L915.295 688.71L875.47 696.855C869.185 692.125 862.32 688.22 855.04 685.235L842.19 646.875H795.31L782.48 685.235C775.2 688.255 768.33 692.19 762.05 696.955L722.225 688.75L698.79 729.335L725.74 759.725C725.25 763.615 725 767.525 725 771.445C725.005 775.365 725.25 779.275 725.74 783.165L698.79 813.575L722.225 854.16L762.05 846.015C768.33 850.865 775.19 854.9 782.48 858.025L795.31 896.74H842.19L855.04 858.025C862.325 854.935 869.19 850.93 875.47 846.115L915.295 854.22L938.73 813.595L911.775 783.165C912.26 779.275 912.505 775.36 912.5 771.445C912.505 767.52 912.265 763.6 911.775 759.705ZM959.375 459.375C959.335 422.091 944.505 386.348 918.14 359.984C891.78 333.62 856.035 318.791 818.75 318.75C781.465 318.791 745.72 333.62 719.36 359.984C692.995 386.348 678.165 422.091 678.125 459.375V568.75H959.375V459.375ZM818.75 725C806.32 725 794.395 729.94 785.605 738.73C776.815 747.52 771.875 759.445 771.875 771.875C771.875 784.305 776.815 796.23 785.605 805.02C794.395 813.81 806.32 818.75 818.75 818.75C831.18 818.75 843.105 813.81 851.895 805.02C860.685 796.23 865.625 784.305 865.625 771.875C865.625 759.445 860.685 747.52 851.895 738.73C843.105 729.94 831.18 725 818.75 725ZM600 308.887V287.5C600 279.212 596.71 271.263 590.845 265.402C584.985 259.542 577.04 256.25 568.75 256.25H506.25C497.962 256.25 490.013 259.542 484.153 265.402C478.292 271.263 475 279.212 475 287.5V350C475 358.288 478.292 366.236 484.153 372.096C490.013 377.957 497.962 381.25 506.25 381.25H564.845C572.81 355.48 584.665 331.079 600 308.887ZM475 850V912.5C475 920.79 478.292 928.735 484.153 934.595C490.013 940.455 497.962 943.75 506.25 943.75H507.83C506.78 938.61 506.25 933.375 506.25 928.125V818.75C497.962 818.75 490.013 822.04 484.153 827.9C478.292 833.765 475 841.71 475 850Z" fill="#1D1E23"/></svg>