<svg width="1200" height="1200" viewBox="0 0 1200 1200" fill="none" xmlns="http://www.w3.org/2000/svg"><path d="M749.055 833.36C816.975 759.865 850 683.515 850 600C850 516.485 817.03 440.137 749.055 366.641C733.35 349.782 716.875 333.856 699.7 318.925L694.265 322.735C671.705 338.535 647.895 355.195 624.52 372.715C645.855 389.762 666.235 408.267 685.555 428.125H514.67C562.375 378.321 624.505 334.784 679.535 296.191C774.735 229.55 849.93 176.914 849.93 100H436.301C435.329 100 434.375 100 433.437 100.157V100H350.139C350.139 170.957 414.157 221.269 498.844 280.996C523.505 260.391 548.945 241.249 573.97 223.223L564.53 216.601C537.61 197.754 511.74 179.629 489.907 162.5H710.025C688.26 179.629 662.37 197.754 635.4 216.601C574.575 259.179 505.63 307.442 450.947 366.641C383.007 440.137 350 516.485 350 600C350 683.515 382.972 759.865 450.947 833.36C466.648 850.225 483.122 866.15 500.3 881.075L505.715 877.265C528.275 861.465 552.085 844.785 575.46 827.265C554.13 810.235 533.75 791.735 514.445 771.875H685.31C637.625 821.68 575.495 865.215 520.45 903.81C425.263 970.45 350.07 1023.085 350.07 1100H763.7C764.65 1100 765.6 1099.94 766.545 1099.825C766.55 1099.88 766.55 1099.94 766.545 1100H849.845C849.845 1029.045 785.81 978.73 701.12 919.005C676.48 939.63 651.02 958.75 625.995 976.775L635.455 983.4C662.35 1002.245 688.225 1020.37 710.075 1037.5H489.959C511.72 1020.37 537.595 1002.245 564.58 983.4C625.425 940.82 694.37 892.56 749.055 833.36ZM465.82 709.375C459.781 699.43 454.421 688.985 449.785 678.125H750.405C745.775 688.98 740.42 699.43 734.39 709.375H465.82ZM465.82 490.625H734.39C740.42 500.57 745.775 511.02 750.405 521.875H449.785C454.421 511.015 459.781 500.57 465.82 490.625ZM763.84 584.375C764.585 584.375 765.315 584.375 766.06 584.26C766.475 589.475 766.7 594.725 766.7 600C766.7 605.275 766.475 610.43 766.06 615.625H434.131C433.715 610.43 433.507 605.235 433.507 600C433.507 594.765 433.715 589.57 434.131 584.375H763.84Z" fill="#1D1E23"/></svg>