<svg width="1200" height="1200" viewBox="0 0 1200 1200" fill="none" xmlns="http://www.w3.org/2000/svg"><path d="M1099.95 865.665V209.371C1099.955 187.737 1093.54 166.588 1081.52 148.599C1069.5 130.61 1052.415 116.589 1032.43 108.31C1012.45 100.043 990.465 97.883 969.26 102.104C948.05 106.325 928.57 116.736 913.28 132.023L599.975 445.326L286.673 132.023C271.38 116.736 251.9 106.325 230.693 102.104C209.486 97.883 187.504 100.043 167.524 108.31C147.536 116.589 130.452 130.61 118.433 148.599C106.413 166.588 99.999 187.737 100 209.371V865.665L318.765 646.9V473.374L445.336 599.965L132.034 913.27C111.523 933.78 100.002 961.6 100.002 990.605C100.002 1019.615 111.523 1047.435 132.034 1067.945C142.178 1078.125 154.233 1086.195 167.508 1091.695C180.782 1097.195 195.013 1100.02 209.382 1100C223.752 1100.015 237.981 1097.195 251.255 1091.69C264.53 1086.19 276.587 1078.12 286.732 1067.945L599.915 754.645L913.22 1067.945C923.365 1078.125 935.42 1086.195 948.695 1091.695C961.97 1097.195 976.2 1100.02 990.57 1100C1004.94 1100.015 1019.17 1097.195 1032.445 1091.69C1045.715 1086.19 1057.775 1078.12 1067.92 1067.945C1088.43 1047.435 1099.95 1019.615 1099.95 990.605C1099.95 961.6 1088.43 933.78 1067.92 913.27L754.595 599.965L881.185 473.374V646.845L1099.95 865.665Z" fill="#1D1E23"/></svg>