<svg width="1200" height="1200" viewBox="0 0 1200 1200" fill="none" xmlns="http://www.w3.org/2000/svg"><path d="M787.5 350L623.44 537.5H779.69L475 850L568.75 631.25H412.5L600 350H787.5ZM1100 568.75V631.25H1036.365C1021.075 848.045 847.95 1021.095 631.25 1036.385V1100H568.75V1036.385C351.953 1021.095 178.907 847.97 163.614 631.25H100V568.75H163.614C178.907 352.051 352.031 178.926 568.75 163.633V100H631.25V163.633C848.045 178.926 1021.075 352.051 1036.365 568.75H1100ZM912.5 631.25V568.75H973.73C966.325 480.41 927.86 397.55 865.16 334.875C802.465 272.201 719.595 233.765 631.25 226.387V287.578H568.75V226.387C480.402 233.775 397.529 272.227 334.839 334.917C272.149 397.607 233.697 480.48 226.308 568.83H287.5V631.33H226.308C233.693 719.68 272.142 802.555 334.833 865.25C397.523 927.945 480.399 966.4 568.75 973.79V912.58H631.25V973.79C719.62 966.405 802.515 927.945 865.215 865.235C927.915 802.525 966.36 719.62 973.73 631.25H912.5Z" fill="#1D1E23"/></svg>