<svg width="1200" height="1200" viewBox="0 0 1200 1200" fill="none" xmlns="http://www.w3.org/2000/svg"><path d="M1100 506.25L896.875 709.375L787.5 600L834.375 553.125L896.875 615.625L1053.125 459.375L1100 506.25ZM381.25 1037.5H443.75V850H381.25V1037.5ZM537.5 1037.5H600V850H537.5V1037.5ZM475 1037.5H506.25V850H475V1037.5ZM318.75 1037.5H350V850H318.75V1037.5ZM256.25 1037.5H287.5V850H256.25V1037.5ZM631.25 1100H693.75V850H631.25V1100ZM162.5 1100H225V850H162.5V1100ZM318.75 100H256.25V287.5H318.75V100ZM537.5 100H475V287.5H537.5V100ZM600 100H568.75V287.5H600V100ZM443.75 100H412.5V287.5H443.75V100ZM381.25 100H350V287.5H381.25V100ZM693.75 100H631.25V350H693.75V100ZM225 100H162.5V350H225V100ZM100 600H756.25V568.75H100V600ZM225 475H162.5V537.5H225V475ZM162.5 725H225V631.25H162.5V725ZM287.5 475H256.25V537.5H287.5V475ZM256.25 662.5H287.5V631.25H256.25V662.5ZM381.25 475H318.75V537.5H381.25V475ZM318.75 662.5H381.25V631.25H318.75V662.5ZM412.5 662.5H443.75V631.25H412.5V662.5ZM443.75 475H412.5V537.5H443.75V475ZM537.5 475H475V537.5H537.5V475ZM475 662.5H537.5V631.25H475V662.5ZM600 475H568.75V537.5H600V475ZM568.75 662.5H600V631.25H568.75V662.5ZM693.75 475H631.25V537.5H693.75V475ZM631.25 725H693.75V631.25H631.25V725Z" fill="#1D1E23"/></svg>