<svg width="1200" height="1200" viewBox="0 0 1200 1200" fill="none" xmlns="http://www.w3.org/2000/svg"><path d="M1006.25 537.5H600V600H1006.25V537.5Z" fill="#1D1E23"/><path d="M100 162.5V1068.75C100 1077.035 103.293 1084.985 109.153 1090.85C115.013 1096.71 122.962 1100 131.25 1100H475V100H162.5C145.924 100 130.027 106.585 118.306 118.306C106.585 130.027 100 145.924 100 162.5ZM193.75 381.25C185.462 381.25 177.513 377.957 171.653 372.096C165.793 366.236 162.5 358.288 162.5 350C162.5 341.712 165.793 333.763 171.653 327.902C177.513 322.042 185.462 318.75 193.75 318.75C202.038 318.75 209.986 322.042 215.847 327.902C221.707 333.763 225 341.712 225 350C225 358.288 221.707 366.236 215.847 372.096C209.986 377.957 202.038 381.25 193.75 381.25ZM287.5 381.25C279.212 381.25 271.264 377.957 265.403 372.096C259.543 366.236 256.25 358.288 256.25 350C256.25 341.712 259.543 333.763 265.403 327.902C271.264 322.042 279.212 318.75 287.5 318.75C295.788 318.75 303.736 322.042 309.597 327.902C315.457 333.763 318.75 341.712 318.75 350C318.75 358.288 315.457 366.236 309.597 372.096C303.736 377.957 295.788 381.25 287.5 381.25ZM381.25 381.25C372.962 381.25 365.014 377.957 359.153 372.096C353.293 366.236 350 358.288 350 350C350 341.712 353.293 333.763 359.153 327.902C365.014 322.042 372.962 318.75 381.25 318.75C389.538 318.75 397.486 322.042 403.347 327.902C409.208 333.763 412.5 341.712 412.5 350C412.5 358.288 409.208 366.236 403.347 372.096C397.486 377.957 389.538 381.25 381.25 381.25ZM412.5 287.5H162.5V225H412.5V287.5Z" fill="#1D1E23"/><path d="M1037.5 100H506.25V1100H1068.75C1077.04 1100 1084.985 1096.71 1090.845 1090.85C1096.71 1084.985 1100 1077.035 1100 1068.75V162.5C1100 145.924 1093.415 130.027 1081.695 118.306C1069.975 106.585 1054.075 100 1037.5 100ZM990.625 885.155H939.315C936.035 897.895 930.975 910.105 924.275 921.425L960.565 957.715L910.86 1007.44L874.55 971.15C863.23 977.85 851.02 982.91 838.28 986.19V1037.5H767.97V986.19C755.235 982.905 743.025 977.84 731.7 971.15L695.41 1007.44L645.685 957.715L681.99 921.425C675.29 910.105 670.22 897.895 666.935 885.155H615.625V814.845H666.935C670.215 802.105 675.285 789.895 681.99 778.575L645.685 742.265L695.41 692.56L731.7 728.845C743.02 722.15 755.23 717.09 767.97 713.81V662.5H838.28V713.81C851 717.065 863.19 722.11 874.49 728.79L910.8 692.5L960.51 742.205L924.22 778.515C930.92 789.835 935.985 802.045 939.26 814.785H990.565L990.625 885.155ZM1037.5 631.25H568.75V475H1037.5V631.25Z" fill="#1D1E23"/><path d="M803.125 920.31C841.96 920.31 873.44 888.835 873.44 850C873.44 811.165 841.96 779.69 803.125 779.69C764.29 779.69 732.81 811.165 732.81 850C732.81 888.835 764.29 920.31 803.125 920.31Z" fill="#1D1E23"/></svg>