<svg width="1200" height="1200" viewBox="0 0 1200 1200" fill="none" xmlns="http://www.w3.org/2000/svg"><path d="M396.875 443.823L740.625 443.609V381.323H396.875V443.823Z" fill="#1D1E23"/><path d="M803.125 287.573H396.875V350.073H803.125V287.573Z" fill="#1D1E23"/><path d="M396.875 256.323L803.125 256.108V193.823H396.875V256.323Z" fill="#1D1E23"/><path d="M1037.5 568.75H709.375V537.5H865.625C873.915 537.5 881.86 534.205 887.72 528.345C893.585 522.485 896.875 514.54 896.875 506.25V131.25C896.875 122.962 893.585 115.014 887.72 109.153C881.86 103.293 873.915 100 865.625 100H334.375C326.087 100 318.139 103.293 312.278 109.153C306.418 115.014 303.125 122.962 303.125 131.25V506.25C303.125 514.54 306.418 522.485 312.278 528.345C318.139 534.205 326.087 537.5 334.375 537.5H490.625V568.75H162.5C145.938 568.795 130.069 575.395 118.358 587.105C106.647 598.82 100.046 614.69 100 631.25V1037.5C100.046 1054.06 106.647 1069.93 118.358 1081.645C130.069 1093.355 145.938 1099.955 162.5 1100H1037.5C1054.06 1099.955 1069.93 1093.355 1081.645 1081.645C1093.355 1069.93 1099.955 1054.06 1100 1037.5V631.25C1099.955 614.69 1093.355 598.82 1081.645 587.105C1069.93 575.395 1054.06 568.795 1037.5 568.75ZM334.375 506.25V131.25H865.625V506.25H334.375ZM787.5 631.25H881.25V725H787.5V631.25ZM803.125 787.5V881.25H709.375V787.5H803.125ZM725 631.25V725H631.25V631.25H725ZM646.875 787.5V881.25H553.125V787.5H646.875ZM475 631.25H568.75V725H475V631.25ZM490.625 787.5V881.25H396.875V787.5H490.625ZM318.75 631.25H412.5V725H318.75V631.25ZM162.5 631.25H256.25V725H162.5V631.25ZM334.375 881.25H240.625V787.5H334.375V881.25ZM850 1037.5H350V943.75H850V1037.5ZM959.375 881.25H865.625V787.5H959.375V881.25ZM1037.5 725H943.75V631.25H1037.5V725Z" fill="#1D1E23"/></svg>