<svg width="1200" height="1200" viewBox="0 0 1200 1200" fill="none" xmlns="http://www.w3.org/2000/svg"><path d="M475 787.46H100C100 683.945 146.875 646.835 287.5 646.835C428.125 646.835 475 683.905 475 787.46ZM287.5 599.96C312.364 599.96 336.209 590.085 353.791 572.5C371.373 554.92 381.25 531.075 381.25 506.21C381.25 481.348 371.373 457.501 353.791 439.92C336.209 422.339 312.364 412.462 287.5 412.462C262.636 412.462 238.79 422.339 221.209 439.92C203.627 457.501 193.75 481.348 193.75 506.21C193.75 531.075 203.627 554.92 221.209 572.5C238.79 590.085 262.636 599.96 287.5 599.96ZM668.515 887.245L734.805 953.555C781.305 907.185 818.185 852.08 843.325 791.415C868.46 730.745 881.365 665.71 881.29 600.04C881.37 534.37 868.47 469.33 843.33 408.661C818.19 347.993 781.31 292.891 734.805 246.523L668.515 312.813C706.295 350.495 736.255 395.273 756.675 444.572C777.095 493.87 787.57 546.72 787.5 600.08C787.56 653.42 777.075 706.25 756.66 755.535C736.24 804.815 706.285 849.575 668.515 887.245ZM602.225 820.955C631.29 791.975 654.335 757.535 670.045 719.615C685.75 681.695 693.81 641.045 693.75 600C693.81 558.955 685.755 518.3 670.045 480.376C654.34 442.452 631.29 408.009 602.225 379.024L535.935 445.313C556.28 465.604 572.41 489.716 583.405 516.265C594.4 542.81 600.04 571.265 600 600C600.04 628.73 594.4 657.185 583.405 683.725C572.41 710.27 556.28 734.38 535.935 754.67L602.225 820.955ZM1100 225V975C1100 1008.15 1086.83 1039.945 1063.39 1063.39C1039.945 1086.83 1008.15 1100 975 1100H662.5C629.35 1100 597.555 1086.83 574.11 1063.39C550.67 1039.945 537.5 1008.15 537.5 975V844.63L568.75 875.88V975H1068.75V225H568.75V324.101L537.5 355.351V225C537.5 191.848 550.67 160.054 574.11 136.612C597.555 113.17 629.35 100 662.5 100H975C1008.15 100 1039.945 113.17 1063.39 136.612C1086.83 160.054 1100 191.848 1100 225ZM896.875 178.125C896.875 173.981 895.23 170.007 892.3 167.077C889.37 164.147 885.395 162.5 881.25 162.5H756.25C752.105 162.5 748.13 164.147 745.2 167.077C742.27 170.007 740.625 173.981 740.625 178.125C740.625 182.269 742.27 186.244 745.2 189.174C748.13 192.104 752.105 193.75 756.25 193.75H881.25C885.395 193.75 889.37 192.104 892.3 189.174C895.23 186.244 896.875 182.269 896.875 178.125ZM693.75 1021.875C693.75 1017.73 692.105 1013.755 689.175 1010.825C686.245 1007.895 682.27 1006.25 678.125 1006.25H646.875C642.73 1006.25 638.755 1007.895 635.825 1010.825C632.895 1013.755 631.25 1017.73 631.25 1021.875C631.25 1026.02 632.895 1029.995 635.825 1032.925C638.755 1035.855 642.73 1037.5 646.875 1037.5H678.125C682.27 1037.5 686.245 1035.855 689.175 1032.925C692.105 1029.995 693.75 1026.02 693.75 1021.875ZM850 1021.875C850 1017.73 848.355 1013.755 845.425 1010.825C842.495 1007.895 838.52 1006.25 834.375 1006.25H803.125C798.98 1006.25 795.005 1007.895 792.075 1010.825C789.145 1013.755 787.5 1017.73 787.5 1021.875C787.5 1026.02 789.145 1029.995 792.075 1032.925C795.005 1035.855 798.98 1037.5 803.125 1037.5H834.375C838.52 1037.5 842.495 1035.855 845.425 1032.925C848.355 1029.995 850 1026.02 850 1021.875ZM1006.25 1021.875C1006.25 1017.73 1004.605 1013.755 1001.675 1010.825C998.745 1007.895 994.77 1006.25 990.625 1006.25H959.375C955.23 1006.25 951.255 1007.895 948.325 1010.825C945.395 1013.755 943.75 1017.73 943.75 1021.875C943.75 1026.02 945.395 1029.995 948.325 1032.925C951.255 1035.855 955.23 1037.5 959.375 1037.5H990.625C994.77 1037.5 998.745 1035.855 1001.675 1032.925C1004.605 1029.995 1006.25 1026.02 1006.25 1021.875Z" fill="#1D1E23"/></svg>