<svg width="1200" height="1200" viewBox="0 0 1200 1200" fill="none" xmlns="http://www.w3.org/2000/svg"><path d="M350.038 490.564H287.549V693.655H350.038V490.564Z" fill="#1D1E23"/><path d="M724.975 459.314H662.49V693.65H724.975V459.314Z" fill="#1D1E23"/><path d="M490.632 365.576H459.387V662.4H490.632V365.576Z" fill="#1D1E23"/><path d="M428.142 428.076H381.274V662.41H428.142V428.076Z" fill="#1D1E23"/><path d="M631.24 521.8H584.375V662.405H631.24V521.8Z" fill="#1D1E23"/><path d="M553.13 459.314H521.885V662.405H553.13V459.314Z" fill="#1D1E23"/><path d="M1081.69 993.23L834.255 745.79C885.15 676.28 912.515 592.335 912.365 506.18C912.365 281.844 730.52 100 506.18 100C281.844 100 100 281.844 100 506.18C100 730.52 281.865 912.365 506.18 912.365C592.335 912.515 676.28 885.15 745.79 834.255L993.23 1081.69C1004.95 1093.41 1020.84 1100 1037.415 1100C1053.99 1100 1069.885 1093.42 1081.605 1081.7C1093.325 1069.985 1099.91 1054.09 1099.91 1037.515C1099.915 1020.945 1093.33 1005.05 1081.615 993.33L1081.69 993.23ZM506.26 818.63C444.464 818.63 384.055 800.305 332.674 765.975C281.291 731.64 241.244 682.845 217.596 625.75C193.948 568.66 187.76 505.835 199.816 445.227C211.872 384.618 241.629 328.945 285.326 285.249C329.023 241.552 384.695 211.794 445.305 199.738C505.915 187.683 568.735 193.87 625.83 217.518C682.92 241.167 731.72 281.214 766.05 332.596C800.385 383.978 818.71 444.386 818.71 506.18C818.71 589.05 785.79 668.52 727.195 727.115C668.6 785.71 589.125 818.63 506.26 818.63Z" fill="#1D1E23"/><path d="M693.735 318.709C685.445 318.709 677.5 322 671.64 327.86C665.78 333.719 662.49 341.667 662.49 349.953C662.485 351.05 662.545 352.144 662.665 353.234L620.505 383.894C614.765 381.325 608.385 380.569 602.205 381.726L504.43 266.687C505.97 262.394 506.55 257.817 506.135 253.276C505.715 248.735 504.31 244.341 502.015 240.401C499.717 236.462 496.586 233.073 492.84 230.471C489.096 227.87 484.826 226.12 480.332 225.345C475.838 224.57 471.23 224.787 466.829 225.983C462.429 227.178 458.343 229.322 454.859 232.264C451.375 235.206 448.578 238.875 446.663 243.013C444.748 247.152 443.762 251.659 443.774 256.219C443.786 257.782 443.916 259.343 444.165 260.887L330.141 352.102C323.654 349.517 316.495 349.149 309.779 351.058C303.062 352.968 297.166 357.045 293.009 362.656C288.852 368.265 286.668 375.094 286.798 382.075C286.927 389.057 289.363 395.798 293.724 401.251C298.087 406.703 304.13 410.56 310.913 412.219C317.695 413.877 324.836 413.245 331.222 410.421C337.608 407.597 342.88 402.74 346.217 396.606C349.553 390.473 350.767 383.407 349.669 376.512L463.693 285.297C469.073 287.439 474.952 288.008 480.643 286.937L578.42 401.957C576.88 406.248 576.3 410.824 576.715 415.364C577.13 419.904 578.535 424.298 580.83 428.238C583.13 432.177 586.255 435.566 590 438.168C593.745 440.769 598.015 442.52 602.505 443.296C607 444.072 611.605 443.857 616.005 442.664C620.405 441.47 624.495 439.328 627.975 436.388C631.46 433.448 634.26 429.781 636.18 425.645C638.095 421.509 639.085 417.002 639.075 412.443C639.075 411.347 639.015 410.252 638.9 409.162L681.08 378.484C685.065 380.276 689.385 381.201 693.75 381.198C702.04 381.198 709.985 377.906 715.845 372.047C721.705 366.188 724.995 358.24 724.995 349.953C724.995 341.667 721.705 333.719 715.845 327.86C709.985 322 702.04 318.709 693.75 318.709H693.735Z" fill="#1D1E23"/></svg>