<svg width="1200" height="1200" viewBox="0 0 1200 1200" fill="none" xmlns="http://www.w3.org/2000/svg"><path d="M1076.4 924.725C1061.545 946.67 1039.905 963.14 1014.79 971.6L950.62 993.085C926.53 1001.19 900.615 1002.19 875.965 995.975C873.44 995.33 871.205 993.86 869.61 991.795C868.015 989.735 867.15 987.2 867.16 984.59V962.36C867.15 959.89 867.92 957.475 869.365 955.47L911.76 892.475C912.66 891.12 913.265 889.59 913.54 887.985C913.82 886.38 913.755 884.74 913.36 883.16C909.165 866.145 867.16 671.47 867.16 671.47C867.16 601.155 843.88 601.155 843.88 577.615C843.88 460.287 738.43 460.287 691.815 460.287C688.125 460.287 684.765 455.912 680.1 448.567H750.655C758.37 448.567 767.72 445.423 777.62 442.103C784.595 439.759 793.245 436.829 797.15 436.829H1020.9C1012.1 452.916 1009.33 471.618 1013.09 489.567L1099.64 855.5C1103.41 873.45 1076.4 924.725 1076.4 924.725ZM820.585 579.28C820.585 578.73 820.585 578.185 820.585 577.615C820.585 576.055 820.585 574.51 820.585 572.99C819.395 522.38 798.46 500.27 768.52 490.757C768.755 491.732 769.24 492.629 769.93 493.356C786.31 510.72 797.265 537.205 797.265 577.615C797.265 587.695 822.515 606.66 832.42 624.77C841.245 641.075 843.84 665.785 843.82 665.55C842.965 632.915 836.285 619.77 830.835 610.275C826.425 602.62 821.035 593.225 820.625 579.28H820.585ZM631.905 416.574C632.595 419.013 634.06 421.162 636.08 422.698C638.1 424.233 640.56 425.073 643.095 425.091H750.715C762.43 425.091 785.63 413.371 797.265 413.371H1030.08C1033.19 413.371 1036.17 412.136 1038.365 409.938C1040.565 407.74 1041.795 404.76 1041.795 401.652V395.089C1041.795 361.356 1030.45 322.253 1009.03 296.334C1000.42 285.904 991.355 278.091 983.645 278.091L626.28 250.081C622.51 249.783 618.715 250.306 615.165 251.614C611.615 252.922 608.395 254.985 605.715 257.66L604.485 258.89C602.68 260.696 601.355 262.925 600.635 265.376C599.915 267.827 599.825 270.419 600.365 272.914L631.905 416.574ZM419.44 705.18L459.862 750.79L424.712 811.69L364.995 799.465C355.568 806.64 345.274 812.6 334.356 817.2L315.082 874.995H244.781L225.526 817.2C214.607 812.6 204.312 806.645 194.887 799.465L135.15 811.69L100 750.79L140.442 705.18C139.696 699.315 139.325 693.4 139.329 687.485C139.324 681.57 139.695 675.66 140.442 669.79L100 624.18L135.15 563.28L194.887 575.51C204.312 568.33 214.607 562.37 225.526 557.775L244.781 499.976H315.082L334.356 557.775C345.274 562.375 355.568 568.33 364.995 575.51L424.712 563.28L459.862 624.18L419.44 669.79C420.17 675.66 420.536 681.57 420.533 687.485C420.535 693.4 420.169 699.31 419.44 705.18ZM350.232 687.485C350.232 668.835 342.826 650.95 329.642 637.765C316.458 624.58 298.576 617.17 279.931 617.17C261.287 617.17 243.405 624.58 230.221 637.765C217.037 650.95 209.631 668.835 209.631 687.485C209.631 706.135 217.037 724.02 230.221 737.205C243.405 750.395 261.287 757.8 279.931 757.8C289.17 757.81 298.32 756 306.858 752.47C315.397 748.945 323.156 743.765 329.692 737.235C336.228 730.705 341.413 722.95 344.952 714.415C348.489 705.875 350.31 696.725 350.31 687.485H350.232ZM610.07 540.485C596.695 553.38 597.105 575.295 610.25 588.42L678.03 656.235H521.805C513.52 656.235 505.57 659.525 499.712 665.39C493.853 671.25 490.561 679.195 490.561 687.485C490.561 695.775 493.853 703.725 499.712 709.585C505.57 715.445 513.52 718.735 521.805 718.735H678.03L610.25 786.535C597.105 799.68 596.695 821.575 610.07 834.465C616.33 840.475 624.695 843.795 633.37 843.715C642.045 843.635 650.345 840.16 656.49 834.035L802.95 687.545L656.49 541.055C650.365 534.935 642.09 531.45 633.435 531.345C624.78 531.24 616.425 534.52 610.15 540.485H610.07Z" fill="#1D1E23"/></svg>