<svg width="1200" height="1200" viewBox="0 0 1200 1200" fill="none" xmlns="http://www.w3.org/2000/svg"><path d="M100 506.41H225V1100H100V506.41ZM975 1100H1100V443.928H975V1100ZM443.75 975.035H506.25V318.962H443.75V975.035ZM287.5 975.035H381.25V443.928H287.5V975.035ZM693.75 975.035H787.5V568.895H693.75V975.035ZM568.75 975.035H631.25V443.928H568.75V975.035ZM850 975.035H912.5V506.41H850V975.035ZM987.795 325.581C996.775 337.365 1009.655 345.573 1024.135 348.741C1038.615 351.91 1053.745 349.832 1066.835 342.878C1079.92 335.925 1090.11 324.548 1095.58 310.779C1101.055 297.01 1101.455 281.744 1096.715 267.707C1091.97 253.669 1082.39 241.774 1069.685 234.144C1056.985 226.513 1041.98 223.644 1027.355 226.049C1012.735 228.454 999.44 235.975 989.85 247.272C980.26 258.568 974.995 272.904 975 287.72C975.005 290.759 975.225 293.793 975.665 296.8L790.82 374.709C781.315 362.156 767.42 353.654 751.915 350.902C736.405 348.151 720.435 351.353 707.185 359.869L529.885 193.038C534.93 184.041 537.67 173.934 537.855 163.62C538.045 153.306 535.675 143.106 530.96 133.93C526.245 124.755 519.33 116.889 510.835 111.036C502.34 105.182 492.524 101.522 482.269 100.382C472.014 99.243 461.636 100.659 452.062 104.506C442.488 108.352 434.014 114.508 427.4 122.426C420.784 130.342 416.233 139.773 414.151 149.876C412.07 159.98 412.522 170.441 415.469 180.327L206.816 305.509C196 294.814 181.654 288.43 166.465 287.555C151.278 286.68 136.292 291.371 124.318 300.752C112.344 310.133 104.203 323.558 101.422 338.51C98.64 353.462 101.408 368.915 109.209 381.973C117.01 395.029 129.305 404.795 143.792 409.436C158.279 414.078 173.962 413.278 187.901 407.186C201.84 401.095 213.079 390.13 219.509 376.346C225.94 362.563 227.122 346.909 222.832 332.317L431.621 207.077C441.601 216.864 454.575 223.022 468.468 224.57C482.362 226.117 496.373 222.962 508.26 215.611L685.995 382.792C681.49 391.161 678.955 400.448 678.585 409.945C678.21 419.442 680.01 428.9 683.845 437.597C687.68 446.294 693.445 454.002 700.71 460.135C707.975 466.266 716.54 470.662 725.76 472.985C734.975 475.308 744.605 475.498 753.905 473.541C763.21 471.584 771.945 467.53 779.445 461.69C786.945 455.849 793.01 448.374 797.185 439.834C801.36 431.295 803.535 421.918 803.535 412.413C803.53 409.44 803.315 406.471 802.89 403.529L987.795 325.581Z" fill="#1D1E23"/></svg>