<svg width="1200" height="1200" viewBox="0 0 1200 1200" fill="none" xmlns="http://www.w3.org/2000/svg"><path d="M425.007 568.75V256.25H475.012V568.75H425.007ZM725.005 256.25V568.75H775.01V256.25H725.005ZM700.01 256.25H675V506.25H700.01V256.25ZM600 100C520.435 100 444.129 132.924 387.868 191.53C331.607 250.135 300 329.62 300 412.5C300.01 476.178 318.688 538.335 353.536 590.65C388.385 642.97 437.741 682.955 495 705.255V671.72C462.913 657.565 433.763 637.07 409.162 611.37C384.01 585.31 364.068 554.315 350.493 520.175C336.917 486.038 329.977 449.433 330.075 412.481C329.967 375.535 336.894 338.933 350.457 304.794C364.019 270.655 383.947 239.656 409.087 213.594C434.098 187.393 463.85 166.623 496.621 152.486C529.39 138.347 564.53 131.123 600 131.231C635.475 131.126 670.615 138.352 703.385 152.489C736.16 166.627 765.915 187.396 790.93 213.594C816.08 239.655 836.015 270.65 849.585 304.789C863.16 338.928 870.095 375.531 870 412.481C870.095 449.428 863.155 486.027 849.585 520.16C836.01 554.295 816.075 585.29 790.93 611.35C766.57 636.795 737.75 657.135 706.03 671.27C714.23 678.065 720.995 686.55 725.905 696.19C777.9 671.15 821.925 631.125 852.775 580.85C883.625 530.575 900.01 472.149 900 412.481C899.995 329.604 868.385 250.123 812.125 191.522C755.865 132.922 679.56 100 600 100ZM600 256.25H550.01V431.309C556.46 429.215 563.17 428.135 569.925 428.106C580.325 428.198 590.575 430.715 599.925 435.469L600 256.25ZM650.005 506.25V256.25H625.01V455C637.2 469.043 644.925 487.246 644.925 506.25H650.005ZM525 445.118V256.25H500.005V479.571C505.325 466.022 513.94 454.149 525 445.118ZM840 779.69C812.85 776.565 795 798.905 795 826.565V780.92C795 756.855 778.125 735.74 755.12 733.105C748.82 732.355 742.435 733 736.39 734.995C730.345 736.995 724.775 740.3 720.04 744.7C715.31 749.1 711.52 754.49 708.93 760.52C706.34 766.55 705 773.08 705 779.69V734.045C705 709.98 688.125 688.865 665.12 686.23C658.82 685.48 652.435 686.125 646.39 688.12C640.345 690.12 634.775 693.425 630.04 697.825C625.31 702.225 621.52 707.615 618.93 713.645C616.34 719.675 615 726.205 615 732.815V506.25C615 482.813 592.5 459.375 570 459.375C547.5 459.375 525 482.813 525 506.25V850C525 850 420 713.69 374.268 792.48C361.144 815.175 367.894 848.73 391.932 873.44C456.469 939.745 509.155 1042.6 558.095 1100H821.66C855.975 1068.965 885 1015.45 885 919.745V829.59C884.925 805.525 862.895 782.325 839.925 779.69H840Z" fill="#1D1E23"/></svg>