<svg width="1200" height="1200" viewBox="0 0 1200 1200" fill="none" xmlns="http://www.w3.org/2000/svg"><path d="M162.498 443.736H100V318.742H162.498V443.736ZM162.498 506.235H100V693.725H162.498V506.235ZM787.48 224.995H849.98V100H693.73V162.498H787.48V224.995ZM631.235 100H506.24V162.498H631.235V100ZM162.498 162.498H256.245V100H100V256.244H162.498V162.498ZM162.498 756.225H100V881.22H162.498V756.225ZM443.74 100H318.743V162.498H443.74V100ZM955.56 447.642C949.895 445.69 942.825 443.268 939.645 443.268H758.01C765.215 456.723 767.49 472.276 764.435 487.231L694.125 792.16C690.98 807.08 712.93 849.815 712.93 849.815C724.87 867.985 742.46 881.71 762.99 888.875L815.135 906.825C834.675 913.58 855.78 914.425 875.795 909.245C877.87 908.675 879.695 907.435 880.995 905.715C882.29 904 882.98 901.905 882.965 899.755V881.22C882.97 879.17 882.34 877.175 881.17 875.5L846.695 823C845.965 821.85 845.475 820.57 845.25 819.225C845.03 817.885 845.085 816.51 845.405 815.185C848.825 801.01 882.965 638.805 882.965 638.805C882.965 580.215 901.87 580.215 901.87 560.59C901.87 462.838 987.59 462.838 1025.42 462.838C1028.43 462.838 1031.165 459.185 1034.875 453.072H977.55C971.205 452.975 963.605 450.357 955.56 447.584V447.642ZM787.48 1037.465H693.73V1099.96H849.98V974.965H787.48V1037.465ZM920.755 556.66C920.755 557.93 920.755 559.22 920.755 560.57C920.755 561.055 920.755 561.505 920.755 561.955C920.445 573.575 916.07 581.485 912.515 587.795C908.1 595.605 902.75 606.66 901.95 633.865C901.95 634.06 904.06 613.455 911.225 599.865C919.195 584.785 939.72 568.985 939.72 560.57C939.72 526.9 948.705 504.83 962.025 490.356C962.58 489.75 962.97 489.009 963.16 488.208C938.705 496.078 921.735 514.495 920.755 556.66ZM1096.335 294.954L1095.34 293.918C1093.195 291.698 1090.58 289.982 1087.69 288.891C1084.8 287.8 1081.705 287.363 1078.625 287.61L788.32 310.909C782.01 310.909 774.65 317.433 767.655 326.124C750.255 347.705 741.035 380.302 741.035 408.387V413.875C741.015 415.137 741.245 416.39 741.705 417.564C742.17 418.738 742.86 419.808 743.74 420.716C744.615 421.622 745.665 422.347 746.825 422.849C747.98 423.351 749.225 423.62 750.49 423.639H939.68C949.135 423.639 968.04 433.405 977.515 433.405H1064.95C1067.035 433.387 1069.06 432.683 1070.705 431.402C1072.35 430.121 1073.525 428.333 1074.055 426.316L1099.715 306.574C1100.16 304.502 1100.085 302.354 1099.495 300.32C1098.905 298.285 1097.82 296.428 1096.335 294.915V294.954ZM162.498 943.755H100V1100H256.245V1037.5H162.498V943.755ZM443.74 381.278L662.485 756.265H224.996L443.74 381.278ZM474.989 693.765C474.989 687.585 473.156 681.545 469.723 676.405C466.289 671.265 461.409 667.26 455.699 664.895C449.988 662.53 443.705 661.91 437.643 663.115C431.581 664.325 426.014 667.3 421.643 671.67C417.273 676.04 414.297 681.61 413.091 687.67C411.885 693.73 412.504 700.015 414.87 705.725C417.235 711.435 421.24 716.315 426.379 719.75C431.517 723.18 437.559 725.015 443.74 725.015C447.846 725.015 451.914 724.205 455.708 722.63C459.501 721.06 462.948 718.755 465.85 715.85C468.752 712.94 471.053 709.495 472.621 705.695C474.19 701.9 474.994 697.835 474.989 693.725V693.765ZM443.74 506.275C426.474 506.275 412.49 517.465 412.49 531.27V606.27C412.49 620.075 426.474 631.27 443.74 631.27C461.005 631.27 474.989 620.075 474.989 606.27V531.27C474.989 517.425 461.005 506.235 443.74 506.235V506.275ZM318.743 1100H443.74V1037.5H318.743V1100ZM506.24 1100H631.235V1037.5H506.24V1100ZM698.985 318.781H474.989V350.029H686.955C690.085 339.282 694.11 328.816 698.985 318.742V318.781ZM678.5 408.426C678.545 399.343 679.195 390.274 680.45 381.278H537.585V412.527H678.595L678.5 408.426ZM703.185 474.419C703.24 473.832 703.125 473.243 702.855 472.72L697.52 462.759C692.4 457.121 688.195 450.716 685.06 443.776H599.985V475.024H703.05L703.185 474.419ZM662.485 506.275V537.52H688.715L695.92 506.275H662.485Z" fill="#1D1E23"/></svg>