<svg width="1200" height="1200" viewBox="0 0 1200 1200" fill="none" xmlns="http://www.w3.org/2000/svg"><path d="M949.175 546.63C927.22 463.002 871.03 391.044 792.96 346.586C714.895 302.128 621.345 288.812 532.89 309.567C484.462 320.93 439.229 342.127 400.34 371.689C361.45 401.25 329.837 438.465 307.697 480.745C275.341 485.989 244.396 497.208 216.628 513.76C188.859 530.315 164.811 551.875 145.859 577.22C126.907 602.56 113.42 631.185 106.17 661.455C98.921 691.725 98.05 723.05 103.608 753.64C113.576 808.61 143.788 858.475 188.9 894.415C234.012 930.35 291.114 950.04 350.104 950H881.17C909.89 950.02 938.33 944.69 964.87 934.315C991.41 923.945 1015.53 908.73 1035.85 889.54C1056.17 870.355 1072.295 847.57 1083.3 822.49C1094.305 797.415 1099.98 770.53 1100 743.375C1100.03 699.74 1085.45 657.215 1058.36 621.885C1031.27 586.56 993.05 560.245 949.175 546.705V546.63ZM412.582 861.32H287.625V743.175H412.582V861.32ZM600.015 861.32H475.061V625.03H600.015V861.32ZM787.45 565.955V861.32H662.495V565.955H600.015L724.975 447.813L849.93 565.955H787.45Z" fill="#1D1E23"/></svg>