<svg viewBox="0 0 2400 2400" fill="none" xmlns="http://www.w3.org/2000/svg"><path d="M1400.000 415.877 C 1356.903 427.334,1287.558 463.107,1249.006 493.769 C 1177.394 550.725,1124.719 639.956,1107.820 732.936 C 1101.485 767.792,1102.426 840.427,1109.654 874.554 C 1127.200 957.392,1162.172 1022.780,1219.696 1080.304 C 1271.860 1132.468,1333.721 1167.554,1407.177 1186.636 C 1439.279 1194.976,1455.349 1196.733,1500.000 1196.785 C 1569.045 1196.865,1613.855 1186.041,1679.640 1153.389 C 1720.448 1133.135,1729.900 1126.273,1768.907 1088.587 C 1820.598 1038.647,1853.502 991.901,1870.917 943.661 C 1890.335 889.874,1893.840 867.622,1893.864 798.000 C 1893.883 743.617,1892.500 728.891,1884.661 700.000 C 1873.195 657.738,1849.662 606.942,1826.577 574.626 C 1789.329 522.482,1716.361 462.171,1659.122 436.218 C 1612.827 415.227,1592.097 411.586,1508.000 409.674 C 1439.175 408.109,1426.471 408.839,1400.000 415.877 M461.911 711.241 C 440.140 721.460,420.702 741.712,409.431 765.916 C 400.365 785.385,400.077 789.277,400.039 893.000 L 400.000 1000.000 355.000 1000.095 C 330.250 1000.148,277.698 1001.907,238.217 1004.004 C 169.933 1007.631,165.571 1008.357,148.721 1018.908 C 138.979 1025.009,125.381 1037.827,118.504 1047.394 C 106.780 1063.702,106.000 1066.967,106.000 1099.736 C 106.000 1131.863,106.946 1136.049,117.714 1151.587 C 133.083 1173.764,148.827 1186.677,167.124 1192.110 C 175.361 1194.555,230.415 1197.554,290.486 1198.829 L 398.971 1201.131 401.124 1309.566 C 402.308 1369.205,405.202 1424.300,407.556 1432.000 C 413.458 1451.308,433.534 1474.523,453.387 1484.997 C 465.879 1491.588,476.946 1493.769,498.000 1493.791 C 530.316 1493.823,549.593 1486.140,571.060 1464.673 C 595.642 1440.091,596.837 1433.563,599.086 1311.565 L 601.121 1201.130 709.560 1198.828 C 769.600 1197.554,824.640 1194.555,832.876 1192.110 C 851.173 1186.677,866.917 1173.764,882.286 1151.587 C 893.054 1136.049,894.000 1131.863,894.000 1099.736 C 894.000 1066.967,893.220 1063.702,881.496 1047.394 C 874.619 1037.827,861.021 1025.009,851.279 1018.908 C 834.429 1008.357,830.067 1007.631,761.783 1004.004 C 722.302 1001.907,670.009 1000.148,645.575 1000.095 L 601.151 1000.000 598.839 891.000 C 596.428 777.323,594.009 759.755,578.177 740.940 C 553.094 711.131,494.196 696.086,461.911 711.241 M1406.000 1408.449 C 1261.781 1418.897,1064.214 1469.641,949.233 1525.770 C 848.169 1575.104,757.707 1647.576,729.256 1702.000 C 706.403 1745.716,702.641 1766.094,702.304 1848.000 C 701.952 1933.633,703.728 1939.931,737.931 1974.335 L 758.147 1994.669 906.074 1997.329 C 1093.907 2000.706,1703.966 2000.212,2004.000 1996.440 C 2255.321 1993.280,2245.391 1994.296,2268.543 1969.357 C 2293.994 1941.942,2302.318 1901.104,2298.579 1822.000 C 2294.823 1742.544,2285.154 1713.229,2248.059 1668.834 C 2155.743 1558.353,1967.006 1470.398,1728.000 1426.478 C 1640.408 1410.381,1493.146 1402.136,1406.000 1408.449 " fill="#1D1E23" stroke="none" fill-rule="evenodd"/></svg>