<svg viewBox="0 0 2400 2400" fill="none" xmlns="http://www.w3.org/2000/svg"><path d="M1951.783 215.462 C 1909.564 242.675,1900.000 267.194,1900.000 348.214 L 1900.000 398.748 1838.038 401.304 C 1795.919 403.042,1771.260 405.870,1761.038 410.133 C 1741.870 418.128,1721.592 437.547,1711.061 457.994 C 1699.737 479.979,1699.743 520.040,1711.073 542.006 C 1721.180 561.602,1745.847 585.909,1762.000 592.190 C 1768.600 594.757,1802.103 597.811,1836.450 598.978 L 1898.900 601.100 1901.022 663.550 C 1902.189 697.897,1905.243 731.400,1907.810 738.000 C 1914.036 754.010,1938.343 778.791,1957.532 788.692 C 1978.920 799.727,2021.080 799.727,2042.468 788.692 C 2061.657 778.791,2085.964 754.010,2092.190 738.000 C 2094.757 731.400,2097.811 697.897,2098.978 663.550 L 2101.100 601.100 2163.550 599.068 C 2205.850 597.691,2230.575 595.109,2240.178 591.065 C 2268.670 579.068,2300.000 531.375,2300.000 500.000 C 2300.000 467.491,2269.659 422.334,2239.786 410.381 C 2228.510 405.869,2204.469 403.058,2162.269 401.317 L 2101.096 398.793 2099.066 336.396 C 2096.744 265.052,2093.371 253.352,2068.701 231.091 C 2046.237 210.821,2028.007 204.000,1996.295 204.000 C 1973.679 204.000,1966.830 205.764,1951.783 215.462 M718.000 813.518 C 614.679 847.321,542.627 919.346,511.439 1020.000 C 499.474 1058.617,498.558 1131.782,509.540 1171.769 C 560.685 1357.995,760.067 1451.071,930.000 1368.048 C 1033.855 1317.308,1096.000 1216.917,1096.000 1099.887 C 1096.000 982.041,1033.443 883.251,926.000 831.420 C 884.333 811.320,848.793 804.113,792.000 804.248 C 755.085 804.336,740.470 806.167,718.000 813.518 M1518.000 813.518 C 1414.679 847.321,1342.627 919.346,1311.439 1020.000 C 1299.474 1058.617,1298.558 1131.782,1309.540 1171.769 C 1360.685 1357.995,1560.067 1451.071,1730.000 1368.048 C 1833.855 1317.308,1896.000 1216.917,1896.000 1099.887 C 1896.000 982.041,1833.443 883.251,1726.000 831.420 C 1684.333 811.320,1648.793 804.113,1592.000 804.248 C 1555.085 804.336,1540.470 806.167,1518.000 813.518 M1520.280 1618.622 C 1554.200 1646.612,1614.284 1710.170,1631.243 1736.000 C 1668.582 1792.871,1686.550 1840.897,1692.601 1900.000 C 1697.640 1949.222,1694.646 2153.972,1688.539 2177.779 C 1686.312 2186.458,1685.387 2195.008,1686.482 2196.779 C 1687.576 2198.551,1808.124 2200.000,1954.365 2200.000 C 2250.012 2200.000,2233.562 2201.473,2265.378 2172.146 C 2295.616 2144.274,2296.194 2141.656,2298.865 2020.496 L 2301.229 1913.256 2283.615 1879.628 C 2262.233 1838.808,2209.787 1783.719,2164.000 1753.987 C 2076.645 1697.261,1947.827 1650.532,1800.000 1621.946 C 1745.923 1611.488,1643.848 1604.368,1544.280 1604.109 L 1502.560 1604.000 1520.280 1618.622 M618.000 1618.290 C 347.787 1670.354,177.340 1759.385,116.056 1880.473 L 99.087 1914.000 101.289 2020.659 C 103.727 2138.791,104.626 2143.129,132.872 2173.079 C 157.392 2199.077,128.556 2198.000,800.000 2198.000 C 1471.444 2198.000,1442.608 2199.077,1467.128 2173.079 C 1495.351 2143.153,1496.257 2138.793,1498.870 2020.288 L 1501.229 1913.256 1483.615 1880.088 C 1449.056 1815.013,1388.509 1762.173,1296.202 1716.528 C 1214.813 1676.283,1133.025 1649.437,1018.000 1625.212 L 950.000 1610.891 810.000 1609.581 C 674.279 1608.311,668.411 1608.577,618.000 1618.290 " fill="#1D1E23" stroke="none" fill-rule="evenodd"/></svg>