<svg viewBox="0 0 2400 2400" fill="none" xmlns="http://www.w3.org/2000/svg"><path d="M1454.000 402.416 C 1284.744 427.496,1157.645 537.837,1113.184 698.294 C 1103.362 733.740,1102.182 744.651,1102.182 800.000 C 1102.182 855.127,1103.383 866.333,1113.020 901.089 C 1152.609 1043.874,1256.126 1147.391,1398.911 1186.980 C 1433.667 1196.617,1444.873 1197.818,1500.000 1197.818 C 1555.349 1197.818,1566.260 1196.638,1601.706 1186.816 C 1725.614 1152.482,1825.213 1064.324,1871.512 948.000 C 1940.036 775.840,1878.958 574.514,1726.871 471.233 C 1691.681 447.336,1634.311 421.411,1595.826 412.015 C 1562.970 403.992,1480.862 398.435,1454.000 402.416 M400.000 850.000 L 400.000 1000.000 250.000 1000.000 L 100.000 1000.000 100.000 1100.000 L 100.000 1200.000 250.000 1200.000 L 400.000 1200.000 400.000 1350.000 L 400.000 1500.000 500.000 1500.000 L 600.000 1500.000 600.000 1350.000 L 600.000 1200.000 750.000 1200.000 L 900.000 1200.000 900.000 1100.000 L 900.000 1000.000 750.000 1000.000 L 600.000 1000.000 600.000 850.000 L 600.000 700.000 500.000 700.000 L 400.000 700.000 400.000 850.000 M1412.000 1404.426 C 1284.040 1415.627,1123.275 1452.089,1014.944 1494.479 C 959.358 1516.231,894.499 1548.787,852.000 1576.269 C 801.326 1609.038,742.606 1668.201,725.088 1704.138 C 701.990 1751.524,700.000 1766.175,700.000 1888.840 L 700.000 2000.000 1500.264 2000.000 L 2300.528 2000.000 2299.190 1879.000 C 2297.858 1758.634,2297.795 1757.859,2287.143 1731.100 C 2235.641 1601.731,2047.403 1491.958,1778.000 1434.187 C 1636.833 1403.915,1523.306 1394.683,1412.000 1404.426 " fill="#1D1E23" stroke="none" fill-rule="evenodd"/></svg>