<svg viewBox="0 0 2400 2400" fill="none" xmlns="http://www.w3.org/2000/svg"><path d="M1437.798 405.695 C 1334.549 425.000,1250.378 473.866,1189.525 549.832 C 1061.483 709.673,1073.578 938.158,1217.710 1082.290 C 1303.139 1167.719,1421.336 1209.307,1543.000 1196.745 C 1695.671 1180.982,1829.146 1073.772,1877.587 928.000 C 1911.984 824.488,1904.680 719.398,1856.318 622.000 C 1809.412 527.533,1726.548 455.970,1622.698 420.240 C 1577.618 404.730,1482.836 397.274,1437.798 405.695 M400.000 850.000 L 400.000 1000.000 250.000 1000.000 L 100.000 1000.000 100.000 1100.000 L 100.000 1200.000 250.000 1200.000 L 400.000 1200.000 400.000 1350.000 L 400.000 1500.000 500.000 1500.000 L 600.000 1500.000 600.000 1350.000 L 600.000 1200.000 750.000 1200.000 L 900.000 1200.000 900.000 1100.000 L 900.000 1000.000 750.000 1000.000 L 600.000 1000.000 600.000 850.000 L 600.000 700.000 500.000 700.000 L 400.000 700.000 400.000 850.000 M1440.000 1402.485 C 1262.428 1415.107,1062.924 1466.237,929.207 1533.394 C 796.039 1600.275,717.834 1681.808,704.179 1768.000 C 701.914 1782.300,700.047 1840.350,700.030 1897.000 L 700.000 2000.000 1500.428 2000.000 L 2300.856 2000.000 2299.124 1879.000 C 2297.508 1765.997,2296.810 1756.507,2288.565 1735.417 C 2251.814 1641.402,2148.264 1559.699,1983.328 1494.578 C 1894.875 1459.654,1748.287 1424.082,1636.000 1410.293 C 1584.350 1403.950,1478.635 1399.739,1440.000 1402.485 " fill="#1D1E23" stroke="none" fill-rule="evenodd"/></svg>