<svg viewBox="0 0 2400 2400" fill="none" xmlns="http://www.w3.org/2000/svg"><path d="M1437.798 405.695 C 1334.549 425.000,1250.378 473.866,1189.525 549.832 C 1061.483 709.673,1073.578 938.158,1217.710 1082.290 C 1303.139 1167.719,1421.336 1209.307,1543.000 1196.745 C 1695.671 1180.982,1829.146 1073.772,1877.587 928.000 C 1911.984 824.488,1904.680 719.398,1856.318 622.000 C 1809.412 527.533,1726.548 455.970,1622.698 420.240 C 1577.618 404.730,1482.836 397.274,1437.798 405.695 M472.308 704.611 C 459.008 707.718,448.955 714.405,431.817 731.543 C 401.570 761.790,400.000 769.992,400.000 897.787 L 400.000 999.180 287.000 1000.792 C 161.230 1002.585,156.572 1003.452,130.979 1029.803 C 109.641 1051.775,102.239 1069.854,102.239 1100.000 C 102.239 1130.146,109.641 1148.225,130.979 1170.197 C 156.883 1196.869,161.171 1197.669,286.724 1199.237 L 399.448 1200.646 400.724 1313.323 C 402.131 1437.545,402.306 1438.482,429.448 1467.351 C 449.696 1488.887,470.191 1497.704,500.000 1497.704 C 529.809 1497.704,550.304 1488.887,570.552 1467.351 C 597.694 1438.482,597.869 1437.545,599.276 1313.323 L 600.552 1200.646 713.276 1199.237 C 838.829 1197.669,843.117 1196.869,869.021 1170.197 C 890.359 1148.225,897.761 1130.146,897.761 1100.000 C 897.761 1069.854,890.359 1051.775,869.021 1029.803 C 843.437 1003.461,838.737 1002.585,713.322 1000.795 L 600.643 999.188 599.236 886.594 C 597.687 762.614,596.764 757.379,572.109 732.725 C 545.964 706.579,508.752 696.097,472.308 704.611 M1440.000 1402.485 C 1305.102 1412.074,1122.091 1452.046,1012.000 1495.967 C 852.601 1559.558,739.134 1650.163,711.399 1736.000 C 700.827 1768.721,696.132 1884.099,703.858 1921.318 C 710.712 1954.330,735.075 1983.804,762.212 1991.913 C 779.352 1997.034,878.073 1997.826,1500.000 1997.826 C 2121.927 1997.826,2220.648 1997.034,2237.788 1991.913 C 2253.414 1987.244,2261.125 1981.639,2274.449 1965.266 C 2297.846 1936.515,2301.517 1916.000,2299.011 1828.000 C 2296.758 1748.909,2292.716 1732.971,2263.356 1687.417 C 2204.541 1596.159,2060.740 1511.680,1873.207 1458.214 C 1811.417 1440.598,1700.801 1418.251,1636.000 1410.293 C 1584.350 1403.950,1478.635 1399.739,1440.000 1402.485 " fill="#1D1E23" stroke="none" fill-rule="evenodd"/></svg>