<svg viewBox="0 0 2400 2400" fill="none" xmlns="http://www.w3.org/2000/svg"><path d="M1422.000 408.476 C 1331.016 432.250,1268.241 467.518,1211.896 526.515 C 1160.860 579.954,1125.536 646.124,1109.675 718.000 C 1098.587 768.245,1100.103 847.376,1113.093 896.476 C 1151.652 1042.211,1257.617 1148.278,1403.177 1186.834 C 1456.600 1200.985,1536.834 1201.835,1589.228 1188.803 C 1665.937 1169.725,1730.999 1132.560,1784.301 1077.373 C 1862.463 996.447,1897.551 909.102,1897.332 796.000 C 1897.225 740.574,1889.948 704.239,1867.895 649.021 C 1832.715 560.938,1762.580 486.581,1672.422 441.782 C 1616.698 414.093,1586.271 407.509,1506.000 405.769 C 1466.402 404.910,1431.317 406.041,1422.000 408.476 M449.579 717.000 C 424.663 733.760,409.080 756.527,404.028 783.546 C 401.813 795.396,400.000 848.661,400.000 901.913 L 400.000 998.733 289.000 1001.242 C 227.950 1002.621,171.803 1005.580,164.228 1007.817 C 147.290 1012.819,122.116 1036.582,111.073 1057.994 C 99.736 1079.973,99.736 1120.027,111.073 1142.006 C 121.974 1163.141,147.092 1187.030,164.228 1192.560 C 172.257 1195.150,224.118 1197.815,288.591 1198.949 L 399.181 1200.894 400.799 1311.447 C 402.177 1405.528,403.460 1424.384,409.412 1438.000 C 443.689 1516.419,556.311 1516.419,590.588 1438.000 C 596.540 1424.384,597.823 1405.528,599.201 1311.447 L 600.819 1200.894 711.409 1198.949 C 775.882 1197.815,827.743 1195.150,835.772 1192.560 C 852.767 1187.076,878.000 1163.191,888.692 1142.468 C 899.727 1121.080,899.727 1078.920,888.692 1057.532 C 877.857 1036.533,852.572 1012.779,835.772 1007.817 C 828.197 1005.580,772.250 1002.625,711.444 1001.251 L 600.889 998.752 598.919 888.376 C 597.754 823.128,595.094 772.052,592.411 763.451 C 587.102 746.429,559.023 719.042,537.781 710.166 C 529.421 706.673,511.292 704.000,495.964 704.000 C 472.066 704.000,466.646 705.519,449.579 717.000 M1368.000 1409.768 C 1214.707 1431.770,1075.019 1467.929,978.000 1510.720 C 850.483 1566.962,756.553 1641.436,721.611 1714.000 C 705.198 1748.085,698.467 1799.212,700.597 1873.603 C 701.890 1918.749,702.943 1924.423,714.050 1946.135 C 722.102 1961.874,731.837 1973.723,743.390 1981.845 L 760.680 1994.000 975.340 1997.253 C 1274.220 2001.782,2217.030 1997.587,2237.953 1991.636 C 2256.916 1986.241,2278.010 1965.183,2289.661 1940.014 C 2297.234 1923.654,2297.984 1914.839,2297.831 1844.000 C 2297.698 1782.792,2296.218 1761.264,2290.954 1744.000 C 2254.833 1625.532,2083.944 1513.347,1846.000 1451.898 C 1785.717 1436.330,1731.046 1425.056,1660.184 1413.579 C 1606.324 1404.856,1419.224 1402.415,1368.000 1409.768 " fill="#1D1E23" stroke="none" fill-rule="evenodd"/></svg>