<svg viewBox="0 0 2400 2400" fill="none" xmlns="http://www.w3.org/2000/svg"><path d="M1422.000 408.476 C 1331.016 432.250,1268.241 467.518,1211.896 526.515 C 1160.860 579.954,1125.536 646.124,1109.675 718.000 C 1098.587 768.245,1100.103 847.376,1113.093 896.476 C 1151.652 1042.211,1257.617 1148.278,1403.177 1186.834 C 1456.600 1200.985,1536.834 1201.835,1589.228 1188.803 C 1665.937 1169.725,1730.999 1132.560,1784.301 1077.373 C 1862.463 996.447,1897.551 909.102,1897.332 796.000 C 1897.225 740.574,1889.948 704.239,1867.895 649.021 C 1832.715 560.938,1762.580 486.581,1672.422 441.782 C 1616.698 414.093,1586.271 407.509,1506.000 405.769 C 1466.402 404.910,1431.317 406.041,1422.000 408.476 M400.000 850.000 L 400.000 1000.000 250.000 1000.000 L 100.000 1000.000 100.000 1100.000 L 100.000 1200.000 250.000 1200.000 L 400.000 1200.000 400.000 1350.000 L 400.000 1500.000 500.000 1500.000 L 600.000 1500.000 600.000 1350.000 L 600.000 1200.000 750.000 1200.000 L 900.000 1200.000 900.000 1100.000 L 900.000 1000.000 750.000 1000.000 L 600.000 1000.000 600.000 850.000 L 600.000 700.000 500.000 700.000 L 400.000 700.000 400.000 850.000 M1366.000 1410.103 C 1228.535 1427.986,1077.790 1467.347,975.891 1511.965 C 833.034 1574.517,738.969 1655.460,711.225 1739.711 C 703.340 1763.658,702.422 1776.422,700.924 1883.000 L 699.280 2000.000 1500.162 2000.000 L 2301.044 2000.000 2299.069 1879.000 C 2297.235 1766.560,2296.472 1756.377,2288.282 1735.058 C 2246.228 1625.588,2093.194 1522.133,1884.693 1462.222 C 1795.428 1436.573,1689.037 1415.674,1609.171 1408.101 C 1550.938 1402.578,1415.254 1403.696,1366.000 1410.103 " fill="#1D1E23" stroke="none" fill-rule="evenodd"/></svg>