<svg viewBox="0 0 2400 2400" fill="none" xmlns="http://www.w3.org/2000/svg"><path d="M1454.000 402.416 C 1284.744 427.496,1157.645 537.837,1113.184 698.294 C 1103.362 733.740,1102.182 744.651,1102.182 800.000 C 1102.182 855.127,1103.383 866.333,1113.020 901.089 C 1152.609 1043.874,1256.126 1147.391,1398.911 1186.980 C 1433.667 1196.617,1444.873 1197.818,1500.000 1197.818 C 1555.349 1197.818,1566.260 1196.638,1601.706 1186.816 C 1725.614 1152.482,1825.213 1064.324,1871.512 948.000 C 1940.036 775.840,1878.958 574.514,1726.871 471.233 C 1691.681 447.336,1634.311 421.411,1595.826 412.015 C 1562.970 403.992,1480.862 398.435,1454.000 402.416 M464.342 706.868 C 440.729 715.209,414.918 741.645,406.625 765.983 C 401.106 782.178,400.000 803.342,400.000 892.713 L 400.000 1000.000 292.713 1000.000 C 169.204 1000.000,157.672 1002.117,129.895 1029.895 C 90.768 1069.021,90.768 1130.979,129.895 1170.105 C 157.672 1197.883,169.204 1200.000,292.713 1200.000 L 400.000 1200.000 400.000 1307.287 C 400.000 1396.658,401.106 1417.822,406.625 1434.017 C 419.196 1470.911,460.361 1500.000,500.000 1500.000 C 539.639 1500.000,580.804 1470.911,593.375 1434.017 C 598.894 1417.822,600.000 1396.658,600.000 1307.287 L 600.000 1200.000 707.287 1200.000 C 830.796 1200.000,842.328 1197.883,870.105 1170.105 C 909.232 1130.979,909.232 1069.021,870.105 1029.895 C 842.328 1002.117,830.796 1000.000,707.287 1000.000 L 600.000 1000.000 600.000 892.713 C 600.000 769.204,597.883 757.672,570.105 729.895 C 542.352 702.141,502.370 693.437,464.342 706.868 M1412.000 1404.426 C 1284.040 1415.627,1123.275 1452.089,1014.944 1494.479 C 909.014 1535.931,831.948 1582.662,775.915 1639.421 C 713.070 1703.080,700.000 1738.668,700.000 1846.128 C 700.000 1926.915,704.225 1944.435,729.895 1970.105 C 762.298 2002.508,697.685 2000.000,1500.000 2000.000 C 2302.518 2000.000,2237.686 2002.524,2270.196 1970.014 C 2297.380 1942.830,2301.021 1925.838,2299.156 1834.866 C 2297.687 1763.221,2296.862 1756.173,2287.007 1731.100 C 2236.320 1602.143,2047.438 1491.965,1778.000 1434.187 C 1636.833 1403.915,1523.306 1394.683,1412.000 1404.426 " fill="#1D1E23" stroke="none" fill-rule="evenodd"/></svg>