<svg viewBox="0 0 2400 2400" fill="none" xmlns="http://www.w3.org/2000/svg"><path d="M1960.000 210.786 C 1939.193 221.358,1913.251 249.097,1907.806 266.595 C 1905.169 275.068,1902.144 308.299,1901.083 340.442 L 1899.155 398.883 1842.578 401.635 C 1774.771 404.934,1760.166 407.873,1741.743 421.925 C 1717.505 440.412,1706.406 461.448,1704.668 492.193 C 1702.764 525.897,1708.062 542.400,1728.094 565.157 C 1752.505 592.889,1762.853 596.134,1835.518 598.836 L 1898.810 601.190 1901.164 664.482 C 1903.828 736.123,1907.092 747.021,1932.853 770.295 C 1954.254 789.630,1970.895 796.000,2000.000 796.000 C 2029.105 796.000,2045.746 789.630,2067.147 770.295 C 2092.911 747.019,2096.172 736.127,2098.838 664.442 L 2101.193 601.109 2161.597 598.642 C 2194.818 597.286,2226.848 595.046,2232.774 593.665 C 2260.969 587.093,2300.000 532.543,2300.000 499.711 C 2300.000 479.649,2277.959 437.966,2259.477 423.074 C 2240.810 408.034,2226.320 404.987,2157.556 401.642 L 2101.112 398.896 2099.056 338.448 C 2096.329 258.267,2089.073 240.809,2048.577 216.991 C 2025.351 203.331,1980.813 200.211,1960.000 210.786 M732.674 810.133 C 699.865 817.255,649.088 842.297,614.950 868.193 C 566.944 904.609,525.373 967.649,509.485 1028.127 C 500.010 1064.191,500.256 1137.330,509.969 1172.000 C 537.765 1271.219,610.797 1350.300,703.863 1381.954 C 747.582 1396.823,791.764 1401.893,831.287 1396.574 C 955.630 1379.840,1047.688 1302.588,1084.604 1184.000 C 1098.122 1140.574,1098.118 1059.338,1084.595 1016.141 C 1075.176 986.054,1059.308 952.154,1044.275 930.004 C 1017.792 890.984,955.983 842.837,908.000 823.852 C 860.357 805.001,783.884 799.018,732.674 810.133 M1532.674 810.133 C 1499.865 817.255,1449.088 842.297,1414.950 868.193 C 1366.944 904.609,1325.373 967.649,1309.485 1028.127 C 1300.010 1064.191,1300.256 1137.330,1309.969 1172.000 C 1337.765 1271.219,1410.797 1350.300,1503.863 1381.954 C 1547.582 1396.823,1591.764 1401.893,1631.287 1396.574 C 1755.630 1379.840,1847.688 1302.588,1884.604 1184.000 C 1898.122 1140.574,1898.118 1059.338,1884.595 1016.141 C 1875.176 986.054,1859.308 952.154,1844.275 930.004 C 1817.792 890.984,1755.983 842.837,1708.000 823.852 C 1660.357 805.001,1583.884 799.018,1532.674 810.133 M1522.437 1620.638 C 1533.197 1629.789,1556.159 1651.839,1573.464 1669.638 C 1654.859 1753.357,1684.771 1817.085,1692.852 1924.000 C 1697.267 1982.417,1692.415 2173.597,1686.132 2188.756 C 1683.919 2194.093,1686.132 2196.033,1696.666 2197.994 C 1704.000 2199.358,1826.100 2199.918,1968.000 2199.238 C 2209.314 2198.080,2226.960 2197.523,2240.841 2190.620 C 2261.034 2180.578,2286.416 2152.158,2291.928 2133.419 C 2294.452 2124.835,2297.502 2072.640,2298.807 2015.680 L 2301.150 1913.359 2286.528 1885.680 C 2227.857 1774.616,2091.801 1692.687,1878.582 1640.028 C 1843.062 1631.256,1795.100 1621.430,1772.000 1618.192 C 1721.268 1611.081,1610.863 1604.092,1548.437 1604.039 L 1502.874 1604.000 1522.437 1620.638 M659.964 1612.109 C 586.233 1620.313,439.742 1658.856,362.439 1690.390 C 231.026 1743.996,152.972 1806.309,109.897 1892.000 L 98.838 1914.000 101.056 2016.000 C 103.455 2126.342,105.554 2138.838,126.240 2165.959 C 145.726 2191.507,152.334 2192.779,284.000 2196.334 C 436.824 2200.459,1163.176 2200.459,1316.000 2196.334 C 1447.666 2192.779,1454.274 2191.507,1473.760 2165.959 C 1494.755 2138.434,1496.687 2126.677,1498.744 2014.000 L 1500.642 1910.000 1481.321 1876.228 C 1413.975 1758.513,1260.865 1677.176,1004.000 1622.662 C 962.064 1613.762,946.162 1612.717,824.000 1610.833 C 750.300 1609.696,676.484 1610.270,659.964 1612.109 " fill="#1D1E23" stroke="none" fill-rule="evenodd"/></svg>