<svg viewBox="0 0 2400 2400" fill="none" xmlns="http://www.w3.org/2000/svg"><path d="M1400.000 415.877 C 1356.903 427.334,1287.558 463.107,1249.006 493.769 C 1177.394 550.725,1124.719 639.956,1107.820 732.936 C 1101.485 767.792,1102.426 840.427,1109.654 874.554 C 1127.200 957.392,1162.172 1022.780,1219.696 1080.304 C 1271.860 1132.468,1333.721 1167.554,1407.177 1186.636 C 1439.279 1194.976,1455.349 1196.733,1500.000 1196.785 C 1569.045 1196.865,1613.855 1186.041,1679.640 1153.389 C 1720.448 1133.135,1729.900 1126.273,1768.907 1088.587 C 1820.598 1038.647,1853.502 991.901,1870.917 943.661 C 1890.335 889.874,1893.840 867.622,1893.864 798.000 C 1893.883 743.617,1892.500 728.891,1884.661 700.000 C 1873.195 657.738,1849.662 606.942,1826.577 574.626 C 1789.329 522.482,1716.361 462.171,1659.122 436.218 C 1612.827 415.227,1592.097 411.586,1508.000 409.674 C 1439.175 408.109,1426.471 408.839,1400.000 415.877 M400.000 850.000 L 400.000 1000.000 250.000 1000.000 L 100.000 1000.000 100.000 1100.000 L 100.000 1200.000 250.000 1200.000 L 400.000 1200.000 400.000 1350.000 L 400.000 1500.000 500.000 1500.000 L 600.000 1500.000 600.000 1350.000 L 600.000 1200.000 750.000 1200.000 L 900.000 1200.000 900.000 1100.000 L 900.000 1000.000 750.000 1000.000 L 600.000 1000.000 600.000 850.000 L 600.000 700.000 500.000 700.000 L 400.000 700.000 400.000 850.000 M1401.130 1408.076 C 1306.634 1415.520,1154.623 1448.171,1055.120 1482.398 C 989.809 1504.863,902.624 1546.925,852.000 1580.391 C 807.837 1609.586,747.880 1667.983,729.169 1700.027 C 706.573 1738.724,703.663 1757.920,701.128 1885.000 L 698.834 2000.000 1499.417 2000.000 L 2300.000 2000.000 2299.905 1919.000 C 2299.772 1804.778,2294.945 1749.131,2282.900 1722.927 C 2269.850 1694.541,2229.853 1645.171,2199.200 1619.614 C 2078.298 1518.814,1874.694 1442.902,1648.282 1414.210 C 1587.068 1406.452,1461.356 1403.332,1401.130 1408.076 " fill="#1D1E23" stroke="none" fill-rule="evenodd"/></svg>