<svg viewBox="0 0 2400 2400" fill="none" xmlns="http://www.w3.org/2000/svg"><path d="M1442.000 408.332 C 1367.602 413.796,1266.668 466.569,1208.142 530.606 C 1109.296 638.760,1077.013 787.504,1122.601 924.740 C 1181.439 1101.862,1356.171 1215.269,1540.744 1196.130 C 1602.790 1189.696,1666.803 1166.174,1723.639 1128.924 C 1755.524 1108.026,1811.009 1050.902,1835.170 1014.099 C 1877.679 949.348,1895.859 885.086,1895.947 799.262 C 1896.026 723.782,1881.669 668.875,1844.370 602.000 C 1795.317 514.051,1684.768 431.195,1594.000 414.348 C 1557.541 407.582,1489.108 404.873,1442.000 408.332 M462.026 710.035 C 437.436 723.386,424.306 736.574,413.310 758.967 L 402.000 782.000 400.666 891.000 L 399.332 1000.000 348.666 1000.191 C 320.800 1000.297,267.625 1001.913,230.501 1003.784 C 165.144 1007.078,162.482 1007.551,146.613 1018.705 C 137.599 1025.040,124.773 1037.978,118.112 1047.456 C 106.846 1063.486,106.000 1067.154,106.000 1100.000 C 106.000 1132.798,106.854 1136.518,118.000 1152.275 C 124.600 1161.605,136.647 1174.591,144.771 1181.134 C 158.424 1192.128,162.967 1193.275,204.771 1196.283 C 229.647 1198.074,283.531 1199.642,324.513 1199.769 L 399.026 1200.000 400.833 1311.000 C 402.790 1431.149,403.748 1436.906,426.230 1463.572 C 471.105 1516.796,563.099 1501.424,591.233 1436.000 C 595.935 1425.065,597.667 1397.698,599.145 1311.000 L 601.037 1200.000 675.518 1199.769 C 716.483 1199.642,770.353 1198.074,795.229 1196.283 C 837.033 1193.275,841.576 1192.128,855.229 1181.134 C 863.353 1174.591,875.400 1161.605,882.000 1152.275 C 893.146 1136.518,894.000 1132.798,894.000 1100.000 C 894.000 1067.154,893.154 1063.486,881.888 1047.456 C 875.227 1037.978,862.401 1025.040,853.387 1018.705 C 837.518 1007.551,834.856 1007.078,769.499 1003.784 C 732.375 1001.913,679.050 1000.297,651.000 1000.191 L 600.000 1000.000 599.769 925.000 C 599.642 883.750,598.074 829.647,596.283 804.771 C 593.274 762.954,592.131 758.428,581.125 744.771 C 560.705 719.433,536.240 707.036,502.955 705.163 C 481.371 703.948,470.952 705.189,462.026 710.035 M1406.000 1408.202 C 1283.643 1415.025,1086.117 1463.030,973.122 1513.406 C 856.447 1565.421,756.407 1644.123,725.328 1708.345 C 705.439 1749.443,702.000 1770.327,702.000 1850.000 C 702.000 1917.305,702.607 1923.233,711.314 1940.912 C 716.437 1951.313,729.441 1967.747,740.212 1977.431 L 759.797 1995.039 998.898 1998.101 C 1258.124 2001.421,2171.810 1997.291,2218.962 1992.587 C 2245.552 1989.934,2249.244 1988.409,2264.031 1973.970 C 2289.071 1949.519,2295.369 1932.578,2298.224 1882.000 C 2299.590 1857.800,2298.946 1816.998,2296.792 1791.330 C 2291.249 1725.281,2277.318 1696.839,2224.446 1643.630 C 2134.649 1553.261,1986.108 1482.633,1796.000 1439.914 C 1699.595 1418.250,1650.675 1411.679,1558.000 1407.942 C 1507.400 1405.901,1464.200 1404.473,1462.000 1404.767 C 1459.800 1405.062,1434.600 1406.608,1406.000 1408.202 " fill="#1D1E23" stroke="none" fill-rule="evenodd"/></svg>