<svg viewBox="0 0 2400 2400" fill="none" xmlns="http://www.w3.org/2000/svg"><path d="M1442.000 408.332 C 1367.602 413.796,1266.668 466.569,1208.142 530.606 C 1109.296 638.760,1077.013 787.504,1122.601 924.740 C 1181.439 1101.862,1356.171 1215.269,1540.744 1196.130 C 1602.790 1189.696,1666.803 1166.174,1723.639 1128.924 C 1755.524 1108.026,1811.009 1050.902,1835.170 1014.099 C 1877.679 949.348,1895.859 885.086,1895.947 799.262 C 1896.026 723.782,1881.669 668.875,1844.370 602.000 C 1795.317 514.051,1684.768 431.195,1594.000 414.348 C 1557.541 407.582,1489.108 404.873,1442.000 408.332 M400.000 850.000 L 400.000 1000.000 250.000 1000.000 L 100.000 1000.000 100.000 1100.000 L 100.000 1200.000 250.000 1200.000 L 400.000 1200.000 400.000 1350.000 L 400.000 1500.000 500.000 1500.000 L 600.000 1500.000 600.000 1350.000 L 600.000 1200.000 750.000 1200.000 L 900.000 1200.000 900.000 1100.000 L 900.000 1000.000 750.000 1000.000 L 600.000 1000.000 600.000 850.000 L 600.000 700.000 500.000 700.000 L 400.000 700.000 400.000 850.000 M1396.000 1408.123 C 1313.829 1413.825,1164.385 1445.525,1066.848 1477.941 C 911.221 1529.664,789.609 1607.718,735.676 1690.498 C 705.692 1736.518,703.232 1750.169,700.978 1883.000 L 698.994 2000.000 1500.023 2000.000 L 2301.053 2000.000 2298.947 1881.000 C 2296.529 1744.359,2295.268 1737.518,2263.833 1690.519 C 2191.739 1582.729,2020.447 1490.786,1798.000 1440.476 C 1653.225 1407.734,1536.719 1398.357,1396.000 1408.123 " fill="#1D1E23" stroke="none" fill-rule="evenodd"/></svg>