<svg viewBox="0 0 2400 2400" fill="none" xmlns="http://www.w3.org/2000/svg"><path d="M1964.342 206.868 C 1954.630 210.299,1939.161 220.628,1929.967 229.823 C 1905.150 254.639,1900.000 274.041,1900.000 342.713 L 1900.000 400.000 1842.713 400.000 C 1774.096 400.000,1754.632 405.158,1729.895 429.895 C 1690.768 469.021,1690.768 530.979,1729.895 570.105 C 1754.632 594.842,1774.096 600.000,1842.713 600.000 L 1900.000 600.000 1900.000 657.287 C 1900.000 725.904,1905.158 745.368,1929.895 770.105 C 1969.021 809.232,2030.979 809.232,2070.105 770.105 C 2094.842 745.368,2100.000 725.904,2100.000 657.287 L 2100.000 600.000 2157.287 600.000 C 2225.904 600.000,2245.368 594.842,2270.105 570.105 C 2288.067 552.144,2300.000 524.160,2300.000 500.000 C 2300.000 475.840,2288.067 447.856,2270.105 429.895 C 2245.368 405.158,2225.904 400.000,2157.287 400.000 L 2100.000 400.000 2100.000 342.713 C 2100.000 274.096,2094.842 254.632,2070.105 229.895 C 2042.352 202.141,2002.370 193.437,1964.342 206.868 M762.000 802.226 C 757.600 803.245,744.180 806.073,732.178 808.510 C 683.549 818.385,625.474 851.053,586.773 890.301 C 501.598 976.680,477.199 1101.656,523.365 1215.098 C 552.108 1285.729,614.271 1347.892,684.902 1376.635 C 853.166 1445.111,1038.641 1353.752,1088.625 1177.774 C 1101.302 1133.140,1101.302 1066.860,1088.625 1022.226 C 1073.307 968.298,1051.136 930.840,1010.160 889.659 C 979.731 859.078,967.978 850.339,936.000 834.517 C 915.100 824.176,888.100 813.024,876.000 809.734 C 854.067 803.772,777.191 798.709,762.000 802.226 M1562.000 802.226 C 1557.600 803.245,1544.180 806.073,1532.178 808.510 C 1483.549 818.385,1425.474 851.053,1386.773 890.301 C 1301.598 976.680,1277.199 1101.656,1323.365 1215.098 C 1352.108 1285.729,1414.271 1347.892,1484.902 1376.635 C 1653.166 1445.111,1838.641 1353.752,1888.625 1177.774 C 1901.302 1133.140,1901.302 1066.860,1888.625 1022.226 C 1873.307 968.298,1851.136 930.840,1810.160 889.659 C 1779.731 859.078,1767.978 850.339,1736.000 834.517 C 1715.100 824.176,1688.100 813.024,1676.000 809.734 C 1654.067 803.772,1577.191 798.709,1562.000 802.226 M717.152 1604.087 C 596.396 1615.824,457.036 1649.242,356.655 1690.531 C 213.648 1749.354,123.596 1828.397,104.341 1912.000 C 102.061 1921.900,100.152 1971.529,100.098 2022.287 C 99.984 2129.259,102.746 2142.956,129.895 2170.105 C 162.127 2202.338,109.722 2200.000,800.000 2200.000 C 1490.278 2200.000,1437.873 2202.338,1470.105 2170.105 C 1497.254 2142.956,1500.016 2129.259,1499.902 2022.287 C 1499.848 1971.529,1497.939 1921.900,1495.659 1912.000 C 1476.872 1830.429,1389.714 1752.405,1252.000 1693.875 C 1172.253 1659.982,1050.192 1627.366,946.000 1612.108 C 881.658 1602.686,771.347 1598.820,717.152 1604.087 M1528.260 1603.394 L 1502.521 1606.000 1525.886 1623.601 C 1607.627 1685.181,1666.902 1772.568,1691.017 1867.051 C 1701.298 1907.332,1701.285 2134.465,1691.000 2170.577 C 1687.150 2184.095,1684.000 2196.245,1684.000 2197.577 C 1684.000 2198.910,1803.379 2200.000,1949.287 2200.000 C 2248.644 2200.000,2239.344 2200.867,2270.105 2170.105 C 2297.254 2142.956,2300.016 2129.259,2299.902 2022.287 C 2299.848 1971.529,2297.939 1921.900,2295.659 1912.000 C 2276.872 1830.429,2189.714 1752.405,2052.000 1693.875 C 1972.253 1659.982,1850.192 1627.366,1746.000 1612.108 C 1686.975 1603.465,1572.722 1598.892,1528.260 1603.394 " fill="#1D1E23" stroke="none" fill-rule="evenodd"/></svg>