<svg viewBox="0 0 2400 2400" fill="none" xmlns="http://www.w3.org/2000/svg"><path d="M1900.000 300.000 L 1900.000 400.000 1800.000 400.000 L 1700.000 400.000 1700.000 500.000 L 1700.000 600.000 1800.000 600.000 L 1900.000 600.000 1900.000 700.000 L 1900.000 800.000 2000.000 800.000 L 2100.000 800.000 2100.000 700.000 L 2100.000 600.000 2200.000 600.000 L 2300.000 600.000 2300.000 500.000 L 2300.000 400.000 2200.000 400.000 L 2100.000 400.000 2100.000 300.000 L 2100.000 200.000 2000.000 200.000 L 1900.000 200.000 1900.000 300.000 M732.674 810.133 C 699.865 817.255,649.088 842.297,614.950 868.193 C 566.944 904.609,525.373 967.649,509.485 1028.127 C 500.010 1064.191,500.256 1137.330,509.969 1172.000 C 537.765 1271.219,610.797 1350.300,703.863 1381.954 C 747.582 1396.823,791.764 1401.893,831.287 1396.574 C 955.630 1379.840,1047.688 1302.588,1084.604 1184.000 C 1098.122 1140.574,1098.118 1059.338,1084.595 1016.141 C 1075.176 986.054,1059.308 952.154,1044.275 930.004 C 1017.792 890.984,955.983 842.837,908.000 823.852 C 860.357 805.001,783.884 799.018,732.674 810.133 M1532.674 810.133 C 1499.865 817.255,1449.088 842.297,1414.950 868.193 C 1366.944 904.609,1325.373 967.649,1309.485 1028.127 C 1300.010 1064.191,1300.256 1137.330,1309.969 1172.000 C 1337.765 1271.219,1410.797 1350.300,1503.863 1381.954 C 1547.582 1396.823,1591.764 1401.893,1631.287 1396.574 C 1755.630 1379.840,1847.688 1302.588,1884.604 1184.000 C 1898.122 1140.574,1898.118 1059.338,1884.595 1016.141 C 1875.176 986.054,1859.308 952.154,1844.275 930.004 C 1817.792 890.984,1755.983 842.837,1708.000 823.852 C 1660.357 805.001,1583.884 799.018,1532.674 810.133 M1512.000 1606.048 C 1512.000 1607.867,1529.085 1625.391,1549.966 1644.988 C 1611.223 1702.480,1665.068 1782.225,1681.642 1840.000 C 1690.648 1871.397,1695.537 1940.258,1698.611 2079.000 L 1701.291 2200.000 2000.645 2200.000 L 2300.000 2200.000 2300.000 2055.886 L 2300.000 1911.772 2288.342 1888.678 C 2256.219 1825.042,2185.127 1760.286,2102.000 1718.943 C 2001.913 1669.165,1860.086 1628.358,1737.209 1613.985 C 1678.672 1607.137,1512.000 1601.263,1512.000 1606.048 M659.964 1612.109 C 586.233 1620.313,439.742 1658.856,362.439 1690.390 C 231.691 1743.725,152.872 1806.439,110.478 1890.867 L 100.000 1911.734 100.000 2055.867 L 100.000 2200.000 800.000 2200.000 L 1500.000 2200.000 1500.000 2055.000 L 1500.000 1910.000 1481.000 1876.228 C 1415.107 1759.105,1261.067 1677.219,1004.000 1622.662 C 962.064 1613.762,946.162 1612.717,824.000 1610.833 C 750.300 1609.696,676.484 1610.270,659.964 1612.109 " fill="#1D1E23" stroke="none" fill-rule="evenodd"/></svg>