<svg viewBox="0 0 2400 2400" fill="none" xmlns="http://www.w3.org/2000/svg"><path d="M1108.545 204.138 C 796.319 234.318,520.746 404.372,350.372 672.000 C 318.468 722.115,273.515 818.568,252.284 882.460 C 183.002 1090.954,183.002 1309.046,252.284 1517.540 C 300.974 1664.069,381.908 1794.313,493.797 1906.203 C 648.729 2061.134,839.618 2157.095,1060.000 2190.836 C 1123.622 2200.577,1275.859 2200.550,1337.463 2190.786 C 1401.612 2180.620,1463.274 2165.956,1515.596 2148.425 C 1858.696 2033.465,2112.820 1743.895,2181.460 1389.683 C 2289.531 831.998,1909.983 296.356,1346.700 211.616 C 1285.763 202.448,1165.192 198.663,1108.545 204.138 M1274.000 404.133 C 1456.349 421.235,1623.340 498.040,1755.450 625.571 C 2004.489 865.978,2070.161 1239.929,1917.944 1550.849 C 1796.348 1799.221,1559.627 1964.889,1282.000 1995.912 C 1085.155 2017.907,873.543 1957.479,710.000 1832.570 C 674.030 1805.098,606.674 1738.415,576.092 1700.000 C 537.021 1650.922,510.707 1609.106,481.701 1550.000 C 346.093 1273.664,382.928 942.169,576.152 700.000 C 606.996 661.343,669.507 599.393,708.000 569.335 C 866.875 445.271,1072.549 385.240,1274.000 404.133 M814.984 804.088 C 771.735 815.014,734.235 846.291,714.378 888.000 C 703.383 911.094,702.000 918.023,702.000 950.000 C 702.000 981.977,703.383 988.906,714.378 1012.000 C 730.110 1045.044,754.956 1069.890,788.000 1085.622 C 811.094 1096.617,818.023 1098.000,850.000 1098.000 C 881.977 1098.000,888.906 1096.617,912.000 1085.622 C 945.044 1069.890,969.890 1045.044,985.622 1012.000 C 996.617 988.906,998.000 981.977,998.000 950.000 C 998.000 917.964,996.631 911.137,985.566 888.000 C 961.046 836.727,914.188 804.789,859.175 801.852 C 843.129 800.996,823.243 802.002,814.984 804.088 M1514.984 804.088 C 1471.735 815.014,1434.235 846.291,1414.378 888.000 C 1403.383 911.094,1402.000 918.023,1402.000 950.000 C 1402.000 981.977,1403.383 988.906,1414.378 1012.000 C 1430.110 1045.044,1454.956 1069.890,1488.000 1085.622 C 1511.094 1096.617,1518.023 1098.000,1550.000 1098.000 C 1581.977 1098.000,1588.906 1096.617,1612.000 1085.622 C 1645.044 1069.890,1669.890 1045.044,1685.622 1012.000 C 1696.617 988.906,1698.000 981.977,1698.000 950.000 C 1698.000 917.964,1696.631 911.137,1685.566 888.000 C 1661.046 836.727,1614.188 804.789,1559.175 801.852 C 1543.129 800.996,1523.243 802.002,1514.984 804.088 M1128.000 1354.675 C 989.158 1373.205,858.608 1448.302,768.825 1561.284 C 716.771 1626.789,708.476 1655.542,733.693 1683.059 L 747.385 1698.000 1200.000 1698.000 L 1652.615 1698.000 1666.307 1683.059 C 1691.472 1655.599,1683.205 1626.759,1631.531 1561.732 C 1551.111 1460.533,1443.237 1392.180,1318.445 1363.353 C 1290.314 1356.854,1266.030 1354.691,1212.000 1353.870 C 1173.500 1353.285,1135.700 1353.648,1128.000 1354.675 " fill="#1D1E23" stroke="none" fill-rule="evenodd"/></svg>