<svg viewBox="0 0 2400 2400" fill="none" xmlns="http://www.w3.org/2000/svg"><path d="M1064.000 209.588 C 840.786 243.783,646.242 341.428,491.369 497.001 C 337.293 651.774,243.684 839.954,209.320 1064.000 C 199.513 1127.944,199.492 1271.819,209.281 1336.000 C 243.636 1561.251,337.128 1747.885,494.559 1905.489 C 702.194 2113.351,973.028 2215.373,1267.364 2196.602 C 1455.818 2184.583,1643.099 2115.706,1794.116 2002.877 C 2012.010 1840.082,2149.028 1609.685,2190.709 1336.000 C 2200.602 1271.037,2200.560 1123.474,2190.630 1060.812 C 2155.212 837.316,2057.243 643.650,1901.730 489.709 C 1758.133 347.564,1578.721 255.363,1368.000 215.424 C 1313.536 205.101,1117.814 201.344,1064.000 209.588 M1266.000 404.219 C 1510.640 425.302,1729.489 554.522,1864.401 757.547 C 2061.310 1053.868,2039.279 1442.225,1810.063 1715.408 C 1653.899 1901.527,1415.174 2007.575,1172.020 1998.846 C 1015.900 1993.241,861.732 1940.377,730.098 1847.311 C 690.853 1819.565,600.112 1731.929,571.356 1694.000 C 494.846 1593.087,441.151 1476.899,417.965 1362.085 C 360.620 1078.124,456.419 792.201,673.499 599.415 C 832.760 457.978,1051.938 385.771,1266.000 404.219 M788.857 813.698 C 760.824 827.045,726.294 862.133,712.856 890.927 C 703.615 910.727,702.099 919.156,702.173 950.348 C 702.251 983.083,703.535 989.287,715.095 1012.768 C 730.627 1044.317,759.436 1072.488,791.128 1087.117 C 810.463 1096.043,819.608 1097.686,850.269 1097.747 C 883.108 1097.811,889.010 1096.601,912.689 1084.944 C 944.320 1069.372,972.473 1040.598,987.117 1008.872 C 996.031 989.562,997.686 980.378,997.747 949.899 C 997.810 918.052,996.442 910.981,986.143 889.899 C 971.891 860.727,940.867 828.987,914.000 816.091 C 897.731 808.282,886.164 806.224,852.000 805.061 C 813.745 803.758,808.115 804.528,788.857 813.698 M1488.857 813.698 C 1460.824 827.045,1426.294 862.133,1412.856 890.927 C 1403.615 910.727,1402.099 919.156,1402.173 950.348 C 1402.251 983.083,1403.535 989.287,1415.095 1012.768 C 1430.627 1044.317,1459.436 1072.488,1491.128 1087.117 C 1510.463 1096.043,1519.608 1097.686,1550.269 1097.747 C 1583.108 1097.811,1589.010 1096.601,1612.689 1084.944 C 1644.320 1069.372,1672.473 1040.598,1687.117 1008.872 C 1696.031 989.562,1697.686 980.378,1697.747 949.899 C 1697.810 918.052,1696.442 910.981,1686.143 889.899 C 1671.891 860.727,1640.867 828.987,1614.000 816.091 C 1597.731 808.282,1586.164 806.224,1552.000 805.061 C 1513.745 803.758,1508.115 804.528,1488.857 813.698 M1072.619 1365.829 C 1004.368 1383.871,946.104 1410.141,889.240 1448.513 C 854.905 1471.682,787.703 1536.669,758.859 1574.597 C 737.080 1603.235,687.421 1691.826,690.423 1696.685 C 692.819 1700.560,1705.406 1701.261,1709.277 1697.390 C 1712.762 1693.905,1675.800 1625.439,1650.355 1588.247 C 1624.808 1550.906,1563.336 1488.010,1524.000 1458.965 C 1469.445 1418.683,1413.542 1391.262,1341.994 1369.688 C 1307.881 1359.402,1300.877 1358.759,1208.000 1357.391 C 1114.097 1356.008,1108.437 1356.361,1072.619 1365.829 " fill="#1D1E23" stroke="none" fill-rule="evenodd"/></svg>