<svg viewBox="0 0 2400 2400" fill="none" xmlns="http://www.w3.org/2000/svg"><path d="M785.330 207.404 C 713.403 232.260,680.232 313.339,713.866 382.084 C 734.838 424.949,773.773 447.422,838.000 453.734 C 1096.296 479.118,1354.827 597.371,1553.478 780.998 C 1764.142 975.727,1907.181 1251.471,1942.015 1530.000 C 1953.498 1621.819,1963.716 1647.647,1999.291 1674.781 C 2074.426 1732.089,2187.409 1683.716,2198.573 1589.461 C 2203.466 1548.145,2177.972 1393.597,2150.164 1296.000 C 2077.570 1041.218,1949.107 821.176,1766.000 637.973 C 1644.464 516.372,1522.104 428.779,1366.000 351.624 C 1209.370 274.209,1057.297 228.295,884.633 206.291 C 822.754 198.405,810.988 198.537,785.330 207.404 M285.330 707.144 C 248.021 720.507,221.988 746.217,207.706 783.807 C 200.258 803.408,200.001 819.698,200.016 1271.043 C 200.034 1788.948,199.422 1775.357,226.344 1855.838 C 252.440 1933.851,290.525 1994.865,350.275 2054.378 C 452.417 2156.115,605.813 2211.181,744.624 2195.942 C 836.389 2185.867,904.907 2161.525,977.470 2113.217 C 1121.900 2017.066,1205.529 1853.302,1198.698 1680.000 C 1191.492 1497.197,1084.515 1333.683,918.000 1250.958 C 787.036 1185.894,623.706 1184.049,492.604 1246.153 C 471.883 1255.969,454.351 1264.000,453.645 1264.000 C 452.939 1264.000,451.830 1159.150,451.180 1031.000 C 450.009 799.691,449.935 797.860,441.084 778.682 C 427.283 748.779,410.559 730.478,384.186 716.422 C 352.751 699.667,315.869 696.206,285.330 707.144 M796.587 712.300 C 761.051 719.287,727.209 747.388,710.482 783.797 C 697.355 812.372,698.581 859.037,713.244 888.897 C 724.963 912.763,747.169 934.898,770.496 945.967 C 778.006 949.531,809.767 957.697,841.075 964.114 C 1083.648 1013.830,1274.304 1162.156,1378.221 1382.000 C 1405.726 1440.189,1421.588 1488.778,1435.827 1558.461 C 1442.276 1590.025,1450.469 1621.994,1454.033 1629.504 C 1465.102 1652.831,1487.237 1675.037,1511.103 1686.756 C 1541.100 1701.487,1587.613 1702.650,1616.490 1689.391 C 1657.007 1670.787,1685.273 1631.702,1690.228 1587.428 C 1694.967 1545.083,1662.793 1413.425,1625.377 1322.057 C 1572.958 1194.050,1491.403 1073.705,1393.962 980.572 C 1250.917 843.853,1074.874 752.956,885.330 717.948 C 827.733 707.310,823.376 707.033,796.587 712.300 M780.000 1463.742 C 852.599 1488.765,909.716 1545.297,935.145 1617.295 C 948.654 1655.543,952.027 1722.085,942.369 1759.787 C 905.881 1902.212,756.053 1983.497,617.735 1935.909 C 539.524 1909.000,477.089 1839.918,458.070 1759.247 C 450.252 1726.085,450.390 1669.375,458.363 1638.577 C 481.260 1550.133,551.110 1480.130,638.404 1458.142 C 673.645 1449.265,746.341 1452.140,780.000 1463.742 " fill="#1D1E23" stroke="none" fill-rule="evenodd"/></svg>