<svg viewBox="0 0 2400 2400" fill="none" xmlns="http://www.w3.org/2000/svg"><path d="M771.750 215.877 C 727.488 238.739,702.700 278.271,702.700 326.000 C 702.700 359.303,711.821 382.923,734.276 407.779 C 759.740 435.964,784.544 444.996,878.012 460.118 C 1045.783 487.260,1156.474 524.389,1297.472 600.814 C 1547.517 736.346,1738.052 945.905,1853.174 1212.000 C 1893.585 1305.408,1910.186 1364.066,1938.078 1512.000 C 1958.088 1618.132,1964.597 1637.919,1987.197 1661.339 C 2034.922 1710.792,2114.983 1708.992,2164.803 1657.346 C 2205.610 1615.041,2207.708 1566.960,2175.672 1408.196 C 2133.881 1201.090,2046.400 997.609,1928.000 832.108 C 1877.703 761.803,1829.425 705.240,1762.102 637.740 C 1638.022 513.335,1539.027 442.289,1376.000 360.646 C 1212.636 278.834,1094.914 240.528,925.019 213.898 C 890.358 208.466,846.700 204.103,828.000 204.203 C 798.593 204.360,790.994 205.937,771.750 215.877 M282.978 709.454 C 261.301 717.562,233.638 741.655,216.700 767.179 L 202.000 789.330 202.350 1261.665 C 202.594 1591.388,204.092 1745.626,207.312 1772.505 C 212.165 1813.017,231.738 1875.862,252.009 1916.019 C 287.341 1986.011,354.931 2064.370,416.629 2106.868 C 548.353 2197.599,716.610 2221.292,860.935 2169.431 C 898.338 2155.991,955.554 2127.302,985.508 2106.969 C 1081.428 2041.858,1163.540 1915.331,1190.281 1791.432 C 1199.015 1750.964,1198.947 1652.607,1190.157 1610.809 C 1182.473 1574.272,1159.662 1507.029,1145.175 1478.211 C 1121.160 1430.438,1090.213 1389.040,1046.342 1346.000 C 978.383 1279.327,911.516 1241.714,818.000 1217.554 C 777.089 1206.984,768.664 1206.192,698.000 1206.269 C 609.736 1206.364,580.993 1211.768,504.775 1242.593 C 479.902 1252.653,458.302 1259.636,456.775 1258.112 C 455.249 1256.587,453.100 1151.538,452.000 1024.670 L 450.000 794.000 439.337 775.862 C 426.276 753.647,392.569 721.501,374.356 713.891 C 353.738 705.276,300.994 702.715,282.978 709.454 M795.802 713.296 C 740.641 728.634,702.403 779.273,703.206 835.923 C 703.616 864.808,717.133 900.867,733.800 917.533 C 752.559 936.292,775.435 945.765,855.820 968.059 C 946.550 993.222,986.866 1007.882,1039.660 1034.909 C 1184.022 1108.811,1290.136 1215.806,1365.487 1363.438 C 1396.835 1424.857,1405.716 1448.714,1429.997 1536.743 C 1455.461 1629.058,1462.786 1646.175,1485.975 1667.550 C 1528.985 1707.196,1608.937 1705.232,1651.092 1663.494 C 1699.100 1615.961,1699.720 1550.853,1653.529 1407.401 C 1620.991 1306.346,1581.497 1223.561,1527.553 1143.335 C 1381.205 925.685,1148.908 771.596,890.000 720.430 C 831.330 708.836,816.014 707.676,795.802 713.296 M759.503 1462.261 C 822.945 1476.831,887.455 1526.050,916.927 1582.369 C 937.510 1621.701,944.000 1649.900,944.000 1700.000 C 944.000 1772.612,926.644 1816.370,877.367 1868.000 C 845.820 1901.054,817.884 1919.751,776.966 1935.197 C 739.234 1949.440,667.849 1950.357,625.834 1937.138 C 556.315 1915.266,492.469 1852.579,467.577 1781.756 C 456.825 1751.167,452.783 1679.076,459.812 1643.301 C 473.021 1576.084,524.674 1511.905,593.432 1477.279 C 643.116 1452.258,695.370 1447.533,759.503 1462.261 " fill="#1D1E23" stroke="none" fill-rule="evenodd"/></svg>