<svg viewBox="0 0 2400 2400" fill="none" xmlns="http://www.w3.org/2000/svg"><path d="M786.792 209.491 C 752.665 222.303,721.158 253.112,709.304 285.264 C 702.312 304.231,703.028 347.723,710.705 370.253 C 715.129 383.236,724.440 396.962,738.069 410.591 C 755.439 427.961,763.766 432.830,790.364 441.169 C 807.764 446.624,840.900 454.167,864.000 457.930 C 1028.548 484.738,1126.267 514.999,1252.466 578.230 C 1526.555 715.560,1724.151 923.228,1849.788 1206.000 C 1890.380 1297.363,1906.562 1352.969,1935.925 1502.000 C 1959.218 1620.223,1964.971 1637.301,1989.953 1662.389 C 2016.256 1688.803,2041.309 1697.738,2081.785 1695.141 C 2131.739 1691.935,2175.473 1659.564,2190.487 1614.682 C 2210.666 1554.362,2175.824 1361.033,2113.935 1189.922 C 2025.731 946.050,1885.774 742.577,1682.579 562.805 C 1564.422 458.269,1401.397 362.432,1219.824 290.768 C 1077.823 234.722,838.991 189.895,786.792 209.491 M274.638 713.747 C 252.206 725.897,232.168 744.735,215.698 769.157 L 198.945 794.000 201.639 1272.000 C 203.121 1534.900,205.990 1761.712,208.014 1776.026 C 221.536 1871.640,266.681 1959.966,343.120 2040.357 C 405.361 2105.817,462.261 2142.377,544.162 2169.534 C 664.124 2209.311,785.799 2203.924,897.843 2153.876 C 963.975 2124.336,997.933 2101.770,1042.121 2058.000 C 1116.224 1984.599,1168.970 1888.951,1189.941 1789.949 C 1196.912 1757.039,1197.980 1658.574,1191.780 1620.364 C 1186.078 1585.219,1158.447 1503.944,1140.666 1470.014 C 1120.224 1431.006,1086.093 1386.152,1049.320 1349.971 C 978.038 1279.836,911.994 1242.342,816.324 1217.696 C 776.556 1207.452,772.753 1207.200,686.677 1209.108 C 589.436 1211.263,581.769 1212.618,511.111 1240.155 C 488.749 1248.870,467.486 1256.000,463.860 1256.000 C 458.050 1256.000,456.955 1246.670,454.634 1177.357 C 453.185 1134.103,452.000 1031.431,452.000 949.197 C 452.000 809.795,451.482 798.677,444.349 784.841 C 433.424 763.648,410.282 737.963,388.642 723.012 C 370.974 710.804,367.807 710.066,328.000 708.862 C 295.905 707.892,283.320 709.044,274.638 713.747 M777.447 720.433 C 734.580 741.239,708.145 779.049,704.916 824.174 C 701.167 876.568,725.380 921.284,767.252 939.297 C 777.739 943.808,823.148 958.339,868.160 971.588 C 958.340 998.132,983.014 1007.382,1039.720 1035.904 C 1172.826 1102.856,1272.538 1199.434,1350.813 1337.221 C 1384.029 1395.690,1401.699 1439.911,1428.410 1531.415 C 1441.669 1576.837,1455.716 1621.200,1459.626 1630.000 C 1470.125 1653.630,1486.479 1671.048,1509.521 1683.141 C 1537.755 1697.957,1587.492 1698.548,1618.967 1684.441 C 1643.144 1673.604,1665.190 1651.005,1677.451 1624.490 C 1690.248 1596.813,1689.021 1536.204,1674.525 1480.000 C 1605.501 1212.364,1460.553 1006.628,1239.618 862.700 C 1138.515 796.836,1019.843 748.309,895.861 722.132 C 837.317 709.771,800.502 709.243,777.447 720.433 M761.955 1463.989 C 839.515 1483.825,907.387 1545.538,932.697 1619.238 C 944.978 1654.999,945.777 1736.236,934.233 1775.345 C 914.285 1842.927,841.285 1915.009,770.701 1936.820 C 728.339 1949.910,661.051 1949.204,621.592 1935.256 C 583.622 1921.833,553.769 1901.344,521.084 1866.272 C 478.117 1820.168,462.335 1782.130,457.415 1712.817 C 451.556 1630.269,480.651 1562.787,545.378 1508.800 C 567.975 1489.952,613.409 1466.314,638.207 1460.504 C 667.341 1453.678,728.357 1455.396,761.955 1463.989 " fill="#1D1E23" stroke="none" fill-rule="evenodd"/></svg>