<svg viewBox="0 0 2400 2400" fill="none" xmlns="http://www.w3.org/2000/svg"><path d="M797.752 203.750 C 777.348 208.634,743.852 228.886,731.606 243.743 C 693.996 289.370,691.205 350.333,724.509 398.739 C 748.029 432.925,782.670 447.286,867.347 457.956 C 1113.798 489.009,1348.399 598.276,1545.012 773.581 C 1667.417 882.721,1783.940 1046.801,1851.915 1205.745 C 1896.264 1309.444,1920.919 1397.616,1940.330 1521.934 C 1954.814 1614.693,1962.618 1638.832,1985.522 1661.723 C 2011.029 1687.215,2036.116 1697.687,2072.084 1697.857 C 2098.260 1697.981,2105.688 1696.267,2129.256 1684.665 C 2180.768 1659.305,2203.342 1615.983,2198.235 1552.284 C 2191.760 1471.522,2165.833 1344.749,2137.616 1255.873 C 2061.544 1016.267,1943.556 819.214,1772.822 646.626 C 1645.074 517.490,1532.685 436.067,1370.000 354.791 C 1208.987 274.351,1061.409 229.677,878.795 206.096 C 828.001 199.537,816.721 199.210,797.752 203.750 M298.000 703.505 C 261.359 713.030,228.962 739.556,211.905 774.000 L 202.000 794.000 200.786 1236.000 C 199.471 1714.298,201.111 1771.333,217.838 1829.054 C 257.266 1965.112,349.112 2078.314,471.258 2141.400 C 587.062 2201.211,712.317 2213.695,838.448 2177.999 C 884.896 2164.854,954.993 2130.165,994.901 2100.575 C 1135.470 1996.349,1214.313 1822.317,1196.753 1655.023 C 1174.427 1442.317,1027.005 1268.889,824.954 1217.634 C 709.074 1188.239,595.771 1198.901,486.236 1249.509 C 468.987 1257.479,454.387 1264.000,453.792 1264.000 C 453.197 1264.000,452.060 1159.150,451.265 1031.000 L 449.819 798.000 440.382 776.920 C 428.487 750.348,395.188 719.201,369.211 710.350 C 345.823 702.381,314.067 699.328,298.000 703.505 M792.368 714.343 C 704.112 738.074,672.463 844.507,732.137 916.901 C 748.980 937.335,777.460 949.841,839.755 964.159 C 910.113 980.330,960.832 996.774,1010.000 1019.353 C 1168.224 1092.015,1284.966 1203.181,1363.708 1356.168 C 1400.121 1426.916,1413.395 1463.577,1432.440 1546.000 C 1451.149 1626.973,1462.451 1651.959,1489.676 1672.535 C 1513.682 1690.679,1537.977 1698.099,1572.000 1697.678 C 1629.279 1696.970,1675.328 1656.829,1688.312 1596.290 C 1695.527 1562.643,1677.916 1473.638,1644.723 1376.000 C 1574.759 1170.196,1436.647 990.996,1254.000 869.037 C 1135.371 789.825,1005.614 738.462,862.476 714.057 C 820.412 706.885,820.101 706.886,792.368 714.343 M738.000 1456.183 C 827.063 1466.368,908.921 1535.311,935.997 1622.942 C 946.503 1656.943,950.205 1711.957,944.301 1746.346 C 928.695 1837.249,850.485 1918.724,756.076 1942.427 C 716.844 1952.277,650.900 1948.562,614.000 1934.423 C 542.002 1906.835,485.998 1847.358,462.944 1774.000 C 450.237 1733.570,450.383 1661.068,463.247 1623.499 C 497.476 1523.525,586.476 1455.820,688.000 1452.521 C 695.700 1452.270,718.200 1453.918,738.000 1456.183 " fill="#1D1E23" stroke="none" fill-rule="evenodd"/></svg>