<svg viewBox="0 0 2400 2400" fill="none" xmlns="http://www.w3.org/2000/svg"><path d="M791.875 205.929 C 781.907 209.121,763.907 218.603,751.875 227.002 C 734.605 239.059,727.076 248.007,716.111 269.515 C 704.050 293.171,702.222 300.565,702.222 325.688 C 702.222 350.258,704.186 358.609,715.251 381.084 C 738.653 428.622,770.818 444.365,875.888 459.711 C 1021.146 480.926,1125.682 513.636,1256.474 578.797 C 1380.716 640.694,1493.757 721.313,1586.039 813.836 C 1732.179 960.358,1845.146 1151.146,1903.507 1350.000 C 1914.704 1388.153,1929.466 1457.945,1941.602 1530.111 C 1956.043 1615.980,1963.993 1639.259,1986.435 1661.383 C 2008.034 1682.678,2023.570 1690.713,2054.027 1696.344 C 2097.660 1704.410,2148.018 1683.406,2175.808 1645.549 C 2202.555 1609.113,2204.552 1573.001,2185.958 1461.987 C 2161.304 1314.799,2118.714 1180.304,2054.068 1045.501 C 1976.052 882.813,1874.714 744.004,1738.660 613.462 C 1620.842 500.419,1516.607 428.063,1362.000 352.001 C 1211.228 277.825,1078.633 235.962,920.000 212.451 C 839.631 200.540,812.952 199.182,791.875 205.929 M274.000 713.209 C 249.954 724.769,218.423 757.505,207.456 782.298 C 199.600 800.057,199.503 807.640,201.104 1277.167 C 202.857 1791.416,202.518 1783.232,224.768 1849.671 C 304.370 2087.361,542.398 2232.257,784.000 2190.096 C 850.607 2178.472,925.677 2147.606,984.510 2107.653 C 1084.360 2039.847,1163.195 1918.946,1190.336 1792.000 C 1200.212 1745.809,1200.334 1658.583,1190.587 1612.000 C 1146.236 1400.020,995.435 1249.616,787.704 1210.176 C 744.640 1202.000,657.224 1201.796,612.000 1209.767 C 574.254 1216.419,523.920 1232.573,483.286 1251.075 C 468.593 1257.765,455.543 1262.210,454.286 1260.953 C 453.029 1259.695,451.982 1155.917,451.961 1030.333 L 451.922 802.000 442.213 781.147 C 430.691 756.399,403.541 728.059,379.381 715.559 C 366.450 708.869,353.295 706.187,328.000 705.081 C 298.462 703.790,291.375 704.856,274.000 713.209 M798.938 712.352 C 760.796 721.338,729.451 747.238,712.647 783.654 C 693.914 824.248,700.651 875.877,729.639 913.882 C 744.742 933.684,774.869 946.990,847.120 965.771 C 929.335 987.142,966.343 999.606,1015.541 1022.495 C 1173.827 1096.133,1288.477 1208.730,1370.455 1371.053 C 1399.041 1427.656,1413.457 1468.719,1433.981 1552.000 C 1441.842 1583.900,1453.625 1621.046,1460.164 1634.546 C 1477.014 1669.331,1504.428 1688.820,1545.587 1695.274 C 1626.051 1707.892,1689.756 1652.062,1688.860 1569.712 C 1688.141 1503.674,1645.896 1363.238,1596.296 1262.000 C 1496.494 1058.294,1339.637 902.218,1134.000 802.004 C 1045.566 758.908,976.992 736.569,870.797 716.262 C 823.734 707.262,821.143 707.121,798.938 712.352 M732.022 1456.240 C 833.911 1469.016,920.261 1546.009,940.355 1642.000 C 948.749 1682.095,946.824 1745.555,936.291 1776.000 C 908.645 1855.911,835.528 1923.006,755.544 1941.860 C 723.394 1949.439,677.966 1949.549,642.971 1942.133 C 563.965 1925.391,489.325 1855.051,464.180 1773.642 C 454.747 1743.100,452.371 1672.043,459.690 1639.381 C 479.456 1551.183,563.880 1471.286,653.002 1456.434 C 682.771 1451.474,693.795 1451.446,732.022 1456.240 " fill="#1D1E23" stroke="none" fill-rule="evenodd"/></svg>