<svg viewBox="0 0 2400 2400" fill="none" xmlns="http://www.w3.org/2000/svg"><path d="M1037.014 213.841 C 1011.621 221.774,984.383 240.817,955.275 270.989 C 904.903 323.201,904.091 327.156,901.192 534.356 L 898.893 698.711 716.446 701.351 C 616.101 702.803,492.600 703.993,442.000 703.995 L 350.000 704.000 316.789 722.758 C 275.287 746.198,236.174 786.221,214.617 827.307 L 199.241 856.614 201.114 1435.307 C 202.418 1838.092,204.360 2022.261,207.502 2041.176 C 209.986 2056.123,215.839 2075.923,220.509 2085.176 C 233.152 2110.225,293.394 2167.697,322.000 2182.000 L 346.000 2194.000 582.000 2196.587 C 941.372 2200.527,1891.958 2200.174,1979.513 2196.069 C 2052.455 2192.649,2058.353 2191.779,2079.513 2181.317 C 2105.872 2168.286,2161.448 2115.063,2177.389 2087.587 C 2183.971 2076.244,2189.770 2057.815,2192.495 2039.587 C 2195.496 2019.518,2197.537 1824.584,2198.839 1433.617 L 2200.760 857.233 2189.902 835.617 C 2162.493 781.048,2130.781 748.505,2075.668 718.389 L 2049.336 704.000 1955.324 704.000 C 1903.618 704.000,1780.018 702.807,1680.657 701.348 L 1500.000 698.696 1499.796 566.348 C 1499.538 398.221,1496.533 356.621,1482.423 325.801 C 1461.669 280.467,1423.739 242.191,1375.192 217.590 L 1356.266 208.000 1205.133 208.268 C 1091.411 208.469,1049.795 209.849,1037.014 213.841 M1288.781 410.748 L 1300.000 421.497 1300.000 650.000 L 1300.000 878.503 1288.781 889.252 L 1277.562 900.000 1200.000 900.000 L 1122.438 900.000 1111.219 889.252 L 1100.000 878.503 1100.000 650.471 L 1100.000 422.438 1110.748 411.219 L 1121.497 400.000 1199.529 400.000 L 1277.562 400.000 1288.781 410.748 M1771.227 1206.690 C 1791.727 1210.232,1797.337 1222.520,1797.145 1263.459 C 1796.919 1311.591,1792.725 1338.866,1785.101 1341.791 C 1760.598 1351.194,1554.077 1355.448,1460.838 1348.470 C 1404.722 1344.270,1406.000 1345.944,1406.000 1276.696 C 1406.000 1229.748,1407.095 1219.998,1413.456 1210.279 L 1420.913 1198.888 1589.456 1201.647 C 1682.155 1203.164,1763.952 1205.433,1771.227 1206.690 M951.185 1214.128 C 975.296 1221.289,1014.370 1254.969,1030.503 1282.498 C 1040.159 1298.975,1040.577 1302.217,1039.320 1350.897 C 1037.763 1411.168,1034.466 1419.997,1000.762 1454.140 C 967.415 1487.922,951.745 1494.000,898.000 1494.000 C 857.550 1494.000,852.548 1493.142,836.000 1483.368 C 811.556 1468.930,779.270 1435.614,767.605 1412.792 C 759.042 1396.038,758.052 1389.155,758.482 1349.332 C 758.884 1312.182,760.441 1301.616,767.732 1286.553 C 777.987 1265.369,801.865 1240.383,829.947 1221.449 C 849.312 1208.392,851.069 1208.000,890.221 1208.000 C 914.797 1208.000,938.608 1210.394,951.185 1214.128 M1771.227 1506.690 C 1791.727 1510.232,1797.337 1522.520,1797.145 1563.459 C 1796.919 1611.591,1792.725 1638.866,1785.101 1641.791 C 1760.598 1651.194,1554.077 1655.448,1460.838 1648.470 C 1404.722 1644.270,1406.000 1645.944,1406.000 1576.696 C 1406.000 1529.748,1407.095 1519.998,1413.456 1510.279 L 1420.913 1498.888 1589.456 1501.647 C 1682.155 1503.164,1763.952 1505.433,1771.227 1506.690 M1016.202 1593.385 C 1087.844 1611.669,1156.620 1648.359,1180.158 1680.853 C 1195.229 1701.658,1201.971 1733.824,1195.949 1756.188 C 1189.331 1780.768,1177.371 1790.678,1149.537 1794.645 C 1119.151 1798.976,654.331 1797.677,636.365 1793.211 C 617.056 1788.411,606.859 1772.816,604.848 1745.010 C 602.201 1708.417,609.297 1689.214,634.259 1665.415 C 672.193 1629.249,759.066 1593.135,830.000 1584.044 C 879.777 1577.664,972.911 1582.337,1016.202 1593.385 " fill="#1D1E23" stroke="none" fill-rule="evenodd"/></svg>