<svg viewBox="0 0 2400 2400" fill="none" xmlns="http://www.w3.org/2000/svg"><path d="M1081.752 203.555 C 1050.840 205.674,1041.070 208.232,1015.389 220.924 C 965.187 245.735,929.605 285.293,911.262 336.685 C 902.525 361.162,902.180 367.574,900.812 530.419 L 899.397 698.838 625.927 700.884 L 352.457 702.931 318.432 719.786 C 265.562 745.977,232.927 780.876,211.629 834.000 L 202.007 858.000 200.811 1408.000 C 200.154 1710.500,201.193 1979.978,203.121 2006.840 C 206.342 2051.728,207.849 2058.156,221.745 2086.272 C 241.863 2126.980,273.181 2158.216,314.202 2178.490 C 343.649 2193.043,347.895 2193.986,395.634 2196.575 C 423.335 2198.077,785.300 2199.306,1200.000 2199.306 C 1614.700 2199.306,1976.665 2198.077,2004.366 2196.575 C 2052.105 2193.986,2056.351 2193.043,2085.798 2178.490 C 2126.819 2158.216,2158.137 2126.980,2178.255 2086.272 C 2192.151 2058.156,2193.658 2051.728,2196.879 2006.840 C 2198.807 1979.978,2199.846 1710.500,2199.189 1408.000 L 2197.993 858.000 2188.371 834.000 C 2167.073 780.876,2134.438 745.977,2081.568 719.786 L 2047.543 702.931 1774.038 700.884 L 1500.532 698.837 1499.174 528.419 C 1497.831 359.796,1497.716 357.747,1488.283 334.000 C 1475.371 301.497,1462.576 281.990,1439.290 259.308 C 1418.836 239.385,1379.983 215.818,1356.000 208.786 C 1339.387 203.915,1133.704 199.992,1081.752 203.555 M1288.781 410.748 L 1300.000 421.497 1300.000 650.000 L 1300.000 878.503 1288.781 889.252 L 1277.562 900.000 1200.000 900.000 L 1122.438 900.000 1111.219 889.252 L 1100.000 878.503 1100.000 650.471 L 1100.000 422.438 1110.748 411.219 L 1121.497 400.000 1199.529 400.000 L 1277.562 400.000 1288.781 410.748 M1791.215 1216.000 C 1800.268 1229.295,1800.671 1232.567,1799.227 1281.004 C 1797.474 1339.752,1795.656 1343.358,1765.263 1348.356 C 1740.186 1352.479,1459.814 1352.479,1434.737 1348.356 C 1403.356 1343.196,1402.000 1340.206,1402.000 1276.199 C 1402.000 1222.885,1402.388 1220.261,1411.735 1210.297 L 1421.470 1199.919 1601.577 1200.960 L 1781.683 1202.000 1791.215 1216.000 M967.423 1217.487 C 994.972 1231.731,1019.025 1256.643,1033.954 1286.394 C 1044.558 1307.528,1045.809 1313.980,1045.899 1348.000 C 1045.991 1382.530,1044.836 1388.457,1033.257 1412.899 C 1018.071 1444.957,992.353 1471.325,961.595 1486.373 C 942.223 1495.851,934.600 1497.220,900.725 1497.300 C 866.793 1497.381,859.203 1496.056,839.401 1486.595 C 809.919 1472.510,787.431 1451.640,770.048 1422.235 C 756.066 1398.582,756.000 1398.244,756.038 1350.235 C 756.074 1303.856,756.543 1301.184,768.226 1280.811 C 785.094 1251.398,808.296 1229.452,837.322 1215.456 C 860.736 1204.167,864.152 1203.630,904.000 1204.984 C 940.436 1206.221,948.838 1207.878,967.423 1217.487 M1791.215 1516.000 C 1800.268 1529.295,1800.671 1532.567,1799.227 1581.004 C 1797.474 1639.752,1795.656 1643.358,1765.263 1648.356 C 1740.186 1652.479,1459.814 1652.479,1434.737 1648.356 C 1403.356 1643.196,1402.000 1640.206,1402.000 1576.199 C 1402.000 1522.885,1402.388 1520.261,1411.735 1510.297 L 1421.470 1499.919 1601.577 1500.960 L 1781.683 1502.000 1791.215 1516.000 M954.000 1580.141 C 1008.030 1586.258,1061.170 1601.602,1107.833 1624.562 C 1179.084 1659.618,1205.030 1694.935,1198.715 1748.262 C 1196.047 1770.789,1188.226 1784.387,1173.365 1792.338 C 1158.969 1800.041,644.341 1800.833,627.209 1793.179 C 604.378 1782.977,594.655 1746.956,604.102 1707.573 C 615.404 1660.462,685.329 1614.730,780.679 1592.091 C 845.168 1576.779,894.349 1573.388,954.000 1580.141 " fill="#1D1E23" stroke="none" fill-rule="evenodd"/></svg>