<svg viewBox="0 0 2400 2400" fill="none" xmlns="http://www.w3.org/2000/svg"><path d="M1068.000 202.538 C 1006.716 213.148,946.275 258.565,920.416 313.438 C 901.304 353.992,900.000 368.469,900.000 540.039 L 900.000 699.684 629.000 700.842 L 358.000 702.000 334.000 711.568 C 265.918 738.710,218.212 793.062,204.420 859.197 C 198.189 889.080,198.189 2010.920,204.420 2040.803 C 220.053 2115.765,284.235 2179.947,359.197 2195.580 C 389.211 2201.839,2010.789 2201.839,2040.803 2195.580 C 2115.765 2179.947,2179.947 2115.765,2195.580 2040.803 C 2201.811 2010.920,2201.811 889.080,2195.580 859.197 C 2181.788 793.062,2134.082 738.710,2066.000 711.568 L 2042.000 702.000 1771.000 700.842 L 1500.000 699.684 1500.000 540.039 C 1500.000 438.942,1498.379 372.620,1495.580 359.197 C 1481.777 293.008,1433.797 238.387,1366.000 211.683 C 1342.641 202.482,1338.477 202.210,1210.000 201.518 C 1137.400 201.127,1073.500 201.586,1068.000 202.538 M1288.308 411.692 L 1300.000 423.385 1300.000 650.000 L 1300.000 876.615 1288.308 888.308 L 1276.615 900.000 1200.000 900.000 L 1123.385 900.000 1111.692 888.308 L 1100.000 876.615 1100.000 650.000 L 1100.000 423.385 1111.692 411.692 L 1123.385 400.000 1200.000 400.000 L 1276.615 400.000 1288.308 411.692 M952.000 1209.913 C 991.650 1223.877,1024.298 1257.005,1040.211 1299.421 C 1053.297 1334.303,1050.349 1381.374,1032.853 1416.890 C 1017.550 1447.957,992.439 1472.241,960.000 1487.345 C 941.355 1496.026,932.204 1497.609,900.000 1497.723 C 865.216 1497.846,859.763 1496.770,835.573 1484.998 C 805.524 1470.376,781.909 1446.991,765.250 1415.361 C 754.893 1395.696,754.000 1390.507,754.000 1350.000 C 754.000 1309.732,754.932 1304.231,764.993 1285.148 C 786.353 1244.627,818.706 1217.764,860.132 1206.149 C 885.877 1198.931,925.415 1200.551,952.000 1209.913 M1788.308 1211.692 C 1799.998 1223.382,1800.000 1223.395,1800.000 1273.955 C 1800.000 1302.531,1798.120 1328.038,1795.678 1332.602 C 1785.887 1350.895,1774.746 1352.000,1600.000 1352.000 C 1425.254 1352.000,1414.113 1350.895,1404.322 1332.602 C 1401.880 1328.038,1400.000 1302.531,1400.000 1273.955 C 1400.000 1223.395,1400.002 1223.382,1411.692 1211.692 L 1423.385 1200.000 1600.000 1200.000 L 1776.615 1200.000 1788.308 1211.692 M1788.308 1511.692 C 1799.998 1523.382,1800.000 1523.395,1800.000 1573.955 C 1800.000 1602.531,1798.120 1628.038,1795.678 1632.602 C 1785.887 1650.895,1774.746 1652.000,1600.000 1652.000 C 1425.254 1652.000,1414.113 1650.895,1404.322 1632.602 C 1401.880 1628.038,1400.000 1602.531,1400.000 1573.955 C 1400.000 1523.395,1400.002 1523.382,1411.692 1511.692 L 1423.385 1500.000 1600.000 1500.000 L 1776.615 1500.000 1788.308 1511.692 M962.531 1580.327 C 1072.927 1595.682,1169.290 1643.314,1192.498 1694.000 C 1201.743 1714.191,1202.435 1755.688,1193.806 1772.376 C 1190.399 1778.964,1181.849 1787.867,1174.806 1792.162 C 1162.451 1799.695,1152.807 1799.971,900.801 1799.985 C 612.545 1800.002,623.790 1800.968,607.838 1774.806 C 597.444 1757.760,597.272 1716.342,607.502 1694.000 C 635.777 1632.249,767.944 1578.172,894.711 1576.488 C 914.901 1576.219,945.421 1577.947,962.531 1580.327 " fill="#1D1E23" stroke="none" fill-rule="evenodd"/></svg>