<svg viewBox="0 0 2400 2400" fill="none" xmlns="http://www.w3.org/2000/svg"><path d="M2000 700H1500V400C1500 290 1410 200 1300 200H1100C990 200 900 290 900 400V700H400C290 700 200 790 200 900V2000C200 2110 290 2200 400 2200H2000C2110 2200 2200 2110 2200 2000V900C2200 790 2110 700 2000 700ZM900 1200C983 1200 1050 1267 1050 1350C1050 1433 983 1500 900 1500C817 1500 750 1433 750 1350C750 1267 817 1200 900 1200ZM1200 1750C1200 1777.61 1177.61 1800 1150 1800H650C622.386 1800 600 1777.61 600 1750V1725C600 1625 800 1575 900 1575C1000 1575 1200 1625 1200 1725V1750ZM1300 865C1300 884.33 1284.33 900 1265 900H1135C1115.67 900 1100 884.33 1100 865V435C1100 415.67 1115.67 400 1135 400H1265C1284.33 400 1300 415.67 1300 435V865ZM1800 1615C1800 1634.33 1784.33 1650 1765 1650H1435C1415.67 1650 1400 1634.33 1400 1615V1535C1400 1515.67 1415.67 1500 1435 1500H1765C1784.33 1500 1800 1515.67 1800 1535V1615ZM1800 1315C1800 1334.33 1784.33 1350 1765 1350H1435C1415.67 1350 1400 1334.33 1400 1315V1235C1400 1215.67 1415.67 1200 1435 1200H1765C1784.33 1200 1800 1215.67 1800 1235V1315Z" fill="#1D1E23"/></svg>