<svg viewBox="0 0 2400 2400" fill="none" xmlns="http://www.w3.org/2000/svg"><path d="M1074.000 207.512 C 1043.529 209.798,1034.017 212.347,1012.062 224.107 C 982.309 240.044,942.162 277.697,926.876 304.000 C 904.354 342.757,902.898 355.727,901.004 534.468 L 899.262 698.936 624.631 701.829 L 350.000 704.722 318.079 721.361 C 274.813 743.913,239.277 779.547,216.729 822.988 L 199.608 855.975 200.962 1442.988 C 202.455 2089.636,200.921 2050.846,226.732 2094.888 C 250.214 2134.958,308.796 2182.346,347.178 2192.319 C 370.697 2198.430,1803.953 2202.425,1956.761 2196.805 C 2051.307 2193.328,2056.428 2192.729,2076.761 2182.766 C 2109.127 2166.908,2143.310 2137.045,2164.632 2106.000 C 2200.180 2054.241,2197.449 2106.808,2199.033 1443.897 L 2200.434 857.794 2184.334 825.897 C 2158.305 774.330,2126.673 743.648,2070.000 714.996 L 2050.000 704.885 1775.366 701.910 L 1500.732 698.935 1499.070 532.468 C 1497.492 374.497,1496.961 364.641,1488.661 339.382 C 1472.894 291.399,1431.676 246.072,1380.208 220.116 L 1358.000 208.916 1234.000 206.864 C 1165.800 205.735,1093.800 206.026,1074.000 207.512 M1288.781 410.748 L 1300.000 421.497 1300.000 650.000 L 1300.000 878.503 1288.781 889.252 L 1277.562 900.000 1200.000 900.000 L 1122.438 900.000 1111.219 889.252 L 1100.000 878.503 1100.000 650.471 L 1100.000 422.438 1110.748 411.219 L 1121.497 400.000 1199.529 400.000 L 1277.562 400.000 1288.781 410.748 M1778.723 1206.405 C 1795.099 1210.879,1801.048 1235.864,1797.865 1286.804 C 1796.320 1311.531,1792.936 1334.661,1790.345 1338.204 C 1782.779 1348.552,1705.088 1352.921,1562.000 1351.048 C 1473.853 1349.894,1430.094 1347.840,1421.453 1344.453 C 1405.911 1338.359,1403.995 1330.235,1404.015 1270.500 C 1404.028 1232.488,1405.243 1224.010,1412.349 1212.354 L 1420.668 1198.708 1595.334 1201.365 C 1691.400 1202.826,1773.926 1205.094,1778.723 1206.405 M962.853 1217.787 C 987.443 1229.236,1014.317 1254.902,1030.444 1282.338 C 1041.376 1300.938,1042.000 1304.485,1042.000 1348.000 C 1042.000 1402.864,1035.619 1419.741,1001.769 1454.413 C 970.564 1486.375,947.157 1495.922,900.000 1495.922 C 868.023 1495.922,858.649 1494.362,840.857 1486.079 C 812.972 1473.097,778.295 1437.979,765.271 1409.532 C 755.637 1388.488,755.059 1383.958,756.940 1344.264 C 758.335 1314.843,761.139 1297.328,765.979 1287.805 C 778.021 1264.115,799.028 1241.311,824.448 1224.336 L 848.912 1208.000 895.456 1208.039 C 936.288 1208.073,944.559 1209.270,962.853 1217.787 M1778.723 1506.405 C 1795.099 1510.879,1801.048 1535.864,1797.865 1586.804 C 1796.320 1611.531,1792.936 1634.661,1790.345 1638.204 C 1782.779 1648.552,1705.088 1652.921,1562.000 1651.048 C 1473.853 1649.894,1430.094 1647.840,1421.453 1644.453 C 1405.911 1638.359,1403.995 1630.235,1404.015 1570.500 C 1404.028 1532.488,1405.243 1524.010,1412.349 1512.354 L 1420.668 1498.708 1595.334 1501.365 C 1691.400 1502.826,1773.926 1505.094,1778.723 1506.405 M984.476 1585.867 C 1076.217 1601.921,1166.012 1648.901,1188.242 1692.474 C 1204.718 1724.770,1201.872 1765.331,1181.809 1784.180 C 1171.649 1793.724,1170.219 1793.878,1060.764 1797.171 C 927.561 1801.178,639.418 1797.386,626.400 1791.454 C 610.820 1784.356,604.000 1767.549,604.000 1736.254 C 604.000 1720.573,606.442 1701.951,609.427 1694.872 C 626.545 1654.272,711.604 1607.124,802.000 1588.128 C 847.365 1578.595,936.604 1577.489,984.476 1585.867 " fill="#1D1E23" stroke="none" fill-rule="evenodd"/></svg>