<svg viewBox="0 0 2400 2400" fill="none" xmlns="http://www.w3.org/2000/svg"><path d="M1049.094 207.668 C 1001.901 219.674,944.703 267.276,921.810 313.595 C 902.734 352.194,900.159 380.949,900.071 556.344 L 900.000 698.687 625.566 701.379 L 351.132 704.071 316.537 721.939 C 270.128 745.909,240.688 775.322,218.706 819.681 L 202.000 853.395 200.877 1407.697 C 200.176 1753.480,201.261 1980.011,203.760 2009.877 C 207.189 2050.873,209.603 2061.508,220.551 2083.877 C 238.079 2119.690,280.972 2162.243,317.636 2180.194 C 344.833 2193.510,346.389 2193.770,415.636 2196.570 C 510.679 2200.414,1895.673 2200.279,1984.744 2196.417 C 2053.983 2193.416,2056.068 2193.067,2082.744 2180.007 C 2119.968 2161.783,2162.281 2119.376,2179.609 2082.926 C 2190.711 2059.572,2193.009 2049.131,2196.335 2006.926 C 2198.632 1977.786,2199.748 1734.769,2199.096 1406.000 L 2198.000 854.000 2183.065 822.721 C 2162.071 778.753,2129.497 745.715,2083.947 722.189 L 2048.868 704.071 1774.434 701.379 L 1500.000 698.687 1499.784 552.344 C 1499.519 372.549,1497.792 353.257,1478.451 314.123 C 1460.499 277.800,1422.050 240.509,1381.554 220.143 L 1354.000 206.286 1208.000 205.335 C 1127.700 204.812,1056.192 205.862,1049.094 207.668 M1288.781 410.748 L 1300.000 421.497 1300.000 650.000 L 1300.000 878.503 1288.781 889.252 L 1277.562 900.000 1200.000 900.000 L 1122.438 900.000 1111.219 889.252 L 1100.000 878.503 1100.000 650.471 L 1100.000 422.438 1110.748 411.219 L 1121.497 400.000 1199.529 400.000 L 1277.562 400.000 1288.781 410.748 M1733.541 1203.456 L 1785.082 1206.000 1792.871 1220.000 C 1799.734 1232.337,1800.412 1239.469,1798.576 1280.032 C 1797.430 1305.350,1795.236 1329.337,1793.700 1333.338 C 1787.970 1348.273,1774.219 1349.674,1618.902 1351.155 C 1460.476 1352.665,1418.195 1349.884,1409.030 1337.349 C 1405.571 1332.619,1404.000 1313.390,1404.000 1275.775 C 1404.000 1226.497,1404.821 1220.035,1412.290 1210.539 L 1420.581 1200.000 1551.290 1200.456 C 1623.181 1200.707,1705.193 1202.057,1733.541 1203.456 M966.203 1217.924 C 991.072 1230.092,1019.453 1259.294,1033.663 1287.336 C 1042.798 1305.361,1043.995 1312.519,1043.961 1348.867 C 1043.927 1384.093,1042.512 1393.028,1034.104 1411.088 C 1021.000 1439.234,989.128 1472.191,962.314 1485.320 C 943.030 1494.763,935.793 1496.000,899.833 1496.000 C 864.200 1496.000,856.612 1494.730,838.581 1485.745 C 811.616 1472.310,779.582 1440.495,766.010 1413.669 C 755.696 1393.284,755.223 1389.842,756.576 1345.009 C 757.938 1299.870,758.558 1296.942,770.788 1277.905 C 791.502 1245.665,825.466 1217.370,855.056 1207.703 C 861.075 1205.737,883.867 1204.943,905.705 1205.940 C 937.691 1207.399,949.453 1209.729,966.203 1217.924 M1733.541 1503.456 L 1785.082 1506.000 1792.871 1520.000 C 1799.734 1532.337,1800.412 1539.469,1798.576 1580.032 C 1797.430 1605.350,1795.236 1629.337,1793.700 1633.338 C 1787.970 1648.273,1774.219 1649.674,1618.902 1651.155 C 1460.476 1652.665,1418.195 1649.884,1409.030 1637.349 C 1405.571 1632.619,1404.000 1613.390,1404.000 1575.775 C 1404.000 1526.497,1404.821 1520.035,1412.290 1510.539 L 1420.581 1500.000 1551.290 1500.456 C 1623.181 1500.707,1705.193 1502.057,1733.541 1503.456 M978.593 1584.129 C 1064.613 1597.751,1156.826 1642.230,1183.954 1683.185 C 1210.263 1722.905,1202.343 1781.078,1169.070 1792.512 C 1148.353 1799.630,643.559 1800.105,627.192 1793.021 C 621.247 1790.449,613.184 1782.416,609.275 1775.172 C 599.621 1757.284,599.811 1711.120,609.615 1692.499 C 636.492 1641.453,737.575 1593.516,846.000 1580.399 C 880.508 1576.224,939.079 1577.872,978.593 1584.129 " fill="#1D1E23" stroke="none" fill-rule="evenodd"/></svg>