<svg viewBox="0 0 2400 2400" fill="none" xmlns="http://www.w3.org/2000/svg"><path d="M1086.000 206.486 C 1035.560 213.977,959.023 229.702,923.949 239.780 C 738.112 293.179,556.873 410.438,435.187 556.000 C 291.130 728.324,209.735 942.099,201.405 1170.000 C 185.662 1600.718,463.182 2004.084,871.323 2143.704 C 909.046 2156.609,1027.243 2188.000,1038.111 2188.000 C 1043.252 2188.000,1044.000 2143.525,1044.000 1838.000 L 1044.000 1488.000 918.000 1488.000 L 792.000 1488.000 792.000 1344.000 L 792.000 1200.000 918.000 1200.000 L 1044.000 1200.000 1044.063 1089.000 C 1044.167 907.995,1051.731 852.453,1085.905 781.780 C 1127.151 696.483,1191.616 641.490,1288.000 609.378 L 1322.000 598.051 1438.000 598.025 C 1512.575 598.009,1570.070 599.976,1599.000 603.534 L 1644.000 609.068 1644.000 731.967 L 1644.000 854.866 1561.000 857.184 C 1450.137 860.280,1427.146 867.021,1392.249 906.666 C 1361.099 942.055,1358.644 954.410,1356.852 1084.847 L 1355.274 1199.695 1491.308 1200.847 C 1566.127 1201.481,1628.377 1203.036,1629.641 1204.303 C 1630.905 1205.570,1622.443 1269.470,1610.837 1346.303 L 1589.734 1486.000 1472.867 1487.060 L 1356.000 1488.121 1356.000 1838.060 C 1356.000 2143.532,1356.748 2188.000,1361.889 2188.000 C 1371.860 2188.000,1489.263 2157.164,1522.551 2145.802 C 1745.688 2069.641,1932.120 1918.734,2056.660 1713.470 C 2191.281 1491.590,2232.957 1223.290,2172.144 970.000 C 2104.786 689.449,1925.466 456.475,1672.000 320.208 C 1574.751 267.925,1486.340 237.418,1368.000 215.310 C 1334.122 208.981,1303.956 207.197,1212.000 206.083 C 1149.300 205.324,1092.600 205.505,1086.000 206.486 " fill="#1D1E23" stroke="none" fill-rule="evenodd"/></svg>