<svg viewBox="0 0 2400 2400" fill="none" xmlns="http://www.w3.org/2000/svg"><path d="M1068.000 212.184 C 982.256 219.922,858.493 257.456,764.564 304.207 C 660.788 355.860,573.044 417.735,496.616 493.160 C 341.437 646.302,244.371 841.429,209.668 1070.000 C 199.625 1136.142,199.421 1267.978,209.261 1332.000 C 237.240 1514.032,309.477 1681.882,420.201 1822.141 C 453.866 1864.785,537.100 1947.459,584.000 1984.837 C 671.074 2054.234,774.023 2109.386,884.000 2145.553 C 955.516 2169.072,1035.433 2189.900,1039.305 2186.028 C 1040.633 2184.700,1042.452 2027.101,1043.348 1835.807 L 1044.977 1488.000 918.488 1488.000 L 792.000 1488.000 792.000 1344.000 L 792.000 1200.000 917.426 1200.000 L 1042.851 1200.000 1045.571 1085.000 C 1048.683 953.439,1053.657 882.913,1062.189 849.379 C 1070.451 816.901,1103.145 750.935,1125.886 720.854 C 1157.377 679.201,1209.613 641.659,1271.550 616.164 L 1301.100 604.000 1447.963 604.000 C 1528.738 604.000,1605.891 605.156,1619.413 606.570 L 1644.000 609.140 1644.000 731.766 L 1644.000 854.393 1559.000 859.094 C 1512.250 861.679,1464.783 866.217,1453.517 869.177 C 1428.696 875.700,1397.227 898.027,1382.111 919.840 C 1363.667 946.455,1359.970 971.911,1357.258 1091.000 L 1354.775 1200.000 1418.387 1200.499 C 1453.374 1200.774,1514.400 1202.124,1554.000 1203.499 L 1626.000 1206.000 1624.722 1226.000 C 1624.019 1237.000,1616.369 1296.114,1607.722 1357.365 C 1599.075 1418.615,1592.000 1470.237,1592.000 1472.079 C 1592.000 1473.921,1589.171 1478.257,1585.714 1481.714 C 1580.300 1487.128,1563.939 1488.000,1467.714 1488.000 L 1356.000 1488.000 1356.000 1771.361 C 1356.000 1927.210,1357.188 2084.856,1358.641 2121.686 L 1361.282 2188.650 1375.641 2185.959 C 1404.986 2180.461,1527.276 2143.734,1563.915 2129.415 C 1677.443 2085.050,1796.104 2009.084,1886.115 1923.145 C 2037.439 1778.668,2137.755 1595.982,2180.492 1387.053 C 2202.818 1277.910,2202.864 1123.581,2180.602 1014.000 C 2138.540 806.944,2048.532 639.287,1900.339 491.952 C 1780.044 372.354,1635.529 288.024,1468.486 239.949 C 1396.816 219.323,1371.440 215.839,1264.361 211.926 C 1149.364 207.723,1116.955 207.766,1068.000 212.184 " fill="#1D1E23" stroke="none" fill-rule="evenodd"/></svg>