<svg viewBox="0 0 2400 2400" fill="none" xmlns="http://www.w3.org/2000/svg"><path d="M1058.000 212.176 C 1010.476 217.421,920.818 239.900,860.000 261.819 C 729.135 308.984,588.003 399.146,489.233 498.685 C 327.063 662.116,226.394 881.626,204.292 1120.000 C 184.201 1336.693,244.875 1566.109,373.025 1758.000 C 407.651 1809.849,435.481 1843.653,487.829 1897.445 C 602.573 2015.353,727.647 2094.220,881.278 2145.538 C 942.887 2166.118,1035.383 2189.950,1039.124 2186.209 C 1040.552 2184.782,1042.452 2027.101,1043.348 1835.807 L 1044.977 1488.000 918.488 1488.000 L 792.000 1488.000 792.000 1344.000 L 792.000 1200.000 917.369 1200.000 L 1042.739 1200.000 1045.527 1073.000 C 1049.730 881.512,1054.223 850.773,1088.072 781.913 C 1128.579 699.510,1183.019 651.258,1278.739 612.919 L 1306.000 602.000 1440.000 602.000 C 1513.700 602.000,1589.750 603.512,1609.000 605.359 L 1644.000 608.718 1644.000 731.729 L 1644.000 854.741 1577.000 857.271 C 1499.139 860.211,1451.324 866.105,1434.165 874.877 C 1414.545 884.907,1394.182 902.421,1382.439 919.366 C 1362.398 948.286,1359.391 968.358,1357.127 1088.343 L 1355.045 1198.687 1490.169 1201.324 C 1564.488 1202.774,1626.297 1204.964,1627.524 1206.190 C 1629.699 1208.365,1592.981 1472.788,1589.100 1482.903 C 1587.578 1486.869,1561.508 1488.000,1471.572 1488.000 L 1356.000 1488.000 1356.011 1757.000 C 1356.016 1904.950,1357.203 2062.478,1358.647 2107.062 L 1361.274 2188.124 1375.637 2185.515 C 1404.510 2180.272,1506.031 2151.176,1543.503 2137.405 C 1643.145 2100.785,1757.175 2035.113,1836.000 1968.950 C 2034.312 1802.494,2158.726 1574.718,2192.650 1316.000 C 2200.011 1259.869,2198.882 1128.117,2190.543 1070.000 C 2159.402 852.967,2066.388 661.310,1918.045 508.512 C 1781.219 367.575,1627.736 279.735,1430.000 229.195 C 1376.761 215.587,1369.366 214.724,1280.000 211.700 C 1166.784 207.869,1095.648 208.022,1058.000 212.176 " fill="#1D1E23" stroke="none" fill-rule="evenodd"/></svg>