<svg viewBox="0 0 2400 2400" fill="none" xmlns="http://www.w3.org/2000/svg"><path d="M1012.000 219.503 C 884.982 245.767,793.445 281.092,684.834 345.760 C 435.074 494.468,266.584 740.698,216.045 1030.842 C 179.422 1241.099,208.786 1444.324,303.773 1638.000 C 354.414 1741.257,415.929 1827.650,495.387 1907.108 C 608.337 2020.058,739.742 2100.992,885.896 2147.627 C 952.421 2168.854,1035.510 2189.823,1039.055 2186.279 C 1040.675 2184.660,1042.489 2026.885,1043.086 1835.668 L 1044.171 1488.000 918.086 1488.000 L 792.000 1488.000 792.000 1344.000 L 792.000 1200.000 917.423 1200.000 L 1042.847 1200.000 1045.167 1063.000 C 1048.175 885.435,1053.901 847.597,1087.994 779.982 C 1131.794 693.115,1189.627 644.262,1289.701 609.596 C 1316.606 600.276,1320.939 600.000,1440.557 600.000 C 1508.293 600.000,1581.778 602.054,1603.857 604.565 L 1644.000 609.130 1644.000 732.565 L 1644.000 856.000 1605.000 856.117 C 1543.625 856.300,1464.515 863.186,1443.470 870.176 C 1419.290 878.207,1388.998 905.153,1374.778 931.280 C 1360.672 957.198,1356.242 1000.777,1356.103 1115.000 L 1356.000 1200.000 1431.364 1200.000 C 1472.814 1200.000,1534.218 1201.190,1567.817 1202.644 L 1628.907 1205.288 1626.293 1231.644 C 1624.856 1246.140,1616.014 1309.300,1606.645 1372.000 L 1589.609 1486.000 1472.719 1487.061 L 1355.829 1488.121 1356.914 1835.728 C 1357.511 2026.913,1359.338 2184.673,1360.972 2186.307 C 1364.836 2190.169,1469.273 2163.171,1527.034 2143.379 C 1819.409 2043.192,2051.435 1807.033,2149.329 1510.000 C 2271.318 1139.852,2163.137 727.439,1875.164 464.824 C 1740.475 341.995,1585.658 262.862,1398.924 221.401 C 1351.473 210.865,1345.726 210.505,1208.000 209.438 C 1066.101 208.338,1065.962 208.345,1012.000 219.503 " fill="#1D1E23" stroke="none" fill-rule="evenodd"/></svg>