<svg viewBox="0 0 2400 2400" fill="none" xmlns="http://www.w3.org/2000/svg"><path d="M1112.000 203.923 C 898.742 225.255,715.107 302.398,551.661 439.314 C 270.201 675.089,141.213 1065.851,225.962 1426.000 C 305.576 1764.326,555.671 2039.379,882.000 2147.507 C 928.236 2162.827,1027.742 2188.000,1042.064 2188.000 C 1043.129 2188.000,1044.000 2030.500,1044.000 1838.000 L 1044.000 1488.000 918.000 1488.000 L 792.000 1488.000 792.000 1344.000 L 792.000 1200.000 918.000 1200.000 L 1044.000 1200.000 1044.000 1072.895 C 1044.000 939.824,1047.076 897.266,1060.204 848.737 C 1094.575 721.676,1176.811 639.181,1303.273 604.904 C 1339.550 595.071,1347.693 594.395,1432.000 594.219 C 1496.894 594.083,1539.017 596.132,1583.000 601.565 L 1644.000 609.100 1644.000 732.550 L 1644.000 856.000 1571.000 856.069 C 1492.986 856.144,1457.257 861.074,1428.530 875.729 C 1394.876 892.899,1369.579 928.397,1360.498 971.197 C 1357.828 983.780,1356.000 1034.574,1356.000 1096.197 L 1356.000 1200.000 1494.000 1200.000 C 1622.860 1200.000,1631.983 1200.464,1631.742 1207.000 C 1631.599 1210.850,1622.080 1275.200,1610.587 1350.000 L 1589.690 1486.000 1472.845 1487.060 L 1356.000 1488.121 1356.000 1838.060 C 1356.000 2030.527,1356.871 2188.000,1357.936 2188.000 C 1372.258 2188.000,1471.764 2162.827,1518.000 2147.507 C 1725.374 2078.794,1908.203 1938.723,2031.625 1754.000 C 2333.496 1302.200,2218.358 693.109,1772.009 380.599 C 1645.211 291.822,1506.854 236.596,1349.288 211.869 C 1290.914 202.708,1165.973 198.524,1112.000 203.923 " fill="#1D1E23" stroke="none" fill-rule="evenodd"/></svg>