<svg viewBox="0 0 2400 2400" fill="none" xmlns="http://www.w3.org/2000/svg"><path d="M744.515 508.233 C 662.864 522.830,574.653 589.322,535.216 666.000 C 510.119 714.795,504.000 740.816,504.000 798.737 C 504.000 853.382,509.579 879.851,530.403 924.000 C 580.427 1030.059,684.227 1097.329,798.000 1097.422 C 911.943 1097.515,1017.133 1031.866,1066.072 930.117 C 1087.518 885.531,1093.539 857.004,1093.539 800.000 C 1093.539 741.577,1087.497 714.161,1063.833 665.219 C 1030.949 597.207,948.771 531.395,875.041 514.028 C 842.812 506.436,772.122 503.297,744.515 508.233 M1544.515 508.233 C 1462.864 522.830,1374.653 589.322,1335.216 666.000 C 1310.119 714.795,1304.000 740.816,1304.000 798.737 C 1304.000 853.382,1309.579 879.851,1330.403 924.000 C 1380.427 1030.059,1484.227 1097.329,1598.000 1097.422 C 1711.943 1097.515,1817.133 1031.866,1866.072 930.117 C 1887.518 885.531,1893.539 857.004,1893.539 800.000 C 1893.539 741.577,1887.497 714.161,1863.833 665.219 C 1830.949 597.207,1748.771 531.395,1675.041 514.028 C 1642.812 506.436,1572.122 503.297,1544.515 508.233 M1552.072 1350.355 C 1605.597 1402.701,1632.827 1436.413,1653.563 1476.000 C 1686.438 1538.764,1692.483 1577.765,1692.001 1724.000 C 1691.794 1786.700,1690.253 1850.271,1688.577 1865.268 C 1685.836 1889.795,1686.298 1892.948,1693.178 1896.630 C 1698.245 1899.342,1789.422 1900.264,1963.413 1899.362 C 2219.884 1898.032,2226.368 1897.807,2241.791 1889.716 C 2262.468 1878.869,2287.725 1848.722,2292.344 1829.375 C 2294.363 1820.919,2297.182 1769.000,2298.610 1714.000 C 2301.175 1615.153,2301.099 1613.792,2292.039 1596.000 C 2269.241 1551.227,2228.864 1504.680,2182.218 1469.401 C 2114.502 1418.186,2001.730 1370.550,1876.000 1340.053 C 1781.511 1317.133,1720.983 1309.999,1581.338 1305.322 L 1503.355 1302.711 1552.072 1350.355 M612.000 1319.954 C 591.100 1323.915,551.500 1332.883,524.000 1339.883 C 302.750 1396.204,171.796 1474.541,113.526 1585.430 L 98.842 1613.374 101.124 1713.687 C 103.631 1823.848,106.548 1840.915,127.358 1867.189 C 145.364 1889.924,158.641 1892.452,280.000 1896.260 C 417.450 1900.572,1182.550 1900.572,1320.000 1896.260 C 1441.359 1892.452,1454.636 1889.924,1472.642 1867.189 C 1493.441 1840.928,1496.297 1823.982,1498.792 1712.000 L 1501.065 1610.000 1485.917 1584.000 C 1442.765 1509.932,1387.037 1462.260,1287.428 1414.203 C 1258.042 1400.026,1212.788 1381.178,1186.863 1372.319 C 1121.984 1350.150,1002.003 1320.570,958.255 1315.960 C 938.315 1313.858,860.800 1312.277,786.000 1312.446 C 672.695 1312.702,643.659 1313.955,612.000 1319.954 " fill="#1D1E23" stroke="none" fill-rule="evenodd"/></svg>