<svg viewBox="0 0 2400 2400" fill="none" xmlns="http://www.w3.org/2000/svg"><path d="M762.000 502.226 C 757.600 503.245,744.180 506.073,732.178 508.510 C 683.549 518.385,625.474 551.053,586.773 590.301 C 501.598 676.680,477.199 801.656,523.365 915.098 C 552.108 985.729,614.271 1047.892,684.902 1076.635 C 853.166 1145.111,1038.641 1053.752,1088.625 877.774 C 1101.302 833.140,1101.302 766.860,1088.625 722.226 C 1073.307 668.298,1051.136 630.840,1010.160 589.659 C 979.731 559.078,967.978 550.339,936.000 534.517 C 915.100 524.176,888.100 513.024,876.000 509.734 C 854.067 503.772,777.191 498.709,762.000 502.226 M1562.000 502.226 C 1557.600 503.245,1544.180 506.073,1532.178 508.510 C 1483.549 518.385,1425.474 551.053,1386.773 590.301 C 1301.598 676.680,1277.199 801.656,1323.365 915.098 C 1352.108 985.729,1414.271 1047.892,1484.902 1076.635 C 1653.166 1145.111,1838.641 1053.752,1888.625 877.774 C 1901.302 833.140,1901.302 766.860,1888.625 722.226 C 1873.307 668.298,1851.136 630.840,1810.160 589.659 C 1779.731 559.078,1767.978 550.339,1736.000 534.517 C 1715.100 524.176,1688.100 513.024,1676.000 509.734 C 1654.067 503.772,1577.191 498.709,1562.000 502.226 M717.152 1304.087 C 596.396 1315.824,457.036 1349.242,356.655 1390.531 C 213.648 1449.354,123.596 1528.397,104.341 1612.000 C 102.061 1621.900,100.152 1671.529,100.098 1722.287 C 99.984 1829.259,102.746 1842.956,129.895 1870.105 C 162.127 1902.338,109.722 1900.000,800.000 1900.000 C 1490.278 1900.000,1437.873 1902.338,1470.105 1870.105 C 1497.254 1842.956,1500.016 1829.259,1499.902 1722.287 C 1499.848 1671.529,1497.939 1621.900,1495.659 1612.000 C 1476.872 1530.429,1389.714 1452.405,1252.000 1393.875 C 1172.253 1359.982,1050.192 1327.366,946.000 1312.108 C 881.658 1302.686,771.347 1298.820,717.152 1304.087 M1528.260 1303.394 L 1502.521 1306.000 1525.886 1323.601 C 1607.627 1385.181,1666.902 1472.568,1691.017 1567.051 C 1701.298 1607.332,1701.285 1834.465,1691.000 1870.577 C 1687.150 1884.095,1684.000 1896.245,1684.000 1897.577 C 1684.000 1898.910,1803.379 1900.000,1949.287 1900.000 C 2248.644 1900.000,2239.344 1900.867,2270.105 1870.105 C 2297.254 1842.956,2300.016 1829.259,2299.902 1722.287 C 2299.848 1671.529,2297.939 1621.900,2295.659 1612.000 C 2276.872 1530.429,2189.714 1452.405,2052.000 1393.875 C 1972.253 1359.982,1850.192 1327.366,1746.000 1312.108 C 1686.975 1303.465,1572.722 1298.892,1528.260 1303.394 " fill="#1D1E23" stroke="none" fill-rule="evenodd"/></svg>