<svg viewBox="0 0 2400 2400" fill="none" xmlns="http://www.w3.org/2000/svg"><path d="M1144.452 606.067 C 1104.126 614.992,1083.943 622.765,1050.961 642.072 C 920.581 718.393,867.100 871.676,922.350 1010.686 C 969.390 1129.037,1091.930 1206.992,1217.922 1198.716 C 1261.153 1195.876,1298.751 1184.981,1342.000 1162.761 C 1386.752 1139.769,1439.769 1086.752,1462.761 1042.000 C 1505.272 959.256,1510.717 880.177,1479.774 794.907 C 1452.372 719.395,1386.972 653.274,1308.221 621.465 C 1264.280 603.717,1187.631 596.510,1144.452 606.067 M357.089 905.747 C 247.638 932.269,179.365 1040.813,206.337 1145.423 C 224.936 1217.560,282.287 1275.153,354.166 1293.875 C 478.774 1326.332,608.580 1216.828,598.674 1087.611 C 591.246 990.716,520.253 916.129,424.105 904.204 C 384.058 899.237,383.946 899.240,357.089 905.747 M1957.089 905.747 C 1847.638 932.269,1779.365 1040.813,1806.337 1145.423 C 1824.936 1217.560,1882.287 1275.153,1954.166 1293.875 C 2078.774 1326.332,2208.580 1216.828,2198.674 1087.611 C 2191.246 990.716,2120.253 916.129,2024.105 904.204 C 1984.058 899.237,1983.946 899.240,1957.089 905.747 M1042.000 1288.092 C 940.276 1306.330,836.534 1337.752,768.000 1371.084 C 735.032 1387.119,724.668 1394.892,689.738 1429.783 C 644.382 1475.089,625.580 1506.043,611.373 1558.798 C 604.168 1585.553,602.692 1604.964,601.016 1695.000 L 599.062 1800.000 1200.055 1800.000 L 1801.047 1800.000 1799.120 1691.000 C 1797.256 1585.657,1796.829 1580.926,1786.374 1550.000 C 1770.181 1502.103,1746.050 1462.519,1712.000 1428.000 C 1687.146 1402.803,1674.453 1393.761,1638.000 1375.289 C 1568.119 1339.877,1486.693 1312.937,1390.900 1293.535 C 1341.396 1283.509,1329.911 1282.738,1212.000 1281.513 C 1100.423 1280.354,1080.964 1281.107,1042.000 1288.092 M330.780 1404.474 C 256.262 1411.651,154.676 1440.667,104.000 1469.248 C 60.623 1493.713,28.588 1531.414,11.318 1578.323 C 3.451 1599.693,2.440 1611.645,0.942 1701.000 L -0.716 1800.000 225.081 1800.000 L 450.877 1800.000 453.264 1685.000 C 456.233 1541.918,461.903 1511.469,499.417 1437.155 C 506.286 1423.547,510.467 1411.525,508.708 1410.437 C 503.848 1407.434,412.982 1400.015,388.000 1400.582 C 375.900 1400.856,350.151 1402.608,330.780 1404.474 M1934.427 1404.208 C 1910.461 1406.191,1890.093 1408.573,1889.165 1409.502 C 1888.236 1410.431,1893.235 1422.599,1900.274 1436.543 C 1938.132 1511.540,1943.761 1541.640,1946.736 1685.000 L 1949.123 1800.000 2174.561 1800.000 L 2400.000 1800.000 2399.970 1717.000 C 2399.935 1620.299,2396.243 1591.193,2379.690 1557.104 C 2348.742 1493.370,2284.461 1451.731,2173.926 1423.814 C 2096.270 1404.202,2014.950 1397.545,1934.427 1404.208 " fill="#1D1E23" stroke="none" fill-rule="evenodd"/></svg>