<svg viewBox="0 0 2400 2400" fill="none" xmlns="http://www.w3.org/2000/svg"><path d="M732.674 510.133 C 699.865 517.255,649.088 542.297,614.950 568.193 C 566.944 604.609,525.373 667.649,509.485 728.127 C 500.010 764.191,500.256 837.330,509.969 872.000 C 537.765 971.219,610.797 1050.300,703.863 1081.954 C 747.582 1096.823,791.764 1101.893,831.287 1096.574 C 955.630 1079.840,1047.688 1002.588,1084.604 884.000 C 1098.122 840.574,1098.118 759.338,1084.595 716.141 C 1075.176 686.054,1059.308 652.154,1044.275 630.004 C 1017.792 590.984,955.983 542.837,908.000 523.852 C 860.357 505.001,783.884 499.018,732.674 510.133 M1532.674 510.133 C 1499.865 517.255,1449.088 542.297,1414.950 568.193 C 1366.944 604.609,1325.373 667.649,1309.485 728.127 C 1300.010 764.191,1300.256 837.330,1309.969 872.000 C 1337.765 971.219,1410.797 1050.300,1503.863 1081.954 C 1547.582 1096.823,1591.764 1101.893,1631.287 1096.574 C 1755.630 1079.840,1847.688 1002.588,1884.604 884.000 C 1898.122 840.574,1898.118 759.338,1884.595 716.141 C 1875.176 686.054,1859.308 652.154,1844.275 630.004 C 1817.792 590.984,1755.983 542.837,1708.000 523.852 C 1660.357 505.001,1583.884 499.018,1532.674 510.133 M1512.000 1306.048 C 1512.000 1307.867,1529.085 1325.391,1549.966 1344.988 C 1611.223 1402.480,1665.068 1482.225,1681.642 1540.000 C 1690.648 1571.397,1695.537 1640.258,1698.611 1779.000 L 1701.291 1900.000 2000.645 1900.000 L 2300.000 1900.000 2300.000 1755.886 L 2300.000 1611.772 2288.342 1588.678 C 2256.219 1525.042,2185.127 1460.286,2102.000 1418.943 C 2001.913 1369.165,1860.086 1328.358,1737.209 1313.985 C 1678.672 1307.137,1512.000 1301.263,1512.000 1306.048 M659.964 1312.109 C 586.233 1320.313,439.742 1358.856,362.439 1390.390 C 231.691 1443.725,152.872 1506.439,110.478 1590.867 L 100.000 1611.734 100.000 1755.867 L 100.000 1900.000 800.000 1900.000 L 1500.000 1900.000 1500.000 1755.000 L 1500.000 1610.000 1481.000 1576.228 C 1415.107 1459.105,1261.067 1377.219,1004.000 1322.662 C 962.064 1313.762,946.162 1312.717,824.000 1310.833 C 750.300 1309.696,676.484 1310.270,659.964 1312.109 " fill="#1D1E23" stroke="none" fill-rule="evenodd"/></svg>