<svg viewBox="0 0 2400 2400" fill="none" xmlns="http://www.w3.org/2000/svg"><path d="M729.621 509.646 C 573.478 550.670,476.363 699.759,505.747 853.334 C 525.080 954.379,595.023 1040.252,688.000 1077.097 C 847.140 1140.160,1023.663 1060.533,1080.447 900.068 C 1133.122 751.215,1061.945 588.305,916.983 525.929 C 879.789 509.925,858.715 505.520,804.000 502.314 C 771.973 500.438,760.281 501.590,729.621 509.646 M1529.621 509.646 C 1373.478 550.670,1276.363 699.759,1305.747 853.334 C 1325.080 954.379,1395.023 1040.252,1488.000 1077.097 C 1647.140 1140.160,1823.663 1060.533,1880.447 900.068 C 1933.122 751.215,1861.945 588.305,1716.983 525.929 C 1679.789 509.925,1658.715 505.520,1604.000 502.314 C 1571.973 500.438,1560.281 501.590,1529.621 509.646 M692.000 1306.566 C 533.603 1326.581,362.923 1378.064,265.053 1435.348 C 190.085 1479.228,142.252 1525.752,116.333 1580.000 L 102.000 1610.000 102.000 1712.000 C 102.000 1768.100,103.394 1820.548,105.097 1828.552 C 108.956 1846.684,132.403 1877.934,148.325 1886.168 C 154.914 1889.575,178.686 1894.021,201.152 1896.047 C 223.687 1898.079,492.166 1899.731,800.000 1899.731 C 1107.834 1899.731,1376.313 1898.079,1398.848 1896.047 C 1421.314 1894.021,1445.086 1889.575,1451.675 1886.168 C 1467.597 1877.934,1491.044 1846.684,1494.903 1828.552 C 1496.606 1820.548,1498.000 1767.960,1498.000 1711.688 L 1498.000 1609.377 1480.806 1574.687 C 1422.156 1456.362,1233.953 1361.374,967.629 1315.682 C 927.390 1308.778,897.945 1306.943,812.000 1305.982 C 753.700 1305.330,699.700 1305.593,692.000 1306.566 M1517.840 1316.795 C 1609.943 1393.576,1653.658 1453.417,1683.819 1544.000 C 1690.637 1564.478,1693.252 1585.895,1696.129 1644.840 C 1700.025 1724.634,1695.633 1855.710,1688.251 1879.974 C 1685.913 1887.659,1684.000 1895.412,1684.000 1897.203 C 1684.000 1898.993,1805.950 1899.905,1955.000 1899.229 L 2226.000 1898.000 2245.142 1888.575 C 2267.383 1877.623,2290.357 1849.912,2294.903 1828.552 C 2296.606 1820.548,2298.000 1767.960,2298.000 1711.688 L 2298.000 1609.377 2280.806 1574.687 C 2222.156 1456.361,2033.232 1361.028,1767.629 1315.733 C 1728.469 1309.055,1695.217 1306.881,1610.000 1305.430 L 1502.000 1303.590 1517.840 1316.795 " fill="#1D1E23" stroke="none" fill-rule="evenodd"/></svg>