<svg viewBox="0 0 2400 2400" fill="none" xmlns="http://www.w3.org/2000/svg"><path d="M1129.330 609.856 C 1022.418 639.912,940.613 719.509,911.300 822.000 C 900.770 858.821,898.784 932.627,907.480 964.000 C 934.827 1062.663,992.643 1133.588,1076.846 1171.767 C 1121.093 1191.830,1149.164 1197.587,1202.000 1197.437 C 1244.853 1197.315,1254.074 1195.955,1288.000 1184.747 C 1339.642 1167.688,1371.741 1147.957,1409.849 1109.849 C 1447.957 1071.741,1467.688 1039.642,1484.747 988.000 C 1495.925 954.165,1497.324 944.739,1497.510 902.000 C 1497.744 848.419,1489.458 810.508,1468.392 768.777 C 1433.990 700.627,1367.977 642.752,1295.338 617.055 C 1269.973 608.082,1258.145 606.498,1208.000 605.361 C 1165.984 604.408,1144.304 605.647,1129.330 609.856 M356.436 906.326 C 293.539 923.240,246.129 961.924,219.547 1018.017 C 183.459 1094.170,199.028 1175.565,261.694 1238.369 C 343.046 1319.902,456.836 1319.902,538.369 1238.369 C 602.080 1174.658,616.384 1093.536,577.985 1013.701 C 550.568 956.699,497.133 917.819,430.156 906.139 C 388.225 898.827,384.283 898.837,356.436 906.326 M1956.436 906.326 C 1893.539 923.240,1846.129 961.924,1819.547 1018.017 C 1783.459 1094.170,1799.028 1175.565,1861.694 1238.369 C 1943.046 1319.902,2056.836 1319.902,2138.369 1238.369 C 2202.080 1174.658,2216.384 1093.536,2177.985 1013.701 C 2150.568 956.699,2097.133 917.819,2030.156 906.139 C 1988.225 898.827,1984.283 898.837,1956.436 906.326 M1076.000 1283.837 C 976.569 1294.275,827.580 1338.676,753.202 1380.035 C 683.697 1418.684,627.424 1491.991,609.286 1567.513 C 601.133 1601.457,599.875 1714.926,607.409 1736.831 C 613.502 1754.550,650.571 1789.896,666.762 1793.427 C 686.062 1797.635,1417.933 1800.705,1582.630 1797.268 L 1739.260 1794.000 1754.386 1781.756 C 1762.706 1775.022,1774.868 1762.896,1781.413 1754.809 C 1792.100 1741.605,1793.620 1736.123,1796.316 1701.053 C 1797.968 1679.574,1797.890 1640.400,1796.144 1614.000 C 1793.514 1574.243,1790.826 1560.661,1780.491 1534.912 C 1762.412 1489.870,1740.113 1456.991,1704.692 1423.150 C 1679.947 1399.509,1664.770 1389.065,1631.252 1372.614 C 1557.195 1336.267,1456.878 1304.718,1369.736 1290.369 C 1328.124 1283.517,1122.584 1278.946,1076.000 1283.837 M334.780 1404.212 C 315.409 1406.222,278.766 1412.530,253.351 1418.230 C 97.852 1453.105,26.290 1506.617,5.788 1603.348 C -1.729 1638.814,-1.602 1701.153,6.040 1726.885 C 13.648 1752.505,41.507 1784.427,62.679 1791.785 C 74.261 1795.811,123.631 1797.559,265.000 1798.948 L 452.000 1800.786 452.054 1751.393 C 452.084 1724.227,453.840 1667.800,455.955 1626.000 C 460.364 1538.883,467.221 1505.912,491.871 1453.311 C 500.742 1434.381,508.000 1416.700,508.000 1414.021 C 508.000 1405.142,390.146 1398.468,334.780 1404.212 M1936.003 1404.556 C 1912.904 1406.449,1892.716 1408.449,1891.142 1408.999 C 1889.567 1409.550,1896.431 1427.715,1906.396 1449.366 C 1933.408 1508.055,1939.625 1537.550,1944.045 1628.000 C 1946.141 1670.900,1947.889 1727.327,1947.928 1753.393 L 1948.000 1800.786 2135.000 1798.953 C 2260.223 1797.726,2326.790 1795.598,2336.499 1792.511 C 2354.622 1786.748,2384.997 1754.853,2392.433 1733.777 C 2396.126 1723.310,2397.958 1700.498,2397.874 1666.000 C 2397.738 1609.950,2392.458 1584.425,2373.095 1546.214 C 2335.851 1472.716,2218.008 1420.243,2054.305 1404.265 C 2005.970 1399.547,1996.831 1399.570,1936.003 1404.556 " fill="#1D1E23" stroke="none" fill-rule="evenodd"/></svg>