<svg viewBox="0 0 2400 2400" fill="none" xmlns="http://www.w3.org/2000/svg"><path d="M718.000 513.518 C 614.679 547.321,542.627 619.346,511.439 720.000 C 499.474 758.617,498.558 831.782,509.540 871.769 C 560.685 1057.995,760.067 1151.071,930.000 1068.048 C 1033.855 1017.308,1096.000 916.917,1096.000 799.887 C 1096.000 682.041,1033.443 583.251,926.000 531.420 C 884.333 511.320,848.793 504.113,792.000 504.248 C 755.085 504.336,740.470 506.167,718.000 513.518 M1518.000 513.518 C 1414.679 547.321,1342.627 619.346,1311.439 720.000 C 1299.474 758.617,1298.558 831.782,1309.540 871.769 C 1360.685 1057.995,1560.067 1151.071,1730.000 1068.048 C 1833.855 1017.308,1896.000 916.917,1896.000 799.887 C 1896.000 682.041,1833.443 583.251,1726.000 531.420 C 1684.333 511.320,1648.793 504.113,1592.000 504.248 C 1555.085 504.336,1540.470 506.167,1518.000 513.518 M1510.880 1306.453 C 1509.531 1307.802,1517.781 1316.279,1529.214 1325.290 C 1599.267 1380.506,1669.981 1483.173,1685.951 1552.848 C 1692.988 1583.550,1699.869 1718.333,1699.947 1827.000 L 1700.000 1900.000 2000.000 1900.000 L 2300.000 1900.000 2300.000 1755.475 L 2300.000 1610.949 2283.000 1578.475 C 2262.262 1538.860,2209.168 1483.318,2164.000 1453.987 C 2045.236 1376.865,1844.879 1316.887,1676.041 1307.914 C 1595.102 1303.612,1514.435 1302.898,1510.880 1306.453 M618.000 1318.290 C 348.184 1370.278,176.657 1459.770,116.512 1579.936 L 100.000 1612.926 100.000 1756.463 L 100.000 1900.000 800.000 1900.000 L 1500.000 1900.000 1500.000 1755.475 L 1500.000 1610.949 1483.000 1578.934 C 1449.106 1515.103,1387.852 1461.847,1296.202 1416.528 C 1214.813 1376.283,1133.025 1349.437,1018.000 1325.212 L 950.000 1310.891 810.000 1309.581 C 674.279 1308.311,668.411 1308.577,618.000 1318.290 " fill="#1D1E23" stroke="none" fill-rule="evenodd"/></svg>