<svg viewBox="0 0 2400 2400" fill="none" xmlns="http://www.w3.org/2000/svg"><path d="M1144.452 606.067 C 1079.283 620.491,1032.849 646.116,985.908 693.562 C 902.378 777.991,878.332 899.526,922.903 1012.000 C 951.568 1084.334,1016.058 1148.851,1088.000 1177.167 C 1173.716 1210.903,1257.550 1206.149,1342.000 1162.761 C 1386.752 1139.769,1439.769 1086.752,1462.761 1042.000 C 1505.949 957.938,1510.776 876.693,1477.789 789.054 C 1445.303 702.746,1350.761 623.092,1263.106 608.176 C 1221.635 601.119,1170.881 600.217,1144.452 606.067 M357.089 905.747 C 282.337 923.861,225.074 980.033,206.122 1053.840 C 179.924 1155.864,247.987 1266.219,354.166 1293.875 C 492.658 1329.948,630.001 1192.863,593.968 1054.524 C 572.448 971.900,507.760 914.664,424.105 904.228 C 384.072 899.234,383.957 899.237,357.089 905.747 M1957.089 905.747 C 1882.337 923.861,1825.074 980.033,1806.122 1053.840 C 1779.924 1155.864,1847.987 1266.219,1954.166 1293.875 C 2092.658 1329.948,2230.001 1192.863,2193.968 1054.524 C 2172.448 971.900,2107.760 914.664,2024.105 904.228 C 1984.072 899.234,1983.957 899.237,1957.089 905.747 M1034.000 1289.492 C 909.680 1311.766,786.858 1354.129,726.801 1395.449 C 695.325 1417.105,649.680 1469.637,632.481 1503.998 C 608.802 1551.308,602.000 1586.119,602.000 1660.000 C 602.000 1699.525,603.818 1727.112,607.014 1736.102 C 614.927 1758.359,643.122 1786.305,664.000 1792.585 C 690.657 1800.604,1709.343 1800.604,1736.000 1792.585 C 1756.878 1786.305,1785.073 1758.359,1792.986 1736.102 C 1796.347 1726.649,1797.864 1698.925,1797.588 1652.000 C 1797.206 1587.092,1796.389 1579.672,1786.366 1550.000 C 1770.190 1502.118,1746.057 1462.526,1712.000 1428.000 C 1687.146 1402.803,1674.453 1393.761,1638.000 1375.289 C 1568.119 1339.877,1486.693 1312.937,1390.900 1293.535 C 1341.410 1283.512,1329.877 1282.736,1212.000 1281.498 C 1094.289 1280.262,1082.579 1280.788,1034.000 1289.492 M330.780 1404.474 C 282.880 1409.088,209.933 1425.819,164.000 1442.727 C 48.304 1485.314,-0.000 1550.088,-0.000 1662.644 C -0.000 1720.864,4.902 1739.690,26.245 1763.428 C 58.601 1799.416,48.159 1797.834,262.435 1799.214 L 450.870 1800.428 453.260 1685.214 C 456.233 1541.897,461.890 1511.495,499.417 1437.155 C 506.286 1423.547,510.467 1411.525,508.708 1410.437 C 503.848 1407.434,412.982 1400.015,388.000 1400.582 C 375.900 1400.856,350.151 1402.608,330.780 1404.474 M1934.427 1404.470 C 1910.461 1406.309,1890.093 1408.573,1889.165 1409.502 C 1888.236 1410.431,1893.235 1422.599,1900.274 1436.543 C 1938.147 1511.569,1943.761 1541.615,1946.740 1685.245 L 1949.131 1800.491 2137.565 1799.245 C 2347.781 1797.856,2341.203 1798.699,2369.871 1769.479 C 2392.475 1746.440,2397.083 1732.294,2399.020 1680.000 C 2403.793 1551.095,2353.610 1482.083,2222.728 1437.567 C 2180.277 1423.129,2110.602 1408.855,2060.000 1404.231 C 2009.154 1399.584,1997.832 1399.606,1934.427 1404.470 " fill="#1D1E23" stroke="none" fill-rule="evenodd"/></svg>