<svg viewBox="0 0 2400 2400" fill="none" xmlns="http://www.w3.org/2000/svg"><path d="M1162.000 602.226 C 1157.600 603.245,1144.180 606.073,1132.178 608.510 C 1083.549 618.385,1025.474 651.053,986.773 690.301 C 901.598 776.680,877.199 901.656,923.365 1015.098 C 952.108 1085.729,1014.271 1147.892,1084.902 1176.635 C 1141.065 1199.491,1201.659 1205.511,1258.135 1193.845 C 1378.468 1168.990,1468.990 1078.468,1493.845 958.135 C 1505.511 901.659,1499.491 841.065,1476.635 784.902 C 1442.556 701.159,1365.915 634.740,1274.000 609.291 C 1253.745 603.683,1176.697 598.823,1162.000 602.226 M368.000 902.417 C 362.500 903.436,347.200 908.044,334.000 912.657 C 194.773 961.316,155.166 1135.875,259.645 1240.355 C 339.257 1319.966,460.743 1319.966,540.355 1240.355 C 644.891 1135.818,606.061 964.105,466.174 912.315 C 442.850 903.680,389.971 898.349,368.000 902.417 M1968.000 902.417 C 1962.500 903.436,1947.200 908.044,1934.000 912.657 C 1794.773 961.316,1755.166 1135.875,1859.645 1240.355 C 1939.257 1319.966,2060.743 1319.966,2140.355 1240.355 C 2244.891 1135.818,2206.061 964.105,2066.174 912.315 C 2042.850 903.680,1989.971 898.349,1968.000 902.417 M1096.000 1280.295 C 1004.226 1290.449,903.976 1315.071,820.543 1347.948 C 752.960 1374.580,723.865 1392.179,688.029 1428.103 C 625.008 1491.278,600.000 1558.190,600.000 1663.639 C 600.000 1725.360,605.798 1746.008,629.895 1770.105 C 661.896 1802.106,621.730 1800.000,1200.000 1800.000 C 1778.436 1800.000,1738.089 1802.122,1770.196 1770.014 C 1796.889 1743.322,1801.418 1723.876,1798.977 1646.449 C 1797.348 1594.779,1795.174 1576.448,1788.013 1554.000 C 1769.821 1496.968,1740.249 1450.819,1697.039 1412.026 C 1641.890 1362.514,1490.679 1307.866,1348.000 1285.882 C 1297.931 1278.167,1145.731 1274.793,1096.000 1280.295 M326.000 1404.400 C 253.069 1412.002,162.326 1437.730,108.284 1466.128 C 57.175 1492.985,20.672 1538.977,6.337 1594.577 C -2.443 1628.631,-2.280 1707.885,6.625 1734.017 C 15.251 1759.335,40.665 1784.749,65.983 1793.375 C 82.967 1799.162,108.601 1800.000,268.713 1800.000 L 452.000 1800.000 452.000 1696.524 C 452.000 1559.359,459.773 1515.816,497.690 1440.590 C 505.843 1424.415,511.948 1410.634,511.257 1409.966 C 510.566 1409.298,490.337 1406.783,466.305 1404.376 C 417.235 1399.462,373.302 1399.469,326.000 1404.400 M1926.121 1404.751 C 1906.387 1406.772,1889.622 1409.045,1888.864 1409.803 C 1888.106 1410.560,1893.676 1423.515,1901.241 1438.590 C 1940.306 1516.440,1948.000 1558.884,1948.000 1696.524 L 1948.000 1800.000 2131.287 1800.000 C 2339.166 1800.000,2340.360 1799.851,2370.105 1770.105 C 2393.839 1746.372,2400.000 1725.094,2400.000 1666.865 C 2400.000 1544.090,2351.847 1481.284,2224.518 1437.985 C 2128.549 1405.349,2028.790 1394.239,1926.121 1404.751 " fill="#1D1E23" stroke="none" fill-rule="evenodd"/></svg>