<svg viewBox="0 0 2400 2400" fill="none" xmlns="http://www.w3.org/2000/svg"><path d="M744.515 508.233 C 662.864 522.830,574.653 589.322,535.216 666.000 C 510.119 714.795,504.000 740.816,504.000 798.737 C 504.000 853.382,509.579 879.851,530.403 924.000 C 580.427 1030.059,684.227 1097.329,798.000 1097.422 C 911.943 1097.515,1017.133 1031.866,1066.072 930.117 C 1087.518 885.531,1093.539 857.004,1093.539 800.000 C 1093.539 741.577,1087.497 714.161,1063.833 665.219 C 1030.949 597.207,948.771 531.395,875.041 514.028 C 842.812 506.436,772.122 503.297,744.515 508.233 M1544.515 508.233 C 1462.864 522.830,1374.653 589.322,1335.216 666.000 C 1310.119 714.795,1304.000 740.816,1304.000 798.737 C 1304.000 853.382,1309.579 879.851,1330.403 924.000 C 1380.427 1030.059,1484.227 1097.329,1598.000 1097.422 C 1711.943 1097.515,1817.133 1031.866,1866.072 930.117 C 1887.518 885.531,1893.539 857.004,1893.539 800.000 C 1893.539 741.577,1887.497 714.161,1863.833 665.219 C 1830.949 597.207,1748.771 531.395,1675.041 514.028 C 1642.812 506.436,1572.122 503.297,1544.515 508.233 M1551.829 1346.405 C 1574.293 1369.728,1604.234 1404.378,1618.365 1423.405 C 1646.977 1461.931,1677.665 1520.515,1683.632 1548.000 C 1689.775 1576.292,1695.419 1668.226,1698.428 1789.000 L 1701.194 1900.000 2000.597 1900.000 L 2300.000 1900.000 2300.000 1755.841 C 2300.000 1616.433,2299.718 1611.126,2291.437 1594.841 C 2267.067 1546.913,2222.427 1498.078,2166.856 1458.549 C 2078.695 1395.840,1910.779 1338.227,1752.000 1316.210 C 1719.110 1311.650,1587.302 1304.053,1540.493 1304.021 L 1510.986 1304.000 1551.829 1346.405 M612.000 1319.954 C 591.100 1323.915,551.500 1332.883,524.000 1339.883 C 301.261 1396.583,168.025 1477.015,111.566 1588.859 L 100.000 1611.772 100.000 1755.886 L 100.000 1900.000 800.000 1900.000 L 1500.000 1900.000 1500.000 1755.841 C 1500.000 1616.433,1499.718 1611.126,1491.437 1594.841 C 1465.694 1544.212,1423.246 1497.043,1370.842 1460.833 C 1331.182 1433.428,1246.574 1392.723,1186.863 1372.319 C 1121.984 1350.150,1002.003 1320.570,958.255 1315.960 C 938.315 1313.858,860.800 1312.277,786.000 1312.446 C 672.695 1312.702,643.659 1313.955,612.000 1319.954 " fill="#1D1E23" stroke="none" fill-rule="evenodd"/></svg>