<svg viewBox="0 0 2400 2400" fill="none" xmlns="http://www.w3.org/2000/svg"><path d="M1142.000 608.469 C 1113.811 612.572,1061.034 636.839,1026.286 661.675 C 975.267 698.140,935.053 751.347,917.441 805.686 C 903.272 849.403,899.387 934.085,909.892 970.222 C 938.937 1070.131,1008.209 1146.378,1101.304 1180.908 C 1129.521 1191.374,1141.042 1193.313,1185.406 1195.063 C 1241.601 1197.280,1264.781 1193.836,1308.000 1176.848 C 1347.453 1161.339,1373.091 1143.289,1412.508 1103.267 C 1442.223 1073.095,1451.406 1060.578,1465.955 1030.418 C 1492.543 975.297,1497.230 952.196,1494.854 888.000 C 1493.193 843.105,1491.044 828.794,1482.109 803.127 C 1456.133 728.501,1398.393 667.811,1315.554 628.063 C 1286.047 613.904,1276.289 611.324,1239.841 608.039 C 1191.012 603.640,1174.685 603.711,1142.000 608.469 M336.907 913.484 C 247.540 947.588,188.853 1040.489,203.332 1124.929 C 217.210 1205.858,287.382 1278.935,367.197 1295.580 C 395.574 1301.497,409.818 1301.156,438.160 1293.878 C 474.741 1284.485,502.256 1269.358,530.046 1243.362 C 570.383 1205.628,592.702 1163.467,598.513 1114.025 C 605.546 1054.184,567.204 979.532,508.687 939.137 C 475.808 916.439,445.932 906.985,402.000 905.375 C 367.265 904.101,358.697 905.169,336.907 913.484 M1936.907 913.484 C 1847.540 947.588,1788.853 1040.489,1803.332 1124.929 C 1817.210 1205.858,1887.382 1278.935,1967.197 1295.580 C 1995.574 1301.497,2009.818 1301.156,2038.160 1293.878 C 2074.741 1284.485,2102.256 1269.358,2130.046 1243.362 C 2170.383 1205.628,2192.702 1163.467,2198.513 1114.025 C 2205.546 1054.184,2167.204 979.532,2108.687 939.137 C 2075.808 916.439,2045.932 906.985,2002.000 905.375 C 1967.265 904.101,1958.697 905.169,1936.907 913.484 M1058.000 1287.973 C 987.280 1293.677,840.979 1336.763,771.979 1372.206 C 704.672 1406.780,658.038 1453.292,629.667 1514.150 C 608.417 1559.730,606.000 1574.489,606.000 1658.642 L 606.000 1735.283 618.000 1752.288 C 624.600 1761.640,638.316 1775.005,648.479 1781.986 L 666.959 1794.680 848.136 1797.340 C 1079.990 1800.744,1499.441 1800.750,1634.920 1797.352 L 1739.839 1794.720 1761.838 1775.113 C 1791.528 1748.650,1796.000 1733.036,1796.000 1655.820 C 1796.000 1623.520,1794.320 1588.236,1792.268 1577.411 C 1782.679 1526.850,1749.217 1467.990,1705.891 1425.474 C 1653.659 1374.218,1489.727 1308.489,1374.000 1292.401 C 1338.164 1287.420,1105.309 1284.157,1058.000 1287.973 M1936.000 1404.919 C 1912.900 1407.002,1893.344 1409.353,1892.543 1410.143 C 1891.741 1410.934,1898.484 1430.125,1907.526 1452.791 C 1935.265 1522.322,1941.546 1564.806,1946.389 1715.645 L 1949.138 1801.290 2138.700 1798.680 C 2342.308 1795.877,2337.466 1796.407,2360.726 1774.354 C 2386.459 1749.956,2392.330 1738.106,2395.815 1703.532 C 2400.103 1661.001,2394.700 1599.193,2384.304 1571.830 C 2361.250 1511.158,2313.733 1472.572,2222.406 1440.360 C 2179.274 1425.147,2105.425 1410.005,2046.305 1404.252 C 1997.833 1399.535,1995.561 1399.549,1936.000 1404.919 M318.000 1408.032 C 261.877 1413.530,176.416 1437.052,130.000 1459.776 C 67.094 1490.574,31.172 1527.725,11.507 1582.323 C 4.407 1602.037,2.897 1615.708,2.490 1664.000 C 2.006 1721.234,2.157 1722.283,13.866 1743.422 C 27.423 1767.899,47.666 1786.229,68.000 1792.442 C 76.584 1795.064,153.356 1797.555,266.437 1798.881 L 450.875 1801.044 453.621 1711.522 C 456.579 1615.065,461.841 1548.682,468.801 1520.000 C 471.204 1510.100,480.107 1484.414,488.585 1462.920 C 505.917 1418.979,506.761 1413.916,497.356 1410.306 C 486.038 1405.963,355.961 1404.314,318.000 1408.032 " fill="#1D1E23" stroke="none" fill-rule="evenodd"/></svg>