<svg viewBox="0 0 2400 2400" fill="none" xmlns="http://www.w3.org/2000/svg"><path d="M1120.858 611.758 C 1041.557 634.432,968.249 695.781,931.769 770.000 C 908.668 817.001,902.148 845.822,902.363 900.000 C 902.576 953.831,909.231 982.968,932.057 1030.000 C 961.288 1090.231,1010.178 1139.152,1070.000 1168.027 C 1117.583 1190.995,1146.287 1197.504,1200.000 1197.504 C 1253.713 1197.504,1282.417 1190.995,1330.000 1168.027 C 1403.967 1132.324,1457.709 1069.862,1484.866 988.033 C 1496.182 953.938,1497.497 945.030,1497.572 902.000 C 1497.668 846.820,1491.666 820.217,1467.794 770.000 C 1430.434 691.412,1349.685 627.132,1267.169 610.292 C 1225.028 601.692,1153.560 602.408,1120.858 611.758 M357.175 906.137 C 279.913 926.950,225.275 980.644,205.981 1054.718 C 189.242 1118.982,209.631 1186.192,261.694 1238.369 C 343.046 1319.902,456.836 1319.902,538.369 1238.369 C 595.449 1181.289,612.936 1110.479,587.914 1037.750 C 563.532 966.883,506.932 919.687,429.857 905.955 C 390.872 899.009,383.565 899.027,357.175 906.137 M1957.175 906.137 C 1879.913 926.950,1825.275 980.644,1805.981 1054.718 C 1789.242 1118.982,1809.631 1186.192,1861.694 1238.369 C 1943.046 1319.902,2056.836 1319.902,2138.369 1238.369 C 2195.449 1181.289,2212.936 1110.479,2187.914 1037.750 C 2163.532 966.883,2106.932 919.687,2029.857 905.955 C 1990.872 899.009,1983.565 899.027,1957.175 906.137 M1076.000 1283.999 C 1015.802 1289.759,897.976 1319.296,826.717 1346.490 C 759.354 1372.196,729.587 1390.454,690.146 1430.258 C 614.386 1506.714,600.445 1552.366,600.135 1725.000 L 600.000 1800.000 1200.000 1800.000 L 1800.000 1800.000 1799.929 1717.000 C 1799.890 1671.350,1798.218 1618.420,1796.214 1599.378 C 1789.440 1535.012,1757.594 1473.692,1704.692 1423.150 C 1679.947 1399.509,1664.770 1389.065,1631.252 1372.614 C 1557.144 1336.242,1456.653 1304.647,1369.736 1290.393 C 1327.442 1283.456,1127.214 1279.098,1076.000 1283.999 M336.141 1404.088 C 261.060 1411.896,168.300 1437.423,114.000 1465.221 C 73.474 1485.967,39.020 1519.852,20.848 1556.834 C 4.252 1590.608,0.071 1624.383,0.030 1725.000 L 0.000 1800.000 226.000 1800.000 L 452.000 1800.000 452.054 1751.000 C 452.084 1724.050,453.840 1667.800,455.955 1626.000 C 460.364 1538.883,467.221 1505.912,491.871 1453.311 C 500.742 1434.381,508.000 1416.700,508.000 1414.021 C 508.000 1405.256,390.319 1398.454,336.141 1404.088 M1905.124 1407.601 L 1888.247 1410.000 1906.381 1449.366 C 1933.121 1507.415,1939.575 1537.684,1944.045 1626.000 C 1946.160 1667.800,1947.916 1724.050,1947.946 1751.000 L 1948.000 1800.000 2174.410 1800.000 L 2400.821 1800.000 2399.057 1703.000 C 2397.498 1617.236,2396.287 1602.917,2388.604 1579.382 C 2359.781 1491.091,2260.278 1432.903,2098.886 1409.959 C 2058.186 1404.173,1939.404 1402.727,1905.124 1407.601 " fill="#1D1E23" stroke="none" fill-rule="evenodd"/></svg>