<svg viewBox="0 0 2400 2400" fill="none" xmlns="http://www.w3.org/2000/svg"><path d="M762.000 502.226 C 757.600 503.245,744.180 506.073,732.178 508.510 C 683.549 518.385,625.474 551.053,586.773 590.301 C 501.598 676.680,477.199 801.656,523.365 915.098 C 552.108 985.729,614.271 1047.892,684.902 1076.635 C 853.166 1145.111,1038.641 1053.752,1088.625 877.774 C 1101.302 833.140,1101.302 766.860,1088.625 722.226 C 1073.307 668.298,1051.136 630.840,1010.160 589.659 C 979.731 559.078,967.978 550.339,936.000 534.517 C 915.100 524.176,888.100 513.024,876.000 509.734 C 854.067 503.772,777.191 498.709,762.000 502.226 M1562.000 502.226 C 1557.600 503.245,1544.180 506.073,1532.178 508.510 C 1483.549 518.385,1425.474 551.053,1386.773 590.301 C 1301.598 676.680,1277.199 801.656,1323.365 915.098 C 1352.108 985.729,1414.271 1047.892,1484.902 1076.635 C 1653.166 1145.111,1838.641 1053.752,1888.625 877.774 C 1901.302 833.140,1901.302 766.860,1888.625 722.226 C 1873.307 668.298,1851.136 630.840,1810.160 589.659 C 1779.731 559.078,1767.978 550.339,1736.000 534.517 C 1715.100 524.176,1688.100 513.024,1676.000 509.734 C 1654.067 503.772,1577.191 498.709,1562.000 502.226 M717.152 1304.087 C 596.396 1315.824,457.036 1349.242,356.655 1390.531 C 213.648 1449.354,123.596 1528.397,104.341 1612.000 C 101.930 1622.471,100.155 1686.466,100.098 1765.000 L 100.000 1900.000 800.000 1900.000 L 1500.000 1900.000 1499.902 1765.000 C 1499.845 1686.466,1498.070 1622.471,1495.659 1612.000 C 1476.872 1530.429,1389.714 1452.405,1252.000 1393.875 C 1172.253 1359.982,1050.192 1327.366,946.000 1312.108 C 881.658 1302.686,771.347 1298.820,717.152 1304.087 M1528.495 1303.394 L 1502.990 1306.000 1522.495 1319.934 C 1577.393 1359.154,1643.754 1441.005,1668.602 1500.146 C 1696.173 1565.766,1697.260 1574.515,1699.037 1745.000 L 1700.652 1900.000 2000.326 1900.000 L 2300.000 1900.000 2299.902 1765.000 C 2299.845 1686.466,2298.070 1622.471,2295.659 1612.000 C 2276.872 1530.429,2189.714 1452.405,2052.000 1393.875 C 1972.253 1359.982,1850.192 1327.366,1746.000 1312.108 C 1687.010 1303.470,1572.607 1298.886,1528.495 1303.394 " fill="#1D1E23" stroke="none" fill-rule="evenodd"/></svg>