<svg viewBox="0 0 2400 2400" fill="none" xmlns="http://www.w3.org/2000/svg"><path d="M718.000 513.518 C 614.679 547.321,542.627 619.346,511.439 720.000 C 499.474 758.617,498.558 831.782,509.540 871.769 C 560.685 1057.995,760.067 1151.071,930.000 1068.048 C 1033.855 1017.308,1096.000 916.917,1096.000 799.887 C 1096.000 682.041,1033.443 583.251,926.000 531.420 C 884.333 511.320,848.793 504.113,792.000 504.248 C 755.085 504.336,740.470 506.167,718.000 513.518 M1518.000 513.518 C 1414.679 547.321,1342.627 619.346,1311.439 720.000 C 1299.474 758.617,1298.558 831.782,1309.540 871.769 C 1360.685 1057.995,1560.067 1151.071,1730.000 1068.048 C 1833.855 1017.308,1896.000 916.917,1896.000 799.887 C 1896.000 682.041,1833.443 583.251,1726.000 531.420 C 1684.333 511.320,1648.793 504.113,1592.000 504.248 C 1555.085 504.336,1540.470 506.167,1518.000 513.518 M1520.280 1318.622 C 1554.200 1346.612,1614.284 1410.170,1631.243 1436.000 C 1668.582 1492.871,1686.550 1540.897,1692.601 1600.000 C 1697.640 1649.222,1694.646 1853.972,1688.539 1877.779 C 1686.312 1886.458,1685.387 1895.008,1686.482 1896.779 C 1687.576 1898.551,1808.124 1900.000,1954.365 1900.000 C 2250.012 1900.000,2233.562 1901.473,2265.378 1872.146 C 2295.616 1844.274,2296.194 1841.656,2298.865 1720.496 L 2301.229 1613.256 2283.615 1579.628 C 2262.233 1538.808,2209.787 1483.719,2164.000 1453.987 C 2076.645 1397.261,1947.827 1350.532,1800.000 1321.946 C 1745.923 1311.488,1643.848 1304.368,1544.280 1304.109 L 1502.560 1304.000 1520.280 1318.622 M618.000 1318.290 C 347.787 1370.354,177.340 1459.385,116.056 1580.473 L 99.087 1614.000 101.289 1720.659 C 103.727 1838.791,104.626 1843.129,132.872 1873.079 C 157.392 1899.077,128.556 1898.000,800.000 1898.000 C 1471.444 1898.000,1442.608 1899.077,1467.128 1873.079 C 1495.351 1843.153,1496.257 1838.793,1498.870 1720.288 L 1501.229 1613.256 1483.615 1580.088 C 1449.056 1515.013,1388.509 1462.173,1296.202 1416.528 C 1214.813 1376.283,1133.025 1349.437,1018.000 1325.212 L 950.000 1310.891 810.000 1309.581 C 674.279 1308.311,668.411 1308.577,618.000 1318.290 " fill="#1D1E23" stroke="none" fill-rule="evenodd"/></svg>