<svg viewBox="0 0 2400 2400" fill="none" xmlns="http://www.w3.org/2000/svg"><path d="M732.674 510.133 C 699.865 517.255,649.088 542.297,614.950 568.193 C 566.944 604.609,525.373 667.649,509.485 728.127 C 500.010 764.191,500.256 837.330,509.969 872.000 C 537.765 971.219,610.797 1050.300,703.863 1081.954 C 747.582 1096.823,791.764 1101.893,831.287 1096.574 C 955.630 1079.840,1047.688 1002.588,1084.604 884.000 C 1098.122 840.574,1098.118 759.338,1084.595 716.141 C 1075.176 686.054,1059.308 652.154,1044.275 630.004 C 1017.792 590.984,955.983 542.837,908.000 523.852 C 860.357 505.001,783.884 499.018,732.674 510.133 M1532.674 510.133 C 1499.865 517.255,1449.088 542.297,1414.950 568.193 C 1366.944 604.609,1325.373 667.649,1309.485 728.127 C 1300.010 764.191,1300.256 837.330,1309.969 872.000 C 1337.765 971.219,1410.797 1050.300,1503.863 1081.954 C 1547.582 1096.823,1591.764 1101.893,1631.287 1096.574 C 1755.630 1079.840,1847.688 1002.588,1884.604 884.000 C 1898.122 840.574,1898.118 759.338,1884.595 716.141 C 1875.176 686.054,1859.308 652.154,1844.275 630.004 C 1817.792 590.984,1755.983 542.837,1708.000 523.852 C 1660.357 505.001,1583.884 499.018,1532.674 510.133 M1522.437 1320.638 C 1533.197 1329.789,1556.159 1351.839,1573.464 1369.638 C 1654.859 1453.357,1684.771 1517.085,1692.852 1624.000 C 1697.267 1682.417,1692.415 1873.597,1686.132 1888.756 C 1683.919 1894.093,1686.132 1896.033,1696.666 1897.994 C 1704.000 1899.358,1826.100 1899.918,1968.000 1899.238 C 2209.314 1898.080,2226.960 1897.523,2240.841 1890.620 C 2261.034 1880.578,2286.416 1852.158,2291.928 1833.419 C 2294.452 1824.835,2297.502 1772.640,2298.807 1715.680 L 2301.150 1613.359 2286.528 1585.680 C 2227.857 1474.616,2091.801 1392.687,1878.582 1340.028 C 1843.062 1331.256,1795.100 1321.430,1772.000 1318.192 C 1721.268 1311.081,1610.863 1304.092,1548.437 1304.039 L 1502.874 1304.000 1522.437 1320.638 M659.964 1312.109 C 586.233 1320.313,439.742 1358.856,362.439 1390.390 C 231.026 1443.996,152.972 1506.309,109.897 1592.000 L 98.838 1614.000 101.056 1716.000 C 103.455 1826.342,105.554 1838.838,126.240 1865.959 C 145.726 1891.507,152.334 1892.779,284.000 1896.334 C 436.824 1900.459,1163.176 1900.459,1316.000 1896.334 C 1447.666 1892.779,1454.274 1891.507,1473.760 1865.959 C 1494.755 1838.434,1496.687 1826.677,1498.744 1714.000 L 1500.642 1610.000 1481.321 1576.228 C 1413.975 1458.513,1260.865 1377.176,1004.000 1322.662 C 962.064 1313.762,946.162 1312.717,824.000 1310.833 C 750.300 1309.696,676.484 1310.270,659.964 1312.109 " fill="#1D1E23" stroke="none" fill-rule="evenodd"/></svg>