<svg viewBox="0 0 2400 2400" fill="none" xmlns="http://www.w3.org/2000/svg"><path d="M729.621 509.646 C 573.478 550.670,476.363 699.759,505.747 853.334 C 525.080 954.379,595.023 1040.252,688.000 1077.097 C 847.140 1140.160,1023.663 1060.533,1080.447 900.068 C 1133.122 751.215,1061.945 588.305,916.983 525.929 C 879.789 509.925,858.715 505.520,804.000 502.314 C 771.973 500.438,760.281 501.590,729.621 509.646 M1529.621 509.646 C 1373.478 550.670,1276.363 699.759,1305.747 853.334 C 1325.080 954.379,1395.023 1040.252,1488.000 1077.097 C 1647.140 1140.160,1823.663 1060.533,1880.447 900.068 C 1933.122 751.215,1861.945 588.305,1716.983 525.929 C 1679.789 509.925,1658.715 505.520,1604.000 502.314 C 1571.973 500.438,1560.281 501.590,1529.621 509.646 M692.000 1306.566 C 533.603 1326.581,362.923 1378.064,265.053 1435.348 C 190.085 1479.228,142.252 1525.752,116.333 1580.000 L 102.000 1610.000 100.694 1755.000 L 99.387 1900.000 800.036 1900.000 L 1500.685 1900.000 1499.343 1754.689 L 1498.000 1609.378 1480.806 1574.688 C 1422.157 1456.363,1233.954 1361.374,967.629 1315.682 C 927.390 1308.778,897.945 1306.943,812.000 1305.982 C 753.700 1305.330,699.700 1305.593,692.000 1306.566 M1508.000 1306.934 C 1508.000 1309.136,1515.523 1315.915,1524.717 1322.000 C 1565.854 1349.223,1632.144 1428.586,1659.938 1483.889 C 1687.177 1538.087,1692.250 1561.084,1696.136 1648.000 C 1698.055 1690.900,1699.709 1765.150,1699.812 1813.000 L 1700.000 1900.000 2000.343 1900.000 L 2300.685 1900.000 2299.343 1754.689 L 2298.000 1609.378 2280.806 1574.688 C 2222.157 1456.362,2033.100 1360.965,1767.629 1315.743 C 1729.512 1309.249,1693.644 1306.783,1613.000 1305.110 C 1544.169 1303.682,1508.000 1304.310,1508.000 1306.934 " fill="#1D1E23" stroke="none" fill-rule="evenodd"/></svg>