<svg viewBox="0 0 2400 2400" fill="none" xmlns="http://www.w3.org/2000/svg"><path d="M934.000 203.889 C 762.883 207.285,709.083 211.451,640.315 226.627 C 522.441 252.640,442.440 296.071,362.000 377.720 C 270.125 470.976,223.291 586.488,207.815 758.000 C 201.318 830.013,198.534 1313.536,203.555 1498.000 C 208.142 1666.498,212.481 1712.662,230.191 1781.401 C 278.340 1968.277,402.305 2100.754,584.000 2159.505 C 657.527 2183.280,707.870 2190.207,851.981 2196.379 C 982.001 2201.948,1575.476 2198.828,1644.000 2192.215 C 1752.657 2181.729,1820.758 2164.233,1894.000 2127.987 C 2048.471 2051.543,2149.567 1912.292,2179.970 1734.086 C 2196.207 1638.915,2197.985 1586.205,2197.985 1200.000 C 2197.985 813.488,2196.213 761.123,2179.905 665.538 C 2156.183 526.495,2085.316 404.827,1983.254 327.922 C 1877.147 247.968,1776.835 216.495,1601.545 208.161 C 1486.083 202.672,1114.975 200.297,934.000 203.889 M1540.000 387.953 C 1694.652 392.555,1746.603 401.270,1814.000 433.918 C 1927.282 488.793,1991.771 592.823,2008.705 748.000 C 2015.976 814.629,2016.066 1555.533,2008.813 1634.387 C 2001.368 1715.332,1991.842 1756.963,1970.418 1802.191 C 1925.568 1896.870,1862.773 1953.098,1764.632 1986.454 C 1679.388 2015.428,1554.946 2021.705,1124.000 2018.773 C 942.813 2017.541,799.237 2014.844,772.000 2012.162 C 645.549 1999.712,569.242 1970.558,504.597 1910.000 C 440.649 1850.095,406.323 1774.662,391.745 1662.000 C 385.192 1611.359,381.865 919.041,387.648 809.424 C 392.476 717.898,401.809 662.929,420.488 616.000 C 470.925 489.282,558.170 423.359,712.000 395.730 C 766.644 385.916,1302.411 380.884,1540.000 387.953 M1706.000 551.520 C 1666.710 561.685,1632.245 594.166,1621.488 631.168 C 1598.777 709.291,1655.196 784.623,1736.519 784.762 C 1811.437 784.889,1868.170 705.669,1846.512 631.168 C 1838.257 602.773,1811.601 572.255,1785.095 560.852 C 1763.442 551.537,1723.945 546.877,1706.000 551.520 M1114.000 694.822 C 1068.527 700.972,994.373 728.173,948.035 755.702 C 833.437 823.783,752.012 922.294,714.700 1038.000 C 693.552 1103.579,692.000 1114.649,692.000 1199.911 C 692.000 1286.726,695.220 1307.738,718.527 1372.992 C 776.276 1534.679,913.092 1656.403,1086.086 1700.005 C 1117.567 1707.940,1131.874 1709.041,1202.000 1708.928 C 1275.005 1708.809,1285.376 1707.899,1320.604 1698.515 C 1415.293 1673.292,1481.602 1636.451,1551.061 1570.472 C 1594.733 1528.990,1628.064 1485.285,1653.041 1436.754 C 1690.168 1364.614,1707.182 1301.396,1710.838 1222.000 C 1715.774 1114.788,1686.598 1006.765,1629.630 921.335 C 1600.895 878.244,1529.571 805.887,1487.323 776.967 C 1426.928 735.625,1351.384 705.904,1282.263 696.290 C 1253.243 692.253,1140.277 691.268,1114.000 694.822 M1246.224 872.284 C 1307.589 880.819,1378.694 913.953,1424.393 955.309 C 1453.849 981.965,1491.971 1039.061,1507.912 1080.398 C 1567.821 1235.745,1504.669 1409.992,1359.615 1489.581 C 1194.233 1580.323,990.323 1517.582,905.972 1350.000 C 880.589 1299.572,871.221 1260.762,870.729 1204.000 C 870.286 1152.820,875.214 1124.675,892.545 1079.422 C 920.625 1006.104,973.676 946.331,1044.151 908.607 C 1107.667 874.609,1175.400 862.434,1246.224 872.284 " fill="#1D1E23" stroke="none" fill-rule="evenodd"/></svg>