<svg viewBox="0 0 2400 2400" fill="none" xmlns="http://www.w3.org/2000/svg"><path d="M838.000 204.338 C 794.000 206.043,740.000 209.484,718.000 211.984 C 573.031 228.462,458.849 278.865,372.269 364.599 C 312.674 423.611,274.461 483.056,248.410 557.280 C 205.997 678.120,200.045 757.222,200.045 1200.000 C 200.045 1642.941,206.031 1722.393,248.471 1842.720 C 273.710 1914.278,312.790 1975.709,368.541 2031.459 C 437.869 2100.788,511.898 2142.196,616.000 2169.876 C 710.005 2194.870,807.662 2199.889,1200.000 2199.889 C 1656.969 2199.889,1734.332 2193.529,1858.657 2145.736 C 1987.376 2096.255,2098.416 1984.372,2146.892 1855.316 C 2193.514 1731.193,2199.955 1651.648,2199.955 1200.000 C 2199.955 757.051,2193.967 677.583,2151.526 557.280 C 2125.733 484.167,2089.610 427.526,2031.352 368.844 C 1942.861 279.709,1831.875 229.646,1684.000 212.161 C 1616.140 204.137,1440.547 200.119,1182.000 200.673 C 1036.800 200.984,882.000 202.633,838.000 204.338 M1630.000 387.891 C 1762.239 400.026,1837.551 429.786,1903.882 496.118 C 1971.048 563.283,2000.724 639.436,2012.189 774.050 C 2018.848 852.238,2021.830 1379.186,2016.422 1522.089 C 2010.137 1688.191,2000.212 1747.968,1967.957 1814.000 C 1914.718 1922.991,1817.345 1987.623,1676.000 2007.789 C 1616.419 2016.290,1476.871 2019.857,1202.000 2019.906 C 810.342 2019.975,721.177 2014.901,635.374 1987.660 C 496.345 1943.520,411.845 1833.716,392.104 1671.541 C 375.826 1537.817,375.826 862.183,392.104 728.459 C 409.227 587.797,474.546 486.561,582.286 433.703 C 647.144 401.884,713.127 389.594,848.794 384.065 C 962.242 379.442,1570.381 382.420,1630.000 387.891 M1680.717 560.273 C 1625.522 587.854,1601.441 647.349,1621.455 706.682 C 1634.821 746.306,1668.498 774.253,1714.787 784.134 C 1755.304 792.783,1803.810 772.650,1830.285 736.195 C 1862.997 691.152,1859.801 629.357,1822.479 585.232 C 1816.539 578.210,1800.664 566.960,1787.201 560.232 C 1766.720 549.998,1758.032 548.000,1734.000 548.000 C 1709.947 548.000,1701.285 549.995,1680.717 560.273 M1113.749 694.236 C 1010.360 711.616,914.578 761.523,837.856 837.990 C 777.941 897.704,740.500 957.943,713.967 1037.314 C 677.735 1145.694,678.624 1263.415,716.483 1370.754 C 769.287 1520.466,886.024 1635.456,1036.162 1685.648 C 1092.625 1704.524,1139.106 1712.000,1200.000 1712.000 C 1340.001 1712.000,1463.694 1660.796,1562.006 1562.144 C 1622.396 1501.546,1659.631 1441.665,1686.033 1362.686 C 1704.529 1307.358,1712.000 1260.553,1712.000 1200.000 C 1712.000 1059.995,1660.791 936.292,1562.144 838.000 C 1461.766 737.983,1337.738 687.315,1196.000 688.423 C 1168.500 688.638,1131.487 691.254,1113.749 694.236 M1267.169 874.336 C 1470.520 916.129,1586.708 1135.670,1507.044 1327.591 C 1415.856 1547.275,1125.281 1602.480,961.418 1431.250 C 798.718 1261.235,856.477 982.730,1073.120 892.637 C 1131.024 868.556,1205.068 861.574,1267.169 874.336 " fill="#1D1E23" stroke="none" fill-rule="evenodd"/></svg>