<svg viewBox="0 0 2400 2400" fill="none" xmlns="http://www.w3.org/2000/svg"><path d="M803.864 207.954 C 630.333 216.731,523.021 249.049,425.919 321.775 C 306.492 411.222,241.380 528.048,214.004 702.000 C 196.702 811.939,195.374 1523.114,212.174 1682.000 C 226.561 1818.068,280.703 1939.525,365.395 2025.720 C 436.571 2098.159,520.284 2144.532,629.387 2171.961 C 716.226 2193.792,831.565 2199.900,1154.000 2199.744 C 1444.625 2199.603,1643.670 2194.598,1700.000 2186.016 C 1866.320 2160.677,1995.191 2088.229,2080.691 1972.000 C 2136.861 1895.643,2169.437 1810.381,2186.145 1696.000 C 2203.777 1575.286,2203.861 824.580,2186.255 705.119 C 2170.432 597.754,2143.109 521.435,2094.248 448.119 C 2042.792 370.910,1977.387 314.424,1890.000 271.721 C 1820.614 237.815,1763.475 223.150,1656.000 211.664 C 1605.650 206.283,897.833 203.201,803.864 207.954 M1498.000 387.938 C 1693.588 393.310,1740.347 399.993,1807.714 432.199 C 1912.884 482.478,1970.310 560.692,2000.637 694.959 C 2009.361 733.585,2009.471 738.417,2010.994 1150.000 C 2012.851 1651.944,2010.336 1702.507,1979.693 1779.302 C 1926.980 1911.405,1828.844 1984.770,1676.746 2005.781 C 1590.425 2017.706,1443.496 2021.098,1122.000 2018.591 C 800.821 2016.086,753.473 2013.893,684.000 1998.304 C 600.131 1979.486,547.918 1952.535,497.907 1902.248 C 447.683 1851.748,417.700 1792.710,399.891 1709.250 C 392.384 1674.071,391.150 1649.465,387.996 1472.000 C 383.366 1211.588,383.381 961.435,388.033 840.000 C 393.503 697.212,400.884 658.441,436.687 584.415 C 458.671 538.962,463.725 531.777,497.335 498.210 C 533.876 461.713,557.775 445.863,608.000 424.812 C 640.255 411.292,697.428 397.236,734.000 393.833 C 818.496 385.973,1293.127 382.310,1498.000 387.938 M1680.964 562.269 C 1658.209 573.608,1640.721 591.411,1627.094 617.111 C 1613.457 642.828,1614.304 690.647,1628.888 718.493 C 1674.799 806.152,1796.009 805.206,1838.565 716.856 C 1847.521 698.262,1849.591 688.406,1849.667 664.000 C 1849.748 638.234,1848.102 630.974,1838.008 612.565 C 1815.233 571.028,1780.690 552.000,1728.059 552.000 C 1707.638 552.000,1696.851 554.352,1680.964 562.269 M1107.031 696.038 C 1055.131 704.323,973.979 738.103,920.482 773.691 C 823.020 838.526,754.431 925.687,716.691 1032.663 C 696.580 1089.671,691.997 1120.181,692.030 1196.831 C 692.066 1277.990,695.549 1303.398,714.380 1359.838 C 767.157 1518.025,890.602 1637.743,1056.000 1691.147 L 1102.000 1706.000 1202.000 1706.000 L 1302.000 1706.000 1348.000 1690.505 C 1437.814 1660.252,1496.410 1624.052,1562.144 1558.210 C 1636.092 1484.141,1680.352 1401.518,1702.607 1296.000 C 1712.614 1248.551,1712.467 1151.300,1702.314 1102.000 C 1686.802 1026.684,1652.246 948.858,1611.865 898.293 C 1549.984 820.806,1469.448 757.684,1394.340 727.801 C 1330.864 702.546,1293.964 695.859,1208.000 694.030 C 1165.100 693.118,1119.664 694.021,1107.031 696.038 M1236.138 871.978 C 1294.926 878.715,1365.219 908.233,1412.813 946.168 C 1453.726 978.778,1496.996 1045.760,1516.064 1106.000 C 1528.697 1145.907,1531.665 1227.003,1522.087 1270.531 C 1507.618 1336.288,1476.055 1391.932,1426.554 1438.954 C 1321.537 1538.710,1172.177 1558.822,1042.000 1490.737 C 1017.465 1477.905,1000.617 1464.668,969.782 1434.000 C 933.156 1397.573,927.532 1389.891,906.811 1348.000 C 876.946 1287.622,870.188 1254.342,873.167 1182.326 C 875.277 1131.317,878.359 1116.121,895.148 1073.959 C 937.103 968.591,1042.845 887.081,1156.771 872.290 C 1192.650 867.632,1198.030 867.611,1236.138 871.978 " fill="#1D1E23" stroke="none" fill-rule="evenodd"/></svg>