<svg viewBox="0 0 2400 2400" fill="none" xmlns="http://www.w3.org/2000/svg"><path d="M764.000 210.622 C 615.560 224.847,529.890 251.118,446.000 308.139 C 330.039 386.958,262.195 489.569,226.148 640.654 C 220.722 663.394,214.444 697.300,212.196 716.000 C 196.301 848.211,196.356 1553.221,212.272 1684.000 C 239.676 1909.186,360.275 2072.793,554.228 2147.906 C 674.456 2194.467,785.347 2202.345,1268.000 2198.611 C 1578.488 2196.210,1662.911 2193.102,1724.000 2181.826 C 1890.165 2151.155,2017.901 2070.303,2099.736 1944.000 C 2152.387 1862.739,2183.354 1757.150,2191.921 1629.678 C 2203.355 1459.536,2200.465 822.174,2187.796 719.830 C 2171.167 585.499,2126.854 478.633,2053.354 395.608 C 2004.976 340.961,1957.885 306.160,1883.881 270.365 C 1810.607 234.924,1741.681 218.740,1634.544 211.822 C 1583.344 208.516,797.284 207.432,764.000 210.622 M1444.000 388.028 C 1632.265 392.143,1687.613 395.923,1739.705 408.225 C 1805.524 423.769,1881.246 469.531,1920.461 517.463 C 1947.007 549.911,1981.143 620.322,1994.413 670.000 L 2005.097 710.000 2008.828 928.000 C 2013.151 1180.654,2010.330 1611.724,2003.971 1670.000 C 1997.691 1727.558,1990.040 1756.768,1970.364 1798.305 C 1932.194 1878.882,1885.195 1929.209,1815.296 1964.354 C 1724.244 2010.134,1624.589 2019.977,1254.000 2019.795 C 993.915 2019.667,777.347 2014.105,728.000 2006.284 C 624.117 1989.821,555.592 1958.878,500.542 1903.575 C 450.279 1853.081,425.171 1806.535,403.675 1724.000 C 391.473 1677.147,387.323 1541.701,386.699 1170.000 C 385.944 720.106,389.205 682.938,438.231 582.696 C 447.727 563.278,463.242 537.351,472.709 525.080 C 510.191 476.497,571.873 435.519,639.376 414.356 C 702.984 394.415,736.119 391.484,934.000 388.300 C 1207.569 383.897,1253.881 383.872,1444.000 388.028 M1681.147 563.879 C 1639.111 585.187,1618.394 618.241,1618.394 664.000 C 1618.395 732.847,1666.551 782.000,1734.000 782.000 C 1782.250 782.000,1818.888 757.957,1840.482 712.123 C 1851.653 688.412,1852.434 640.243,1841.978 619.819 C 1819.878 576.648,1788.217 556.538,1737.217 553.277 C 1708.126 551.417,1704.307 552.140,1681.147 563.879 M1072.389 704.436 C 1002.463 723.210,917.473 770.073,857.489 822.931 C 778.424 892.602,715.380 1002.976,698.122 1101.943 C 690.464 1145.857,690.203 1254.417,697.656 1296.000 C 714.580 1390.432,766.952 1487.732,839.753 1560.000 C 900.275 1620.078,964.992 1659.195,1057.263 1691.469 L 1104.525 1708.000 1199.450 1708.000 L 1294.375 1708.000 1340.187 1692.553 C 1365.384 1684.058,1398.493 1671.415,1413.761 1664.459 C 1501.850 1624.327,1596.154 1536.158,1648.104 1445.361 C 1667.300 1411.810,1692.357 1343.427,1702.252 1297.588 C 1711.574 1254.401,1711.599 1146.388,1702.298 1102.930 C 1679.000 994.083,1634.116 913.209,1555.059 837.630 C 1492.365 777.694,1431.782 739.686,1362.000 716.512 C 1312.327 700.016,1276.461 695.961,1182.711 696.243 C 1115.298 696.445,1097.121 697.795,1072.389 704.436 M1266.949 878.224 C 1327.819 891.978,1394.129 926.733,1431.394 964.413 C 1467.951 1001.378,1506.763 1069.922,1518.523 1118.290 C 1529.184 1162.133,1528.356 1249.355,1516.901 1289.166 C 1488.078 1389.338,1414.469 1469.999,1318.000 1507.121 C 1270.733 1525.309,1246.869 1529.778,1198.000 1529.595 C 1073.341 1529.126,964.783 1461.153,908.010 1348.020 C 877.598 1287.417,874.085 1271.979,874.323 1200.000 C 874.497 1147.322,875.897 1133.489,883.636 1108.000 C 915.788 1002.101,997.945 918.527,1102.000 885.870 C 1160.517 867.505,1209.471 865.235,1266.949 878.224 " fill="#1D1E23" stroke="none" fill-rule="evenodd"/></svg>