<svg viewBox="0 0 2400 2400" fill="none" xmlns="http://www.w3.org/2000/svg"><path d="M894.000 204.162 C 752.827 207.215,704.544 211.417,636.159 226.601 C 530.222 250.122,448.773 292.517,376.833 361.581 C 317.100 418.927,280.030 474.643,251.846 549.434 C 204.876 674.076,198.005 772.402,201.220 1273.796 C 203.276 1594.319,205.432 1651.179,218.443 1728.000 C 254.250 1939.425,383.410 2094.348,576.639 2157.646 C 688.142 2194.171,772.032 2199.855,1200.000 2199.878 C 1625.062 2199.902,1711.468 2194.072,1824.031 2157.778 C 1971.630 2110.187,2091.347 1998.063,2146.245 1856.000 C 2192.508 1736.285,2199.893 1645.975,2199.893 1200.000 C 2199.893 749.807,2192.587 662.744,2144.481 539.705 C 2092.550 406.882,1977.588 297.106,1837.841 246.896 C 1800.147 233.353,1727.115 217.440,1678.000 212.069 C 1583.060 201.686,1191.187 197.734,894.000 204.162 M1608.000 387.922 C 1710.167 393.971,1785.644 412.980,1840.995 446.604 C 1874.191 466.770,1924.029 514.951,1946.221 548.332 C 1977.069 594.734,1997.225 654.841,2007.812 732.000 C 2015.838 790.494,2021.685 1267.341,2016.641 1452.000 C 2010.120 1690.696,2003.591 1737.169,1965.784 1814.000 C 1932.347 1881.950,1888.346 1927.747,1824.259 1961.301 C 1725.226 2013.151,1653.217 2019.838,1194.000 2019.829 C 808.474 2019.822,718.701 2014.349,632.000 1985.571 C 523.987 1949.718,451.045 1876.918,413.996 1767.988 C 386.413 1686.891,382.428 1615.194,382.428 1200.000 C 382.428 860.443,385.586 758.694,398.187 692.269 C 415.770 599.581,463.285 516.277,525.055 469.844 C 589.676 421.267,663.058 397.625,778.000 388.348 C 834.090 383.821,1532.679 383.462,1608.000 387.922 M1694.363 554.089 C 1645.645 572.574,1616.038 614.924,1616.127 666.000 C 1616.230 725.059,1650.018 766.841,1710.434 782.618 C 1779.328 800.608,1852.000 740.744,1852.000 666.000 C 1852.000 601.170,1803.639 551.617,1738.000 549.191 C 1720.545 548.546,1704.111 550.391,1694.363 554.089 M1136.000 691.731 C 966.481 709.714,799.720 833.937,730.943 993.467 C 722.488 1013.079,709.935 1050.022,703.046 1075.562 C 691.029 1120.118,690.522 1125.162,690.522 1200.000 C 690.522 1274.838,691.029 1279.882,703.046 1324.438 C 719.891 1386.895,741.448 1435.397,774.282 1484.718 C 849.332 1597.452,970.466 1677.699,1106.000 1704.469 C 1143.092 1711.796,1256.887 1711.798,1294.000 1704.474 C 1410.879 1681.406,1504.245 1626.975,1588.058 1533.043 C 1696.741 1411.238,1737.909 1234.382,1695.754 1070.389 C 1672.175 978.660,1630.647 907.684,1559.264 837.114 C 1462.295 741.248,1353.042 694.377,1216.648 690.127 C 1188.792 689.259,1152.500 689.981,1136.000 691.731 M1260.000 873.666 C 1319.533 884.357,1386.255 918.117,1429.317 959.338 C 1454.582 983.522,1480.088 1019.849,1498.709 1058.169 C 1593.330 1252.895,1474.971 1485.252,1260.558 1525.693 C 1078.975 1559.941,905.863 1440.077,874.135 1258.130 C 866.405 1213.806,866.397 1186.242,874.100 1142.069 C 905.632 961.251,1078.436 841.062,1260.000 873.666 " fill="#1D1E23" stroke="none" fill-rule="evenodd"/></svg>