<svg viewBox="0 0 2400 2400" fill="none" xmlns="http://www.w3.org/2000/svg"><path d="M490.000 207.906 C 299.092 209.988,297.892 210.053,279.088 219.314 C 257.650 229.872,228.608 260.256,211.582 289.939 L 200.075 310.000 200.075 1200.000 L 200.075 2090.000 212.574 2111.797 C 228.542 2139.646,260.354 2171.458,288.203 2187.426 L 310.000 2199.925 1200.000 2199.925 L 2090.000 2199.925 2111.797 2187.426 C 2139.646 2171.458,2171.458 2139.646,2187.426 2111.797 L 2199.925 2090.000 2199.925 1200.000 L 2199.925 310.000 2188.344 290.000 C 2171.024 260.088,2149.045 236.501,2122.515 219.354 L 2098.760 204.000 1390.380 204.906 C 1000.771 205.405,595.600 206.755,490.000 207.906 M718.358 496.153 C 749.540 511.152,780.452 543.623,797.194 578.966 C 809.072 604.042,810.000 609.042,810.000 648.000 C 810.000 686.913,809.064 691.977,797.260 716.893 C 773.270 767.535,725.832 804.409,669.676 816.067 C 607.510 828.973,529.176 787.847,494.000 723.837 C 482.338 702.614,482.000 700.481,482.000 648.000 C 482.000 599.358,482.935 592.101,491.427 574.855 C 513.002 531.038,564.029 490.256,605.318 483.829 C 643.521 477.883,691.173 483.078,718.358 496.153 M1670.000 941.644 C 1683.200 945.166,1711.100 956.411,1732.000 966.634 C 1762.451 981.529,1776.050 991.258,1800.458 1015.611 C 1825.935 1041.031,1834.241 1052.868,1851.253 1088.000 C 1873.608 1134.164,1885.130 1174.757,1891.742 1230.642 C 1898.236 1285.540,1903.852 1510.549,1903.930 1719.000 L 1904.000 1904.000 1756.000 1904.000 L 1608.000 1904.000 1607.662 1701.000 C 1607.210 1430.015,1603.469 1320.953,1593.632 1292.000 C 1581.712 1256.913,1557.329 1223.983,1532.177 1209.000 L 1510.354 1196.000 1450.177 1196.088 C 1399.262 1196.162,1387.365 1197.371,1372.882 1203.945 C 1333.946 1221.617,1292.742 1279.047,1283.820 1328.078 C 1281.595 1340.311,1278.733 1472.423,1277.346 1627.000 L 1274.861 1904.000 1127.431 1904.000 L 980.000 1904.000 980.000 1428.000 L 980.000 952.000 1121.901 952.000 L 1263.802 952.000 1264.901 1015.536 L 1266.000 1079.072 1291.020 1049.608 C 1338.740 993.410,1394.380 955.663,1452.862 939.810 C 1478.613 932.830,1491.533 932.106,1564.000 933.577 C 1621.911 934.753,1653.050 937.123,1670.000 941.644 M792.000 1428.000 L 792.000 1904.000 644.000 1904.000 L 496.000 1904.000 496.000 1428.000 L 496.000 952.000 644.000 952.000 L 792.000 952.000 792.000 1428.000 " fill="#1D1E23" stroke="none" fill-rule="evenodd"/></svg>