<svg viewBox="0 0 2400 2400" fill="none" xmlns="http://www.w3.org/2000/svg"><path d="M307.717 205.447 C 266.616 216.580,231.677 246.708,212.541 287.520 L 202.000 310.000 202.000 1200.000 L 202.000 2090.000 212.642 2112.701 C 227.541 2144.483,252.120 2169.588,283.426 2185.000 L 309.832 2198.000 1200.000 2198.000 L 2090.168 2198.000 2116.574 2185.000 C 2147.880 2169.588,2172.459 2144.483,2187.358 2112.701 L 2198.000 2090.000 2198.000 1199.916 L 2198.000 309.832 2185.000 283.426 C 2169.588 252.120,2144.483 227.541,2112.701 212.642 L 2090.000 202.000 1208.000 201.247 C 517.532 200.658,322.030 201.570,307.717 205.447 M717.223 492.990 C 862.441 561.953,841.788 773.254,685.860 813.868 C 569.261 844.238,456.957 741.203,476.094 621.414 C 490.331 532.292,563.736 473.271,655.004 477.563 C 682.445 478.854,692.931 481.454,717.223 492.990 M1670.000 939.557 C 1768.697 965.454,1836.781 1028.272,1870.471 1124.520 C 1899.923 1208.663,1903.909 1267.046,1903.959 1615.000 L 1904.000 1904.000 1756.000 1904.000 L 1608.000 1904.000 1608.000 1638.289 C 1608.000 1475.845,1606.373 1360.418,1603.813 1341.289 C 1595.428 1278.626,1574.445 1234.145,1543.372 1213.169 C 1513.131 1192.754,1501.871 1189.984,1450.000 1190.198 C 1409.916 1190.364,1398.239 1191.884,1379.193 1199.413 C 1333.712 1217.395,1303.897 1254.689,1287.027 1314.702 C 1278.409 1345.357,1278.202 1351.732,1276.937 1625.000 L 1275.645 1904.000 1127.822 1904.000 L 980.000 1904.000 980.000 1428.000 L 980.000 952.000 1121.901 952.000 L 1263.802 952.000 1264.901 1016.921 L 1266.000 1081.841 1284.500 1055.921 C 1326.741 996.736,1390.255 953.527,1461.872 935.253 C 1502.443 924.900,1623.701 927.408,1670.000 939.557 M792.000 1428.000 L 792.000 1904.000 644.000 1904.000 L 496.000 1904.000 496.000 1428.000 L 496.000 952.000 644.000 952.000 L 792.000 952.000 792.000 1428.000 " fill="#1D1E23" stroke="none" fill-rule="evenodd"/></svg>