<svg viewBox="0 0 2400 2400" fill="none" xmlns="http://www.w3.org/2000/svg"><path d="M678.000 207.837 L 298.000 210.028 280.326 219.439 C 257.916 231.372,227.097 262.886,211.865 289.444 L 200.075 310.000 200.075 1200.000 L 200.075 2090.000 211.616 2110.000 C 225.966 2134.867,265.707 2174.418,290.962 2188.967 L 310.000 2199.935 1200.000 2199.935 L 2090.000 2199.935 2109.038 2188.967 C 2134.293 2174.418,2174.034 2134.867,2188.384 2110.000 L 2199.925 2090.000 2199.962 1200.351 L 2200.000 310.703 2189.373 292.351 C 2171.759 261.934,2149.490 237.910,2122.767 220.500 L 2097.442 204.000 1577.721 204.823 C 1291.875 205.276,887.000 206.632,678.000 207.837 M667.609 484.188 C 688.664 486.828,708.514 492.180,721.320 498.669 C 748.391 512.387,780.234 545.714,795.544 576.350 C 807.355 599.988,808.000 603.700,808.000 648.077 C 808.000 692.976,807.476 695.893,795.085 719.919 C 770.378 767.823,723.832 803.214,668.722 815.996 C 642.908 821.983,609.343 816.597,576.825 801.248 C 549.773 788.480,510.629 752.295,495.687 726.245 C 484.364 706.505,484.074 704.576,484.038 648.867 C 484.002 595.223,484.635 590.480,494.405 571.202 C 516.061 528.465,568.406 489.497,611.635 483.929 C 623.936 482.345,634.047 480.813,634.105 480.524 C 634.163 480.236,649.239 481.885,667.609 484.188 M1604.269 935.756 C 1663.068 939.015,1668.528 940.030,1702.269 953.981 C 1766.106 980.377,1811.976 1017.552,1838.908 1064.719 C 1857.407 1097.118,1875.507 1146.323,1883.683 1186.446 C 1895.429 1244.083,1899.730 1347.786,1902.700 1645.000 L 1905.288 1904.000 1757.161 1904.000 L 1609.035 1904.000 1606.741 1633.000 C 1605.434 1478.525,1602.602 1347.642,1600.156 1328.609 C 1593.079 1273.544,1566.201 1229.348,1525.166 1205.300 C 1508.282 1195.405,1506.362 1195.198,1444.213 1196.582 L 1380.555 1198.000 1357.278 1214.437 C 1330.731 1233.184,1300.653 1273.914,1289.890 1305.694 C 1281.351 1330.905,1276.749 1474.951,1276.302 1731.000 L 1276.000 1904.000 1128.000 1904.000 L 980.000 1904.000 980.000 1428.000 L 980.000 952.000 1122.000 952.000 L 1264.000 952.000 1264.000 1014.000 C 1264.000 1048.100,1265.350 1075.913,1267.000 1075.806 C 1268.650 1075.699,1278.100 1065.618,1288.000 1053.404 C 1331.546 999.679,1396.242 955.261,1452.000 940.808 C 1487.121 931.704,1514.676 930.790,1604.269 935.756 M792.000 1428.000 L 792.000 1904.000 644.000 1904.000 L 496.000 1904.000 496.000 1428.000 L 496.000 952.000 644.000 952.000 L 792.000 952.000 792.000 1428.000 " fill="#1D1E23" stroke="none" fill-rule="evenodd"/></svg>