<svg viewBox="0 0 2400 2400" fill="none" xmlns="http://www.w3.org/2000/svg"><path d="M422.000 203.533 C 305.122 205.936,301.480 206.256,282.000 215.829 C 254.827 229.183,228.223 256.795,212.811 287.639 L 200.000 313.278 200.000 1200.000 L 200.000 2086.722 212.811 2112.361 C 229.103 2144.966,255.034 2170.897,287.639 2187.189 L 313.278 2200.000 1200.000 2200.000 L 2086.722 2200.000 2112.361 2187.189 C 2144.966 2170.897,2170.897 2144.966,2187.189 2112.361 L 2200.000 2086.722 2200.000 1200.000 L 2200.000 313.278 2187.189 287.639 C 2172.143 257.527,2146.079 230.326,2117.731 215.148 L 2097.461 204.296 1319.731 202.682 C 891.979 201.794,488.000 202.177,422.000 203.533 M701.829 486.718 C 710.535 489.750,726.148 497.678,736.523 504.336 C 828.062 563.076,841.512 691.024,764.268 768.268 C 738.455 794.082,708.541 809.491,670.710 816.461 C 601.352 829.241,525.589 788.822,491.470 720.840 C 478.513 695.023,478.000 692.247,478.000 648.000 C 478.000 604.845,478.767 600.380,490.411 575.811 C 511.557 531.187,545.100 501.192,590.000 486.757 C 624.719 475.594,669.842 475.579,701.829 486.718 M1612.000 932.092 C 1665.405 936.764,1690.801 943.344,1729.791 962.613 C 1785.981 990.383,1822.945 1027.192,1851.691 1084.000 C 1897.663 1174.853,1903.773 1242.356,1903.917 1661.000 L 1904.000 1904.000 1756.262 1904.000 L 1608.524 1904.000 1606.943 1619.000 C 1605.553 1368.443,1604.552 1330.943,1598.659 1308.705 C 1583.701 1252.263,1559.519 1218.662,1521.247 1201.141 C 1501.382 1192.046,1496.293 1191.486,1444.981 1192.739 C 1396.264 1193.929,1387.722 1195.202,1370.000 1203.913 C 1330.599 1223.281,1301.210 1263.170,1285.439 1318.684 C 1279.644 1339.083,1278.589 1377.154,1277.008 1623.000 L 1275.201 1904.000 1127.600 1904.000 L 980.000 1904.000 980.000 1428.000 L 980.000 952.000 1121.901 952.000 L 1263.802 952.000 1264.901 1016.849 L 1266.000 1081.698 1287.407 1052.810 C 1322.054 1006.058,1371.211 968.692,1426.000 947.463 C 1473.000 929.253,1527.782 924.725,1612.000 932.092 M792.000 1428.000 L 792.000 1904.000 644.000 1904.000 L 496.000 1904.000 496.000 1428.000 L 496.000 952.000 644.000 952.000 L 792.000 952.000 792.000 1428.000 " fill="#1D1E23" stroke="none" fill-rule="evenodd"/></svg>