<svg viewBox="0 0 2400 2400" fill="none" xmlns="http://www.w3.org/2000/svg"><path d="M318.000 207.747 C 304.800 209.137,286.788 214.076,277.973 218.722 C 256.666 229.953,223.312 265.731,210.407 291.198 L 200.000 311.734 200.000 1200.000 L 200.000 2088.266 210.465 2108.917 C 224.766 2137.139,259.508 2172.491,287.717 2187.527 L 311.120 2200.000 1200.000 2200.000 L 2088.880 2200.000 2112.283 2187.527 C 2140.492 2172.491,2175.234 2137.139,2189.535 2108.917 L 2200.000 2088.266 2200.000 1200.000 L 2200.000 311.734 2189.593 291.198 C 2176.203 264.773,2143.480 230.203,2118.000 215.565 L 2098.000 204.075 1220.000 204.647 C 737.100 204.962,331.200 206.357,318.000 207.747 M719.501 495.540 C 822.610 548.430,845.015 684.929,764.082 767.148 C 740.251 791.358,703.435 810.421,668.751 816.510 C 601.530 828.311,525.991 787.337,492.442 720.877 C 480.524 697.265,480.002 694.162,480.039 647.114 C 480.073 604.006,481.224 595.554,489.452 578.000 C 510.407 533.290,550.958 497.816,595.369 485.343 C 606.738 482.151,629.592 480.569,654.000 481.285 C 690.087 482.345,696.495 483.739,719.501 495.540 M1656.000 938.439 C 1696.431 945.402,1751.351 970.678,1782.791 996.793 C 1841.653 1045.686,1879.754 1125.043,1891.755 1223.742 C 1899.394 1286.568,1903.810 1454.188,1903.908 1685.000 L 1904.000 1904.000 1756.537 1904.000 L 1609.073 1904.000 1606.846 1617.000 C 1604.902 1366.406,1603.777 1326.983,1597.981 1306.218 C 1584.003 1256.144,1559.165 1221.157,1525.319 1203.868 C 1507.269 1194.648,1502.190 1194.026,1448.000 1194.397 C 1394.157 1194.765,1388.561 1195.524,1369.921 1204.997 C 1345.477 1217.420,1316.280 1247.820,1302.303 1275.402 C 1279.234 1320.926,1279.433 1318.188,1277.081 1623.000 L 1274.913 1904.000 1127.457 1904.000 L 980.000 1904.000 980.000 1428.000 L 980.000 952.000 1122.000 952.000 L 1264.000 952.000 1264.188 1017.000 L 1264.376 1082.000 1275.188 1068.255 C 1340.886 984.737,1407.919 942.403,1491.038 931.937 C 1525.907 927.546,1612.589 930.963,1656.000 938.439 M792.000 1428.000 L 792.000 1904.000 644.000 1904.000 L 496.000 1904.000 496.000 1428.000 L 496.000 952.000 644.000 952.000 L 792.000 952.000 792.000 1428.000 " fill="#1D1E23" stroke="none" fill-rule="evenodd"/></svg>