<svg viewBox="0 0 2400 2400" fill="none" xmlns="http://www.w3.org/2000/svg"><path d="M696.695 604.155 C 471.568 632.503,284.700 792.833,221.965 1011.466 C 164.325 1212.344,220.832 1425.427,371.070 1573.723 C 449.817 1651.452,539.342 1699.466,652.478 1724.649 C 712.341 1737.973,815.659 1737.973,875.522 1724.649 C 1086.890 1677.601,1247.577 1528.261,1306.035 1324.534 C 1397.118 1007.107,1197.773 677.573,874.860 611.768 C 828.119 602.243,741.332 598.534,696.695 604.155 M1641.173 636.103 C 1576.811 645.314,1505.637 709.289,1461.055 798.000 C 1432.961 853.903,1407.728 935.888,1393.293 1018.172 C 1383.137 1076.067,1383.047 1256.496,1393.145 1316.352 C 1417.388 1460.051,1463.832 1567.097,1532.175 1636.795 C 1570.034 1675.405,1600.129 1692.790,1642.863 1700.737 C 1692.275 1709.926,1748.798 1687.562,1796.027 1640.136 C 1868.883 1566.976,1918.074 1446.523,1940.651 1286.000 C 1947.182 1239.564,1947.182 1096.436,1940.651 1050.000 C 1921.555 914.221,1881.215 801.917,1825.334 728.960 C 1771.117 658.175,1708.292 626.498,1641.173 636.103 M2087.679 693.932 C 2064.852 706.344,2039.408 775.036,2023.955 865.975 C 2008.212 958.621,2002.860 1035.243,2002.860 1168.000 C 2002.860 1422.823,2039.087 1618.527,2090.826 1643.200 C 2103.280 1649.138,2104.716 1649.032,2115.033 1641.406 C 2140.373 1622.674,2167.760 1542.240,2181.566 1446.000 C 2195.350 1349.909,2197.806 1307.873,2197.806 1168.000 C 2197.806 1082.326,2195.837 1007.754,2192.842 980.000 C 2175.980 823.744,2149.827 723.712,2119.072 697.833 C 2105.723 686.601,2102.011 686.139,2087.679 693.932 " fill="#1D1E23" stroke="none" fill-rule="evenodd"/></svg>