<svg viewBox="0 0 2400 2400" fill="none" xmlns="http://www.w3.org/2000/svg"><path d="M696.000 607.923 C 583.112 617.475,458.672 678.215,368.048 768.000 C 291.724 843.618,242.937 931.874,213.537 1047.513 C 204.995 1081.111,204.000 1093.710,204.000 1168.243 C 204.000 1247.247,204.592 1253.751,215.700 1296.730 C 263.964 1483.473,389.868 1628.550,562.000 1695.764 C 642.895 1727.353,658.264 1729.922,766.000 1729.873 L 862.000 1729.829 910.000 1714.667 C 1105.022 1653.066,1240.238 1522.995,1299.488 1340.000 C 1316.530 1287.367,1320.127 1269.023,1323.999 1215.000 C 1336.426 1041.644,1279.067 886.821,1157.785 766.356 C 1079.672 688.769,962.633 627.197,865.673 612.682 C 825.213 606.626,739.684 604.226,696.000 607.923 M1596.000 652.391 C 1560.476 670.148,1496.555 734.496,1473.080 776.133 C 1453.228 811.343,1427.987 876.524,1414.079 928.493 C 1371.288 1088.392,1376.347 1304.578,1426.243 1448.233 C 1457.104 1537.088,1486.910 1587.823,1537.826 1638.169 C 1589.096 1688.865,1640.671 1710.494,1686.065 1700.335 C 1795.536 1675.837,1884.416 1552.288,1925.480 1367.533 C 1940.437 1300.237,1945.454 1232.307,1942.991 1130.397 C 1941.178 1055.338,1939.225 1034.154,1930.046 990.000 C 1894.564 819.309,1824.807 698.768,1736.084 654.833 C 1712.459 643.134,1706.271 641.885,1666.084 640.698 C 1623.149 639.429,1621.322 639.734,1596.000 652.391 M2083.012 703.000 C 2044.687 742.344,2015.242 865.720,2007.358 1020.000 C 2001.219 1140.130,2005.827 1346.349,2016.248 1417.774 C 2031.895 1525.029,2050.637 1592.174,2073.697 1623.587 C 2089.681 1645.362,2099.457 1650.713,2111.491 1644.272 C 2135.614 1631.362,2164.594 1546.414,2184.724 1429.611 C 2193.144 1380.755,2193.622 1366.792,2193.663 1168.000 C 2193.705 966.333,2193.340 955.937,2184.486 906.000 C 2164.033 790.657,2141.126 719.783,2117.106 697.522 C 2103.446 684.862,2100.167 685.389,2083.012 703.000 " fill="#1D1E23" stroke="none" fill-rule="evenodd"/></svg>