<svg viewBox="0 0 2400 2400" fill="none" xmlns="http://www.w3.org/2000/svg"><path d="M656.000 611.536 C 596.555 624.567,564.204 636.001,512.442 662.275 C 354.058 742.671,247.618 883.710,209.266 1064.000 C 199.180 1111.416,199.125 1224.129,209.165 1272.000 C 234.938 1394.890,292.410 1498.509,381.654 1582.985 C 458.810 1656.020,555.672 1705.353,664.000 1726.788 C 706.505 1735.198,812.989 1736.119,856.000 1728.448 C 931.862 1714.917,1028.246 1674.043,1092.722 1628.060 C 1137.758 1595.942,1199.842 1531.713,1230.932 1485.076 C 1298.035 1384.419,1331.484 1266.940,1326.908 1148.000 C 1317.039 891.522,1143.165 679.374,890.384 615.387 C 842.262 603.206,704.338 600.940,656.000 611.536 M1623.419 639.662 C 1560.403 660.041,1494.360 726.981,1455.831 809.525 C 1399.333 930.564,1376.678 1073.910,1387.260 1243.390 C 1392.303 1324.139,1402.421 1378.161,1426.001 1450.233 C 1480.101 1615.589,1590.699 1720.691,1689.050 1700.212 C 1790.503 1679.086,1875.523 1567.572,1918.033 1399.870 C 1939.508 1315.150,1944.216 1273.457,1944.216 1168.000 C 1944.216 1087.582,1942.748 1061.389,1936.034 1022.000 C 1903.725 832.471,1832.348 700.239,1736.882 653.058 C 1710.018 639.781,1703.482 638.227,1670.541 637.285 C 1650.443 636.710,1629.239 637.780,1623.419 639.662 M2080.143 703.000 C 2048.510 734.811,2020.442 847.276,2008.018 992.000 C 2002.798 1052.794,2002.904 1268.308,2008.186 1336.200 C 2020.428 1493.555,2048.361 1605.928,2082.734 1636.108 C 2099.106 1650.483,2105.448 1650.915,2117.858 1638.505 C 2149.725 1606.639,2177.975 1501.774,2192.347 1362.000 C 2198.756 1299.673,2198.690 1024.564,2192.253 970.000 C 2174.716 821.344,2146.826 719.389,2117.355 696.207 C 2102.834 684.785,2097.240 685.806,2080.143 703.000 " fill="#1D1E23" stroke="none" fill-rule="evenodd"/></svg>