<svg viewBox="0 0 2400 2400" fill="none" xmlns="http://www.w3.org/2000/svg"><path d="M1420.000 304.098 C 1373.179 307.793,1318.962 317.084,1266.142 330.464 C 1007.047 396.097,770.993 602.369,669.201 852.091 L 650.000 899.194 512.000 900.597 C 377.001 901.969,373.589 902.203,355.087 911.315 C 337.065 920.191,319.518 938.237,307.750 960.000 C 300.626 973.174,300.626 1026.826,307.750 1040.000 C 319.518 1061.763,337.065 1079.809,355.087 1088.685 C 373.307 1097.659,378.139 1098.049,487.000 1099.325 L 600.000 1100.651 600.000 1199.915 L 600.000 1299.180 487.000 1300.619 C 378.385 1302.002,373.266 1302.418,355.087 1311.344 C 337.069 1320.190,319.527 1338.221,307.750 1360.000 C 300.626 1373.174,300.626 1426.826,307.750 1440.000 C 319.518 1461.763,337.065 1479.809,355.087 1488.685 C 373.602 1497.804,376.904 1498.028,512.000 1499.308 L 650.000 1500.616 668.997 1547.308 C 726.657 1689.027,832.892 1824.701,962.696 1922.394 C 1198.401 2099.791,1506.476 2147.520,1790.000 2050.566 C 1812.000 2043.043,1844.400 2030.642,1862.000 2023.009 C 1928.321 1994.247,2020.675 1937.728,2035.031 1917.119 C 2060.688 1880.286,2056.989 1835.313,2025.414 1800.194 C 1993.943 1765.190,1940.558 1758.086,1893.395 1782.627 C 1880.528 1789.322,1845.700 1807.346,1816.000 1822.679 C 1672.630 1896.697,1511.439 1917.914,1349.453 1884.087 C 1155.756 1843.639,982.954 1711.676,882.146 1527.224 L 867.512 1500.448 1146.756 1499.224 L 1426.000 1498.000 1444.878 1488.702 C 1482.919 1469.966,1506.205 1420.931,1496.673 1379.635 C 1491.113 1355.546,1471.697 1326.937,1453.116 1315.454 C 1431.843 1302.306,1383.582 1300.297,1085.467 1300.143 L 808.933 1300.000 806.521 1291.000 C 803.413 1279.403,803.362 1120.786,806.463 1109.224 L 808.816 1100.448 1117.408 1099.224 L 1426.000 1098.000 1444.878 1088.702 C 1482.919 1069.966,1506.205 1020.931,1496.673 979.635 C 1491.125 955.600,1471.707 926.943,1453.230 915.524 C 1432.013 902.411,1384.268 900.225,1116.638 900.108 L 867.277 900.000 884.244 869.000 C 962.585 725.864,1081.426 617.755,1230.684 553.843 C 1353.640 501.194,1504.261 487.576,1645.677 516.321 C 1720.789 531.589,1759.391 547.332,1893.775 617.508 C 1926.103 634.390,1965.591 636.934,1993.281 623.918 C 2041.209 601.389,2064.940 542.877,2044.448 497.761 C 2035.875 478.885,2019.778 465.315,1970.000 435.002 C 1840.549 356.170,1706.099 312.455,1573.626 306.126 C 1474.985 301.413,1457.021 301.176,1420.000 304.098 " fill="#1D1E23" stroke="none" fill-rule="evenodd"/></svg>