<svg viewBox="0 0 2400 2400" fill="none" xmlns="http://www.w3.org/2000/svg"><path d="M1397.179 308.267 C 1348.554 312.973,1263.710 330.925,1216.000 346.603 C 1161.569 364.490,1056.830 416.105,1006.000 450.090 C 911.959 512.967,810.088 613.990,748.121 705.821 C 724.669 740.576,677.207 830.315,661.995 868.665 L 651.418 895.329 632.709 897.520 C 622.419 898.724,570.800 900.728,518.000 901.972 C 379.208 905.242,367.591 906.530,345.629 921.077 C 319.085 938.659,306.669 959.452,304.754 989.530 C 303.892 1003.058,305.267 1021.850,307.809 1031.290 C 313.631 1052.912,335.072 1076.901,358.873 1088.423 C 376.158 1096.790,383.793 1097.424,488.619 1099.203 L 600.000 1101.092 600.000 1200.546 L 600.000 1300.000 547.000 1300.125 C 517.850 1300.194,465.336 1301.930,430.302 1303.981 C 370.858 1307.463,365.407 1308.457,348.691 1318.856 C 338.839 1324.985,325.204 1336.918,318.389 1345.374 C 306.503 1360.123,306.010 1362.235,306.239 1397.374 C 306.511 1439.127,311.174 1451.422,334.505 1471.907 C 362.037 1496.080,365.417 1496.610,513.066 1499.909 C 587.424 1501.570,648.914 1503.620,649.711 1504.464 C 650.507 1505.309,656.034 1517.700,661.991 1532.000 C 763.549 1775.770,972.596 1973.099,1214.000 2053.066 C 1438.226 2127.343,1676.967 2110.808,1894.000 2005.969 C 1986.344 1961.362,2039.238 1920.539,2048.302 1886.880 C 2060.251 1842.505,2028.195 1788.934,1981.943 1775.984 C 1946.400 1766.033,1925.195 1771.350,1832.000 1813.584 C 1668.707 1887.586,1642.066 1894.000,1498.000 1894.000 C 1382.274 1894.000,1361.144 1891.194,1284.250 1865.610 C 1175.055 1829.281,1060.552 1754.249,987.254 1670.995 C 937.892 1614.928,869.614 1513.052,876.671 1505.996 C 878.034 1504.632,1002.769 1502.436,1153.859 1501.116 L 1428.569 1498.715 1446.150 1487.069 C 1468.255 1472.428,1486.286 1448.142,1494.575 1421.844 C 1500.470 1403.144,1500.470 1399.664,1494.576 1379.388 C 1487.440 1354.843,1463.094 1323.874,1442.603 1313.277 C 1431.936 1307.762,1403.353 1306.361,1246.061 1303.647 C 1144.827 1301.901,1005.095 1300.366,935.544 1300.236 L 809.087 1300.000 806.544 1281.442 C 803.249 1257.406,803.249 1142.594,806.544 1118.558 L 809.087 1100.000 1115.544 1099.962 L 1422.000 1099.925 1442.268 1088.300 C 1491.963 1059.796,1509.962 1003.641,1484.827 955.525 C 1477.974 942.407,1467.202 929.603,1456.970 922.411 C 1441.983 911.878,1435.898 910.386,1397.143 907.736 C 1373.414 906.114,1260.400 903.676,1146.000 902.317 C 940.262 899.875,871.981 897.435,872.020 892.527 C 872.054 888.182,925.068 805.208,944.990 778.317 C 1034.828 657.056,1182.412 559.405,1333.024 521.572 C 1384.145 508.730,1463.840 505.360,1574.000 511.383 C 1674.838 516.895,1686.151 520.177,1827.870 585.038 C 1922.793 628.481,1947.704 635.878,1974.739 628.647 C 2010.642 619.045,2039.917 587.679,2048.414 549.711 C 2057.849 507.552,2038.625 479.428,1972.346 438.430 C 1872.595 376.727,1762.958 335.070,1656.000 318.233 C 1576.714 305.753,1466.862 301.523,1397.179 308.267 " fill="#1D1E23" stroke="none" fill-rule="evenodd"/></svg>