<svg viewBox="0 0 2400 2400" fill="none" xmlns="http://www.w3.org/2000/svg"><path d="M768.704 2200C675.531 2200 600 2124.47 600 2031.3C600 2001.8 615.407 1974.45 640.632 1959.16L644.595 1956.76C674.324 1938.74 706.757 1912.16 741.892 1877.03C777.027 1841.89 809.009 1796.85 837.838 1741.89C866.667 1686.94 881.081 1623.42 881.081 1551.35C881.081 1531.53 879.73 1512.61 877.027 1494.59C874.324 1476.58 871.171 1459.46 867.568 1443.24H708.108C648.402 1443.24 600 1394.84 600 1335.14C600 1275.43 648.402 1227.03 708.108 1227.03H762.162C724.324 1167.57 687.838 1104.96 652.703 1039.19C617.568 973.423 600 891.892 600 794.595C600 628.829 657.658 488.288 772.973 372.973C888.288 257.658 1028.83 200 1194.59 200C1322.52 200 1436.04 235.135 1535.14 305.405C1604.78 354.787 1660.62 414.402 1702.68 484.249C1732.8 534.265 1705.76 596.344 1651.91 618.902C1595.53 642.524 1531.97 612.994 1494.75 564.496C1471.91 534.729 1444.38 508.275 1412.16 485.135C1348.2 439.189 1275.68 416.216 1194.59 416.216C1090.09 416.216 1000.9 453.153 927.027 527.027C853.153 600.901 816.216 690.09 816.216 794.595C816.216 881.081 837.838 953.153 881.081 1010.81C924.324 1068.47 968.468 1140.54 1013.51 1227.03H1356.76C1416.46 1227.03 1464.86 1275.43 1464.86 1335.14C1464.86 1394.84 1416.46 1443.24 1356.76 1443.24H1089.19C1092.79 1459.46 1095.05 1476.58 1095.95 1494.59C1096.85 1512.61 1097.3 1531.53 1097.3 1551.35C1097.3 1641.44 1081.53 1722.52 1050 1794.59C1018.47 1866.67 980.18 1929.73 935.135 1983.78H1464.86C1536.94 1983.78 1591.89 1964.86 1629.73 1927.03C1638.28 1918.48 1646.23 1909.38 1653.58 1899.73C1694.37 1846.19 1765.54 1809.8 1825.75 1839.9C1867.99 1861.02 1892.38 1908.54 1874.19 1952.13C1847.45 2016.21 1804.25 2069.55 1744.59 2112.16C1662.61 2170.72 1569.37 2200 1464.86 2200H768.704Z" fill="#1D1E23"/></svg>