<svg viewBox="0 0 2400 2400" fill="none" xmlns="http://www.w3.org/2000/svg"><path d="M1396.000 306.614 C 1265.010 326.584,1208.387 342.707,1117.839 385.819 C 1016.046 434.286,935.398 492.703,852.728 577.852 C 772.826 660.149,714.405 746.782,671.711 846.282 C 660.870 871.547,652.000 893.704,652.000 895.519 C 652.000 897.334,589.339 899.763,512.754 900.917 C 391.332 902.746,371.747 903.902,359.754 909.948 C 342.460 918.666,317.200 942.454,309.355 957.412 C 301.275 972.816,301.289 1027.155,309.377 1042.795 C 316.874 1057.293,348.407 1086.690,363.031 1092.816 C 370.044 1095.754,414.756 1098.026,487.000 1099.116 L 600.000 1100.820 600.000 1199.805 L 600.000 1298.789 486.591 1300.986 C 360.938 1303.421,359.975 1303.609,330.670 1331.441 C 322.239 1339.448,312.647 1351.135,309.355 1357.412 C 301.275 1372.816,301.289 1427.155,309.377 1442.795 C 316.872 1457.289,348.403 1486.688,363.031 1492.820 C 370.174 1495.815,422.021 1498.218,511.671 1499.710 L 649.342 1502.000 672.083 1554.480 C 768.352 1776.649,955.371 1956.444,1178.601 2041.435 C 1431.985 2137.906,1722.257 2112.703,1956.000 1973.937 C 2013.971 1939.521,2033.814 1922.791,2043.576 1900.099 C 2053.727 1876.502,2054.181 1859.826,2045.375 1833.983 C 2035.850 1806.029,2010.579 1782.136,1981.638 1773.723 C 1943.671 1762.685,1928.599 1766.713,1832.013 1813.706 C 1695.184 1880.280,1625.468 1897.802,1498.000 1897.655 C 1391.791 1897.533,1327.161 1885.100,1231.352 1846.360 C 1095.391 1791.385,968.274 1676.433,887.046 1535.002 L 868.092 1502.000 1149.046 1500.000 L 1430.000 1498.000 1444.613 1488.913 C 1467.676 1474.571,1486.947 1450.502,1493.774 1427.512 C 1501.468 1401.604,1501.475 1398.419,1493.893 1372.889 C 1484.830 1342.369,1456.256 1313.170,1430.000 1307.598 C 1417.475 1304.940,1297.661 1302.557,1109.409 1301.222 L 808.818 1299.090 806.409 1287.045 C 803.225 1271.127,803.300 1128.501,806.500 1112.500 L 809.000 1100.000 1115.237 1100.000 C 1415.777 1100.000,1421.789 1099.847,1438.411 1091.801 C 1462.856 1079.968,1486.254 1052.837,1493.732 1027.654 C 1501.471 1001.594,1501.481 998.438,1493.893 972.889 C 1489.795 959.087,1481.575 945.676,1468.893 932.098 C 1452.865 914.937,1446.664 911.192,1428.000 907.403 C 1413.903 904.541,1309.351 902.050,1136.959 900.468 L 867.918 898.000 892.169 856.000 C 994.414 678.921,1158.936 558.100,1356.000 515.374 C 1393.151 507.319,1409.314 506.252,1496.000 506.134 C 1644.162 505.932,1687.434 516.295,1832.773 586.794 C 1908.816 623.680,1922.773 629.144,1945.636 630.979 C 1968.355 632.803,1974.575 631.679,1993.781 622.282 C 2032.716 603.233,2055.441 563.642,2050.651 523.201 C 2047.350 495.326,2036.232 479.905,2002.969 457.063 C 1879.544 372.302,1733.875 319.725,1590.419 308.159 C 1541.900 304.247,1417.985 303.262,1396.000 306.614 " fill="#1D1E23" stroke="none" fill-rule="evenodd"/></svg>