<svg viewBox="0 0 2400 2400" fill="none" xmlns="http://www.w3.org/2000/svg"><path d="M1066.363 306.293 C 1043.583 314.639,1025.689 329.702,1013.089 351.136 C 1002.234 369.601,1001.972 371.541,1000.683 442.931 L 999.367 515.862 982.683 520.073 C 812.974 562.909,694.758 664.662,659.791 798.000 C 648.013 842.913,647.964 917.351,659.683 962.000 C 685.784 1061.449,748.966 1135.603,860.000 1197.104 C 918.565 1229.543,995.195 1257.206,1111.260 1287.808 C 1235.561 1320.581,1299.457 1346.971,1349.008 1386.005 C 1436.726 1455.104,1443.987 1577.859,1364.543 1648.647 C 1313.582 1694.056,1209.614 1717.810,1104.598 1708.038 C 1046.459 1702.627,1014.239 1694.763,974.000 1676.162 C 932.519 1656.987,901.815 1628.738,876.000 1586.000 C 836.892 1521.255,797.627 1497.047,737.935 1500.877 C 704.020 1503.054,681.017 1514.161,662.358 1537.371 C 651.309 1551.115,650.005 1555.563,650.044 1579.371 C 650.076 1599.042,652.841 1612.563,660.625 1631.115 C 709.193 1746.870,819.788 1835.507,963.056 1873.501 L 998.000 1882.768 1000.000 1956.384 C 1001.944 2027.922,1002.313 2030.533,1013.089 2048.864 C 1037.738 2090.795,1062.344 2100.000,1149.790 2100.000 C 1226.576 2100.000,1244.718 2095.492,1270.105 2070.105 C 1295.469 2044.741,1300.000 2026.550,1300.000 1950.075 L 1300.000 1885.575 1337.126 1876.624 C 1386.648 1864.686,1451.045 1838.388,1490.139 1814.138 C 1528.077 1790.606,1584.472 1735.310,1603.418 1703.066 C 1635.829 1647.910,1648.845 1597.158,1648.830 1526.000 C 1648.801 1390.941,1592.311 1287.235,1476.927 1210.421 C 1403.367 1161.450,1335.783 1134.090,1178.569 1089.636 C 997.248 1038.366,926.406 1000.535,896.164 938.828 C 856.563 858.023,894.008 767.458,985.088 723.755 C 1037.580 698.567,1082.891 690.799,1164.000 693.081 C 1220.516 694.672,1234.451 696.390,1260.976 705.037 C 1318.872 723.911,1351.066 751.773,1380.283 808.290 C 1402.993 852.221,1433.928 884.012,1463.533 893.845 C 1495.169 904.353,1540.654 901.065,1565.557 886.471 C 1609.536 860.698,1617.080 821.672,1590.389 758.000 C 1569.695 708.633,1538.637 663.403,1500.247 626.725 C 1452.209 580.830,1402.216 551.474,1335.000 529.693 L 1300.000 518.351 1300.000 451.888 C 1300.000 373.269,1295.624 355.414,1270.105 329.895 C 1244.472 304.261,1226.729 299.948,1148.287 300.282 C 1101.314 300.482,1077.444 302.233,1066.363 306.293 " fill="#1D1E23" stroke="none" fill-rule="evenodd"/></svg>