<svg viewBox="0 0 2400 2400" fill="none" xmlns="http://www.w3.org/2000/svg"><path d="M1057.892 215.666 C 1040.232 219.807,1008.732 229.774,987.892 237.816 C 789.214 314.480,654.626 471.655,611.471 677.409 C 604.566 710.333,602.924 732.356,602.779 794.000 C 602.673 838.892,604.717 882.279,607.773 900.000 C 619.381 967.314,648.178 1034.612,715.537 1151.834 C 737.607 1190.243,754.875 1222.458,753.911 1223.422 C 752.946 1224.387,734.288 1227.490,712.448 1230.319 C 655.122 1237.742,632.372 1251.660,611.621 1292.000 C 599.340 1315.874,599.023 1350.685,610.849 1376.785 C 622.237 1401.921,651.240 1430.429,670.645 1435.562 C 679.090 1437.796,724.700 1441.656,772.000 1444.140 C 848.140 1448.137,858.754 1449.525,864.575 1456.246 C 869.741 1462.210,871.768 1477.013,874.031 1525.313 C 878.636 1623.567,869.520 1669.008,828.957 1750.000 C 794.092 1819.614,758.590 1861.648,671.495 1936.434 C 596.497 2000.832,589.997 2015.921,609.987 2079.201 C 624.966 2126.618,652.531 2158.240,704.323 2187.422 L 726.647 2200.000 1134.511 2200.000 L 1542.375 2200.000 1588.187 2184.597 C 1639.810 2167.240,1688.036 2145.833,1717.872 2127.031 C 1802.227 2073.872,1876.607 1978.557,1877.416 1922.582 C 1877.805 1895.688,1862.325 1868.232,1836.563 1850.124 C 1819.953 1838.448,1817.728 1838.000,1776.340 1838.000 C 1733.576 1838.000,1733.258 1838.071,1711.682 1852.526 C 1699.757 1860.515,1672.900 1882.764,1652.000 1901.968 C 1603.738 1946.314,1580.501 1962.098,1548.000 1972.608 C 1522.804 1980.757,1512.947 1981.079,1229.259 1983.013 L 936.519 1985.009 973.916 1928.545 C 1028.856 1845.595,1062.446 1772.724,1080.186 1698.000 C 1093.184 1643.246,1100.762 1495.313,1092.409 1459.369 L 1089.009 1444.738 1235.504 1443.369 C 1379.940 1442.019,1382.253 1441.869,1400.000 1432.651 C 1439.722 1412.019,1461.276 1377.360,1461.350 1334.000 C 1461.414 1295.677,1439.478 1258.278,1407.120 1241.545 C 1394.650 1235.096,1233.947 1228.288,1089.741 1228.100 L 1013.482 1228.000 1006.365 1213.000 C 996.618 1192.456,967.305 1143.736,911.753 1055.752 C 826.501 920.727,825.991 919.145,826.027 790.000 L 826.054 694.000 846.552 651.479 C 857.827 628.093,874.649 597.770,883.935 584.096 C 919.818 531.255,980.817 479.564,1043.158 449.170 C 1078.656 431.862,1082.587 430.879,1131.158 427.152 C 1159.121 425.006,1206.300 424.067,1236.000 425.066 C 1285.124 426.717,1292.890 428.037,1322.000 439.686 C 1379.424 462.664,1402.803 479.002,1488.000 555.687 C 1555.823 616.735,1572.123 625.386,1615.591 623.412 C 1643.202 622.159,1649.601 620.390,1664.551 609.883 C 1701.307 584.050,1720.511 542.969,1711.443 509.571 C 1704.989 485.800,1667.124 431.694,1628.646 391.261 C 1548.317 306.849,1449.699 247.289,1344.000 219.351 C 1318.455 212.599,1297.368 211.177,1202.000 209.780 C 1102.671 208.324,1086.367 208.990,1057.892 215.666 " fill="#1D1E23" stroke="none" fill-rule="evenodd"/></svg>