<svg viewBox="0 0 2400 2400" fill="none" xmlns="http://www.w3.org/2000/svg"><path d="M1081.775 303.419 C 1044.319 310.144,1010.390 342.089,1003.640 376.986 C 1001.829 386.344,1000.270 421.381,1000.174 454.846 L 1000.000 515.692 983.000 519.988 C 949.928 528.346,894.084 548.864,866.223 562.894 C 763.114 614.818,696.998 687.139,663.936 784.167 C 652.900 816.553,648.537 900.830,655.751 942.255 C 666.729 1005.295,700.792 1067.838,750.734 1116.649 C 825.253 1189.482,917.621 1234.444,1090.106 1281.846 C 1230.573 1320.450,1295.424 1346.122,1343.203 1382.038 C 1452.037 1463.850,1441.077 1617.530,1322.289 1675.299 C 1225.764 1722.240,1066.278 1721.442,969.317 1673.532 C 932.953 1655.565,905.041 1628.868,871.998 1580.449 C 845.113 1541.055,818.329 1516.255,793.057 1507.356 C 784.776 1504.441,763.484 1502.170,745.742 1502.311 C 707.538 1502.615,682.713 1512.563,664.244 1534.969 C 642.352 1561.528,644.733 1599.283,671.751 1654.000 C 699.785 1710.775,749.184 1764.455,813.160 1807.664 C 845.387 1829.430,911.044 1858.770,953.601 1870.423 C 975.820 1876.507,994.801 1882.102,995.779 1882.855 C 996.758 1883.609,998.648 1917.153,999.980 1957.397 C 1002.296 2027.383,1002.869 2031.367,1013.122 2048.863 C 1037.989 2091.294,1056.941 2098.000,1152.000 2098.000 C 1232.113 2098.000,1243.389 2095.421,1268.094 2071.445 C 1294.760 2045.567,1297.442 2035.601,1299.200 1955.843 L 1300.747 1885.686 1335.856 1876.692 C 1380.926 1865.147,1424.082 1848.459,1469.686 1824.940 C 1500.275 1809.166,1513.342 1798.944,1552.565 1760.107 C 1593.488 1719.587,1601.089 1709.880,1615.293 1680.000 C 1638.736 1630.684,1644.404 1605.866,1646.809 1542.000 C 1649.281 1476.362,1643.884 1440.538,1623.271 1385.756 C 1598.061 1318.760,1547.888 1259.104,1476.736 1211.526 C 1409.193 1166.361,1343.234 1138.048,1226.000 1103.897 C 994.447 1036.446,930.871 1004.614,898.510 939.929 C 881.874 906.676,877.435 877.779,884.009 845.533 C 904.992 742.613,1017.791 684.876,1179.907 694.078 C 1237.325 697.336,1262.171 702.923,1296.649 720.328 C 1328.338 736.324,1352.590 761.753,1380.000 807.720 C 1418.649 872.538,1448.032 895.622,1496.300 899.087 C 1567.087 904.168,1615.179 861.702,1603.981 804.000 C 1594.017 752.649,1560.753 691.729,1515.858 642.606 C 1472.165 594.799,1398.524 549.411,1329.370 527.666 L 1300.740 518.664 1299.207 446.332 C 1297.487 365.217,1294.966 355.233,1269.867 330.133 C 1245.684 305.951,1234.176 302.911,1162.000 301.636 C 1126.800 301.014,1090.699 301.816,1081.775 303.419 " fill="#1D1E23" stroke="none" fill-rule="evenodd"/></svg>