<svg viewBox="0 0 2400 2400" fill="none" xmlns="http://www.w3.org/2000/svg"><path d="M1084.000 212.012 C 1049.895 216.154,1019.077 225.347,969.087 246.291 C 782.624 324.412,653.514 480.005,612.019 676.603 C 601.635 725.798,600.581 863.783,610.231 910.506 C 623.245 973.508,655.191 1045.860,723.896 1167.935 C 739.353 1195.400,752.000 1219.216,752.000 1220.859 C 752.000 1224.295,745.438 1225.861,704.000 1232.310 C 652.926 1240.258,626.210 1258.903,609.564 1298.215 C 600.165 1320.412,601.133 1355.552,611.748 1377.479 C 623.127 1400.984,654.954 1430.374,674.528 1435.449 C 683.038 1437.656,723.300 1441.431,764.000 1443.838 C 847.643 1448.786,857.531 1450.205,864.183 1458.220 C 872.193 1467.872,877.150 1560.664,872.216 1608.597 C 866.877 1660.460,858.185 1688.690,829.912 1746.000 C 801.563 1803.465,765.324 1850.941,714.870 1896.714 C 692.391 1917.107,658.392 1949.268,639.315 1968.182 C 600.038 2007.125,595.914 2017.156,603.552 2055.185 C 614.570 2110.047,647.319 2154.033,700.202 2185.000 L 725.818 2200.000 1134.646 2200.000 L 1543.475 2200.000 1590.737 2183.564 C 1689.290 2149.290,1743.917 2116.357,1800.211 2057.277 C 1886.670 1966.541,1899.390 1893.929,1836.464 1850.321 C 1822.604 1840.717,1818.437 1840.000,1776.463 1840.000 C 1731.620 1840.000,1731.235 1840.081,1710.678 1853.886 C 1699.305 1861.523,1672.900 1883.175,1652.000 1902.000 C 1575.957 1970.494,1562.457 1976.116,1464.000 1980.286 C 1386.187 1983.582,940.000 1985.258,940.000 1982.254 C 940.000 1981.294,954.509 1958.344,972.243 1931.254 C 1027.902 1846.229,1072.012 1747.283,1083.629 1681.400 C 1091.673 1635.778,1097.036 1549.415,1095.053 1497.438 L 1093.042 1444.745 1237.521 1443.283 C 1376.805 1441.874,1382.592 1441.508,1398.466 1433.102 C 1424.256 1419.445,1438.527 1405.519,1449.689 1383.121 C 1479.008 1324.285,1444.744 1245.412,1386.787 1238.328 C 1354.739 1234.410,1174.793 1228.146,1090.000 1227.997 L 1014.000 1227.863 999.719 1200.931 C 991.864 1186.119,956.946 1128.180,922.124 1072.179 C 852.880 960.819,838.238 932.890,832.083 900.437 C 829.837 888.596,828.000 835.937,828.000 783.417 L 828.000 687.927 852.032 641.284 C 865.250 615.631,883.003 585.498,891.484 574.321 C 930.088 523.449,981.313 481.637,1042.000 451.464 L 1082.000 431.576 1146.319 427.131 C 1233.950 421.074,1290.347 426.229,1332.000 444.104 C 1376.578 463.234,1407.276 484.821,1476.000 545.369 C 1547.617 608.466,1573.629 624.000,1607.665 624.000 C 1638.092 624.000,1653.648 618.891,1674.001 602.213 C 1696.585 583.707,1712.000 552.840,1712.000 526.124 C 1712.000 501.943,1696.744 473.623,1656.867 423.784 C 1576.107 322.846,1431.960 233.337,1322.674 216.266 C 1289.721 211.119,1116.740 208.035,1084.000 212.012 " fill="#1D1E23" stroke="none" fill-rule="evenodd"/></svg>