<svg viewBox="0 0 2400 2400" fill="none" xmlns="http://www.w3.org/2000/svg"><path d="M1071.974 307.527 C 1043.665 316.732,1022.995 334.155,1009.725 360.000 C 1003.853 371.435,1002.215 386.931,1000.782 444.570 L 999.028 515.140 954.438 529.434 C 799.692 579.039,694.761 674.097,662.232 794.144 C 652.426 830.334,649.805 911.602,657.311 946.712 C 672.983 1020.015,711.672 1082.221,776.674 1138.629 C 846.232 1198.990,901.810 1224.084,1100.000 1284.609 C 1224.674 1322.684,1277.847 1342.503,1314.449 1364.540 C 1345.124 1383.009,1384.243 1423.043,1399.398 1451.477 C 1411.587 1474.346,1412.000 1476.746,1412.000 1524.775 C 1412.000 1570.603,1411.174 1576.086,1401.287 1595.928 C 1386.343 1625.916,1350.514 1660.483,1318.575 1675.726 C 1266.275 1700.686,1238.883 1705.569,1150.000 1705.777 C 1074.600 1705.952,1067.727 1705.329,1030.477 1694.937 C 964.206 1676.449,930.267 1654.470,891.522 1604.947 C 826.387 1521.692,808.443 1507.854,761.739 1504.856 C 727.367 1502.651,701.552 1508.212,680.018 1522.463 C 634.205 1552.780,644.776 1623.728,707.474 1706.738 C 766.243 1784.546,833.713 1830.066,944.112 1866.391 C 968.032 1874.262,989.276 1882.793,991.322 1885.351 C 993.368 1887.908,997.033 1919.700,999.468 1956.000 C 1001.902 1992.300,1006.145 2029.200,1008.896 2038.000 C 1011.646 2046.800,1021.272 2061.399,1030.285 2070.442 C 1052.564 2092.794,1072.736 2097.112,1155.733 2097.297 C 1229.537 2097.461,1242.648 2094.353,1267.504 2070.797 C 1292.116 2047.473,1296.805 2030.486,1299.549 1954.692 L 1302.000 1887.022 1361.762 1867.537 C 1394.632 1856.820,1438.148 1839.965,1458.465 1830.081 C 1490.077 1814.703,1502.181 1805.611,1542.370 1767.055 C 1568.201 1742.275,1596.121 1711.546,1604.416 1698.769 C 1635.345 1651.126,1650.981 1577.472,1646.613 1500.000 C 1639.373 1371.602,1575.106 1271.618,1452.430 1197.898 C 1387.615 1158.949,1353.759 1145.891,1126.000 1071.996 C 979.973 1024.619,930.121 995.371,899.670 939.211 C 886.702 915.295,886.000 911.945,886.000 874.000 C 886.000 837.838,887.129 831.697,897.766 810.000 C 920.499 763.634,970.113 726.992,1036.065 707.864 C 1077.343 695.892,1182.288 692.394,1233.391 701.286 C 1298.765 712.661,1330.245 735.626,1379.900 808.164 C 1423.477 871.822,1450.493 893.402,1492.840 898.380 C 1535.478 903.391,1585.665 880.139,1598.497 849.428 C 1619.979 798.014,1565.625 684.832,1487.150 617.571 C 1443.908 580.508,1374.681 541.759,1323.000 525.690 L 1300.000 518.539 1299.824 468.270 C 1299.469 366.467,1293.410 347.220,1252.880 319.138 L 1234.000 306.056 1158.000 305.162 C 1116.200 304.670,1077.488 305.734,1071.974 307.527 " fill="#1D1E23" stroke="none" fill-rule="evenodd"/></svg>