<svg viewBox="0 0 2400 2400" fill="none" xmlns="http://www.w3.org/2000/svg"><path d="M1180.01 1090C953.007 1031 880.007 970 880.007 875C880.007 766 981.007 690 1150.01 690C1279.24 690 1349.44 734.808 1380.5 807.201C1401.54 856.243 1441.96 900 1495.32 900H1516.85C1573.68 900 1620.33 851.984 1604.48 797.415C1566.91 668.068 1466.43 559.611 1300.01 519V400C1300.01 344.772 1255.24 300 1200.01 300H1100.01C1044.78 300 1000.01 344.772 1000.01 400V516C806.007 558 650.007 684 650.007 877C650.007 1108 841.007 1223 1120.01 1290C1370.01 1350 1420.01 1438 1420.01 1531C1420.01 1600 1371.01 1710 1150.01 1710C998.632 1710 914.754 1660.32 876.549 1587.15C852.651 1541.39 812.528 1500 760.895 1500H737.636C680.258 1500 633.165 1549.09 650.78 1603.7C700.733 1758.55 840.736 1848.99 1000.01 1883V2000C1000.01 2055.23 1044.78 2100 1100.01 2100H1200.01C1255.24 2100 1300.01 2055.23 1300.01 2000V1885C1495.01 1848 1650.01 1735 1650.01 1530C1650.01 1246 1407.01 1149 1180.01 1090Z" fill="#1D1E23"/></svg>