<svg viewBox="0 0 2400 2400" fill="none" xmlns="http://www.w3.org/2000/svg"><path d="M536.906 509.760 L 515.811 519.719 336.842 878.860 C 110.938 1332.186,98.224 1359.255,101.919 1379.046 C 106.749 1404.919,129.992 1422.224,223.462 1469.540 C 316.717 1516.746,353.360 1532.000,373.500 1532.000 C 391.570 1532.000,411.406 1517.819,426.801 1493.894 C 433.842 1482.952,442.842 1469.981,446.801 1465.069 L 454.000 1456.137 606.000 1568.455 C 833.284 1736.401,940.460 1813.989,987.159 1844.388 C 1069.388 1897.914,1149.191 1911.377,1246.443 1888.130 C 1288.991 1877.959,1309.232 1868.757,1351.357 1840.433 C 1397.634 1809.316,1507.248 1727.468,1557.252 1686.693 L 1596.504 1654.686 1587.252 1645.444 C 1582.163 1640.362,1512.300 1581.475,1432.000 1514.584 L 1286.000 1392.965 1228.000 1421.969 C 1143.933 1464.009,1118.229 1472.616,1070.000 1474.874 C 1001.660 1478.073,942.192 1459.370,891.547 1418.751 C 863.271 1396.072,817.892 1344.769,793.061 1307.409 L 774.000 1278.731 774.000 1234.365 C 774.000 1171.015,763.335 1184.684,992.838 953.899 L 1132.161 813.797 1092.196 790.899 L 1052.230 768.000 922.375 768.000 L 792.519 768.000 808.039 734.880 C 838.646 669.568,839.121 646.438,810.378 621.216 C 782.499 596.754,604.404 507.969,571.649 502.204 C 561.701 500.453,552.280 502.502,536.906 509.760 M1743.515 507.949 C 1674.616 535.951,1536.546 608.545,1519.205 625.886 C 1513.780 631.311,1507.280 642.628,1504.761 651.036 C 1498.919 670.535,1503.158 686.513,1526.503 733.000 L 1544.080 768.000 1455.053 768.000 L 1366.025 768.000 1133.308 1000.692 L 900.591 1233.384 925.295 1263.254 C 974.313 1322.521,998.438 1337.353,1054.056 1342.418 L 1082.112 1344.973 1191.413 1290.294 C 1261.657 1255.153,1302.374 1236.868,1305.357 1239.124 C 1317.899 1248.606,1555.998 1443.632,1627.796 1503.232 L 1709.592 1571.132 1754.427 1536.566 C 1779.086 1517.555,1817.373 1488.000,1839.507 1470.889 L 1879.753 1439.778 1890.369 1460.889 C 1917.038 1513.921,1943.240 1535.301,1976.152 1530.887 C 1997.621 1528.007,2198.335 1428.054,2214.620 1412.132 C 2221.393 1405.510,2229.172 1392.099,2231.908 1382.329 C 2236.807 1364.831,2236.541 1363.829,2214.107 1315.283 C 2180.165 1241.836,1843.926 574.110,1825.720 544.000 C 1813.671 524.072,1805.832 515.898,1792.152 509.000 C 1770.893 498.279,1767.488 498.206,1743.515 507.949 " fill="#1D1E23" stroke="none" fill-rule="evenodd"/></svg>