<svg viewBox="0 0 2400 2400" fill="none" xmlns="http://www.w3.org/2000/svg"><path d="M535.629 509.080 L 518.000 518.161 311.207 930.080 C 197.471 1156.636,103.221 1347.850,101.762 1355.000 C 97.910 1373.878,102.825 1393.989,114.752 1408.165 C 122.031 1416.815,157.968 1436.973,233.593 1474.825 C 293.217 1504.667,347.231 1530.595,353.625 1532.442 C 368.466 1536.729,395.257 1530.123,409.369 1518.698 C 415.278 1513.914,426.855 1497.116,435.096 1481.369 L 450.080 1452.738 718.040 1650.988 C 1000.207 1859.749,1021.831 1873.861,1084.000 1889.812 C 1167.898 1911.338,1270.213 1895.424,1342.703 1849.574 C 1375.697 1828.705,1600.340 1655.009,1597.735 1652.380 C 1596.438 1651.071,1525.767 1592.207,1440.688 1521.572 L 1286.000 1393.143 1216.000 1428.589 C 1134.776 1469.718,1109.067 1477.547,1056.000 1477.311 C 994.994 1477.041,941.411 1458.920,892.838 1422.134 C 864.558 1400.717,792.888 1316.447,779.022 1288.308 C 771.803 1273.659,770.000 1263.206,770.000 1236.000 C 770.000 1174.841,762.534 1184.665,958.612 987.799 L 1132.115 813.599 1092.700 790.799 L 1053.285 768.000 922.804 768.000 L 792.323 768.000 812.793 725.896 C 835.132 679.952,838.225 659.640,826.373 636.722 C 816.518 617.664,801.671 608.565,688.735 552.374 C 573.331 494.955,566.696 493.079,535.629 509.080 M1644.719 553.715 C 1585.434 583.258,1530.634 612.956,1522.940 619.711 C 1507.401 633.355,1498.043 660.536,1502.517 679.037 C 1503.975 685.067,1513.922 707.550,1524.620 729.000 L 1544.073 768.000 1455.049 768.000 L 1366.025 768.000 1133.308 1000.692 L 900.591 1233.384 925.295 1263.420 C 960.962 1306.785,973.703 1318.701,997.056 1330.535 C 1021.931 1343.140,1059.147 1347.168,1086.781 1340.245 C 1097.351 1337.597,1148.731 1313.059,1200.959 1285.715 C 1253.186 1258.372,1298.186 1236.044,1300.959 1236.098 C 1303.731 1236.152,1396.827 1311.555,1507.837 1403.660 L 1709.675 1571.123 1749.206 1540.561 C 1770.949 1523.753,1809.182 1494.239,1834.168 1474.976 L 1879.599 1439.953 1898.218 1476.002 C 1920.494 1519.134,1932.160 1528.922,1964.035 1531.228 C 1986.274 1532.837,1988.182 1532.062,2099.008 1476.427 C 2170.289 1440.644,2214.452 1416.145,2219.698 1409.475 C 2230.454 1395.801,2236.941 1371.234,2233.516 1357.150 C 2228.546 1336.716,1821.023 526.148,1811.072 516.904 C 1800.492 507.076,1780.487 500.000,1763.282 500.000 C 1757.357 500.000,1704.004 524.172,1644.719 553.715 " fill="#1D1E23" stroke="none" fill-rule="evenodd"/></svg>