<svg viewBox="0 0 2400 2400" fill="none" xmlns="http://www.w3.org/2000/svg"><path d="M1284.93 1392.65L1178.58 1448.16C1069.3 1506.47 930.922 1478.71 850.193 1381.97L797.885 1319.25C753.584 1265.88 757.186 1188.62 806.292 1139.65L1132.15 813.792L1067.96 776.029C1057.69 770.025 1045.95 766.822 1034.07 766.822H791.747L826.841 696.634C843.387 663.675 829.91 623.644 796.951 607.097L596.794 507.019C563.968 490.606 523.937 503.95 507.391 536.909L107.077 1337.54C90.531 1370.5 104.008 1410.53 136.968 1427.07L337.124 1527.15C346.598 1531.95 356.74 1534.09 366.881 1534.09C391.433 1534.09 414.918 1520.48 426.661 1497.26L449.345 1452.03L966.684 1834.59C1025.8 1878.23 1096.25 1899.98 1166.57 1899.98C1238.1 1899.98 1309.35 1877.43 1368.46 1832.46L1600.65 1654.18L1284.93 1392.65Z" fill="#1D1E23"/><path d="M2227.94 1337.56L1827.63 536.933C1811.08 503.84 1771.18 490.63 1738.09 507.043L1537.93 607.121C1504.97 623.668 1491.63 663.699 1508.04 696.658L1543.27 766.846H1367.8L900.635 1233.88L952.809 1296.59C993.107 1344.9 1061.83 1359.04 1116.4 1330.09L1302.02 1233.34L1709.67 1571.08L1879.93 1439.77L1908.62 1497.15C1920.37 1520.5 1943.98 1533.98 1968.27 1533.98C1978.28 1533.98 1988.42 1531.71 1998.16 1526.91L2198.32 1426.83C2231.14 1410.55 2244.35 1370.52 2227.94 1337.56Z" fill="#1D1E23"/></svg>