<svg viewBox="0 0 2400 2400" fill="none" xmlns="http://www.w3.org/2000/svg"><path d="M534.746 510.392 L 515.492 520.411 309.471 933.418 C 179.179 1194.611,102.657 1352.341,101.291 1362.521 C 99.719 1374.238,101.423 1383.109,107.554 1395.125 C 117.920 1415.446,136.906 1426.962,261.785 1488.685 C 358.816 1536.643,369.687 1539.607,396.915 1525.527 C 412.606 1517.413,420.284 1508.268,436.216 1478.719 C 443.781 1464.689,450.778 1456.210,453.828 1457.380 C 456.610 1458.448,531.588 1513.127,620.444 1578.888 C 948.808 1821.906,1003.530 1860.243,1047.638 1878.165 C 1124.092 1909.232,1227.233 1904.832,1309.732 1866.985 C 1347.877 1849.486,1598.491 1660.719,1595.185 1651.976 C 1594.533 1650.253,1524.700 1591.291,1440.000 1520.951 L 1286.000 1393.059 1219.954 1426.074 C 1134.858 1468.612,1111.016 1476.000,1058.834 1476.000 C 963.667 1476.000,902.056 1443.187,825.991 1351.989 C 811.527 1334.648,793.462 1310.112,785.847 1297.465 C 772.545 1275.376,772.000 1272.920,772.000 1235.076 C 772.000 1172.938,762.098 1185.677,982.757 963.937 L 1132.088 813.873 1092.592 790.937 L 1053.096 768.000 922.802 768.000 L 792.507 768.000 811.031 729.000 C 843.757 660.096,839.152 633.825,789.258 604.794 C 751.668 582.923,631.742 523.437,599.318 510.580 C 566.716 497.653,559.268 497.631,534.746 510.392 M1699.418 527.491 C 1619.552 564.706,1532.262 611.622,1519.324 624.286 C 1513.453 630.034,1506.602 642.337,1504.100 651.628 C 1498.599 672.058,1501.628 683.016,1526.597 733.000 L 1544.080 768.000 1455.053 768.000 L 1366.025 768.000 1133.308 1000.692 L 900.591 1233.384 924.787 1262.635 C 977.360 1326.193,1002.282 1341.386,1054.589 1341.764 L 1087.178 1342.000 1194.162 1288.791 L 1301.147 1235.583 1317.574 1248.542 C 1346.837 1271.627,1519.506 1413.292,1615.815 1493.233 L 1709.630 1571.103 1754.446 1536.551 C 1779.095 1517.548,1817.329 1488.034,1839.410 1470.964 L 1879.558 1439.928 1896.203 1471.922 C 1921.684 1520.900,1945.671 1537.079,1982.547 1530.161 C 1997.615 1527.335,2171.691 1441.191,2204.749 1420.202 C 2220.619 1410.126,2224.540 1404.991,2230.289 1386.751 L 2237.082 1365.204 2218.029 1323.602 C 2195.909 1275.301,1955.302 794.367,1871.027 630.000 C 1815.028 520.782,1813.163 517.776,1795.953 509.000 C 1786.247 504.050,1773.736 500.043,1768.152 500.097 C 1762.569 500.150,1731.638 512.477,1699.418 527.491 " fill="#1D1E23" stroke="none" fill-rule="evenodd"/></svg>