<svg viewBox="0 0 2400 2400" fill="none" xmlns="http://www.w3.org/2000/svg"><path d="M1732.000 512.831 C 1693.814 528.838,1581.997 585.879,1548.000 606.694 C 1497.050 637.888,1492.315 661.462,1523.832 727.000 L 1543.549 768.000 1454.787 768.000 L 1366.025 768.000 1133.308 1000.692 L 900.591 1233.384 925.253 1263.200 C 971.881 1319.570,1001.408 1337.572,1055.100 1342.364 L 1082.000 1344.764 1184.000 1294.589 C 1240.100 1266.992,1290.575 1243.319,1296.167 1241.982 C 1305.018 1239.866,1327.033 1256.508,1466.167 1370.493 C 1554.075 1442.512,1644.769 1517.147,1667.710 1536.350 L 1709.420 1571.265 1754.341 1536.632 C 1779.048 1517.585,1817.324 1488.038,1839.399 1470.973 L 1879.535 1439.945 1894.209 1467.870 C 1911.743 1501.236,1937.410 1526.401,1957.813 1530.229 C 1977.189 1533.864,1991.661 1528.203,2098.000 1475.393 C 2204.477 1422.515,2215.232 1415.506,2227.363 1391.095 C 2236.588 1372.531,2236.626 1371.949,2229.896 1351.687 C 2214.428 1305.118,1830.080 544.887,1812.775 526.634 C 1801.490 514.729,1775.985 499.909,1767.159 500.128 C 1764.322 500.198,1748.500 505.915,1732.000 512.831 M530.943 512.075 C 516.634 519.844,508.256 535.508,362.440 827.125 C 192.774 1166.439,116.624 1323.323,106.296 1354.834 C 99.867 1374.449,99.865 1376.507,106.266 1389.995 C 115.506 1409.468,144.045 1429.003,219.467 1467.482 C 295.460 1506.251,343.461 1527.180,363.880 1530.445 C 388.221 1534.337,405.026 1523.566,430.816 1487.545 L 453.280 1456.169 471.640 1469.446 C 481.738 1476.748,565.600 1538.501,658.000 1606.676 C 873.120 1765.395,977.395 1839.915,1009.471 1857.852 C 1117.607 1918.326,1246.241 1911.493,1352.711 1839.619 C 1392.551 1812.725,1497.444 1734.430,1549.357 1692.839 L 1596.715 1654.897 1587.357 1645.683 C 1582.211 1640.616,1512.385 1581.720,1432.190 1514.804 L 1286.380 1393.138 1222.190 1424.705 C 1133.189 1468.473,1113.837 1474.099,1054.000 1473.598 C 1013.664 1473.261,1000.840 1471.511,973.686 1462.641 C 939.567 1451.496,903.697 1430.547,876.205 1405.709 C 856.485 1387.893,815.565 1339.294,792.535 1306.337 L 776.000 1282.674 776.000 1236.120 C 776.000 1169.020,765.589 1182.512,996.850 949.898 L 1132.160 813.797 1092.195 790.898 L 1052.230 768.000 922.375 768.000 L 792.519 768.000 808.486 733.927 C 830.391 687.184,835.717 660.687,826.917 642.234 C 818.368 624.307,801.466 612.249,735.495 577.017 C 607.223 508.512,563.230 494.545,530.943 512.075 " fill="#1D1E23" stroke="none" fill-rule="evenodd"/></svg>