<svg viewBox="0 0 2400 2400" fill="none" xmlns="http://www.w3.org/2000/svg"><path d="M1740.000 509.520 C 1700.959 525.815,1565.874 595.357,1541.008 611.962 C 1497.654 640.913,1494.584 664.754,1525.742 730.529 L 1543.493 768.000 1454.759 768.000 L 1366.025 768.000 1133.308 1000.692 L 900.591 1233.384 925.278 1263.229 C 964.517 1310.667,993.271 1330.621,1035.197 1339.507 C 1073.720 1347.672,1077.570 1346.524,1182.343 1295.592 C 1237.113 1268.968,1287.341 1246.316,1293.962 1245.253 C 1303.851 1243.667,1310.999 1247.098,1334.000 1264.474 C 1359.587 1283.804,1595.361 1475.977,1675.759 1543.032 L 1709.518 1571.189 1754.390 1536.594 C 1779.070 1517.568,1817.318 1488.042,1839.387 1470.982 L 1879.511 1439.964 1892.736 1464.982 C 1909.809 1497.280,1938.681 1526.640,1956.692 1530.019 C 1975.511 1533.549,2004.629 1521.937,2110.363 1468.734 C 2229.261 1408.908,2245.061 1392.518,2227.943 1346.766 C 2211.593 1303.066,1896.082 676.035,1831.050 558.000 C 1817.557 533.510,1808.923 522.949,1794.258 513.000 C 1771.685 497.686,1768.798 497.501,1740.000 509.520 M540.929 508.369 C 532.797 510.793,523.232 518.639,515.615 529.133 C 491.383 562.517,129.287 1292.527,108.200 1350.509 C 99.940 1373.220,99.738 1375.890,105.439 1386.915 C 118.892 1412.931,157.958 1438.242,262.000 1488.351 C 334.245 1523.147,366.025 1534.367,381.402 1530.507 C 395.958 1526.854,417.224 1507.228,436.675 1479.500 C 447.399 1464.211,454.711 1457.182,457.583 1459.400 C 460.013 1461.276,540.858 1520.778,637.240 1591.626 C 932.259 1808.488,996.541 1853.603,1034.329 1870.315 C 1118.602 1907.585,1212.965 1907.460,1297.700 1869.968 C 1339.389 1851.522,1421.792 1793.612,1541.582 1698.576 L 1597.165 1654.479 1573.936 1634.240 C 1561.160 1623.108,1491.261 1564.326,1418.604 1503.613 L 1286.500 1393.226 1222.250 1424.347 C 1130.978 1468.556,1116.540 1472.806,1057.498 1472.834 C 1000.920 1472.861,977.712 1467.385,930.000 1442.752 C 891.468 1422.858,852.355 1385.389,806.901 1324.829 L 776.000 1283.657 776.088 1240.829 C 776.192 1190.093,780.393 1178.393,812.302 1139.958 C 824.155 1125.681,900.865 1046.393,982.768 963.762 L 1131.683 813.523 1091.957 790.762 L 1052.230 768.000 922.375 768.000 L 792.521 768.000 806.356 738.055 C 813.965 721.585,823.107 696.835,826.670 683.055 C 832.595 660.137,832.607 656.726,826.807 643.070 C 818.692 623.960,787.002 603.174,694.680 556.407 C 606.207 511.590,569.061 499.983,540.929 508.369 " fill="#1D1E23" stroke="none" fill-rule="evenodd"/></svg>