<svg viewBox="0 0 2400 2400" fill="none" xmlns="http://www.w3.org/2000/svg"><path d="M1142.000 408.332 C 1067.602 413.796,966.668 466.569,908.142 530.606 C 809.296 638.760,777.013 787.504,822.601 924.740 C 881.439 1101.862,1056.171 1215.269,1240.744 1196.130 C 1302.790 1189.696,1366.803 1166.174,1423.639 1128.924 C 1455.524 1108.026,1511.009 1050.902,1535.170 1014.099 C 1577.679 949.348,1595.859 885.086,1595.947 799.262 C 1596.026 723.782,1581.669 668.875,1544.370 602.000 C 1495.317 514.051,1384.768 431.195,1294.000 414.348 C 1257.541 407.582,1189.108 404.873,1142.000 408.332 M1238.265 596.360 C 1306.635 608.920,1372.964 667.619,1395.975 735.926 C 1405.770 765.001,1407.554 818.193,1399.802 850.000 C 1376.778 944.469,1282.724 1014.041,1188.000 1006.669 C 1114.127 1000.921,1047.602 957.796,1017.243 895.976 C 1000.754 862.398,996.218 841.777,996.098 799.840 C 995.864 718.305,1032.990 655.592,1103.391 618.597 C 1148.609 594.836,1191.487 587.767,1238.265 596.360 M1094.000 1308.164 C 1006.928 1315.479,851.339 1349.493,756.759 1381.889 C 560.220 1449.209,439.950 1542.182,407.344 1652.000 C 401.328 1672.264,399.864 1890.568,405.510 1925.593 C 408.072 1941.491,412.486 1949.222,428.917 1966.595 C 442.690 1981.159,454.416 1989.509,465.583 1992.706 C 489.264 1999.486,1910.775 1999.475,1934.461 1992.694 C 1952.430 1987.550,1984.705 1956.688,1992.588 1937.110 C 1995.569 1929.706,1997.091 1881.303,1997.151 1792.000 C 1997.236 1663.686,1996.869 1657.044,1988.507 1635.467 C 1947.835 1530.519,1793.345 1424.251,1596.955 1366.132 C 1424.706 1315.158,1250.183 1295.043,1094.000 1308.164 M1264.000 1499.866 C 1333.202 1502.366,1369.080 1505.517,1400.000 1511.808 C 1564.898 1545.361,1718.834 1606.981,1787.496 1666.923 L 1804.993 1682.197 1807.064 1747.099 L 1809.135 1812.000 1200.040 1812.000 L 590.945 1812.000 592.811 1747.250 L 594.677 1682.500 610.339 1668.716 C 696.825 1592.597,932.728 1509.365,1088.000 1500.186 C 1157.620 1496.070,1158.875 1496.068,1264.000 1499.866 " fill="#1D1E23" stroke="none" fill-rule="evenodd"/></svg>