<svg viewBox="0 0 2400 2400" fill="none" xmlns="http://www.w3.org/2000/svg"><path d="M1142.000 408.332 C 1067.602 413.796,966.668 466.569,908.142 530.606 C 809.296 638.760,777.013 787.504,822.601 924.740 C 881.439 1101.862,1056.171 1215.269,1240.744 1196.130 C 1302.790 1189.696,1366.803 1166.174,1423.639 1128.924 C 1455.524 1108.026,1511.009 1050.902,1535.170 1014.099 C 1577.679 949.348,1595.859 885.086,1595.947 799.262 C 1596.026 723.782,1581.669 668.875,1544.370 602.000 C 1495.317 514.051,1384.768 431.195,1294.000 414.348 C 1257.541 407.582,1189.108 404.873,1142.000 408.332 M1096.000 1408.123 C 1013.829 1413.825,864.385 1445.525,766.848 1477.941 C 611.221 1529.664,489.609 1607.718,435.676 1690.498 C 405.692 1736.518,403.232 1750.169,400.978 1883.000 L 398.994 2000.000 1200.023 2000.000 L 2001.053 2000.000 1998.947 1881.000 C 1996.529 1744.359,1995.268 1737.518,1963.833 1690.519 C 1891.739 1582.729,1720.447 1490.786,1498.000 1440.476 C 1353.225 1407.734,1236.719 1398.357,1096.000 1408.123 " fill="#1D1E23" stroke="none" fill-rule="evenodd"/></svg>