<svg viewBox="0 0 2400 2400" fill="none" xmlns="http://www.w3.org/2000/svg"><path d="M1122.000 408.476 C 1031.016 432.250,968.241 467.518,911.896 526.515 C 860.860 579.954,825.536 646.124,809.675 718.000 C 798.587 768.245,800.103 847.376,813.093 896.476 C 851.652 1042.211,957.617 1148.278,1103.177 1186.834 C 1156.600 1200.985,1236.834 1201.835,1289.228 1188.803 C 1365.937 1169.725,1430.999 1132.560,1484.301 1077.373 C 1562.463 996.447,1597.551 909.102,1597.332 796.000 C 1597.225 740.574,1589.948 704.239,1567.895 649.021 C 1532.715 560.938,1462.580 486.581,1372.422 441.782 C 1316.698 414.093,1286.271 407.509,1206.000 405.769 C 1166.402 404.910,1131.317 406.041,1122.000 408.476 M1068.000 1409.768 C 914.707 1431.770,775.019 1467.929,678.000 1510.720 C 550.483 1566.962,456.553 1641.436,421.611 1714.000 C 405.198 1748.085,398.467 1799.212,400.597 1873.603 C 401.890 1918.749,402.943 1924.423,414.050 1946.135 C 422.103 1961.877,431.836 1973.722,443.393 1981.845 L 460.685 1994.000 649.342 1996.600 C 896.045 2000.000,1511.757 1999.929,1750.000 1996.473 C 1961.032 1993.412,1952.507 1994.671,1975.733 1963.123 C 1997.514 1933.538,2001.380 1911.776,1999.013 1832.093 C 1997.394 1777.575,1995.226 1756.999,1989.253 1739.494 C 1955.443 1640.391,1835.558 1549.819,1650.000 1483.192 C 1576.356 1456.749,1472.072 1431.701,1360.184 1413.579 C 1306.324 1404.856,1119.224 1402.415,1068.000 1409.768 " fill="#1D1E23" stroke="none" fill-rule="evenodd"/></svg>