<svg viewBox="0 0 2400 2400" fill="none" xmlns="http://www.w3.org/2000/svg"><path d="M1142.000 408.332 C 1067.602 413.796,966.668 466.569,908.142 530.606 C 809.296 638.760,777.013 787.504,822.601 924.740 C 881.439 1101.862,1056.171 1215.269,1240.744 1196.130 C 1302.790 1189.696,1366.803 1166.174,1423.639 1128.924 C 1455.524 1108.026,1511.009 1050.902,1535.170 1014.099 C 1577.679 949.348,1595.859 885.086,1595.947 799.262 C 1596.026 723.782,1581.669 668.875,1544.370 602.000 C 1495.317 514.051,1384.768 431.195,1294.000 414.348 C 1257.541 407.582,1189.108 404.873,1142.000 408.332 M1106.000 1408.202 C 983.643 1415.025,786.117 1463.030,673.122 1513.406 C 556.447 1565.421,456.407 1644.123,425.328 1708.345 C 405.439 1749.443,402.000 1770.327,402.000 1850.000 C 402.000 1917.305,402.607 1923.233,411.314 1940.912 C 416.437 1951.313,429.352 1967.667,440.015 1977.254 L 459.402 1994.684 666.701 1997.338 C 1157.196 2003.617,1911.715 1998.238,1944.760 1988.228 C 1953.808 1985.487,1964.280 1977.747,1971.817 1968.231 C 1993.244 1941.177,1997.271 1926.676,1999.095 1870.000 C 2002.916 1751.220,1988.929 1708.952,1924.129 1643.470 C 1867.432 1586.176,1792.543 1540.052,1687.864 1497.956 C 1635.979 1477.091,1595.028 1464.482,1519.964 1446.260 C 1409.653 1419.481,1357.589 1411.856,1258.000 1407.893 C 1207.400 1405.880,1164.200 1404.473,1162.000 1404.767 C 1159.800 1405.062,1134.600 1406.608,1106.000 1408.202 " fill="#1D1E23" stroke="none" fill-rule="evenodd"/></svg>