<svg viewBox="0 0 2400 2400" fill="none" xmlns="http://www.w3.org/2000/svg"><path d="M1142.000 408.332 C 1067.602 413.796,966.668 466.569,908.142 530.606 C 809.296 638.760,777.013 787.504,822.601 924.740 C 881.439 1101.862,1056.171 1215.269,1240.744 1196.130 C 1302.790 1189.696,1366.803 1166.174,1423.639 1128.924 C 1455.524 1108.026,1511.009 1050.902,1535.170 1014.099 C 1577.679 949.348,1595.859 885.086,1595.947 799.262 C 1596.026 723.782,1581.669 668.875,1544.370 602.000 C 1495.317 514.051,1384.768 431.195,1294.000 414.348 C 1257.541 407.582,1189.108 404.873,1142.000 408.332 M1238.265 596.360 C 1306.635 608.920,1372.964 667.619,1395.975 735.926 C 1405.770 765.001,1407.554 818.193,1399.802 850.000 C 1376.778 944.469,1282.724 1014.041,1188.000 1006.669 C 1114.127 1000.921,1047.602 957.796,1017.243 895.976 C 1000.754 862.398,996.218 841.777,996.098 799.840 C 995.864 718.305,1032.990 655.592,1103.391 618.597 C 1148.609 594.836,1191.487 587.767,1238.265 596.360 M1096.000 1308.123 C 1013.829 1313.825,864.385 1345.525,766.848 1377.941 C 611.221 1429.664,489.609 1507.718,435.676 1590.498 C 403.691 1639.589,403.042 1644.122,400.948 1833.000 L 399.096 2000.000 1199.548 2000.000 L 2000.000 2000.000 2000.000 1828.215 L 2000.000 1656.430 1984.632 1626.733 C 1976.180 1610.400,1960.916 1586.187,1950.713 1572.926 C 1875.154 1474.732,1713.675 1390.889,1506.080 1342.063 C 1365.091 1308.902,1237.239 1298.321,1096.000 1308.123 M1264.000 1499.866 C 1333.202 1502.366,1369.080 1505.517,1400.000 1511.808 C 1564.898 1545.361,1718.834 1606.981,1787.496 1666.923 L 1804.993 1682.197 1807.064 1747.099 L 1809.135 1812.000 1200.040 1812.000 L 590.945 1812.000 592.811 1747.250 L 594.677 1682.500 610.339 1668.716 C 696.825 1592.597,932.728 1509.365,1088.000 1500.186 C 1157.620 1496.070,1158.875 1496.068,1264.000 1499.866 " fill="#1D1E23" stroke="none" fill-rule="evenodd"/></svg>