<svg viewBox="0 0 2400 2400" fill="none" xmlns="http://www.w3.org/2000/svg"><path d="M1122.000 408.476 C 1031.016 432.250,968.241 467.518,911.896 526.515 C 860.860 579.954,825.536 646.124,809.675 718.000 C 798.587 768.245,800.103 847.376,813.093 896.476 C 851.652 1042.211,957.617 1148.278,1103.177 1186.834 C 1156.600 1200.985,1236.834 1201.835,1289.228 1188.803 C 1365.937 1169.725,1430.999 1132.560,1484.301 1077.373 C 1562.463 996.447,1597.551 909.102,1597.332 796.000 C 1597.225 740.574,1589.948 704.239,1567.895 649.021 C 1532.715 560.938,1462.580 486.581,1372.422 441.782 C 1316.698 414.093,1286.271 407.509,1206.000 405.769 C 1166.402 404.910,1131.317 406.041,1122.000 408.476 M1066.000 1410.103 C 928.535 1427.986,777.790 1467.347,675.891 1511.965 C 533.034 1574.517,438.969 1655.460,411.225 1739.711 C 403.340 1763.658,402.422 1776.422,400.924 1883.000 L 399.280 2000.000 1200.162 2000.000 L 2001.044 2000.000 1999.069 1879.000 C 1997.235 1766.560,1996.472 1756.377,1988.282 1735.058 C 1946.228 1625.588,1793.194 1522.133,1584.693 1462.222 C 1495.428 1436.573,1389.037 1415.674,1309.171 1408.101 C 1250.938 1402.578,1115.254 1403.696,1066.000 1410.103 " fill="#1D1E23" stroke="none" fill-rule="evenodd"/></svg>