<svg viewBox="0 0 2400 2400" fill="none" xmlns="http://www.w3.org/2000/svg"><path d="M536.000 611.837 C 413.590 638.027,306.211 719.964,250.097 830.000 C 218.967 891.043,207.084 933.707,204.972 992.000 C 202.238 1067.463,208.897 1121.252,226.383 1164.956 C 251.713 1228.268,282.285 1273.610,332.579 1322.462 C 372.650 1361.384,410.812 1386.745,467.496 1412.127 C 490.692 1422.513,510.295 1432.886,511.059 1435.177 C 513.028 1441.084,490.674 1484.387,466.239 1522.000 C 441.317 1560.363,400.462 1609.722,342.083 1672.000 C 276.474 1741.991,268.563 1766.666,296.211 1815.076 C 318.790 1854.610,353.076 1871.177,397.595 1864.065 C 496.907 1848.199,645.039 1787.250,736.814 1724.491 C 880.456 1626.264,969.752 1502.732,1018.146 1335.298 C 1047.414 1234.037,1050.000 1212.334,1050.000 1068.000 C 1050.000 919.206,1049.232 914.166,1016.149 846.000 C 954.852 719.698,840.687 634.567,700.295 610.471 C 650.507 601.926,579.568 602.516,536.000 611.837 M1712.000 607.926 C 1630.734 618.733,1540.624 667.213,1475.223 735.316 C 1423.025 789.670,1394.316 839.113,1374.206 909.285 C 1345.349 1009.980,1353.913 1108.538,1399.631 1201.906 C 1444.233 1292.993,1510.212 1356.784,1610.687 1405.962 C 1639.665 1420.146,1664.411 1433.430,1665.680 1435.482 C 1669.943 1442.380,1631.434 1512.411,1601.948 1551.381 C 1585.877 1572.621,1546.299 1618.800,1513.997 1654.000 C 1481.696 1689.200,1451.575 1725.182,1447.062 1733.961 C 1429.216 1768.675,1440.505 1813.681,1474.582 1843.676 C 1511.319 1876.014,1548.672 1873.464,1675.726 1829.945 C 1807.579 1784.781,1908.322 1724.912,1992.977 1641.410 C 2127.048 1509.163,2191.170 1353.887,2208.294 1120.000 C 2221.544 939.038,2185.538 824.103,2085.466 727.909 C 2027.394 672.087,1963.558 635.545,1892.729 617.577 C 1849.710 606.665,1758.226 601.779,1712.000 607.926 " fill="#1D1E23" stroke="none" fill-rule="evenodd"/></svg>