<svg viewBox="0 0 2400 2400" fill="none" xmlns="http://www.w3.org/2000/svg"><path d="M623.287 600C390.471 600 200 790.471 200 1023.29 200 1218.01 335.467 1383.1 517.465 1429.66 513.243 1438.13 475.124 1556.65 318.52 1692.09 238.088 1759.82 297.35 1886.81 398.952 1865.64 712.192 1797.91 1076.23 1594.74 1055.05 1010.6 1055.05 777.818 856.109 600.015 623.294 600.015L623.287 600ZM1778.85 600C1546.04 600 1355.57 790.471 1355.57 1023.29 1355.57 1218.01 1491.03 1383.1 1673.03 1429.66 1668.81 1438.13 1630.69 1556.65 1474.09 1692.09 1393.65 1759.82 1452.92 1886.81 1554.52 1865.64 1867.76 1797.91 2231.79 1594.74 2210.62 1010.6 2210.62 777.818 2011.68 600.015 1778.86 600.015L1778.85 600Z" fill="#1D1E23"/></svg>