<svg viewBox="0 0 2400 2400" fill="none" xmlns="http://www.w3.org/2000/svg"><path d="M561.794 608.050 C 503.831 615.404,437.177 642.278,381.213 680.859 C 349.847 702.483,297.578 754.621,276.404 785.406 C 255.704 815.503,229.466 871.039,217.389 910.322 C 207.038 943.986,206.426 950.290,206.546 1022.000 C 206.694 1109.926,211.702 1135.217,241.285 1197.417 C 284.911 1289.142,362.355 1362.922,466.441 1411.918 C 488.683 1422.388,508.055 1432.852,509.488 1435.171 C 512.748 1440.447,487.654 1489.349,462.272 1527.179 C 440.365 1559.832,396.739 1612.682,346.030 1668.000 C 284.620 1734.992,274.164 1756.366,285.745 1791.234 C 301.187 1837.723,335.700 1864.744,379.373 1864.535 C 427.463 1864.305,532.905 1830.859,626.000 1786.305 C 817.255 1694.774,940.342 1561.647,1004.114 1377.349 C 1040.938 1270.930,1051.853 1198.782,1051.823 1062.000 C 1051.801 963.155,1046.529 917.163,1030.799 878.580 C 994.027 788.385,924.590 707.422,846.000 663.106 C 809.086 642.290,762.942 624.306,724.704 615.830 C 684.168 606.845,602.160 602.929,561.794 608.050 M1716.978 608.414 C 1634.916 617.959,1548.409 662.990,1479.950 731.800 C 1408.075 804.043,1372.987 878.550,1359.920 986.675 C 1346.903 1094.395,1390.180 1218.562,1470.569 1304.137 C 1507.506 1343.457,1547.605 1372.471,1611.352 1406.000 C 1663.666 1433.516,1664.546 1434.202,1662.249 1445.718 C 1658.824 1462.896,1619.071 1529.590,1592.423 1562.868 C 1579.708 1578.746,1545.529 1618.484,1516.469 1651.175 C 1441.948 1735.006,1442.000 1734.922,1442.000 1769.821 C 1442.000 1794.898,1443.566 1801.160,1454.095 1818.190 C 1482.447 1864.049,1523.736 1874.308,1598.349 1854.035 C 1693.095 1828.292,1815.496 1775.586,1878.825 1733.264 C 1954.309 1682.817,2023.565 1616.387,2074.052 1546.000 C 2160.447 1425.553,2208.623 1252.692,2209.501 1060.000 C 2209.864 980.411,2205.816 947.516,2189.072 894.000 C 2169.183 830.432,2139.528 782.818,2088.173 732.000 C 2009.335 653.986,1927.395 616.550,1817.229 608.212 C 1756.486 603.615,1758.262 603.612,1716.978 608.414 " fill="#1D1E23" stroke="none" fill-rule="evenodd"/></svg>