<svg viewBox="0 0 2400 2400" fill="none" xmlns="http://www.w3.org/2000/svg"><path d="M558.000 605.794 C 449.547 622.746,351.943 681.763,283.595 771.713 C 256.057 807.955,226.066 870.447,213.343 918.094 C 204.082 952.778,202.647 966.113,202.381 1020.000 C 201.969 1103.240,214.062 1152.600,252.189 1223.296 C 301.575 1314.870,394.085 1391.299,493.034 1422.272 C 519.332 1430.504,519.202 1429.461,498.992 1470.000 C 466.962 1534.251,409.151 1608.026,341.644 1670.801 C 285.010 1723.466,272.347 1751.782,285.432 1796.495 C 293.601 1824.411,312.389 1846.683,337.717 1858.477 C 364.890 1871.130,382.058 1870.466,444.828 1854.337 C 693.020 1790.560,872.875 1657.870,967.651 1468.616 C 1023.802 1356.490,1050.371 1240.315,1054.776 1087.654 C 1058.407 961.812,1048.170 902.859,1009.678 827.964 C 928.384 669.785,740.342 577.291,558.000 605.794 M1713.303 605.867 C 1627.382 619.205,1551.867 657.227,1486.322 720.152 C 1428.800 775.376,1389.835 841.514,1369.069 919.177 C 1360.114 952.666,1358.645 966.518,1358.381 1020.000 C 1358.063 1084.327,1361.895 1109.623,1379.834 1161.595 C 1420.862 1280.460,1528.274 1384.471,1649.034 1422.272 C 1675.332 1430.504,1675.202 1429.461,1654.992 1470.000 C 1622.905 1534.364,1565.215 1607.953,1497.929 1670.348 C 1454.873 1710.274,1442.484 1728.419,1437.740 1758.495 C 1432.118 1794.144,1455.747 1839.546,1488.660 1856.337 C 1516.797 1870.691,1536.452 1870.378,1598.794 1854.584 C 1894.421 1779.687,2094.332 1603.296,2170.661 1350.000 C 2212.576 1210.905,2224.148 1006.041,2195.837 904.269 C 2140.248 704.434,1927.173 572.668,1713.303 605.867 " fill="#1D1E23" stroke="none" fill-rule="evenodd"/></svg>