<svg viewBox="0 0 2400 2400" fill="none" xmlns="http://www.w3.org/2000/svg"><path d="M582.000 604.215 C 474.347 613.223,361.308 675.105,291.085 763.474 C 260.621 801.810,226.886 870.931,213.716 922.000 C 204.020 959.595,203.511 966.329,205.244 1034.000 C 206.504 1083.209,209.149 1113.412,213.601 1129.417 C 232.348 1196.809,273.598 1265.977,325.939 1317.787 C 373.056 1364.426,411.090 1388.461,493.441 1423.636 C 511.437 1431.323,512.686 1432.760,510.241 1442.970 C 506.568 1458.304,475.077 1512.136,448.798 1548.000 C 420.184 1587.052,391.487 1620.335,341.882 1672.000 C 281.670 1734.713,273.668 1752.172,285.883 1794.188 C 294.714 1824.566,325.075 1855.954,353.221 1863.803 C 376.357 1870.255,411.789 1864.410,486.121 1841.879 C 686.735 1781.070,836.798 1675.118,934.938 1524.991 C 990.620 1439.811,1034.219 1311.514,1048.121 1191.925 C 1054.939 1133.277,1054.091 964.067,1046.808 929.934 C 1032.999 865.215,1002.819 807.366,952.151 748.495 C 865.141 647.401,723.886 592.341,582.000 604.215 M1696.000 610.009 C 1573.319 634.814,1458.658 722.431,1402.621 834.191 C 1359.811 919.573,1346.602 1016.526,1365.571 1106.137 C 1394.974 1245.042,1491.041 1357.430,1629.409 1414.798 C 1648.884 1422.872,1665.751 1431.908,1666.890 1434.878 C 1669.562 1441.839,1649.328 1482.847,1624.656 1520.474 C 1598.379 1560.550,1569.399 1595.206,1503.707 1665.115 C 1455.345 1716.580,1447.353 1726.994,1441.945 1745.596 C 1437.014 1762.558,1436.613 1770.886,1439.997 1785.988 C 1445.640 1811.166,1449.857 1818.803,1469.235 1838.933 C 1505.555 1876.664,1540.858 1875.397,1672.339 1831.640 C 1806.746 1786.910,1915.599 1721.697,2002.000 1634.141 C 2128.216 1506.239,2194.748 1341.086,2208.006 1122.774 C 2215.821 994.091,2205.965 917.516,2172.359 845.803 C 2116.056 725.654,1993.943 633.121,1861.124 609.959 C 1819.522 602.704,1731.997 602.731,1696.000 610.009 " fill="#1D1E23" stroke="none" fill-rule="evenodd"/></svg>