<svg viewBox="0 0 2400 2400" fill="none" xmlns="http://www.w3.org/2000/svg"><path d="M572.000 604.208 C 477.551 615.839,381.767 664.752,315.146 735.374 C 282.637 769.835,269.207 789.251,246.647 834.411 C 221.775 884.195,207.822 930.772,204.084 976.488 C 200.333 1022.363,205.078 1096.833,213.827 1129.417 C 249.570 1262.522,358.920 1377.798,491.079 1421.694 C 516.093 1430.002,516.991 1434.373,500.411 1467.114 C 469.105 1528.936,406.802 1608.787,336.576 1677.095 C 291.975 1720.478,277.710 1746.071,281.288 1776.288 C 286.159 1817.415,316.381 1854.286,353.616 1864.532 C 375.251 1870.484,412.979 1864.247,484.000 1842.975 C 629.531 1799.387,740.298 1737.578,833.272 1648.081 C 930.223 1554.756,990.507 1449.063,1025.963 1310.243 C 1046.965 1228.016,1053.402 1168.826,1053.612 1056.000 C 1053.815 947.029,1049.786 920.560,1023.321 856.988 C 994.264 787.188,924.133 706.766,857.695 667.056 C 772.321 616.029,665.979 592.636,572.000 604.208 M1730.050 604.228 C 1585.006 620.398,1449.639 721.147,1391.770 856.000 C 1331.913 995.485,1350.046 1151.980,1439.879 1271.197 C 1492.159 1340.579,1567.401 1395.229,1647.079 1421.694 C 1672.093 1430.002,1672.991 1434.373,1656.411 1467.114 C 1624.249 1530.625,1573.963 1595.478,1501.900 1666.385 C 1477.089 1690.796,1452.644 1718.696,1447.576 1728.385 C 1420.837 1779.502,1452.559 1849.071,1509.611 1864.434 C 1530.267 1869.996,1561.364 1865.180,1627.251 1846.216 C 1866.581 1777.329,2036.271 1645.768,2127.823 1458.122 C 2164.117 1383.733,2184.296 1314.264,2200.476 1208.000 C 2211.885 1133.074,2213.312 983.934,2203.079 936.000 C 2185.850 855.296,2151.193 790.870,2094.210 733.619 C 2042.872 682.039,1987.555 647.286,1920.000 624.170 C 1865.902 605.659,1789.325 597.620,1730.050 604.228 " fill="#1D1E23" stroke="none" fill-rule="evenodd"/></svg>