<svg viewBox="0 0 2400 2400" fill="none" xmlns="http://www.w3.org/2000/svg"><path d="M1042.964 213.985 C 785.483 255.850,554.189 397.884,393.846 612.600 C 258.993 793.181,186.155 1040.744,203.073 1261.000 C 221.109 1495.800,304.210 1693.348,456.832 1864.234 C 664.198 2096.416,958.375 2216.627,1268.794 2196.032 C 1421.114 2185.925,1582.269 2134.993,1716.000 2054.692 C 1808.534 1999.129,1932.708 1887.045,1997.113 1800.947 C 2087.619 1679.956,2150.712 1536.716,2182.427 1380.228 C 2202.428 1281.538,2202.328 1109.486,2182.215 1014.456 C 2148.661 855.920,2084.895 716.049,1987.208 586.701 C 1956.126 545.546,1860.775 450.143,1816.000 415.400 C 1718.697 339.899,1592.383 275.250,1480.627 243.753 C 1374.791 213.925,1354.440 211.369,1210.000 209.759 C 1109.029 208.634,1069.764 209.628,1042.964 213.985 M1050.993 813.991 C 1085.616 822.182,1133.192 847.007,1169.379 875.763 L 1199.879 900.000 1228.697 877.734 C 1266.751 848.332,1304.412 826.641,1335.718 816.095 C 1358.692 808.356,1368.192 807.631,1432.005 808.754 L 1502.803 810.000 1540.401 828.741 C 1602.745 859.816,1640.183 897.253,1671.259 959.597 L 1690.000 997.195 1691.265 1064.689 C 1692.020 1105.015,1690.689 1141.047,1687.958 1154.202 C 1682.359 1181.174,1645.266 1255.289,1616.647 1296.687 C 1564.571 1372.018,1478.342 1462.632,1323.612 1604.625 C 1224.234 1695.822,1209.627 1708.000,1199.615 1708.000 C 1189.033 1708.000,1146.451 1671.210,1038.385 1568.699 C 926.707 1462.763,830.235 1361.851,793.706 1312.758 C 763.868 1272.659,723.069 1193.075,714.229 1157.729 C 700.157 1101.464,702.816 1019.597,720.143 975.638 C 743.394 916.649,797.191 859.562,857.467 829.916 C 877.560 820.033,903.900 810.245,916.000 808.164 C 944.607 803.243,1019.169 806.462,1050.993 813.991 " fill="#1D1E23" stroke="none" fill-rule="evenodd"/></svg>