<svg viewBox="0 0 2400 2400" fill="none" xmlns="http://www.w3.org/2000/svg"><path d="M1076.000 212.139 C 1034.636 215.012,1020.723 217.275,966.736 229.914 C 796.666 269.730,621.690 369.209,492.000 499.817 C 334.200 658.733,242.245 846.876,207.457 1082.000 C 199.705 1134.399,200.792 1266.371,209.467 1326.000 C 243.104 1557.201,334.766 1742.252,495.933 1904.327 C 675.946 2085.354,899.650 2183.650,1164.000 2197.877 C 1333.319 2206.990,1536.048 2156.761,1696.400 2065.969 C 1802.282 2006.018,1940.893 1880.830,2009.980 1782.756 C 2104.984 1647.891,2169.646 1484.683,2190.257 1327.734 C 2198.683 1263.573,2196.505 1088.634,2186.625 1036.000 C 2157.515 880.922,2086.266 719.173,1991.932 594.008 C 1960.653 552.507,1867.918 457.917,1824.000 422.718 C 1693.080 317.789,1498.237 232.277,1354.000 216.446 C 1306.307 211.211,1128.933 208.463,1076.000 212.139 M1217.561 568.207 C 1231.141 584.347,1244.970 613.670,1323.941 793.778 C 1384.202 931.212,1391.511 945.829,1401.284 948.442 C 1420.820 953.667,1507.964 963.608,1642.000 975.902 C 1820.540 992.278,1828.000 994.168,1828.000 1023.011 C 1828.000 1039.625,1834.764 1032.987,1651.000 1196.719 C 1538.125 1297.290,1516.011 1318.724,1516.065 1327.502 C 1516.101 1333.276,1526.088 1382.100,1538.260 1436.000 C 1601.984 1718.200,1605.501 1743.295,1583.083 1755.840 C 1572.556 1761.730,1570.624 1761.146,1529.083 1739.531 C 1505.387 1727.202,1435.570 1687.440,1373.933 1651.172 C 1312.296 1614.905,1247.912 1577.573,1230.857 1568.212 L 1199.848 1551.194 1112.924 1601.122 C 1065.116 1628.582,986.570 1673.775,938.378 1701.551 C 890.186 1729.326,843.592 1754.198,834.836 1756.821 C 819.529 1761.407,818.543 1761.137,809.242 1749.796 C 796.787 1734.609,797.170 1731.510,830.460 1578.000 C 844.773 1512.000,862.872 1427.704,870.680 1390.677 L 884.877 1323.353 873.438 1311.193 C 867.147 1304.505,816.100 1258.402,760.000 1208.742 C 622.294 1086.845,589.848 1056.670,577.369 1038.893 C 567.733 1025.167,567.264 1022.849,572.240 1013.551 C 583.670 992.194,581.580 992.547,831.473 969.786 C 918.083 961.897,993.147 953.845,998.281 951.893 C 1009.996 947.439,1008.937 949.565,1069.951 808.000 C 1097.922 743.100,1132.363 665.822,1146.485 636.271 C 1185.757 554.097,1196.794 543.528,1217.561 568.207 " fill="#1D1E23" stroke="none" fill-rule="evenodd"/></svg>