<svg viewBox="0 0 2400 2400" fill="none" xmlns="http://www.w3.org/2000/svg"><path d="M1108.545 204.138 C 796.319 234.318,520.746 404.372,350.372 672.000 C 318.468 722.115,273.515 818.568,252.284 882.460 C 183.002 1090.954,183.002 1309.046,252.284 1517.540 C 300.974 1664.069,381.908 1794.313,493.797 1906.203 C 648.729 2061.134,839.618 2157.095,1060.000 2190.836 C 1123.622 2200.577,1275.859 2200.550,1337.463 2190.786 C 1401.612 2180.620,1463.274 2165.956,1515.596 2148.425 C 1858.696 2033.465,2112.820 1743.895,2181.460 1389.683 C 2289.531 831.998,1909.983 296.356,1346.700 211.616 C 1285.763 202.448,1165.192 198.663,1108.545 204.138 M1221.557 565.000 C 1228.335 571.098,1256.910 633.984,1310.165 760.000 C 1353.397 862.300,1390.424 947.738,1392.447 949.862 C 1395.471 953.039,1764.171 987.293,1801.182 987.836 C 1824.109 988.172,1839.700 1018.139,1828.162 1039.697 C 1826.051 1043.641,1754.051 1107.660,1668.162 1181.962 C 1582.273 1256.264,1512.000 1318.454,1512.000 1320.162 C 1512.000 1321.870,1532.700 1412.271,1558.000 1521.052 C 1583.300 1629.833,1604.000 1723.498,1604.000 1729.195 C 1604.000 1734.892,1599.733 1744.514,1594.518 1750.577 C 1576.130 1771.955,1573.603 1770.818,1381.437 1654.695 C 1284.328 1596.013,1202.681 1548.000,1200.000 1548.000 C 1197.319 1548.000,1115.672 1596.013,1018.563 1654.695 C 826.397 1770.818,823.870 1771.955,805.482 1750.577 C 800.267 1744.514,796.000 1734.949,796.000 1729.322 C 796.000 1723.694,816.818 1629.744,842.263 1520.545 C 868.914 1406.166,887.143 1319.989,885.263 1317.256 C 883.468 1314.647,819.000 1258.183,742.000 1191.780 C 564.440 1038.658,568.000 1042.092,568.000 1023.921 C 568.000 1007.833,578.883 993.225,593.111 990.218 C 598.000 989.184,692.900 980.802,804.000 971.591 C 915.100 962.380,1006.570 954.384,1007.266 953.822 C 1007.962 953.261,1044.511 867.571,1088.486 763.401 C 1142.762 634.831,1171.654 571.109,1178.444 565.000 C 1183.945 560.050,1193.645 556.000,1200.000 556.000 C 1206.355 556.000,1216.055 560.050,1221.557 565.000 " fill="#1D1E23" stroke="none" fill-rule="evenodd"/></svg>