<svg viewBox="0 0 2400 2400" fill="none" xmlns="http://www.w3.org/2000/svg"><path d="M820.089 108.287 C 808.038 110.437,783.738 119.279,766.089 127.935 C 682.307 169.028,622.261 239.155,601.637 320.000 C 593.573 351.608,595.617 423.073,605.797 465.470 C 609.425 480.579,611.595 493.738,610.620 494.713 C 609.645 495.688,573.107 498.139,529.424 500.160 C 420.353 505.205,411.190 506.214,390.186 515.506 C 364.926 526.679,327.696 563.280,313.946 590.457 C 303.801 610.509,302.574 617.032,302.729 650.089 C 302.871 680.434,304.585 690.683,312.124 706.255 C 324.007 730.802,363.887 771.294,392.000 787.356 L 414.000 799.925 1200.000 799.925 L 1986.000 799.925 2008.000 787.356 C 2036.219 771.233,2075.866 730.921,2087.185 706.841 C 2094.191 691.936,2096.000 680.837,2096.000 652.756 C 2096.000 602.001,2089.107 585.030,2053.995 549.345 C 2011.532 506.187,2014.331 506.931,1868.564 500.094 C 1825.974 498.096,1790.351 495.684,1789.401 494.735 C 1788.452 493.785,1790.885 479.731,1794.809 463.504 C 1799.940 442.286,1801.922 418.272,1801.865 378.000 C 1801.792 326.346,1800.928 319.835,1790.735 294.104 C 1753.860 201.018,1671.350 129.409,1578.986 110.331 C 1503.346 94.707,1428.430 111.572,1358.388 159.992 C 1323.405 184.175,1261.412 247.526,1226.000 295.278 C 1212.800 313.078,1201.100 327.633,1200.000 327.623 C 1198.900 327.612,1186.901 312.819,1173.335 294.748 C 1140.998 251.672,1088.897 196.236,1059.466 173.589 C 1030.153 151.034,977.032 122.741,948.000 114.221 C 921.004 106.299,849.759 102.994,820.089 108.287 M906.882 312.427 C 929.351 323.304,961.806 353.108,991.849 390.454 C 1021.969 427.894,1049.588 474.091,1046.564 481.971 C 1041.652 494.773,949.579 486.057,892.000 467.340 C 852.608 454.535,830.348 442.015,814.913 423.983 C 798.354 404.638,794.378 388.880,800.405 366.495 C 806.436 344.099,817.835 329.197,839.394 315.524 C 861.520 301.493,882.322 300.538,906.882 312.427 M1556.213 312.109 C 1573.731 321.046,1593.068 344.995,1600.190 366.577 C 1620.115 426.949,1532.863 478.463,1397.000 486.543 C 1354.053 489.097,1352.000 488.861,1352.000 481.374 C 1352.000 463.889,1407.883 384.074,1446.573 346.300 C 1487.203 306.632,1523.369 295.353,1556.213 312.109 M568.000 907.883 C 395.561 910.317,403.736 908.612,358.764 951.500 C 332.093 976.935,319.626 996.207,308.019 1029.946 C 300.162 1052.782,300.000 1063.285,300.000 1549.850 L 300.000 2046.447 308.554 2071.776 C 313.259 2085.708,324.541 2107.968,333.627 2121.244 C 352.200 2148.385,392.305 2181.336,414.971 2188.078 C 423.498 2190.615,487.969 2194.059,564.000 2196.039 C 724.596 2200.223,1642.658 2200.444,1832.000 2196.345 C 1958.214 2193.613,1967.352 2192.915,1989.268 2184.334 C 2015.841 2173.931,2058.670 2136.520,2074.047 2110.280 C 2097.872 2069.626,2097.212 2083.217,2098.942 1597.713 C 2099.872 1336.675,2098.926 1127.423,2096.648 1090.381 C 2093.051 1031.896,2091.868 1025.501,2080.289 1001.981 C 2065.181 971.292,2034.909 942.324,1994.561 919.946 L 1966.000 904.106 1342.000 904.936 C 998.800 905.393,650.500 906.719,568.000 907.883 M1300.000 1550.000 L 1300.000 2000.000 1200.000 2000.000 L 1100.000 2000.000 1100.000 1550.000 L 1100.000 1100.000 1200.000 1100.000 L 1300.000 1100.000 1300.000 1550.000 " fill="#1D1E23" stroke="none" fill-rule="evenodd"/></svg>