<svg viewBox="0 0 2400 2400" fill="none" xmlns="http://www.w3.org/2000/svg"><path d="M1064.000 209.588 C 840.786 243.783,646.242 341.428,491.369 497.001 C 337.293 651.774,243.684 839.954,209.320 1064.000 C 199.513 1127.944,199.492 1271.819,209.281 1336.000 C 243.636 1561.251,337.128 1747.885,494.559 1905.489 C 702.194 2113.351,973.028 2215.373,1267.364 2196.602 C 1455.818 2184.583,1643.099 2115.706,1794.116 2002.877 C 2012.010 1840.082,2149.028 1609.685,2190.709 1336.000 C 2200.602 1271.037,2200.560 1123.474,2190.630 1060.812 C 2155.212 837.316,2057.243 643.650,1901.730 489.709 C 1758.133 347.564,1578.721 255.363,1368.000 215.424 C 1313.536 205.101,1117.814 201.344,1064.000 209.588 M1065.015 815.267 C 1102.770 828.903,1141.429 851.085,1171.391 876.306 L 1199.600 900.051 1233.293 873.018 C 1271.832 842.097,1316.328 818.658,1352.825 810.053 C 1392.449 800.712,1474.116 801.941,1505.126 812.346 C 1593.999 842.165,1657.835 906.001,1687.654 994.874 C 1694.465 1015.173,1695.989 1029.518,1695.941 1072.874 C 1695.865 1140.777,1690.027 1165.668,1660.026 1226.000 C 1608.059 1330.505,1527.320 1419.911,1290.000 1635.746 C 1246.000 1675.763,1207.228 1710.051,1203.840 1711.943 C 1199.180 1714.545,1183.107 1702.173,1137.840 1661.142 C 964.578 1504.094,848.099 1387.015,794.466 1316.000 C 759.324 1269.469,727.866 1209.260,713.850 1161.706 C 700.700 1117.088,698.777 1050.009,709.402 1006.497 C 730.928 918.345,804.284 841.581,895.994 811.238 C 927.898 800.683,1031.468 803.151,1065.015 815.267 " fill="#1D1E23" stroke="none" fill-rule="evenodd"/></svg>