<svg viewBox="0 0 2400 2400" fill="none" xmlns="http://www.w3.org/2000/svg"><path d="M1076.000 212.139 C 1034.636 215.012,1020.723 217.275,966.736 229.914 C 796.666 269.730,621.690 369.209,492.000 499.817 C 334.200 658.733,242.245 846.876,207.457 1082.000 C 199.705 1134.399,200.792 1266.371,209.467 1326.000 C 243.104 1557.201,334.766 1742.252,495.933 1904.327 C 675.946 2085.354,899.650 2183.650,1164.000 2197.877 C 1333.319 2206.990,1536.048 2156.761,1696.400 2065.969 C 1802.282 2006.018,1940.893 1880.830,2009.980 1782.756 C 2104.984 1647.891,2169.646 1484.683,2190.257 1327.734 C 2198.683 1263.573,2196.505 1088.634,2186.625 1036.000 C 2157.515 880.922,2086.266 719.173,1991.932 594.008 C 1960.653 552.507,1867.918 457.917,1824.000 422.718 C 1693.080 317.789,1498.237 232.277,1354.000 216.446 C 1306.307 211.211,1128.933 208.463,1076.000 212.139 M1073.059 821.260 C 1106.814 834.266,1142.551 855.037,1175.004 880.513 L 1200.007 900.140 1227.699 879.070 C 1263.340 851.951,1293.476 833.815,1324.885 820.582 C 1349.151 810.358,1352.638 810.000,1428.000 810.013 L 1506.000 810.026 1546.000 832.013 C 1600.080 861.739,1638.068 899.558,1667.292 952.766 L 1688.585 991.532 1690.751 1050.766 C 1693.850 1135.498,1689.589 1159.246,1660.762 1217.893 C 1617.860 1305.173,1569.910 1365.320,1445.149 1488.349 C 1358.116 1574.174,1225.739 1695.577,1210.010 1703.995 C 1202.057 1708.251,1198.150 1708.358,1191.000 1704.513 C 1155.300 1685.321,915.826 1453.952,824.069 1350.000 C 778.398 1298.260,721.925 1195.717,711.720 1146.000 C 704.544 1111.035,705.530 1031.443,713.525 1000.452 C 731.020 932.631,786.149 867.178,855.429 831.973 C 901.728 808.445,904.452 807.945,978.000 809.446 C 1039.804 810.707,1048.466 811.783,1073.059 821.260 " fill="#1D1E23" stroke="none" fill-rule="evenodd"/></svg>