<svg viewBox="0 0 2400 2400" fill="none" xmlns="http://www.w3.org/2000/svg"><path d="M1776.000 308.187 C 1746.096 311.793,1690.620 330.609,1650.000 350.923 C 1557.139 397.362,1479.878 478.415,1439.881 571.354 C 1411.776 636.661,1405.995 667.857,1406.036 754.000 C 1406.068 820.107,1407.205 833.905,1414.773 860.000 C 1457.465 1007.212,1553.400 1114.407,1690.394 1167.969 C 1748.705 1190.767,1791.407 1197.141,1871.991 1195.076 C 1935.373 1193.451,1939.745 1192.795,1981.853 1178.579 C 2156.712 1119.547,2274.299 976.036,2296.376 794.715 C 2303.373 737.245,2295.288 670.703,2273.314 604.930 C 2229.060 472.464,2124.358 370.971,1982.812 323.332 C 1951.809 312.897,1936.847 310.432,1888.000 307.710 C 1820.439 303.945,1810.837 303.986,1776.000 308.187 M1892.000 461.782 L 1892.000 487.564 1919.409 501.967 C 1952.121 519.156,1987.225 549.423,1998.120 569.832 L 2006.000 584.592 1995.023 594.084 C 1988.986 599.305,1974.188 606.684,1962.138 610.482 L 1940.231 617.388 1923.657 598.560 C 1900.450 572.196,1890.447 568.000,1850.790 568.000 C 1814.461 568.000,1799.432 574.253,1783.263 596.094 C 1756.929 631.667,1780.103 665.138,1851.223 694.250 C 1954.985 736.724,1987.532 759.113,2008.069 802.145 C 2018.407 823.807,2020.000 831.672,2020.000 861.069 C 2020.000 897.698,2013.987 920.458,1997.854 944.899 C 1982.567 968.059,1951.092 990.543,1919.886 1000.593 L 1892.000 1009.575 1892.000 1036.787 L 1892.000 1064.000 1852.000 1064.000 L 1812.000 1064.000 1812.000 1036.827 L 1812.000 1009.654 1783.877 996.223 C 1768.409 988.835,1747.927 975.902,1738.361 967.482 C 1715.905 947.716,1683.984 900.954,1682.868 886.192 C 1681.890 873.249,1690.535 866.615,1726.968 852.351 L 1747.937 844.142 1758.449 864.887 C 1772.287 892.193,1806.068 924.956,1826.787 931.164 C 1859.805 941.056,1895.172 934.324,1919.477 913.520 C 1946.848 890.091,1951.327 853.605,1930.227 825.942 C 1919.709 812.153,1900.151 801.533,1795.269 752.660 C 1747.250 730.284,1723.641 710.106,1707.790 677.896 C 1699.717 661.488,1698.070 652.389,1698.402 626.000 C 1699.123 568.527,1724.147 532.142,1783.512 502.246 L 1812.000 487.899 1812.000 461.950 L 1812.000 436.000 1852.000 436.000 L 1892.000 436.000 1892.000 461.782 M100.000 1650.000 L 100.000 2200.000 300.000 2200.000 L 500.000 2200.000 500.000 1650.000 L 500.000 1100.000 300.000 1100.000 L 100.000 1100.000 100.000 1650.000 M700.000 1551.164 L 700.000 2002.327 1049.940 2101.174 L 1399.880 2200.020 1736.431 2073.909 C 2122.095 1929.396,2183.151 1905.709,2193.360 1896.644 C 2202.814 1888.249,2200.310 1870.918,2183.254 1826.691 C 2172.429 1798.620,2166.867 1790.447,2142.031 1766.121 C 2100.706 1725.642,2073.982 1710.783,2036.227 1707.292 C 2019.602 1705.754,1844.900 1703.240,1648.000 1701.704 L 1290.000 1698.911 1232.000 1677.854 C 1200.100 1666.272,1157.350 1650.128,1137.000 1641.978 C 1094.434 1624.931,1094.547 1625.171,1107.902 1580.330 C 1121.188 1535.717,1120.403 1536.119,1165.337 1550.962 C 1186.362 1557.908,1224.515 1571.782,1250.123 1581.795 L 1296.682 1600.000 1453.978 1600.000 L 1611.274 1600.000 1636.578 1583.000 C 1682.708 1552.008,1706.388 1503.304,1696.126 1460.526 C 1693.625 1450.098,1686.331 1432.380,1679.918 1421.151 C 1660.225 1386.671,1658.578 1385.959,1201.035 1214.369 L 896.070 1100.000 798.035 1100.000 L 700.000 1100.000 700.000 1551.164 " fill="#1D1E23" stroke="none" fill-rule="evenodd"/></svg>