<svg viewBox="0 0 2400 2400" fill="none" xmlns="http://www.w3.org/2000/svg"><path d="M500 1100H100V2200H500V1100ZM2000 1700H1300L1091 1627 1124 1533 1300 1600H1582C1647 1600 1700 1547 1700 1482 1700 1433 1669 1389 1623 1371L897 1100H700V2002L1400 2200 2201 1900C2200 1790 2111 1700 2000 1700ZM1850 300C1601.6 300 1400 501.6 1400 750 1400 998.4 1601.6 1200 1850 1200 2098.4 1200 2300 998.4 2300 750 2300 501.6 2098.4 300 1850 300ZM1889.6 1009.2V1065H1810.85V1006.95C1777.55 998.85 1703.3 972.3 1674.95 873.75L1749.2 843.6C1751.9 853.5 1775.3 937.65 1857.2 937.65 1899.05 937.65 1946.3 916.05 1946.3 865.2 1946.3 822 1914.8 799.5 1843.7 773.85 1794.2 756.3 1692.95 727.5 1692.95 624.9 1692.95 620.4 1693.4 516.9 1810.85 491.7V435H1889.6V490.8C1972.4 505.2 2002.55 571.35 2009.3 591.15L1938.2 621.3C1933.25 605.55 1911.65 561 1852.7 561 1821.2 561 1771.25 577.65 1771.25 623.55 1771.25 666.3 1809.95 682.5 1890.05 709.05 1998.05 746.4 2025.5 801.3 2025.5 864.3 2025.5 982.65 1913 1005.15 1889.6 1009.2Z" fill="#1D1E23"/></svg>