<svg viewBox="0 0 2400 2400" fill="none" xmlns="http://www.w3.org/2000/svg"><path d="M1090.000 207.942 C 991.874 215.868,856.495 255.676,755.433 306.322 C 548.359 410.095,373.025 594.133,284.353 800.785 C 173.297 1059.606,173.317 1340.056,284.412 1599.295 C 373.585 1807.379,555.065 1996.818,762.000 2097.827 C 856.626 2144.016,946.827 2172.076,1054.000 2188.662 C 1128.208 2200.147,1262.957 2201.060,1332.000 2190.546 C 1560.948 2155.683,1749.312 2061.714,1907.446 1903.473 C 1985.715 1825.152,2041.508 1747.680,2091.434 1648.000 C 2139.550 1551.931,2170.494 1456.514,2188.725 1348.000 C 2199.868 1281.673,2200.807 1120.264,2190.413 1058.000 C 2160.055 876.160,2087.592 711.587,1977.301 574.000 C 1935.504 521.859,1852.891 441.941,1800.000 402.484 C 1720.106 342.882,1622.561 291.034,1529.427 258.667 C 1470.401 238.154,1383.320 217.166,1337.699 212.459 C 1282.038 206.715,1137.763 204.085,1090.000 207.942 M1214.523 561.816 C 1225.848 569.748,1246.027 612.284,1322.771 790.000 C 1358.872 873.600,1389.807 943.400,1391.516 945.111 C 1397.994 951.599,1513.050 964.851,1694.000 979.951 C 1749.000 984.540,1799.881 990.179,1807.070 992.481 C 1822.125 997.302,1833.840 1016.123,1830.376 1029.925 C 1827.531 1041.263,1808.109 1059.379,1651.881 1196.422 C 1582.646 1257.154,1522.833 1310.415,1518.962 1314.779 C 1512.195 1322.409,1513.320 1328.776,1548.221 1480.357 C 1606.804 1734.792,1606.997 1736.032,1590.327 1751.692 C 1572.543 1768.400,1571.919 1768.100,1346.290 1634.143 C 1270.193 1588.965,1205.656 1552.000,1202.874 1552.000 C 1196.106 1552.000,1131.177 1588.312,1010.000 1659.866 C 824.235 1769.559,827.227 1768.184,809.827 1751.837 C 802.391 1744.852,800.000 1738.483,800.000 1725.664 C 800.000 1716.346,815.203 1641.510,833.784 1559.361 C 852.366 1477.213,871.716 1389.554,876.784 1364.563 L 886.000 1319.127 866.000 1300.952 C 855.000 1290.955,799.205 1242.102,742.010 1192.388 C 617.698 1084.336,572.609 1041.817,569.593 1029.801 C 565.852 1014.897,578.072 996.845,595.023 992.231 C 603.260 989.990,676.600 982.625,758.000 975.865 C 897.289 964.297,1003.888 953.665,1006.031 951.127 C 1009.846 946.609,1027.429 906.933,1080.315 783.505 C 1177.146 557.516,1186.448 542.151,1214.523 561.816 " fill="#1D1E23" stroke="none" fill-rule="evenodd"/></svg>