<svg viewBox="0 0 2400 2400" fill="none" xmlns="http://www.w3.org/2000/svg"><path d="M804.000 111.551 C 707.159 142.896,625.806 225.191,601.889 316.000 C 592.854 350.304,594.229 418.121,604.775 458.328 C 609.601 476.729,612.161 493.173,610.464 494.870 C 608.766 496.567,563.868 499.363,510.689 501.083 C 415.141 504.174,413.704 504.350,388.899 515.943 C 358.195 530.293,328.733 559.529,313.405 590.859 C 303.486 611.131,302.177 618.201,302.367 650.442 C 302.552 681.699,304.138 690.200,313.262 708.849 C 326.273 735.442,366.326 774.963,394.985 789.486 L 415.734 800.000 1200.000 800.000 L 1984.266 800.000 2005.015 789.486 C 2033.489 775.057,2073.731 735.434,2086.576 709.182 C 2095.665 690.604,2097.091 682.577,2097.091 650.000 C 2097.091 602.297,2087.344 580.161,2050.949 545.213 C 2009.062 504.991,2008.791 504.915,1892.888 501.197 C 1837.756 499.428,1791.253 496.587,1789.549 494.883 C 1787.845 493.178,1790.399 476.729,1795.225 458.328 C 1805.771 418.121,1807.146 350.304,1798.111 316.000 C 1782.852 258.065,1738.268 195.148,1686.085 157.912 C 1634.311 120.966,1583.868 104.000,1525.799 104.000 C 1444.797 104.000,1369.225 138.775,1300.181 207.819 C 1279.223 228.777,1227.098 291.572,1207.000 320.073 L 1200.000 330.000 1193.000 320.073 C 1170.760 288.533,1119.973 228.064,1096.948 205.709 C 1046.176 156.413,985.850 121.055,933.650 109.996 C 895.079 101.825,831.700 102.585,804.000 111.551 M909.919 313.128 C 942.182 329.286,1001.168 393.732,1032.024 446.533 C 1054.204 484.490,1053.608 488.008,1025.000 487.967 C 944.738 487.853,857.964 464.314,821.314 432.715 C 786.203 402.443,789.138 356.192,828.298 322.673 C 855.966 298.990,876.821 296.551,909.919 313.128 M1550.556 308.318 C 1576.447 317.839,1603.732 356.131,1603.912 383.199 C 1604.121 414.639,1573.927 444.326,1522.000 463.735 C 1489.145 476.015,1446.147 483.807,1395.000 486.749 L 1352.000 489.222 1352.001 479.611 C 1352.002 461.956,1414.190 374.505,1449.422 342.615 C 1490.062 305.829,1518.013 296.350,1550.556 308.318 M436.000 907.757 C 386.135 915.203,327.810 968.450,310.862 1022.000 L 302.000 1050.000 302.000 1550.000 L 302.000 2050.000 310.868 2078.000 C 321.530 2111.665,348.755 2147.281,380.584 2169.202 C 425.155 2199.899,371.106 2198.000,1200.000 2198.000 C 1885.937 2198.000,1940.095 2197.511,1967.698 2191.070 C 2001.834 2183.104,2020.682 2171.829,2048.584 2142.685 C 2080.279 2109.579,2091.578 2082.253,2096.080 2027.820 C 2100.909 1969.434,2101.013 1133.521,2096.199 1071.373 C 2093.367 1034.813,2090.381 1020.083,2082.371 1003.150 C 2067.940 972.647,2033.967 939.996,1996.231 920.363 L 1964.778 904.000 1209.389 904.534 C 793.925 904.828,445.900 906.278,436.000 907.757 M1300.000 1550.000 L 1300.000 2000.000 1200.000 2000.000 L 1100.000 2000.000 1100.000 1550.000 L 1100.000 1100.000 1200.000 1100.000 L 1300.000 1100.000 1300.000 1550.000 " fill="#1D1E23" stroke="none" fill-rule="evenodd"/></svg>