<svg viewBox="0 0 2400 2400" fill="none" xmlns="http://www.w3.org/2000/svg"><path d="M832.000 103.834 C 781.952 113.246,719.143 146.639,679.075 185.137 C 648.612 214.408,619.642 260.188,606.587 299.688 C 597.111 328.359,595.714 338.954,595.714 382.162 C 595.714 424.702,597.163 436.054,605.922 462.146 C 611.536 478.871,615.248 493.981,614.170 495.725 C 613.092 497.469,567.313 499.759,512.438 500.816 C 413.963 502.711,412.378 502.876,390.564 513.549 C 357.485 529.733,330.376 556.192,315.122 587.181 C 303.163 611.479,302.016 617.037,302.182 649.920 C 302.336 680.280,304.050 689.658,312.995 709.073 C 326.713 738.851,359.020 770.952,391.639 787.216 L 417.278 800.000 1200.000 800.000 L 1982.722 800.000 2008.361 787.216 C 2040.956 770.964,2073.279 738.854,2087.025 709.073 C 2096.060 689.498,2097.675 680.542,2097.675 650.000 C 2097.675 619.458,2096.060 610.502,2087.025 590.927 C 2074.218 563.179,2042.295 530.446,2012.437 514.444 L 1990.874 502.888 1889.319 500.870 C 1833.463 499.761,1786.887 497.436,1785.817 495.704 C 1784.746 493.971,1788.400 479.062,1793.935 462.572 C 1802.624 436.689,1803.993 425.576,1803.946 381.295 C 1803.898 335.205,1802.726 326.648,1792.395 296.967 C 1749.338 173.271,1616.071 86.990,1494.634 104.188 C 1453.522 110.010,1437.863 114.767,1403.443 131.891 C 1363.338 151.843,1332.736 174.546,1295.911 211.668 C 1270.235 237.552,1209.524 313.712,1202.299 329.102 C 1200.485 332.966,1199.515 332.966,1197.701 329.102 C 1190.090 312.890,1129.344 237.030,1102.152 209.780 C 1052.119 159.641,993.160 123.577,940.000 110.594 C 907.411 102.635,855.616 99.393,832.000 103.834 M910.726 312.583 C 946.721 330.170,1010.007 402.429,1041.285 461.653 C 1046.994 472.463,1050.573 483.074,1049.238 485.233 C 1046.000 490.473,966.992 486.057,927.341 478.421 C 874.025 468.152,820.301 440.375,804.590 414.955 C 783.923 381.514,799.980 335.847,840.781 312.022 C 865.523 297.574,880.252 297.693,910.726 312.583 M1562.309 313.970 C 1600.810 336.533,1616.317 385.751,1594.319 415.568 C 1563.977 456.694,1495.427 481.537,1397.863 486.766 C 1365.041 488.525,1352.396 487.877,1350.200 484.324 C 1342.552 471.949,1420.347 364.434,1458.904 334.093 C 1506.074 296.975,1526.520 292.996,1562.309 313.970 M548.000 903.551 L 430.000 906.000 402.794 918.886 C 368.974 934.905,333.783 969.191,318.059 1001.440 C 309.638 1018.711,305.833 1033.976,303.600 1059.440 C 299.591 1105.152,299.499 1986.982,303.498 2036.537 C 307.440 2085.382,319.770 2112.321,353.725 2146.275 C 390.571 2183.122,411.308 2191.532,476.368 2196.019 C 546.331 2200.844,1853.669 2200.844,1923.632 2196.019 C 1989.065 2191.507,2009.725 2183.099,2046.000 2146.219 C 2079.709 2111.949,2092.546 2083.923,2096.487 2036.000 C 2100.552 1986.562,2100.565 1113.817,2096.502 1063.463 C 2094.081 1033.463,2090.857 1019.727,2081.952 1001.463 C 2065.936 968.613,2032.700 936.657,1996.000 918.819 L 1966.000 904.238 1316.000 902.670 C 958.500 901.808,612.900 902.204,548.000 903.551 M1300.000 1550.000 L 1300.000 2000.000 1200.000 2000.000 L 1100.000 2000.000 1100.000 1550.000 L 1100.000 1100.000 1200.000 1100.000 L 1300.000 1100.000 1300.000 1550.000 " fill="#1D1E23" stroke="none" fill-rule="evenodd"/></svg>