<svg viewBox="0 0 2400 2400" fill="none" xmlns="http://www.w3.org/2000/svg"><path d="M1760.452 309.920 C 1703.290 322.899,1636.663 352.699,1588.203 386.961 C 1551.429 412.961,1505.128 460.379,1480.106 497.667 C 1420.336 586.736,1395.496 682.192,1404.171 789.470 C 1408.110 838.180,1412.221 857.414,1427.840 900.212 C 1475.162 1029.876,1572.514 1126.332,1704.000 1173.827 C 1751.888 1191.125,1787.561 1196.346,1858.000 1196.366 C 1915.115 1196.383,1925.849 1195.266,1957.777 1185.985 C 2027.185 1165.808,2071.808 1143.484,2126.953 1101.348 C 2244.814 1011.290,2312.899 852.885,2296.476 706.938 C 2275.017 516.229,2150.991 370.782,1964.000 317.037 C 1935.031 308.711,1919.345 307.032,1858.000 305.692 C 1804.681 304.527,1779.371 305.625,1760.452 309.920 M1892.000 462.220 L 1892.000 488.440 1913.000 497.746 C 1954.887 516.308,2004.000 563.359,2004.000 584.925 C 2004.000 592.876,1972.850 609.630,1949.315 614.337 C 1938.582 616.484,1936.113 615.126,1928.583 602.943 C 1923.881 595.336,1913.180 584.362,1904.802 578.556 C 1890.900 568.922,1886.185 568.000,1850.797 568.000 C 1812.080 568.000,1812.000 568.020,1796.479 582.043 C 1777.548 599.146,1770.254 615.440,1773.584 633.189 C 1778.124 657.391,1805.761 676.893,1873.846 703.939 C 1959.983 738.156,1988.751 758.885,2008.067 800.651 C 2020.152 826.784,2021.635 833.726,2021.593 864.000 C 2021.535 907.047,2008.493 938.961,1980.111 965.509 C 1958.422 985.796,1947.011 992.237,1915.000 1002.260 L 1892.000 1009.461 1892.000 1036.730 L 1892.000 1064.000 1852.000 1064.000 L 1812.000 1064.000 1811.891 1037.000 L 1811.783 1010.000 1780.891 995.339 C 1761.108 985.950,1742.840 973.448,1730.089 960.568 C 1706.880 937.127,1680.000 894.603,1680.000 881.329 C 1680.000 871.844,1682.448 870.364,1728.921 851.756 L 1747.841 844.179 1758.600 866.152 C 1772.025 893.569,1805.383 925.789,1826.381 931.619 C 1879.253 946.299,1935.863 920.321,1942.134 878.500 C 1949.443 829.760,1928.518 809.141,1832.000 769.981 C 1753.118 737.977,1724.904 716.416,1704.993 672.924 C 1696.657 654.716,1695.399 646.846,1696.651 620.741 C 1699.268 566.166,1725.049 530.270,1781.749 502.254 L 1812.000 487.307 1812.000 461.653 L 1812.000 436.000 1852.000 436.000 L 1892.000 436.000 1892.000 462.220 M100.000 1650.000 L 100.000 2200.000 300.000 2200.000 L 500.000 2200.000 500.000 1650.000 L 500.000 1100.000 300.000 1100.000 L 100.000 1100.000 100.000 1650.000 M700.000 1551.116 L 700.000 2002.232 1049.963 2101.089 L 1399.926 2199.946 1742.076 2071.902 C 2089.248 1941.978,2177.712 1907.995,2192.034 1899.050 C 2196.415 1896.314,2200.000 1890.198,2200.000 1885.459 C 2200.000 1873.068,2184.662 1825.109,2173.886 1803.806 C 2161.651 1779.620,2116.132 1737.323,2083.958 1720.244 L 2058.045 1706.489 1924.023 1703.515 C 1850.310 1701.879,1678.072 1700.419,1541.272 1700.270 L 1292.544 1700.000 1215.297 1671.847 C 1172.811 1656.362,1128.535 1639.338,1116.907 1634.014 C 1092.832 1622.992,1093.243 1627.176,1110.709 1571.000 C 1118.202 1546.901,1122.004 1540.000,1127.787 1540.000 C 1136.355 1540.000,1195.159 1560.085,1255.774 1583.715 L 1297.548 1600.000 1453.774 1599.962 L 1610.000 1599.925 1630.388 1588.231 C 1676.305 1561.895,1704.483 1511.955,1697.986 1468.426 C 1694.221 1443.198,1676.801 1409.018,1661.928 1397.674 C 1636.045 1377.932,1578.519 1355.184,1142.756 1192.375 L 895.513 1100.000 797.756 1100.000 L 700.000 1100.000 700.000 1551.116 " fill="#1D1E23" stroke="none" fill-rule="evenodd"/></svg>