<svg viewBox="0 0 2400 2400" fill="none" xmlns="http://www.w3.org/2000/svg"><path d="M1790.000 304.509 C 1624.441 325.189,1477.973 446.219,1424.190 606.786 C 1361.881 792.809,1426.173 994.881,1585.396 1113.458 C 1656.186 1166.177,1759.513 1199.953,1850.000 1199.953 C 2040.951 1199.953,2215.082 1074.515,2275.810 893.214 C 2298.797 824.587,2304.863 754.575,2294.042 682.786 C 2257.561 440.756,2035.205 273.881,1790.000 304.509 M1892.000 464.000 C 1892.000 479.400,1893.732 492.000,1895.850 492.000 C 1910.695 492.000,1947.228 511.410,1967.220 529.920 C 1988.794 549.894,2011.735 585.599,2006.413 590.920 C 2003.306 594.027,1943.633 620.000,1939.602 620.000 C 1937.917 620.000,1935.393 616.390,1933.993 611.978 C 1929.737 598.569,1911.919 580.128,1894.497 571.104 C 1872.218 559.563,1832.420 559.526,1809.989 571.025 C 1785.313 583.675,1775.116 596.889,1773.069 618.869 C 1769.601 656.101,1791.459 673.819,1881.006 706.366 C 1939.329 727.563,1966.973 743.465,1990.224 769.193 C 2013.792 795.271,2024.000 823.926,2024.000 864.000 C 2024.000 923.332,1999.428 963.726,1947.548 989.681 C 1932.088 997.415,1913.266 1004.901,1905.720 1006.316 L 1892.000 1008.890 1892.000 1036.445 L 1892.000 1064.000 1852.000 1064.000 L 1812.000 1064.000 1812.000 1036.632 L 1812.000 1009.264 1783.601 998.122 C 1745.155 983.038,1709.467 949.822,1690.089 911.087 C 1682.340 895.598,1676.000 880.662,1676.000 877.897 C 1676.000 875.131,1683.650 869.789,1693.000 866.024 C 1702.350 862.260,1718.483 855.817,1728.851 851.707 L 1747.703 844.234 1759.924 869.841 C 1773.890 899.104,1801.145 925.718,1823.509 931.930 C 1857.148 941.274,1899.140 934.939,1920.019 917.370 C 1937.223 902.894,1944.000 887.719,1944.000 863.671 C 1944.000 837.430,1934.033 820.677,1908.886 804.653 C 1890.958 793.228,1880.960 788.871,1806.648 760.099 C 1744.944 736.208,1710.852 704.644,1698.248 659.738 C 1690.058 630.554,1690.363 618.143,1700.041 586.808 C 1713.054 544.678,1750.512 508.744,1795.000 495.713 L 1812.000 490.734 1812.000 463.367 L 1812.000 436.000 1852.000 436.000 L 1892.000 436.000 1892.000 464.000 M100.000 1650.000 L 100.000 2200.000 300.000 2200.000 L 500.000 2200.000 500.000 1650.000 L 500.000 1100.000 300.000 1100.000 L 100.000 1100.000 100.000 1650.000 M700.005 1551.000 L 700.010 2002.000 1049.965 2100.949 L 1399.920 2199.899 1796.960 2051.411 C 2015.332 1969.742,2195.715 1901.359,2197.812 1899.449 C 2204.127 1893.695,2192.988 1840.278,2179.856 1813.340 C 2157.775 1768.048,2114.933 1729.810,2064.995 1710.822 C 2042.098 1702.117,2040.390 1702.070,1664.000 1699.866 L 1286.000 1697.653 1190.673 1663.167 C 1138.244 1644.199,1094.607 1627.940,1093.703 1627.037 C 1091.880 1625.214,1117.310 1547.845,1122.636 1539.011 C 1125.347 1534.513,1142.684 1539.875,1212.000 1566.652 L 1298.000 1599.874 1456.000 1598.937 L 1614.000 1598.000 1634.000 1587.357 C 1657.956 1574.609,1675.851 1556.395,1688.388 1532.000 C 1701.262 1506.950,1701.574 1457.511,1689.010 1433.534 C 1676.638 1409.921,1661.596 1393.271,1642.578 1382.136 C 1633.460 1376.797,1461.752 1311.132,1261.004 1236.214 L 896.007 1100.000 798.004 1100.000 L 700.000 1100.000 700.005 1551.000 " fill="#1D1E23" stroke="none" fill-rule="evenodd"/></svg>