<svg viewBox="0 0 2400 2400" fill="none" xmlns="http://www.w3.org/2000/svg"><path d="M1090.000 207.942 C 991.874 215.868,856.495 255.676,755.433 306.322 C 548.359 410.095,373.025 594.133,284.353 800.785 C 173.297 1059.606,173.317 1340.056,284.412 1599.295 C 373.585 1807.379,555.065 1996.818,762.000 2097.827 C 856.626 2144.016,946.827 2172.076,1054.000 2188.662 C 1128.208 2200.147,1262.957 2201.060,1332.000 2190.546 C 1560.948 2155.683,1749.312 2061.714,1907.446 1903.473 C 1985.715 1825.152,2041.508 1747.680,2091.434 1648.000 C 2139.550 1551.931,2170.494 1456.514,2188.725 1348.000 C 2199.868 1281.673,2200.807 1120.264,2190.413 1058.000 C 2160.055 876.160,2087.592 711.587,1977.301 574.000 C 1935.504 521.859,1852.891 441.941,1800.000 402.484 C 1720.106 342.882,1622.561 291.034,1529.427 258.667 C 1470.401 238.154,1383.320 217.166,1337.699 212.459 C 1282.038 206.715,1137.763 204.085,1090.000 207.942 M1021.257 808.105 C 1074.755 814.234,1124.617 837.557,1176.460 880.701 L 1199.880 900.192 1229.993 876.262 C 1266.229 847.467,1303.912 825.867,1337.303 814.751 C 1358.048 807.846,1372.242 806.518,1426.000 806.454 C 1486.199 806.382,1491.632 807.020,1517.478 817.189 C 1596.310 848.208,1651.308 903.158,1682.956 982.522 C 1693.300 1008.463,1693.913 1013.580,1693.899 1074.000 C 1693.884 1147.604,1690.389 1163.394,1661.204 1221.718 C 1609.769 1324.507,1532.582 1412.925,1339.702 1590.000 C 1203.290 1715.234,1204.964 1713.868,1194.718 1708.384 C 1156.365 1687.858,870.672 1410.842,810.670 1336.000 C 759.122 1271.703,721.664 1198.752,709.583 1139.130 C 700.588 1094.739,703.631 1020.316,715.869 985.353 C 739.743 917.146,793.424 858.855,863.322 825.235 C 905.911 804.751,950.125 799.955,1021.257 808.105 " fill="#1D1E23" stroke="none" fill-rule="evenodd"/></svg>