<svg viewBox="0 0 2400 2400" fill="none" xmlns="http://www.w3.org/2000/svg"><path d="M1064.000 209.588 C 840.786 243.783,646.242 341.428,491.369 497.001 C 337.293 651.774,243.684 839.954,209.320 1064.000 C 199.513 1127.944,199.492 1271.819,209.281 1336.000 C 243.636 1561.251,337.128 1747.885,494.559 1905.489 C 702.194 2113.351,973.028 2215.373,1267.364 2196.602 C 1455.818 2184.583,1643.099 2115.706,1794.116 2002.877 C 2012.010 1840.082,2149.028 1609.685,2190.709 1336.000 C 2200.602 1271.037,2200.560 1123.474,2190.630 1060.812 C 2155.212 837.316,2057.243 643.650,1901.730 489.709 C 1758.133 347.564,1578.721 255.363,1368.000 215.424 C 1313.536 205.101,1117.814 201.344,1064.000 209.588 M1213.449 560.477 C 1225.510 565.972,1240.423 597.296,1325.579 796.000 C 1359.992 876.300,1389.493 944.122,1391.135 946.716 C 1394.190 951.541,1560.503 969.256,1726.000 982.385 C 1809.698 989.025,1810.040 989.090,1821.000 1000.588 C 1827.807 1007.728,1832.000 1016.538,1832.000 1023.700 C 1832.000 1038.256,1822.275 1047.652,1668.000 1182.161 C 1603.100 1238.746,1541.351 1293.073,1530.779 1302.888 L 1511.559 1320.733 1549.461 1485.367 C 1608.343 1741.125,1606.203 1729.480,1597.181 1744.986 C 1587.391 1761.812,1574.094 1763.384,1546.950 1750.924 C 1535.428 1745.635,1454.900 1698.826,1368.000 1646.905 C 1281.100 1594.983,1207.281 1551.462,1203.958 1550.190 C 1200.310 1548.795,1131.492 1587.503,1030.341 1647.844 C 938.175 1702.825,855.177 1750.708,845.901 1754.251 C 823.054 1762.976,811.925 1760.610,802.897 1745.107 C 793.946 1729.737,791.373 1744.733,838.087 1540.000 C 856.409 1459.700,874.572 1377.414,878.449 1357.142 C 885.340 1321.103,885.325 1320.092,877.748 1311.652 C 873.487 1306.904,810.600 1251.528,738.000 1188.594 C 578.133 1050.012,568.000 1040.245,568.000 1024.730 C 568.000 1008.852,581.575 992.761,597.173 990.151 C 604.228 988.971,698.200 980.645,806.000 971.648 C 928.567 961.420,1003.736 953.551,1006.633 950.646 C 1009.181 948.091,1039.531 879.400,1074.078 798.000 C 1179.984 548.463,1181.481 545.911,1213.449 560.477 " fill="#1D1E23" stroke="none" fill-rule="evenodd"/></svg>