<svg viewBox="0 0 2400 2400" fill="none" xmlns="http://www.w3.org/2000/svg"><path fill-rule="evenodd" d="M1128.38 236.088C1154.82 266.605 1178.77 300.377 1200 334.91 1221.24 300.377 1245.19 266.606 1271.63 236.089 1312.29 189.155 1364.29 143.556 1427.64 118.796 1494.85 92.529 1570.16 91.861 1644.72 129.143 1781.62 197.6 1851.53 359.333 1778.51 499.997H1950C2032.84 499.997 2100 567.155 2100 649.997 2100 732.84 2032.84 799.997 1950 799.997H450C367.157 799.997 300 732.84 300 649.997 300 567.155 367.157 499.997 450 499.997H621.492C548.469 359.334 618.376 197.6 755.283 129.143 829.842 91.861 905.15 92.529 972.361 118.796 1035.72 143.555 1087.71 189.154 1128.38 236.088ZM802.874 414.516C821.174 442.983 887.611 494.297 1055.69 485.589 1033.66 443.572 1006.95 401.369 977.22 367.052 947.983 333.307 921.281 313.564 899.561 305.076 881.699 298.095 865.562 297.61 844.729 308.027 789.057 335.864 783.924 385.037 802.874 414.516ZM1422.78 367.051C1393.05 401.368 1366.34 443.571 1344.31 485.589 1512.39 494.297 1578.83 442.983 1597.13 414.517 1616.08 385.039 1610.94 335.865 1555.27 308.027 1534.44 297.61 1518.3 298.095 1500.44 305.076 1478.72 313.563 1452.02 333.306 1422.78 367.051ZM1920 900H1470 930 480C381 900 300 978 300 1073.33V2026.67C300 2122 381 2200 480 2200H1920C2019 2200 2100 2122 2100 2026.67V1073.33C2100 978 2019 900 1920 900ZM1300 1100H1100V2000H1300V1100Z" fill="#1D1E23"/></svg>