<svg viewBox="0 0 2400 2400" fill="none" xmlns="http://www.w3.org/2000/svg"><path d="M1042.964 213.985 C 785.483 255.850,554.189 397.884,393.846 612.600 C 258.993 793.181,186.155 1040.744,203.073 1261.000 C 221.109 1495.800,304.210 1693.348,456.832 1864.234 C 664.198 2096.416,958.375 2216.627,1268.794 2196.032 C 1421.114 2185.925,1582.269 2134.993,1716.000 2054.692 C 1808.534 1999.129,1932.708 1887.045,1997.113 1800.947 C 2087.619 1679.956,2150.712 1536.716,2182.427 1380.228 C 2202.428 1281.538,2202.328 1109.486,2182.215 1014.456 C 2148.661 855.920,2084.895 716.049,1987.208 586.701 C 1956.126 545.546,1860.775 450.143,1816.000 415.400 C 1718.697 339.899,1592.383 275.250,1480.627 243.753 C 1374.791 213.925,1354.440 211.369,1210.000 209.759 C 1109.029 208.634,1069.764 209.628,1042.964 213.985 M1216.530 564.530 C 1227.370 575.370,1253.783 631.269,1319.286 782.000 C 1347.968 848.000,1375.960 912.170,1381.490 924.600 L 1391.546 947.201 1418.773 951.618 C 1458.950 958.136,1537.957 966.645,1644.000 975.874 C 1790.484 988.623,1808.622 991.189,1818.614 1000.577 C 1831.786 1012.952,1833.644 1026.456,1824.031 1039.956 C 1819.508 1046.308,1748.142 1111.351,1665.440 1184.495 L 1515.073 1317.485 1517.531 1337.742 C 1518.883 1348.884,1531.639 1408.400,1545.877 1470.000 C 1560.115 1531.600,1578.486 1614.790,1586.701 1654.867 C 1603.061 1734.674,1602.716 1744.801,1583.260 1755.722 C 1573.163 1761.389,1570.739 1760.746,1535.313 1743.014 C 1514.791 1732.741,1456.600 1699.783,1406.000 1669.773 C 1287.251 1599.346,1205.054 1552.000,1201.535 1552.000 C 1196.981 1552.000,1117.368 1597.059,998.751 1666.769 C 877.558 1737.994,836.403 1760.000,824.390 1760.000 C 814.706 1760.000,800.000 1741.962,800.000 1730.085 C 800.000 1717.934,817.902 1631.171,853.743 1469.619 C 870.384 1394.609,884.000 1329.483,884.000 1324.893 C 884.000 1318.940,848.164 1285.241,759.000 1207.349 C 613.373 1080.132,568.000 1036.778,568.000 1024.848 C 568.000 1011.692,584.321 995.945,602.000 992.044 C 610.800 990.102,672.000 983.844,738.000 978.137 C 871.906 966.557,970.587 957.080,992.591 953.686 C 1009.483 951.080,1001.464 966.663,1082.103 779.723 C 1177.728 558.041,1190.152 538.152,1216.530 564.530 " fill="#1D1E23" stroke="none" fill-rule="evenodd"/></svg>