<svg viewBox="0 0 2400 2400" fill="none" xmlns="http://www.w3.org/2000/svg"><path fill-rule="evenodd" d="M200 1200C200 648 647 200 1199 200C1752 200 2200 648 2200 1200C2200 1752 1752 2200 1199 2200C647 2200 200 1752 200 1200ZM1127.5 1651.5L1200 1717.5L1272.5 1652L1274.47 1650.21C1530.87 1417.21 1700 1263.52 1700 1075C1700 921 1579 800 1425 800C1338 800 1254.5 840.5 1200 904.5C1145.5 840.5 1062 800 975 800C821 800 700 921 700 1075C700 1263.84 869.721 1417.75 1126.87 1650.93L1127.5 1651.5Z" fill="#1D1E23"/></svg>