<svg viewBox="0 0 2400 2400" fill="none" xmlns="http://www.w3.org/2000/svg"><path d="M1764.342 306.868 C 1729.056 319.332,1700.000 361.388,1700.000 400.000 C 1700.000 424.160,1711.933 452.144,1729.895 470.105 C 1760.105 500.316,1757.251 500.000,2000.000 500.000 C 2242.749 500.000,2239.895 500.316,2270.105 470.105 C 2288.067 452.144,2300.000 424.160,2300.000 400.000 C 2300.000 375.840,2288.067 347.856,2270.105 329.895 C 2239.820 299.609,2243.028 299.958,1998.287 300.316 C 1813.160 300.586,1779.456 301.530,1764.342 306.868 M762.000 702.226 C 757.600 703.245,744.180 706.073,732.178 708.510 C 683.549 718.385,625.474 751.053,586.773 790.301 C 501.598 876.680,477.199 1001.656,523.365 1115.098 C 552.108 1185.729,614.271 1247.892,684.902 1276.635 C 853.166 1345.111,1038.641 1253.752,1088.625 1077.774 C 1101.302 1033.140,1101.302 966.860,1088.625 922.226 C 1073.307 868.298,1051.136 830.840,1010.160 789.659 C 979.731 759.078,967.978 750.339,936.000 734.517 C 915.100 724.176,888.100 713.024,876.000 709.734 C 854.067 703.772,777.191 698.709,762.000 702.226 M1562.000 702.226 C 1557.600 703.245,1544.180 706.073,1532.178 708.510 C 1483.549 718.385,1425.474 751.053,1386.773 790.301 C 1301.598 876.680,1277.199 1001.656,1323.365 1115.098 C 1352.108 1185.729,1414.271 1247.892,1484.902 1276.635 C 1653.166 1345.111,1838.641 1253.752,1888.625 1077.774 C 1901.302 1033.140,1901.302 966.860,1888.625 922.226 C 1873.307 868.298,1851.136 830.840,1810.160 789.659 C 1779.731 759.078,1767.978 750.339,1736.000 734.517 C 1715.100 724.176,1688.100 713.024,1676.000 709.734 C 1654.067 703.772,1577.191 698.709,1562.000 702.226 M717.152 1504.087 C 596.396 1515.824,457.036 1549.242,356.655 1590.531 C 213.648 1649.354,123.596 1728.397,104.341 1812.000 C 102.061 1821.900,100.152 1871.529,100.098 1922.287 C 99.984 2029.259,102.746 2042.956,129.895 2070.105 C 162.127 2102.338,109.722 2100.000,800.000 2100.000 C 1490.278 2100.000,1437.873 2102.338,1470.105 2070.105 C 1497.254 2042.956,1500.016 2029.259,1499.902 1922.287 C 1499.848 1871.529,1497.939 1821.900,1495.659 1812.000 C 1476.872 1730.429,1389.714 1652.405,1252.000 1593.875 C 1172.253 1559.982,1050.192 1527.366,946.000 1512.108 C 881.658 1502.686,771.347 1498.820,717.152 1504.087 M1528.260 1503.394 L 1502.521 1506.000 1525.886 1523.601 C 1607.627 1585.181,1666.902 1672.568,1691.017 1767.051 C 1701.298 1807.332,1701.285 2034.465,1691.000 2070.577 C 1687.150 2084.095,1684.000 2096.245,1684.000 2097.577 C 1684.000 2098.910,1803.379 2100.000,1949.287 2100.000 C 2248.644 2100.000,2239.344 2100.867,2270.105 2070.105 C 2297.254 2042.956,2300.016 2029.259,2299.902 1922.287 C 2299.848 1871.529,2297.939 1821.900,2295.659 1812.000 C 2276.872 1730.429,2189.714 1652.405,2052.000 1593.875 C 1972.253 1559.982,1850.192 1527.366,1746.000 1512.108 C 1686.975 1503.465,1572.722 1498.892,1528.260 1503.394 " fill="#1D1E23" stroke="none" fill-rule="evenodd"/></svg>