<svg viewBox="0 0 2400 2400" fill="none" xmlns="http://www.w3.org/2000/svg"><path d="M937.798 405.695 C 834.549 425.000,750.378 473.866,689.525 549.832 C 561.483 709.673,573.578 938.158,717.710 1082.290 C 803.139 1167.719,921.336 1209.307,1043.000 1196.745 C 1195.671 1180.982,1329.146 1073.772,1377.587 928.000 C 1411.984 824.488,1404.680 719.398,1356.318 622.000 C 1309.412 527.533,1226.548 455.970,1122.698 420.240 C 1077.618 404.730,982.836 397.274,937.798 405.695 M1804.000 1002.565 C 1764.253 1005.148,1755.834 1007.988,1737.304 1025.069 C 1703.287 1056.424,1691.710 1098.106,1707.256 1133.251 C 1719.682 1161.341,1734.615 1178.599,1755.321 1188.799 L 1774.000 1198.000 2000.000 1198.000 L 2226.000 1198.000 2244.679 1188.799 C 2275.020 1173.853,2299.781 1134.016,2299.873 1100.000 C 2299.970 1064.047,2268.425 1017.627,2237.076 1007.592 C 2226.297 1004.142,2165.563 1002.534,2024.000 1001.951 C 1915.100 1001.502,1816.100 1001.779,1804.000 1002.565 M940.000 1402.485 C 805.102 1412.074,622.091 1452.046,512.000 1495.967 C 352.601 1559.558,239.134 1650.163,211.399 1736.000 C 200.827 1768.721,196.132 1884.099,203.858 1921.318 C 210.712 1954.330,235.075 1983.804,262.212 1991.913 C 292.073 2000.835,1707.927 2000.835,1737.788 1991.913 C 1753.414 1987.244,1761.125 1981.639,1774.449 1965.266 C 1797.846 1936.515,1801.517 1916.000,1799.011 1828.000 C 1796.758 1748.909,1792.716 1732.971,1763.356 1687.417 C 1704.541 1596.159,1560.740 1511.680,1373.207 1458.214 C 1311.417 1440.598,1200.801 1418.251,1136.000 1410.293 C 1084.350 1403.950,978.635 1399.739,940.000 1402.485 " fill="#1D1E23" stroke="none" fill-rule="evenodd"/></svg>