<svg viewBox="0 0 2400 2400" fill="none" xmlns="http://www.w3.org/2000/svg"><path d="M937.798 405.695 C 834.549 425.000,750.378 473.866,689.525 549.832 C 561.483 709.673,573.578 938.158,717.710 1082.290 C 803.139 1167.719,921.336 1209.307,1043.000 1196.745 C 1195.671 1180.982,1329.146 1073.772,1377.587 928.000 C 1411.984 824.488,1404.680 719.398,1356.318 622.000 C 1309.412 527.533,1226.548 455.970,1122.698 420.240 C 1077.618 404.730,982.836 397.274,937.798 405.695 M1700.000 1100.000 L 1700.000 1200.000 2000.000 1200.000 L 2300.000 1200.000 2300.000 1100.000 L 2300.000 1000.000 2000.000 1000.000 L 1700.000 1000.000 1700.000 1100.000 M940.000 1402.485 C 762.428 1415.107,562.924 1466.237,429.207 1533.394 C 296.039 1600.275,217.834 1681.808,204.179 1768.000 C 201.914 1782.300,200.047 1840.350,200.030 1897.000 L 200.000 2000.000 1000.428 2000.000 L 1800.856 2000.000 1799.124 1879.000 C 1797.508 1765.997,1796.810 1756.507,1788.565 1735.417 C 1751.814 1641.402,1648.264 1559.699,1483.328 1494.578 C 1394.875 1459.654,1248.287 1424.082,1136.000 1410.293 C 1084.350 1403.950,978.635 1399.739,940.000 1402.485 " fill="#1D1E23" stroke="none" fill-rule="evenodd"/></svg>