<svg viewBox="0 0 2400 2400" fill="none" xmlns="http://www.w3.org/2000/svg"><path d="M922.000 408.476 C 831.016 432.250,768.241 467.518,711.896 526.515 C 660.860 579.954,625.536 646.124,609.675 718.000 C 598.587 768.245,600.103 847.376,613.093 896.476 C 651.652 1042.211,757.617 1148.278,903.177 1186.834 C 956.600 1200.985,1036.834 1201.835,1089.228 1188.803 C 1165.937 1169.725,1230.999 1132.560,1284.301 1077.373 C 1362.463 996.447,1397.551 909.102,1397.332 796.000 C 1397.225 740.574,1389.948 704.239,1367.895 649.021 C 1332.715 560.938,1262.580 486.581,1172.422 441.782 C 1116.698 414.093,1086.271 407.509,1006.000 405.769 C 966.402 404.910,931.317 406.041,922.000 408.476 M1700.000 1100.000 L 1700.000 1200.000 2000.000 1200.000 L 2300.000 1200.000 2300.000 1100.000 L 2300.000 1000.000 2000.000 1000.000 L 1700.000 1000.000 1700.000 1100.000 M866.000 1410.103 C 728.535 1427.986,577.790 1467.347,475.891 1511.965 C 333.034 1574.517,238.969 1655.460,211.225 1739.711 C 203.340 1763.658,202.422 1776.422,200.924 1883.000 L 199.280 2000.000 1000.162 2000.000 L 1801.044 2000.000 1799.069 1879.000 C 1797.235 1766.560,1796.472 1756.377,1788.282 1735.058 C 1746.228 1625.588,1593.194 1522.133,1384.693 1462.222 C 1295.428 1436.573,1189.037 1415.674,1109.171 1408.101 C 1050.938 1402.578,915.254 1403.696,866.000 1410.103 " fill="#1D1E23" stroke="none" fill-rule="evenodd"/></svg>