<svg viewBox="0 0 2400 2400" fill="none" xmlns="http://www.w3.org/2000/svg"><path d="M1804.000 302.565 C 1764.253 305.148,1755.834 307.988,1737.304 325.069 C 1703.287 356.424,1691.710 398.106,1707.256 433.251 C 1719.682 461.341,1734.615 478.599,1755.321 488.799 L 1774.000 498.000 2000.000 498.000 L 2226.000 498.000 2244.679 488.799 C 2275.020 473.853,2299.781 434.016,2299.873 400.000 C 2299.970 364.047,2268.425 317.627,2237.076 307.592 C 2226.297 304.142,2165.563 302.534,2024.000 301.951 C 1915.100 301.502,1816.100 301.779,1804.000 302.565 M729.621 709.646 C 573.478 750.670,476.363 899.759,505.747 1053.334 C 525.080 1154.379,595.023 1240.252,688.000 1277.097 C 847.140 1340.160,1023.663 1260.533,1080.447 1100.068 C 1133.122 951.215,1061.945 788.305,916.983 725.929 C 879.789 709.925,858.715 705.520,804.000 702.314 C 771.973 700.438,760.281 701.590,729.621 709.646 M1529.621 709.646 C 1373.478 750.670,1276.363 899.759,1305.747 1053.334 C 1325.080 1154.379,1395.023 1240.252,1488.000 1277.097 C 1647.140 1340.160,1823.663 1260.533,1880.447 1100.068 C 1933.122 951.215,1861.945 788.305,1716.983 725.929 C 1679.789 709.925,1658.715 705.520,1604.000 702.314 C 1571.973 700.438,1560.281 701.590,1529.621 709.646 M692.000 1506.566 C 533.603 1526.581,362.923 1578.064,265.053 1635.348 C 190.085 1679.228,142.252 1725.752,116.333 1780.000 L 102.000 1810.000 102.000 1912.000 C 102.000 1968.100,103.394 2020.548,105.097 2028.552 C 108.956 2046.684,132.403 2077.934,148.325 2086.168 C 154.914 2089.575,178.686 2094.021,201.152 2096.047 C 223.687 2098.079,492.166 2099.731,800.000 2099.731 C 1107.834 2099.731,1376.313 2098.079,1398.848 2096.047 C 1421.314 2094.021,1445.086 2089.575,1451.675 2086.168 C 1467.597 2077.934,1491.044 2046.684,1494.903 2028.552 C 1496.606 2020.548,1498.000 1967.960,1498.000 1911.688 L 1498.000 1809.377 1480.806 1774.687 C 1422.156 1656.362,1233.953 1561.374,967.629 1515.682 C 927.390 1508.778,897.945 1506.943,812.000 1505.982 C 753.700 1505.330,699.700 1505.593,692.000 1506.566 M1517.840 1516.795 C 1609.943 1593.576,1653.658 1653.417,1683.819 1744.000 C 1690.637 1764.478,1693.252 1785.895,1696.129 1844.840 C 1700.025 1924.634,1695.633 2055.710,1688.251 2079.974 C 1685.913 2087.659,1684.000 2095.412,1684.000 2097.203 C 1684.000 2098.993,1805.950 2099.905,1955.000 2099.229 L 2226.000 2098.000 2245.142 2088.575 C 2267.383 2077.623,2290.357 2049.912,2294.903 2028.552 C 2296.606 2020.548,2298.000 1967.960,2298.000 1911.688 L 2298.000 1809.377 2280.806 1774.687 C 2222.156 1656.361,2033.232 1561.028,1767.629 1515.733 C 1728.469 1509.055,1695.217 1506.881,1610.000 1505.430 L 1502.000 1503.590 1517.840 1516.795 " fill="#1D1E23" stroke="none" fill-rule="evenodd"/></svg>