<svg viewBox="0 0 2400 2400" fill="none" xmlns="http://www.w3.org/2000/svg"><path d="M1757.777 311.545 C 1728.326 324.922,1700.000 368.288,1700.000 400.000 C 1700.000 432.102,1731.014 478.481,1761.845 492.486 C 1776.883 499.317,1793.295 499.830,1999.128 499.912 C 2243.677 500.009,2233.575 501.011,2263.848 473.662 C 2308.348 433.459,2310.680 378.091,2269.791 332.612 C 2256.617 317.959,2247.624 311.848,2234.301 308.493 C 2222.146 305.433,2145.925 304.028,1995.229 304.088 C 1788.964 304.170,1772.903 304.674,1757.777 311.545 M718.000 713.518 C 614.679 747.321,542.627 819.346,511.439 920.000 C 499.474 958.617,498.558 1031.782,509.540 1071.769 C 560.685 1257.995,760.067 1351.071,930.000 1268.048 C 1033.855 1217.308,1096.000 1116.917,1096.000 999.887 C 1096.000 882.041,1033.443 783.251,926.000 731.420 C 884.333 711.320,848.793 704.113,792.000 704.248 C 755.085 704.336,740.470 706.167,718.000 713.518 M1518.000 713.518 C 1414.679 747.321,1342.627 819.346,1311.439 920.000 C 1299.474 958.617,1298.558 1031.782,1309.540 1071.769 C 1360.685 1257.995,1560.067 1351.071,1730.000 1268.048 C 1833.855 1217.308,1896.000 1116.917,1896.000 999.887 C 1896.000 882.041,1833.443 783.251,1726.000 731.420 C 1684.333 711.320,1648.793 704.113,1592.000 704.248 C 1555.085 704.336,1540.470 706.167,1518.000 713.518 M1520.280 1518.622 C 1554.200 1546.612,1614.284 1610.170,1631.243 1636.000 C 1668.582 1692.871,1686.550 1740.897,1692.601 1800.000 C 1697.640 1849.222,1694.646 2053.972,1688.539 2077.779 C 1686.312 2086.458,1685.387 2095.008,1686.482 2096.779 C 1687.576 2098.551,1808.124 2100.000,1954.365 2100.000 C 2250.012 2100.000,2233.562 2101.473,2265.378 2072.146 C 2295.616 2044.274,2296.194 2041.656,2298.865 1920.496 L 2301.229 1813.256 2283.615 1779.628 C 2262.233 1738.808,2209.787 1683.719,2164.000 1653.987 C 2076.645 1597.261,1947.827 1550.532,1800.000 1521.946 C 1745.923 1511.488,1643.848 1504.368,1544.280 1504.109 L 1502.560 1504.000 1520.280 1518.622 M618.000 1518.290 C 347.787 1570.354,177.340 1659.385,116.056 1780.473 L 99.087 1814.000 101.289 1920.659 C 103.727 2038.791,104.626 2043.129,132.872 2073.079 C 157.392 2099.077,128.556 2098.000,800.000 2098.000 C 1471.444 2098.000,1442.608 2099.077,1467.128 2073.079 C 1495.351 2043.153,1496.257 2038.793,1498.870 1920.288 L 1501.229 1813.256 1483.615 1780.088 C 1449.056 1715.013,1388.509 1662.173,1296.202 1616.528 C 1214.813 1576.283,1133.025 1549.437,1018.000 1525.212 L 950.000 1510.891 810.000 1509.581 C 674.279 1508.311,668.411 1508.577,618.000 1518.290 " fill="#1D1E23" stroke="none" fill-rule="evenodd"/></svg>