<svg viewBox="0 0 2400 2400" fill="none" xmlns="http://www.w3.org/2000/svg"><path d="M954.000 402.416 C 784.744 427.496,657.645 537.837,613.184 698.294 C 603.362 733.740,602.182 744.651,602.182 800.000 C 602.182 855.127,603.383 866.333,613.020 901.089 C 652.609 1043.874,756.126 1147.391,898.911 1186.980 C 933.667 1196.617,944.873 1197.818,1000.000 1197.818 C 1055.349 1197.818,1066.260 1196.638,1101.706 1186.816 C 1225.614 1152.482,1325.213 1064.324,1371.512 948.000 C 1440.036 775.840,1378.958 574.514,1226.871 471.233 C 1191.681 447.336,1134.311 421.411,1095.826 412.015 C 1062.970 403.992,980.862 398.435,954.000 402.416 M1764.342 1006.868 C 1729.056 1019.332,1700.000 1061.388,1700.000 1100.000 C 1700.000 1124.160,1711.933 1152.144,1729.895 1170.105 C 1760.105 1200.316,1757.251 1200.000,2000.000 1200.000 C 2242.749 1200.000,2239.895 1200.316,2270.105 1170.105 C 2288.067 1152.144,2300.000 1124.160,2300.000 1100.000 C 2300.000 1075.840,2288.067 1047.856,2270.105 1029.895 C 2239.820 999.609,2243.028 999.958,1998.287 1000.316 C 1813.160 1000.586,1779.456 1001.530,1764.342 1006.868 M912.000 1404.426 C 784.040 1415.627,623.275 1452.089,514.944 1494.479 C 409.014 1535.931,331.948 1582.662,275.915 1639.421 C 213.070 1703.080,200.000 1738.668,200.000 1846.128 C 200.000 1926.915,204.225 1944.435,229.895 1970.105 C 262.298 2002.508,197.685 2000.000,1000.000 2000.000 C 1802.518 2000.000,1737.686 2002.524,1770.196 1970.014 C 1797.380 1942.830,1801.021 1925.838,1799.156 1834.866 C 1797.687 1763.221,1796.862 1756.173,1787.007 1731.100 C 1736.320 1602.143,1547.438 1491.965,1278.000 1434.187 C 1136.833 1403.915,1023.306 1394.683,912.000 1404.426 " fill="#1D1E23" stroke="none" fill-rule="evenodd"/></svg>