<svg viewBox="0 0 2400 2400" fill="none" xmlns="http://www.w3.org/2000/svg"><path d="M954.000 402.416 C 784.744 427.496,657.645 537.837,613.184 698.294 C 603.362 733.740,602.182 744.651,602.182 800.000 C 602.182 855.127,603.383 866.333,613.020 901.089 C 652.609 1043.874,756.126 1147.391,898.911 1186.980 C 933.667 1196.617,944.873 1197.818,1000.000 1197.818 C 1055.349 1197.818,1066.260 1196.638,1101.706 1186.816 C 1225.614 1152.482,1325.213 1064.324,1371.512 948.000 C 1440.036 775.840,1378.958 574.514,1226.871 471.233 C 1191.681 447.336,1134.311 421.411,1095.826 412.015 C 1062.970 403.992,980.862 398.435,954.000 402.416 M1700.000 1100.000 L 1700.000 1200.000 2000.000 1200.000 L 2300.000 1200.000 2300.000 1100.000 L 2300.000 1000.000 2000.000 1000.000 L 1700.000 1000.000 1700.000 1100.000 M912.000 1404.426 C 784.040 1415.627,623.275 1452.089,514.944 1494.479 C 459.358 1516.231,394.499 1548.787,352.000 1576.269 C 301.326 1609.038,242.606 1668.201,225.088 1704.138 C 201.990 1751.524,200.000 1766.175,200.000 1888.840 L 200.000 2000.000 1000.264 2000.000 L 1800.528 2000.000 1799.190 1879.000 C 1797.858 1758.634,1797.795 1757.859,1787.143 1731.100 C 1735.641 1601.731,1547.403 1491.958,1278.000 1434.187 C 1136.833 1403.915,1023.306 1394.683,912.000 1404.426 " fill="#1D1E23" stroke="none" fill-rule="evenodd"/></svg>