<svg viewBox="0 0 2400 2400" fill="none" xmlns="http://www.w3.org/2000/svg"><path d="M1777.265 307.465 C 1749.964 311.029,1729.844 327.394,1713.000 359.738 C 1697.444 389.607,1696.624 406.604,1709.418 434.000 C 1721.092 458.996,1736.023 476.873,1755.169 488.778 L 1770.000 498.000 1998.000 498.000 C 2256.161 498.000,2241.444 499.764,2271.889 465.176 C 2307.931 424.231,2307.155 376.886,2269.715 332.390 C 2246.755 305.105,2257.168 306.211,2016.000 305.448 C 1896.100 305.068,1788.669 305.976,1777.265 307.465 M732.674 710.133 C 699.865 717.255,649.088 742.297,614.950 768.193 C 566.944 804.609,525.373 867.649,509.485 928.127 C 500.010 964.191,500.256 1037.330,509.969 1072.000 C 537.765 1171.219,610.797 1250.300,703.863 1281.954 C 747.582 1296.823,791.764 1301.893,831.287 1296.574 C 955.630 1279.840,1047.688 1202.588,1084.604 1084.000 C 1098.122 1040.574,1098.118 959.338,1084.595 916.141 C 1075.176 886.054,1059.308 852.154,1044.275 830.004 C 1017.792 790.984,955.983 742.837,908.000 723.852 C 860.357 705.001,783.884 699.018,732.674 710.133 M1532.674 710.133 C 1499.865 717.255,1449.088 742.297,1414.950 768.193 C 1366.944 804.609,1325.373 867.649,1309.485 928.127 C 1300.010 964.191,1300.256 1037.330,1309.969 1072.000 C 1337.765 1171.219,1410.797 1250.300,1503.863 1281.954 C 1547.582 1296.823,1591.764 1301.893,1631.287 1296.574 C 1755.630 1279.840,1847.688 1202.588,1884.604 1084.000 C 1898.122 1040.574,1898.118 959.338,1884.595 916.141 C 1875.176 886.054,1859.308 852.154,1844.275 830.004 C 1817.792 790.984,1755.983 742.837,1708.000 723.852 C 1660.357 705.001,1583.884 699.018,1532.674 710.133 M1522.437 1520.638 C 1533.197 1529.789,1556.159 1551.839,1573.464 1569.638 C 1654.859 1653.357,1684.771 1717.085,1692.852 1824.000 C 1697.267 1882.417,1692.415 2073.597,1686.132 2088.756 C 1683.919 2094.093,1686.132 2096.033,1696.666 2097.994 C 1704.000 2099.358,1826.100 2099.918,1968.000 2099.238 C 2209.314 2098.080,2226.960 2097.523,2240.841 2090.620 C 2261.034 2080.578,2286.416 2052.158,2291.928 2033.419 C 2294.452 2024.835,2297.502 1972.640,2298.807 1915.680 L 2301.150 1813.359 2286.528 1785.680 C 2227.857 1674.616,2091.801 1592.687,1878.582 1540.028 C 1843.062 1531.256,1795.100 1521.430,1772.000 1518.192 C 1721.268 1511.081,1610.863 1504.092,1548.437 1504.039 L 1502.874 1504.000 1522.437 1520.638 M659.964 1512.109 C 586.233 1520.313,439.742 1558.856,362.439 1590.390 C 231.026 1643.996,152.972 1706.309,109.897 1792.000 L 98.838 1814.000 101.056 1916.000 C 103.455 2026.342,105.554 2038.838,126.240 2065.959 C 145.726 2091.507,152.334 2092.779,284.000 2096.334 C 436.824 2100.459,1163.176 2100.459,1316.000 2096.334 C 1447.666 2092.779,1454.274 2091.507,1473.760 2065.959 C 1494.755 2038.434,1496.687 2026.677,1498.744 1914.000 L 1500.642 1810.000 1481.321 1776.228 C 1413.975 1658.513,1260.865 1577.176,1004.000 1522.662 C 962.064 1513.762,946.162 1512.717,824.000 1510.833 C 750.300 1509.696,676.484 1510.270,659.964 1512.109 " fill="#1D1E23" stroke="none" fill-rule="evenodd"/></svg>