<svg viewBox="0 0 2400 2400" fill="none" xmlns="http://www.w3.org/2000/svg"><path d="M922.000 408.476 C 831.016 432.250,768.241 467.518,711.896 526.515 C 660.860 579.954,625.536 646.124,609.675 718.000 C 598.587 768.245,600.103 847.376,613.093 896.476 C 651.652 1042.211,757.617 1148.278,903.177 1186.834 C 956.600 1200.985,1036.834 1201.835,1089.228 1188.803 C 1165.937 1169.725,1230.999 1132.560,1284.301 1077.373 C 1362.463 996.447,1397.551 909.102,1397.332 796.000 C 1397.225 740.574,1389.948 704.239,1367.895 649.021 C 1332.715 560.938,1262.580 486.581,1172.422 441.782 C 1116.698 414.093,1086.271 407.509,1006.000 405.769 C 966.402 404.910,931.317 406.041,922.000 408.476 M1757.777 1011.545 C 1728.326 1024.922,1700.000 1068.288,1700.000 1100.000 C 1700.000 1132.102,1731.014 1178.481,1761.845 1192.486 C 1776.883 1199.317,1793.295 1199.830,1999.128 1199.912 C 2243.677 1200.009,2233.575 1201.011,2263.848 1173.662 C 2308.348 1133.459,2310.680 1078.091,2269.791 1032.612 C 2256.617 1017.959,2247.624 1011.848,2234.301 1008.493 C 2222.146 1005.433,2145.925 1004.028,1995.229 1004.088 C 1788.964 1004.170,1772.903 1004.674,1757.777 1011.545 M868.000 1409.768 C 714.707 1431.770,575.019 1467.929,478.000 1510.720 C 350.483 1566.962,256.553 1641.436,221.611 1714.000 C 205.198 1748.085,198.467 1799.212,200.597 1873.603 C 201.890 1918.749,202.943 1924.423,214.050 1946.135 C 222.103 1961.877,231.836 1973.722,243.393 1981.845 L 260.685 1994.000 449.342 1996.600 C 696.045 2000.000,1311.757 1999.929,1550.000 1996.473 C 1761.032 1993.412,1752.507 1994.671,1775.733 1963.123 C 1797.514 1933.538,1801.380 1911.776,1799.013 1832.093 C 1797.394 1777.575,1795.226 1756.999,1789.253 1739.494 C 1755.443 1640.391,1635.558 1549.819,1450.000 1483.192 C 1376.356 1456.749,1272.072 1431.701,1160.184 1413.579 C 1106.324 1404.856,919.224 1402.415,868.000 1409.768 " fill="#1D1E23" stroke="none" fill-rule="evenodd"/></svg>