<svg viewBox="0 0 2400 2400" fill="none" xmlns="http://www.w3.org/2000/svg"><path d="M1828.000 307.640 C 1751.762 310.366,1741.785 314.032,1720.584 347.114 C 1703.513 373.751,1697.827 397.656,1703.567 418.650 C 1710.208 442.938,1731.691 472.068,1754.268 487.401 L 1774.000 500.802 1996.000 498.845 C 2154.633 497.447,2222.843 495.483,2234.966 491.966 C 2266.316 482.871,2297.180 438.200,2297.097 402.039 C 2297.011 364.640,2268.649 319.498,2240.818 312.466 C 2222.780 307.909,1919.620 304.365,1828.000 307.640 M744.515 708.233 C 662.864 722.830,574.653 789.322,535.216 866.000 C 510.119 914.795,504.000 940.816,504.000 998.737 C 504.000 1053.382,509.579 1079.851,530.403 1124.000 C 580.427 1230.059,684.227 1297.329,798.000 1297.422 C 911.943 1297.515,1017.133 1231.866,1066.072 1130.117 C 1087.518 1085.531,1093.539 1057.004,1093.539 1000.000 C 1093.539 941.577,1087.497 914.161,1063.833 865.219 C 1030.949 797.207,948.771 731.395,875.041 714.028 C 842.812 706.436,772.122 703.297,744.515 708.233 M1544.515 708.233 C 1462.864 722.830,1374.653 789.322,1335.216 866.000 C 1310.119 914.795,1304.000 940.816,1304.000 998.737 C 1304.000 1053.382,1309.579 1079.851,1330.403 1124.000 C 1380.427 1230.059,1484.227 1297.329,1598.000 1297.422 C 1711.943 1297.515,1817.133 1231.866,1866.072 1130.117 C 1887.518 1085.531,1893.539 1057.004,1893.539 1000.000 C 1893.539 941.577,1887.497 914.161,1863.833 865.219 C 1830.949 797.207,1748.771 731.395,1675.041 714.028 C 1642.812 706.436,1572.122 703.297,1544.515 708.233 M1552.072 1550.355 C 1605.597 1602.701,1632.827 1636.413,1653.563 1676.000 C 1686.438 1738.764,1692.483 1777.765,1692.001 1924.000 C 1691.794 1986.700,1690.253 2050.271,1688.577 2065.268 C 1685.836 2089.795,1686.298 2092.948,1693.178 2096.630 C 1698.245 2099.342,1789.422 2100.264,1963.413 2099.362 C 2219.884 2098.032,2226.368 2097.807,2241.791 2089.716 C 2262.468 2078.869,2287.725 2048.722,2292.344 2029.375 C 2294.363 2020.919,2297.182 1969.000,2298.610 1914.000 C 2301.175 1815.153,2301.099 1813.792,2292.039 1796.000 C 2269.241 1751.227,2228.864 1704.680,2182.218 1669.401 C 2114.502 1618.186,2001.730 1570.550,1876.000 1540.053 C 1781.511 1517.133,1720.983 1509.999,1581.338 1505.322 L 1503.355 1502.711 1552.072 1550.355 M612.000 1519.954 C 591.100 1523.915,551.500 1532.883,524.000 1539.883 C 302.750 1596.204,171.796 1674.541,113.526 1785.430 L 98.842 1813.374 101.124 1913.687 C 103.631 2023.848,106.548 2040.915,127.358 2067.189 C 145.364 2089.924,158.641 2092.452,280.000 2096.260 C 417.450 2100.572,1182.550 2100.572,1320.000 2096.260 C 1441.359 2092.452,1454.636 2089.924,1472.642 2067.189 C 1493.441 2040.928,1496.297 2023.982,1498.792 1912.000 L 1501.065 1810.000 1485.917 1784.000 C 1442.765 1709.932,1387.037 1662.260,1287.428 1614.203 C 1258.042 1600.026,1212.788 1581.178,1186.863 1572.319 C 1121.984 1550.150,1002.003 1520.570,958.255 1515.960 C 938.315 1513.858,860.800 1512.277,786.000 1512.446 C 672.695 1512.702,643.659 1513.955,612.000 1519.954 " fill="#1D1E23" stroke="none" fill-rule="evenodd"/></svg>