<svg viewBox="0 0 2400 2400" fill="none" xmlns="http://www.w3.org/2000/svg"><path d="M900.000 415.877 C 856.903 427.334,787.558 463.107,749.006 493.769 C 677.394 550.725,624.719 639.956,607.820 732.936 C 601.485 767.792,602.426 840.427,609.654 874.554 C 627.200 957.392,662.172 1022.780,719.696 1080.304 C 771.860 1132.468,833.721 1167.554,907.177 1186.636 C 939.279 1194.976,955.349 1196.733,1000.000 1196.785 C 1069.045 1196.865,1113.855 1186.041,1179.640 1153.389 C 1220.448 1133.135,1229.900 1126.273,1268.907 1088.587 C 1320.598 1038.647,1353.502 991.901,1370.917 943.661 C 1390.335 889.874,1393.840 867.622,1393.864 798.000 C 1393.883 743.617,1392.500 728.891,1384.661 700.000 C 1373.195 657.738,1349.662 606.942,1326.577 574.626 C 1289.329 522.482,1216.361 462.171,1159.122 436.218 C 1112.827 415.227,1092.097 411.586,1008.000 409.674 C 939.175 408.109,926.471 408.839,900.000 415.877 M1700.000 1100.000 L 1700.000 1200.000 2000.000 1200.000 L 2300.000 1200.000 2300.000 1100.000 L 2300.000 1000.000 2000.000 1000.000 L 1700.000 1000.000 1700.000 1100.000 M901.130 1408.076 C 806.634 1415.520,654.623 1448.171,555.120 1482.398 C 489.809 1504.863,402.624 1546.925,352.000 1580.391 C 307.837 1609.586,247.880 1667.983,229.169 1700.027 C 206.573 1738.724,203.663 1757.920,201.128 1885.000 L 198.834 2000.000 999.417 2000.000 L 1800.000 2000.000 1799.905 1919.000 C 1799.772 1804.778,1794.945 1749.131,1782.900 1722.927 C 1769.850 1694.541,1729.853 1645.171,1699.200 1619.614 C 1578.298 1518.814,1374.694 1442.902,1148.282 1414.210 C 1087.068 1406.452,961.356 1403.332,901.130 1408.076 " fill="#1D1E23" stroke="none" fill-rule="evenodd"/></svg>