<svg viewBox="0 0 2400 2400" fill="none" xmlns="http://www.w3.org/2000/svg"><path d="M942.000 408.332 C 867.602 413.796,766.668 466.569,708.142 530.606 C 609.296 638.760,577.013 787.504,622.601 924.740 C 681.439 1101.862,856.171 1215.269,1040.744 1196.130 C 1102.790 1189.696,1166.803 1166.174,1223.639 1128.924 C 1255.524 1108.026,1311.009 1050.902,1335.170 1014.099 C 1377.679 949.348,1395.859 885.086,1395.947 799.262 C 1396.026 723.782,1381.669 668.875,1344.370 602.000 C 1295.317 514.051,1184.768 431.195,1094.000 414.348 C 1057.541 407.582,989.108 404.873,942.000 408.332 M1777.265 1007.465 C 1749.964 1011.029,1729.844 1027.394,1713.000 1059.738 C 1697.444 1089.607,1696.624 1106.604,1709.418 1134.000 C 1721.092 1158.996,1736.023 1176.873,1755.169 1188.778 L 1770.000 1198.000 1998.000 1198.000 C 2256.161 1198.000,2241.444 1199.764,2271.889 1165.176 C 2307.931 1124.231,2307.155 1076.886,2269.715 1032.390 C 2246.755 1005.105,2257.168 1006.211,2016.000 1005.448 C 1896.100 1005.068,1788.669 1005.976,1777.265 1007.465 M906.000 1408.202 C 783.643 1415.025,586.117 1463.030,473.122 1513.406 C 356.447 1565.421,256.407 1644.123,225.328 1708.345 C 205.439 1749.443,202.000 1770.327,202.000 1850.000 C 202.000 1917.305,202.607 1923.233,211.314 1940.912 C 216.437 1951.313,229.352 1967.667,240.015 1977.254 L 259.402 1994.684 466.701 1997.338 C 957.196 2003.617,1711.715 1998.238,1744.760 1988.228 C 1753.808 1985.487,1764.280 1977.747,1771.817 1968.231 C 1793.244 1941.177,1797.271 1926.676,1799.095 1870.000 C 1802.916 1751.220,1788.929 1708.952,1724.129 1643.470 C 1667.432 1586.176,1592.543 1540.052,1487.864 1497.956 C 1435.979 1477.091,1395.028 1464.482,1319.964 1446.260 C 1209.653 1419.481,1157.589 1411.856,1058.000 1407.893 C 1007.400 1405.880,964.200 1404.473,962.000 1404.767 C 959.800 1405.062,934.600 1406.608,906.000 1408.202 " fill="#1D1E23" stroke="none" fill-rule="evenodd"/></svg>