<svg viewBox="0 0 2400 2400" fill="none" xmlns="http://www.w3.org/2000/svg"><path d="M942.000 408.332 C 867.602 413.796,766.668 466.569,708.142 530.606 C 609.296 638.760,577.013 787.504,622.601 924.740 C 681.439 1101.862,856.171 1215.269,1040.744 1196.130 C 1102.790 1189.696,1166.803 1166.174,1223.639 1128.924 C 1255.524 1108.026,1311.009 1050.902,1335.170 1014.099 C 1377.679 949.348,1395.859 885.086,1395.947 799.262 C 1396.026 723.782,1381.669 668.875,1344.370 602.000 C 1295.317 514.051,1184.768 431.195,1094.000 414.348 C 1057.541 407.582,989.108 404.873,942.000 408.332 M1700.000 1100.000 L 1700.000 1200.000 2000.000 1200.000 L 2300.000 1200.000 2300.000 1100.000 L 2300.000 1000.000 2000.000 1000.000 L 1700.000 1000.000 1700.000 1100.000 M896.000 1408.123 C 813.829 1413.825,664.385 1445.525,566.848 1477.941 C 411.221 1529.664,289.609 1607.718,235.676 1690.498 C 205.692 1736.518,203.232 1750.169,200.978 1883.000 L 198.994 2000.000 1000.023 2000.000 L 1801.053 2000.000 1798.947 1881.000 C 1796.529 1744.359,1795.268 1737.518,1763.833 1690.519 C 1691.739 1582.729,1520.447 1490.786,1298.000 1440.476 C 1153.225 1407.734,1036.719 1398.357,896.000 1408.123 " fill="#1D1E23" stroke="none" fill-rule="evenodd"/></svg>