<svg viewBox="0 0 2400 2400" fill="none" xmlns="http://www.w3.org/2000/svg"><path d="M900.000 415.877 C 856.903 427.334,787.558 463.107,749.006 493.769 C 677.394 550.725,624.719 639.956,607.820 732.936 C 601.485 767.792,602.426 840.427,609.654 874.554 C 627.200 957.392,662.172 1022.780,719.696 1080.304 C 771.860 1132.468,833.721 1167.554,907.177 1186.636 C 939.279 1194.976,955.349 1196.733,1000.000 1196.785 C 1069.045 1196.865,1113.855 1186.041,1179.640 1153.389 C 1220.448 1133.135,1229.900 1126.273,1268.907 1088.587 C 1320.598 1038.647,1353.502 991.901,1370.917 943.661 C 1390.335 889.874,1393.840 867.622,1393.864 798.000 C 1393.883 743.617,1392.500 728.891,1384.661 700.000 C 1373.195 657.738,1349.662 606.942,1326.577 574.626 C 1289.329 522.482,1216.361 462.171,1159.122 436.218 C 1112.827 415.227,1092.097 411.586,1008.000 409.674 C 939.175 408.109,926.471 408.839,900.000 415.877 M1828.000 1007.640 C 1751.762 1010.366,1741.785 1014.032,1720.584 1047.114 C 1703.513 1073.751,1697.827 1097.656,1703.567 1118.650 C 1710.208 1142.938,1731.691 1172.068,1754.268 1187.401 L 1774.000 1200.802 1996.000 1198.845 C 2154.633 1197.447,2222.843 1195.483,2234.966 1191.966 C 2266.316 1182.871,2297.180 1138.200,2297.097 1102.039 C 2297.011 1064.640,2268.649 1019.498,2240.818 1012.466 C 2222.780 1007.909,1919.620 1004.365,1828.000 1007.640 M906.000 1408.449 C 761.781 1418.897,564.214 1469.641,449.233 1525.770 C 348.169 1575.104,257.707 1647.576,229.256 1702.000 C 206.403 1745.716,202.641 1766.094,202.304 1848.000 C 201.952 1933.698,203.711 1939.915,238.109 1974.512 L 258.503 1995.024 486.251 1998.064 C 737.978 2001.423,1601.705 1997.550,1690.000 1992.666 C 1752.643 1989.201,1759.563 1986.605,1778.322 1959.535 C 1793.350 1937.849,1799.817 1903.658,1799.917 1845.352 C 1800.062 1760.557,1786.421 1715.380,1746.406 1668.129 C 1650.707 1555.124,1462.583 1468.394,1218.000 1424.519 C 1138.493 1410.256,988.032 1402.507,906.000 1408.449 " fill="#1D1E23" stroke="none" fill-rule="evenodd"/></svg>