<svg viewBox="0 0 2400 2400" fill="none" xmlns="http://www.w3.org/2000/svg"><path d="M1700.000 400.000 L 1700.000 500.000 2000.000 500.000 L 2300.000 500.000 2300.000 400.000 L 2300.000 300.000 2000.000 300.000 L 1700.000 300.000 1700.000 400.000 M732.674 710.133 C 699.865 717.255,649.088 742.297,614.950 768.193 C 566.944 804.609,525.373 867.649,509.485 928.127 C 500.010 964.191,500.256 1037.330,509.969 1072.000 C 537.765 1171.219,610.797 1250.300,703.863 1281.954 C 747.582 1296.823,791.764 1301.893,831.287 1296.574 C 955.630 1279.840,1047.688 1202.588,1084.604 1084.000 C 1098.122 1040.574,1098.118 959.338,1084.595 916.141 C 1075.176 886.054,1059.308 852.154,1044.275 830.004 C 1017.792 790.984,955.983 742.837,908.000 723.852 C 860.357 705.001,783.884 699.018,732.674 710.133 M1532.674 710.133 C 1499.865 717.255,1449.088 742.297,1414.950 768.193 C 1366.944 804.609,1325.373 867.649,1309.485 928.127 C 1300.010 964.191,1300.256 1037.330,1309.969 1072.000 C 1337.765 1171.219,1410.797 1250.300,1503.863 1281.954 C 1547.582 1296.823,1591.764 1301.893,1631.287 1296.574 C 1755.630 1279.840,1847.688 1202.588,1884.604 1084.000 C 1898.122 1040.574,1898.118 959.338,1884.595 916.141 C 1875.176 886.054,1859.308 852.154,1844.275 830.004 C 1817.792 790.984,1755.983 742.837,1708.000 723.852 C 1660.357 705.001,1583.884 699.018,1532.674 710.133 M1512.000 1506.048 C 1512.000 1507.867,1529.085 1525.391,1549.966 1544.988 C 1611.223 1602.480,1665.068 1682.225,1681.642 1740.000 C 1690.648 1771.397,1695.537 1840.258,1698.611 1979.000 L 1701.291 2100.000 2000.645 2100.000 L 2300.000 2100.000 2300.000 1955.886 L 2300.000 1811.772 2288.342 1788.678 C 2256.219 1725.042,2185.127 1660.286,2102.000 1618.943 C 2001.913 1569.165,1860.086 1528.358,1737.209 1513.985 C 1678.672 1507.137,1512.000 1501.263,1512.000 1506.048 M659.964 1512.109 C 586.233 1520.313,439.742 1558.856,362.439 1590.390 C 231.691 1643.725,152.872 1706.439,110.478 1790.867 L 100.000 1811.734 100.000 1955.867 L 100.000 2100.000 800.000 2100.000 L 1500.000 2100.000 1500.000 1955.000 L 1500.000 1810.000 1481.000 1776.228 C 1415.107 1659.105,1261.067 1577.219,1004.000 1522.662 C 962.064 1513.762,946.162 1512.717,824.000 1510.833 C 750.300 1509.696,676.484 1510.270,659.964 1512.109 " fill="#1D1E23" stroke="none" fill-rule="evenodd"/></svg>