<svg viewBox="0 0 2400 2400" fill="none" xmlns="http://www.w3.org/2000/svg"><path d="M1700.000 400.000 L 1700.000 500.000 2000.000 500.000 L 2300.000 500.000 2300.000 400.000 L 2300.000 300.000 2000.000 300.000 L 1700.000 300.000 1700.000 400.000 M762.000 702.226 C 757.600 703.245,744.180 706.073,732.178 708.510 C 683.549 718.385,625.474 751.053,586.773 790.301 C 501.598 876.680,477.199 1001.656,523.365 1115.098 C 552.108 1185.729,614.271 1247.892,684.902 1276.635 C 853.166 1345.111,1038.641 1253.752,1088.625 1077.774 C 1101.302 1033.140,1101.302 966.860,1088.625 922.226 C 1073.307 868.298,1051.136 830.840,1010.160 789.659 C 979.731 759.078,967.978 750.339,936.000 734.517 C 915.100 724.176,888.100 713.024,876.000 709.734 C 854.067 703.772,777.191 698.709,762.000 702.226 M1562.000 702.226 C 1557.600 703.245,1544.180 706.073,1532.178 708.510 C 1483.549 718.385,1425.474 751.053,1386.773 790.301 C 1301.598 876.680,1277.199 1001.656,1323.365 1115.098 C 1352.108 1185.729,1414.271 1247.892,1484.902 1276.635 C 1653.166 1345.111,1838.641 1253.752,1888.625 1077.774 C 1901.302 1033.140,1901.302 966.860,1888.625 922.226 C 1873.307 868.298,1851.136 830.840,1810.160 789.659 C 1779.731 759.078,1767.978 750.339,1736.000 734.517 C 1715.100 724.176,1688.100 713.024,1676.000 709.734 C 1654.067 703.772,1577.191 698.709,1562.000 702.226 M717.152 1504.087 C 596.396 1515.824,457.036 1549.242,356.655 1590.531 C 213.648 1649.354,123.596 1728.397,104.341 1812.000 C 101.930 1822.471,100.155 1886.466,100.098 1965.000 L 100.000 2100.000 800.000 2100.000 L 1500.000 2100.000 1499.902 1965.000 C 1499.845 1886.466,1498.070 1822.471,1495.659 1812.000 C 1476.872 1730.429,1389.714 1652.405,1252.000 1593.875 C 1172.253 1559.982,1050.192 1527.366,946.000 1512.108 C 881.658 1502.686,771.347 1498.820,717.152 1504.087 M1528.495 1503.394 L 1502.990 1506.000 1522.495 1519.934 C 1577.393 1559.154,1643.754 1641.005,1668.602 1700.146 C 1696.173 1765.766,1697.260 1774.515,1699.037 1945.000 L 1700.652 2100.000 2000.326 2100.000 L 2300.000 2100.000 2299.902 1965.000 C 2299.845 1886.466,2298.070 1822.471,2295.659 1812.000 C 2276.872 1730.429,2189.714 1652.405,2052.000 1593.875 C 1972.253 1559.982,1850.192 1527.366,1746.000 1512.108 C 1687.010 1503.470,1572.607 1498.886,1528.495 1503.394 " fill="#1D1E23" stroke="none" fill-rule="evenodd"/></svg>