<svg viewBox="0 0 2400 2400" fill="none" xmlns="http://www.w3.org/2000/svg"><path d="M1700.000 400.000 L 1700.000 500.000 2000.000 500.000 L 2300.000 500.000 2300.000 400.000 L 2300.000 300.000 2000.000 300.000 L 1700.000 300.000 1700.000 400.000 M729.621 709.646 C 573.478 750.670,476.363 899.759,505.747 1053.334 C 525.080 1154.379,595.023 1240.252,688.000 1277.097 C 847.140 1340.160,1023.663 1260.533,1080.447 1100.068 C 1133.122 951.215,1061.945 788.305,916.983 725.929 C 879.789 709.925,858.715 705.520,804.000 702.314 C 771.973 700.438,760.281 701.590,729.621 709.646 M1529.621 709.646 C 1373.478 750.670,1276.363 899.759,1305.747 1053.334 C 1325.080 1154.379,1395.023 1240.252,1488.000 1277.097 C 1647.140 1340.160,1823.663 1260.533,1880.447 1100.068 C 1933.122 951.215,1861.945 788.305,1716.983 725.929 C 1679.789 709.925,1658.715 705.520,1604.000 702.314 C 1571.973 700.438,1560.281 701.590,1529.621 709.646 M692.000 1506.566 C 533.603 1526.581,362.923 1578.064,265.053 1635.348 C 190.085 1679.228,142.252 1725.752,116.333 1780.000 L 102.000 1810.000 100.694 1955.000 L 99.387 2100.000 800.036 2100.000 L 1500.685 2100.000 1499.343 1954.689 L 1498.000 1809.378 1480.806 1774.688 C 1422.157 1656.363,1233.954 1561.374,967.629 1515.682 C 927.390 1508.778,897.945 1506.943,812.000 1505.982 C 753.700 1505.330,699.700 1505.593,692.000 1506.566 M1508.000 1506.934 C 1508.000 1509.136,1515.523 1515.915,1524.717 1522.000 C 1565.854 1549.223,1632.144 1628.586,1659.938 1683.889 C 1687.177 1738.087,1692.250 1761.084,1696.136 1848.000 C 1698.055 1890.900,1699.709 1965.150,1699.812 2013.000 L 1700.000 2100.000 2000.343 2100.000 L 2300.685 2100.000 2299.343 1954.689 L 2298.000 1809.378 2280.806 1774.688 C 2222.157 1656.362,2033.100 1560.965,1767.629 1515.743 C 1729.512 1509.249,1693.644 1506.783,1613.000 1505.110 C 1544.169 1503.682,1508.000 1504.310,1508.000 1506.934 " fill="#1D1E23" stroke="none" fill-rule="evenodd"/></svg>