<svg viewBox="0 0 2400 2400" fill="none" xmlns="http://www.w3.org/2000/svg"><path d="M1042.964 213.985 C 785.483 255.850,554.189 397.884,393.846 612.600 C 258.993 793.181,186.155 1040.744,203.073 1261.000 C 221.109 1495.800,304.210 1693.348,456.832 1864.234 C 664.198 2096.416,958.375 2216.627,1268.794 2196.032 C 1421.114 2185.925,1582.269 2134.993,1716.000 2054.692 C 1808.534 1999.129,1932.708 1887.045,1997.113 1800.947 C 2087.619 1679.956,2150.712 1536.716,2182.427 1380.228 C 2202.428 1281.538,2202.328 1109.486,2182.215 1014.456 C 2148.661 855.920,2084.895 716.049,1987.208 586.701 C 1956.126 545.546,1860.775 450.143,1816.000 415.400 C 1718.697 339.899,1592.383 275.250,1480.627 243.753 C 1374.791 213.925,1354.440 211.369,1210.000 209.759 C 1109.029 208.634,1069.764 209.628,1042.964 213.985 M1287.158 408.247 C 1556.534 437.697,1788.969 599.273,1910.863 841.813 C 1938.710 897.222,1957.093 945.349,1971.924 1001.674 C 1986.944 1058.714,1990.974 1090.207,1994.233 1176.000 C 1997.080 1250.956,1993.509 1297.702,1979.795 1365.005 C 1950.808 1507.254,1867.612 1660.483,1762.048 1766.048 C 1629.243 1898.852,1440.200 1984.568,1254.852 1996.020 C 1107.516 2005.123,983.283 1980.563,848.418 1915.670 C 816.748 1900.431,776.248 1878.250,758.418 1866.379 C 693.514 1823.165,583.536 1713.367,539.344 1647.664 C 510.368 1604.584,459.907 1500.907,443.137 1450.000 C 412.672 1357.516,401.470 1274.055,405.287 1168.000 C 409.667 1046.335,434.062 951.378,489.040 842.000 C 548.441 723.821,637.903 619.970,746.288 543.374 C 795.772 508.404,884.405 464.413,949.285 442.622 C 988.197 429.553,1061.631 413.223,1102.000 408.662 C 1147.749 403.493,1241.749 403.282,1287.158 408.247 M811.589 807.520 C 777.644 814.656,730.534 855.715,711.735 894.547 C 698.766 921.338,699.048 979.245,712.281 1006.581 C 724.504 1031.829,765.117 1072.409,791.554 1085.788 C 811.572 1095.919,815.990 1096.597,853.554 1095.298 C 903.099 1093.586,916.429 1087.868,951.095 1053.459 C 984.810 1019.994,996.822 993.714,996.665 953.753 C 996.485 907.777,987.564 883.142,961.018 855.312 C 930.463 823.278,900.317 808.971,858.000 806.420 C 840.400 805.359,819.515 805.854,811.589 807.520 M1511.589 807.520 C 1477.644 814.656,1430.534 855.715,1411.735 894.547 C 1398.766 921.338,1399.048 979.245,1412.281 1006.581 C 1424.504 1031.829,1465.117 1072.409,1491.554 1085.788 C 1511.572 1095.919,1515.990 1096.597,1553.554 1095.298 C 1603.099 1093.586,1616.429 1087.868,1651.095 1053.459 C 1684.810 1019.994,1696.822 993.714,1696.665 953.753 C 1696.485 907.777,1687.564 883.142,1661.018 855.312 C 1630.463 823.278,1600.317 808.971,1558.000 806.420 C 1540.400 805.359,1519.515 805.854,1511.589 807.520 M1122.000 1407.508 C 1025.226 1425.036,937.720 1461.988,868.075 1514.736 C 804.432 1562.937,718.160 1670.861,698.320 1727.093 C 692.760 1742.852,692.862 1744.180,699.928 1747.961 C 704.204 1750.250,738.643 1752.000,779.405 1752.000 L 851.336 1752.000 877.237 1718.830 C 923.372 1659.748,982.177 1612.955,1049.216 1581.981 C 1091.382 1562.499,1118.347 1559.082,1216.643 1560.764 L 1302.000 1562.224 1335.807 1575.996 C 1376.754 1592.677,1431.244 1626.401,1464.142 1655.424 C 1477.499 1667.207,1502.113 1693.863,1518.840 1714.660 L 1549.253 1752.472 1624.779 1751.236 C 1706.381 1749.901,1711.063 1748.577,1703.602 1728.954 C 1686.925 1685.089,1626.981 1603.255,1576.065 1554.842 C 1487.730 1470.850,1392.610 1424.892,1277.015 1410.355 C 1195.815 1400.144,1165.710 1399.591,1122.000 1407.508 " fill="#1D1E23" stroke="none" fill-rule="evenodd"/></svg>