<svg viewBox="0 0 2400 2400" fill="none" xmlns="http://www.w3.org/2000/svg"><path d="M1108.545 204.138 C 796.319 234.318,520.746 404.372,350.372 672.000 C 318.468 722.115,273.515 818.568,252.284 882.460 C 183.002 1090.954,183.002 1309.046,252.284 1517.540 C 300.974 1664.069,381.908 1794.313,493.797 1906.203 C 648.729 2061.134,839.618 2157.095,1060.000 2190.836 C 1123.622 2200.577,1275.859 2200.550,1337.463 2190.786 C 1401.612 2180.620,1463.274 2165.956,1515.596 2148.425 C 1858.696 2033.465,2112.820 1743.895,2181.460 1389.683 C 2289.531 831.998,1909.983 296.356,1346.700 211.616 C 1285.763 202.448,1165.192 198.663,1108.545 204.138 M1274.000 404.133 C 1456.349 421.235,1623.340 498.040,1755.450 625.571 C 2004.489 865.978,2070.161 1239.929,1917.944 1550.849 C 1796.348 1799.221,1559.627 1964.889,1282.000 1995.912 C 1085.155 2017.907,873.543 1957.479,710.000 1832.570 C 674.030 1805.098,606.674 1738.415,576.092 1700.000 C 537.021 1650.922,510.707 1609.106,481.701 1550.000 C 346.093 1273.664,382.928 942.169,576.152 700.000 C 606.996 661.343,669.507 599.393,708.000 569.335 C 866.875 445.271,1072.549 385.240,1274.000 404.133 M814.984 804.088 C 772.178 814.902,734.258 846.547,714.434 888.000 C 703.369 911.137,702.000 917.964,702.000 950.000 C 702.000 981.057,703.550 989.353,713.285 1010.418 C 727.561 1041.307,758.500 1072.114,790.000 1086.806 C 810.693 1096.458,818.960 1098.000,850.000 1098.000 C 881.057 1098.000,889.353 1096.450,910.418 1086.715 C 941.307 1072.439,972.114 1041.500,986.806 1010.000 C 996.458 989.307,998.000 981.040,998.000 950.000 C 998.000 918.943,996.450 910.647,986.715 889.582 C 972.512 858.850,941.401 827.762,910.960 813.882 C 885.230 802.150,840.660 797.602,814.984 804.088 M1514.984 804.088 C 1472.178 814.902,1434.258 846.547,1414.434 888.000 C 1403.369 911.137,1402.000 917.964,1402.000 950.000 C 1402.000 981.057,1403.550 989.353,1413.285 1010.418 C 1427.561 1041.307,1458.500 1072.114,1490.000 1086.806 C 1510.693 1096.458,1518.960 1098.000,1550.000 1098.000 C 1581.057 1098.000,1589.353 1096.450,1610.418 1086.715 C 1641.307 1072.439,1672.114 1041.500,1686.806 1010.000 C 1696.458 989.307,1698.000 981.040,1698.000 950.000 C 1698.000 918.943,1696.450 910.647,1686.715 889.582 C 1672.512 858.850,1641.401 827.762,1610.960 813.882 C 1585.230 802.150,1540.660 797.602,1514.984 804.088 M1150.000 1402.394 C 1056.895 1415.997,1012.055 1429.351,947.607 1462.671 C 866.485 1504.611,793.744 1569.980,742.438 1647.047 C 710.931 1694.375,685.632 1747.342,693.155 1750.229 C 695.950 1751.302,733.221 1751.689,775.980 1751.089 L 853.724 1750.000 871.652 1724.000 C 894.937 1690.232,943.271 1641.927,975.525 1620.191 C 1008.883 1597.710,1058.246 1574.771,1098.073 1563.242 C 1126.238 1555.089,1138.249 1554.031,1200.000 1554.267 C 1280.209 1554.573,1307.250 1560.017,1366.509 1587.787 C 1428.970 1617.057,1476.615 1656.278,1520.274 1714.365 L 1548.561 1752.000 1627.614 1752.000 C 1671.093 1752.000,1707.742 1750.925,1709.055 1749.611 C 1713.397 1745.270,1684.087 1686.891,1657.562 1647.047 C 1625.489 1598.871,1573.715 1543.825,1528.691 1510.034 C 1464.569 1461.910,1378.064 1423.851,1301.367 1410.021 C 1266.355 1403.707,1173.153 1399.011,1150.000 1402.394 " fill="#1D1E23" stroke="none" fill-rule="evenodd"/></svg>