<svg viewBox="0 0 2400 2400" fill="none" xmlns="http://www.w3.org/2000/svg"><path d="M1090.000 207.942 C 991.874 215.868,856.495 255.676,755.433 306.322 C 548.359 410.095,373.025 594.133,284.353 800.785 C 173.297 1059.606,173.317 1340.056,284.412 1599.295 C 373.585 1807.379,555.065 1996.818,762.000 2097.827 C 856.626 2144.016,946.827 2172.076,1054.000 2188.662 C 1128.208 2200.147,1262.957 2201.060,1332.000 2190.546 C 1560.948 2155.683,1749.312 2061.714,1907.446 1903.473 C 1985.715 1825.152,2041.508 1747.680,2091.434 1648.000 C 2139.550 1551.931,2170.494 1456.514,2188.725 1348.000 C 2199.868 1281.673,2200.807 1120.264,2190.413 1058.000 C 2160.055 876.160,2087.592 711.587,1977.301 574.000 C 1935.504 521.859,1852.891 441.941,1800.000 402.484 C 1720.106 342.882,1622.561 291.034,1529.427 258.667 C 1470.401 238.154,1383.320 217.166,1337.699 212.459 C 1282.038 206.715,1137.763 204.085,1090.000 207.942 M1310.000 410.420 C 1610.920 451.243,1861.093 660.415,1957.738 952.000 C 1984.562 1032.933,1992.659 1082.579,1994.949 1180.157 C 1996.442 1243.790,1995.381 1272.650,1990.244 1308.157 C 1977.413 1396.838,1955.795 1468.100,1918.011 1546.261 C 1802.278 1785.673,1588.289 1944.084,1317.828 1990.564 C 1262.325 2000.103,1136.899 2000.149,1082.000 1990.651 C 990.637 1974.844,918.238 1951.465,839.843 1912.455 C 756.714 1871.089,717.746 1842.244,639.630 1764.255 C 559.047 1683.803,530.383 1644.314,484.111 1550.000 C 442.233 1464.641,419.714 1389.335,408.190 1296.105 C 402.798 1252.485,402.801 1147.473,408.196 1103.895 C 437.429 867.748,570.830 655.429,771.149 526.221 C 812.454 499.579,898.493 458.959,948.976 442.266 C 1061.965 404.906,1187.636 393.820,1310.000 410.420 M802.000 808.721 C 767.503 821.762,730.180 856.572,712.961 891.765 C 703.557 910.986,702.184 918.553,702.402 949.930 C 702.594 977.702,704.617 990.419,711.193 1005.208 C 722.770 1031.242,762.804 1072.063,790.506 1086.079 C 810.356 1096.122,817.266 1097.449,849.495 1097.410 C 895.083 1097.354,914.705 1089.432,948.061 1057.616 C 977.622 1029.420,991.373 1006.428,996.120 977.262 C 1000.738 948.889,994.943 905.449,983.564 883.145 C 971.769 860.025,941.740 832.104,913.748 818.229 C 893.332 808.110,884.668 806.298,852.000 805.321 C 830.423 804.676,808.814 806.146,802.000 808.721 M1502.000 808.721 C 1467.503 821.762,1430.180 856.572,1412.961 891.765 C 1403.557 910.986,1402.184 918.553,1402.402 949.930 C 1402.594 977.702,1404.617 990.419,1411.193 1005.208 C 1422.770 1031.242,1462.804 1072.063,1490.506 1086.079 C 1510.356 1096.122,1517.266 1097.449,1549.495 1097.410 C 1595.083 1097.354,1614.705 1089.432,1648.061 1057.616 C 1677.622 1029.420,1691.373 1006.428,1696.120 977.262 C 1700.738 948.889,1694.943 905.449,1683.564 883.145 C 1671.769 860.025,1641.740 832.104,1613.748 818.229 C 1593.332 808.110,1584.668 806.298,1552.000 805.321 C 1530.423 804.676,1508.814 806.146,1502.000 808.721 M1115.036 1408.007 C 1041.091 1417.125,941.482 1459.849,869.758 1513.211 C 807.276 1559.698,737.125 1641.964,728.183 1679.236 C 724.615 1694.108,724.552 1703.194,727.927 1715.730 C 735.929 1745.445,771.142 1772.143,802.000 1771.890 C 823.064 1771.717,842.832 1756.522,881.292 1710.941 C 902.736 1685.525,929.976 1656.449,941.823 1646.328 C 987.450 1607.348,1054.920 1572.901,1107.450 1561.766 C 1144.870 1553.835,1266.621 1553.995,1297.417 1562.016 C 1380.225 1583.585,1452.740 1632.105,1516.513 1708.616 C 1553.250 1752.690,1577.725 1772.000,1596.849 1772.000 C 1612.987 1772.000,1640.922 1760.614,1652.872 1749.164 C 1668.021 1734.651,1677.587 1707.980,1674.881 1687.804 C 1668.668 1641.479,1581.806 1544.837,1498.000 1491.007 C 1443.999 1456.322,1384.717 1430.428,1328.000 1416.754 C 1289.262 1407.415,1162.175 1402.195,1115.036 1408.007 " fill="#1D1E23" stroke="none" fill-rule="evenodd"/></svg>