<svg viewBox="0 0 2400 2400" fill="none" xmlns="http://www.w3.org/2000/svg"><path d="M1090.000 207.942 C 991.874 215.868,856.495 255.676,755.433 306.322 C 548.359 410.095,373.025 594.133,284.353 800.785 C 173.297 1059.606,173.317 1340.056,284.412 1599.295 C 373.585 1807.379,555.065 1996.818,762.000 2097.827 C 856.626 2144.016,946.827 2172.076,1054.000 2188.662 C 1128.208 2200.147,1262.957 2201.060,1332.000 2190.546 C 1560.948 2155.683,1749.312 2061.714,1907.446 1903.473 C 1985.715 1825.152,2041.508 1747.680,2091.434 1648.000 C 2139.550 1551.931,2170.494 1456.514,2188.725 1348.000 C 2199.868 1281.673,2200.807 1120.264,2190.413 1058.000 C 2160.055 876.160,2087.592 711.587,1977.301 574.000 C 1935.504 521.859,1852.891 441.941,1800.000 402.484 C 1720.106 342.882,1622.561 291.034,1529.427 258.667 C 1470.401 238.154,1383.320 217.166,1337.699 212.459 C 1282.038 206.715,1137.763 204.085,1090.000 207.942 M1310.000 410.420 C 1610.920 451.243,1861.093 660.415,1957.738 952.000 C 1984.562 1032.933,1992.659 1082.579,1994.949 1180.157 C 1996.442 1243.790,1995.381 1272.650,1990.244 1308.157 C 1977.413 1396.838,1955.795 1468.100,1918.011 1546.261 C 1802.278 1785.673,1588.289 1944.084,1317.828 1990.564 C 1262.325 2000.103,1136.899 2000.149,1082.000 1990.651 C 990.637 1974.844,918.238 1951.465,839.843 1912.455 C 756.714 1871.089,717.746 1842.244,639.630 1764.255 C 559.047 1683.803,530.383 1644.314,484.111 1550.000 C 442.233 1464.641,419.714 1389.335,408.190 1296.105 C 402.798 1252.485,402.801 1147.473,408.196 1103.895 C 437.429 867.748,570.830 655.429,771.149 526.221 C 812.454 499.579,898.493 458.959,948.976 442.266 C 1061.965 404.906,1187.636 393.820,1310.000 410.420 M802.000 808.721 C 767.503 821.762,730.180 856.572,712.961 891.765 C 703.557 910.986,702.184 918.553,702.402 949.930 C 702.594 977.702,704.617 990.419,711.193 1005.208 C 722.770 1031.242,762.804 1072.063,790.506 1086.079 C 810.356 1096.122,817.266 1097.449,849.495 1097.410 C 895.083 1097.354,914.705 1089.432,948.061 1057.616 C 977.622 1029.420,991.373 1006.428,996.120 977.262 C 1000.738 948.889,994.943 905.449,983.564 883.145 C 971.769 860.025,941.740 832.104,913.748 818.229 C 893.332 808.110,884.668 806.298,852.000 805.321 C 830.423 804.676,808.814 806.146,802.000 808.721 M1502.000 808.721 C 1467.503 821.762,1430.180 856.572,1412.961 891.765 C 1403.557 910.986,1402.184 918.553,1402.402 949.930 C 1402.594 977.702,1404.617 990.419,1411.193 1005.208 C 1422.770 1031.242,1462.804 1072.063,1490.506 1086.079 C 1510.356 1096.122,1517.266 1097.449,1549.495 1097.410 C 1595.083 1097.354,1614.705 1089.432,1648.061 1057.616 C 1677.622 1029.420,1691.373 1006.428,1696.120 977.262 C 1700.738 948.889,1694.943 905.449,1683.564 883.145 C 1671.769 860.025,1641.740 832.104,1613.748 818.229 C 1593.332 808.110,1584.668 806.298,1552.000 805.321 C 1530.423 804.676,1508.814 806.146,1502.000 808.721 M692.368 1411.000 C 702.451 1437.601,735.248 1494.330,758.301 1525.047 C 808.188 1591.517,897.263 1665.216,964.239 1695.435 C 1003.137 1712.985,1075.159 1735.158,1116.843 1742.416 C 1162.346 1750.339,1262.188 1748.030,1308.000 1737.995 C 1378.533 1722.546,1450.355 1692.283,1508.461 1653.528 C 1549.617 1626.079,1614.604 1562.260,1644.605 1519.832 C 1670.261 1483.548,1700.602 1431.227,1707.715 1411.000 L 1711.584 1400.000 1628.457 1400.000 L 1545.330 1400.000 1530.510 1421.518 C 1511.566 1449.023,1436.273 1522.204,1409.329 1539.297 C 1383.750 1555.526,1322.759 1580.676,1287.744 1589.433 C 1252.469 1598.256,1147.698 1598.553,1113.840 1589.925 C 1073.478 1579.641,1015.579 1555.055,985.539 1535.445 C 951.497 1513.222,901.459 1464.517,874.127 1427.000 L 854.457 1400.000 771.328 1400.000 L 688.198 1400.000 692.368 1411.000 " fill="#1D1E23" stroke="none" fill-rule="evenodd"/></svg>