<svg viewBox="0 0 2400 2400" fill="none" xmlns="http://www.w3.org/2000/svg"><path d="M1064.000 209.588 C 840.786 243.783,646.242 341.428,491.369 497.001 C 337.293 651.774,243.684 839.954,209.320 1064.000 C 199.513 1127.944,199.492 1271.819,209.281 1336.000 C 243.636 1561.251,337.128 1747.885,494.559 1905.489 C 702.194 2113.351,973.028 2215.373,1267.364 2196.602 C 1455.818 2184.583,1643.099 2115.706,1794.116 2002.877 C 2012.010 1840.082,2149.028 1609.685,2190.709 1336.000 C 2200.602 1271.037,2200.560 1123.474,2190.630 1060.812 C 2155.212 837.316,2057.243 643.650,1901.730 489.709 C 1758.133 347.564,1578.721 255.363,1368.000 215.424 C 1313.536 205.101,1117.814 201.344,1064.000 209.588 M1266.000 404.219 C 1510.640 425.302,1729.489 554.522,1864.401 757.547 C 2061.310 1053.868,2039.279 1442.225,1810.063 1715.408 C 1653.899 1901.527,1415.174 2007.575,1172.020 1998.846 C 1015.900 1993.241,861.732 1940.377,730.098 1847.311 C 690.853 1819.565,600.112 1731.929,571.356 1694.000 C 494.846 1593.087,441.151 1476.899,417.965 1362.085 C 360.620 1078.124,456.419 792.201,673.499 599.415 C 832.760 457.978,1051.938 385.771,1266.000 404.219 M816.358 804.261 C 776.950 812.171,732.443 849.765,712.484 892.000 C 703.637 910.721,702.108 919.366,702.226 950.000 C 702.343 980.331,704.039 989.633,712.995 1009.073 C 726.544 1038.483,759.074 1071.083,789.899 1086.143 C 810.981 1096.442,818.052 1097.810,849.899 1097.747 C 880.457 1097.686,889.543 1096.040,909.073 1087.025 C 938.487 1073.449,971.095 1040.903,986.143 1010.101 C 996.463 988.977,997.803 982.012,997.691 950.101 C 997.545 908.884,989.940 886.955,965.410 857.018 C 931.123 815.176,869.913 793.511,816.358 804.261 M1516.358 804.261 C 1476.950 812.171,1432.443 849.765,1412.484 892.000 C 1403.637 910.721,1402.108 919.366,1402.226 950.000 C 1402.343 980.331,1404.039 989.633,1412.995 1009.073 C 1426.544 1038.483,1459.074 1071.083,1489.899 1086.143 C 1510.981 1096.442,1518.052 1097.810,1549.899 1097.747 C 1580.457 1097.686,1589.543 1096.040,1609.073 1087.025 C 1638.487 1073.449,1671.095 1040.903,1686.143 1010.101 C 1696.463 988.977,1697.803 982.012,1697.691 950.101 C 1697.545 908.884,1689.940 886.955,1665.410 857.018 C 1631.123 815.176,1569.913 793.511,1516.358 804.261 M694.150 1415.000 C 739.860 1524.581,834.956 1627.495,944.205 1685.612 C 987.264 1708.518,1063.022 1733.896,1112.000 1741.820 C 1297.687 1771.862,1490.484 1702.440,1612.822 1561.484 C 1650.123 1518.507,1692.275 1451.360,1708.126 1409.668 L 1711.802 1400.000 1628.566 1400.000 L 1545.330 1400.000 1529.665 1423.000 C 1505.553 1458.402,1441.765 1520.218,1409.667 1539.287 C 1375.746 1559.439,1321.414 1581.821,1284.800 1590.726 C 1266.330 1595.218,1239.973 1597.244,1200.000 1597.244 C 1160.027 1597.244,1133.670 1595.218,1115.200 1590.726 C 1079.214 1581.974,1024.367 1559.516,992.254 1540.384 C 957.212 1519.507,907.477 1472.592,878.000 1432.605 L 854.000 1400.049 770.946 1400.025 L 687.893 1400.000 694.150 1415.000 " fill="#1D1E23" stroke="none" fill-rule="evenodd"/></svg>