<svg viewBox="0 0 2400 2400" fill="none" xmlns="http://www.w3.org/2000/svg"><path d="M1076.000 212.139 C 1034.636 215.012,1020.723 217.275,966.736 229.914 C 796.666 269.730,621.690 369.209,492.000 499.817 C 334.200 658.733,242.245 846.876,207.457 1082.000 C 199.705 1134.399,200.792 1266.371,209.467 1326.000 C 243.104 1557.201,334.766 1742.252,495.933 1904.327 C 675.946 2085.354,899.650 2183.650,1164.000 2197.877 C 1333.319 2206.990,1536.048 2156.761,1696.400 2065.969 C 1802.282 2006.018,1940.893 1880.830,2009.980 1782.756 C 2104.984 1647.891,2169.646 1484.683,2190.257 1327.734 C 2198.683 1263.573,2196.505 1088.634,2186.625 1036.000 C 2157.515 880.922,2086.266 719.173,1991.932 594.008 C 1960.653 552.507,1867.918 457.917,1824.000 422.718 C 1693.080 317.789,1498.237 232.277,1354.000 216.446 C 1306.307 211.211,1128.933 208.463,1076.000 212.139 M1274.000 408.069 C 1486.306 427.669,1685.977 533.785,1815.780 696.000 C 1898.938 799.922,1955.713 919.352,1981.648 1044.912 C 1991.642 1093.295,1997.349 1216.926,1992.196 1273.400 C 1971.126 1504.285,1846.441 1719.870,1656.689 1853.500 C 1588.462 1901.548,1489.181 1948.014,1408.000 1969.895 C 1259.758 2009.849,1100.667 2006.407,960.219 1960.206 C 877.263 1932.917,785.166 1887.605,736.000 1849.891 C 670.531 1799.670,579.365 1705.710,542.053 1650.000 C 499.450 1586.390,450.329 1479.444,431.999 1410.391 C 400.801 1292.866,396.575 1156.969,420.416 1038.000 C 457.790 851.505,579.976 663.689,738.000 549.832 C 782.032 518.107,892.204 462.125,944.773 444.765 C 1049.205 410.276,1161.876 397.718,1274.000 408.069 M786.314 818.389 C 758.686 833.071,725.590 867.561,713.237 894.542 C 704.690 913.212,702.877 923.014,703.000 949.886 C 703.209 995.230,712.507 1015.383,749.989 1051.726 C 790.588 1091.093,806.747 1097.673,856.142 1094.951 C 903.180 1092.359,918.932 1085.263,951.844 1051.836 C 987.158 1015.970,994.000 999.117,994.000 948.000 C 994.000 909.037,993.153 904.470,982.281 884.846 C 968.002 859.073,943.860 836.197,915.361 821.437 C 896.481 811.659,888.889 810.232,850.000 809.151 C 808.997 808.011,804.659 808.640,786.314 818.389 M1486.314 818.389 C 1458.686 833.071,1425.590 867.561,1413.237 894.542 C 1404.690 913.212,1402.877 923.014,1403.000 949.886 C 1403.209 995.230,1412.507 1015.383,1449.989 1051.726 C 1490.588 1091.093,1506.747 1097.673,1556.142 1094.951 C 1603.180 1092.359,1618.932 1085.263,1651.844 1051.836 C 1687.158 1015.970,1694.000 999.117,1694.000 948.000 C 1694.000 909.037,1693.153 904.470,1682.281 884.846 C 1668.002 859.073,1643.860 836.197,1615.361 821.437 C 1596.481 811.659,1588.889 810.232,1550.000 809.151 C 1508.997 808.011,1504.659 808.640,1486.314 818.389 M767.484 1388.024 C 748.593 1398.007,733.236 1416.554,728.114 1435.576 C 722.804 1455.297,730.307 1481.131,749.926 1510.679 C 767.875 1537.712,849.651 1619.560,886.476 1647.347 C 937.864 1686.125,1034.343 1727.959,1100.600 1740.193 C 1137.425 1746.993,1266.950 1745.970,1304.483 1738.583 C 1368.146 1726.053,1442.293 1695.113,1499.556 1657.183 C 1564.028 1614.477,1661.390 1507.401,1672.178 1467.339 C 1680.920 1434.874,1659.618 1400.154,1622.188 1385.859 C 1591.376 1374.092,1581.993 1379.300,1509.381 1448.471 C 1413.036 1540.250,1376.985 1564.394,1306.000 1584.675 C 1277.797 1592.732,1265.219 1593.808,1200.000 1593.744 C 1130.687 1593.676,1123.720 1592.972,1090.000 1582.633 C 1014.277 1559.415,968.588 1528.845,895.047 1452.187 C 868.071 1424.069,838.999 1396.323,830.442 1390.531 C 811.608 1377.783,788.600 1376.866,767.484 1388.024 " fill="#1D1E23" stroke="none" fill-rule="evenodd"/></svg>