<svg viewBox="0 0 2400 2400" fill="none" xmlns="http://www.w3.org/2000/svg"><path d="M1433.315 163.822 C 1420.905 169.091,1124.979 425.541,1108.764 445.079 C 1102.642 452.456,1102.640 452.454,1224.000 558.605 C 1446.691 753.387,1439.852 748.544,1470.826 733.413 C 1494.823 721.690,1499.986 706.804,1499.994 649.325 L 1500.000 600.651 1613.000 599.240 C 1740.176 597.652,1743.369 597.024,1771.445 568.094 C 1780.299 558.971,1789.895 544.868,1792.771 536.753 C 1800.372 515.308,1800.091 373.749,1792.421 360.000 C 1779.992 337.720,1762.824 320.137,1744.913 311.344 C 1726.734 302.418,1721.615 302.002,1613.000 300.619 L 1500.000 299.180 1500.000 251.462 C 1500.000 198.939,1495.307 180.972,1478.757 170.128 C 1466.334 161.988,1444.704 158.986,1433.315 163.822 M1928.656 566.758 C 1905.457 578.188,1902.159 587.557,1900.617 646.410 L 1899.235 699.189 1786.617 700.623 C 1678.399 702.002,1673.261 702.420,1655.087 711.344 C 1637.176 720.137,1620.008 737.720,1607.579 760.000 C 1599.909 773.749,1599.628 915.308,1607.229 936.753 C 1610.105 944.868,1619.701 958.971,1628.555 968.094 C 1656.631 997.024,1659.824 997.652,1787.000 999.240 L 1900.000 1000.651 1900.006 1049.325 C 1900.014 1106.804,1905.177 1121.690,1929.174 1133.413 C 1955.258 1146.155,1964.865 1141.483,2032.781 1083.032 C 2128.758 1000.429,2281.250 866.031,2289.282 856.966 C 2296.477 848.845,2295.715 847.991,2225.282 785.311 C 2098.524 672.504,1983.934 574.174,1970.870 567.000 C 1955.131 558.356,1945.815 558.302,1928.656 566.758 M845.794 704.197 C 752.403 715.560,649.316 773.893,589.950 848.969 C 525.293 930.736,495.544 1025.371,502.235 1128.000 C 514.691 1319.049,666.401 1476.344,857.669 1496.518 C 1083.880 1520.377,1283.662 1351.650,1298.571 1124.152 C 1310.008 949.630,1201.061 784.904,1034.287 724.558 C 984.109 706.401,901.245 697.450,845.794 704.197 M834.000 1702.686 C 825.200 1703.427,795.500 1706.883,768.000 1710.366 C 464.000 1748.863,221.585 1855.233,136.603 1987.417 C 106.713 2033.910,102.894 2048.976,100.903 2128.289 C 98.687 2216.496,102.328 2236.729,125.551 2265.266 C 138.875 2281.639,146.586 2287.244,162.212 2291.913 C 179.352 2297.034,278.073 2297.826,900.000 2297.826 C 1521.927 2297.826,1620.648 2297.034,1637.788 2291.913 C 1653.396 2287.249,1661.126 2281.638,1674.382 2265.348 C 1695.988 2238.797,1700.019 2219.780,1699.931 2144.803 C 1699.847 2074.230,1693.902 2042.513,1673.343 2002.971 C 1647.036 1952.372,1574.229 1888.126,1492.000 1842.953 C 1377.901 1780.272,1165.418 1720.912,1010.000 1708.301 C 954.696 1703.813,857.435 1700.710,834.000 1702.686 " fill="#1D1E23" stroke="none" fill-rule="evenodd"/></svg>