<svg viewBox="0 0 2400 2400" fill="none" xmlns="http://www.w3.org/2000/svg"><path d="M1420.938 175.000 C 1387.790 197.417,1167.659 389.034,1126.346 431.433 C 1109.210 449.019,1107.382 452.436,1112.085 458.102 C 1130.905 480.779,1387.487 701.654,1421.032 724.054 C 1446.910 741.335,1455.526 742.233,1474.944 729.673 C 1493.715 717.533,1497.222 706.334,1499.173 652.300 L 1501.018 601.225 1611.509 598.593 C 1672.279 597.146,1726.848 594.880,1732.774 593.558 C 1747.825 590.200,1774.081 566.700,1786.545 545.431 C 1796.816 527.904,1797.039 525.989,1797.315 452.767 C 1797.503 402.730,1795.941 373.145,1792.594 363.321 C 1787.639 348.781,1761.786 321.519,1743.850 311.920 C 1732.884 306.051,1646.767 300.526,1561.473 300.218 L 1500.946 300.000 1499.124 249.000 C 1498.013 217.902,1495.183 193.590,1491.872 186.700 C 1480.227 162.464,1447.466 157.060,1420.938 175.000 M1934.000 565.519 C 1907.673 577.340,1900.056 598.154,1900.022 658.364 L 1900.000 698.728 1790.898 701.438 C 1730.892 702.929,1675.425 705.908,1667.637 708.058 C 1650.301 712.845,1623.738 735.008,1611.389 754.988 C 1602.624 769.171,1602.217 773.362,1602.326 848.237 C 1602.440 926.012,1602.526 926.782,1613.192 944.982 C 1625.888 966.645,1652.060 990.174,1667.226 993.558 C 1673.152 994.880,1727.950 997.151,1789.000 998.604 L 1900.000 1001.246 1900.000 1036.077 C 1900.000 1100.098,1908.986 1124.811,1936.395 1136.164 C 1952.079 1142.660,1965.367 1136.812,2003.728 1106.529 C 2044.477 1074.362,2213.359 926.246,2257.112 884.303 L 2292.263 850.606 2277.131 834.877 C 2242.531 798.909,2033.114 615.186,1987.756 581.006 C 1962.041 561.628,1950.239 558.228,1934.000 565.519 M831.888 707.614 C 801.105 711.989,760.039 726.118,720.000 746.108 C 623.565 794.255,554.436 876.847,517.538 988.000 C 506.704 1020.636,506.251 1025.128,506.251 1100.000 C 506.251 1174.889,506.701 1179.356,517.545 1212.000 C 545.527 1296.238,589.645 1360.603,655.003 1412.540 C 735.659 1476.635,834.766 1505.521,940.031 1495.617 C 1030.892 1487.067,1111.858 1448.077,1180.125 1379.998 C 1233.992 1326.278,1267.422 1268.679,1285.894 1197.763 C 1310.853 1101.936,1299.290 1007.365,1251.345 915.208 C 1199.563 815.677,1096.869 736.060,991.750 713.947 C 957.625 706.769,863.943 703.057,831.888 707.614 M794.000 1708.143 C 732.955 1713.234,611.322 1735.832,544.000 1754.590 C 301.860 1822.055,145.441 1926.947,109.435 2046.000 C 103.569 2065.398,102.160 2084.190,102.088 2144.000 C 101.984 2231.743,105.426 2245.014,135.612 2273.250 C 153.242 2289.741,157.142 2291.504,182.422 2294.415 C 218.385 2298.555,1581.541 2298.564,1617.492 2294.424 C 1642.152 2291.584,1646.851 2289.545,1663.111 2274.629 C 1690.244 2249.739,1696.218 2232.661,1698.750 2172.738 C 1703.702 2055.541,1687.280 2006.741,1620.334 1939.716 C 1532.347 1851.623,1411.517 1793.135,1220.830 1746.336 C 1075.536 1710.676,925.057 1697.211,794.000 1708.143 " fill="#1D1E23" stroke="none" fill-rule="evenodd"/></svg>