<svg viewBox="0 0 2400 2400" fill="none" xmlns="http://www.w3.org/2000/svg"><path d="M1430.000 171.559 C 1405.886 182.687,1212.386 347.878,1140.000 419.132 L 1106.000 452.601 1134.000 478.840 C 1171.728 514.195,1317.369 640.282,1375.433 687.859 C 1433.765 735.655,1446.618 742.383,1464.850 734.668 C 1472.082 731.608,1481.135 725.581,1484.967 721.274 C 1494.296 710.789,1500.000 678.468,1500.000 636.095 L 1500.000 601.282 1614.767 598.572 C 1727.761 595.903,1729.799 595.706,1746.668 585.820 C 1767.013 573.897,1790.864 544.131,1794.158 526.552 C 1795.452 519.648,1795.945 479.528,1795.255 437.396 L 1794.000 360.792 1777.791 341.680 C 1752.666 312.054,1743.283 308.786,1669.934 304.107 C 1634.770 301.864,1582.422 300.022,1553.604 300.014 L 1501.208 300.000 1498.936 248.917 C 1496.373 191.283,1492.467 179.031,1473.841 170.193 C 1457.120 162.258,1449.651 162.491,1430.000 171.559 M1923.377 573.020 C 1905.822 587.860,1902.554 599.043,1900.762 650.408 L 1899.074 698.816 1804.537 701.495 C 1677.597 705.092,1667.289 706.387,1644.740 721.560 C 1634.572 728.402,1620.796 741.806,1614.127 751.347 L 1602.000 768.694 1602.183 847.347 C 1602.319 905.443,1603.777 928.614,1607.762 936.000 C 1618.625 956.133,1637.166 976.346,1653.611 985.984 C 1670.122 995.660,1672.799 995.916,1784.762 998.561 L 1899.059 1001.260 1900.717 1047.630 C 1902.710 1103.378,1909.711 1121.950,1933.028 1133.343 C 1947.804 1140.563,1948.354 1140.542,1965.709 1132.141 C 1990.861 1119.965,2161.378 974.745,2258.984 882.374 L 2292.402 850.749 2277.201 834.985 C 2237.337 793.645,2002.233 589.449,1975.417 572.876 C 1956.859 561.406,1937.050 561.461,1923.377 573.020 M795.634 715.849 C 730.100 735.174,666.135 772.875,619.696 819.545 C 572.920 866.554,545.765 910.717,519.803 982.000 L 506.691 1018.000 506.691 1100.000 L 506.691 1182.000 519.742 1218.000 C 559.795 1328.486,629.442 1408.937,726.000 1456.257 C 789.976 1487.609,817.240 1493.480,900.000 1493.725 C 977.168 1493.954,1003.497 1489.004,1059.036 1463.821 C 1107.493 1441.850,1133.551 1423.421,1179.410 1378.688 C 1233.341 1326.083,1267.645 1266.975,1285.751 1195.455 C 1309.838 1100.310,1300.025 1016.106,1253.882 921.989 C 1209.857 832.195,1122.924 756.854,1025.451 724.020 C 986.650 710.950,984.650 710.709,904.000 709.403 C 831.995 708.236,818.786 709.022,795.634 715.849 M799.830 1707.985 C 748.954 1712.601,669.761 1725.635,606.000 1739.886 C 366.491 1793.417,180.825 1898.383,124.478 2012.112 C 110.141 2041.048,107.068 2051.845,103.448 2086.000 C 98.825 2129.618,101.529 2208.688,108.510 2234.044 C 114.542 2255.950,144.803 2285.754,167.113 2291.761 C 191.443 2298.313,1608.299 2298.360,1632.894 2291.810 C 1656.481 2285.528,1684.617 2256.131,1692.262 2229.779 C 1696.245 2216.048,1698.000 2189.205,1698.000 2142.000 C 1698.000 2062.715,1691.781 2035.468,1663.806 1992.186 C 1627.106 1935.403,1538.338 1865.212,1451.859 1824.593 C 1345.196 1774.494,1180.213 1730.265,1040.000 1714.180 C 973.203 1706.518,850.801 1703.361,799.830 1707.985 " fill="#1D1E23" stroke="none" fill-rule="evenodd"/></svg>