<svg viewBox="0 0 2400 2400" fill="none" xmlns="http://www.w3.org/2000/svg"><path d="M1398.000 188.718 C 1345.200 235.085,1257.193 312.759,1202.428 361.328 L 1102.856 449.633 1124.543 469.817 C 1136.471 480.917,1225.828 559.811,1323.115 645.136 L 1500.000 800.272 1500.000 700.136 L 1500.000 600.000 1650.000 600.000 L 1800.000 600.000 1800.000 450.000 L 1800.000 300.000 1650.000 300.000 L 1500.000 300.000 1500.000 202.000 C 1500.000 148.100,1498.650 104.093,1497.000 104.207 C 1495.350 104.321,1450.800 142.351,1398.000 188.718 M1900.000 599.927 L 1900.000 700.000 1750.000 700.000 L 1600.000 700.000 1600.000 850.000 L 1600.000 1000.000 1750.000 1000.000 L 1900.000 1000.000 1900.000 1100.115 L 1900.000 1200.230 2075.855 1046.082 C 2172.576 961.300,2261.957 881.930,2274.480 869.703 C 2296.701 848.009,2297.066 847.300,2289.625 840.333 C 2285.431 836.406,2238.800 795.512,2186.000 749.456 C 2133.200 703.401,2047.250 628.400,1995.000 582.787 L 1900.000 499.854 1900.000 599.927 M837.798 705.695 C 734.549 725.000,650.378 773.866,589.525 849.832 C 461.483 1009.673,473.578 1238.158,617.710 1382.290 C 703.139 1467.719,821.336 1509.307,943.000 1496.745 C 1095.671 1480.982,1229.146 1373.772,1277.587 1228.000 C 1311.984 1124.488,1304.680 1019.398,1256.318 922.000 C 1209.412 827.533,1126.548 755.970,1022.698 720.240 C 977.618 704.730,882.836 697.274,837.798 705.695 M840.000 1702.485 C 662.428 1715.107,462.924 1766.237,329.207 1833.394 C 196.039 1900.275,117.834 1981.808,104.179 2068.000 C 101.914 2082.300,100.047 2140.350,100.030 2197.000 L 100.000 2300.000 900.428 2300.000 L 1700.856 2300.000 1699.124 2179.000 C 1697.508 2065.997,1696.810 2056.507,1688.565 2035.417 C 1651.814 1941.402,1548.264 1859.699,1383.328 1794.578 C 1294.875 1759.654,1148.287 1724.082,1036.000 1710.293 C 984.350 1703.950,878.635 1699.739,840.000 1702.485 " fill="#1D1E23" stroke="none" fill-rule="evenodd"/></svg>