<svg viewBox="0 0 2400 2400" fill="none" xmlns="http://www.w3.org/2000/svg"><path d="M1409.156 182.767 C 1320.232 254.838,1108.000 442.643,1108.000 449.261 C 1108.000 456.478,1131.458 478.232,1262.000 592.069 C 1387.400 701.423,1428.059 733.916,1444.661 738.045 C 1459.437 741.721,1482.771 729.859,1491.058 714.461 C 1496.022 705.238,1498.156 688.865,1499.272 651.447 L 1500.780 600.895 1611.390 598.922 C 1677.398 597.745,1727.925 595.103,1736.693 592.371 C 1756.344 586.249,1790.631 548.768,1794.808 528.844 C 1796.519 520.680,1797.817 481.600,1797.693 442.000 C 1797.440 361.602,1796.266 357.023,1769.330 331.441 C 1740.025 303.609,1739.062 303.421,1613.409 300.986 L 1500.000 298.789 1500.000 257.166 C 1500.000 184.472,1489.368 164.000,1451.616 164.000 C 1434.576 164.000,1429.595 166.202,1409.156 182.767 M1926.000 569.164 C 1905.744 580.600,1900.769 597.499,1900.322 656.395 L 1900.000 698.789 1786.643 700.985 C 1683.386 702.986,1671.876 703.901,1657.463 711.254 C 1637.965 721.201,1609.326 751.634,1605.226 766.764 C 1601.214 781.572,1601.177 909.825,1605.180 928.844 C 1609.374 948.772,1643.669 986.253,1663.307 992.371 C 1672.075 995.103,1722.602 997.745,1788.610 998.922 L 1899.220 1000.895 1900.846 1051.447 C 1902.722 1109.739,1906.691 1121.129,1929.112 1132.567 C 1960.546 1148.604,1959.581 1149.306,2209.000 928.882 C 2254.650 888.538,2292.000 853.089,2292.000 850.105 C 2292.000 841.852,2016.044 598.669,1976.314 571.911 C 1955.186 557.682,1947.120 557.241,1926.000 569.164 M816.000 709.710 C 771.179 719.671,712.913 745.227,674.038 771.974 C 591.752 828.588,531.280 919.160,509.774 1018.000 C 499.456 1065.419,500.160 1143.796,511.311 1189.228 C 530.019 1265.441,567.209 1330.664,622.627 1384.447 C 677.380 1437.585,736.799 1470.512,810.772 1488.706 C 860.339 1500.898,939.661 1500.898,989.228 1488.706 C 1066.703 1469.650,1131.724 1432.215,1186.170 1375.317 C 1239.024 1320.082,1268.333 1267.860,1286.541 1196.476 C 1332.298 1017.084,1245.466 828.980,1078.000 744.716 C 1038.054 724.617,1016.854 717.585,973.313 709.992 C 932.556 702.885,847.395 702.732,816.000 709.710 M782.000 1708.515 C 445.201 1750.646,189.204 1870.273,119.447 2018.126 C 104.466 2049.879,98.883 2093.592,100.703 2164.891 C 101.907 2212.025,103.604 2225.146,110.420 2240.014 C 122.387 2266.120,143.046 2286.288,164.098 2292.420 C 190.489 2300.107,1609.511 2300.107,1635.902 2292.420 C 1656.914 2286.300,1677.545 2266.189,1689.661 2240.014 C 1697.188 2223.753,1698.000 2214.603,1698.000 2146.000 C 1698.000 2078.679,1696.988 2066.784,1689.138 2041.834 C 1663.654 1960.835,1568.993 1875.974,1438.909 1817.510 C 1321.148 1764.584,1138.718 1719.274,998.419 1708.106 C 937.946 1703.292,821.998 1703.511,782.000 1708.515 " fill="#1D1E23" stroke="none" fill-rule="evenodd"/></svg>