<svg viewBox="0 0 2400 2400" fill="none" xmlns="http://www.w3.org/2000/svg"><path d="M1426.000 167.483 C 1410.775 176.939,1101.787 447.396,1102.617 450.540 C 1103.695 454.623,1413.471 724.736,1426.000 732.517 C 1448.590 746.547,1477.532 738.800,1492.162 714.806 C 1498.826 703.877,1499.972 694.525,1499.985 651.000 L 1500.000 600.000 1607.287 600.000 C 1730.879 600.000,1742.316 597.895,1770.196 570.014 C 1796.854 543.356,1800.899 525.443,1799.324 440.993 C 1798.032 371.735,1797.729 369.539,1786.911 351.136 C 1780.812 340.760,1769.565 327.499,1761.919 321.667 C 1735.749 301.706,1726.200 300.364,1609.000 300.176 L 1500.000 300.000 1499.985 249.000 C 1499.972 205.475,1498.826 196.123,1492.162 185.194 C 1477.532 161.200,1448.590 153.453,1426.000 167.483 M1925.194 567.838 C 1903.835 580.861,1900.000 593.338,1900.000 649.801 L 1900.000 700.000 1791.000 700.176 C 1673.800 700.364,1664.251 701.706,1638.081 721.667 C 1630.435 727.499,1619.188 740.760,1613.089 751.136 C 1602.271 769.539,1601.968 771.735,1600.676 840.993 C 1599.101 925.443,1603.146 943.356,1629.804 970.014 C 1657.684 997.895,1669.121 1000.000,1792.713 1000.000 L 1900.000 1000.000 1900.015 1051.000 C 1900.028 1094.525,1901.174 1103.877,1907.838 1114.806 C 1922.468 1138.800,1951.410 1146.547,1974.000 1132.517 C 1986.529 1124.736,2296.305 854.623,2297.383 850.540 C 2298.213 847.396,1989.225 576.939,1974.000 567.483 C 1958.555 557.890,1941.303 558.016,1925.194 567.838 M842.339 704.145 C 681.790 729.472,556.617 841.243,513.248 998.000 C 503.301 1033.956,502.199 1044.268,502.353 1100.000 C 502.503 1154.097,503.870 1166.995,513.079 1201.186 C 552.196 1346.419,666.209 1456.046,814.000 1490.530 C 858.128 1500.826,941.872 1500.826,986.000 1490.530 C 1095.928 1464.880,1187.642 1398.398,1244.025 1303.491 C 1325.923 1165.636,1316.258 988.386,1219.868 860.466 C 1164.695 787.247,1087.865 735.794,1000.201 713.356 C 957.008 702.301,881.834 697.914,842.339 704.145 M830.000 1702.443 C 643.033 1721.883,503.228 1755.589,368.000 1813.825 C 224.422 1875.658,129.237 1962.879,106.072 2053.840 C 101.808 2070.581,100.000 2098.064,100.000 2146.128 C 100.000 2226.915,104.225 2244.435,129.895 2270.105 C 162.298 2302.508,97.685 2300.000,900.000 2300.000 C 1702.315 2300.000,1637.702 2302.508,1670.105 2270.105 C 1695.775 2244.435,1700.000 2226.915,1700.000 2146.128 C 1700.000 2069.380,1695.874 2046.017,1674.928 2004.171 C 1649.339 1953.049,1577.794 1889.323,1496.000 1844.798 C 1382.766 1783.160,1207.908 1731.450,1040.000 1709.948 C 991.334 1703.716,862.157 1699.099,830.000 1702.443 " fill="#1D1E23" stroke="none" fill-rule="evenodd"/></svg>