<svg viewBox="0 0 2400 2400" fill="none" xmlns="http://www.w3.org/2000/svg"><path d="M1465.520 130.432 C 1416.060 172.169,1170.910 389.270,1139.071 419.531 C 1121.982 435.773,1108.000 450.520,1108.000 452.302 C 1108.000 455.758,1489.716 793.082,1496.175 795.333 C 1498.541 796.158,1500.000 759.156,1500.000 698.333 L 1500.000 600.000 1650.000 600.000 L 1800.000 600.000 1800.000 450.000 L 1800.000 300.000 1650.000 300.000 L 1500.000 300.000 1499.939 209.000 C 1499.905 158.950,1498.339 115.572,1496.458 112.605 C 1493.851 108.490,1486.508 112.721,1465.520 130.432 M1900.000 599.845 L 1900.000 700.000 1750.000 700.000 L 1600.000 700.000 1600.000 850.000 L 1600.000 1000.000 1750.000 1000.000 L 1900.000 1000.000 1900.000 1100.151 L 1900.000 1200.302 2060.822 1059.151 C 2242.849 899.389,2292.861 853.022,2291.174 845.590 C 2290.528 842.746,2228.800 786.959,2154.000 721.619 C 2079.200 656.279,1991.450 579.616,1959.000 551.255 L 1900.000 499.691 1900.000 599.845 M842.000 708.332 C 767.602 713.796,666.668 766.569,608.142 830.606 C 509.296 938.760,477.013 1087.504,522.601 1224.740 C 581.439 1401.862,756.171 1515.269,940.744 1496.130 C 1002.790 1489.696,1066.803 1466.174,1123.639 1428.924 C 1155.524 1408.026,1211.009 1350.902,1235.170 1314.099 C 1277.679 1249.348,1295.859 1185.086,1295.947 1099.262 C 1296.026 1023.782,1281.669 968.875,1244.370 902.000 C 1195.317 814.051,1084.768 731.195,994.000 714.348 C 957.541 707.582,889.108 704.873,842.000 708.332 M796.000 1708.123 C 713.829 1713.825,564.385 1745.525,466.848 1777.941 C 311.221 1829.664,189.609 1907.718,135.676 1990.498 C 105.692 2036.518,103.232 2050.169,100.978 2183.000 L 98.994 2300.000 900.023 2300.000 L 1701.053 2300.000 1698.947 2181.000 C 1696.529 2044.359,1695.268 2037.518,1663.833 1990.519 C 1591.739 1882.729,1420.447 1790.786,1198.000 1740.476 C 1053.225 1707.734,936.719 1698.357,796.000 1708.123 " fill="#1D1E23" stroke="none" fill-rule="evenodd"/></svg>