<svg viewBox="0 0 2400 2400" fill="none" xmlns="http://www.w3.org/2000/svg"><path d="M1446.000 146.687 C 1421.800 167.805,1334.887 244.429,1252.860 316.963 C 1125.816 429.306,1104.464 449.739,1108.734 454.885 C 1111.492 458.207,1178.539 517.867,1257.728 587.463 C 1336.917 657.058,1423.373 733.139,1449.854 756.530 L 1498.000 799.061 1499.069 699.530 L 1500.137 600.000 1650.069 600.000 L 1800.000 600.000 1800.000 450.000 L 1800.000 300.000 1650.000 300.000 L 1500.000 300.000 1500.000 204.000 C 1500.000 129.789,1498.865 108.033,1495.000 108.146 C 1492.250 108.226,1470.200 125.569,1446.000 146.687 M1900.000 599.885 L 1900.000 700.000 1750.000 700.000 L 1600.000 700.000 1600.000 850.000 L 1600.000 1000.000 1750.000 1000.000 L 1900.000 1000.000 1900.000 1100.145 L 1900.000 1200.291 2059.000 1060.706 C 2310.689 839.750,2301.157 849.176,2285.737 836.509 C 2281.379 832.929,2235.106 792.650,2182.907 747.000 C 2130.708 701.350,2045.700 627.048,1994.000 581.885 L 1900.000 499.770 1900.000 599.885 M822.000 708.476 C 731.016 732.250,668.241 767.518,611.896 826.515 C 560.860 879.954,525.536 946.124,509.675 1018.000 C 498.587 1068.245,500.103 1147.376,513.093 1196.476 C 551.652 1342.211,657.617 1448.278,803.177 1486.834 C 856.600 1500.985,936.834 1501.835,989.228 1488.803 C 1065.937 1469.725,1130.999 1432.560,1184.301 1377.373 C 1262.463 1296.447,1297.551 1209.102,1297.332 1096.000 C 1297.225 1040.574,1289.948 1004.239,1267.895 949.021 C 1232.715 860.938,1162.580 786.581,1072.422 741.782 C 1016.698 714.093,986.271 707.509,906.000 705.769 C 866.402 704.910,831.317 706.041,822.000 708.476 M766.000 1710.103 C 628.535 1727.986,477.790 1767.347,375.891 1811.965 C 233.034 1874.517,138.969 1955.460,111.225 2039.711 C 103.340 2063.658,102.422 2076.422,100.924 2183.000 L 99.280 2300.000 900.162 2300.000 L 1701.044 2300.000 1699.069 2179.000 C 1697.235 2066.560,1696.472 2056.377,1688.282 2035.058 C 1646.228 1925.588,1493.194 1822.133,1284.693 1762.222 C 1195.428 1736.573,1089.037 1715.674,1009.171 1708.101 C 950.938 1702.578,815.254 1703.696,766.000 1710.103 " fill="#1D1E23" stroke="none" fill-rule="evenodd"/></svg>