<svg viewBox="0 0 2400 2400" fill="none" xmlns="http://www.w3.org/2000/svg"><path d="M1300.633 274.411 C 1192.081 369.423,1103.564 448.700,1103.928 450.581 C 1104.293 452.461,1193.558 531.868,1302.296 627.041 L 1500.000 800.082 1500.000 700.041 L 1500.000 600.000 1650.000 600.000 L 1800.000 600.000 1800.000 450.000 L 1800.000 300.000 1650.069 300.000 L 1500.137 300.000 1499.069 200.830 L 1498.000 101.660 1300.633 274.411 M1900.000 599.925 L 1900.000 700.000 1750.000 700.000 L 1600.000 700.000 1600.000 850.000 L 1600.000 1000.000 1750.000 1000.000 L 1900.000 1000.000 1900.000 1100.030 L 1900.000 1200.061 2099.947 1025.089 C 2287.169 861.253,2299.452 849.703,2292.947 843.615 C 2289.126 840.040,2199.150 761.230,2093.000 668.482 L 1900.000 499.850 1900.000 599.925 M854.000 702.416 C 684.744 727.496,557.645 837.837,513.184 998.294 C 503.362 1033.740,502.182 1044.651,502.182 1100.000 C 502.182 1155.127,503.383 1166.333,513.020 1201.089 C 552.609 1343.874,656.126 1447.391,798.911 1486.980 C 833.667 1496.617,844.873 1497.818,900.000 1497.818 C 955.349 1497.818,966.260 1496.638,1001.706 1486.816 C 1125.614 1452.482,1225.213 1364.324,1271.512 1248.000 C 1340.036 1075.840,1278.958 874.514,1126.871 771.233 C 1091.681 747.336,1034.311 721.411,995.826 712.015 C 962.970 703.992,880.862 698.435,854.000 702.416 M812.000 1704.426 C 684.040 1715.627,523.275 1752.089,414.944 1794.479 C 359.358 1816.231,294.499 1848.787,252.000 1876.269 C 201.326 1909.038,142.606 1968.201,125.088 2004.138 C 101.990 2051.524,100.000 2066.175,100.000 2188.840 L 100.000 2300.000 900.264 2300.000 L 1700.528 2300.000 1699.190 2179.000 C 1697.858 2058.634,1697.795 2057.859,1687.143 2031.100 C 1635.641 1901.731,1447.403 1791.958,1178.000 1734.187 C 1036.833 1703.915,923.306 1694.683,812.000 1704.426 " fill="#1D1E23" stroke="none" fill-rule="evenodd"/></svg>