<svg viewBox="0 0 2400 2400" fill="none" xmlns="http://www.w3.org/2000/svg"><path d="M1528.999 403.992 C 1451.722 414.883,1374.987 450.119,1312.661 503.332 C 1260.349 547.995,1210.324 628.644,1189.429 702.000 C 1176.972 745.734,1171.940 836.652,1179.772 876.462 C 1182.403 889.836,1183.747 901.586,1182.759 902.574 C 1179.923 905.410,1098.609 896.591,1047.097 887.860 C 857.909 855.794,670.382 772.231,521.343 653.579 C 466.057 609.566,395.841 541.725,357.476 495.255 C 348.964 484.945,340.900 476.395,339.557 476.255 C 334.481 475.725,306.734 543.091,296.915 579.784 C 288.126 612.625,286.647 626.721,286.398 680.000 C 286.150 732.854,287.493 747.271,295.496 777.732 C 307.816 824.621,326.262 867.729,349.136 903.089 C 369.282 934.231,417.549 986.854,443.528 1006.000 C 452.484 1012.600,459.853 1019.237,459.905 1020.749 C 460.006 1023.657,446.395 1022.314,404.000 1015.230 C 375.965 1010.546,319.640 992.009,294.379 979.154 L 278.759 971.204 281.365 1005.108 C 291.679 1139.297,371.575 1266.269,487.395 1332.536 C 504.007 1342.041,537.402 1356.441,561.606 1364.537 L 605.614 1379.257 587.807 1384.629 C 575.738 1388.269,546.697 1390.000,497.688 1390.000 L 425.376 1390.000 434.726 1413.855 C 484.957 1542.012,608.220 1641.659,744.000 1663.876 C 760.500 1666.576,781.200 1670.019,790.000 1671.527 L 806.000 1674.269 759.756 1705.076 C 664.826 1768.317,562.896 1810.537,453.191 1832.055 C 393.800 1843.704,302.126 1849.695,248.780 1845.414 C 197.772 1841.321,197.842 1840.744,245.899 1868.999 C 349.560 1929.948,494.218 1983.174,617.673 2005.789 C 703.889 2021.583,756.046 2025.235,861.573 2022.866 C 997.165 2019.823,1096.168 2003.480,1211.764 1965.058 C 1373.916 1911.162,1509.585 1828.485,1633.363 1708.133 C 1795.143 1550.833,1904.825 1358.392,1961.716 1132.025 C 1982.511 1049.282,1992.031 978.186,1994.794 885.005 L 1997.196 804.010 2031.598 776.483 C 2075.355 741.471,2134.717 680.161,2169.209 634.358 C 2183.971 614.754,2195.582 598.249,2195.012 597.678 C 2194.441 597.108,2167.880 605.431,2135.987 616.174 C 2079.638 635.155,2026.877 648.403,1986.000 653.835 L 1966.000 656.494 1986.883 642.219 C 2037.643 607.523,2086.354 552.092,2116.122 495.150 C 2132.961 462.939,2145.969 430.295,2140.932 432.888 C 2049.646 479.881,1981.705 506.771,1915.287 522.195 L 1884.574 529.327 1861.667 508.392 C 1807.337 458.737,1742.344 425.214,1670.000 409.532 C 1635.698 402.096,1562.778 399.231,1528.999 403.992 " fill="#1D1E23" stroke="none" fill-rule="evenodd"/></svg>