<svg viewBox="0 0 2400 2400" fill="none" xmlns="http://www.w3.org/2000/svg"><path d="M1498.000 409.635 C 1441.214 422.586,1371.028 456.987,1322.330 495.737 C 1262.324 543.485,1208.760 629.277,1187.503 711.684 C 1177.658 749.850,1173.335 835.697,1179.340 873.806 C 1181.749 889.100,1183.011 902.322,1182.143 903.190 C 1181.276 904.058,1161.089 902.737,1137.283 900.256 C 938.932 879.579,756.196 814.236,594.000 705.987 C 524.986 659.928,487.470 628.126,409.434 549.535 L 336.869 476.453 324.911 503.226 C 281.134 601.248,273.176 712.633,303.485 803.102 C 329.301 880.157,355.238 920.565,419.072 983.179 C 439.919 1003.627,456.306 1021.009,455.488 1021.805 C 452.634 1024.582,389.774 1012.883,360.000 1004.033 C 343.500 999.129,318.750 990.028,305.000 983.809 L 280.000 972.502 280.000 989.727 C 280.000 1015.212,290.416 1070.115,301.300 1102.000 C 330.831 1188.510,391.370 1269.080,462.805 1316.945 C 493.547 1337.543,511.056 1345.875,566.000 1366.052 C 601.493 1379.086,601.833 1379.337,590.143 1383.863 C 583.621 1386.388,544.471 1389.533,503.143 1390.853 C 461.814 1392.172,428.000 1394.671,428.000 1396.404 C 428.000 1398.138,434.309 1413.402,442.021 1430.324 C 479.608 1512.803,545.718 1581.561,628.000 1623.752 C 672.687 1646.666,707.068 1657.693,764.261 1667.454 L 806.000 1674.577 762.000 1703.365 C 675.185 1760.165,590.139 1797.855,494.000 1822.135 C 422.744 1840.130,374.999 1845.545,286.621 1845.655 L 211.243 1845.749 222.159 1854.454 C 241.427 1869.817,340.268 1918.578,398.000 1941.200 C 486.048 1975.702,578.933 2001.136,664.000 2014.038 C 758.356 2028.350,936.012 2025.360,1040.000 2007.711 C 1275.465 1967.747,1478.384 1862.810,1646.039 1694.303 C 1791.317 1548.288,1887.968 1384.361,1947.332 1183.289 C 1978.597 1077.389,1990.766 1000.195,1994.641 883.171 L 1997.251 804.343 2038.300 770.220 C 2060.876 751.453,2095.002 719.142,2114.135 698.417 C 2150.542 658.981,2193.598 604.265,2190.591 601.257 C 2189.625 600.292,2162.997 607.677,2131.418 617.669 C 2070.793 636.850,2019.175 649.791,1986.000 654.126 L 1966.000 656.739 1988.000 641.646 C 2040.132 605.880,2097.758 535.952,2126.672 473.371 C 2140.957 442.454,2142.937 433.878,2135.000 437.300 C 2132.250 438.486,2106.600 450.220,2078.000 463.376 C 2019.482 490.295,1960.881 511.451,1915.192 522.155 L 1884.383 529.372 1866.591 512.972 C 1819.437 469.507,1754.893 432.722,1696.000 415.749 C 1657.369 404.615,1536.387 400.879,1498.000 409.635 " fill="#1D1E23" stroke="none" fill-rule="evenodd"/></svg>