<svg viewBox="0 0 2400 2400" fill="none" xmlns="http://www.w3.org/2000/svg"><path d="M1511.425 407.874 C 1443.165 416.563,1330.175 478.730,1282.927 533.594 C 1203.543 625.774,1170.636 726.284,1177.698 855.000 C 1180.210 900.779,1179.906 904.000,1173.074 904.000 C 1169.052 904.000,1143.315 901.232,1115.881 897.848 C 893.579 870.431,684.362 783.818,518.854 650.688 C 497.235 633.299,447.438 586.830,408.193 547.425 L 336.838 475.779 324.248 506.023 C 270.170 635.923,272.603 755.206,331.694 871.181 C 348.589 904.340,365.343 926.303,411.696 976.060 C 434.397 1000.427,452.220 1021.113,451.304 1022.030 C 450.387 1022.946,431.719 1020.047,409.819 1015.588 C 367.230 1006.916,319.785 991.915,294.376 979.088 L 278.753 971.201 281.212 1002.601 C 288.718 1098.414,330.649 1189.086,401.779 1263.312 C 449.895 1313.523,504.440 1346.505,581.000 1371.687 C 613.967 1382.530,596.922 1386.584,496.808 1391.712 C 460.952 1393.548,430.761 1395.905,429.717 1396.950 C 428.673 1397.994,433.371 1411.226,440.159 1426.354 C 477.210 1508.933,552.757 1586.307,638.000 1628.977 C 668.479 1644.234,713.595 1658.195,759.023 1666.427 C 781.586 1670.516,799.508 1675.475,798.851 1677.448 C 797.105 1682.685,715.551 1733.215,676.000 1753.565 C 560.910 1812.780,458.770 1838.438,310.000 1845.504 L 214.000 1850.064 244.000 1867.841 C 348.680 1929.870,519.557 1990.092,653.520 2012.167 C 747.099 2027.587,913.132 2026.519,1026.693 2009.766 C 1241.026 1978.147,1449.193 1877.824,1609.143 1729.064 C 1781.954 1568.342,1892.829 1383.832,1955.912 1152.000 C 1981.023 1059.715,1990.907 990.209,1994.696 879.269 L 1997.248 804.537 2042.444 766.052 C 2094.181 721.998,2160.651 650.158,2185.685 611.239 L 2192.607 600.477 2177.304 604.613 C 2168.887 606.887,2135.508 616.611,2103.128 626.221 C 2044.775 643.540,1977.064 658.397,1973.361 654.695 C 1972.303 653.637,1980.048 646.847,1990.572 639.606 C 2036.454 608.039,2096.293 535.715,2124.154 478.154 C 2140.685 444.001,2143.424 433.680,2135.000 437.282 C 2132.250 438.458,2108.400 449.246,2082.000 461.256 C 2020.762 489.116,1967.587 508.717,1921.844 520.294 L 1885.689 529.444 1854.245 503.093 C 1801.714 459.069,1725.379 420.138,1676.222 412.303 C 1639.645 406.473,1542.867 403.872,1511.425 407.874 " fill="#1D1E23" stroke="none" fill-rule="evenodd"/></svg>