<svg viewBox="0 0 2400 2400" fill="none" xmlns="http://www.w3.org/2000/svg"><path d="M1497.472 412.025 C 1449.630 418.631,1353.421 469.436,1305.357 513.475 C 1218.433 593.121,1174.880 705.878,1176.486 847.122 C 1176.818 876.339,1175.968 901.366,1174.597 902.736 C 1173.226 904.107,1149.131 902.187,1121.052 898.470 C 887.279 867.519,675.528 779.321,516.000 646.454 C 497.300 630.880,449.389 586.117,409.530 546.981 L 337.060 475.826 328.796 495.035 C 299.181 563.879,286.891 619.902,286.906 686.000 C 286.916 729.002,288.688 744.693,297.147 776.678 C 318.132 856.028,340.210 895.009,407.770 972.000 C 444.401 1013.744,447.251 1018.113,438.581 1019.216 C 421.347 1021.410,325.627 994.748,294.376 979.049 L 278.753 971.201 281.194 1002.601 C 285.672 1060.183,314.295 1142.082,347.794 1193.162 C 401.348 1274.822,461.593 1324.469,550.479 1360.193 C 573.316 1369.371,592.000 1378.282,592.000 1379.995 C 592.000 1384.628,573.061 1387.166,500.000 1392.323 C 463.700 1394.886,433.286 1397.625,432.414 1398.410 C 431.542 1399.196,434.772 1410.145,439.593 1422.742 C 461.067 1478.858,531.276 1561.499,591.518 1601.568 C 630.014 1627.174,670.686 1644.004,732.628 1659.961 C 760.374 1667.109,785.534 1674.555,788.538 1676.508 C 795.608 1681.104,786.356 1688.572,736.111 1718.822 C 594.635 1803.999,480.528 1837.105,296.000 1846.513 C 266.300 1848.027,237.595 1850.435,232.211 1851.864 C 223.155 1854.268,224.202 1855.534,246.211 1868.790 C 343.849 1927.596,537.420 1994.283,669.342 2014.563 C 720.710 2022.460,923.423 2023.694,980.000 2016.456 C 1196.350 1988.774,1384.981 1910.394,1548.000 1780.438 C 1598.101 1740.498,1693.740 1644.560,1735.851 1592.000 C 1828.796 1475.990,1908.380 1320.052,1949.756 1172.873 C 1977.919 1072.693,1991.094 986.566,1994.704 879.049 L 1997.220 804.098 2027.183 779.049 C 2079.851 735.019,2193.293 611.959,2187.008 605.674 C 2185.840 604.507,2155.060 611.752,2118.607 621.774 C 2023.309 647.974,1983.233 656.833,1979.029 652.629 C 1976.876 650.476,1980.812 645.678,1988.763 640.764 C 2005.633 630.338,2056.802 577.470,2080.481 546.000 C 2107.185 510.510,2140.000 452.902,2140.000 441.512 C 2140.000 437.424,2127.148 441.886,2076.776 463.464 C 2013.844 490.421,1940.194 516.777,1907.450 524.058 L 1884.900 529.072 1857.450 507.019 C 1824.272 480.364,1795.454 461.828,1757.557 442.766 C 1704.260 415.960,1690.227 413.071,1602.000 410.746 C 1558.000 409.587,1510.962 410.162,1497.472 412.025 " fill="#1D1E23" stroke="none" fill-rule="evenodd"/></svg>