<svg viewBox="0 0 2400 2400" fill="none" xmlns="http://www.w3.org/2000/svg"><path d="M1088.000 206.365 C 1082.500 207.341,1060.000 210.943,1038.000 214.370 C 769.047 256.271,515.107 421.117,364.311 651.699 C 287.801 768.691,231.318 916.562,209.325 1057.450 C 200.391 1114.678,200.507 1286.040,209.518 1343.839 C 233.131 1495.302,294.613 1648.551,382.094 1774.000 C 536.263 1995.081,767.330 2139.270,1046.000 2188.287 C 1111.795 2199.860,1280.853 2201.017,1342.000 2190.313 C 1502.994 2162.130,1632.285 2112.115,1754.000 2030.935 C 2041.805 1838.979,2211.815 1508.313,2198.701 1166.000 C 2186.198 839.615,2022.214 547.354,1750.000 366.296 C 1665.745 310.256,1532.550 252.041,1438.000 229.932 C 1352.975 210.050,1328.860 207.500,1212.000 206.028 C 1149.300 205.238,1093.500 205.390,1088.000 206.365 M1266.000 404.219 C 1510.640 425.302,1729.489 554.522,1864.401 757.547 C 2061.310 1053.868,2039.279 1442.225,1810.063 1715.408 C 1653.899 1901.527,1415.174 2007.575,1172.020 1998.846 C 1015.900 1993.241,861.732 1940.377,730.098 1847.311 C 690.853 1819.565,600.112 1731.929,571.356 1694.000 C 494.846 1593.087,441.151 1476.899,417.965 1362.085 C 360.620 1078.124,456.419 792.201,673.499 599.415 C 832.760 457.978,1051.938 385.771,1266.000 404.219 M780.976 889.023 L 676.009 994.047 728.968 1047.006 L 781.928 1099.965 834.964 1047.038 L 888.000 994.111 941.055 1047.057 L 994.109 1100.002 1047.042 1046.960 L 1099.975 993.918 994.960 888.959 C 937.201 831.232,889.044 784.000,887.944 784.000 C 886.844 784.000,838.708 831.260,780.976 889.023 M1404.976 889.023 L 1300.009 994.047 1352.968 1047.006 L 1405.928 1099.965 1458.964 1047.038 L 1512.000 994.111 1565.055 1047.057 L 1618.109 1100.002 1671.042 1046.960 L 1723.975 993.918 1618.960 888.959 C 1561.201 831.232,1513.044 784.000,1511.944 784.000 C 1510.844 784.000,1462.708 831.260,1404.976 889.023 M701.793 1429.823 C 742.102 1518.275,823.392 1610.425,909.964 1665.804 C 945.871 1688.774,978.241 1703.697,1027.468 1719.975 C 1087.870 1739.949,1137.437 1748.000,1200.000 1748.000 C 1262.563 1748.000,1312.130 1739.949,1372.532 1719.975 C 1421.759 1703.697,1454.129 1688.774,1490.036 1665.804 C 1576.608 1610.425,1657.898 1518.275,1698.207 1429.823 L 1711.798 1400.000 1200.000 1400.000 L 688.202 1400.000 701.793 1429.823 " fill="#1D1E23" stroke="none" fill-rule="evenodd"/></svg>