<svg viewBox="0 0 2400 2400" fill="none" xmlns="http://www.w3.org/2000/svg"><path d="M1078.000 211.968 C 944.002 221.853,780.915 281.918,648.000 370.338 C 531.429 447.885,417.735 565.233,347.979 680.000 C 294.132 768.593,239.117 908.458,218.057 1010.302 C 201.388 1090.915,199.865 1300.677,215.403 1376.000 C 272.465 1652.618,422.830 1880.171,648.000 2030.664 C 778.050 2117.583,939.546 2176.247,1092.000 2191.948 C 1150.511 2197.974,1276.972 2196.868,1330.410 2189.862 C 1507.735 2166.617,1699.721 2082.604,1836.598 1968.355 C 2016.678 1818.045,2144.957 1596.422,2183.523 1368.987 C 2212.303 1199.260,2199.830 1046.468,2143.343 876.788 C 2064.902 641.165,1890.671 438.350,1663.745 318.509 C 1609.313 289.763,1568.617 272.575,1507.674 252.594 C 1434.253 228.521,1399.590 220.858,1344.000 216.411 C 1271.260 210.593,1128.883 208.214,1078.000 211.968 M1274.000 408.069 C 1486.306 427.669,1685.977 533.785,1815.780 696.000 C 1898.938 799.922,1955.713 919.352,1981.648 1044.912 C 1991.642 1093.295,1997.349 1216.926,1992.196 1273.400 C 1971.126 1504.285,1846.441 1719.870,1656.689 1853.500 C 1588.462 1901.548,1489.181 1948.014,1408.000 1969.895 C 1259.758 2009.849,1100.667 2006.407,960.219 1960.206 C 877.263 1932.917,785.166 1887.605,736.000 1849.891 C 670.531 1799.670,579.365 1705.710,542.053 1650.000 C 499.450 1586.390,450.329 1479.444,431.999 1410.391 C 400.801 1292.866,396.575 1156.969,420.416 1038.000 C 457.790 851.505,579.976 663.689,738.000 549.832 C 782.032 518.107,892.204 462.125,944.773 444.765 C 1049.205 410.276,1161.876 397.718,1274.000 408.069 M858.792 833.577 C 834.674 842.495,816.627 856.889,768.850 905.314 C 714.471 960.430,704.819 978.067,712.200 1008.835 C 721.456 1047.416,763.584 1075.481,795.236 1064.152 C 814.334 1057.316,837.503 1041.349,865.643 1015.631 L 888.192 995.021 909.148 1014.840 C 920.673 1025.740,940.725 1041.710,953.707 1050.329 C 982.713 1069.587,1001.887 1070.686,1029.232 1054.662 C 1063.272 1034.713,1075.500 999.638,1059.103 968.980 C 1037.715 928.990,963.117 854.230,930.000 839.597 C 906.877 829.380,876.979 826.852,858.792 833.577 M1482.792 833.577 C 1459.861 842.056,1439.580 857.515,1399.833 896.810 C 1360.664 935.534,1337.638 966.798,1333.671 986.642 C 1327.941 1015.301,1355.118 1056.223,1385.273 1064.343 C 1414.051 1072.092,1442.282 1058.916,1489.643 1015.631 L 1512.192 995.021 1533.148 1014.840 C 1544.673 1025.740,1564.725 1041.710,1577.707 1050.329 C 1606.713 1069.587,1625.887 1070.686,1653.232 1054.662 C 1687.272 1034.713,1699.500 999.638,1683.103 968.980 C 1661.715 928.990,1587.117 854.230,1554.000 839.597 C 1530.877 829.380,1500.979 826.852,1482.792 833.577 M928.000 1407.730 C 796.553 1409.519,743.589 1411.558,737.320 1415.073 C 724.303 1422.370,718.251 1444.492,724.207 1463.000 C 733.204 1490.953,765.534 1533.816,815.858 1584.508 C 888.324 1657.504,940.369 1689.734,1039.941 1723.275 L 1094.000 1741.485 1181.893 1743.147 C 1282.769 1745.055,1310.444 1741.824,1369.835 1721.205 C 1486.980 1680.536,1587.773 1603.301,1654.646 1502.961 C 1678.399 1467.320,1682.117 1453.453,1673.617 1432.209 C 1669.999 1423.166,1663.204 1413.569,1658.519 1410.883 C 1648.719 1405.266,1239.081 1403.498,928.000 1407.730 " fill="#1D1E23" stroke="none" fill-rule="evenodd"/></svg>