<svg viewBox="0 0 2400 2400" fill="none" xmlns="http://www.w3.org/2000/svg"><path d="M1064.000 212.225 C 993.691 218.654,881.136 249.908,800.518 285.388 C 624.338 362.925,464.822 498.436,361.865 658.033 C 309.405 739.353,265.643 837.655,236.169 940.380 C 211.036 1027.977,207.649 1053.267,205.125 1172.196 C 202.412 1299.997,206.479 1346.139,227.831 1429.830 C 304.474 1730.238,492.517 1964.768,762.000 2096.053 C 855.834 2141.767,933.291 2166.816,1034.000 2184.015 C 1133.782 2201.057,1268.581 2201.775,1361.702 2185.760 C 1538.290 2155.392,1721.845 2069.636,1849.372 1957.925 C 2149.527 1694.996,2267.910 1297.025,2157.942 920.601 C 2108.617 751.759,2022.675 609.433,1895.488 485.955 C 1760.443 354.848,1598.523 267.960,1406.000 223.290 C 1355.180 211.499,1145.962 204.730,1064.000 212.225 M1287.158 408.247 C 1556.534 437.697,1788.969 599.273,1910.863 841.813 C 1938.710 897.222,1957.093 945.349,1971.924 1001.674 C 1986.944 1058.714,1990.974 1090.207,1994.233 1176.000 C 1997.080 1250.956,1993.509 1297.702,1979.795 1365.005 C 1950.808 1507.254,1867.612 1660.483,1762.048 1766.048 C 1629.243 1898.852,1440.200 1984.568,1254.852 1996.020 C 1107.516 2005.123,983.283 1980.563,848.418 1915.670 C 816.748 1900.431,776.248 1878.250,758.418 1866.379 C 693.514 1823.165,583.536 1713.367,539.344 1647.664 C 510.368 1604.584,459.907 1500.907,443.137 1450.000 C 412.672 1357.516,401.470 1274.055,405.287 1168.000 C 409.667 1046.335,434.062 951.378,489.040 842.000 C 548.441 723.821,637.903 619.970,746.288 543.374 C 795.772 508.404,884.405 464.413,949.285 442.622 C 988.197 429.553,1061.631 413.223,1102.000 408.662 C 1147.749 403.493,1241.749 403.282,1287.158 408.247 M780.976 889.023 L 676.009 994.047 728.968 1047.006 L 781.928 1099.965 834.964 1047.038 L 888.000 994.111 941.055 1047.057 L 994.109 1100.002 1047.042 1046.960 L 1099.975 993.918 994.960 888.959 C 937.201 831.232,889.044 784.000,887.944 784.000 C 886.844 784.000,838.708 831.260,780.976 889.023 M1404.976 889.023 L 1300.009 994.047 1352.968 1047.006 L 1405.928 1099.965 1458.964 1047.038 L 1512.000 994.111 1565.055 1047.057 L 1618.109 1100.002 1671.042 1046.960 L 1723.975 993.918 1618.960 888.959 C 1561.201 831.232,1513.044 784.000,1511.944 784.000 C 1510.844 784.000,1462.708 831.260,1404.976 889.023 M698.563 1422.889 C 745.062 1528.033,852.782 1640.513,954.000 1689.614 C 1080.280 1750.874,1222.538 1763.841,1354.000 1726.076 C 1423.468 1706.120,1500.300 1663.267,1561.516 1610.334 C 1610.205 1568.234,1674.583 1482.737,1699.564 1427.000 L 1711.665 1400.000 1200.053 1400.000 L 688.440 1400.000 698.563 1422.889 " fill="#1D1E23" stroke="none" fill-rule="evenodd"/></svg>