<svg viewBox="0 0 2400 2400" fill="none" xmlns="http://www.w3.org/2000/svg"><path d="M1108.000 204.169 C 804.924 233.289,534.020 395.653,365.180 649.372 C 305.848 738.531,254.967 855.898,228.334 965.033 C 207.086 1052.100,202.157 1096.350,202.157 1200.000 C 202.157 1303.650,207.086 1347.900,228.334 1434.967 C 246.537 1509.557,269.158 1571.519,303.917 1642.000 C 450.723 1939.676,725.602 2139.173,1060.000 2190.738 C 1117.585 2199.617,1271.401 2200.683,1326.000 2192.581 C 1487.801 2168.571,1624.342 2117.548,1750.052 2034.120 C 1865.649 1957.404,1954.728 1868.600,2031.752 1753.288 C 2334.917 1299.425,2217.204 688.422,1766.548 376.721 C 1641.894 290.502,1499.942 234.667,1346.853 211.638 C 1285.605 202.425,1165.307 198.663,1108.000 204.169 M1274.000 404.133 C 1456.349 421.235,1623.340 498.040,1755.450 625.571 C 2004.489 865.978,2070.161 1239.929,1917.944 1550.849 C 1796.348 1799.221,1559.627 1964.889,1282.000 1995.912 C 1085.155 2017.907,873.543 1957.479,710.000 1832.570 C 674.030 1805.098,606.674 1738.415,576.092 1700.000 C 537.021 1650.922,510.707 1609.106,481.701 1550.000 C 346.093 1273.664,382.928 942.169,576.152 700.000 C 606.996 661.343,669.507 599.393,708.000 569.335 C 866.875 445.271,1072.549 385.240,1274.000 404.133 M852.000 830.702 C 829.251 838.992,726.895 937.498,715.571 962.000 C 706.171 982.337,706.154 1005.597,715.523 1026.000 C 724.262 1045.031,733.182 1053.560,753.018 1061.847 C 788.131 1076.518,814.364 1067.204,857.000 1024.927 L 888.000 994.188 919.000 1024.927 C 951.939 1057.589,970.411 1068.054,994.872 1067.912 C 1012.209 1067.811,1038.805 1056.728,1048.847 1045.419 C 1068.041 1023.804,1072.874 988.864,1060.387 962.000 C 1051.634 943.168,952.790 844.468,932.181 833.980 C 912.859 824.147,874.313 822.572,852.000 830.702 M1476.000 830.702 C 1453.408 838.935,1352.366 936.456,1340.034 961.930 C 1330.087 982.478,1329.907 1005.059,1339.523 1026.000 C 1348.262 1045.031,1357.182 1053.560,1377.018 1061.847 C 1412.131 1076.518,1438.364 1067.204,1481.000 1024.927 L 1512.000 994.188 1543.000 1024.927 C 1575.939 1057.589,1594.411 1068.054,1618.872 1067.912 C 1636.209 1067.811,1662.805 1056.728,1672.847 1045.419 C 1692.041 1023.804,1696.874 988.864,1684.387 962.000 C 1675.634 943.168,1576.790 844.468,1556.181 833.980 C 1536.859 824.147,1498.313 822.572,1476.000 830.702 M749.674 1403.848 C 733.890 1410.285,720.000 1431.336,720.000 1448.820 C 720.000 1489.932,802.469 1590.371,884.000 1648.556 C 976.697 1714.709,1084.059 1748.750,1200.000 1748.750 C 1263.980 1748.750,1313.693 1740.959,1370.577 1722.017 C 1486.511 1683.412,1587.422 1606.897,1654.826 1506.489 C 1686.716 1458.984,1688.702 1438.857,1663.944 1414.097 L 1651.847 1402.000 1204.924 1401.227 C 959.116 1400.801,754.253 1401.981,749.674 1403.848 " fill="#1D1E23" stroke="none" fill-rule="evenodd"/></svg>