<svg viewBox="0 0 2400 2400" fill="none" xmlns="http://www.w3.org/2000/svg"><path d="M1030.000 215.826 C 850.321 249.636,712.253 312.935,568.960 427.195 C 389.708 570.130,268.324 773.976,215.460 1020.847 C 203.311 1077.579,199.754 1275.466,209.673 1342.737 C 234.212 1509.160,315.199 1693.794,422.527 1828.000 C 506.790 1933.366,625.763 2029.003,750.000 2091.241 C 914.281 2173.539,1079.897 2206.779,1272.000 2196.008 C 1460.235 2185.454,1670.283 2102.887,1826.000 1978.239 C 1867.499 1945.020,1940.561 1871.475,1977.239 1826.000 C 2088.949 1687.499,2162.988 1517.506,2190.656 1336.000 C 2199.270 1279.493,2200.447 1136.096,2192.742 1082.000 C 2158.975 844.940,2064.228 651.595,1903.668 492.101 C 1765.859 355.207,1589.485 261.714,1389.080 219.323 C 1354.798 212.072,1332.812 210.887,1210.000 209.678 C 1086.003 208.456,1065.428 209.159,1030.000 215.826 M1310.000 410.420 C 1610.920 451.243,1861.093 660.415,1957.738 952.000 C 1984.562 1032.933,1992.659 1082.579,1994.949 1180.157 C 1996.442 1243.790,1995.381 1272.650,1990.244 1308.157 C 1977.413 1396.838,1955.795 1468.100,1918.011 1546.261 C 1802.278 1785.673,1588.289 1944.084,1317.828 1990.564 C 1262.325 2000.103,1136.899 2000.149,1082.000 1990.651 C 990.637 1974.844,918.238 1951.465,839.843 1912.455 C 756.714 1871.089,717.746 1842.244,639.630 1764.255 C 559.047 1683.803,530.383 1644.314,484.111 1550.000 C 442.233 1464.641,419.714 1389.335,408.190 1296.105 C 402.798 1252.485,402.801 1147.473,408.196 1103.895 C 437.429 867.748,570.830 655.429,771.149 526.221 C 812.454 499.579,898.493 458.959,948.976 442.266 C 1061.965 404.906,1187.636 393.820,1310.000 410.420 M780.976 889.023 L 676.009 994.047 728.968 1047.006 L 781.928 1099.965 834.964 1047.038 L 888.000 994.111 941.055 1047.057 L 994.109 1100.002 1047.042 1046.960 L 1099.975 993.918 994.960 888.959 C 937.201 831.232,889.044 784.000,887.944 784.000 C 886.844 784.000,838.708 831.260,780.976 889.023 M1404.976 889.023 L 1300.009 994.047 1352.968 1047.006 L 1405.928 1099.965 1458.964 1047.038 L 1512.000 994.111 1565.055 1047.057 L 1618.109 1100.002 1671.042 1046.960 L 1723.975 993.918 1618.960 888.959 C 1561.201 831.232,1513.044 784.000,1511.944 784.000 C 1510.844 784.000,1462.708 831.260,1404.976 889.023 M702.180 1430.674 C 752.927 1542.029,868.732 1655.692,978.076 1701.464 C 1179.412 1785.745,1396.052 1753.679,1555.385 1616.014 C 1612.217 1566.910,1669.998 1491.724,1697.820 1430.674 L 1711.798 1400.000 1200.000 1400.000 L 688.202 1400.000 702.180 1430.674 " fill="#1D1E23" stroke="none" fill-rule="evenodd"/></svg>