<svg viewBox="0 0 2400 2400" fill="none" xmlns="http://www.w3.org/2000/svg"><path d="M1064.000 212.225 C 993.691 218.654,881.136 249.908,800.518 285.388 C 624.338 362.925,464.822 498.436,361.865 658.033 C 309.405 739.353,265.643 837.655,236.169 940.380 C 211.036 1027.977,207.649 1053.267,205.125 1172.196 C 202.412 1299.997,206.479 1346.139,227.831 1429.830 C 304.474 1730.238,492.517 1964.768,762.000 2096.053 C 855.834 2141.767,933.291 2166.816,1034.000 2184.015 C 1133.782 2201.057,1268.581 2201.775,1361.702 2185.760 C 1538.290 2155.392,1721.845 2069.636,1849.372 1957.925 C 2149.527 1694.996,2267.910 1297.025,2157.942 920.601 C 2108.617 751.759,2022.675 609.433,1895.488 485.955 C 1760.443 354.848,1598.523 267.960,1406.000 223.290 C 1355.180 211.499,1145.962 204.730,1064.000 212.225 M1287.158 408.247 C 1556.534 437.697,1788.969 599.273,1910.863 841.813 C 1938.710 897.222,1957.093 945.349,1971.924 1001.674 C 1986.944 1058.714,1990.974 1090.207,1994.233 1176.000 C 1997.080 1250.956,1993.509 1297.702,1979.795 1365.005 C 1950.808 1507.254,1867.612 1660.483,1762.048 1766.048 C 1629.243 1898.852,1440.200 1984.568,1254.852 1996.020 C 1107.516 2005.123,983.283 1980.563,848.418 1915.670 C 816.748 1900.431,776.248 1878.250,758.418 1866.379 C 693.514 1823.165,583.536 1713.367,539.344 1647.664 C 510.368 1604.584,459.907 1500.907,443.137 1450.000 C 412.672 1357.516,401.470 1274.055,405.287 1168.000 C 409.667 1046.335,434.062 951.378,489.040 842.000 C 548.441 723.821,637.903 619.970,746.288 543.374 C 795.772 508.404,884.405 464.413,949.285 442.622 C 988.197 429.553,1061.631 413.223,1102.000 408.662 C 1147.749 403.493,1241.749 403.282,1287.158 408.247 M858.000 832.665 C 836.763 840.667,811.661 860.336,772.384 899.751 C 721.879 950.433,709.992 967.954,710.029 991.658 C 710.075 1021.228,724.384 1045.483,749.027 1057.763 C 760.326 1063.393,774.264 1068.000,780.000 1068.000 C 797.245 1068.000,828.292 1049.847,859.035 1021.788 L 888.055 995.302 917.027 1022.250 C 932.962 1037.071,955.783 1053.712,967.740 1059.230 C 987.656 1068.422,991.005 1068.856,1007.667 1064.399 C 1031.924 1057.911,1051.229 1042.544,1060.348 1022.464 C 1070.457 1000.202,1069.892 989.367,1057.299 964.097 C 1044.305 938.022,966.990 858.421,938.841 842.137 C 917.089 829.554,878.314 825.010,858.000 832.665 M1482.000 832.665 C 1460.420 840.796,1434.672 860.993,1393.822 901.832 C 1353.064 942.580,1331.958 974.675,1332.039 995.785 C 1332.110 1014.200,1349.975 1046.096,1365.643 1055.779 C 1400.575 1077.369,1432.275 1068.199,1483.027 1021.825 L 1512.055 995.302 1541.027 1022.250 C 1556.962 1037.071,1579.783 1053.712,1591.740 1059.230 C 1611.656 1068.422,1615.005 1068.856,1631.667 1064.399 C 1655.924 1057.911,1675.229 1042.544,1684.348 1022.464 C 1694.457 1000.202,1693.892 989.367,1681.299 964.097 C 1668.305 938.022,1590.990 858.421,1562.841 842.137 C 1541.089 829.554,1502.314 825.010,1482.000 832.665 M838.000 1407.858 C 787.400 1409.039,742.783 1411.572,738.852 1413.487 C 726.752 1419.382,719.113 1438.911,722.067 1456.397 C 729.294 1499.175,826.245 1609.157,899.242 1657.386 C 949.867 1690.835,1011.024 1717.529,1075.396 1734.274 C 1110.949 1743.522,1120.954 1744.316,1202.000 1744.317 C 1296.852 1744.318,1312.610 1741.957,1380.687 1717.541 C 1492.069 1677.593,1592.544 1598.614,1656.584 1500.669 C 1679.514 1465.600,1683.361 1450.205,1673.872 1431.486 C 1658.539 1401.240,1696.656 1403.901,1292.380 1404.855 C 1093.071 1405.325,888.600 1406.676,838.000 1407.858 " fill="#1D1E23" stroke="none" fill-rule="evenodd"/></svg>