<svg viewBox="0 0 2400 2400" fill="none" xmlns="http://www.w3.org/2000/svg"><path d="M884.000 504.342 C 636.729 509.979,473.394 519.933,424.798 532.328 C 362.890 548.118,301.593 592.723,271.216 644.088 C 253.969 673.252,230.726 743.435,222.230 792.000 C 209.067 867.240,203.148 968.851,201.103 1154.651 C 197.549 1477.579,214.035 1640.877,260.118 1739.216 C 279.397 1780.356,297.442 1803.143,329.692 1827.071 C 408.344 1885.427,483.947 1894.149,998.884 1904.272 C 1367.648 1911.522,1860.765 1897.743,1959.972 1877.416 C 2039.122 1861.198,2101.850 1815.957,2133.864 1752.000 C 2171.522 1676.765,2184.460 1606.580,2196.269 1413.461 C 2206.626 1244.098,2196.326 898.067,2177.770 792.000 C 2169.274 743.435,2146.031 673.252,2128.784 644.088 C 2098.407 592.723,2037.110 548.118,1975.202 532.328 C 1880.788 508.247,1331.123 494.150,884.000 504.342 M1267.425 1043.963 C 1412.762 1119.843,1530.397 1183.114,1528.837 1184.566 C 1525.524 1187.649,1000.404 1460.000,997.772 1460.000 C 996.798 1460.000,996.000 1334.750,996.000 1181.667 C 996.000 1019.085,997.492 903.888,999.588 904.667 C 1001.562 905.400,1122.088 968.083,1267.425 1043.963 " fill="#1D1E23" stroke="none" fill-rule="evenodd"/></svg>