<svg viewBox="0 0 2400 2400" fill="none" xmlns="http://www.w3.org/2000/svg"><path d="M950.000 504.229 C 705.887 508.526,504.934 518.793,446.000 529.980 C 371.087 544.200,308.415 586.096,272.179 646.182 C 245.135 691.023,221.943 775.189,212.159 864.000 C 200.813 966.974,196.233 1286.110,204.120 1424.000 C 221.060 1720.116,272.645 1827.872,416.645 1867.944 C 509.188 1893.696,756.407 1905.103,1222.000 1905.103 C 1596.114 1905.103,1815.532 1897.830,1926.000 1881.766 C 2035.702 1865.814,2099.045 1822.360,2140.004 1734.956 C 2180.853 1647.787,2194.711 1539.386,2198.679 1276.000 C 2202.252 1038.761,2191.501 844.837,2170.050 759.606 C 2146.543 666.202,2123.527 625.040,2071.432 583.231 C 2037.073 555.656,1996.632 537.450,1953.904 530.321 C 1876.306 517.375,1724.827 509.940,1418.000 504.018 C 1200.472 499.819,1200.510 499.819,950.000 504.229 M1175.399 996.602 C 1352.366 1088.679,1505.675 1170.084,1517.430 1178.216 C 1524.347 1183.000,1523.793 1184.020,1509.430 1192.948 C 1486.938 1206.929,1443.668 1229.935,1276.000 1317.061 C 1074.271 1421.886,1003.644 1456.977,1000.572 1453.909 C 996.908 1450.250,994.789 1037.369,998.085 969.000 C 1000.335 922.295,1001.912 912.000,1006.815 912.000 C 1010.106 912.000,1085.969 950.071,1175.399 996.602 " fill="#1D1E23" stroke="none" fill-rule="evenodd"/></svg>