<svg viewBox="0 0 2400 2400" fill="none" xmlns="http://www.w3.org/2000/svg"><path d="M806.000 508.334 C 614.039 514.777,477.616 524.263,433.027 534.269 C 386.183 544.780,320.215 584.865,290.915 620.622 C 254.687 664.833,223.590 761.222,212.396 864.000 C 199.612 981.381,196.587 1380.562,207.669 1488.000 C 229.249 1697.239,265.412 1785.939,351.366 1840.460 C 434.376 1893.114,645.695 1906.878,1306.000 1902.637 C 1768.429 1899.667,1886.963 1894.260,1973.214 1872.201 C 2014.080 1861.749,2033.016 1852.940,2062.000 1830.898 C 2132.823 1777.036,2168.482 1695.097,2185.901 1546.191 C 2205.690 1377.021,2203.403 973.340,2181.822 826.000 C 2164.230 705.896,2131.818 633.905,2075.101 588.958 C 2007.169 535.123,1969.554 526.018,1774.000 516.075 C 1551.053 504.739,1035.872 500.619,806.000 508.334 M1162.000 990.769 C 1343.159 1084.337,1490.647 1162.609,1505.196 1172.902 C 1511.354 1177.259,1515.728 1182.889,1514.918 1185.412 C 1512.122 1194.109,1392.862 1258.227,1129.224 1392.772 L 1004.447 1456.451 1001.325 1441.225 C 997.329 1421.735,997.685 933.082,1001.705 920.711 C 1003.814 914.219,1006.722 912.170,1011.361 913.908 C 1015.013 915.275,1082.800 949.863,1162.000 990.769 " fill="#1D1E23" stroke="none" fill-rule="evenodd"/></svg>