<svg viewBox="0 0 2400 2400" fill="none" xmlns="http://www.w3.org/2000/svg"><path d="M1044.000 502.464 C 714.811 508.087,485.414 519.999,428.315 534.437 C 372.547 548.538,309.596 590.984,279.434 634.823 C 251.705 675.125,225.329 761.577,214.393 848.000 C 201.178 952.429,195.208 1284.103,203.989 1426.000 C 217.101 1637.901,244.540 1738.233,307.693 1805.198 C 348.862 1848.852,400.456 1870.053,494.000 1881.757 C 641.264 1900.183,842.158 1905.340,1314.869 1902.829 C 1929.354 1899.565,2004.821 1890.485,2086.364 1810.000 C 2142.472 1754.621,2170.542 1680.213,2185.958 1546.000 C 2203.162 1396.225,2204.151 1045.254,2187.846 876.000 C 2179.221 786.469,2162.768 717.579,2137.213 664.000 C 2109.278 605.431,2037.453 549.243,1971.503 534.365 C 1916.766 522.017,1797.907 514.232,1572.000 508.198 C 1399.017 503.578,1142.130 500.788,1044.000 502.464 M1117.656 967.429 C 1221.220 1020.413,1430.809 1130.408,1490.000 1162.839 C 1505.400 1171.277,1518.000 1180.564,1518.000 1183.477 C 1518.000 1186.389,1501.800 1197.742,1482.000 1208.705 C 1426.089 1239.662,1128.955 1393.894,1062.000 1426.713 L 1002.000 1456.123 998.807 1373.062 C 995.098 1276.584,997.429 929.322,1001.855 919.000 C 1003.505 915.150,1005.858 912.000,1007.084 912.000 C 1008.309 912.000,1058.066 936.943,1117.656 967.429 " fill="#1D1E23" stroke="none" fill-rule="evenodd"/></svg>