<svg xmlns="http://www.w3.org/2000/svg" width="1200" height="1200" fill="none" viewBox="0 0 1200 1200"><path fill="#000" fill-rule="evenodd" d="M1000.025 675.015v300c-.005 27.485-22.51 49.99-50 50h-200c-27.495 0-49.99-22.505-50-50v-300zm-79.54 104.49c-9.745-9.74-25.455-9.735-35.205 0l-35.255 35.255-35.495-35.255c-9.75-9.745-25.505-9.745-35.255 0-9.75 9.75-9.75 25.505 0 35.255l35.5 35.255-35.255 35.255c-9.75 9.75-9.75 25.505 0 35.25 9.75 9.735 25.51 9.745 35.255 0l35.25-35.25 35.255 35.25c9.745 9.72 25.46 9.725 35.205 0 9.75-9.75 9.75-25.5 0-35.25l-35.205-35.255 35.205-35.255c9.75-9.75 9.75-25.505 0-35.255"/><path fill="#000" d="M522.05 406.264c4.34.003 13.925 3.186 21.63 5.762 10.93 3.651 21.31 7.128 29.88 7.128h77.98c-5.08 8.062-8.815 12.891-12.89 12.891-51.48 0-168.066.004-168.066 128.905-.019 25.755-25.782 25.81-25.782 103.125-.52 2.395-46.485 213.97-51.123 232.57a13.1 13.1 0 0 0-.195 5.32c.307 1.74.979 3.415 1.953 4.885l46.924 69.24a12.96 12.96 0 0 1 2.441 7.565v24.415a12.94 12.94 0 0 1-2.734 7.91 12.98 12.98 0 0 1-7.032 4.59 147.3 147.3 0 0 1-82.519-3.175l-70.899-23.63c-27.696-9.265-51.663-27.32-68.163-51.415 0 0-29.801-56.3-25.537-76.025l95.654-402.053c4.161-19.751 1.041-40.353-8.74-58.008z"/><path fill="#000" d="M548.415 457.827a6.5 6.5 0 0 1-1.905 3.075c-22.445 20.487-37.645 51.743-37.645 99.413-.045 11.795-34.505 34.27-47.949 55.615-12.024 19.15-15.625 48.145-15.625 48.145 1.198-38.485 10.364-54.02 17.822-65.235 5.935-8.895 13.346-20.125 13.916-36.57v-7.42c1.624-59.699 30.316-85.762 71.386-97.023M902.275 575.015c6.49.005 12.98 2.735 17.48 7.225l17.77 17.775h62.5c13.745.01 25 11.255 25 25-.005 13.735-11.26 24.99-25 25h-300c-13.745 0-24.99-11.255-25-25 0-13.75 11.25-25 25-25h62.5l17.725-17.775c4.5-4.5 11.03-7.225 17.53-7.225zM740.115 200.014a13.4 13.4 0 0 1 6.055.976 13.8 13.8 0 0 1 5.08 3.614 13.9 13.9 0 0 1 2.925 5.469c.555 2.026.63 4.184.245 6.25l-38.575 179.931a13.9 13.9 0 0 1-4.88 7.227 13.53 13.53 0 0 1-8.155 2.783H577.615c-13.565-.006-40.685-13.766-54.25-13.769H252.517a13.54 13.54 0 0 1-9.521-4.053 13.94 13.94 0 0 1-3.956-9.668v-7.764c.005-39.496 13.277-85.316 38.135-115.673 10.036-12.211 20.549-21.384 29.59-21.387z"/></svg>