<svg xmlns="http://www.w3.org/2000/svg" width="1200" height="1200" fill="none" viewBox="0 0 1200 1200"><path fill="#000" fill-rule="evenodd" d="M800.055 549.99c105 .005 200 80.53 200 205.03-.01 79.49-61.27 172.975-183.25 280.71-9.5 8.25-23.75 8.25-33.25 0-122.24-107.735-183.49-201.215-183.5-280.71 0-124.5 95-205.03 200-205.03m0 150c-27.495 0-49.995 22.505-50 50 0 27.5 22.5 50 50 50 27.5-.005 50-22.505 50-50-.005-27.495-22.505-49.995-50-50"/><path fill="#000" d="M522.08 406.191c4.335.001 13.925 3.235 21.63 5.81 10.93 3.651 21.31 7.077 29.88 7.08h77.98c-5.09 8.078-8.81 12.891-12.89 12.891-51.48 0-168.039.056-168.067 128.908 0 25.78-25.776 25.845-25.781 103.17-.493 2.275-46.461 213.86-51.123 232.57a13 13 0 0 0-.195 5.275c.306 1.75 1.019 3.445 2.002 4.93l46.875 69.24a13 13 0 0 1 2.441 7.565v24.415a12.93 12.93 0 0 1-2.734 7.91 12.94 12.94 0 0 1-7.031 4.59 147.27 147.27 0 0 1-82.52-3.175l-70.898-23.63a134.3 134.3 0 0 1-68.165-51.465c-.863-1.635-29.769-56.62-25.537-76.025l95.655-402.051a84.05 84.05 0 0 0-8.741-58.008z"/><path fill="#000" d="M548.445 457.753a6.44 6.44 0 0 1-1.905 3.076c-22.455 20.484-37.64 51.791-37.645 99.461-.04 11.795-34.5 34.27-47.95 55.615-11.781 18.76-15.448 46.97-15.625 48.1 1.204-38.475 10.367-53.98 17.823-65.185 5.94-8.905 13.357-20.155 13.915-36.625v-7.37c1.632-59.688 30.317-85.814 71.387-97.072M740.145 199.989c2.06-.153 4.14.198 6.055.977 1.92.786 3.695 2 5.075 3.564 1.385 1.567 2.375 3.495 2.93 5.518.55 2.016.625 4.146.245 6.201L715.875 396.23a13.76 13.76 0 0 1-4.88 7.177 13.44 13.44 0 0 1-8.155 2.784H577.645c-13.57-.012-40.69-13.718-54.25-13.721H252.547c-3.573-.034-7.005-1.53-9.522-4.102-2.506-2.572-3.954-6.051-3.954-9.667v-7.715c.005-39.497 13.275-85.318 38.134-115.675 10.032-12.204 20.551-21.378 29.59-21.386z"/></svg>