<svg xmlns="http://www.w3.org/2000/svg" width="1200" height="1200" fill="none" viewBox="0 0 1200 1200"><path fill="#000" fill-rule="evenodd" d="M800.03 550.005c104.995 0 199.995 80.485 200 204.98 0 79.495-61.21 173.015-183.2 280.76-9.5 8.245-23.755 8.24-33.255 0-122.25-107.75-183.545-201.26-183.545-280.76.01-124.485 95.015-204.97 200-204.98m0 150c-27.49.01-50 22.505-50 50 .005 27.49 22.515 49.985 50 50 27.5 0 50-22.505 50-50 0-27.5-22.5-50-50-50"/><path fill="#000" d="M522.1 406.204c4.345.01 13.935 3.189 21.635 5.762 10.93 3.65 21.31 7.126 29.88 7.129h77.98c-5.09 8.073-8.815 12.884-12.89 12.89-51.48 0-168.097.036-168.116 128.905 0 25.78-25.774 25.815-25.782 103.125 0 0-46.353 213.6-51.074 232.57a13.1 13.1 0 0 0-.195 5.32 13 13 0 0 0 1.953 4.935l46.875 69.235a13 13 0 0 1 2.441 7.57v24.365c.001 2.87-.924 5.695-2.685 7.96-1.763 2.26-4.254 3.84-7.031 4.54a147.35 147.35 0 0 1-82.569-3.175l-70.899-23.63a134.16 134.16 0 0 1-68.114-51.415c-.659-1.245-29.835-56.55-25.587-76.025l95.703-402.053a84 84 0 0 0-8.74-58.008z"/><path fill="#000" d="M548.47 457.766a6.45 6.45 0 0 1-1.905 3.077c-22.45 20.481-37.64 51.747-37.645 99.412 0 11.785-34.486 34.26-47.95 55.615-11.831 18.82-15.472 47.195-15.625 48.145 1.201-38.485 10.315-54.025 17.773-65.235 5.939-8.9 13.405-20.105 13.965-36.57v-7.42c1.636-59.679 30.317-85.767 71.387-97.024M740.12 200.003c2.07-.156 4.18.192 6.105.977a13.7 13.7 0 0 1 5.03 3.564 14 14 0 0 1 2.975 5.468c.555 2.025.63 4.186.245 6.25L715.9 396.195a13.87 13.87 0 0 1-4.88 7.226 13.44 13.44 0 0 1-8.155 2.783H577.67c-13.565-.008-40.68-13.707-54.25-13.721H252.522c-3.568-.037-7.008-1.533-9.522-4.101a13.9 13.9 0 0 1-3.906-9.668v-7.715c.005-39.499 13.224-85.366 38.086-115.723 10.032-12.204 20.6-21.379 29.639-21.387z"/></svg>