<svg xmlns="http://www.w3.org/2000/svg" width="1200" height="1200" fill="none" viewBox="0 0 1200 1200"><path fill="#000" d="M720.1 702.67c13.84-17.29 39.9-19.5 56.98-6.69l3.32 2.78.1.1c14.21 13.725 15.995 35.22 3.565 50.83l.05.05c-20.97 26.5-33.19 58.92-33.205 93.845 0 70.795 50.865 131.415 120.8 150.735 17.23 4.635 28.35 20.11 28.37 36.815 0 25.405-25.395 44.465-50.735 37.355C746.245 1040.215 670 950.77 670 843.585c.015-52.93 18.905-101.7 50.1-140.915M886.7 552.13c7.925-7.565 18.695-8.685 27.2-5.42 8.585 3.305 15.995 11.555 16.015 22.9v39.745c132.165 5.23 238.585 107.45 238.62 234.23 0 107.19-76.235 196.685-179.345 224.95l-.05-.045c-25.315 7.065-50.635-11.965-50.635-37.355.02-16.69 11.16-32.17 28.37-36.815l12.89-4.105c63.205-22.835 107.91-80.26 107.91-146.63-.035-82.835-69.275-151.835-157.76-156.98v39.16c0 11.38-7.44 19.605-16.015 22.95-8.515 3.305-19.305 2.36-27.395-4.985l-.095-.145-83.305-78.025c-10.415-9.79-10.42-25.62 0-35.4zM506.67 365.363c4.625 0 14.875 3.404 23.095 6.153 11.65 3.89 22.705 7.611 31.84 7.616h83.15c-5.415 8.596-9.42 13.721-13.765 13.721-54.895 0-179.202.039-179.202 137.452-.022 27.45-27.486 27.505-27.49 109.91-.533 2.455-49.525 228.02-54.492 247.95a13.9 13.9 0 0 0-.195 5.665 13.9 13.9 0 0 0 2.1 5.275l50 73.78a13.75 13.75 0 0 1 2.587 8.055v26.025c-.004 3.05-1.01 6.04-2.88 8.445a13.9 13.9 0 0 1-7.52 4.885c-29.047 7.28-59.59 6.13-87.989-3.37l-75.585-25.195a143.02 143.02 0 0 1-72.608-54.835s-31.848-60.03-27.295-81.055l102.002-428.612c4.438-21.06 1.156-43.04-9.277-61.865z"/><path fill="#000" d="M534.795 420.344c-.33 1.219-1.05 2.366-2.05 3.271-23.93 21.841-40.088 55.183-40.088 106.005-.042 12.57-36.78 36.52-51.122 59.28-12.828 20.42-16.699 51.315-16.699 51.315 1.277-41.02 11.043-57.58 18.993-69.53 6.331-9.49 14.243-21.465 14.844-39.015v-7.86c1.732-63.642 32.339-91.46 76.122-103.466M739.14 145.539a14.425 14.425 0 0 1 11.865 4.834c1.48 1.676 2.535 3.693 3.125 5.859.59 2.16.705 4.439.295 6.641l-41.16 191.846a14.7 14.7 0 0 1-5.18 7.666c-2.5 1.91-5.555 2.972-8.69 2.978H565.9c-14.47-.028-43.36-14.641-57.815-14.649H219.317a14.43 14.43 0 0 1-10.156-4.345 14.8 14.8 0 0 1-4.199-10.303v-8.252c.001-42.104 14.128-90.971 40.625-123.34 10.687-13.003 21.911-22.776 31.543-22.802z"/></svg>