<svg xmlns="http://www.w3.org/2000/svg" width="1200" height="1200" fill="none" viewBox="0 0 1200 1200"><path fill="#000" fill-rule="evenodd" d="M843.905 547.66c12.99 0 23.925 8.995 25.485 20.995l8.84 54.005c15.065 5.995 28.565 14.5 41.55 22.995l-1.025-1.51 52.49-19.485c11.955-4.5 25.5.49 31.74 10.99l43.65 72.995c6.24 10.5 3.63 24.53-6.25 32.03L996.2 774.66l-1.03-1.51c1.04 8 2.59 16.02 2.59 24.02 0 7.99-1.55 15.985-2.59 23.975l1.03-1.465 44.185 33.985c9.87 7.495 12.48 21.485 6.25 31.985l-43.65 72.995c-6.235 11-19.785 15.535-31.74 11.035l-52.49-19.53 1.025-1.515c-12.99 9.5-26.48 18.025-41.55 24.025l-8.84 54.005c-1.56 11.995-12.495 20.995-25.485 20.995H756.6c-12.99 0-23.925-8.995-25.49-21.485l-8.84-53.515c-15.06-6-28.565-14.53-41.55-24.025l.535 2.005-52.54 19.53c-11.94 4.48-25.45-.505-31.685-10.985l-43.655-73.05c-6.225-10.495-3.62-24.485 6.25-31.98l44.14-33.985 1.075 1.515c-1.04-8-2.59-16.025-2.59-24.025 0-7.995 1.55-15.99 2.59-23.485l-1.075 1.465-44.14-33.985c-9.87-7.5-12.48-21.485-6.25-31.985l43.655-72.995c6.23-10.995 19.74-15.52 31.685-11.035l53.03 19.53-1.025 1.515c12.985-9.5 26.49-18.025 41.55-24.025l8.84-54.005c1.56-12 12.495-20.995 25.49-20.995zm-43.655 150c-57.17.005-103.955 45.005-103.955 100s46.785 99.995 103.955 100c57.175 0 103.955-45 103.955-100s-46.78-100-103.955-100"/><path fill="#000" d="M472.126 406.351c4.359.024 13.948 3.243 21.631 5.811 8.573 2.863 16.833 5.504 24.118 6.542a175 175 0 0 0 9.72 17.236c-51.354 8.531-106.919 36.112-106.935 125.1-.008 25.765-25.778 25.85-25.78 103.17-.592 2.725-46.467 213.88-51.123 232.57a13 13 0 0 0-.196 5.275c.309 1.755 1.016 3.445 2.002 4.93l46.875 69.24a13.07 13.07 0 0 1 2.442 7.565v24.415a13 13 0 0 1-2.735 7.91 13.04 13.04 0 0 1-7.031 4.59 147.4 147.4 0 0 1-82.519-3.175l-70.899-23.63a134.3 134.3 0 0 1-68.164-51.465c-.584-1.105-29.782-56.515-25.538-76.025l95.655-402.052a84.1 84.1 0 0 0-8.74-58.007z"/><path fill="#000" d="M498.492 457.913c-.306 1.138-.977 2.227-1.903 3.076-22.457 20.485-37.644 51.786-37.647 99.461-.067 11.795-34.5 34.28-47.95 55.62-11.792 18.77-15.454 47.015-15.624 48.095 1.202-38.48 10.365-53.98 17.822-65.185 5.937-8.9 13.353-20.17 13.916-36.625v-7.37c1.629-59.696 30.312-85.814 71.386-97.072"/><path fill="#000" fill-rule="evenodd" d="M800.005 133.499c75.835 0 138.96 53.957 153.125 125.83 54.165 3.75 96.87 48.328 96.875 103.32 0 57.497-46.655 104.193-104.15 104.2h-270.85c-45.33-.002-84.97-24.31-106.885-60.498-.18-.299-.355-.628-.535-.928a124 124 0 0 1-5.175-9.619c-.555-1.153-1.14-2.294-1.66-3.467a118 118 0 0 1-1.565-3.662 124 124 0 0 1-2.83-7.715q-.669-2.011-1.27-4.053c-.86-2.923-1.65-5.879-2.295-8.887-.2-.922-.36-1.853-.54-2.782-.57-3.007-1.01-6.053-1.365-9.131-.535-4.683-.88-9.435-.88-14.258 0-23.756 6.685-45.97 18.215-64.893 2.415-3.968 5.08-7.764 7.91-11.426 18.325-23.695 44.92-40.641 75.535-46.387 3.245-.609 6.54-1.159 9.865-1.513 1.315-2.526 2.74-4.986 4.2-7.422 27.205-45.88 77.135-76.708 134.275-76.709m7.52 90.625c-4.165-4.165-10.625-4.161-14.795 0l-96.875 96.875h62.5v83.35h83.3v-83.35h62.5z"/><path fill="#000" d="M559.77 210.355c-36.57 32.061-59.705 79.055-59.715 131.445 0 21.432 3.87 42 10.94 60.987-13.125-4.058-28.418-10.136-37.551-10.157H202.595c-3.569-.03-7.005-1.54-9.522-4.101a13.88 13.88 0 0 1-3.955-9.668v-7.716c.003-39.498 13.274-85.314 38.134-115.673 10.033-12.203 20.552-21.387 29.59-21.387z"/></svg>