<svg viewBox="0 0 24 24" fill="none" xmlns="http://www.w3.org/2000/svg"><g><path fill-rule="evenodd" clip-rule="evenodd" d="M18.4875 17.5937H19.5938C20.2022 17.5937 20.7 18.0916 20.7 18.7C20.7 19.3084 20.2022 19.8062 19.5938 19.8062H4.10625C3.49781 19.8062 3 19.3084 3 18.7C3 18.0916 3.49781 17.5937 4.10625 17.5937H5.2125V9.85C5.2125 6.76356 7.32544 4.16387 10.1906 3.43375V2.65937C10.1906 1.74119 10.9318 1 11.85 1C12.7682 1 13.5094 1.74119 13.5094 2.65937V3.43375C16.3746 4.16387 18.4875 6.76356 18.4875 9.85V17.5937ZM12.9563 13.1687H14.0625C14.6709 13.1687 15.1688 12.6709 15.1688 12.0625C15.1688 11.4541 14.6709 10.9562 14.0625 10.9562H12.9563V9.85C12.9563 9.24156 12.4584 8.74375 11.85 8.74375C11.2416 8.74375 10.7438 9.24156 10.7438 9.85V10.9562H9.6375C9.02906 10.9562 8.53125 11.4541 8.53125 12.0625C8.53125 12.6709 9.02906 13.1687 9.6375 13.1687H10.7438V14.275C10.7438 14.8834 11.2416 15.3812 11.85 15.3812C12.4584 15.3812 12.9563 14.8834 12.9563 14.275V13.1687ZM14.0625 20.9125C14.0625 22.1294 13.0669 23.125 11.85 23.125C10.6331 23.125 9.6375 22.1294 9.6375 20.9125H14.0625Z" fill="#1D1E23"/></g></svg>