<svg viewBox="0 0 24 24" fill="none" xmlns="http://www.w3.org/2000/svg"><g><path fill-rule="evenodd" clip-rule="evenodd" d="M14 4C14.55 4 15 3.55 15 3C15 2.45 14.55 2 14 2H11.5L10.79 1.29C10.61 1.11 10.35 1 10.09 1H5.91C5.65 1 5.39 1.11 5.21 1.29L4.5 2H2C1.45 2 1 2.45 1 3C1 3.55 1.45 4 2 4H14ZM16 9C15.3 9 14.63 9.1 14 9.29V5H2V17C2 18.1 2.9 19 4 19H9.68C10.8 21.36 13.21 23 16 23C19.87 23 23 19.87 23 16C23 12.13 19.87 9 16 9ZM16 21C13.24 21 11 18.76 11 16C11 13.24 13.24 11 16 11C18.76 11 21 13.24 21 16C21 18.76 18.76 21 16 21ZM15 12.75C15 12.34 15.34 12 15.75 12C16.16 12 16.5 12.34 16.5 12.75V16.2L18.74 17.52C19.1 17.73 19.21 18.2 18.98 18.54C18.77 18.85 18.35 18.95 18.02 18.76L15.5 17.29C15.19 17.11 15 16.79 15 16.43V12.75Z" fill="#1D1E23"/></g></svg>