<svg xmlns="http://www.w3.org/2000/svg" width="1200" height="1200" fill="none" viewBox="0 0 1200 1200"><g clip-path="url(#a)"><path fill="#000" d="M424.219 37.5C424.219 334.387 263.775 600 37.5 600c226.275 0 386.719 265.63 386.719 562.5 0-296.87 160.441-562.5 386.716-562.5-226.275 0-386.716-265.613-386.716-562.5M881.25 600c0 148.46-80.195 281.25-193.37 281.25 113.175 0 193.37 132.825 193.37 281.25 0-148.425 80.195-281.25 193.37-281.25-113.175 0-193.37-132.79-193.37-281.25m87.9-562.5c0 148.444-80.195 281.25-193.37 281.25 113.155 0 193.37 132.825 193.37 281.25 0-148.425 80.195-281.25 193.37-281.25-113.175 0-193.37-132.806-193.37-281.25"/></g><defs><clipPath id="a"><path fill="#fff" d="M0 0h1200v1200H0z"/></clipPath></defs></svg>