<svg xmlns="http://www.w3.org/2000/svg" width="1200" height="1200" fill="none"><g clip-path="url(#a)"><path fill="#1D1E23" d="M600 350c-27.5 0-50 22.5-50 50v150H400c-27.5 0-50 22.5-50 50s22.5 50 50 50h150v150c0 27.5 22.5 50 50 50s50-22.5 50-50V650h150c27.5 0 50-22.5 50-50s-22.5-50-50-50H650V400c0-27.5-22.5-50-50-50m0-250c-276 0-500 224-500 500s224 500 500 500 500-224 500-500-224-500-500-500m0 900c-220.5 0-400-179.5-400-400s179.5-400 400-400 400 179.5 400 400-179.5 400-400 400"/></g><defs><clipPath id="a"><path fill="#fff" d="M0 0h1200v1200H0z"/></clipPath></defs></svg>