<svg xmlns="http://www.w3.org/2000/svg" width="1200" height="1200" fill="none"><g clip-path="url(#a)"><path fill="#000" fill-rule="evenodd" d="M950 643.5c0-23.5-17-42.5-40-49C846.5 577 800 519 800 450V200h50c27.5 0 50-22.5 50-50s-22.5-50-50-50H350c-27.5 0-50 22.5-50 50s22.5 50 50 50h50v250c0 69-46.5 127-110 144.5-23 6.5-40 25.5-40 49v6.5c0 27.5 22.5 50 50 50h249l1 350c0 27.5 22.5 50 50 50s50-22.5 50-50l-1-350h251c27.5 0 50-22.5 50-50z"/></g><defs><clipPath id="a"><path fill="#fff" d="M0 0h1200v1200H0z"/></clipPath></defs></svg>