<svg width="1200" height="1200" viewBox="0 0 1200 1200" fill="none" xmlns="http://www.w3.org/2000/svg"><path fill-rule="evenodd" d="M273.805 114.452C254.536 95.184 223.296 95.184 204.027 114.452C184.76 133.719 184.76 164.958 204.027 184.224L926.35 906.505C945.615 925.775 976.855 925.775 996.125 906.505C1015.395 887.24 1015.395 856 996.125 836.735L273.805 114.452ZM277.512 637.965C339.956 620.76 385.74 563.865 386.058 496.091L632.045 742.065H631.77L632.755 1087.425C632.755 1114.56 610.555 1136.76 583.415 1136.76C556.28 1136.76 534.08 1114.56 534.08 1087.425L533.09 742.065H287.38C260.243 742.065 238.041 719.865 238.041 692.73V686.315C238.041 663.13 254.816 644.38 277.512 637.965ZM928.795 692.73C928.795 710.8 918.95 726.68 904.36 735.275L321.496 152.442C326.296 150.873 331.413 150.025 336.72 150.025H830.115C857.25 150.025 879.455 172.226 879.455 199.361C879.455 226.497 857.25 248.698 830.115 248.698H780.775V495.382C780.775 563.465 826.66 620.7 889.32 637.965C912.02 644.38 928.795 663.13 928.795 686.315V692.73Z" fill="#1D1E23"/></svg>