<svg xmlns="http://www.w3.org/2000/svg" width="1200" height="1200" fill="none"><g clip-path="url(#a)"><path fill="#1D1E23" d="M950 650v250c0 27.5-22.5 50-50 50H300c-27.5 0-50-22.5-50-50V650c0-27.5-22.5-50-50-50s-50 22.5-50 50v300c0 55 45 100 100 100h700c55 0 100-45 100-100V650c0-27.5-22.5-50-50-50s-50 22.5-50 50m-300-16.5 94-94c19.5-19.5 51-19.5 70.5 0s19.5 51 0 70.5L635 789.5c-19.5 19.5-51 19.5-70.5 0L385 610c-19.5-19.5-19.5-51 0-70.5s51-19.5 70.5 0l94.5 94V200c0-27.5 22.5-50 50-50s50 22.5 50 50z"/></g><defs><clipPath id="a"><path fill="#fff" d="M0 0h1200v1200H0z"/></clipPath></defs></svg>