<svg xmlns="http://www.w3.org/2000/svg" width="1200" height="1200" fill="none"><g fill="#1D1E23" clip-path="url(#a)"><path d="M701.51 851.515c-14.64-14.645-14.64-38.385 0-53.025 14.645-14.645 38.385-14.645 53.025 0L862.5 906.45V187.5c0-20.71 16.79-37.5 37.5-37.5s37.5 16.79 37.5 37.5v718.95l107.965-107.96c14.64-14.645 38.38-14.645 53.02 0 14.645 14.64 14.645 38.38 0 53.025L900 1050zM75 712.5c0-20.71 16.79-37.5 37.5-37.5h450c20.71 0 37.5 16.79 37.5 37.5S583.21 750 562.5 750h-450C91.79 750 75 733.21 75 712.5M225 487.5c0-20.711 16.79-37.5 37.5-37.5h300c20.71 0 37.5 16.789 37.5 37.5S583.21 525 562.5 525h-300c-20.71 0-37.5-16.79-37.5-37.5M375 262.5c0-20.71 16.79-37.5 37.5-37.5h150c20.71 0 37.5 16.79 37.5 37.5S583.21 300 562.5 300h-150c-20.71 0-37.5-16.79-37.5-37.5"/></g><defs><clipPath id="a"><path fill="#fff" d="M0 0h1200v1200H0z"/></clipPath></defs></svg>