<svg viewBox="0 0 24 24" fill="none" xmlns="http://www.w3.org/2000/svg"><path d="M19.4954 8.5698V9.81978H16.3618L17.3384 6.20266L19.4508 6.76633C19.4905 6.77688 19.5319 6.7795 19.5726 6.77403C19.6134 6.76857 19.6526 6.75514 19.6881 6.7345C19.7236 6.71385 19.7547 6.6864 19.7796 6.65372C19.8045 6.62104 19.8228 6.58379 19.8332 6.54407L20.4801 4.12926C20.4908 4.08961 20.4936 4.04824 20.4883 4.00752C20.483 3.96679 20.4697 3.9275 20.4492 3.89192C20.4287 3.85633 20.4014 3.82514 20.3688 3.80012C20.3362 3.77509 20.2991 3.75671 20.2594 3.74606L18.1469 3.18007L18.2278 2.8785C18.2384 2.83885 18.2411 2.7975 18.2358 2.7568C18.2304 2.7161 18.2171 2.67684 18.1966 2.64129C18.176 2.60574 18.1487 2.57459 18.1161 2.54961C18.0836 2.52463 18.0464 2.50631 18.0067 2.49571L16.1962 2.01056C16.1162 1.98921 16.0309 2.0005 15.9592 2.04196C15.8875 2.08341 15.8352 2.15165 15.8138 2.23166L15.7325 2.5332L15.129 2.37148L12.3916 2.93164L11.9064 4.74254L14.924 5.5558L13.8224 9.81978H10.1393L9.25455 6.51906C9.58439 6.189 9.82156 5.77794 9.94224 5.32719C10.0629 4.87643 10.0628 4.40185 9.94203 3.95114C9.80531 3.43989 9.51898 2.98115 9.11978 2.63372C8.72057 2.28629 8.22668 2.06602 7.70145 2.00118L8.253 4.05818C8.29849 4.22812 8.27467 4.40917 8.18679 4.56157C8.09891 4.71398 7.95414 4.82529 7.78426 4.87105L7.14287 5.04254C6.97289 5.0876 6.79198 5.0636 6.63962 4.97578C6.48726 4.88797 6.37582 4.74347 6.3296 4.5738L5.77844 2.51602C5.35603 2.83517 5.03846 3.2731 4.86637 3.77378C4.69428 4.27445 4.6755 4.81511 4.81244 5.32652C4.93277 5.77728 5.1697 6.18841 5.4994 6.51851C5.82909 6.84862 6.23992 7.08605 6.69053 7.20694L7.36357 9.82056H4.49995V8.57059H2V20.75C2.00093 21.0813 2.13292 21.3987 2.36713 21.6329C2.60135 21.8671 2.91875 21.9991 3.24998 22H20.7453C21.0766 21.9992 21.394 21.8672 21.6283 21.633C21.8625 21.3988 21.9945 21.0813 21.9953 20.75V8.57059L19.4954 8.5698ZM13.4998 11.0698L12.9357 13.2521H11.0608L10.4748 11.0698H13.4998ZM4.49917 13.2521V11.0698H7.68465L8.24675 13.2521H4.49917ZM14.3404 17.6165C14.3404 17.7151 14.3343 17.8136 14.322 17.9114L14.9958 18.672L14.4099 19.6876L13.4146 19.4848C13.2577 19.6053 13.0862 19.7055 12.9041 19.7829L12.583 20.7504H11.4111L11.0901 19.7829C10.9078 19.7046 10.7362 19.6036 10.5791 19.4825L9.58423 19.6864L8.9983 18.6708L9.67211 17.911C9.65986 17.8132 9.65373 17.7147 9.65376 17.6161C9.65374 17.5176 9.65987 17.4193 9.67211 17.3216L8.9983 16.5618L9.58423 15.5462L10.5791 15.7513C10.7364 15.6324 10.9081 15.5338 11.0901 15.4579L11.4111 14.4998H12.583L12.9041 15.4579C13.0859 15.5328 13.2575 15.6304 13.4146 15.7486L14.4099 15.545L14.9958 16.5607L14.322 17.3204C14.3343 17.4184 14.3404 17.517 14.3404 17.6157V17.6165ZM15.4341 13.2521L16.0232 11.0698H19.4942V13.2521H15.4341ZM13.2467 17.6247C13.2467 17.9562 13.115 18.2742 12.8805 18.5086C12.6461 18.743 12.3282 18.8747 11.9967 18.8747C11.6652 18.8747 11.3472 18.743 11.1128 18.5086C10.8784 18.2742 10.7467 17.9562 10.7467 17.6247C10.7467 17.2932 10.8784 16.9753 11.1128 16.7408C11.3472 16.5064 11.6652 16.3747 11.9967 16.3747C12.3281 16.3746 12.646 16.5062 12.8805 16.7404C13.115 16.9747 13.2468 17.2925 13.247 17.6239L13.2467 17.6247Z" fill="#1D1E23"/></svg>