<svg viewBox="0 0 24 24" fill="none" xmlns="http://www.w3.org/2000/svg"><path d="M16.2512 10.9031C16.1915 10.844 16.1441 10.7736 16.1118 10.6961C16.0795 10.6185 16.0628 10.5354 16.0628 10.4514C16.0628 10.3674 16.0795 10.2842 16.1118 10.2066C16.1441 10.1291 16.1915 10.0587 16.2512 9.99961C16.311 9.93997 16.3821 9.89273 16.4602 9.86062C16.5384 9.82851 16.6221 9.81217 16.7066 9.8125C16.7911 9.81217 16.8749 9.82851 16.953 9.86062C17.0312 9.89273 17.1022 9.93997 17.1621 9.99961L20.125 12.9375L17.1621 15.8754C17.1022 15.935 17.0312 15.9822 16.953 16.0144C16.8749 16.0465 16.7911 16.0628 16.7066 16.0625C16.6221 16.0628 16.5384 16.0465 16.4602 16.0144C16.3821 15.9822 16.311 15.935 16.2512 15.8754C16.1915 15.8163 16.1441 15.7459 16.1118 15.6684C16.0795 15.5909 16.0629 15.5078 16.0629 15.4238C16.0629 15.3398 16.0795 15.2567 16.1118 15.1792C16.1441 15.1017 16.1915 15.0314 16.2512 14.9723L18.3031 12.9375L16.2512 10.9031ZM7.29375 16.0625C7.37825 16.0628 7.46198 16.0465 7.54014 16.0144C7.6183 15.9822 7.68935 15.935 7.74922 15.8754C7.80888 15.8163 7.85624 15.7459 7.88857 15.6684C7.92089 15.5909 7.93754 15.5078 7.93754 15.4238C7.93754 15.3398 7.92089 15.2567 7.88857 15.1792C7.85624 15.1017 7.80888 15.0314 7.74922 14.9723L5.69726 12.9375L7.74922 10.9031C7.80889 10.844 7.85627 10.7736 7.8886 10.6961C7.92092 10.6185 7.93757 10.5354 7.93757 10.4514C7.93757 10.3674 7.92092 10.2842 7.8886 10.2066C7.85627 10.1291 7.80889 10.0587 7.74922 9.99961C7.68935 9.93997 7.6183 9.89273 7.54014 9.86062C7.46198 9.82851 7.37825 9.81217 7.29375 9.8125C7.20925 9.81217 7.12552 9.82851 7.04736 9.86062C6.9692 9.89273 6.89814 9.93997 6.83828 9.99961L3.875 12.9375L6.83828 15.8754C6.89814 15.935 6.9692 15.9822 7.04736 16.0144C7.12552 16.0465 7.20925 16.0628 7.29375 16.0625ZM9.89765 15.9433L15.0062 10.8351C15.0656 10.7758 15.1127 10.7054 15.1448 10.6278C15.1768 10.5503 15.1932 10.4671 15.193 10.3832C15.1932 10.2993 15.1768 10.2162 15.1448 10.1387C15.1127 10.0612 15.0656 9.99085 15.0062 9.93163C14.8864 9.81196 14.7239 9.74475 14.5545 9.74475C14.3851 9.74475 14.2226 9.81196 14.1027 9.93163L8.99453 15.0402C8.93493 15.0993 8.88766 15.1697 8.85547 15.2472C8.82328 15.3247 8.80682 15.4078 8.80703 15.4918C8.80686 15.5757 8.82334 15.6588 8.85553 15.7364C8.88771 15.8139 8.93496 15.8842 8.99453 15.9433C9.11435 16.063 9.27676 16.1302 9.44609 16.1302C9.61542 16.1302 9.77783 16.063 9.89765 15.9433ZM22 3.25V20.75C22 21.0815 21.8683 21.3995 21.6339 21.6339C21.3995 21.8683 21.0815 22 20.75 22H3.25C2.91848 22 2.60054 21.8683 2.36612 21.6339C2.1317 21.3995 2 21.0815 2 20.75V3.25C2 2.91848 2.1317 2.60054 2.36612 2.36612C2.60054 2.1317 2.91848 2 3.25 2H20.75C21.0815 2 21.3995 2.1317 21.6339 2.36612C21.8683 2.60054 22 2.91848 22 3.25ZM8.25 3.5625C8.25 3.81114 8.34877 4.04958 8.52458 4.2254C8.7004 4.40121 8.93886 4.5 9.1875 4.5C9.43614 4.5 9.67459 4.40121 9.85041 4.2254C10.0262 4.04958 10.125 3.81114 10.125 3.5625C10.125 3.31386 10.0262 3.0754 9.85041 2.89958C9.67459 2.72377 9.43614 2.625 9.1875 2.625C8.93886 2.625 8.7004 2.72377 8.52458 2.89958C8.34877 3.0754 8.25 3.31386 8.25 3.5625ZM5.75 3.5625C5.75 3.81114 5.84877 4.04958 6.02458 4.2254C6.2004 4.40121 6.43886 4.5 6.6875 4.5C6.93614 4.5 7.17459 4.40121 7.35041 4.2254C7.52622 4.04958 7.625 3.81114 7.625 3.5625C7.625 3.31386 7.52622 3.0754 7.35041 2.89958C7.17459 2.72377 6.93614 2.625 6.6875 2.625C6.43886 2.625 6.2004 2.72377 6.02458 2.89958C5.84877 3.0754 5.75 3.31386 5.75 3.5625ZM3.25 3.5625C3.25 3.81114 3.34877 4.04958 3.52458 4.2254C3.7004 4.40121 3.93886 4.5 4.1875 4.5C4.43614 4.5 4.67459 4.40121 4.85041 4.2254C5.02622 4.04958 5.125 3.81114 5.125 3.5625C5.125 3.31386 5.02622 3.0754 4.85041 2.89958C4.67459 2.72377 4.43614 2.625 4.1875 2.625C3.93886 2.625 3.7004 2.72377 3.52458 2.89958C3.34877 3.0754 3.25 3.31386 3.25 3.5625ZM20.75 5.125H3.25V20.75H20.75V5.125Z" fill="#1D1E23"/></svg>