<svg viewBox="0 0 24 24" fill="none" xmlns="http://www.w3.org/2000/svg"><path fill-rule="evenodd" clip-rule="evenodd" d="M19.2084 16.6771V13.6042H17.9792V14.2188H18.5938V16.5895L17.3647 14.4823V13.6042H16.8526L15.5209 11.3214V9.91667H14.7016L14.3432 9.30208H15.2136V8.99479H15.5209V6.53646H15.2136V6.22917H13.9845V6.53646H13.6772V8.16088L11.8334 5L10.6042 7.10725V6.22917H9.37508V9.2145L8.7605 10.2677V6.22917H7.53133V12.375L6.91675 13.4286V6.22917H6.30217V14.4823L3.22925 19.75H20.4376L18.6453 16.6771H19.2084ZM14.2917 6.84375H14.9063V8.6875H14.2917V6.84375ZM5.36954 18.5208L11.8334 7.43951L18.2977 18.5208H5.36954ZM16.7501 9.30046H17.3647V6.22754H16.1355V6.84212H16.7501V9.30046ZM19.2084 9.30046H18.5938V6.84212H17.9792V6.22754H19.2084V9.30046ZM21.3595 9.30217H20.1303V8.99487H19.823V6.53654H20.1303V6.22925H21.3595V6.53654H21.6667V8.99487H21.3595V9.30217ZM21.0522 6.84383H20.4376V8.68758H21.0522V6.84383ZM18.2975 10.224V9.91675H19.5267V10.224H19.834V12.6824H19.5267V12.9897H18.2975V12.6824H17.9902V10.224H18.2975ZM18.6048 12.3751H19.2194V10.5313H18.6048V12.3751ZM21.3595 13.6042H20.1303V13.9115H19.823V16.3699H20.1303V16.6772H21.3595V16.3699H21.6667V13.9115H21.3595V13.6042ZM21.0522 16.0626H20.4376V14.2188H21.0522V16.0626ZM20.4375 10.5296V9.91504H21.6667V12.988H21.0521V10.5296H20.4375ZM17.3647 9.91504V12.988H16.7501V10.5296H16.1355V9.91504H17.3647ZM3.84375 6.22754H2V16.6755H3.84375V6.22754ZM4.45825 6.22754H5.68742V14.8317H4.45825V6.22754Z" fill="#1D1E23"/></svg>