<svg viewBox="0 0 24 24" fill="none" xmlns="http://www.w3.org/2000/svg"><path d="M6.375 3.87499H7V5.74997H6.375V3.87499ZM3.875 10.1249H4.5V8.24995H3.875V10.1249ZM8.25 10.1249H8.875V8.24995H8.25V10.1249ZM20.75 5.74997H12.625C12.2935 5.74997 11.9755 5.88167 11.7411 6.11608C11.5067 6.3505 11.375 6.66844 11.375 6.99996V18.2499C11.375 18.5814 11.5067 18.8993 11.7411 19.1338C11.9755 19.3682 12.2935 19.4999 12.625 19.4999H13.5164C13.3114 19.2143 13.0846 18.9452 12.8379 18.6948C12.291 18.1565 12.1543 17.3932 12.502 16.8386C12.539 16.7802 12.5801 16.7246 12.625 16.6722V6.99996H20.75V18.2499V18.8674C20.7502 19.0787 20.7393 19.2898 20.7172 19.4999H20.75C21.0815 19.4999 21.3995 19.3682 21.6339 19.1338C21.8683 18.8993 22 18.5814 22 18.2499V6.99996C22 6.66844 21.8683 6.3505 21.6339 6.11608C21.3995 5.88167 21.0815 5.74997 20.75 5.74997ZM13.25 15.1249H14.5V13.2499C14.5 12.5956 15.0957 11.9999 15.75 11.9999C16.4043 11.9999 17 12.5956 17 13.2499V15.1249H20.125V11.3749H13.25V15.1249ZM19.5 16.9999C19.123 16.9585 18.875 17.2561 18.875 17.6249V17.0163C18.8768 16.8606 18.8213 16.7097 18.7192 16.5922C18.6171 16.4747 18.4755 16.3988 18.3211 16.3788C18.2336 16.3688 18.1449 16.3774 18.061 16.404C17.977 16.4307 17.8996 16.4747 17.8339 16.5334C17.7682 16.592 17.7156 16.6639 17.6796 16.7443C17.6436 16.8247 17.625 16.9118 17.625 16.9999V16.3913C17.6268 16.2356 17.5713 16.0847 17.4692 15.9672C17.3671 15.8497 17.2255 15.7738 17.0711 15.7538C16.9836 15.7438 16.8949 15.7524 16.811 15.779C16.727 15.8057 16.6496 15.8497 16.5839 15.9084C16.5182 15.967 16.4656 16.0389 16.4296 16.1193C16.3936 16.1997 16.375 16.2868 16.375 16.3749V13.2499C16.375 12.9374 16.0625 12.6249 15.75 12.6249C15.4375 12.6249 15.125 12.9374 15.125 13.2499V17.9374C15.125 17.9374 13.6211 16.2307 13.0316 17.1706C12.8438 17.4698 12.9434 17.9206 13.277 18.2499C14.5203 19.476 15.4469 21.744 16.357 21.928C17.0922 22.0764 18.023 21.9612 18.2711 21.887C18.9824 21.6741 20.1254 21.0159 20.1254 18.8674V17.6639C20.125 17.3444 19.8191 17.035 19.5 16.9999ZM12.625 5.12498C12.1279 5.1256 11.6514 5.32334 11.2999 5.67483C10.9484 6.02632 10.7506 6.50287 10.75 6.99996V13.5624H3.25C2.91848 13.5624 2.60054 13.4307 2.36612 13.1963C2.1317 12.9619 2 12.6439 2 12.3124V3.24999C2 2.91847 2.1317 2.60053 2.36612 2.36611C2.60054 2.1317 2.91848 2 3.25 2H11.375C11.7065 2 12.0245 2.1317 12.2589 2.36611C12.4933 2.60053 12.625 2.91847 12.625 3.24999V5.12498ZM5.125 7.93745H4.8125V7.62496H3.5625V7.93745H3.25V10.4374H3.5625V10.7499H4.8125V10.4374H5.125V7.93745ZM5.125 4.49998H4.8125V4.18748H4.5V3.87499H4.1875V3.56249H3.875V3.24999H3.25V3.56249H3.5625V3.87499H3.875V4.18748H4.1875V4.49998H4.5V5.12498H4.1875V5.43747H3.875V5.74997H3.5625V6.06247H3.25V6.37497H3.875V6.06247H4.1875V5.74997H4.5V5.43747H4.8125V5.12498H5.125V4.49998ZM7 7.62496H5.75V8.24995H6.375V10.7499H7V7.62496ZM7.3125 6.06247H7.625V3.56249H7.3125V3.24999H6.0625V3.56249H5.75V6.06247H6.0625V6.37497H7.3125V6.06247ZM9.5 7.93745H9.1875V7.62496H7.9375V7.93745H7.625V10.4374H7.9375V10.7499H9.1875V10.4374H9.5V7.93745ZM9.5 3.24999H8.25V3.87499H8.875V6.37497H9.5V3.24999ZM13.25 10.7499H20.125V7.62496H13.25V10.7499Z" fill="#1D1E23"/></svg>