<svg viewBox="0 0 24 24" fill="none" xmlns="http://www.w3.org/2000/svg"><path fill-rule="evenodd" clip-rule="evenodd" d="M20.0523 8.7789C21.2762 9.7121 22 10.8645 22 12.1145C22 13.3629 21.2762 14.5164 20.0508 15.4496C20.2563 16.975 19.9523 18.3023 19.0695 19.1855C18.3617 19.893 17.3691 20.2289 16.218 20.2289C14.9488 20.2289 13.4855 19.8187 11.9992 19.0484C10.5148 19.8191 9.05078 20.2289 7.78047 20.2289C6.62891 20.2289 5.63633 19.8926 4.92891 19.1855C4.04609 18.3012 3.74219 16.975 3.94766 15.4496C2.72383 14.5164 2 13.3633 2 12.1145C2 10.8656 2.72383 9.7121 3.94922 8.7789C3.74375 7.25351 4.04766 5.92617 4.93047 5.04336C5.63828 4.33594 6.63086 4 7.78203 4C9.05078 4 10.5145 4.40975 12.0008 5.18046C13.4852 4.40975 14.9492 4 16.2195 4C17.3707 4 18.3637 4.33594 19.0711 5.04336C19.9539 5.92734 20.2578 7.25351 20.0523 8.7789ZM18.6281 5.48438C18.057 4.91445 17.2465 4.625 16.2188 4.625C15.1562 4.625 13.9301 4.94414 12.6641 5.54804C13.2202 5.8768 13.7556 6.23946 14.2672 6.63397C16.3129 6.90077 18.1176 7.52108 19.468 8.37382C19.5026 7.99416 19.4945 7.61183 19.4438 7.23399C19.3414 6.51211 19.0668 5.92344 18.6281 5.48438ZM15.5344 15.65C16.4297 14.7611 17.2182 13.7708 17.884 12.6992H17.8852C18.0052 12.5039 18.1185 12.3086 18.225 12.1133C18.1174 11.918 18.0038 11.7226 17.884 11.5273C17.2182 10.4558 16.4296 9.4657 15.5344 8.57695C15.0562 8.09879 14.55 7.64956 14.0184 7.23164C12.6767 7.07278 11.321 7.07278 9.9793 7.23164C9.4476 7.64946 8.94136 8.0987 8.46328 8.57695C7.56801 9.4657 6.77948 10.4558 6.11367 11.5273C5.99388 11.7229 5.88021 11.9182 5.77266 12.1133C5.87995 12.3086 5.99362 12.5039 6.11367 12.6992C6.77947 13.7708 7.568 14.7611 8.46328 15.65C8.94154 16.128 9.44777 16.5773 9.9793 16.9953C11.321 17.1542 12.6767 17.1542 14.0184 16.9953C14.5499 16.5773 15.0561 16.128 15.5344 15.65ZM18.5663 12.7786C17.8457 13.9875 16.9755 15.1005 15.9762 16.0914C15.7288 16.3388 15.4775 16.576 15.2223 16.8031C15.3986 16.768 15.5733 16.7299 15.7465 16.6891C16.8809 16.4191 17.8957 16.0348 18.7633 15.5469C18.9794 15.425 19.1829 15.299 19.3738 15.1687C19.3311 14.9414 19.2763 14.7085 19.2094 14.4699C19.0439 13.8887 18.8288 13.3229 18.5663 12.7786ZM10.9648 17.7094C11.3073 17.9383 11.6523 18.1484 12 18.3398C12.3482 18.1482 12.6934 17.938 13.0355 17.7094C12.6952 17.7294 12.35 17.7395 12 17.7395C11.65 17.7395 11.3049 17.7294 10.9648 17.7094ZM8.25234 16.6895C8.42578 16.7303 8.60052 16.7684 8.77656 16.8035C8.52109 16.5767 8.26979 16.3394 8.02266 16.0918C7.0235 15.1005 6.15347 13.987 5.4332 12.7777C5.1704 13.3224 4.95502 13.8887 4.78945 14.4703C4.72279 14.7089 4.66797 14.9418 4.625 15.1691C4.81615 15.2999 5.01953 15.4259 5.23516 15.5473C6.10391 16.0352 7.11953 16.4195 8.25234 16.6895ZM4.78945 9.75859C4.95493 10.3405 5.17031 10.9071 5.4332 11.452V11.4512C6.15358 10.242 7.0236 9.12854 8.02266 8.13712C8.27031 7.88946 8.52161 7.65221 8.77656 7.42539C8.60039 7.46172 8.42539 7.49844 8.25234 7.53985C7.11797 7.80977 6.10313 8.19374 5.23516 8.68203C5.01927 8.80364 4.81589 8.92955 4.625 9.05976C4.66797 9.28736 4.72279 9.52031 4.78945 9.75859ZM13.0352 6.51913C12.6927 6.29048 12.3477 6.08046 12 5.88906C11.6518 6.08098 11.3066 6.29101 10.9645 6.51913C11.3048 6.49908 11.65 6.48919 12 6.48945C12.35 6.48971 12.6951 6.4996 13.0352 6.51913ZM15.2234 7.42499C15.4789 7.65233 15.7302 7.88958 15.9773 8.13671C16.9764 9.12826 17.8464 10.2419 18.5668 11.4512C18.8297 10.9064 19.045 10.34 19.2105 9.75821C19.2772 9.51967 19.332 9.28672 19.375 9.05938C19.1839 8.92891 18.9803 8.803 18.7645 8.68164C17.8961 8.19336 16.8805 7.80937 15.7477 7.53945C15.575 7.49804 15.3996 7.46053 15.2234 7.42499ZM5.3707 5.48516C4.93203 5.92422 4.65742 6.51289 4.55508 7.23477C4.50443 7.61222 4.4963 7.99417 4.53086 8.37344C5.88125 7.5207 7.68594 6.90039 9.73164 6.63359C10.2433 6.23947 10.7787 5.8772 11.3348 5.54882C10.0695 4.94492 8.84375 4.62578 7.78008 4.62578C6.75234 4.62578 5.9418 4.91445 5.3707 5.48516ZM2.625 12.1145C2.625 12.7352 2.84727 13.3453 3.28555 13.9281C3.51671 14.2313 3.78127 14.5075 4.07422 14.7516C4.26523 13.9058 4.59922 13.0129 5.06602 12.1145C4.59922 11.2145 4.26523 10.3226 4.07422 9.47733C3.78127 9.72121 3.51671 9.99731 3.28555 10.3004C2.84727 10.8832 2.625 11.4937 2.625 12.1145ZM5.37188 18.743C5.94297 19.3129 6.75352 19.6023 7.78125 19.6023C8.84375 19.6023 10.0699 19.2848 11.3359 18.6805C10.7797 18.3515 10.2443 17.9884 9.73281 17.5933C7.68711 17.3266 5.88242 16.7066 4.53203 15.8535C4.49738 16.2332 4.50551 16.6155 4.55625 16.9934C4.65859 17.7156 4.9332 18.3039 5.37188 18.743ZM18.6305 18.7418C19.0691 18.3027 19.3438 17.7145 19.4461 16.9922L19.4449 16.9938C19.4966 16.6151 19.5056 16.2318 19.4715 15.8512C18.1211 16.7043 16.3164 17.3242 14.2707 17.591C13.7588 17.986 13.2231 18.3489 12.6664 18.6777C13.9316 19.282 15.1574 19.6012 16.2211 19.6012C17.2488 19.6012 18.0594 19.3129 18.6305 18.7418ZM18.9352 12.1129C19.402 13.0129 19.7359 13.9043 19.927 14.75L19.9258 14.7516C20.2192 14.5071 20.4842 14.2304 20.7156 13.9266C21.1539 13.3438 21.3762 12.734 21.3762 12.1129C21.3762 11.4918 21.1539 10.8816 20.7156 10.2988C20.4845 9.99575 20.2199 9.71965 19.927 9.47577C19.7359 10.3211 19.402 11.2145 18.9352 12.1129ZM15.125 12.1145C15.125 13.8403 13.7259 15.2395 12 15.2395C10.2741 15.2395 8.875 13.8403 8.875 12.1145C8.875 10.3886 10.2741 8.98946 12 8.98946C13.7259 8.98946 15.125 10.3886 15.125 12.1145Z" fill="#1D1E23"/></svg>