<svg viewBox="0 0 24 24" fill="none" xmlns="http://www.w3.org/2000/svg"><path d="M10.125 7H8.875V10.857L10.125 9.60701V7ZM4.49998 7H2V21.9999H4.49998V7ZM12.6249 7H11.3749V8.35702L12.6249 7.10703V7ZM21.7788 4.72123C21.9204 4.57956 22 4.3874 22 4.18704 22 3.98669 21.9204 3.79455 21.7788 3.65288L20.3471 2.22125C20.2055 2.07958 20.0133 2 19.813 2 19.6126 2 19.4205 2.07958 19.2788 2.22125L18.5624 2.93608 21.0624 5.43606 21.7788 4.72123ZM7.62499 7H5.75V13.982L7.62499 12.107V7ZM16.9999 18.2501H18.2499V10.0127L16.9999 11.2635V18.2501ZM13.875 18.2499H15.75V12.5144L13.875 14.3909V18.2499ZM21.26 7 19.4999 8.76092V21.9999H21.9999V7H21.26ZM17.9374 3.56274 7 14.5002 9.49998 17.0001 20.4374 6.05491 17.9374 3.56274ZM11.3749 18.25H12.6249V15.6418L11.3749 16.893V18.25ZM6.375 15.125 5.75 15.75V18.25H8.24998L8.87498 17.625 6.375 15.125Z" fill="#1D1E23"/></svg>