<svg viewBox="0 0 2400 2400" fill="none" xmlns="http://www.w3.org/2000/svg"><path d="M200.000 950.000 L 200.000 1700.000 326.000 1700.000 L 452.000 1700.000 452.000 950.000 L 452.000 200.000 326.000 200.000 L 200.000 200.000 200.000 950.000 M576.000 794.135 L 576.000 1388.271 618.436 1387.135 L 660.871 1386.000 712.436 1296.647 L 764.000 1207.295 764.000 703.647 L 764.000 200.000 670.000 200.000 L 576.000 200.000 576.000 794.135 M888.000 727.846 L 888.000 1255.692 904.289 1260.078 C 913.247 1262.490,926.297 1263.909,933.289 1263.232 C 944.318 1262.163,947.403 1259.089,956.607 1240.000 C 962.440 1227.900,977.290 1188.581,989.607 1152.625 L 1012.000 1087.250 1012.000 643.625 L 1012.000 200.000 950.000 200.000 L 888.000 200.000 888.000 727.846 M1136.982 637.000 L 1138.000 1074.000 1201.000 1075.102 L 1264.000 1076.203 1264.000 638.102 L 1264.000 200.000 1199.982 200.000 L 1135.965 200.000 1136.982 637.000 M1388.000 643.591 L 1388.000 1087.182 1411.853 1156.917 C 1424.973 1195.271,1439.309 1235.055,1443.711 1245.326 C 1453.379 1267.881,1453.417 1267.885,1524.000 1253.922 C 1551.500 1248.482,1574.450 1244.024,1575.000 1244.015 C 1575.550 1244.007,1576.000 1009.100,1576.000 722.000 L 1576.000 200.000 1482.000 200.000 L 1388.000 200.000 1388.000 643.591 M1700.000 758.525 L 1700.000 1317.051 1720.301 1352.525 L 1740.601 1388.000 1782.301 1388.000 L 1824.000 1388.000 1824.000 794.000 L 1824.000 200.000 1762.000 200.000 L 1700.000 200.000 1700.000 758.525 M1948.000 950.000 L 1948.000 1700.000 2074.000 1700.000 L 2200.000 1700.000 2200.000 950.000 L 2200.000 200.000 2074.000 200.000 L 1948.000 200.000 1948.000 950.000 M1090.314 1247.000 C 1081.829 1272.850,1069.619 1307.849,1063.179 1324.775 L 1051.471 1355.551 1012.754 1378.218 L 974.036 1400.886 916.018 1390.497 C 884.108 1384.783,847.959 1378.972,835.687 1377.584 L 813.373 1375.060 793.262 1406.530 C 763.908 1452.462,724.000 1521.814,724.000 1526.893 C 724.000 1532.581,748.171 1563.044,790.319 1610.474 L 824.000 1648.376 823.907 1699.188 L 823.813 1750.000 780.120 1801.864 C 756.089 1830.389,734.180 1857.927,731.433 1863.059 C 727.043 1871.262,728.272 1876.116,741.592 1903.195 C 765.481 1951.761,805.142 2016.533,814.927 2022.960 C 822.962 2028.238,831.284 2027.365,898.201 2014.226 L 972.548 1999.629 997.274 2015.233 C 1010.873 2023.816,1029.505 2034.662,1038.678 2039.336 L 1055.356 2047.834 1080.599 2123.917 L 1105.842 2200.000 1200.134 2200.000 L 1294.425 2200.000 1303.655 2171.000 C 1320.227 2118.933,1340.138 2070.574,1350.714 2056.709 C 1356.416 2049.232,1376.057 2033.354,1394.360 2021.423 L 1427.638 1999.732 1504.416 2014.705 L 1581.194 2029.678 1593.597 2015.142 C 1605.964 2000.649,1660.166 1903.998,1668.893 1880.878 C 1673.147 1869.608,1672.287 1867.109,1657.350 1847.350 C 1648.473 1835.608,1626.547 1808.900,1608.625 1788.000 L 1576.039 1750.000 1576.039 1700.000 L 1576.040 1650.000 1625.863 1592.000 C 1663.774 1547.866,1675.148 1532.087,1673.435 1526.000 C 1672.198 1521.600,1653.099 1486.050,1630.995 1447.000 C 1592.455 1378.916,1590.295 1376.000,1578.402 1375.994 C 1571.581 1375.991,1534.498 1381.594,1495.996 1388.445 L 1425.992 1400.903 1387.261 1378.227 L 1348.529 1355.551 1336.821 1324.775 C 1330.381 1307.849,1318.171 1272.850,1309.686 1247.000 L 1294.260 1200.000 1200.000 1200.000 L 1105.740 1200.000 1090.314 1247.000 M1248.867 1523.941 C 1339.075 1551.803,1395.001 1639.062,1379.928 1728.429 C 1367.217 1803.784,1312.201 1861.463,1233.476 1881.968 C 1201.786 1890.223,1189.514 1889.611,1152.563 1877.939 C 1100.519 1861.498,1059.686 1825.781,1031.450 1772.000 C 1022.872 1755.661,1022.000 1749.016,1022.000 1700.000 C 1022.000 1649.202,1022.633 1644.800,1032.681 1625.763 C 1078.847 1538.291,1164.585 1497.909,1248.867 1523.941 " fill="#1D1E23" stroke="none" fill-rule="evenodd"/></svg>