<svg viewBox="0 0 2400 2400" fill="none" xmlns="http://www.w3.org/2000/svg"><path d="M200.000 950.000 L 200.000 1700.000 326.000 1700.000 L 452.000 1700.000 452.000 950.000 L 452.000 200.000 326.000 200.000 L 200.000 200.000 200.000 950.000 M560.987 797.000 L 562.000 1394.000 650.436 1395.075 L 738.871 1396.150 747.436 1375.542 L 756.000 1354.933 756.000 777.467 L 756.000 200.000 657.987 200.000 L 559.974 200.000 560.987 797.000 M892.292 607.000 C 892.569 992.374,895.064 1152.397,900.886 1158.219 C 902.303 1159.636,926.984 1146.941,955.731 1130.007 L 1008.000 1099.218 1008.000 649.609 L 1008.000 200.000 950.000 200.000 L 892.000 200.000 892.292 607.000 M1144.000 644.000 L 1144.000 1088.000 1200.000 1088.000 L 1256.000 1088.000 1256.000 644.000 L 1256.000 200.000 1200.000 200.000 L 1144.000 200.000 1144.000 644.000 M1392.000 645.960 L 1392.000 1091.920 1429.000 1110.467 C 1474.531 1133.290,1525.269 1167.766,1561.000 1200.159 L 1588.000 1224.637 1588.000 712.318 L 1588.000 200.000 1490.000 200.000 L 1392.000 200.000 1392.000 645.960 M1700.000 798.094 L 1700.000 1396.189 1769.000 1395.094 L 1838.000 1394.000 1839.013 797.000 L 1840.026 200.000 1770.013 200.000 L 1700.000 200.000 1700.000 798.094 M1948.000 950.000 L 1948.000 1700.000 2074.000 1700.000 L 2200.000 1700.000 2200.000 950.000 L 2200.000 200.000 2074.000 200.000 L 1948.000 200.000 1948.000 950.000 M1088.637 1214.013 C 1076.887 1217.318,1048.987 1229.379,1026.637 1240.815 C 936.845 1286.759,882.250 1366.459,858.571 1486.162 C 845.558 1551.945,843.050 1587.774,843.186 1706.000 C 843.304 1808.515,844.510 1832.702,851.462 1872.000 C 878.812 2026.611,934.317 2117.416,1030.000 2164.086 C 1079.946 2188.448,1122.525 2196.984,1194.000 2196.965 C 1257.649 2196.948,1289.875 2192.813,1332.000 2179.256 C 1493.630 2127.239,1568.385 1956.622,1558.633 1662.000 C 1550.918 1428.916,1496.412 1302.679,1376.721 1240.691 C 1323.715 1213.239,1313.333 1211.347,1206.000 1209.582 C 1129.061 1208.317,1105.758 1209.196,1088.637 1214.013 M1302.476 1407.201 C 1356.158 1462.862,1402.968 1512.812,1406.500 1518.201 C 1412.420 1527.237,1412.389 1528.810,1406.104 1538.403 C 1402.355 1544.125,1366.887 1582.833,1327.286 1624.422 L 1255.284 1700.038 1324.555 1772.349 C 1362.653 1812.120,1398.160 1850.752,1403.458 1858.199 C 1412.584 1871.026,1412.749 1872.261,1406.585 1881.668 C 1400.354 1891.178,1224.712 2074.811,1186.437 2111.833 L 1168.000 2129.666 1168.000 1959.876 L 1168.000 1790.086 1098.088 1859.912 L 1028.175 1929.739 1013.740 1915.870 C 1005.800 1908.241,995.710 1897.010,991.316 1890.911 L 983.328 1879.821 996.119 1864.911 C 1003.154 1856.710,1041.245 1816.250,1080.767 1775.000 L 1152.623 1700.000 1080.767 1625.000 C 1041.245 1583.750,1003.154 1543.290,996.119 1535.089 L 983.328 1520.179 991.316 1509.089 C 995.710 1502.990,1005.800 1491.759,1013.740 1484.130 L 1028.175 1470.261 1098.088 1540.088 L 1168.000 1609.914 1168.000 1440.124 L 1168.000 1270.334 1186.437 1288.167 C 1196.577 1297.975,1248.795 1351.540,1302.476 1407.201 M1240.000 1528.925 L 1240.000 1609.850 1279.762 1570.237 L 1319.524 1530.624 1281.269 1489.312 C 1260.228 1466.590,1242.335 1448.000,1241.507 1448.000 C 1240.678 1448.000,1240.000 1484.416,1240.000 1528.925 M1240.000 1871.075 C 1240.000 1915.584,1240.678 1952.000,1241.507 1952.000 C 1242.335 1952.000,1260.228 1933.410,1281.269 1910.688 L 1319.524 1869.376 1279.762 1829.763 L 1240.000 1790.150 1240.000 1871.075 " fill="#1D1E23" stroke="none" fill-rule="evenodd"/></svg>