<svg viewBox="0 0 2400 2400" fill="none" xmlns="http://www.w3.org/2000/svg"><path d="M200.000 950.000 L 200.000 1700.000 326.000 1700.000 L 452.000 1700.000 452.000 950.000 L 452.000 200.000 326.000 200.000 L 200.000 200.000 200.000 950.000 M576.000 794.000 L 576.000 1388.000 670.000 1388.000 L 764.000 1388.000 764.000 794.000 L 764.000 200.000 670.000 200.000 L 576.000 200.000 576.000 794.000 M888.000 794.000 L 888.000 1388.000 950.000 1388.000 L 1012.000 1388.000 1012.000 794.000 L 1012.000 200.000 950.000 200.000 L 888.000 200.000 888.000 794.000 M1136.000 794.000 L 1136.000 1388.000 1200.000 1388.000 L 1264.000 1388.000 1264.000 794.000 L 1264.000 200.000 1200.000 200.000 L 1136.000 200.000 1136.000 794.000 M1388.839 791.668 C 1389.478 1117.085,1391.418 1384.753,1393.150 1386.485 C 1394.883 1388.216,1436.733 1349.231,1486.150 1299.850 L 1576.000 1210.067 1576.000 705.033 L 1576.000 200.000 1481.839 200.000 L 1387.678 200.000 1388.839 791.668 M1700.000 705.048 L 1700.000 1210.097 1762.000 1272.000 L 1824.000 1333.903 1824.000 766.952 L 1824.000 200.000 1762.000 200.000 L 1700.000 200.000 1700.000 705.048 M1948.000 950.000 L 1948.000 1700.000 2074.000 1700.000 L 2200.000 1700.000 2200.000 950.000 L 2200.000 200.000 2074.000 200.000 L 1948.000 200.000 1948.000 950.000 M1323.007 1638.986 L 1012.021 1949.973 886.974 1824.974 L 761.928 1699.975 699.996 1762.004 L 638.064 1824.032 826.019 2012.019 L 1013.975 2200.006 1327.242 1887.003 C 1499.539 1714.851,1667.768 1545.478,1701.083 1510.617 L 1761.656 1447.234 1701.328 1387.617 C 1668.147 1354.828,1639.423 1328.000,1637.496 1328.000 C 1635.570 1328.000,1494.050 1467.944,1323.007 1638.986 " fill="#1D1E23" stroke="none" fill-rule="evenodd"/></svg>