<svg viewBox="0 0 2400 2400" fill="none" xmlns="http://www.w3.org/2000/svg"><path d="M200.000 950.000 L 200.000 1700.000 326.000 1700.000 L 452.000 1700.000 452.000 950.000 L 452.000 200.000 326.000 200.000 L 200.000 200.000 200.000 950.000 M576.000 794.000 L 576.000 1388.000 670.000 1388.000 L 764.000 1388.000 764.000 794.000 L 764.000 200.000 670.000 200.000 L 576.000 200.000 576.000 794.000 M888.000 794.000 L 888.000 1388.000 950.000 1388.000 L 1012.000 1388.000 1012.000 794.000 L 1012.000 200.000 950.000 200.000 L 888.000 200.000 888.000 794.000 M1136.000 794.000 L 1136.000 1388.000 1200.000 1388.000 L 1264.000 1388.000 1264.000 794.000 L 1264.000 200.000 1200.000 200.000 L 1136.000 200.000 1136.000 794.000 M1388.296 777.000 C 1388.460 1094.350,1389.852 1362.100,1391.392 1372.000 L 1394.190 1390.000 1485.095 1300.334 L 1576.000 1210.668 1576.000 705.334 L 1576.000 200.000 1482.000 200.000 L 1388.000 200.000 1388.296 777.000 M1700.000 705.048 L 1700.000 1210.097 1762.000 1272.000 L 1824.000 1333.903 1824.000 766.952 L 1824.000 200.000 1762.000 200.000 L 1700.000 200.000 1700.000 705.048 M1948.000 950.000 L 1948.000 1700.000 2074.000 1700.000 L 2200.000 1700.000 2200.000 950.000 L 2200.000 200.000 2074.000 200.000 L 1948.000 200.000 1948.000 950.000 M1323.756 1638.499 L 1011.784 1949.736 886.856 1824.856 L 761.928 1699.975 699.996 1762.004 L 638.064 1824.032 826.020 2012.020 L 1013.975 2200.007 1335.242 1879.003 C 1511.939 1702.452,1679.983 1533.269,1708.673 1503.042 L 1760.836 1448.085 1709.418 1395.652 C 1681.138 1366.813,1652.989 1339.628,1646.865 1335.240 L 1635.729 1327.262 1323.756 1638.499 " fill="#1D1E23" stroke="none" fill-rule="evenodd"/></svg>