<svg viewBox="0 0 2400 2400" fill="none" xmlns="http://www.w3.org/2000/svg"><path d="M200.000 950.000 L 200.000 1700.000 326.000 1700.000 L 452.000 1700.000 452.000 950.000 L 452.000 200.000 326.000 200.000 L 200.000 200.000 200.000 950.000 M576.000 794.000 L 576.000 1388.000 617.632 1388.000 L 659.264 1388.000 711.624 1297.000 L 763.983 1206.000 763.992 703.000 L 764.000 200.000 670.000 200.000 L 576.000 200.000 576.000 794.000 M888.000 727.924 L 888.000 1255.848 899.000 1258.312 C 905.050 1259.667,916.300 1262.392,924.000 1264.366 C 951.030 1271.296,947.288 1277.420,986.333 1162.373 L 1012.000 1086.747 1012.000 643.373 L 1012.000 200.000 950.000 200.000 L 888.000 200.000 888.000 727.924 M1136.982 637.000 L 1138.000 1074.000 1201.000 1075.102 L 1264.000 1076.203 1264.000 638.102 L 1264.000 200.000 1199.982 200.000 L 1135.965 200.000 1136.982 637.000 M1387.967 643.000 L 1387.934 1086.000 1416.413 1170.846 C 1432.077 1217.512,1446.943 1258.496,1449.448 1261.922 C 1453.527 1267.500,1460.237 1266.889,1513.626 1256.076 C 1546.418 1249.434,1573.867 1244.000,1574.624 1244.000 C 1575.381 1244.000,1576.000 1009.100,1576.000 722.000 L 1576.000 200.000 1482.000 200.000 L 1388.000 200.000 1387.967 643.000 M1700.000 758.525 L 1700.000 1317.051 1720.301 1352.525 L 1740.601 1388.000 1782.301 1388.000 L 1824.000 1388.000 1824.000 794.000 L 1824.000 200.000 1762.000 200.000 L 1700.000 200.000 1700.000 758.525 M1948.000 950.000 L 1948.000 1700.000 2074.000 1700.000 L 2200.000 1700.000 2200.000 950.000 L 2200.000 200.000 2074.000 200.000 L 1948.000 200.000 1948.000 950.000 M1080.081 1277.755 L 1054.392 1355.510 1038.290 1362.755 C 1029.433 1366.740,1011.345 1377.031,998.094 1385.625 L 974.000 1401.249 898.000 1386.470 C 856.200 1378.341,820.200 1371.782,818.000 1371.895 C 815.800 1372.007,809.618 1378.827,804.262 1387.050 C 795.241 1400.898,733.724 1505.831,724.272 1523.492 C 720.665 1530.231,727.139 1539.230,772.050 1589.904 L 824.000 1648.521 824.000 1699.471 L 824.000 1750.421 777.545 1804.211 C 751.995 1833.795,729.351 1861.731,727.226 1866.292 C 724.023 1873.163,731.066 1888.075,768.340 1953.352 C 801.745 2011.855,814.949 2031.664,819.659 2030.346 C 823.146 2029.369,858.820 2021.961,898.933 2013.884 L 971.866 1999.198 996.933 2015.018 C 1010.720 2023.719,1029.505 2034.662,1038.678 2039.336 L 1055.356 2047.834 1080.599 2123.917 L 1105.842 2200.000 1199.921 2199.983 L 1294.000 2199.967 1317.698 2129.877 C 1330.731 2091.328,1343.667 2056.545,1346.444 2052.580 C 1349.220 2048.616,1368.825 2035.084,1390.010 2022.508 L 1428.528 1999.643 1507.264 2015.465 C 1550.569 2024.167,1586.280 2030.998,1586.622 2030.644 C 1591.854 2025.232,1676.000 1874.928,1676.000 1870.994 C 1676.000 1867.976,1653.500 1839.771,1626.000 1808.318 L 1576.000 1751.129 1576.000 1700.000 L 1576.000 1648.871 1626.000 1591.682 C 1653.500 1560.229,1676.000 1532.731,1676.000 1530.576 C 1676.000 1523.022,1596.659 1384.326,1585.398 1372.195 C 1584.477 1371.202,1548.235 1377.323,1504.861 1385.799 L 1426.000 1401.208 1401.906 1385.604 C 1388.655 1377.022,1370.567 1366.740,1361.710 1362.755 L 1345.608 1355.510 1319.919 1277.755 L 1294.230 1200.000 1200.000 1200.000 L 1105.770 1200.000 1080.081 1277.755 M1236.524 1517.761 C 1314.497 1534.288,1375.314 1599.585,1383.424 1675.479 C 1389.927 1736.344,1373.664 1786.075,1333.480 1828.204 C 1292.119 1871.566,1227.871 1894.399,1173.448 1885.077 C 1071.510 1867.616,1000.534 1771.244,1016.288 1671.686 C 1027.899 1598.315,1085.736 1535.967,1158.536 1518.346 C 1188.886 1511.000,1204.087 1510.886,1236.524 1517.761 " fill="#1D1E23" stroke="none" fill-rule="evenodd"/></svg>