<svg viewBox="0 0 2400 2400" fill="none" xmlns="http://www.w3.org/2000/svg"><path d="M200.000 950.000 L 200.000 1700.000 326.000 1700.000 L 452.000 1700.000 452.000 950.000 L 452.000 200.000 326.000 200.000 L 200.000 200.000 200.000 950.000 M576.000 794.135 L 576.000 1388.271 618.296 1387.135 L 660.591 1386.000 712.296 1296.120 L 764.000 1206.239 764.000 703.120 L 764.000 200.000 670.000 200.000 L 576.000 200.000 576.000 794.135 M888.000 727.924 L 888.000 1255.848 899.000 1258.283 C 905.050 1259.623,915.924 1262.521,923.165 1264.724 C 948.475 1272.424,949.269 1271.150,985.636 1164.462 L 1012.000 1087.120 1012.000 643.560 L 1012.000 200.000 950.000 200.000 L 888.000 200.000 888.000 727.924 M1136.982 637.000 L 1138.000 1074.000 1201.000 1075.102 L 1264.000 1076.203 1264.000 638.102 L 1264.000 200.000 1199.982 200.000 L 1135.965 200.000 1136.982 637.000 M1388.000 643.400 L 1388.000 1086.800 1411.736 1156.400 C 1452.449 1275.781,1446.964 1264.000,1461.826 1264.000 C 1469.017 1264.000,1496.995 1259.500,1524.000 1254.000 C 1551.005 1248.500,1573.753 1244.000,1574.550 1244.000 C 1575.348 1244.000,1576.000 1009.100,1576.000 722.000 L 1576.000 200.000 1482.000 200.000 L 1388.000 200.000 1388.000 643.400 M1700.000 758.525 L 1700.000 1317.051 1720.301 1352.525 L 1740.601 1388.000 1782.301 1388.000 L 1824.000 1388.000 1824.000 794.000 L 1824.000 200.000 1762.000 200.000 L 1700.000 200.000 1700.000 758.525 M1948.000 950.000 L 1948.000 1700.000 2074.000 1700.000 L 2200.000 1700.000 2200.000 950.000 L 2200.000 200.000 2074.000 200.000 L 1948.000 200.000 1948.000 950.000 M1079.996 1278.013 C 1062.154 1332.016,1052.157 1356.681,1047.514 1358.154 C 1043.824 1359.325,1025.774 1369.410,1007.403 1380.564 L 974.000 1400.845 896.629 1386.241 C 834.104 1374.439,818.108 1372.591,813.267 1376.608 C 806.091 1382.564,727.861 1513.666,725.036 1524.472 C 722.844 1532.853,733.693 1547.200,789.000 1609.060 L 824.000 1648.207 823.944 1699.104 L 823.888 1750.000 776.052 1806.000 C 742.113 1845.732,728.185 1865.004,728.108 1872.339 C 728.047 1878.188,743.660 1910.032,764.062 1945.668 C 807.679 2021.856,811.804 2027.710,822.000 2027.889 C 826.400 2027.967,862.019 2021.605,901.152 2013.753 L 972.304 1999.475 997.152 2015.156 C 1010.819 2023.781,1029.505 2034.662,1038.678 2039.336 L 1055.356 2047.834 1080.599 2123.917 L 1105.842 2200.000 1200.191 2200.000 L 1294.539 2200.000 1301.700 2177.000 C 1321.369 2113.829,1345.354 2053.449,1353.335 2047.012 C 1358.101 2043.168,1376.999 2030.944,1395.331 2019.847 L 1428.662 1999.669 1501.331 2014.080 C 1541.299 2022.006,1576.815 2029.296,1580.256 2030.279 C 1586.213 2031.981,1608.505 1996.116,1661.910 1898.905 C 1679.612 1866.682,1683.348 1875.413,1620.493 1802.115 L 1576.000 1750.231 1576.000 1699.918 L 1576.000 1649.606 1624.317 1593.803 C 1650.892 1563.111,1673.573 1535.779,1674.720 1533.065 C 1677.059 1527.532,1661.650 1498.172,1616.806 1422.712 L 1586.326 1371.424 1572.163 1373.839 C 1564.373 1375.167,1528.300 1381.788,1492.000 1388.550 L 1426.000 1400.847 1392.597 1380.565 C 1374.226 1369.410,1356.176 1359.325,1352.486 1358.154 C 1347.843 1356.681,1337.846 1332.016,1320.004 1278.013 L 1294.230 1200.000 1200.000 1200.000 L 1105.770 1200.000 1079.996 1278.013 M1232.488 1517.753 C 1306.741 1533.492,1365.375 1590.062,1380.491 1660.545 C 1382.998 1672.238,1384.099 1696.494,1382.954 1714.843 C 1377.979 1794.585,1320.698 1860.662,1238.160 1881.873 C 1209.822 1889.156,1195.579 1889.498,1167.197 1883.580 C 1109.430 1871.533,1060.719 1833.093,1033.669 1778.207 C 1018.183 1746.786,1018.000 1745.876,1018.000 1700.207 C 1018.000 1655.063,1018.345 1653.277,1033.001 1622.583 C 1058.458 1569.266,1107.962 1529.479,1163.805 1517.451 C 1193.296 1511.099,1201.260 1511.134,1232.488 1517.753 " fill="#1D1E23" stroke="none" fill-rule="evenodd"/></svg>