<svg viewBox="0 0 2400 2400" fill="none" xmlns="http://www.w3.org/2000/svg"><path d="M200.000 950.000 L 200.000 1700.000 326.000 1700.000 L 452.000 1700.000 452.000 950.000 L 452.000 200.000 326.000 200.000 L 200.000 200.000 200.000 950.000 M560.987 797.000 L 562.000 1394.000 650.436 1395.075 L 738.871 1396.150 747.436 1375.542 L 756.000 1354.933 756.000 777.467 L 756.000 200.000 657.987 200.000 L 559.974 200.000 560.987 797.000 M892.000 665.442 C 892.000 921.435,893.129 1139.120,894.509 1149.188 L 897.018 1167.492 925.509 1148.300 C 941.179 1137.745,966.150 1122.404,981.000 1114.210 L 1008.000 1099.311 1008.000 649.656 L 1008.000 200.000 950.000 200.000 L 892.000 200.000 892.000 665.442 M1144.000 644.000 L 1144.000 1088.000 1200.000 1088.000 L 1256.000 1088.000 1256.000 644.000 L 1256.000 200.000 1200.000 200.000 L 1144.000 200.000 1144.000 644.000 M1392.000 645.691 L 1392.000 1091.383 1433.521 1111.217 C 1486.326 1136.441,1517.421 1157.630,1556.691 1195.149 L 1588.000 1225.061 1588.000 712.531 L 1588.000 200.000 1490.000 200.000 L 1392.000 200.000 1392.000 645.691 M1700.000 798.094 L 1700.000 1396.189 1769.000 1395.094 L 1838.000 1394.000 1839.013 797.000 L 1840.026 200.000 1770.013 200.000 L 1700.000 200.000 1700.000 798.094 M1948.000 950.000 L 1948.000 1700.000 2074.000 1700.000 L 2200.000 1700.000 2200.000 950.000 L 2200.000 200.000 2074.000 200.000 L 1948.000 200.000 1948.000 950.000 M1134.125 1204.394 C 1062.970 1213.140,994.180 1246.084,949.685 1292.724 C 878.066 1367.793,846.063 1477.410,841.288 1664.000 C 837.322 1818.949,852.219 1925.513,890.708 2017.535 C 923.953 2097.018,991.281 2158.521,1072.000 2183.141 C 1166.440 2211.946,1301.610 2202.468,1380.955 2161.479 C 1422.620 2139.955,1472.433 2089.159,1495.456 2044.719 C 1544.373 1950.295,1563.274 1836.608,1558.751 1664.000 C 1553.625 1468.340,1518.427 1355.831,1439.141 1281.663 C 1398.657 1243.792,1354.028 1221.657,1294.000 1209.677 C 1256.836 1202.259,1173.809 1199.516,1134.125 1204.394 M1415.726 1524.141 C 1418.552 1528.913,1401.088 1549.185,1337.338 1615.134 L 1255.315 1699.988 1337.367 1784.799 C 1401.525 1851.113,1418.621 1870.961,1415.755 1875.805 C 1413.739 1879.212,1357.239 1937.800,1290.199 2006.000 L 1168.308 2130.000 1168.154 1960.043 L 1168.000 1790.086 1097.999 1860.001 L 1027.997 1929.917 1003.063 1904.983 L 978.128 1880.048 1012.045 1845.024 C 1030.699 1825.761,1070.246 1785.250,1099.927 1755.000 L 1153.893 1700.000 1099.927 1645.000 C 1070.246 1614.750,1030.699 1574.239,1012.045 1554.976 L 978.128 1519.952 1003.063 1495.017 L 1027.997 1470.083 1097.999 1539.999 L 1168.000 1609.914 1168.154 1439.957 L 1168.308 1270.000 1290.199 1394.000 C 1357.239 1462.200,1413.726 1520.763,1415.726 1524.141 M1240.000 1528.925 L 1240.000 1609.850 1279.705 1570.293 L 1319.411 1530.737 1280.942 1489.368 C 1259.784 1466.616,1241.917 1448.000,1241.237 1448.000 C 1240.556 1448.000,1240.000 1484.416,1240.000 1528.925 M1240.000 1871.075 C 1240.000 1915.584,1240.623 1952.000,1241.385 1952.000 C 1242.147 1952.000,1260.025 1933.394,1281.112 1910.653 L 1319.454 1869.306 1279.727 1829.728 L 1240.000 1790.150 1240.000 1871.075 " fill="#1D1E23" stroke="none" fill-rule="evenodd"/></svg>