<svg viewBox="0 0 2400 2400" fill="none" xmlns="http://www.w3.org/2000/svg"><path d="M200.000 1200.000 L 200.000 2000.000 350.000 2000.000 L 500.000 2000.000 500.000 1200.000 L 500.000 400.000 350.000 400.000 L 200.000 400.000 200.000 1200.000 M600.000 1100.000 L 600.000 1800.000 700.000 1800.000 L 800.000 1800.000 800.000 1100.000 L 800.000 400.000 700.000 400.000 L 600.000 400.000 600.000 1100.000 M900.000 1100.000 L 900.000 1800.000 1000.000 1800.000 L 1100.000 1800.000 1100.000 1100.000 L 1100.000 400.000 1000.000 400.000 L 900.000 400.000 900.000 1100.000 M1200.000 1100.000 L 1200.000 1800.000 1250.000 1800.000 L 1300.000 1800.000 1300.000 1100.000 L 1300.000 400.000 1250.000 400.000 L 1200.000 400.000 1200.000 1100.000 M1400.000 1100.000 L 1400.000 1800.000 1500.000 1800.000 L 1600.000 1800.000 1600.000 1100.000 L 1600.000 400.000 1500.000 400.000 L 1400.000 400.000 1400.000 1100.000 M1700.000 1100.000 L 1700.000 1800.000 1750.000 1800.000 L 1800.000 1800.000 1800.000 1100.000 L 1800.000 400.000 1750.000 400.000 L 1700.000 400.000 1700.000 1100.000 M1900.000 1200.000 L 1900.000 2000.000 2050.000 2000.000 L 2200.000 2000.000 2200.000 1200.000 L 2200.000 400.000 2050.000 400.000 L 1900.000 400.000 1900.000 1200.000 " fill="#1D1E23" stroke="none" fill-rule="evenodd"/></svg>