<svg viewBox="0 0 2400 2400" fill="none" xmlns="http://www.w3.org/2000/svg"><path d="M200.000 950.000 L 200.000 1700.000 326.000 1700.000 L 452.000 1700.000 452.000 950.000 L 452.000 200.000 326.000 200.000 L 200.000 200.000 200.000 950.000 M576.000 732.000 L 576.000 1264.000 670.000 1264.000 L 764.000 1264.000 764.000 732.000 L 764.000 200.000 670.000 200.000 L 576.000 200.000 576.000 732.000 M888.000 732.000 L 888.000 1264.000 950.000 1264.000 L 1012.000 1264.000 1012.000 732.000 L 1012.000 200.000 950.000 200.000 L 888.000 200.000 888.000 732.000 M1136.985 731.000 L 1138.000 1262.000 1201.000 1263.102 L 1264.000 1264.203 1264.000 732.102 L 1264.000 200.000 1199.985 200.000 L 1135.971 200.000 1136.985 731.000 M1388.000 732.000 L 1388.000 1264.000 1482.000 1264.000 L 1576.000 1264.000 1576.000 732.000 L 1576.000 200.000 1482.000 200.000 L 1388.000 200.000 1388.000 732.000 M1700.000 732.000 L 1700.000 1264.000 1762.000 1264.000 L 1824.000 1264.000 1824.000 732.000 L 1824.000 200.000 1762.000 200.000 L 1700.000 200.000 1700.000 732.000 M1948.000 950.000 L 1948.000 1700.000 2074.000 1700.000 L 2200.000 1700.000 2200.000 950.000 L 2200.000 200.000 2074.000 200.000 L 1948.000 200.000 1948.000 950.000 M593.069 1459.255 C 586.713 1463.292,599.707 1479.643,802.499 1722.793 C 1061.985 2033.920,1192.897 2188.000,1197.758 2188.000 C 1208.471 2188.000,1251.922 2137.505,1567.397 1758.442 C 1786.883 1494.715,1801.514 1476.844,1807.632 1465.000 L 1812.281 1456.000 1205.141 1456.061 C 871.213 1456.095,595.781 1457.532,593.069 1459.255 " fill="#1D1E23" stroke="none" fill-rule="evenodd"/></svg>