<svg viewBox="0 0 2400 2400" fill="none" xmlns="http://www.w3.org/2000/svg"><path d="M200.000 950.000 L 200.000 1700.000 326.000 1700.000 L 452.000 1700.000 452.000 950.000 L 452.000 200.000 326.000 200.000 L 200.000 200.000 200.000 950.000 M576.000 794.000 L 576.000 1388.000 670.000 1388.000 L 764.000 1388.000 764.000 794.000 L 764.000 200.000 670.000 200.000 L 576.000 200.000 576.000 794.000 M888.000 794.000 L 888.000 1388.000 950.000 1388.000 L 1012.000 1388.000 1012.000 794.000 L 1012.000 200.000 950.000 200.000 L 888.000 200.000 888.000 794.000 M1136.000 794.000 L 1136.000 1388.000 1200.000 1388.000 L 1264.000 1388.000 1264.000 794.000 L 1264.000 200.000 1200.000 200.000 L 1136.000 200.000 1136.000 794.000 M1388.000 794.000 C 1388.000 1268.632,1389.011 1388.000,1393.033 1388.000 C 1395.802 1388.000,1438.102 1347.935,1487.033 1298.967 L 1576.000 1209.935 1576.000 704.967 L 1576.000 200.000 1482.000 200.000 L 1388.000 200.000 1388.000 794.000 M1700.000 705.048 L 1700.000 1210.097 1762.000 1272.000 L 1824.000 1333.903 1824.000 766.952 L 1824.000 200.000 1762.000 200.000 L 1700.000 200.000 1700.000 705.048 M1948.000 950.000 L 1948.000 1700.000 2074.000 1700.000 L 2200.000 1700.000 2200.000 950.000 L 2200.000 200.000 2074.000 200.000 L 1948.000 200.000 1948.000 950.000 M1323.007 1638.986 L 1012.021 1949.973 886.974 1824.974 L 761.928 1699.975 699.996 1762.004 L 638.064 1824.032 826.020 2012.020 L 1013.976 2200.008 1386.988 1827.012 C 1592.145 1621.864,1760.000 1452.190,1760.000 1449.958 C 1760.000 1444.727,1643.183 1328.000,1637.948 1328.000 C 1635.773 1328.000,1494.050 1467.944,1323.007 1638.986 " fill="#1D1E23" stroke="none" fill-rule="evenodd"/></svg>