<svg viewBox="0 0 2400 2400" fill="none" xmlns="http://www.w3.org/2000/svg"><path d="M200.000 400.000 L 200.000 600.000 250.000 600.000 L 300.000 600.000 300.000 450.000 L 300.000 300.000 450.000 300.000 L 600.000 300.000 600.000 250.000 L 600.000 200.000 400.000 200.000 L 200.000 200.000 200.000 400.000 M1800.000 250.000 L 1800.000 300.000 1950.000 300.000 L 2100.000 300.000 2100.000 450.000 L 2100.000 600.000 2150.000 600.000 L 2200.000 600.000 2200.000 400.000 L 2200.000 200.000 2000.000 200.000 L 1800.000 200.000 1800.000 250.000 M400.000 1200.000 L 400.000 2000.000 550.000 2000.000 L 700.000 2000.000 700.000 1200.000 L 700.000 400.000 550.000 400.000 L 400.000 400.000 400.000 1200.000 M800.000 1050.000 L 800.000 1700.000 850.000 1700.000 L 900.000 1700.000 900.000 1050.000 L 900.000 400.000 850.000 400.000 L 800.000 400.000 800.000 1050.000 M1000.000 1050.000 L 1000.000 1700.000 1150.000 1700.000 L 1300.000 1700.000 1300.000 1050.000 L 1300.000 400.000 1150.000 400.000 L 1000.000 400.000 1000.000 1050.000 M1400.000 1050.000 L 1400.000 1700.000 1500.000 1700.000 L 1600.000 1700.000 1600.000 1050.000 L 1600.000 400.000 1500.000 400.000 L 1400.000 400.000 1400.000 1050.000 M1700.000 1200.000 L 1700.000 2000.000 1850.000 2000.000 L 2000.000 2000.000 2000.000 1200.000 L 2000.000 400.000 1850.000 400.000 L 1700.000 400.000 1700.000 1200.000 M200.000 2000.000 L 200.000 2200.000 400.000 2200.000 L 600.000 2200.000 600.000 2150.000 L 600.000 2100.000 450.000 2100.000 L 300.000 2100.000 300.000 1950.000 L 300.000 1800.000 250.000 1800.000 L 200.000 1800.000 200.000 2000.000 M2100.000 1950.000 L 2100.000 2100.000 1950.000 2100.000 L 1800.000 2100.000 1800.000 2150.000 L 1800.000 2200.000 2000.000 2200.000 L 2200.000 2200.000 2200.000 2000.000 L 2200.000 1800.000 2150.000 1800.000 L 2100.000 1800.000 2100.000 1950.000 " fill="#1D1E23" stroke="none" fill-rule="evenodd"/></svg>