<svg viewBox="0 0 2400 2400" fill="none" xmlns="http://www.w3.org/2000/svg"><path d="M200.000 950.000 L 200.000 1700.000 326.000 1700.000 L 452.000 1700.000 452.000 950.000 L 452.000 200.000 326.000 200.000 L 200.000 200.000 200.000 950.000 M576.000 794.135 L 576.000 1388.271 618.325 1387.135 L 660.649 1386.000 712.325 1296.378 L 764.000 1206.755 764.000 703.378 L 764.000 200.000 670.000 200.000 L 576.000 200.000 576.000 794.135 M888.000 727.846 L 888.000 1255.692 905.000 1260.318 C 938.891 1269.542,945.038 1268.015,954.592 1248.000 C 959.317 1238.100,974.167 1197.866,987.592 1158.591 L 1012.000 1087.182 1012.000 643.591 L 1012.000 200.000 950.000 200.000 L 888.000 200.000 888.000 727.846 M1136.982 637.000 L 1138.000 1074.000 1201.000 1075.102 L 1264.000 1076.203 1264.000 638.102 L 1264.000 200.000 1199.982 200.000 L 1135.965 200.000 1136.982 637.000 M1388.000 643.652 L 1388.000 1087.303 1416.379 1170.652 C 1431.987 1216.493,1447.296 1256.645,1450.399 1259.877 C 1455.358 1265.044,1460.992 1264.903,1497.020 1258.714 C 1519.559 1254.842,1546.550 1249.801,1557.000 1247.513 L 1576.000 1243.352 1576.000 721.676 L 1576.000 200.000 1482.000 200.000 L 1388.000 200.000 1388.000 643.652 M1700.000 758.525 L 1700.000 1317.051 1720.301 1352.525 L 1740.601 1388.000 1782.301 1388.000 L 1824.000 1388.000 1824.000 794.000 L 1824.000 200.000 1762.000 200.000 L 1700.000 200.000 1700.000 758.525 M1948.000 950.000 L 1948.000 1700.000 2074.000 1700.000 L 2200.000 1700.000 2200.000 950.000 L 2200.000 200.000 2074.000 200.000 L 1948.000 200.000 1948.000 950.000 M1090.400 1247.000 C 1081.963 1272.850,1069.842 1307.687,1063.465 1324.416 L 1051.869 1354.832 1012.935 1377.853 L 974.000 1400.874 916.000 1389.974 C 884.100 1383.979,847.965 1378.161,835.701 1377.045 L 813.402 1375.016 793.303 1406.508 C 782.248 1423.829,761.895 1457.668,748.073 1481.706 L 722.941 1525.412 729.625 1537.706 C 733.300 1544.468,756.038 1572.134,780.154 1599.186 L 824.000 1648.372 823.980 1699.186 L 823.961 1750.000 791.375 1788.000 C 750.653 1835.488,728.000 1865.322,728.000 1871.463 C 728.000 1883.933,798.031 2009.358,812.105 2022.095 C 819.959 2029.203,822.332 2028.990,896.407 2014.544 L 972.628 1999.680 997.314 2015.259 C 1010.891 2023.827,1029.505 2034.662,1038.678 2039.336 L 1055.356 2047.834 1080.599 2123.917 L 1105.842 2200.000 1199.921 2199.985 L 1294.000 2199.971 1313.632 2142.211 C 1342.513 2057.242,1346.797 2050.645,1391.125 2022.858 L 1428.250 1999.587 1499.125 2013.808 C 1538.106 2021.630,1573.600 2027.967,1578.000 2027.889 C 1582.400 2027.812,1589.178 2023.379,1593.062 2018.039 C 1610.257 1994.399,1672.000 1881.285,1672.000 1873.423 C 1672.000 1864.051,1659.641 1847.383,1608.662 1788.000 L 1576.039 1750.000 1576.075 1700.000 L 1576.111 1650.000 1597.055 1625.518 C 1608.575 1612.053,1631.172 1585.588,1647.271 1566.708 L 1676.543 1532.380 1668.881 1515.190 C 1661.350 1498.295,1593.940 1381.069,1588.145 1374.791 C 1586.516 1373.027,1549.367 1378.162,1505.591 1386.203 L 1426.000 1400.824 1387.065 1377.828 L 1348.131 1354.832 1336.535 1324.416 C 1330.158 1307.687,1318.037 1272.850,1309.600 1247.000 L 1294.260 1200.000 1200.000 1200.000 L 1105.740 1200.000 1090.400 1247.000 M1252.942 1523.985 C 1283.077 1533.364,1310.192 1551.085,1335.744 1578.103 C 1418.555 1665.664,1389.471 1812.046,1278.572 1865.847 C 1220.892 1893.830,1177.849 1893.899,1121.473 1866.098 C 1086.263 1848.735,1051.593 1813.205,1033.000 1775.430 C 1020.481 1749.995,1020.000 1747.208,1020.000 1700.081 C 1020.000 1653.717,1020.645 1649.791,1032.275 1625.425 C 1048.115 1592.234,1084.993 1552.850,1115.411 1536.637 C 1162.104 1511.749,1201.875 1508.091,1252.942 1523.985 " fill="#1D1E23" stroke="none" fill-rule="evenodd"/></svg>