<svg viewBox="0 0 2400 2400" fill="none" xmlns="http://www.w3.org/2000/svg"><path d="M200.000 950.000 L 200.000 1700.000 326.000 1700.000 L 452.000 1700.000 452.000 950.000 L 452.000 200.000 326.000 200.000 L 200.000 200.000 200.000 950.000 M560.987 797.000 L 562.000 1394.000 650.436 1395.075 L 738.871 1396.150 747.436 1375.542 L 756.000 1354.933 756.000 777.467 L 756.000 200.000 657.987 200.000 L 559.974 200.000 560.987 797.000 M892.008 575.000 C 892.017 982.889,894.840 1160.000,901.331 1160.000 C 903.556 1160.000,928.468 1146.247,956.689 1129.438 L 1008.000 1098.876 1008.000 649.438 L 1008.000 200.000 950.000 200.000 L 892.000 200.000 892.008 575.000 M1144.000 644.000 L 1144.000 1088.000 1200.000 1088.000 L 1256.000 1088.000 1256.000 644.000 L 1256.000 200.000 1200.000 200.000 L 1144.000 200.000 1144.000 644.000 M1392.000 646.037 L 1392.000 1092.074 1426.076 1108.263 C 1470.887 1129.553,1523.595 1165.120,1559.239 1198.121 L 1588.000 1224.749 1588.000 712.375 L 1588.000 200.000 1490.000 200.000 L 1392.000 200.000 1392.000 646.037 M1700.000 798.094 L 1700.000 1396.189 1769.000 1395.094 L 1838.000 1394.000 1839.013 797.000 L 1840.026 200.000 1770.013 200.000 L 1700.000 200.000 1700.000 798.094 M1948.000 950.000 L 1948.000 1700.000 2074.000 1700.000 L 2200.000 1700.000 2200.000 950.000 L 2200.000 200.000 2074.000 200.000 L 1948.000 200.000 1948.000 950.000 M1117.549 1207.828 C 1087.360 1212.499,1057.666 1222.934,1024.595 1240.493 C 917.936 1297.124,866.881 1388.608,847.402 1558.000 C 840.697 1616.307,840.544 1790.595,847.152 1842.342 C 870.714 2026.863,938.845 2134.386,1059.482 2177.439 C 1102.920 2192.942,1137.741 2197.982,1200.000 2197.779 C 1335.383 2197.337,1422.604 2156.367,1481.122 2065.727 C 1530.207 1989.697,1553.817 1894.016,1558.538 1752.000 C 1565.230 1550.677,1535.138 1402.598,1470.091 1316.763 C 1433.689 1268.728,1369.793 1227.406,1312.000 1214.522 C 1281.681 1207.764,1147.761 1203.153,1117.549 1207.828 M1410.418 1522.929 C 1413.424 1534.050,1410.212 1537.955,1323.166 1628.978 L 1255.290 1699.957 1325.334 1772.978 C 1409.868 1861.106,1413.526 1865.584,1410.402 1877.138 C 1409.084 1882.012,1354.092 1940.900,1288.197 2008.000 L 1168.389 2130.000 1168.195 1960.043 L 1168.000 1790.086 1098.047 1859.953 L 1028.094 1929.820 1005.903 1907.910 C 993.166 1895.334,984.199 1883.131,984.856 1879.266 C 985.485 1875.563,1023.508 1833.713,1069.351 1786.266 L 1152.702 1700.000 1069.351 1613.734 C 1023.508 1566.287,985.485 1524.437,984.856 1520.734 C 984.199 1516.869,993.166 1504.666,1005.903 1492.090 L 1028.094 1470.180 1098.047 1540.047 L 1168.000 1609.914 1168.195 1439.957 L 1168.389 1270.000 1288.197 1392.000 C 1354.092 1459.100,1409.091 1518.018,1410.418 1522.929 M1240.000 1528.925 L 1240.000 1609.850 1279.762 1570.237 L 1319.524 1530.624 1281.269 1489.312 C 1260.228 1466.590,1242.335 1448.000,1241.507 1448.000 C 1240.678 1448.000,1240.000 1484.416,1240.000 1528.925 M1240.000 1871.075 C 1240.000 1915.584,1240.678 1952.000,1241.507 1952.000 C 1242.335 1952.000,1260.228 1933.410,1281.269 1910.688 L 1319.524 1869.376 1279.762 1829.763 L 1240.000 1790.150 1240.000 1871.075 " fill="#1D1E23" stroke="none" fill-rule="evenodd"/></svg>