<svg viewBox="0 0 2400 2400" fill="none" xmlns="http://www.w3.org/2000/svg"><path d="M200.000 950.000 L 200.000 1700.000 326.000 1700.000 L 452.000 1700.000 452.000 950.000 L 452.000 200.000 326.000 200.000 L 200.000 200.000 200.000 950.000 M560.987 797.000 L 562.000 1394.000 650.436 1395.075 L 738.871 1396.150 747.436 1375.542 L 756.000 1354.933 756.000 777.467 L 756.000 200.000 657.987 200.000 L 559.974 200.000 560.987 797.000 M892.937 679.667 C 893.521 943.484,895.229 1160.563,896.731 1162.065 C 898.233 1163.567,918.033 1153.168,940.731 1138.957 C 963.429 1124.745,987.850 1110.120,995.000 1106.456 L 1008.000 1099.795 1008.000 649.897 L 1008.000 200.000 949.937 200.000 L 891.873 200.000 892.937 679.667 M1144.000 644.000 L 1144.000 1088.000 1200.000 1088.000 L 1256.000 1088.000 1256.000 644.000 L 1256.000 200.000 1200.000 200.000 L 1144.000 200.000 1144.000 644.000 M1392.000 646.034 L 1392.000 1092.067 1425.966 1107.760 C 1472.717 1129.358,1520.187 1161.229,1557.000 1195.734 L 1588.000 1224.790 1588.000 712.395 L 1588.000 200.000 1490.000 200.000 L 1392.000 200.000 1392.000 646.034 M1700.000 798.094 L 1700.000 1396.189 1769.000 1395.094 L 1838.000 1394.000 1839.013 797.000 L 1840.026 200.000 1770.013 200.000 L 1700.000 200.000 1700.000 798.094 M1948.000 950.000 L 1948.000 1700.000 2074.000 1700.000 L 2200.000 1700.000 2200.000 950.000 L 2200.000 200.000 2074.000 200.000 L 1948.000 200.000 1948.000 950.000 M1094.600 1212.050 C 1029.902 1228.450,964.437 1269.854,929.795 1316.282 C 906.190 1347.917,898.126 1362.285,884.079 1397.728 C 857.512 1464.761,845.277 1541.211,841.465 1664.000 C 832.972 1937.523,893.963 2099.845,1030.097 2166.030 C 1131.831 2215.490,1308.069 2208.519,1396.214 2151.548 C 1479.255 2097.876,1528.334 2006.780,1550.078 1865.958 C 1563.779 1777.220,1561.670 1605.722,1545.700 1510.000 C 1518.628 1347.731,1445.256 1252.347,1319.284 1215.656 C 1294.705 1208.497,1276.824 1206.883,1208.000 1205.608 C 1136.082 1204.276,1122.139 1205.068,1094.600 1212.050 M1410.599 1518.930 C 1418.410 1530.127,1419.383 1528.894,1325.355 1627.000 L 1255.389 1699.999 1327.484 1775.000 C 1419.164 1870.375,1418.583 1869.632,1410.567 1881.118 C 1407.158 1886.003,1351.272 1944.000,1286.376 2010.000 L 1168.383 2130.000 1168.192 1960.043 L 1168.000 1790.086 1098.041 1859.959 L 1028.083 1929.832 1004.010 1906.010 C 990.770 1892.908,980.401 1880.910,980.969 1879.348 C 981.536 1877.786,1020.404 1836.793,1067.342 1788.254 L 1152.685 1700.000 1067.342 1611.746 C 1020.404 1563.207,981.536 1522.214,980.969 1520.652 C 980.401 1519.090,990.770 1507.092,1004.010 1493.990 L 1028.083 1470.168 1098.041 1540.041 L 1168.000 1609.914 1168.192 1439.957 L 1168.383 1270.000 1286.376 1390.000 C 1351.272 1456.000,1407.172 1514.019,1410.599 1518.930 M1240.000 1528.925 L 1240.000 1609.850 1279.727 1570.272 L 1319.454 1530.694 1281.112 1489.347 C 1260.025 1466.606,1242.147 1448.000,1241.385 1448.000 C 1240.623 1448.000,1240.000 1484.416,1240.000 1528.925 M1240.000 1871.075 C 1240.000 1915.584,1240.678 1952.000,1241.507 1952.000 C 1242.335 1952.000,1260.228 1933.410,1281.269 1910.688 L 1319.524 1869.376 1279.762 1829.763 L 1240.000 1790.150 1240.000 1871.075 " fill="#1D1E23" stroke="none" fill-rule="evenodd"/></svg>