<svg viewBox="0 0 2400 2400" fill="none" xmlns="http://www.w3.org/2000/svg"><path d="M200.000 950.000 L 200.000 1700.000 326.000 1700.000 L 452.000 1700.000 452.000 950.000 L 452.000 200.000 326.000 200.000 L 200.000 200.000 200.000 950.000 M576.000 732.000 L 576.000 1264.000 670.000 1264.000 L 764.000 1264.000 764.000 732.000 L 764.000 200.000 670.000 200.000 L 576.000 200.000 576.000 732.000 M888.000 732.000 L 888.000 1264.000 950.000 1264.000 L 1012.000 1264.000 1012.000 732.000 L 1012.000 200.000 950.000 200.000 L 888.000 200.000 888.000 732.000 M1136.985 731.000 L 1138.000 1262.000 1201.000 1263.102 L 1264.000 1264.203 1264.000 732.102 L 1264.000 200.000 1199.985 200.000 L 1135.971 200.000 1136.985 731.000 M1388.000 732.000 L 1388.000 1264.000 1482.000 1264.000 L 1576.000 1264.000 1576.000 732.000 L 1576.000 200.000 1482.000 200.000 L 1388.000 200.000 1388.000 732.000 M1700.000 732.000 L 1700.000 1264.000 1762.000 1264.000 L 1824.000 1264.000 1824.000 732.000 L 1824.000 200.000 1762.000 200.000 L 1700.000 200.000 1700.000 732.000 M1948.000 950.000 L 1948.000 1700.000 2074.000 1700.000 L 2200.000 1700.000 2200.000 950.000 L 2200.000 200.000 2074.000 200.000 L 1948.000 200.000 1948.000 950.000 M687.000 1454.730 C 632.550 1455.505,588.000 1457.295,588.000 1458.706 C 588.000 1460.118,595.568 1471.337,604.818 1483.637 C 633.158 1521.322,1074.979 2049.831,1184.000 2176.457 C 1201.517 2196.803,1194.199 2202.970,1298.460 2080.000 C 1403.750 1955.817,1778.339 1506.033,1795.743 1482.894 C 1805.301 1470.186,1811.951 1458.617,1810.520 1457.187 C 1807.759 1454.426,854.660 1452.342,687.000 1454.730 " fill="#1D1E23" stroke="none" fill-rule="evenodd"/></svg>