<svg viewBox="0 0 2400 2400" fill="none" xmlns="http://www.w3.org/2000/svg"><path d="M200.000 950.000 L 200.000 1700.000 326.000 1700.000 L 452.000 1700.000 452.000 950.000 L 452.000 200.000 326.000 200.000 L 200.000 200.000 200.000 950.000 M576.000 732.000 L 576.000 1264.000 670.000 1264.000 L 764.000 1264.000 764.000 732.000 L 764.000 200.000 670.000 200.000 L 576.000 200.000 576.000 732.000 M888.000 732.000 L 888.000 1264.000 950.000 1264.000 L 1012.000 1264.000 1012.000 732.000 L 1012.000 200.000 950.000 200.000 L 888.000 200.000 888.000 732.000 M1136.985 731.000 L 1138.000 1262.000 1201.000 1263.102 L 1264.000 1264.203 1264.000 732.102 L 1264.000 200.000 1199.985 200.000 L 1135.971 200.000 1136.985 731.000 M1388.000 732.000 L 1388.000 1264.000 1482.000 1264.000 L 1576.000 1264.000 1576.000 732.000 L 1576.000 200.000 1482.000 200.000 L 1388.000 200.000 1388.000 732.000 M1700.000 732.000 L 1700.000 1264.000 1762.000 1264.000 L 1824.000 1264.000 1824.000 732.000 L 1824.000 200.000 1762.000 200.000 L 1700.000 200.000 1700.000 732.000 M1948.000 950.000 L 1948.000 1700.000 2074.000 1700.000 L 2200.000 1700.000 2200.000 950.000 L 2200.000 200.000 2074.000 200.000 L 1948.000 200.000 1948.000 950.000 M645.000 1458.990 C 615.850 1459.673,592.000 1461.715,592.000 1463.526 C 592.000 1473.121,1153.383 2145.876,1189.612 2179.697 L 1200.000 2189.395 1210.483 2179.697 C 1228.701 2162.844,1328.217 2045.553,1534.333 1798.000 C 1771.717 1512.894,1801.310 1476.824,1807.540 1465.000 L 1812.281 1456.000 1255.141 1456.873 C 948.713 1457.354,674.150 1458.306,645.000 1458.990 " fill="#1D1E23" stroke="none" fill-rule="evenodd"/></svg>