<svg viewBox="0 0 2400 2400" fill="none" xmlns="http://www.w3.org/2000/svg"><path d="M200.000 950.000 L 200.000 1700.000 326.000 1700.000 L 452.000 1700.000 452.000 950.000 L 452.000 200.000 326.000 200.000 L 200.000 200.000 200.000 950.000 M560.987 797.000 L 562.000 1394.000 650.436 1395.075 L 738.871 1396.150 747.436 1375.542 L 756.000 1354.933 756.000 777.467 L 756.000 200.000 657.987 200.000 L 559.974 200.000 560.987 797.000 M892.000 684.428 C 892.000 1081.863,892.940 1168.495,897.234 1166.848 C 900.112 1165.743,911.757 1157.900,923.110 1149.420 C 934.464 1140.939,957.758 1126.579,974.876 1117.509 L 1006.000 1101.017 1007.017 650.509 L 1008.034 200.000 950.017 200.000 L 892.000 200.000 892.000 684.428 M1144.000 644.000 L 1144.000 1088.000 1200.000 1088.000 L 1256.000 1088.000 1256.000 644.000 L 1256.000 200.000 1200.000 200.000 L 1144.000 200.000 1144.000 644.000 M1392.983 646.534 L 1394.000 1093.068 1429.272 1108.346 C 1476.017 1128.594,1524.572 1161.400,1559.522 1196.350 L 1588.000 1224.828 1588.000 712.414 L 1588.000 200.000 1489.983 200.000 L 1391.965 200.000 1392.983 646.534 M1700.000 798.094 L 1700.000 1396.189 1769.000 1395.094 L 1838.000 1394.000 1839.013 797.000 L 1840.026 200.000 1770.013 200.000 L 1700.000 200.000 1700.000 798.094 M1948.000 950.000 L 1948.000 1700.000 2074.000 1700.000 L 2200.000 1700.000 2200.000 950.000 L 2200.000 200.000 2074.000 200.000 L 1948.000 200.000 1948.000 950.000 M1133.076 1204.256 C 1094.565 1209.266,1060.758 1218.912,1028.780 1234.014 C 898.653 1295.472,840.000 1440.251,840.000 1700.000 C 840.000 2048.680,948.950 2200.000,1200.000 2200.000 C 1359.202 2200.000,1459.523 2138.852,1512.894 2009.285 C 1545.671 1929.711,1560.000 1835.631,1560.000 1700.000 C 1560.000 1379.605,1470.295 1230.104,1262.408 1204.037 C 1225.597 1199.422,1169.515 1199.517,1133.076 1204.256 M1419.798 1528.085 C 1419.909 1529.232,1382.950 1568.382,1337.667 1615.085 L 1255.335 1700.000 1337.667 1784.915 C 1382.950 1831.618,1419.909 1870.768,1419.798 1871.915 C 1419.686 1873.062,1363.025 1931.600,1293.884 2002.000 L 1168.173 2130.000 1168.087 1960.043 L 1168.000 1790.086 1097.999 1860.001 L 1027.997 1929.917 1003.069 1904.989 L 978.140 1880.060 1008.043 1849.030 C 1024.490 1831.964,1064.036 1791.450,1095.923 1759.000 L 1153.900 1700.000 1095.923 1641.000 C 1064.036 1608.550,1024.490 1568.036,1008.043 1550.970 L 978.140 1519.940 1003.069 1495.011 L 1027.997 1470.083 1097.999 1539.999 L 1168.000 1609.914 1168.087 1439.957 L 1168.173 1270.000 1293.884 1398.000 C 1363.025 1468.400,1419.686 1526.938,1419.798 1528.085 M1240.000 1528.002 L 1240.000 1609.850 1279.888 1570.112 L 1319.775 1530.374 1291.148 1500.187 C 1275.403 1483.584,1257.453 1464.635,1251.260 1458.077 L 1240.000 1446.154 1240.000 1528.002 M1240.000 1871.075 C 1240.000 1915.584,1240.556 1952.000,1241.237 1952.000 C 1241.917 1952.000,1259.784 1933.384,1280.942 1910.632 L 1319.411 1869.263 1279.705 1829.707 L 1240.000 1790.150 1240.000 1871.075 " fill="#1D1E23" stroke="none" fill-rule="evenodd"/></svg>