<svg viewBox="0 0 2400 2400" fill="none" xmlns="http://www.w3.org/2000/svg"><path d="M200.000 950.000 L 200.000 1700.000 326.000 1700.000 L 452.000 1700.000 452.000 950.000 L 452.000 200.000 326.000 200.000 L 200.000 200.000 200.000 950.000 M576.000 794.000 L 576.000 1388.000 617.412 1388.000 L 658.824 1388.000 711.386 1297.000 L 763.947 1206.000 763.974 703.000 L 764.000 200.000 670.000 200.000 L 576.000 200.000 576.000 794.000 M888.000 727.924 L 888.000 1255.848 897.000 1257.891 C 926.090 1264.498,942.554 1267.816,946.667 1267.902 C 949.234 1267.956,964.984 1227.049,981.667 1176.998 L 1012.000 1085.996 1012.000 642.998 L 1012.000 200.000 950.000 200.000 L 888.000 200.000 888.000 727.924 M1136.982 637.000 L 1138.000 1074.000 1201.000 1075.102 L 1264.000 1076.203 1264.000 638.102 L 1264.000 200.000 1199.982 200.000 L 1135.965 200.000 1136.982 637.000 M1388.000 642.998 L 1388.000 1085.996 1418.333 1176.998 C 1435.016 1227.049,1450.035 1268.000,1451.709 1268.000 C 1453.382 1268.000,1481.414 1262.600,1514.000 1256.000 C 1546.586 1249.400,1573.867 1244.000,1574.624 1244.000 C 1575.381 1244.000,1576.000 1009.100,1576.000 722.000 L 1576.000 200.000 1482.000 200.000 L 1388.000 200.000 1388.000 642.998 M1700.000 758.032 L 1700.000 1316.063 1720.451 1352.032 L 1740.901 1388.000 1782.451 1388.000 L 1824.000 1388.000 1824.000 794.000 L 1824.000 200.000 1762.000 200.000 L 1700.000 200.000 1700.000 758.032 M1948.000 950.000 L 1948.000 1700.000 2074.000 1700.000 L 2200.000 1700.000 2200.000 950.000 L 2200.000 200.000 2074.000 200.000 L 1948.000 200.000 1948.000 950.000 M1080.123 1277.629 L 1054.476 1355.258 1030.537 1366.629 C 1017.371 1372.883,999.264 1383.291,990.299 1389.759 L 974.000 1401.517 898.000 1386.233 C 856.200 1377.826,820.200 1370.278,818.000 1369.459 C 814.567 1368.182,791.833 1405.344,733.013 1508.381 L 720.027 1531.130 773.013 1591.030 L 826.000 1650.931 825.648 1700.346 L 825.297 1749.761 773.648 1808.675 C 745.242 1841.078,722.539 1869.747,723.197 1872.385 C 724.057 1875.834,809.108 2024.855,813.566 2030.725 C 813.868 2031.123,849.545 2024.152,892.847 2015.233 L 971.577 1999.016 996.789 2014.927 C 1010.655 2023.678,1029.505 2034.662,1038.678 2039.336 L 1055.356 2047.834 1080.599 2123.917 L 1105.842 2200.000 1199.938 2200.000 L 1294.034 2200.000 1320.017 2123.000 C 1343.987 2051.964,1346.929 2045.576,1358.000 2040.532 C 1364.600 2037.524,1383.186 2026.961,1399.303 2017.059 L 1428.606 1999.054 1507.245 2015.252 C 1550.497 2024.160,1586.132 2031.123,1586.434 2030.725 C 1587.003 2029.976,1676.047 1875.951,1678.483 1871.503 C 1679.235 1870.130,1656.034 1842.025,1626.925 1809.048 L 1574.000 1749.090 1574.403 1699.607 L 1574.805 1650.123 1625.946 1592.062 C 1654.073 1560.128,1677.202 1532.442,1677.344 1530.538 C 1677.868 1523.486,1585.853 1368.037,1582.000 1369.466 C 1579.800 1370.281,1543.800 1377.826,1502.000 1386.233 L 1426.000 1401.517 1409.701 1389.759 C 1400.736 1383.291,1382.629 1372.883,1369.463 1366.629 L 1345.524 1355.258 1319.877 1277.629 L 1294.230 1200.000 1200.000 1200.000 L 1105.770 1200.000 1080.123 1277.629 M1234.265 1516.321 C 1289.547 1526.386,1342.212 1566.047,1366.816 1616.142 C 1422.940 1730.410,1354.664 1863.106,1228.627 1884.719 C 1129.175 1901.773,1032.466 1831.028,1015.597 1728.882 C 999.786 1633.140,1064.724 1537.930,1159.805 1517.451 C 1188.523 1511.265,1205.114 1511.014,1234.265 1516.321 " fill="#1D1E23" stroke="none" fill-rule="evenodd"/></svg>