<svg viewBox="0 0 2400 2400" fill="none" xmlns="http://www.w3.org/2000/svg"><path d="M200.000 650.000 L 200.000 1100.000 350.000 1100.000 L 500.000 1100.000 500.000 650.000 L 500.000 200.000 350.000 200.000 L 200.000 200.000 200.000 650.000 M600.000 650.000 L 600.000 1100.000 700.000 1100.000 L 800.000 1100.000 800.000 650.000 L 800.000 200.000 700.000 200.000 L 600.000 200.000 600.000 650.000 M900.000 650.000 L 900.000 1100.000 950.000 1100.000 L 1000.000 1100.000 1000.000 650.000 L 1000.000 200.000 950.000 200.000 L 900.000 200.000 900.000 650.000 M1100.000 650.000 L 1100.000 1100.000 1200.000 1100.000 L 1300.000 1100.000 1300.000 650.000 L 1300.000 200.000 1200.000 200.000 L 1100.000 200.000 1100.000 650.000 M1400.000 650.000 L 1400.000 1100.000 1502.000 1100.000 L 1604.000 1100.000 1604.000 650.000 L 1604.000 200.000 1502.000 200.000 L 1400.000 200.000 1400.000 650.000 M1700.000 650.000 L 1700.000 1100.000 1750.000 1100.000 L 1800.000 1100.000 1800.000 650.000 L 1800.000 200.000 1750.000 200.000 L 1700.000 200.000 1700.000 650.000 M1900.000 650.000 L 1900.000 1100.000 2050.000 1100.000 L 2200.000 1100.000 2200.000 650.000 L 2200.000 200.000 2050.000 200.000 L 1900.000 200.000 1900.000 650.000 M200.000 1250.000 L 200.000 1300.000 500.000 1300.000 L 800.000 1300.000 800.000 1250.000 L 800.000 1200.000 500.000 1200.000 L 200.000 1200.000 200.000 1250.000 M900.000 1250.000 L 900.000 1300.000 950.000 1300.000 L 1000.000 1300.000 1000.000 1250.000 L 1000.000 1200.000 950.000 1200.000 L 900.000 1200.000 900.000 1250.000 M1100.000 1300.000 L 1100.000 1400.000 1200.000 1400.000 L 1300.000 1400.000 1300.000 1550.000 L 1300.000 1700.000 1250.000 1700.000 L 1200.000 1700.000 1200.000 1650.000 L 1200.000 1600.000 1150.000 1600.000 L 1100.000 1600.000 1100.000 1650.000 L 1100.000 1700.000 1150.000 1700.000 L 1200.000 1700.000 1200.000 1750.000 L 1200.000 1800.000 1150.000 1800.000 L 1100.000 1800.000 1100.000 2000.000 L 1100.000 2200.000 1350.000 2200.000 L 1600.000 2200.000 1600.000 2150.000 L 1600.000 2100.000 1500.000 2100.000 L 1400.000 2100.000 1400.000 2050.000 L 1400.000 2000.000 1500.000 2000.000 L 1600.000 2000.000 1600.000 1950.000 L 1600.000 1900.000 1650.000 1900.000 L 1700.000 1900.000 1700.000 2050.000 L 1700.000 2200.000 1800.000 2200.000 L 1900.000 2200.000 1900.000 2150.000 L 1900.000 2100.000 1950.000 2100.000 L 2000.000 2100.000 2000.000 2050.000 L 2000.000 2000.000 2050.000 2000.000 L 2100.000 2000.000 2100.000 2100.000 L 2100.000 2200.000 2150.000 2200.000 L 2200.000 2200.000 2200.000 2050.000 L 2200.000 1900.000 2150.000 1900.000 L 2100.000 1900.000 2100.000 1850.000 L 2100.000 1800.000 2050.000 1800.000 L 2000.000 1800.000 2000.000 1750.000 L 2000.000 1700.000 2100.000 1700.000 L 2200.000 1700.000 2200.000 1450.000 L 2200.000 1200.000 2150.000 1200.000 L 2100.000 1200.000 2100.000 1250.000 L 2100.000 1300.000 2050.000 1300.000 L 2000.000 1300.000 2000.000 1250.000 L 2000.000 1200.000 1950.000 1200.000 L 1900.000 1200.000 1900.000 1300.000 L 1900.000 1400.000 1850.000 1400.000 L 1800.000 1400.000 1800.000 1350.000 L 1800.000 1300.000 1750.000 1300.000 L 1700.000 1300.000 1700.000 1250.000 L 1700.000 1200.000 1500.000 1200.000 L 1300.000 1200.000 1300.000 1250.000 L 1300.000 1300.000 1250.000 1300.000 L 1200.000 1300.000 1200.000 1250.000 L 1200.000 1200.000 1150.000 1200.000 L 1100.000 1200.000 1100.000 1300.000 M1700.000 1400.000 L 1700.000 1500.000 1800.000 1500.000 L 1900.000 1500.000 1900.000 1450.000 L 1900.000 1400.000 1950.000 1400.000 L 2000.000 1400.000 2000.000 1450.000 L 2000.000 1500.000 2050.000 1500.000 L 2100.000 1500.000 2100.000 1550.000 L 2100.000 1600.000 2050.000 1600.000 L 2000.000 1600.000 2000.000 1650.000 L 2000.000 1700.000 1950.000 1700.000 L 1900.000 1700.000 1900.000 1750.000 L 1900.000 1800.000 1800.000 1800.000 L 1700.000 1800.000 1700.000 1750.000 L 1700.000 1700.000 1650.000 1700.000 L 1600.000 1700.000 1600.000 1800.000 L 1600.000 1900.000 1500.000 1900.000 L 1400.000 1900.000 1400.000 1950.000 L 1400.000 2000.000 1300.000 2000.000 L 1200.000 2000.000 1200.000 1900.000 L 1200.000 1800.000 1350.000 1800.000 L 1500.000 1800.000 1500.000 1700.000 L 1500.000 1600.000 1550.000 1600.000 L 1600.000 1600.000 1600.000 1550.000 L 1600.000 1500.000 1549.369 1500.000 L 1498.738 1500.000 1501.369 1427.359 C 1502.816 1387.406,1504.000 1343.346,1504.000 1329.447 L 1504.000 1304.177 1579.000 1302.994 C 1620.250 1302.344,1664.350 1301.405,1677.000 1300.906 L 1700.000 1300.000 1700.000 1400.000 M200.000 1800.000 L 200.000 2200.000 600.000 2200.000 L 1000.000 2200.000 1000.000 1800.000 L 1000.000 1400.000 600.000 1400.000 L 200.000 1400.000 200.000 1800.000 M900.000 1800.000 L 900.000 2100.000 600.000 2100.000 L 300.000 2100.000 300.000 1800.000 L 300.000 1500.000 600.000 1500.000 L 900.000 1500.000 900.000 1800.000 M1900.000 1550.000 L 1900.000 1600.000 1950.000 1600.000 L 2000.000 1600.000 2000.000 1550.000 L 2000.000 1500.000 1950.000 1500.000 L 1900.000 1500.000 1900.000 1550.000 M1700.000 1650.000 L 1700.000 1700.000 1750.000 1700.000 L 1800.000 1700.000 1800.000 1650.000 L 1800.000 1600.000 1750.000 1600.000 L 1700.000 1600.000 1700.000 1650.000 M500.000 1800.000 L 500.000 1900.000 600.000 1900.000 L 700.000 1900.000 700.000 1800.000 L 700.000 1700.000 600.000 1700.000 L 500.000 1700.000 500.000 1800.000 M2000.000 1950.000 L 2000.000 2000.000 1950.000 2000.000 L 1900.000 2000.000 1900.000 1950.000 L 1900.000 1900.000 1950.000 1900.000 L 2000.000 1900.000 2000.000 1950.000 " fill="#1D1E23" stroke="none" fill-rule="evenodd"/></svg>