<svg viewBox="0 0 2400 2400" fill="none" xmlns="http://www.w3.org/2000/svg"><path d="M200.000 950.000 L 200.000 1700.000 326.000 1700.000 L 452.000 1700.000 452.000 950.000 L 452.000 200.000 326.000 200.000 L 200.000 200.000 200.000 950.000 M576.000 794.000 L 576.000 1388.000 670.000 1388.000 L 764.000 1388.000 764.000 794.000 L 764.000 200.000 670.000 200.000 L 576.000 200.000 576.000 794.000 M888.000 794.000 L 888.000 1388.000 950.000 1388.000 L 1012.000 1388.000 1012.000 794.000 L 1012.000 200.000 950.000 200.000 L 888.000 200.000 888.000 794.000 M1136.000 794.000 L 1136.000 1388.000 1200.000 1388.000 L 1264.000 1388.000 1264.000 794.000 L 1264.000 200.000 1200.000 200.000 L 1136.000 200.000 1136.000 794.000 M1389.066 781.000 C 1390.160 1119.743,1392.484 1366.816,1394.639 1373.550 L 1398.335 1385.100 1487.167 1298.096 L 1576.000 1211.091 1576.000 705.546 L 1576.000 200.000 1481.595 200.000 L 1387.190 200.000 1389.066 781.000 M1700.000 705.048 L 1700.000 1210.097 1762.000 1272.000 L 1824.000 1333.903 1824.000 766.952 L 1824.000 200.000 1762.000 200.000 L 1700.000 200.000 1700.000 705.048 M1948.000 950.000 L 1948.000 1700.000 2074.000 1700.000 L 2200.000 1700.000 2200.000 950.000 L 2200.000 200.000 2074.000 200.000 L 1948.000 200.000 1948.000 950.000 M1323.007 1638.986 L 1012.021 1949.973 886.974 1824.974 L 761.928 1699.975 699.996 1762.004 L 638.064 1824.032 826.019 2012.019 L 1013.974 2200.006 1311.242 1903.003 C 1474.739 1739.651,1643.025 1570.224,1685.209 1526.498 L 1761.908 1446.996 1700.814 1387.498 C 1667.212 1354.774,1638.431 1328.000,1636.857 1328.000 C 1635.282 1328.000,1494.050 1467.944,1323.007 1638.986 " fill="#1D1E23" stroke="none" fill-rule="evenodd"/></svg>