<svg viewBox="0 0 2400 2400" fill="none" xmlns="http://www.w3.org/2000/svg"><path d="M730.000 203.389 C 691.531 205.709,683.307 207.532,664.578 217.887 C 640.836 231.013,624.641 248.552,611.028 275.877 L 602.000 294.000 602.000 1200.000 L 602.000 2106.000 611.395 2125.080 C 623.404 2149.466,650.534 2176.596,674.920 2188.605 L 694.000 2198.000 1250.000 2198.000 L 1806.000 2198.000 1825.080 2188.605 C 1849.466 2176.596,1876.596 2149.466,1888.605 2125.080 L 1898.000 2106.000 1898.000 1200.000 L 1898.000 294.000 1888.308 274.308 C 1875.956 249.211,1853.813 227.080,1827.930 213.964 L 1807.586 203.656 1290.793 202.195 C 1006.557 201.392,754.200 201.929,730.000 203.389 M1800.000 500.000 L 1800.000 700.000 1250.000 700.000 L 700.000 700.000 700.000 500.000 L 700.000 300.000 1250.000 300.000 L 1800.000 300.000 1800.000 500.000 M1000.000 1000.000 L 1000.000 1100.000 850.000 1100.000 L 700.000 1100.000 700.000 1000.000 L 700.000 900.000 850.000 900.000 L 1000.000 900.000 1000.000 1000.000 M1400.000 1000.000 L 1400.000 1100.000 1250.000 1100.000 L 1100.000 1100.000 1100.000 1000.000 L 1100.000 900.000 1250.000 900.000 L 1400.000 900.000 1400.000 1000.000 M1800.000 1000.000 L 1800.000 1100.000 1650.000 1100.000 L 1500.000 1100.000 1500.000 1000.000 L 1500.000 900.000 1650.000 900.000 L 1800.000 900.000 1800.000 1000.000 M1000.000 1400.000 L 1000.000 1500.000 850.000 1500.000 L 700.000 1500.000 700.000 1400.000 L 700.000 1300.000 850.000 1300.000 L 1000.000 1300.000 1000.000 1400.000 M1400.000 1400.000 L 1400.000 1500.000 1250.000 1500.000 L 1100.000 1500.000 1100.000 1400.000 L 1100.000 1300.000 1250.000 1300.000 L 1400.000 1300.000 1400.000 1400.000 M1800.000 1400.000 L 1800.000 1500.000 1650.000 1500.000 L 1500.000 1500.000 1500.000 1400.000 L 1500.000 1300.000 1650.000 1300.000 L 1800.000 1300.000 1800.000 1400.000 M1000.000 1800.000 L 1000.000 1900.000 862.000 1900.000 L 724.000 1900.000 724.000 1800.000 L 724.000 1700.000 862.000 1700.000 L 1000.000 1700.000 1000.000 1800.000 M1400.000 1800.000 L 1400.000 1900.000 1250.000 1900.000 L 1100.000 1900.000 1100.000 1800.000 L 1100.000 1700.000 1250.000 1700.000 L 1400.000 1700.000 1400.000 1800.000 M1800.000 1900.000 L 1800.000 2100.000 1650.000 2100.000 L 1500.000 2100.000 1500.000 1900.000 L 1500.000 1700.000 1650.000 1700.000 L 1800.000 1700.000 1800.000 1900.000 " fill="#1D1E23" stroke="none" fill-rule="evenodd"/></svg>