<svg viewBox="0 0 2400 2400" fill="none" xmlns="http://www.w3.org/2000/svg"><path d="M682.000 603.824 L 486.000 606.019 465.324 616.913 C 433.375 633.746,401.962 661.478,296.941 765.562 L 199.881 861.756 244.941 907.272 C 342.348 1005.667,449.881 1104.000,460.073 1104.000 C 464.022 1104.000,473.955 1066.573,483.912 1014.173 L 492.241 970.345 438.013 916.013 L 383.784 861.680 446.910 799.325 L 510.035 736.970 650.018 733.927 C 804.141 730.576,1795.434 734.398,1812.970 738.411 C 1819.717 739.955,1847.433 763.721,1884.970 800.151 L 1946.000 859.380 1892.267 913.479 L 1838.533 967.577 1845.584 1008.788 C 1853.809 1056.864,1863.330 1096.663,1867.683 1101.173 C 1873.837 1107.548,1923.636 1064.040,2025.660 963.153 L 2130.000 859.976 2033.712 764.988 C 1927.524 660.233,1891.000 628.468,1861.609 615.310 C 1842.542 606.773,1836.247 606.448,1634.000 603.570 C 1404.963 600.310,985.802 600.422,682.000 603.824 M725.990 867.898 C 702.874 871.349,661.986 890.907,649.266 904.599 C 644.463 909.770,638.667 918.925,636.387 924.944 C 627.943 947.231,518.000 1520.057,483.713 1720.405 C 471.532 1791.583,471.425 1793.340,478.211 1811.109 C 491.468 1845.822,522.920 1872.687,568.685 1888.388 C 591.878 1896.345,604.262 1897.241,716.402 1899.070 L 838.804 1901.067 1302.402 1600.163 C 1557.381 1434.665,1766.356 1298.919,1766.792 1298.504 C 1767.926 1297.423,1726.250 1070.501,1710.310 990.966 C 1702.921 954.097,1693.933 919.441,1690.336 913.952 C 1682.598 902.141,1660.018 887.300,1630.965 874.928 L 1610.000 866.000 1178.000 865.456 C 940.400 865.156,736.996 866.256,725.990 867.898 M1581.496 915.809 C 1587.006 917.903,1593.620 923.552,1596.194 928.362 C 1603.538 942.085,1652.000 1246.672,1652.000 1279.109 L 1652.000 1295.133 1579.000 1297.478 C 1538.850 1298.768,1389.000 1300.856,1246.000 1302.117 L 986.000 1304.410 962.000 1315.600 C 930.602 1330.240,898.957 1355.690,890.814 1372.849 C 883.224 1388.844,877.634 1439.248,859.524 1655.000 L 846.346 1812.000 753.719 1812.000 C 657.447 1812.000,623.625 1808.521,611.278 1797.347 C 597.577 1784.947,596.416 1794.463,670.054 1315.540 C 716.111 1015.999,729.917 933.842,735.799 924.325 C 737.541 921.507,745.049 917.765,752.483 916.010 C 772.219 911.351,1569.262 911.157,1581.496 915.809 M1033.210 964.047 C 1020.980 968.972,1016.924 988.419,1015.338 1049.734 L 1014.000 1101.468 1028.000 1109.734 C 1041.326 1117.602,1047.778 1117.994,1162.000 1117.878 C 1327.268 1117.709,1324.122 1119.464,1316.570 1031.640 C 1314.189 1003.942,1311.107 978.327,1309.722 974.718 C 1308.337 971.109,1300.633 966.331,1292.602 964.100 C 1274.623 959.107,1045.594 959.060,1033.210 964.047 M1525.312 1366.526 C 1543.632 1369.037,1543.689 1369.093,1534.871 1375.919 C 1529.992 1379.696,1508.356 1393.860,1486.791 1407.393 L 1447.582 1432.000 1221.791 1432.000 L 996.000 1432.000 996.000 1416.260 C 996.000 1395.330,1001.615 1381.629,1012.809 1375.243 C 1018.682 1371.893,1043.662 1369.204,1082.000 1367.795 C 1170.398 1364.547,1503.907 1363.592,1525.312 1366.526 M1138.384 1621.041 C 1140.052 1622.714,1137.947 1626.733,1133.708 1629.972 C 1119.094 1641.139,1013.961 1706.858,996.385 1715.814 L 978.769 1724.790 981.356 1697.395 C 982.779 1682.328,983.956 1657.741,983.972 1642.758 L 984.000 1615.515 1059.676 1616.758 C 1101.298 1617.441,1136.717 1619.369,1138.384 1621.041 " fill="#1D1E23" stroke="none" fill-rule="evenodd"/></svg>