<svg viewBox="0 0 2400 2400" fill="none" xmlns="http://www.w3.org/2000/svg"><path d="M568.000 603.774 C 488.390 605.935,485.333 606.328,463.112 617.239 C 434.526 631.277,389.085 672.003,282.752 778.887 L 199.504 862.567 303.211 964.538 C 396.122 1055.893,450.289 1104.000,460.242 1104.000 C 464.709 1104.000,470.594 1081.755,482.445 1020.071 L 492.038 970.141 437.790 915.789 L 383.541 861.437 447.422 799.180 L 511.303 736.923 612.652 734.108 C 668.393 732.560,960.680 731.902,1262.178 732.647 C 1796.030 733.965,1810.665 734.202,1822.152 741.730 C 1828.639 745.982,1859.159 774.246,1889.973 804.539 L 1946.000 859.618 1892.187 913.678 L 1838.373 967.737 1849.263 1028.274 C 1855.252 1061.569,1861.987 1092.239,1864.229 1096.429 C 1867.925 1103.335,1869.320 1103.520,1879.153 1098.409 C 1895.778 1089.769,1969.827 1021.065,2054.000 936.184 L 2130.000 859.545 2027.079 757.822 C 1926.567 658.481,1888.861 625.807,1860.151 613.169 C 1849.841 608.631,1823.744 606.072,1764.000 603.743 C 1673.456 600.214,698.256 600.239,568.000 603.774 M778.000 863.840 C 729.313 865.999,713.955 868.174,696.545 875.372 C 661.425 889.892,640.920 906.079,636.115 923.078 C 624.821 963.038,542.768 1391.151,489.618 1687.431 C 472.571 1782.458,471.219 1794.300,475.919 1807.431 C 489.618 1845.708,520.740 1873.022,568.852 1888.991 C 591.615 1896.547,605.629 1897.493,716.632 1898.971 L 839.263 1900.604 1302.632 1599.869 C 1557.484 1434.464,1766.418 1298.760,1766.928 1298.305 C 1768.001 1297.348,1716.260 1017.487,1704.044 958.173 C 1698.360 930.578,1693.101 915.412,1686.920 908.792 C 1674.309 895.285,1647.852 880.470,1618.857 870.677 C 1594.354 862.402,1588.620 862.275,1216.000 861.730 C 1008.100 861.427,811.000 862.376,778.000 863.840 M1584.884 915.625 C 1590.996 918.743,1597.492 926.621,1599.699 933.589 C 1603.248 944.792,1625.729 1084.723,1648.173 1235.309 C 1652.871 1266.829,1655.506 1293.829,1654.027 1295.309 C 1652.549 1296.789,1502.045 1299.171,1319.572 1300.602 L 987.804 1303.205 956.902 1317.830 C 922.889 1333.929,894.273 1358.878,888.141 1377.782 C 885.962 1384.502,882.385 1406.200,880.194 1426.000 C 875.289 1470.312,848.000 1789.498,848.000 1802.553 L 848.000 1812.000 745.000 1811.774 C 634.024 1811.531,620.325 1809.523,607.005 1791.551 C 597.824 1779.164,592.028 1822.720,674.552 1284.000 C 720.120 986.536,730.011 928.722,736.483 922.000 C 748.081 909.954,779.161 909.120,1198.000 909.622 C 1510.239 909.995,1575.846 911.013,1584.884 915.625 M1059.135 959.366 C 1019.216 963.280,1018.697 964.205,1015.532 1037.053 C 1014.076 1070.574,1013.700 1099.363,1014.696 1101.028 C 1015.692 1102.694,1022.243 1107.194,1029.254 1111.028 C 1040.572 1117.219,1055.443 1118.000,1162.000 1118.000 C 1327.051 1118.000,1323.517 1119.929,1316.682 1033.571 C 1314.437 1005.207,1311.466 979.094,1310.080 975.542 C 1304.501 961.243,1288.536 958.965,1186.000 957.834 C 1131.000 957.228,1073.911 957.917,1059.135 959.366 M1543.857 1369.486 C 1540.636 1372.503,1517.599 1387.803,1492.664 1403.486 L 1447.328 1432.000 1221.664 1432.000 L 996.000 1432.000 996.000 1412.223 C 996.000 1384.090,1007.741 1371.194,1036.519 1367.720 C 1048.334 1366.293,1168.636 1364.873,1303.857 1364.563 C 1512.314 1364.086,1548.823 1364.834,1543.857 1369.486 M1142.854 1619.207 C 1145.972 1621.188,1130.953 1632.894,1100.854 1651.939 C 1013.424 1707.263,983.667 1725.001,981.658 1722.991 C 980.556 1721.889,980.901 1697.365,982.425 1668.494 L 985.196 1616.000 1061.598 1616.061 C 1103.619 1616.095,1140.184 1617.511,1142.854 1619.207 " fill="#1D1E23" stroke="none" fill-rule="evenodd"/></svg>