<svg viewBox="0 0 2400 2400" fill="none" xmlns="http://www.w3.org/2000/svg"><path d="M752.000 603.572 L 486.000 606.000 465.022 617.624 C 432.298 635.756,397.470 666.458,294.815 767.666 L 199.631 861.510 246.815 909.133 C 333.295 996.416,450.757 1104.000,459.575 1104.000 C 463.857 1104.000,469.537 1083.562,482.222 1022.513 L 492.920 971.025 438.462 916.463 L 384.005 861.901 447.315 798.684 L 510.625 735.466 812.313 733.484 C 978.241 732.394,1271.666 732.964,1464.370 734.751 L 1814.740 738.000 1834.049 753.824 C 1844.669 762.527,1874.202 789.860,1899.679 814.564 L 1946.000 859.479 1892.396 913.398 L 1838.792 967.317 1843.773 998.659 C 1853.873 1062.214,1864.216 1100.000,1871.512 1100.000 C 1881.447 1100.000,1937.989 1049.221,2040.000 948.685 L 2130.000 859.987 2044.000 775.340 C 1946.990 679.856,1898.384 636.078,1872.608 620.973 C 1856.688 611.643,1849.274 610.354,1796.485 607.731 C 1709.279 603.398,1056.004 600.796,752.000 603.572 M849.902 867.827 L 709.803 870.000 682.922 883.241 C 645.804 901.523,638.269 912.840,626.318 968.258 C 603.145 1075.704,510.430 1563.429,485.813 1707.379 C 470.320 1797.970,470.689 1805.947,491.715 1834.971 C 506.712 1855.674,524.356 1869.044,554.205 1882.323 C 584.455 1895.780,626.955 1899.592,749.360 1899.826 L 840.719 1900.000 1301.044 1601.000 C 1554.223 1436.550,1762.712 1301.086,1764.353 1299.969 C 1767.613 1297.750,1762.880 1269.307,1729.748 1092.000 C 1717.620 1027.100,1703.948 959.976,1699.366 942.835 C 1690.040 907.950,1684.597 902.083,1642.000 881.007 L 1618.000 869.133 1304.000 867.393 C 1131.300 866.437,926.956 866.632,849.902 867.827 M1585.306 917.879 C 1589.325 919.646,1594.295 925.516,1596.351 930.923 C 1604.599 952.617,1651.955 1251.794,1651.987 1282.409 L 1652.000 1294.819 1589.000 1297.373 C 1554.350 1298.778,1404.500 1301.116,1256.000 1302.570 C 951.723 1305.549,974.734 1303.075,925.662 1338.092 C 882.939 1368.579,883.359 1366.581,859.369 1653.377 L 846.038 1812.754 742.019 1811.363 C 647.723 1810.102,636.504 1809.226,622.000 1801.986 L 606.000 1794.000 606.696 1763.596 C 607.524 1727.418,612.396 1692.876,664.469 1354.000 C 717.250 1010.523,730.812 931.477,738.240 924.031 C 742.860 919.400,758.854 917.440,807.129 915.586 C 898.384 912.082,1576.666 914.081,1585.306 917.879 M1050.947 962.942 C 1022.602 965.174,1019.481 972.153,1015.966 1041.167 C 1014.375 1072.425,1013.845 1099.363,1014.790 1101.028 C 1015.734 1102.694,1022.243 1107.194,1029.254 1111.028 C 1040.603 1117.236,1054.931 1117.962,1160.000 1117.653 C 1327.326 1117.161,1324.698 1118.632,1316.453 1030.095 C 1313.261 995.809,1309.644 976.022,1305.873 972.215 C 1302.722 969.033,1287.962 965.076,1273.072 963.420 C 1246.127 960.425,1087.258 960.083,1050.947 962.942 M1517.460 1367.434 C 1539.573 1369.853,1540.492 1370.371,1533.460 1376.465 C 1529.357 1380.021,1508.515 1393.971,1487.144 1407.465 L 1448.287 1432.000 1222.144 1432.000 L 996.000 1432.000 996.000 1418.597 C 996.000 1399.299,1003.507 1380.564,1013.421 1375.121 C 1027.894 1367.174,1455.465 1360.654,1517.460 1367.434 M1103.459 1618.604 C 1138.903 1621.120,1139.918 1621.461,1133.414 1628.647 C 1126.805 1635.950,1019.112 1704.048,992.386 1717.823 L 978.773 1724.840 981.386 1699.833 C 982.824 1686.080,984.000 1661.591,984.000 1645.413 L 984.000 1616.000 1025.386 1616.000 C 1048.148 1616.000,1083.280 1617.172,1103.459 1618.604 " fill="#1D1E23" stroke="none" fill-rule="evenodd"/></svg>