<svg viewBox="0 0 2400 2400" fill="none" xmlns="http://www.w3.org/2000/svg"><path d="M497.787 403.981 L 245.574 406.000 215.042 421.092 C 173.890 441.435,141.635 473.483,121.682 513.855 C 108.059 541.419,106.150 549.127,103.484 587.325 C 99.600 642.986,99.600 1757.014,103.484 1812.675 C 106.149 1850.862,108.061 1858.585,121.663 1886.107 C 141.808 1926.867,173.133 1958.192,213.893 1978.337 C 241.415 1991.939,249.138 1993.851,287.325 1996.516 C 347.143 2000.690,2064.811 2000.412,2115.433 1996.220 C 2151.021 1993.273,2160.895 1990.777,2185.433 1978.525 C 2235.734 1953.410,2269.595 1916.369,2289.217 1864.995 L 2298.000 1842.000 2298.000 1202.000 L 2298.000 562.000 2288.423 536.006 C 2268.772 482.672,2235.413 446.262,2182.797 420.721 L 2150.000 404.801 1450.000 403.382 C 1065.000 402.601,636.504 402.871,497.787 403.981 M2140.000 509.593 C 2163.026 522.081,2180.097 536.585,2186.623 549.204 C 2197.645 570.519,2199.695 672.723,2199.717 1202.000 C 2199.738 1726.524,2197.668 1829.554,2186.686 1850.532 C 2174.991 1872.872,2155.215 1887.637,2129.827 1892.983 C 2094.998 1900.317,305.002 1900.317,270.173 1892.983 C 244.785 1887.637,225.009 1872.872,213.314 1850.532 C 202.330 1829.549,200.262 1726.502,200.262 1200.000 C 200.262 691.737,202.491 570.118,212.149 551.371 C 219.316 537.460,236.404 520.125,250.000 512.973 C 270.032 502.434,390.896 501.101,1284.000 501.564 C 2102.923 501.988,2126.384 502.208,2140.000 509.593 M501.797 1003.395 C 464.194 1006.138,453.625 1010.315,430.634 1031.518 C 424.382 1037.283,415.382 1049.200,410.634 1058.000 C 402.400 1073.259,401.944 1079.780,400.790 1198.793 C 399.713 1309.933,400.325 1325.032,406.383 1336.793 C 418.735 1360.774,431.699 1374.562,452.983 1386.355 L 474.000 1398.000 600.000 1398.000 C 715.096 1398.000,727.304 1397.352,741.068 1390.512 C 761.975 1380.122,791.042 1346.734,794.874 1328.708 C 798.905 1309.741,798.963 1090.516,794.941 1071.651 C 791.128 1053.768,768.630 1027.024,746.664 1014.263 C 730.598 1004.929,726.556 1004.513,634.000 1002.667 C 581.200 1001.615,521.708 1001.942,501.797 1003.395 " fill="#1D1E23" stroke="none" fill-rule="evenodd"/></svg>