<svg viewBox="0 0 2400 2400" fill="none" xmlns="http://www.w3.org/2000/svg"><path d="M468.000 407.893 L 234.000 410.000 208.262 425.738 C 177.527 444.531,141.993 479.072,126.902 504.822 C 120.888 515.083,112.825 534.847,108.984 548.740 C 102.476 572.278,102.000 616.671,102.000 1200.000 C 102.000 1786.882,102.443 1827.604,109.090 1851.673 C 120.972 1894.701,148.887 1932.812,190.024 1962.166 C 225.649 1987.588,241.390 1992.047,310.000 1996.150 C 343.000 1998.123,765.468 1999.797,1248.818 1999.869 L 2127.636 2000.000 2153.296 1990.686 C 2214.381 1968.513,2253.993 1934.009,2281.881 1878.681 L 2300.370 1842.000 2299.185 1200.000 L 2298.000 558.000 2288.940 536.000 C 2268.568 486.535,2230.579 446.958,2175.879 418.214 L 2148.830 404.000 1425.415 404.893 C 1027.537 405.384,596.700 406.734,468.000 407.893 M2146.000 514.864 C 2183.723 535.762,2187.185 542.423,2192.937 605.167 C 2198.868 669.857,2199.058 1720.392,2193.152 1792.766 C 2188.298 1852.254,2183.162 1863.991,2154.126 1881.949 L 2134.641 1894.000 1888.320 1896.540 C 1571.583 1899.806,828.417 1899.806,511.680 1896.540 L 265.359 1894.000 245.874 1881.949 C 217.016 1864.101,211.543 1851.884,207.699 1796.737 C 201.642 1709.855,199.336 1268.001,203.109 917.440 L 206.861 568.879 215.915 550.176 C 221.572 538.489,231.049 527.444,241.173 520.736 C 256.521 510.567,260.671 509.880,319.689 507.720 C 353.960 506.466,775.300 505.566,1256.000 505.720 L 2130.000 506.000 2146.000 514.864 M487.330 1007.629 C 453.809 1010.609,431.524 1025.105,413.000 1055.979 L 400.000 1077.646 400.022 1195.823 C 400.035 1261.504,401.804 1320.335,404.006 1328.261 C 409.252 1347.145,432.217 1373.438,455.336 1387.028 L 474.000 1398.000 598.000 1398.000 C 719.986 1398.000,722.309 1397.848,741.041 1388.623 C 751.513 1383.466,766.139 1371.766,773.543 1362.623 C 800.542 1329.281,800.000 1332.613,800.000 1200.039 C 800.000 1061.439,800.544 1063.923,762.610 1029.254 L 740.758 1009.282 679.743 1006.641 C 610.926 1003.662,527.116 1004.093,487.330 1007.629 " fill="#1D1E23" stroke="none" fill-rule="evenodd"/></svg>