<svg viewBox="0 0 2400 2400" fill="none" xmlns="http://www.w3.org/2000/svg"><path d="M494.536 606.346 C 447.152 617.815,433.023 628.921,312.822 749.178 L 199.860 862.192 306.930 968.515 C 402.372 1063.291,449.017 1104.000,462.173 1104.000 C 464.537 1104.000,472.130 1074.011,479.138 1037.000 L 491.824 970.000 437.914 915.950 L 384.003 861.900 445.002 801.379 C 478.551 768.093,509.932 738.866,514.737 736.429 C 521.018 733.245,703.545 732.000,1164.133 732.000 C 1725.841 732.000,1806.352 732.741,1817.458 738.011 C 1824.425 741.317,1856.173 770.116,1888.009 802.009 L 1945.893 859.996 1892.178 913.822 L 1838.463 967.647 1849.957 1031.762 C 1856.279 1067.025,1862.773 1098.015,1864.389 1100.630 C 1871.380 1111.941,1913.621 1076.430,2020.675 969.247 L 2130.000 859.792 2016.000 746.742 C 1892.046 623.822,1879.167 614.167,1826.071 604.352 C 1809.686 601.323,1607.298 600.101,1160.265 600.333 C 619.998 600.614,514.274 601.568,494.536 606.346 M725.051 866.056 C 693.710 872.865,654.167 893.693,641.803 909.903 C 633.582 920.680,621.917 977.929,552.176 1349.758 C 508.079 1584.864,472.000 1782.895,472.000 1789.827 C 472.000 1808.666,490.575 1842.318,509.379 1857.545 C 532.125 1875.964,547.306 1883.127,582.873 1892.223 C 609.476 1899.027,627.457 1900.000,726.611 1900.000 L 839.942 1900.000 1302.971 1599.452 C 1557.637 1434.151,1766.454 1298.548,1767.008 1298.111 C 1768.176 1297.191,1701.069 937.984,1697.490 926.000 C 1690.629 903.025,1655.261 879.576,1610.015 868.004 C 1579.662 860.241,1566.253 860.010,1164.360 860.318 C 831.604 860.573,745.086 861.703,725.051 866.056 M1582.120 913.792 C 1589.744 916.978,1597.673 923.728,1599.740 928.792 C 1603.401 937.763,1656.228 1279.178,1656.076 1292.889 C 1656.005 1299.343,1635.075 1299.849,1325.000 1300.892 L 994.000 1302.007 970.000 1311.118 C 934.482 1324.603,906.090 1345.009,893.896 1365.816 C 883.621 1383.349,882.817 1389.721,865.732 1588.932 C 856.058 1701.720,848.112 1798.050,848.072 1803.000 L 848.000 1812.000 741.737 1812.000 C 670.870 1812.000,632.564 1810.501,626.737 1807.500 C 610.998 1799.394,600.000 1786.784,600.000 1776.845 C 600.000 1765.207,727.342 934.370,730.312 926.630 C 731.441 923.687,738.133 918.406,745.183 914.895 C 756.654 909.182,800.553 908.485,1163.128 908.256 C 1508.145 908.038,1570.314 908.859,1582.120 913.792 M1044.518 960.003 C 1018.090 966.244,1016.333 971.005,1015.104 1039.712 L 1014.000 1101.410 1028.000 1109.705 C 1041.047 1117.435,1049.237 1118.091,1148.303 1119.332 C 1264.979 1120.793,1296.182 1117.636,1310.941 1102.877 C 1319.859 1093.959,1319.937 1093.001,1316.544 1034.266 C 1312.752 968.612,1312.409 967.826,1284.185 959.985 C 1267.469 955.342,1064.192 955.357,1044.518 960.003 M1551.667 1365.482 C 1550.750 1366.297,1526.729 1381.597,1498.288 1399.482 L 1446.575 1432.000 1221.288 1432.000 L 996.000 1432.000 996.000 1410.765 C 996.000 1387.179,1000.288 1379.272,1018.000 1370.197 C 1028.433 1364.852,1064.177 1364.046,1291.667 1364.025 C 1435.583 1364.011,1552.583 1364.667,1551.667 1365.482 M1150.338 1619.000 C 1144.236 1625.110,981.988 1727.321,980.598 1725.931 C 979.804 1725.137,980.462 1700.078,982.060 1670.244 L 984.965 1616.000 1069.149 1616.000 C 1115.450 1616.000,1151.985 1617.350,1150.338 1619.000 " fill="#1D1E23" stroke="none" fill-rule="evenodd"/></svg>