<svg viewBox="0 0 2400 2400" fill="none" xmlns="http://www.w3.org/2000/svg"><path d="M510.000 607.506 C 458.902 611.488,436.680 628.186,288.807 773.708 L 199.615 861.483 242.807 905.122 C 336.056 999.334,453.685 1105.903,460.071 1101.956 C 464.771 1099.051,469.667 1081.256,482.481 1020.513 L 492.920 971.025 438.462 916.463 L 384.005 861.901 447.002 799.276 L 510.000 736.651 816.000 734.195 C 984.300 732.844,1277.956 733.222,1468.568 735.034 L 1815.137 738.329 1832.568 752.707 C 1842.156 760.615,1871.600 787.849,1898.000 813.226 L 1946.000 859.367 1892.363 913.375 L 1838.727 967.383 1845.782 1010.375 C 1853.249 1055.877,1862.429 1091.595,1868.212 1097.649 C 1870.280 1099.814,1878.316 1096.711,1887.970 1090.021 C 1903.155 1079.498,2065.630 926.045,2109.850 880.462 L 2129.699 860.000 2109.850 839.546 C 2058.344 786.472,1911.543 649.224,1889.314 633.361 C 1872.723 621.522,1857.312 614.174,1843.198 611.373 C 1819.844 606.737,566.513 603.102,510.000 607.506 M722.000 871.909 C 684.071 877.186,652.350 896.487,640.134 921.723 C 623.143 956.822,476.000 1731.717,476.000 1786.098 C 476.000 1807.671,477.781 1813.743,489.000 1830.415 C 515.024 1869.089,554.780 1889.407,617.328 1895.997 C 637.498 1898.123,696.300 1899.836,748.000 1899.805 L 842.000 1899.749 1302.000 1600.746 C 1704.837 1338.900,1762.154 1300.431,1763.236 1291.175 C 1765.429 1272.436,1704.602 950.756,1694.124 925.681 C 1686.842 908.251,1674.380 897.494,1643.100 881.637 L 1616.200 868.000 1179.100 868.563 C 938.695 868.873,733.000 870.379,722.000 871.909 M1589.452 922.024 C 1592.765 925.337,1596.438 931.187,1597.615 935.024 C 1605.149 959.597,1651.957 1260.520,1651.987 1284.570 L 1652.000 1295.140 1583.000 1297.675 C 1545.050 1299.069,1396.100 1301.865,1252.000 1303.888 C 1107.279 1305.919,983.007 1309.327,974.378 1311.501 C 951.202 1317.342,907.138 1349.037,896.920 1367.217 C 882.297 1393.237,875.084 1451.889,852.797 1726.000 L 845.967 1810.000 741.984 1809.801 C 654.409 1809.633,635.633 1808.560,623.000 1803.005 L 608.000 1796.408 608.000 1766.173 C 608.000 1729.941,614.057 1685.394,658.336 1396.000 C 700.239 1122.139,726.221 963.638,733.087 940.000 C 737.934 923.312,739.470 921.823,754.158 919.568 C 762.871 918.230,953.021 916.880,1176.714 916.568 C 1534.125 916.069,1584.159 916.730,1589.452 922.024 M1068.000 962.471 C 1034.398 964.919,1028.089 967.275,1023.442 979.112 C 1018.825 990.867,1011.829 1090.674,1015.027 1099.148 C 1019.598 1111.261,1039.365 1115.647,1100.441 1118.098 C 1172.422 1120.987,1285.307 1115.312,1300.730 1108.029 C 1317.009 1100.341,1321.436 1085.006,1318.364 1046.938 C 1316.902 1028.822,1313.874 1004.692,1311.635 993.315 C 1308.059 975.144,1306.010 972.088,1294.782 968.169 C 1281.900 963.672,1110.587 959.368,1068.000 962.471 M1493.378 1366.608 C 1516.820 1368.042,1536.000 1370.779,1536.000 1372.690 C 1536.000 1374.601,1516.650 1388.696,1493.000 1404.013 L 1450.000 1431.861 1222.443 1431.930 L 994.886 1432.000 997.218 1412.305 C 1000.232 1386.858,1006.947 1376.560,1022.418 1373.658 C 1054.139 1367.707,1421.471 1362.208,1493.378 1366.608 M1133.096 1623.496 C 1135.381 1625.781,1125.498 1634.829,1107.405 1647.017 C 1072.665 1670.417,983.204 1724.564,981.780 1723.052 C 981.235 1722.473,981.781 1697.876,982.994 1668.391 L 985.199 1614.783 1057.290 1617.282 C 1096.941 1618.657,1131.053 1621.453,1133.096 1623.496 " fill="#1D1E23" stroke="none" fill-rule="evenodd"/></svg>