<svg viewBox="0 0 2400 2400" fill="none" xmlns="http://www.w3.org/2000/svg"><path d="M268.000 402.738 C 188.403 416.262,120.730 480.989,104.420 559.197 C 98.181 589.114,98.181 1810.886,104.420 1840.803 C 120.053 1915.765,184.235 1979.947,259.197 1995.580 C 274.316 1998.733,544.452 2000.000,1201.356 2000.000 C 2015.082 2000.000,2125.095 1999.287,2146.160 1993.878 C 2221.672 1974.488,2280.207 1914.522,2295.580 1840.803 C 2301.819 1810.886,2301.819 589.114,2295.580 559.197 C 2281.698 492.630,2234.661 439.052,2166.000 411.597 L 2142.000 402.000 1210.000 401.520 C 697.400 401.256,273.500 401.804,268.000 402.738 M2134.017 506.625 C 2145.517 510.543,2160.261 520.050,2170.105 529.895 C 2202.338 562.127,2200.000 509.722,2200.000 1200.000 C 2200.000 1890.278,2202.338 1837.873,2170.105 1870.105 C 2137.469 1902.742,2226.441 1900.000,1200.000 1900.000 C 173.559 1900.000,262.531 1902.742,229.895 1870.105 C 197.662 1837.873,200.000 1890.278,200.000 1200.000 C 200.000 509.576,197.650 562.140,229.967 529.823 C 261.790 498.000,174.203 500.669,1198.287 500.316 C 2041.187 500.025,2116.132 500.531,2134.017 506.625 M480.000 1003.589 C 446.548 1010.712,416.260 1037.109,405.961 1068.118 C 400.542 1084.434,399.750 1105.916,400.782 1208.688 L 402.000 1330.000 413.089 1348.864 C 426.034 1370.886,443.670 1385.416,467.778 1393.922 C 494.110 1403.212,706.427 1402.776,734.017 1393.375 C 759.335 1384.749,784.749 1359.335,793.375 1334.017 C 802.905 1306.049,803.196 1094.804,793.743 1067.061 C 786.433 1045.607,766.452 1023.620,742.775 1010.973 C 726.609 1002.339,721.786 1001.988,610.000 1001.311 C 546.200 1000.924,487.700 1001.949,480.000 1003.589 " fill="#1D1E23" stroke="none" fill-rule="evenodd"/></svg>