<svg viewBox="0 0 2400 2400" fill="none" xmlns="http://www.w3.org/2000/svg"><path d="M200.000 950.000 L 200.000 1700.000 650.000 1700.000 L 1100.000 1700.000 1100.000 1650.000 L 1100.000 1600.000 700.000 1600.000 L 300.000 1600.000 300.000 950.000 L 300.000 300.000 1200.000 300.000 L 2100.000 300.000 2100.000 950.000 L 2100.000 1600.000 2050.000 1600.000 L 2000.000 1600.000 2000.000 1650.000 L 2000.000 1700.000 2100.000 1700.000 L 2200.000 1700.000 2200.000 950.000 L 2200.000 200.000 1200.000 200.000 L 200.000 200.000 200.000 950.000 M600.000 650.000 L 600.000 700.000 1200.000 700.000 L 1800.000 700.000 1800.000 650.000 L 1800.000 600.000 1200.000 600.000 L 600.000 600.000 600.000 650.000 M500.000 850.000 L 500.000 900.000 1200.000 900.000 L 1900.000 900.000 1900.000 850.000 L 1900.000 800.000 1200.000 800.000 L 500.000 800.000 500.000 850.000 M1516.033 1247.952 C 1497.624 1274.379,1482.182 1296.000,1481.719 1296.000 C 1481.256 1296.000,1457.730 1285.327,1429.439 1272.281 C 1384.681 1251.643,1377.650 1249.435,1375.306 1255.281 C 1373.825 1258.977,1370.743 1284.282,1368.457 1311.516 C 1366.171 1338.750,1363.383 1361.951,1362.261 1363.073 C 1361.139 1364.195,1335.716 1367.417,1305.766 1370.234 C 1275.816 1373.050,1250.550 1376.116,1249.620 1377.047 C 1248.689 1377.978,1258.827 1401.800,1272.148 1429.985 C 1285.470 1458.170,1294.936 1482.534,1293.184 1484.126 C 1291.433 1485.719,1270.200 1500.964,1246.000 1518.005 C 1221.800 1535.045,1201.564 1549.351,1201.031 1549.796 C 1200.498 1550.241,1221.648 1565.642,1248.031 1584.022 C 1274.414 1602.401,1296.000 1617.785,1296.000 1618.208 C 1296.000 1618.631,1285.254 1642.121,1272.119 1670.408 C 1258.984 1698.694,1249.534 1722.962,1251.119 1724.335 C 1252.704 1725.709,1278.148 1728.894,1307.662 1731.412 C 1337.177 1733.931,1361.986 1736.653,1362.795 1737.461 C 1363.603 1738.270,1366.531 1763.398,1369.301 1793.301 C 1372.071 1823.204,1375.346 1848.679,1376.578 1849.912 C 1377.811 1851.145,1401.892 1841.265,1430.091 1827.957 C 1458.289 1814.649,1482.588 1805.165,1484.087 1806.881 C 1485.586 1808.596,1499.947 1828.900,1516.000 1852.000 C 1532.053 1875.100,1546.381 1895.371,1547.841 1897.048 C 1549.301 1898.724,1565.557 1878.474,1583.967 1852.048 C 1602.376 1825.621,1617.823 1804.000,1618.292 1804.000 C 1618.761 1804.000,1642.144 1814.854,1670.253 1828.119 C 1698.363 1841.385,1722.592 1850.835,1724.097 1849.119 C 1725.602 1847.404,1728.894 1821.852,1731.412 1792.338 C 1733.931 1762.823,1736.595 1738.071,1737.333 1737.333 C 1738.071 1736.595,1762.823 1733.931,1792.338 1731.412 C 1821.852 1728.894,1847.404 1725.602,1849.119 1724.097 C 1850.835 1722.592,1841.351 1698.289,1828.043 1670.091 C 1814.735 1641.892,1804.626 1618.040,1805.580 1617.087 C 1806.533 1616.134,1827.387 1601.270,1851.921 1584.055 C 1876.456 1566.841,1896.861 1551.805,1897.265 1550.642 C 1897.669 1549.479,1878.200 1534.732,1854.000 1517.869 C 1829.800 1501.007,1808.596 1485.894,1806.881 1484.286 C 1805.165 1482.677,1814.649 1458.289,1827.957 1430.091 C 1841.265 1401.892,1851.374 1378.040,1850.421 1377.087 C 1849.468 1376.135,1824.184 1373.050,1794.234 1370.234 C 1764.284 1367.417,1738.927 1364.260,1737.885 1363.219 C 1736.844 1362.177,1733.931 1337.177,1731.412 1307.662 C 1728.894 1278.148,1725.746 1252.784,1724.416 1251.297 C 1723.087 1249.811,1698.741 1259.312,1670.314 1272.411 C 1641.886 1285.510,1617.404 1294.826,1615.907 1293.114 C 1614.411 1291.401,1600.053 1271.100,1584.000 1248.000 C 1567.947 1224.900,1553.619 1204.629,1552.159 1202.952 C 1550.699 1201.276,1534.443 1221.526,1516.033 1247.952 M1435.000 1948.959 L 1400.000 1965.223 1400.000 2083.040 C 1400.000 2175.607,1401.072 2200.462,1405.000 2199.017 C 1407.750 2198.005,1441.444 2186.732,1479.876 2173.965 L 1549.752 2150.752 1619.876 2173.943 C 1658.444 2186.698,1692.250 2197.971,1695.000 2198.995 C 1698.929 2200.457,1700.000 2175.611,1700.000 2083.001 L 1700.000 1965.147 1667.000 1950.167 C 1648.850 1941.928,1631.889 1934.331,1629.309 1933.284 C 1626.703 1932.227,1608.177 1954.621,1587.624 1983.673 C 1567.278 2012.433,1549.627 2034.960,1548.401 2033.734 C 1547.174 2032.507,1530.832 2009.704,1512.085 1983.061 C 1493.338 1956.417,1476.200 1934.185,1474.000 1933.656 C 1471.800 1933.127,1454.250 1940.013,1435.000 1948.959 " fill="#1D1E23" stroke="none" fill-rule="evenodd"/></svg>