<svg viewBox="0 0 2400 2400" fill="none" xmlns="http://www.w3.org/2000/svg"><path d="M200.000 950.000 L 200.000 1700.000 650.000 1700.000 L 1100.000 1700.000 1100.000 1650.000 L 1100.000 1600.000 700.000 1600.000 L 300.000 1600.000 300.000 950.000 L 300.000 300.000 1200.000 300.000 L 2100.000 300.000 2100.000 950.000 L 2100.000 1600.000 2050.000 1600.000 L 2000.000 1600.000 2000.000 1650.000 L 2000.000 1700.000 2100.000 1700.000 L 2200.000 1700.000 2200.000 950.000 L 2200.000 200.000 1200.000 200.000 L 200.000 200.000 200.000 950.000 M600.000 650.000 L 600.000 700.000 1200.000 700.000 L 1800.000 700.000 1800.000 650.000 L 1800.000 600.000 1200.000 600.000 L 600.000 600.000 600.000 650.000 M500.000 850.000 L 500.000 900.000 1200.000 900.000 L 1900.000 900.000 1900.000 850.000 L 1900.000 800.000 1200.000 800.000 L 500.000 800.000 500.000 850.000 M1523.665 1237.000 C 1510.326 1255.150,1496.456 1274.950,1492.844 1281.000 C 1489.231 1287.050,1483.664 1292.000,1480.473 1292.000 C 1477.282 1292.000,1453.302 1282.768,1427.185 1271.484 C 1401.067 1260.200,1378.879 1251.788,1377.877 1252.789 C 1374.650 1256.016,1368.815 1293.053,1365.926 1328.638 L 1363.114 1363.276 1350.557 1365.488 C 1343.651 1366.705,1318.650 1369.815,1295.000 1372.399 C 1271.350 1374.983,1252.000 1378.473,1252.000 1380.156 C 1252.000 1381.838,1259.894 1401.841,1269.542 1424.607 C 1296.532 1488.292,1298.497 1479.047,1250.372 1514.786 C 1227.254 1531.954,1208.264 1548.131,1208.170 1550.735 C 1208.077 1553.339,1227.350 1569.334,1251.000 1586.280 C 1274.650 1603.226,1294.568 1617.563,1295.262 1618.141 C 1295.956 1618.718,1290.765 1630.599,1283.726 1644.543 C 1267.929 1675.837,1250.967 1720.300,1253.760 1723.094 C 1256.726 1726.060,1288.470 1730.701,1328.324 1733.996 L 1362.649 1736.834 1367.458 1783.494 C 1372.793 1835.268,1375.326 1848.000,1380.288 1848.000 C 1382.133 1848.000,1402.173 1840.126,1424.821 1830.502 C 1447.470 1820.879,1469.884 1811.810,1474.632 1810.350 C 1482.065 1808.063,1487.525 1813.543,1513.982 1849.847 C 1530.878 1873.031,1546.794 1891.963,1549.351 1891.918 C 1553.555 1891.844,1595.190 1839.114,1608.505 1817.000 C 1611.486 1812.050,1616.699 1808.000,1620.090 1808.000 C 1623.480 1808.000,1644.197 1816.091,1666.127 1825.981 C 1709.437 1845.511,1721.688 1847.772,1725.847 1837.000 C 1727.334 1833.150,1730.478 1809.102,1732.835 1783.561 L 1737.119 1737.121 1786.088 1732.616 C 1813.021 1730.138,1838.023 1726.973,1841.648 1725.582 C 1849.577 1722.539,1848.722 1719.106,1827.527 1668.874 C 1818.911 1648.455,1811.442 1627.877,1810.931 1623.146 C 1810.203 1616.418,1818.722 1608.202,1850.000 1585.466 C 1872.000 1569.474,1890.000 1554.101,1890.000 1551.304 C 1890.000 1548.507,1872.100 1532.520,1850.223 1515.778 C 1828.346 1499.037,1809.837 1483.510,1809.092 1481.276 C 1808.347 1479.041,1816.797 1456.451,1827.869 1431.075 C 1838.941 1405.700,1848.000 1383.232,1848.000 1381.146 C 1848.000 1379.061,1824.303 1374.413,1795.340 1370.817 C 1766.377 1367.222,1741.375 1362.867,1739.779 1361.140 C 1738.183 1359.413,1734.706 1336.400,1732.052 1310.000 C 1729.399 1283.600,1726.395 1260.650,1725.378 1259.000 C 1721.929 1253.407,1711.998 1255.964,1667.128 1274.000 C 1642.499 1283.900,1621.072 1292.000,1619.513 1292.000 C 1617.953 1292.000,1602.133 1272.200,1584.356 1248.000 C 1566.579 1223.800,1551.108 1204.000,1549.976 1204.000 C 1548.844 1204.000,1537.004 1218.850,1523.665 1237.000 M1618.916 1943.399 C 1613.517 1949.230,1595.972 1971.630,1579.928 1993.178 C 1558.842 2021.498,1549.543 2031.149,1546.378 2028.000 C 1543.970 2025.604,1527.588 2004.373,1509.973 1980.821 C 1473.052 1931.456,1474.240 1931.876,1428.847 1952.173 L 1400.000 1965.071 1400.000 2078.661 C 1400.000 2172.033,1400.991 2192.631,1405.569 2194.388 C 1408.632 2195.563,1442.311 2186.276,1480.412 2173.749 L 1549.687 2150.973 1620.375 2174.012 C 1659.254 2186.683,1693.074 2195.808,1695.532 2194.289 C 1698.652 2192.361,1700.000 2157.405,1700.000 2078.394 L 1700.000 1965.260 1664.366 1949.029 L 1628.732 1932.798 1618.916 1943.399 " fill="#1D1E23" stroke="none" fill-rule="evenodd"/></svg>