<svg viewBox="0 0 2400 2400" fill="none" xmlns="http://www.w3.org/2000/svg"><path d="M200.000 950.000 L 200.000 1700.000 650.000 1700.000 L 1100.000 1700.000 1100.000 1650.000 L 1100.000 1600.000 700.000 1600.000 L 300.000 1600.000 300.000 950.000 L 300.000 300.000 1200.000 300.000 L 2100.000 300.000 2100.000 950.000 L 2100.000 1600.000 2050.000 1600.000 L 2000.000 1600.000 2000.000 1650.000 L 2000.000 1700.000 2100.000 1700.000 L 2200.000 1700.000 2200.000 950.000 L 2200.000 200.000 1200.000 200.000 L 200.000 200.000 200.000 950.000 M600.000 650.000 L 600.000 700.000 1200.000 700.000 L 1800.000 700.000 1800.000 650.000 L 1800.000 600.000 1200.000 600.000 L 600.000 600.000 600.000 650.000 M500.000 850.000 L 500.000 900.000 1200.000 900.000 L 1900.000 900.000 1900.000 850.000 L 1900.000 800.000 1200.000 800.000 L 500.000 800.000 500.000 850.000 M1522.902 1238.627 C 1509.206 1257.673,1494.197 1277.817,1489.548 1283.393 L 1481.097 1293.530 1430.015 1272.632 C 1401.920 1261.138,1378.286 1252.381,1377.495 1253.172 C 1374.540 1256.127,1368.480 1295.225,1365.737 1329.031 C 1364.177 1348.264,1362.697 1364.015,1362.450 1364.033 C 1362.202 1364.052,1342.200 1366.716,1318.000 1369.955 C 1293.800 1373.194,1271.300 1375.907,1268.000 1375.983 C 1251.247 1376.372,1251.501 1381.892,1270.363 1427.172 C 1282.656 1456.683,1288.137 1474.911,1286.580 1481.113 C 1285.287 1486.264,1276.298 1496.175,1266.604 1503.137 C 1256.910 1510.098,1239.646 1523.171,1228.240 1532.187 C 1210.261 1546.399,1208.200 1549.432,1212.751 1554.988 C 1216.897 1560.049,1244.644 1581.329,1295.262 1618.270 C 1295.956 1618.776,1290.765 1630.599,1283.726 1644.543 C 1276.687 1658.487,1266.702 1681.123,1261.537 1694.846 C 1252.391 1719.144,1252.345 1719.903,1259.767 1723.875 C 1263.959 1726.119,1289.127 1730.128,1315.695 1732.784 L 1364.000 1737.614 1364.087 1749.807 C 1364.216 1768.007,1374.701 1844.034,1377.462 1846.796 C 1378.781 1848.114,1400.141 1840.810,1424.930 1830.565 C 1449.718 1820.320,1473.048 1811.952,1476.774 1811.969 C 1480.500 1811.986,1488.983 1818.750,1495.626 1827.000 C 1548.024 1892.074,1548.501 1892.564,1554.560 1887.536 C 1557.807 1884.840,1573.086 1865.842,1588.513 1845.317 C 1603.940 1824.793,1617.798 1808.000,1619.308 1808.000 C 1620.819 1808.000,1641.843 1816.083,1666.028 1825.963 C 1690.212 1835.843,1712.957 1843.943,1716.572 1843.963 C 1725.712 1844.014,1727.457 1837.585,1732.794 1784.207 L 1737.479 1737.354 1787.647 1732.626 C 1816.155 1729.940,1839.903 1725.761,1842.650 1722.949 C 1846.442 1719.067,1843.666 1708.514,1829.773 1674.000 C 1820.033 1649.800,1812.499 1626.496,1813.031 1622.214 C 1813.564 1617.931,1823.900 1606.531,1836.000 1596.880 C 1848.100 1587.229,1865.200 1573.413,1874.000 1566.180 L 1890.000 1553.027 1882.000 1543.974 C 1875.438 1536.549,1836.802 1504.063,1812.759 1485.756 C 1808.140 1482.239,1810.692 1473.039,1827.662 1432.035 C 1841.015 1399.771,1846.642 1381.633,1843.835 1379.898 C 1841.468 1378.435,1818.487 1374.257,1792.766 1370.614 C 1761.564 1366.194,1744.490 1361.951,1741.463 1357.864 C 1738.968 1354.495,1734.688 1330.952,1731.951 1305.547 C 1728.798 1276.271,1725.144 1258.653,1721.975 1257.437 C 1719.225 1256.382,1694.757 1263.829,1667.601 1273.988 C 1627.628 1288.940,1617.444 1291.442,1614.113 1287.125 C 1611.851 1284.193,1596.805 1264.290,1580.679 1242.897 C 1564.552 1221.504,1550.558 1204.000,1549.580 1204.000 C 1548.603 1204.000,1536.597 1219.582,1522.902 1238.627 M1618.977 1943.399 C 1613.611 1949.230,1598.383 1968.434,1585.135 1986.075 C 1557.930 2022.303,1549.086 2030.923,1544.548 2025.630 C 1542.836 2023.634,1531.796 2009.400,1520.014 1994.000 C 1488.818 1953.223,1475.527 1940.000,1465.732 1940.000 C 1460.948 1940.000,1444.201 1945.668,1428.517 1952.596 L 1400.000 1965.191 1400.000 2072.859 C 1400.000 2137.378,1401.612 2183.538,1404.022 2188.041 C 1408.686 2196.756,1411.959 2196.044,1499.584 2167.245 L 1549.168 2150.948 1613.584 2171.256 C 1701.915 2199.104,1694.607 2197.723,1697.450 2187.112 C 1698.792 2182.100,1699.915 2130.134,1699.945 2071.630 L 1700.000 1965.260 1664.366 1949.029 L 1628.732 1932.798 1618.977 1943.399 " fill="#1D1E23" stroke="none" fill-rule="evenodd"/></svg>