<svg viewBox="0 0 2400 2400" fill="none" xmlns="http://www.w3.org/2000/svg"><path d="M464.000 307.634 C 407.168 312.827,349.836 356.788,319.481 418.448 C 307.693 442.392,306.397 448.971,303.559 499.257 C 299.361 573.640,299.540 1832.012,303.759 1901.226 C 306.852 1951.976,308.187 1958.623,320.231 1983.226 C 337.936 2019.395,380.684 2062.103,416.955 2079.858 C 442.253 2092.243,447.536 2093.252,502.955 2096.288 C 579.921 2100.504,1820.079 2100.504,1897.045 2096.288 C 1952.464 2093.252,1957.747 2092.243,1983.045 2079.858 C 2019.172 2062.173,2062.071 2019.383,2079.622 1983.525 C 2091.386 1959.492,2092.932 1951.928,2096.385 1901.525 C 2098.632 1868.729,2099.741 1561.095,2099.094 1150.000 L 2098.000 454.000 2083.065 422.721 C 2062.058 378.727,2029.502 345.717,1983.878 322.154 L 1948.729 304.000 1219.365 304.629 C 818.214 304.976,478.300 306.328,464.000 307.634 M1256.715 720.618 C 1291.218 743.532,1292.145 747.017,1296.833 871.468 C 1299.164 933.318,1299.990 1126.257,1298.803 1331.478 C 1296.953 1651.209,1296.136 1685.579,1290.236 1691.478 C 1284.622 1697.092,1272.057 1698.000,1200.000 1698.000 C 1124.969 1698.000,1115.545 1697.259,1109.143 1690.857 C 1102.371 1684.086,1102.004 1660.890,1102.083 1244.857 C 1102.143 927.770,1103.468 798.357,1106.859 778.453 C 1112.087 747.765,1120.831 735.510,1152.000 715.190 C 1168.749 704.270,1172.249 703.543,1202.352 704.727 C 1231.866 705.888,1236.636 707.283,1256.715 720.618 M842.483 1012.234 C 864.244 1022.768,886.280 1047.156,891.712 1066.717 C 894.530 1076.868,895.963 1183.585,895.978 1384.510 C 895.998 1661.041,895.432 1687.492,889.385 1692.510 C 884.246 1696.775,864.203 1698.000,799.528 1698.000 C 727.348 1698.000,715.404 1697.119,709.655 1691.369 C 703.674 1685.388,702.835 1661.464,701.100 1447.369 C 699.050 1194.401,702.779 1073.616,713.260 1053.542 C 720.503 1039.669,736.957 1023.839,756.000 1012.423 C 775.394 1000.797,818.661 1000.702,842.483 1012.234 M1652.677 1318.142 C 1662.205 1324.803,1675.850 1338.950,1683.000 1349.579 L 1696.000 1368.904 1696.000 1527.962 C 1696.000 1671.038,1695.335 1687.572,1689.385 1692.510 C 1684.246 1696.775,1664.203 1698.000,1599.528 1698.000 C 1527.410 1698.000,1515.401 1697.116,1509.667 1691.381 C 1503.923 1685.637,1502.780 1669.778,1501.017 1571.381 C 1498.862 1451.109,1503.398 1372.502,1513.636 1352.704 C 1520.882 1338.692,1544.953 1317.035,1561.689 1309.470 C 1569.621 1305.885,1584.913 1304.283,1604.677 1304.967 C 1631.408 1305.893,1637.581 1307.588,1652.677 1318.142 " fill="#1D1E23" stroke="none" fill-rule="evenodd"/></svg>