<svg viewBox="0 0 2400 2400" fill="none" xmlns="http://www.w3.org/2000/svg"><path d="M523.790 205.978 C 435.802 223.522,362.706 291.091,334.451 381.000 C 332.537 387.091,326.719 388.000,289.670 388.000 C 253.304 388.000,244.820 389.275,231.545 396.736 C 201.715 413.502,191.347 457.144,210.954 483.407 C 228.101 506.373,237.346 509.861,286.741 512.000 L 332.918 514.000 342.031 539.208 C 383.325 653.440,513.534 722.435,631.515 692.600 C 649.915 687.947,675.325 678.965,687.982 672.640 L 710.995 661.141 728.443 683.005 C 756.931 718.707,770.419 723.858,790.405 706.667 C 806.772 692.588,804.610 676.306,782.977 650.736 C 757.809 620.987,758.015 622.120,773.975 601.218 C 789.082 581.432,809.481 541.699,814.132 523.000 L 816.867 512.000 888.434 512.000 C 954.725 512.000,960.000 512.532,960.000 519.212 C 960.000 523.178,967.034 540.968,975.630 558.745 C 1004.546 618.538,1060.830 667.185,1126.000 688.710 C 1148.722 696.215,1162.671 697.958,1200.000 697.958 C 1251.353 697.958,1283.378 689.945,1323.600 667.031 C 1371.812 639.566,1419.145 582.523,1434.816 533.000 L 1441.461 512.000 1511.792 512.000 L 1582.122 512.000 1589.470 533.000 C 1614.416 604.293,1672.043 660.863,1746.000 686.656 C 1774.248 696.507,1783.628 697.804,1826.000 697.716 C 1867.581 697.629,1877.923 696.208,1903.338 687.091 C 1977.200 660.595,2033.580 606.675,2057.969 539.208 L 2067.082 514.000 2113.259 512.000 C 2163.062 509.843,2171.839 506.453,2189.753 482.460 C 2201.180 467.154,2201.180 432.846,2189.753 417.540 C 2171.840 393.549,2163.075 390.157,2113.411 388.000 L 2067.359 386.000 2059.714 364.251 C 2027.865 273.649,1940.037 208.224,1841.342 201.583 C 1732.776 194.278,1627.121 262.387,1591.066 362.920 L 1582.072 388.000 1512.661 388.000 C 1445.556 388.000,1443.178 387.722,1441.059 379.616 C 1439.853 375.005,1431.785 356.589,1423.130 338.692 C 1401.981 294.958,1355.685 248.503,1312.000 227.179 C 1279.689 211.407,1232.682 200.000,1200.000 200.000 C 1167.318 200.000,1120.311 211.407,1088.000 227.179 C 1044.315 248.503,998.019 294.958,976.870 338.692 C 968.215 356.589,960.147 375.005,958.941 379.616 C 956.822 387.722,954.444 388.000,887.339 388.000 L 817.928 388.000 808.934 362.920 C 768.354 249.770,644.911 181.827,523.790 205.978 M626.183 337.627 C 654.598 350.555,673.877 368.877,686.840 395.274 C 696.255 414.447,697.991 423.002,697.940 450.000 C 697.871 487.210,689.620 509.329,666.096 535.367 C 643.327 560.570,612.629 573.579,576.000 573.548 C 536.191 573.515,510.633 562.379,484.344 533.615 C 461.399 508.510,452.000 484.211,452.000 450.000 C 452.000 417.585,461.006 392.528,480.696 370.159 C 519.466 326.113,574.050 313.908,626.183 337.627 M1250.490 335.890 C 1273.613 345.999,1298.741 369.916,1311.274 393.746 C 1320.521 411.328,1321.926 418.749,1321.926 450.000 C 1321.926 481.251,1320.521 488.672,1311.274 506.254 C 1298.481 530.577,1273.698 553.867,1248.490 565.253 C 1219.840 578.195,1176.625 577.159,1147.335 562.828 C 1122.485 550.670,1101.288 529.645,1087.202 503.180 C 1074.050 478.471,1073.970 421.674,1087.053 397.111 C 1106.416 360.760,1138.043 335.255,1172.587 328.135 C 1195.378 323.437,1229.856 326.869,1250.490 335.890 M1876.000 336.538 C 1897.762 346.037,1920.905 367.671,1935.328 392.000 C 1944.979 408.278,1946.000 413.827,1946.000 450.000 C 1946.000 486.173,1944.979 491.722,1935.328 508.000 C 1903.930 560.960,1847.495 585.723,1793.782 570.109 C 1727.639 550.880,1690.007 489.405,1703.777 423.076 C 1712.820 379.512,1753.136 338.836,1797.641 328.370 C 1819.380 323.259,1853.796 326.846,1876.000 336.538 M832.916 750.677 C 824.424 754.094,815.345 775.628,818.361 785.200 C 819.886 790.040,840.857 817.746,864.963 846.769 C 913.318 904.986,923.766 911.709,943.264 897.152 C 954.451 888.800,960.193 873.933,956.394 863.159 C 952.977 853.472,871.946 756.253,863.538 751.753 C 856.117 747.781,841.399 747.264,832.916 750.677 M980.290 946.539 C 966.859 963.614,969.507 972.306,998.623 1006.730 L 1016.157 1027.460 994.980 1058.730 C 983.333 1075.928,970.325 1100.350,966.073 1113.000 L 958.343 1136.000 887.482 1136.000 L 816.620 1136.000 811.764 1121.000 C 786.403 1042.665,715.085 976.895,635.041 958.022 C 602.593 950.372,544.089 950.378,513.840 958.035 C 436.862 977.520,372.877 1034.352,341.859 1110.791 L 332.441 1134.000 288.667 1136.371 C 240.941 1138.956,225.908 1144.512,210.418 1165.293 C 198.198 1181.688,198.656 1217.312,211.315 1235.060 C 226.151 1255.860,240.818 1261.265,289.221 1263.766 L 332.443 1266.000 341.860 1289.209 C 363.579 1342.739,403.113 1389.473,449.154 1416.045 C 519.349 1456.557,609.125 1460.302,682.132 1425.764 C 741.539 1397.660,791.753 1340.810,811.764 1279.000 L 816.620 1264.000 887.580 1264.000 L 958.539 1264.000 965.559 1286.271 C 969.421 1298.520,982.353 1322.895,994.298 1340.437 L 1016.015 1372.332 996.042 1396.332 C 985.057 1409.532,974.955 1424.771,973.594 1430.195 C 968.935 1448.755,992.892 1471.375,1010.965 1465.482 C 1014.834 1464.220,1028.861 1451.502,1042.135 1437.218 L 1066.269 1411.249 1080.404 1419.588 C 1088.178 1424.175,1104.632 1431.401,1116.967 1435.644 C 1205.828 1466.217,1300.369 1446.238,1371.676 1381.817 C 1394.010 1361.639,1426.117 1312.677,1434.544 1285.944 L 1441.461 1264.000 1512.420 1264.000 L 1583.380 1264.000 1588.236 1279.000 C 1629.351 1405.995,1771.987 1479.428,1898.000 1438.475 C 1974.180 1413.718,2027.961 1363.589,2058.140 1289.209 L 2067.557 1266.000 2110.779 1263.766 C 2159.182 1261.265,2173.849 1255.860,2188.685 1235.060 C 2201.344 1217.312,2201.802 1181.688,2189.582 1165.293 C 2173.873 1144.220,2158.298 1138.445,2110.908 1136.123 L 2067.557 1134.000 2058.140 1110.791 C 2027.127 1034.355,1963.139 977.520,1886.160 958.035 C 1855.911 950.378,1797.407 950.372,1764.959 958.022 C 1684.909 976.896,1613.599 1042.659,1588.236 1121.000 L 1583.380 1136.000 1512.420 1136.000 L 1441.461 1136.000 1434.713 1114.593 C 1420.925 1070.853,1383.024 1022.602,1339.973 993.982 C 1296.037 964.773,1265.907 955.122,1212.000 952.990 C 1159.638 950.920,1130.009 956.625,1090.000 976.482 L 1066.000 988.394 1042.000 962.078 C 1020.653 938.672,1016.374 935.776,1003.290 935.882 C 992.248 935.970,986.514 938.627,980.290 946.539 M630.000 1089.000 C 653.899 1101.318,675.741 1123.377,688.422 1148.000 C 695.979 1162.674,697.690 1172.282,697.684 1200.000 C 697.677 1228.985,696.110 1237.013,687.059 1254.430 C 673.627 1280.278,641.494 1309.376,617.264 1317.632 C 559.713 1337.241,495.241 1312.457,465.873 1259.435 C 455.047 1239.889,454.000 1234.650,454.000 1200.000 C 454.000 1165.350,455.047 1160.111,465.873 1140.565 C 480.315 1114.491,502.603 1094.733,529.697 1083.986 C 558.449 1072.581,602.412 1074.779,630.000 1089.000 M1253.692 1087.754 C 1278.721 1099.993,1299.951 1121.201,1312.308 1146.308 C 1326.276 1174.689,1326.221 1225.423,1312.190 1253.937 C 1257.102 1365.888,1088.316 1336.078,1077.103 1212.417 C 1071.914 1155.197,1104.929 1102.395,1158.649 1081.995 C 1182.283 1073.020,1229.398 1075.875,1253.692 1087.754 M1869.167 1084.032 C 1898.701 1095.082,1921.153 1115.552,1935.727 1144.717 C 1946.227 1165.730,1948.000 1173.715,1948.000 1200.000 C 1948.000 1226.238,1946.221 1234.282,1935.813 1255.111 C 1914.673 1297.416,1880.634 1320.048,1833.516 1323.125 C 1794.968 1325.643,1770.249 1317.122,1742.481 1291.744 C 1713.486 1265.244,1702.262 1239.675,1702.207 1200.000 C 1702.175 1177.231,1704.362 1165.180,1711.280 1150.000 C 1726.175 1117.317,1757.108 1090.393,1792.000 1079.741 C 1811.292 1073.851,1847.309 1075.854,1869.167 1084.032 M911.206 1502.919 C 897.696 1511.782,822.074 1602.892,818.344 1614.800 C 815.121 1625.090,824.583 1645.833,834.179 1649.515 C 837.741 1650.882,845.857 1652.000,852.217 1652.000 C 862.147 1652.000,870.057 1644.519,908.255 1599.000 C 932.717 1569.850,954.322 1541.950,956.267 1537.000 C 966.232 1511.630,934.506 1487.635,911.206 1502.919 M753.835 1689.565 C 749.465 1692.626,738.003 1705.013,728.365 1717.092 L 710.840 1739.055 682.305 1725.504 C 631.336 1701.299,582.474 1695.069,526.935 1705.696 C 442.570 1721.837,370.322 1782.535,341.901 1861.148 L 332.916 1886.000 286.726 1888.000 C 248.292 1889.664,238.686 1891.385,229.515 1898.247 C 209.100 1913.524,202.000 1926.878,202.000 1950.000 C 202.000 1973.130,209.107 1986.490,229.529 2001.753 C 238.708 2008.613,248.327 2010.336,286.716 2012.000 L 332.868 2014.000 342.165 2038.772 C 368.052 2107.746,423.283 2160.768,496.662 2187.091 C 522.154 2196.235,532.293 2197.618,574.000 2197.634 C 615.162 2197.651,626.436 2196.166,653.135 2187.209 C 726.591 2162.566,792.021 2097.508,812.247 2029.000 L 817.266 2012.000 887.903 2012.000 L 958.539 2012.000 965.184 2033.000 C 980.855 2082.523,1028.188 2139.566,1076.400 2167.031 C 1117.630 2190.519,1148.445 2198.038,1202.000 2197.675 C 1242.967 2197.399,1254.299 2195.828,1279.340 2186.958 C 1321.423 2172.050,1348.834 2154.120,1380.684 2120.667 C 1407.986 2091.989,1440.000 2037.232,1440.000 2019.212 C 1440.000 2012.531,1445.277 2012.000,1511.628 2012.000 L 1583.255 2012.000 1590.373 2034.628 C 1594.287 2047.074,1605.843 2070.052,1616.053 2085.691 C 1676.652 2178.520,1794.937 2221.290,1900.000 2188.361 C 1971.524 2165.944,2035.408 2104.900,2059.713 2035.749 L 2067.357 2014.000 2113.396 2012.000 C 2151.670 2010.337,2161.297 2008.609,2170.471 2001.753 C 2198.987 1980.441,2207.505 1948.443,2192.005 1920.863 C 2177.359 1894.805,2160.447 1888.000,2110.330 1888.000 C 2073.281 1888.000,2067.463 1887.091,2065.549 1881.000 C 2031.527 1772.741,1933.465 1699.697,1822.648 1700.069 C 1723.737 1700.402,1624.265 1770.352,1591.066 1862.920 L 1582.072 1888.000 1512.661 1888.000 C 1445.556 1888.000,1443.178 1887.722,1441.059 1879.616 C 1439.853 1875.005,1431.785 1856.589,1423.130 1838.692 C 1401.981 1794.958,1355.685 1748.503,1312.000 1727.179 C 1279.689 1711.407,1232.682 1700.000,1200.000 1700.000 C 1167.734 1700.000,1120.547 1711.500,1088.000 1727.295 C 1044.344 1748.482,998.057 1794.879,976.870 1838.692 C 968.215 1856.589,960.147 1875.005,958.941 1879.616 C 956.821 1887.724,954.449 1888.000,887.008 1888.000 L 817.266 1888.000 812.299 1871.000 C 806.362 1850.685,787.427 1815.716,771.185 1795.071 C 758.039 1778.361,757.894 1778.910,783.384 1748.788 C 805.144 1723.073,807.103 1707.697,790.444 1693.367 C 778.090 1682.741,765.452 1681.428,753.835 1689.565 M626.183 1837.758 C 654.490 1850.453,673.839 1868.799,686.840 1895.274 C 696.255 1914.447,697.991 1923.002,697.940 1950.000 C 697.871 1987.210,689.620 2009.329,666.096 2035.367 C 643.327 2060.570,612.629 2073.579,576.000 2073.548 C 536.191 2073.515,510.633 2062.379,484.344 2033.615 C 461.399 2008.510,452.000 1984.211,452.000 1950.000 C 452.000 1917.585,461.006 1892.528,480.696 1870.159 C 519.398 1826.191,573.514 1814.139,626.183 1837.758 M1250.490 1835.890 C 1273.613 1845.999,1298.741 1869.916,1311.274 1893.746 C 1320.521 1911.328,1321.926 1918.749,1321.926 1950.000 C 1321.926 1981.251,1320.521 1988.672,1311.274 2006.254 C 1298.481 2030.577,1273.698 2053.867,1248.490 2065.253 C 1219.840 2078.195,1176.625 2077.159,1147.335 2062.828 C 1122.485 2050.670,1101.288 2029.645,1087.202 2003.180 C 1079.626 1988.947,1078.057 1979.825,1078.057 1950.000 C 1078.057 1910.475,1084.048 1893.891,1108.304 1866.265 C 1142.033 1827.850,1202.535 1814.925,1250.490 1835.890 M1876.000 1836.592 C 1897.733 1846.013,1920.882 1867.632,1935.328 1892.000 C 1944.979 1908.278,1946.000 1913.827,1946.000 1950.000 C 1946.000 1986.173,1944.979 1991.722,1935.328 2008.000 C 1920.677 2032.714,1897.824 2053.858,1874.000 2064.744 C 1845.764 2077.647,1801.912 2077.238,1774.000 2063.811 C 1748.612 2051.599,1724.316 2027.390,1711.862 2001.896 C 1698.565 1974.677,1698.280 1926.607,1711.258 1899.877 C 1724.288 1873.038,1740.682 1855.077,1763.468 1842.676 C 1799.983 1822.802,1839.288 1820.677,1876.000 1836.592 " fill="#1D1E23" stroke="none" fill-rule="evenodd"/></svg>