<svg viewBox="0 0 2400 2400" fill="none" xmlns="http://www.w3.org/2000/svg"><path d="M540.000 204.099 C 459.465 213.783,388.734 266.748,349.084 347.062 L 329.862 386.000 285.551 388.134 C 236.582 390.492,225.443 394.886,211.821 417.217 C 195.384 444.163,198.175 473.240,219.092 492.968 C 233.016 506.099,254.723 511.935,290.000 512.032 C 331.232 512.146,333.418 513.279,342.191 539.086 C 352.976 570.817,374.357 601.993,404.783 630.354 C 449.031 671.598,501.526 694.521,561.405 698.747 C 599.277 701.420,644.924 691.809,686.283 672.455 L 710.850 660.958 727.908 682.336 C 756.183 717.770,772.389 723.975,790.182 706.182 C 805.091 691.273,802.994 676.818,782.000 649.782 C 772.100 637.033,764.000 624.272,764.000 621.426 C 764.000 618.579,771.858 604.043,781.463 589.125 C 791.068 574.206,803.218 550.776,808.463 537.059 L 818.000 512.117 884.000 512.120 C 920.300 512.121,951.912 513.445,954.249 515.061 C 956.585 516.678,962.659 528.386,967.746 541.081 C 995.103 609.352,1056.439 665.042,1132.000 690.216 C 1158.668 699.100,1226.734 700.205,1260.000 692.293 C 1333.163 674.893,1404.428 611.895,1431.100 541.043 L 1442.000 512.087 1512.566 512.043 L 1583.133 512.000 1585.767 522.496 C 1590.633 541.884,1612.615 582.767,1630.266 605.256 C 1667.519 652.720,1733.022 689.566,1793.064 696.833 C 1875.465 706.805,1951.357 678.449,2009.055 616.129 C 2032.398 590.916,2056.043 551.160,2062.138 526.873 C 2065.208 514.642,2073.300 512.133,2110.000 512.032 C 2125.400 511.990,2145.200 509.998,2154.000 507.605 C 2207.023 493.188,2215.134 422.430,2166.647 397.280 C 2158.377 392.991,2138.961 389.904,2110.542 388.360 L 2067.084 386.000 2058.158 361.310 C 2032.808 291.192,1964.033 229.949,1888.000 209.787 C 1854.478 200.898,1797.882 200.720,1764.637 209.399 C 1685.592 230.035,1614.229 293.688,1590.088 365.091 L 1582.282 388.182 1514.141 387.091 L 1446.000 386.000 1430.000 353.496 C 1421.200 335.619,1406.980 311.610,1398.400 300.142 C 1363.702 253.768,1307.205 218.732,1247.169 206.356 C 1208.571 198.399,1191.623 198.383,1152.831 206.264 C 1074.251 222.231,1009.875 272.560,973.284 346.636 L 953.839 386.000 885.920 387.037 L 818.000 388.073 807.022 359.037 C 767.747 255.160,655.759 190.180,540.000 204.099 M616.287 334.126 C 645.690 344.296,668.818 364.122,683.574 391.806 C 696.532 416.118,696.852 417.866,695.225 455.402 C 693.286 500.116,688.395 511.986,660.350 540.031 C 635.013 565.367,610.324 573.545,566.163 571.227 C 528.838 569.268,506.606 559.136,484.573 534.042 C 460.285 506.379,454.260 489.675,454.260 450.000 C 454.260 420.523,455.872 410.940,463.155 397.111 C 477.186 370.468,494.548 353.350,520.889 340.187 C 540.746 330.264,550.229 328.000,571.926 328.000 C 586.583 328.000,606.546 330.757,616.287 334.126 M1254.000 338.018 C 1274.340 347.954,1301.046 374.528,1311.724 395.460 C 1323.634 418.805,1323.634 481.195,1311.724 504.540 C 1300.538 526.467,1271.269 555.020,1250.785 563.989 C 1187.679 591.621,1112.101 561.086,1085.395 497.170 C 1081.535 487.931,1079.200 470.153,1079.200 450.000 C 1079.200 414.831,1084.587 397.186,1102.486 373.719 C 1114.450 358.033,1139.300 339.681,1158.000 332.720 C 1177.077 325.618,1235.179 328.825,1254.000 338.018 M1867.858 333.950 C 1890.812 342.048,1913.779 361.018,1930.257 385.487 C 1943.850 405.670,1944.000 406.376,1944.000 450.000 C 1944.000 493.624,1943.850 494.330,1930.257 514.513 C 1903.653 554.018,1867.658 574.083,1824.000 573.744 C 1756.384 573.218,1702.267 518.146,1702.403 450.000 C 1702.497 402.750,1729.618 359.869,1773.118 338.192 C 1797.323 326.130,1840.247 324.208,1867.858 333.950 M830.945 753.000 C 820.785 760.715,815.217 779.062,820.206 788.385 C 827.877 802.717,887.054 874.214,903.675 889.231 C 922.811 906.519,932.694 907.670,946.182 894.182 C 963.389 876.974,959.776 864.925,924.276 821.134 C 873.967 759.075,862.602 748.000,849.227 748.000 C 842.793 748.000,834.566 750.250,830.945 753.000 M981.818 945.818 C 976.418 951.218,972.000 959.048,972.000 963.218 C 972.000 971.053,989.636 998.056,1006.840 1016.563 L 1016.659 1027.125 1000.569 1050.697 C 983.795 1075.271,960.009 1122.358,960.003 1131.000 C 960.001 1134.813,943.039 1136.000,888.536 1136.000 L 817.072 1136.000 808.429 1112.295 C 790.196 1062.290,744.395 1009.907,694.958 982.517 C 627.159 944.953,539.401 942.237,470.000 975.554 C 411.657 1003.562,372.353 1044.071,344.967 1104.421 L 331.163 1134.842 289.218 1137.217 C 224.987 1140.855,202.286 1156.535,202.286 1197.265 C 202.286 1240.512,225.153 1259.471,281.119 1262.627 C 332.076 1265.500,330.957 1264.930,344.371 1294.827 C 388.046 1392.171,471.772 1448.000,574.079 1448.000 C 594.011 1448.000,621.047 1445.273,634.160 1441.940 C 710.473 1422.541,778.202 1363.562,806.245 1292.086 L 817.264 1264.000 888.198 1264.000 L 959.133 1264.000 961.859 1275.000 C 965.883 1291.238,986.880 1331.316,1002.624 1352.810 L 1016.402 1371.619 998.368 1393.760 C 974.729 1422.782,971.286 1429.764,974.432 1442.299 C 976.775 1451.631,996.461 1467.946,1005.426 1467.985 C 1007.311 1467.993,1021.731 1455.512,1037.472 1440.250 L 1066.091 1412.499 1090.045 1423.935 C 1138.905 1447.259,1206.003 1455.371,1254.094 1443.769 C 1285.302 1436.239,1335.819 1411.065,1360.765 1390.610 C 1386.705 1369.340,1423.345 1316.872,1434.517 1285.000 L 1441.878 1264.000 1512.403 1264.000 L 1582.928 1264.000 1591.438 1287.340 C 1617.923 1359.977,1687.629 1421.777,1766.000 1442.105 C 1795.615 1449.786,1847.816 1450.705,1876.494 1444.050 C 1907.161 1436.933,1958.426 1412.113,1983.184 1392.395 C 2009.782 1371.211,2037.211 1334.520,2054.411 1297.115 C 2069.335 1264.659,2067.745 1265.510,2118.881 1262.627 C 2174.847 1259.471,2197.714 1240.512,2197.714 1197.265 C 2197.714 1156.433,2174.286 1140.276,2110.348 1137.012 L 2068.861 1134.895 2055.045 1104.448 C 2008.717 1002.354,1914.249 945.220,1805.460 953.499 C 1745.351 958.074,1700.278 977.648,1656.480 1018.197 C 1627.415 1045.106,1603.348 1079.997,1591.571 1112.295 L 1582.928 1136.000 1512.195 1136.000 L 1441.461 1136.000 1434.713 1114.593 C 1421.926 1074.026,1383.332 1024.431,1342.918 996.630 C 1306.396 971.505,1277.000 960.530,1232.771 955.504 C 1177.724 949.248,1137.072 954.820,1096.192 974.224 L 1066.384 988.373 1041.455 962.186 C 1012.866 932.157,999.224 928.413,981.818 945.818 M626.664 1087.882 C 647.301 1097.010,676.543 1125.543,687.724 1147.460 C 694.293 1160.336,696.000 1171.172,696.000 1200.000 C 696.000 1243.232,689.395 1259.368,659.968 1288.032 C 635.239 1312.118,616.524 1320.744,583.936 1323.076 C 562.303 1324.624,553.226 1323.198,533.175 1315.099 C 502.281 1302.620,488.471 1291.475,470.406 1264.443 C 456.104 1243.041,456.000 1242.576,456.000 1200.063 L 456.000 1157.240 471.390 1133.428 C 488.207 1107.410,515.510 1086.913,542.183 1080.283 C 563.639 1074.949,606.052 1078.764,626.664 1087.882 M1251.878 1088.393 C 1295.345 1107.558,1321.053 1149.035,1321.053 1200.000 C 1321.053 1237.274,1310.591 1263.884,1286.768 1287.204 C 1261.774 1311.670,1236.306 1321.835,1200.000 1321.835 C 1177.305 1321.835,1165.130 1319.617,1150.000 1312.726 C 1123.762 1300.776,1098.649 1275.743,1087.471 1250.395 C 1075.304 1222.806,1074.915 1177.701,1086.620 1151.797 C 1102.118 1117.498,1135.061 1088.127,1167.029 1080.107 C 1188.117 1074.816,1230.465 1078.952,1251.878 1088.393 M1878.715 1088.756 C 1901.969 1099.687,1922.901 1120.769,1936.036 1146.489 C 1950.244 1174.311,1950.398 1225.394,1936.356 1252.870 C 1921.293 1282.343,1905.767 1298.545,1880.918 1310.724 C 1861.268 1320.355,1853.152 1321.957,1824.000 1321.959 C 1786.565 1321.962,1769.503 1315.612,1741.958 1291.427 C 1715.760 1268.425,1706.508 1247.160,1704.699 1205.794 C 1703.385 1175.752,1704.499 1166.040,1710.916 1151.596 C 1724.838 1120.263,1753.181 1094.084,1786.792 1081.512 C 1807.931 1073.606,1854.249 1077.256,1878.715 1088.756 M893.366 1521.000 C 871.582 1544.111,826.268 1600.288,820.072 1611.865 C 817.450 1616.764,817.590 1623.367,820.491 1631.690 C 828.047 1653.364,850.189 1658.556,868.634 1642.980 C 882.647 1631.147,947.233 1552.996,954.381 1539.225 C 964.760 1519.226,950.283 1500.000,924.843 1500.000 C 915.930 1500.000,908.468 1504.978,893.366 1521.000 M753.835 1689.565 C 749.465 1692.626,738.014 1705.000,728.389 1717.062 L 710.888 1738.994 686.375 1727.880 C 644.449 1708.869,617.128 1702.631,576.000 1702.677 C 553.841 1702.703,527.633 1705.440,513.131 1709.244 C 436.362 1729.381,369.269 1789.024,342.163 1861.228 L 332.863 1886.000 286.381 1888.564 C 244.350 1890.882,238.568 1892.143,226.003 1901.726 C 207.388 1915.925,202.857 1925.587,202.857 1951.085 C 202.857 1974.106,209.444 1986.749,229.076 2001.406 C 237.511 2007.704,249.222 2009.907,286.828 2012.269 C 341.655 2015.712,336.000 2014.684,336.000 2021.212 C 336.000 2024.078,343.000 2040.898,351.556 2058.590 C 377.671 2112.594,427.007 2158.002,487.202 2183.437 C 531.585 2202.191,611.873 2202.412,661.309 2183.915 C 728.277 2158.859,790.701 2095.822,810.757 2033.000 L 817.461 2012.000 887.730 2012.043 L 958.000 2012.087 968.900 2041.043 C 995.162 2110.807,1068.207 2176.034,1138.126 2192.157 C 1149.057 2194.678,1178.818 2196.751,1204.262 2196.765 C 1243.686 2196.786,1254.907 2195.266,1280.172 2186.479 C 1346.733 2163.332,1410.168 2101.808,1434.565 2036.735 C 1438.428 2026.431,1443.482 2016.678,1445.795 2015.061 C 1448.108 2013.445,1480.010 2012.095,1516.690 2012.061 L 1583.380 2012.000 1588.175 2027.000 C 1597.728 2056.878,1621.600 2096.750,1643.623 2119.609 C 1721.058 2199.983,1837.429 2221.587,1934.520 2173.613 C 1987.427 2147.471,2042.450 2087.320,2058.538 2038.035 C 2062.136 2027.016,2065.811 2017.175,2066.706 2016.166 C 2067.602 2015.158,2089.036 2013.202,2114.339 2011.819 C 2166.127 2008.990,2175.113 2004.990,2191.164 1977.624 C 2206.923 1950.755,2198.948 1919.517,2171.001 1898.652 C 2162.608 1892.385,2151.418 1890.326,2115.319 1888.404 L 2070.142 1886.000 2050.470 1846.156 C 2014.621 1773.548,1949.445 1721.783,1874.000 1705.997 C 1837.846 1698.433,1814.855 1698.517,1776.831 1706.355 C 1695.799 1723.058,1620.741 1785.382,1592.954 1859.037 L 1582.000 1888.073 1514.000 1887.037 L 1446.000 1886.000 1430.000 1853.496 C 1389.243 1770.700,1329.296 1723.043,1244.219 1705.804 C 1165.355 1689.824,1084.343 1715.812,1023.416 1776.636 C 998.555 1801.455,989.037 1814.745,973.284 1846.636 L 953.839 1886.000 885.779 1887.091 L 817.718 1888.182 809.870 1865.091 C 805.554 1852.391,793.467 1828.894,783.011 1812.876 C 772.555 1796.858,764.000 1781.423,764.000 1778.575 C 764.000 1775.728,772.100 1762.967,782.000 1750.218 C 804.316 1721.479,806.140 1704.917,788.383 1692.272 C 774.809 1682.607,764.880 1681.829,753.835 1689.565 M616.287 1834.126 C 645.690 1844.296,668.818 1864.122,683.574 1891.806 C 696.532 1916.118,696.852 1917.866,695.225 1955.402 C 693.286 2000.116,688.395 2011.986,660.350 2040.031 C 635.013 2065.367,610.324 2073.545,566.163 2071.227 C 528.838 2069.268,506.606 2059.136,484.573 2034.042 C 460.285 2006.379,454.260 1989.675,454.260 1950.000 C 454.260 1920.523,455.872 1910.940,463.155 1897.111 C 477.186 1870.468,494.548 1853.350,520.889 1840.187 C 540.746 1830.264,550.229 1828.000,571.926 1828.000 C 586.583 1828.000,606.546 1830.757,616.287 1834.126 M1254.000 1838.038 C 1274.326 1847.941,1301.038 1874.513,1311.724 1895.460 C 1318.387 1908.520,1320.000 1919.150,1320.000 1950.000 C 1320.000 1994.873,1314.059 2010.151,1285.510 2038.701 C 1225.029 2099.181,1127.595 2080.812,1086.593 2001.199 C 1077.777 1984.080,1077.485 1921.763,1086.124 1901.087 C 1099.083 1870.070,1124.875 1846.115,1158.811 1833.575 C 1180.528 1825.550,1233.461 1828.032,1254.000 1838.038 M1867.858 1833.950 C 1890.812 1842.048,1913.779 1861.018,1930.257 1885.487 C 1943.831 1905.642,1944.000 1906.432,1944.000 1949.596 C 1944.000 1991.605,1943.521 1994.045,1931.654 2012.539 C 1905.373 2053.494,1871.169 2073.203,1826.000 2073.419 C 1791.666 2073.584,1765.776 2063.100,1740.531 2038.809 C 1714.416 2013.682,1704.087 1988.790,1704.039 1950.872 C 1703.967 1893.751,1731.665 1852.972,1783.484 1833.905 C 1803.176 1826.659,1847.261 1826.683,1867.858 1833.950 " fill="#1D1E23" stroke="none" fill-rule="evenodd"/></svg>