<svg viewBox="0 0 2400 2400" fill="none" xmlns="http://www.w3.org/2000/svg"><path d="M1158.698 205.978 C 1124.624 213.003,1073.238 237.839,1042.850 261.969 C 1016.752 282.694,987.012 320.935,965.835 361.000 L 951.564 388.000 886.030 388.000 L 820.497 388.000 804.010 355.060 C 769.061 285.235,721.126 240.978,655.286 217.748 C 646.879 214.782,621.539 210.278,598.974 207.739 C 564.576 203.868,552.618 204.127,524.979 209.340 C 449.447 223.586,391.422 271.000,344.273 357.000 C 327.313 387.934,327.242 388.000,310.638 388.079 C 282.691 388.212,238.802 395.865,228.945 402.323 C 206.306 417.157,195.602 462.230,209.878 482.612 C 219.819 496.805,250.530 508.334,289.002 512.314 C 308.686 514.350,326.309 516.955,328.166 518.102 C 330.022 519.249,339.195 534.554,348.551 552.113 C 376.440 604.456,415.847 645.685,458.777 667.435 C 484.250 680.341,532.947 695.267,558.850 698.108 C 586.616 701.154,630.319 692.843,676.945 675.652 L 709.135 663.783 736.178 689.891 C 751.052 704.251,765.697 716.000,768.721 716.000 C 777.649 716.000,792.214 703.958,796.307 693.193 C 799.457 684.906,797.263 677.924,783.496 652.435 L 766.883 621.677 792.097 568.750 C 811.980 527.014,819.309 515.322,826.762 513.451 C 844.810 508.922,942.571 513.834,949.544 519.622 C 953.137 522.603,964.609 539.487,975.038 557.141 C 997.218 594.687,1044.612 644.148,1076.517 663.047 C 1113.422 684.907,1141.471 692.945,1188.221 695.056 C 1236.585 697.241,1283.953 687.820,1314.441 669.953 C 1357.755 644.570,1402.645 596.157,1428.006 547.479 C 1438.874 526.618,1446.770 516.190,1452.953 514.533 C 1464.627 511.405,1559.250 511.372,1570.888 514.492 C 1576.780 516.071,1585.281 527.079,1596.099 547.135 C 1630.629 611.151,1677.358 655.775,1736.000 680.732 C 1761.576 691.617,1772.088 693.753,1807.286 695.214 C 1859.400 697.378,1889.150 691.685,1931.221 671.498 C 1976.213 649.909,2015.072 612.911,2043.346 564.742 C 2054.922 545.020,2067.654 525.933,2071.640 522.326 C 2076.243 518.160,2091.861 514.294,2114.444 511.731 C 2156.284 506.981,2174.514 499.075,2187.062 480.238 C 2201.297 458.869,2202.041 449.866,2191.294 428.983 C 2178.584 404.284,2164.418 396.712,2121.492 391.670 C 2066.146 385.170,2070.552 387.867,2051.793 349.011 C 2038.131 320.715,2028.667 307.827,2002.445 281.812 C 1940.801 220.657,1867.774 195.351,1788.455 207.658 C 1711.655 219.574,1634.710 275.611,1600.042 344.875 C 1591.219 362.503,1584.000 379.418,1584.000 382.463 C 1584.000 386.962,1571.260 388.000,1516.067 388.000 L 1448.135 388.000 1437.594 367.000 C 1404.941 301.946,1363.666 258.014,1310.960 232.214 C 1255.018 204.830,1205.582 196.311,1158.698 205.978 M628.368 341.364 C 647.121 350.432,674.633 377.837,685.227 398.000 C 691.893 410.687,693.545 420.652,693.208 446.121 C 692.628 489.855,687.308 506.441,666.098 530.642 C 640.046 560.366,620.708 568.571,576.702 568.571 C 534.187 568.571,517.224 562.574,492.532 538.811 C 465.413 512.712,460.191 497.710,460.088 445.600 C 460.003 402.966,460.456 400.580,471.458 385.600 C 486.329 365.352,497.900 354.984,520.000 342.104 C 536.629 332.412,540.894 331.719,576.000 333.014 C 601.440 333.952,618.749 336.712,628.368 341.364 M1257.132 342.586 C 1263.904 346.087,1279.919 359.960,1292.722 373.415 L 1316.000 397.878 1315.978 439.939 C 1315.947 497.138,1312.054 508.866,1283.972 536.344 C 1253.472 566.188,1233.520 573.875,1194.257 570.905 C 1157.075 568.093,1134.506 558.151,1113.623 535.385 C 1088.893 508.424,1082.736 488.306,1084.648 440.711 C 1086.042 405.993,1087.563 399.054,1096.857 385.010 C 1110.444 364.479,1140.363 339.931,1157.038 335.633 C 1176.680 330.569,1242.774 335.160,1257.132 342.586 M1889.129 347.368 C 1899.650 354.624,1915.400 369.597,1924.129 380.640 L 1940.000 400.718 1940.000 448.638 C 1940.000 495.006,1939.624 497.100,1928.399 513.279 C 1911.818 537.179,1896.749 550.356,1874.996 559.974 C 1817.919 585.214,1757.331 567.084,1723.421 514.620 C 1708.319 491.253,1708.000 489.985,1708.000 453.247 C 1708.000 408.353,1716.450 387.665,1745.863 360.553 C 1773.642 334.948,1783.629 331.679,1830.000 333.018 C 1867.834 334.111,1871.036 334.888,1889.129 347.368 M829.818 757.818 C 824.418 763.218,820.000 770.508,820.000 774.017 C 820.000 784.524,831.706 804.366,855.388 834.000 C 888.809 875.821,914.842 900.000,926.448 900.000 C 937.122 900.000,956.000 883.903,956.000 874.802 C 956.000 858.932,886.846 771.356,862.370 756.228 C 845.342 745.705,841.757 745.880,829.818 757.818 M984.118 947.889 C 967.028 963.854,968.339 968.573,1001.011 1008.695 L 1016.234 1027.389 997.732 1055.990 C 987.556 1071.720,973.986 1096.157,967.576 1110.295 L 955.920 1136.000 886.960 1135.868 L 818.000 1135.736 800.575 1099.158 C 767.154 1028.998,693.696 970.866,625.234 960.398 C 561.723 950.688,514.609 956.088,469.835 978.212 C 417.672 1003.986,375.780 1046.871,345.716 1105.273 L 330.573 1134.688 289.838 1138.913 C 266.221 1141.362,241.409 1146.541,230.795 1151.236 C 214.916 1158.260,211.879 1161.596,207.897 1176.383 C 202.181 1197.612,205.885 1224.233,216.419 1237.625 C 225.722 1249.451,261.209 1261.582,299.283 1265.950 C 327.252 1269.159,328.228 1270.068,360.000 1322.427 C 378.353 1352.672,415.874 1390.942,446.690 1410.849 C 485.400 1435.854,521.424 1445.719,574.000 1445.711 C 648.562 1445.700,695.288 1425.648,750.679 1369.889 C 777.450 1342.941,786.489 1330.420,800.679 1300.629 L 818.000 1264.264 878.000 1264.187 C 911.000 1264.144,942.142 1265.219,947.205 1266.575 C 953.378 1268.228,960.463 1277.102,968.716 1293.520 C 975.484 1306.984,988.839 1330.124,998.394 1344.943 L 1015.765 1371.887 995.883 1398.155 C 973.405 1427.852,970.823 1441.741,985.258 1455.303 C 999.982 1469.136,1009.545 1466.161,1038.925 1438.610 C 1065.487 1413.701,1066.227 1413.321,1078.000 1418.512 C 1120.451 1437.232,1158.485 1445.602,1202.000 1445.800 C 1240.837 1445.976,1249.667 1444.651,1277.246 1434.505 C 1317.254 1419.785,1361.536 1390.848,1382.513 1365.714 C 1405.841 1337.765,1429.281 1300.358,1435.750 1280.757 L 1441.280 1264.000 1511.640 1264.132 L 1582.000 1264.264 1599.525 1301.132 C 1614.341 1332.303,1622.377 1343.278,1651.525 1372.156 C 1690.728 1410.997,1719.771 1428.177,1766.384 1440.098 C 1821.542 1454.205,1870.901 1449.400,1924.943 1424.661 C 1976.394 1401.108,2012.548 1365.978,2057.353 1296.000 L 2074.000 1270.000 2105.176 1265.263 C 2147.629 1258.813,2174.370 1249.334,2183.746 1237.414 C 2194.129 1224.214,2197.788 1197.494,2192.103 1176.383 C 2188.112 1161.560,2185.098 1158.267,2169.015 1151.152 C 2158.265 1146.397,2133.439 1141.175,2109.740 1138.683 L 2068.961 1134.396 2054.975 1106.198 C 2017.517 1030.673,1958.513 980.847,1883.711 961.574 C 1852.970 953.654,1778.413 955.925,1745.704 965.778 C 1686.740 983.540,1614.814 1052.577,1591.325 1113.957 L 1582.890 1136.000 1513.566 1136.000 L 1444.242 1136.000 1430.726 1107.000 C 1395.158 1030.686,1331.181 977.641,1255.125 961.404 C 1203.092 950.296,1122.766 960.029,1078.503 982.804 C 1067.266 988.586,1066.586 988.318,1048.503 971.012 C 1025.041 948.559,1008.319 936.000,1001.884 936.000 C 999.113 936.000,991.119 941.350,984.118 947.889 M626.000 1089.956 C 639.732 1095.693,673.749 1128.209,684.630 1146.000 C 693.187 1159.990,694.962 1219.170,687.618 1245.620 C 682.042 1265.704,646.628 1301.518,621.239 1312.749 C 595.421 1324.169,556.417 1323.843,528.832 1311.977 C 506.588 1302.407,470.834 1267.976,463.725 1249.277 C 461.388 1243.131,458.430 1223.266,457.150 1205.131 C 454.941 1173.829,455.470 1170.845,467.611 1146.185 C 482.741 1115.451,507.664 1093.074,535.241 1085.464 C 556.701 1079.543,607.038 1082.034,626.000 1089.956 M1248.368 1089.716 C 1271.454 1097.610,1290.072 1114.474,1303.487 1139.644 C 1314.880 1161.019,1316.000 1166.393,1316.000 1199.693 C 1316.000 1230.477,1314.472 1239.252,1306.346 1255.133 C 1284.966 1296.914,1248.118 1319.782,1202.000 1319.890 C 1162.933 1319.981,1149.045 1315.073,1123.206 1292.044 C 1090.750 1263.116,1084.000 1246.785,1084.000 1197.189 C 1084.000 1158.337,1084.462 1156.223,1097.000 1137.742 C 1113.375 1113.605,1143.510 1088.095,1160.768 1083.762 C 1177.253 1079.624,1229.172 1083.152,1248.368 1089.716 M1876.358 1090.760 C 1898.474 1100.665,1920.785 1122.160,1932.768 1145.106 C 1944.659 1167.877,1945.561 1230.440,1934.310 1252.000 C 1920.578 1278.314,1900.224 1299.302,1877.799 1310.274 C 1857.448 1320.231,1852.861 1320.931,1820.184 1319.068 C 1778.739 1316.704,1755.152 1307.201,1735.675 1285.019 C 1717.356 1264.154,1711.214 1246.410,1709.019 1208.000 C 1706.424 1162.582,1711.626 1145.430,1736.131 1118.618 C 1765.744 1086.217,1782.214 1079.171,1824.000 1081.028 C 1846.978 1082.048,1863.951 1085.204,1876.358 1090.760 M909.291 1508.276 C 893.606 1518.324,840.233 1582.117,827.621 1605.891 C 819.460 1621.274,818.971 1624.604,823.604 1633.261 C 831.662 1648.316,845.880 1653.302,859.975 1646.013 C 871.860 1639.867,919.951 1586.876,940.200 1557.614 C 957.334 1532.855,958.740 1522.377,946.565 1510.201 C 934.287 1497.924,926.111 1497.501,909.291 1508.276 M753.835 1689.565 C 749.465 1692.626,738.002 1705.015,728.361 1717.097 L 710.832 1739.065 684.414 1728.171 C 644.728 1711.806,617.993 1706.563,576.000 1706.910 C 498.809 1707.549,453.617 1726.282,399.853 1779.928 C 374.255 1805.470,361.510 1822.120,348.945 1846.434 C 339.727 1864.272,329.893 1880.648,327.092 1882.824 C 324.291 1885.000,302.504 1888.836,278.676 1891.349 C 229.229 1896.563,215.458 1903.401,207.824 1926.534 C 201.879 1944.547,205.074 1970.101,214.965 1983.654 C 226.839 1999.922,248.864 2008.372,291.823 2013.140 L 331.480 2017.541 338.740 2033.735 C 371.774 2107.423,443.023 2171.695,512.030 2190.059 C 561.749 2203.289,634.177 2195.651,682.000 2172.135 C 738.055 2144.569,798.294 2078.953,811.787 2030.760 L 817.040 2012.000 878.259 2012.000 C 911.930 2012.000,943.690 2013.601,948.836 2015.557 C 954.914 2017.868,963.553 2029.677,973.494 2049.261 C 1000.080 2101.641,1048.872 2151.957,1096.775 2176.395 C 1135.330 2196.065,1213.527 2202.458,1261.791 2189.886 C 1322.899 2173.970,1375.638 2131.332,1422.443 2060.006 C 1454.664 2010.904,1449.635 2013.158,1528.512 2012.473 L 1583.025 2012.000 1591.719 2035.250 C 1603.423 2066.546,1618.630 2088.634,1650.931 2121.257 C 1702.033 2172.867,1744.768 2191.907,1816.359 2194.962 C 1869.916 2197.247,1892.542 2192.365,1938.000 2168.715 C 1979.651 2147.046,2029.727 2095.974,2052.439 2052.000 L 2070.000 2018.000 2110.000 2012.744 C 2163.863 2005.666,2180.396 1997.971,2191.638 1974.748 C 2202.557 1952.191,2200.203 1934.921,2183.434 1914.578 C 2169.550 1897.735,2155.936 1893.272,2106.953 1889.506 L 2072.061 1886.824 2056.036 1857.116 C 2036.188 1820.319,2010.062 1786.015,1985.248 1764.174 C 1955.859 1738.304,1900.677 1712.823,1857.502 1705.184 C 1822.186 1698.936,1819.817 1699.003,1784.357 1707.273 C 1697.007 1727.645,1635.548 1776.026,1595.579 1855.882 L 1579.503 1888.000 1513.970 1888.000 L 1448.436 1888.000 1434.034 1860.593 C 1416.007 1826.287,1376.267 1777.091,1349.970 1756.527 C 1325.423 1737.332,1288.194 1718.116,1263.641 1711.969 C 1252.666 1709.222,1222.769 1707.901,1189.309 1708.686 L 1133.337 1710.000 1099.669 1726.801 C 1041.154 1756.002,998.359 1798.237,967.745 1857.000 L 951.595 1888.000 885.919 1888.000 L 820.242 1888.000 806.288 1857.798 C 798.613 1841.187,785.801 1816.841,777.816 1803.696 L 763.297 1779.796 775.455 1760.849 C 792.252 1734.673,800.811 1712.858,797.893 1703.663 C 795.407 1695.831,776.872 1684.000,767.089 1684.000 C 764.169 1684.000,758.205 1686.504,753.835 1689.565 M628.368 1841.364 C 647.121 1850.432,674.633 1877.837,685.227 1898.000 C 691.893 1910.687,693.545 1920.652,693.208 1946.121 C 692.628 1989.855,687.308 2006.441,666.098 2030.642 C 640.046 2060.366,620.708 2068.571,576.702 2068.571 C 534.187 2068.571,517.224 2062.574,492.532 2038.811 C 465.413 2012.712,460.191 1997.710,460.088 1945.600 C 460.003 1902.966,460.456 1900.580,471.458 1885.600 C 486.329 1865.352,497.900 1854.984,520.000 1842.104 C 536.629 1832.412,540.894 1831.719,576.000 1833.014 C 601.440 1833.952,618.749 1836.712,628.368 1841.364 M1255.753 1841.872 C 1273.261 1850.926,1303.869 1882.724,1310.619 1898.872 C 1313.875 1906.659,1316.000 1927.096,1316.000 1950.609 C 1316.000 1996.044,1309.054 2014.890,1283.947 2037.572 C 1260.306 2058.931,1237.480 2068.949,1207.566 2071.096 C 1164.138 2074.214,1131.380 2058.461,1100.414 2019.570 L 1084.000 1998.955 1084.000 1955.349 C 1084.000 1907.440,1088.757 1890.078,1107.212 1870.634 C 1123.991 1852.958,1139.894 1842.838,1159.755 1837.202 C 1184.146 1830.281,1238.446 1832.922,1255.753 1841.872 M1870.481 1837.943 C 1889.964 1846.084,1914.723 1866.306,1928.512 1885.342 C 1939.537 1900.561,1939.996 1902.989,1939.912 1945.600 C 1939.805 1999.511,1934.422 2013.888,1904.149 2041.106 C 1878.143 2064.488,1849.871 2073.888,1814.171 2071.022 C 1782.846 2068.507,1762.996 2058.170,1737.278 2030.978 C 1711.976 2004.225,1706.494 1986.680,1708.851 1940.000 C 1711.470 1888.107,1729.566 1861.414,1776.592 1840.075 C 1798.279 1830.234,1849.260 1829.077,1870.481 1837.943 " fill="#1D1E23" stroke="none" fill-rule="evenodd"/></svg>