<svg viewBox="0 0 2400 2400" fill="none" xmlns="http://www.w3.org/2000/svg"><path d="M1165.289 204.393 C 1115.553 212.697,1058.406 242.691,1023.467 278.830 C 1002.506 300.511,977.975 335.927,962.395 367.000 L 951.865 388.000 886.185 388.000 L 820.506 388.000 802.098 350.409 C 772.392 289.748,725.931 245.227,667.592 221.522 C 634.052 207.893,569.107 201.150,529.978 207.233 C 453.422 219.135,390.591 269.480,344.623 355.752 L 328.084 386.792 287.534 389.449 C 264.059 390.988,241.329 394.790,233.555 398.479 C 213.883 407.814,204.000 426.307,204.000 453.780 C 204.000 473.525,205.535 478.150,215.342 487.957 C 227.324 499.939,260.846 512.000,282.168 512.000 C 289.161 512.000,302.934 513.104,312.775 514.452 C 330.561 516.890,330.761 517.096,346.812 549.452 C 385.002 626.437,442.850 672.400,526.821 692.476 C 579.400 705.046,616.874 699.596,698.636 667.484 C 710.680 662.754,711.805 663.164,722.636 676.238 C 740.567 697.883,757.179 712.086,767.681 714.752 C 775.269 716.678,779.881 714.391,789.008 704.176 C 802.950 688.573,801.939 680.900,781.795 649.410 C 774.208 637.549,768.000 625.163,768.000 621.886 C 768.000 618.608,778.800 594.966,792.000 569.346 C 805.200 543.727,816.000 520.344,816.000 517.383 C 816.000 513.113,828.347 512.000,875.740 512.000 C 908.596 512.000,939.954 513.701,945.423 515.781 C 952.276 518.386,960.704 529.887,972.537 552.781 C 995.065 596.367,1045.196 647.596,1086.000 668.728 C 1127.821 690.387,1151.297 696.007,1199.726 695.953 C 1274.713 695.868,1318.397 677.657,1372.176 624.060 C 1400.139 596.192,1409.552 583.455,1423.956 554.000 C 1433.638 534.200,1443.459 516.678,1445.780 515.061 C 1451.286 511.227,1572.781 511.227,1578.000 515.061 C 1580.200 516.678,1590.071 534.200,1599.936 554.000 C 1632.369 619.101,1693.302 670.324,1762.000 690.240 C 1799.182 701.020,1858.395 699.422,1896.563 686.610 C 1962.066 664.621,2011.897 623.342,2044.000 564.476 C 2072.116 512.920,2068.822 515.418,2113.711 511.630 C 2163.365 507.441,2178.722 500.120,2191.553 474.523 C 2199.978 457.716,2200.569 453.672,2196.555 440.274 C 2190.488 420.025,2177.551 404.240,2161.538 397.549 C 2154.322 394.534,2130.081 390.866,2107.668 389.397 C 2072.354 387.083,2066.655 385.719,2064.943 379.173 C 2063.856 375.019,2057.154 359.556,2050.048 344.810 C 2026.043 294.998,1985.336 255.276,1930.000 227.670 C 1889.202 207.316,1842.027 200.206,1790.306 206.613 C 1708.055 216.804,1618.171 287.345,1591.038 363.000 L 1582.072 388.000 1515.093 388.000 L 1448.115 388.000 1435.510 363.000 C 1390.083 272.902,1330.132 225.157,1238.720 206.276 C 1205.578 199.430,1196.421 199.195,1165.289 204.393 M616.088 336.176 C 646.311 343.987,680.637 378.962,691.856 413.377 C 697.838 431.727,694.211 482.704,685.408 504.000 C 677.940 522.067,650.412 550.369,630.000 560.967 C 617.433 567.492,606.275 569.332,578.000 569.540 C 533.182 569.871,517.013 564.392,492.788 540.664 C 463.527 512.004,458.161 497.680,458.074 448.000 C 458.009 411.362,459.145 404.158,466.972 391.574 C 484.836 362.848,515.374 338.995,543.029 332.166 C 558.868 328.255,592.600 330.107,616.088 336.176 M1874.685 338.028 C 1890.950 344.825,1921.220 372.585,1932.974 391.485 C 1940.930 404.279,1942.000 411.270,1942.000 450.443 C 1942.000 494.373,1941.844 495.113,1928.520 514.443 C 1900.093 555.687,1861.433 574.816,1814.171 571.022 C 1772.893 567.709,1738.666 545.057,1717.848 507.275 C 1707.479 488.457,1706.124 482.074,1706.108 452.000 C 1706.093 424.603,1707.877 414.355,1715.291 399.229 C 1731.335 366.498,1762.402 339.776,1794.000 331.530 C 1809.912 327.377,1858.573 331.297,1874.685 338.028 M1265.020 346.785 C 1274.359 353.486,1289.650 368.269,1299.000 379.635 L 1316.000 400.300 1316.000 445.889 C 1316.000 470.964,1314.250 496.083,1312.111 501.709 C 1306.564 516.297,1277.294 546.908,1258.230 558.057 C 1232.459 573.129,1210.000 576.553,1179.194 570.108 C 1146.552 563.278,1133.480 556.703,1115.267 537.952 C 1089.241 511.157,1081.944 491.174,1082.414 447.990 C 1082.905 402.884,1089.452 386.742,1117.884 360.534 C 1146.171 334.459,1155.332 331.586,1205.020 333.201 C 1245.513 334.518,1249.038 335.316,1265.020 346.785 M828.163 757.827 C 811.761 775.286,818.292 790.082,869.327 851.086 C 896.275 883.298,910.346 895.929,925.313 901.344 C 934.331 904.606,956.000 884.414,956.000 872.748 C 956.000 857.838,885.451 769.649,862.164 755.447 C 846.007 745.595,839.207 746.071,828.163 757.827 M983.458 947.319 C 967.275 961.779,969.051 969.801,995.778 1002.956 L 1015.896 1027.911 997.563 1056.251 C 987.480 1071.837,973.986 1096.157,967.576 1110.295 L 955.920 1136.000 886.696 1136.000 L 817.472 1136.000 808.066 1113.000 C 781.603 1048.290,729.682 996.813,662.742 968.920 C 629.432 955.041,546.487 951.246,509.561 961.912 C 441.561 981.554,383.726 1030.442,349.804 1096.955 L 330.415 1134.972 295.532 1137.605 C 253.419 1140.784,223.979 1148.973,213.656 1160.380 C 202.395 1172.823,202.624 1223.362,214.000 1236.161 C 226.051 1249.719,250.289 1258.907,287.264 1263.933 C 305.559 1266.419,322.970 1269.391,325.954 1270.536 C 328.938 1271.681,340.021 1288.229,350.583 1307.309 C 392.162 1382.426,462.435 1434.769,534.316 1444.164 C 576.847 1449.723,628.205 1445.475,657.115 1434.007 C 726.448 1406.503,780.870 1353.502,808.066 1287.000 L 817.472 1264.000 883.736 1264.061 C 920.181 1264.095,951.922 1265.445,954.272 1267.061 C 956.621 1268.678,964.116 1282.020,970.926 1296.711 C 977.737 1311.401,990.776 1334.418,999.903 1347.858 L 1016.498 1372.295 1000.803 1391.147 C 970.328 1427.752,968.079 1442.043,990.071 1459.341 C 999.753 1466.957,1001.850 1467.238,1011.404 1462.202 C 1017.232 1459.130,1031.589 1446.831,1043.308 1434.870 L 1064.616 1413.124 1092.342 1424.407 C 1148.172 1447.127,1206.664 1453.383,1255.544 1441.860 C 1289.575 1433.838,1339.848 1407.206,1365.894 1383.401 C 1390.441 1360.966,1425.309 1310.374,1435.089 1283.000 L 1441.878 1264.000 1512.203 1264.000 L 1582.528 1264.000 1591.934 1287.000 C 1631.041 1382.628,1724.298 1447.737,1822.454 1447.941 C 1865.189 1448.030,1890.080 1442.006,1932.000 1421.430 C 1981.049 1397.355,2020.891 1358.575,2049.189 1307.365 C 2059.715 1288.316,2070.835 1271.768,2073.900 1270.592 C 2076.964 1269.416,2094.441 1266.419,2112.736 1263.933 C 2149.711 1258.907,2173.949 1249.719,2186.000 1236.161 C 2197.376 1223.362,2197.605 1172.823,2186.344 1160.380 C 2175.964 1148.910,2145.025 1140.305,2103.504 1137.338 L 2069.009 1134.874 2056.494 1107.863 C 2023.316 1036.253,1962.573 982.926,1890.230 961.895 C 1856.029 951.952,1771.167 955.172,1739.058 967.630 C 1675.510 992.286,1614.701 1052.245,1591.625 1113.000 L 1582.890 1136.000 1511.445 1136.000 C 1453.261 1136.000,1440.000 1134.972,1440.000 1130.463 C 1440.000 1127.418,1432.472 1109.868,1423.272 1091.463 C 1391.823 1028.554,1325.418 975.511,1261.029 961.867 C 1203.563 949.689,1139.876 955.773,1088.920 978.308 L 1066.484 988.230 1046.242 968.697 C 1023.540 946.790,1008.667 936.000,1001.173 936.000 C 998.397 936.000,990.426 941.093,983.458 947.319 M1867.426 1086.503 C 1892.025 1093.355,1921.098 1119.357,1933.949 1146.000 C 1944.499 1167.873,1946.651 1212.832,1938.492 1240.899 C 1930.538 1268.260,1906.124 1296.762,1878.766 1310.625 C 1860.301 1319.982,1855.222 1320.728,1820.273 1319.212 C 1778.779 1317.412,1766.570 1313.036,1741.420 1290.954 C 1717.057 1269.563,1708.085 1244.795,1708.039 1198.801 C 1707.998 1157.502,1711.540 1145.487,1730.423 1122.860 C 1766.703 1079.387,1805.199 1069.171,1867.426 1086.503 M627.860 1089.927 C 644.814 1098.695,676.915 1130.655,686.583 1148.393 C 692.428 1159.116,693.922 1170.053,693.631 1200.000 C 693.195 1244.850,686.639 1261.174,658.735 1286.896 C 629.397 1313.939,610.728 1321.816,576.000 1321.807 C 540.438 1321.797,516.107 1311.165,488.526 1283.585 C 463.338 1258.397,458.730 1247.070,456.796 1205.596 C 455.398 1175.616,456.477 1166.088,462.916 1151.596 C 476.953 1120.005,508.633 1090.924,536.921 1083.666 C 557.798 1078.309,612.702 1082.089,627.860 1089.927 M1255.408 1091.698 C 1280.480 1104.489,1294.865 1118.883,1306.653 1142.976 C 1316.152 1162.393,1317.714 1170.494,1317.714 1200.355 C 1317.714 1231.060,1316.320 1237.851,1305.786 1258.448 C 1292.287 1284.843,1265.378 1307.895,1238.618 1315.989 C 1215.915 1322.856,1172.784 1322.106,1154.651 1314.530 C 1133.665 1305.761,1093.368 1266.206,1087.427 1248.543 C 1084.736 1240.544,1082.414 1217.800,1082.267 1198.000 C 1082.048 1168.443,1083.543 1159.119,1090.621 1145.902 C 1100.861 1126.782,1134.872 1093.963,1153.064 1085.647 C 1171.551 1077.196,1234.248 1080.903,1255.408 1091.698 M909.751 1507.499 C 893.626 1517.333,837.780 1584.123,826.819 1606.684 C 818.907 1622.969,818.693 1625.309,824.223 1635.161 C 827.536 1641.064,835.022 1647.573,840.857 1649.626 C 849.659 1652.721,853.956 1651.457,866.081 1642.209 C 883.653 1628.807,942.374 1559.082,950.962 1541.422 C 958.758 1525.392,955.141 1510.715,941.908 1504.686 C 928.106 1498.397,924.103 1498.747,909.751 1507.499 M753.835 1689.565 C 749.465 1692.626,738.042 1704.965,728.450 1716.986 L 711.010 1738.841 678.680 1725.206 C 634.860 1706.726,595.792 1701.530,544.507 1707.361 C 480.924 1714.591,448.140 1730.451,400.554 1777.002 C 374.473 1802.516,359.348 1823.948,343.457 1857.906 C 336.832 1872.064,328.393 1884.486,324.705 1885.511 C 321.017 1886.535,301.800 1888.597,282.000 1890.093 C 262.200 1891.589,240.189 1895.221,233.088 1898.166 C 194.283 1914.253,194.303 1982.423,233.119 2001.386 C 241.907 2005.680,265.780 2010.592,290.130 2013.117 L 332.022 2017.462 347.772 2049.731 C 382.616 2121.120,450.690 2177.509,519.962 2192.366 C 554.556 2199.785,628.371 2195.009,660.060 2183.302 C 725.928 2158.969,794.408 2089.541,812.255 2029.000 L 817.266 2012.000 879.633 2012.055 C 913.935 2012.085,945.937 2013.165,950.748 2014.455 C 955.797 2015.809,961.313 2022.013,963.793 2029.125 C 966.155 2035.903,976.316 2055.482,986.373 2072.635 C 1019.367 2128.916,1085.392 2180.295,1139.197 2191.562 C 1175.659 2199.196,1244.569 2197.225,1273.126 2187.729 C 1334.256 2167.404,1389.780 2118.941,1425.685 2054.572 C 1438.488 2031.620,1448.718 2018.008,1454.946 2015.640 C 1460.212 2013.638,1491.159 2012.000,1523.717 2012.000 L 1582.913 2012.000 1589.968 2031.000 C 1602.795 2065.545,1621.325 2093.644,1649.976 2122.000 C 1682.520 2154.207,1711.243 2172.365,1752.149 2186.591 C 1791.498 2200.275,1857.519 2200.924,1896.213 2188.007 C 1966.027 2164.701,2033.864 2103.192,2056.495 2042.676 C 2061.310 2029.802,2067.218 2018.604,2069.624 2017.790 C 2072.031 2016.976,2091.655 2014.421,2113.233 2012.112 C 2161.352 2006.962,2176.214 2001.070,2187.615 1982.623 C 2201.165 1960.699,2202.118 1944.888,2191.129 1924.310 C 2177.861 1899.463,2162.731 1892.743,2112.664 1889.462 L 2071.509 1886.765 2061.237 1866.383 C 2042.717 1829.633,2017.816 1794.394,1993.863 1771.039 C 1964.158 1742.074,1910.688 1714.659,1867.169 1706.079 C 1827.001 1698.159,1815.624 1698.401,1777.640 1707.977 C 1694.843 1728.850,1633.866 1776.967,1598.381 1849.431 L 1579.494 1888.000 1514.027 1888.000 L 1448.560 1888.000 1431.699 1856.356 C 1407.813 1811.526,1380.575 1776.761,1353.415 1756.437 C 1292.234 1710.657,1223.143 1695.115,1146.229 1709.831 C 1076.417 1723.188,1005.390 1781.674,967.503 1857.000 L 951.911 1888.000 886.076 1888.000 L 820.242 1888.000 806.288 1857.798 C 798.613 1841.187,785.813 1816.862,777.844 1803.743 L 763.353 1779.889 779.097 1754.944 C 804.418 1714.827,805.437 1701.085,783.915 1689.956 C 769.619 1682.563,763.937 1682.489,753.835 1689.565 M616.088 1836.176 C 646.311 1843.987,680.637 1878.962,691.856 1913.377 C 697.838 1931.727,694.211 1982.704,685.408 2004.000 C 677.940 2022.067,650.412 2050.369,630.000 2060.967 C 617.433 2067.492,606.275 2069.332,578.000 2069.540 C 533.182 2069.871,517.013 2064.392,492.788 2040.664 C 463.527 2012.004,458.161 1997.680,458.074 1948.000 C 458.009 1911.362,459.145 1904.158,466.972 1891.574 C 484.836 1862.848,515.374 1838.995,543.029 1832.166 C 558.868 1828.255,592.600 1830.107,616.088 1836.176 M1868.627 1836.270 C 1885.574 1840.716,1919.415 1869.678,1932.781 1891.174 C 1940.880 1904.198,1942.000 1911.105,1942.000 1948.000 C 1942.000 1995.885,1937.334 2009.418,1911.721 2035.810 C 1890.080 2058.110,1866.949 2068.843,1835.700 2071.087 C 1795.741 2073.955,1769.179 2064.744,1742.924 2038.915 C 1712.782 2009.261,1708.000 1996.952,1708.000 1949.025 C 1708.000 1901.654,1715.242 1884.017,1745.075 1858.731 C 1779.142 1829.856,1817.560 1822.872,1868.627 1836.270 M1245.620 1836.382 C 1255.536 1839.135,1268.868 1848.346,1282.128 1861.606 C 1314.192 1893.671,1317.966 1903.053,1317.680 1950.000 C 1317.385 1998.546,1312.025 2011.863,1281.578 2039.690 C 1246.855 2071.425,1202.218 2081.172,1160.275 2066.179 C 1137.293 2057.964,1119.447 2044.126,1099.829 2019.307 L 1084.000 1999.282 1084.000 1950.531 C 1084.000 1897.235,1084.536 1895.603,1111.597 1866.522 C 1134.117 1842.321,1159.790 1832.081,1198.000 1832.061 C 1215.600 1832.052,1237.029 1833.996,1245.620 1836.382 " fill="#1D1E23" stroke="none" fill-rule="evenodd"/></svg>