<svg viewBox="0 0 2400 2400" fill="none" xmlns="http://www.w3.org/2000/svg"><path d="M1628.921 207.920 C 1601.553 214.410,1570.570 243.298,1557.547 274.467 C 1551.986 287.778,1552.154 291.047,1559.657 315.466 C 1564.141 330.059,1582.420 375.300,1600.276 416.000 C 1707.954 661.435,1737.393 748.271,1761.793 892.435 C 1777.620 985.949,1780.985 1054.519,1778.881 1240.643 C 1776.815 1423.427,1774.505 1450.483,1751.844 1557.391 C 1725.081 1683.646,1693.377 1771.804,1596.987 1988.000 C 1547.036 2100.037,1545.634 2117.998,1583.518 2160.665 C 1592.633 2170.931,1607.838 2183.081,1617.308 2187.665 C 1638.338 2197.846,1674.914 2198.789,1694.178 2189.648 C 1732.241 2171.585,1784.089 2088.089,1843.470 1949.225 C 1904.060 1807.534,1946.116 1663.674,1988.246 1454.000 C 1996.896 1410.948,1997.032 1405.647,1994.580 1208.000 C 1991.855 988.338,1989.692 956.071,1971.660 866.081 C 1940.216 709.155,1896.751 569.846,1833.106 422.000 C 1791.449 325.231,1748.054 250.924,1717.567 224.156 C 1696.653 205.793,1663.498 199.721,1628.921 207.920 M1235.366 407.900 C 1206.059 416.753,1170.913 452.434,1165.668 478.659 C 1161.918 497.411,1171.753 525.929,1224.050 647.953 C 1293.407 809.779,1314.912 876.159,1332.646 983.157 C 1339.723 1025.857,1341.368 1056.454,1342.914 1174.198 C 1344.854 1321.877,1342.270 1367.802,1327.961 1440.000 C 1308.716 1537.108,1284.708 1606.846,1217.508 1760.842 C 1194.746 1813.004,1173.104 1866.537,1169.416 1879.802 C 1159.921 1913.955,1165.435 1930.180,1197.388 1962.113 C 1228.011 1992.717,1253.615 2003.105,1280.549 1995.852 C 1344.307 1978.684,1405.666 1885.919,1467.453 1713.283 C 1507.510 1601.363,1536.922 1484.667,1550.003 1385.760 C 1567.882 1250.577,1560.023 1037.762,1532.139 902.000 C 1500.247 746.726,1394.732 491.110,1339.491 435.301 C 1313.176 408.715,1270.150 397.392,1235.366 407.900 M841.429 608.125 C 824.414 613.379,789.451 645.475,779.503 664.973 C 772.226 679.239,771.896 682.931,776.253 701.424 C 778.920 712.741,799.553 767.900,822.106 824.000 C 880.036 968.103,893.166 1011.919,904.209 1098.000 C 910.096 1143.884,910.155 1243.393,904.323 1290.000 C 891.220 1394.721,876.758 1442.050,802.049 1624.695 C 772.564 1696.779,771.663 1699.946,776.267 1715.312 C 782.574 1736.365,805.927 1766.756,827.391 1781.846 C 843.455 1793.139,847.157 1794.000,879.638 1794.000 C 911.975 1794.000,915.727 1793.138,929.684 1782.502 C 986.460 1739.235,1072.878 1549.867,1104.138 1400.220 C 1124.334 1303.543,1123.459 1090.653,1102.469 994.000 C 1073.786 861.921,1014.581 717.781,961.568 650.960 C 936.644 619.545,914.746 607.253,880.701 605.566 C 866.015 604.839,848.343 605.990,841.429 608.125 M473.541 794.272 C 451.697 802.280,425.768 824.957,415.046 845.430 C 408.823 857.313,406.316 869.355,406.184 888.000 C 406.009 912.756,407.861 917.923,444.895 996.000 C 481.988 1074.200,484.004 1079.831,488.400 1117.519 C 494.630 1170.921,491.056 1278.819,482.090 1308.000 C 478.373 1320.100,461.155 1361.761,443.829 1400.579 C 405.131 1487.280,401.221 1501.272,407.655 1530.022 C 416.590 1569.945,462.597 1607.865,502.215 1607.961 C 568.262 1608.120,653.913 1492.504,689.653 1354.946 C 709.982 1276.705,713.048 1146.079,696.306 1071.482 C 671.003 958.737,601.198 831.340,549.226 803.053 C 524.601 789.651,495.391 786.261,473.541 794.272 " fill="#1D1E23" stroke="none" fill-rule="evenodd"/></svg>