<svg viewBox="0 0 2400 2400" fill="none" xmlns="http://www.w3.org/2000/svg"><path d="M1624.679 207.970 C 1597.873 214.311,1557.810 257.745,1553.336 285.316 C 1550.803 300.925,1568.793 348.064,1623.056 468.000 C 1716.269 674.027,1754.930 804.933,1774.793 981.782 C 1782.911 1054.060,1783.958 1324.147,1776.421 1402.000 C 1758.786 1584.165,1711.780 1739.865,1604.719 1970.729 C 1546.438 2096.406,1544.043 2116.938,1582.649 2159.877 C 1607.715 2187.756,1627.660 2197.697,1658.241 2197.552 C 1707.335 2197.319,1736.503 2166.795,1793.503 2056.000 C 1876.098 1895.456,1933.560 1722.905,1978.444 1500.648 L 1996.749 1410.000 1994.543 1202.000 C 1992.156 977.059,1990.472 954.704,1967.641 844.921 C 1941.280 718.160,1907.162 604.679,1859.228 484.330 C 1792.278 316.238,1734.008 220.048,1691.799 207.942 C 1675.929 203.391,1643.981 203.404,1624.679 207.970 M1225.738 411.562 C 1192.705 426.566,1164.000 462.366,1164.000 488.562 C 1164.000 504.376,1180.064 547.303,1219.923 638.000 C 1301.857 824.437,1322.803 894.577,1340.564 1042.000 C 1348.812 1110.458,1347.623 1321.563,1338.660 1380.000 C 1318.113 1513.963,1290.378 1599.961,1210.715 1776.712 C 1172.963 1860.472,1161.940 1893.764,1165.563 1913.077 C 1171.868 1946.688,1211.626 1986.206,1249.357 1996.365 C 1298.851 2009.693,1357.353 1957.544,1409.067 1854.000 C 1449.006 1774.032,1494.134 1647.076,1519.972 1542.000 C 1553.717 1404.768,1562.358 1315.935,1558.101 1150.000 C 1554.492 1009.281,1540.715 916.821,1505.704 798.342 C 1467.658 669.596,1380.913 477.218,1342.609 436.643 C 1313.153 405.440,1262.942 394.664,1225.738 411.562 M834.000 610.741 C 807.028 625.173,779.197 655.868,773.881 677.049 C 770.019 692.436,782.547 730.555,822.498 824.976 C 882.171 966.009,899.395 1028.145,908.156 1134.000 C 913.042 1193.026,911.245 1242.456,901.687 1312.000 C 889.502 1400.658,869.147 1465.752,811.002 1602.000 C 792.225 1646.000,775.656 1687.707,774.183 1694.682 C 768.284 1722.608,805.801 1775.133,842.640 1790.525 C 859.742 1797.671,894.568 1798.413,913.867 1792.044 C 945.838 1781.493,990.207 1716.104,1033.872 1615.190 C 1074.589 1521.089,1097.547 1445.872,1110.542 1364.000 C 1120.992 1298.163,1121.162 1106.290,1110.830 1040.000 C 1095.965 944.624,1064.451 842.854,1022.111 753.491 C 984.689 674.507,949.162 626.092,918.000 611.611 C 897.403 602.039,851.158 601.560,834.000 610.741 M479.974 791.737 C 434.553 805.554,402.667 847.770,403.295 893.261 C 403.464 905.528,413.087 929.332,441.522 987.827 C 462.423 1030.822,480.596 1069.876,481.908 1074.613 C 488.925 1099.951,492.058 1136.666,492.154 1194.667 C 492.320 1295.712,491.116 1300.291,429.959 1431.228 C 404.854 1484.978,400.286 1506.449,408.053 1534.191 C 422.569 1586.036,479.013 1619.295,526.449 1603.955 C 594.648 1581.901,674.350 1449.181,698.172 1318.000 C 701.768 1298.200,705.672 1252.300,706.848 1216.000 C 709.435 1136.150,702.393 1080.163,681.776 1016.652 C 653.523 929.621,596.784 834.263,556.740 806.513 C 533.086 790.121,503.812 784.486,479.974 791.737 " fill="#1D1E23" stroke="none" fill-rule="evenodd"/></svg>