<svg viewBox="0 0 2400 2400" fill="none" xmlns="http://www.w3.org/2000/svg"><path d="M1620.428 205.773 C 1598.108 213.040,1573.739 236.316,1561.561 262.000 C 1544.555 297.867,1545.128 299.941,1609.108 434.000 C 1711.743 649.055,1759.334 809.341,1780.723 1012.000 C 1788.932 1089.779,1787.589 1326.216,1778.508 1402.000 C 1753.559 1610.206,1706.522 1764.235,1602.610 1978.000 C 1557.976 2069.821,1554.020 2079.799,1554.249 2100.000 C 1554.411 2114.270,1557.504 2127.780,1563.050 2138.450 C 1574.556 2160.584,1607.318 2189.331,1628.151 2195.573 C 1649.432 2201.949,1689.365 2197.990,1706.000 2187.855 C 1729.928 2173.278,1769.910 2110.501,1812.908 2020.000 C 1902.227 1832.001,1954.895 1656.998,1988.664 1436.000 C 1996.613 1383.977,1997.551 1362.131,1997.763 1224.000 C 1998.019 1057.448,1994.051 993.111,1977.535 896.000 C 1943.810 697.718,1882.159 510.198,1793.159 335.197 C 1754.082 258.361,1731.010 224.920,1708.512 212.509 C 1686.764 200.512,1646.132 197.405,1620.428 205.773 M1235.282 405.580 C 1210.076 412.367,1190.312 428.254,1175.975 453.251 C 1154.550 490.608,1158.501 507.156,1219.324 634.820 C 1239.024 676.169,1263.393 730.983,1273.478 756.628 C 1321.194 877.965,1346.815 1014.963,1350.888 1170.537 C 1354.000 1289.434,1345.616 1373.390,1319.584 1484.000 C 1295.793 1585.089,1269.980 1654.569,1208.870 1782.000 C 1159.033 1885.922,1155.664 1900.881,1173.764 1937.877 C 1199.706 1990.899,1259.001 2013.241,1307.367 1988.217 C 1324.422 1979.393,1353.605 1949.861,1371.214 1923.606 C 1418.280 1853.430,1485.342 1685.682,1517.703 1557.181 C 1549.491 1430.950,1561.764 1330.904,1561.764 1198.000 C 1561.764 1041.441,1541.822 908.606,1496.310 762.000 C 1469.637 676.079,1394.282 509.129,1355.695 450.464 C 1326.451 406.003,1287.556 391.505,1235.282 405.580 M833.982 607.453 C 811.682 617.583,777.052 656.350,773.502 675.156 C 769.215 697.871,780.114 732.143,815.398 806.899 C 879.316 942.322,904.562 1031.946,911.397 1147.691 C 919.786 1289.741,892.604 1425.273,827.694 1565.038 C 767.999 1693.576,766.844 1697.344,778.094 1726.802 C 786.733 1749.424,812.003 1777.799,833.094 1788.558 C 853.746 1799.094,883.726 1802.236,905.481 1796.145 C 943.034 1785.631,967.200 1754.923,1015.729 1656.057 C 1083.282 1518.431,1111.230 1414.142,1119.990 1267.005 C 1129.605 1105.521,1107.049 957.449,1051.904 820.038 C 999.025 688.272,951.002 615.877,908.677 604.121 C 885.967 597.814,851.850 599.335,833.982 607.453 M466.000 795.259 C 428.306 812.938,404.588 845.038,401.171 882.998 C 399.245 904.396,400.348 908.371,416.984 940.000 C 426.819 958.700,442.939 987.860,452.805 1004.801 C 485.905 1061.634,495.791 1106.043,495.921 1198.476 C 496.062 1298.912,487.694 1327.310,424.162 1442.000 C 413.194 1461.800,403.026 1485.917,401.567 1495.594 C 394.982 1539.256,431.379 1592.794,476.482 1605.789 C 531.545 1621.654,579.693 1589.260,631.498 1501.495 C 683.360 1413.632,709.444 1312.741,709.444 1200.000 C 709.444 1129.392,703.854 1087.997,685.997 1026.377 C 659.520 935.009,600.048 832.526,555.650 801.757 C 533.689 786.538,491.166 783.456,466.000 795.259 " fill="#1D1E23" stroke="none" fill-rule="evenodd"/></svg>