<svg viewBox="0 0 2400 2400" fill="none" xmlns="http://www.w3.org/2000/svg"><path d="M1630.763 203.754 C 1598.462 210.249,1559.722 250.109,1553.499 283.251 C 1549.819 302.848,1558.582 327.229,1604.196 424.309 C 1711.217 652.079,1755.042 795.737,1777.985 993.975 C 1785.169 1056.048,1786.291 1306.851,1779.721 1382.000 C 1763.456 1568.057,1711.904 1745.975,1615.143 1950.000 C 1595.319 1991.800,1573.601 2038.600,1566.882 2054.000 C 1551.698 2088.797,1551.099 2112.576,1564.736 2139.075 C 1576.487 2161.911,1609.899 2190.049,1632.485 2196.131 C 1651.022 2201.122,1684.225 2198.018,1700.301 2189.790 C 1724.633 2177.336,1755.041 2134.176,1795.970 2054.000 C 1872.338 1904.403,1932.345 1729.203,1967.907 1552.000 C 1995.867 1412.678,1997.259 1396.691,1997.166 1216.000 C 1997.064 1020.741,1992.574 966.531,1965.361 832.000 C 1935.483 684.299,1886.766 536.052,1821.679 394.775 C 1767.403 276.964,1728.213 217.626,1698.628 208.464 C 1679.458 202.528,1647.791 200.330,1630.763 203.754 M1239.802 405.215 C 1205.069 415.027,1180.229 437.252,1168.224 469.260 C 1158.223 495.922,1166.429 521.770,1224.963 648.000 C 1266.264 737.067,1284.863 784.119,1303.225 846.000 C 1350.745 1006.136,1364.276 1236.416,1335.853 1401.274 C 1313.047 1533.553,1287.072 1612.773,1216.925 1763.982 C 1162.159 1882.037,1157.279 1899.029,1169.668 1928.512 C 1184.730 1964.353,1217.323 1991.360,1253.214 1997.739 C 1289.822 2004.245,1330.580 1979.845,1365.987 1930.227 C 1401.336 1880.690,1450.173 1771.111,1488.204 1656.000 C 1532.590 1521.652,1553.369 1410.175,1559.516 1273.414 C 1570.035 1039.393,1534.988 839.449,1447.630 635.104 C 1415.731 560.485,1367.863 466.210,1349.991 442.804 C 1323.139 407.636,1281.507 393.434,1239.802 405.215 M842.987 604.576 C 823.625 610.025,792.021 638.516,779.814 661.527 C 764.992 689.466,769.712 705.980,833.109 848.000 C 890.126 975.729,912.050 1072.713,911.967 1196.842 C 911.891 1310.334,886.524 1429.842,839.975 1536.000 C 831.775 1554.700,814.068 1594.622,800.626 1624.716 C 787.183 1654.810,775.052 1686.518,773.667 1695.178 C 768.029 1730.440,807.781 1781.899,850.181 1794.225 C 892.060 1806.399,928.323 1794.537,955.908 1759.640 C 1000.909 1702.709,1068.114 1550.968,1093.793 1448.313 C 1134.955 1283.756,1130.306 1068.997,1082.100 908.268 C 1038.993 764.537,969.545 635.235,922.586 611.279 C 903.573 601.579,865.137 598.342,842.987 604.576 M470.978 793.712 C 430.674 808.094,402.290 847.776,402.105 890.000 C 402.008 912.288,403.974 917.567,429.663 963.991 C 481.911 1058.412,485.424 1067.812,492.441 1132.000 C 497.971 1182.574,494.760 1272.354,486.218 1306.000 C 482.868 1319.200,462.548 1365.100,441.063 1408.000 C 405.432 1479.146,402.022 1487.933,402.249 1508.000 C 402.659 1544.073,428.183 1583.630,461.439 1599.728 C 485.052 1611.159,519.386 1610.865,543.086 1599.029 C 580.371 1580.408,632.344 1510.879,662.595 1439.152 C 697.902 1355.434,709.662 1285.844,707.015 1176.276 C 705.291 1104.923,704.036 1093.932,692.829 1052.000 C 678.479 998.313,658.014 945.974,635.167 904.530 C 613.705 865.599,575.914 816.254,558.859 804.891 C 532.999 787.662,499.775 783.435,470.978 793.712 " fill="#1D1E23" stroke="none" fill-rule="evenodd"/></svg>