<svg viewBox="0 0 2400 2400" fill="none" xmlns="http://www.w3.org/2000/svg"><path d="M1282.000 404.631 C 1157.009 423.717,482.095 577.878,215.000 648.351 L 200.000 652.308 200.000 1030.073 L 200.000 1407.837 215.000 1415.438 C 271.326 1443.978,405.328 1495.721,480.813 1518.079 L 527.815 1532.000 1011.497 1532.000 L 1495.178 1532.000 1524.504 1517.000 C 1609.084 1473.738,1652.251 1384.073,1629.868 1298.140 C 1612.766 1232.478,1557.216 1177.671,1493.573 1163.665 C 1481.330 1160.971,1377.007 1158.558,1215.000 1157.221 C 1000.092 1155.448,956.000 1154.156,956.000 1149.633 C 956.000 1144.134,1033.701 988.699,1039.198 983.202 C 1040.827 981.573,1077.223 1005.375,1120.080 1036.095 L 1198.000 1091.950 1355.372 1091.975 L 1512.745 1092.000 1495.372 1071.133 C 1485.818 1059.656,1435.031 999.806,1382.513 938.133 C 1277.188 814.447,1253.673 784.993,1257.330 781.336 C 1258.679 779.988,1266.581 784.053,1274.891 790.370 C 1292.890 804.052,1450.516 935.166,1559.029 1026.717 L 1636.408 1092.000 1824.901 1092.000 L 2013.395 1092.000 2005.380 1083.000 C 2000.972 1078.050,1968.709 1039.800,1933.685 998.000 C 1709.965 731.000,1477.001 488.464,1392.000 434.059 C 1361.032 414.238,1328.066 399.815,1315.258 400.483 C 1310.166 400.749,1295.200 402.615,1282.000 404.631 M1629.730 1172.228 C 1649.504 1194.116,1671.693 1229.269,1682.606 1256.000 L 1691.588 1278.000 1883.794 1279.038 L 2076.000 1280.077 2076.000 1470.038 L 2076.000 1660.000 1498.000 1660.000 L 920.000 1660.000 920.000 1628.000 L 920.000 1596.000 856.000 1596.000 L 792.000 1596.000 792.000 1799.235 L 792.000 2002.471 806.282 2026.235 C 824.947 2057.295,833.222 2066.017,861.620 2084.569 L 885.240 2100.000 1495.620 2099.962 L 2106.000 2099.925 2126.000 2088.450 C 2149.700 2074.853,2179.931 2043.658,2191.629 2020.727 C 2199.948 2004.420,2200.000 2001.986,2200.000 1628.000 C 2200.000 1254.014,2199.948 1251.580,2191.629 1235.273 C 2180.332 1213.128,2149.801 1181.135,2130.098 1170.793 C 2115.190 1162.968,2105.274 1162.135,1996.000 1159.529 C 1931.100 1157.981,1818.841 1156.554,1746.535 1156.357 L 1615.069 1156.000 1629.730 1172.228 M1502.960 1233.473 C 1523.596 1243.930,1551.230 1271.173,1561.661 1291.344 C 1566.218 1300.156,1568.000 1314.950,1568.000 1343.961 C 1568.000 1390.211,1563.191 1403.504,1536.512 1430.994 C 1510.408 1457.893,1491.590 1465.764,1453.087 1465.891 C 1421.184 1465.997,1419.772 1465.598,1407.087 1452.917 L 1394.000 1439.834 1394.000 1346.736 C 1394.000 1243.187,1395.299 1237.420,1421.302 1225.576 C 1439.386 1217.339,1478.606 1221.132,1502.960 1233.473 M2076.000 1931.500 C 2076.000 1942.225,2074.875 1956.625,2073.500 1963.500 L 2071.000 1976.000 1495.500 1976.000 L 920.000 1976.000 920.000 1944.000 L 920.000 1912.000 1498.000 1912.000 L 2076.000 1912.000 2076.000 1931.500 " fill="#1D1E23" stroke="none" fill-rule="evenodd"/></svg>