<svg viewBox="0 0 2400 2400" fill="none" xmlns="http://www.w3.org/2000/svg"><path d="M1268.000 406.417 C 1169.074 422.720,958.800 468.381,706.000 528.455 C 564.793 562.010,251.094 638.550,215.578 648.114 L 200.000 652.308 200.000 1030.337 L 200.000 1408.366 235.000 1424.526 C 337.952 1472.059,452.713 1513.752,514.000 1525.886 C 542.311 1531.492,600.646 1532.094,1020.000 1531.111 L 1494.000 1530.000 1517.057 1520.691 C 1564.417 1501.571,1606.398 1459.403,1624.310 1412.962 C 1636.734 1380.749,1639.274 1327.710,1630.030 1293.557 C 1612.570 1229.055,1554.825 1174.666,1488.803 1160.536 C 1474.245 1157.421,1386.867 1156.000,1209.803 1156.000 C 1068.011 1156.000,952.000 1155.111,952.000 1154.024 C 952.000 1149.144,1038.220 980.000,1040.707 980.000 C 1042.243 980.000,1078.263 1005.150,1120.750 1035.888 L 1198.000 1091.777 1355.486 1091.888 L 1512.972 1092.000 1495.325 1071.000 C 1412.624 972.587,1340.328 887.644,1299.980 841.482 C 1269.843 807.003,1253.320 785.080,1255.687 782.713 C 1257.763 780.637,1261.833 779.956,1264.731 781.200 C 1267.629 782.444,1352.508 852.883,1453.352 937.731 L 1636.704 1092.000 1825.049 1092.000 L 2013.395 1092.000 2005.362 1083.000 C 2000.945 1078.050,1978.639 1051.500,1955.794 1024.000 C 1808.570 846.775,1679.164 702.748,1560.214 583.725 C 1454.082 477.527,1405.529 435.851,1362.463 413.983 C 1331.587 398.305,1321.924 397.531,1268.000 406.417 M1631.627 1172.881 C 1652.269 1193.941,1674.186 1229.156,1684.003 1257.033 L 1691.386 1278.000 1883.693 1279.038 L 2076.000 1280.077 2076.000 1470.038 L 2076.000 1660.000 1498.000 1660.000 L 920.000 1660.000 920.000 1628.000 L 920.000 1596.000 855.828 1596.000 L 791.656 1596.000 792.828 1799.000 L 794.000 2002.000 804.592 2024.592 C 817.496 2052.116,840.020 2075.370,866.308 2088.308 L 886.000 2098.000 1496.000 2098.000 L 2106.000 2098.000 2124.490 2089.451 C 2151.029 2077.179,2174.076 2054.716,2186.881 2028.642 L 2198.000 2006.000 2198.000 1628.000 L 2198.000 1250.000 2186.881 1227.358 C 2174.076 1201.284,2151.029 1178.821,2124.490 1166.549 C 2106.329 1158.152,2101.627 1157.980,1860.424 1156.881 L 1614.849 1155.763 1631.627 1172.881 M1502.000 1231.379 C 1548.140 1253.242,1573.376 1293.060,1573.376 1344.000 C 1573.376 1380.893,1564.260 1403.512,1538.138 1431.439 C 1514.807 1456.381,1486.497 1469.194,1454.000 1469.517 C 1424.807 1469.808,1409.118 1462.633,1398.202 1444.000 C 1390.638 1431.088,1390.000 1423.470,1390.000 1346.000 C 1390.000 1252.693,1392.438 1240.496,1413.681 1227.542 C 1433.352 1215.547,1472.145 1217.232,1502.000 1231.379 M2075.168 1943.000 L 2074.000 1974.000 1497.000 1975.014 L 920.000 1976.027 920.000 1944.014 L 920.000 1912.000 1498.168 1912.000 L 2076.337 1912.000 2075.168 1943.000 " fill="#1D1E23" stroke="none" fill-rule="evenodd"/></svg>