<svg viewBox="0 0 2400 2400" fill="none" xmlns="http://www.w3.org/2000/svg"><path d="M1264.000 407.887 C 1093.413 438.730,454.136 585.272,215.000 648.352 L 200.000 652.308 200.000 1030.097 L 200.000 1407.885 223.000 1419.462 C 262.155 1439.170,383.054 1486.049,455.391 1509.571 L 524.363 1532.000 1010.314 1532.000 L 1496.266 1532.000 1515.175 1522.418 C 1619.684 1469.460,1662.266 1361.718,1617.045 1264.668 C 1601.800 1231.950,1564.544 1194.683,1530.028 1177.624 L 1501.002 1163.278 1429.501 1161.344 C 1390.175 1160.280,1268.544 1158.137,1159.210 1156.581 C 1049.875 1155.025,959.264 1152.597,957.852 1151.185 C 955.814 1149.147,1032.280 990.387,1038.106 984.561 C 1040.833 981.834,1072.644 1002.338,1135.991 1047.654 L 1197.981 1092.000 1355.476 1092.000 L 1512.972 1092.000 1495.173 1071.000 C 1295.668 835.614,1273.807 809.340,1261.708 790.404 L 1254.299 778.808 1264.150 784.046 C 1275.677 790.176,1360.173 859.559,1521.099 995.039 L 1636.364 1092.078 1823.859 1091.039 L 2011.354 1090.000 1935.371 1000.000 C 1775.895 811.106,1652.711 676.491,1523.584 550.000 C 1439.009 467.152,1404.844 439.198,1362.000 417.790 C 1326.018 399.811,1314.888 398.686,1264.000 407.887 M1636.269 1181.000 C 1647.400 1194.750,1664.803 1222.650,1674.943 1243.000 L 1693.380 1280.000 1884.690 1280.000 L 2076.000 1280.000 2076.000 1470.000 L 2076.000 1660.000 1498.000 1660.000 L 920.000 1660.000 920.000 1628.000 L 920.000 1596.000 856.000 1596.000 L 792.000 1596.000 792.000 1800.300 L 792.000 2004.599 809.871 2032.226 C 822.431 2051.641,835.806 2065.800,854.871 2079.866 L 882.000 2099.879 1493.159 2099.940 L 2104.319 2100.000 2120.979 2091.501 C 2140.781 2081.398,2179.812 2043.401,2190.445 2023.875 C 2197.702 2010.547,2198.000 1994.943,2198.000 1628.000 C 2198.000 1198.512,2201.080 1239.863,2166.197 1201.063 C 2132.706 1163.814,2132.362 1163.741,1972.946 1159.796 C 1896.526 1157.905,1784.957 1156.278,1725.016 1156.179 L 1616.032 1156.000 1636.269 1181.000 M1488.751 1228.409 C 1507.621 1233.226,1538.593 1257.706,1554.000 1279.983 C 1565.644 1296.818,1566.000 1298.707,1566.000 1343.666 C 1566.000 1396.878,1562.694 1405.160,1528.806 1436.859 C 1505.434 1458.721,1486.993 1465.419,1449.266 1465.749 C 1422.665 1465.981,1419.608 1465.115,1408.076 1454.070 L 1395.620 1442.140 1396.810 1343.174 C 1397.950 1248.353,1398.357 1243.851,1406.518 1235.697 C 1421.617 1220.610,1448.769 1218.204,1488.751 1228.409 M2076.000 1931.500 C 2076.000 1942.225,2074.875 1956.625,2073.500 1963.500 L 2071.000 1976.000 1495.500 1976.000 L 920.000 1976.000 920.000 1944.000 L 920.000 1912.000 1498.000 1912.000 L 2076.000 1912.000 2076.000 1931.500 " fill="#1D1E23" stroke="none" fill-rule="evenodd"/></svg>