<svg viewBox="0 0 2400 2400" fill="none" xmlns="http://www.w3.org/2000/svg"><path d="M1246.000 410.465 C 1091.646 437.651,476.455 579.604,214.980 648.369 L 199.959 652.319 200.980 1031.160 L 202.000 1410.000 262.000 1436.569 C 335.626 1469.172,418.507 1500.171,477.537 1517.185 L 522.000 1530.000 1010.081 1530.000 L 1498.161 1530.000 1524.741 1516.917 C 1594.908 1482.378,1636.222 1417.075,1635.902 1341.210 C 1635.611 1272.014,1594.279 1207.346,1530.175 1175.788 C 1493.639 1157.801,1471.968 1156.565,1187.667 1156.253 C 1060.983 1156.114,956.225 1154.892,954.870 1153.537 C 952.404 1151.071,989.160 1074.978,1022.730 1013.052 L 1040.591 980.104 1065.295 996.880 C 1078.882 1006.106,1114.269 1031.283,1143.932 1052.828 L 1197.865 1092.000 1355.210 1092.000 L 1512.554 1092.000 1487.277 1061.437 C 1473.375 1044.627,1422.581 984.777,1374.401 928.437 C 1254.902 788.696,1248.188 780.000,1259.799 780.000 C 1264.293 780.000,1331.008 834.774,1507.262 983.169 L 1636.525 1092.000 1824.609 1092.000 L 2012.692 1092.000 1991.947 1067.000 C 1760.483 788.069,1548.573 560.251,1424.312 456.753 C 1387.765 426.314,1337.283 399.871,1316.537 400.301 C 1308.542 400.467,1276.800 405.041,1246.000 410.465 M1634.825 1177.476 C 1653.812 1198.250,1683.140 1248.981,1688.902 1271.018 L 1691.251 1280.000 1883.626 1280.000 L 2076.000 1280.000 2076.000 1470.000 L 2076.000 1660.000 1498.000 1660.000 L 920.000 1660.000 920.000 1628.000 L 920.000 1596.000 856.000 1596.000 L 792.000 1596.000 792.039 1797.000 L 792.078 1998.000 801.832 2018.950 C 814.664 2046.512,843.823 2077.203,869.184 2089.841 L 889.571 2100.000 1495.785 2099.961 L 2102.000 2099.922 2122.853 2090.213 C 2149.292 2077.904,2175.301 2051.994,2189.182 2024.138 L 2200.000 2002.429 2200.000 1628.000 L 2200.000 1253.571 2189.182 1231.862 C 2175.783 1204.974,2151.710 1180.446,2126.960 1168.465 C 2108.157 1159.362,2107.761 1159.345,1861.082 1157.039 L 1614.035 1154.728 1634.825 1177.476 M1486.274 1225.937 C 1513.942 1234.265,1542.834 1257.783,1557.605 1284.000 C 1569.051 1304.316,1570.000 1308.908,1570.000 1344.000 C 1570.000 1389.438,1564.202 1404.024,1534.108 1434.295 C 1510.286 1458.257,1485.790 1468.065,1450.287 1467.858 C 1422.666 1467.697,1410.854 1462.522,1399.785 1445.730 C 1392.740 1435.042,1392.050 1426.258,1392.026 1346.872 C 1392.007 1282.079,1393.405 1256.379,1397.482 1246.622 C 1407.777 1221.982,1444.620 1213.400,1486.274 1225.937 M2076.000 1931.500 C 2076.000 1942.225,2074.875 1956.625,2073.500 1963.500 L 2071.000 1976.000 1495.500 1976.000 L 920.000 1976.000 920.000 1944.000 L 920.000 1912.000 1498.000 1912.000 L 2076.000 1912.000 2076.000 1931.500 " fill="#1D1E23" stroke="none" fill-rule="evenodd"/></svg>