<svg viewBox="0 0 2400 2400" fill="none" xmlns="http://www.w3.org/2000/svg"><path d="M1184.000 423.852 C 932.536 475.912,409.224 597.155,215.000 648.354 L 200.000 652.308 200.000 1030.097 L 200.000 1407.885 223.000 1419.483 C 257.756 1437.010,371.268 1481.084,451.009 1508.013 L 522.000 1531.988 1009.440 1531.994 L 1496.880 1532.000 1521.440 1519.122 C 1535.326 1511.840,1558.567 1493.819,1574.917 1477.656 C 1608.188 1444.765,1624.726 1414.252,1632.323 1371.747 C 1645.682 1296.993,1605.304 1219.852,1531.153 1178.466 L 1504.305 1163.482 1233.994 1158.249 C 1085.323 1155.371,962.592 1151.925,961.258 1150.591 C 959.924 1149.258,963.855 1136.879,969.992 1123.083 C 980.789 1098.815,1035.640 987.389,1038.139 984.647 C 1040.476 982.083,1074.173 1003.841,1136.000 1047.835 L 1198.000 1091.952 1355.697 1091.976 L 1513.395 1092.000 1505.346 1083.000 C 1494.345 1070.698,1305.865 846.872,1285.562 822.000 C 1263.320 794.752,1252.179 777.242,1260.000 781.826 C 1277.065 791.828,1353.130 854.012,1523.099 996.912 L 1636.198 1092.000 1822.099 1092.000 C 1924.345 1092.000,2008.000 1090.609,2008.000 1088.909 C 2008.000 1081.823,1800.625 841.300,1700.348 732.080 C 1628.244 653.546,1463.149 489.940,1426.515 460.717 C 1409.199 446.904,1380.888 428.491,1363.604 419.801 C 1321.271 398.516,1304.557 398.893,1184.000 423.852 M1636.155 1182.204 C 1647.063 1196.616,1664.541 1224.484,1674.994 1244.132 L 1694.000 1279.855 1885.000 1279.927 L 2076.000 1280.000 2076.000 1470.000 L 2076.000 1660.000 1498.000 1660.000 L 920.000 1660.000 920.000 1628.000 L 920.000 1596.000 856.000 1596.000 L 792.000 1596.000 792.000 1801.053 L 792.000 2006.107 805.619 2026.330 C 819.895 2047.529,844.504 2072.673,867.777 2089.838 L 881.554 2100.000 1493.994 2100.000 L 2106.434 2100.000 2125.672 2087.800 C 2150.653 2071.957,2183.452 2038.136,2191.261 2020.166 C 2196.581 2007.925,2197.637 1963.612,2199.030 1694.000 C 2200.739 1363.345,2197.683 1246.591,2186.765 1225.479 C 2183.263 1218.707,2170.432 1204.058,2158.251 1192.926 C 2141.140 1177.287,2131.388 1171.674,2115.354 1168.235 C 2092.484 1163.330,1854.796 1156.221,1709.160 1156.086 L 1616.321 1156.000 1636.155 1182.204 M1489.208 1229.776 C 1511.954 1237.889,1535.744 1255.808,1550.578 1276.000 C 1563.768 1293.954,1563.802 1294.121,1563.901 1341.395 C 1564.019 1397.776,1560.539 1407.393,1529.887 1435.407 C 1505.543 1457.656,1483.464 1465.500,1445.180 1465.500 C 1422.821 1465.500,1418.608 1464.185,1407.538 1453.750 L 1395.073 1442.000 1397.138 1346.000 C 1398.273 1293.200,1400.495 1246.796,1402.076 1242.879 C 1409.224 1225.163,1456.390 1218.070,1489.208 1229.776 M2076.000 1931.500 C 2076.000 1942.225,2074.875 1956.625,2073.500 1963.500 L 2071.000 1976.000 1495.500 1976.000 L 920.000 1976.000 920.000 1944.000 L 920.000 1912.000 1498.000 1912.000 L 2076.000 1912.000 2076.000 1931.500 " fill="#1D1E23" stroke="none" fill-rule="evenodd"/></svg>