<svg viewBox="0 0 2400 2400" fill="none" xmlns="http://www.w3.org/2000/svg"><path d="M900.000 104.432 C 775.879 106.117,670.946 109.218,662.000 111.465 C 642.631 116.330,614.408 145.358,607.755 167.258 C 605.200 175.670,602.353 228.538,601.125 290.387 L 598.973 398.774 410.486 401.451 C 306.819 402.924,206.776 405.278,188.168 406.682 C 154.842 409.197,154.045 409.508,134.819 427.492 C 124.084 437.533,112.384 451.205,108.817 457.874 C 102.913 468.916,102.189 544.684,100.726 1305.385 C 99.841 1764.847,100.388 2156.021,101.941 2174.660 C 104.635 2207.006,105.612 2209.666,123.382 2233.044 C 133.622 2246.515,154.584 2267.091,169.963 2278.768 L 197.927 2300.000 1199.346 2300.000 L 2200.765 2300.000 2213.383 2291.302 C 2242.904 2270.952,2268.483 2246.285,2283.710 2223.482 L 2300.000 2199.088 2299.581 1488.544 C 2299.351 1097.745,2298.001 706.615,2296.581 619.366 L 2294.000 460.733 2281.619 445.366 C 2274.810 436.915,2261.725 424.685,2252.542 418.188 L 2235.846 406.376 2018.505 402.482 L 1801.164 398.589 1798.799 290.294 C 1797.412 226.814,1794.498 175.384,1791.756 166.013 C 1785.430 144.389,1758.537 118.069,1736.784 112.211 C 1725.765 109.244,1640.645 106.306,1496.853 103.930 C 1254.888 99.931,1229.978 99.952,900.000 104.432 M1700.000 350.000 L 1700.000 500.000 1200.000 500.000 L 700.000 500.000 700.000 350.000 L 700.000 200.000 1200.000 200.000 L 1700.000 200.000 1700.000 350.000 M825.194 311.613 C 797.535 328.964,794.250 356.617,816.797 382.297 C 826.872 393.771,831.526 395.998,845.414 395.985 C 866.237 395.966,883.802 385.457,893.686 367.102 C 900.256 354.903,900.637 351.195,896.379 340.915 C 883.522 309.876,849.976 296.067,825.194 311.613 M1527.938 311.452 C 1520.272 315.551,1510.606 324.686,1506.457 331.752 C 1500.046 342.671,1499.585 346.842,1503.389 359.539 C 1518.147 408.796,1581.781 409.035,1596.506 359.889 C 1601.987 341.593,1593.772 323.403,1574.806 311.838 C 1558.743 302.044,1545.733 301.937,1527.938 311.452 M600.000 550.000 L 600.000 600.000 1200.000 600.000 L 1800.000 600.000 1800.000 550.000 L 1800.000 500.000 2000.000 500.000 L 2200.000 500.000 2200.000 1350.000 L 2200.000 2200.000 1200.000 2200.000 L 200.000 2200.000 200.000 1350.000 L 200.000 500.000 400.000 500.000 L 600.000 500.000 600.000 550.000 M900.535 915.036 C 893.411 917.566,856.181 975.290,782.000 1098.819 L 722.000 1198.734 586.000 1201.603 C 511.200 1203.181,443.725 1205.785,436.057 1207.388 C 419.634 1210.823,404.000 1230.980,404.000 1248.720 C 404.000 1265.580,413.941 1286.607,424.661 1292.420 C 431.630 1296.200,477.653 1297.931,606.039 1299.242 L 778.078 1301.000 811.772 1245.500 C 851.965 1179.294,887.383 1124.853,892.198 1121.877 C 898.600 1117.921,942.593 1201.935,1163.055 1639.134 L 1302.802 1916.268 1363.957 1779.134 C 1397.592 1703.710,1449.267 1588.654,1478.790 1523.454 L 1532.469 1404.907 1566.518 1402.071 C 1585.246 1400.511,1600.998 1399.857,1601.523 1400.617 C 1602.049 1401.378,1610.134 1415.105,1619.490 1431.122 C 1672.448 1521.777,1756.883 1563.776,1842.160 1541.878 C 1881.982 1531.652,1907.996 1516.617,1938.306 1486.306 C 1989.546 1435.067,2009.798 1371.300,1994.044 1310.813 C 1979.281 1254.135,1939.311 1203.414,1886.862 1174.804 L 1859.725 1160.000 1801.443 1160.000 C 1746.788 1160.000,1741.881 1160.642,1722.581 1170.315 C 1682.486 1190.411,1649.547 1220.992,1621.807 1263.874 C 1611.840 1279.281,1600.275 1293.712,1596.106 1295.943 C 1591.937 1298.175,1575.358 1300.011,1559.263 1300.024 C 1543.168 1300.037,1515.363 1301.188,1497.473 1302.580 L 1464.947 1305.113 1397.697 1455.556 C 1297.704 1679.248,1300.232 1674.126,1294.164 1665.369 C 1291.356 1661.316,1214.781 1512.200,1123.998 1334.000 C 986.266 1063.644,909.895 915.925,906.623 913.548 C 906.280 913.299,903.541 913.969,900.535 915.036 " fill="#1D1E23" stroke="none" fill-rule="evenodd"/></svg>