<svg viewBox="0 0 2400 2400" fill="none" xmlns="http://www.w3.org/2000/svg"><path d="M664.342 106.868 C 640.729 115.209,614.918 141.645,606.625 165.983 C 601.106 182.178,600.000 203.342,600.000 292.713 L 600.000 400.000 392.713 400.000 C 157.984 400.000,160.022 399.768,129.804 429.986 C 97.223 462.567,99.800 381.065,100.964 1342.142 L 102.000 2198.000 113.057 2220.506 C 126.099 2247.053,156.298 2276.697,182.964 2289.127 L 202.000 2298.000 1200.000 2298.000 L 2198.000 2298.000 2220.506 2286.943 C 2247.053 2273.901,2276.697 2243.702,2289.127 2217.036 L 2298.000 2198.000 2299.036 1342.142 C 2300.200 381.065,2302.777 462.567,2270.196 429.986 C 2239.978 399.768,2242.016 400.000,2007.287 400.000 L 1800.000 400.000 1800.000 292.713 C 1800.000 169.204,1797.883 157.672,1770.105 129.895 C 1738.076 97.866,1778.575 99.961,1198.287 100.316 C 741.404 100.595,679.968 101.349,664.342 106.868 M1700.000 350.000 L 1700.000 500.000 1200.000 500.000 L 700.000 500.000 700.000 350.000 L 700.000 200.000 1200.000 200.000 L 1700.000 200.000 1700.000 350.000 M823.650 309.120 C 805.505 321.348,799.301 334.276,801.398 355.487 C 806.053 402.565,867.289 415.599,892.162 374.806 C 902.090 358.524,902.090 341.476,892.162 325.194 C 876.874 300.121,847.299 293.183,823.650 309.120 M1523.650 309.120 C 1505.505 321.348,1499.301 334.276,1501.398 355.487 C 1506.053 402.565,1567.289 415.599,1592.162 374.806 C 1606.803 350.793,1597.722 319.301,1572.376 306.194 C 1555.581 297.510,1539.440 298.479,1523.650 309.120 M600.000 550.000 L 600.000 600.000 1200.000 600.000 L 1800.000 600.000 1800.000 550.000 L 1800.000 500.000 2000.000 500.000 L 2200.000 500.000 2200.000 1350.000 L 2200.000 2200.000 1200.000 2200.000 L 200.000 2200.000 200.000 1350.000 L 200.000 500.000 400.000 500.000 L 600.000 500.000 600.000 550.000 M811.549 1049.878 L 722.000 1199.757 580.000 1199.893 C 446.338 1200.022,437.248 1200.488,425.194 1207.838 C 400.916 1222.641,393.494 1251.280,407.838 1274.806 C 423.301 1300.165,421.978 1300.000,609.265 1300.000 L 778.926 1300.000 836.415 1204.000 C 868.034 1151.200,894.830 1108.000,895.961 1108.000 C 897.093 1108.000,989.042 1290.058,1100.294 1512.574 L 1302.569 1917.148 1417.061 1659.574 L 1531.553 1402.000 1569.777 1400.855 C 1600.441 1399.937,1608.000 1400.819,1608.000 1405.318 C 1608.000 1417.831,1637.099 1467.897,1655.565 1487.158 C 1695.786 1529.107,1742.036 1548.868,1800.000 1548.868 C 1892.789 1548.868,1970.254 1488.520,1993.875 1397.834 C 2020.665 1294.983,1955.014 1184.077,1851.670 1157.601 C 1816.925 1148.700,1758.453 1151.586,1728.359 1163.687 C 1697.542 1176.078,1662.751 1201.695,1644.356 1225.538 C 1628.836 1245.655,1608.116 1285.232,1608.039 1294.908 C 1608.010 1298.557,1589.829 1300.095,1537.131 1300.908 L 1466.262 1302.000 1387.869 1478.973 C 1344.753 1576.309,1306.684 1661.809,1303.272 1668.973 L 1297.067 1682.000 1101.543 1291.000 C 994.005 1075.950,904.912 900.000,903.559 900.000 C 902.205 900.000,860.801 967.445,811.549 1049.878 " fill="#1D1E23" stroke="none" fill-rule="evenodd"/></svg>