<svg viewBox="0 0 2400 2400" fill="none" xmlns="http://www.w3.org/2000/svg"><path d="M804.000 103.811 C 650.595 106.244,653.325 105.768,628.093 134.505 C 603.023 163.059,602.323 167.012,600.762 289.000 L 599.341 400.000 480.670 400.322 C 415.402 400.499,316.810 401.887,261.578 403.408 L 161.156 406.172 144.612 417.120 C 135.513 423.142,123.103 435.568,117.034 444.735 L 106.000 461.401 103.438 651.701 C 102.029 756.365,100.679 1146.722,100.438 1519.159 L 100.000 2196.319 108.500 2212.981 C 120.173 2235.861,157.846 2274.529,182.000 2288.422 L 202.000 2299.925 1200.000 2299.925 L 2198.000 2299.925 2218.000 2288.422 C 2242.154 2274.529,2279.827 2235.861,2291.500 2212.981 L 2300.000 2196.319 2299.547 1525.159 C 2299.298 1156.022,2297.948 765.800,2296.547 658.000 L 2294.000 462.000 2284.639 446.944 C 2279.491 438.663,2266.891 426.105,2256.639 419.037 L 2238.000 406.187 2138.000 403.415 C 2083.000 401.891,1984.669 400.499,1919.487 400.322 L 1800.974 400.000 1798.936 289.000 C 1797.815 227.950,1795.007 172.099,1792.696 164.887 C 1786.576 145.789,1766.323 122.033,1749.040 113.681 C 1735.768 107.267,1717.303 106.074,1592.000 103.530 C 1433.486 100.311,1015.191 100.460,804.000 103.811 M1700.000 350.000 L 1700.000 500.000 1200.000 500.000 L 700.000 500.000 700.000 350.000 L 700.000 200.000 1200.000 200.000 L 1700.000 200.000 1700.000 350.000 M833.845 306.298 C 785.037 323.077,793.186 390.636,844.962 398.461 C 862.750 401.149,883.662 388.995,893.343 370.339 C 899.923 357.660,900.415 353.160,896.612 340.466 C 887.865 311.270,861.357 296.839,833.845 306.298 M1533.845 306.298 C 1505.240 316.131,1493.406 344.038,1506.587 370.574 C 1521.759 401.115,1560.631 407.984,1584.308 384.308 C 1620.837 347.778,1583.060 289.378,1533.845 306.298 M600.000 550.000 L 600.000 600.000 1200.000 600.000 L 1800.000 600.000 1800.000 550.000 L 1800.000 500.000 2000.000 500.000 L 2200.000 500.000 2200.000 1350.000 L 2200.000 2200.000 1200.000 2200.000 L 200.000 2200.000 200.000 1350.000 L 200.000 500.000 400.000 500.000 L 600.000 500.000 600.000 550.000 M876.070 944.549 C 862.846 964.997,822.776 1030.583,787.024 1090.295 L 722.021 1198.862 579.509 1200.910 C 451.745 1202.747,435.736 1203.703,424.812 1210.157 C 418.110 1214.115,410.272 1221.755,407.393 1227.134 C 396.104 1248.227,405.283 1281.563,425.566 1293.137 C 431.669 1296.620,481.576 1298.331,606.115 1299.329 L 778.231 1300.708 817.841 1235.354 C 877.111 1137.563,891.812 1115.412,895.807 1117.880 C 901.758 1121.558,956.397 1227.771,1134.193 1581.275 L 1302.820 1916.549 1415.910 1662.201 C 1478.110 1522.310,1530.541 1406.901,1532.425 1405.737 C 1534.308 1404.574,1550.792 1402.567,1569.056 1401.278 L 1602.262 1398.934 1615.649 1425.308 C 1672.494 1537.302,1783.457 1577.400,1892.000 1525.170 C 1921.271 1511.085,1963.539 1468.528,1977.273 1439.312 C 1999.965 1391.043,2004.977 1350.457,1993.663 1306.577 C 1976.341 1239.392,1931.142 1188.893,1866.000 1163.944 C 1833.322 1151.429,1769.207 1151.127,1735.068 1163.327 C 1692.790 1178.436,1649.671 1215.606,1624.307 1258.808 C 1616.818 1271.563,1608.244 1286.050,1605.253 1291.000 C 1600.185 1299.389,1597.038 1300.002,1558.908 1300.028 C 1536.409 1300.044,1506.044 1301.186,1491.430 1302.567 L 1464.860 1305.077 1383.430 1488.491 C 1338.644 1589.369,1300.748 1671.927,1299.218 1671.953 C 1294.555 1672.032,1257.254 1599.904,1080.125 1248.298 C 986.556 1062.562,907.775 909.870,905.056 908.983 C 902.288 908.081,889.531 923.733,876.070 944.549 " fill="#1D1E23" stroke="none" fill-rule="evenodd"/></svg>