<svg viewBox="0 0 2400 2400" fill="none" xmlns="http://www.w3.org/2000/svg"><path d="M872.000 103.965 C 647.415 106.665,653.162 105.954,628.437 134.113 C 603.651 162.343,602.820 167.007,600.833 289.000 L 599.026 400.000 494.513 400.292 C 437.031 400.453,338.384 401.915,275.298 403.541 L 160.596 406.499 144.329 417.772 C 135.382 423.972,122.944 436.771,116.689 446.214 L 105.317 463.383 102.658 686.350 C 101.196 808.982,100.000 1198.893,100.000 1552.818 C 100.000 2180.886,100.185 2196.675,107.725 2211.159 C 119.878 2234.509,151.589 2267.909,177.509 2284.662 L 201.240 2300.000 1200.000 2300.000 L 2198.760 2300.000 2222.491 2284.662 C 2248.840 2267.632,2280.177 2234.413,2292.800 2210.132 L 2301.049 2194.263 2299.217 1332.132 C 2297.545 544.861,2296.819 468.916,2290.859 457.520 C 2287.270 450.656,2275.351 436.965,2264.373 427.095 C 2247.624 412.036,2241.003 408.760,2223.207 406.722 C 2211.543 405.386,2111.550 403.042,2001.000 401.514 L 1800.000 398.734 1799.744 326.367 C 1799.603 286.565,1798.076 233.074,1796.350 207.498 C 1793.385 163.561,1792.481 159.978,1779.959 142.542 C 1771.902 131.322,1759.765 120.727,1748.998 115.515 C 1731.905 107.241,1724.182 106.830,1526.645 103.687 C 1305.176 100.163,1183.957 100.215,872.000 103.965 M1700.000 350.000 L 1700.000 500.000 1200.000 500.000 L 700.000 500.000 700.000 350.000 L 700.000 200.000 1200.000 200.000 L 1700.000 200.000 1700.000 350.000 M832.000 306.815 C 819.860 311.232,804.032 329.762,801.678 342.312 C 800.122 350.603,801.659 360.287,805.972 369.377 C 824.169 407.722,870.867 407.008,893.688 368.034 C 900.717 356.030,900.889 353.506,895.688 338.583 C 886.607 312.526,856.954 297.735,832.000 306.815 M1523.592 313.149 C 1504.409 326.062,1497.879 341.146,1503.437 359.699 C 1516.979 404.899,1571.957 411.548,1593.229 370.558 C 1603.697 350.388,1599.845 332.205,1581.737 316.306 C 1564.199 300.907,1543.451 299.781,1523.592 313.149 M600.000 550.000 L 600.000 600.000 1200.000 600.000 L 1800.000 600.000 1800.000 550.000 L 1800.000 500.000 2000.000 500.000 L 2200.000 500.000 2200.000 1350.000 L 2200.000 2200.000 1200.000 2200.000 L 200.000 2200.000 200.000 1350.000 L 200.000 500.000 400.000 500.000 L 600.000 500.000 600.000 550.000 M889.444 925.536 C 883.150 933.185,842.900 997.995,800.000 1069.558 L 722.000 1199.672 640.000 1200.166 C 594.900 1200.438,528.521 1201.952,492.492 1203.532 L 426.984 1206.403 415.492 1219.265 C 406.861 1228.924,404.000 1236.143,404.000 1248.262 C 404.000 1267.519,412.704 1285.902,425.041 1292.698 C 431.616 1296.320,479.790 1298.070,606.065 1299.274 L 778.130 1300.914 811.716 1245.457 C 865.090 1157.325,889.667 1120.040,894.401 1120.019 C 900.109 1119.994,956.278 1228.270,1147.109 1607.155 L 1302.820 1916.309 1387.158 1727.044 C 1433.544 1622.948,1485.265 1507.827,1502.095 1471.220 L 1532.694 1404.660 1566.526 1401.842 C 1585.133 1400.292,1600.840 1399.694,1601.431 1400.512 C 1602.021 1401.330,1610.325 1415.886,1619.884 1432.858 C 1637.673 1464.442,1669.691 1499.724,1697.775 1518.689 C 1719.881 1533.617,1767.800 1548.012,1795.152 1547.941 C 1849.608 1547.800,1899.824 1527.139,1937.654 1489.309 C 1966.725 1460.238,1985.267 1428.003,1993.841 1391.628 C 2001.514 1359.077,2001.534 1339.706,1993.928 1309.840 C 1978.503 1249.274,1940.628 1201.599,1885.838 1173.783 L 1854.749 1158.000 1800.303 1158.000 C 1746.446 1158.000,1745.555 1158.148,1717.929 1171.668 C 1684.394 1188.080,1639.880 1230.703,1620.435 1265.018 C 1600.741 1299.774,1600.352 1300.000,1560.318 1300.000 C 1541.007 1300.000,1511.651 1301.146,1495.082 1302.547 L 1464.956 1305.093 1399.687 1451.547 C 1363.789 1532.096,1326.490 1615.015,1316.800 1635.811 L 1299.181 1673.621 1289.633 1657.811 C 1284.381 1649.115,1231.915 1547.013,1173.042 1430.918 C 984.201 1058.534,909.768 914.589,905.275 913.092 C 902.862 912.287,895.738 917.888,889.444 925.536 " fill="#1D1E23" stroke="none" fill-rule="evenodd"/></svg>