<svg viewBox="0 0 2400 2400" fill="none" xmlns="http://www.w3.org/2000/svg"><path d="M720.000 103.747 C 668.055 105.765,660.664 106.953,649.201 115.129 C 626.496 131.324,608.748 155.603,604.236 176.641 C 601.885 187.605,600.000 241.553,600.000 297.888 L 600.000 399.382 389.000 401.023 C 241.972 402.165,173.607 404.093,163.509 407.379 C 139.496 415.194,113.407 441.173,107.584 463.067 C 103.635 477.920,102.241 666.383,101.119 1337.641 L 99.688 2193.282 110.611 2215.641 C 124.389 2243.847,155.570 2275.187,183.785 2289.189 L 205.571 2300.000 1200.000 2300.000 L 2194.429 2300.000 2215.598 2289.451 C 2243.758 2275.419,2275.990 2243.189,2289.415 2215.641 L 2300.312 2193.282 2298.881 1337.641 C 2297.758 665.894,2296.367 477.926,2292.410 463.042 C 2286.673 441.461,2260.235 415.339,2236.000 407.304 C 2226.363 404.109,2156.343 402.152,2011.322 401.024 L 1800.645 399.385 1799.143 286.693 C 1797.532 165.840,1797.015 162.533,1775.449 135.304 C 1756.436 111.298,1745.257 107.425,1684.243 103.702 C 1624.857 100.079,813.461 100.116,720.000 103.747 M1700.000 350.000 L 1700.000 500.000 1200.000 500.000 L 700.000 500.000 700.000 350.000 L 700.000 200.000 1200.000 200.000 L 1700.000 200.000 1700.000 350.000 M828.486 306.644 C 790.855 325.727,792.338 378.522,830.958 394.658 C 871.806 411.725,912.775 370.130,894.028 330.623 C 881.730 304.709,853.017 294.203,828.486 306.644 M1528.486 306.644 C 1490.855 325.727,1492.338 378.522,1530.958 394.658 C 1557.752 405.853,1587.203 392.655,1596.190 365.425 C 1609.610 324.760,1566.525 287.353,1528.486 306.644 M600.000 550.000 L 600.000 600.000 1200.000 600.000 L 1800.000 600.000 1800.000 550.000 L 1800.000 500.000 2000.000 500.000 L 2200.000 500.000 2200.000 1350.000 L 2200.000 2200.000 1200.000 2200.000 L 200.000 2200.000 200.000 1350.000 L 200.000 500.000 400.000 500.000 L 600.000 500.000 600.000 550.000 M811.904 1049.490 L 722.000 1199.391 578.000 1200.695 C 435.143 1201.990,433.898 1202.073,421.100 1211.201 C 394.944 1229.858,395.041 1269.962,421.290 1289.570 C 432.296 1297.791,436.852 1298.030,605.474 1299.229 L 778.372 1300.458 834.539 1207.445 C 865.431 1156.287,892.578 1113.807,894.866 1113.045 C 897.154 1112.282,989.861 1292.801,1100.881 1514.199 L 1302.735 1916.740 1416.063 1661.370 C 1478.393 1520.917,1529.900 1405.328,1530.521 1404.508 C 1531.143 1403.687,1547.658 1402.103,1567.222 1400.987 L 1602.792 1398.959 1618.253 1430.249 C 1645.749 1485.897,1694.521 1528.550,1745.840 1541.831 C 1839.772 1566.138,1939.809 1521.007,1978.993 1436.645 C 2000.409 1390.537,2005.082 1349.472,1993.878 1305.840 C 1973.371 1225.979,1910.360 1167.042,1832.622 1155.009 C 1791.269 1148.609,1743.587 1155.549,1710.861 1172.733 C 1675.789 1191.148,1636.627 1231.263,1619.810 1266.000 C 1612.354 1281.400,1604.397 1295.322,1602.127 1296.939 C 1599.857 1298.555,1578.914 1299.905,1555.587 1299.939 C 1532.259 1299.972,1502.295 1301.137,1488.999 1302.527 L 1464.824 1305.054 1383.899 1487.527 C 1339.390 1587.887,1301.606 1672.565,1299.935 1675.701 C 1297.939 1679.447,1231.028 1549.905,1104.691 1297.701 C 998.977 1086.665,910.082 910.758,907.146 906.795 C 902.367 900.345,892.379 915.310,811.904 1049.490 " fill="#1D1E23" stroke="none" fill-rule="evenodd"/></svg>