<svg viewBox="0 0 2400 2400" fill="none" xmlns="http://www.w3.org/2000/svg"><path d="M844.344 238.942 C 773.245 469.690,727.235 692.260,707.276 902.000 C 699.745 981.133,700.872 1157.735,709.355 1228.000 C 725.129 1358.644,753.473 1457.603,804.284 1559.436 C 842.312 1635.649,872.769 1677.152,939.817 1744.129 C 1014.084 1818.316,1093.910 1868.521,1193.280 1903.540 C 1259.880 1927.010,1346.327 1945.171,1416.758 1950.487 C 1448.197 1952.861,1452.100 1952.394,1454.566 1945.966 C 1461.182 1928.726,1421.278 1710.548,1383.974 1560.000 C 1309.828 1260.771,1198.143 944.686,1041.312 590.217 C 1014.111 528.736,992.425 476.725,993.121 474.636 C 996.126 465.623,1085.361 589.888,1133.256 669.782 C 1172.981 736.046,1243.430 879.024,1277.242 962.000 C 1403.302 1271.363,1496.018 1637.526,1559.823 2078.000 C 1573.852 2174.846,1579.074 2200.000,1585.151 2200.000 C 1591.901 2200.000,1613.164 2184.274,1621.583 2173.055 C 1632.876 2158.005,1635.542 2118.910,1635.784 1964.781 L 1636.000 1827.561 1651.432 1804.781 C 1706.508 1723.475,1756.056 1608.606,1782.894 1500.000 C 1792.052 1462.942,1793.478 1447.645,1795.013 1370.000 C 1797.645 1236.807,1785.165 1163.887,1739.507 1045.682 C 1657.021 832.129,1460.891 605.084,1194.034 414.226 C 1115.432 358.009,974.845 268.290,875.190 210.747 L 856.379 199.885 844.344 238.942 " fill="#1D1E23" stroke="none" fill-rule="evenodd"/></svg>