<svg viewBox="0 0 2400 2400" fill="none" xmlns="http://www.w3.org/2000/svg"><path d="M842.426 245.078 C 807.346 357.877,768.874 510.786,746.586 626.000 C 717.566 776.010,704.619 888.758,701.344 1020.000 C 696.346 1220.303,721.688 1375.728,782.772 1519.401 C 875.488 1737.475,1059.080 1885.483,1296.925 1933.900 C 1347.422 1944.179,1450.272 1955.061,1454.737 1950.596 C 1461.102 1944.231,1433.907 1772.710,1407.910 1655.260 C 1332.665 1315.320,1181.430 884.167,1011.281 524.523 C 986.689 472.543,979.456 456.000,981.323 456.000 C 982.110 456.000,998.927 476.250,1018.694 501.000 C 1149.118 664.298,1257.164 877.547,1352.588 1160.000 C 1443.856 1430.152,1525.345 1794.144,1566.165 2114.000 C 1572.061 2160.200,1577.574 2198.738,1578.417 2199.641 C 1582.644 2204.170,1612.533 2190.484,1619.345 2180.900 C 1634.549 2159.508,1635.955 2142.802,1635.978 1983.226 L 1636.000 1828.451 1663.822 1785.709 C 1770.701 1621.519,1817.309 1429.205,1793.847 1249.205 C 1756.444 962.242,1570.753 694.605,1232.395 439.983 C 1142.170 372.087,992.201 275.636,879.198 212.829 L 856.396 200.155 842.426 245.078 " fill="#1D1E23" stroke="none" fill-rule="evenodd"/></svg>