<svg viewBox="0 0 2400 2400" fill="none" xmlns="http://www.w3.org/2000/svg"><path d="M844.393 238.942 C 763.756 501.708,713.372 762.782,703.829 967.301 C 694.956 1157.471,712.576 1314.822,757.434 1446.000 C 795.545 1557.449,839.160 1634.539,905.609 1707.898 C 1016.328 1830.132,1139.796 1899.852,1305.919 1933.946 C 1374.974 1948.118,1446.268 1955.332,1452.792 1948.808 C 1459.552 1942.048,1449.092 1869.112,1421.984 1734.000 C 1353.132 1390.818,1248.216 1071.550,1061.396 636.698 C 1025.172 552.381,996.170 481.489,996.947 479.159 C 999.860 470.419,1095.841 607.058,1141.798 685.370 C 1178.758 748.351,1256.749 911.437,1289.625 994.489 C 1400.226 1273.894,1486.343 1608.602,1545.761 1990.000 C 1578.075 2197.420,1578.596 2200.000,1588.129 2200.000 C 1596.541 2200.000,1624.115 2170.353,1628.489 2156.606 C 1631.548 2146.992,1633.759 2088.179,1634.959 1984.539 L 1636.781 1827.077 1657.919 1794.539 C 1721.068 1697.330,1783.243 1534.893,1792.093 1444.000 C 1800.057 1362.210,1795.676 1252.637,1781.618 1182.000 C 1770.795 1127.620,1741.050 1044.919,1708.246 978.000 C 1617.475 792.831,1456.378 611.530,1233.867 444.127 C 1157.350 386.560,977.405 269.451,875.190 210.697 L 856.379 199.885 844.393 238.942 " fill="#1D1E23" stroke="none" fill-rule="evenodd"/></svg>