<svg viewBox="0 0 2400 2400" fill="none" xmlns="http://www.w3.org/2000/svg"><path d="M844.393 238.942 C 682.640 766.031,657.122 1199.337,770.833 1488.000 C 783.832 1520.999,820.874 1595.890,837.110 1622.000 C 873.614 1680.701,951.909 1764.385,1012.000 1808.926 C 1091.321 1867.722,1195.418 1912.599,1302.000 1933.949 C 1350.095 1943.583,1415.303 1952.000,1441.842 1952.000 C 1455.085 1952.000,1456.000 1951.178,1456.000 1939.277 C 1456.000 1918.678,1436.641 1800.113,1419.543 1716.000 C 1349.266 1370.270,1212.759 967.901,1026.012 556.026 C 1004.844 509.340,988.379 470.288,989.422 469.245 C 994.653 464.013,1082.788 585.277,1127.679 659.470 C 1322.386 981.269,1476.551 1486.952,1560.443 2079.000 C 1575.034 2181.972,1578.574 2200.000,1584.203 2200.000 C 1596.060 2200.000,1617.821 2182.253,1625.958 2165.947 C 1633.427 2150.981,1634.006 2140.069,1635.371 1988.590 L 1636.825 1827.179 1660.607 1790.590 C 1718.732 1701.162,1767.703 1580.101,1788.379 1474.720 C 1802.321 1403.658,1799.341 1257.296,1782.459 1184.000 C 1736.458 984.281,1635.755 815.059,1456.263 635.858 C 1345.362 525.137,1253.609 451.214,1104.955 352.820 C 1033.302 305.392,944.469 250.437,875.190 210.680 L 856.379 199.885 844.393 238.942 " fill="#1D1E23" stroke="none" fill-rule="evenodd"/></svg>