<svg viewBox="0 0 2400 2400" fill="none" xmlns="http://www.w3.org/2000/svg"><path d="M1169.486 209.975 C 1140.039 227.626,1140.000 227.873,1140.000 395.938 C 1140.000 477.739,1138.523 544.067,1136.718 543.333 C 1134.914 542.600,1089.562 497.000,1035.938 442.000 C 982.313 387.000,932.040 337.852,924.219 332.783 C 897.556 315.501,859.905 325.923,842.667 355.358 C 833.734 370.612,833.134 398.968,841.414 414.554 C 844.758 420.849,913.285 493.500,993.695 576.000 L 1139.894 726.000 1139.947 907.428 C 1139.994 1068.908,1139.325 1088.597,1133.860 1086.500 C 1130.483 1085.204,1060.733 1044.537,978.860 996.128 L 830.000 908.113 776.156 701.360 C 733.775 538.626,720.260 492.170,712.679 483.160 C 686.398 451.927,645.396 452.171,618.852 483.718 C 599.749 506.420,600.636 513.714,641.514 670.000 C 662.230 749.200,678.544 814.670,677.768 815.488 C 676.992 816.306,620.970 784.177,553.274 744.090 C 485.577 704.002,424.492 670.279,417.528 669.149 C 362.418 660.205,325.589 733.966,365.644 773.059 C 372.937 780.177,432.278 817.382,497.514 855.738 C 562.750 894.094,614.746 926.664,613.062 928.118 C 611.378 929.571,548.800 947.407,474.000 967.753 C 328.741 1007.265,316.426 1012.431,305.576 1038.399 C 297.625 1057.427,298.771 1075.598,309.068 1093.777 C 319.946 1112.982,338.453 1124.457,358.794 1124.611 C 367.157 1124.674,462.807 1100.280,571.350 1070.402 L 768.699 1016.079 922.312 1106.935 C 1039.058 1175.985,1074.733 1198.859,1070.962 1202.242 C 1061.466 1210.762,772.504 1380.000,767.453 1380.000 C 764.656 1380.000,672.985 1355.453,563.740 1325.451 C 341.273 1264.354,346.042 1265.017,319.529 1291.529 C 294.475 1316.584,294.739 1356.403,320.117 1380.109 C 331.967 1391.179,332.833 1391.450,525.189 1444.287 C 597.219 1464.073,615.288 1470.346,611.189 1474.145 C 608.335 1476.790,553.735 1509.739,489.856 1547.365 C 425.976 1584.991,368.376 1621.345,361.856 1628.151 C 351.063 1639.416,350.000 1642.993,350.000 1668.040 C 350.000 1694.015,350.776 1696.356,363.860 1709.855 C 380.975 1727.513,402.931 1734.293,422.300 1727.901 C 429.878 1725.400,490.427 1691.165,556.852 1651.823 C 623.278 1612.482,678.057 1580.723,678.583 1581.249 C 679.109 1581.775,662.486 1646.959,641.644 1726.103 C 616.379 1822.043,604.383 1874.387,605.650 1883.164 C 612.272 1929.036,661.344 1952.056,699.160 1927.031 C 707.722 1921.365,717.035 1911.159,719.854 1904.352 C 722.674 1897.544,748.628 1801.574,777.530 1691.085 L 830.079 1490.195 968.913 1407.905 C 1045.272 1362.646,1115.004 1321.537,1123.873 1316.552 L 1140.000 1307.488 1140.000 1489.916 L 1140.000 1672.344 995.000 1820.423 C 915.250 1901.866,846.639 1974.756,842.531 1982.400 C 822.680 2019.335,845.549 2066.452,885.513 2070.957 C 895.419 2072.073,908.581 2071.770,914.762 2070.282 C 922.378 2068.449,960.422 2032.520,1032.816 1958.789 L 1139.632 1850.000 1139.816 2002.062 C 1139.986 2142.250,1140.579 2155.213,1147.416 2168.062 C 1169.645 2209.836,1233.383 2208.882,1253.507 2166.474 C 1259.130 2154.624,1260.028 2132.506,1260.206 2001.395 L 1260.412 1850.000 1365.206 1956.654 C 1422.843 2015.313,1474.033 2065.317,1478.962 2067.774 C 1489.852 2073.202,1510.452 2074.284,1524.000 2070.140 C 1557.456 2059.905,1574.750 2013.308,1557.000 1981.221 C 1553.150 1974.261,1484.750 1901.917,1405.000 1820.455 L 1260.000 1672.344 1260.000 1490.091 L 1260.000 1307.837 1275.000 1315.764 C 1283.250 1320.124,1352.996 1361.162,1429.990 1406.960 L 1569.980 1490.229 1622.539 1691.198 C 1651.447 1801.731,1677.345 1897.591,1680.091 1904.219 C 1700.677 1953.918,1776.252 1946.140,1792.271 1892.674 C 1797.017 1876.830,1795.374 1868.783,1758.876 1729.095 C 1737.762 1648.291,1720.907 1581.760,1721.418 1581.248 C 1721.930 1580.737,1772.670 1610.104,1834.174 1646.509 C 1972.273 1728.251,1971.782 1728.000,1993.249 1728.000 C 2046.762 1728.000,2072.038 1657.660,2031.516 1621.512 C 2026.282 1616.843,1972.500 1583.821,1912.000 1548.130 C 1785.726 1473.635,1782.818 1471.849,1784.726 1469.941 C 1785.507 1469.160,1848.817 1451.272,1925.414 1430.190 C 2002.011 1409.108,2069.002 1388.741,2074.283 1384.930 C 2079.563 1381.118,2087.730 1370.226,2092.432 1360.725 C 2106.409 1332.479,2098.581 1303.243,2071.659 1283.143 C 2050.195 1267.117,2044.024 1268.225,1835.296 1325.584 C 1726.384 1355.513,1635.099 1380.000,1632.441 1380.000 C 1627.467 1380.000,1337.971 1210.425,1328.986 1202.249 C 1325.123 1198.733,1359.175 1176.833,1477.449 1106.767 L 1630.925 1015.846 1828.463 1070.298 C 1937.108 1100.246,2032.806 1124.693,2041.125 1124.624 C 2093.015 1124.193,2118.500 1056.165,2080.363 1019.886 C 2066.386 1006.590,2057.429 1003.561,1927.757 968.271 C 1851.991 947.651,1788.598 929.563,1786.885 928.076 C 1785.173 926.588,1839.747 892.224,1908.161 851.712 C 2046.691 769.679,2050.000 766.823,2050.000 729.293 C 2050.000 694.377,2025.565 669.964,1990.707 670.052 C 1971.036 670.102,1963.832 673.774,1846.720 743.439 C 1778.916 783.773,1722.770 816.103,1721.951 815.284 C 1721.131 814.465,1737.557 749.041,1758.451 669.897 C 1794.184 534.548,1796.175 524.931,1791.972 508.000 C 1778.723 454.635,1715.932 443.055,1683.525 488.000 C 1679.519 493.556,1652.989 587.770,1623.827 700.000 C 1591.160 825.717,1568.820 904.469,1564.669 908.537 C 1558.171 914.907,1277.677 1082.073,1265.912 1086.587 C 1260.749 1088.568,1260.000 1065.858,1260.000 907.428 L 1260.000 725.999 1404.347 578.000 C 1483.738 496.600,1552.131 424.600,1556.332 418.000 C 1566.164 402.553,1566.278 374.122,1556.579 356.037 C 1548.319 340.637,1521.016 324.000,1504.000 324.000 C 1483.042 324.000,1460.323 343.157,1364.057 442.000 C 1310.492 497.000,1265.165 542.600,1263.332 543.333 C 1261.500 544.067,1260.000 477.739,1260.000 395.938 C 1260.000 227.411,1259.993 227.365,1230.128 209.864 C 1208.817 197.374,1190.450 197.408,1169.486 209.975 " fill="#1D1E23" stroke="none" fill-rule="evenodd"/></svg>