<svg viewBox="0 0 2400 2400" fill="none" xmlns="http://www.w3.org/2000/svg"><path d="M1177.312 207.753 C 1168.133 211.920,1157.734 219.740,1154.202 225.130 C 1146.192 237.355,1141.451 291.371,1137.800 412.000 C 1136.302 461.500,1133.934 508.828,1132.538 517.174 L 1130.000 532.348 1040.000 445.913 C 943.939 353.657,908.516 324.000,894.387 324.000 C 883.000 324.000,849.898 344.979,844.054 355.899 C 835.338 372.185,837.713 402.193,849.030 418.780 C 861.055 436.404,922.144 501.816,1049.642 633.587 L 1140.000 726.972 1139.668 814.486 C 1139.204 937.015,1134.541 1074.792,1130.730 1078.604 C 1126.423 1082.911,1107.361 1072.540,958.415 984.858 L 830.830 909.751 797.251 781.875 C 755.015 621.033,726.403 520.586,716.352 497.865 C 707.211 477.199,688.364 464.020,668.000 464.052 C 648.185 464.084,612.897 485.032,609.438 498.816 C 606.092 512.146,613.985 554.068,643.928 682.000 C 672.243 802.973,673.289 808.000,670.158 808.000 C 665.802 808.000,635.791 791.852,564.000 750.882 C 476.764 701.096,417.842 671.992,404.355 672.026 C 389.922 672.063,372.713 684.406,359.345 704.312 C 330.313 747.539,343.774 761.023,535.688 880.951 C 571.816 903.528,601.066 923.800,600.688 926.000 C 599.895 930.612,586.086 935.240,482.000 965.782 C 331.885 1009.831,307.105 1021.383,301.773 1049.802 C 297.457 1072.807,316.170 1105.565,341.008 1118.487 C 350.954 1123.661,357.321 1123.029,407.008 1111.926 C 457.689 1100.602,568.150 1071.728,711.863 1032.238 L 769.727 1016.339 899.863 1094.889 C 1048.470 1184.587,1067.828 1196.816,1067.928 1201.050 C 1068.033 1205.487,1040.794 1222.260,898.061 1305.649 C 795.577 1365.524,768.120 1379.926,760.061 1378.036 C 754.527 1376.738,693.300 1360.491,624.000 1341.933 C 475.626 1302.198,390.532 1281.584,359.738 1277.915 C 337.729 1275.293,337.326 1275.434,324.238 1290.340 C 298.675 1319.455,295.000 1343.479,312.671 1365.945 C 327.966 1385.389,354.743 1395.528,525.037 1446.357 C 559.708 1456.705,591.020 1467.326,594.619 1469.958 C 600.376 1474.168,599.014 1476.386,583.316 1488.373 C 573.499 1495.869,524.480 1527.201,474.385 1558.001 C 378.186 1617.147,354.315 1635.383,349.860 1653.135 C 339.493 1694.439,382.648 1736.987,421.802 1724.065 C 436.160 1719.327,486.022 1692.659,593.934 1632.003 C 622.497 1615.948,651.792 1600.336,659.034 1597.310 C 671.825 1591.966,672.143 1592.068,670.189 1600.904 C 669.082 1605.907,655.555 1664.017,640.128 1730.038 C 624.701 1796.059,610.931 1861.050,609.530 1874.462 C 607.026 1898.413,607.245 1899.141,621.773 1915.222 C 638.957 1934.243,661.426 1940.110,686.010 1931.997 C 713.211 1923.019,721.826 1899.468,786.136 1658.273 L 830.856 1490.546 904.428 1446.722 C 944.893 1422.618,1012.200 1383.230,1054.000 1359.192 L 1130.000 1315.486 1132.670 1332.743 C 1134.139 1342.234,1136.678 1422.354,1138.313 1510.787 L 1141.285 1671.574 1039.940 1774.787 C 916.997 1899.997,850.576 1972.491,841.739 1991.115 C 825.656 2025.007,850.161 2062.931,892.797 2070.135 C 913.615 2073.652,917.007 2070.876,1039.000 1950.487 L 1140.000 1850.816 1140.256 1952.408 C 1140.397 2008.283,1141.883 2079.650,1143.559 2111.001 C 1147.097 2177.174,1150.194 2183.239,1186.250 2194.605 C 1206.336 2200.936,1207.677 2200.869,1224.533 2192.693 C 1234.140 2188.033,1244.569 2180.121,1247.709 2175.110 C 1255.159 2163.222,1259.412 2084.389,1259.744 1952.027 L 1260.000 1850.054 1371.026 1961.027 C 1474.306 2064.257,1483.028 2071.994,1496.026 2071.912 C 1540.623 2071.632,1575.023 2026.439,1557.979 1990.522 C 1549.018 1971.636,1488.818 1905.959,1362.651 1777.419 L 1260.000 1672.838 1260.000 1591.067 C 1260.000 1471.157,1264.791 1316.000,1268.493 1316.000 C 1276.026 1316.000,1568.424 1488.501,1570.213 1494.000 C 1570.929 1496.200,1588.665 1562.893,1609.625 1642.207 C 1658.933 1828.783,1677.464 1892.884,1686.741 1908.954 C 1690.883 1916.129,1700.511 1925.234,1708.136 1929.186 C 1733.824 1942.501,1771.735 1928.972,1786.740 1901.134 C 1795.564 1884.763,1793.229 1870.272,1758.332 1724.864 C 1725.685 1588.827,1726.310 1592.000,1732.132 1592.000 C 1734.754 1592.000,1783.947 1618.922,1841.450 1651.826 C 1898.952 1684.730,1956.343 1715.577,1968.985 1720.375 C 1991.376 1728.873,1992.440 1728.919,2010.202 1722.136 C 2040.932 1710.400,2058.140 1674.437,2046.432 1646.418 C 2039.833 1630.624,2012.698 1611.631,1882.000 1531.323 C 1793.977 1477.237,1796.000 1478.558,1796.000 1475.179 C 1796.000 1469.726,1810.522 1464.534,1898.458 1438.545 C 1994.524 1410.154,2047.797 1392.447,2066.949 1382.544 C 2083.309 1374.083,2094.491 1359.297,2097.778 1341.778 C 2100.761 1325.876,2089.493 1302.156,2070.550 1284.462 C 2061.455 1275.966,2058.027 1275.225,2039.170 1277.673 C 2010.034 1281.457,1924.366 1302.247,1780.007 1340.569 C 1712.911 1358.381,1649.669 1373.080,1639.469 1373.234 C 1623.853 1373.470,1613.742 1369.501,1575.462 1348.115 C 1517.137 1315.529,1352.976 1217.349,1340.793 1207.765 L 1331.472 1200.433 1348.622 1188.009 C 1358.055 1181.176,1425.501 1139.663,1498.502 1095.758 L 1631.230 1015.930 1740.615 1046.302 C 1903.903 1091.639,2002.685 1115.973,2034.000 1118.573 C 2058.448 1120.602,2063.331 1119.839,2072.493 1112.557 C 2094.953 1094.705,2102.848 1056.465,2088.549 1034.780 C 2073.839 1012.470,2061.207 1007.479,1904.537 962.078 C 1848.733 945.906,1801.308 930.908,1799.150 928.750 C 1794.442 924.042,1816.572 908.570,1906.000 854.047 C 2008.322 791.661,2044.074 763.035,2050.213 738.574 C 2054.414 721.836,2037.923 690.554,2019.415 680.152 C 1990.681 664.002,1978.505 668.603,1840.000 747.940 C 1794.900 773.773,1750.300 798.817,1740.889 803.593 L 1723.778 812.276 1725.837 803.138 C 1726.969 798.112,1736.792 758.000,1747.666 714.000 C 1798.337 508.962,1798.483 507.685,1774.158 481.893 C 1761.851 468.844,1759.499 468.000,1735.418 468.000 C 1718.143 468.000,1706.729 470.137,1700.426 474.552 C 1682.818 486.885,1681.376 491.341,1598.355 790.000 C 1570.652 889.656,1567.312 898.941,1555.119 910.180 C 1529.018 934.241,1282.878 1081.135,1272.113 1079.075 C 1266.804 1078.059,1265.543 1054.899,1262.522 902.954 L 1259.043 728.003 1314.522 670.192 C 1549.480 425.352,1557.903 415.947,1562.160 393.686 C 1565.192 377.834,1549.853 348.625,1532.408 337.032 C 1524.434 331.733,1512.701 328.000,1504.019 328.000 C 1485.932 328.000,1466.744 343.899,1350.000 455.620 L 1270.000 532.177 1267.452 517.089 C 1266.050 508.790,1263.689 460.600,1262.205 410.000 C 1258.836 295.128,1253.834 237.395,1246.248 225.817 C 1240.260 216.679,1209.985 199.931,1199.737 200.088 C 1196.582 200.136,1186.490 203.585,1177.312 207.753 " fill="#1D1E23" stroke="none" fill-rule="evenodd"/></svg>