<svg viewBox="0 0 2400 2400" fill="none" xmlns="http://www.w3.org/2000/svg"><path d="M1172.848 208.497 C 1142.121 223.706,1142.307 222.687,1139.648 390.000 C 1138.355 471.400,1137.005 538.826,1136.648 539.835 C 1136.292 540.844,1087.850 493.750,1029.000 435.183 C 910.019 316.773,909.320 316.298,873.878 329.834 C 848.261 339.617,838.000 355.800,838.000 386.417 C 838.000 410.419,838.385 411.270,860.646 436.417 C 873.101 450.488,940.991 521.400,1011.512 594.000 L 1139.732 726.000 1139.393 896.000 C 1139.206 989.500,1137.916 1070.857,1136.527 1076.792 L 1134.000 1087.585 982.183 998.120 L 830.367 908.656 783.858 730.979 C 723.295 499.613,719.286 486.907,702.914 474.449 C 676.208 454.129,648.849 455.902,623.972 479.567 C 609.113 493.702,608.000 496.297,608.000 516.803 C 608.000 530.145,615.993 570.252,628.253 618.422 C 639.392 662.190,654.817 722.827,662.530 753.171 C 670.242 783.515,675.978 809.805,675.276 811.594 C 674.574 813.383,634.400 791.638,586.000 763.271 C 443.359 679.670,417.787 666.663,401.324 669.335 C 369.943 674.427,343.878 710.773,349.628 741.422 C 354.864 769.335,362.065 774.839,507.756 862.276 C 605.141 920.722,613.813 926.424,609.380 929.094 C 607.521 930.214,550.600 946.597,482.889 965.501 C 349.362 1002.781,323.743 1011.979,312.056 1026.837 C 299.523 1042.770,297.669 1068.726,307.627 1088.846 C 317.865 1109.533,331.612 1120.198,351.313 1122.739 C 367.568 1124.836,426.985 1110.210,638.436 1052.062 L 768.651 1016.254 881.325 1082.816 C 943.296 1119.425,1011.804 1160.879,1033.564 1174.937 L 1073.128 1200.495 1059.564 1209.665 C 1042.997 1220.864,912.032 1298.140,829.289 1345.539 L 768.577 1380.318 735.289 1371.829 C 716.980 1367.160,646.200 1348.069,578.000 1329.404 C 416.151 1285.110,378.064 1276.011,354.472 1276.005 C 337.289 1276.001,333.340 1277.701,321.583 1290.168 C 294.598 1318.780,294.491 1355.310,321.323 1378.869 C 335.309 1391.149,353.439 1397.028,517.239 1442.407 C 563.020 1455.090,603.229 1467.479,606.591 1469.937 C 611.570 1473.578,595.386 1484.718,519.352 1529.991 C 407.881 1596.363,364.085 1624.248,356.000 1633.996 C 351.941 1638.889,350.000 1650.188,350.000 1668.922 C 350.000 1695.704,350.483 1697.057,364.679 1710.067 C 372.752 1717.465,387.028 1725.584,396.404 1728.109 C 417.134 1733.691,417.875 1733.333,569.599 1644.513 C 626.579 1611.157,674.053 1584.719,675.096 1585.763 C 676.140 1586.807,660.521 1652.611,640.387 1731.995 C 599.307 1893.967,599.296 1894.117,626.145 1920.140 C 639.428 1933.015,642.261 1934.000,666.000 1934.000 C 689.590 1934.000,692.623 1932.965,705.433 1920.550 C 721.364 1905.108,721.761 1903.813,789.382 1646.042 L 830.294 1490.085 984.147 1399.084 L 1138.000 1308.083 1139.041 1490.966 L 1140.082 1673.848 1058.620 1755.924 C 938.085 1877.367,848.090 1972.459,841.198 1985.662 C 833.304 2000.783,836.186 2032.916,846.726 2047.298 C 857.602 2062.140,878.725 2071.986,899.701 2071.994 L 917.401 2072.000 1028.520 1961.339 L 1139.639 1850.679 1140.820 2004.339 C 1142.156 2178.244,1141.833 2176.428,1174.176 2192.085 C 1194.451 2201.900,1205.363 2201.930,1226.735 2192.226 C 1257.991 2178.036,1257.839 2178.914,1259.181 2004.275 L 1260.361 1850.551 1371.345 1961.275 L 1482.329 2072.000 1502.573 2072.000 C 1516.993 2072.000,1526.610 2069.411,1536.002 2063.000 C 1562.233 2045.095,1571.929 2006.845,1556.535 1982.000 C 1547.788 1967.883,1455.797 1871.226,1341.412 1755.965 L 1260.000 1673.930 1260.000 1490.709 L 1260.000 1307.488 1276.526 1316.744 C 1285.616 1321.835,1355.289 1362.943,1431.356 1408.096 L 1569.659 1490.193 1618.485 1675.728 C 1679.524 1907.672,1681.958 1915.211,1699.592 1926.951 C 1715.554 1937.579,1742.571 1939.013,1759.722 1930.144 C 1774.732 1922.382,1790.714 1902.960,1793.854 1888.667 C 1795.601 1880.710,1785.005 1832.357,1759.624 1732.473 C 1739.406 1652.905,1723.779 1586.888,1724.898 1585.769 C 1726.017 1584.650,1771.722 1610.122,1826.466 1642.373 C 1958.121 1719.934,1973.656 1728.000,1991.395 1728.000 C 2025.797 1728.000,2054.495 1695.387,2050.754 1660.543 C 2049.723 1650.942,2045.449 1638.342,2041.256 1632.543 C 2037.047 1626.722,1979.237 1589.379,1912.184 1549.168 C 1845.387 1509.110,1789.191 1474.791,1787.304 1472.904 C 1785.395 1470.995,1827.828 1457.334,1882.936 1442.116 C 2019.615 1404.374,2068.492 1388.636,2078.899 1379.019 C 2083.794 1374.495,2090.759 1363.043,2094.377 1353.570 C 2103.616 1329.378,2099.358 1311.358,2079.777 1291.777 C 2054.118 1266.118,2050.128 1266.749,1792.000 1337.291 C 1716.100 1358.034,1648.535 1376.187,1641.855 1377.632 C 1631.191 1379.940,1614.227 1371.222,1502.663 1306.105 C 1432.786 1265.319,1364.838 1225.097,1351.666 1216.722 C 1329.157 1202.411,1328.147 1201.116,1334.859 1195.185 C 1344.237 1186.897,1402.804 1151.051,1528.520 1076.653 L 1631.040 1015.982 1774.520 1055.468 C 2051.367 1131.658,2055.090 1132.295,2079.747 1107.638 C 2104.232 1083.153,2104.480 1045.095,2080.313 1020.928 C 2067.013 1007.629,2048.079 1001.289,1898.000 959.885 C 1840.800 944.105,1792.431 930.234,1790.513 929.060 C 1786.197 926.419,1819.823 904.542,1918.000 846.120 C 2021.233 784.689,2042.422 768.717,2047.959 748.152 C 2051.129 736.379,2051.081 727.392,2047.782 715.000 C 2039.983 685.707,2021.291 672.000,1989.142 672.000 C 1968.553 672.000,1965.056 673.829,1799.673 771.083 C 1728.846 812.733,1723.992 815.065,1724.019 807.428 C 1724.030 804.443,1739.321 743.500,1758.000 672.000 C 1776.679 600.500,1791.970 534.292,1791.981 524.872 C 1792.024 486.416,1769.386 462.000,1733.689 462.000 C 1717.652 462.000,1710.316 464.335,1698.833 473.093 C 1681.418 486.377,1677.825 496.742,1636.121 654.002 C 1596.061 805.066,1572.145 891.306,1567.461 901.587 C 1563.032 911.305,1557.375 914.895,1386.000 1016.712 L 1266.000 1088.006 1263.473 1077.003 C 1262.084 1070.951,1260.791 989.500,1260.600 896.000 L 1260.254 726.000 1392.461 590.000 C 1465.174 515.200,1533.067 444.279,1543.334 432.398 C 1560.908 412.060,1562.000 409.445,1562.000 387.692 C 1562.000 370.503,1559.855 361.695,1553.624 353.293 C 1543.191 339.227,1517.392 324.153,1503.600 324.066 C 1486.482 323.957,1462.735 344.164,1361.000 445.408 C 1307.650 498.500,1263.708 541.053,1263.352 539.969 C 1262.995 538.886,1261.645 471.400,1260.352 390.000 C 1257.691 222.579,1258.032 224.426,1226.918 208.887 C 1204.752 197.816,1194.572 197.743,1172.848 208.497 " fill="#1D1E23" stroke="none" fill-rule="evenodd"/></svg>