<svg viewBox="0 0 2400 2400" fill="none" xmlns="http://www.w3.org/2000/svg"><path d="M1171.443 210.038 C 1158.268 216.900,1151.492 223.516,1148.080 232.851 C 1144.974 241.349,1141.958 296.850,1139.555 389.748 C 1137.510 468.810,1134.940 534.393,1133.844 535.490 C 1132.748 536.586,1089.134 495.107,1036.925 443.315 C 937.095 344.282,913.252 324.000,896.663 324.000 C 880.998 324.000,852.401 339.622,846.234 351.548 C 837.436 368.560,834.806 390.262,839.732 405.189 C 844.343 419.160,890.354 469.151,1057.000 641.252 L 1140.000 726.970 1140.000 850.852 C 1140.000 918.988,1138.814 999.455,1137.365 1029.668 C 1135.085 1077.214,1133.875 1084.363,1128.365 1082.830 C 1124.864 1081.856,1056.446 1042.349,976.324 995.038 L 830.647 909.017 785.705 738.024 C 730.867 529.380,718.761 490.177,705.322 477.722 C 680.555 454.769,648.828 456.439,621.589 482.128 L 606.843 496.036 609.186 523.018 C 610.475 537.858,625.143 604.900,641.781 672.000 C 658.420 739.100,672.948 798.002,674.066 802.893 C 676.864 815.134,677.035 815.214,568.000 752.657 C 516.300 722.994,459.255 691.638,441.233 682.976 C 411.172 668.527,407.312 667.607,394.497 671.836 C 376.436 677.797,353.177 703.658,349.830 721.501 C 348.366 729.302,349.349 741.967,352.054 750.163 C 358.365 769.285,380.603 785.365,506.723 862.000 C 561.032 895.000,606.054 923.852,606.772 926.116 C 607.494 928.393,567.415 941.608,517.039 955.703 C 397.849 989.051,334.348 1009.783,319.911 1020.064 C 276.046 1051.298,315.338 1132.866,369.014 1122.001 C 401.130 1115.500,520.719 1084.472,639.640 1051.785 L 769.279 1016.152 909.640 1100.124 C 986.838 1146.309,1055.136 1188.194,1061.414 1193.202 L 1072.828 1202.307 991.414 1250.748 C 946.636 1277.391,878.218 1317.453,839.373 1339.775 L 768.746 1380.361 735.373 1371.855 C 717.018 1367.176,656.845 1350.993,601.656 1335.891 C 455.943 1296.018,389.999 1279.886,362.065 1277.277 C 337.588 1274.991,337.261 1275.098,322.676 1290.116 C 296.288 1317.287,294.250 1349.105,317.333 1373.552 C 331.865 1388.944,361.229 1399.245,506.118 1439.783 C 554.583 1453.343,596.883 1466.172,600.118 1468.291 C 609.414 1474.381,594.529 1485.126,487.285 1549.739 C 357.074 1628.190,353.696 1630.748,350.286 1653.485 C 344.531 1691.863,359.396 1716.334,395.125 1727.300 C 408.412 1731.377,412.516 1730.641,434.924 1720.155 C 448.665 1713.725,499.979 1685.198,548.954 1656.761 C 640.935 1603.355,671.883 1586.517,674.008 1588.721 C 674.686 1589.424,660.918 1647.600,643.412 1718.000 C 625.906 1788.400,610.531 1857.957,609.247 1872.571 L 606.912 1899.143 623.169 1916.571 C 639.138 1933.691,639.887 1934.000,665.450 1934.000 C 688.863 1934.000,692.720 1932.807,703.886 1922.109 C 719.621 1907.034,724.950 1890.030,784.113 1666.083 L 830.588 1490.166 981.642 1400.765 C 1064.722 1351.594,1133.665 1312.331,1134.848 1313.515 C 1136.031 1314.698,1137.938 1395.777,1139.086 1493.690 L 1141.173 1671.714 1035.901 1778.857 C 883.984 1933.476,840.917 1981.043,837.800 1997.658 C 834.765 2013.835,838.431 2034.288,846.704 2047.335 C 854.477 2059.593,881.932 2071.802,901.974 2071.912 C 917.585 2071.998,920.454 2069.495,1028.541 1961.459 L 1139.134 1850.919 1140.794 2002.459 C 1142.704 2176.894,1142.699 2176.867,1173.473 2191.332 C 1196.030 2201.935,1205.086 2202.055,1227.151 2192.040 C 1256.961 2178.511,1257.301 2176.501,1259.206 2002.459 L 1260.866 1850.919 1371.459 1961.459 L 1482.053 2072.000 1500.089 2072.000 C 1524.748 2072.000,1543.862 2060.823,1554.900 2039.950 C 1565.805 2019.329,1566.452 2002.383,1557.000 1985.010 C 1548.528 1969.440,1486.486 1903.260,1356.959 1771.629 L 1259.919 1673.012 1260.959 1490.548 L 1262.000 1308.083 1415.697 1399.095 L 1569.394 1490.106 1586.782 1556.053 C 1675.502 1892.533,1680.361 1909.009,1694.818 1922.408 C 1722.353 1947.927,1771.932 1935.510,1789.388 1898.724 C 1795.422 1886.009,1795.069 1882.437,1782.159 1825.678 C 1774.693 1792.855,1758.720 1726.400,1746.663 1678.000 C 1734.605 1629.600,1725.294 1589.429,1725.972 1588.731 C 1728.185 1586.452,1764.755 1606.377,1846.079 1654.170 C 1935.375 1706.647,1977.293 1728.000,1991.016 1728.000 C 2005.913 1728.000,2025.592 1718.017,2036.688 1704.830 C 2049.460 1689.651,2053.652 1668.990,2048.125 1648.464 C 2044.344 1634.423,2039.485 1629.932,2000.955 1604.874 C 1977.330 1589.509,1922.900 1555.774,1880.000 1529.907 C 1776.475 1467.486,1784.115 1473.296,1798.331 1467.796 C 1804.749 1465.313,1847.800 1452.553,1894.000 1439.440 C 2076.356 1387.680,2086.558 1383.066,2095.974 1348.095 C 2102.260 1324.754,2098.549 1313.497,2077.698 1292.646 L 2059.953 1274.900 2034.825 1277.475 C 2006.947 1280.331,1928.040 1300.007,1754.000 1347.501 C 1643.041 1377.780,1637.392 1378.909,1624.000 1373.461 C 1590.110 1359.676,1335.342 1209.042,1333.010 1201.411 C 1331.338 1195.941,1389.366 1158.940,1528.667 1076.654 L 1631.335 1016.008 1762.667 1052.289 C 1950.087 1104.063,2014.826 1120.083,2040.762 1121.104 C 2061.730 1121.929,2064.618 1120.941,2077.396 1108.571 C 2113.651 1073.469,2100.534 1023.251,2050.188 1004.414 C 2031.821 997.542,1822.730 937.604,1801.000 932.982 C 1781.676 928.871,1786.130 925.609,1925.493 841.803 C 2038.739 773.702,2058.237 753.933,2048.323 717.260 C 2040.194 687.188,2020.628 672.000,1990.014 672.000 C 1972.101 672.000,1950.772 682.803,1835.052 750.491 C 1742.184 804.812,1723.997 814.378,1724.003 808.901 C 1724.005 807.305,1739.305 745.262,1758.003 671.026 C 1776.701 596.791,1791.960 530.191,1791.912 523.026 C 1791.779 503.232,1778.383 477.438,1764.513 470.265 C 1748.959 462.222,1719.023 462.231,1703.450 470.285 C 1695.421 474.437,1688.101 483.598,1681.878 497.285 C 1676.697 508.678,1652.613 591.800,1628.357 682.000 C 1580.243 860.919,1569.946 897.615,1566.118 903.809 C 1561.415 911.419,1527.208 932.963,1396.426 1010.682 L 1266.000 1088.190 1263.490 1047.095 C 1262.110 1024.493,1260.760 943.218,1260.490 866.485 L 1260.000 726.970 1343.000 641.271 C 1504.421 474.603,1553.291 421.887,1558.962 408.314 C 1572.407 376.135,1552.404 338.434,1516.118 327.563 C 1501.925 323.311,1498.950 323.855,1481.950 333.818 C 1471.708 339.820,1419.349 388.036,1365.596 440.965 C 1311.844 493.893,1267.001 536.334,1265.946 535.279 C 1264.890 534.223,1262.387 468.704,1260.382 389.680 C 1257.975 294.745,1255.072 241.442,1251.826 232.564 C 1248.052 222.243,1242.172 216.921,1226.457 209.603 C 1201.167 197.828,1194.789 197.878,1171.443 210.038 " fill="#1D1E23" stroke="none" fill-rule="evenodd"/></svg>