<svg viewBox="0 0 2400 2400" fill="none" xmlns="http://www.w3.org/2000/svg"><path d="M730.989 419.002 L 512.027 637.964 418.006 544.006 L 323.984 450.048 261.990 512.041 L 199.997 574.035 357.013 731.013 L 514.029 887.992 795.033 606.967 L 1076.036 325.943 1012.993 262.992 L 949.950 200.041 730.989 419.002 M1200.000 550.000 L 1200.000 700.000 1700.000 700.000 L 2200.000 700.000 2200.000 550.000 L 2200.000 400.000 1700.000 400.000 L 1200.000 400.000 1200.000 550.000 M730.989 1075.002 L 512.027 1293.964 418.006 1200.006 L 323.984 1106.048 261.990 1168.041 L 199.997 1230.035 357.013 1387.013 L 514.029 1543.992 795.033 1262.967 L 1076.036 981.943 1012.993 918.992 L 949.950 856.041 730.989 1075.002 M1200.000 1250.000 L 1200.000 1400.000 1700.000 1400.000 L 2200.000 1400.000 2200.000 1250.000 L 2200.000 1100.000 1700.000 1100.000 L 1200.000 1100.000 1200.000 1250.000 M730.989 1731.002 L 512.027 1949.964 418.006 1856.006 L 323.984 1762.048 261.990 1824.041 L 199.997 1886.035 357.013 2043.013 L 514.029 2199.992 795.033 1918.967 L 1076.036 1637.943 1012.993 1574.992 L 949.950 1512.041 730.989 1731.002 M1200.000 1950.000 L 1200.000 2100.000 1700.000 2100.000 L 2200.000 2100.000 2200.000 1950.000 L 2200.000 1800.000 1700.000 1800.000 L 1200.000 1800.000 1200.000 1950.000 " fill="#1D1E23" stroke="none" fill-rule="evenodd"/></svg>