<svg viewBox="0 0 2400 2400" fill="none" xmlns="http://www.w3.org/2000/svg"><path d="M500.000 450.000 L 500.000 700.000 800.000 700.000 L 1100.000 700.000 1100.000 450.000 L 1100.000 200.000 800.000 200.000 L 500.000 200.000 500.000 450.000 M1300.000 450.000 L 1300.000 700.000 1600.000 700.000 L 1900.000 700.000 1900.000 450.000 L 1900.000 200.000 1600.000 200.000 L 1300.000 200.000 1300.000 450.000 M200.000 750.000 L 200.000 900.000 1200.000 900.000 L 2200.000 900.000 2200.000 750.000 L 2200.000 600.000 2150.000 600.000 L 2100.000 600.000 2100.000 700.000 L 2100.000 800.000 1200.000 800.000 L 300.000 800.000 300.000 700.000 L 300.000 600.000 250.000 600.000 L 200.000 600.000 200.000 750.000 M500.000 1550.000 L 500.000 2000.000 800.000 2000.000 L 1100.000 2000.000 1100.000 1550.000 L 1100.000 1100.000 800.000 1100.000 L 500.000 1100.000 500.000 1550.000 M1300.000 1550.000 L 1300.000 2000.000 1600.000 2000.000 L 1900.000 2000.000 1900.000 1550.000 L 1900.000 1100.000 1600.000 1100.000 L 1300.000 1100.000 1300.000 1550.000 M200.000 2050.000 L 200.000 2200.000 1200.000 2200.000 L 2200.000 2200.000 2200.000 2050.000 L 2200.000 1900.000 2150.000 1900.000 L 2100.000 1900.000 2100.000 2000.000 L 2100.000 2100.000 1200.000 2100.000 L 300.000 2100.000 300.000 2000.000 L 300.000 1900.000 250.000 1900.000 L 200.000 1900.000 200.000 2050.000 " fill="#1D1E23" stroke="none" fill-rule="evenodd"/></svg>