<svg viewBox="0 0 2400 2400" fill="none" xmlns="http://www.w3.org/2000/svg"><path d="M728.928 104.193 C 672.247 115.528,617.729 169.989,604.155 228.834 C 598.718 252.404,598.718 2147.596,604.155 2171.166 C 611.125 2201.383,624.984 2225.376,649.804 2250.196 C 674.624 2275.016,698.617 2288.875,728.834 2295.845 C 739.590 2298.326,909.628 2299.841,1184.160 2299.902 C 1564.677 2299.987,1625.456 2299.195,1646.160 2293.878 C 1721.672 2274.488,1780.207 2214.522,1795.580 2140.803 C 1801.435 2112.725,1801.693 254.186,1795.845 228.834 C 1784.738 180.683,1751.838 140.265,1704.842 117.037 L 1674.420 102.000 1210.210 101.390 C 954.895 101.054,738.318 102.316,728.928 104.193 M1392.000 208.000 C 1403.163 219.163,1402.126 233.747,1389.461 243.710 C 1379.155 251.816,1374.953 252.000,1200.000 252.000 C 1025.047 252.000,1020.845 251.816,1010.539 243.710 C 997.874 233.747,996.837 219.163,1008.000 208.000 C 1015.768 200.232,1021.333 200.000,1200.000 200.000 C 1378.667 200.000,1384.232 200.232,1392.000 208.000 M1700.000 1150.000 L 1700.000 2000.000 1200.000 2000.000 L 700.000 2000.000 700.000 1150.000 L 700.000 300.000 1200.000 300.000 L 1700.000 300.000 1700.000 1150.000 M1400.000 1200.000 L 1400.000 1800.000 1500.000 1800.000 L 1600.000 1800.000 1600.000 1200.000 L 1600.000 600.000 1500.000 600.000 L 1400.000 600.000 1400.000 1200.000 M1100.000 1400.000 L 1100.000 1800.000 1200.000 1800.000 L 1300.000 1800.000 1300.000 1400.000 L 1300.000 1000.000 1200.000 1000.000 L 1100.000 1000.000 1100.000 1400.000 M800.000 1600.000 L 800.000 1800.000 900.000 1800.000 L 1000.000 1800.000 1000.000 1600.000 L 1000.000 1400.000 900.000 1400.000 L 800.000 1400.000 800.000 1600.000 M1272.376 2106.194 C 1287.228 2113.875,1299.970 2134.102,1299.970 2150.000 C 1299.970 2156.600,1296.456 2167.763,1292.162 2174.806 C 1278.659 2196.951,1267.504 2200.000,1200.000 2200.000 C 1132.496 2200.000,1121.341 2196.951,1107.838 2174.806 C 1093.494 2151.280,1100.916 2122.641,1125.194 2107.838 C 1136.419 2100.994,1145.558 2100.028,1199.199 2100.015 C 1246.649 2100.003,1263.088 2101.391,1272.376 2106.194 " fill="#1D1E23" stroke="none" fill-rule="evenodd"/></svg>