<svg viewBox="0 0 2400 2400" fill="none" xmlns="http://www.w3.org/2000/svg"><path d="M804.000 107.858 C 721.778 109.732,707.995 110.975,694.000 117.783 C 671.415 128.768,631.417 170.589,614.411 200.999 L 600.000 226.769 600.000 1199.824 L 600.000 2172.880 613.000 2197.440 C 629.727 2229.042,671.146 2270.372,702.973 2287.220 L 727.946 2300.440 1176.973 2298.947 C 1662.299 2297.332,1643.920 2298.155,1690.331 2275.951 C 1721.126 2261.219,1763.803 2215.887,1782.350 2178.208 L 1798.000 2146.416 1799.080 1278.208 C 1800.118 444.526,1798.068 240.323,1788.339 207.864 C 1781.523 185.128,1748.727 148.251,1714.800 125.175 L 1683.668 104.000 1290.834 104.858 C 1074.775 105.329,855.700 106.679,804.000 107.858 M1366.000 207.497 C 1393.030 209.913,1394.045 210.390,1395.291 221.259 C 1396.000 227.451,1393.709 236.901,1390.198 242.259 L 1383.816 252.000 1200.198 252.000 L 1016.581 252.000 1008.290 241.461 C 993.703 222.916,997.411 213.566,1021.651 207.771 C 1036.589 204.200,1326.538 203.969,1366.000 207.497 M1700.000 1150.000 L 1700.000 2000.000 1200.000 2000.000 L 700.000 2000.000 700.000 1150.000 L 700.000 300.000 1200.000 300.000 L 1700.000 300.000 1700.000 1150.000 M1400.000 1200.000 L 1400.000 1800.000 1500.000 1800.000 L 1600.000 1800.000 1600.000 1200.000 L 1600.000 600.000 1500.000 600.000 L 1400.000 600.000 1400.000 1200.000 M1100.000 1400.000 L 1100.000 1800.000 1200.000 1800.000 L 1300.000 1800.000 1300.000 1400.000 L 1300.000 1000.000 1200.000 1000.000 L 1100.000 1000.000 1100.000 1400.000 M800.000 1600.000 L 800.000 1800.000 900.000 1800.000 L 1000.000 1800.000 1000.000 1600.000 L 1000.000 1400.000 900.000 1400.000 L 800.000 1400.000 800.000 1600.000 M1270.000 2107.473 C 1291.750 2112.053,1302.675 2147.490,1289.932 2172.131 C 1279.846 2191.635,1263.408 2197.476,1213.619 2199.246 C 1132.980 2202.113,1104.000 2188.907,1104.000 2149.293 C 1104.000 2134.050,1106.142 2129.058,1117.600 2117.600 L 1131.200 2104.000 1194.600 2104.473 C 1229.470 2104.734,1263.400 2106.084,1270.000 2107.473 " fill="#1D1E23" stroke="none" fill-rule="evenodd"/></svg>