<svg viewBox="0 0 2400 2400" fill="none" xmlns="http://www.w3.org/2000/svg"><path d="M850.000 203.777 C 683.042 205.987,677.338 206.321,655.417 215.159 C 568.101 250.360,512.145 328.013,501.325 429.000 L 498.860 452.000 623.430 452.000 L 748.000 452.000 748.061 1317.000 C 748.100 1861.426,749.543 2184.224,751.954 2188.000 C 755.023 2192.805,767.758 2182.060,815.895 2134.048 L 876.003 2074.097 939.049 2137.050 L 1002.094 2200.003 1064.000 2138.000 L 1125.906 2075.997 1187.984 2137.984 L 1250.061 2199.970 1313.015 2137.017 L 1375.969 2074.063 1439.031 2137.033 L 1502.094 2200.003 1564.000 2138.000 L 1625.906 2075.997 1687.984 2137.984 L 1750.061 2199.970 1813.014 2137.017 L 1875.967 2074.064 1938.121 2136.032 L 2000.274 2198.000 1998.742 1306.000 C 1997.648 668.602,1995.932 407.721,1992.728 392.000 C 1985.816 358.078,1961.201 313.484,1932.685 283.224 C 1902.179 250.850,1872.061 230.214,1834.223 215.758 L 1806.000 204.976 1414.000 203.238 C 1198.400 202.282,944.600 202.524,850.000 203.777 M1826.985 280.686 C 1862.124 297.153,1895.560 329.437,1914.187 364.884 C 1928.900 392.882,1929.527 395.732,1932.477 447.938 C 1934.156 477.672,1935.636 849.355,1935.765 1273.900 L 1936.000 2045.800 1905.958 2015.958 L 1875.915 1986.116 1812.988 2049.043 L 1750.061 2111.970 1687.031 2049.033 L 1624.002 1986.095 1562.001 2047.999 L 1500.000 2109.903 1437.984 2047.984 L 1375.967 1986.064 1313.014 2049.017 L 1250.061 2111.970 1187.031 2049.033 L 1124.002 1986.095 1062.001 2047.999 L 1000.000 2109.903 938.023 2048.023 L 876.046 1986.142 844.023 2017.977 L 812.000 2049.812 811.851 1271.906 C 811.770 844.058,810.138 471.130,808.226 443.179 C 805.461 402.754,802.753 388.025,794.986 371.179 C 783.128 345.457,753.563 311.959,726.829 293.955 L 707.053 280.637 722.527 275.490 C 745.498 267.848,947.461 265.439,1406.000 267.338 L 1802.000 268.978 1826.985 280.686 M981.261 516.408 C 964.134 521.363,945.193 541.039,940.224 559.039 C 934.659 579.192,941.409 602.209,957.643 618.443 C 999.426 660.226,1073.020 619.730,1060.024 562.107 C 1055.206 540.742,1046.558 530.083,1026.327 520.574 C 1006.607 511.304,1000.765 510.764,981.261 516.408 M1225.802 517.417 C 1219.093 520.455,1208.814 528.631,1202.961 535.588 C 1164.639 581.131,1210.651 649.655,1268.015 632.468 C 1286.823 626.833,1306.714 604.924,1310.280 585.913 C 1318.647 541.315,1266.468 499.008,1225.802 517.417 M1481.261 516.408 C 1464.134 521.363,1445.193 541.039,1440.224 559.039 C 1434.659 579.192,1441.409 602.209,1457.643 618.443 C 1499.426 660.226,1573.020 619.730,1560.024 562.107 C 1555.206 540.742,1546.558 530.083,1526.327 520.574 C 1506.607 511.304,1500.765 510.764,1481.261 516.408 M1725.802 517.417 C 1719.093 520.455,1708.814 528.631,1702.961 535.588 C 1664.639 581.131,1710.651 649.655,1768.015 632.468 C 1786.823 626.833,1806.714 604.924,1810.280 585.913 C 1818.647 541.315,1766.468 499.008,1725.802 517.417 M936.896 825.000 L 938.000 886.000 1375.000 887.018 L 1812.000 888.035 1812.000 826.018 L 1812.000 764.000 1373.896 764.000 L 935.792 764.000 936.896 825.000 M936.000 1074.000 L 936.000 1136.000 1374.000 1136.000 L 1812.000 1136.000 1812.000 1074.000 L 1812.000 1012.000 1374.000 1012.000 L 936.000 1012.000 936.000 1074.000 M1676.000 1291.555 L 1676.000 1319.110 1661.138 1321.898 C 1626.790 1328.341,1596.291 1354.069,1583.974 1386.987 C 1574.360 1412.684,1573.924 1431.556,1582.293 1459.739 C 1591.600 1491.078,1615.542 1512.578,1673.812 1541.922 C 1726.790 1568.601,1737.091 1578.634,1737.091 1603.554 C 1737.091 1623.899,1727.378 1638.997,1709.478 1646.476 C 1680.138 1658.735,1648.430 1640.678,1639.291 1606.508 L 1634.341 1588.000 1598.611 1588.000 L 1562.881 1588.000 1565.099 1609.490 C 1569.442 1651.570,1595.675 1685.521,1634.754 1699.639 C 1670.231 1712.456,1669.866 1712.057,1671.191 1739.416 L 1672.382 1764.000 1692.191 1764.000 L 1712.000 1764.000 1712.055 1745.000 C 1712.144 1713.992,1714.803 1708.905,1732.489 1705.917 C 1754.189 1702.251,1783.784 1680.847,1797.346 1659.012 C 1812.247 1635.019,1815.547 1602.249,1806.275 1570.353 C 1796.973 1538.357,1776.385 1519.539,1717.221 1488.959 C 1690.980 1475.396,1666.318 1460.771,1662.416 1456.460 C 1652.955 1446.005,1649.707 1419.193,1656.047 1403.887 C 1661.934 1389.673,1678.195 1380.000,1696.201 1380.000 C 1714.980 1380.000,1733.992 1400.645,1737.642 1425.000 L 1740.490 1444.000 1776.802 1444.000 L 1813.114 1444.000 1810.775 1424.248 C 1805.268 1377.750,1772.411 1334.754,1734.211 1324.059 L 1716.000 1318.960 1716.000 1291.480 L 1716.000 1264.000 1696.000 1264.000 L 1676.000 1264.000 1676.000 1291.555 M954.897 1326.944 L 935.794 1328.447 936.897 1389.223 L 938.000 1450.000 1188.000 1450.000 L 1438.000 1450.000 1439.101 1389.641 L 1440.201 1329.282 1349.454 1326.641 C 1257.691 1323.970,990.095 1324.176,954.897 1326.944 M936.000 1638.000 L 936.000 1700.000 1188.000 1700.000 L 1440.000 1700.000 1440.000 1638.000 L 1440.000 1576.000 1188.000 1576.000 L 936.000 1576.000 936.000 1638.000 " fill="#1D1E23" stroke="none" fill-rule="evenodd"/></svg>