<svg viewBox="0 0 2400 2400" fill="none" xmlns="http://www.w3.org/2000/svg"><path d="M704.000 207.736 C 675.106 209.606,660.728 212.673,644.000 220.536 C 592.918 244.545,550.291 287.020,526.228 337.885 C 514.839 361.959,500.071 418.953,500.028 439.000 L 500.000 452.000 624.000 452.000 L 748.000 452.000 748.000 1283.386 C 748.000 1740.648,749.170 2131.248,750.599 2151.386 C 752.028 2171.523,754.927 2188.000,757.041 2188.000 C 759.155 2188.000,786.841 2162.426,818.565 2131.169 L 876.245 2074.339 939.170 2137.171 L 1002.094 2200.003 1064.000 2138.000 L 1125.906 2075.997 1187.984 2137.984 L 1250.061 2199.970 1313.015 2137.017 L 1375.969 2074.063 1439.015 2137.017 L 1502.061 2199.970 1564.063 2137.969 L 1626.064 2075.967 1687.985 2137.985 L 1749.906 2200.003 1812.952 2137.049 L 1875.998 2074.095 1937.999 2135.999 L 2000.000 2197.903 1999.536 1539.952 C 1999.281 1178.078,1997.855 770.400,1996.367 634.000 C 1993.681 387.796,1993.595 385.841,1984.527 364.081 C 1959.350 303.669,1912.982 254.932,1852.000 224.785 L 1814.000 206.000 1278.000 205.638 C 983.200 205.439,724.900 206.383,704.000 207.736 M1829.403 283.000 C 1866.066 302.247,1898.076 334.350,1916.000 369.848 L 1930.000 397.574 1932.607 553.787 C 1934.040 639.704,1935.390 1010.555,1935.607 1377.900 L 1936.000 2045.800 1905.958 2015.958 L 1875.915 1986.116 1812.988 2049.043 L 1750.061 2111.970 1687.031 2049.033 L 1624.002 1986.095 1562.001 2047.999 L 1500.000 2109.903 1437.984 2047.984 L 1375.967 1986.064 1313.014 2049.017 L 1250.061 2111.970 1187.031 2049.033 L 1124.002 1986.095 1062.001 2047.999 L 1000.000 2109.903 938.023 2048.023 L 876.046 1986.142 844.023 2017.977 L 812.000 2049.812 811.819 1297.906 C 811.634 532.126,809.872 412.690,798.279 379.935 C 789.465 355.033,760.337 319.176,731.939 298.271 C 712.601 284.035,709.470 280.230,715.093 277.801 C 731.097 270.888,835.844 269.264,1305.415 268.649 L 1800.830 268.000 1829.403 283.000 M981.900 516.242 C 965.571 520.993,943.786 544.234,940.289 560.635 C 934.615 587.241,949.512 618.112,973.526 629.507 C 991.780 638.169,1005.984 637.690,1026.586 627.716 C 1047.838 617.429,1060.000 598.653,1060.000 576.132 C 1060.000 549.638,1050.308 533.866,1026.840 522.171 C 1005.048 511.312,1000.781 510.749,981.900 516.242 M1232.680 514.865 C 1218.180 517.627,1192.849 545.407,1189.746 561.949 C 1186.075 581.515,1197.161 609.494,1213.357 621.544 C 1240.064 641.413,1268.717 639.283,1292.325 615.675 C 1324.990 583.010,1313.215 537.463,1267.128 518.212 C 1252.085 511.928,1249.444 511.671,1232.680 514.865 M1481.900 516.242 C 1465.571 520.993,1443.786 544.234,1440.289 560.635 C 1434.615 587.241,1449.512 618.112,1473.526 629.507 C 1491.780 638.169,1505.984 637.690,1526.586 627.716 C 1547.838 617.429,1560.000 598.653,1560.000 576.132 C 1560.000 549.638,1550.308 533.866,1526.840 522.171 C 1505.048 511.312,1500.781 510.749,1481.900 516.242 M1732.680 514.865 C 1718.180 517.627,1692.849 545.407,1689.746 561.949 C 1686.075 581.515,1697.161 609.494,1713.357 621.544 C 1740.064 641.413,1768.717 639.283,1792.325 615.675 C 1824.990 583.010,1813.215 537.463,1767.128 518.212 C 1752.085 511.928,1749.444 511.671,1732.680 514.865 M936.896 825.000 L 938.000 886.000 1375.000 887.018 L 1812.000 888.035 1812.000 826.018 L 1812.000 764.000 1373.896 764.000 L 935.792 764.000 936.896 825.000 M936.000 1074.000 L 936.000 1136.000 1374.000 1136.000 L 1812.000 1136.000 1812.000 1074.000 L 1812.000 1012.000 1374.000 1012.000 L 936.000 1012.000 936.000 1074.000 M1675.994 1291.000 L 1675.989 1318.000 1651.652 1325.152 C 1590.504 1343.122,1558.877 1414.914,1587.442 1470.906 C 1599.377 1494.301,1625.852 1516.222,1673.618 1542.260 C 1722.475 1568.892,1736.000 1581.954,1736.000 1602.506 C 1736.000 1627.523,1723.783 1642.557,1697.528 1649.850 C 1676.778 1655.614,1646.139 1632.039,1639.353 1605.086 L 1635.050 1588.000 1599.525 1588.000 L 1564.000 1588.000 1564.000 1599.274 C 1564.000 1605.475,1566.849 1620.141,1570.331 1631.865 C 1578.716 1660.101,1609.008 1690.673,1639.940 1702.118 C 1664.934 1711.365,1671.851 1721.066,1671.941 1747.000 L 1672.000 1764.000 1692.000 1764.000 L 1712.000 1764.000 1712.000 1743.737 C 1712.000 1716.614,1716.305 1710.074,1738.194 1703.946 C 1750.228 1700.576,1764.291 1691.833,1778.362 1678.973 C 1804.597 1654.996,1814.548 1628.311,1810.404 1593.050 C 1805.088 1547.820,1787.231 1528.079,1715.952 1488.633 C 1676.928 1467.037,1664.423 1458.037,1658.791 1447.495 C 1638.401 1409.330,1674.717 1366.720,1711.446 1385.714 C 1725.312 1392.884,1733.937 1406.934,1738.102 1429.138 L 1740.890 1444.000 1776.989 1444.000 L 1813.087 1444.000 1810.536 1425.000 C 1806.972 1398.462,1786.452 1358.617,1768.819 1343.999 C 1760.669 1337.242,1745.450 1328.655,1735.000 1324.918 L 1716.000 1318.122 1716.000 1291.061 L 1716.000 1264.000 1696.000 1264.000 L 1676.000 1264.000 1675.994 1291.000 M970.897 1326.980 L 935.793 1328.314 936.897 1389.157 L 938.000 1450.000 1188.000 1450.000 L 1438.000 1450.000 1439.101 1389.646 L 1440.201 1329.292 1325.450 1326.646 C 1214.334 1324.084,1042.818 1324.245,970.897 1326.980 M936.000 1638.000 L 936.000 1700.000 1188.000 1700.000 L 1440.000 1700.000 1440.000 1638.000 L 1440.000 1576.000 1188.000 1576.000 L 936.000 1576.000 936.000 1638.000 " fill="#1D1E23" stroke="none" fill-rule="evenodd"/></svg>