<svg viewBox="0 0 2400 2400" fill="none" xmlns="http://www.w3.org/2000/svg"><path d="M390.000 209.621 C 298.452 232.236,225.233 309.997,206.191 404.831 C 198.535 442.957,198.495 462.145,205.997 498.000 C 221.305 571.162,273.600 638.763,340.390 671.729 C 412.570 707.356,487.646 707.322,559.672 671.632 C 646.921 628.398,706.514 527.706,698.326 437.352 C 692.624 374.426,668.582 320.256,628.743 280.570 C 586.409 238.400,548.536 217.205,498.589 207.732 C 471.670 202.627,414.269 203.626,390.000 209.621 M509.457 343.205 C 529.530 354.104,549.518 375.562,562.361 400.000 C 573.947 422.048,572.834 476.033,560.263 501.692 C 523.018 577.720,430.906 596.452,367.603 540.871 C 310.311 490.568,317.674 392.314,382.126 347.057 C 413.128 325.288,473.114 323.473,509.457 343.205 M1030.000 391.839 C 909.435 393.390,859.619 395.366,853.566 398.838 C 843.217 404.774,832.324 420.923,827.631 437.287 C 819.004 467.368,844.459 502.717,878.816 508.368 C 889.367 510.103,1097.800 511.758,1342.000 512.046 C 1586.200 512.334,1799.874 513.833,1816.831 515.377 C 1852.417 518.619,1865.921 526.297,1877.668 549.967 C 1884.102 562.930,1885.641 577.047,1887.232 637.652 L 1889.127 709.885 1848.002 670.782 C 1798.054 623.290,1777.313 610.091,1757.645 613.283 C 1723.258 618.863,1696.165 652.304,1701.780 682.236 C 1704.457 696.506,1747.803 744.759,1881.228 882.000 L 1947.337 950.000 2016.061 882.000 C 2133.553 765.746,2194.646 698.469,2197.751 681.920 C 2203.338 652.138,2176.443 618.815,2142.355 613.283 C 2123.001 610.142,2102.424 622.991,2055.134 667.746 C 2034.065 687.686,2015.741 704.000,2014.413 704.000 C 2013.086 704.000,2011.968 677.450,2011.929 645.000 C 2011.822 556.485,2007.110 520.956,1991.625 491.902 C 1975.642 461.914,1936.219 424.326,1902.816 407.224 L 1878.000 394.520 1700.000 391.599 C 1505.674 388.410,1290.586 388.487,1030.000 391.839 M1905.365 1080.136 C 1856.594 1088.864,1809.829 1114.957,1771.664 1154.736 C 1696.871 1232.692,1680.479 1337.301,1727.903 1434.000 C 1763.294 1506.164,1824.991 1552.215,1910.028 1569.938 C 2023.521 1593.593,2146.834 1517.605,2186.051 1399.847 C 2207.082 1336.695,2202.528 1279.292,2171.465 1216.000 C 2149.828 1171.916,2103.379 1124.159,2063.659 1105.160 C 2015.701 1082.221,1950.932 1071.982,1905.365 1080.136 M1990.690 1209.981 C 2017.385 1217.909,2044.671 1242.420,2058.775 1271.142 C 2074.164 1302.480,2074.828 1348.190,2060.323 1377.662 C 2015.710 1468.305,1887.477 1470.953,1842.071 1382.169 C 1831.565 1361.625,1830.008 1354.381,1830.060 1326.283 C 1830.106 1301.254,1832.173 1289.506,1839.257 1274.000 C 1853.725 1242.334,1881.528 1216.999,1911.974 1207.737 C 1929.025 1202.551,1969.559 1203.706,1990.690 1209.981 M654.000 1267.801 L 458.000 1270.000 435.750 1280.435 C 409.678 1292.663,364.696 1333.270,350.683 1357.228 C 327.072 1397.595,326.723 1401.060,324.964 1612.807 C 323.949 1734.863,324.914 1820.445,327.548 1841.974 C 336.519 1915.318,383.755 1976.108,451.068 2000.936 C 472.002 2008.658,484.201 2009.540,591.091 2011.058 L 708.183 2012.722 666.725 2055.987 C 610.925 2114.218,604.418 2128.918,619.622 2162.396 C 628.547 2182.048,646.965 2196.114,667.187 2198.722 C 690.414 2201.717,710.480 2185.374,835.990 2061.236 L 950.000 1948.472 886.000 1883.837 C 793.822 1790.744,712.724 1716.248,693.271 1706.797 C 678.569 1699.654,674.404 1699.212,660.648 1703.333 C 640.509 1709.367,617.385 1734.548,613.638 1754.524 C 609.573 1776.191,621.543 1795.998,668.911 1845.982 L 708.729 1888.000 609.082 1888.000 L 509.435 1888.000 487.717 1877.000 C 475.712 1870.919,463.790 1861.528,461.059 1856.000 C 457.330 1848.454,456.103 1794.664,456.059 1636.801 C 455.995 1409.136,455.628 1413.027,478.594 1397.979 C 489.002 1391.159,517.698 1390.637,1009.798 1388.326 C 1588.904 1385.605,1545.500 1387.933,1563.614 1358.625 C 1579.107 1333.556,1571.897 1291.980,1549.514 1277.313 C 1539.472 1270.734,1524.567 1269.742,1400.180 1267.373 C 1243.442 1264.388,942.791 1264.561,654.000 1267.801 M1260.495 1710.311 C 1203.909 1725.530,1134.160 1779.525,1108.222 1828.190 C 1068.882 1901.999,1066.783 1984.737,1102.360 2059.235 C 1129.916 2116.936,1199.085 2174.269,1262.000 2191.559 C 1286.653 2198.333,1366.672 2197.139,1392.274 2189.615 C 1467.002 2167.652,1526.277 2112.150,1558.467 2034.000 C 1569.301 2007.697,1569.999 2002.607,1569.976 1950.000 C 1569.955 1901.849,1568.700 1890.674,1561.022 1870.271 C 1547.751 1835.004,1529.079 1806.563,1500.000 1777.324 C 1449.337 1726.383,1393.713 1703.760,1320.360 1704.263 C 1299.262 1704.408,1272.323 1707.129,1260.495 1710.311 M1379.071 1839.632 C 1398.977 1849.928,1430.140 1882.415,1437.816 1900.872 C 1447.351 1923.800,1446.191 1980.947,1435.754 2002.508 C 1409.657 2056.417,1347.810 2084.105,1288.915 2068.246 C 1266.838 2062.302,1233.307 2034.795,1218.045 2010.109 C 1206.715 1991.783,1206.005 1988.235,1206.088 1950.314 C 1206.161 1916.855,1207.633 1907.279,1214.749 1894.000 C 1230.021 1865.499,1262.609 1839.793,1294.000 1831.486 C 1313.435 1826.344,1362.455 1831.037,1379.071 1839.632 " fill="#1D1E23" stroke="none" fill-rule="evenodd"/></svg>