<svg viewBox="0 0 2400 2400" fill="none" xmlns="http://www.w3.org/2000/svg"><path d="M377.788 213.613 C 336.778 226.458,288.668 259.704,258.570 296.000 C 227.018 334.048,200.000 407.482,200.000 455.192 C 200.000 478.690,214.429 530.823,229.008 560.000 C 245.530 593.064,291.046 641.216,324.604 661.133 C 422.045 718.962,531.879 707.058,615.542 629.598 C 669.899 579.272,696.866 521.931,697.183 456.000 C 697.526 384.509,674.772 330.548,622.098 277.943 C 587.244 243.134,556.158 224.107,517.834 214.125 C 488.790 206.560,401.327 206.240,377.788 213.613 M504.000 341.711 C 523.246 351.568,546.957 374.817,557.328 394.000 C 564.462 407.195,565.980 416.661,565.989 448.000 C 565.998 480.524,564.578 488.784,556.132 505.319 C 511.987 591.740,387.105 592.997,344.357 507.450 C 312.760 444.219,341.955 359.654,402.608 338.724 C 428.282 329.864,484.078 331.508,504.000 341.711 M1089.134 392.204 C 972.057 393.774,869.982 396.239,862.299 397.680 C 828.581 404.006,816.811 457.335,842.416 487.765 C 847.970 494.366,859.149 501.755,867.257 504.187 C 877.367 507.219,1031.352 509.695,1357.247 512.067 L 1832.494 515.526 1850.356 524.172 C 1860.891 529.272,1870.755 537.725,1874.402 544.778 C 1880.817 557.183,1887.734 626.137,1887.905 679.395 L 1888.000 708.790 1857.000 679.736 C 1820.718 645.731,1782.690 616.827,1770.062 613.658 C 1757.076 610.399,1725.381 626.723,1712.884 643.107 C 1695.954 665.304,1698.072 681.966,1721.448 710.491 C 1741.771 735.290,1887.741 890.629,1925.749 927.905 L 1948.084 949.809 2004.439 893.905 C 2073.071 825.822,2169.217 723.658,2184.664 702.400 C 2204.520 675.074,2197.029 643.177,2166.294 624.182 C 2135.818 605.346,2116.488 613.323,2050.292 672.050 C 2027.447 692.318,2017.681 698.758,2015.353 695.090 C 2013.576 692.291,2012.032 663.900,2011.922 632.000 C 2011.683 563.103,2004.804 519.909,1989.630 492.029 C 1976.045 467.069,1929.185 421.949,1901.248 406.929 L 1880.656 395.858 1637.328 392.008 C 1503.498 389.891,1373.300 388.427,1348.000 388.754 C 1322.700 389.081,1206.210 390.633,1089.134 392.204 M1884.449 1086.322 C 1827.922 1101.524,1766.134 1150.579,1733.964 1205.796 C 1728.771 1214.708,1719.581 1236.400,1713.541 1254.000 C 1669.488 1382.368,1756.512 1531.424,1895.950 1566.434 C 1931.759 1575.425,1997.242 1572.452,2028.583 1560.412 C 2095.381 1534.752,2166.137 1462.100,2186.680 1398.079 C 2196.551 1367.317,2198.407 1294.358,2190.054 1265.459 C 2157.150 1151.622,2059.935 1079.649,1940.000 1080.333 C 1921.300 1080.439,1896.302 1083.135,1884.449 1086.322 M1993.702 1212.404 C 2018.217 1219.210,2052.562 1256.089,2061.709 1285.428 C 2080.411 1345.412,2055.333 1408.082,2002.232 1434.062 C 1985.049 1442.469,1975.221 1444.444,1950.584 1444.444 C 1902.292 1444.444,1869.307 1425.693,1844.909 1384.368 C 1831.116 1361.006,1827.454 1309.057,1837.708 1282.207 C 1848.142 1254.888,1865.920 1233.354,1888.943 1220.151 C 1907.829 1209.320,1913.506 1208.074,1944.000 1208.060 C 1962.700 1208.051,1985.066 1210.006,1993.702 1212.404 M729.648 1267.594 L 453.296 1270.000 430.431 1284.195 C 400.919 1302.518,354.245 1348.836,344.029 1369.939 C 329.451 1400.055,327.506 1423.338,325.316 1594.000 C 322.743 1794.515,326.364 1860.970,341.684 1894.433 C 365.252 1945.914,406.966 1984.858,455.310 2000.513 C 479.230 2008.260,493.313 2009.352,591.000 2011.036 C 650.950 2012.070,700.000 2014.497,700.000 2016.429 C 700.000 2018.361,686.293 2034.805,669.541 2052.971 C 636.754 2088.524,618.782 2112.615,614.250 2127.090 C 606.751 2151.040,631.883 2188.429,660.695 2196.187 C 674.774 2199.978,678.443 2199.328,693.812 2190.322 C 711.213 2180.124,830.102 2069.120,907.936 1990.399 L 949.873 1947.984 895.936 1893.768 C 826.572 1824.043,724.284 1729.177,703.206 1715.021 C 682.160 1700.886,662.867 1700.596,642.972 1714.115 C 618.062 1731.041,608.175 1761.513,620.129 1784.516 C 627.178 1798.080,649.753 1825.465,681.509 1858.973 L 709.017 1888.000 607.292 1888.000 L 505.566 1888.000 486.697 1876.033 C 476.319 1869.452,465.714 1859.102,463.131 1853.033 C 459.752 1845.094,458.374 1784.790,458.218 1638.000 C 457.981 1416.442,458.582 1409.609,479.116 1400.182 C 490.710 1394.859,472.672 1395.199,1144.000 1387.624 C 1340.900 1385.403,1512.540 1382.213,1525.423 1380.535 C 1551.442 1377.147,1560.450 1369.380,1568.506 1343.386 C 1574.594 1323.743,1569.978 1302.340,1556.369 1287.109 L 1545.167 1274.571 1473.583 1271.691 C 1354.088 1266.882,1021.664 1265.052,729.648 1267.594 M1242.791 1717.490 C 1123.495 1767.795,1058.719 1878.290,1081.786 1992.131 C 1098.689 2075.552,1144.476 2133.071,1230.338 2178.747 L 1264.874 2197.119 1325.437 2195.044 C 1377.928 2193.246,1389.268 2191.635,1410.519 2182.960 C 1477.761 2155.511,1537.204 2092.918,1560.753 2024.762 C 1568.448 2002.492,1569.984 1989.942,1569.903 1950.000 C 1569.746 1872.640,1555.376 1837.674,1501.066 1782.507 C 1468.663 1749.592,1447.705 1734.650,1414.687 1720.920 C 1392.569 1711.722,1383.547 1710.500,1328.000 1709.178 C 1269.454 1707.785,1264.707 1708.248,1242.791 1717.490 M1364.899 1836.182 C 1385.225 1841.827,1410.599 1862.067,1426.650 1885.437 C 1439.831 1904.627,1440.000 1905.441,1440.000 1949.654 C 1440.000 1991.947,1439.371 1995.426,1428.672 2012.296 C 1406.085 2047.912,1373.410 2067.006,1328.620 2070.761 C 1294.820 2073.595,1273.504 2065.211,1243.752 2037.381 C 1213.329 2008.924,1208.000 1995.864,1208.000 1949.764 C 1208.000 1904.209,1213.136 1890.464,1239.910 1864.367 C 1265.332 1839.588,1283.703 1832.189,1320.000 1832.110 C 1336.500 1832.074,1356.705 1833.907,1364.899 1836.182 " fill="#1D1E23" stroke="none" fill-rule="evenodd"/></svg>