<svg viewBox="0 0 2400 2400" fill="none" xmlns="http://www.w3.org/2000/svg"><path d="M396.523 205.896 C 344.828 217.657,287.044 253.306,255.637 292.816 C 176.157 392.803,183.981 536.368,273.806 626.194 C 371.536 723.923,528.063 723.808,625.935 625.935 C 703.604 548.267,721.141 436.936,671.553 336.343 C 643.414 279.262,586.817 231.407,524.000 211.583 C 489.858 200.808,430.525 198.161,396.523 205.896 M502.346 337.833 C 598.267 380.856,597.048 518.344,500.346 563.469 C 466.601 579.216,430.614 578.323,395.141 560.860 C 350.810 539.036,326.714 499.950,326.684 449.816 C 326.629 358.304,418.049 300.024,502.346 337.833 M864.000 392.483 C 838.023 402.811,820.542 434.647,826.194 461.335 C 829.951 479.076,846.616 499.830,862.399 506.424 C 873.557 511.087,954.260 512.000,1355.024 512.000 L 1834.305 512.000 1852.152 521.000 C 1865.191 527.575,1872.425 534.809,1879.000 547.848 C 1887.338 564.382,1888.000 570.986,1888.000 637.617 L 1888.000 709.539 1845.000 667.302 C 1821.350 644.071,1796.239 622.125,1789.199 618.532 C 1744.372 595.658,1691.097 638.358,1702.079 688.359 C 1704.252 698.255,1733.574 730.675,1825.363 824.671 C 1891.600 892.502,1946.811 948.000,1948.053 948.000 C 1949.295 948.000,2004.241 894.050,2070.156 828.112 C 2158.308 739.927,2191.480 704.177,2195.597 692.923 C 2213.737 643.336,2158.006 594.444,2110.801 618.532 C 2103.761 622.125,2078.650 644.071,2055.000 667.302 L 2012.000 709.539 2011.953 629.770 C 2011.902 545.630,2008.942 524.996,1991.852 489.694 C 1970.512 445.611,1914.699 402.886,1864.803 392.438 C 1836.853 386.586,878.725 386.629,864.000 392.483 M1894.000 1081.973 C 1775.770 1108.267,1692.632 1220.435,1701.216 1342.072 C 1714.237 1526.577,1917.225 1633.517,2076.539 1539.802 C 2167.679 1486.190,2216.737 1375.620,2194.243 1274.516 C 2163.641 1136.966,2030.538 1051.608,1894.000 1081.973 M2001.528 1211.795 C 2029.354 1225.304,2046.927 1242.838,2060.722 1270.860 C 2086.190 1322.593,2075.127 1378.466,2031.679 1417.529 C 1983.469 1460.874,1915.052 1460.135,1866.481 1415.744 C 1838.472 1390.145,1826.857 1363.995,1826.621 1326.000 C 1826.268 1269.333,1862.259 1220.299,1915.169 1205.361 C 1939.600 1198.463,1980.316 1201.497,2001.528 1211.795 M466.510 1268.441 C 420.726 1279.193,367.540 1321.494,345.756 1364.481 C 325.149 1405.147,324.123 1418.026,324.059 1636.803 C 324.020 1769.636,325.525 1846.920,328.420 1860.803 C 339.367 1913.294,378.655 1967.030,422.215 1989.089 C 464.225 2010.362,476.754 2012.000,597.505 2012.000 L 709.557 2012.000 664.998 2057.164 C 640.490 2082.004,618.539 2107.321,616.219 2113.424 C 597.866 2161.696,642.715 2211.333,691.386 2196.616 C 702.643 2193.212,734.024 2164.128,828.000 2070.000 L 950.000 1947.802 830.000 1828.334 C 701.226 1700.131,695.132 1695.521,662.504 1701.642 C 635.102 1706.782,612.000 1735.339,612.000 1764.070 C 612.000 1783.992,622.569 1799.460,667.302 1845.000 L 709.539 1888.000 606.032 1888.000 C 509.519 1888.000,501.370 1887.440,485.414 1879.716 C 476.002 1875.160,464.634 1865.498,460.151 1858.244 C 452.225 1845.420,452.000 1839.349,452.000 1638.329 C 452.000 1410.718,451.280 1417.617,476.940 1399.315 L 490.000 1390.000 1012.313 1388.000 L 1534.625 1386.000 1548.956 1375.069 C 1577.273 1353.468,1582.950 1313.627,1561.364 1287.974 C 1539.751 1262.288,1579.233 1263.961,1005.199 1264.402 C 706.788 1264.631,475.345 1266.366,466.510 1268.441 M1272.000 1705.944 C 1202.100 1721.699,1133.066 1774.843,1103.058 1836.000 C 1029.606 1985.696,1112.127 2158.115,1274.516 2194.243 C 1296.899 2199.223,1314.875 2200.480,1340.234 2198.837 C 1525.822 2186.813,1633.979 1983.570,1539.903 1823.631 C 1510.261 1773.237,1457.535 1731.030,1400.548 1712.076 C 1366.890 1700.881,1307.113 1698.030,1272.000 1705.944 M1377.080 1836.897 C 1401.422 1847.304,1433.008 1881.426,1441.576 1906.571 C 1449.795 1930.694,1449.795 1969.306,1441.576 1993.429 C 1432.752 2019.326,1401.517 2052.586,1375.080 2064.234 C 1345.214 2077.395,1301.755 2077.224,1274.000 2063.837 C 1248.486 2051.531,1221.744 2024.831,1210.849 2000.785 C 1199.967 1976.768,1199.103 1925.753,1209.186 1902.647 C 1237.392 1838.018,1311.667 1808.930,1377.080 1836.897 " fill="#1D1E23" stroke="none" fill-rule="evenodd"/></svg>