<svg viewBox="0 0 2400 2400" fill="none" xmlns="http://www.w3.org/2000/svg"><path d="M408.000 206.543 C 363.357 212.307,310.439 240.501,273.771 278.059 C 217.436 335.760,190.048 422.821,205.449 495.235 C 227.714 599.916,312.420 679.151,419.774 695.718 C 570.347 718.955,719.163 572.141,696.317 422.896 C 686.897 361.364,665.465 318.344,623.935 277.606 C 573.174 227.813,529.144 208.360,462.073 206.091 C 440.033 205.346,415.700 205.549,408.000 206.543 M505.507 342.034 C 524.819 351.198,549.614 376.545,559.750 397.483 C 571.933 422.650,571.348 474.670,558.574 502.000 C 524.631 574.627,430.354 594.444,368.926 541.865 C 310.248 491.639,319.800 384.585,386.444 345.528 C 416.473 327.930,472.331 326.291,505.507 342.034 M1076.000 391.976 C 927.318 393.741,859.426 395.914,853.566 399.095 C 833.811 409.823,822.229 442.686,830.117 465.630 C 836.641 484.607,846.372 495.463,864.000 503.435 C 876.420 509.050,931.730 510.031,1354.000 512.123 L 1830.000 514.482 1849.156 523.085 C 1878.928 536.456,1883.572 550.741,1886.755 638.731 L 1889.329 709.901 1847.832 671.005 C 1825.010 649.613,1797.051 627.248,1785.703 621.307 L 1765.071 610.504 1746.722 617.512 C 1724.587 625.965,1705.357 646.698,1701.733 666.016 C 1699.613 677.317,1701.093 683.235,1709.008 695.102 C 1721.731 714.177,1788.257 786.483,1877.288 878.000 L 1947.331 950.000 2016.088 882.000 C 2103.530 795.521,2186.086 706.112,2194.112 689.200 C 2206.883 662.286,2184.706 626.525,2148.521 615.683 C 2134.297 611.422,2131.115 611.983,2112.725 621.992 C 2101.623 628.034,2076.379 648.057,2056.627 666.489 C 2036.875 684.920,2018.753 700.000,2016.357 700.000 C 2013.409 700.000,2012.000 680.692,2012.000 640.289 C 2012.000 565.241,2006.617 524.283,1993.047 496.066 C 1979.420 467.733,1937.087 425.958,1904.286 408.475 L 1878.965 394.979 1650.483 391.700 C 1404.336 388.167,1396.691 388.171,1076.000 391.976 M1910.100 1080.626 C 1842.312 1087.640,1762.627 1147.074,1728.582 1216.012 C 1696.995 1279.972,1693.016 1337.624,1715.672 1403.052 C 1750.769 1504.412,1845.696 1572.792,1952.000 1573.292 C 2016.596 1573.596,2069.243 1550.663,2120.237 1500.009 C 2174.479 1446.129,2197.622 1393.376,2197.455 1324.000 C 2197.380 1292.943,2195.290 1279.896,2186.016 1252.591 C 2145.776 1134.110,2038.626 1067.328,1910.100 1080.626 M2004.304 1216.155 C 2075.812 1252.636,2091.851 1355.326,2034.768 1411.204 C 2009.546 1435.893,1984.267 1445.930,1948.000 1445.658 C 1900.030 1445.297,1863.658 1422.740,1841.941 1379.883 C 1833.583 1363.390,1832.000 1354.637,1832.000 1324.918 C 1832.000 1294.926,1833.566 1286.428,1842.336 1268.830 C 1855.103 1243.210,1883.293 1217.796,1907.636 1209.960 C 1932.169 1202.064,1983.077 1205.326,2004.304 1216.155 M708.000 1267.806 L 454.000 1270.000 430.222 1283.739 C 397.680 1302.541,355.853 1344.816,342.490 1372.411 C 332.947 1392.119,331.143 1402.363,327.542 1457.342 C 325.289 1491.728,324.123 1594.143,324.950 1684.931 C 326.582 1864.018,326.834 1866.240,350.911 1913.785 C 365.686 1942.960,402.600 1977.893,434.362 1992.757 C 467.887 2008.445,496.110 2011.412,615.000 2011.748 C 663.950 2011.887,704.000 2013.086,704.000 2014.413 C 704.000 2015.741,687.686 2034.065,667.746 2055.134 C 609.462 2116.719,602.517 2135.239,624.415 2170.672 C 635.130 2188.009,662.862 2201.764,679.662 2198.074 C 697.089 2194.247,735.171 2160.547,846.983 2050.008 L 950.000 1948.164 862.000 1860.917 C 760.317 1760.104,703.882 1709.902,685.370 1703.792 C 656.270 1694.188,613.950 1728.542,614.048 1761.689 C 614.109 1782.127,626.652 1800.844,673.898 1851.000 L 708.752 1888.000 607.159 1888.000 L 505.566 1888.000 487.783 1876.683 C 455.826 1856.346,458.152 1872.527,456.671 1660.263 C 455.332 1468.280,457.877 1416.408,469.195 1405.091 C 472.318 1401.967,481.878 1397.757,490.437 1395.735 C 499.079 1393.694,701.670 1391.039,946.000 1389.765 C 1396.690 1387.416,1532.339 1384.381,1547.422 1376.309 C 1558.749 1370.247,1572.022 1343.609,1571.912 1327.159 C 1571.777 1306.963,1558.173 1280.662,1545.182 1275.483 C 1537.980 1272.611,1467.805 1269.866,1348.000 1267.768 C 1151.393 1264.325,1110.768 1264.328,708.000 1267.806 M1273.615 1708.072 C 1234.876 1715.076,1192.418 1738.439,1151.280 1775.389 C 1097.594 1823.609,1068.106 1909.090,1079.600 1983.173 C 1092.925 2069.054,1143.582 2135.425,1227.722 2177.241 L 1261.445 2194.000 1323.722 2193.895 C 1384.935 2193.792,1386.513 2193.569,1416.000 2180.874 C 1473.160 2156.263,1520.115 2111.204,1548.686 2053.545 C 1569.317 2011.910,1575.156 1973.406,1569.423 1916.809 C 1563.716 1860.469,1546.229 1825.919,1500.142 1779.928 C 1464.356 1744.216,1435.452 1725.972,1396.000 1714.196 C 1369.636 1706.327,1301.988 1702.942,1273.615 1708.072 M1368.212 1836.342 C 1385.748 1840.713,1411.875 1862.621,1429.054 1887.358 C 1441.658 1905.508,1441.998 1907.108,1441.931 1948.000 C 1441.873 1983.247,1440.480 1992.573,1433.270 2006.000 C 1422.208 2026.599,1398.793 2048.749,1376.000 2060.175 C 1353.899 2071.255,1311.600 2075.076,1289.566 2067.984 C 1267.358 2060.835,1237.931 2037.389,1221.834 2014.017 C 1208.103 1994.080,1208.000 1993.603,1208.000 1949.748 C 1208.000 1908.050,1208.641 1904.556,1219.395 1887.599 C 1230.336 1870.346,1252.284 1850.250,1270.761 1840.566 C 1293.090 1828.863,1331.527 1827.197,1368.212 1836.342 " fill="#1D1E23" stroke="none" fill-rule="evenodd"/></svg>