<svg viewBox="0 0 2400 2400" fill="none" xmlns="http://www.w3.org/2000/svg"><path d="M416.000 204.243 C 368.250 208.686,310.001 238.337,269.771 278.679 C 224.201 324.376,195.943 401.895,201.386 466.280 C 210.093 569.291,276.994 654.886,373.686 686.726 C 419.925 701.952,480.093 701.971,526.000 686.773 C 609.781 659.037,676.276 585.056,694.561 499.235 C 706.583 442.811,693.614 372.042,661.591 319.326 C 641.870 286.862,594.639 244.205,559.223 226.871 C 518.466 206.923,469.810 199.236,416.000 204.243 M921.307 391.805 C 860.027 393.884,856.077 394.506,846.408 403.603 C 840.794 408.884,833.189 421.093,829.507 430.734 C 820.971 453.085,826.404 474.137,845.681 493.415 C 857.384 505.117,862.387 507.070,886.509 509.347 C 901.629 510.775,1120.622 511.956,1373.159 511.972 C 1815.796 511.999,1832.853 512.273,1847.159 519.574 C 1882.087 537.401,1887.597 553.912,1887.824 641.437 L 1888.000 708.875 1844.374 667.071 C 1785.795 610.938,1771.113 604.403,1737.686 619.585 C 1705.659 634.131,1693.747 662.474,1706.085 694.778 C 1711.778 709.686,1735.542 735.854,1830.339 831.606 L 1947.554 950.000 2044.142 854.000 C 2165.911 732.972,2194.727 700.851,2198.215 682.260 C 2202.099 661.555,2186.939 632.758,2166.000 621.066 C 2132.842 602.551,2115.609 609.592,2057.279 665.487 L 2012.785 708.122 2011.031 621.061 C 2009.604 550.254,2007.925 530.266,2002.038 514.000 C 1985.447 468.159,1950.172 430.462,1900.518 405.510 C 1878.780 394.587,1875.229 394.101,1798.000 391.497 C 1704.564 388.345,1016.155 388.588,921.307 391.805 M1896.000 1081.952 C 1778.053 1108.499,1693.489 1220.208,1701.410 1339.004 C 1708.333 1442.814,1777.128 1530.580,1876.000 1561.738 C 1918.716 1575.199,1951.368 1577.631,1992.000 1570.377 C 2091.911 1552.541,2173.255 1472.838,2194.461 1372.000 C 2214.969 1274.480,2166.284 1165.383,2078.753 1112.717 C 2026.057 1081.010,1954.046 1068.888,1896.000 1081.952 M556.000 1267.838 C 441.678 1270.261,441.956 1270.196,398.000 1304.818 C 356.793 1337.275,334.433 1375.533,328.083 1424.448 C 323.141 1462.523,322.987 1817.879,327.899 1851.863 C 338.907 1928.035,404.190 1995.956,478.000 2008.028 C 491.200 2010.187,548.629 2011.964,605.619 2011.977 L 709.239 2012.000 668.869 2053.494 C 623.065 2100.572,612.036 2116.408,612.015 2135.128 C 611.982 2164.176,635.046 2192.809,662.976 2198.395 C 690.618 2203.924,699.754 2196.778,827.886 2069.411 L 950.000 1948.027 837.698 1836.368 C 723.487 1722.811,696.065 1699.948,674.217 1700.066 C 656.052 1700.164,631.413 1715.957,621.147 1734.082 C 602.553 1766.912,610.015 1784.832,667.071 1844.374 L 708.875 1888.000 607.285 1888.000 C 509.818 1888.000,504.980 1887.635,488.082 1879.000 C 478.394 1874.050,466.763 1864.918,462.234 1858.708 C 454.179 1847.661,454.000 1843.013,454.000 1644.708 C 454.000 1533.218,455.425 1435.284,457.167 1427.076 C 459.358 1416.750,464.808 1408.740,474.855 1401.076 L 489.376 1390.000 1009.688 1388.636 C 1518.136 1387.304,1530.292 1387.094,1542.798 1379.435 C 1569.669 1362.979,1580.900 1330.120,1568.855 1303.197 C 1555.821 1274.062,1550.164 1271.264,1497.053 1267.684 C 1445.754 1264.226,720.797 1264.344,556.000 1267.838 M1290.000 1704.453 C 1225.919 1710.423,1152.518 1757.517,1114.385 1817.128 C 1081.386 1868.714,1068.473 1941.778,1081.782 2001.599 C 1101.156 2088.680,1161.970 2156.232,1248.660 2186.967 C 1273.743 2195.859,1284.675 2197.371,1324.000 2197.386 C 1363.095 2197.400,1374.804 2195.810,1402.000 2186.791 C 1465.200 2165.833,1519.226 2118.364,1547.501 2058.950 C 1567.855 2016.179,1573.854 1990.142,1573.522 1946.000 C 1573.025 1879.725,1549.348 1824.870,1499.987 1775.635 C 1442.568 1718.361,1377.492 1696.301,1290.000 1704.453 " fill="#1D1E23" stroke="none" fill-rule="evenodd"/></svg>