<svg viewBox="0 0 2400 2400" fill="none" xmlns="http://www.w3.org/2000/svg"><path d="M200.000 462.000 L 200.000 524.000 563.000 523.784 L 926.000 523.567 1048.000 462.000 L 1170.000 400.433 685.000 400.216 L 200.000 400.000 200.000 462.000 M1143.971 554.582 C 975.687 639.404,808.562 724.124,772.583 742.850 L 707.166 776.896 748.583 799.036 C 771.362 811.213,938.137 894.951,1119.193 985.122 L 1448.386 1149.068 1493.193 1127.914 C 1550.019 1101.086,2105.430 823.426,2155.363 796.883 L 2192.727 777.022 2119.363 739.025 C 2079.014 718.126,1911.887 633.377,1747.971 550.694 L 1449.941 400.360 1143.971 554.582 M200.000 714.000 L 200.000 776.000 388.000 776.000 L 576.000 776.000 576.000 736.918 L 576.000 697.836 621.000 675.151 L 666.000 652.465 433.000 652.232 L 200.000 652.000 200.000 714.000 M200.000 962.000 L 200.000 1024.000 388.000 1024.000 L 576.000 1024.000 576.000 962.000 L 576.000 900.000 388.000 900.000 L 200.000 900.000 200.000 962.000 M700.000 1227.991 L 700.000 1555.991 1044.000 1728.000 L 1388.000 1900.009 1388.000 1572.009 L 1388.000 1244.009 1044.000 1072.000 L 700.000 899.991 700.000 1227.991 M1855.000 1072.225 L 1512.000 1244.009 1512.000 1572.009 L 1512.000 1900.009 1856.000 1728.000 L 2200.000 1555.991 2200.000 1227.995 C 2200.000 1047.598,2199.550 900.099,2199.000 900.220 C 2198.450 900.341,2043.650 977.743,1855.000 1072.225 " fill="#1D1E23" stroke="none" fill-rule="evenodd"/></svg>