<svg viewBox="0 0 2400 2400" fill="none" xmlns="http://www.w3.org/2000/svg"><path d="M200.000 462.000 L 200.000 524.000 563.000 523.784 L 926.000 523.567 1048.000 462.000 L 1170.000 400.433 685.000 400.216 L 200.000 400.000 200.000 462.000 M1078.998 586.694 C 874.949 689.009,708.000 774.425,708.000 776.508 C 708.000 780.413,1442.200 1148.000,1450.000 1148.000 C 1457.801 1148.000,2192.000 780.413,2192.000 776.507 C 2192.000 774.423,2025.049 689.007,1820.998 586.693 L 1449.995 400.668 1078.998 586.694 M200.000 714.000 L 200.000 776.000 388.000 776.000 L 576.000 776.000 576.000 736.918 L 576.000 697.836 621.000 675.151 L 666.000 652.465 433.000 652.232 L 200.000 652.000 200.000 714.000 M200.000 962.000 L 200.000 1024.000 388.000 1024.000 L 576.000 1024.000 576.000 962.000 L 576.000 900.000 388.000 900.000 L 200.000 900.000 200.000 962.000 M700.000 1227.991 L 700.000 1555.991 1044.000 1728.000 L 1388.000 1900.009 1388.000 1572.009 L 1388.000 1244.009 1044.000 1072.000 L 700.000 899.991 700.000 1227.991 M1855.000 1072.225 L 1512.000 1244.009 1512.000 1572.009 L 1512.000 1900.009 1856.000 1728.000 L 2200.000 1555.991 2200.000 1227.995 C 2200.000 1047.598,2199.550 900.099,2199.000 900.220 C 2198.450 900.341,2043.650 977.743,1855.000 1072.225 " fill="#1D1E23" stroke="none" fill-rule="evenodd"/></svg>