<svg viewBox="0 0 2400 2400" fill="none" xmlns="http://www.w3.org/2000/svg"><path d="M200.000 462.000 L 200.000 524.000 563.000 523.784 L 926.000 523.567 1048.000 462.000 L 1170.000 400.433 685.000 400.216 L 200.000 400.000 200.000 462.000 M1077.000 587.493 C 871.850 690.061,704.000 774.889,704.000 776.000 C 704.000 779.273,1443.437 1148.000,1450.000 1148.000 C 1456.563 1148.000,2196.000 779.273,2196.000 776.000 C 2196.000 774.889,2028.150 690.061,1823.000 587.493 L 1450.000 401.006 1077.000 587.493 M200.000 714.000 L 200.000 776.000 388.000 776.000 L 576.000 776.000 576.000 736.918 L 576.000 697.836 621.000 675.151 L 666.000 652.465 433.000 652.232 L 200.000 652.000 200.000 714.000 M200.000 962.000 L 200.000 1024.000 388.000 1024.000 L 576.000 1024.000 576.000 962.000 L 576.000 900.000 388.000 900.000 L 200.000 900.000 200.000 962.000 M700.000 1227.991 L 700.000 1555.991 1044.000 1728.000 L 1388.000 1900.009 1388.000 1572.009 L 1388.000 1244.009 1044.000 1072.000 L 700.000 899.991 700.000 1227.991 M1855.000 1072.225 L 1512.000 1244.009 1512.000 1572.009 L 1512.000 1900.009 1856.000 1728.000 L 2200.000 1555.991 2200.000 1227.995 C 2200.000 1047.598,2199.550 900.099,2199.000 900.220 C 2198.450 900.341,2043.650 977.743,1855.000 1072.225 " fill="#1D1E23" stroke="none" fill-rule="evenodd"/></svg>