<svg viewBox="0 0 2400 2400" fill="none" xmlns="http://www.w3.org/2000/svg"><path d="M1300.000 650.000 L 1300.000 1100.000 1750.000 1100.000 L 2200.000 1100.000 2200.000 650.000 L 2200.000 200.000 1750.000 200.000 L 1300.000 200.000 1300.000 650.000 M550.000 213.919 C 520.925 220.320,494.959 230.420,451.126 252.379 C 360.404 297.828,299.173 358.126,252.634 447.849 C 212.482 525.258,201.260 582.277,205.628 686.680 C 207.699 736.176,209.571 747.838,220.395 778.680 C 284.665 961.812,429.324 1078.707,612.649 1095.649 C 765.014 1109.730,914.450 1041.338,1008.971 914.266 C 1063.718 840.664,1100.045 734.670,1099.984 648.711 C 1099.944 592.792,1079.469 510.624,1051.573 454.440 C 1001.564 353.719,899.806 263.258,796.018 227.256 C 743.595 209.071,605.924 201.608,550.000 213.919 M584.349 1308.475 C 521.328 1315.782,439.366 1349.789,383.796 1391.688 C 346.608 1419.727,299.365 1470.562,273.220 1510.673 C 156.395 1689.898,184.000 1919.218,340.560 2070.076 C 402.305 2129.572,464.868 2164.846,548.000 2187.034 C 601.120 2201.211,688.581 2201.964,741.779 2188.700 C 839.492 2164.339,908.516 2124.566,975.032 2054.297 C 1050.068 1975.027,1090.143 1883.958,1094.858 1782.000 C 1101.176 1645.368,1062.054 1536.976,972.382 1442.664 C 892.542 1358.694,809.503 1319.311,689.312 1308.414 C 635.292 1303.517,627.080 1303.521,584.349 1308.475 M1684.349 1308.475 C 1621.328 1315.782,1539.366 1349.789,1483.796 1391.688 C 1446.608 1419.727,1399.365 1470.562,1373.220 1510.673 C 1256.395 1689.898,1284.000 1919.218,1440.560 2070.076 C 1502.305 2129.572,1564.868 2164.846,1648.000 2187.034 C 1701.120 2201.211,1788.581 2201.964,1841.779 2188.700 C 1939.492 2164.339,2008.516 2124.566,2075.032 2054.297 C 2150.068 1975.027,2190.143 1883.958,2194.858 1782.000 C 2201.176 1645.368,2162.054 1536.976,2072.382 1442.664 C 1992.542 1358.694,1909.503 1319.311,1789.312 1308.414 C 1735.292 1303.517,1727.080 1303.521,1684.349 1308.475 " fill="#1D1E23" stroke="none" fill-rule="evenodd"/></svg>