<svg viewBox="0 0 2400 2400" fill="none" xmlns="http://www.w3.org/2000/svg"><path d="M1300.000 650.000 L 1300.000 1100.000 1750.000 1100.000 L 2200.000 1100.000 2200.000 650.000 L 2200.000 200.000 1750.000 200.000 L 1300.000 200.000 1300.000 650.000 M590.000 207.933 C 543.900 211.755,512.851 221.393,454.000 250.150 C 390.837 281.014,345.765 315.914,306.978 363.994 C 261.656 420.173,231.550 478.799,213.515 546.000 C 207.280 569.232,206.031 587.963,206.181 656.000 C 206.361 737.308,206.470 738.321,219.093 776.000 C 260.851 900.646,342.255 997.310,450.000 1050.193 C 594.825 1121.276,758.743 1112.478,891.670 1026.488 C 923.449 1005.930,979.266 954.087,1003.439 922.675 C 1074.794 829.955,1110.365 707.806,1096.424 603.375 C 1082.735 500.832,1044.259 418.311,977.359 348.010 C 923.336 291.241,871.813 256.264,801.341 228.519 C 757.833 211.390,661.494 202.006,590.000 207.933 M583.495 1307.861 C 493.415 1319.356,403.368 1364.974,334.171 1434.171 C 266.661 1501.682,222.429 1586.728,206.471 1679.705 C 173.628 1871.064,281.042 2071.652,461.689 2156.306 C 588.509 2215.736,718.877 2213.670,850.000 2150.153 C 925.730 2113.468,998.999 2043.096,1043.818 1964.000 C 1064.977 1926.657,1085.945 1864.546,1092.263 1820.493 C 1099.204 1772.099,1095.052 1683.064,1083.846 1640.000 C 1046.636 1496.998,935.766 1374.629,802.000 1328.921 C 744.375 1309.231,646.606 1299.808,583.495 1307.861 M1683.495 1307.861 C 1593.415 1319.356,1503.368 1364.974,1434.171 1434.171 C 1366.661 1501.682,1322.429 1586.728,1306.471 1679.705 C 1273.628 1871.064,1381.042 2071.652,1561.689 2156.306 C 1688.509 2215.736,1818.877 2213.670,1950.000 2150.153 C 2025.730 2113.468,2098.999 2043.096,2143.818 1964.000 C 2164.977 1926.657,2185.945 1864.546,2192.263 1820.493 C 2199.204 1772.099,2195.052 1683.064,2183.846 1640.000 C 2146.636 1496.998,2035.766 1374.629,1902.000 1328.921 C 1844.375 1309.231,1746.606 1299.808,1683.495 1307.861 " fill="#1D1E23" stroke="none" fill-rule="evenodd"/></svg>