<svg viewBox="0 0 2400 2400" fill="none" xmlns="http://www.w3.org/2000/svg"><path d="M603.822 204.103 C 417.452 221.069,262.950 356.187,212.878 546.000 C 203.476 581.641,202.341 593.192,202.462 652.000 C 202.582 710.200,203.826 722.571,212.987 756.678 C 251.352 899.513,353.999 1016.447,486.000 1067.692 C 550.447 1092.712,580.366 1098.050,654.000 1097.667 C 709.562 1097.379,723.099 1095.970,756.678 1086.980 C 839.540 1064.795,906.827 1026.154,966.490 966.490 C 1121.328 811.652,1143.035 579.543,1019.894 395.464 C 994.540 357.563,927.604 293.835,886.299 268.271 C 804.788 217.823,704.176 194.968,603.822 204.103 M1300.000 650.000 L 1300.000 1100.000 1750.000 1100.000 L 2200.000 1100.000 2200.000 650.000 L 2200.000 200.000 1750.000 200.000 L 1300.000 200.000 1300.000 650.000 M603.822 1304.103 C 522.815 1311.477,441.447 1344.136,373.174 1396.677 C 341.038 1421.408,297.687 1469.136,273.101 1506.854 C 125.134 1733.856,211.726 2037.100,458.487 2156.074 C 630.578 2239.047,839.833 2200.303,972.488 2060.905 C 1058.751 1970.257,1098.047 1872.048,1097.689 1748.000 C 1097.544 1697.921,1095.989 1683.991,1086.300 1646.000 C 1064.619 1560.985,1031.741 1500.712,974.420 1440.896 C 906.700 1370.226,835.427 1330.299,745.240 1312.509 C 696.574 1302.908,648.399 1300.045,603.822 1304.103 M1703.822 1304.103 C 1622.815 1311.477,1541.447 1344.136,1473.174 1396.677 C 1441.038 1421.408,1397.687 1469.136,1373.101 1506.854 C 1225.134 1733.856,1311.726 2037.100,1558.487 2156.074 C 1730.578 2239.047,1939.833 2200.303,2072.488 2060.905 C 2158.751 1970.257,2198.047 1872.048,2197.689 1748.000 C 2197.544 1697.921,2195.989 1683.991,2186.300 1646.000 C 2164.619 1560.985,2131.741 1500.712,2074.420 1440.896 C 2006.700 1370.226,1935.427 1330.299,1845.240 1312.509 C 1796.574 1302.908,1748.399 1300.045,1703.822 1304.103 " fill="#1D1E23" stroke="none" fill-rule="evenodd"/></svg>