<svg viewBox="0 0 2400 2400" fill="none" xmlns="http://www.w3.org/2000/svg"><path d="M579.142 206.203 C 390.140 235.632,239.143 385.345,206.471 575.705 C 164.779 818.620,330.835 1051.501,575.705 1093.529 C 818.620 1135.221,1051.501 969.165,1093.529 724.295 C 1126.682 531.132,1026.410 335.189,848.948 246.351 C 771.083 207.372,669.097 192.196,579.142 206.203 M1300.000 650.000 L 1300.000 1100.000 1750.000 1100.000 L 2200.000 1100.000 2200.000 650.000 L 2200.000 200.000 1750.000 200.000 L 1300.000 200.000 1300.000 650.000 M579.142 1306.203 C 487.879 1320.413,400.586 1364.745,334.417 1430.486 C 156.210 1607.541,155.317 1890.503,332.407 2067.593 C 508.604 2243.790,791.396 2243.790,967.593 2067.593 C 1184.986 1850.200,1124.821 1484.453,848.948 1346.351 C 771.083 1307.372,669.097 1292.196,579.142 1306.203 M1679.142 1306.203 C 1587.879 1320.413,1500.586 1364.745,1434.417 1430.486 C 1256.210 1607.541,1255.317 1890.503,1432.407 2067.593 C 1608.604 2243.790,1891.396 2243.790,2067.593 2067.593 C 2284.986 1850.200,2224.821 1484.453,1948.948 1346.351 C 1871.083 1307.372,1769.097 1292.196,1679.142 1306.203 " fill="#1D1E23" stroke="none" fill-rule="evenodd"/></svg>