<svg viewBox="0 0 2400 2400" fill="none" xmlns="http://www.w3.org/2000/svg"><path d="M1300.000 650.000 L 1300.000 1100.000 1750.000 1100.000 L 2200.000 1100.000 2200.000 650.000 L 2200.000 200.000 1750.000 200.000 L 1300.000 200.000 1300.000 650.000 M565.337 209.677 C 477.349 226.397,385.294 276.649,326.684 339.955 C 256.685 415.562,211.302 513.340,204.130 604.000 C 199.947 656.865,204.978 730.122,215.117 764.000 C 247.072 870.774,312.987 962.868,400.399 1022.871 C 457.043 1061.753,539.370 1090.932,606.862 1096.048 C 704.868 1103.477,778.407 1088.908,858.809 1046.137 C 1011.885 964.705,1109.330 793.857,1098.438 626.000 C 1091.456 518.405,1046.466 416.101,974.016 343.074 C 926.669 295.351,894.662 271.505,845.906 247.631 C 784.080 217.357,739.931 207.390,660.000 205.659 C 615.370 204.693,584.719 205.994,565.337 209.677 M566.000 1309.866 C 336.703 1351.995,172.458 1577.399,204.290 1806.263 C 224.891 1954.378,317.126 2084.271,448.580 2150.291 C 576.885 2214.730,713.810 2215.904,843.777 2153.680 C 893.245 2129.996,926.325 2106.151,968.409 2063.843 C 1046.587 1985.248,1087.544 1896.658,1095.737 1788.434 C 1106.971 1640.046,1052.072 1505.816,940.922 1409.906 C 856.399 1336.972,761.636 1303.517,642.000 1304.377 C 615.600 1304.567,581.400 1307.037,566.000 1309.866 M1666.000 1309.866 C 1436.703 1351.995,1272.458 1577.399,1304.290 1806.263 C 1324.891 1954.378,1417.126 2084.271,1548.580 2150.291 C 1676.885 2214.730,1813.810 2215.904,1943.777 2153.680 C 1993.245 2129.996,2026.325 2106.151,2068.409 2063.843 C 2146.587 1985.248,2187.544 1896.658,2195.737 1788.434 C 2206.971 1640.046,2152.072 1505.816,2040.922 1409.906 C 1956.399 1336.972,1861.636 1303.517,1742.000 1304.377 C 1715.600 1304.567,1681.400 1307.037,1666.000 1309.866 " fill="#1D1E23" stroke="none" fill-rule="evenodd"/></svg>