<svg viewBox="0 0 2400 2400" fill="none" xmlns="http://www.w3.org/2000/svg"><path d="M880.570 214.174 C 772.407 255.785,713.103 361.330,738.159 467.628 C 746.211 501.787,763.506 533.205,794.999 570.882 C 809.304 587.997,827.058 611.030,834.451 622.066 C 849.789 644.964,860.172 685.428,852.641 692.959 C 849.351 696.249,758.587 697.994,524.047 699.275 L 200.000 701.045 200.000 1029.082 L 200.000 1357.119 222.467 1354.800 C 252.183 1351.733,279.878 1337.523,314.000 1307.835 C 377.124 1252.913,418.234 1234.865,480.000 1234.955 C 525.698 1235.022,559.235 1244.511,594.289 1267.292 C 636.600 1294.790,667.470 1332.123,684.902 1376.875 C 696.691 1407.140,699.400 1474.199,690.130 1506.307 C 667.600 1584.348,605.975 1643.375,527.788 1661.803 C 495.580 1669.395,469.659 1669.484,434.921 1662.123 C 398.901 1654.490,367.664 1637.238,322.972 1600.293 C 302.637 1583.483,281.097 1566.630,275.105 1562.841 C 263.155 1555.286,223.654 1544.000,209.160 1544.000 L 200.000 1544.000 200.000 1872.000 L 200.000 2200.000 457.000 2199.513 C 598.350 2199.245,745.500 2197.895,784.000 2196.513 L 854.000 2194.000 853.513 2173.846 C 852.909 2148.880,842.458 2127.721,814.387 2094.630 C 747.757 2016.088,726.264 1960.646,735.956 1892.313 C 745.471 1825.218,773.679 1778.795,827.038 1742.417 C 863.945 1717.256,894.008 1707.114,938.000 1704.986 C 1023.179 1700.865,1091.902 1738.059,1137.041 1812.710 C 1168.658 1865.000,1175.198 1936.897,1153.416 1992.722 C 1144.279 2016.137,1117.649 2056.522,1090.586 2088.000 C 1059.549 2124.102,1047.156 2148.126,1046.519 2173.426 L 1046.000 2194.000 1116.000 2196.513 C 1154.500 2197.895,1301.407 2199.245,1442.459 2199.513 L 1698.918 2200.000 1701.136 1885.000 C 1702.367 1710.194,1705.004 1564.659,1707.060 1558.000 C 1710.524 1546.783,1711.914 1546.072,1728.383 1547.111 C 1752.576 1548.636,1781.141 1563.484,1812.000 1590.575 C 1881.841 1651.888,1910.353 1664.383,1980.899 1664.592 C 2014.208 1664.691,2029.507 1662.820,2049.334 1656.222 C 2150.879 1622.430,2215.541 1513.546,2194.367 1412.000 C 2169.986 1295.073,2064.398 1218.418,1951.586 1235.747 C 1904.064 1243.046,1864.178 1264.498,1805.370 1314.387 C 1774.376 1340.679,1753.206 1351.760,1728.340 1354.705 C 1713.057 1356.515,1708.732 1355.678,1706.755 1350.526 C 1705.396 1346.982,1703.029 1199.305,1701.496 1022.353 L 1698.708 700.623 1382.354 699.148 C 1145.504 698.044,1063.149 696.449,1054.654 692.804 C 1044.026 688.243,1043.475 686.861,1045.947 670.967 C 1050.139 644.026,1065.564 616.860,1099.872 576.000 C 1137.722 530.921,1153.535 502.973,1162.341 465.588 C 1174.329 414.698,1161.781 346.409,1131.881 299.814 C 1105.714 259.037,1047.011 218.114,1000.803 208.438 C 962.978 200.518,909.427 203.073,880.570 214.174 " fill="#1D1E23" stroke="none" fill-rule="evenodd"/></svg>