<svg viewBox="0 0 2400 2400" fill="none" xmlns="http://www.w3.org/2000/svg"><path d="M900.000 209.482 C 865.978 216.922,829.170 238.623,797.557 269.878 C 751.022 315.887,729.014 371.406,733.290 432.000 C 737.098 485.959,750.874 514.492,809.044 588.907 C 838.723 626.874,848.669 645.548,853.539 672.446 C 855.486 683.201,854.511 688.256,849.723 692.230 C 844.517 696.551,781.989 697.898,521.645 699.297 L 200.000 701.026 200.000 1029.070 L 200.000 1357.114 220.309 1354.709 C 250.131 1351.177,277.313 1336.976,320.000 1302.626 C 363.511 1267.612,401.764 1246.700,434.950 1239.785 C 467.480 1233.006,528.394 1237.001,555.318 1247.679 C 604.542 1267.201,652.714 1311.305,675.609 1357.812 C 696.995 1401.253,701.354 1471.818,685.562 1518.921 C 655.592 1608.314,559.211 1673.767,468.000 1666.669 C 413.815 1662.453,380.877 1646.831,316.026 1594.590 C 297.312 1579.514,276.600 1564.384,270.000 1560.967 C 255.706 1553.566,221.628 1544.114,209.000 1544.047 L 200.000 1544.000 200.000 1872.000 L 200.000 2200.000 461.000 2199.447 C 604.550 2199.142,751.700 2197.792,788.000 2196.447 L 854.000 2194.000 852.894 2176.000 C 851.086 2146.589,845.006 2134.115,811.866 2091.829 C 752.321 2015.850,735.959 1979.437,736.059 1923.126 C 736.225 1830.282,778.853 1762.724,862.000 1723.531 C 915.160 1698.473,988.481 1699.662,1044.459 1726.489 C 1098.023 1752.159,1147.359 1814.487,1160.134 1872.626 C 1163.157 1886.382,1164.358 1910.777,1163.199 1934.856 C 1160.523 1990.426,1148.064 2016.351,1088.639 2090.000 C 1058.445 2127.421,1049.045 2146.514,1047.282 2174.000 L 1046.000 2194.000 1112.000 2196.447 C 1148.300 2197.792,1295.168 2199.142,1438.374 2199.447 L 1698.748 2200.000 1701.845 1895.000 C 1703.548 1727.250,1706.079 1581.000,1707.471 1570.000 C 1709.981 1550.151,1710.117 1549.990,1725.557 1548.725 C 1747.588 1546.920,1782.014 1565.267,1826.000 1602.255 C 1845.800 1618.905,1875.288 1639.100,1891.528 1647.133 C 1919.952 1661.192,1922.943 1661.796,1971.528 1663.282 C 2015.456 1664.624,2025.351 1663.691,2047.847 1656.084 C 2084.040 1643.846,2106.139 1629.958,2134.496 1601.629 C 2176.579 1559.586,2204.143 1487.664,2197.971 1436.000 C 2182.846 1309.392,2076.315 1221.603,1955.659 1236.319 C 1908.076 1242.122,1873.720 1259.820,1806.928 1312.934 C 1771.577 1341.045,1741.556 1356.000,1720.474 1356.000 C 1709.078 1356.000,1709.024 1355.878,1706.620 1325.000 C 1705.293 1307.950,1703.006 1160.576,1701.537 997.502 L 1698.868 701.005 1382.434 699.067 C 1156.116 697.680,1062.744 695.810,1054.567 692.498 C 1044.029 688.231,1043.346 686.700,1045.842 672.934 C 1050.598 646.697,1065.973 619.091,1099.713 576.205 C 1155.295 505.556,1166.072 479.975,1165.520 420.000 C 1164.901 352.696,1138.358 294.454,1090.747 255.930 C 1033.740 209.804,969.764 194.225,900.000 209.482 " fill="#1D1E23" stroke="none" fill-rule="evenodd"/></svg>