<svg viewBox="0 0 2400 2400" fill="none" xmlns="http://www.w3.org/2000/svg"><path d="M906.000 204.654 C 873.819 210.702,824.663 236.769,800.324 260.694 C 757.159 303.123,736.265 348.379,733.008 406.500 C 729.194 474.543,748.671 523.277,802.129 579.452 C 837.548 616.672,850.320 638.625,854.563 669.582 C 859.083 702.563,886.975 700.000,523.510 700.000 L 200.000 700.000 200.000 1028.548 L 200.000 1357.095 225.118 1355.079 C 259.308 1352.335,279.486 1341.081,321.097 1301.550 C 346.191 1277.710,364.431 1264.274,385.097 1254.407 C 503.789 1197.732,641.569 1254.409,686.585 1378.426 C 720.303 1471.317,684.174 1577.359,599.728 1633.360 C 569.816 1653.197,536.008 1664.247,497.168 1666.880 C 428.474 1671.539,375.369 1650.868,320.412 1598.080 C 279.895 1559.163,260.850 1548.525,225.834 1545.256 L 200.000 1542.843 200.000 1871.422 L 200.000 2200.000 523.510 2200.000 C 888.139 2200.000,858.868 2202.810,854.770 2168.203 C 851.366 2139.461,838.779 2117.990,804.055 2081.692 C 755.294 2030.720,737.247 1992.517,733.342 1932.000 C 722.537 1764.554,897.648 1649.227,1048.247 1724.604 C 1121.088 1761.062,1167.754 1837.304,1167.941 1920.160 C 1168.073 1978.402,1145.725 2029.097,1097.554 2079.829 C 1061.232 2118.082,1048.650 2139.333,1045.230 2168.203 C 1041.132 2202.810,1011.861 2200.000,1376.490 2200.000 L 1700.000 2200.000 1700.000 1876.490 C 1700.000 1593.172,1700.749 1552.358,1706.027 1547.978 C 1714.157 1541.231,1748.187 1545.916,1769.580 1556.728 C 1778.611 1561.292,1801.485 1579.901,1820.412 1598.080 C 1875.369 1650.868,1928.474 1671.539,1997.168 1666.880 C 2072.925 1661.743,2138.395 1619.229,2173.539 1552.349 C 2271.488 1365.953,2075.488 1163.497,1885.097 1254.407 C 1864.431 1264.274,1846.191 1277.710,1821.097 1301.550 C 1781.951 1338.739,1760.820 1351.332,1731.797 1354.770 C 1697.190 1358.868,1700.000 1388.139,1700.000 1023.510 L 1700.000 700.000 1376.490 700.000 C 1093.172 700.000,1052.358 699.251,1047.978 693.973 C 1040.905 685.451,1046.112 651.357,1057.985 628.452 C 1063.246 618.303,1081.874 595.280,1099.382 577.289 C 1150.302 524.963,1170.720 473.223,1166.975 406.000 C 1159.585 273.363,1038.299 179.789,906.000 204.654 " fill="#1D1E23" stroke="none" fill-rule="evenodd"/></svg>