<svg viewBox="0 0 2400 2400" fill="none" xmlns="http://www.w3.org/2000/svg"><path d="M901.555 209.686 C 811.264 230.316,732.000 326.902,732.000 416.294 C 732.000 467.834,749.931 510.163,800.419 577.806 C 818.402 601.899,837.347 630.699,842.518 641.806 C 853.942 666.338,855.055 689.824,845.000 694.168 C 841.150 695.832,694.450 698.040,519.000 699.075 L 200.000 700.958 200.000 1028.999 L 200.000 1357.040 217.426 1355.076 C 243.933 1352.089,276.995 1335.065,323.682 1300.367 C 400.649 1243.164,439.812 1230.316,510.135 1239.198 C 552.722 1244.577,576.079 1254.416,612.247 1282.211 C 636.067 1300.518,662.152 1332.021,675.001 1358.000 C 691.104 1390.560,698.078 1441.954,692.099 1484.000 C 679.715 1571.086,609.702 1642.997,517.903 1662.918 C 491.874 1668.566,482.598 1668.842,454.802 1664.790 C 411.036 1658.411,377.134 1641.454,318.000 1596.366 C 270.427 1560.092,237.110 1544.000,209.579 1544.000 L 200.000 1544.000 200.000 1872.000 L 200.000 2200.000 461.000 2199.447 C 604.550 2199.142,751.669 2197.792,787.932 2196.447 L 853.863 2194.000 852.610 2176.000 C 850.792 2149.903,841.252 2131.183,804.645 2081.886 C 765.541 2029.227,750.305 2001.618,741.549 1967.548 C 729.769 1921.711,740.631 1848.407,765.190 1808.000 C 789.312 1768.312,835.689 1732.195,882.874 1716.352 C 912.923 1706.262,974.404 1705.009,1007.474 1713.811 C 1071.045 1730.731,1127.777 1783.281,1152.384 1848.041 C 1162.389 1874.373,1166.165 1925.654,1160.571 1959.239 C 1154.419 1996.177,1141.955 2019.764,1097.001 2079.540 C 1057.305 2132.325,1049.608 2147.820,1047.094 2180.000 L 1046.000 2194.000 1112.000 2196.447 C 1148.300 2197.792,1295.450 2199.142,1439.000 2199.447 L 1700.000 2200.000 1700.169 2101.000 C 1700.568 1866.345,1707.277 1559.690,1712.140 1553.831 C 1725.299 1537.976,1762.976 1554.316,1829.741 1604.833 C 1897.279 1655.935,1910.014 1661.202,1971.092 1663.292 C 2016.704 1664.853,2022.365 1664.198,2050.942 1654.053 C 2067.859 1648.047,2088.067 1638.822,2095.850 1633.552 C 2121.187 1616.396,2154.917 1579.940,2167.778 1555.810 C 2196.245 1502.401,2203.927 1461.991,2194.355 1416.000 C 2172.383 1310.427,2084.577 1236.000,1982.000 1236.000 C 1926.278 1236.000,1888.018 1252.146,1815.485 1306.273 C 1769.252 1340.772,1737.634 1357.177,1721.050 1355.270 C 1710.030 1354.003,1709.993 1353.894,1707.462 1315.113 C 1706.066 1293.725,1703.587 1146.837,1701.952 988.695 L 1698.980 701.165 1382.490 698.998 C 1163.125 697.497,1062.491 695.457,1054.567 692.350 C 1044.033 688.221,1043.351 686.715,1045.890 673.181 C 1050.232 650.037,1068.625 617.733,1105.778 568.000 C 1155.519 501.416,1161.280 487.974,1163.202 434.000 C 1166.380 344.782,1133.126 279.374,1063.019 236.953 C 1015.681 208.310,953.521 197.812,901.555 209.686 " fill="#1D1E23" stroke="none" fill-rule="evenodd"/></svg>