<svg viewBox="0 0 2400 2400" fill="none" xmlns="http://www.w3.org/2000/svg"><path d="M910.086 204.024 C 899.133 205.990,874.833 215.181,856.086 224.449 C 773.183 265.433,725.995 347.409,733.226 437.884 C 737.440 490.604,756.216 528.310,805.982 584.000 C 837.141 618.867,850.526 642.965,854.226 670.856 C 856.488 687.911,855.792 691.331,849.436 694.405 C 845.289 696.410,700.022 698.512,521.000 699.157 L 200.000 700.314 200.000 1028.712 L 200.000 1357.111 223.943 1354.940 C 256.809 1351.960,276.036 1341.584,318.017 1304.170 C 371.353 1256.637,409.038 1238.696,466.000 1233.720 C 575.526 1224.151,680.859 1309.528,696.055 1420.191 C 715.014 1558.252,600.965 1678.398,462.109 1666.644 C 407.693 1662.038,371.573 1644.106,316.028 1594.121 C 279.590 1561.331,257.105 1549.427,224.676 1545.758 L 200.000 1542.967 200.000 1871.640 L 200.000 2200.314 521.000 2199.157 C 701.242 2198.507,845.282 2196.415,849.484 2194.386 C 855.830 2191.322,856.611 2187.751,854.618 2170.926 C 851.165 2141.766,840.007 2122.170,803.977 2081.983 C 736.969 2007.243,718.333 1934.569,744.416 1849.711 C 773.264 1755.858,878.205 1689.948,976.242 1704.109 C 1031.268 1712.058,1064.583 1728.416,1102.109 1765.913 C 1148.643 1812.410,1171.471 1872.411,1166.436 1934.988 C 1162.038 1989.657,1143.666 2027.261,1093.518 2084.236 C 1059.890 2122.443,1047.520 2144.773,1044.905 2171.993 C 1043.417 2187.473,1044.415 2191.435,1050.549 2194.399 C 1054.713 2196.411,1199.520 2198.510,1378.803 2199.157 L 1699.606 2200.313 1700.803 1876.009 C 1702.142 1513.258,1699.438 1541.844,1732.000 1546.161 C 1759.142 1549.759,1778.908 1560.905,1814.083 1592.443 C 1879.712 1651.286,1910.464 1665.009,1978.000 1665.586 C 2026.237 1665.998,2046.930 1661.029,2089.083 1638.910 C 2118.403 1623.524,2158.916 1580.923,2175.180 1548.377 C 2254.839 1388.966,2119.948 1206.322,1944.424 1235.929 C 1902.454 1243.008,1861.482 1265.074,1818.017 1304.007 C 1777.811 1340.021,1758.220 1351.166,1729.054 1354.621 C 1710.756 1356.788,1708.923 1356.225,1705.830 1347.487 C 1703.984 1342.269,1701.827 1194.501,1701.038 1019.113 L 1699.603 700.226 1375.654 699.113 C 1013.288 697.868,1041.843 700.564,1046.161 668.000 C 1049.756 640.888,1060.707 621.746,1096.096 580.719 C 1134.130 536.627,1143.784 521.959,1155.547 490.389 C 1181.623 420.409,1162.776 328.313,1111.113 273.263 C 1084.251 244.639,1049.573 222.043,1017.126 212.021 C 986.947 202.700,937.884 199.034,910.086 204.024 " fill="#1D1E23" stroke="none" fill-rule="evenodd"/></svg>