<svg viewBox="0 0 2400 2400" fill="none" xmlns="http://www.w3.org/2000/svg"><path d="M1771.396 208.294 C 1723.523 215.324,1654.774 253.921,1610.765 298.477 C 1581.744 327.858,1543.450 383.348,1526.084 421.182 C 1483.130 514.767,1450.766 677.107,1450.565 800.000 C 1450.457 865.608,1450.614 866.784,1476.963 998.000 C 1491.542 1070.600,1505.662 1145.750,1508.341 1165.000 L 1513.212 1200.000 1824.057 1200.000 L 2134.902 1200.000 2139.830 1169.000 C 2142.540 1151.950,2155.560 1085.800,2168.762 1022.000 L 2192.767 906.000 2194.881 815.647 C 2197.203 716.390,2193.704 672.027,2177.399 594.000 C 2157.785 500.137,2122.282 408.430,2083.294 350.917 C 2045.084 294.551,1975.568 238.408,1922.000 220.652 C 1908.800 216.277,1878.337 210.740,1854.305 208.348 C 1806.032 203.544,1803.757 203.543,1771.396 208.294 M512.726 583.890 C 480.816 592.488,431.324 615.824,401.544 636.314 C 310.076 699.245,239.196 845.375,212.365 1026.333 C 193.175 1155.758,197.227 1229.728,233.384 1410.000 C 247.504 1480.400,260.247 1544.728,261.701 1552.951 C 263.215 1561.514,267.577 1569.633,271.909 1571.951 C 276.823 1574.581,385.981 1576.000,583.344 1576.000 L 887.215 1576.000 889.967 1551.000 C 893.354 1520.234,914.974 1406.547,932.755 1326.000 C 945.618 1267.730,945.991 1263.462,945.678 1178.000 C 945.118 1024.687,920.630 899.105,869.779 788.769 C 822.155 685.435,726.974 603.542,634.031 585.933 C 580.819 575.852,544.807 575.245,512.726 583.890 M1513.513 1381.706 C 1518.898 1495.679,1535.389 1604.176,1555.848 1660.234 C 1583.863 1736.996,1647.716 1796.183,1720.383 1812.747 C 1733.745 1815.793,1774.840 1817.737,1828.000 1817.837 C 1907.668 1817.988,1916.062 1817.313,1942.000 1808.668 C 2020.523 1782.499,2069.142 1732.810,2095.296 1652.000 C 2116.272 1587.190,2127.429 1510.804,2130.707 1409.571 L 2133.182 1333.142 2079.591 1330.634 C 2050.116 1329.254,1910.065 1326.938,1768.366 1325.487 L 1510.732 1322.848 1513.513 1381.706 M264.043 1749.000 C 264.126 1843.988,283.584 1973.750,307.622 2039.614 C 332.830 2108.685,383.772 2158.553,452.794 2181.722 C 476.826 2189.790,493.543 2192.067,544.106 2194.162 C 578.845 2195.602,624.404 2194.909,647.949 2192.583 C 685.363 2188.886,693.837 2186.483,726.346 2170.344 C 772.504 2147.430,808.216 2111.560,830.037 2066.191 C 859.661 2004.599,877.521 1903.692,882.637 1769.000 L 885.258 1700.000 574.629 1700.000 L 264.000 1700.000 264.043 1749.000 " fill="#1D1E23" stroke="none" fill-rule="evenodd"/></svg>