<svg viewBox="0 0 2400 2400" fill="none" xmlns="http://www.w3.org/2000/svg"><path d="M1766.000 207.709 C 1717.627 215.655,1646.357 257.115,1605.780 300.915 C 1582.280 326.281,1548.414 375.326,1532.117 407.595 C 1490.911 489.182,1462.973 607.859,1451.675 749.293 C 1446.178 818.116,1449.362 866.398,1463.857 934.000 C 1468.102 953.800,1478.832 1003.300,1487.701 1044.000 C 1496.571 1084.700,1505.990 1136.450,1508.634 1159.000 L 1513.440 1200.000 1824.165 1200.000 L 2134.890 1200.000 2141.742 1155.000 C 2148.811 1108.573,2163.798 1034.788,2181.757 958.000 C 2201.022 875.629,2203.183 726.993,2186.468 634.000 C 2144.550 400.792,2055.521 264.960,1912.018 215.269 C 1887.013 206.611,1800.085 202.110,1766.000 207.709 M538.000 578.228 C 533.600 579.246,520.100 582.004,508.000 584.357 C 476.880 590.408,418.466 619.836,388.749 644.432 C 285.944 729.522,219.456 893.518,204.049 1100.000 C 195.807 1210.457,198.834 1244.060,229.632 1384.000 C 239.557 1429.100,251.603 1489.676,256.401 1518.612 L 265.124 1571.225 277.062 1573.612 C 283.628 1574.926,423.542 1576.000,587.983 1576.000 L 886.966 1576.000 889.805 1547.000 C 893.458 1509.686,903.860 1453.743,921.601 1376.000 C 945.348 1271.940,949.368 1243.132,949.233 1178.000 C 948.880 1008.055,904.605 831.326,836.498 728.006 C 791.800 660.199,718.251 605.780,644.473 585.927 C 621.746 579.811,552.730 574.821,538.000 578.228 M1512.000 1345.039 C 1512.000 1386.176,1523.970 1517.473,1532.327 1568.000 C 1547.512 1659.818,1569.436 1709.957,1613.793 1754.315 C 1658.013 1798.535,1701.785 1815.333,1784.283 1819.743 C 1865.771 1824.100,1919.363 1819.508,1956.831 1804.959 C 2077.109 1758.255,2119.076 1662.922,2131.581 1408.000 C 2133.578 1367.300,2134.022 1332.723,2132.569 1331.163 C 2131.116 1329.603,1990.893 1327.062,1820.963 1325.517 L 1512.000 1322.708 1512.000 1345.039 M265.250 1769.000 C 270.695 1919.615,291.786 2025.403,328.539 2086.448 C 345.868 2115.229,386.106 2152.910,415.184 2167.586 C 459.328 2189.865,475.688 2192.906,562.000 2194.879 C 654.531 2196.993,682.750 2192.855,729.664 2170.290 C 833.178 2120.502,872.628 2016.459,882.578 1767.000 L 885.251 1700.000 574.003 1700.000 L 262.756 1700.000 265.250 1769.000 " fill="#1D1E23" stroke="none" fill-rule="evenodd"/></svg>