<svg viewBox="0 0 2400 2400" fill="none" xmlns="http://www.w3.org/2000/svg"><path d="M1769.344 208.227 C 1722.881 214.281,1654.177 252.905,1610.000 297.807 C 1583.898 324.337,1547.946 375.868,1528.768 414.239 C 1479.061 513.691,1438.898 740.780,1451.158 853.059 C 1453.638 875.770,1465.548 941.097,1477.626 998.229 C 1489.703 1055.361,1502.778 1124.132,1506.681 1151.053 L 1513.776 1200.000 1824.262 1200.000 L 2134.747 1200.000 2143.537 1147.000 C 2148.371 1117.850,2159.559 1060.700,2168.399 1020.000 C 2189.671 922.057,2191.574 909.730,2195.852 842.245 C 2207.094 664.867,2163.027 470.627,2084.676 352.196 C 2062.824 319.166,2018.456 274.247,1987.080 253.389 C 1941.085 222.811,1911.738 212.556,1857.326 208.048 C 1804.786 203.695,1804.119 203.696,1769.344 208.227 M510.649 584.283 C 472.054 593.766,418.076 621.229,385.582 647.915 C 294.214 722.949,230.665 869.827,207.286 1060.000 C 198.960 1127.726,200.866 1245.504,211.104 1296.000 C 250.470 1490.155,259.608 1536.384,261.823 1552.581 C 263.825 1567.215,266.238 1571.665,273.182 1573.527 C 278.032 1574.827,417.971 1575.915,584.158 1575.945 L 886.317 1576.000 893.183 1525.670 C 896.959 1497.989,908.956 1434.539,919.843 1384.670 C 948.311 1254.271,949.272 1245.918,946.848 1150.000 C 943.268 1008.311,913.409 874.481,862.956 774.000 C 819.429 687.313,742.022 618.051,657.920 590.537 C 640.302 584.774,572.378 575.871,550.000 576.393 C 545.600 576.495,527.892 580.046,510.649 584.283 M1513.214 1374.414 C 1518.983 1493.144,1534.568 1601.356,1553.963 1657.338 C 1580.208 1733.097,1638.178 1789.838,1710.000 1810.068 C 1747.199 1820.545,1881.510 1823.137,1921.877 1814.156 C 1984.095 1800.314,2035.486 1765.574,2068.069 1715.331 C 2105.525 1657.575,2132.000 1517.176,2132.000 1376.299 L 2132.000 1333.033 2101.000 1330.611 C 2083.950 1329.279,1944.159 1326.983,1790.354 1325.508 L 1510.708 1322.827 1513.214 1374.414 M264.000 1737.419 C 264.000 1863.725,286.781 2001.361,318.655 2067.630 C 345.037 2122.481,403.687 2170.404,464.452 2186.762 C 501.746 2196.802,656.460 2197.080,687.179 2187.162 C 823.081 2143.287,872.015 2038.776,882.506 1769.990 L 885.238 1700.000 574.619 1700.000 L 264.000 1700.000 264.000 1737.419 " fill="#1D1E23" stroke="none" fill-rule="evenodd"/></svg>