<svg viewBox="0 0 2400 2400" fill="none" xmlns="http://www.w3.org/2000/svg"><path d="M200.000 232.000 L 200.000 264.000 232.000 264.000 L 264.000 264.000 264.000 888.000 L 264.000 1512.000 232.000 1512.000 L 200.000 1512.000 200.000 1544.000 L 200.000 1576.000 668.000 1576.000 L 1136.000 1576.000 1136.000 1772.975 L 1136.000 1969.949 1021.026 2084.975 L 906.052 2200.000 949.985 2200.000 L 993.919 2200.000 1064.959 2129.042 L 1136.000 2058.083 1136.000 2129.042 L 1136.000 2200.000 1200.000 2200.000 L 1264.000 2200.000 1264.000 2129.042 L 1264.000 2058.083 1335.041 2129.042 L 1406.081 2200.000 1450.015 2200.000 L 1493.948 2200.000 1378.974 2084.975 L 1264.000 1969.949 1264.000 1772.975 L 1264.000 1576.000 1732.000 1576.000 L 2200.000 1576.000 2200.000 1544.000 L 2200.000 1512.000 2170.000 1512.000 L 2140.000 1512.000 2140.000 888.000 L 2140.000 264.000 2170.000 264.000 L 2200.000 264.000 2200.000 232.000 L 2200.000 200.000 1200.000 200.000 L 200.000 200.000 200.000 232.000 M2076.000 888.000 L 2076.000 1512.000 1200.000 1512.000 L 324.000 1512.000 324.000 888.000 L 324.000 264.000 1200.000 264.000 L 2076.000 264.000 2076.000 888.000 M1667.666 395.513 C 1625.575 404.354,1585.969 449.987,1578.094 498.717 C 1570.235 547.344,1612.829 614.964,1659.480 627.922 C 1684.331 634.825,1731.884 632.785,1751.277 623.984 C 1775.333 613.067,1810.828 575.196,1816.423 554.477 C 1823.097 529.767,1819.082 477.294,1809.028 457.820 C 1799.123 438.636,1768.724 409.565,1750.685 402.028 C 1734.569 395.295,1686.622 391.532,1667.666 395.513 M1586.930 812.388 C 1525.938 874.875,1471.078 932.982,1465.018 941.515 C 1451.954 959.911,1450.581 986.224,1461.584 1007.314 C 1468.994 1021.518,1494.179 1035.785,1512.000 1035.875 C 1528.145 1035.956,1559.383 1015.188,1599.000 978.033 L 1636.000 943.334 1635.828 986.667 C 1635.733 1010.500,1634.098 1059.499,1632.195 1095.554 C 1628.385 1167.741,1626.099 1174.426,1600.002 1189.707 C 1587.389 1197.093,1571.910 1197.547,1228.420 1200.622 C 1031.289 1202.387,855.394 1204.910,837.542 1206.229 C 798.007 1209.151,784.300 1216.591,772.126 1241.741 C 758.512 1269.863,766.773 1300.689,790.866 1311.667 C 797.382 1314.636,836.373 1317.972,889.810 1320.133 C 1011.318 1325.046,1575.826 1324.964,1606.000 1320.028 C 1641.464 1314.228,1677.287 1294.861,1706.396 1265.752 C 1753.196 1218.952,1759.262 1195.834,1762.741 1051.000 C 1764.102 994.350,1765.999 948.000,1766.957 948.000 C 1767.914 948.000,1786.091 964.241,1807.349 984.091 C 1851.582 1025.395,1873.506 1038.101,1894.629 1034.673 C 1925.111 1029.726,1951.262 996.642,1946.165 969.473 C 1942.730 951.163,1918.351 923.423,1797.572 800.388 L 1697.823 698.776 1586.930 812.388 M525.239 1151.498 C 501.621 1162.625,474.311 1189.063,463.584 1211.182 C 449.947 1239.304,450.519 1286.558,464.831 1314.161 C 503.658 1389.044,597.303 1406.167,659.702 1349.793 C 683.392 1328.391,693.833 1300.946,693.863 1260.000 C 693.884 1230.611,692.392 1223.147,682.858 1204.963 C 671.684 1183.652,649.664 1164.049,625.029 1153.481 C 617.895 1150.421,596.295 1146.946,577.029 1145.759 C 547.504 1143.940,539.366 1144.842,525.239 1151.498 M596.277 1210.140 C 631.656 1228.069,641.711 1260.726,622.136 1294.128 C 605.311 1322.838,578.862 1329.694,547.243 1313.541 C 523.318 1301.319,511.672 1268.486,521.829 1241.892 C 528.888 1223.408,535.744 1215.825,554.009 1206.302 C 569.915 1198.008,572.864 1198.276,596.277 1210.140 " fill="#1D1E23" stroke="none" fill-rule="evenodd"/></svg>