<svg viewBox="0 0 2400 2400" fill="none" xmlns="http://www.w3.org/2000/svg"><path d="M200.000 232.000 L 200.000 264.000 232.000 264.000 L 264.000 264.000 264.000 888.000 L 264.000 1512.000 232.000 1512.000 L 200.000 1512.000 200.000 1544.000 L 200.000 1576.000 668.000 1576.000 L 1136.000 1576.000 1136.000 1772.975 L 1136.000 1969.949 1021.026 2084.975 L 906.052 2200.000 949.985 2200.000 L 993.919 2200.000 1064.959 2129.042 L 1136.000 2058.083 1136.000 2129.042 L 1136.000 2200.000 1200.000 2200.000 L 1264.000 2200.000 1264.000 2129.042 L 1264.000 2058.083 1335.041 2129.042 L 1406.081 2200.000 1450.015 2200.000 L 1493.948 2200.000 1378.974 2084.975 L 1264.000 1969.949 1264.000 1772.975 L 1264.000 1576.000 1732.000 1576.000 L 2200.000 1576.000 2200.000 1544.000 L 2200.000 1512.000 2170.000 1512.000 L 2140.000 1512.000 2140.000 888.000 L 2140.000 264.000 2170.000 264.000 L 2200.000 264.000 2200.000 232.000 L 2200.000 200.000 1200.000 200.000 L 200.000 200.000 200.000 232.000 M2076.000 888.000 L 2076.000 1512.000 1200.000 1512.000 L 324.000 1512.000 324.000 888.000 L 324.000 264.000 1200.000 264.000 L 2076.000 264.000 2076.000 888.000 M1660.000 394.395 C 1608.924 412.835,1576.000 459.068,1576.000 512.353 C 1576.000 558.625,1600.200 599.770,1640.565 622.127 C 1660.111 632.953,1665.350 634.000,1700.000 634.000 C 1734.650 634.000,1739.889 632.953,1759.435 622.127 C 1802.730 598.147,1825.846 556.093,1823.268 506.000 C 1820.856 459.123,1794.731 419.681,1752.943 399.828 C 1727.962 387.959,1684.813 385.437,1660.000 394.395 M1577.190 821.001 C 1505.905 892.641,1455.657 946.234,1454.280 952.091 C 1447.251 982.009,1450.315 998.112,1466.431 1015.950 C 1484.324 1035.756,1504.715 1042.270,1528.645 1035.826 C 1541.636 1032.328,1555.248 1021.614,1590.645 987.025 L 1636.000 942.707 1636.000 1047.513 C 1636.000 1143.831,1635.363 1153.567,1628.134 1167.738 C 1622.745 1178.301,1614.789 1185.809,1602.871 1191.578 C 1585.553 1199.962,1583.731 1200.000,1200.000 1200.000 C 821.647 1200.000,814.225 1200.149,798.263 1208.058 C 775.737 1219.219,766.701 1233.214,764.842 1259.818 C 763.564 1278.108,764.947 1284.456,772.726 1296.000 C 792.855 1325.872,763.652 1323.987,1206.274 1323.994 C 1638.677 1324.001,1618.565 1325.001,1665.665 1301.149 C 1689.198 1289.233,1722.409 1256.990,1737.248 1231.655 C 1759.339 1193.938,1764.000 1161.713,1764.000 1046.714 L 1764.000 942.707 1809.355 987.025 C 1844.752 1021.614,1858.364 1032.328,1871.355 1035.826 C 1916.211 1047.905,1958.743 1005.918,1947.304 960.850 C 1944.003 947.844,1923.344 925.304,1820.566 822.566 L 1697.772 699.819 1577.190 821.001 M529.297 1146.550 C 510.004 1153.386,480.185 1178.284,468.344 1197.443 C 463.854 1204.709,457.322 1221.808,453.829 1235.440 C 439.510 1291.332,468.512 1349.229,524.000 1375.523 C 555.855 1390.617,597.113 1390.364,628.642 1374.881 C 721.354 1329.352,723.107 1198.158,631.615 1152.439 C 610.026 1141.651,602.693 1140.042,576.361 1140.316 C 559.662 1140.489,538.484 1143.295,529.297 1146.550 M603.950 1209.100 C 647.017 1231.875,647.000 1295.350,603.920 1316.994 C 575.076 1331.486,543.137 1322.754,522.368 1294.696 C 509.475 1277.279,511.037 1245.261,525.720 1226.011 C 545.898 1199.557,574.295 1193.418,603.950 1209.100 " fill="#1D1E23" stroke="none" fill-rule="evenodd"/></svg>