<svg viewBox="0 0 2400 2400" fill="none" xmlns="http://www.w3.org/2000/svg"><path d="M200.000 232.000 L 200.000 264.000 232.000 264.000 L 264.000 264.000 264.000 888.000 L 264.000 1512.000 232.000 1512.000 L 200.000 1512.000 200.000 1544.000 L 200.000 1576.000 668.000 1576.000 L 1136.000 1576.000 1136.000 1772.975 L 1136.000 1969.949 1021.026 2084.975 L 906.052 2200.000 949.985 2200.000 L 993.919 2200.000 1064.959 2129.042 L 1136.000 2058.083 1136.000 2129.042 L 1136.000 2200.000 1200.000 2200.000 L 1264.000 2200.000 1264.000 2129.042 L 1264.000 2058.083 1335.041 2129.042 L 1406.081 2200.000 1450.015 2200.000 L 1493.948 2200.000 1378.974 2084.975 L 1264.000 1969.949 1264.000 1772.975 L 1264.000 1576.000 1732.000 1576.000 L 2200.000 1576.000 2200.000 1544.000 L 2200.000 1512.000 2170.000 1512.000 L 2140.000 1512.000 2140.000 888.000 L 2140.000 264.000 2170.000 264.000 L 2200.000 264.000 2200.000 232.000 L 2200.000 200.000 1200.000 200.000 L 200.000 200.000 200.000 232.000 M2076.000 888.000 L 2076.000 1512.000 1200.000 1512.000 L 324.000 1512.000 324.000 888.000 L 324.000 264.000 1200.000 264.000 L 2076.000 264.000 2076.000 888.000 M1671.589 391.598 C 1663.663 393.221,1649.113 399.276,1639.255 405.053 C 1567.772 446.945,1554.992 542.051,1613.045 600.104 C 1640.535 627.594,1656.105 633.590,1700.000 633.590 C 1731.583 633.590,1740.899 632.077,1755.166 624.629 C 1778.511 612.443,1803.067 587.044,1813.207 564.597 C 1825.382 537.644,1825.141 489.329,1812.692 461.605 C 1801.454 436.574,1776.000 410.982,1752.000 400.584 C 1731.309 391.619,1692.609 387.294,1671.589 391.598 M1599.704 799.000 C 1545.674 853.450,1490.337 910.216,1476.734 925.146 C 1453.321 950.842,1452.000 953.364,1452.000 972.345 C 1452.000 1005.569,1468.760 1027.588,1500.569 1036.153 C 1524.454 1042.585,1544.052 1031.548,1593.762 983.668 L 1636.594 942.414 1635.297 1050.922 C 1634.066 1153.907,1633.571 1160.005,1625.582 1170.715 C 1620.952 1176.922,1611.052 1185.600,1603.582 1190.000 C 1590.316 1197.814,1580.929 1198.047,1200.000 1200.000 C 819.071 1201.953,809.684 1202.186,796.418 1210.000 C 776.058 1221.992,766.918 1236.775,764.987 1260.834 C 763.586 1278.275,764.960 1284.464,772.793 1296.000 C 791.493 1323.542,766.321 1321.875,1183.285 1323.190 C 1421.985 1323.942,1574.025 1322.877,1597.197 1320.290 C 1643.906 1315.075,1673.845 1300.887,1705.270 1269.074 C 1734.830 1239.149,1742.226 1227.743,1752.650 1196.000 C 1760.326 1172.626,1761.376 1158.556,1763.046 1056.695 L 1764.903 943.390 1803.452 980.950 C 1853.134 1029.359,1863.847 1036.660,1885.685 1036.990 C 1920.094 1037.510,1948.000 1010.206,1948.000 976.019 C 1948.000 958.666,1946.033 954.945,1922.408 927.610 C 1908.333 911.325,1852.070 853.450,1797.379 799.000 L 1697.941 699.999 1599.704 799.000 M543.589 1143.536 C 522.844 1147.874,494.826 1165.427,478.843 1184.099 C 462.722 1202.933,450.455 1238.141,450.812 1264.556 C 451.873 1343.223,531.858 1403.726,606.218 1382.109 C 651.525 1368.938,680.949 1339.485,694.144 1294.097 C 710.204 1238.852,682.795 1178.942,629.085 1151.890 C 608.642 1141.594,570.635 1137.880,543.589 1143.536 M599.918 1209.000 C 622.166 1220.368,632.339 1234.287,634.881 1256.838 C 640.170 1303.768,592.208 1337.761,549.379 1317.437 C 527.370 1306.993,516.000 1288.935,516.000 1264.424 C 516.000 1240.314,523.300 1223.880,538.940 1212.782 C 559.747 1198.018,576.403 1196.984,599.918 1209.000 " fill="#1D1E23" stroke="none" fill-rule="evenodd"/></svg>