<svg viewBox="0 0 2400 2400" fill="none" xmlns="http://www.w3.org/2000/svg"><path d="M200.000 232.000 L 200.000 264.000 232.000 264.000 L 264.000 264.000 264.000 888.000 L 264.000 1512.000 232.000 1512.000 L 200.000 1512.000 200.000 1544.000 L 200.000 1576.000 668.000 1576.000 L 1136.000 1576.000 1136.000 1772.975 L 1136.000 1969.949 1021.026 2084.975 L 906.052 2200.000 949.985 2200.000 L 993.919 2200.000 1064.959 2129.042 L 1136.000 2058.083 1136.000 2129.042 L 1136.000 2200.000 1200.000 2200.000 L 1264.000 2200.000 1264.000 2129.042 L 1264.000 2058.083 1335.041 2129.042 L 1406.081 2200.000 1450.015 2200.000 L 1493.948 2200.000 1378.974 2084.975 L 1264.000 1969.949 1264.000 1772.975 L 1264.000 1576.000 1732.000 1576.000 L 2200.000 1576.000 2200.000 1544.000 L 2200.000 1512.000 2170.000 1512.000 L 2140.000 1512.000 2140.000 888.000 L 2140.000 264.000 2170.000 264.000 L 2200.000 264.000 2200.000 232.000 L 2200.000 200.000 1200.000 200.000 L 200.000 200.000 200.000 232.000 M2076.000 888.000 L 2076.000 1512.000 1200.000 1512.000 L 324.000 1512.000 324.000 888.000 L 324.000 264.000 1200.000 264.000 L 2076.000 264.000 2076.000 888.000 M1658.792 397.512 C 1591.560 422.660,1559.521 497.727,1588.134 563.064 C 1598.557 586.865,1633.982 621.084,1654.464 627.136 C 1674.887 633.170,1724.720 633.421,1745.702 627.596 C 1764.625 622.342,1805.315 583.403,1814.265 561.983 C 1822.355 542.622,1822.291 492.962,1814.145 468.437 C 1806.673 445.942,1779.102 415.786,1754.559 403.265 C 1733.501 392.522,1680.625 389.345,1658.792 397.512 M1594.472 804.401 C 1537.561 862.480,1482.672 919.725,1472.498 931.612 C 1455.136 951.897,1454.008 954.622,1454.130 975.986 C 1454.286 1003.439,1461.897 1016.724,1483.899 1027.949 C 1517.546 1045.114,1537.388 1036.485,1599.660 977.611 L 1637.320 942.005 1634.548 1047.400 C 1631.333 1169.599,1630.243 1174.328,1602.139 1187.933 L 1583.392 1197.008 1212.696 1200.360 C 1008.813 1202.204,832.160 1204.855,820.133 1206.252 C 802.000 1208.359,795.746 1211.313,783.505 1223.554 C 756.453 1250.606,759.886 1297.249,790.000 1311.797 C 807.725 1320.361,931.831 1323.295,1292.374 1323.674 C 1586.015 1323.982,1603.924 1323.595,1624.566 1316.493 C 1661.392 1303.823,1680.823 1291.918,1706.370 1266.370 C 1754.448 1218.293,1760.266 1196.363,1762.945 1053.101 L 1764.982 944.202 1806.718 983.753 C 1829.673 1005.506,1854.902 1026.364,1862.784 1030.104 C 1909.339 1052.196,1963.746 1000.391,1942.036 954.642 C 1938.275 946.715,1881.816 885.908,1816.572 819.515 L 1697.947 698.802 1594.472 804.401 M519.233 1153.908 C 495.460 1166.586,474.795 1187.792,463.119 1211.491 C 450.082 1237.952,450.176 1286.236,463.316 1312.916 C 496.376 1380.043,578.966 1404.781,640.000 1365.839 C 674.523 1343.813,693.227 1311.204,695.374 1269.302 C 698.005 1217.944,678.383 1181.513,635.435 1158.020 C 616.705 1147.773,609.205 1146.143,576.000 1145.097 C 541.831 1144.020,536.108 1144.909,519.233 1153.908 M597.551 1209.961 C 618.885 1220.053,625.195 1227.610,631.759 1250.923 C 639.424 1278.148,616.443 1315.753,588.371 1321.919 C 573.352 1325.217,546.481 1317.216,534.128 1305.768 C 522.440 1294.936,514.471 1267.407,517.833 1249.481 C 520.915 1233.056,537.637 1212.667,553.802 1205.626 C 570.586 1198.315,573.557 1198.610,597.551 1209.961 " fill="#1D1E23" stroke="none" fill-rule="evenodd"/></svg>