<svg viewBox="0 0 2400 2400" fill="none" xmlns="http://www.w3.org/2000/svg"><path d="M200.000 232.000 L 200.000 264.000 232.000 264.000 L 264.000 264.000 264.000 888.000 L 264.000 1512.000 232.000 1512.000 L 200.000 1512.000 200.000 1544.000 L 200.000 1576.000 668.000 1576.000 L 1136.000 1576.000 1136.000 1772.975 L 1136.000 1969.949 1021.026 2084.975 L 906.052 2200.000 949.985 2200.000 L 993.919 2200.000 1064.959 2129.042 L 1136.000 2058.083 1136.000 2129.042 L 1136.000 2200.000 1200.000 2200.000 L 1264.000 2200.000 1264.000 2129.042 L 1264.000 2058.083 1335.041 2129.042 L 1406.081 2200.000 1450.015 2200.000 L 1493.948 2200.000 1378.974 2084.975 L 1264.000 1969.949 1264.000 1772.975 L 1264.000 1576.000 1732.000 1576.000 L 2200.000 1576.000 2200.000 1544.000 L 2200.000 1512.000 2170.000 1512.000 L 2140.000 1512.000 2140.000 888.000 L 2140.000 264.000 2170.000 264.000 L 2200.000 264.000 2200.000 232.000 L 2200.000 200.000 1200.000 200.000 L 200.000 200.000 200.000 232.000 M2076.000 888.000 L 2076.000 1512.000 1200.000 1512.000 L 324.000 1512.000 324.000 888.000 L 324.000 264.000 1200.000 264.000 L 2076.000 264.000 2076.000 888.000 M1649.549 400.150 C 1623.082 413.251,1601.307 434.538,1589.244 459.103 C 1574.582 488.960,1573.520 531.850,1586.726 560.703 C 1598.297 585.980,1626.207 615.551,1647.399 624.983 C 1672.352 636.090,1732.568 635.954,1754.545 624.742 C 1774.159 614.736,1806.428 580.604,1814.888 560.915 C 1824.862 537.706,1823.638 486.907,1812.505 462.000 C 1800.298 434.690,1768.756 405.722,1742.850 398.029 C 1712.985 389.160,1669.766 390.142,1649.549 400.150 M1580.395 818.556 C 1515.931 884.232,1460.470 943.223,1457.149 949.646 C 1449.319 964.788,1452.214 996.941,1462.700 1011.298 C 1471.925 1023.929,1497.159 1037.334,1511.706 1037.331 C 1530.507 1037.328,1551.117 1023.711,1594.392 982.701 L 1637.238 942.098 1635.044 1050.835 C 1632.987 1152.741,1632.325 1160.309,1624.503 1171.293 C 1619.913 1177.739,1609.372 1186.282,1601.079 1190.277 C 1586.957 1197.080,1561.458 1197.715,1199.179 1200.285 C 827.965 1202.919,811.746 1203.341,797.179 1210.747 C 767.503 1225.833,755.189 1269.724,773.146 1296.408 C 790.947 1322.861,771.798 1321.749,1212.000 1321.881 L 1610.000 1322.000 1635.668 1312.732 C 1668.826 1300.761,1689.848 1286.056,1717.516 1255.482 C 1756.763 1212.113,1763.598 1178.343,1763.857 1026.510 L 1764.000 943.019 1804.444 981.839 C 1851.999 1027.483,1864.680 1035.965,1885.395 1035.985 C 1918.350 1036.017,1943.414 1013.918,1947.054 981.620 C 1948.700 967.024,1947.114 961.032,1937.888 946.985 C 1931.753 937.643,1875.179 878.057,1812.167 814.572 L 1697.602 699.144 1580.395 818.556 M539.982 1145.173 C 467.767 1165.580,430.839 1248.376,464.187 1315.111 C 494.440 1375.652,565.062 1402.191,624.000 1375.166 C 718.983 1331.614,722.972 1198.941,630.642 1154.246 C 605.320 1141.988,565.392 1137.992,539.982 1145.173 M599.181 1209.939 C 616.903 1218.189,621.688 1222.799,628.487 1238.169 C 639.793 1263.729,635.877 1285.064,616.284 1304.658 C 597.064 1323.877,577.631 1327.828,552.921 1317.537 C 529.055 1307.598,519.079 1293.571,517.097 1267.166 C 515.094 1240.493,524.659 1221.539,546.416 1209.066 C 566.221 1197.711,573.163 1197.826,599.181 1209.939 " fill="#1D1E23" stroke="none" fill-rule="evenodd"/></svg>