<svg viewBox="0 0 2400 2400" fill="none" xmlns="http://www.w3.org/2000/svg"><path d="M200.000 691.005 L 200.000 1182.011 750.002 1732.002 L 1300.003 2281.993 1790.998 1790.998 L 2281.993 1300.003 1732.002 750.002 L 1182.011 200.000 691.005 200.000 L 200.000 200.000 200.000 691.005 M612.786 416.849 C 640.462 429.618,667.642 455.956,682.755 484.650 C 693.106 504.303,694.000 509.498,694.000 550.000 C 694.000 590.636,693.129 595.655,682.607 615.642 C 667.849 643.678,638.075 672.440,609.172 686.580 C 589.147 696.378,581.563 697.818,550.000 697.818 C 518.437 697.818,510.853 696.378,490.828 686.580 C 459.113 671.064,430.312 641.839,415.462 610.105 C 404.004 585.620,403.336 581.601,404.636 545.004 C 406.243 499.789,414.318 479.536,442.442 450.184 C 477.550 413.543,501.253 403.824,552.000 405.261 C 583.108 406.141,594.133 408.243,612.786 416.849 " fill="#1D1E23" stroke="none" fill-rule="evenodd"/></svg>