<svg viewBox="0 0 2400 2400" fill="none" xmlns="http://www.w3.org/2000/svg"><path d="M440.000 203.910 C 358.768 206.013,347.910 207.117,328.545 215.241 C 271.431 239.202,227.020 287.908,209.315 346.000 C 202.444 368.545,202.000 393.540,202.000 758.203 L 202.000 1146.406 217.650 1178.076 C 232.670 1208.472,242.892 1219.476,471.650 1451.513 C 717.037 1700.418,1149.989 2129.856,1186.715 2160.775 C 1218.545 2187.572,1240.462 2194.000,1300.000 2194.000 C 1363.409 2194.000,1381.384 2187.929,1423.546 2152.271 C 1467.100 2115.435,2140.746 1439.427,2161.772 1411.455 C 2186.118 1379.069,2197.738 1343.003,2197.684 1300.000 C 2197.629 1256.396,2188.866 1227.489,2166.483 1197.085 C 2140.377 1161.622,1930.949 947.764,1587.507 605.863 C 1264.351 284.156,1211.630 234.303,1176.133 216.870 L 1154.000 206.000 1004.000 203.373 C 829.729 200.320,569.092 200.569,440.000 203.910 M612.786 416.849 C 640.462 429.618,667.642 455.956,682.755 484.650 C 693.106 504.303,694.000 509.498,694.000 550.000 C 694.000 590.636,693.129 595.655,682.607 615.642 C 667.849 643.678,638.075 672.440,609.172 686.580 C 589.147 696.378,581.563 697.818,550.000 697.818 C 518.437 697.818,510.853 696.378,490.828 686.580 C 459.113 671.064,430.312 641.839,415.462 610.105 C 404.004 585.620,403.336 581.601,404.636 545.004 C 406.243 499.789,414.318 479.536,442.442 450.184 C 477.550 413.543,501.253 403.824,552.000 405.261 C 583.108 406.141,594.133 408.243,612.786 416.849 " fill="#1D1E23" stroke="none" fill-rule="evenodd"/></svg>