<svg viewBox="0 0 2400 2400" fill="none" xmlns="http://www.w3.org/2000/svg"><path d="M499.831 203.716 L 345.663 206.146 313.996 224.073 C 269.593 249.210,240.787 279.121,219.384 322.314 L 202.000 357.397 200.564 750.320 L 199.128 1143.244 212.182 1167.736 C 219.362 1181.206,236.584 1205.528,250.455 1221.784 C 290.284 1268.463,704.318 1687.999,906.325 1886.368 C 1136.520 2112.419,1197.766 2170.087,1218.244 2180.066 C 1257.197 2199.048,1339.352 2199.278,1381.747 2180.524 C 1394.095 2175.062,1448.644 2124.227,1576.450 1999.081 C 1818.304 1762.259,2165.268 1409.037,2175.240 1389.489 C 2191.491 1357.635,2197.119 1328.985,2195.126 1288.259 C 2191.881 1221.953,2183.526 1210.084,2025.989 1048.000 C 1752.526 766.642,1275.993 295.168,1217.605 248.198 C 1169.977 209.883,1166.534 208.699,1095.521 206.229 C 990.096 202.561,661.123 201.173,499.831 203.716 M612.000 417.768 C 635.643 429.975,659.897 451.967,675.300 475.167 L 690.000 497.306 690.000 550.167 L 690.000 603.027 674.336 625.770 C 655.846 652.616,633.206 673.027,607.133 686.355 C 580.677 699.879,521.154 700.344,493.286 687.244 C 468.527 675.606,431.865 639.161,417.552 611.956 C 406.932 591.772,406.044 586.837,406.545 550.808 C 407.036 515.541,408.350 509.058,419.668 486.069 C 433.503 457.964,463.446 427.814,490.000 415.248 C 511.701 404.979,590.377 406.604,612.000 417.768 " fill="#1D1E23" stroke="none" fill-rule="evenodd"/></svg>