<svg viewBox="0 0 2400 2400" fill="none" xmlns="http://www.w3.org/2000/svg"><path d="M200.000 691.005 L 200.000 1182.011 750.002 1732.002 L 1300.003 2281.993 1790.998 1790.998 L 2281.993 1300.003 1732.002 750.002 L 1182.011 200.000 691.005 200.000 L 200.000 200.000 200.000 691.005 M600.000 410.948 C 636.989 423.373,667.584 451.718,686.136 490.752 C 694.500 508.349,696.000 517.357,696.000 550.000 C 696.000 582.941,694.531 591.601,685.819 610.017 C 670.647 642.088,643.855 669.601,613.008 684.787 C 588.987 696.612,583.156 697.818,550.000 697.818 C 516.844 697.818,511.013 696.612,486.992 684.787 C 456.761 669.904,430.180 642.965,414.319 611.137 C 405.273 592.985,404.000 585.440,404.000 550.000 C 404.000 514.107,405.213 507.127,414.811 487.785 C 434.842 447.422,478.058 412.131,517.375 404.029 C 538.055 399.768,576.236 402.965,600.000 410.948 " fill="#1D1E23" stroke="none" fill-rule="evenodd"/></svg>