<svg viewBox="0 0 2400 2400" fill="none" xmlns="http://www.w3.org/2000/svg"><path d="M373.331 204.105 C 310.884 210.680,251.421 253.422,222.185 312.748 C 209.801 337.878,206.352 350.285,203.305 380.662 C 201.191 401.740,200.138 574.570,200.872 779.914 L 202.167 1142.000 212.083 1167.561 C 218.429 1183.920,231.206 1204.080,247.573 1223.561 C 261.639 1240.302,478.557 1459.324,729.612 1710.276 C 1148.602 2129.093,1188.243 2167.618,1212.470 2179.545 C 1260.907 2203.391,1339.043 2203.394,1387.568 2179.552 C 1411.767 2167.663,1444.941 2135.615,1780.174 1800.283 C 1981.570 1598.827,2153.767 1424.100,2162.834 1412.000 C 2193.397 1371.212,2205.637 1313.233,2194.641 1261.327 C 2181.670 1200.098,2200.184 1220.844,1796.000 814.640 C 1592.500 610.123,1376.660 395.133,1316.356 336.884 C 1222.391 246.122,1202.943 229.194,1180.356 218.507 L 1154.000 206.038 1054.000 203.429 C 917.500 199.867,408.777 200.373,373.331 204.105 M600.000 410.948 C 636.989 423.373,667.584 451.718,686.136 490.752 C 694.500 508.349,696.000 517.357,696.000 550.000 C 696.000 582.941,694.531 591.601,685.819 610.017 C 670.647 642.088,643.855 669.601,613.008 684.787 C 588.987 696.612,583.156 697.818,550.000 697.818 C 516.844 697.818,511.013 696.612,486.992 684.787 C 456.761 669.904,430.180 642.965,414.319 611.137 C 405.273 592.985,404.000 585.440,404.000 550.000 C 404.000 514.107,405.213 507.127,414.811 487.785 C 434.842 447.422,478.058 412.131,517.375 404.029 C 538.055 399.768,576.236 402.965,600.000 410.948 " fill="#1D1E23" stroke="none" fill-rule="evenodd"/></svg>