<svg viewBox="0 0 2400 2400" fill="none" xmlns="http://www.w3.org/2000/svg"><path d="M200.000 691.005 L 200.000 1182.011 750.002 1732.002 L 1300.003 2281.993 1790.998 1790.998 L 2281.993 1300.003 1732.002 750.002 L 1182.011 200.000 691.005 200.000 L 200.000 200.000 200.000 691.005 M613.175 415.206 C 645.145 430.397,669.961 455.357,685.546 488.000 C 696.586 511.122,697.960 517.985,697.960 550.000 C 697.960 581.955,696.572 588.921,685.602 612.000 C 669.901 645.033,645.056 669.884,612.000 685.622 C 588.906 696.617,581.977 698.000,550.000 698.000 C 518.023 698.000,511.094 696.617,488.000 685.622 C 454.944 669.884,430.099 645.033,414.398 612.000 C 403.428 588.921,402.040 581.955,402.040 550.000 C 402.040 518.045,403.428 511.079,414.398 488.000 C 434.216 446.307,471.724 415.017,514.984 404.088 C 542.192 397.215,585.674 402.138,613.175 415.206 " fill="#1D1E23" stroke="none" fill-rule="evenodd"/></svg>