<svg viewBox="0 0 2400 2400" fill="none" xmlns="http://www.w3.org/2000/svg"><path d="M485.577 203.829 L 349.154 206.213 317.577 221.787 C 274.533 243.017,240.981 276.681,221.064 318.621 L 206.208 349.902 203.412 421.951 C 201.874 461.578,200.477 640.008,200.308 818.463 L 200.000 1142.925 214.088 1171.085 C 232.231 1207.350,244.767 1220.826,521.622 1501.662 C 850.413 1835.180,1185.217 2163.236,1211.030 2177.175 C 1254.185 2200.478,1344.819 2200.557,1389.400 2177.332 C 1405.263 2169.068,1495.625 2080.984,1782.338 1794.300 C 1987.123 1589.535,2160.253 1413.751,2167.070 1403.668 C 2187.149 1373.972,2196.631 1339.973,2196.545 1297.985 C 2196.455 1253.879,2187.596 1226.898,2162.047 1192.910 C 2135.604 1157.733,1875.810 892.397,1579.561 598.000 C 1281.628 301.929,1215.053 239.063,1178.790 219.555 L 1154.000 206.219 964.000 203.467 C 750.125 200.368,680.571 200.421,485.577 203.829 M610.842 416.361 C 633.314 425.994,666.002 456.818,680.450 482.000 C 691.295 500.902,691.927 504.589,691.962 549.159 C 691.994 589.398,690.752 598.764,683.500 612.981 C 670.842 637.791,635.061 673.143,609.534 686.059 C 589.603 696.143,582.749 697.455,550.000 697.455 C 517.151 697.455,510.428 696.158,490.204 685.926 C 459.205 670.242,423.426 631.531,411.958 601.268 C 404.465 581.492,403.465 572.775,405.299 543.192 C 408.000 499.607,417.549 476.980,445.182 448.683 C 468.142 425.172,488.136 413.244,513.375 408.002 C 537.054 403.084,590.576 407.674,610.842 416.361 " fill="#1D1E23" stroke="none" fill-rule="evenodd"/></svg>