<svg viewBox="0 0 2400 2400" fill="none" xmlns="http://www.w3.org/2000/svg"><path d="M368.000 202.679 C 347.444 205.947,309.313 221.498,289.052 234.877 C 247.077 262.593,214.625 310.264,204.420 359.197 C 198.237 388.847,198.237 1111.153,204.420 1140.803 C 206.852 1152.461,214.254 1173.700,220.871 1188.000 C 232.124 1212.322,263.269 1244.407,703.450 1685.148 C 962.253 1944.280,1182.373 2161.704,1192.606 2168.313 C 1226.787 2190.387,1253.330 2197.634,1300.000 2197.634 C 1348.084 2197.634,1375.906 2189.660,1410.000 2166.108 C 1421.000 2158.510,1595.837 1986.177,1798.526 1783.146 C 2140.484 1440.613,2167.927 1412.126,2179.186 1388.000 C 2209.231 1323.616,2205.042 1249.472,2168.131 1192.323 C 2161.622 1182.245,1944.280 962.253,1685.148 703.450 C 1245.576 264.437,1212.257 232.088,1188.000 220.785 C 1173.700 214.122,1151.319 206.720,1138.265 204.335 C 1115.816 200.235,393.148 198.681,368.000 202.679 M613.175 415.206 C 645.145 430.397,669.961 455.357,685.546 488.000 C 696.586 511.122,697.960 517.985,697.960 550.000 C 697.960 581.955,696.572 588.921,685.602 612.000 C 669.901 645.033,645.056 669.884,612.000 685.622 C 588.906 696.617,581.977 698.000,550.000 698.000 C 518.023 698.000,511.094 696.617,488.000 685.622 C 454.944 669.884,430.099 645.033,414.398 612.000 C 403.428 588.921,402.040 581.955,402.040 550.000 C 402.040 518.045,403.428 511.079,414.398 488.000 C 434.216 446.307,471.724 415.017,514.984 404.088 C 542.192 397.215,585.674 402.138,613.175 415.206 " fill="#1D1E23" stroke="none" fill-rule="evenodd"/></svg>