<svg viewBox="0 0 2400 2400" fill="none" xmlns="http://www.w3.org/2000/svg"><path d="M936.000 604.230 C 527.609 640.372,215.139 883.634,201.245 1176.246 C 196.360 1279.132,222.494 1370.910,282.228 1460.637 C 382.235 1610.859,569.621 1726.134,794.000 1775.466 C 884.972 1795.467,912.456 1798.008,1036.000 1797.837 C 1165.269 1797.659,1203.223 1793.443,1303.500 1768.125 C 1465.417 1727.244,1585.874 1664.179,1698.351 1561.400 C 1728.443 1533.901,1746.137 1520.976,1762.903 1514.243 C 1804.670 1497.469,1801.668 1497.005,1819.295 1522.961 C 1837.449 1549.695,1859.331 1570.607,1884.502 1585.278 C 1901.022 1594.907,1963.572 1617.916,1965.958 1615.242 C 1966.567 1614.559,1968.249 1608.466,1969.697 1601.701 C 1972.304 1589.512,1972.110 1589.342,1947.796 1582.582 C 1891.749 1567.000,1854.226 1536.717,1831.817 1488.981 C 1786.623 1392.712,1784.894 1389.811,1757.073 1363.602 C 1742.126 1349.521,1685.819 1301.178,1631.948 1256.174 C 1475.516 1125.490,1468.000 1118.086,1468.000 1094.667 C 1468.000 1080.249,1489.508 1057.068,1508.035 1051.517 C 1522.752 1047.108,1525.038 1047.842,1568.664 1071.001 C 1593.599 1084.238,1661.869 1122.086,1720.375 1155.108 C 1865.869 1237.228,1850.586 1230.338,1857.517 1216.934 L 1863.280 1205.790 1778.640 1157.721 L 1694.000 1109.651 1695.133 1095.826 C 1695.757 1088.221,1698.076 1075.250,1700.288 1067.000 L 1704.308 1052.000 1775.245 1052.000 L 1846.182 1052.000 1871.541 1067.000 C 1887.854 1076.649,1903.706 1090.561,1915.979 1106.000 C 1937.797 1133.447,2013.652 1248.474,2105.901 1394.000 C 2140.766 1449.000,2172.451 1497.400,2176.312 1501.556 C 2183.863 1509.681,2194.677 1508.101,2198.429 1498.324 C 2201.452 1490.445,1974.219 1134.935,1936.581 1088.659 C 1917.990 1065.801,1877.831 1037.484,1851.288 1028.517 C 1831.323 1021.772,1829.062 1019.606,1814.906 993.663 C 1704.340 791.031,1479.965 653.144,1193.739 611.934 C 1128.484 602.538,998.886 598.665,936.000 604.230 M1188.000 645.942 C 1251.078 655.686,1316.337 670.968,1370.796 688.746 C 1424.262 706.201,1523.654 753.103,1569.095 782.321 C 1633.601 823.798,1699.401 883.999,1738.958 937.728 C 1762.651 969.910,1789.663 1015.671,1786.709 1018.624 C 1785.411 1019.922,1767.789 1021.929,1747.550 1023.083 L 1710.751 1025.181 1713.331 1006.356 C 1716.109 986.090,1710.224 966.134,1698.638 956.525 C 1685.907 945.968,1430.544 900.486,1411.224 905.335 C 1397.080 908.885,1380.810 926.500,1375.980 943.494 C 1373.712 951.472,1361.913 1006.992,1349.759 1066.871 C 1320.993 1208.591,1319.226 1204.058,1410.000 1221.346 C 1438.600 1226.793,1479.564 1234.333,1501.031 1238.102 L 1540.062 1244.956 1532.031 1257.950 C 1526.925 1266.211,1524.000 1277.901,1524.000 1290.044 C 1524.000 1307.546,1525.589 1310.702,1543.000 1327.785 C 1553.450 1338.037,1567.034 1350.255,1573.186 1354.935 L 1584.372 1363.444 1570.186 1382.028 C 1559.048 1396.620,1556.000 1404.287,1556.000 1417.715 C 1556.000 1447.593,1567.036 1458.519,1628.000 1488.995 C 1657.700 1503.842,1683.800 1516.662,1686.000 1517.484 C 1696.542 1521.421,1619.505 1587.144,1563.572 1621.932 C 1439.355 1699.190,1286.483 1748.338,1132.197 1760.616 C 1054.908 1766.767,921.889 1762.755,861.520 1752.452 C 544.985 1698.430,318.301 1534.430,249.404 1309.602 C 239.238 1276.427,238.497 1269.091,238.532 1202.000 C 238.564 1141.060,239.871 1125.284,247.045 1099.298 C 288.415 949.433,402.634 824.357,578.000 736.882 C 679.356 686.324,797.989 653.131,924.000 640.072 C 975.746 634.709,1138.746 638.333,1188.000 645.942 M1105.981 809.656 C 1091.476 824.160,1089.534 838.055,1099.011 859.535 C 1103.491 869.691,1116.257 898.700,1127.379 924.000 C 1149.890 975.207,1164.988 1024.005,1175.026 1078.000 C 1184.703 1130.054,1184.383 1271.252,1174.466 1325.535 C 1164.313 1381.105,1143.075 1445.542,1115.556 1504.270 C 1102.600 1531.919,1092.000 1557.658,1092.000 1561.469 C 1092.000 1584.307,1117.758 1605.848,1139.796 1601.441 C 1156.587 1598.083,1169.004 1582.100,1191.893 1534.383 C 1279.553 1351.637,1291.941 1150.775,1227.652 954.557 C 1208.283 895.438,1172.025 819.747,1157.665 808.451 C 1142.504 796.525,1118.553 797.084,1105.981 809.656 M957.107 887.891 C 943.031 896.473,937.649 910.088,941.797 926.616 C 943.263 932.455,953.160 956.305,963.791 979.616 C 999.476 1057.862,1011.935 1116.102,1011.976 1204.858 C 1012.014 1285.837,998.744 1342.600,959.463 1429.495 C 933.421 1487.101,934.989 1505.292,967.150 1518.736 C 978.586 1523.516,982.062 1523.397,993.810 1517.822 C 1016.910 1506.860,1043.175 1458.864,1067.318 1383.496 C 1088.973 1315.892,1093.916 1281.659,1093.811 1200.000 C 1093.707 1118.284,1088.663 1083.320,1067.687 1018.920 C 1051.707 969.857,1015.386 894.825,1003.631 886.592 C 991.056 877.784,972.850 878.292,957.107 887.891 M1566.249 953.883 C 1623.312 964.044,1673.150 973.298,1677.000 974.448 C 1682.385 976.057,1683.986 980.860,1683.937 995.270 C 1683.880 1012.403,1670.140 1087.194,1666.354 1090.980 C 1665.466 1091.868,1637.105 1077.161,1603.330 1058.297 C 1544.764 1025.588,1540.779 1024.000,1517.271 1024.000 C 1495.602 1024.000,1490.552 1025.579,1475.501 1037.059 C 1466.084 1044.241,1454.937 1056.013,1450.728 1063.218 C 1441.419 1079.159,1440.643 1109.915,1449.137 1126.306 C 1455.273 1138.149,1491.086 1173.884,1524.000 1201.009 C 1546.285 1219.375,1544.508 1219.531,1469.651 1205.770 C 1378.018 1188.925,1360.635 1184.304,1358.029 1176.092 C 1356.747 1172.051,1359.456 1150.126,1364.051 1127.372 C 1378.268 1056.968,1404.696 938.184,1406.969 934.467 C 1410.491 928.711,1456.129 934.275,1566.249 953.883 M800.307 970.356 C 783.421 984.564,784.142 1000.375,803.651 1043.703 C 833.512 1110.019,838.000 1130.441,838.000 1200.000 C 838.000 1270.056,833.190 1291.819,803.200 1357.452 C 794.290 1376.951,787.000 1397.174,787.000 1402.391 C 787.000 1416.478,798.794 1431.904,814.619 1438.516 C 827.273 1443.803,830.015 1443.675,843.199 1437.182 C 854.673 1431.531,861.392 1423.180,874.713 1398.013 C 936.718 1280.869,939.785 1138.913,882.905 1018.837 C 855.842 961.707,829.182 946.059,800.307 970.356 M656.443 1046.241 C 636.158 1063.309,636.192 1078.169,656.597 1114.777 L 674.000 1146.000 674.000 1200.000 L 674.000 1254.000 657.000 1285.340 C 637.734 1320.858,636.725 1327.757,648.108 1346.174 C 658.823 1363.512,676.251 1369.674,693.814 1362.335 C 732.367 1346.227,768.259 1250.953,761.750 1182.000 C 756.639 1127.847,724.313 1053.012,700.535 1040.287 C 686.911 1032.995,669.370 1035.364,656.443 1046.241 M1657.472 1311.474 C 1726.995 1369.424,1756.000 1394.838,1756.000 1397.802 C 1756.000 1401.059,1726.364 1407.955,1712.263 1407.978 C 1693.076 1408.009,1672.307 1396.947,1626.000 1362.033 C 1572.638 1321.800,1548.000 1298.344,1548.000 1287.774 C 1548.000 1274.932,1572.675 1251.879,1583.415 1254.688 C 1588.168 1255.931,1621.494 1281.485,1657.472 1311.474 M1643.833 1408.724 C 1676.398 1431.897,1700.659 1437.766,1738.599 1431.645 C 1773.350 1426.039,1774.277 1426.538,1784.034 1456.103 C 1790.486 1475.654,1790.435 1475.706,1752.570 1488.408 C 1736.418 1493.826,1721.660 1496.203,1712.118 1494.923 C 1694.990 1492.626,1601.590 1449.078,1591.000 1438.453 C 1580.489 1427.906,1581.965 1405.671,1593.973 1393.663 C 1605.450 1382.186,1607.348 1382.760,1643.833 1408.724 " fill="#1D1E23" stroke="none" fill-rule="evenodd"/></svg>