<svg viewBox="0 0 2400 2400" fill="none" xmlns="http://www.w3.org/2000/svg"><path d="M922.374 608.209 C 671.795 628.950,426.048 750.654,301.707 915.591 C 270.075 957.550,231.817 1033.433,217.809 1082.000 C 178.652 1217.760,214.612 1378.285,310.869 1497.420 C 403.293 1611.811,527.605 1692.156,698.000 1747.629 C 818.482 1786.852,878.021 1795.948,1014.000 1795.905 C 1154.976 1795.861,1212.899 1790.798,1285.253 1772.198 C 1459.411 1727.427,1545.285 1684.787,1683.230 1574.588 C 1737.848 1530.956,1779.896 1504.000,1793.338 1504.000 C 1796.759 1504.000,1813.524 1518.448,1830.595 1536.107 C 1847.666 1553.766,1870.285 1573.766,1880.860 1580.552 C 1903.788 1595.265,1958.725 1617.260,1964.158 1613.902 C 1966.271 1612.596,1968.000 1607.042,1968.000 1601.560 C 1968.000 1593.789,1964.694 1590.252,1953.000 1585.511 C 1882.586 1556.967,1864.249 1541.189,1830.098 1479.764 C 1786.434 1401.227,1781.954 1394.697,1748.943 1361.486 C 1730.762 1343.195,1677.662 1295.603,1630.943 1255.725 C 1534.267 1173.206,1482.341 1124.130,1473.388 1106.816 C 1468.776 1097.899,1468.259 1092.613,1471.337 1085.858 C 1476.537 1074.446,1498.633 1057.463,1512.921 1053.898 C 1527.356 1050.296,1547.216 1059.806,1686.000 1136.783 C 1747.600 1170.949,1807.599 1203.756,1819.331 1209.687 C 1840.990 1220.636,1856.074 1221.948,1858.975 1213.135 C 1860.858 1207.415,1840.017 1193.753,1756.608 1146.029 L 1695.215 1110.902 1697.930 1088.451 C 1702.065 1054.242,1702.146 1054.206,1778.411 1052.651 L 1844.552 1051.302 1861.273 1062.368 C 1899.315 1087.542,1919.294 1112.604,2008.547 1247.111 C 2181.652 1507.983,2177.427 1501.919,2187.000 1503.278 C 2198.209 1504.870,2198.292 1500.188,2187.434 1478.841 C 2162.525 1429.868,2000.261 1176.888,1955.915 1117.887 C 1924.486 1076.072,1907.796 1061.112,1864.994 1036.392 C 1834.196 1018.605,1834.299 1018.722,1772.263 931.201 C 1704.756 835.962,1624.561 769.770,1504.000 709.782 C 1389.827 652.971,1285.870 622.988,1166.000 612.296 C 1098.921 606.313,971.176 604.170,922.374 608.209 M1236.391 655.207 C 1374.036 684.305,1482.504 728.610,1586.000 798.008 C 1672.076 855.726,1730.992 917.476,1775.377 996.499 L 1788.013 1018.997 1775.507 1021.499 C 1768.628 1022.874,1751.525 1024.000,1737.500 1024.000 L 1712.000 1024.000 1712.000 1004.260 C 1712.000 979.596,1707.029 966.169,1694.974 958.270 C 1674.470 944.835,1423.797 901.234,1405.988 908.005 C 1385.081 915.953,1374.096 945.977,1351.838 1056.000 C 1343.160 1098.900,1334.937 1144.864,1333.565 1158.141 C 1331.290 1180.164,1331.979 1183.362,1341.420 1194.582 C 1353.859 1209.364,1370.966 1214.552,1466.000 1232.358 C 1503.400 1239.366,1534.445 1245.447,1534.988 1245.871 C 1535.532 1246.296,1533.093 1255.107,1529.568 1265.453 C 1519.275 1295.660,1523.999 1308.859,1555.893 1339.011 L 1583.199 1364.825 1573.588 1378.988 C 1561.123 1397.356,1554.281 1420.604,1557.529 1433.549 C 1560.708 1446.212,1591.092 1469.559,1634.000 1492.308 C 1669.562 1511.163,1680.000 1518.850,1680.000 1526.187 C 1680.000 1532.998,1621.236 1582.214,1580.000 1609.938 C 1536.846 1638.953,1438.514 1687.169,1384.000 1706.046 C 1326.143 1726.080,1246.577 1746.124,1191.857 1754.449 C 1127.054 1764.308,948.141 1764.594,886.779 1754.936 C 622.312 1713.311,421.587 1602.887,314.263 1439.980 C 287.951 1400.041,260.381 1342.572,251.186 1308.499 C 244.369 1283.237,242.889 1265.293,242.569 1204.000 C 242.122 1118.486,245.439 1097.864,267.716 1047.675 C 316.429 937.930,380.939 862.764,487.864 791.164 C 584.865 726.209,733.980 668.728,848.000 652.338 C 864.500 649.966,882.500 647.276,888.000 646.361 C 893.500 645.446,965.500 645.236,1048.000 645.894 C 1180.490 646.951,1202.481 648.038,1236.391 655.207 M1109.000 810.334 C 1090.027 825.287,1091.702 837.411,1124.298 921.044 C 1139.862 960.978,1156.996 1009.929,1162.373 1029.825 C 1184.060 1110.066,1183.980 1289.429,1162.220 1372.425 C 1156.801 1393.091,1144.888 1428.900,1135.746 1452.000 C 1113.554 1508.073,1096.000 1559.772,1096.000 1569.058 C 1096.000 1573.215,1101.262 1581.877,1107.692 1588.308 C 1139.577 1620.192,1169.772 1590.352,1211.219 1486.000 C 1268.406 1342.017,1281.541 1200.980,1251.823 1050.000 C 1233.146 955.110,1180.604 827.752,1152.408 809.026 C 1134.896 797.396,1125.040 797.693,1109.000 810.334 M952.423 895.605 C 945.590 901.988,940.000 909.953,940.000 913.306 C 940.000 916.659,950.476 946.987,963.279 980.701 C 997.789 1071.574,1002.045 1089.143,1007.853 1164.742 C 1011.830 1216.490,1007.934 1273.579,997.563 1315.536 C 993.966 1330.091,979.366 1374.400,965.119 1414.000 C 941.417 1479.884,939.683 1486.842,944.711 1495.910 C 950.063 1505.563,973.672 1524.000,980.681 1524.000 C 982.605 1524.000,992.082 1516.715,1001.742 1507.811 C 1034.222 1477.872,1067.257 1399.231,1084.743 1310.227 C 1095.195 1257.023,1097.036 1155.814,1088.421 1108.000 C 1075.935 1038.700,1034.790 926.913,1011.264 898.371 C 1001.001 885.921,997.107 884.000,982.132 884.000 C 968.578 884.000,962.164 886.505,952.423 895.605 M1526.000 948.164 C 1600.637 960.574,1672.404 975.305,1679.456 979.664 C 1684.170 982.577,1680.346 1027.336,1671.671 1070.791 L 1667.520 1091.582 1607.455 1061.860 C 1574.419 1045.513,1540.706 1030.136,1532.537 1027.688 C 1502.679 1018.743,1466.078 1037.783,1451.519 1069.835 C 1435.424 1105.267,1442.898 1122.851,1496.401 1175.427 C 1519.110 1197.742,1535.059 1215.998,1531.845 1215.995 C 1521.095 1215.984,1458.479 1204.279,1412.974 1193.772 C 1361.621 1181.915,1358.027 1178.737,1362.164 1148.848 C 1365.588 1124.109,1404.213 938.977,1406.852 934.659 C 1409.441 930.422,1440.384 933.929,1526.000 948.164 M808.646 966.762 C 801.301 970.381,793.621 977.737,791.579 983.108 C 787.299 994.365,788.035 997.231,814.411 1072.000 L 833.460 1126.000 833.469 1198.000 C 833.479 1276.739,833.167 1278.322,799.426 1370.719 L 786.018 1407.437 794.293 1418.719 C 798.845 1424.923,808.562 1433.056,815.887 1436.791 C 827.494 1442.708,830.577 1442.873,839.866 1438.069 C 871.682 1421.617,911.376 1325.325,919.764 1244.249 C 930.796 1137.614,891.750 997.683,842.600 967.713 C 827.398 958.444,825.629 958.394,808.646 966.762 M666.000 1042.589 C 640.079 1056.129,637.726 1072.725,656.193 1111.761 C 667.528 1135.722,668.539 1141.593,670.655 1195.761 L 672.930 1254.000 658.465 1283.887 C 640.505 1320.995,639.877 1336.493,655.692 1352.308 C 662.192 1358.807,671.696 1364.000,677.092 1364.000 C 716.024 1364.000,760.000 1279.818,760.000 1205.290 C 760.000 1148.162,738.740 1083.349,710.244 1053.610 C 692.094 1034.666,684.694 1032.823,666.000 1042.589 M1602.053 1269.511 C 1641.808 1296.439,1748.000 1388.292,1748.000 1395.751 C 1748.000 1400.954,1744.012 1403.858,1734.386 1405.664 C 1710.856 1410.078,1688.674 1403.772,1658.643 1384.130 C 1619.186 1358.325,1560.632 1308.826,1553.697 1295.414 C 1548.280 1284.938,1548.651 1283.537,1560.395 1270.161 C 1567.234 1262.373,1574.916 1256.000,1577.468 1256.000 C 1580.019 1256.000,1591.083 1262.080,1602.053 1269.511 M1635.922 1403.955 C 1676.390 1427.589,1682.027 1429.253,1730.000 1431.729 L 1774.000 1434.000 1779.763 1450.671 C 1787.336 1472.577,1783.060 1477.625,1747.884 1488.310 C 1715.054 1498.281,1704.007 1496.110,1650.166 1469.099 C 1594.589 1441.217,1581.172 1427.958,1588.646 1408.301 C 1593.310 1396.033,1599.699 1388.000,1604.792 1388.000 C 1606.889 1388.000,1620.897 1395.180,1635.922 1403.955 " fill="#1D1E23" stroke="none" fill-rule="evenodd"/></svg>