<svg viewBox="0 0 2400 2400" fill="none" xmlns="http://www.w3.org/2000/svg"><path d="M916.000 608.267 C 800.439 616.683,654.938 658.767,548.000 714.705 C 358.861 813.642,243.725 951.279,207.291 1122.000 C 199.059 1160.576,201.060 1251.451,211.036 1292.000 C 236.499 1395.502,281.910 1474.988,359.632 1552.097 C 465.961 1657.586,605.956 1729.840,789.929 1774.181 C 874.780 1794.632,905.979 1797.040,1058.629 1794.925 C 1210.306 1792.823,1228.196 1790.395,1345.752 1755.958 C 1480.061 1716.614,1571.906 1667.130,1684.000 1573.719 C 1739.874 1527.157,1777.037 1504.000,1795.885 1504.000 C 1800.257 1504.000,1812.529 1515.006,1825.258 1530.340 C 1852.889 1563.629,1879.686 1583.796,1916.787 1599.223 C 1961.746 1617.918,1966.575 1618.576,1968.916 1606.328 C 1971.336 1593.671,1967.449 1590.325,1936.013 1578.005 C 1875.647 1554.348,1858.462 1536.765,1816.176 1455.392 C 1788.784 1402.681,1783.238 1394.884,1748.176 1359.794 C 1727.179 1338.780,1681.200 1297.406,1646.000 1267.851 C 1493.829 1140.082,1464.453 1110.676,1469.380 1091.047 C 1473.048 1076.433,1496.911 1055.998,1513.441 1053.316 C 1530.725 1050.511,1538.505 1054.293,1696.000 1142.071 C 1752.100 1173.337,1809.489 1204.709,1823.531 1211.785 C 1847.194 1223.710,1849.536 1224.170,1855.531 1218.074 C 1861.498 1212.007,1861.200 1210.801,1851.684 1202.528 C 1846.009 1197.595,1808.455 1174.965,1768.228 1152.239 L 1695.089 1110.918 1697.756 1086.459 C 1699.440 1071.015,1702.838 1060.157,1706.976 1057.000 C 1711.612 1053.463,1733.012 1052.000,1780.137 1052.000 L 1846.745 1052.000 1875.270 1072.032 C 1891.775 1083.623,1910.839 1101.599,1920.511 1114.691 C 1936.418 1136.224,2066.973 1333.305,2132.949 1435.382 C 2149.971 1461.718,2168.506 1488.741,2174.138 1495.435 C 2184.856 1508.172,2196.000 1508.567,2196.000 1496.210 C 2196.000 1488.736,2148.086 1409.721,2066.103 1282.000 C 1945.176 1093.606,1924.835 1068.426,1869.710 1038.890 C 1854.470 1030.724,1839.165 1021.783,1835.700 1019.021 C 1832.235 1016.260,1814.920 992.354,1797.223 965.899 C 1779.526 939.443,1752.184 902.190,1736.463 883.115 C 1648.115 775.915,1483.500 680.556,1310.000 636.069 C 1242.529 618.770,1197.069 612.335,1112.000 608.044 C 1025.293 603.669,978.392 603.723,916.000 608.267 M1172.564 645.918 C 1212.446 648.220,1305.580 668.719,1365.724 688.433 C 1391.973 697.037,1441.137 717.500,1474.978 733.905 C 1620.191 804.304,1713.717 885.997,1775.589 996.482 L 1788.179 1018.964 1775.590 1021.482 C 1768.665 1022.867,1751.627 1024.000,1737.727 1024.000 L 1712.453 1024.000 1712.899 1004.451 C 1713.540 976.318,1706.294 961.786,1687.969 954.454 C 1669.735 947.158,1549.052 923.673,1468.476 911.739 C 1411.866 903.355,1410.786 903.341,1400.476 910.818 C 1382.137 924.119,1372.982 950.518,1354.291 1044.000 C 1331.033 1160.321,1329.318 1175.211,1337.379 1190.798 C 1346.073 1207.612,1360.722 1212.530,1454.000 1229.948 C 1498.000 1238.165,1534.675 1245.513,1535.501 1246.278 C 1536.326 1247.042,1534.076 1254.979,1530.501 1263.915 C 1526.925 1272.851,1524.000 1284.863,1524.000 1290.609 C 1524.000 1301.680,1537.096 1325.901,1545.826 1330.975 C 1548.688 1332.639,1558.428 1340.727,1567.469 1348.948 L 1583.908 1363.896 1571.516 1381.478 C 1563.617 1392.684,1558.360 1405.834,1557.017 1417.743 C 1554.983 1435.796,1555.524 1436.995,1573.035 1453.214 C 1583.003 1462.446,1608.898 1479.357,1630.579 1490.794 C 1692.081 1523.235,1689.923 1519.816,1664.204 1544.078 C 1555.689 1646.451,1377.093 1726.192,1194.000 1754.019 C 1136.496 1762.759,1001.090 1766.054,938.000 1760.249 C 664.565 1735.088,431.818 1616.844,316.844 1444.679 C 291.118 1406.155,265.800 1356.668,254.261 1322.351 C 236.503 1269.537,235.280 1139.372,252.040 1086.000 C 264.568 1046.106,305.233 968.164,332.170 932.416 C 373.031 878.190,441.323 818.035,509.163 776.512 C 627.357 704.170,787.603 651.545,912.000 644.222 C 960.527 641.365,1110.600 642.342,1172.564 645.918 M1108.743 809.988 C 1088.674 826.875,1089.317 833.763,1117.423 902.999 C 1147.526 977.157,1161.512 1018.851,1170.087 1060.000 C 1178.760 1101.620,1181.843 1205.971,1176.593 1280.217 C 1171.365 1354.171,1163.745 1383.431,1123.742 1483.165 C 1108.484 1521.206,1096.000 1558.219,1096.000 1565.416 C 1096.000 1574.715,1099.449 1581.808,1107.915 1589.918 C 1139.129 1619.823,1168.176 1592.853,1206.930 1497.982 C 1258.701 1371.247,1276.224 1257.643,1263.735 1129.695 C 1255.475 1045.067,1236.109 969.885,1201.711 888.906 C 1166.909 806.975,1139.736 783.909,1108.743 809.988 M969.252 884.509 C 955.884 888.273,940.000 904.861,940.000 915.058 C 940.000 918.346,950.792 948.253,963.982 981.518 C 994.039 1057.321,1002.531 1090.745,1008.295 1155.939 C 1016.373 1247.305,1005.950 1311.203,966.690 1410.993 C 954.787 1441.247,943.916 1471.400,942.531 1478.000 C 939.130 1494.217,946.848 1507.649,964.942 1517.001 L 979.884 1524.724 994.369 1515.772 C 1035.632 1490.270,1082.486 1365.826,1092.305 1255.656 C 1102.116 1145.580,1086.641 1057.567,1038.170 947.769 C 1011.134 886.526,999.621 875.958,969.252 884.509 M1490.382 941.818 C 1570.032 953.816,1676.728 975.128,1681.617 980.017 C 1685.228 983.628,1679.682 1034.198,1671.443 1072.778 L 1667.432 1091.556 1598.716 1057.416 C 1535.445 1025.981,1528.482 1023.417,1510.843 1025.066 C 1477.934 1028.141,1448.175 1057.957,1444.996 1091.040 C 1442.326 1118.825,1449.981 1131.429,1497.386 1177.304 L 1538.000 1216.609 1518.000 1214.063 C 1475.976 1208.715,1377.627 1187.365,1369.013 1181.721 C 1358.368 1174.746,1358.086 1169.090,1366.095 1123.300 C 1372.208 1088.356,1402.595 946.302,1405.947 937.000 C 1408.400 930.194,1416.153 930.636,1490.382 941.818 M804.973 968.477 C 785.895 980.695,785.049 991.161,799.898 1031.234 C 834.616 1124.924,833.018 1118.163,835.060 1180.000 C 837.476 1253.170,832.600 1284.646,810.230 1340.300 C 800.534 1364.421,791.492 1389.209,790.135 1395.384 C 786.336 1412.683,793.875 1426.753,811.860 1435.928 C 826.987 1443.646,828.838 1443.772,840.252 1437.870 C 866.122 1424.492,898.831 1356.592,914.374 1284.000 C 937.807 1174.560,904.363 1018.040,847.283 970.010 C 832.848 957.864,822.151 957.477,804.973 968.477 M672.000 1038.886 C 668.700 1040.126,661.050 1044.607,655.000 1048.843 C 639.383 1059.778,640.004 1081.397,656.857 1113.505 C 669.332 1137.271,669.759 1139.738,671.212 1196.411 L 672.710 1254.821 659.791 1280.411 C 641.459 1316.720,639.161 1326.775,646.120 1340.232 C 673.529 1393.236,730.500 1351.492,753.676 1261.423 C 761.657 1230.405,761.702 1177.748,753.775 1144.000 C 744.597 1104.925,718.324 1053.300,702.798 1043.833 C 689.833 1035.928,682.855 1034.807,672.000 1038.886 M1596.665 1265.020 C 1610.917 1273.748,1699.718 1346.470,1736.000 1379.127 C 1758.865 1399.707,1754.831 1406.007,1718.800 1405.986 C 1698.680 1405.974,1690.226 1403.775,1674.000 1394.331 C 1633.179 1370.573,1561.420 1311.601,1552.067 1294.126 C 1546.932 1284.530,1547.458 1282.940,1560.070 1269.928 C 1567.495 1262.267,1575.466 1256.009,1577.785 1256.020 C 1580.103 1256.032,1588.599 1260.082,1596.665 1265.020 M1639.648 1405.753 C 1682.396 1430.757,1689.189 1432.691,1732.878 1432.286 L 1771.756 1431.926 1778.118 1444.229 C 1781.617 1450.995,1783.922 1461.329,1783.240 1467.192 C 1782.148 1476.578,1778.491 1479.027,1752.669 1487.668 C 1716.808 1499.668,1706.376 1497.686,1644.845 1467.186 C 1598.575 1444.251,1581.949 1428.753,1586.037 1412.367 C 1588.909 1400.855,1599.055 1388.000,1605.268 1388.000 C 1607.484 1388.000,1622.955 1395.989,1639.648 1405.753 " fill="#1D1E23" stroke="none" fill-rule="evenodd"/></svg>