<svg viewBox="0 0 2400 2400" fill="none" xmlns="http://www.w3.org/2000/svg"><path d="M1092.071 510.077 C 936.094 539.786,837.941 611.117,772.718 742.162 C 741.970 803.941,716.767 897.136,707.317 984.000 C 700.212 1049.317,700.125 1450.143,707.203 1510.000 C 718.361 1604.353,737.331 1673.654,772.069 1746.971 C 798.204 1802.130,825.726 1840.811,867.471 1881.054 C 937.927 1948.974,1028.835 1986.813,1144.000 1996.156 C 1374.571 2014.861,1545.339 1928.100,1628.337 1750.083 C 1660.494 1681.111,1684.115 1592.905,1691.559 1514.000 C 1698.211 1443.484,1701.077 1183.992,1696.484 1068.000 C 1693.068 981.734,1690.451 953.436,1682.424 916.000 C 1652.316 775.577,1614.977 698.342,1542.226 626.000 C 1479.078 563.207,1414.468 530.607,1320.000 513.871 C 1267.526 504.575,1132.738 502.331,1092.071 510.077 M1255.448 704.190 C 1318.236 714.378,1366.973 756.459,1402.367 831.043 C 1430.310 889.927,1431.646 900.830,1436.535 1109.906 C 1441.538 1323.808,1438.942 1506.667,1430.072 1565.214 C 1414.368 1668.873,1368.652 1747.364,1305.379 1779.304 C 1277.682 1793.285,1230.577 1804.000,1196.808 1804.000 C 1167.052 1804.000,1117.358 1791.415,1091.465 1777.323 C 1080.499 1771.354,1060.005 1754.258,1045.924 1739.330 C 1001.373 1692.104,972.643 1617.342,963.593 1525.086 C 956.579 1453.585,961.095 973.152,969.243 924.000 C 981.835 848.038,1003.884 800.978,1048.000 755.906 C 1077.009 726.269,1105.941 710.114,1140.000 704.537 C 1170.910 699.476,1225.389 699.312,1255.448 704.190 M200.000 1250.984 L 200.000 1625.968 388.000 1438.000 L 576.000 1250.032 389.016 1063.016 C 286.175 960.157,201.575 876.000,201.016 876.000 C 200.457 876.000,200.000 1044.743,200.000 1250.984 M2010.984 1063.016 L 1824.000 1250.032 2012.000 1438.000 L 2200.000 1625.968 2200.000 1250.984 C 2200.000 1044.743,2199.543 876.000,2198.984 876.000 C 2198.425 876.000,2113.825 960.157,2010.984 1063.016 " fill="#1D1E23" stroke="none" fill-rule="evenodd"/></svg>