<svg viewBox="0 0 2400 2400" fill="none" xmlns="http://www.w3.org/2000/svg"><path d="M1140.000 502.389 C 1003.773 518.654,922.448 553.691,851.549 626.660 C 778.041 702.315,734.483 802.512,711.132 949.663 C 703.728 996.320,702.630 1024.574,701.008 1210.000 C 698.808 1461.520,703.368 1532.431,727.887 1628.000 C 774.666 1810.328,869.778 1924.256,1014.736 1971.595 C 1069.912 1989.614,1111.448 1996.447,1180.000 1998.784 C 1312.745 2003.310,1420.644 1974.327,1503.510 1911.885 C 1604.892 1835.492,1665.480 1710.417,1692.377 1522.000 C 1698.946 1475.981,1701.955 1088.341,1696.257 1022.102 C 1669.838 714.976,1547.690 551.298,1314.000 509.881 C 1279.246 503.722,1168.701 498.962,1140.000 502.389 M1257.930 702.055 C 1299.077 710.771,1326.402 725.705,1356.035 755.671 C 1387.255 787.244,1407.286 825.213,1421.625 880.000 C 1441.241 954.949,1442.000 968.658,1442.000 1248.000 C 1442.000 1480.824,1441.198 1515.059,1434.799 1555.431 C 1407.929 1724.943,1333.886 1804.275,1202.291 1804.544 C 1121.081 1804.711,1061.706 1775.834,1022.937 1717.316 C 999.775 1682.354,986.263 1649.856,974.235 1600.181 C 957.064 1529.269,955.251 1488.613,957.102 1216.000 C 958.944 944.736,959.435 937.434,980.618 866.000 C 1007.241 776.223,1063.001 718.941,1140.000 702.266 C 1174.356 694.826,1223.389 694.739,1257.930 702.055 M200.000 1250.984 L 200.000 1625.968 388.000 1438.000 L 576.000 1250.032 389.016 1063.016 C 286.175 960.157,201.575 876.000,201.016 876.000 C 200.457 876.000,200.000 1044.743,200.000 1250.984 M2010.984 1063.016 L 1824.000 1250.032 2012.000 1438.000 L 2200.000 1625.968 2200.000 1250.984 C 2200.000 1044.743,2199.543 876.000,2198.984 876.000 C 2198.425 876.000,2113.825 960.157,2010.984 1063.016 " fill="#1D1E23" stroke="none" fill-rule="evenodd"/></svg>