<svg viewBox="0 0 24 24" fill="none" xmlns="http://www.w3.org/2000/svg"><g><path d="M12 5.83021L14.46 8.29021C14.85 8.68021 15.48 8.68021 15.87 8.29021C16.26 7.90021 16.26 7.27022 15.87 6.88021L12.7 3.70021C12.31 3.31021 11.68 3.31021 11.29 3.70021L8.12 6.88021C7.73 7.27022 7.73 7.90021 8.12 8.29021C8.51 8.68021 9.14 8.68021 9.53 8.29021L12 5.83021ZM12 18.1702L9.54 15.7102C9.15 15.3202 8.52 15.3202 8.13 15.7102C7.74 16.1002 7.74 16.7302 8.13 17.1202L11.3 20.3002C11.69 20.6902 12.32 20.6902 12.71 20.3002L15.88 17.1302C16.27 16.7402 16.27 16.1102 15.88 15.7202C15.49 15.3302 14.86 15.3302 14.47 15.7202L12 18.1702Z" fill="#1D1E23"/></g></svg>