<svg xmlns="http://www.w3.org/2000/svg" width="1200" height="1200" fill="none" viewBox="0 0 1200 1200"><g clip-path="url(#a)"><path fill="#000" d="M700 400h100v100c0 27.5 22.5 50 50 50s50-22.5 50-50V400h100c27.5 0 50-22.5 50-50s-22.5-50-50-50H900V200c0-27.5-22.5-50-50-50s-50 22.5-50 50v100H700c-27.5 0-50 22.5-50 50s22.5 50 50 50m260.5 363.5-127-14.5c-30.5-3.5-60.5 7-82 28.5l-92 92C518 797.5 402.001 682 330.002 540l92.5-92.5c21.499-21.5 32-52 28.5-82l-14.501-126c-5.5-50.5-48.499-89-99-89h-86.499c-56.501 0-103.501 47-100 103.5C177.501 681 519 1022 945.5 1048.5c56.5 3.5 103.5-43.5 103.5-100V862c.5-50-38-93-88.5-98.5"/></g><defs><clipPath id="a"><path fill="#fff" d="M0 0h1200v1200H0z"/></clipPath></defs></svg>