<svg width="1200" height="1200" viewBox="0 0 1200 1200" fill="none" xmlns="http://www.w3.org/2000/svg"><g clip-path="url(#clip0_225_2419)"><path d="M700 400H800V500C800 527.5 822.5 550 850 550C877.5 550 900 527.5 900 500V400H1000C1027.5 400 1050 377.5 1050 350C1050 322.5 1027.5 300 1000 300H900V200C900 172.5 877.5 150 850 150C822.5 150 800 172.5 800 200V300H700C672.5 300 650 322.5 650 350C650 377.5 672.5 400 700 400ZM960.5 763.5L833.5 749C803 745.5 773 756 751.5 777.5L659.5 869.5C518 797.5 402.001 682 330.002 540L422.502 447.5C444.001 426 454.502 395.5 451.002 365.5L436.501 239.5C431.001 189 388.002 150.5 337.501 150.5H251.002C194.501 150.5 147.501 197.5 151.002 254C177.501 681 519 1022 945.5 1048.5C1002 1052 1049 1005 1049 948.5V862C1049.5 812 1011 769 960.5 763.5Z" fill="black"/></g><defs><clipPath id="clip0_225_2419"><path width="24" fill="white" d="M0 0H1200V1200H0V0z"/></clipPath></defs></svg>