<svg width="1200" height="1200" viewBox="0 0 1200 1200" fill="none" xmlns="http://www.w3.org/2000/svg"><path d="M100 430.92C100 391.751 131.752 359.999 170.921 359.999C210.089 359.999 241.842 391.751 241.842 430.92V769.08C241.842 808.245 210.089 840 170.921 840C131.752 840 100 808.245 100 769.08V430.92Z" fill="black"/><path d="M525.515 430.92C525.515 391.751 557.265 359.999 596.435 359.999C635.6 359.999 667.355 391.751 667.355 430.92V769.08C667.355 808.245 635.6 840 596.435 840C557.265 840 525.515 808.245 525.515 769.08V430.92Z" fill="black"/><path d="M958.155 430.92C958.155 391.751 989.905 359.999 1029.075 359.999C1068.245 359.999 1099.995 391.751 1099.995 430.92V769.08C1099.995 808.245 1068.245 840 1029.075 840C989.905 840 958.155 808.245 958.155 769.08V430.92Z" fill="black"/><path d="M312.769 270.921C312.769 231.752 344.521 200 383.69 200C422.858 200 454.611 231.752 454.611 270.921V929.08C454.611 968.25 422.858 1000 383.69 1000C344.521 1000 312.769 968.25 312.769 929.08V270.921Z" fill="black"/><path d="M738.305 270.921C738.305 231.752 770.06 200 809.225 200C848.395 200 880.15 231.752 880.15 270.921V929.08C880.15 968.25 848.395 1000 809.225 1000C770.06 1000 738.305 968.25 738.305 929.08V270.921Z" fill="black"/></svg>