<svg width="1200" height="1200" viewBox="0 0 1200 1200" fill="none" xmlns="http://www.w3.org/2000/svg"><g clip-path="url(#clip0_5130_227)"><path d="M742.525 165.62V98.495C742.525 81.62 722.275 73.37 710.65 85.37L605.65 189.995C598.15 197.495 598.15 209.12 605.65 216.62L710.275 321.245C722.275 332.87 742.525 324.62 742.525 307.745V240.62C866.65 240.62 967.525 341.495 967.525 465.62C967.525 495.245 961.9 524.12 951.025 549.995C945.4 563.495 949.525 578.87 959.65 588.995C978.775 608.12 1011.025 601.37 1021.15 576.245C1035.025 542.12 1042.525 504.62 1042.525 465.62C1042.525 299.87 908.275 165.62 742.525 165.62Z" fill="black"/><path d="M655.57 845.01L781.57 720.01C793.07 708.51 810.07 703.51 826.57 707.01L1010.07 743.51C1033.07 748.01 1050.07 768.51 1050.07 792.51V1000.01C1050.07 1028.01 1026.57 1051.51 998.57 1050.01C854.07 1041.51 718.57 997.01 600.07 928.51C464.068 849.51 350.568 736.51 271.568 600.01C202.568 481.512 158.568 346.012 150.068 201.512C148.568 173.512 172.068 150.012 200.068 150.012H407.568C431.568 150.012 452.068 167.012 456.568 190.012L494.068 374.012C497.068 390.512 492.068 407.012 480.568 419.012L355.568 545.01C427.068 670.01 530.57 773.51 655.57 845.01Z" fill="black"/></g><defs><clipPath id="clip0_5130_227"><path width="24" fill="white" d="M0 0H1200V1200H0V0z"/></clipPath></defs></svg>