<svg xmlns="http://www.w3.org/2000/svg" width="1200" height="1200" fill="none"><path fill="#1D1E23" d="M920 200H280c-44 0-80 36-80 80v720l160-160h560c44 0 80-36 80-80V280c0-44-36-80-80-80m0 560H360l-80 80V280h640z"/><path fill="#1D1E23" d="M721.895 469.737c26.21 0 47.37-21.158 47.37-47.369S748.105 375 721.895 375s-47.37 21.158-47.37 47.368 21.16 47.369 47.37 47.369m-221.055 0c26.215 0 47.37-21.158 47.37-47.369S527.055 375 500.84 375c-26.208 0-47.366 21.158-47.366 47.368s21.158 47.369 47.366 47.369M611.37 675c73.575 0 136.105-46.105 161.365-110.525H450C475.263 628.895 537.79 675 611.37 675"/></svg>