<svg xmlns="http://www.w3.org/2000/svg" width="1200" height="1200" fill="none" viewBox="0 0 1200 1200"><path fill="#000" d="M943.08 695.91h-24.84l-8.805-8.49c30.815-35.85 49.37-82.39 49.37-133.015 0-112.895-91.51-204.405-204.4-204.405C641.51 350 550 441.51 550 554.405c0 112.89 91.51 204.4 204.405 204.4 50.625 0 97.165-18.555 133.015-49.37l8.49 8.805v24.84l139.555 139.28c9.77 9.745 25.585 9.735 35.34-.02l11.535-11.535c9.755-9.755 9.765-25.57.02-35.34zm-188.675 0c-78.305 0-141.51-63.205-141.51-141.505 0-78.304 63.205-141.512 141.51-141.512 78.3 0 141.505 63.208 141.505 141.512 0 78.3-63.205 141.505-141.505 141.505"/><path fill="#000" d="M280 200h640c44 0 80 36 80 80v73.545A353 353 0 0 0 950 350c-10.105 0-20.11.428-30 1.268V292.5c0-6.904-5.595-12.5-12.5-12.5h-615c-6.904 0-12.5 5.596-12.5 12.5v517.32c0 11.14 13.465 16.715 21.339 8.84l55-55a12.5 12.5 0 0 1 8.839-3.66h239.947a347.3 347.3 0 0 0 24 80H360L221.339 978.66c-7.875 7.875-21.339 2.3-21.339-8.84V280c0-44 36-80 80-80"/></svg>