<svg xmlns="http://www.w3.org/2000/svg" width="1200" height="1200" fill="none"><path fill="#000" d="M657.995 150c29.135.001 57.675 2.444 85.455 6.925-16.83 22.63-30.195 47.719-39.38 74.607a450 450 0 0 0-46.075-2.357c-231.757 0-419.65 177.213-419.654 395.825 0 73.865 21.399 142.905 58.659 202.015 5.904 9.36 7.473 20.615 4.307 31.09l-98.658 162.72h455.346C889.74 1020.815 1077.6 843.605 1077.6 625c0-14.015-.79-27.86-2.295-41.505 28.535-8.73 55.145-21.47 79.135-37.52 4.57 25.71 7.08 52.09 7.08 79.025 0 262.33-225.425 474.99-503.525 475H154.421c-27.972 0-55.982-26.37-54.354-50.44l115.691-197.2C176.646 784.8 154.421 707.295 154.421 625c.002-262.336 225.466-475 503.574-475"/><path fill="#000" d="M1161.54 300.884c0 83.331-71.29 150.884-159.23 150.884s-159.23-67.553-159.23-150.884S914.37 150 1002.31 150s159.23 67.553 159.23 150.884"/></svg>