<svg xmlns="http://www.w3.org/2000/svg" width="1200" height="1200" fill="none" viewBox="0 0 1200 1200"><path fill="#000" d="M625.65 150c27.445.001 54.33 2.429 80.5 6.885a276.7 276.7 0 0 0-37.095 74.169 402 402 0 0 0-43.405-2.343c-218.323 0-395.325 176.174-395.328 393.504 0 73.435 20.158 142.07 55.259 200.83a39.22 39.22 0 0 1 4.056 30.91l-92.939 161.77H625.65c218.315-.015 395.28-176.18 395.28-393.51 0-13.935-.74-27.695-2.16-41.26 26.88-8.68 51.945-21.345 74.55-37.305 4.3 25.565 6.67 51.79 6.67 78.565 0 260.795-212.36 472.21-474.34 472.22H151.266c-26.35 0-52.736-26.22-51.202-50.15L209.048 848.24c-36.845-67.16-57.782-144.21-57.782-226.025C151.269 361.418 363.663 150 625.65 150"/><path fill="#000" d="M1100.005 300c0 82.843-67.16 150-150 150-82.845 0-150-67.157-150-150s67.155-150 150-150c82.84 0 150 67.157 150 150"/></svg>