<svg xmlns="http://www.w3.org/2000/svg" width="1200" height="1200" fill="none"><g clip-path="url(#a)"><path fill="#000" d="M600 950c-55 0-100 45-100 100s45 100 100 100 100-45 100-100-45-100-100-100M300 50c-55 0-100 45-100 100s45 100 100 100 100-45 100-100S355 50 300 50m0 300c-55 0-100 45-100 100s45 100 100 100 100-45 100-100-45-100-100-100m0 300c-55 0-100 45-100 100s45 100 100 100 100-45 100-100-45-100-100-100m600-400c55 0 100-45 100-100S955 50 900 50 800 95 800 150s45 100 100 100M600 650c-55 0-100 45-100 100s45 100 100 100 100-45 100-100-45-100-100-100m300 0c-55 0-100 45-100 100s45 100 100 100 100-45 100-100-45-100-100-100m0-300c-55 0-100 45-100 100s45 100 100 100 100-45 100-100-45-100-100-100m-300 0c-55 0-100 45-100 100s45 100 100 100 100-45 100-100-45-100-100-100m0-300c-55 0-100 45-100 100s45 100 100 100 100-45 100-100S655 50 600 50"/></g><defs><clipPath id="a"><path fill="#fff" d="M0 0h1200v1200H0z"/></clipPath></defs></svg>