<svg xmlns="http://www.w3.org/2000/svg" width="1200" height="1200" fill="none"><g clip-path="url(#a)"><path fill="#1D1E23" d="M600 100c-276 0-500 224-500 500s224 500 500 500h250v-100H600c-217 0-400-183-400-400s183-400 400-400 400 183 400 400v71.5c0 39.5-35.5 78.5-75 78.5s-75-39-75-78.5V600c0-138-112-250-250-250S350 462 350 600s112 250 250 250c69 0 132-28 177-73.5C809.5 821 865.5 850 925 850c98.5 0 175-80 175-178.5V600c0-276-224-500-500-500m0 650c-83 0-150-67-150-150s67-150 150-150 150 67 150 150-67 150-150 150"/></g><defs><clipPath id="a"><path fill="#fff" d="M0 0h1200v1200H0z"/></clipPath></defs></svg>