<svg xmlns="http://www.w3.org/2000/svg" width="1200" height="1200" fill="none"><path fill="#1D1E23" d="M1090.615 109.383a32.025 32.025 0 0 1 0 45.297l-342.44 342.444h268.55a32.024 32.024 0 1 1 0 64.051H670.85c-17.675 0-32.025-14.35-32.025-32.025V183.272a32.03 32.03 0 0 1 9.38-22.645 32.02 32.02 0 0 1 22.645-9.38 32.02 32.02 0 0 1 22.645 9.38 32.03 32.03 0 0 1 9.38 22.645v268.555l342.445-342.444a32.04 32.04 0 0 1 22.65-9.383 32.01 32.01 0 0 1 22.645 9.383"/><path fill="#1D1E23" d="m624.03 887.54 130.605-129.565c11.92-11.92 29.54-17.105 46.64-13.475l190.205 37.83c23.84 4.665 41.46 25.915 41.46 50.79v215.08c0 29.02-24.36 53.38-53.38 51.825-149.78-8.81-290.225-54.935-413.055-125.935-140.967-81.885-258.612-199.015-340.497-340.5-71.52-122.825-117.127-263.275-125.938-413.053-1.554-29.023 22.804-53.381 51.827-53.381h215.077c24.877 0 46.126 17.621 50.79 41.461l38.87 190.72c3.109 17.103-2.074 34.205-13.994 46.644L313.076 576.58A836.73 836.73 0 0 0 624.03 887.54"/></svg>