<svg xmlns="http://www.w3.org/2000/svg" width="1200" height="1200" fill="none" viewBox="0 0 1200 1200"><path fill="#000" d="M700 500V163c-32.5-8.5-66-13-100-13-210 0-400 161-400 410 0 166 133.5 362.5 400 590 266.5-227.5 400-424 400-590 0-20.5-2-40.5-4.5-60zM600 650c-55 0-100-45-100-100s45-100 100-100 100 45 100 100-45 100-100 100"/><path fill="#000" d="M1091.415 179.415c19.64-19.547 19.675-51.325.085-70.917-19.595-19.592-51.37-19.555-70.92.083L950 179.498l-70.585-70.917c-19.545-19.638-51.325-19.675-70.915-.083-19.595 19.592-19.555 51.37.08 70.917l70.92 70.583-70.92 70.584c-19.635 19.546-19.675 51.324-.08 70.916 19.59 19.592 51.37 19.555 70.915-.084L950 320.498l70.58 70.916c19.55 19.639 51.325 19.676 70.92.084 19.59-19.592 19.555-51.37-.085-70.916l-70.915-70.584z"/></svg>