<svg xmlns="http://www.w3.org/2000/svg" width="1200" height="1200" fill="none"><g clip-path="url(#a)"><path fill="#000" d="M1000 100H200c-55 0-99.5 45-99.5 100l-.5 900 200-200h700c55 0 100-45 100-100V200c0-55-45-100-100-100M650 700H350c-27.5 0-50-22.5-50-50s22.5-50 50-50h300c27.5 0 50 22.5 50 50s-22.5 50-50 50m200-150H350c-27.5 0-50-22.5-50-50s22.5-50 50-50h500c27.5 0 50 22.5 50 50s-22.5 50-50 50m0-150H350c-27.5 0-50-22.5-50-50s22.5-50 50-50h500c27.5 0 50 22.5 50 50s-22.5 50-50 50"/></g><defs><clipPath id="a"><path fill="#fff" d="M0 0h1200v1200H0z"/></clipPath></defs></svg>