<svg width="1200" height="1200" viewBox="0 0 1200 1200" fill="none" xmlns="http://www.w3.org/2000/svg"><path d="M825 800H875V675H1000V625H875V500H825V625H700V675H825V800ZM850 900C780.835 900 721.875 875.625 673.125 826.875C624.375 778.125 600 719.165 600 650C600 580.835 624.375 521.875 673.125 473.125C721.875 424.375 780.835 400 850 400C919.165 400 978.125 424.375 1026.875 473.125C1075.625 521.875 1100 580.835 1100 650C1100 719.165 1075.625 778.125 1026.875 826.875C978.125 875.625 919.165 900 850 900Z" fill="black"/><path d="M230 200H870C914 200 950 236 950 280V353.545C933.67 351.209 916.975 350 900 350C889.895 350 879.89 350.428 870 351.268V280H230V840L310 760H555.125C559.95 787.94 568.09 814.745 579.125 840H310L150 1000V280C150 236 186 200 230 200Z" fill="black"/></svg>