<svg xmlns="http://www.w3.org/2000/svg" width="1200" height="1200" fill="none" viewBox="0 0 1200 1200"><path fill="#000" d="M659.155 540.85a31.256 31.256 0 0 1-6.775-34.06 31.25 31.25 0 0 1 6.775-10.14l334.15-334.15h-262.05a31.252 31.252 0 0 1-22.095-53.347A31.25 31.25 0 0 1 731.255 100h337.5c17.25 0 31.25 14 31.25 31.25v337.5a31.248 31.248 0 0 1-53.345 22.097 31.25 31.25 0 0 1-9.155-22.097V206.7l-334.15 334.15a31.15 31.15 0 0 1-10.14 6.775 31.26 31.26 0 0 1-23.92 0 31.3 31.3 0 0 1-10.14-6.775"/><path fill="#000" d="m648.285 885.955 130.61-129.57c11.92-11.925 29.54-17.105 46.645-13.48l190.215 37.835c23.84 4.665 41.465 25.915 41.465 50.795v215.09c0 29.025-24.36 53.385-53.385 51.83-149.79-8.81-290.245-54.94-413.08-125.945-140.977-81.89-258.63-199.025-340.52-340.52C178.71 509.155 133.101 368.698 124.29 218.912c-1.556-29.025 22.804-53.384 51.829-53.384H391.21c24.879 0 46.129 17.622 50.794 41.463l38.871 190.732c3.111 17.104-2.072 34.207-13.993 46.647L337.308 574.98a836.7 836.7 0 0 0 310.977 310.975"/></svg>