<svg width="1200" height="1200" viewBox="0 0 1200 1200" fill="none" xmlns="http://www.w3.org/2000/svg"><path d="M659.155 540.85C656.255 537.95 653.95 534.505 652.38 530.71C650.81 526.92 650 522.855 650 518.75C650 514.645 650.81 510.58 652.38 506.79C653.95 502.995 656.255 499.552 659.155 496.65L993.305 162.5H731.255C722.97 162.5 715.02 159.207 709.16 153.347C703.3 147.487 700.005 139.538 700.005 131.25C700.005 122.962 703.3 115.013 709.16 109.153C715.02 103.293 722.97 100 731.255 100H1068.755C1086.005 100 1100.005 114 1100.005 131.25V468.75C1100.005 477.038 1096.715 484.987 1090.855 490.847C1084.99 496.708 1077.045 500 1068.755 500C1060.47 500 1052.52 496.708 1046.66 490.847C1040.8 484.987 1037.505 477.038 1037.505 468.75V206.7L703.355 540.85C700.455 543.755 697.01 546.055 693.215 547.625C689.425 549.195 685.36 550.005 681.255 550.005C677.15 550.005 673.085 549.195 669.295 547.625C665.505 546.055 662.06 543.755 659.155 540.85Z" fill="black"/><path d="M648.285 885.955L778.895 756.385C790.815 744.46 808.435 739.28 825.54 742.905L1015.755 780.74C1039.595 785.405 1057.22 806.655 1057.22 831.535V1046.625C1057.22 1075.65 1032.86 1100.01 1003.835 1098.455C854.045 1089.645 713.59 1043.515 590.755 972.51C449.778 890.62 332.125 773.485 250.235 631.99C178.71 509.155 133.101 368.698 124.29 218.912C122.734 189.887 147.094 165.528 176.119 165.528H391.21C416.089 165.528 437.339 183.15 442.004 206.991L480.875 397.723C483.986 414.827 478.803 431.93 466.882 444.37L337.308 574.98C411.424 704.555 518.71 811.84 648.285 885.955Z" fill="black"/></svg>