<svg xmlns="http://www.w3.org/2000/svg" width="1200" height="1200" fill="none" viewBox="0 0 1200 1200"><g fill="#000" clip-path="url(#a)"><path d="M500 600c110.455 0 200-89.545 200-200 0-110.457-89.545-200-200-200-110.457 0-200 89.543-200 200 0 110.455 89.543 200 200 200M517.5 700.5C381 695.5 100 763.5 100 900v50c0 27.5 22.5 50 50 50h427c-123.5-138-61.5-294.5-59.5-299.5"/><path fill-rule="evenodd" d="M995.5 760c11 52.5-.5 101-24 141l92.5 93.5c19.5 19.5 19.5 51 0 70.5s-51 19.5-70.5 0l-93-93c-40 23.5-88.5 35-141 24-82-17-147-86-158-169-17.5-131.5 93.5-242 225-225 83 10.5 152 76 169 158M700 800c0 55 45 100 100 100s100-45 100-100-45-100-100-100-100 45-100 100"/></g><defs><clipPath id="a"><path fill="#fff" d="M0 0h1200v1200H0z"/></clipPath></defs></svg>