<svg xmlns="http://www.w3.org/2000/svg" width="1200" height="1200" fill="none"><g fill="#1D1E23" clip-path="url(#a)"><path d="M500 600c110.455 0 200-89.545 200-200 0-110.457-89.545-200-200-200-110.457 0-200 89.543-200 200 0 110.455 89.543 200 200 200M517.5 700.5C381 695.5 100 763.5 100 900v100h477c-123.5-138-61.5-294.5-59.5-299.5"/><path fill-rule="evenodd" d="M1000 800c0 37-10.5 71.5-28.5 101l128.5 128.5-70.5 70.5L901 971.5c-29.5 17.5-64 28.5-101 28.5-110.5 0-200-89.5-200-200s89.5-200 200-200 200 89.5 200 200m-300 0c0 55 45 100 100 100s100-45 100-100-45-100-100-100-100 45-100 100"/></g><defs><clipPath id="a"><path fill="#fff" d="M0 0h1200v1200H0z"/></clipPath></defs></svg>