<svg width="1200" height="1200" viewBox="0 0 1200 1200" fill="none" xmlns="http://www.w3.org/2000/svg"><g clip-path="url(#clip0_225_2418)"><path d="M961.5 762.99L834.5 748.49C804 744.99 774 755.49 752.5 776.99L660.5 868.99C519 796.99 403.002 681.49 331.002 539.49L423.502 446.988C445.002 425.488 455.502 395.488 452.002 364.988L437.502 238.989C431.502 188.488 389.002 150.489 338.002 150.489H251.502C195.002 150.489 148.002 197.488 151.502 253.988C178.002 680.99 519.5 1021.99 946 1048.49C1002.5 1051.99 1049.5 1004.99 1049.5 948.49V861.99C1050 811.49 1012 768.99 961.5 762.99Z" fill="black"/></g><defs><clipPath id="clip0_225_2418"><path width="24" fill="white" d="M0 0H1200V1200H0V0z"/></clipPath></defs></svg>