<svg xmlns="http://www.w3.org/2000/svg" width="1200" height="1200" fill="none"><g clip-path="url(#a)"><path fill="#000" d="m961.5 762.99-127-14.5c-30.5-3.5-60.5 7-82 28.5l-92 92c-141.5-72-257.498-187.5-329.498-329.5l92.5-92.502c21.5-21.5 32-51.5 28.5-82l-14.5-125.999c-6-50.501-48.5-88.5-99.5-88.5h-86.5c-56.5 0-103.5 46.999-100 103.499C178.002 680.99 519.5 1021.99 946 1048.49c56.5 3.5 103.5-43.5 103.5-100v-86.5c.5-50.5-37.5-93-88-99"/></g><defs><clipPath id="a"><path fill="#fff" d="M0 0h1200v1200H0z"/></clipPath></defs></svg>