<svg width="1200" height="1200" viewBox="0 0 1200 1200" fill="none" xmlns="http://www.w3.org/2000/svg"><g clip-path="url(#clip0_238_2786)"><path d="M961.5 762.99L834.5 748.49C804 744.99 774 755.49 752.5 776.99L660.5 868.99C519 796.99 403.002 681.49 331.002 539.49L423.502 446.989C445.002 425.489 455.502 395.489 452.002 364.989L437.502 238.989C431.502 188.489 389.002 150.489 338.002 150.489H251.502C195.002 150.489 148.002 197.489 151.502 253.989C178.002 680.99 519.5 1021.99 946 1048.49C1002.5 1051.99 1049.5 1004.99 1049.5 948.49V861.99C1050 811.49 1012 768.99 961.5 762.99ZM839.5 300.489L717 422.989C707 432.989 707 448.989 717 458.489C727 468.489 743 468.489 752.5 458.489L850 361.489V518.99C850 528.99 856 538.49 865.5 542.49C868.5 543.99 872 544.49 875 544.49C881.5 544.49 888 541.99 893 536.99L1002 427.989C1012 417.989 1012 401.989 1002 392.489L910.5 300.989L1002 209.489C1006.5 204.989 1009.5 198.489 1009.5 191.489C1009.5 184.489 1007 178.489 1002 173.489L893 64.489C886 57.489 875 54.989 865.5 58.989C856 62.989 850 71.989 850 81.989V239.489L752.5 141.989C742.5 131.989 726.5 131.989 717 141.989C707 151.989 707 167.989 717 177.489L839.5 300.489ZM900.5 142.989L948.5 190.989L900.5 238.989V142.989ZM900.5 361.489L948.5 409.489L900.5 457.489V361.489Z" fill="black"/></g><defs><clipPath id="clip0_238_2786"><path width="24" fill="white" d="M0 0H1200V1200H0V0z"/></clipPath></defs></svg>