<svg width="1200" height="1200" viewBox="0 0 1200 1200" fill="none" xmlns="http://www.w3.org/2000/svg"><g clip-path="url(#clip0_238_2784)"><path d="M500 250C500 195 545 150 600 150C655 150 700 195 700 250V650C700 705 655 750 600 750C545 750 500 705 500 650V250Z" fill="black"/><path d="M700 950C700 1005.23 655.23 1050 600 1050C544.77 1050 500 1005.23 500 950C500 894.77 544.77 850 600 850C655.23 850 700 894.77 700 950Z" fill="black"/></g><defs><clipPath id="clip0_238_2784"><path width="24" fill="white" d="M0 0H1200V1200H0V0z"/></clipPath></defs></svg>