<svg xmlns="http://www.w3.org/2000/svg" width="1200" height="1200" fill="none"><g clip-path="url(#a)"><path fill="#1D1E23" d="M475 325v150H325V325zm75-75H250v300h300zm-75 475v150H325V725zm75-75H250v300h300zm325-325v150H725V325zm75-75H650v300h300zM650 650h75v75h-75zm75 75h75v75h-75zm75-75h75v75h-75zM650 800h75v75h-75zm75 75h75v75h-75zm75-75h75v75h-75zm75-75h75v75h-75zm0 150h75v75h-75zm225-525h-100V200H850V100h250zm0 750V850h-100v150H850v100zm-1000 0h250v-100H200V850H100zm0-1000v250h100V200h150V100z"/></g><defs><clipPath id="a"><path fill="#fff" d="M0 0h1200v1200H0z"/></clipPath></defs></svg>