<svg xmlns="http://www.w3.org/2000/svg" width="1200" height="1200" fill="none" viewBox="0 0 1200 1200"><g fill="#000" clip-path="url(#a)"><path d="M200 646.495v-141.5c273.5 0 495 221.5 495 495H553.5c0-195-158.5-353.5-353.5-353.5"/><path d="M200 363.497v-141.5c429.5 0 778 348.498 778 777.998H836.5c0-351.5-285-636.498-636.5-636.498M418 891c0 60.195-48.801 109-109 109s-109-48.805-109-109c0-60.2 48.801-109 109-109s109 48.8 109 109"/></g><defs><clipPath id="a"><path fill="#fff" d="M0 0h1200v1200H0z"/></clipPath></defs></svg>