<svg width="1200" height="1200" viewBox="0 0 1200 1200" fill="none" xmlns="http://www.w3.org/2000/svg"><g clip-path="url(#clip0_225_2416)"><path d="M200 581.49C200 538.99 237.5 504.49 279.5 511.49C489.5 544.99 655 710.49 689 920.49C695.5 962.49 661 999.99 618.5 999.99C583 999.99 554.5 973.49 548.5 938.49C522.5 792.49 407.5 676.99 261.5 651.49C226.5 645.49 200 616.99 200 581.49Z" fill="black"/><path d="M200 296.492C200 254.992 236.5 221.492 278 225.992C645.5 262.492 937.5 554.99 974 921.99C978 963.49 945 999.99 903 999.99C866.5 999.99 836.5 972.49 833 935.99C803 635.49 564 396.492 263.5 366.492C227.5 362.992 200 332.992 200 296.492Z" fill="black"/><path d="M418 890.99C418 951.19 369.199 999.99 309 999.99C248.801 999.99 200 951.19 200 890.99C200 830.795 248.801 781.99 309 781.99C369.199 781.99 418 830.795 418 890.99Z" fill="black"/></g><defs><clipPath id="clip0_225_2416"><path width="24" fill="white" d="M0 0H1200V1200H0V0z"/></clipPath></defs></svg>