<svg xmlns="http://www.w3.org/2000/svg" width="1200" height="1200" fill="none"><g fill="#000" clip-path="url(#a)"><path d="M200 581.49c0-42.5 37.5-77 79.5-70 210 33.5 375.5 199 409.5 409 6.5 42-28 79.5-70.5 79.5-35.5 0-64-26.5-70-61.5-26-146-141-261.5-287-287-35-6-61.5-34.5-61.5-70"/><path d="M200 296.492c0-41.5 36.5-75 78-70.5 367.5 36.5 659.5 328.998 696 695.998 4 41.5-29 78-71 78-36.5 0-66.5-27.5-70-64-30-300.5-269-539.498-569.5-569.498-36-3.5-63.5-33.5-63.5-70M418 890.99c0 60.2-48.801 109-109 109s-109-48.8-109-109c0-60.195 48.801-109 109-109s109 48.805 109 109"/></g><defs><clipPath id="a"><path fill="#fff" d="M0 0h1200v1200H0z"/></clipPath></defs></svg>