<svg xmlns="http://www.w3.org/2000/svg" width="1200" height="1200" fill="none"><g clip-path="url(#a)"><path fill="#000" d="M900 100H541.5c-26.5 0-52 10.5-71 29.5L230 371c-18.5 18.5-30 44-30 70v559c0 55 45 100 100 100h600c55 0 100-45 100-100V200c0-55-45-100-100-100M550 400c-27.5 0-50-22.5-50-50V250c0-27.5 22.5-50 50-50s50 22.5 50 50v100c0 27.5-22.5 50-50 50m150 0c-27.5 0-50-22.5-50-50V250c0-27.5 22.5-50 50-50s50 22.5 50 50v100c0 27.5-22.5 50-50 50m150 0c-27.5 0-50-22.5-50-50V250c0-27.5 22.5-50 50-50s50 22.5 50 50v100c0 27.5-22.5 50-50 50"/></g><defs><clipPath id="a"><path fill="#fff" d="M0 0h1200v1200H0z"/></clipPath></defs></svg>