<svg xmlns="http://www.w3.org/2000/svg" width="1200" height="1200" fill="none" viewBox="0 0 1200 1200"><path stroke="#000" stroke-width="75" d="M300 137.5h384.475L962.5 415.527V1000c0 17.475-5.8 31.485-18.41 44.09-12.605 12.61-26.615 18.41-44.09 18.41H300c-17.476 0-31.485-5.8-44.092-18.41-12.606-12.605-18.408-26.615-18.408-44.09V200c0-17.476 5.802-31.485 18.408-44.092S282.524 137.5 300 137.5Zm-37.5 900h675v-625h-250v-250h-425zm514.455-420.02L547.46 846.925 423.047 722.51l18.213-18.215 104.98 104.98 26.515-26.51L757.47 598z"/></svg>