<svg xmlns="http://www.w3.org/2000/svg" width="1200" height="1200" fill="none"><g fill="#1D1E23" clip-path="url(#a)"><path d="m655.57 845 126-125c11.5-11.5 28.5-16.5 45-13l183.5 36.5c23 4.5 40 25 40 49V1000c0 28-23.5 51.5-51.5 50-144.5-8.5-280-53-398.5-121.5-136.001-79-249.501-192-328.501-328.5-69-118.5-113-254-121.5-398.5-1.5-28 22-51.5 50-51.5h207.5c24 0 44.5 17 49 40l37.5 184c3 16.5-2 33-13.5 45l-125 126A807.2 807.2 0 0 0 655.57 845"/><path d="M824.565 150c96 0 184 33.5 252.5 90 17 13.5 18 39.5 2.5 55l-.5.5c-13.5 14-35 14.5-50 2.5-56-45-127-72.5-204.5-72.5s-148.5 27-204.5 72.5c-15 12-36.5 11-50-2.5l-.5-.5c-15.5-15.5-14.5-41 2.5-55 69-56.5 156.5-90 252.5-90"/><path d="M967.075 344.5c19.5 13.5 22 41 5.5 57.5-12.5 12.5-32.5 15.5-47 5-28.5-20-63.5-32-101-32s-72.5 12-101 32c-14.5 10.5-34.5 7.5-47-5-16.5-16.5-13.5-44 5.5-57.5 40.5-28 89.5-44.5 142.5-44.5s102.5 16.5 142.5 44.5M824.575 444.995c-16 0-31 4-44.5 10.5-15 7.5-17 28-5.5 39.5l32.5 32.5c10 10 25.5 10 35.5 0l32.5-32.5c11.5-11.5 9.5-32-5.5-39.5-13.5-7-29-10.5-45-10.5"/></g><defs><clipPath id="a"><path fill="#fff" d="M0 0h1200v1200H0z"/></clipPath></defs></svg>