<svg xmlns="http://www.w3.org/2000/svg" width="1200" height="1200" fill="none"><g fill="#000" clip-path="url(#a)"><path d="m605.57 845 126-125c11.5-11.5 28.5-16.5 45-13l183.5 36.5c23 4.5 40 25 40 49V1000c0 28-23.5 51.5-51.5 50-144.5-8.5-280-53-398.5-121.5-136.001-79-249.501-192-328.501-328.5-69-118.5-113-254-121.5-398.5-1.5-28 22-51.5 50-51.5h207.5c24 0 44.5 17 49 40l37.5 184c3 16.5-2 33-13.5 45l-125 126c71.5 125 175 228.5 300.001 300"/><path d="M491.578 267C564.08 195 664.08 150 774.58 150s210.5 45 282 117l-53 53c-58.5-59-140-95.5-229.5-95.5S603.58 261 544.58 320z"/><path d="M774.56 300c69 0 131.5 28 177 73l-54 53c-31.5-32-75.5-51.5-123.5-51.5s-92 20-123.5 51.5l-53-53c45.5-45 108-73 177-73M704.08 479.5l70.5 70.5 70.5-70.5c-18-18.5-43-29.5-70.5-29.5s-52.5 11-70.5 29.5"/></g><defs><clipPath id="a"><path fill="#fff" d="M0 0h1200v1200H0z"/></clipPath></defs></svg>