<svg viewBox="0 0 24 24" fill="none" xmlns="http://www.w3.org/2000/svg"><g><path d="M6.99979 1V6H8.99979V4H18.9998V20H8.99979V18H6.99979V23H20.9998V1H6.99979ZM9.49979 15.5C9.78979 15.38 10.0498 15.21 10.2998 15.02L10.2798 15.05L11.6898 15.6L12.9598 13.4L11.7798 12.45L11.7598 12.48C11.7798 12.32 11.8098 12.16 11.8098 12C11.8098 11.84 11.7798 11.68 11.7598 11.52L11.7798 11.55L12.9598 10.6L11.6998 8.4L10.2898 8.95L10.3098 8.98C10.0498 8.79 9.78979 8.62 9.49979 8.5L9.26979 7H6.72979L6.49979 8.5C6.20979 8.62 5.94978 8.79 5.69978 8.98L5.71978 8.95L4.29979 8.4L3.02979 10.6L4.20979 11.55L4.22979 11.52C4.21979 11.68 4.18979 11.84 4.18979 12C4.18979 12.16 4.21978 12.32 4.23978 12.48L4.21978 12.45L3.03979 13.4L4.30979 15.6L5.71978 15.05L5.69978 15.02C5.94978 15.21 6.20979 15.38 6.49979 15.5L6.72979 17H9.26979L9.49979 15.5ZM5.99979 12C5.99979 10.9 6.89979 10 7.99979 10C9.09979 10 9.99979 10.9 9.99979 12C9.99979 13.1 9.09979 14 7.99979 14C6.89979 14 5.99979 13.1 5.99979 12Z" fill="#1D1E23"/></g></svg>