<svg viewBox="0 0 24 24" fill="none" xmlns="http://www.w3.org/2000/svg"><g><path d="M12.0898 2.90995C10.0798 0.899954 7.06976 0.489954 4.64976 1.66995L8.27976 5.29995C8.66976 5.68995 8.66976 6.31995 8.27976 6.70995L6.68976 8.29995C6.29976 8.69995 5.66976 8.69995 5.27976 8.29995L1.64976 4.66995C0.479759 7.09995 0.889759 10.09 2.89976 12.1C4.75976 13.96 7.47976 14.45 9.78976 13.58L17.7498 21.54C18.7798 22.57 20.4398 22.57 21.4598 21.54C22.4898 20.51 22.4898 18.85 21.4598 17.83L13.5398 9.89995C14.4598 7.55995 13.9798 4.79995 12.0898 2.90995Z" fill="#1D1E23"/></g></svg>