<svg viewBox="0 0 24 24" fill="none" xmlns="http://www.w3.org/2000/svg"><g><path fill-rule="evenodd" clip-rule="evenodd" d="M18 4H19C20.1 4 21 4.9 21 6V20C21 21.1 20.1 22 19 22H5C3.89 22 3 21.1 3 20L3.01 6C3.01 4.9 3.89 4 5 4H6V3C6 2.45 6.45 2 7 2C7.55 2 8 2.45 8 3V4H16V3C16 2.45 16.45 2 17 2C17.55 2 18 2.45 18 3V4ZM6 20H18C18.55 20 19 19.55 19 19V9H5V19C5 19.55 5.45 20 6 20ZM9.61411 13.8087V12.3271C9.61411 11.9546 9.18466 11.7725 8.93812 12.0374L6.71927 14.3468C6.56021 14.5123 6.56021 14.7689 6.71927 14.9345L8.93812 17.2439C9.18466 17.5005 9.61411 17.3184 9.61411 16.9459V15.4643L14.3858 15.4643V16.9459C14.3858 17.3184 14.8153 17.5005 15.0618 17.2357L17.2807 14.9262C17.4397 14.7607 17.4397 14.5041 17.2807 14.3385L15.0618 12.0291C14.8153 11.7725 14.3858 11.9546 14.3858 12.3188V13.8087H9.61411Z" fill="#1D1E23"/></g></svg>