<svg viewBox="0 0 24 24" fill="none" xmlns="http://www.w3.org/2000/svg"><g><path fill-rule="evenodd" clip-rule="evenodd" d="M18 4H19C20.1 4 21 4.9 21 6V20C21 21.1 20.1 22 19 22H5C3.89 22 3 21.1 3 20L3.01 6C3.01 4.9 3.89 4 5 4H6V3C6 2.45 6.45 2 7 2C7.55 2 8 2.45 8 3V4H16V3C16 2.45 16.45 2 17 2C17.55 2 18 2.45 18 3V4ZM6 20H18C18.55 20 19 19.55 19 19V9H5V19C5 19.55 5.45 20 6 20ZM12 12.892L10.7658 18.3636H9.18984L7.49997 10.1818H9.06642L10.0917 15.9909L11.3449 10.1818H12.6645L13.9177 16.0011L14.9335 10.1818H16.5L14.8101 18.3636H13.2341L12 12.892Z" fill="#1D1E23"/></g></svg>