<svg viewBox="0 0 24 24" fill="none" xmlns="http://www.w3.org/2000/svg"><g><path d="M21.2902 5.8902L11.2902 15.8902C10.9002 16.2802 10.2702 16.2802 9.88022 15.8902L7.05022 13.0602C6.66022 12.6702 6.66022 12.0402 7.05022 11.6502C7.44022 11.2602 8.07022 11.2602 8.46022 11.6502L10.5802 13.7702L19.8702 4.4802C20.2602 4.0902 20.8902 4.0902 21.2802 4.4802C21.6802 4.8702 21.6802 5.5002 21.2902 5.8902ZM15.7702 2.7402C14.0802 2.0502 12.1602 1.8102 10.1602 2.1702C6.09022 2.9002 2.84022 6.1802 2.15022 10.2502C1.01022 17.0002 6.63022 22.7802 13.3402 21.9102C17.3002 21.4002 20.6202 18.4502 21.6602 14.6002C22.0602 13.1302 22.1002 11.7102 21.8702 10.3802C21.7402 9.5802 20.7502 9.2702 20.1702 9.8402C19.9402 10.0702 19.8402 10.4102 19.9002 10.7302C20.1202 12.0602 20.0202 13.4802 19.3802 14.9902C18.2202 17.7002 15.7002 19.6902 12.7702 19.9602C7.67022 20.4302 3.44022 16.1102 4.07022 10.9802C4.50022 7.4402 7.35022 4.5602 10.8802 4.0702C12.6102 3.8302 14.2502 4.1602 15.6502 4.8802C16.0402 5.0802 16.5102 5.0102 16.8202 4.7002C17.3002 4.2202 17.1802 3.4102 16.5802 3.1002C16.3102 2.9802 16.0402 2.8502 15.7702 2.7402Z" fill="#1D1E23"/></g></svg>