<svg viewBox="0 0 24 24" fill="none" xmlns="http://www.w3.org/2000/svg"><g><path d="M20.5324 6.84375C20.2589 6.84375 19.9966 6.9524 19.8032 7.1458C19.6098 7.33919 19.5012 7.6015 19.5012 7.875L19.1574 11.6562C19.1574 11.7474 19.1212 11.8349 19.0568 11.8993C18.9923 11.9638 18.9049 12 18.8137 12C18.7225 12 18.6351 11.9638 18.5706 11.8993C18.5062 11.8349 18.4699 11.7474 18.4699 11.6562L18.1262 3.0625C18.1262 2.789 18.0175 2.52669 17.8241 2.3333C17.6307 2.1399 17.3684 2.03125 17.0949 2.03125C16.8214 2.03125 16.5591 2.1399 16.3657 2.3333C16.1723 2.52669 16.0637 2.789 16.0637 3.0625L15.7199 10.9688C15.7199 11.0599 15.6837 11.1474 15.6193 11.2118C15.5548 11.2763 15.4674 11.3125 15.3762 11.3125C15.285 11.3125 15.1976 11.2763 15.1331 11.2118C15.0687 11.1474 15.0324 11.0599 15.0324 10.9688L14.6887 2.03125C14.6887 1.75775 14.58 1.49544 14.3866 1.30205C14.1933 1.10865 13.9309 1 13.6574 1C13.3839 1 13.1216 1.10865 12.9282 1.30205C12.7348 1.49544 12.6262 1.75775 12.6262 2.03125L12.2824 11.6562C12.2824 11.7474 12.2462 11.8349 12.1818 11.8993C12.1173 11.9638 12.0299 12 11.9387 12C11.8475 12 11.7601 11.9638 11.6956 11.8993C11.6312 11.8349 11.5949 11.7474 11.5949 11.6562L11.2512 3.75C11.2512 3.4765 11.1425 3.21419 10.9491 3.0208C10.7558 2.8274 10.4935 2.71875 10.2199 2.71875C9.94644 2.71875 9.68414 2.8274 9.49074 3.0208C9.29735 3.21419 9.1887 3.4765 9.1887 3.75L8.92057 13.9383C8.91889 14.0005 8.90037 14.0611 8.86698 14.1135C8.83359 14.166 8.78658 14.2085 8.73097 14.2363C8.67536 14.2642 8.61322 14.2765 8.55119 14.2718C8.48916 14.2672 8.42956 14.2458 8.37874 14.2099L6.09495 12.5968C5.00182 11.798 3.99979 11.8023 3.19885 12.6123C3.13534 12.6765 3.08508 12.7526 3.05096 12.8362C3.01684 12.9198 2.99953 13.0093 3.00001 13.0996C3.00049 13.1899 3.01875 13.2792 3.05375 13.3624C3.08876 13.4457 3.13981 13.5212 3.20401 13.5847L9.25573 20.9882C9.77181 21.6173 10.4211 22.1241 11.1567 22.472C11.8923 22.8199 12.6959 23.0002 13.5096 23H15.3762C16.8349 23 18.2338 22.4205 19.2653 21.3891C20.2967 20.3576 20.8762 18.9587 20.8762 17.5L21.5637 7.875C21.5637 7.6015 21.455 7.33919 21.2616 7.1458C21.0682 6.9524 20.8059 6.84375 20.5324 6.84375Z" fill="#1D1E23"/></g></svg>