<svg viewBox="0 0 24 24" fill="none" xmlns="http://www.w3.org/2000/svg"><g><path d="M17.9994 10.9992V8.09811C17.9994 4.80825 15.392 2.05587 12.1021 2.00088C11.3057 1.98727 10.5144 2.13241 9.77466 2.42782C9.03486 2.72324 8.3613 3.16302 7.79328 3.72151C7.22525 4.27999 6.77412 4.94601 6.46622 5.68069C6.15831 6.41538 5.9998 7.20402 5.99991 8.00061V11.0005H5.49993C5.10213 11.0005 4.72061 11.1585 4.43932 11.4398C4.15803 11.7211 4 12.1026 4 12.5004V20.5001C4 20.8979 4.15803 21.2794 4.43932 21.5607C4.72061 21.842 5.10213 22 5.49993 22H18.4994C18.8972 22 19.2787 21.842 19.56 21.5607C19.8413 21.2794 19.9993 20.8979 19.9993 20.5001V12.5004C19.9993 12.1026 19.8413 11.7211 19.56 11.4398C19.2787 11.1585 18.8972 11.0005 18.4994 11.0005L17.9994 10.9992ZM7.99983 7.99937C7.99983 6.93855 8.42123 5.92117 9.17135 5.17106C9.92146 4.42095 10.9388 3.99954 11.9997 3.99954C13.0605 3.99954 14.0778 4.42095 14.828 5.17106C15.5781 5.92117 15.9995 6.93855 15.9995 7.99937V10.9992H7.99983V7.99937Z" fill="#1D1E23"/></g></svg>