<svg viewBox="0 0 24 24" fill="none" xmlns="http://www.w3.org/2000/svg"><g><path d="M7.99897 8.07921C7.99897 5.87659 9.74907 4.02774 11.9479 4.00023C12.5773 3.99131 13.1999 4.1314 13.7647 4.40906C14.3296 4.68671 14.8208 5.09406 15.1981 5.59782C15.2888 5.7211 15.407 5.82154 15.5433 5.89119C15.6795 5.96085 15.8301 5.99779 15.9832 5.9991H16.0232C16.2053 5.99954 16.3841 5.94959 16.5396 5.85477C16.6951 5.75996 16.8214 5.62398 16.9045 5.46187C16.9875 5.29976 17.0241 5.11783 17.0102 4.93621C16.9963 4.75459 16.9325 4.58035 16.8257 4.43276C16.265 3.67315 15.5327 3.05683 14.6885 2.63407C13.8443 2.21132 12.9121 1.99409 11.9679 2.00012C8.65026 2.01762 6.00011 4.78153 6.00011 8.09797V10.9994H5.50008C5.10224 10.9994 4.72068 11.1574 4.43936 11.4387C4.15804 11.7201 4 12.1016 4 12.4995V20.4999C4 20.8978 4.15804 21.2793 4.43936 21.5606C4.72068 21.842 5.10224 22 5.50008 22H18.5008C18.8987 22 19.2802 21.842 19.5615 21.5606C19.8429 21.2793 20.0009 20.8978 20.0009 20.4999V12.4995C20.0009 12.1016 19.8429 11.7201 19.5615 11.4387C19.2802 11.1574 18.8987 10.9994 18.5008 10.9994H8.00023L7.99897 8.07921Z" fill="#1D1E23"/></g></svg>