<svg viewBox="0 0 24 24" fill="none" xmlns="http://www.w3.org/2000/svg"><g><path fill-rule="evenodd" clip-rule="evenodd" d="M10 12C12.2091 12 14 10.2091 14 8C14 5.79086 12.2091 4 10 4C7.79086 4 6 5.79086 6 8C6 10.2091 7.79086 12 10 12ZM10.67 13.02C10.45 13.01 10.23 13 10 13C7.58 13 5.32 13.67 3.39 14.82C2.51 15.34 2 16.32 2 17.35V20H11.26C10.47 18.87 10 17.49 10 16C10 14.93 10.25 13.93 10.67 13.02ZM20.6938 15.3963C20.7225 15.5968 20.75 15.7892 20.75 16C20.75 16.2108 20.7225 16.4032 20.6938 16.6037L20.69 16.63L21.83 17.64L20.83 19.37L19.38 18.88C19.06 19.15 18.7 19.36 18.3 19.51L18 21H16L15.7 19.51C15.3 19.36 14.94 19.15 14.62 18.88L13.17 19.37L12.17 17.64L13.31 16.63C13.3087 16.6212 13.3075 16.6125 13.3062 16.6037C13.2775 16.4033 13.25 16.2108 13.25 16C13.25 15.7892 13.2775 15.5967 13.3062 15.3963C13.3075 15.3875 13.3087 15.3788 13.31 15.37L12.17 14.36L13.17 12.63L14.62 13.12C14.94 12.85 15.3 12.64 15.7 12.49L16 11H18L18.3 12.49C18.7 12.64 19.06 12.85 19.38 13.12L20.83 12.63L21.83 14.36L20.69 15.37L20.6938 15.3963ZM15 16C15 17.1 15.9 18 17 18C18.1 18 19 17.1 19 16C19 14.9 18.1 14 17 14C15.9 14 15 14.9 15 16Z" fill="#1D1E23"/></g></svg>