<svg xmlns="http://www.w3.org/2000/svg" width="1200" height="1200" fill="none"><g clip-path="url(#a)"><path fill="#000" d="M1100 150c0 27.5-22.5 50-50 50H150c-27.5 0-50-22.5-50-50s22.5-50 50-50h900c27.5 0 50 22.5 50 50m-675 950c41.5 0 75-33.5 75-75V375c0-41.5-33.5-75-75-75s-75 33.5-75 75v650c0 41.5 33.5 75 75 75m350-300c41.5 0 75-33.5 75-75V375c0-41.5-33.5-75-75-75s-75 33.5-75 75v350c0 41.5 33.5 75 75 75"/></g><defs><clipPath id="a"><path fill="#fff" d="M0 0h1200v1200H0z"/></clipPath></defs></svg>