<svg xmlns="http://www.w3.org/2000/svg" width="1200" height="1200" fill="none"><g clip-path="url(#a)"><path fill="#1D1E23" d="M200 1050h800c27.5 0 50-22.5 50-50s-22.5-50-50-50H200c-27.5 0-50 22.5-50 50s22.5 50 50 50m300-200h500c27.5 0 50-22.5 50-50s-22.5-50-50-50H500c-27.5 0-50 22.5-50 50s22.5 50 50 50M200 650h800c27.5 0 50-22.5 50-50s-22.5-50-50-50H200c-27.5 0-50 22.5-50 50s22.5 50 50 50m300-200h500c27.5 0 50-22.5 50-50s-22.5-50-50-50H500c-27.5 0-50 22.5-50 50s22.5 50 50 50M150 200c0 27.5 22.5 50 50 50h800c27.5 0 50-22.5 50-50s-22.5-50-50-50H200c-27.5 0-50 22.5-50 50"/></g><defs><clipPath id="a"><path fill="#fff" d="M0 0h1200v1200H0z"/></clipPath></defs></svg>