<svg xmlns="http://www.w3.org/2000/svg" width="1200" height="1200" fill="none"><g clip-path="url(#a)"><path fill="#000" d="M1050.005 550h-200V375c0-41.5-33.5-75-75-75s-75 33.5-75 75v175h-200V225c0-41.5-33.5-75-75-75s-75 33.5-75 75v325h-208c-27.5 0-50 22.5-50 50s22.5 50 50 50h208v325c0 41.5 33.5 75 75 75s75-33.5 75-75V650h200v175c0 41.5 33.5 75 75 75s75-33.5 75-75V650h200c27.5 0 50-22.5 50-50s-22.5-50-50-50"/></g><defs><clipPath id="a"><path fill="#fff" d="M0 0h1200v1200H0z"/></clipPath></defs></svg>