<svg xmlns="http://www.w3.org/2000/svg" width="1200" height="1200" fill="none"><g clip-path="url(#a)"><path fill="#1D1E23" d="M825 337.507v528.998c0 104.5-76.5 197.5-180.5 207.5-119.5 11.5-219.5-82-219.5-199V257.007c0-65.499 47-124.999 112-131.5 75-7.5 138 51 138 124.5v524.998c0 27.5-22.5 50-50 50s-50-22.5-50-50V337.507c0-20.5-17-37.5-37.5-37.5s-37.5 17-37.5 37.5v430.498c0 65.5 47 125 112 131.5 75 7.5 138-51 138-124.5V258.507c0-104.499-76.5-197.499-180.5-207.5-119-11.5-219.5 82-219.5 199v613.498c0 143.5 105 272 248 285.5 164.5 15 302-113 302-274V337.507c0-20.5-17-37.5-37.5-37.5s-37.5 17-37.5 37.5"/></g><defs><clipPath id="a"><path fill="#fff" d="M0 0h1200v1200H0z"/></clipPath></defs></svg>