<svg xmlns="http://www.w3.org/2000/svg" width="1200" height="1200" fill="none" viewBox="0 0 1200 1200"><g clip-path="url(#a)"><path fill="#000" d="M825 300v575c0 110.5-89.5 200-200 200s-200-89.5-200-200V250c0-69 56-125 125-125s125 56 125 125v525c0 27.5-22.5 50-50 50s-50-22.5-50-50V300h-75v475c0 69 56 125 125 125s125-56 125-125V250c0-110.5-89.5-200-200-200s-200 89.5-200 200v625c0 152 123 275 275 275s275-123 275-275V300z"/></g><defs><clipPath id="a"><path fill="#fff" d="M0 0h1200v1200H0z"/></clipPath></defs></svg>