<svg xmlns="http://www.w3.org/2000/svg" width="1200" height="1200" fill="none"><g clip-path="url(#a)"><path fill="#1D1E23" d="M780 539.5C828.5 506 862.5 451 862.5 400c0-113-87.5-200-200-200H400c-27.5 0-50 22.5-50 50v600c0 27.5 22.5 50 50 50h289c103.5 0 198-84.5 198.5-188.5.5-76.5-42.5-142-107.5-172M500 325h150c41.5 0 75 33.5 75 75s-33.5 75-75 75H500zm175 450H500V625h175c41.5 0 75 33.5 75 75s-33.5 75-75 75"/></g><defs><clipPath id="a"><path fill="#fff" d="M0 0h1200v1200H0z"/></clipPath></defs></svg>