<svg xmlns="http://www.w3.org/2000/svg" width="1200" height="1200" fill="none"><g clip-path="url(#a)"><path fill="#000" d="M200 525c-41.5 0-75 33.5-75 75s33.5 75 75 75 75-33.5 75-75-33.5-75-75-75m0-300c-41.5 0-75 33.5-75 75s33.5 75 75 75 75-33.5 75-75-33.5-75-75-75m0 600c-41.5 0-75 34-75 75s34 75 75 75 75-34 75-75-33.5-75-75-75m200 125h600c27.5 0 50-22.5 50-50s-22.5-50-50-50H400c-27.5 0-50 22.5-50 50s22.5 50 50 50m0-300h600c27.5 0 50-22.5 50-50s-22.5-50-50-50H400c-27.5 0-50 22.5-50 50s22.5 50 50 50m-50-350c0 27.5 22.5 50 50 50h600c27.5 0 50-22.5 50-50s-22.5-50-50-50H400c-27.5 0-50 22.5-50 50"/></g><defs><clipPath id="a"><path fill="#fff" d="M0 0h1200v1200H0z"/></clipPath></defs></svg>