<svg xmlns="http://www.w3.org/2000/svg" width="1200" height="1200" fill="none" viewBox="0 0 1200 1200"><g clip-path="url(#a)"><path fill="#000" d="M200 525c-41.5 0-75 33.5-75 75s33.5 75 75 75 75-33.5 75-75-33.5-75-75-75m0-300c-41.5 0-75 33.5-75 75s33.5 75 75 75 75-33.5 75-75-33.5-75-75-75m0 600c-41.5 0-75 34-75 75s34 75 75 75 75-34 75-75-33.5-75-75-75m150 125h700V850H350zm0-300h700V550H350zm0-400v100h700V250z"/></g><defs><clipPath id="a"><path fill="#fff" d="M0 0h1200v1200H0z"/></clipPath></defs></svg>