<svg xmlns="http://www.w3.org/2000/svg" width="1200" height="1200" fill="none"><g clip-path="url(#a)"><path fill="#000" d="M1100 400.01c0-27.499-22.5-50-50-50H700c-27.5 0-50 22.501-50 50 0 27.5 22.5 50 50 50h350c27.5 0 50-22.5 50-50m-450 400c0 27.5 22.5 50 50 50h350c27.5 0 50-22.5 50-50s-22.5-50-50-50H700c-27.5 0-50 22.5-50 50M523.5 231.511c19.5 19.499 19.5 51 0 70.499l-211.502 212.5c-19.5 19.5-51 19.5-71 0l-105.999-106.5c-19.501-19.5-19.501-51 0-70.5 19.5-19.499 51-19.499 70.499 0l71 71.001 177-177c19.001-19 51.002-19 70.002 0m.5 400.499c19.5 19.5 19.5 51 0 70.5l-211.501 212.5c-19.501 19.5-51.001 19.5-71 0l-106.5-107c-19.501-19.5-19.501-51 0-70.5 19.5-19.5 51-19.5 70.499 0l71 71 177-177c19.001-19 51.002-19 70.502.5"/></g><defs><clipPath id="a"><path fill="#fff" d="M0 0h1200v1200H0z"/></clipPath></defs></svg>