<svg width="1200" height="1200" viewBox="0 0 1200 1200" fill="none" xmlns="http://www.w3.org/2000/svg"><g clip-path="url(#clip0_238_240)"><path d="M1100 400.01C1100 372.511 1077.5 350.01 1050 350.01H700C672.5 350.01 650 372.511 650 400.01C650 427.51 672.5 450.01 700 450.01H1050C1077.5 450.01 1100 427.51 1100 400.01ZM650 800.01C650 827.51 672.5 850.01 700 850.01H1050C1077.5 850.01 1100 827.51 1100 800.01C1100 772.51 1077.5 750.01 1050 750.01H700C672.5 750.01 650 772.51 650 800.01ZM523.5 231.511C543 251.01 543 282.511 523.5 302.01L311.998 514.51C292.498 534.01 260.998 534.01 240.998 514.51L134.999 408.01C115.498 388.51 115.498 357.01 134.999 337.51C154.499 318.011 185.999 318.011 205.498 337.51L276.498 408.511L453.498 231.511C472.499 212.511 504.5 212.511 523.5 231.511ZM524 632.01C543.5 651.51 543.5 683.01 524 702.51L312.499 915.01C292.998 934.51 261.498 934.51 241.499 915.01L134.999 808.01C115.498 788.51 115.498 757.01 134.999 737.51C154.499 718.01 185.999 718.01 205.498 737.51L276.498 808.51L453.498 631.51C472.499 612.51 504.5 612.51 524 632.01Z" fill="black"/></g><defs><clipPath id="clip0_238_240"><path width="24" fill="white" d="M0 0H1200V1200H0V0z"/></clipPath></defs></svg>