<svg xmlns="http://www.w3.org/2000/svg" width="1200" height="1200" fill="none"><g fill="#1D1E23" clip-path="url(#a)"><path fill-rule="evenodd" d="M447.003 828.01c14.5 14.5 34 22 53.002 22 19 0 38.5-7.5 53-22l275-275c29.5-29 29.5-76.499 0-105.999l-412.002-412c-19.5-19.5-51-19.5-70.5 0-19.5 19.499-19.5 51 0 70.499l84 84.001-257.5 257.5c-29.5 29.5-29.5 76.999 0 105.999zm53.002-567.499 239.5 239.499H260.503z"/><path d="M950 850.01c55 0 100-45 100-100 0-66.5-100-175-100-175s-100 108.5-100 175c0 55 45 100 100 100M200 1000.01h800c55 0 100 45 100 100s-45 100-100 100H200c-55 0-100-45-100-100s45-100 100-100"/></g><defs><clipPath id="a"><path fill="#fff" d="M0 0h1200v1200H0z"/></clipPath></defs></svg>