<svg xmlns="http://www.w3.org/2000/svg" width="1200" height="1200" fill="none"><g clip-path="url(#a)"><path fill="#1D1E23" d="M150 1100c-27.5 0-50-22.5-50-50V150c0-27.5 22.5-50 50-50s50 22.5 50 50v900c0 27.5-22.5 50-50 50m900-1000c-27.5 0-50 22.5-50 50v900c0 27.5 22.5 50 50 50s50-22.5 50-50V150c0-27.5-22.5-50-50-50M600 350c-41.5 0-75 33.5-75 75v350c0 41.5 33.5 75 75 75s75-33.5 75-75V425c0-41.5-33.5-75-75-75"/></g><defs><clipPath id="a"><path fill="#fff" d="M0 0h1200v1200H0z"/></clipPath></defs></svg>