<svg xmlns="http://www.w3.org/2000/svg" width="1200" height="1200" fill="none" viewBox="0 0 1200 1200"><g clip-path="url(#a)"><path fill="#000" d="M1000 1200.005H200c-55 0-100-45-100-100s45-100 100-100h800c55 0 100 45 100 100s-45 100-100 100M653 259.503l187.5 187.5L402 885.505c-9 9.5-22 14.5-35 14.5H250c-27.5 0-50-22.5-50-50v-117c0-13.5 5.5-26 14.5-35.5zm241 134-187.5-187.5 91.5-91.5c19.5-19.5 51-19.5 70.5 0l117 117c19.5 19.5 19.5 51 0 70.5z"/></g><defs><clipPath id="a"><path fill="#fff" d="M0 0h1200v1200H0z"/></clipPath></defs></svg>