<svg xmlns="http://www.w3.org/2000/svg" width="1200" height="1200" fill="none"><g clip-path="url(#a)"><path fill="#000" d="M130.499 950c24 0 45.501-15 53-37.5L234 771h282.5L566 912c8 23 29.5 38 53.5 38 39.5 0 66.5-39.5 52.5-76L459.5 308.5c-13-35-47-58.5-84.5-58.5s-71.5 23.5-84.5 58.5L77.999 874c-14 36.5 13.5 76 52.5 76M372 380h6l101.5 289.5H270.499zm378 220c0-27.5 22.5-50 50-50h100V450c0-27.5 22.5-50 50-50s50 22.5 50 50v100h100c27.5 0 50 22.5 50 50s-22.5 50-50 50h-100v100c0 27.5-22.5 50-50 50s-50-22.5-50-50V650H800c-27.5 0-50-22.5-50-50"/></g><defs><clipPath id="a"><path fill="#fff" d="M0 0h1200v1200H0z"/></clipPath></defs></svg>