<svg xmlns="http://www.w3.org/2000/svg" width="1200" height="1200" fill="none" viewBox="0 0 1200 1200"><g clip-path="url(#a)"><path fill="#000" d="M1150 350V50H850v100H350V50H50v300h100v500H50v300h300v-100h500v100h300V850h-100V350zM150 150h100v100H150zm100 900H150V950h100zm600-100H350V850H250V350h100V250h500v100h100v500H850zm200 100H950V950h100zM950 250V150h100v100zM686.5 700H512l-36.5 100h-81l170-450h70L805 800h-81.5zm-152-63H665l-65-191.5z"/></g><defs><clipPath id="a"><path fill="#fff" d="M0 0h1200v1200H0z"/></clipPath></defs></svg>