<svg xmlns="http://www.w3.org/2000/svg" width="1200" height="1200" fill="none" viewBox="0 0 1200 1200"><g clip-path="url(#a)"><path fill="#000" d="M364.497 350.01c22.5 0 33.5-27 17.5-42.5l-114.5-115c-10-10-25.5-10-35.5 0l-114.5 115c-15.5 15.5-4.5 42.5 18 42.5h64.5v500h-64.5c-22.5 0-33.5 27-17.5 42.5l114.5 114.5c10 10 25.5 10 35.5 0l114.5-114.5c15.5-15.5 4.5-42.5-18-42.5h-64.5v-500zm185.498 0h500c27.5 0 50-22.5 50-50s-22.5-50-50-50h-500c-27.5 0-49.998 22.5-49.998 50s22.498 50 49.998 50m500 500h-500c-27.5 0-49.998 22.5-49.998 50s22.498 50 49.998 50h500c27.5 0 50-22.5 50-50s-22.5-50-50-50m0-300h-500c-27.5 0-49.998 22.5-49.998 50s22.498 50 49.998 50h500c27.5 0 50-22.5 50-50s-22.5-50-50-50"/></g><defs><clipPath id="a"><path fill="#fff" d="M0 0h1200v1200H0z"/></clipPath></defs></svg>