<svg width="1200" height="1200" viewBox="0 0 1200 1200" fill="none" xmlns="http://www.w3.org/2000/svg"><g clip-path="url(#clip0_238_221)"><path d="M197.998 569C211.998 495.5 280.998 445 355.998 445H502.5C528.5 445 550 423.5 550 397.5C550 371.5 528.5 350 502.5 350H360.998C230.498 350 113.998 445.5 101.498 575.5C86.998 724.5 203.998 850 349.998 850H502.5C528.5 850 550 828.5 550 802.5C550 776.5 528.5 755 502.5 755H349.998C254.498 755 178.998 668 197.998 569ZM449.998 650H750C777.5 650 800 627.5 800 600C800 572.5 777.5 550 750 550H449.998C422.497 550 399.998 572.5 399.998 600C399.998 627.5 422.497 650 449.998 650ZM839 350H697.5C671.5 350 650 371.5 650 397.5C650 423.5 671.5 445 697.5 445H844C919 445 988 495.5 1002 569C1021 668 945.5 755 850 755H697.5C671.5 755 650 776.5 650 802.5C650 828.5 671.5 850 697.5 850H850C996 850 1113 724.5 1099 575.5C1086.5 445.5 969.5 350 839 350Z" fill="black"/></g><defs><clipPath id="clip0_238_221"><path width="24" fill="white" d="M0 0H1200V1200H0V0z"/></clipPath></defs></svg>