<svg xmlns="http://www.w3.org/2000/svg" width="1200" height="1200" fill="none"><g clip-path="url(#a)"><path fill="#1D1E23" d="M900 700.01c0-154.5-180-394-261.5-493.5-20-24.5-57.5-24.5-77.5 0-23 28.5-54 68-86.501 113.5l422.001 422c2-14 3.5-28 3.5-42m64.5 250.5-658.501-658.5c-19.5-19.5-51-19.5-70.5 0s-19.5 51 0 70.5l130.5 130.5c-38.5 73.5-66 146.5-66 207 0 165.5 134.5 300 300.001 300 76 0 145-28.5 197.5-75l96 96c19.5 19.5 51 19.5 70.5 0 20-19 20-51 .5-70.5"/></g><defs><clipPath id="a"><path fill="#fff" d="M0 0h1200v1200H0z"/></clipPath></defs></svg>