<svg width="1200" height="1200" viewBox="0 0 1200 1200" fill="none" xmlns="http://www.w3.org/2000/svg"><g clip-path="url(#clip0_238_234)"><path d="M900 700.01C900 545.51 720 306.01 638.5 206.51C618.5 182.01 581 182.01 561 206.51C538 235.01 507 274.51 474.499 320.01L896.5 742.01C898.5 728.01 900 714.01 900 700.01ZM964.5 950.51L305.999 292.01C286.499 272.51 254.999 272.51 235.499 292.01C215.999 311.51 215.999 343.01 235.499 362.51L365.999 493.01C327.499 566.51 299.999 639.51 299.999 700.01C299.999 865.51 434.499 1000.01 600 1000.01C676 1000.01 745 971.51 797.5 925.01L893.5 1021.01C913 1040.51 944.5 1040.51 964 1021.01C984 1002.01 984 970.01 964.5 950.51Z" fill="black"/></g><defs><clipPath id="clip0_238_234"><path width="24" fill="white" d="M0 0H1200V1200H0V0z"/></clipPath></defs></svg>