<svg width="1200" height="1200" viewBox="0 0 1200 1200" fill="none" xmlns="http://www.w3.org/2000/svg"><g clip-path="url(#clip0_238_3265)"><path d="M100 850H200V875H150V925H200V950H100V1000H250V800H100V850ZM150 400H200V200H100V250H150V400ZM100 550H190L100 655V700H250V650H160L250 545V500H100V550ZM350 250V350H1050V250H350ZM350 950H1050V850H350V950ZM350 650H1050V550H350V650Z" fill="black"/></g><defs><clipPath id="clip0_238_3265"><path width="24" fill="white" d="M0 0H1200V1200H0V0z"/></clipPath></defs></svg>