<svg xmlns="http://www.w3.org/2000/svg" width="1200" height="1200" fill="none" viewBox="0 0 1200 1200"><g clip-path="url(#a)"><path fill="#000" d="M400 350h600c27.5 0 50-22.5 50-50s-22.5-50-50-50H400c-27.5 0-50 22.5-50 50s22.5 50 50 50m600 500H400c-27.5 0-50 22.5-50 50s22.5 50 50 50h600c27.5 0 50-22.5 50-50s-22.5-50-50-50m0-300H400c-27.5 0-50 22.5-50 50s22.5 50 50 50h600c27.5 0 50-22.5 50-50s-22.5-50-50-50M225 800H125c-14 0-25 11-25 25s11 25 25 25h75v25h-25c-14 0-25 11-25 25s11 25 25 25h25v25h-75c-14 0-25 11-25 25s11 25 25 25h100c14 0 25-11 25-25V825c0-14-11-25-25-25M125 250h25v125c0 14 11 25 25 25s25-11 25-25V225c0-14-11-25-25-25h-50c-14 0-25 11-25 25s11 25 25 25m100 250H125c-14 0-25 11-25 25s11 25 25 25h65l-84 98c-4 4.5-6 10.5-6 16v11c0 14 11 25 25 25h100c14 0 25-11 25-25s-11-25-25-25h-65l84-98c4-4.5 6-10.5 6-16v-11c0-14-11-25-25-25"/></g><defs><clipPath id="a"><path fill="#fff" d="M0 0h1200v1200H0z"/></clipPath></defs></svg>