<svg xmlns="http://www.w3.org/2000/svg" width="1200" height="1200" fill="none"><g fill="#000" clip-path="url(#a)"><path fill-rule="evenodd" d="M408.505 812.5c-7.499 22.5-29 37.5-53 37.5-38.999 0-66.5-39.5-52.5-76l212.5-565.5c13-35 47-58.5 84.5-58.5s71.5 23.5 84.5 58.5l212.5 565.5c14 36.5-13 76-52.5 76-24 0-45.5-15-53.5-38l-49.5-141H459.006zm296-243L603.005 280h-6l-101.5 289.5z"/><path d="M200 1000h800c55 0 100 45 100 100s-45 100-100 100H200c-55 0-100-45-100-100s45-100 100-100"/></g><defs><clipPath id="a"><path fill="#fff" d="M0 0h1200v1200H0z"/></clipPath></defs></svg>