<svg xmlns="http://www.w3.org/2000/svg" width="1200" height="1200" fill="none" viewBox="0 0 1200 1200"><path fill="#000" d="m317.896 507.47 39.001 132.51H276.88l38.513-132.51zM683.68 504.48c11.33 0 20.155 3.035 26.49 9.035 6.66 5.665 10.01 14.18 10.01 25.51V561c0 11.33-3.345 20-10.01 26-6.335 5.665-15.16 8.48-26.49 8.485h-80.02V504.48z"/><path fill="#000" fill-rule="evenodd" d="M975 100c68.75 0 125 56.25 125 125v750c0 68.75-56.25 125-125 125H225c-68.75 0-125-56.25-125-125V225c0-68.75 56.25-125 125-125zM271.875 438.501 156.885 787.5h77.026l24.964-83.01h116.516l25.024 83.01h78.979L365.869 438.501zm255.8 0V787.5h75.985V661.525h88.99c16.325 0 31.015-2.67 44.01-7.995 12.995-5.67 24.02-13.35 33.02-23.01 9.33-9.67 16.48-21.37 21.48-35.035 5-13.66 7.51-28.815 7.51-45.475 0-16.32-2.515-31.32-7.51-44.98-4.995-13.997-12.15-25.858-21.48-35.523-9-9.667-20.02-17.189-33.02-22.522-13-5.662-27.68-8.484-44.01-8.484zm314.635 0v60.486h44.98v228.028h-44.98V787.5h166.015v-60.485H963.28V498.987h45.045v-60.486z"/></svg>