<svg xmlns="http://www.w3.org/2000/svg" width="1200" height="1200" fill="none" viewBox="0 0 1200 1200"><path fill="#000" d="M150 300c27.5 0 50 22.5 50 50v600c0 27.5 22.5 50 50 50h600c27.5 0 50 22.5 50 50s-22.5 50-50 50H200c-55 0-100-45-100-100V350c0-27.5 22.5-50 50-50m850-200c55 0 100 45 100 100v600c0 55-45 100-100 100H400c-55 0-100-45-100-100V200c0-55 45-100 100-100zM437.5 370.801 345.508 650h61.621l19.971-66.405h93.21L540.33 650h63.185l-90.82-279.199zm204.64 0V650h60.79V549.22h71.19c13.06 0 24.81-2.135 35.205-6.4 10.4-4.53 19.22-10.675 26.415-18.405 7.47-7.735 13.19-17.095 17.19-28.028 3.995-10.928 6.005-23.051 6.005-36.377 0-13.06-2.01-25.058-6.005-35.986-4-11.198-9.725-20.686-17.19-28.418-7.2-7.734-16.015-13.752-26.415-18.018-10.395-4.53-22.145-6.787-35.205-6.787zm251.71 0v48.388h35.985V601.61H893.85V650h132.81v-48.39h-36.035V419.189h36.035v-48.388zm-419.533 55.175L505.52 531.98h-64.016l30.81-106.004zm292.628-2.392c9.06.001 16.125 2.428 21.19 7.227 5.33 4.533 8.01 11.345 8.01 20.409v17.579c0 9.066-2.675 16.001-8.01 20.801-5.065 4.532-12.13 6.785-21.19 6.787H702.93v-72.803z"/></svg>