<svg xmlns="http://www.w3.org/2000/svg" width="1200" height="1200" fill="none" viewBox="0 0 1200 1200"><path fill="#000" d="m317.905 507.47 39.001 132.51h-80.017l38.513-132.51zM683.69 504.48c11.33 0 20.155 3.035 26.49 9.035 6.66 5.665 10.01 14.18 10.01 25.51V561c0 11.33-3.345 20-10.01 26-6.335 5.665-15.16 8.48-26.49 8.485h-80.02V504.48z"/><path fill="#000" fill-rule="evenodd" d="M1100.01 100c-.01 100 0 56.25 0 125v875h-1000c-.01-100 0-56.25 0-125V225c0-68.75-.01-50-.01-125zM271.885 438.501 156.894 787.5h77.027l24.963-83.01H375.4l25.025 83.01h78.979L365.878 438.501zm255.8 0V787.5h75.985V661.525h88.99c16.325 0 31.01-2.67 44.005-7.995 13-5.67 24.025-13.35 33.02-23.01 9.335-9.67 16.485-21.37 21.485-35.035 4.995-13.66 7.51-28.815 7.51-45.475 0-16.32-2.515-31.32-7.51-44.98-4.995-13.997-12.155-25.858-21.485-35.523-9-9.667-20.02-17.189-33.02-22.522-12.995-5.662-27.68-8.484-44.005-8.484zm314.635 0v60.486h44.98v228.028h-44.98V787.5h166.015v-60.485H963.29V498.987h45.045v-60.486z"/></svg>