<svg viewBox="0 0 24 24" fill="none" xmlns="http://www.w3.org/2000/svg"><g><path fill-rule="evenodd" clip-rule="evenodd" d="M1 15V11C1 10.4696 1.21071 9.96086 1.58579 9.58579C1.96086 9.21071 2.46957 9 3 9H4C4.53043 9 5.03914 9.21071 5.41421 9.58579C5.78929 9.96086 6 10.4696 6 11V15H4.5V13.5H2.5V15H1ZM2.5 11V12H4.5V11C4.5 10.8674 4.44732 10.7402 4.35355 10.6464C4.25979 10.5527 4.13261 10.5 4 10.5H3C2.86739 10.5 2.74021 10.5527 2.64645 10.6464C2.55268 10.7402 2.5 10.8674 2.5 11ZM10.3536 13.3536C10.4473 13.2598 10.5 13.1326 10.5 13V9H12V13C12 13.5304 11.7893 14.0391 11.4142 14.4142C11.0391 14.7893 10.5304 15 10 15H9C8.46957 15 7.96086 14.7893 7.58579 14.4142C7.21071 14.0391 7 13.5304 7 13V9H8.5V13C8.5 13.1326 8.55268 13.2598 8.64645 13.3536C8.74021 13.4473 8.86739 13.5 9 13.5H10C10.1326 13.5 10.2598 13.4473 10.3536 13.3536ZM16.25 9H15.75H14.68H14.25H12.5V10.5H14.25V15H15.75V10.5H17.5V9.43V9H16.25ZM19.5 9H21.5C21.8946 9.01012 22.2703 9.17141 22.5495 9.45055C22.8286 9.72969 22.9899 10.1054 23 10.5V13.5C22.9899 13.8946 22.8286 14.2703 22.5495 14.5495C22.2703 14.8286 21.8946 14.9899 21.5 15H19.5C19.1054 14.9899 18.7297 14.8286 18.4505 14.5495C18.1714 14.2703 18.0101 13.8946 18 13.5V10.5C18.0101 10.1054 18.1714 9.72969 18.4505 9.45055C18.7297 9.17141 19.1054 9.01012 19.5 9ZM19.5 13.5H21.5V10.5H19.5V13.5Z" fill="#1D1E23"/></g></svg>