<svg viewBox="0 0 24 24" fill="none" xmlns="http://www.w3.org/2000/svg"><g><path fill-rule="evenodd" clip-rule="evenodd" d="M16.8148 9.0073V16L19.5439 15.9918C20.193 16.0342 20.8372 15.8498 21.3762 15.4671C21.588 15.2798 21.7548 15.0426 21.8632 14.7749C21.9716 14.5071 22.0185 14.2163 22 13.926C22.0029 13.5796 21.8959 13.2421 21.6959 12.9668C21.5029 12.6992 21.2272 12.5108 20.9162 12.434C21.2028 12.3314 21.4494 12.1327 21.6179 11.8683C21.779 11.5896 21.8602 11.268 21.8519 10.942C21.868 10.662 21.8156 10.3823 21.6995 10.1297C21.5835 9.87704 21.4077 9.65996 21.1891 9.49917C20.5983 9.13276 19.9165 8.9614 19.232 9.0073H16.8148ZM19.2554 11.9011H18.4133L18.4522 10.278H19.232C19.5053 10.2534 19.7788 10.3224 20.0117 10.4747C20.0973 10.5535 20.1639 10.6526 20.206 10.7637C20.248 10.8749 20.2643 10.995 20.2534 11.1141C20.2609 11.2221 20.2452 11.3306 20.2074 11.4313C20.1696 11.5321 20.1107 11.6226 20.0351 11.6962C19.8048 11.8554 19.5299 11.9277 19.2554 11.9011ZM18.4133 14.7457V12.9996L19.5751 13.0242C19.6882 13.0164 19.8016 13.0347 19.9074 13.0777C20.0131 13.1208 20.1087 13.1875 20.1874 13.2734C20.2661 13.3592 20.326 13.4621 20.363 13.5748C20.4 13.6875 20.4131 13.8073 20.4016 13.926C20.4078 14.0421 20.3869 14.1582 20.3407 14.2639C20.2945 14.3696 20.2244 14.4619 20.1365 14.5326C19.9441 14.6852 19.7064 14.7607 19.4659 14.7457H18.4133ZM6.2963 14.6966H4.09747L3.7154 16H2L4.44055 9.00732H5.94542L8.40156 16H6.67836L6.2963 14.6966ZM4.47953 13.3931H5.89864L5.18129 10.9338L4.47953 13.3931ZM13.8674 13.3931L14.6316 9.00732H16.191L14.8031 16H13.1423L12.2534 12.0159L11.3567 16H9.71929L8.30798 9.00732H9.86744L10.6472 13.3931L11.575 9.00732H12.9162L13.8674 13.3931Z" fill="#1D1E23"/></g></svg>