<svg viewBox="0 0 24 24" fill="none" xmlns="http://www.w3.org/2000/svg"><g><path d="M6.55996 7.97977C6.09996 7.51977 5.30996 7.59977 4.99996 8.16977C4.71996 8.67977 4.49996 9.19977 4.32996 9.74977C4.13996 10.3798 4.63996 10.9998 5.28996 10.9998H5.29996C5.72996 10.9998 6.11996 10.7198 6.23996 10.2998C6.35996 9.89977 6.51996 9.50977 6.71996 9.12977C6.93996 8.75977 6.86996 8.28977 6.55996 7.97977ZM5.30996 12.9998H5.28996C4.63996 12.9998 4.13996 13.6198 4.32996 14.2498C4.48996 14.7898 4.70996 15.3198 4.98996 15.8298C5.29996 16.3998 6.09996 16.4898 6.55996 16.0298C6.85996 15.7198 6.93996 15.2598 6.72996 14.8798C6.52996 14.5098 6.36996 14.1198 6.24996 13.7198C6.12996 13.2798 5.73996 12.9998 5.30996 12.9998ZM8.15996 19.0198C8.66996 19.2998 9.19996 19.5198 9.74996 19.6798C10.37 19.8598 10.99 19.3598 10.99 18.7198V18.6898C10.99 18.2598 10.71 17.8698 10.29 17.7498C9.88996 17.6298 9.50996 17.4698 9.13996 17.2698C8.75996 17.0598 8.27996 17.1298 7.97996 17.4398L7.94996 17.4698C7.49996 17.9198 7.58996 18.7098 8.15996 19.0198ZM13 4.06977V3.40977C13 2.51977 11.92 2.06977 11.29 2.69977L9.16996 4.82977C8.76996 5.22977 8.76996 5.86977 9.16996 6.25977L11.3 8.33977C11.93 8.95977 13 8.50977 13 7.61977V6.08977C15.84 6.56977 18 9.02977 18 11.9998C18 14.7298 16.18 17.0198 13.68 17.7498C13.27 17.8698 13 18.2598 13 18.6898V18.7098C13 19.3598 13.61 19.8498 14.23 19.6698C17.57 18.7098 20 15.6398 20 11.9998C20 7.91977 16.95 4.55977 13 4.06977Z" fill="#1D1E23"/></g></svg>