<svg viewBox="0 0 24 24" fill="none" xmlns="http://www.w3.org/2000/svg"><g><path fill-rule="evenodd" clip-rule="evenodd" d="M5 9H6.5V15H5V9ZM12.25 10.5C12.4481 10.4974 12.6374 10.4176 12.7775 10.2775C12.9176 10.1374 12.9974 9.94811 13 9.75C12.9974 9.55189 12.9176 9.36263 12.7775 9.22253C12.6374 9.08244 12.4481 9.00259 12.25 9H9.5C9.10218 9 8.72064 9.15804 8.43934 9.43934C8.15804 9.72064 8 10.1022 8 10.5V11.25C8 11.6478 8.15804 12.0294 8.43934 12.3107C8.72064 12.592 9.10218 12.75 9.5 12.75H11.5V13.5H8.75C8.55109 13.5 8.36032 13.579 8.21967 13.7197C8.07902 13.8603 8 14.0511 8 14.25C8 14.4489 8.07902 14.6397 8.21967 14.7803C8.36032 14.921 8.55109 15 8.75 15H11.5C11.8978 15 12.2794 14.842 12.5607 14.5607C12.842 14.2794 13 13.8978 13 13.5V12.75C13 12.3522 12.842 11.9706 12.5607 11.6893C12.2794 11.408 11.8978 11.25 11.5 11.25H9.5V10.5H12.25ZM18 9H16C15.6054 9.01012 15.2297 9.17141 14.9505 9.45055C14.6714 9.72969 14.5101 10.1054 14.5 10.5V13.5C14.5101 13.8946 14.6714 14.2703 14.9505 14.5495C15.2297 14.8286 15.6054 14.9899 16 15H18C18.3946 14.9899 18.7703 14.8286 19.0495 14.5495C19.3286 14.2703 19.4899 13.8946 19.5 13.5V10.5C19.4899 10.1054 19.3286 9.72969 19.0495 9.45055C18.7703 9.17141 18.3946 9.01012 18 9ZM18 13.5H16V10.5H18V13.5Z" fill="#1D1E23"/></g></svg>