<svg viewBox="0 0 2400 2400" fill="none" xmlns="http://www.w3.org/2000/svg"><path d="M1564.342 306.868 C 1554.630 310.299,1539.161 320.628,1529.967 329.823 C 1499.673 360.117,1500.000 357.166,1500.000 600.000 C 1500.000 842.749,1499.684 839.895,1529.895 870.105 C 1569.021 909.232,1630.979 909.232,1670.105 870.105 C 1694.842 845.368,1700.000 825.904,1700.000 757.287 L 1700.000 700.000 1857.287 700.000 C 2036.235 700.000,2040.860 699.350,2070.105 670.105 C 2109.232 630.979,2109.232 569.021,2070.105 529.895 C 2040.860 500.650,2036.235 500.000,1857.287 500.000 L 1700.000 500.000 1700.000 442.713 C 1700.000 374.096,1694.842 354.632,1670.105 329.895 C 1642.352 302.141,1602.370 293.437,1564.342 306.868 M364.342 506.868 C 329.056 519.332,300.000 561.388,300.000 600.000 C 300.000 624.160,311.933 652.144,329.895 670.105 C 361.721 701.931,328.589 700.000,842.713 700.000 L 1300.000 700.000 1300.000 600.000 L 1300.000 500.000 841.000 500.316 C 436.008 500.594,379.922 501.365,364.342 506.868 M764.342 906.868 C 754.630 910.299,739.161 920.628,729.967 929.823 C 705.150 954.639,700.000 974.041,700.000 1042.713 L 700.000 1100.000 542.713 1100.000 C 363.765 1100.000,359.140 1100.650,329.895 1129.895 C 290.768 1169.021,290.768 1230.979,329.895 1270.105 C 359.140 1299.350,363.765 1300.000,542.713 1300.000 L 700.000 1300.000 700.000 1357.287 C 700.000 1425.904,705.158 1445.368,729.895 1470.105 C 769.021 1509.232,830.979 1509.232,870.105 1470.105 C 900.316 1439.895,900.000 1442.749,900.000 1200.000 C 900.000 957.251,900.316 960.105,870.105 929.895 C 842.352 902.141,802.370 893.437,764.342 906.868 M1100.000 1200.000 L 1100.000 1300.000 1557.287 1300.000 C 2071.411 1300.000,2038.279 1301.931,2070.105 1270.105 C 2109.232 1230.979,2109.232 1169.021,2070.105 1129.895 C 2038.279 1098.069,2071.411 1100.000,1557.287 1100.000 L 1100.000 1100.000 1100.000 1200.000 M1164.342 1506.868 C 1154.630 1510.299,1139.161 1520.628,1129.967 1529.823 C 1099.673 1560.117,1100.000 1557.166,1100.000 1800.000 C 1100.000 2042.749,1099.684 2039.895,1129.895 2070.105 C 1169.021 2109.232,1230.979 2109.232,1270.105 2070.105 C 1294.842 2045.368,1300.000 2025.904,1300.000 1957.287 L 1300.000 1900.000 1657.287 1900.000 C 2059.495 1900.000,2038.705 1901.506,2070.105 1870.105 C 2109.232 1830.979,2109.232 1769.021,2070.105 1729.895 C 2038.705 1698.494,2059.495 1700.000,1657.287 1700.000 L 1300.000 1700.000 1300.000 1642.713 C 1300.000 1574.096,1294.842 1554.632,1270.105 1529.895 C 1242.352 1502.141,1202.370 1493.437,1164.342 1506.868 M364.342 1706.868 C 329.056 1719.332,300.000 1761.388,300.000 1800.000 C 300.000 1824.160,311.933 1852.144,329.895 1870.105 C 360.582 1900.792,352.292 1900.000,642.713 1900.000 L 900.000 1900.000 900.000 1800.000 L 900.000 1700.000 641.000 1700.316 C 417.178 1700.589,379.602 1701.479,364.342 1706.868 " fill="#1D1E23" stroke="none" fill-rule="evenodd"/></svg>