<svg viewBox="0 0 2400 2400" fill="none" xmlns="http://www.w3.org/2000/svg"><path d="M1555.466 312.033 C 1536.248 322.188,1509.026 353.547,1503.776 371.577 C 1501.000 381.113,1499.987 461.439,1500.788 608.659 L 1502.000 831.317 1514.102 848.533 C 1531.457 873.222,1556.082 890.549,1582.082 896.368 C 1601.405 900.692,1607.278 900.428,1626.504 894.367 C 1653.529 885.848,1678.359 864.414,1689.484 840.000 C 1696.296 825.051,1697.953 811.729,1699.261 761.406 L 1700.836 700.811 1861.418 698.971 C 1964.751 697.787,2026.910 695.524,2035.772 692.623 C 2052.801 687.050,2078.024 663.144,2088.692 642.468 C 2099.727 621.080,2099.727 578.920,2088.692 557.532 C 2077.082 535.031,2051.653 512.027,2033.520 507.622 C 2024.984 505.549,1946.696 502.708,1859.548 501.310 L 1701.095 498.767 1699.065 436.384 C 1697.701 394.458,1695.099 369.409,1691.129 360.000 C 1683.989 343.076,1657.554 318.428,1637.601 310.091 C 1616.772 301.388,1573.683 302.407,1555.466 312.033 M506.579 503.788 L 355.157 506.000 334.072 528.657 C 312.982 551.318,300.000 578.502,300.000 600.000 C 300.000 631.309,331.190 678.863,359.822 691.208 C 372.186 696.539,433.252 697.557,837.000 699.163 L 1300.000 701.005 1300.000 600.502 L 1300.000 500.000 979.000 500.788 C 802.450 501.221,589.860 502.571,506.579 503.788 M751.783 915.462 C 709.564 942.675,700.000 967.194,700.000 1048.216 L 700.000 1098.751 541.000 1101.302 C 453.550 1102.705,375.016 1105.549,366.480 1107.622 C 348.210 1112.060,322.894 1135.075,311.073 1157.994 C 299.736 1179.973,299.736 1220.027,311.073 1242.006 C 321.950 1263.094,347.058 1287.003,364.228 1292.623 C 373.090 1295.524,435.249 1297.787,538.582 1298.971 L 699.164 1300.811 700.739 1361.406 C 702.047 1411.729,703.704 1425.051,710.516 1440.000 C 721.641 1464.414,746.471 1485.848,773.496 1494.367 C 792.722 1500.428,798.595 1500.692,817.918 1496.368 C 843.918 1490.549,868.543 1473.222,885.898 1448.533 L 898.000 1431.317 899.212 1208.659 C 900.013 1061.439,899.000 981.113,896.224 971.577 C 890.573 952.167,863.823 922.565,842.692 912.335 C 830.279 906.326,817.673 904.000,797.520 904.000 C 773.556 904.000,767.028 905.636,751.783 915.462 M1100.000 1200.000 L 1100.000 1300.000 1523.000 1299.769 C 1964.267 1299.528,2024.198 1297.976,2049.145 1286.138 C 2068.091 1277.147,2086.596 1251.986,2094.678 1224.227 C 2099.897 1206.300,2100.202 1198.881,2096.405 1182.227 C 2090.352 1155.679,2067.442 1122.545,2049.132 1113.856 C 2027.228 1103.462,1900.276 1100.455,1473.000 1100.212 L 1100.000 1100.000 1100.000 1200.000 M1155.466 1512.033 C 1136.248 1522.188,1109.026 1553.547,1103.776 1571.577 C 1101.000 1581.113,1099.987 1661.439,1100.788 1808.659 L 1102.000 2031.317 1114.102 2048.533 C 1131.457 2073.222,1156.082 2090.549,1182.082 2096.368 C 1201.405 2100.692,1207.278 2100.428,1226.504 2094.367 C 1253.529 2085.848,1278.359 2064.414,1289.484 2040.000 C 1296.294 2025.056,1297.953 2011.731,1299.259 1961.505 L 1300.832 1901.009 1663.416 1899.158 C 1975.734 1897.564,2027.941 1896.467,2040.000 1891.244 C 2056.045 1884.295,2086.157 1853.186,2092.536 1836.969 C 2099.284 1819.813,2097.779 1774.957,2089.897 1758.347 C 2078.697 1734.745,2047.653 1709.588,2026.079 1706.631 C 2015.999 1705.249,1848.754 1702.898,1654.422 1701.407 L 1301.093 1698.694 1299.064 1636.347 C 1297.701 1594.451,1295.098 1569.408,1291.129 1560.000 C 1283.989 1543.076,1257.554 1518.428,1237.601 1510.091 C 1216.772 1501.388,1173.683 1502.407,1155.466 1512.033 M440.000 1703.790 C 356.784 1706.275,350.932 1707.956,326.619 1736.361 C 311.817 1753.654,300.000 1781.905,300.000 1800.000 C 300.000 1832.102,331.014 1878.481,361.845 1892.486 C 376.979 1899.361,394.492 1899.830,639.000 1899.912 L 900.000 1900.000 900.000 1800.000 L 900.000 1700.000 707.000 1700.790 C 600.850 1701.224,480.700 1702.574,440.000 1703.790 " fill="#1D1E23" stroke="none" fill-rule="evenodd"/></svg>