<svg viewBox="0 0 2400 2400" fill="none" xmlns="http://www.w3.org/2000/svg"><path d="M1574.471 304.259 C 1550.887 310.084,1522.041 333.310,1511.298 355.122 L 1502.000 374.000 1502.000 600.000 L 1502.000 826.000 1511.298 844.878 C 1522.884 868.402,1551.547 890.190,1579.352 896.608 C 1630.363 908.383,1684.889 874.066,1695.768 823.341 C 1698.095 812.487,1700.000 780.421,1700.000 752.083 L 1700.000 700.559 1863.000 699.253 C 2044.330 697.801,2041.875 698.147,2069.021 670.197 C 2090.359 648.225,2097.761 630.146,2097.761 600.000 C 2097.761 569.854,2090.359 551.775,2069.021 529.803 C 2042.224 502.211,2044.102 502.477,1863.411 500.780 L 1700.822 499.253 1699.192 436.627 C 1697.391 367.387,1694.083 354.698,1672.109 332.725 C 1646.462 307.077,1608.210 295.925,1574.471 304.259 M412.000 504.141 C 382.300 505.621,357.510 507.094,356.911 507.415 C 356.311 507.737,347.610 515.569,337.573 524.820 C 301.885 557.716,291.390 598.478,308.812 636.525 C 321.517 664.271,341.974 685.734,362.047 692.378 C 374.791 696.595,470.734 697.928,839.000 699.001 L 1300.000 700.345 1300.000 600.173 L 1300.000 500.000 883.000 500.726 C 653.650 501.125,441.700 502.662,412.000 504.141 M774.463 904.261 C 755.914 908.842,730.966 926.426,717.914 944.117 C 704.568 962.206,700.000 988.650,700.000 1047.821 L 700.000 1099.247 537.000 1100.777 C 355.854 1102.477,357.782 1102.205,330.979 1129.803 C 309.641 1151.775,302.239 1169.854,302.239 1200.000 C 302.239 1230.146,309.641 1248.225,330.979 1270.197 C 358.125 1298.147,355.670 1297.801,537.000 1299.253 L 700.000 1300.559 700.000 1352.083 C 700.000 1380.421,701.905 1412.487,704.232 1423.341 C 715.111 1474.066,769.637 1508.383,820.648 1496.608 C 848.453 1490.190,877.116 1468.402,888.702 1444.878 L 898.000 1426.000 898.000 1200.000 L 898.000 974.000 888.799 955.321 C 869.453 916.050,818.629 893.353,774.463 904.261 M1100.000 1200.000 L 1100.000 1300.000 1535.000 1299.929 C 1774.250 1299.890,1985.594 1298.217,2004.654 1296.211 C 2046.961 1291.758,2058.999 1285.884,2077.519 1260.655 C 2096.431 1234.891,2102.994 1207.017,2096.633 1179.463 C 2091.082 1155.413,2068.300 1122.429,2051.096 1113.532 C 2029.331 1102.277,1949.076 1100.247,1521.000 1100.123 L 1100.000 1100.000 1100.000 1200.000 M1174.471 1504.259 C 1150.887 1510.084,1122.041 1533.310,1111.298 1555.122 L 1102.000 1574.000 1102.000 1800.000 L 1102.000 2026.000 1111.298 2044.878 C 1122.884 2068.402,1151.547 2090.190,1179.352 2096.608 C 1230.363 2108.383,1284.889 2074.066,1295.768 2023.341 C 1298.095 2012.487,1300.000 1980.375,1300.000 1951.981 L 1300.000 1900.357 1661.000 1899.001 C 1946.011 1897.930,2025.368 1896.535,2038.000 1892.373 C 2055.779 1886.516,2079.617 1863.070,2090.593 1840.646 C 2100.307 1820.798,2100.227 1779.042,2090.437 1759.025 C 2079.885 1737.453,2054.934 1713.305,2037.255 1707.557 C 2025.731 1703.810,1933.815 1702.210,1661.413 1701.017 L 1300.826 1699.438 1299.194 1636.719 C 1297.390 1567.380,1294.089 1554.705,1272.109 1532.725 C 1246.462 1507.077,1208.210 1495.925,1174.471 1504.259 M408.000 1702.754 C 364.974 1704.762,356.398 1707.468,337.304 1725.069 C 303.287 1756.424,291.710 1798.106,307.256 1833.251 C 319.682 1861.341,334.615 1878.599,355.321 1888.799 L 374.000 1898.000 637.000 1899.235 L 900.000 1900.470 900.000 1800.235 L 900.000 1700.000 667.000 1700.771 C 538.850 1701.195,422.300 1702.087,408.000 1702.754 " fill="#1D1E23" stroke="none" fill-rule="evenodd"/></svg>