<svg viewBox="0 0 2400 2400" fill="none" xmlns="http://www.w3.org/2000/svg"><path d="M1569.055 307.657 C 1551.138 312.239,1530.640 328.754,1515.110 351.120 L 1502.000 370.000 1500.845 599.253 L 1499.690 828.506 1514.603 848.822 C 1531.097 871.291,1557.370 889.906,1581.917 896.516 C 1617.975 906.226,1667.856 880.817,1687.425 842.771 C 1696.357 825.408,1697.498 817.551,1699.193 761.771 L 1701.071 700.000 1815.535 699.765 C 1878.491 699.636,1954.772 698.133,1985.049 696.425 C 2038.170 693.428,2040.622 692.898,2055.049 681.279 C 2063.272 674.657,2075.400 661.605,2082.000 652.275 C 2093.146 636.518,2094.000 632.798,2094.000 600.000 C 2094.000 567.154,2093.154 563.486,2081.888 547.456 C 2075.227 537.978,2062.372 525.019,2053.321 518.658 L 2036.866 507.093 1937.433 503.724 C 1882.745 501.872,1806.950 500.276,1769.000 500.178 L 1700.000 500.000 1699.921 457.000 C 1699.757 368.318,1690.965 343.526,1650.824 318.557 C 1630.853 306.134,1594.144 301.240,1569.055 307.657 M575.189 503.830 L 356.379 506.000 340.007 521.990 C 319.734 541.790,300.000 580.270,300.000 600.000 C 300.000 632.468,338.957 686.833,367.226 693.815 C 373.152 695.278,585.450 697.495,839.000 698.742 L 1300.000 701.008 1300.000 600.504 L 1300.000 500.000 1047.000 500.830 C 907.850 501.287,695.535 502.637,575.189 503.830 M760.000 910.786 C 739.193 921.358,713.251 949.097,707.806 966.595 C 705.169 975.068,702.138 1008.550,701.070 1041.000 L 699.128 1100.000 630.564 1100.178 C 592.854 1100.276,517.255 1101.872,462.567 1103.724 L 363.134 1107.093 346.679 1118.658 C 337.628 1125.019,324.773 1137.978,318.112 1147.456 C 306.846 1163.486,306.000 1167.154,306.000 1200.000 C 306.000 1232.798,306.854 1236.518,318.000 1252.275 C 324.600 1261.605,336.728 1274.657,344.951 1281.279 C 359.378 1292.898,361.830 1293.428,414.951 1296.425 C 445.228 1298.133,521.509 1299.636,584.465 1299.765 L 698.929 1300.000 700.794 1361.351 C 702.419 1414.828,703.836 1425.136,711.834 1441.658 C 730.566 1480.352,781.140 1506.464,818.083 1496.516 C 842.560 1489.925,868.889 1471.310,885.242 1449.033 L 900.000 1428.928 899.905 1209.464 C 899.852 1088.759,898.257 983.318,896.360 975.150 C 891.754 955.322,871.348 930.299,849.199 917.319 C 825.325 903.328,781.060 900.086,760.000 910.786 M1100.000 1200.000 L 1100.000 1300.000 1505.000 1299.848 C 1928.873 1299.689,2026.165 1297.291,2047.049 1286.492 C 2077.336 1270.830,2103.909 1220.089,2098.084 1189.041 C 2091.827 1155.688,2064.334 1118.783,2040.671 1111.972 C 2016.240 1104.940,1776.286 1100.301,1429.000 1100.146 L 1100.000 1100.000 1100.000 1200.000 M1169.055 1507.657 C 1151.138 1512.239,1130.640 1528.754,1115.110 1551.120 L 1102.000 1570.000 1100.845 1799.253 L 1099.690 2028.506 1114.603 2048.822 C 1131.097 2071.291,1157.370 2089.906,1181.917 2096.516 C 1217.975 2106.226,1267.856 2080.817,1287.425 2042.771 C 1296.357 2025.408,1297.498 2017.551,1299.193 1961.771 L 1301.071 1900.000 1589.535 1899.636 C 1748.191 1899.435,1914.004 1898.075,1958.009 1896.613 C 2048.490 1893.608,2049.235 1893.365,2078.844 1857.231 C 2092.671 1840.358,2094.023 1836.475,2095.372 1809.761 C 2097.727 1763.109,2085.339 1738.499,2048.688 1717.020 L 2030.219 1706.196 1818.110 1703.427 C 1701.449 1701.904,1537.150 1700.509,1453.000 1700.329 L 1300.000 1700.000 1299.921 1657.000 C 1299.757 1568.318,1290.965 1543.526,1250.824 1518.557 C 1230.853 1506.134,1194.144 1501.240,1169.055 1507.657 M484.000 1703.965 C 357.997 1706.715,350.798 1708.048,330.193 1732.456 C 314.372 1751.196,300.078 1783.256,300.078 1800.000 C 300.078 1828.163,326.713 1871.084,355.169 1888.778 L 370.000 1898.000 635.000 1899.161 L 900.000 1900.322 900.000 1800.161 L 900.000 1700.000 749.000 1700.739 C 665.950 1701.145,546.700 1702.597,484.000 1703.965 " fill="#1D1E23" stroke="none" fill-rule="evenodd"/></svg>