<svg viewBox="0 0 2400 2400" fill="none" xmlns="http://www.w3.org/2000/svg"><path d="M1567.540 309.293 C 1545.099 317.663,1528.946 330.910,1513.852 353.325 L 1500.000 373.893 1500.039 601.947 L 1500.078 830.000 1514.290 847.881 C 1532.313 870.554,1558.912 889.536,1581.542 895.872 C 1610.442 903.963,1651.144 888.367,1675.090 860.025 C 1693.582 838.138,1697.248 823.141,1699.160 761.548 L 1701.038 701.096 1859.519 698.859 C 1957.971 697.469,2023.635 694.931,2032.876 692.157 C 2051.197 686.659,2066.939 673.732,2082.286 651.587 C 2093.054 636.049,2094.000 631.863,2094.000 599.736 C 2094.000 567.033,2093.206 563.692,2081.652 547.742 C 2074.861 538.366,2062.216 525.561,2053.552 519.285 L 2037.799 507.874 1929.900 504.041 C 1870.555 501.932,1794.773 500.161,1761.495 500.104 L 1700.990 500.000 1698.994 441.000 C 1696.915 379.554,1693.249 362.564,1677.481 341.310 C 1657.773 314.747,1598.892 297.599,1567.540 309.293 M624.550 503.814 L 355.100 506.000 337.914 524.985 C 317.836 547.165,304.087 573.674,301.096 595.976 C 297.275 624.460,333.671 681.229,362.871 692.331 C 369.602 694.890,542.000 697.254,836.725 698.829 L 1300.000 701.304 1300.000 600.652 L 1300.000 500.000 1097.000 500.814 C 985.350 501.262,772.748 502.612,624.550 503.814 M762.000 911.357 C 740.990 921.478,712.960 950.859,707.769 968.203 C 705.498 975.791,702.548 1008.550,701.213 1041.000 L 698.785 1100.000 638.393 1100.104 C 605.177 1100.161,529.445 1101.932,470.100 1104.041 L 362.201 1107.874 346.448 1119.285 C 337.784 1125.561,325.139 1138.366,318.348 1147.742 C 306.794 1163.692,306.000 1167.033,306.000 1199.736 C 306.000 1231.863,306.946 1236.049,317.714 1251.587 C 333.061 1273.732,348.803 1286.659,367.124 1292.157 C 376.369 1294.932,442.182 1297.471,541.000 1298.865 L 700.000 1301.108 700.023 1345.554 C 700.036 1369.999,701.739 1400.335,703.808 1412.967 C 710.486 1453.739,738.486 1483.250,782.805 1496.228 C 813.969 1505.354,855.557 1485.815,885.710 1447.881 L 899.922 1430.000 899.723 1216.000 C 899.613 1098.300,898.106 993.387,896.374 982.859 C 889.606 941.718,850.901 909.572,803.500 905.721 C 783.455 904.093,774.577 905.298,762.000 911.357 M1100.000 1199.382 L 1100.000 1300.000 1493.000 1299.863 C 1923.328 1299.713,2022.966 1297.097,2046.941 1285.320 C 2066.557 1275.683,2086.357 1248.884,2094.464 1220.997 C 2100.476 1200.315,2100.485 1196.904,2094.575 1178.156 C 2086.588 1152.817,2067.088 1125.802,2050.649 1117.302 C 2030.086 1106.668,1948.016 1104.253,1511.000 1101.424 L 1100.000 1098.764 1100.000 1199.382 M1167.540 1509.293 C 1145.099 1517.663,1128.946 1530.910,1113.852 1553.325 L 1100.000 1573.893 1100.039 1801.947 L 1100.078 2030.000 1114.290 2047.881 C 1132.313 2070.554,1158.912 2089.536,1181.542 2095.872 C 1210.442 2103.963,1251.144 2088.367,1275.090 2060.025 C 1293.620 2038.093,1297.246 2023.184,1299.177 1961.000 L 1301.071 1900.000 1593.535 1899.819 C 1921.970 1899.615,2027.563 1896.569,2046.552 1886.749 C 2061.820 1878.853,2083.228 1854.824,2090.500 1837.419 C 2097.177 1821.440,2097.656 1786.139,2091.448 1767.597 C 2084.518 1746.900,2070.323 1730.131,2049.156 1717.634 L 2030.000 1706.324 1665.476 1702.492 L 1300.952 1698.661 1298.975 1640.330 C 1296.915 1579.536,1293.223 1562.529,1277.481 1541.310 C 1257.773 1514.747,1198.892 1497.599,1167.540 1509.293 M514.000 1704.112 C 431.087 1705.771,371.455 1708.657,361.234 1711.508 C 332.905 1719.406,299.811 1769.006,300.088 1803.150 C 300.296 1828.815,327.665 1870.861,355.783 1888.711 L 373.566 1900.000 636.783 1900.000 L 900.000 1900.000 900.000 1800.000 L 900.000 1700.000 775.000 1700.695 C 706.250 1701.078,588.800 1702.615,514.000 1704.112 " fill="#1D1E23" stroke="none" fill-rule="evenodd"/></svg>