<svg viewBox="0 0 2400 2400" fill="none" xmlns="http://www.w3.org/2000/svg"><path d="M700.231 1083.000 C 700.526 1316.694,702.428 1344.850,720.434 1381.960 C 739.556 1421.373,776.625 1458.137,817.495 1478.226 C 846.366 1492.416,853.086 1494.026,898.159 1497.553 C 929.535 1500.008,965.940 1500.015,998.758 1497.574 C 1045.764 1494.078,1052.882 1492.469,1081.507 1478.876 C 1121.586 1459.842,1160.984 1421.614,1179.284 1384.000 C 1197.013 1347.562,1199.924 1305.193,1199.966 1083.000 L 1200.000 900.000 1124.000 900.000 L 1048.000 900.000 1048.000 1111.380 C 1048.000 1346.882,1050.504 1326.215,1020.000 1342.518 C 1008.237 1348.804,997.052 1350.000,950.000 1350.000 C 902.948 1350.000,891.763 1348.804,880.000 1342.518 C 849.496 1326.215,852.000 1346.882,852.000 1111.380 L 852.000 900.000 776.000 900.000 L 700.000 900.000 700.231 1083.000 M1248.912 975.000 L 1250.000 1050.000 1337.000 1051.078 L 1424.000 1052.156 1424.000 1276.078 L 1424.000 1500.000 1500.000 1500.000 L 1576.000 1500.000 1576.000 1276.078 L 1576.000 1052.156 1663.000 1051.078 L 1750.000 1050.000 1751.088 975.000 L 1752.177 900.000 1500.000 900.000 L 1247.823 900.000 1248.912 975.000 M255.244 907.482 C 203.170 918.702,146.760 965.625,117.000 1022.475 L 100.000 1054.949 100.000 1277.475 L 100.000 1500.000 176.000 1500.000 L 252.000 1500.000 252.000 1426.000 L 252.000 1352.000 350.000 1352.000 L 448.000 1352.000 448.000 1426.000 L 448.000 1500.000 524.000 1500.000 L 600.000 1500.000 600.000 1278.463 L 600.000 1056.926 584.247 1025.463 C 564.910 986.842,546.758 965.189,514.644 942.435 C 465.766 907.804,467.643 908.254,363.187 906.165 C 311.934 905.141,263.360 905.733,255.244 907.482 M1927.451 907.774 C 1903.178 909.813,1893.329 912.704,1879.512 921.848 C 1854.194 938.603,1820.617 973.546,1813.525 990.521 C 1804.060 1013.172,1800.198 1084.753,1800.095 1239.440 L 1800.000 1380.880 1812.953 1405.440 C 1820.077 1418.948,1835.063 1439.253,1846.254 1450.562 C 1886.983 1491.719,1917.640 1499.928,2030.000 1499.767 C 2136.886 1499.613,2186.705 1495.277,2209.746 1484.123 C 2234.997 1471.899,2263.536 1444.977,2279.640 1418.189 C 2292.650 1396.547,2293.425 1393.065,2296.428 1342.750 C 2300.452 1275.316,2300.414 1111.634,2296.361 1052.000 C 2293.934 1016.299,2291.189 1002.004,2284.103 988.152 C 2271.754 964.014,2238.921 932.792,2209.281 917.000 L 2184.880 904.000 2071.440 904.604 C 2009.048 904.936,1944.253 906.362,1927.451 907.774 M434.810 1064.785 L 448.000 1077.569 448.000 1138.785 L 448.000 1200.000 350.000 1200.000 L 252.000 1200.000 252.000 1139.190 L 252.000 1078.381 264.785 1065.190 L 277.569 1052.000 349.594 1052.000 L 421.619 1052.000 434.810 1064.785 M2148.000 1202.000 L 2148.000 1352.000 2050.000 1352.000 L 1952.000 1352.000 1952.000 1202.000 L 1952.000 1052.000 2050.000 1052.000 L 2148.000 1052.000 2148.000 1202.000 " fill="#1D1E23" stroke="none" fill-rule="evenodd"/></svg>