<svg viewBox="0 0 2400 2400" fill="none" xmlns="http://www.w3.org/2000/svg"><path d="M268.000 902.568 C 186.687 917.771,120.746 980.910,104.420 1059.197 C 101.519 1073.111,100.000 1152.482,100.000 1290.197 L 100.000 1500.000 176.000 1500.000 L 252.000 1500.000 252.000 1426.000 L 252.000 1352.000 350.000 1352.000 L 448.000 1352.000 448.000 1426.000 L 448.000 1500.000 524.000 1500.000 L 600.000 1500.000 600.000 1290.197 C 600.000 1152.482,598.481 1073.111,595.580 1059.197 C 581.672 992.504,533.984 938.284,466.000 911.868 C 444.019 903.327,435.101 902.465,360.000 901.620 C 314.900 901.113,273.500 901.539,268.000 902.568 M700.000 1109.803 C 700.000 1247.518,701.519 1326.889,704.420 1340.803 C 720.053 1415.765,784.235 1479.947,859.197 1495.580 C 891.946 1502.409,1017.383 1501.267,1046.160 1493.878 C 1121.672 1474.488,1180.207 1414.522,1195.580 1340.803 C 1198.481 1326.889,1200.000 1247.518,1200.000 1109.803 L 1200.000 900.000 1124.000 900.000 L 1048.000 900.000 1048.000 1109.693 L 1048.000 1319.386 1037.743 1331.576 C 1023.946 1347.973,1006.800 1351.955,950.000 1351.955 C 893.200 1351.955,876.054 1347.973,862.257 1331.576 L 852.000 1319.386 852.000 1109.693 L 852.000 900.000 776.000 900.000 L 700.000 900.000 700.000 1109.803 M1248.912 975.000 L 1250.000 1050.000 1337.000 1051.078 L 1424.000 1052.156 1424.000 1276.078 L 1424.000 1500.000 1500.000 1500.000 L 1576.000 1500.000 1576.000 1276.078 L 1576.000 1052.156 1663.000 1051.078 L 1750.000 1050.000 1751.088 975.000 L 1752.177 900.000 1500.000 900.000 L 1247.823 900.000 1248.912 975.000 M1918.984 904.215 C 1881.351 913.405,1844.930 939.245,1824.699 971.111 C 1800.879 1008.629,1800.000 1016.781,1800.000 1200.305 C 1800.000 1356.164,1800.528 1368.832,1808.018 1392.579 C 1823.105 1440.409,1859.591 1476.895,1907.421 1491.982 C 1930.449 1499.245,1943.874 1500.000,2050.000 1500.000 C 2156.126 1500.000,2169.551 1499.245,2192.579 1491.982 C 2240.409 1476.895,2276.895 1440.409,2291.982 1392.579 C 2299.472 1368.832,2300.000 1356.164,2300.000 1200.305 C 2300.000 1016.781,2299.121 1008.629,2275.301 971.111 C 2259.263 945.850,2239.755 929.369,2208.189 914.411 L 2182.000 902.000 2058.000 901.274 C 1989.800 900.874,1927.243 902.198,1918.984 904.215 M434.400 1065.600 L 448.000 1079.200 448.000 1139.600 L 448.000 1200.000 350.000 1200.000 L 252.000 1200.000 252.000 1139.600 L 252.000 1079.200 265.600 1065.600 L 279.200 1052.000 350.000 1052.000 L 420.800 1052.000 434.400 1065.600 M2148.000 1202.000 L 2148.000 1352.000 2050.000 1352.000 L 1952.000 1352.000 1952.000 1202.000 L 1952.000 1052.000 2050.000 1052.000 L 2148.000 1052.000 2148.000 1202.000 " fill="#1D1E23" stroke="none" fill-rule="evenodd"/></svg>