<svg viewBox="0 0 2400 2400" fill="none" xmlns="http://www.w3.org/2000/svg"><path d="M701.081 1113.000 C 703.029 1344.123,703.560 1350.061,725.954 1391.206 C 748.541 1432.705,802.418 1477.234,845.704 1490.177 C 874.092 1498.665,969.222 1502.084,1016.000 1496.296 C 1066.541 1490.043,1102.241 1473.103,1136.836 1438.958 C 1150.744 1425.231,1167.030 1405.606,1173.027 1395.346 C 1195.910 1356.200,1196.902 1345.388,1198.915 1113.000 L 1200.761 900.000 1124.578 900.000 L 1048.396 900.000 1047.166 1109.000 C 1046.489 1223.950,1044.378 1321.227,1042.474 1325.170 C 1040.571 1329.114,1031.585 1336.264,1022.507 1341.059 C 1007.821 1348.816,999.823 1349.778,950.000 1349.778 C 900.177 1349.778,892.179 1348.816,877.493 1341.059 C 868.415 1336.264,859.429 1329.114,857.526 1325.170 C 855.622 1321.227,853.511 1223.950,852.834 1109.000 L 851.604 900.000 775.445 900.000 L 699.287 900.000 701.081 1113.000 M1248.912 975.000 L 1250.000 1050.000 1337.000 1051.078 L 1424.000 1052.156 1424.000 1276.078 L 1424.000 1500.000 1500.000 1500.000 L 1576.000 1500.000 1576.000 1276.078 L 1576.000 1052.156 1663.000 1051.078 L 1750.000 1050.000 1751.088 975.000 L 1752.177 900.000 1500.000 900.000 L 1247.823 900.000 1248.912 975.000 M1950.000 907.878 C 1912.042 909.887,1898.545 912.223,1885.487 919.042 C 1864.940 929.772,1823.318 970.929,1814.747 988.992 C 1804.734 1010.092,1800.000 1091.636,1800.000 1243.021 L 1800.000 1380.880 1812.398 1404.141 C 1828.741 1434.803,1864.277 1470.738,1889.821 1482.433 C 1918.648 1495.630,1954.945 1499.840,2040.000 1499.851 C 2177.447 1499.870,2213.648 1491.507,2253.700 1450.483 C 2295.706 1407.459,2299.462 1386.650,2299.634 1196.000 C 2299.747 1072.360,2295.550 1014.993,2284.635 990.947 C 2275.015 969.756,2241.396 936.899,2210.235 918.234 L 2186.471 904.000 2092.235 904.668 C 2040.406 905.036,1976.400 906.480,1950.000 907.878 M231.630 915.411 C 188.814 932.513,139.971 979.106,114.955 1026.710 L 100.000 1055.170 100.000 1277.585 L 100.000 1500.000 176.000 1500.000 L 252.000 1500.000 252.000 1426.000 L 252.000 1352.000 350.000 1352.000 L 448.000 1352.000 448.000 1426.000 L 448.000 1500.000 524.000 1500.000 L 600.000 1500.000 599.944 1277.000 L 599.887 1054.000 583.642 1024.194 C 561.490 983.553,548.429 968.016,516.912 944.818 C 467.345 908.333,475.391 910.122,356.000 909.037 C 261.127 908.175,248.072 908.844,231.630 915.411 M434.810 1064.785 L 448.000 1077.569 448.000 1138.785 L 448.000 1200.000 350.000 1200.000 L 252.000 1200.000 252.000 1139.190 L 252.000 1078.381 264.785 1065.190 L 277.569 1052.000 349.594 1052.000 L 421.619 1052.000 434.810 1064.785 M2148.000 1202.000 L 2148.000 1352.000 2050.000 1352.000 L 1952.000 1352.000 1952.000 1202.000 L 1952.000 1052.000 2050.000 1052.000 L 2148.000 1052.000 2148.000 1202.000 " fill="#1D1E23" stroke="none" fill-rule="evenodd"/></svg>