<svg viewBox="0 0 2400 2400" fill="none" xmlns="http://www.w3.org/2000/svg"><path d="M456.000 903.578 C 448.361 905.702,443.551 912.454,435.626 932.179 C 420.884 968.869,355.764 1152.359,272.436 1392.000 L 200.805 1598.000 285.116 1599.082 C 336.485 1599.741,370.364 1598.648,371.824 1596.284 C 373.143 1594.151,382.077 1565.314,391.677 1532.202 L 409.132 1472.000 519.838 1472.000 L 630.544 1472.000 648.738 1535.000 L 666.932 1598.000 749.133 1598.000 C 794.344 1598.000,832.642 1596.692,834.241 1595.093 C 837.390 1591.943,838.287 1594.574,693.122 1181.000 L 594.491 900.000 530.245 900.399 C 494.910 900.618,461.500 902.049,456.000 903.578 M843.000 902.865 C 836.950 903.782,832.000 905.052,832.000 905.688 C 832.000 909.494,949.747 1491.926,959.783 1537.762 C 966.498 1568.430,974.244 1594.953,976.996 1596.700 C 983.429 1600.785,1124.430 1600.875,1130.844 1596.799 C 1136.387 1593.277,1150.554 1536.737,1192.437 1351.000 C 1208.683 1278.950,1222.994 1220.000,1224.238 1220.000 C 1227.016 1220.000,1254.974 1336.200,1288.479 1487.000 L 1313.585 1600.000 1391.792 1599.939 C 1434.807 1599.905,1472.276 1598.433,1475.058 1596.667 C 1480.828 1593.004,1494.697 1530.165,1537.487 1313.805 C 1562.745 1186.093,1608.594 944.276,1613.441 913.200 C 1614.220 908.208,1612.333 903.449,1609.080 902.200 C 1601.296 899.213,1528.112 899.416,1491.313 902.527 L 1461.420 905.054 1434.310 1061.527 C 1401.537 1250.687,1387.600 1324.933,1385.297 1322.630 C 1384.346 1321.679,1364.023 1231.148,1340.134 1121.450 C 1316.246 1011.753,1295.448 917.050,1293.917 911.000 L 1291.133 900.000 1223.566 900.000 C 1186.405 900.000,1156.000 901.483,1156.000 903.295 C 1156.000 906.101,1104.145 1148.352,1075.560 1279.088 C 1070.619 1301.687,1065.262 1318.787,1063.656 1317.088 C 1062.049 1315.390,1048.727 1246.500,1034.050 1164.000 C 1006.180 1007.334,994.167 943.867,987.774 919.521 C 984.451 906.865,982.086 904.730,968.986 902.565 C 952.869 899.901,861.124 900.119,843.000 902.865 M1680.000 1250.000 L 1680.000 1600.000 1847.681 1600.000 L 2015.363 1600.000 2050.681 1587.552 C 2113.082 1565.558,2139.315 1548.353,2166.116 1511.842 C 2201.857 1463.152,2209.393 1374.057,2182.292 1320.576 C 2171.006 1298.304,2136.143 1264.317,2111.894 1251.946 L 2094.374 1243.008 2109.381 1235.309 C 2172.048 1203.159,2201.815 1102.191,2172.014 1022.862 C 2154.734 976.864,2100.636 933.626,2036.000 914.152 C 2012.164 906.970,1878.513 900.453,1749.000 900.158 L 1680.000 900.000 1680.000 1250.000 M1982.984 1040.482 C 2012.785 1054.898,2027.020 1083.722,2022.645 1120.785 C 2017.980 1160.303,1996.546 1180.628,1952.000 1187.771 C 1922.887 1192.439,1881.646 1193.176,1859.000 1189.433 L 1844.000 1186.953 1844.000 1106.862 L 1844.000 1026.770 1905.000 1029.518 C 1954.500 1031.748,1969.202 1033.815,1982.984 1040.482 M554.411 1220.000 C 568.697 1269.500,580.748 1316.300,581.193 1324.000 L 582.000 1338.000 516.536 1339.101 L 451.072 1340.203 453.655 1326.433 C 455.711 1315.473,504.521 1139.315,514.732 1106.000 C 517.937 1095.546,521.192 1104.900,554.411 1220.000 M1976.976 1308.273 C 2001.930 1312.890,2014.107 1321.345,2026.667 1342.778 C 2045.606 1375.094,2039.670 1423.450,2013.560 1449.560 C 1993.459 1469.661,1979.830 1472.928,1907.000 1475.104 L 1840.000 1477.106 1840.000 1388.070 L 1840.000 1299.033 1899.000 1301.897 C 1931.450 1303.473,1966.539 1306.342,1976.976 1308.273 " fill="#1D1E23" stroke="none" fill-rule="evenodd"/></svg>