<svg viewBox="0 0 2400 2400" fill="none" xmlns="http://www.w3.org/2000/svg"><path d="M447.018 905.000 C 441.512 909.229,366.613 1119.515,229.751 1515.000 L 200.335 1600.000 286.013 1600.000 L 371.690 1600.000 377.298 1581.000 C 380.383 1570.550,388.842 1541.750,396.097 1517.000 L 409.288 1472.000 519.916 1472.000 L 630.544 1472.000 648.717 1535.000 L 666.891 1598.000 752.445 1598.000 C 826.399 1598.000,837.826 1597.186,836.713 1592.000 C 836.006 1588.700,781.202 1431.650,714.929 1243.000 L 594.431 900.000 523.980 900.000 C 473.758 900.000,451.660 901.436,447.018 905.000 M838.657 902.823 C 833.485 904.158,831.908 907.274,833.325 913.359 C 834.432 918.112,865.407 1072.300,902.158 1256.000 C 938.909 1439.700,970.778 1592.250,972.979 1595.000 C 975.930 1598.688,997.184 1600.000,1054.000 1600.000 C 1110.889 1600.000,1132.031 1598.693,1134.885 1595.000 C 1137.011 1592.250,1157.203 1507.200,1179.758 1406.000 C 1202.312 1304.800,1221.493 1221.250,1222.383 1220.333 C 1223.272 1219.417,1224.975 1219.642,1226.168 1220.834 C 1228.538 1223.205,1268.793 1395.648,1296.237 1521.000 L 1313.533 1600.000 1394.531 1600.000 C 1454.936 1600.000,1476.351 1598.729,1478.764 1595.000 C 1485.702 1584.279,1618.512 906.009,1614.250 903.061 C 1609.070 899.479,1523.918 899.120,1487.849 902.528 L 1461.698 904.998 1426.235 1109.499 C 1395.153 1288.736,1385.220 1340.062,1384.254 1326.422 C 1384.010 1322.982,1316.671 1013.106,1299.629 937.000 L 1291.343 900.000 1224.325 900.000 L 1157.306 900.000 1134.310 1009.000 C 1102.927 1157.755,1067.571 1317.643,1065.613 1319.667 C 1061.899 1323.504,1066.583 1347.763,1013.587 1050.229 C 998.500 965.528,985.928 905.157,982.989 903.291 C 977.748 899.963,851.325 899.553,838.657 902.823 M1680.000 1249.652 L 1680.000 1600.604 1851.000 1599.236 L 2022.000 1597.868 2060.000 1584.690 C 2080.900 1577.443,2106.373 1566.148,2116.606 1559.592 C 2142.530 1542.984,2168.419 1514.132,2181.623 1487.135 C 2203.161 1443.100,2204.265 1363.863,2183.927 1321.849 C 2171.960 1297.128,2141.862 1267.105,2115.813 1253.905 L 2094.341 1243.025 2109.367 1235.316 C 2166.368 1206.073,2195.360 1128.993,2179.940 1047.686 C 2170.501 997.911,2136.960 958.210,2082.362 932.185 C 2026.699 905.652,2015.813 904.274,1838.680 901.334 L 1680.000 898.700 1680.000 1249.652 M1982.454 1039.251 C 2011.734 1054.263,2024.026 1075.199,2023.978 1109.974 C 2023.927 1146.170,2009.675 1169.028,1979.226 1181.747 C 1960.408 1189.608,1905.198 1193.917,1870.675 1190.220 L 1844.000 1187.363 1844.000 1107.079 L 1844.000 1026.795 1905.454 1029.038 C 1955.978 1030.882,1969.674 1032.698,1982.454 1039.251 M554.263 1218.552 C 572.577 1281.759,586.654 1334.942,585.545 1336.737 C 583.350 1340.289,454.694 1341.361,451.190 1337.856 C 450.011 1336.677,464.111 1283.354,482.523 1219.360 C 500.935 1155.367,516.000 1102.031,516.000 1100.837 C 516.000 1090.171,525.802 1120.327,554.263 1218.552 M1975.283 1306.582 C 2050.194 1315.065,2063.019 1433.668,1992.434 1465.180 C 1976.914 1472.110,1963.410 1473.696,1907.000 1475.217 L 1840.000 1477.023 1840.000 1387.950 L 1840.000 1298.877 1897.000 1301.525 C 1928.350 1302.981,1963.577 1305.257,1975.283 1306.582 " fill="#1D1E23" stroke="none" fill-rule="evenodd"/></svg>