<svg viewBox="0 0 2400 2400" fill="none" xmlns="http://www.w3.org/2000/svg"><path d="M467.424 902.889 C 459.408 903.738,450.146 907.485,446.843 911.216 C 439.580 919.419,417.546 978.449,348.008 1176.000 C 257.677 1432.618,204.000 1588.572,204.000 1594.401 C 204.000 1602.127,359.121 1602.692,368.694 1595.000 C 372.117 1592.250,382.699 1563.450,392.209 1531.000 L 409.500 1472.000 520.022 1472.000 L 630.544 1472.000 648.752 1535.000 L 666.959 1598.000 749.641 1597.505 C 795.117 1597.233,833.224 1596.109,834.326 1595.008 C 836.891 1592.442,818.044 1537.152,695.248 1187.000 L 594.598 900.000 538.299 900.672 C 507.335 901.042,475.441 902.040,467.424 902.889 M847.000 902.677 C 838.750 903.670,832.000 905.121,832.000 905.900 C 832.000 911.634,958.208 1532.901,964.471 1558.000 C 968.863 1575.600,975.398 1592.250,978.993 1595.000 C 983.653 1598.565,1005.831 1600.000,1056.275 1600.000 C 1108.040 1600.000,1128.109 1598.659,1131.079 1595.000 C 1136.936 1587.784,1148.645 1543.336,1174.019 1432.000 C 1209.216 1277.563,1220.710 1230.240,1223.857 1226.808 C 1227.228 1223.132,1247.841 1306.235,1286.412 1479.000 L 1313.426 1600.000 1389.949 1600.000 C 1444.887 1600.000,1468.382 1598.590,1473.245 1595.000 C 1481.445 1588.948,1492.354 1541.673,1533.475 1334.000 C 1581.788 1090.001,1612.491 923.425,1611.200 912.319 L 1610.000 902.000 1536.692 902.641 C 1496.373 902.993,1462.843 903.893,1462.181 904.641 C 1461.518 905.388,1449.908 969.900,1436.380 1048.000 C 1398.366 1267.463,1387.301 1323.040,1383.611 1313.064 C 1381.859 1308.330,1363.178 1225.726,1342.096 1129.501 C 1321.014 1033.275,1300.974 942.273,1297.562 927.273 L 1291.359 900.000 1228.679 900.061 C 1194.206 900.095,1163.616 901.634,1160.701 903.482 C 1157.549 905.480,1141.761 970.685,1121.732 1064.421 C 1076.786 1274.775,1068.060 1312.000,1063.694 1312.000 C 1061.662 1312.000,1060.000 1310.457,1060.000 1308.570 C 1060.000 1302.910,1012.709 1042.731,999.552 976.000 C 992.828 941.900,984.824 911.410,981.765 908.244 C 977.516 903.848,962.718 902.297,919.101 901.680 C 887.696 901.235,855.250 901.684,847.000 902.677 M1680.000 1249.354 L 1680.000 1600.000 1848.258 1600.000 L 2016.515 1600.000 2059.258 1583.897 C 2110.615 1564.549,2138.372 1546.885,2159.582 1520.052 C 2197.911 1471.563,2209.552 1392.520,2187.173 1332.708 C 2177.819 1307.707,2144.254 1271.360,2114.515 1254.028 L 2095.030 1242.671 2108.716 1235.650 C 2125.899 1226.835,2152.843 1197.869,2163.754 1176.483 C 2177.264 1150.000,2185.082 1109.475,2182.753 1078.000 C 2178.455 1019.919,2156.036 981.979,2106.394 948.777 C 2048.267 909.899,2022.662 905.868,1805.000 901.320 L 1680.000 898.708 1680.000 1249.354 M1932.376 1031.717 C 1972.984 1035.348,1989.615 1041.463,2005.512 1058.607 C 2034.801 1090.194,2025.423 1154.556,1988.528 1175.177 C 1963.180 1189.344,1893.510 1196.902,1856.500 1189.500 L 1844.000 1187.000 1844.000 1107.500 L 1844.000 1028.000 1869.000 1028.143 C 1882.750 1028.221,1911.269 1029.830,1932.376 1031.717 M550.243 1206.480 C 564.778 1256.816,577.671 1307.450,578.895 1319.000 L 581.119 1340.000 516.560 1340.000 C 470.506 1340.000,452.000 1338.679,452.000 1335.392 C 452.000 1330.525,470.097 1263.258,496.495 1170.000 C 517.315 1096.450,515.731 1100.563,520.177 1108.480 C 522.178 1112.045,535.708 1156.145,550.243 1206.480 M1925.867 1304.098 C 1994.785 1309.067,2009.857 1315.050,2025.401 1343.608 C 2050.684 1390.062,2030.175 1451.601,1984.000 1467.833 C 1976.300 1470.540,1940.750 1473.737,1905.000 1474.938 L 1840.000 1477.121 1840.000 1388.560 L 1840.000 1300.000 1855.000 1300.035 C 1863.250 1300.054,1895.140 1301.883,1925.867 1304.098 " fill="#1D1E23" stroke="none" fill-rule="evenodd"/></svg>