<svg viewBox="0 0 2400 2400" fill="none" xmlns="http://www.w3.org/2000/svg"><path d="M442.110 907.000 C 439.086 914.711,276.596 1379.881,229.728 1515.000 L 200.244 1600.000 285.953 1600.000 L 371.661 1600.000 380.122 1571.000 C 384.775 1555.050,393.230 1526.250,398.910 1507.000 L 409.237 1472.000 519.890 1472.000 L 630.544 1472.000 648.715 1535.000 L 666.886 1598.000 753.803 1599.079 C 802.444 1599.683,840.121 1598.614,839.360 1596.652 C 838.612 1594.724,783.190 1437.188,716.200 1246.573 L 594.400 900.000 519.628 900.000 C 452.129 900.000,444.589 900.681,442.110 907.000 M832.000 903.692 C 832.000 907.165,965.440 1571.664,970.021 1591.000 C 972.145 1599.970,972.427 1600.000,1053.807 1600.000 C 1128.157 1600.000,1135.637 1599.374,1137.426 1593.000 C 1138.507 1589.150,1157.604 1504.100,1179.864 1404.000 C 1202.125 1303.900,1221.696 1218.619,1223.357 1214.486 C 1225.324 1209.590,1241.636 1275.446,1270.171 1403.486 L 1313.966 1600.000 1396.713 1600.000 C 1472.059 1600.000,1479.647 1599.374,1481.546 1593.000 C 1482.693 1589.150,1513.495 1434.800,1549.994 1250.000 C 1586.493 1065.200,1617.310 910.812,1618.475 906.914 C 1620.460 900.276,1615.605 899.897,1541.577 900.914 L 1462.562 902.000 1425.454 1115.480 C 1405.045 1232.894,1387.819 1330.533,1387.173 1332.454 C 1386.528 1334.376,1367.244 1249.109,1344.320 1142.974 C 1321.396 1036.838,1300.099 938.750,1296.994 925.000 L 1291.347 900.000 1224.386 900.000 L 1157.424 900.000 1111.744 1116.164 C 1084.532 1244.930,1064.934 1329.431,1063.271 1325.164 C 1060.775 1318.760,987.935 910.332,987.981 903.000 C 987.991 901.350,952.900 900.000,910.000 900.000 C 865.004 900.000,832.000 901.562,832.000 903.692 M1680.000 1249.715 L 1680.000 1600.000 1838.169 1600.000 C 1966.275 1600.000,2002.112 1598.807,2026.720 1593.724 C 2111.092 1576.297,2163.001 1537.541,2188.552 1472.899 C 2196.138 1453.707,2197.626 1442.230,2197.743 1402.000 C 2197.862 1360.984,2196.540 1350.656,2188.659 1331.013 C 2176.632 1301.042,2145.728 1267.391,2117.582 1253.620 L 2095.643 1242.887 2115.769 1231.393 C 2143.371 1215.628,2166.005 1185.809,2176.437 1151.465 C 2187.668 1114.488,2185.796 1053.589,2172.365 1019.013 C 2153.407 970.212,2101.498 931.216,2028.518 910.952 C 2000.309 903.120,1985.969 902.363,1839.000 900.954 L 1680.000 899.430 1680.000 1249.715 M1986.000 1040.000 C 2013.426 1053.713,2023.846 1072.710,2023.934 1109.159 C 2024.029 1148.199,2014.383 1165.461,1984.747 1179.285 C 1963.334 1189.273,1958.480 1189.899,1902.000 1189.948 C 1856.428 1189.987,1842.096 1188.798,1842.400 1185.000 C 1842.620 1182.250,1843.070 1145.638,1843.400 1103.641 L 1844.000 1027.282 1905.000 1028.641 C 1960.556 1029.879,1967.785 1030.893,1986.000 1040.000 M553.671 1215.573 C 572.552 1280.233,588.000 1334.681,588.000 1336.568 C 588.000 1338.456,556.307 1340.000,517.572 1340.000 C 462.878 1340.000,447.571 1338.883,449.054 1335.000 C 450.104 1332.250,465.940 1277.393,484.245 1213.096 C 502.549 1148.799,517.935 1096.601,518.434 1097.101 C 518.934 1097.600,534.790 1150.913,553.671 1215.573 M1991.783 1308.651 C 2040.762 1327.145,2056.342 1407.097,2018.809 1447.335 C 1997.658 1470.009,1983.381 1473.642,1909.000 1475.276 L 1840.000 1476.792 1840.000 1387.862 L 1840.000 1298.933 1910.783 1301.864 C 1949.714 1303.475,1986.164 1306.530,1991.783 1308.651 " fill="#1D1E23" stroke="none" fill-rule="evenodd"/></svg>