<svg viewBox="0 0 2400 2400" fill="none" xmlns="http://www.w3.org/2000/svg"><path d="M474.620 903.667 C 446.985 906.610,445.024 908.703,427.844 953.598 C 373.642 1095.242,202.331 1591.657,206.283 1595.628 C 209.629 1598.989,338.981 1601.081,355.210 1598.037 C 371.448 1594.991,377.121 1583.802,396.295 1517.000 L 409.211 1472.000 519.861 1472.000 L 630.512 1472.000 647.911 1533.000 C 657.480 1566.550,666.646 1595.541,668.280 1597.425 C 669.913 1599.309,707.419 1599.529,751.625 1597.915 C 826.324 1595.187,832.000 1594.454,832.000 1587.525 C 832.000 1579.789,787.377 1449.631,665.887 1103.000 L 594.738 900.000 546.369 900.588 C 519.766 900.912,487.479 902.297,474.620 903.667 M1168.223 903.527 C 1156.326 906.847,1155.224 910.817,1115.903 1092.000 C 1079.142 1261.389,1068.112 1307.459,1063.657 1310.212 C 1061.646 1311.455,1060.000 1310.604,1060.000 1308.322 C 1060.000 1298.258,999.158 970.807,991.979 942.236 C 987.590 924.765,981.749 909.043,978.999 907.297 C 972.072 902.898,832.000 903.160,832.000 907.572 C 832.000 911.904,948.164 1483.201,959.374 1534.000 C 969.440 1579.614,973.695 1590.485,983.546 1595.757 C 988.215 1598.256,1018.595 1600.000,1057.451 1600.000 C 1131.711 1600.000,1132.717 1599.645,1140.092 1570.820 C 1142.459 1561.569,1145.335 1551.300,1146.484 1548.000 C 1147.632 1544.700,1164.567 1472.927,1184.115 1388.504 C 1203.664 1304.081,1220.635 1234.031,1221.829 1232.837 C 1223.023 1231.643,1225.160 1231.826,1226.577 1233.244 C 1229.974 1236.641,1256.636 1346.608,1288.155 1487.226 L 1313.535 1600.452 1392.920 1599.226 C 1458.230 1598.217,1472.964 1596.936,1476.027 1592.000 C 1478.074 1588.700,1484.357 1566.757,1489.990 1543.238 C 1514.384 1441.371,1611.942 935.790,1611.987 911.000 C 1611.999 904.581,1605.753 904.000,1536.701 904.000 L 1461.402 904.000 1438.267 1037.000 C 1411.573 1190.450,1389.254 1308.080,1386.262 1311.071 C 1382.977 1314.357,1382.411 1312.005,1337.907 1110.000 C 1314.642 1004.400,1294.600 913.950,1293.370 909.000 C 1291.176 900.172,1290.051 900.008,1234.566 900.399 C 1203.455 900.618,1173.600 902.026,1168.223 903.527 M1680.000 1250.000 L 1680.000 1600.000 1847.727 1600.000 L 2015.454 1600.000 2047.411 1588.217 C 2097.420 1569.778,2127.656 1552.886,2147.956 1532.046 C 2205.279 1473.193,2215.344 1359.784,2168.296 1302.850 C 2150.455 1281.260,2124.128 1258.340,2106.987 1249.476 L 2095.316 1243.441 2112.950 1232.257 C 2163.600 1200.136,2192.513 1126.796,2180.435 1061.076 C 2173.785 1024.888,2164.193 1004.370,2143.362 981.771 C 2108.110 943.527,2064.401 920.388,2012.099 912.282 C 1980.931 907.451,1813.736 900.252,1729.000 900.092 L 1680.000 900.000 1680.000 1250.000 M1963.913 1036.450 C 2006.963 1046.046,2029.370 1082.568,2019.744 1127.451 C 2013.871 1154.834,1996.385 1174.359,1970.784 1182.117 C 1945.518 1189.774,1888.093 1194.122,1862.642 1190.305 L 1844.000 1187.510 1844.000 1107.170 L 1844.000 1026.831 1895.000 1029.644 C 1923.050 1031.191,1954.061 1034.254,1963.913 1036.450 M534.366 1152.601 C 553.887 1216.678,580.000 1318.297,580.000 1330.186 L 580.000 1340.203 517.000 1339.102 L 454.000 1338.000 455.142 1327.061 C 457.725 1302.310,515.032 1101.698,518.522 1105.188 C 519.629 1106.295,526.759 1127.631,534.366 1152.601 M1961.235 1308.327 C 1976.215 1310.368,1993.772 1314.780,2000.252 1318.130 C 2031.210 1334.139,2044.630 1384.457,2028.155 1422.753 C 2010.189 1464.515,1993.831 1471.469,1905.760 1474.780 L 1840.000 1477.252 1840.000 1388.146 L 1840.000 1299.041 1887.000 1301.828 C 1912.850 1303.361,1946.256 1306.286,1961.235 1308.327 " fill="#1D1E23" stroke="none" fill-rule="evenodd"/></svg>