<svg viewBox="0 0 2400 2400" fill="none" xmlns="http://www.w3.org/2000/svg"><path d="M809.145 299.993 L 718.000 399.985 459.000 399.993 L 200.000 400.000 200.000 1200.000 L 200.000 2000.000 1200.000 2000.000 L 2200.000 2000.000 2200.000 1200.000 L 2200.000 400.000 1941.000 399.993 L 1682.000 399.985 1590.855 299.993 L 1499.710 200.000 1200.000 200.000 L 900.290 200.000 809.145 299.993 M1310.357 715.621 C 1366.063 729.309,1431.598 758.070,1478.000 789.192 C 1511.205 811.462,1584.220 883.962,1607.595 917.870 C 1642.074 967.888,1665.279 1019.428,1682.139 1083.438 C 1690.990 1117.042,1691.993 1128.717,1691.931 1197.438 C 1691.856 1279.581,1688.565 1303.596,1669.886 1358.296 C 1615.742 1516.858,1482.988 1640.669,1320.000 1684.612 C 1289.573 1692.815,1276.964 1693.785,1200.000 1693.845 C 1118.093 1693.908,1112.096 1693.382,1074.000 1682.785 C 1025.673 1669.343,963.106 1640.088,921.029 1611.259 C 881.257 1584.010,819.990 1522.743,792.741 1482.971 C 765.886 1443.776,735.655 1380.553,721.507 1334.000 C 711.438 1300.868,710.436 1291.382,708.933 1214.941 C 707.067 1120.049,711.128 1090.706,734.531 1030.020 C 783.624 902.712,871.376 807.517,992.399 750.278 C 1035.759 729.771,1089.766 713.197,1130.000 708.051 C 1174.964 702.301,1272.872 706.410,1310.357 715.621 M1100.000 920.949 C 1010.530 960.786,947.852 1023.033,919.793 1099.918 C 891.233 1178.173,897.013 1260.107,936.469 1336.295 C 965.205 1391.783,1012.058 1437.281,1070.000 1465.963 C 1116.275 1488.870,1147.123 1495.867,1202.160 1495.941 C 1253.255 1496.009,1281.652 1489.906,1322.113 1470.160 C 1405.617 1429.407,1470.272 1351.459,1489.799 1268.000 C 1497.345 1235.746,1497.510 1176.035,1490.166 1134.841 C 1477.346 1062.926,1421.239 988.921,1343.937 941.962 C 1299.240 914.810,1282.433 910.927,1202.000 909.167 L 1130.000 907.591 1100.000 920.949 " fill="#1D1E23" stroke="none" fill-rule="evenodd"/></svg>