<svg viewBox="0 0 2400 2400" fill="none" xmlns="http://www.w3.org/2000/svg"><path d="M809.145 299.993 L 718.000 399.985 459.000 399.993 L 200.000 400.000 200.000 1200.000 L 200.000 2000.000 1200.000 2000.000 L 2200.000 2000.000 2200.000 1200.000 L 2200.000 400.000 1941.000 399.993 L 1682.000 399.985 1590.855 299.993 L 1499.710 200.000 1200.000 200.000 L 900.290 200.000 809.145 299.993 M1274.711 708.344 C 1337.778 717.100,1419.560 749.426,1478.677 788.967 C 1518.898 815.868,1584.681 881.575,1611.037 921.175 C 1646.672 974.716,1673.547 1038.876,1688.455 1106.000 C 1691.925 1121.623,1693.669 1155.828,1693.450 1204.000 C 1693.152 1269.864,1691.998 1282.215,1682.955 1316.340 C 1656.902 1414.660,1611.818 1492.940,1543.576 1558.348 C 1472.510 1626.464,1392.146 1669.737,1302.000 1688.430 C 1251.750 1698.850,1148.250 1698.850,1098.000 1688.430 C 1002.610 1668.650,915.062 1619.398,843.746 1545.395 C 776.276 1475.383,732.334 1391.964,711.320 1294.000 C 704.449 1261.972,704.644 1137.799,711.614 1106.000 C 756.000 903.515,904.280 754.562,1104.000 711.836 C 1143.663 703.352,1226.539 701.656,1274.711 708.344 M1137.465 907.761 C 1125.191 909.705,1098.760 920.454,1071.760 934.482 C 952.122 996.643,890.564 1104.990,903.654 1230.363 C 916.303 1351.509,1000.172 1450.458,1121.784 1487.713 C 1157.367 1498.613,1234.450 1499.730,1272.404 1489.895 C 1318.453 1477.963,1369.392 1447.933,1408.972 1409.386 C 1437.942 1381.173,1452.006 1361.292,1470.101 1322.977 C 1492.426 1275.705,1497.123 1250.396,1495.109 1188.215 C 1493.099 1126.169,1486.119 1100.090,1459.367 1054.691 C 1422.683 992.435,1349.912 933.900,1285.436 914.786 C 1261.108 907.574,1166.894 903.101,1137.465 907.761 " fill="#1D1E23" stroke="none" fill-rule="evenodd"/></svg>