<svg viewBox="0 0 2400 2400" fill="none" xmlns="http://www.w3.org/2000/svg"><path d="M1098.326 208.089 C 1016.987 215.397,908.773 242.232,823.193 276.316 C 739.924 309.480,637.481 367.886,599.935 403.603 C 569.540 432.517,560.890 413.738,777.003 788.000 C 838.615 894.700,894.229 987.400,900.590 994.000 C 910.623 1004.411,915.001 1006.000,933.657 1006.000 C 949.073 1006.000,957.507 1003.876,963.452 998.496 C 979.546 983.931,1282.700 462.577,1368.209 302.408 C 1389.282 262.935,1389.329 262.768,1383.673 246.771 C 1376.285 225.875,1363.422 216.828,1333.978 211.822 C 1300.892 206.196,1146.599 203.751,1098.326 208.089 M1546.973 292.792 C 1525.336 315.897,1317.241 669.554,1248.914 799.342 C 1223.999 846.668,1223.122 849.296,1227.435 863.690 C 1233.997 885.592,1243.618 892.214,1274.703 896.220 C 1289.716 898.155,1482.113 899.797,1702.252 899.869 L 2102.503 900.000 2112.763 889.000 C 2128.759 871.850,2133.115 860.576,2130.372 843.423 C 2123.568 800.878,2057.151 678.076,1999.607 601.648 C 1962.477 552.333,1882.266 469.109,1834.445 430.282 C 1755.338 366.054,1618.258 286.681,1576.973 281.200 C 1561.390 279.131,1558.844 280.115,1546.973 292.792 M421.000 579.037 C 401.840 598.243,375.901 634.894,343.883 688.000 C 241.311 858.131,190.398 1069.419,203.726 1269.652 C 210.747 1375.132,216.894 1389.452,258.000 1396.082 C 271.974 1398.337,411.722 1399.963,592.535 1399.977 L 903.069 1400.000 917.535 1383.988 C 925.491 1375.182,932.000 1364.449,932.000 1360.137 C 932.000 1338.289,908.730 1294.482,760.888 1038.000 C 473.728 539.826,489.461 564.047,453.000 564.015 C 438.665 564.002,433.648 566.357,421.000 579.037 M1540.657 1003.757 L 1491.313 1006.000 1479.222 1019.549 C 1468.995 1031.010,1467.493 1035.326,1469.476 1047.549 C 1472.725 1067.582,1499.645 1119.007,1583.168 1264.737 C 1806.256 1653.981,1906.362 1822.743,1919.127 1831.107 C 1924.280 1834.482,1936.684 1837.415,1946.693 1837.622 C 1963.630 1837.974,1966.142 1836.618,1982.941 1818.066 C 2011.493 1786.533,2062.327 1706.871,2091.709 1647.617 C 2172.146 1485.398,2209.109 1304.525,2196.704 1133.842 C 2188.533 1021.433,2181.656 1007.201,2133.299 1002.635 C 2101.015 999.586,1612.057 1000.512,1540.657 1003.757 M1444.405 1396.834 C 1439.127 1399.675,1424.042 1419.100,1410.883 1440.000 C 1341.268 1550.560,1074.778 2012.129,1032.833 2094.793 L 1010.104 2139.586 1016.052 2156.793 C 1027.863 2190.960,1063.499 2197.704,1217.887 2194.992 C 1313.066 2193.320,1332.531 2191.837,1380.596 2182.598 C 1507.119 2158.279,1628.633 2110.691,1739.739 2041.950 C 1789.844 2010.950,1816.000 1985.801,1816.000 1968.624 C 1816.000 1951.256,1784.173 1891.001,1674.113 1700.000 C 1548.023 1481.181,1506.283 1411.225,1496.624 1402.527 C 1486.197 1393.138,1457.153 1389.972,1444.405 1396.834 M315.246 1502.949 C 294.932 1504.231,291.129 1505.935,279.798 1518.841 C 268.865 1531.294,267.369 1535.563,269.009 1549.648 C 274.883 1600.114,345.675 1729.810,415.483 1818.000 C 449.357 1860.794,525.418 1937.188,570.000 1973.195 C 650.551 2038.251,778.862 2112.742,820.000 2118.333 C 852.227 2122.713,849.974 2125.925,1016.952 1837.583 C 1193.557 1532.618,1188.465 1544.271,1158.774 1513.000 L 1146.431 1500.000 742.215 1500.756 C 519.897 1501.172,327.760 1502.159,315.246 1502.949 " fill="#1D1E23" stroke="none" fill-rule="evenodd"/></svg>