<svg viewBox="0 0 2400 2400" fill="none" xmlns="http://www.w3.org/2000/svg"><path d="M1096.000 206.403 C 961.269 222.773,824.601 266.797,716.000 328.809 C 670.836 354.599,573.907 417.678,570.182 423.705 C 567.432 428.155,906.005 1014.877,929.001 1045.510 C 934.261 1052.517,935.717 1051.312,950.741 1027.510 C 986.667 970.597,1256.283 505.119,1366.013 310.567 C 1400.921 248.674,1411.740 226.312,1407.920 223.951 C 1391.946 214.078,1146.483 200.269,1096.000 206.403 M1551.000 275.000 C 1543.603 283.297,1535.086 297.846,1341.538 632.766 C 1259.292 775.087,1192.000 893.437,1192.000 895.766 C 1192.000 901.353,2146.439 901.763,2149.891 896.177 C 2155.315 887.401,2104.171 771.514,2063.921 701.377 C 1987.920 568.944,1862.379 439.193,1731.421 357.726 C 1698.661 337.347,1566.056 268.116,1559.620 268.031 C 1558.311 268.014,1554.432 271.150,1551.000 275.000 M441.005 553.662 C 398.803 599.838,346.332 679.608,308.277 755.445 C 245.798 879.956,213.654 996.219,203.874 1133.064 C 198.286 1211.249,203.554 1314.957,216.366 1379.000 L 220.567 1400.000 591.617 1400.000 C 795.694 1400.000,963.697 1398.969,964.957 1397.710 C 966.216 1396.450,951.455 1368.100,932.154 1334.710 C 912.853 1301.319,829.101 1156.100,746.039 1012.000 C 569.880 706.392,482.064 556.719,470.145 541.772 L 461.631 531.094 441.005 553.662 M1446.365 1027.000 C 1468.034 1065.867,1713.970 1491.897,1815.243 1666.000 C 1915.936 1839.107,1931.658 1864.000,1940.292 1864.000 C 1948.292 1864.000,1989.650 1812.132,2033.429 1747.194 C 2102.435 1644.835,2156.567 1510.010,2186.476 1366.000 C 2199.928 1301.233,2198.131 1087.631,2183.563 1019.703 L 2179.337 1000.000 1805.324 1000.000 L 1431.311 1000.000 1446.365 1027.000 M1450.639 1367.000 C 1420.297 1415.106,1105.132 1962.128,1039.847 2080.000 C 1016.086 2122.900,995.530 2161.887,994.168 2166.639 C 992.121 2173.777,993.975 2176.029,1004.845 2179.607 C 1050.637 2194.680,1197.283 2203.918,1272.812 2196.488 C 1429.761 2181.049,1584.187 2133.698,1695.317 2066.938 C 1748.167 2035.189,1822.734 1985.285,1826.551 1979.109 C 1830.728 1972.350,1802.445 1921.066,1632.915 1628.000 C 1514.977 1424.122,1471.264 1352.000,1465.632 1352.000 C 1462.590 1352.000,1455.843 1358.750,1450.639 1367.000 M248.000 1503.111 C 248.000 1511.948,269.547 1567.064,289.850 1610.161 C 391.688 1826.333,563.297 2001.324,771.187 2100.984 C 833.264 2130.743,844.049 2132.863,854.820 2117.430 C 869.811 2095.951,1175.145 1565.181,1194.704 1526.602 C 1200.112 1515.934,1203.734 1506.400,1202.751 1505.418 C 1201.768 1504.435,986.547 1502.521,724.482 1501.165 C 378.330 1499.373,248.000 1499.906,248.000 1503.111 " fill="#1D1E23" stroke="none" fill-rule="evenodd"/></svg>