<svg viewBox="0 0 2400 2400" fill="none" xmlns="http://www.w3.org/2000/svg"><path d="M809.095 299.955 L 718.000 399.910 459.000 399.955 L 200.000 400.000 200.000 1200.000 L 200.000 2000.000 1200.000 2000.000 L 2200.000 2000.000 2200.000 1200.000 L 2200.000 400.000 1941.000 399.955 L 1682.000 399.910 1590.905 299.955 L 1499.810 200.000 1200.000 200.000 L 900.190 200.000 809.095 299.955 M1253.905 704.179 C 1432.696 724.660,1587.696 839.746,1658.135 1004.316 C 1719.571 1147.852,1709.745 1314.882,1632.038 1447.935 C 1557.844 1574.973,1442.431 1658.584,1297.337 1690.411 C 1253.798 1699.961,1146.202 1699.961,1102.663 1690.411 C 957.569 1658.584,842.156 1574.973,767.962 1447.935 C 703.074 1336.831,684.896 1201.798,717.787 1075.206 C 779.853 836.327,1011.007 676.354,1253.905 704.179 M1108.654 915.478 C 961.894 967.596,876.684 1110.653,906.323 1255.169 C 918.975 1316.857,942.969 1362.956,985.452 1407.198 C 1061.735 1486.639,1180.446 1518.891,1282.024 1487.772 C 1334.213 1471.783,1370.543 1449.778,1410.156 1410.160 C 1440.348 1379.964,1449.425 1367.732,1465.186 1336.000 C 1491.123 1283.781,1497.771 1256.035,1497.771 1200.000 C 1497.771 1144.697,1491.176 1116.633,1466.243 1065.848 C 1435.091 1002.396,1373.340 947.513,1300.787 918.791 C 1271.864 907.342,1266.126 906.514,1206.000 905.120 C 1143.434 903.670,1141.253 903.902,1108.654 915.478 " fill="#1D1E23" stroke="none" fill-rule="evenodd"/></svg>