<svg viewBox="0 0 2400 2400" fill="none" xmlns="http://www.w3.org/2000/svg"><path d="M1106.888 4.141 C 1020.374 11.392,900.575 34.619,887.184 46.739 C 869.275 62.946,869.946 63.742,1073.000 267.037 C 1179.150 373.314,1270.063 461.305,1275.029 462.574 C 1280.248 463.908,1288.266 462.125,1294.029 458.349 L 1304.000 451.816 1304.000 327.620 L 1304.000 203.424 1327.000 206.059 C 1368.503 210.813,1446.184 227.591,1494.530 242.242 C 1648.986 289.050,1781.767 367.640,1899.511 481.938 C 2043.299 621.520,2132.712 779.861,2180.509 979.556 C 2197.165 1049.147,2208.566 1067.965,2245.521 1086.869 C 2293.116 1111.214,2352.562 1093.426,2376.032 1047.814 C 2392.210 1016.374,2389.509 985.664,2361.273 880.000 C 2274.489 555.243,2051.450 284.271,1744.000 130.068 C 1623.272 69.517,1484.467 27.610,1346.000 9.908 C 1286.371 2.285,1164.195 -0.662,1106.888 4.141 M949.108 649.559 L 899.549 699.117 828.775 700.893 C 767.087 702.440,754.918 703.853,734.000 711.902 C 666.739 737.781,618.245 792.905,604.420 859.197 C 598.259 888.743,598.259 1511.257,604.420 1540.803 C 620.053 1615.765,684.235 1679.947,759.197 1695.580 C 788.926 1701.779,1611.074 1701.779,1640.803 1695.580 C 1715.765 1679.947,1779.947 1615.765,1795.580 1540.803 C 1801.741 1511.257,1801.741 888.743,1795.580 859.197 C 1781.754 792.899,1733.232 737.748,1666.000 711.914 C 1645.138 703.898,1632.847 702.461,1572.000 700.929 L 1502.000 699.167 1451.383 649.583 L 1400.766 600.000 1199.716 600.000 L 998.667 600.000 949.108 649.559 M1266.174 1012.372 C 1324.845 1034.235,1365.108 1074.388,1388.135 1134.000 C 1395.716 1153.628,1397.405 1165.651,1397.405 1200.000 C 1397.405 1234.349,1395.716 1246.372,1388.135 1266.000 C 1343.839 1380.672,1222.347 1430.908,1113.438 1379.584 C 1068.489 1358.402,1031.642 1317.198,1011.865 1266.000 C 998.535 1231.489,998.562 1168.375,1011.923 1134.000 C 1029.004 1090.053,1053.929 1058.066,1089.285 1034.722 C 1108.937 1021.747,1146.198 1006.455,1168.000 1002.417 C 1190.086 998.327,1242.837 1003.676,1266.174 1012.372 M83.282 1305.428 C 49.447 1314.813,25.010 1339.527,15.478 1374.000 C 9.874 1394.267,18.336 1446.001,40.340 1526.000 C 95.379 1726.094,202.444 1907.659,350.591 2052.135 C 413.680 2113.661,452.908 2145.332,528.000 2195.371 C 802.186 2378.077,1142.255 2441.674,1461.590 2369.961 C 1485.564 2364.578,1508.514 2357.155,1512.590 2353.466 C 1530.758 2337.024,1530.437 2336.642,1327.000 2132.963 C 1220.850 2026.686,1129.937 1938.695,1124.971 1937.426 C 1119.752 1936.092,1111.734 1937.875,1105.971 1941.651 L 1096.000 1948.184 1096.000 2072.380 L 1096.000 2196.576 1073.000 2193.941 C 1037.286 2189.850,957.731 2173.422,918.435 2162.024 C 759.729 2115.989,622.543 2036.219,503.034 1920.479 C 358.343 1780.352,270.411 1626.707,221.647 1428.812 C 213.676 1396.466,204.710 1365.266,201.723 1359.480 C 179.447 1316.338,128.223 1292.962,83.282 1305.428 " fill="#1D1E23" stroke="none" fill-rule="evenodd"/></svg>