<svg viewBox="0 0 2400 2400" fill="none" xmlns="http://www.w3.org/2000/svg"><path d="M1128.000 6.676 C 1050.188 10.904,938.554 28.456,901.000 42.365 C 880.296 50.034,879.529 56.500,896.490 80.400 C 915.811 107.626,1256.082 445.381,1272.929 454.056 C 1284.320 459.921,1288.966 460.634,1292.533 457.067 C 1299.904 449.696,1303.504 418.457,1303.762 359.628 C 1303.893 329.723,1305.177 283.373,1306.615 256.628 L 1309.229 208.000 1321.615 208.081 C 1340.804 208.205,1448.264 230.376,1487.129 242.229 C 1574.021 268.729,1681.699 319.221,1754.007 367.373 C 1888.214 456.745,2020.903 602.625,2086.359 732.765 C 2113.438 786.605,2130.206 829.142,2170.415 946.000 C 2204.878 1046.158,2208.719 1055.068,2223.317 1068.705 C 2240.127 1084.409,2271.144 1096.063,2295.726 1095.912 C 2323.019 1095.744,2361.348 1072.248,2373.884 1048.000 C 2391.811 1013.324,2379.762 929.662,2340.460 815.915 C 2265.405 598.697,2148.908 429.788,1971.874 281.500 C 1856.183 184.593,1689.581 96.468,1538.609 52.322 C 1443.559 24.527,1388.902 15.939,1257.155 8.098 C 1191.105 4.166,1177.022 4.011,1128.000 6.676 M948.516 649.483 L 899.152 698.965 844.576 701.713 C 766.895 705.625,742.678 710.157,711.269 726.661 C 676.637 744.860,635.441 787.619,614.997 826.585 L 600.000 855.170 600.295 1142.585 C 600.457 1300.663,601.904 1457.000,603.511 1490.000 C 606.335 1548.021,606.910 1550.994,620.950 1580.135 C 647.006 1634.217,685.468 1668.053,745.972 1690.120 L 775.980 1701.064 1209.847 1699.257 L 1643.714 1697.450 1677.713 1680.602 C 1723.723 1657.804,1757.736 1624.341,1778.443 1581.504 L 1793.672 1550.000 1796.528 1478.000 C 1798.099 1438.400,1799.523 1282.063,1799.692 1130.585 L 1800.000 855.170 1785.176 826.585 C 1765.852 789.323,1719.285 741.769,1685.389 724.683 C 1656.585 710.164,1630.022 705.469,1555.424 701.713 L 1500.848 698.965 1451.484 649.483 L 1402.120 600.000 1200.000 600.000 L 997.880 600.000 948.516 649.483 M1236.437 1008.083 C 1288.313 1017.921,1337.672 1053.937,1372.703 1107.513 L 1392.000 1137.026 1392.000 1200.000 L 1392.000 1262.974 1372.603 1292.487 C 1329.840 1357.551,1279.522 1390.669,1211.773 1398.341 C 1147.843 1405.581,1073.347 1362.831,1027.314 1292.487 L 1008.000 1262.974 1008.000 1200.000 L 1008.000 1137.026 1027.397 1107.513 C 1060.934 1056.488,1108.435 1018.371,1150.984 1008.343 C 1172.045 1003.379,1211.009 1003.261,1236.437 1008.083 M84.550 1308.569 C 63.508 1312.388,43.467 1326.932,28.888 1348.963 C 13.000 1372.972,12.026 1409.114,25.732 1466.181 C 68.926 1646.039,144.671 1804.718,251.907 1940.000 C 293.702 1992.726,392.832 2091.737,448.000 2135.857 C 579.933 2241.369,737.314 2317.916,916.000 2363.482 C 1032.566 2393.207,1178.889 2403.508,1320.419 2391.952 C 1378.392 2387.218,1476.745 2368.196,1498.705 2357.470 C 1522.737 2345.733,1520.764 2338.776,1480.676 2293.901 C 1428.777 2235.804,1135.498 1945.581,1125.528 1942.454 C 1120.869 1940.992,1112.319 1941.598,1106.528 1943.799 L 1096.000 1947.802 1096.000 2071.901 L 1096.000 2196.000 1083.000 2195.934 C 1044.824 2195.741,878.208 2150.668,809.939 2122.066 C 612.717 2039.437,434.576 1880.822,328.101 1693.041 C 295.287 1635.168,266.898 1566.314,231.551 1458.868 C 210.835 1395.897,194.861 1354.106,187.761 1344.304 C 168.009 1317.037,123.259 1301.543,84.550 1308.569 " fill="#1D1E23" stroke="none" fill-rule="evenodd"/></svg>