<svg viewBox="0 0 2400 2400" fill="none" xmlns="http://www.w3.org/2000/svg"><path d="M809.145 299.993 L 718.000 399.985 459.000 399.993 L 200.000 400.000 200.000 1200.000 L 200.000 2000.000 1200.000 2000.000 L 2200.000 2000.000 2200.000 1200.000 L 2200.000 400.000 1941.000 399.993 L 1682.000 399.985 1590.855 299.993 L 1499.710 200.000 1200.000 200.000 L 900.290 200.000 809.145 299.993 M1278.593 708.279 C 1341.491 717.855,1420.635 749.189,1476.787 786.746 C 1514.893 812.234,1571.919 866.688,1599.935 904.342 C 1643.705 963.169,1677.169 1041.066,1689.808 1113.541 C 1697.659 1158.562,1697.768 1240.816,1690.035 1285.160 C 1654.871 1486.802,1498.112 1648.539,1297.721 1689.931 C 1255.357 1698.681,1144.643 1698.681,1102.279 1689.931 C 903.343 1648.839,747.228 1489.032,710.180 1288.558 C 702.168 1245.205,702.174 1159.518,710.192 1113.541 C 731.551 991.059,803.072 875.651,904.499 800.004 C 975.692 746.905,1070.937 710.602,1160.000 702.616 C 1183.597 700.500,1247.560 703.554,1278.593 708.279 M1130.278 908.489 C 1101.633 915.205,1042.442 946.314,1011.752 970.783 C 962.396 1010.136,925.912 1066.067,909.197 1128.000 C 899.473 1164.034,899.795 1236.761,909.835 1272.000 C 939.902 1377.524,1010.008 1451.073,1112.879 1485.017 C 1145.671 1495.837,1155.598 1497.294,1198.000 1497.517 C 1232.387 1497.698,1253.374 1495.742,1272.000 1490.622 C 1332.472 1473.996,1392.072 1434.819,1434.201 1384.000 C 1455.796 1357.950,1480.570 1308.295,1490.080 1272.000 C 1499.241 1237.036,1499.279 1163.212,1490.155 1128.000 C 1467.566 1040.828,1406.595 969.828,1317.691 927.169 C 1289.172 913.484,1277.288 910.118,1248.623 907.605 C 1202.466 903.557,1149.632 903.952,1130.278 908.489 " fill="#1D1E23" stroke="none" fill-rule="evenodd"/></svg>