<svg viewBox="0 0 2400 2400" fill="none" xmlns="http://www.w3.org/2000/svg"><path d="M1072.000 209.849 C 967.778 224.858,850.173 261.541,758.459 307.649 C 679.608 347.291,570.635 418.349,573.266 428.409 C 575.624 437.427,649.931 569.452,753.140 748.000 C 875.420 959.541,928.749 1048.000,934.000 1048.000 C 940.894 1048.000,1083.252 806.301,1305.062 418.000 C 1401.819 248.618,1411.934 228.904,1404.457 224.282 C 1384.447 211.916,1133.351 201.015,1072.000 209.849 M1551.232 275.000 C 1540.967 286.962,1438.154 463.205,1267.137 762.000 L 1191.586 894.000 1212.793 896.604 C 1240.032 899.950,2108.953 900.813,2132.986 897.519 L 2151.089 895.037 2147.106 880.519 C 2140.614 856.855,2097.463 762.029,2073.453 718.661 C 2026.004 632.960,1974.437 566.852,1893.471 487.929 C 1807.023 403.663,1750.456 364.283,1623.244 299.807 C 1588.729 282.313,1559.758 268.000,1558.864 268.000 C 1557.971 268.000,1554.537 271.150,1551.232 275.000 M439.958 555.000 C 413.321 584.623,378.934 632.785,348.894 682.542 C 271.482 810.765,226.230 941.119,207.447 1090.000 C 197.848 1166.089,202.243 1308.768,216.349 1379.000 L 220.567 1400.000 592.284 1400.000 C 865.601 1400.000,964.000 1398.805,964.000 1395.487 C 964.000 1389.913,970.065 1400.624,788.760 1086.000 C 545.720 664.245,467.750 532.000,462.128 532.000 C 461.309 532.000,451.333 542.350,439.958 555.000 M1446.366 1027.000 C 1501.543 1125.958,1871.075 1763.191,1906.410 1820.315 C 1935.083 1866.667,1937.178 1868.180,1952.490 1853.610 C 1968.432 1838.441,2021.058 1767.086,2048.081 1724.000 C 2115.894 1615.877,2181.332 1432.608,2191.894 1321.228 C 2199.762 1238.255,2195.406 1077.994,2183.734 1021.000 L 2179.433 1000.000 1805.372 1000.000 L 1431.311 1000.000 1446.366 1027.000 M1444.480 1377.709 C 1408.417 1434.811,1091.019 1986.514,1031.243 2096.000 C 991.380 2169.012,990.915 2170.120,997.773 2175.811 C 1013.473 2188.841,1156.105 2202.435,1238.000 2198.706 C 1383.049 2192.101,1561.816 2142.290,1681.081 2075.246 C 1716.620 2055.268,1822.449 1985.746,1825.953 1980.075 C 1830.775 1972.274,1772.217 1866.566,1588.819 1552.000 C 1503.197 1405.139,1470.152 1352.000,1464.448 1352.000 C 1462.396 1352.000,1453.411 1363.569,1444.480 1377.709 M256.826 1502.846 C 245.891 1504.939,245.760 1504.342,270.713 1566.000 C 345.815 1751.574,489.023 1925.500,658.450 2036.906 C 733.355 2086.159,827.485 2131.242,844.285 2125.909 C 852.268 2123.376,866.845 2099.456,981.958 1900.000 C 1106.170 1684.779,1191.412 1534.385,1197.659 1519.433 L 1203.559 1505.312 894.779 1502.659 C 567.278 1499.845,272.050 1499.931,256.826 1502.846 " fill="#1D1E23" stroke="none" fill-rule="evenodd"/></svg>