<svg viewBox="0 0 2400 2400" fill="none" xmlns="http://www.w3.org/2000/svg"><path d="M1078.000 208.318 C 926.233 233.093,821.982 267.604,716.693 327.926 C 667.757 355.962,598.766 400.423,578.770 416.810 L 567.541 426.013 696.916 650.007 C 845.598 907.427,917.552 1030.148,927.645 1043.529 L 934.714 1052.901 950.731 1027.450 C 1005.038 941.159,1412.000 234.562,1412.000 226.561 C 1412.000 212.248,1143.699 197.593,1078.000 208.318 M1548.041 277.000 C 1544.805 281.950,1462.568 423.700,1365.292 592.000 L 1188.426 898.000 1668.864 899.016 C 1933.104 899.575,2150.159 899.174,2151.208 898.125 C 2155.289 894.044,2129.945 830.886,2098.188 766.000 C 2045.125 657.579,1992.107 583.538,1906.227 497.921 C 1819.536 411.496,1748.172 360.508,1634.426 303.729 C 1595.060 284.078,1560.843 268.000,1558.388 268.000 C 1555.933 268.000,1551.277 272.050,1548.041 277.000 M441.830 551.002 C 352.904 655.477,279.846 790.522,240.378 923.375 C 208.293 1031.378,196.575 1142.165,203.828 1268.944 C 207.128 1326.624,216.217 1393.550,221.462 1398.795 C 222.147 1399.481,390.450 1399.582,595.469 1399.021 L 968.230 1398.000 887.673 1258.000 C 546.061 664.311,468.537 531.999,462.297 532.002 C 459.934 532.003,450.723 540.553,441.830 551.002 M1436.467 1009.000 C 1453.824 1041.897,1847.342 1722.574,1893.765 1800.000 C 1938.687 1874.922,1937.396 1873.697,1952.762 1856.000 C 1979.808 1824.852,2035.463 1747.685,2057.269 1711.098 C 2121.917 1602.631,2170.813 1466.286,2190.493 1339.605 C 2202.093 1264.940,2198.304 1088.438,2183.633 1020.031 L 2179.337 1000.000 1805.528 1000.000 L 1431.719 1000.000 1436.467 1009.000 M1454.728 1360.925 C 1440.626 1379.751,1057.761 2044.336,1012.612 2128.360 C 1001.276 2149.457,992.000 2169.493,992.000 2172.883 C 992.000 2183.550,1115.307 2199.921,1196.025 2199.970 C 1351.127 2200.064,1539.933 2153.014,1670.872 2081.639 C 1709.069 2060.818,1819.476 1988.271,1827.284 1978.863 C 1831.257 1974.075,1805.765 1927.410,1685.608 1719.513 C 1522.728 1437.695,1472.817 1352.977,1467.863 1349.915 C 1466.025 1348.779,1460.114 1353.734,1454.728 1360.925 M249.776 1510.777 C 261.079 1556.819,321.854 1681.499,363.534 1744.152 C 471.354 1906.226,635.788 2045.414,802.000 2115.299 C 849.148 2135.123,845.107 2135.797,862.888 2105.135 C 1078.214 1733.820,1207.978 1506.645,1205.924 1504.590 C 1204.501 1503.165,988.165 1501.450,725.179 1500.777 L 247.021 1499.554 249.776 1510.777 " fill="#1D1E23" stroke="none" fill-rule="evenodd"/></svg>