<svg viewBox="0 0 2400 2400" fill="none" xmlns="http://www.w3.org/2000/svg"><path d="M948.226 204.362 C 925.327 208.852,877.848 231.478,860.432 246.199 C 852.969 252.507,818.026 289.242,782.781 327.834 L 718.699 398.000 538.349 400.055 C 360.202 402.085,357.707 402.227,334.000 411.623 C 266.056 438.554,218.217 493.036,204.420 559.197 C 198.181 589.114,198.181 1810.886,204.420 1840.803 C 220.053 1915.765,284.235 1979.947,359.197 1995.580 C 389.211 2001.839,2010.789 2001.839,2040.803 1995.580 C 2115.765 1979.947,2179.947 1915.765,2195.580 1840.803 C 2201.819 1810.886,2201.819 589.114,2195.580 559.197 C 2181.783 493.036,2133.944 438.554,2066.000 411.623 C 2042.293 402.227,2039.797 402.085,1861.676 400.055 L 1681.353 398.000 1612.952 323.735 C 1575.332 282.889,1537.677 244.728,1529.276 238.932 C 1506.839 223.454,1472.365 208.621,1448.161 204.031 C 1421.976 199.065,973.725 199.362,948.226 204.362 M1260.105 704.156 C 1336.866 713.569,1415.353 743.207,1482.372 788.090 C 1522.911 815.240,1584.760 877.089,1611.910 917.628 C 1711.754 1066.715,1727.114 1253.800,1652.365 1410.372 C 1584.134 1553.291,1467.853 1648.077,1313.096 1686.927 C 1249.752 1702.828,1150.248 1702.828,1086.904 1686.927 C 932.147 1648.077,815.866 1553.291,747.635 1410.372 C 672.886 1253.800,688.246 1066.715,788.090 917.628 C 815.240 877.089,877.089 815.240,917.628 788.090 C 1020.860 718.955,1140.889 689.538,1260.105 704.156 M1150.300 903.964 C 1120.176 909.428,1093.004 919.174,1059.611 936.494 C 923.107 1007.294,864.443 1170.310,923.365 1315.098 C 952.108 1385.729,1014.271 1447.892,1084.902 1476.635 C 1198.887 1523.022,1325.137 1497.837,1411.487 1411.487 C 1523.818 1299.157,1529.495 1121.211,1424.551 1002.000 C 1389.691 962.401,1327.638 923.933,1275.632 909.682 C 1249.082 902.406,1177.017 899.118,1150.300 903.964 " fill="#1D1E23" stroke="none" fill-rule="evenodd"/></svg>