<svg viewBox="0 0 2400 2400" fill="none" xmlns="http://www.w3.org/2000/svg"><path d="M1054.000 214.536 C 923.230 233.859,764.825 293.468,652.545 365.607 C 613.571 390.647,584.000 418.520,584.000 430.218 C 584.000 447.858,662.742 593.174,795.210 820.000 C 899.421 998.440,904.295 1004.978,933.588 1005.614 C 957.499 1006.133,965.079 998.396,1005.704 932.000 C 1095.821 784.718,1341.412 356.966,1372.674 292.841 C 1387.498 262.432,1388.424 258.680,1383.833 247.598 C 1381.080 240.951,1372.492 230.680,1364.748 224.774 L 1350.668 214.035 1208.334 213.399 C 1130.050 213.049,1060.600 213.561,1054.000 214.536 M1549.269 293.000 C 1512.072 334.203,1250.178 782.809,1230.101 839.715 C 1224.624 855.238,1224.666 858.195,1230.543 870.580 C 1234.118 878.113,1240.546 886.152,1244.828 888.443 C 1259.405 896.244,1417.458 899.749,1760.303 899.875 L 2102.605 900.000 2110.803 891.000 C 2138.350 860.756,2133.701 832.341,2086.373 741.667 C 2057.316 685.998,2016.994 623.223,1987.633 587.942 C 1955.602 549.453,1874.000 466.560,1838.656 436.607 C 1777.916 385.133,1680.567 324.755,1614.290 297.449 C 1575.825 281.602,1560.506 280.554,1549.269 293.000 M436.376 570.893 C 407.680 585.028,330.331 700.575,293.418 784.451 C 256.151 869.129,226.614 969.994,213.822 1056.255 C 210.418 1079.215,206.568 1136.700,205.267 1184.000 C 201.871 1307.497,211.285 1376.914,233.005 1388.538 C 247.571 1396.333,366.261 1399.653,636.644 1399.828 L 903.289 1400.000 914.136 1387.108 C 932.422 1365.377,933.454 1359.996,923.973 1335.824 C 900.174 1275.147,587.883 729.753,511.486 615.444 C 477.133 564.043,464.951 556.818,436.376 570.893 M1504.132 1007.601 C 1489.482 1009.568,1484.581 1012.504,1476.924 1023.900 C 1465.029 1041.604,1466.182 1046.634,1495.289 1104.000 C 1563.249 1237.940,1877.084 1777.472,1911.249 1819.100 C 1922.695 1833.047,1942.808 1839.174,1961.632 1834.450 C 1980.236 1829.780,2046.882 1734.341,2085.600 1656.924 C 2133.482 1561.182,2167.290 1459.349,2186.169 1354.000 C 2200.424 1274.455,2200.352 1104.242,2186.042 1053.274 C 2176.409 1018.966,2166.820 1010.997,2130.826 1007.386 C 2096.518 1003.945,1529.915 1004.139,1504.132 1007.601 M1438.699 1404.165 C 1425.528 1414.525,1385.476 1479.195,1274.059 1670.000 C 1091.766 1982.182,1014.667 2122.979,1014.667 2143.696 C 1014.667 2159.726,1025.956 2175.554,1042.244 2182.360 C 1062.023 2190.624,1120.702 2195.851,1194.576 2195.931 C 1298.549 2196.042,1382.348 2185.392,1465.682 2161.476 C 1632.439 2113.618,1823.688 2005.653,1814.251 1964.700 C 1809.472 1943.961,1761.241 1852.703,1678.655 1708.140 C 1535.989 1458.410,1506.978 1411.814,1488.076 1402.040 C 1471.731 1393.587,1451.013 1394.479,1438.699 1404.165 M526.651 1503.816 L 291.303 1506.000 281.680 1517.190 C 266.532 1534.805,265.923 1545.068,278.006 1579.140 C 309.199 1667.098,379.472 1779.359,452.894 1858.521 C 529.633 1941.260,605.232 2004.220,686.163 2052.789 C 765.486 2100.393,816.111 2122.847,833.995 2118.359 C 854.108 2113.311,904.220 2035.013,1047.928 1784.097 C 1137.383 1627.908,1167.513 1569.303,1170.745 1545.212 C 1172.597 1531.402,1171.170 1527.334,1160.026 1514.641 L 1147.171 1500.000 954.586 1500.816 C 848.664 1501.265,656.093 1502.615,526.651 1503.816 " fill="#1D1E23" stroke="none" fill-rule="evenodd"/></svg>