<svg viewBox="0 0 2400 2400" fill="none" xmlns="http://www.w3.org/2000/svg"><path d="M809.072 299.826 L 718.000 399.652 459.000 399.826 L 200.000 400.000 200.000 1200.000 L 200.000 2000.000 1200.000 2000.000 L 2200.000 2000.000 2200.000 1200.000 L 2200.000 400.000 1941.000 399.826 L 1682.000 399.652 1590.928 299.826 L 1499.855 200.000 1200.000 200.000 L 900.145 200.000 809.072 299.826 M1260.105 704.156 C 1336.866 713.569,1415.353 743.207,1482.372 788.090 C 1522.911 815.240,1584.760 877.089,1611.910 917.628 C 1711.754 1066.715,1727.114 1253.800,1652.365 1410.372 C 1584.134 1553.291,1467.853 1648.077,1313.096 1686.927 C 1249.752 1702.828,1150.248 1702.828,1086.904 1686.927 C 932.147 1648.077,815.866 1553.291,747.635 1410.372 C 672.886 1253.800,688.246 1066.715,788.090 917.628 C 815.240 877.089,877.089 815.240,917.628 788.090 C 1020.860 718.955,1140.889 689.538,1260.105 704.156 M1150.300 903.964 C 1120.176 909.428,1093.004 919.174,1059.611 936.494 C 923.107 1007.294,864.443 1170.310,923.365 1315.098 C 952.108 1385.729,1014.271 1447.892,1084.902 1476.635 C 1198.887 1523.022,1325.137 1497.837,1411.487 1411.487 C 1523.818 1299.157,1529.495 1121.211,1424.551 1002.000 C 1389.691 962.401,1327.638 923.933,1275.632 909.682 C 1249.082 902.406,1177.017 899.118,1150.300 903.964 " fill="#1D1E23" stroke="none" fill-rule="evenodd"/></svg>