<svg viewBox="0 0 2400 2400" fill="none" xmlns="http://www.w3.org/2000/svg"><path d="M1082.000 211.805 C 958.596 221.372,790.600 279.826,667.504 356.028 C 609.618 391.863,584.000 414.525,584.000 429.897 C 584.000 449.744,667.586 602.704,822.312 866.000 C 894.635 989.072,903.217 1001.282,919.692 1004.554 C 950.103 1010.593,959.127 1005.634,981.846 970.399 C 1021.017 909.649,1197.026 608.526,1298.884 428.000 C 1372.935 296.755,1389.071 264.810,1386.495 254.548 C 1382.985 240.562,1368.139 223.650,1354.294 217.865 C 1339.131 211.530,1142.116 207.145,1082.000 211.805 M1555.151 285.086 C 1529.322 305.748,1256.817 769.719,1231.725 835.756 C 1224.752 854.106,1224.542 857.553,1229.644 869.766 C 1232.767 877.240,1239.525 885.611,1244.661 888.366 C 1260.808 897.028,1413.812 900.155,1767.559 899.052 L 2105.119 898.000 2116.893 883.452 C 2126.078 872.104,2128.667 864.893,2128.667 850.659 C 2128.667 811.869,2069.015 696.850,2000.743 604.000 C 1974.104 567.771,1869.580 460.610,1828.000 426.899 C 1730.823 348.113,1576.579 267.945,1555.151 285.086 M433.859 571.434 C 402.172 590.757,326.632 706.316,290.690 790.449 C 228.114 936.925,203.863 1057.277,204.140 1219.975 C 204.325 1328.873,213.836 1381.490,234.852 1389.886 C 252.132 1396.790,364.919 1399.665,624.709 1399.827 L 903.418 1400.000 915.844 1385.000 C 922.679 1376.750,929.198 1366.374,930.332 1361.943 C 934.352 1346.234,898.903 1277.855,772.761 1058.000 C 580.093 722.195,502.642 593.480,481.402 573.796 C 468.630 561.959,450.844 561.076,433.859 571.434 M1636.649 1003.499 L 1491.299 1006.000 1481.678 1017.190 C 1466.019 1035.402,1465.972 1044.134,1481.350 1077.419 C 1521.067 1163.380,1864.820 1758.021,1907.157 1814.000 C 1921.612 1833.113,1923.226 1834.054,1943.548 1835.223 C 1963.675 1836.381,1965.598 1835.622,1979.447 1821.064 C 1994.383 1805.363,2042.095 1736.718,2061.045 1703.666 C 2114.011 1611.285,2155.781 1501.208,2177.616 1396.467 C 2193.814 1318.766,2197.823 1278.152,2197.599 1194.000 C 2197.260 1066.180,2186.350 1019.338,2154.498 1008.939 C 2135.453 1002.721,1853.789 999.762,1636.649 1003.499 M1449.572 1395.762 C 1444.936 1397.718,1435.523 1406.138,1428.653 1414.472 C 1407.151 1440.558,1233.273 1736.332,1093.842 1984.000 C 1038.186 2082.861,1018.353 2121.675,1014.130 2140.000 C 1011.136 2152.992,1023.777 2173.611,1039.824 2181.909 C 1056.294 2190.426,1116.204 2195.772,1196.576 2195.897 C 1366.073 2196.160,1492.006 2166.764,1650.000 2090.059 C 1743.321 2044.752,1808.194 1998.559,1814.655 1972.814 C 1818.157 1958.863,1781.412 1887.205,1680.917 1712.000 C 1532.437 1453.139,1510.290 1416.983,1491.878 1403.387 C 1479.735 1394.420,1460.826 1391.012,1449.572 1395.762 M472.650 1503.848 L 291.300 1506.000 281.678 1517.190 C 276.387 1523.344,270.924 1532.895,269.539 1538.413 C 262.078 1568.139,328.221 1699.997,397.364 1793.234 C 451.328 1866.005,548.846 1960.293,624.489 2012.836 C 707.259 2070.329,801.037 2119.727,827.796 2119.927 C 851.333 2120.103,883.664 2070.709,1050.293 1780.000 C 1181.395 1551.273,1184.837 1542.899,1159.586 1514.139 L 1147.171 1500.000 900.586 1500.848 C 764.964 1501.315,572.392 1502.665,472.650 1503.848 " fill="#1D1E23" stroke="none" fill-rule="evenodd"/></svg>