<svg viewBox="0 0 2400 2400" fill="none" xmlns="http://www.w3.org/2000/svg"><path d="M1014.000 207.819 C 897.632 211.106,903.907 207.637,770.000 342.710 L 714.000 399.198 554.195 401.728 C 466.302 403.119,381.702 406.037,366.195 408.212 C 305.286 416.755,249.494 461.030,213.597 529.309 L 199.239 556.619 201.114 1185.309 C 202.427 1625.143,204.346 1822.164,207.504 1841.176 C 209.986 1856.123,215.839 1875.923,220.509 1885.176 C 233.152 1910.225,293.394 1967.697,322.000 1982.000 L 346.000 1994.000 582.000 1996.587 C 941.372 2000.527,1891.958 2000.174,1979.513 1996.069 C 2052.455 1992.649,2058.353 1991.779,2079.513 1981.317 C 2105.950 1968.247,2161.463 1915.037,2177.504 1887.392 C 2184.676 1875.031,2189.736 1858.245,2192.577 1837.392 C 2195.385 1816.777,2197.522 1591.535,2198.801 1181.297 L 2200.749 556.595 2185.562 527.297 C 2166.313 490.164,2116.525 439.215,2081.655 420.969 L 2057.310 408.229 1955.655 404.168 C 1899.745 401.935,1816.426 400.083,1770.502 400.054 L 1687.003 400.000 1601.783 316.432 C 1489.954 206.771,1499.600 211.560,1382.517 207.580 C 1282.893 204.194,1139.039 204.288,1014.000 207.819 M1310.357 715.621 C 1366.063 729.309,1431.598 758.070,1478.000 789.192 C 1511.205 811.462,1584.220 883.962,1607.595 917.870 C 1642.074 967.888,1665.279 1019.428,1682.139 1083.438 C 1690.990 1117.042,1691.993 1128.717,1691.931 1197.438 C 1691.856 1279.581,1688.565 1303.596,1669.886 1358.296 C 1615.742 1516.858,1482.988 1640.669,1320.000 1684.612 C 1289.573 1692.815,1276.964 1693.785,1200.000 1693.845 C 1118.093 1693.908,1112.096 1693.382,1074.000 1682.785 C 1025.673 1669.343,963.106 1640.088,921.029 1611.259 C 881.257 1584.010,819.990 1522.743,792.741 1482.971 C 765.886 1443.776,735.655 1380.553,721.507 1334.000 C 711.438 1300.868,710.436 1291.382,708.933 1214.941 C 707.067 1120.049,711.128 1090.706,734.531 1030.020 C 783.624 902.712,871.376 807.517,992.399 750.278 C 1035.759 729.771,1089.766 713.197,1130.000 708.051 C 1174.964 702.301,1272.872 706.410,1310.357 715.621 M1100.000 920.949 C 1010.530 960.786,947.852 1023.033,919.793 1099.918 C 891.233 1178.173,897.013 1260.107,936.469 1336.295 C 965.205 1391.783,1012.058 1437.281,1070.000 1465.963 C 1116.275 1488.870,1147.123 1495.867,1202.160 1495.941 C 1253.255 1496.009,1281.652 1489.906,1322.113 1470.160 C 1405.617 1429.407,1470.272 1351.459,1489.799 1268.000 C 1497.345 1235.746,1497.510 1176.035,1490.166 1134.841 C 1477.346 1062.926,1421.239 988.921,1343.937 941.962 C 1299.240 914.810,1282.433 910.927,1202.000 909.167 L 1130.000 907.591 1100.000 920.949 " fill="#1D1E23" stroke="none" fill-rule="evenodd"/></svg>