<svg viewBox="0 0 2400 2400" fill="none" xmlns="http://www.w3.org/2000/svg"><path d="M1112.000 203.923 C 833.630 231.768,590.463 362.388,419.326 576.000 C 147.365 915.458,126.704 1391.677,368.248 1753.288 C 676.969 2215.470,1294.618 2338.595,1756.000 2029.929 C 2215.492 1722.528,2337.727 1104.086,2029.929 644.000 C 1872.846 409.198,1631.891 256.219,1349.288 211.869 C 1290.914 202.708,1165.973 198.524,1112.000 203.923 M1361.583 417.838 C 1656.952 477.644,1897.842 706.145,1973.860 998.627 C 1991.349 1065.915,1997.689 1119.490,1997.689 1200.000 C 1997.689 1335.910,1972.008 1445.356,1912.747 1562.000 C 1812.439 1759.439,1634.385 1906.348,1420.000 1968.556 C 1390.648 1977.073,1319.062 1992.000,1307.568 1992.000 C 1300.170 1992.000,1300.000 1974.255,1300.000 1200.000 C 1300.000 471.718,1300.523 408.000,1306.497 408.000 C 1310.071 408.000,1334.859 412.427,1361.583 417.838 " fill="#1D1E23" stroke="none" fill-rule="evenodd"/></svg>