<svg viewBox="0 0 2400 2400" fill="none" xmlns="http://www.w3.org/2000/svg"><path d="M500.000 300.000 L 500.000 500.000 300.000 500.000 L 100.000 500.000 100.000 600.000 L 100.000 700.000 300.000 700.000 L 500.000 700.000 500.000 1300.000 L 500.000 1900.000 1100.000 1900.000 L 1700.000 1900.000 1700.000 2100.000 L 1700.000 2300.000 1800.000 2300.000 L 1900.000 2300.000 1900.000 2100.000 L 1900.000 1900.000 2100.000 1900.000 L 2300.000 1900.000 2300.000 1800.000 L 2300.000 1700.000 1500.000 1700.000 L 700.000 1700.000 700.000 900.000 L 700.000 100.000 600.000 100.000 L 500.000 100.000 500.000 300.000 M900.000 600.000 L 900.000 700.000 1300.000 700.000 L 1700.000 700.000 1700.000 1100.000 L 1700.000 1500.000 1800.000 1500.000 L 1900.000 1500.000 1900.000 1000.000 L 1900.000 500.000 1400.000 500.000 L 900.000 500.000 900.000 600.000 " fill="#1D1E23" stroke="none" fill-rule="evenodd"/></svg>