<svg viewBox="0 0 2400 2400" fill="none" xmlns="http://www.w3.org/2000/svg"><path d="M562.026 110.293 C 537.992 122.825,524.379 136.425,513.310 158.967 L 502.000 182.000 500.715 341.000 L 499.430 500.000 430.715 500.178 C 392.922 500.276,317.255 501.872,262.567 503.724 L 163.134 507.093 146.679 518.658 C 137.628 525.019,124.773 537.978,118.112 547.456 C 106.846 563.486,106.000 567.154,106.000 600.000 C 106.000 632.798,106.854 636.518,118.000 652.275 C 124.600 661.605,136.728 674.657,144.951 681.279 C 159.378 692.898,161.830 693.428,214.951 696.425 C 245.228 698.133,321.564 699.636,384.586 699.765 L 499.171 700.000 500.930 1217.000 C 502.639 1719.617,502.909 1734.668,510.635 1758.000 C 530.253 1817.248,582.221 1869.960,639.382 1888.590 L 666.000 1897.265 1183.000 1899.056 L 1700.000 1900.847 1700.235 2015.424 C 1700.364 2078.441,1701.867 2154.772,1703.575 2185.049 C 1706.572 2238.170,1707.102 2240.622,1718.721 2255.049 C 1725.343 2263.272,1738.395 2275.400,1747.725 2282.000 C 1763.482 2293.146,1767.202 2294.000,1800.000 2294.000 C 1832.798 2294.000,1836.518 2293.146,1852.275 2282.000 C 1861.605 2275.400,1874.673 2263.252,1881.316 2255.004 C 1893.053 2240.429,1893.479 2238.403,1896.441 2183.004 C 1898.117 2151.652,1899.603 2075.321,1899.744 2013.380 L 1900.000 1900.760 2061.112 1899.380 L 2222.225 1898.000 2242.112 1887.767 C 2278.129 1869.236,2305.090 1820.591,2297.864 1787.177 C 2290.439 1752.843,2264.812 1719.486,2239.699 1711.469 C 2230.458 1708.519,2089.333 1705.934,1806.000 1703.524 C 1575.000 1701.560,1246.341 1698.602,1075.646 1696.951 L 765.292 1693.950 745.956 1681.975 C 712.161 1661.045,709.346 1651.480,706.290 1547.227 C 704.852 1498.152,701.927 1173.600,699.790 826.000 C 697.591 468.362,694.267 184.449,692.132 172.000 C 688.841 152.815,685.763 147.590,668.073 131.159 C 656.916 120.796,641.085 110.456,632.893 108.181 C 610.976 102.094,575.736 103.144,562.026 110.293 M900.000 599.489 L 900.000 700.000 1073.000 700.288 C 1168.150 700.446,1332.400 701.962,1438.000 703.657 C 1646.989 707.010,1646.700 706.976,1668.788 730.507 C 1690.706 753.858,1692.555 764.459,1696.234 887.867 C 1698.106 950.640,1699.719 1114.050,1699.818 1251.000 L 1700.000 1500.000 1800.000 1500.000 L 1900.000 1500.000 1900.000 1078.463 L 1900.000 656.926 1884.117 625.463 C 1858.305 574.332,1826.444 543.496,1770.000 515.016 L 1750.000 504.925 1325.000 501.951 L 900.000 498.977 900.000 599.489 " fill="#1D1E23" stroke="none" fill-rule="evenodd"/></svg>