<svg viewBox="0 0 2400 2400" fill="none" xmlns="http://www.w3.org/2000/svg"><path d="M572.308 104.611 C 545.306 110.920,510.552 147.189,504.509 175.368 C 501.613 188.871,500.000 250.568,500.000 347.821 L 500.000 499.247 337.000 500.777 C 155.854 502.477,157.782 502.205,130.979 529.803 C 109.641 551.775,102.239 569.854,102.239 600.000 C 102.239 630.146,109.641 648.225,130.979 670.197 C 158.125 698.147,155.670 697.801,337.000 699.253 L 500.000 700.559 500.216 1197.279 C 500.334 1470.476,501.904 1708.037,503.703 1725.194 C 512.829 1812.196,587.804 1887.171,674.806 1896.297 C 691.963 1898.096,929.524 1899.666,1202.721 1899.784 L 1699.441 1900.000 1700.747 2063.000 C 1702.199 2244.330,1701.853 2241.875,1729.803 2269.021 C 1751.775 2290.359,1769.854 2297.761,1800.000 2297.761 C 1830.146 2297.761,1848.225 2290.359,1870.197 2269.021 C 1898.147 2241.875,1897.801 2244.330,1899.253 2063.000 L 1900.559 1900.000 2047.279 1899.977 C 2127.976 1899.964,2204.613 1898.216,2217.586 1896.091 C 2245.319 1891.550,2263.433 1880.306,2279.976 1857.365 C 2305.937 1821.366,2305.023 1776.812,2277.556 1739.395 C 2261.779 1717.903,2253.871 1712.479,2230.000 1706.778 C 2220.380 1704.481,1928.481 1701.829,1498.000 1700.127 C 955.289 1697.982,777.644 1696.118,764.000 1692.425 C 746.348 1687.647,723.629 1669.841,714.971 1654.000 C 712.567 1649.600,708.880 1638.800,706.778 1630.000 C 704.482 1620.383,701.814 1328.341,700.091 898.000 C 697.900 350.973,696.059 177.517,692.289 163.003 C 687.164 143.277,669.141 124.677,641.626 110.719 C 625.011 102.290,593.954 99.554,572.308 104.611 M900.000 599.400 L 900.000 700.000 1229.000 700.174 C 1409.950 700.270,1576.530 701.884,1599.177 703.760 C 1646.167 707.653,1664.120 716.263,1682.197 743.580 C 1697.879 767.278,1699.799 814.259,1699.905 1177.000 L 1700.000 1500.000 1800.171 1500.000 L 1900.343 1500.000 1899.171 1079.000 L 1898.000 658.000 1888.375 634.000 C 1867.085 580.917,1834.427 545.971,1781.697 519.850 L 1747.800 503.058 1323.900 500.929 L 900.000 498.799 900.000 599.400 " fill="#1D1E23" stroke="none" fill-rule="evenodd"/></svg>