<svg viewBox="0 0 2400 2400" fill="none" xmlns="http://www.w3.org/2000/svg"><path d="M567.409 109.564 C 541.080 118.969,521.947 138.027,508.017 168.720 C 500.660 184.932,500.170 195.705,500.088 343.000 L 500.000 500.000 439.000 500.104 C 405.450 500.161,329.445 501.932,270.100 504.041 L 162.201 507.874 146.448 519.285 C 137.784 525.561,125.139 538.366,118.348 547.742 C 106.794 563.692,106.000 567.033,106.000 599.736 C 106.000 631.863,106.946 636.049,117.714 651.587 C 133.061 673.732,148.803 686.659,167.124 692.157 C 176.369 694.932,242.182 697.471,341.000 698.865 L 500.000 701.108 500.333 1123.554 C 500.516 1355.899,501.896 1592.055,503.401 1648.345 L 506.136 1750.690 521.475 1781.726 C 542.454 1824.174,575.886 1857.730,617.698 1878.307 C 648.135 1893.286,651.479 1894.014,701.698 1896.587 C 730.464 1898.060,966.609 1899.431,1226.465 1899.633 L 1698.930 1900.000 1701.119 2059.000 C 1702.495 2158.885,1704.981 2223.531,1707.808 2232.876 C 1713.355 2251.214,1726.291 2266.956,1748.413 2282.286 C 1763.927 2293.038,1768.165 2294.000,1800.000 2294.000 C 1831.835 2294.000,1836.073 2293.038,1851.587 2282.286 C 1873.755 2266.924,1886.672 2251.180,1892.123 2232.876 C 1894.847 2223.729,1897.437 2156.761,1898.848 2059.000 L 1901.143 1900.000 2059.309 1900.000 C 2211.291 1900.000,2218.146 1899.675,2234.649 1891.686 C 2257.818 1880.470,2285.897 1848.395,2294.060 1823.821 C 2302.455 1798.544,2299.450 1779.399,2282.704 1751.461 C 2265.201 1722.262,2250.836 1713.538,2215.123 1710.421 C 2187.573 1708.016,1810.710 1703.702,1088.804 1697.529 L 767.609 1694.783 747.115 1682.391 C 713.650 1662.156,711.752 1655.630,707.731 1546.956 C 705.839 1495.830,702.406 1181.300,700.103 848.000 C 697.799 514.700,694.791 224.000,693.417 202.000 C 690.543 155.977,686.483 145.807,663.819 127.856 C 634.864 104.924,599.291 98.174,567.409 109.564 M900.000 599.678 L 900.000 700.000 1045.000 700.144 C 1283.011 700.381,1611.944 706.973,1634.000 711.948 C 1655.189 716.728,1672.608 730.136,1682.674 749.414 C 1693.116 769.413,1695.841 842.281,1698.589 1175.000 L 1701.272 1500.000 1800.636 1500.000 L 1900.000 1500.000 1900.000 1077.867 L 1900.000 655.734 1889.522 634.867 C 1862.492 581.036,1829.993 547.813,1776.000 518.814 L 1750.000 504.850 1325.000 502.103 L 900.000 499.356 900.000 599.678 " fill="#1D1E23" stroke="none" fill-rule="evenodd"/></svg>