<svg viewBox="0 0 2400 2400" fill="none" xmlns="http://www.w3.org/2000/svg"><path d="M549.579 117.000 C 524.663 133.760,509.080 156.527,504.028 183.546 C 501.788 195.527,500.000 270.277,500.000 351.922 L 500.000 498.751 341.000 501.302 C 253.550 502.705,175.016 505.549,166.480 507.622 C 148.210 512.060,122.894 535.075,111.073 557.994 C 99.736 579.973,99.736 620.027,111.073 642.006 C 121.950 663.094,147.058 687.003,164.228 692.623 C 173.092 695.524,235.307 697.788,338.793 698.973 L 499.587 700.815 500.938 1217.407 C 502.208 1702.739,502.727 1735.331,509.519 1756.000 C 520.427 1789.196,537.041 1815.555,562.782 1840.504 C 589.005 1865.920,611.917 1880.024,644.000 1890.499 C 664.611 1897.228,698.611 1897.769,1182.593 1899.060 L 1699.185 1900.438 1701.027 2061.219 C 1702.212 2164.696,1704.476 2226.909,1707.377 2235.772 C 1712.950 2252.801,1736.856 2278.024,1757.532 2288.692 C 1778.920 2299.727,1821.080 2299.727,1842.468 2288.692 C 1863.144 2278.024,1887.050 2252.801,1892.623 2235.772 C 1895.524 2226.909,1897.787 2164.722,1898.972 2061.314 L 1900.813 1900.628 2061.407 1899.314 C 2214.395 1898.062,2222.852 1897.604,2240.000 1889.641 C 2264.504 1878.261,2285.876 1853.443,2294.367 1826.504 C 2300.344 1807.542,2300.661 1801.265,2296.563 1782.954 C 2290.479 1755.769,2268.685 1723.135,2251.013 1714.749 C 2242.110 1710.524,2221.008 1707.503,2189.718 1705.973 C 2163.473 1704.690,1836.000 1701.928,1462.000 1699.835 C 1073.938 1697.664,775.356 1694.441,766.523 1692.329 C 746.250 1687.480,723.965 1669.388,714.070 1649.743 C 706.499 1634.711,706.019 1622.354,703.454 1376.000 C 701.977 1234.100,700.409 967.700,699.970 784.000 C 699.531 600.300,698.009 385.200,696.586 306.000 C 694.071 165.973,693.752 161.601,685.017 147.556 C 675.604 132.419,653.827 115.383,634.740 108.224 C 628.546 105.901,611.200 104.000,596.192 104.000 C 572.037 104.000,566.686 105.492,549.579 117.000 M900.000 598.853 L 900.000 699.015 1255.000 701.205 C 1501.559 702.726,1615.754 704.798,1628.838 707.987 C 1655.226 714.419,1671.950 726.938,1683.099 748.603 C 1691.700 765.317,1693.029 774.869,1696.182 842.603 C 1698.112 884.072,1699.760 1048.950,1699.845 1209.000 L 1700.000 1500.000 1800.054 1500.000 L 1900.108 1500.000 1899.054 1077.000 L 1898.000 654.000 1883.065 622.721 C 1862.098 578.810,1829.488 545.710,1784.097 522.267 L 1749.166 504.226 1324.583 501.458 L 900.000 498.691 900.000 598.853 " fill="#1D1E23" stroke="none" fill-rule="evenodd"/></svg>