<svg viewBox="0 0 2400 2400" fill="none" xmlns="http://www.w3.org/2000/svg"><path d="M1575.008 450.982 L 1384.026 641.964 1288.004 546.004 L 1191.983 450.045 1121.019 521.009 L 1050.056 591.972 1121.011 663.010 L 1191.966 734.047 745.983 1180.017 L 300.000 1625.987 300.000 1862.993 L 300.000 2100.000 537.007 2100.000 L 774.013 2100.000 1219.983 1654.017 L 1665.953 1208.034 1736.990 1278.989 L 1808.028 1349.944 1878.991 1278.981 L 1949.955 1208.017 1854.001 1112.001 L 1758.047 1015.984 1950.008 823.992 L 2141.968 632.001 1956.000 446.000 C 1853.718 343.700,1769.123 260.000,1768.011 260.000 C 1766.899 260.000,1680.048 345.942,1575.008 450.982 M1404.015 998.015 L 1497.966 1092.029 1094.997 1494.998 L 692.029 1897.966 596.002 1802.002 L 499.976 1706.039 900.981 1305.019 C 1121.533 1084.459,1303.803 904.000,1306.024 904.000 C 1308.246 904.000,1352.342 946.307,1404.015 998.015 " fill="#1D1E23" stroke="none" fill-rule="evenodd"/></svg>