<svg viewBox="0 0 2400 2400" fill="none" xmlns="http://www.w3.org/2000/svg"><path d="M1729.962 309.559 C 1715.524 315.851,1648.816 378.881,1497.292 529.401 L 1384.585 641.363 1335.292 594.035 C 1262.459 524.104,1238.670 505.438,1215.201 499.808 C 1166.029 488.012,1121.068 510.620,1099.469 558.000 C 1080.428 599.771,1095.526 634.064,1164.696 706.152 L 1191.708 734.305 745.854 1180.146 L 300.000 1625.987 300.000 1848.181 L 300.000 2070.376 315.169 2085.188 L 330.337 2100.000 550.926 2100.000 L 771.514 2100.000 1174.757 1699.284 C 1396.541 1478.890,1598.052 1278.867,1622.560 1254.788 L 1667.119 1211.009 1699.991 1241.750 C 1748.635 1287.241,1771.356 1301.154,1800.440 1303.257 C 1842.271 1306.283,1875.900 1287.718,1894.277 1251.454 C 1922.106 1196.536,1911.468 1174.073,1805.675 1064.342 L 1759.103 1016.037 1888.242 885.019 C 2047.475 723.467,2086.604 680.019,2092.498 658.215 C 2099.245 633.253,2094.549 603.144,2080.792 583.166 C 2063.922 558.667,1953.416 441.409,1899.610 390.913 C 1844.916 339.585,1812.221 314.531,1792.040 308.485 C 1772.296 302.569,1744.915 303.043,1729.962 309.559 M1403.749 997.748 L 1497.433 1091.497 1412.971 1178.748 C 1366.517 1226.737,1185.736 1408.655,1011.234 1583.011 L 693.959 1900.022 597.999 1803.999 L 502.039 1707.976 904.012 1305.988 C 1125.097 1084.895,1306.903 904.000,1308.024 904.000 C 1309.146 904.000,1352.222 946.187,1403.749 997.748 " fill="#1D1E23" stroke="none" fill-rule="evenodd"/></svg>