<svg viewBox="0 0 2400 2400" fill="none" xmlns="http://www.w3.org/2000/svg"><path d="M1734.000 306.115 C 1725.200 309.286,1717.150 311.907,1716.112 311.940 C 1715.074 311.973,1639.944 386.201,1549.157 476.891 L 1384.089 641.781 1317.045 575.372 C 1280.170 538.847,1243.947 505.895,1236.550 502.146 C 1217.870 492.678,1183.903 489.867,1162.064 495.982 C 1139.487 502.303,1109.302 528.296,1099.514 549.845 C 1095.036 559.704,1092.141 575.437,1092.088 590.215 C 1091.960 625.414,1103.969 646.237,1151.919 693.959 L 1192.068 733.918 747.034 1178.966 L 302.000 1624.013 302.000 1847.930 L 302.000 2071.846 315.075 2084.923 L 328.149 2098.000 543.075 2099.142 C 661.284 2099.769,762.500 2099.217,768.000 2097.913 C 774.243 2096.434,944.838 1928.800,1222.050 1651.746 L 1666.099 1207.949 1706.050 1248.406 C 1731.981 1274.666,1753.018 1292.207,1766.000 1298.393 C 1816.904 1322.646,1877.420 1299.602,1899.870 1247.415 C 1910.563 1222.560,1909.807 1191.103,1897.915 1166.000 C 1893.603 1156.899,1861.892 1121.051,1824.371 1082.861 L 1758.408 1015.723 1920.781 852.861 C 2010.086 763.288,2086.429 683.700,2090.433 676.000 C 2100.642 656.369,2100.587 611.397,2090.330 590.000 C 2085.501 579.928,2035.853 527.021,1956.330 447.204 C 1851.731 342.219,1826.216 318.659,1808.000 310.243 C 1783.010 298.697,1758.402 297.324,1734.000 306.115 M1402.969 996.968 C 1454.136 1048.101,1496.000 1091.754,1496.000 1093.976 C 1496.000 1096.197,1315.541 1278.467,1094.981 1499.019 L 693.961 1900.024 598.000 1804.000 L 502.039 1707.976 904.012 1305.988 C 1125.097 1084.895,1306.874 904.000,1307.961 904.000 C 1309.048 904.000,1351.802 945.836,1402.969 996.968 " fill="#1D1E23" stroke="none" fill-rule="evenodd"/></svg>