<svg viewBox="0 0 2400 2400" fill="none" xmlns="http://www.w3.org/2000/svg"><path d="M1734.000 306.552 C 1715.565 312.078,1701.113 325.412,1549.289 476.967 L 1384.578 641.386 1316.403 575.203 C 1278.907 538.802,1242.306 506.209,1235.066 502.774 C 1216.065 493.757,1184.434 490.498,1165.475 495.603 C 1144.923 501.137,1115.520 523.360,1103.923 542.125 C 1098.208 551.372,1094.315 565.517,1093.010 581.777 C 1089.974 619.589,1101.734 641.949,1151.623 693.226 L 1191.648 734.365 745.824 1180.176 L 300.000 1625.987 300.000 1848.181 L 300.000 2070.376 315.169 2085.188 L 330.337 2100.000 549.201 2100.000 L 768.064 2100.000 913.032 1958.331 C 992.764 1880.413,1194.696 1679.812,1361.770 1512.552 L 1665.539 1208.441 1707.870 1249.338 C 1731.151 1271.831,1757.355 1293.635,1766.100 1297.791 C 1851.433 1338.346,1941.721 1243.068,1894.429 1162.371 C 1889.010 1153.125,1856.348 1116.387,1821.845 1080.730 L 1759.113 1015.898 1915.209 858.138 C 2001.061 771.370,2076.200 693.960,2082.182 686.117 C 2102.387 659.626,2103.260 605.859,2083.892 580.743 C 2066.426 558.093,1899.939 388.682,1858.337 351.227 C 1801.920 300.434,1780.312 292.670,1734.000 306.552 M1403.732 997.986 L 1496.948 1091.972 1440.728 1150.986 C 1409.808 1183.444,1229.135 1365.255,1039.234 1555.011 L 693.960 1900.023 597.999 1803.999 L 502.039 1707.976 904.012 1305.988 C 1125.097 1084.895,1307.004 904.000,1308.250 904.000 C 1309.496 904.000,1352.463 946.294,1403.732 997.986 " fill="#1D1E23" stroke="none" fill-rule="evenodd"/></svg>