<svg viewBox="0 0 2400 2400" fill="none" xmlns="http://www.w3.org/2000/svg"><path d="M1742.257 304.292 C 1733.599 306.432,1720.099 312.983,1712.257 318.849 C 1704.416 324.714,1627.442 399.621,1541.204 485.308 L 1384.409 641.103 1321.780 580.801 C 1287.335 547.636,1252.536 515.916,1244.451 510.312 C 1227.579 498.620,1193.986 491.059,1174.991 494.679 C 1137.158 501.889,1103.240 532.085,1095.842 565.143 C 1085.615 610.843,1097.558 637.161,1155.885 697.453 L 1191.621 734.393 745.810 1180.190 L 300.000 1625.987 300.000 1848.181 L 300.000 2070.376 315.169 2085.188 L 330.337 2100.000 550.826 2100.000 L 771.315 2100.000 1218.684 1654.527 L 1666.052 1209.053 1705.529 1246.653 C 1757.998 1296.627,1774.298 1306.044,1808.000 1305.852 C 1859.112 1305.561,1900.818 1267.860,1906.528 1216.785 C 1910.778 1178.768,1898.684 1160.301,1808.572 1067.201 L 1759.144 1016.135 1920.107 853.067 C 2036.796 734.854,2083.234 685.192,2088.935 672.519 C 2100.164 647.561,2099.514 612.552,2087.400 589.799 C 2076.765 569.824,1931.376 417.927,1868.681 361.290 C 1845.955 340.760,1819.709 319.479,1810.357 313.998 C 1790.647 302.447,1764.686 298.747,1742.257 304.292 M1432.976 1158.732 C 1397.519 1195.729,1216.735 1377.655,1031.234 1563.011 L 693.960 1900.022 597.987 1803.987 L 502.014 1707.952 905.023 1305.002 L 1308.031 902.052 1402.737 996.758 L 1497.443 1091.464 1432.976 1158.732 " fill="#1D1E23" stroke="none" fill-rule="evenodd"/></svg>