<svg viewBox="0 0 2400 2400" fill="none" xmlns="http://www.w3.org/2000/svg"><path d="M1723.388 312.073 C 1715.352 316.319,1635.596 392.150,1546.152 480.586 L 1383.528 641.379 1344.764 603.457 C 1277.233 537.393,1247.401 511.344,1230.463 503.652 C 1208.707 493.772,1171.214 493.753,1150.000 503.611 C 1117.634 518.652,1092.000 556.791,1092.000 589.906 C 1092.000 620.241,1108.001 646.776,1157.931 699.244 L 1191.497 734.516 745.749 1180.251 L 300.000 1625.987 300.000 1848.181 L 300.000 2070.376 315.169 2085.188 L 330.337 2100.000 550.898 2100.000 L 771.458 2100.000 1217.263 1656.000 C 1462.456 1411.800,1664.695 1212.000,1666.684 1212.000 C 1668.673 1212.000,1679.233 1221.121,1690.150 1232.269 C 1727.431 1270.337,1763.216 1296.969,1784.509 1302.492 C 1834.474 1315.453,1886.957 1285.407,1901.828 1235.330 C 1909.759 1208.624,1909.505 1197.670,1900.497 1178.000 C 1890.205 1155.524,1869.134 1130.088,1809.974 1068.721 L 1758.611 1015.443 1868.585 904.721 C 2025.012 747.233,2080.229 688.311,2088.552 670.000 C 2097.266 650.829,2098.145 616.878,2090.408 598.360 C 2083.305 581.360,2045.300 538.253,1961.987 452.702 C 1889.974 378.754,1838.020 332.059,1808.813 315.033 C 1785.067 301.190,1746.517 299.854,1723.388 312.073 M1403.746 997.745 L 1497.427 1091.491 1424.968 1166.745 C 1385.116 1208.135,1204.336 1390.055,1023.234 1571.011 L 693.960 1900.022 597.999 1803.999 L 502.039 1707.976 904.012 1305.988 C 1125.097 1084.895,1306.903 904.000,1308.024 904.000 C 1309.146 904.000,1352.221 946.185,1403.746 997.745 " fill="#1D1E23" stroke="none" fill-rule="evenodd"/></svg>