<svg viewBox="0 0 2400 2400" fill="none" xmlns="http://www.w3.org/2000/svg"><path d="M1575.008 450.982 L 1384.026 641.964 1288.004 546.004 L 1191.983 450.045 1121.019 521.009 L 1050.056 591.972 1121.011 663.010 L 1191.966 734.047 745.983 1180.017 L 300.000 1625.987 300.000 1862.993 L 300.000 2100.000 537.007 2100.000 L 774.013 2100.000 1219.983 1654.017 L 1665.953 1208.034 1736.990 1278.989 L 1808.028 1349.944 1878.991 1278.981 L 1949.955 1208.017 1854.001 1112.001 L 1758.047 1015.984 1950.008 823.992 L 2141.968 632.001 1956.000 446.000 C 1853.718 343.700,1769.123 260.000,1768.011 260.000 C 1766.899 260.000,1680.048 345.942,1575.008 450.982 M1431.976 1025.749 L 1497.952 1092.043 1094.980 1495.015 L 692.008 1897.987 595.931 1801.910 L 499.854 1705.833 901.790 1304.369 L 1303.726 902.905 1334.863 931.180 C 1351.988 946.731,1395.689 989.287,1431.976 1025.749 " fill="#1D1E23" stroke="none" fill-rule="evenodd"/></svg>