<svg viewBox="0 0 2400 2400" fill="none" xmlns="http://www.w3.org/2000/svg"><path d="M368.000 202.651 C 347.315 205.998,309.269 221.527,289.052 234.877 C 247.077 262.593,214.625 310.264,204.420 359.197 C 198.161 389.211,198.161 2010.789,204.420 2040.803 C 220.053 2115.765,284.235 2179.947,359.197 2195.580 C 389.211 2201.839,2010.789 2201.839,2040.803 2195.580 C 2115.765 2179.947,2179.947 2115.765,2195.580 2040.803 C 2201.839 2010.789,2201.839 389.211,2195.580 359.197 C 2181.788 293.062,2134.082 238.710,2066.000 211.568 L 2042.000 202.000 1210.000 201.517 C 752.400 201.251,373.500 201.762,368.000 202.651 M800.000 600.000 L 800.000 800.000 600.000 800.000 L 400.000 800.000 400.000 642.713 C 400.000 463.690,400.639 459.151,429.967 429.823 C 458.753 401.036,461.354 400.673,641.000 400.316 L 800.000 400.000 800.000 600.000 M1400.000 600.000 L 1400.000 800.000 1200.000 800.000 L 1000.000 800.000 1000.000 600.000 L 1000.000 400.000 1200.000 400.000 L 1400.000 400.000 1400.000 600.000 M1934.017 406.625 C 1945.651 410.589,1960.290 420.080,1970.465 430.255 C 1999.033 458.822,2000.000 465.845,2000.000 644.726 L 2000.000 800.000 1800.000 800.000 L 1600.000 800.000 1600.000 600.000 L 1600.000 400.000 1757.287 400.000 C 1893.198 400.000,1917.217 400.900,1934.017 406.625 M800.000 1200.000 L 800.000 1400.000 600.000 1400.000 L 400.000 1400.000 400.000 1200.000 L 400.000 1000.000 600.000 1000.000 L 800.000 1000.000 800.000 1200.000 M1400.000 1200.000 L 1400.000 1400.000 1200.000 1400.000 L 1000.000 1400.000 1000.000 1200.000 L 1000.000 1000.000 1200.000 1000.000 L 1400.000 1000.000 1400.000 1200.000 M2000.000 1200.000 L 2000.000 1400.000 1800.000 1400.000 L 1600.000 1400.000 1600.000 1200.000 L 1600.000 1000.000 1800.000 1000.000 L 2000.000 1000.000 2000.000 1200.000 M800.000 1800.000 L 800.000 2000.000 642.713 2000.000 C 463.765 2000.000,459.140 1999.350,429.895 1970.105 C 400.650 1940.860,400.000 1936.235,400.000 1757.287 L 400.000 1600.000 600.000 1600.000 L 800.000 1600.000 800.000 1800.000 M1400.000 1800.000 L 1400.000 2000.000 1200.000 2000.000 L 1000.000 2000.000 1000.000 1800.000 L 1000.000 1600.000 1200.000 1600.000 L 1400.000 1600.000 1400.000 1800.000 M2000.000 1755.274 C 2000.000 1934.155,1999.033 1941.178,1970.465 1969.745 C 1940.806 1999.404,1936.607 2000.000,1757.287 2000.000 L 1600.000 2000.000 1600.000 1800.000 L 1600.000 1600.000 1800.000 1600.000 L 2000.000 1600.000 2000.000 1755.274 " fill="#1D1E23" stroke="none" fill-rule="evenodd"/></svg>