<svg viewBox="0 0 2400 2400" fill="none" xmlns="http://www.w3.org/2000/svg"><path d="M702.000 207.857 L 338.000 210.000 310.000 225.670 C 273.810 245.923,237.762 282.694,220.408 317.059 L 206.816 343.975 203.638 424.988 C 199.504 530.349,199.495 1869.429,203.627 1974.728 C 206.662 2052.069,207.271 2056.432,218.140 2078.728 C 233.663 2110.573,289.747 2166.478,322.000 2182.258 L 346.000 2194.000 584.000 2196.622 C 941.585 2200.561,1891.231 2200.208,1978.737 2196.104 C 2050.911 2192.718,2056.858 2191.835,2078.737 2181.252 C 2105.846 2168.140,2161.202 2115.671,2177.275 2087.853 C 2184.368 2075.577,2189.237 2058.751,2192.323 2035.853 C 2195.559 2011.839,2197.443 1762.966,2198.803 1179.578 L 2200.720 357.156 2189.882 335.578 C 2162.494 281.051,2130.768 248.498,2075.668 218.389 L 2049.336 204.000 1557.668 204.857 C 1287.251 205.328,902.200 206.678,702.000 207.857 M800.000 600.000 L 800.000 800.000 600.000 800.000 L 400.000 800.000 400.056 703.000 C 400.129 577.686,405.909 476.749,414.138 457.052 C 422.667 436.639,434.757 424.371,455.553 415.025 C 475.862 405.898,549.451 401.684,707.000 400.625 L 800.000 400.000 800.000 600.000 M1400.000 600.000 L 1400.000 800.000 1200.000 800.000 L 1000.000 800.000 1000.000 600.000 L 1000.000 400.000 1200.000 400.000 L 1400.000 400.000 1400.000 600.000 M1944.258 413.899 C 1963.884 426.607,1983.918 447.262,1988.624 459.641 C 1992.654 470.240,1999.604 646.787,1999.858 745.000 L 2000.000 800.000 1800.000 800.000 L 1600.000 800.000 1600.000 599.495 L 1600.000 398.989 1765.000 401.828 C 1928.227 404.637,1930.153 404.766,1944.258 413.899 M800.000 1200.000 L 800.000 1400.000 600.000 1400.000 L 400.000 1400.000 400.000 1200.000 L 400.000 1000.000 600.000 1000.000 L 800.000 1000.000 800.000 1200.000 M1400.000 1200.000 L 1400.000 1400.000 1200.000 1400.000 L 1000.000 1400.000 1000.000 1200.000 L 1000.000 1000.000 1200.000 1000.000 L 1400.000 1000.000 1400.000 1200.000 M2000.000 1200.000 L 2000.000 1400.000 1800.000 1400.000 L 1600.000 1400.000 1600.000 1200.000 L 1600.000 1000.000 1800.000 1000.000 L 2000.000 1000.000 2000.000 1200.000 M800.000 1800.000 L 800.000 2000.000 679.000 1999.744 C 532.823 1999.434,470.941 1995.818,453.020 1986.537 C 445.881 1982.840,433.110 1971.048,424.640 1960.333 C 409.934 1941.728,409.128 1939.167,406.727 1903.426 C 405.345 1882.842,402.985 1806.150,401.484 1733.000 L 398.754 1600.000 599.377 1600.000 L 800.000 1600.000 800.000 1800.000 M1400.000 1800.000 L 1400.000 2000.000 1200.000 2000.000 L 1000.000 2000.000 1000.000 1800.000 L 1000.000 1600.000 1200.000 1600.000 L 1400.000 1600.000 1400.000 1800.000 M1999.972 1649.000 C 1999.957 1675.950,1998.134 1751.100,1995.922 1816.000 L 1991.899 1934.000 1976.510 1956.000 C 1968.046 1968.100,1955.290 1981.420,1948.164 1985.600 C 1930.657 1995.869,1873.605 1999.421,1721.000 1999.744 L 1600.000 2000.000 1600.000 1800.000 L 1600.000 1600.000 1800.000 1600.000 L 2000.000 1600.000 1999.972 1649.000 " fill="#1D1E23" stroke="none" fill-rule="evenodd"/></svg>