<svg viewBox="0 0 2400 2400" fill="none" xmlns="http://www.w3.org/2000/svg"><path d="M366.000 207.647 C 307.271 212.583,250.401 255.641,219.376 318.662 C 207.141 343.514,206.279 348.230,203.514 405.471 C 199.701 484.398,199.701 1915.602,203.514 1994.529 C 206.304 2052.274,207.057 2056.321,219.887 2082.529 C 238.100 2119.729,280.324 2161.926,317.593 2180.173 C 344.320 2193.258,347.210 2193.771,409.593 2196.511 C 498.408 2200.412,1906.202 2200.303,1988.874 2196.389 C 2053.486 2193.330,2056.665 2192.774,2082.874 2179.943 C 2119.272 2162.124,2162.026 2119.473,2179.717 2083.332 C 2191.926 2058.392,2193.011 2052.693,2196.479 1995.332 C 2198.604 1960.171,2199.720 1596.904,2199.093 1144.000 L 2198.000 354.000 2183.065 322.721 C 2162.058 278.727,2129.502 245.717,2083.878 222.154 L 2048.729 204.000 1221.365 204.647 C 766.314 205.002,381.400 206.352,366.000 207.647 M800.000 600.000 L 800.000 800.000 600.000 800.000 L 400.000 800.000 400.231 677.000 C 400.541 511.789,403.674 470.084,417.558 446.394 C 424.242 434.988,435.039 424.212,446.529 417.479 C 469.574 403.973,503.647 401.480,677.000 400.614 L 800.000 400.000 800.000 600.000 M1400.000 600.000 L 1400.000 800.000 1200.000 800.000 L 1000.000 800.000 1000.000 600.000 L 1000.000 400.000 1200.000 400.000 L 1400.000 400.000 1400.000 600.000 M1945.515 413.504 C 1969.522 427.574,1990.470 452.801,1993.382 471.151 C 1994.678 479.318,1996.985 556.650,1998.509 643.000 L 2001.280 800.000 1800.640 800.000 L 1600.000 800.000 1600.000 599.405 L 1600.000 398.809 1763.850 400.937 L 1927.701 403.064 1945.515 413.504 M800.000 1200.000 L 800.000 1400.000 600.000 1400.000 L 400.000 1400.000 400.000 1200.000 L 400.000 1000.000 600.000 1000.000 L 800.000 1000.000 800.000 1200.000 M1400.000 1200.000 L 1400.000 1400.000 1200.000 1400.000 L 1000.000 1400.000 1000.000 1200.000 L 1000.000 1000.000 1200.000 1000.000 L 1400.000 1000.000 1400.000 1200.000 M2000.000 1200.000 L 2000.000 1400.000 1800.000 1400.000 L 1600.000 1400.000 1600.000 1200.000 L 1600.000 1000.000 1800.000 1000.000 L 2000.000 1000.000 2000.000 1200.000 M800.000 1800.409 L 800.000 2000.818 639.000 1998.947 C 536.578 1997.757,472.874 1995.448,463.913 1992.602 C 444.147 1986.324,412.343 1952.963,407.632 1933.564 C 405.553 1925.004,402.705 1846.450,401.302 1759.000 L 398.751 1600.000 599.376 1600.000 L 800.000 1600.000 800.000 1800.409 M1400.000 1800.000 L 1400.000 2000.000 1200.000 2000.000 L 1000.000 2000.000 1000.000 1800.000 L 1000.000 1600.000 1200.000 1600.000 L 1400.000 1600.000 1400.000 1800.000 M1998.489 1759.000 C 1996.959 1846.450,1993.846 1924.962,1991.572 1933.472 C 1986.214 1953.524,1955.448 1986.493,1936.499 1992.488 C 1927.055 1995.477,1865.871 1997.728,1761.000 1998.947 L 1600.000 2000.818 1600.000 1800.409 L 1600.000 1600.000 1800.636 1600.000 L 2001.271 1600.000 1998.489 1759.000 " fill="#1D1E23" stroke="none" fill-rule="evenodd"/></svg>