<svg viewBox="0 0 2400 2400" fill="none" xmlns="http://www.w3.org/2000/svg"><path d="M736.000 407.672 C 624.647 410.292,621.363 410.606,594.556 421.165 C 530.348 446.457,462.364 508.448,432.840 568.624 C 400.036 635.486,402.376 586.960,402.588 1196.000 C 402.756 1682.011,403.450 1741.060,409.303 1767.624 C 431.690 1869.230,520.916 1961.668,622.308 1988.297 C 653.449 1996.475,663.456 1996.659,1198.000 1998.843 L 1742.000 2001.066 1780.000 1988.309 C 1867.932 1958.789,1931.567 1905.241,1968.132 1830.000 C 1999.383 1765.693,1997.291 1809.609,1997.567 1212.000 C 1997.752 810.965,1996.595 669.587,1992.920 644.212 C 1983.712 580.632,1941.701 511.646,1886.697 469.786 C 1855.581 446.106,1802.573 418.418,1776.000 411.967 C 1754.873 406.839,918.282 403.384,736.000 407.672 M1746.000 614.634 C 1767.134 626.038,1783.211 643.422,1788.234 660.301 C 1796.688 688.711,1800.898 1033.838,1797.087 1386.000 C 1792.820 1780.341,1795.635 1752.905,1756.489 1781.641 L 1735.866 1796.780 1388.933 1798.683 C 1017.363 1800.721,673.006 1796.164,655.653 1788.979 C 638.390 1781.831,617.177 1758.849,612.248 1741.953 C 602.949 1710.078,598.649 1382.062,602.728 1015.726 L 606.583 669.453 615.701 650.618 C 630.340 620.377,646.690 610.607,687.599 607.650 C 706.520 606.283,948.800 605.352,1226.000 605.582 L 1730.000 606.000 1746.000 614.634 " fill="#1D1E23" stroke="none" fill-rule="evenodd"/></svg>