<svg viewBox="0 0 2400 2400" fill="none" xmlns="http://www.w3.org/2000/svg"><path d="M730.000 403.893 C 653.523 405.953,629.526 407.944,612.000 413.686 C 524.689 442.286,453.919 508.655,419.756 593.973 C 400.436 642.223,399.411 677.725,401.046 1242.000 C 402.683 1806.773,400.846 1769.559,429.999 1828.548 C 463.309 1895.949,516.891 1946.888,586.000 1976.858 C 636.403 1998.715,615.631 1998.000,1200.000 1998.000 C 1642.260 1998.000,1746.417 1997.000,1766.000 1992.566 C 1875.267 1967.824,1967.824 1875.267,1992.566 1766.000 C 2000.486 1731.022,2000.620 663.902,1992.708 634.000 C 1984.377 602.513,1968.024 563.936,1952.971 540.257 C 1908.616 470.485,1817.752 411.342,1747.100 406.257 C 1701.854 403.001,837.709 400.992,730.000 403.893 M1740.000 609.593 C 1762.893 622.009,1780.085 636.562,1786.489 648.945 C 1797.481 670.203,1799.829 767.167,1799.829 1200.000 C 1799.829 1633.223,1797.486 1729.789,1786.457 1751.116 C 1777.614 1768.216,1754.571 1786.916,1735.053 1792.832 C 1710.031 1800.415,689.969 1800.415,664.947 1792.832 C 645.272 1786.868,622.370 1768.185,613.346 1750.736 C 602.315 1729.403,600.346 1646.023,600.346 1200.000 C 600.346 755.738,602.337 670.467,613.194 649.670 C 620.226 636.199,637.556 619.283,652.000 611.790 C 669.565 602.679,765.727 601.033,1252.000 601.523 C 1709.452 601.983,1726.489 602.265,1740.000 609.593 " fill="#1D1E23" stroke="none" fill-rule="evenodd"/></svg>