<svg viewBox="0 0 2400 2400" fill="none" xmlns="http://www.w3.org/2000/svg"><path d="M200.000 1200.000 L 200.000 2200.000 1200.000 2200.000 L 2200.000 2200.000 2200.000 1200.000 L 2200.000 200.000 1200.000 200.000 L 200.000 200.000 200.000 1200.000 M800.000 600.000 L 800.000 800.000 600.000 800.000 L 400.000 800.000 400.000 600.000 L 400.000 400.000 600.000 400.000 L 800.000 400.000 800.000 600.000 M1400.000 600.000 L 1400.000 800.000 1200.000 800.000 L 1000.000 800.000 1000.000 600.000 L 1000.000 400.000 1200.000 400.000 L 1400.000 400.000 1400.000 600.000 M2000.000 600.000 L 2000.000 800.000 1800.000 800.000 L 1600.000 800.000 1600.000 600.000 L 1600.000 400.000 1800.000 400.000 L 2000.000 400.000 2000.000 600.000 M800.000 1200.000 L 800.000 1400.000 600.000 1400.000 L 400.000 1400.000 400.000 1200.000 L 400.000 1000.000 600.000 1000.000 L 800.000 1000.000 800.000 1200.000 M1400.000 1200.000 L 1400.000 1400.000 1200.000 1400.000 L 1000.000 1400.000 1000.000 1200.000 L 1000.000 1000.000 1200.000 1000.000 L 1400.000 1000.000 1400.000 1200.000 M2000.000 1200.000 L 2000.000 1400.000 1800.000 1400.000 L 1600.000 1400.000 1600.000 1200.000 L 1600.000 1000.000 1800.000 1000.000 L 2000.000 1000.000 2000.000 1200.000 M800.000 1800.000 L 800.000 2000.000 600.000 2000.000 L 400.000 2000.000 400.000 1800.000 L 400.000 1600.000 600.000 1600.000 L 800.000 1600.000 800.000 1800.000 M1400.000 1800.000 L 1400.000 2000.000 1200.000 2000.000 L 1000.000 2000.000 1000.000 1800.000 L 1000.000 1600.000 1200.000 1600.000 L 1400.000 1600.000 1400.000 1800.000 M2000.000 1800.000 L 2000.000 2000.000 1800.000 2000.000 L 1600.000 2000.000 1600.000 1800.000 L 1600.000 1600.000 1800.000 1600.000 L 2000.000 1600.000 2000.000 1800.000 " fill="#1D1E23" stroke="none" fill-rule="evenodd"/></svg>