<svg viewBox="0 0 2400 2400" fill="none" xmlns="http://www.w3.org/2000/svg"><path d="M300.000 1200.000 L 300.000 1500.000 376.000 1500.000 L 452.000 1500.000 452.000 1376.000 L 452.000 1252.000 550.000 1252.000 L 648.000 1252.000 648.000 1376.000 L 648.000 1500.000 724.000 1500.000 L 800.000 1500.000 800.000 1200.000 L 800.000 900.000 724.000 900.000 L 648.000 900.000 648.000 1000.000 L 648.000 1100.000 550.000 1100.000 L 452.000 1100.000 452.000 1000.000 L 452.000 900.000 376.000 900.000 L 300.000 900.000 300.000 1200.000 M948.000 1199.347 L 948.000 1500.000 1140.440 1500.000 L 1332.880 1500.000 1356.263 1487.537 C 1384.932 1472.256,1424.592 1433.377,1435.773 1409.590 C 1447.977 1383.627,1451.861 1333.024,1451.861 1200.000 C 1451.861 1066.990,1447.977 1016.373,1435.776 990.418 C 1425.206 967.929,1383.911 928.144,1356.973 914.493 L 1336.182 903.957 1142.091 901.326 L 948.000 898.694 948.000 1199.347 M1600.000 1199.464 L 1600.000 1500.000 1676.000 1500.000 L 1752.000 1500.000 1752.000 1399.469 L 1752.000 1298.938 1804.212 1300.824 C 1842.139 1302.193,1857.829 1304.253,1861.563 1308.354 C 1864.389 1311.459,1885.222 1355.850,1907.858 1407.000 L 1949.013 1500.000 2024.560 1500.000 L 2100.107 1500.000 2094.650 1487.000 C 2091.648 1479.850,2071.748 1433.344,2050.427 1383.654 L 2011.662 1293.307 2042.966 1261.654 C 2061.991 1242.415,2079.490 1220.039,2087.581 1204.603 L 2100.892 1179.206 2099.191 1096.603 C 2097.612 1019.940,2096.812 1012.597,2088.068 994.497 C 2073.576 964.498,2039.436 930.193,2009.321 915.367 L 1983.372 902.593 1791.686 900.761 L 1600.000 898.929 1600.000 1199.464 M1300.000 1202.000 L 1300.000 1352.000 1200.000 1352.000 L 1100.000 1352.000 1100.000 1202.000 L 1100.000 1052.000 1200.000 1052.000 L 1300.000 1052.000 1300.000 1202.000 M1948.000 1102.000 L 1948.000 1152.000 1850.000 1152.000 L 1752.000 1152.000 1752.000 1102.000 L 1752.000 1052.000 1850.000 1052.000 L 1948.000 1052.000 1948.000 1102.000 " fill="#1D1E23" stroke="none" fill-rule="evenodd"/></svg>