<svg viewBox="0 0 2400 2400" fill="none" xmlns="http://www.w3.org/2000/svg"><path d="M300.000 1200.000 L 300.000 1500.000 376.000 1500.000 L 452.000 1500.000 452.000 1376.000 L 452.000 1252.000 550.000 1252.000 L 648.000 1252.000 648.000 1376.000 L 648.000 1500.000 724.000 1500.000 L 800.000 1500.000 800.000 1200.000 L 800.000 900.000 724.000 900.000 L 648.000 900.000 648.000 1000.000 L 648.000 1100.000 550.000 1100.000 L 452.000 1100.000 452.000 1000.000 L 452.000 900.000 376.000 900.000 L 300.000 900.000 300.000 1200.000 M948.000 1199.620 L 948.000 1500.000 1140.159 1500.000 C 1322.076 1500.000,1333.125 1499.589,1347.445 1492.283 C 1370.542 1480.500,1405.476 1450.510,1421.445 1428.756 C 1445.912 1395.425,1448.606 1377.794,1450.901 1236.000 C 1452.961 1108.703,1449.190 1033.808,1439.121 1002.000 C 1432.656 981.578,1388.172 934.376,1359.379 917.385 L 1338.000 904.769 1143.000 902.005 L 948.000 899.240 948.000 1199.620 M1600.000 1199.402 L 1600.000 1500.000 1676.000 1500.000 L 1752.000 1500.000 1752.000 1399.458 L 1752.000 1298.917 1802.968 1301.820 C 1831.000 1303.417,1855.348 1305.597,1857.075 1306.664 C 1861.549 1309.430,1886.125 1359.602,1919.938 1435.000 L 1949.088 1500.000 2024.445 1500.000 L 2099.802 1500.000 2096.296 1491.000 C 2094.368 1486.050,2074.689 1439.932,2052.564 1388.515 L 2012.337 1295.030 2041.169 1263.317 C 2057.026 1245.874,2076.300 1221.486,2084.000 1209.121 L 2098.000 1186.639 2098.000 1102.319 C 2098.000 1018.487,2097.937 1017.871,2087.030 995.663 C 2073.821 968.766,2033.970 929.187,2005.646 914.834 L 1985.529 904.640 1792.764 901.722 L 1600.000 898.803 1600.000 1199.402 M1300.000 1202.000 L 1300.000 1352.000 1200.000 1352.000 L 1100.000 1352.000 1100.000 1202.000 L 1100.000 1052.000 1200.000 1052.000 L 1300.000 1052.000 1300.000 1202.000 M1948.000 1102.000 L 1948.000 1152.000 1850.000 1152.000 L 1752.000 1152.000 1752.000 1102.000 L 1752.000 1052.000 1850.000 1052.000 L 1948.000 1052.000 1948.000 1102.000 " fill="#1D1E23" stroke="none" fill-rule="evenodd"/></svg>