<svg viewBox="0 0 2400 2400" fill="none" xmlns="http://www.w3.org/2000/svg"><path d="M600.000 1000.000 L 600.000 1800.000 1400.000 1800.000 L 2200.000 1800.000 2200.000 1000.000 L 2200.000 200.000 1400.000 200.000 L 600.000 200.000 600.000 1000.000 M200.000 1400.000 L 200.000 2200.000 1000.000 2200.000 L 1800.000 2200.000 1800.000 2100.000 L 1800.000 2000.000 1100.000 2000.000 L 400.000 2000.000 400.000 1300.000 L 400.000 600.000 300.000 600.000 L 200.000 600.000 200.000 1400.000 M1628.747 1140.000 C 1654.572 1169.896,1765.670 1307.174,1919.283 1499.000 L 2000.164 1600.000 1399.882 1600.000 L 799.600 1600.000 922.532 1437.000 C 1103.344 1197.255,1095.414 1206.610,1108.097 1218.087 C 1112.467 1222.043,1137.051 1252.441,1162.727 1285.640 C 1278.077 1434.783,1301.150 1464.000,1303.583 1464.000 C 1306.887 1464.000,1332.240 1433.447,1447.967 1290.000 C 1566.690 1142.838,1596.409 1107.422,1599.972 1108.852 C 1601.546 1109.483,1614.494 1123.500,1628.747 1140.000 " fill="#1D1E23" stroke="none" fill-rule="evenodd"/></svg>