<svg viewBox="0 0 2400 2400" fill="none" xmlns="http://www.w3.org/2000/svg"><path d="M300.000 1200.000 L 300.000 2100.000 1200.000 2100.000 L 2100.000 2100.000 2100.000 1200.000 L 2100.000 300.000 1200.000 300.000 L 300.000 300.000 300.000 1200.000 M1678.240 1504.356 L 1900.092 1800.000 1200.173 1800.000 L 500.254 1800.000 626.860 1637.000 C 774.260 1447.226,839.615 1363.502,844.458 1358.241 C 849.314 1352.966,868.144 1373.586,973.978 1500.073 C 1074.001 1619.614,1095.377 1644.000,1100.142 1644.000 C 1103.722 1644.000,1148.070 1588.636,1293.990 1402.000 C 1426.637 1232.340,1449.303 1204.555,1453.195 1206.839 C 1454.952 1207.869,1556.222 1341.752,1678.240 1504.356 " fill="#1D1E23" stroke="none" fill-rule="evenodd"/></svg>