<svg viewBox="0 0 2400 2400" fill="none" xmlns="http://www.w3.org/2000/svg"><path d="M600.000 1000.000 L 600.000 1800.000 1400.000 1800.000 L 2200.000 1800.000 2200.000 1000.000 L 2200.000 200.000 1400.000 200.000 L 600.000 200.000 600.000 1000.000 M200.000 1400.000 L 200.000 2200.000 1000.000 2200.000 L 1800.000 2200.000 1800.000 2100.000 L 1800.000 2000.000 1100.000 2000.000 L 400.000 2000.000 400.000 1300.000 L 400.000 600.000 300.000 600.000 L 200.000 600.000 200.000 1400.000 M1679.656 1202.000 C 1712.090 1241.600,1797.513 1347.350,1869.483 1437.000 L 2000.339 1600.000 1399.964 1600.000 L 799.589 1600.000 910.471 1453.000 C 1052.324 1264.942,1086.770 1220.940,1095.999 1216.000 C 1104.616 1211.389,1106.449 1213.504,1220.251 1359.449 C 1258.613 1408.645,1293.109 1452.745,1296.909 1457.449 L 1303.818 1466.000 1312.909 1455.313 C 1317.909 1449.435,1367.809 1388.235,1423.797 1319.313 C 1479.785 1250.391,1541.727 1174.593,1561.445 1150.873 L 1597.297 1107.746 1608.990 1118.873 C 1615.422 1124.993,1647.221 1162.400,1679.656 1202.000 " fill="#1D1E23" stroke="none" fill-rule="evenodd"/></svg>