<svg viewBox="0 0 2400 2400" fill="none" xmlns="http://www.w3.org/2000/svg"><path d="M754.000 307.857 L 438.000 310.000 412.000 323.985 C 377.702 342.433,337.717 383.050,320.566 416.866 L 307.132 443.353 303.289 526.676 C 297.956 642.314,301.592 1914.780,307.337 1943.355 C 315.339 1983.160,338.152 2017.909,379.392 2053.111 C 405.251 2075.184,430.368 2087.675,459.177 2092.791 C 489.529 2098.181,1734.342 2101.738,1858.628 2096.790 C 1950.678 2093.125,1951.424 2093.024,1978.144 2080.520 C 1997.673 2071.381,2013.470 2059.460,2035.858 2036.969 C 2075.755 1996.886,2086.335 1978.316,2092.243 1938.000 C 2095.635 1914.850,2097.459 1705.654,2098.835 1181.596 L 2100.739 457.192 2089.891 435.596 C 2062.494 381.050,2030.774 348.501,1975.668 318.389 L 1949.336 304.000 1509.668 304.857 C 1267.851 305.328,927.800 306.678,754.000 307.857 M1463.964 1237.982 C 1470.326 1241.271,1496.073 1269.621,1521.179 1300.982 C 1574.398 1367.458,1762.913 1619.386,1813.660 1691.850 C 1845.771 1737.702,1848.366 1742.835,1846.017 1755.850 C 1844.612 1763.633,1839.058 1776.750,1833.674 1785.000 L 1823.886 1800.000 1201.855 1800.000 L 579.824 1800.000 567.912 1781.217 C 548.170 1750.086,550.372 1743.288,603.289 1672.000 C 638.429 1624.660,739.352 1495.027,771.451 1456.000 C 800.222 1421.019,829.064 1391.877,841.279 1385.445 C 861.290 1374.908,874.808 1386.293,961.054 1486.317 C 1082.963 1627.702,1093.700 1639.725,1098.188 1639.867 C 1105.659 1640.104,1129.536 1612.025,1222.228 1494.000 C 1377.542 1296.237,1407.686 1259.865,1429.666 1243.700 C 1448.089 1230.152,1448.645 1230.059,1463.964 1237.982 " fill="#1D1E23" stroke="none" fill-rule="evenodd"/></svg>