<svg viewBox="0 0 2400 2400" fill="none" xmlns="http://www.w3.org/2000/svg"><path d="M468.000 302.648 C 447.298 306.004,409.264 321.531,389.052 334.877 C 347.077 362.593,314.625 410.264,304.420 459.197 C 298.170 489.170,298.170 1910.830,304.420 1940.803 C 320.053 2015.765,384.235 2079.947,459.197 2095.580 C 489.170 2101.830,1910.830 2101.830,1940.803 2095.580 C 2015.765 2079.947,2079.947 2015.765,2095.580 1940.803 C 2101.830 1910.830,2101.830 489.170,2095.580 459.197 C 2081.788 393.062,2034.082 338.710,1966.000 311.568 L 1942.000 302.000 1210.000 301.513 C 807.400 301.246,473.500 301.756,468.000 302.648 M1469.201 1237.408 C 1479.380 1241.661,1521.111 1294.852,1664.557 1486.408 C 1764.884 1620.384,1848.181 1735.131,1849.662 1741.403 C 1853.416 1757.300,1845.671 1777.882,1831.426 1789.869 L 1819.386 1800.000 1201.832 1800.000 L 584.278 1800.000 570.263 1787.694 C 554.674 1774.007,548.334 1753.045,554.699 1736.236 C 560.826 1720.052,815.505 1394.843,828.588 1386.497 C 844.820 1376.141,869.030 1379.669,884.745 1394.679 C 891.263 1400.906,941.747 1460.450,996.931 1527.000 C 1052.114 1593.550,1098.473 1648.000,1099.949 1648.000 C 1101.425 1648.000,1173.328 1556.934,1259.733 1445.632 C 1434.985 1219.881,1432.697 1222.156,1469.201 1237.408 " fill="#1D1E23" stroke="none" fill-rule="evenodd"/></svg>