<svg viewBox="0 0 2400 2400" fill="none" xmlns="http://www.w3.org/2000/svg"><path d="M600.000 1000.000 L 600.000 1800.000 1400.000 1800.000 L 2200.000 1800.000 2200.000 1000.000 L 2200.000 200.000 1400.000 200.000 L 600.000 200.000 600.000 1000.000 M200.000 1400.000 L 200.000 2200.000 1000.000 2200.000 L 1800.000 2200.000 1800.000 2100.000 L 1800.000 2000.000 1100.000 2000.000 L 400.000 2000.000 400.000 1300.000 L 400.000 600.000 300.000 600.000 L 200.000 600.000 200.000 1400.000 M1683.882 1206.000 C 1724.921 1256.600,1812.861 1365.950,1879.304 1449.000 L 2000.110 1600.000 1399.904 1600.000 L 799.698 1600.000 937.566 1417.000 C 1103.689 1196.495,1097.084 1204.600,1105.172 1211.313 C 1108.578 1214.140,1149.201 1266.301,1195.445 1327.226 C 1295.842 1459.497,1301.311 1466.134,1307.000 1462.618 C 1309.432 1461.115,1366.764 1391.062,1434.405 1306.943 C 1603.621 1096.507,1596.928 1104.312,1603.633 1109.577 C 1606.731 1112.010,1642.843 1155.400,1683.882 1206.000 " fill="#1D1E23" stroke="none" fill-rule="evenodd"/></svg>