<svg viewBox="0 0 2400 2400" fill="none" xmlns="http://www.w3.org/2000/svg"><path d="M300.000 1200.000 L 300.000 2100.000 1200.000 2100.000 L 2100.000 2100.000 2100.000 1200.000 L 2100.000 300.000 1200.000 300.000 L 300.000 300.000 300.000 1200.000 M1464.881 1221.637 C 1470.865 1229.137,1571.286 1362.337,1688.038 1517.637 L 1900.314 1800.000 1200.224 1800.000 L 500.134 1800.000 671.067 1580.097 C 765.080 1459.150,844.351 1360.150,847.225 1360.097 C 853.955 1359.972,863.497 1370.319,941.201 1462.000 C 1063.207 1605.953,1096.336 1644.000,1099.675 1644.000 C 1103.412 1644.000,1160.188 1573.242,1301.880 1392.000 C 1406.244 1258.506,1447.270 1208.000,1451.345 1208.000 C 1452.805 1208.000,1458.896 1214.137,1464.881 1221.637 " fill="#1D1E23" stroke="none" fill-rule="evenodd"/></svg>