<svg viewBox="0 0 2400 2400" fill="none" xmlns="http://www.w3.org/2000/svg"><path d="M876.000 207.852 L 738.000 210.000 712.136 223.494 C 683.064 238.661,642.853 276.667,626.853 304.099 C 621.047 314.053,613.080 333.853,609.148 348.099 C 602.425 372.461,602.000 411.196,602.000 1000.000 C 602.000 1586.882,602.443 1627.604,609.090 1651.673 C 621.378 1696.172,651.249 1735.772,694.870 1765.395 C 746.673 1800.573,691.020 1798.000,1400.000 1798.000 C 2108.680 1798.000,2053.366 1800.546,2104.898 1765.553 C 2147.187 1736.837,2178.350 1696.302,2190.660 1654.000 C 2197.149 1631.702,2197.743 1584.817,2199.035 993.021 L 2200.426 356.041 2183.288 323.021 C 2160.689 279.480,2125.265 243.994,2081.446 221.000 L 2049.051 204.000 1531.525 204.852 C 1246.886 205.321,951.900 206.671,876.000 207.852 M253.689 615.725 C 242.517 622.133,227.846 633.675,221.085 641.375 C 209.877 654.141,208.498 658.839,205.442 694.687 C 203.598 716.309,202.070 1024.700,202.045 1380.000 C 202.002 1993.152,202.371 2027.322,209.297 2052.000 C 213.310 2066.300,221.260 2086.033,226.964 2095.852 C 241.207 2120.368,287.450 2165.084,309.698 2175.854 C 356.250 2198.389,326.348 2197.203,890.000 2198.883 C 1423.435 2200.473,1723.429 2196.694,1746.760 2188.090 C 1771.444 2178.988,1797.568 2133.683,1797.556 2100.000 C 1797.543 2062.701,1770.435 2021.238,1739.699 2011.504 C 1730.565 2008.611,1591.367 2005.954,1322.000 2003.530 C 1099.800 2001.530,816.300 1998.513,692.000 1996.825 C 470.111 1993.813,465.698 1993.598,449.378 1984.990 C 429.742 1974.634,417.795 1960.548,411.674 1940.537 C 408.648 1930.646,406.054 1797.514,403.557 1524.000 C 401.539 1302.900,398.554 1019.400,396.924 894.000 L 393.959 666.000 384.727 649.860 C 361.179 608.696,295.688 591.636,253.689 615.725 M1634.539 1153.000 C 1670.175 1189.927,1842.182 1399.969,1902.654 1480.401 C 1942.941 1533.986,1946.925 1543.018,1939.793 1564.626 C 1931.355 1590.195,1924.225 1592.739,1850.813 1596.379 C 1815.166 1598.146,1582.336 1599.684,1333.414 1599.796 L 880.829 1600.000 868.612 1586.086 C 853.452 1568.820,849.434 1549.877,857.064 1531.647 C 865.622 1511.196,1029.597 1294.053,1059.930 1263.000 C 1104.420 1217.455,1111.839 1221.689,1211.542 1349.543 C 1244.440 1391.730,1278.702 1434.291,1287.678 1444.123 L 1304.000 1462.000 1320.486 1444.000 C 1329.553 1434.100,1379.687 1373.800,1431.896 1310.000 C 1549.937 1165.753,1567.001 1146.249,1582.000 1138.434 C 1602.970 1127.509,1612.485 1130.147,1634.539 1153.000 " fill="#1D1E23" stroke="none" fill-rule="evenodd"/></svg>