<svg viewBox="0 0 2400 2400" fill="none" xmlns="http://www.w3.org/2000/svg"><path d="M630.000 303.853 L 446.000 306.000 414.898 321.199 C 372.974 341.687,342.148 372.239,321.857 413.412 C 307.722 442.092,306.123 448.701,303.467 489.412 C 299.672 547.583,299.672 1852.417,303.467 1910.588 C 306.115 1951.178,307.743 1957.942,321.620 1986.020 C 341.843 2026.938,373.089 2058.170,414.060 2078.419 C 442.639 2092.544,448.510 2093.919,491.492 2096.548 C 552.161 2100.260,1847.839 2100.260,1908.508 2096.548 C 1951.490 2093.919,1957.361 2092.544,1985.940 2078.419 C 2026.884 2058.184,2058.159 2026.934,2078.346 1986.089 C 2092.951 1956.536,2093.690 1953.063,2096.932 1898.657 C 2098.789 1867.496,2099.789 1530.600,2099.154 1150.000 L 2098.000 458.000 2088.375 434.000 C 2067.128 381.025,2034.163 345.655,1982.797 320.722 L 1950.000 304.803 1382.000 303.254 C 1069.600 302.402,731.200 302.671,630.000 303.853 M1466.164 1236.802 C 1479.334 1242.803,1524.571 1299.730,1657.825 1477.996 C 1767.593 1624.841,1839.890 1724.223,1847.284 1738.429 C 1853.471 1750.318,1846.069 1774.547,1831.931 1788.685 L 1820.615 1800.000 1200.722 1800.000 L 580.829 1800.000 568.612 1786.086 C 553.277 1768.620,549.157 1749.100,557.429 1733.104 C 565.342 1717.803,652.498 1604.159,750.498 1481.359 C 833.764 1377.022,836.876 1374.388,865.682 1383.895 C 881.056 1388.969,887.966 1396.507,995.943 1526.000 C 1036.301 1574.400,1076.169 1621.551,1084.540 1630.779 L 1099.758 1647.559 1117.365 1626.779 C 1127.049 1615.351,1186.797 1539.400,1250.138 1458.000 C 1382.531 1287.862,1406.901 1258.203,1426.795 1243.000 C 1442.685 1230.857,1450.437 1229.637,1466.164 1236.802 " fill="#1D1E23" stroke="none" fill-rule="evenodd"/></svg>