<svg viewBox="0 0 2400 2400" fill="none" xmlns="http://www.w3.org/2000/svg"><path d="M600.000 1000.000 L 600.000 1800.000 1400.000 1800.000 L 2200.000 1800.000 2200.000 1000.000 L 2200.000 200.000 1400.000 200.000 L 600.000 200.000 600.000 1000.000 M200.000 1400.000 L 200.000 2200.000 1000.000 2200.000 L 1800.000 2200.000 1800.000 2100.000 L 1800.000 2000.000 1100.000 2000.000 L 400.000 2000.000 400.000 1300.000 L 400.000 600.000 300.000 600.000 L 200.000 600.000 200.000 1400.000 M1801.614 1352.000 L 2000.039 1600.000 1400.005 1600.000 L 799.971 1600.000 948.483 1402.000 C 1030.164 1293.100,1098.359 1204.000,1100.026 1204.000 C 1101.694 1204.000,1147.630 1263.464,1202.106 1336.141 C 1256.582 1408.819,1302.540 1467.769,1304.235 1467.141 C 1305.930 1466.514,1372.447 1384.550,1452.051 1285.000 C 1531.655 1185.450,1598.226 1104.000,1599.987 1104.000 C 1601.748 1104.000,1692.480 1215.600,1801.614 1352.000 " fill="#1D1E23" stroke="none" fill-rule="evenodd"/></svg>