<svg viewBox="0 0 2400 2400" fill="none" xmlns="http://www.w3.org/2000/svg"><path d="M300.000 1200.000 L 300.000 2100.000 1200.000 2100.000 L 2100.000 2100.000 2100.000 1200.000 L 2100.000 300.000 1200.000 300.000 L 300.000 300.000 300.000 1200.000 M1464.285 1221.000 C 1469.942 1228.150,1570.376 1361.350,1687.472 1517.000 L 1900.373 1800.000 1200.245 1800.000 L 500.117 1800.000 620.754 1645.000 C 687.104 1559.750,763.128 1463.066,789.695 1430.146 C 816.263 1397.226,840.105 1367.526,842.678 1364.146 C 846.783 1358.752,848.673 1359.223,858.135 1368.000 C 864.063 1373.500,920.220 1437.930,982.927 1511.177 C 1045.634 1584.424,1098.441 1643.824,1100.277 1643.177 C 1104.434 1641.711,1175.064 1554.114,1267.327 1436.000 C 1364.969 1310.999,1448.076 1208.000,1451.295 1208.000 C 1452.783 1208.000,1458.628 1213.850,1464.285 1221.000 " fill="#1D1E23" stroke="none" fill-rule="evenodd"/></svg>