<svg viewBox="0 0 2400 2400" fill="none" xmlns="http://www.w3.org/2000/svg"><path d="M300.000 1200.000 L 300.000 2100.000 1200.000 2100.000 L 2100.000 2100.000 2100.000 1200.000 L 2100.000 300.000 1200.000 300.000 L 300.000 300.000 300.000 1200.000 M1677.500 1503.000 L 1900.042 1800.000 1200.096 1800.000 L 500.150 1800.000 668.637 1583.000 C 761.305 1463.650,840.239 1362.682,844.046 1358.627 C 850.689 1351.552,855.924 1357.227,974.121 1499.627 C 1041.856 1581.232,1098.475 1648.000,1099.941 1648.000 C 1101.407 1648.000,1180.726 1547.246,1276.206 1424.103 C 1371.686 1300.959,1450.965 1201.509,1452.382 1203.103 C 1453.799 1204.696,1555.102 1339.650,1677.500 1503.000 " fill="#1D1E23" stroke="none" fill-rule="evenodd"/></svg>