<svg viewBox="0 0 2400 2400" fill="none" xmlns="http://www.w3.org/2000/svg"><path d="M896.000 203.804 L 746.000 206.000 714.898 221.199 C 673.009 241.670,642.145 272.244,621.900 313.325 C 608.044 341.441,606.157 349.022,603.484 387.325 C 599.600 442.986,599.600 1557.014,603.484 1612.675 C 606.149 1650.862,608.061 1658.585,621.663 1686.107 C 641.808 1726.867,673.133 1758.192,713.893 1778.337 C 741.415 1791.939,749.138 1793.851,787.325 1796.516 C 842.986 1800.400,1957.014 1800.400,2012.675 1796.516 C 2050.862 1793.851,2058.585 1791.939,2086.107 1778.337 C 2126.825 1758.213,2158.196 1726.860,2178.285 1686.212 C 2192.396 1657.660,2193.670 1652.081,2196.876 1604.780 C 2198.770 1576.851,2199.797 1284.900,2199.159 956.000 L 2198.000 358.000 2188.375 334.000 C 2167.129 281.027,2134.164 245.657,2082.797 220.720 L 2050.000 204.798 1548.000 203.203 C 1271.900 202.326,978.500 202.597,896.000 203.804 M273.947 604.287 C 265.118 606.382,247.736 616.069,235.321 625.813 C 216.534 640.559,211.894 646.756,207.653 662.765 C 203.656 677.853,202.248 820.953,201.120 1326.542 C 200.325 1682.853,201.273 1990.078,203.240 2013.558 C 206.348 2050.648,208.704 2059.885,221.831 2086.447 C 241.730 2126.710,273.290 2158.270,313.553 2178.169 C 340.115 2191.296,349.352 2193.652,386.442 2196.760 C 409.922 2198.727,717.147 2199.675,1073.458 2198.880 C 1579.047 2197.752,1722.147 2196.344,1737.235 2192.347 C 1753.237 2188.108,1759.442 2183.465,1774.150 2164.727 C 1806.224 2123.860,1807.402 2080.053,1777.519 2039.345 C 1769.613 2028.575,1757.727 2016.961,1751.104 2013.537 C 1729.338 2002.281,1629.548 2000.268,1080.000 1999.996 C 784.100 1999.850,523.619 1998.073,501.152 1996.047 C 478.686 1994.021,455.286 1989.742,449.152 1986.539 C 436.330 1979.842,419.176 1962.268,412.149 1948.629 C 402.477 1929.855,400.257 1807.722,399.996 1280.000 C 399.850 984.100,398.073 723.619,396.047 701.152 C 391.941 655.629,386.622 641.985,367.236 627.247 C 337.176 604.396,305.913 596.702,273.947 604.287 M1620.360 1136.193 C 1628.997 1140.815,1683.652 1205.891,1796.571 1346.000 C 1927.519 1508.480,1944.000 1530.897,1944.000 1546.526 C 1944.000 1562.540,1936.618 1578.581,1923.990 1590.009 C 1915.259 1597.910,1909.343 1598.000,1397.657 1598.000 L 880.154 1598.000 867.640 1585.487 C 849.147 1566.993,847.076 1541.852,862.163 1518.985 C 876.390 1497.421,940.946 1411.341,1014.817 1315.434 C 1071.808 1241.443,1077.518 1236.172,1100.812 1236.055 C 1121.302 1235.951,1131.291 1245.096,1180.566 1309.066 C 1207.755 1344.364,1245.359 1393.214,1264.131 1417.622 C 1282.904 1442.030,1300.838 1462.000,1303.986 1462.000 C 1307.134 1462.000,1358.916 1400.800,1419.058 1326.000 C 1543.063 1171.771,1569.573 1140.760,1581.553 1135.920 C 1593.424 1131.124,1611.121 1131.248,1620.360 1136.193 " fill="#1D1E23" stroke="none" fill-rule="evenodd"/></svg>