<svg viewBox="0 0 2400 2400" fill="none" xmlns="http://www.w3.org/2000/svg"><path d="M600.000 1000.000 L 600.000 1800.000 1400.000 1800.000 L 2200.000 1800.000 2200.000 1000.000 L 2200.000 200.000 1400.000 200.000 L 600.000 200.000 600.000 1000.000 M200.000 1400.000 L 200.000 2200.000 1000.000 2200.000 L 1800.000 2200.000 1800.000 2100.000 L 1800.000 2000.000 1100.000 2000.000 L 400.000 2000.000 400.000 1300.000 L 400.000 600.000 300.000 600.000 L 200.000 600.000 200.000 1400.000 M1646.790 1161.000 C 1670.972 1190.150,1760.405 1300.850,1845.530 1407.000 L 2000.302 1600.000 1399.951 1600.000 L 799.599 1600.000 928.507 1429.000 C 1067.389 1244.770,1090.050 1215.646,1098.148 1210.970 C 1103.243 1208.029,1125.439 1235.240,1227.870 1370.000 C 1275.042 1432.061,1300.953 1464.000,1304.127 1464.000 C 1307.363 1464.000,1322.494 1445.658,1455.921 1280.000 C 1569.452 1139.044,1595.421 1108.000,1599.807 1108.000 C 1601.466 1108.000,1622.608 1131.850,1646.790 1161.000 " fill="#1D1E23" stroke="none" fill-rule="evenodd"/></svg>