<svg viewBox="0 0 2400 2400" fill="none" xmlns="http://www.w3.org/2000/svg"><path d="M300.000 1200.000 L 300.000 2100.000 1200.000 2100.000 L 2100.000 2100.000 2100.000 1200.000 L 2100.000 300.000 1200.000 300.000 L 300.000 300.000 300.000 1200.000 M1677.010 1502.176 L 1900.019 1800.000 1200.131 1800.000 L 500.242 1800.000 640.758 1619.000 C 778.176 1441.991,837.725 1365.786,844.516 1358.253 C 849.823 1352.366,861.977 1365.606,969.130 1494.000 C 1024.211 1560.000,1076.044 1621.451,1084.314 1630.558 L 1099.350 1647.116 1109.200 1636.558 C 1114.617 1630.751,1174.446 1554.900,1242.153 1468.000 C 1384.927 1284.752,1449.183 1203.974,1452.000 1204.195 C 1453.100 1204.281,1554.354 1338.372,1677.010 1502.176 " fill="#1D1E23" stroke="none" fill-rule="evenodd"/></svg>