<svg viewBox="0 0 2400 2400" fill="none" xmlns="http://www.w3.org/2000/svg"><path d="M754.000 307.857 L 438.000 310.000 412.000 323.985 C 377.702 342.433,337.717 383.050,320.566 416.866 L 307.132 443.353 303.289 526.676 C 297.956 642.314,301.592 1914.780,307.337 1943.355 C 315.339 1983.160,338.152 2017.909,379.392 2053.111 C 405.251 2075.184,430.368 2087.675,459.177 2092.791 C 489.529 2098.181,1734.342 2101.738,1858.628 2096.790 C 1950.678 2093.125,1951.424 2093.024,1978.144 2080.520 C 1997.673 2071.381,2013.470 2059.460,2035.858 2036.969 C 2075.755 1996.886,2086.335 1978.316,2092.243 1938.000 C 2095.635 1914.850,2097.459 1705.654,2098.835 1181.596 L 2100.739 457.192 2089.891 435.596 C 2062.494 381.050,2030.774 348.501,1975.668 318.389 L 1949.336 304.000 1509.668 304.857 C 1267.851 305.328,927.800 306.678,754.000 307.857 M1893.836 1182.000 L 1893.672 1830.000 1885.202 1846.000 C 1874.456 1866.301,1857.892 1881.581,1840.000 1887.698 C 1812.253 1897.186,1652.390 1899.751,1082.000 1899.864 L 502.000 1899.978 1193.198 1208.989 C 1827.523 574.855,1884.791 518.658,1889.198 526.000 C 1892.883 532.140,1893.962 684.695,1893.836 1182.000 M855.159 563.611 C 889.193 581.064,894.031 595.635,898.587 694.403 L 901.188 750.806 961.594 753.240 C 1030.546 756.018,1062.036 761.035,1073.274 771.033 C 1085.478 781.892,1092.000 801.579,1092.000 827.561 C 1092.000 848.284,1090.297 853.627,1078.892 868.689 C 1057.116 897.446,1048.249 899.987,969.630 899.994 L 901.260 900.000 898.732 969.883 C 895.959 1046.556,892.685 1059.981,872.646 1076.843 C 837.646 1106.293,784.395 1099.572,765.658 1063.338 C 758.029 1048.585,752.166 995.797,752.071 941.000 L 752.000 900.000 694.546 900.000 C 603.212 900.000,582.151 893.484,565.000 859.918 C 550.903 832.329,554.595 795.317,573.476 774.943 C 585.831 761.612,610.419 756.916,688.000 753.072 L 750.000 750.000 750.983 726.000 C 753.879 655.312,760.319 594.986,766.180 583.653 C 778.949 558.960,825.601 548.452,855.159 563.611 M1292.000 1559.501 C 1224.049 1563.053,1216.611 1567.472,1204.026 1611.779 C 1198.156 1632.444,1205.078 1651.124,1228.233 1677.104 L 1248.640 1700.000 1449.989 1700.000 L 1651.337 1700.000 1671.681 1677.000 C 1682.870 1664.350,1693.783 1647.643,1695.931 1639.874 C 1703.208 1613.561,1687.397 1578.099,1662.693 1565.324 C 1651.693 1559.636,1629.649 1558.644,1496.008 1557.828 C 1411.304 1557.311,1319.500 1558.063,1292.000 1559.501 " fill="#1D1E23" stroke="none" fill-rule="evenodd"/></svg>