<svg viewBox="0 0 2400 2400" fill="none" xmlns="http://www.w3.org/2000/svg"><path d="M630.000 303.853 L 446.000 306.000 414.898 321.199 C 372.974 341.687,342.148 372.239,321.857 413.412 C 307.722 442.092,306.123 448.701,303.467 489.412 C 299.672 547.583,299.672 1852.417,303.467 1910.588 C 306.115 1951.178,307.743 1957.942,321.620 1986.020 C 341.843 2026.938,373.089 2058.170,414.060 2078.419 C 442.639 2092.544,448.510 2093.919,491.492 2096.548 C 552.161 2100.260,1847.839 2100.260,1908.508 2096.548 C 1951.490 2093.919,1957.361 2092.544,1985.940 2078.419 C 2026.884 2058.184,2058.159 2026.934,2078.346 1986.089 C 2092.951 1956.536,2093.690 1953.063,2096.932 1898.657 C 2098.789 1867.496,2099.789 1530.600,2099.154 1150.000 L 2098.000 458.000 2088.375 434.000 C 2067.128 381.025,2034.163 345.655,1982.797 320.722 L 1950.000 304.803 1382.000 303.254 C 1069.600 302.402,731.200 302.671,630.000 303.853 M1898.977 1394.000 C 1897.643 1864.717,1899.385 1832.363,1873.550 1866.234 C 1857.654 1887.075,1844.570 1892.045,1794.750 1896.167 C 1769.862 1898.226,1473.041 1899.899,1126.004 1899.935 L 502.009 1900.000 1198.004 1203.989 L 1894.000 507.978 1897.095 736.989 C 1898.798 862.945,1899.645 1158.600,1898.977 1394.000 M848.140 555.973 C 855.917 558.133,869.349 567.140,877.989 575.988 C 892.401 590.748,893.937 594.465,896.601 621.038 C 898.199 636.967,899.617 672.756,899.753 700.569 L 900.000 751.137 975.000 752.581 C 1061.078 754.238,1070.701 757.226,1087.462 787.498 C 1106.228 821.392,1095.783 863.961,1062.465 889.374 C 1048.549 899.988,1048.453 900.000,974.705 900.000 L 900.877 900.000 899.418 973.684 L 897.959 1047.369 885.924 1064.492 C 869.300 1088.146,851.268 1097.867,824.015 1097.867 C 797.363 1097.867,776.816 1086.694,763.202 1064.798 C 754.603 1050.969,753.914 1045.088,752.688 975.000 L 751.377 900.000 688.688 899.826 C 594.965 899.565,578.654 894.467,561.000 859.918 C 542.325 823.370,555.351 778.907,589.991 760.958 C 598.991 756.295,620.541 754.142,676.000 752.368 L 750.000 750.000 752.447 684.000 C 753.792 647.700,755.142 612.213,755.447 605.139 C 756.099 589.971,773.748 568.080,792.958 558.611 C 807.897 551.247,827.718 550.299,848.140 555.973 M1259.905 1555.494 C 1225.985 1560.504,1205.563 1582.768,1201.455 1619.215 C 1198.714 1643.524,1211.205 1667.878,1235.402 1685.406 L 1252.787 1698.000 1450.000 1698.000 L 1647.213 1698.000 1664.598 1685.406 C 1689.011 1667.721,1701.291 1643.560,1698.487 1618.724 C 1695.764 1594.594,1683.936 1575.102,1664.798 1563.202 L 1650.000 1554.000 1464.000 1553.411 C 1361.700 1553.087,1269.857 1554.024,1259.905 1555.494 " fill="#1D1E23" stroke="none" fill-rule="evenodd"/></svg>