<svg viewBox="0 0 2400 2400" fill="none" xmlns="http://www.w3.org/2000/svg"><path d="M464.000 307.634 C 407.168 312.827,349.836 356.788,319.481 418.448 C 307.693 442.392,306.397 448.971,303.559 499.257 C 299.361 573.640,299.540 1832.012,303.759 1901.226 C 306.852 1951.976,308.187 1958.623,320.231 1983.226 C 337.936 2019.395,380.684 2062.103,416.955 2079.858 C 442.253 2092.243,447.536 2093.252,502.955 2096.288 C 579.921 2100.504,1820.079 2100.504,1897.045 2096.288 C 1952.464 2093.252,1957.747 2092.243,1983.045 2079.858 C 2019.172 2062.173,2062.071 2019.383,2079.622 1983.525 C 2091.386 1959.492,2092.932 1951.928,2096.385 1901.525 C 2098.632 1868.729,2099.741 1561.095,2099.094 1150.000 L 2098.000 454.000 2083.065 422.721 C 2062.058 378.727,2029.502 345.717,1983.878 322.154 L 1948.729 304.000 1219.365 304.629 C 818.214 304.976,478.300 306.328,464.000 307.634 M1897.177 1162.000 C 1897.629 1496.400,1896.483 1785.793,1894.632 1805.096 C 1891.763 1835.008,1889.371 1842.941,1878.439 1858.804 C 1858.545 1887.674,1845.331 1892.544,1776.708 1896.305 C 1744.418 1898.075,1444.402 1899.630,1110.004 1899.761 L 502.009 1900.000 1196.004 1205.966 L 1890.000 511.932 1893.178 532.966 C 1894.926 544.535,1896.726 827.600,1897.177 1162.000 M865.974 567.002 C 892.496 585.451,895.886 597.040,898.727 678.980 L 901.219 750.846 974.434 753.010 C 1060.731 755.560,1071.797 758.996,1087.120 788.000 C 1105.434 822.663,1091.880 871.061,1057.994 892.004 C 1046.312 899.223,1038.063 900.000,973.059 900.000 L 901.063 900.000 899.208 974.054 L 897.352 1048.107 885.170 1064.924 C 854.610 1107.111,794.137 1108.601,765.906 1067.864 C 755.366 1052.655,755.085 1050.673,752.988 976.586 L 750.845 900.854 678.422 899.337 C 616.308 898.035,603.723 896.694,590.000 889.910 C 555.658 872.932,542.557 818.708,564.710 785.232 C 581.761 759.466,593.699 756.019,677.003 752.811 L 750.000 750.000 752.512 694.000 C 753.894 663.200,755.244 628.816,755.512 617.592 C 756.134 591.582,767.975 573.143,792.032 560.725 C 815.462 548.630,842.913 550.960,865.974 567.002 M1304.000 1555.598 C 1227.391 1558.771,1214.768 1565.581,1203.649 1609.737 C 1197.133 1635.615,1206.153 1658.002,1232.721 1681.888 L 1252.865 1700.000 1450.000 1700.000 L 1647.135 1700.000 1667.121 1682.031 C 1690.694 1660.837,1701.827 1637.061,1697.952 1616.187 C 1694.162 1595.774,1681.535 1575.171,1666.787 1565.334 C 1654.456 1557.110,1648.789 1556.741,1508.000 1555.000 C 1427.700 1554.007,1335.900 1554.276,1304.000 1555.598 " fill="#1D1E23" stroke="none" fill-rule="evenodd"/></svg>