<svg viewBox="0 0 2400 2400" fill="none" xmlns="http://www.w3.org/2000/svg"><path d="M468.000 302.648 C 447.298 306.004,409.264 321.531,389.052 334.877 C 347.077 362.593,314.625 410.264,304.420 459.197 C 298.170 489.170,298.170 1910.830,304.420 1940.803 C 320.053 2015.765,384.235 2079.947,459.197 2095.580 C 489.170 2101.830,1910.830 2101.830,1940.803 2095.580 C 2015.765 2079.947,2079.947 2015.765,2095.580 1940.803 C 2101.830 1910.830,2101.830 489.170,2095.580 459.197 C 2081.788 393.062,2034.082 338.710,1966.000 311.568 L 1942.000 302.000 1210.000 301.513 C 807.400 301.246,473.500 301.756,468.000 302.648 M1893.811 1831.241 C 1889.480 1846.141,1882.430 1857.780,1870.529 1869.681 C 1837.722 1902.489,1896.182 1900.000,1158.292 1900.000 L 502.009 1900.000 1200.004 1201.996 L 1898.000 503.991 1899.012 1156.931 C 1899.912 1737.398,1899.334 1812.242,1893.811 1831.241 M860.155 560.079 C 868.865 564.522,880.943 575.634,886.996 584.771 C 897.885 601.211,898.013 602.168,899.242 676.692 L 900.485 752.000 972.402 752.000 C 1055.008 752.000,1067.657 755.564,1086.592 784.177 C 1108.629 817.477,1100.514 858.794,1066.639 885.768 L 1051.278 898.000 975.639 899.312 L 900.000 900.623 899.912 969.312 C 899.838 1027.465,898.690 1040.497,892.429 1054.283 C 866.471 1111.436,787.903 1114.695,759.888 1059.781 C 752.900 1046.083,752.000 1036.085,752.000 972.159 L 752.000 900.000 681.872 900.000 C 593.522 900.000,577.726 894.725,559.574 859.159 C 545.736 832.045,550.663 796.394,571.254 774.656 C 589.823 755.052,594.135 754.102,674.000 752.000 L 750.000 750.000 752.000 674.000 C 753.236 627.050,755.780 594.942,758.656 590.000 C 765.578 578.105,784.634 561.002,796.000 556.483 C 813.082 549.691,843.090 551.373,860.155 560.079 M1239.361 1560.087 C 1210.994 1575.073,1196.783 1604.602,1201.808 1638.114 C 1204.105 1653.428,1208.222 1660.603,1223.459 1675.840 C 1235.159 1687.540,1247.327 1695.665,1255.637 1697.327 C 1273.067 1700.813,1626.933 1700.813,1644.363 1697.327 C 1652.673 1695.665,1664.841 1687.540,1676.541 1675.840 C 1691.778 1660.603,1695.895 1653.428,1698.192 1638.114 C 1703.288 1604.133,1688.843 1574.715,1659.781 1559.888 C 1645.002 1552.349,1635.695 1552.008,1449.159 1552.177 C 1264.144 1552.344,1253.239 1552.756,1239.361 1560.087 " fill="#1D1E23" stroke="none" fill-rule="evenodd"/></svg>