<svg viewBox="0 0 2400 2400" fill="none" xmlns="http://www.w3.org/2000/svg"><path d="M604.000 307.874 L 438.000 310.000 408.990 325.501 C 373.153 344.649,337.817 381.203,319.837 417.725 C 307.603 442.575,306.747 447.297,303.644 506.982 C 299.338 589.807,299.478 1793.584,303.803 1884.000 C 307.592 1963.210,310.402 1972.975,341.493 2015.005 C 361.303 2041.783,398.738 2072.044,428.000 2084.931 C 442.565 2091.346,460.120 2093.506,520.000 2096.248 C 614.878 2100.594,1782.071 2100.694,1880.092 2096.365 C 1947.942 2093.369,1956.030 2092.215,1976.092 2082.672 C 2008.566 2067.223,2044.247 2036.272,2065.214 2005.364 C 2100.466 1953.396,2097.486 2024.918,2099.036 1193.871 L 2100.409 457.743 2084.321 425.871 C 2058.174 374.070,2026.733 343.685,1969.133 314.554 L 1948.266 304.000 1359.133 304.874 C 1035.110 305.355,695.300 306.705,604.000 307.874 M1893.834 593.000 C 1895.323 635.350,1895.970 931.000,1895.271 1250.000 L 1894.000 1830.000 1885.348 1846.000 C 1863.038 1887.260,1850.576 1892.109,1756.000 1896.333 C 1715.300 1898.150,1416.502 1899.719,1092.004 1899.819 L 502.009 1900.000 1194.000 1208.000 C 1574.595 827.400,1887.147 516.000,1888.559 516.000 C 1889.971 516.000,1892.344 550.650,1893.834 593.000 M862.978 566.454 C 872.315 571.875,882.909 582.024,886.520 589.005 C 893.452 602.411,899.439 661.026,899.796 719.000 L 900.000 752.000 939.000 752.143 C 995.829 752.351,1053.000 758.243,1066.644 765.299 C 1090.487 777.628,1101.981 829.774,1087.096 858.083 C 1078.943 873.589,1060.596 891.951,1048.740 896.470 C 1043.646 898.412,1008.096 900.000,969.740 900.000 L 900.000 900.000 899.715 947.000 C 899.559 972.850,898.165 1007.895,896.619 1024.878 C 894.070 1052.858,892.502 1057.125,879.903 1070.355 C 845.329 1106.660,794.769 1105.037,766.371 1066.711 C 757.025 1054.098,752.958 1018.211,752.348 943.000 L 752.000 900.000 695.000 899.977 C 621.169 899.947,594.234 895.570,578.830 881.099 C 555.074 858.783,548.623 818.142,564.039 787.923 C 577.937 760.680,591.034 757.013,690.000 752.647 L 750.000 750.000 753.373 676.000 C 757.679 581.510,761.326 572.811,803.036 557.561 C 821.623 550.765,840.878 553.622,862.978 566.454 M1254.255 1560.245 C 1226.716 1564.854,1215.338 1574.549,1206.700 1600.763 C 1196.365 1632.128,1201.835 1650.357,1230.046 1678.568 L 1251.478 1700.000 1450.000 1700.000 L 1648.522 1700.000 1669.954 1678.568 C 1697.192 1651.329,1703.395 1632.286,1694.122 1604.368 C 1685.549 1578.556,1669.149 1563.575,1645.142 1559.626 C 1619.837 1555.463,1279.608 1556.002,1254.255 1560.245 " fill="#1D1E23" stroke="none" fill-rule="evenodd"/></svg>