<svg viewBox="0 0 2400 2400" fill="none" xmlns="http://www.w3.org/2000/svg"><path d="M300.000 1200.000 L 300.000 2100.000 1200.000 2100.000 L 2100.000 2100.000 2100.000 1200.000 L 2100.000 300.000 1200.000 300.000 L 300.000 300.000 300.000 1200.000 M1900.000 1202.000 L 1900.000 1900.000 1201.004 1900.000 L 502.009 1900.000 1200.000 1202.000 C 1583.895 818.100,1898.443 504.000,1898.996 504.000 C 1899.548 504.000,1900.000 818.100,1900.000 1202.000 M900.000 652.000 L 900.000 752.000 1000.000 752.000 L 1100.000 752.000 1100.000 826.000 L 1100.000 900.000 1000.000 900.000 L 900.000 900.000 900.000 1000.000 L 900.000 1100.000 826.000 1100.000 L 752.000 1100.000 752.000 1000.000 L 752.000 900.000 652.000 900.000 L 552.000 900.000 552.000 826.070 L 552.000 752.140 651.000 751.070 L 750.000 750.000 751.070 651.000 L 752.140 552.000 826.070 552.000 L 900.000 552.000 900.000 652.000 M1200.000 1626.000 L 1200.000 1700.000 1450.000 1700.000 L 1700.000 1700.000 1700.000 1626.000 L 1700.000 1552.000 1450.000 1552.000 L 1200.000 1552.000 1200.000 1626.000 " fill="#1D1E23" stroke="none" fill-rule="evenodd"/></svg>