<svg viewBox="0 0 2400 2400" fill="none" xmlns="http://www.w3.org/2000/svg"><path d="M400.000 1200.000 L 400.000 2100.000 1200.000 2100.000 L 2000.000 2100.000 2000.000 1200.000 L 2000.000 300.000 1200.000 300.000 L 400.000 300.000 400.000 1200.000 M1800.000 1200.000 L 1800.000 1900.000 1200.000 1900.000 L 600.000 1900.000 600.000 1200.000 L 600.000 500.000 1200.000 500.000 L 1800.000 500.000 1800.000 1200.000 M1140.449 786.322 C 1070.707 805.078,1007.427 867.535,985.948 938.814 C 950.443 1056.636,1027.080 1185.532,1152.000 1218.096 C 1235.907 1239.970,1335.744 1196.584,1390.088 1114.632 C 1413.982 1078.599,1421.411 1051.955,1421.492 1002.000 C 1421.555 963.356,1420.190 954.363,1410.281 928.126 C 1404.075 911.696,1394.932 891.896,1389.963 884.126 C 1369.371 851.930,1325.742 813.823,1291.721 798.319 C 1252.214 780.315,1183.153 774.838,1140.449 786.322 M1116.000 1408.194 C 1051.900 1415.943,950.645 1444.060,894.192 1469.786 C 825.188 1501.232,776.196 1543.939,759.886 1586.862 C 753.504 1603.657,750.517 1622.335,748.989 1655.000 L 746.884 1700.000 1199.442 1700.000 L 1652.000 1700.000 1651.970 1671.000 C 1651.930 1633.154,1645.524 1594.659,1636.245 1576.517 C 1602.115 1509.781,1494.378 1450.203,1356.531 1421.835 C 1276.793 1405.426,1182.934 1400.103,1116.000 1408.194 " fill="#1D1E23" stroke="none" fill-rule="evenodd"/></svg>