<svg viewBox="0 0 2400 2400" fill="none" xmlns="http://www.w3.org/2000/svg"><path d="M400.000 1200.000 L 400.000 2100.000 1200.000 2100.000 L 2000.000 2100.000 2000.000 1200.000 L 2000.000 300.000 1200.000 300.000 L 400.000 300.000 400.000 1200.000 M1800.000 1200.000 L 1800.000 1900.000 1200.000 1900.000 L 600.000 1900.000 600.000 1200.000 L 600.000 500.000 1200.000 500.000 L 1800.000 500.000 1800.000 1200.000 M1127.908 789.381 C 1054.155 815.419,997.873 878.939,982.044 954.000 C 965.979 1030.175,987.238 1100.033,1043.618 1156.344 C 1134.276 1246.890,1264.583 1246.759,1356.383 1156.029 C 1427.914 1085.333,1443.369 993.207,1399.277 900.353 C 1390.412 881.683,1377.906 865.225,1356.382 843.900 C 1309.140 797.097,1265.513 779.934,1194.160 780.084 C 1162.614 780.151,1148.403 782.145,1127.908 789.381 M1120.000 1406.636 C 973.156 1429.347,854.192 1475.475,796.822 1531.947 C 761.206 1567.005,748.000 1603.319,748.000 1666.197 L 748.000 1700.000 1200.549 1700.000 L 1653.098 1700.000 1650.919 1653.000 C 1648.052 1591.185,1641.836 1574.336,1609.090 1539.623 C 1579.977 1508.763,1545.464 1485.440,1500.559 1466.281 C 1402.507 1424.449,1298.132 1403.600,1191.487 1404.545 C 1157.669 1404.844,1125.500 1405.785,1120.000 1406.636 " fill="#1D1E23" stroke="none" fill-rule="evenodd"/></svg>