<svg viewBox="0 0 2400 2400" fill="none" xmlns="http://www.w3.org/2000/svg"><path d="M400.000 1200.000 L 400.000 2100.000 1200.000 2100.000 L 2000.000 2100.000 2000.000 1200.000 L 2000.000 300.000 1200.000 300.000 L 400.000 300.000 400.000 1200.000 M1800.000 1200.000 L 1800.000 1900.000 1200.000 1900.000 L 600.000 1900.000 600.000 1200.000 L 600.000 500.000 1200.000 500.000 L 1800.000 500.000 1800.000 1200.000 M1162.875 780.332 C 1130.149 783.989,1092.688 800.643,1060.754 825.732 C 955.982 908.046,947.884 1063.923,1043.419 1159.407 C 1083.404 1199.370,1142.346 1224.000,1198.000 1224.000 C 1300.190 1224.000,1392.145 1152.618,1418.044 1053.187 C 1436.405 982.694,1411.783 895.547,1358.495 842.422 C 1308.320 792.399,1242.323 771.452,1162.875 780.332 M1138.786 1404.247 C 1012.073 1417.267,872.613 1465.965,810.114 1519.013 C 762.270 1559.624,748.075 1593.456,748.023 1667.000 L 748.000 1700.000 1200.582 1700.000 L 1653.164 1700.000 1651.000 1649.895 C 1649.095 1605.778,1647.506 1597.054,1637.705 1576.895 C 1623.850 1548.396,1589.191 1513.817,1552.829 1492.215 C 1448.402 1430.176,1265.213 1391.255,1138.786 1404.247 " fill="#1D1E23" stroke="none" fill-rule="evenodd"/></svg>