<svg viewBox="0 0 2400 2400" fill="none" xmlns="http://www.w3.org/2000/svg"><path d="M730.000 303.896 C 653.517 305.954,629.527 307.944,612.000 313.686 C 524.613 342.311,453.923 408.646,419.685 494.152 C 409.325 520.024,407.031 532.700,403.575 583.160 C 397.734 668.449,401.137 1843.437,407.301 1869.395 C 422.082 1931.648,469.960 2002.331,524.431 2042.316 C 550.882 2061.733,595.605 2082.984,627.010 2091.060 C 651.984 2097.482,694.937 2098.000,1202.000 2098.000 L 1750.000 2098.000 1780.000 2088.628 C 1834.593 2071.573,1870.234 2050.086,1910.160 2010.160 C 1950.086 1970.234,1971.573 1934.593,1988.628 1880.000 L 1998.000 1850.000 1998.000 1200.000 L 1998.000 550.000 1988.628 520.000 C 1960.652 430.450,1902.610 364.878,1815.050 323.904 C 1796.942 315.430,1778.986 310.700,1755.557 308.232 C 1714.496 303.905,863.392 300.307,730.000 303.896 M1740.000 509.593 C 1763.026 522.081,1780.097 536.585,1786.623 549.204 C 1797.643 570.515,1799.696 672.712,1799.696 1200.000 C 1799.696 1727.740,1797.647 1829.477,1786.591 1850.857 C 1777.625 1868.195,1754.679 1886.883,1735.053 1892.832 C 1710.031 1900.415,689.969 1900.415,664.947 1892.832 C 645.355 1886.893,622.378 1868.202,613.451 1850.938 C 602.309 1829.392,600.262 1728.361,600.262 1200.000 C 600.262 673.750,602.332 570.472,613.298 549.468 C 620.238 536.177,637.630 519.244,652.000 511.790 C 669.565 502.679,765.727 501.033,1252.000 501.523 C 1709.452 501.983,1726.489 502.265,1740.000 509.593 M1162.875 780.332 C 1130.149 783.989,1092.688 800.643,1060.754 825.732 C 955.982 908.046,947.884 1063.923,1043.419 1159.407 C 1083.404 1199.370,1142.346 1224.000,1198.000 1224.000 C 1300.190 1224.000,1392.145 1152.618,1418.044 1053.187 C 1436.405 982.694,1411.783 895.547,1358.495 842.422 C 1308.320 792.399,1242.323 771.452,1162.875 780.332 M1138.786 1404.247 C 1012.073 1417.267,872.613 1465.965,810.114 1519.013 C 762.270 1559.624,748.075 1593.456,748.023 1667.000 L 748.000 1700.000 1200.582 1700.000 L 1653.164 1700.000 1651.000 1649.895 C 1649.095 1605.778,1647.506 1597.054,1637.705 1576.895 C 1623.850 1548.396,1589.191 1513.817,1552.829 1492.215 C 1448.402 1430.176,1265.213 1391.255,1138.786 1404.247 " fill="#1D1E23" stroke="none" fill-rule="evenodd"/></svg>