<svg viewBox="0 0 2400 2400" fill="none" xmlns="http://www.w3.org/2000/svg"><path d="M650.000 307.770 C 600.375 312.480,545.065 338.822,499.247 379.568 C 456.394 417.677,417.273 485.075,407.284 538.000 C 403.033 560.529,402.078 691.452,402.399 1208.000 C 402.840 1917.845,401.128 1870.561,428.364 1924.899 C 459.794 1987.603,508.721 2037.814,566.000 2066.146 C 633.215 2099.393,583.258 2096.807,1198.000 2098.868 L 1746.000 2100.706 1782.000 2087.965 C 1829.618 2071.113,1856.818 2056.267,1886.511 2030.922 C 1937.946 1987.018,1964.856 1947.562,1987.612 1882.681 L 2000.000 1847.363 2000.000 1200.000 L 2000.000 552.637 1987.665 517.319 C 1958.393 433.509,1914.016 379.679,1839.125 337.137 C 1781.961 304.664,1827.858 306.995,1222.000 305.799 C 925.000 305.212,667.600 306.100,650.000 307.770 M1717.693 506.011 C 1731.389 507.246,1743.679 511.966,1758.056 521.511 C 1792.535 544.404,1792.324 543.381,1796.807 709.564 C 1801.324 876.987,1797.876 1780.278,1792.565 1820.937 C 1788.562 1851.578,1777.481 1869.454,1753.086 1884.621 C 1738.176 1893.891,1736.132 1894.038,1578.000 1897.282 C 1373.680 1901.473,683.072 1897.602,664.000 1892.160 C 644.834 1886.690,620.239 1865.549,613.064 1848.377 C 602.595 1823.321,599.097 1589.588,601.564 1080.000 C 602.826 819.300,605.455 593.879,607.406 579.063 C 611.442 548.424,622.541 530.533,646.914 515.379 C 661.978 506.014,662.254 505.997,836.000 503.780 C 1022.797 501.397,1685.110 503.073,1717.693 506.011 M1127.908 789.381 C 1054.155 815.419,997.873 878.939,982.044 954.000 C 965.979 1030.175,987.238 1100.033,1043.618 1156.344 C 1134.276 1246.890,1264.583 1246.759,1356.383 1156.029 C 1427.914 1085.333,1443.369 993.207,1399.277 900.353 C 1390.412 881.683,1377.906 865.225,1356.382 843.900 C 1309.140 797.097,1265.513 779.934,1194.160 780.084 C 1162.614 780.151,1148.403 782.145,1127.908 789.381 M1120.000 1406.636 C 973.156 1429.347,854.192 1475.475,796.822 1531.947 C 761.206 1567.005,748.000 1603.319,748.000 1666.197 L 748.000 1700.000 1200.549 1700.000 L 1653.098 1700.000 1650.919 1653.000 C 1648.052 1591.185,1641.836 1574.336,1609.090 1539.623 C 1579.977 1508.763,1545.464 1485.440,1500.559 1466.281 C 1402.507 1424.449,1298.132 1403.600,1191.487 1404.545 C 1157.669 1404.844,1125.500 1405.785,1120.000 1406.636 " fill="#1D1E23" stroke="none" fill-rule="evenodd"/></svg>