<svg viewBox="0 0 2400 2400" fill="none" xmlns="http://www.w3.org/2000/svg"><path d="M400.000 1200.000 L 400.000 2100.000 1200.000 2100.000 L 2000.000 2100.000 2000.000 1200.000 L 2000.000 300.000 1200.000 300.000 L 400.000 300.000 400.000 1200.000 M1800.000 1200.000 L 1800.000 1900.000 1200.000 1900.000 L 600.000 1900.000 600.000 1200.000 L 600.000 500.000 1200.000 500.000 L 1800.000 500.000 1800.000 1200.000 M1153.375 779.901 C 1090.013 793.445,1029.118 840.213,1000.520 897.295 C 935.455 1027.167,1005.743 1182.248,1145.840 1217.928 C 1263.707 1247.946,1387.561 1173.399,1417.928 1054.160 C 1440.411 965.882,1401.756 864.142,1327.065 815.007 C 1289.009 789.971,1255.310 779.219,1210.130 777.698 C 1188.058 776.955,1162.519 777.947,1153.375 779.901 M1132.000 1404.462 C 1077.080 1410.730,1014.918 1424.371,962.167 1441.730 C 852.629 1477.775,786.761 1522.792,760.897 1579.285 C 752.260 1598.151,750.425 1609.008,748.817 1650.765 L 746.920 1700.000 1200.000 1700.000 L 1653.080 1700.000 1651.183 1650.765 C 1649.575 1609.008,1647.740 1598.151,1639.103 1579.285 C 1613.239 1522.792,1547.371 1477.775,1437.833 1441.730 C 1332.896 1407.198,1224.139 1393.946,1132.000 1404.462 " fill="#1D1E23" stroke="none" fill-rule="evenodd"/></svg>