<svg viewBox="0 0 2400 2400" fill="none" xmlns="http://www.w3.org/2000/svg"><path d="M677.606 311.740 L 609.213 314.000 571.251 332.854 C 529.531 353.575,487.152 389.246,459.033 427.309 C 438.887 454.580,414.237 507.232,408.148 536.000 C 404.684 552.364,403.812 725.556,404.745 1212.000 L 406.000 1866.000 415.304 1892.000 C 431.784 1938.053,451.223 1967.966,489.629 2006.370 C 528.830 2045.570,564.946 2069.323,608.114 2084.298 C 633.066 2092.954,641.214 2093.387,834.000 2096.314 C 944.000 2097.983,1194.543 2099.496,1390.762 2099.675 L 1747.523 2100.000 1776.762 2089.561 C 1834.599 2068.911,1867.339 2048.769,1906.000 2010.052 C 1945.237 1970.758,1961.585 1946.060,1983.609 1892.801 L 1998.000 1858.000 1999.035 1205.132 L 2000.071 552.263 1986.441 516.047 C 1953.028 427.264,1901.973 370.191,1816.000 325.514 L 1794.000 314.082 1488.000 311.500 C 1127.718 308.460,773.704 308.565,677.606 311.740 M1754.393 521.000 C 1784.963 541.595,1787.705 549.236,1792.289 626.624 C 1796.824 703.190,1797.885 1590.003,1793.619 1738.860 C 1790.852 1835.422,1790.809 1835.780,1779.592 1855.421 C 1771.156 1870.191,1763.603 1877.415,1749.416 1884.283 C 1731.644 1892.886,1723.296 1893.665,1612.246 1897.077 C 1485.880 1900.959,777.864 1897.430,698.373 1892.521 L 650.747 1889.581 631.930 1869.117 C 616.651 1852.500,612.645 1845.021,610.618 1829.327 C 603.992 1778.038,600.387 1316.703,603.785 954.997 L 607.412 568.895 617.394 549.196 C 622.884 538.362,630.199 527.154,633.650 524.290 C 653.011 508.222,648.212 508.358,1202.548 508.176 L 1735.096 508.000 1754.393 521.000 M1150.041 784.431 C 1112.325 792.133,1080.328 810.884,1045.644 845.607 C 1008.444 882.850,991.453 913.227,981.659 960.000 C 958.581 1070.220,1037.321 1188.166,1153.840 1217.914 C 1219.700 1234.728,1294.045 1212.117,1351.685 1157.742 C 1403.790 1108.589,1420.000 1071.223,1420.000 1000.270 C 1420.000 936.286,1404.543 896.535,1362.731 852.993 C 1332.624 821.640,1301.900 800.997,1271.047 791.395 C 1242.492 782.508,1177.713 778.779,1150.041 784.431 M1116.112 1408.499 C 1079.525 1412.735,998.937 1432.061,951.286 1448.026 C 849.276 1482.202,774.995 1538.186,757.604 1594.000 C 754.176 1605.000,750.358 1633.350,749.120 1657.000 L 746.867 1700.000 1200.000 1700.000 L 1653.133 1700.000 1650.880 1657.000 C 1648.098 1603.875,1640.538 1578.459,1619.662 1552.050 C 1543.512 1455.712,1302.279 1386.942,1116.112 1408.499 " fill="#1D1E23" stroke="none" fill-rule="evenodd"/></svg>