<svg viewBox="0 0 2400 2400" fill="none" xmlns="http://www.w3.org/2000/svg"><path d="M616.307 314.279 C 518.273 340.994,433.523 431.023,407.588 536.000 C 403.113 554.112,402.238 669.329,402.634 1188.000 C 402.957 1612.216,404.527 1829.614,407.441 1853.557 C 418.000 1940.338,484.287 2025.637,576.647 2071.295 C 602.172 2083.914,617.980 2088.814,644.000 2092.173 C 666.368 2095.060,860.189 2097.314,1210.539 2098.761 L 1743.078 2100.959 1770.507 2091.831 C 1835.652 2070.152,1872.139 2047.532,1916.299 2001.446 C 1947.849 1968.521,1966.668 1937.343,1985.759 1886.372 L 2000.000 1848.349 2000.000 1200.413 L 2000.000 552.477 1989.561 523.238 C 1958.567 436.428,1914.181 381.460,1840.000 338.023 C 1823.500 328.361,1801.900 318.210,1792.000 315.465 C 1778.092 311.608,1644.879 310.234,1206.000 309.421 C 715.062 308.511,635.057 309.170,616.307 314.279 M1752.000 518.454 C 1782.940 535.970,1787.800 546.231,1791.938 602.783 C 1798.088 686.851,1800.431 1092.983,1796.917 1466.199 L 1793.489 1830.399 1784.335 1849.308 C 1772.601 1873.547,1754.281 1887.359,1727.387 1892.245 C 1668.769 1902.894,681.997 1899.887,655.653 1888.979 C 638.348 1881.814,617.176 1858.854,612.290 1841.953 C 602.943 1809.626,598.716 1429.247,602.796 987.645 L 606.661 569.291 615.740 550.537 C 630.340 520.378,646.716 510.605,687.599 507.650 C 706.520 506.283,948.800 505.352,1226.000 505.582 L 1730.000 506.000 1752.000 518.454 M1140.449 786.322 C 1070.707 805.078,1007.427 867.535,985.948 938.814 C 950.443 1056.636,1027.080 1185.532,1152.000 1218.096 C 1235.907 1239.970,1335.744 1196.584,1390.088 1114.632 C 1413.982 1078.599,1421.411 1051.955,1421.492 1002.000 C 1421.555 963.356,1420.190 954.363,1410.281 928.126 C 1404.075 911.696,1394.932 891.896,1389.963 884.126 C 1369.371 851.930,1325.742 813.823,1291.721 798.319 C 1252.214 780.315,1183.153 774.838,1140.449 786.322 M1116.000 1408.194 C 1051.900 1415.943,950.645 1444.060,894.192 1469.786 C 825.188 1501.232,776.196 1543.939,759.886 1586.862 C 753.504 1603.657,750.517 1622.335,748.989 1655.000 L 746.884 1700.000 1199.442 1700.000 L 1652.000 1700.000 1651.970 1671.000 C 1651.930 1633.154,1645.524 1594.659,1636.245 1576.517 C 1602.115 1509.781,1494.378 1450.203,1356.531 1421.835 C 1276.793 1405.426,1182.934 1400.103,1116.000 1408.194 " fill="#1D1E23" stroke="none" fill-rule="evenodd"/></svg>