<svg viewBox="0 0 2400 2400" fill="none" xmlns="http://www.w3.org/2000/svg"><path d="M662.000 302.454 C 657.600 303.348,644.534 305.994,632.964 308.334 C 544.226 326.286,458.539 398.469,423.365 484.902 C 398.933 544.938,400.000 512.286,400.000 1200.000 C 400.000 1887.714,398.933 1855.062,423.365 1915.098 C 452.108 1985.729,514.271 2047.892,584.902 2076.635 C 644.395 2100.846,622.129 2100.000,1200.000 2100.000 C 1659.962 2100.000,1732.193 2099.203,1758.135 2093.845 C 1878.020 2069.082,1969.082 1978.020,1993.845 1858.135 C 2002.867 1814.457,2003.049 585.046,1994.040 542.524 C 1973.713 446.582,1916.385 372.884,1829.632 331.172 C 1764.346 299.782,1817.099 302.313,1212.000 301.531 C 913.900 301.145,666.400 301.561,662.000 302.454 M1734.017 506.625 C 1745.651 510.589,1760.290 520.080,1770.465 530.255 C 1802.123 561.913,1800.000 513.764,1800.000 1200.000 C 1800.000 1886.236,1802.123 1838.087,1770.465 1869.745 C 1738.043 1902.168,1778.920 1900.000,1200.000 1900.000 C 621.730 1900.000,661.896 1902.106,629.895 1870.105 C 597.662 1837.873,600.000 1890.278,600.000 1200.000 C 600.000 509.576,597.650 562.140,629.967 529.823 C 661.226 498.563,620.668 500.669,1198.287 500.316 C 1668.874 500.028,1716.296 500.586,1734.017 506.625 M1153.375 779.901 C 1090.013 793.445,1029.118 840.213,1000.520 897.295 C 935.455 1027.167,1005.743 1182.248,1145.840 1217.928 C 1263.707 1247.946,1387.561 1173.399,1417.928 1054.160 C 1440.411 965.882,1401.756 864.142,1327.065 815.007 C 1289.009 789.971,1255.310 779.219,1210.130 777.698 C 1188.058 776.955,1162.519 777.947,1153.375 779.901 M1132.000 1404.462 C 1077.080 1410.730,1014.918 1424.371,962.167 1441.730 C 852.629 1477.775,786.761 1522.792,760.897 1579.285 C 752.260 1598.151,750.425 1609.008,748.817 1650.765 L 746.920 1700.000 1200.000 1700.000 L 1653.080 1700.000 1651.183 1650.765 C 1649.575 1609.008,1647.740 1598.151,1639.103 1579.285 C 1613.239 1522.792,1547.371 1477.775,1437.833 1441.730 C 1332.896 1407.198,1224.139 1393.946,1132.000 1404.462 " fill="#1D1E23" stroke="none" fill-rule="evenodd"/></svg>