<svg viewBox="0 0 2400 2400" fill="none" xmlns="http://www.w3.org/2000/svg"><path d="M300.000 1199.433 L 300.000 1500.000 376.000 1500.000 L 452.000 1500.000 452.000 1400.278 L 452.000 1300.557 565.000 1299.174 C 671.218 1297.875,679.357 1297.250,700.610 1288.755 C 744.707 1271.129,775.221 1239.276,790.812 1194.598 C 796.779 1177.498,798.000 1160.754,798.000 1096.000 L 798.000 1018.000 785.257 991.101 C 769.551 957.945,744.082 932.480,709.699 915.553 L 683.841 902.823 491.920 900.845 L 300.000 898.866 300.000 1199.433 M948.000 1199.636 L 948.000 1500.000 1024.000 1500.000 L 1100.000 1500.000 1100.000 1400.000 L 1100.000 1300.000 1155.000 1300.008 L 1210.000 1300.016 1254.297 1399.008 L 1298.594 1498.000 1370.002 1499.095 C 1409.276 1499.698,1442.751 1498.798,1444.391 1497.095 C 1446.031 1495.393,1427.847 1448.176,1403.983 1392.169 C 1360.618 1290.398,1360.598 1290.335,1369.296 1284.578 C 1401.951 1262.966,1431.329 1223.425,1442.537 1186.000 C 1452.977 1151.138,1453.046 1043.946,1442.650 1010.000 C 1429.117 965.813,1388.563 923.584,1346.000 909.358 C 1328.764 903.597,1299.881 902.438,1137.000 900.973 L 948.000 899.272 948.000 1199.636 M1746.000 903.445 C 1712.076 905.706,1702.694 907.925,1684.234 918.055 C 1656.683 933.175,1627.593 962.051,1616.197 985.594 C 1601.777 1015.380,1599.436 1051.108,1600.755 1221.269 L 1602.000 1382.000 1614.628 1408.734 C 1636.608 1455.263,1675.420 1485.483,1726.958 1496.194 C 1740.229 1498.952,1790.115 1500.054,1862.958 1499.198 C 1970.235 1497.938,1979.452 1497.257,1999.510 1489.114 C 2043.770 1471.145,2071.449 1443.721,2088.836 1400.610 C 2097.712 1378.603,2097.988 1373.762,2099.189 1219.024 C 2100.493 1050.984,2098.144 1015.217,2083.863 985.718 C 2071.125 959.403,2041.811 931.332,2011.968 916.871 L 1986.000 904.287 1886.000 902.533 C 1831.000 901.568,1768.000 901.978,1746.000 903.445 M648.000 1102.000 L 648.000 1152.000 550.000 1152.000 L 452.000 1152.000 452.000 1102.000 L 452.000 1052.000 550.000 1052.000 L 648.000 1052.000 648.000 1102.000 M1300.000 1102.000 L 1300.000 1152.000 1200.000 1152.000 L 1100.000 1152.000 1100.000 1102.000 L 1100.000 1052.000 1200.000 1052.000 L 1300.000 1052.000 1300.000 1102.000 M1948.000 1202.000 L 1948.000 1352.000 1850.000 1352.000 L 1752.000 1352.000 1752.000 1202.000 L 1752.000 1052.000 1850.000 1052.000 L 1948.000 1052.000 1948.000 1202.000 " fill="#1D1E23" stroke="none" fill-rule="evenodd"/></svg>