<svg viewBox="0 0 2400 2400" fill="none" xmlns="http://www.w3.org/2000/svg"><path d="M300.000 1199.347 L 300.000 1500.000 376.000 1500.000 L 452.000 1500.000 452.000 1400.448 L 452.000 1300.895 565.000 1299.115 C 669.004 1297.476,679.751 1296.645,700.000 1288.676 C 740.743 1272.642,773.249 1239.773,788.795 1198.892 C 795.336 1181.693,797.135 1164.390,798.977 1100.998 L 801.215 1023.996 786.571 994.366 C 769.504 959.834,741.419 931.821,706.995 914.994 L 684.480 903.989 492.240 901.341 L 300.000 898.694 300.000 1199.347 M948.000 1200.000 L 948.000 1500.000 1024.000 1500.000 L 1100.000 1500.000 1100.000 1400.000 L 1100.000 1300.000 1155.000 1300.024 L 1210.000 1300.048 1254.186 1399.024 L 1298.373 1498.000 1367.889 1499.097 C 1407.375 1499.721,1439.023 1498.577,1441.151 1496.449 C 1444.652 1492.948,1429.379 1452.477,1379.696 1333.608 L 1362.814 1293.217 1390.761 1265.608 C 1430.263 1226.585,1443.379 1198.464,1448.976 1140.797 C 1454.797 1080.815,1448.740 1019.768,1433.971 989.582 C 1420.300 961.640,1391.095 931.773,1363.642 917.660 C 1342.588 906.836,1339.610 906.453,1254.000 903.581 C 1205.600 901.956,1116.950 900.486,1057.000 900.314 L 948.000 900.000 948.000 1200.000 M1710.000 907.740 C 1688.188 913.050,1670.318 924.893,1643.808 951.607 C 1601.868 993.869,1602.769 988.670,1600.912 1199.111 L 1599.350 1376.222 1611.481 1402.145 C 1635.128 1452.679,1676.804 1485.522,1730.678 1496.078 C 1769.258 1503.638,1972.150 1499.357,1996.000 1490.480 C 2038.549 1474.643,2073.886 1439.420,2090.786 1396.000 C 2097.076 1379.841,2097.803 1360.004,2097.896 1202.000 C 2097.992 1038.759,2097.440 1024.293,2090.279 1002.450 C 2079.904 970.801,2049.456 937.960,2012.469 918.524 L 1984.830 904.000 1853.415 904.409 C 1781.137 904.635,1716.600 906.134,1710.000 907.740 M648.000 1102.000 L 648.000 1152.000 550.000 1152.000 L 452.000 1152.000 452.000 1102.000 L 452.000 1052.000 550.000 1052.000 L 648.000 1052.000 648.000 1102.000 M1300.000 1102.000 L 1300.000 1152.000 1200.000 1152.000 L 1100.000 1152.000 1100.000 1102.000 L 1100.000 1052.000 1200.000 1052.000 L 1300.000 1052.000 1300.000 1102.000 M1948.000 1202.000 L 1948.000 1352.000 1850.000 1352.000 L 1752.000 1352.000 1752.000 1202.000 L 1752.000 1052.000 1850.000 1052.000 L 1948.000 1052.000 1948.000 1202.000 " fill="#1D1E23" stroke="none" fill-rule="evenodd"/></svg>