<svg viewBox="0 0 2400 2400" fill="none" xmlns="http://www.w3.org/2000/svg"><path d="M300.000 1199.443 L 300.000 1500.000 376.000 1500.000 L 452.000 1500.000 452.000 1400.513 L 452.000 1301.027 565.000 1298.969 C 691.056 1296.673,699.005 1295.256,733.904 1268.862 C 744.852 1260.583,760.396 1245.094,768.446 1234.442 C 792.164 1203.061,796.392 1184.072,798.910 1097.624 L 801.135 1021.249 787.567 995.784 C 770.286 963.347,740.614 933.320,710.000 917.288 L 686.000 904.719 493.000 901.802 L 300.000 898.885 300.000 1199.443 M948.000 1200.000 L 948.000 1500.000 1024.000 1500.000 L 1100.000 1500.000 1100.000 1400.000 L 1100.000 1300.000 1155.000 1300.040 L 1210.000 1300.081 1254.158 1399.040 L 1298.315 1498.000 1367.247 1499.095 C 1444.457 1500.321,1444.636 1500.253,1435.760 1473.165 C 1433.027 1464.824,1415.751 1421.403,1397.369 1376.674 L 1363.947 1295.348 1390.275 1266.674 C 1404.756 1250.903,1420.874 1230.800,1426.094 1222.000 C 1456.798 1170.235,1459.766 1042.453,1431.574 986.006 C 1419.872 962.574,1381.555 926.007,1357.601 915.411 C 1341.208 908.160,1326.684 906.764,1236.487 903.769 C 1180.119 901.898,1092.150 900.284,1041.000 900.183 L 948.000 900.000 948.000 1200.000 M1727.451 907.774 C 1703.178 909.813,1693.329 912.704,1679.512 921.848 C 1654.194 938.603,1620.617 973.546,1613.525 990.521 C 1604.060 1013.172,1600.198 1084.753,1600.095 1239.440 L 1600.000 1380.880 1612.953 1405.440 C 1620.077 1418.948,1635.063 1439.253,1646.254 1450.562 C 1686.983 1491.719,1717.640 1499.928,1830.000 1499.767 C 1936.886 1499.613,1986.705 1495.277,2009.746 1484.123 C 2034.997 1471.899,2063.536 1444.977,2079.640 1418.189 C 2092.650 1396.547,2093.425 1393.065,2096.428 1342.750 C 2100.452 1275.316,2100.414 1111.634,2096.361 1052.000 C 2093.934 1016.299,2091.189 1002.004,2084.103 988.152 C 2071.754 964.014,2038.921 932.792,2009.281 917.000 L 1984.880 904.000 1871.440 904.604 C 1809.048 904.936,1744.253 906.362,1727.451 907.774 M648.000 1102.000 L 648.000 1152.000 550.000 1152.000 L 452.000 1152.000 452.000 1102.000 L 452.000 1052.000 550.000 1052.000 L 648.000 1052.000 648.000 1102.000 M1300.000 1102.000 L 1300.000 1152.000 1200.000 1152.000 L 1100.000 1152.000 1100.000 1102.000 L 1100.000 1052.000 1200.000 1052.000 L 1300.000 1052.000 1300.000 1102.000 M1948.000 1202.000 L 1948.000 1352.000 1850.000 1352.000 L 1752.000 1352.000 1752.000 1202.000 L 1752.000 1052.000 1850.000 1052.000 L 1948.000 1052.000 1948.000 1202.000 " fill="#1D1E23" stroke="none" fill-rule="evenodd"/></svg>