<svg viewBox="0 0 2400 2400" fill="none" xmlns="http://www.w3.org/2000/svg"><path d="M300.000 1199.608 L 300.000 1500.000 376.000 1500.000 L 452.000 1500.000 452.000 1400.592 L 452.000 1301.183 563.000 1298.881 C 646.780 1297.144,678.905 1295.057,694.000 1290.372 C 719.339 1282.507,754.827 1254.672,771.384 1229.675 C 791.928 1198.660,796.187 1177.893,798.797 1096.000 L 801.156 1022.000 790.016 1000.025 C 776.437 973.236,733.170 929.656,706.000 915.398 L 686.000 904.903 493.000 902.060 L 300.000 899.217 300.000 1199.608 M948.000 1199.366 L 948.000 1500.000 1024.000 1500.000 L 1100.000 1500.000 1100.000 1400.000 L 1100.000 1300.000 1155.000 1300.040 L 1210.000 1300.081 1254.157 1399.040 L 1298.314 1498.000 1361.229 1499.102 C 1423.374 1500.190,1440.000 1497.594,1440.000 1486.802 C 1440.000 1484.097,1422.910 1439.662,1402.023 1388.057 L 1364.046 1294.228 1381.373 1276.114 C 1428.927 1226.398,1441.122 1200.909,1448.878 1135.017 C 1454.409 1088.028,1449.267 1034.081,1435.859 998.422 C 1425.626 971.210,1388.447 930.840,1362.000 918.226 C 1340.055 907.758,1298.941 905.062,1109.000 901.636 L 948.000 898.731 948.000 1199.366 M1750.000 907.878 C 1712.042 909.887,1698.545 912.223,1685.487 919.042 C 1664.940 929.772,1623.318 970.929,1614.747 988.992 C 1604.734 1010.092,1600.000 1091.636,1600.000 1243.021 L 1600.000 1380.880 1612.398 1404.141 C 1628.741 1434.803,1664.277 1470.738,1689.821 1482.433 C 1718.648 1495.630,1754.945 1499.840,1840.000 1499.851 C 1977.447 1499.870,2013.648 1491.507,2053.700 1450.483 C 2095.706 1407.459,2099.462 1386.650,2099.634 1196.000 C 2099.747 1072.360,2095.550 1014.993,2084.635 990.947 C 2075.015 969.756,2041.396 936.899,2010.235 918.234 L 1986.471 904.000 1892.235 904.668 C 1840.406 905.036,1776.400 906.480,1750.000 907.878 M648.000 1102.000 L 648.000 1152.000 550.000 1152.000 L 452.000 1152.000 452.000 1102.000 L 452.000 1052.000 550.000 1052.000 L 648.000 1052.000 648.000 1102.000 M1300.000 1102.000 L 1300.000 1152.000 1200.000 1152.000 L 1100.000 1152.000 1100.000 1102.000 L 1100.000 1052.000 1200.000 1052.000 L 1300.000 1052.000 1300.000 1102.000 M1948.000 1202.000 L 1948.000 1352.000 1850.000 1352.000 L 1752.000 1352.000 1752.000 1202.000 L 1752.000 1052.000 1850.000 1052.000 L 1948.000 1052.000 1948.000 1202.000 " fill="#1D1E23" stroke="none" fill-rule="evenodd"/></svg>