<svg viewBox="0 0 2400 2400" fill="none" xmlns="http://www.w3.org/2000/svg"><path d="M1099.998 252.013 L 1099.996 406.000 1045.703 417.559 C 873.843 454.146,741.879 527.617,620.000 654.570 C 564.061 712.837,528.589 761.839,494.274 828.251 C 386.506 1036.823,371.290 1261.785,450.500 1475.457 C 521.626 1667.326,660.559 1822.590,842.000 1912.975 C 909.815 1946.758,990.693 1974.090,1058.000 1985.971 C 1087.104 1991.109,1090.452 1991.025,1095.000 1985.045 C 1098.667 1980.223,1100.000 1953.746,1100.000 1885.710 L 1100.000 1792.950 1081.000 1788.354 C 1043.643 1779.317,973.444 1754.800,941.321 1739.571 C 853.493 1697.934,759.869 1615.848,701.887 1529.644 C 665.234 1475.151,629.825 1393.266,613.826 1326.000 C 605.770 1292.128,605.770 1107.872,613.826 1074.000 C 631.464 999.843,675.495 903.880,717.556 847.923 C 752.283 801.725,821.893 735.451,868.030 704.661 C 930.741 662.810,1004.564 630.634,1075.000 614.453 L 1100.000 608.710 1100.000 804.840 L 1100.000 1000.971 1256.480 847.485 C 1342.544 763.068,1445.272 662.500,1484.766 624.000 L 1556.572 554.000 1328.286 326.013 L 1100.000 98.026 1099.998 252.013 M1759.200 782.880 C 1691.865 850.519,1688.700 854.392,1694.539 862.000 C 1703.589 873.795,1755.067 977.137,1763.894 1001.232 C 1771.096 1020.890,1778.049 1044.534,1787.938 1083.000 L 1792.308 1100.000 1885.390 1100.000 C 1998.720 1100.000,1995.366 1101.253,1988.024 1061.635 C 1968.415 955.832,1896.811 792.892,1839.157 722.880 L 1830.000 711.759 1759.200 782.880 M1808.000 1303.601 L 1790.000 1306.000 1784.806 1328.000 C 1773.385 1376.376,1753.194 1428.889,1723.307 1487.949 L 1691.907 1550.000 1759.399 1617.000 C 1796.520 1653.850,1828.857 1684.000,1831.259 1684.000 C 1836.093 1684.000,1878.592 1620.742,1901.339 1579.689 C 1933.937 1520.859,1969.773 1421.558,1986.232 1344.455 C 1996.082 1298.311,1999.008 1299.838,1902.235 1300.601 C 1860.306 1300.931,1817.900 1302.281,1808.000 1303.601 M1526.000 1700.455 C 1490.852 1727.326,1365.480 1779.089,1318.471 1786.138 L 1300.000 1788.908 1300.000 1882.717 C 1300.000 1938.815,1301.640 1979.590,1304.079 1984.147 C 1308.834 1993.032,1310.348 1992.871,1382.930 1975.735 C 1442.171 1961.749,1495.898 1942.230,1552.000 1914.312 C 1594.079 1893.372,1658.362 1855.172,1676.390 1840.392 L 1686.000 1832.513 1664.041 1809.257 C 1620.596 1763.243,1546.078 1688.002,1544.060 1688.111 C 1542.927 1688.172,1534.800 1693.727,1526.000 1700.455 " fill="#1D1E23" stroke="none" fill-rule="evenodd"/></svg>