<svg viewBox="0 0 2400 2400" fill="none" xmlns="http://www.w3.org/2000/svg"><path d="M1180.000 244.129 C 1172.300 245.471,1159.700 249.737,1152.000 253.609 C 1132.458 263.434,907.250 491.072,898.196 510.151 C 894.221 518.529,890.071 536.558,888.974 550.215 C 885.808 589.666,894.058 600.942,1009.618 715.102 C 1132.035 836.035,1152.394 853.377,1179.618 859.908 C 1218.803 869.309,1263.960 847.911,1286.746 809.145 L 1298.000 790.000 1299.322 699.469 L 1300.644 608.939 1327.322 614.850 C 1517.495 656.992,1686.168 800.113,1756.040 978.623 C 1785.338 1053.474,1792.663 1091.566,1794.928 1180.863 C 1796.524 1243.790,1795.546 1268.040,1790.088 1300.863 C 1767.942 1434.038,1700.946 1552.753,1594.080 1648.181 C 1535.650 1700.357,1489.151 1729.089,1420.000 1755.747 C 1331.891 1789.714,1314.096 1803.400,1303.723 1845.177 C 1288.377 1906.979,1334.445 1968.990,1396.000 1969.389 C 1448.893 1969.733,1586.307 1907.297,1671.210 1844.345 C 1887.547 1683.941,2008.966 1433.917,1998.692 1170.000 C 1984.273 799.617,1720.682 491.597,1354.424 417.138 L 1300.924 406.262 1299.270 359.878 C 1297.749 317.205,1296.648 311.780,1285.503 292.053 C 1266.376 258.197,1220.036 237.148,1180.000 244.129 M562.000 771.550 C 541.760 776.798,525.305 787.136,512.072 802.917 C 487.985 831.642,434.741 954.882,429.315 994.470 C 426.243 1016.888,436.128 1043.692,455.293 1064.904 C 493.546 1107.246,554.027 1110.627,595.791 1072.759 C 609.591 1060.247,615.977 1048.257,637.739 994.000 C 651.858 958.800,668.257 918.395,674.183 904.210 C 690.943 864.090,684.753 829.369,655.655 800.270 C 631.480 776.095,591.618 763.871,562.000 771.550 M508.000 1304.008 C 474.276 1310.180,444.891 1337.782,433.469 1374.015 C 426.748 1395.336,426.713 1398.182,432.883 1421.704 C 449.971 1486.856,498.104 1590.538,519.465 1608.207 C 535.097 1621.137,565.576 1632.000,586.223 1632.000 C 618.372 1632.000,653.221 1610.958,670.911 1580.864 C 680.027 1565.356,681.974 1557.375,681.853 1536.000 C 681.723 1513.097,678.573 1502.615,655.411 1448.000 C 640.949 1413.900,625.896 1377.133,621.958 1366.294 C 605.500 1320.990,557.765 1294.899,508.000 1304.008 M834.363 1722.077 C 784.597 1740.999,757.581 1794.500,771.924 1845.729 C 780.326 1875.738,798.875 1892.966,849.141 1917.452 C 958.519 1970.732,1007.171 1981.069,1044.706 1959.004 C 1084.617 1935.542,1105.210 1893.243,1096.658 1852.291 C 1091.029 1825.333,1076.044 1802.142,1056.876 1790.724 C 1048.822 1785.926,1019.680 1772.729,992.116 1761.399 C 964.552 1750.068,930.300 1735.819,916.000 1729.734 C 885.140 1716.601,855.962 1713.865,834.363 1722.077 " fill="#1D1E23" stroke="none" fill-rule="evenodd"/></svg>