<svg viewBox="0 0 2400 2400" fill="none" xmlns="http://www.w3.org/2000/svg"><path d="M1100.000 252.259 L 1100.000 406.492 1049.000 417.642 C 844.736 462.298,677.333 568.333,557.568 728.922 C 445.972 878.558,387.271 1081.167,403.635 1260.229 C 431.507 1565.230,617.857 1821.706,894.555 1935.891 C 952.939 1959.984,1030.151 1982.768,1065.789 1986.419 C 1091.365 1989.040,1091.853 1988.908,1095.893 1978.281 C 1098.245 1972.095,1100.000 1930.327,1100.000 1880.541 L 1100.000 1793.603 1061.000 1782.662 C 1011.269 1768.710,943.762 1741.343,906.538 1720.046 C 766.350 1639.836,649.937 1483.325,617.128 1330.949 C 608.141 1289.210,606.920 1122.510,615.274 1078.000 C 626.264 1019.454,663.317 932.342,702.950 871.876 C 781.551 751.958,915.621 657.717,1064.000 618.085 L 1098.000 609.004 1099.038 804.950 L 1100.076 1000.897 1260.484 843.448 C 1348.709 756.852,1451.422 656.300,1488.736 620.000 L 1556.580 554.000 1328.290 326.013 L 1100.000 98.026 1100.000 252.259 M1763.163 779.000 C 1728.043 813.650,1697.770 844.833,1695.890 848.297 C 1693.482 852.731,1702.445 875.209,1726.194 924.297 C 1756.909 987.785,1776.212 1037.400,1787.937 1083.000 L 1792.308 1100.000 1871.154 1099.826 C 1953.586 1099.644,1982.646 1096.576,1988.421 1087.448 C 1999.423 1070.058,1943.416 902.589,1897.941 816.901 C 1874.292 772.339,1837.249 716.000,1831.599 716.000 C 1829.079 716.000,1798.283 744.350,1763.163 779.000 M1793.710 1307.061 C 1791.350 1308.678,1786.211 1321.700,1782.289 1336.000 C 1768.852 1384.993,1758.897 1410.093,1725.177 1480.000 L 1691.411 1550.000 1758.149 1615.208 C 1799.048 1655.169,1827.426 1679.948,1831.444 1679.208 C 1840.359 1677.565,1886.868 1607.008,1911.338 1558.000 C 1932.764 1515.090,1966.394 1421.458,1982.251 1360.562 C 1993.793 1316.238,1993.656 1318.228,1985.714 1310.286 C 1980.366 1304.937,1965.904 1304.009,1888.714 1304.061 C 1838.821 1304.095,1796.069 1305.445,1793.710 1307.061 M1532.000 1696.245 C 1503.079 1719.574,1386.535 1769.496,1330.628 1782.503 L 1300.000 1789.628 1300.000 1864.227 C 1300.000 1905.257,1301.156 1949.891,1302.570 1963.413 L 1305.140 1988.000 1318.398 1988.000 C 1334.995 1988.000,1428.025 1964.253,1468.000 1949.812 C 1522.598 1930.089,1666.424 1854.358,1679.728 1838.328 C 1684.118 1833.038,1680.864 1827.857,1657.581 1803.064 C 1612.643 1755.209,1546.282 1687.994,1544.068 1688.089 C 1542.931 1688.138,1537.500 1691.808,1532.000 1696.245 " fill="#1D1E23" stroke="none" fill-rule="evenodd"/></svg>