<svg viewBox="0 0 2400 2400" fill="none" xmlns="http://www.w3.org/2000/svg"><path d="M1160.968 252.700 C 1134.102 267.370,1072.869 323.741,997.345 403.331 C 916.363 488.671,898.264 511.422,891.636 536.201 C 880.537 577.699,895.258 599.609,1013.839 718.090 C 1114.155 818.321,1157.731 854.570,1182.345 858.261 C 1218.794 863.727,1254.595 848.077,1280.518 815.345 C 1297.420 794.005,1299.621 779.564,1299.826 688.648 L 1300.000 611.297 1317.000 614.000 C 1344.978 618.449,1415.363 643.183,1454.280 662.240 C 1624.252 745.474,1747.765 900.338,1782.682 1074.000 C 1793.233 1126.476,1793.163 1279.604,1782.566 1327.838 C 1766.718 1399.970,1736.097 1471.132,1694.755 1531.904 C 1665.598 1574.766,1566.167 1673.205,1523.875 1701.081 C 1505.106 1713.452,1456.858 1738.831,1416.656 1757.479 C 1376.455 1776.127,1337.614 1795.921,1330.344 1801.466 C 1300.682 1824.091,1293.190 1871.206,1312.652 1912.723 C 1332.084 1954.177,1373.485 1973.160,1424.347 1963.937 C 1479.797 1953.882,1603.129 1893.183,1670.872 1842.607 C 1720.160 1805.810,1802.897 1724.487,1837.468 1678.858 C 1950.790 1529.291,2013.846 1315.352,1996.291 1140.000 C 1959.236 769.883,1719.435 502.189,1349.000 417.417 L 1300.000 406.204 1299.970 382.102 C 1299.928 348.616,1293.083 309.804,1284.122 292.238 C 1271.689 267.868,1240.475 251.055,1198.000 245.850 C 1181.610 243.842,1174.926 245.078,1160.968 252.700 M557.117 774.723 C 539.693 777.112,511.442 804.028,494.899 834.000 C 472.395 874.773,444.732 940.423,435.553 974.844 C 426.986 1006.969,426.951 1008.109,433.939 1026.844 C 449.404 1068.307,503.261 1104.734,539.238 1098.065 C 556.933 1094.784,588.519 1078.234,599.523 1066.476 C 616.299 1048.550,667.285 928.825,678.218 881.685 C 683.191 860.241,683.269 853.994,678.730 840.818 C 662.636 794.106,612.897 767.073,557.117 774.723 M497.369 1307.584 C 471.529 1314.242,445.532 1343.519,433.932 1379.025 C 428.134 1396.771,427.800 1403.010,431.788 1419.025 C 445.166 1472.753,497.473 1582.823,519.761 1604.149 C 536.664 1620.323,560.731 1628.824,588.995 1628.605 C 625.559 1628.322,659.804 1603.545,676.830 1565.055 C 683.614 1549.718,683.964 1545.050,679.838 1524.852 C 670.562 1479.433,624.614 1368.825,602.586 1338.888 C 583.357 1312.754,534.137 1298.110,497.369 1307.584 M832.820 1724.285 C 825.570 1726.505,810.882 1736.800,800.178 1747.161 C 764.983 1781.231,758.982 1834.934,786.360 1870.828 C 804.471 1894.572,869.020 1930.328,938.000 1954.826 C 972.789 1967.181,1023.305 1969.286,1042.000 1959.159 C 1095.236 1930.323,1112.206 1859.100,1076.961 1812.420 C 1069.388 1802.390,1053.026 1792.291,1014.354 1773.780 C 922.274 1729.705,865.585 1714.249,832.820 1724.285 " fill="#1D1E23" stroke="none" fill-rule="evenodd"/></svg>