<svg viewBox="0 0 2400 2400" fill="none" xmlns="http://www.w3.org/2000/svg"><path d="M1172.285 244.441 C 1164.742 246.728,1151.242 253.693,1142.285 259.920 C 1118.025 276.784,906.230 491.781,897.900 508.000 C 893.831 515.924,889.956 534.152,888.972 550.000 C 886.203 594.600,891.805 602.096,1024.788 731.727 C 1087.922 793.269,1146.706 847.259,1155.421 851.705 C 1195.301 872.050,1237.339 864.333,1270.084 830.656 C 1297.981 801.965,1300.000 792.674,1300.000 693.024 L 1300.000 608.977 1327.000 614.567 C 1431.578 636.219,1534.465 691.763,1616.117 770.649 C 1705.732 857.229,1762.129 959.801,1788.406 1084.000 C 1801.291 1144.901,1801.319 1255.888,1788.464 1316.000 C 1762.064 1439.450,1711.027 1533.486,1622.252 1622.242 C 1551.509 1692.970,1485.402 1734.435,1390.194 1767.797 C 1347.835 1782.640,1333.092 1791.148,1320.711 1807.894 C 1278.901 1864.445,1304.930 1947.256,1370.507 1966.320 C 1396.967 1974.012,1411.557 1971.998,1466.000 1953.140 C 1568.738 1917.553,1671.184 1854.755,1751.620 1778.057 C 1909.649 1627.372,1999.809 1417.819,1999.967 1200.842 C 2000.244 819.523,1729.185 489.999,1355.001 416.764 L 1300.002 406.000 1300.001 365.503 C 1300.000 321.286,1294.726 300.284,1278.172 278.581 C 1257.032 250.865,1205.692 234.312,1172.285 244.441 M551.699 774.196 C 523.181 782.982,505.683 803.334,479.393 858.292 C 455.017 909.252,428.000 984.156,428.000 1000.781 C 428.000 1023.630,440.268 1051.636,458.079 1069.447 C 496.990 1108.359,557.332 1109.700,597.357 1072.543 C 611.565 1059.353,617.190 1048.599,632.359 1005.622 C 639.010 986.779,653.350 951.975,664.226 928.279 C 679.426 895.162,683.991 880.663,683.961 865.598 C 683.879 824.571,654.480 785.880,614.274 773.885 C 590.291 766.730,575.695 766.803,551.699 774.196 M500.575 1304.348 C 464.903 1315.245,438.930 1344.019,431.109 1381.304 C 426.493 1403.309,426.863 1405.503,443.537 1454.992 C 461.096 1507.107,493.857 1579.112,508.452 1597.666 C 522.507 1615.534,549.840 1628.748,577.304 1630.952 C 622.027 1634.542,661.709 1609.213,677.938 1566.718 C 689.193 1537.248,685.069 1513.332,659.161 1457.818 C 646.887 1431.518,632.654 1396.806,627.532 1380.680 C 616.857 1347.070,599.179 1323.825,574.860 1311.418 C 556.062 1301.828,520.044 1298.400,500.575 1304.348 M825.778 1725.495 C 762.673 1754.880,747.196 1840.126,796.496 1886.779 C 823.383 1912.222,966.159 1972.000,1000.043 1972.000 C 1022.125 1972.000,1043.674 1963.295,1062.404 1946.809 C 1095.449 1917.721,1106.946 1878.978,1094.052 1840.158 C 1081.766 1803.166,1061.006 1785.805,1007.714 1767.952 C 993.571 1763.214,961.190 1749.587,935.755 1737.669 C 881.186 1712.100,859.661 1709.717,825.778 1725.495 " fill="#1D1E23" stroke="none" fill-rule="evenodd"/></svg>