<svg viewBox="0 0 2400 2400" fill="none" xmlns="http://www.w3.org/2000/svg"><path d="M1205.729 195.023 C 1157.478 241.372,1056.231 341.231,980.735 416.933 L 843.470 554.573 1038.735 744.538 C 1266.227 965.854,1291.594 989.738,1295.267 986.069 C 1296.770 984.568,1298.900 899.113,1300.000 796.170 L 1302.000 609.001 1336.000 617.852 C 1512.587 663.820,1660.049 784.847,1739.966 949.399 C 1773.913 1019.298,1784.312 1056.865,1788.833 1125.936 C 1794.153 1207.209,1790.440 1301.076,1780.285 1342.000 C 1770.035 1383.310,1752.692 1427.580,1727.945 1475.603 C 1677.874 1572.768,1572.969 1678.631,1476.818 1729.022 C 1440.470 1748.071,1357.442 1779.411,1320.517 1788.021 L 1299.034 1793.030 1300.690 1890.354 C 1301.600 1943.883,1303.705 1989.039,1305.367 1990.701 C 1310.463 1995.797,1374.583 1980.533,1444.000 1957.698 C 1578.790 1913.359,1676.785 1852.143,1774.111 1751.485 C 1889.985 1631.642,1960.663 1487.913,1990.866 1310.696 C 2000.365 1254.961,2000.259 1136.732,1990.663 1084.000 C 1957.896 903.950,1885.405 761.216,1766.113 641.866 C 1648.177 523.873,1519.094 454.238,1349.693 417.225 L 1300.000 406.368 1299.719 266.184 C 1299.564 189.083,1298.092 122.569,1296.448 118.376 C 1293.910 111.906,1280.179 123.507,1205.729 195.023 M543.014 750.347 C 508.886 803.214,488.414 841.320,466.691 892.407 C 432.732 972.272,402.175 1083.775,411.651 1093.251 C 414.454 1096.054,450.183 1098.213,511.718 1099.298 L 607.426 1100.985 611.861 1083.492 C 627.304 1022.570,664.272 933.006,697.083 877.023 L 711.133 853.051 639.872 781.872 L 568.611 710.694 543.014 750.347 M412.430 1303.650 C 408.213 1306.320,407.530 1312.229,409.620 1327.983 C 415.845 1374.908,463.209 1509.493,496.200 1574.000 C 514.360 1609.508,562.678 1684.000,567.550 1684.000 C 569.265 1684.000,601.731 1653.850,639.698 1617.000 L 708.729 1550.000 676.675 1484.000 C 643.925 1416.566,624.864 1367.444,615.986 1327.596 L 610.994 1305.192 556.864 1302.596 C 481.812 1298.997,419.055 1299.454,412.430 1303.650 M783.826 1759.826 C 746.522 1797.130,716.000 1829.472,716.000 1831.697 C 716.000 1843.855,812.026 1900.775,881.984 1930.085 C 963.910 1964.409,1080.032 1997.568,1088.534 1989.066 C 1096.764 1980.836,1099.651 1950.271,1099.826 1869.511 L 1100.000 1789.022 1083.000 1786.309 C 1042.488 1779.841,939.788 1739.184,883.123 1707.180 C 868.340 1698.831,855.212 1692.000,853.949 1692.000 C 852.686 1692.000,821.130 1722.522,783.826 1759.826 " fill="#1D1E23" stroke="none" fill-rule="evenodd"/></svg>