<svg viewBox="0 0 2400 2400" fill="none" xmlns="http://www.w3.org/2000/svg"><path d="M1100.000 252.207 L 1100.000 406.388 1050.729 415.394 C 807.326 459.880,592.629 623.627,482.006 849.151 C 373.346 1070.675,372.612 1324.476,479.989 1547.148 C 518.957 1627.959,559.696 1686.387,623.785 1753.379 C 737.700 1872.455,881.142 1950.928,1045.432 1984.050 C 1067.120 1988.423,1088.270 1992.000,1092.432 1992.000 C 1099.654 1992.000,1100.000 1987.431,1100.000 1892.076 L 1100.000 1792.152 1089.000 1789.659 C 960.666 1760.563,869.437 1712.570,783.315 1628.844 C 693.707 1541.730,638.019 1440.315,611.531 1316.000 C 604.101 1281.132,602.581 1261.435,602.581 1200.000 C 602.581 1138.565,604.101 1118.868,611.531 1084.000 C 638.073 959.435,694.313 857.185,783.883 770.649 C 865.535 691.763,968.422 636.219,1073.000 614.567 L 1100.000 608.977 1100.000 804.902 L 1100.000 1000.827 1289.000 815.804 C 1392.950 714.042,1495.547 613.497,1516.994 592.372 L 1555.989 553.962 1327.994 325.994 L 1100.000 98.026 1100.000 252.207 M1759.330 782.880 L 1688.660 854.000 1702.587 874.000 C 1720.491 899.713,1757.112 974.501,1768.200 1008.000 C 1772.934 1022.300,1779.914 1048.400,1783.711 1066.000 L 1790.616 1098.000 1891.693 1099.069 L 1992.770 1100.139 1990.058 1079.069 C 1975.647 967.113,1907.381 806.003,1839.131 722.880 L 1830.000 711.759 1759.330 782.880 M1790.111 1305.000 C 1789.210 1307.750,1786.363 1320.800,1783.784 1334.000 C 1773.003 1389.184,1739.788 1469.375,1705.470 1523.078 C 1698.061 1534.670,1692.000 1545.490,1692.000 1547.121 C 1692.000 1548.751,1723.229 1581.277,1761.398 1619.399 L 1830.796 1688.712 1846.242 1667.670 C 1907.210 1584.615,1952.618 1486.284,1977.237 1384.000 C 1982.797 1360.900,1988.562 1332.550,1990.048 1321.000 L 1992.751 1300.000 1892.250 1300.000 C 1815.389 1300.000,1791.364 1301.176,1790.111 1305.000 M1526.192 1700.182 C 1484.803 1731.496,1384.472 1773.818,1326.153 1784.564 L 1300.000 1789.383 1300.000 1890.691 C 1300.000 1947.176,1301.574 1992.000,1303.558 1992.000 C 1313.124 1992.000,1378.150 1978.492,1410.948 1969.692 C 1504.315 1944.640,1584.770 1905.247,1685.827 1835.103 C 1689.453 1832.586,1549.794 1687.798,1544.042 1688.111 C 1542.919 1688.172,1534.886 1693.604,1526.192 1700.182 " fill="#1D1E23" stroke="none" fill-rule="evenodd"/></svg>