<svg viewBox="0 0 2400 2400" fill="none" xmlns="http://www.w3.org/2000/svg"><path d="M1156.950 252.446 C 1147.573 257.087,1132.848 268.897,1124.229 278.689 C 1105.538 299.923,1100.000 321.077,1100.000 371.234 L 1100.000 406.074 1047.000 416.875 C 739.291 479.584,500.189 706.000,424.850 1006.013 C 405.253 1084.050,402.125 1111.164,402.235 1202.000 C 402.345 1293.166,406.314 1324.679,427.956 1406.224 C 491.744 1646.571,671.064 1848.921,902.000 1941.147 C 970.338 1968.438,995.703 1974.235,1021.515 1968.458 C 1076.117 1956.239,1109.512 1900.323,1095.956 1843.815 C 1092.155 1827.973,1086.426 1818.272,1072.465 1804.041 C 1056.659 1787.929,1046.224 1782.187,1000.000 1764.164 C 907.468 1728.086,849.351 1692.398,788.622 1634.367 C 705.093 1554.546,650.851 1462.082,618.826 1344.922 C 606.016 1298.058,606.000 1297.879,606.007 1200.000 C 606.013 1105.072,606.368 1100.684,617.306 1060.000 C 648.887 942.539,697.482 857.742,780.057 776.000 C 860.899 695.975,964.891 638.742,1073.000 614.777 L 1100.000 608.792 1100.095 689.396 C 1100.202 779.148,1102.402 794.192,1118.850 817.593 C 1142.885 851.792,1176.308 865.061,1221.385 858.301 C 1245.484 854.688,1276.058 828.329,1402.570 702.099 C 1510.305 594.604,1511.927 592.382,1511.978 552.263 C 1512.021 518.024,1502.042 505.363,1373.842 377.004 C 1296.123 299.189,1247.867 253.865,1238.626 250.004 C 1217.211 241.056,1177.566 242.241,1156.950 252.446 M1783.511 774.079 C 1773.250 777.334,1758.052 786.708,1749.360 795.144 C 1726.399 817.427,1717.978 837.060,1718.113 868.000 C 1718.213 890.882,1721.145 900.716,1742.558 950.000 C 1755.940 980.800,1770.013 1015.538,1773.831 1027.196 C 1782.447 1053.503,1811.784 1084.201,1837.806 1094.139 C 1870.900 1106.777,1910.639 1097.547,1939.351 1070.552 C 1974.425 1037.575,1978.429 1001.829,1954.197 938.000 C 1935.339 888.326,1898.130 808.988,1888.900 798.772 C 1868.075 775.724,1816.456 763.629,1783.511 774.079 M1844.493 1304.008 C 1814.214 1311.157,1786.940 1338.598,1773.703 1375.232 C 1769.973 1385.554,1757.075 1417.400,1745.042 1446.000 C 1710.888 1527.178,1708.857 1548.863,1731.995 1585.348 C 1754.754 1621.235,1795.860 1637.780,1838.534 1628.230 C 1864.553 1622.407,1880.481 1609.714,1900.355 1578.965 C 1919.690 1549.050,1953.865 1468.024,1964.577 1426.700 C 1972.690 1395.402,1972.736 1393.690,1966.042 1372.194 C 1950.459 1322.155,1896.305 1291.775,1844.493 1304.008 M1506.000 1717.463 C 1497.200 1720.342,1480.223 1727.687,1468.273 1733.785 C 1456.323 1739.883,1430.223 1751.172,1410.273 1758.873 C 1363.016 1777.114,1344.528 1786.531,1330.634 1799.440 C 1291.018 1836.245,1291.296 1899.677,1331.249 1939.630 C 1353.402 1961.783,1377.648 1970.340,1408.058 1966.739 C 1454.214 1961.272,1577.652 1908.972,1602.570 1884.325 C 1649.612 1837.794,1637.082 1759.515,1577.422 1727.216 C 1553.260 1714.135,1527.092 1710.562,1506.000 1717.463 " fill="#1D1E23" stroke="none" fill-rule="evenodd"/></svg>