<svg viewBox="0 0 2400 2400" fill="none" xmlns="http://www.w3.org/2000/svg"><path d="M1100.000 252.050 L 1100.000 406.074 1045.000 417.232 C 886.304 449.426,748.904 523.254,634.195 637.968 C 543.648 728.519,482.360 827.833,441.808 949.724 C 384.736 1121.271,386.173 1292.148,446.135 1464.000 C 527.716 1697.816,713.531 1880.543,948.000 1957.527 C 1019.280 1980.930,1091.299 1995.551,1096.310 1987.635 C 1098.272 1984.536,1099.905 1939.545,1099.939 1887.656 L 1100.000 1793.311 1059.000 1782.349 C 942.799 1751.278,858.727 1703.393,777.902 1622.243 C 696.673 1540.687,648.502 1456.027,617.306 1340.000 C 606.366 1299.312,606.014 1294.939,606.014 1200.000 C 606.014 1105.061,606.366 1100.688,617.306 1060.000 C 648.887 942.539,697.482 857.742,780.057 776.000 C 860.899 695.975,964.891 638.742,1073.000 614.777 L 1100.000 608.792 1100.000 804.881 L 1100.000 1000.970 1252.447 851.485 C 1336.293 769.268,1439.025 668.700,1480.740 628.000 L 1556.586 554.000 1328.293 326.013 L 1100.000 98.026 1100.000 252.050 M1759.296 782.880 L 1688.593 854.000 1698.734 868.000 C 1704.312 875.700,1722.035 909.000,1738.119 942.000 C 1760.205 987.313,1770.283 1013.750,1779.290 1050.000 L 1791.217 1098.000 1891.609 1099.069 C 2007.384 1100.301,1996.007 1106.062,1985.672 1051.442 C 1966.099 947.997,1896.733 792.393,1839.203 722.880 L 1830.000 711.759 1759.296 782.880 M1797.764 1302.723 C 1791.230 1304.019,1788.484 1309.489,1784.480 1329.178 C 1773.276 1384.285,1742.363 1460.462,1705.730 1523.239 L 1691.002 1548.478 1760.173 1618.060 C 1798.217 1656.330,1830.788 1686.749,1832.553 1685.658 C 1834.318 1684.568,1848.611 1664.459,1864.316 1640.973 C 1918.266 1560.292,1959.193 1463.315,1981.765 1362.671 C 1997.561 1292.242,2007.774 1299.908,1899.000 1300.545 C 1847.850 1300.844,1802.294 1301.824,1797.764 1302.723 M1526.000 1700.447 C 1488.046 1729.445,1369.428 1778.497,1318.957 1786.066 L 1300.000 1788.908 1300.061 1885.454 C 1300.095 1938.554,1301.682 1984.462,1303.588 1987.470 C 1306.461 1992.005,1315.806 1991.074,1358.266 1982.022 C 1428.164 1967.119,1484.294 1947.964,1546.000 1917.954 C 1598.483 1892.429,1684.000 1839.490,1684.000 1832.525 C 1684.000 1828.244,1548.546 1687.940,1544.579 1688.111 C 1543.160 1688.172,1534.800 1693.724,1526.000 1700.447 " fill="#1D1E23" stroke="none" fill-rule="evenodd"/></svg>