<svg viewBox="0 0 2400 2400" fill="none" xmlns="http://www.w3.org/2000/svg"><path d="M1166.510 249.628 C 1143.687 258.124,1123.353 276.294,1112.018 298.319 C 1103.479 314.912,1101.792 324.345,1100.590 362.213 L 1099.180 406.640 1062.590 413.887 C 836.827 458.606,651.983 580.405,531.253 764.000 C 475.967 848.074,435.673 947.650,413.548 1054.876 C 403.995 1101.169,402.992 1114.504,402.929 1196.000 C 402.851 1297.007,407.418 1333.170,430.343 1413.054 C 500.048 1655.943,673.674 1849.584,904.000 1941.313 C 985.257 1973.674,1010.372 1976.986,1044.273 1959.810 C 1085.946 1938.698,1109.655 1881.992,1094.516 1839.639 C 1082.237 1805.290,1058.274 1787.026,990.000 1759.981 C 902.293 1725.238,837.621 1683.024,776.000 1620.293 C 707.410 1550.467,662.606 1476.411,629.016 1377.346 L 610.249 1322.000 608.814 1214.000 C 607.893 1144.754,608.982 1097.822,611.849 1083.210 C 625.477 1013.745,673.858 906.057,717.556 847.923 C 752.283 801.725,821.893 735.451,868.030 704.661 C 930.741 662.810,1004.564 630.634,1075.000 614.453 L 1100.000 608.710 1100.000 687.483 C 1100.000 739.876,1101.772 773.089,1105.292 786.659 C 1120.192 844.100,1186.861 876.756,1238.347 851.832 C 1273.024 835.045,1487.926 623.111,1504.113 589.737 C 1514.342 568.646,1514.280 540.150,1503.961 519.923 C 1499.539 511.256,1473.604 480.126,1446.327 450.744 C 1398.929 399.689,1270.516 274.251,1246.659 255.701 C 1232.091 244.373,1189.328 241.133,1166.510 249.628 M1771.707 779.660 C 1754.796 788.895,1729.394 815.990,1723.376 831.209 C 1721.030 837.144,1719.056 853.700,1718.990 868.000 C 1718.881 891.586,1721.883 901.243,1751.317 972.000 C 1781.924 1045.575,1785.018 1051.180,1805.860 1070.806 C 1836.550 1099.704,1864.457 1106.540,1900.222 1093.922 C 1923.770 1085.614,1942.635 1070.431,1956.421 1048.692 C 1978.623 1013.682,1971.868 973.805,1926.582 872.548 C 1898.578 809.933,1888.124 794.291,1866.996 783.388 C 1842.589 770.795,1791.592 768.799,1771.707 779.660 M1848.358 1304.552 C 1826.674 1308.547,1803.907 1323.844,1790.658 1343.321 C 1779.790 1359.298,1732.703 1472.701,1722.395 1507.726 C 1714.126 1535.817,1714.434 1550.165,1723.746 1570.672 C 1753.832 1636.936,1844.367 1651.627,1886.924 1597.151 C 1912.905 1563.895,1947.360 1487.581,1964.341 1425.686 C 1972.810 1394.816,1972.846 1393.616,1965.926 1373.256 C 1956.405 1345.248,1940.116 1326.527,1914.918 1314.638 C 1889.968 1302.866,1872.162 1300.167,1848.358 1304.552 M1459.767 1737.242 C 1434.338 1748.659,1399.238 1763.807,1381.767 1770.904 C 1324.429 1794.195,1302.296 1821.237,1302.296 1868.000 C 1302.296 1886.958,1304.652 1898.479,1310.993 1910.538 C 1329.355 1945.451,1362.500 1967.799,1396.000 1967.853 C 1433.242 1967.913,1567.621 1914.137,1598.937 1886.641 C 1632.216 1857.422,1640.140 1808.599,1618.094 1768.608 C 1599.720 1735.277,1566.583 1715.841,1528.812 1716.242 C 1510.244 1716.439,1497.398 1720.347,1459.767 1737.242 " fill="#1D1E23" stroke="none" fill-rule="evenodd"/></svg>