<svg viewBox="0 0 2400 2400" fill="none" xmlns="http://www.w3.org/2000/svg"><path d="M1067.005 331.075 L 843.724 554.149 1068.433 774.075 C 1192.023 895.034,1294.685 994.600,1296.571 995.333 C 1298.457 996.067,1300.000 909.376,1300.000 802.688 L 1300.000 608.710 1325.000 614.452 C 1505.094 655.821,1662.545 781.134,1739.513 944.356 C 1760.893 989.694,1771.157 1017.931,1783.791 1066.164 C 1791.041 1093.844,1792.000 1109.483,1792.000 1200.000 C 1792.000 1290.517,1791.041 1306.156,1783.791 1333.836 C 1749.936 1463.089,1690.580 1560.826,1592.000 1649.643 C 1519.425 1715.030,1426.109 1762.443,1319.000 1788.354 L 1300.000 1792.950 1300.061 1887.475 C 1300.095 1939.464,1301.717 1984.519,1303.667 1987.598 C 1306.629 1992.277,1311.382 1992.404,1332.606 1988.374 C 1663.583 1925.528,1909.488 1688.870,1981.378 1364.000 C 2013.957 1216.772,2002.875 1069.922,1948.026 922.070 C 1905.025 806.154,1848.706 720.661,1755.427 629.703 C 1641.267 518.381,1515.530 451.883,1354.297 417.559 L 1300.004 406.000 1300.002 257.000 C 1300.000 142.815,1298.865 108.000,1295.143 108.000 C 1292.472 108.000,1189.810 208.384,1067.005 331.075 M535.890 760.386 C 479.232 846.089,438.941 942.292,415.646 1047.490 C 406.678 1087.992,406.638 1089.112,413.994 1094.490 C 419.883 1098.796,441.865 1100.000,514.610 1100.000 L 607.692 1100.000 612.032 1083.000 C 631.837 1005.437,659.654 937.243,695.014 879.568 L 711.218 853.136 639.954 781.954 L 568.689 710.771 535.890 760.386 M408.000 1307.648 C 408.000 1355.968,456.561 1501.828,498.108 1578.301 C 522.271 1622.777,562.915 1684.000,568.278 1684.000 C 570.712 1684.000,603.261 1653.850,640.609 1617.000 L 708.515 1550.000 680.642 1496.000 C 649.471 1435.611,626.356 1376.636,617.051 1333.761 L 610.841 1305.145 568.798 1302.572 C 545.675 1301.158,500.036 1300.000,467.378 1300.000 C 411.577 1300.000,408.000 1300.461,408.000 1307.648 M783.125 1759.714 C 745.464 1797.227,715.914 1829.786,716.873 1832.714 C 719.834 1841.761,756.119 1866.905,802.000 1891.705 C 882.949 1935.458,950.817 1961.565,1037.214 1982.186 C 1104.186 1998.171,1097.812 2007.725,1099.068 1889.464 L 1100.135 1788.929 1081.597 1786.149 C 1038.490 1779.684,927.365 1735.192,882.257 1706.337 C 869.930 1698.452,857.879 1692.000,855.476 1692.000 C 853.073 1692.000,820.515 1722.471,783.125 1759.714 " fill="#1D1E23" stroke="none" fill-rule="evenodd"/></svg>