<svg viewBox="0 0 2400 2400" fill="none" xmlns="http://www.w3.org/2000/svg"><path d="M1180.000 243.598 C 1147.029 250.597,1116.563 276.817,1106.257 307.061 C 1102.203 318.960,1100.000 339.677,1100.000 365.907 L 1100.000 406.388 1050.729 415.394 C 988.733 426.725,907.309 453.791,848.895 482.485 C 574.483 617.282,400.000 896.177,400.000 1200.000 C 400.000 1541.970,621.198 1849.062,946.000 1958.018 C 982.174 1970.152,993.769 1972.401,1011.189 1970.658 C 1100.341 1961.741,1132.139 1843.222,1059.714 1789.789 C 1053.027 1784.855,1028.564 1774.258,1005.353 1766.240 C 801.881 1695.954,657.260 1530.615,611.531 1316.000 C 604.101 1281.132,602.581 1261.435,602.581 1200.000 C 602.581 1138.565,604.101 1118.868,611.531 1084.000 C 638.073 959.435,694.313 857.185,783.883 770.649 C 865.535 691.763,968.422 636.219,1073.000 614.567 L 1100.000 608.977 1100.000 693.024 C 1100.000 746.387,1101.736 782.866,1104.755 792.943 C 1111.108 814.148,1139.887 845.447,1160.969 854.082 C 1184.198 863.595,1217.643 863.246,1240.000 853.257 C 1264.306 842.398,1493.897 617.394,1504.543 594.000 C 1508.548 585.200,1511.864 568.776,1511.912 557.503 C 1512.094 515.118,1509.816 512.090,1378.879 380.727 C 1312.396 314.027,1251.658 256.149,1243.906 252.108 C 1226.911 243.250,1199.091 239.545,1180.000 243.598 M1782.510 773.627 C 1743.737 788.063,1716.000 827.161,1716.000 867.383 C 1716.000 885.482,1719.757 897.458,1737.425 935.666 C 1749.209 961.150,1763.839 997.300,1769.937 1016.000 C 1779.376 1044.946,1784.069 1052.986,1801.512 1070.084 C 1831.604 1099.582,1865.371 1107.225,1905.379 1093.593 C 1941.482 1081.291,1972.000 1038.667,1972.000 1000.543 C 1972.000 972.851,1909.774 821.850,1888.822 798.698 C 1865.919 773.390,1815.245 761.440,1782.510 773.627 M1840.187 1304.686 C 1822.354 1309.804,1799.113 1326.592,1788.641 1341.921 C 1784.102 1348.564,1773.872 1372.748,1765.906 1395.662 C 1757.940 1418.577,1744.195 1451.702,1735.359 1469.274 C 1708.617 1522.462,1710.213 1563.211,1740.380 1597.483 C 1761.885 1621.914,1790.247 1633.557,1822.036 1631.005 C 1868.396 1627.284,1888.254 1609.306,1920.347 1542.000 C 1953.639 1472.178,1973.549 1411.366,1970.470 1388.902 C 1962.025 1327.292,1900.345 1287.421,1840.187 1304.686 M1510.000 1715.773 C 1503.400 1717.398,1483.485 1726.066,1465.744 1735.034 C 1448.004 1744.003,1416.672 1757.213,1396.118 1764.390 C 1347.555 1781.349,1325.071 1796.646,1312.472 1821.302 C 1278.144 1888.479,1324.297 1968.657,1397.223 1968.537 C 1431.694 1968.481,1550.025 1922.940,1593.253 1893.093 C 1627.857 1869.200,1641.523 1817.621,1624.026 1776.947 C 1612.267 1749.614,1586.688 1726.296,1559.654 1718.268 C 1537.033 1711.550,1528.828 1711.138,1510.000 1715.773 " fill="#1D1E23" stroke="none" fill-rule="evenodd"/></svg>