<svg viewBox="0 0 2400 2400" fill="none" xmlns="http://www.w3.org/2000/svg"><path d="M1070.995 327.004 L 843.989 554.037 1071.995 777.224 L 1300.000 1000.411 1300.000 804.694 L 1300.000 608.977 1327.000 614.567 C 1431.578 636.219,1534.465 691.763,1616.117 770.649 C 1705.723 857.219,1762.086 959.723,1788.420 1084.000 C 1795.785 1118.759,1797.319 1138.759,1797.319 1200.000 C 1797.319 1261.241,1795.785 1281.241,1788.420 1316.000 C 1762.139 1440.028,1706.329 1541.695,1616.685 1628.844 C 1530.563 1712.570,1439.334 1760.563,1311.000 1789.659 L 1300.000 1792.152 1300.000 1892.076 C 1300.000 1987.431,1300.346 1992.000,1307.568 1992.000 C 1319.062 1992.000,1390.648 1977.073,1420.000 1968.556 C 1640.213 1904.657,1820.948 1752.345,1920.047 1547.148 C 2026.568 1326.584,2026.520 1073.316,1919.917 852.582 C 1810.333 625.676,1594.335 460.184,1349.317 415.402 L 1300.092 406.405 1299.046 253.188 L 1298.000 99.970 1070.995 327.004 M551.146 736.645 C 509.442 795.186,474.507 860.571,450.268 925.455 C 434.479 967.719,414.267 1044.634,409.901 1079.069 L 407.230 1100.139 508.307 1099.069 L 609.384 1098.000 616.355 1066.000 C 630.093 1002.941,658.599 934.554,694.081 879.533 L 711.149 853.066 640.179 782.178 L 569.209 711.290 551.146 736.645 M409.942 1320.931 C 423.986 1430.039,482.238 1570.984,553.171 1667.478 L 568.959 1688.956 638.479 1619.521 C 676.716 1581.332,708.000 1548.751,708.000 1547.121 C 708.000 1545.490,701.427 1533.880,693.393 1521.320 C 660.248 1469.507,629.308 1394.340,616.289 1334.000 L 609.384 1302.000 508.307 1300.931 L 407.230 1299.861 409.942 1320.931 M782.082 1759.918 C 713.244 1828.835,710.576 1832.094,718.123 1838.010 C 810.347 1910.300,963.362 1974.737,1079.000 1989.982 L 1100.000 1992.751 1100.000 1890.830 L 1100.000 1788.908 1081.000 1786.177 C 1031.074 1779.001,926.752 1736.260,876.598 1702.434 C 864.827 1694.496,854.908 1688.000,854.556 1688.000 C 854.205 1688.000,821.591 1720.363,782.082 1759.918 " fill="#1D1E23" stroke="none" fill-rule="evenodd"/></svg>