<svg viewBox="0 0 2400 2400" fill="none" xmlns="http://www.w3.org/2000/svg"><path d="M1068.950 329.050 L 843.927 554.099 1070.964 776.358 L 1298.000 998.618 1299.037 803.713 L 1300.075 608.809 1327.037 614.786 C 1436.059 638.952,1542.367 698.033,1624.083 779.867 C 1703.132 859.033,1751.885 945.159,1782.655 1060.000 C 1793.544 1100.639,1793.908 1105.175,1793.908 1200.000 C 1793.908 1294.825,1793.544 1299.361,1782.655 1340.000 C 1751.627 1455.802,1703.356 1540.658,1622.098 1622.243 C 1541.273 1703.393,1457.201 1751.278,1341.000 1782.349 L 1300.000 1793.311 1300.000 1890.781 C 1300.000 1972.859,1300.929 1988.607,1305.882 1990.508 C 1315.467 1994.186,1407.895 1973.103,1458.780 1955.631 C 1695.246 1874.437,1878.711 1689.145,1957.704 1451.736 C 2013.856 1282.976,2014.043 1117.601,1958.271 949.959 C 1917.370 827.018,1857.440 729.802,1766.000 638.067 C 1651.824 523.522,1514.061 449.500,1355.000 417.232 L 1300.000 406.074 1300.000 255.037 C 1300.000 171.967,1298.644 104.000,1296.987 104.000 C 1295.329 104.000,1192.713 205.272,1068.950 329.050 M547.162 742.599 C 484.195 832.661,443.035 926.752,418.235 1037.329 C 402.363 1108.097,391.005 1100.318,508.377 1099.069 L 608.755 1098.000 620.007 1053.349 C 633.772 998.731,659.162 938.078,688.650 889.372 L 710.826 852.745 639.971 781.971 L 569.116 711.198 547.162 742.599 M409.910 1323.000 C 417.944 1388.242,454.647 1496.313,494.194 1571.167 C 515.940 1612.329,556.357 1675.997,565.621 1683.685 C 569.241 1686.690,588.763 1669.427,639.780 1618.106 L 709.026 1548.450 696.375 1527.225 C 660.697 1467.370,626.700 1384.173,615.597 1329.550 L 610.627 1305.100 574.699 1302.550 C 554.939 1301.148,509.140 1300.000,472.925 1300.000 L 407.078 1300.000 409.910 1323.000 M784.672 1757.438 C 746.902 1795.432,716.000 1828.338,716.000 1830.562 C 716.000 1850.285,859.572 1927.977,954.244 1959.484 C 999.732 1974.623,1073.152 1992.000,1091.628 1992.000 C 1099.904 1992.000,1100.000 1990.836,1100.000 1890.454 L 1100.000 1788.908 1081.000 1786.191 C 1037.693 1779.996,930.701 1737.228,883.621 1707.293 C 871.730 1699.732,860.052 1692.378,857.672 1690.952 C 855.276 1689.516,822.690 1719.195,784.672 1757.438 " fill="#1D1E23" stroke="none" fill-rule="evenodd"/></svg>