<svg viewBox="0 0 2400 2400" fill="none" xmlns="http://www.w3.org/2000/svg"><path d="M1100.000 252.328 L 1100.000 406.629 1057.000 415.581 C 908.668 446.462,796.074 499.982,687.767 591.091 C 571.762 688.675,495.144 800.120,444.726 944.601 C 393.402 1091.681,387.006 1242.135,425.665 1392.973 C 501.057 1687.132,723.711 1905.659,1022.000 1978.255 C 1044.000 1983.609,1069.425 1987.992,1078.500 1987.995 C 1093.782 1988.000,1095.185 1987.077,1097.500 1975.500 C 1098.875 1968.625,1100.000 1924.705,1100.000 1877.899 L 1100.000 1792.798 1079.000 1787.855 C 1014.860 1772.758,925.108 1734.960,878.343 1703.353 C 758.435 1622.308,674.804 1512.719,629.464 1377.225 C 612.446 1326.365,608.061 1290.057,608.061 1200.000 C 608.061 1081.634,617.182 1038.423,661.835 945.257 C 700.054 865.516,738.539 814.615,805.671 755.015 C 881.446 687.744,978.917 636.956,1075.487 614.428 L 1100.000 608.710 1100.000 804.840 L 1100.000 1000.971 1260.517 843.486 C 1348.802 756.869,1451.527 656.300,1488.794 620.000 L 1556.554 554.000 1328.277 326.013 L 1100.000 98.026 1100.000 252.328 M1760.613 781.611 C 1722.876 819.739,1692.000 851.656,1692.000 852.535 C 1692.000 853.415,1707.375 884.666,1726.168 921.982 C 1756.414 982.042,1773.321 1026.129,1787.995 1083.204 L 1792.418 1100.408 1886.074 1099.204 C 1999.990 1097.740,1995.807 1099.578,1986.592 1055.022 C 1973.776 993.046,1938.507 896.690,1902.122 824.243 C 1885.747 791.638,1839.487 718.627,1832.447 714.276 C 1830.675 713.181,1798.350 743.482,1760.613 781.611 M1820.475 1303.593 L 1790.949 1306.000 1780.341 1344.010 C 1766.387 1394.008,1756.572 1418.073,1720.832 1489.924 L 1691.024 1549.848 1759.797 1617.178 C 1819.722 1675.845,1829.393 1683.831,1834.970 1679.254 C 1846.998 1669.380,1896.827 1590.061,1916.167 1550.000 C 1937.533 1505.741,1975.370 1395.412,1985.948 1346.522 C 1995.696 1301.467,1996.708 1302.107,1914.868 1301.593 C 1879.191 1301.368,1836.714 1302.268,1820.475 1303.593 M1529.002 1698.333 C 1497.612 1723.072,1386.200 1770.432,1329.035 1783.337 L 1299.521 1790.000 1300.760 1887.151 C 1301.722 1962.512,1303.190 1985.037,1307.308 1987.577 C 1317.118 1993.631,1411.791 1970.588,1478.219 1945.978 C 1542.363 1922.214,1684.000 1844.471,1684.000 1833.027 C 1684.000 1829.124,1548.361 1687.983,1544.669 1688.044 C 1543.201 1688.069,1536.151 1692.699,1529.002 1698.333 " fill="#1D1E23" stroke="none" fill-rule="evenodd"/></svg>