<svg viewBox="0 0 2400 2400" fill="none" xmlns="http://www.w3.org/2000/svg"><path d="M1170.000 246.628 C 1149.259 252.299,1082.679 313.124,986.795 413.999 C 908.208 496.677,893.706 515.894,889.690 542.672 C 884.903 574.598,892.808 590.697,937.758 640.558 C 1014.208 725.362,1140.407 843.206,1166.872 854.505 C 1182.813 861.310,1207.859 861.550,1229.536 855.104 C 1252.218 848.360,1289.805 811.321,1295.604 790.000 C 1298.069 780.936,1299.965 738.690,1299.978 692.546 L 1300.000 611.092 1318.719 613.899 C 1348.122 618.308,1406.159 638.547,1451.657 660.258 C 1628.355 744.576,1760.672 915.467,1785.946 1092.000 C 1812.019 1274.113,1778.491 1421.200,1681.429 1550.510 C 1654.405 1586.513,1593.153 1648.630,1553.982 1679.758 C 1518.102 1708.271,1487.127 1726.038,1426.847 1752.683 C 1329.494 1795.715,1315.395 1805.610,1305.906 1837.564 C 1298.360 1862.975,1298.472 1874.351,1306.515 1899.254 C 1326.508 1961.157,1384.176 1981.644,1462.000 1954.490 C 1506.966 1938.801,1591.074 1896.859,1636.000 1867.722 C 1699.253 1826.698,1765.241 1766.353,1823.779 1696.000 C 1943.797 1551.758,2012.509 1333.599,1996.793 1146.680 C 1966.845 790.492,1734.866 516.250,1387.540 426.427 C 1358.093 418.812,1326.599 411.435,1317.554 410.033 L 1301.108 407.484 1298.900 364.742 C 1295.585 300.604,1285.169 278.616,1248.701 258.768 C 1228.457 247.749,1188.461 241.580,1170.000 246.628 M548.846 776.312 C 541.611 778.510,528.990 787.214,520.799 795.655 C 496.409 820.787,447.077 925.061,433.871 979.396 C 427.536 1005.460,427.531 1008.524,433.797 1027.389 C 445.233 1061.818,482.058 1092.397,519.247 1098.344 C 542.044 1101.989,572.047 1090.914,594.150 1070.695 C 609.793 1056.386,615.850 1045.711,636.537 996.000 C 689.191 869.472,691.753 854.381,666.866 817.368 C 647.951 789.236,621.657 774.441,588.477 773.259 C 573.915 772.740,556.081 774.114,548.846 776.312 M492.704 1308.552 C 460.130 1317.936,424.329 1375.115,429.732 1409.125 C 436.252 1450.167,491.409 1574.468,514.388 1599.902 C 540.539 1628.849,591.890 1638.522,626.180 1620.961 C 648.986 1609.280,674.575 1580.148,680.122 1559.548 C 685.932 1537.970,679.991 1511.824,654.411 1446.405 C 615.178 1346.065,595.463 1317.851,557.995 1308.416 C 537.216 1303.184,511.149 1303.238,492.704 1308.552 M826.000 1727.515 C 781.549 1747.906,758.343 1800.860,773.655 1846.960 C 783.821 1877.568,802.830 1893.743,862.000 1922.131 C 937.228 1958.223,959.864 1965.468,998.296 1965.757 C 1027.481 1965.977,1032.479 1964.834,1050.190 1953.894 C 1076.741 1937.494,1092.994 1910.854,1095.219 1880.084 C 1097.253 1851.975,1088.580 1822.857,1073.249 1806.324 C 1060.806 1792.904,1003.084 1764.960,933.132 1738.491 C 878.156 1717.689,853.032 1715.115,826.000 1727.515 " fill="#1D1E23" stroke="none" fill-rule="evenodd"/></svg>