<svg viewBox="0 0 2400 2400" fill="none" xmlns="http://www.w3.org/2000/svg"><path d="M1067.933 330.440 L 843.030 554.000 920.972 630.000 C 963.841 671.800,1064.917 770.420,1145.586 849.157 C 1226.255 927.893,1293.999 991.237,1296.128 989.921 C 1298.536 988.433,1300.000 915.886,1300.000 798.119 L 1300.000 608.710 1324.894 614.517 C 1430.720 639.204,1540.082 699.684,1619.266 777.310 C 1691.172 847.801,1747.361 942.713,1778.335 1046.000 C 1788.401 1079.569,1789.258 1088.385,1791.017 1176.556 C 1793.217 1286.809,1789.807 1319.632,1770.007 1378.804 C 1737.307 1476.528,1693.914 1546.487,1620.219 1620.299 C 1567.591 1673.009,1521.618 1707.030,1463.589 1736.206 C 1431.346 1752.418,1357.099 1779.286,1320.804 1787.875 L 1299.608 1792.892 1300.804 1890.120 C 1301.462 1943.595,1303.357 1988.702,1305.016 1990.356 C 1314.489 1999.807,1467.088 1955.441,1536.214 1923.138 C 1790.101 1804.496,1958.732 1569.264,1994.283 1284.152 C 2012.379 1139.024,1982.692 982.156,1909.513 836.228 C 1841.224 700.050,1717.869 574.586,1576.000 497.011 C 1512.122 462.083,1413.162 428.450,1325.000 411.707 L 1300.000 406.959 1299.939 262.480 C 1299.905 183.016,1298.293 115.498,1296.357 112.440 C 1293.719 108.275,1236.401 162.978,1067.933 330.440 M539.952 754.330 C 483.580 840.327,437.355 949.265,415.718 1047.113 C 408.565 1079.463,407.667 1089.269,411.506 1093.113 C 415.006 1096.619,443.412 1098.339,511.984 1099.201 L 607.584 1100.401 611.987 1083.201 C 629.125 1016.258,659.962 939.663,691.020 886.894 L 711.011 852.929 639.794 781.795 L 568.578 710.661 539.952 754.330 M409.138 1306.803 C 399.428 1332.109,461.663 1515.281,506.599 1593.650 C 529.656 1633.862,563.896 1684.000,568.299 1684.000 C 570.114 1684.000,602.490 1653.850,640.246 1617.000 L 708.892 1550.000 682.378 1498.000 C 650.855 1436.177,627.493 1377.386,617.838 1335.583 L 610.812 1305.166 562.778 1302.583 C 536.359 1301.162,491.570 1300.000,463.246 1300.000 C 418.460 1300.000,411.409 1300.887,409.138 1306.803 M811.825 1731.409 C 788.821 1753.084,757.471 1784.827,742.158 1801.948 L 714.316 1833.078 730.158 1846.407 C 754.227 1866.658,826.666 1906.788,882.128 1930.596 C 932.592 1952.258,996.979 1973.228,1053.102 1986.278 C 1099.632 1997.098,1097.715 2001.329,1099.257 1884.417 L 1100.514 1789.105 1084.372 1786.523 C 1040.770 1779.551,940.210 1740.265,887.648 1709.668 C 870.955 1699.951,856.476 1692.000,855.473 1692.000 C 854.470 1692.000,834.828 1709.734,811.825 1731.409 " fill="#1D1E23" stroke="none" fill-rule="evenodd"/></svg>