<svg viewBox="0 0 2400 2400" fill="none" xmlns="http://www.w3.org/2000/svg"><path d="M646.000 303.887 C 553.449 305.965,530.180 307.659,512.000 313.647 C 424.416 342.491,353.916 408.662,319.685 494.152 C 309.325 520.024,307.031 532.700,303.575 583.160 C 297.734 668.449,301.137 1843.437,307.301 1869.395 C 332.194 1974.234,430.677 2071.122,534.665 2093.074 C 568.517 2100.220,1831.483 2100.220,1865.335 2093.074 C 1929.186 2079.595,2000.912 2031.973,2042.316 1975.569 C 2061.733 1949.118,2082.984 1904.395,2091.060 1872.990 C 2097.507 1847.915,2098.000 1799.870,2098.000 1196.000 L 2098.000 546.000 2084.814 508.217 C 2068.654 461.914,2050.247 430.971,2018.975 397.540 C 1972.985 348.377,1900.970 310.132,1847.100 306.261 C 1802.618 303.064,773.235 301.030,646.000 303.887 M1840.000 509.593 C 1863.026 522.081,1880.097 536.585,1886.623 549.204 C 1897.643 570.515,1899.696 672.712,1899.696 1200.000 C 1899.696 1706.975,1897.457 1829.993,1887.893 1848.550 C 1880.826 1862.262,1863.696 1879.828,1850.848 1886.539 C 1844.714 1889.742,1821.314 1894.021,1798.848 1896.047 C 1745.519 1900.856,654.481 1900.856,601.152 1896.047 C 578.686 1894.021,555.286 1889.742,549.152 1886.539 C 536.330 1879.842,519.176 1862.268,512.149 1848.629 C 502.491 1829.882,500.262 1708.263,500.262 1200.000 C 500.262 673.750,502.332 570.472,513.298 549.468 C 520.236 536.179,537.651 519.223,551.937 511.846 C 569.762 502.643,679.158 501.044,1258.000 501.526 C 1807.778 501.985,1826.449 502.244,1840.000 509.593 M1030.000 859.602 C 1025.600 861.540,1017.500 867.967,1012.000 873.884 L 1002.000 884.643 1002.000 1191.322 C 1002.000 1359.995,1003.448 1504.836,1005.217 1513.191 C 1009.151 1531.765,1026.747 1543.963,1049.637 1543.985 C 1061.790 1543.997,1070.254 1540.264,1087.637 1527.227 C 1156.564 1475.532,1426.542 1258.952,1455.000 1232.524 C 1466.335 1221.997,1468.000 1217.881,1468.000 1200.381 C 1468.000 1184.791,1465.991 1178.387,1459.000 1171.687 C 1438.332 1151.880,1163.605 929.480,1096.608 878.319 C 1070.262 858.201,1047.627 851.840,1030.000 859.602 " fill="#1D1E23" stroke="none" fill-rule="evenodd"/></svg>