<svg viewBox="0 0 2400 2400" fill="none" xmlns="http://www.w3.org/2000/svg"><path d="M300.000 1200.000 L 300.000 2100.000 1200.000 2100.000 L 2100.000 2100.000 2100.000 1200.000 L 2100.000 300.000 1200.000 300.000 L 300.000 300.000 300.000 1200.000 M1900.000 1200.000 L 1900.000 1900.000 1200.000 1900.000 L 500.000 1900.000 500.000 1200.000 L 500.000 500.000 1200.000 500.000 L 1900.000 500.000 1900.000 1200.000 M1000.000 1200.103 L 1000.000 1600.342 1213.000 1429.401 C 1330.150 1335.384,1441.729 1245.467,1460.953 1229.586 L 1495.907 1200.711 1472.953 1181.067 C 1445.965 1157.970,1291.366 1033.062,1121.000 896.707 L 1000.000 799.863 1000.000 1200.103 " fill="#1D1E23" stroke="none" fill-rule="evenodd"/></svg>