<svg viewBox="0 0 2400 2400" fill="none" xmlns="http://www.w3.org/2000/svg"><path d="M300.000 1200.000 L 300.000 2100.000 1200.000 2100.000 L 2100.000 2100.000 2100.000 1200.000 L 2100.000 300.000 1200.000 300.000 L 300.000 300.000 300.000 1200.000 M1900.000 1200.000 L 1900.000 1900.000 1200.000 1900.000 L 500.000 1900.000 500.000 1200.000 L 500.000 500.000 1200.000 500.000 L 1900.000 500.000 1900.000 1200.000 M1000.000 1200.048 L 1000.000 1600.199 1209.000 1432.631 C 1323.950 1340.468,1435.450 1250.680,1456.778 1233.101 L 1495.556 1201.139 1482.778 1189.158 C 1467.362 1174.703,1375.839 1100.627,1161.000 928.722 L 1000.000 799.896 1000.000 1200.048 " fill="#1D1E23" stroke="none" fill-rule="evenodd"/></svg>