<svg viewBox="0 0 2400 2400" fill="none" xmlns="http://www.w3.org/2000/svg"><path d="M552.000 307.890 C 481.758 313.799,404.236 360.997,357.732 426.166 C 335.939 456.707,314.419 502.318,307.798 532.000 C 301.551 560.007,298.254 1351.351,303.090 1662.000 L 306.390 1874.000 317.770 1902.000 C 354.606 1992.634,434.898 2065.905,524.320 2090.488 C 548.360 2097.097,591.387 2097.557,1198.000 2097.689 C 1722.620 2097.802,1850.189 2096.820,1868.000 2092.529 C 1901.972 2084.344,1959.184 2054.949,1988.549 2030.591 C 2023.946 2001.228,2048.558 1970.249,2067.929 1930.671 C 2099.321 1866.536,2096.808 1925.419,2098.971 1203.377 L 2100.908 556.753 2089.893 523.377 C 2055.452 419.014,1993.244 354.433,1889.015 314.836 L 1866.000 306.092 1226.000 305.561 C 874.000 305.269,570.700 306.317,552.000 307.890 M1817.693 506.011 C 1831.389 507.246,1843.679 511.966,1858.056 521.511 C 1892.533 544.403,1892.323 543.382,1896.815 709.564 C 1901.341 877.007,1897.842 1780.039,1892.507 1821.259 C 1888.416 1852.872,1875.049 1873.251,1850.362 1885.511 C 1825.223 1897.997,1752.712 1899.564,1200.000 1899.564 C 647.288 1899.564,574.777 1897.997,549.638 1885.511 C 523.420 1872.490,511.823 1853.504,506.793 1815.366 C 500.655 1768.822,500.608 631.241,506.743 584.953 C 511.670 547.774,521.112 531.421,546.914 515.379 L 562.000 506.000 766.000 503.800 C 986.415 501.422,1785.436 503.103,1817.693 506.011 M1026.000 863.442 C 1019.400 867.519,1010.571 874.712,1006.381 879.426 C 998.986 887.746,998.828 897.146,1001.004 1198.999 C 1002.691 1432.897,1004.469 1512.679,1008.177 1520.807 C 1013.838 1533.213,1033.777 1544.000,1051.046 1544.000 C 1057.557 1544.000,1069.885 1539.276,1078.442 1533.503 C 1114.066 1509.468,1406.810 1275.122,1446.327 1239.005 C 1465.937 1221.082,1468.000 1217.607,1468.000 1202.489 C 1468.000 1193.299,1465.214 1181.802,1461.809 1176.940 C 1447.614 1156.674,1100.898 878.274,1074.000 865.544 C 1049.856 854.117,1041.677 853.759,1026.000 863.442 " fill="#1D1E23" stroke="none" fill-rule="evenodd"/></svg>