<svg viewBox="0 0 2400 2400" fill="none" xmlns="http://www.w3.org/2000/svg"><path d="M562.000 302.462 C 557.600 303.351,544.180 306.073,532.178 308.510 C 444.459 326.324,358.270 399.130,323.365 484.902 C 298.933 544.938,300.000 512.286,300.000 1200.000 C 300.000 1887.714,298.933 1855.062,323.365 1915.098 C 352.108 1985.729,414.271 2047.892,484.902 2076.635 C 544.938 2101.067,512.286 2100.000,1200.000 2100.000 C 1888.937 2100.000,1857.266 2101.045,1916.284 2076.368 C 1986.678 2046.935,2048.138 1985.123,2076.635 1915.098 C 2101.067 1855.062,2100.000 1887.714,2100.000 1200.000 C 2100.000 642.971,2099.283 568.164,2093.679 540.831 C 2070.672 428.613,1992.472 345.914,1874.000 308.515 C 1856.165 302.885,1784.492 302.128,1212.000 301.523 C 858.900 301.150,566.400 301.572,562.000 302.462 M1834.017 506.625 C 1845.651 510.589,1860.290 520.080,1870.465 530.255 C 1902.123 561.913,1900.000 513.764,1900.000 1200.000 C 1900.000 1886.236,1902.123 1838.087,1870.465 1869.745 C 1837.810 1902.400,1891.001 1900.000,1200.000 1900.000 C 509.722 1900.000,562.127 1902.338,529.895 1870.105 C 497.662 1837.873,500.000 1890.278,500.000 1200.000 C 500.000 509.576,497.650 562.140,529.967 529.823 C 561.432 498.358,509.080 500.669,1198.287 500.316 C 1761.952 500.027,1816.235 500.566,1834.017 506.625 M1021.523 863.638 C 1014.660 867.823,1007.010 877.085,1004.523 884.220 C 1001.313 893.428,1000.000 985.305,1000.000 1200.725 C 1000.000 1526.841,999.904 1525.245,1020.219 1536.117 C 1038.673 1545.994,1052.607 1547.854,1066.053 1542.235 C 1082.311 1535.443,1457.998 1235.215,1463.795 1224.384 C 1469.214 1214.258,1469.214 1185.742,1463.795 1175.616 C 1459.638 1167.849,1089.250 869.232,1072.958 860.513 C 1060.123 853.644,1035.455 855.143,1021.523 863.638 " fill="#1D1E23" stroke="none" fill-rule="evenodd"/></svg>