<svg viewBox="0 0 2400 2400" fill="none" xmlns="http://www.w3.org/2000/svg"><path d="M700.000 311.709 L 510.000 314.000 483.250 326.636 C 405.807 363.217,352.609 418.367,319.456 496.439 L 306.903 526.000 303.163 682.000 C 301.106 767.800,300.139 1069.312,301.015 1352.026 L 302.606 1866.051 316.439 1898.046 C 336.261 1943.894,356.730 1973.255,395.880 2012.000 C 432.979 2048.716,460.722 2067.173,503.034 2083.288 L 530.000 2093.559 934.000 2096.829 C 1358.376 2100.264,1799.373 2097.933,1854.668 2091.962 C 1946.367 2082.061,2049.548 1992.216,2084.311 1892.000 C 2093.137 1866.558,2093.395 1860.809,2096.328 1624.000 C 2097.977 1490.900,2099.478 1195.357,2099.663 967.238 L 2100.000 552.477 2089.561 523.238 C 2055.742 428.517,2002.225 368.459,1914.000 326.219 L 1886.000 312.814 1388.000 311.116 C 1114.100 310.182,804.500 310.449,700.000 311.709 M1854.393 521.000 C 1884.698 541.416,1888.076 550.347,1892.182 620.906 C 1896.472 694.612,1896.696 1664.077,1892.448 1766.235 C 1889.707 1832.142,1888.592 1840.008,1879.722 1856.031 C 1867.190 1878.666,1852.820 1886.704,1813.737 1892.938 C 1768.073 1900.222,632.355 1900.295,586.835 1893.017 C 547.878 1886.789,534.836 1880.113,521.115 1859.380 L 510.264 1842.984 506.894 1552.492 C 505.040 1392.721,504.290 1109.000,505.227 922.000 C 507.075 553.171,506.931 555.525,529.136 529.902 C 548.699 507.326,516.453 508.366,1202.548 508.176 L 1835.096 508.000 1854.393 521.000 M1024.318 865.765 C 996.676 886.159,998.432 860.848,1001.236 1198.459 C 1004.046 1536.770,1003.054 1524.945,1029.695 1537.587 C 1049.901 1547.175,1062.203 1543.551,1099.033 1517.159 C 1156.390 1476.058,1405.719 1274.552,1437.000 1244.017 C 1485.221 1196.945,1483.563 1192.847,1382.034 1108.145 C 1262.595 1008.503,1102.495 883.831,1070.419 865.486 C 1049.578 853.567,1040.779 853.621,1024.318 865.765 " fill="#1D1E23" stroke="none" fill-rule="evenodd"/></svg>