<svg viewBox="0 0 2400 2400" fill="none" xmlns="http://www.w3.org/2000/svg"><path d="M461.908 607.902 L 241.816 610.000 215.908 622.833 C 166.634 647.241,129.940 688.440,111.361 740.216 L 102.108 766.000 102.054 1198.000 L 102.000 1630.000 111.639 1659.429 C 128.226 1710.065,170.396 1756.623,223.328 1782.737 C 243.435 1792.657,249.388 1793.439,327.328 1796.385 C 435.048 1800.458,1964.952 1800.458,2072.672 1796.385 C 2150.612 1793.439,2156.565 1792.657,2176.672 1782.737 C 2223.624 1759.573,2268.458 1712.464,2285.645 1668.234 C 2297.955 1636.553,2299.869 1568.422,2299.935 1159.463 L 2300.000 756.926 2284.117 725.463 C 2258.179 674.083,2226.590 643.614,2169.133 614.554 L 2148.266 604.000 1415.133 604.902 C 1011.910 605.398,582.959 606.748,461.908 607.902 M500.235 915.000 C 500.364 978.250,501.867 1054.772,503.575 1085.049 C 506.572 1138.170,507.102 1140.622,518.721 1155.049 C 525.343 1163.272,538.395 1175.400,547.725 1182.000 C 563.482 1193.146,567.202 1194.000,600.000 1194.000 C 632.798 1194.000,636.518 1193.146,652.275 1182.000 C 661.605 1175.400,674.673 1163.252,681.316 1155.004 C 693.053 1140.429,693.479 1138.403,696.441 1083.004 C 698.117 1051.652,699.603 975.150,699.744 913.000 L 700.000 800.000 800.000 800.000 L 900.000 800.000 900.235 915.000 C 900.364 978.250,901.867 1054.772,903.575 1085.049 C 906.572 1138.170,907.102 1140.622,918.721 1155.049 C 925.343 1163.272,938.395 1175.400,947.725 1182.000 C 963.482 1193.146,967.202 1194.000,1000.000 1194.000 C 1032.798 1194.000,1036.518 1193.146,1052.275 1182.000 C 1061.605 1175.400,1074.673 1163.252,1081.316 1155.004 C 1093.053 1140.429,1093.479 1138.403,1096.441 1083.004 C 1098.117 1051.652,1099.603 975.150,1099.744 913.000 L 1100.000 800.000 1200.000 800.000 L 1300.000 800.000 1300.235 915.000 C 1300.364 978.250,1301.867 1054.772,1303.575 1085.049 C 1306.572 1138.170,1307.102 1140.622,1318.721 1155.049 C 1325.343 1163.272,1338.395 1175.400,1347.725 1182.000 C 1363.482 1193.146,1367.202 1194.000,1400.000 1194.000 C 1432.798 1194.000,1436.518 1193.146,1452.275 1182.000 C 1461.605 1175.400,1474.673 1163.252,1481.316 1155.004 C 1493.053 1140.429,1493.479 1138.403,1496.441 1083.004 C 1498.117 1051.652,1499.603 975.150,1499.744 913.000 L 1500.000 800.000 1600.000 800.000 L 1700.000 800.000 1700.235 915.000 C 1700.364 978.250,1701.867 1054.772,1703.575 1085.049 C 1706.572 1138.170,1707.102 1140.622,1718.721 1155.049 C 1725.343 1163.272,1738.395 1175.400,1747.725 1182.000 C 1763.482 1193.146,1767.202 1194.000,1800.000 1194.000 C 1832.798 1194.000,1836.518 1193.146,1852.275 1182.000 C 1861.605 1175.400,1874.673 1163.252,1881.316 1155.004 C 1893.053 1140.429,1893.479 1138.403,1896.441 1083.004 C 1898.117 1051.652,1899.603 975.150,1899.744 913.000 L 1900.000 800.000 1927.000 800.143 C 1941.850 800.221,1971.480 801.848,1992.845 803.757 C 2038.733 807.859,2058.862 817.120,2078.813 843.311 L 2092.000 860.622 2092.000 1199.364 L 2092.000 1538.107 2078.295 1558.458 C 2053.173 1595.761,2076.923 1593.157,1726.000 1597.091 C 1361.820 1601.174,432.632 1597.875,384.659 1592.328 C 346.094 1587.870,337.283 1583.120,319.424 1557.163 L 306.380 1538.204 302.515 1312.102 C 298.415 1072.223,302.464 888.999,312.540 858.476 C 326.449 816.338,363.595 801.839,461.000 800.526 L 500.000 800.000 500.235 915.000 " fill="#1D1E23" stroke="none" fill-rule="evenodd"/></svg>