<svg viewBox="0 0 2400 2400" fill="none" xmlns="http://www.w3.org/2000/svg"><path d="M269.985 607.677 C 229.773 610.595,200.499 624.487,165.217 657.396 C 137.151 683.574,120.253 710.373,109.347 746.000 C 102.412 768.654,102.000 794.123,102.000 1200.000 C 102.000 1605.877,102.412 1631.346,109.347 1654.000 C 113.387 1667.200,121.968 1687.272,128.414 1698.604 C 144.328 1726.582,185.850 1764.471,217.870 1780.234 C 243.242 1792.725,246.815 1793.344,311.126 1796.389 C 398.330 1800.517,2001.670 1800.517,2088.874 1796.389 C 2153.486 1793.330,2156.665 1792.774,2182.874 1779.943 C 2219.751 1761.890,2262.319 1719.297,2279.403 1683.357 C 2289.388 1662.351,2292.934 1647.963,2296.160 1615.357 C 2298.740 1589.274,2299.836 1422.574,2299.126 1164.000 L 2298.000 754.000 2283.065 722.721 C 2262.058 678.727,2229.502 645.717,2183.878 622.154 L 2148.729 604.000 1225.365 604.677 C 717.514 605.049,287.593 606.399,269.985 607.677 M501.025 961.000 C 502.212 1064.635,504.475 1126.907,507.377 1135.772 C 512.950 1152.801,536.856 1178.024,557.532 1188.692 C 578.920 1199.727,621.080 1199.727,642.468 1188.692 C 663.144 1178.024,687.050 1152.801,692.623 1135.772 C 695.525 1126.907,697.788 1064.635,698.975 961.000 L 700.818 800.000 800.000 800.000 L 899.182 800.000 901.025 961.000 C 902.212 1064.635,904.475 1126.907,907.377 1135.772 C 912.950 1152.801,936.856 1178.024,957.532 1188.692 C 968.556 1194.379,980.884 1196.706,1000.000 1196.706 C 1019.116 1196.706,1031.444 1194.379,1042.468 1188.692 C 1063.144 1178.024,1087.050 1152.801,1092.623 1135.772 C 1095.525 1126.907,1097.788 1064.635,1098.975 961.000 L 1100.818 800.000 1200.000 800.000 L 1299.182 800.000 1301.025 961.000 C 1302.212 1064.635,1304.475 1126.907,1307.377 1135.772 C 1312.950 1152.801,1336.856 1178.024,1357.532 1188.692 C 1378.920 1199.727,1421.080 1199.727,1442.468 1188.692 C 1463.144 1178.024,1487.050 1152.801,1492.623 1135.772 C 1495.525 1126.907,1497.788 1064.635,1498.975 961.000 L 1500.818 800.000 1600.000 800.000 L 1699.182 800.000 1701.025 961.000 C 1702.212 1064.635,1704.475 1126.907,1707.377 1135.772 C 1712.950 1152.801,1736.856 1178.024,1757.532 1188.692 C 1768.556 1194.379,1780.884 1196.706,1800.000 1196.706 C 1819.116 1196.706,1831.444 1194.379,1842.468 1188.692 C 1863.144 1178.024,1887.050 1152.801,1892.623 1135.772 C 1895.526 1126.903,1897.789 1064.466,1898.980 960.391 L 1900.828 798.782 1962.711 801.335 C 2010.111 803.291,2028.504 805.624,2041.297 811.303 C 2060.557 819.853,2086.375 846.710,2090.898 862.899 C 2092.604 869.005,2094.000 1022.641,2094.000 1204.314 L 2094.000 1534.629 2082.000 1553.929 C 2067.637 1577.030,2054.767 1587.246,2033.690 1592.275 C 2011.980 1597.456,909.025 1601.306,606.000 1597.259 C 328.493 1593.552,347.592 1596.162,320.346 1558.230 L 306.305 1538.683 303.470 1408.341 C 299.532 1227.276,299.680 984.328,303.767 920.962 C 307.957 856.004,315.801 836.264,344.345 818.850 C 365.652 805.851,393.777 801.255,456.591 800.507 L 499.182 800.000 501.025 961.000 " fill="#1D1E23" stroke="none" fill-rule="evenodd"/></svg>