<svg viewBox="0 0 2400 2400" fill="none" xmlns="http://www.w3.org/2000/svg"><path d="M100.000 1200.000 L 100.000 1800.000 1200.000 1800.000 L 2300.000 1800.000 2300.000 1200.000 L 2300.000 600.000 1200.000 600.000 L 100.000 600.000 100.000 1200.000 M500.000 1000.000 L 500.000 1200.000 600.000 1200.000 L 700.000 1200.000 700.000 1000.000 L 700.000 800.000 800.000 800.000 L 900.000 800.000 900.000 1000.000 L 900.000 1200.000 1000.000 1200.000 L 1100.000 1200.000 1100.000 1000.000 L 1100.000 800.000 1200.000 800.000 L 1300.000 800.000 1300.000 1000.000 L 1300.000 1200.000 1400.000 1200.000 L 1500.000 1200.000 1500.000 1000.000 L 1500.000 800.000 1600.000 800.000 L 1700.000 800.000 1700.000 1000.000 L 1700.000 1200.000 1800.000 1200.000 L 1900.000 1200.000 1900.000 1000.000 L 1900.000 800.000 2000.000 800.000 L 2100.000 800.000 2100.000 1200.000 L 2100.000 1600.000 1200.000 1600.000 L 300.000 1600.000 300.000 1200.000 L 300.000 800.000 400.000 800.000 L 500.000 800.000 500.000 1000.000 " fill="#1D1E23" stroke="none" fill-rule="evenodd"/></svg>