<svg viewBox="0 0 2400 2400" fill="none" xmlns="http://www.w3.org/2000/svg"><path d="M478.000 603.910 L 246.000 606.000 214.898 621.199 C 151.583 652.141,110.032 710.324,103.662 776.963 C 99.544 820.038,99.544 1579.962,103.662 1623.037 C 109.968 1689.008,151.611 1747.555,214.242 1778.510 C 244.492 1793.460,246.899 1793.959,301.674 1796.642 C 375.159 1800.242,2024.841 1800.242,2098.326 1796.642 C 2153.101 1793.959,2155.508 1793.460,2185.758 1778.510 C 2226.751 1758.250,2258.134 1726.985,2278.169 1686.447 C 2291.335 1659.806,2293.650 1650.691,2296.814 1613.015 C 2298.801 1589.357,2299.864 1387.300,2299.176 1164.000 L 2297.925 758.000 2288.337 734.000 C 2267.205 681.104,2234.188 645.666,2182.797 620.723 L 2150.000 604.805 1430.000 603.312 C 1034.000 602.491,605.600 602.760,478.000 603.910 M500.747 963.000 C 502.199 1144.330,501.853 1141.875,529.803 1169.021 C 551.775 1190.359,569.854 1197.761,600.000 1197.761 C 630.146 1197.761,648.225 1190.359,670.197 1169.021 C 698.147 1141.875,697.801 1144.330,699.253 963.000 L 700.559 800.000 800.000 800.000 L 899.441 800.000 900.747 963.000 C 902.199 1144.330,901.853 1141.875,929.803 1169.021 C 951.775 1190.359,969.854 1197.761,1000.000 1197.761 C 1030.146 1197.761,1048.225 1190.359,1070.197 1169.021 C 1098.147 1141.875,1097.801 1144.330,1099.253 963.000 L 1100.559 800.000 1200.000 800.000 L 1299.441 800.000 1300.747 963.000 C 1302.199 1144.330,1301.853 1141.875,1329.803 1169.021 C 1351.775 1190.359,1369.854 1197.761,1400.000 1197.761 C 1430.146 1197.761,1448.225 1190.359,1470.197 1169.021 C 1498.147 1141.875,1497.801 1144.330,1499.253 963.000 L 1500.559 800.000 1600.000 800.000 L 1699.441 800.000 1700.747 963.000 C 1702.199 1144.330,1701.853 1141.875,1729.803 1169.021 C 1751.775 1190.359,1769.854 1197.761,1800.000 1197.761 C 1830.146 1197.761,1848.225 1190.359,1870.197 1169.021 C 1898.155 1141.868,1897.801 1144.387,1899.256 962.481 L 1900.565 798.961 1963.282 800.791 C 2012.398 802.224,2029.248 804.168,2040.975 809.755 C 2063.663 820.562,2086.857 845.199,2092.790 864.791 C 2100.220 889.331,2100.411 1510.077,2092.996 1534.441 C 2090.244 1543.484,2080.745 1559.116,2071.886 1569.180 C 2058.452 1584.442,2051.980 1588.352,2032.889 1592.739 C 1999.108 1600.503,400.892 1600.503,367.111 1592.739 C 348.034 1588.355,341.546 1584.439,328.158 1569.230 C 319.323 1559.193,309.969 1544.461,307.371 1536.491 C 301.166 1517.454,297.673 973.047,303.326 906.076 C 307.797 853.118,314.483 838.456,343.252 818.518 C 362.982 804.845,384.883 801.173,450.721 800.499 L 499.441 800.000 500.747 963.000 " fill="#1D1E23" stroke="none" fill-rule="evenodd"/></svg>