<svg viewBox="0 0 2400 2400" fill="none" xmlns="http://www.w3.org/2000/svg"><path d="M1031.811 103.846 C 972.184 106.097,964.146 107.257,950.726 115.551 C 924.669 131.656,900.223 172.455,900.127 200.000 C 900.065 217.735,914.977 250.000,932.411 269.857 C 957.976 298.974,947.815 297.871,1202.000 299.126 L 1430.000 300.252 1452.000 282.837 C 1494.793 248.962,1508.539 201.916,1488.169 159.047 C 1478.570 138.846,1457.871 118.106,1440.556 111.339 C 1418.346 102.660,1179.323 98.279,1031.811 103.846 M1105.968 407.809 C 943.503 422.550,749.530 506.716,624.000 616.937 C 572.507 662.149,500.840 737.920,473.551 776.000 C 410.333 864.215,358.523 972.915,330.283 1076.584 C 285.536 1240.851,293.458 1429.389,352.215 1598.530 C 367.936 1643.786,408.591 1728.272,435.516 1771.641 C 525.154 1916.021,652.194 2030.746,806.000 2106.211 C 1108.290 2254.529,1460.312 2223.182,1730.000 2023.930 C 1926.389 1878.834,2052.637 1668.580,2090.660 1423.287 C 2101.274 1354.811,2100.172 1234.686,2088.284 1164.243 C 2063.475 1017.245,2009.911 887.062,1926.323 770.613 L 1903.794 739.226 1939.583 701.790 C 1988.635 650.481,2001.039 631.647,2003.237 605.141 C 2008.250 544.694,1965.494 498.193,1905.422 498.758 C 1874.648 499.047,1860.020 507.098,1812.000 550.176 C 1757.397 599.160,1768.030 598.064,1708.970 560.799 C 1577.871 478.081,1464.968 433.245,1339.924 414.246 C 1290.805 406.782,1157.654 403.119,1105.968 407.809 M1240.000 812.336 C 1262.392 822.488,1274.325 833.442,1285.389 854.000 C 1293.918 869.848,1294.000 872.184,1294.000 1100.000 C 1294.000 1352.568,1295.408 1337.074,1269.669 1367.664 C 1249.891 1391.169,1213.574 1402.316,1178.399 1395.678 C 1155.954 1391.442,1129.641 1372.071,1115.707 1349.525 C 1107.013 1335.458,1106.654 1330.445,1102.891 1170.526 C 1098.926 1002.034,1102.365 882.961,1111.917 858.000 C 1128.705 814.129,1193.220 791.128,1240.000 812.336 " fill="#1D1E23" stroke="none" fill-rule="evenodd"/></svg>