<svg viewBox="0 0 2400 2400" fill="none" xmlns="http://www.w3.org/2000/svg"><path d="M1058.000 104.043 C 1009.600 105.526,965.219 108.714,959.375 111.128 C 933.908 121.647,900.134 170.440,900.039 196.850 C 899.921 229.517,935.725 283.706,963.197 292.438 C 973.518 295.719,1046.509 297.691,1204.285 298.953 L 1430.569 300.761 1448.748 285.381 C 1458.746 276.921,1472.968 261.275,1480.354 250.611 C 1491.635 234.324,1494.015 226.967,1495.237 204.611 C 1496.505 181.418,1495.212 175.183,1485.172 156.068 C 1467.453 122.332,1449.396 111.689,1403.338 107.835 C 1346.699 103.096,1156.922 101.012,1058.000 104.043 M1080.000 410.417 C 952.467 433.512,859.526 466.146,759.038 523.115 C 672.094 572.407,601.311 630.860,520.960 719.723 C 424.683 826.200,348.195 980.774,317.942 1130.000 C 264.895 1391.661,340.050 1675.206,517.457 1882.735 C 716.118 2115.126,1028.762 2233.841,1326.478 2189.932 C 1669.073 2139.404,1952.111 1897.292,2057.438 1564.665 C 2141.629 1298.790,2092.538 1002.296,1925.863 769.986 L 1903.910 739.389 1944.138 696.694 C 1993.866 643.918,2005.986 621.648,2002.986 588.562 C 1998.046 534.080,1960.935 500.241,1906.000 500.125 C 1876.790 500.064,1854.889 511.402,1816.000 546.717 C 1780.886 578.605,1768.175 588.000,1760.150 588.000 C 1756.426 588.000,1729.219 573.338,1699.690 555.418 C 1585.998 486.424,1484.239 443.899,1380.000 421.820 C 1333.457 411.962,1321.704 411.139,1210.000 409.918 C 1144.000 409.196,1085.500 409.421,1080.000 410.417 M1247.574 816.993 C 1258.151 822.435,1271.027 833.694,1277.963 843.564 L 1290.000 860.691 1290.000 1099.639 L 1290.000 1338.586 1278.966 1355.259 C 1261.728 1381.306,1240.058 1393.509,1207.807 1395.332 C 1175.017 1397.184,1158.272 1392.136,1137.100 1374.014 C 1108.187 1349.265,1108.287 1349.847,1104.034 1183.231 C 1099.247 995.685,1103.446 876.608,1115.693 852.602 C 1137.914 809.046,1199.709 792.360,1247.574 816.993 " fill="#1D1E23" stroke="none" fill-rule="evenodd"/></svg>