<svg viewBox="0 0 2400 2400" fill="none" xmlns="http://www.w3.org/2000/svg"><path d="M900.000 200.000 L 900.000 300.000 1200.000 300.000 L 1500.000 300.000 1500.000 200.000 L 1500.000 100.000 1200.000 100.000 L 900.000 100.000 900.000 200.000 M1122.000 404.314 C 998.605 417.039,901.193 445.200,794.941 498.864 C 700.055 546.788,630.996 597.514,555.697 674.599 C 367.498 867.259,275.251 1134.475,306.049 1397.762 C 326.503 1572.618,392.958 1732.027,501.249 1866.000 C 537.986 1911.450,615.113 1985.499,662.000 2020.336 C 888.066 2188.302,1177.131 2242.112,1442.910 2165.705 C 1598.726 2120.910,1718.302 2050.272,1834.518 1934.367 C 1978.070 1791.200,2058.520 1630.239,2092.601 1418.000 C 2100.508 1368.761,2099.303 1228.239,2090.493 1172.000 C 2067.090 1022.623,2010.215 883.702,1925.642 769.341 L 1903.152 738.930 1974.218 667.781 L 2045.285 596.632 2017.643 565.738 C 2002.439 548.746,1971.130 517.217,1948.066 495.675 L 1906.132 456.506 1837.398 524.253 C 1799.594 561.514,1765.593 592.000,1761.840 592.000 C 1758.087 592.000,1743.987 584.171,1730.508 574.603 C 1599.424 481.551,1443.486 420.834,1303.056 408.169 C 1239.393 402.427,1157.258 400.678,1122.000 404.314 M1300.000 1100.000 L 1300.000 1400.000 1200.000 1400.000 L 1100.000 1400.000 1100.000 1100.000 L 1100.000 800.000 1200.000 800.000 L 1300.000 800.000 1300.000 1100.000 " fill="#1D1E23" stroke="none" fill-rule="evenodd"/></svg>