<svg viewBox="0 0 2400 2400" fill="none" xmlns="http://www.w3.org/2000/svg"><path d="M900.000 200.000 L 900.000 300.000 1200.000 300.000 L 1500.000 300.000 1500.000 200.000 L 1500.000 100.000 1200.000 100.000 L 900.000 100.000 900.000 200.000 M1104.000 406.848 C 1063.957 411.333,965.952 434.041,916.128 450.377 C 636.221 542.155,417.428 771.948,334.139 1061.627 C 284.588 1233.968,289.108 1404.187,347.924 1580.777 C 452.625 1895.130,714.712 2122.489,1045.291 2185.739 C 1257.066 2226.258,1502.348 2175.662,1688.000 2053.164 C 1787.628 1987.427,1888.798 1885.475,1957.084 1782.000 C 2027.369 1675.495,2075.553 1539.904,2092.120 1402.000 C 2098.900 1345.561,2097.933 1238.758,2090.132 1182.342 C 2069.968 1036.533,2011.096 888.783,1925.779 769.869 L 1903.402 738.680 1974.412 667.587 L 2045.423 596.494 2018.945 566.910 C 2004.383 550.639,1973.013 519.263,1949.234 497.185 L 1906.000 457.044 1846.000 515.026 C 1813.000 546.917,1780.216 577.445,1773.146 582.868 L 1760.292 592.727 1703.146 557.725 C 1587.079 486.633,1483.262 443.134,1380.000 422.329 C 1319.151 410.069,1156.630 400.953,1104.000 406.848 M1300.000 1100.000 L 1300.000 1400.000 1200.000 1400.000 L 1100.000 1400.000 1100.000 1100.000 L 1100.000 800.000 1200.000 800.000 L 1300.000 800.000 1300.000 1100.000 " fill="#1D1E23" stroke="none" fill-rule="evenodd"/></svg>