<svg viewBox="0 0 2400 2400" fill="none" xmlns="http://www.w3.org/2000/svg"><path d="M900.000 200.000 L 900.000 300.000 1200.000 300.000 L 1500.000 300.000 1500.000 200.000 L 1500.000 100.000 1200.000 100.000 L 900.000 100.000 900.000 200.000 M1134.000 402.411 C 1002.331 416.004,909.048 441.479,805.761 492.050 C 623.555 581.262,480.972 723.792,391.660 906.000 C 287.776 1117.937,271.879 1356.518,346.483 1584.000 C 389.346 1714.697,464.798 1836.798,564.000 1936.000 C 663.202 2035.202,785.303 2110.654,916.000 2153.517 C 1105.272 2215.589,1294.728 2215.589,1484.000 2153.517 C 1614.697 2110.654,1736.798 2035.202,1836.000 1936.000 C 1980.493 1791.507,2070.098 1605.676,2094.063 1400.804 C 2119.732 1181.364,2057.951 947.589,1927.955 772.264 L 1903.202 738.880 1974.244 667.756 L 2045.285 596.632 2017.643 565.725 C 2002.439 548.726,1971.103 517.098,1948.007 495.442 L 1906.014 456.067 1834.994 527.005 C 1780.781 581.156,1762.676 597.003,1758.487 593.971 C 1613.808 489.247,1484.453 433.508,1332.000 410.198 C 1291.273 403.971,1166.442 399.061,1134.000 402.411 M1300.000 1100.000 L 1300.000 1400.000 1200.000 1400.000 L 1100.000 1400.000 1100.000 1100.000 L 1100.000 800.000 1200.000 800.000 L 1300.000 800.000 1300.000 1100.000 " fill="#1D1E23" stroke="none" fill-rule="evenodd"/></svg>