<svg viewBox="0 0 2400 2400" fill="none" xmlns="http://www.w3.org/2000/svg"><path d="M900.000 200.000 L 900.000 300.000 1200.000 300.000 L 1500.000 300.000 1500.000 200.000 L 1500.000 100.000 1200.000 100.000 L 900.000 100.000 900.000 200.000 M1104.000 406.557 C 1098.500 407.365,1080.500 409.944,1064.000 412.290 C 988.419 423.033,897.339 450.919,820.000 486.995 C 532.855 620.937,336.110 898.774,304.177 1215.424 C 282.746 1427.935,347.266 1658.736,477.121 1834.078 C 569.621 1958.980,703.940 2065.529,844.000 2125.107 C 1054.779 2214.766,1269.815 2223.675,1485.895 2151.702 C 1620.901 2106.734,1728.655 2039.345,1834.000 1934.000 C 1939.142 1828.858,2006.556 1720.984,2051.560 1585.868 C 2090.617 1468.605,2103.508 1370.821,2096.261 1246.797 C 2090.653 1150.833,2073.779 1071.440,2039.713 980.747 C 2011.965 906.875,1958.414 809.889,1914.875 754.653 L 1902.777 739.305 1974.103 667.897 L 2045.428 596.490 2014.858 562.818 C 1998.045 544.298,1966.541 512.783,1944.850 492.784 L 1905.413 456.423 1869.706 492.593 C 1826.269 536.595,1765.389 592.000,1760.476 592.000 C 1758.501 592.000,1738.088 579.566,1715.115 564.368 C 1576.975 472.984,1438.116 421.257,1296.000 408.240 C 1253.270 404.327,1126.751 403.218,1104.000 406.557 M1300.000 1100.000 L 1300.000 1400.000 1200.000 1400.000 L 1100.000 1400.000 1100.000 1100.000 L 1100.000 800.000 1200.000 800.000 L 1300.000 800.000 1300.000 1100.000 " fill="#1D1E23" stroke="none" fill-rule="evenodd"/></svg>