<svg viewBox="0 0 2400 2400" fill="none" xmlns="http://www.w3.org/2000/svg"><path d="M900.000 200.000 L 900.000 300.000 1200.000 300.000 L 1500.000 300.000 1500.000 200.000 L 1500.000 100.000 1200.000 100.000 L 900.000 100.000 900.000 200.000 M1106.000 406.367 C 950.770 429.388,838.948 468.366,724.789 539.248 C 439.589 716.330,271.165 1053.220,304.177 1380.576 C 344.054 1775.997,626.583 2093.571,1015.261 2179.863 C 1272.200 2236.907,1562.568 2166.328,1763.541 1997.982 C 1853.177 1922.898,1937.096 1823.982,1985.802 1736.000 C 2115.859 1501.068,2133.830 1216.362,2034.240 968.606 C 2005.178 896.305,1969.246 830.411,1926.127 770.340 L 1903.402 738.680 1974.312 667.687 L 2045.223 596.695 2019.611 567.827 C 2005.525 551.949,1974.253 520.466,1950.117 497.864 L 1906.234 456.770 1847.210 514.110 C 1814.747 545.647,1781.837 576.294,1774.076 582.213 L 1759.966 592.976 1708.983 560.807 C 1577.182 477.646,1463.836 432.777,1338.576 414.177 C 1297.166 408.029,1132.162 402.488,1106.000 406.367 M1300.000 1100.000 L 1300.000 1400.000 1200.000 1400.000 L 1100.000 1400.000 1100.000 1100.000 L 1100.000 800.000 1200.000 800.000 L 1300.000 800.000 1300.000 1100.000 " fill="#1D1E23" stroke="none" fill-rule="evenodd"/></svg>