<svg viewBox="0 0 2400 2400" fill="none" xmlns="http://www.w3.org/2000/svg"><path d="M1004.000 102.737 C 964.687 104.984,955.902 107.925,937.304 125.069 C 903.287 156.424,891.710 198.106,907.256 233.251 C 919.682 261.341,934.615 278.599,955.321 288.799 L 974.000 298.000 1200.000 298.000 L 1426.000 298.000 1444.878 288.702 C 1468.434 277.101,1490.192 248.444,1496.633 220.537 C 1502.808 193.786,1496.621 165.742,1479.188 141.468 C 1460.529 115.486,1446.092 108.148,1405.156 103.841 C 1373.518 100.512,1058.117 99.644,1004.000 102.737 M1123.044 404.379 C 943.149 423.178,776.291 491.100,640.928 600.630 C 601.451 632.572,528.796 705.173,497.112 744.337 C 401.178 862.920,332.716 1018.855,309.350 1172.000 C 299.694 1235.281,299.688 1364.643,309.336 1428.000 C 345.600 1666.116,469.900 1875.822,658.957 2017.844 C 979.638 2258.744,1415.827 2259.943,1737.320 2020.808 C 1784.858 1985.448,1866.421 1906.906,1900.854 1863.331 C 2011.282 1723.584,2078.431 1558.724,2095.855 1384.576 C 2117.102 1172.227,2053.517 942.255,1925.817 769.578 L 1903.502 739.404 1946.834 694.673 C 1996.879 643.014,2005.671 627.993,2005.758 594.000 C 2005.808 574.864,2003.428 565.647,1994.013 548.519 C 1973.286 510.813,1940.544 493.698,1896.516 497.556 C 1866.604 500.177,1859.548 504.764,1805.361 556.809 C 1785.209 576.164,1765.638 592.000,1761.869 592.000 C 1758.100 592.000,1743.987 584.171,1730.508 574.603 C 1599.419 481.547,1443.447 420.819,1303.056 408.173 C 1240.357 402.526,1157.492 400.779,1123.044 404.379 M1244.071 812.036 C 1265.941 823.193,1287.173 846.442,1293.015 865.629 C 1300.162 889.100,1300.162 1310.900,1293.015 1334.371 C 1287.097 1353.808,1266.042 1376.654,1242.775 1388.886 C 1221.023 1400.320,1180.757 1401.066,1159.025 1390.437 C 1137.390 1379.854,1113.278 1354.896,1107.649 1337.255 C 1101.090 1316.704,1097.616 949.211,1103.484 896.755 C 1108.245 854.197,1115.724 838.823,1139.775 822.156 C 1173.889 798.515,1210.587 794.954,1244.071 812.036 " fill="#1D1E23" stroke="none" fill-rule="evenodd"/></svg>