<svg viewBox="0 0 2400 2400" fill="none" xmlns="http://www.w3.org/2000/svg"><path d="M500.000 1200.000 L 500.000 1500.000 576.000 1500.000 L 652.000 1500.000 652.000 1200.000 L 652.000 900.000 576.000 900.000 L 500.000 900.000 500.000 1200.000 M914.984 904.343 C 872.978 914.243,834.329 946.399,814.434 988.000 L 802.000 1014.000 802.000 1088.084 L 802.000 1162.168 815.096 1188.771 C 831.374 1221.836,862.959 1251.813,895.013 1264.618 C 916.774 1273.312,924.131 1273.875,1033.000 1275.175 L 1148.000 1276.549 1148.000 1314.275 L 1148.000 1352.000 1001.841 1352.000 C 864.264 1352.000,854.773 1352.463,840.219 1359.888 C 811.190 1374.698,796.713 1404.138,801.795 1438.026 C 805.425 1462.232,829.662 1489.985,852.555 1496.149 C 862.558 1498.843,925.009 1499.925,1027.066 1499.172 L 1186.000 1498.000 1210.000 1486.806 C 1241.500 1472.114,1272.439 1441.307,1286.715 1410.418 C 1297.808 1386.414,1298.000 1384.744,1298.000 1312.000 C 1298.000 1240.097,1297.696 1237.352,1287.280 1215.128 C 1265.592 1168.855,1222.773 1135.963,1173.779 1127.940 C 1160.700 1125.799,1105.450 1124.036,1051.000 1124.023 L 952.000 1124.000 952.000 1088.228 L 952.000 1052.456 1097.000 1051.228 C 1238.910 1050.026,1242.362 1049.806,1258.996 1040.921 C 1314.090 1011.489,1311.265 933.455,1254.165 907.519 C 1239.336 900.783,1225.271 900.202,1084.000 900.490 C 999.300 900.662,923.243 902.396,914.984 904.343 M1563.104 905.917 C 1536.215 913.318,1512.642 928.208,1490.736 951.627 C 1451.459 993.617,1448.000 1013.720,1448.000 1200.000 C 1448.000 1355.303,1450.116 1379.960,1466.402 1414.447 C 1478.661 1440.406,1513.268 1473.288,1542.989 1487.216 L 1566.000 1498.000 1700.000 1498.000 L 1834.000 1498.000 1857.011 1487.216 C 1886.732 1473.288,1921.339 1440.406,1933.598 1414.447 C 1949.884 1379.960,1952.000 1355.303,1952.000 1200.000 C 1952.000 1013.720,1948.541 993.617,1909.264 951.627 C 1886.724 927.530,1863.827 913.359,1835.056 905.700 C 1806.367 898.063,1591.012 898.235,1563.104 905.917 M1800.000 1202.000 L 1800.000 1352.000 1700.000 1352.000 L 1600.000 1352.000 1600.000 1202.000 L 1600.000 1052.000 1700.000 1052.000 L 1800.000 1052.000 1800.000 1202.000 " fill="#1D1E23" stroke="none" fill-rule="evenodd"/></svg>