<svg viewBox="0 0 2400 2400" fill="none" xmlns="http://www.w3.org/2000/svg"><path d="M500.000 1200.000 L 500.000 1500.000 576.000 1500.000 L 652.000 1500.000 652.000 1200.000 L 652.000 900.000 576.000 900.000 L 500.000 900.000 500.000 1200.000 M982.000 903.867 C 916.904 905.888,903.417 907.412,888.000 914.484 C 865.106 924.987,829.228 960.841,813.876 988.559 C 802.032 1009.943,801.997 1010.204,800.809 1086.000 L 799.617 1162.000 814.809 1187.467 C 835.681 1222.457,872.594 1256.280,900.231 1265.738 C 918.821 1272.100,938.502 1273.458,1035.000 1275.041 L 1148.000 1276.895 1148.000 1313.855 L 1148.000 1350.816 1001.000 1353.015 C 919.651 1354.233,849.494 1356.978,843.909 1359.163 C 827.685 1365.510,809.252 1387.241,803.911 1406.319 C 793.094 1444.951,819.354 1486.909,859.775 1495.578 C 872.783 1498.368,936.475 1500.000,1032.330 1500.000 L 1184.266 1500.000 1205.015 1489.486 C 1233.902 1474.847,1273.710 1435.461,1287.030 1408.337 C 1297.790 1386.428,1298.000 1384.581,1298.000 1312.000 C 1298.000 1225.014,1295.126 1215.264,1258.021 1176.363 C 1216.105 1132.419,1180.832 1124.299,1031.000 1124.103 L 952.000 1124.000 952.000 1088.000 L 952.000 1052.000 1094.159 1052.000 C 1253.390 1052.000,1253.079 1052.050,1279.210 1022.288 C 1308.531 988.894,1301.713 939.635,1264.294 914.513 C 1250.403 905.187,1247.294 904.868,1154.000 903.212 C 1101.200 902.274,1023.800 902.569,982.000 903.867 M1558.000 909.569 C 1507.920 925.326,1470.180 963.989,1457.286 1012.747 C 1451.594 1034.267,1450.562 1062.241,1450.304 1202.000 C 1450.003 1364.298,1450.097 1366.269,1459.368 1391.965 C 1475.375 1436.334,1497.211 1460.869,1544.323 1487.419 L 1566.647 1500.000 1700.414 1500.000 L 1834.182 1500.000 1859.558 1485.000 C 1873.515 1476.750,1895.477 1458.734,1908.362 1444.966 C 1927.605 1424.404,1933.417 1414.756,1940.895 1390.966 C 1949.742 1362.822,1950.000 1357.401,1950.000 1200.000 C 1950.000 1015.193,1948.477 1003.253,1920.121 965.695 C 1902.954 942.958,1863.725 914.523,1840.703 908.128 C 1818.591 901.987,1578.205 903.212,1558.000 909.569 M1800.000 1202.000 L 1800.000 1352.000 1700.000 1352.000 L 1600.000 1352.000 1600.000 1202.000 L 1600.000 1052.000 1700.000 1052.000 L 1800.000 1052.000 1800.000 1202.000 " fill="#1D1E23" stroke="none" fill-rule="evenodd"/></svg>