<svg viewBox="0 0 2400 2400" fill="none" xmlns="http://www.w3.org/2000/svg"><path d="M218.000 703.568 C 203.762 705.732,202.143 707.101,203.299 716.000 C 204.251 723.331,377.323 1560.616,402.977 1682.000 L 406.358 1698.000 527.932 1698.000 L 649.505 1698.000 696.530 1488.000 C 754.900 1227.339,772.707 1152.000,775.947 1152.000 C 779.020 1152.000,806.312 1264.449,863.321 1512.000 L 906.155 1698.000 1028.325 1699.057 L 1150.494 1700.113 1209.409 1407.057 C 1241.812 1245.876,1286.893 1022.508,1309.590 910.683 L 1350.856 707.367 1340.428 703.343 C 1325.454 697.566,1133.854 700.541,1127.752 706.646 C 1122.019 712.382,1103.458 807.375,1054.043 1083.890 C 1033.020 1201.530,1014.392 1299.208,1012.647 1300.953 C 1009.272 1304.328,983.666 1194.306,922.043 911.651 C 901.137 815.759,881.594 730.260,878.614 721.653 C 873.878 707.973,871.235 705.657,857.598 703.233 C 838.259 699.796,711.245 699.221,691.536 702.480 L 677.072 704.873 652.476 817.436 C 584.557 1128.268,542.652 1315.986,541.451 1314.784 C 540.717 1314.050,516.695 1184.874,488.070 1027.725 C 459.444 870.576,434.090 732.550,431.728 721.000 L 427.433 700.000 330.716 700.568 C 277.522 700.880,226.800 702.230,218.000 703.568 M1452.000 1200.000 L 1452.000 1700.000 1645.000 1699.941 C 1890.985 1699.865,1938.050 1696.895,1995.454 1677.826 C 2070.453 1652.912,2125.848 1614.988,2156.098 1567.847 C 2202.254 1495.920,2211.345 1398.131,2179.572 1315.362 C 2168.356 1286.146,2162.989 1278.215,2136.382 1251.544 C 2118.071 1233.188,2096.465 1216.170,2082.000 1208.709 C 2044.517 1189.376,2045.067 1190.479,2066.623 1177.847 C 2109.430 1152.760,2147.253 1105.624,2164.397 1056.000 C 2171.977 1034.058,2173.415 1021.259,2173.610 974.000 C 2173.877 909.493,2167.027 882.148,2140.356 841.238 C 2113.931 800.705,2082.162 774.524,2027.119 747.920 C 1950.364 710.821,1937.145 708.471,1780.000 703.985 C 1706.300 701.881,1602.350 700.123,1549.000 700.080 L 1452.000 700.000 1452.000 1200.000 M1868.000 897.647 C 1896.629 908.101,1927.264 931.326,1939.196 951.622 C 1948.773 967.913,1950.000 974.088,1950.000 1006.000 C 1950.000 1037.865,1948.765 1044.100,1939.253 1060.281 C 1933.342 1070.335,1921.642 1083.311,1913.253 1089.117 C 1883.227 1109.895,1868.475 1112.665,1775.627 1114.953 L 1689.254 1117.082 1686.517 1039.541 C 1685.012 996.894,1682.648 945.106,1681.262 924.458 L 1678.743 886.916 1764.372 888.995 C 1829.743 890.583,1854.258 892.629,1868.000 897.647 M1898.677 1286.589 C 1913.475 1293.611,1939.717 1317.745,1950.576 1334.318 C 1956.115 1342.772,1958.035 1355.973,1959.315 1394.410 C 1960.889 1441.704,1960.540 1444.376,1950.556 1461.412 C 1938.071 1482.716,1920.313 1498.373,1896.000 1509.513 C 1879.712 1516.976,1868.584 1517.905,1779.000 1519.285 L 1680.000 1520.809 1680.000 1397.775 L 1680.000 1274.740 1782.702 1277.515 C 1863.498 1279.699,1888.234 1281.634,1898.677 1286.589 " fill="#1D1E23" stroke="none" fill-rule="evenodd"/></svg>