<svg viewBox="0 0 2400 2400" fill="none" xmlns="http://www.w3.org/2000/svg"><path d="M200.194 703.000 C 200.301 704.650,246.792 929.200,303.508 1202.000 L 406.627 1698.000 527.947 1698.000 L 649.267 1698.000 711.634 1419.015 C 745.935 1265.574,774.939 1140.024,776.086 1140.015 C 777.234 1140.007,807.010 1265.550,842.255 1419.000 L 906.338 1698.000 1028.169 1699.036 L 1150.000 1700.071 1249.624 1205.036 C 1304.417 932.766,1350.059 707.750,1351.052 705.000 C 1352.468 701.075,1328.320 700.000,1238.698 700.000 C 1133.419 700.000,1124.381 700.544,1122.500 707.000 C 1121.379 710.850,1096.921 847.200,1068.149 1010.000 C 1039.377 1172.800,1014.524 1309.134,1012.919 1312.964 C 1011.145 1317.197,984.247 1200.322,944.338 1014.964 C 908.224 847.234,877.881 707.750,876.910 705.000 C 875.563 701.185,852.068 700.000,777.808 700.000 C 724.273 700.000,679.654 701.350,678.654 703.000 C 677.653 704.650,646.570 844.973,609.580 1014.829 C 572.590 1184.686,541.964 1323.286,541.521 1322.829 C 541.079 1322.373,516.233 1187.000,486.308 1022.000 C 456.382 857.000,430.878 717.050,429.631 711.000 L 427.364 700.000 313.682 700.000 C 251.157 700.000,200.087 701.350,200.194 703.000 M1452.000 1199.958 L 1452.000 1700.459 1691.000 1698.981 C 1921.916 1697.553,1931.131 1697.205,1963.452 1688.704 C 2007.635 1677.083,2050.318 1659.733,2084.100 1639.663 C 2190.828 1576.257,2232.190 1417.757,2173.004 1298.986 C 2152.647 1258.134,2117.874 1224.153,2076.554 1204.731 L 2044.631 1189.726 2067.316 1177.883 C 2115.919 1152.510,2155.948 1098.573,2169.803 1039.788 C 2177.835 1005.712,2177.771 938.036,2169.676 906.577 C 2143.954 806.614,2067.911 745.076,1928.000 711.001 C 1896.202 703.256,1879.690 702.614,1673.000 701.088 L 1452.000 699.457 1452.000 1199.958 M1844.273 889.980 C 1868.561 893.027,1906.950 911.565,1923.741 928.357 C 1944.984 949.599,1953.836 973.035,1953.825 1008.000 C 1953.809 1056.216,1932.956 1085.566,1885.328 1104.409 C 1864.051 1112.827,1854.388 1113.771,1775.422 1115.152 L 1688.844 1116.666 1686.544 1067.333 C 1685.279 1040.200,1683.285 988.796,1682.113 953.102 L 1679.982 888.203 1742.991 887.102 C 1808.034 885.964,1813.495 886.120,1844.273 889.980 M1902.273 1286.710 C 1920.297 1296.358,1943.673 1320.425,1954.774 1340.761 C 1960.556 1351.354,1962.000 1363.194,1962.000 1400.000 C 1962.000 1443.073,1961.294 1447.201,1950.906 1464.872 C 1938.352 1486.228,1915.022 1503.943,1886.860 1513.503 C 1871.342 1518.771,1849.961 1520.000,1773.860 1520.000 L 1680.000 1520.000 1680.000 1397.754 L 1680.000 1275.508 1783.000 1276.754 C 1879.855 1277.926,1886.971 1278.520,1902.273 1286.710 " fill="#1D1E23" stroke="none" fill-rule="evenodd"/></svg>