<svg viewBox="0 0 2400 2400" fill="none" xmlns="http://www.w3.org/2000/svg"><path d="M207.153 702.728 C 201.780 704.140,200.846 707.271,202.815 717.264 C 204.195 724.269,250.559 947.800,305.845 1214.000 L 406.366 1698.000 527.865 1698.000 L 649.364 1698.000 686.479 1532.000 C 752.013 1238.890,773.190 1148.000,775.948 1148.000 C 778.882 1148.000,802.014 1244.306,865.301 1520.000 L 906.162 1698.000 1028.124 1699.056 L 1150.086 1700.113 1249.357 1207.567 C 1303.955 936.667,1349.488 712.778,1350.540 710.036 C 1351.605 707.261,1348.363 703.956,1343.226 702.580 C 1328.802 698.717,1141.634 699.577,1131.173 703.554 C 1122.215 706.960,1119.772 718.599,1072.627 982.554 C 1013.011 1316.324,1013.939 1311.518,1010.600 1304.000 C 1006.119 1293.910,971.550 1140.710,923.620 918.534 C 881.063 721.267,877.378 706.831,868.740 703.534 C 858.461 699.611,707.841 698.632,689.170 702.366 L 677.341 704.732 630.344 919.366 C 552.543 1274.679,542.489 1319.822,541.402 1318.735 C 540.828 1318.161,516.848 1188.161,488.113 1029.846 C 459.378 871.531,433.970 732.550,431.650 721.000 L 427.433 700.000 320.716 700.464 C 262.022 700.719,210.919 701.738,207.153 702.728 M1452.000 1200.000 L 1452.000 1700.000 1647.000 1699.782 C 1897.615 1699.501,1941.671 1696.976,1992.000 1680.004 C 2104.848 1641.950,2158.834 1591.431,2188.633 1496.000 C 2196.428 1471.034,2197.966 1457.609,2197.797 1416.000 C 2197.619 1372.089,2196.248 1362.103,2186.536 1334.000 C 2180.454 1316.400,2170.899 1294.146,2165.304 1284.546 C 2148.671 1256.010,2111.763 1222.812,2078.271 1206.264 C 2061.622 1198.037,2048.000 1190.695,2048.000 1189.947 C 2048.000 1189.199,2057.450 1183.155,2069.000 1176.517 C 2110.175 1152.850,2147.845 1105.663,2164.862 1056.434 C 2177.257 1020.577,2178.185 930.295,2166.511 896.000 C 2153.132 856.696,2134.713 826.678,2107.261 799.436 C 2085.851 778.189,2071.436 768.403,2035.246 750.548 C 2010.361 738.270,1973.800 723.463,1954.000 717.645 C 1920.549 707.815,1910.069 706.836,1806.000 703.815 C 1744.400 702.026,1639.550 700.437,1573.000 700.282 L 1452.000 700.000 1452.000 1200.000 M1851.541 892.240 C 1896.464 902.596,1939.161 935.938,1947.930 967.509 C 1950.144 975.479,1951.965 994.482,1951.978 1009.737 C 1952.016 1057.104,1930.988 1086.477,1884.000 1104.690 C 1864.681 1112.178,1851.462 1113.444,1775.531 1115.082 L 1689.063 1116.948 1686.478 1047.474 C 1685.056 1009.263,1682.801 957.750,1681.467 933.000 L 1679.041 888.000 1756.520 888.098 C 1799.134 888.152,1841.894 890.015,1851.541 892.240 M1905.758 1289.647 C 1922.790 1299.628,1945.942 1324.353,1955.471 1342.737 C 1958.131 1347.868,1960.000 1371.974,1960.000 1401.137 C 1960.000 1449.498,1959.700 1451.209,1948.542 1466.400 C 1932.176 1488.683,1920.654 1498.340,1897.950 1508.805 C 1879.126 1517.481,1872.414 1518.071,1779.000 1519.254 L 1680.000 1520.507 1680.000 1397.646 L 1680.000 1274.784 1784.008 1277.017 C 1886.911 1279.225,1888.203 1279.359,1905.758 1289.647 " fill="#1D1E23" stroke="none" fill-rule="evenodd"/></svg>