<svg viewBox="0 0 2400 2400" fill="none" xmlns="http://www.w3.org/2000/svg"><path d="M236.038 703.721 C 212.373 705.521,205.809 707.403,204.807 712.677 C 203.699 718.506,259.308 991.745,373.183 1540.000 L 406.000 1698.000 527.792 1698.000 L 649.584 1698.000 698.156 1482.000 C 761.393 1200.782,772.058 1156.000,775.788 1156.000 C 779.452 1156.000,800.786 1242.836,861.564 1505.138 L 906.253 1698.000 1028.522 1699.057 L 1150.791 1700.114 1195.525 1477.057 C 1220.129 1354.376,1265.140 1131.095,1295.549 980.877 C 1332.746 797.128,1349.434 706.886,1346.546 705.101 C 1339.226 700.577,1255.445 698.869,1190.394 701.918 L 1128.348 704.826 1124.243 717.413 C 1117.470 738.180,1105.713 798.702,1061.579 1040.000 C 1038.441 1166.500,1018.485 1275.850,1017.232 1283.000 C 1011.656 1314.811,1010.421 1310.102,933.679 964.330 C 904.178 831.411,877.400 718.628,874.172 713.701 C 869.146 706.031,863.367 704.332,833.955 701.882 C 799.732 699.031,681.806 700.794,678.534 704.206 C 677.588 705.193,651.284 822.100,620.081 964.000 C 540.949 1323.861,542.920 1315.618,539.340 1301.632 C 537.702 1295.234,512.786 1161.300,483.971 1004.000 C 455.156 846.700,430.579 713.950,429.356 709.000 C 427.135 700.008,427.064 700.001,346.566 700.721 C 302.255 701.117,252.517 702.467,236.038 703.721 M1452.000 1200.000 L 1452.000 1700.000 1645.000 1699.990 C 1928.806 1699.976,1966.236 1695.671,2052.000 1653.175 C 2090.013 1634.339,2102.954 1625.428,2126.531 1601.853 C 2199.091 1529.300,2217.661 1418.102,2175.855 1306.501 C 2168.940 1288.043,2160.424 1276.437,2136.153 1252.393 C 2118.521 1234.926,2094.738 1216.178,2080.763 1208.729 C 2067.293 1201.550,2055.305 1194.111,2054.123 1192.198 C 2052.941 1190.286,2063.620 1180.410,2077.855 1170.252 C 2119.695 1140.396,2155.563 1090.189,2167.970 1044.110 C 2175.244 1017.096,2173.979 924.895,2165.952 897.052 C 2151.977 848.577,2118.569 804.959,2071.396 773.599 C 2030.608 746.482,1970.365 721.151,1929.873 714.090 C 1893.113 707.679,1680.306 700.107,1535.000 700.039 L 1452.000 700.000 1452.000 1200.000 M1861.713 896.377 C 1883.994 902.031,1918.999 926.405,1934.864 947.311 C 1947.736 964.274,1948.000 965.447,1948.000 1005.711 C 1948.000 1044.541,1947.373 1047.665,1936.595 1062.543 C 1905.412 1105.591,1885.994 1111.826,1773.641 1114.863 L 1689.283 1117.144 1686.533 1035.572 C 1685.020 990.707,1682.644 938.858,1681.251 920.352 L 1678.720 886.704 1762.073 889.474 C 1807.918 890.997,1852.756 894.104,1861.713 896.377 M1826.000 1279.584 C 1898.741 1283.193,1903.729 1284.861,1933.782 1315.617 C 1951.413 1333.661,1953.876 1338.369,1956.444 1358.931 C 1961.783 1401.682,1960.473 1439.795,1953.133 1455.263 C 1943.547 1475.463,1918.613 1499.259,1896.597 1509.220 C 1879.688 1516.869,1869.014 1517.781,1779.000 1519.264 L 1680.000 1520.894 1680.000 1398.447 L 1680.000 1276.000 1721.000 1276.204 C 1743.550 1276.316,1790.800 1277.837,1826.000 1279.584 " fill="#1D1E23" stroke="none" fill-rule="evenodd"/></svg>