<svg xmlns="http://www.w3.org/2000/svg" width="1200" height="1200" fill="none"><g clip-path="url(#a)"><path fill="#000" d="M200 800c0 44 19.5 83.5 50 111v64c0 41.5 33.5 75 75 75s75-33.5 75-75v-25h400v25c0 41 33.5 75 75 75 41 0 75-33.5 75-75v-64c30.5-27.5 50-67 50-111V300c0-175-179-200-400-200s-400 25-400 200zm175 50c-41.5 0-75-33.5-75-75s33.5-75 75-75 75 33.5 75 75-33.5 75-75 75m450 0c-41.5 0-75-33.5-75-75s33.5-75 75-75 75 33.5 75 75-33.5 75-75 75m75-300H300V300h600z"/></g><defs><clipPath id="a"><path fill="#fff" d="M0 0h1200v1200H0z"/></clipPath></defs></svg>