<svg xmlns="http://www.w3.org/2000/svg" width="1200" height="1200" fill="none" viewBox="0 0 1200 1200"><g clip-path="url(#a)"><path fill="#000" d="M946 300.5C936 271 908 250 875 250H325c-33 0-60.5 21-71 50.5L155.5 584c-3.5 10.5-5.5 21.5-5.5 33v358c0 41.5 33.5 75 75 75s75-33.5 75-75v-25h600v25c0 41 33.5 75 75 75 41 0 75-33.5 75-75V617c0-11-2-22.5-5.5-33zM325 800c-41.5 0-75-33.5-75-75s33.5-75 75-75 75 33.5 75 75-33.5 75-75 75m550 0c-41.5 0-75-33.5-75-75s33.5-75 75-75 75 33.5 75 75-33.5 75-75 75M250 550l63.5-191c7-20 26-34 47.5-34h478c21.5 0 40.5 14 47.5 34L950 550z"/></g><defs><clipPath id="a"><path fill="#fff" d="M0 0h1200v1200H0z"/></clipPath></defs></svg>