<svg xmlns="http://www.w3.org/2000/svg" width="1200" height="1200" fill="none"><g clip-path="url(#a)"><path fill="#1D1E23" d="M629.995 903c-18 14-43.5 14-61.5 0L260.996 664a49.55 49.55 0 0 0-61 0c-25.5 20-25.5 58.5 0 78.5l337.999 263c36 28 86.5 28 123 0l338-263c25.5-20 25.5-58.5 0-78.5l-.5-.5c-18-14-43-14-61 0zm31.5-151 338-262.999c25.5-20 25.5-59 0-79l-338-263c-36-28-86.5-28-123 0l-337.999 263.5c-25.5 20-25.5 59 0 79L538.495 752.5c36 28 87 28 123-.5"/></g><defs><clipPath id="a"><path fill="#fff" d="M0 0h1200v1200H0z"/></clipPath></defs></svg>