<svg xmlns="http://www.w3.org/2000/svg" width="1200" height="1200" fill="none" viewBox="0 0 1200 1200"><g clip-path="url(#a)"><path fill="#000" d="M975 400H850V300c0-55-45-100-100-100H150c-55 0-100 45-100 100v450c0 55 45 100 100 100 0 83 67 150 150 150s150-67 150-150h300c0 83 67 150 150 150s150-67 150-150h50c27.5 0 50-22.5 50-50V633.5c0-21.5-7-42.5-20-60L1015 420c-9.5-12.5-24.5-20-40-20M300 900c-27.5 0-50-22.5-50-50s22.5-50 50-50 50 22.5 50 50-22.5 50-50 50m675-425 98 125H850V475zm-75 425c-27.5 0-50-22.5-50-50s22.5-50 50-50 50 22.5 50 50-22.5 50-50 50"/></g><defs><clipPath id="a"><path fill="#fff" d="M0 0h1200v1200H0z"/></clipPath></defs></svg>