<svg xmlns="http://www.w3.org/2000/svg" width="1200" height="1200" fill="none"><g clip-path="url(#a)"><path fill="#000" d="m732.5 248.999-250-87.5c-21-7.499-44-7.499-65-.499L218 228c-40.5 14-68 52-68 95v592.5c0 70.5 70.5 118.5 136 93l146.5-57c11-4.5 23.5-4.5 34.5-.5l250 87.5c21 7.5 44 7.5 65 .5l199.5-67c40.5-13.5 68-52 68-95V284.5c0-70.501-70.5-118.5-136-93l-146.5 57c-11 4-23 4.5-34.5.499M750 944.5 450 839V255.499L750 361z"/></g><defs><clipPath id="a"><path fill="#fff" d="M0 0h1200v1200H0z"/></clipPath></defs></svg>