<svg xmlns="http://www.w3.org/2000/svg" width="1200" height="1200" fill="none"><g fill="#1D1E23" clip-path="url(#a)"><path d="M475.006 100h249.999v62.5H475.006zM600.12 969.97c63.145 0 132.035-23.845 187.5-62.5 94.025 93.77 312.385 62.5 312.385 62.5v125s-218.36 31.25-312.385-62.5c-55.43 38.635-124.335 62.5-187.5 62.5-63.16 0-132.048-23.845-187.498-62.5-93.438 93.75-312.5 62.5-312.5 62.5v-125s219.004 31.25 312.5-62.5c55.43 38.635 124.358 62.5 187.498 62.5M412.506 782.46c55.449 38.655 124.334 62.5 187.499 62.5s132.07-23.865 187.5-62.5c19.26 19.22 43.73 33.205 70.49 43.225L975.005 537.5l-375-125-374.999 125L341.94 825.8c26.855-10.06 51.387-24.04 70.566-43.34"/><path d="M850.005 288.599v141.367l-250-83.34-249.999 83.34V288.599a62.5 62.5 0 0 1 62.5-62.501h374.999a62.503 62.503 0 0 1 62.5 62.501"/></g><defs><clipPath id="a"><path fill="#fff" d="M0 0h1200v1200H0z"/></clipPath></defs></svg>