<svg width="1200" height="1200" viewBox="0 0 1200 1200" fill="none" xmlns="http://www.w3.org/2000/svg"><g clip-path="url(#clip0_788_1764)"><path d="M475.006 100H725.005V162.5H475.006V100Z" fill="black"/><path d="M600.12 969.97C663.265 969.97 732.155 946.125 787.62 907.47C881.645 1001.24 1100.005 969.97 1100.005 969.97V1094.97C1100.005 1094.97 881.645 1126.22 787.62 1032.47C732.19 1071.105 663.285 1094.97 600.12 1094.97C536.96 1094.97 468.072 1071.125 412.622 1032.47C319.184 1126.22 100.122 1094.97 100.122 1094.97V969.97C100.122 969.97 319.126 1001.22 412.622 907.47C468.052 946.105 536.98 969.97 600.12 969.97Z" fill="black"/><path d="M412.506 782.46C467.955 821.115 536.84 844.96 600.005 844.96C663.17 844.96 732.075 821.095 787.505 782.46C806.765 801.68 831.235 815.665 857.995 825.685L975.005 537.5L600.005 412.5L225.006 537.5L341.94 825.8C368.795 815.74 393.327 801.76 412.506 782.46Z" fill="black"/><path d="M850.005 288.599V429.966L600.005 346.626L350.006 429.966V288.599C350.006 272.023 356.591 256.125 368.312 244.405C380.033 232.684 395.93 226.098 412.506 226.098H787.505C804.08 226.098 819.98 232.684 831.7 244.405C843.42 256.125 850.005 272.023 850.005 288.599Z" fill="black"/></g><defs><clipPath id="clip0_788_1764"><path width="24" fill="white" d="M0 0H1200V1200H0V0z"/></clipPath></defs></svg>