<svg xmlns="http://www.w3.org/2000/svg" width="1200" height="1200" fill="none"><g clip-path="url(#a)"><path fill="#1D1E23" d="M946 300.5C936 271 908 250 875 250H750v-50c0-27.5-22.5-50-50-50H500c-27.5 0-50 22.5-50 50v50H325c-33 0-60.5 21-71 50.5L155.5 584c-3.5 10.5-5.5 21.5-5.5 33v358c0 41.5 33.5 75 75 75s75-33.5 75-75v-25h600v25c0 41 33.5 75 75 75 41 0 75-33.5 75-75V617c0-11-2-22.5-5.5-33zM325 800c-41.5 0-75-33.5-75-75s33.5-75 75-75 75 33.5 75 75-33.5 75-75 75m550 0c-41.5 0-75-33.5-75-75s33.5-75 75-75 75 33.5 75 75-33.5 75-75 75M250 550l75-225h550l75 225z"/></g><defs><clipPath id="a"><path fill="#fff" d="M0 0h1200v1200H0z"/></clipPath></defs></svg>