<svg width="1200" height="1200" viewBox="0 0 1200 1200" fill="none" xmlns="http://www.w3.org/2000/svg"><g clip-path="url(#clip0_124_944)"><path d="M750 150L865 265L720.5 408.5L791.5 479.5L935 335L1050 450V150H750ZM150 450L265 335L408.5 479.5L479.5 408.5L335 265L450 150H150V450ZM450 1050L335 935L479.5 791.5L408.5 720.5L265 865L150 750V1050H450ZM1050 750L935 865L791.5 720.5L720.5 791.5L865 935L750 1050H1050V750Z" fill="black"/></g><defs><clipPath id="clip0_124_944"><path width="24" fill="white" d="M0 0H1200V1200H0V0z"/></clipPath></defs></svg>