<svg width="1200" height="1200" viewBox="0 0 1200 1200" fill="none" xmlns="http://www.w3.org/2000/svg"><g clip-path="url(#clip0_238_1712)"><path d="M149.999 399.999C149.999 427.499 172.499 449.999 199.999 449.999H399.999C427.499 449.999 449.999 427.499 449.999 399.999V199.999C449.999 172.499 427.499 149.999 399.999 149.999C372.499 149.999 349.999 172.499 349.999 199.999V279.499L230.999 160.499C211.499 140.999 179.999 140.999 160.499 160.499C140.999 179.999 140.999 211.499 160.499 230.999L279.499 349.999H199.999C172.499 349.999 149.999 372.499 149.999 399.999ZM1000 349.999H920.5L1039.5 230.999C1059 211.499 1059 179.999 1039.5 160.499C1020 140.999 988.5 140.999 969 160.499L850 279.499V199.999C850 172.499 827.5 149.999 800 149.999C772.5 149.999 750 172.499 750 199.999V399.999C750 427.499 772.5 449.999 800 449.999H1000C1027.5 449.999 1050 427.499 1050 399.999C1050 372.499 1027.5 349.999 1000 349.999ZM199.999 850H279.499L160.499 969C140.999 988.5 140.999 1020 160.499 1039.5C179.999 1059 211.499 1059 230.999 1039.5L349.999 920.5V1000C349.999 1027.5 372.499 1050 399.999 1050C427.499 1050 449.999 1027.5 449.999 1000V800C449.999 772.5 427.499 750 399.999 750H199.999C172.499 750 149.999 772.5 149.999 800C149.999 827.5 172.499 850 199.999 850ZM1050 800C1050 772.5 1027.5 750 1000 750H800C772.5 750 750 772.5 750 800V1000C750 1027.5 772.5 1050 800 1050C827.5 1050 850 1027.5 850 1000V920.5L969 1039.5C988.5 1059 1020 1059 1039.5 1039.5C1059 1020 1059 988.5 1039.5 969L920.5 850H1000C1027.5 850 1050 827.5 1050 800Z" fill="black"/></g><defs><clipPath id="clip0_238_1712"><path width="24" fill="white" d="M0 0H1200V1200H0V0z"/></clipPath></defs></svg>