<svg viewBox="0 0 24 24" fill="none" xmlns="http://www.w3.org/2000/svg"><g><path d="M16.5752 1H3.14159C1.96372 1 1 1.99 1 3.2V20.8C1 22.01 1.95301 23 3.13088 23H20.8584C22.0363 23 23 22.01 23 20.8V7.6L16.5752 1ZM20.8584 20.8H3.14159V3.2H15.5044V8.7H20.8584V20.8Z" fill="#1D1E23"/><path d="M3.84595 12.0199H6.09595C7.03595 12.0199 7.73261 12.3199 8.18595 12.9199 8.63928 13.5199 8.86595 14.3832 8.86595 15.5099 8.86595 16.6366 8.63928 17.4999 8.18595 18.0999 7.73261 18.6999 7.03595 18.9999 6.09595 18.9999H3.84595V12.0199ZM5.99595 17.8199C6.44261 17.8199 6.76928 17.6766 6.97595 17.3899 7.18261 17.1032 7.28595 16.6866 7.28595 16.1399V14.8699C7.28595 14.3299 7.18261 13.9166 6.97595 13.6299 6.76928 13.3432 6.44261 13.1999 5.99595 13.1999H5.32595V17.8199H5.99595ZM12.002 19.1199C11.0687 19.1199 10.3787 18.8032 9.93204 18.1699 9.49204 17.5366 9.27204 16.6499 9.27204 15.5099 9.27204 14.3699 9.49204 13.4832 9.93204 12.8499 10.3787 12.2166 11.0687 11.8999 12.002 11.8999 12.9354 11.8999 13.622 12.2166 14.062 12.8499 14.5087 13.4832 14.732 14.3699 14.732 15.5099 14.732 16.6499 14.5087 17.5366 14.062 18.1699 13.622 18.8032 12.9354 19.1199 12.002 19.1199ZM12.002 17.9099C12.4287 17.9099 12.722 17.7532 12.882 17.4399 13.0487 17.1199 13.132 16.6766 13.132 16.1099V14.8999C13.132 14.3399 13.0487 13.9032 12.882 13.5899 12.722 13.2699 12.4287 13.1099 12.002 13.1099 11.5754 13.1099 11.2787 13.2699 11.112 13.5899 10.952 13.9032 10.872 14.3399 10.872 14.8999V16.1199C10.872 16.6799 10.952 17.1199 11.112 17.4399 11.2787 17.7532 11.5754 17.9099 12.002 17.9099ZM17.9581 19.1199C17.0248 19.1199 16.3315 18.8066 15.8781 18.1799 15.4315 17.5466 15.2081 16.6566 15.2081 15.5099 15.2081 14.3632 15.4315 13.4766 15.8781 12.8499 16.3315 12.2166 17.0248 11.8999 17.9581 11.8999 18.3181 11.8999 18.6348 11.9499 18.9081 12.0499 19.1881 12.1432 19.4281 12.2766 19.6281 12.4499 19.8281 12.6232 19.9915 12.8332 20.1181 13.0799 20.2515 13.3266 20.3548 13.6032 20.4281 13.9099L19.0281 14.2499C18.9881 14.0832 18.9415 13.9299 18.8881 13.7899 18.8348 13.6499 18.7648 13.5299 18.6781 13.4299 18.5981 13.3299 18.4948 13.2532 18.3681 13.1999 18.2481 13.1399 18.1015 13.1099 17.9281 13.1099 17.5215 13.1099 17.2315 13.2699 17.0581 13.5899 16.8915 13.9032 16.8081 14.3399 16.8081 14.8999V16.1199C16.8081 16.6799 16.8915 17.1199 17.0581 17.4399 17.2315 17.7532 17.5215 17.9099 17.9281 17.9099 18.2748 17.9099 18.5248 17.8032 18.6781 17.5899 18.8381 17.3766 18.9548 17.1032 19.0281 16.7699L20.4281 17.1099C20.3548 17.4166 20.2515 17.6932 20.1181 17.9399 19.9915 18.1866 19.8281 18.3999 19.6281 18.5799 19.4281 18.7532 19.1881 18.8866 18.9081 18.9799 18.6348 19.0732 18.3181 19.1199 17.9581 19.1199Z" fill="#1D1E23"/></g></svg>