<svg viewBox="0 0 24 24" fill="none" xmlns="http://www.w3.org/2000/svg"><g><path d="M16.5752 1H3.14159C1.96372 1 1 1.99 1 3.2V20.8C1 22.01 1.95301 23 3.13088 23H20.8584C22.0363 23 23 22.01 23 20.8V7.6L16.5752 1ZM20.8584 20.8H3.14159V3.2H15.5044V8.7H20.8584V20.8Z" fill="#1D1E23"/><path d="M3.96582 19V12.02H6.66582C7.00582 12.02 7.30915 12.0734 7.57582 12.18 7.84249 12.28 8.06582 12.4267 8.24582 12.62 8.43249 12.8134 8.57249 13.0467 8.66582 13.32 8.75915 13.5934 8.80582 13.9 8.80582 14.24 8.80582 14.58 8.75915 14.8867 8.66582 15.16 8.57249 15.4334 8.43249 15.6667 8.24582 15.86 8.06582 16.0534 7.84249 16.2034 7.57582 16.31 7.30915 16.41 7.00582 16.46 6.66582 16.46H5.47582V19H3.96582ZM5.47582 15.25H6.28582C6.63915 15.25 6.88249 15.1834 7.01582 15.05 7.15582 14.9167 7.22582 14.6967 7.22582 14.39V14.09C7.22582 13.7834 7.15582 13.5634 7.01582 13.43 6.88249 13.2967 6.63915 13.23 6.28582 13.23H5.47582V15.25ZM9.64191 12.02H11.8919C12.8319 12.02 13.5286 12.32 13.9819 12.92 14.4352 13.52 14.6619 14.3834 14.6619 15.51 14.6619 16.6367 14.4352 17.5 13.9819 18.1 13.5286 18.7 12.8319 19 11.8919 19H9.64191V12.02ZM11.7919 17.82C12.2386 17.82 12.5652 17.6767 12.7719 17.39 12.9786 17.1034 13.0819 16.6867 13.0819 16.14V14.87C13.0819 14.33 12.9786 13.9167 12.7719 13.63 12.5652 13.3434 12.2386 13.2 11.7919 13.2H11.1219V17.82H11.7919ZM15.598 19V12.02H20.228V13.25H17.098V14.85H19.898V16.08H17.098V19H15.598Z" fill="#1D1E23"/></g></svg>