<svg viewBox="0 0 24 24" fill="none" xmlns="http://www.w3.org/2000/svg"><path fill-rule="evenodd" clip-rule="evenodd" d="M1 23L1.01 1H17L23 7V23H1ZM3 21V3H16V8H21V21H3Z" fill="#1D1E23"/><path d="M3.96582 18.9999V12.0199H6.66582C7.00582 12.0199 7.30915 12.0732 7.57582 12.1799 7.84249 12.2799 8.06582 12.4266 8.24582 12.6199 8.43249 12.8132 8.57249 13.0466 8.66582 13.3199 8.75915 13.5932 8.80582 13.8999 8.80582 14.2399 8.80582 14.5799 8.75915 14.8866 8.66582 15.1599 8.57249 15.4332 8.43249 15.6666 8.24582 15.8599 8.06582 16.0532 7.84249 16.2032 7.57582 16.3099 7.30915 16.4099 7.00582 16.4599 6.66582 16.4599H5.47582V18.9999H3.96582ZM5.47582 15.2499H6.28582C6.63915 15.2499 6.88249 15.1832 7.01582 15.0499 7.15582 14.9166 7.22582 14.6966 7.22582 14.3899V14.0899C7.22582 13.7832 7.15582 13.5632 7.01582 13.4299 6.88249 13.2966 6.63915 13.2299 6.28582 13.2299H5.47582V15.2499ZM11.0019 14.3599H10.8919V18.9999H9.61191V12.0199H11.4119L13.0019 16.6599H13.1119V12.0199H14.3919V18.9999H12.5919L11.0019 14.3599ZM18.908 18.0099H18.818C18.758 18.1566 18.6847 18.2966 18.598 18.4299 18.5113 18.5632 18.4047 18.6832 18.278 18.7899 18.1513 18.8899 18.0013 18.9699 17.828 19.0299 17.6613 19.0899 17.4713 19.1199 17.258 19.1199 16.918 19.1199 16.6147 19.0399 16.348 18.8799 16.088 18.7199 15.868 18.4866 15.688 18.1799 15.508 17.8732 15.3713 17.4999 15.278 17.0599 15.1913 16.6199 15.148 16.1232 15.148 15.5699 15.148 14.3832 15.3647 13.4766 15.798 12.8499 16.2313 12.2166 16.9013 11.8999 17.808 11.8999 18.168 11.8999 18.4847 11.9499 18.758 12.0499 19.0313 12.1432 19.2647 12.2799 19.458 12.4599 19.658 12.6332 19.8213 12.8432 19.948 13.0899 20.0747 13.3366 20.1747 13.6099 20.248 13.9099L18.848 14.2499C18.808 14.1032 18.7613 13.9632 18.708 13.8299 18.6613 13.6899 18.598 13.5666 18.518 13.4599 18.438 13.3532 18.338 13.2699 18.218 13.2099 18.098 13.1432 17.9513 13.1099 17.778 13.1099 17.398 13.1099 17.128 13.2666 16.968 13.5799 16.8147 13.8932 16.738 14.3332 16.738 14.8999V16.0399C16.738 16.6066 16.8213 17.0599 16.988 17.3999 17.1613 17.7399 17.4647 17.9099 17.898 17.9099 18.238 17.9099 18.4913 17.8099 18.658 17.6099 18.8247 17.4099 18.908 17.1532 18.908 16.8399V16.3299H17.718V15.2699H20.248V18.9999H18.908V18.0099Z" fill="#1D1E23"/></svg>