<svg viewBox="0 0 24 24" fill="none" xmlns="http://www.w3.org/2000/svg"><path fill-rule="evenodd" clip-rule="evenodd" d="M1 23L1.01 1H17L23 7V23H1ZM3 21V3H16V8H21V21H3Z" fill="#1D1E23"/><path d="M3.96582 19V12.02H6.66582C7.00582 12.02 7.30915 12.0734 7.57582 12.18 7.84249 12.28 8.06582 12.4267 8.24582 12.62 8.43249 12.8134 8.57249 13.0467 8.66582 13.32 8.75915 13.5934 8.80582 13.9 8.80582 14.24 8.80582 14.58 8.75915 14.8867 8.66582 15.16 8.57249 15.4334 8.43249 15.6667 8.24582 15.86 8.06582 16.0534 7.84249 16.2034 7.57582 16.31 7.30915 16.41 7.00582 16.46 6.66582 16.46H5.47582V19H3.96582ZM5.47582 15.25H6.28582C6.63915 15.25 6.88249 15.1834 7.01582 15.05 7.15582 14.9167 7.22582 14.6967 7.22582 14.39V14.09C7.22582 13.7834 7.15582 13.5634 7.01582 13.43 6.88249 13.2967 6.63915 13.23 6.28582 13.23H5.47582V15.25ZM9.76191 19V12.02H12.4619C12.8019 12.02 13.1052 12.0734 13.3719 12.18 13.6386 12.28 13.8619 12.4267 14.0419 12.62 14.2286 12.8134 14.3686 13.0467 14.4619 13.32 14.5552 13.5934 14.6019 13.9 14.6019 14.24 14.6019 14.58 14.5552 14.8867 14.4619 15.16 14.3686 15.4334 14.2286 15.6667 14.0419 15.86 13.8619 16.0534 13.6386 16.2034 13.3719 16.31 13.1052 16.41 12.8019 16.46 12.4619 16.46H11.2719V19H9.76191ZM11.2719 15.25H12.0819C12.4352 15.25 12.6786 15.1834 12.8119 15.05 12.9519 14.9167 13.0219 14.6967 13.0219 14.39V14.09C13.0219 13.7834 12.9519 13.5634 12.8119 13.43 12.6786 13.2967 12.4352 13.23 12.0819 13.23H11.2719V15.25ZM18.548 13.25V19H17.048V13.25H15.038V12.02H20.558V13.25H18.548Z" fill="#1D1E23"/></svg>