<svg viewBox="0 0 24 24" fill="none" xmlns="http://www.w3.org/2000/svg"><g><path d="M15.9802 10.2801L14.6002 11.6601C14.4002 11.8601 14.4002 12.1701 14.6002 12.3701L15.9802 13.7501C16.2602 14.0301 16.7302 13.9001 16.8302 13.5201C16.9402 13.0201 17.0002 12.5201 17.0002 12.0001C17.0002 11.4901 16.9402 10.9901 16.8202 10.5201C16.7302 10.1401 16.2602 10.0001 15.9802 10.2801ZM20.1002 7.78005C19.8502 7.23005 19.1202 7.11005 18.7002 7.54005C18.4402 7.80005 18.3902 8.18005 18.5302 8.52005C18.9902 9.59005 19.2502 10.7601 19.2502 11.9901C19.2502 13.2301 18.9902 14.4101 18.5202 15.4801C18.3802 15.8001 18.4302 16.1701 18.6802 16.4201C19.0902 16.8301 19.7802 16.7101 20.0302 16.1901C20.6602 14.8901 21.0102 13.4301 21.0102 11.8901C21.0002 10.4401 20.6802 9.04005 20.1002 7.78005ZM11.4102 12.0001L15.0002 8.42005C15.3902 8.03005 15.3902 7.40005 15.0002 7.00005L10.7102 2.71005C10.0802 2.08005 9.00021 2.52005 9.00021 3.41005V9.59005L5.11021 5.70005C4.72021 5.31005 4.09021 5.31005 3.70021 5.70005C3.31021 6.09005 3.31021 6.72005 3.70021 7.11005L8.59021 12.0001L3.70021 16.8901C3.31021 17.2801 3.31021 17.9101 3.70021 18.3001C4.09021 18.6901 4.72021 18.6901 5.11021 18.3001L9.00021 14.4101V20.5901C9.00021 21.4801 10.0802 21.93 10.7102 21.3001L15.0002 17.0001C15.3902 16.6101 15.3902 15.9801 15.0002 15.5801L11.4102 12.0001ZM11.0002 5.83005L12.8802 7.71005L11.0002 9.59005V5.83005ZM11.0002 18.1701V14.4101L12.8802 16.2901L11.0002 18.1701Z" fill="#1D1E23"/></g></svg>