<svg viewBox="0 0 24 24" fill="none" xmlns="http://www.w3.org/2000/svg"><g><path d="M17.0002 7.00005L12.7102 2.71005C12.0802 2.08005 11.0002 2.52005 11.0002 3.41005V9.59005L7.11022 5.70005C6.72022 5.31005 6.09021 5.31005 5.70021 5.70005C5.31021 6.09005 5.31021 6.72005 5.70021 7.11005L10.5902 12.0001L5.70021 16.8901C5.31021 17.2801 5.31021 17.9101 5.70021 18.3001C6.09021 18.6901 6.72022 18.6901 7.11022 18.3001L11.0002 14.4101V20.5901C11.0002 21.4801 12.0802 21.93 12.7102 21.3001L17.0002 17.0001C17.3902 16.6101 17.3902 15.9801 17.0002 15.5901L13.4102 12.0001L17.0002 8.42005C17.3902 8.03005 17.3902 7.39005 17.0002 7.00005ZM13.0002 5.83005L14.8802 7.71005L13.0002 9.59005V5.83005ZM14.8802 16.2901L13.0002 18.1701V14.4101L14.8802 16.2901Z" fill="#1D1E23"/></g></svg>