<svg viewBox="0 0 24 24" fill="none" xmlns="http://www.w3.org/2000/svg"><g><path d="M19.2902 17.8901L6.11022 4.70005C5.72022 4.31005 5.09021 4.31005 4.70021 4.70005C4.31021 5.09005 4.31021 5.72005 4.70021 6.11005L10.5902 12.0001L5.70021 16.8901C5.31021 17.2801 5.31021 17.9101 5.70021 18.3001C6.09021 18.6901 6.72022 18.6901 7.11022 18.3001L11.0002 14.4101V20.5901C11.0002 21.4801 12.0802 21.93 12.7102 21.3001L16.3002 17.7101L17.8902 19.3001C18.2802 19.6901 18.9102 19.6901 19.3002 19.3001C19.6802 18.9101 19.6802 18.2701 19.2902 17.8901ZM13.0002 18.1701V14.4101L14.8802 16.2901L13.0002 18.1701ZM13.0002 5.83005L14.8802 7.71005L13.4102 9.18005L14.8202 10.5901L17.0002 8.42005C17.3902 8.03005 17.3902 7.40005 17.0002 7.00005L12.7102 2.71005C12.0802 2.08005 11.0002 2.52005 11.0002 3.41005V6.77005L13.0002 8.77005V5.83005Z" fill="#1D1E23"/></g></svg>