<svg viewBox="0 0 24 24" fill="none" xmlns="http://www.w3.org/2000/svg"><g><path fill-rule="evenodd" clip-rule="evenodd" d="M2.5168 11.5834H5.16238V10H6.70367V13.8771H5.16238V12.4875H2.5168V13.8771H1V10H2.5168V11.5834ZM7.34476 10H12.0348C12.305 10.0003 12.5641 10.1078 12.7551 10.2989C12.9462 10.49 13.0537 10.749 13.054 11.0192V12.8579C13.0537 13.1281 12.9462 13.3871 12.7551 13.5782C12.5641 13.7692 12.305 13.8767 12.0348 13.8771H7.34476L7.33875 11.5838H8.80656L8.813 12.9124H11.5858V10.9651H7.33875L7.34476 10ZM19.8491 10H13.6668V13.8792H15.1367V10.9672H16.5349V13.8792H17.9959V10.9672H19.3941V13.8792H20.8623V11.0201C20.8629 10.8865 20.8371 10.7542 20.7865 10.6306C20.7358 10.5071 20.6613 10.3947 20.5672 10.2999C20.4731 10.2052 20.3612 10.1299 20.238 10.0785C20.1148 10.027 19.9826 10.0003 19.8491 10ZM21.4832 10H23V11.5834L22.994 12.1055L23 12.4875V13.8771H21.4832V10Z" fill="#1D1E23"/></g></svg>