<svg viewBox="0 0 24 24" fill="none" xmlns="http://www.w3.org/2000/svg"><g><path d="M10.2299 1.75C9.63989 1.16 8.68989 1.16 8.10989 1.75L1.74989 8.11C1.15989 8.7 1.15989 9.65 1.74989 10.23L13.7699 22.25C14.3599 22.84 15.3099 22.84 15.8899 22.25L22.2499 15.89C22.8399 15.3 22.8399 14.35 22.2499 13.77L10.2299 1.75ZM14.1199 20.48L3.51989 9.88C3.12989 9.49 3.12989 8.86 3.51989 8.47L8.46989 3.52C8.85989 3.13 9.48989 3.13 9.87989 3.52L20.4899 14.13C20.8799 14.52 20.8799 15.15 20.4899 15.54L15.5399 20.49C15.1499 20.87 14.5099 20.87 14.1199 20.48ZM17.6099 1.4C16.0399 0.569999 14.0599 -0.0300012 11.8099 0.0199988C11.6299 0.0199988 11.5499 0.239999 11.6699 0.369999L15.1499 3.85L16.4799 2.52C19.5699 3.98 21.8199 6.89 22.3699 10.38C22.4299 10.79 22.8099 11.07 23.2299 11C23.6399 10.94 23.9199 10.55 23.8499 10.14C23.2499 6.34 20.8899 3.14 17.6099 1.4ZM8.84989 20.16L7.51989 21.49C4.42989 20.03 2.17989 17.12 1.62989 13.63C1.56989 13.22 1.18989 12.94 0.769891 13.01C0.359891 13.07 0.0798912 13.46 0.149891 13.87C0.749891 17.68 3.10989 20.88 6.38989 22.62C7.95989 23.45 9.93989 24.05 12.1899 24C12.3699 24 12.4499 23.78 12.3299 23.65L8.84989 20.16Z" fill="#1D1E23"/></g></svg>