<svg viewBox="0 0 24 24" fill="none" xmlns="http://www.w3.org/2000/svg"><g><path d="M17.9998 7.00014H15.9998C15.4498 7.00014 14.9998 7.45014 14.9998 8.00014V10.0001C14.9998 10.5501 15.4498 11.0001 15.9998 11.0001V13.0001H12.9998V5.00014H13.9998C14.4098 5.00014 14.6498 4.53014 14.3998 4.20014L12.3998 1.53014C12.1998 1.26014 11.7998 1.26014 11.5998 1.53014L9.5998 4.20014C9.3498 4.53014 9.5898 5.00014 9.9998 5.00014H10.9998V13.0001H7.9998V10.9301C8.8298 10.4901 9.3798 9.57014 9.1398 8.50014C8.9698 7.73014 8.3698 7.10014 7.6198 6.89014C6.1498 6.48014 4.7998 7.59014 4.7998 9.00014C4.7998 9.85014 5.2998 10.5601 5.9998 10.9301V13.0001C5.9998 14.1001 6.8998 15.0001 7.9998 15.0001H10.9998V18.0501C10.1398 18.5001 9.6098 19.4701 9.8698 20.5401C10.0498 21.2901 10.6598 21.9201 11.4098 22.1201C12.8698 22.5101 14.2098 21.4201 14.2098 20.0001C14.2098 19.1501 13.7198 18.4201 13.0098 18.0501V15.0001H16.0098C17.1098 15.0001 18.0098 14.1001 18.0098 13.0001V11.0001C18.5598 11.0001 19.0098 10.5501 19.0098 10.0001V8.00014C18.9998 7.45014 18.5498 7.00014 17.9998 7.00014Z" fill="#1D1E23"/></g></svg>