<svg viewBox="0 0 24 24" fill="none" xmlns="http://www.w3.org/2000/svg"><g><path fill-rule="evenodd" clip-rule="evenodd" d="M22 11.0551H20.3231C20.3229 10.0786 20.1272 9.112 19.7476 8.21229C19.368 7.31258 18.8122 6.49796 18.1129 5.81641C16.6882 4.4205 14.7715 3.64107 12.777 3.64648V2C15.1375 2 17.4977 2.88398 19.2984 4.65234C20.1533 5.48528 20.8327 6.48091 21.2966 7.58054C21.7606 8.68018 21.9998 9.86157 22 11.0551ZM9.63164 6.02657H7.43203L5.80469 11.8664L4.18281 6.02657H2L4.72734 14.0481H6.88203L9.63164 6.02657ZM8.49805 15.2953H6.88203V22H11.3117V20.7566H8.49805V15.2953ZM10.8981 16.5434H12.8734V22H14.4898V16.5434H16.502V15.2953H10.8981V16.5434ZM21.9906 22H17.3723V15.2953H22V16.5434H18.9883V17.957H21.5305V19.159H18.9883V20.7566H21.9906V22ZM16.927 6.98047C15.8189 5.89483 14.3282 5.28868 12.777 5.29297V6.93906C13.8851 6.93606 14.95 7.36922 15.7414 8.14492C16.1299 8.52356 16.4386 8.9761 16.6494 9.4759C16.8603 9.97569 16.969 10.5126 16.9691 11.0551H18.6461C18.6459 10.2956 18.4937 9.54376 18.1984 8.84398C17.9032 8.14419 17.4709 7.51058 16.927 6.98047ZM15.49 12.2381C15.3392 12.5954 15.1184 12.9189 14.8406 13.1895C14.2737 13.7421 13.5134 14.0514 12.7217 14.0514C11.93 14.0514 11.1696 13.7421 10.6027 13.1895C10.325 12.9188 10.1043 12.5954 9.95362 12.2381C9.80292 11.8808 9.72528 11.497 9.72528 11.1092C9.72528 10.7214 9.80292 10.3376 9.95362 9.98031C10.1043 9.62303 10.325 9.29954 10.6027 9.02892C11.1697 8.47647 11.9301 8.1673 12.7217 8.1673C13.5133 8.1673 14.2736 8.47647 14.8406 9.02892C15.1184 9.29949 15.3392 9.62296 15.49 9.98025C15.6407 10.3375 15.7184 10.7214 15.7184 11.1092C15.7184 11.497 15.6407 11.8808 15.49 12.2381ZM12.7219 9.65099C12.3294 9.65099 11.9525 9.80426 11.6715 10.0781C11.5338 10.2123 11.4244 10.3726 11.3497 10.5497C11.275 10.7267 11.2365 10.917 11.2365 11.1092C11.2365 11.3014 11.275 11.4916 11.3497 11.6687C11.4244 11.8458 11.5338 12.0061 11.6715 12.1402C11.9525 12.4141 12.3294 12.5674 12.7219 12.5674C13.1143 12.5674 13.4912 12.4141 13.7723 12.1402C13.9099 12.0061 14.0193 11.8458 14.0941 11.6687C14.1688 11.4916 14.2073 11.3014 14.2073 11.1092C14.2073 10.917 14.1688 10.7267 14.0941 10.5497C14.0193 10.3726 13.9099 10.2123 13.7723 10.0781C13.4912 9.80426 13.1143 9.65099 12.7219 9.65099Z" fill="#1D1E23"/></g></svg>