<svg viewBox="0 0 2400 2400" fill="none" xmlns="http://www.w3.org/2000/svg"><path d="M904.950 712.446 C 872.449 728.533,842.335 771.147,685.935 1022.362 L 598.550 1162.724 438.599 1165.379 L 278.649 1168.033 259.335 1180.427 C 211.344 1211.222,189.920 1263.589,205.779 1311.334 C 214.165 1336.583,242.041 1368.418,269.612 1384.231 L 290.000 1395.925 490.177 1395.962 L 690.354 1396.000 712.034 1383.000 C 739.390 1366.597,758.992 1341.998,813.799 1255.291 C 898.366 1121.503,937.180 1063.582,940.128 1066.776 C 941.765 1068.549,992.791 1176.492,1053.520 1306.649 C 1246.371 1719.975,1269.238 1764.860,1294.569 1779.806 C 1342.763 1808.241,1403.510 1802.393,1435.230 1766.266 C 1454.853 1743.917,1508.685 1661.703,1611.190 1497.535 C 1662.176 1415.879,1706.261 1347.103,1709.159 1344.698 C 1712.556 1341.879,1769.014 1338.808,1868.213 1336.047 C 1952.796 1333.693,2028.620 1329.985,2036.712 1327.807 C 2054.723 1322.959,2084.211 1295.080,2096.320 1271.453 C 2102.125 1260.125,2105.910 1244.116,2107.105 1225.839 C 2109.522 1188.832,2099.273 1164.039,2070.183 1136.527 C 2053.201 1120.466,2045.438 1116.068,2029.593 1113.531 C 2018.817 1111.806,1920.000 1110.306,1810.000 1110.197 C 1611.066 1110.001,1609.925 1110.047,1596.000 1118.748 C 1565.707 1137.677,1551.230 1157.364,1448.552 1319.254 C 1417.417 1368.344,1387.510 1415.032,1382.091 1423.006 L 1372.239 1437.505 1345.748 1381.752 C 1331.179 1351.089,1281.463 1245.000,1235.269 1146.000 C 1136.428 934.168,1048.531 754.363,1036.444 739.275 C 1031.719 733.377,1016.798 723.027,1003.287 716.275 C 971.926 700.604,932.014 699.049,904.950 712.446 " fill="#1D1E23" stroke="none" fill-rule="evenodd"/></svg>