<svg viewBox="0 0 2400 2400" fill="none" xmlns="http://www.w3.org/2000/svg"><path d="M904.884 714.308 C 871.377 731.006,836.983 779.411,684.138 1024.984 L 598.276 1162.936 438.138 1165.726 L 278.000 1168.517 256.975 1182.762 C 205.756 1217.467,187.388 1275.757,212.290 1324.568 C 223.087 1345.732,254.196 1376.876,275.286 1387.636 C 291.274 1395.792,296.664 1396.000,492.205 1396.000 L 692.728 1396.000 715.628 1379.937 C 743.717 1360.234,764.826 1332.633,829.459 1231.103 C 890.222 1135.650,935.399 1068.000,938.378 1068.000 C 941.088 1068.000,971.985 1132.606,1082.695 1369.768 C 1197.938 1616.640,1260.422 1742.584,1277.507 1762.433 C 1312.078 1802.595,1384.913 1808.825,1425.807 1775.116 C 1442.190 1761.613,1504.289 1668.662,1618.297 1486.997 C 1662.133 1417.146,1700.872 1356.178,1704.381 1351.514 C 1710.395 1343.524,1715.930 1342.828,1800.381 1339.446 C 2061.657 1328.983,2044.252 1331.665,2076.824 1296.843 C 2117.472 1253.387,2118.317 1190.480,2078.854 1145.648 C 2048.214 1110.839,2058.593 1112.188,1820.605 1112.088 C 1585.041 1111.989,1597.477 1110.485,1567.818 1142.661 C 1551.389 1160.484,1500.995 1235.799,1417.810 1366.853 C 1393.772 1404.722,1372.837 1434.422,1371.285 1432.853 C 1369.734 1431.284,1326.296 1340.000,1274.755 1230.000 C 1158.722 982.359,1077.044 812.099,1053.896 769.615 C 1034.804 734.573,1020.356 721.870,986.529 710.386 C 958.124 700.742,929.333 702.125,904.884 714.308 " fill="#1D1E23" stroke="none" fill-rule="evenodd"/></svg>