<svg viewBox="0 0 2400 2400" fill="none" xmlns="http://www.w3.org/2000/svg"><path d="M924.000 703.501 C 902.414 710.608,880.832 724.114,867.727 738.715 C 860.177 747.127,796.453 846.181,726.119 958.835 L 598.238 1163.661 440.119 1164.831 L 282.000 1166.000 260.578 1177.866 C 194.961 1214.210,180.167 1299.728,229.922 1355.068 C 240.642 1366.991,256.195 1378.723,268.882 1384.457 L 290.000 1394.000 490.000 1394.000 C 684.524 1394.000,690.493 1393.771,708.000 1385.633 C 717.900 1381.031,731.795 1372.367,738.878 1366.380 C 745.961 1360.393,793.498 1288.750,844.516 1207.175 L 937.276 1058.856 946.023 1076.428 C 950.834 1086.092,1022.997 1240.437,1106.385 1419.415 C 1198.804 1617.775,1262.906 1750.574,1270.565 1759.542 C 1311.089 1806.994,1386.158 1812.236,1433.713 1770.933 C 1443.344 1762.568,1494.883 1683.820,1579.620 1548.000 L 1710.637 1338.000 1868.319 1336.000 C 2045.544 1333.752,2043.183 1334.127,2074.768 1303.206 C 2124.249 1254.764,2120.898 1174.190,2067.652 1132.102 C 2033.949 1105.462,2039.058 1106.000,1820.000 1106.000 L 1622.000 1106.000 1601.092 1115.453 C 1589.592 1120.652,1573.385 1132.352,1565.076 1141.453 C 1556.767 1150.554,1510.415 1221.400,1462.073 1298.888 C 1413.730 1376.377,1372.967 1438.477,1371.489 1436.888 C 1370.011 1435.300,1297.200 1280.436,1209.687 1092.747 C 1038.916 726.495,1041.414 731.080,1002.404 712.196 C 982.099 702.366,941.216 697.832,924.000 703.501 " fill="#1D1E23" stroke="none" fill-rule="evenodd"/></svg>