<svg viewBox="0 0 2400 2400" fill="none" xmlns="http://www.w3.org/2000/svg"><path d="M913.129 708.295 C 873.493 723.807,861.401 740.653,676.172 1038.436 L 598.769 1162.872 439.706 1164.868 L 280.643 1166.863 263.091 1177.149 C 224.412 1199.817,200.000 1239.835,200.000 1280.576 C 200.000 1321.745,231.958 1367.267,274.547 1386.765 L 296.667 1396.892 493.669 1395.419 L 690.671 1393.946 714.102 1381.963 C 742.195 1367.596,753.954 1351.417,864.797 1174.619 C 912.929 1097.848,938.205 1060.958,940.199 1064.568 C 941.849 1067.556,993.958 1178.900,1055.996 1312.000 C 1221.702 1667.516,1267.698 1760.311,1284.602 1773.205 C 1324.775 1803.846,1379.153 1806.912,1419.805 1780.827 C 1440.164 1767.764,1476.192 1714.364,1611.974 1496.000 C 1663.274 1413.500,1706.741 1344.315,1708.567 1342.256 C 1710.435 1340.150,1779.708 1337.251,1866.944 1335.628 C 1966.830 1333.770,2027.693 1331.051,2038.000 1327.987 C 2061.089 1321.122,2092.961 1287.174,2102.172 1259.634 C 2116.748 1216.052,2107.434 1172.066,2077.234 1141.866 C 2043.326 1107.957,2060.024 1110.145,1825.125 1108.833 C 1635.441 1107.773,1615.043 1108.287,1603.125 1114.426 C 1568.402 1132.310,1558.291 1145.599,1457.106 1306.343 C 1430.676 1348.331,1400.758 1395.046,1390.624 1410.153 L 1372.197 1437.621 1343.624 1377.811 C 1327.909 1344.915,1270.108 1221.700,1215.179 1104.000 C 1086.915 829.162,1051.678 757.737,1034.392 737.542 C 1007.671 706.325,952.292 692.968,913.129 708.295 " fill="#1D1E23" stroke="none" fill-rule="evenodd"/></svg>