<svg viewBox="0 0 2400 2400" fill="none" xmlns="http://www.w3.org/2000/svg"><path d="M918.000 708.810 C 881.216 719.052,840.015 774.674,686.012 1022.000 C 638.067 1099.000,598.650 1162.271,598.419 1162.601 C 598.189 1162.932,526.000 1164.522,438.000 1166.134 L 278.000 1169.065 261.433 1180.427 C 234.772 1198.711,212.582 1226.767,205.492 1251.156 C 194.248 1289.833,205.474 1324.519,240.515 1359.368 C 277.871 1396.520,259.321 1393.850,489.076 1395.140 L 692.153 1396.279 709.076 1384.509 C 744.339 1359.983,757.811 1342.232,855.178 1192.000 C 892.964 1133.700,927.370 1081.544,931.637 1076.098 L 939.395 1066.196 967.933 1126.098 C 983.629 1159.044,1030.947 1259.800,1073.085 1350.000 C 1189.351 1598.875,1265.045 1749.045,1283.559 1767.559 C 1304.419 1788.419,1332.598 1797.605,1367.968 1795.074 C 1404.066 1792.491,1423.511 1781.058,1447.857 1748.102 C 1473.827 1712.949,1551.391 1593.921,1636.218 1459.049 C 1674.598 1398.026,1708.537 1347.123,1711.637 1345.930 C 1714.737 1344.738,1777.737 1341.159,1851.637 1337.978 C 2041.626 1329.799,2046.708 1328.975,2071.227 1302.375 C 2097.927 1273.410,2105.815 1254.623,2105.815 1220.000 C 2105.815 1196.522,2103.840 1186.265,2096.734 1172.820 C 2083.494 1147.769,2061.597 1125.199,2044.736 1119.223 C 2023.224 1111.598,1620.639 1111.649,1599.094 1119.279 C 1573.805 1128.236,1553.884 1155.406,1412.393 1373.921 C 1391.709 1405.864,1373.684 1432.000,1372.337 1432.000 C 1370.991 1432.000,1365.167 1421.650,1359.396 1409.000 C 1353.625 1396.350,1310.232 1304.100,1262.968 1204.000 C 1074.879 805.651,1053.135 761.707,1033.191 739.632 C 1008.582 712.392,955.828 698.277,918.000 708.810 " fill="#1D1E23" stroke="none" fill-rule="evenodd"/></svg>