<svg viewBox="0 0 2400 2400" fill="none" xmlns="http://www.w3.org/2000/svg"><path fill-rule="evenodd" d="M959.688 700.216C1002.05 702.803 1039.61 728.362 1057.56 766.824L1372.68 1442.08L1549.18 1159.68C1570.34 1125.83 1607.44 1105.26 1647.37 1105.26H1994.73C2058.68 1105.26 2110.52 1157.1 2110.52 1221.05C2110.52 1285 2058.68 1336.84 1994.73 1336.84H1711.54L1456.08 1745.58C1433.59 1781.57 1393.2 1802.37 1350.84 1799.78C1308.47 1797.2 1270.92 1771.64 1252.97 1733.18L937.846 1057.92L761.346 1340.32C740.187 1374.17 703.08 1394.74 663.157 1394.74H315.789C251.841 1394.74 200 1342.9 200 1278.95C200 1215 251.841 1163.16 315.789 1163.16H598.981L854.441 754.422C876.937 718.429 917.322 697.629 959.688 700.216Z" fill="#1D1E23"/></svg>