<svg viewBox="0 0 2400 2400" fill="none" xmlns="http://www.w3.org/2000/svg"><path d="M1070.000 210.665 C 903.001 231.076,715.261 310.999,578.000 420.117 C 501.255 481.127,422.060 567.032,370.305 645.409 C 283.280 777.199,229.448 920.821,207.415 1080.000 C 199.705 1135.698,200.791 1274.858,209.382 1332.000 C 244.170 1563.412,346.382 1762.253,512.669 1922.010 C 738.284 2138.765,1056.457 2237.556,1362.000 2185.722 C 1470.270 2167.354,1610.194 2119.142,1650.000 2086.489 L 1662.000 2076.645 1654.000 2061.326 C 1643.049 2040.358,1553.595 1951.275,1534.601 1942.423 L 1519.202 1935.246 1454.601 1955.469 C 1338.369 1991.855,1311.567 1996.261,1206.379 1996.276 C 1096.829 1996.292,1032.982 1986.181,941.535 1954.335 C 737.258 1883.197,575.166 1738.076,482.288 1543.170 C 454.390 1484.625,437.730 1438.753,421.430 1375.601 C 411.314 1336.405,410.596 1327.536,409.009 1222.161 C 407.904 1148.760,408.937 1099.295,412.017 1078.236 C 422.610 1005.789,450.467 919.201,486.352 847.182 C 538.547 742.431,589.792 677.181,689.364 588.689 C 744.731 539.482,852.200 477.071,928.000 450.104 C 1083.322 394.846,1284.095 390.124,1435.822 438.159 C 1467.127 448.071,1507.725 464.690,1590.927 501.653 C 1623.265 516.020,1624.087 516.163,1636.927 509.640 C 1654.249 500.840,1753.986 400.133,1757.074 388.324 C 1760.405 375.586,1745.387 362.657,1692.195 332.469 C 1589.277 274.060,1457.749 228.887,1342.000 212.196 C 1316.316 208.492,1097.838 207.263,1070.000 210.665 M2007.846 440.274 C 1981.199 461.063,1837.397 602.694,1397.016 1041.880 L 1060.033 1377.949 989.016 1307.698 C 879.582 1199.443,831.470 1155.390,814.000 1147.449 C 783.114 1133.409,740.449 1140.835,710.363 1165.488 C 686.732 1184.852,680.000 1200.709,680.000 1237.004 C 680.000 1274.888,677.591 1271.580,793.261 1392.554 C 897.335 1501.401,988.940 1587.784,1017.920 1604.407 C 1043.213 1618.915,1074.871 1620.316,1095.345 1607.834 C 1117.570 1594.284,1309.163 1406.630,1734.313 982.000 C 2055.387 661.319,2140.686 574.014,2147.918 558.675 C 2155.567 542.450,2156.707 534.853,2155.023 511.320 C 2152.584 477.229,2139.851 456.433,2110.190 438.095 C 2093.811 427.968,2085.670 425.775,2060.160 424.615 L 2029.693 423.230 2007.846 440.274 M1955.436 1213.822 C 1929.656 1227.554,1909.446 1252.351,1904.236 1276.641 C 1901.883 1287.614,1900.000 1341.644,1900.000 1398.197 L 1900.000 1500.000 1839.000 1500.218 C 1805.450 1500.338,1752.165 1501.927,1720.589 1503.749 C 1666.420 1506.875,1662.262 1507.710,1646.969 1518.531 C 1638.055 1524.839,1625.190 1536.917,1618.381 1545.371 C 1606.456 1560.177,1606.000 1562.164,1606.000 1599.371 C 1606.000 1643.413,1609.915 1651.923,1642.437 1678.572 C 1659.537 1692.585,1662.508 1693.521,1699.241 1696.485 C 1720.558 1698.204,1774.450 1699.699,1819.000 1699.806 L 1900.000 1700.000 1900.216 1789.000 C 1900.505 1908.204,1903.605 1936.309,1918.492 1954.657 C 1924.821 1962.459,1937.827 1974.502,1947.394 1981.421 C 1963.764 1993.260,1966.862 1994.000,2000.049 1994.000 C 2032.792 1994.000,2036.522 1993.143,2052.275 1982.000 C 2061.605 1975.400,2074.591 1963.353,2081.134 1955.229 C 2092.128 1941.576,2093.275 1937.033,2096.283 1895.229 C 2098.074 1870.353,2099.642 1816.250,2099.769 1775.000 L 2100.000 1700.000 2175.000 1699.769 C 2216.250 1699.642,2270.353 1698.074,2295.229 1696.283 C 2337.033 1693.275,2341.576 1692.128,2355.229 1681.134 C 2363.353 1674.591,2375.400 1661.605,2382.000 1652.275 C 2393.146 1636.518,2394.000 1632.798,2394.000 1600.000 C 2394.000 1567.154,2393.154 1563.486,2381.888 1547.456 C 2375.227 1537.978,2362.401 1525.040,2353.387 1518.705 C 2337.518 1507.551,2334.856 1507.078,2269.499 1503.784 C 2232.375 1501.913,2179.330 1500.297,2151.623 1500.191 L 2101.246 1500.000 2098.920 1388.249 C 2096.028 1249.281,2093.380 1240.946,2044.000 1215.445 C 2017.119 1201.563,1979.737 1200.878,1955.436 1213.822 " fill="#1D1E23" stroke="none" fill-rule="evenodd"/></svg>