<svg viewBox="0 0 2400 2400" fill="none" xmlns="http://www.w3.org/2000/svg"><path d="M1094.000 207.981 C 988.883 216.039,860.409 254.052,750.000 309.762 C 648.955 360.748,568.474 419.717,487.126 502.373 C 430.381 560.030,408.675 586.785,365.732 652.000 C 226.975 862.721,172.848 1116.510,214.306 1362.000 C 249.113 1568.113,347.835 1759.165,496.055 1907.257 C 754.932 2165.913,1136.520 2262.550,1484.000 2157.454 C 1585.093 2126.879,1660.000 2090.865,1660.000 2072.839 C 1660.000 2056.586,1562.294 1954.687,1533.581 1940.995 C 1519.822 1934.433,1518.946 1934.584,1462.825 1953.170 C 1352.859 1989.587,1303.190 1997.907,1198.000 1997.534 C 1070.393 1997.082,973.369 1974.949,856.862 1919.714 C 628.536 1811.465,467.882 1603.370,415.486 1348.000 C 407.082 1307.043,406.045 1291.256,406.024 1204.000 C 406.000 1104.054,408.307 1080.362,424.529 1014.000 C 452.803 898.332,508.363 785.467,580.085 698.000 C 611.147 660.119,683.133 590.980,720.789 562.860 C 856.266 461.693,1000.650 411.031,1170.000 405.240 C 1316.963 400.214,1419.239 421.278,1551.203 483.747 C 1583.541 499.056,1614.698 512.707,1620.440 514.084 C 1633.368 517.183,1660.930 495.240,1713.137 440.286 C 1757.289 393.811,1761.897 387.018,1756.326 376.608 C 1750.328 365.402,1710.303 339.975,1652.000 310.334 C 1568.204 267.732,1473.711 235.969,1376.000 217.558 C 1330.348 208.956,1307.777 207.169,1230.000 205.996 C 1179.400 205.232,1118.200 206.126,1094.000 207.981 M2037.020 423.154 C 2027.183 424.177,2013.639 433.887,1981.090 463.252 C 1957.468 484.563,1740.464 698.988,1498.860 939.751 L 1059.579 1377.502 982.789 1301.499 C 872.339 1192.180,828.514 1151.806,813.480 1145.525 C 792.729 1136.854,757.199 1138.588,733.971 1149.405 C 713.004 1159.169,690.390 1181.496,683.287 1199.444 C 677.958 1212.911,677.869 1258.870,683.147 1272.188 C 688.447 1285.562,857.115 1461.244,939.606 1539.312 C 1009.477 1605.435,1026.999 1616.655,1061.716 1617.504 C 1078.801 1617.922,1085.155 1615.811,1102.000 1604.121 C 1137.830 1579.257,2092.879 630.050,2137.965 574.492 C 2152.388 556.719,2153.935 552.521,2155.361 527.282 C 2157.417 490.904,2149.195 469.253,2125.360 448.272 C 2101.626 427.381,2073.437 419.365,2037.020 423.154 M1978.183 1204.571 C 1943.145 1212.642,1911.142 1242.823,1903.720 1274.795 C 1901.779 1283.158,1900.148 1336.978,1900.095 1394.395 L 1900.000 1498.789 1786.591 1500.986 C 1660.938 1503.421,1659.975 1503.609,1630.670 1531.441 C 1622.239 1539.448,1612.647 1551.135,1609.355 1557.412 C 1601.275 1572.816,1601.289 1627.155,1609.377 1642.795 C 1616.874 1657.293,1648.407 1686.690,1663.031 1692.816 C 1670.040 1695.753,1714.647 1698.025,1786.595 1699.111 L 1899.190 1700.810 1900.796 1813.405 C 1902.085 1903.675,1903.630 1928.776,1908.590 1940.000 C 1916.118 1957.035,1943.671 1982.599,1963.376 1990.833 C 1984.178 1999.524,2023.589 1998.434,2042.568 1988.641 C 2063.202 1977.994,2087.086 1952.735,2092.560 1935.772 C 2095.150 1927.744,2097.815 1875.893,2098.949 1811.447 L 2100.893 1700.893 2211.447 1698.949 C 2275.893 1697.815,2327.744 1695.150,2335.772 1692.560 C 2352.767 1687.076,2378.000 1663.191,2388.692 1642.468 C 2394.379 1631.444,2396.706 1619.116,2396.706 1600.000 C 2396.706 1580.884,2394.379 1568.556,2388.692 1557.532 C 2377.857 1536.533,2352.572 1512.779,2335.772 1507.817 C 2328.197 1505.580,2272.250 1502.625,2211.444 1501.251 L 2100.889 1498.752 2098.946 1388.376 C 2097.817 1324.196,2095.147 1272.249,2092.569 1264.259 C 2079.868 1224.909,2021.687 1194.550,1978.183 1204.571 " fill="#1D1E23" stroke="none" fill-rule="evenodd"/></svg>