<svg viewBox="0 0 2400 2400" fill="none" xmlns="http://www.w3.org/2000/svg"><path d="M2129.26 447.766C2168.29 486.52 2168.42 549.607 2129.55 588.516L1629.5 1089L1129.71 1589.23C1090.66 1628.31 1027.32 1628.32 988.258 1589.26L705.5 1306.5C666.564 1267.56 666.564 1204.44 705.5 1165.5C744.436 1126.56 807.564 1126.56 846.5 1165.5L1059 1378L1988.98 448.016C2027.69 409.307 2090.42 409.195 2129.26 447.766ZM1200 2000C759 2000 400 1641 400 1200C400 759 759 400 1200 400C1349.86 400 1490.61 441.912 1610.95 514.431C1620.99 520.482 1633.9 519.101 1642.19 510.812L1751.89 401.113C1762.89 390.106 1761.28 371.808 1748.25 363.291C1585.44 256.86 1394.95 199.998 1200 200C648 200 200 648 200 1200C200 1752 648 2200 1200 2200C1361.16 2200 1513.63 2161.82 1648.54 2093.54C1663.4 2086.02 1666.23 2066.23 1654.45 2054.45L1540.31 1940.31C1532.91 1932.91 1521.71 1930.94 1512.11 1935.1C1416.29 1976.67 1310.84 2000 1200 2000ZM1900 1500H1700C1644.77 1500 1600 1544.77 1600 1600C1600 1655.23 1644.77 1700 1700 1700H1900V1900C1900 1955.23 1944.77 2000 2000 2000C2055.23 2000 2100 1955.23 2100 1900V1700H2300C2355.23 1700 2400 1655.23 2400 1600C2400 1544.77 2355.23 1500 2300 1500H2100V1300C2100 1244.77 2055.23 1200 2000 1200C1944.77 1200 1900 1244.77 1900 1300V1500Z" fill="#1D1E23"/></svg>