<svg viewBox="0 0 2400 2400" fill="none" xmlns="http://www.w3.org/2000/svg"><path d="M1063.537 211.990 C 899.157 231.071,700.797 319.145,560.435 435.373 C 375.560 588.461,255.707 800.615,211.680 1052.712 C 200.450 1117.017,199.512 1265.198,209.899 1334.000 C 239.505 1530.091,318.397 1702.698,446.596 1851.870 C 675.118 2117.774,1030.654 2245.290,1372.095 2183.808 C 1490.030 2162.572,1660.000 2098.075,1660.000 2074.559 C 1660.000 2065.017,1637.966 2038.953,1591.495 1993.526 C 1525.106 1928.628,1534.321 1930.909,1446.689 1957.676 C 1329.771 1993.387,1325.496 1994.024,1204.000 1993.836 C 1087.589 1993.656,1060.002 1990.377,983.255 1967.598 C 725.624 1891.134,531.768 1704.576,443.326 1448.000 C 416.933 1371.431,412.583 1343.793,409.762 1234.714 C 406.842 1121.822,410.355 1073.717,426.039 1011.845 C 475.272 817.621,595.281 645.792,756.000 539.406 C 813.073 501.626,908.494 455.146,960.000 440.034 C 1112.246 395.367,1303.314 395.259,1439.198 439.763 C 1458.339 446.032,1505.814 464.850,1544.697 481.581 C 1583.581 498.311,1619.942 512.000,1625.501 512.000 C 1645.993 512.000,1757.808 400.545,1755.220 382.700 C 1753.243 369.071,1718.509 345.903,1646.000 309.847 C 1567.860 270.992,1475.041 238.640,1394.087 222.044 C 1345.800 212.144,1333.504 211.298,1218.087 209.928 C 1149.839 209.117,1080.292 210.046,1063.537 211.990 M2007.996 440.330 C 1981.892 460.904,1790.600 649.346,1369.343 1069.469 L 1060.687 1377.294 961.343 1280.771 C 814.947 1138.531,805.371 1132.156,755.915 1144.020 C 706.879 1155.784,680.000 1188.408,680.000 1236.162 C 680.000 1258.950,681.689 1265.178,692.152 1280.975 C 722.292 1326.478,965.277 1569.036,1012.540 1600.801 C 1030.554 1612.908,1056.766 1618.247,1078.327 1614.203 C 1099.154 1610.295,1127.407 1583.525,1507.558 1207.488 C 1904.946 814.400,2142.569 572.402,2151.017 552.182 C 2158.883 533.358,2155.696 494.925,2144.440 472.863 C 2138.798 461.803,2128.353 451.004,2114.224 441.624 C 2095.358 429.097,2088.678 427.016,2061.312 425.140 L 2029.992 422.993 2007.996 440.330 M1966.510 1209.629 C 1943.696 1218.120,1923.356 1236.290,1912.018 1258.307 C 1902.148 1277.475,1901.980 1279.398,1900.670 1388.881 L 1899.341 1500.000 1846.670 1500.125 C 1817.702 1500.194,1765.336 1501.930,1730.302 1503.981 C 1670.858 1507.463,1665.407 1508.457,1648.691 1518.856 C 1638.839 1524.985,1625.204 1536.918,1618.389 1545.374 C 1606.503 1560.123,1606.010 1562.235,1606.239 1597.374 C 1606.511 1639.127,1611.174 1651.422,1634.505 1671.907 C 1661.939 1695.995,1667.418 1696.962,1788.587 1699.114 L 1899.174 1701.078 1901.065 1809.539 C 1902.272 1878.701,1904.739 1923.797,1907.875 1934.000 C 1913.358 1951.836,1947.350 1986.462,1964.000 1991.172 C 1969.500 1992.727,1987.773 1993.917,2004.607 1993.816 C 2031.662 1993.653,2037.146 1992.294,2051.853 1982.102 C 2073.773 1966.911,2086.695 1951.110,2092.110 1932.876 C 2094.555 1924.640,2097.554 1869.601,2098.828 1809.565 L 2101.130 1701.130 2209.565 1698.828 C 2269.601 1697.554,2324.640 1694.555,2332.876 1692.110 C 2351.173 1686.677,2366.917 1673.764,2382.286 1651.587 C 2393.054 1636.049,2394.000 1631.863,2394.000 1599.736 C 2394.000 1566.967,2393.220 1563.702,2381.496 1547.394 C 2374.619 1537.827,2361.021 1525.009,2351.279 1518.908 C 2334.429 1508.357,2330.067 1507.631,2261.783 1504.004 C 2222.302 1501.907,2170.013 1500.148,2145.585 1500.095 L 2101.169 1500.000 2098.864 1395.000 C 2096.381 1281.865,2092.496 1255.616,2075.543 1237.440 C 2051.382 1211.535,1997.985 1197.915,1966.510 1209.629 " fill="#1D1E23" stroke="none" fill-rule="evenodd"/></svg>