<svg viewBox="0 0 2400 2400" fill="none" xmlns="http://www.w3.org/2000/svg"><path d="M1062.000 210.289 C 842.869 243.853,647.362 340.790,498.022 489.920 C 471.541 516.364,437.598 553.300,422.593 572.000 C 227.601 815.016,155.925 1130.851,227.877 1430.000 C 287.807 1679.165,437.012 1892.601,650.000 2033.841 C 776.385 2117.651,910.791 2167.969,1074.000 2192.573 C 1127.839 2200.689,1277.926 2199.630,1336.000 2190.723 C 1425.997 2176.921,1501.743 2155.674,1590.795 2119.253 C 1641.336 2098.583,1660.000 2085.987,1660.000 2072.550 C 1660.000 2060.967,1635.071 2031.556,1582.402 1981.000 C 1528.160 1928.934,1528.164 1928.936,1478.551 1948.040 C 1209.148 2051.777,898.992 1995.290,675.528 1801.788 C 532.467 1677.908,437.650 1503.665,409.411 1312.752 C 400.848 1254.858,401.041 1143.602,409.805 1086.000 C 439.478 890.962,530.991 724.149,678.000 597.128 C 783.746 505.759,900.145 447.602,1032.000 420.259 C 1092.143 407.787,1137.199 403.456,1206.000 403.536 C 1340.054 403.691,1443.959 428.783,1564.811 490.184 C 1592.758 504.383,1620.479 516.000,1626.415 516.000 C 1635.002 516.000,1649.750 503.456,1698.603 454.603 C 1738.097 415.110,1760.000 390.264,1760.000 384.959 C 1760.000 374.181,1743.554 360.707,1696.832 333.210 C 1592.953 272.074,1447.866 223.921,1320.105 208.177 C 1271.671 202.208,1105.899 203.565,1062.000 210.289 M2029.011 424.235 C 2011.350 429.658,1958.453 481.174,1473.014 965.726 L 1060.028 1377.958 975.014 1293.743 C 868.077 1187.811,831.833 1154.187,815.443 1145.712 C 797.265 1136.312,758.167 1136.885,735.707 1146.881 C 715.056 1156.072,695.301 1175.154,685.305 1195.570 C 675.523 1215.547,675.834 1256.992,685.923 1278.000 C 695.006 1296.913,975.742 1579.892,1004.888 1599.514 C 1027.652 1614.840,1062.790 1622.599,1080.877 1616.294 C 1087.570 1613.960,1105.861 1601.745,1121.523 1589.149 C 1137.186 1576.553,1374.366 1342.364,1648.590 1068.729 C 2107.420 610.888,2147.612 569.728,2152.590 552.606 C 2167.559 501.123,2148.313 454.607,2102.342 431.154 C 2084.140 421.868,2047.866 418.445,2029.011 424.235 M1977.328 1203.647 C 1958.635 1208.380,1931.185 1225.607,1921.620 1238.609 C 1899.952 1268.061,1900.000 1267.731,1900.000 1387.391 L 1900.000 1499.180 1787.000 1500.619 C 1678.385 1502.002,1673.266 1502.418,1655.087 1511.344 C 1637.069 1520.190,1619.527 1538.221,1607.750 1560.000 C 1604.576 1565.869,1602.343 1582.393,1602.343 1600.000 C 1602.343 1617.607,1604.576 1634.131,1607.750 1640.000 C 1619.518 1661.763,1637.065 1679.809,1655.087 1688.685 C 1673.303 1697.657,1678.152 1698.049,1786.682 1699.322 L 1899.364 1700.645 1900.682 1815.322 C 1902.148 1942.858,1901.814 1941.153,1930.670 1968.559 C 1954.277 1990.980,1970.308 1997.728,2000.000 1997.746 C 2030.148 1997.764,2048.212 1990.371,2070.197 1969.021 C 2096.868 1943.118,2097.669 1938.824,2099.237 1813.322 L 2100.645 1700.645 2213.322 1699.237 C 2338.824 1697.669,2343.118 1696.868,2369.021 1670.197 C 2390.359 1648.225,2397.761 1630.146,2397.761 1600.000 C 2397.761 1569.854,2390.359 1551.775,2369.021 1529.803 C 2343.437 1503.461,2338.737 1502.585,2213.322 1500.795 L 2100.643 1499.188 2099.236 1386.594 C 2097.687 1262.614,2096.764 1257.379,2072.109 1232.725 C 2047.300 1207.915,2008.041 1195.871,1977.328 1203.647 " fill="#1D1E23" stroke="none" fill-rule="evenodd"/></svg>