<svg viewBox="0 0 2400 2400" fill="none" xmlns="http://www.w3.org/2000/svg"><path d="M1112.000 203.927 C 833.709 231.729,590.461 362.390,419.326 576.000 C 147.365 915.458,126.704 1391.677,368.248 1753.288 C 640.193 2160.413,1159.117 2311.443,1605.696 2113.440 C 1652.718 2092.592,1660.000 2086.858,1660.000 2070.680 C 1660.000 2060.478,1650.892 2049.419,1601.413 1999.542 C 1569.191 1967.061,1537.983 1938.478,1532.062 1936.026 C 1522.977 1932.263,1516.512 1933.468,1490.612 1943.757 C 1188.824 2063.640,844.841 1986.616,619.406 1748.679 C 371.917 1487.464,329.994 1091.708,517.295 784.747 C 583.836 675.695,681.428 579.179,792.459 512.617 C 1031.159 369.519,1346.930 363.934,1582.000 498.652 C 1599.600 508.739,1619.078 517.068,1625.284 517.162 C 1634.582 517.303,1647.086 506.832,1696.331 457.670 C 1729.200 424.855,1757.094 394.855,1758.316 391.003 C 1762.750 377.035,1754.877 367.790,1720.374 346.447 C 1604.820 274.968,1464.397 225.924,1324.000 208.008 C 1277.988 202.137,1153.845 199.747,1112.000 203.927 M2020.000 428.033 C 2006.164 434.403,1893.047 545.234,1531.076 907.078 L 1060.151 1377.836 947.076 1265.606 C 882.361 1201.375,827.904 1150.586,819.747 1146.854 C 784.672 1130.807,747.220 1134.761,715.521 1157.857 C 682.113 1182.199,668.545 1227.053,682.032 1268.562 C 688.502 1288.475,699.814 1300.861,841.040 1442.659 C 1006.601 1608.890,1016.344 1616.834,1055.600 1617.576 C 1102.343 1618.461,1067.741 1650.380,1630.716 1087.046 L 2147.431 570.000 2154.311 546.000 C 2166.951 501.907,2149.956 458.680,2110.354 434.196 C 2084.519 418.223,2046.883 415.656,2020.000 428.033 M1966.363 1206.293 C 1943.583 1214.639,1925.689 1229.702,1913.089 1251.136 L 1902.000 1270.000 1900.775 1385.000 L 1899.549 1500.000 1792.278 1500.000 C 1676.406 1500.000,1664.192 1501.751,1637.364 1522.214 C 1630.112 1527.745,1619.188 1540.760,1613.089 1551.136 C 1603.633 1567.222,1602.000 1574.417,1602.000 1600.000 C 1602.000 1625.583,1603.633 1632.778,1613.089 1648.864 C 1619.188 1659.240,1630.112 1672.255,1637.364 1677.786 C 1664.200 1698.255,1676.387 1700.000,1792.503 1700.000 L 1900.000 1700.000 1900.022 1807.000 C 1900.035 1868.365,1901.809 1920.354,1904.182 1928.899 C 1910.297 1950.915,1931.501 1976.239,1953.149 1987.380 C 1993.162 2007.971,2038.975 2001.235,2070.014 1970.196 C 2097.895 1942.316,2100.000 1930.879,2100.000 1807.287 L 2100.000 1700.000 2207.287 1700.000 C 2330.796 1700.000,2342.328 1697.883,2370.105 1670.105 C 2409.232 1630.979,2409.232 1569.021,2370.105 1529.895 C 2342.328 1502.117,2330.796 1500.000,2207.287 1500.000 L 2100.000 1500.000 2100.000 1392.713 C 2100.000 1269.204,2097.883 1257.672,2070.105 1229.895 C 2042.868 1202.658,2001.791 1193.312,1966.363 1206.293 " fill="#1D1E23" stroke="none" fill-rule="evenodd"/></svg>