<svg viewBox="0 0 2400 2400" fill="none" xmlns="http://www.w3.org/2000/svg"><path d="M422.108 403.397 C 400.040 408.304,399.897 409.673,400.994 604.860 C 401.925 770.449,402.530 784.250,409.143 790.860 C 415.791 797.506,428.998 798.000,600.000 798.000 C 771.032 798.000,784.207 797.507,790.857 790.857 C 797.507 784.207,798.000 771.032,798.000 600.000 C 798.000 429.008,797.506 415.791,790.861 409.143 C 784.245 402.523,770.910 401.954,608.861 401.376 C 512.688 401.033,428.649 401.942,422.108 403.397 M1022.108 403.397 C 1000.040 408.304,999.897 409.673,1000.994 604.860 C 1001.925 770.449,1002.530 784.250,1009.143 790.860 C 1015.791 797.506,1028.998 798.000,1200.000 798.000 C 1371.032 798.000,1384.207 797.507,1390.857 790.857 C 1397.507 784.207,1398.000 771.032,1398.000 600.000 C 1398.000 429.008,1397.506 415.791,1390.861 409.143 C 1384.245 402.523,1370.910 401.954,1208.861 401.376 C 1112.688 401.033,1028.649 401.942,1022.108 403.397 M1622.108 403.397 C 1600.040 408.304,1599.897 409.673,1600.994 604.860 C 1601.925 770.449,1602.530 784.250,1609.143 790.860 C 1615.791 797.506,1628.998 798.000,1800.000 798.000 C 1971.032 798.000,1984.207 797.507,1990.857 790.857 C 1997.507 784.207,1998.000 771.032,1998.000 600.000 C 1998.000 429.008,1997.506 415.791,1990.861 409.143 C 1984.245 402.523,1970.910 401.954,1808.861 401.376 C 1712.688 401.033,1628.649 401.942,1622.108 403.397 M422.108 1003.397 C 400.040 1008.304,399.897 1009.673,400.994 1204.860 C 401.925 1370.449,402.530 1384.250,409.143 1390.860 C 415.791 1397.506,428.998 1398.000,600.000 1398.000 C 771.032 1398.000,784.207 1397.507,790.857 1390.857 C 797.507 1384.207,798.000 1371.032,798.000 1200.000 C 798.000 1029.008,797.506 1015.791,790.861 1009.143 C 784.245 1002.523,770.910 1001.954,608.861 1001.376 C 512.688 1001.033,428.649 1001.942,422.108 1003.397 M1022.108 1003.397 C 1000.036 1008.305,999.897 1009.634,1000.994 1205.356 L 1002.000 1384.712 1011.443 1392.356 C 1020.231 1399.469,1028.564 1400.000,1131.481 1400.000 L 1242.075 1400.000 1321.038 1320.963 L 1400.000 1241.927 1400.000 1131.407 C 1400.000 1028.567,1399.469 1020.230,1392.357 1011.443 L 1384.714 1002.000 1209.357 1001.376 C 1112.911 1001.033,1028.649 1001.942,1022.108 1003.397 M1874.324 1051.930 L 1826.000 1099.860 1912.973 1186.892 L 1999.946 1273.923 2045.971 1228.029 C 2097.694 1176.452,2104.397 1164.475,2093.907 1142.370 C 2090.271 1134.706,2058.685 1100.437,2023.717 1066.217 L 1960.139 1004.000 1941.394 1004.000 C 1922.799 1004.000,1922.263 1004.383,1874.324 1051.930 M1432.991 1493.009 L 1100.000 1826.018 1100.000 1913.009 L 1100.000 2000.000 1187.009 2000.000 L 1274.018 2000.000 1607.987 1666.013 L 1941.956 1332.026 1856.013 1246.013 C 1808.744 1198.706,1769.150 1160.000,1768.026 1160.000 C 1766.902 1160.000,1616.136 1309.854,1432.991 1493.009 M422.108 1603.397 C 400.040 1608.304,399.897 1609.673,400.994 1804.860 C 401.925 1970.449,402.530 1984.250,409.143 1990.860 C 415.791 1997.506,428.998 1998.000,600.000 1998.000 C 771.032 1998.000,784.207 1997.507,790.857 1990.857 C 797.507 1984.207,798.000 1971.032,798.000 1800.000 C 798.000 1629.008,797.506 1615.791,790.861 1609.143 C 784.245 1602.523,770.910 1601.954,608.861 1601.376 C 512.688 1601.033,428.649 1601.942,422.108 1603.397 " fill="#1D1E23" stroke="none" fill-rule="evenodd"/></svg>