<svg viewBox="0 0 2400 2400" fill="none" xmlns="http://www.w3.org/2000/svg"><path d="M457.071 406.846 C 415.623 408.151,411.749 408.948,407.071 417.130 C 403.173 423.949,402.072 466.980,402.309 603.198 C 402.609 774.753,402.873 780.651,410.606 788.384 C 418.279 796.057,425.664 796.462,598.297 798.696 L 778.000 801.020 789.440 788.832 L 800.881 776.643 799.097 601.321 C 798.116 504.895,795.920 422.834,794.216 418.965 C 792.512 415.096,787.266 411.149,782.559 410.193 C 770.667 407.779,511.931 405.118,457.071 406.846 M1057.071 406.846 C 1015.623 408.151,1011.749 408.948,1007.071 417.130 C 1003.173 423.949,1002.072 466.980,1002.309 603.198 C 1002.609 774.753,1002.873 780.651,1010.606 788.384 C 1018.279 796.057,1025.664 796.462,1198.297 798.696 L 1378.000 801.020 1389.440 788.832 L 1400.881 776.643 1399.097 601.321 C 1398.116 504.895,1395.920 422.834,1394.216 418.965 C 1392.512 415.096,1387.266 411.149,1382.559 410.193 C 1370.667 407.779,1111.931 405.118,1057.071 406.846 M1657.071 406.846 C 1615.623 408.151,1611.749 408.948,1607.071 417.130 C 1603.173 423.949,1602.072 466.980,1602.309 603.198 C 1602.609 774.753,1602.873 780.651,1610.606 788.384 C 1618.279 796.057,1625.664 796.462,1798.297 798.696 L 1978.000 801.020 1989.440 788.832 L 2000.881 776.643 1999.097 601.321 C 1998.116 504.895,1995.920 422.834,1994.216 418.965 C 1992.512 415.096,1987.266 411.149,1982.559 410.193 C 1970.667 407.779,1711.931 405.118,1657.071 406.846 M457.071 1006.846 C 415.623 1008.151,411.749 1008.948,407.071 1017.130 C 403.173 1023.949,402.072 1066.980,402.309 1203.198 C 402.609 1374.753,402.873 1380.651,410.606 1388.384 C 418.279 1396.057,425.664 1396.462,598.297 1398.696 L 778.000 1401.020 789.440 1388.832 L 800.881 1376.643 799.097 1201.321 C 798.116 1104.895,795.920 1022.834,794.216 1018.965 C 792.512 1015.096,787.266 1011.149,782.559 1010.193 C 770.667 1007.779,511.931 1005.118,457.071 1006.846 M1061.390 1006.880 C 1024.111 1007.923,1011.609 1009.651,1007.757 1014.293 C 1003.970 1018.856,1002.262 1062.014,1000.819 1189.624 C 999.765 1282.727,1000.147 1365.530,1001.667 1373.632 C 1003.702 1384.477,1007.274 1389.549,1015.215 1392.864 C 1021.896 1395.653,1066.921 1398.032,1133.531 1399.116 L 1241.062 1400.864 1320.531 1321.470 L 1400.000 1242.075 1399.972 1154.038 C 1399.956 1105.617,1398.793 1053.818,1397.387 1038.929 C 1395.190 1015.669,1393.645 1011.621,1386.415 1010.169 C 1374.639 1007.804,1120.337 1005.231,1061.390 1006.880 M1915.686 1015.799 C 1905.959 1022.288,1881.821 1043.904,1862.048 1063.835 L 1826.095 1100.072 1913.273 1187.036 L 2000.451 1274.000 2036.492 1236.597 C 2079.301 1192.172,2096.000 1170.048,2096.000 1157.759 C 2096.000 1146.700,2073.315 1117.500,2028.141 1070.413 C 1983.914 1024.313,1958.279 1004.000,1944.327 1004.000 C 1938.301 1004.000,1925.413 1009.309,1915.686 1015.799 M1432.991 1493.009 L 1100.000 1826.018 1100.000 1913.009 L 1100.000 2000.000 1187.009 2000.000 L 1274.018 2000.000 1607.987 1666.013 L 1941.956 1332.026 1856.013 1246.013 C 1808.744 1198.706,1769.150 1160.000,1768.026 1160.000 C 1766.902 1160.000,1616.136 1309.854,1432.991 1493.009 M457.071 1606.846 C 415.623 1608.151,411.749 1608.948,407.071 1617.130 C 403.173 1623.949,402.072 1666.980,402.309 1803.198 C 402.609 1974.753,402.873 1980.651,410.606 1988.384 C 418.279 1996.057,425.664 1996.462,598.297 1998.696 L 778.000 2001.020 789.440 1988.832 L 800.881 1976.643 799.097 1801.321 C 798.116 1704.895,795.920 1622.834,794.216 1618.965 C 792.512 1615.096,787.266 1611.149,782.559 1610.193 C 770.667 1607.779,511.931 1605.118,457.071 1606.846 " fill="#1D1E23" stroke="none" fill-rule="evenodd"/></svg>