<svg viewBox="0 0 2400 2400" fill="none" xmlns="http://www.w3.org/2000/svg"><path d="M421.290 406.726 C 401.924 410.627,401.993 409.945,402.102 595.627 C 402.158 691.532,403.535 774.923,405.163 780.939 C 407.127 788.200,411.800 792.883,419.061 794.867 C 425.077 796.511,508.722 797.867,604.938 797.880 L 779.875 797.903 788.895 788.883 L 797.915 779.863 797.958 600.074 C 797.997 432.808,797.503 419.788,790.860 413.143 C 784.238 406.517,770.913 405.963,606.860 405.485 C 509.587 405.202,426.081 405.760,421.290 406.726 M1021.290 406.726 C 1001.924 410.627,1001.993 409.945,1002.102 595.627 C 1002.158 691.532,1003.535 774.923,1005.163 780.939 C 1007.127 788.200,1011.800 792.883,1019.061 794.867 C 1025.077 796.511,1108.722 797.867,1204.938 797.880 L 1379.875 797.903 1388.895 788.883 L 1397.915 779.863 1397.958 600.074 C 1397.997 432.808,1397.503 419.788,1390.860 413.143 C 1384.238 406.517,1370.913 405.963,1206.860 405.485 C 1109.587 405.202,1026.081 405.760,1021.290 406.726 M1621.290 406.726 C 1601.924 410.627,1601.993 409.945,1602.102 595.627 C 1602.158 691.532,1603.535 774.923,1605.163 780.939 C 1607.127 788.200,1611.800 792.883,1619.061 794.867 C 1625.077 796.511,1708.722 797.867,1804.938 797.880 L 1979.875 797.903 1988.895 788.883 L 1997.915 779.863 1997.958 600.074 C 1997.997 432.808,1997.503 419.788,1990.860 413.143 C 1984.238 406.517,1970.913 405.963,1806.860 405.485 C 1709.587 405.202,1626.081 405.760,1621.290 406.726 M421.290 1006.726 C 401.924 1010.627,401.993 1009.945,402.102 1195.627 C 402.158 1291.532,403.535 1374.923,405.163 1380.939 C 407.127 1388.200,411.800 1392.883,419.061 1394.867 C 425.077 1396.511,508.722 1397.867,604.938 1397.880 L 779.875 1397.903 788.895 1388.883 L 797.915 1379.863 797.958 1200.074 C 797.997 1032.808,797.503 1019.788,790.860 1013.143 C 784.238 1006.517,770.913 1005.963,606.860 1005.485 C 509.587 1005.202,426.081 1005.760,421.290 1006.726 M1021.340 1006.724 C 1014.378 1007.676,1007.269 1011.503,1005.544 1015.228 C 1001.728 1023.465,998.296 1355.664,1001.832 1374.513 C 1006.016 1396.814,1010.901 1397.749,1131.578 1399.332 L 1241.156 1400.770 1320.880 1321.385 L 1400.605 1242.000 1399.265 1129.163 C 1398.252 1043.843,1396.667 1015.066,1392.766 1011.163 C 1388.724 1007.117,1349.346 1005.891,1210.804 1005.496 C 1113.562 1005.218,1028.303 1005.771,1021.340 1006.724 M1921.832 1010.188 C 1915.140 1013.491,1890.859 1035.063,1867.874 1058.127 L 1826.083 1100.060 1913.254 1187.030 L 2000.424 1274.000 2040.421 1232.754 C 2084.465 1187.333,2095.963 1171.323,2095.985 1155.381 C 2096.002 1143.241,2051.927 1091.729,1994.696 1037.000 C 1957.163 1001.108,1947.462 997.538,1921.832 1010.188 M1432.991 1493.009 L 1100.000 1826.018 1100.000 1913.009 L 1100.000 2000.000 1187.009 2000.000 L 1274.018 2000.000 1607.987 1666.013 L 1941.956 1332.026 1856.013 1246.013 C 1808.744 1198.706,1769.150 1160.000,1768.026 1160.000 C 1766.902 1160.000,1616.136 1309.854,1432.991 1493.009 M421.290 1606.726 C 401.924 1610.627,401.993 1609.945,402.102 1795.627 C 402.158 1891.532,403.535 1974.923,405.163 1980.939 C 407.127 1988.200,411.800 1992.883,419.061 1994.867 C 425.077 1996.511,508.722 1997.867,604.938 1997.880 L 779.875 1997.903 788.895 1988.883 L 797.915 1979.863 797.958 1800.074 C 797.997 1632.808,797.503 1619.788,790.860 1613.143 C 784.238 1606.517,770.913 1605.963,606.860 1605.485 C 509.587 1605.202,426.081 1605.760,421.290 1606.726 " fill="#1D1E23" stroke="none" fill-rule="evenodd"/></svg>