<svg viewBox="0 0 2400 2400" fill="none" xmlns="http://www.w3.org/2000/svg"><path fill-rule="evenodd" d="M1212.69 390.705H1570.81C1616.26 390.705 1659.84 411.015 1691.98 447.166C1724.11 483.318 1742.17 532.35 1742.17 583.476V1178.31C1695.45 1168.83 1647.1 1163.85 1597.59 1163.85C1588.62 1163.85 1579.7 1164.02 1570.81 1164.34V583.476H1399.46V751.247C1399.46 765.054 1388.27 776.247 1374.46 776.247H567.703C553.896 776.247 542.703 765.054 542.703 751.247V583.476H371.352V1932.87H876.145C880.374 2000.03 893.773 2064.7 915.105 2125.64H371.352C325.906 2125.64 282.322 2105.33 250.188 2069.18C218.053 2033.03 200 1984 200 1932.87V583.476C200 532.35 218.053 483.318 250.188 447.166C282.322 411.015 325.906 390.705 371.352 390.705H729.477C756.893 309.741 811.726 246.127 885.407 217.212C1016.49 163.236 1163.85 240.344 1212.69 390.705ZM1108.35 1354.56C1048.4 1409.7 997.793 1474.84 959.172 1547.33H639.089C585.857 1547.33 542.703 1504.18 542.703 1450.94C542.703 1397.71 585.857 1354.56 639.089 1354.56H1108.35ZM1031.66 418.936C1015.6 400.86 993.806 390.705 971.083 390.705C948.36 390.705 926.568 400.86 910.501 418.936C894.434 437.012 885.407 461.528 885.407 487.091C885.407 512.653 894.434 537.169 910.501 555.245C926.568 573.321 948.36 583.476 971.083 583.476C993.806 583.476 1015.6 573.321 1031.66 555.245C1047.73 537.169 1056.76 512.653 1056.76 487.091C1056.76 461.528 1047.73 437.012 1031.66 418.936ZM639.089 969.017C585.857 969.017 542.703 1012.17 542.703 1065.4C542.703 1118.63 585.857 1161.79 639.089 1161.79H1303.08C1356.31 1161.79 1399.46 1118.63 1399.46 1065.4C1399.46 1012.17 1356.31 969.017 1303.08 969.017H639.089Z" fill="#1D1E23"/><path fill-rule="evenodd" d="M1433.53 1449.15C1462.45 1450.91 1488.09 1468.36 1500.35 1494.62L1715.49 1955.64L1835.99 1762.84C1850.44 1739.73 1875.77 1725.68 1903.03 1725.68H2140.19C2183.85 1725.68 2219.24 1761.08 2219.24 1804.74C2219.24 1848.4 2183.85 1883.79 2140.19 1883.79H1946.84L1772.43 2162.85C1757.07 2187.42 1729.5 2201.62 1700.58 2199.85C1671.65 2198.09 1646.01 2180.64 1633.76 2154.38L1418.62 1693.36L1298.12 1886.16C1283.67 1909.28 1258.34 1923.32 1231.08 1923.32H993.921C950.261 1923.32 914.868 1887.92 914.868 1844.26C914.868 1800.6 950.261 1765.21 993.921 1765.21H1187.26L1361.67 1486.15C1377.03 1461.58 1404.61 1447.38 1433.53 1449.15Z" fill="#1D1E23"/></svg>