<svg viewBox="0 0 2400 2400" fill="none" xmlns="http://www.w3.org/2000/svg"><path d="M907.654 209.617 C 829.066 239.809,782.630 281.181,745.133 354.415 L 726.487 390.831 525.687 392.924 L 324.888 395.018 304.187 406.284 C 274.820 422.268,234.404 464.128,219.953 493.528 C 209.636 514.518,207.373 525.114,204.053 568.000 C 199.056 632.540,198.958 1877.309,203.945 1942.000 C 208.517 2001.304,211.524 2011.807,233.207 2044.195 C 256.791 2079.425,290.615 2106.027,326.000 2117.177 C 353.744 2125.919,356.529 2126.000,630.663 2126.000 C 782.828 2126.000,908.464 2124.864,909.854 2123.476 C 911.244 2122.088,907.835 2103.188,902.277 2081.476 C 893.003 2045.246,884.458 1999.250,878.038 1951.000 L 875.510 1932.000 623.755 1932.000 L 372.000 1932.000 372.000 1258.000 L 372.000 584.000 458.000 584.000 L 544.000 584.000 544.000 671.235 C 544.000 740.261,545.185 760.092,549.677 766.235 C 555.234 773.835,564.163 774.000,970.031 774.000 L 1384.706 774.000 1392.353 764.557 C 1399.350 755.917,1400.000 747.837,1400.000 669.557 L 1400.000 584.000 1486.000 584.000 L 1572.000 584.000 1572.000 874.000 L 1572.000 1164.000 1597.000 1164.043 C 1610.750 1164.066,1647.200 1166.763,1678.000 1170.035 C 1708.800 1173.308,1736.250 1175.989,1739.000 1175.993 C 1742.957 1175.998,1744.000 1110.985,1744.000 864.238 L 1744.000 552.477 1733.988 524.720 C 1713.260 467.259,1684.937 432.274,1639.568 408.093 L 1615.035 395.017 1413.836 392.919 L 1212.637 390.822 1205.807 372.411 C 1180.479 304.138,1113.034 237.176,1046.000 213.749 C 1019.155 204.368,928.376 201.656,907.654 209.617 M993.987 396.483 C 1018.023 403.155,1041.752 429.035,1050.070 457.647 C 1066.231 513.242,1038.911 566.693,987.274 580.504 C 920.937 598.247,864.727 511.517,897.510 442.000 C 917.044 400.577,951.010 384.552,993.987 396.483 M669.327 971.601 C 605.503 973.969,604.429 974.159,587.439 986.112 C 577.970 992.773,564.773 1005.978,558.112 1015.456 C 546.979 1031.297,546.000 1035.381,546.000 1066.000 C 546.000 1096.619,546.979 1100.703,558.112 1116.544 C 564.773 1126.022,577.823 1139.118,587.111 1145.646 C 603.147 1156.916,606.875 1157.686,661.000 1160.900 C 753.012 1166.365,1314.781 1162.746,1333.283 1156.570 C 1354.097 1149.621,1379.631 1125.719,1389.149 1104.274 C 1399.301 1081.402,1399.941 1042.924,1390.472 1024.787 C 1380.056 1004.835,1354.390 981.120,1337.260 975.620 C 1320.523 970.246,791.616 967.064,669.327 971.601 M604.177 1362.309 C 556.243 1383.103,533.821 1431.098,548.755 1480.943 C 555.158 1502.313,584.692 1534.552,603.268 1540.448 C 613.131 1543.578,674.291 1545.727,788.314 1546.948 L 958.629 1548.774 975.947 1519.387 C 999.419 1479.559,1041.755 1423.497,1076.273 1386.536 L 1104.790 1356.000 861.395 1356.157 C 654.167 1356.290,615.946 1357.204,604.177 1362.309 M1390.799 1460.993 C 1373.048 1471.280,1347.447 1508.177,1252.679 1660.056 L 1189.068 1762.000 1080.511 1764.439 L 971.953 1766.878 953.339 1778.439 C 904.773 1808.602,905.101 1876.454,953.982 1911.558 L 972.080 1924.554 1111.040 1923.277 C 1240.549 1922.087,1251.088 1921.456,1266.000 1914.000 C 1282.745 1905.627,1296.799 1886.249,1381.372 1754.925 C 1400.826 1724.716,1417.453 1700.000,1418.321 1700.000 C 1421.016 1700.000,1444.533 1748.693,1513.951 1898.000 C 1596.897 2076.406,1640.779 2163.706,1655.351 2179.305 C 1675.704 2201.093,1715.191 2204.935,1743.272 2187.858 C 1761.157 2176.982,1780.654 2149.030,1868.457 2008.388 L 1946.000 1884.181 2046.000 1884.068 C 2101.000 1884.006,2152.552 1882.135,2160.561 1879.911 C 2184.846 1873.166,2207.799 1849.459,2214.264 1824.445 C 2222.175 1793.838,2216.020 1771.608,2193.600 1749.818 L 2176.556 1733.254 2131.278 1730.645 C 2072.386 1727.252,1924.293 1727.256,1891.804 1730.652 C 1868.718 1733.065,1864.976 1734.821,1850.217 1750.171 C 1841.298 1759.449,1808.189 1807.756,1776.641 1857.520 C 1745.094 1907.284,1718.030 1948.000,1716.500 1948.000 C 1712.761 1948.000,1699.476 1920.792,1613.960 1738.000 C 1513.965 1524.259,1498.146 1491.714,1488.018 1478.888 C 1466.927 1452.179,1420.693 1443.669,1390.799 1460.993 " fill="#1D1E23" stroke="none" fill-rule="evenodd"/></svg>