<svg viewBox="0 0 2400 2400" fill="none" xmlns="http://www.w3.org/2000/svg"><path d="M922.047 208.014 C 896.107 212.688,850.732 235.883,821.328 259.500 C 793.694 281.695,761.578 322.948,741.141 362.498 L 726.415 390.996 524.207 393.945 L 322.000 396.894 304.000 407.328 C 278.615 422.042,231.120 471.237,220.513 493.803 C 215.599 504.256,209.620 522.977,207.227 535.404 C 204.205 551.092,202.741 769.548,202.437 1250.000 C 201.972 1986.086,201.889 1982.577,220.760 2022.723 C 231.262 2045.065,271.564 2088.640,293.753 2101.644 C 335.189 2125.927,336.198 2126.000,630.000 2126.000 C 777.400 2126.000,900.982 2124.771,904.626 2123.269 C 910.749 2120.745,910.669 2117.927,903.573 2086.077 C 899.349 2067.124,891.440 2026.225,885.996 1995.191 C 880.553 1964.157,875.028 1937.693,873.719 1936.383 C 872.410 1935.072,758.988 1933.429,621.670 1932.730 L 372.000 1931.460 372.000 1257.730 L 372.000 584.000 457.608 584.000 L 543.217 584.000 544.608 671.803 C 545.629 736.228,547.363 760.968,551.117 764.720 C 559.698 773.296,650.108 775.385,1026.380 775.701 L 1382.760 776.000 1390.361 767.601 C 1397.237 760.003,1398.101 750.852,1399.421 671.601 L 1400.881 584.000 1486.440 584.000 L 1572.000 584.000 1572.000 873.237 L 1572.000 1162.473 1652.943 1169.094 C 1707.647 1173.568,1735.201 1174.399,1737.943 1171.658 C 1740.597 1169.006,1742.371 1061.068,1743.073 859.649 L 1744.146 551.696 1732.053 521.496 C 1710.056 466.561,1682.556 433.413,1638.000 408.126 L 1618.000 396.775 1416.000 393.836 L 1214.000 390.898 1196.484 354.449 C 1181.662 323.606,1173.357 312.416,1142.484 281.694 C 1102.558 241.963,1074.113 223.574,1038.052 214.182 C 1008.527 206.491,948.277 203.288,922.047 208.014 M1008.509 404.767 C 1017.442 409.787,1029.686 422.161,1037.000 433.558 C 1053.116 458.673,1056.986 497.789,1046.160 526.137 C 1037.851 547.895,1010.673 572.735,987.617 579.642 C 954.910 589.441,919.306 569.733,899.333 530.775 C 885.969 504.706,887.177 463.943,902.129 436.472 C 925.168 394.142,967.276 381.593,1008.509 404.767 M614.552 975.609 C 597.649 978.093,592.102 981.576,572.149 1002.234 C 552.746 1022.321,548.742 1029.011,546.283 1045.453 C 544.683 1056.152,544.625 1074.004,546.155 1085.124 C 548.435 1101.707,552.245 1108.881,567.342 1125.021 C 592.079 1151.467,601.412 1155.565,647.000 1160.000 C 692.040 1164.381,1057.073 1164.729,1222.400 1160.549 C 1345.086 1157.446,1341.054 1158.253,1367.344 1131.552 C 1389.393 1109.159,1393.799 1097.519,1393.905 1061.384 C 1393.994 1030.896,1393.201 1027.780,1381.756 1013.628 C 1375.022 1005.301,1362.706 992.978,1354.387 986.244 L 1339.262 974.000 986.631 973.375 C 792.684 973.031,625.249 974.037,614.552 975.609 M672.000 1359.770 C 600.803 1362.176,592.269 1364.452,571.236 1386.643 C 556.913 1401.755,544.196 1430.630,544.088 1448.287 C 543.861 1485.260,574.508 1530.611,606.000 1539.901 C 616.575 1543.021,678.990 1545.379,790.096 1546.855 L 958.191 1549.088 973.757 1523.544 C 995.646 1487.622,1050.496 1414.993,1079.897 1383.000 L 1104.709 1356.000 921.354 1356.770 C 820.509 1357.194,708.300 1358.544,672.000 1359.770 M1406.706 1454.853 C 1383.454 1458.425,1351.860 1500.939,1240.577 1678.398 L 1187.652 1762.795 1078.826 1765.617 L 970.000 1768.438 954.440 1779.151 C 906.776 1811.967,905.510 1868.003,951.518 1908.500 L 969.920 1924.699 1105.960 1922.956 C 1195.148 1921.813,1247.098 1919.581,1256.803 1916.473 C 1276.845 1910.055,1290.482 1893.219,1358.435 1791.000 C 1390.244 1743.150,1417.623 1704.000,1419.276 1704.000 C 1420.929 1704.000,1462.543 1789.503,1511.751 1894.006 C 1610.011 2102.684,1641.920 2164.483,1659.830 2180.804 C 1683.248 2202.142,1715.513 2203.464,1746.586 2184.360 C 1760.054 2176.079,1814.583 2095.917,1898.242 1961.413 L 1945.877 1884.826 2051.939 1883.413 L 2158.000 1882.000 2176.613 1871.058 C 2190.432 1862.934,2197.902 1854.747,2205.613 1839.273 C 2223.398 1803.584,2218.153 1775.444,2188.281 1746.274 L 2172.824 1731.181 2027.412 1730.591 C 1882.840 1730.003,1881.916 1730.052,1867.449 1739.049 C 1848.888 1750.591,1832.565 1772.077,1770.245 1867.000 C 1742.440 1909.350,1718.001 1944.000,1715.935 1944.000 C 1711.959 1944.000,1708.736 1937.420,1605.222 1718.000 C 1501.937 1499.067,1490.564 1477.797,1470.700 1466.425 C 1453.581 1456.624,1426.752 1451.773,1406.706 1454.853 " fill="#1D1E23" stroke="none" fill-rule="evenodd"/></svg>