<svg viewBox="0 0 2400 2400" fill="none" xmlns="http://www.w3.org/2000/svg"><path d="M908.000 211.754 C 889.318 217.482,850.084 239.075,825.684 257.057 C 798.471 277.112,761.183 323.938,740.232 364.367 L 726.568 390.735 594.631 393.367 C 522.066 394.815,431.195 396.000,392.697 396.000 L 322.700 396.000 303.692 408.197 C 271.868 428.619,226.351 479.438,215.705 506.433 L 206.411 530.000 203.049 932.000 C 199.456 1361.606,202.125 1920.492,208.016 1972.143 C 212.153 2008.411,220.260 2026.284,247.328 2058.810 C 272.634 2089.218,305.221 2111.451,334.694 2118.416 C 366.317 2125.890,606.575 2130.059,777.467 2126.101 L 908.934 2123.055 906.759 2106.527 C 903.791 2083.977,875.902 1938.569,874.223 1936.890 C 873.481 1936.148,760.178 1934.456,622.437 1933.130 L 372.000 1930.718 372.000 1257.359 L 372.000 584.000 457.516 584.000 L 543.032 584.000 544.671 671.954 C 545.770 730.970,547.825 761.425,550.917 764.517 C 559.214 772.814,678.241 775.588,1034.908 775.796 L 1383.816 776.000 1390.908 765.181 C 1397.009 755.874,1398.195 742.459,1399.398 669.181 L 1400.796 584.000 1486.398 584.000 L 1572.000 584.000 1572.000 873.374 L 1572.000 1162.749 1627.209 1167.374 C 1657.574 1169.918,1695.170 1172.000,1710.756 1172.000 L 1739.093 1172.000 1741.830 1067.000 C 1743.336 1009.250,1743.990 867.500,1743.284 752.000 L 1742.000 542.000 1726.913 510.248 C 1704.825 463.763,1684.948 439.708,1649.272 416.287 L 1618.370 396.000 1553.839 396.000 C 1518.346 396.000,1427.363 394.803,1351.654 393.340 L 1214.000 390.680 1196.638 354.758 C 1181.893 324.252,1173.656 313.298,1142.004 282.106 C 1101.353 242.046,1065.850 220.196,1028.803 212.438 C 1005.109 207.477,923.457 207.014,908.000 211.754 M998.288 400.435 C 1024.463 408.350,1047.613 443.361,1050.941 480.065 C 1055.248 527.567,1028.464 567.248,983.363 580.183 C 954.959 588.329,917.163 565.455,899.816 529.620 C 892.657 514.832,891.412 506.304,892.597 480.197 C 893.839 452.851,895.627 446.388,906.015 431.700 C 931.435 395.758,955.669 387.546,998.288 400.435 M694.000 975.619 C 635.114 977.143,599.121 979.686,594.000 982.683 C 579.763 991.018,556.553 1017.611,550.195 1032.872 C 536.059 1066.804,544.605 1102.034,573.904 1130.617 C 607.364 1163.257,592.153 1162.062,968.000 1161.596 C 1189.643 1161.322,1302.247 1159.753,1319.761 1156.696 C 1342.391 1152.746,1347.856 1149.901,1364.717 1133.293 C 1387.613 1110.742,1393.503 1095.393,1393.660 1057.866 C 1393.794 1025.778,1387.734 1014.074,1358.804 990.551 L 1342.000 976.887 1064.000 975.063 C 911.100 974.060,744.600 974.310,694.000 975.619 M712.000 1359.952 C 597.696 1362.727,590.214 1364.316,568.732 1390.376 C 530.152 1437.181,541.605 1499.729,595.238 1535.134 C 607.104 1542.967,697.448 1547.473,848.710 1547.777 L 959.421 1548.000 974.585 1523.000 C 994.405 1490.324,1053.111 1412.659,1081.921 1381.000 L 1104.671 1356.000 959.336 1356.738 C 879.401 1357.144,768.100 1358.590,712.000 1359.952 M1377.527 1477.604 C 1356.603 1499.207,1299.911 1582.808,1226.337 1700.555 L 1187.250 1763.110 1078.319 1766.027 L 969.388 1768.945 951.361 1782.027 C 906.481 1814.597,908.097 1872.432,954.996 1912.102 L 970.000 1924.794 1108.515 1922.815 C 1229.166 1921.091,1248.922 1919.938,1261.699 1913.875 C 1278.825 1905.748,1293.301 1887.402,1357.861 1792.000 C 1383.915 1753.500,1408.468 1717.817,1412.423 1712.706 L 1419.615 1703.411 1435.314 1734.706 C 1443.948 1751.917,1473.937 1814.600,1501.956 1874.000 C 1573.621 2025.932,1625.239 2130.162,1641.998 2156.779 C 1658.743 2183.375,1677.484 2196.412,1699.406 2196.714 C 1723.707 2197.049,1742.126 2189.044,1758.336 2171.101 C 1774.819 2152.857,1860.197 2024.204,1912.345 1939.032 L 1946.000 1884.064 2049.159 1884.032 C 2142.780 1884.003,2153.691 1883.294,2167.159 1876.366 C 2187.646 1865.829,2202.562 1849.081,2209.845 1828.440 C 2220.816 1797.344,2215.760 1777.040,2189.923 1748.442 L 2175.069 1732.000 2029.795 1732.000 C 1949.721 1732.000,1880.121 1733.673,1874.718 1735.727 C 1857.825 1742.150,1836.768 1767.647,1786.954 1842.000 C 1760.422 1881.600,1733.283 1920.965,1726.644 1929.477 L 1714.572 1944.954 1698.709 1913.477 C 1689.983 1896.165,1651.424 1815.400,1613.020 1734.000 C 1534.175 1566.880,1499.672 1497.747,1487.194 1481.883 C 1474.692 1465.991,1450.010 1456.191,1422.226 1456.088 C 1398.672 1456.001,1398.260 1456.199,1377.527 1477.604 " fill="#1D1E23" stroke="none" fill-rule="evenodd"/></svg>