<svg viewBox="0 0 2400 2400" fill="none" xmlns="http://www.w3.org/2000/svg"><path d="M919.342 208.090 C 890.021 213.039,837.648 242.587,807.070 271.432 C 780.947 296.076,754.418 333.665,735.844 372.357 L 727.031 390.713 524.558 393.449 L 322.085 396.184 300.652 409.092 C 274.056 425.110,232.188 468.823,220.686 492.583 C 215.939 502.389,209.979 519.319,207.442 530.206 C 201.233 556.847,197.717 1808.171,203.550 1915.472 C 208.174 2000.548,211.879 2014.994,238.014 2049.853 C 259.486 2078.492,282.415 2097.552,311.820 2111.206 C 330.706 2119.975,342.270 2121.837,397.820 2125.053 C 456.358 2128.442,906.602 2126.731,910.227 2123.106 C 911.080 2122.253,908.123 2106.355,903.654 2087.777 C 896.463 2057.880,876.000 1945.334,876.000 1935.682 C 876.000 1933.478,774.829 1932.000,624.000 1932.000 L 372.000 1932.000 372.000 1258.000 L 372.000 584.000 457.787 584.000 L 543.575 584.000 544.787 674.151 C 545.713 742.990,547.235 765.065,551.225 767.527 C 560.929 773.514,704.500 775.977,1044.380 775.989 L 1382.760 776.000 1390.380 767.589 C 1397.299 759.953,1398.112 751.115,1399.217 671.589 L 1400.433 584.000 1486.217 584.000 L 1572.000 584.000 1572.000 873.151 L 1572.000 1162.302 1637.000 1167.310 C 1672.750 1170.064,1710.284 1173.350,1720.409 1174.612 C 1738.596 1176.880,1738.850 1176.751,1741.409 1163.954 C 1742.834 1156.829,1744.000 1016.266,1744.000 851.591 L 1744.000 552.183 1734.021 525.672 C 1712.365 468.136,1682.501 431.480,1637.411 407.087 L 1617.239 396.175 1414.916 393.442 L 1212.594 390.708 1205.775 372.354 C 1184.251 314.417,1128.740 254.361,1069.062 224.448 C 1034.590 207.169,967.944 199.887,919.342 208.090 M990.000 396.415 C 1012.743 402.627,1028.489 415.886,1041.486 439.765 C 1050.674 456.646,1052.799 465.597,1052.940 487.996 C 1053.163 523.669,1041.051 548.681,1014.924 566.499 C 979.514 590.648,945.923 587.617,917.131 557.675 C 887.082 526.427,880.187 478.530,900.019 438.819 C 911.581 415.669,922.757 404.917,942.621 397.835 C 961.573 391.077,969.580 390.837,990.000 396.415 M721.386 971.899 L 604.773 974.000 587.734 986.348 C 578.363 993.139,565.139 1006.366,558.348 1015.742 C 546.911 1031.530,546.000 1035.237,546.000 1066.000 C 546.000 1096.763,546.911 1100.470,558.348 1116.258 C 565.139 1125.634,577.853 1138.489,586.601 1144.826 C 601.108 1155.335,607.058 1156.724,654.253 1160.623 C 724.637 1166.437,1311.582 1162.359,1333.523 1155.903 C 1354.229 1149.810,1384.783 1118.842,1391.111 1097.536 C 1397.752 1075.172,1397.273 1038.065,1390.166 1024.322 C 1386.958 1018.117,1375.256 1004.879,1364.161 994.905 L 1343.990 976.769 1302.995 974.507 C 1242.925 971.193,856.694 969.461,721.386 971.899 M627.687 1359.629 C 596.316 1362.456,577.269 1373.654,560.024 1399.408 C 532.234 1440.911,542.670 1495.195,584.996 1529.307 C 599.575 1541.056,601.583 1541.478,656.996 1544.441 C 688.348 1546.117,769.072 1547.603,836.381 1547.744 L 958.763 1548.000 978.991 1514.898 C 1003.299 1475.119,1047.161 1417.741,1080.534 1382.066 L 1104.917 1356.000 879.459 1356.629 C 755.456 1356.976,642.159 1358.326,627.687 1359.629 M1401.275 1456.171 C 1378.885 1463.060,1354.781 1496.347,1244.721 1672.369 L 1188.217 1762.738 1079.359 1765.138 L 970.501 1767.538 954.310 1778.918 C 906.941 1812.209,904.563 1866.187,948.715 1905.884 L 968.865 1924.000 1089.433 1923.869 C 1234.494 1923.712,1260.121 1921.177,1276.792 1905.334 C 1291.793 1891.080,1318.929 1852.393,1373.970 1766.792 C 1397.738 1729.828,1418.614 1701.028,1420.360 1702.792 C 1423.485 1705.949,1453.322 1768.579,1545.753 1966.000 C 1606.589 2095.936,1641.558 2162.942,1656.772 2178.725 C 1684.688 2207.689,1734.558 2203.860,1761.566 2170.681 C 1777.784 2150.756,1832.684 2066.660,1898.260 1961.289 L 1946.000 1884.578 2052.000 1883.289 C 2150.321 1882.093,2159.159 1881.395,2174.000 1873.644 C 2197.915 1861.154,2213.116 1837.166,2215.178 1808.662 C 2217.162 1781.229,2212.040 1769.144,2188.958 1746.801 L 2173.256 1731.603 2061.628 1729.220 C 2000.233 1727.910,1932.253 1728.182,1910.562 1729.825 C 1854.999 1734.034,1861.387 1727.197,1742.653 1909.548 C 1716.956 1949.013,1716.889 1949.076,1710.656 1939.548 C 1707.220 1934.297,1664.805 1845.710,1616.401 1742.689 C 1494.025 1482.231,1493.159 1480.558,1473.782 1466.962 C 1455.632 1454.228,1423.255 1449.409,1401.275 1456.171 " fill="#1D1E23" stroke="none" fill-rule="evenodd"/></svg>