<svg viewBox="0 0 2400 2400" fill="none" xmlns="http://www.w3.org/2000/svg"><path d="M926.000 204.364 C 915.000 206.565,889.003 216.593,868.228 226.648 C 837.270 241.632,824.934 250.519,799.845 275.913 C 774.854 301.208,765.363 314.685,748.157 349.308 L 727.081 391.718 528.540 392.859 L 330.000 394.000 306.731 404.899 C 277.227 418.718,237.058 458.512,222.846 488.000 C 198.648 538.209,200.000 492.650,200.000 1258.000 C 200.000 2028.764,198.400 1978.572,224.633 2030.926 C 240.132 2061.859,275.755 2096.668,306.158 2110.587 C 318.483 2116.229,340.589 2122.397,355.283 2124.292 C 369.977 2126.187,501.250 2127.797,647.000 2127.869 C 878.749 2127.984,912.000 2127.255,912.000 2122.060 C 912.000 2118.794,907.453 2100.431,901.896 2081.255 C 892.794 2049.845,884.311 2003.921,877.835 1951.000 L 875.510 1932.000 623.755 1932.000 L 372.000 1932.000 372.000 1258.000 L 372.000 584.000 458.000 584.000 L 544.000 584.000 544.000 673.380 C 544.000 754.890,544.644 763.343,551.315 769.380 C 558.022 775.450,592.920 776.000,971.315 776.000 C 1378.667 776.000,1384.103 775.897,1392.000 768.000 C 1399.515 760.485,1400.000 754.667,1400.000 672.000 L 1400.000 584.000 1486.000 584.000 L 1572.000 584.000 1572.000 874.000 L 1572.000 1164.000 1601.000 1164.071 C 1627.646 1164.136,1660.696 1166.955,1721.182 1174.321 L 1744.363 1177.144 1743.182 861.572 L 1742.000 546.000 1731.132 516.226 C 1711.317 461.943,1680.836 427.173,1633.721 405.109 L 1610.000 394.000 1411.435 392.859 L 1212.870 391.718 1204.140 368.374 C 1177.596 297.397,1111.135 233.935,1040.000 211.639 C 1009.711 202.146,954.650 198.633,926.000 204.364 M1016.699 406.221 C 1049.770 429.464,1065.099 483.020,1049.999 522.558 C 1021.205 597.955,932.403 604.676,897.861 534.074 C 873.556 484.396,890.387 424.325,935.484 399.800 C 957.690 387.724,994.525 390.636,1016.699 406.221 M618.000 971.740 C 589.141 978.766,561.324 1002.206,550.203 1028.872 C 542.522 1047.286,542.168 1083.872,549.500 1101.419 C 557.908 1121.544,580.015 1144.415,600.000 1153.667 C 617.729 1161.875,623.116 1162.017,957.740 1163.130 C 1193.720 1163.915,1303.961 1162.915,1318.700 1159.855 C 1367.872 1149.647,1398.016 1113.233,1397.982 1064.083 C 1397.967 1042.819,1395.919 1034.515,1386.893 1019.136 C 1380.804 1008.760,1369.643 995.558,1362.091 989.798 C 1333.006 967.614,1339.440 967.965,970.364 968.409 C 783.164 968.635,624.600 970.134,618.000 971.740 M597.837 1365.467 C 562.535 1381.906,543.938 1411.456,544.088 1450.872 C 544.192 1478.284,553.420 1500.775,571.966 1518.815 C 600.458 1546.530,595.508 1545.876,786.368 1547.158 L 958.736 1548.317 976.976 1516.924 C 1000.842 1475.850,1037.196 1427.897,1074.657 1388.075 L 1104.831 1356.000 861.416 1356.039 L 618.000 1356.078 597.837 1365.467 M1407.285 1452.657 C 1399.191 1454.859,1386.111 1462.362,1378.217 1469.330 C 1369.857 1476.710,1327.418 1540.452,1276.568 1622.000 L 1189.271 1762.000 1081.635 1764.000 C 979.418 1765.899,973.144 1766.457,957.004 1775.079 C 905.616 1802.531,902.528 1876.012,951.336 1909.946 L 968.673 1922.000 1102.169 1923.199 C 1246.868 1924.499,1259.576 1923.152,1281.134 1904.223 C 1288.301 1897.931,1321.835 1848.405,1355.654 1794.164 C 1389.474 1739.923,1418.507 1696.997,1420.171 1698.772 C 1421.836 1700.548,1470.876 1804.600,1529.149 1930.000 C 1643.499 2176.077,1649.359 2186.237,1682.602 2196.101 C 1705.098 2202.777,1731.830 2198.177,1750.670 2184.390 C 1762.257 2175.910,1787.972 2137.894,1856.000 2028.671 L 1946.000 1884.172 2050.215 1884.086 C 2154.314 1884.000,2154.452 1883.989,2175.273 1873.613 C 2203.091 1859.751,2217.867 1835.610,2217.867 1804.024 C 2217.867 1777.870,2209.108 1760.596,2186.634 1742.424 L 2171.269 1730.000 2030.634 1728.762 C 1939.114 1727.956,1884.915 1729.014,1875.439 1731.791 C 1854.232 1738.006,1840.485 1755.596,1776.028 1859.000 C 1744.143 1910.150,1717.013 1952.000,1715.738 1952.000 C 1714.464 1952.000,1675.915 1871.450,1630.075 1773.000 C 1489.211 1470.469,1491.076 1474.112,1471.186 1462.662 C 1450.640 1450.834,1427.375 1447.191,1407.285 1452.657 " fill="#1D1E23" stroke="none" fill-rule="evenodd"/></svg>