<svg viewBox="0 0 2400 2400" fill="none" xmlns="http://www.w3.org/2000/svg"><path d="M1200 700V500C1200 389.543 1110.46 300 1000 300H400C289.543 300 200 389.543 200 500V2075C200 2088.81 211.193 2100 225 2100H2175C2188.81 2100 2200 2088.81 2200 2075V900C2200 789.543 2110.46 700 2000 700H1200ZM600 1875C600 1888.81 588.807 1900 575 1900H425C411.193 1900 400 1888.81 400 1875V1725C400 1711.19 411.193 1700 425 1700H575C588.807 1700 600 1711.19 600 1725V1875ZM600 1475C600 1488.81 588.807 1500 575 1500H425C411.193 1500 400 1488.81 400 1475V1325C400 1311.19 411.193 1300 425 1300H575C588.807 1300 600 1311.19 600 1325V1475ZM600 1075C600 1088.81 588.807 1100 575 1100H425C411.193 1100 400 1088.81 400 1075V925C400 911.193 411.193 900 425 900H575C588.807 900 600 911.193 600 925V1075ZM600 675C600 688.807 588.807 700 575 700H425C411.193 700 400 688.807 400 675V525C400 511.193 411.193 500 425 500H575C588.807 500 600 511.193 600 525V675ZM1000 1875C1000 1888.81 988.807 1900 975 1900H825C811.193 1900 800 1888.81 800 1875V1725C800 1711.19 811.193 1700 825 1700H975C988.807 1700 1000 1711.19 1000 1725V1875ZM1000 1475C1000 1488.81 988.807 1500 975 1500H825C811.193 1500 800 1488.81 800 1475V1325C800 1311.19 811.193 1300 825 1300H975C988.807 1300 1000 1311.19 1000 1325V1475ZM1000 1075C1000 1088.81 988.807 1100 975 1100H825C811.193 1100 800 1088.81 800 1075V925C800 911.193 811.193 900 825 900H975C988.807 900 1000 911.193 1000 925V1075ZM1000 675C1000 688.807 988.807 700 975 700H825C811.193 700 800 688.807 800 675V525C800 511.193 811.193 500 825 500H975C988.807 500 1000 511.193 1000 525V675ZM2000 1900H1200V1700H1375C1388.81 1700 1400 1688.81 1400 1675V1525C1400 1511.19 1388.81 1500 1375 1500H1200V1300H1375C1388.81 1300 1400 1288.81 1400 1275V1125C1400 1111.19 1388.81 1100 1375 1100H1200V900H2000V1900ZM1800 1125C1800 1111.19 1788.81 1100 1775 1100H1625C1611.19 1100 1600 1111.19 1600 1125V1275C1600 1288.81 1611.19 1300 1625 1300H1775C1788.81 1300 1800 1288.81 1800 1275V1125ZM1800 1525C1800 1511.19 1788.81 1500 1775 1500H1625C1611.19 1500 1600 1511.19 1600 1525V1675C1600 1688.81 1611.19 1700 1625 1700H1775C1788.81 1700 1800 1688.81 1800 1675V1525Z" fill="#1D1E23"/></svg>