<svg viewBox="0 0 2400 2400" fill="none" xmlns="http://www.w3.org/2000/svg"><path d="M491.909 303.788 L 341.818 306.000 312.469 323.440 C 260.002 354.618,223.466 398.208,209.210 446.638 C 202.882 468.133,202.212 515.234,200.822 1036.000 C 199.992 1347.300,200.584 1710.551,202.138 1843.224 C 204.953 2083.459,204.999 2084.470,213.482 2089.918 C 225.268 2097.487,1082.853 2102.137,1713.162 2098.049 C 2153.406 2095.194,2180.834 2094.607,2189.162 2087.863 L 2198.000 2080.707 2198.000 1477.354 C 2198.000 912.230,2197.551 872.353,2190.909 848.000 C 2177.095 797.347,2132.792 746.666,2078.222 719.089 L 2054.000 706.849 1900.000 703.647 C 1815.300 701.886,1623.330 700.345,1473.400 700.223 L 1200.800 700.000 1199.062 583.000 C 1197.482 476.674,1196.537 463.628,1188.704 440.000 C 1173.193 393.211,1128.788 344.628,1078.183 319.083 L 1054.038 306.894 908.019 303.676 C 753.704 300.276,729.710 300.282,491.909 303.788 M581.978 507.992 C 593.972 512.552,595.903 526.971,595.956 612.380 C 596.014 705.107,603.979 698.000,500.000 698.000 C 427.083 698.000,420.159 697.384,412.206 690.186 C 403.799 682.579,403.604 680.140,404.786 597.511 C 405.454 550.837,407.498 511.153,409.329 509.325 C 418.074 500.590,559.636 499.497,581.978 507.992 M981.978 507.992 C 993.972 512.552,995.903 526.971,995.956 612.380 C 996.014 705.107,1003.979 698.000,900.000 698.000 C 827.083 698.000,820.159 697.384,812.206 690.186 C 803.799 682.579,803.604 680.140,804.786 597.511 C 805.454 550.837,807.498 511.153,809.329 509.325 C 818.074 500.590,959.636 499.497,981.978 507.992 M581.978 907.992 C 593.972 912.552,595.903 926.971,595.956 1012.380 C 596.014 1105.107,603.979 1098.000,500.000 1098.000 C 427.083 1098.000,420.159 1097.384,412.206 1090.186 C 403.799 1082.579,403.604 1080.140,404.786 997.511 C 405.454 950.837,407.498 911.153,409.329 909.325 C 418.074 900.590,559.636 899.497,581.978 907.992 M981.978 907.992 C 993.972 912.552,995.903 926.971,995.956 1012.380 C 996.014 1105.107,1003.979 1098.000,900.000 1098.000 C 827.083 1098.000,820.159 1097.384,812.206 1090.186 C 803.799 1082.579,803.604 1080.140,804.786 997.511 C 805.454 950.837,807.498 911.153,809.329 909.325 C 818.074 900.590,959.636 899.497,981.978 907.992 M2000.000 1400.000 L 2000.000 1900.000 1600.000 1900.000 L 1200.000 1900.000 1200.000 1800.000 L 1200.000 1700.000 1289.557 1700.000 C 1406.680 1700.000,1397.274 1707.155,1399.353 1616.483 C 1401.303 1531.424,1398.980 1512.935,1385.705 1507.888 C 1380.346 1505.850,1336.370 1502.958,1287.981 1501.462 L 1200.000 1498.740 1200.000 1399.370 L 1200.000 1300.000 1289.557 1300.000 C 1406.680 1300.000,1397.274 1307.155,1399.353 1216.483 C 1401.303 1131.424,1398.980 1112.935,1385.705 1107.888 C 1380.346 1105.850,1336.370 1102.958,1287.981 1101.462 L 1200.000 1098.740 1200.000 999.370 L 1200.000 900.000 1600.000 900.000 L 2000.000 900.000 2000.000 1400.000 M1609.953 1109.540 C 1603.099 1114.551,1602.229 1122.090,1600.837 1188.540 C 1598.992 1276.556,1602.150 1291.506,1623.766 1297.077 C 1631.337 1299.029,1669.541 1300.035,1708.663 1299.313 C 1804.728 1297.540,1798.000 1304.995,1798.000 1200.317 C 1798.000 1127.785,1797.335 1120.114,1790.380 1112.425 C 1783.100 1104.376,1779.070 1104.000,1700.145 1104.000 C 1636.071 1104.000,1615.829 1105.243,1609.953 1109.540 M581.978 1307.992 C 593.972 1312.552,595.903 1326.971,595.956 1412.380 C 596.014 1505.107,603.979 1498.000,500.000 1498.000 C 427.083 1498.000,420.159 1497.384,412.206 1490.186 C 403.799 1482.579,403.604 1480.140,404.786 1397.511 C 405.454 1350.837,407.498 1311.153,409.329 1309.325 C 418.074 1300.590,559.636 1299.497,581.978 1307.992 M981.978 1307.992 C 993.972 1312.552,995.903 1326.971,995.956 1412.380 C 996.014 1505.107,1003.979 1498.000,900.000 1498.000 C 827.083 1498.000,820.159 1497.384,812.206 1490.186 C 803.799 1482.579,803.604 1480.140,804.786 1397.511 C 805.454 1350.837,807.498 1311.153,809.329 1309.325 C 818.074 1300.590,959.636 1299.497,981.978 1307.992 M1609.953 1509.540 C 1603.099 1514.551,1602.229 1522.090,1600.837 1588.540 C 1598.992 1676.556,1602.150 1691.506,1623.766 1697.077 C 1631.337 1699.029,1669.541 1700.035,1708.663 1699.313 C 1804.728 1697.540,1798.000 1704.995,1798.000 1600.317 C 1798.000 1527.785,1797.335 1520.114,1790.380 1512.425 C 1783.100 1504.376,1779.070 1504.000,1700.145 1504.000 C 1636.071 1504.000,1615.829 1505.243,1609.953 1509.540 M581.978 1707.992 C 593.972 1712.552,595.903 1726.971,595.956 1812.380 C 596.014 1905.107,603.979 1898.000,500.000 1898.000 C 427.083 1898.000,420.159 1897.384,412.206 1890.186 C 403.799 1882.579,403.604 1880.140,404.786 1797.511 C 405.454 1750.837,407.498 1711.153,409.329 1709.325 C 418.074 1700.590,559.636 1699.497,581.978 1707.992 M981.978 1707.992 C 993.972 1712.552,995.903 1726.971,995.956 1812.380 C 996.014 1905.107,1003.979 1898.000,900.000 1898.000 C 827.083 1898.000,820.159 1897.384,812.206 1890.186 C 803.799 1882.579,803.604 1880.140,804.786 1797.511 C 805.454 1750.837,807.498 1711.153,809.329 1709.325 C 818.074 1700.590,959.636 1699.497,981.978 1707.992 " fill="#1D1E23" stroke="none" fill-rule="evenodd"/></svg>