<svg viewBox="0 0 2400 2400" fill="none" xmlns="http://www.w3.org/2000/svg"><path d="M358.041 304.701 C 285.928 318.453,219.929 384.827,204.420 459.197 C 201.278 474.263,200.000 712.286,200.000 1282.197 C 200.000 2078.667,200.053 2084.053,208.000 2092.000 C 215.957 2099.957,221.333 2100.000,1200.000 2100.000 C 2178.667 2100.000,2184.043 2099.957,2192.000 2092.000 C 2199.929 2084.071,2200.000 2078.667,2200.000 1482.197 C 2200.000 1058.298,2198.693 874.128,2195.580 859.197 C 2179.683 782.966,2113.826 718.136,2038.265 704.335 C 2022.225 701.405,1882.500 700.000,1607.265 700.000 L 1200.000 700.000 1200.000 590.197 C 1200.000 525.488,1198.185 471.689,1195.580 459.197 C 1179.683 382.966,1113.826 318.136,1038.265 304.335 C 1008.122 298.829,387.080 299.163,358.041 304.701 M592.000 508.000 C 599.492 515.492,600.000 521.333,600.000 600.000 C 600.000 678.667,599.492 684.508,592.000 692.000 C 584.508 699.492,578.667 700.000,500.000 700.000 C 421.333 700.000,415.492 699.492,408.000 692.000 C 400.508 684.508,400.000 678.667,400.000 600.000 C 400.000 521.333,400.508 515.492,408.000 508.000 C 415.492 500.508,421.333 500.000,500.000 500.000 C 578.667 500.000,584.508 500.508,592.000 508.000 M992.000 508.000 C 999.492 515.492,1000.000 521.333,1000.000 600.000 C 1000.000 678.667,999.492 684.508,992.000 692.000 C 984.508 699.492,978.667 700.000,900.000 700.000 C 821.333 700.000,815.492 699.492,808.000 692.000 C 800.508 684.508,800.000 678.667,800.000 600.000 C 800.000 521.333,800.508 515.492,808.000 508.000 C 815.492 500.508,821.333 500.000,900.000 500.000 C 978.667 500.000,984.508 500.508,992.000 508.000 M592.000 908.000 C 599.492 915.492,600.000 921.333,600.000 1000.000 C 600.000 1078.667,599.492 1084.508,592.000 1092.000 C 584.508 1099.492,578.667 1100.000,500.000 1100.000 C 421.333 1100.000,415.492 1099.492,408.000 1092.000 C 400.508 1084.508,400.000 1078.667,400.000 1000.000 C 400.000 921.333,400.508 915.492,408.000 908.000 C 415.492 900.508,421.333 900.000,500.000 900.000 C 578.667 900.000,584.508 900.508,592.000 908.000 M992.000 908.000 C 999.492 915.492,1000.000 921.333,1000.000 1000.000 C 1000.000 1078.667,999.492 1084.508,992.000 1092.000 C 984.508 1099.492,978.667 1100.000,900.000 1100.000 C 821.333 1100.000,815.492 1099.492,808.000 1092.000 C 800.508 1084.508,800.000 1078.667,800.000 1000.000 C 800.000 921.333,800.508 915.492,808.000 908.000 C 815.492 900.508,821.333 900.000,900.000 900.000 C 978.667 900.000,984.508 900.508,992.000 908.000 M2000.000 1400.000 L 2000.000 1900.000 1600.000 1900.000 L 1200.000 1900.000 1200.000 1800.000 L 1200.000 1700.000 1292.000 1700.000 C 1378.667 1700.000,1384.464 1699.536,1392.000 1692.000 C 1399.492 1684.508,1400.000 1678.667,1400.000 1600.000 C 1400.000 1521.333,1399.492 1515.492,1392.000 1508.000 C 1384.464 1500.464,1378.667 1500.000,1292.000 1500.000 L 1200.000 1500.000 1200.000 1400.000 L 1200.000 1300.000 1292.000 1300.000 C 1378.667 1300.000,1384.464 1299.536,1392.000 1292.000 C 1399.492 1284.508,1400.000 1278.667,1400.000 1200.000 C 1400.000 1121.333,1399.492 1115.492,1392.000 1108.000 C 1384.464 1100.464,1378.667 1100.000,1292.000 1100.000 L 1200.000 1100.000 1200.000 1000.000 L 1200.000 900.000 1600.000 900.000 L 2000.000 900.000 2000.000 1400.000 M1608.000 1108.000 C 1600.508 1115.492,1600.000 1121.333,1600.000 1200.000 C 1600.000 1278.667,1600.508 1284.508,1608.000 1292.000 C 1615.492 1299.492,1621.333 1300.000,1700.000 1300.000 C 1778.667 1300.000,1784.508 1299.492,1792.000 1292.000 C 1799.492 1284.508,1800.000 1278.667,1800.000 1200.000 C 1800.000 1121.333,1799.492 1115.492,1792.000 1108.000 C 1784.508 1100.508,1778.667 1100.000,1700.000 1100.000 C 1621.333 1100.000,1615.492 1100.508,1608.000 1108.000 M592.000 1308.000 C 599.492 1315.492,600.000 1321.333,600.000 1400.000 C 600.000 1478.667,599.492 1484.508,592.000 1492.000 C 584.508 1499.492,578.667 1500.000,500.000 1500.000 C 421.333 1500.000,415.492 1499.492,408.000 1492.000 C 400.508 1484.508,400.000 1478.667,400.000 1400.000 C 400.000 1321.333,400.508 1315.492,408.000 1308.000 C 415.492 1300.508,421.333 1300.000,500.000 1300.000 C 578.667 1300.000,584.508 1300.508,592.000 1308.000 M992.000 1308.000 C 999.492 1315.492,1000.000 1321.333,1000.000 1400.000 C 1000.000 1478.667,999.492 1484.508,992.000 1492.000 C 984.508 1499.492,978.667 1500.000,900.000 1500.000 C 821.333 1500.000,815.492 1499.492,808.000 1492.000 C 800.508 1484.508,800.000 1478.667,800.000 1400.000 C 800.000 1321.333,800.508 1315.492,808.000 1308.000 C 815.492 1300.508,821.333 1300.000,900.000 1300.000 C 978.667 1300.000,984.508 1300.508,992.000 1308.000 M1608.000 1508.000 C 1600.508 1515.492,1600.000 1521.333,1600.000 1600.000 C 1600.000 1678.667,1600.508 1684.508,1608.000 1692.000 C 1615.492 1699.492,1621.333 1700.000,1700.000 1700.000 C 1778.667 1700.000,1784.508 1699.492,1792.000 1692.000 C 1799.492 1684.508,1800.000 1678.667,1800.000 1600.000 C 1800.000 1521.333,1799.492 1515.492,1792.000 1508.000 C 1784.508 1500.508,1778.667 1500.000,1700.000 1500.000 C 1621.333 1500.000,1615.492 1500.508,1608.000 1508.000 M592.000 1708.000 C 599.492 1715.492,600.000 1721.333,600.000 1800.000 C 600.000 1878.667,599.492 1884.508,592.000 1892.000 C 584.508 1899.492,578.667 1900.000,500.000 1900.000 C 421.333 1900.000,415.492 1899.492,408.000 1892.000 C 400.508 1884.508,400.000 1878.667,400.000 1800.000 C 400.000 1721.333,400.508 1715.492,408.000 1708.000 C 415.492 1700.508,421.333 1700.000,500.000 1700.000 C 578.667 1700.000,584.508 1700.508,592.000 1708.000 M992.000 1708.000 C 999.492 1715.492,1000.000 1721.333,1000.000 1800.000 C 1000.000 1878.667,999.492 1884.508,992.000 1892.000 C 984.508 1899.492,978.667 1900.000,900.000 1900.000 C 821.333 1900.000,815.492 1899.492,808.000 1892.000 C 800.508 1884.508,800.000 1878.667,800.000 1800.000 C 800.000 1721.333,800.508 1715.492,808.000 1708.000 C 815.492 1700.508,821.333 1700.000,900.000 1700.000 C 978.667 1700.000,984.508 1700.508,992.000 1708.000 " fill="#1D1E23" stroke="none" fill-rule="evenodd"/></svg>