<svg viewBox="0 0 2400 2400" fill="none" xmlns="http://www.w3.org/2000/svg"><path d="M409.763 303.765 L 345.526 306.000 314.331 321.432 C 273.209 341.775,241.878 372.991,221.792 413.632 C 208.365 440.799,206.345 448.958,203.281 488.370 C 201.390 512.703,200.328 881.611,200.921 1308.164 C 201.948 2046.546,202.342 2084.058,209.143 2090.858 C 215.961 2097.675,260.994 2098.000,1200.000 2098.000 C 2138.997 2098.000,2184.039 2097.675,2190.857 2090.858 C 2197.639 2084.077,2198.055 2054.323,2199.089 1502.858 C 2199.689 1183.386,2198.590 904.405,2196.649 882.901 C 2193.670 849.911,2190.776 839.062,2178.127 813.469 C 2158.216 773.180,2126.693 741.722,2086.162 721.690 C 2056.241 706.903,2053.963 706.440,1996.730 703.534 C 1964.428 701.894,1771.950 700.428,1569.000 700.276 L 1200.000 700.000 1199.977 595.000 C 1199.964 537.250,1198.199 479.200,1196.054 466.000 C 1186.465 406.986,1142.770 349.667,1085.971 321.596 C 1055.198 306.387,1054.828 306.317,990.539 303.494 C 916.435 300.240,505.558 300.432,409.763 303.765 M590.866 509.143 C 597.259 515.544,598.000 525.031,598.000 600.496 C 598.000 709.066,606.929 700.000,500.000 700.000 C 393.872 700.000,402.368 707.944,400.771 607.225 C 399.462 524.744,401.719 510.343,416.942 504.027 C 421.924 501.960,461.490 500.658,504.866 501.134 C 574.536 501.899,584.564 502.833,590.866 509.143 M990.866 509.143 C 997.259 515.544,998.000 525.031,998.000 600.496 C 998.000 709.066,1006.929 700.000,900.000 700.000 C 793.872 700.000,802.368 707.944,800.771 607.225 C 799.462 524.744,801.719 510.343,816.942 504.027 C 821.924 501.960,861.490 500.658,904.866 501.134 C 974.536 501.899,984.564 502.833,990.866 509.143 M590.866 909.143 C 597.259 915.544,598.000 925.031,598.000 1000.496 C 598.000 1109.066,606.929 1100.000,500.000 1100.000 C 393.872 1100.000,402.368 1107.944,400.771 1007.225 C 399.462 924.744,401.719 910.343,416.942 904.027 C 421.924 901.960,461.490 900.658,504.866 901.134 C 574.536 901.899,584.564 902.833,590.866 909.143 M990.866 909.143 C 997.259 915.544,998.000 925.031,998.000 1000.496 C 998.000 1109.066,1006.929 1100.000,900.000 1100.000 C 793.872 1100.000,802.368 1107.944,800.771 1007.225 C 799.462 924.744,801.719 910.343,816.942 904.027 C 821.924 901.960,861.490 900.658,904.866 901.134 C 974.536 901.899,984.564 902.833,990.866 909.143 M2000.000 1400.000 L 2000.000 1900.000 1600.000 1900.000 L 1200.000 1900.000 1200.000 1800.000 L 1200.000 1700.000 1290.182 1700.000 L 1380.364 1700.000 1390.182 1690.182 C 1399.949 1680.414,1400.000 1679.952,1400.000 1600.625 C 1400.000 1528.101,1399.309 1520.032,1392.360 1511.443 C 1384.786 1502.081,1383.925 1501.990,1292.360 1500.791 L 1200.000 1499.582 1200.000 1399.791 L 1200.000 1300.000 1290.182 1300.000 L 1380.364 1300.000 1390.182 1290.182 C 1399.949 1280.414,1400.000 1279.952,1400.000 1200.625 C 1400.000 1128.101,1399.309 1120.032,1392.360 1111.443 C 1384.786 1102.081,1383.925 1101.990,1292.360 1100.791 L 1200.000 1099.582 1200.000 999.791 L 1200.000 900.000 1600.000 900.000 L 2000.000 900.000 2000.000 1400.000 M1617.261 1103.909 C 1601.728 1110.379,1600.000 1120.192,1600.000 1201.919 C 1600.000 1307.525,1592.327 1300.000,1700.000 1300.000 C 1807.789 1300.000,1800.000 1307.741,1800.000 1200.625 C 1800.000 1093.532,1808.300 1102.257,1705.361 1101.134 C 1661.712 1100.658,1622.068 1101.907,1617.261 1103.909 M590.866 1309.143 C 597.259 1315.544,598.000 1325.031,598.000 1400.496 C 598.000 1509.066,606.929 1500.000,500.000 1500.000 C 393.872 1500.000,402.368 1507.944,400.771 1407.225 C 399.462 1324.744,401.719 1310.343,416.942 1304.027 C 421.924 1301.960,461.490 1300.658,504.866 1301.134 C 574.536 1301.899,584.564 1302.833,590.866 1309.143 M990.866 1309.143 C 997.259 1315.544,998.000 1325.031,998.000 1400.496 C 998.000 1509.066,1006.929 1500.000,900.000 1500.000 C 793.872 1500.000,802.368 1507.944,800.771 1407.225 C 799.462 1324.744,801.719 1310.343,816.942 1304.027 C 821.924 1301.960,861.490 1300.658,904.866 1301.134 C 974.536 1301.899,984.564 1302.833,990.866 1309.143 M1617.261 1503.909 C 1601.728 1510.379,1600.000 1520.192,1600.000 1601.919 C 1600.000 1707.525,1592.327 1700.000,1700.000 1700.000 C 1807.789 1700.000,1800.000 1707.741,1800.000 1600.625 C 1800.000 1493.532,1808.300 1502.257,1705.361 1501.134 C 1661.712 1500.658,1622.068 1501.907,1617.261 1503.909 M590.866 1709.143 C 597.259 1715.544,598.000 1725.031,598.000 1800.496 C 598.000 1909.066,606.929 1900.000,500.000 1900.000 C 393.872 1900.000,402.368 1907.944,400.771 1807.225 C 399.462 1724.744,401.719 1710.343,416.942 1704.027 C 421.924 1701.960,461.490 1700.658,504.866 1701.134 C 574.536 1701.899,584.564 1702.833,590.866 1709.143 M990.866 1709.143 C 997.259 1715.544,998.000 1725.031,998.000 1800.496 C 998.000 1909.066,1006.929 1900.000,900.000 1900.000 C 793.872 1900.000,802.368 1907.944,800.771 1807.225 C 799.462 1724.744,801.719 1710.343,816.942 1704.027 C 821.924 1701.960,861.490 1700.658,904.866 1701.134 C 974.536 1701.899,984.564 1702.833,990.866 1709.143 " fill="#1D1E23" stroke="none" fill-rule="evenodd"/></svg>