<svg viewBox="0 0 2400 2400" fill="none" xmlns="http://www.w3.org/2000/svg"><path d="M1102.000 8.167 C 1049.847 11.096,1006.807 17.448,936.000 32.666 C 889.918 42.570,884.000 45.473,884.000 58.175 C 884.000 72.057,920.305 111.341,1096.846 288.485 C 1240.488 432.618,1274.352 462.424,1290.889 459.275 C 1299.936 457.552,1302.970 431.792,1303.566 351.622 C 1303.805 319.514,1305.174 274.064,1306.608 250.622 L 1309.216 208.000 1322.582 208.000 C 1340.319 208.000,1429.367 225.534,1472.000 237.421 C 1544.458 257.623,1652.772 304.539,1721.767 345.607 C 1801.269 392.929,1908.575 486.437,1976.977 568.000 C 2066.079 674.246,2116.770 774.437,2174.286 957.985 C 2199.192 1037.468,2206.721 1054.767,2222.998 1069.904 C 2236.870 1082.805,2271.581 1096.000,2291.647 1096.000 C 2326.131 1096.000,2360.007 1074.867,2376.351 1043.159 C 2387.679 1021.181,2386.337 983.369,2372.168 925.345 C 2326.310 737.549,2245.559 575.265,2127.682 434.000 C 2093.407 392.925,2003.775 305.534,1960.000 270.509 C 1802.459 144.460,1600.885 53.961,1402.000 19.990 C 1362.334 13.215,1188.321 2.235,1160.000 4.720 C 1156.700 5.010,1130.600 6.561,1102.000 8.167 M948.575 649.424 L 899.270 698.848 838.955 701.656 C 805.783 703.201,769.497 706.163,758.321 708.239 C 703.072 718.499,646.022 765.089,616.293 824.227 L 599.314 858.000 600.902 1196.000 C 602.487 1533.192,602.512 1534.061,611.394 1559.315 C 633.681 1622.684,677.250 1665.693,743.238 1689.467 L 772.477 1700.000 1103.238 1699.610 C 1285.157 1699.395,1482.600 1698.045,1542.000 1696.610 L 1650.000 1694.000 1681.234 1679.086 C 1731.534 1655.068,1770.224 1611.872,1788.511 1559.315 C 1797.262 1534.164,1797.330 1531.804,1799.039 1196.000 L 1800.758 858.000 1783.744 824.227 C 1753.937 765.061,1696.900 718.494,1641.679 708.239 C 1630.503 706.163,1594.217 703.201,1561.045 701.656 L 1500.730 698.848 1451.425 649.424 L 1402.120 600.000 1200.000 600.000 L 997.880 600.000 948.575 649.424 M1240.803 1008.407 C 1294.273 1019.523,1343.830 1057.043,1375.297 1110.233 L 1392.000 1138.465 1392.000 1200.000 L 1392.000 1261.535 1375.321 1289.767 C 1354.052 1325.770,1316.481 1362.765,1286.303 1377.420 C 1249.607 1395.241,1206.548 1402.746,1173.490 1397.084 C 1114.252 1386.937,1058.323 1346.597,1024.703 1289.767 L 1008.000 1261.535 1008.010 1199.767 L 1008.021 1138.000 1022.427 1114.000 C 1051.846 1064.992,1087.387 1032.761,1134.000 1012.818 C 1156.941 1003.003,1205.219 1001.009,1240.803 1008.407 M74.499 1309.648 C 55.444 1316.721,34.083 1336.722,22.859 1358.000 C 8.213 1385.767,13.475 1431.972,42.451 1530.000 C 102.119 1731.863,193.315 1889.190,333.207 2031.598 C 479.166 2180.181,629.256 2273.259,826.000 2337.201 C 974.381 2385.425,1070.713 2398.643,1246.000 2394.833 C 1322.063 2393.179,1348.047 2391.003,1396.000 2382.270 C 1492.453 2364.704,1516.000 2356.397,1516.000 2339.933 C 1516.000 2327.786,1474.763 2283.662,1298.321 2107.017 C 1200.848 2009.431,1131.490 1943.020,1125.468 1941.509 C 1119.936 1940.121,1111.043 1940.975,1105.705 1943.407 L 1096.000 1947.828 1096.000 2072.467 L 1096.000 2197.105 1069.334 2194.373 C 1033.136 2190.664,899.198 2156.308,850.000 2138.111 C 708.305 2085.705,593.078 2009.445,477.270 1891.430 C 358.022 1769.909,287.210 1644.234,227.735 1448.561 C 202.158 1364.413,194.251 1346.551,175.463 1330.468 C 150.164 1308.813,102.967 1299.080,74.499 1309.648 " fill="#1D1E23" stroke="none" fill-rule="evenodd"/></svg>