<svg viewBox="0 0 2400 2400" fill="none" xmlns="http://www.w3.org/2000/svg"><path d="M1600 700H1500L1407.32 607.322C1402.63 602.634 1396.28 600 1389.64 600H1010.36C1003.72 600 997.366 602.634 992.678 607.322L900 700H800C690 700 600 790 600 900V1500C600 1610 690 1700 800 1700H1600C1710 1700 1800 1610 1800 1500V900C1800 790 1710 700 1600 700ZM1200 1400C1090 1400 1000 1310 1000 1200C1000 1090 1090 1000 1200 1000C1310 1000 1400 1090 1400 1200C1400 1310 1310 1400 1200 1400Z" fill="#1D1E23"/><path d="M897.192 39.582C878.94 44.418 873.145 67.137 886.497 80.489L1262.33 456.322C1278.08 472.071 1305.01 460.917 1305.01 438.644V203.999C1746.6 247.972 2104.17 579.926 2186.89 1009.05 2196.66 1059.72 2239.32 1099 2290.93 1099 2349.66 1099 2396.21 1048.52 2386.32 990.628 2264.13 275.577 1546.9-132.554 897.192 39.582ZM1095 2196C653.403 2152.03 295.837 1820.07 213.115 1390.95 203.346 1340.28 160.689 1301 109.081 1301 50.351 1301 3.795 1351.48 13.687 1409.37 135.873 2124.42 853.102 2532.55 1502.82 2360.42 1521.07 2355.58 1526.86 2332.86 1513.51 2319.51L1137.68 1943.68C1121.93 1927.93 1095 1939.08 1095 1961.36V2196Z" fill="#1D1E23"/></svg>