<svg viewBox="0 0 2400 2400" fill="none" xmlns="http://www.w3.org/2000/svg"><path d="M1052.000 10.394 C 999.905 17.303,914.746 34.745,897.093 42.121 C 878.818 49.757,877.259 57.387,889.946 77.099 C 895.928 86.395,984.423 177.424,1086.599 279.386 C 1322.868 515.160,1304.000 510.983,1304.000 327.510 C 1304.000 224.285,1304.920 204.000,1309.603 204.000 C 1321.006 204.000,1409.471 220.199,1441.204 228.097 C 1543.594 253.582,1668.866 307.945,1750.000 362.102 C 1872.676 443.988,1988.068 562.833,2059.034 680.383 C 2110.740 766.029,2150.045 864.092,2184.516 993.450 C 2199.684 1050.371,2211.555 1068.399,2245.195 1085.603 C 2301.103 1114.196,2368.426 1085.836,2384.264 1027.021 C 2391.576 999.864,2374.453 915.674,2341.389 816.220 C 2306.344 710.807,2267.338 630.644,2206.013 538.000 C 2010.421 242.522,1682.369 45.432,1324.000 8.097 C 1268.832 2.350,1102.027 3.758,1052.000 10.394 M948.000 650.000 L 898.120 700.000 858.060 700.108 C 781.668 700.315,745.547 705.856,713.041 722.356 C 665.049 746.715,631.996 783.114,611.659 834.000 L 602.068 858.000 600.813 1172.819 C 600.091 1354.069,601.169 1502.298,603.355 1522.192 C 613.561 1615.068,687.497 1688.347,779.100 1696.373 C 824.596 1700.360,1575.404 1700.360,1620.900 1696.373 C 1688.161 1690.480,1747.077 1649.358,1778.052 1586.684 C 1790.202 1562.100,1793.662 1549.598,1796.714 1519.252 C 1798.822 1498.293,1799.896 1345.538,1799.171 1170.000 L 1797.882 858.000 1788.316 834.000 C 1768.053 783.167,1734.969 746.724,1686.959 722.356 C 1654.453 705.856,1618.332 700.315,1541.940 700.108 L 1501.880 700.000 1452.000 650.000 L 1402.120 600.000 1200.000 600.000 L 997.880 600.000 948.000 650.000 M1224.105 1004.228 C 1292.729 1012.789,1347.761 1052.026,1378.568 1114.361 L 1394.000 1145.585 1394.000 1200.000 L 1394.000 1254.415 1378.496 1285.786 C 1351.229 1340.955,1305.160 1378.423,1245.476 1393.968 C 1158.766 1416.554,1063.182 1370.114,1021.092 1284.952 L 1006.000 1254.415 1006.000 1200.000 L 1006.000 1145.585 1021.432 1114.361 C 1052.175 1052.155,1119.390 1005.084,1184.105 1000.438 C 1187.463 1000.197,1205.463 1001.903,1224.105 1004.228 M63.237 1314.143 C 41.219 1325.607,26.372 1343.613,17.525 1369.579 C 11.668 1386.768,11.703 1391.518,17.967 1429.129 C 33.196 1520.571,81.142 1660.773,127.696 1750.000 C 312.722 2104.620,650.213 2337.000,1058.000 2390.561 C 1127.771 2399.726,1270.402 2399.690,1341.334 2390.490 C 1399.581 2382.935,1483.518 2365.980,1503.032 2357.827 C 1521.187 2350.241,1522.723 2342.579,1510.032 2322.901 C 1498.373 2304.824,1149.307 1954.207,1131.213 1942.399 C 1121.804 1936.258,1118.994 1936.045,1109.213 1940.732 L 1098.000 1946.105 1096.942 2071.506 L 1095.885 2196.907 1072.942 2194.124 C 990.946 2184.176,867.890 2149.845,791.154 2115.509 C 596.393 2028.360,425.923 1872.540,320.491 1685.295 C 280.788 1614.785,247.566 1526.618,215.423 1406.463 C 200.452 1350.497,188.417 1331.860,156.470 1315.171 C 127.713 1300.148,90.893 1299.742,63.237 1314.143 " fill="#1D1E23" stroke="none" fill-rule="evenodd"/></svg>