<svg viewBox="0 0 2400 2400" fill="none" xmlns="http://www.w3.org/2000/svg"><path d="M1149.172 205.763 C 1066.559 224.610,992.667 289.997,958.188 374.764 L 948.737 398.000 741.276 400.000 L 533.814 402.000 507.323 415.046 C 458.509 439.085,419.911 490.042,406.082 548.705 C 397.085 586.865,397.085 2009.135,406.082 2047.295 C 415.064 2085.397,430.291 2113.880,456.863 2142.286 C 484.997 2172.361,517.218 2189.773,556.000 2195.859 C 572.847 2198.503,799.568 2199.940,1200.000 2199.940 C 1600.432 2199.940,1827.153 2198.503,1844.000 2195.859 C 1916.306 2184.513,1975.367 2125.986,1993.917 2047.300 C 2002.915 2009.135,2002.916 586.869,1993.918 548.705 C 1980.089 490.042,1941.491 439.085,1892.677 415.046 L 1866.186 402.000 1658.984 400.000 L 1451.781 398.000 1438.693 367.887 C 1395.764 269.117,1309.068 206.012,1210.367 201.691 C 1187.658 200.697,1164.675 202.227,1149.172 205.763 M1233.128 405.389 C 1250.598 412.702,1273.345 438.780,1281.981 461.395 C 1302.148 514.199,1271.082 581.109,1220.280 594.287 C 1129.798 617.758,1073.292 488.690,1144.510 421.220 C 1151.930 414.191,1162.500 406.655,1168.000 404.474 C 1182.622 398.674,1218.285 399.175,1233.128 405.389 M756.000 691.380 C 756.000 779.199,756.328 783.057,764.420 790.380 C 772.589 797.773,785.555 798.000,1200.000 798.000 C 1614.445 798.000,1627.411 797.773,1635.580 790.380 C 1643.672 783.057,1644.000 779.199,1644.000 691.380 L 1644.000 600.000 1732.000 600.000 L 1820.000 600.000 1820.000 1300.000 L 1820.000 2000.000 1200.000 2000.000 L 580.000 2000.000 580.000 1300.000 L 580.000 600.000 668.000 600.000 L 756.000 600.000 756.000 691.380 M814.000 1007.611 C 792.451 1017.625,769.695 1042.165,762.171 1063.503 C 749.303 1100.001,756.447 1134.734,782.867 1164.119 C 815.348 1200.247,787.689 1198.000,1200.000 1198.000 C 1612.311 1198.000,1584.652 1200.247,1617.133 1164.119 C 1652.869 1124.373,1653.387 1072.879,1618.451 1033.189 C 1587.182 997.666,1618.988 1000.176,1200.000 1000.176 C 847.772 1000.176,829.231 1000.533,814.000 1007.611 M814.000 1407.611 C 792.451 1417.625,769.695 1442.165,762.171 1463.503 C 749.303 1500.001,756.447 1534.734,782.867 1564.119 C 814.797 1599.633,798.837 1598.000,1114.000 1598.000 L 1390.000 1598.000 1409.109 1588.508 C 1433.571 1576.358,1454.575 1551.754,1462.090 1526.449 C 1469.464 1501.617,1469.468 1494.371,1462.115 1469.726 C 1454.465 1444.086,1436.021 1422.172,1411.728 1409.862 L 1392.266 1400.000 1111.133 1400.088 C 845.627 1400.171,829.111 1400.589,814.000 1407.611 " fill="#1D1E23" stroke="none" fill-rule="evenodd"/></svg>