<svg viewBox="0 0 2400 2400" fill="none" xmlns="http://www.w3.org/2000/svg"><path d="M1164.317 204.237 C 1085.251 212.391,995.924 285.501,959.499 371.872 L 948.480 398.000 741.240 400.146 L 534.000 402.292 511.757 413.424 C 464.785 436.934,429.568 478.213,411.247 531.238 L 402.000 558.000 402.000 1296.000 C 402.000 1918.518,402.882 2037.130,407.633 2054.000 C 425.187 2116.319,468.581 2165.611,526.000 2188.453 L 550.000 2198.000 1158.163 2199.178 C 1492.653 2199.826,1787.963 2198.804,1814.409 2196.908 C 1855.535 2193.959,1866.218 2191.690,1888.246 2181.227 C 1936.106 2158.494,1969.895 2119.340,1988.753 2064.762 L 1998.000 2038.000 1998.000 1298.000 L 1998.000 558.000 1988.753 531.238 C 1970.435 478.223,1935.240 436.963,1888.243 413.409 L 1866.000 402.261 1659.415 400.722 L 1452.830 399.183 1440.672 371.656 C 1388.748 254.099,1285.768 191.712,1164.317 204.237 M1239.178 409.575 C 1255.561 418.047,1278.862 448.935,1284.442 469.577 C 1293.339 502.495,1279.593 552.203,1255.341 574.809 C 1233.459 595.206,1196.993 601.536,1168.926 589.809 C 1149.133 581.539,1137.128 569.771,1125.815 547.548 C 1103.681 504.072,1110.468 457.151,1143.696 423.923 C 1154.270 413.349,1167.214 403.782,1172.461 402.662 C 1189.257 399.079,1226.303 402.917,1239.178 409.575 M756.000 690.000 C 756.000 771.987,756.654 780.654,763.344 787.344 C 769.795 793.795,780.617 795.010,852.344 797.333 C 958.066 800.759,1441.934 800.759,1547.656 797.333 C 1619.383 795.010,1630.205 793.795,1636.656 787.344 C 1643.346 780.654,1644.000 771.987,1644.000 690.000 L 1644.000 600.000 1732.000 600.000 L 1820.000 600.000 1820.000 1300.000 L 1820.000 2000.000 1200.000 2000.000 L 580.000 2000.000 580.000 1300.000 L 580.000 600.000 668.000 600.000 L 756.000 600.000 756.000 690.000 M841.736 1003.655 C 822.311 1005.547,809.587 1009.173,801.051 1015.251 C 745.241 1054.992,741.600 1125.761,792.832 1174.983 C 802.622 1184.388,812.912 1189.336,830.173 1192.937 C 863.998 1199.995,1535.224 1200.093,1570.000 1193.045 C 1590.656 1188.859,1596.401 1185.571,1611.227 1169.453 C 1620.702 1159.152,1631.455 1145.161,1635.122 1138.362 C 1644.427 1121.108,1644.168 1074.423,1634.668 1056.761 C 1622.935 1034.947,1600.152 1012.467,1584.606 1007.366 C 1568.281 1002.008,893.273 998.637,841.736 1003.655 M835.422 1403.952 C 801.352 1408.332,775.504 1430.083,761.835 1465.875 C 753.769 1486.997,755.503 1519.701,765.739 1539.496 C 775.064 1557.528,795.347 1579.457,809.443 1586.746 C 828.879 1596.797,933.979 1600.338,1176.350 1599.108 L 1394.701 1598.000 1417.258 1583.021 C 1454.359 1558.383,1474.234 1514.005,1464.445 1477.654 C 1457.122 1450.457,1438.343 1425.505,1415.219 1412.243 L 1394.000 1400.075 1126.000 1400.562 C 978.600 1400.830,847.840 1402.355,835.422 1403.952 " fill="#1D1E23" stroke="none" fill-rule="evenodd"/></svg>