<svg viewBox="0 0 2400 2400" fill="none" xmlns="http://www.w3.org/2000/svg"><path d="M1148.486 208.236 C 1102.348 216.485,1041.934 255.411,1003.995 301.336 C 992.788 314.901,975.436 342.365,965.434 362.366 L 947.249 398.732 739.606 401.127 L 531.962 403.522 511.141 414.761 C 463.273 440.601,425.022 488.930,405.950 547.667 C 399.305 568.130,399.045 609.879,401.269 1299.667 C 402.847 1789.304,405.018 2036.591,407.856 2050.000 C 419.064 2102.947,465.011 2158.403,520.158 2185.543 L 550.317 2200.385 1192.158 2198.844 C 1663.458 2197.713,1839.259 2196.061,1853.794 2192.624 C 1916.297 2177.848,1966.894 2126.973,1992.181 2053.475 C 1999.829 2031.246,2000.000 2014.688,2000.000 1298.000 C 2000.000 581.312,1999.829 564.754,1992.181 542.525 C 1972.744 486.031,1935.700 440.043,1889.584 415.155 L 1869.488 404.311 1661.482 401.523 L 1453.476 398.735 1439.106 368.367 C 1404.207 294.617,1341.314 237.125,1272.061 215.666 C 1241.705 206.260,1180.215 202.563,1148.486 208.236 M1228.770 408.147 C 1247.903 413.461,1274.260 443.173,1281.495 467.584 C 1297.307 520.937,1261.370 587.210,1213.020 593.860 C 1185.482 597.647,1164.610 591.069,1147.116 573.087 C 1125.978 551.361,1116.193 527.133,1116.088 496.263 C 1115.979 464.351,1125.568 442.948,1150.110 420.326 C 1166.578 405.146,1169.442 404.002,1190.911 404.022 C 1203.610 404.035,1220.646 405.891,1228.770 408.147 M756.000 681.403 C 756.000 775.416,758.061 785.258,779.320 792.795 C 800.478 800.297,1593.975 800.439,1618.627 792.946 C 1642.178 785.788,1644.000 777.780,1644.000 681.403 L 1644.000 600.000 1732.000 600.000 L 1820.000 600.000 1820.000 1300.000 L 1820.000 2000.000 1200.000 2000.000 L 580.000 2000.000 580.000 1300.000 L 580.000 600.000 668.000 600.000 L 756.000 600.000 756.000 681.403 M910.000 1003.995 C 844.622 1005.999,818.335 1008.270,807.744 1012.831 C 778.362 1025.484,752.294 1075.215,757.611 1108.471 C 763.070 1142.608,790.741 1180.833,815.329 1188.203 C 849.219 1198.362,1302.320 1203.657,1485.154 1196.031 C 1592.151 1191.569,1596.448 1190.281,1622.528 1154.853 C 1639.605 1131.657,1640.000 1130.420,1640.000 1100.189 C 1640.000 1063.690,1630.643 1041.877,1606.658 1022.465 C 1591.759 1010.406,1591.081 1010.276,1528.814 1007.567 C 1432.984 1003.397,1009.295 1000.952,910.000 1003.995 M929.654 1403.596 L 817.307 1406.000 800.093 1417.932 C 766.349 1441.323,750.935 1479.056,759.496 1517.312 C 768.697 1558.426,796.497 1586.084,835.126 1592.557 C 860.693 1596.842,1374.141 1602.338,1389.467 1598.491 C 1418.375 1591.236,1460.381 1541.261,1466.119 1507.297 C 1471.564 1475.067,1443.226 1426.460,1409.105 1409.506 C 1395.062 1402.527,1381.631 1401.972,1218.000 1401.596 C 1121.200 1401.374,991.444 1402.274,929.654 1403.596 " fill="#1D1E23" stroke="none" fill-rule="evenodd"/></svg>