<svg viewBox="0 0 2400 2400" fill="none" xmlns="http://www.w3.org/2000/svg"><path d="M1822.22 397.857H1450.67C1400 241.857 1247.11 161.857 1111.11 217.857C1034.67 247.857 977.778 313.857 949.333 397.857H577.778C530.628 397.857 485.41 418.928 452.07 456.436C418.73 493.943 400 544.814 400 597.857V1997.86C400 2050.9 418.73 2101.77 452.07 2139.28C485.41 2176.79 530.628 2197.86 577.778 2197.86H1822.22C1869.37 2197.86 1914.59 2176.79 1947.93 2139.28C1981.27 2101.77 2000 2050.9 2000 1997.86V597.857C2000 544.814 1981.27 493.943 1947.93 456.436C1914.59 418.928 1869.37 397.857 1822.22 397.857ZM1200 397.857C1223.57 397.857 1246.18 408.393 1262.85 427.146C1279.52 445.9 1288.89 471.335 1288.89 497.857C1288.89 524.379 1279.52 549.814 1262.85 568.568C1246.18 587.321 1223.57 597.857 1200 597.857C1176.43 597.857 1153.82 587.321 1137.15 568.568C1120.48 549.814 1111.11 524.379 1111.11 497.857C1111.11 471.335 1120.48 445.9 1137.15 427.146C1153.82 408.393 1176.43 397.857 1200 397.857ZM755.556 772.857C755.556 786.664 766.748 797.857 780.556 797.857H1619.44C1633.25 797.857 1644.44 786.664 1644.44 772.857V597.857H1822.22V1997.86H577.778V597.857H755.556V772.857ZM1644.44 1097.86C1644.44 1153.09 1599.67 1197.86 1544.44 1197.86H855.556C800.327 1197.86 755.556 1153.09 755.556 1097.86C755.556 1042.63 800.327 997.857 855.556 997.857H1544.44C1599.67 997.857 1644.44 1042.63 1644.44 1097.86ZM1466.67 1497.86C1466.67 1553.09 1421.9 1597.86 1366.67 1597.86H855.556C800.327 1597.86 755.556 1553.09 755.556 1497.86C755.556 1442.63 800.327 1397.86 855.556 1397.86H1366.67C1421.9 1397.86 1466.67 1442.63 1466.67 1497.86Z" fill="#1D1E23"/></svg>