<svg viewBox="0 0 2400 2400" fill="none" xmlns="http://www.w3.org/2000/svg"><path d="M1136.449 210.322 C 1062.167 230.299,987.658 301.047,955.036 382.577 L 948.489 398.940 741.186 400.734 L 533.883 402.527 508.054 416.264 C 460.563 441.520,426.865 483.696,407.994 541.497 L 399.017 568.994 401.025 1303.497 C 402.881 1982.568,403.550 2039.660,409.890 2060.000 C 426.732 2114.034,463.945 2157.651,514.532 2182.653 L 545.583 2198.000 1155.792 2199.094 C 1515.455 2199.738,1785.797 2198.628,1814.216 2196.390 C 1850.784 2193.510,1867.695 2190.236,1884.216 2182.839 C 1933.121 2160.944,1968.448 2120.406,1988.906 2062.710 L 2000.000 2031.420 2000.000 1298.411 L 2000.000 565.401 1990.335 536.984 C 1971.484 481.560,1938.500 441.107,1891.915 416.277 L 1867.280 403.147 1659.872 400.969 L 1452.465 398.791 1443.844 378.396 C 1407.980 293.547,1335.957 229.091,1255.939 210.232 C 1223.621 202.615,1164.943 202.659,1136.449 210.322 M1239.807 411.674 C 1256.154 419.855,1278.110 450.127,1284.259 472.963 C 1294.041 509.291,1274.127 562.538,1243.071 583.090 C 1229.215 592.259,1222.284 594.000,1199.637 594.000 C 1176.079 594.000,1170.513 592.471,1155.395 581.845 C 1118.219 555.717,1102.785 493.585,1123.423 453.132 C 1133.503 433.372,1161.566 405.148,1173.598 402.667 C 1188.648 399.564,1225.675 404.601,1239.807 411.674 M756.000 687.557 C 756.000 799.681,751.733 792.694,822.541 796.523 C 894.235 800.400,1510.195 800.280,1575.687 796.376 C 1648.746 792.021,1644.000 799.580,1644.000 687.557 L 1644.000 600.000 1732.000 600.000 L 1820.000 600.000 1820.000 1300.000 L 1820.000 2000.000 1200.000 2000.000 L 580.000 2000.000 580.000 1300.000 L 580.000 600.000 668.000 600.000 L 756.000 600.000 756.000 687.557 M884.000 1003.807 C 811.633 1006.371,801.876 1009.109,782.331 1032.336 C 747.779 1073.398,748.500 1124.721,784.198 1165.276 C 811.356 1196.128,806.028 1195.542,1083.523 1198.217 C 1377.087 1201.047,1571.931 1196.742,1590.310 1187.020 C 1602.866 1180.378,1626.516 1154.004,1636.045 1136.017 C 1643.604 1121.749,1642.825 1072.952,1634.791 1057.480 C 1625.047 1038.712,1608.576 1020.529,1594.524 1013.026 C 1583.454 1007.116,1556.453 1006.013,1362.000 1003.532 C 1112.374 1000.347,979.508 1000.424,884.000 1003.807 M885.334 1403.740 C 816.888 1405.993,816.613 1406.039,799.393 1418.149 C 768.232 1440.063,753.122 1472.924,757.429 1509.410 C 761.211 1541.447,787.413 1577.978,813.748 1587.931 C 835.398 1596.113,944.345 1599.790,1168.217 1599.896 L 1390.434 1600.000 1408.217 1588.672 C 1434.616 1571.855,1454.660 1547.469,1461.774 1523.512 C 1469.769 1496.592,1469.637 1492.675,1459.852 1466.523 C 1454.535 1452.313,1445.661 1439.176,1434.310 1428.713 C 1401.146 1398.143,1417.680 1399.915,1173.199 1400.740 C 1052.639 1401.147,923.100 1402.497,885.334 1403.740 " fill="#1D1E23" stroke="none" fill-rule="evenodd"/></svg>