<svg viewBox="0 0 2400 2400" fill="none" xmlns="http://www.w3.org/2000/svg"><path d="M1079.3 1488.43C1040.45 1527.43 1040.51 1590.51 1079.43 1629.43C1118.41 1668.41 1181.59 1668.41 1220.57 1629.43L1632.32 1217.68C1642.09 1207.91 1642.09 1192.09 1632.32 1182.32L1220.57 770.568C1181.59 731.594 1118.41 731.594 1079.43 770.568C1040.51 809.489 1040.45 872.572 1079.3 911.568L1267 1100H400C344.771 1100 300 1144.77 300 1200C300 1255.23 344.772 1300 400 1300H1267L1079.3 1488.43ZM1900 300H500C389 300 300 390 300 500V800C300 855.228 344.772 900 400 900C455.228 900 500 855.228 500 800V500H1900V1900H500V1600C500 1544.77 455.228 1500 400 1500C344.772 1500 300 1544.77 300 1600V1900C300 2010 389 2100 500 2100H1900C2010 2100 2100 2010 2100 1900V500C2100 390 2010 300 1900 300Z" fill="#1D1E23"/></svg>