<svg viewBox="0 0 2400 2400" fill="none" xmlns="http://www.w3.org/2000/svg"><path d="M760.000 307.854 L 438.000 310.078 416.874 321.170 C 382.685 339.121,338.298 384.234,321.618 417.984 C 309.207 443.096,306.840 452.739,303.344 492.417 C 301.136 517.488,300.065 601.900,300.965 680.000 C 302.864 844.851,302.866 844.861,338.401 873.808 C 362.372 893.335,384.725 898.851,420.140 893.981 C 443.590 890.756,475.596 868.101,486.543 846.980 C 495.690 829.330,499.579 761.933,499.812 617.000 L 500.000 500.000 1200.000 500.000 L 1900.000 500.000 1900.000 1200.000 L 1900.000 1900.000 1200.000 1900.000 L 500.000 1900.000 499.812 1783.000 C 499.579 1638.284,495.687 1570.663,486.576 1553.085 C 482.895 1545.982,470.296 1532.932,458.578 1524.085 C 437.352 1508.059,437.139 1508.000,401.077 1508.000 L 364.880 1508.000 341.060 1525.535 C 302.607 1553.843,302.895 1552.448,300.965 1720.000 C 300.065 1798.100,301.136 1882.512,303.344 1907.583 C 306.828 1947.133,309.226 1956.942,321.458 1981.692 C 340.188 2019.589,384.250 2062.922,422.034 2080.603 C 448.198 2092.847,450.869 2093.246,527.439 2096.368 C 629.709 2100.538,1770.291 2100.538,1872.561 2096.368 C 1949.210 2093.243,1951.778 2092.858,1978.077 2080.551 C 1997.679 2071.378,2013.442 2059.489,2035.858 2036.969 C 2075.755 1996.886,2086.335 1978.316,2092.243 1938.000 C 2095.635 1914.850,2097.459 1705.654,2098.835 1181.596 L 2100.739 457.192 2089.891 435.596 C 2062.494 381.050,2030.774 348.501,1975.668 318.389 L 1949.336 304.000 1515.668 304.814 C 1277.151 305.262,937.100 306.630,760.000 307.854 M1114.000 752.244 C 1079.550 762.356,1055.517 799.478,1054.837 843.629 C 1054.476 867.018,1055.983 873.581,1064.761 886.845 C 1076.012 903.847,1174.305 1009.430,1229.684 1064.000 L 1264.188 1098.000 814.329 1102.115 L 364.470 1106.230 347.235 1118.694 C 337.756 1125.549,324.600 1137.815,318.000 1145.950 C 306.501 1160.124,306.000 1162.370,306.000 1199.683 C 306.000 1235.998,306.741 1239.595,316.998 1253.042 C 323.047 1260.973,336.196 1274.181,346.218 1282.393 L 364.440 1297.324 814.223 1299.213 L 1264.006 1301.102 1193.003 1373.590 C 1117.332 1450.845,1067.829 1505.421,1059.606 1520.658 C 1052.271 1534.250,1053.333 1575.863,1061.565 1597.417 C 1075.089 1632.831,1119.827 1658.956,1160.289 1655.068 C 1175.487 1653.608,1184.662 1649.382,1202.553 1635.602 C 1249.456 1599.473,1623.480 1227.394,1635.533 1204.872 C 1640.109 1196.323,1636.547 1191.673,1579.209 1131.343 C 1477.095 1023.901,1208.799 765.100,1190.188 756.091 C 1172.357 747.459,1136.473 745.647,1114.000 752.244 " fill="#1D1E23" stroke="none" fill-rule="evenodd"/></svg>