<svg viewBox="0 0 2400 2400" fill="none" xmlns="http://www.w3.org/2000/svg"><path d="M643.784 303.734 L 445.568 306.000 414.352 321.432 C 354.559 350.991,312.307 408.192,303.541 471.446 C 301.196 488.370,300.036 569.161,300.759 665.235 C 302.140 848.641,300.913 840.297,330.670 868.559 C 354.277 890.980,370.308 897.728,400.000 897.746 C 430.148 897.764,448.212 890.371,470.197 869.021 C 498.147 841.875,497.801 844.330,499.253 663.000 L 500.559 500.000 1200.279 500.000 L 1900.000 500.000 1900.000 1200.000 L 1900.000 1900.000 1200.279 1900.000 L 500.559 1900.000 499.253 1737.000 C 497.814 1557.357,497.979 1558.594,472.109 1532.725 C 450.824 1511.439,429.609 1502.560,400.000 1502.545 C 370.207 1502.531,353.996 1509.287,330.670 1531.441 C 300.913 1559.703,302.140 1551.359,300.759 1734.765 C 300.036 1830.839,301.196 1911.630,303.541 1928.554 C 312.288 1991.675,354.580 2049.023,414.060 2078.419 C 442.639 2092.544,448.510 2093.919,491.492 2096.548 C 552.161 2100.260,1847.839 2100.260,1908.508 2096.548 C 1951.490 2093.919,1957.361 2092.544,1985.940 2078.419 C 2026.884 2058.184,2058.159 2026.934,2078.346 1986.089 C 2092.951 1956.536,2093.690 1953.063,2096.932 1898.657 C 2098.789 1867.496,2099.789 1530.600,2099.154 1150.000 L 2098.000 458.000 2088.375 434.000 C 2067.142 381.060,2034.184 345.686,1982.797 320.685 L 1950.000 304.729 1396.000 303.099 C 1091.300 302.202,752.803 302.488,643.784 303.734 M1105.238 753.745 C 1069.308 770.473,1049.908 805.787,1052.686 849.405 C 1054.889 884.012,1065.087 897.325,1173.211 1006.748 L 1264.858 1099.497 821.429 1101.010 C 480.987 1102.171,374.456 1103.683,362.740 1107.521 C 345.643 1113.121,320.033 1136.780,309.410 1156.787 C 299.742 1174.995,299.742 1225.005,309.410 1243.213 C 319.996 1263.149,345.603 1286.853,362.740 1292.579 C 374.639 1296.554,475.649 1297.969,821.377 1299.003 L 1264.755 1300.328 1167.205 1399.342 C 1059.785 1508.372,1052.000 1519.173,1052.000 1559.171 C 1052.000 1604.850,1080.204 1640.859,1126.530 1654.326 C 1151.865 1661.691,1171.021 1659.080,1196.000 1644.857 C 1214.312 1634.430,1608.641 1243.751,1629.872 1215.000 L 1640.950 1200.000 1629.884 1185.000 C 1623.798 1176.750,1526.834 1078.098,1414.409 965.774 C 1264.516 816.016,1205.129 759.208,1191.737 752.774 C 1166.354 740.579,1132.704 740.957,1105.238 753.745 " fill="#1D1E23" stroke="none" fill-rule="evenodd"/></svg>