<svg viewBox="0 0 2400 2400" fill="none" xmlns="http://www.w3.org/2000/svg"><path d="M569.776 303.862 L 445.552 306.000 414.344 321.432 C 373.070 341.842,341.894 372.958,321.620 413.980 C 307.743 442.058,306.115 448.822,303.467 489.412 C 299.672 547.583,299.672 1852.417,303.467 1910.588 C 306.115 1951.178,307.743 1957.942,321.620 1986.020 C 341.843 2026.938,373.089 2058.170,414.060 2078.419 C 442.639 2092.544,448.510 2093.919,491.492 2096.548 C 552.161 2100.260,1847.839 2100.260,1908.508 2096.548 C 1951.490 2093.919,1957.361 2092.544,1985.940 2078.419 C 2026.943 2058.155,2058.155 2026.943,2078.419 1985.940 C 2092.544 1957.361,2093.919 1951.490,2096.548 1908.508 C 2100.260 1847.839,2100.260 552.161,2096.548 491.492 C 2093.919 448.510,2092.544 442.639,2078.419 414.060 C 2058.102 372.950,2026.962 341.857,1985.653 321.432 L 1954.441 306.000 1838.220 303.426 C 1702.287 300.415,751.108 300.742,569.776 303.862 M1900.000 1300.000 L 1900.000 1900.000 1200.000 1900.000 L 500.000 1900.000 500.000 1300.000 L 500.000 700.000 1200.000 700.000 L 1900.000 700.000 1900.000 1300.000 M1148.000 902.650 C 1048.583 912.374,966.374 937.466,883.485 983.385 C 771.924 1045.187,681.193 1139.113,621.238 1254.865 L 598.000 1299.730 617.808 1338.810 C 706.226 1513.260,855.037 1632.136,1047.981 1682.450 C 1124.522 1702.410,1271.728 1702.494,1350.265 1682.622 C 1542.699 1633.933,1693.429 1513.951,1782.192 1338.807 L 1802.000 1299.723 1778.111 1253.947 C 1702.071 1108.243,1581.324 1000.657,1429.717 943.526 C 1342.888 910.806,1230.835 894.547,1148.000 902.650 M1276.000 1063.690 C 1356.573 1088.787,1424.681 1163.595,1441.982 1246.000 C 1468.201 1370.881,1397.292 1497.874,1280.000 1536.100 C 1254.757 1544.327,1242.071 1545.887,1200.000 1545.939 C 1157.576 1545.991,1145.454 1544.509,1120.000 1536.161 C 1002.400 1497.595,931.761 1371.058,958.018 1246.000 C 967.703 1199.871,988.558 1162.707,1025.626 1125.528 C 1067.028 1084.000,1109.029 1062.094,1162.000 1054.399 C 1187.782 1050.654,1250.581 1055.772,1276.000 1063.690 M1164.000 1155.507 C 1124.144 1164.346,1083.784 1197.833,1065.989 1236.826 C 1030.574 1314.432,1061.745 1399.011,1139.128 1435.280 C 1158.905 1444.549,1167.142 1446.000,1200.000 1446.000 C 1232.789 1446.000,1241.113 1444.541,1260.701 1435.358 C 1292.483 1420.459,1317.588 1395.880,1333.000 1364.574 C 1344.907 1340.388,1346.000 1334.967,1346.000 1300.084 C 1346.000 1266.563,1344.620 1259.012,1334.482 1237.063 C 1320.690 1207.203,1292.780 1179.577,1262.314 1165.629 C 1238.988 1154.950,1189.488 1149.854,1164.000 1155.507 " fill="#1D1E23" stroke="none" fill-rule="evenodd"/></svg>