<svg viewBox="0 0 2400 2400" fill="none" xmlns="http://www.w3.org/2000/svg"><path d="M815.913 303.812 L 441.826 306.000 412.206 323.599 C 373.042 346.868,337.205 383.658,320.347 417.901 C 307.428 444.145,306.928 447.019,303.723 513.479 C 299.373 603.703,299.442 1798.347,303.802 1886.000 C 307.632 1962.980,310.650 1973.310,341.493 2015.005 C 361.303 2041.783,398.738 2072.044,428.000 2084.931 C 457.444 2097.899,548.694 2099.637,1200.000 2099.637 C 1851.306 2099.637,1942.556 2097.899,1972.000 2084.931 C 2001.262 2072.044,2038.697 2041.783,2058.507 2015.005 C 2089.946 1972.504,2092.416 1963.669,2096.248 1880.000 C 2100.602 1784.946,2100.690 617.847,2096.351 519.573 C 2093.114 446.248,2092.867 444.744,2079.699 417.995 C 2063.032 384.139,2027.120 346.964,1989.482 324.603 L 1961.549 308.009 1883.775 306.038 C 1750.477 302.660,1206.759 301.527,815.913 303.812 M1900.000 1300.000 L 1900.000 1900.000 1200.000 1900.000 L 500.000 1900.000 500.000 1300.000 L 500.000 700.000 1200.000 700.000 L 1900.000 700.000 1900.000 1300.000 M1140.000 904.204 C 919.625 931.170,748.428 1041.971,634.853 1231.143 C 622.588 1251.571,609.524 1276.215,605.823 1285.906 L 599.094 1303.527 617.810 1338.763 C 654.043 1406.981,686.941 1451.163,743.889 1508.089 C 834.121 1598.286,919.751 1646.879,1051.869 1682.863 C 1088.264 1692.775,1094.827 1693.262,1196.000 1693.542 C 1294.536 1693.816,1304.676 1693.172,1340.000 1684.400 C 1412.920 1666.292,1482.022 1638.328,1536.000 1605.086 C 1642.068 1539.763,1734.793 1437.001,1790.327 1323.228 L 1801.442 1300.457 1786.224 1269.664 C 1729.338 1154.564,1626.774 1046.614,1516.000 985.250 C 1477.507 963.927,1410.368 936.441,1371.522 926.101 C 1297.553 906.413,1198.501 897.045,1140.000 904.204 M1260.504 1062.044 C 1343.560 1078.711,1421.423 1157.776,1439.693 1244.000 C 1446.247 1274.934,1445.378 1333.634,1437.948 1361.831 C 1414.396 1451.213,1339.357 1523.766,1250.960 1542.626 C 1216.793 1549.916,1161.880 1547.753,1128.000 1537.784 C 1058.504 1517.335,1000.003 1461.195,969.832 1386.000 C 960.275 1362.181,958.342 1350.832,956.888 1310.000 C 955.590 1273.543,956.792 1255.816,961.884 1236.286 C 984.489 1149.596,1059.728 1077.740,1148.523 1058.040 C 1176.531 1051.826,1216.749 1053.264,1260.504 1062.044 M1144.855 1162.967 C 1110.329 1177.131,1074.038 1214.374,1061.703 1248.302 C 1057.812 1259.005,1055.051 1280.262,1054.717 1302.085 C 1054.223 1334.457,1055.367 1340.626,1065.841 1362.034 C 1080.665 1392.332,1107.547 1419.276,1137.643 1434.001 C 1158.454 1444.182,1165.640 1445.543,1199.604 1445.736 C 1234.330 1445.933,1240.236 1444.834,1261.041 1434.308 C 1288.867 1420.229,1325.107 1383.397,1336.993 1357.114 C 1344.021 1341.573,1345.592 1330.751,1345.396 1299.220 C 1345.186 1265.449,1343.753 1257.577,1334.304 1238.263 C 1320.890 1210.846,1293.549 1182.977,1266.496 1169.145 C 1249.027 1160.212,1239.798 1158.463,1204.000 1157.299 C 1170.768 1156.218,1158.421 1157.401,1144.855 1162.967 " fill="#1D1E23" stroke="none" fill-rule="evenodd"/></svg>