<svg viewBox="0 0 2400 2400" fill="none" xmlns="http://www.w3.org/2000/svg"><path d="M743.954 303.872 L 441.908 306.000 410.505 323.970 C 372.154 345.917,337.635 381.571,319.939 417.517 C 308.223 441.317,306.836 448.280,303.759 498.774 C 299.370 570.779,299.370 1829.221,303.759 1901.226 C 306.852 1951.976,308.187 1958.623,320.231 1983.226 C 337.936 2019.395,380.684 2062.103,416.955 2079.858 C 442.253 2092.243,447.536 2093.252,502.955 2096.288 C 579.921 2100.504,1820.079 2100.504,1897.045 2096.288 C 1952.464 2093.252,1957.747 2092.243,1983.045 2079.858 C 2019.403 2062.060,2062.060 2019.403,2079.858 1983.045 C 2092.243 1957.747,2093.252 1952.464,2096.288 1897.045 C 2100.504 1820.079,2100.504 579.921,2096.288 502.955 C 2093.267 447.805,2092.202 442.180,2080.150 417.698 C 2062.370 381.582,2027.908 345.952,1989.495 323.970 L 1958.092 306.000 1692.046 303.423 C 1398.785 300.583,1197.082 300.678,743.954 303.872 M1900.000 1300.000 L 1900.000 1900.000 1200.000 1900.000 L 500.000 1900.000 500.000 1300.000 L 500.000 700.000 1200.000 700.000 L 1900.000 700.000 1900.000 1300.000 M1136.000 904.487 C 966.725 923.950,820.184 999.834,709.946 1125.111 C 661.284 1180.413,596.893 1287.302,601.486 1305.156 C 602.737 1310.020,614.631 1333.491,627.916 1357.313 C 721.193 1524.574,861.984 1632.916,1050.729 1682.677 C 1085.686 1691.893,1099.668 1693.232,1178.000 1694.864 C 1283.548 1697.063,1323.224 1692.171,1398.524 1667.674 C 1559.760 1615.218,1687.392 1509.179,1772.084 1357.313 C 1785.369 1333.491,1797.270 1309.990,1798.531 1305.089 C 1800.096 1299.004,1794.852 1285.051,1781.996 1261.089 C 1708.605 1124.306,1612.311 1029.955,1482.963 968.093 C 1404.551 930.591,1341.973 913.234,1252.576 904.190 C 1205.708 899.449,1179.230 899.517,1136.000 904.487 M1224.736 1055.975 C 1272.491 1060.622,1299.839 1069.960,1335.901 1093.934 C 1467.193 1181.217,1484.618 1363.946,1372.378 1476.449 C 1315.384 1533.575,1243.903 1556.272,1158.538 1544.347 C 1058.961 1530.437,975.621 1446.592,957.366 1341.955 C 946.679 1280.703,959.127 1215.707,990.631 1168.259 C 1030.193 1108.673,1091.563 1066.822,1155.054 1056.131 C 1181.145 1051.738,1181.183 1051.738,1224.736 1055.975 M1165.375 1156.029 C 1139.538 1161.353,1116.192 1175.094,1093.509 1198.327 C 1064.667 1227.869,1054.400 1254.950,1054.173 1302.084 C 1054.015 1334.977,1055.163 1340.530,1067.147 1364.874 C 1082.434 1395.926,1107.505 1420.204,1140.000 1435.423 C 1158.731 1444.196,1167.648 1445.741,1200.004 1445.820 C 1234.013 1445.903,1240.526 1444.681,1261.953 1434.198 C 1292.453 1419.276,1319.276 1392.453,1334.198 1361.953 C 1344.701 1340.487,1345.898 1334.076,1345.764 1300.004 C 1345.645 1269.534,1343.854 1258.098,1336.731 1242.319 C 1318.937 1202.899,1282.073 1169.719,1246.000 1160.655 C 1221.131 1154.407,1183.678 1152.258,1165.375 1156.029 " fill="#1D1E23" stroke="none" fill-rule="evenodd"/></svg>