<svg viewBox="0 0 2400 2400" fill="none" xmlns="http://www.w3.org/2000/svg"><path d="M1900 300H500C389 300 300 390 300 500V1900C300 2010 389 2100 500 2100H1900C2010 2100 2100 2010 2100 1900V500C2100 390 2011 300 1900 300ZM1900 1900H500V700H1900V1900ZM1350 1300C1350 1383 1283 1450 1200 1450C1117 1450 1050 1383 1050 1300C1050 1217 1117 1150 1200 1150C1283 1150 1350 1217 1350 1300ZM1200 900C927 900 694 1066 600 1300C694 1534 927 1700 1200 1700C1473 1700 1706 1534 1800 1300C1706 1066 1473 900 1200 900ZM1200 1550C1062 1550 950 1438 950 1300C950 1162 1062 1050 1200 1050C1338 1050 1450 1162 1450 1300C1450 1438 1338 1550 1200 1550Z" fill="#1D1E23"/></svg>