<svg viewBox="0 0 2400 2400" fill="none" xmlns="http://www.w3.org/2000/svg"><path d="M1542.46 1093.54C1623.67 1093.54 1689.23 1027.98 1689.23 946.771 1689.23 865.558 1623.67 800 1542.46 800 1461.25 800 1395.69 865.558 1395.69 946.771 1395.69 1027.98 1461.25 1093.54 1542.46 1093.54ZM857.529 1093.54C938.742 1093.54 1004.3 1027.98 1004.3 946.771 1004.3 865.558 938.742 800 857.529 800 776.315 800 710.758 865.558 710.758 946.771 710.758 1027.98 776.315 1093.54 857.529 1093.54ZM1199.99 1729.55C1414.95 1729.55 1599.46 1602.55 1685.46 1420.73 1692.99 1404.81 1680.95 1387.08 1663.34 1387.08H736.652C719.038 1387.08 707 1404.81 714.531 1420.73 800.528 1602.55 985.039 1729.55 1199.99 1729.55ZM1600 300C1600 355.228 1644.77 400 1700 400H1900C1955.23 400 2000 444.771 2000 500V700C2000 755.228 2044.77 800 2100 800 2155.23 800 2200 755.228 2200 700V500C2200 334.315 2065.69 200 1900 200H1700C1644.77 200 1600 244.772 1600 300ZM700 400C755.229 400 800 355.228 800 300 800 244.772 755.229 200 700 200H500C334.315 200 200 334.315 200 500V700C200 755.228 244.772 800 300 800 355.228 800 400 755.228 400 700V500C400 444.772 444.771 400 500 400H700ZM400 1700C400 1644.77 355.228 1600 300 1600 244.772 1600 200 1644.77 200 1700V1900C200 2065.69 334.315 2200 500 2200H700C755.228 2200 800 2155.23 800 2100 800 2044.77 755.229 2000 700 2000H500C444.772 2000 400 1955.23 400 1900V1700ZM1700 2000C1644.77 2000 1600 2044.77 1600 2100 1600 2155.23 1644.77 2200 1700 2200H1900C2065.69 2200 2200 2065.69 2200 1900V1700C2200 1644.77 2155.23 1600 2100 1600 2044.77 1600 2000 1644.77 2000 1700V1900C2000 1955.23 1955.23 2000 1900 2000H1700Z" fill="#1D1E23"/></svg>