<svg viewBox="0 0 2400 2400" fill="none" xmlns="http://www.w3.org/2000/svg"><path d="M496.000 207.806 C 395.878 212.295,352.750 230.034,292.000 291.715 C 243.852 340.600,217.608 388.196,208.032 444.000 C 201.473 482.220,198.525 630.399,203.187 687.529 C 206.832 732.202,208.356 738.663,218.726 753.418 C 237.812 780.574,258.833 792.698,290.796 794.985 C 325.480 797.467,353.752 786.571,373.997 762.919 C 392.237 741.610,394.901 725.763,400.041 608.000 C 405.390 485.463,408.382 463.651,422.671 443.032 C 446.298 408.938,447.004 408.725,552.236 404.056 C 676.246 398.553,730.830 393.187,747.920 384.817 C 777.103 370.526,803.688 317.729,797.720 285.916 C 794.040 266.300,773.752 237.112,752.689 221.133 C 735.862 208.367,734.285 208.000,696.317 208.000 C 674.833 208.000,635.823 207.290,609.628 206.423 C 583.433 205.556,532.300 206.178,496.000 207.806 M1652.855 216.493 C 1621.942 231.794,1600.633 275.361,1605.021 314.291 C 1607.621 337.354,1625.688 366.589,1646.290 381.068 C 1664.169 393.634,1677.228 395.136,1844.000 403.812 C 1886.900 406.044,1928.694 409.768,1936.876 412.088 C 1954.452 417.073,1974.048 432.623,1981.907 447.821 C 1990.002 463.474,1995.330 513.198,2000.075 617.356 C 2005.466 735.675,2007.415 744.815,2032.297 768.441 C 2055.255 790.240,2078.287 798.122,2109.593 794.891 C 2148.377 790.888,2179.337 767.161,2191.657 732.000 C 2198.940 711.215,2201.595 588.116,2196.505 507.280 C 2192.567 444.749,2190.618 432.599,2179.676 402.359 C 2150.404 321.461,2105.113 274.227,2012.231 227.728 L 1972.823 208.000 1821.411 208.003 C 1675.164 208.006,1669.415 208.296,1652.855 216.493 M1500.189 808.685 C 1481.592 814.023,1447.242 837.252,1431.597 855.070 C 1411.070 878.449,1403.020 901.425,1400.855 942.810 C 1399.059 977.157,1399.704 981.328,1410.153 1002.860 C 1416.762 1016.481,1431.610 1036.092,1446.246 1050.531 C 1478.992 1082.836,1498.196 1089.536,1551.386 1087.212 C 1598.579 1085.151,1613.576 1078.329,1644.613 1044.805 C 1677.946 1008.801,1682.000 998.087,1682.000 946.000 C 1682.000 904.697,1681.272 900.686,1670.127 880.565 C 1649.085 842.574,1609.392 815.645,1563.448 808.190 C 1533.086 803.263,1518.689 803.376,1500.189 808.685 M796.000 817.556 C 770.628 831.116,741.705 857.667,729.362 878.728 C 720.685 893.534,718.514 903.105,716.920 933.571 C 714.137 986.778,721.267 1008.509,752.439 1041.832 C 786.393 1078.130,811.744 1090.081,854.000 1089.712 C 900.811 1089.303,923.416 1080.435,953.874 1050.531 C 967.615 1037.039,982.791 1018.275,987.596 1008.832 C 1020.426 944.327,995.006 863.287,929.619 824.000 C 906.989 810.403,904.988 809.970,860.159 808.968 C 817.970 808.025,812.452 808.764,796.000 817.556 M741.329 1395.610 C 727.760 1396.924,715.430 1399.229,713.930 1400.732 C 709.649 1405.020,719.651 1431.570,736.256 1460.000 C 785.977 1545.128,886.426 1636.072,976.899 1677.873 C 1021.053 1698.273,1075.473 1715.633,1108.868 1719.970 C 1148.245 1725.083,1264.918 1724.989,1294.265 1719.819 C 1356.883 1708.789,1435.779 1675.851,1495.889 1635.644 C 1581.879 1578.125,1678.145 1462.539,1681.088 1413.276 L 1682.000 1398.000 1628.000 1395.473 C 1559.693 1392.275,774.493 1392.397,741.329 1395.610 M284.000 1606.776 C 261.722 1610.036,255.933 1612.621,236.495 1627.986 C 203.831 1653.805,201.919 1664.122,202.384 1812.000 C 202.689 1909.000,204.105 1940.070,209.298 1963.624 C 229.711 2056.207,303.301 2141.553,392.320 2175.882 C 448.707 2197.628,483.521 2201.262,612.000 2198.813 C 675.535 2197.602,730.799 2194.799,736.840 2192.480 C 752.296 2186.548,779.398 2158.176,788.266 2138.646 C 809.571 2091.724,782.668 2024.566,737.718 2012.463 C 728.870 2010.080,667.714 2005.375,601.816 2002.007 C 535.917 1998.639,476.183 1994.816,469.073 1993.510 C 451.979 1990.372,422.432 1963.933,414.934 1945.065 C 407.104 1925.363,404.874 1901.701,399.760 1784.000 C 395.156 1678.033,392.474 1660.889,377.383 1640.942 C 360.128 1618.134,316.204 1602.064,284.000 1606.776 M2072.921 1607.841 C 2054.552 1612.308,2030.552 1629.888,2017.903 1648.139 C 2005.754 1665.672,2003.663 1684.566,1996.302 1843.381 C 1992.891 1916.981,1991.180 1931.169,1983.901 1946.205 C 1973.373 1967.952,1952.744 1986.415,1933.053 1991.714 C 1924.774 1993.942,1875.700 1997.599,1824.000 1999.841 C 1659.998 2006.951,1650.245 2008.759,1626.551 2036.441 C 1583.022 2087.295,1606.594 2174.193,1668.947 2192.734 C 1696.667 2200.977,1929.839 2199.380,1965.173 2190.706 C 1994.002 2183.628,2045.271 2159.766,2073.756 2140.168 C 2106.670 2117.522,2141.355 2075.209,2163.092 2031.184 C 2196.776 1962.961,2197.015 1961.409,2197.164 1810.198 C 2197.309 1662.765,2197.257 1662.434,2169.871 1634.521 C 2161.519 1626.008,2149.131 1616.775,2142.342 1614.004 C 2125.669 1607.198,2088.963 1603.940,2072.921 1607.841 " fill="#1D1E23" stroke="none" fill-rule="evenodd"/></svg>