<svg viewBox="0 0 2400 2400" fill="none" xmlns="http://www.w3.org/2000/svg"><path d="M460.000 207.968 C 412.742 212.208,371.393 227.666,328.333 257.189 C 282.969 288.292,236.145 350.275,217.491 403.913 C 203.948 442.858,198.403 522.615,201.413 635.194 C 203.410 709.902,205.004 727.117,211.231 741.194 C 219.544 759.985,242.651 782.173,262.581 790.500 C 282.640 798.882,322.327 797.523,342.483 787.766 C 364.330 777.190,386.451 752.644,391.634 733.227 C 393.869 724.852,397.683 665.800,400.108 602.000 C 402.532 538.200,406.196 479.522,408.250 471.604 C 413.110 452.863,426.396 433.642,444.634 418.968 L 459.267 407.194 550.634 403.539 C 678.147 398.437,733.258 393.624,747.302 386.361 C 778.080 370.445,803.588 321.076,798.030 288.180 C 793.777 263.002,772.575 231.877,750.325 218.144 L 730.649 206.000 612.325 205.459 C 547.246 205.161,478.700 206.290,460.000 207.968 M1693.348 207.542 C 1660.123 209.770,1655.260 211.162,1641.348 222.430 C 1606.626 250.552,1593.973 302.757,1612.385 341.926 C 1622.870 364.232,1646.707 386.122,1666.717 391.820 C 1675.123 394.214,1729.700 397.970,1788.000 400.167 C 1915.932 404.988,1940.074 408.056,1958.067 421.780 C 1991.526 447.301,1993.598 456.776,2000.038 613.695 C 2005.227 740.158,2006.774 747.199,2034.798 771.866 C 2057.658 791.989,2074.087 797.237,2108.193 795.310 C 2140.222 793.500,2161.848 781.057,2181.457 753.157 C 2191.590 738.740,2193.636 731.067,2196.891 695.269 C 2202.203 636.848,2197.282 460.528,2189.493 430.231 C 2176.895 381.225,2145.306 324.923,2112.311 292.667 C 2087.497 268.409,2053.152 245.898,2010.490 225.931 L 1974.000 208.852 1852.000 206.968 C 1784.900 205.932,1713.506 206.191,1693.348 207.542 M815.755 809.220 C 793.673 815.465,776.814 826.653,748.859 853.612 C 722.824 878.721,715.984 898.750,716.039 949.726 C 716.088 995.149,725.423 1017.421,757.742 1049.229 C 784.206 1075.273,805.616 1086.434,836.070 1090.061 C 860.613 1092.984,903.373 1086.598,921.288 1077.334 C 937.545 1068.927,966.689 1041.347,980.451 1021.345 C 1025.294 956.168,998.850 860.218,925.231 820.979 C 906.301 810.890,895.625 808.155,867.981 806.318 C 845.742 804.840,827.696 805.843,815.755 809.220 M1495.811 809.164 C 1476.235 816.526,1447.712 836.716,1432.645 853.876 C 1409.149 880.637,1402.634 898.357,1400.792 940.507 C 1399.249 975.813,1400.017 981.038,1410.032 1003.354 C 1422.967 1032.178,1458.517 1068.255,1485.935 1080.383 C 1518.481 1094.780,1588.335 1090.961,1614.000 1073.382 C 1634.711 1059.196,1666.097 1023.953,1674.837 1005.068 C 1687.292 978.156,1688.902 928.580,1678.349 896.954 C 1668.714 868.079,1638.401 835.609,1606.687 820.192 C 1576.818 805.673,1520.096 800.030,1495.811 809.164 M819.090 1391.514 C 749.638 1393.414,718.723 1395.677,715.287 1399.113 C 708.832 1405.568,715.454 1424.847,736.492 1460.852 C 759.074 1499.500,793.155 1540.776,836.282 1581.711 C 898.216 1640.496,970.088 1681.926,1056.000 1708.364 C 1096.524 1720.835,1100.989 1721.351,1183.067 1723.044 C 1276.968 1724.980,1299.219 1722.512,1356.995 1703.752 C 1486.155 1661.814,1594.784 1574.823,1665.980 1456.316 C 1676.827 1438.261,1681.498 1425.785,1681.705 1414.316 L 1682.000 1398.000 1656.000 1395.391 C 1617.560 1391.534,934.060 1388.367,819.090 1391.514 M269.038 1607.660 C 252.561 1611.873,221.789 1636.938,213.561 1652.848 C 203.287 1672.717,198.909 1742.528,201.448 1846.000 C 204.123 1954.989,208.367 1981.439,230.145 2024.833 C 249.718 2063.833,265.962 2085.247,301.789 2119.279 C 346.278 2161.540,402.762 2187.237,471.431 2196.459 C 506.093 2201.114,709.359 2198.882,732.774 2193.589 C 748.991 2189.924,772.841 2167.467,785.794 2143.669 C 806.268 2106.052,800.025 2067.086,767.610 2030.167 C 748.325 2008.203,740.019 2006.963,565.778 2000.052 C 515.055 1998.040,468.255 1994.400,461.778 1991.964 C 445.569 1985.869,416.906 1957.032,412.332 1942.218 C 405.771 1920.970,404.120 1900.672,399.973 1790.289 C 397.747 1731.048,394.095 1675.780,391.858 1667.471 C 382.794 1633.812,347.124 1607.895,306.841 1605.700 C 293.178 1604.955,276.167 1605.837,269.038 1607.660 M2069.038 1607.654 C 2049.842 1612.571,2020.053 1638.864,2011.326 1658.591 C 2004.814 1673.314,2003.161 1692.188,1999.743 1790.882 C 1997.551 1854.197,1993.898 1915.381,1991.626 1926.848 C 1986.428 1953.088,1959.114 1985.540,1936.732 1992.070 C 1928.629 1994.433,1877.000 1998.010,1822.000 2000.018 C 1661.037 2005.893,1659.527 2006.124,1633.777 2028.732 C 1592.171 2065.262,1592.681 2134.549,1634.836 2172.517 C 1662.244 2197.203,1667.721 2198.000,1810.000 2198.000 C 1955.876 2198.000,1966.772 2196.412,2030.000 2165.936 C 2068.592 2147.335,2101.068 2122.121,2127.808 2090.000 C 2149.943 2063.410,2187.018 1988.043,2192.742 1958.000 C 2199.325 1923.453,2199.532 1681.665,2192.992 1666.829 C 2185.717 1650.326,2167.899 1629.134,2151.953 1618.022 C 2136.303 1607.116,2092.514 1601.640,2069.038 1607.654 " fill="#1D1E23" stroke="none" fill-rule="evenodd"/></svg>