<svg viewBox="0 0 2400 2400" fill="none" xmlns="http://www.w3.org/2000/svg"><path d="M1158.000 611.611 C 1137.310 621.226,1112.993 646.715,1107.803 664.228 C 1102.314 682.748,1098.451 1382.874,1102.725 1584.657 L 1106.000 1739.314 1118.068 1756.483 C 1155.323 1809.486,1244.676 1809.487,1281.932 1756.484 L 1294.000 1739.315 1297.280 1578.657 C 1301.510 1371.488,1297.672 682.884,1292.183 664.259 C 1286.717 645.713,1266.255 625.035,1242.000 613.549 C 1216.843 601.636,1181.233 600.814,1158.000 611.611 M210.739 629.833 C 201.498 639.073,199.287 773.999,200.717 1241.354 L 202.000 1660.709 211.218 1668.172 C 218.264 1673.877,222.722 1674.767,230.131 1671.950 C 249.594 1664.550,421.891 1548.691,714.000 1346.578 C 954.972 1179.847,980.000 1161.351,980.000 1150.000 C 980.000 1138.718,937.660 1107.614,694.000 939.899 C 500.425 806.657,227.184 624.000,221.441 624.000 C 218.763 624.000,213.947 626.625,210.739 629.833 M2121.867 659.105 C 1956.112 764.010,1437.071 1124.543,1424.766 1143.321 C 1418.689 1152.596,1418.930 1153.487,1430.239 1163.592 C 1466.923 1196.369,1971.277 1545.988,2110.509 1635.156 C 2168.129 1672.058,2182.593 1679.007,2188.819 1672.781 C 2192.069 1669.531,2194.663 1632.525,2197.075 1555.021 C 2201.283 1419.815,2197.984 659.970,2193.102 640.024 C 2191.221 632.337,2186.994 625.531,2183.708 624.898 C 2180.423 624.265,2152.595 639.659,2121.867 659.105 " fill="#1D1E23" stroke="none" fill-rule="evenodd"/></svg>