<svg viewBox="0 0 2400 2400" fill="none" xmlns="http://www.w3.org/2000/svg"><path d="M1173.433 607.626 C 1154.934 612.317,1133.277 626.859,1121.189 642.708 C 1112.334 654.318,1109.991 662.807,1107.222 693.329 C 1102.542 744.899,1098.335 1486.019,1101.934 1624.954 L 1104.911 1739.909 1121.303 1758.531 C 1165.010 1808.185,1234.905 1808.281,1278.506 1758.748 L 1294.708 1740.342 1297.346 1635.171 C 1301.243 1479.774,1300.406 940.681,1296.047 798.915 C 1293.966 731.218,1290.369 668.799,1288.056 660.207 C 1278.621 625.169,1216.546 596.693,1173.433 607.626 M212.026 629.968 C 208.837 633.811,205.888 660.525,203.746 704.968 C 199.844 785.937,198.800 1618.127,202.566 1645.604 C 205.748 1668.820,214.092 1674.570,234.720 1667.762 C 250.689 1662.492,387.341 1571.585,622.000 1410.125 C 914.476 1208.883,980.000 1161.281,980.000 1150.045 C 980.000 1139.225,891.172 1074.968,626.357 894.224 C 461.038 781.389,224.385 624.000,220.043 624.000 C 218.358 624.000,214.751 626.686,212.026 629.968 M2130.000 655.277 C 1973.630 751.586,1435.569 1126.045,1421.995 1148.007 C 1420.563 1150.325,1424.753 1157.230,1431.306 1163.351 C 1453.282 1183.880,1730.592 1378.909,1942.000 1522.515 C 2111.460 1637.627,2180.772 1680.561,2187.035 1674.298 C 2193.761 1667.573,2195.631 1599.421,2198.187 1268.000 C 2200.741 936.794,2196.998 653.679,2189.818 634.969 C 2185.469 623.635,2176.345 626.733,2130.000 655.277 " fill="#1D1E23" stroke="none" fill-rule="evenodd"/></svg>