<svg viewBox="0 0 2400 2400" fill="none" xmlns="http://www.w3.org/2000/svg"><path d="M1160.000 612.070 C 1139.031 621.857,1121.933 637.064,1112.852 654.000 C 1103.388 671.652,1099.006 946.958,1101.249 1383.010 L 1103.065 1736.019 1114.488 1751.010 C 1138.405 1782.395,1164.263 1796.000,1200.000 1796.000 C 1235.699 1796.000,1261.600 1782.390,1285.440 1751.104 L 1296.791 1736.207 1298.696 1387.104 C 1301.053 954.860,1296.602 671.638,1287.174 654.000 C 1265.599 613.635,1201.748 592.583,1160.000 612.070 M211.816 630.222 C 202.429 641.532,200.473 738.167,200.235 1202.380 C 200.010 1639.599,200.307 1659.038,207.315 1665.380 C 219.346 1676.268,230.303 1673.210,271.114 1647.572 C 346.628 1600.135,808.449 1283.311,918.000 1203.787 C 975.400 1162.119,983.355 1154.216,977.400 1144.766 C 971.999 1136.194,933.374 1106.681,862.000 1056.587 C 646.828 905.569,228.932 624.000,219.967 624.000 C 218.324 624.000,214.656 626.800,211.816 630.222 M2143.834 646.303 C 2015.457 722.139,1428.994 1129.632,1421.792 1148.000 C 1420.321 1151.750,1424.419 1158.235,1432.720 1165.294 C 1469.012 1196.157,1826.375 1445.508,2024.109 1577.937 C 2135.740 1652.700,2181.493 1679.840,2186.857 1674.476 C 2194.464 1666.870,2196.530 1601.728,2198.353 1312.000 C 2200.887 909.261,2196.718 638.993,2187.834 630.115 C 2182.280 624.566,2177.909 626.174,2143.834 646.303 " fill="#1D1E23" stroke="none" fill-rule="evenodd"/></svg>