<svg viewBox="0 0 2400 2400" fill="none" xmlns="http://www.w3.org/2000/svg"><path d="M200 1652.47C200 1672.6 222.576 1684.48 239.163 1673.08L970.035 1170.6C984.484 1160.67 984.484 1139.33 970.035 1129.4L239.163 626.925C222.576 615.521 200 627.396 200 647.526V1652.47ZM2160.84 1673.08C2177.42 1684.48 2200 1672.6 2200 1652.47V647.526C2200 627.396 2177.42 615.521 2160.84 626.925L1429.97 1129.4C1415.52 1139.33 1415.52 1160.67 1429.97 1170.6L2160.84 1673.08ZM1100 700C1100 644.772 1144.77 600 1200 600 1255.23 600 1300 644.772 1300 700V1700C1300 1755.23 1255.23 1800 1200 1800 1144.77 1800 1100 1755.23 1100 1700V700Z" fill="#1D1E23"/></svg>