<svg viewBox="0 0 2400 2400" fill="none" xmlns="http://www.w3.org/2000/svg"><path d="M584.000 402.649 C 494.362 409.435,386.525 430.719,307.080 457.305 C 256.430 474.254,183.259 504.977,160.607 518.806 C 128.079 538.664,119.565 546.346,111.141 563.447 L 102.000 582.000 100.893 1210.949 C 99.801 1830.910,99.899 1840.120,107.702 1855.415 C 120.559 1880.618,134.961 1894.927,158.834 1906.221 C 194.115 1922.912,216.137 1919.591,289.138 1886.574 C 363.270 1853.046,387.628 1843.921,439.101 1830.393 C 657.401 1773.020,877.359 1803.430,1077.683 1918.680 C 1095.457 1928.906,1128.649 1949.586,1151.442 1964.636 C 1174.235 1979.686,1196.086 1992.000,1200.000 1992.000 C 1203.914 1992.000,1225.765 1979.686,1248.558 1964.636 C 1271.351 1949.586,1304.543 1928.906,1322.317 1918.680 C 1522.641 1803.430,1742.599 1773.020,1960.899 1830.393 C 2012.372 1843.921,2036.730 1853.046,2110.862 1886.574 C 2183.863 1919.591,2205.885 1922.912,2241.166 1906.221 C 2265.039 1894.927,2279.441 1880.618,2292.298 1855.415 C 2300.101 1840.120,2300.199 1830.910,2299.107 1210.949 C 2297.869 507.838,2300.588 567.865,2268.674 539.067 C 2238.765 512.078,2131.764 465.582,2044.567 441.684 C 1942.742 413.777,1894.174 407.304,1769.898 405.073 C 1670.167 403.284,1651.407 403.991,1599.898 411.480 C 1471.655 430.128,1353.956 468.663,1235.553 530.766 L 1201.107 548.834 1139.553 518.614 C 996.039 448.153,863.740 411.662,731.669 406.108 C 634.650 402.028,602.238 401.269,584.000 402.649 M722.000 606.046 C 827.053 611.292,931.843 638.875,1036.352 688.790 L 1094.705 716.660 1097.348 899.330 C 1100.670 1128.956,1100.749 1655.184,1097.466 1682.509 L 1095.002 1703.018 1066.501 1689.884 C 1003.377 1660.794,892.361 1627.892,811.257 1614.239 C 667.099 1589.970,463.301 1605.370,330.299 1650.583 C 315.064 1655.763,302.014 1660.000,301.299 1660.000 C 300.585 1660.000,300.000 1437.033,300.000 1164.519 L 300.000 669.037 331.000 658.020 C 384.260 639.092,423.842 628.273,477.838 617.886 C 566.343 600.862,592.639 599.586,722.000 606.046 M1863.158 608.253 C 1926.261 615.163,1988.053 630.058,2065.149 656.944 L 2100.297 669.201 2099.149 1160.268 C 2098.517 1430.356,2096.729 1652.606,2095.175 1654.159 C 2093.622 1655.712,2075.622 1652.251,2055.175 1646.467 C 1944.326 1615.112,1860.941 1603.135,1752.000 1602.920 C 1607.553 1602.635,1472.411 1630.280,1341.455 1686.903 L 1304.910 1702.704 1302.455 1684.794 C 1299.184 1660.933,1299.315 1110.442,1302.643 891.225 L 1305.286 717.137 1339.005 700.188 C 1441.206 648.817,1529.000 622.102,1646.000 606.771 C 1672.942 603.241,1826.982 604.292,1863.158 608.253 " fill="#1D1E23" stroke="none" fill-rule="evenodd"/></svg>