<svg viewBox="0 0 2400 2400" fill="none" xmlns="http://www.w3.org/2000/svg"><path d="M544.000 408.164 C 429.331 418.446,294.624 455.336,194.000 504.011 C 139.436 530.406,114.517 549.712,107.282 571.197 C 103.410 582.698,102.007 725.831,100.996 1212.861 C 99.719 1828.228,99.839 1840.002,107.511 1855.041 C 118.214 1876.021,146.632 1901.288,169.235 1909.920 C 199.942 1921.647,210.790 1918.794,344.000 1863.948 C 431.116 1828.080,517.977 1809.912,624.000 1805.384 C 797.713 1797.964,945.998 1840.764,1129.572 1951.309 C 1166.737 1973.689,1198.502 1992.000,1200.160 1992.000 C 1201.819 1992.000,1231.712 1974.633,1266.588 1953.407 C 1449.357 1842.171,1600.924 1798.271,1778.000 1805.282 C 1889.676 1809.703,1970.517 1828.208,2085.427 1875.654 C 2167.032 1909.349,2186.946 1915.994,2206.000 1915.890 C 2234.605 1915.734,2276.413 1885.977,2292.955 1854.000 L 2301.232 1838.000 2298.778 1218.000 C 2296.043 527.265,2297.685 565.264,2269.517 540.864 C 2261.176 533.639,2234.473 517.977,2210.176 506.060 C 2103.139 453.561,1993.110 422.263,1878.000 411.574 C 1809.816 405.242,1651.430 405.132,1608.000 411.387 C 1482.320 429.486,1390.106 457.977,1267.683 516.531 L 1201.367 548.250 1157.683 527.697 C 983.513 445.746,885.887 417.928,738.000 408.108 C 670.351 403.616,594.479 403.638,544.000 408.164 M1893.632 614.045 C 1938.885 620.838,1998.345 635.567,2057.000 654.512 L 2100.000 668.401 2099.620 901.200 C 2099.058 1246.141,2094.429 1646.905,2090.967 1650.367 C 2089.299 1652.035,2059.599 1646.779,2024.967 1638.688 C 1894.877 1608.295,1806.652 1600.037,1690.879 1607.417 C 1565.977 1615.379,1490.215 1631.214,1379.097 1672.582 C 1344.500 1685.462,1313.735 1696.000,1310.731 1696.000 C 1300.054 1696.000,1297.416 1457.234,1302.657 965.287 L 1305.306 716.574 1351.653 694.823 C 1457.432 645.179,1541.676 621.027,1660.000 606.422 C 1687.817 602.989,1856.684 608.498,1893.632 614.045 M816.000 617.285 C 897.317 633.532,954.124 652.243,1037.301 690.177 C 1067.848 704.109,1093.381 716.068,1094.042 716.753 C 1097.127 719.953,1100.727 1502.147,1098.077 1593.386 L 1095.074 1696.772 1084.537 1694.880 C 1078.742 1693.839,1055.100 1685.699,1032.000 1676.792 C 920.473 1633.788,829.594 1613.477,720.721 1607.222 C 598.287 1600.187,480.874 1611.348,368.000 1640.751 C 342.700 1647.341,318.227 1653.625,313.616 1654.715 C 305.814 1656.559,305.051 1654.550,302.616 1625.745 C 301.177 1608.721,300.000 1386.331,300.000 1131.544 L 300.000 668.295 349.000 652.651 C 375.950 644.046,423.200 631.474,454.000 624.711 C 484.800 617.949,513.600 611.541,518.000 610.471 C 522.400 609.401,584.500 609.148,656.000 609.908 C 750.683 610.915,794.150 612.919,816.000 617.285 " fill="#1D1E23" stroke="none" fill-rule="evenodd"/></svg>