<svg viewBox="0 0 2400 2400" fill="none" xmlns="http://www.w3.org/2000/svg"><path d="M650 1600C728.333 1600 804.583 1608.75 878.75 1626.25C952.917 1643.75 1026.67 1670 1100 1705V720C1031.67 680 959.167 650 882.5 630C805.833 610 728.333 600 650 600C590 600 530.417 605.833 471.25 617.5C412.083 629.167 355 646.667 300 670V1660C358.333 1640 416.25 1625 473.75 1615C531.25 1605 590 1600 650 1600ZM1300 1705C1373.33 1670 1447.08 1643.75 1521.25 1626.25C1595.42 1608.75 1671.67 1600 1750 1600C1810 1600 1868.75 1605 1926.25 1615C1983.75 1625 2041.67 1640 2100 1660V670C2045 646.667 1987.92 629.167 1928.75 617.5C1869.58 605.833 1810 600 1750 600C1671.67 600 1594.17 610 1517.5 630C1440.83 650 1368.33 680 1300 720V1705ZM1215.64 1987.87C1206.41 1994.89 1193.59 1994.89 1184.36 1987.87C1108.74 1930.35 1027.29 1885.23 940 1852.5C846.667 1817.5 750 1800 650 1800C580 1800 511.25 1809.17 443.75 1827.5C376.25 1845.83 311.667 1871.67 250 1905C215 1923.33 181.25 1922.5 148.75 1902.5C116.25 1882.5 100 1853.33 100 1815V610C100 591.667 104.583 574.167 113.75 557.5C122.917 540.833 136.667 528.333 155 520C231.667 480 311.667 450 395 430C478.333 410 563.333 400 650 400C746.667 400 841.25 412.5 933.75 437.5C1026.25 462.5 1115 500 1200 550C1285 500 1373.75 462.5 1466.25 437.5C1558.75 412.5 1653.33 400 1750 400C1836.67 400 1921.67 410 2005 430C2088.33 450 2168.33 480 2245 520C2263.33 528.333 2277.08 540.833 2286.25 557.5C2295.42 574.167 2300 591.667 2300 610V1815C2300 1853.33 2283.75 1882.5 2251.25 1902.5C2218.75 1922.5 2185 1923.33 2150 1905C2088.33 1871.67 2023.75 1845.83 1956.25 1827.5C1888.75 1809.17 1820 1800 1750 1800C1650 1800 1553.33 1817.5 1460 1852.5C1372.71 1885.23 1291.26 1930.35 1215.64 1987.87Z" fill="#1D1E23"/></svg>