<svg viewBox="0 0 2400 2400" fill="none" xmlns="http://www.w3.org/2000/svg"><path d="M464.000 307.634 C 407.168 312.827,349.836 356.788,319.481 418.448 C 307.693 442.392,306.397 448.971,303.559 499.257 C 299.361 573.640,299.540 1832.012,303.759 1901.226 C 306.852 1951.976,308.187 1958.623,320.231 1983.226 C 337.936 2019.395,380.684 2062.103,416.955 2079.858 C 442.253 2092.243,447.536 2093.252,502.955 2096.288 C 579.921 2100.504,1820.079 2100.504,1897.045 2096.288 C 1952.464 2093.252,1957.747 2092.243,1983.045 2079.858 C 2019.172 2062.173,2062.071 2019.383,2079.622 1983.525 C 2091.386 1959.492,2092.932 1951.928,2096.385 1901.525 C 2098.632 1868.729,2099.741 1561.095,2099.094 1150.000 L 2098.000 454.000 2083.065 422.721 C 2062.058 378.727,2029.502 345.717,1983.878 322.154 L 1948.729 304.000 1219.365 304.629 C 818.214 304.976,478.300 306.328,464.000 307.634 M1900.000 1200.000 L 1900.000 1900.000 1200.000 1900.000 L 500.000 1900.000 500.000 1200.000 L 500.000 500.000 1200.000 500.000 L 1900.000 500.000 1900.000 1200.000 M1110.000 611.342 C 1048.785 627.270,992.872 660.283,944.642 708.976 C 873.276 781.027,863.641 821.358,908.219 861.437 C 922.948 874.680,933.867 880.739,949.173 884.165 C 985.346 892.260,1011.251 880.593,1068.000 830.647 C 1123.058 782.189,1167.450 766.886,1229.070 775.120 C 1285.222 782.623,1324.228 809.191,1346.856 855.345 C 1356.778 875.582,1357.953 882.269,1357.869 918.000 C 1357.735 974.645,1351.111 987.244,1283.634 1059.177 C 1128.181 1224.899,1115.852 1244.198,1114.563 1323.817 C 1114.069 1354.326,1115.156 1360.265,1123.447 1372.368 C 1136.093 1390.830,1158.854 1406.654,1181.459 1412.700 C 1214.152 1421.444,1257.533 1403.881,1275.650 1374.566 C 1280.399 1366.882,1290.476 1343.044,1298.043 1321.594 C 1315.306 1272.657,1328.360 1253.037,1382.588 1194.516 C 1485.932 1082.993,1507.209 1055.086,1527.042 1005.054 C 1537.073 979.749,1537.759 973.991,1537.659 916.000 C 1537.578 869.480,1535.787 847.509,1530.484 828.000 C 1507.905 744.926,1451.842 679.855,1366.874 638.104 C 1317.690 613.936,1287.984 607.977,1206.000 605.834 C 1149.097 604.347,1133.431 605.246,1110.000 611.342 M1161.459 1556.122 C 1126.188 1567.004,1089.350 1605.371,1079.609 1641.371 C 1073.200 1665.056,1077.054 1706.578,1087.574 1727.180 C 1110.300 1771.686,1148.267 1796.252,1195.007 1796.692 C 1247.408 1797.185,1286.066 1775.265,1309.845 1731.575 C 1320.168 1712.609,1321.428 1706.394,1321.487 1674.154 C 1321.542 1644.430,1319.963 1634.947,1312.611 1620.834 C 1300.411 1597.417,1274.987 1572.881,1252.597 1562.918 C 1231.582 1553.567,1181.777 1549.853,1161.459 1556.122 " fill="#1D1E23" stroke="none" fill-rule="evenodd"/></svg>