<svg viewBox="0 0 2400 2400" fill="none" xmlns="http://www.w3.org/2000/svg"><path d="M630.000 303.853 L 446.000 306.000 414.898 321.199 C 372.974 341.687,342.148 372.239,321.857 413.412 C 307.722 442.092,306.123 448.701,303.467 489.412 C 299.672 547.583,299.672 1852.417,303.467 1910.588 C 306.115 1951.178,307.743 1957.942,321.620 1986.020 C 341.843 2026.938,373.089 2058.170,414.060 2078.419 C 442.639 2092.544,448.510 2093.919,491.492 2096.548 C 552.161 2100.260,1847.839 2100.260,1908.508 2096.548 C 1951.490 2093.919,1957.361 2092.544,1985.940 2078.419 C 2026.884 2058.184,2058.159 2026.934,2078.346 1986.089 C 2092.951 1956.536,2093.690 1953.063,2096.932 1898.657 C 2098.789 1867.496,2099.789 1530.600,2099.154 1150.000 L 2098.000 458.000 2088.375 434.000 C 2067.128 381.025,2034.163 345.655,1982.797 320.722 L 1950.000 304.803 1382.000 303.254 C 1069.600 302.402,731.200 302.671,630.000 303.853 M1900.000 1200.000 L 1900.000 1900.000 1200.000 1900.000 L 500.000 1900.000 500.000 1200.000 L 500.000 500.000 1200.000 500.000 L 1900.000 500.000 1900.000 1200.000 M1148.000 604.001 C 1069.927 613.515,1002.275 648.309,942.000 709.949 C 904.884 747.905,883.779 780.898,881.194 805.006 C 875.968 853.743,938.329 899.354,989.306 884.081 C 1010.339 877.780,1032.730 862.316,1071.299 827.455 C 1112.386 790.317,1140.604 776.581,1182.000 773.565 C 1260.398 767.853,1314.226 792.805,1344.075 848.696 C 1355.726 870.510,1357.820 878.766,1359.263 908.558 C 1361.162 947.782,1354.320 975.084,1335.847 1002.000 C 1329.807 1010.800,1289.341 1054.745,1245.923 1099.656 C 1134.377 1215.038,1114.920 1248.290,1114.287 1324.624 C 1114.020 1356.823,1114.842 1360.466,1126.025 1376.624 C 1141.316 1398.720,1173.719 1416.016,1199.717 1415.961 C 1224.107 1415.909,1255.388 1400.877,1271.395 1381.516 C 1279.687 1371.486,1288.414 1352.563,1296.076 1328.000 C 1315.362 1266.169,1322.592 1256.068,1422.355 1151.577 C 1472.940 1098.594,1500.824 1061.989,1518.011 1026.000 C 1536.640 986.993,1541.434 957.658,1539.098 896.955 C 1536.896 839.734,1526.741 801.856,1501.846 758.000 C 1468.352 698.998,1402.134 645.854,1332.672 622.228 C 1285.863 606.308,1199.232 597.757,1148.000 604.001 M1176.215 1552.955 C 1149.035 1556.954,1125.520 1570.501,1104.696 1594.159 C 1085.006 1616.528,1076.000 1641.585,1076.000 1674.000 C 1076.000 1708.211,1085.399 1732.510,1108.344 1757.615 C 1134.750 1786.507,1160.370 1797.738,1200.000 1797.793 C 1249.422 1797.861,1287.900 1774.398,1311.177 1730.000 C 1320.176 1712.836,1321.686 1704.896,1321.831 1674.000 C 1321.984 1641.457,1320.868 1635.957,1310.214 1616.725 C 1283.270 1568.085,1233.705 1544.497,1176.215 1552.955 " fill="#1D1E23" stroke="none" fill-rule="evenodd"/></svg>