<svg viewBox="0 0 2400 2400" fill="none" xmlns="http://www.w3.org/2000/svg"><path d="M604.000 307.874 L 438.000 310.000 408.990 325.501 C 373.153 344.649,337.817 381.203,319.837 417.725 C 307.603 442.575,306.747 447.297,303.644 506.982 C 299.338 589.807,299.478 1793.584,303.803 1884.000 C 307.592 1963.210,310.402 1972.975,341.493 2015.005 C 361.303 2041.783,398.738 2072.044,428.000 2084.931 C 442.565 2091.346,460.120 2093.506,520.000 2096.248 C 614.878 2100.594,1782.071 2100.694,1880.092 2096.365 C 1947.942 2093.369,1956.030 2092.215,1976.092 2082.672 C 2008.566 2067.223,2044.247 2036.272,2065.214 2005.364 C 2100.466 1953.396,2097.486 2024.918,2099.036 1193.871 L 2100.409 457.743 2084.321 425.871 C 2058.174 374.070,2026.733 343.685,1969.133 314.554 L 1948.266 304.000 1359.133 304.874 C 1035.110 305.355,695.300 306.705,604.000 307.874 M1900.000 1200.000 L 1900.000 1900.000 1200.000 1900.000 L 500.000 1900.000 500.000 1200.000 L 500.000 500.000 1200.000 500.000 L 1900.000 500.000 1900.000 1200.000 M1127.361 608.164 C 1095.052 613.099,1046.894 632.752,1011.687 655.371 C 954.539 692.085,895.149 756.761,883.940 794.487 C 875.365 823.346,891.519 854.190,925.422 873.694 C 969.596 899.107,997.695 889.650,1080.000 821.668 C 1127.452 782.474,1176.761 767.500,1230.265 776.037 C 1285.931 784.918,1322.856 810.328,1345.750 855.506 C 1354.694 873.158,1356.000 880.770,1356.000 915.270 C 1356.000 978.623,1353.422 983.162,1260.153 1084.000 C 1140.668 1213.181,1121.016 1242.848,1116.544 1300.791 C 1112.814 1349.129,1115.954 1365.420,1132.277 1382.415 C 1159.705 1410.969,1190.896 1420.377,1225.138 1410.423 C 1259.277 1400.498,1274.692 1382.661,1295.064 1329.509 C 1316.831 1272.721,1332.033 1249.839,1390.428 1185.968 C 1488.845 1078.323,1508.547 1052.165,1526.890 1004.786 C 1536.568 979.790,1537.240 973.723,1536.950 914.000 C 1536.599 841.798,1531.224 817.147,1504.679 766.000 C 1467.269 693.916,1367.532 623.951,1285.667 612.364 C 1245.024 606.611,1153.436 604.182,1127.361 608.164 M1166.000 1555.561 C 1132.423 1564.238,1093.357 1601.807,1081.833 1636.502 C 1067.950 1678.301,1080.444 1728.674,1112.680 1760.869 C 1136.431 1784.590,1156.045 1793.050,1192.000 1795.085 C 1245.140 1798.092,1289.158 1773.186,1311.210 1727.633 C 1323.276 1702.708,1323.843 1643.214,1312.231 1620.453 C 1301.514 1599.447,1262.906 1565.055,1244.782 1560.370 C 1222.716 1554.667,1179.635 1552.037,1166.000 1555.561 " fill="#1D1E23" stroke="none" fill-rule="evenodd"/></svg>