<svg viewBox="0 0 2400 2400" fill="none" xmlns="http://www.w3.org/2000/svg"><path d="M468.000 302.648 C 447.298 306.004,409.264 321.531,389.052 334.877 C 347.077 362.593,314.625 410.264,304.420 459.197 C 298.170 489.170,298.170 1910.830,304.420 1940.803 C 320.053 2015.765,384.235 2079.947,459.197 2095.580 C 489.170 2101.830,1910.830 2101.830,1940.803 2095.580 C 2015.765 2079.947,2079.947 2015.765,2095.580 1940.803 C 2101.830 1910.830,2101.830 489.170,2095.580 459.197 C 2081.788 393.062,2034.082 338.710,1966.000 311.568 L 1942.000 302.000 1210.000 301.513 C 807.400 301.246,473.500 301.756,468.000 302.648 M1900.000 1200.000 L 1900.000 1900.000 1200.000 1900.000 L 500.000 1900.000 500.000 1200.000 L 500.000 500.000 1200.000 500.000 L 1900.000 500.000 1900.000 1200.000 M1142.000 604.150 C 1070.080 615.380,1006.856 646.283,954.518 695.789 C 910.293 737.622,880.176 783.890,880.176 810.000 C 880.176 839.468,908.150 873.985,939.689 883.434 C 980.659 895.709,1011.720 883.410,1063.611 834.368 C 1119.741 781.318,1148.620 769.612,1215.430 772.829 C 1246.130 774.307,1259.256 776.904,1276.931 784.996 C 1354.289 820.412,1383.764 907.792,1345.408 988.000 C 1337.178 1005.210,1317.221 1027.507,1253.750 1090.406 C 1141.881 1201.269,1117.829 1240.217,1113.050 1318.253 C 1111.392 1345.328,1112.375 1353.034,1119.171 1366.253 C 1147.499 1421.351,1218.811 1433.491,1263.351 1390.797 C 1280.887 1373.987,1290.298 1355.063,1298.033 1321.053 C 1308.024 1277.129,1327.075 1249.560,1395.327 1180.265 C 1514.877 1058.886,1541.940 1009.121,1541.215 912.000 C 1540.801 856.440,1531.632 817.448,1507.353 768.000 C 1493.785 740.368,1483.854 727.222,1454.329 697.813 C 1410.573 654.227,1366.082 629.157,1304.840 613.577 C 1260.843 602.385,1182.394 597.843,1142.000 604.150 M1173.375 1552.000 C 1086.954 1569.959,1046.581 1670.136,1095.811 1744.460 C 1138.542 1808.973,1232.719 1818.340,1287.529 1763.529 C 1310.746 1740.313,1321.537 1715.533,1323.336 1681.302 C 1325.376 1642.474,1316.844 1617.945,1291.744 1590.481 C 1261.856 1557.779,1216.508 1543.037,1173.375 1552.000 " fill="#1D1E23" stroke="none" fill-rule="evenodd"/></svg>