<svg viewBox="0 0 2400 2400" fill="none" xmlns="http://www.w3.org/2000/svg"><path d="M1410.000 707.849 C 1371.687 709.675,1354.518 712.184,1344.772 717.384 C 1319.811 730.701,1296.295 780.995,1301.659 809.589 C 1305.423 829.652,1327.091 859.480,1348.527 874.105 C 1370.283 888.949,1393.599 891.960,1487.604 892.065 C 1574.054 892.162,1739.839 899.191,1770.896 904.077 C 1822.560 912.203,1876.762 944.607,1926.796 997.280 C 1960.691 1032.963,1979.865 1069.652,2001.939 1141.067 C 2013.077 1177.102,2018.766 1189.628,2026.211 1194.506 C 2034.446 1199.902,2047.270 1200.654,2109.882 1199.414 C 2179.980 1198.026,2184.290 1197.487,2192.726 1189.052 C 2201.360 1180.418,2201.481 1179.156,2196.783 1146.665 C 2184.753 1063.461,2146.881 967.601,2103.452 910.430 C 2075.182 873.214,2020.170 819.164,1986.000 795.033 C 1950.756 770.143,1897.226 743.015,1848.055 725.125 L 1810.000 711.279 1670.000 707.828 C 1518.243 704.087,1488.918 704.089,1410.000 707.849 M606.000 712.146 C 557.681 717.426,480.591 749.862,418.682 790.960 C 379.453 817.002,314.518 882.756,286.848 924.457 C 260.260 964.528,238.014 1011.054,218.132 1068.174 L 204.000 1108.774 204.000 1200.000 L 204.000 1291.226 218.317 1332.613 C 249.920 1423.972,283.945 1482.513,339.169 1540.545 C 404.558 1609.258,465.228 1645.836,574.000 1682.124 L 630.000 1700.807 824.000 1698.598 C 930.700 1697.384,1025.200 1694.618,1034.000 1692.452 C 1068.115 1684.056,1104.459 1627.535,1098.103 1592.762 C 1094.358 1572.277,1078.446 1546.273,1061.962 1533.700 C 1043.980 1519.984,1020.801 1517.454,882.000 1514.059 C 695.578 1509.498,646.490 1505.865,610.060 1493.930 C 566.879 1479.784,537.449 1463.480,505.981 1436.270 C 432.796 1372.988,396.000 1294.339,396.000 1201.192 C 396.000 1105.601,418.644 1053.572,492.308 979.908 C 523.349 948.867,533.711 941.353,569.739 923.756 L 611.332 903.440 692.666 899.681 C 737.400 897.613,830.700 894.462,900.000 892.677 C 991.478 890.321,1028.740 887.981,1036.000 884.137 C 1072.549 864.786,1097.722 827.933,1097.569 794.000 C 1097.453 768.282,1085.825 745.808,1061.604 724.487 L 1042.874 708.000 838.437 708.543 C 725.997 708.842,621.400 710.463,606.000 712.146 M869.047 1111.763 C 835.694 1117.197,804.087 1155.738,802.829 1192.506 C 801.297 1237.297,830.003 1280.849,868.013 1291.401 C 881.876 1295.250,959.826 1296.121,1208.000 1295.198 C 1569.722 1293.852,1546.623 1295.860,1572.819 1263.481 C 1591.235 1240.718,1597.516 1220.463,1594.946 1192.127 C 1592.220 1162.055,1580.137 1139.526,1557.445 1122.198 L 1538.850 1108.000 1212.425 1108.501 C 1032.891 1108.776,878.371 1110.244,869.047 1111.763 M1766.510 1209.629 C 1743.696 1218.120,1723.356 1236.290,1712.018 1258.307 C 1702.148 1277.475,1701.980 1279.398,1700.670 1388.881 L 1699.341 1500.000 1646.670 1500.125 C 1617.702 1500.194,1565.336 1501.930,1530.302 1503.981 C 1470.858 1507.463,1465.407 1508.457,1448.691 1518.856 C 1438.839 1524.985,1425.204 1536.918,1418.389 1545.374 C 1406.503 1560.123,1406.010 1562.235,1406.239 1597.374 C 1406.511 1639.127,1411.174 1651.422,1434.505 1671.907 C 1461.939 1695.995,1467.418 1696.962,1588.587 1699.114 L 1699.174 1701.078 1701.065 1809.539 C 1702.272 1878.701,1704.739 1923.797,1707.875 1934.000 C 1713.358 1951.836,1747.350 1986.462,1764.000 1991.172 C 1769.500 1992.727,1787.773 1993.917,1804.607 1993.816 C 1831.662 1993.653,1837.146 1992.294,1851.853 1982.102 C 1873.773 1966.911,1886.695 1951.110,1892.110 1932.876 C 1894.555 1924.640,1897.554 1869.601,1898.828 1809.565 L 1901.130 1701.130 2009.565 1698.828 C 2069.601 1697.554,2124.640 1694.555,2132.876 1692.110 C 2151.173 1686.677,2166.917 1673.764,2182.286 1651.587 C 2193.054 1636.049,2194.000 1631.863,2194.000 1599.736 C 2194.000 1566.967,2193.220 1563.702,2181.496 1547.394 C 2174.619 1537.827,2161.021 1525.009,2151.279 1518.908 C 2134.429 1508.357,2130.067 1507.631,2061.783 1504.004 C 2022.302 1501.907,1970.013 1500.148,1945.585 1500.095 L 1901.169 1500.000 1898.864 1395.000 C 1896.381 1281.865,1892.496 1255.616,1875.543 1237.440 C 1851.382 1211.535,1797.985 1197.915,1766.510 1209.629 " fill="#1D1E23" stroke="none" fill-rule="evenodd"/></svg>