<svg viewBox="0 0 2400 2400" fill="none" xmlns="http://www.w3.org/2000/svg"><path d="M632.000 706.633 C 532.819 717.449,421.053 773.661,345.073 850.941 C 287.617 909.380,246.607 979.059,219.150 1064.893 L 206.000 1106.000 206.000 1200.000 L 206.000 1294.000 219.372 1336.000 C 259.969 1463.512,332.011 1557.577,441.192 1625.626 C 477.155 1648.041,520.701 1666.222,586.000 1686.085 L 634.000 1700.686 828.000 1698.758 C 964.574 1697.401,1027.066 1695.371,1039.114 1691.900 C 1068.810 1683.344,1100.000 1638.209,1100.000 1603.790 C 1100.000 1574.035,1076.953 1536.968,1050.679 1524.467 C 1035.247 1517.125,1020.098 1516.211,848.000 1512.238 C 745.700 1509.877,657.500 1506.946,652.000 1505.726 C 598.888 1493.943,568.571 1481.935,532.000 1458.197 C 436.134 1395.970,382.194 1281.100,395.027 1166.497 C 403.803 1088.127,426.836 1042.322,488.754 980.109 C 519.797 948.918,530.333 941.203,565.373 924.008 C 591.556 911.160,615.244 902.608,632.000 899.953 C 646.300 897.688,739.900 894.721,840.000 893.359 C 1019.786 890.912,1022.225 890.770,1040.493 881.630 C 1079.566 862.083,1104.472 818.308,1098.072 780.428 C 1094.349 758.388,1075.554 730.466,1055.512 717.198 L 1038.596 706.000 842.298 705.553 C 734.334 705.307,639.700 705.793,632.000 706.633 M1360.120 708.301 C 1317.982 725.754,1291.164 778.437,1304.025 818.500 C 1312.068 843.553,1331.888 866.925,1354.781 878.352 L 1375.563 888.725 1552.781 892.355 C 1650.252 894.352,1744.400 897.807,1762.000 900.033 C 1839.584 909.848,1931.205 977.744,1971.135 1055.013 C 1987.121 1085.948,1994.411 1106.980,2006.116 1155.945 C 2017.384 1203.077,2011.919 1200.657,2103.834 1199.231 C 2176.582 1198.102,2183.917 1197.335,2192.041 1190.000 C 2199.864 1182.938,2200.625 1179.334,2198.540 1159.260 C 2189.764 1074.798,2155.759 982.291,2109.349 916.624 C 2083.556 880.129,2032.149 827.480,1995.658 800.185 C 1945.736 762.843,1885.134 733.897,1818.000 715.328 C 1787.153 706.795,1778.507 706.435,1578.000 705.343 C 1442.704 704.605,1366.546 705.640,1360.120 708.301 M868.679 1107.970 C 841.954 1114.292,811.991 1146.322,803.579 1177.563 C 794.604 1210.894,812.263 1260.066,840.012 1279.009 C 867.913 1298.055,867.210 1298.018,1196.000 1297.699 C 1366.500 1297.533,1514.782 1296.038,1525.516 1294.376 C 1540.902 1291.994,1549.082 1287.567,1564.164 1273.460 C 1589.530 1249.732,1597.176 1232.718,1597.176 1200.000 C 1597.176 1166.984,1589.164 1149.384,1563.715 1126.503 C 1548.789 1113.083,1540.148 1108.559,1525.645 1106.572 C 1498.755 1102.886,884.646 1104.193,868.679 1107.970 M1778.183 1204.571 C 1743.145 1212.642,1711.142 1242.823,1703.720 1274.795 C 1701.779 1283.158,1700.148 1336.978,1700.095 1394.395 L 1700.000 1498.789 1586.591 1500.986 C 1460.938 1503.421,1459.975 1503.609,1430.670 1531.441 C 1422.239 1539.448,1412.647 1551.135,1409.355 1557.412 C 1401.275 1572.816,1401.289 1627.155,1409.377 1642.795 C 1416.874 1657.293,1448.407 1686.690,1463.031 1692.816 C 1470.040 1695.753,1514.647 1698.025,1586.595 1699.111 L 1699.190 1700.810 1700.796 1813.405 C 1702.085 1903.675,1703.630 1928.776,1708.590 1940.000 C 1716.118 1957.035,1743.671 1982.599,1763.376 1990.833 C 1784.178 1999.524,1823.589 1998.434,1842.568 1988.641 C 1863.202 1977.994,1887.086 1952.735,1892.560 1935.772 C 1895.150 1927.744,1897.815 1875.893,1898.949 1811.447 L 1900.893 1700.893 2011.447 1698.949 C 2075.893 1697.815,2127.744 1695.150,2135.772 1692.560 C 2152.767 1687.076,2178.000 1663.191,2188.692 1642.468 C 2194.379 1631.444,2196.706 1619.116,2196.706 1600.000 C 2196.706 1580.884,2194.379 1568.556,2188.692 1557.532 C 2177.857 1536.533,2152.572 1512.779,2135.772 1507.817 C 2128.197 1505.580,2072.250 1502.625,2011.444 1501.251 L 1900.889 1498.752 1898.946 1388.376 C 1897.817 1324.196,1895.147 1272.249,1892.569 1264.259 C 1879.868 1224.909,1821.687 1194.550,1778.183 1204.571 " fill="#1D1E23" stroke="none" fill-rule="evenodd"/></svg>