<svg viewBox="0 0 2400 2400" fill="none" xmlns="http://www.w3.org/2000/svg"><path d="M634.000 704.581 C 588.581 710.370,532.812 726.997,489.628 747.625 C 340.667 818.778,239.486 948.760,207.546 1110.000 C 200.249 1146.837,200.249 1253.163,207.546 1290.000 C 246.750 1487.910,388.990 1636.786,586.904 1687.054 L 630.000 1698.000 832.000 1698.000 C 1055.449 1698.000,1044.144 1699.241,1071.692 1671.692 C 1115.680 1627.705,1106.658 1556.691,1052.831 1523.222 C 1038.040 1514.025,1037.485 1513.994,848.000 1511.648 C 669.163 1509.435,656.120 1508.783,626.000 1500.557 C 482.894 1461.472,392.139 1344.834,392.139 1200.000 C 392.139 1112.742,420.761 1043.388,482.074 982.074 C 515.701 948.448,543.451 929.755,584.141 913.319 C 633.080 893.552,649.554 892.144,832.803 892.069 C 940.903 892.025,1011.084 890.396,1023.975 887.632 C 1051.641 881.698,1075.466 862.864,1089.321 835.973 C 1099.048 817.093,1100.389 810.596,1098.847 789.819 C 1096.748 761.538,1089.433 745.662,1069.645 726.444 C 1042.791 700.364,1039.061 699.942,840.287 700.506 C 742.229 700.784,649.400 702.618,634.000 704.581 M1361.412 706.512 C 1342.750 713.127,1319.238 734.135,1309.568 752.835 C 1306.024 759.689,1302.206 775.421,1301.084 787.795 C 1297.480 827.535,1320.988 865.906,1359.709 883.491 C 1372.028 889.085,1400.768 890.284,1568.000 892.177 C 1756.659 894.313,1762.771 894.627,1790.000 903.582 C 1907.072 942.080,1991.590 1041.284,2006.073 1157.198 C 2007.685 1170.102,2012.353 1184.455,2016.758 1190.055 L 2024.581 1200.000 2104.290 1200.000 C 2180.142 1200.000,2184.410 1199.590,2192.470 1191.530 C 2200.127 1183.873,2200.674 1180.318,2198.167 1154.530 C 2187.235 1042.102,2140.646 939.698,2063.218 857.900 C 1983.203 773.369,1874.369 718.167,1760.105 704.156 C 1740.987 701.812,1650.306 700.138,1552.105 700.316 C 1409.712 700.574,1374.979 701.703,1361.412 706.512 M866.363 1106.293 C 843.583 1114.639,825.689 1129.702,813.089 1151.136 C 803.633 1167.222,802.000 1174.417,802.000 1200.000 C 802.000 1225.583,803.633 1232.778,813.089 1248.864 C 819.188 1259.240,830.112 1272.255,837.364 1277.786 C 867.250 1300.581,857.772 1300.000,1199.790 1300.000 C 1554.463 1300.000,1538.959 1301.252,1570.105 1270.105 C 1609.232 1230.979,1609.232 1169.021,1570.105 1129.895 C 1538.916 1098.705,1554.722 1099.964,1198.287 1100.282 C 934.244 1100.517,879.417 1101.510,866.363 1106.293 M1766.363 1206.293 C 1743.583 1214.639,1725.689 1229.702,1713.089 1251.136 L 1702.000 1270.000 1700.775 1385.000 L 1699.549 1500.000 1592.278 1500.000 C 1476.406 1500.000,1464.192 1501.751,1437.364 1522.214 C 1430.112 1527.745,1419.188 1540.760,1413.089 1551.136 C 1403.633 1567.222,1402.000 1574.417,1402.000 1600.000 C 1402.000 1625.583,1403.633 1632.778,1413.089 1648.864 C 1419.188 1659.240,1430.112 1672.255,1437.364 1677.786 C 1464.200 1698.255,1476.387 1700.000,1592.503 1700.000 L 1700.000 1700.000 1700.022 1807.000 C 1700.035 1868.365,1701.809 1920.354,1704.182 1928.899 C 1710.297 1950.915,1731.501 1976.239,1753.149 1987.380 C 1793.162 2007.971,1838.975 2001.235,1870.014 1970.196 C 1897.895 1942.316,1900.000 1930.879,1900.000 1807.287 L 1900.000 1700.000 2007.287 1700.000 C 2130.796 1700.000,2142.328 1697.883,2170.105 1670.105 C 2209.232 1630.979,2209.232 1569.021,2170.105 1529.895 C 2142.328 1502.117,2130.796 1500.000,2007.287 1500.000 L 1900.000 1500.000 1900.000 1392.713 C 1900.000 1269.204,1897.883 1257.672,1870.105 1229.895 C 1842.868 1202.658,1801.791 1193.312,1766.363 1206.293 " fill="#1D1E23" stroke="none" fill-rule="evenodd"/></svg>