<svg viewBox="0 0 2400 2400" fill="none" xmlns="http://www.w3.org/2000/svg"><path d="M676.000 708.170 C 594.914 710.436,593.524 710.623,551.314 725.014 C 473.838 751.429,412.923 787.829,357.365 840.911 C 294.004 901.447,252.420 968.379,220.349 1061.445 L 204.000 1108.889 204.000 1200.000 L 204.000 1291.111 220.350 1338.555 C 251.688 1429.493,289.344 1492.575,346.165 1549.323 C 409.940 1613.015,469.207 1647.867,569.373 1680.578 L 628.847 1700.000 763.423 1699.708 C 837.441 1699.547,929.895 1698.127,968.878 1696.551 C 1039.150 1693.712,1039.902 1693.584,1056.840 1681.680 C 1077.526 1667.142,1100.045 1626.868,1099.912 1604.651 C 1099.746 1577.006,1076.404 1538.741,1052.000 1526.110 C 1036.779 1518.231,1008.227 1516.425,824.331 1511.706 C 662.600 1507.557,653.065 1506.890,620.528 1497.461 C 563.711 1480.996,527.169 1459.485,485.813 1418.160 C 456.774 1389.144,445.987 1374.888,431.207 1346.000 C 399.016 1283.078,388.458 1227.790,396.306 1163.243 C 405.749 1085.575,425.779 1046.358,488.000 983.714 C 524.037 947.432,534.827 939.121,564.000 925.170 C 582.700 916.228,605.200 906.834,614.000 904.295 C 628.058 900.238,742.842 895.902,968.264 890.912 C 1023.178 889.697,1027.588 889.001,1044.970 878.815 C 1083.244 856.385,1105.861 811.710,1096.555 776.917 C 1090.405 753.922,1074.552 730.796,1056.683 718.753 L 1042.000 708.857 900.000 707.368 C 821.900 706.550,721.100 706.911,676.000 708.170 M1389.992 707.702 C 1361.798 709.501,1351.316 711.904,1341.693 718.773 C 1323.334 731.878,1308.438 755.899,1303.208 780.834 C 1299.180 800.035,1299.527 805.607,1305.766 821.943 C 1314.725 845.402,1331.783 865.191,1354.542 878.529 L 1371.987 888.753 1536.994 892.451 C 1726.746 896.703,1772.835 899.963,1805.409 911.437 C 1862.479 931.538,1931.432 988.664,1963.106 1042.083 C 1978.342 1067.779,1994.249 1110.845,2010.043 1169.159 C 2015.098 1187.820,2018.422 1193.133,2027.158 1196.514 C 2033.807 1199.087,2066.074 1200.178,2110.601 1199.336 C 2176.417 1198.091,2184.027 1197.217,2192.041 1189.981 C 2200.044 1182.756,2200.635 1179.538,2198.282 1156.000 C 2195.138 1124.553,2179.918 1062.589,2166.745 1027.606 C 2139.616 955.560,2107.187 906.334,2048.357 847.903 C 1988.844 788.794,1929.815 752.911,1843.353 723.285 L 1806.000 710.487 1694.000 707.626 C 1565.430 704.342,1442.151 704.373,1389.992 707.702 M926.000 1107.671 C 867.702 1109.792,860.629 1110.852,846.618 1119.563 C 813.165 1140.359,795.991 1179.421,803.788 1216.981 C 812.022 1256.640,836.622 1283.821,872.804 1293.237 C 884.872 1296.378,984.273 1297.550,1206.141 1297.168 C 1562.982 1296.553,1542.711 1298.324,1571.866 1265.202 C 1591.989 1242.342,1597.237 1225.913,1595.310 1191.807 C 1593.489 1159.585,1581.050 1138.149,1552.548 1118.112 L 1535.319 1106.000 1262.659 1105.671 C 1112.697 1105.490,961.200 1106.390,926.000 1107.671 M1755.436 1213.822 C 1729.656 1227.554,1709.446 1252.351,1704.236 1276.641 C 1701.883 1287.614,1700.000 1341.644,1700.000 1398.197 L 1700.000 1500.000 1639.000 1500.218 C 1605.450 1500.338,1552.165 1501.927,1520.589 1503.749 C 1466.420 1506.875,1462.262 1507.710,1446.969 1518.531 C 1438.055 1524.839,1425.190 1536.917,1418.381 1545.371 C 1406.456 1560.177,1406.000 1562.164,1406.000 1599.371 C 1406.000 1643.413,1409.915 1651.923,1442.437 1678.572 C 1459.537 1692.585,1462.508 1693.521,1499.241 1696.485 C 1520.558 1698.204,1574.450 1699.699,1619.000 1699.806 L 1700.000 1700.000 1700.216 1789.000 C 1700.505 1908.204,1703.605 1936.309,1718.492 1954.657 C 1724.821 1962.459,1737.827 1974.502,1747.394 1981.421 C 1763.764 1993.260,1766.862 1994.000,1800.049 1994.000 C 1832.792 1994.000,1836.522 1993.143,1852.275 1982.000 C 1861.605 1975.400,1874.591 1963.353,1881.134 1955.229 C 1892.128 1941.576,1893.275 1937.033,1896.283 1895.229 C 1898.074 1870.353,1899.642 1816.250,1899.769 1775.000 L 1900.000 1700.000 1975.000 1699.769 C 2016.250 1699.642,2070.353 1698.074,2095.229 1696.283 C 2137.033 1693.275,2141.576 1692.128,2155.229 1681.134 C 2163.353 1674.591,2175.400 1661.605,2182.000 1652.275 C 2193.146 1636.518,2194.000 1632.798,2194.000 1600.000 C 2194.000 1567.154,2193.154 1563.486,2181.888 1547.456 C 2175.227 1537.978,2162.401 1525.040,2153.387 1518.705 C 2137.518 1507.551,2134.856 1507.078,2069.499 1503.784 C 2032.375 1501.913,1979.330 1500.297,1951.623 1500.191 L 1901.246 1500.000 1898.920 1388.249 C 1896.028 1249.281,1893.380 1240.946,1844.000 1215.445 C 1817.119 1201.563,1779.737 1200.878,1755.436 1213.822 " fill="#1D1E23" stroke="none" fill-rule="evenodd"/></svg>