<svg viewBox="0 0 2400 2400" fill="none" xmlns="http://www.w3.org/2000/svg"><path d="M670.000 704.040 C 629.492 706.150,599.604 709.984,578.000 715.842 C 393.223 765.939,259.151 903.028,211.992 1090.086 C 204.189 1121.040,202.948 1136.220,203.009 1200.000 C 203.060 1253.985,204.811 1281.132,209.481 1300.370 C 242.400 1435.975,316.081 1543.816,425.124 1615.990 C 469.833 1645.582,520.628 1667.827,585.663 1686.293 L 637.064 1700.889 833.532 1699.188 C 1054.865 1697.272,1046.661 1698.382,1074.647 1666.588 C 1102.907 1634.483,1107.114 1593.667,1085.895 1557.459 C 1075.911 1540.424,1057.413 1523.900,1042.000 1518.251 C 1037.600 1516.638,949.400 1513.787,846.000 1511.917 C 675.852 1508.838,655.008 1507.734,626.487 1500.290 C 449.913 1454.202,352.868 1276.638,407.715 1100.000 C 420.578 1058.575,442.408 1025.611,486.000 981.788 C 519.438 948.173,531.577 938.846,560.000 924.935 C 620.599 895.275,619.383 895.419,834.000 892.479 L 1026.000 889.849 1047.597 877.964 C 1104.338 846.738,1116.265 777.599,1072.907 731.246 C 1062.763 720.400,1048.712 710.106,1040.499 707.502 C 1022.805 701.890,758.645 699.423,670.000 704.040 M1385.335 703.553 C 1355.520 706.581,1351.859 708.346,1326.879 731.714 C 1311.610 745.998,1300.000 773.772,1300.000 796.013 C 1300.000 827.918,1324.411 865.676,1354.434 880.210 C 1372.412 888.913,1377.781 889.222,1567.059 892.466 C 1780.690 896.126,1780.702 896.128,1834.000 922.713 C 1924.957 968.082,1987.764 1050.826,2003.758 1146.358 C 2006.370 1161.955,2011.966 1180.405,2016.194 1187.358 L 2023.882 1200.000 2101.718 1200.000 C 2177.768 1200.000,2179.806 1199.783,2190.540 1190.550 L 2201.527 1181.100 2196.374 1141.712 C 2171.131 948.775,2038.600 787.129,1856.000 726.564 C 1789.606 704.543,1778.921 703.558,1590.000 702.048 C 1493.200 701.275,1401.101 701.952,1385.335 703.553 M904.000 1103.556 C 872.516 1105.581,862.816 1107.872,847.434 1116.915 C 799.826 1144.901,786.330 1210.300,818.564 1256.814 C 836.020 1282.003,854.599 1292.186,891.161 1296.606 C 940.177 1302.532,1518.030 1298.884,1537.255 1292.527 C 1554.968 1286.670,1579.914 1262.489,1590.437 1240.975 C 1600.308 1220.793,1600.308 1179.207,1590.437 1159.025 C 1579.871 1137.423,1554.916 1113.292,1537.255 1107.600 C 1525.861 1103.928,1448.595 1102.484,1232.000 1101.897 C 1072.500 1101.465,924.900 1102.212,904.000 1103.556 M1777.328 1203.647 C 1758.635 1208.380,1731.185 1225.607,1721.620 1238.609 C 1699.952 1268.061,1700.000 1267.731,1700.000 1387.391 L 1700.000 1499.180 1587.000 1500.619 C 1478.385 1502.002,1473.266 1502.418,1455.087 1511.344 C 1437.069 1520.190,1419.527 1538.221,1407.750 1560.000 C 1404.576 1565.869,1402.343 1582.393,1402.343 1600.000 C 1402.343 1617.607,1404.576 1634.131,1407.750 1640.000 C 1419.518 1661.763,1437.065 1679.809,1455.087 1688.685 C 1473.303 1697.657,1478.152 1698.049,1586.682 1699.322 L 1699.364 1700.645 1700.682 1815.322 C 1702.148 1942.858,1701.814 1941.153,1730.670 1968.559 C 1754.277 1990.980,1770.308 1997.728,1800.000 1997.746 C 1830.148 1997.764,1848.212 1990.371,1870.197 1969.021 C 1896.868 1943.118,1897.669 1938.824,1899.237 1813.322 L 1900.645 1700.645 2013.322 1699.237 C 2138.824 1697.669,2143.118 1696.868,2169.021 1670.197 C 2190.359 1648.225,2197.761 1630.146,2197.761 1600.000 C 2197.761 1569.854,2190.359 1551.775,2169.021 1529.803 C 2143.437 1503.461,2138.737 1502.585,2013.322 1500.795 L 1900.643 1499.188 1899.236 1386.594 C 1897.687 1262.614,1896.764 1257.379,1872.109 1232.725 C 1847.300 1207.915,1808.041 1195.871,1777.328 1203.647 " fill="#1D1E23" stroke="none" fill-rule="evenodd"/></svg>