<svg viewBox="0 0 2400 2400" fill="none" xmlns="http://www.w3.org/2000/svg"><path d="M669.818 303.510 C 479.310 305.833,464.844 306.503,453.818 313.518 C 422.874 333.202,406.805 356.563,401.953 388.918 C 395.477 432.105,426.701 481.759,466.990 492.341 C 491.093 498.671,1321.845 501.774,1690.000 496.908 C 1971.067 493.194,1952.301 495.655,1977.250 459.232 C 2005.067 418.622,2005.705 384.724,1979.432 343.322 C 1963.943 318.914,1953.919 312.839,1921.148 308.003 C 1888.451 303.177,968.078 299.872,669.818 303.510 M669.818 703.510 C 479.310 705.833,464.844 706.503,453.818 713.518 C 422.874 733.202,406.805 756.563,401.953 788.918 C 395.477 832.105,426.701 881.759,466.990 892.341 C 491.093 898.671,1321.845 901.774,1690.000 896.908 C 1971.067 893.194,1952.301 895.655,1977.250 859.232 C 2005.067 818.622,2005.705 784.724,1979.432 743.322 C 1963.943 718.914,1953.919 712.839,1921.148 708.003 C 1888.451 703.177,968.078 699.872,669.818 703.510 M669.818 1103.509 C 479.311 1105.833,464.844 1106.504,453.818 1113.518 C 422.874 1133.202,406.805 1156.563,401.953 1188.918 C 395.477 1232.105,426.701 1281.759,466.990 1292.341 C 491.093 1298.671,1321.845 1301.774,1690.000 1296.908 C 1971.067 1293.194,1952.301 1295.655,1977.250 1259.232 C 2005.067 1218.622,2005.705 1184.724,1979.432 1143.322 C 1963.941 1118.911,1953.916 1112.837,1921.148 1108.011 C 1888.423 1103.192,967.446 1099.878,669.818 1103.509 M531.815 1503.663 C 460.909 1506.180,456.917 1507.279,430.634 1531.518 C 400.006 1559.763,392.901 1608.612,413.835 1647.017 C 426.754 1670.720,442.996 1684.774,466.195 1692.322 C 487.225 1699.164,1006.406 1702.844,1028.423 1696.307 C 1036.355 1693.952,1051.281 1684.600,1061.590 1675.525 C 1108.869 1633.908,1111.607 1578.058,1068.642 1531.638 C 1050.774 1512.333,1048.838 1511.354,1022.000 1508.048 C 987.136 1503.753,621.442 1500.482,531.815 1503.663 M1834.000 1546.934 C 1814.302 1549.775,1784.087 1576.111,1660.061 1698.547 L 1542.000 1815.094 1504.341 1779.329 C 1460.031 1737.248,1440.029 1724.574,1412.851 1721.355 C 1379.844 1717.446,1353.496 1726.123,1331.460 1748.159 C 1297.069 1782.550,1291.600 1835.006,1318.590 1871.606 C 1324.427 1879.523,1364.271 1920.605,1407.131 1962.900 C 1496.262 2050.854,1507.180 2058.124,1545.519 2055.047 C 1559.182 2053.950,1576.425 2049.917,1583.836 2046.085 C 1607.914 2033.633,1905.109 1740.451,1944.509 1690.281 C 1957.155 1674.177,1959.737 1634.940,1949.854 1609.061 C 1940.999 1585.874,1915.439 1557.650,1898.679 1552.552 C 1882.350 1547.585,1849.361 1544.719,1834.000 1546.934 M531.815 1903.663 C 460.909 1906.180,456.917 1907.279,430.634 1931.518 C 400.006 1959.763,392.901 2008.612,413.835 2047.017 C 426.754 2070.720,442.996 2084.774,466.195 2092.322 C 487.225 2099.164,1006.406 2102.844,1028.423 2096.307 C 1036.355 2093.952,1051.281 2084.600,1061.590 2075.525 C 1108.869 2033.908,1111.607 1978.058,1068.642 1931.638 C 1050.774 1912.333,1048.838 1911.354,1022.000 1908.048 C 987.136 1903.753,621.442 1900.482,531.815 1903.663 " fill="#1D1E23" stroke="none" fill-rule="evenodd"/></svg>