<svg viewBox="0 0 2400 2400" fill="none" xmlns="http://www.w3.org/2000/svg"><path d="M540.000 303.827 C 468.809 305.917,465.306 306.408,447.719 316.747 C 387.173 352.342,385.394 443.691,444.486 482.796 C 457.694 491.537,466.568 493.408,510.019 496.615 C 591.247 502.609,1913.404 498.653,1937.235 492.344 C 1953.239 488.107,1959.440 483.467,1974.150 464.727 C 2006.224 423.860,2007.402 380.053,1977.519 339.345 C 1956.044 310.089,1948.623 307.577,1872.301 303.727 C 1801.057 300.133,662.858 300.218,540.000 303.827 M540.000 703.827 C 468.809 705.917,465.306 706.408,447.719 716.747 C 387.173 752.342,385.394 843.691,444.486 882.796 C 457.694 891.537,466.568 893.408,510.019 896.615 C 591.247 902.609,1913.404 898.653,1937.235 892.344 C 1953.239 888.107,1959.440 883.467,1974.150 864.727 C 2006.224 823.860,2007.402 780.053,1977.519 739.345 C 1956.044 710.089,1948.623 707.577,1872.301 703.727 C 1801.057 700.133,662.858 700.218,540.000 703.827 M540.000 1103.827 C 468.809 1105.917,465.306 1106.408,447.719 1116.747 C 387.173 1152.342,385.394 1243.691,444.486 1282.796 C 457.694 1291.537,466.568 1293.408,510.019 1296.615 C 591.247 1302.609,1913.404 1298.653,1937.235 1292.344 C 1953.239 1288.107,1959.440 1283.467,1974.150 1264.727 C 2006.224 1223.860,2007.402 1180.053,1977.519 1139.345 C 1956.044 1110.089,1948.623 1107.577,1872.301 1103.727 C 1801.057 1100.133,662.858 1100.218,540.000 1103.827 M500.000 1503.532 C 473.049 1505.488,462.150 1508.263,447.434 1516.915 C 387.146 1552.355,385.553 1643.797,444.543 1682.834 C 469.070 1699.065,498.959 1700.566,771.234 1699.240 L 1026.000 1698.000 1044.679 1688.799 C 1075.020 1673.853,1099.781 1634.016,1099.873 1600.000 C 1099.970 1564.065,1068.462 1517.680,1037.076 1507.554 C 1020.659 1502.257,564.609 1498.842,500.000 1503.532 M1825.241 1548.174 C 1808.567 1553.310,1751.686 1605.444,1636.289 1721.356 L 1542.577 1815.486 1501.362 1776.135 C 1452.625 1729.603,1435.389 1720.000,1400.609 1720.000 C 1371.380 1720.000,1351.093 1727.523,1332.649 1745.203 C 1304.068 1772.600,1294.711 1807.758,1305.825 1845.991 C 1312.258 1868.120,1316.591 1873.212,1399.286 1955.829 C 1451.771 2008.266,1492.109 2045.298,1501.475 2049.645 C 1526.147 2061.094,1569.662 2057.413,1592.400 2041.952 C 1602.068 2035.378,1685.045 1955.300,1776.795 1864.000 C 1896.840 1744.543,1945.510 1693.514,1950.383 1682.000 C 1969.755 1636.224,1947.606 1576.550,1902.607 1553.280 C 1887.700 1545.571,1843.222 1542.635,1825.241 1548.174 M500.000 1903.532 C 473.049 1905.488,462.150 1908.263,447.434 1916.915 C 387.146 1952.355,385.553 2043.797,444.543 2082.834 C 469.070 2099.065,498.959 2100.566,771.234 2099.240 L 1026.000 2098.000 1044.679 2088.799 C 1075.020 2073.853,1099.781 2034.016,1099.873 2000.000 C 1099.970 1964.065,1068.462 1917.680,1037.076 1907.554 C 1020.659 1902.257,564.609 1898.842,500.000 1903.532 " fill="#1D1E23" stroke="none" fill-rule="evenodd"/></svg>