<svg viewBox="0 0 2400 2400" fill="none" xmlns="http://www.w3.org/2000/svg"><path d="M632.000 303.866 L 450.000 306.000 420.000 320.468 C 364.582 347.194,333.744 380.240,312.279 435.901 L 300.000 467.742 300.067 1200.871 L 300.135 1934.000 313.386 1966.670 C 337.718 2026.661,376.221 2064.706,435.891 2087.717 L 467.742 2100.000 1200.871 2099.933 L 1934.000 2099.865 1966.670 2086.614 C 2026.005 2062.548,2062.491 2025.932,2086.856 1966.000 L 2099.865 1934.000 2099.933 1201.091 L 2100.000 468.183 2090.198 442.142 C 2084.807 427.820,2075.682 408.056,2069.919 398.223 C 2054.341 371.641,2016.158 338.493,1981.230 321.227 L 1950.425 306.000 1654.213 303.421 C 1320.103 300.512,902.616 300.694,632.000 303.866 M1900.000 1200.000 L 1900.000 1900.000 1200.000 1900.000 L 500.000 1900.000 500.000 1200.000 L 500.000 500.000 1200.000 500.000 L 1900.000 500.000 1900.000 1200.000 M1208.000 703.798 C 1180.134 705.413,1161.760 708.514,1153.401 713.012 C 1126.483 727.495,1100.000 770.635,1100.000 800.000 C 1100.000 819.737,1112.675 847.885,1130.480 867.689 C 1160.977 901.609,1150.480 900.414,1406.659 899.128 L 1631.317 898.000 1648.533 885.898 C 1688.831 857.570,1706.298 815.710,1694.604 775.484 C 1686.802 748.649,1671.117 727.501,1650.167 715.569 C 1636.056 707.533,1626.480 706.225,1562.167 703.550 C 1478.827 700.083,1269.545 700.230,1208.000 703.798 M756.920 712.461 C 720.881 730.299,696.040 775.650,701.685 813.296 C 707.187 849.982,747.880 891.897,783.903 897.984 C 792.756 899.479,807.244 899.479,816.097 897.984 C 851.635 891.980,892.814 849.980,898.168 814.277 C 903.893 776.100,878.686 729.759,842.726 712.352 C 819.060 700.895,780.186 700.944,756.920 712.461 M1208.000 1103.798 C 1180.134 1105.413,1161.760 1108.514,1153.401 1113.012 C 1126.483 1127.495,1100.000 1170.635,1100.000 1200.000 C 1100.000 1219.737,1112.675 1247.885,1130.480 1267.689 C 1160.977 1301.609,1150.480 1300.414,1406.659 1299.128 L 1631.317 1298.000 1648.533 1285.898 C 1688.831 1257.570,1706.298 1215.710,1694.604 1175.484 C 1686.802 1148.649,1671.117 1127.501,1650.167 1115.569 C 1636.056 1107.533,1626.480 1106.225,1562.167 1103.550 C 1478.827 1100.083,1269.545 1100.230,1208.000 1103.798 M756.920 1112.461 C 720.881 1130.299,696.040 1175.650,701.685 1213.296 C 705.278 1237.256,724.934 1266.007,748.903 1282.364 C 782.097 1305.017,817.903 1305.017,851.097 1282.364 C 874.645 1266.295,894.722 1237.253,898.168 1214.277 C 903.893 1176.100,878.686 1129.759,842.726 1112.352 C 819.060 1100.895,780.186 1100.944,756.920 1112.461 M1208.000 1503.798 C 1180.134 1505.413,1161.760 1508.514,1153.401 1513.012 C 1126.483 1527.495,1100.000 1570.635,1100.000 1600.000 C 1100.000 1619.737,1112.675 1647.885,1130.480 1667.689 C 1160.977 1701.609,1150.480 1700.414,1406.659 1699.128 L 1631.317 1698.000 1648.533 1685.898 C 1688.831 1657.570,1706.298 1615.710,1694.604 1575.484 C 1686.802 1548.649,1671.117 1527.501,1650.167 1515.569 C 1636.056 1507.533,1626.480 1506.225,1562.167 1503.550 C 1478.827 1500.083,1269.545 1500.230,1208.000 1503.798 M756.920 1512.461 C 720.881 1530.299,696.040 1575.650,701.685 1613.296 C 705.278 1637.256,724.934 1666.007,748.903 1682.364 C 782.097 1705.017,817.903 1705.017,851.097 1682.364 C 874.645 1666.295,894.722 1637.253,898.168 1614.277 C 903.893 1576.100,878.686 1529.759,842.726 1512.352 C 819.060 1500.895,780.186 1500.944,756.920 1512.461 " fill="#1D1E23" stroke="none" fill-rule="evenodd"/></svg>