<svg viewBox="0 0 2400 2400" fill="none" xmlns="http://www.w3.org/2000/svg"><path d="M611.812 227.852 C 513.321 229.705,496.195 230.938,487.227 236.820 C 476.063 244.144,452.551 271.680,443.529 288.000 C 438.879 296.410,437.828 440.922,436.915 1196.993 L 435.830 2095.986 444.429 2112.842 C 457.034 2137.548,492.667 2170.712,513.029 2176.687 C 539.593 2184.483,1863.626 2184.138,1885.951 2176.330 C 1905.018 2169.662,1945.813 2131.935,1956.422 2111.159 C 1963.787 2096.736,1963.987 2074.567,1963.545 1323.159 C 1963.295 897.922,1961.945 491.222,1960.545 419.382 L 1958.000 288.764 1945.529 271.382 C 1938.670 261.822,1923.513 247.250,1911.846 239.000 L 1890.634 224.000 1308.317 224.852 C 988.043 225.321,674.615 226.671,611.812 227.852 M1744.000 1200.000 L 1744.000 1964.000 1200.000 1964.000 L 656.000 1964.000 656.000 1200.000 L 656.000 436.000 1200.000 436.000 L 1744.000 436.000 1744.000 1200.000 M946.769 668.172 C 921.930 672.345,904.712 685.772,889.898 712.519 C 879.636 731.049,878.012 738.121,878.080 764.000 C 878.191 806.157,896.243 836.046,935.549 859.153 L 954.000 870.000 1190.000 869.719 C 1319.800 869.565,1434.396 868.128,1444.657 866.526 C 1494.623 858.725,1537.132 781.911,1520.079 730.240 C 1514.327 712.809,1496.431 691.291,1474.400 675.314 L 1458.800 664.000 1212.400 664.470 C 1076.880 664.729,957.346 666.395,946.769 668.172 M955.468 1099.666 C 921.630 1104.409,883.959 1140.831,877.548 1175.002 C 874.040 1193.699,878.554 1233.600,885.750 1247.517 C 895.419 1266.215,934.671 1299.324,953.218 1304.425 C 965.555 1307.819,1034.097 1308.331,1212.000 1306.358 L 1454.000 1303.674 1474.201 1289.900 C 1507.638 1267.101,1524.000 1237.564,1524.000 1200.000 C 1524.000 1162.127,1507.403 1134.108,1469.279 1107.618 L 1452.559 1096.000 1213.279 1096.534 C 1081.676 1096.828,965.660 1098.238,955.468 1099.666 M947.176 1538.903 C 926.638 1541.063,895.924 1569.167,884.123 1596.601 C 867.410 1635.452,877.269 1681.269,909.218 1713.218 C 939.292 1743.292,925.483 1741.863,1198.865 1743.172 C 1472.991 1744.485,1452.352 1746.527,1487.064 1714.661 C 1510.745 1692.920,1523.937 1664.731,1523.873 1636.000 C 1523.810 1607.474,1513.455 1585.074,1489.051 1560.670 L 1469.702 1541.321 1420.223 1538.660 C 1369.257 1535.920,973.619 1536.123,947.176 1538.903 " fill="#1D1E23" stroke="none" fill-rule="evenodd"/></svg>