<svg viewBox="0 0 2400 2400" fill="none" xmlns="http://www.w3.org/2000/svg"><path d="M468.000 302.679 C 447.525 305.935,409.348 321.475,389.285 334.722 C 352.977 358.695,328.130 391.080,311.577 436.006 L 302.000 462.000 302.000 1200.000 L 302.000 1938.000 311.522 1964.000 C 333.977 2025.311,374.417 2065.731,436.006 2088.423 L 462.000 2098.000 1200.000 2098.000 L 1938.000 2098.000 1964.000 2088.478 C 2025.311 2066.023,2065.731 2025.583,2088.423 1963.994 L 2098.000 1938.000 2098.000 1200.000 L 2098.000 462.000 2088.478 436.000 C 2076.344 402.871,2056.264 372.479,2032.607 351.440 C 2010.093 331.416,1965.803 309.592,1936.454 304.061 C 1915.973 300.201,492.016 298.861,468.000 302.679 M1900.000 1200.000 L 1900.000 1900.000 1200.000 1900.000 L 500.000 1900.000 500.000 1200.000 L 500.000 500.000 1200.000 500.000 L 1900.000 500.000 1900.000 1200.000 M766.681 706.493 C 730.066 717.742,700.000 759.905,700.000 800.000 C 700.000 852.737,747.263 900.000,800.000 900.000 C 852.737 900.000,900.000 852.737,900.000 800.000 C 900.000 759.017,869.496 717.506,830.975 706.066 C 806.051 698.665,791.853 698.759,766.681 706.493 M1164.342 706.868 C 1129.056 719.332,1100.000 761.388,1100.000 800.000 C 1100.000 824.160,1111.933 852.144,1129.895 870.105 C 1160.105 900.316,1157.251 900.000,1400.000 900.000 C 1642.749 900.000,1639.895 900.316,1670.105 870.105 C 1709.232 830.979,1709.232 769.021,1670.105 729.895 C 1639.820 699.609,1643.028 699.958,1398.287 700.316 C 1213.160 700.586,1179.456 701.530,1164.342 706.868 M766.681 1106.493 C 730.066 1117.742,700.000 1159.905,700.000 1200.000 C 700.000 1252.737,747.263 1300.000,800.000 1300.000 C 852.737 1300.000,900.000 1252.737,900.000 1200.000 C 900.000 1159.017,869.496 1117.506,830.975 1106.066 C 806.051 1098.665,791.853 1098.759,766.681 1106.493 M1164.342 1106.868 C 1129.056 1119.332,1100.000 1161.388,1100.000 1200.000 C 1100.000 1224.160,1111.933 1252.144,1129.895 1270.105 C 1160.105 1300.316,1157.251 1300.000,1400.000 1300.000 C 1642.749 1300.000,1639.895 1300.316,1670.105 1270.105 C 1709.232 1230.979,1709.232 1169.021,1670.105 1129.895 C 1639.820 1099.609,1643.028 1099.958,1398.287 1100.316 C 1213.160 1100.586,1179.456 1101.530,1164.342 1106.868 M766.681 1506.493 C 730.066 1517.742,700.000 1559.905,700.000 1600.000 C 700.000 1652.737,747.263 1700.000,800.000 1700.000 C 852.737 1700.000,900.000 1652.737,900.000 1600.000 C 900.000 1559.017,869.496 1517.506,830.975 1506.066 C 806.051 1498.665,791.853 1498.759,766.681 1506.493 M1164.342 1506.868 C 1129.056 1519.332,1100.000 1561.388,1100.000 1600.000 C 1100.000 1624.160,1111.933 1652.144,1129.895 1670.105 C 1160.105 1700.316,1157.251 1700.000,1400.000 1700.000 C 1642.749 1700.000,1639.895 1700.316,1670.105 1670.105 C 1709.232 1630.979,1709.232 1569.021,1670.105 1529.895 C 1639.820 1499.609,1643.028 1499.958,1398.287 1500.316 C 1213.160 1500.586,1179.456 1501.530,1164.342 1506.868 " fill="#1D1E23" stroke="none" fill-rule="evenodd"/></svg>