<svg viewBox="0 0 2400 2400" fill="none" xmlns="http://www.w3.org/2000/svg"><path d="M490.000 303.822 C 450.191 306.105,443.143 307.737,416.000 320.953 C 362.757 346.879,330.954 383.088,309.491 442.216 L 300.000 468.364 300.000 1200.000 L 300.000 1931.636 309.491 1957.784 C 334.429 2026.486,373.658 2065.624,442.704 2090.686 L 468.364 2100.000 1200.000 2100.000 L 1931.636 2100.000 1957.784 2090.509 C 2026.001 2065.747,2065.800 2025.855,2090.686 1957.296 L 2100.000 1931.636 2100.000 1200.000 L 2100.000 468.364 2090.686 442.704 C 2069.042 383.076,2038.642 348.588,1985.012 322.821 L 1950.000 306.000 1786.000 303.477 C 1575.171 300.234,547.795 300.507,490.000 303.822 M1900.000 1200.000 L 1900.000 1900.000 1200.000 1900.000 L 500.000 1900.000 500.000 1200.000 L 500.000 500.000 1200.000 500.000 L 1900.000 500.000 1900.000 1200.000 M778.000 703.550 C 721.789 718.125,686.706 780.035,706.012 830.587 C 720.798 869.305,762.302 899.922,800.000 899.922 C 837.698 899.922,879.202 869.305,893.988 830.587 C 910.173 788.209,887.337 734.425,843.580 711.864 C 826.667 703.144,795.034 699.134,778.000 703.550 M1204.000 702.737 C 1164.687 704.984,1155.902 707.925,1137.304 725.069 C 1103.287 756.424,1091.710 798.106,1107.256 833.251 C 1119.682 861.341,1134.615 878.599,1155.321 888.799 L 1174.000 898.000 1400.000 898.000 L 1626.000 898.000 1644.878 888.702 C 1668.434 877.101,1690.192 848.444,1696.633 820.537 C 1702.808 793.786,1696.621 765.742,1679.188 741.468 C 1660.529 715.486,1646.092 708.148,1605.156 703.841 C 1573.518 700.512,1258.117 699.644,1204.000 702.737 M778.000 1103.550 C 721.789 1118.125,686.706 1180.035,706.012 1230.587 C 720.798 1269.305,762.302 1299.922,800.000 1299.922 C 837.698 1299.922,879.202 1269.305,893.988 1230.587 C 910.173 1188.209,887.337 1134.425,843.580 1111.864 C 826.667 1103.144,795.034 1099.134,778.000 1103.550 M1204.000 1102.737 C 1164.687 1104.984,1155.902 1107.925,1137.304 1125.069 C 1103.287 1156.424,1091.710 1198.106,1107.256 1233.251 C 1119.682 1261.341,1134.615 1278.599,1155.321 1288.799 L 1174.000 1298.000 1400.000 1298.000 L 1626.000 1298.000 1644.878 1288.702 C 1668.434 1277.101,1690.192 1248.444,1696.633 1220.537 C 1702.808 1193.786,1696.621 1165.742,1679.188 1141.468 C 1660.529 1115.486,1646.092 1108.148,1605.156 1103.841 C 1573.518 1100.512,1258.117 1099.644,1204.000 1102.737 M778.000 1503.550 C 721.789 1518.125,686.706 1580.035,706.012 1630.587 C 720.798 1669.305,762.302 1699.922,800.000 1699.922 C 837.698 1699.922,879.202 1669.305,893.988 1630.587 C 910.173 1588.209,887.337 1534.425,843.580 1511.864 C 826.667 1503.144,795.034 1499.134,778.000 1503.550 M1204.000 1502.737 C 1164.687 1504.984,1155.902 1507.925,1137.304 1525.069 C 1103.287 1556.424,1091.710 1598.106,1107.256 1633.251 C 1119.682 1661.341,1134.615 1678.599,1155.321 1688.799 L 1174.000 1698.000 1400.000 1698.000 L 1626.000 1698.000 1644.878 1688.702 C 1668.434 1677.101,1690.192 1648.444,1696.633 1620.537 C 1702.808 1593.786,1696.621 1565.742,1679.188 1541.468 C 1660.529 1515.486,1646.092 1508.148,1605.156 1503.841 C 1573.518 1500.512,1258.117 1499.644,1204.000 1502.737 " fill="#1D1E23" stroke="none" fill-rule="evenodd"/></svg>