<svg viewBox="0 0 2400 2400" fill="none" xmlns="http://www.w3.org/2000/svg"><path d="M540.000 223.603 C 520.116 225.036,500.917 228.828,493.757 232.738 C 475.876 242.501,456.639 263.343,445.640 284.867 L 436.000 303.734 436.000 1200.000 L 436.000 2096.266 445.601 2115.212 C 457.624 2138.939,489.473 2169.112,510.223 2176.433 C 523.462 2181.104,634.429 2182.000,1200.000 2182.000 C 1839.095 2182.000,1874.965 2181.628,1892.630 2174.811 C 1913.679 2166.688,1942.682 2138.106,1955.629 2112.727 L 1964.000 2096.319 1964.000 1200.000 C 1964.000 305.242,1963.986 303.653,1955.827 287.660 C 1944.461 265.382,1921.571 241.040,1902.273 230.710 L 1886.000 222.000 1230.000 221.577 C 869.200 221.344,558.700 222.256,540.000 223.603 M1744.000 1200.000 L 1744.000 1964.000 1200.000 1964.000 L 656.000 1964.000 656.000 1200.000 L 656.000 436.000 1200.000 436.000 L 1744.000 436.000 1744.000 1200.000 M945.579 664.549 C 908.830 672.813,876.000 717.884,876.000 760.073 C 876.000 772.449,878.874 791.009,882.386 801.318 C 889.878 823.304,915.930 851.720,939.726 863.860 C 956.215 872.272,958.437 872.335,1201.178 871.172 C 1477.232 869.850,1461.065 871.674,1493.614 838.183 C 1521.958 809.020,1533.279 757.398,1518.753 723.555 C 1509.963 703.075,1486.057 677.709,1466.726 668.352 C 1449.779 660.148,1445.167 660.008,1205.737 660.428 C 1071.682 660.664,954.610 662.518,945.579 664.549 M964.000 1095.476 C 928.716 1099.616,892.443 1129.267,880.665 1163.597 C 874.901 1180.398,874.673 1213.063,880.182 1232.899 C 886.058 1254.055,907.022 1279.817,929.833 1293.914 L 949.389 1306.000 1198.326 1305.535 C 1446.907 1305.071,1447.290 1305.057,1465.621 1296.183 C 1487.353 1285.663,1514.454 1255.672,1520.005 1236.000 C 1525.350 1217.059,1525.030 1180.221,1519.376 1163.597 C 1512.488 1143.342,1494.549 1122.470,1471.085 1107.409 L 1450.193 1094.000 1218.097 1093.447 C 1090.443 1093.143,976.100 1094.056,964.000 1095.476 M947.225 1535.682 C 925.443 1540.083,898.442 1564.219,885.291 1591.045 C 859.561 1643.528,879.224 1701.037,933.553 1732.198 L 954.000 1743.925 1200.177 1743.962 L 1446.354 1744.000 1468.013 1731.000 C 1509.888 1705.867,1533.450 1658.664,1524.371 1618.094 C 1518.029 1589.756,1496.251 1558.836,1473.012 1545.176 L 1454.000 1534.000 1208.000 1533.348 C 1072.700 1532.990,955.351 1534.040,947.225 1535.682 " fill="#1D1E23" stroke="none" fill-rule="evenodd"/></svg>