<svg viewBox="0 0 2400 2400" fill="none" xmlns="http://www.w3.org/2000/svg"><path d="M458.621 313.796 C 438.954 320.857,427.666 331.600,414.506 355.780 C 398.528 385.137,396.951 406.640,408.875 432.579 C 421.638 460.345,438.188 479.651,455.387 486.837 C 476.820 495.793,686.511 499.680,1152.000 499.750 C 1570.192 499.814,1909.702 494.863,1937.447 488.297 C 1957.222 483.616,1974.513 467.287,1986.467 442.000 C 2007.827 396.817,1991.096 339.291,1950.000 316.620 C 1938.973 310.537,1878.637 309.930,1206.000 309.137 C 591.999 308.414,471.521 309.165,458.621 313.796 M458.621 713.796 C 438.954 720.857,427.666 731.600,414.506 755.780 C 398.528 785.137,396.951 806.640,408.875 832.579 C 421.638 860.345,438.188 879.651,455.387 886.837 C 476.820 895.793,686.511 899.680,1152.000 899.750 C 1570.192 899.814,1909.702 894.863,1937.447 888.297 C 1957.222 883.616,1974.513 867.287,1986.467 842.000 C 2007.827 796.817,1991.096 739.291,1950.000 716.620 C 1938.973 710.537,1878.637 709.930,1206.000 709.137 C 591.999 708.414,471.521 709.165,458.621 713.796 M458.621 1113.796 C 438.954 1120.857,427.666 1131.600,414.506 1155.780 C 398.528 1185.137,396.951 1206.640,408.875 1232.579 C 421.638 1260.345,438.188 1279.651,455.387 1286.837 C 476.820 1295.793,686.511 1299.680,1152.000 1299.750 C 1570.192 1299.814,1909.702 1294.863,1937.447 1288.297 C 1957.222 1283.616,1974.513 1267.287,1986.467 1242.000 C 2007.827 1196.817,1991.096 1139.291,1950.000 1116.620 C 1938.973 1110.537,1878.637 1109.930,1206.000 1109.137 C 591.999 1108.414,471.521 1109.165,458.621 1113.796 M537.328 1507.633 L 460.657 1510.000 443.328 1522.025 C 408.094 1546.475,393.383 1602.236,411.590 1642.324 C 420.138 1661.147,447.653 1685.014,468.000 1691.256 C 476.974 1694.009,579.297 1696.551,753.009 1698.336 L 1024.018 1701.121 1046.017 1686.514 C 1099.060 1651.296,1111.994 1601.676,1081.752 1549.422 C 1066.139 1522.445,1051.892 1512.982,1023.082 1510.451 C 984.514 1507.063,623.618 1504.970,537.328 1507.633 M1812.000 1559.039 C 1791.574 1572.299,1681.341 1675.623,1598.329 1759.318 L 1542.659 1815.447 1510.329 1785.237 C 1492.548 1768.621,1468.289 1748.517,1456.420 1740.561 C 1437.498 1727.879,1431.256 1725.916,1405.753 1724.628 C 1367.558 1722.699,1352.023 1728.350,1330.886 1751.860 C 1304.711 1780.973,1296.377 1822.012,1310.013 1854.647 C 1316.861 1871.039,1467.385 2022.998,1495.673 2042.079 C 1510.946 2052.381,1516.923 2053.977,1539.673 2053.829 C 1555.875 2053.724,1570.615 2051.191,1578.000 2047.243 C 1618.678 2025.498,1926.535 1719.833,1949.000 1678.884 C 1961.892 1655.385,1956.934 1619.654,1936.256 1587.049 C 1920.258 1561.821,1898.897 1551.167,1860.000 1549.014 C 1832.202 1547.475,1828.679 1548.211,1812.000 1559.039 M537.328 1907.633 L 460.657 1910.000 443.328 1922.025 C 408.094 1946.475,393.383 2002.236,411.590 2042.324 C 420.138 2061.147,447.653 2085.014,468.000 2091.256 C 476.974 2094.009,579.297 2096.551,753.009 2098.336 L 1024.018 2101.121 1046.017 2086.514 C 1099.060 2051.296,1111.994 2001.676,1081.752 1949.422 C 1066.139 1922.445,1051.892 1912.982,1023.082 1910.451 C 984.514 1907.063,623.618 1904.970,537.328 1907.633 " fill="#1D1E23" stroke="none" fill-rule="evenodd"/></svg>