<svg viewBox="0 0 2400 2400" fill="none" xmlns="http://www.w3.org/2000/svg"><path d="M727.626 303.775 L 449.252 306.000 418.220 321.754 C 364.580 348.986,334.102 382.167,311.978 437.419 L 300.000 467.333 300.000 1202.204 L 300.000 1937.074 317.650 1974.335 C 345.171 2032.431,380.517 2065.487,440.682 2089.397 L 467.364 2100.000 1202.710 2100.000 L 1938.056 2100.000 1978.063 2080.373 C 2030.609 2054.595,2057.048 2027.746,2082.225 1974.599 L 2100.000 1937.074 2100.000 1202.204 L 2100.000 467.333 2088.022 437.419 C 2081.434 420.966,2070.592 399.581,2063.929 389.896 C 2049.247 368.557,2015.889 340.803,1982.438 322.097 L 1957.683 308.253 1875.841 306.160 C 1745.415 302.825,1031.919 301.343,727.626 303.775 M1900.000 1200.000 L 1900.000 1900.000 1200.000 1900.000 L 500.000 1900.000 500.000 1200.000 L 500.000 500.000 1200.000 500.000 L 1900.000 500.000 1900.000 1200.000 M1231.811 703.846 C 1172.184 706.097,1164.146 707.257,1150.726 715.551 C 1124.669 731.656,1100.223 772.455,1100.127 800.000 C 1100.065 817.735,1114.977 850.000,1132.411 869.857 C 1157.976 898.974,1147.815 897.871,1402.000 899.126 L 1630.000 900.252 1652.000 882.837 C 1694.793 848.962,1708.539 801.916,1688.169 759.047 C 1678.570 738.846,1657.871 718.106,1640.556 711.339 C 1618.346 702.660,1379.323 698.279,1231.811 703.846 M766.992 709.462 C 733.094 722.113,706.610 755.840,701.543 792.812 C 698.058 818.235,711.419 847.010,737.976 871.282 C 780.812 910.432,822.507 909.384,864.470 868.104 C 894.318 838.742,903.116 816.237,896.430 786.357 C 885.614 738.028,852.816 708.411,806.841 705.457 C 791.531 704.473,776.242 706.009,766.992 709.462 M1231.811 1103.846 C 1172.184 1106.097,1164.146 1107.257,1150.726 1115.551 C 1124.669 1131.656,1100.223 1172.455,1100.127 1200.000 C 1100.065 1217.735,1114.977 1250.000,1132.411 1269.857 C 1157.976 1298.974,1147.815 1297.871,1402.000 1299.126 L 1630.000 1300.252 1652.000 1282.837 C 1694.793 1248.962,1708.539 1201.916,1688.169 1159.047 C 1678.570 1138.846,1657.871 1118.106,1640.556 1111.339 C 1618.346 1102.660,1379.323 1098.279,1231.811 1103.846 M766.992 1109.462 C 729.258 1123.545,702.432 1161.015,702.172 1200.000 C 701.997 1226.424,710.189 1244.553,732.480 1267.066 C 760.451 1295.316,790.378 1304.811,822.992 1295.782 C 849.555 1288.428,888.393 1249.682,895.715 1223.233 C 905.794 1186.818,884.748 1138.152,850.151 1117.877 C 827.682 1104.709,789.955 1100.891,766.992 1109.462 M1231.811 1503.846 C 1172.184 1506.097,1164.146 1507.257,1150.726 1515.551 C 1124.669 1531.656,1100.223 1572.455,1100.127 1600.000 C 1100.065 1617.735,1114.977 1650.000,1132.411 1669.857 C 1157.976 1698.974,1147.815 1697.871,1402.000 1699.126 L 1630.000 1700.252 1652.000 1682.837 C 1694.793 1648.962,1708.539 1601.916,1688.169 1559.047 C 1678.570 1538.846,1657.871 1518.106,1640.556 1511.339 C 1618.346 1502.660,1379.323 1498.279,1231.811 1503.846 M766.992 1509.462 C 729.258 1523.545,702.432 1561.015,702.172 1600.000 C 701.997 1626.424,710.189 1644.553,732.480 1667.066 C 760.451 1695.316,790.378 1704.811,822.992 1695.782 C 849.555 1688.428,888.393 1649.682,895.715 1623.233 C 905.794 1586.818,884.748 1538.152,850.151 1517.877 C 827.682 1504.709,789.955 1500.891,766.992 1509.462 " fill="#1D1E23" stroke="none" fill-rule="evenodd"/></svg>