<svg viewBox="0 0 2400 2400" fill="none" xmlns="http://www.w3.org/2000/svg"><path d="M400 800C400 744.772 444.772 700 500 700H1900C1955.23 700 2000 744.772 2000 800C2000 855.228 1955.23 900 1900 900H500C444.772 900 400 855.228 400 800ZM400 1200C400 1255.23 444.772 1300 500 1300H1900C1955.23 1300 2000 1255.23 2000 1200C2000 1144.77 1955.23 1100 1900 1100H500C444.772 1100 400 1144.77 400 1200ZM400 1600C400 1655.23 444.772 1700 500 1700H1000C1055.23 1700 1100 1655.23 1100 1600C1100 1544.77 1055.23 1500 1000 1500H500C444.772 1500 400 1544.77 400 1600ZM400 2000C400 2055.23 444.772 2100 500 2100H1000C1055.23 2100 1100 2055.23 1100 2000C1100 1944.77 1055.23 1900 1000 1900H500C444.772 1900 400 1944.77 400 2000ZM1541 1817L1470.5 1746C1431.6 1706.83 1368.28 1706.72 1329.25 1745.75C1290.41 1784.59 1290.3 1847.52 1329 1886.5L1470.37 2028.87C1509.35 2068.12 1572.8 2068.27 1611.96 2029.19L1928.88 1712.96C1968.15 1673.78 1968.18 1610.18 1928.96 1570.96C1889.77 1531.77 1826.23 1531.77 1787.04 1570.96L1541 1817ZM500 300C444.772 300 400 344.772 400 400C400 455.228 444.772 500 500 500H1900C1955.23 500 2000 455.228 2000 400C2000 344.772 1955.23 300 1900 300H500Z" fill="#1D1E23"/></svg>