<svg viewBox="0 0 2400 2400" fill="none" xmlns="http://www.w3.org/2000/svg"><path d="M496.000 307.525 C 464.852 309.554,455.592 311.718,444.644 319.526 C 424.832 333.656,409.065 357.803,403.545 382.470 C 399.322 401.343,399.608 407.393,405.633 426.504 C 413.192 450.484,433.759 476.420,453.699 487.117 C 470.530 496.145,650.451 499.200,1176.000 499.379 C 1628.350 499.534,1916.304 495.147,1943.208 487.691 C 1971.307 479.903,1997.570 437.529,1997.556 400.000 C 1997.543 362.647,1970.971 321.349,1940.506 311.335 C 1929.538 307.729,1756.257 306.381,1230.000 305.808 C 847.200 305.391,516.900 306.164,496.000 307.525 M496.000 707.525 C 464.852 709.554,455.592 711.718,444.644 719.526 C 424.832 733.656,409.065 757.803,403.545 782.470 C 399.322 801.343,399.608 807.393,405.633 826.504 C 413.192 850.484,433.759 876.420,453.699 887.117 C 470.530 896.145,650.451 899.200,1176.000 899.379 C 1628.350 899.534,1916.304 895.147,1943.208 887.691 C 1971.307 879.903,1997.570 837.529,1997.556 800.000 C 1997.543 762.647,1970.971 721.349,1940.506 711.335 C 1929.538 707.729,1756.257 706.381,1230.000 705.808 C 847.200 705.391,516.900 706.164,496.000 707.525 M496.000 1107.521 C 464.857 1109.553,455.590 1111.719,444.644 1119.526 C 424.832 1133.656,409.065 1157.803,403.545 1182.470 C 399.322 1201.343,399.608 1207.393,405.633 1226.504 C 413.192 1250.484,433.759 1276.420,453.699 1287.117 C 470.530 1296.145,650.451 1299.200,1176.000 1299.379 C 1628.350 1299.534,1916.304 1295.147,1943.208 1287.691 C 1971.307 1279.903,1997.570 1237.529,1997.556 1200.000 C 1997.543 1162.642,1970.961 1121.335,1940.506 1111.345 C 1929.557 1107.753,1755.352 1106.397,1230.000 1105.814 C 847.200 1105.389,516.900 1106.157,496.000 1107.521 M474.769 1507.966 C 415.829 1518.499,384.361 1590.684,413.850 1647.709 C 422.798 1665.014,450.023 1687.146,468.773 1692.359 C 481.301 1695.842,560.200 1697.265,758.000 1697.574 L 1030.000 1698.000 1048.880 1684.890 C 1106.468 1644.903,1114.428 1585.529,1069.378 1531.990 C 1047.153 1505.577,1057.891 1506.504,762.000 1505.468 C 614.600 1504.952,485.346 1506.076,474.769 1507.966 M1808.683 1559.965 C 1786.890 1575.752,1685.874 1671.293,1606.338 1751.343 L 1542.676 1815.416 1504.670 1779.980 C 1453.523 1732.292,1434.382 1721.935,1398.000 1722.258 C 1366.716 1722.536,1352.289 1728.327,1331.777 1748.838 C 1303.062 1777.553,1294.020 1825.010,1310.978 1858.000 C 1315.626 1867.042,1356.338 1910.654,1404.601 1958.290 C 1499.517 2051.974,1510.281 2059.213,1548.025 2054.743 C 1559.009 2053.442,1574.130 2049.467,1581.627 2045.909 C 1598.723 2037.796,1792.281 1852.326,1879.175 1760.795 C 1915.021 1723.035,1946.971 1685.867,1950.175 1678.199 C 1962.602 1648.457,1955.326 1609.451,1931.814 1579.766 C 1913.467 1556.600,1893.249 1548.197,1855.600 1548.088 C 1828.119 1548.008,1823.615 1549.149,1808.683 1559.965 M474.769 1907.966 C 415.829 1918.499,384.361 1990.684,413.850 2047.709 C 422.798 2065.014,450.023 2087.146,468.773 2092.359 C 481.301 2095.842,560.200 2097.265,758.000 2097.574 L 1030.000 2098.000 1048.880 2084.890 C 1106.468 2044.903,1114.428 1985.529,1069.378 1931.990 C 1047.153 1905.577,1057.891 1906.504,762.000 1905.468 C 614.600 1904.952,485.346 1906.076,474.769 1907.966 " fill="#1D1E23" stroke="none" fill-rule="evenodd"/></svg>