<svg viewBox="0 0 2400 2400" fill="none" xmlns="http://www.w3.org/2000/svg"><path d="M1854.53 218.176H545.443C516.511 218.176 488.763 229.67 468.305 250.128C447.846 270.587 436.353 298.334 436.353 327.267V2072.72C436.353 2101.65 447.846 2129.4 468.305 2149.86C488.763 2170.32 516.511 2181.81 545.443 2181.81H1854.53C1883.47 2181.81 1911.22 2170.32 1931.67 2149.86C1952.13 2129.4 1963.63 2101.65 1963.63 2072.72V327.267C1963.63 298.334 1952.13 270.587 1931.67 250.128C1911.22 229.67 1883.47 218.176 1854.53 218.176ZM1745.44 1963.63H654.534V436.358H1745.44V1963.63ZM1527.26 763.631C1527.26 703.382 1478.42 654.54 1418.17 654.54H981.807C921.558 654.54 872.716 703.382 872.716 763.631C872.716 823.88 921.558 872.722 981.807 872.722H1418.17C1478.42 872.722 1527.26 823.88 1527.26 763.631ZM1527.26 1636.36C1527.26 1576.11 1478.42 1527.27 1418.17 1527.27H981.807C921.558 1527.27 872.716 1576.11 872.716 1636.36C872.716 1696.61 921.558 1745.45 981.807 1745.45H1418.17C1478.42 1745.45 1527.26 1696.61 1527.26 1636.36ZM1527.26 1199.99C1527.26 1139.75 1478.42 1090.9 1418.17 1090.9H981.807C921.558 1090.9 872.716 1139.75 872.716 1199.99C872.716 1260.24 921.558 1309.09 981.807 1309.09H1418.17C1478.42 1309.09 1527.26 1260.24 1527.26 1199.99Z" fill="#1D1E23"/></svg>