<svg viewBox="0 0 2400 2400" fill="none" xmlns="http://www.w3.org/2000/svg"><path d="M1200 900H1600C1655 900 1700 855 1700 800 1700 745 1655 700 1600 700H1200C1145 700 1100 745 1100 800 1100 855 1145 900 1200 900ZM1200 1300H1600C1655 1300 1700 1255 1700 1200 1700 1145 1655 1100 1600 1100H1200C1145 1100 1100 1145 1100 1200 1100 1255 1145 1300 1200 1300ZM1200 1700H1600C1655 1700 1700 1655 1700 1600 1700 1545 1655 1500 1600 1500H1200C1145 1500 1100 1545 1100 1600 1100 1655 1145 1700 1200 1700ZM800 900C855.228 900 900 855.228 900 800 900 744.772 855.228 700 800 700 744.772 700 700 744.772 700 800 700 855.228 744.772 900 800 900ZM800 1300C855.228 1300 900 1255.23 900 1200 900 1144.77 855.228 1100 800 1100 744.772 1100 700 1144.77 700 1200 700 1255.23 744.772 1300 800 1300ZM800 1700C855.228 1700 900 1655.23 900 1600 900 1544.77 855.228 1500 800 1500 744.772 1500 700 1544.77 700 1600 700 1655.23 744.772 1700 800 1700Z" fill="#1D1E23"/><path d="M1900 300H500C390 300 300 390 300 500V1900C300 2010 390 2100 500 2100H1900C2010 2100 2100 2010 2100 1900V500C2100 390 2010 300 1900 300ZM1900 1900H500V500H1900V1900Z" fill="#1D1E23"/></svg>