<svg viewBox="0 0 2400 2400" fill="none" xmlns="http://www.w3.org/2000/svg"><path d="M502.674 227.657 C 475.848 241.333,461.751 254.806,448.756 279.187 L 436.000 303.120 436.000 1200.000 L 436.000 2096.880 448.654 2120.622 C 462.271 2146.170,480.902 2163.360,508.592 2175.925 C 525.705 2183.691,537.406 2183.824,1200.000 2183.824 C 1862.594 2183.824,1874.295 2183.691,1891.408 2175.925 C 1919.098 2163.360,1937.729 2146.170,1951.346 2120.622 L 1964.000 2096.880 1964.000 1200.000 L 1964.000 303.120 1951.114 278.943 C 1937.984 254.309,1918.486 236.584,1892.512 225.668 C 1881.051 220.852,1776.677 220.000,1198.357 220.000 C 535.764 220.000,517.293 220.203,502.674 227.657 M1744.000 1200.000 L 1744.000 1964.000 1200.000 1964.000 L 656.000 1964.000 656.000 1200.000 L 656.000 436.000 1200.000 436.000 L 1744.000 436.000 1744.000 1200.000 M982.000 659.477 C 935.910 662.384,924.351 667.285,900.989 693.826 C 855.204 745.840,870.473 824.018,933.474 860.152 L 954.000 871.925 1199.199 871.962 C 1471.096 872.004,1451.699 873.832,1487.550 844.783 C 1521.264 817.465,1535.572 762.254,1518.995 723.442 C 1510.472 703.487,1485.871 677.144,1466.273 666.987 C 1450.376 658.748,1445.053 658.535,1236.000 657.754 C 1118.300 657.314,1004.000 658.090,982.000 659.477 M941.452 1099.690 C 917.627 1110.509,892.085 1135.138,883.204 1155.858 C 873.488 1178.524,872.879 1212.540,881.714 1239.138 C 890.218 1264.743,924.396 1298.015,947.156 1302.848 C 973.085 1308.354,1439.573 1306.601,1458.461 1300.927 C 1477.546 1295.194,1509.108 1263.899,1518.517 1241.380 C 1527.065 1220.921,1526.174 1177.735,1516.751 1155.751 C 1507.910 1135.127,1482.332 1110.490,1458.548 1099.690 C 1442.941 1092.603,1428.246 1092.176,1200.000 1092.176 C 971.754 1092.176,957.059 1092.603,941.452 1099.690 M998.000 1531.447 C 949.111 1533.676,940.117 1535.171,927.169 1543.222 C 884.537 1569.730,863.158 1623.315,877.721 1667.159 C 885.775 1691.408,910.804 1721.034,933.487 1733.167 L 950.000 1742.000 1200.000 1742.000 L 1450.000 1742.000 1466.513 1733.167 C 1504.563 1712.814,1532.159 1663.615,1526.251 1626.665 C 1520.282 1589.340,1496.322 1554.600,1466.824 1540.503 C 1450.844 1532.866,1440.063 1532.373,1252.000 1530.678 C 1143.100 1529.696,1028.800 1530.042,998.000 1531.447 " fill="#1D1E23" stroke="none" fill-rule="evenodd"/></svg>