<svg viewBox="0 0 2400 2400" fill="none" xmlns="http://www.w3.org/2000/svg"><path d="M466.363 306.293 C 443.583 314.639,425.689 329.702,413.089 351.136 C 403.633 367.222,402.000 374.417,402.000 400.000 C 402.000 425.583,403.633 432.778,413.089 448.864 C 419.188 459.240,430.112 472.255,437.364 477.786 C 468.330 501.405,420.110 500.000,1199.790 500.000 C 2002.340 500.000,1937.702 502.509,1970.105 470.105 C 2009.232 430.979,2009.232 369.021,1970.105 329.895 C 1937.685 297.474,2002.614 299.965,1198.287 300.282 C 587.073 300.522,479.706 301.404,466.363 306.293 M466.363 706.293 C 443.583 714.639,425.689 729.702,413.089 751.136 C 403.633 767.222,402.000 774.417,402.000 800.000 C 402.000 825.583,403.633 832.778,413.089 848.864 C 419.188 859.240,430.112 872.255,437.364 877.786 C 468.330 901.405,420.110 900.000,1199.790 900.000 C 2002.340 900.000,1937.702 902.509,1970.105 870.105 C 2009.232 830.979,2009.232 769.021,1970.105 729.895 C 1937.685 697.474,2002.614 699.965,1198.287 700.282 C 587.073 700.522,479.706 701.404,466.363 706.293 M466.363 1106.293 C 443.583 1114.639,425.689 1129.702,413.089 1151.136 C 403.633 1167.222,402.000 1174.417,402.000 1200.000 C 402.000 1225.583,403.633 1232.778,413.089 1248.864 C 419.188 1259.240,430.112 1272.255,437.364 1277.786 C 468.330 1301.405,420.110 1300.000,1199.790 1300.000 C 2002.340 1300.000,1937.702 1302.509,1970.105 1270.105 C 2009.232 1230.979,2009.232 1169.021,1970.105 1129.895 C 1937.685 1097.474,2002.614 1099.965,1198.287 1100.282 C 587.073 1100.522,479.706 1101.404,466.363 1106.293 M466.363 1506.293 C 443.583 1514.639,425.689 1529.702,413.089 1551.136 C 403.633 1567.222,402.000 1574.417,402.000 1600.000 C 402.000 1625.583,403.633 1632.778,413.089 1648.864 C 419.188 1659.240,430.112 1672.255,437.364 1677.786 C 466.908 1700.321,462.400 1700.000,749.790 1700.000 C 1048.585 1700.000,1039.349 1700.862,1070.105 1670.105 C 1088.067 1652.144,1100.000 1624.160,1100.000 1600.000 C 1100.000 1575.840,1088.067 1547.856,1070.105 1529.895 C 1039.296 1499.086,1048.838 1499.964,748.287 1500.282 C 527.643 1500.515,479.320 1501.546,466.363 1506.293 M1812.000 1553.912 C 1800.539 1559.986,1748.275 1609.285,1668.125 1689.625 L 1542.250 1815.797 1502.125 1776.421 C 1453.006 1728.218,1435.600 1718.306,1400.000 1718.267 C 1369.467 1718.234,1349.429 1726.571,1327.614 1748.386 C 1298.482 1777.518,1292.180 1829.288,1313.396 1865.189 C 1318.860 1874.435,1360.832 1919.102,1406.666 1964.449 C 1470.148 2027.257,1493.812 2048.173,1506.000 2052.251 C 1530.443 2060.429,1563.014 2058.744,1584.000 2048.218 C 1596.369 2042.014,1654.305 1987.073,1769.199 1872.594 C 1861.158 1780.968,1939.813 1700.542,1943.987 1693.871 C 1973.354 1646.935,1955.633 1582.461,1905.842 1555.093 C 1878.861 1540.263,1838.708 1539.757,1812.000 1553.912 M466.363 1906.293 C 443.583 1914.639,425.689 1929.702,413.089 1951.136 C 403.633 1967.222,402.000 1974.417,402.000 2000.000 C 402.000 2025.583,403.633 2032.778,413.089 2048.864 C 419.188 2059.240,430.112 2072.255,437.364 2077.786 C 466.908 2100.321,462.400 2100.000,749.790 2100.000 C 1048.585 2100.000,1039.349 2100.862,1070.105 2070.105 C 1088.067 2052.144,1100.000 2024.160,1100.000 2000.000 C 1100.000 1975.840,1088.067 1947.856,1070.105 1929.895 C 1039.296 1899.086,1048.838 1899.964,748.287 1900.282 C 527.643 1900.515,479.320 1901.546,466.363 1906.293 " fill="#1D1E23" stroke="none" fill-rule="evenodd"/></svg>