<svg viewBox="0 0 2400 2400" fill="none" xmlns="http://www.w3.org/2000/svg"><path d="M510.000 227.715 C 503.400 229.308,494.245 232.629,489.655 235.096 C 477.430 241.666,453.570 269.241,444.173 287.660 C 436.014 303.654,436.000 305.199,436.038 1200.841 L 436.075 2098.000 447.848 2118.526 C 460.901 2141.286,486.576 2165.537,508.000 2175.343 C 520.661 2181.139,586.457 2181.764,1196.000 2181.876 C 1734.247 2181.975,1873.418 2180.963,1886.971 2176.854 C 1907.351 2170.674,1943.072 2137.342,1955.571 2112.842 L 1964.170 2095.986 1963.085 1196.993 C 1962.168 436.970,1961.138 296.454,1956.421 288.000 C 1944.912 267.370,1925.791 246.423,1908.401 235.395 L 1890.434 224.000 1206.217 224.409 C 829.898 224.635,516.600 226.122,510.000 227.715 M1744.000 1200.000 L 1744.000 1964.000 1200.000 1964.000 L 656.000 1964.000 656.000 1200.000 L 656.000 436.000 1200.000 436.000 L 1744.000 436.000 1744.000 1200.000 M994.000 663.669 C 929.948 666.335,916.973 671.355,896.578 701.361 C 875.813 731.911,871.380 758.112,880.708 795.156 C 887.271 821.220,926.415 861.316,951.870 868.050 C 976.704 874.619,1435.217 871.267,1457.055 864.357 C 1477.887 857.766,1506.279 826.995,1516.438 800.000 C 1522.597 783.635,1524.347 771.276,1523.270 751.748 C 1522.033 729.296,1519.770 722.637,1507.641 705.752 C 1499.841 694.892,1484.725 680.606,1474.050 674.004 L 1454.640 662.000 1252.320 661.669 C 1141.044 661.487,1024.800 662.387,994.000 663.669 M1022.000 1095.665 C 947.829 1097.944,945.539 1098.271,926.831 1109.267 C 905.891 1121.576,887.064 1144.595,879.709 1166.882 C 873.736 1184.982,876.798 1230.206,885.083 1246.226 C 894.231 1263.916,921.221 1290.419,939.676 1299.834 C 954.701 1307.500,962.366 1307.974,1064.841 1307.572 C 1124.878 1307.336,1237.900 1305.986,1316.000 1304.572 L 1458.000 1302.000 1476.215 1289.348 C 1508.423 1266.976,1524.000 1237.851,1524.000 1200.000 C 1524.000 1161.091,1508.777 1133.538,1474.605 1110.597 L 1454.000 1096.765 1276.000 1095.048 C 1178.100 1094.103,1063.800 1094.381,1022.000 1095.665 M1001.685 1535.551 C 941.758 1537.833,936.369 1538.682,922.695 1548.000 C 906.607 1558.962,888.381 1582.609,880.141 1603.208 C 865.762 1639.152,880.858 1691.207,913.272 1717.457 C 948.175 1745.722,929.504 1744.000,1201.018 1744.000 L 1446.434 1744.000 1464.217 1732.647 C 1519.823 1697.148,1539.773 1642.513,1514.936 1593.746 C 1505.186 1574.600,1481.565 1549.358,1465.354 1540.760 C 1456.505 1536.066,1094.864 1532.004,1001.685 1535.551 " fill="#1D1E23" stroke="none" fill-rule="evenodd"/></svg>