<svg viewBox="0 0 2400 2400" fill="none" xmlns="http://www.w3.org/2000/svg"><path d="M1134.000 104.581 C 1063.047 113.625,982.519 144.686,917.628 188.040 C 876.823 215.301,811.391 281.186,784.588 322.000 C 732.342 401.556,698.506 505.112,711.697 545.081 C 717.752 563.427,746.764 590.171,766.581 595.674 C 825.271 611.970,876.867 577.454,905.926 502.456 C 940.776 412.514,992.986 354.859,1072.639 318.358 C 1112.279 300.193,1151.663 291.986,1198.790 292.069 C 1287.526 292.227,1356.343 320.491,1417.926 382.074 C 1451.552 415.701,1470.245 443.451,1486.681 484.141 C 1505.377 530.428,1507.856 553.382,1507.931 680.905 L 1508.000 799.811 1033.000 800.905 L 558.000 802.000 534.000 811.568 C 465.918 838.710,418.212 893.062,404.420 959.197 C 398.197 989.038,398.197 2010.962,404.420 2040.803 C 420.053 2115.765,484.235 2179.947,559.197 2195.580 C 589.114 2201.819,1810.886 2201.819,1840.803 2195.580 C 1915.765 2179.947,1979.947 2115.765,1995.580 2040.803 C 2001.803 2010.962,2001.803 989.038,1995.580 959.197 C 1981.755 892.905,1933.261 837.781,1866.000 811.902 C 1845.088 803.856,1832.909 802.440,1771.354 800.895 L 1700.708 799.123 1698.972 662.561 C 1697.298 530.773,1696.867 524.560,1686.635 484.814 C 1673.487 433.738,1652.871 383.230,1629.156 344.000 C 1525.830 173.070,1331.991 79.345,1134.000 104.581 M1800.000 1500.000 L 1800.000 2000.000 1200.000 2000.000 L 600.000 2000.000 600.000 1500.000 L 600.000 1000.000 1200.000 1000.000 L 1800.000 1000.000 1800.000 1500.000 M1168.000 1302.417 C 1162.500 1303.436,1147.200 1308.044,1134.000 1312.657 C 994.773 1361.316,955.166 1535.875,1059.645 1640.355 C 1139.257 1719.966,1260.743 1719.966,1340.355 1640.355 C 1444.891 1535.818,1406.061 1364.105,1266.174 1312.315 C 1242.850 1303.680,1189.971 1298.349,1168.000 1302.417 " fill="#1D1E23" stroke="none" fill-rule="evenodd"/></svg>