<svg viewBox="0 0 2400 2400" fill="none" xmlns="http://www.w3.org/2000/svg"><path d="M1108.000 110.181 C 1042.219 125.125,969.902 155.524,918.015 190.043 C 884.803 212.138,804.448 292.587,784.214 324.000 C 753.010 372.444,716.463 460.214,709.672 503.020 C 703.488 541.995,728.732 580.957,768.790 594.262 C 786.016 599.984,792.359 600.298,810.185 596.308 C 834.301 590.911,862.173 573.847,874.826 556.732 C 879.601 550.273,897.347 519.116,914.261 487.494 C 960.498 401.051,977.268 379.735,1024.014 347.991 C 1083.884 307.334,1133.936 294.006,1215.437 297.020 C 1306.260 300.379,1346.743 318.743,1416.000 388.000 C 1461.539 433.539,1482.284 466.036,1493.991 510.174 C 1500.416 534.396,1507.593 659.750,1507.864 752.486 L 1508.000 798.972 1029.000 801.866 L 550.000 804.759 518.079 821.380 C 474.826 843.900,439.287 879.527,416.738 922.972 L 399.624 955.944 400.961 1492.972 C 402.201 1990.635,402.813 2031.759,409.311 2054.000 C 421.685 2096.347,452.836 2136.853,495.102 2165.553 C 546.634 2200.546,491.320 2198.000,1200.000 2198.000 C 1910.564 2198.000,1853.584 2200.691,1906.000 2164.653 C 1948.764 2135.250,1979.954 2092.956,1992.641 2047.166 C 1996.171 2034.426,1997.788 1891.756,1998.910 1493.885 L 2000.422 957.770 1983.576 924.112 C 1954.066 865.152,1896.937 818.501,1841.679 808.239 C 1830.503 806.163,1794.274 803.204,1761.171 801.662 L 1700.982 798.859 1698.776 668.430 C 1696.427 529.550,1694.073 508.800,1673.551 446.099 C 1659.760 403.965,1625.059 337.009,1598.906 302.071 C 1527.778 207.049,1421.252 139.908,1300.000 113.676 C 1257.372 104.454,1142.421 102.362,1108.000 110.181 M1800.000 1500.000 L 1800.000 2000.000 1200.000 2000.000 L 600.000 2000.000 600.000 1500.000 L 600.000 1000.000 1200.000 1000.000 L 1800.000 1000.000 1800.000 1500.000 M1157.098 1305.951 C 1120.430 1316.187,1087.494 1335.672,1059.756 1363.538 C 1009.903 1413.622,989.981 1479.852,1006.125 1541.834 C 1023.160 1607.236,1079.428 1668.550,1141.866 1689.749 C 1202.252 1710.250,1272.107 1695.447,1325.355 1650.865 C 1397.724 1590.275,1418.192 1496.224,1377.318 1412.095 C 1363.296 1383.232,1320.715 1341.080,1291.316 1326.959 C 1245.312 1304.861,1191.291 1296.406,1157.098 1305.951 " fill="#1D1E23" stroke="none" fill-rule="evenodd"/></svg>