<svg viewBox="0 0 2400 2400" fill="none" xmlns="http://www.w3.org/2000/svg"><path d="M1200 1700C1310 1700 1400 1610 1400 1500C1400 1390 1310 1300 1200 1300C1090 1300 1000 1390 1000 1500C1000 1610 1090 1700 1200 1700ZM1800 800H1700V600C1700 324 1476 100 1200 100C956.292 100 753.129 274.65 708.924 505.534C699.058 557.065 742.533 600 795 600C847.467 600 888.554 556.478 904.404 506.462C944.142 381.069 1061.59 290 1200 290C1371 290 1510 429 1510 600V800H600C490 800 400 890 400 1000V2000C400 2110 490 2200 600 2200H1800C1910 2200 2000 2110 2000 2000V1000C2000 890 1910 800 1800 800ZM1800 2000H600V1000H1800V2000Z" fill="#1D1E23"/></svg>