<svg viewBox="0 0 2400 2400" fill="none" xmlns="http://www.w3.org/2000/svg"><path d="M746.000 203.804 L 546.000 206.000 516.000 221.852 C 476.186 242.889,437.717 281.123,420.008 317.256 C 406.929 343.943,406.586 345.990,403.583 415.256 C 399.590 507.354,399.583 1892.506,403.575 1984.565 C 406.380 2049.245,407.511 2056.917,417.138 2076.565 C 442.926 2129.198,498.099 2177.425,548.000 2190.952 C 572.310 2197.542,614.693 2198.000,1200.000 2198.000 C 1890.072 2198.000,1847.096 2199.514,1894.000 2173.553 C 1925.175 2156.298,1960.814 2117.559,1978.593 2081.603 L 1994.000 2050.445 1996.552 1902.223 C 1997.955 1820.700,1999.305 1538.895,1999.552 1275.990 L 2000.000 797.980 1700.990 498.990 L 1401.980 200.000 1173.990 200.804 C 1048.596 201.246,856.000 202.596,746.000 203.804 M1300.970 639.000 C 1302.100 770.450,1304.284 881.011,1305.822 884.691 C 1307.360 888.371,1311.629 892.629,1315.309 894.154 C 1318.989 895.679,1429.550 897.868,1561.000 899.019 L 1800.000 901.112 1800.000 1450.556 L 1800.000 2000.000 1200.000 2000.000 L 600.000 2000.000 600.000 1200.000 L 600.000 400.000 949.457 400.000 L 1298.914 400.000 1300.970 639.000 M926.000 1207.671 C 867.702 1209.792,860.629 1210.852,846.618 1219.563 C 813.165 1240.359,795.991 1279.421,803.788 1316.981 C 812.022 1356.640,836.622 1383.821,872.804 1393.237 C 884.872 1396.378,984.273 1397.550,1206.141 1397.168 C 1562.982 1396.553,1542.711 1398.324,1571.866 1365.202 C 1591.989 1342.342,1597.237 1325.913,1595.310 1291.807 C 1593.489 1259.585,1581.050 1238.149,1552.548 1218.112 L 1535.319 1206.000 1262.659 1205.671 C 1112.697 1205.490,961.200 1206.390,926.000 1207.671 M926.000 1607.671 C 867.702 1609.792,860.629 1610.852,846.618 1619.563 C 813.165 1640.359,795.991 1679.421,803.788 1716.981 C 812.022 1756.640,836.622 1783.821,872.804 1793.237 C 884.872 1796.378,984.273 1797.550,1206.141 1797.168 C 1562.982 1796.553,1542.711 1798.324,1571.866 1765.202 C 1591.989 1742.342,1597.237 1725.913,1595.310 1691.807 C 1593.489 1659.585,1581.050 1638.149,1552.548 1618.112 L 1535.319 1606.000 1262.659 1605.671 C 1112.697 1605.490,961.200 1606.390,926.000 1607.671 " fill="#1D1E23" stroke="none" fill-rule="evenodd"/></svg>