<svg viewBox="0 0 2400 2400" fill="none" xmlns="http://www.w3.org/2000/svg"><path d="M788.000 203.810 L 546.000 206.000 521.834 219.113 C 475.058 244.494,437.572 281.638,417.661 322.336 C 407.374 343.361,406.626 348.845,403.627 425.272 C 399.501 530.432,399.502 1869.588,403.628 1974.754 C 406.680 2052.541,407.219 2056.361,418.298 2078.754 C 435.052 2112.614,486.355 2162.975,521.690 2180.244 L 549.380 2193.778 685.690 2197.130 C 878.876 2201.881,1806.265 2198.013,1841.644 2192.308 C 1875.337 2186.875,1903.157 2171.687,1931.818 2143.078 C 1957.359 2117.584,1973.108 2095.285,1986.995 2064.950 L 1997.432 2042.153 1999.254 1420.624 L 2001.075 799.095 1701.548 499.548 L 1402.020 200.000 1216.010 200.810 C 1113.705 201.255,921.100 202.605,788.000 203.810 M1301.030 639.000 C 1302.257 770.450,1304.466 881.011,1305.939 884.691 C 1307.413 888.371,1311.629 892.577,1315.309 894.038 C 1318.989 895.500,1429.550 897.713,1561.000 898.957 L 1800.000 901.218 1800.000 1450.609 L 1800.000 2000.000 1200.000 2000.000 L 600.000 2000.000 600.000 1200.000 L 600.000 400.000 949.400 400.000 L 1298.800 400.000 1301.030 639.000 M869.047 1211.763 C 835.694 1217.197,804.087 1255.738,802.829 1292.506 C 801.297 1337.297,830.003 1380.849,868.013 1391.401 C 881.876 1395.250,959.826 1396.121,1208.000 1395.198 C 1569.722 1393.852,1546.623 1395.860,1572.819 1363.481 C 1591.235 1340.718,1597.516 1320.463,1594.946 1292.127 C 1592.220 1262.055,1580.137 1239.526,1557.445 1222.198 L 1538.850 1208.000 1212.425 1208.501 C 1032.891 1208.776,878.371 1210.244,869.047 1211.763 M869.047 1611.763 C 835.694 1617.197,804.087 1655.738,802.829 1692.506 C 801.297 1737.297,830.003 1780.849,868.013 1791.401 C 881.876 1795.250,959.826 1796.121,1208.000 1795.198 C 1569.722 1793.852,1546.623 1795.860,1572.819 1763.481 C 1591.235 1740.718,1597.516 1720.463,1594.946 1692.127 C 1592.220 1662.055,1580.137 1639.526,1557.445 1622.198 L 1538.850 1608.000 1212.425 1608.501 C 1032.891 1608.776,878.371 1610.244,869.047 1611.763 " fill="#1D1E23" stroke="none" fill-rule="evenodd"/></svg>