<svg viewBox="0 0 2400 2400" fill="none" xmlns="http://www.w3.org/2000/svg"><path d="M568.000 202.679 C 547.444 205.947,509.313 221.498,489.052 234.877 C 447.077 262.593,414.625 310.264,404.420 359.197 C 398.161 389.211,398.161 2010.789,404.420 2040.803 C 420.053 2115.765,484.235 2179.947,559.197 2195.580 C 589.114 2201.819,1810.886 2201.819,1840.803 2195.580 C 1915.765 2179.947,1979.947 2115.765,1995.580 2040.803 C 1998.695 2025.864,2000.000 1839.270,2000.000 1408.793 L 2000.000 797.980 1700.990 498.990 L 1401.980 200.000 989.990 200.545 C 763.396 200.844,573.500 201.805,568.000 202.679 M1300.000 642.000 C 1300.000 878.667,1300.176 884.176,1308.000 892.000 C 1315.824 899.824,1321.333 900.000,1558.000 900.000 L 1800.000 900.000 1800.000 1450.000 L 1800.000 2000.000 1200.000 2000.000 L 600.000 2000.000 600.000 1200.000 L 600.000 400.000 950.000 400.000 L 1300.000 400.000 1300.000 642.000 M866.363 1206.293 C 843.583 1214.639,825.689 1229.702,813.089 1251.136 C 803.633 1267.222,802.000 1274.417,802.000 1300.000 C 802.000 1325.583,803.633 1332.778,813.089 1348.864 C 819.188 1359.240,830.112 1372.255,837.364 1377.786 C 867.250 1400.581,857.772 1400.000,1199.790 1400.000 C 1554.463 1400.000,1538.959 1401.252,1570.105 1370.105 C 1609.232 1330.979,1609.232 1269.021,1570.105 1229.895 C 1538.916 1198.705,1554.722 1199.964,1198.287 1200.282 C 934.244 1200.517,879.417 1201.510,866.363 1206.293 M866.363 1606.293 C 843.583 1614.639,825.689 1629.702,813.089 1651.136 C 803.633 1667.222,802.000 1674.417,802.000 1700.000 C 802.000 1725.583,803.633 1732.778,813.089 1748.864 C 819.188 1759.240,830.112 1772.255,837.364 1777.786 C 867.250 1800.581,857.772 1800.000,1199.790 1800.000 C 1554.463 1800.000,1538.959 1801.252,1570.105 1770.105 C 1609.232 1730.979,1609.232 1669.021,1570.105 1629.895 C 1538.916 1598.705,1554.722 1599.964,1198.287 1600.282 C 934.244 1600.517,879.417 1601.510,866.363 1606.293 " fill="#1D1E23" stroke="none" fill-rule="evenodd"/></svg>