<svg viewBox="0 0 2400 2400" fill="none" xmlns="http://www.w3.org/2000/svg"><path d="M800 1700C800 1644.77 844.772 1600 900 1600H1500C1555.23 1600 1600 1644.77 1600 1700C1600 1755.23 1555.23 1800 1500 1800H900C844.772 1800 800 1755.23 800 1700ZM800 1300C800 1244.77 844.772 1200 900 1200H1500C1555.23 1200 1600 1244.77 1600 1300C1600 1355.23 1555.23 1400 1500 1400H900C844.772 1400 800 1355.23 800 1300ZM1400 200H600C490 200 400 290 400 400V2000C400 2110 489 2200 599 2200H1800C1910 2200 2000 2110 2000 2000V800L1400 200ZM1800 2000H600V400H1300V875C1300 888.807 1311.19 900 1325 900H1800V2000Z" fill="#1D1E23"/></svg>