<svg viewBox="0 0 2400 2400" fill="none" xmlns="http://www.w3.org/2000/svg"><path d="M1004.000 207.857 L 738.000 210.000 712.693 223.721 C 663.219 250.545,620.396 303.105,607.813 352.447 C 602.032 375.115,598.026 1325.746,602.909 1516.000 C 606.343 1649.789,606.365 1650.037,617.151 1673.432 C 623.092 1686.320,634.386 1705.628,642.249 1716.339 C 659.335 1739.614,713.966 1781.848,734.995 1788.038 C 762.380 1796.099,965.217 1799.647,1398.000 1799.635 C 1832.365 1799.623,2037.873 1796.053,2065.005 1788.048 C 2085.713 1781.939,2138.878 1740.872,2156.907 1717.060 C 2165.107 1706.231,2176.759 1686.713,2182.802 1673.686 C 2193.697 1650.197,2193.811 1649.066,2196.512 1538.000 C 2198.009 1476.400,2199.407 1185.063,2199.617 890.585 L 2200.000 355.170 2185.003 326.585 C 2163.846 286.259,2124.393 246.017,2083.211 222.758 L 2050.000 204.000 1660.000 204.857 C 1445.500 205.328,1150.300 206.678,1004.000 207.857 M1441.381 512.536 C 1454.394 519.194,1479.878 544.509,1486.741 557.597 C 1494.079 571.590,1499.571 677.613,1499.828 810.285 L 1500.000 898.570 1663.708 902.595 C 1826.340 906.592,1827.543 906.684,1846.672 916.528 C 1858.106 922.412,1870.816 933.389,1877.963 943.553 C 1888.924 959.138,1890.124 964.046,1891.390 998.454 L 1892.780 1036.239 1876.305 1058.061 C 1867.243 1070.063,1854.018 1082.892,1846.915 1086.571 C 1829.066 1095.814,1766.970 1099.435,1621.000 1099.744 L 1500.000 1100.000 1499.912 1155.000 C 1499.864 1185.250,1498.114 1261.225,1496.023 1323.833 L 1492.223 1437.666 1480.763 1453.485 C 1474.461 1462.186,1461.634 1474.861,1452.258 1481.652 C 1436.285 1493.223,1432.998 1494.000,1400.000 1494.000 C 1367.002 1494.000,1363.715 1493.223,1347.742 1481.652 C 1338.366 1474.861,1325.561 1462.216,1319.285 1453.552 L 1307.874 1437.799 1304.041 1329.900 C 1301.932 1270.555,1300.161 1194.799,1300.104 1161.554 L 1300.000 1101.108 1141.000 1098.865 C 1042.182 1097.471,976.369 1094.932,967.124 1092.157 C 947.478 1086.261,930.316 1071.364,916.922 1048.578 C 907.825 1033.104,906.000 1025.303,906.000 1001.893 C 906.000 965.178,918.470 939.305,944.685 921.624 C 967.087 906.516,979.493 905.398,1168.255 901.479 L 1298.510 898.774 1302.616 734.069 C 1306.640 572.625,1306.907 569.035,1316.066 552.737 C 1324.931 536.964,1339.046 524.972,1366.000 510.311 C 1379.363 503.043,1425.488 504.405,1441.381 512.536 M269.249 607.399 C 252.718 612.313,225.604 634.716,212.809 654.033 L 200.000 673.372 200.098 1345.686 C 200.163 1793.072,201.576 2024.022,204.323 2036.000 C 216.466 2088.957,260.782 2148.406,306.352 2172.868 C 352.795 2197.799,325.089 2196.556,884.000 2198.792 C 1382.872 2200.788,1722.898 2196.794,1744.167 2188.688 C 1770.129 2178.794,1796.343 2134.919,1796.606 2100.919 C 1796.859 2068.281,1776.130 2030.480,1750.793 2017.374 C 1730.799 2007.032,1628.607 2004.945,984.136 2001.714 L 400.000 1998.785 399.627 1602.392 C 399.421 1384.377,397.995 1084.500,396.457 936.000 C 393.300 631.112,395.635 651.438,360.868 626.177 C 334.034 606.681,297.118 599.114,269.249 607.399 " fill="#1D1E23" stroke="none" fill-rule="evenodd"/></svg>