<svg viewBox="0 0 2400 2400" fill="none" xmlns="http://www.w3.org/2000/svg"><path d="M400 700C400 644.772 355.228 600 300 600C244.772 600 200 644.772 200 700V2000C200 2110 290 2200 400 2200H1700C1755.23 2200 1800 2155.23 1800 2100C1800 2044.77 1755.23 2000 1700 2000H400V700ZM2000 200H800C690 200 600 290 600 400V1600C600 1710 690 1800 800 1800H2000C2110 1800 2200 1710 2200 1600V400C2200 290 2110 200 2000 200ZM1900 1000C1900 1055.23 1855.23 1100 1800 1100H1500V1400C1500 1455.23 1455.23 1500 1400 1500C1344.77 1500 1300 1455.23 1300 1400V1100H1000C944.772 1100 900 1055.23 900 1000C900 944.772 944.772 900 1000 900H1300V600C1300 544.772 1344.77 500 1400 500C1455.23 500 1500 544.772 1500 600V900H1800C1855.23 900 1900 944.772 1900 1000Z" fill="#1D1E23"/></svg>