<svg viewBox="0 0 2400 2400" fill="none" xmlns="http://www.w3.org/2000/svg"><path d="M768.000 202.643 C 747.276 206.013,709.256 221.536,689.052 234.877 C 647.077 262.593,614.625 310.264,604.420 359.197 C 598.181 389.114,598.181 1610.886,604.420 1640.803 C 620.053 1715.765,684.235 1779.947,759.197 1795.580 C 789.114 1801.819,2010.886 1801.819,2040.803 1795.580 C 2115.765 1779.947,2179.947 1715.765,2195.580 1640.803 C 2201.819 1610.886,2201.819 389.114,2195.580 359.197 C 2181.788 293.062,2134.082 238.710,2066.000 211.568 L 2042.000 202.000 1410.000 201.509 C 1062.400 201.238,773.500 201.749,768.000 202.643 M1434.017 506.625 C 1459.335 515.251,1484.749 540.665,1493.375 565.983 C 1499.100 582.783,1500.000 606.802,1500.000 742.713 L 1500.000 900.000 1657.287 900.000 C 1836.235 900.000,1840.860 900.650,1870.105 929.895 C 1909.232 969.021,1909.232 1030.979,1870.105 1070.105 C 1840.860 1099.350,1836.235 1100.000,1657.287 1100.000 L 1500.000 1100.000 1500.000 1257.287 C 1500.000 1436.235,1499.350 1440.860,1470.105 1470.105 C 1430.979 1509.232,1369.021 1509.232,1329.895 1470.105 C 1300.650 1440.860,1300.000 1436.235,1300.000 1257.287 L 1300.000 1100.000 1142.713 1100.000 C 963.765 1100.000,959.140 1099.350,929.895 1070.105 C 890.768 1030.979,890.768 969.021,929.895 929.895 C 959.140 900.650,963.765 900.000,1142.713 900.000 L 1300.000 900.000 1300.000 742.713 C 1300.000 563.690,1300.639 559.151,1329.967 529.823 C 1357.748 502.041,1395.720 493.575,1434.017 506.625 M266.363 606.293 C 243.583 614.639,225.689 629.702,213.089 651.136 L 202.000 670.000 200.818 1342.000 C 199.960 1829.493,200.877 2020.590,204.158 2038.000 C 218.526 2114.238,282.903 2179.669,359.197 2195.580 C 374.181 2198.704,575.922 2200.000,1047.484 2200.000 C 1796.596 2200.000,1737.777 2202.433,1770.105 2170.105 C 1809.232 2130.979,1809.232 2069.021,1770.105 2029.895 C 1737.794 1997.583,1795.416 2000.000,1057.287 2000.000 L 400.000 2000.000 400.000 1342.713 C 400.000 604.584,402.417 662.206,370.105 629.895 C 342.868 602.658,301.791 593.312,266.363 606.293 " fill="#1D1E23" stroke="none" fill-rule="evenodd"/></svg>