<svg viewBox="0 0 2400 2400" fill="none" xmlns="http://www.w3.org/2000/svg"><path d="M896.000 203.804 L 746.000 206.000 714.898 221.199 C 673.009 241.670,642.145 272.244,621.900 313.325 C 608.044 341.441,606.157 349.022,603.484 387.325 C 599.600 442.986,599.600 1557.014,603.484 1612.675 C 606.149 1650.862,608.061 1658.585,621.663 1686.107 C 641.808 1726.867,673.133 1758.192,713.893 1778.337 C 741.415 1791.939,749.138 1793.851,787.325 1796.516 C 842.986 1800.400,1957.014 1800.400,2012.675 1796.516 C 2050.862 1793.851,2058.585 1791.939,2086.107 1778.337 C 2126.825 1758.213,2158.196 1726.860,2178.285 1686.212 C 2192.396 1657.660,2193.670 1652.081,2196.876 1604.780 C 2198.770 1576.851,2199.797 1284.900,2199.159 956.000 L 2198.000 358.000 2188.375 334.000 C 2167.129 281.027,2134.164 245.657,2082.797 220.720 L 2050.000 204.798 1548.000 203.203 C 1271.900 202.326,978.500 202.597,896.000 203.804 M1443.296 511.719 C 1460.771 520.727,1480.243 540.622,1490.552 560.000 C 1497.396 572.865,1498.106 587.189,1499.311 736.626 L 1500.622 899.252 1663.311 900.779 C 1842.379 902.460,1841.763 902.379,1867.275 927.891 C 1888.830 949.445,1897.704 970.475,1897.704 1000.000 C 1897.704 1029.525,1888.830 1050.555,1867.275 1072.109 C 1841.411 1097.973,1842.604 1097.815,1663.374 1099.251 L 1500.749 1100.555 1499.221 1263.277 C 1497.523 1444.116,1497.791 1442.222,1470.197 1469.021 C 1448.225 1490.359,1430.146 1497.761,1400.000 1497.761 C 1369.854 1497.761,1351.775 1490.359,1329.803 1469.021 C 1302.209 1442.222,1302.477 1444.116,1300.779 1263.277 L 1299.251 1100.555 1136.626 1099.251 C 957.396 1097.815,958.589 1097.973,932.725 1072.109 C 911.170 1050.555,902.296 1029.525,902.296 1000.000 C 902.296 970.475,911.170 949.445,932.725 927.891 C 958.241 902.374,957.590 902.461,1137.000 900.777 L 1300.000 899.247 1300.176 758.624 C 1300.380 594.764,1302.709 566.014,1317.487 544.861 C 1345.635 504.573,1401.092 489.963,1443.296 511.719 M277.328 603.647 C 247.144 611.289,222.669 631.764,206.620 662.801 C 200.536 674.566,200.017 728.983,200.216 1334.801 C 200.334 1697.361,201.904 2008.037,203.703 2025.194 C 210.417 2089.201,252.711 2148.099,313.553 2178.169 C 340.115 2191.296,349.352 2193.652,386.442 2196.760 C 409.922 2198.727,717.147 2199.675,1073.458 2198.880 C 1579.047 2197.752,1722.147 2196.344,1737.235 2192.347 C 1753.237 2188.108,1759.442 2183.465,1774.150 2164.727 C 1806.224 2123.860,1807.402 2080.053,1777.519 2039.345 C 1756.381 2010.550,1748.443 2007.755,1676.451 2003.765 C 1642.103 2001.862,1340.920 2000.236,1007.156 2000.152 L 400.312 2000.000 398.881 1341.000 C 397.764 826.910,396.339 677.823,392.401 663.003 C 387.164 643.293,369.030 624.621,341.626 610.719 C 326.251 602.919,294.148 599.389,277.328 603.647 " fill="#1D1E23" stroke="none" fill-rule="evenodd"/></svg>