<svg viewBox="0 0 2400 2400" fill="none" xmlns="http://www.w3.org/2000/svg"><path d="M876.000 207.852 L 738.000 210.000 712.136 223.494 C 683.064 238.661,642.853 276.667,626.853 304.099 C 621.047 314.053,613.080 333.853,609.148 348.099 C 602.425 372.461,602.000 411.196,602.000 1000.000 C 602.000 1586.882,602.443 1627.604,609.090 1651.673 C 621.378 1696.172,651.249 1735.772,694.870 1765.395 C 746.673 1800.573,691.020 1798.000,1400.000 1798.000 C 2108.680 1798.000,2053.366 1800.546,2104.898 1765.553 C 2147.187 1736.837,2178.350 1696.302,2190.660 1654.000 C 2197.149 1631.702,2197.743 1584.817,2199.035 993.021 L 2200.426 356.041 2183.288 323.021 C 2160.689 279.480,2125.265 243.994,2081.446 221.000 L 2049.051 204.000 1531.525 204.852 C 1246.886 205.321,951.900 206.671,876.000 207.852 M1451.006 517.817 C 1459.731 523.591,1472.793 536.563,1480.032 546.643 C 1493.176 564.945,1493.198 565.055,1496.393 629.485 C 1498.153 664.968,1499.684 740.072,1499.796 796.382 L 1500.000 898.765 1645.000 901.504 C 1829.135 904.983,1836.315 905.669,1857.477 921.788 C 1884.257 942.187,1894.011 963.824,1893.943 1002.685 C 1893.891 1032.906,1892.943 1036.674,1881.364 1052.685 C 1874.477 1062.208,1862.354 1075.263,1854.424 1081.697 C 1840.520 1092.977,1837.978 1093.502,1783.004 1096.441 C 1751.652 1098.117,1675.150 1099.603,1613.000 1099.744 L 1500.000 1100.000 1499.809 1167.000 C 1499.704 1203.850,1498.120 1279.629,1496.287 1335.398 L 1492.956 1436.796 1481.366 1453.286 C 1474.992 1462.356,1462.022 1475.227,1452.544 1481.888 C 1436.514 1493.154,1432.846 1494.000,1400.000 1494.000 C 1367.154 1494.000,1363.486 1493.154,1347.456 1481.888 C 1337.978 1475.227,1325.019 1462.372,1318.658 1453.321 L 1307.093 1436.866 1303.724 1337.433 C 1301.872 1282.745,1300.276 1206.950,1300.178 1169.000 L 1300.000 1100.000 1187.000 1099.744 C 1124.850 1099.603,1048.348 1098.117,1016.996 1096.441 C 962.022 1093.502,959.480 1092.977,945.576 1081.697 C 920.986 1061.747,907.831 1039.968,905.247 1014.924 C 900.895 972.756,915.855 938.798,948.222 917.379 C 963.487 907.276,965.760 907.005,1062.898 903.714 C 1117.404 901.867,1192.765 900.276,1230.367 900.178 L 1298.735 900.000 1301.621 745.000 C 1303.209 659.750,1305.973 582.233,1307.764 572.741 C 1312.067 549.935,1329.908 528.619,1356.430 514.594 C 1375.953 504.271,1380.711 503.385,1406.571 505.254 C 1428.412 506.832,1438.877 509.791,1451.006 517.817 M265.841 608.257 C 248.973 613.162,221.961 637.229,209.546 658.413 L 199.149 676.155 200.846 1355.077 L 202.544 2034.000 211.579 2059.784 C 234.409 2124.940,286.554 2173.908,351.669 2191.339 C 370.789 2196.458,448.481 2197.541,892.000 2198.870 C 1423.695 2200.464,1723.458 2196.683,1746.760 2188.090 C 1771.323 2179.032,1797.489 2133.787,1797.704 2100.000 C 1797.818 2082.140,1795.159 2073.111,1783.575 2052.021 C 1764.450 2017.204,1755.239 2012.365,1699.161 2007.675 C 1674.322 2005.598,1372.130 2002.752,1027.623 2001.352 L 401.246 1998.805 398.568 1344.403 C 397.096 984.481,394.340 681.047,392.444 670.105 C 389.538 653.337,385.826 647.294,368.825 631.662 C 341.304 606.356,302.615 597.564,265.841 608.257 " fill="#1D1E23" stroke="none" fill-rule="evenodd"/></svg>