<svg viewBox="0 0 2400 2400" fill="none" xmlns="http://www.w3.org/2000/svg"><path d="M760.998 649.964 C 753.847 653.072,697.147 704.996,634.998 765.351 C 496.698 899.658,237.820 1160.436,222.222 1181.155 C 211.772 1195.037,211.264 1197.221,216.167 1207.155 C 222.955 1220.910,732.580 1730.113,754.706 1745.250 C 768.576 1754.738,775.217 1756.500,797.106 1756.500 C 838.268 1756.500,865.945 1740.529,887.078 1704.578 C 896.193 1689.073,898.000 1681.320,898.000 1657.708 C 898.000 1633.724,896.369 1626.951,887.287 1613.227 C 881.395 1604.324,810.601 1530.275,729.967 1448.674 L 583.360 1300.309 1300.680 1298.881 C 1858.501 1297.771,2022.177 1296.340,2036.786 1292.448 C 2049.980 1288.933,2059.919 1282.632,2070.175 1271.280 C 2099.283 1239.060,2098.000 1251.570,2098.000 1000.000 L 2098.000 774.000 2088.799 755.321 C 2072.677 722.593,2038.932 702.533,2000.000 702.533 C 1970.209 702.533,1953.986 709.297,1930.670 731.441 C 1900.910 759.705,1902.140 751.332,1900.758 935.000 L 1899.517 1100.000 1241.286 1100.000 L 583.055 1100.000 729.815 951.481 C 810.532 869.795,880.996 796.279,886.401 788.112 C 925.674 728.766,873.744 643.677,798.543 644.157 C 785.044 644.243,768.149 646.856,760.998 649.964 " fill="#1D1E23" stroke="none" fill-rule="evenodd"/></svg>