<svg viewBox="0 0 2400 2400" fill="none" xmlns="http://www.w3.org/2000/svg"><path d="M771.265 646.609 C 764.853 647.727,740.691 666.391,711.265 692.959 C 653.058 745.510,238.635 1159.168,222.166 1181.155 C 212.206 1194.452,211.422 1197.445,215.769 1205.569 C 220.861 1215.084,727.187 1722.499,751.585 1742.538 C 762.551 1751.545,770.102 1754.009,790.759 1755.325 C 857.948 1759.603,907.509 1706.805,897.701 1641.398 C 893.989 1616.648,883.265 1604.415,720.744 1439.545 L 584.262 1301.090 1303.131 1298.879 C 1840.948 1297.225,2026.030 1295.471,2038.000 1291.916 C 2057.908 1286.004,2085.827 1257.828,2092.239 1237.177 C 2095.504 1226.660,2097.558 1154.201,2098.928 1001.198 L 2100.905 780.396 2092.050 762.103 C 2073.514 723.812,2042.744 704.234,2000.872 704.088 C 1970.625 703.982,1954.457 710.194,1931.830 730.611 C 1901.974 757.553,1902.493 754.101,1900.777 937.000 L 1899.247 1100.000 1240.651 1100.000 L 582.056 1100.000 688.193 993.000 C 890.865 788.682,899.692 778.319,899.912 744.464 C 900.133 710.453,875.536 672.088,842.802 655.389 C 826.737 647.193,792.222 642.957,771.265 646.609 " fill="#1D1E23" stroke="none" fill-rule="evenodd"/></svg>