<svg viewBox="0 0 2400 2400" fill="none" xmlns="http://www.w3.org/2000/svg"><path d="M753.230 659.569 C 688.305 706.601,216.000 1178.426,216.000 1196.254 C 216.000 1200.609,240.798 1230.222,273.528 1264.954 C 361.558 1358.367,723.026 1716.306,748.839 1735.625 C 776.321 1756.193,793.833 1759.523,825.736 1750.249 C 856.199 1741.393,880.934 1718.657,891.852 1689.477 C 912.138 1635.259,909.964 1632.280,676.259 1394.082 L 590.000 1306.164 610.000 1303.460 C 621.000 1301.973,936.000 1299.621,1310.000 1298.233 C 1684.000 1296.846,2003.190 1294.397,2019.312 1292.792 C 2047.944 1289.941,2049.070 1289.405,2067.931 1269.633 C 2079.253 1257.764,2089.078 1242.899,2091.685 1233.696 C 2094.544 1223.600,2097.051 1139.195,2098.712 997.121 L 2101.294 776.243 2086.641 754.174 C 2068.611 727.019,2048.889 713.517,2018.270 707.368 C 1989.643 701.619,1967.472 706.475,1941.845 724.106 C 1910.194 745.883,1906.943 753.820,1903.528 817.640 C 1901.869 848.638,1900.397 924.850,1900.256 987.000 L 1900.000 1100.000 1241.508 1100.000 L 583.016 1100.000 703.460 977.887 C 875.136 803.833,900.000 774.092,900.000 742.798 C 900.000 735.362,894.447 718.165,887.660 704.583 C 868.240 665.720,839.535 648.506,793.600 648.176 C 772.881 648.026,766.791 649.745,753.230 659.569 " fill="#1D1E23" stroke="none" fill-rule="evenodd"/></svg>