<svg viewBox="0 0 2400 2400" fill="none" xmlns="http://www.w3.org/2000/svg"><path d="M774.000 646.911 C 756.633 651.020,716.350 687.457,560.351 840.163 C 390.386 1006.541,224.676 1175.629,216.479 1191.046 C 212.002 1199.466,215.529 1204.173,267.435 1259.046 C 298.106 1291.471,420.130 1414.506,538.600 1532.457 C 773.396 1766.226,764.788 1759.102,807.187 1754.726 C 852.440 1750.056,886.803 1720.660,896.225 1678.557 C 902.834 1649.023,898.772 1632.469,878.224 1605.207 C 868.604 1592.443,799.368 1519.615,724.366 1443.366 C 649.365 1367.117,588.000 1303.667,588.000 1302.366 C 588.000 1301.065,815.250 1299.812,1093.000 1299.581 C 1370.750 1299.351,1697.081 1298.001,1818.180 1296.581 C 2010.952 1294.321,2039.583 1293.199,2048.180 1287.562 C 2066.332 1275.661,2088.123 1250.187,2092.256 1236.036 C 2094.695 1227.684,2097.341 1131.879,2098.790 999.463 L 2101.225 776.926 2091.976 761.463 C 2069.922 724.592,2044.769 708.104,2005.807 704.976 C 1986.902 703.459,1977.269 704.834,1963.200 711.057 C 1938.316 722.064,1913.097 745.795,1907.580 763.394 C 1904.612 772.862,1902.320 834.639,1901.064 939.000 L 1899.126 1100.000 1240.593 1100.000 L 582.060 1100.000 680.471 1001.000 C 872.091 808.233,900.000 775.744,900.000 745.450 C 900.000 712.132,873.590 671.055,842.989 656.776 C 825.790 648.751,788.663 643.442,774.000 646.911 " fill="#1D1E23" stroke="none" fill-rule="evenodd"/></svg>