<svg viewBox="0 0 2400 2400" fill="none" xmlns="http://www.w3.org/2000/svg"><path d="M2000 700C1944.77 700 1900 744.772 1900 800V1100H583L870.647 811.549C909.518 772.57 909.474 709.474 870.549 670.549C831.586 631.586 768.414 631.586 729.451 670.549L217.678 1182.32C207.915 1192.09 207.915 1207.91 217.678 1217.68L729.451 1729.45C768.414 1768.41 831.586 1768.41 870.549 1729.45C909.474 1690.53 909.518 1627.43 870.647 1588.45L583 1300H2000C2055.23 1300 2100 1255.23 2100 1200V800C2100 744.772 2055.23 700 2000 700Z" fill="#1D1E23"/></svg>