<svg viewBox="0 0 2400 2400" fill="none" xmlns="http://www.w3.org/2000/svg"><path d="M835.311 413.522 C 803.203 426.728,764.293 455.697,744.901 480.832 C 681.224 563.369,687.139 656.749,760.966 734.470 C 793.505 768.724,830.265 789.383,871.479 796.577 C 934.796 807.628,1013.786 774.377,1055.516 719.106 C 1100.259 659.844,1109.528 594.562,1083.037 525.267 C 1070.848 493.382,1024.469 444.670,990.269 427.834 C 937.423 401.818,877.273 396.263,835.311 413.522 M1464.097 410.412 C 1435.431 418.116,1413.627 431.213,1384.362 458.307 C 1340.374 499.032,1318.440 545.512,1318.440 598.000 C 1318.440 663.852,1364.493 741.226,1422.468 772.780 C 1453.308 789.565,1501.558 801.398,1527.864 798.628 C 1578.347 793.311,1620.986 771.069,1659.381 730.025 C 1686.903 700.604,1701.909 671.419,1710.961 629.703 C 1716.927 602.212,1716.909 597.691,1710.717 569.000 C 1700.692 522.552,1684.592 493.301,1652.264 462.804 C 1598.762 412.333,1529.114 392.941,1464.097 410.412 M853.555 1009.954 C 808.264 1019.806,768.390 1047.204,738.614 1088.930 C 680.045 1171.007,689.240 1262.004,763.618 1336.382 C 822.322 1395.085,887.234 1412.347,957.880 1388.041 C 990.365 1376.865,1015.547 1359.780,1043.362 1330.046 C 1069.358 1302.256,1084.485 1274.741,1093.878 1238.160 C 1109.028 1179.161,1091.838 1121.946,1043.403 1070.161 C 992.096 1015.304,925.722 994.255,853.555 1009.954 M1467.579 1009.496 C 1436.975 1016.083,1404.086 1036.855,1374.145 1068.508 C 1345.912 1098.354,1331.232 1125.304,1321.399 1165.338 C 1305.412 1230.425,1339.061 1310.870,1402.000 1358.027 C 1445.855 1390.886,1493.897 1402.924,1545.447 1393.973 C 1622.186 1380.647,1674.306 1336.152,1701.456 1260.790 C 1721.544 1205.030,1719.686 1172.555,1693.205 1116.568 C 1653.704 1033.055,1561.474 989.287,1467.579 1009.496 M835.311 1613.522 C 803.203 1626.728,764.293 1655.697,744.901 1680.832 C 681.224 1763.369,687.139 1856.749,760.966 1934.470 C 793.505 1968.724,830.265 1989.383,871.479 1996.577 C 934.796 2007.628,1013.786 1974.377,1055.516 1919.106 C 1100.259 1859.844,1109.528 1794.562,1083.037 1725.267 C 1070.848 1693.382,1024.469 1644.670,990.269 1627.834 C 937.423 1601.818,877.273 1596.263,835.311 1613.522 M1464.097 1610.412 C 1435.431 1618.116,1413.627 1631.213,1384.362 1658.307 C 1340.374 1699.032,1318.440 1745.512,1318.440 1798.000 C 1318.440 1863.852,1364.493 1941.226,1422.468 1972.780 C 1453.308 1989.565,1501.558 2001.398,1527.864 1998.628 C 1578.347 1993.311,1620.986 1971.069,1659.381 1930.025 C 1686.903 1900.604,1701.909 1871.419,1710.961 1829.703 C 1716.927 1802.212,1716.909 1797.691,1710.717 1769.000 C 1700.692 1722.552,1684.592 1693.301,1652.264 1662.804 C 1598.762 1612.333,1529.114 1592.941,1464.097 1610.412 " fill="#1D1E23" stroke="none" fill-rule="evenodd"/></svg>