<svg viewBox="0 0 2400 2400" fill="none" xmlns="http://www.w3.org/2000/svg"><path d="M1708.000 244.000 C 1700.344 251.656,1700.000 257.333,1700.000 376.000 L 1700.000 500.000 1142.503 500.000 C 534.989 500.000,568.081 498.785,537.364 522.214 C 530.112 527.745,519.188 540.760,513.089 551.136 L 502.000 570.000 500.871 791.092 C 500.121 937.726,501.168 1017.484,503.979 1027.924 C 510.087 1050.605,531.127 1076.047,553.149 1087.380 C 593.162 1107.971,638.975 1101.235,670.014 1070.196 C 699.364 1040.847,700.000 1036.330,700.000 857.287 L 700.000 700.000 1200.000 700.000 L 1700.000 700.000 1700.000 823.110 C 1700.000 928.060,1700.919 947.531,1706.227 955.110 C 1721.256 976.567,1722.445 975.590,1911.017 786.983 C 2065.492 632.479,2088.000 608.444,2088.000 597.992 C 2088.000 587.540,2065.735 563.770,1912.862 411.009 C 1725.823 224.107,1726.963 225.037,1708.000 244.000 M1766.363 1306.293 C 1743.583 1314.639,1725.689 1329.702,1713.089 1351.136 L 1702.000 1370.000 1700.833 1535.000 L 1699.666 1700.000 1199.833 1700.000 L 700.000 1700.000 700.000 1576.000 C 700.000 1457.333,699.656 1451.656,692.000 1444.000 C 673.037 1425.037,674.177 1424.107,487.138 1611.009 C 334.047 1763.987,312.000 1787.530,312.000 1798.026 C 312.000 1808.523,334.277 1832.306,489.017 1987.017 C 677.556 2175.521,678.776 2176.522,693.773 2155.110 C 699.081 2147.531,700.000 2128.060,700.000 2023.110 L 700.000 1900.000 1257.287 1900.000 C 1883.394 1900.000,1837.996 1902.215,1870.105 1870.105 C 1900.316 1839.895,1900.000 1842.749,1900.000 1600.000 C 1900.000 1357.251,1900.316 1360.105,1870.105 1329.895 C 1842.868 1302.658,1801.791 1293.312,1766.363 1306.293 " fill="#1D1E23" stroke="none" fill-rule="evenodd"/></svg>