<svg viewBox="0 0 2400 2400" fill="none" xmlns="http://www.w3.org/2000/svg"><path d="M1709.092 246.820 C 1702.782 256.446,1701.847 271.009,1700.609 378.820 L 1699.218 500.000 1454.609 500.187 C 1078.449 500.476,593.282 506.839,568.079 511.815 C 541.122 517.136,514.386 540.895,507.186 565.926 C 503.955 577.158,502.477 648.269,502.281 802.000 C 501.961 1052.711,499.693 1035.417,537.583 1071.252 C 555.257 1087.967,561.736 1091.488,579.255 1093.898 C 613.926 1098.666,637.652 1093.288,660.048 1075.585 C 670.920 1066.991,682.843 1054.119,686.543 1046.980 C 695.690 1029.330,699.579 961.933,699.812 817.000 L 700.000 700.000 1200.000 700.000 L 1700.000 700.000 1700.473 815.000 C 1700.734 878.250,1702.084 935.208,1703.473 941.572 C 1707.061 958.006,1716.689 963.056,1730.740 955.876 C 1736.933 952.711,1818.950 873.573,1913.000 780.012 C 2060.245 633.534,2084.000 608.285,2084.000 598.254 C 2084.000 588.259,2061.150 563.672,1923.000 425.012 C 1773.645 275.106,1731.760 236.000,1720.556 236.000 C 1718.152 236.000,1712.993 240.869,1709.092 246.820 M1766.992 1309.707 C 1746.443 1317.040,1725.752 1333.524,1713.102 1352.639 L 1702.520 1368.630 1700.736 1534.315 L 1698.953 1700.000 1199.476 1700.000 L 700.000 1700.000 700.000 1578.223 L 700.000 1456.446 690.477 1445.376 L 680.955 1434.305 665.477 1444.612 C 623.546 1472.537,316.000 1781.913,316.000 1796.169 C 316.000 1808.621,343.857 1838.711,488.583 1982.587 C 643.873 2136.965,668.680 2160.000,679.644 2160.000 C 696.955 2160.000,697.935 2153.183,699.260 2023.537 L 700.519 1900.289 1259.260 1898.921 C 1656.139 1897.949,1822.509 1896.254,1833.564 1893.070 C 1853.084 1887.449,1886.547 1855.151,1892.604 1836.087 C 1895.588 1826.695,1897.674 1747.345,1898.863 1598.000 L 1900.646 1374.000 1887.572 1354.436 C 1860.382 1313.746,1809.040 1294.701,1766.992 1309.707 " fill="#1D1E23" stroke="none" fill-rule="evenodd"/></svg>