<svg viewBox="0 0 2400 2400" fill="none" xmlns="http://www.w3.org/2000/svg"><path d="M1708.290 246.539 C 1700.317 256.676,1700.000 261.718,1700.000 378.539 L 1700.000 500.000 1185.000 500.196 C 901.750 500.304,645.350 501.896,615.222 503.733 C 554.823 507.416,542.044 512.036,523.020 537.062 C 498.862 568.844,500.000 556.358,500.000 789.604 C 500.000 931.798,501.496 1010.580,504.457 1024.388 C 507.696 1039.492,513.385 1050.021,525.277 1062.922 C 548.936 1088.589,568.489 1097.698,600.000 1097.733 C 630.149 1097.766,648.202 1090.382,670.197 1069.021 C 698.147 1041.875,697.801 1044.330,699.253 863.000 L 700.559 700.000 1200.279 700.000 L 1700.000 700.000 1700.399 819.000 C 1700.618 884.450,1702.009 942.330,1703.490 947.621 C 1707.600 962.310,1717.350 966.710,1730.740 959.918 C 1743.481 953.455,2071.268 627.874,2081.825 611.196 C 2086.291 604.140,2087.666 597.202,2085.789 591.196 C 2082.366 580.247,1769.802 266.453,1744.400 248.464 C 1722.971 233.288,1718.885 233.071,1708.290 246.539 M1777.328 1303.647 C 1758.635 1308.380,1731.185 1325.607,1721.620 1338.609 C 1699.352 1368.876,1700.000 1362.910,1700.000 1537.801 L 1700.000 1700.000 1200.000 1700.000 L 700.000 1700.000 700.000 1578.223 L 700.000 1456.446 690.296 1445.223 L 680.592 1434.000 665.296 1441.810 C 646.628 1451.342,318.216 1778.135,314.179 1791.196 C 312.332 1797.170,313.732 1804.177,318.175 1811.196 C 328.732 1827.874,656.519 2153.455,669.260 2159.918 C 682.650 2166.710,692.400 2162.310,696.510 2147.621 C 697.991 2142.330,699.382 2084.526,699.601 2019.169 L 700.000 1900.337 1261.000 1899.002 C 1699.283 1897.958,1825.305 1896.561,1837.109 1892.615 C 1857.801 1885.697,1877.646 1867.324,1888.728 1844.824 L 1898.000 1826.000 1898.000 1600.000 L 1898.000 1374.000 1888.799 1355.321 C 1870.011 1317.183,1818.388 1293.252,1777.328 1303.647 " fill="#1D1E23" stroke="none" fill-rule="evenodd"/></svg>