<svg viewBox="0 0 2400 2400" fill="none" xmlns="http://www.w3.org/2000/svg"><path d="M360.226 204.334 C 306.919 214.871,248.788 258.896,224.406 307.196 C 198.505 358.506,200.124 294.857,200.059 1264.110 C 200.006 2056.077,200.636 2147.128,206.227 2155.110 C 221.283 2176.606,222.115 2175.920,416.000 1982.000 L 597.967 1800.000 1308.787 1800.000 C 1812.274 1800.000,2025.789 1798.711,2040.803 1795.580 C 2115.765 1779.947,2179.947 1715.765,2195.580 1640.803 C 2201.819 1610.886,2201.819 389.114,2195.580 359.197 C 2181.788 293.062,2134.082 238.710,2066.000 211.568 L 2042.000 202.000 1210.000 201.410 C 745.558 201.081,370.148 202.373,360.226 204.334 M2000.000 1000.000 L 2000.000 1600.000 1259.048 1600.000 L 518.097 1600.000 459.048 1658.950 L 400.000 1717.900 400.000 1058.950 L 400.000 400.000 1200.000 400.000 L 2000.000 400.000 2000.000 1000.000 M901.062 852.964 L 600.000 1153.928 600.000 1268.964 C 600.000 1378.667,600.371 1384.371,608.000 1392.000 C 615.627 1399.627,621.333 1400.000,730.491 1400.000 L 844.981 1400.000 1142.078 1105.909 C 1322.865 926.952,1441.831 806.221,1445.959 797.521 C 1460.096 767.730,1457.598 764.100,1346.517 653.000 L 1245.534 552.000 1223.829 552.000 L 1202.124 552.000 901.062 852.964 M1150.000 1300.000 L 1050.060 1400.000 1382.317 1400.000 C 1756.528 1400.000,1738.848 1401.363,1770.105 1370.105 C 1809.232 1330.979,1809.232 1269.021,1770.105 1229.895 C 1739.678 1199.468,1744.801 1200.000,1482.257 1200.000 L 1249.940 1200.000 1150.000 1300.000 " fill="#1D1E23" stroke="none" fill-rule="evenodd"/></svg>