<svg viewBox="0 0 2400 2400" fill="none" xmlns="http://www.w3.org/2000/svg"><path d="M368.000 207.662 C 322.827 211.182,276.897 238.688,241.846 283.210 C 211.230 322.099,207.430 337.339,203.752 436.000 C 199.692 544.893,199.473 2055.185,203.508 2113.055 C 207.039 2163.690,210.150 2168.970,230.117 2158.217 C 237.803 2154.078,324.001 2071.786,421.668 1975.346 L 599.244 1800.000 1272.622 1799.804 C 1642.980 1799.696,1970.486 1798.114,2000.413 1796.288 C 2050.004 1793.263,2057.272 1791.806,2082.413 1779.853 C 2119.869 1762.046,2161.972 1720.027,2179.678 1682.780 C 2191.167 1658.613,2193.046 1649.643,2196.431 1602.780 C 2198.675 1571.721,2199.783 1303.896,2199.122 952.000 L 2198.000 354.000 2183.065 322.721 C 2162.058 278.727,2129.502 245.717,2083.878 222.154 L 2048.729 204.000 1223.365 204.662 C 769.414 205.027,384.500 206.377,368.000 207.662 M2000.000 1000.000 L 2000.000 1600.000 1259.048 1600.000 L 518.097 1600.000 459.048 1658.950 L 400.000 1717.900 400.000 1058.950 L 400.000 400.000 1200.000 400.000 L 2000.000 400.000 2000.000 1000.000 M900.990 853.010 L 600.000 1154.020 600.000 1268.313 L 600.000 1382.605 609.258 1391.303 C 618.318 1399.815,620.941 1399.999,732.258 1399.941 L 846.000 1399.882 1122.341 1124.941 C 1274.329 973.724,1410.817 835.614,1425.648 818.031 C 1448.969 790.381,1452.298 784.488,1450.283 774.414 C 1447.004 758.020,1429.820 738.279,1332.559 639.174 L 1247.007 552.000 1224.494 552.000 L 1201.980 552.000 900.990 853.010 M1150.000 1299.934 L 1050.000 1400.734 1388.000 1398.980 C 1677.416 1397.478,1728.012 1396.360,1740.000 1391.203 C 1756.010 1384.316,1786.128 1353.236,1792.556 1336.969 C 1799.517 1319.352,1798.147 1275.734,1790.100 1258.776 C 1779.814 1237.099,1747.663 1209.605,1729.165 1206.666 C 1720.824 1205.341,1609.600 1203.104,1482.000 1201.695 L 1250.000 1199.134 1150.000 1299.934 " fill="#1D1E23" stroke="none" fill-rule="evenodd"/></svg>