<svg viewBox="0 0 2400 2400" fill="none" xmlns="http://www.w3.org/2000/svg"><path d="M584.000 203.753 L 346.000 206.000 318.713 219.341 C 279.625 238.452,239.752 277.292,221.679 313.860 C 207.998 341.542,207.295 345.109,203.849 404.339 C 199.843 473.203,199.485 2091.351,203.468 2131.589 C 206.475 2161.973,213.145 2168.884,230.740 2159.847 C 236.933 2156.665,322.228 2074.399,420.285 1977.031 L 598.569 1800.000 1288.285 1799.806 C 1667.628 1799.699,1995.494 1798.201,2016.875 1796.476 C 2050.208 1793.787,2060.105 1791.188,2086.307 1778.238 C 2126.813 1758.219,2158.235 1726.780,2178.285 1686.212 C 2192.396 1657.660,2193.670 1652.081,2196.876 1604.780 C 2198.770 1576.851,2199.797 1284.900,2199.159 956.000 L 2198.000 358.000 2188.375 334.000 C 2167.139 281.051,2134.179 245.678,2082.797 220.694 L 2050.000 204.747 1436.000 203.126 C 1098.300 202.235,714.900 202.516,584.000 203.753 M2000.000 1000.000 L 2000.000 1600.000 1259.048 1600.000 L 518.097 1600.000 459.048 1658.950 L 400.000 1717.900 400.000 1058.950 L 400.000 400.000 1200.000 400.000 L 2000.000 400.000 2000.000 1000.000 M900.990 853.010 L 600.000 1154.020 600.000 1267.192 L 600.000 1380.364 609.818 1390.182 L 619.636 1400.000 732.153 1400.000 L 844.670 1400.000 1084.513 1163.000 C 1352.511 898.179,1446.506 801.344,1450.323 786.138 C 1451.744 780.477,1450.501 770.030,1447.562 762.922 C 1444.613 755.794,1398.416 705.614,1344.523 651.000 L 1246.828 552.000 1224.404 552.000 L 1201.980 552.000 900.990 853.010 M1150.000 1299.927 L 1050.000 1400.276 1386.000 1398.947 C 1643.502 1397.928,1725.564 1396.433,1737.255 1392.550 C 1754.978 1386.663,1779.921 1362.473,1790.437 1340.975 C 1800.308 1320.793,1800.308 1279.207,1790.437 1259.025 C 1779.876 1237.433,1754.922 1213.297,1737.255 1207.585 C 1726.108 1203.981,1658.448 1202.239,1486.000 1201.116 L 1250.000 1199.579 1150.000 1299.927 " fill="#1D1E23" stroke="none" fill-rule="evenodd"/></svg>