<svg viewBox="0 0 2400 2400" fill="none" xmlns="http://www.w3.org/2000/svg"><path d="M708.000 207.857 L 342.000 210.000 318.000 221.889 C 288.544 236.480,233.122 290.213,220.746 316.179 C 202.541 354.374,202.312 366.178,202.151 1274.000 C 201.991 2183.352,201.520 2160.000,220.011 2160.000 C 230.507 2160.000,288.959 2105.822,454.625 1942.542 L 599.250 1800.000 1198.625 1799.814 C 1781.132 1799.633,2029.653 1796.362,2061.526 1788.456 C 2099.549 1779.025,2156.023 1727.256,2178.998 1680.770 L 2194.000 1650.417 2196.617 1538.208 C 2198.057 1476.494,2199.407 1185.190,2199.617 890.867 L 2200.000 355.734 2189.522 334.867 C 2162.522 281.096,2130.533 248.370,2075.668 218.389 L 2049.336 204.000 1561.668 204.857 C 1293.451 205.329,909.300 206.679,708.000 207.857 M2000.000 1000.000 L 2000.000 1600.000 1259.048 1600.000 L 518.097 1600.000 459.048 1658.950 L 400.000 1717.900 400.000 1058.950 L 400.000 400.000 1200.000 400.000 L 2000.000 400.000 2000.000 1000.000 M900.990 853.010 L 600.000 1154.020 600.000 1266.245 C 600.000 1353.485,601.188 1380.096,605.336 1385.769 C 613.444 1396.857,640.389 1399.500,748.013 1399.762 L 846.026 1400.000 1076.208 1169.000 C 1364.926 879.257,1446.343 795.523,1449.732 784.845 C 1455.232 767.515,1435.177 743.371,1310.315 617.000 L 1246.091 552.000 1224.036 552.000 L 1201.980 552.000 900.990 853.010 M1150.030 1299.657 L 1050.060 1400.000 1318.030 1399.819 C 1624.062 1399.612,1727.843 1396.424,1746.744 1386.649 C 1763.032 1378.227,1786.556 1350.495,1792.379 1332.852 C 1795.012 1324.875,1796.151 1307.086,1795.031 1291.438 C 1792.664 1258.355,1781.515 1239.056,1754.389 1221.089 C 1736.996 1209.569,1733.472 1208.850,1683.046 1206.541 C 1653.871 1205.205,1544.500 1203.033,1440.000 1201.713 L 1250.000 1199.315 1150.030 1299.657 " fill="#1D1E23" stroke="none" fill-rule="evenodd"/></svg>