<svg viewBox="0 0 2400 2400" fill="none" xmlns="http://www.w3.org/2000/svg"><path d="M1055.773 380.558 C 977.798 422.545,793.400 522.672,646.000 603.062 C 176.467 859.139,134.011 883.363,129.432 897.791 C 126.332 907.555,139.342 918.988,182.774 944.669 C 235.349 975.755,1009.449 1396.623,1144.710 1467.660 L 1199.419 1496.393 1228.710 1481.686 C 1265.749 1463.089,1447.666 1365.076,1772.000 1188.973 C 1911.700 1113.121,2040.950 1042.971,2059.222 1033.085 C 2077.494 1023.199,2093.027 1015.760,2093.740 1016.555 C 2094.453 1017.350,2097.168 1153.000,2099.772 1318.000 C 2102.377 1483.000,2105.559 1624.265,2106.843 1631.922 C 2109.761 1649.315,2145.025 1685.078,2166.124 1692.041 C 2174.202 1694.707,2193.601 1696.188,2209.761 1695.372 C 2236.475 1694.023,2240.358 1692.671,2257.231 1678.844 C 2294.138 1648.601,2293.350 1651.395,2296.940 1538.143 C 2298.686 1483.064,2299.639 1319.684,2299.057 1175.075 L 2298.000 912.151 2286.000 900.419 C 2279.400 893.966,2235.300 867.204,2188.000 840.948 C 1989.402 730.707,1410.060 416.312,1247.773 330.710 L 1197.547 304.217 1055.773 380.558 M509.092 1346.820 C 502.649 1356.649,501.875 1372.873,500.636 1524.076 C 499.478 1665.254,500.183 1692.695,505.279 1704.891 C 510.081 1716.384,518.380 1723.463,546.643 1740.173 C 636.274 1793.166,992.913 1988.857,1128.714 2059.560 L 1199.428 2096.377 1232.714 2079.681 C 1317.329 2037.241,1781.546 1783.900,1846.000 1744.988 C 1865.800 1733.035,1886.050 1719.508,1891.000 1714.930 L 1900.000 1706.605 1900.000 1530.000 L 1900.000 1353.395 1889.665 1343.697 L 1879.330 1334.000 1830.665 1359.604 C 1803.899 1373.686,1665.900 1447.705,1524.000 1524.091 C 1382.100 1600.477,1251.152 1670.424,1233.004 1679.530 L 1200.009 1696.085 1164.394 1678.198 C 1144.806 1668.360,1015.654 1599.362,877.390 1524.869 C 570.644 1359.603,526.046 1336.000,520.513 1336.000 C 518.132 1336.000,512.993 1340.869,509.092 1346.820 " fill="#1D1E23" stroke="none" fill-rule="evenodd"/></svg>