<svg viewBox="0 0 2400 2400" fill="none" xmlns="http://www.w3.org/2000/svg"><path d="M1182.000 312.767 C 1103.436 352.913,346.686 765.146,212.000 841.166 C 145.129 878.910,128.000 890.874,128.000 899.837 C 128.000 909.983,145.137 923.617,189.012 948.378 C 303.340 1012.897,1113.704 1452.746,1174.993 1483.547 L 1199.986 1496.108 1228.993 1481.544 C 1268.729 1461.593,1466.458 1354.929,1788.000 1179.990 C 2085.111 1018.344,2092.011 1014.678,2094.511 1017.178 C 2095.466 1018.133,2097.828 1154.608,2099.761 1320.457 C 2102.080 1519.536,2104.778 1626.944,2107.701 1636.549 C 2112.498 1652.317,2138.720 1678.996,2160.481 1690.249 C 2175.813 1698.177,2219.415 1699.492,2236.969 1692.556 C 2253.235 1686.129,2284.316 1656.010,2291.205 1640.000 C 2296.368 1628.002,2297.492 1576.245,2299.066 1278.000 C 2300.157 1071.184,2299.402 924.320,2297.204 916.000 C 2294.657 906.361,2288.598 898.732,2277.752 891.509 C 2243.508 868.703,1448.534 435.660,1256.000 334.934 L 1198.000 304.591 1182.000 312.767 M509.092 1346.819 C 502.663 1356.626,501.873 1372.585,500.643 1517.468 C 499.897 1605.375,500.468 1685.177,501.912 1694.806 C 504.151 1709.737,507.266 1714.293,523.090 1725.776 C 551.801 1746.611,965.080 1974.250,1134.705 2062.661 L 1199.411 2096.386 1232.705 2079.688 C 1309.102 2041.375,1760.579 1795.320,1839.153 1749.173 C 1859.587 1737.172,1881.187 1723.156,1887.153 1718.026 L 1898.000 1708.699 1899.160 1531.778 L 1900.321 1354.857 1891.463 1345.428 C 1886.591 1340.243,1880.734 1336.000,1878.447 1336.000 C 1873.176 1336.000,1757.100 1397.528,1518.000 1527.061 C 1414.600 1583.078,1300.749 1644.161,1264.999 1662.802 L 1199.998 1696.694 1136.999 1663.862 C 1102.349 1645.804,976.800 1578.430,858.000 1514.142 C 607.165 1378.405,526.864 1336.000,520.653 1336.000 C 518.195 1336.000,512.993 1340.868,509.092 1346.819 " fill="#1D1E23" stroke="none" fill-rule="evenodd"/></svg>