<svg viewBox="0 0 2400 2400" fill="none" xmlns="http://www.w3.org/2000/svg"><path d="M665.573 591.397 C 377.138 749.029,138.188 880.470,134.573 883.490 C 125.940 890.700,126.175 909.122,135.000 917.042 C 147.744 928.479,1191.788 1496.000,1200.084 1496.000 C 1204.556 1496.000,1405.849 1388.065,1647.402 1256.145 C 1888.954 1124.225,2089.606 1015.133,2093.294 1013.717 C 2099.532 1011.324,2100.002 1032.182,2100.022 1312.572 C 2100.037 1507.879,2101.501 1619.245,2104.182 1628.899 C 2110.297 1650.915,2131.501 1676.239,2153.149 1687.380 C 2193.162 1707.971,2238.975 1701.235,2270.014 1670.196 C 2301.507 1638.704,2300.000 1659.319,2300.000 1259.907 C 2300.000 927.190,2299.567 904.851,2293.000 898.955 C 2279.338 886.689,1206.543 304.007,1198.341 304.397 C 1193.753 304.615,954.008 433.765,665.573 591.397 M508.000 1344.000 C 500.238 1351.762,500.000 1357.333,500.000 1531.235 C 500.000 1668.428,501.173 1712.023,505.000 1717.088 C 511.874 1726.185,1190.132 2096.000,1199.943 2096.000 C 1209.761 2096.000,1888.132 1726.190,1895.000 1717.093 C 1898.827 1712.025,1900.000 1668.425,1900.000 1531.235 C 1900.000 1357.333,1899.762 1351.762,1892.000 1344.000 C 1887.600 1339.600,1880.205 1336.000,1875.568 1336.000 C 1870.930 1336.000,1718.766 1417.000,1537.425 1516.000 C 1356.084 1615.000,1204.187 1696.000,1199.875 1696.000 C 1195.564 1696.000,1043.739 1615.000,862.487 1516.000 C 681.234 1417.000,529.126 1336.000,524.468 1336.000 C 519.811 1336.000,512.400 1339.600,508.000 1344.000 " fill="#1D1E23" stroke="none" fill-rule="evenodd"/></svg>