<svg viewBox="0 0 2400 2400" fill="none" xmlns="http://www.w3.org/2000/svg"><path d="M536.976 1338.18C520.316 1329.09 500 1341.14 500 1360.12V1703.16C500 1712.31 504.995 1720.73 513.024 1725.11L1188.02 2093.46C1195.49 2097.54 1204.51 2097.54 1211.98 2093.46L1886.98 1725.11C1895 1720.73 1900 1712.31 1900 1703.16V1360.12C1900 1341.14 1879.68 1329.09 1863.02 1338.18L1211.98 1693.46C1204.51 1697.54 1195.49 1697.54 1188.02 1693.46L536.976 1338.18ZM1211.97 306.53C1204.51 302.46 1195.49 302.46 1188.03 306.53L140.237 878.053C122.865 887.528 122.865 912.472 140.237 921.947L1188.03 1493.47C1195.49 1497.54 1204.51 1497.54 1211.97 1493.47L2100 1009V1600C2100 1655.23 2144.77 1700 2200 1700C2255.23 1700 2300 1655.23 2300 1600V914.841C2300 905.692 2295 897.274 2286.97 892.893L1211.97 306.53Z" fill="#1D1E23"/></svg>