<svg viewBox="0 0 2400 2400" fill="none" xmlns="http://www.w3.org/2000/svg"><path d="M1037.854 390.574 C 785.700 526.545,309.429 786.887,226.444 834.110 C 184.888 857.758,145.496 881.924,138.906 887.812 C 117.147 907.254,124.972 913.348,284.784 1001.436 C 504.806 1122.710,1120.414 1456.094,1175.284 1483.687 L 1200.568 1496.402 1259.284 1465.688 C 1321.747 1433.014,1592.835 1286.625,1902.000 1118.619 L 2090.000 1016.456 2092.530 1029.228 C 2093.922 1036.253,2097.233 1173.393,2099.888 1333.985 C 2103.475 1550.916,2106.015 1629.059,2109.770 1637.985 C 2116.302 1653.511,2144.262 1681.314,2161.633 1689.558 C 2178.385 1697.507,2219.428 1698.018,2237.419 1690.500 C 2254.686 1683.286,2278.834 1661.858,2286.582 1646.875 C 2296.369 1627.950,2299.674 1516.404,2299.845 1199.356 L 2300.000 912.711 2287.587 902.267 C 2280.760 896.522,2259.610 882.619,2240.587 871.371 C 2165.659 827.068,1497.572 463.429,1243.854 328.851 L 1197.708 304.374 1037.854 390.574 M509.092 1346.820 C 502.579 1356.756,502.000 1371.751,502.000 1530.549 L 502.000 1703.459 514.000 1716.037 C 520.600 1722.954,560.200 1748.054,602.000 1771.815 C 753.939 1858.180,1086.602 2039.277,1170.994 2081.566 L 1199.989 2096.095 1232.994 2079.517 C 1311.078 2040.297,1720.993 1817.103,1818.000 1760.988 C 1846.600 1744.444,1876.750 1725.603,1885.000 1719.118 L 1900.000 1707.328 1900.000 1530.361 L 1900.000 1353.395 1889.673 1343.697 L 1879.345 1334.000 1838.673 1355.644 C 1816.303 1367.548,1689.643 1435.444,1557.206 1506.525 C 1424.769 1577.605,1290.220 1649.473,1258.208 1666.230 L 1200.004 1696.697 1139.002 1664.893 C 1105.451 1647.401,970.000 1575.048,838.000 1504.110 C 706.000 1433.171,581.577 1366.326,561.505 1355.565 C 541.433 1344.804,523.024 1336.000,520.597 1336.000 C 518.170 1336.000,512.993 1340.869,509.092 1346.820 " fill="#1D1E23" stroke="none" fill-rule="evenodd"/></svg>