<svg viewBox="0 0 2400 2400" fill="none" xmlns="http://www.w3.org/2000/svg"><path d="M1091.794 360.527 C 979.336 420.474,501.690 680.809,272.482 807.084 C 196.847 848.752,133.235 885.935,131.121 889.712 C 123.382 903.542,131.188 915.177,159.037 931.322 C 243.222 980.125,1097.693 1444.544,1174.993 1483.509 L 1199.986 1496.108 1228.993 1481.520 C 1273.769 1459.002,1446.948 1365.558,1758.000 1196.080 C 2104.901 1007.069,2091.495 1014.162,2095.071 1017.735 C 2096.682 1019.343,2098.900 1157.761,2100.000 1325.330 C 2102.229 1664.844,2099.954 1639.387,2130.670 1668.559 C 2139.102 1676.567,2152.300 1686.406,2160.000 1690.424 C 2178.803 1700.237,2220.763 1700.324,2240.646 1690.593 C 2263.104 1679.601,2286.519 1655.781,2292.345 1638.000 C 2296.459 1625.444,2297.885 1547.518,2298.968 1276.000 C 2299.727 1085.700,2298.884 923.016,2297.095 914.479 C 2293.918 899.325,2292.235 898.062,2225.920 861.044 C 2063.087 770.148,1375.020 396.611,1259.768 336.541 L 1197.588 304.132 1091.794 360.527 M509.620 1344.416 C 502.406 1352.385,501.946 1362.130,500.993 1527.416 C 500.220 1661.510,501.154 1704.277,505.021 1711.819 C 508.517 1718.638,546.113 1741.689,628.028 1787.240 C 776.904 1870.026,1054.370 2020.835,1137.000 2063.878 L 1200.000 2096.695 1263.000 2063.878 C 1345.630 2020.835,1623.096 1870.026,1771.972 1787.240 C 1853.887 1741.689,1891.483 1718.638,1894.979 1711.819 C 1898.847 1704.277,1899.781 1661.449,1899.007 1527.108 L 1898.000 1352.216 1889.037 1343.256 L 1880.075 1334.297 1857.037 1345.482 C 1823.837 1361.601,1723.892 1415.075,1512.000 1530.089 C 1409.700 1585.616,1297.785 1645.748,1263.300 1663.715 L 1200.601 1696.382 1165.300 1678.651 C 1129.877 1660.858,986.293 1583.657,770.000 1466.108 C 629.438 1389.716,526.753 1336.000,521.285 1336.000 C 519.060 1336.000,513.811 1339.787,509.620 1344.416 " fill="#1D1E23" stroke="none" fill-rule="evenodd"/></svg>