<svg viewBox="0 0 2400 2400" fill="none" xmlns="http://www.w3.org/2000/svg"><path d="M1807.056 403.858 C 1786.645 410.237,1767.964 424.636,1757.965 441.700 L 1748.000 458.703 1748.000 1117.918 L 1748.000 1777.132 1655.000 1685.516 C 1551.041 1583.104,1506.006 1543.026,1481.209 1530.852 C 1466.447 1523.605,1462.479 1523.190,1448.374 1527.415 C 1423.655 1534.821,1399.270 1555.582,1390.536 1576.658 C 1379.392 1603.546,1383.469 1617.164,1412.550 1650.187 C 1503.845 1753.860,1778.188 2024.308,1802.263 2034.368 C 1809.677 2037.466,1822.996 2040.000,1831.860 2040.000 C 1851.870 2040.000,1846.552 2044.623,2005.969 1888.639 C 2157.340 1740.527,2245.642 1648.302,2256.543 1626.935 C 2280.927 1579.139,2230.036 1519.224,2173.987 1529.739 C 2154.627 1533.370,2130.649 1554.302,2009.000 1673.766 L 1904.000 1776.879 1904.000 1119.125 L 1904.000 461.372 1891.566 442.600 C 1871.821 412.791,1833.981 395.444,1807.056 403.858 M811.710 499.555 C 773.380 507.481,742.025 556.894,749.623 597.398 C 753.007 615.433,769.870 639.740,791.378 657.583 L 808.757 672.000 973.778 672.000 L 1138.800 672.000 1154.400 660.686 C 1193.909 632.034,1205.507 603.797,1196.194 558.937 C 1191.297 535.345,1172.698 512.990,1150.000 503.414 C 1136.449 497.696,837.204 494.283,811.710 499.555 M590.000 954.846 C 526.991 956.188,523.866 956.850,505.869 972.652 C 484.793 991.157,479.429 1004.507,478.746 1040.154 C 478.183 1069.534,478.896 1072.369,490.454 1086.720 C 497.223 1095.124,510.394 1107.400,519.723 1114.000 L 536.685 1126.000 832.923 1127.076 C 1126.908 1128.144,1129.293 1128.088,1146.535 1119.741 C 1170.599 1108.092,1194.303 1080.217,1197.582 1059.712 C 1201.309 1036.404,1196.312 1005.646,1186.410 990.953 C 1181.734 984.014,1170.139 972.411,1160.643 965.169 L 1143.378 952.000 892.689 952.869 C 754.810 953.347,618.600 954.237,590.000 954.846 M281.148 1412.018 C 244.114 1415.251,232.484 1421.031,218.600 1443.101 C 191.335 1486.444,196.812 1524.203,235.846 1562.000 L 252.369 1578.000 393.185 1580.511 C 627.218 1584.685,1083.293 1584.233,1113.994 1579.796 C 1150.038 1574.588,1172.660 1563.446,1184.944 1544.854 C 1197.173 1526.345,1201.100 1506.214,1197.612 1479.920 C 1194.381 1455.562,1183.901 1438.908,1160.643 1421.169 L 1143.378 1408.000 728.689 1408.575 C 500.610 1408.891,299.216 1410.440,281.148 1412.018 " fill="#1D1E23" stroke="none" fill-rule="evenodd"/></svg>