<svg viewBox="0 0 2400 2400" fill="none" xmlns="http://www.w3.org/2000/svg"><path d="M1804.146 404.696 C 1784.043 410.464,1769.405 422.179,1758.015 441.613 L 1748.000 458.703 1748.000 1117.849 L 1748.000 1776.995 1636.599 1667.228 C 1524.123 1556.402,1484.963 1524.000,1463.501 1524.000 C 1446.197 1524.000,1418.022 1538.792,1402.409 1556.074 C 1385.485 1574.807,1380.371 1599.572,1389.108 1620.483 C 1396.584 1638.376,1537.225 1785.500,1670.297 1914.634 C 1804.761 2045.119,1795.764 2038.000,1826.206 2038.000 L 1850.880 2038.000 1886.206 2006.000 C 1905.635 1988.400,1994.667 1901.100,2084.056 1812.000 C 2261.698 1634.931,2267.289 1628.062,2262.460 1592.832 C 2255.795 1544.206,2203.964 1514.537,2158.710 1533.445 C 2151.386 1536.506,2092.743 1591.025,2024.839 1657.902 L 1904.000 1776.913 1904.000 1119.239 L 1904.000 461.566 1892.476 443.394 C 1878.931 422.036,1864.092 410.595,1842.000 404.476 C 1823.576 399.373,1822.681 399.378,1804.146 404.696 M850.000 495.480 C 813.564 497.567,803.407 499.612,790.914 507.379 C 770.740 519.922,757.621 537.944,751.796 561.117 C 742.697 597.319,754.078 627.478,786.940 654.247 L 808.733 672.000 973.681 672.000 L 1138.628 672.000 1156.791 659.969 C 1166.781 653.352,1180.140 640.456,1186.477 631.311 C 1196.866 616.321,1198.000 611.483,1198.000 582.166 C 1198.000 548.088,1194.297 538.040,1175.025 519.831 C 1151.581 497.679,1146.991 496.960,1015.959 494.888 C 948.882 493.827,874.200 494.094,850.000 495.480 M532.635 955.979 C 517.662 959.519,494.611 979.820,484.922 998.000 C 480.792 1005.749,478.433 1020.628,478.263 1040.000 C 478.027 1066.947,479.221 1071.808,490.000 1087.765 C 497.688 1099.148,509.148 1109.208,521.893 1115.765 L 541.786 1126.000 838.000 1126.000 L 1134.214 1126.000 1154.107 1115.765 C 1166.852 1109.208,1178.312 1099.148,1186.000 1087.765 C 1196.724 1071.890,1197.989 1066.809,1197.897 1040.000 C 1197.764 1001.168,1189.551 983.951,1162.458 965.705 L 1142.107 952.000 844.053 952.409 C 680.124 952.635,539.986 954.241,532.635 955.979 M406.000 1407.567 C 237.423 1410.338,241.281 1409.568,217.229 1445.265 C 200.661 1469.854,197.102 1493.210,205.890 1519.670 C 213.800 1543.483,240.985 1573.503,258.260 1577.502 C 277.770 1582.017,1065.912 1585.225,1106.525 1580.954 C 1151.521 1576.222,1170.202 1567.531,1185.952 1544.000 C 1196.678 1527.975,1198.000 1522.709,1198.000 1496.000 C 1198.000 1458.420,1189.026 1439.631,1162.271 1421.193 L 1143.126 1408.000 988.563 1407.994 C 903.553 1407.990,771.000 1407.346,694.000 1406.561 C 617.000 1405.777,487.400 1406.230,406.000 1407.567 " fill="#1D1E23" stroke="none" fill-rule="evenodd"/></svg>