<svg viewBox="0 0 2400 2400" fill="none" xmlns="http://www.w3.org/2000/svg"><path d="M1794.000 408.648 C 1781.311 415.635,1759.836 437.010,1753.659 448.801 C 1748.847 457.986,1748.000 558.210,1748.000 1118.346 L 1748.000 1777.089 1661.000 1691.530 C 1559.809 1592.014,1504.736 1543.006,1481.399 1531.709 C 1461.386 1522.021,1449.391 1523.945,1423.708 1540.959 C 1385.464 1566.296,1375.773 1599.922,1397.628 1631.461 C 1426.469 1673.084,1717.848 1966.368,1785.147 2021.515 C 1807.131 2039.529,1832.134 2044.273,1851.718 2034.146 C 1866.890 2026.300,2168.145 1729.129,2220.681 1670.185 C 2241.686 1646.617,2257.921 1624.517,2260.464 1616.027 C 2273.483 1572.573,2223.997 1521.107,2177.570 1529.817 C 2156.214 1533.823,2124.106 1561.225,2011.000 1671.974 L 1904.000 1776.743 1904.000 1119.262 C 1904.000 514.383,1903.471 460.989,1897.387 451.890 C 1885.252 433.744,1870.145 419.342,1855.159 411.634 C 1838.735 403.186,1806.756 401.625,1794.000 408.648 M826.000 499.430 C 797.110 502.759,788.888 507.018,770.995 527.922 C 736.541 568.173,741.535 609.593,785.901 651.552 L 807.521 672.000 973.401 672.000 L 1139.282 672.000 1159.115 656.322 C 1194.202 628.588,1205.396 599.166,1195.908 559.617 C 1188.988 530.770,1164.617 506.105,1139.658 502.689 C 1112.635 498.991,853.206 496.296,826.000 499.430 M637.362 955.824 L 524.724 958.000 509.362 970.284 C 486.534 988.539,480.014 1004.385,480.006 1041.622 C 479.999 1078.290,485.812 1088.904,519.408 1113.565 L 539.072 1128.000 828.536 1127.978 C 1010.110 1127.964,1123.393 1126.457,1132.471 1123.936 C 1153.310 1118.147,1171.922 1104.420,1185.851 1084.565 C 1196.552 1069.312,1197.964 1064.076,1197.694 1040.624 C 1197.301 1006.452,1188.357 987.630,1162.982 967.572 L 1143.282 952.000 946.641 952.824 C 838.488 953.277,699.313 954.627,637.362 955.824 M362.000 1411.794 C 236.408 1414.359,234.319 1414.925,214.438 1451.740 C 192.581 1492.216,200.400 1527.785,239.473 1565.617 L 255.602 1581.235 684.801 1581.617 C 1085.362 1581.974,1115.533 1581.526,1136.982 1574.893 C 1167.293 1565.521,1185.723 1548.921,1194.219 1523.340 C 1206.751 1485.609,1195.335 1449.146,1162.982 1423.572 L 1143.282 1408.000 806.641 1408.794 C 621.488 1409.230,421.400 1410.580,362.000 1411.794 " fill="#1D1E23" stroke="none" fill-rule="evenodd"/></svg>