<svg viewBox="0 0 2400 2400" fill="none" xmlns="http://www.w3.org/2000/svg"><path d="M2134.13 1546.76 1902.4 1778.49V476.923C1902.4 456.522 1894.29 436.956 1879.87 422.53 1865.44 408.104 1845.88 400 1825.48 400 1805.07 400 1785.51 408.104 1771.08 422.53 1756.66 436.956 1748.55 456.522 1748.55 476.923V1778.49L1516.82 1546.76C1509.7 1539.52 1501.22 1533.76 1491.86 1529.82 1482.5 1525.88 1472.46 1523.83 1462.3 1523.79 1452.15 1523.74 1442.09 1525.71 1432.7 1529.58 1423.31 1533.45 1414.78 1539.13 1407.6 1546.32 1400.42 1553.5 1394.73 1562.03 1390.86 1571.42 1387 1580.8 1385.03 1590.87 1385.07 1601.02 1385.11 1611.18 1387.16 1621.22 1391.1 1630.58 1395.05 1639.94 1400.8 1648.42 1408.04 1655.54L1771.09 2018.59C1771.98 2019.45 1772.88 2020.32 1773.81 2021.15L1774.55 2021.79 1776.66 2023.62 1777.34 2024.16C1778.1 2024.77 1778.87 2025.38 1779.67 2025.96 1779.81 2026.08 1779.96 2026.19 1780.12 2026.28L1782.78 2028.17H1782.94C1793.39 2035.11 1805.37 2039.39 1817.85 2040.64H1818.39C1819.45 2040.64 1820.54 2040.83 1821.6 2040.86H1829.29C1830.38 2040.86 1831.47 2040.86 1832.5 2040.64H1833.04C1845.51 2039.42 1857.49 2035.15 1867.91 2028.2H1868.1L1870.73 2026.34 1871.21 2025.99C1871.98 2025.41 1872.75 2024.84 1873.49 2024.23L1874.23 2023.65 1876.25 2021.92 1877.08 2021.18C1877.88 2020.48 1878.62 2019.74 1879.39 2019L2242.91 1655.54C2257.14 1641.08 2265.08 1621.57 2265 1601.28 2264.92 1580.99 2256.82 1561.55 2242.47 1547.2 2228.12 1532.85 2208.68 1524.75 2188.39 1524.67 2168.1 1524.59 2148.59 1532.53 2134.13 1546.76ZM291.159 1585.07C240.813 1585.07 200 1544.25 200 1493.91 200 1443.56 240.813 1402.75 291.159 1402.75H1111.59C1161.94 1402.75 1202.75 1443.56 1202.75 1493.91 1202.75 1544.25 1161.94 1585.07 1111.59 1585.07H291.159ZM564.636 1129.27C514.29 1129.27 473.477 1088.46 473.477 1038.11 473.477 987.767 514.29 946.954 564.636 946.954H1111.59C1161.94 946.954 1202.75 987.767 1202.75 1038.11 1202.75 1088.46 1161.94 1129.27 1111.59 1129.27H564.636ZM838.113 673.477C787.767 673.477 746.954 632.664 746.954 582.318 746.954 531.972 787.767 491.159 838.113 491.159H1111.59C1161.94 491.159 1202.75 531.972 1202.75 582.318 1202.75 632.664 1161.94 673.477 1111.59 673.477H838.113Z" fill="#1D1E23"/></svg>