<svg viewBox="0 0 2400 2400" fill="none" xmlns="http://www.w3.org/2000/svg"><path d="M1794.000 407.336 C 1774.544 416.588,1762.403 429.273,1754.191 448.926 C 1748.688 462.096,1748.000 536.798,1748.000 1120.847 L 1748.000 1777.951 1627.000 1657.119 C 1502.095 1532.388,1491.526 1523.911,1461.128 1524.088 C 1421.485 1524.318,1384.045 1561.190,1384.045 1600.000 C 1384.045 1628.850,1387.449 1632.759,1587.335 1833.412 C 1698.329 1944.832,1787.532 2031.226,1794.872 2034.412 C 1813.087 2042.320,1841.676 2041.374,1859.159 2032.285 C 1867.322 2028.042,1959.749 1938.492,2064.554 1833.285 C 2216.833 1680.421,2256.093 1638.893,2260.018 1626.534 C 2278.735 1567.581,2226.852 1512.383,2167.450 1528.052 C 2152.101 1532.101,2135.197 1547.408,2027.047 1655.194 L 1904.094 1777.734 1903.047 1117.867 L 1902.000 458.000 1892.921 441.004 C 1874.325 406.194,1828.908 390.736,1794.000 407.336 M802.000 499.546 C 734.708 530.542,729.021 621.184,791.997 659.000 L 813.646 672.000 972.952 672.000 C 1107.924 672.000,1134.528 671.051,1147.128 665.788 C 1208.044 640.342,1220.770 554.892,1169.891 512.953 C 1145.524 492.868,1137.210 491.993,971.536 492.088 C 830.942 492.168,816.651 492.797,802.000 499.546 M534.000 952.826 C 527.400 955.133,516.190 961.352,509.089 966.646 C 465.450 999.179,463.253 1071.050,504.825 1106.103 C 531.732 1128.791,519.695 1128.000,838.000 1128.000 C 1156.305 1128.000,1144.268 1128.791,1171.175 1106.103 C 1212.125 1071.575,1211.485 1003.238,1169.891 968.953 C 1162.003 962.451,1148.692 955.077,1140.311 952.566 C 1119.890 946.447,551.550 946.692,534.000 952.826 M254.000 1411.463 C 233.425 1420.833,209.710 1447.192,204.288 1466.717 C 195.213 1499.400,201.094 1526.492,222.761 1551.805 C 252.357 1586.381,214.091 1583.813,701.128 1583.912 C 1168.067 1584.007,1143.866 1585.130,1171.175 1562.103 C 1212.498 1527.260,1211.482 1459.252,1169.116 1424.305 C 1160.802 1417.447,1147.700 1410.083,1140.000 1407.940 C 1131.311 1405.522,963.639 1404.069,698.000 1404.110 C 292.562 1404.172,269.157 1404.560,254.000 1411.463 " fill="#1D1E23" stroke="none" fill-rule="evenodd"/></svg>