<svg viewBox="0 0 2400 2400" fill="none" xmlns="http://www.w3.org/2000/svg"><path d="M408.000 408.000 C 400.508 415.492,400.000 421.333,400.000 500.000 C 400.000 578.667,400.508 584.508,408.000 592.000 C 415.946 599.946,421.333 600.000,1200.000 600.000 C 1978.667 600.000,1984.054 599.946,1992.000 592.000 C 1999.492 584.508,2000.000 578.667,2000.000 500.000 C 2000.000 421.333,1999.492 415.492,1992.000 408.000 C 1984.054 400.054,1978.667 400.000,1200.000 400.000 C 421.333 400.000,415.946 400.054,408.000 408.000 M404.742 707.258 C 399.264 712.736,385.536 774.263,348.741 958.258 L 299.998 1202.000 299.999 1293.000 C 300.000 1406.051,296.720 1400.000,358.000 1400.000 L 400.000 1400.000 400.000 1692.000 C 400.000 1978.906,400.140 1984.140,408.020 1992.020 C 415.951 1999.951,420.363 2000.028,806.588 1999.020 L 1197.137 1998.000 1204.886 1987.621 C 1211.901 1978.224,1212.196 1975.006,1207.994 1953.621 C 1205.442 1940.629,1202.347 1900.750,1201.116 1865.000 L 1198.879 1800.000 899.440 1800.000 L 600.000 1800.000 600.000 1600.000 L 600.000 1400.000 900.000 1400.000 L 1200.000 1400.000 1200.599 1599.000 C 1200.929 1708.450,1201.846 1792.600,1202.638 1786.000 C 1221.496 1628.778,1283.310 1499.864,1391.661 1391.790 C 1470.363 1313.290,1551.103 1263.776,1654.000 1230.911 C 1725.534 1208.063,1767.331 1201.984,1852.000 1202.112 C 1936.478 1202.241,1983.488 1209.580,2055.797 1233.932 C 2078.773 1241.669,2098.118 1248.000,2098.786 1248.000 C 2106.255 1248.000,2092.810 1166.038,2051.259 958.258 C 2014.464 774.263,2000.736 712.736,1995.258 707.258 C 1988.297 700.297,1955.804 700.000,1200.000 700.000 C 444.196 700.000,411.703 700.297,404.742 707.258 M1687.221 1411.221 C 1623.540 1474.901,1612.000 1488.255,1612.000 1498.259 C 1612.000 1508.276,1623.737 1521.803,1689.038 1587.038 C 1769.799 1667.721,1776.076 1671.924,1792.000 1656.000 C 1799.148 1648.852,1800.000 1642.667,1800.000 1597.924 C 1800.000 1548.119,1800.049 1547.857,1809.000 1549.671 C 1813.950 1550.674,1828.626 1552.556,1841.614 1553.854 C 1915.272 1561.216,1996.568 1609.863,2041.764 1673.623 C 2100.278 1756.170,2114.255 1847.846,2083.597 1948.000 C 2073.691 1980.362,2076.218 1999.603,2092.516 2015.901 C 2109.892 2033.276,2138.313 2036.390,2155.292 2022.778 C 2172.360 2009.095,2194.328 1933.708,2198.433 1874.731 C 2203.014 1808.925,2187.045 1729.389,2157.540 1671.052 C 2111.827 1580.669,2024.926 1504.659,1929.944 1471.981 C 1899.415 1461.477,1848.006 1452.000,1821.558 1452.000 L 1800.000 1452.000 1800.000 1402.000 C 1800.000 1357.333,1799.147 1351.147,1792.000 1344.000 C 1774.467 1326.467,1767.516 1330.926,1687.221 1411.221 M1452.000 1673.059 C 1431.452 1683.212,1411.498 1738.836,1403.129 1809.292 C 1389.502 1924.007,1429.896 2040.220,1513.711 2127.437 C 1580.496 2196.932,1672.105 2240.784,1763.000 2246.770 L 1800.000 2249.207 1800.000 2298.603 C 1800.000 2342.667,1800.864 2348.864,1808.000 2356.000 C 1824.006 2372.006,1830.273 2367.808,1911.038 2286.962 C 1976.012 2221.924,1988.000 2208.096,1988.000 2198.183 C 1988.000 2188.277,1976.240 2174.682,1912.779 2111.221 C 1832.484 2030.926,1825.533 2026.467,1808.000 2044.000 C 1800.852 2051.148,1800.000 2057.333,1800.000 2102.076 C 1800.000 2151.881,1799.951 2152.143,1791.000 2150.329 C 1786.050 2149.326,1771.680 2147.480,1759.067 2146.226 C 1684.456 2138.808,1603.823 2090.690,1558.236 2026.377 C 1499.503 1943.521,1485.602 1852.260,1516.441 1752.000 C 1528.501 1712.792,1521.144 1687.149,1494.161 1674.345 C 1478.179 1666.761,1465.528 1666.375,1452.000 1673.059 " fill="#1D1E23" stroke="none" fill-rule="evenodd"/></svg>