<svg viewBox="0 0 2400 2400" fill="none" xmlns="http://www.w3.org/2000/svg"><path d="M508.000 408.000 C 500.508 415.492,500.000 421.333,500.000 500.000 C 500.000 578.667,500.508 584.508,508.000 592.000 C 515.946 599.946,521.333 600.000,1300.000 600.000 C 2078.667 600.000,2084.054 599.946,2092.000 592.000 C 2099.492 584.508,2100.000 578.667,2100.000 500.000 C 2100.000 421.333,2099.492 415.492,2092.000 408.000 C 2084.054 400.054,2078.667 400.000,1300.000 400.000 C 521.333 400.000,515.946 400.054,508.000 408.000 M504.675 707.000 C 497.781 712.877,488.723 752.835,448.227 956.000 L 399.990 1198.000 399.995 1291.000 C 400.001 1406.353,396.621 1400.000,458.000 1400.000 L 500.000 1400.000 500.000 1692.000 C 500.000 1978.667,500.146 1984.146,508.000 1992.000 C 515.912 1999.912,521.333 2000.000,1000.000 2000.000 C 1478.667 2000.000,1484.088 1999.912,1492.000 1992.000 C 1499.854 1984.146,1500.000 1978.667,1500.000 1692.000 L 1500.000 1400.000 1700.000 1400.000 L 1900.000 1400.000 1900.000 1692.000 C 1900.000 1978.667,1900.146 1984.146,1908.000 1992.000 C 1915.492 1999.492,1921.333 2000.000,2000.000 2000.000 C 2078.667 2000.000,2084.508 1999.492,2092.000 1992.000 C 2099.854 1984.146,2100.000 1978.667,2100.000 1692.000 L 2100.000 1400.000 2142.000 1400.000 C 2203.379 1400.000,2199.999 1406.353,2200.005 1291.000 L 2200.010 1198.000 2151.773 956.000 C 2111.277 752.835,2102.219 712.877,2095.325 707.000 C 2087.565 700.385,2043.837 700.000,1300.000 700.000 C 556.163 700.000,512.435 700.385,504.675 707.000 M1300.000 1600.000 L 1300.000 1800.000 1000.000 1800.000 L 700.000 1800.000 700.000 1600.000 L 700.000 1400.000 1000.000 1400.000 L 1300.000 1400.000 1300.000 1600.000 " fill="#1D1E23" stroke="none" fill-rule="evenodd"/></svg>