<svg viewBox="0 0 2400 2400" fill="none" xmlns="http://www.w3.org/2000/svg"><path d="M546.000 402.803 C 498.945 404.787,500.000 402.559,500.000 500.000 C 500.000 571.935,500.694 579.971,507.647 588.557 L 515.293 598.000 1300.000 598.000 L 2084.707 598.000 2092.353 588.557 C 2099.306 579.971,2100.000 571.935,2100.000 500.000 C 2100.000 428.068,2099.306 420.029,2092.354 411.443 L 2084.708 402.000 1331.354 401.727 C 917.009 401.577,563.600 402.061,546.000 402.803 M546.997 702.890 C 511.942 704.148,507.416 705.186,502.277 713.145 C 495.617 723.459,481.412 788.793,434.013 1027.105 L 399.583 1200.211 400.792 1291.694 C 402.299 1405.843,399.185 1400.000,458.519 1400.000 L 499.798 1400.000 500.899 1691.859 C 501.933 1965.865,502.437 1984.154,509.143 1990.859 C 515.921 1997.635,541.011 1998.000,1000.000 1998.000 C 1458.989 1998.000,1484.079 1997.635,1490.857 1990.859 C 1497.563 1984.154,1498.067 1965.865,1499.101 1691.859 L 1500.202 1400.000 1700.000 1400.000 L 1899.798 1400.000 1900.899 1692.355 L 1902.000 1984.710 1911.443 1992.355 C 1920.029 1999.306,1928.071 2000.000,2000.000 2000.000 C 2071.929 2000.000,2079.971 1999.306,2088.557 1992.355 L 2098.000 1984.710 2099.101 1692.355 L 2100.202 1400.000 2141.481 1400.000 C 2200.886 1400.000,2197.719 1406.009,2199.140 1290.589 L 2200.280 1198.000 2154.246 970.000 C 2103.528 718.805,2102.696 715.217,2093.318 707.433 C 2087.857 702.900,1962.431 701.958,1336.386 701.746 C 923.674 701.606,568.449 702.121,546.997 702.890 M1300.000 1600.000 L 1300.000 1800.000 1000.000 1800.000 L 700.000 1800.000 700.000 1600.000 L 700.000 1400.000 1000.000 1400.000 L 1300.000 1400.000 1300.000 1600.000 " fill="#1D1E23" stroke="none" fill-rule="evenodd"/></svg>