<svg viewBox="0 0 2400 2400" fill="none" xmlns="http://www.w3.org/2000/svg"><path d="M446.000 402.803 C 398.945 404.787,400.000 402.559,400.000 500.000 C 400.000 571.935,400.694 579.971,407.647 588.557 L 415.293 598.000 1200.000 598.000 L 1984.707 598.000 1992.353 588.557 C 1999.306 579.971,2000.000 571.935,2000.000 500.000 C 2000.000 428.068,1999.306 420.029,1992.354 411.443 L 1984.708 402.000 1231.354 401.727 C 817.009 401.577,463.600 402.061,446.000 402.803 M445.369 702.888 C 421.697 703.794,407.211 706.131,404.420 709.494 C 398.386 716.765,382.783 787.760,338.156 1011.000 L 299.575 1204.000 300.787 1293.589 C 302.303 1405.563,299.285 1400.000,358.519 1400.000 L 399.798 1400.000 400.899 1691.859 C 401.933 1965.853,402.437 1984.155,409.142 1990.859 C 415.900 1997.616,437.269 1998.000,806.710 1998.000 L 1197.135 1998.000 1204.768 1987.777 C 1211.564 1978.675,1211.957 1974.726,1208.346 1951.777 C 1206.115 1937.600,1203.053 1897.650,1201.541 1863.000 L 1198.791 1800.000 899.395 1800.000 L 600.000 1800.000 600.000 1600.000 L 600.000 1400.000 899.961 1400.000 L 1199.922 1400.000 1200.961 1591.000 L 1202.000 1782.000 1211.218 1734.000 C 1239.063 1589.016,1311.622 1461.299,1420.948 1364.837 C 1501.305 1293.936,1587.004 1248.435,1695.797 1218.911 L 1742.000 1206.372 1848.000 1206.220 C 1963.963 1206.054,1980.130 1208.326,2063.522 1236.514 C 2082.210 1242.831,2098.063 1248.000,2098.750 1248.000 C 2106.028 1248.000,2093.084 1169.047,2051.532 960.000 C 2014.738 774.882,2001.087 715.373,1993.732 708.017 C 1988.421 702.705,1899.451 701.970,1234.858 701.743 C 820.786 701.602,465.516 702.117,445.369 702.888 M2051.000 1408.320 C 2039.558 1414.985,2042.696 1435.401,2060.056 1467.249 C 2068.825 1483.336,2076.000 1497.219,2076.000 1498.101 C 2076.000 1500.283,1996.953 1547.116,1830.000 1643.848 C 1636.200 1756.136,1516.104 1827.896,1507.376 1836.624 C 1495.000 1849.000,1497.687 1870.487,1513.600 1886.400 C 1521.080 1893.880,1531.207 1900.000,1536.105 1900.000 C 1549.428 1900.000,1601.877 1870.847,1984.992 1650.495 C 2052.637 1611.588,2110.570 1578.763,2113.732 1577.549 C 2117.557 1576.081,2124.521 1583.152,2134.533 1598.671 C 2163.745 1643.947,2176.140 1652.102,2191.189 1635.949 C 2199.512 1627.016,2199.213 1627.817,2227.706 1538.099 C 2248.612 1472.272,2251.843 1452.169,2242.734 1444.609 C 2237.866 1440.569,2075.086 1403.848,2063.257 1404.122 C 2060.366 1404.189,2054.850 1406.078,2051.000 1408.320 " fill="#1D1E23" stroke="none" fill-rule="evenodd"/></svg>