<svg viewBox="0 0 2400 2400" fill="none" xmlns="http://www.w3.org/2000/svg"><path d="M410.443 410.129 C 400.964 419.608,399.362 436.522,400.731 512.652 C 401.859 575.335,402.848 584.119,409.620 591.592 L 417.240 600.000 1200.000 600.000 L 1982.760 600.000 1990.380 591.580 C 1997.358 583.870,1998.000 576.167,1998.000 500.195 C 1998.000 435.755,1996.774 415.753,1992.510 410.615 C 1987.438 404.503,1927.329 404.000,1201.796 404.000 C 501.830 404.000,415.906 404.665,410.443 410.129 M411.228 706.693 C 399.569 709.802,395.262 727.562,342.156 991.573 L 300.000 1201.145 300.174 1277.573 C 300.365 1361.184,303.466 1386.792,314.367 1394.763 C 319.107 1398.229,334.683 1400.000,360.427 1400.000 L 399.324 1400.000 400.867 1689.000 C 401.715 1847.950,403.806 1981.011,405.514 1984.691 C 407.221 1988.371,411.629 1992.730,415.309 1994.377 C 418.989 1996.025,595.702 1998.151,808.005 1999.101 L 1194.009 2000.830 1201.708 1992.322 C 1210.756 1982.325,1210.767 1981.767,1203.815 1879.000 L 1198.471 1800.000 899.235 1800.000 L 600.000 1800.000 600.000 1600.000 L 600.000 1400.000 900.000 1400.000 L 1200.000 1400.000 1200.000 1586.667 C 1200.000 1689.333,1201.004 1772.330,1202.230 1771.103 C 1203.457 1769.877,1208.008 1751.508,1212.343 1730.285 C 1240.575 1592.088,1302.277 1480.277,1404.541 1382.000 C 1486.619 1303.122,1572.522 1254.917,1693.095 1220.077 L 1734.892 1208.000 1843.004 1208.000 C 1963.915 1208.000,1987.259 1210.850,2056.034 1234.012 C 2078.880 1241.705,2098.118 1248.000,2098.786 1248.000 C 2105.871 1248.000,2091.108 1158.775,2049.812 952.000 C 2018.015 792.786,2002.102 721.786,1996.021 712.000 C 1992.729 706.703,1900.105 705.935,1205.146 705.444 C 772.216 705.138,414.953 705.701,411.228 706.693 M2051.000 1408.320 C 2040.073 1414.685,2042.591 1431.509,2059.793 1467.081 L 2075.586 1499.739 2032.793 1525.400 C 2009.257 1539.514,1918.000 1592.929,1830.000 1644.100 C 1618.052 1767.347,1527.518 1821.557,1512.428 1834.254 C 1498.593 1845.895,1496.661 1857.940,1505.796 1875.605 C 1512.061 1887.722,1528.102 1900.000,1537.665 1900.000 C 1547.514 1900.000,1608.588 1866.337,1865.085 1719.530 C 1999.788 1642.433,2111.621 1579.048,2113.603 1578.676 C 2115.584 1578.304,2127.701 1591.818,2140.529 1608.707 C 2181.338 1662.433,2189.305 1657.315,2221.583 1556.628 C 2248.381 1473.040,2252.330 1450.599,2241.284 1444.687 C 2233.244 1440.384,2073.609 1403.912,2063.733 1404.122 C 2060.580 1404.189,2054.850 1406.078,2051.000 1408.320 " fill="#1D1E23" stroke="none" fill-rule="evenodd"/></svg>