<svg viewBox="0 0 2400 2400" fill="none" xmlns="http://www.w3.org/2000/svg"><path d="M408.000 408.000 C 400.508 415.492,400.000 421.333,400.000 500.000 C 400.000 578.667,400.508 584.508,408.000 592.000 C 415.946 599.946,421.333 600.000,1200.000 600.000 C 1978.667 600.000,1984.054 599.946,1992.000 592.000 C 1999.492 584.508,2000.000 578.667,2000.000 500.000 C 2000.000 421.333,1999.492 415.492,1992.000 408.000 C 1984.054 400.054,1978.667 400.000,1200.000 400.000 C 421.333 400.000,415.946 400.054,408.000 408.000 M404.742 707.258 C 399.264 712.736,385.536 774.263,348.741 958.258 L 299.998 1202.000 299.999 1293.000 C 300.000 1406.051,296.720 1400.000,358.000 1400.000 L 400.000 1400.000 400.000 1692.000 C 400.000 1978.906,400.140 1984.140,408.020 1992.020 C 415.951 1999.951,420.363 2000.028,806.588 1999.020 L 1197.137 1998.000 1204.886 1987.621 C 1211.901 1978.224,1212.196 1975.006,1207.994 1953.621 C 1205.442 1940.629,1202.347 1900.750,1201.116 1865.000 L 1198.879 1800.000 899.440 1800.000 L 600.000 1800.000 600.000 1600.000 L 600.000 1400.000 900.000 1400.000 L 1200.000 1400.000 1200.599 1599.000 C 1200.929 1708.450,1201.846 1792.600,1202.638 1786.000 C 1221.496 1628.778,1283.310 1499.864,1391.661 1391.790 C 1470.363 1313.290,1551.103 1263.776,1654.000 1230.911 C 1725.534 1208.063,1767.331 1201.984,1852.000 1202.112 C 1936.478 1202.241,1983.488 1209.580,2055.797 1233.932 C 2078.773 1241.669,2098.118 1248.000,2098.786 1248.000 C 2106.255 1248.000,2092.810 1166.038,2051.259 958.258 C 2014.464 774.263,2000.736 712.736,1995.258 707.258 C 1988.297 700.297,1955.804 700.000,1200.000 700.000 C 444.196 700.000,411.703 700.297,404.742 707.258 M2050.098 1409.434 C 2038.496 1417.917,2041.356 1435.318,2059.459 1466.400 C 2068.556 1482.020,2075.990 1496.420,2075.978 1498.400 C 2075.967 1500.380,1949.850 1574.764,1795.720 1663.698 C 1641.590 1752.631,1511.999 1829.824,1507.742 1835.237 C 1487.625 1860.811,1508.226 1900.000,1541.786 1900.000 C 1548.083 1900.000,1661.489 1836.811,1833.049 1737.711 C 1987.572 1648.452,2115.564 1575.102,2117.475 1574.711 C 2119.386 1574.320,2129.792 1588.830,2140.598 1606.955 C 2161.943 1642.757,2172.591 1649.775,2189.125 1638.941 C 2196.198 1634.307,2204.220 1613.986,2225.593 1546.556 C 2251.984 1463.296,2252.750 1459.741,2246.404 1450.056 C 2242.781 1444.525,2238.996 1440.000,2237.995 1440.000 C 2236.994 1440.000,2199.097 1431.900,2153.781 1422.000 C 2062.096 1401.970,2060.560 1401.784,2050.098 1409.434 " fill="#1D1E23" stroke="none" fill-rule="evenodd"/></svg>