<svg viewBox="0 0 2400 2400" fill="none" xmlns="http://www.w3.org/2000/svg"><path d="M510.443 410.129 C 500.964 419.608,499.362 436.522,500.731 512.652 C 501.859 575.335,502.848 584.119,509.620 591.592 L 517.240 600.000 1300.000 600.000 L 2082.760 600.000 2090.380 591.580 C 2097.358 583.870,2098.000 576.167,2098.000 500.195 C 2098.000 435.755,2096.774 415.753,2092.510 410.615 C 2087.438 404.503,2027.329 404.000,1301.796 404.000 C 601.830 404.000,515.906 404.665,510.443 410.129 M506.898 708.961 C 497.906 715.685,484.763 772.485,438.241 1005.681 L 400.000 1197.362 400.174 1275.681 C 400.364 1361.131,403.418 1386.757,414.367 1394.763 C 419.107 1398.229,434.683 1400.000,460.427 1400.000 L 499.324 1400.000 500.867 1689.000 C 501.715 1847.950,503.866 1981.166,505.646 1985.035 C 507.426 1988.904,513.634 1993.404,519.441 1995.035 C 533.238 1998.909,1466.762 1998.909,1480.559 1995.035 C 1486.366 1993.404,1492.563 1988.904,1494.330 1985.035 C 1496.097 1981.166,1498.256 1847.950,1499.127 1689.000 L 1500.712 1400.000 1700.356 1400.000 L 1900.000 1400.000 1900.000 1691.380 C 1900.000 1982.524,1900.007 1982.766,1908.420 1990.380 C 1916.132 1997.359,1923.836 1998.000,2000.000 1998.000 C 2076.164 1998.000,2083.868 1997.359,2091.580 1990.380 C 2099.993 1982.766,2100.000 1982.524,2100.000 1691.380 L 2100.000 1400.000 2139.235 1400.000 C 2165.258 1400.000,2180.883 1398.236,2185.633 1394.763 C 2196.593 1386.749,2199.636 1361.118,2199.826 1275.211 L 2200.000 1196.423 2157.827 987.211 C 2112.758 763.633,2102.221 716.621,2095.717 710.117 C 2089.132 703.531,515.690 702.386,506.898 708.961 M1300.000 1600.000 L 1300.000 1800.000 1000.000 1800.000 L 700.000 1800.000 700.000 1600.000 L 700.000 1400.000 1000.000 1400.000 L 1300.000 1400.000 1300.000 1600.000 " fill="#1D1E23" stroke="none" fill-rule="evenodd"/></svg>