<svg viewBox="0 0 2400 2400" fill="none" xmlns="http://www.w3.org/2000/svg"><path d="M408.000 408.000 C 400.508 415.492,400.000 421.333,400.000 500.000 C 400.000 578.667,400.508 584.508,408.000 592.000 C 415.946 599.946,421.333 600.000,1200.000 600.000 C 1978.667 600.000,1984.054 599.946,1992.000 592.000 C 1999.492 584.508,2000.000 578.667,2000.000 500.000 C 2000.000 421.333,1999.492 415.492,1992.000 408.000 C 1984.054 400.054,1978.667 400.000,1200.000 400.000 C 421.333 400.000,415.946 400.054,408.000 408.000 M404.742 707.258 C 399.264 712.736,385.536 774.263,348.741 958.258 L 299.998 1202.000 299.999 1293.000 C 300.000 1406.051,296.720 1400.000,358.000 1400.000 L 400.000 1400.000 400.000 1692.000 C 400.000 1978.906,400.140 1984.140,408.020 1992.020 C 415.951 1999.951,420.363 2000.028,806.588 1999.020 L 1197.137 1998.000 1204.886 1987.621 C 1211.901 1978.224,1212.196 1975.006,1207.994 1953.621 C 1205.442 1940.629,1202.347 1900.750,1201.116 1865.000 L 1198.879 1800.000 899.440 1800.000 L 600.000 1800.000 600.000 1600.000 L 600.000 1400.000 900.000 1400.000 L 1200.000 1400.000 1200.599 1599.000 C 1200.929 1708.450,1201.846 1792.600,1202.638 1786.000 C 1221.496 1628.778,1283.310 1499.864,1391.661 1391.790 C 1470.363 1313.290,1551.103 1263.776,1654.000 1230.911 C 1725.534 1208.063,1767.331 1201.984,1852.000 1202.112 C 1936.478 1202.241,1983.488 1209.580,2055.797 1233.932 C 2078.773 1241.669,2098.118 1248.000,2098.786 1248.000 C 2106.255 1248.000,2092.810 1166.038,2051.259 958.258 C 2014.464 774.263,2000.736 712.736,1995.258 707.258 C 1988.297 700.297,1955.804 700.000,1200.000 700.000 C 444.196 700.000,411.703 700.297,404.742 707.258 M2145.599 1435.061 C 2135.867 1441.559,2132.000 1457.108,2132.000 1489.737 L 2132.000 1524.000 1812.500 1524.000 C 1636.775 1524.000,1487.401 1525.120,1480.557 1526.489 C 1461.394 1530.321,1448.000 1546.087,1448.000 1564.808 C 1448.000 1584.689,1453.170 1594.331,1467.920 1601.959 C 1478.060 1607.202,1522.677 1608.000,1805.801 1608.000 L 2132.000 1608.000 2132.059 1643.000 C 2132.132 1686.291,2136.975 1697.593,2156.092 1699.087 C 2168.889 1700.087,2174.791 1695.837,2230.000 1645.871 C 2263.000 1616.005,2293.150 1587.867,2297.000 1583.342 C 2312.838 1564.726,2307.108 1557.204,2211.156 1470.648 C 2169.854 1433.391,2157.855 1426.877,2145.599 1435.061 M1541.498 1773.000 C 1515.626 1792.314,1416.033 1885.595,1413.811 1892.594 C 1412.519 1896.667,1412.519 1903.333,1413.811 1907.406 C 1416.033 1914.405,1515.626 2007.686,1541.498 2027.000 C 1556.822 2038.439,1562.055 2038.308,1574.182 2026.182 C 1583.235 2017.129,1584.000 2013.387,1584.000 1978.182 L 1584.000 1940.000 1913.937 1940.000 L 2243.874 1940.000 2256.482 1928.734 C 2266.983 1919.352,2269.091 1914.547,2269.091 1900.000 C 2269.091 1885.453,2266.983 1880.648,2256.482 1871.266 L 2243.874 1860.000 1913.937 1860.000 L 1584.000 1860.000 1584.000 1821.818 C 1584.000 1786.613,1583.235 1782.871,1574.182 1773.818 C 1562.055 1761.692,1556.822 1761.561,1541.498 1773.000 " fill="#1D1E23" stroke="none" fill-rule="evenodd"/></svg>