<svg viewBox="0 0 2400 2400" fill="none" xmlns="http://www.w3.org/2000/svg"><path d="M410.443 410.129 C 400.964 419.608,399.362 436.522,400.731 512.652 C 401.859 575.335,402.848 584.119,409.620 591.592 L 417.240 600.000 1200.000 600.000 L 1982.760 600.000 1990.380 591.580 C 1997.358 583.870,1998.000 576.167,1998.000 500.195 C 1998.000 435.755,1996.774 415.753,1992.510 410.615 C 1987.438 404.503,1927.329 404.000,1201.796 404.000 C 501.830 404.000,415.906 404.665,410.443 410.129 M411.228 706.693 C 399.569 709.802,395.262 727.562,342.156 991.573 L 300.000 1201.145 300.174 1277.573 C 300.365 1361.184,303.466 1386.792,314.367 1394.763 C 319.107 1398.229,334.683 1400.000,360.427 1400.000 L 399.324 1400.000 400.867 1689.000 C 401.715 1847.950,403.806 1981.011,405.514 1984.691 C 407.221 1988.371,411.629 1992.730,415.309 1994.377 C 418.989 1996.025,595.702 1998.151,808.005 1999.101 L 1194.009 2000.830 1201.708 1992.322 C 1210.756 1982.325,1210.767 1981.767,1203.815 1879.000 L 1198.471 1800.000 899.235 1800.000 L 600.000 1800.000 600.000 1600.000 L 600.000 1400.000 900.000 1400.000 L 1200.000 1400.000 1200.000 1586.667 C 1200.000 1689.333,1201.004 1772.330,1202.230 1771.103 C 1203.457 1769.877,1208.008 1751.508,1212.343 1730.285 C 1240.575 1592.088,1302.277 1480.277,1404.541 1382.000 C 1486.619 1303.122,1572.522 1254.917,1693.095 1220.077 L 1734.892 1208.000 1843.004 1208.000 C 1963.915 1208.000,1987.259 1210.850,2056.034 1234.012 C 2078.880 1241.705,2098.118 1248.000,2098.786 1248.000 C 2105.871 1248.000,2091.108 1158.775,2049.812 952.000 C 2018.015 792.786,2002.102 721.786,1996.021 712.000 C 1992.729 706.703,1900.105 705.935,1205.146 705.444 C 772.216 705.138,414.953 705.701,411.228 706.693 M2143.651 1439.478 C 2135.441 1446.126,2134.231 1451.168,2132.757 1484.880 L 2131.098 1522.803 1806.248 1524.937 C 1448.759 1527.286,1462.673 1526.232,1452.106 1551.745 C 1446.253 1565.875,1449.424 1588.883,1458.233 1596.193 C 1468.813 1604.974,1557.655 1607.618,1848.523 1607.812 L 2131.046 1608.000 2132.731 1646.522 C 2134.232 1680.845,2135.422 1685.858,2143.651 1692.522 C 2148.730 1696.635,2155.209 1700.000,2158.047 1700.000 C 2166.888 1700.000,2208.832 1666.103,2257.511 1619.617 C 2309.099 1570.353,2308.967 1570.689,2287.420 1543.877 C 2262.590 1512.979,2167.180 1432.115,2155.443 1432.020 C 2154.037 1432.009,2148.730 1435.365,2143.651 1439.478 M1525.778 1786.623 C 1489.536 1816.139,1412.000 1893.825,1412.000 1900.620 C 1412.000 1907.198,1502.306 1995.643,1533.683 2019.796 C 1555.772 2036.799,1557.266 2037.331,1567.235 2031.736 C 1580.313 2024.395,1583.101 2014.390,1583.601 1973.000 L 1584.000 1940.000 1915.644 1940.000 L 2247.289 1940.000 2257.644 1927.693 C 2264.857 1919.121,2268.000 1910.717,2268.000 1900.000 C 2268.000 1889.283,2264.857 1880.879,2257.644 1872.307 L 2247.289 1860.000 1916.110 1860.000 L 1584.930 1860.000 1583.310 1819.654 C 1581.816 1782.456,1580.922 1778.719,1571.845 1771.743 C 1566.430 1767.582,1560.100 1764.138,1557.778 1764.089 C 1555.456 1764.040,1541.056 1774.180,1525.778 1786.623 " fill="#1D1E23" stroke="none" fill-rule="evenodd"/></svg>