<svg viewBox="0 0 2400 2400" fill="none" xmlns="http://www.w3.org/2000/svg"><path d="M446.000 402.803 C 398.945 404.787,400.000 402.559,400.000 500.000 C 400.000 571.935,400.694 579.971,407.647 588.557 L 415.293 598.000 1200.000 598.000 L 1984.707 598.000 1992.353 588.557 C 1999.306 579.971,2000.000 571.935,2000.000 500.000 C 2000.000 428.068,1999.306 420.029,1992.354 411.443 L 1984.708 402.000 1231.354 401.727 C 817.009 401.577,463.600 402.061,446.000 402.803 M445.369 702.888 C 421.697 703.794,407.211 706.131,404.420 709.494 C 398.386 716.765,382.783 787.760,338.156 1011.000 L 299.575 1204.000 300.787 1293.589 C 302.303 1405.563,299.285 1400.000,358.519 1400.000 L 399.798 1400.000 400.899 1691.859 C 401.933 1965.853,402.437 1984.155,409.142 1990.859 C 415.900 1997.616,437.269 1998.000,806.710 1998.000 L 1197.135 1998.000 1204.768 1987.777 C 1211.564 1978.675,1211.957 1974.726,1208.346 1951.777 C 1206.115 1937.600,1203.053 1897.650,1201.541 1863.000 L 1198.791 1800.000 899.395 1800.000 L 600.000 1800.000 600.000 1600.000 L 600.000 1400.000 899.961 1400.000 L 1199.922 1400.000 1200.961 1591.000 L 1202.000 1782.000 1211.218 1734.000 C 1239.063 1589.016,1311.622 1461.299,1420.948 1364.837 C 1501.305 1293.936,1587.004 1248.435,1695.797 1218.911 L 1742.000 1206.372 1848.000 1206.220 C 1963.963 1206.054,1980.130 1208.326,2063.522 1236.514 C 2082.210 1242.831,2098.063 1248.000,2098.750 1248.000 C 2106.028 1248.000,2093.084 1169.047,2051.532 960.000 C 2014.738 774.882,2001.087 715.373,1993.732 708.017 C 1988.421 702.705,1899.451 701.970,1234.858 701.743 C 820.786 701.602,465.516 702.117,445.369 702.888 M2141.620 1440.412 C 2135.535 1447.130,2133.722 1456.352,2132.621 1486.199 L 2131.242 1523.573 1803.911 1524.787 C 1478.463 1525.993,1476.515 1526.048,1465.290 1534.409 C 1451.094 1544.982,1446.110 1558.670,1449.628 1577.424 C 1455.304 1607.679,1433.731 1605.863,1802.439 1607.132 L 2131.237 1608.264 2132.618 1646.028 C 2133.799 1678.299,2135.256 1685.046,2142.636 1692.420 C 2154.401 1704.177,2166.091 1700.610,2194.834 1676.493 C 2229.900 1647.070,2297.558 1584.118,2301.363 1577.373 C 2308.072 1565.483,2293.953 1546.580,2244.371 1501.071 C 2166.465 1429.564,2156.680 1423.787,2141.620 1440.412 M1527.208 1784.962 C 1483.825 1821.039,1412.000 1892.758,1412.000 1900.000 C 1412.000 1912.109,1544.786 2036.000,1557.765 2036.000 C 1560.707 2036.000,1567.363 2032.562,1572.557 2028.359 C 1581.151 2021.405,1582.124 2017.091,1583.375 1980.359 L 1584.750 1940.000 1915.156 1940.000 L 2245.562 1940.000 2256.781 1929.252 C 2265.907 1920.508,2268.000 1915.051,2268.000 1900.000 C 2268.000 1884.949,2265.907 1879.492,2256.781 1870.748 L 2245.562 1860.000 1915.156 1860.000 L 1584.750 1860.000 1583.375 1819.766 C 1582.096 1782.356,1581.298 1778.993,1572.000 1771.855 C 1566.500 1767.632,1559.843 1764.138,1557.208 1764.089 C 1554.572 1764.040,1541.072 1773.433,1527.208 1784.962 " fill="#1D1E23" stroke="none" fill-rule="evenodd"/></svg>