<svg viewBox="0 0 2400 2400" fill="none" xmlns="http://www.w3.org/2000/svg"><path d="M513.404 411.959 C 505.637 415.107,504.523 419.620,501.858 458.722 C 497.793 518.346,502.037 583.201,510.624 592.690 C 516.989 599.723,546.932 600.000,1300.000 600.000 L 2082.760 600.000 2090.380 591.577 C 2097.359 583.862,2098.000 576.156,2098.000 499.910 C 2098.000 454.126,2096.500 415.166,2094.667 413.333 C 2090.193 408.859,524.410 407.499,513.404 411.959 M498.207 728.951 C 486.080 771.173,470.773 841.674,435.754 1016.578 L 400.000 1195.156 400.080 1266.578 C 400.163 1339.649,404.388 1385.988,411.628 1393.228 C 413.867 1395.467,434.394 1398.131,457.243 1399.147 L 498.787 1400.995 500.979 1690.972 C 503.098 1971.295,503.430 1981.208,510.949 1988.727 C 518.540 1996.317,530.233 1996.559,998.363 1998.788 L 1478.000 2001.073 1488.000 1990.217 L 1498.000 1979.361 1499.238 1689.680 L 1500.476 1400.000 1700.238 1400.000 L 1900.000 1400.000 1900.376 1657.000 C 1900.771 1927.258,1902.607 1984.216,1911.200 1992.803 C 1918.691 2000.290,2081.304 2000.293,2088.800 1992.807 C 2097.283 1984.335,2099.174 1925.265,2099.599 1655.524 L 2100.000 1401.049 2142.150 1399.174 C 2165.333 1398.143,2186.133 1395.467,2188.372 1393.228 C 2195.645 1385.955,2199.837 1339.530,2199.920 1265.353 L 2200.000 1192.706 2158.372 989.353 C 2113.734 771.299,2102.191 720.592,2095.717 714.117 C 2092.930 711.329,1835.379 709.661,1297.926 708.951 L 504.252 707.903 498.207 728.951 M1300.000 1600.000 L 1300.000 1800.000 1000.000 1800.000 L 700.000 1800.000 700.000 1600.000 L 700.000 1400.000 1000.000 1400.000 L 1300.000 1400.000 1300.000 1600.000 " fill="#1D1E23" stroke="none" fill-rule="evenodd"/></svg>