<svg viewBox="0 0 2400 2400" fill="none" xmlns="http://www.w3.org/2000/svg"><path d="M555.381 406.884 C 522.136 407.960,511.578 409.691,507.381 414.755 C 503.264 419.722,502.000 440.269,502.000 502.207 C 502.000 576.210,502.655 583.891,509.620 591.584 L 517.240 600.000 1300.000 600.000 L 2082.760 600.000 2090.380 591.577 C 2097.360 583.861,2098.000 576.154,2098.000 499.777 C 2098.000 436.706,2096.734 415.133,2092.801 411.200 C 2088.574 406.972,1948.307 405.954,1342.801 405.753 C 933.160 405.617,578.821 406.126,555.381 406.884 M625.152 706.675 L 504.304 708.117 496.389 735.058 C 486.030 770.320,466.124 863.634,429.661 1047.865 L 400.000 1197.729 400.000 1272.319 C 400.000 1345.505,404.045 1385.636,412.250 1393.859 C 414.522 1396.137,434.951 1398.607,457.647 1399.348 L 498.913 1400.697 500.973 1689.348 C 502.106 1848.107,504.350 1981.166,505.958 1985.035 C 507.566 1988.904,513.634 1993.357,519.441 1994.932 C 525.249 1996.506,743.700 1997.841,1004.889 1997.897 L 1479.778 1998.000 1488.522 1989.256 L 1497.266 1980.512 1499.190 1690.256 L 1501.114 1400.000 1700.456 1400.000 L 1899.798 1400.000 1900.899 1691.859 C 1901.933 1965.865,1902.437 1984.154,1909.143 1990.859 C 1915.544 1997.259,1924.976 1998.000,2000.000 1998.000 C 2075.024 1998.000,2084.456 1997.259,2090.857 1990.859 C 2097.563 1984.155,2098.067 1965.880,2099.100 1692.220 L 2100.201 1400.722 2141.910 1399.361 C 2164.850 1398.613,2185.478 1396.137,2187.750 1393.859 C 2195.991 1385.600,2200.000 1345.378,2200.000 1270.966 L 2200.000 1195.025 2159.743 996.512 C 2108.692 744.770,2101.358 713.377,2092.836 710.107 C 2085.552 707.312,819.886 704.353,625.152 706.675 M1300.000 1600.000 L 1300.000 1800.000 1000.000 1800.000 L 700.000 1800.000 700.000 1600.000 L 700.000 1400.000 1000.000 1400.000 L 1300.000 1400.000 1300.000 1600.000 " fill="#1D1E23" stroke="none" fill-rule="evenodd"/></svg>