<svg viewBox="0 0 2400 2400" fill="none" xmlns="http://www.w3.org/2000/svg"><path d="M2100 425C2100 411.193 2088.81 400 2075 400H525C511.193 400 500 411.193 500 425V575C500 588.807 511.193 600 525 600H2075C2088.81 600 2100 588.807 2100 575V425ZM2175 1400C2188.81 1400 2200 1388.81 2200 1375V1200L2104.02 720.097C2101.68 708.412 2091.42 700 2079.5 700H520.495C508.578 700 498.318 708.412 495.981 720.097L400 1200V1375C400 1388.81 411.193 1400 425 1400H500V1975C500 1988.81 511.193 2000 525 2000H1475C1488.81 2000 1500 1988.81 1500 1975V1400H1900V1975C1900 1988.81 1911.19 2000 1925 2000H2075C2088.81 2000 2100 1988.81 2100 1975V1400H2175ZM1300 1800H700V1400H1300V1800Z" fill="#1D1E23"/></svg>