<svg viewBox="0 0 2400 2400" fill="none" xmlns="http://www.w3.org/2000/svg"><path d="M400 425C400 411.193 411.193 400 425 400H1975C1988.81 400 2000 411.193 2000 425V575C2000 588.807 1988.81 600 1975 600H425C411.193 600 400 588.807 400 575V425Z" fill="#1D1E23"/><path fill-rule="evenodd" d="M1185.8 2000C1201.93 2000 1213.82 1984.95 1210.88 1969.09C1203.74 1930.48 1200 1890.68 1200 1850C1200 1491.01 1491.01 1200 1850 1200C1938.59 1200 2023.04 1217.72 2100 1249.82V1200L2004.02 720.097C2001.68 708.412 1991.42 700 1979.5 700H420.495C408.578 700 398.318 708.412 395.981 720.097L300 1200V1375C300 1388.81 311.193 1400 325 1400H400V1975C400 1988.81 411.193 2000 425 2000H1185.8ZM600 1800H1200V1400H600V1800Z" fill="#1D1E23"/><path d="M1800 1450V1360.36C1800 1338.08 1773.07 1326.93 1757.32 1342.68L1617.68 1482.32C1607.91 1492.09 1607.91 1507.91 1617.68 1517.68L1757.32 1657.32C1773.07 1673.07 1800 1661.92 1800 1639.64V1550C1965.5 1550 2100 1684.5 2100 1850C2100 1886.81 2093.36 1922.3 2081.04 1954.9C2072.95 1976.33 2076.11 2001.11 2092.31 2017.31C2115.74 2040.74 2155.05 2036.36 2168.09 2005.89C2188.54 1958.08 2200 1905.41 2200 1850C2200 1629 2021 1450 1800 1450ZM1800 2150C1634.5 2150 1500 2015.5 1500 1850C1500 1813.19 1506.64 1777.7 1518.96 1745.1C1527.05 1723.67 1523.89 1698.89 1507.69 1682.69C1484.26 1659.26 1444.95 1663.64 1431.91 1694.11C1411.46 1741.92 1400 1794.59 1400 1850C1400 2071 1579 2250 1800 2250V2339.64C1800 2361.92 1826.93 2373.07 1842.68 2357.32L1982.32 2217.68C1992.09 2207.91 1992.09 2192.09 1982.32 2182.32L1842.68 2042.68C1826.93 2026.93 1800 2038.08 1800 2060.36V2150Z" fill="#1D1E23"/></svg>