<svg viewBox="0 0 2400 2400" fill="none" xmlns="http://www.w3.org/2000/svg"><path d="M410.443 410.129 C 400.964 419.608,399.362 436.522,400.731 512.652 C 401.859 575.335,402.848 584.119,409.620 591.592 L 417.240 600.000 1200.000 600.000 L 1982.760 600.000 1990.380 591.580 C 1997.358 583.870,1998.000 576.167,1998.000 500.195 C 1998.000 435.755,1996.774 415.753,1992.510 410.615 C 1987.438 404.503,1927.329 404.000,1201.796 404.000 C 501.830 404.000,415.906 404.665,410.443 410.129 M411.228 706.693 C 399.569 709.802,395.262 727.562,342.156 991.573 L 300.000 1201.145 300.174 1277.573 C 300.365 1361.184,303.466 1386.792,314.367 1394.763 C 319.107 1398.229,334.683 1400.000,360.427 1400.000 L 399.324 1400.000 400.867 1689.000 C 401.715 1847.950,403.806 1981.011,405.514 1984.691 C 407.221 1988.371,411.629 1992.730,415.309 1994.377 C 418.989 1996.025,595.702 1998.151,808.005 1999.101 L 1194.009 2000.830 1201.708 1992.322 C 1210.756 1982.325,1210.767 1981.767,1203.815 1879.000 L 1198.471 1800.000 899.235 1800.000 L 600.000 1800.000 600.000 1600.000 L 600.000 1400.000 900.000 1400.000 L 1200.000 1400.000 1200.000 1586.667 C 1200.000 1689.333,1201.004 1772.330,1202.230 1771.103 C 1203.457 1769.877,1208.008 1751.508,1212.343 1730.285 C 1240.575 1592.088,1302.277 1480.277,1404.541 1382.000 C 1486.619 1303.122,1572.522 1254.917,1693.095 1220.077 L 1734.892 1208.000 1843.004 1208.000 C 1963.915 1208.000,1987.259 1210.850,2056.034 1234.012 C 2078.880 1241.705,2098.118 1248.000,2098.786 1248.000 C 2105.871 1248.000,2091.108 1158.775,2049.812 952.000 C 2018.015 792.786,2002.102 721.786,1996.021 712.000 C 1992.729 706.703,1900.105 705.935,1205.146 705.444 C 772.216 705.138,414.953 705.701,411.228 706.693 M1760.000 1344.334 C 1742.902 1354.477,1624.203 1474.070,1616.382 1489.035 C 1611.188 1498.973,1611.628 1501.033,1622.203 1516.293 C 1636.190 1536.476,1758.425 1655.417,1771.170 1661.245 C 1778.703 1664.690,1781.915 1663.865,1789.170 1656.619 C 1797.113 1648.685,1798.134 1642.990,1799.335 1599.900 L 1800.670 1552.000 1813.335 1552.005 C 1837.448 1552.016,1890.316 1563.356,1912.980 1573.379 C 1945.523 1587.771,1986.901 1615.478,2009.204 1637.810 C 2046.166 1674.821,2077.567 1729.803,2090.305 1779.813 C 2099.436 1815.663,2096.567 1896.463,2084.380 1946.693 C 2075.894 1981.670,2075.793 1984.009,2082.221 1996.693 C 2092.455 2016.887,2099.819 2023.643,2116.489 2028.132 C 2151.208 2037.481,2167.562 2017.948,2186.904 1944.030 C 2200.039 1893.835,2201.605 1817.869,2190.493 1770.000 C 2177.913 1715.805,2160.139 1672.736,2134.508 1634.339 C 2064.435 1529.365,1956.306 1464.602,1833.186 1453.862 L 1800.632 1451.022 1799.316 1401.149 C 1798.081 1354.350,1797.418 1350.804,1788.557 1343.638 C 1776.893 1334.204,1777.086 1334.199,1760.000 1344.334 M1444.235 1683.270 C 1414.517 1714.510,1394.376 1816.595,1403.159 1891.459 C 1425.531 2082.136,1578.532 2231.580,1766.686 2246.534 L 1799.372 2249.132 1800.686 2298.466 C 1801.859 2342.503,1802.916 2348.715,1810.530 2356.319 C 1816.434 2362.215,1821.662 2364.012,1827.515 2362.154 C 1839.523 2358.343,1973.982 2224.711,1981.923 2208.695 C 1988.077 2196.285,1988.062 2194.671,1981.708 2184.695 C 1972.040 2169.516,1847.463 2047.133,1834.849 2040.421 C 1825.730 2035.570,1823.107 2035.665,1814.736 2041.150 C 1803.291 2048.649,1800.019 2062.444,1799.945 2103.500 C 1799.860 2151.421,1800.103 2151.064,1769.982 2147.438 C 1643.774 2132.244,1540.796 2042.293,1509.660 1920.048 C 1500.638 1884.629,1503.772 1794.977,1515.533 1752.000 C 1527.518 1708.205,1521.644 1690.912,1489.199 1674.482 C 1469.694 1664.605,1460.231 1666.455,1444.235 1683.270 " fill="#1D1E23" stroke="none" fill-rule="evenodd"/></svg>