<svg viewBox="0 0 2400 2400" fill="none" xmlns="http://www.w3.org/2000/svg"><path d="M1103.168 217.000 C 1099.670 219.750,1095.548 226.230,1094.008 231.399 C 1091.545 239.664,1101.868 251.496,1179.604 329.513 C 1228.222 378.307,1268.000 419.961,1268.000 422.078 C 1268.000 424.194,1041.445 652.743,764.544 929.963 C 289.705 1405.349,260.798 1435.086,255.995 1453.104 C 243.832 1498.731,261.110 1543.700,299.695 1566.838 C 327.649 1583.601,348.801 1586.625,378.613 1578.122 L 402.000 1571.452 906.994 1066.753 L 1411.988 562.055 1501.027 651.027 C 1572.847 722.794,1592.142 740.000,1600.806 740.000 C 1624.546 740.000,1624.000 746.266,1624.000 473.730 C 1624.000 238.077,1623.622 224.898,1616.685 218.620 C 1610.043 212.609,1586.390 212.000,1359.450 212.000 C 1165.572 212.000,1108.103 213.121,1103.168 217.000 M2034.000 818.682 C 2029.600 819.694,2019.700 822.395,2012.000 824.686 C 2001.068 827.938,1887.341 939.411,1493.006 1333.398 L 988.012 1837.945 898.973 1748.973 C 805.714 1655.782,800.142 1651.858,784.000 1668.000 C 776.171 1675.829,776.000 1681.333,776.000 1925.380 C 776.000 2161.895,776.377 2175.102,783.315 2181.380 C 789.958 2187.392,813.643 2188.000,1041.029 2188.000 C 1315.457 2188.000,1304.000 2189.016,1304.000 2164.679 C 1304.000 2156.012,1287.347 2137.291,1218.000 2068.000 C 1170.700 2020.738,1132.000 1980.251,1132.000 1978.029 C 1132.000 1975.806,1356.282 1749.891,1630.405 1475.994 C 2033.188 1073.543,2130.643 974.163,2138.366 958.000 C 2160.685 911.288,2142.488 855.448,2097.017 831.113 C 2077.991 820.931,2049.051 815.222,2034.000 818.682 " fill="#1D1E23" stroke="none" fill-rule="evenodd"/></svg>