<svg viewBox="0 0 2400 2400" fill="none" xmlns="http://www.w3.org/2000/svg"><path d="M1134.000 219.585 C 1076.177 223.464,1076.726 224.502,1205.689 355.010 L 1269.929 420.020 1155.593 535.010 C 660.825 1032.613,321.563 1375.880,293.479 1407.302 C 254.371 1451.059,248.178 1465.652,254.971 1498.036 C 260.745 1525.563,276.394 1548.858,299.312 1564.038 C 328.758 1583.542,343.236 1586.320,374.893 1578.541 L 402.000 1571.881 906.707 1067.239 L 1411.414 562.597 1489.762 638.958 C 1559.539 706.966,1598.452 740.000,1608.785 740.000 C 1620.815 740.000,1622.000 716.078,1622.000 473.199 C 1622.000 277.727,1620.953 227.350,1616.802 223.199 C 1612.674 219.070,1566.177 217.915,1390.802 217.585 C 1269.361 217.357,1153.800 218.257,1134.000 219.585 M2024.795 823.066 C 2005.425 825.224,1959.660 869.332,1442.735 1384.055 L 987.470 1837.380 922.735 1773.414 C 807.978 1660.021,795.474 1651.016,783.296 1673.000 C 775.854 1686.435,775.763 2173.361,783.201 2180.799 C 787.360 2184.957,837.470 2185.966,1033.201 2185.831 C 1167.840 2185.738,1282.751 2184.403,1288.559 2182.865 C 1302.054 2179.291,1305.418 2170.338,1298.373 2156.747 C 1295.309 2150.836,1256.321 2108.512,1211.732 2062.693 L 1130.662 1979.386 1252.659 1856.693 C 1732.417 1374.199,2052.233 1050.555,2091.956 1007.349 C 2147.394 947.051,2154.776 930.556,2143.879 891.323 C 2138.909 873.431,2108.919 839.168,2091.068 830.988 C 2076.827 824.461,2045.683 820.739,2024.795 823.066 " fill="#1D1E23" stroke="none" fill-rule="evenodd"/></svg>