<svg viewBox="0 0 2400 2400" fill="none" xmlns="http://www.w3.org/2000/svg"><path d="M1581.59 733.055C1597.33 748.805 1624.26 737.65 1624.26 715.378L1624.26 235.048C1624.26 221.24 1613.07 210.048 1599.26 210.048L1118.93 210.048C1096.66 210.048 1085.51 236.976 1101.25 252.725L1270.71 422.18 280.76 1412.13C241.707 1451.18 241.707 1514.5 280.76 1553.55 319.812 1592.6 383.129 1592.6 422.181 1553.55L1412.13 563.601 1581.59 733.055ZM818.412 1666.94C802.663 1651.19 775.735 1662.34 775.735 1684.62L775.735 2164.95C775.735 2178.75 786.927 2189.95 800.735 2189.95L1281.06 2189.95C1303.34 2189.95 1314.49 2163.02 1298.74 2147.27L1129.29 1977.81 2119.24 987.865C2158.29 948.813 2158.29 885.496 2119.24 846.444 2080.18 807.391 2016.87 807.391 1977.82 846.444L987.867 1836.39 818.412 1666.94Z" fill="#1D1E23"/></svg>