<svg viewBox="0 0 2400 2400" fill="none" xmlns="http://www.w3.org/2000/svg"><path d="M1123.075 214.822 C 1100.321 216.758,1089.495 227.817,1096.842 241.618 C 1099.296 246.228,1139.077 288.394,1185.244 335.321 L 1269.185 420.642 1235.633 455.321 C 1217.180 474.394,1018.349 674.500,793.788 900.000 C 290.967 1404.924,261.737 1435.097,256.236 1454.906 C 241.641 1507.462,272.654 1561.710,327.106 1578.875 C 347.475 1585.296,350.188 1585.288,375.344 1578.738 L 402.000 1571.798 906.832 1067.073 L 1411.664 562.348 1499.324 648.970 C 1588.977 737.562,1603.838 748.574,1614.345 734.204 C 1623.288 721.974,1624.514 682.989,1623.243 451.197 C 1622.260 271.819,1620.913 223.308,1616.803 219.197 C 1612.668 215.061,1563.656 213.920,1376.803 213.606 C 1247.661 213.390,1133.484 213.937,1123.075 214.822 M2013.125 824.078 C 2000.196 829.281,1896.084 931.571,1417.168 1409.607 L 988.335 1837.651 901.014 1751.364 C 852.988 1703.906,809.501 1663.746,804.376 1662.119 C 797.512 1659.941,792.815 1661.407,786.530 1667.693 C 778.006 1676.218,778.000 1676.387,778.000 1925.912 C 778.000 2125.483,779.044 2176.645,783.201 2180.801 C 787.358 2184.956,838.920 2186.000,1040.059 2186.000 C 1269.528 2186.000,1292.304 2185.413,1298.377 2179.339 C 1303.012 2174.703,1304.219 2169.417,1302.346 2161.956 C 1300.717 2155.465,1266.366 2117.317,1215.271 2065.257 L 1130.885 1979.278 1166.443 1942.701 C 1185.999 1922.584,1406.394 1700.896,1656.208 1450.062 C 1906.023 1199.228,2116.812 985.900,2124.630 976.000 C 2147.732 946.743,2153.171 920.429,2143.136 886.464 C 2136.644 864.493,2103.507 831.356,2081.536 824.864 C 2062.592 819.267,2026.123 818.848,2013.125 824.078 " fill="#1D1E23" stroke="none" fill-rule="evenodd"/></svg>