<svg viewBox="0 0 2400 2400" fill="none" xmlns="http://www.w3.org/2000/svg"><path d="M1105.000 224.125 C 1100.050 226.114,1096.000 229.330,1096.000 231.271 C 1096.000 239.752,1124.445 272.279,1194.226 343.593 L 1268.995 420.004 929.498 762.253 C 449.745 1245.895,283.324 1416.120,268.789 1438.064 C 252.088 1463.278,249.742 1478.142,257.962 1506.663 C 263.289 1525.143,269.049 1534.245,285.640 1550.400 C 297.579 1562.025,314.796 1573.934,325.665 1578.085 C 343.856 1585.032,346.065 1585.054,373.370 1578.560 L 402.000 1571.752 906.680 1067.202 L 1411.359 562.653 1484.680 633.710 C 1552.899 699.824,1599.700 740.000,1608.495 740.000 C 1620.298 740.000,1621.551 715.056,1621.774 475.615 C 1621.960 275.806,1621.036 232.068,1616.510 226.615 C 1611.507 220.586,1588.991 220.022,1362.510 220.254 C 1224.330 220.395,1110.004 222.113,1105.000 224.125 M1990.289 846.325 C 1954.670 875.919,1759.590 1068.074,1331.231 1495.499 L 988.462 1837.521 916.641 1767.177 C 814.480 1667.119,794.405 1652.558,784.396 1671.259 C 774.614 1689.537,774.521 2164.666,784.296 2180.478 C 787.144 2185.085,829.155 2185.942,1037.820 2185.652 C 1268.435 2185.330,1288.523 2184.767,1295.531 2178.424 C 1300.170 2174.226,1302.317 2168.428,1301.040 2163.546 C 1298.606 2154.238,1260.510 2112.271,1184.555 2035.225 L 1130.556 1980.450 1462.278 1646.011 C 1922.304 1182.216,2103.968 996.461,2125.387 967.968 C 2153.368 930.745,2154.801 904.957,2130.866 869.378 C 2123.790 858.859,2110.378 844.925,2101.063 838.413 C 2086.361 828.135,2079.761 826.357,2051.063 824.937 L 2018.000 823.301 1990.289 846.325 " fill="#1D1E23" stroke="none" fill-rule="evenodd"/></svg>