<svg viewBox="0 0 2400 2400" fill="none" xmlns="http://www.w3.org/2000/svg"><path d="M1103.000 220.320 C 1085.825 230.324,1093.747 241.431,1182.725 332.096 L 1269.450 420.465 1201.501 489.233 C 1164.129 527.055,953.652 738.909,733.776 960.020 C 513.899 1181.131,316.558 1381.396,295.240 1405.053 C 261.104 1442.934,256.143 1450.316,253.651 1466.932 C 248.050 1504.286,266.410 1543.557,299.198 1564.352 C 330.129 1583.969,344.721 1586.710,375.527 1578.690 L 402.000 1571.798 906.765 1067.139 L 1411.531 562.481 1494.877 644.240 C 1577.455 725.246,1603.573 746.027,1612.095 737.505 C 1622.702 726.898,1624.812 673.558,1623.422 451.153 C 1622.192 254.384,1621.191 223.196,1616.000 219.915 C 1607.542 214.569,1112.203 214.960,1103.000 220.320 M2012.953 825.716 C 1997.095 832.932,1882.186 945.698,1377.242 1449.569 L 988.484 1837.501 908.804 1759.383 C 812.994 1665.450,803.634 1657.774,792.305 1663.837 C 787.789 1666.254,782.723 1673.129,781.047 1679.115 C 779.371 1685.102,778.000 1799.260,778.000 1932.800 C 778.000 2126.677,779.048 2176.649,783.200 2180.800 C 787.352 2184.953,837.681 2186.000,1033.200 2186.000 C 1167.840 2186.000,1282.830 2184.646,1288.733 2182.991 C 1304.997 2178.431,1306.654 2166.239,1293.380 2148.810 C 1287.176 2140.665,1247.986 2099.259,1206.291 2056.798 L 1130.481 1979.595 1206.573 1902.798 C 1248.424 1860.559,1472.722 1634.715,1705.014 1400.922 C 2041.189 1062.573,2129.468 971.618,2137.681 955.136 C 2150.046 930.323,2151.005 904.892,2140.439 882.000 C 2132.146 864.032,2107.769 838.233,2090.700 829.359 C 2073.849 820.599,2028.835 818.489,2012.953 825.716 " fill="#1D1E23" stroke="none" fill-rule="evenodd"/></svg>