<svg viewBox="0 0 2400 2400" fill="none" xmlns="http://www.w3.org/2000/svg"><path d="M1809.092 446.820 C 1802.782 456.446,1801.847 471.009,1800.609 578.820 L 1799.218 700.000 1520.609 700.188 C 1086.115 700.482,400.764 707.324,372.419 711.651 C 351.989 714.770,344.163 718.150,333.551 728.435 C 286.560 773.980,295.119 849.927,351.169 884.778 L 366.000 894.000 576.000 896.561 C 691.500 897.969,1014.150 899.319,1293.000 899.561 L 1800.000 900.000 1800.473 1015.000 C 1800.734 1078.250,1802.084 1135.208,1803.473 1141.572 C 1807.061 1158.006,1816.689 1163.056,1830.740 1155.876 C 1836.933 1152.711,1918.950 1073.573,2013.000 980.012 C 2160.245 833.534,2184.000 808.285,2184.000 798.254 C 2184.000 788.259,2161.150 763.672,2023.000 625.012 C 1873.645 475.106,1831.760 436.000,1820.556 436.000 C 1818.152 436.000,1812.993 440.869,1809.092 446.820 M552.000 1253.528 C 539.900 1263.166,459.350 1342.055,373.000 1428.836 C 238.777 1563.730,216.000 1588.301,216.000 1598.208 C 216.000 1608.150,240.881 1634.659,391.225 1784.898 C 536.216 1929.787,568.327 1960.000,577.324 1960.000 C 595.880 1960.000,597.533 1949.321,599.149 1819.000 L 600.626 1700.000 1029.313 1699.604 C 1265.091 1699.386,1587.600 1697.981,1746.000 1696.482 C 2064.787 1693.464,2046.512 1695.118,2070.156 1667.144 C 2098.065 1634.123,2103.984 1594.399,2086.361 1558.379 C 2070.404 1525.765,2057.630 1515.970,2025.432 1511.658 C 1995.800 1507.690,1248.474 1500.388,847.428 1500.148 L 600.856 1500.000 599.428 1378.823 C 598.158 1271.057,597.215 1256.448,590.908 1246.823 C 587.007 1240.870,581.607 1236.001,578.908 1236.003 C 576.209 1236.004,564.100 1243.891,552.000 1253.528 " fill="#1D1E23" stroke="none" fill-rule="evenodd"/></svg>