<svg viewBox="0 0 2400 2400" fill="none" xmlns="http://www.w3.org/2000/svg"><path d="M1809.620 444.414 C 1802.531 452.241,1801.919 461.409,1800.838 575.930 L 1799.677 699.032 1096.838 701.289 C 657.758 702.699,386.142 705.038,373.062 707.522 C 346.369 712.591,328.284 726.472,313.835 752.983 C 284.975 805.930,310.608 874.158,366.195 892.353 C 378.810 896.481,525.120 897.822,1091.000 898.993 L 1800.000 900.461 1800.044 1013.230 C 1800.068 1075.254,1801.215 1132.819,1802.592 1141.153 C 1806.193 1162.943,1816.628 1167.312,1835.327 1154.858 C 1858.475 1139.441,2179.178 818.684,2183.923 806.203 C 2187.615 796.491,2186.709 793.062,2177.126 780.498 C 2159.794 757.773,1864.066 462.855,1844.400 448.683 C 1823.645 433.727,1819.733 433.247,1809.620 444.414 M555.600 1248.650 C 536.056 1262.697,240.164 1557.830,222.797 1580.599 C 213.198 1593.184,212.364 1596.444,216.165 1606.498 C 220.393 1617.680,520.926 1919.835,558.196 1950.375 C 572.821 1962.359,578.078 1964.657,583.343 1961.370 C 598.680 1951.796,599.880 1941.537,599.941 1819.544 L 600.000 1701.088 1311.000 1698.880 C 1843.395 1697.226,2025.981 1695.476,2037.847 1691.914 C 2064.906 1683.790,2094.104 1643.809,2098.857 1608.372 C 2102.016 1584.819,2090.260 1555.016,2068.456 1531.303 C 2049.752 1510.962,2049.420 1510.804,2017.814 1507.323 C 2000.316 1505.396,1674.223 1502.760,1293.162 1501.464 L 600.324 1499.109 599.162 1375.968 C 598.081 1261.410,597.469 1252.242,590.380 1244.414 C 580.271 1233.252,576.362 1233.728,555.600 1248.650 " fill="#1D1E23" stroke="none" fill-rule="evenodd"/></svg>