<svg viewBox="0 0 2400 2400" fill="none" xmlns="http://www.w3.org/2000/svg"><path d="M1808.000 444.000 C 1800.344 451.656,1800.000 457.333,1800.000 576.000 L 1800.000 700.000 1092.503 700.000 C 320.801 700.000,368.321 698.602,337.364 722.214 C 330.112 727.745,319.188 740.760,313.089 751.136 C 303.633 767.222,302.000 774.417,302.000 800.000 C 302.000 825.583,303.633 832.778,313.089 848.864 C 319.188 859.240,330.112 872.255,337.364 877.786 C 368.321 901.398,320.801 900.000,1092.503 900.000 L 1800.000 900.000 1800.000 1023.110 C 1800.000 1128.060,1800.919 1147.531,1806.227 1155.110 C 1821.256 1176.567,1822.445 1175.590,2011.017 986.983 C 2165.492 832.479,2188.000 808.444,2188.000 797.992 C 2188.000 787.540,2165.735 763.770,2012.862 611.009 C 1825.823 424.107,1826.963 425.037,1808.000 444.000 M387.096 1411.096 C 234.639 1563.553,212.000 1587.733,212.000 1598.113 C 212.000 1608.495,234.850 1632.880,389.017 1787.017 C 517.268 1915.244,568.508 1964.000,575.017 1964.000 C 579.958 1964.000,587.600 1960.400,592.000 1956.000 C 599.656 1948.344,600.000 1942.667,600.000 1824.000 L 600.000 1700.000 1307.287 1700.000 C 2101.437 1700.000,2037.713 1702.497,2070.105 1670.105 C 2109.746 1630.465,2109.286 1568.389,2069.063 1529.297 C 2036.583 1497.730,2095.774 1500.000,1305.274 1500.000 L 600.000 1500.000 600.000 1376.000 C 600.000 1257.333,599.656 1251.656,592.000 1244.000 C 572.987 1224.987,574.169 1224.023,387.096 1411.096 " fill="#1D1E23" stroke="none" fill-rule="evenodd"/></svg>