<svg viewBox="0 0 2400 2400" fill="none" xmlns="http://www.w3.org/2000/svg"><path d="M1808.290 446.539 C 1800.317 456.676,1800.000 461.718,1800.000 578.539 L 1800.000 700.000 1145.000 700.204 C 784.750 700.316,460.781 701.856,425.069 703.626 C 364.928 706.608,358.997 707.600,344.673 717.080 C 286.892 755.317,286.985 844.744,344.846 883.035 C 357.273 891.259,367.173 893.515,402.914 896.271 C 426.611 898.098,750.650 899.684,1123.000 899.796 L 1800.000 900.000 1800.399 1019.000 C 1800.618 1084.450,1802.009 1142.330,1803.490 1147.621 C 1807.600 1162.310,1817.350 1166.710,1830.740 1159.918 C 1843.481 1153.455,2171.268 827.874,2181.825 811.196 C 2186.291 804.140,2187.666 797.202,2185.789 791.196 C 2182.366 780.247,1869.802 466.453,1844.400 448.464 C 1822.971 433.288,1818.885 433.071,1808.290 446.539 M555.600 1248.425 C 530.342 1266.256,217.682 1580.195,214.226 1591.196 C 212.337 1597.206,213.696 1604.134,218.148 1611.196 C 229.847 1629.754,561.468 1958.675,571.766 1961.934 C 579.584 1964.409,583.372 1962.885,590.766 1954.289 C 599.974 1943.585,600.000 1943.206,600.000 1821.933 L 600.000 1700.311 1309.000 1698.881 C 1867.120 1697.754,2022.093 1696.365,2037.235 1692.351 C 2053.175 1688.125,2059.450 1683.455,2073.866 1665.088 C 2109.018 1620.301,2107.991 1575.159,2070.839 1532.000 C 2064.211 1524.300,2054.411 1515.614,2049.061 1512.698 C 2030.118 1502.372,1894.290 1500.236,1249.000 1500.118 L 600.000 1500.000 600.000 1378.539 C 600.000 1261.718,599.683 1256.676,591.710 1246.539 C 581.120 1233.077,577.039 1233.290,555.600 1248.425 " fill="#1D1E23" stroke="none" fill-rule="evenodd"/></svg>