<svg viewBox="0 0 2400 2400" fill="none" xmlns="http://www.w3.org/2000/svg"><path d="M1800 1139.64C1800 1161.92 1826.93 1173.07 1842.68 1157.32L2182.32 817.678C2192.09 807.915 2192.09 792.085 2182.32 782.322L1842.68 442.678C1826.93 426.928 1800 438.083 1800 460.355V700H400C344.772 700 300 744.772 300 800 300 855.228 344.772 900 400 900H1800V1139.64ZM600 1260.36C600 1238.08 573.071 1226.93 557.322 1242.68L217.678 1582.32C207.915 1592.09 207.915 1607.91 217.678 1617.68L557.322 1957.32C573.072 1973.07 600 1961.92 600 1939.64V1700H2000C2055.23 1700 2100 1655.23 2100 1600 2100 1544.77 2055.23 1500 2000 1500H600V1260.36Z" fill="#1D1E23"/></svg>