<svg viewBox="0 0 2400 2400" fill="none" xmlns="http://www.w3.org/2000/svg"><path d="M484.000 203.823 L 334.000 206.000 309.431 219.328 C 260.313 245.972,224.305 286.597,209.563 332.000 C 202.947 352.377,202.311 382.970,200.948 746.593 C 200.049 986.377,201.032 1158.655,203.474 1189.204 C 208.419 1251.089,214.034 1263.390,262.395 1318.292 C 306.337 1368.176,1026.840 2088.659,1084.901 2140.774 C 1121.352 2173.492,1131.877 2180.665,1154.901 2188.479 C 1205.345 2205.600,1271.556 2198.450,1310.465 2171.680 C 1352.625 2142.674,2099.323 1396.704,2162.187 1320.789 C 2187.756 1289.912,2197.531 1260.368,2197.539 1213.944 C 2197.547 1164.929,2185.536 1135.345,2148.191 1092.390 C 2106.224 1044.119,1393.224 331.294,1330.006 274.405 C 1299.926 247.336,1268.870 223.143,1256.321 217.003 L 1234.630 206.391 1092.315 203.500 C 936.415 200.333,716.463 200.450,484.000 203.823 M1598.993 800.993 L 2012.000 1213.985 1613.007 1612.993 L 1214.015 2012.000 801.007 1599.007 L 388.000 1186.014 388.000 787.007 L 388.000 388.000 786.993 388.000 L 1185.986 388.000 1598.993 800.993 M726.860 579.951 C 625.880 598.026,556.032 709.157,582.169 810.160 C 598.780 874.347,659.607 931.908,723.546 943.944 C 801.840 958.683,876.385 928.807,916.612 866.567 C 995.276 744.859,917.695 589.131,773.109 578.515 C 758.199 577.421,737.387 578.067,726.860 579.951 " fill="#1D1E23" stroke="none" fill-rule="evenodd"/></svg>