<svg viewBox="0 0 2400 2400" fill="none" xmlns="http://www.w3.org/2000/svg"><path d="M414.000 203.770 L 334.000 206.000 305.057 221.465 C 269.079 240.690,235.408 274.096,219.559 306.290 C 210.335 325.027,206.632 339.672,203.853 368.404 C 199.150 417.029,199.097 1154.423,203.792 1202.950 C 209.746 1264.484,211.223 1266.592,344.961 1404.461 C 409.804 1471.307,607.103 1669.506,783.401 1844.903 C 1009.071 2069.418,1110.168 2167.367,1124.972 2175.836 C 1169.730 2201.443,1226.519 2205.702,1279.990 2187.462 C 1301.106 2180.260,1311.982 2172.971,1337.990 2148.596 C 1426.999 2065.174,1816.244 1678.677,1984.594 1506.557 C 2159.108 1328.136,2176.497 1309.150,2184.265 1288.557 C 2204.791 1234.139,2203.236 1182.686,2179.564 1133.086 C 2168.615 1110.145,2136.648 1076.747,1844.730 783.264 C 1424.850 361.134,1292.144 232.494,1261.199 217.613 C 1239.346 207.106,1233.705 206.289,1164.000 203.552 C 1079.739 200.243,534.855 200.402,414.000 203.770 M1598.993 800.993 L 2012.000 1213.985 1613.007 1612.993 L 1214.015 2012.000 801.007 1599.007 L 388.000 1186.014 388.000 787.007 L 388.000 388.000 786.993 388.000 L 1185.986 388.000 1598.993 800.993 M717.341 581.690 C 611.516 607.355,549.219 726.428,587.922 829.057 C 605.395 875.390,648.192 918.242,695.038 936.310 C 726.468 948.432,777.851 951.063,812.053 942.301 C 872.868 926.720,918.856 882.660,940.177 819.546 C 952.513 783.030,949.949 729.279,934.019 690.461 C 900.482 608.738,804.496 560.554,717.341 581.690 " fill="#1D1E23" stroke="none" fill-rule="evenodd"/></svg>