<svg viewBox="0 0 2400 2400" fill="none" xmlns="http://www.w3.org/2000/svg"><path d="M348.000 204.392 C 300.599 213.649,244.185 256.220,222.432 299.147 C 199.260 344.874,200.000 328.822,200.000 786.000 C 200.000 1242.949,199.252 1226.651,222.350 1273.067 C 230.753 1289.953,316.010 1377.353,663.383 1725.184 C 900.223 1962.335,1101.910 2161.654,1111.579 2168.113 C 1168.302 2206.012,1243.565 2209.420,1306.000 2176.918 C 1334.877 2161.886,2161.886 1334.877,2176.918 1306.000 C 2209.418 1243.569,2206.013 1168.328,2168.121 1111.579 C 2161.665 1101.910,1961.447 899.449,1723.192 661.665 C 1319.592 258.863,1288.324 228.600,1265.466 218.650 C 1251.972 212.776,1231.477 206.177,1219.920 203.985 C 1193.586 198.991,373.697 199.373,348.000 204.392 M1598.993 800.993 L 2012.000 1213.985 1613.007 1612.993 L 1214.015 2012.000 801.007 1599.007 L 388.000 1186.014 388.000 787.007 L 388.000 388.000 786.993 388.000 L 1185.986 388.000 1598.993 800.993 M712.331 582.352 C 576.073 618.987,529.983 794.505,630.283 894.805 C 689.726 954.248,788.972 966.487,859.561 923.080 C 942.486 872.087,972.176 769.899,929.978 680.713 C 892.267 601.008,799.267 558.979,712.331 582.352 " fill="#1D1E23" stroke="none" fill-rule="evenodd"/></svg>