<svg viewBox="0 0 2400 2400" fill="none" xmlns="http://www.w3.org/2000/svg"><path d="M408.000 303.519 C 348.013 306.195,345.104 306.730,318.396 319.989 C 265.659 346.170,223.795 394.943,209.475 446.885 C 202.567 471.945,202.007 491.585,202.098 706.000 C 202.196 936.104,202.270 938.194,211.116 961.677 C 230.177 1012.277,271.031 1057.584,317.669 1079.842 C 356.986 1098.606,386.306 1100.820,572.418 1099.076 C 731.001 1097.590,739.001 1097.153,761.677 1088.745 C 820.844 1066.805,867.358 1019.918,888.975 960.425 C 895.598 942.198,897.477 925.083,899.015 869.000 L 900.907 800.000 1000.220 800.000 L 1099.532 800.000 1100.910 1219.000 L 1102.288 1638.000 1111.161 1661.677 C 1137.246 1731.277,1199.711 1784.642,1268.078 1795.734 C 1282.335 1798.047,1340.146 1799.953,1396.546 1799.970 L 1499.093 1800.000 1500.985 1869.000 C 1502.556 1926.313,1504.330 1942.010,1511.456 1961.677 C 1536.796 2031.612,1601.030 2085.824,1670.440 2095.858 C 1706.260 2101.036,1993.740 2101.036,2029.560 2095.858 C 2098.799 2085.849,2162.099 2032.553,2188.927 1961.677 C 2197.845 1938.119,2197.890 1936.808,2197.890 1700.000 C 2197.890 1463.192,2197.845 1461.881,2188.927 1438.323 C 2163.610 1371.438,2106.303 1320.550,2040.959 1306.927 C 2009.036 1300.271,1690.964 1300.271,1659.041 1306.927 C 1593.506 1320.590,1535.357 1372.360,1511.456 1438.323 C 1504.330 1457.990,1502.556 1473.687,1500.985 1531.000 L 1499.093 1600.000 1399.546 1600.000 L 1300.000 1600.000 1300.000 1200.000 L 1300.000 800.000 1399.546 800.000 L 1499.093 800.000 1500.985 869.000 C 1502.549 926.056,1504.346 942.051,1511.362 961.404 C 1532.732 1020.347,1578.990 1066.743,1638.323 1088.745 C 1660.999 1097.153,1668.999 1097.590,1827.582 1099.076 C 1931.678 1100.051,2004.959 1099.040,2024.928 1096.353 C 2098.270 1086.483,2161.406 1034.621,2188.884 961.677 C 2197.730 938.194,2197.804 936.104,2197.902 706.000 C 2197.993 491.585,2197.433 471.945,2190.525 446.885 C 2171.923 379.412,2109.799 321.279,2040.959 306.927 C 2009.036 300.271,1690.964 300.271,1659.041 306.927 C 1593.506 320.590,1535.357 372.360,1511.456 438.323 C 1504.330 457.990,1502.556 473.687,1500.985 531.000 L 1499.093 600.000 1200.000 600.000 L 900.907 600.000 899.015 531.000 C 897.444 473.687,895.670 457.990,888.544 438.323 C 864.953 373.214,805.528 319.570,744.188 308.010 C 716.803 302.849,490.716 299.829,408.000 303.519 " fill="#1D1E23" stroke="none" fill-rule="evenodd"/></svg>