<svg viewBox="0 0 2400 2400" fill="none" xmlns="http://www.w3.org/2000/svg"><path d="M387.777 303.682 C 349.204 305.800,342.856 307.334,314.345 321.432 C 254.895 350.828,211.726 409.013,203.817 470.404 C 199.190 506.323,199.190 893.677,203.817 929.596 C 214.226 1010.389,287.281 1084.416,368.137 1096.101 C 401.768 1100.962,698.232 1100.962,731.863 1096.101 C 791.245 1087.519,849.956 1043.733,877.573 987.432 C 896.216 949.424,900.000 927.496,900.000 857.454 L 900.000 800.000 1000.000 800.000 L 1100.000 800.000 1100.176 1199.000 C 1100.272 1418.450,1101.882 1611.220,1103.754 1627.377 C 1113.134 1708.361,1184.792 1782.859,1266.000 1796.054 C 1279.200 1798.199,1337.250 1799.964,1395.000 1799.977 L 1500.000 1800.000 1500.000 1857.454 C 1500.000 1927.496,1503.784 1949.424,1522.427 1987.432 C 1549.491 2042.606,1607.593 2086.564,1666.000 2096.054 C 1679.200 2098.199,1762.000 2099.954,1850.000 2099.954 C 1938.000 2099.954,2020.800 2098.199,2034.000 2096.054 C 2112.831 2083.246,2184.751 2010.398,2196.101 1931.863 C 2198.157 1917.638,2199.839 1813.300,2199.839 1700.000 C 2199.839 1586.700,2198.157 1482.362,2196.101 1468.137 C 2187.502 1408.636,2143.847 1350.200,2087.010 1322.109 C 2048.264 1302.960,2019.216 1300.285,1850.000 1300.285 C 1680.784 1300.285,1651.736 1302.960,1612.990 1322.109 C 1573.604 1341.575,1541.541 1373.601,1522.427 1412.568 C 1503.784 1450.576,1500.000 1472.504,1500.000 1542.546 L 1500.000 1600.000 1400.000 1600.000 L 1300.000 1600.000 1300.000 1200.000 L 1300.000 800.000 1400.000 800.000 L 1500.000 800.000 1500.000 857.454 C 1500.000 927.496,1503.784 949.424,1522.427 987.432 C 1550.044 1043.733,1608.755 1087.519,1668.137 1096.101 C 1701.768 1100.962,1998.232 1100.962,2031.863 1096.101 C 2112.719 1084.416,2185.774 1010.389,2196.183 929.596 C 2200.810 893.677,2200.810 506.323,2196.183 470.404 C 2188.354 409.638,2145.026 350.782,2087.010 322.109 C 2048.264 302.960,2019.216 300.285,1850.000 300.285 C 1680.784 300.285,1651.736 302.960,1612.990 322.109 C 1573.604 341.575,1541.541 373.601,1522.427 412.568 C 1503.784 450.576,1500.000 472.504,1500.000 542.546 L 1500.000 600.000 1200.000 600.000 L 900.000 600.000 900.000 542.546 C 900.000 472.504,896.216 450.576,877.573 412.568 C 858.381 373.443,826.418 341.586,786.616 321.915 C 759.373 308.450,751.881 306.643,711.184 303.714 C 660.951 300.098,453.409 300.078,387.777 303.682 " fill="#1D1E23" stroke="none" fill-rule="evenodd"/></svg>