<svg viewBox="0 0 2400 2400" fill="none" xmlns="http://www.w3.org/2000/svg"><path d="M374.000 307.742 C 344.660 309.736,333.930 312.377,316.000 322.013 C 283.493 339.484,236.099 388.299,220.324 420.558 C 208.373 444.997,207.016 451.856,203.309 506.558 C 201.033 540.149,200.096 646.021,201.155 750.000 C 203.251 955.889,203.119 954.831,232.164 999.768 C 255.163 1035.352,283.459 1061.319,317.653 1078.218 C 343.051 1090.771,352.872 1093.264,388.567 1096.220 C 445.455 1100.931,669.465 1100.742,716.000 1095.943 C 766.518 1090.733,801.680 1073.934,837.245 1038.018 C 883.917 990.885,899.811 943.972,899.931 853.000 L 900.000 800.000 999.946 800.000 L 1099.892 800.000 1100.946 1221.000 L 1102.000 1642.000 1116.394 1672.000 C 1144.373 1730.313,1188.242 1770.594,1243.400 1788.618 C 1267.550 1796.510,1280.590 1797.471,1385.000 1799.060 L 1500.000 1800.810 1500.124 1847.405 C 1500.308 1917.143,1505.516 1949.123,1522.221 1983.091 C 1547.039 2033.557,1592.077 2072.154,1646.000 2089.166 C 1673.132 2097.726,1679.519 2098.000,1852.000 2098.000 L 2030.000 2098.000 2058.864 2087.448 C 2114.263 2067.196,2158.245 2027.011,2182.142 1974.814 C 2190.574 1956.397,2193.340 1942.251,2196.197 1902.942 C 2200.809 1839.497,2200.799 1560.365,2196.182 1496.846 C 2191.558 1433.215,2180.751 1408.298,2139.192 1365.438 C 2101.617 1326.687,2074.747 1313.056,2025.779 1307.905 C 1981.395 1303.237,1712.616 1303.122,1672.623 1307.754 C 1610.576 1314.940,1551.230 1357.925,1522.389 1416.568 C 1505.478 1450.955,1500.308 1482.632,1500.124 1553.000 L 1500.000 1600.000 1400.000 1600.000 L 1300.000 1600.000 1300.000 1200.000 L 1300.000 800.000 1400.000 800.000 L 1500.000 800.000 1500.069 853.000 C 1500.150 914.800,1506.758 951.431,1524.252 987.056 C 1541.311 1021.794,1579.957 1059.610,1617.007 1077.819 C 1657.966 1097.949,1697.571 1101.129,1881.669 1099.068 C 2020.227 1097.517,2031.713 1096.841,2056.000 1088.804 C 2107.034 1071.916,2154.389 1030.563,2178.453 981.871 C 2191.197 956.087,2192.878 948.658,2196.145 903.690 C 2200.719 840.737,2200.760 571.159,2196.207 500.538 C 2192.986 450.586,2191.810 445.153,2178.288 417.793 C 2158.643 378.045,2126.004 345.381,2086.345 325.780 C 2047.419 306.542,2023.623 304.388,1850.000 304.388 C 1676.417 304.388,1652.576 306.545,1613.693 325.762 C 1553.918 355.304,1512.198 412.488,1504.081 476.000 C 1501.972 492.500,1500.191 527.150,1500.124 553.000 L 1500.000 600.000 1200.000 600.000 L 900.000 600.000 899.876 553.000 C 899.809 527.150,898.028 492.500,895.919 476.000 C 887.920 413.409,844.079 352.754,786.370 324.436 C 760.300 311.644,755.443 310.697,700.370 307.678 C 633.886 304.033,427.959 304.073,374.000 307.742 " fill="#1D1E23" stroke="none" fill-rule="evenodd"/></svg>