<svg viewBox="0 0 2400 2400" fill="none" xmlns="http://www.w3.org/2000/svg"><path d="M358.041 304.701 C 285.928 318.453,219.929 384.827,204.420 459.197 C 198.331 488.395,198.331 911.605,204.420 940.803 C 220.053 1015.765,284.235 1079.947,359.197 1095.580 C 388.069 1101.601,711.931 1101.601,740.803 1095.580 C 815.765 1079.947,879.947 1015.765,895.580 940.803 C 898.011 929.145,900.000 892.695,900.000 859.803 L 900.000 800.000 1000.000 800.000 L 1100.000 800.000 1100.000 1209.803 C 1100.000 1493.530,1101.360 1626.127,1104.420 1640.803 C 1120.053 1715.765,1184.235 1779.947,1259.197 1795.580 C 1271.689 1798.185,1325.488 1800.000,1390.197 1800.000 L 1500.000 1800.000 1500.000 1859.803 C 1500.000 1892.695,1501.989 1929.145,1504.420 1940.803 C 1520.053 2015.765,1584.235 2079.947,1659.197 2095.580 C 1672.740 2098.404,1741.631 2100.000,1850.000 2100.000 C 1958.369 2100.000,2027.260 2098.404,2040.803 2095.580 C 2115.765 2079.947,2179.947 2015.765,2195.580 1940.803 C 2198.496 1926.820,2200.000 1844.872,2200.000 1700.000 C 2200.000 1555.128,2198.496 1473.180,2195.580 1459.197 C 2179.683 1382.966,2113.826 1318.136,2038.265 1304.335 C 2023.710 1301.677,1950.901 1300.000,1850.000 1300.000 C 1749.099 1300.000,1676.290 1301.677,1661.735 1304.335 C 1586.174 1318.136,1520.317 1382.966,1504.420 1459.197 C 1501.989 1470.855,1500.000 1507.305,1500.000 1540.197 L 1500.000 1600.000 1400.000 1600.000 L 1300.000 1600.000 1300.000 1200.000 L 1300.000 800.000 1400.000 800.000 L 1500.000 800.000 1500.000 859.803 C 1500.000 892.695,1501.989 929.145,1504.420 940.803 C 1520.053 1015.765,1584.235 1079.947,1659.197 1095.580 C 1688.069 1101.601,2011.931 1101.601,2040.803 1095.580 C 2115.765 1079.947,2179.947 1015.765,2195.580 940.803 C 2201.669 911.605,2201.669 488.395,2195.580 459.197 C 2179.683 382.966,2113.826 318.136,2038.265 304.335 C 2023.710 301.677,1950.901 300.000,1850.000 300.000 C 1749.099 300.000,1676.290 301.677,1661.735 304.335 C 1586.174 318.136,1520.317 382.966,1504.420 459.197 C 1501.989 470.855,1500.000 507.305,1500.000 540.197 L 1500.000 600.000 1200.000 600.000 L 900.000 600.000 900.000 540.197 C 900.000 507.305,898.011 470.855,895.580 459.197 C 879.683 382.966,813.826 318.136,738.265 304.335 C 708.756 298.945,386.598 299.255,358.041 304.701 " fill="#1D1E23" stroke="none" fill-rule="evenodd"/></svg>