<svg viewBox="0 0 2400 2400" fill="none" xmlns="http://www.w3.org/2000/svg"><path d="M354.000 307.679 C 307.664 315.435,247.624 365.365,221.798 417.620 C 207.088 447.384,206.487 450.268,203.549 505.199 C 199.573 579.549,199.566 835.632,203.538 902.132 C 206.492 951.592,207.404 955.697,221.341 982.218 C 249.071 1034.987,291.324 1072.620,341.583 1089.310 C 363.889 1096.718,378.624 1097.559,512.000 1099.037 C 592.300 1099.928,679.650 1098.932,706.112 1096.825 C 749.817 1093.346,756.948 1091.623,783.959 1078.020 C 823.908 1057.903,857.870 1023.668,877.633 983.596 C 895.162 948.052,899.678 920.721,899.869 849.000 L 900.000 800.000 1000.000 800.000 L 1100.000 800.000 1100.000 1215.909 L 1100.000 1631.817 1109.866 1658.029 C 1137.849 1732.372,1201.010 1785.403,1274.000 1795.838 C 1289.400 1798.040,1346.289 1799.877,1400.420 1799.921 L 1498.840 1800.000 1501.001 1869.000 C 1502.826 1927.278,1504.558 1941.729,1512.149 1962.000 C 1539.123 2034.032,1603.507 2086.654,1676.000 2095.919 C 1714.958 2100.898,1985.042 2100.898,2024.000 2095.919 C 2087.631 2087.787,2150.303 2041.982,2179.674 1982.140 C 2192.270 1956.477,2193.593 1950.170,2196.462 1902.140 C 2198.175 1873.463,2199.576 1782.500,2199.576 1700.000 C 2199.576 1617.500,2198.175 1526.537,2196.462 1497.860 C 2193.596 1449.873,2192.261 1443.500,2179.701 1417.860 C 2163.609 1385.007,2124.271 1343.511,2093.691 1327.132 C 2052.342 1304.983,2041.983 1304.000,1850.000 1304.000 C 1704.494 1304.000,1669.567 1305.072,1650.140 1310.132 C 1587.818 1326.365,1535.958 1374.420,1512.149 1438.000 C 1504.558 1458.271,1502.826 1472.722,1501.001 1531.000 L 1498.840 1600.000 1399.420 1600.000 L 1300.000 1600.000 1300.000 1200.000 L 1300.000 800.000 1400.000 800.000 L 1500.000 800.000 1500.131 849.000 C 1500.319 919.266,1504.826 947.186,1521.726 982.774 C 1540.529 1022.368,1578.259 1060.281,1617.987 1079.503 C 1641.115 1090.693,1652.753 1093.575,1685.947 1096.328 C 1741.992 1100.978,1992.143 1100.665,2026.000 1095.903 C 2088.327 1087.137,2150.877 1040.813,2179.711 982.065 C 2192.487 956.034,2193.630 950.444,2196.476 900.065 C 2200.363 831.263,2200.368 584.110,2196.484 507.665 C 2193.631 451.518,2192.965 448.162,2178.708 418.141 C 2153.697 365.474,2104.724 324.422,2049.860 310.132 C 2015.131 301.086,1684.869 301.086,1650.140 310.132 C 1587.818 326.365,1535.958 374.420,1512.149 438.000 C 1504.558 458.271,1502.826 472.722,1501.001 531.000 L 1498.840 600.000 1200.000 600.000 L 901.160 600.000 898.999 531.000 C 897.174 472.722,895.442 458.271,887.851 438.000 C 861.656 368.047,801.285 316.619,735.307 308.052 C 702.583 303.803,379.048 303.487,354.000 307.679 " fill="#1D1E23" stroke="none" fill-rule="evenodd"/></svg>