<svg viewBox="0 0 2400 2400" fill="none" xmlns="http://www.w3.org/2000/svg"><path d="M1445.125 311.868 C 1283.084 353.410,1188.554 457.185,1167.794 616.322 C 1162.304 658.402,1166.417 729.736,1178.235 797.431 C 1181.637 816.918,1183.876 835.372,1183.210 838.440 C 1182.488 841.769,1175.823 836.352,1166.685 825.009 C 1112.082 757.235,1026.694 676.131,973.037 641.078 C 938.213 618.328,871.516 585.198,838.000 574.002 C 796.820 560.245,658.975 556.919,598.541 568.223 C 560.279 575.381,526.191 588.280,462.000 619.891 C 381.271 659.647,314.074 703.378,305.236 721.912 C 297.047 739.085,300.295 746.852,318.944 754.687 C 336.686 762.141,453.990 788.589,564.000 809.937 L 642.000 825.074 719.570 778.537 C 762.234 752.942,798.766 732.000,800.752 732.000 C 802.738 732.000,803.345 737.850,802.101 745.000 C 800.858 752.150,796.312 782.220,791.999 811.823 C 784.990 859.940,784.793 866.614,790.138 874.772 C 797.527 886.049,807.226 891.010,900.967 931.462 C 942.198 949.255,984.498 968.188,994.967 973.536 C 1017.427 985.011,1020.484 983.691,943.187 995.891 C 714.780 1031.942,561.398 1174.300,505.630 1402.000 C 486.590 1479.741,483.299 1617.877,500.008 1638.009 C 508.879 1648.698,529.161 1645.033,555.559 1627.971 C 588.239 1606.849,685.590 1533.730,726.447 1499.620 C 750.249 1479.748,759.544 1469.279,761.334 1460.329 C 762.676 1453.618,767.560 1410.763,772.187 1365.097 C 776.814 1319.430,781.052 1281.614,781.605 1281.062 C 782.158 1280.509,798.299 1292.644,817.473 1308.028 C 839.422 1325.638,855.984 1336.000,862.182 1336.000 C 871.971 1336.000,921.883 1303.479,1069.371 1200.999 C 1108.625 1173.724,1141.502 1152.168,1142.430 1153.097 C 1147.797 1158.463,1148.416 1272.908,1144.360 1510.000 C 1139.905 1770.494,1139.496 1779.400,1129.762 1828.000 C 1118.306 1885.198,1112.880 1904.000,1107.827 1904.000 C 1105.874 1904.000,1083.963 1906.817,1059.138 1910.261 C 880.853 1934.988,751.092 1986.615,668.897 2065.521 C 643.344 2090.052,632.700 2103.765,622.227 2125.650 C 604.485 2162.721,602.152 2176.832,611.797 2188.744 L 619.291 2198.000 1148.645 2199.053 C 1439.790 2199.632,1704.100 2198.732,1736.000 2197.053 L 1794.000 2194.000 1792.857 2174.000 C 1789.456 2114.478,1717.356 2036.383,1622.000 1988.935 C 1585.089 1970.569,1527.652 1950.230,1466.000 1933.694 C 1435.200 1925.433,1408.301 1917.184,1406.225 1915.362 C 1404.012 1913.421,1401.183 1818.925,1399.390 1687.025 C 1397.706 1563.261,1394.314 1441.300,1391.850 1416.000 C 1380.765 1302.144,1349.701 1171.586,1323.680 1129.482 C 1318.954 1121.836,1316.089 1114.578,1317.313 1113.353 C 1320.866 1109.801,1341.029 1125.606,1422.000 1195.414 C 1463.800 1231.452,1504.830 1265.518,1513.177 1271.117 L 1528.354 1281.298 1539.177 1273.419 C 1548.393 1266.711,1609.414 1190.095,1619.927 1172.033 C 1624.915 1163.463,1626.882 1166.783,1641.539 1208.523 C 1648.777 1229.135,1661.516 1265.430,1669.848 1289.177 L 1684.997 1332.355 1767.498 1397.438 C 1907.042 1507.521,1993.221 1572.588,2010.970 1581.267 C 2024.269 1587.770,2030.327 1588.727,2038.970 1585.690 C 2053.579 1580.556,2056.059 1562.488,2051.602 1493.682 C 2044.607 1385.716,2001.251 1265.808,1943.046 1193.456 C 1917.330 1161.488,1850.937 1097.138,1826.086 1080.094 C 1776.429 1046.037,1684.517 1006.189,1600.400 982.249 C 1573.120 974.486,1550.135 967.469,1549.323 966.656 C 1548.511 965.844,1576.231 959.498,1610.923 952.555 C 1702.089 934.309,1736.031 925.683,1742.630 919.084 C 1745.833 915.881,1754.201 893.775,1761.227 869.958 C 1768.252 846.142,1775.943 826.010,1778.319 825.222 C 1782.747 823.751,1796.973 834.330,1839.620 870.804 C 1852.999 882.247,1870.708 893.487,1878.973 895.782 C 1907.135 903.603,2076.503 897.721,2101.919 888.040 C 2124.252 879.532,2125.631 865.884,2107.000 837.718 C 2063.671 772.213,1983.575 710.351,1894.000 673.206 L 1858.000 658.278 1755.900 656.800 L 1653.801 655.323 1607.900 672.079 C 1516.225 705.546,1445.412 749.251,1367.000 820.764 C 1347.750 838.320,1332.000 850.685,1332.000 848.242 C 1332.000 845.799,1338.088 831.695,1345.528 816.900 C 1384.930 738.548,1441.673 595.573,1437.982 583.943 C 1436.679 579.836,1421.299 568.221,1403.806 558.131 C 1386.313 548.041,1372.000 538.363,1372.000 536.626 C 1372.000 534.889,1389.550 530.259,1411.000 526.337 C 1432.450 522.416,1454.042 518.293,1458.982 517.175 C 1466.794 515.407,1471.899 503.098,1498.184 422.650 C 1516.801 365.674,1527.537 326.700,1526.145 321.152 C 1523.929 312.326,1505.478 299.822,1495.199 300.182 C 1492.339 300.282,1469.806 305.541,1445.125 311.868 " fill="#1D1E23" stroke="none" fill-rule="evenodd"/></svg>