<svg viewBox="0 0 2400 2400" fill="none" xmlns="http://www.w3.org/2000/svg"><path d="M1454.000 309.712 C 1323.195 343.570,1235.492 413.119,1193.604 516.206 C 1188.173 529.571,1179.827 556.142,1175.056 575.253 C 1163.307 622.321,1163.478 703.756,1175.489 781.632 C 1180.208 812.229,1183.392 837.941,1182.564 838.769 C 1181.736 839.598,1162.430 819.281,1139.663 793.620 C 1097.112 745.663,1040.341 691.902,997.941 659.415 C 957.139 628.152,868.952 582.724,828.142 571.946 C 784.347 560.380,632.930 560.192,583.114 571.642 C 518.665 586.455,344.957 677.151,313.460 712.434 C 300.307 727.167,298.350 738.350,307.350 747.350 C 316.689 756.689,390.021 774.901,538.000 804.630 L 642.000 825.524 719.994 778.956 C 762.890 753.343,799.121 733.650,800.506 735.194 C 801.890 736.737,799.747 758.700,795.742 784.000 C 785.878 846.314,785.826 872.793,795.552 881.595 C 799.706 885.354,847.848 908.214,902.534 932.396 C 957.220 956.578,1003.503 977.903,1005.384 979.784 C 1009.854 984.254,1003.638 985.920,944.000 996.238 C 888.146 1005.902,814.873 1028.441,775.805 1047.975 C 703.722 1084.017,630.583 1147.413,588.732 1210.129 C 550.128 1267.980,516.449 1348.664,502.288 1417.219 C 487.391 1489.343,484.496 1605.182,496.940 1631.269 C 508.331 1655.149,533.950 1645.488,612.000 1587.881 C 697.011 1525.136,751.115 1479.966,757.286 1466.585 C 761.803 1456.790,780.235 1312.938,780.041 1289.000 C 779.972 1280.503,785.314 1283.191,817.414 1307.803 C 834.489 1320.895,851.866 1332.688,856.029 1334.009 C 868.443 1337.949,887.781 1325.998,1054.491 1211.353 C 1098.761 1180.909,1136.755 1156.000,1138.922 1156.000 C 1141.095 1156.000,1144.078 1175.277,1145.574 1199.000 C 1149.010 1253.454,1141.118 1729.206,1135.936 1780.000 C 1132.413 1814.539,1115.824 1897.702,1111.700 1901.498 C 1110.765 1902.359,1079.400 1907.779,1042.000 1913.543 C 870.337 1939.999,750.610 1989.137,666.746 2067.553 C 642.348 2090.367,626.780 2112.650,615.828 2140.436 C 605.281 2167.194,604.767 2181.797,614.011 2192.012 C 621.173 2199.926,626.278 2199.995,1165.620 2199.510 C 1465.029 2199.240,1728.871 2197.890,1751.935 2196.510 L 1793.871 2194.000 1792.777 2176.000 C 1788.962 2113.208,1707.222 2028.002,1606.971 1982.316 C 1576.728 1968.534,1501.994 1943.323,1446.000 1928.013 C 1428.400 1923.201,1411.817 1917.179,1409.150 1914.632 C 1405.569 1911.212,1403.193 1852.432,1400.070 1690.000 C 1397.743 1569.000,1393.969 1447.500,1391.683 1420.000 C 1382.849 1313.717,1349.502 1171.263,1323.674 1129.473 C 1305.045 1099.329,1323.080 1110.695,1404.000 1180.092 C 1481.828 1246.837,1523.279 1280.000,1528.876 1280.000 C 1535.156 1280.000,1560.442 1251.791,1594.108 1207.228 C 1614.907 1179.696,1624.500 1169.839,1627.197 1173.228 C 1630.366 1177.208,1650.556 1232.568,1678.943 1315.111 C 1684.192 1330.374,1693.958 1339.436,1769.414 1399.059 C 1900.064 1502.296,2003.706 1579.283,2018.697 1584.230 C 2039.117 1590.969,2050.717 1581.998,2052.627 1557.992 C 2054.906 1529.334,2049.249 1457.285,2041.950 1422.000 C 2012.834 1281.253,1949.016 1177.711,1836.631 1088.876 C 1794.701 1055.732,1693.270 1010.457,1592.622 979.961 C 1569.864 973.065,1551.864 966.809,1552.622 966.058 C 1553.380 965.308,1585.500 958.140,1624.000 950.131 C 1720.126 930.133,1739.476 924.454,1744.690 914.710 C 1747.087 910.232,1754.822 889.340,1761.880 868.284 C 1769.888 844.393,1777.021 829.550,1780.854 828.803 C 1784.232 828.145,1802.071 839.903,1820.498 854.932 C 1877.847 901.706,1865.422 898.071,1966.000 897.505 C 2123.859 896.616,2141.695 887.025,2098.379 826.322 C 2060.252 772.893,1998.126 724.583,1916.841 685.158 L 1863.682 659.374 1758.841 657.163 L 1654.000 654.952 1614.000 669.928 C 1518.209 705.793,1454.288 744.623,1369.868 818.229 C 1351.088 834.603,1334.861 848.000,1333.808 848.000 C 1331.475 848.000,1337.230 834.581,1362.971 780.000 C 1385.779 731.638,1424.466 635.596,1433.307 605.387 C 1439.138 585.461,1439.050 584.515,1430.670 577.008 C 1425.901 572.737,1410.731 562.521,1396.959 554.307 C 1383.186 546.092,1372.860 537.845,1374.012 535.980 C 1375.164 534.116,1394.194 529.425,1416.300 525.556 C 1438.407 521.687,1459.115 516.604,1462.320 514.260 C 1469.063 509.329,1493.799 440.927,1514.249 370.659 L 1528.410 322.000 1516.142 311.000 C 1501.481 297.854,1499.933 297.822,1454.000 309.712 " fill="#1D1E23" stroke="none" fill-rule="evenodd"/></svg>