<svg viewBox="0 0 2400 2400" fill="none" xmlns="http://www.w3.org/2000/svg"><path d="M1480.000 302.750 C 1450.263 307.687,1398.856 322.438,1372.268 333.663 C 1262.021 380.209,1198.303 460.243,1171.374 586.000 C 1159.655 640.725,1166.475 757.957,1185.916 836.000 L 1191.397 858.000 1182.698 846.421 C 1065.910 690.953,949.931 602.248,818.000 567.486 C 785.760 558.991,773.854 558.031,704.000 558.293 C 633.157 558.559,622.455 559.539,587.362 568.971 C 566.112 574.682,529.302 587.092,505.563 596.547 C 429.065 627.016,306.527 702.540,301.575 722.269 C 298.066 736.249,302.786 751.069,312.383 756.205 C 321.079 760.859,626.645 824.000,640.471 824.000 C 644.862 824.000,683.636 801.384,726.636 773.743 C 769.637 746.101,805.635 724.302,806.633 725.300 C 807.631 726.297,802.947 755.788,796.224 790.834 C 781.606 867.035,781.421 872.288,793.000 882.694 C 797.950 887.143,852.087 911.299,913.304 936.375 C 1027.144 983.007,1032.440 986.481,991.397 987.601 C 962.872 988.380,882.610 1004.189,846.577 1016.126 C 660.473 1077.777,540.886 1218.777,498.958 1425.989 C 491.552 1462.587,490.048 1483.252,490.026 1548.678 C 490.000 1626.457,490.111 1627.473,499.697 1637.678 C 518.724 1657.931,523.961 1655.289,642.469 1565.681 C 702.347 1520.406,754.281 1480.110,757.878 1476.134 C 763.122 1470.340,765.662 1449.970,770.679 1373.453 C 774.121 1320.954,777.604 1277.273,778.418 1276.384 C 779.232 1275.495,793.871 1287.359,810.949 1302.749 C 847.303 1335.507,857.173 1341.436,869.069 1337.661 C 873.891 1336.130,934.585 1294.928,1003.946 1246.100 C 1073.306 1197.272,1134.178 1155.116,1139.216 1152.419 L 1148.377 1147.517 1146.987 1448.758 C 1145.494 1772.231,1146.112 1761.328,1123.446 1864.219 L 1115.026 1902.439 1058.513 1909.250 C 883.755 1930.314,745.208 1985.931,663.063 2067.997 C 639.444 2091.593,628.892 2105.894,618.456 2128.452 C 600.200 2167.912,597.917 2181.917,608.083 2192.083 C 615.900 2199.900,623.380 2200.000,1199.235 2200.000 C 1682.756 2200.000,1783.734 2199.076,1789.861 2194.596 C 1811.886 2178.491,1780.906 2108.885,1730.489 2061.199 C 1659.531 1994.083,1564.138 1952.038,1405.307 1917.872 L 1396.614 1916.002 1398.840 1743.001 C 1402.210 1481.047,1391.137 1339.743,1357.550 1216.088 C 1346.520 1175.481,1327.987 1131.036,1317.039 1118.938 C 1311.441 1112.753,1311.243 1110.940,1315.855 1108.090 C 1320.934 1104.951,1373.026 1149.218,1493.228 1258.820 C 1517.372 1280.835,1531.491 1285.236,1545.136 1275.000 C 1548.802 1272.250,1568.582 1245.409,1589.091 1215.353 L 1626.381 1160.707 1653.689 1243.353 C 1668.709 1288.809,1683.923 1329.374,1687.499 1333.497 C 1696.060 1343.370,2001.629 1580.435,2014.677 1587.327 C 2026.595 1593.623,2045.744 1587.689,2052.153 1575.714 C 2060.376 1560.349,2055.123 1478.915,2041.462 1410.000 C 2026.849 1336.275,1990.757 1253.832,1947.996 1196.499 C 1917.623 1155.775,1861.858 1102.982,1819.478 1074.830 C 1752.618 1030.417,1654.067 990.496,1568.964 973.352 C 1549.734 969.478,1536.700 965.753,1540.000 965.075 C 1543.300 964.396,1588.908 955.913,1641.350 946.224 C 1705.246 934.418,1739.157 926.383,1744.145 921.869 C 1748.944 917.526,1755.326 898.578,1762.099 868.566 C 1767.879 842.955,1773.406 819.512,1774.381 816.471 C 1775.524 812.910,1790.023 824.399,1815.118 848.750 C 1836.548 869.545,1858.713 889.593,1864.374 893.303 C 1873.672 899.395,1885.613 899.788,1987.873 897.368 C 2096.406 894.799,2101.497 894.329,2111.206 885.977 C 2128.341 871.238,2124.997 857.549,2094.820 818.903 C 2032.113 738.598,1947.787 682.795,1853.498 659.206 C 1810.294 648.397,1711.795 646.475,1666.000 655.546 C 1556.942 677.149,1455.304 733.077,1366.919 820.119 C 1341.025 845.621,1320.343 865.476,1320.960 864.243 C 1321.576 863.009,1331.285 844.000,1342.535 822.000 C 1369.646 768.980,1402.701 693.511,1425.711 632.096 C 1447.332 574.391,1450.487 582.786,1396.000 553.043 L 1362.000 534.484 1413.501 525.408 C 1441.826 520.416,1465.823 515.511,1466.827 514.507 C 1467.831 513.503,1482.684 471.578,1499.834 421.341 C 1532.826 324.696,1533.576 319.161,1515.397 306.428 C 1506.381 300.113,1499.923 299.442,1480.000 302.750 " fill="#1D1E23" stroke="none" fill-rule="evenodd"/></svg>