<svg viewBox="0 0 2400 2400" fill="none" xmlns="http://www.w3.org/2000/svg"><path d="M1458.000 307.976 C 1287.884 346.792,1190.589 449.267,1167.562 613.874 C 1161.938 654.074,1167.232 737.588,1179.740 806.000 C 1183.762 828.000,1186.622 846.494,1186.096 847.097 C 1185.570 847.700,1171.573 831.500,1154.992 811.097 C 1111.110 757.098,1024.016 673.755,982.994 646.507 C 940.293 618.143,880.554 588.135,839.138 574.245 C 812.100 565.177,799.214 563.591,735.138 561.439 C 647.902 558.511,600.880 563.353,550.000 580.503 C 480.637 603.883,350.822 674.415,315.753 707.775 C 298.879 723.827,295.330 738.758,305.879 749.308 C 313.432 756.860,380.931 773.131,525.125 802.158 L 640.249 825.333 655.125 816.964 C 663.306 812.361,699.561 790.471,735.690 768.321 C 771.820 746.170,802.130 728.797,803.046 729.713 C 803.963 730.629,802.652 744.569,800.133 760.690 C 782.958 870.621,783.134 868.412,790.838 876.938 C 800.601 887.744,819.847 897.051,920.986 939.882 C 968.828 960.142,1008.992 978.370,1010.239 980.387 C 1013.282 985.310,1009.685 986.145,953.583 993.540 C 713.046 1025.245,547.961 1183.407,499.388 1428.690 C 487.368 1489.384,485.822 1615.934,496.893 1632.856 C 512.972 1657.433,529.219 1650.510,626.051 1577.817 C 710.642 1514.314,750.706 1481.733,757.880 1470.609 C 761.385 1465.175,765.903 1433.232,770.131 1384.000 C 773.814 1341.100,778.036 1299.873,779.513 1292.384 L 782.199 1278.768 812.059 1303.778 C 856.634 1341.111,858.585 1341.788,882.301 1328.168 C 893.135 1321.946,956.900 1278.789,1024.000 1232.264 L 1146.000 1147.673 1147.161 1232.837 C 1147.799 1279.676,1146.563 1420.600,1144.413 1546.000 L 1140.505 1774.000 1127.767 1839.000 C 1118.957 1883.959,1113.392 1904.000,1109.720 1904.000 C 1106.799 1904.000,1083.373 1906.758,1057.662 1910.128 C 880.703 1933.325,740.452 1990.423,659.967 2072.033 C 628.549 2103.891,606.551 2144.780,606.219 2171.940 C 606.012 2188.926,606.744 2190.137,620.000 2194.714 C 630.688 2198.405,763.185 2199.508,1180.000 2199.377 C 1480.300 2199.283,1741.300 2198.035,1760.000 2196.603 L 1794.000 2194.000 1793.518 2173.911 C 1792.566 2134.281,1754.681 2077.735,1703.178 2039.074 C 1637.042 1989.429,1568.602 1959.468,1454.000 1929.993 L 1402.000 1916.619 1399.531 1702.526 C 1398.172 1584.775,1395.803 1469.886,1394.266 1447.217 C 1385.797 1322.345,1353.829 1178.455,1323.684 1129.528 C 1301.431 1093.409,1320.859 1106.639,1429.854 1201.825 C 1473.774 1240.181,1513.809 1273.757,1518.820 1276.439 C 1534.206 1284.673,1544.973 1275.585,1584.171 1221.277 C 1604.527 1193.075,1621.914 1169.152,1622.808 1168.116 C 1625.724 1164.739,1631.681 1177.414,1642.492 1210.000 C 1648.332 1227.600,1660.253 1262.267,1668.985 1287.038 L 1684.860 1332.076 1749.430 1383.317 C 1834.890 1451.135,1965.288 1551.547,1994.196 1571.797 C 2018.535 1588.847,2033.277 1591.819,2046.235 1582.291 C 2053.246 1577.136,2053.950 1571.795,2053.486 1527.291 C 2053.203 1500.181,2049.881 1460.000,2046.104 1438.000 C 2031.879 1355.139,1993.011 1258.134,1952.345 1204.000 C 1929.294 1173.315,1853.887 1098.999,1827.473 1080.937 C 1770.285 1041.828,1679.685 1002.800,1592.879 979.879 C 1565.862 972.746,1544.262 966.421,1544.879 965.824 C 1545.495 965.227,1584.398 957.298,1631.329 948.205 C 1678.259 939.112,1723.478 928.943,1731.814 925.608 C 1747.957 919.149,1748.450 918.037,1768.799 842.319 C 1771.708 831.494,1775.868 822.059,1778.044 821.352 C 1780.220 820.645,1799.100 835.340,1820.000 854.009 C 1875.486 903.571,1868.742 901.667,1976.907 898.316 C 2106.011 894.315,2120.000 891.126,2120.000 865.691 C 2120.000 842.303,2051.896 765.519,1998.275 728.451 C 1963.994 704.752,1917.704 681.143,1876.762 666.475 C 1848.292 656.275,1844.993 656.000,1751.268 656.000 L 1655.013 656.000 1613.427 669.916 C 1514.856 702.900,1437.921 751.647,1349.000 837.460 C 1337.450 848.607,1328.000 856.711,1328.000 855.469 C 1328.000 854.227,1339.519 829.085,1353.598 799.597 C 1383.168 737.663,1423.981 640.315,1434.255 607.210 C 1442.869 579.456,1442.809 579.364,1400.216 555.772 C 1382.568 545.998,1368.100 537.013,1368.064 535.806 C 1368.029 534.599,1390.294 529.537,1417.542 524.557 L 1467.083 515.502 1479.415 480.751 C 1496.526 432.528,1528.000 331.690,1528.000 325.090 C 1528.000 316.207,1509.100 299.973,1499.182 300.337 C 1494.132 300.523,1475.600 303.960,1458.000 307.976 " fill="#1D1E23" stroke="none" fill-rule="evenodd"/></svg>