<svg viewBox="0 0 2400 2400" fill="none" xmlns="http://www.w3.org/2000/svg"><path d="M1464.000 306.252 C 1416.776 316.452,1382.505 328.505,1342.000 349.160 C 1308.151 366.420,1296.121 375.434,1263.773 407.778 C 1231.157 440.389,1222.805 451.579,1206.882 484.000 C 1184.956 528.643,1169.881 581.988,1166.013 628.617 C 1162.660 669.039,1169.494 755.923,1180.173 808.628 C 1184.478 829.874,1188.000 848.384,1188.000 849.762 C 1188.000 851.140,1173.194 833.757,1155.098 811.134 C 1111.991 757.242,1046.918 692.640,1002.000 659.144 C 958.323 626.573,895.102 593.054,843.951 575.349 C 806.216 562.288,805.494 562.205,717.281 560.777 C 618.110 559.172,594.881 562.700,522.925 590.296 C 454.702 616.460,345.031 678.554,313.000 709.151 C 299.153 722.379,296.187 737.263,305.000 749.300 C 310.493 756.802,381.906 773.742,545.201 806.278 L 640.403 825.247 657.201 815.905 C 666.441 810.767,702.252 788.886,736.781 767.282 C 771.311 745.677,801.209 728.000,803.221 728.000 C 805.233 728.000,801.613 758.004,795.176 794.676 C 788.739 831.348,784.523 865.539,785.807 870.655 C 788.696 882.164,810.827 893.635,909.001 934.507 C 990.877 968.594,1012.000 978.642,1012.000 983.504 C 1012.000 985.342,998.950 987.855,983.000 989.090 C 835.639 1000.496,694.411 1071.450,612.000 1175.485 C 525.588 1284.570,482.806 1425.656,488.992 1581.139 C 490.677 1623.510,491.804 1629.276,500.131 1638.139 C 505.226 1643.563,513.511 1648.000,518.543 1648.000 C 523.574 1648.000,542.610 1637.860,560.845 1625.468 C 612.266 1590.521,756.011 1479.454,760.377 1471.296 C 762.525 1467.282,767.280 1422.598,770.944 1371.998 C 774.607 1321.399,779.279 1280.000,781.325 1280.000 C 783.371 1280.000,798.572 1291.844,815.104 1306.320 C 831.636 1320.796,849.593 1334.324,855.007 1336.383 C 867.434 1341.107,864.473 1342.914,1010.000 1241.815 C 1073.800 1197.492,1131.250 1157.849,1137.666 1153.718 L 1149.331 1146.208 1146.559 1444.104 C 1145.034 1607.947,1142.056 1755.500,1139.942 1772.000 C 1137.828 1788.500,1131.342 1824.716,1125.529 1852.480 L 1114.961 1902.959 1072.480 1907.782 C 929.509 1924.012,797.987 1966.891,717.544 2023.500 C 657.550 2065.719,627.296 2101.163,609.570 2150.000 C 597.145 2184.231,601.159 2193.427,630.268 2197.417 C 654.846 2200.785,1743.223 2200.011,1772.000 2196.604 L 1794.000 2194.000 1795.202 2177.571 C 1797.494 2146.241,1762.446 2087.688,1719.636 2051.330 C 1695.115 2030.504,1651.654 2001.873,1622.000 1987.010 C 1578.484 1965.200,1486.460 1935.758,1408.000 1918.544 L 1398.000 1916.350 1397.983 1699.175 C 1397.965 1481.324,1395.556 1427.307,1381.693 1334.000 C 1368.685 1246.445,1342.862 1157.122,1321.425 1125.533 C 1316.024 1117.574,1312.561 1110.106,1313.730 1108.937 C 1317.764 1104.903,1348.440 1129.448,1428.815 1201.021 C 1473.174 1240.521,1513.504 1274.679,1518.439 1276.928 C 1536.017 1284.937,1544.879 1277.851,1580.000 1227.702 C 1598.700 1201.001,1616.892 1175.417,1620.427 1170.848 C 1626.599 1162.872,1627.376 1164.120,1639.983 1202.271 C 1647.203 1224.122,1660.264 1262.295,1669.007 1287.100 L 1684.904 1332.201 1751.641 1385.100 C 1857.051 1468.654,1999.133 1577.365,2012.479 1584.676 C 2022.015 1589.900,2027.222 1590.461,2036.418 1587.255 C 2055.057 1580.757,2057.412 1571.893,2054.759 1518.198 C 2049.350 1408.695,2019.979 1310.172,1967.403 1225.172 C 1941.293 1182.958,1871.635 1111.241,1827.305 1080.930 C 1763.901 1037.578,1678.735 1000.859,1591.551 979.284 C 1562.699 972.144,1540.646 965.824,1542.546 965.239 C 1544.446 964.655,1580.200 957.755,1622.000 949.908 C 1716.582 932.151,1740.671 925.964,1746.553 917.920 C 1749.102 914.434,1756.109 891.426,1762.125 866.791 C 1768.140 842.156,1774.366 820.547,1775.960 818.770 C 1777.555 816.994,1798.366 833.586,1822.207 855.642 C 1859.404 890.052,1868.003 896.110,1882.803 898.329 C 1892.289 899.752,1944.741 899.312,1999.363 897.352 C 2083.109 894.347,2100.347 892.693,2109.338 886.802 C 2126.069 875.839,2123.879 858.150,2102.134 828.610 C 2047.651 754.601,1970.697 698.720,1880.000 667.306 L 1842.000 654.144 1752.000 654.120 C 1664.717 654.097,1660.913 654.434,1626.000 665.266 C 1525.513 696.441,1453.032 740.067,1364.731 822.525 L 1323.334 861.182 1343.167 821.591 C 1379.958 748.145,1440.000 603.446,1440.000 588.225 C 1440.000 578.866,1431.839 572.389,1394.229 551.898 L 1362.458 534.588 1414.036 525.154 C 1442.403 519.965,1466.254 515.079,1467.037 514.297 C 1471.331 510.002,1527.927 336.281,1527.960 327.290 C 1528.006 314.884,1511.538 299.826,1498.461 300.318 C 1493.807 300.493,1478.300 303.163,1464.000 306.252 " fill="#1D1E23" stroke="none" fill-rule="evenodd"/></svg>