<svg viewBox="0 0 2400 2400" fill="none" xmlns="http://www.w3.org/2000/svg"><path d="M2118.45 878.931C2115.88 883.628 2112.14 887.573 2107.58 890.379C2103.02 893.185 2097.81 894.754 2092.45 894.931L1879.45 898.931C1875.53 898.943 1871.64 898.15 1868.02 896.603C1864.41 895.055 1861.16 892.784 1858.45 889.931L1775.45 810.931L1753.45 906.931C1752.07 912.49 1749.19 917.566 1745.14 921.618C1741.09 925.669 1736.01 928.543 1730.45 929.931L1531.45 966.131C1714.45 996.131 2055.45 1111.13 2056.45 1560.13C2056.45 1565.77 2054.85 1571.3 2051.84 1576.08C2048.83 1580.85 2044.54 1584.69 2039.45 1587.13C2034.36 1589.6 2028.68 1590.63 2023.04 1590.1C2017.39 1589.57 2012 1587.51 2007.45 1584.13L1690.45 1338.13C1686.02 1333.96 1682.6 1328.83 1680.45 1323.13L1626.45 1160.13L1553.45 1267.13C1551.08 1270.66 1547.98 1273.65 1544.35 1275.89C1540.73 1278.13 1536.68 1279.58 1532.45 1280.13C1528.12 1280.5 1523.76 1279.99 1519.63 1278.61C1515.5 1277.24 1511.7 1275.03 1508.45 1272.13L1321.45 1105.13L1309.14 1108.23C1333.82 1135.81 1400 1247.31 1400 1650C1400 1758.43 1397.6 1845.75 1393.85 1916C1615.07 1953.74 1778.11 2054.28 1797.96 2175.1C1800.2 2188.73 1788.81 2200 1775 2200H625C611.193 2200 599.798 2188.73 602.037 2175.1C625.004 2035.32 839.636 1922.69 1114.26 1903.04C1134.89 1824.55 1150 1737.28 1150 1650V1148.32L1138.85 1151.13L879.855 1333.13C874.354 1336.99 867.718 1338.89 861.009 1338.53C854.3 1338.16 847.907 1335.56 842.855 1331.13L776.855 1272.13L764.855 1460.13C764.559 1464.45 763.333 1468.65 761.262 1472.44C759.191 1476.24 756.323 1479.55 752.855 1482.13L539.855 1643.13C535.561 1646.2 530.582 1648.16 525.352 1648.86C520.122 1649.56 514.802 1648.97 509.855 1647.13C505.085 1644.96 500.937 1641.62 497.792 1637.43C494.647 1633.23 492.605 1628.32 491.855 1623.13C464.855 1409.13 550.855 1006.13 1029.85 984.131L801.855 890.131C795.437 887.647 790.107 882.969 786.811 876.927C783.516 870.886 782.468 863.872 783.855 857.131L809.855 720.131L655.855 819.131C652.732 821.439 649.165 823.075 645.378 823.936C641.592 824.796 637.668 824.863 633.855 824.131L323.855 761.131C318.079 760.227 312.74 757.513 308.606 753.379C304.473 749.246 301.759 743.906 300.855 738.131C299.47 732.454 299.773 726.496 301.727 720.989C303.681 715.482 307.201 710.665 311.855 707.131C735.855 395.131 1019.85 616.131 1192.85 861.131C1125.85 621.131 1161.85 348.131 1495.85 300.131C1500.91 299.67 1506 300.429 1510.69 302.343C1515.39 304.257 1519.56 307.271 1522.85 311.131C1526.3 314.821 1528.6 319.426 1529.49 324.393C1530.37 329.361 1529.81 334.478 1527.85 339.131C1514.85 380.131 1492.85 444.131 1466.85 516.131L1361.85 534.131L1444.85 580.131C1409.99 682.785 1366.16 782.168 1313.85 877.131C1528.85 608.131 1909.85 546.131 2116.85 848.131C2119.99 852.595 2121.81 857.853 2122.09 863.301C2122.37 868.749 2121.11 874.166 2118.45 878.931Z" fill="#1D1E23"/></svg>