<svg viewBox="0 0 2400 2400" fill="none" xmlns="http://www.w3.org/2000/svg"><path d="M580.000 603.658 C 403.039 605.936,367.797 607.338,356.000 612.569 C 337.413 620.811,313.602 647.736,308.114 666.717 C 301.402 689.932,297.052 1708.948,303.581 1728.730 C 311.011 1751.242,330.102 1774.836,348.946 1784.795 C 365.508 1793.547,370.505 1793.885,522.000 1796.491 C 722.175 1799.935,1271.695 1799.941,1476.000 1796.503 C 1613.683 1794.185,1635.613 1792.971,1646.542 1787.056 C 1663.193 1778.044,1690.461 1746.671,1693.561 1732.957 C 1694.923 1726.931,1697.206 1639.650,1698.634 1539.000 C 1700.062 1438.350,1702.050 1356.000,1703.052 1356.000 C 1704.054 1356.000,1763.627 1413.886,1835.437 1484.636 C 1907.246 1555.386,1981.735 1627.386,2000.966 1644.636 C 2031.593 1672.108,2037.811 1676.000,2051.076 1676.000 C 2069.088 1676.000,2081.510 1668.151,2091.023 1650.757 C 2097.494 1638.925,2098.087 1610.741,2099.194 1262.000 C 2100.365 893.326,2097.565 764.590,2087.915 743.410 C 2082.209 730.887,2068.725 724.000,2049.914 724.000 C 2031.218 724.000,2012.197 740.915,1841.000 909.781 L 1700.000 1048.862 1699.705 915.431 C 1699.543 842.044,1698.091 754.700,1696.480 721.333 C 1693.689 663.535,1693.014 659.894,1682.219 644.316 C 1661.125 613.877,1652.593 611.100,1569.655 607.673 C 1460.421 603.161,820.405 600.564,580.000 603.658 M1500.000 1200.000 L 1500.000 1600.000 1000.000 1600.000 L 500.000 1600.000 500.000 1200.000 L 500.000 800.000 1000.000 800.000 L 1500.000 800.000 1500.000 1200.000 " fill="#1D1E23" stroke="none" fill-rule="evenodd"/></svg>