<svg viewBox="0 0 2400 2400" fill="none" xmlns="http://www.w3.org/2000/svg"><path d="M1674.357 256.246 C 1665.754 258.389,1652.564 263.943,1645.047 268.589 C 1630.108 277.822,1580.556 333.223,1494.399 437.017 L 1438.798 504.000 861.995 504.000 L 285.192 504.000 265.596 514.326 C 240.182 527.717,223.433 544.029,210.278 568.198 L 199.673 587.684 200.997 1168.842 C 202.058 1634.233,203.366 1753.187,207.560 1766.000 C 218.263 1798.690,271.878 1836.000,308.150 1836.000 C 314.668 1836.000,319.973 1837.350,319.940 1839.000 C 319.907 1840.650,308.254 1856.400,294.044 1874.000 C 258.025 1918.610,250.341 1935.481,250.318 1970.000 C 250.281 2025.639,282.415 2067.999,337.309 2084.672 C 362.159 2092.220,368.392 2092.730,387.298 2088.765 C 419.515 2082.007,440.671 2067.467,474.503 2028.830 C 566.268 1924.033,1606.231 675.803,1775.019 467.869 C 1809.598 425.270,1816.406 414.502,1820.333 396.191 C 1835.516 325.392,1787.298 259.963,1715.817 254.371 C 1701.618 253.260,1682.961 254.104,1674.357 256.246 M2128.130 636.485 C 2120.502 641.135,2034.793 724.008,1937.666 820.646 C 1732.551 1024.729,1756.000 1014.594,1756.000 899.167 C 1756.000 857.036,1754.475 827.885,1752.312 828.667 C 1750.284 829.400,1699.884 888.370,1640.312 959.710 L 1532.000 1089.421 1532.000 1352.710 L 1532.000 1616.000 1312.015 1616.000 L 1092.030 1616.000 1004.015 1721.713 C 955.607 1779.855,916.000 1829.355,916.000 1831.713 C 916.000 1834.732,1027.247 1836.000,1292.159 1836.000 C 1668.211 1836.000,1668.324 1835.998,1685.159 1827.468 C 1712.615 1813.557,1729.687 1797.906,1742.068 1775.294 L 1753.727 1754.000 1756.416 1550.000 C 1757.894 1437.800,1759.306 1345.165,1759.552 1344.144 C 1759.798 1343.123,1839.650 1421.654,1937.000 1518.657 C 2034.350 1615.661,2120.143 1698.144,2127.651 1701.953 C 2143.293 1709.889,2166.737 1708.369,2181.896 1698.436 C 2188.670 1693.997,2192.443 1686.549,2194.744 1673.076 C 2196.535 1662.584,2198.000 1431.522,2198.000 1159.606 C 2198.000 752.076,2197.051 663.437,2192.597 655.116 C 2186.647 643.997,2161.167 627.991,2149.455 628.015 C 2145.355 628.023,2135.759 631.835,2128.130 636.485 M1221.585 727.497 L 1249.170 730.000 951.916 1086.000 C 788.427 1281.800,622.114 1481.100,582.331 1528.889 L 510.000 1615.777 467.000 1615.889 L 424.000 1616.000 424.000 1170.000 L 424.000 724.000 809.000 724.497 C 1020.750 724.770,1206.413 726.120,1221.585 727.497 " fill="#1D1E23" stroke="none" fill-rule="evenodd"/></svg>