<svg viewBox="0 0 2400 2400" fill="none" xmlns="http://www.w3.org/2000/svg"><path d="M1666.097 258.385 C 1657.350 261.587,1644.268 268.210,1637.027 273.103 C 1629.785 277.997,1582.160 331.950,1531.194 393.000 L 1438.528 504.000 862.264 504.039 L 286.000 504.078 265.916 513.431 C 242.243 524.455,223.111 542.531,210.846 565.462 L 202.000 582.000 200.947 1161.808 C 199.771 1809.325,197.767 1762.704,228.261 1797.347 C 247.257 1818.928,270.883 1831.111,301.414 1835.070 L 324.015 1838.000 295.525 1872.000 C 279.856 1890.700,263.508 1913.785,259.198 1923.300 C 228.936 1990.097,266.392 2066.174,339.555 2086.515 C 381.996 2098.315,422.422 2085.774,456.016 2050.387 C 505.339 1998.431,1805.783 436.270,1813.257 420.000 C 1824.778 394.917,1826.667 358.095,1817.802 331.405 C 1807.768 301.193,1773.258 267.059,1743.950 258.356 C 1717.816 250.595,1687.347 250.606,1666.097 258.385 M2130.000 633.764 C 2123.400 636.762,2037.000 720.403,1938.000 819.632 L 1758.000 1000.049 1756.000 911.980 L 1754.000 823.911 1643.000 956.666 L 1532.000 1089.422 1532.000 1352.711 L 1532.000 1616.000 1312.095 1616.000 L 1092.190 1616.000 1002.095 1723.886 C 952.543 1783.224,912.000 1832.759,912.000 1833.965 C 912.000 1835.171,1083.450 1835.672,1293.000 1835.079 L 1674.000 1834.000 1695.331 1822.184 C 1718.631 1809.277,1731.655 1795.768,1745.191 1770.466 C 1753.863 1754.257,1754.031 1750.775,1756.000 1546.978 L 1758.000 1339.956 1930.000 1512.382 C 2024.600 1607.217,2109.020 1690.027,2117.600 1696.404 C 2135.858 1709.976,2158.330 1711.802,2176.318 1701.176 C 2201.388 1686.367,2200.001 1717.641,2199.985 1167.395 C 2199.970 671.550,2199.881 665.853,2191.897 652.759 C 2183.982 639.777,2163.243 627.847,2149.128 628.157 C 2145.208 628.243,2136.600 630.766,2130.000 633.764 M1249.497 728.814 C 1247.860 731.462,1081.057 931.712,878.822 1173.814 L 511.123 1614.000 467.561 1615.131 L 424.000 1616.262 424.000 1170.131 L 424.000 724.000 838.236 724.000 C 1160.092 724.000,1251.809 725.074,1249.497 728.814 " fill="#1D1E23" stroke="none" fill-rule="evenodd"/></svg>