<svg viewBox="0 0 2400 2400" fill="none" xmlns="http://www.w3.org/2000/svg"><path d="M524.000 603.852 C 341.452 606.272,355.136 603.849,322.975 639.448 C 310.816 652.906,308.225 659.254,305.360 682.613 C 303.512 697.676,302.026 938.600,302.058 1218.000 L 302.115 1726.000 311.329 1744.824 C 324.290 1771.302,342.881 1786.269,370.759 1792.666 C 405.275 1800.587,1594.962 1800.530,1629.532 1792.606 C 1648.582 1788.239,1656.368 1783.812,1670.411 1769.363 C 1679.952 1759.547,1689.847 1744.874,1692.401 1736.757 C 1695.517 1726.852,1697.668 1661.182,1698.943 1537.018 L 1700.842 1352.037 1860.501 1509.601 C 1948.375 1596.321,2026.488 1670.167,2034.233 1673.842 C 2059.606 1685.883,2088.994 1668.604,2096.239 1637.387 C 2100.753 1617.933,2100.766 877.009,2096.253 802.984 C 2092.374 739.345,2088.994 731.256,2063.587 724.807 C 2050.089 721.381,2044.319 721.698,2035.303 726.360 C 2020.256 734.141,1966.752 784.910,1821.400 929.327 L 1700.800 1049.151 1698.956 863.575 C 1697.740 741.167,1695.567 673.146,1692.572 663.739 C 1685.957 642.961,1662.198 617.070,1644.803 611.683 C 1613.780 602.077,987.818 597.703,524.000 603.852 M1500.000 1200.000 L 1500.000 1600.000 1000.000 1600.000 L 500.000 1600.000 500.000 1200.000 L 500.000 800.000 1000.000 800.000 L 1500.000 800.000 1500.000 1200.000 " fill="#1D1E23" stroke="none" fill-rule="evenodd"/></svg>