<svg viewBox="0 0 2400 2400" fill="none" xmlns="http://www.w3.org/2000/svg"><path d="M1667.302 261.600 C 1659.218 264.488,1645.212 272.704,1636.179 279.858 C 1617.384 294.744,1551.004 368.737,1484.412 449.032 L 1438.823 504.000 859.642 504.000 L 280.461 504.000 255.364 523.000 C 241.560 533.450,223.424 551.000,215.061 562.000 L 199.856 582.000 201.159 1164.000 C 202.082 1576.354,203.761 1750.515,206.920 1761.489 C 215.334 1790.720,256.297 1823.912,294.511 1832.464 C 306.330 1835.109,316.000 1838.677,316.000 1840.393 C 316.000 1842.110,305.910 1857.573,293.577 1874.757 C 257.543 1924.965,254.076 1933.338,254.141 1970.000 C 254.211 2009.571,263.939 2032.011,291.935 2057.182 C 333.205 2094.287,392.649 2097.811,434.813 2065.651 C 464.776 2042.797,946.433 1470.447,1584.067 700.000 C 1731.309 522.089,1796.734 439.697,1809.829 415.687 C 1823.180 391.210,1824.988 366.210,1815.797 333.126 C 1808.296 306.123,1773.908 272.204,1744.541 262.841 C 1719.232 254.773,1687.832 254.268,1667.302 261.600 M2129.600 639.521 C 2114.040 651.013,2044.559 716.751,1874.946 880.460 C 1789.051 963.365,1766.070 983.403,1761.791 979.124 C 1760.713 978.047,1758.729 947.653,1757.382 911.583 C 1756.034 875.512,1753.756 843.760,1752.319 841.022 C 1748.428 833.608,1716.765 867.827,1618.472 985.671 L 1532.000 1089.342 1532.000 1352.671 L 1532.000 1616.000 1312.167 1616.000 L 1092.335 1616.000 1042.858 1675.000 C 1015.645 1707.450,975.916 1755.600,954.569 1782.000 L 915.758 1830.000 930.879 1833.254 C 939.196 1835.044,1106.200 1835.781,1302.000 1834.892 C 1712.809 1833.027,1688.531 1835.134,1722.806 1798.365 C 1734.249 1786.088,1745.631 1769.284,1748.099 1761.022 C 1750.835 1751.864,1754.067 1676.522,1756.379 1568.000 C 1758.465 1470.100,1761.197 1380.275,1762.450 1368.388 L 1764.729 1346.776 1889.364 1470.669 C 2049.948 1630.296,2115.141 1692.131,2132.977 1701.732 C 2145.597 1708.526,2149.324 1708.870,2163.686 1704.567 C 2193.001 1695.784,2192.150 1700.955,2196.127 1507.267 C 2200.533 1292.612,2200.603 996.431,2196.292 804.804 L 2193.026 659.607 2183.513 649.424 C 2174.084 639.330,2155.726 628.000,2148.799 628.000 C 2146.820 628.000,2138.180 633.184,2129.600 639.521 M1181.000 730.617 C 1213.450 731.993,1240.000 734.407,1240.000 735.984 C 1240.000 738.177,907.216 1139.554,524.468 1599.000 L 510.306 1616.000 467.153 1616.000 L 424.000 1616.000 424.000 1169.414 L 424.000 722.827 773.000 725.472 C 964.950 726.927,1148.550 729.242,1181.000 730.617 " fill="#1D1E23" stroke="none" fill-rule="evenodd"/></svg>