<svg viewBox="0 0 2400 2400" fill="none" xmlns="http://www.w3.org/2000/svg"><path d="M1657.320 264.263 C 1635.423 275.102,1589.269 323.595,1506.237 423.000 L 1438.579 504.000 860.289 504.107 L 282.000 504.215 254.000 523.107 C 233.363 537.032,222.582 547.738,213.000 563.823 L 200.000 585.646 200.000 1166.952 C 200.000 1813.374,197.598 1760.555,228.515 1794.096 C 248.615 1815.901,269.838 1827.859,299.223 1833.934 L 320.447 1838.322 292.250 1876.161 C 258.239 1921.804,250.269 1942.834,252.924 1979.933 C 256.418 2028.777,285.919 2066.315,333.422 2082.362 C 374.636 2096.285,414.371 2086.682,447.438 2054.809 C 486.355 2017.296,1100.245 1285.552,1572.296 714.000 C 1831.351 400.341,1821.738 413.677,1821.711 368.000 C 1821.683 318.838,1792.372 278.757,1744.287 262.126 C 1718.344 253.153,1677.749 254.151,1657.320 264.263 M2131.257 637.020 C 2123.148 641.959,2041.978 718.667,1950.878 807.482 C 1859.778 896.297,1780.535 971.820,1774.783 975.310 C 1769.030 978.801,1762.901 980.238,1761.162 978.503 C 1759.423 976.768,1757.414 944.446,1756.698 906.675 C 1755.982 868.904,1754.038 836.596,1752.378 834.880 C 1748.953 831.340,1717.987 866.408,1608.500 997.817 L 1532.000 1089.634 1532.000 1352.817 L 1532.000 1616.000 1312.167 1616.000 L 1092.335 1616.000 1042.858 1675.000 C 1015.645 1707.450,975.916 1755.600,954.569 1782.000 L 915.758 1830.000 930.879 1833.245 C 939.196 1835.029,1108.900 1835.881,1308.000 1835.138 C 1716.719 1833.612,1684.045 1836.336,1719.560 1800.821 C 1755.536 1764.845,1753.348 1778.742,1756.851 1564.000 C 1758.555 1459.500,1760.965 1368.035,1762.204 1360.744 L 1764.458 1347.489 1928.751 1510.064 C 2093.515 1673.106,2124.983 1702.086,2141.848 1706.319 C 2158.089 1710.395,2183.859 1700.785,2188.828 1688.799 C 2201.326 1658.655,2202.073 672.987,2189.613 653.970 C 2184.296 645.855,2156.630 627.978,2149.455 628.020 C 2147.555 628.032,2139.366 632.082,2131.257 637.020 M1222.718 731.102 L 1243.436 734.000 1217.309 766.000 C 1202.940 783.600,1037.941 982.050,850.646 1207.000 L 510.110 1616.000 467.055 1616.000 L 424.000 1616.000 424.000 1169.427 L 424.000 722.854 813.000 725.529 C 1026.950 727.000,1211.323 729.508,1222.718 731.102 " fill="#1D1E23" stroke="none" fill-rule="evenodd"/></svg>