<svg viewBox="0 0 2400 2400" fill="none" xmlns="http://www.w3.org/2000/svg"><path d="M364.342 606.868 C 354.630 610.299,339.161 620.628,329.967 629.823 C 297.881 661.908,300.000 621.598,300.000 1200.000 C 300.000 1778.270,297.894 1738.104,329.895 1770.105 C 362.127 1802.338,309.722 1800.000,1000.000 1800.000 C 1690.278 1800.000,1637.873 1802.338,1670.105 1770.105 C 1699.832 1740.378,1700.000 1739.045,1700.000 1532.353 L 1700.000 1350.131 1863.000 1512.784 C 2002.360 1651.847,2028.082 1675.815,2040.353 1678.042 C 2059.827 1681.577,2081.755 1671.877,2091.897 1655.241 C 2099.866 1642.171,2099.970 1636.285,2099.970 1200.000 C 2099.970 763.715,2099.866 757.829,2091.897 744.759 C 2081.755 728.123,2059.827 718.423,2040.353 721.958 C 2028.082 724.185,2002.360 748.153,1863.000 887.216 L 1700.000 1049.869 1700.000 867.647 C 1700.000 660.955,1699.832 659.622,1670.105 629.895 C 1637.850 597.639,1690.586 599.961,998.287 600.316 C 450.824 600.596,380.028 601.328,364.342 606.868 M1500.000 1200.000 L 1500.000 1600.000 1000.000 1600.000 L 500.000 1600.000 500.000 1200.000 L 500.000 800.000 1000.000 800.000 L 1500.000 800.000 1500.000 1200.000 " fill="#1D1E23" stroke="none" fill-rule="evenodd"/></svg>