<svg viewBox="0 0 2400 2400" fill="none" xmlns="http://www.w3.org/2000/svg"><path d="M1650.000 267.738 C 1628.350 280.364,1590.780 321.196,1496.101 435.000 L 1438.696 504.000 861.562 504.000 L 284.429 504.000 260.598 517.967 C 234.595 533.207,220.114 548.254,207.323 573.328 L 199.028 589.587 200.660 1171.794 L 202.292 1754.000 211.461 1772.913 C 225.857 1802.609,267.515 1831.125,302.214 1835.036 C 311.996 1836.138,320.000 1837.831,320.000 1838.798 C 320.000 1839.765,308.262 1855.589,293.915 1873.962 C 261.100 1915.986,251.200 1937.838,251.200 1968.245 C 251.200 2018.588,273.918 2054.830,319.231 2076.777 C 368.196 2100.492,411.342 2091.999,453.681 2050.313 C 501.012 2003.712,1763.069 489.491,1803.230 431.119 C 1825.916 398.146,1829.237 359.939,1812.659 322.638 C 1801.361 297.216,1786.080 281.664,1759.201 268.232 C 1737.920 257.598,1730.494 256.005,1702.361 256.038 C 1673.889 256.071,1667.596 257.477,1650.000 267.738 M2125.600 639.351 C 2117.020 645.594,2036.052 723.676,1945.671 812.868 C 1855.290 902.060,1777.456 976.268,1772.707 977.776 C 1767.958 979.283,1762.255 979.394,1760.036 978.022 C 1757.564 976.495,1756.000 947.716,1756.000 903.764 C 1756.000 863.103,1754.416 832.000,1752.345 832.000 C 1748.058 832.000,1712.582 872.900,1608.083 998.320 L 1532.000 1089.634 1532.000 1352.817 L 1532.000 1616.000 1312.167 1616.000 L 1092.335 1616.000 1042.858 1675.000 C 1015.645 1707.450,975.916 1755.600,954.569 1782.000 L 915.758 1830.000 930.757 1833.120 C 939.006 1834.836,1109.610 1835.736,1309.877 1835.120 C 1654.314 1834.061,1674.728 1833.603,1687.457 1826.661 C 1709.141 1814.835,1735.969 1787.794,1746.358 1767.294 C 1755.930 1748.403,1756.004 1747.319,1756.487 1617.133 C 1756.755 1545.010,1758.110 1454.500,1759.498 1416.000 L 1762.020 1346.000 1902.010 1484.157 C 2111.031 1690.440,2124.557 1702.992,2141.198 1706.114 C 2149.307 1707.635,2161.809 1706.703,2170.126 1703.958 C 2199.070 1694.406,2197.304 1728.503,2197.671 1172.000 C 2197.852 898.100,2196.612 669.033,2194.915 662.963 C 2191.334 650.155,2162.874 628.000,2150.000 628.000 C 2145.160 628.000,2134.180 633.108,2125.600 639.351 M1121.000 726.653 C 1188.650 728.104,1244.000 730.837,1244.000 732.727 C 1244.000 734.617,1089.629 921.077,900.953 1147.082 C 712.276 1373.087,547.217 1571.050,534.155 1587.000 L 510.404 1616.000 467.202 1616.000 L 424.000 1616.000 424.000 1170.000 L 424.000 724.000 711.000 724.007 C 868.850 724.011,1053.350 725.201,1121.000 726.653 " fill="#1D1E23" stroke="none" fill-rule="evenodd"/></svg>