<svg viewBox="0 0 2400 2400" fill="none" xmlns="http://www.w3.org/2000/svg"><path d="M502.000 307.636 C 445.364 309.728,435.929 311.079,420.000 319.375 C 389.133 335.452,360.259 359.631,341.265 385.306 C 310.670 426.661,307.627 437.117,303.802 514.000 C 299.450 601.476,299.369 1796.214,303.708 1886.187 C 306.698 1948.171,307.978 1956.448,317.778 1977.163 C 339.490 2023.061,390.139 2071.195,432.519 2086.208 C 442.133 2089.614,472.500 2094.058,500.000 2096.084 C 527.546 2098.113,859.330 2099.819,1238.818 2099.883 L 1927.636 2100.000 1953.296 2090.686 C 2014.042 2068.637,2053.486 2034.374,2082.118 1978.787 L 2101.067 1942.000 2098.483 1614.000 C 2097.061 1433.600,2094.241 1278.939,2092.215 1270.310 C 2087.452 1250.025,2077.707 1237.263,2053.894 1220.129 C 2035.723 1207.054,2032.747 1206.250,2002.032 1206.129 C 1972.672 1206.013,1967.534 1207.187,1950.113 1218.000 C 1939.479 1224.600,1925.218 1236.899,1918.422 1245.331 L 1906.064 1260.663 1903.364 1347.331 C 1901.878 1394.999,1900.514 1538.850,1900.332 1667.000 L 1900.000 1900.000 1200.000 1900.000 L 500.000 1900.000 500.000 1200.453 L 500.000 500.905 805.000 498.782 C 1002.711 497.405,1116.982 495.122,1129.848 492.291 C 1152.270 487.359,1170.823 471.919,1186.761 444.931 C 1195.710 429.777,1196.680 424.317,1195.405 396.254 C 1194.159 368.805,1192.378 362.382,1181.873 347.435 C 1175.220 337.969,1162.023 324.773,1152.547 318.112 L 1135.317 306.000 850.658 305.636 C 694.096 305.436,537.200 306.336,502.000 307.636 M1756.957 406.612 C 1743.745 413.124,1667.582 481.023,1628.889 520.783 L 1607.777 542.477 1731.621 665.239 C 1799.735 732.757,1857.252 788.000,1859.436 788.000 C 1864.350 788.000,1967.395 680.005,1983.601 657.872 C 2000.203 635.198,2002.137 623.978,1992.998 603.355 C 1975.494 563.854,1831.892 421.575,1793.219 405.416 C 1776.855 398.578,1772.995 398.706,1756.957 406.612 M1168.984 981.016 L 800.000 1350.016 800.000 1475.008 L 800.000 1600.000 925.008 1600.000 L 1050.016 1600.000 1419.016 1230.984 L 1788.016 861.968 1662.992 736.992 L 1537.968 612.015 1168.984 981.016 " fill="#1D1E23" stroke="none" fill-rule="evenodd"/></svg>