<svg viewBox="0 0 2400 2400" fill="none" xmlns="http://www.w3.org/2000/svg"><path d="M447.403 307.765 C 424.263 312.275,379.174 341.503,354.886 367.737 C 342.624 380.981,326.861 403.457,319.858 417.682 C 308.236 441.289,306.831 448.369,303.759 498.774 C 299.370 570.779,299.370 1829.221,303.759 1901.226 C 306.852 1951.976,308.187 1958.623,320.231 1983.226 C 338.260 2020.058,380.840 2062.384,417.301 2079.717 C 441.924 2091.423,450.069 2093.077,500.331 2096.575 C 534.217 2098.934,826.086 2099.926,1245.029 2099.108 L 1934.000 2097.762 1960.289 2088.940 C 1993.903 2077.660,2038.802 2046.152,2057.435 2020.769 C 2065.425 2009.886,2077.820 1988.610,2084.981 1973.490 L 2098.000 1946.000 2097.781 1620.000 C 2097.619 1377.472,2096.303 1288.289,2092.642 1271.696 C 2088.778 1254.181,2084.102 1245.849,2070.861 1232.886 C 2061.587 1223.807,2047.308 1213.593,2039.128 1210.189 C 2020.506 1202.439,1980.100 1202.179,1962.113 1209.695 C 1941.971 1218.111,1912.815 1246.772,1907.429 1263.451 C 1904.060 1273.884,1902.249 1365.989,1901.029 1589.000 L 1899.327 1900.000 1199.664 1900.000 L 500.000 1900.000 500.000 1200.532 L 500.000 501.064 813.000 499.141 C 1164.014 496.984,1141.251 499.055,1171.111 466.560 C 1192.702 443.062,1196.855 432.374,1197.033 399.844 C 1197.213 367.016,1189.237 349.450,1163.747 326.532 C 1146.126 310.690,1142.131 308.980,1117.235 306.629 C 1080.332 303.144,465.765 304.186,447.403 307.765 M1747.783 411.403 C 1738.002 417.675,1702.414 449.476,1668.697 482.072 L 1607.394 541.337 1710.697 644.933 C 1767.514 701.911,1824.637 757.837,1837.638 769.213 L 1861.277 789.898 1918.919 729.949 C 1988.625 657.455,2001.380 639.799,1998.755 619.433 C 1996.216 599.730,1983.509 582.106,1933.195 528.500 C 1882.269 474.241,1820.510 418.463,1799.481 407.735 C 1778.938 397.255,1768.716 397.980,1747.783 411.403 M1168.984 981.016 L 800.000 1350.016 800.000 1475.008 L 800.000 1600.000 925.008 1600.000 L 1050.016 1600.000 1419.016 1230.984 L 1788.016 861.968 1662.992 736.992 L 1537.968 612.015 1168.984 981.016 " fill="#1D1E23" stroke="none" fill-rule="evenodd"/></svg>