<svg viewBox="0 0 2400 2400" fill="none" xmlns="http://www.w3.org/2000/svg"><path d="M458.041 304.701 C 385.928 318.453,319.929 384.827,304.420 459.197 C 298.170 489.170,298.170 1910.830,304.420 1940.803 C 320.053 2015.765,384.235 2079.947,459.197 2095.580 C 474.218 2098.712,690.464 2100.000,1201.356 2100.000 C 1835.536 2100.000,1925.189 2099.263,1946.160 2093.878 C 2021.672 2074.488,2080.207 2014.522,2095.580 1940.803 C 2098.591 1926.361,2100.000 1818.557,2100.000 1602.516 C 2100.000 1245.137,2101.282 1261.071,2070.014 1229.804 C 2038.975 1198.765,1993.162 1192.029,1953.149 1212.620 C 1931.501 1223.761,1910.297 1249.085,1904.182 1271.101 C 1901.498 1280.766,1900.037 1393.855,1900.022 1593.000 L 1900.000 1900.000 1200.000 1900.000 L 500.000 1900.000 500.000 1200.000 L 500.000 500.000 807.287 500.000 C 1153.578 500.000,1139.010 501.200,1170.105 470.105 C 1209.232 430.979,1209.232 369.021,1170.105 329.895 C 1138.884 298.673,1155.006 299.943,796.287 300.447 C 613.648 300.704,469.494 302.517,458.041 304.701 M1752.000 406.316 C 1744.151 409.681,1709.435 440.793,1672.989 477.125 L 1607.978 541.931 1730.965 664.965 C 1798.608 732.634,1855.784 788.000,1858.023 788.000 C 1866.235 788.000,1987.679 662.045,1993.849 647.128 C 2009.641 608.948,2002.400 596.895,1904.788 498.878 C 1805.139 398.815,1790.366 389.866,1752.000 406.316 M1168.984 981.016 L 800.000 1350.016 800.000 1475.008 L 800.000 1600.000 925.008 1600.000 L 1050.016 1600.000 1419.016 1230.984 L 1788.016 861.968 1662.992 736.992 L 1537.968 612.015 1168.984 981.016 " fill="#1D1E23" stroke="none" fill-rule="evenodd"/></svg>