<svg viewBox="0 0 2400 2400" fill="none" xmlns="http://www.w3.org/2000/svg"><path d="M445.513 311.701 C 412.765 317.065,360.332 356.685,332.688 396.956 C 309.976 430.043,307.675 441.750,303.395 546.000 C 297.816 681.881,301.387 1919.384,307.434 1945.511 C 314.805 1977.362,328.293 2000.086,358.997 2032.382 C 391.797 2066.883,422.090 2085.194,458.229 2092.363 C 475.753 2095.839,671.889 2097.524,1204.520 2098.774 L 1927.041 2100.469 1958.520 2088.178 C 2017.160 2065.283,2054.952 2030.557,2086.438 1970.639 L 2101.303 1942.350 2098.582 1624.175 C 2097.086 1449.179,2094.233 1294.775,2092.242 1281.055 C 2087.972 1251.622,2078.723 1237.207,2053.307 1220.372 C 2036.035 1208.931,2032.019 1208.000,1999.965 1208.000 C 1966.066 1208.000,1964.826 1208.343,1943.651 1223.560 C 1931.743 1232.118,1917.650 1245.051,1912.333 1252.301 L 1902.665 1265.481 1900.783 1582.741 L 1898.902 1900.000 1199.451 1900.000 L 500.000 1900.000 500.000 1200.640 L 500.000 501.280 803.000 498.856 C 1001.495 497.268,1113.090 494.896,1126.556 491.980 C 1151.986 486.472,1175.940 466.912,1188.155 441.681 C 1195.602 426.297,1196.710 418.668,1195.113 393.782 C 1192.927 359.720,1182.231 340.216,1154.592 319.890 L 1138.424 308.000 800.212 308.501 C 614.195 308.776,454.581 310.216,445.513 311.701 M1756.000 408.495 C 1737.586 419.628,1699.590 452.698,1648.826 501.773 L 1607.651 541.578 1686.826 621.057 C 1730.372 664.771,1787.209 720.474,1813.132 744.842 L 1860.263 789.147 1870.670 779.574 C 1903.216 749.632,1986.333 655.577,1992.501 641.709 C 2004.973 613.669,1997.556 599.590,1932.763 528.309 C 1875.337 465.133,1795.883 400.127,1776.000 400.052 C 1772.700 400.040,1763.700 403.839,1756.000 408.495 M1168.984 981.016 L 800.000 1350.016 800.000 1475.008 L 800.000 1600.000 925.008 1600.000 L 1050.016 1600.000 1419.016 1230.984 L 1788.016 861.968 1662.992 736.992 L 1537.968 612.015 1168.984 981.016 " fill="#1D1E23" stroke="none" fill-rule="evenodd"/></svg>