<svg viewBox="0 0 2400 2400" fill="none" xmlns="http://www.w3.org/2000/svg"><path d="M519.764 303.621 L 445.529 306.000 414.332 321.432 C 373.069 341.844,341.889 372.968,321.620 413.980 C 307.743 442.058,306.115 448.822,303.467 489.412 C 299.672 547.583,299.672 1852.417,303.467 1910.588 C 306.115 1951.178,307.743 1957.942,321.620 1986.020 C 341.771 2026.792,373.111 2058.181,413.693 2078.238 C 439.895 2091.188,449.792 2093.787,483.125 2096.476 C 538.015 2100.903,1873.709 2100.585,1919.741 2096.134 C 1950.432 2093.166,1962.761 2089.848,1985.741 2078.373 C 2035.732 2053.410,2069.650 2016.243,2089.211 1964.995 L 2097.988 1942.000 2097.994 1612.000 C 2098.001 1249.594,2098.595 1258.862,2073.732 1233.999 C 2051.451 1211.718,2029.984 1202.560,2000.000 1202.545 C 1970.207 1202.531,1953.996 1209.287,1930.670 1231.441 C 1899.857 1260.706,1902.136 1233.708,1900.819 1585.000 L 1899.639 1900.000 1199.819 1900.000 L 500.000 1900.000 500.000 1200.203 L 500.000 500.407 811.000 498.997 C 1047.618 497.925,1125.649 496.379,1137.255 492.535 C 1154.972 486.668,1179.917 462.484,1190.437 440.975 C 1200.308 420.793,1200.308 379.207,1190.437 359.025 C 1179.861 337.402,1154.903 313.283,1137.255 307.631 C 1120.399 302.232,657.020 299.223,519.764 303.621 M1752.526 406.820 C 1745.116 410.471,1709.446 442.248,1673.261 477.436 L 1607.469 541.414 1714.734 648.971 C 1773.731 708.127,1830.786 763.974,1841.525 773.076 L 1861.049 789.624 1924.077 724.795 C 1958.742 689.139,1990.006 653.851,1993.552 646.378 C 2009.819 612.098,1998.249 593.165,1902.542 497.458 C 1806.472 401.389,1787.194 389.741,1752.526 406.820 M1168.984 981.016 L 800.000 1350.016 800.000 1475.008 L 800.000 1600.000 925.008 1600.000 L 1050.016 1600.000 1419.016 1230.984 L 1788.016 861.968 1662.992 736.992 L 1537.968 612.015 1168.984 981.016 " fill="#1D1E23" stroke="none" fill-rule="evenodd"/></svg>