<svg viewBox="0 0 2400 2400" fill="none" xmlns="http://www.w3.org/2000/svg"><path d="M500 300C389 300 300 389 300 500V1900C300 1953.04 321.071 2003.91 358.579 2041.42C396.086 2078.93 446.957 2100 500 2100H1900C1953.04 2100 2003.91 2078.93 2041.42 2041.42C2078.93 2003.91 2100 1953.04 2100 1900V1300C2100 1244.77 2055.23 1200 2000 1200C1944.77 1200 1900 1244.77 1900 1300V1900H500V500H1100C1155.23 500 1200 455.228 1200 400C1200 344.772 1155.23 300 1100 300H500ZM1778 400C1760 400.152 1742.78 407.329 1730 420L1608 541L1858 791L1980 670C2006 644 2006 600 1980 575L1825 420C1812 407 1795 400 1778 400ZM1537 612L800 1350V1600H1050L1787 862L1537 612Z" fill="#1D1E23"/></svg>