<svg viewBox="0 0 24 24" fill="none" xmlns="http://www.w3.org/2000/svg"><g><path d="M12 12.25C13.24 12.25 14.25 11.24 14.25 10C14.25 8.76 13.24 7.75 12 7.75C10.76 7.75 9.75 8.76 9.75 10C9.75 11.24 10.76 12.25 12 12.25ZM16.5 16.25C16.5 14.75 13.5 14 12 14C10.5 14 7.5 14.75 7.5 16.25V17H16.5V16.25ZM6.99586 3C5.33901 3 4 4.34315 4 6L4 18C4 19.6569 5.34315 21 7 21H17C18.6569 21 20 19.6569 20 18V6C20 4.34315 18.6571 3 17.0002 3C14.0454 3 9.81896 3 6.99586 3ZM17 19H7C6.45 19 6 18.55 6 18V6C6 5.45 6.45 5 7 5H17C17.55 5 18 5.45 18 6V18C18 18.55 17.55 19 17 19Z" fill="#1D1E23"/></g></svg>