<svg viewBox="0 0 24 24" fill="none" xmlns="http://www.w3.org/2000/svg"><g><path fill-rule="evenodd" clip-rule="evenodd" d="M6.5 9H3V15H4.5V13H6.5C6.89463 12.9899 7.27031 12.8286 7.54945 12.5495C7.82859 12.2703 7.98988 11.8946 8 11.5V10.5C7.98988 10.1054 7.82859 9.72969 7.54945 9.45055C7.27031 9.17141 6.89463 9.01012 6.5 9ZM6.5 11.5H4.5V10.5H6.5V11.5ZM14.5 11.5V10.5C14.4899 10.1054 14.3286 9.72969 14.0495 9.45055C13.7703 9.17141 13.3946 9.01012 13 9H9.5V15H11V13H12.1L13 15H14.5L13.6 12.9C13.8581 12.7641 14.0766 12.5638 14.2343 12.3185C14.392 12.0731 14.4835 11.7912 14.5 11.5ZM13 11.5H11V10.5H13V11.5ZM17.5 9H19.5C19.8946 9.01012 20.2703 9.17141 20.5495 9.45055C20.8286 9.72969 20.9899 10.1054 21 10.5V13.5C20.9899 13.8946 20.8286 14.2703 20.5495 14.5495C20.2703 14.8286 19.8946 14.9899 19.5 15H17.5C17.1054 14.9899 16.7297 14.8286 16.4505 14.5495C16.1714 14.2703 16.0101 13.8946 16 13.5V10.5C16.0101 10.1054 16.1714 9.72969 16.4505 9.45055C16.7297 9.17141 17.1054 9.01012 17.5 9ZM17.5 13.5H19.5V10.5H17.5V13.5Z" fill="#1D1E23"/></g></svg>