<svg viewBox="0 0 24 24" fill="none" xmlns="http://www.w3.org/2000/svg"><g><path d="M10 9.04V14.96C10 15.38 10.48 15.61 10.81 15.35L14.51 12.39C14.76 12.19 14.76 11.81 14.51 11.61L10.81 8.65C10.48 8.39 10 8.62 10 9.04ZM21 5.99496C21 4.3381 19.6569 3 18 3H6C4.34315 3 3 4.3423 3 5.99915C3 9.82012 3 14.1799 3 18.0008C3 19.6577 4.34289 21 5.99975 21C9.29041 21 14.561 21 18.005 21C19.6619 21 21 19.6571 21 18.0003C21 14.7096 21 9.43896 21 5.99496ZM18 19H6C5.45 19 5 18.55 5 18V6C5 5.45 5.45 5 6 5H18C18.55 5 19 5.45 19 6V18C19 18.55 18.55 19 18 19Z" fill="#1D1E23"/></g></svg>