<svg viewBox="0 0 24 24" fill="none" xmlns="http://www.w3.org/2000/svg"><g><path fill-rule="evenodd" clip-rule="evenodd" d="M14 3H10C9.45 3 9 2.55 9 2C9 1.45 9.45 1 10 1H14C14.55 1 15 1.45 15 2C15 2.55 14.55 3 14 3ZM19.7801 6.64L19.0301 7.39C20.2601 8.93 21.0001 10.88 21.0001 13C21.0001 17.97 16.9801 22 12.0001 22C6.9401 22 2.8701 17.84 3.0001 12.76C3.1201 7.96 7.2001 4 12.0001 4C14.1201 4 16.0701 4.74 17.6201 5.98L18.3701 5.23C18.7601 4.85 19.3801 4.84 19.7701 5.23L19.7801 5.24C20.1701 5.63 20.1601 6.26 19.7801 6.64ZM12.0001 14C12.5501 14 13.0001 13.55 13.0001 13V9C13.0001 8.45 12.5501 8 12.0001 8C11.4501 8 11.0001 8.45 11.0001 9V13C11.0001 13.55 11.4501 14 12.0001 14Z" fill="#1D1E23"/></g></svg>