<svg viewBox="0 0 24 24" fill="none" xmlns="http://www.w3.org/2000/svg"><g><path fill-rule="evenodd" clip-rule="evenodd" d="M14.5243 7.01058V16.9995L18.4068 16.9878C19.3581 17.0476 20.3022 16.7842 21.0938 16.2384C21.4017 15.9702 21.6437 15.631 21.8 15.2484C21.9563 14.8658 22.0225 14.4507 21.9933 14.0368C21.9943 13.5406 21.834 13.0584 21.5379 12.6667C21.2561 12.2844 20.8534 12.0152 20.3993 11.9055C20.8132 11.7561 21.1688 11.4725 21.4126 11.0975C21.6561 10.7025 21.779 10.2417 21.7656 9.77423C21.7879 9.37316 21.7096 8.97292 21.5381 8.61198C21.3667 8.25104 21.1078 7.94153 20.7864 7.7132C19.9281 7.18937 18.936 6.94447 17.94 7.01058H14.5243ZM18.088 11.1443H16.8697L16.8014 8.86082H17.94C18.3389 8.82736 18.7378 8.92582 19.0786 9.14187C19.2204 9.2386 19.3378 9.36875 19.421 9.52149C19.5042 9.67424 19.5507 9.84519 19.5568 10.0201C19.5663 10.1754 19.5416 10.3308 19.4844 10.4748C19.4272 10.6188 19.3391 10.7476 19.2266 10.8516C18.8903 11.079 18.4888 11.1823 18.088 11.1443ZM16.8014 15.2078V12.7487H18.4524C18.6199 12.7385 18.7875 12.7666 18.9433 12.8309C19.099 12.8952 19.239 12.9941 19.3533 13.1206C19.4675 13.247 19.5532 13.3979 19.6041 13.5623C19.655 13.7268 19.67 13.9008 19.6479 14.0719C19.6568 14.2282 19.6307 14.3845 19.5715 14.5287C19.5122 14.6729 19.4215 14.8011 19.3063 14.9034C19.0299 15.1215 18.6862 15.2296 18.3385 15.2078H16.8014ZM11.2338 7.01122L10.118 13.2763L8.7631 7.01122H6.78199L5.41571 13.2763L4.27714 7.01122H2L4.0722 17.0002H6.48596L7.76116 11.3089L9.07051 17.0002H11.4957L13.5109 7.01122H11.2338Z" fill="#1D1E23"/></g></svg>