<svg viewBox="0 0 24 24" fill="none" xmlns="http://www.w3.org/2000/svg"><g><path d="M3.00001 7.99998C3.00001 8.54998 3.45001 8.99998 4.00001 8.99998H8.00001C8.55001 8.99998 9.00001 8.54998 9.00001 7.99998V3.99998C9.00001 3.44998 8.55001 2.99998 8.00001 2.99998C7.45001 2.99998 7.00001 3.44998 7.00001 3.99998V5.58998L4.62001 3.20998C4.23001 2.81998 3.60001 2.81998 3.21001 3.20998C2.82001 3.59998 2.82001 4.22998 3.21001 4.61998L5.59001 6.99998H4.00001C3.45001 6.99998 3.00001 7.44998 3.00001 7.99998ZM20 6.99998H18.41L20.79 4.61998C21.18 4.22998 21.18 3.59998 20.79 3.20998C20.4 2.81998 19.77 2.81998 19.38 3.20998L17 5.58998V3.99998C17 3.44998 16.55 2.99998 16 2.99998C15.45 2.99998 15 3.44998 15 3.99998V7.99998C15 8.54998 15.45 8.99998 16 8.99998H20C20.55 8.99998 21 8.54998 21 7.99998C21 7.44998 20.55 6.99998 20 6.99998ZM4.00001 17H5.59001L3.21001 19.38C2.82001 19.77 2.82001 20.4 3.21001 20.79C3.60001 21.18 4.23001 21.18 4.62001 20.79L7.00001 18.41V20C7.00001 20.55 7.45001 21 8.00001 21C8.55001 21 9.00001 20.55 9.00001 20V16C9.00001 15.45 8.55001 15 8.00001 15H4.00001C3.45001 15 3.00001 15.45 3.00001 16C3.00001 16.55 3.45001 17 4.00001 17ZM21 16C21 15.45 20.55 15 20 15H16C15.45 15 15 15.45 15 16V20C15 20.55 15.45 21 16 21C16.55 21 17 20.55 17 20V18.41L19.38 20.79C19.77 21.18 20.4 21.18 20.79 20.79C21.18 20.4 21.18 19.77 20.79 19.38L18.41 17H20C20.55 17 21 16.55 21 16Z" fill="#1D1E23"/></g></svg>