<svg viewBox="0 0 24 24" fill="none" xmlns="http://www.w3.org/2000/svg"><g><path fill-rule="evenodd" clip-rule="evenodd" d="M9 11H5C3.9 11 3 10.1 3 9V5C3 3.9 3.9 3 5 3H9C10.1 3 11 3.9 11 5V9C11 10.1 10.1 11 9 11ZM9 21H5C3.9 21 3 20.1 3 19V15C3 13.9 3.9 13 5 13H9C10.1 13 11 13.9 11 15V19C11 20.1 10.1 21 9 21ZM13 5V9C13 10.1 13.9 11 15 11H19C20.1 11 21 10.1 21 9V5C21 3.9 20.1 3 19 3H15C13.9 3 13 3.9 13 5ZM19 21H15C13.9 21 13 20.1 13 19V15C13 13.9 13.9 13 15 13H19C20.1 13 21 13.9 21 15V19C21 20.1 20.1 21 19 21Z" fill="#1D1E23"/></g></svg>