<svg viewBox="0 0 24 24" fill="none" xmlns="http://www.w3.org/2000/svg"><g><path d="M16.5752 1H3.14159C1.96372 1 1 1.99 1 3.2V20.8C1 22.01 1.95301 23 3.13088 23H20.8584C22.0363 23 23 22.01 23 20.8V7.6L16.5752 1ZM20.8584 20.8H3.14159V3.2H15.5044V8.7H20.8584V20.8Z" fill="#1D1E23"/><path d="M8.31582 12.0199V17.0499C8.31582 17.3632 8.25915 17.6499 8.14582 17.9099 8.03915 18.1632 7.88248 18.3799 7.67582 18.5599 7.47582 18.7399 7.23248 18.8799 6.94582 18.9799 6.65915 19.0732 6.33915 19.1199 5.98582 19.1199 5.27248 19.1199 4.71915 18.9432 4.32582 18.5899 3.93915 18.2299 3.69248 17.7599 3.58582 17.1799L5.00582 16.8899C5.05915 17.1899 5.15915 17.4332 5.30582 17.6199 5.45915 17.8066 5.68582 17.8999 5.98582 17.8999 6.23915 17.8999 6.43582 17.8199 6.57582 17.6599 6.72248 17.4932 6.79582 17.2399 6.79582 16.8999V13.2499H4.49582V12.0199H8.31582ZM9.76191 18.9999V12.0199H12.4619C12.8019 12.0199 13.1052 12.0732 13.3719 12.1799 13.6386 12.2799 13.8619 12.4266 14.0419 12.6199 14.2286 12.8132 14.3686 13.0466 14.4619 13.3199 14.5552 13.5932 14.6019 13.8999 14.6019 14.2399 14.6019 14.5799 14.5552 14.8866 14.4619 15.1599 14.3686 15.4332 14.2286 15.6666 14.0419 15.8599 13.8619 16.0532 13.6386 16.2032 13.3719 16.3099 13.1052 16.4099 12.8019 16.4599 12.4619 16.4599H11.2719V18.9999H9.76191ZM11.2719 15.2499H12.0819C12.4352 15.2499 12.6786 15.1832 12.8119 15.0499 12.9519 14.9166 13.0219 14.6966 13.0219 14.3899V14.0899C13.0219 13.7832 12.9519 13.5632 12.8119 13.4299 12.6786 13.2966 12.4352 13.2299 12.0819 13.2299H11.2719V15.2499ZM18.908 18.0099H18.818C18.758 18.1566 18.6847 18.2966 18.598 18.4299 18.5113 18.5632 18.4047 18.6832 18.278 18.7899 18.1513 18.8899 18.0013 18.9699 17.828 19.0299 17.6613 19.0899 17.4713 19.1199 17.258 19.1199 16.918 19.1199 16.6147 19.0399 16.348 18.8799 16.088 18.7199 15.868 18.4866 15.688 18.1799 15.508 17.8732 15.3713 17.4999 15.278 17.0599 15.1913 16.6199 15.148 16.1232 15.148 15.5699 15.148 14.3832 15.3647 13.4766 15.798 12.8499 16.2313 12.2166 16.9013 11.8999 17.808 11.8999 18.168 11.8999 18.4847 11.9499 18.758 12.0499 19.0313 12.1432 19.2647 12.2799 19.458 12.4599 19.658 12.6332 19.8213 12.8432 19.948 13.0899 20.0747 13.3366 20.1747 13.6099 20.248 13.9099L18.848 14.2499C18.808 14.1032 18.7613 13.9632 18.708 13.8299 18.6613 13.6899 18.598 13.5666 18.518 13.4599 18.438 13.3532 18.338 13.2699 18.218 13.2099 18.098 13.1432 17.9513 13.1099 17.778 13.1099 17.398 13.1099 17.128 13.2666 16.968 13.5799 16.8147 13.8932 16.738 14.3332 16.738 14.8999V16.0399C16.738 16.6066 16.8213 17.0599 16.988 17.3999 17.1613 17.7399 17.4647 17.9099 17.898 17.9099 18.238 17.9099 18.4913 17.8099 18.658 17.6099 18.8247 17.4099 18.908 17.1532 18.908 16.8399V16.3299H17.718V15.2699H20.248V18.9999H18.908V18.0099Z" fill="#1D1E23"/></g></svg>