<svg width="1200" height="1200" viewBox="0 0 1200 1200" fill="none" xmlns="http://www.w3.org/2000/svg"><g clip-path="url(#clip0_238_2775)"><path d="M900 950H300C272.5 950 250 927.5 250 900V300C250 272.5 272.5 250 300 250H900C927.5 250 950 272.5 950 300V900C950 927.5 927.5 950 900 950ZM950 150H250C195 150 150 195 150 250V950C150 1005 195 1050 250 1050H950C1005 1050 1050 1005 1050 950V250C1050 195 1005 150 950 150Z" fill="black"/></g><defs><clipPath id="clip0_238_2775"><path width="24" fill="white" d="M0 0H1200V1200H0V0z"/></clipPath></defs></svg>