<svg xmlns="http://www.w3.org/2000/svg" width="1200" height="1200" fill="none" viewBox="0 0 1200 1200"><g fill="#000" clip-path="url(#a)"><path d="M850 600c0 138.07-111.93 250-250 250-138.071 0-250-111.93-250-250 0-138.071 111.929-250 250-250 138.07 0 250 111.929 250 250"/><path fill-rule="evenodd" d="M100 600c0-276 224-500 500-500s500 224 500 500-224 500-500 500-500-224-500-500m100 0c0 221 179 400 400 400s400-179 400-400-179-400-400-400-400 179-400 400"/></g><defs><clipPath id="a"><path fill="#fff" d="M0 0h1200v1200H0z"/></clipPath></defs></svg>