<svg width="1200" height="1200" viewBox="0 0 1200 1200" fill="none" xmlns="http://www.w3.org/2000/svg"><g clip-path="url(#clip0_238_2772)"><path fill-rule="evenodd" d="M100 600C100 324 324 100 600 100C876 100 1100 324 1100 600C1100 876 876 1100 600 1100C324 1100 100 876 100 600ZM200 600C200 821 379 1000 600 1000C821 1000 1000 821 1000 600C1000 379 821 200 600 200C379 200 200 379 200 600ZM850 600C850 738.07 738.07 850 600 850C461.929 850 350 738.07 350 600C350 461.929 461.929 350 600 350C738.07 350 850 461.929 850 600Z" fill="#1D1E23"/></g><defs><clipPath id="clip0_238_2772"><path width="24" fill="white" d="M0 0H1200V1200H0V0z"/></clipPath></defs></svg>