<svg xmlns="http://www.w3.org/2000/svg" width="1200" height="1200" fill="none" viewBox="0 0 1200 1200"><g clip-path="url(#a)"><path fill="#000" d="m982.5 452-242-21L646 208.5c-17-40.5-75-40.5-92 0l-94.502 223-241.5 20.5c-44 3.5-62 58.5-28.5 87.5l183.5 159-55 236c-10 43 36.5 77 74.5 54L600 863.5 807.5 989c38 23 84.5-11 74.495-54L827 698.5l183.495-159c33.5-29 16-84-27.995-87.5M600 770V305l85.5 202 219 19-166 144 50 214z"/></g><defs><clipPath id="a"><path fill="#fff" d="M0 0h1200v1200H0z"/></clipPath></defs></svg>