<svg width="1200" height="1200" viewBox="0 0 1200 1200" fill="none" xmlns="http://www.w3.org/2000/svg"><g clip-path="url(#clip0_238_2776)"><path d="M982.505 452L740.505 431L646.005 208.5C629.005 168 571.005 168 554.005 208.5L459.504 431.5L218.004 452C174.004 455.5 156.004 510.5 189.504 539.5L373.003 698.5L318.004 934.5C308.004 977.5 354.503 1011.5 392.503 988.5L600.005 863.5L807.505 989C845.505 1012 892.005 978 882.005 935L827.005 698.5L1010.505 539.5C1044.005 510.5 1026.505 455.5 982.505 452ZM600.005 770V305L685.505 507L904.505 526L738.505 670L788.505 884L600.005 770Z" fill="#1D1E23"/></g><defs><clipPath id="clip0_238_2776"><path width="24" fill="white" d="M0 0H1200V1200H0V0z"/></clipPath></defs></svg>