<svg width="1200" height="1200" viewBox="0 0 1200 1200" fill="none" xmlns="http://www.w3.org/2000/svg"><g clip-path="url(#clip0_238_2770)"><path d="M600.005 863.5L807.505 989C845.505 1012 892.005 978 882.005 935L827.005 699L1010.505 540C1044.005 511 1026.005 456.001 982.005 452.5L740.505 432L646.005 209.001C629.005 168.501 571.005 168.501 554.005 209.001L459.504 431.501L218.004 452.001C174.004 455.501 156.004 510.5 189.504 539.5L373.003 698.5L318.004 934.5C308.004 977.5 354.503 1011.5 392.503 988.5L600.005 863.5Z" fill="#1D1E23"/></g><defs><clipPath id="clip0_238_2770"><path width="24" fill="white" d="M0 0H1200V1200H0V0z"/></clipPath></defs></svg>