<svg width="1200" height="1200" viewBox="0 0 1200 1200" fill="none" xmlns="http://www.w3.org/2000/svg"><g clip-path="url(#clip0_238_2776)"><path d="M982.5 452L740.5 431L646 208.5C629 168 571 168 554 208.5L459.498 431.5L217.998 452C173.998 455.5 155.998 510.5 189.498 539.5L372.998 698.5L317.998 934.5C307.998 977.5 354.498 1011.5 392.498 988.5L600 863.5L807.5 989C845.5 1012 892 978 881.995 935L827 698.5L1010.495 539.5C1043.995 510.5 1026.495 455.5 982.5 452ZM600 770V305L685.5 507L904.5 526L738.5 670L788.5 884L600 770Z" fill="black"/></g><defs><clipPath id="clip0_238_2776"><path width="24" fill="white" d="M0 0H1200V1200H0V0z"/></clipPath></defs></svg>