<svg width="1200" height="1200" viewBox="0 0 1200 1200" fill="none" xmlns="http://www.w3.org/2000/svg"><g clip-path="url(#clip0_125_1247)"><path d="M850 350H350C212 350 100 462 100 600C100 738 212 850 350 850H850C988 850 1100 738 1100 600C1100 462 988 350 850 350ZM350 750C267 750 200 683 200 600C200 517 267 450 350 450C433 450 500 517 500 600C500 683 433 750 350 750Z" fill="black"/></g><defs><clipPath id="clip0_125_1247"><path width="24" fill="white" d="M0 0H1200V1200H0V0z"/></clipPath></defs></svg>