<svg width="1200" height="1200" viewBox="0 0 1200 1200" fill="none" xmlns="http://www.w3.org/2000/svg"><g clip-path="url(#clip0_125_1244)"><path d="M850 350H350C212 350 100 462 100 600C100 738 212 850 350 850H850C988 850 1100 738 1100 600C1100 462 988 350 850 350ZM850 750C767 750 700 683 700 600C700 517 767 450 850 450C933 450 1000 517 1000 600C1000 683 933 750 850 750Z" fill="black"/></g><defs><clipPath id="clip0_125_1244"><path width="24" fill="white" d="M0 0H1200V1200H0V0z"/></clipPath></defs></svg>