<svg viewBox="0 0 24 24" fill="none" xmlns="http://www.w3.org/2000/svg"><g><path d="M21.0001 11H17.0001V7.5C17.0001 6.67 16.3301 6 15.5001 6C14.6701 6 14.0001 6.67 14.0001 7.5V11H10.0001V4.5C10.0001 3.67 9.33009 3 8.50009 3C7.67009 3 7.00009 3.67 7.00009 4.5V11H2.84009C2.29009 11 1.84009 11.45 1.84009 12C1.84009 12.55 2.29009 13 2.84009 13H7.00009V19.5C7.00009 20.33 7.67009 21 8.50009 21C9.33009 21 10.0001 20.33 10.0001 19.5V13H14.0001V16.5C14.0001 17.33 14.6701 18 15.5001 18C16.3301 18 17.0001 17.33 17.0001 16.5V13H21.0001C21.5501 13 22.0001 12.55 22.0001 12C22.0001 11.45 21.5501 11 21.0001 11Z" fill="#1D1E23"/></g></svg>