<svg viewBox="0 0 24 24" fill="none" xmlns="http://www.w3.org/2000/svg"><g><path d="M2.60986 19C3.08986 19 3.51986 18.7 3.66986 18.25L4.67986 15.42H10.3299L11.3199 18.24C11.4799 18.7 11.9099 19 12.3899 19C13.1799 19 13.7199 18.21 13.4399 17.48L9.18986 6.17C8.92986 5.47 8.24986 5 7.49986 5C6.74986 5 6.06986 5.47 5.80986 6.17L1.55986 17.48C1.27986 18.21 1.82986 19 2.60986 19ZM7.43986 7.6H7.55986L9.58986 13.39H5.40986L7.43986 7.6ZM14.9999 12C14.9999 11.45 15.4499 11 15.9999 11H21.9999C22.5499 11 22.9999 11.45 22.9999 12C22.9999 12.55 22.5499 13 21.9999 13H15.9999C15.4499 13 14.9999 12.55 14.9999 12Z" fill="#1D1E23"/></g></svg>