<svg viewBox="0 0 24 24" fill="none" xmlns="http://www.w3.org/2000/svg"><g><path fill-rule="evenodd" clip-rule="evenodd" d="M21.9949 15.6344C21.6754 12.1277 20.1371 8.8438 17.6473 6.35376C15.1575 3.86372 11.8739 2.32499 8.36719 2.00509C8.19359 1.9894 8.01864 2.01007 7.85347 2.06577C7.68831 2.12147 7.53657 2.21098 7.40794 2.32859C7.2793 2.4462 7.17658 2.58933 7.10635 2.74886C7.03611 2.90838 6.99989 3.08079 7 3.25509C6.99916 3.56776 7.11535 3.86942 7.32571 4.10075C7.53607 4.33207 7.82538 4.47631 8.13672 4.50509C14.1594 5.0461 18.957 9.84219 19.4961 15.8645C19.5249 16.1758 19.6691 16.4651 19.9004 16.6755C20.1317 16.8858 20.4334 17.002 20.7461 17.0012C20.9203 17.0012 21.0925 16.9649 21.2519 16.8946C21.4113 16.8244 21.5543 16.7217 21.6718 16.5931C21.7893 16.4645 21.8787 16.3128 21.9343 16.1478C21.99 15.9827 22.0106 15.8079 21.9949 15.6344ZM6.94882 12C6.08848 12.0076 5.24478 12.238 4.5 12.6687V8.24961C4.5 7.91809 4.3683 7.60015 4.13388 7.36573C3.89946 7.13131 3.58152 6.99961 3.25 6.99961C2.91848 6.99961 2.60054 7.13131 2.36612 7.36573C2.1317 7.60015 2 7.91809 2 8.24961V16.9996C2.00466 18.3257 2.53592 19.5956 3.47689 20.53C4.41787 21.4644 5.69149 21.9867 7.01757 21.982C8.34366 21.9774 9.61357 21.4461 10.548 20.5051C11.4823 19.5641 12.0047 18.2905 12 16.9644C11.9809 14.2086 9.70468 11.9723 6.94882 12ZM5.23223 18.7678C4.76339 18.2989 4.5 17.663 4.5 17C4.5 16.5055 4.64662 16.0222 4.92132 15.6111C5.19603 15.1999 5.58647 14.8795 6.04329 14.6903C6.5001 14.5011 7.00277 14.4516 7.48772 14.548C7.97267 14.6445 8.41813 14.8826 8.76776 15.2322C9.11739 15.5819 9.35549 16.0273 9.45196 16.5123C9.54842 16.9972 9.49891 17.4999 9.30969 17.9567C9.12047 18.4135 8.80004 18.804 8.38892 19.0787C7.9778 19.3534 7.49445 19.5 7 19.5C6.33696 19.5 5.70107 19.2366 5.23223 18.7678ZM16.6879 14.5148C16.6945 14.5395 16.7246 14.6648 16.7336 14.7039C16.8021 14.9948 16.8574 15.2872 16.8996 15.5813C16.924 15.7581 16.9102 15.9381 16.8591 16.1091C16.808 16.2801 16.7208 16.4382 16.6034 16.5726C16.486 16.7071 16.3411 16.8148 16.1785 16.8884C16.0159 16.9621 15.8394 17 15.6609 16.9996C15.3604 16.9995 15.07 16.8911 14.8429 16.6944C14.6158 16.4976 14.4671 16.2256 14.4242 15.9281C14.3699 15.5494 14.2866 15.1754 14.175 14.8094C14.1742 14.807 14.168 14.7875 14.1602 14.7627C14.1498 14.7298 14.1365 14.6876 14.1285 14.6629C13.6922 13.3353 12.8942 12.1559 11.8241 11.2572C10.7541 10.3584 9.45445 9.77615 8.07149 9.57579C7.77406 9.53287 7.50204 9.38424 7.30526 9.15712C7.10849 8.93 7.00012 8.63958 7 8.33907C6.99939 8.16045 7.03713 7.98377 7.11069 7.82099C7.18425 7.65821 7.2919 7.51311 7.42638 7.39553C7.56085 7.27795 7.719 7.19061 7.89014 7.13942C8.06128 7.08824 8.24141 7.0744 8.41836 7.09884C10.3694 7.37898 12.1941 8.22911 13.6637 9.54256C15.1333 10.856 16.1823 12.5742 16.6789 14.4816C16.6797 14.4847 16.6806 14.4876 16.6814 14.4905C16.6837 14.4986 16.6859 14.5065 16.6879 14.5148Z" fill="#1D1E23"/></g></svg>