<svg viewBox="0 0 24 24" fill="none" xmlns="http://www.w3.org/2000/svg"><g><path fill-rule="evenodd" clip-rule="evenodd" d="M14.1707 7.2731C14.494 7.55598 15 7.32639 15 6.89681V5.9987H17C17.5523 5.9987 18 5.55098 18 4.9987V3.9987C18 3.44641 17.5523 2.9987 17 2.9987L15 2.9987V2.10058C15 1.671 14.494 1.44141 14.1707 1.72429L11 4.4987L14.1707 7.2731ZM9 14.9987C11.21 14.9987 13 13.2087 13 10.9987C13 8.7887 11.21 6.9987 9 6.9987C6.79 6.9987 5 8.7887 5 10.9987C5 13.2087 6.79 14.9987 9 14.9987ZM9 16.9987C6.33 16.9987 1 18.3387 1 20.9987V21.9987C1 22.5487 1.45 22.9987 2 22.9987H16C16.55 22.9987 17 22.5487 17 21.9987V20.9987C17 18.3387 11.67 16.9987 9 16.9987ZM19 6.10058C19 5.671 19.506 5.44141 19.8293 5.72429L23 8.4987L19.8293 11.2731C19.506 11.556 19 11.3264 19 10.8968V9.9987H17C16.4477 9.9987 16 9.55098 16 8.9987V7.9987C16 7.44641 16.4477 6.9987 17 6.9987H19V6.10058Z" fill="#1D1E23"/></g></svg>