<svg viewBox="0 0 24 24" fill="none" xmlns="http://www.w3.org/2000/svg"><g><path d="M21.8004 8.03477C21.8004 8.03477 21.6051 6.65664 21.0051 6.04961C20.2445 5.25312 19.3922 5.24922 19.0012 5.20273C16.2027 5 12.0043 5 12.0043 5H11.9957C11.9957 5 7.79727 5 4.99844 5.20273C4.60781 5.24922 3.75547 5.25312 2.99453 6.04961C2.39492 6.65664 2.2 8.03477 2.2 8.03477C2.2 8.03477 2 9.65352 2 11.2719V12.7891C2 14.4074 2.2 16.0262 2.2 16.0262C2.2 16.0262 2.39531 17.4043 2.99453 18.0113C3.75547 18.8078 4.75507 18.7824 5.2 18.866C6.80156 19.0195 12 19.0672 12 19.0672C12 19.0672 16.2027 19.0605 19.0012 18.8586C19.3918 18.8117 20.2445 18.8078 21.0051 18.0113C21.6047 17.4043 21.8004 16.0262 21.8004 16.0262C21.8004 16.0262 22 14.4074 22 12.7891V11.2719C22 9.65352 21.8004 8.03477 21.8004 8.03477ZM9.93516 14.6277V9.00859L15.3383 11.8277L9.93516 14.6277Z" fill="#1D1E23"/></g></svg>