<svg viewBox="0 0 2400 2400" fill="none" xmlns="http://www.w3.org/2000/svg"><path d="M464.000 307.634 C 407.168 312.827,349.836 356.788,319.481 418.448 C 307.693 442.392,306.397 448.971,303.559 499.257 C 299.361 573.640,299.540 1832.012,303.759 1901.226 C 306.852 1951.976,308.187 1958.623,320.231 1983.226 C 337.936 2019.395,380.684 2062.103,416.955 2079.858 C 442.253 2092.243,447.536 2093.252,502.955 2096.288 C 579.921 2100.504,1820.079 2100.504,1897.045 2096.288 C 1952.464 2093.252,1957.747 2092.243,1983.045 2079.858 C 2019.172 2062.173,2062.071 2019.383,2079.622 1983.525 C 2091.386 1959.492,2092.932 1951.928,2096.385 1901.525 C 2098.632 1868.729,2099.741 1561.095,2099.094 1150.000 L 2098.000 454.000 2083.065 422.721 C 2062.058 378.727,2029.502 345.717,1983.878 322.154 L 1948.729 304.000 1219.365 304.629 C 818.214 304.976,478.300 306.328,464.000 307.634 M1831.459 742.098 C 1841.656 747.651,1853.964 758.001,1858.808 765.098 C 1869.477 780.726,1874.077 806.385,1868.650 820.000 C 1860.119 841.404,1761.183 956.187,1508.769 1237.524 C 1408.312 1349.493,1354.200 1406.832,1345.599 1410.426 C 1338.520 1413.383,1324.219 1417.710,1313.817 1420.041 C 1279.769 1427.671,1265.205 1419.579,1195.323 1354.200 C 1161.595 1322.646,1109.717 1272.335,1080.038 1242.397 L 1026.076 1187.965 884.038 1329.265 C 805.917 1406.980,718.104 1493.285,688.897 1521.053 C 642.000 1565.640,633.786 1571.842,618.612 1574.117 C 568.481 1581.635,525.864 1540.155,534.034 1491.797 C 537.592 1470.739,562.891 1442.035,706.275 1296.374 C 834.904 1165.702,961.860 1043.629,981.734 1031.510 C 990.850 1025.951,1001.760 1024.026,1024.217 1024.015 C 1050.565 1024.002,1056.711 1025.452,1072.217 1035.339 C 1081.998 1041.575,1137.959 1093.775,1196.575 1151.339 C 1255.192 1208.902,1303.975 1256.000,1304.982 1256.000 C 1305.990 1256.000,1340.831 1217.775,1382.407 1171.055 C 1693.884 821.046,1748.331 761.833,1774.849 744.269 C 1797.348 729.366,1807.375 728.982,1831.459 742.098 " fill="#1D1E23" stroke="none" fill-rule="evenodd"/></svg>