<svg viewBox="0 0 2400 2400" fill="none" xmlns="http://www.w3.org/2000/svg"><path d="M1080.000 206.640 C 1015.239 211.109,936.405 240.710,881.533 281.162 C 717.966 401.743,666.818 611.899,756.725 793.977 C 776.436 833.896,796.031 860.002,835.238 898.578 C 889.018 951.493,943.422 982.612,1020.000 1004.262 C 1049.654 1012.646,1062.182 1013.852,1118.000 1013.698 C 1191.022 1013.495,1215.303 1008.931,1274.146 984.344 C 1322.228 964.254,1359.899 939.672,1397.847 903.625 C 1437.575 865.887,1460.742 834.591,1481.845 790.154 C 1512.940 724.674,1524.032 675.845,1523.970 604.711 C 1523.866 485.259,1468.705 372.817,1371.870 294.664 C 1333.834 263.966,1265.157 228.231,1224.424 217.943 C 1201.504 212.153,1119.256 203.152,1104.000 204.764 C 1100.700 205.112,1089.900 205.957,1080.000 206.640 M1185.565 419.509 C 1215.345 429.976,1256.204 459.462,1276.749 485.311 C 1311.285 528.764,1325.624 585.053,1316.729 642.263 C 1301.669 739.132,1216.355 812.000,1118.000 812.000 C 973.005 812.000,873.636 657.215,935.035 526.998 C 962.815 468.081,1019.241 422.603,1077.615 412.084 C 1107.379 406.720,1159.348 410.295,1185.565 419.509 M622.000 1027.711 C 549.365 1044.886,480.797 1083.036,427.629 1135.855 C 371.602 1191.514,336.596 1252.298,317.725 1326.690 C 309.540 1358.954,308.002 1374.607,308.010 1425.513 C 308.019 1477.619,309.426 1491.246,318.163 1523.860 C 357.761 1671.666,471.172 1782.339,621.535 1819.907 C 652.844 1827.730,664.973 1828.603,723.535 1827.248 C 788.959 1825.735,790.727 1825.459,836.429 1809.634 C 917.341 1781.615,977.841 1739.839,1028.000 1677.349 C 1088.095 1602.483,1116.927 1520.340,1116.927 1424.000 C 1116.927 1237.956,1000.920 1086.497,816.000 1031.111 C 776.569 1019.301,665.780 1017.359,622.000 1027.711 M774.847 1231.960 C 820.331 1247.946,862.173 1282.287,886.990 1324.000 C 913.570 1368.675,920.151 1438.432,902.503 1488.426 C 870.017 1580.452,771.474 1640.991,681.076 1624.459 C 572.952 1604.685,497.243 1502.079,511.990 1395.302 C 523.012 1315.502,589.326 1243.936,669.051 1225.802 C 700.443 1218.662,744.270 1221.213,774.847 1231.960 M1635.405 1388.047 C 1549.402 1396.277,1461.519 1441.747,1393.632 1513.139 C 1349.974 1559.051,1323.592 1602.170,1303.890 1659.815 C 1283.995 1718.025,1277.190 1772.267,1283.292 1824.000 C 1295.690 1929.124,1335.468 2011.688,1406.800 2080.362 C 1498.421 2168.568,1618.394 2208.699,1741.458 2192.304 C 1881.488 2173.649,2007.096 2077.084,2063.381 1944.817 C 2087.272 1888.673,2092.946 1854.812,2091.253 1778.491 C 2089.749 1710.715,2089.566 1709.520,2073.765 1664.000 C 2036.873 1557.724,1965.896 1475.572,1870.448 1428.674 C 1815.048 1401.453,1784.463 1392.902,1725.319 1388.099 C 1697.554 1385.845,1672.850 1384.252,1670.419 1384.559 C 1667.989 1384.867,1652.232 1386.436,1635.405 1388.047 M1725.548 1591.903 C 1788.497 1602.211,1848.619 1651.426,1875.080 1714.305 C 1921.179 1823.853,1854.678 1955.441,1737.834 1985.875 C 1672.907 2002.787,1600.579 1984.011,1551.943 1937.620 C 1506.610 1894.379,1488.000 1852.247,1488.000 1792.852 C 1488.000 1732.075,1507.732 1684.889,1550.201 1644.109 C 1598.048 1598.163,1656.859 1580.654,1725.548 1591.903 " fill="#1D1E23" stroke="none" fill-rule="evenodd"/></svg>