<svg viewBox="0 0 2400 2400" fill="none" xmlns="http://www.w3.org/2000/svg"><path d="M630.000 303.853 L 446.000 306.000 414.898 321.199 C 372.974 341.687,342.148 372.239,321.857 413.412 C 307.722 442.092,306.123 448.701,303.467 489.412 C 299.672 547.583,299.672 1852.417,303.467 1910.588 C 306.115 1951.178,307.743 1957.942,321.620 1986.020 C 341.843 2026.938,373.089 2058.170,414.060 2078.419 C 442.639 2092.544,448.510 2093.919,491.492 2096.548 C 552.161 2100.260,1847.839 2100.260,1908.508 2096.548 C 1951.490 2093.919,1957.361 2092.544,1985.940 2078.419 C 2026.884 2058.184,2058.159 2026.934,2078.346 1986.089 C 2092.951 1956.536,2093.690 1953.063,2096.932 1898.657 C 2098.789 1867.496,2099.789 1530.600,2099.154 1150.000 L 2098.000 458.000 2088.375 434.000 C 2067.128 381.025,2034.163 345.655,1982.797 320.722 L 1950.000 304.803 1382.000 303.254 C 1069.600 302.402,731.200 302.671,630.000 303.853 M1440.000 509.760 C 1477.053 528.645,1497.697 560.922,1497.717 600.000 C 1497.737 638.380,1478.133 669.817,1442.000 689.351 C 1426.565 697.695,1421.554 698.000,1300.000 698.000 L 1174.000 698.000 1152.492 686.088 C 1138.026 678.076,1126.566 667.616,1117.492 654.141 C 1104.822 635.327,1104.000 632.053,1104.000 600.404 C 1104.000 569.481,1105.031 565.094,1116.495 547.229 C 1132.034 523.013,1158.210 506.944,1188.000 503.334 C 1200.100 501.867,1258.600 501.108,1318.000 501.646 C 1412.492 502.503,1427.751 503.517,1440.000 509.760 M1642.000 810.661 C 1684.640 833.682,1707.585 880.976,1696.352 922.692 C 1689.259 949.036,1667.941 976.526,1645.750 987.947 L 1626.216 998.000 1400.003 998.000 L 1173.789 998.000 1153.895 987.770 C 1140.290 980.774,1129.257 970.757,1119.000 956.087 C 1104.474 935.311,1104.000 933.540,1104.000 900.003 C 1104.000 867.847,1104.901 864.011,1116.604 846.343 C 1135.725 817.475,1153.693 807.489,1193.025 803.868 C 1211.161 802.199,1316.000 801.101,1426.000 801.428 C 1622.751 802.013,1626.260 802.163,1642.000 810.661 M1842.000 1110.649 C 1878.133 1130.183,1897.737 1161.620,1897.717 1200.000 C 1897.702 1229.893,1888.540 1251.193,1866.001 1273.732 C 1841.175 1298.558,1849.688 1298.000,1495.893 1298.000 L 1173.785 1298.000 1153.893 1287.770 C 1140.291 1280.775,1129.256 1270.755,1119.000 1256.087 C 1104.474 1235.311,1104.000 1233.540,1104.000 1200.003 C 1104.000 1167.847,1104.901 1164.011,1116.604 1146.343 C 1137.261 1115.156,1153.622 1106.928,1201.368 1103.715 C 1223.716 1102.211,1373.400 1101.210,1534.000 1101.490 C 1825.235 1101.999,1826.042 1102.023,1842.000 1110.649 " fill="#1D1E23" stroke="none" fill-rule="evenodd"/></svg>