<svg viewBox="0 0 2400 2400" fill="none" xmlns="http://www.w3.org/2000/svg"><path d="M1068.000 207.914 C 905.809 228.427,766.002 351.914,725.874 510.100 C 706.814 585.238,709.084 657.096,732.885 732.000 C 755.701 803.805,782.283 846.094,838.516 900.042 C 893.637 952.924,940.575 980.229,1014.398 1002.358 C 1047.088 1012.157,1055.561 1013.014,1118.000 1012.830 C 1197.635 1012.596,1226.463 1006.711,1285.907 978.552 C 1336.484 954.593,1368.106 932.499,1406.467 894.316 C 1457.994 843.029,1492.400 782.356,1513.106 706.264 C 1526.022 658.800,1525.830 560.524,1512.727 512.274 C 1480.818 394.771,1409.615 306.992,1300.754 250.955 C 1277.239 238.851,1249.000 226.136,1238.000 222.700 C 1197.164 209.945,1111.118 202.461,1068.000 207.914 M1178.570 417.946 C 1203.979 425.492,1243.189 450.743,1266.098 474.314 C 1305.312 514.662,1325.394 581.208,1316.213 640.382 C 1298.239 756.224,1181.649 834.913,1070.773 806.033 C 969.856 779.748,901.973 676.217,919.947 576.000 C 932.454 506.261,991.285 438.763,1058.000 417.609 C 1080.668 410.421,1153.920 410.626,1178.570 417.946 M649.339 1024.104 C 575.159 1031.915,484.670 1078.703,423.408 1140.924 C 375.542 1189.538,349.003 1233.083,325.235 1302.000 L 310.060 1346.000 310.030 1424.000 L 310.000 1502.000 325.549 1547.189 C 370.540 1677.947,467.990 1772.214,602.000 1814.611 C 636.349 1825.478,641.485 1825.998,714.000 1825.950 C 789.444 1825.900,790.275 1825.804,827.618 1812.819 C 1007.760 1750.180,1116.000 1604.242,1116.000 1424.000 C 1116.000 1245.439,1011.180 1100.712,836.749 1038.435 C 792.953 1022.798,716.943 1016.986,649.339 1024.104 M793.279 1240.953 C 883.119 1283.799,930.073 1380.931,905.868 1473.860 C 896.766 1508.805,881.228 1534.837,851.466 1565.001 C 808.278 1608.774,748.135 1632.191,694.454 1626.135 C 614.435 1617.109,543.170 1557.186,519.405 1478.946 C 512.741 1457.005,511.397 1443.841,512.647 1412.734 C 514.043 1377.969,515.753 1370.650,528.991 1342.774 C 552.919 1292.388,598.143 1250.419,648.589 1231.784 C 666.183 1225.284,678.200 1224.067,716.000 1224.955 C 759.795 1225.984,763.499 1226.751,793.279 1240.953 M1634.000 1388.406 C 1523.190 1403.124,1416.392 1469.982,1351.072 1565.525 C 1315.422 1617.670,1288.071 1694.830,1281.990 1760.417 C 1278.547 1797.544,1285.233 1853.345,1298.711 1899.978 C 1346.657 2065.863,1494.684 2184.562,1666.297 2194.737 C 1779.833 2201.468,1890.148 2158.292,1974.220 2074.220 C 2023.955 2024.485,2055.431 1973.026,2078.338 1904.000 C 2089.170 1871.360,2089.629 1866.799,2089.810 1790.000 L 2090.000 1710.000 2077.113 1673.110 C 2030.945 1540.948,1940.461 1448.332,1816.229 1406.078 C 1769.634 1390.230,1683.303 1381.858,1634.000 1388.406 M1724.000 1592.276 C 1815.609 1607.127,1888.202 1693.559,1887.902 1787.421 C 1887.781 1825.446,1883.111 1846.179,1867.648 1877.345 C 1805.080 2003.452,1646.756 2030.375,1547.627 1931.765 C 1514.826 1899.135,1496.851 1864.494,1490.751 1822.152 C 1476.605 1723.964,1530.781 1632.538,1622.000 1600.657 C 1660.005 1587.375,1682.412 1585.533,1724.000 1592.276 " fill="#1D1E23" stroke="none" fill-rule="evenodd"/></svg>