<svg viewBox="0 0 2400 2400" fill="none" xmlns="http://www.w3.org/2000/svg"><path d="M711.589 507.597 C 678.524 514.371,639.885 546.985,614.244 589.765 L 600.000 613.529 600.000 748.145 C 600.000 879.890,600.179 882.923,608.415 890.380 C 616.276 897.499,625.559 898.076,749.658 899.151 C 881.045 900.289,882.572 900.208,890.244 891.736 C 897.540 883.678,898.068 875.266,899.153 749.754 L 900.305 616.337 890.259 596.511 C 875.714 567.808,839.221 530.110,814.710 518.468 C 792.146 507.751,738.462 502.092,711.589 507.597 M1211.589 907.520 C 1178.367 914.504,1139.848 947.047,1114.244 989.765 L 1100.000 1013.529 1100.000 1096.000 C 1100.000 1159.041,1101.276 1180.216,1105.416 1185.878 C 1113.489 1196.918,1141.223 1199.381,1261.128 1199.708 C 1379.654 1200.031,1393.375 1197.852,1398.380 1177.909 C 1403.552 1157.305,1397.276 1023.493,1390.052 1000.333 C 1381.076 971.554,1347.718 936.214,1314.303 920.082 C 1288.051 907.408,1240.048 901.537,1211.589 907.520 M612.861 1011.139 C 605.788 1018.212,605.160 1029.633,602.667 1196.338 C 601.205 1294.052,600.008 1511.209,600.005 1678.908 L 600.000 1983.816 610.824 1990.908 C 620.618 1997.325,633.861 1998.000,750.000 1998.000 C 866.139 1998.000,879.382 1997.325,889.176 1990.908 L 900.000 1983.816 900.000 1656.563 C 900.000 1293.130,896.392 1019.110,891.503 1011.190 C 889.005 1007.144,858.781 1005.736,754.349 1004.801 C 627.583 1003.666,619.994 1004.006,612.861 1011.139 M1112.000 1307.799 C 1103.619 1313.249,1100.895 1412.128,1100.399 1728.908 L 1100.000 1983.816 1110.824 1990.908 C 1120.618 1997.325,1133.861 1998.000,1250.000 1998.000 C 1366.139 1998.000,1379.382 1997.325,1389.176 1990.908 L 1400.000 1983.816 1399.992 1760.908 C 1399.984 1511.431,1396.355 1319.050,1391.511 1311.203 C 1387.497 1304.700,1121.744 1301.464,1112.000 1307.799 M1713.775 1307.791 C 1691.017 1311.355,1664.200 1328.173,1641.852 1352.897 C 1614.900 1382.715,1604.160 1408.219,1601.262 1449.285 C 1597.825 1497.988,1596.237 1497.247,1708.552 1499.339 C 1819.052 1501.397,1885.814 1497.614,1894.633 1488.796 C 1903.526 1479.902,1899.736 1429.883,1887.752 1398.000 C 1874.884 1363.763,1834.835 1324.116,1804.000 1315.087 C 1778.225 1307.540,1736.781 1304.189,1713.775 1307.791 M1612.033 1607.895 C 1603.186 1613.488,1600.746 1660.465,1600.348 1832.908 L 1600.000 1983.816 1610.823 1990.908 C 1620.616 1997.325,1633.858 1998.000,1749.997 1998.000 C 1868.519 1998.000,1879.221 1997.429,1889.737 1990.539 L 1901.125 1983.079 1899.001 1802.539 C 1897.833 1703.243,1895.665 1619.052,1894.183 1615.449 C 1892.701 1611.846,1885.979 1607.796,1879.244 1606.449 C 1859.237 1602.447,1618.590 1603.750,1612.033 1607.895 " fill="#1D1E23" stroke="none" fill-rule="evenodd"/></svg>