<svg viewBox="0 0 2400 2400" fill="none" xmlns="http://www.w3.org/2000/svg"><path d="M1022.000 208.476 C 931.016 232.250,868.241 267.518,811.896 326.515 C 760.860 379.954,725.536 446.124,709.675 518.000 C 698.587 568.245,700.103 647.376,713.093 696.476 C 751.652 842.211,857.617 948.278,1003.177 986.834 C 1056.600 1000.985,1136.834 1001.835,1189.228 988.803 C 1265.937 969.725,1330.999 932.560,1384.301 877.373 C 1462.463 796.447,1497.551 709.102,1497.332 596.000 C 1497.225 540.574,1489.948 504.239,1467.895 449.021 C 1432.715 360.938,1362.580 286.581,1272.422 241.782 C 1216.698 214.093,1186.271 207.509,1106.000 205.769 C 1066.402 204.910,1031.317 206.041,1022.000 208.476 M1151.067 410.460 C 1202.208 423.747,1244.913 457.473,1274.471 507.916 L 1292.000 537.833 1292.000 600.000 L 1292.000 662.167 1274.337 692.341 C 1191.218 834.333,1008.822 834.401,925.738 692.470 L 908.000 662.167 908.000 600.000 L 908.000 537.833 925.663 507.659 C 954.748 457.972,1002.086 420.072,1052.419 406.175 C 1076.460 399.536,1115.559 401.235,1151.067 410.460 M622.000 1008.476 C 531.016 1032.250,468.241 1067.518,411.896 1126.515 C 360.860 1179.954,325.536 1246.124,309.675 1318.000 C 298.587 1368.245,300.103 1447.376,313.093 1496.476 C 351.652 1642.211,457.617 1748.278,603.177 1786.834 C 656.600 1800.985,736.834 1801.835,789.228 1788.803 C 865.937 1769.725,930.999 1732.560,984.301 1677.373 C 1062.463 1596.447,1097.551 1509.102,1097.332 1396.000 C 1097.225 1340.574,1089.948 1304.239,1067.895 1249.021 C 1032.715 1160.938,962.580 1086.581,872.422 1041.782 C 816.698 1014.093,786.271 1007.509,706.000 1005.769 C 666.402 1004.910,631.317 1006.041,622.000 1008.476 M751.067 1210.460 C 802.208 1223.747,844.913 1257.473,874.471 1307.916 L 892.000 1337.833 892.000 1400.000 L 892.000 1462.167 874.410 1492.084 C 840.057 1550.511,789.951 1586.587,729.000 1596.779 C 650.840 1609.849,570.206 1568.433,525.663 1492.341 L 508.000 1462.167 508.000 1400.000 L 508.000 1337.833 525.663 1307.659 C 554.748 1257.972,602.086 1220.072,652.419 1206.175 C 676.460 1199.536,715.559 1201.235,751.067 1210.460 M1582.000 1368.476 C 1491.016 1392.250,1428.241 1427.518,1371.896 1486.515 C 1320.860 1539.954,1285.536 1606.124,1269.675 1678.000 C 1258.587 1728.245,1260.103 1807.376,1273.093 1856.476 C 1311.652 2002.211,1417.617 2108.278,1563.177 2146.834 C 1616.600 2160.985,1696.834 2161.835,1749.228 2148.803 C 1825.937 2129.725,1890.999 2092.560,1944.301 2037.373 C 2022.463 1956.447,2057.551 1869.102,2057.332 1756.000 C 2057.225 1700.574,2049.948 1664.239,2027.895 1609.021 C 1992.715 1520.938,1922.580 1446.581,1832.422 1401.782 C 1776.698 1374.093,1746.271 1367.509,1666.000 1365.769 C 1626.402 1364.910,1591.317 1366.041,1582.000 1368.476 M1711.067 1570.460 C 1762.208 1583.747,1804.913 1617.473,1834.471 1667.916 L 1852.000 1697.833 1852.000 1760.000 L 1852.000 1822.167 1834.410 1852.084 C 1800.057 1910.511,1749.951 1946.587,1689.000 1956.779 C 1610.840 1969.849,1530.206 1928.433,1485.663 1852.341 L 1468.000 1822.167 1468.000 1760.000 L 1468.000 1697.833 1485.663 1667.659 C 1514.748 1617.972,1562.086 1580.072,1612.419 1566.175 C 1636.460 1559.536,1675.559 1561.235,1711.067 1570.460 " fill="#1D1E23" stroke="none" fill-rule="evenodd"/></svg>