<svg viewBox="0 0 2400 2400" fill="none" xmlns="http://www.w3.org/2000/svg"><path d="M1052.625 212.026 C 984.366 221.632,903.053 261.916,843.174 315.792 C 793.302 360.664,747.526 435.768,727.242 506.000 C 719.113 534.145,718.000 546.674,718.000 610.000 C 718.000 688.804,722.369 712.406,748.186 773.075 C 783.722 856.584,859.948 933.317,950.484 976.717 C 1015.564 1007.915,1043.562 1013.291,1129.741 1011.140 C 1198.188 1009.432,1204.005 1008.657,1240.000 996.445 C 1375.766 950.384,1474.838 845.062,1510.880 708.476 C 1519.478 675.890,1521.048 661.121,1521.131 612.000 C 1521.276 526.160,1505.703 468.932,1463.570 400.468 C 1412.566 317.589,1299.387 235.458,1212.000 217.910 C 1174.991 210.479,1086.767 207.222,1052.625 212.026 M1190.799 423.802 C 1218.018 436.160,1254.307 462.581,1269.257 480.926 C 1276.910 490.317,1289.658 509.849,1297.586 524.332 L 1312.000 550.664 1312.000 608.034 L 1312.000 665.403 1297.310 695.134 C 1270.836 748.712,1219.178 790.939,1161.834 805.875 C 1075.283 828.419,983.121 781.950,939.404 693.725 L 922.000 658.603 922.000 610.302 C 922.000 563.059,922.317 561.337,936.458 531.725 C 959.082 484.352,1002.296 441.487,1045.843 423.223 C 1070.511 412.877,1167.589 413.265,1190.799 423.802 M628.301 1028.113 C 561.189 1042.176,487.579 1082.125,431.768 1134.774 C 379.560 1184.025,347.901 1235.367,322.176 1312.507 C 308.095 1354.727,308.000 1355.485,308.000 1425.188 C 308.000 1493.290,308.364 1496.406,320.340 1530.681 C 347.890 1609.534,377.541 1658.194,429.703 1710.160 C 469.460 1749.766,509.898 1777.106,559.932 1798.208 C 617.591 1822.526,634.481 1825.540,714.000 1825.706 C 785.129 1825.855,786.455 1825.698,823.618 1812.798 C 990.487 1754.869,1100.071 1623.575,1111.812 1467.509 C 1118.517 1378.381,1106.548 1308.836,1073.000 1242.000 C 1053.277 1202.706,1038.768 1182.413,1006.260 1148.650 C 970.188 1111.186,935.428 1085.485,889.520 1062.335 C 832.548 1033.605,802.895 1027.275,718.000 1025.722 C 678.400 1024.997,638.035 1026.073,628.301 1028.113 M790.000 1241.654 C 873.592 1280.852,921.301 1366.516,908.115 1453.735 C 902.255 1492.493,884.296 1527.296,853.079 1560.388 C 808.438 1607.709,739.900 1634.429,688.000 1624.744 C 614.782 1611.081,556.410 1564.363,527.141 1496.000 C 515.182 1468.067,514.307 1462.908,514.437 1421.116 C 514.576 1376.648,514.731 1375.922,531.179 1342.729 C 544.204 1316.442,554.067 1303.278,576.970 1281.613 C 627.189 1234.107,653.859 1224.510,728.000 1227.262 C 756.484 1228.320,766.543 1230.655,790.000 1241.654 M1615.029 1392.135 C 1542.252 1404.387,1454.300 1452.922,1395.191 1513.450 C 1345.728 1564.101,1305.069 1641.500,1289.841 1714.000 C 1263.323 1840.250,1310.216 1983.947,1408.683 2078.170 C 1459.929 2127.208,1506.887 2155.390,1576.000 2178.588 C 1608.884 2189.625,1612.627 2190.000,1690.000 2189.991 C 1767.450 2189.983,1771.014 2189.625,1801.809 2178.748 C 1870.408 2154.519,1916.609 2126.255,1968.805 2076.584 C 2013.557 2033.996,2045.840 1986.203,2067.809 1930.015 C 2086.855 1881.300,2091.815 1848.111,2091.929 1768.590 C 2091.993 1724.336,2090.762 1715.486,2080.139 1683.778 C 2038.709 1560.116,1955.779 1465.739,1848.174 1419.792 C 1801.748 1399.969,1783.344 1396.008,1718.062 1391.792 C 1654.006 1387.655,1641.390 1387.697,1615.029 1392.135 M1744.000 1598.589 C 1785.858 1610.274,1832.652 1646.497,1856.920 1686.000 C 1876.755 1718.287,1885.039 1747.494,1885.284 1786.000 C 1885.670 1846.695,1869.890 1885.843,1826.962 1930.689 C 1810.608 1947.774,1794.500 1959.674,1774.664 1969.325 C 1727.671 1992.190,1689.515 1997.093,1645.840 1985.878 C 1585.064 1970.272,1538.662 1932.743,1510.938 1876.772 L 1494.000 1842.577 1494.000 1789.980 L 1494.000 1737.383 1510.848 1703.389 C 1532.969 1658.757,1558.186 1633.231,1601.060 1612.072 C 1619.177 1603.131,1642.100 1594.174,1652.000 1592.167 C 1674.331 1587.642,1714.941 1590.476,1744.000 1598.589 " fill="#1D1E23" stroke="none" fill-rule="evenodd"/></svg>