<svg viewBox="0 0 2400 2400" fill="none" xmlns="http://www.w3.org/2000/svg"><path d="M714.984 504.088 C 672.178 514.902,634.258 546.547,614.434 588.000 L 602.000 614.000 600.803 748.803 C 599.637 880.171,599.815 883.815,607.803 891.803 C 615.739 899.739,620.261 900.000,750.000 900.000 C 879.739 900.000,884.261 899.739,892.197 891.803 C 900.185 883.815,900.363 880.171,899.197 748.803 L 898.000 614.000 886.715 589.582 C 872.512 558.850,841.401 527.762,810.960 513.882 C 785.230 502.150,740.660 497.602,714.984 504.088 M1214.984 904.088 C 1172.178 914.902,1134.258 946.547,1114.434 988.000 L 1102.000 1014.000 1100.718 1098.718 C 1099.489 1179.956,1099.777 1183.777,1107.718 1191.718 C 1115.764 1199.764,1119.815 1200.000,1250.000 1200.000 C 1380.185 1200.000,1384.236 1199.764,1392.282 1191.718 C 1400.223 1183.777,1400.511 1179.956,1399.282 1098.718 C 1398.023 1015.492,1397.801 1013.570,1386.715 989.582 C 1372.512 958.850,1341.401 927.762,1310.960 913.882 C 1285.230 902.150,1240.660 897.602,1214.984 904.088 M608.000 1008.000 C 600.088 1015.912,600.000 1021.333,600.000 1500.000 C 600.000 1978.667,600.088 1984.088,608.000 1992.000 C 615.682 1999.682,621.333 2000.000,750.000 2000.000 C 878.667 2000.000,884.318 1999.682,892.000 1992.000 C 899.912 1984.088,900.000 1978.667,900.000 1500.000 C 900.000 1021.333,899.912 1015.912,892.000 1008.000 C 884.318 1000.318,878.667 1000.000,750.000 1000.000 C 621.333 1000.000,615.682 1000.318,608.000 1008.000 M1108.000 1308.000 C 1100.128 1315.872,1100.000 1321.333,1100.000 1650.000 C 1100.000 1978.667,1100.128 1984.128,1108.000 1992.000 C 1115.682 1999.682,1121.333 2000.000,1250.000 2000.000 C 1378.667 2000.000,1384.318 1999.682,1392.000 1992.000 C 1399.872 1984.128,1400.000 1978.667,1400.000 1650.000 C 1400.000 1321.333,1399.872 1315.872,1392.000 1308.000 C 1384.318 1300.318,1378.667 1300.000,1250.000 1300.000 C 1121.333 1300.000,1115.682 1300.318,1108.000 1308.000 M1714.984 1304.088 C 1672.116 1314.917,1634.108 1346.669,1614.621 1387.931 C 1604.619 1409.110,1602.066 1420.313,1600.692 1449.068 C 1598.066 1503.980,1586.398 1500.000,1750.000 1500.000 C 1913.608 1500.000,1901.970 1503.966,1899.247 1449.137 C 1897.010 1404.103,1883.990 1373.588,1854.715 1344.776 C 1827.166 1317.662,1796.306 1303.823,1758.960 1301.836 C 1743.032 1300.989,1723.243 1302.002,1714.984 1304.088 M1608.000 1608.000 C 1600.232 1615.768,1600.000 1621.333,1600.000 1800.000 C 1600.000 1978.667,1600.232 1984.232,1608.000 1992.000 C 1615.682 1999.682,1621.333 2000.000,1750.000 2000.000 C 1878.667 2000.000,1884.318 1999.682,1892.000 1992.000 C 1899.768 1984.232,1900.000 1978.667,1900.000 1800.000 C 1900.000 1621.333,1899.768 1615.768,1892.000 1608.000 C 1884.318 1600.318,1878.667 1600.000,1750.000 1600.000 C 1621.333 1600.000,1615.682 1600.318,1608.000 1608.000 " fill="#1D1E23" stroke="none" fill-rule="evenodd"/></svg>