<svg viewBox="0 0 2400 2400" fill="none" xmlns="http://www.w3.org/2000/svg"><path d="M274.848 207.856 C 254.269 211.841,228.693 230.863,213.000 253.856 L 200.000 272.904 200.004 981.452 C 200.006 1371.153,201.204 1791.509,202.666 1915.575 L 205.323 2141.150 226.267 2162.093 C 252.810 2188.636,275.569 2197.876,307.315 2194.997 C 343.011 2191.760,378.793 2169.606,388.700 2144.608 C 395.753 2126.812,399.516 1796.146,399.496 1196.000 C 399.475 591.059,395.710 284.317,387.988 258.509 C 385.439 249.989,379.175 239.146,374.069 234.414 C 351.023 213.056,307.778 201.481,274.848 207.856 M705.334 607.533 C 664.003 609.816,659.378 610.908,643.372 622.164 C 624.125 635.699,600.000 676.708,600.000 695.890 C 600.000 715.084,612.627 747.293,626.511 763.513 C 646.311 786.645,663.870 791.888,735.628 796.094 C 812.171 800.580,1506.370 800.750,1636.000 796.314 C 1739.830 792.761,1750.436 790.481,1769.819 767.544 C 1799.741 732.138,1804.435 686.152,1781.837 649.808 C 1767.298 626.424,1754.136 616.303,1731.433 611.051 C 1712.028 606.561,780.731 603.368,705.334 607.533 M658.621 1113.796 C 638.954 1120.857,627.666 1131.600,614.506 1155.780 C 598.528 1185.137,596.951 1206.640,608.875 1232.579 C 621.638 1260.345,638.188 1279.651,655.387 1286.837 C 676.820 1295.793,886.511 1299.680,1352.000 1299.750 C 1770.192 1299.814,2109.702 1294.863,2137.447 1288.297 C 2157.222 1283.616,2174.513 1267.287,2186.467 1242.000 C 2207.827 1196.817,2191.096 1139.291,2150.000 1116.620 C 2138.973 1110.537,2078.637 1109.930,1406.000 1109.137 C 791.999 1108.414,671.521 1109.165,658.621 1113.796 M1078.000 1607.587 C 1054.738 1610.448,1034.517 1624.167,1017.619 1648.550 C 1004.390 1667.639,1000.224 1703.122,1007.875 1731.535 C 1014.381 1755.696,1044.154 1785.102,1068.111 1791.028 C 1092.898 1797.159,1576.151 1801.233,1774.000 1796.979 C 1924.224 1793.748,1930.631 1793.294,1947.054 1784.703 C 1967.589 1773.962,1985.983 1749.749,1993.925 1723.006 C 2001.445 1697.683,1996.257 1671.213,1978.655 1645.090 C 1958.609 1615.343,1949.446 1611.912,1879.094 1607.818 C 1811.471 1603.882,1109.761 1603.680,1078.000 1607.587 " fill="#1D1E23" stroke="none" fill-rule="evenodd"/></svg>