<svg viewBox="0 0 2400 2400" fill="none" xmlns="http://www.w3.org/2000/svg"><path d="M1159.974 507.481 C 1124.859 519.061,1094.494 545.427,1073.712 582.384 L 1060.000 606.769 1060.000 1244.764 L 1060.000 1882.760 1068.420 1890.380 C 1076.316 1897.526,1084.501 1898.000,1200.000 1898.000 C 1315.499 1898.000,1323.684 1897.526,1331.580 1890.380 L 1340.000 1882.760 1340.000 1244.764 L 1340.000 606.769 1326.184 582.063 C 1309.814 552.792,1282.557 526.450,1256.885 515.095 C 1236.700 506.166,1177.956 501.551,1159.974 507.481 M602.000 928.693 C 567.691 941.744,532.221 974.668,512.396 1011.862 L 500.000 1035.120 500.000 1458.940 L 500.000 1882.760 508.420 1890.380 C 516.345 1897.552,524.667 1898.000,650.000 1898.000 C 775.333 1898.000,783.655 1897.552,791.580 1890.380 L 800.000 1882.760 800.000 1458.940 L 800.000 1035.120 787.024 1010.774 C 770.939 980.596,742.045 951.220,714.750 937.296 C 697.216 928.351,687.801 926.511,654.000 925.419 C 630.429 924.658,609.071 926.003,602.000 928.693 M1719.974 1307.481 C 1684.859 1319.061,1654.494 1345.427,1633.712 1382.384 L 1620.000 1406.769 1620.000 1644.764 C 1620.000 1881.637,1620.040 1882.796,1628.420 1890.380 C 1636.316 1897.526,1644.501 1898.000,1760.000 1898.000 C 1875.499 1898.000,1883.684 1897.526,1891.580 1890.380 C 1899.960 1882.796,1900.000 1881.637,1900.000 1644.764 L 1900.000 1406.769 1886.184 1382.063 C 1869.814 1352.792,1842.557 1326.450,1816.885 1315.095 C 1796.700 1306.166,1737.956 1301.551,1719.974 1307.481 " fill="#1D1E23" stroke="none" fill-rule="evenodd"/></svg>