<svg viewBox="0 0 2400 2400" fill="none" xmlns="http://www.w3.org/2000/svg"><path d="M717.038 508.509 C 681.072 512.984,644.740 541.676,613.805 590.036 L 600.000 611.616 600.000 741.547 C 600.000 813.010,601.662 875.851,603.694 881.194 C 605.725 886.537,610.675 892.390,614.694 894.201 C 618.712 896.012,679.600 898.187,750.000 899.035 C 856.349 900.316,879.293 899.612,885.642 894.873 C 897.092 886.326,899.387 859.357,899.670 730.000 L 899.925 614.000 887.426 592.203 C 871.972 565.252,838.923 531.694,816.636 520.325 C 797.211 510.414,748.333 504.616,717.038 508.509 M1212.558 908.305 C 1178.777 914.945,1142.703 944.860,1113.585 990.378 L 1099.562 1012.301 1100.781 1097.959 C 1101.573 1153.620,1103.549 1185.163,1106.422 1188.031 C 1114.623 1196.216,1161.510 1199.840,1258.000 1199.745 C 1360.620 1199.645,1386.467 1196.978,1394.763 1185.633 C 1401.082 1176.991,1401.717 1101.775,1395.969 1042.674 C 1393.028 1012.434,1389.651 998.766,1381.353 983.520 C 1359.556 943.473,1318.683 916.106,1269.234 908.453 C 1237.219 903.497,1237.019 903.497,1212.558 908.305 M620.053 1008.815 C 613.272 1012.474,609.081 1019.247,606.886 1030.092 C 605.115 1038.841,602.610 1256.857,601.320 1514.572 L 598.974 1983.143 610.311 1990.572 C 620.762 1997.420,631.677 1998.000,750.000 1998.000 C 866.139 1998.000,879.382 1997.325,889.176 1990.908 L 900.000 1983.816 899.657 1604.908 C 899.278 1186.857,896.383 1018.783,889.443 1011.843 C 882.300 1004.700,632.872 1001.896,620.053 1008.815 M1122.063 1307.185 C 1112.137 1309.573,1109.570 1312.747,1106.821 1326.028 C 1105.003 1334.813,1102.516 1486.272,1101.295 1662.605 L 1099.076 1983.210 1110.362 1990.605 C 1120.748 1997.410,1131.885 1998.000,1250.000 1998.000 C 1368.298 1998.000,1379.239 1997.418,1389.683 1990.576 L 1401.014 1983.151 1398.736 1658.576 C 1397.482 1480.059,1395.268 1329.171,1393.814 1323.269 C 1392.360 1317.367,1388.431 1311.487,1385.084 1310.202 C 1375.838 1306.654,1135.718 1303.900,1122.063 1307.185 M1688.000 1316.539 C 1664.557 1328.322,1627.651 1365.932,1616.084 1389.826 C 1605.693 1411.291,1597.335 1460.836,1601.383 1476.966 C 1606.215 1496.219,1614.070 1497.624,1726.000 1499.252 C 1838.919 1500.894,1886.446 1497.007,1894.906 1485.438 C 1907.049 1468.830,1895.305 1405.494,1874.151 1373.514 C 1858.566 1349.952,1832.363 1327.160,1809.692 1317.446 C 1799.295 1312.992,1779.154 1310.178,1750.000 1309.107 C 1710.404 1307.653,1704.198 1308.396,1688.000 1316.539 M1629.429 1606.826 C 1610.999 1608.226,1608.567 1609.513,1606.057 1619.194 C 1604.516 1625.137,1602.340 1709.489,1601.222 1806.642 L 1599.188 1983.283 1610.417 1990.642 C 1620.731 1997.400,1632.113 1998.000,1749.998 1998.000 C 1868.676 1998.000,1879.211 1997.436,1889.776 1990.514 L 1901.203 1983.028 1899.012 1801.067 C 1897.070 1639.775,1896.077 1618.362,1890.274 1612.553 C 1884.525 1606.799,1869.479 1605.955,1766.863 1605.632 C 1702.589 1605.429,1640.743 1605.967,1629.429 1606.826 " fill="#1D1E23" stroke="none" fill-rule="evenodd"/></svg>