<svg viewBox="0 0 2400 2400" fill="none" xmlns="http://www.w3.org/2000/svg"><path d="M1900 300H500C390 300 300 390 300 500V1900C300 2010 390 2100 500 2100H1900C2010 2100 2100 2010 2100 1900V500C2100 390 2010 300 1900 300Z" fill="#1D1E23"/><path width="4" fill="white" d="M1200 500H1400A100 100 0 0 1 1500 600V600A100 100 0 0 1 1400 700H1200A100 100 0 0 1 1100 600V600A100 100 0 0 1 1200 500z"/><path width="6" fill="white" d="M1200 800H1600A100 100 0 0 1 1700 900V900A100 100 0 0 1 1600 1000H1200A100 100 0 0 1 1100 900V900A100 100 0 0 1 1200 800z"/><path width="8" fill="white" d="M1200 1100H1800A100 100 0 0 1 1900 1200V1200A100 100 0 0 1 1800 1300H1200A100 100 0 0 1 1100 1200V1200A100 100 0 0 1 1200 1100z"/><path width="4" fill="white" d="M100 0H300A100 100 0 0 1 400 100V100A100 100 0 0 1 300 200H100A100 100 0 0 1 0 100V100A100 100 0 0 1 100 0z"/><path width="6" fill="white" d="M100 0H500A100 100 0 0 1 600 100V100A100 100 0 0 1 500 200H100A100 100 0 0 1 0 100V100A100 100 0 0 1 100 0z"/></svg>