<svg viewBox="0 0 2400 2400" fill="none" xmlns="http://www.w3.org/2000/svg"><path d="M1163.717 505.215 C 1122.266 516.968,1091.228 543.685,1072.404 583.817 L 1062.000 606.000 1060.952 1244.952 C 1059.909 1880.545,1059.946 1883.946,1067.952 1891.952 C 1075.670 1899.670,1081.086 1900.000,1200.000 1900.000 C 1318.914 1900.000,1324.330 1899.670,1332.048 1891.952 C 1340.054 1883.946,1340.091 1880.545,1339.048 1244.952 L 1338.000 606.000 1327.459 583.520 C 1304.685 534.949,1261.900 505.257,1209.775 501.848 C 1193.403 500.777,1174.494 502.160,1163.717 505.215 M614.984 924.088 C 572.178 934.902,534.258 966.547,514.434 1008.000 L 502.000 1034.000 500.929 1458.929 C 499.867 1880.488,499.922 1883.922,507.929 1891.929 C 515.702 1899.702,520.941 1900.000,650.000 1900.000 C 779.059 1900.000,784.298 1899.702,792.071 1891.929 C 800.078 1883.922,800.133 1880.488,799.071 1458.929 L 798.000 1034.000 786.715 1009.582 C 772.512 978.850,741.401 947.762,710.960 933.882 C 685.230 922.150,640.660 917.602,614.984 924.088 M1723.717 1305.215 C 1682.266 1316.968,1651.228 1343.685,1632.404 1383.817 L 1622.000 1406.000 1620.880 1644.880 C 1619.775 1880.363,1619.875 1883.875,1627.880 1891.880 C 1635.691 1899.691,1640.721 1900.000,1760.000 1900.000 C 1879.279 1900.000,1884.309 1899.691,1892.120 1891.880 C 1900.125 1883.875,1900.225 1880.363,1899.120 1644.880 L 1898.000 1406.000 1887.459 1383.520 C 1864.685 1334.949,1821.900 1305.257,1769.775 1301.848 C 1753.403 1300.777,1734.494 1302.160,1723.717 1305.215 " fill="#1D1E23" stroke="none" fill-rule="evenodd"/></svg>