<svg viewBox="0 0 2400 2400" fill="none" xmlns="http://www.w3.org/2000/svg"><path d="M1314.935 209.637 C 1306.637 217.934,1304.020 343.643,1304.009 734.403 C 1304.003 962.256,1305.360 1070.706,1308.323 1079.206 C 1312.071 1089.959,1315.127 1091.992,1331.323 1094.505 C 1357.696 1098.597,2106.542 1098.716,2149.080 1094.634 C 2194.031 1090.321,2197.815 1086.932,2194.441 1054.004 C 2186.566 977.136,2127.733 801.203,2082.749 720.000 C 2062.064 682.661,2019.954 620.151,1992.676 586.291 C 1887.839 456.163,1777.791 368.101,1629.414 295.607 C 1546.421 255.058,1461.141 228.068,1358.000 209.707 C 1319.068 202.777,1321.790 202.781,1314.935 209.637 M1017.728 212.330 C 984.403 217.910,875.187 250.495,837.317 266.154 C 757.572 299.131,661.999 352.598,601.264 398.212 C 564.320 425.957,505.041 481.560,452.568 537.684 C 344.636 653.127,255.835 833.064,217.500 1014.000 C 209.071 1053.787,206.970 1076.715,205.220 1148.000 C 202.123 1274.235,208.205 1356.935,225.527 1424.092 C 277.047 1623.834,360.734 1773.331,497.702 1910.298 C 629.679 2042.275,774.598 2125.454,957.657 2174.298 C 992.666 2183.639,1023.443 2189.075,1050.593 2190.712 L 1091.185 2193.159 1094.593 2157.580 C 1098.677 2114.926,1098.455 254.273,1094.361 227.000 L 1091.510 208.000 1064.755 208.468 C 1050.040 208.725,1028.877 210.463,1017.728 212.330 M1312.000 1311.915 C 1306.729 1315.246,1306.000 1366.631,1306.000 1734.854 C 1306.000 1965.384,1307.460 2162.550,1309.245 2173.000 L 1312.490 2192.000 1336.617 2192.000 C 1372.901 2192.000,1433.827 2178.153,1513.760 2151.738 C 1667.367 2100.978,1791.440 2024.349,1908.294 1908.067 C 2044.630 1772.399,2127.584 1623.496,2177.520 1424.803 C 2194.850 1355.850,2199.707 1316.801,2191.593 1311.664 C 2183.862 1306.769,1319.752 1307.015,1312.000 1311.915 " fill="#1D1E23" stroke="none" fill-rule="evenodd"/></svg>