<svg viewBox="0 0 2400 2400" fill="none" xmlns="http://www.w3.org/2000/svg"><path d="M720 1760C896.731 1760 1040 1616.73 1040 1440 1040 1263.26 896.731 1120 720 1120 543.269 1120 400 1263.26 400 1440 400 1616.73 543.269 1760 720 1760ZM1480 2000C1590.46 2000 1680 1910.46 1680 1800 1680 1689.54 1590.46 1600 1480 1600 1369.55 1600 1280 1689.54 1280 1800 1280 1910.46 1369.55 2000 1480 2000ZM1519.99 1360C1785.09 1360 1999.99 1145.1 1999.99 880 1999.99 614.903 1785.09 400 1519.99 400 1254.89 400 1039.99 614.903 1039.99 880 1039.99 1145.1 1254.89 1360 1519.99 1360Z" fill="#1D1E23"/></svg>