<svg viewBox="0 0 2400 2400" fill="none" xmlns="http://www.w3.org/2000/svg"><path d="M1170.000 506.725 C 1132.245 515.204,1104.712 535.819,1078.517 575.222 L 1060.000 603.076 1060.000 1243.446 L 1060.000 1883.816 1070.824 1890.908 C 1080.570 1897.294,1093.434 1898.000,1200.000 1898.000 C 1306.566 1898.000,1319.430 1897.294,1329.176 1890.908 L 1340.000 1883.816 1340.000 1245.748 L 1340.000 607.681 1331.500 591.019 C 1320.449 569.359,1282.073 529.236,1263.176 519.587 C 1242.053 508.801,1191.704 501.850,1170.000 506.725 M617.038 928.509 C 581.072 932.984,544.740 961.676,513.805 1010.036 L 500.000 1031.616 500.000 1457.716 L 500.000 1883.816 510.824 1890.908 C 520.618 1897.325,533.861 1898.000,650.000 1898.000 C 766.139 1898.000,779.382 1897.325,789.176 1890.908 L 800.000 1883.816 799.962 1458.908 L 799.925 1034.000 787.426 1012.203 C 771.972 985.252,738.923 951.694,716.636 940.325 C 697.211 930.414,648.333 924.616,617.038 928.509 M1730.000 1306.725 C 1692.184 1315.217,1664.710 1335.823,1638.367 1375.448 L 1619.699 1403.528 1620.850 1641.656 L 1622.000 1879.783 1631.095 1888.876 C 1640.150 1897.928,1640.726 1897.968,1760.000 1897.968 C 1879.274 1897.968,1879.850 1897.928,1888.905 1888.876 L 1898.000 1879.783 1899.151 1644.028 C 1900.297 1409.135,1900.270 1408.210,1891.650 1391.315 C 1880.471 1369.401,1842.180 1329.291,1823.176 1319.587 C 1802.053 1308.801,1751.704 1301.850,1730.000 1306.725 " fill="#1D1E23" stroke="none" fill-rule="evenodd"/></svg>