<svg viewBox="0 0 2400 2400" fill="none" xmlns="http://www.w3.org/2000/svg"><path d="M1406 994L1249.84 922.744C1230.35 913.848 1230.35 886.152 1249.84 877.256L1406 806L1477.26 649.843C1486.15 630.348 1513.85 630.348 1522.74 649.843L1594 806L1750.16 877.256C1769.65 886.152 1769.65 913.848 1750.16 922.744L1594 994L1522.74 1150.16C1513.85 1169.65 1486.15 1169.65 1477.26 1150.16L1406 994ZM377.256 1350.16C386.152 1369.65 413.848 1369.65 422.744 1350.16L494 1194L650.157 1122.74C669.652 1113.85 669.652 1086.15 650.157 1077.26L494 1006L422.744 849.843C413.848 830.348 386.152 830.348 377.256 849.843L306 1006L149.843 1077.26C130.348 1086.15 130.348 1113.85 149.843 1122.74L306 1194L377.256 1350.16ZM827.221 849.636C836.085 869.233 863.915 869.233 872.779 849.636L959 659L1149.64 572.779C1169.23 563.915 1169.23 536.085 1149.64 527.221L959 441L872.779 250.364C863.915 230.767 836.085 230.767 827.221 250.364L741 441L550.364 527.221C530.767 536.085 530.767 563.915 550.364 572.779L741 659L827.221 849.636ZM374.944 1974.94C416.386 2016.39 483.586 2016.36 524.994 1974.88L1050 1449L1375.02 1774.02C1415.7 1814.7 1482.23 1812.75 1520.46 1769.75L2237.62 963.154C2272.65 923.761 2270.89 863.894 2233.62 826.622C2193.13 786.133 2126.92 788.066 2088.86 830.848L1450 1549L1120.76 1219.76C1081.69 1180.69 1018.33 1180.71 979.289 1219.8L374.894 1825.01C333.523 1866.43 333.545 1933.55 374.944 1974.94Z" fill="#1D1E23"/></svg>