<svg viewBox="0 0 2400 2400" fill="none" xmlns="http://www.w3.org/2000/svg"><path d="M1054.000 202.416 C 884.744 227.496,757.645 337.837,713.184 498.294 C 703.362 533.740,702.182 544.651,702.182 600.000 C 702.182 655.127,703.383 666.333,713.020 701.089 C 752.609 843.874,856.126 947.391,998.911 986.980 C 1033.667 996.617,1044.873 997.818,1100.000 997.818 C 1155.349 997.818,1166.260 996.638,1201.706 986.816 C 1325.614 952.482,1425.213 864.324,1471.512 748.000 C 1540.036 575.840,1478.958 374.514,1326.871 271.233 C 1291.681 247.336,1234.311 221.411,1195.826 212.015 C 1162.970 203.992,1080.862 198.435,1054.000 202.416 M1166.174 412.372 C 1224.845 434.235,1265.108 474.388,1288.135 534.000 C 1295.716 553.628,1297.405 565.651,1297.405 600.000 C 1297.405 634.349,1295.716 646.372,1288.135 666.000 C 1268.358 717.198,1231.511 758.402,1186.562 779.584 C 1077.653 830.908,956.161 780.672,911.865 666.000 C 898.535 631.489,898.562 568.375,911.923 534.000 C 929.004 490.053,953.929 458.066,989.285 434.722 C 1008.937 421.747,1046.198 406.455,1068.000 402.417 C 1090.086 398.327,1142.837 403.676,1166.174 412.372 M654.000 1002.416 C 484.744 1027.496,357.645 1137.837,313.184 1298.294 C 303.362 1333.740,302.182 1344.651,302.182 1400.000 C 302.182 1455.127,303.383 1466.333,313.020 1501.089 C 352.609 1643.874,456.126 1747.391,598.911 1786.980 C 633.667 1796.617,644.873 1797.818,700.000 1797.818 C 755.349 1797.818,766.260 1796.638,801.706 1786.816 C 925.614 1752.482,1025.213 1664.324,1071.512 1548.000 C 1140.036 1375.840,1078.958 1174.514,926.871 1071.233 C 891.681 1047.336,834.311 1021.411,795.826 1012.015 C 762.970 1003.992,680.862 998.435,654.000 1002.416 M766.174 1212.372 C 824.845 1234.235,865.108 1274.388,888.135 1334.000 C 895.716 1353.628,897.405 1365.651,897.405 1400.000 C 897.405 1434.349,895.716 1446.372,888.135 1466.000 C 843.839 1580.672,722.347 1630.908,613.438 1579.584 C 568.489 1558.402,531.642 1517.198,511.865 1466.000 C 498.535 1431.489,498.562 1368.375,511.923 1334.000 C 529.004 1290.053,553.929 1258.066,589.285 1234.722 C 608.937 1221.747,646.198 1206.455,668.000 1202.417 C 690.086 1198.327,742.837 1203.676,766.174 1212.372 M1614.000 1362.416 C 1444.744 1387.496,1317.645 1497.837,1273.184 1658.294 C 1263.362 1693.740,1262.182 1704.651,1262.182 1760.000 C 1262.182 1815.127,1263.383 1826.333,1273.020 1861.089 C 1312.609 2003.874,1416.126 2107.391,1558.911 2146.980 C 1593.667 2156.617,1604.873 2157.818,1660.000 2157.818 C 1715.349 2157.818,1726.260 2156.638,1761.706 2146.816 C 1885.614 2112.482,1985.213 2024.324,2031.512 1908.000 C 2100.036 1735.840,2038.958 1534.514,1886.871 1431.233 C 1851.681 1407.336,1794.311 1381.411,1755.826 1372.015 C 1722.970 1363.992,1640.862 1358.435,1614.000 1362.416 M1726.174 1572.372 C 1784.845 1594.235,1825.108 1634.388,1848.135 1694.000 C 1855.716 1713.628,1857.405 1725.651,1857.405 1760.000 C 1857.405 1794.349,1855.716 1806.372,1848.135 1826.000 C 1803.839 1940.672,1682.347 1990.908,1573.438 1939.584 C 1528.489 1918.402,1491.642 1877.198,1471.865 1826.000 C 1458.535 1791.489,1458.562 1728.375,1471.923 1694.000 C 1489.004 1650.053,1513.929 1618.066,1549.285 1594.722 C 1568.937 1581.747,1606.198 1566.455,1628.000 1562.417 C 1650.086 1558.327,1702.837 1563.676,1726.174 1572.372 " fill="#1D1E23" stroke="none" fill-rule="evenodd"/></svg>