<svg viewBox="0 0 2400 2400" fill="none" xmlns="http://www.w3.org/2000/svg"><path d="M500 1070C500 987.157 567.157 920 650 920C732.843 920 800 987.157 800 1070V1875C800 1888.81 788.807 1900 775 1900H525C511.193 1900 500 1888.81 500 1875V1070ZM1060 640C1060 562.68 1122.68 500 1200 500C1277.32 500 1340 562.68 1340 640V1875C1340 1888.81 1328.81 1900 1315 1900H1085C1071.19 1900 1060 1888.81 1060 1875V640ZM1620 1440C1620 1362.68 1682.68 1300 1760 1300C1837.32 1300 1900 1362.68 1900 1440V1875C1900 1888.81 1888.81 1900 1875 1900H1645C1631.19 1900 1620 1888.81 1620 1875V1440Z" fill="#1D1E23"/></svg>