<svg viewBox="0 0 2400 2400" fill="none" xmlns="http://www.w3.org/2000/svg"><path d="M1021.226 217.899 C 906.773 247.482,807.762 327.134,756.443 430.911 C 725.309 493.872,714.042 543.261,714.677 614.000 C 715.207 672.952,725.344 720.628,748.969 775.273 C 794.041 879.523,898.116 968.669,1013.447 1001.813 C 1045.135 1010.920,1055.954 1011.993,1115.447 1011.931 C 1193.902 1011.849,1220.932 1007.068,1273.636 983.954 C 1442.940 909.703,1538.788 747.892,1520.862 566.583 C 1516.044 517.852,1503.680 475.465,1481.021 430.000 C 1438.948 345.581,1361.701 276.156,1261.162 232.403 C 1202.684 206.954,1089.937 200.139,1021.226 217.899 M1204.478 430.528 C 1248.011 453.404,1276.691 482.106,1297.036 523.156 L 1314.000 557.383 1314.000 609.692 C 1314.000 661.884,1313.967 662.069,1299.001 693.413 C 1265.318 763.957,1191.990 812.000,1118.000 812.000 C 1000.203 812.000,902.104 697.368,920.051 580.691 C 931.609 505.548,1002.156 427.619,1069.681 415.405 C 1078.657 413.782,1106.145 413.098,1130.767 413.886 C 1173.588 415.257,1176.793 415.981,1204.478 430.528 M658.000 1023.942 C 554.258 1033.045,437.996 1105.930,373.904 1202.042 C 349.647 1238.419,340.764 1257.379,321.551 1313.786 C 308.158 1353.109,308.000 1354.396,308.000 1424.399 L 308.000 1495.226 322.312 1536.613 C 370.339 1675.495,461.466 1767.141,596.531 1812.391 C 627.962 1822.922,640.445 1824.843,689.421 1826.683 C 763.876 1829.481,797.075 1824.818,847.917 1804.420 C 906.928 1780.744,947.693 1755.071,990.548 1714.592 C 1033.870 1673.672,1064.942 1629.507,1085.237 1580.000 C 1108.159 1524.085,1114.053 1490.870,1113.630 1420.000 C 1113.309 1366.284,1111.837 1352.656,1102.610 1318.000 C 1070.250 1196.449,982.202 1098.279,860.684 1048.260 C 807.392 1026.324,732.819 1017.377,658.000 1023.942 M795.490 1242.866 C 875.590 1282.444,922.039 1368.651,908.878 1453.307 C 903.181 1489.950,893.974 1511.461,870.895 1542.051 C 838.887 1584.474,789.727 1615.061,738.329 1624.531 C 663.641 1638.293,572.426 1588.683,535.101 1514.000 C 515.339 1474.457,510.384 1449.885,513.454 1406.640 C 515.628 1376.006,518.269 1366.002,530.972 1340.284 C 549.746 1302.276,587.517 1263.213,624.000 1244.076 C 658.167 1226.153,669.722 1224.027,721.579 1226.120 C 762.119 1227.756,767.273 1228.924,795.490 1242.866 M1590.000 1397.533 C 1468.553 1430.186,1365.406 1517.505,1317.386 1628.313 C 1266.466 1745.817,1270.777 1859.401,1330.600 1976.398 C 1381.121 2075.204,1479.323 2153.270,1590.000 2182.608 C 1624.809 2191.836,1637.786 2193.210,1690.000 2193.197 C 1738.336 2193.184,1755.969 2191.558,1780.702 2184.831 C 1856.084 2164.327,1921.149 2126.491,1976.016 2071.254 C 2024.240 2022.705,2051.663 1978.388,2075.798 1910.000 C 2087.859 1875.826,2088.623 1870.136,2090.850 1797.818 C 2093.074 1725.617,2092.715 1720.182,2083.990 1693.818 C 2038.753 1557.139,1957.898 1464.506,1841.563 1416.076 C 1797.027 1397.535,1764.624 1391.831,1692.000 1389.747 C 1631.329 1388.006,1623.093 1388.635,1590.000 1397.533 M1720.000 1592.115 C 1802.999 1605.057,1872.991 1676.762,1885.175 1761.330 C 1899.823 1863.009,1834.570 1959.637,1733.476 1985.968 C 1647.447 2008.376,1551.797 1962.153,1509.667 1877.812 C 1461.929 1782.246,1502.477 1658.393,1596.506 1612.561 C 1643.333 1589.737,1673.121 1584.805,1720.000 1592.115 " fill="#1D1E23" stroke="none" fill-rule="evenodd"/></svg>