<svg viewBox="0 0 2400 2400" fill="none" xmlns="http://www.w3.org/2000/svg"><path d="M900 1675C900 1688.81 888.807 1700 875 1700H725C711.193 1700 700 1688.81 700 1675V1100C700 1044.77 744.772 1000 800 1000C855.228 1000 900 1044.77 900 1100V1675ZM1300 1675C1300 1688.81 1288.81 1700 1275 1700H1125C1111.19 1700 1100 1688.81 1100 1675V800C1100 744.772 1144.77 700 1200 700C1255.23 700 1300 744.772 1300 800V1675ZM1700 1675C1700 1688.81 1688.81 1700 1675 1700H1525C1511.19 1700 1500 1688.81 1500 1675V1400C1500 1344.77 1544.77 1300 1600 1300C1655.23 1300 1700 1344.77 1700 1400V1675ZM1900 1900H500V500H1900V1900ZM1900 300H500C390 300 300 390 300 500V1900C300 2010 390 2100 500 2100H1900C2010 2100 2100 2010 2100 1900V500C2100 390 2010 300 1900 300Z" fill="#1D1E23"/></svg>