<svg viewBox="0 0 2400 2400" fill="none" xmlns="http://www.w3.org/2000/svg"><path d="M1456.000 406.532 C 1377.877 418.357,1323.440 439.064,1257.041 482.214 C 1195.141 522.440,1123.332 601.946,1091.048 666.000 C 1077.005 693.863,1057.773 751.960,1050.000 790.000 C 1042.339 827.489,1041.237 922.282,1048.013 960.858 C 1064.421 1054.273,1106.552 1137.180,1172.911 1206.635 C 1233.203 1269.741,1295.279 1308.593,1385.445 1339.655 L 1432.889 1356.000 1520.000 1356.000 L 1607.111 1356.000 1654.555 1339.655 C 1823.013 1281.621,1932.825 1169.361,1982.890 1004.000 C 1992.221 973.182,1993.350 961.951,1994.959 884.000 L 1996.734 798.000 1984.008 758.465 C 1964.807 698.816,1947.609 660.774,1922.095 621.515 C 1893.720 577.853,1829.867 513.199,1786.345 484.063 C 1720.212 439.791,1641.813 411.107,1573.225 406.090 C 1503.268 400.973,1492.455 401.014,1456.000 406.532 M644.570 1130.034 C 548.240 1157.103,472.241 1219.932,431.718 1306.000 C 408.762 1354.757,402.544 1382.668,402.314 1438.000 C 402.081 1493.769,411.175 1534.552,434.870 1584.000 C 446.767 1608.828,457.241 1622.010,495.623 1660.458 C 536.269 1701.175,546.541 1709.166,578.751 1725.129 C 631.787 1751.415,663.323 1757.425,735.373 1754.977 C 799.834 1752.788,817.074 1748.484,867.478 1721.997 C 938.534 1684.658,995.694 1617.420,1024.733 1537.015 C 1031.335 1518.734,1033.442 1501.221,1034.978 1451.876 C 1037.271 1378.179,1033.096 1356.675,1005.877 1302.000 C 966.674 1223.251,901.510 1165.807,818.760 1137.048 C 794.031 1128.454,781.309 1126.839,728.000 1125.533 C 681.147 1124.384,660.764 1125.484,644.570 1130.034 M1428.692 1607.682 C 1381.291 1619.912,1325.639 1665.393,1303.887 1709.679 C 1262.706 1793.519,1279.269 1881.726,1348.171 1945.516 C 1401.840 1995.204,1474.760 2011.134,1542.250 1987.914 C 1575.765 1976.383,1595.116 1963.859,1620.280 1937.415 C 1649.409 1906.802,1662.158 1884.309,1672.288 1845.655 C 1695.350 1757.658,1649.650 1663.448,1563.274 1620.926 C 1539.209 1609.078,1532.979 1607.828,1489.495 1606.117 C 1463.373 1605.089,1436.012 1605.794,1428.692 1607.682 " fill="#1D1E23" stroke="none" fill-rule="evenodd"/></svg>