<svg viewBox="0 0 2400 2400" fill="none" xmlns="http://www.w3.org/2000/svg"><path d="M1037.798 205.695 C 934.549 225.000,850.378 273.866,789.525 349.832 C 661.483 509.673,673.578 738.158,817.710 882.290 C 903.139 967.719,1021.336 1009.307,1143.000 996.745 C 1295.671 980.982,1429.146 873.772,1477.587 728.000 C 1511.984 624.488,1504.680 519.398,1456.318 422.000 C 1409.412 327.533,1326.548 255.970,1222.698 220.240 C 1177.618 204.730,1082.836 197.274,1037.798 205.695 M1124.105 404.228 C 1192.729 412.789,1247.761 452.026,1278.568 514.361 L 1294.000 545.585 1294.000 600.000 L 1294.000 654.415 1278.908 684.952 C 1236.684 770.386,1141.567 816.418,1053.840 793.873 C 995.141 778.788,948.737 740.887,921.504 685.786 L 906.000 654.415 906.000 600.000 L 906.000 545.585 921.432 514.361 C 952.175 452.155,1019.390 405.084,1084.105 400.438 C 1087.463 400.197,1105.463 401.903,1124.105 404.228 M637.798 1005.695 C 534.549 1025.000,450.378 1073.866,389.525 1149.832 C 261.483 1309.673,273.578 1538.158,417.710 1682.290 C 503.139 1767.719,621.336 1809.307,743.000 1796.745 C 895.671 1780.982,1029.146 1673.772,1077.587 1528.000 C 1111.984 1424.488,1104.680 1319.398,1056.318 1222.000 C 1009.412 1127.533,926.548 1055.970,822.698 1020.240 C 777.618 1004.730,682.836 997.274,637.798 1005.695 M724.105 1204.228 C 792.729 1212.789,847.761 1252.026,878.568 1314.361 L 894.000 1345.585 894.000 1400.000 L 894.000 1454.415 878.496 1485.786 C 851.229 1540.955,805.160 1578.423,745.476 1593.968 C 658.766 1616.554,563.182 1570.114,521.092 1484.952 L 506.000 1454.415 506.000 1400.000 L 506.000 1345.585 521.432 1314.361 C 552.175 1252.155,619.390 1205.084,684.105 1200.438 C 687.463 1200.197,705.463 1201.903,724.105 1204.228 M1597.798 1365.695 C 1494.549 1385.000,1410.378 1433.866,1349.525 1509.832 C 1221.483 1669.673,1233.578 1898.158,1377.710 2042.290 C 1463.139 2127.719,1581.336 2169.307,1703.000 2156.745 C 1855.671 2140.982,1989.146 2033.772,2037.587 1888.000 C 2071.984 1784.488,2064.680 1679.398,2016.318 1582.000 C 1969.412 1487.533,1886.548 1415.970,1782.698 1380.240 C 1737.618 1364.730,1642.836 1357.274,1597.798 1365.695 M1684.105 1564.228 C 1752.729 1572.789,1807.761 1612.026,1838.568 1674.361 L 1854.000 1705.585 1854.000 1760.000 L 1854.000 1814.415 1838.496 1845.786 C 1811.229 1900.955,1765.160 1938.423,1705.476 1953.968 C 1618.766 1976.554,1523.182 1930.114,1481.092 1844.952 L 1466.000 1814.415 1466.000 1760.000 L 1466.000 1705.585 1481.432 1674.361 C 1512.175 1612.155,1579.390 1565.084,1644.105 1560.438 C 1647.463 1560.197,1665.463 1561.903,1684.105 1564.228 " fill="#1D1E23" stroke="none" fill-rule="evenodd"/></svg>