<svg viewBox="0 0 2400 2400" fill="none" xmlns="http://www.w3.org/2000/svg"><path d="M1050.920 214.235 C 966.802 227.326,872.611 255.504,790.526 292.132 C 548.270 400.231,350.343 611.983,262.121 857.444 C 177.255 1093.568,180.890 1337.421,272.697 1567.099 C 357.407 1779.020,519.807 1965.347,710.000 2068.830 C 804.085 2120.022,866.993 2144.767,966.846 2169.863 C 1054.834 2191.976,1090.203 2196.055,1194.881 2196.161 C 1298.719 2196.266,1335.332 2192.837,1408.000 2176.204 C 1560.892 2141.208,1696.294 2077.624,1812.000 1986.487 C 2041.196 1805.960,2174.407 1555.363,2196.258 1263.617 C 2214.486 1020.254,2128.022 757.770,1964.627 560.437 C 1802.499 364.635,1553.773 232.284,1310.000 212.101 C 1241.508 206.430,1093.219 207.651,1050.920 214.235 M1099.600 755.000 C 1098.784 1463.540,1094.349 1983.253,1089.074 1988.527 C 1078.835 1998.764,940.560 1957.095,861.074 1919.819 C 701.672 1845.065,567.602 1715.102,490.242 1560.344 C 419.754 1419.334,401.361 1320.277,411.011 1133.632 C 414.674 1062.782,417.498 1038.535,425.753 1007.018 C 454.620 896.818,531.108 753.121,606.754 666.971 C 686.812 575.799,813.479 492.182,938.271 448.127 C 981.630 432.821,1073.833 408.369,1089.000 408.155 L 1100.000 408.000 1099.600 755.000 M1400.665 430.177 C 1469.359 449.931,1545.094 480.953,1597.178 510.672 C 1733.501 588.459,1846.085 710.866,1916.288 857.626 C 1951.819 931.903,1988.000 1045.933,1988.000 1083.635 L 1988.000 1094.748 1925.000 1097.360 C 1890.350 1098.798,1735.279 1099.979,1580.398 1099.987 L 1298.795 1100.000 1301.726 759.086 C 1303.339 571.583,1305.652 416.564,1306.866 414.598 C 1310.457 408.788,1347.920 415.011,1400.665 430.177 M1973.451 1306.702 L 1988.901 1309.167 1986.229 1332.784 C 1982.798 1363.109,1964.444 1427.049,1944.420 1478.431 C 1854.348 1709.555,1689.916 1869.064,1454.210 1953.965 C 1388.184 1977.747,1317.402 1995.002,1311.222 1988.822 C 1305.227 1982.827,1300.529 1778.272,1300.233 1510.348 L 1300.000 1298.697 1629.000 1301.467 C 1809.950 1302.991,1964.953 1305.347,1973.451 1306.702 " fill="#1D1E23" stroke="none" fill-rule="evenodd"/></svg>