<svg viewBox="0 0 2400 2400" fill="none" xmlns="http://www.w3.org/2000/svg"><path d="M835.066 241.000 C 831.511 243.750,808.814 289.971,784.627 343.713 L 740.651 441.425 645.843 484.237 C 593.698 507.783,547.652 529.945,543.517 533.485 C 534.883 540.878,533.712 555.513,541.000 564.934 C 543.750 568.489,589.848 591.131,643.439 615.250 L 740.878 659.102 785.677 758.252 C 833.195 863.424,837.363 869.317,858.841 861.701 C 867.697 858.561,876.086 842.929,914.200 758.551 L 959.122 659.102 1056.561 615.250 C 1110.152 591.131,1156.250 568.489,1159.000 564.934 C 1166.288 555.513,1165.117 540.878,1156.483 533.485 C 1152.348 529.945,1106.302 507.783,1054.157 484.237 L 959.349 441.425 915.373 343.713 C 891.186 289.971,868.489 243.750,864.934 241.000 C 861.379 238.250,854.659 236.000,850.000 236.000 C 845.341 236.000,838.621 238.250,835.066 241.000 M1483.490 642.428 C 1480.470 645.964,1461.713 684.201,1441.807 727.400 L 1405.613 805.943 1327.369 841.971 C 1284.334 861.787,1246.171 880.470,1242.562 883.490 C 1234.169 890.511,1234.092 909.391,1242.428 916.510 C 1245.964 919.530,1284.150 938.264,1327.287 958.142 L 1405.717 994.283 1441.858 1072.713 C 1461.736 1115.850,1480.470 1154.036,1483.490 1157.572 C 1490.560 1165.850,1509.440 1165.850,1516.510 1157.572 C 1519.530 1154.036,1538.264 1115.850,1558.142 1072.713 L 1594.283 994.283 1672.713 958.142 C 1715.850 938.264,1754.036 919.530,1757.572 916.510 C 1765.908 909.391,1765.831 890.511,1757.438 883.490 C 1753.829 880.470,1715.666 861.787,1672.631 841.971 L 1594.387 805.943 1558.193 727.400 C 1538.287 684.201,1519.530 645.964,1516.510 642.428 C 1513.491 638.893,1506.061 636.000,1500.000 636.000 C 1493.939 636.000,1486.509 638.893,1483.490 642.428 M2145.320 800.110 C 2136.146 801.398,2120.432 807.751,2110.400 814.226 C 2098.396 821.974,1982.472 949.510,1771.364 1187.222 L 1450.568 1548.444 1280.284 1378.420 C 1152.315 1250.647,1105.527 1206.381,1092.000 1200.286 C 1065.973 1188.559,1031.158 1189.207,1005.785 1201.891 C 979.248 1215.156,369.713 1824.524,355.498 1852.000 C 348.176 1866.153,346.185 1876.411,346.185 1900.000 C 346.185 1935.793,354.236 1953.981,380.999 1978.651 C 401.500 1997.547,421.821 2005.467,450.179 2005.611 C 493.460 2005.832,484.088 2013.989,775.989 1722.037 C 924.483 1573.516,1047.791 1452.000,1050.007 1452.000 C 1052.223 1452.000,1128.728 1526.822,1220.018 1618.270 C 1314.162 1712.577,1392.925 1788.239,1402.000 1793.086 C 1413.461 1799.207,1425.376 1801.684,1444.000 1801.816 C 1494.828 1802.176,1467.687 1829.302,1875.443 1370.605 C 2077.937 1142.814,2247.253 949.305,2251.701 940.586 C 2263.889 916.696,2265.817 896.297,2258.324 870.522 C 2243.949 821.076,2198.347 792.661,2145.320 800.110 M383.490 842.428 C 380.470 845.964,361.713 884.201,341.807 927.400 L 305.613 1005.943 227.369 1041.971 C 184.334 1061.787,146.171 1080.470,142.562 1083.490 C 134.169 1090.511,134.092 1109.391,142.428 1116.510 C 145.964 1119.530,184.150 1138.264,227.287 1158.142 L 305.717 1194.283 341.858 1272.713 C 361.736 1315.850,380.470 1354.036,383.490 1357.572 C 390.560 1365.850,409.440 1365.850,416.510 1357.572 C 419.530 1354.036,438.264 1315.850,458.142 1272.713 L 494.283 1194.283 572.713 1158.142 C 615.850 1138.264,654.036 1119.530,657.572 1116.510 C 665.908 1109.391,665.831 1090.511,657.438 1083.490 C 653.829 1080.470,615.666 1061.787,572.631 1041.971 L 494.387 1005.943 458.193 927.400 C 438.287 884.201,419.530 845.964,416.510 842.428 C 413.491 838.893,406.061 836.000,400.000 836.000 C 393.939 836.000,386.509 838.893,383.490 842.428 " fill="#1D1E23" stroke="none" fill-rule="evenodd"/></svg>