<svg viewBox="0 0 2400 2400" fill="none" xmlns="http://www.w3.org/2000/svg"><path d="M2019.104 308.219 C 2003.080 316.680,1889.424 441.469,1550.068 823.195 L 1350.136 1048.090 1224.068 922.777 C 992.728 692.821,988.144 689.062,943.957 693.069 C 931.494 694.199,915.368 698.190,908.122 701.937 C 883.342 714.751,355.311 1237.887,282.819 1321.442 C 248.648 1360.829,241.592 1377.617,245.819 1409.479 C 252.198 1457.570,290.185 1496.066,337.684 1502.577 C 365.015 1506.323,381.396 1501.345,408.793 1480.966 C 422.657 1470.653,550.176 1346.577,692.169 1205.240 L 950.339 948.264 1030.169 1028.507 C 1161.263 1160.278,1296.626 1288.670,1310.627 1294.520 C 1328.472 1301.976,1365.545 1301.475,1380.827 1293.572 C 1408.192 1279.421,1472.465 1210.424,1764.222 882.000 C 2064.219 544.300,2142.957 453.318,2154.561 430.965 C 2164.092 412.606,2163.318 378.001,2152.923 357.727 C 2142.842 338.066,2117.486 314.400,2097.601 306.091 C 2076.860 297.425,2037.527 298.491,2019.104 308.219 M2019.104 908.219 C 2003.080 916.680,1889.424 1041.469,1550.068 1423.195 L 1350.136 1648.090 1224.068 1522.777 C 992.728 1292.821,988.144 1289.062,943.957 1293.069 C 931.494 1294.199,915.257 1298.247,907.875 1302.064 C 882.845 1315.008,342.385 1850.749,278.820 1925.628 C 248.834 1960.950,241.764 1978.914,245.819 2009.479 C 252.198 2057.570,290.185 2096.066,337.684 2102.577 C 365.015 2106.323,381.396 2101.345,408.793 2080.966 C 422.657 2070.653,550.176 1946.577,692.169 1805.240 L 950.339 1548.264 1030.169 1628.507 C 1161.263 1760.278,1296.626 1888.670,1310.627 1894.520 C 1328.472 1901.976,1365.545 1901.475,1380.827 1893.572 C 1408.192 1879.421,1472.465 1810.424,1764.222 1482.000 C 2064.219 1144.300,2142.957 1053.318,2154.561 1030.965 C 2164.092 1012.606,2163.318 978.001,2152.923 957.727 C 2142.842 938.066,2117.486 914.400,2097.601 906.091 C 2076.860 897.425,2037.527 898.491,2019.104 908.219 " fill="#1D1E23" stroke="none" fill-rule="evenodd"/></svg>