<svg viewBox="0 0 2400 2400" fill="none" xmlns="http://www.w3.org/2000/svg"><path d="M1048.939 209.709 C 960.191 226.653,894.467 261.181,831.757 323.804 C 790.822 364.684,763.779 404.495,743.514 453.711 C 693.140 576.054,704.634 714.391,774.554 827.294 C 785.553 845.053,809.684 874.135,831.785 896.265 C 892.179 956.739,956.342 991.444,1040.000 1008.886 C 1093.816 1020.106,1174.609 1017.263,1226.000 1002.342 C 1268.987 989.860,1325.638 962.766,1356.000 940.168 C 1387.166 916.971,1429.785 874.219,1450.468 845.406 C 1473.484 813.343,1501.227 754.224,1512.134 714.000 C 1523.226 673.092,1527.179 588.911,1520.077 544.862 C 1494.655 387.181,1374.562 256.726,1216.933 215.560 C 1176.258 204.937,1089.721 201.924,1048.939 209.709 M1169.860 414.132 C 1202.608 422.661,1229.504 438.108,1258.215 464.875 C 1298.960 502.860,1320.000 552.280,1320.000 610.000 C 1320.000 665.688,1302.100 710.009,1263.283 750.432 C 1223.803 791.547,1175.438 812.000,1117.695 812.000 C 939.667 812.000,849.250 596.648,974.000 469.750 C 1002.162 441.103,1027.827 425.224,1061.593 415.557 C 1092.278 406.773,1139.234 406.154,1169.860 414.132 M676.000 1018.398 C 620.207 1024.843,577.196 1037.546,528.000 1062.108 C 484.671 1083.741,453.199 1107.482,415.387 1147.060 C 364.661 1200.154,330.484 1265.284,313.163 1341.863 C 305.265 1376.782,304.263 1464.684,311.384 1498.000 C 330.419 1587.065,369.907 1658.650,433.012 1718.497 C 484.213 1767.053,544.360 1800.152,615.177 1818.741 C 648.197 1827.409,662.669 1828.932,712.000 1828.932 C 761.720 1828.932,775.697 1827.438,809.906 1818.467 C 1035.784 1759.229,1166.171 1531.827,1101.740 1309.489 C 1091.046 1272.587,1067.649 1222.558,1047.150 1192.765 C 1029.707 1167.412,985.929 1121.952,959.010 1101.238 C 914.240 1066.789,851.566 1037.896,795.906 1026.046 C 768.056 1020.117,699.156 1015.722,676.000 1018.398 M748.454 1223.975 C 784.361 1230.600,831.236 1256.282,857.308 1283.616 C 933.947 1363.964,932.892 1487.848,854.905 1565.836 C 773.955 1646.786,652.280 1647.725,571.538 1568.025 C 487.056 1484.631,488.386 1356.304,574.568 1275.720 C 622.594 1230.813,684.947 1212.258,748.454 1223.975 M1614.960 1390.087 C 1407.205 1429.279,1261.208 1622.758,1283.600 1829.215 C 1303.960 2016.940,1442.278 2162.215,1629.162 2192.157 C 1675.635 2199.603,1749.100 2195.200,1794.000 2182.277 C 1936.589 2141.238,2045.372 2031.049,2082.548 1890.000 C 2091.691 1855.307,2093.090 1842.039,2093.090 1790.000 C 2093.090 1738.221,2091.673 1724.642,2082.748 1690.891 C 2057.121 1593.985,1998.707 1510.143,1918.490 1455.132 C 1884.374 1431.736,1826.725 1405.548,1787.826 1395.776 C 1743.313 1384.593,1658.820 1381.812,1614.960 1390.087 M1738.000 1593.428 C 1838.718 1620.282,1904.243 1718.473,1888.599 1819.103 C 1869.185 1943.980,1743.780 2021.664,1625.631 1982.003 C 1588.371 1969.496,1567.629 1956.496,1541.435 1929.234 C 1435.906 1819.405,1487.864 1635.067,1636.000 1593.737 C 1660.124 1587.007,1713.313 1586.845,1738.000 1593.428 " fill="#1D1E23" stroke="none" fill-rule="evenodd"/></svg>