<svg viewBox="0 0 2400 2400" fill="none" xmlns="http://www.w3.org/2000/svg"><path d="M1092.000 208.195 C 959.583 217.612,774.985 284.088,650.000 367.365 C 586.905 409.405,555.098 435.257,502.648 487.127 C 363.854 624.385,276.854 775.163,230.161 959.365 C 205.012 1058.578,196.820 1154.108,203.644 1268.604 C 217.530 1501.574,324.411 1736.163,494.112 1906.139 C 648.455 2060.734,836.826 2154.470,1066.000 2190.721 C 1127.908 2200.514,1272.321 2200.465,1336.000 2190.631 C 1552.475 2157.198,1739.395 2065.492,1891.594 1918.045 C 1952.477 1859.063,1990.768 1813.407,2034.144 1748.075 C 2183.778 1522.703,2235.142 1240.028,2173.711 980.000 C 2081.156 588.228,1778.378 295.484,1387.331 219.679 C 1363.443 215.049,1313.780 210.156,1268.185 207.941 C 1181.755 203.743,1154.037 203.783,1092.000 208.195 M1099.143 1193.000 C 1098.337 1624.750,1096.207 1981.150,1094.410 1985.000 C 1090.016 1994.417,1084.207 1993.962,1029.270 1979.902 C 954.265 1960.707,909.807 1945.011,854.000 1918.025 C 643.613 1816.290,492.435 1634.128,428.372 1405.165 C 410.963 1342.947,408.000 1312.134,408.000 1193.339 C 408.000 1071.031,411.889 1043.651,442.197 952.560 C 484.714 824.774,565.283 697.820,656.233 615.296 C 742.227 537.270,852.892 473.579,964.122 438.095 C 1005.144 425.009,1073.772 408.663,1089.305 408.279 L 1100.609 408.000 1099.143 1193.000 M1378.000 422.840 C 1520.805 456.054,1645.507 523.515,1749.096 623.595 C 1823.873 695.839,1873.009 763.701,1917.748 856.523 C 1947.368 917.978,1966.694 973.760,1981.851 1041.558 C 1989.642 1076.410,1991.297 1090.304,1988.043 1093.558 C 1984.874 1096.728,1885.595 1098.305,1641.456 1099.066 L 1299.311 1100.132 1300.655 759.066 C 1301.395 571.480,1303.521 415.645,1305.381 412.766 C 1309.136 406.951,1310.497 407.140,1378.000 422.840 M1990.000 1304.665 C 1993.351 1308.018,1982.496 1362.759,1969.112 1410.000 C 1940.459 1511.132,1888.391 1613.378,1822.450 1698.000 C 1792.251 1736.753,1725.024 1802.430,1683.011 1834.222 C 1587.690 1906.353,1478.063 1956.158,1352.081 1984.570 C 1320.015 1991.802,1311.008 1992.608,1307.004 1988.606 C 1303.097 1984.701,1301.719 1908.592,1300.721 1641.474 L 1299.441 1299.344 1643.389 1300.672 C 1832.560 1301.402,1988.535 1303.199,1990.000 1304.665 " fill="#1D1E23" stroke="none" fill-rule="evenodd"/></svg>