<svg viewBox="0 0 2400 2400" fill="none" xmlns="http://www.w3.org/2000/svg"><path d="M604.000 307.874 L 438.000 310.000 408.990 325.501 C 373.153 344.649,337.817 381.203,319.837 417.725 C 307.603 442.575,306.747 447.297,303.644 506.982 C 299.338 589.807,299.478 1793.584,303.803 1884.000 C 307.592 1963.210,310.402 1972.975,341.493 2015.005 C 361.303 2041.783,398.738 2072.044,428.000 2084.931 C 442.565 2091.346,460.120 2093.506,520.000 2096.248 C 614.878 2100.594,1782.071 2100.694,1880.092 2096.365 C 1947.942 2093.369,1956.030 2092.215,1976.092 2082.672 C 2008.566 2067.223,2044.247 2036.272,2065.214 2005.364 C 2100.466 1953.396,2097.486 2024.918,2099.036 1193.871 L 2100.409 457.743 2084.321 425.871 C 2058.174 374.070,2026.733 343.685,1969.133 314.554 L 1948.266 304.000 1359.133 304.874 C 1035.110 305.355,695.300 306.705,604.000 307.874 M1246.477 715.241 C 1269.240 726.879,1282.760 741.001,1287.904 758.509 C 1290.607 767.711,1294.250 841.398,1296.877 940.000 C 1302.584 1154.286,1296.894 1684.718,1288.801 1692.805 C 1281.304 1700.296,1118.694 1700.291,1111.201 1692.800 C 1106.994 1688.594,1106.000 1601.051,1106.000 1234.800 C 1106.000 985.760,1107.461 775.091,1109.247 766.647 C 1112.920 749.284,1137.480 722.242,1160.000 710.765 C 1178.333 701.422,1224.081 703.789,1246.477 715.241 M833.008 1009.707 C 854.983 1017.549,874.845 1034.165,885.037 1053.232 L 894.000 1070.000 894.000 1378.797 C 894.000 1626.825,892.977 1688.619,888.800 1692.797 C 881.315 1700.287,718.709 1700.298,711.203 1692.810 C 703.187 1684.814,697.523 1343.203,702.859 1189.614 C 706.351 1089.120,708.201 1066.785,714.059 1054.441 C 722.010 1037.685,749.927 1013.115,766.754 1008.064 C 783.880 1002.922,816.246 1003.725,833.008 1009.707 M1652.738 1318.511 C 1660.895 1324.165,1674.064 1338.219,1682.001 1349.744 L 1696.433 1370.698 1695.216 1529.154 C 1694.269 1652.534,1692.849 1688.759,1688.800 1692.805 C 1684.866 1696.736,1663.128 1698.000,1599.480 1698.000 C 1523.237 1698.000,1514.868 1697.329,1510.117 1690.833 C 1502.218 1680.035,1497.811 1525.925,1502.931 1439.545 C 1507.703 1359.033,1511.234 1347.719,1538.576 1325.314 C 1560.267 1307.540,1574.307 1303.797,1609.953 1306.283 C 1631.354 1307.776,1641.383 1310.642,1652.738 1318.511 " fill="#1D1E23" stroke="none" fill-rule="evenodd"/></svg>