<svg viewBox="0 0 2400 2400" fill="none" xmlns="http://www.w3.org/2000/svg"><path d="M836.487 243.513 C 832.355 247.645,807.473 294.895,781.193 348.513 L 733.411 446.000 693.706 463.738 C 671.868 473.494,628.497 493.663,597.326 508.559 C 534.665 538.503,527.676 545.616,544.576 562.240 C 554.775 572.272,613.223 601.881,690.778 636.304 L 739.556 657.954 758.307 699.977 C 792.929 777.572,828.298 846.885,837.847 855.856 C 857.555 874.371,864.927 864.734,918.360 750.603 C 939.074 706.359,960.067 666.312,965.011 661.609 C 969.955 656.906,1008.200 637.281,1050.000 617.998 C 1127.659 582.171,1153.928 567.350,1161.579 555.043 C 1169.162 542.847,1150.277 530.387,1060.497 488.358 C 1013.471 466.342,971.336 445.106,966.865 441.165 C 962.394 437.224,948.924 413.300,936.932 388.000 C 884.627 277.651,875.856 260.442,865.861 248.564 C 853.693 234.104,847.040 232.960,836.487 243.513 M1487.178 643.000 C 1477.947 653.659,1455.161 696.889,1431.835 748.000 C 1420.288 773.300,1408.046 797.234,1404.631 801.187 C 1401.215 805.140,1369.046 822.687,1333.144 840.179 C 1252.545 879.449,1236.000 889.654,1236.000 900.100 C 1236.000 910.754,1262.400 927.154,1340.831 965.220 L 1403.662 995.715 1442.134 1073.964 C 1480.205 1151.397,1491.462 1167.025,1505.332 1161.703 C 1514.512 1158.180,1530.651 1130.534,1565.514 1058.612 L 1595.898 995.929 1658.949 965.327 C 1737.905 927.006,1764.000 910.776,1764.000 899.991 C 1764.000 889.623,1753.749 883.319,1669.929 842.131 C 1632.490 823.734,1599.000 805.379,1595.509 801.341 C 1592.017 797.304,1579.680 773.300,1568.094 748.000 C 1544.840 697.221,1521.934 653.775,1512.736 643.000 C 1509.449 639.150,1503.718 636.000,1500.000 636.000 C 1496.282 636.000,1490.512 639.150,1487.178 643.000 M2137.288 804.004 C 2130.296 805.581,2117.560 812.428,2108.985 819.220 C 2080.260 841.970,1972.165 960.940,1620.420 1356.936 L 1450.840 1547.849 1303.208 1401.862 C 1106.300 1207.148,1088.187 1192.000,1052.263 1192.000 C 1013.876 1192.000,985.286 1216.182,756.371 1442.269 C 603.330 1593.418,407.562 1793.826,369.973 1837.824 C 351.142 1859.867,350.135 1862.246,348.671 1888.146 C 345.889 1937.387,365.360 1973.996,404.779 1993.639 C 429.352 2005.884,465.060 2007.669,486.064 1997.701 C 501.205 1990.517,595.409 1900.699,800.000 1698.385 C 878.100 1621.154,966.615 1533.832,996.701 1504.336 L 1051.402 1450.708 1220.701 1617.864 C 1335.408 1731.118,1395.159 1787.328,1406.000 1792.179 C 1432.409 1803.997,1456.792 1805.891,1474.573 1797.505 C 1504.576 1783.356,1576.321 1706.895,1868.203 1378.000 C 2184.465 1021.633,2245.714 950.447,2254.816 928.663 C 2272.754 885.732,2247.291 828.221,2202.291 810.031 C 2186.062 803.471,2153.169 800.421,2137.288 804.004 M387.178 843.000 C 377.947 853.659,355.161 896.889,331.835 948.000 C 320.288 973.300,308.046 997.234,304.631 1001.187 C 301.215 1005.140,269.046 1022.687,233.144 1040.179 C 152.545 1079.449,136.000 1089.654,136.000 1100.100 C 136.000 1110.754,162.400 1127.154,240.831 1165.220 L 303.662 1195.715 342.134 1273.964 C 380.205 1351.397,391.462 1367.025,405.332 1361.703 C 414.512 1358.180,430.651 1330.534,465.514 1258.612 L 495.898 1195.929 558.949 1165.327 C 637.905 1127.006,664.000 1110.776,664.000 1099.991 C 664.000 1089.623,653.749 1083.319,569.929 1042.131 C 532.490 1023.734,499.000 1005.379,495.509 1001.341 C 492.017 997.304,479.680 973.300,468.094 948.000 C 444.840 897.221,421.934 853.775,412.736 843.000 C 409.449 839.150,403.718 836.000,400.000 836.000 C 396.282 836.000,390.512 839.150,387.178 843.000 " fill="#1D1E23" stroke="none" fill-rule="evenodd"/></svg>