<svg viewBox="0 0 2400 2400" fill="none" xmlns="http://www.w3.org/2000/svg"><path d="M1175.308 504.393 C 1133.403 508.983,1094.767 539.148,1072.275 584.834 L 1059.855 610.063 1060.928 1247.385 L 1062.000 1884.708 1071.443 1892.354 C 1080.268 1899.499,1088.684 1900.000,1200.000 1900.000 C 1311.316 1900.000,1319.732 1899.499,1328.557 1892.354 L 1338.000 1884.708 1339.072 1247.385 L 1340.145 610.063 1327.451 584.278 C 1298.089 524.635,1244.998 496.759,1175.308 504.393 M616.358 924.261 C 576.059 932.350,532.449 969.771,511.370 1014.348 L 499.856 1038.696 500.928 1461.702 L 502.000 1884.708 511.443 1892.354 C 520.305 1899.529,528.840 1900.000,650.000 1900.000 C 771.160 1900.000,779.695 1899.529,788.557 1892.354 L 798.000 1884.708 799.072 1461.870 L 800.144 1039.033 789.963 1016.796 C 770.415 974.097,730.754 937.663,694.000 928.641 C 668.199 922.308,635.326 920.453,616.358 924.261 M1735.308 1304.393 C 1693.387 1308.985,1654.767 1339.148,1632.254 1384.879 L 1619.812 1410.151 1620.906 1647.431 L 1622.000 1884.710 1631.443 1892.355 C 1640.268 1899.499,1648.691 1900.000,1760.000 1900.000 C 1871.309 1900.000,1879.732 1899.499,1888.557 1892.355 L 1898.000 1884.710 1899.094 1647.431 L 1900.188 1410.151 1887.473 1384.322 C 1858.088 1324.633,1805.018 1296.757,1735.308 1304.393 " fill="#1D1E23" stroke="none" fill-rule="evenodd"/></svg>