<svg viewBox="0 0 2400 2400" fill="none" xmlns="http://www.w3.org/2000/svg"><path d="M600 1025C600 1011.19 611.193 1000 625 1000H875C888.807 1000 900 1011.19 900 1025V1975C900 1988.81 888.807 2000 875 2000H625C611.193 2000 600 1988.81 600 1975V1025ZM600 650C600 567.157 667.157 500 750 500C832.843 500 900 567.157 900 650V875C900 888.807 888.807 900 875 900H625C611.193 900 600 888.807 600 875V650ZM1600 1625C1600 1611.19 1611.19 1600 1625 1600H1875C1888.81 1600 1900 1611.19 1900 1625V1975C1900 1988.81 1888.81 2000 1875 2000H1625C1611.19 2000 1600 1988.81 1600 1975V1625ZM1600 1450C1600 1367.16 1667.16 1300 1750 1300C1832.84 1300 1900 1367.16 1900 1450V1477.78C1900 1490.05 1890.05 1500 1877.78 1500H1622.22C1609.95 1500 1600 1490.05 1600 1477.78V1450ZM1100 1325C1100 1311.19 1111.19 1300 1125 1300H1375C1388.81 1300 1400 1311.19 1400 1325V1975C1400 1988.81 1388.81 2000 1375 2000H1125C1111.19 2000 1100 1988.81 1100 1975V1325ZM1100 1050C1100 967.157 1167.16 900 1250 900C1332.84 900 1400 967.157 1400 1050V1175C1400 1188.81 1388.81 1200 1375 1200H1125C1111.19 1200 1100 1188.81 1100 1175V1050Z" fill="#1D1E23"/></svg>