<svg viewBox="0 0 2400 2400" fill="none" xmlns="http://www.w3.org/2000/svg"><path d="M2036.000 302.850 C 2030.500 303.903,2018.317 311.040,2008.926 318.710 C 1980.261 342.125,1821.965 516.758,1468.345 915.086 L 1350.691 1047.616 1210.345 909.078 C 1002.318 703.730,983.547 688.636,942.565 693.756 C 930.964 695.206,915.987 699.728,909.281 703.805 C 889.203 716.016,800.153 800.787,610.310 988.411 C 411.587 1184.811,283.402 1318.117,260.806 1351.878 C 247.769 1371.357,246.015 1376.867,246.124 1398.000 C 246.398 1450.764,290.868 1497.550,345.510 1502.563 C 385.886 1506.267,404.750 1489.839,726.301 1170.950 L 950.602 948.506 1012.301 1010.667 C 1102.400 1101.441,1269.721 1261.271,1295.282 1280.978 C 1316.536 1297.366,1318.425 1298.000,1345.992 1298.000 C 1379.782 1298.000,1387.828 1293.177,1435.588 1244.288 C 1504.043 1174.215,1741.181 909.830,1988.364 628.000 C 2160.625 431.594,2160.031 432.391,2159.961 397.395 C 2159.888 361.163,2135.443 324.231,2102.394 310.422 C 2087.755 304.306,2050.555 300.063,2036.000 302.850 M2036.000 902.850 C 2030.500 903.903,2018.317 911.040,2008.926 918.710 C 1980.261 942.125,1821.965 1116.758,1468.345 1515.086 L 1350.691 1647.616 1210.345 1509.078 C 1057.190 1357.895,1007.124 1312.162,980.846 1299.441 C 957.821 1288.295,927.847 1291.711,902.740 1308.341 C 865.347 1333.109,370.134 1823.244,292.844 1911.983 C 251.364 1959.608,242.126 1977.584,245.311 2004.476 C 251.353 2055.492,294.674 2097.900,345.510 2102.563 C 385.886 2106.267,404.750 2089.839,726.301 1770.950 L 950.602 1548.506 1012.301 1610.667 C 1102.400 1701.441,1269.721 1861.271,1295.282 1880.978 C 1316.536 1897.366,1318.425 1898.000,1345.992 1898.000 C 1379.782 1898.000,1387.828 1893.177,1435.588 1844.288 C 1504.043 1774.215,1741.181 1509.830,1988.364 1228.000 C 2160.625 1031.594,2160.031 1032.391,2159.961 997.395 C 2159.888 961.163,2135.443 924.231,2102.394 910.422 C 2087.755 904.306,2050.555 900.063,2036.000 902.850 " fill="#1D1E23" stroke="none" fill-rule="evenodd"/></svg>