<svg viewBox="0 0 2400 2400" fill="none" xmlns="http://www.w3.org/2000/svg"><path d="M1052.000 206.550 C 930.156 228.549,856.513 253.007,751.825 306.240 C 490.616 439.062,304.252 673.254,229.988 962.000 C 207.637 1048.899,202.981 1089.937,202.981 1200.000 C 202.981 1310.063,207.637 1351.101,229.988 1438.000 C 266.569 1580.231,335.640 1719.852,423.039 1828.237 C 452.960 1865.342,526.752 1939.557,570.500 1976.543 C 649.752 2043.545,773.819 2113.644,874.000 2148.023 C 931.358 2167.707,1023.642 2190.964,1057.577 2194.287 C 1099.901 2198.433,1097.637 2205.791,1099.397 2058.352 C 1100.226 1988.847,1099.709 1924.002,1098.247 1914.253 L 1095.589 1896.527 1032.794 1875.669 C 895.076 1829.923,814.256 1782.971,728.469 1698.872 C 646.091 1618.114,594.331 1544.209,553.969 1449.712 C 519.832 1369.789,504.052 1290.237,504.040 1198.000 C 504.016 1024.753,570.502 866.005,699.551 731.175 C 794.199 632.287,885.493 574.861,1022.224 528.206 C 1076.812 509.580,1090.961 503.224,1094.941 495.540 C 1104.102 477.853,1100.648 219.315,1091.124 209.791 C 1087.884 206.551,1063.282 204.513,1052.000 206.550 M1307.884 210.139 C 1303.171 215.819,1301.810 240.539,1300.592 342.572 C 1299.769 411.569,1300.297 476.038,1301.766 485.835 L 1304.438 503.649 1339.219 513.975 C 1452.779 547.686,1522.878 578.440,1588.823 623.481 C 1737.507 725.033,1834.943 862.741,1884.435 1041.271 C 1894.072 1076.037,1899.716 1089.793,1905.769 1093.271 C 1911.658 1096.654,1952.509 1098.000,2049.320 1098.000 C 2207.140 1098.000,2198.353 1100.460,2194.544 1057.347 C 2188.330 987.009,2153.186 860.276,2115.612 772.705 C 2050.153 620.146,1935.348 477.330,1801.125 381.486 C 1758.552 351.086,1670.599 303.441,1606.000 275.784 C 1537.382 246.407,1413.184 213.988,1337.840 205.787 C 1317.643 203.588,1312.729 204.302,1307.884 210.139 M1932.000 1303.507 L 1902.000 1306.000 1886.908 1354.000 C 1834.256 1521.462,1779.782 1610.210,1663.715 1717.622 C 1578.949 1796.066,1487.593 1843.126,1333.230 1887.864 L 1304.460 1896.202 1301.839 1913.678 C 1300.398 1923.290,1299.873 1986.695,1300.673 2054.577 C 1301.777 2148.254,1303.422 2180.302,1307.499 2187.550 C 1312.611 2196.639,1314.250 2196.979,1341.435 2194.587 C 1378.170 2191.355,1450.500 2176.167,1505.612 2160.113 C 1827.204 2066.431,2066.431 1827.204,2160.113 1505.612 C 2175.890 1451.452,2191.025 1379.077,2194.429 1341.513 C 2196.742 1315.991,2196.201 1312.396,2189.514 1308.880 C 2180.613 1304.198,1975.238 1299.913,1932.000 1303.507 " fill="#1D1E23" stroke="none" fill-rule="evenodd"/></svg>