<svg viewBox="0 0 2400 2400" fill="none" xmlns="http://www.w3.org/2000/svg"><path d="M835.257 242.811 C 826.562 252.693,816.285 273.526,775.490 363.966 C 746.062 429.208,738.501 442.749,729.161 446.932 C 633.884 489.605,548.502 530.014,542.811 535.125 C 532.231 544.628,535.745 560.227,550.732 570.292 C 557.735 574.994,603.077 596.653,651.491 618.421 L 739.518 658.000 780.111 746.590 C 833.673 863.481,839.117 871.176,860.250 859.866 C 869.696 854.811,875.516 843.629,922.259 740.735 L 959.176 659.470 1050.569 617.784 C 1100.834 594.857,1146.470 572.748,1151.980 568.653 C 1164.398 559.427,1166.829 543.783,1157.189 535.125 C 1151.440 529.962,1078.871 495.603,970.986 446.965 C 961.772 442.811,953.123 426.976,918.036 350.020 C 894.970 299.430,872.748 253.530,868.653 248.020 C 859.426 235.601,843.752 233.156,835.257 242.811 M1486.874 641.000 C 1480.958 645.445,1450.778 705.608,1417.146 780.000 L 1405.392 806.000 1324.530 843.573 C 1276.061 866.095,1241.996 884.271,1239.494 888.946 C 1237.198 893.236,1236.449 901.244,1237.829 906.743 C 1239.907 915.021,1251.490 922.044,1305.169 947.572 C 1340.826 964.529,1377.948 981.870,1387.662 986.108 C 1403.166 992.871,1406.760 996.998,1417.092 1019.906 C 1423.564 1034.258,1441.044 1071.458,1455.936 1102.574 C 1483.870 1160.939,1489.904 1167.743,1508.494 1161.843 C 1516.484 1159.307,1541.916 1110.799,1582.908 1019.906 C 1593.240 996.998,1596.834 992.871,1612.338 986.108 C 1622.052 981.870,1659.174 964.529,1694.831 947.572 C 1748.510 922.044,1760.093 915.021,1762.171 906.743 C 1763.551 901.244,1762.802 893.236,1760.506 888.946 C 1758.004 884.271,1723.939 866.095,1675.470 843.573 L 1594.608 806.000 1582.854 780.000 C 1549.222 705.608,1519.042 645.445,1513.126 641.000 C 1509.466 638.250,1503.559 636.000,1500.000 636.000 C 1496.441 636.000,1490.534 638.250,1486.874 641.000 M2121.285 809.181 C 2097.936 821.501,2036.097 888.994,1652.327 1321.021 L 1450.664 1548.041 1290.332 1388.910 C 1202.149 1301.388,1121.900 1223.339,1112.000 1215.468 C 1068.143 1180.599,1027.400 1183.480,979.336 1224.847 C 939.355 1259.258,565.336 1630.720,453.418 1747.170 C 402.054 1800.614,357.032 1850.114,353.369 1857.170 C 343.216 1876.727,344.346 1921.926,355.567 1945.106 C 365.791 1966.225,390.491 1990.106,410.954 1998.656 C 418.692 2001.890,436.298 2004.848,450.078 2005.231 C 473.200 2005.874,476.939 2004.705,498.566 1990.074 C 511.619 1981.244,630.108 1866.967,766.039 1732.111 C 900.260 1598.950,1019.337 1481.238,1030.655 1470.528 L 1051.233 1451.056 1219.487 1617.351 C 1312.026 1708.813,1391.954 1786.406,1397.104 1789.781 C 1409.891 1798.159,1446.852 1804.790,1464.486 1801.870 C 1482.813 1798.834,1510.491 1775.561,1564.226 1718.000 C 1642.491 1634.164,2145.595 1066.602,2232.960 963.587 C 2266.106 924.504,2270.795 893.038,2249.682 851.372 C 2227.063 806.737,2164.735 786.255,2121.285 809.181 M386.874 841.000 C 380.958 845.445,350.778 905.608,317.146 980.000 L 305.392 1006.000 224.530 1043.573 C 176.061 1066.095,141.996 1084.271,139.494 1088.946 C 137.198 1093.236,136.449 1101.244,137.829 1106.743 C 139.907 1115.021,151.490 1122.044,205.169 1147.572 C 240.826 1164.529,277.948 1181.870,287.662 1186.108 C 303.166 1192.871,306.760 1196.998,317.092 1219.906 C 323.564 1234.258,341.044 1271.458,355.936 1302.574 C 383.870 1360.939,389.904 1367.743,408.494 1361.843 C 416.484 1359.307,441.916 1310.799,482.908 1219.906 C 493.240 1196.998,496.834 1192.871,512.338 1186.108 C 522.052 1181.870,559.174 1164.529,594.831 1147.572 C 648.510 1122.044,660.093 1115.021,662.171 1106.743 C 663.551 1101.244,662.802 1093.236,660.506 1088.946 C 658.004 1084.271,623.939 1066.095,575.470 1043.573 L 494.608 1006.000 482.854 980.000 C 449.222 905.608,419.042 845.445,413.126 841.000 C 409.466 838.250,403.559 836.000,400.000 836.000 C 396.441 836.000,390.534 838.250,386.874 841.000 " fill="#1D1E23" stroke="none" fill-rule="evenodd"/></svg>