<svg viewBox="0 0 2400 2400" fill="none" xmlns="http://www.w3.org/2000/svg"><path d="M1307.449 212.646 C 1301.672 223.014,1296.905 453.419,1301.793 486.017 L 1304.438 503.649 1339.219 513.961 C 1499.642 561.524,1601.087 617.995,1695.674 712.387 C 1779.700 796.238,1835.653 890.795,1876.518 1018.000 C 1887.826 1053.200,1900.438 1085.553,1904.545 1089.895 C 1911.678 1097.437,1917.857 1097.794,2043.006 1097.895 C 2140.885 1097.973,2176.924 1096.707,2185.565 1092.884 L 2197.131 1087.768 2194.524 1056.884 C 2187.417 972.691,2140.999 821.643,2092.279 724.171 C 2020.952 581.471,1905.310 450.088,1778.000 367.117 C 1737.310 340.598,1632.892 286.628,1587.023 268.407 C 1525.005 243.770,1401.423 212.858,1337.330 205.950 C 1314.274 203.465,1312.320 203.903,1307.449 212.646 M994.744 218.113 C 824.808 255.141,656.364 343.653,524.000 465.474 C 371.938 605.425,263.457 799.525,217.159 1014.488 C 206.279 1065.004,206.065 1068.590,206.065 1200.000 C 206.065 1331.410,206.279 1334.996,217.159 1385.512 C 251.943 1547.016,325.810 1705.649,422.271 1826.000 C 461.609 1875.080,557.877 1968.507,605.556 2003.876 C 674.495 2055.015,763.854 2104.968,841.709 2135.887 C 905.972 2161.409,1039.426 2196.000,1073.628 2196.000 C 1097.096 2196.000,1097.700 2192.677,1099.327 2054.577 C 1100.127 1986.695,1099.626 1923.446,1098.213 1914.026 L 1095.644 1896.897 1028.822 1874.170 C 947.733 1846.591,862.374 1805.704,814.351 1771.437 C 698.201 1688.558,595.740 1557.345,545.412 1427.029 C 503.884 1319.501,493.567 1181.598,518.252 1064.000 C 554.051 893.451,676.920 720.092,835.100 616.949 C 878.761 588.479,962.207 548.897,1022.592 528.014 C 1088.529 505.210,1094.748 501.079,1098.245 477.762 C 1101.611 455.313,1097.810 229.816,1093.849 217.000 C 1091.315 208.801,1088.705 208.031,1064.533 208.344 C 1049.940 208.533,1018.535 212.929,994.744 218.113 M1905.668 1307.061 C 1903.286 1308.678,1890.886 1341.077,1878.113 1379.059 C 1829.009 1525.078,1773.593 1613.830,1671.680 1709.674 C 1612.414 1765.410,1556.904 1802.299,1484.057 1834.359 C 1446.718 1850.792,1361.046 1880.948,1321.273 1891.657 C 1307.614 1895.335,1304.590 1898.051,1302.496 1908.521 C 1299.088 1925.559,1299.799 2123.066,1303.398 2158.950 C 1304.994 2174.873,1308.479 2190.079,1311.141 2192.741 C 1321.858 2203.458,1455.020 2177.700,1544.000 2147.697 C 1849.446 2044.707,2072.644 1810.377,2161.659 1499.234 C 2177.738 1443.032,2192.406 1368.127,2193.232 1338.000 L 2194.000 1310.000 2170.000 1307.434 C 2136.197 1303.820,1910.914 1303.502,1905.668 1307.061 " fill="#1D1E23" stroke="none" fill-rule="evenodd"/></svg>