<svg viewBox="0 0 2400 2400" fill="none" xmlns="http://www.w3.org/2000/svg"><path d="M1072.53 203.092C1087.19 201.236 1100 212.81 1100 227.587V2172.41C1100 2187.19 1087.19 2198.76 1072.53 2196.91C578.877 2134.41 200 1711.55 200 1200C200 688.447 578.877 265.588 1072.53 203.092ZM1330.47 203.114C1315.81 201.246 1303 212.823 1303 227.607V1074C1303 1087.81 1314.19 1099 1328 1099H2172.4C2187.18 1099 2198.76 1086.2 2196.89 1071.53C2139.5 619.602 1781.43 260.573 1330.47 203.114ZM1328 1301C1314.19 1301 1303 1312.19 1303 1326V2172.4C1303 2187.18 1315.81 2198.76 1330.47 2196.89C1782.34 2139.46 2139.54 1780.42 2196.9 1328.47C2198.76 1313.8 2187.18 1301 2172.4 1301H1328Z" fill="#1D1E23"/></svg>