<svg viewBox="0 0 2400 2400" fill="none" xmlns="http://www.w3.org/2000/svg"><path d="M266.000 208.607 C 248.733 215.029,222.156 237.581,211.326 255.001 L 202.000 270.000 201.022 960.000 C 200.484 1339.500,201.384 1760.085,203.022 1894.634 L 206.000 2139.268 218.000 2154.055 C 224.600 2162.188,237.715 2174.421,247.145 2181.240 C 286.877 2209.974,358.548 2195.182,384.712 2152.848 C 393.220 2139.081,393.448 2134.679,396.432 1926.404 C 400.316 1655.320,400.336 741.153,396.464 471.880 C 393.036 233.498,394.986 245.333,355.113 220.946 C 336.085 209.308,327.654 206.712,305.113 205.546 C 290.201 204.775,272.600 206.152,266.000 208.607 M876.000 603.603 C 686.563 605.984,668.783 606.789,654.868 613.615 C 634.031 623.835,613.219 649.430,605.289 674.587 C 599.629 692.543,599.369 698.867,603.526 717.444 C 610.282 747.634,628.345 773.517,649.959 783.980 C 680.234 798.636,760.343 800.633,1253.382 799.023 C 1754.600 797.386,1738.633 798.183,1764.605 773.526 C 1784.673 754.474,1797.585 725.357,1797.424 699.516 C 1797.312 681.511,1794.497 671.952,1783.295 651.537 C 1764.495 617.277,1754.541 612.001,1700.928 607.880 C 1640.215 603.213,1121.120 600.522,876.000 603.603 M696.000 1107.521 C 664.857 1109.553,655.590 1111.719,644.644 1119.526 C 624.832 1133.656,609.065 1157.803,603.545 1182.470 C 599.322 1201.343,599.608 1207.393,605.633 1226.504 C 613.192 1250.484,633.759 1276.420,653.699 1287.117 C 670.530 1296.145,850.451 1299.200,1376.000 1299.379 C 1828.350 1299.534,2116.304 1295.147,2143.208 1287.691 C 2171.307 1279.903,2197.570 1237.529,2197.556 1200.000 C 2197.543 1162.642,2170.961 1121.335,2140.506 1111.345 C 2129.557 1107.753,1955.352 1106.397,1430.000 1105.814 C 1047.200 1105.389,716.900 1106.157,696.000 1107.521 M1217.696 1603.452 L 1065.391 1606.016 1049.019 1616.851 C 1030.777 1628.923,1014.911 1647.908,1007.930 1666.018 C 1000.721 1684.718,1002.186 1720.754,1010.959 1740.519 C 1020.947 1763.020,1046.856 1786.261,1068.773 1792.377 C 1095.222 1799.758,1893.165 1800.028,1925.241 1792.666 C 1953.408 1786.202,1972.350 1770.781,1987.031 1742.360 C 2002.866 1711.706,2001.856 1685.302,1983.575 1652.021 C 1964.927 1618.072,1954.442 1612.186,1905.022 1607.923 C 1850.977 1603.260,1402.398 1600.342,1217.696 1603.452 " fill="#1D1E23" stroke="none" fill-rule="evenodd"/></svg>