<svg viewBox="0 0 2400 2400" fill="none" xmlns="http://www.w3.org/2000/svg"><path d="M1311.269 213.000 C 1307.371 219.999,1305.909 314.313,1304.696 637.147 C 1303.838 865.477,1304.340 1060.323,1305.811 1070.136 C 1307.594 1082.025,1311.151 1089.405,1316.472 1092.253 C 1321.859 1095.136,1433.366 1097.218,1659.228 1098.653 C 2010.702 1100.886,2178.653 1097.418,2190.381 1087.684 C 2211.313 1070.312,2159.828 879.780,2100.754 756.000 C 2042.764 634.492,1943.236 512.395,1822.000 414.036 C 1780.722 380.547,1698.769 328.737,1645.318 302.339 C 1553.336 256.911,1484.794 233.803,1383.385 214.029 C 1320.563 201.780,1317.542 201.737,1311.269 213.000 M1024.000 210.892 C 986.786 217.602,887.028 245.922,852.763 259.505 C 759.275 296.563,673.502 343.905,597.352 400.477 C 546.857 437.990,441.722 542.847,404.779 592.542 C 318.469 708.644,254.211 849.761,222.082 993.762 C 205.291 1069.020,202.873 1103.201,205.373 1230.000 C 207.844 1355.329,209.999 1371.672,236.492 1466.000 C 339.256 1831.882,635.443 2109.332,1004.693 2185.603 C 1036.401 2192.152,1086.390 2194.943,1090.916 2190.417 C 1097.559 2183.775,1100.350 1748.258,1098.380 1026.000 C 1097.197 592.600,1095.081 231.250,1093.677 223.000 L 1091.125 208.000 1062.562 208.545 C 1046.853 208.844,1029.500 209.901,1024.000 210.892 M1354.000 1307.617 L 1310.000 1310.000 1307.526 1356.000 C 1304.047 1420.691,1304.000 2084.067,1307.470 2140.833 C 1309.044 2166.591,1311.690 2189.024,1313.349 2190.683 C 1319.082 2196.415,1363.423 2192.362,1410.512 2181.801 C 1466.835 2169.168,1547.277 2143.064,1601.337 2119.876 C 1824.371 2024.209,2024.176 1825.678,2117.423 1607.081 C 2152.861 1524.006,2190.052 1395.468,2194.808 1339.630 C 2196.785 1316.430,2196.150 1312.851,2189.527 1309.850 C 2180.994 1305.983,1421.650 1303.954,1354.000 1307.617 " fill="#1D1E23" stroke="none" fill-rule="evenodd"/></svg>