<svg viewBox="0 0 2400 2400" fill="none" xmlns="http://www.w3.org/2000/svg"><path d="M604.000 307.874 L 438.000 310.000 408.990 325.501 C 373.153 344.649,337.817 381.203,319.837 417.725 C 307.603 442.575,306.747 447.297,303.644 506.982 C 299.338 589.807,299.478 1793.584,303.803 1884.000 C 307.592 1963.210,310.402 1972.975,341.493 2015.005 C 361.303 2041.783,398.738 2072.044,428.000 2084.931 C 442.565 2091.346,460.120 2093.506,520.000 2096.248 C 614.878 2100.594,1782.071 2100.694,1880.092 2096.365 C 1947.942 2093.369,1956.030 2092.215,1976.092 2082.672 C 2008.566 2067.223,2044.247 2036.272,2065.214 2005.364 C 2100.466 1953.396,2097.486 2024.918,2099.036 1193.871 L 2100.409 457.743 2084.321 425.871 C 2058.174 374.070,2026.733 343.685,1969.133 314.554 L 1948.266 304.000 1359.133 304.874 C 1035.110 305.355,695.300 306.705,604.000 307.874 M1900.000 1200.000 L 1900.000 1900.000 1200.000 1900.000 L 500.000 1900.000 500.000 1200.000 L 500.000 500.000 1200.000 500.000 L 1900.000 500.000 1900.000 1200.000 M1166.000 708.851 C 1148.994 714.831,1122.284 737.377,1111.326 755.001 L 1102.000 770.000 1100.887 1226.278 L 1099.774 1682.555 1108.307 1690.278 C 1116.162 1697.386,1123.450 1698.000,1200.000 1698.000 C 1277.501 1698.000,1283.771 1697.456,1292.137 1690.000 L 1301.113 1682.000 1298.726 1232.000 C 1297.092 924.157,1294.952 777.227,1291.951 766.891 C 1281.905 732.293,1240.059 703.749,1200.215 704.316 C 1187.997 704.489,1172.600 706.530,1166.000 708.851 M766.000 1008.644 C 748.774 1014.998,722.176 1037.550,711.326 1055.001 L 702.000 1070.000 702.000 1376.857 C 702.000 1666.106,702.410 1684.123,709.143 1690.857 C 715.545 1697.259,724.966 1698.000,800.000 1698.000 C 875.024 1698.000,884.456 1697.259,890.857 1690.859 C 897.559 1684.159,898.068 1666.152,899.104 1399.110 C 899.753 1231.804,898.620 1103.043,896.355 1086.697 C 891.842 1054.129,880.153 1036.798,850.088 1018.101 C 834.659 1008.506,825.829 1006.010,804.477 1005.210 C 789.915 1004.664,772.600 1006.210,766.000 1008.644 M1555.436 1313.822 C 1532.268 1326.163,1509.083 1352.777,1505.059 1371.651 C 1503.377 1379.543,1502.000 1452.986,1502.000 1534.857 C 1502.000 1672.427,1502.542 1684.256,1509.143 1690.857 C 1515.543 1697.258,1524.957 1698.000,1599.723 1698.000 C 1677.502 1698.000,1683.769 1697.457,1692.135 1690.000 L 1701.110 1682.000 1698.826 1529.191 C 1696.742 1389.695,1695.870 1374.883,1688.815 1359.191 C 1674.315 1326.936,1641.288 1306.800,1600.000 1305.041 C 1578.654 1304.132,1570.677 1305.704,1555.436 1313.822 " fill="#1D1E23" stroke="none" fill-rule="evenodd"/></svg>