<svg viewBox="0 0 2400 2400" fill="none" xmlns="http://www.w3.org/2000/svg"><path d="M468.000 302.648 C 447.298 306.004,409.264 321.531,389.052 334.877 C 347.077 362.593,314.625 410.264,304.420 459.197 C 298.170 489.170,298.170 1910.830,304.420 1940.803 C 320.053 2015.765,384.235 2079.947,459.197 2095.580 C 489.170 2101.830,1910.830 2101.830,1940.803 2095.580 C 2015.765 2079.947,2079.947 2015.765,2095.580 1940.803 C 2101.830 1910.830,2101.830 489.170,2095.580 459.197 C 2081.788 393.062,2034.082 338.710,1966.000 311.568 L 1942.000 302.000 1210.000 301.513 C 807.400 301.246,473.500 301.756,468.000 302.648 M1900.000 1200.000 L 1900.000 1900.000 1200.000 1900.000 L 500.000 1900.000 500.000 1200.000 L 500.000 500.000 1200.000 500.000 L 1900.000 500.000 1900.000 1200.000 M1166.363 706.293 C 1143.583 714.639,1125.689 729.702,1113.089 751.136 L 1102.000 770.000 1100.934 1226.934 C 1099.875 1680.500,1099.927 1683.927,1107.934 1691.934 C 1115.510 1699.510,1121.104 1700.000,1200.000 1700.000 C 1278.667 1700.000,1284.508 1699.492,1292.000 1692.000 C 1299.905 1684.095,1300.000 1678.667,1300.000 1234.713 C 1300.000 729.545,1301.904 761.693,1270.105 729.895 C 1242.868 702.658,1201.791 693.312,1166.363 706.293 M766.363 1006.293 C 743.583 1014.639,725.689 1029.702,713.089 1051.136 L 702.000 1070.000 700.904 1376.904 C 699.820 1680.425,699.897 1683.897,707.904 1691.904 C 715.518 1699.518,721.002 1700.000,800.000 1700.000 C 878.667 1700.000,884.508 1699.492,892.000 1692.000 C 899.857 1684.143,900.000 1678.667,900.000 1384.713 C 900.000 1047.364,901.143 1060.933,870.105 1029.895 C 842.868 1002.658,801.791 993.312,766.363 1006.293 M1566.363 1306.293 C 1543.583 1314.639,1525.689 1329.702,1513.089 1351.136 L 1502.000 1370.000 1500.826 1526.826 C 1499.678 1680.229,1499.831 1683.831,1507.826 1691.826 C 1515.539 1699.539,1520.739 1700.000,1600.000 1700.000 C 1678.667 1700.000,1684.508 1699.492,1692.000 1692.000 C 1699.714 1684.286,1700.000 1678.667,1700.000 1534.713 C 1700.000 1364.655,1699.168 1358.958,1670.105 1329.895 C 1642.868 1302.658,1601.791 1293.312,1566.363 1306.293 " fill="#1D1E23" stroke="none" fill-rule="evenodd"/></svg>