<svg viewBox="0 0 2400 2400" fill="none" xmlns="http://www.w3.org/2000/svg"><path d="M468.000 302.648 C 447.298 306.004,409.264 321.531,389.052 334.877 C 347.077 362.593,314.625 410.264,304.420 459.197 C 298.170 489.170,298.170 1910.830,304.420 1940.803 C 320.053 2015.765,384.235 2079.947,459.197 2095.580 C 489.170 2101.830,1910.830 2101.830,1940.803 2095.580 C 2015.765 2079.947,2079.947 2015.765,2095.580 1940.803 C 2101.830 1910.830,2101.830 489.170,2095.580 459.197 C 2081.788 393.062,2034.082 338.710,1966.000 311.568 L 1942.000 302.000 1210.000 301.513 C 807.400 301.246,473.500 301.756,468.000 302.648 M1434.017 506.625 C 1470.911 519.196,1500.000 560.361,1500.000 600.000 C 1500.000 639.639,1470.911 680.804,1434.017 693.375 C 1406.427 702.776,1194.110 703.212,1167.778 693.922 C 1143.670 685.416,1126.034 670.886,1113.089 648.864 C 1103.633 632.778,1102.000 625.583,1102.000 600.000 C 1102.000 574.417,1103.633 567.222,1113.089 551.136 C 1125.689 529.702,1143.583 514.639,1166.363 506.293 C 1191.010 497.263,1407.328 497.531,1434.017 506.625 M1634.017 806.625 C 1670.911 819.196,1700.000 860.361,1700.000 900.000 C 1700.000 924.160,1688.067 952.144,1670.105 970.105 C 1639.892 1000.319,1642.774 1000.000,1399.790 1000.000 C 1166.977 1000.000,1166.427 999.953,1137.364 977.786 C 1130.112 972.255,1119.188 959.240,1113.089 948.864 C 1103.633 932.778,1102.000 925.583,1102.000 900.000 C 1102.000 874.417,1103.633 867.222,1113.089 851.136 C 1119.188 840.760,1130.152 827.715,1137.452 822.147 C 1165.815 800.513,1164.946 800.586,1398.287 800.282 C 1589.600 800.033,1616.820 800.765,1634.017 806.625 M1834.017 1106.625 C 1870.911 1119.196,1900.000 1160.361,1900.000 1200.000 C 1900.000 1224.160,1888.067 1252.144,1870.105 1270.105 C 1838.959 1301.252,1854.463 1300.000,1499.790 1300.000 C 1157.772 1300.000,1167.250 1300.581,1137.364 1277.786 C 1130.112 1272.255,1119.188 1259.240,1113.089 1248.864 C 1103.633 1232.778,1102.000 1225.583,1102.000 1200.000 C 1102.000 1174.417,1103.633 1167.222,1113.089 1151.136 C 1119.188 1140.760,1130.152 1127.715,1137.452 1122.147 C 1166.533 1099.966,1156.289 1100.587,1498.287 1100.282 C 1782.668 1100.028,1816.536 1100.668,1834.017 1106.625 " fill="#1D1E23" stroke="none" fill-rule="evenodd"/></svg>