<svg viewBox="0 0 2400 2400" fill="none" xmlns="http://www.w3.org/2000/svg"><path d="M1456.798 408.044 C 1389.374 415.071,1297.394 452.492,1238.071 497.031 C 1202.955 523.396,1156.979 569.617,1129.681 606.000 C 1102.348 642.430,1083.699 680.255,1063.193 740.850 L 1046.560 790.000 1046.643 880.000 C 1046.721 965.436,1047.247 971.649,1057.007 1002.518 C 1085.881 1093.834,1121.879 1153.308,1188.379 1219.563 C 1243.097 1274.078,1296.990 1306.639,1386.981 1339.550 L 1431.961 1356.000 1519.662 1356.000 C 1607.362 1356.000,1607.363 1356.000,1642.681 1343.652 C 1803.741 1287.344,1908.760 1192.287,1965.260 1051.671 C 1988.582 993.629,1993.054 967.169,1994.953 876.000 L 1996.661 794.000 1982.096 752.000 C 1962.331 695.007,1932.736 635.753,1907.189 602.026 C 1833.908 505.279,1713.242 428.136,1610.169 412.136 C 1572.740 406.327,1493.548 404.213,1456.798 408.044 M630.000 1135.504 C 534.446 1169.978,472.138 1224.588,431.792 1309.225 C 407.088 1361.049,402.738 1384.241,405.025 1451.927 C 407.148 1514.724,416.308 1552.625,438.528 1590.540 C 459.779 1626.801,533.097 1699.286,569.849 1720.367 C 580.932 1726.724,604.400 1736.867,622.000 1742.907 C 651.988 1753.198,658.150 1753.875,720.000 1753.665 C 775.740 1753.475,790.353 1752.104,814.000 1744.846 C 858.162 1731.291,901.163 1703.677,942.360 1662.416 C 995.395 1609.299,1024.495 1555.314,1032.614 1494.985 C 1038.719 1449.626,1034.857 1375.871,1024.913 1347.910 C 991.930 1255.164,922.020 1180.121,836.374 1145.527 C 801.020 1131.247,777.387 1127.985,710.454 1128.144 C 662.519 1128.259,645.858 1129.783,630.000 1135.504 M1397.386 1621.449 C 1344.727 1649.835,1306.659 1693.809,1291.637 1743.605 C 1269.874 1815.750,1287.169 1880.501,1343.516 1937.833 C 1371.003 1965.801,1400.474 1982.480,1440.163 1992.531 C 1470.389 2000.185,1477.201 2000.614,1504.000 1996.545 C 1602.658 1981.567,1676.000 1897.759,1676.000 1800.000 C 1676.000 1729.019,1639.572 1667.769,1573.789 1628.144 C 1547.577 1612.355,1527.799 1608.803,1464.000 1608.428 C 1423.833 1608.192,1420.926 1608.761,1397.386 1621.449 " fill="#1D1E23" stroke="none" fill-rule="evenodd"/></svg>