<svg viewBox="0 0 2400 2400" fill="none" xmlns="http://www.w3.org/2000/svg"><path d="M2029.550 304.093 C 2008.512 310.600,1938.453 386.463,1548.678 824.808 L 1350.558 1047.616 1205.575 904.179 C 1050.636 750.892,1007.377 711.303,982.000 699.572 C 963.262 690.910,955.566 690.462,927.799 696.417 C 908.950 700.459,901.918 705.798,844.864 759.385 C 748.693 849.711,431.952 1164.285,343.613 1257.206 C 242.786 1363.263,235.244 1377.062,250.331 1427.865 C 259.134 1457.509,290.491 1488.866,320.135 1497.669 C 375.566 1514.131,379.284 1511.646,553.365 1341.824 C 632.914 1264.221,754.611 1143.942,823.803 1074.537 L 949.606 948.347 1077.803 1075.242 C 1235.661 1231.497,1304.250 1294.250,1320.798 1297.560 C 1341.264 1301.653,1363.526 1300.306,1378.448 1294.071 C 1403.847 1283.458,1474.889 1207.590,1762.435 884.000 C 1841.611 794.900,1951.303 670.694,2006.195 607.987 C 2162.926 428.944,2160.000 432.915,2160.000 399.313 C 2160.000 361.210,2143.699 333.538,2109.419 313.448 C 2089.670 301.874,2051.268 297.376,2029.550 304.093 M2029.550 904.093 C 2008.512 910.600,1938.453 986.463,1548.678 1424.808 L 1350.558 1647.616 1205.575 1504.179 C 1050.636 1350.892,1007.377 1311.303,982.000 1299.572 C 963.268 1290.913,955.564 1290.462,927.844 1296.407 C 909.241 1300.397,901.924 1305.831,850.647 1353.740 C 763.980 1434.712,428.308 1767.918,341.784 1858.863 C 243.166 1962.520,235.263 1977.126,250.331 2027.865 C 259.134 2057.509,290.491 2088.866,320.135 2097.669 C 375.566 2114.131,379.284 2111.646,553.365 1941.824 C 632.914 1864.221,754.611 1743.942,823.803 1674.537 L 949.606 1548.347 1077.803 1675.242 C 1235.661 1831.497,1304.250 1894.250,1320.798 1897.560 C 1341.264 1901.653,1363.526 1900.306,1378.448 1894.071 C 1403.847 1883.458,1474.889 1807.590,1762.435 1484.000 C 1841.611 1394.900,1951.303 1270.694,2006.195 1207.987 C 2162.926 1028.944,2160.000 1032.915,2160.000 999.313 C 2160.000 961.210,2143.699 933.538,2109.419 913.448 C 2089.670 901.874,2051.268 897.376,2029.550 904.093 " fill="#1D1E23" stroke="none" fill-rule="evenodd"/></svg>