<svg viewBox="0 0 2400 2400" fill="none" xmlns="http://www.w3.org/2000/svg"><path d="M2034.000 601.341 C 2025.200 604.243,2013.814 609.178,2008.698 612.309 C 2003.582 615.439,1853.308 782.248,1674.755 982.996 L 1350.114 1347.992 1178.057 1176.333 C 1052.634 1051.200,1001.663 1002.892,990.000 998.103 C 965.413 988.007,928.694 989.459,905.360 1001.448 C 890.983 1008.836,805.042 1092.554,571.477 1326.698 C 272.738 1626.177,256.603 1643.082,249.971 1663.554 C 227.160 1733.974,276.882 1803.724,350.000 1803.873 C 395.840 1803.966,388.734 1810.119,681.943 1516.453 L 949.885 1248.092 1121.943 1419.565 C 1308.346 1605.335,1303.986 1601.828,1348.000 1601.379 C 1394.299 1600.907,1372.599 1622.824,1776.495 1168.598 C 2016.170 899.056,2147.852 747.972,2152.866 736.770 C 2164.333 711.149,2165.604 695.564,2158.278 670.363 C 2142.722 616.854,2084.693 584.625,2034.000 601.341 " fill="#1D1E23" stroke="none" fill-rule="evenodd"/></svg>