<svg viewBox="0 0 2400 2400" fill="none" xmlns="http://www.w3.org/2000/svg"><path d="M716.358 504.261 C 676.245 512.313,632.668 549.594,611.466 594.000 L 600.006 618.000 600.003 749.182 L 600.000 880.364 609.818 890.182 L 619.636 900.000 750.000 900.000 L 880.364 900.000 890.182 890.182 L 900.000 880.364 899.961 749.182 L 899.922 618.000 889.757 596.164 C 869.989 553.694,830.500 517.601,794.000 508.641 C 768.199 502.308,735.326 500.453,716.358 504.261 M1216.358 904.261 C 1176.245 912.313,1132.668 949.594,1111.466 994.000 L 1100.006 1018.000 1100.003 1100.710 L 1100.000 1183.419 1110.539 1191.710 C 1120.710 1199.709,1125.622 1200.000,1250.721 1200.000 L 1380.364 1200.000 1390.583 1189.781 L 1400.801 1179.562 1399.281 1096.781 C 1397.580 1004.198,1394.854 992.951,1365.410 957.018 C 1331.123 915.176,1269.913 893.511,1216.358 904.261 M621.290 1002.683 C 601.104 1006.849,602.000 983.709,602.000 1500.968 L 602.000 1984.707 611.443 1992.353 C 620.305 1999.529,628.835 2000.000,750.000 2000.000 C 871.165 2000.000,879.695 1999.529,888.557 1992.353 L 898.000 1984.707 898.000 1500.496 C 898.000 1041.133,897.634 1015.919,890.863 1009.143 C 884.336 1002.611,872.878 1001.952,756.863 1001.442 C 687.088 1001.136,626.081 1001.694,621.290 1002.683 M1121.290 1302.683 C 1101.322 1306.804,1102.000 1294.554,1102.000 1650.968 L 1102.000 1984.707 1111.443 1992.353 C 1120.305 1999.529,1128.835 2000.000,1250.000 2000.000 C 1371.165 2000.000,1379.695 1999.529,1388.557 1992.353 L 1398.000 1984.707 1398.000 1650.496 C 1398.000 1335.089,1397.598 1315.884,1390.863 1309.143 C 1384.336 1302.611,1372.878 1301.952,1256.863 1301.442 C 1187.088 1301.136,1126.081 1301.694,1121.290 1302.683 M1688.000 1314.582 C 1658.261 1329.506,1626.054 1362.423,1613.302 1390.927 C 1599.417 1421.962,1595.083 1482.936,1606.110 1492.097 C 1617.125 1501.247,1864.870 1503.086,1886.195 1494.176 L 1901.107 1487.946 1899.000 1452.973 C 1896.075 1404.437,1885.098 1377.374,1856.596 1348.438 C 1823.191 1314.524,1803.434 1306.276,1752.000 1304.771 C 1712.846 1303.625,1708.509 1304.289,1688.000 1314.582 M1620.032 1603.467 C 1600.258 1609.177,1599.915 1612.815,1600.994 1805.356 L 1602.000 1984.712 1611.443 1992.356 C 1620.304 1999.528,1628.851 2000.000,1750.000 2000.000 C 1871.165 2000.000,1879.695 1999.529,1888.557 1992.353 L 1898.000 1984.707 1898.000 1800.496 C 1898.000 1629.044,1897.506 1615.791,1890.863 1609.143 C 1884.343 1602.617,1872.761 1601.939,1756.863 1601.295 C 1687.088 1600.907,1625.514 1601.884,1620.032 1603.467 " fill="#1D1E23" stroke="none" fill-rule="evenodd"/></svg>