<svg viewBox="0 0 2400 2400" fill="none" xmlns="http://www.w3.org/2000/svg"><path d="M2029.550 604.093 C 2008.512 610.600,1938.453 686.463,1548.678 1124.808 L 1350.558 1347.616 1205.575 1204.179 C 1050.636 1050.892,1007.377 1011.303,982.000 999.572 C 963.268 990.913,955.564 990.462,927.844 996.407 C 909.241 1000.397,901.924 1005.831,850.647 1053.740 C 763.980 1134.712,428.308 1467.918,341.784 1558.863 C 243.166 1662.520,235.263 1677.126,250.331 1727.865 C 259.134 1757.509,290.491 1788.866,320.135 1797.669 C 375.566 1814.131,379.284 1811.646,553.365 1641.824 C 632.914 1564.221,754.611 1443.942,823.803 1374.537 L 949.606 1248.347 1077.803 1375.242 C 1235.661 1531.497,1304.250 1594.250,1320.798 1597.560 C 1341.264 1601.653,1363.526 1600.306,1378.448 1594.071 C 1403.847 1583.458,1474.889 1507.590,1762.435 1184.000 C 1841.611 1094.900,1951.303 970.694,2006.195 907.987 C 2162.926 728.944,2160.000 732.915,2160.000 699.313 C 2160.000 661.210,2143.699 633.538,2109.419 613.448 C 2089.670 601.874,2051.268 597.376,2029.550 604.093 " fill="#1D1E23" stroke="none" fill-rule="evenodd"/></svg>