<svg viewBox="0 0 2400 2400" fill="none" xmlns="http://www.w3.org/2000/svg"><path d="M266.363 206.293 C 243.583 214.639,225.689 229.702,213.089 251.136 L 202.000 270.000 200.966 1191.447 C 200.264 1817.514,201.260 2117.826,204.075 2128.279 C 210.094 2150.631,231.250 2176.110,253.149 2187.380 C 293.162 2207.971,338.975 2201.235,370.014 2170.196 C 402.758 2137.453,400.000 2226.682,400.000 1200.000 C 400.000 173.559,402.742 262.531,370.105 229.895 C 342.868 202.658,301.791 193.312,266.363 206.293 M666.363 606.293 C 643.583 614.639,625.689 629.702,613.089 651.136 C 603.633 667.222,602.000 674.417,602.000 700.000 C 602.000 725.583,603.633 732.778,613.089 748.864 C 619.188 759.240,630.112 772.255,637.364 777.786 C 667.988 801.144,639.019 800.000,1199.790 800.000 C 1778.295 800.000,1738.104 802.107,1770.105 770.105 C 1809.232 730.979,1809.232 669.021,1770.105 629.895 C 1738.079 597.868,1778.565 599.965,1198.287 600.282 C 760.655 600.521,679.618 601.437,666.363 606.293 M666.363 1106.293 C 643.583 1114.639,625.689 1129.702,613.089 1151.136 C 603.633 1167.222,602.000 1174.417,602.000 1200.000 C 602.000 1225.583,603.633 1232.778,613.089 1248.864 C 619.188 1259.240,630.112 1272.255,637.364 1277.786 C 668.330 1301.405,620.110 1300.000,1399.790 1300.000 C 2202.340 1300.000,2137.702 1302.509,2170.105 1270.105 C 2209.232 1230.979,2209.232 1169.021,2170.105 1129.895 C 2137.685 1097.474,2202.614 1099.965,1398.287 1100.282 C 787.073 1100.522,679.706 1101.404,666.363 1106.293 M1066.363 1606.293 C 1043.583 1614.639,1025.689 1629.702,1013.089 1651.136 C 1003.633 1667.222,1002.000 1674.417,1002.000 1700.000 C 1002.000 1725.583,1003.633 1732.778,1013.089 1748.864 C 1019.188 1759.240,1030.112 1772.255,1037.364 1777.786 C 1067.702 1800.926,1048.428 1800.000,1499.790 1800.000 C 1966.336 1800.000,1938.437 1801.773,1970.105 1770.105 C 2009.232 1730.979,2009.232 1669.021,1970.105 1629.895 C 1938.406 1598.195,1966.601 1599.965,1498.287 1600.282 C 1147.448 1600.519,1079.542 1601.464,1066.363 1606.293 " fill="#1D1E23" stroke="none" fill-rule="evenodd"/></svg>