<svg viewBox="0 0 2400 2400" fill="none" xmlns="http://www.w3.org/2000/svg"><path d="M1026.598 210.391 C 552.272 296.085,200.027 717.809,200.027 1200.000 C 200.027 1643.782,499.640 2042.226,926.435 2166.024 C 970.767 2178.883,1054.392 2196.000,1072.883 2196.000 C 1100.284 2196.000,1100.000 2197.596,1100.000 2043.450 C 1100.000 1939.419,1098.771 1903.853,1095.000 1898.706 C 1092.040 1894.667,1072.050 1887.167,1046.000 1880.322 C 872.738 1834.797,715.764 1719.836,613.199 1563.358 C 499.807 1390.360,471.078 1190.933,532.418 1002.600 C 607.362 772.496,815.712 577.994,1051.346 518.160 C 1074.276 512.337,1091.879 505.578,1094.911 501.430 C 1098.798 496.115,1100.000 461.724,1100.000 355.855 C 1100.000 226.647,1099.504 216.791,1092.685 210.620 C 1084.013 202.772,1069.060 202.720,1026.598 210.391 M1307.000 210.853 C 1300.619 217.942,1300.000 230.827,1300.000 356.550 C 1300.000 461.938,1301.202 496.114,1305.095 501.438 C 1308.373 505.921,1327.527 512.553,1358.814 520.036 C 1483.427 549.843,1592.764 610.293,1687.365 701.685 C 1789.470 800.327,1855.697 915.949,1887.726 1051.486 C 1900.168 1104.135,1886.677 1100.000,2046.000 1100.000 C 2207.709 1100.000,2198.874 1102.568,2194.621 1056.805 C 2188.845 994.653,2164.596 896.819,2135.432 818.000 C 2064.594 626.553,1925.328 455.153,1754.602 349.298 C 1710.651 322.047,1618.959 277.517,1572.000 260.618 C 1499.907 234.674,1401.247 211.095,1342.000 205.649 C 1317.398 203.388,1313.150 204.019,1307.000 210.853 M1902.439 1307.514 C 1898.699 1311.647,1892.078 1330.097,1887.726 1348.514 C 1863.280 1451.961,1816.181 1548.693,1750.498 1630.350 C 1715.484 1673.880,1649.695 1736.021,1603.680 1769.027 C 1533.935 1819.055,1431.672 1864.524,1346.121 1883.546 C 1323.737 1888.522,1308.315 1894.157,1305.121 1898.526 C 1301.193 1903.898,1300.000 1937.823,1300.000 2044.145 C 1300.000 2207.974,1297.389 2198.878,1343.195 2194.621 C 1405.480 2188.832,1503.480 2164.523,1582.000 2135.384 C 1837.724 2040.485,2040.485 1837.724,2135.384 1582.000 C 2164.975 1502.262,2189.396 1403.204,2194.650 1341.602 C 2198.372 1297.966,2205.749 1300.000,2043.730 1300.000 C 1917.217 1300.000,1908.837 1300.446,1902.439 1307.514 " fill="#1D1E23" stroke="none" fill-rule="evenodd"/></svg>