<svg viewBox="0 0 2400 2400" fill="none" xmlns="http://www.w3.org/2000/svg"><path d="M630.000 303.853 L 446.000 306.000 414.898 321.199 C 372.974 341.687,342.148 372.239,321.857 413.412 C 307.722 442.092,306.123 448.701,303.467 489.412 C 299.672 547.583,299.672 1852.417,303.467 1910.588 C 306.115 1951.178,307.743 1957.942,321.620 1986.020 C 341.843 2026.938,373.089 2058.170,414.060 2078.419 C 442.639 2092.544,448.510 2093.919,491.492 2096.548 C 552.161 2100.260,1847.839 2100.260,1908.508 2096.548 C 1951.490 2093.919,1957.361 2092.544,1985.940 2078.419 C 2026.884 2058.184,2058.159 2026.934,2078.346 1986.089 C 2092.951 1956.536,2093.690 1953.063,2096.932 1898.657 C 2098.789 1867.496,2099.789 1530.600,2099.154 1150.000 L 2098.000 458.000 2088.375 434.000 C 2067.128 381.025,2034.163 345.655,1982.797 320.722 L 1950.000 304.803 1382.000 303.254 C 1069.600 302.402,731.200 302.671,630.000 303.853 M1241.345 710.668 C 1262.290 721.455,1280.111 736.611,1286.598 749.156 C 1298.139 771.475,1300.372 865.278,1299.178 1277.685 L 1298.000 1684.710 1288.557 1692.355 C 1279.971 1699.306,1271.929 1700.000,1200.000 1700.000 C 1128.071 1700.000,1120.029 1699.306,1111.443 1692.355 L 1102.000 1684.710 1100.822 1277.685 C 1099.587 851.113,1101.719 769.487,1114.678 747.312 C 1122.951 733.156,1154.538 709.949,1173.434 704.143 C 1189.952 699.068,1225.441 702.478,1241.345 710.668 M844.190 1012.097 C 866.870 1023.668,886.925 1045.465,892.838 1064.971 C 896.858 1078.231,898.000 1148.694,898.000 1383.352 L 898.000 1684.703 888.557 1692.352 C 879.970 1699.307,871.942 1700.000,800.000 1700.000 C 728.074 1700.000,720.028 1699.306,711.443 1692.356 L 702.000 1684.711 700.811 1417.356 C 699.527 1128.807,701.919 1068.784,715.580 1046.680 C 725.130 1031.228,748.463 1013.846,770.792 1005.550 C 790.024 998.404,823.140 1001.358,844.190 1012.097 M1643.296 1311.719 C 1660.771 1320.727,1680.243 1340.622,1690.552 1360.000 C 1697.448 1372.962,1698.000 1385.519,1698.000 1529.349 L 1698.000 1684.697 1688.557 1692.349 C 1679.968 1699.308,1671.955 1700.000,1600.000 1700.000 C 1528.084 1700.000,1520.027 1699.305,1511.443 1692.358 L 1502.000 1684.716 1500.792 1556.418 C 1499.372 1405.497,1502.459 1366.371,1517.485 1344.864 C 1545.635 1304.573,1601.091 1289.963,1643.296 1311.719 " fill="#1D1E23" stroke="none" fill-rule="evenodd"/></svg>