<svg viewBox="0 0 2400 2400" fill="none" xmlns="http://www.w3.org/2000/svg"><path d="M702.000 508.693 C 667.691 521.744,632.221 554.668,612.396 591.862 L 600.000 615.120 600.000 748.863 L 600.000 882.605 609.258 891.303 C 618.377 899.870,620.492 900.000,750.561 900.000 L 882.605 900.000 891.303 890.742 C 899.873 881.620,900.000 879.538,900.000 748.302 L 900.000 615.120 887.416 591.509 C 871.490 561.629,841.362 530.872,814.690 517.266 C 797.223 508.355,787.769 506.510,754.000 505.419 C 730.429 504.658,709.071 506.003,702.000 508.693 M1202.000 908.721 C 1167.790 921.654,1132.232 954.647,1112.396 991.862 L 1100.000 1015.120 1100.000 1098.940 C 1100.000 1179.055,1100.372 1183.097,1108.414 1190.380 C 1116.274 1197.497,1125.553 1198.076,1248.989 1199.157 C 1415.218 1200.613,1400.032 1208.748,1399.921 1118.303 C 1399.829 1043.494,1395.313 1006.175,1383.566 983.150 C 1371.769 960.026,1341.742 932.105,1313.748 918.229 C 1293.332 908.110,1284.668 906.298,1252.000 905.321 C 1230.423 904.676,1208.814 906.146,1202.000 908.721 M642.271 1003.522 C 611.362 1005.936,610.443 1006.310,606.735 1018.000 C 604.460 1025.173,602.180 1221.486,601.067 1506.021 L 599.206 1982.041 608.023 1990.021 C 616.461 1997.657,622.569 1998.000,750.000 1998.000 C 877.520 1998.000,883.534 1997.661,891.995 1990.005 L 900.829 1982.010 899.103 1502.005 C 898.153 1238.002,896.000 1018.919,894.319 1015.152 C 892.637 1011.386,888.277 1007.469,884.630 1006.447 C 873.347 1003.286,675.824 1000.902,642.271 1003.522 M1142.836 1302.765 C 1113.387 1304.256,1111.422 1304.938,1107.135 1315.171 C 1103.926 1322.829,1102.097 1422.042,1100.888 1654.008 L 1099.178 1982.016 1108.009 1990.008 C 1116.465 1997.660,1122.498 1998.000,1250.000 1998.000 C 1377.546 1998.000,1383.533 1997.663,1392.002 1990.000 L 1400.844 1982.000 1399.096 1652.000 C 1398.134 1470.500,1395.978 1318.919,1394.304 1315.152 C 1392.630 1311.386,1388.277 1307.469,1384.630 1306.447 C 1375.283 1303.828,1180.447 1300.862,1142.836 1302.765 M1702.000 1309.028 C 1676.609 1319.587,1664.594 1328.345,1641.215 1353.338 C 1612.771 1383.745,1604.320 1404.188,1601.174 1450.200 C 1598.241 1493.096,1599.646 1494.388,1653.219 1498.040 C 1717.173 1502.399,1880.205 1498.766,1891.000 1492.742 C 1898.607 1488.496,1900.000 1484.366,1900.000 1466.056 C 1900.000 1416.412,1885.614 1378.834,1854.676 1347.662 C 1824.952 1317.714,1801.698 1308.126,1753.317 1305.871 C 1727.071 1304.648,1710.011 1305.697,1702.000 1309.028 M1643.051 1602.691 C 1616.257 1604.114,1611.424 1605.520,1607.051 1613.167 C 1603.241 1619.830,1601.700 1666.272,1600.779 1802.180 L 1599.559 1982.361 1608.199 1990.180 C 1616.409 1997.610,1623.477 1998.000,1750.000 1998.000 C 1877.547 1998.000,1883.533 1997.663,1892.000 1990.000 L 1900.840 1982.000 1899.092 1802.000 C 1898.130 1703.000,1896.002 1618.989,1894.362 1615.309 C 1892.723 1611.629,1889.023 1607.714,1886.141 1606.607 C 1878.944 1603.846,1681.278 1600.662,1643.051 1602.691 " fill="#1D1E23" stroke="none" fill-rule="evenodd"/></svg>