<svg viewBox="0 0 2400 2400" fill="none" xmlns="http://www.w3.org/2000/svg"><path d="M2034.000 301.341 C 2025.200 304.243,2013.814 309.178,2008.698 312.309 C 2003.582 315.439,1853.308 482.248,1674.755 682.996 L 1350.114 1047.992 1178.057 876.333 C 1052.634 751.200,1001.663 702.892,990.000 698.103 C 967.285 688.776,929.136 689.545,907.389 699.767 C 894.387 705.879,807.284 790.697,573.377 1025.017 C 272.715 1326.209,256.605 1343.074,249.971 1363.554 C 227.160 1433.975,276.882 1503.724,350.000 1503.873 C 395.840 1503.966,388.734 1510.119,681.943 1216.453 L 949.885 948.092 1121.943 1119.565 C 1308.346 1305.335,1303.986 1301.828,1348.000 1301.379 C 1394.299 1300.907,1372.599 1322.824,1776.495 868.598 C 2016.170 599.056,2147.852 447.972,2152.866 436.770 C 2164.333 411.149,2165.604 395.564,2158.278 370.363 C 2142.722 316.854,2084.693 284.625,2034.000 301.341 M2034.000 901.341 C 2025.200 904.243,2013.814 909.178,2008.698 912.309 C 2003.582 915.439,1853.308 1082.248,1674.755 1282.996 L 1350.114 1647.992 1178.057 1476.333 C 1052.634 1351.200,1001.663 1302.892,990.000 1298.103 C 965.413 1288.007,928.694 1289.459,905.360 1301.448 C 890.983 1308.836,805.042 1392.554,571.477 1626.698 C 272.738 1926.177,256.603 1943.082,249.971 1963.554 C 227.160 2033.974,276.882 2103.724,350.000 2103.873 C 395.840 2103.966,388.734 2110.119,681.943 1816.453 L 949.885 1548.092 1121.943 1719.565 C 1308.346 1905.335,1303.986 1901.828,1348.000 1901.379 C 1394.299 1900.907,1372.599 1922.824,1776.495 1468.598 C 2016.170 1199.056,2147.852 1047.972,2152.866 1036.770 C 2164.333 1011.149,2165.604 995.564,2158.278 970.363 C 2142.722 916.854,2084.693 884.625,2034.000 901.341 " fill="#1D1E23" stroke="none" fill-rule="evenodd"/></svg>