<svg viewBox="0 0 2400 2400" fill="none" xmlns="http://www.w3.org/2000/svg"><path d="M1458.000 404.581 C 1354.830 417.731,1257.075 466.215,1181.645 541.645 C 1113.716 609.573,1071.570 686.997,1049.363 784.649 C 1040.096 825.401,1040.096 934.599,1049.363 975.351 C 1071.570 1073.003,1113.716 1150.427,1181.645 1218.355 C 1249.609 1286.319,1327.405 1328.651,1424.649 1350.582 C 1465.321 1359.755,1574.679 1359.755,1615.351 1350.582 C 1712.595 1328.651,1790.391 1286.319,1858.355 1218.355 C 1926.319 1150.391,1968.651 1072.595,1990.582 975.351 C 1999.755 934.679,1999.755 825.321,1990.582 784.649 C 1968.651 687.405,1926.319 609.609,1858.355 541.645 C 1752.408 435.698,1606.303 385.678,1458.000 404.581 M668.000 1124.528 C 514.734 1149.555,400.139 1284.519,400.139 1440.000 C 400.139 1580.838,489.777 1701.363,628.000 1746.373 C 658.781 1756.397,667.492 1757.445,720.000 1757.445 C 772.508 1757.445,781.219 1756.397,812.000 1746.373 C 918.030 1711.846,991.846 1638.030,1026.373 1532.000 C 1036.397 1501.219,1037.445 1492.508,1037.445 1440.000 C 1037.445 1387.492,1036.397 1378.781,1026.373 1348.000 C 975.504 1191.786,826.214 1098.693,668.000 1124.528 M1442.000 1603.893 C 1357.572 1622.592,1296.186 1686.662,1283.303 1769.530 C 1266.414 1878.162,1340.779 1979.790,1449.530 1996.697 C 1558.162 2013.586,1659.790 1939.221,1676.697 1830.470 C 1691.451 1735.573,1635.820 1643.115,1544.995 1611.582 C 1518.970 1602.547,1465.949 1598.588,1442.000 1603.893 " fill="#1D1E23" stroke="none" fill-rule="evenodd"/></svg>