<svg viewBox="0 0 2400 2400" fill="none" xmlns="http://www.w3.org/2000/svg"><path d="M2019.104 608.219 C 2003.080 616.680,1889.424 741.469,1550.068 1123.195 L 1350.136 1348.090 1224.068 1222.777 C 992.728 992.821,988.144 989.062,943.957 993.069 C 931.494 994.199,915.257 998.247,907.875 1002.064 C 882.845 1015.008,342.385 1550.749,278.820 1625.628 C 248.834 1660.950,241.764 1678.914,245.819 1709.479 C 252.198 1757.570,290.185 1796.066,337.684 1802.577 C 365.015 1806.323,381.396 1801.345,408.793 1780.966 C 422.657 1770.653,550.176 1646.577,692.169 1505.240 L 950.339 1248.264 1030.169 1328.507 C 1161.263 1460.278,1296.626 1588.670,1310.627 1594.520 C 1328.472 1601.976,1365.545 1601.475,1380.827 1593.572 C 1408.192 1579.421,1472.465 1510.424,1764.222 1182.000 C 2064.219 844.300,2142.957 753.318,2154.561 730.965 C 2164.092 712.606,2163.318 678.001,2152.923 657.727 C 2142.842 638.066,2117.486 614.400,2097.601 606.091 C 2076.860 597.425,2037.527 598.491,2019.104 608.219 " fill="#1D1E23" stroke="none" fill-rule="evenodd"/></svg>