<svg viewBox="0 0 2400 2400" fill="none" xmlns="http://www.w3.org/2000/svg"><path d="M700 1800C479 1800 300 1621 300 1400C300 1179 479 1000 700 1000C921 1000 1100 1179 1100 1400C1100 1621 921 1800 700 1800ZM700 1200C590 1200 500 1290 500 1400C500 1510 590 1600 700 1600C810 1600 900 1510 900 1400C900 1290 810 1200 700 1200ZM1100 1000C879 1000 700 821 700 600C700 379 879 200 1100 200C1321 200 1500 379 1500 600C1500 821 1321 1000 1100 1000ZM1100 400C990 400 900 490 900 600C900 710 990 800 1100 800C1210 800 1300 710 1300 600C1300 490 1210 400 1100 400ZM1660 2160C1439 2160 1260 1981 1260 1760C1260 1539 1439 1360 1660 1360C1881 1360 2060 1539 2060 1760C2060 1981 1881 2160 1660 2160ZM1660 1560C1550 1560 1460 1650 1460 1760C1460 1870 1550 1960 1660 1960C1770 1960 1860 1870 1860 1760C1860 1650 1770 1560 1660 1560Z" fill="#1D1E23"/></svg>