<svg viewBox="0 0 2400 2400" fill="none" xmlns="http://www.w3.org/2000/svg"><path d="M837.554 241.762 C 833.029 244.931,817.779 272.381,803.664 302.762 C 789.549 333.143,768.100 377.579,756.000 401.509 L 734.000 445.019 649.881 483.627 C 548.563 530.128,538.372 535.849,536.730 547.143 C 534.538 562.220,553.141 573.859,647.886 616.687 L 739.279 658.000 775.891 738.000 C 816.665 827.096,834.291 858.918,844.693 862.220 C 863.040 868.043,869.940 857.070,926.217 732.568 C 944.481 692.161,961.029 660.953,965.801 657.914 C 970.310 655.042,1014.186 634.265,1063.303 611.743 C 1154.788 569.793,1167.437 561.129,1162.036 544.113 C 1158.993 534.526,1145.360 527.208,1042.000 479.677 C 978.749 450.591,964.736 442.606,958.467 432.082 C 954.324 425.126,933.126 381.312,911.361 334.718 C 865.834 237.254,858.027 227.422,837.554 241.762 M1485.872 642.700 C 1479.727 648.844,1424.444 760.159,1412.046 791.349 C 1407.230 803.467,1399.533 808.178,1328.604 842.423 C 1285.629 863.171,1247.212 883.093,1243.234 886.694 C 1223.841 904.244,1238.911 916.943,1328.386 958.453 C 1364.474 975.195,1397.802 992.742,1402.449 997.446 C 1407.096 1002.151,1424.175 1034.672,1440.402 1069.716 C 1456.630 1104.759,1474.971 1140.422,1481.160 1148.967 C 1502.766 1178.793,1514.580 1166.720,1560.393 1068.000 C 1576.217 1033.900,1592.953 1002.151,1597.582 997.446 C 1602.212 992.742,1635.526 975.195,1671.614 958.453 C 1761.089 916.943,1776.159 904.244,1756.766 886.694 C 1752.788 883.093,1714.371 863.171,1671.396 842.423 C 1600.467 808.178,1592.770 803.467,1587.954 791.349 C 1575.556 760.159,1520.273 648.844,1514.128 642.700 C 1505.582 634.153,1494.418 634.153,1485.872 642.700 M2133.275 804.166 C 2106.419 812.439,2073.791 847.347,1698.641 1269.159 L 1450.364 1548.318 1322.182 1420.984 C 1094.608 1194.916,1091.493 1192.279,1051.785 1192.088 C 1016.344 1191.917,999.940 1204.401,870.356 1330.163 C 647.339 1546.601,365.772 1834.266,352.300 1859.439 C 349.725 1864.251,347.578 1880.919,347.529 1896.480 C 347.416 1932.108,360.501 1961.319,385.892 1982.126 C 406.671 1999.152,421.848 2004.000,454.373 2004.000 C 475.005 2004.000,481.299 2002.189,494.888 1992.346 C 515.867 1977.149,601.120 1894.988,798.000 1700.229 C 886.000 1613.177,979.160 1521.283,1005.022 1496.020 L 1052.043 1450.087 1187.022 1584.160 C 1261.260 1657.900,1340.000 1735.503,1362.000 1756.612 C 1401.966 1794.959,1402.025 1794.996,1430.572 1800.060 C 1457.412 1804.821,1460.233 1804.601,1477.113 1796.429 C 1503.080 1783.859,1571.200 1712.205,1774.134 1484.000 C 2141.025 1071.419,2242.013 955.471,2253.167 934.000 C 2275.011 891.953,2253.356 835.139,2206.342 811.154 C 2188.228 801.913,2151.876 798.436,2133.275 804.166 M385.872 842.700 C 379.727 848.844,324.444 960.159,312.046 991.349 C 307.230 1003.467,299.533 1008.178,228.604 1042.423 C 185.629 1063.171,147.212 1083.093,143.234 1086.694 C 123.841 1104.244,138.911 1116.943,228.386 1158.453 C 264.474 1175.195,297.802 1192.742,302.449 1197.446 C 307.096 1202.151,324.175 1234.672,340.402 1269.716 C 356.630 1304.759,374.971 1340.422,381.160 1348.967 C 402.766 1378.793,414.580 1366.720,460.393 1268.000 C 476.217 1233.900,492.953 1202.151,497.582 1197.446 C 502.212 1192.742,535.526 1175.195,571.614 1158.453 C 661.089 1116.943,676.159 1104.244,656.766 1086.694 C 652.788 1083.093,614.371 1063.171,571.396 1042.423 C 500.467 1008.178,492.770 1003.467,487.954 991.349 C 475.556 960.159,420.273 848.844,414.128 842.700 C 405.582 834.153,394.418 834.153,385.872 842.700 " fill="#1D1E23" stroke="none" fill-rule="evenodd"/></svg>