<svg viewBox="0 0 2400 2400" fill="none" xmlns="http://www.w3.org/2000/svg"><path d="M1154.792 509.776 C 1122.600 521.258,1096.688 544.424,1074.269 581.765 L 1060.000 605.529 1060.000 1244.672 L 1060.000 1883.816 1070.824 1890.908 C 1080.570 1897.294,1093.434 1898.000,1200.000 1898.000 C 1306.566 1898.000,1319.430 1897.294,1329.176 1890.908 L 1340.000 1883.816 1339.962 1244.908 L 1339.925 606.000 1327.520 584.367 C 1312.257 557.749,1283.129 528.188,1262.651 518.531 C 1233.825 504.939,1180.491 500.609,1154.792 509.776 M611.589 927.597 C 578.524 934.371,539.885 966.985,514.244 1009.765 L 500.000 1033.529 500.000 1458.672 L 500.000 1883.816 510.824 1890.908 C 520.618 1897.325,533.861 1898.000,650.000 1898.000 C 766.139 1898.000,779.382 1897.325,789.176 1890.908 L 800.000 1883.816 800.000 1459.775 L 800.000 1035.734 790.106 1016.210 C 775.698 987.777,739.122 950.063,714.710 938.468 C 692.146 927.751,638.462 922.092,611.589 927.597 M1714.792 1309.776 C 1682.600 1321.258,1656.688 1344.424,1634.269 1381.765 L 1620.000 1405.529 1620.000 1638.504 C 1620.000 1778.445,1621.541 1875.532,1623.859 1881.628 C 1626.126 1887.592,1632.311 1893.060,1638.859 1894.888 C 1653.377 1898.943,1866.623 1898.943,1881.141 1894.888 C 1887.689 1893.060,1893.874 1887.592,1896.141 1881.628 C 1898.461 1875.528,1899.985 1778.628,1899.962 1638.740 L 1899.925 1406.000 1887.520 1384.367 C 1872.257 1357.749,1843.129 1328.188,1822.651 1318.531 C 1793.825 1304.939,1740.491 1300.609,1714.792 1309.776 " fill="#1D1E23" stroke="none" fill-rule="evenodd"/></svg>