<svg viewBox="0 0 2400 2400" fill="none" xmlns="http://www.w3.org/2000/svg"><path d="M1574.000 306.141 C 1409.019 336.593,1278.336 419.088,1195.446 545.106 C 1154.503 607.351,1128.113 668.850,1111.596 740.507 C 1100.240 789.774,1099.202 904.640,1109.675 953.191 C 1136.270 1076.492,1203.957 1192.599,1292.000 1265.946 C 1490.270 1431.120,1761.464 1443.516,1967.752 1296.833 C 2003.223 1271.612,2066.136 1208.588,2094.860 1169.501 C 2141.418 1106.148,2176.836 1023.501,2190.643 946.000 C 2200.206 892.318,2199.283 792.825,2188.769 744.000 C 2164.778 632.592,2115.278 542.179,2034.375 462.000 C 1969.190 397.398,1905.424 357.629,1822.641 329.948 C 1754.174 307.054,1632.285 295.383,1574.000 306.141 M1712.000 508.260 C 1825.097 526.528,1930.575 614.375,1976.552 728.593 L 1990.000 762.000 1991.219 844.286 L 1992.437 926.572 1980.376 959.620 C 1940.271 1069.511,1861.756 1146.763,1752.000 1184.324 C 1731.323 1191.400,1714.006 1193.605,1667.417 1195.094 C 1598.295 1197.303,1567.148 1192.848,1521.169 1174.173 C 1425.839 1135.455,1353.998 1057.408,1319.257 954.817 C 1308.540 923.169,1306.524 910.654,1304.896 865.674 C 1302.699 804.966,1309.311 763.591,1328.637 717.120 C 1369.384 619.136,1459.928 540.430,1564.000 512.528 C 1598.298 503.333,1668.892 501.297,1712.000 508.260 M622.000 1008.476 C 531.016 1032.250,468.241 1067.518,411.896 1126.515 C 360.860 1179.954,325.536 1246.124,309.675 1318.000 C 298.587 1368.245,300.103 1447.376,313.093 1496.476 C 351.652 1642.211,457.617 1748.278,603.177 1786.834 C 656.600 1800.985,736.834 1801.835,789.228 1788.803 C 865.937 1769.725,930.999 1732.560,984.301 1677.373 C 1062.463 1596.447,1097.551 1509.102,1097.332 1396.000 C 1097.225 1340.574,1089.948 1304.239,1067.895 1249.021 C 1032.715 1160.938,962.580 1086.581,872.422 1041.782 C 816.698 1014.093,786.271 1007.509,706.000 1005.769 C 666.402 1004.910,631.317 1006.041,622.000 1008.476 M751.067 1210.460 C 802.208 1223.747,844.913 1257.473,874.471 1307.916 L 892.000 1337.833 892.000 1400.000 L 892.000 1462.167 874.410 1492.084 C 840.057 1550.511,789.951 1586.587,729.000 1596.779 C 650.840 1609.849,570.206 1568.433,525.663 1492.341 L 508.000 1462.167 508.000 1400.000 L 508.000 1337.833 525.663 1307.659 C 554.748 1257.972,602.086 1220.072,652.419 1206.175 C 676.460 1199.536,715.559 1201.235,751.067 1210.460 M1445.608 1507.720 C 1345.983 1523.639,1251.798 1605.561,1217.647 1706.000 C 1197.606 1764.942,1199.793 1849.735,1222.858 1908.000 C 1250.025 1976.628,1313.444 2043.856,1377.924 2072.378 C 1430.325 2095.558,1513.283 2103.298,1569.522 2090.256 C 1657.300 2069.899,1732.661 2007.563,1771.829 1922.915 C 1792.784 1877.627,1797.826 1853.608,1797.629 1800.000 C 1797.356 1725.395,1776.711 1665.838,1733.205 1614.144 C 1695.678 1569.554,1636.500 1529.439,1584.000 1513.003 C 1562.866 1506.386,1474.956 1503.030,1445.608 1507.720 M1539.128 1710.203 C 1558.065 1718.101,1578.359 1737.523,1589.072 1758.000 C 1601.961 1782.638,1600.530 1820.593,1585.685 1847.870 C 1565.953 1884.124,1538.587 1897.953,1491.807 1895.310 C 1458.297 1893.416,1436.583 1880.114,1418.095 1850.152 C 1407.323 1832.696,1406.030 1827.239,1406.276 1800.276 C 1406.683 1755.675,1418.073 1735.995,1456.000 1714.363 C 1477.429 1702.141,1515.260 1700.248,1539.128 1710.203 " fill="#1D1E23" stroke="none" fill-rule="evenodd"/></svg>