<svg viewBox="0 0 2400 2400" fill="none" xmlns="http://www.w3.org/2000/svg"><path d="M1000.000 215.877 C 956.903 227.334,887.558 263.107,849.006 293.769 C 777.394 350.725,724.719 439.956,707.820 532.936 C 701.485 567.792,702.426 640.427,709.654 674.554 C 727.200 757.392,762.172 822.780,819.696 880.304 C 871.860 932.468,933.721 967.554,1007.177 986.636 C 1039.279 994.976,1055.349 996.733,1100.000 996.785 C 1169.045 996.865,1213.855 986.041,1279.640 953.389 C 1320.448 933.135,1329.900 926.273,1368.907 888.587 C 1420.598 838.647,1453.502 791.901,1470.917 743.661 C 1490.335 689.874,1493.840 667.622,1493.864 598.000 C 1493.883 543.617,1492.500 528.891,1484.661 500.000 C 1473.195 457.738,1449.662 406.942,1426.577 374.626 C 1389.329 322.482,1316.361 262.171,1259.122 236.218 C 1212.827 215.227,1192.097 211.586,1108.000 209.674 C 1039.175 208.109,1026.471 208.839,1000.000 215.877 M1136.437 408.083 C 1188.313 417.921,1237.672 453.937,1272.703 507.513 L 1292.000 537.026 1292.000 600.000 L 1292.000 662.974 1272.686 692.487 C 1214.279 781.739,1127.558 817.436,1041.265 787.747 C 997.357 772.640,958.895 740.468,927.383 692.487 L 908.000 662.974 908.000 600.000 L 908.000 537.026 927.397 507.513 C 960.934 456.488,1008.435 418.371,1050.984 408.343 C 1072.045 403.379,1111.009 403.261,1136.437 408.083 M600.000 1015.877 C 556.903 1027.334,487.558 1063.107,449.006 1093.769 C 377.394 1150.725,324.719 1239.956,307.820 1332.936 C 301.485 1367.792,302.426 1440.427,309.654 1474.554 C 327.200 1557.392,362.172 1622.780,419.696 1680.304 C 471.860 1732.468,533.721 1767.554,607.177 1786.636 C 639.279 1794.976,655.349 1796.733,700.000 1796.785 C 769.045 1796.865,813.855 1786.041,879.640 1753.389 C 920.448 1733.135,929.900 1726.273,968.907 1688.587 C 1020.598 1638.647,1053.502 1591.901,1070.917 1543.661 C 1090.335 1489.874,1093.840 1467.622,1093.864 1398.000 C 1093.883 1343.617,1092.500 1328.891,1084.661 1300.000 C 1073.195 1257.738,1049.662 1206.942,1026.577 1174.626 C 989.329 1122.482,916.361 1062.171,859.122 1036.218 C 812.827 1015.227,792.097 1011.586,708.000 1009.674 C 639.175 1008.109,626.471 1008.839,600.000 1015.877 M736.437 1208.083 C 788.313 1217.921,837.672 1253.937,872.703 1307.513 L 892.000 1337.026 892.000 1400.000 L 892.000 1462.974 872.603 1492.487 C 829.840 1557.551,779.522 1590.669,711.773 1598.341 C 647.843 1605.581,573.347 1562.831,527.314 1492.487 L 508.000 1462.974 508.000 1400.000 L 508.000 1337.026 527.397 1307.513 C 560.934 1256.488,608.435 1218.371,650.984 1208.343 C 672.045 1203.379,711.009 1203.261,736.437 1208.083 M1560.000 1375.877 C 1516.903 1387.334,1447.558 1423.107,1409.006 1453.769 C 1337.394 1510.725,1284.719 1599.956,1267.820 1692.936 C 1261.485 1727.792,1262.426 1800.427,1269.654 1834.554 C 1287.200 1917.392,1322.172 1982.780,1379.696 2040.304 C 1431.860 2092.468,1493.721 2127.554,1567.177 2146.636 C 1599.279 2154.976,1615.349 2156.733,1660.000 2156.785 C 1729.045 2156.865,1773.855 2146.041,1839.640 2113.389 C 1880.448 2093.135,1889.900 2086.273,1928.907 2048.587 C 1980.598 1998.647,2013.502 1951.901,2030.917 1903.661 C 2050.335 1849.874,2053.840 1827.622,2053.864 1758.000 C 2053.883 1703.617,2052.500 1688.891,2044.661 1660.000 C 2033.195 1617.738,2009.662 1566.942,1986.577 1534.626 C 1949.329 1482.482,1876.361 1422.171,1819.122 1396.218 C 1772.827 1375.227,1752.097 1371.586,1668.000 1369.674 C 1599.175 1368.109,1586.471 1368.839,1560.000 1375.877 M1696.437 1568.083 C 1748.313 1577.921,1797.672 1613.937,1832.703 1667.513 L 1852.000 1697.026 1852.000 1760.000 L 1852.000 1822.974 1832.603 1852.487 C 1789.840 1917.551,1739.522 1950.669,1671.773 1958.341 C 1607.843 1965.581,1533.347 1922.831,1487.314 1852.487 L 1468.000 1822.974 1468.000 1760.000 L 1468.000 1697.026 1487.397 1667.513 C 1520.934 1616.488,1568.435 1578.371,1610.984 1568.343 C 1632.045 1563.379,1671.009 1563.261,1696.437 1568.083 " fill="#1D1E23" stroke="none" fill-rule="evenodd"/></svg>