<svg viewBox="0 0 2400 2400" fill="none" xmlns="http://www.w3.org/2000/svg"><path d="M1424.233 412.213 C 1320.266 434.802,1227.181 490.419,1157.451 571.611 C 1104.586 633.164,1084.023 671.581,1057.328 758.664 C 1047.065 792.142,1046.482 798.417,1046.248 878.000 C 1046.012 958.022,1046.526 963.883,1057.110 1001.769 C 1080.004 1083.723,1120.908 1152.823,1184.000 1216.129 C 1243.214 1275.544,1294.583 1306.692,1389.181 1340.547 L 1432.362 1356.000 1520.000 1356.000 L 1607.638 1356.000 1652.819 1339.939 C 1819.109 1280.827,1925.176 1176.006,1977.922 1018.656 C 1991.381 978.506,1995.932 937.853,1995.970 857.445 L 1996.000 792.889 1979.865 746.096 C 1952.432 666.536,1928.390 624.082,1878.307 566.757 C 1814.992 494.288,1724.127 438.763,1631.190 415.752 C 1579.942 403.063,1474.635 401.262,1424.233 412.213 M664.000 1126.657 C 624.199 1131.482,555.923 1164.223,515.242 1197.992 C 467.558 1237.575,425.718 1303.544,409.952 1364.000 C 400.150 1401.590,400.951 1480.107,411.552 1520.813 C 426.801 1579.363,444.597 1608.728,495.935 1660.051 C 545.428 1709.529,571.437 1726.447,626.000 1744.656 C 650.890 1752.962,661.330 1753.989,720.000 1753.900 C 795.445 1753.785,814.766 1749.689,863.849 1723.401 C 936.023 1684.748,990.950 1622.705,1020.242 1546.747 C 1031.691 1517.061,1032.914 1509.287,1034.816 1454.170 C 1037.282 1382.685,1032.315 1355.647,1007.649 1306.290 C 967.145 1225.238,898.962 1164.753,818.000 1138.052 C 796.009 1130.800,777.981 1128.404,734.000 1126.889 C 703.200 1125.828,671.700 1125.724,664.000 1126.657 M1396.005 1621.007 C 1361.304 1638.351,1316.987 1682.096,1302.280 1713.523 C 1296.225 1726.460,1288.514 1750.567,1285.143 1767.093 C 1264.210 1869.741,1344.767 1978.875,1454.430 1996.432 C 1507.516 2004.932,1567.643 1986.016,1609.688 1947.590 C 1696.648 1868.112,1700.742 1743.366,1619.041 1662.580 C 1605.268 1648.962,1582.300 1631.561,1568.000 1623.910 L 1542.000 1610.000 1482.000 1609.007 L 1422.000 1608.015 1396.005 1621.007 " fill="#1D1E23" stroke="none" fill-rule="evenodd"/></svg>