<svg viewBox="0 0 2400 2400" fill="none" xmlns="http://www.w3.org/2000/svg"><path d="M1482.000 402.320 C 1399.742 413.706,1364.512 423.619,1310.624 450.540 C 1231.023 490.306,1166.331 547.267,1118.165 620.000 C 1093.003 657.995,1081.014 683.698,1063.326 737.562 C 1044.639 794.470,1038.962 850.933,1044.260 927.179 C 1049.770 1006.474,1082.353 1092.666,1132.298 1160.063 C 1197.193 1247.632,1281.207 1306.994,1388.000 1340.731 L 1430.000 1354.000 1520.000 1354.000 L 1610.000 1354.000 1652.000 1340.731 C 1804.848 1292.444,1921.054 1182.936,1971.127 1040.000 C 1993.865 975.094,1997.013 952.115,1995.107 864.934 L 1993.382 786.000 1976.860 736.906 C 1957.297 678.778,1938.278 641.198,1907.195 599.254 C 1834.306 500.898,1726.459 431.950,1611.341 410.113 C 1578.818 403.943,1503.190 399.387,1482.000 402.320 M673.906 1123.678 C 638.878 1129.304,607.083 1140.180,570.000 1159.221 C 525.037 1182.307,469.927 1234.730,445.134 1278.000 C 395.039 1365.426,386.877 1458.986,421.149 1552.966 C 436.778 1595.824,455.270 1623.257,496.000 1664.002 C 526.637 1694.650,540.975 1705.624,570.000 1720.638 C 627.852 1750.562,650.871 1756.000,719.695 1756.000 C 781.844 1756.000,798.436 1753.000,846.000 1733.167 C 916.434 1703.797,983.502 1636.660,1013.203 1565.794 C 1032.963 1518.645,1036.000 1501.847,1036.000 1439.695 C 1036.000 1391.089,1034.527 1376.069,1027.541 1353.421 C 994.074 1244.936,909.735 1161.675,803.284 1132.031 C 770.567 1122.920,704.985 1118.686,673.906 1123.678 M1417.948 1610.958 C 1344.860 1637.094,1295.098 1696.935,1283.388 1772.771 C 1267.086 1878.348,1344.079 1980.124,1452.771 1996.677 C 1558.838 2012.830,1660.080 1936.212,1676.677 1827.229 C 1689.322 1744.200,1644.242 1660.127,1566.544 1621.835 C 1535.997 1606.780,1533.688 1606.296,1486.544 1605.060 C 1447.630 1604.040,1434.022 1605.210,1417.948 1610.958 " fill="#1D1E23" stroke="none" fill-rule="evenodd"/></svg>