<svg viewBox="0 0 2400 2400" fill="none" xmlns="http://www.w3.org/2000/svg"><path d="M460.226 404.362 C 407.022 414.795,348.796 458.880,324.406 507.196 C 298.683 558.152,300.124 511.194,300.059 1300.803 C 300.017 1810.332,301.287 2025.778,304.420 2040.803 C 320.053 2115.765,384.235 2179.947,459.197 2195.580 C 489.170 2201.830,1910.830 2201.830,1940.803 2195.580 C 2015.765 2179.947,2079.947 2115.765,2095.580 2040.803 C 2098.673 2025.969,2100.000 1866.282,2100.000 1508.860 L 2100.000 998.113 1800.944 699.056 L 1501.887 400.000 989.944 400.438 C 708.375 400.679,470.002 402.445,460.226 404.362 M1675.000 825.370 C 1880.368 1030.395,1912.000 1063.536,1912.000 1073.672 C 1912.000 1080.106,1909.021 1088.662,1905.380 1092.685 C 1899.106 1099.618,1886.145 1100.000,1657.380 1100.000 C 1421.333 1100.000,1415.823 1099.823,1408.000 1092.000 C 1400.177 1084.177,1400.000 1078.667,1400.000 842.290 L 1400.000 600.581 1410.629 592.220 C 1417.451 586.854,1424.255 584.738,1429.629 586.313 C 1434.233 587.662,1544.650 695.238,1675.000 825.370 M846.501 812.440 C 885.734 832.630,906.247 877.772,896.329 922.092 C 879.366 997.893,784.978 1025.188,729.986 970.196 C 690.731 930.941,690.723 869.067,729.967 829.823 C 760.757 799.033,807.034 792.130,846.501 812.440 M846.501 1212.440 C 885.734 1232.630,906.247 1277.772,896.329 1322.092 C 879.366 1397.893,784.978 1425.188,729.986 1370.196 C 690.731 1330.941,690.723 1269.067,729.967 1229.823 C 760.757 1199.033,807.034 1192.130,846.501 1212.440 M846.501 1612.440 C 885.734 1632.630,906.247 1677.772,896.329 1722.092 C 879.366 1797.893,784.978 1825.188,729.986 1770.196 C 690.731 1730.941,690.723 1669.067,729.967 1629.823 C 760.757 1599.033,807.034 1592.130,846.501 1612.440 " fill="#1D1E23" stroke="none" fill-rule="evenodd"/></svg>