<svg viewBox="0 0 2400 2400" fill="none" xmlns="http://www.w3.org/2000/svg"><path d="M769.956 403.799 L 445.912 406.000 415.103 423.629 C 364.419 452.631,332.009 488.573,315.573 534.005 C 307.157 557.268,306.781 565.991,303.236 820.000 C 301.226 964.100,300.125 1298.094,300.790 1562.208 L 302.000 2042.416 316.816 2072.208 C 342.208 2123.268,377.926 2159.777,423.439 2181.194 C 447.945 2192.726,451.757 2193.282,527.439 2196.368 C 635.826 2200.788,1762.502 2200.559,1866.000 2196.096 C 1923.959 2193.597,1955.580 2190.522,1968.000 2186.176 C 2009.693 2171.586,2060.358 2121.429,2083.262 2072.069 C 2092.806 2051.501,2093.625 2044.667,2096.433 1962.069 C 2098.080 1913.631,2099.557 1676.895,2099.714 1435.990 L 2100.000 997.980 1800.990 698.990 L 1501.980 400.000 1297.990 400.799 C 1185.796 401.238,948.180 402.588,769.956 403.799 M1438.217 600.371 C 1457.698 612.553,1866.683 1019.230,1897.638 1057.200 L 1913.277 1076.382 1905.189 1087.191 L 1897.100 1098.000 1663.550 1097.480 C 1509.214 1097.137,1426.385 1095.519,1419.343 1092.710 C 1409.863 1088.928,1408.387 1085.671,1405.985 1063.229 C 1402.309 1028.893,1405.638 603.765,1409.651 595.000 C 1413.899 585.723,1415.176 585.963,1438.217 600.371 M825.995 808.416 C 847.605 813.858,873.507 835.431,884.647 857.269 C 895.167 877.890,896.027 915.446,886.491 937.785 C 868.713 979.429,839.730 997.792,795.704 995.304 C 759.892 993.280,735.637 978.512,718.716 948.429 C 689.411 896.329,710.835 832.762,764.961 811.218 C 785.157 803.178,802.105 802.400,825.995 808.416 M825.995 1208.416 C 847.605 1213.858,873.507 1235.431,884.647 1257.269 C 895.167 1277.890,896.027 1315.446,886.491 1337.785 C 868.713 1379.429,839.730 1397.792,795.704 1395.304 C 759.892 1393.280,735.637 1378.512,718.716 1348.429 C 689.411 1296.329,710.835 1232.762,764.961 1211.218 C 785.157 1203.178,802.105 1202.400,825.995 1208.416 M825.995 1608.416 C 847.605 1613.858,873.507 1635.431,884.647 1657.269 C 895.167 1677.890,896.027 1715.446,886.491 1737.785 C 868.713 1779.429,839.730 1797.792,795.704 1795.304 C 759.892 1793.280,735.637 1778.512,718.716 1748.429 C 689.411 1696.329,710.835 1632.762,764.961 1611.218 C 785.157 1603.178,802.105 1602.400,825.995 1608.416 " fill="#1D1E23" stroke="none" fill-rule="evenodd"/></svg>