<svg viewBox="0 0 2400 2400" fill="none" xmlns="http://www.w3.org/2000/svg"><path d="M652.000 403.850 L 446.000 406.000 424.000 417.309 C 373.030 443.511,331.637 485.743,315.506 528.000 C 301.513 564.657,299.548 679.666,300.934 1381.064 C 302.155 1999.153,302.611 2035.174,309.486 2056.000 C 326.734 2108.253,368.133 2155.749,417.698 2180.150 C 442.180 2192.202,447.805 2193.267,502.955 2196.288 C 579.979 2200.507,1820.106 2200.502,1897.152 2196.282 C 1953.320 2193.206,1957.652 2192.360,1983.035 2179.521 C 2033.429 2154.030,2073.384 2108.091,2090.467 2056.000 C 2097.239 2035.349,2097.766 2002.248,2099.061 1516.230 L 2100.441 998.461 1801.230 699.230 L 1502.020 400.000 1180.010 400.850 C 1002.905 401.318,765.300 402.668,652.000 403.850 M1454.222 610.868 C 1495.398 644.765,1897.296 1049.318,1906.177 1065.808 C 1913.804 1079.972,1913.804 1079.974,1904.786 1088.987 L 1895.767 1098.000 1662.883 1098.000 C 1534.797 1098.000,1425.077 1096.623,1419.061 1094.939 C 1411.810 1092.910,1407.215 1088.265,1405.432 1081.162 C 1403.953 1075.268,1402.576 964.881,1402.371 835.858 C 1401.979 588.261,1401.998 588.000,1419.711 588.000 C 1423.414 588.000,1438.944 598.291,1454.222 610.868 M842.726 812.352 C 900.555 840.346,913.760 920.650,868.543 969.357 C 835.274 1005.194,775.454 1008.132,738.650 975.737 C 714.319 954.320,704.000 931.946,704.000 900.609 C 704.000 871.782,710.000 855.112,727.583 835.086 C 754.733 804.164,805.221 794.196,842.726 812.352 M842.726 1212.352 C 900.555 1240.346,913.760 1320.650,868.543 1369.357 C 835.274 1405.194,775.454 1408.132,738.650 1375.737 C 714.319 1354.320,704.000 1331.946,704.000 1300.609 C 704.000 1271.782,710.000 1255.112,727.583 1235.086 C 754.733 1204.164,805.221 1194.196,842.726 1212.352 M842.726 1612.352 C 900.555 1640.346,913.760 1720.650,868.543 1769.357 C 835.274 1805.194,775.454 1808.132,738.650 1775.737 C 714.319 1754.320,704.000 1731.946,704.000 1700.609 C 704.000 1671.782,710.000 1655.112,727.583 1635.086 C 754.733 1604.164,805.221 1594.196,842.726 1612.352 " fill="#1D1E23" stroke="none" fill-rule="evenodd"/></svg>