<svg viewBox="0 0 2400 2400" fill="none" xmlns="http://www.w3.org/2000/svg"><path d="M554.000 403.819 L 446.000 406.000 418.713 419.341 C 379.767 438.383,339.746 477.306,321.821 513.572 C 308.783 539.954,307.441 546.163,304.002 596.051 C 299.557 660.526,299.212 1970.512,303.627 2020.900 C 309.550 2088.507,350.597 2147.054,414.060 2178.419 C 442.639 2192.544,448.510 2193.919,491.492 2196.548 C 552.161 2200.260,1847.839 2200.260,1908.508 2196.548 C 1951.490 2193.919,1957.361 2192.544,1985.940 2178.419 C 2047.318 2148.085,2089.558 2089.436,2096.297 2025.194 C 2098.096 2008.037,2099.666 1769.895,2099.784 1495.990 L 2100.000 997.980 1800.990 698.990 L 1501.980 400.000 1081.990 400.819 C 850.996 401.269,613.400 402.619,554.000 403.819 M1669.226 821.000 C 1797.518 949.150,1904.921 1058.935,1907.900 1064.966 C 1916.489 1082.359,1908.656 1094.837,1887.212 1097.923 C 1877.745 1099.285,1767.913 1099.860,1643.141 1099.200 C 1431.653 1098.081,1415.798 1097.516,1409.141 1090.860 C 1402.472 1084.192,1401.922 1067.837,1400.822 843.371 C 1399.737 621.811,1400.176 602.435,1406.442 595.511 C 1424.301 575.778,1420.272 572.321,1669.226 821.000 M843.633 811.813 C 877.306 828.991,896.101 859.224,896.676 897.133 C 897.295 937.999,878.361 969.882,842.000 989.203 C 821.337 1000.182,780.455 1000.922,759.570 990.695 C 696.906 960.011,682.189 878.902,730.515 830.576 C 760.311 800.780,806.869 793.057,843.633 811.813 M843.633 1211.813 C 877.306 1228.991,896.101 1259.224,896.676 1297.133 C 897.295 1337.999,878.361 1369.882,842.000 1389.203 C 821.337 1400.182,780.455 1400.922,759.570 1390.695 C 696.906 1360.011,682.189 1278.902,730.515 1230.576 C 760.311 1200.780,806.869 1193.057,843.633 1211.813 M843.633 1611.813 C 877.306 1628.991,896.101 1659.224,896.676 1697.133 C 897.295 1737.999,878.361 1769.882,842.000 1789.203 C 821.337 1800.182,780.455 1800.922,759.570 1790.695 C 696.906 1760.011,682.189 1678.902,730.515 1630.576 C 760.311 1600.780,806.869 1593.057,843.633 1611.813 " fill="#1D1E23" stroke="none" fill-rule="evenodd"/></svg>