<svg viewBox="0 0 2400 2400" fill="none" xmlns="http://www.w3.org/2000/svg"><path d="M724.000 403.837 L 446.000 406.034 425.941 416.608 C 355.614 453.678,316.090 503.769,307.306 566.958 C 301.918 605.716,298.186 1760.200,302.891 1932.335 L 306.126 2050.671 321.630 2082.040 C 341.800 2122.852,379.007 2160.670,417.573 2179.560 C 444.787 2192.889,446.116 2193.108,519.573 2196.351 C 617.847 2200.690,1784.946 2200.602,1880.000 2196.248 C 1963.570 2192.421,1972.536 2189.924,2014.694 2158.735 C 2043.094 2137.725,2066.837 2108.106,2082.720 2073.872 C 2093.437 2050.772,2093.884 2047.091,2096.542 1960.000 C 2098.052 1910.500,2099.448 1673.795,2099.644 1433.990 L 2100.000 997.980 1800.990 698.990 L 1501.980 400.000 1251.990 400.820 C 1114.496 401.271,876.900 402.629,724.000 403.837 M1446.604 605.625 C 1478.062 629.324,1906.135 1059.822,1909.835 1071.482 C 1911.994 1078.283,1910.311 1083.332,1903.378 1090.853 L 1894.000 1101.025 1656.762 1098.917 C 1437.881 1096.971,1418.922 1096.265,1411.762 1089.784 C 1404.246 1082.983,1404.000 1075.252,1404.000 845.640 C 1404.000 701.253,1405.526 604.508,1407.901 598.260 C 1413.291 584.082,1419.601 585.283,1446.604 605.625 M843.581 814.540 C 882.568 833.968,902.340 877.357,892.416 921.705 C 867.914 1031.189,714.026 1018.550,705.017 906.314 C 703.306 884.994,704.581 877.451,713.007 859.045 C 735.429 810.068,794.324 789.995,843.581 814.540 M843.581 1214.540 C 882.568 1233.968,902.340 1277.357,892.416 1321.705 C 867.914 1431.189,714.026 1418.550,705.017 1306.314 C 703.306 1284.994,704.581 1277.451,713.007 1259.045 C 735.429 1210.068,794.324 1189.995,843.581 1214.540 M843.581 1614.540 C 882.568 1633.968,902.340 1677.357,892.416 1721.705 C 867.914 1831.189,714.026 1818.550,705.017 1706.314 C 703.306 1684.994,704.581 1677.451,713.007 1659.045 C 735.429 1610.068,794.324 1589.995,843.581 1614.540 " fill="#1D1E23" stroke="none" fill-rule="evenodd"/></svg>