<svg viewBox="0 0 2400 2400" fill="none" xmlns="http://www.w3.org/2000/svg"><path d="M1507.32 407.322C1502.63 402.634 1496.28 400 1489.64 400H500C390 400 301 490 301 600L300 2000C300 2110 389 2200 499 2200H1900C2010 2200 2100 2110 2100 2000V1010.36C2100 1003.72 2097.37 997.366 2092.68 992.678L1507.32 407.322ZM800 1800C745 1800 700 1755 700 1700C700 1645 745 1600 800 1600C855 1600 900 1645 900 1700C900 1755 855 1800 800 1800ZM800 1400C745 1400 700 1355 700 1300C700 1245 745 1200 800 1200C855 1200 900 1245 900 1300C900 1355 855 1400 800 1400ZM800 1000C745 1000 700 955 700 900C700 845 745 800 800 800C855 800 900 845 900 900C900 955 855 1000 800 1000ZM1425 1100C1411.19 1100 1400 1088.81 1400 1075V610.355C1400 588.083 1426.93 576.929 1442.68 592.678L1907.32 1057.32C1923.07 1073.07 1911.92 1100 1889.64 1100H1425Z" fill="#1D1E23"/></svg>