<svg viewBox="0 0 2400 2400" fill="none" xmlns="http://www.w3.org/2000/svg"><path d="M466.000 307.647 C 407.355 312.576,350.397 355.648,319.481 418.448 C 307.693 442.392,306.397 448.971,303.559 499.257 C 299.361 573.640,299.540 1832.012,303.759 1901.226 C 306.852 1951.976,308.187 1958.623,320.231 1983.226 C 337.942 2019.408,380.683 2062.102,416.982 2079.872 C 442.659 2092.442,447.009 2093.239,506.982 2096.356 C 589.126 2100.626,1910.874 2100.626,1993.018 2096.356 C 2052.991 2093.239,2057.341 2092.442,2083.018 2079.872 C 2119.173 2062.173,2162.064 2019.396,2179.622 1983.525 C 2191.386 1959.492,2192.932 1951.928,2196.385 1901.525 C 2198.632 1868.729,2199.741 1561.095,2199.094 1150.000 L 2198.000 454.000 2183.065 422.721 C 2162.058 378.727,2129.502 345.717,2083.878 322.154 L 2048.729 304.000 1271.365 304.647 C 843.814 305.002,481.400 306.352,466.000 307.647 M2000.000 650.000 L 2000.000 800.000 1250.000 800.000 L 500.000 800.000 500.000 650.000 L 500.000 500.000 1250.000 500.000 L 2000.000 500.000 2000.000 650.000 M800.000 1450.000 L 800.000 1900.000 650.000 1900.000 L 500.000 1900.000 500.000 1450.000 L 500.000 1000.000 650.000 1000.000 L 800.000 1000.000 800.000 1450.000 M1500.000 1450.000 L 1500.000 1900.000 1250.000 1900.000 L 1000.000 1900.000 1000.000 1450.000 L 1000.000 1000.000 1250.000 1000.000 L 1500.000 1000.000 1500.000 1450.000 M2000.000 1450.000 L 2000.000 1900.000 1850.000 1900.000 L 1700.000 1900.000 1700.000 1450.000 L 1700.000 1000.000 1850.000 1000.000 L 2000.000 1000.000 2000.000 1450.000 " fill="#1D1E23" stroke="none" fill-rule="evenodd"/></svg>