<svg viewBox="0 0 2400 2400" fill="none" xmlns="http://www.w3.org/2000/svg"><path d="M468.000 302.650 C 447.307 306.001,409.267 321.529,389.052 334.877 C 347.077 362.593,314.625 410.264,304.420 459.197 C 298.170 489.170,298.170 1910.830,304.420 1940.803 C 320.053 2015.765,384.235 2079.947,459.197 2095.580 C 489.192 2101.835,2010.808 2101.835,2040.803 2095.580 C 2115.765 2079.947,2179.947 2015.765,2195.580 1940.803 C 2201.830 1910.830,2201.830 489.170,2195.580 459.197 C 2181.788 393.062,2134.082 338.710,2066.000 311.568 L 2042.000 302.000 1260.000 301.515 C 829.900 301.248,473.500 301.759,468.000 302.650 M2000.000 650.000 L 2000.000 800.000 1250.000 800.000 L 500.000 800.000 500.000 650.000 L 500.000 500.000 1250.000 500.000 L 2000.000 500.000 2000.000 650.000 M800.000 1450.000 L 800.000 1900.000 650.000 1900.000 L 500.000 1900.000 500.000 1450.000 L 500.000 1000.000 650.000 1000.000 L 800.000 1000.000 800.000 1450.000 M1500.000 1450.000 L 1500.000 1900.000 1250.000 1900.000 L 1000.000 1900.000 1000.000 1450.000 L 1000.000 1000.000 1250.000 1000.000 L 1500.000 1000.000 1500.000 1450.000 M2000.000 1450.000 L 2000.000 1900.000 1850.000 1900.000 L 1700.000 1900.000 1700.000 1450.000 L 1700.000 1000.000 1850.000 1000.000 L 2000.000 1000.000 2000.000 1450.000 " fill="#1D1E23" stroke="none" fill-rule="evenodd"/></svg>