<svg viewBox="0 0 2400 2400" fill="none" xmlns="http://www.w3.org/2000/svg"><path d="M780.000 307.857 L 438.000 310.000 410.000 325.670 C 373.939 345.850,337.755 382.706,320.548 416.783 C 307.408 442.805,307.019 445.028,303.758 512.711 C 299.341 604.382,299.432 1767.442,303.864 1870.000 C 308.344 1973.653,314.457 1990.473,365.914 2040.713 C 395.308 2069.412,424.692 2086.626,454.000 2092.316 C 485.097 2098.353,1812.484 2102.254,1956.276 2096.731 C 2052.672 2093.028,2055.006 2092.736,2078.276 2081.478 C 2105.807 2068.158,2161.062 2015.930,2177.172 1988.000 C 2183.745 1976.604,2189.274 1958.260,2192.243 1938.000 C 2195.635 1914.850,2197.459 1705.654,2198.835 1181.596 L 2200.739 457.192 2189.891 435.596 C 2162.494 381.050,2130.774 348.501,2075.668 318.389 L 2049.336 304.000 1585.668 304.857 C 1330.651 305.329,968.100 306.679,780.000 307.857 M2000.000 650.000 L 2000.000 800.000 1250.000 800.000 L 500.000 800.000 500.000 650.000 L 500.000 500.000 1250.000 500.000 L 2000.000 500.000 2000.000 650.000 M800.000 1450.000 L 800.000 1900.000 650.000 1900.000 L 500.000 1900.000 500.000 1450.000 L 500.000 1000.000 650.000 1000.000 L 800.000 1000.000 800.000 1450.000 M1500.000 1450.000 L 1500.000 1900.000 1250.000 1900.000 L 1000.000 1900.000 1000.000 1450.000 L 1000.000 1000.000 1250.000 1000.000 L 1500.000 1000.000 1500.000 1450.000 M2000.000 1450.000 L 2000.000 1900.000 1850.000 1900.000 L 1700.000 1900.000 1700.000 1450.000 L 1700.000 1000.000 1850.000 1000.000 L 2000.000 1000.000 2000.000 1450.000 " fill="#1D1E23" stroke="none" fill-rule="evenodd"/></svg>