<svg viewBox="0 0 2400 2400" fill="none" xmlns="http://www.w3.org/2000/svg"><path d="M1048.000 286.000 C 1048.000 417.742,1047.864 420.000,1039.926 420.000 C 1035.485 420.000,1011.635 426.505,986.926 434.456 C 728.019 517.768,541.282 741.494,505.999 1010.646 C 501.095 1048.060,500.000 1115.311,500.000 1379.235 L 500.000 1702.060 400.000 1802.000 L 300.000 1901.940 300.000 1950.970 L 300.000 2000.000 1200.000 2000.000 L 2100.000 2000.000 2100.000 1948.970 L 2100.000 1897.940 2000.000 1798.000 L 1900.000 1698.060 1900.000 1377.235 C 1900.000 1115.089,1898.903 1048.040,1894.001 1010.646 C 1858.718 741.494,1671.981 517.768,1413.074 434.456 C 1388.365 426.505,1364.515 420.000,1360.074 420.000 C 1352.136 420.000,1352.000 417.742,1352.000 286.000 L 1352.000 152.000 1200.000 152.000 L 1048.000 152.000 1048.000 286.000 M1300.000 950.000 L 1300.000 1100.000 1450.000 1100.000 L 1600.000 1100.000 1600.000 1200.000 L 1600.000 1300.000 1450.000 1300.000 L 1300.000 1300.000 1300.000 1450.000 L 1300.000 1600.000 1200.000 1600.000 L 1100.000 1600.000 1100.000 1450.000 L 1100.000 1300.000 950.000 1300.000 L 800.000 1300.000 800.000 1200.000 L 800.000 1100.000 950.000 1100.000 L 1100.000 1100.000 1100.000 950.000 L 1100.000 800.000 1200.000 800.000 L 1300.000 800.000 1300.000 950.000 M1001.740 2120.883 C 1011.001 2190.702,1053.768 2251.465,1113.438 2279.584 C 1239.122 2338.814,1379.745 2260.459,1398.260 2120.883 L 1401.031 2100.000 1200.000 2100.000 L 998.969 2100.000 1001.740 2120.883 " fill="#1D1E23" stroke="none" fill-rule="evenodd"/></svg>