<svg viewBox="0 0 2400 2400" fill="none" xmlns="http://www.w3.org/2000/svg"><path d="M1047.527 273.000 C 1047.266 339.550,1045.907 399.400,1044.506 406.000 C 1042.376 416.038,1039.019 418.851,1023.980 423.203 C 964.023 440.553,872.207 481.789,821.184 514.283 C 641.016 629.024,520.455 829.372,503.958 1041.450 C 501.881 1068.153,500.141 1227.714,500.091 1396.030 L 500.000 1702.060 400.000 1802.000 L 300.000 1901.940 300.000 1950.970 L 300.000 2000.000 1200.000 2000.000 L 2100.000 2000.000 2100.000 1948.970 L 2100.000 1897.940 2000.310 1798.310 L 1900.621 1698.680 1898.843 1358.340 C 1897.304 1063.796,1896.178 1013.425,1890.478 984.000 C 1870.314 879.911,1826.529 775.833,1768.570 694.220 C 1724.399 632.022,1644.041 555.822,1578.816 514.283 C 1527.918 481.869,1436.548 440.806,1376.149 423.203 C 1362.727 419.291,1357.615 415.519,1355.548 408.000 C 1354.035 402.500,1352.618 342.650,1352.399 275.000 L 1352.000 152.000 1200.000 152.000 L 1048.000 152.000 1047.527 273.000 M1300.000 950.000 L 1300.000 1100.000 1450.000 1100.000 L 1600.000 1100.000 1600.000 1200.000 L 1600.000 1300.000 1450.000 1300.000 L 1300.000 1300.000 1300.000 1450.000 L 1300.000 1600.000 1200.000 1600.000 L 1100.000 1600.000 1100.000 1450.000 L 1100.000 1300.000 950.000 1300.000 L 800.000 1300.000 800.000 1200.000 L 800.000 1100.000 950.000 1100.000 L 1100.000 1100.000 1100.000 950.000 L 1100.000 800.000 1200.000 800.000 L 1300.000 800.000 1300.000 950.000 M1000.000 2108.245 C 1000.000 2112.975,1002.846 2127.905,1006.324 2141.423 C 1026.722 2220.693,1079.636 2273.948,1157.840 2293.914 C 1221.977 2310.288,1286.301 2290.490,1338.306 2238.369 C 1369.195 2207.412,1383.656 2182.007,1394.812 2139.103 C 1400.479 2117.305,1400.838 2111.237,1396.706 2107.103 C 1392.744 2103.138,1347.943 2101.737,1195.804 2100.822 L 1000.000 2099.644 1000.000 2108.245 " fill="#1D1E23" stroke="none" fill-rule="evenodd"/></svg>