<svg viewBox="0 0 2400 2400" fill="none" xmlns="http://www.w3.org/2000/svg"><path d="M1047.945 277.000 C 1047.915 345.750,1046.841 405.912,1045.559 410.694 C 1043.798 417.260,1038.183 420.559,1022.614 424.174 C 957.227 439.357,847.095 492.048,788.011 536.416 C 737.416 574.410,715.569 594.146,678.693 635.171 C 580.603 744.297,516.950 889.523,503.886 1034.000 C 501.897 1056.000,500.209 1215.314,500.135 1388.030 L 500.000 1702.060 400.000 1802.000 L 300.000 1901.940 300.000 1950.970 L 300.000 2000.000 1200.000 2000.000 L 2100.000 2000.000 2100.000 1948.970 L 2100.000 1897.940 2000.000 1798.000 L 1900.000 1698.060 1899.865 1386.030 C 1899.791 1214.414,1898.103 1056.000,1896.114 1034.000 C 1883.050 889.523,1819.397 744.297,1721.307 635.171 C 1684.431 594.146,1662.584 574.410,1611.989 536.416 C 1552.905 492.048,1442.773 439.357,1377.386 424.174 C 1361.817 420.559,1356.202 417.260,1354.441 410.694 C 1353.159 405.912,1352.085 345.750,1352.055 277.000 L 1352.000 152.000 1200.000 152.000 L 1048.000 152.000 1047.945 277.000 M1300.000 950.000 L 1300.000 1100.000 1450.000 1100.000 L 1600.000 1100.000 1600.000 1200.000 L 1600.000 1300.000 1450.000 1300.000 L 1300.000 1300.000 1300.000 1450.000 L 1300.000 1600.000 1200.000 1600.000 L 1100.000 1600.000 1100.000 1450.000 L 1100.000 1300.000 950.000 1300.000 L 800.000 1300.000 800.000 1200.000 L 800.000 1100.000 950.000 1100.000 L 1100.000 1100.000 1100.000 950.000 L 1100.000 800.000 1200.000 800.000 L 1300.000 800.000 1300.000 950.000 M1000.000 2109.160 C 1000.000 2125.536,1011.888 2165.415,1024.490 2191.310 C 1062.810 2270.054,1161.418 2315.863,1245.476 2293.968 C 1321.548 2274.154,1379.803 2213.171,1395.612 2136.803 C 1404.145 2095.584,1427.615 2100.000,1200.000 2100.000 L 1000.000 2100.000 1000.000 2109.160 " fill="#1D1E23" stroke="none" fill-rule="evenodd"/></svg>