<svg viewBox="0 0 2400 2400" fill="none" xmlns="http://www.w3.org/2000/svg"><path d="M1116.376 120.331 C 1085.618 135.836,1050.451 169.965,1034.176 200.104 C 1022.860 221.058,1022.281 224.603,1020.703 282.509 L 1019.054 343.017 1003.098 347.798 C 967.898 358.344,889.252 394.334,850.349 417.699 C 690.421 513.751,584.288 658.103,538.389 842.000 C 525.356 894.217,523.559 947.629,521.213 1352.374 L 518.859 1758.748 449.400 1763.031 C 371.293 1767.848,354.500 1772.986,331.598 1799.069 C 282.890 1854.544,296.629 1923.537,365.558 1969.602 L 381.116 1980.000 1182.718 1980.000 L 1984.319 1980.000 2000.540 1971.724 C 2042.099 1950.523,2070.839 1902.548,2066.709 1861.273 C 2064.050 1834.707,2055.040 1815.982,2035.529 1796.471 C 2009.468 1770.409,1998.288 1767.140,1919.610 1762.574 L 1849.221 1758.488 1846.599 1350.244 C 1845.157 1125.710,1842.357 921.161,1840.376 895.692 C 1837.446 858.022,1833.569 839.740,1819.596 797.692 C 1798.294 733.587,1756.624 650.069,1721.011 600.101 C 1649.872 500.284,1540.337 417.574,1407.418 363.306 C 1351.665 340.542,1352.149 341.050,1352.055 305.289 C 1351.959 269.062,1343.743 222.740,1333.229 199.154 C 1321.688 173.262,1289.609 140.242,1258.000 121.720 C 1239.384 110.811,1234.678 109.910,1190.000 108.707 C 1142.706 107.432,1141.623 107.603,1116.376 120.331 M1234.645 891.371 C 1276.988 913.146,1290.426 946.876,1294.784 1042.330 L 1297.173 1094.660 1367.587 1098.963 C 1406.314 1101.330,1443.400 1105.342,1450.000 1107.878 C 1494.442 1124.960,1523.839 1195.845,1505.930 1242.740 C 1497.191 1265.624,1472.029 1293.742,1450.180 1305.042 C 1436.127 1312.310,1425.007 1313.644,1365.592 1315.194 L 1297.183 1316.978 1294.700 1373.489 C 1291.162 1454.009,1281.893 1483.485,1252.089 1508.996 C 1234.777 1523.814,1203.169 1536.000,1182.044 1536.000 C 1149.466 1536.000,1106.886 1509.101,1091.266 1478.654 C 1084.136 1464.757,1082.040 1450.339,1078.602 1391.553 L 1074.482 1321.107 1036.241 1318.574 C 1015.208 1317.181,988.740 1316.032,977.421 1316.021 C 966.103 1316.009,945.076 1312.366,930.694 1307.923 C 909.670 1301.430,901.436 1296.315,888.682 1281.825 C 867.029 1257.226,860.000 1240.750,860.000 1214.592 C 860.000 1161.162,877.568 1128.915,915.586 1112.560 C 937.400 1103.175,991.207 1096.179,1042.407 1096.069 L 1074.814 1096.000 1077.652 1035.056 C 1080.911 965.057,1085.056 941.552,1097.359 923.295 C 1108.197 907.213,1134.524 888.333,1152.493 883.757 C 1173.528 878.400,1217.312 882.458,1234.645 891.371 M964.000 2103.761 C 964.000 2122.455,986.345 2186.656,1000.590 2208.890 C 1044.299 2277.111,1138.592 2321.403,1213.000 2308.663 C 1280.461 2297.113,1351.766 2245.222,1379.135 2187.761 C 1392.687 2159.310,1410.821 2101.488,1407.298 2097.965 C 1406.064 2096.731,1305.817 2094.592,1184.527 2093.211 L 964.000 2090.702 964.000 2103.761 " fill="#1D1E23" stroke="none" fill-rule="evenodd"/></svg>