<svg viewBox="0 0 2400 2400" fill="none" xmlns="http://www.w3.org/2000/svg"><path d="M1047.233 279.747 C 1045.910 371.924,1044.042 409.129,1040.527 413.365 C 1037.847 416.594,1015.482 426.119,990.827 434.531 C 932.679 454.370,835.632 503.315,790.000 535.815 C 743.265 569.101,665.072 647.828,630.901 696.000 C 598.746 741.330,553.060 831.592,536.249 883.004 C 519.327 934.759,508.244 992.551,503.924 1051.572 C 501.894 1079.308,500.181 1237.014,500.117 1402.030 L 500.000 1702.060 400.000 1802.000 L 300.000 1901.940 300.000 1950.970 L 300.000 2000.000 1200.000 2000.000 L 2100.000 2000.000 2100.000 1948.970 L 2100.000 1897.940 2000.000 1798.000 L 1900.000 1698.060 1899.751 1448.030 C 1899.614 1310.514,1897.960 1150.300,1896.074 1092.000 C 1893.041 998.216,1891.486 981.621,1882.585 948.000 C 1835.954 771.883,1748.844 640.006,1612.093 538.503 C 1564.216 502.967,1474.180 456.909,1408.000 434.099 C 1384.900 426.138,1363.358 417.002,1360.129 413.798 C 1355.281 408.988,1353.977 385.651,1352.650 279.986 L 1351.042 152.000 1200.055 152.000 L 1049.067 152.000 1047.233 279.747 M1300.000 950.000 L 1300.000 1100.000 1450.000 1100.000 L 1600.000 1100.000 1600.000 1200.000 L 1600.000 1300.000 1450.000 1300.000 L 1300.000 1300.000 1300.000 1450.000 L 1300.000 1600.000 1200.000 1600.000 L 1100.000 1600.000 1100.000 1450.000 L 1100.000 1300.000 950.000 1300.000 L 800.000 1300.000 800.000 1200.000 L 800.000 1100.000 950.000 1100.000 L 1100.000 1100.000 1100.000 950.000 L 1100.000 800.000 1200.000 800.000 L 1300.000 800.000 1300.000 950.000 M1000.047 2109.000 C 1000.074 2113.950,1002.619 2127.483,1005.705 2139.073 C 1029.461 2228.314,1098.235 2289.449,1184.852 2298.323 C 1276.466 2307.709,1374.552 2231.401,1396.408 2133.740 C 1400.375 2116.012,1400.392 2110.714,1396.489 2108.302 C 1389.641 2104.070,1252.262 2100.023,1115.000 2100.011 L 1000.000 2100.000 1000.047 2109.000 " fill="#1D1E23" stroke="none" fill-rule="evenodd"/></svg>