<svg viewBox="0 0 2400 2400" fill="none" xmlns="http://www.w3.org/2000/svg"><path d="M1137.144 109.803 C 1096.425 122.529,1053.756 159.304,1033.687 198.969 C 1023.002 220.088,1022.223 225.053,1020.698 281.810 L 1019.076 342.185 980.538 355.503 C 749.893 435.214,582.848 622.115,535.768 853.141 C 522.553 917.987,520.258 996.507,520.125 1388.380 L 520.000 1758.759 455.000 1761.425 C 419.250 1762.891,383.295 1765.942,375.101 1768.205 C 351.356 1774.763,327.416 1795.737,314.218 1821.544 C 298.860 1851.574,297.759 1888.731,311.445 1915.166 C 323.143 1937.761,346.315 1960.534,368.571 1971.308 L 386.526 1980.000 1185.422 1980.000 L 1984.319 1980.000 2001.159 1971.576 C 2039.239 1952.527,2063.430 1918.650,2066.991 1879.386 C 2071.097 1834.096,2050.650 1797.599,2008.239 1774.516 C 1988.534 1763.792,1984.605 1763.204,1918.336 1761.062 L 1849.038 1758.823 1846.738 1334.412 C 1845.290 1067.430,1842.830 897.388,1840.104 876.000 C 1831.330 807.155,1780.543 683.192,1732.188 612.592 C 1652.363 496.044,1535.706 408.603,1389.063 355.401 L 1352.125 342.000 1351.993 302.000 C 1351.748 227.649,1336.421 183.811,1298.582 149.228 C 1275.111 127.777,1250.778 114.524,1223.166 108.155 C 1199.440 102.682,1157.349 103.489,1137.144 109.803 M1229.345 886.668 C 1273.153 909.229,1287.591 932.734,1292.261 989.095 C 1294.126 1011.593,1295.730 1044.569,1295.826 1062.375 L 1296.000 1094.749 1363.000 1097.401 C 1399.850 1098.860,1436.985 1101.991,1445.523 1104.359 C 1479.394 1113.754,1507.707 1154.922,1514.449 1204.579 C 1518.943 1237.675,1489.595 1286.714,1454.379 1304.955 C 1439.980 1312.413,1429.416 1313.653,1367.000 1315.215 L 1296.000 1316.992 1295.826 1349.496 C 1295.457 1418.225,1289.628 1462.519,1278.440 1481.610 C 1244.178 1540.073,1160.511 1554.382,1114.456 1509.655 C 1081.362 1477.514,1080.061 1473.437,1077.279 1393.181 L 1074.779 1321.092 1042.390 1318.570 C 1024.575 1317.183,997.939 1316.037,983.197 1316.024 C 924.641 1315.972,893.160 1300.334,870.409 1260.000 C 859.371 1240.430,858.008 1234.465,858.069 1206.000 C 858.148 1169.776,865.591 1151.140,888.649 1129.431 C 916.245 1103.452,929.547 1099.788,1005.796 1097.168 L 1075.022 1094.790 1076.865 1026.395 C 1079.180 940.475,1085.360 923.843,1125.755 894.824 C 1151.944 876.011,1201.131 872.139,1229.345 886.668 M964.000 2103.160 C 964.000 2132.934,988.969 2198.539,1010.734 2225.948 C 1026.116 2245.320,1065.757 2276.861,1090.000 2289.018 C 1216.028 2352.215,1368.019 2275.034,1402.095 2130.536 C 1405.278 2117.041,1407.908 2102.850,1407.941 2099.000 C 1407.996 2092.417,1394.784 2092.000,1186.000 2092.000 L 964.000 2092.000 964.000 2103.160 " fill="#1D1E23" stroke="none" fill-rule="evenodd"/></svg>