<svg viewBox="0 0 2400 2400" fill="none" xmlns="http://www.w3.org/2000/svg"><path d="M1048.000 360.126 C 1048.000 443.209,1046.842 468.577,1043.000 469.657 C 870.738 518.104,750.163 616.035,672.792 770.338 C 640.176 835.384,613.103 931.131,604.222 1012.842 C 601.677 1036.257,600.000 1160.984,600.000 1326.872 L 600.000 1602.060 500.000 1702.000 L 400.000 1801.940 400.000 1850.970 L 400.000 1900.000 1200.000 1900.000 L 2000.000 1900.000 2000.000 1848.970 L 2000.000 1797.940 1900.000 1698.000 L 1800.000 1598.060 1800.000 1323.397 C 1800.000 1095.216,1798.920 1040.379,1793.617 999.367 C 1762.927 762.010,1637.896 583.169,1444.294 499.703 C 1424.039 490.970,1395.436 480.531,1380.733 476.504 L 1354.000 469.182 1352.936 360.591 L 1351.871 252.000 1199.936 252.000 L 1048.000 252.000 1048.000 360.126 M1001.519 2022.299 C 1011.461 2106.889,1076.468 2178.328,1159.197 2195.580 C 1273.357 2219.386,1384.802 2138.682,1398.481 2022.299 L 1401.101 2000.000 1200.000 2000.000 L 998.899 2000.000 1001.519 2022.299 " fill="#1D1E23" stroke="none" fill-rule="evenodd"/></svg>