<svg viewBox="0 0 2400 2400" fill="none" xmlns="http://www.w3.org/2000/svg"><path d="M1167.849 255.514 C 1130.482 263.305,1084.955 297.971,1068.155 331.424 C 1056.672 354.289,1048.156 395.475,1048.069 428.557 C 1048.019 447.982,1046.120 457.316,1041.000 463.316 C 1037.150 467.828,1016.000 478.152,994.000 486.259 C 909.840 517.272,851.286 553.532,789.925 612.633 C 704.817 694.607,656.105 783.350,621.207 920.000 C 608.550 969.563,607.126 981.231,603.879 1062.000 C 601.934 1110.400,600.265 1251.470,600.171 1375.489 L 600.000 1600.978 529.972 1672.703 C 440.393 1764.453,433.314 1777.510,447.772 1824.320 C 457.813 1856.829,477.679 1880.924,502.145 1890.268 C 518.970 1896.693,566.638 1897.194,1199.102 1897.583 C 1750.391 1897.922,1880.788 1897.012,1892.831 1892.745 C 1914.227 1885.165,1946.088 1848.768,1954.395 1822.417 C 1967.704 1780.195,1953.679 1755.636,1862.370 1661.272 L 1800.799 1597.641 1798.925 1295.820 L 1797.052 994.000 1784.876 943.769 C 1766.842 869.369,1749.296 819.666,1722.119 766.000 C 1652.972 629.455,1540.821 532.300,1394.000 481.755 C 1376.400 475.695,1360.348 469.280,1358.330 467.499 C 1356.311 465.717,1353.312 445.380,1351.665 422.306 C 1346.433 349.003,1331.198 314.754,1289.982 283.635 C 1278.108 274.670,1260.499 264.960,1250.852 262.056 C 1227.840 255.131,1185.640 251.805,1167.849 255.514 M1000.000 2014.126 C 1000.000 2021.896,1003.758 2039.446,1008.352 2053.126 C 1041.260 2151.134,1135.791 2212.628,1229.000 2196.661 C 1284.502 2187.153,1334.477 2154.269,1366.329 2106.296 C 1383.172 2080.929,1399.799 2035.733,1399.916 2015.000 L 1400.000 2000.000 1200.000 2000.000 L 1000.000 2000.000 1000.000 2014.126 " fill="#1D1E23" stroke="none" fill-rule="evenodd"/></svg>