<svg viewBox="0 0 2400 2400" fill="none" xmlns="http://www.w3.org/2000/svg"><path d="M1149.344 259.400 C 1110.192 272.930,1074.897 307.959,1059.279 348.786 C 1053.398 364.160,1050.564 383.588,1048.985 419.355 C 1047.625 450.155,1045.150 469.152,1042.403 469.886 C 849.920 521.344,708.627 653.138,642.609 842.805 C 625.427 892.165,609.827 961.267,604.222 1012.842 C 601.677 1036.257,600.000 1160.988,600.000 1326.885 L 600.000 1602.086 529.720 1672.043 C 491.066 1710.519,455.668 1749.200,451.056 1758.000 C 432.900 1792.649,442.850 1842.959,473.805 1873.022 C 503.623 1901.981,450.356 1900.000,1199.248 1900.000 C 1720.571 1900.000,1876.798 1898.887,1889.536 1895.084 C 1915.514 1887.327,1945.792 1855.271,1953.982 1826.853 C 1968.304 1777.159,1957.750 1757.297,1869.463 1667.791 L 1800.000 1597.369 1800.000 1323.052 C 1800.000 1095.187,1798.919 1040.374,1793.617 999.367 C 1762.927 762.010,1637.896 583.169,1444.294 499.703 C 1424.039 490.970,1395.436 480.535,1380.733 476.513 L 1354.000 469.201 1351.376 419.600 C 1348.433 363.943,1341.010 338.520,1319.539 310.551 C 1289.473 271.385,1250.253 252.261,1200.000 252.261 C 1181.590 252.261,1162.020 255.019,1149.344 259.400 M1001.519 2022.299 C 1011.461 2106.889,1076.468 2178.328,1159.197 2195.580 C 1273.357 2219.386,1384.802 2138.682,1398.481 2022.299 L 1401.101 2000.000 1200.000 2000.000 L 998.899 2000.000 1001.519 2022.299 " fill="#1D1E23" stroke="none" fill-rule="evenodd"/></svg>