<svg viewBox="0 0 2400 2400" fill="none" xmlns="http://www.w3.org/2000/svg"><path d="M1048.000 360.126 C 1048.000 443.209,1046.842 468.577,1043.000 469.657 C 935.740 499.823,854.440 545.707,784.509 615.544 C 683.815 716.103,622.790 850.941,604.175 1014.000 C 601.753 1035.216,600.052 1163.357,600.033 1326.030 L 600.000 1602.060 500.000 1702.000 L 400.000 1801.940 400.000 1850.970 L 400.000 1900.000 1200.000 1900.000 L 2000.000 1900.000 2000.000 1848.970 L 2000.000 1797.940 1900.000 1698.000 L 1800.000 1598.060 1800.000 1323.235 C 1800.000 1099.863,1798.855 1039.572,1793.883 1001.205 C 1773.186 841.471,1715.095 715.656,1616.000 615.938 C 1546.944 546.449,1464.520 499.896,1357.000 469.657 C 1353.158 468.577,1352.000 443.209,1352.000 360.126 L 1352.000 252.000 1200.000 252.000 L 1048.000 252.000 1048.000 360.126 M1286.071 659.550 C 1455.935 694.609,1571.764 835.296,1595.919 1035.895 C 1598.372 1056.274,1600.000 1195.446,1600.000 1384.895 L 1600.000 1700.000 1200.000 1700.000 L 800.000 1700.000 800.000 1384.895 C 800.000 1072.289,801.370 1032.727,814.210 974.643 C 850.483 810.558,963.428 691.124,1112.000 659.744 C 1159.042 649.808,1238.443 649.720,1286.071 659.550 M1001.519 2022.299 C 1011.461 2106.889,1076.468 2178.328,1159.197 2195.580 C 1273.357 2219.386,1384.802 2138.682,1398.481 2022.299 L 1401.101 2000.000 1200.000 2000.000 L 998.899 2000.000 1001.519 2022.299 " fill="#1D1E23" stroke="none" fill-rule="evenodd"/></svg>