<svg viewBox="0 0 2400 2400" fill="none" xmlns="http://www.w3.org/2000/svg"><path d="M1046.504 354.002 C 1044.988 410.103,1042.808 458.453,1041.659 461.447 C 1040.510 464.440,1014.017 478.113,982.785 491.831 C 880.345 536.826,830.140 569.690,774.462 628.198 C 700.570 705.846,644.733 814.935,617.936 934.000 C 608.017 978.072,606.858 992.473,603.773 1110.000 C 601.925 1180.400,600.320 1319.914,600.206 1420.030 L 600.000 1602.060 500.000 1702.000 L 400.000 1801.940 400.000 1850.970 L 400.000 1900.000 1200.000 1900.000 L 2000.000 1900.000 2000.000 1848.970 L 2000.000 1797.940 1900.282 1698.281 L 1800.563 1598.623 1799.039 1290.311 L 1797.514 982.000 1779.155 920.000 C 1737.065 777.867,1693.600 698.989,1612.569 617.694 C 1556.036 560.977,1502.227 526.825,1405.494 486.263 L 1360.988 467.601 1358.617 444.801 C 1357.314 432.260,1355.031 383.750,1353.546 337.000 L 1350.845 252.000 1200.052 252.000 L 1049.260 252.000 1046.504 354.002 M1000.084 2013.000 C 1000.192 2029.541,1015.915 2074.293,1030.291 2098.973 C 1054.676 2140.837,1106.117 2179.240,1157.791 2194.159 C 1213.295 2210.183,1286.272 2187.796,1336.071 2139.468 C 1369.160 2107.355,1400.000 2046.455,1400.000 2013.223 L 1400.000 2000.000 1200.000 2000.000 L 1000.000 2000.000 1000.084 2013.000 " fill="#1D1E23" stroke="none" fill-rule="evenodd"/></svg>