<svg viewBox="0 0 2400 2400" fill="none" xmlns="http://www.w3.org/2000/svg"><path d="M1137.849 267.545 C 1112.445 280.411,1079.329 310.264,1069.421 329.233 C 1059.388 348.442,1048.000 400.105,1048.000 426.417 C 1048.000 461.351,1042.207 466.684,973.205 495.267 C 906.192 523.026,860.702 550.572,812.161 592.786 C 777.296 623.107,733.155 672.505,708.994 708.240 C 665.515 772.547,620.184 897.033,607.849 986.000 C 605.127 1005.631,602.559 1130.856,601.206 1309.976 L 598.999 1601.953 535.050 1667.714 C 457.080 1747.895,442.359 1768.485,442.785 1796.765 C 443.219 1825.488,464.240 1865.621,487.342 1881.832 L 504.683 1894.000 953.342 1897.151 C 1200.104 1898.883,1512.985 1898.883,1648.634 1897.151 L 1895.269 1894.000 1910.429 1881.725 C 1929.958 1865.913,1950.685 1835.738,1956.273 1814.985 C 1965.801 1779.601,1947.021 1749.542,1856.838 1655.829 L 1800.858 1597.657 1799.116 1293.829 L 1797.374 990.000 1784.828 941.791 C 1757.647 837.353,1729.375 770.412,1683.424 701.693 C 1614.415 598.492,1521.679 528.976,1385.293 478.210 L 1356.586 467.524 1354.121 440.762 C 1344.810 339.675,1325.491 301.485,1267.868 270.262 C 1248.680 259.865,1241.397 258.341,1204.103 256.919 C 1163.555 255.374,1161.108 255.766,1137.849 267.545 M1000.000 2013.818 C 1000.000 2031.866,1015.492 2074.119,1032.491 2102.433 C 1065.439 2157.310,1138.101 2200.159,1197.840 2199.941 C 1245.488 2199.767,1301.517 2175.223,1338.347 2138.394 C 1371.339 2105.402,1400.000 2047.283,1400.000 2013.374 L 1400.000 2000.000 1200.000 2000.000 L 1000.000 2000.000 1000.000 2013.818 " fill="#1D1E23" stroke="none" fill-rule="evenodd"/></svg>