<svg viewBox="0 0 2400 2400" fill="none" xmlns="http://www.w3.org/2000/svg"><path d="M1047.348 355.391 C 1046.356 431.463,1044.657 460.400,1040.916 464.903 C 1038.120 468.268,1021.920 475.933,1004.916 481.935 C 968.450 494.807,898.936 528.782,865.607 550.022 C 748.371 624.736,664.197 751.015,622.009 915.470 C 604.354 984.294,603.565 999.110,601.195 1306.575 L 598.908 1603.151 499.454 1702.545 L 400.000 1801.940 400.000 1850.970 L 400.000 1900.000 1200.000 1900.000 L 2000.000 1900.000 2000.000 1848.970 L 2000.000 1797.940 1900.407 1698.407 L 1800.815 1598.874 1798.915 1296.437 L 1797.014 994.000 1784.858 943.769 C 1766.870 869.447,1749.314 819.702,1722.119 766.000 C 1652.880 629.274,1540.405 531.946,1393.223 481.397 C 1369.660 473.304,1359.755 467.872,1357.986 462.070 C 1356.633 457.632,1354.476 408.550,1353.192 353.000 L 1350.857 252.000 1199.777 252.000 L 1048.696 252.000 1047.348 355.391 M576.000 297.498 C 462.884 396.720,371.825 511.858,316.199 626.000 C 252.074 757.581,213.330 893.446,205.247 1015.071 L 202.784 1052.142 302.118 1051.071 L 401.453 1050.000 410.503 991.453 C 428.186 877.059,448.840 809.593,492.665 723.066 C 526.169 656.916,556.353 610.190,596.710 562.000 C 631.840 520.053,709.587 443.663,737.000 424.161 C 747.450 416.727,756.000 409.580,756.000 408.280 C 756.000 406.980,724.050 374.023,685.000 335.041 L 614.000 264.165 576.000 297.498 M1713.563 336.659 L 1643.507 405.996 1657.045 417.998 C 1664.491 424.599,1686.863 443.808,1706.760 460.686 C 1777.828 520.966,1860.393 628.954,1907.729 723.535 C 1951.537 811.065,1971.915 877.715,1989.346 990.475 L 1998.547 1050.000 2097.882 1051.071 L 2197.216 1052.142 2194.722 1015.071 C 2190.022 945.191,2165.791 832.886,2137.917 751.791 C 2106.468 660.297,2033.653 529.108,1968.191 446.000 C 1938.922 408.842,1815.212 285.452,1796.408 274.662 L 1783.620 267.323 1713.563 336.659 M1001.080 2024.169 C 1004.296 2059.628,1025.173 2100.613,1057.448 2134.827 C 1121.029 2202.226,1204.236 2217.678,1287.190 2177.491 C 1311.030 2165.942,1349.007 2132.521,1365.759 2108.347 C 1379.519 2088.492,1394.753 2047.324,1398.336 2020.311 L 1401.031 2000.000 1199.960 2000.000 L 998.889 2000.000 1001.080 2024.169 " fill="#1D1E23" stroke="none" fill-rule="evenodd"/></svg>