<svg viewBox="0 0 2400 2400" fill="none" xmlns="http://www.w3.org/2000/svg"><path d="M1047.599 317.000 C 1047.379 352.750,1046.029 399.781,1044.599 421.514 C 1041.541 468.011,1045.859 463.391,976.670 494.186 C 787.302 578.471,681.986 702.007,626.308 905.159 C 604.364 985.224,603.406 1000.792,601.103 1314.537 L 598.985 1603.074 499.493 1702.507 L 400.000 1801.940 400.000 1850.970 L 400.000 1900.000 1200.000 1900.000 L 2000.000 1900.000 2000.000 1848.970 L 2000.000 1797.940 1900.000 1698.000 L 1800.000 1598.060 1799.964 1362.030 C 1799.914 1027.710,1795.180 965.915,1761.964 865.957 C 1728.905 766.471,1693.271 704.514,1630.719 637.766 C 1566.672 569.422,1512.683 532.523,1415.082 490.387 C 1384.999 477.400,1359.387 464.171,1358.166 460.990 C 1356.945 457.808,1354.770 409.484,1353.332 353.603 L 1350.717 252.000 1199.359 252.000 L 1048.000 252.000 1047.599 317.000 M1307.208 667.327 C 1370.651 684.666,1426.807 718.728,1474.017 768.507 C 1508.603 804.976,1527.065 832.576,1552.051 885.171 C 1574.960 933.392,1582.077 959.332,1587.948 1016.000 C 1592.191 1056.957,1599.636 1427.015,1599.879 1609.000 L 1600.000 1700.000 1200.000 1700.000 L 800.000 1700.000 800.104 1597.000 C 800.285 1417.086,807.648 1059.577,812.069 1016.000 C 817.173 965.698,824.434 937.339,843.822 892.000 C 894.729 772.948,996.143 688.432,1120.000 661.840 C 1158.645 653.544,1268.562 656.765,1307.208 667.327 M1000.084 2013.000 C 1000.192 2029.541,1015.915 2074.293,1030.291 2098.973 C 1054.676 2140.837,1106.117 2179.240,1157.791 2194.159 C 1213.295 2210.183,1286.272 2187.796,1336.071 2139.468 C 1369.160 2107.355,1400.000 2046.455,1400.000 2013.223 L 1400.000 2000.000 1200.000 2000.000 L 1000.000 2000.000 1000.084 2013.000 " fill="#1D1E23" stroke="none" fill-rule="evenodd"/></svg>