<svg viewBox="0 0 2400 2400" fill="none" xmlns="http://www.w3.org/2000/svg"><g><path d="M758.003 408L615.003 265C375.003 448 217.003 730 203.003 1050H403.003C418.003 785 554.003 553 758.003 408ZM1997 1050H2197C2182 730 2024 448 1785 265L1643 408C1845 553 1982 785 1997 1050ZM1800 1100C1800 793 1636 536 1350 468V250H1050V468C763.003 536 600.003 792 600.003 1100V1600L400.003 1800V1900H2000V1800L1800 1600V1100ZM1200 2200C1214 2200 1227 2199 1240 2196C1305 2182 1358 2138 1384 2078C1394 2054 1399 2028 1399 2000H999.003C1000 2110 1089 2200 1200 2200Z" fill="#1D1E23"/></g></svg>