<svg viewBox="0 0 2400 2400" fill="none" xmlns="http://www.w3.org/2000/svg"><g><path d="M1800 1600V1100C1800 793 1636 536 1350 468V400C1350 317 1282 250 1199 250C1116 250 1050 317 1050 400V468C762.998 536 599.998 792 599.998 1100V1600L469.998 1729C406.998 1792 450.998 1900 539.998 1900H1857C1946 1900 1991 1792 1928 1729L1800 1600ZM1199 2200C1309 2200 1399 2110 1399 2000H998.998C998.998 2110 1088 2200 1199 2200ZM676.998 473C718.998 435 719.998 370 679.998 330C641.998 292 579.998 291 540.998 328C369.998 484 251.998 696 213.998 934C204.998 995 251.998 1050 313.998 1050C361.998 1050 403.998 1015 411.998 967C441.998 773 537.998 600 676.998 473ZM1860 328C1820 291 1758 292 1720 330C1680 370 1682 434 1723 472C1861 599 1958 772 1988 966C1995 1014 2037 1049 2086 1049C2147 1049 2195 994 2185 933C2147 696 2030 485 1860 328Z" fill="#1D1E23"/></g></svg>