<svg viewBox="0 0 2400 2400" fill="none" xmlns="http://www.w3.org/2000/svg"><path d="M1137.094 267.949 C 1106.330 283.490,1078.000 310.463,1067.493 334.215 C 1057.302 357.252,1048.164 400.388,1048.048 426.000 C 1047.897 459.495,1041.706 465.300,974.000 495.435 C 878.243 538.055,842.993 561.756,779.023 626.532 C 729.497 676.681,704.465 710.959,677.591 765.424 C 654.566 812.087,624.459 899.224,614.442 948.189 C 604.659 996.005,600.046 1132.268,600.022 1374.125 L 600.000 1598.250 575.580 1622.125 C 526.559 1670.050,459.754 1744.800,451.522 1760.937 C 439.143 1785.201,440.354 1810.825,455.316 1841.216 C 473.978 1879.125,485.772 1888.411,520.815 1892.789 C 536.867 1894.794,850.210 1897.404,1217.134 1898.590 L 1884.269 1900.745 1899.134 1889.455 C 1932.922 1863.797,1950.918 1836.320,1954.667 1804.665 C 1958.680 1770.779,1945.683 1751.747,1852.967 1655.750 L 1800.571 1601.499 1799.043 1291.750 L 1797.514 982.000 1779.155 920.000 C 1741.900 794.194,1709.049 728.353,1644.863 650.855 C 1589.142 583.578,1505.546 527.301,1391.339 480.185 C 1374.475 473.228,1359.626 464.796,1358.342 461.448 C 1357.057 458.100,1354.144 438.854,1351.869 418.680 C 1346.906 374.678,1342.201 356.052,1329.993 332.067 C 1317.093 306.722,1294.699 285.830,1264.496 270.961 C 1241.994 259.883,1233.650 258.042,1200.315 256.798 C 1163.907 255.439,1160.760 255.994,1137.094 267.949 M554.000 322.432 C 527.472 342.018,477.169 393.071,438.159 440.000 C 334.556 564.632,252.509 738.696,219.763 903.330 C 211.146 946.651,211.037 949.580,217.296 969.437 C 235.510 1027.216,291.624 1059.396,343.891 1042.036 C 387.528 1027.542,393.820 1016.763,428.027 897.906 C 451.837 815.177,464.065 783.018,496.420 718.048 C 525.026 660.605,568.080 595.811,612.071 544.000 C 675.789 468.953,687.800 453.228,697.787 431.773 C 712.621 399.905,710.387 377.418,689.373 347.095 C 671.579 321.418,648.608 310.636,608.279 309.030 C 574.171 307.672,573.900 307.739,554.000 322.432 M1739.611 319.210 C 1717.867 333.209,1707.288 347.078,1698.473 373.140 C 1689.665 399.183,1690.292 409.437,1702.131 433.009 C 1713.527 455.698,1726.093 472.563,1763.967 516.000 C 1832.248 594.309,1876.422 658.737,1909.761 728.642 C 1934.974 781.507,1949.712 822.398,1974.407 908.000 C 1997.840 989.228,2002.474 1000.920,2017.204 1015.987 C 2064.739 1064.607,2142.286 1053.672,2171.802 994.187 C 2179.923 977.821,2181.532 968.909,2181.183 942.217 C 2179.889 842.991,2107.303 649.338,2025.926 528.000 C 1971.745 447.214,1872.079 334.555,1840.000 317.837 C 1830.735 313.009,1814.501 310.005,1792.000 308.956 C 1759.823 307.455,1757.014 308.005,1739.611 319.210 M1000.000 2012.713 C 1000.000 2046.774,1024.255 2098.391,1057.109 2134.246 C 1075.289 2154.086,1088.087 2163.555,1113.324 2175.841 C 1160.424 2198.771,1188.198 2203.437,1228.263 2195.152 C 1283.469 2183.737,1322.964 2159.747,1356.823 2117.063 C 1371.732 2098.269,1393.106 2049.497,1398.100 2022.876 L 1400.660 2009.230 1369.330 2006.578 C 1352.098 2005.119,1261.950 2002.749,1169.000 2001.311 L 1000.000 1998.697 1000.000 2012.713 " fill="#1D1E23" stroke="none" fill-rule="evenodd"/></svg>