<svg viewBox="0 0 2400 2400" fill="none" xmlns="http://www.w3.org/2000/svg"><path d="M1048.000 351.740 C 1048.000 406.596,1046.412 455.656,1044.471 460.762 C 1041.722 467.991,1033.191 472.569,1005.902 481.456 C 957.885 497.093,884.895 534.421,844.000 564.253 C 737.255 642.123,662.298 758.751,624.178 906.284 C 602.655 989.582,603.120 981.575,601.211 1302.318 L 599.425 1602.635 499.712 1702.288 L 400.000 1801.940 400.000 1850.970 L 400.000 1900.000 1200.000 1900.000 L 2000.000 1900.000 2000.000 1848.970 L 2000.000 1797.940 1900.291 1698.291 L 1800.582 1598.641 1798.870 1302.321 L 1797.159 1006.000 1787.106 956.000 C 1744.690 745.046,1636.901 594.948,1468.067 511.735 C 1432.481 494.195,1373.316 472.000,1362.148 472.000 C 1355.754 472.000,1352.048 417.479,1352.021 323.000 L 1352.000 252.000 1200.000 252.000 L 1048.000 252.000 1048.000 351.740 M578.000 295.054 C 484.627 374.781,396.094 480.116,341.672 576.234 C 296.244 656.466,248.299 777.773,228.727 862.000 C 218.039 907.992,204.050 1003.729,204.022 1031.070 L 204.000 1052.140 302.876 1051.070 L 401.752 1050.000 408.671 1000.000 C 416.741 941.688,432.137 873.363,448.736 822.199 C 465.827 769.522,511.079 679.503,547.752 625.228 C 594.491 556.056,680.983 464.517,738.907 422.919 C 748.308 416.168,756.000 409.580,756.000 408.280 C 756.000 406.980,724.050 374.056,685.000 335.116 L 614.000 264.315 578.000 295.054 M1712.736 337.628 L 1642.808 407.257 1682.951 439.546 C 1779.892 517.523,1872.264 638.543,1924.367 755.833 C 1959.397 834.691,1977.219 899.753,1991.250 1000.000 L 1998.248 1050.000 2097.124 1051.070 L 2196.000 1052.140 2196.000 1034.965 C 2196.000 990.711,2176.819 882.521,2155.408 806.000 C 2121.261 683.965,2049.579 546.757,1965.244 442.000 C 1918.869 384.396,1798.341 268.000,1785.067 268.000 C 1783.745 268.000,1751.196 299.333,1712.736 337.628 M1000.047 2013.000 C 1000.241 2065.862,1039.056 2130.394,1092.676 2166.996 C 1189.254 2232.922,1324.366 2194.359,1379.515 2085.126 C 1388.328 2067.670,1399.837 2024.776,1399.941 2009.000 L 1400.000 2000.000 1200.000 2000.000 L 1000.000 2000.000 1000.047 2013.000 " fill="#1D1E23" stroke="none" fill-rule="evenodd"/></svg>