<svg viewBox="0 0 2400 2400" fill="none" xmlns="http://www.w3.org/2000/svg"><path d="M1161.096 256.213 C 1124.950 263.348,1081.837 298.283,1065.713 333.503 C 1055.636 355.514,1048.210 396.462,1048.079 430.740 C 1047.947 465.310,1045.214 468.653,1006.884 481.136 C 815.228 543.551,678.297 694.134,625.962 900.036 C 602.248 993.334,603.146 978.836,601.207 1299.856 L 599.409 1597.711 528.595 1669.939 C 489.581 1709.732,454.306 1749.314,450.043 1758.083 C 430.641 1797.987,447.097 1857.184,484.592 1882.366 C 500.705 1893.187,507.640 1895.060,540.117 1897.366 C 560.529 1898.815,870.802 1899.983,1229.614 1899.962 L 1882.000 1899.925 1902.268 1888.300 C 1936.529 1868.648,1956.000 1834.876,1956.000 1795.102 C 1956.000 1784.161,1952.967 1768.817,1949.260 1761.006 C 1945.553 1753.194,1910.586 1714.132,1871.555 1674.201 L 1800.591 1601.601 1798.875 1303.800 L 1797.159 1006.000 1787.106 956.000 C 1744.690 745.046,1636.901 594.948,1468.067 511.735 C 1432.288 494.101,1373.300 472.000,1362.011 472.000 C 1355.219 472.000,1352.127 458.995,1352.024 430.000 C 1351.819 372.002,1339.222 333.347,1309.896 300.730 C 1287.370 275.675,1259.787 261.090,1225.580 256.145 C 1193.936 251.571,1184.563 251.581,1161.096 256.213 M568.854 310.025 C 561.623 313.167,535.757 335.146,511.375 358.868 C 364.133 502.121,263.050 690.064,219.692 901.194 C 210.425 946.319,211.370 967.243,223.771 991.551 C 250.023 1043.009,307.604 1062.832,358.497 1037.932 C 392.701 1021.198,403.937 999.832,422.618 916.000 C 437.665 848.479,457.079 793.081,487.801 730.000 C 531.966 639.315,572.660 582.118,656.530 492.846 C 695.860 450.982,708.000 429.847,708.000 403.240 C 708.000 345.492,666.024 303.811,608.215 304.157 C 593.797 304.243,576.084 306.883,568.854 310.025 M1741.808 315.657 C 1707.639 335.256,1689.179 371.510,1693.256 411.010 C 1696.113 438.698,1704.135 450.758,1757.936 508.242 C 1880.261 638.943,1939.973 753.990,1984.104 944.000 C 1998.442 1005.733,2016.239 1030.802,2053.726 1042.070 C 2094.193 1054.235,2122.288 1048.334,2152.199 1021.389 C 2185.626 991.276,2191.229 959.549,2176.106 886.000 C 2136.277 692.286,2034.105 502.756,1893.955 362.606 C 1844.156 312.807,1828.458 303.985,1789.737 304.038 C 1766.497 304.069,1758.726 305.953,1741.808 315.657 M1000.000 2015.436 C 1000.000 2041.713,1014.613 2080.770,1035.653 2110.731 C 1069.194 2158.491,1100.187 2180.020,1156.000 2194.326 C 1200.311 2205.684,1257.966 2196.017,1302.873 2169.700 C 1328.614 2154.615,1361.953 2118.846,1375.452 2091.833 C 1388.433 2065.855,1403.225 2009.893,1398.389 2005.052 C 1396.712 2003.374,1306.388 2001.486,1197.670 2000.857 L 1000.000 1999.714 1000.000 2015.436 " fill="#1D1E23" stroke="none" fill-rule="evenodd"/></svg>