<svg viewBox="0 0 2400 2400" fill="none" xmlns="http://www.w3.org/2000/svg"><path d="M1047.769 343.000 C 1047.643 393.050,1046.271 441.143,1044.722 449.873 C 1041.486 468.109,1041.106 468.357,980.000 492.078 C 845.694 544.214,740.516 639.832,675.538 768.867 C 637.679 844.048,611.334 940.263,604.149 1029.581 C 601.854 1058.110,600.000 1197.556,600.000 1341.611 L 600.000 1602.060 500.000 1702.000 L 400.000 1801.940 400.000 1850.970 L 400.000 1900.000 1200.000 1900.000 L 2000.000 1900.000 2000.000 1848.970 L 2000.000 1797.940 1900.000 1698.000 L 1800.000 1598.060 1799.909 1340.030 C 1799.814 1068.544,1797.462 1010.254,1783.896 943.178 C 1765.187 850.671,1722.268 750.083,1674.327 686.381 C 1643.674 645.653,1581.425 583.130,1547.238 558.734 C 1514.161 535.131,1444.462 499.726,1399.050 483.460 C 1379.828 476.575,1361.828 468.206,1359.050 464.862 C 1355.353 460.411,1353.639 431.092,1352.652 355.391 L 1351.304 252.000 1199.652 252.000 L 1048.000 252.000 1047.769 343.000 M1252.105 656.144 C 1342.866 667.240,1416.183 703.368,1476.240 766.588 C 1534.914 828.352,1580.580 926.674,1591.632 1015.030 C 1593.762 1032.064,1596.799 1193.150,1598.380 1373.000 L 1601.254 1700.000 1200.627 1700.000 L 800.000 1700.000 800.290 1531.000 C 800.776 1247.768,806.517 1010.146,813.621 979.252 C 864.153 759.494,1039.656 630.170,1252.105 656.144 M1000.000 2014.126 C 1000.000 2021.896,1003.758 2039.446,1008.352 2053.126 C 1041.260 2151.134,1135.791 2212.628,1229.000 2196.661 C 1284.502 2187.153,1334.477 2154.269,1366.329 2106.296 C 1383.172 2080.929,1399.799 2035.733,1399.916 2015.000 L 1400.000 2000.000 1200.000 2000.000 L 1000.000 2000.000 1000.000 2014.126 " fill="#1D1E23" stroke="none" fill-rule="evenodd"/></svg>