<svg viewBox="0 0 2400 2400" fill="none" xmlns="http://www.w3.org/2000/svg"><path d="M1048.000 351.740 C 1048.000 406.596,1046.412 455.656,1044.471 460.762 C 1041.734 467.959,1033.290 472.536,1006.884 481.136 C 962.985 495.432,900.324 526.147,861.009 552.640 C 818.895 581.019,754.299 644.720,722.447 689.283 C 657.194 780.573,613.956 903.261,603.779 1026.000 C 601.772 1050.200,600.101 1189.714,600.065 1336.030 L 600.000 1602.060 500.000 1702.000 L 400.000 1801.940 400.000 1850.970 L 400.000 1900.000 1200.000 1900.000 L 2000.000 1900.000 2000.000 1848.970 L 2000.000 1797.940 1900.000 1698.000 L 1800.000 1598.060 1799.897 1330.030 C 1799.840 1182.614,1798.053 1044.000,1795.925 1022.000 C 1784.456 903.416,1747.813 794.953,1689.251 706.244 C 1656.917 657.263,1583.803 582.444,1538.991 552.480 C 1499.367 525.983,1436.669 495.319,1393.116 481.136 C 1366.710 472.536,1358.266 467.959,1355.529 460.762 C 1353.588 455.656,1352.000 406.596,1352.000 351.740 L 1352.000 252.000 1200.000 252.000 L 1048.000 252.000 1048.000 351.740 M1259.075 656.121 C 1426.294 677.088,1548.737 801.817,1588.800 992.000 C 1596.334 1027.763,1596.925 1049.722,1598.840 1365.000 L 1600.875 1700.000 1200.054 1700.000 L 799.232 1700.000 801.130 1369.000 C 802.439 1140.661,804.505 1028.845,807.793 1008.482 C 824.338 906.018,869.432 817.448,937.923 752.892 C 1022.659 673.024,1131.742 640.155,1259.075 656.121 M1000.000 2011.160 C 1000.000 2049.931,1027.112 2107.122,1062.026 2141.999 C 1139.392 2219.286,1261.173 2218.338,1340.558 2139.833 C 1372.719 2108.027,1400.000 2048.973,1400.000 2011.160 L 1400.000 2000.000 1200.000 2000.000 L 1000.000 2000.000 1000.000 2011.160 " fill="#1D1E23" stroke="none" fill-rule="evenodd"/></svg>