<svg viewBox="0 0 2400 2400" fill="none" xmlns="http://www.w3.org/2000/svg"><path d="M1158.100 258.431 C 1119.458 270.734,1084.658 299.348,1067.549 332.884 C 1058.405 350.807,1048.000 400.239,1048.000 425.755 C 1048.000 457.736,1042.384 466.118,1012.725 478.404 C 892.344 528.270,848.587 555.334,784.258 619.711 C 723.118 680.896,693.941 723.762,660.774 801.127 C 642.224 844.396,623.784 903.329,613.905 950.919 C 604.182 997.757,600.229 1117.649,600.109 1369.416 L 600.000 1596.833 535.605 1663.269 C 500.188 1699.809,466.158 1737.050,459.982 1746.026 C 443.679 1769.721,438.951 1790.714,444.299 1815.654 C 450.207 1843.198,476.280 1881.856,493.091 1887.995 C 517.991 1897.088,687.143 1899.614,1284.198 1899.806 L 1886.397 1900.000 1909.968 1881.000 C 1937.030 1859.186,1952.281 1833.302,1955.049 1804.486 C 1958.515 1768.415,1947.045 1752.110,1843.562 1646.000 L 1800.651 1602.000 1798.974 1296.000 L 1797.297 990.000 1784.789 941.791 C 1747.591 798.419,1702.645 710.709,1622.439 624.968 C 1572.784 571.886,1488.105 518.229,1400.000 484.018 C 1381.300 476.757,1363.475 468.493,1360.389 465.654 C 1356.758 462.313,1353.634 445.936,1351.539 419.246 C 1346.246 351.834,1328.795 313.010,1291.472 285.613 C 1253.846 257.992,1196.306 246.265,1158.100 258.431 M577.684 308.158 C 546.196 317.659,453.577 413.074,393.063 498.354 C 309.013 616.802,244.350 769.607,217.900 912.282 C 211.090 949.019,211.093 951.483,217.978 973.373 C 237.239 1034.609,303.955 1064.692,358.490 1036.731 C 390.740 1020.196,397.839 1006.746,423.711 913.163 C 448.320 824.145,458.986 794.291,487.720 734.000 C 528.248 648.960,570.796 587.658,651.522 498.000 C 688.801 456.595,708.042 422.597,707.912 398.361 C 707.742 366.727,684.230 330.480,654.907 316.648 C 635.017 307.267,595.163 302.885,577.684 308.158 M1761.055 307.691 C 1745.203 311.703,1723.537 327.798,1711.800 344.281 C 1701.875 358.219,1692.000 388.002,1692.000 403.997 C 1692.000 422.534,1714.862 460.659,1748.369 498.000 C 1877.472 641.876,1928.706 735.448,1976.146 914.000 C 1985.498 949.200,1997.365 986.438,2002.517 996.752 C 2023.413 1038.585,2080.435 1059.478,2122.000 1040.531 C 2174.256 1016.710,2190.419 977.508,2178.427 903.671 C 2161.128 797.158,2106.210 656.169,2040.855 550.489 C 1986.399 462.432,1876.624 336.093,1837.705 316.683 C 1819.116 307.413,1780.196 302.847,1761.055 307.691 M1000.000 2013.579 C 1000.000 2035.394,1014.640 2076.686,1031.452 2102.289 C 1063.906 2151.710,1102.045 2179.328,1157.840 2193.811 C 1187.949 2201.627,1201.373 2201.581,1237.210 2193.541 C 1281.536 2183.596,1306.429 2169.958,1338.141 2138.246 C 1360.785 2115.602,1368.939 2103.949,1378.917 2079.971 C 1393.276 2045.467,1402.220 2012.887,1398.387 2009.053 C 1394.572 2005.239,1244.251 2000.621,1113.000 2000.287 L 1000.000 2000.000 1000.000 2013.579 " fill="#1D1E23" stroke="none" fill-rule="evenodd"/></svg>