<svg viewBox="0 0 2400 2400" fill="none" xmlns="http://www.w3.org/2000/svg"><path d="M1048.000 360.126 C 1048.000 443.209,1046.842 468.577,1043.000 469.657 C 870.738 518.104,750.163 616.035,672.792 770.338 C 640.176 835.384,613.103 931.131,604.222 1012.842 C 601.677 1036.257,600.000 1160.984,600.000 1326.872 L 600.000 1602.060 500.000 1702.000 L 400.000 1801.940 400.000 1850.970 L 400.000 1900.000 1200.000 1900.000 L 2000.000 1900.000 2000.000 1848.970 L 2000.000 1797.940 1900.000 1698.000 L 1800.000 1598.060 1800.000 1323.397 C 1800.000 1095.216,1798.920 1040.379,1793.617 999.367 C 1762.927 762.010,1637.896 583.169,1444.294 499.703 C 1424.039 490.970,1395.436 480.531,1380.733 476.504 L 1354.000 469.182 1352.936 360.591 L 1351.871 252.000 1199.936 252.000 L 1048.000 252.000 1048.000 360.126 M580.000 293.147 C 502.568 357.941,427.866 441.821,370.845 528.000 C 309.871 620.152,251.021 760.325,226.418 872.000 C 215.757 920.392,204.000 1005.853,204.000 1034.950 L 204.000 1052.140 303.000 1051.070 L 402.000 1050.000 405.106 1024.000 C 426.200 847.413,474.781 721.361,573.143 588.000 C 605.629 543.954,689.825 458.670,729.000 430.128 C 743.850 419.309,756.000 409.435,756.000 408.187 C 756.000 406.938,724.050 374.142,685.000 335.307 L 614.000 264.697 580.000 293.147 M1712.145 337.855 C 1673.772 376.275,1643.191 408.357,1644.188 409.148 C 1645.185 409.940,1657.344 419.182,1671.208 429.687 C 1762.513 498.870,1852.302 608.984,1907.933 720.000 C 1956.276 816.472,1980.019 899.471,1994.894 1024.000 L 1998.000 1050.000 2097.595 1051.071 L 2197.191 1052.142 2194.506 1013.944 C 2188.899 934.186,2163.355 817.942,2133.729 737.363 C 2114.333 684.610,2066.024 586.360,2037.669 542.000 C 1974.132 442.597,1900.583 359.738,1809.445 284.883 C 1798.140 275.597,1787.320 268.000,1785.402 268.000 C 1783.484 268.000,1750.518 299.435,1712.145 337.855 M1000.000 2013.160 C 1000.000 2032.848,1010.872 2070.789,1023.078 2093.701 C 1039.448 2124.427,1081.211 2164.457,1112.000 2178.934 C 1162.376 2202.621,1210.085 2206.212,1258.495 2189.961 C 1274.943 2184.440,1293.260 2176.899,1299.200 2173.204 C 1355.694 2138.063,1390.265 2085.005,1398.371 2021.000 L 1401.031 2000.000 1200.515 2000.000 L 1000.000 2000.000 1000.000 2013.160 " fill="#1D1E23" stroke="none" fill-rule="evenodd"/></svg>