<svg viewBox="0 0 2400 2400" fill="none" xmlns="http://www.w3.org/2000/svg"><path d="M1047.552 321.000 C 1047.306 358.950,1045.956 407.048,1044.552 427.884 L 1042.000 465.767 986.000 489.972 C 885.209 533.536,833.033 566.718,779.051 621.582 C 691.902 710.157,623.829 856.692,607.903 990.000 C 605.459 1010.458,602.566 1150.605,601.201 1314.630 L 598.800 1603.259 499.400 1702.600 L 400.000 1801.940 400.000 1850.970 L 400.000 1900.000 1200.000 1900.000 L 2000.000 1900.000 2000.000 1848.970 L 2000.000 1797.940 1900.450 1698.450 L 1800.900 1598.960 1799.099 1294.480 L 1797.297 990.000 1784.789 941.791 C 1758.848 841.807,1730.283 772.719,1688.703 709.396 C 1645.397 643.445,1587.355 585.215,1525.163 545.327 C 1495.443 526.266,1431.289 495.094,1394.819 481.995 C 1377.669 475.836,1362.069 467.866,1360.152 464.285 C 1358.236 460.703,1355.356 411.474,1353.753 354.887 L 1350.839 252.000 1199.420 252.000 L 1048.000 252.000 1047.552 321.000 M563.851 309.175 C 511.193 357.025,469.447 401.133,426.781 454.000 C 307.535 601.758,218.340 826.472,205.666 1011.071 L 202.847 1052.142 302.176 1051.071 L 401.505 1050.000 412.546 982.940 C 418.618 946.058,429.023 895.511,435.667 870.614 C 463.880 764.899,526.398 646.577,601.018 557.673 C 634.888 517.318,710.472 443.340,738.109 423.492 C 747.949 416.426,756.000 409.580,756.000 408.280 C 756.000 406.980,723.994 373.948,684.875 334.874 L 613.750 263.832 563.851 309.175 M1712.787 337.212 L 1643.659 406.424 1692.830 449.074 C 1760.433 507.713,1801.747 555.105,1854.037 634.000 C 1929.151 747.331,1963.438 837.072,1987.528 983.387 L 1998.495 1050.000 2097.248 1051.070 L 2196.000 1052.140 2195.978 1033.070 C 2195.912 975.007,2162.921 819.863,2134.083 742.000 C 2103.601 659.697,2041.295 545.007,1986.224 469.826 C 1951.120 421.903,1797.369 268.000,1784.598 268.000 C 1783.122 268.000,1750.807 299.145,1712.787 337.212 M1000.000 2013.274 C 1000.000 2069.870,1056.889 2150.834,1116.719 2179.388 C 1156.108 2198.187,1192.952 2203.281,1231.651 2195.279 C 1248.776 2191.738,1273.303 2183.702,1286.156 2177.420 C 1317.507 2162.100,1363.620 2116.716,1377.013 2088.000 C 1387.818 2064.836,1400.000 2022.662,1400.000 2008.423 L 1400.000 2000.000 1200.000 2000.000 L 1000.000 2000.000 1000.000 2013.274 " fill="#1D1E23" stroke="none" fill-rule="evenodd"/></svg>