<svg viewBox="0 0 2400 2400" fill="none" xmlns="http://www.w3.org/2000/svg"><path d="M554.735 109.795 C 536.562 116.277,532.573 119.449,486.000 164.453 L 450.000 199.240 316.000 201.250 C 228.624 202.561,176.433 204.938,166.000 208.082 C 156.587 210.918,142.339 220.555,131.392 231.489 C 95.204 267.631,91.898 314.187,122.361 358.666 C 142.400 387.926,154.242 392.412,221.721 396.312 C 295.044 400.549,1304.956 400.549,1378.279 396.312 C 1445.758 392.412,1457.600 387.926,1477.639 358.666 C 1508.102 314.187,1504.796 267.631,1468.608 231.489 C 1457.661 220.555,1443.413 210.918,1434.000 208.082 C 1423.615 204.953,1370.972 202.508,1284.000 201.114 L 1150.000 198.968 1112.483 163.135 C 1091.849 143.427,1067.729 122.059,1058.883 115.651 L 1042.800 104.000 806.400 104.176 C 617.488 104.316,566.934 105.445,554.735 109.795 M200.802 1117.000 L 202.000 1734.000 211.311 1760.000 C 223.784 1794.828,239.339 1818.337,268.003 1845.677 C 300.426 1876.603,334.326 1891.682,381.756 1896.274 C 401.690 1898.204,541.520 1899.832,692.488 1899.892 L 966.976 1900.000 988.488 1938.279 C 1063.400 2071.578,1187.012 2183.127,1324.000 2241.049 C 1488.269 2310.506,1651.332 2318.000,1817.207 2263.713 C 1935.343 2225.050,2040.358 2154.562,2127.838 2055.211 C 2226.132 1943.579,2285.342 1803.627,2296.310 1657.000 C 2313.307 1429.781,2229.384 1225.841,2055.756 1072.431 C 2010.550 1032.489,1978.887 1011.524,1916.634 980.318 C 1856.127 949.987,1818.088 934.746,1776.195 924.050 C 1675.577 898.360,1535.356 897.396,1430.752 921.675 C 1415.765 925.154,1402.715 928.000,1401.752 928.000 C 1400.788 928.000,1400.000 831.700,1400.000 714.000 L 1400.000 500.000 799.802 500.000 L 199.604 500.000 200.802 1117.000 M1660.000 1105.831 C 1769.510 1120.626,1861.977 1164.703,1941.466 1240.000 C 2020.487 1314.853,2071.594 1409.094,2089.808 1513.541 C 2097.659 1558.562,2097.768 1640.816,2090.035 1685.160 C 2072.728 1784.405,2021.455 1883.179,1950.317 1954.317 C 1882.475 2022.158,1783.518 2074.149,1687.823 2092.228 C 1654.494 2098.525,1545.506 2098.525,1512.177 2092.228 C 1416.482 2074.149,1317.525 2022.158,1249.683 1954.317 C 1178.545 1883.179,1127.272 1784.405,1109.965 1685.160 C 1102.232 1640.816,1102.341 1558.562,1110.192 1513.541 C 1133.728 1378.575,1210.958 1261.626,1327.009 1185.217 C 1394.179 1140.993,1458.408 1116.588,1535.193 1106.117 C 1586.640 1099.100,1609.793 1099.047,1660.000 1105.831 M1544.077 1211.038 C 1536.419 1214.808,1523.207 1225.051,1514.717 1233.800 L 1499.281 1249.706 1501.106 1455.853 C 1502.445 1607.017,1504.298 1666.642,1508.055 1679.404 C 1511.978 1692.730,1518.139 1700.702,1534.353 1713.427 C 1579.463 1748.832,1789.241 1871.221,1821.346 1880.864 C 1833.144 1884.408,1841.006 1884.324,1855.346 1880.500 C 1887.930 1871.812,1908.015 1845.342,1907.985 1811.128 C 1907.955 1776.146,1897.370 1767.473,1743.010 1675.950 L 1652.020 1622.000 1652.010 1442.841 C 1652.001 1274.614,1651.536 1262.776,1644.389 1248.841 C 1624.523 1210.102,1580.030 1193.335,1544.077 1211.038 " fill="#1D1E23" stroke="none" fill-rule="evenodd"/></svg>