<svg viewBox="0 0 2400 2400" fill="none" xmlns="http://www.w3.org/2000/svg"><path d="M586.000 103.400 C 547.300 106.790,534.601 114.550,484.088 165.676 L 450.177 200.000 332.088 200.131 C 197.457 200.280,165.701 203.094,145.782 216.640 C 112.501 239.274,94.683 282.918,103.367 320.537 C 108.877 344.408,131.664 377.552,148.580 386.300 C 155.029 389.635,178.686 394.021,201.152 396.047 C 254.481 400.856,1345.519 400.856,1398.848 396.047 C 1421.314 394.021,1444.971 389.635,1451.420 386.300 C 1468.336 377.552,1491.123 344.408,1496.633 320.537 C 1505.317 282.918,1487.499 239.274,1454.218 216.640 C 1434.311 203.102,1402.544 200.280,1268.377 200.131 L 1150.755 200.000 1112.242 162.629 C 1091.060 142.075,1066.441 120.435,1057.533 114.540 L 1041.336 103.821 829.668 102.209 C 713.251 101.323,603.600 101.859,586.000 103.400 M200.252 1095.000 C 200.390 1422.250,201.925 1704.867,203.662 1723.037 C 211.907 1809.284,284.996 1885.180,370.404 1896.183 C 385.582 1898.138,526.104 1899.797,682.676 1899.869 L 967.352 1900.000 985.412 1933.000 C 1070.614 2088.690,1209.705 2205.690,1376.000 2261.553 C 1585.506 2331.932,1803.706 2303.230,1988.000 2181.050 C 2052.431 2138.334,2138.334 2052.431,2181.050 1988.000 C 2234.742 1907.011,2270.189 1821.009,2288.485 1727.335 C 2301.267 1661.890,2301.267 1538.110,2288.485 1472.665 C 2270.178 1378.937,2234.706 1292.897,2181.018 1212.000 C 2139.964 1150.139,2051.858 1061.091,1993.775 1022.756 C 1944.412 990.176,1859.222 948.960,1807.035 932.410 C 1729.960 907.967,1631.835 897.229,1547.675 904.026 C 1501.553 907.752,1437.274 918.082,1409.000 926.313 L 1400.000 928.933 1400.000 714.467 L 1400.000 500.000 800.000 500.000 L 200.000 500.000 200.252 1095.000 M1653.905 1104.179 C 1832.696 1124.660,1987.696 1239.746,2058.135 1404.316 C 2119.571 1547.852,2109.745 1714.882,2032.038 1847.935 C 1957.853 1974.957,1844.748 2057.019,1698.000 2090.294 C 1653.094 2100.476,1546.906 2100.476,1502.000 2090.294 C 1355.252 2057.019,1242.147 1974.957,1167.962 1847.935 C 1067.973 1676.730,1082.107 1458.151,1203.523 1298.000 C 1277.194 1200.826,1401.715 1125.274,1516.000 1108.408 C 1578.256 1099.220,1603.787 1098.437,1653.905 1104.179 M1559.056 1203.858 C 1541.215 1209.433,1521.572 1223.183,1510.260 1238.015 L 1499.665 1251.906 1500.832 1460.953 C 1502.172 1700.865,1500.117 1687.310,1539.792 1717.840 C 1574.681 1744.687,1731.401 1837.583,1799.751 1871.932 C 1821.059 1882.641,1828.806 1884.556,1844.653 1883.033 C 1883.156 1879.334,1908.000 1851.862,1908.000 1812.987 C 1908.000 1774.771,1901.467 1769.268,1749.367 1679.355 L 1652.734 1622.231 1651.367 1440.116 L 1650.000 1258.000 1639.392 1239.957 C 1623.008 1212.089,1585.972 1195.447,1559.056 1203.858 " fill="#1D1E23" stroke="none" fill-rule="evenodd"/></svg>