<svg viewBox="0 0 2400 2400" fill="none" xmlns="http://www.w3.org/2000/svg"><path d="M500.000 150.000 L 450.120 200.000 275.060 200.000 L 100.000 200.000 100.000 300.000 L 100.000 400.000 800.000 400.000 L 1500.000 400.000 1500.000 300.000 L 1500.000 200.000 1324.940 200.000 L 1149.880 200.000 1100.000 150.000 L 1050.120 100.000 800.000 100.000 L 549.880 100.000 500.000 150.000 M200.000 1200.000 L 200.000 1900.000 583.488 1900.000 L 966.976 1900.000 988.488 1938.279 C 1063.400 2071.578,1187.012 2183.127,1324.000 2241.049 C 1488.269 2310.506,1651.332 2318.000,1817.207 2263.713 C 1935.343 2225.050,2040.358 2154.562,2127.838 2055.211 C 2226.132 1943.579,2285.342 1803.627,2296.310 1657.000 C 2313.307 1429.781,2229.384 1225.841,2055.756 1072.431 C 2010.550 1032.489,1978.887 1011.524,1916.634 980.318 C 1856.127 949.987,1818.088 934.746,1776.195 924.050 C 1675.577 898.360,1535.356 897.396,1430.752 921.675 C 1415.765 925.154,1402.715 928.000,1401.752 928.000 C 1400.788 928.000,1400.000 831.700,1400.000 714.000 L 1400.000 500.000 800.000 500.000 L 200.000 500.000 200.000 1200.000 M1660.000 1105.831 C 1769.510 1120.626,1861.977 1164.703,1941.466 1240.000 C 2020.487 1314.853,2071.594 1409.094,2089.808 1513.541 C 2097.659 1558.562,2097.768 1640.816,2090.035 1685.160 C 2072.728 1784.405,2021.455 1883.179,1950.317 1954.317 C 1882.475 2022.158,1783.518 2074.149,1687.823 2092.228 C 1654.494 2098.525,1545.506 2098.525,1512.177 2092.228 C 1416.482 2074.149,1317.525 2022.158,1249.683 1954.317 C 1178.545 1883.179,1127.272 1784.405,1109.965 1685.160 C 1102.232 1640.816,1102.341 1558.562,1110.192 1513.541 C 1133.728 1378.575,1210.958 1261.626,1327.009 1185.217 C 1394.179 1140.993,1458.408 1116.588,1535.193 1106.117 C 1586.640 1099.100,1609.793 1099.047,1660.000 1105.831 M1500.000 1449.510 C 1500.000 1644.320,1501.096 1699.897,1505.000 1703.018 C 1513.898 1710.132,1771.431 1859.547,1813.695 1882.116 C 1836.234 1894.152,1856.648 1904.000,1859.060 1904.000 C 1861.471 1904.000,1880.638 1878.473,1901.653 1847.273 L 1939.861 1790.547 1902.930 1768.967 C 1882.619 1757.098,1817.850 1719.228,1759.000 1684.810 L 1652.000 1622.233 1652.000 1411.117 L 1652.000 1200.000 1576.000 1200.000 L 1500.000 1200.000 1500.000 1449.510 " fill="#1D1E23" stroke="none" fill-rule="evenodd"/></svg>