<svg viewBox="0 0 2400 2400" fill="none" xmlns="http://www.w3.org/2000/svg"><path d="M620.000 107.807 C 567.845 109.655,551.270 111.621,540.988 117.181 C 533.832 121.051,510.212 141.269,488.499 162.109 L 449.022 200.000 395.511 200.151 C 366.080 200.234,301.812 201.926,252.692 203.911 C 163.644 207.509,163.342 207.552,148.692 218.659 C 102.886 253.388,90.861 296.930,114.429 342.728 C 131.056 375.040,148.231 387.432,184.446 393.249 C 226.745 400.042,1373.255 400.042,1415.554 393.249 C 1451.709 387.442,1468.943 375.040,1485.462 342.943 C 1498.857 316.914,1500.503 290.544,1490.266 265.976 C 1482.754 247.946,1459.551 222.253,1442.881 213.506 C 1430.632 207.079,1311.605 200.292,1207.833 200.105 L 1149.666 200.000 1131.833 181.639 C 1122.025 171.540,1098.189 149.940,1078.864 133.639 L 1043.728 104.000 864.864 104.734 C 766.489 105.138,656.300 106.521,620.000 107.807 M200.891 1119.000 L 202.000 1738.000 212.814 1763.231 C 234.144 1813.001,274.727 1858.944,315.924 1879.961 C 346.285 1895.450,366.101 1896.499,670.783 1898.753 L 967.565 1900.948 985.914 1933.474 C 1032.052 2015.259,1109.821 2104.451,1179.824 2155.865 C 1399.534 2317.236,1668.826 2343.278,1906.000 2226.092 C 2190.841 2085.354,2348.110 1767.601,2284.179 1462.000 C 2259.871 1345.806,2209.281 1242.961,2129.918 1148.405 C 2056.061 1060.407,1958.150 992.719,1835.203 944.659 C 1723.455 900.977,1560.940 893.930,1411.000 926.264 L 1400.000 928.636 1400.000 714.318 L 1400.000 500.000 799.891 500.000 L 199.782 500.000 200.891 1119.000 M1716.000 1118.058 C 1897.618 1165.153,2035.173 1302.161,2082.075 1482.676 C 2091.020 1517.103,2092.000 1528.690,2092.000 1600.000 C 2092.000 1670.932,2090.990 1683.010,2082.248 1716.657 C 2057.545 1811.732,2007.055 1898.093,1937.520 1964.206 C 1896.021 2003.662,1878.401 2015.421,1814.873 2046.056 C 1727.624 2088.129,1693.982 2095.939,1600.000 2095.939 C 1507.388 2095.939,1472.311 2087.996,1389.667 2048.309 C 1325.061 2017.285,1302.169 2002.072,1261.240 1962.969 C 1184.728 1889.869,1136.312 1801.639,1113.646 1694.000 C 1104.289 1649.565,1104.193 1550.168,1113.461 1502.752 C 1147.181 1330.245,1276.451 1185.260,1447.697 1127.888 C 1503.312 1109.255,1541.453 1104.113,1612.000 1105.739 C 1663.409 1106.923,1681.175 1109.027,1716.000 1118.058 M1557.459 1207.821 C 1542.990 1211.260,1526.957 1222.051,1510.363 1239.518 L 1498.726 1251.767 1501.320 1454.884 C 1502.746 1566.598,1505.617 1665.200,1507.700 1674.000 C 1512.943 1696.159,1538.128 1718.137,1607.893 1761.438 C 1689.970 1812.381,1786.459 1866.778,1812.000 1876.507 C 1831.070 1883.772,1836.397 1884.284,1852.000 1880.352 C 1890.461 1870.661,1917.426 1824.413,1903.798 1791.513 C 1895.241 1770.855,1839.668 1732.208,1709.000 1656.044 L 1652.000 1622.820 1652.000 1442.761 L 1652.000 1262.703 1641.894 1245.458 C 1625.466 1217.426,1587.759 1200.618,1557.459 1207.821 " fill="#1D1E23" stroke="none" fill-rule="evenodd"/></svg>