<svg viewBox="0 0 2400 2400" fill="none" xmlns="http://www.w3.org/2000/svg"><path d="M579.577 107.766 C 542.908 110.849,538.248 113.635,487.663 162.721 L 449.245 200.000 387.623 200.230 C 353.730 200.356,289.827 201.879,245.615 203.615 L 165.229 206.770 147.357 219.066 C 113.285 242.508,95.177 283.235,104.097 316.362 C 113.854 352.594,133.425 378.647,158.000 388.114 C 182.083 397.393,307.961 399.655,800.000 399.655 C 1292.039 399.655,1417.917 397.393,1442.000 388.114 C 1466.338 378.738,1486.151 352.575,1495.662 317.256 C 1504.703 283.680,1485.558 240.683,1451.545 218.174 C 1434.848 207.124,1432.691 206.788,1358.227 203.630 C 1316.302 201.851,1252.492 200.307,1216.426 200.198 L 1150.852 200.000 1118.426 168.877 C 1100.592 151.760,1076.388 130.160,1064.641 120.877 L 1043.282 104.000 826.641 104.604 C 707.488 104.936,596.310 106.359,579.577 107.766 M200.000 1113.374 C 200.000 1701.866,200.303 1727.629,207.471 1748.464 C 225.940 1802.143,261.855 1848.511,304.000 1873.088 C 346.195 1897.693,341.548 1897.362,668.782 1899.025 L 967.564 1900.542 982.252 1927.271 C 1079.015 2103.352,1238.469 2227.096,1434.099 2277.925 C 1637.923 2330.883,1860.039 2282.431,2030.000 2147.937 C 2244.307 1978.352,2340.062 1711.776,2281.398 1448.064 C 2246.937 1293.152,2159.316 1154.888,2030.000 1051.362 C 1977.994 1009.727,1889.974 962.773,1814.009 936.143 C 1715.566 901.632,1563.045 895.167,1440.560 920.313 C 1419.968 924.541,1402.418 928.000,1401.560 928.000 C 1400.702 928.000,1400.000 831.700,1400.000 714.000 L 1400.000 500.000 800.000 500.000 L 200.000 500.000 200.000 1113.374 M1685.704 1110.582 C 1787.834 1129.888,1877.118 1176.926,1950.133 1249.891 C 2015.208 1314.922,2059.311 1392.311,2082.411 1482.000 C 2092.989 1523.071,2093.724 1531.060,2093.458 1602.000 C 2093.200 1670.485,2092.149 1681.850,2082.832 1716.938 C 2051.710 1834.140,1986.471 1932.670,1894.000 2002.132 C 1860.708 2027.140,1773.558 2069.528,1728.000 2082.871 C 1691.409 2093.587,1686.664 2094.000,1600.000 2094.000 C 1513.336 2094.000,1508.591 2093.587,1472.000 2082.871 C 1424.455 2068.946,1338.688 2026.733,1302.713 1999.551 C 1169.566 1898.947,1096.488 1740.423,1105.416 1571.567 C 1109.425 1495.754,1122.330 1446.465,1156.099 1378.000 C 1252.199 1183.156,1474.862 1070.725,1685.704 1110.582 M1546.000 1211.374 C 1537.200 1215.594,1522.980 1226.364,1514.399 1235.307 L 1498.798 1251.568 1501.178 1456.784 C 1502.769 1594.015,1505.096 1667.250,1508.201 1677.847 C 1510.832 1686.829,1519.159 1699.509,1527.422 1707.117 C 1553.867 1731.466,1739.734 1843.450,1802.291 1872.723 C 1823.881 1882.826,1831.209 1884.427,1845.832 1882.234 C 1881.397 1876.901,1908.000 1845.633,1908.000 1809.164 C 1908.000 1778.006,1882.788 1758.345,1719.151 1661.889 L 1652.301 1622.485 1651.151 1440.242 L 1650.000 1258.000 1640.507 1242.731 C 1620.228 1210.110,1577.913 1196.070,1546.000 1211.374 " fill="#1D1E23" stroke="none" fill-rule="evenodd"/></svg>