<svg viewBox="0 0 2400 2400" fill="none" xmlns="http://www.w3.org/2000/svg"><path d="M1076.000 212.139 C 1034.636 215.012,1020.723 217.275,966.736 229.914 C 796.666 269.730,621.690 369.209,492.000 499.817 C 334.200 658.733,242.245 846.876,207.457 1082.000 C 199.705 1134.399,200.792 1266.371,209.467 1326.000 C 243.104 1557.201,334.766 1742.252,495.933 1904.327 C 675.946 2085.354,899.650 2183.650,1164.000 2197.877 C 1333.319 2206.990,1536.048 2156.761,1696.400 2065.969 C 1802.282 2006.018,1940.893 1880.830,2009.980 1782.756 C 2104.984 1647.891,2169.646 1484.683,2190.257 1327.734 C 2198.683 1263.573,2196.505 1088.634,2186.625 1036.000 C 2157.515 880.922,2086.266 719.173,1991.932 594.008 C 1960.653 552.507,1867.918 457.917,1824.000 422.718 C 1693.080 317.789,1498.237 232.277,1354.000 216.446 C 1306.307 211.211,1128.933 208.463,1076.000 212.139 M1274.000 408.069 C 1486.306 427.669,1685.977 533.785,1815.780 696.000 C 1898.938 799.922,1955.713 919.352,1981.648 1044.912 C 1991.642 1093.295,1997.349 1216.926,1992.196 1273.400 C 1971.126 1504.285,1846.441 1719.870,1656.689 1853.500 C 1588.462 1901.548,1489.181 1948.014,1408.000 1969.895 C 1259.758 2009.849,1100.667 2006.407,960.219 1960.206 C 877.263 1932.917,785.166 1887.605,736.000 1849.891 C 670.531 1799.670,579.365 1705.710,542.053 1650.000 C 499.450 1586.390,450.329 1479.444,431.999 1410.391 C 400.801 1292.866,396.575 1156.969,420.416 1038.000 C 457.790 851.505,579.976 663.689,738.000 549.832 C 782.032 518.107,892.204 462.125,944.773 444.765 C 1049.205 410.276,1161.876 397.718,1274.000 408.069 M1167.019 707.755 C 1150.285 713.154,1126.061 734.026,1112.143 755.040 L 1099.636 773.921 1100.818 999.961 L 1102.000 1226.000 1112.802 1244.374 C 1131.317 1275.868,1165.361 1296.345,1199.652 1296.610 C 1231.963 1296.861,1259.185 1281.234,1286.683 1246.651 L 1299.922 1230.000 1299.723 1016.000 C 1299.613 898.300,1298.106 793.387,1296.374 782.859 C 1289.591 741.623,1250.532 709.844,1202.000 706.076 C 1188.800 705.051,1173.058 705.807,1167.019 707.755 M1100.000 1600.000 L 1100.000 1700.000 1200.000 1700.000 L 1300.000 1700.000 1300.000 1600.000 L 1300.000 1500.000 1200.000 1500.000 L 1100.000 1500.000 1100.000 1600.000 " fill="#1D1E23" stroke="none" fill-rule="evenodd"/></svg>