<svg viewBox="0 0 2400 2400" fill="none" xmlns="http://www.w3.org/2000/svg"><path d="M1090.000 207.942 C 991.874 215.868,856.495 255.676,755.433 306.322 C 548.359 410.095,373.025 594.133,284.353 800.785 C 173.297 1059.606,173.317 1340.056,284.412 1599.295 C 373.585 1807.379,555.065 1996.818,762.000 2097.827 C 856.626 2144.016,946.827 2172.076,1054.000 2188.662 C 1128.208 2200.147,1262.957 2201.060,1332.000 2190.546 C 1560.948 2155.683,1749.312 2061.714,1907.446 1903.473 C 1985.715 1825.152,2041.508 1747.680,2091.434 1648.000 C 2139.550 1551.931,2170.494 1456.514,2188.725 1348.000 C 2199.868 1281.673,2200.807 1120.264,2190.413 1058.000 C 2160.055 876.160,2087.592 711.587,1977.301 574.000 C 1935.504 521.859,1852.891 441.941,1800.000 402.484 C 1720.106 342.882,1622.561 291.034,1529.427 258.667 C 1470.401 238.154,1383.320 217.166,1337.699 212.459 C 1282.038 206.715,1137.763 204.085,1090.000 207.942 M1310.000 410.420 C 1610.920 451.243,1861.093 660.415,1957.738 952.000 C 1984.562 1032.933,1992.659 1082.579,1994.949 1180.157 C 1996.442 1243.790,1995.381 1272.650,1990.244 1308.157 C 1977.413 1396.838,1955.795 1468.100,1918.011 1546.261 C 1802.278 1785.673,1588.289 1944.084,1317.828 1990.564 C 1262.325 2000.103,1136.899 2000.149,1082.000 1990.651 C 990.637 1974.844,918.238 1951.465,839.843 1912.455 C 756.714 1871.089,717.746 1842.244,639.630 1764.255 C 559.047 1683.803,530.383 1644.314,484.111 1550.000 C 442.233 1464.641,419.714 1389.335,408.190 1296.105 C 402.798 1252.485,402.801 1147.473,408.196 1103.895 C 437.429 867.748,570.830 655.429,771.149 526.221 C 812.454 499.579,898.493 458.959,948.976 442.266 C 1061.965 404.906,1187.636 393.820,1310.000 410.420 M1155.707 711.910 C 1138.086 721.225,1113.124 748.334,1105.611 766.313 C 1101.026 777.287,1100.000 820.132,1100.000 1000.609 C 1100.000 1215.086,1100.237 1221.964,1108.199 1238.411 C 1120.501 1263.823,1147.231 1286.390,1174.378 1294.282 C 1193.827 1299.936,1200.671 1300.228,1218.778 1296.176 C 1243.875 1290.559,1268.784 1272.879,1285.898 1248.533 L 1298.000 1231.317 1299.212 1008.659 C 1300.013 861.439,1299.000 781.113,1296.224 771.577 C 1290.573 752.167,1263.823 722.565,1242.692 712.335 C 1219.847 701.276,1176.225 701.063,1155.707 711.910 M1100.000 1600.000 L 1100.000 1700.000 1200.000 1700.000 L 1300.000 1700.000 1300.000 1600.000 L 1300.000 1500.000 1200.000 1500.000 L 1100.000 1500.000 1100.000 1600.000 " fill="#1D1E23" stroke="none" fill-rule="evenodd"/></svg>