<svg viewBox="0 0 2400 2400" fill="none" xmlns="http://www.w3.org/2000/svg"><path d="M1108.545 204.138 C 796.319 234.318,520.746 404.372,350.372 672.000 C 318.468 722.115,273.515 818.568,252.284 882.460 C 183.002 1090.954,183.002 1309.046,252.284 1517.540 C 300.974 1664.069,381.908 1794.313,493.797 1906.203 C 648.729 2061.134,839.618 2157.095,1060.000 2190.836 C 1123.622 2200.577,1275.859 2200.550,1337.463 2190.786 C 1401.612 2180.620,1463.274 2165.956,1515.596 2148.425 C 1858.696 2033.465,2112.820 1743.895,2181.460 1389.683 C 2289.531 831.998,1909.983 296.356,1346.700 211.616 C 1285.763 202.448,1165.192 198.663,1108.545 204.138 M1274.000 404.133 C 1456.349 421.235,1623.340 498.040,1755.450 625.571 C 2004.489 865.978,2070.161 1239.929,1917.944 1550.849 C 1796.348 1799.221,1559.627 1964.889,1282.000 1995.912 C 1085.155 2017.907,873.543 1957.479,710.000 1832.570 C 674.030 1805.098,606.674 1738.415,576.092 1700.000 C 537.021 1650.922,510.707 1609.106,481.701 1550.000 C 346.093 1273.664,382.928 942.169,576.152 700.000 C 606.996 661.343,669.507 599.393,708.000 569.335 C 866.875 445.271,1072.549 385.240,1274.000 404.133 M1164.342 706.868 C 1154.630 710.299,1139.161 720.628,1129.967 729.823 C 1099.673 760.117,1100.000 757.166,1100.000 1000.000 C 1100.000 1242.749,1099.684 1239.895,1129.895 1270.105 C 1169.021 1309.232,1230.979 1309.232,1270.105 1270.105 C 1300.316 1239.895,1300.000 1242.749,1300.000 1000.000 C 1300.000 757.251,1300.316 760.105,1270.105 729.895 C 1242.352 702.141,1202.370 693.437,1164.342 706.868 M1100.000 1600.000 L 1100.000 1700.000 1200.000 1700.000 L 1300.000 1700.000 1300.000 1600.000 L 1300.000 1500.000 1200.000 1500.000 L 1100.000 1500.000 1100.000 1600.000 " fill="#1D1E23" stroke="none" fill-rule="evenodd"/></svg>