<svg viewBox="0 0 2400 2400" fill="none" xmlns="http://www.w3.org/2000/svg"><path d="M1042.964 213.985 C 785.483 255.850,554.189 397.884,393.846 612.600 C 258.993 793.181,186.155 1040.744,203.073 1261.000 C 221.109 1495.800,304.210 1693.348,456.832 1864.234 C 664.198 2096.416,958.375 2216.627,1268.794 2196.032 C 1421.114 2185.925,1582.269 2134.993,1716.000 2054.692 C 1808.534 1999.129,1932.708 1887.045,1997.113 1800.947 C 2087.619 1679.956,2150.712 1536.716,2182.427 1380.228 C 2202.428 1281.538,2202.328 1109.486,2182.215 1014.456 C 2148.661 855.920,2084.895 716.049,1987.208 586.701 C 1956.126 545.546,1860.775 450.143,1816.000 415.400 C 1718.697 339.899,1592.383 275.250,1480.627 243.753 C 1374.791 213.925,1354.440 211.369,1210.000 209.759 C 1109.029 208.634,1069.764 209.628,1042.964 213.985 M1287.158 408.247 C 1556.534 437.697,1788.969 599.273,1910.863 841.813 C 1938.710 897.222,1957.093 945.349,1971.924 1001.674 C 1986.944 1058.714,1990.974 1090.207,1994.233 1176.000 C 1997.080 1250.956,1993.509 1297.702,1979.795 1365.005 C 1950.808 1507.254,1867.612 1660.483,1762.048 1766.048 C 1629.243 1898.852,1440.200 1984.568,1254.852 1996.020 C 1107.516 2005.123,983.283 1980.563,848.418 1915.670 C 816.748 1900.431,776.248 1878.250,758.418 1866.379 C 693.514 1823.165,583.536 1713.367,539.344 1647.664 C 510.368 1604.584,459.907 1500.907,443.137 1450.000 C 412.672 1357.516,401.470 1274.055,405.287 1168.000 C 409.667 1046.335,434.062 951.378,489.040 842.000 C 548.441 723.821,637.903 619.970,746.288 543.374 C 795.772 508.404,884.405 464.413,949.285 442.622 C 988.197 429.553,1061.631 413.223,1102.000 408.662 C 1147.749 403.493,1241.749 403.282,1287.158 408.247 M1166.000 708.005 C 1149.956 713.034,1128.237 731.457,1113.798 752.286 L 1102.000 769.306 1100.698 985.653 C 1099.801 1134.844,1100.785 1208.357,1103.868 1222.479 C 1109.469 1248.124,1127.827 1270.253,1156.565 1286.000 C 1199.975 1309.786,1247.333 1297.022,1282.708 1252.000 L 1299.995 1230.000 1299.902 1010.000 C 1299.851 889.000,1298.257 783.318,1296.360 775.150 C 1291.763 755.360,1271.360 730.306,1249.323 717.392 C 1229.518 705.785,1188.002 701.108,1166.000 708.005 M1100.000 1600.000 L 1100.000 1700.000 1200.000 1700.000 L 1300.000 1700.000 1300.000 1600.000 L 1300.000 1500.000 1200.000 1500.000 L 1100.000 1500.000 1100.000 1600.000 " fill="#1D1E23" stroke="none" fill-rule="evenodd"/></svg>