<svg viewBox="0 0 2400 2400" fill="none" xmlns="http://www.w3.org/2000/svg"><path d="M1135.785 166.838 C 1107.376 180.972,1078.006 210.651,1065.589 237.774 C 1052.608 266.129,1048.114 295.396,1047.742 354.000 C 1047.575 380.400,1046.081 405.462,1044.423 409.693 C 1042.310 415.086,1029.539 421.224,1001.705 430.225 C 749.427 511.798,570.413 705.720,515.615 956.793 C 502.343 1017.605,500.185 1078.581,500.091 1395.489 L 500.000 1700.978 429.972 1772.703 C 340.393 1864.453,333.314 1877.510,347.772 1924.320 C 357.814 1956.834,377.679 1980.924,402.153 1990.271 C 419.025 1996.714,471.835 1997.199,1199.111 1997.586 C 1832.967 1997.923,1980.762 1997.022,1992.831 1992.745 C 2014.227 1985.165,2046.088 1948.768,2054.395 1922.417 C 2067.707 1880.185,2053.685 1855.642,1962.271 1761.170 L 1900.601 1697.436 1898.794 1359.718 C 1896.868 1000.008,1897.176 1005.958,1876.362 925.136 C 1829.933 744.840,1707.393 585.664,1544.824 494.476 C 1492.939 465.372,1439.866 442.387,1394.949 429.567 C 1374.627 423.767,1357.204 418.295,1356.230 417.408 C 1355.257 416.520,1353.216 385.655,1351.696 348.820 C 1348.508 271.583,1342.100 243.088,1321.550 214.775 C 1292.079 174.172,1253.985 156.420,1195.785 156.166 C 1162.070 156.020,1155.006 157.276,1135.785 166.838 M1237.419 809.500 C 1256.942 817.657,1280.279 839.782,1288.540 857.966 C 1295.082 872.366,1295.833 886.751,1295.912 999.128 C 1296.009 1137.172,1295.324 1141.764,1270.797 1167.351 C 1250.434 1188.594,1230.870 1196.706,1200.000 1196.706 C 1167.268 1196.706,1148.637 1188.265,1125.166 1162.802 C 1111.325 1147.785,1108.184 1141.179,1105.515 1121.465 C 1100.056 1081.139,1101.386 888.334,1107.259 868.773 C 1113.707 847.295,1136.940 821.054,1158.000 811.463 C 1177.348 802.651,1218.589 801.632,1237.419 809.500 M1300.000 1500.000 L 1300.000 1600.000 1200.000 1600.000 L 1100.000 1600.000 1100.000 1500.000 L 1100.000 1400.000 1200.000 1400.000 L 1300.000 1400.000 1300.000 1500.000 M1000.000 2108.245 C 1000.000 2112.975,1002.846 2127.905,1006.324 2141.423 C 1026.722 2220.693,1079.636 2273.948,1157.840 2293.914 C 1221.977 2310.288,1286.301 2290.490,1338.306 2238.369 C 1369.195 2207.412,1383.656 2182.007,1394.812 2139.103 C 1400.479 2117.305,1400.838 2111.237,1396.706 2107.103 C 1392.744 2103.138,1347.943 2101.737,1195.804 2100.822 L 1000.000 2099.644 1000.000 2108.245 " fill="#1D1E23" stroke="none" fill-rule="evenodd"/></svg>