<svg viewBox="0 0 2400 2400" fill="none" xmlns="http://www.w3.org/2000/svg"><path d="M1157.328 159.837 C 1136.612 164.771,1110.158 182.424,1090.178 204.647 C 1058.063 240.366,1053.939 253.879,1047.927 343.078 C 1045.751 375.371,1042.993 404.870,1041.799 408.632 C 1040.421 412.976,1021.818 422.356,990.814 434.340 C 926.151 459.334,850.117 497.554,805.874 527.303 C 679.149 612.515,584.818 738.129,536.383 886.167 C 503.122 987.830,500.084 1032.081,500.036 1415.615 L 500.000 1701.230 446.993 1755.615 C 359.901 1844.971,344.000 1866.505,344.000 1895.089 C 344.000 1923.018,355.692 1948.283,379.773 1972.390 L 402.139 1994.779 914.788 1997.712 C 1196.746 1999.326,1555.598 1999.328,1712.238 1997.717 L 1997.038 1994.788 2017.909 1973.917 C 2029.388 1962.438,2043.077 1944.261,2048.329 1933.523 C 2071.205 1886.753,2056.892 1859.971,1949.167 1747.978 L 1901.051 1697.955 1898.833 1371.978 C 1897.478 1172.759,1894.873 1030.725,1892.135 1006.719 C 1883.492 930.951,1845.535 822.033,1802.239 748.764 C 1745.307 652.418,1660.127 565.271,1569.774 510.931 C 1525.986 484.596,1439.063 444.403,1397.543 431.292 L 1356.771 418.417 1354.132 374.208 C 1348.039 272.107,1341.262 242.206,1316.985 210.315 C 1286.061 169.691,1212.972 146.584,1157.328 159.837 M1242.734 814.617 C 1249.791 817.965,1263.763 829.469,1273.782 840.181 L 1292.000 859.657 1292.000 997.046 L 1292.000 1134.434 1280.214 1153.019 C 1263.337 1179.631,1242.120 1192.430,1210.701 1194.952 C 1167.553 1198.415,1137.527 1183.633,1117.089 1148.864 L 1106.000 1130.000 1106.000 998.000 L 1106.000 866.000 1119.798 846.833 C 1135.237 825.387,1154.272 811.997,1175.666 807.534 C 1194.512 803.603,1226.684 807.000,1242.734 814.617 M1300.000 1500.000 L 1300.000 1600.000 1200.000 1600.000 L 1100.000 1600.000 1100.000 1500.000 L 1100.000 1400.000 1200.000 1400.000 L 1300.000 1400.000 1300.000 1500.000 M1000.000 2109.794 C 1000.000 2128.599,1019.949 2182.196,1036.125 2206.849 C 1065.775 2252.038,1108.771 2281.725,1163.000 2294.451 C 1207.198 2304.824,1258.045 2294.922,1300.506 2267.676 C 1327.763 2250.185,1364.896 2208.961,1379.226 2180.285 C 1391.892 2154.938,1403.204 2113.871,1398.747 2109.414 C 1394.629 2105.296,1247.122 2100.445,1119.000 2100.214 L 1000.000 2100.000 1000.000 2109.794 " fill="#1D1E23" stroke="none" fill-rule="evenodd"/></svg>