<svg viewBox="0 0 2400 2400" fill="none" xmlns="http://www.w3.org/2000/svg"><path d="M1163.996 155.409 C 1141.040 160.339,1108.364 180.419,1089.926 200.927 C 1056.603 237.990,1048.430 268.275,1048.076 356.000 C 1047.829 417.321,1047.739 417.561,1022.712 423.791 C 953.933 440.910,846.614 492.409,788.011 536.416 C 737.416 574.410,715.569 594.146,678.693 635.171 C 580.603 744.297,516.950 889.523,503.886 1034.000 C 501.897 1056.000,500.209 1215.078,500.135 1387.507 L 500.000 1701.013 426.104 1776.532 C 358.382 1845.742,351.678 1853.878,345.849 1873.929 C 340.055 1893.857,340.048 1897.994,345.768 1920.320 C 355.200 1957.138,378.491 1985.016,406.553 1993.079 C 424.105 1998.122,1847.094 2002.576,1939.176 1997.876 C 1990.051 1995.279,1993.164 1994.617,2011.150 1982.581 C 2033.218 1967.813,2054.467 1934.951,2058.247 1909.749 C 2063.764 1872.956,2046.973 1847.175,1959.183 1757.644 L 1900.000 1697.289 1899.865 1385.644 C 1899.791 1214.240,1898.103 1056.000,1896.114 1034.000 C 1886.014 922.306,1845.583 808.799,1782.180 714.141 C 1714.987 613.825,1627.311 535.157,1524.315 482.770 C 1465.097 452.650,1438.769 441.888,1390.000 427.867 L 1354.000 417.516 1351.537 345.758 C 1348.864 267.842,1344.523 247.834,1323.738 217.620 C 1296.388 177.865,1258.426 156.771,1209.441 154.110 C 1192.149 153.170,1171.698 153.755,1163.996 155.409 M1244.071 812.036 C 1265.941 823.193,1287.173 846.442,1293.015 865.629 C 1300.000 888.567,1300.000 1111.433,1293.015 1134.371 C 1287.097 1153.808,1266.042 1176.654,1242.775 1188.886 C 1230.501 1195.338,1219.024 1197.712,1200.000 1197.733 C 1169.851 1197.766,1151.798 1190.382,1129.803 1169.021 C 1104.062 1144.021,1102.787 1137.615,1100.951 1024.000 C 1099.027 904.922,1102.626 866.130,1117.582 844.725 C 1145.835 804.289,1200.961 790.043,1244.071 812.036 M1300.000 1500.000 L 1300.000 1600.000 1200.000 1600.000 L 1100.000 1600.000 1100.000 1500.000 L 1100.000 1400.000 1200.000 1400.000 L 1300.000 1400.000 1300.000 1500.000 M1000.000 2109.160 C 1000.000 2125.536,1011.888 2165.415,1024.490 2191.310 C 1062.810 2270.054,1161.418 2315.863,1245.476 2293.968 C 1321.548 2274.154,1379.803 2213.171,1395.612 2136.803 C 1404.145 2095.584,1427.615 2100.000,1200.000 2100.000 L 1000.000 2100.000 1000.000 2109.160 " fill="#1D1E23" stroke="none" fill-rule="evenodd"/></svg>