<svg viewBox="0 0 2400 2400" fill="none" xmlns="http://www.w3.org/2000/svg"><path d="M1150.000 161.314 C 1126.481 170.535,1113.617 179.517,1093.565 200.719 C 1058.193 238.120,1052.112 257.215,1048.175 343.263 C 1046.002 390.739,1043.664 410.005,1039.594 413.952 C 1036.517 416.936,1015.100 425.856,992.000 433.774 C 937.834 452.341,855.578 492.900,810.611 523.214 C 664.445 621.750,566.093 761.812,521.810 934.490 C 502.667 1009.138,500.040 1066.390,500.019 1409.462 L 500.000 1700.923 435.551 1767.199 C 357.075 1847.900,342.358 1868.455,342.785 1896.765 C 343.219 1925.488,364.240 1965.621,387.342 1981.832 L 404.683 1994.000 918.381 1997.146 C 1200.915 1998.876,1558.797 1998.876,1713.674 1997.146 L 1995.268 1994.000 2010.429 1981.725 C 2029.958 1965.914,2050.685 1935.739,2056.273 1914.985 C 2065.813 1879.559,2047.049 1849.571,1956.409 1755.383 L 1900.000 1696.765 1899.805 1447.383 C 1899.697 1310.222,1898.030 1151.200,1896.100 1094.000 C 1892.815 996.608,1891.789 986.852,1879.957 940.455 C 1836.539 770.199,1744.418 633.496,1606.000 533.919 C 1556.891 498.589,1464.078 452.146,1405.666 433.670 C 1379.449 425.379,1357.564 418.325,1357.032 417.996 C 1356.500 417.667,1354.247 387.271,1352.027 350.451 C 1346.536 259.391,1341.260 239.601,1313.252 205.022 C 1295.658 183.300,1268.870 167.671,1238.216 161.244 C 1208.383 154.989,1166.045 155.022,1150.000 161.314 M1250.453 818.257 C 1261.068 824.820,1275.208 837.950,1281.876 847.435 L 1294.000 864.680 1294.000 991.340 C 1294.000 1061.003,1292.548 1124.857,1290.774 1133.239 C 1286.752 1152.236,1263.283 1178.844,1242.000 1188.537 C 1219.469 1198.799,1179.555 1198.435,1157.517 1187.766 C 1135.166 1176.946,1113.529 1152.534,1107.960 1131.853 C 1104.980 1120.783,1103.908 1073.731,1104.745 990.626 L 1106.000 866.000 1119.009 847.266 C 1141.732 814.544,1164.589 803.594,1206.577 805.317 C 1225.745 806.103,1235.400 808.951,1250.453 818.257 M1300.000 1500.000 L 1300.000 1600.000 1200.000 1600.000 L 1100.000 1600.000 1100.000 1500.000 L 1100.000 1400.000 1200.000 1400.000 L 1300.000 1400.000 1300.000 1500.000 M1000.047 2109.000 C 1000.074 2113.950,1002.619 2127.483,1005.705 2139.073 C 1029.461 2228.314,1098.235 2289.449,1184.852 2298.323 C 1276.466 2307.709,1374.552 2231.401,1396.408 2133.740 C 1400.375 2116.012,1400.392 2110.714,1396.489 2108.302 C 1389.641 2104.070,1252.262 2100.023,1115.000 2100.011 L 1000.000 2100.000 1000.047 2109.000 " fill="#1D1E23" stroke="none" fill-rule="evenodd"/></svg>