<svg viewBox="0 0 2400 2400" fill="none" xmlns="http://www.w3.org/2000/svg"><path d="M1149.344 159.171 C 1110.016 173.197,1075.159 207.797,1059.064 248.786 C 1051.994 266.792,1050.455 281.341,1048.886 345.000 C 1047.152 415.343,1046.566 420.000,1039.445 420.000 C 1035.269 420.000,1011.635 426.505,986.926 434.456 C 728.019 517.768,541.282 741.494,505.999 1010.646 C 501.095 1048.060,500.000 1115.313,500.000 1379.248 L 500.000 1702.086 429.720 1772.043 C 391.066 1810.519,355.668 1849.200,351.056 1858.000 C 332.900 1892.649,342.850 1942.959,373.805 1973.022 C 403.754 2002.108,339.251 2000.000,1199.248 2000.000 C 1799.660 2000.000,1976.761 1998.898,1989.536 1995.084 C 2015.514 1987.327,2045.792 1955.271,2053.982 1926.853 C 2068.304 1877.159,2057.750 1857.297,1969.463 1767.791 L 1900.000 1697.369 1900.000 1376.890 C 1900.000 1115.051,1898.902 1048.036,1894.001 1010.646 C 1858.718 741.494,1671.981 517.768,1413.074 434.456 C 1388.365 426.505,1364.515 420.000,1360.074 420.000 C 1352.341 420.000,1351.999 417.506,1351.977 361.000 C 1351.950 291.560,1347.787 261.821,1334.210 234.071 C 1321.231 207.542,1291.795 178.445,1264.357 165.021 C 1235.166 150.739,1180.749 147.972,1149.344 159.171 M1234.017 806.625 C 1245.651 810.589,1260.290 820.080,1270.465 830.255 C 1297.738 857.528,1300.000 870.528,1300.000 1000.000 C 1300.000 1129.472,1297.738 1142.472,1270.465 1169.745 C 1230.966 1209.244,1169.192 1209.402,1129.895 1170.105 C 1101.843 1142.054,1100.000 1131.566,1100.000 1000.000 C 1100.000 868.367,1101.833 857.956,1129.967 829.823 C 1157.748 802.041,1195.720 793.575,1234.017 806.625 M1300.000 1500.000 L 1300.000 1600.000 1200.000 1600.000 L 1100.000 1600.000 1100.000 1500.000 L 1100.000 1400.000 1200.000 1400.000 L 1300.000 1400.000 1300.000 1500.000 M1001.740 2120.883 C 1011.001 2190.702,1053.768 2251.465,1113.438 2279.584 C 1239.122 2338.814,1379.745 2260.459,1398.260 2120.883 L 1401.031 2100.000 1200.000 2100.000 L 998.969 2100.000 1001.740 2120.883 " fill="#1D1E23" stroke="none" fill-rule="evenodd"/></svg>