<svg viewBox="0 0 2400 2400" fill="none" xmlns="http://www.w3.org/2000/svg"><path d="M1149.058 406.166 C 1100.118 419.346,1057.444 451.745,1028.625 497.599 C 987.155 563.581,268.988 1809.218,260.434 1830.000 C 247.156 1862.262,244.190 1916.847,253.901 1950.251 C 274.687 2021.753,329.048 2075.872,398.166 2093.875 C 418.891 2099.273,514.019 2100.000,1200.000 2100.000 C 2056.932 2100.000,1999.230 2101.671,2048.472 2075.426 C 2076.348 2060.568,2115.198 2021.211,2129.133 1993.711 C 2155.373 1941.929,2159.430 1878.257,2139.563 1830.000 C 2131.023 1809.255,1413.051 563.969,1371.365 497.599 C 1331.847 434.680,1269.418 399.597,1198.160 400.263 C 1182.672 400.408,1160.576 403.064,1149.058 406.166 M1577.723 1252.000 L 1951.563 1898.000 1575.781 1899.020 C 1369.102 1899.582,1030.894 1899.582,824.209 1899.020 L 448.419 1898.000 822.907 1250.899 C 1028.875 894.994,1198.855 604.294,1200.639 604.899 C 1202.424 605.505,1372.112 896.700,1577.723 1252.000 M1164.342 1006.868 C 1140.729 1015.209,1114.918 1041.645,1106.625 1065.983 C 1096.822 1094.751,1096.822 1305.249,1106.625 1334.017 C 1119.196 1370.911,1160.361 1400.000,1200.000 1400.000 C 1239.639 1400.000,1280.804 1370.911,1293.375 1334.017 C 1303.178 1305.249,1303.178 1094.751,1293.375 1065.983 C 1276.062 1015.170,1217.194 988.201,1164.342 1006.868 M1100.000 1700.000 L 1100.000 1800.000 1200.000 1800.000 L 1300.000 1800.000 1300.000 1700.000 L 1300.000 1600.000 1200.000 1600.000 L 1100.000 1600.000 1100.000 1700.000 " fill="#1D1E23" stroke="none" fill-rule="evenodd"/></svg>