<svg viewBox="0 0 2400 2400" fill="none" xmlns="http://www.w3.org/2000/svg"><path d="M1087.624 395.000 C 839.763 820.212,104.000 2092.762,104.000 2096.241 C 104.000 2098.577,518.930 2100.000,1200.000 2100.000 C 1884.364 2100.000,2296.000 2098.582,2296.000 2096.225 C 2296.000 2091.907,1553.199 808.203,1242.168 275.000 C 1220.673 238.150,1201.632 208.000,1199.857 208.000 C 1198.081 208.000,1147.576 292.150,1087.624 395.000 M1319.149 807.000 C 1557.222 1215.508,1948.000 1892.273,1948.000 1896.068 C 1948.000 1898.630,1687.366 1900.000,1200.000 1900.000 C 706.100 1900.000,452.000 1898.647,452.000 1896.017 C 452.000 1890.686,1046.884 863.108,1178.495 641.098 C 1189.223 623.002,1199.164 608.152,1200.587 608.098 C 1202.011 608.044,1255.363 697.550,1319.149 807.000 M1100.000 1200.000 L 1100.000 1400.000 1200.000 1400.000 L 1300.000 1400.000 1300.000 1200.000 L 1300.000 1000.000 1200.000 1000.000 L 1100.000 1000.000 1100.000 1200.000 M1100.000 1700.000 L 1100.000 1800.000 1200.000 1800.000 L 1300.000 1800.000 1300.000 1700.000 L 1300.000 1600.000 1200.000 1600.000 L 1100.000 1600.000 1100.000 1700.000 " fill="#1D1E23" stroke="none" fill-rule="evenodd"/></svg>