<svg viewBox="0 0 2400 2400" fill="none" xmlns="http://www.w3.org/2000/svg"><path d="M1113.607 305.943 C 1064.127 316.708,1019.939 347.299,987.822 393.024 C 944.521 454.671,266.054 1630.109,225.350 1714.000 C 193.858 1778.906,193.222 1822.083,222.846 1884.000 C 239.651 1919.124,282.953 1965.261,312.261 1979.270 C 352.453 1998.481,331.050 1998.000,1146.000 1998.000 C 1952.854 1998.000,1954.307 1997.970,1993.755 1980.520 C 2014.315 1971.426,2061.418 1924.272,2078.851 1895.333 C 2097.213 1864.851,2105.293 1829.524,2103.167 1789.018 C 2101.536 1757.936,2099.846 1752.628,2077.025 1706.894 C 2030.185 1613.023,1384.583 493.587,1325.145 403.178 C 1290.674 350.745,1244.267 318.414,1185.650 305.996 C 1152.701 299.016,1145.470 299.011,1113.607 305.943 M1194.163 913.467 C 1205.253 918.632,1219.269 928.730,1225.309 935.908 C 1249.003 964.067,1248.602 961.001,1247.246 1103.579 L 1246.000 1234.603 1234.923 1251.332 C 1211.429 1286.814,1169.671 1305.037,1132.364 1296.087 C 1105.912 1289.742,1084.752 1273.261,1068.516 1246.358 L 1055.032 1224.015 1056.660 1099.007 C 1058.232 978.227,1058.600 973.355,1067.539 954.920 C 1088.798 911.079,1147.656 891.811,1194.163 913.467 M1252.000 1600.000 L 1252.000 1700.000 1152.000 1700.000 L 1052.000 1700.000 1052.000 1600.000 L 1052.000 1500.000 1152.000 1500.000 L 1252.000 1500.000 1252.000 1600.000 " fill="#1D1E23" stroke="none" fill-rule="evenodd"/></svg>