<svg viewBox="0 0 2400 2400" fill="none" xmlns="http://www.w3.org/2000/svg"><path d="M1108.126 308.261 C 1040.534 325.957,1009.109 356.183,942.348 467.717 C 843.148 633.444,627.344 1005.465,421.267 1366.000 C 202.949 1747.951,203.338 1747.180,202.485 1800.000 C 201.579 1856.033,235.245 1920.372,287.187 1961.878 C 324.107 1991.381,330.188 1992.379,496.000 1996.154 C 684.371 2000.442,1581.007 2000.434,1794.000 1996.143 C 1996.566 1992.061,1986.593 1994.251,2037.783 1942.628 C 2090.136 1889.832,2108.034 1846.275,2102.839 1784.309 C 2099.267 1741.704,2095.327 1734.116,1890.823 1376.000 C 1595.044 858.048,1346.869 433.047,1314.654 389.306 C 1283.521 347.034,1236.480 317.615,1181.339 305.932 C 1147.044 298.665,1144.468 298.747,1108.126 308.261 M1199.184 916.792 C 1222.188 928.630,1240.075 950.805,1244.315 972.741 C 1248.242 993.053,1248.478 1158.859,1244.652 1208.167 C 1242.300 1238.470,1240.563 1244.149,1229.294 1258.372 C 1222.306 1267.192,1207.006 1279.659,1195.294 1286.077 C 1147.090 1312.491,1097.473 1294.525,1064.019 1238.543 L 1054.782 1223.085 1057.041 1100.253 C 1058.900 999.113,1060.458 974.646,1065.862 961.710 C 1086.981 911.152,1148.168 890.538,1199.184 916.792 M1252.000 1600.000 L 1252.000 1700.000 1152.000 1700.000 L 1052.000 1700.000 1052.000 1600.000 L 1052.000 1500.000 1152.000 1500.000 L 1252.000 1500.000 1252.000 1600.000 " fill="#1D1E23" stroke="none" fill-rule="evenodd"/></svg>