<svg viewBox="0 0 2400 2400" fill="none" xmlns="http://www.w3.org/2000/svg"><path d="M1109.474 305.970 C 1095.985 308.904,1078.885 314.387,1071.474 318.154 C 1043.953 332.146,1008.390 360.405,995.012 378.914 C 964.443 421.203,241.786 1673.824,214.969 1731.003 C 175.024 1816.176,221.296 1933.393,313.128 1979.659 C 334.819 1990.587,347.214 1993.930,375.120 1996.375 C 423.706 2000.632,1854.425 2000.495,1916.821 1996.226 C 1979.509 1991.938,2000.848 1983.374,2038.195 1947.511 C 2084.005 1903.522,2104.262 1859.899,2104.626 1804.456 C 2104.886 1764.717,2099.597 1745.906,2075.526 1700.972 C 2045.769 1645.425,1862.417 1325.567,1630.142 924.000 C 1310.499 371.388,1321.140 389.189,1293.864 361.494 C 1265.880 333.081,1231.043 313.926,1192.488 305.753 C 1160.306 298.932,1141.611 298.981,1109.474 305.970 M1201.294 915.213 C 1221.507 926.086,1229.371 934.965,1243.478 962.841 C 1251.570 978.832,1252.000 985.330,1252.000 1091.644 C 1252.000 1154.412,1250.167 1212.041,1247.829 1222.803 C 1236.176 1276.428,1178.915 1310.815,1125.961 1295.989 C 1102.938 1289.543,1075.305 1265.260,1063.335 1240.955 C 1054.173 1222.352,1054.005 1219.807,1054.263 1104.000 C 1054.552 974.771,1056.402 960.932,1076.448 938.101 C 1109.997 899.891,1156.845 891.302,1201.294 915.213 M1252.000 1600.000 L 1252.000 1700.000 1152.000 1700.000 L 1052.000 1700.000 1052.000 1600.000 L 1052.000 1500.000 1152.000 1500.000 L 1252.000 1500.000 1252.000 1600.000 " fill="#1D1E23" stroke="none" fill-rule="evenodd"/></svg>