<svg viewBox="0 0 2400 2400" fill="none" xmlns="http://www.w3.org/2000/svg"><path d="M649.245 1151.000 L 101.120 2098.000 650.560 2099.014 C 952.752 2099.572,1447.265 2099.572,1749.479 2099.014 L 2298.957 2098.000 1750.688 1151.000 C 1449.139 630.150,1201.282 204.000,1199.894 204.000 C 1198.506 204.000,950.714 630.150,649.245 1151.000 M1300.000 1200.000 L 1300.000 1400.000 1200.000 1400.000 L 1100.000 1400.000 1100.000 1200.000 L 1100.000 1000.000 1200.000 1000.000 L 1300.000 1000.000 1300.000 1200.000 M1300.000 1700.000 L 1300.000 1800.000 1200.000 1800.000 L 1100.000 1800.000 1100.000 1700.000 L 1100.000 1600.000 1200.000 1600.000 L 1300.000 1600.000 1300.000 1700.000 " fill="#1D1E23" stroke="none" fill-rule="evenodd"/></svg>