<svg viewBox="0 0 2400 2400" fill="none" xmlns="http://www.w3.org/2000/svg"><path d="M1164.000 404.569 C 1114.806 412.696,1064.277 446.408,1034.927 490.684 C 973.549 583.277,298.099 1755.890,263.248 1830.356 C 249.193 1860.386,244.331 1907.711,251.943 1940.388 C 263.446 1989.769,305.610 2047.774,348.104 2072.678 C 358.003 2078.478,376.879 2086.549,390.051 2090.612 C 412.993 2097.689,446.971 2098.000,1198.000 2098.000 C 1938.197 2098.000,1983.453 2097.601,2008.000 2090.859 C 2039.335 2082.252,2066.294 2064.937,2096.649 2033.923 C 2122.933 2007.068,2138.239 1978.273,2146.203 1940.695 C 2158.146 1884.347,2152.113 1853.242,2116.978 1790.000 C 2055.692 1679.688,1581.009 854.788,1452.916 636.000 C 1379.093 509.906,1357.098 476.572,1332.474 453.468 C 1307.138 429.696,1264.450 409.183,1229.937 404.196 C 1198.002 399.581,1194.064 399.603,1164.000 404.569 M1235.256 665.000 C 1314.025 796.492,1718.824 1495.201,1938.265 1878.437 L 1947.677 1894.873 1920.838 1897.408 C 1885.862 1900.712,514.247 1900.722,479.278 1897.419 L 452.555 1894.895 465.079 1872.448 C 490.020 1827.745,806.392 1279.918,953.905 1026.000 C 1149.658 689.047,1195.433 612.000,1199.869 612.000 C 1201.870 612.000,1217.794 635.850,1235.256 665.000 M1161.421 1009.786 C 1140.754 1018.779,1117.008 1043.107,1109.234 1063.254 C 1102.823 1079.867,1102.000 1095.885,1102.000 1204.000 C 1102.000 1321.896,1102.295 1326.551,1110.764 1342.379 C 1120.969 1361.449,1143.803 1382.655,1162.581 1390.500 C 1179.512 1397.575,1220.488 1397.575,1237.419 1390.500 C 1256.198 1382.654,1279.032 1361.448,1289.235 1342.379 C 1297.675 1326.605,1297.999 1321.719,1297.999 1210.000 C 1298.000 1146.200,1296.511 1085.259,1294.691 1074.576 C 1290.667 1050.950,1268.547 1024.899,1241.861 1012.355 C 1220.983 1002.541,1181.007 1001.264,1161.421 1009.786 M1100.000 1700.000 L 1100.000 1800.000 1200.000 1800.000 L 1300.000 1800.000 1300.000 1700.000 L 1300.000 1600.000 1200.000 1600.000 L 1100.000 1600.000 1100.000 1700.000 " fill="#1D1E23" stroke="none" fill-rule="evenodd"/></svg>