<svg viewBox="0 0 2400 2400" fill="none" xmlns="http://www.w3.org/2000/svg"><path d="M1178.813 240.802 C 1131.332 317.816,671.659 1109.786,281.954 1786.000 C 218.561 1896.000,152.632 2010.300,135.446 2040.000 L 104.199 2094.000 131.099 2096.503 C 145.895 2097.880,626.900 2099.006,1200.000 2099.006 C 1773.100 2099.006,2254.113 2097.880,2268.917 2096.503 L 2295.835 2094.000 2187.487 1906.000 C 1895.462 1399.293,1255.325 295.524,1221.442 240.278 C 1212.766 226.131,1203.675 213.892,1201.241 213.080 C 1198.806 212.269,1188.714 224.744,1178.813 240.802 M1235.256 665.000 C 1314.025 796.492,1718.824 1495.201,1938.265 1878.437 L 1947.677 1894.873 1920.838 1897.408 C 1885.488 1900.747,500.162 1899.978,473.132 1896.604 L 452.265 1894.000 516.614 1782.000 C 691.505 1477.601,1070.881 823.559,1150.607 689.000 C 1175.700 646.650,1197.867 612.000,1199.869 612.000 C 1201.870 612.000,1217.794 635.850,1235.256 665.000 M1100.000 1200.000 L 1100.000 1400.000 1200.000 1400.000 L 1300.000 1400.000 1300.000 1200.000 L 1300.000 1000.000 1200.000 1000.000 L 1100.000 1000.000 1100.000 1200.000 M1100.000 1700.000 L 1100.000 1800.000 1200.000 1800.000 L 1300.000 1800.000 1300.000 1700.000 L 1300.000 1600.000 1200.000 1600.000 L 1100.000 1600.000 1100.000 1700.000 " fill="#1D1E23" stroke="none" fill-rule="evenodd"/></svg>