<svg viewBox="0 0 2400 2400" fill="none" xmlns="http://www.w3.org/2000/svg"><path d="M1190.739 225.000 C 1161.370 264.489,162.232 1985.085,116.706 2074.570 L 108.277 2091.139 117.138 2094.288 C 128.972 2098.494,2067.261 2101.137,2190.683 2097.117 C 2243.859 2095.384,2288.488 2092.845,2289.859 2091.474 C 2292.783 2088.550,2255.972 2023.626,2016.864 1610.000 C 1475.814 674.053,1206.517 212.000,1202.072 212.000 C 1201.156 212.000,1196.056 217.850,1190.739 225.000 M1300.000 1200.000 L 1300.000 1400.000 1200.000 1400.000 L 1100.000 1400.000 1100.000 1200.000 L 1100.000 1000.000 1200.000 1000.000 L 1300.000 1000.000 1300.000 1200.000 M1300.000 1700.000 L 1300.000 1800.000 1200.000 1800.000 L 1100.000 1800.000 1100.000 1700.000 L 1100.000 1600.000 1200.000 1600.000 L 1300.000 1600.000 1300.000 1700.000 " fill="#1D1E23" stroke="none" fill-rule="evenodd"/></svg>