<svg viewBox="0 0 24 24" fill="none" xmlns="http://www.w3.org/2000/svg"><g><path d="M22.0002 8.00021C22.0002 7.45021 21.5502 7.00021 21.0002 7.00021H14.0002C13.4502 7.00021 13.0002 7.45021 13.0002 8.00021C13.0002 8.55021 13.4502 9.00021 14.0002 9.00021H21.0002C21.5502 9.00021 22.0002 8.55021 22.0002 8.00021ZM13.0002 16.0002C13.0002 16.5502 13.4502 17.0002 14.0002 17.0002H21.0002C21.5502 17.0002 22.0002 16.5502 22.0002 16.0002C22.0002 15.4502 21.5502 15.0002 21.0002 15.0002H14.0002C13.4502 15.0002 13.0002 15.4502 13.0002 16.0002ZM10.4702 4.63021C10.8602 5.02021 10.8602 5.65021 10.4702 6.04021L6.24021 10.2902C5.85021 10.6802 5.22022 10.6802 4.82021 10.2902L2.70021 8.16021C2.31021 7.77021 2.31021 7.14021 2.70021 6.75021C3.09021 6.36021 3.72021 6.36021 4.11021 6.75021L5.53022 8.17021L9.07021 4.63021C9.45021 4.25021 10.0902 4.25021 10.4702 4.63021ZM10.4802 12.6402C10.8702 13.0302 10.8702 13.6602 10.4802 14.0502L6.25021 18.3002C5.86021 18.6902 5.23021 18.6902 4.83021 18.3002L2.70021 16.1602C2.31021 15.7702 2.31021 15.1402 2.70021 14.7502C3.09021 14.3602 3.72021 14.3602 4.11021 14.7502L5.53022 16.1702L9.07021 12.6302C9.45021 12.2502 10.0902 12.2502 10.4802 12.6402Z" fill="#1D1E23"/></g></svg>