<svg viewBox="0 0 24 24" fill="none" xmlns="http://www.w3.org/2000/svg"><g><path fill-rule="evenodd" clip-rule="evenodd" d="M8.94006 16.5602C9.23006 16.8502 9.62006 17.0002 10.0001 17.0002C10.3801 17.0002 10.7701 16.8502 11.0601 16.5602L16.5601 11.0602C17.1501 10.4802 17.1501 9.53021 16.5601 8.94021L8.32006 0.700215C7.93006 0.310215 7.30006 0.310215 6.91006 0.700215C6.52006 1.09021 6.52006 1.72021 6.91006 2.11021L8.59006 3.79021L3.44006 8.94021C2.85006 9.53021 2.85006 10.4802 3.44006 11.0602L8.94006 16.5602ZM10.0001 5.21022L14.7901 10.0002H5.21006L10.0001 5.21022ZM19 17.0002C20.1 17.0002 21 16.1002 21 15.0002C21 13.6702 19 11.5002 19 11.5002C19 11.5002 17 13.6702 17 15.0002C17 16.1002 17.9 17.0002 19 17.0002ZM4 20.0002H20C21.1 20.0002 22 20.9002 22 22.0002C22 23.1002 21.1 24.0002 20 24.0002H4C2.9 24.0002 2 23.1002 2 22.0002C2 20.9002 2.9 20.0002 4 20.0002Z" fill="#1D1E23"/></g></svg>