<svg viewBox="0 0 24 24" fill="none" xmlns="http://www.w3.org/2000/svg"><g><path fill-rule="evenodd" clip-rule="evenodd" d="M8.17011 16.25C8.02011 16.7 7.59011 17 7.11011 17C6.33011 17 5.78011 16.21 6.06011 15.48L10.3101 4.17C10.5701 3.47 11.2501 3 12.0001 3C12.7501 3 13.4301 3.47 13.6901 4.17L17.9401 15.48C18.2201 16.21 17.6801 17 16.8901 17C16.4101 17 15.9801 16.7 15.8201 16.24L14.8301 13.42H9.18011L8.17011 16.25ZM14.0901 11.39L12.0601 5.6H11.9401L9.91011 11.39H14.0901ZM4 20H20C21.1 20 22 20.9 22 22C22 23.1 21.1 24 20 24H4C2.9 24 2 23.1 2 22C2 20.9 2.9 20 4 20Z" fill="#1D1E23"/></g></svg>