<svg viewBox="0 0 2400 2400" fill="none" xmlns="http://www.w3.org/2000/svg"><path d="M397.540 107.604 C 359.011 117.390,294.886 200.750,229.326 326.275 C 45.360 678.506,60.500 1080.180,270.570 1420.499 C 295.681 1461.181,329.587 1506.299,355.462 1533.462 C 374.087 1553.015,406.846 1571.888,422.287 1571.961 C 439.086 1572.040,468.061 1558.954,485.945 1543.212 C 512.508 1519.831,521.653 1500.162,521.844 1466.000 C 522.026 1433.349,517.623 1423.576,462.786 1334.911 C 382.475 1205.056,334.042 1081.700,319.515 970.000 C 313.071 920.460,313.260 761.861,319.831 704.113 C 333.149 587.062,376.690 476.524,467.557 329.075 C 526.215 233.890,531.889 216.578,517.888 175.489 C 501.640 127.801,444.629 95.643,397.540 107.604 M1931.466 116.033 C 1901.786 131.716,1871.922 177.994,1871.980 208.212 C 1872.009 222.949,1897.321 272.798,1941.299 344.724 C 2007.306 452.679,2034.996 513.578,2057.984 601.348 C 2083.068 697.124,2085.690 719.194,2085.626 834.000 C 2085.563 945.265,2082.283 975.800,2061.581 1057.828 C 2035.409 1161.528,1999.337 1239.383,1919.619 1364.228 C 1888.383 1413.146,1872.248 1447.307,1872.095 1464.850 C 1871.814 1496.952,1902.835 1543.081,1936.125 1560.064 C 1977.546 1581.195,2007.101 1572.887,2049.179 1528.282 C 2138.805 1433.274,2226.736 1256.327,2267.714 1088.515 C 2292.468 987.144,2294.013 972.323,2293.841 838.000 C 2293.698 727.088,2292.727 708.723,2284.640 664.000 C 2265.500 558.150,2242.091 480.772,2201.366 388.744 C 2145.645 262.827,2058.490 135.654,2014.095 115.487 C 1992.094 105.493,1950.899 105.765,1931.466 116.033 M693.459 399.922 C 625.744 415.471,534.468 606.490,515.666 772.000 C 506.188 855.435,519.300 962.402,550.018 1052.233 C 569.132 1108.131,610.865 1191.562,636.873 1225.868 C 666.508 1264.960,686.331 1278.067,715.358 1277.763 C 728.769 1277.623,743.397 1274.677,751.239 1270.537 C 773.529 1258.769,796.780 1235.019,806.589 1214.000 C 823.467 1177.831,818.912 1153.719,777.626 1060.703 C 743.228 983.205,732.371 947.040,727.208 892.757 C 722.328 841.453,727.688 750.205,737.879 711.098 C 741.162 698.501,754.903 663.401,768.416 633.098 C 802.044 557.684,816.000 518.654,816.000 500.025 C 816.000 479.835,805.834 449.528,793.622 433.310 C 775.848 409.707,724.863 392.712,693.459 399.922 M1653.614 400.316 C 1634.723 405.798,1605.670 433.790,1593.899 457.849 C 1574.528 497.442,1576.806 509.289,1624.427 616.571 L 1665.898 710.000 1665.949 834.000 C 1666.007 975.856,1670.216 954.492,1620.602 1064.215 C 1605.130 1098.433,1589.429 1137.367,1585.712 1150.736 C 1579.305 1173.781,1579.328 1176.232,1586.158 1197.944 C 1594.934 1225.845,1623.965 1259.397,1650.409 1272.198 C 1685.802 1289.331,1725.098 1274.332,1761.286 1229.875 C 1798.555 1184.091,1849.995 1065.361,1873.000 972.021 C 1880.405 941.978,1881.400 925.840,1881.510 834.000 C 1881.624 738.462,1880.899 727.234,1872.591 696.000 C 1834.971 554.564,1766.937 425.671,1718.223 403.545 C 1701.008 395.725,1674.072 394.379,1653.614 400.316 M1144.000 571.933 C 1062.108 582.670,965.514 668.371,938.978 753.834 C 931.715 777.226,930.213 791.831,930.116 840.000 C 930.003 896.607,930.317 898.769,943.198 930.000 C 960.836 972.764,975.961 994.739,1019.019 1040.161 L 1055.194 1078.321 1057.940 1596.161 C 1059.451 1880.972,1062.073 2131.637,1063.768 2153.192 C 1066.492 2187.839,1068.252 2194.334,1078.949 2209.192 C 1085.605 2218.437,1099.748 2232.300,1110.379 2240.000 L 1129.708 2254.000 1188.383 2255.281 C 1222.739 2256.031,1253.816 2254.742,1263.361 2252.172 C 1283.971 2246.622,1311.205 2226.018,1321.714 2208.023 C 1329.546 2194.614,1329.912 2184.995,1332.981 1912.082 C 1334.725 1756.937,1337.232 1504.746,1338.551 1351.659 L 1340.950 1073.318 1359.475 1058.548 C 1386.715 1036.829,1425.998 989.710,1441.635 960.000 C 1462.781 919.821,1469.531 889.383,1469.576 834.000 C 1469.610 791.822,1468.269 782.119,1458.513 754.000 C 1443.376 710.369,1427.399 683.753,1397.001 651.530 C 1370.732 623.683,1337.688 600.265,1302.000 584.202 C 1273.207 571.243,1195.367 565.199,1144.000 571.933 " fill="#1D1E23" stroke="none" fill-rule="evenodd"/></svg>