<svg viewBox="0 0 2400 2400" fill="none" xmlns="http://www.w3.org/2000/svg"><path d="M396.213 126.684 C 242.121 294.548,144.594 499.510,110.087 728.000 C 100.898 788.849,97.874 903.364,103.751 968.000 C 126.357 1216.660,223.028 1435.995,393.410 1625.205 L 421.510 1656.410 494.400 1583.601 L 567.289 1510.791 538.480 1478.396 C 410.303 1334.260,332.700 1161.064,311.901 972.712 C 305.675 916.336,308.853 788.134,317.768 736.000 C 347.814 560.292,425.388 399.911,541.391 273.671 L 567.423 245.342 494.355 172.355 L 421.288 99.368 396.213 126.684 M1905.230 173.004 L 1832.550 246.000 1856.400 272.000 C 2081.052 516.908,2151.842 866.963,2040.076 1180.277 C 2001.758 1287.695,1941.215 1388.777,1861.520 1478.396 L 1832.711 1510.791 1905.677 1583.678 L 1978.644 1656.564 2006.715 1625.282 C 2167.802 1445.768,2259.422 1247.884,2292.514 1008.000 C 2299.397 958.104,2299.397 797.896,2292.514 748.000 C 2259.443 508.269,2164.608 303.960,2005.955 130.645 L 1977.910 100.009 1905.230 173.004 M682.058 426.566 C 557.544 568.921,495.099 765.895,516.171 949.838 C 532.486 1092.255,590.519 1224.712,682.895 1330.374 L 713.052 1364.868 786.331 1291.670 L 859.610 1218.471 844.090 1201.635 C 765.713 1116.605,720.000 997.384,720.000 878.000 C 720.000 758.616,765.713 639.395,844.090 554.365 L 859.610 537.529 786.331 464.330 L 713.052 391.132 682.058 426.566 M1613.111 465.130 L 1540.564 538.000 1558.629 558.000 C 1718.790 735.314,1720.098 1011.765,1561.639 1194.309 L 1540.537 1218.618 1613.647 1291.647 L 1686.757 1364.677 1707.675 1341.338 C 1807.802 1229.626,1867.113 1096.581,1883.917 946.000 C 1903.706 768.671,1844.813 578.553,1725.936 436.000 C 1683.264 384.830,1696.445 381.426,1613.111 465.130 M1142.000 609.919 C 1042.649 631.791,966.563 703.292,935.474 804.000 C 928.172 827.654,926.213 843.308,926.213 878.000 C 926.213 928.409,934.888 963.181,958.922 1009.112 C 975.278 1040.369,1016.035 1086.234,1042.076 1102.685 L 1059.986 1114.000 1059.993 1707.000 L 1060.000 2300.000 1198.000 2300.000 L 1336.000 2300.000 1336.000 1708.665 L 1336.000 1117.330 1358.249 1102.006 C 1408.486 1067.407,1450.597 1006.059,1466.710 944.000 C 1475.748 909.189,1475.825 845.997,1466.870 812.000 C 1434.513 689.152,1323.477 603.413,1198.000 604.387 C 1180.400 604.524,1155.200 607.014,1142.000 609.919 " fill="#1D1E23" stroke="none" fill-rule="evenodd"/></svg>