<svg viewBox="0 0 2400 2400" fill="none" xmlns="http://www.w3.org/2000/svg"><path d="M400.018 122.708 C 256.160 279.888,157.294 480.063,114.894 700.000 C 106.814 741.909,106.025 758.094,106.013 882.000 C 106.000 1015.978,106.167 1018.773,117.212 1070.000 C 164.992 1291.588,244.313 1450.739,394.054 1625.454 L 421.012 1656.908 494.049 1583.951 L 567.087 1510.993 528.794 1464.497 C 436.254 1352.133,364.232 1213.150,336.407 1093.245 C 299.748 935.271,305.848 745.105,352.074 604.788 C 378.200 525.486,416.217 447.219,461.262 380.000 C 483.525 346.777,496.238 330.295,538.651 279.666 L 567.413 245.332 494.375 172.374 L 421.336 99.416 400.018 122.708 M1905.141 173.000 L 1832.363 246.000 1854.879 272.000 C 1939.211 369.381,2006.893 487.059,2045.387 603.233 C 2085.861 725.384,2095.054 832.490,2079.612 1002.000 C 2075.010 1052.526,2063.345 1101.793,2039.816 1170.085 C 2001.781 1280.480,1945.653 1376.939,1861.616 1476.334 L 1832.587 1510.668 1905.730 1583.730 L 1978.873 1656.793 2012.779 1617.397 C 2143.984 1464.947,2225.757 1306.926,2271.690 1117.065 C 2289.892 1041.829,2293.965 997.928,2293.870 878.000 C 2293.771 753.824,2289.020 704.735,2269.869 630.000 C 2231.174 478.997,2172.886 353.633,2082.217 226.406 C 2058.915 193.708,1982.317 100.000,1978.892 100.000 C 1978.357 100.000,1945.169 132.850,1905.141 173.000 M686.097 422.546 C 562.933 566.484,497.357 765.793,515.926 939.760 C 531.087 1081.800,592.617 1224.140,686.110 1333.454 L 713.012 1364.908 786.031 1291.969 L 859.051 1219.029 833.948 1187.935 C 733.203 1063.150,698.871 897.406,742.204 745.030 C 757.002 692.994,798.260 612.593,831.273 571.458 L 858.995 536.915 786.004 464.004 L 713.012 391.092 686.097 422.546 M1659.228 422.731 C 1645.353 435.234,1612.951 466.155,1587.224 491.446 L 1540.448 537.428 1559.574 561.714 C 1631.443 652.973,1669.227 744.336,1674.661 840.000 C 1681.899 967.421,1649.519 1074.059,1572.049 1177.934 L 1541.208 1219.288 1614.098 1292.098 L 1686.988 1364.908 1713.886 1333.454 C 1811.916 1218.815,1870.253 1078.750,1884.839 923.003 C 1889.994 867.951,1886.180 807.965,1873.710 748.000 C 1857.158 668.404,1811.160 559.593,1764.643 490.000 C 1740.712 454.198,1694.504 400.000,1687.910 400.000 C 1686.010 400.000,1673.103 410.229,1659.228 422.731 M1151.911 611.818 C 1097.560 619.038,1048.217 647.392,999.045 699.663 C 946.127 755.915,925.479 812.250,929.282 890.000 C 931.780 941.066,941.025 974.903,961.992 1009.713 C 980.061 1039.712,1016.246 1081.069,1040.690 1099.660 L 1059.544 1114.000 1059.772 1707.000 L 1060.000 2300.000 1198.000 2300.000 L 1336.000 2300.000 1336.000 1708.947 L 1336.000 1117.895 1358.142 1100.602 C 1401.084 1067.063,1441.372 1011.269,1458.721 961.311 C 1468.233 933.919,1469.620 923.741,1469.797 880.000 C 1469.978 835.466,1468.749 826.183,1458.556 795.083 C 1440.573 740.214,1413.157 702.019,1366.000 666.134 C 1332.155 640.379,1303.587 625.675,1272.939 618.233 C 1244.305 611.281,1181.153 607.933,1151.911 611.818 " fill="#1D1E23" stroke="none" fill-rule="evenodd"/></svg>