<svg viewBox="0 0 2400 2400" fill="none" xmlns="http://www.w3.org/2000/svg"><path d="M399.974 103.504 C 365.730 114.717,341.375 141.394,279.010 236.000 C 194.568 364.098,135.998 518.048,111.392 676.578 C 98.504 759.612,98.504 912.388,111.392 995.422 C 136.025 1154.132,194.758 1308.411,279.117 1436.000 C 333.944 1518.925,360.831 1550.891,385.359 1562.311 C 424.384 1580.481,458.503 1573.420,492.667 1540.104 C 511.019 1522.207,516.614 1513.549,522.063 1494.613 C 533.193 1455.934,525.463 1424.913,494.729 1384.916 C 422.856 1291.379,365.865 1175.740,336.570 1064.000 C 313.430 975.737,310.139 947.365,310.117 836.000 C 310.100 747.437,311.279 727.580,319.064 685.266 C 345.729 540.343,398.327 418.521,485.257 300.345 C 515.941 258.631,521.938 246.721,526.016 219.387 C 532.015 179.172,505.683 131.225,466.669 111.321 C 449.230 102.424,415.387 98.458,399.974 103.504 M1954.000 103.525 C 1922.620 111.594,1891.623 139.852,1879.962 171.020 C 1864.158 213.260,1871.886 242.417,1914.233 300.319 C 2033.644 463.592,2092.000 639.443,2092.000 836.000 C 2092.000 973.791,2064.016 1098.001,2005.486 1220.000 C 1975.466 1282.573,1954.036 1318.292,1913.091 1374.000 C 1893.771 1400.286,1881.523 1421.429,1877.368 1435.668 C 1857.002 1505.449,1913.996 1577.850,1983.971 1571.089 C 2025.332 1567.093,2047.318 1545.971,2114.174 1446.000 C 2307.408 1157.055,2352.228 795.488,2235.406 468.000 C 2205.041 382.876,2161.578 295.691,2114.766 226.000 C 2079.603 173.651,2036.694 121.828,2021.417 113.259 C 2003.940 103.457,1972.128 98.863,1954.000 103.525 M686.549 397.621 C 678.051 400.781,665.743 408.460,659.198 414.684 C 639.776 433.154,605.937 487.035,580.358 540.221 C 478.200 752.632,492.349 1001.325,618.011 1202.000 C 657.697 1265.376,682.784 1283.309,725.583 1278.892 C 751.542 1276.212,765.012 1269.650,785.544 1249.678 C 808.349 1227.496,817.842 1203.876,817.755 1169.533 C 817.695 1145.613,815.720 1137.306,805.397 1117.533 C 760.681 1031.883,750.660 1010.626,741.830 982.686 C 712.990 891.442,713.026 779.873,741.925 689.314 C 751.551 659.148,763.896 632.755,798.925 567.449 C 819.388 529.300,823.604 502.446,814.207 470.118 C 806.584 443.899,783.290 415.882,758.669 403.321 C 738.082 392.818,706.230 390.300,686.549 397.621 M1659.974 395.737 C 1615.057 409.400,1580.000 456.021,1580.000 502.090 C 1580.000 522.986,1590.087 550.094,1613.125 591.115 C 1639.182 637.510,1653.260 672.113,1667.068 723.705 C 1676.215 757.881,1677.339 769.744,1677.518 834.000 C 1677.691 896.447,1676.475 911.042,1668.353 944.000 C 1655.891 994.564,1640.118 1033.843,1613.385 1080.882 C 1585.289 1130.320,1578.740 1151.094,1581.689 1181.428 C 1590.329 1270.299,1692.660 1312.418,1747.683 1249.750 C 1806.165 1183.143,1859.369 1057.460,1880.499 936.000 C 1887.251 897.191,1887.280 775.058,1880.547 736.000 C 1867.813 662.132,1843.440 586.455,1812.819 525.712 C 1791.222 482.869,1752.248 424.286,1736.562 411.087 C 1716.586 394.278,1685.351 388.018,1659.974 395.737 M1167.038 564.429 C 1057.161 576.259,962.969 658.441,933.203 768.450 C 923.947 802.659,923.938 869.134,933.186 904.000 C 948.674 962.396,986.247 1018.970,1032.763 1053.936 L 1058.000 1072.906 1060.000 1625.738 L 1062.000 2178.570 1074.042 2202.113 C 1097.967 2248.892,1130.279 2262.107,1213.827 2259.282 C 1257.930 2257.791,1263.815 2256.662,1283.481 2245.929 C 1306.455 2233.390,1320.042 2218.450,1329.876 2194.913 C 1335.274 2181.994,1336.000 2114.839,1336.000 1628.321 L 1336.000 1076.384 1354.616 1063.576 C 1484.891 973.944,1513.791 789.459,1416.538 668.280 C 1355.159 591.801,1264.254 553.962,1167.038 564.429 " fill="#1D1E23" stroke="none" fill-rule="evenodd"/></svg>