<svg viewBox="0 0 2400 2400" fill="none" xmlns="http://www.w3.org/2000/svg"><path d="M401.459 103.922 C 368.890 111.401,329.772 155.267,267.988 253.592 C 209.597 346.518,161.247 461.102,132.033 575.790 C 90.693 738.085,90.693 933.915,132.033 1096.210 C 168.734 1240.291,229.814 1370.927,316.153 1490.000 C 380.962 1579.382,430.958 1594.415,490.648 1542.467 C 514.193 1521.977,525.551 1496.555,525.657 1464.114 C 525.758 1432.841,520.518 1421.649,476.048 1358.167 C 406.834 1259.364,361.169 1159.803,332.164 1044.468 C 313.828 971.559,311.190 940.274,312.844 815.354 C 314.258 708.503,314.982 699.246,325.455 654.000 C 355.925 522.361,402.726 417.625,480.066 308.000 C 518.249 253.878,525.293 238.687,525.509 210.000 C 526.012 143.361,463.288 89.725,401.459 103.922 M1932.950 112.446 C 1899.781 128.864,1871.822 173.435,1872.095 209.459 C 1872.256 230.692,1888.911 263.395,1932.467 328.000 C 1955.457 362.100,1986.277 414.301,2000.958 444.002 C 2140.905 727.141,2116.876 1073.712,1939.153 1335.404 C 1875.145 1429.653,1869.076 1442.600,1873.561 1475.321 C 1882.430 1540.032,1941.736 1583.689,1999.604 1568.107 C 2031.907 1559.408,2074.302 1510.988,2133.205 1415.516 C 2275.138 1185.464,2328.127 918.016,2283.686 656.000 C 2254.238 482.382,2182.537 313.550,2081.601 180.159 C 2047.095 134.559,2026.739 114.639,2008.403 108.530 C 1986.307 101.168,1952.153 102.941,1932.950 112.446 M694.257 396.758 C 670.585 401.909,653.690 417.210,627.163 457.520 C 540.427 589.325,499.079 756.411,516.181 906.000 C 526.344 994.890,546.966 1063.756,588.047 1146.000 C 618.866 1207.697,649.288 1251.445,671.680 1266.263 C 704.199 1287.783,747.310 1282.632,779.897 1253.333 C 806.996 1228.968,816.910 1206.888,816.957 1170.788 C 816.994 1142.545,816.303 1140.600,780.466 1068.000 C 731.731 969.273,722.421 931.981,722.545 836.000 C 722.669 739.919,731.892 703.020,780.980 602.196 C 816.471 529.300,817.988 525.082,817.701 500.080 C 816.934 433.259,757.008 383.102,694.257 396.758 M1653.541 398.469 C 1604.490 415.865,1569.452 480.221,1583.864 526.449 C 1586.531 535.002,1602.929 570.800,1620.305 606.000 C 1637.682 641.200,1656.832 686.200,1662.862 706.000 C 1673.482 740.869,1673.826 744.952,1673.826 836.000 C 1673.826 927.048,1673.482 931.131,1662.862 966.000 C 1656.832 985.800,1637.568 1030.800,1620.052 1066.000 C 1582.574 1141.320,1577.058 1160.561,1583.731 1192.705 C 1596.385 1253.656,1655.771 1293.070,1708.403 1275.448 C 1729.960 1268.230,1746.626 1253.633,1768.591 1222.733 C 1811.993 1161.674,1856.960 1051.556,1875.813 960.158 C 1888.311 899.572,1888.311 772.428,1875.813 711.842 C 1857.852 624.769,1825.795 542.943,1781.883 472.089 C 1751.681 423.354,1731.248 402.775,1707.004 396.670 C 1683.754 390.816,1674.216 391.136,1653.541 398.469 M1136.416 570.186 C 1122.345 573.238,1095.345 583.366,1076.416 592.692 C 1010.421 625.207,951.880 697.245,933.509 768.547 C 924.795 802.363,924.828 869.765,933.575 903.711 C 947.553 957.965,984.738 1015.235,1028.947 1050.595 L 1054.696 1071.190 1057.340 1176.595 C 1058.794 1234.568,1059.987 1483.239,1059.992 1729.199 C 1060.001 2222.883,1057.786 2179.581,1085.065 2219.451 C 1093.530 2231.823,1103.554 2239.973,1119.503 2247.451 C 1140.571 2257.330,1145.683 2258.000,1200.000 2258.000 C 1265.092 2258.000,1282.115 2253.270,1307.162 2228.223 C 1336.358 2199.026,1333.776 2252.315,1336.000 1633.083 L 1338.000 1076.167 1365.954 1053.892 C 1402.291 1024.937,1424.656 997.516,1444.162 958.000 C 1465.480 914.816,1473.285 882.088,1473.255 836.000 C 1473.172 707.359,1386.569 599.387,1260.000 570.129 C 1228.025 562.737,1170.631 562.764,1136.416 570.186 " fill="#1D1E23" stroke="none" fill-rule="evenodd"/></svg>