<svg viewBox="0 0 2400 2400" fill="none" xmlns="http://www.w3.org/2000/svg"><path d="M383.465 112.034 C 329.942 140.315,217.013 323.662,166.558 464.196 C 53.088 780.245,87.924 1120.574,263.314 1409.458 C 348.285 1549.414,400.278 1590.713,457.588 1563.774 C 500.592 1543.560,524.320 1508.339,524.530 1464.409 C 524.676 1433.835,520.161 1424.134,472.027 1351.612 C 383.585 1218.356,327.169 1072.458,315.477 946.752 C 312.586 915.670,311.868 861.888,313.497 798.369 C 315.714 711.841,317.405 692.701,326.347 652.828 C 353.829 530.295,400.093 426.701,480.641 307.330 C 518.336 251.467,524.000 238.862,524.000 210.841 C 524.000 167.438,500.031 128.708,462.672 111.746 C 440.377 101.622,402.911 101.759,383.465 112.034 M1943.540 109.273 C 1912.666 120.830,1890.405 144.744,1878.164 179.503 C 1865.326 215.956,1872.507 235.795,1931.625 327.204 C 1975.276 394.697,2010.106 459.908,2030.327 512.000 C 2111.747 721.753,2110.644 957.884,2027.263 1167.867 C 2005.887 1221.700,1972.239 1284.010,1927.567 1352.486 C 1870.265 1440.322,1865.713 1453.377,1877.981 1494.690 C 1888.977 1531.717,1925.930 1564.376,1963.653 1570.408 C 2002.035 1576.546,2033.433 1555.956,2079.836 1494.218 C 2232.704 1290.832,2314.070 1020.080,2296.689 772.615 C 2285.052 606.921,2245.517 465.933,2170.124 321.267 C 2125.914 236.435,2055.751 138.537,2024.195 117.654 C 2004.831 104.840,1966.127 100.818,1943.540 109.273 M1658.000 396.712 C 1611.537 414.036,1574.215 470.804,1581.159 513.592 C 1582.351 520.938,1599.423 561.835,1619.097 604.474 C 1673.159 721.642,1670.000 707.148,1670.000 838.000 L 1670.000 950.000 1655.371 986.000 C 1647.325 1005.800,1629.809 1044.855,1616.446 1072.790 C 1603.084 1100.724,1589.136 1134.423,1585.451 1147.676 C 1579.104 1170.507,1579.137 1173.199,1586.078 1198.887 C 1592.362 1222.139,1596.581 1229.156,1615.703 1248.156 C 1664.203 1296.350,1716.946 1289.819,1762.883 1229.933 C 1802.327 1178.510,1846.308 1077.441,1870.773 982.000 C 1879.810 946.747,1881.251 931.556,1882.915 854.000 C 1884.973 758.113,1881.326 723.920,1861.798 656.044 C 1828.890 541.657,1763.415 424.451,1719.833 401.914 C 1704.873 394.178,1672.175 391.427,1658.000 396.712 M677.265 404.290 C 650.053 417.760,607.555 479.875,574.448 554.567 C 487.714 750.249,492.314 953.493,587.793 1144.234 C 646.445 1261.405,686.206 1294.391,744.149 1273.947 C 788.512 1258.295,815.892 1218.863,815.961 1170.526 C 815.998 1144.436,814.383 1139.639,783.887 1075.273 C 728.434 958.233,722.003 929.883,725.079 816.019 C 727.445 728.422,731.941 709.257,768.708 630.013 C 814.118 532.141,817.132 523.936,816.780 499.138 C 816.201 458.311,795.011 424.196,759.121 406.311 C 732.741 393.165,701.307 392.389,677.265 404.290 M1153.608 567.716 C 1052.077 583.959,960.683 667.584,933.705 768.927 C 926.948 794.309,926.182 872.757,932.432 899.229 C 934.870 909.553,945.007 935.100,954.960 956.000 C 971.142 989.984,977.506 998.390,1015.176 1035.541 L 1057.297 1077.082 1059.649 1627.541 L 1062.000 2178.000 1070.979 2196.219 C 1082.791 2220.187,1101.801 2239.303,1124.000 2249.536 C 1139.543 2256.700,1149.644 2257.819,1198.000 2257.729 C 1261.397 2257.612,1275.798 2254.187,1300.988 2233.242 C 1320.922 2216.667,1324.172 2211.667,1329.029 2190.102 C 1331.023 2181.246,1333.944 1926.830,1335.519 1624.734 L 1338.383 1075.469 1352.191 1064.824 C 1432.786 1002.697,1472.000 928.351,1472.000 837.678 C 1472.000 789.386,1464.334 756.377,1442.811 712.000 C 1412.240 648.965,1345.894 594.592,1274.758 574.274 C 1247.644 566.530,1182.923 563.026,1153.608 567.716 " fill="#1D1E23" stroke="none" fill-rule="evenodd"/></svg>