<svg viewBox="0 0 2400 2400" fill="none" xmlns="http://www.w3.org/2000/svg"><path d="M1000.000 300.000 L 1000.000 400.000 800.000 400.000 L 600.000 400.000 600.000 1300.000 L 600.000 2200.000 1200.000 2200.000 L 1800.000 2200.000 1800.000 1300.000 L 1800.000 400.000 1600.000 400.000 L 1400.000 400.000 1400.000 300.000 L 1400.000 200.000 1200.000 200.000 L 1000.000 200.000 1000.000 300.000 M1299.501 1053.000 L 1300.000 1252.000 1391.673 1252.000 C 1442.093 1252.000,1485.940 1252.995,1489.110 1254.212 C 1495.501 1256.665,1480.706 1285.335,1244.000 1729.164 L 1106.000 1987.918 1103.487 1918.959 C 1102.105 1881.032,1100.755 1760.450,1100.487 1651.000 L 1100.000 1452.000 1007.000 1451.939 C 955.850 1451.905,911.799 1450.479,909.108 1448.769 C 904.128 1445.605,956.134 1345.333,1192.126 903.090 L 1294.000 712.181 1296.501 783.090 C 1297.876 822.091,1299.226 943.550,1299.501 1053.000 " fill="#1D1E23" stroke="none" fill-rule="evenodd"/></svg>