<svg viewBox="0 0 2400 2400" fill="none" xmlns="http://www.w3.org/2000/svg"><path d="M1064.342 206.868 C 1054.630 210.299,1039.161 220.628,1029.967 229.823 C 1005.167 254.622,1000.000 274.057,1000.000 342.531 L 1000.000 399.636 850.904 400.818 L 701.808 402.000 675.072 415.168 C 646.005 429.484,626.133 449.493,611.226 479.456 L 602.000 498.000 602.000 1298.000 L 602.000 2098.000 612.404 2120.183 C 627.254 2151.842,644.818 2169.932,675.258 2184.918 L 701.832 2198.000 1200.000 2198.000 L 1698.168 2198.000 1724.916 2184.832 C 1753.996 2170.516,1773.862 2150.517,1788.774 2120.544 L 1798.000 2102.000 1798.000 1300.000 L 1798.000 498.000 1788.774 479.456 C 1773.867 449.493,1753.995 429.484,1724.928 415.168 L 1698.192 402.000 1549.096 400.818 L 1400.000 399.636 1400.000 342.531 C 1400.000 274.112,1394.825 254.615,1370.105 229.895 C 1341.902 201.692,1331.804 199.953,1198.287 200.316 C 1103.775 200.572,1078.693 201.799,1064.342 206.868 M1276.514 858.266 C 1299.576 870.192,1300.000 874.045,1300.000 1071.872 L 1300.000 1252.000 1367.693 1252.000 C 1434.580 1252.000,1435.532 1252.123,1447.621 1262.295 C 1454.350 1267.957,1461.940 1279.547,1464.488 1288.051 C 1470.413 1307.826,1475.095 1298.138,1314.766 1597.830 C 1230.481 1755.378,1185.086 1836.221,1178.010 1841.376 C 1164.883 1850.938,1142.031 1851.324,1124.541 1842.280 C 1100.284 1829.736,1100.000 1827.282,1100.000 1630.128 L 1100.000 1452.000 1039.000 1451.994 C 971.783 1451.987,958.240 1448.460,942.375 1426.828 C 924.785 1402.845,924.002 1404.659,1072.091 1126.346 C 1181.825 920.115,1212.452 865.618,1222.000 859.597 C 1236.600 850.390,1260.171 849.815,1276.514 858.266 " fill="#1D1E23" stroke="none" fill-rule="evenodd"/></svg>