<svg viewBox="0 0 2400 2400" fill="none" xmlns="http://www.w3.org/2000/svg"><path d="M1086.000 205.810 C 1083.800 206.654,1075.143 208.494,1066.761 209.898 C 1047.196 213.177,1021.243 236.311,1010.844 259.742 C 1004.543 273.938,1002.561 289.625,1000.928 338.213 L 998.887 398.942 848.443 401.840 L 698.000 404.739 678.000 415.370 C 653.130 428.588,619.606 461.250,608.438 483.142 L 600.000 499.681 600.000 1297.974 L 600.000 2096.266 609.708 2115.423 C 623.120 2141.891,649.550 2169.282,677.765 2185.956 L 701.529 2200.000 1200.000 2200.000 L 1698.471 2200.000 1722.235 2185.957 C 1749.170 2170.040,1780.476 2138.589,1792.137 2115.731 C 1799.877 2100.560,1800.000 2087.773,1800.000 1300.000 L 1800.000 499.681 1791.562 483.142 C 1780.394 461.250,1746.870 428.588,1722.000 415.370 L 1702.000 404.739 1551.599 401.841 L 1401.199 398.943 1398.813 337.854 C 1396.176 270.345,1392.037 254.801,1370.797 232.659 C 1345.147 205.918,1346.552 206.161,1212.000 205.172 C 1144.900 204.679,1088.200 204.966,1086.000 205.810 M1280.000 863.522 C 1293.797 873.594,1294.490 881.902,1298.082 1080.407 L 1301.166 1250.814 1365.727 1253.103 C 1402.782 1254.417,1434.832 1257.462,1440.952 1260.250 C 1455.422 1266.843,1465.093 1288.104,1461.744 1305.956 C 1455.873 1337.252,1209.349 1798.768,1180.310 1832.828 C 1167.369 1848.005,1165.646 1848.775,1148.853 1846.882 C 1123.386 1844.012,1110.569 1833.085,1107.447 1811.582 C 1106.043 1801.912,1103.530 1717.262,1101.862 1623.471 L 1098.830 1452.941 1038.415 1451.235 C 972.678 1449.378,953.819 1444.348,944.032 1426.059 C 931.056 1401.813,944.268 1369.817,1049.765 1170.000 C 1161.764 957.868,1201.578 886.912,1218.830 868.695 C 1234.967 851.656,1236.368 851.032,1252.830 853.573 C 1262.274 855.030,1274.500 859.507,1280.000 863.522 " fill="#1D1E23" stroke="none" fill-rule="evenodd"/></svg>