<svg viewBox="0 0 2400 2400" fill="none" xmlns="http://www.w3.org/2000/svg"><path d="M1000.000 300.000 L 1000.000 400.000 800.000 400.000 L 600.000 400.000 600.000 1300.000 L 600.000 2200.000 1200.000 2200.000 L 1800.000 2200.000 1800.000 1300.000 L 1800.000 400.000 1600.000 400.000 L 1400.000 400.000 1400.000 300.000 L 1400.000 200.000 1200.000 200.000 L 1000.000 200.000 1000.000 300.000 M1398.028 1252.000 C 1451.912 1252.000,1496.000 1253.128,1496.000 1254.508 C 1496.000 1255.887,1407.350 1423.228,1299.000 1626.378 L 1102.000 1995.741 1100.972 1723.870 L 1099.944 1452.000 1001.972 1452.000 C 931.969 1452.000,904.000 1450.713,904.000 1447.492 C 904.000 1445.013,992.650 1276.772,1101.000 1073.622 L 1298.000 704.259 1299.028 978.130 L 1300.055 1252.000 1398.028 1252.000 " fill="#1D1E23" stroke="none" fill-rule="evenodd"/></svg>