<svg viewBox="0 0 2400 2400" fill="none" xmlns="http://www.w3.org/2000/svg"><path d="M1070.670 209.414 C 1017.438 224.606,1000.098 260.675,1000.030 356.359 L 1000.000 398.717 897.351 401.359 C 840.894 402.811,773.323 404.000,747.192 404.000 C 690.360 404.000,679.625 408.187,640.670 445.550 C 595.006 489.348,599.995 384.584,600.038 1298.841 L 600.075 2098.000 611.600 2118.091 C 625.852 2142.939,651.436 2169.027,678.808 2186.623 L 699.616 2200.000 1200.000 2200.000 L 1700.384 2200.000 1721.462 2186.517 C 1745.647 2171.046,1781.653 2135.799,1791.375 2118.076 C 1797.469 2106.968,1798.088 2041.649,1799.094 1303.026 C 1800.347 383.730,1805.257 489.600,1759.330 445.550 C 1720.375 408.187,1709.640 404.000,1652.808 404.000 C 1626.677 404.000,1559.368 402.818,1503.232 401.374 L 1401.166 398.747 1398.728 340.374 C 1397.387 308.268,1394.109 275.205,1391.443 266.900 C 1385.106 247.156,1361.960 220.411,1345.122 213.375 C 1325.107 205.013,1097.599 201.729,1070.670 209.414 M1276.353 862.183 C 1282.200 865.206,1288.169 871.802,1289.618 876.840 C 1292.401 886.513,1299.595 1114.430,1299.850 1201.000 L 1300.000 1252.000 1331.000 1252.143 C 1348.050 1252.221,1379.981 1253.891,1401.957 1255.853 C 1437.902 1259.062,1442.822 1260.475,1450.957 1269.933 C 1469.079 1291.001,1465.044 1305.613,1412.619 1408.769 C 1325.652 1579.895,1201.572 1805.499,1178.558 1834.340 C 1170.428 1844.529,1164.553 1848.000,1155.434 1848.000 C 1137.817 1848.000,1117.889 1837.319,1112.161 1824.807 C 1107.312 1814.213,1100.604 1636.271,1100.180 1507.000 L 1100.000 1452.000 1057.000 1451.970 C 1010.238 1451.937,967.893 1446.499,955.855 1438.981 C 944.681 1432.003,938.670 1414.346,941.796 1397.683 C 946.174 1374.342,971.950 1318.597,1026.247 1215.040 C 1148.256 982.340,1201.433 887.532,1222.438 865.261 C 1234.601 852.364,1237.175 851.330,1250.770 853.881 C 1258.995 855.423,1270.507 859.159,1276.353 862.183 " fill="#1D1E23" stroke="none" fill-rule="evenodd"/></svg>