<svg viewBox="0 0 2400 2400" fill="none" xmlns="http://www.w3.org/2000/svg"><path d="M1000.000 300.000 L 1000.000 400.000 800.000 400.000 L 600.000 400.000 600.000 1300.000 L 600.000 2200.000 1200.000 2200.000 L 1800.000 2200.000 1800.000 1300.000 L 1800.000 400.000 1600.000 400.000 L 1400.000 400.000 1400.000 300.000 L 1400.000 200.000 1200.000 200.000 L 1000.000 200.000 1000.000 300.000 M1300.000 1150.000 L 1300.000 1400.000 1200.000 1400.000 L 1100.000 1400.000 1100.000 1150.000 L 1100.000 900.000 1200.000 900.000 L 1300.000 900.000 1300.000 1150.000 M1300.000 1700.000 L 1300.000 1800.000 1200.000 1800.000 L 1100.000 1800.000 1100.000 1700.000 L 1100.000 1600.000 1200.000 1600.000 L 1300.000 1600.000 1300.000 1700.000 " fill="#1D1E23" stroke="none" fill-rule="evenodd"/></svg>