<svg viewBox="0 0 2400 2400" fill="none" xmlns="http://www.w3.org/2000/svg"><path d="M1000.000 300.000 L 1000.000 400.000 800.000 400.000 L 600.000 400.000 600.000 1300.000 L 600.000 2200.000 1200.000 2200.000 L 1800.000 2200.000 1800.000 1300.000 L 1800.000 400.000 1600.000 400.000 L 1400.000 400.000 1400.000 300.000 L 1400.000 200.000 1200.000 200.000 L 1000.000 200.000 1000.000 300.000 M1298.249 1002.818 L 1301.173 1252.000 1387.586 1252.281 C 1435.114 1252.436,1477.018 1253.786,1480.706 1255.281 C 1486.748 1257.731,1486.306 1260.573,1476.234 1284.000 C 1458.159 1326.044,1234.649 1748.838,1147.650 1905.554 C 1114.262 1965.696,1109.973 1971.746,1107.438 1962.270 C 1105.878 1956.436,1103.294 1839.238,1101.695 1701.831 L 1098.789 1452.000 1010.395 1451.939 C 961.778 1451.905,919.483 1450.284,916.407 1448.336 C 911.673 1445.339,911.870 1442.120,917.686 1427.397 C 929.275 1398.060,1165.949 949.913,1254.307 790.000 C 1289.012 727.190,1289.722 726.257,1292.497 739.818 C 1294.052 747.419,1296.640 865.769,1298.249 1002.818 " fill="#1D1E23" stroke="none" fill-rule="evenodd"/></svg>