<svg viewBox="0 0 2400 2400" fill="none" xmlns="http://www.w3.org/2000/svg"><path d="M1116.000 203.826 C 1061.316 206.329,1051.252 209.672,1029.203 232.659 C 1006.764 256.051,1002.643 271.399,1000.819 338.358 L 999.175 398.716 849.473 401.348 L 699.772 403.981 679.525 414.241 C 652.849 427.758,625.847 453.070,611.594 477.918 L 600.075 498.000 600.038 1297.133 L 600.000 2096.266 610.337 2116.664 C 624.658 2144.927,651.756 2172.623,679.612 2187.470 L 703.120 2200.000 1199.693 2200.000 L 1696.266 2200.000 1716.664 2189.663 C 1743.173 2176.230,1774.016 2147.159,1788.450 2122.000 L 1799.925 2102.000 1799.925 1300.000 L 1799.925 498.000 1788.406 477.918 C 1774.153 453.070,1747.151 427.758,1720.475 414.241 L 1700.228 403.981 1550.630 401.350 L 1401.032 398.720 1398.847 338.360 C 1397.645 305.162,1394.696 271.495,1392.293 263.545 C 1389.660 254.830,1379.451 241.075,1366.589 228.911 C 1347.685 211.032,1342.788 208.482,1323.627 206.535 C 1288.061 202.923,1169.529 201.376,1116.000 203.826 " fill="#1D1E23" stroke="none" fill-rule="evenodd"/></svg>