<svg viewBox="0 0 2400 2400" fill="none" xmlns="http://www.w3.org/2000/svg"><path d="M1000.000 300.000 L 1000.000 400.000 800.000 400.000 L 600.000 400.000 600.000 1300.000 L 600.000 2200.000 1200.000 2200.000 L 1800.000 2200.000 1800.000 1300.000 L 1800.000 400.000 1600.000 400.000 L 1400.000 400.000 1400.000 300.000 L 1400.000 200.000 1200.000 200.000 L 1000.000 200.000 1000.000 300.000 M1297.992 1027.000 L 1300.991 1252.000 1373.937 1252.000 C 1458.657 1252.000,1484.000 1254.508,1484.000 1262.893 C 1484.000 1274.502,1274.283 1675.421,1165.298 1872.162 C 1111.187 1969.842,1113.216 1966.549,1109.464 1962.798 C 1107.740 1961.073,1104.591 1845.438,1102.467 1705.831 L 1098.605 1452.000 1012.067 1452.000 C 946.303 1452.000,923.780 1450.721,918.242 1446.671 C 911.422 1441.685,914.415 1434.559,964.866 1335.671 C 1054.353 1160.267,1272.675 752.094,1285.426 736.354 C 1292.539 727.574,1294.652 776.458,1297.992 1027.000 " fill="#1D1E23" stroke="none" fill-rule="evenodd"/></svg>