<svg viewBox="0 0 2400 2400" fill="none" xmlns="http://www.w3.org/2000/svg"><path d="M1086.000 205.810 C 1083.800 206.654,1075.143 208.494,1066.761 209.898 C 1047.196 213.177,1021.243 236.311,1010.844 259.742 C 1004.543 273.938,1002.561 289.625,1000.928 338.213 L 998.887 398.942 848.443 401.840 L 698.000 404.739 678.000 415.370 C 653.130 428.588,619.606 461.250,608.438 483.142 L 600.000 499.681 600.000 1297.974 L 600.000 2096.266 609.708 2115.423 C 623.120 2141.891,649.550 2169.282,677.765 2185.956 L 701.529 2200.000 1200.000 2200.000 L 1698.471 2200.000 1722.235 2185.957 C 1749.170 2170.040,1780.476 2138.589,1792.137 2115.731 C 1799.877 2100.560,1800.000 2087.773,1800.000 1300.000 L 1800.000 499.681 1791.562 483.142 C 1780.394 461.250,1746.870 428.588,1722.000 415.370 L 1702.000 404.739 1551.599 401.841 L 1401.199 398.943 1398.813 337.854 C 1396.176 270.345,1392.037 254.801,1370.797 232.659 C 1345.147 205.918,1346.552 206.161,1212.000 205.172 C 1144.900 204.679,1088.200 204.966,1086.000 205.810 M1233.008 909.707 C 1254.983 917.549,1274.845 934.165,1285.037 953.232 C 1293.940 969.889,1294.000 971.197,1294.000 1150.314 L 1294.000 1330.627 1281.905 1350.190 C 1275.253 1360.949,1262.048 1375.208,1252.561 1381.876 C 1236.511 1393.156,1232.853 1394.000,1200.000 1394.000 C 1167.154 1394.000,1163.486 1393.154,1147.456 1381.888 C 1137.978 1375.227,1125.019 1362.372,1118.659 1353.322 L 1107.095 1336.868 1103.051 1217.541 C 1098.398 1080.247,1102.723 978.330,1114.231 954.078 C 1122.431 936.797,1149.091 913.128,1165.841 908.257 C 1184.031 902.968,1216.061 903.659,1233.008 909.707 M1300.000 1700.000 L 1300.000 1800.000 1200.000 1800.000 L 1100.000 1800.000 1100.000 1700.000 L 1100.000 1600.000 1200.000 1600.000 L 1300.000 1600.000 1300.000 1700.000 " fill="#1D1E23" stroke="none" fill-rule="evenodd"/></svg>