<svg viewBox="0 0 2400 2400" fill="none" xmlns="http://www.w3.org/2000/svg"><path d="M1000.000 300.000 L 1000.000 400.000 800.000 400.000 L 600.000 400.000 600.000 1300.000 L 600.000 2200.000 1200.000 2200.000 L 1800.000 2200.000 1800.000 1300.000 L 1800.000 400.000 1600.000 400.000 L 1400.000 400.000 1400.000 300.000 L 1400.000 200.000 1200.000 200.000 L 1000.000 200.000 1000.000 300.000 M1298.676 989.219 L 1301.313 1252.000 1392.782 1252.000 C 1469.050 1252.000,1484.621 1252.965,1486.480 1257.807 C 1489.377 1265.359,1446.703 1348.423,1261.962 1694.830 C 1178.416 1851.486,1108.664 1978.264,1106.958 1976.558 C 1105.252 1974.852,1102.693 1856.128,1101.273 1712.728 L 1098.690 1452.000 1008.345 1451.939 C 958.655 1451.905,915.713 1450.426,912.918 1448.652 C 905.126 1443.706,927.776 1399.362,1173.173 939.136 C 1237.358 818.762,1291.260 721.660,1292.956 723.356 C 1294.651 725.051,1297.225 844.690,1298.676 989.219 " fill="#1D1E23" stroke="none" fill-rule="evenodd"/></svg>