<svg viewBox="0 0 2400 2400" fill="none" xmlns="http://www.w3.org/2000/svg"><path d="M1116.000 203.826 C 1061.316 206.329,1051.252 209.672,1029.203 232.659 C 1006.764 256.051,1002.643 271.399,1000.819 338.358 L 999.175 398.716 849.473 401.348 L 699.772 403.981 679.525 414.241 C 652.849 427.758,625.847 453.070,611.594 477.918 L 600.075 498.000 600.038 1297.133 L 600.000 2096.266 610.337 2116.664 C 624.658 2144.927,651.756 2172.623,679.612 2187.470 L 703.120 2200.000 1199.693 2200.000 L 1696.266 2200.000 1716.664 2189.663 C 1743.173 2176.230,1774.016 2147.159,1788.450 2122.000 L 1799.925 2102.000 1799.925 1300.000 L 1799.925 498.000 1788.406 477.918 C 1774.153 453.070,1747.151 427.758,1720.475 414.241 L 1700.228 403.981 1550.630 401.350 L 1401.032 398.720 1398.847 338.360 C 1397.645 305.162,1394.696 271.495,1392.293 263.545 C 1389.660 254.830,1379.451 241.075,1366.589 228.911 C 1347.685 211.032,1342.788 208.482,1323.627 206.535 C 1288.061 202.923,1169.529 201.376,1116.000 203.826 M1242.483 912.234 C 1264.244 922.768,1286.280 947.156,1291.712 966.717 C 1294.393 976.375,1295.955 1043.834,1295.955 1150.000 C 1295.955 1256.166,1294.393 1323.625,1291.712 1333.283 C 1286.451 1352.227,1263.694 1377.953,1242.740 1388.643 C 1221.024 1399.721,1178.956 1399.746,1157.532 1388.692 C 1134.900 1377.015,1112.008 1351.652,1107.734 1333.520 C 1105.723 1324.984,1102.945 1258.600,1101.563 1186.000 C 1098.936 1048.030,1102.760 973.614,1113.534 953.043 C 1121.649 937.547,1143.451 917.525,1160.000 910.368 C 1180.898 901.330,1221.874 902.257,1242.483 912.234 M1300.000 1700.000 L 1300.000 1800.000 1200.000 1800.000 L 1100.000 1800.000 1100.000 1700.000 L 1100.000 1600.000 1200.000 1600.000 L 1300.000 1600.000 1300.000 1700.000 " fill="#1D1E23" stroke="none" fill-rule="evenodd"/></svg>