<svg viewBox="0 0 2400 2400" fill="none" xmlns="http://www.w3.org/2000/svg"><path d="M1070.670 209.414 C 1017.438 224.606,1000.098 260.675,1000.030 356.359 L 1000.000 398.717 897.351 401.359 C 840.894 402.811,773.323 404.000,747.192 404.000 C 690.360 404.000,679.625 408.187,640.670 445.550 C 595.006 489.348,599.995 384.584,600.038 1298.841 L 600.075 2098.000 611.600 2118.091 C 625.852 2142.939,651.436 2169.027,678.808 2186.623 L 699.616 2200.000 1200.000 2200.000 L 1700.384 2200.000 1721.462 2186.517 C 1745.647 2171.046,1781.653 2135.799,1791.375 2118.076 C 1797.469 2106.968,1798.088 2041.649,1799.094 1303.026 C 1800.347 383.730,1805.257 489.600,1759.330 445.550 C 1720.375 408.187,1709.640 404.000,1652.808 404.000 C 1626.677 404.000,1559.368 402.818,1503.232 401.374 L 1401.166 398.747 1398.728 340.374 C 1397.387 308.268,1394.109 275.205,1391.443 266.900 C 1385.106 247.156,1361.960 220.411,1345.122 213.375 C 1325.107 205.013,1097.599 201.729,1070.670 209.414 " fill="#1D1E23" stroke="none" fill-rule="evenodd"/></svg>