<svg viewBox="0 0 2400 2400" fill="none" xmlns="http://www.w3.org/2000/svg"><path d="M1085.408 203.678 C 1067.370 205.900,1056.358 209.986,1044.089 219.009 C 1007.500 245.917,1000.000 267.795,1000.000 347.625 L 1000.000 398.856 850.916 400.856 L 701.833 402.856 677.919 414.428 C 648.262 428.780,624.941 451.521,610.818 479.862 L 600.000 501.571 600.003 1297.785 L 600.006 2094.000 611.681 2118.678 C 626.397 2149.785,647.753 2171.255,680.015 2187.376 L 705.278 2200.000 1200.000 2200.000 L 1694.722 2200.000 1720.241 2187.248 C 1750.603 2172.076,1775.426 2147.742,1789.641 2119.217 L 1800.000 2098.429 1800.000 1300.000 L 1800.000 501.571 1789.600 480.702 C 1775.869 453.145,1750.749 428.603,1721.737 414.397 L 1698.167 402.856 1549.490 400.861 L 1400.814 398.867 1399.188 336.433 C 1397.358 266.155,1394.109 254.376,1369.867 230.133 C 1343.281 203.548,1338.544 202.658,1218.000 201.598 C 1158.600 201.076,1098.934 202.012,1085.408 203.678 " fill="#1D1E23" stroke="none" fill-rule="evenodd"/></svg>