<svg viewBox="0 0 2400 2400" fill="none" xmlns="http://www.w3.org/2000/svg"><path d="M1064.342 206.868 C 1054.630 210.299,1039.161 220.628,1029.967 229.823 C 1005.167 254.622,1000.000 274.057,1000.000 342.531 L 1000.000 399.636 850.904 400.818 L 701.808 402.000 675.072 415.168 C 646.005 429.484,626.133 449.493,611.226 479.456 L 602.000 498.000 602.000 1298.000 L 602.000 2098.000 612.404 2120.183 C 627.254 2151.842,644.818 2169.932,675.258 2184.918 L 701.832 2198.000 1200.000 2198.000 L 1698.168 2198.000 1724.916 2184.832 C 1753.996 2170.516,1773.862 2150.517,1788.774 2120.544 L 1798.000 2102.000 1798.000 1300.000 L 1798.000 498.000 1788.774 479.456 C 1773.867 449.493,1753.995 429.484,1724.928 415.168 L 1698.192 402.000 1549.096 400.818 L 1400.000 399.636 1400.000 342.531 C 1400.000 274.112,1394.825 254.615,1370.105 229.895 C 1341.902 201.692,1331.804 199.953,1198.287 200.316 C 1103.775 200.572,1078.693 201.799,1064.342 206.868 " fill="#1D1E23" stroke="none" fill-rule="evenodd"/></svg>