<svg viewBox="0 0 2400 2400" fill="none" xmlns="http://www.w3.org/2000/svg"><path d="M1164.860 249.027 C 1147.126 254.710,1116.385 282.392,1108.452 299.822 C 1102.721 312.417,1101.866 349.879,1100.802 635.302 L 1099.603 956.604 904.579 763.302 C 797.316 656.986,701.775 564.646,692.266 558.102 C 678.217 548.433,669.896 545.917,647.854 544.671 C 614.789 542.803,598.282 547.855,576.477 566.520 C 535.781 601.354,529.967 658.635,562.947 699.838 C 570.942 709.827,685.513 826.438,817.549 958.974 L 1057.615 1199.947 813.543 1444.974 C 679.303 1579.738,564.634 1696.477,558.723 1704.394 C 520.450 1755.651,550.001 1835.567,614.120 1854.207 C 642.641 1862.498,673.781 1857.564,695.606 1841.295 C 703.523 1835.394,797.660 1743.319,904.801 1636.683 L 1099.602 1442.801 1100.801 1764.400 C 1102.148 2125.816,1099.898 2100.290,1133.102 2130.799 C 1170.615 2165.267,1221.850 2167.789,1259.511 2137.021 C 1288.372 2113.441,1552.765 1850.882,1639.889 1759.281 C 1722.571 1672.350,1728.000 1664.331,1728.000 1629.133 C 1728.000 1606.771,1721.146 1588.901,1704.554 1568.000 C 1696.695 1558.100,1612.057 1471.269,1516.469 1375.043 L 1342.673 1200.085 1522.336 1019.023 C 1621.151 919.439,1707.060 830.514,1713.244 821.413 C 1727.114 801.002,1731.433 768.548,1723.874 741.549 C 1717.732 719.613,1700.213 700.253,1540.257 538.647 C 1388.288 385.111,1253.240 256.110,1237.658 249.599 C 1222.248 243.161,1184.104 242.861,1164.860 249.027 M1395.032 677.032 L 1488.001 770.063 1394.000 864.000 L 1300.000 957.936 1300.000 770.968 C 1300.000 668.136,1300.464 584.000,1301.032 584.000 C 1301.599 584.000,1343.900 625.864,1395.032 677.032 M1395.032 1537.032 L 1488.001 1630.063 1394.000 1724.000 L 1300.000 1817.936 1300.000 1630.968 C 1300.000 1528.136,1300.464 1444.000,1301.032 1444.000 C 1301.599 1444.000,1343.900 1485.864,1395.032 1537.032 " fill="#1D1E23" stroke="none" fill-rule="evenodd"/></svg>