<svg viewBox="0 0 2400 2400" fill="none" xmlns="http://www.w3.org/2000/svg"><path d="M900.000 578.987 L 900.000 957.974 670.986 728.986 L 441.973 499.999 370.985 570.987 L 299.997 641.975 578.988 920.988 L 857.979 1200.000 578.988 1479.012 L 299.997 1758.025 370.985 1829.013 L 441.973 1900.001 670.986 1671.014 L 900.000 1442.026 900.000 1821.013 L 900.000 2200.000 950.990 2200.000 L 1001.979 2200.000 1286.988 1915.012 L 1571.997 1630.024 1357.012 1415.012 L 1142.028 1200.000 1357.012 984.988 L 1571.997 769.976 1286.988 484.988 L 1001.979 200.000 950.990 200.000 L 900.000 200.000 900.000 578.987 M1195.032 677.032 L 1288.001 770.063 1194.000 864.000 L 1100.000 957.936 1100.000 770.968 C 1100.000 668.136,1100.464 584.000,1101.032 584.000 C 1101.599 584.000,1143.900 625.864,1195.032 677.032 M1917.294 711.365 C 1900.082 726.676,1872.921 752.505,1856.935 768.761 L 1827.869 798.320 1843.400 834.160 C 1861.771 876.553,1892.753 969.948,1903.976 1016.765 C 1911.194 1046.872,1911.947 1064.051,1911.972 1199.275 C 1911.999 1344.974,1911.763 1349.486,1902.097 1387.618 C 1888.733 1440.336,1872.721 1488.536,1848.131 1550.061 L 1827.593 1601.448 1866.797 1641.010 C 1888.358 1662.769,1914.805 1688.025,1925.566 1697.133 L 1945.133 1713.693 1956.117 1700.537 C 1971.061 1682.636,2011.508 1600.454,2034.143 1542.000 C 2058.006 1480.376,2081.556 1387.820,2089.823 1323.172 C 2105.879 1197.619,2094.540 1037.594,2061.398 922.000 C 2035.783 832.657,1970.986 687.840,1955.272 684.814 C 1951.441 684.076,1935.228 695.411,1917.294 711.365 M1629.534 999.253 C 1614.390 1012.451,1561.950 1063.483,1512.999 1112.658 L 1423.999 1202.067 1510.999 1288.204 C 1626.364 1402.425,1651.798 1425.840,1655.851 1421.561 C 1660.032 1417.149,1677.609 1361.415,1686.997 1322.804 C 1692.652 1299.545,1694.000 1275.905,1694.000 1200.000 L 1694.000 1106.000 1678.862 1046.000 C 1670.536 1013.000,1662.226 983.583,1660.396 980.629 C 1657.888 976.579,1650.293 981.162,1629.534 999.253 M1195.032 1537.032 L 1288.001 1630.063 1194.000 1724.000 L 1100.000 1817.936 1100.000 1630.968 C 1100.000 1528.136,1100.464 1444.000,1101.032 1444.000 C 1101.599 1444.000,1143.900 1485.864,1195.032 1537.032 " fill="#1D1E23" stroke="none" fill-rule="evenodd"/></svg>