<svg viewBox="0 0 2400 2400" fill="none" xmlns="http://www.w3.org/2000/svg"><path d="M1100.000 451.030 L 1100.000 702.060 1200.000 802.000 L 1300.000 901.940 1300.000 742.002 L 1300.000 582.064 1393.998 675.998 L 1487.996 769.932 1407.995 850.005 L 1327.994 930.077 1399.027 1001.028 L 1470.060 1071.979 1621.026 920.975 L 1771.991 769.970 1486.985 484.985 L 1201.979 200.000 1150.990 200.000 L 1100.000 200.000 1100.000 451.030 M470.988 470.983 L 399.995 541.977 728.988 870.988 L 1057.980 1199.998 778.988 1479.012 L 499.997 1758.025 570.985 1829.013 L 641.973 1900.001 870.986 1671.014 L 1100.000 1442.026 1100.000 1821.013 L 1100.000 2200.000 1151.014 2200.000 L 1202.028 2200.000 1415.994 1986.006 L 1629.961 1772.011 1744.014 1886.014 L 1858.067 2000.016 1929.015 1928.986 L 1999.964 1857.955 1270.973 1128.973 L 541.982 399.990 470.988 470.983 M1395.032 1537.032 L 1488.001 1630.063 1394.000 1724.000 L 1300.000 1817.936 1300.000 1630.968 C 1300.000 1528.136,1300.464 1444.000,1301.032 1444.000 C 1301.599 1444.000,1343.900 1485.864,1395.032 1537.032 " fill="#1D1E23" stroke="none" fill-rule="evenodd"/></svg>