<svg viewBox="0 0 2400 2400" fill="none" xmlns="http://www.w3.org/2000/svg"><path d="M1164.860 249.027 C 1147.126 254.710,1116.385 282.392,1108.452 299.822 C 1102.878 312.070,1101.840 338.776,1100.823 496.000 L 1099.646 678.000 1199.823 777.970 L 1300.000 877.940 1300.000 730.002 L 1300.000 582.064 1393.903 675.903 L 1487.806 769.742 1415.514 842.708 L 1343.222 915.673 1351.339 926.837 C 1355.804 932.976,1387.125 965.525,1420.942 999.167 L 1482.428 1060.334 1592.649 948.934 C 1653.271 887.665,1707.735 830.185,1713.679 821.202 C 1727.090 800.938,1731.297 768.063,1723.874 741.549 C 1717.732 719.613,1700.213 700.253,1540.257 538.647 C 1388.288 385.111,1253.240 256.110,1237.658 249.599 C 1222.248 243.161,1184.104 242.861,1164.860 249.027 M496.920 452.461 C 475.371 463.127,454.259 487.577,446.217 511.179 C 438.483 533.878,438.474 540.395,446.140 570.160 L 452.280 594.000 755.026 896.895 L 1057.771 1199.791 813.621 1444.895 C 679.338 1579.703,564.634 1696.477,558.723 1704.394 C 520.450 1755.651,550.001 1835.567,614.120 1854.207 C 642.641 1862.498,673.781 1857.564,695.606 1841.295 C 703.523 1835.394,797.679 1743.300,904.842 1636.642 L 1099.684 1442.718 1100.842 1764.359 L 1102.000 2086.000 1110.710 2102.273 C 1132.211 2142.441,1178.002 2165.367,1219.444 2156.714 C 1233.724 2153.732,1247.087 2147.243,1259.444 2137.289 C 1269.650 2129.068,1357.266 2043.563,1454.147 1947.277 L 1630.293 1772.212 1704.147 1846.283 C 1794.404 1936.806,1811.461 1950.553,1840.836 1956.452 C 1899.471 1968.228,1956.902 1920.714,1957.419 1860.000 C 1957.664 1831.207,1952.256 1821.808,1905.315 1769.433 C 1857.283 1715.842,983.360 839.199,755.923 616.463 C 575.794 440.058,580.827 443.997,535.536 444.003 C 521.674 444.005,507.914 447.019,496.920 452.461 M1395.032 1537.032 L 1488.001 1630.063 1394.000 1724.000 L 1300.000 1817.936 1300.000 1630.968 C 1300.000 1528.136,1300.464 1444.000,1301.032 1444.000 C 1301.599 1444.000,1343.900 1485.864,1395.032 1537.032 " fill="#1D1E23" stroke="none" fill-rule="evenodd"/></svg>