<svg viewBox="0 0 2400 2400" fill="none" xmlns="http://www.w3.org/2000/svg"><path d="M1172.942 247.681 C 1154.743 252.325,1130.666 269.038,1117.715 286.018 C 1102.575 305.867,1100.556 333.153,1100.252 522.030 L 1100.000 678.060 1200.000 778.000 L 1300.000 877.940 1300.000 730.002 L 1300.000 582.064 1393.996 675.996 L 1487.992 769.929 1415.438 842.563 L 1342.883 915.197 1351.170 926.598 C 1355.728 932.869,1387.174 965.574,1421.050 999.275 L 1482.644 1060.550 1593.557 947.586 C 1654.559 885.456,1708.927 827.017,1714.375 817.721 C 1726.434 797.144,1730.432 767.819,1724.286 745.033 C 1721.647 735.248,1711.042 717.652,1699.234 703.463 C 1645.147 638.470,1277.172 275.815,1244.006 254.816 C 1230.524 246.280,1193.144 242.527,1172.942 247.681 M495.654 455.106 C 470.955 468.009,450.822 493.333,443.501 520.708 C 439.383 536.103,439.679 543.374,445.364 566.504 L 452.122 594.000 754.786 896.735 L 1057.450 1199.469 808.605 1450.130 C 669.605 1590.143,556.520 1707.237,552.421 1715.395 C 540.818 1738.485,538.832 1757.934,545.674 1781.470 C 563.345 1842.257,625.277 1873.517,680.030 1849.287 C 693.758 1843.212,746.027 1793.787,899.030 1642.204 L 1100.000 1443.100 1100.000 1761.710 C 1100.000 2077.869,1100.065 2080.448,1108.440 2097.159 C 1134.543 2149.243,1192.878 2171.961,1240.714 2148.673 C 1254.302 2142.058,1310.213 2089.353,1444.829 1956.260 L 1630.229 1772.956 1714.116 1855.638 C 1807.499 1947.680,1822.272 1957.980,1860.274 1957.545 C 1900.347 1957.086,1939.438 1928.062,1952.244 1889.260 C 1954.805 1881.501,1956.145 1864.717,1955.223 1851.963 C 1953.784 1832.077,1951.037 1825.442,1935.935 1805.387 C 1911.555 1773.011,1527.368 1384.008,1065.461 924.000 C 672.516 532.671,603.261 465.908,575.679 451.836 C 552.664 440.095,521.989 441.348,495.654 455.106 M1395.032 1537.032 L 1488.001 1630.063 1394.000 1724.000 L 1300.000 1817.936 1300.000 1630.968 C 1300.000 1528.136,1300.464 1444.000,1301.032 1444.000 C 1301.599 1444.000,1343.900 1485.864,1395.032 1537.032 " fill="#1D1E23" stroke="none" fill-rule="evenodd"/></svg>