<svg viewBox="0 0 2400 2400" fill="none" xmlns="http://www.w3.org/2000/svg"><path d="M1100.000 578.987 L 1100.000 957.974 870.986 728.986 L 641.973 499.999 570.985 570.987 L 499.997 641.975 778.988 920.988 L 1057.979 1200.000 778.988 1479.012 L 499.997 1758.025 570.985 1829.013 L 641.973 1900.001 870.986 1671.014 L 1100.000 1442.026 1100.000 1821.013 L 1100.000 2200.000 1150.990 2200.000 L 1201.979 2200.000 1486.988 1915.012 L 1771.997 1630.024 1557.012 1415.012 L 1342.028 1200.000 1557.012 984.988 L 1771.997 769.976 1486.988 484.988 L 1201.979 200.000 1150.990 200.000 L 1100.000 200.000 1100.000 578.987 M1395.032 677.032 L 1488.001 770.063 1394.000 864.000 L 1300.000 957.936 1300.000 770.968 C 1300.000 668.136,1300.464 584.000,1301.032 584.000 C 1301.599 584.000,1343.900 625.864,1395.032 677.032 M1395.032 1537.032 L 1488.001 1630.063 1394.000 1724.000 L 1300.000 1817.936 1300.000 1630.968 C 1300.000 1528.136,1300.464 1444.000,1301.032 1444.000 C 1301.599 1444.000,1343.900 1485.864,1395.032 1537.032 " fill="#1D1E23" stroke="none" fill-rule="evenodd"/></svg>