<svg viewBox="0 0 2400 2400" fill="none" xmlns="http://www.w3.org/2000/svg"><path d="M1156.437 256.700 C 1131.957 268.817,1114.112 287.963,1108.132 308.527 C 1104.503 321.005,1102.535 376.314,1101.247 502.000 L 1099.445 678.000 1199.722 777.970 L 1300.000 877.940 1300.000 730.002 L 1300.000 582.064 1393.996 675.996 L 1487.992 769.929 1415.438 842.563 L 1342.883 915.197 1351.170 926.598 C 1355.728 932.869,1387.049 965.449,1420.773 998.997 L 1482.089 1059.995 1552.321 988.997 C 1712.516 827.057,1725.834 810.236,1725.938 769.717 C 1725.993 748.221,1724.244 742.691,1711.147 722.952 C 1689.923 690.964,1613.765 610.283,1488.354 486.929 C 1343.965 344.908,1252.895 260.299,1237.128 253.528 C 1217.009 244.887,1177.135 246.454,1156.437 256.700 M510.363 450.065 C 488.112 458.542,468.909 474.288,456.003 494.640 C 440.787 518.632,438.574 534.559,445.978 566.776 L 452.235 594.000 755.103 896.996 L 1057.972 1199.991 897.652 1360.996 C 664.533 1595.110,565.587 1697.868,553.631 1718.269 C 539.094 1743.074,539.059 1767.820,553.517 1797.371 C 578.085 1847.587,632.931 1869.817,678.194 1847.906 C 697.503 1838.559,782.974 1757.595,969.000 1572.435 L 1100.000 1442.045 1100.000 1761.182 C 1100.000 2071.977,1100.208 2080.727,1107.966 2095.934 C 1117.913 2115.431,1140.001 2137.165,1159.282 2146.425 C 1179.374 2156.076,1214.729 2158.310,1232.152 2151.030 C 1251.844 2142.802,1308.501 2090.364,1478.959 1922.603 C 1560.886 1841.971,1628.969 1776.000,1630.255 1776.000 C 1631.540 1776.000,1661.708 1804.420,1697.296 1839.156 C 1770.160 1910.277,1807.768 1942.640,1826.781 1950.584 C 1855.785 1962.703,1899.574 1953.025,1925.506 1928.764 C 1940.241 1914.979,1955.911 1881.896,1955.961 1864.464 C 1956.040 1837.068,1947.299 1820.652,1910.635 1779.334 C 1826.030 1683.992,818.457 674.503,648.369 514.667 C 620.666 488.634,590.534 462.921,581.410 457.527 C 560.582 445.215,531.194 442.128,510.363 450.065 M1395.032 1537.032 L 1488.001 1630.063 1394.000 1724.000 L 1300.000 1817.936 1300.000 1630.968 C 1300.000 1528.136,1300.464 1444.000,1301.032 1444.000 C 1301.599 1444.000,1343.900 1485.864,1395.032 1537.032 " fill="#1D1E23" stroke="none" fill-rule="evenodd"/></svg>