<svg viewBox="0 0 2400 2400" fill="none" xmlns="http://www.w3.org/2000/svg"><path d="M900.000 578.987 L 900.000 957.974 670.986 728.986 L 441.973 499.999 370.985 570.987 L 299.997 641.975 578.988 920.988 L 857.979 1200.000 578.988 1479.012 L 299.997 1758.025 370.985 1829.013 L 441.973 1900.001 670.986 1671.014 L 900.000 1442.026 900.000 1821.013 L 900.000 2200.000 950.990 2200.000 L 1001.979 2200.000 1286.988 1915.012 L 1571.997 1630.024 1357.012 1415.012 L 1142.028 1200.000 1357.012 984.988 L 1571.997 769.976 1286.988 484.988 L 1001.979 200.000 950.990 200.000 L 900.000 200.000 900.000 578.987 M1195.032 677.032 L 1288.001 770.063 1194.000 864.000 L 1100.000 957.936 1100.000 770.968 C 1100.000 668.136,1100.464 584.000,1101.032 584.000 C 1101.599 584.000,1143.900 625.864,1195.032 677.032 M1890.394 735.606 L 1827.269 798.823 1837.160 818.412 C 1869.990 883.431,1897.501 969.558,1912.411 1054.000 C 1920.110 1097.601,1921.626 1120.537,1921.796 1196.000 C 1922.015 1292.468,1919.025 1320.562,1899.873 1402.000 C 1886.512 1458.819,1869.829 1507.383,1845.091 1561.470 L 1827.039 1600.941 1886.520 1660.602 C 1954.890 1729.181,1943.910 1728.224,1977.303 1668.515 C 2121.909 1409.953,2139.693 1094.161,2025.426 814.000 C 2009.503 774.960,1970.993 697.722,1958.213 679.194 C 1954.095 673.223,1945.771 680.147,1890.394 735.606 M1538.974 1087.026 L 1424.000 1202.051 1539.803 1317.803 C 1652.317 1430.267,1655.719 1433.260,1659.555 1423.171 C 1668.999 1398.332,1684.161 1343.216,1690.688 1310.000 C 1700.569 1259.714,1700.574 1140.326,1690.696 1090.000 C 1682.902 1050.290,1660.107 972.000,1656.339 972.000 C 1655.024 972.000,1602.210 1023.762,1538.974 1087.026 M1195.032 1537.032 L 1288.001 1630.063 1194.000 1724.000 L 1100.000 1817.936 1100.000 1630.968 C 1100.000 1528.136,1100.464 1444.000,1101.032 1444.000 C 1101.599 1444.000,1143.900 1485.864,1195.032 1537.032 " fill="#1D1E23" stroke="none" fill-rule="evenodd"/></svg>