<svg viewBox="0 0 2400 2400" fill="none" xmlns="http://www.w3.org/2000/svg"><path d="M971.170 249.307 C 945.836 257.323,920.301 278.376,910.763 299.111 C 902.113 317.914,902.067 319.451,900.688 637.628 L 899.303 957.257 770.651 829.267 C 584.457 644.030,498.619 562.155,482.692 554.596 C 474.987 550.940,458.099 546.842,445.163 545.490 C 425.006 543.384,418.806 544.470,401.791 553.092 C 378.422 564.934,361.940 580.472,352.086 599.948 C 333.388 636.904,338.391 666.794,369.609 704.641 C 381.164 718.650,495.656 835.953,624.034 965.314 L 857.450 1200.516 685.333 1373.258 C 590.669 1468.266,476.933 1583.619,432.586 1629.598 C 361.367 1703.436,351.254 1715.556,345.950 1733.417 C 339.208 1756.120,341.035 1773.248,352.934 1798.883 C 361.936 1818.276,386.741 1842.211,406.313 1850.389 C 424.378 1857.937,461.638 1857.496,478.412 1849.536 C 495.122 1841.607,575.229 1765.389,756.021 1585.405 C 831.933 1509.832,895.118 1448.000,896.434 1448.000 C 897.749 1448.000,899.877 1589.750,901.162 1763.000 C 902.816 1985.941,904.870 2082.676,908.192 2094.000 C 913.717 2112.836,938.222 2137.758,961.707 2148.424 C 982.784 2157.997,1021.314 2158.165,1038.941 2148.760 C 1058.669 2138.235,1186.963 2016.069,1323.427 1877.863 C 1511.340 1687.551,1527.715 1667.591,1527.912 1628.605 C 1528.100 1591.442,1516.294 1577.423,1304.008 1362.739 L 1142.571 1199.477 1264.412 1076.739 C 1486.061 853.456,1507.004 831.143,1518.505 806.022 C 1527.473 786.432,1528.613 779.831,1526.355 760.552 C 1524.815 747.401,1519.845 732.164,1514.433 724.000 C 1490.843 688.411,1185.444 379.700,1090.299 295.267 C 1033.784 245.113,1011.542 236.533,971.170 249.307 M1195.032 677.032 L 1288.001 770.063 1194.000 864.000 L 1100.000 957.936 1100.000 770.968 C 1100.000 668.136,1100.464 584.000,1101.032 584.000 C 1101.599 584.000,1143.900 625.864,1195.032 677.032 M1910.000 732.926 C 1880.384 743.524,1855.218 769.195,1847.937 796.233 C 1843.950 811.041,1850.642 844.928,1866.060 888.000 C 1882.791 934.741,1904.272 1016.137,1909.627 1053.086 C 1918.422 1113.777,1921.530 1221.313,1916.329 1284.964 C 1909.713 1365.937,1901.747 1401.634,1865.220 1514.000 C 1842.342 1584.381,1841.183 1604.563,1858.638 1628.659 C 1886.791 1667.523,1939.534 1674.778,1979.097 1645.227 C 2014.205 1619.005,2079.058 1432.143,2092.316 1319.012 C 2095.257 1293.919,2096.157 1239.033,2094.842 1165.012 C 2093.000 1061.321,2091.816 1045.646,2082.816 1005.766 C 2058.733 899.058,2020.423 791.280,1996.741 763.614 C 1981.537 745.851,1948.570 727.896,1932.000 728.355 C 1926.500 728.507,1916.600 730.564,1910.000 732.926 M1613.393 1022.205 C 1585.313 1036.491,1462.598 1161.893,1449.196 1189.997 C 1444.974 1198.850,1444.509 1204.818,1447.441 1212.529 C 1457.041 1237.779,1591.917 1371.457,1622.377 1385.911 C 1635.670 1392.219,1636.888 1392.113,1653.109 1383.239 C 1681.399 1367.765,1687.767 1349.427,1692.874 1268.721 C 1698.068 1186.651,1692.620 1079.708,1681.878 1052.861 C 1670.048 1023.296,1638.768 1009.294,1613.393 1022.205 M1195.032 1537.032 L 1288.001 1630.063 1194.000 1724.000 L 1100.000 1817.936 1100.000 1630.968 C 1100.000 1528.136,1100.464 1444.000,1101.032 1444.000 C 1101.599 1444.000,1143.900 1485.864,1195.032 1537.032 " fill="#1D1E23" stroke="none" fill-rule="evenodd"/></svg>