<svg viewBox="0 0 2400 2400" fill="none" xmlns="http://www.w3.org/2000/svg"><path d="M972.942 247.916 C 954.853 252.207,930.779 268.890,917.437 286.383 C 907.082 299.959,906.014 304.777,903.439 349.540 C 901.906 376.193,900.505 523.990,900.326 677.979 L 900.000 957.957 761.000 819.804 C 562.085 622.100,499.386 561.957,483.789 553.891 C 476.240 549.987,458.349 545.991,444.032 545.011 C 421.113 543.442,415.378 544.611,396.073 554.785 C 368.834 569.142,350.168 592.877,343.824 621.222 C 339.756 639.402,340.061 646.164,345.850 666.077 C 353.913 693.813,352.519 692.325,659.579 1000.737 L 857.445 1199.474 608.602 1450.132 C 469.604 1590.144,356.520 1707.237,352.421 1715.395 C 340.818 1738.485,338.832 1757.934,345.674 1781.470 C 363.345 1842.257,425.277 1873.517,480.030 1849.287 C 493.757 1843.212,545.956 1793.857,698.682 1642.549 L 899.303 1443.791 901.096 1760.896 C 902.446 1999.592,904.134 2082.195,907.923 2094.966 C 913.593 2114.078,934.012 2134.724,960.820 2148.450 C 984.436 2160.542,1016.140 2160.655,1040.607 2148.733 C 1072.392 2133.245,1477.582 1728.751,1513.768 1676.384 C 1522.639 1663.546,1525.958 1653.529,1527.247 1635.697 C 1530.401 1592.104,1528.680 1589.961,1325.528 1384.441 L 1143.214 1200.002 1316.200 1025.001 C 1411.342 928.751,1496.080 841.338,1504.506 830.751 C 1512.932 820.164,1521.859 803.964,1524.344 794.751 C 1529.676 774.984,1526.931 745.270,1518.215 728.416 C 1504.717 702.314,1211.946 405.472,1090.918 295.178 C 1035.066 244.280,1017.664 237.308,972.942 247.916 M1195.032 677.032 L 1288.001 770.063 1194.000 864.000 L 1100.000 957.936 1100.000 770.968 C 1100.000 668.136,1100.464 584.000,1101.032 584.000 C 1101.599 584.000,1143.900 625.864,1195.032 677.032 M1906.363 734.293 C 1881.883 743.262,1865.533 758.069,1853.937 781.771 C 1840.980 808.255,1841.320 810.471,1873.968 912.250 C 1909.859 1024.140,1916.353 1061.485,1918.859 1170.395 C 1921.996 1306.714,1911.877 1376.155,1871.585 1494.820 C 1839.426 1589.533,1838.608 1602.757,1862.928 1634.799 C 1891.815 1672.857,1960.646 1673.204,1989.023 1635.435 C 2024.276 1588.516,2072.991 1445.292,2090.190 1338.000 C 2099.113 1282.337,2099.228 1101.956,2090.375 1047.390 C 2077.339 967.036,2042.372 849.406,2013.605 789.133 C 1999.127 758.799,1981.544 742.567,1952.403 732.634 C 1935.235 726.783,1925.948 727.117,1906.363 734.293 M1609.742 1023.505 C 1592.214 1034.194,1528.969 1095.078,1485.687 1142.930 C 1441.724 1191.535,1438.170 1200.914,1454.493 1225.248 C 1474.299 1254.772,1596.099 1373.409,1616.972 1383.508 C 1635.726 1392.581,1636.114 1392.602,1650.919 1385.343 C 1687.200 1367.553,1694.000 1338.931,1694.000 1204.000 C 1694.000 1073.515,1687.742 1041.482,1658.806 1023.838 C 1642.688 1014.010,1625.503 1013.894,1609.742 1023.505 M1195.032 1537.032 L 1288.001 1630.063 1194.000 1724.000 L 1100.000 1817.936 1100.000 1630.968 C 1100.000 1528.136,1100.464 1444.000,1101.032 1444.000 C 1101.599 1444.000,1143.900 1485.864,1195.032 1537.032 " fill="#1D1E23" stroke="none" fill-rule="evenodd"/></svg>