<svg viewBox="0 0 2400 2400" fill="none" xmlns="http://www.w3.org/2000/svg"><path d="M1175.974 247.737 C 1158.658 253.005,1142.481 262.840,1128.409 276.656 C 1100.830 303.734,1102.330 284.147,1100.758 637.644 L 1099.337 957.289 976.668 835.237 C 793.218 652.710,700.783 565.083,682.390 556.267 C 673.375 551.947,656.583 547.191,645.074 545.700 C 627.163 543.380,620.982 544.538,602.177 553.738 C 563.132 572.841,535.683 617.239,541.897 651.238 C 548.407 686.846,560.903 700.494,887.801 1028.999 L 1057.964 1199.999 897.648 1360.999 C 664.533 1595.110,565.587 1697.868,553.631 1718.269 C 539.094 1743.074,539.059 1767.820,553.517 1797.371 C 578.085 1847.587,632.931 1869.817,678.194 1847.906 C 697.366 1838.625,782.739 1757.819,964.845 1576.591 C 1034.610 1507.162,1092.924 1451.591,1094.432 1453.099 C 1095.940 1454.607,1098.615 1589.527,1100.375 1752.921 C 1102.135 1916.314,1104.752 2061.700,1106.191 2076.000 C 1108.705 2100.986,1109.688 2102.880,1131.403 2124.572 C 1155.477 2148.620,1172.189 2155.937,1203.128 2155.978 C 1229.785 2156.012,1242.902 2148.234,1292.394 2103.041 C 1418.111 1988.246,1680.005 1721.810,1710.153 1678.036 C 1729.119 1650.498,1732.599 1625.500,1721.072 1599.598 C 1709.902 1574.494,1664.519 1525.157,1493.350 1352.031 L 1342.547 1199.503 1460.512 1080.752 C 1723.379 816.132,1731.740 806.166,1726.680 763.446 C 1725.360 752.300,1719.894 735.715,1714.533 726.590 C 1693.464 690.729,1357.696 351.491,1276.144 283.671 C 1232.283 247.195,1207.262 238.220,1175.974 247.737 M1395.032 677.032 L 1488.001 770.063 1394.000 864.000 L 1300.000 957.936 1300.000 770.968 C 1300.000 668.136,1300.464 584.000,1301.032 584.000 C 1301.599 584.000,1343.900 625.864,1395.032 677.032 M1395.032 1537.032 L 1488.001 1630.063 1394.000 1724.000 L 1300.000 1817.936 1300.000 1630.968 C 1300.000 1528.136,1300.464 1444.000,1301.032 1444.000 C 1301.599 1444.000,1343.900 1485.864,1395.032 1537.032 " fill="#1D1E23" stroke="none" fill-rule="evenodd"/></svg>