<svg viewBox="0 0 2400 2400" fill="none" xmlns="http://www.w3.org/2000/svg"><path d="M1181.306 244.440 C 1158.953 248.508,1143.207 257.094,1126.444 274.355 C 1099.141 302.468,1100.000 290.534,1100.000 641.658 L 1100.000 957.892 901.000 759.345 C 763.781 622.438,696.412 557.966,684.000 551.678 C 659.758 539.396,620.695 539.056,598.000 550.929 C 552.321 574.825,531.875 621.660,545.848 670.393 C 552.597 693.932,553.345 694.730,805.235 947.000 L 1057.854 1200.000 805.235 1453.000 C 553.345 1705.270,552.597 1706.068,545.848 1729.607 C 534.727 1768.393,544.105 1803.715,572.649 1830.552 C 601.243 1857.436,632.584 1865.000,670.393 1854.141 C 693.812 1847.415,695.620 1845.744,897.000 1644.770 L 1100.000 1442.180 1100.000 1758.587 C 1100.000 2101.460,1099.434 2092.060,1121.828 2121.419 C 1127.403 2128.729,1141.423 2139.908,1152.983 2146.262 C 1180.479 2161.375,1216.840 2162.518,1244.000 2149.122 C 1270.646 2135.981,1708.398 1696.894,1719.672 1672.000 C 1730.534 1648.016,1730.553 1612.059,1719.717 1588.000 C 1713.595 1574.408,1666.362 1524.690,1526.842 1384.979 L 1342.074 1199.958 1526.874 1014.979 C 1666.822 874.894,1713.633 825.631,1719.749 812.000 C 1730.528 787.974,1730.513 751.966,1719.713 728.000 C 1713.522 714.259,1658.407 656.854,1486.801 485.405 C 1342.157 340.894,1256.295 258.012,1246.000 252.963 C 1226.522 243.408,1203.581 240.386,1181.306 244.440 M1395.032 677.032 L 1488.001 770.063 1394.000 864.000 L 1300.000 957.936 1300.000 770.968 C 1300.000 668.136,1300.464 584.000,1301.032 584.000 C 1301.599 584.000,1343.900 625.864,1395.032 677.032 M1395.032 1537.032 L 1488.001 1630.063 1394.000 1724.000 L 1300.000 1817.936 1300.000 1630.968 C 1300.000 1528.136,1300.464 1444.000,1301.032 1444.000 C 1301.599 1444.000,1343.900 1485.864,1395.032 1537.032 " fill="#1D1E23" stroke="none" fill-rule="evenodd"/></svg>