<svg viewBox="0 0 2400 2400" fill="none" xmlns="http://www.w3.org/2000/svg"><path d="M1181.306 244.440 C 1158.953 248.508,1143.207 257.094,1126.444 274.355 C 1100.491 301.078,1100.000 305.296,1100.000 501.743 L 1100.000 678.060 1200.000 778.000 L 1300.000 877.940 1300.000 730.002 L 1300.000 582.064 1393.996 675.996 L 1487.992 769.929 1415.996 842.004 C 1376.398 881.645,1344.000 915.881,1344.000 918.082 C 1344.000 920.284,1375.065 953.113,1413.034 991.035 L 1482.068 1059.984 1596.867 944.992 C 1681.061 860.656,1713.820 825.201,1719.745 812.000 C 1730.528 787.975,1730.515 751.971,1719.713 728.000 C 1713.522 714.259,1658.407 656.854,1486.801 485.405 C 1342.157 340.894,1256.295 258.012,1246.000 252.963 C 1226.522 243.408,1203.581 240.386,1181.306 244.440 M518.000 443.550 C 499.346 448.387,483.147 458.099,469.448 472.659 C 442.579 501.216,435.007 532.566,445.840 570.393 L 452.601 594.000 755.234 896.994 L 1057.866 1199.988 805.241 1452.994 C 553.345 1705.270,552.597 1706.068,545.848 1729.607 C 534.727 1768.393,544.105 1803.715,572.649 1830.552 C 601.243 1857.436,632.584 1865.000,670.393 1854.141 C 693.812 1847.415,695.620 1845.744,897.000 1644.770 L 1100.000 1442.180 1100.000 1758.587 C 1100.000 2025.885,1100.907 2077.565,1105.845 2091.561 C 1123.973 2142.940,1180.560 2170.846,1232.477 2154.011 C 1252.655 2147.468,1265.746 2135.324,1442.000 1959.640 L 1630.000 1772.248 1718.000 1859.741 C 1802.304 1943.558,1806.991 1947.520,1829.607 1954.077 C 1869.771 1965.721,1904.920 1955.661,1933.113 1924.455 C 1950.637 1905.059,1962.059 1870.364,1958.066 1848.663 C 1950.604 1808.110,1968.923 1827.298,1273.157 1131.276 C 817.241 675.192,600.865 461.388,588.280 454.538 C 568.142 443.578,536.796 438.677,518.000 443.550 M1395.032 1537.032 L 1488.001 1630.063 1394.000 1724.000 L 1300.000 1817.936 1300.000 1630.968 C 1300.000 1528.136,1300.464 1444.000,1301.032 1444.000 C 1301.599 1444.000,1343.900 1485.864,1395.032 1537.032 " fill="#1D1E23" stroke="none" fill-rule="evenodd"/></svg>