<svg viewBox="0 0 2400 2400" fill="none" xmlns="http://www.w3.org/2000/svg"><path d="M1172.942 247.916 C 1154.853 252.207,1130.779 268.890,1117.437 286.383 C 1107.082 299.959,1106.014 304.777,1103.439 349.540 C 1101.906 376.193,1100.505 523.990,1100.326 677.979 L 1100.000 957.957 961.000 819.804 C 762.085 622.100,699.386 561.957,683.789 553.891 C 676.240 549.987,658.349 545.991,644.032 545.011 C 621.113 543.442,615.378 544.611,596.073 554.785 C 568.834 569.142,550.168 592.877,543.824 621.222 C 539.756 639.402,540.061 646.164,545.850 666.077 C 553.913 693.813,552.519 692.325,859.579 1000.737 L 1057.445 1199.474 808.602 1450.132 C 669.604 1590.144,556.520 1707.237,552.421 1715.395 C 540.818 1738.485,538.832 1757.934,545.674 1781.470 C 563.345 1842.257,625.277 1873.517,680.030 1849.287 C 693.757 1843.212,745.956 1793.857,898.682 1642.549 L 1099.303 1443.791 1101.096 1760.896 C 1102.446 1999.592,1104.134 2082.195,1107.923 2094.966 C 1113.593 2114.078,1134.012 2134.724,1160.820 2148.450 C 1184.436 2160.542,1216.140 2160.655,1240.607 2148.733 C 1272.392 2133.245,1677.582 1728.751,1713.768 1676.384 C 1722.639 1663.546,1725.958 1653.529,1727.247 1635.697 C 1730.401 1592.104,1728.680 1589.961,1525.528 1384.441 L 1343.214 1200.002 1516.200 1025.001 C 1611.342 928.751,1696.080 841.338,1704.506 830.751 C 1712.932 820.164,1721.859 803.964,1724.344 794.751 C 1729.676 774.984,1726.931 745.270,1718.215 728.416 C 1704.717 702.314,1411.946 405.472,1290.918 295.178 C 1235.066 244.280,1217.664 237.308,1172.942 247.916 M1395.032 677.032 L 1488.001 770.063 1394.000 864.000 L 1300.000 957.936 1300.000 770.968 C 1300.000 668.136,1300.464 584.000,1301.032 584.000 C 1301.599 584.000,1343.900 625.864,1395.032 677.032 M1395.032 1537.032 L 1488.001 1630.063 1394.000 1724.000 L 1300.000 1817.936 1300.000 1630.968 C 1300.000 1528.136,1300.464 1444.000,1301.032 1444.000 C 1301.599 1444.000,1343.900 1485.864,1395.032 1537.032 " fill="#1D1E23" stroke="none" fill-rule="evenodd"/></svg>