<svg viewBox="0 0 2400 2400" fill="none" xmlns="http://www.w3.org/2000/svg"><path d="M964.860 249.027 C 947.126 254.710,916.385 282.392,908.452 299.822 C 902.721 312.417,901.866 349.879,900.802 635.302 L 899.603 956.604 704.579 763.302 C 597.316 656.986,501.775 564.646,492.266 558.102 C 478.217 548.433,469.896 545.917,447.854 544.671 C 414.789 542.803,398.282 547.855,376.477 566.520 C 335.781 601.354,329.967 658.635,362.947 699.838 C 370.942 709.827,485.513 826.438,617.549 958.974 L 857.615 1199.947 613.543 1444.974 C 479.303 1579.738,364.634 1696.477,358.723 1704.394 C 320.450 1755.651,350.001 1835.567,414.120 1854.207 C 442.641 1862.498,473.781 1857.564,495.606 1841.295 C 503.523 1835.394,597.660 1743.319,704.801 1636.683 L 899.602 1442.801 900.801 1764.400 C 902.148 2125.816,899.898 2100.290,933.102 2130.799 C 970.615 2165.267,1021.850 2167.789,1059.511 2137.021 C 1088.372 2113.441,1352.765 1850.882,1439.889 1759.281 C 1522.571 1672.350,1528.000 1664.331,1528.000 1629.133 C 1528.000 1606.771,1521.146 1588.901,1504.554 1568.000 C 1496.695 1558.100,1412.057 1471.269,1316.469 1375.043 L 1142.673 1200.085 1322.336 1019.023 C 1421.151 919.439,1507.060 830.514,1513.244 821.413 C 1527.114 801.002,1531.433 768.548,1523.874 741.549 C 1517.732 719.613,1500.213 700.253,1340.257 538.647 C 1188.288 385.111,1053.240 256.110,1037.658 249.599 C 1022.248 243.161,984.104 242.861,964.860 249.027 M1195.032 677.032 L 1288.001 770.063 1194.000 864.000 L 1100.000 957.936 1100.000 770.968 C 1100.000 668.136,1100.464 584.000,1101.032 584.000 C 1101.599 584.000,1143.900 625.864,1195.032 677.032 M1907.036 733.692 C 1883.869 741.960,1872.504 750.927,1859.798 770.963 C 1839.308 803.273,1839.712 808.733,1869.059 895.907 C 1910.925 1020.267,1921.997 1085.054,1921.711 1204.000 C 1921.430 1320.525,1907.028 1399.174,1864.893 1514.280 C 1840.042 1582.170,1839.452 1603.293,1861.573 1633.255 C 1889.132 1670.585,1948.905 1675.642,1982.828 1643.513 C 2016.827 1611.312,2069.405 1462.013,2090.478 1337.828 C 2100.022 1281.585,2100.004 1102.983,2090.448 1046.279 C 2072.260 938.349,2027.080 799.770,1997.391 760.846 C 1985.537 745.305,1951.940 728.011,1934.000 728.215 C 1927.400 728.290,1915.266 730.754,1907.036 733.692 M1589.103 1039.402 C 1548.106 1074.801,1456.440 1170.806,1449.258 1185.867 C 1445.380 1193.998,1443.944 1203.234,1445.558 1209.663 C 1449.063 1223.628,1491.270 1270.999,1553.187 1330.461 C 1610.283 1385.292,1625.511 1394.841,1645.152 1388.130 C 1663.989 1381.694,1675.423 1370.642,1681.725 1352.780 C 1704.374 1288.584,1702.002 1090.415,1678.029 1044.056 C 1668.564 1025.752,1653.108 1016.000,1633.563 1016.000 C 1618.152 1016.000,1613.165 1018.625,1589.103 1039.402 M1195.032 1537.032 L 1288.001 1630.063 1194.000 1724.000 L 1100.000 1817.936 1100.000 1630.968 C 1100.000 1528.136,1100.464 1444.000,1101.032 1444.000 C 1101.599 1444.000,1143.900 1485.864,1195.032 1537.032 " fill="#1D1E23" stroke="none" fill-rule="evenodd"/></svg>