<svg viewBox="0 0 2400 2400" fill="none" xmlns="http://www.w3.org/2000/svg"><path d="M1176.697 248.393 C 1155.979 252.336,1125.016 273.604,1114.983 290.783 C 1103.260 310.854,1100.063 360.738,1100.030 524.030 L 1100.000 678.060 1200.000 778.000 L 1300.000 877.940 1300.000 730.002 L 1300.000 582.064 1393.996 675.996 L 1487.992 769.929 1415.438 842.563 L 1342.883 915.197 1351.170 926.598 C 1355.728 932.869,1387.160 965.560,1421.020 999.244 L 1482.583 1060.488 1572.291 969.001 C 1694.594 844.275,1715.444 820.448,1722.341 797.531 C 1736.151 751.644,1726.399 731.670,1651.034 651.477 C 1538.480 531.713,1256.339 258.841,1238.158 252.167 C 1223.581 246.815,1194.401 245.023,1176.697 248.393 M515.974 447.737 C 498.137 453.163,482.279 463.021,469.448 476.659 C 443.061 504.705,436.390 530.694,445.940 568.249 L 452.488 594.000 755.230 896.996 L 1057.973 1199.993 885.595 1372.996 C 790.787 1468.148,676.933 1583.619,632.586 1629.598 C 561.367 1703.436,551.254 1715.556,545.950 1733.417 C 539.208 1756.120,541.035 1773.248,552.934 1798.883 C 561.936 1818.276,586.741 1842.211,606.313 1850.389 C 624.378 1857.937,661.638 1857.496,678.412 1849.536 C 695.201 1841.570,775.376 1765.247,958.885 1582.541 L 1099.770 1442.272 1100.885 1764.136 L 1102.000 2086.000 1113.089 2104.864 C 1139.342 2149.524,1197.401 2169.732,1238.791 2148.617 C 1257.162 2139.245,1335.981 2064.591,1504.024 1897.403 C 1571.137 1830.631,1627.865 1776.000,1630.086 1776.000 C 1632.308 1776.000,1655.697 1797.784,1682.063 1824.409 C 1745.554 1888.525,1801.702 1938.665,1821.079 1948.550 C 1853.192 1964.933,1896.215 1956.796,1925.477 1928.805 C 1955.070 1900.497,1964.024 1860.056,1948.344 1825.528 C 1936.482 1799.407,1810.663 1670.460,1244.106 1103.781 C 707.886 567.446,604.308 466.672,574.383 452.186 C 557.281 443.907,534.317 442.158,515.974 447.737 M1395.032 1537.032 L 1488.001 1630.063 1394.000 1724.000 L 1300.000 1817.936 1300.000 1630.968 C 1300.000 1528.136,1300.464 1444.000,1301.032 1444.000 C 1301.599 1444.000,1343.900 1485.864,1395.032 1537.032 " fill="#1D1E23" stroke="none" fill-rule="evenodd"/></svg>