<svg viewBox="0 0 2400 2400" fill="none" xmlns="http://www.w3.org/2000/svg"><path d="M900.000 578.987 L 900.000 957.974 670.986 728.986 L 441.973 499.999 370.985 570.987 L 299.997 641.975 578.988 920.988 L 857.979 1200.000 578.988 1479.012 L 299.997 1758.025 370.985 1829.013 L 441.973 1900.001 670.986 1671.014 L 900.000 1442.026 900.000 1821.013 L 900.000 2200.000 950.990 2200.000 L 1001.979 2200.000 1286.988 1915.012 L 1571.997 1630.024 1357.012 1415.012 L 1142.028 1200.000 1357.012 984.988 L 1571.997 769.976 1286.988 484.988 L 1001.979 200.000 950.990 200.000 L 900.000 200.000 900.000 578.987 M1195.032 677.032 L 1288.001 770.063 1194.000 864.000 L 1100.000 957.936 1100.000 770.968 C 1100.000 668.136,1100.464 584.000,1101.032 584.000 C 1101.599 584.000,1143.900 625.864,1195.032 677.032 M1887.489 739.000 L 1827.527 798.000 1841.389 828.000 C 1867.960 885.506,1897.585 979.186,1910.327 1046.000 C 1915.752 1074.445,1917.277 1106.345,1917.596 1198.000 C 1917.966 1304.188,1917.221 1317.844,1908.793 1359.451 C 1896.103 1422.097,1876.669 1484.299,1849.991 1547.665 L 1827.421 1601.275 1866.710 1640.924 C 1888.320 1662.730,1914.632 1687.880,1925.183 1696.812 L 1944.366 1713.051 1954.256 1703.760 C 1966.412 1692.340,2005.717 1615.962,2027.208 1562.000 C 2084.073 1419.214,2104.529 1290.961,2095.863 1131.556 C 2087.523 978.161,2054.649 864.267,1972.742 705.000 C 1965.321 690.571,1957.256 680.000,1953.668 680.000 C 1950.248 680.000,1920.468 706.550,1887.489 739.000 M1539.752 1086.247 L 1423.677 1202.000 1538.250 1315.878 C 1640.855 1417.860,1653.356 1429.027,1657.924 1422.780 C 1664.245 1414.136,1685.989 1332.433,1692.730 1292.000 C 1699.976 1248.531,1698.855 1141.982,1690.684 1097.669 C 1684.215 1062.582,1661.435 976.102,1657.670 972.337 C 1656.657 971.323,1603.594 1022.583,1539.752 1086.247 M1195.032 1537.032 L 1288.001 1630.063 1194.000 1724.000 L 1100.000 1817.936 1100.000 1630.968 C 1100.000 1528.136,1100.464 1444.000,1101.032 1444.000 C 1101.599 1444.000,1143.900 1485.864,1195.032 1537.032 " fill="#1D1E23" stroke="none" fill-rule="evenodd"/></svg>