<svg viewBox="0 0 2400 2400" fill="none" xmlns="http://www.w3.org/2000/svg"><path d="M1153.420 160.047 C 1111.559 168.612,1076.346 196.482,947.579 322.968 L 869.157 400.000 803.579 400.027 C 767.510 400.042,693.900 401.914,640.000 404.188 L 542.000 408.322 512.497 425.161 C 460.130 455.050,429.476 491.158,409.314 546.704 C 400.191 571.839,400.000 575.400,400.000 720.713 L 400.000 869.062 320.588 949.992 C 225.545 1046.850,178.976 1099.542,168.252 1122.357 C 152.101 1156.718,150.844 1225.554,165.610 1267.044 C 168.946 1276.418,177.086 1291.950,183.697 1301.560 C 197.996 1322.342,288.540 1419.535,353.597 1483.935 L 400.000 1529.870 400.069 1653.935 C 400.157 1811.270,403.339 1844.549,421.913 1882.407 C 440.663 1920.622,479.378 1959.337,517.593 1978.087 C 555.452 1996.662,588.730 1999.843,746.094 1999.931 L 870.188 2000.000 902.094 2032.418 C 988.140 2119.844,1087.851 2210.806,1111.397 2223.356 C 1158.762 2248.601,1212.077 2253.176,1261.352 2236.223 C 1303.474 2221.731,1334.298 2196.520,1457.963 2075.414 L 1534.125 2000.828 1682.062 1999.021 C 1838.534 1997.110,1848.788 1995.958,1888.278 1975.846 C 1923.036 1958.144,1967.303 1909.926,1983.621 1871.994 C 1996.376 1842.346,1999.687 1797.458,1999.857 1651.917 L 2000.000 1529.833 2036.416 1493.917 C 2110.481 1420.868,2210.390 1312.382,2223.014 1291.299 C 2233.033 1274.567,2237.031 1261.790,2240.386 1235.782 C 2245.869 1193.268,2242.158 1143.114,2231.964 1121.983 C 2221.266 1099.806,2172.807 1045.171,2079.412 949.992 L 2000.000 869.062 2000.000 720.713 C 2000.000 575.400,1999.809 571.839,1990.686 546.704 C 1970.524 491.158,1939.870 455.050,1887.503 425.161 L 1858.000 408.322 1760.000 404.188 C 1706.100 401.914,1632.576 400.042,1596.614 400.027 L 1531.229 400.000 1438.614 309.566 C 1334.580 207.981,1294.104 175.008,1262.841 166.377 C 1236.593 159.130,1175.245 155.581,1153.420 160.047 M1356.483 623.612 C 1451.162 647.827,1541.878 702.165,1624.248 784.000 C 1681.357 840.738,1715.462 892.465,1752.157 978.000 C 1788.871 1063.577,1790.032 1070.371,1789.769 1198.000 C 1789.557 1300.862,1788.809 1312.718,1780.605 1343.309 C 1735.702 1510.741,1614.059 1662.137,1466.728 1733.955 C 1372.035 1780.114,1294.693 1797.797,1261.774 1780.815 C 1241.057 1770.128,1217.077 1745.007,1211.140 1727.772 C 1207.608 1717.516,1206.034 1582.810,1204.976 1200.157 C 1204.195 917.544,1204.515 682.494,1205.687 677.824 C 1209.159 663.990,1240.437 631.421,1257.845 623.514 C 1279.176 613.825,1318.367 613.864,1356.483 623.612 " fill="#1D1E23" stroke="none" fill-rule="evenodd"/></svg>