<svg viewBox="0 0 2400 2400" fill="none" xmlns="http://www.w3.org/2000/svg"><path d="M1034.000 236.000 L 870.037 400.000 635.018 400.000 L 400.000 400.000 400.000 634.982 L 400.000 869.964 235.018 1034.982 L 70.036 1200.000 235.018 1365.018 L 400.000 1530.036 400.000 1765.018 L 400.000 2000.000 634.982 2000.000 L 869.964 2000.000 1034.982 2164.982 L 1200.000 2329.964 1365.018 2164.982 L 1530.036 2000.000 1765.018 2000.000 L 2000.000 2000.000 2000.000 1765.018 L 2000.000 1530.036 2164.982 1365.018 L 2329.964 1200.000 2164.982 1034.982 L 2000.000 869.964 2000.000 634.982 L 2000.000 400.000 1764.982 400.000 L 1529.963 400.000 1366.000 236.000 C 1275.820 145.800,1201.120 72.000,1200.000 72.000 C 1198.880 72.000,1124.180 145.800,1034.000 236.000 M1263.158 604.226 C 1465.695 626.261,1636.708 743.340,1732.198 925.339 C 1784.414 1024.861,1807.127 1139.642,1796.679 1251.196 C 1781.773 1410.344,1715.302 1542.007,1595.292 1650.095 C 1500.725 1735.267,1369.357 1790.104,1239.497 1798.614 L 1200.000 1801.203 1200.000 1200.601 L 1200.000 600.000 1212.158 600.000 C 1218.844 600.000,1241.794 601.902,1263.158 604.226 " fill="#1D1E23" stroke="none" fill-rule="evenodd"/></svg>