<svg viewBox="0 0 2400 2400" fill="none" xmlns="http://www.w3.org/2000/svg"><path d="M1139.636 163.315 C 1127.335 167.399,1109.204 176.292,1099.343 183.076 C 1077.112 198.372,986.536 282.498,920.060 349.594 L 870.120 400.000 792.060 400.121 C 749.127 400.187,675.594 401.908,628.653 403.944 L 543.307 407.647 516.653 422.238 C 462.801 451.718,430.728 487.102,412.808 536.804 L 402.281 566.000 400.768 717.886 L 399.254 869.772 313.640 957.009 C 216.765 1055.721,179.887 1097.445,168.229 1121.527 C 149.296 1160.637,149.628 1234.642,168.924 1276.755 C 182.438 1306.249,207.235 1334.825,310.443 1439.836 L 400.000 1530.959 400.174 1652.480 C 400.408 1815.212,403.146 1846.140,420.497 1882.053 C 438.803 1919.942,480.007 1961.172,517.824 1979.443 C 554.038 1996.939,584.497 1999.671,745.411 1999.857 L 868.822 2000.000 961.411 2090.636 C 1012.335 2140.486,1065.427 2190.743,1079.393 2202.319 C 1137.354 2250.357,1216.350 2260.403,1282.251 2228.117 C 1313.875 2212.624,1348.845 2182.410,1451.029 2082.292 L 1535.018 2000.000 1656.509 1999.857 C 1819.388 1999.666,1846.076 1997.098,1884.077 1977.961 C 1922.339 1958.693,1957.055 1924.009,1977.597 1884.530 C 1991.100 1858.577,1993.332 1850.221,1996.291 1814.530 C 1998.139 1792.238,1999.730 1719.383,1999.826 1652.630 L 2000.000 1531.259 2092.520 1436.630 C 2241.582 1284.169,2241.575 1284.180,2241.839 1196.000 C 2241.984 1147.259,2241.090 1140.170,2232.658 1123.210 C 2219.492 1096.727,2184.799 1057.315,2086.360 957.009 L 2000.746 869.772 1999.232 717.886 L 1997.719 566.000 1987.192 536.804 C 1969.272 487.102,1937.199 451.718,1883.347 422.238 L 1856.693 407.647 1771.347 403.944 C 1724.406 401.908,1651.160 400.187,1608.577 400.121 L 1531.153 400.000 1435.179 306.021 C 1294.735 168.497,1282.904 160.902,1204.000 157.630 C 1170.361 156.235,1157.548 157.367,1139.636 163.315 M1333.719 618.096 C 1362.336 621.884,1418.115 640.974,1456.584 660.146 C 1537.414 700.431,1624.953 772.857,1678.308 843.591 C 1725.006 905.500,1775.884 1017.997,1787.818 1085.735 C 1794.485 1123.574,1793.082 1292.833,1785.843 1324.000 C 1760.864 1431.545,1704.133 1536.553,1629.096 1614.141 C 1565.556 1679.840,1498.514 1725.215,1420.576 1755.268 C 1304.774 1799.923,1270.365 1800.152,1230.953 1756.529 C 1201.635 1724.076,1204.000 1773.186,1204.000 1196.903 L 1204.000 677.408 1217.555 658.343 C 1225.010 647.858,1237.252 634.908,1244.759 629.566 C 1259.254 619.253,1287.427 611.918,1304.000 614.143 C 1309.500 614.881,1322.874 616.660,1333.719 618.096 " fill="#1D1E23" stroke="none" fill-rule="evenodd"/></svg>