<svg viewBox="0 0 2400 2400" fill="none" xmlns="http://www.w3.org/2000/svg"><path d="M1174.000 154.315 C 1169.600 155.285,1156.671 157.963,1145.270 160.266 C 1110.445 167.300,1081.065 190.717,972.452 298.012 L 869.211 400.000 765.606 400.318 C 708.623 400.494,635.700 401.861,603.557 403.357 C 545.903 406.040,544.699 406.287,514.486 421.622 C 464.988 446.746,432.024 482.802,411.744 534.000 C 402.403 557.583,402.215 560.708,400.910 714.000 L 399.581 870.000 318.494 952.000 C 177.366 1094.716,169.404 1104.684,158.042 1152.874 C 150.417 1185.218,150.443 1216.256,158.122 1246.160 C 171.005 1296.332,178.370 1305.962,292.428 1421.775 L 400.000 1531.002 400.023 1670.501 C 400.036 1747.226,401.801 1820.800,403.946 1834.000 C 409.666 1869.206,432.628 1912.628,460.000 1940.000 C 487.372 1967.372,530.794 1990.334,566.000 1996.054 C 579.200 1998.199,652.796 1999.964,729.547 1999.977 L 869.094 2000.000 967.596 2097.000 C 1021.772 2150.350,1074.640 2200.979,1085.081 2209.508 C 1123.740 2241.091,1191.589 2255.063,1245.085 2242.458 C 1297.810 2230.034,1314.284 2217.357,1444.379 2089.101 L 1534.758 2000.000 1672.379 1999.977 C 1748.071 1999.964,1820.800 1998.199,1834.000 1996.054 C 1869.206 1990.334,1912.628 1967.372,1940.000 1940.000 C 1967.372 1912.628,1990.334 1869.206,1996.054 1834.000 C 1998.199 1820.800,1999.964 1747.223,1999.977 1670.495 L 2000.000 1530.990 2098.090 1431.263 C 2152.040 1376.413,2203.179 1322.682,2211.733 1311.860 C 2234.561 1282.981,2245.641 1246.641,2245.839 1200.000 C 2246.027 1155.623,2238.667 1127.465,2219.156 1097.922 C 2211.920 1086.965,2159.783 1031.140,2103.296 973.866 L 2000.592 869.731 1999.177 713.866 C 1997.788 560.819,1997.590 557.566,1988.256 534.000 C 1967.976 482.802,1935.012 446.746,1885.514 421.622 C 1855.301 406.287,1854.097 406.040,1796.443 403.357 C 1764.300 401.861,1691.388 400.494,1634.419 400.318 L 1530.838 400.000 1436.419 306.946 C 1318.149 190.387,1299.346 174.590,1266.958 164.587 C 1241.911 156.851,1189.010 151.005,1174.000 154.315 M1350.360 620.035 C 1503.937 659.038,1642.072 766.458,1723.236 910.000 C 1757.202 970.069,1783.162 1044.279,1791.710 1105.737 C 1797.236 1145.469,1797.236 1254.531,1791.710 1294.263 C 1783.192 1355.507,1754.935 1435.877,1721.485 1494.000 C 1663.235 1595.216,1566.753 1686.937,1465.410 1737.440 C 1428.716 1755.726,1350.920 1782.561,1317.964 1788.300 C 1296.512 1792.036,1289.167 1791.702,1272.739 1786.245 C 1247.271 1777.786,1223.076 1756.796,1211.352 1732.989 L 1202.000 1714.000 1202.186 1197.741 L 1202.371 681.482 1213.107 663.163 C 1241.427 614.838,1280.970 602.413,1350.360 620.035 " fill="#1D1E23" stroke="none" fill-rule="evenodd"/></svg>