<svg viewBox="0 0 2400 2400" fill="none" xmlns="http://www.w3.org/2000/svg"><path d="M1034.000 236.000 L 870.037 400.000 635.018 400.000 L 400.000 400.000 400.000 634.982 L 400.000 869.964 235.018 1034.982 L 70.036 1200.000 235.018 1365.018 L 400.000 1530.036 400.000 1765.018 L 400.000 2000.000 634.982 2000.000 L 869.964 2000.000 1034.982 2164.982 L 1200.000 2329.964 1365.018 2164.982 L 1530.036 2000.000 1765.018 2000.000 L 2000.000 2000.000 2000.000 1765.018 L 2000.000 1530.036 2164.982 1365.018 L 2329.964 1200.000 2164.982 1034.982 L 2000.000 869.964 2000.000 634.982 L 2000.000 400.000 1764.982 400.000 L 1529.963 400.000 1366.000 236.000 C 1275.820 145.800,1201.120 72.000,1200.000 72.000 C 1198.880 72.000,1124.180 145.800,1034.000 236.000 M1268.365 605.714 C 1412.262 623.564,1533.603 683.721,1630.808 785.399 C 1770.171 931.175,1826.829 1132.403,1783.947 1329.289 C 1772.176 1383.336,1761.900 1412.498,1735.773 1466.000 C 1643.603 1654.748,1448.906 1784.635,1237.000 1798.743 L 1200.000 1801.207 1200.000 1200.603 L 1200.000 600.000 1211.152 600.000 C 1217.286 600.000,1243.032 602.571,1268.365 605.714 " fill="#1D1E23" stroke="none" fill-rule="evenodd"/></svg>