<svg viewBox="0 0 2400 2400" fill="none" xmlns="http://www.w3.org/2000/svg"><path d="M1806.730 408.206 C 1776.344 415.730,1738.780 448.858,1714.250 489.765 L 1700.000 513.529 1700.000 1198.898 L 1700.000 1884.266 1710.514 1905.015 C 1725.059 1933.718,1764.601 1973.811,1790.403 1986.017 C 1808.350 1994.508,1817.260 1996.000,1850.000 1996.000 C 1882.740 1996.000,1891.650 1994.508,1909.597 1986.017 C 1935.399 1973.811,1974.941 1933.718,1989.486 1905.015 L 2000.000 1884.266 1999.962 1199.133 L 1999.925 514.000 1987.356 492.000 C 1980.443 479.900,1963.411 458.815,1949.507 445.145 C 1929.664 425.635,1919.687 419.017,1903.114 414.373 C 1875.424 406.615,1825.943 403.448,1806.730 408.206 M1206.730 908.206 C 1176.344 915.730,1138.780 948.858,1114.250 989.765 L 1100.000 1013.529 1100.000 1448.898 L 1100.000 1884.266 1110.514 1905.015 C 1125.059 1933.718,1164.601 1973.811,1190.403 1986.017 C 1208.350 1994.508,1217.260 1996.000,1250.000 1996.000 C 1282.740 1996.000,1291.650 1994.508,1309.597 1986.017 C 1335.399 1973.811,1374.941 1933.718,1389.486 1905.015 L 1400.000 1884.266 1399.962 1449.133 L 1399.925 1014.000 1387.356 992.000 C 1380.443 979.900,1363.411 958.815,1349.507 945.145 C 1329.664 925.635,1319.687 919.017,1303.114 914.373 C 1275.424 906.615,1225.943 903.448,1206.730 908.206 M606.730 1408.206 C 576.344 1415.730,538.780 1448.858,514.250 1489.765 L 500.000 1513.529 500.000 1698.898 L 500.000 1884.266 510.514 1905.015 C 525.059 1933.718,564.601 1973.811,590.403 1986.017 C 608.350 1994.508,617.260 1996.000,650.000 1996.000 C 682.740 1996.000,691.650 1994.508,709.597 1986.017 C 735.399 1973.811,774.941 1933.718,789.486 1905.015 L 800.000 1884.266 799.962 1699.133 L 799.925 1514.000 787.356 1492.000 C 780.443 1479.900,763.411 1458.815,749.507 1445.145 C 729.664 1425.635,719.687 1419.017,703.114 1414.373 C 675.424 1406.615,625.943 1403.448,606.730 1408.206 " fill="#1D1E23" stroke="none" fill-rule="evenodd"/></svg>