<svg viewBox="0 0 2400 2400" fill="none" xmlns="http://www.w3.org/2000/svg"><path d="M1788.000 415.518 C 1764.478 428.412,1737.315 454.946,1718.196 483.706 L 1700.000 511.076 1700.038 1198.538 L 1700.075 1886.000 1712.644 1908.000 C 1727.789 1934.508,1768.336 1975.349,1790.165 1986.082 C 1801.630 1991.720,1816.716 1994.264,1844.833 1995.304 C 1879.735 1996.594,1885.929 1995.703,1906.015 1986.508 C 1932.909 1974.195,1969.777 1938.578,1987.348 1907.935 L 1999.925 1886.000 1999.925 1200.000 L 1999.925 514.000 1988.369 493.853 C 1972.455 466.109,1934.669 428.751,1912.458 418.804 C 1885.208 406.599,1807.989 404.560,1788.000 415.518 M1188.000 915.518 C 1164.478 928.412,1137.315 954.946,1118.196 983.706 L 1100.000 1011.076 1100.038 1448.538 L 1100.075 1886.000 1112.644 1908.000 C 1127.789 1934.508,1168.336 1975.349,1190.165 1986.082 C 1201.630 1991.720,1216.716 1994.264,1244.833 1995.304 C 1279.735 1996.594,1285.929 1995.703,1306.015 1986.508 C 1332.909 1974.195,1369.777 1938.578,1387.348 1907.935 L 1399.925 1886.000 1399.925 1450.000 L 1399.925 1014.000 1388.369 993.853 C 1372.455 966.109,1334.669 928.751,1312.458 918.804 C 1285.208 906.599,1207.989 904.560,1188.000 915.518 M588.000 1415.518 C 564.478 1428.412,537.315 1454.946,518.196 1483.706 L 500.000 1511.076 500.038 1698.538 L 500.075 1886.000 512.644 1908.000 C 527.789 1934.508,568.336 1975.349,590.165 1986.082 C 601.630 1991.720,616.716 1994.264,644.833 1995.304 C 679.735 1996.594,685.929 1995.703,706.015 1986.508 C 732.909 1974.195,769.777 1938.578,787.348 1907.935 L 799.925 1886.000 799.925 1700.000 L 799.925 1514.000 788.369 1493.853 C 772.455 1466.109,734.669 1428.751,712.458 1418.804 C 685.208 1406.599,607.989 1404.560,588.000 1415.518 " fill="#1D1E23" stroke="none" fill-rule="evenodd"/></svg>