<svg viewBox="0 0 2400 2400" fill="none" xmlns="http://www.w3.org/2000/svg"><path d="M1814.984 404.088 C 1771.735 415.014,1734.235 446.291,1714.378 488.000 L 1702.000 514.000 1702.000 1200.000 L 1702.000 1886.000 1714.378 1912.000 C 1730.110 1945.044,1754.956 1969.890,1788.000 1985.622 C 1811.094 1996.617,1818.023 1998.000,1850.000 1998.000 C 1881.977 1998.000,1888.906 1996.617,1912.000 1985.622 C 1945.044 1969.890,1969.890 1945.044,1985.622 1912.000 L 1998.000 1886.000 1998.000 1200.000 L 1998.000 514.000 1985.566 488.000 C 1961.046 436.727,1914.188 404.789,1859.175 401.852 C 1843.129 400.996,1823.243 402.002,1814.984 404.088 M1214.984 904.088 C 1171.735 915.014,1134.235 946.291,1114.378 988.000 L 1102.000 1014.000 1102.000 1450.000 L 1102.000 1886.000 1114.378 1912.000 C 1130.110 1945.044,1154.956 1969.890,1188.000 1985.622 C 1211.094 1996.617,1218.023 1998.000,1250.000 1998.000 C 1281.977 1998.000,1288.906 1996.617,1312.000 1985.622 C 1345.044 1969.890,1369.890 1945.044,1385.622 1912.000 L 1398.000 1886.000 1398.000 1450.000 L 1398.000 1014.000 1385.566 988.000 C 1361.046 936.727,1314.188 904.789,1259.175 901.852 C 1243.129 900.996,1223.243 902.002,1214.984 904.088 M614.984 1404.088 C 571.735 1415.014,534.235 1446.291,514.378 1488.000 L 502.000 1514.000 502.000 1700.000 L 502.000 1886.000 514.378 1912.000 C 530.110 1945.044,554.956 1969.890,588.000 1985.622 C 611.094 1996.617,618.023 1998.000,650.000 1998.000 C 681.977 1998.000,688.906 1996.617,712.000 1985.622 C 745.044 1969.890,769.890 1945.044,785.622 1912.000 L 798.000 1886.000 798.000 1700.000 L 798.000 1514.000 785.566 1488.000 C 761.046 1436.727,714.188 1404.789,659.175 1401.852 C 643.129 1400.996,623.243 1402.002,614.984 1404.088 " fill="#1D1E23" stroke="none" fill-rule="evenodd"/></svg>