<svg viewBox="0 0 2400 2400" fill="none" xmlns="http://www.w3.org/2000/svg"><path d="M1788.857 413.698 C 1760.066 427.406,1726.565 461.859,1711.915 492.827 L 1700.006 518.000 1700.003 1200.463 L 1700.000 1882.925 1714.005 1910.920 C 1730.795 1944.480,1758.886 1972.235,1791.128 1987.117 C 1810.482 1996.051,1819.537 1997.675,1850.000 1997.675 C 1880.463 1997.675,1889.518 1996.051,1908.872 1987.117 C 1941.114 1972.235,1969.205 1944.480,1985.995 1910.920 L 2000.000 1882.925 2000.000 1200.101 L 2000.000 517.278 1987.216 491.639 C 1971.797 460.715,1941.206 429.150,1914.000 416.091 C 1897.731 408.282,1886.164 406.224,1852.000 405.061 C 1813.745 403.758,1808.115 404.528,1788.857 413.698 M1188.857 913.698 C 1160.066 927.406,1126.565 961.859,1111.915 992.827 L 1100.006 1018.000 1100.003 1450.463 L 1100.000 1882.925 1114.005 1910.920 C 1130.795 1944.480,1158.886 1972.235,1191.128 1987.117 C 1210.482 1996.051,1219.537 1997.675,1250.000 1997.675 C 1280.463 1997.675,1289.518 1996.051,1308.872 1987.117 C 1341.114 1972.235,1369.205 1944.480,1385.995 1910.920 L 1400.000 1882.925 1400.000 1450.101 L 1400.000 1017.278 1387.216 991.639 C 1371.797 960.715,1341.206 929.150,1314.000 916.091 C 1297.731 908.282,1286.164 906.224,1252.000 905.061 C 1213.745 903.758,1208.115 904.528,1188.857 913.698 M588.857 1413.698 C 560.066 1427.406,526.565 1461.859,511.915 1492.827 L 500.006 1518.000 500.003 1700.463 L 500.000 1882.925 514.005 1910.920 C 530.795 1944.480,558.886 1972.235,591.128 1987.117 C 610.482 1996.051,619.537 1997.675,650.000 1997.675 C 680.463 1997.675,689.518 1996.051,708.872 1987.117 C 741.114 1972.235,769.205 1944.480,785.995 1910.920 L 800.000 1882.925 800.000 1700.101 L 800.000 1517.278 787.216 1491.639 C 771.797 1460.715,741.206 1429.150,714.000 1416.091 C 697.731 1408.282,686.164 1406.224,652.000 1405.061 C 613.745 1403.758,608.115 1404.528,588.857 1413.698 " fill="#1D1E23" stroke="none" fill-rule="evenodd"/></svg>