<svg viewBox="0 0 2400 2400" fill="none" xmlns="http://www.w3.org/2000/svg"><path d="M1799.686 409.187 C 1769.714 420.492,1730.777 457.376,1712.382 491.889 L 1700.000 515.120 1700.000 1200.000 L 1700.000 1884.880 1713.000 1909.281 C 1730.062 1941.305,1760.399 1971.789,1789.155 1985.805 C 1809.558 1995.749,1816.791 1997.091,1850.000 1997.091 C 1883.209 1997.091,1890.442 1995.749,1910.845 1985.805 C 1939.601 1971.789,1969.938 1941.305,1987.000 1909.281 L 2000.000 1884.880 2000.000 1200.307 L 2000.000 515.734 1989.486 494.985 C 1974.921 466.243,1935.950 426.684,1912.086 416.418 C 1886.796 405.539,1820.641 401.283,1799.686 409.187 M1199.686 909.187 C 1169.714 920.492,1130.777 957.376,1112.382 991.889 L 1100.000 1015.120 1100.000 1450.000 L 1100.000 1884.880 1113.000 1909.281 C 1130.062 1941.305,1160.399 1971.789,1189.155 1985.805 C 1209.558 1995.749,1216.791 1997.091,1250.000 1997.091 C 1283.209 1997.091,1290.442 1995.749,1310.845 1985.805 C 1339.601 1971.789,1369.938 1941.305,1387.000 1909.281 L 1400.000 1884.880 1400.000 1450.307 L 1400.000 1015.734 1389.486 994.985 C 1374.921 966.243,1335.950 926.684,1312.086 916.418 C 1286.796 905.539,1220.641 901.283,1199.686 909.187 M599.686 1409.187 C 569.714 1420.492,530.777 1457.376,512.382 1491.889 L 500.000 1515.120 500.000 1700.000 L 500.000 1884.880 513.000 1909.281 C 530.062 1941.305,560.399 1971.789,589.155 1985.805 C 609.558 1995.749,616.791 1997.091,650.000 1997.091 C 683.209 1997.091,690.442 1995.749,710.845 1985.805 C 739.601 1971.789,769.938 1941.305,787.000 1909.281 L 800.000 1884.880 800.000 1700.307 L 800.000 1515.734 789.486 1494.985 C 774.921 1466.243,735.950 1426.684,712.086 1416.418 C 686.796 1405.539,620.641 1401.283,599.686 1409.187 " fill="#1D1E23" stroke="none" fill-rule="evenodd"/></svg>