<svg viewBox="0 0 2400 2400" fill="none" xmlns="http://www.w3.org/2000/svg"><path d="M1016.000 203.969 C 977.500 205.805,931.991 210.249,914.869 213.843 C 803.960 237.125,698.156 320.562,644.434 427.110 C 622.634 470.346,608.683 518.503,604.170 566.091 C 601.743 591.693,600.005 726.997,600.003 890.613 L 600.000 1171.226 614.279 1212.248 C 641.535 1290.554,671.260 1340.847,718.959 1389.363 C 764.875 1436.067,813.644 1466.302,892.000 1496.645 L 926.000 1509.812 1169.000 1511.157 L 1412.000 1512.502 1412.000 1418.574 L 1412.000 1324.645 1191.000 1323.014 C 997.614 1321.587,967.029 1320.528,946.221 1314.539 C 892.328 1299.029,847.412 1261.075,815.000 1203.658 L 796.000 1170.000 796.000 856.000 L 796.000 542.000 814.903 508.532 C 838.740 466.327,866.118 438.858,907.822 415.304 C 937.874 398.331,943.446 396.612,975.290 394.480 C 1112.626 385.289,1345.708 389.398,1386.296 401.727 C 1435.488 416.669,1486.883 462.383,1512.412 513.902 C 1528.292 545.951,1528.357 546.273,1532.027 612.028 C 1534.052 648.313,1535.775 696.914,1535.855 720.032 L 1536.000 762.064 1630.000 856.000 L 1724.000 949.936 1724.000 745.149 L 1724.000 540.362 1708.580 497.181 C 1700.099 473.432,1687.253 442.300,1680.033 428.000 C 1636.881 342.536,1567.194 276.002,1481.392 238.346 C 1440.059 220.206,1412.623 213.356,1360.000 208.036 C 1302.838 202.258,1101.716 199.880,1016.000 203.969 M912.000 980.988 L 912.000 1074.764 1123.000 1077.597 C 1239.050 1079.154,1346.403 1082.162,1361.563 1084.280 C 1405.290 1090.389,1452.533 1119.571,1487.812 1162.264 C 1514.279 1194.292,1523.352 1215.130,1527.897 1254.320 C 1534.284 1309.401,1537.388 1628.556,1532.690 1747.246 C 1528.572 1851.293,1528.391 1852.773,1516.823 1877.246 C 1490.447 1933.044,1445.278 1977.967,1397.623 1995.797 C 1359.066 2010.223,1306.460 2013.190,1130.000 2010.888 C 956.349 2008.623,953.907 2008.367,910.000 1987.848 C 881.302 1974.436,829.144 1920.858,812.800 1888.000 C 795.871 1853.967,792.790 1832.515,789.513 1725.838 L 786.774 1636.711 693.387 1543.388 L 600.000 1450.064 600.235 1608.032 C 600.557 1825.259,603.084 1862.319,621.371 1918.000 C 663.327 2045.754,761.715 2139.285,904.000 2186.676 L 938.000 2198.000 1155.757 2199.133 L 1373.513 2200.266 1417.757 2186.304 C 1569.973 2138.272,1655.434 2054.485,1710.155 1899.636 L 1724.868 1858.000 1722.502 1546.000 C 1719.931 1206.988,1720.223 1211.437,1696.479 1149.867 C 1671.875 1086.067,1619.543 1016.739,1563.345 973.496 C 1531.261 948.808,1481.752 923.295,1434.000 906.842 L 1394.000 893.061 1153.000 890.136 L 912.000 887.211 912.000 980.988 " fill="#1D1E23" stroke="none" fill-rule="evenodd"/></svg>