<svg viewBox="0 0 2400 2400" fill="none" xmlns="http://www.w3.org/2000/svg"><path d="M1002.000 204.305 C 920.773 207.928,887.536 215.491,830.000 243.443 C 782.035 266.746,750.832 289.667,713.319 329.159 C 667.403 377.496,638.561 426.565,618.777 490.000 C 600.568 548.387,599.274 576.878,600.699 888.000 L 602.027 1178.000 614.834 1214.692 C 642.763 1294.707,673.594 1346.277,722.227 1394.327 C 767.647 1439.201,820.115 1470.371,894.822 1496.860 L 930.000 1509.334 1171.000 1511.034 L 1412.000 1512.735 1412.000 1418.368 L 1412.000 1324.000 1217.000 1323.806 C 971.972 1323.562,954.339 1322.299,913.125 1302.043 C 869.813 1280.756,834.711 1244.762,811.417 1197.750 L 794.000 1162.599 794.000 855.996 L 794.000 549.393 811.457 514.166 C 835.013 466.630,866.451 435.101,913.581 411.747 L 948.225 394.581 1045.112 390.955 C 1154.113 386.876,1324.661 389.673,1364.000 396.186 C 1438.017 408.440,1508.857 475.833,1528.100 552.302 C 1530.549 562.036,1533.562 613.447,1534.794 666.549 L 1537.035 763.098 1630.517 856.517 L 1724.000 949.936 1724.000 747.016 L 1724.000 544.096 1711.571 505.048 C 1679.793 405.207,1628.225 331.009,1553.406 277.475 C 1519.343 253.102,1460.130 225.856,1419.826 216.010 C 1360.304 201.469,1179.267 196.398,1002.000 204.305 M912.000 980.959 L 912.000 1075.086 1131.000 1077.221 C 1266.258 1078.539,1357.648 1081.027,1370.000 1083.727 C 1414.306 1093.412,1467.463 1130.737,1497.199 1173.043 C 1525.830 1213.776,1528.539 1224.350,1532.282 1310.000 C 1536.548 1407.617,1536.554 1697.827,1532.291 1786.216 C 1529.130 1851.747,1528.497 1855.447,1516.211 1880.216 C 1490.019 1933.020,1455.786 1968.428,1409.305 1990.792 C 1369.021 2010.174,1329.953 2013.020,1132.000 2010.987 C 994.762 2009.578,966.332 2008.280,946.000 2002.493 C 890.670 1986.743,839.675 1942.779,812.033 1886.995 C 795.544 1853.719,795.073 1851.640,791.772 1797.464 C 789.913 1766.959,788.304 1718.586,788.196 1689.968 L 788.000 1637.936 693.737 1543.968 L 599.474 1450.000 601.085 1652.000 C 602.622 1844.544,603.106 1855.498,611.438 1886.000 C 628.255 1947.567,641.718 1977.540,672.880 2022.787 C 695.923 2056.247,747.873 2107.364,781.210 2129.379 C 816.244 2152.515,873.503 2178.128,916.000 2189.672 L 954.000 2199.994 1164.000 2199.952 L 1374.000 2199.909 1412.000 2188.396 C 1496.805 2162.702,1553.555 2130.721,1604.187 2080.089 C 1652.364 2031.912,1686.785 1972.427,1711.866 1894.000 L 1724.659 1854.000 1722.726 1546.000 C 1721.448 1342.480,1719.268 1230.108,1716.299 1214.736 C 1701.603 1138.645,1661.263 1065.321,1602.020 1007.016 C 1552.173 957.959,1501.751 928.101,1428.126 904.041 L 1393.485 892.721 1152.743 889.777 L 912.000 886.832 912.000 980.959 " fill="#1D1E23" stroke="none" fill-rule="evenodd"/></svg>