<svg viewBox="0 0 2400 2400" fill="none" xmlns="http://www.w3.org/2000/svg"><path d="M964.000 202.591 C 858.089 218.498,787.723 252.254,719.754 319.759 C 657.452 381.638,616.666 462.872,604.109 550.095 C 600.878 572.538,599.915 669.189,600.864 876.000 C 602.181 1163.283,602.410 1170.702,610.877 1200.747 C 654.545 1355.682,755.133 1457.276,908.000 1500.839 C 936.406 1508.935,948.413 1509.471,1133.981 1510.940 C 1357.283 1512.707,1355.533 1512.894,1384.097 1484.204 C 1435.379 1432.697,1412.455 1348.046,1341.923 1328.465 C 1331.426 1325.551,1266.653 1324.037,1151.840 1324.022 C 959.919 1323.998,952.780 1323.275,904.300 1298.975 C 852.943 1273.232,808.130 1214.897,794.150 1155.588 C 785.177 1117.523,785.177 594.477,794.150 556.412 C 812.678 477.808,877.808 412.678,956.412 394.150 C 994.121 385.261,1330.040 385.299,1367.788 394.197 C 1431.395 409.189,1485.277 451.501,1512.707 508.000 C 1532.875 549.540,1536.000 569.326,1536.000 655.471 C 1536.000 745.147,1540.060 764.060,1564.571 788.571 C 1585.102 809.102,1601.883 816.022,1630.872 815.912 C 1669.596 815.765,1703.380 793.696,1717.797 759.128 C 1727.497 735.872,1726.550 574.796,1716.426 526.000 C 1681.657 358.424,1548.312 231.528,1380.000 205.846 C 1350.527 201.348,1300.713 200.164,1158.000 200.568 C 1056.800 200.855,969.500 201.765,964.000 202.591 M964.888 898.236 C 922.565 919.468,903.386 963.917,916.864 1009.536 C 923.969 1033.581,956.724 1065.218,980.788 1071.278 C 993.759 1074.544,1052.598 1076.000,1171.574 1076.000 C 1280.207 1076.000,1351.418 1077.608,1364.803 1080.364 C 1421.391 1092.014,1483.657 1138.816,1510.663 1190.000 C 1536.297 1238.582,1536.000 1234.469,1536.000 1541.380 C 1536.000 1726.713,1534.543 1826.683,1531.636 1840.803 C 1519.657 1898.990,1472.402 1960.852,1420.000 1986.948 C 1369.715 2011.989,1364.993 2012.418,1153.326 2011.148 C 964.955 2010.018,961.598 2009.857,936.000 2000.743 C 883.792 1982.156,839.609 1944.206,814.461 1896.349 C 792.459 1854.480,788.130 1829.193,788.037 1742.000 C 787.992 1700.200,786.147 1659.488,783.936 1651.529 C 778.167 1630.761,764.441 1612.096,744.768 1598.270 C 721.148 1581.669,681.144 1578.860,654.186 1591.910 C 632.225 1602.541,610.948 1626.386,604.642 1647.434 C 597.722 1670.532,598.577 1818.827,605.871 1860.476 C 620.791 1945.670,659.045 2019.449,719.798 2080.202 C 780.551 2140.955,854.330 2179.209,939.524 2194.129 C 988.309 2202.673,1335.892 2202.626,1384.961 2194.069 C 1553.043 2164.758,1682.374 2039.444,1716.623 1872.709 C 1723.845 1837.549,1724.214 1817.997,1723.067 1530.709 C 1721.874 1231.970,1721.680 1225.398,1713.165 1195.298 C 1691.133 1117.417,1653.956 1054.039,1600.150 1002.632 C 1546.198 951.086,1492.421 920.682,1420.000 900.779 L 1382.000 890.335 1184.000 888.990 L 986.000 887.645 964.888 898.236 " fill="#1D1E23" stroke="none" fill-rule="evenodd"/></svg>