<svg viewBox="0 0 2400 2400" fill="none" xmlns="http://www.w3.org/2000/svg"><path d="M956.000 208.587 C 865.876 217.930,786.410 257.310,717.723 326.668 C 649.272 395.789,612.499 476.976,603.883 578.000 C 601.819 602.200,600.101 745.607,600.065 896.681 L 600.000 1171.363 612.375 1206.681 C 642.060 1291.403,673.953 1345.126,722.660 1392.451 C 771.071 1439.488,845.128 1483.124,902.000 1498.122 C 934.905 1506.800,1045.631 1511.660,1214.664 1511.845 L 1355.329 1512.000 1377.514 1487.484 C 1414.782 1446.302,1419.826 1415.013,1395.940 1373.190 C 1372.409 1331.988,1362.634 1330.149,1134.000 1323.899 C 1048.200 1321.554,968.135 1317.960,956.078 1315.913 C 903.216 1306.937,851.663 1265.257,814.142 1201.159 L 796.000 1170.167 796.000 856.000 L 796.000 541.833 813.554 511.845 C 823.209 495.351,839.527 472.493,849.816 461.049 C 871.444 436.994,917.917 406.809,944.000 399.875 C 987.017 388.439,1311.521 388.364,1371.048 399.776 C 1420.941 409.341,1474.465 449.577,1503.914 499.656 C 1524.762 535.109,1526.904 545.226,1533.899 641.275 C 1541.250 742.202,1542.569 750.887,1553.518 770.496 C 1564.439 790.056,1594.897 810.745,1617.834 814.184 C 1656.457 819.976,1709.608 786.446,1719.578 750.000 C 1724.893 730.572,1725.030 684.971,1720.053 591.315 C 1715.857 512.354,1711.746 495.358,1681.844 433.361 C 1640.031 346.668,1575.847 283.770,1486.490 241.920 C 1442.619 221.373,1409.880 212.914,1355.112 207.976 C 1303.859 203.355,1002.017 203.817,956.000 208.587 M959.479 902.436 C 923.163 932.776,907.298 967.684,915.679 998.808 C 921.143 1019.098,943.453 1048.538,962.101 1060.062 C 978.969 1070.488,1022.784 1073.600,1214.000 1077.959 C 1277.800 1079.413,1342.195 1082.267,1357.099 1084.301 C 1426.862 1093.821,1504.477 1160.723,1522.181 1226.596 C 1538.004 1285.471,1538.224 1818.017,1522.443 1862.744 C 1506.690 1907.392,1453.337 1968.957,1413.818 1988.088 C 1375.266 2006.751,1357.600 2008.803,1218.000 2010.834 C 1145.400 2011.891,1054.793 2010.911,1016.652 2008.656 C 949.852 2004.708,946.250 2004.053,918.652 1990.829 C 888.561 1976.412,861.542 1953.009,832.531 1916.237 C 799.341 1874.167,797.353 1867.339,792.260 1777.936 C 784.941 1649.444,778.720 1626.094,745.618 1602.854 C 726.160 1589.193,691.640 1584.503,664.528 1591.836 C 640.096 1598.445,611.345 1627.767,604.170 1653.393 C 597.171 1678.391,601.154 1836.724,609.795 1877.017 C 627.919 1961.525,685.565 2052.685,757.050 2109.880 C 796.145 2141.160,837.604 2162.366,901.882 2183.960 L 949.625 2200.000 1163.462 2200.000 L 1377.298 2200.000 1418.293 2185.993 C 1505.168 2156.308,1558.683 2124.821,1606.289 2075.380 C 1653.789 2026.047,1682.854 1976.191,1712.029 1894.000 L 1724.807 1858.000 1722.566 1558.000 C 1721.334 1393.000,1718.509 1243.781,1716.290 1226.402 C 1700.228 1100.641,1601.951 977.837,1472.461 921.722 C 1415.650 897.102,1409.429 896.359,1224.176 892.051 C 962.186 885.958,980.039 885.258,959.479 902.436 " fill="#1D1E23" stroke="none" fill-rule="evenodd"/></svg>