<svg viewBox="0 0 2400 2400" fill="none" xmlns="http://www.w3.org/2000/svg"><path d="M972.000 204.209 C 876.662 211.021,789.639 250.806,721.896 318.548 C 656.080 384.364,615.290 466.678,603.985 556.489 C 600.481 584.333,599.657 673.176,600.947 884.342 L 602.716 1174.000 613.134 1208.286 C 657.581 1354.572,749.711 1448.980,894.000 1496.097 L 934.000 1509.159 1173.000 1511.079 L 1412.000 1512.999 1412.000 1418.741 L 1412.000 1324.483 1187.000 1323.206 C 963.946 1321.940,961.779 1321.849,936.454 1312.738 C 901.889 1300.302,874.056 1281.794,849.533 1254.937 C 824.780 1227.828,811.674 1206.111,799.388 1171.847 L 790.120 1146.000 790.060 858.000 C 790.000 570.805,790.025 569.920,798.957 541.520 C 819.558 476.019,874.894 420.251,940.000 399.377 C 963.984 391.687,977.939 390.894,1120.000 389.152 C 1292.708 387.034,1362.258 390.679,1396.421 403.637 C 1446.479 422.624,1488.003 460.729,1512.327 510.000 C 1532.189 550.233,1535.713 575.973,1535.876 682.032 L 1536.000 762.064 1630.187 856.032 L 1724.374 950.000 1723.016 744.000 L 1721.657 538.000 1710.693 502.000 C 1688.035 427.608,1654.197 369.738,1604.202 319.882 C 1534.760 250.634,1448.722 211.619,1348.000 203.707 C 1296.901 199.693,1030.223 200.049,972.000 204.209 M912.000 981.353 L 912.000 1076.000 1105.000 1076.225 C 1352.048 1076.513,1369.814 1077.773,1410.770 1097.915 C 1451.537 1117.964,1496.996 1162.358,1515.490 1200.180 C 1526.352 1222.395,1528.864 1233.298,1532.080 1272.180 C 1536.478 1325.359,1536.831 1744.705,1532.533 1810.588 C 1529.890 1851.101,1528.242 1857.973,1514.502 1885.773 C 1497.519 1920.137,1462.097 1960.735,1432.828 1979.382 C 1422.473 1985.980,1402.300 1995.517,1388.000 2000.576 C 1362.735 2009.514,1357.248 2009.813,1194.000 2011.177 C 986.599 2012.909,954.795 2010.552,914.082 1990.430 C 860.022 1963.712,817.015 1914.906,799.406 1860.289 C 792.004 1837.330,790.684 1821.522,788.988 1735.491 L 787.045 1636.981 693.522 1543.523 L 600.000 1450.064 600.069 1628.032 C 600.107 1725.914,601.914 1822.853,604.083 1843.452 C 608.206 1882.592,624.240 1936.810,642.380 1972.948 C 694.478 2076.741,791.867 2155.709,906.286 2186.938 L 946.000 2197.777 1162.000 2197.888 L 1378.000 2198.000 1417.769 2186.890 C 1564.469 2145.908,1665.275 2046.511,1710.752 1898.000 L 1721.776 1862.000 1723.068 1598.000 C 1724.593 1286.552,1721.973 1220.270,1706.320 1174.191 C 1683.425 1106.800,1652.985 1056.867,1606.089 1009.780 C 1554.663 958.144,1503.272 927.369,1430.000 904.329 L 1390.000 891.752 1151.000 889.229 L 912.000 886.707 912.000 981.353 " fill="#1D1E23" stroke="none" fill-rule="evenodd"/></svg>