<svg viewBox="0 0 2400 2400" fill="none" xmlns="http://www.w3.org/2000/svg"><path d="M964.000 202.591 C 858.089 218.498,787.723 252.254,719.754 319.759 C 657.452 381.638,616.666 462.872,604.109 550.095 C 600.878 572.538,599.915 669.189,600.864 876.000 C 602.181 1163.283,602.410 1170.702,610.877 1200.747 C 654.544 1355.680,754.875 1457.028,908.000 1500.882 C 936.874 1509.151,946.893 1509.529,1175.000 1510.942 L 1412.000 1512.409 1412.000 1418.205 L 1412.000 1324.000 1194.840 1324.000 C 955.697 1324.000,953.921 1323.847,904.300 1298.975 C 852.943 1273.232,808.130 1214.897,794.150 1155.588 C 785.177 1117.523,785.177 594.477,794.150 556.412 C 812.678 477.808,877.808 412.678,956.412 394.150 C 994.121 385.261,1330.040 385.299,1367.788 394.197 C 1431.395 409.189,1485.277 451.501,1512.707 508.000 C 1533.366 550.552,1536.000 568.986,1536.000 671.024 L 1536.000 761.655 1629.977 855.827 L 1723.953 950.000 1723.924 756.000 C 1723.898 582.187,1723.118 558.254,1716.426 526.000 C 1681.657 358.424,1548.312 231.528,1380.000 205.846 C 1350.527 201.348,1300.713 200.164,1158.000 200.568 C 1056.800 200.855,969.500 201.765,964.000 202.591 M912.000 981.794 L 912.000 1076.000 1127.803 1076.000 C 1268.050 1076.000,1351.028 1077.528,1364.803 1080.364 C 1421.391 1092.014,1483.657 1138.816,1510.663 1190.000 C 1536.297 1238.582,1536.000 1234.469,1536.000 1541.380 C 1536.000 1726.713,1534.543 1826.683,1531.636 1840.803 C 1519.657 1898.990,1472.402 1960.852,1420.000 1986.948 C 1369.715 2011.989,1364.993 2012.418,1153.326 2011.148 C 964.955 2010.018,961.598 2009.857,936.000 2000.743 C 883.792 1982.156,839.609 1944.206,814.461 1896.349 C 791.676 1852.990,788.126 1830.350,788.059 1727.968 L 788.000 1637.936 694.000 1544.000 L 600.000 1450.064 600.000 1638.508 C 600.000 1840.907,601.801 1864.878,621.300 1922.000 C 642.271 1983.433,674.015 2034.418,719.798 2080.202 C 780.551 2140.955,854.330 2179.209,939.524 2194.129 C 988.309 2202.673,1335.892 2202.626,1384.961 2194.069 C 1553.043 2164.758,1682.374 2039.444,1716.623 1872.709 C 1723.845 1837.549,1724.214 1817.997,1723.067 1530.709 C 1721.874 1231.970,1721.680 1225.398,1713.165 1195.298 C 1691.133 1117.417,1653.956 1054.039,1600.150 1002.632 C 1546.231 951.118,1492.526 920.744,1420.000 900.743 L 1382.000 890.263 1147.000 888.926 L 912.000 887.588 912.000 981.794 " fill="#1D1E23" stroke="none" fill-rule="evenodd"/></svg>