<svg viewBox="0 0 2400 2400" fill="none" xmlns="http://www.w3.org/2000/svg"><path d="M972.000 204.209 C 876.662 211.021,789.639 250.806,721.896 318.548 C 656.080 384.364,615.290 466.678,603.985 556.489 C 600.481 584.333,599.657 673.176,600.947 884.342 L 602.716 1174.000 613.573 1209.803 C 656.245 1350.519,747.247 1445.772,884.000 1492.864 C 912.166 1502.563,928.638 1505.258,980.000 1508.570 C 1062.553 1513.893,1342.331 1511.318,1356.625 1505.103 C 1370.178 1499.210,1394.011 1475.450,1402.144 1459.722 C 1419.139 1426.856,1411.531 1380.667,1384.923 1355.178 C 1353.942 1325.498,1363.308 1326.753,1152.000 1323.964 C 968.915 1321.547,961.070 1321.130,936.454 1312.502 C 902.166 1300.483,874.224 1281.978,849.533 1254.937 C 824.780 1227.828,811.674 1206.111,799.388 1171.847 L 790.120 1146.000 790.060 858.000 C 790.000 570.805,790.025 569.920,798.957 541.520 C 819.558 476.019,874.894 420.251,940.000 399.377 C 963.984 391.687,977.939 390.894,1120.000 389.152 C 1343.215 386.415,1387.428 391.334,1437.454 424.469 C 1478.092 451.387,1514.586 500.432,1527.885 546.000 C 1530.453 554.800,1533.951 603.400,1535.659 654.000 C 1539.177 758.226,1540.761 764.759,1568.746 790.471 C 1590.994 810.911,1610.468 817.690,1638.600 814.787 C 1665.974 811.961,1690.171 798.536,1706.482 777.124 C 1723.281 755.069,1725.738 731.942,1722.932 622.270 C 1721.002 546.828,1719.674 534.229,1710.252 502.000 C 1674.149 378.502,1592.467 283.913,1480.381 235.807 C 1435.298 216.457,1399.351 207.741,1348.000 203.707 C 1296.901 199.693,1030.223 200.049,972.000 204.209 M963.591 899.106 C 953.466 905.688,940.379 916.232,934.508 922.537 C 919.629 938.514,910.222 970.202,913.624 992.887 C 919.290 1030.674,954.028 1066.304,991.167 1072.421 C 1001.525 1074.127,1077.500 1075.758,1160.000 1076.046 C 1353.481 1076.720,1370.740 1078.229,1410.900 1097.979 C 1451.531 1117.961,1497.024 1162.415,1515.490 1200.180 C 1526.352 1222.395,1528.864 1233.298,1532.080 1272.180 C 1536.478 1325.359,1536.831 1744.705,1532.533 1810.588 C 1529.890 1851.101,1528.242 1857.973,1514.502 1885.773 C 1497.519 1920.137,1462.097 1960.735,1432.828 1979.382 C 1422.473 1985.980,1402.300 1995.517,1388.000 2000.576 C 1362.735 2009.514,1357.248 2009.813,1194.000 2011.177 C 986.599 2012.909,954.795 2010.552,914.082 1990.430 C 859.943 1963.674,816.829 1914.697,799.518 1860.289 C 792.535 1838.341,790.862 1820.789,789.390 1754.000 C 788.420 1710.000,785.802 1665.900,783.571 1656.000 C 778.020 1631.364,762.101 1609.575,740.281 1596.747 C 725.096 1587.820,717.208 1586.000,693.705 1586.000 C 669.195 1586.000,662.788 1587.619,645.810 1598.106 C 633.633 1605.627,621.627 1617.631,614.106 1629.805 L 602.000 1649.398 602.102 1751.699 C 602.201 1850.875,602.541 1855.222,613.235 1894.000 C 653.167 2038.791,761.965 2147.548,906.286 2186.938 L 946.000 2197.777 1162.000 2197.888 L 1378.000 2198.000 1417.769 2186.890 C 1564.469 2145.908,1665.275 2046.511,1710.752 1898.000 L 1721.776 1862.000 1723.068 1598.000 C 1724.593 1286.552,1721.973 1220.270,1706.320 1174.191 C 1683.425 1106.800,1652.985 1056.867,1606.089 1009.780 C 1554.608 958.089,1503.105 927.265,1430.000 904.392 L 1390.000 891.876 1186.000 889.507 L 982.000 887.137 963.591 899.106 " fill="#1D1E23" stroke="none" fill-rule="evenodd"/></svg>