<svg viewBox="0 0 2400 2400" fill="none" xmlns="http://www.w3.org/2000/svg"><path d="M1082.000 310.759 C 945.612 328.498,773.521 398.775,664.141 481.401 C 619.509 515.115,537.977 592.865,501.917 636.099 C 359.695 806.615,281.736 1060.783,304.242 1280.576 C 335.785 1588.630,517.716 1857.600,788.000 1995.773 C 1002.294 2105.323,1231.521 2128.006,1451.671 2061.445 C 1590.338 2019.520,1698.859 1957.649,1810.000 1857.152 C 1929.701 1748.913,2012.376 1613.071,2062.060 1442.992 C 2092.511 1338.752,2102.245 1263.563,2098.437 1162.000 C 2094.422 1054.953,2099.554 1059.427,2044.534 1115.000 C 1970.031 1190.250,1904.171 1231.364,1804.373 1264.925 L 1754.000 1281.865 1661.471 1283.194 C 1556.915 1284.696,1531.650 1280.924,1462.221 1253.444 C 1321.337 1197.681,1216.309 1095.861,1153.505 954.158 C 1109.705 855.333,1104.416 686.502,1141.687 576.921 C 1165.497 506.917,1207.071 441.568,1279.394 360.464 C 1301.727 335.419,1320.000 313.369,1320.000 311.464 C 1320.000 308.151,1106.900 307.521,1082.000 310.759 " fill="#1D1E23" stroke="none" fill-rule="evenodd"/></svg>