<svg viewBox="0 0 2400 2400" fill="none" xmlns="http://www.w3.org/2000/svg"><path d="M1026.000 318.462 C 908.172 339.613,764.439 405.691,651.965 490.416 C 602.429 527.731,520.535 609.391,484.294 657.608 C 226.019 1001.235,242.636 1464.953,524.901 1790.772 C 670.590 1958.941,889.056 2070.763,1120.842 2095.804 C 1358.262 2121.453,1636.318 2024.758,1809.240 1856.411 C 1935.143 1733.840,2004.479 1627.794,2051.863 1485.331 C 2083.338 1390.698,2098.335 1298.104,2088.232 1260.773 C 2078.770 1225.811,2040.108 1196.166,2004.000 1196.186 C 1975.325 1196.201,1955.519 1202.340,1881.578 1234.126 C 1772.323 1281.092,1768.075 1281.978,1652.000 1281.990 C 1541.085 1282.001,1532.578 1280.600,1452.000 1249.056 C 1373.605 1218.367,1322.390 1183.435,1262.000 1119.466 C 1207.261 1061.482,1165.153 990.589,1136.757 908.605 L 1122.000 866.000 1120.742 766.484 C 1119.023 630.424,1118.372 633.282,1189.999 462.385 C 1207.437 420.779,1210.440 403.917,1204.404 381.500 C 1198.163 358.325,1174.173 328.602,1154.495 319.666 C 1134.080 310.396,1074.069 309.834,1026.000 318.462 " fill="#1D1E23" stroke="none" fill-rule="evenodd"/></svg>