<svg viewBox="0 0 2400 2400" fill="none" xmlns="http://www.w3.org/2000/svg"><path d="M1078.000 310.248 C 918.820 334.450,768.848 397.602,648.000 491.317 C 604.296 525.208,525.107 604.414,491.350 648.000 C 352.554 827.211,286.679 1043.674,303.139 1266.460 C 326.638 1584.533,522.592 1871.322,810.000 2008.277 C 1052.193 2123.687,1310.844 2129.513,1556.000 2025.081 C 1681.543 1971.602,1804.060 1878.907,1897.902 1766.403 C 2001.582 1642.104,2077.268 1455.822,2096.338 1278.000 C 2101.094 1233.654,2098.869 1108.222,2092.837 1080.575 L 2089.907 1067.150 2060.614 1099.592 C 1979.740 1189.159,1888.675 1244.668,1773.383 1274.676 C 1732.910 1285.210,1724.767 1285.964,1652.000 1285.911 C 1590.414 1285.867,1567.266 1284.296,1542.000 1278.447 C 1347.758 1233.477,1199.937 1100.360,1137.967 914.605 C 1119.434 859.051,1116.065 833.674,1116.030 749.352 C 1115.987 645.706,1129.334 587.442,1172.268 503.858 C 1198.004 453.756,1223.215 420.083,1280.958 358.687 L 1327.560 309.137 1297.177 306.568 C 1246.188 302.258,1116.197 304.441,1078.000 310.248 " fill="#1D1E23" stroke="none" fill-rule="evenodd"/></svg>