<svg viewBox="0 0 2400 2400" fill="none" xmlns="http://www.w3.org/2000/svg"><path d="M1057.989 311.928 C 985.546 322.097,892.160 351.798,814.000 389.528 C 542.537 520.573,357.916 767.919,310.570 1064.000 C 301.889 1118.283,298.941 1204.978,303.565 1270.000 C 313.797 1413.878,367.618 1571.333,447.242 1690.331 C 592.018 1906.698,805.538 2044.910,1062.000 2088.265 C 1300.257 2128.542,1568.116 2057.424,1759.550 1903.061 C 1840.026 1838.170,1934.230 1728.786,1981.198 1645.696 C 2047.005 1529.281,2089.709 1393.242,2089.903 1299.402 C 2089.999 1253.518,2089.808 1252.536,2077.496 1235.402 C 2070.619 1225.831,2056.352 1212.600,2045.791 1206.000 C 2029.085 1195.559,2022.914 1194.015,1998.295 1194.118 C 1971.706 1194.228,1966.143 1196.010,1906.014 1223.672 C 1786.388 1278.707,1758.652 1285.309,1648.000 1285.085 C 1556.868 1284.900,1535.222 1281.227,1460.000 1253.182 C 1409.828 1234.476,1389.138 1223.815,1346.069 1194.476 C 1252.475 1130.719,1175.553 1027.269,1137.967 914.605 C 1119.780 860.089,1116.066 833.555,1116.030 757.895 C 1115.977 644.007,1124.887 604.417,1174.071 500.000 C 1190.133 465.900,1205.041 431.439,1207.199 423.419 C 1216.322 389.523,1195.779 342.861,1162.741 322.435 C 1146.626 312.472,1138.945 310.498,1112.847 309.609 C 1095.881 309.031,1071.195 310.075,1057.989 311.928 " fill="#1D1E23" stroke="none" fill-rule="evenodd"/></svg>