<svg viewBox="0 0 2400 2400" fill="none" xmlns="http://www.w3.org/2000/svg"><path d="M1140.000 302.599 C 980.438 316.764,834.156 365.770,710.532 446.476 C 655.916 482.131,622.222 509.408,570.650 559.714 C 433.969 693.041,345.530 861.782,311.589 1054.000 C 299.252 1123.867,298.100 1262.482,309.296 1330.000 C 347.149 1558.291,453.148 1746.148,626.000 1891.283 C 805.139 2041.696,1054.215 2119.054,1284.576 2095.823 C 1518.790 2072.203,1723.845 1965.382,1883.157 1784.000 C 1998.483 1652.698,2078.311 1463.286,2096.412 1278.000 C 2100.910 1231.951,2099.246 1124.540,2093.419 1084.819 L 2090.898 1067.639 2049.149 1111.778 C 1978.711 1186.247,1908.230 1232.229,1819.361 1261.694 C 1754.978 1283.040,1706.692 1289.485,1630.399 1286.916 C 1576.484 1285.100,1558.388 1282.787,1519.241 1272.709 C 1340.083 1226.586,1196.481 1093.080,1138.532 918.767 C 1118.446 858.345,1114.147 827.860,1114.452 748.000 C 1114.760 667.604,1118.412 643.460,1140.245 577.501 C 1167.694 494.573,1207.745 431.895,1278.349 361.374 L 1331.036 308.747 1300.518 306.462 C 1254.985 303.051,1160.516 300.778,1140.000 302.599 " fill="#1D1E23" stroke="none" fill-rule="evenodd"/></svg>