<svg viewBox="0 0 2400 2400" fill="none" xmlns="http://www.w3.org/2000/svg"><path d="M1108.000 307.983 C 978.757 318.410,813.665 378.637,694.000 459.015 C 624.312 505.823,528.168 597.989,477.364 666.686 C 381.916 795.751,319.843 957.468,304.252 1117.695 C 282.901 1337.104,349.071 1564.632,486.475 1744.281 C 629.105 1930.761,836.851 2052.452,1078.000 2090.776 C 1143.369 2101.164,1269.355 2100.206,1336.000 2088.813 C 1469.656 2065.965,1588.761 2019.397,1694.498 1948.646 C 1779.876 1891.518,1863.809 1813.036,1920.526 1737.298 C 2011.134 1616.302,2078.379 1439.942,2096.456 1275.893 C 2101.160 1233.208,2098.840 1107.345,2092.852 1080.381 L 2089.828 1066.761 2062.485 1097.312 C 1982.971 1186.155,1893.831 1240.727,1772.481 1274.854 C 1736.209 1285.055,1729.293 1285.665,1652.000 1285.484 C 1582.254 1285.320,1564.787 1284.015,1535.113 1276.748 C 1384.130 1239.771,1258.621 1146.146,1182.885 1014.000 C 1138.402 936.385,1120.587 873.377,1117.289 782.000 C 1113.165 667.711,1125.758 600.065,1166.711 516.527 C 1192.740 463.432,1225.803 418.021,1283.485 356.141 C 1306.302 331.663,1323.947 310.614,1322.697 309.364 C 1318.815 305.482,1152.277 304.411,1108.000 307.983 " fill="#1D1E23" stroke="none" fill-rule="evenodd"/></svg>