<svg viewBox="0 0 2400 2400" fill="none" xmlns="http://www.w3.org/2000/svg"><path d="M1134.000 302.704 C 913.404 321.437,716.180 412.036,563.392 564.824 C 443.533 684.683,355.613 845.426,320.324 1009.220 C 233.082 1414.163,433.050 1825.533,806.000 2008.340 C 1118.311 2161.424,1490.378 2119.817,1763.098 1901.311 C 1865.935 1818.917,1949.295 1714.460,2008.340 1594.000 C 2067.881 1472.527,2100.000 1334.879,2100.000 1201.181 C 2100.000 1156.140,2093.369 1072.355,2089.479 1068.241 C 2088.564 1067.274,2084.748 1070.874,2080.999 1076.241 C 2068.753 1093.770,2031.097 1133.512,2004.272 1157.218 C 1864.658 1280.599,1665.802 1321.320,1485.106 1263.530 C 1348.672 1219.897,1231.092 1118.545,1166.203 988.641 C 1145.741 947.676,1125.470 884.922,1118.190 840.000 C 1110.216 790.792,1110.280 707.658,1118.329 659.705 C 1134.406 563.929,1180.997 465.775,1244.581 393.731 C 1266.722 368.645,1306.673 330.937,1323.759 319.001 C 1329.126 315.252,1332.726 311.406,1331.759 310.454 C 1325.200 304.004,1183.903 298.466,1134.000 302.704 " fill="#1D1E23" stroke="none" fill-rule="evenodd"/></svg>