<svg viewBox="0 0 2400 2400" fill="none" xmlns="http://www.w3.org/2000/svg"><path d="M732.000 403.599 L 346.000 406.000 316.000 421.984 C 274.999 443.829,241.315 478.131,221.504 518.212 L 206.000 549.582 203.356 639.791 C 201.902 689.406,200.552 948.250,200.356 1215.000 L 200.000 1700.000 179.000 1700.023 C 102.703 1700.107,43.235 1732.568,14.183 1789.988 C 3.756 1810.596,2.573 1816.832,2.730 1850.326 C 2.880 1882.328,4.412 1890.760,13.422 1909.177 C 26.269 1935.434,66.509 1975.056,94.985 1989.486 L 115.734 2000.000 757.867 2000.000 L 1400.000 2000.000 1400.000 1850.000 L 1400.000 1700.000 899.421 1700.000 L 398.843 1700.000 401.402 1215.000 C 402.809 948.250,405.584 713.384,407.568 693.075 C 412.644 641.127,426.560 620.414,462.310 611.601 C 471.517 609.331,682.105 606.094,972.000 603.767 C 1959.080 595.844,2133.427 593.608,2145.153 588.726 C 2171.875 577.599,2197.465 534.387,2197.696 500.000 C 2197.817 482.131,2195.165 473.122,2183.575 452.021 C 2162.716 414.047,2156.872 411.585,2078.724 407.837 C 1984.804 403.333,1181.189 400.804,732.000 403.599 M1696.000 807.690 C 1670.263 809.439,1658.396 812.241,1647.169 819.222 C 1626.899 831.825,1613.130 849.133,1607.423 869.182 C 1600.722 892.721,1600.411 1920.905,1607.100 1936.791 C 1613.213 1951.311,1637.648 1977.894,1654.394 1988.243 C 1667.685 1996.458,1673.210 1996.709,1883.007 1998.642 C 2145.888 2001.064,2328.332 1996.510,2346.000 1987.084 C 2359.869 1979.686,2380.675 1958.494,2388.302 1944.000 C 2396.438 1928.537,2400.923 1614.160,2398.722 1213.604 C 2396.594 826.316,2399.460 858.641,2364.461 827.174 L 2344.589 809.307 2203.294 806.660 C 2042.301 803.643,1746.723 804.243,1696.000 807.690 M2200.000 1350.000 L 2200.000 1700.000 2000.000 1700.000 L 1800.000 1700.000 1800.000 1350.000 L 1800.000 1000.000 2000.000 1000.000 L 2200.000 1000.000 2200.000 1350.000 " fill="#1D1E23" stroke="none" fill-rule="evenodd"/></svg>