<svg viewBox="0 0 2400 2400" fill="none" xmlns="http://www.w3.org/2000/svg"><path d="M620.000 403.872 L 346.000 406.000 318.079 420.000 C 266.766 445.730,226.829 491.344,209.513 544.000 C 202.698 564.725,202.201 598.862,200.937 1133.000 L 199.595 1700.000 174.798 1700.069 C 97.104 1700.287,42.664 1731.055,13.118 1791.445 C 3.519 1811.064,2.178 1818.424,2.367 1850.442 C 2.556 1882.304,4.061 1890.054,14.032 1910.512 C 28.199 1939.576,58.577 1969.875,90.719 1987.000 L 115.120 2000.000 757.560 2000.000 L 1400.000 2000.000 1400.000 1850.000 L 1400.000 1700.000 900.000 1700.000 L 400.000 1700.000 400.195 1287.000 C 400.303 1059.850,401.910 826.842,403.768 769.205 C 407.546 651.954,409.177 644.734,436.866 622.666 C 450.250 611.999,455.830 610.489,492.866 607.514 C 515.490 605.697,890.400 602.368,1326.000 600.116 C 1761.600 597.864,2124.342 594.499,2132.094 592.637 C 2154.406 587.277,2161.794 581.802,2177.226 559.190 C 2206.094 516.892,2206.197 483.264,2177.587 441.334 C 2152.688 404.843,2167.907 406.856,1892.000 403.551 C 1627.490 400.381,1050.558 400.527,620.000 403.872 M1662.000 809.949 C 1653.144 813.123,1637.692 824.368,1627.395 835.131 C 1610.220 853.083,1608.528 856.709,1605.395 882.289 C 1603.528 897.530,1602.061 1137.700,1602.135 1416.000 C 1602.240 1809.718,1603.376 1925.107,1607.257 1936.000 C 1613.110 1952.427,1624.059 1965.562,1645.551 1981.940 L 1661.102 1993.790 1765.551 1997.201 C 1895.940 2001.459,2316.567 1997.666,2336.349 1992.054 C 2355.253 1986.691,2386.632 1955.468,2391.969 1936.711 C 2397.604 1916.906,2401.582 1231.771,2397.282 1021.656 L 2394.000 861.311 2382.676 844.973 C 2376.447 835.986,2363.847 823.541,2354.676 817.317 L 2338.000 806.000 2008.000 805.107 C 1729.898 804.354,1675.484 805.115,1662.000 809.949 M2200.000 1350.000 L 2200.000 1700.000 2000.000 1700.000 L 1800.000 1700.000 1800.000 1350.000 L 1800.000 1000.000 2000.000 1000.000 L 2200.000 1000.000 2200.000 1350.000 " fill="#1D1E23" stroke="none" fill-rule="evenodd"/></svg>