<svg viewBox="0 0 2400 2400" fill="none" xmlns="http://www.w3.org/2000/svg"><path d="M368.000 402.679 C 347.444 405.947,309.313 421.498,289.052 434.877 C 247.077 462.593,214.625 510.264,204.420 559.197 C 201.315 574.086,200.000 746.822,200.000 1139.683 L 200.000 1698.972 156.759 1700.754 C 119.110 1702.305,110.187 1704.102,87.759 1714.646 C 55.032 1730.032,30.120 1754.936,14.378 1788.000 C 3.383 1811.094,2.000 1818.023,2.000 1850.000 C 2.000 1881.977,3.383 1888.906,14.378 1912.000 C 30.110 1945.044,54.956 1969.890,88.000 1985.622 L 114.000 1998.000 757.000 1999.048 L 1400.000 2000.096 1400.000 1850.048 L 1400.000 1700.000 900.000 1700.000 L 400.000 1700.000 400.000 1192.713 C 400.000 622.603,397.914 661.875,429.895 629.895 C 462.428 597.361,385.628 600.000,1300.000 600.000 C 2214.372 600.000,2137.572 602.639,2170.105 570.105 C 2209.232 530.979,2209.232 469.021,2170.105 429.895 C 2137.489 397.279,2221.035 399.933,1246.287 400.545 C 768.729 400.844,373.500 401.805,368.000 402.679 M1664.342 806.868 C 1654.630 810.299,1639.161 820.628,1629.967 829.823 C 1597.881 861.908,1600.000 821.598,1600.000 1400.000 C 1600.000 1978.270,1597.894 1938.104,1629.895 1970.105 C 1661.040 2001.250,1645.562 2000.000,2000.000 2000.000 C 2354.438 2000.000,2338.960 2001.250,2370.105 1970.105 C 2402.106 1938.104,2400.000 1978.270,2400.000 1400.000 C 2400.000 821.730,2402.106 861.896,2370.105 829.895 C 2338.912 798.701,2354.732 799.960,1998.287 800.316 C 1722.569 800.591,1679.735 801.432,1664.342 806.868 M2200.000 1350.000 L 2200.000 1700.000 2000.000 1700.000 L 1800.000 1700.000 1800.000 1350.000 L 1800.000 1000.000 2000.000 1000.000 L 2200.000 1000.000 2200.000 1350.000 " fill="#1D1E23" stroke="none" fill-rule="evenodd"/></svg>