<svg viewBox="0 0 2400 2400" fill="none" xmlns="http://www.w3.org/2000/svg"><path d="M370.296 825.835 L 99.526 1152.063 234.743 1315.032 C 553.959 1699.762,633.733 1794.274,641.899 1797.408 C 646.330 1799.108,749.715 1715.625,779.029 1686.676 L 792.058 1673.809 770.753 1647.904 C 759.036 1633.657,661.868 1516.235,554.825 1386.967 L 360.202 1151.933 535.183 940.967 C 757.038 673.486,788.000 635.073,788.000 627.309 C 788.000 625.708,758.750 599.739,723.000 569.601 C 687.250 539.462,654.190 511.384,649.533 507.205 L 641.066 499.607 370.296 825.835 M1723.548 559.591 C 1684.800 592.471,1651.919 622.441,1650.480 626.191 C 1648.738 630.731,1652.867 639.192,1662.832 651.505 C 1722.803 725.605,1841.184 869.453,1948.792 998.981 L 2075.884 1151.963 1910.803 1350.981 C 1820.008 1460.442,1722.873 1577.900,1694.947 1612.000 L 1644.173 1674.000 1657.087 1686.771 C 1689.435 1718.764,1790.013 1799.269,1794.478 1796.743 C 1804.815 1790.895,1900.070 1677.913,2229.338 1280.956 L 2336.377 1151.912 2201.265 988.956 C 2000.757 747.127,1814.796 523.493,1803.742 510.904 L 1794.000 499.808 1723.548 559.591 M716.000 1152.000 L 716.000 1252.000 818.000 1252.000 L 920.000 1252.000 920.000 1152.000 L 920.000 1052.000 818.000 1052.000 L 716.000 1052.000 716.000 1152.000 M1116.000 1152.000 L 1116.000 1252.000 1218.000 1252.000 L 1320.000 1252.000 1320.000 1152.000 L 1320.000 1052.000 1218.000 1052.000 L 1116.000 1052.000 1116.000 1152.000 M1516.000 1152.000 L 1516.000 1252.000 1618.000 1252.000 L 1720.000 1252.000 1720.000 1152.000 L 1720.000 1052.000 1618.000 1052.000 L 1516.000 1052.000 1516.000 1152.000 " fill="#1D1E23" stroke="none" fill-rule="evenodd"/></svg>