<svg viewBox="0 0 2400 2400" fill="none" xmlns="http://www.w3.org/2000/svg"><path d="M543.391 616.981 C 193.947 1037.916,104.000 1147.415,104.000 1151.880 C 104.000 1156.692,137.039 1197.226,335.589 1436.000 C 611.113 1767.342,635.638 1796.000,643.677 1796.000 C 647.611 1796.000,745.638 1717.506,771.393 1693.731 L 792.786 1673.984 576.368 1412.776 L 359.950 1151.568 399.200 1104.784 C 573.724 896.761,788.000 634.292,788.000 628.538 C 788.000 626.820,772.274 612.046,753.053 595.707 C 733.832 579.368,700.653 551.141,679.321 532.981 L 640.535 499.961 543.391 616.981 M1783.479 511.026 C 1768.445 520.991,1680.614 596.578,1664.135 613.732 L 1650.270 628.166 1657.239 641.083 C 1664.798 655.093,1708.782 709.107,1930.764 976.980 L 2075.768 1151.960 1867.563 1402.980 C 1753.051 1541.041,1655.851 1658.851,1651.563 1664.781 L 1643.767 1675.562 1680.884 1708.052 C 1701.298 1725.922,1734.626 1753.261,1754.947 1768.805 C 1787.687 1793.848,1792.668 1796.437,1798.684 1791.533 C 1816.729 1776.825,2334.000 1158.919,2334.000 1152.071 C 2334.000 1150.222,2217.000 1007.973,2074.000 835.961 C 1931.000 663.949,1810.700 518.889,1806.666 513.606 C 1797.929 502.161,1797.008 502.059,1783.479 511.026 M716.000 1152.000 L 716.000 1252.000 818.000 1252.000 L 920.000 1252.000 920.000 1152.000 L 920.000 1052.000 818.000 1052.000 L 716.000 1052.000 716.000 1152.000 M1116.000 1152.000 L 1116.000 1252.000 1218.000 1252.000 L 1320.000 1252.000 1320.000 1152.000 L 1320.000 1052.000 1218.000 1052.000 L 1116.000 1052.000 1116.000 1152.000 M1516.000 1152.000 L 1516.000 1252.000 1618.000 1252.000 L 1720.000 1252.000 1720.000 1152.000 L 1720.000 1052.000 1618.000 1052.000 L 1516.000 1052.000 1516.000 1152.000 " fill="#1D1E23" stroke="none" fill-rule="evenodd"/></svg>