<svg viewBox="0 0 2400 2400" fill="none" xmlns="http://www.w3.org/2000/svg"><path d="M626.000 605.872 C 617.200 609.176,609.163 611.907,608.141 611.940 C 607.118 611.973,496.736 721.350,362.848 855.000 C 220.826 996.769,115.853 1104.665,110.864 1114.000 C 99.374 1135.499,98.760 1179.204,109.627 1202.000 C 114.686 1212.611,198.216 1299.121,357.627 1458.849 C 618.451 1720.190,614.236 1716.571,657.817 1716.571 C 713.760 1716.571,756.784 1674.835,757.369 1620.000 C 757.843 1575.567,763.903 1582.892,545.529 1363.911 C 434.688 1252.762,344.000 1160.055,344.000 1157.896 C 344.000 1155.736,433.290 1064.877,542.423 955.985 C 688.843 809.888,742.937 753.419,748.823 740.519 C 764.708 705.708,757.081 660.069,730.797 632.649 C 704.016 604.710,659.432 593.318,626.000 605.872 M1631.974 603.499 C 1586.752 618.329,1558.922 655.017,1558.773 700.000 C 1558.636 741.427,1559.110 741.992,1773.577 955.985 C 1882.710 1064.877,1972.000 1155.736,1972.000 1157.896 C 1972.000 1160.055,1881.312 1252.762,1770.471 1363.911 C 1553.213 1581.774,1558.283 1575.687,1558.680 1618.145 C 1559.174 1670.939,1604.563 1716.000,1657.248 1716.000 C 1698.041 1716.000,1687.739 1724.902,1952.968 1460.454 C 2097.541 1316.307,2202.717 1208.364,2206.642 1200.106 C 2215.850 1180.735,2218.017 1151.654,2211.943 1128.971 C 2207.222 1111.341,2189.583 1092.659,1962.432 864.708 C 1816.390 718.152,1711.676 616.134,1702.290 611.264 C 1685.172 602.383,1647.923 598.269,1631.974 603.499 M712.888 1070.151 C 663.635 1095.057,645.175 1153.488,670.756 1203.508 C 713.439 1286.968,835.485 1270.756,855.840 1178.921 C 861.491 1153.428,857.546 1132.217,842.482 1107.099 C 824.398 1076.946,799.401 1062.491,762.390 1060.785 C 738.013 1059.661,731.016 1060.985,712.888 1070.151 M1112.888 1070.151 C 1063.635 1095.057,1045.175 1153.488,1070.756 1203.508 C 1113.439 1286.968,1235.485 1270.756,1255.840 1178.921 C 1261.491 1153.428,1257.546 1132.217,1242.482 1107.099 C 1224.398 1076.946,1199.401 1062.491,1162.390 1060.785 C 1138.013 1059.661,1131.016 1060.985,1112.888 1070.151 M1512.888 1070.151 C 1463.635 1095.057,1445.175 1153.488,1470.756 1203.508 C 1513.439 1286.968,1635.485 1270.756,1655.840 1178.921 C 1661.491 1153.428,1657.546 1132.217,1642.482 1107.099 C 1624.398 1076.946,1599.401 1062.491,1562.390 1060.785 C 1538.013 1059.661,1531.016 1060.985,1512.888 1070.151 " fill="#1D1E23" stroke="none" fill-rule="evenodd"/></svg>