<svg viewBox="0 0 2400 2400" fill="none" xmlns="http://www.w3.org/2000/svg"><path d="M626.000 607.536 C 607.973 615.428,536.861 682.668,369.822 849.763 C 155.376 1064.282,114.174 1109.289,105.765 1138.216 C 98.368 1163.661,102.241 1185.259,118.375 1208.541 C 134.286 1231.501,332.512 1436.245,454.251 1555.463 C 565.426 1664.334,613.394 1705.682,636.602 1712.646 C 683.855 1726.826,748.011 1683.416,754.819 1632.658 C 759.900 1594.778,755.076 1584.433,708.493 1533.311 C 684.783 1507.290,592.763 1412.536,504.005 1322.746 L 342.626 1159.492 390.577 1110.746 C 706.616 789.465,736.586 757.703,749.626 730.224 C 768.022 691.456,745.324 636.785,702.468 616.640 C 682.774 607.383,638.413 602.101,626.000 607.536 M1631.056 607.983 C 1576.986 624.264,1545.413 687.342,1567.991 733.981 C 1577.200 753.005,1662.998 843.584,1845.314 1026.758 L 1973.469 1155.515 1849.735 1281.854 C 1664.814 1470.666,1580.499 1560.032,1569.136 1579.259 C 1560.395 1594.050,1559.235 1599.813,1561.024 1619.549 C 1565.569 1669.668,1601.044 1707.910,1649.104 1714.497 C 1671.441 1717.559,1687.488 1710.651,1720.090 1683.941 C 1750.420 1659.092,2124.227 1288.108,2176.396 1231.081 L 2212.000 1192.163 2212.000 1155.622 L 2212.000 1119.081 2013.000 919.207 C 1801.736 707.015,1718.326 627.608,1691.357 613.000 C 1674.230 603.723,1651.488 601.831,1631.056 607.983 M726.770 1067.705 C 682.509 1085.420,662.276 1114.444,662.456 1159.964 C 662.679 1216.585,700.549 1252.808,760.000 1253.267 C 789.773 1253.497,804.382 1247.351,826.399 1225.335 C 855.434 1196.299,862.287 1165.103,848.010 1126.944 C 829.840 1078.381,771.419 1049.836,726.770 1067.705 M1126.770 1067.705 C 1082.509 1085.420,1062.276 1114.444,1062.456 1159.964 C 1062.679 1216.585,1100.549 1252.808,1160.000 1253.267 C 1189.773 1253.497,1204.382 1247.351,1226.399 1225.335 C 1255.434 1196.299,1262.287 1165.103,1248.010 1126.944 C 1229.840 1078.381,1171.419 1049.836,1126.770 1067.705 M1526.770 1067.705 C 1482.509 1085.420,1462.276 1114.444,1462.456 1159.964 C 1462.679 1216.585,1500.549 1252.808,1560.000 1253.267 C 1589.773 1253.497,1604.382 1247.351,1626.399 1225.335 C 1655.434 1196.299,1662.287 1165.103,1648.010 1126.944 C 1629.840 1078.381,1571.419 1049.836,1526.770 1067.705 " fill="#1D1E23" stroke="none" fill-rule="evenodd"/></svg>