<svg viewBox="0 0 2400 2400" fill="none" xmlns="http://www.w3.org/2000/svg"><path d="M638.000 602.499 C 633.600 603.572,624.600 606.406,618.000 608.797 C 605.804 613.217,294.159 920.399,172.119 1048.292 C 111.335 1111.993,108.677 1115.473,104.147 1137.292 C 100.573 1154.506,100.542 1165.344,104.018 1182.087 C 108.353 1202.969,111.682 1207.388,165.039 1263.087 C 263.410 1365.777,491.875 1594.794,549.671 1648.648 C 617.456 1711.810,627.634 1717.673,664.860 1715.010 C 699.789 1712.511,724.696 1698.025,741.894 1670.208 C 752.048 1653.785,754.211 1645.740,755.308 1620.314 C 756.547 1591.624,755.904 1588.929,743.312 1570.000 C 735.995 1559.000,642.942 1462.095,536.528 1354.656 L 343.047 1159.313 358.524 1142.689 C 367.036 1133.545,456.356 1042.984,557.013 941.441 C 690.024 807.259,742.183 752.061,747.925 739.409 C 762.908 706.390,755.277 658.935,730.752 632.604 C 711.640 612.086,663.192 596.361,638.000 602.499 M1624.214 606.829 C 1601.009 615.129,1571.251 645.043,1564.889 666.464 C 1562.200 675.519,1560.000 692.761,1560.000 704.778 C 1560.000 722.643,1562.349 730.219,1572.876 746.314 C 1579.957 757.141,1672.904 853.880,1779.425 961.289 L 1973.098 1156.579 1955.549 1175.208 C 1945.897 1185.454,1858.762 1273.974,1761.916 1371.919 C 1665.069 1469.863,1580.019 1558.859,1572.916 1569.686 C 1562.340 1585.805,1560.000 1593.331,1560.000 1611.222 C 1560.000 1641.759,1566.938 1661.667,1584.553 1681.679 C 1605.303 1705.252,1634.186 1717.382,1664.366 1715.199 C 1683.898 1713.786,1690.694 1710.961,1710.631 1695.968 C 1742.573 1671.946,2197.252 1216.804,2206.390 1199.703 C 2211.450 1190.235,2213.758 1177.246,2213.857 1157.674 C 2213.983 1132.790,2212.559 1127.199,2202.145 1111.674 C 2184.043 1084.687,1716.458 618.697,1700.000 611.242 C 1678.195 601.365,1644.908 599.426,1624.214 606.829 M724.860 1065.027 C 706.341 1070.961,676.200 1098.722,667.514 1117.845 C 659.051 1136.476,657.903 1166.071,664.755 1188.943 C 671.123 1210.197,699.909 1241.494,720.764 1249.839 C 762.383 1266.492,814.526 1251.169,838.547 1215.227 C 868.182 1170.884,864.192 1128.382,826.805 1090.155 C 809.544 1072.505,802.389 1068.126,784.803 1064.441 C 759.569 1059.154,742.673 1059.319,724.860 1065.027 M1124.860 1065.027 C 1106.341 1070.961,1076.200 1098.722,1067.514 1117.845 C 1059.051 1136.476,1057.903 1166.071,1064.755 1188.943 C 1071.123 1210.197,1099.909 1241.494,1120.764 1249.839 C 1162.383 1266.492,1214.526 1251.169,1238.547 1215.227 C 1268.182 1170.884,1264.192 1128.382,1226.805 1090.155 C 1209.544 1072.505,1202.389 1068.126,1184.803 1064.441 C 1159.569 1059.154,1142.673 1059.319,1124.860 1065.027 M1524.860 1065.027 C 1506.341 1070.961,1476.200 1098.722,1467.514 1117.845 C 1459.051 1136.476,1457.903 1166.071,1464.755 1188.943 C 1471.123 1210.197,1499.909 1241.494,1520.764 1249.839 C 1562.383 1266.492,1614.526 1251.169,1638.547 1215.227 C 1668.182 1170.884,1664.192 1128.382,1626.805 1090.155 C 1609.544 1072.505,1602.389 1068.126,1584.803 1064.441 C 1559.569 1059.154,1542.673 1059.319,1524.860 1065.027 " fill="#1D1E23" stroke="none" fill-rule="evenodd"/></svg>