<svg viewBox="0 0 2400 2400" fill="none" xmlns="http://www.w3.org/2000/svg"><path d="M370.363 826.020 L 99.849 1152.000 370.505 1478.152 C 640.733 1803.786,641.175 1804.291,649.581 1796.863 C 654.211 1792.771,688.150 1764.532,725.000 1734.110 C 761.850 1703.688,792.000 1677.306,792.000 1675.482 C 792.000 1673.659,694.804 1555.129,576.008 1412.083 L 360.016 1152.000 576.008 891.917 C 694.804 748.871,792.000 630.361,792.000 628.561 C 792.000 626.761,769.050 606.364,741.000 583.234 C 712.950 560.104,678.947 531.923,665.438 520.610 L 640.877 500.040 370.363 826.020 M1720.017 562.303 C 1679.326 596.181,1645.478 625.567,1644.799 627.604 C 1644.120 629.641,1740.858 748.464,1859.774 891.654 L 2075.984 1152.000 1859.992 1412.083 C 1741.196 1555.129,1644.000 1673.659,1644.000 1675.482 C 1644.000 1677.306,1674.150 1703.688,1711.000 1734.110 C 1747.850 1764.532,1781.793 1792.775,1786.428 1796.871 C 1794.847 1804.311,1795.183 1803.927,2065.463 1478.160 L 2336.069 1152.000 2073.442 835.000 C 1928.997 660.650,1807.032 514.109,1802.408 509.353 L 1794.000 500.706 1720.017 562.303 M716.000 1152.000 L 716.000 1252.000 818.000 1252.000 L 920.000 1252.000 920.000 1152.000 L 920.000 1052.000 818.000 1052.000 L 716.000 1052.000 716.000 1152.000 M1116.000 1152.000 L 1116.000 1252.000 1218.000 1252.000 L 1320.000 1252.000 1320.000 1152.000 L 1320.000 1052.000 1218.000 1052.000 L 1116.000 1052.000 1116.000 1152.000 M1516.000 1152.000 L 1516.000 1252.000 1618.000 1252.000 L 1720.000 1252.000 1720.000 1152.000 L 1720.000 1052.000 1618.000 1052.000 L 1516.000 1052.000 1516.000 1152.000 " fill="#1D1E23" stroke="none" fill-rule="evenodd"/></svg>