<svg viewBox="0 0 2400 2400" fill="none" xmlns="http://www.w3.org/2000/svg"><path d="M630.697 604.760 C 618.676 608.042,594.655 628.866,518.697 701.853 C 394.303 821.382,133.393 1085.614,118.632 1107.013 C 99.091 1135.339,95.915 1172.353,110.567 1200.983 C 122.535 1224.368,510.041 1616.319,583.661 1679.504 C 627.560 1717.181,647.468 1722.854,690.717 1710.011 C 715.266 1702.720,745.097 1673.107,751.644 1649.528 C 758.569 1624.586,757.035 1591.747,748.273 1577.377 C 738.071 1560.646,665.548 1485.231,488.291 1307.029 L 342.099 1160.059 378.201 1123.029 C 398.057 1102.663,480.839 1018.500,562.162 936.000 C 721.573 774.280,744.347 749.298,751.406 728.403 C 761.972 697.129,751.477 653.957,727.826 631.408 C 704.507 609.176,659.624 596.862,630.697 604.760 M1617.146 610.520 C 1598.155 619.884,1569.305 652.647,1564.356 670.472 C 1558.468 691.679,1558.907 717.642,1565.419 733.227 C 1572.101 749.220,1634.179 814.515,1825.676 1006.972 L 1973.905 1155.945 1933.978 1196.972 C 1912.018 1219.538,1842.622 1290.200,1779.765 1354.000 C 1618.536 1517.649,1571.795 1567.513,1565.496 1582.590 C 1558.605 1599.082,1558.701 1629.377,1565.707 1649.008 C 1578.519 1684.910,1611.457 1710.871,1649.129 1714.759 C 1687.108 1718.679,1694.053 1713.517,1832.495 1578.465 C 1965.832 1448.394,2188.293 1222.418,2203.657 1201.438 C 2211.199 1191.139,2212.940 1183.427,2213.317 1158.623 C 2213.714 1132.520,2212.452 1126.561,2204.117 1115.185 C 2169.661 1068.157,1715.818 618.858,1693.244 609.426 C 1675.565 602.040,1633.108 602.650,1617.146 610.520 M726.992 1065.496 C 688.392 1079.813,664.156 1110.576,661.057 1149.188 C 653.958 1237.623,755.604 1289.608,821.758 1231.377 C 864.459 1193.790,868.549 1143.854,832.781 1096.802 C 810.815 1067.906,760.577 1053.040,726.992 1065.496 M1126.992 1065.496 C 1088.392 1079.813,1064.156 1110.576,1061.057 1149.188 C 1053.958 1237.623,1155.604 1289.608,1221.758 1231.377 C 1264.459 1193.790,1268.549 1143.854,1232.781 1096.802 C 1210.815 1067.906,1160.577 1053.040,1126.992 1065.496 M1526.992 1065.496 C 1488.392 1079.813,1464.156 1110.576,1461.057 1149.188 C 1453.958 1237.623,1555.604 1289.608,1621.758 1231.377 C 1664.459 1193.790,1668.549 1143.854,1632.781 1096.802 C 1610.815 1067.906,1560.577 1053.040,1526.992 1065.496 " fill="#1D1E23" stroke="none" fill-rule="evenodd"/></svg>