<svg viewBox="0 0 2400 2400" fill="none" xmlns="http://www.w3.org/2000/svg"><path d="M1160.000 207.509 C 1118.335 221.193,1077.861 257.988,1063.965 294.813 C 1050.302 331.021,1048.296 375.838,1048.143 648.210 L 1048.000 902.420 624.000 1151.642 L 200.000 1400.864 200.000 1490.105 C 200.000 1539.187,201.093 1582.193,202.428 1585.673 C 203.763 1589.153,209.040 1592.000,214.154 1592.000 C 224.301 1592.000,367.022 1551.251,704.000 1452.142 C 931.214 1385.316,1037.781 1356.448,1041.933 1360.600 C 1043.278 1361.945,1045.480 1484.354,1046.827 1632.621 L 1049.276 1902.198 924.552 1976.059 L 799.827 2049.921 800.913 2121.960 L 802.000 2194.000 816.000 2192.874 C 823.700 2192.255,913.265 2171.159,1015.034 2145.996 L 1200.067 2100.243 1385.034 2146.025 C 1486.765 2171.204,1576.300 2192.299,1584.000 2192.903 L 1598.000 2194.000 1599.070 2122.000 L 1600.140 2050.000 1475.612 1976.183 L 1351.085 1902.367 1352.608 1633.451 C 1353.446 1485.547,1355.310 1363.357,1356.749 1361.918 C 1362.885 1355.781,1468.517 1384.938,1899.109 1511.619 C 2172.301 1591.994,2190.588 1596.686,2196.178 1587.850 C 2198.213 1584.632,2199.905 1541.235,2199.939 1491.412 L 2200.000 1400.823 1776.412 1151.941 L 1352.824 903.058 1350.776 620.529 C 1349.383 428.278,1347.240 330.970,1344.070 316.000 C 1334.905 272.726,1307.390 240.653,1260.675 218.793 C 1239.361 208.819,1228.250 206.266,1202.182 205.352 C 1184.482 204.732,1165.500 205.703,1160.000 207.509 " fill="#1D1E23" stroke="none" fill-rule="evenodd"/></svg>