<svg viewBox="0 0 2400 2400" fill="none" xmlns="http://www.w3.org/2000/svg"><path d="M1160.132 206.403 C 1104.467 221.363,1063.230 267.084,1052.358 325.895 C 1049.491 341.405,1047.964 443.976,1047.894 625.735 L 1047.789 902.000 649.669 1136.000 C 430.703 1264.700,244.388 1376.043,235.636 1383.430 C 210.994 1404.228,202.185 1424.390,202.185 1460.000 C 202.185 1482.998,204.183 1493.735,210.742 1506.000 C 229.381 1540.853,265.901 1563.757,303.079 1563.912 C 319.059 1563.979,410.004 1538.823,679.079 1459.908 C 874.285 1402.657,1037.150 1354.835,1041.000 1353.638 C 1047.621 1351.579,1047.993 1366.375,1047.880 1626.730 L 1047.759 1902.000 933.695 1970.000 C 870.959 2007.400,815.664 2042.190,810.815 2047.311 C 802.988 2055.577,801.869 2061.632,800.829 2101.311 C 799.443 2154.237,804.643 2168.665,829.731 2181.497 L 845.462 2189.543 1023.868 2144.874 L 1202.274 2100.205 1374.814 2144.067 C 1494.394 2174.466,1551.041 2187.192,1559.366 2185.527 C 1575.587 2182.283,1595.210 2162.279,1598.293 2145.845 C 1603.004 2120.734,1598.557 2062.477,1591.057 2051.041 C 1586.826 2044.590,1538.829 2013.413,1468.183 1971.227 L 1352.253 1902.000 1352.127 1626.566 L 1352.000 1351.133 1361.000 1353.464 C 1365.950 1354.746,1526.600 1401.854,1718.000 1458.149 C 1909.400 1514.445,2076.338 1561.540,2088.974 1562.805 C 2117.351 1565.648,2142.401 1557.037,2164.904 1536.707 C 2189.571 1514.422,2197.815 1495.208,2197.815 1460.000 C 2197.815 1424.392,2189.007 1404.230,2164.367 1383.430 C 2155.617 1376.043,1969.298 1264.700,1750.326 1136.000 L 1352.194 902.000 1352.097 625.735 C 1352.033 443.939,1350.510 341.408,1347.642 325.895 C 1336.604 266.183,1295.361 221.109,1238.120 206.199 C 1209.090 198.638,1188.830 198.691,1160.132 206.403 " fill="#1D1E23" stroke="none" fill-rule="evenodd"/></svg>