<svg viewBox="0 0 2400 2400" fill="none" xmlns="http://www.w3.org/2000/svg"><path d="M1166.000 205.401 C 1102.932 221.770,1061.500 268.572,1052.157 334.000 C 1049.815 350.398,1048.126 473.895,1048.079 632.055 L 1048.000 902.110 625.000 1150.657 L 202.000 1399.204 200.927 1493.827 C 200.337 1545.869,201.237 1590.737,202.927 1593.532 C 205.269 1597.404,245.990 1586.812,374.000 1549.034 C 1035.267 1353.884,1041.795 1352.057,1044.601 1361.369 C 1046.032 1366.116,1047.382 1489.768,1047.601 1636.151 L 1048.000 1902.301 924.000 1976.064 L 800.000 2049.828 800.000 2122.247 C 800.000 2162.078,800.966 2195.632,802.146 2196.812 C 803.326 2197.992,893.326 2176.685,1002.146 2149.464 L 1200.000 2099.969 1397.854 2149.464 C 1506.674 2176.685,1596.674 2197.992,1597.854 2196.812 C 1599.034 2195.632,1600.000 2162.103,1600.000 2122.303 L 1600.000 2049.939 1476.000 1976.129 L 1352.000 1902.319 1352.281 1634.159 C 1352.436 1486.672,1353.786 1363.043,1355.281 1359.430 C 1358.013 1352.827,1473.363 1385.516,2066.000 1560.845 C 2164.354 1589.943,2194.712 1597.525,2197.073 1593.581 C 2198.763 1590.759,2199.663 1545.878,2199.073 1493.845 L 2198.000 1399.241 1775.215 1150.802 L 1352.430 902.363 1351.073 614.182 C 1349.577 296.245,1350.619 309.482,1323.782 267.660 C 1292.170 218.397,1222.241 190.804,1166.000 205.401 " fill="#1D1E23" stroke="none" fill-rule="evenodd"/></svg>