<svg viewBox="0 0 2400 2400" fill="none" xmlns="http://www.w3.org/2000/svg"><path d="M1163.589 207.526 C 1125.996 215.412,1073.154 264.037,1061.912 301.089 C 1050.893 337.407,1048.192 407.225,1048.095 658.283 L 1048.000 902.566 865.000 1010.111 C 438.083 1261.001,247.756 1375.697,228.890 1393.447 C 208.424 1412.704,199.077 1454.386,206.690 1492.451 C 209.742 1507.708,242.392 1542.826,263.835 1553.915 C 292.053 1568.507,329.182 1560.976,566.000 1492.631 C 943.710 1383.624,1013.673 1363.870,1025.178 1362.979 C 1037.245 1362.045,1037.962 1362.820,1040.925 1380.000 C 1042.632 1389.900,1045.112 1511.400,1046.435 1650.000 L 1048.842 1902.000 975.421 1946.000 C 865.292 2011.998,808.232 2050.921,803.366 2063.364 C 801.033 2069.329,800.033 2089.265,801.088 2108.762 C 803.309 2149.819,811.667 2169.154,832.386 2181.171 L 846.521 2189.368 1024.300 2144.916 L 1202.078 2100.464 1314.039 2128.594 C 1444.386 2161.344,1531.355 2179.960,1554.110 2179.984 C 1575.994 2180.006,1586.099 2171.788,1594.209 2147.370 C 1601.810 2124.487,1600.614 2078.456,1591.925 2059.415 C 1586.434 2047.385,1539.722 2015.801,1427.000 1947.906 L 1352.000 1902.731 1352.007 1754.366 C 1352.011 1672.765,1353.206 1550.446,1354.662 1482.546 L 1357.310 1359.092 1374.157 1361.401 C 1383.422 1362.671,1451.077 1381.013,1524.502 1402.160 C 2084.781 1563.528,2076.802 1561.382,2108.427 1559.153 C 2135.135 1557.271,2162.828 1539.663,2182.000 1512.375 C 2193.103 1496.573,2193.998 1492.704,2193.973 1460.648 C 2193.938 1414.908,2187.040 1403.630,2139.586 1371.722 C 2095.080 1341.796,1894.872 1221.987,1592.000 1044.033 C 1463.300 968.415,1357.237 905.959,1356.304 905.243 C 1355.371 904.527,1353.258 777.098,1351.608 622.068 C 1349.685 441.453,1347.000 332.449,1344.131 318.632 C 1334.809 273.729,1299.209 233.447,1253.675 216.280 C 1230.413 207.510,1184.795 203.077,1163.589 207.526 " fill="#1D1E23" stroke="none" fill-rule="evenodd"/></svg>