<svg viewBox="0 0 2400 2400" fill="none" xmlns="http://www.w3.org/2000/svg"><path d="M1163.589 207.526 C 1125.996 215.412,1073.154 264.037,1061.912 301.089 C 1050.893 337.408,1048.192 407.226,1048.095 658.325 L 1048.000 902.649 624.000 1151.849 L 200.000 1401.049 200.000 1492.035 C 200.000 1593.214,200.466 1595.051,224.836 1589.955 C 241.011 1586.573,494.677 1513.688,726.000 1445.958 C 948.286 1380.874,1036.213 1357.872,1039.901 1363.840 C 1042.852 1368.615,1048.000 1652.344,1048.000 1810.249 L 1048.000 1903.185 924.000 1976.579 L 800.000 2049.972 800.000 2120.750 C 800.000 2159.678,801.350 2192.289,803.000 2193.220 C 807.843 2195.952,851.898 2186.038,1031.000 2141.909 L 1200.000 2100.269 1369.000 2141.909 C 1548.102 2186.038,1592.157 2195.952,1597.000 2193.220 C 1598.650 2192.289,1600.000 2159.678,1600.000 2120.750 L 1600.000 2049.972 1475.365 1976.203 L 1350.729 1902.433 1353.142 1632.773 C 1354.469 1484.459,1356.385 1362.281,1357.400 1361.266 C 1362.357 1356.310,1497.721 1393.805,1880.000 1506.025 C 2150.705 1585.492,2186.655 1594.942,2193.245 1588.363 C 2196.566 1585.048,2198.363 1556.099,2199.205 1492.402 L 2200.410 1401.188 1776.205 1152.026 L 1352.000 902.864 1351.682 712.432 C 1351.507 607.694,1350.077 475.000,1348.505 417.556 L 1345.646 313.113 1332.461 286.331 C 1317.273 255.479,1287.462 228.966,1253.675 216.261 C 1230.394 207.506,1184.771 203.082,1163.589 207.526 " fill="#1D1E23" stroke="none" fill-rule="evenodd"/></svg>