<svg viewBox="0 0 2400 2400" fill="none" xmlns="http://www.w3.org/2000/svg"><path d="M100.000 1194.000 L 100.000 1388.000 176.000 1388.000 L 252.000 1388.000 252.000 1318.000 L 252.000 1248.000 384.000 1248.000 L 516.000 1248.000 516.000 1318.000 L 516.000 1388.000 594.000 1388.000 L 672.000 1388.000 672.000 1194.000 L 672.000 1000.000 594.000 1000.000 L 516.000 1000.000 516.000 1080.000 L 516.000 1160.000 384.000 1160.000 L 252.000 1160.000 252.000 1080.000 L 252.000 1000.000 176.000 1000.000 L 100.000 1000.000 100.000 1194.000 M732.000 1048.000 L 732.000 1096.000 946.000 1096.000 L 1160.000 1096.000 1160.000 1194.000 L 1160.000 1292.000 1020.000 1292.000 L 880.000 1292.000 880.000 1226.000 L 880.000 1160.000 806.000 1160.000 L 732.000 1160.000 732.000 1274.000 L 732.000 1388.000 971.000 1387.826 C 1102.450 1387.730,1217.611 1386.179,1226.913 1384.379 C 1246.984 1380.495,1274.843 1358.937,1291.982 1334.026 L 1304.000 1316.559 1304.000 1194.000 L 1304.000 1071.441 1292.399 1054.721 C 1275.930 1030.982,1259.546 1016.497,1243.699 1011.666 C 1221.953 1005.035,1084.086 1000.424,901.000 1000.204 L 732.000 1000.000 732.000 1048.000 M1368.000 1193.402 L 1368.000 1388.000 1442.000 1388.000 L 1516.000 1388.000 1516.000 1242.000 L 1516.000 1096.000 1584.000 1096.000 L 1652.000 1096.000 1652.000 1242.000 L 1652.000 1388.000 1726.000 1388.000 L 1800.000 1388.000 1800.000 1242.000 L 1800.000 1096.000 1870.000 1096.000 L 1940.000 1096.000 1940.000 1242.000 L 1940.000 1388.000 2014.640 1388.000 L 2089.281 1388.000 2086.727 1237.000 C 2085.171 1145.056,2082.407 1079.742,2079.659 1070.000 C 2076.677 1059.432,2067.481 1046.375,2052.572 1031.540 L 2030.000 1009.081 1996.000 1006.647 C 1977.300 1005.308,1828.350 1002.996,1665.000 1001.508 L 1368.000 998.805 1368.000 1193.402 M2148.000 1194.000 L 2148.000 1388.000 2224.000 1388.000 L 2300.000 1388.000 2300.000 1194.000 L 2300.000 1000.000 2224.000 1000.000 L 2148.000 1000.000 2148.000 1194.000 " fill="#1D1E23" stroke="none" fill-rule="evenodd"/></svg>