<svg viewBox="0 0 2400 2400" fill="none" xmlns="http://www.w3.org/2000/svg"><path d="M100.000 1194.000 L 100.000 1388.000 176.000 1388.000 L 252.000 1388.000 252.000 1318.000 L 252.000 1248.000 384.000 1248.000 L 516.000 1248.000 516.000 1318.000 L 516.000 1388.000 594.000 1388.000 L 672.000 1388.000 672.000 1194.000 L 672.000 1000.000 594.000 1000.000 L 516.000 1000.000 516.000 1080.000 L 516.000 1160.000 384.000 1160.000 L 252.000 1160.000 252.000 1080.000 L 252.000 1000.000 176.000 1000.000 L 100.000 1000.000 100.000 1194.000 M732.000 1048.000 L 732.000 1096.000 946.000 1096.000 L 1160.000 1096.000 1160.000 1194.000 L 1160.000 1292.000 1020.000 1292.000 L 880.000 1292.000 880.000 1226.000 L 880.000 1160.000 806.000 1160.000 L 732.000 1160.000 732.000 1274.000 L 732.000 1388.000 978.128 1388.000 C 1177.908 1388.000,1226.736 1386.964,1237.419 1382.500 C 1254.762 1375.254,1277.644 1354.866,1292.235 1333.659 L 1304.000 1316.559 1304.000 1193.915 L 1304.000 1071.272 1287.896 1048.314 C 1262.533 1012.156,1250.892 1007.488,1176.444 1003.616 C 1142.100 1001.830,1028.050 1000.285,923.000 1000.184 L 732.000 1000.000 732.000 1048.000 M1368.000 1193.346 L 1368.000 1388.000 1442.000 1388.000 L 1516.000 1388.000 1516.000 1242.000 L 1516.000 1096.000 1584.000 1096.000 L 1652.000 1096.000 1652.000 1242.000 L 1652.000 1388.000 1726.000 1388.000 L 1800.000 1388.000 1800.000 1242.000 L 1800.000 1096.000 1870.000 1096.000 L 1940.000 1096.000 1940.000 1242.000 L 1940.000 1388.000 2014.610 1388.000 L 2089.221 1388.000 2086.798 1235.000 C 2085.376 1145.175,2082.597 1075.906,2080.067 1067.243 C 2075.280 1050.849,2047.590 1020.130,2028.877 1010.454 C 2018.295 1004.982,1975.476 1003.834,1692.376 1001.437 L 1368.000 998.691 1368.000 1193.346 M2148.000 1194.000 L 2148.000 1388.000 2224.000 1388.000 L 2300.000 1388.000 2300.000 1194.000 L 2300.000 1000.000 2224.000 1000.000 L 2148.000 1000.000 2148.000 1194.000 " fill="#1D1E23" stroke="none" fill-rule="evenodd"/></svg>