<svg viewBox="0 0 2400 2400" fill="none" xmlns="http://www.w3.org/2000/svg"><path d="M1166.754 107.809 C 1148.548 113.687,1121.422 138.536,1112.028 157.942 C 1104.174 174.167,1103.082 184.446,1101.087 260.983 C 1099.868 307.742,1100.203 365.412,1101.830 389.138 C 1104.524 428.415,1105.917 433.954,1117.394 451.012 C 1141.516 486.862,1175.777 501.141,1221.300 494.314 C 1244.147 490.888,1272.135 470.020,1286.299 445.851 C 1296.372 428.662,1296.900 424.801,1298.727 354.950 C 1299.776 314.827,1299.043 255.465,1297.098 223.033 C 1293.725 166.781,1293.014 163.286,1281.657 147.127 C 1263.506 121.301,1238.972 107.999,1205.642 105.910 C 1190.439 104.958,1172.939 105.812,1166.754 107.809 M507.517 436.067 C 471.610 440.314,442.587 469.697,431.877 512.648 C 421.451 554.461,447.548 594.948,537.162 675.988 C 583.953 718.302,599.832 728.062,626.838 731.106 C 669.384 735.902,713.125 706.107,725.699 663.765 C 740.665 613.371,730.957 593.922,650.900 513.898 C 617.405 480.418,585.150 449.952,579.221 446.197 C 566.066 437.864,532.463 433.117,507.517 436.067 M1844.579 436.186 C 1823.531 440.464,1804.001 455.849,1749.330 511.222 C 1670.069 591.501,1657.152 618.737,1674.372 669.275 C 1691.938 720.830,1767.671 747.944,1811.867 718.500 C 1852.215 691.620,1932.356 611.761,1957.856 573.024 C 1968.297 557.163,1968.909 553.942,1967.172 523.944 C 1965.565 496.182,1963.679 489.583,1953.228 475.156 C 1930.569 443.877,1885.782 427.813,1844.579 436.186 M1128.000 708.311 C 1033.396 718.550,925.056 773.438,846.820 850.764 C 782.062 914.769,737.076 994.638,713.553 1087.366 C 704.998 1121.090,704.000 1133.704,704.000 1208.068 L 704.000 1291.111 720.256 1338.555 C 753.190 1434.679,782.187 1482.713,845.715 1546.387 C 923.693 1624.543,1002.031 1667.191,1110.000 1690.268 C 1153.606 1699.588,1242.232 1699.768,1288.839 1690.632 C 1444.571 1660.104,1571.703 1564.910,1642.923 1425.501 C 1684.500 1344.118,1696.000 1295.239,1696.000 1199.910 C 1696.000 1128.843,1691.030 1096.190,1671.965 1042.000 C 1624.597 907.360,1524.381 798.924,1396.274 743.694 C 1315.458 708.853,1228.710 697.411,1128.000 708.311 M173.407 1107.545 C 153.234 1111.052,133.691 1125.358,117.855 1148.210 C 106.925 1163.981,106.000 1168.043,106.000 1200.264 C 106.000 1232.943,106.806 1236.342,118.404 1252.606 C 125.227 1262.173,139.114 1275.673,149.266 1282.606 C 166.117 1294.115,171.477 1295.468,210.862 1298.157 C 234.588 1299.777,292.700 1299.828,340.000 1298.271 C 437.012 1295.077,448.388 1292.282,471.500 1265.958 C 489.918 1244.982,496.000 1228.607,496.000 1200.000 C 496.000 1171.555,489.916 1155.016,471.907 1134.505 C 446.832 1105.946,447.945 1106.149,312.000 1105.365 C 244.900 1104.977,182.533 1105.958,173.407 1107.545 M1973.407 1107.545 C 1953.234 1111.052,1933.691 1125.358,1917.855 1148.210 C 1906.925 1163.981,1906.000 1168.043,1906.000 1200.264 C 1906.000 1232.943,1906.806 1236.342,1918.404 1252.606 C 1925.227 1262.173,1939.114 1275.673,1949.266 1282.606 C 1966.117 1294.115,1971.477 1295.468,2010.862 1298.157 C 2034.588 1299.777,2092.700 1299.828,2140.000 1298.271 C 2237.012 1295.077,2248.388 1292.282,2271.500 1265.958 C 2289.918 1244.982,2296.000 1228.607,2296.000 1200.000 C 2296.000 1171.555,2289.916 1155.016,2271.907 1134.505 C 2246.832 1105.946,2247.945 1106.149,2112.000 1105.365 C 2044.900 1104.977,1982.533 1105.958,1973.407 1107.545 M611.029 1672.290 C 602.795 1674.255,589.295 1680.170,581.029 1685.435 C 558.340 1699.885,444.501 1817.823,437.829 1833.792 C 429.254 1854.314,430.222 1899.036,439.573 1914.370 C 448.188 1928.497,475.388 1951.579,496.000 1962.254 C 517.596 1973.439,545.844 1971.860,572.000 1958.008 C 597.673 1944.410,689.216 1854.516,713.575 1818.982 C 731.512 1792.815,736.126 1767.025,728.039 1738.138 C 715.171 1692.181,659.338 1660.760,611.029 1672.290 M1731.493 1674.031 C 1691.191 1686.930,1664.062 1732.161,1669.432 1777.503 C 1672.770 1805.685,1691.569 1831.584,1753.993 1894.000 C 1813.652 1953.651,1836.631 1968.555,1869.396 1968.849 C 1907.531 1969.192,1947.025 1942.603,1962.090 1906.445 C 1970.167 1887.061,1970.389 1854.480,1962.573 1835.895 C 1948.903 1803.394,1842.999 1697.911,1806.107 1680.052 C 1783.269 1668.996,1754.482 1666.673,1731.493 1674.031 M1166.754 1907.809 C 1148.548 1913.687,1121.422 1938.536,1112.028 1957.942 C 1104.174 1974.167,1103.082 1984.446,1101.087 2060.983 C 1099.868 2107.742,1100.203 2165.412,1101.830 2189.138 C 1104.524 2228.415,1105.917 2233.954,1117.394 2251.012 C 1141.516 2286.862,1175.777 2301.141,1221.300 2294.314 C 1244.147 2290.888,1272.135 2270.020,1286.299 2245.851 C 1296.372 2228.662,1296.900 2224.801,1298.727 2154.950 C 1299.776 2114.827,1299.043 2055.465,1297.098 2023.033 C 1293.725 1966.781,1293.014 1963.286,1281.657 1947.127 C 1263.506 1921.301,1238.972 1907.999,1205.642 1905.910 C 1190.439 1904.958,1172.939 1905.812,1166.754 1907.809 " fill="#1D1E23" stroke="none" fill-rule="evenodd"/></svg>