<svg viewBox="0 0 2400 2400" fill="none" xmlns="http://www.w3.org/2000/svg"><path d="M1100.000 300.000 L 1100.000 500.000 1200.000 500.000 L 1300.000 500.000 1300.000 300.000 L 1300.000 100.000 1200.000 100.000 L 1100.000 100.000 1100.000 300.000 M455.991 458.009 L 386.067 528.019 510.001 652.001 L 633.935 775.984 704.977 705.025 L 776.018 634.066 653.033 511.033 C 585.392 443.365,529.118 388.000,527.981 388.000 C 526.844 388.000,494.449 419.504,455.991 458.009 M1748.383 509.877 L 1627.281 631.755 1635.369 642.877 C 1639.817 648.995,1671.045 681.445,1704.764 714.989 L 1766.071 775.977 1890.002 651.998 L 2013.933 528.019 1944.009 458.009 C 1905.551 419.504,1873.051 388.000,1871.786 388.000 C 1870.521 388.000,1814.990 442.845,1748.383 509.877 M1154.000 702.385 C 1053.369 717.035,994.165 738.823,919.772 788.583 C 816.183 857.873,744.203 962.321,711.992 1090.086 C 704.189 1121.040,702.948 1136.220,703.009 1200.000 C 703.084 1278.539,705.664 1296.009,726.400 1358.370 C 813.319 1619.773,1104.267 1762.719,1363.337 1671.306 C 1530.912 1612.178,1650.239 1475.909,1690.232 1298.000 C 1700.383 1252.842,1700.421 1146.585,1690.301 1102.000 C 1637.274 868.368,1447.264 709.427,1212.208 702.082 C 1186.794 701.288,1160.600 701.424,1154.000 702.385 M100.000 1200.000 L 100.000 1300.000 300.000 1300.000 L 500.000 1300.000 500.000 1200.000 L 500.000 1100.000 300.000 1100.000 L 100.000 1100.000 100.000 1200.000 M1900.000 1200.000 L 1900.000 1300.000 2100.000 1300.000 L 2300.000 1300.000 2300.000 1200.000 L 2300.000 1100.000 2100.000 1100.000 L 1900.000 1100.000 1900.000 1200.000 M510.959 1747.041 L 387.982 1870.066 459.023 1941.025 L 530.065 2011.984 653.041 1888.959 L 776.018 1765.934 704.977 1694.975 L 633.935 1624.016 510.959 1747.041 M1693.795 1696.541 L 1623.797 1766.000 1747.903 1889.981 L 1872.010 2013.962 1942.984 1942.988 L 2013.958 1872.014 1907.979 1765.743 C 1849.690 1707.294,1793.404 1652.184,1782.897 1643.277 L 1763.794 1627.083 1693.795 1696.541 M1100.000 2100.000 L 1100.000 2300.000 1200.000 2300.000 L 1300.000 2300.000 1300.000 2100.000 L 1300.000 1900.000 1200.000 1900.000 L 1100.000 1900.000 1100.000 2100.000 " fill="#1D1E23" stroke="none" fill-rule="evenodd"/></svg>