<svg viewBox="0 0 2400 2400" fill="none" xmlns="http://www.w3.org/2000/svg"><path d="M1161.421 109.786 C 1140.754 118.779,1117.008 143.107,1109.234 163.254 C 1102.823 179.867,1102.000 195.885,1102.000 304.000 C 1102.000 421.896,1102.295 426.551,1110.764 442.379 C 1120.969 461.449,1143.803 482.655,1162.581 490.500 C 1179.512 497.575,1220.488 497.575,1237.419 490.500 C 1256.198 482.654,1279.032 461.448,1289.235 442.379 C 1297.675 426.605,1297.999 421.719,1297.999 310.000 C 1298.000 246.200,1296.511 185.259,1294.691 174.576 C 1290.667 150.950,1268.547 124.899,1241.861 112.355 C 1220.983 102.541,1181.007 101.264,1161.421 109.786 M495.036 437.438 C 471.509 446.234,460.407 455.080,447.651 475.195 C 425.664 509.864,423.666 539.473,440.984 574.000 C 453.154 598.265,566.145 708.367,592.201 721.351 C 654.549 752.421,723.551 712.706,730.898 641.523 C 734.186 609.661,725.354 591.441,684.928 546.692 C 644.722 502.187,589.599 451.101,571.914 441.955 C 554.605 433.005,513.373 430.582,495.036 437.438 M1841.025 435.695 C 1833.888 437.502,1824.888 441.455,1821.025 444.481 C 1770.660 483.928,1686.821 572.935,1674.960 599.551 C 1663.497 625.273,1666.464 660.957,1682.163 686.152 C 1703.706 720.729,1753.319 739.390,1793.670 728.092 C 1828.179 718.431,1960.791 587.172,1966.434 557.092 C 1967.802 549.800,1968.181 532.209,1967.276 517.999 C 1965.965 497.407,1963.209 488.718,1953.692 475.177 C 1935.712 449.594,1908.665 434.540,1878.577 433.368 C 1865.060 432.842,1848.161 433.889,1841.025 435.695 M1099.748 712.106 C 1054.053 721.852,1021.590 733.100,982.644 752.682 C 842.036 823.378,752.151 936.178,711.521 1092.924 C 704.077 1121.640,703.388 1133.753,704.777 1211.454 L 706.325 1298.000 722.868 1346.532 C 752.517 1433.509,788.473 1492.906,846.037 1550.000 C 1010.107 1712.730,1255.866 1745.195,1451.882 1630.031 C 1553.695 1570.214,1629.807 1477.351,1671.531 1362.043 C 1691.316 1307.363,1696.787 1272.947,1696.972 1202.000 C 1697.155 1132.059,1693.413 1105.284,1676.011 1052.033 C 1616.963 871.340,1469.256 742.069,1285.160 709.965 C 1237.208 701.603,1143.941 702.680,1099.748 712.106 M208.000 1104.032 C 179.992 1105.500,161.867 1108.458,153.594 1112.912 C 137.789 1121.421,116.683 1145.388,109.179 1163.347 C 101.800 1181.008,101.857 1219.128,109.289 1236.916 C 117.329 1256.157,138.370 1278.934,157.621 1289.235 C 173.395 1297.675,178.281 1297.999,290.000 1297.999 C 353.800 1298.000,414.741 1296.511,425.424 1294.691 C 440.000 1292.209,449.320 1287.261,462.761 1274.871 C 488.265 1251.363,496.706 1232.744,496.706 1200.000 C 496.706 1167.268,488.265 1148.637,462.802 1125.166 C 447.769 1111.310,441.518 1108.342,423.465 1106.490 C 390.517 1103.112,255.054 1101.566,208.000 1104.032 M2008.000 1104.032 C 1979.992 1105.500,1961.867 1108.458,1953.594 1112.912 C 1937.789 1121.421,1916.683 1145.388,1909.179 1163.347 C 1901.800 1181.008,1901.857 1219.128,1909.289 1236.916 C 1917.329 1256.157,1938.370 1278.934,1957.621 1289.235 C 1973.395 1297.675,1978.281 1297.999,2090.000 1297.999 C 2153.800 1298.000,2214.741 1296.511,2225.424 1294.691 C 2240.000 1292.209,2249.320 1287.261,2262.761 1274.871 C 2288.265 1251.363,2296.706 1232.744,2296.706 1200.000 C 2296.706 1167.268,2288.265 1148.637,2262.802 1125.166 C 2247.769 1111.310,2241.518 1108.342,2223.465 1106.490 C 2190.517 1103.112,2055.054 1101.566,2008.000 1104.032 M602.992 1673.463 C 594.737 1676.543,581.237 1684.202,572.992 1690.483 C 545.333 1711.553,445.070 1815.667,437.911 1830.752 C 428.598 1850.377,428.159 1893.491,437.100 1910.480 C 447.469 1930.184,481.972 1958.683,504.527 1966.175 C 552.073 1981.967,593.961 1956.177,682.951 1856.322 C 723.144 1811.222,732.609 1794.178,732.829 1766.507 C 733.234 1715.640,692.868 1673.320,640.290 1669.488 C 627.014 1668.521,611.931 1670.128,602.992 1673.463 M1728.720 1674.743 C 1703.049 1683.821,1682.113 1705.797,1674.434 1731.726 C 1666.081 1759.932,1666.412 1782.137,1675.481 1802.000 C 1691.083 1836.168,1796.741 1943.858,1831.048 1960.558 C 1855.946 1972.678,1887.741 1972.830,1910.538 1960.937 C 1962.596 1933.779,1983.512 1878.623,1960.192 1830.000 C 1949.568 1807.849,1865.912 1721.207,1828.000 1693.090 C 1794.232 1668.046,1763.641 1662.393,1728.720 1674.743 M1161.421 1909.786 C 1140.754 1918.779,1117.008 1943.107,1109.234 1963.254 C 1102.823 1979.867,1102.000 1995.885,1102.000 2104.000 C 1102.000 2221.896,1102.295 2226.551,1110.764 2242.379 C 1120.969 2261.449,1143.803 2282.655,1162.581 2290.500 C 1169.820 2293.525,1186.659 2296.000,1200.000 2296.000 C 1213.341 2296.000,1230.180 2293.525,1237.419 2290.500 C 1256.198 2282.654,1279.032 2261.448,1289.235 2242.379 C 1297.675 2226.605,1297.999 2221.719,1297.999 2110.000 C 1298.000 2046.200,1296.511 1985.259,1294.691 1974.576 C 1290.667 1950.950,1268.547 1924.899,1241.861 1912.355 C 1220.983 1902.541,1181.007 1901.264,1161.421 1909.786 " fill="#1D1E23" stroke="none" fill-rule="evenodd"/></svg>