<svg viewBox="0 0 2400 2400" fill="none" xmlns="http://www.w3.org/2000/svg"><path d="M1100.000 300.000 L 1100.000 500.000 1200.000 500.000 L 1300.000 500.000 1300.000 300.000 L 1300.000 100.000 1200.000 100.000 L 1100.000 100.000 1100.000 300.000 M455.991 458.009 L 386.067 528.019 510.001 652.001 L 633.935 775.984 704.977 705.025 L 776.018 634.066 653.033 511.033 C 585.392 443.365,529.118 388.000,527.981 388.000 C 526.844 388.000,494.449 419.504,455.991 458.009 M1748.411 509.589 L 1626.870 631.179 1635.163 642.589 C 1639.725 648.865,1671.045 681.445,1704.764 714.989 L 1766.071 775.977 1890.002 651.998 L 2013.933 528.019 1944.009 458.009 C 1905.551 419.504,1873.155 388.000,1872.018 388.000 C 1870.881 388.000,1815.258 442.715,1748.411 509.589 M1133.823 707.776 C 1065.090 715.734,989.544 745.119,920.343 790.814 C 879.106 818.043,813.253 883.079,787.487 922.020 C 751.429 976.517,722.201 1044.795,709.713 1103.704 C 706.018 1121.138,704.116 1157.210,704.069 1210.737 L 704.000 1291.475 720.528 1338.541 C 754.390 1434.971,782.068 1481.368,841.286 1540.972 C 922.281 1622.496,1004.535 1668.089,1109.872 1689.846 C 1148.513 1697.828,1248.519 1698.062,1289.263 1690.266 C 1447.447 1660.001,1583.263 1553.645,1652.558 1405.775 C 1685.806 1334.825,1695.958 1286.606,1695.984 1199.524 C 1696.004 1131.870,1688.523 1087.510,1667.802 1032.419 C 1605.649 867.173,1468.298 748.899,1298.125 714.089 C 1260.774 706.449,1174.066 703.117,1133.823 707.776 M100.000 1200.000 L 100.000 1300.000 300.000 1300.000 L 500.000 1300.000 500.000 1200.000 L 500.000 1100.000 300.000 1100.000 L 100.000 1100.000 100.000 1200.000 M1900.000 1200.000 L 1900.000 1300.000 2100.000 1300.000 L 2300.000 1300.000 2300.000 1200.000 L 2300.000 1100.000 2100.000 1100.000 L 1900.000 1100.000 1900.000 1200.000 M510.959 1747.041 L 387.982 1870.066 459.023 1941.025 L 530.065 2011.984 653.041 1888.959 L 776.018 1765.934 704.977 1694.975 L 633.935 1624.016 510.959 1747.041 M1692.966 1697.033 L 1624.017 1766.066 1748.014 1890.014 L 1872.010 2013.962 1943.005 1942.736 L 2014.000 1871.510 1890.863 1749.755 C 1823.138 1682.790,1766.418 1628.000,1764.820 1628.000 C 1763.222 1628.000,1730.887 1659.065,1692.966 1697.033 M1100.000 2100.000 L 1100.000 2300.000 1200.000 2300.000 L 1300.000 2300.000 1300.000 2100.000 L 1300.000 1900.000 1200.000 1900.000 L 1100.000 1900.000 1100.000 2100.000 " fill="#1D1E23" stroke="none" fill-rule="evenodd"/></svg>