<svg viewBox="0 0 2400 2400" fill="none" xmlns="http://www.w3.org/2000/svg"><path d="M1100.000 300.000 L 1100.000 500.000 1200.000 500.000 L 1300.000 500.000 1300.000 300.000 L 1300.000 100.000 1200.000 100.000 L 1100.000 100.000 1100.000 300.000 M455.991 458.009 L 386.067 528.019 510.001 652.001 L 633.935 775.984 704.977 705.025 L 776.018 634.066 653.033 511.033 C 585.392 443.365,529.118 388.000,527.981 388.000 C 526.844 388.000,494.449 419.504,455.991 458.009 M1748.975 509.024 C 1682.439 575.588,1628.000 631.857,1628.000 634.067 C 1628.000 636.277,1659.065 669.113,1697.033 707.034 L 1766.066 775.983 1889.999 652.001 L 2013.933 528.019 1944.009 458.009 C 1905.551 419.504,1873.155 388.000,1872.018 388.000 C 1870.881 388.000,1815.512 442.461,1748.975 509.024 M1134.000 704.581 C 1088.581 710.370,1032.812 726.997,989.628 747.625 C 840.667 818.778,739.486 948.760,707.546 1110.000 C 700.249 1146.837,700.249 1253.163,707.546 1290.000 C 746.754 1487.934,889.601 1637.396,1086.904 1686.927 C 1150.248 1702.828,1249.752 1702.828,1313.096 1686.927 C 1411.971 1662.105,1491.313 1616.937,1558.361 1547.302 C 1624.091 1479.035,1663.117 1407.942,1686.927 1313.096 C 1696.631 1274.439,1697.745 1262.790,1697.745 1200.000 C 1697.745 1137.210,1696.631 1125.561,1686.927 1086.904 C 1673.776 1034.517,1653.389 984.088,1629.156 944.000 C 1525.830 773.070,1331.991 679.345,1134.000 704.581 M100.000 1200.000 L 100.000 1300.000 300.000 1300.000 L 500.000 1300.000 500.000 1200.000 L 500.000 1100.000 300.000 1100.000 L 100.000 1100.000 100.000 1200.000 M1900.000 1200.000 L 1900.000 1300.000 2100.000 1300.000 L 2300.000 1300.000 2300.000 1200.000 L 2300.000 1100.000 2100.000 1100.000 L 1900.000 1100.000 1900.000 1200.000 M510.959 1747.041 L 387.982 1870.066 459.023 1941.025 L 530.065 2011.984 653.041 1888.959 L 776.018 1765.934 704.977 1694.975 L 633.935 1624.016 510.959 1747.041 M1692.966 1697.033 L 1624.017 1766.066 1748.014 1890.014 L 1872.010 2013.962 1942.986 1942.986 L 2013.961 1872.011 1892.005 1750.005 C 1824.929 1682.902,1768.219 1628.000,1765.982 1628.000 C 1763.745 1628.000,1730.887 1659.065,1692.966 1697.033 M1100.000 2100.000 L 1100.000 2300.000 1200.000 2300.000 L 1300.000 2300.000 1300.000 2100.000 L 1300.000 1900.000 1200.000 1900.000 L 1100.000 1900.000 1100.000 2100.000 " fill="#1D1E23" stroke="none" fill-rule="evenodd"/></svg>