<svg viewBox="0 0 2400 2400" fill="none" xmlns="http://www.w3.org/2000/svg"><path d="M1146.985 119.592 C 1128.395 133.666,1117.714 147.027,1109.271 166.766 C 1104.040 178.997,1102.400 201.316,1100.953 280.000 C 1098.804 396.791,1102.313 430.065,1119.268 453.661 C 1144.933 489.380,1194.568 505.272,1233.741 490.311 C 1255.320 482.070,1282.431 456.639,1290.920 436.674 C 1299.140 417.342,1302.577 281.386,1296.590 212.421 C 1292.800 168.765,1290.978 160.955,1281.335 147.041 C 1275.313 138.350,1261.298 126.027,1250.192 119.657 C 1232.219 109.348,1226.263 108.083,1196.000 108.149 C 1164.888 108.216,1160.724 109.188,1146.985 119.592 M485.777 443.545 C 463.779 453.536,441.069 481.093,433.568 506.893 C 428.033 525.934,428.046 530.112,433.705 549.577 C 442.270 579.038,474.527 619.161,529.370 668.567 C 588.744 722.055,602.574 730.000,636.314 730.000 C 658.631 730.000,665.617 728.156,682.314 717.856 C 705.519 703.542,726.304 672.040,730.351 645.051 C 736.075 606.880,720.639 583.143,635.712 499.523 C 588.741 453.274,577.671 444.363,562.421 440.523 C 536.014 433.874,504.317 435.123,485.777 443.545 M1819.145 448.073 C 1789.294 467.845,1690.981 571.453,1678.717 596.065 C 1651.668 650.344,1680.229 708.215,1743.082 726.487 C 1767.080 733.463,1785.301 731.637,1807.814 719.999 C 1840.807 702.944,1942.403 601.531,1961.000 567.089 C 1968.970 552.329,1970.118 521.969,1963.613 498.000 C 1953.825 461.931,1913.007 436.104,1865.686 436.039 C 1840.845 436.005,1835.136 437.481,1819.145 448.073 M1133.823 707.776 C 1065.090 715.734,989.544 745.119,920.343 790.814 C 879.106 818.043,813.253 883.079,787.487 922.020 C 751.429 976.517,722.201 1044.795,709.713 1103.704 C 706.018 1121.138,704.116 1157.210,704.069 1210.737 L 704.000 1291.475 720.528 1338.541 C 754.390 1434.971,782.068 1481.368,841.286 1540.972 C 922.281 1622.496,1004.535 1668.089,1109.872 1689.846 C 1148.513 1697.828,1248.519 1698.062,1289.263 1690.266 C 1447.447 1660.001,1583.263 1553.645,1652.558 1405.775 C 1685.806 1334.825,1695.958 1286.606,1695.984 1199.524 C 1696.004 1131.870,1688.523 1087.510,1667.802 1032.419 C 1605.649 867.173,1468.298 748.899,1298.125 714.089 C 1260.774 706.449,1174.066 703.117,1133.823 707.776 M199.676 1107.474 C 167.589 1109.589,158.789 1111.699,145.608 1120.440 C 113.651 1141.631,100.400 1174.564,105.952 1218.998 C 108.386 1238.485,111.208 1243.871,128.637 1262.299 C 162.709 1298.325,161.372 1298.031,290.000 1297.791 C 427.882 1297.533,442.212 1295.181,468.076 1268.554 C 494.384 1241.469,502.686 1205.243,491.296 1167.227 C 485.198 1146.873,459.359 1117.666,442.906 1112.529 C 427.153 1107.610,252.638 1103.984,199.676 1107.474 M1999.676 1107.474 C 1967.589 1109.589,1958.789 1111.699,1945.608 1120.440 C 1913.651 1141.631,1900.400 1174.564,1905.952 1218.998 C 1908.386 1238.485,1911.208 1243.871,1928.637 1262.299 C 1962.709 1298.325,1961.372 1298.031,2090.000 1297.791 C 2227.882 1297.533,2242.212 1295.181,2268.076 1268.554 C 2294.384 1241.469,2302.686 1205.243,2291.296 1167.227 C 2285.198 1146.873,2259.359 1117.666,2242.906 1112.529 C 2227.153 1107.610,2052.638 1103.984,1999.676 1107.474 M590.000 1680.419 C 573.564 1689.137,478.098 1782.589,449.833 1817.628 C 434.117 1837.112,434.000 1837.512,434.000 1871.926 C 434.000 1903.505,434.972 1907.872,444.900 1920.901 C 450.896 1928.768,466.851 1942.584,480.356 1951.603 C 501.945 1966.019,507.635 1967.987,527.456 1967.895 C 558.960 1967.749,575.265 1959.062,617.374 1919.987 C 674.934 1866.575,712.191 1824.550,723.090 1800.743 C 742.082 1759.260,727.547 1713.378,687.215 1687.495 C 668.755 1675.648,662.511 1673.874,636.093 1672.966 C 611.770 1672.131,602.932 1673.560,590.000 1680.419 M1719.601 1679.964 C 1690.225 1695.490,1667.836 1734.504,1668.088 1769.726 C 1668.195 1784.701,1680.364 1812.410,1694.297 1829.406 C 1718.113 1858.458,1803.485 1941.347,1821.576 1952.982 C 1861.124 1978.419,1911.291 1970.210,1944.103 1932.933 C 1968.711 1904.977,1975.164 1865.894,1960.436 1834.000 C 1944.047 1798.507,1845.886 1701.682,1806.215 1681.877 C 1781.000 1669.290,1741.450 1668.416,1719.601 1679.964 M1146.985 1919.592 C 1128.395 1933.666,1117.714 1947.027,1109.271 1966.766 C 1104.040 1978.997,1102.400 2001.316,1100.953 2080.000 C 1098.804 2196.791,1102.313 2230.065,1119.268 2253.661 C 1144.933 2289.380,1194.568 2305.272,1233.741 2290.311 C 1255.320 2282.070,1282.431 2256.639,1290.920 2236.674 C 1299.140 2217.342,1302.577 2081.386,1296.590 2012.421 C 1292.800 1968.765,1290.978 1960.955,1281.335 1947.041 C 1275.313 1938.350,1261.298 1926.027,1250.192 1919.657 C 1232.219 1909.348,1226.263 1908.083,1196.000 1908.149 C 1164.888 1908.216,1160.724 1909.188,1146.985 1919.592 " fill="#1D1E23" stroke="none" fill-rule="evenodd"/></svg>