<svg viewBox="0 0 2400 2400" fill="none" xmlns="http://www.w3.org/2000/svg"><path d="M1164.342 106.868 C 1154.630 110.299,1139.161 120.628,1129.967 129.823 C 1104.857 154.932,1100.000 173.754,1100.000 245.947 L 1100.000 306.470 1063.000 311.623 C 1042.650 314.457,1002.600 322.747,974.000 330.044 C 725.052 393.566,511.549 566.579,393.959 800.081 C 354.033 879.365,321.398 985.264,308.931 1076.000 L 305.908 1098.000 239.954 1100.000 C 165.156 1102.268,146.546 1107.912,124.107 1135.135 C 82.889 1185.139,98.075 1260.610,154.995 1288.641 C 171.908 1296.970,181.260 1298.220,239.954 1300.000 L 305.908 1302.000 308.931 1324.000 C 348.972 1615.419,534.038 1872.064,801.130 2006.569 C 878.638 2045.602,986.567 2078.781,1076.000 2091.069 L 1098.000 2094.092 1100.000 2160.046 C 1102.268 2234.844,1107.912 2253.454,1135.135 2275.893 C 1185.139 2317.111,1260.610 2301.925,1288.641 2245.005 C 1296.970 2228.092,1298.220 2218.740,1300.000 2160.046 L 1302.000 2094.092 1324.000 2091.069 C 1615.325 2051.041,1872.107 1865.876,2006.569 1598.870 C 2045.602 1521.362,2078.781 1413.433,2091.069 1324.000 L 2094.092 1302.000 2160.046 1300.000 C 2234.844 1297.732,2253.454 1292.088,2275.893 1264.865 C 2317.111 1214.861,2301.925 1139.390,2245.005 1111.359 C 2228.092 1103.030,2218.740 1101.780,2160.046 1100.000 L 2094.092 1098.000 2091.069 1076.000 C 2064.653 883.747,1973.488 701.514,1835.460 565.058 C 1782.927 513.124,1749.936 486.015,1694.000 448.821 C 1590.675 380.115,1455.336 328.104,1337.000 311.623 L 1300.000 306.470 1300.000 245.947 C 1300.000 173.810,1295.135 154.925,1270.105 129.895 C 1242.352 102.141,1202.370 93.437,1164.342 106.868 M1268.576 504.197 C 1321.638 509.572,1374.364 520.549,1421.034 535.935 C 1472.502 552.904,1562.752 598.786,1607.972 630.973 C 1656.655 665.625,1734.375 743.345,1769.027 792.028 C 1801.203 837.232,1847.095 927.494,1864.049 978.918 C 1892.825 1066.203,1904.531 1165.170,1896.705 1255.000 C 1887.892 1356.145,1868.851 1423.944,1823.966 1514.000 C 1787.555 1587.053,1752.915 1635.022,1694.000 1693.972 C 1589.398 1798.635,1465.294 1863.471,1318.000 1890.405 C 1261.934 1900.657,1138.066 1900.657,1082.000 1890.405 C 934.706 1863.471,810.602 1798.635,706.000 1693.972 C 649.620 1637.558,613.984 1588.932,578.503 1520.000 C 518.088 1402.626,492.127 1273.181,503.295 1145.000 C 512.109 1043.843,534.157 966.155,578.503 880.000 C 614.001 811.035,649.636 762.421,706.028 706.028 C 764.904 647.153,812.845 612.511,886.000 575.983 C 1009.854 514.139,1134.972 490.661,1268.576 504.197 " fill="#1D1E23" stroke="none" fill-rule="evenodd"/></svg>