<svg viewBox="0 0 2400 2400" fill="none" xmlns="http://www.w3.org/2000/svg"><path d="M1160.088 110.778 C 1138.294 121.908,1113.365 148.286,1107.898 166.000 C 1105.183 174.800,1102.111 210.133,1101.072 244.517 L 1099.183 307.034 1068.591 311.886 C 1021.433 319.366,921.530 345.748,880.807 361.475 C 831.637 380.465,749.736 422.561,708.000 450.296 C 602.596 520.342,499.145 625.957,435.246 728.756 C 376.998 822.462,327.507 957.197,309.735 1070.448 C 308.315 1079.495,305.661 1089.312,303.837 1092.264 C 301.492 1096.058,281.344 1099.007,235.052 1102.330 C 183.676 1106.018,166.184 1108.777,153.792 1115.148 C 94.037 1145.870,84.859 1227.321,135.951 1273.480 C 155.984 1291.578,169.871 1295.142,240.000 1300.178 C 271.900 1302.469,299.984 1305.008,302.408 1305.819 C 304.832 1306.631,308.000 1317.375,309.449 1329.696 C 313.982 1368.269,342.516 1472.520,362.164 1522.293 C 474.704 1807.392,703.632 2004.110,1008.886 2078.023 C 1030.861 2083.344,1059.103 2088.859,1071.647 2090.278 L 1094.453 2092.858 1099.106 2153.429 C 1106.250 2246.423,1114.745 2266.970,1153.991 2286.171 C 1196.217 2306.830,1242.605 2298.224,1273.530 2263.993 C 1291.354 2244.265,1295.565 2228.136,1299.945 2162.820 C 1303.017 2117.013,1306.132 2096.000,1309.849 2096.000 C 1310.396 2096.000,1339.224 2089.737,1373.911 2082.082 C 1602.602 2031.615,1784.201 1915.603,1924.190 1730.544 C 2007.210 1620.794,2057.819 1496.647,2094.254 1313.360 C 2095.810 1305.533,2099.264 1304.491,2130.986 1302.282 C 2236.396 1294.940,2262.020 1287.031,2280.923 1256.000 C 2311.434 1205.914,2298.093 1145.973,2250.185 1117.897 C 2231.493 1106.943,2188.564 1100.579,2130.000 1100.081 C 2116.800 1099.969,2103.613 1098.364,2100.695 1096.514 C 2097.777 1094.664,2091.051 1072.665,2085.748 1047.627 C 2038.221 823.223,1943.276 656.154,1786.897 521.760 C 1662.962 415.249,1502.478 340.033,1343.545 313.969 L 1301.090 307.007 1299.080 242.504 C 1296.444 157.943,1289.698 141.177,1248.577 116.991 C 1225.362 103.337,1180.786 100.207,1160.088 110.778 M1292.545 509.820 C 1378.639 521.282,1433.197 538.329,1512.731 578.619 C 1589.645 617.583,1620.255 639.512,1681.562 699.570 C 1754.390 770.915,1776.841 801.743,1821.627 891.894 C 1882.543 1014.515,1891.938 1056.648,1891.976 1207.372 C 1891.996 1285.156,1890.660 1307.318,1883.974 1340.125 C 1873.078 1393.596,1856.427 1439.462,1823.756 1506.000 C 1789.227 1576.321,1766.151 1611.373,1720.927 1662.195 C 1549.430 1854.919,1298.308 1936.763,1048.315 1881.407 C 812.306 1829.148,615.031 1650.555,538.643 1420.000 C 519.470 1362.129,512.838 1327.781,507.496 1258.663 C 502.445 1193.316,506.894 1108.779,518.346 1052.472 C 551.635 888.808,661.387 725.246,805.300 624.832 C 858.785 587.513,961.584 540.940,1027.714 524.067 C 1106.269 504.024,1207.928 498.555,1292.545 509.820 " fill="#1D1E23" stroke="none" fill-rule="evenodd"/></svg>