<svg viewBox="0 0 2400 2400" fill="none" xmlns="http://www.w3.org/2000/svg"><path d="M1100.000 203.755 L 1100.000 307.510 1081.000 310.062 C 1047.369 314.579,943.189 340.695,902.259 354.869 C 823.117 382.276,734.460 429.791,662.027 483.618 C 616.206 517.670,534.591 595.896,498.872 640.000 C 411.155 748.307,350.426 880.616,315.734 1039.000 L 302.372 1100.000 201.186 1100.000 L 100.000 1100.000 100.000 1199.362 L 100.000 1298.723 197.744 1301.389 C 251.502 1302.855,297.852 1304.981,300.744 1306.113 C 303.931 1307.362,310.369 1330.576,317.099 1365.086 C 354.703 1557.924,453.166 1732.441,599.207 1865.098 C 716.384 1971.536,863.246 2045.449,1033.359 2083.599 C 1061.606 2089.934,1086.528 2096.928,1088.741 2099.141 C 1093.436 2103.836,1099.577 2190.183,1099.827 2255.000 L 1100.000 2300.000 1199.362 2300.000 L 1298.724 2300.000 1301.218 2202.703 C 1302.589 2149.190,1304.778 2102.626,1306.083 2099.227 C 1307.616 2095.232,1315.971 2092.165,1329.726 2090.548 C 1363.699 2086.555,1459.647 2061.193,1506.720 2043.763 C 1739.391 1957.608,1934.926 1770.105,2027.888 1544.000 C 2050.940 1487.935,2077.313 1400.772,2087.694 1346.347 C 2094.540 1310.453,2094.678 1310.189,2107.930 1307.479 C 2115.269 1305.978,2161.487 1303.444,2210.637 1301.848 L 2300.000 1298.945 2300.000 1199.473 L 2300.000 1100.000 2198.637 1100.000 L 2097.273 1100.000 2092.311 1077.000 C 2066.637 957.997,2043.176 886.532,2002.032 802.000 C 1907.503 607.784,1752.518 461.992,1548.000 374.898 C 1477.311 344.795,1389.662 320.017,1319.000 310.160 L 1300.000 307.510 1300.000 203.755 L 1300.000 100.000 1200.000 100.000 L 1100.000 100.000 1100.000 203.755 M1272.135 508.206 C 1361.961 517.423,1421.106 534.403,1503.099 574.510 C 1583.590 613.882,1621.410 641.116,1688.263 707.845 C 1756.439 775.894,1781.886 811.714,1825.776 901.412 C 1882.757 1017.866,1889.773 1051.444,1889.834 1208.000 C 1889.873 1310.179,1889.207 1320.702,1880.457 1356.000 C 1861.100 1434.099,1804.096 1555.300,1757.618 1617.182 C 1690.013 1707.192,1593.395 1785.760,1491.268 1833.775 C 1304.806 1921.439,1086.704 1919.364,898.000 1828.129 C 759.993 1761.406,646.552 1648.629,575.984 1508.000 C 552.130 1460.462,523.199 1376.054,516.147 1333.421 C 503.917 1259.490,504.651 1128.079,517.679 1058.920 C 527.830 1005.040,545.386 955.385,575.991 894.000 C 631.374 782.916,717.420 683.644,814.000 619.406 C 848.508 596.454,935.247 554.887,983.036 538.401 C 1068.345 508.971,1173.039 498.036,1272.135 508.206 M1100.000 815.877 C 1056.903 827.334,987.558 863.107,949.006 893.769 C 877.394 950.725,824.719 1039.956,807.820 1132.936 C 801.485 1167.792,802.426 1240.427,809.654 1274.554 C 827.200 1357.392,862.172 1422.780,919.696 1480.304 C 971.860 1532.468,1033.721 1567.554,1107.177 1586.636 C 1139.279 1594.976,1155.349 1596.733,1200.000 1596.785 C 1269.045 1596.865,1313.855 1586.041,1379.640 1553.389 C 1420.448 1533.135,1429.900 1526.273,1468.907 1488.587 C 1520.598 1438.647,1553.502 1391.901,1570.917 1343.661 C 1590.335 1289.874,1593.840 1267.622,1593.864 1198.000 C 1593.883 1143.617,1592.500 1128.891,1584.661 1100.000 C 1573.195 1057.738,1549.662 1006.942,1526.577 974.626 C 1489.329 922.482,1416.361 862.171,1359.122 836.218 C 1312.827 815.227,1292.097 811.586,1208.000 809.674 C 1139.175 808.109,1126.471 808.839,1100.000 815.877 " fill="#1D1E23" stroke="none" fill-rule="evenodd"/></svg>