<svg viewBox="0 0 2400 2400" fill="none" xmlns="http://www.w3.org/2000/svg"><path d="M1161.328 111.482 C 1139.315 121.825,1113.191 149.196,1107.957 167.403 C 1105.649 175.432,1102.639 210.281,1101.269 244.847 L 1098.777 307.693 1080.388 310.153 C 1047.719 314.524,943.124 340.721,902.000 354.832 C 848.185 373.299,757.835 418.296,707.305 451.796 C 602.521 521.266,494.540 631.895,431.857 734.000 C 379.968 818.521,321.960 977.024,310.061 1066.799 C 308.545 1078.238,304.809 1089.668,301.759 1092.200 C 298.710 1094.731,268.716 1099.373,235.107 1102.515 C 161.339 1109.411,151.445 1112.338,130.299 1133.515 C 81.330 1182.558,104.945 1275.202,170.632 1291.742 C 180.348 1294.188,212.981 1298.150,243.149 1300.545 C 273.317 1302.940,299.673 1306.461,301.719 1308.369 C 303.764 1310.277,309.352 1331.224,314.137 1354.919 C 366.530 1614.368,510.041 1826.261,724.000 1960.074 C 808.709 2013.053,944.651 2066.402,1040.914 2084.445 C 1065.711 2089.092,1087.994 2093.439,1090.431 2094.104 C 1093.090 2094.829,1096.009 2112.643,1097.731 2138.656 C 1104.203 2236.451,1115.401 2267.236,1150.736 2284.375 C 1193.525 2305.129,1245.529 2296.177,1273.758 2263.198 C 1290.231 2243.953,1294.780 2226.651,1300.005 2163.370 C 1305.875 2092.264,1302.874 2097.900,1338.974 2090.180 C 1546.827 2045.733,1697.760 1968.185,1828.574 1838.630 C 1961.455 1707.027,2035.020 1570.998,2081.875 1370.248 C 2089.334 1338.293,2096.424 1310.551,2097.631 1308.597 C 2098.838 1306.644,2116.515 1303.798,2136.913 1302.273 C 2243.794 1294.283,2274.743 1280.961,2289.922 1236.412 C 2304.758 1192.871,2290.842 1145.236,2257.019 1123.787 C 2234.376 1109.426,2209.768 1104.180,2150.982 1101.178 C 2124.736 1099.838,2102.360 1096.838,2100.332 1094.388 C 2098.334 1091.975,2088.572 1057.600,2078.639 1018.000 C 2050.337 905.168,2021.842 830.394,1977.270 752.000 C 1843.366 516.485,1598.867 352.661,1317.589 309.986 L 1301.177 307.496 1298.889 244.748 C 1295.700 157.326,1287.949 138.380,1246.799 117.435 C 1219.818 103.702,1183.302 101.159,1161.328 111.482 M1272.135 508.206 C 1361.961 517.423,1421.106 534.403,1503.099 574.510 C 1583.590 613.882,1621.410 641.116,1688.263 707.845 C 1756.439 775.894,1781.886 811.714,1825.776 901.412 C 1882.757 1017.866,1889.773 1051.444,1889.834 1208.000 C 1889.873 1310.179,1889.207 1320.702,1880.457 1356.000 C 1861.100 1434.099,1804.096 1555.300,1757.618 1617.182 C 1690.013 1707.192,1593.395 1785.760,1491.268 1833.775 C 1304.806 1921.439,1086.704 1919.364,898.000 1828.129 C 759.993 1761.406,646.552 1648.629,575.984 1508.000 C 552.130 1460.462,523.199 1376.054,516.147 1333.421 C 503.917 1259.490,504.651 1128.079,517.679 1058.920 C 527.830 1005.040,545.386 955.385,575.991 894.000 C 631.374 782.916,717.420 683.644,814.000 619.406 C 848.508 596.454,935.247 554.887,983.036 538.401 C 1068.345 508.971,1173.039 498.036,1272.135 508.206 " fill="#1D1E23" stroke="none" fill-rule="evenodd"/></svg>