<svg viewBox="0 0 2400 2400" fill="none" xmlns="http://www.w3.org/2000/svg"><path d="M1174.463 104.261 C 1155.914 108.842,1130.966 126.426,1117.914 144.117 C 1104.383 162.457,1100.000 188.753,1100.000 251.591 L 1100.000 306.788 1065.089 311.672 C 1018.578 318.178,934.110 340.091,885.427 358.280 C 718.090 420.800,565.262 539.874,459.672 690.000 C 387.146 793.116,334.728 922.956,312.720 1054.000 L 305.330 1098.000 243.665 1100.479 C 209.749 1101.842,174.190 1105.104,164.645 1107.728 C 130.709 1117.058,100.000 1160.891,100.000 1200.000 C 100.000 1222.311,111.990 1251.025,128.343 1267.875 C 152.994 1293.277,164.878 1296.704,238.873 1299.746 C 274.554 1301.213,304.401 1303.220,305.201 1304.207 C 306.002 1305.193,308.853 1321.300,311.537 1340.000 C 318.087 1385.625,340.186 1469.374,357.954 1515.903 C 454.481 1768.687,661.821 1968.729,912.813 2051.231 C 972.016 2070.691,1062.276 2092.000,1085.503 2092.000 C 1091.276 2092.000,1096.162 2092.450,1096.359 2093.000 C 1096.556 2093.550,1098.235 2122.800,1100.089 2158.000 C 1104.175 2235.594,1107.731 2249.083,1129.672 2270.218 C 1173.242 2312.188,1244.629 2306.992,1278.843 2259.359 C 1294.914 2236.986,1300.000 2212.608,1300.000 2157.954 C 1300.000 2091.459,1298.320 2094.334,1340.685 2088.338 C 1389.097 2081.486,1469.509 2059.905,1521.599 2039.785 C 1696.283 1972.312,1847.711 1849.582,1953.153 1690.015 C 1995.228 1626.344,2027.547 1559.336,2051.875 1485.333 C 2070.565 1428.479,2092.000 1337.487,2092.000 1314.997 C 2092.000 1302.365,2102.141 1300.031,2157.500 1299.917 C 2202.646 1299.824,2241.633 1293.092,2257.594 1282.634 C 2274.330 1271.668,2291.138 1245.288,2296.416 1221.705 C 2306.180 1178.074,2286.925 1135.572,2247.731 1114.240 C 2228.168 1103.592,2223.504 1102.854,2160.864 1100.494 L 2094.671 1098.000 2087.478 1055.223 C 2044.643 800.494,1892.618 572.211,1676.993 438.830 C 1568.019 371.422,1440.508 325.131,1321.394 309.737 L 1300.788 307.074 1299.199 240.537 C 1297.444 167.044,1294.429 155.044,1272.109 132.725 C 1246.460 107.075,1208.211 95.926,1174.463 104.261 M1262.305 504.348 C 1315.830 509.674,1371.002 520.606,1415.760 534.753 C 1456.743 547.708,1554.225 595.680,1598.000 624.436 C 1641.073 652.730,1747.270 758.927,1775.564 802.000 C 1804.286 845.723,1852.240 943.148,1865.432 984.576 C 1907.647 1117.153,1908.469 1278.131,1867.590 1407.035 C 1851.040 1459.222,1809.824 1544.412,1777.244 1593.775 C 1738.909 1651.858,1649.861 1739.964,1588.000 1781.018 C 1507.103 1834.706,1421.063 1870.178,1327.335 1888.485 C 1261.890 1901.267,1138.110 1901.267,1072.665 1888.485 C 978.937 1870.178,892.897 1834.706,812.000 1781.018 C 753.161 1741.969,662.110 1652.541,624.417 1596.778 C 534.269 1463.415,491.599 1305.532,504.048 1151.403 C 515.036 1015.364,550.070 914.590,625.517 802.000 C 660.106 750.383,753.793 657.434,806.000 622.939 C 946.224 530.288,1105.912 488.786,1262.305 504.348 " fill="#1D1E23" stroke="none" fill-rule="evenodd"/></svg>