<svg viewBox="0 0 2400 2400" fill="none" xmlns="http://www.w3.org/2000/svg"><path d="M700.000 350.000 L 700.000 600.000 800.000 600.000 L 900.000 600.000 900.000 500.000 L 900.000 400.000 1400.000 400.000 L 1900.000 400.000 1900.000 1200.000 L 1900.000 2000.000 1400.000 2000.000 L 900.000 2000.000 900.000 1900.000 L 900.000 1800.000 800.000 1800.000 L 700.000 1800.000 700.000 2050.000 L 700.000 2300.000 1400.000 2300.000 L 2100.000 2300.000 2100.000 1200.000 L 2100.000 100.000 1400.000 100.000 L 700.000 100.000 700.000 350.000 M995.007 1050.987 L 700.020 1345.973 572.975 1218.975 L 445.930 1091.976 381.991 1156.009 L 318.052 1220.042 508.033 1410.022 L 698.014 1600.003 1057.978 1240.022 L 1417.943 880.040 1356.020 818.020 C 1321.962 783.909,1293.173 756.000,1292.045 756.000 C 1290.917 756.000,1157.249 888.744,995.007 1050.987 " fill="#1D1E23" stroke="none" fill-rule="evenodd"/></svg>