<svg viewBox="0 0 2400 2400" fill="none" xmlns="http://www.w3.org/2000/svg"><path d="M1058.000 107.845 L 838.000 110.000 817.647 121.283 C 766.593 149.587,731.575 188.401,711.390 239.058 C 702.531 261.289,702.253 265.902,702.422 388.000 C 702.625 534.640,703.683 541.219,731.400 568.076 C 769.351 604.848,826.319 606.093,866.164 571.020 C 889.988 550.049,895.929 529.334,898.863 457.000 L 901.175 400.000 1400.588 400.000 L 1900.000 400.000 1900.000 1200.000 L 1900.000 2000.000 1400.000 2000.000 L 900.000 2000.000 899.784 1961.000 C 899.283 1870.421,892.685 1848.137,859.179 1823.865 C 811.041 1788.994,738.238 1805.382,712.664 1856.847 C 703.616 1875.053,703.258 1879.694,701.084 2006.817 L 698.840 2138.000 712.968 2166.002 C 742.615 2224.765,776.826 2259.947,826.568 2282.824 C 849.682 2293.454,851.630 2293.648,970.000 2297.066 C 1136.415 2301.872,1905.746 2298.081,1941.819 2292.277 C 1957.588 2289.739,1977.512 2283.227,1987.819 2277.242 C 2017.016 2260.285,2064.689 2209.751,2083.327 2176.000 L 2099.894 2146.000 2099.947 1200.585 L 2100.000 255.170 2085.003 226.585 C 2063.846 186.259,2024.393 146.017,1983.211 122.758 L 1950.000 104.000 1614.000 104.845 C 1429.200 105.309,1179.000 106.659,1058.000 107.845 M1215.231 837.435 C 1190.354 860.224,1064.121 983.824,934.713 1112.102 L 699.426 1345.333 636.713 1283.366 C 539.823 1187.629,501.045 1153.100,477.454 1141.557 C 457.205 1131.651,454.272 1131.243,433.419 1135.430 C 404.075 1141.324,385.590 1153.215,371.682 1175.146 C 355.476 1200.700,352.944 1223.162,363.754 1245.492 C 368.493 1255.281,397.037 1289.887,427.185 1322.393 C 491.644 1391.893,643.398 1537.415,660.800 1546.413 C 681.412 1557.073,712.037 1558.127,732.904 1548.897 C 756.680 1538.380,903.082 1397.304,1120.268 1175.625 C 1320.148 971.611,1367.383 921.524,1375.056 905.457 C 1386.954 880.541,1372.144 838.149,1343.477 815.067 C 1327.371 802.099,1307.528 796.239,1279.231 796.095 C 1260.947 796.002,1259.291 797.072,1215.231 837.435 " fill="#1D1E23" stroke="none" fill-rule="evenodd"/></svg>