<svg viewBox="0 0 2400 2400" fill="none" xmlns="http://www.w3.org/2000/svg"><path d="M868.000 102.637 C 807.647 112.489,746.275 158.565,720.416 213.438 C 702.055 252.400,700.000 270.923,700.000 397.484 C 700.000 531.834,701.754 541.965,729.895 570.105 C 769.021 609.232,830.979 609.232,870.105 570.105 C 894.842 545.368,900.000 525.904,900.000 457.287 L 900.000 400.000 1400.000 400.000 L 1900.000 400.000 1900.000 1200.000 L 1900.000 2000.000 1400.000 2000.000 L 900.000 2000.000 900.000 1942.713 C 900.000 1874.096,894.842 1854.632,870.105 1829.895 C 830.979 1790.768,769.021 1790.768,729.895 1829.895 C 701.754 1858.035,700.000 1868.166,700.000 2002.516 C 700.000 2072.545,701.777 2128.126,704.420 2140.803 C 720.053 2215.765,784.235 2279.947,859.197 2295.580 C 889.038 2301.803,1910.962 2301.803,1940.803 2295.580 C 2015.765 2279.947,2079.947 2215.765,2095.580 2140.803 C 2101.846 2110.756,2101.846 289.244,2095.580 259.197 C 2081.788 193.062,2034.082 138.710,1966.000 111.568 L 1942.000 102.000 1410.000 101.502 C 1117.400 101.228,873.500 101.739,868.000 102.637 M1256.000 798.053 C 1247.324 801.921,1138.953 907.281,971.047 1075.089 L 700.093 1345.885 599.047 1245.391 C 543.471 1190.120,491.700 1141.684,484.000 1137.756 C 464.105 1127.608,426.651 1128.242,405.621 1139.084 C 362.021 1161.563,343.428 1217.038,365.502 1258.785 C 368.764 1264.953,434.110 1332.412,510.716 1408.693 C 646.329 1543.730,650.609 1547.560,673.094 1554.004 C 697.933 1561.122,724.419 1558.357,747.200 1546.267 C 753.140 1543.114,895.955 1402.264,1064.566 1233.267 C 1312.714 984.552,1372.063 923.061,1376.017 910.576 C 1388.529 871.060,1372.998 826.831,1339.095 805.429 C 1317.878 792.035,1277.531 788.454,1256.000 798.053 " fill="#1D1E23" stroke="none" fill-rule="evenodd"/></svg>