<svg viewBox="0 0 2400 2400" fill="none" xmlns="http://www.w3.org/2000/svg"><path d="M853.867 107.593 C 826.764 110.912,784.273 136.596,754.860 167.436 C 722.492 201.375,707.866 234.130,703.051 283.463 C 698.463 330.462,701.892 516.691,707.696 535.772 C 712.824 552.633,736.622 577.903,757.532 588.692 C 778.920 599.727,821.080 599.727,842.468 588.692 C 863.297 577.945,887.133 552.690,892.415 535.772 C 894.780 528.197,897.695 494.550,898.893 461.000 L 901.071 400.000 1400.535 400.000 L 1900.000 400.000 1900.000 1200.000 L 1900.000 2000.000 1400.567 2000.000 L 901.135 2000.000 898.996 1937.000 C 897.819 1902.350,894.757 1868.600,892.190 1862.000 C 885.658 1845.203,860.988 1820.435,842.000 1811.611 C 820.677 1801.702,779.552 1801.640,758.000 1811.484 C 736.071 1821.501,709.290 1851.534,705.249 1870.641 C 703.462 1879.088,702.024 1942.700,702.052 2012.000 C 702.103 2132.744,702.479 2138.988,711.070 2161.677 C 730.360 2212.622,771.073 2257.604,818.289 2280.138 C 840.982 2290.968,851.164 2293.151,893.274 2296.213 C 956.759 2300.828,1843.241 2300.828,1906.726 2296.213 C 1949.234 2293.122,1958.933 2291.015,1982.726 2279.704 C 2021.323 2261.355,2061.639 2220.282,2082.350 2178.209 L 2098.000 2146.418 2098.000 1199.910 L 2098.000 253.402 2081.294 219.685 C 2059.301 175.298,2029.880 145.913,1983.394 121.903 L 1948.729 104.000 1411.365 104.563 C 1115.814 104.873,864.940 106.236,853.867 107.593 M1261.224 798.035 C 1245.543 804.651,1178.063 869.738,909.014 1137.757 L 700.029 1345.943 631.014 1277.701 C 532.236 1180.028,492.262 1143.701,476.151 1136.970 C 457.506 1129.179,421.304 1132.491,401.262 1143.821 C 371.661 1160.555,352.650 1199.717,357.719 1233.519 C 360.210 1250.134,365.574 1257.316,415.522 1310.917 C 477.116 1377.016,630.990 1526.950,654.064 1543.351 C 667.348 1552.794,672.751 1554.000,701.760 1554.000 C 731.764 1554.000,735.615 1553.062,748.237 1542.681 C 777.922 1518.265,1050.522 1248.597,1206.686 1089.162 C 1390.163 901.841,1385.770 907.636,1376.787 864.808 C 1371.008 837.258,1355.593 816.901,1331.796 805.397 C 1308.738 794.249,1277.838 791.026,1261.224 798.035 " fill="#1D1E23" stroke="none" fill-rule="evenodd"/></svg>