<svg viewBox="0 0 2400 2400" fill="none" xmlns="http://www.w3.org/2000/svg"><path d="M948.000 107.848 L 838.000 110.000 813.431 123.328 C 763.382 150.477,727.594 191.425,710.581 241.007 C 702.507 264.538,702.015 273.383,702.164 392.228 C 702.346 535.942,703.724 543.978,732.675 570.134 C 754.255 589.630,770.835 596.000,800.000 596.000 C 828.607 596.000,844.982 589.918,865.958 571.500 C 891.089 549.435,896.050 532.901,898.820 461.972 L 901.240 400.000 1400.620 400.000 L 1900.000 400.000 1900.000 1200.000 L 1900.000 2000.000 1400.617 2000.000 L 901.234 2000.000 898.891 1936.979 C 897.601 1902.318,894.744 1869.218,892.541 1863.424 C 890.338 1857.629,882.736 1846.283,875.647 1838.209 C 829.863 1786.064,742.805 1796.237,711.153 1857.430 C 702.911 1873.366,702.571 1879.141,702.291 2008.290 L 702.000 2142.581 719.358 2177.621 C 748.159 2235.763,793.903 2275.855,848.740 2291.016 C 872.184 2297.498,911.821 2298.000,1400.000 2298.000 C 1997.696 2298.000,1954.002 2300.404,2006.000 2264.653 C 2038.683 2242.181,2066.798 2209.160,2086.196 2170.463 L 2100.000 2142.925 2100.000 1199.073 L 2100.000 255.222 2083.074 222.611 C 2060.702 179.505,2025.096 143.906,1981.446 121.000 L 1949.051 104.000 1503.525 104.848 C 1258.486 105.314,1008.500 106.664,948.000 107.848 M1223.825 828.924 C 1203.021 847.467,1076.644 971.148,942.986 1103.770 L 699.972 1344.902 619.642 1266.342 C 483.780 1133.475,473.690 1126.540,429.232 1135.468 C 391.436 1143.059,363.506 1172.438,357.711 1210.700 C 353.471 1238.697,360.964 1251.476,417.439 1312.558 C 468.709 1368.010,612.220 1508.515,646.915 1537.228 C 675.719 1561.065,722.269 1562.012,750.863 1539.343 C 808.294 1493.811,1342.309 955.357,1367.703 917.375 C 1378.830 900.732,1380.413 895.337,1378.926 879.112 C 1376.270 850.123,1360.942 824.161,1338.171 810.083 C 1322.409 800.338,1313.432 797.824,1290.215 796.651 L 1261.650 795.209 1223.825 828.924 " fill="#1D1E23" stroke="none" fill-rule="evenodd"/></svg>