<svg viewBox="0 0 2400 2400" fill="none" xmlns="http://www.w3.org/2000/svg"><path d="M973.777 103.806 L 845.553 106.000 815.414 120.903 C 765.246 145.711,729.760 185.125,711.170 236.685 C 702.375 261.077,702.042 266.739,702.021 392.000 C 701.997 537.425,702.637 541.695,728.259 567.318 C 750.989 590.048,769.165 597.761,800.000 597.761 C 830.146 597.761,848.225 590.359,870.197 569.021 C 894.079 545.826,897.359 533.837,899.200 463.000 L 900.838 400.000 1400.419 400.000 L 1900.000 400.000 1900.000 1200.000 L 1900.000 2000.000 1400.419 2000.000 L 900.838 2000.000 899.200 1937.000 C 897.390 1867.358,894.107 1854.723,872.109 1832.725 C 850.555 1811.170,829.525 1802.296,800.000 1802.296 C 770.475 1802.296,749.445 1811.170,727.891 1832.725 C 703.155 1857.461,702.302 1862.374,700.759 1988.950 C 699.929 2057.136,701.071 2114.905,703.568 2130.950 C 713.146 2192.501,755.891 2249.671,813.693 2278.238 C 839.895 2291.188,849.792 2293.787,883.125 2296.476 C 904.506 2298.201,1137.100 2299.612,1400.000 2299.612 C 1662.900 2299.612,1895.494 2298.201,1916.875 2296.476 C 1950.208 2293.787,1960.105 2291.188,1986.307 2278.238 C 2026.935 2258.159,2058.226 2226.799,2078.436 2185.906 L 2093.736 2154.948 2097.014 2086.474 C 2098.817 2048.813,2099.776 1622.000,2099.146 1138.000 L 2098.000 258.000 2088.375 234.000 C 2067.129 181.027,2034.164 145.657,1982.797 120.719 L 1950.000 104.797 1526.000 103.205 C 1292.800 102.329,1044.299 102.600,973.777 103.806 M1264.598 794.650 C 1252.254 797.292,1203.054 844.659,929.279 1117.486 L 700.559 1345.415 598.501 1245.268 C 542.369 1190.188,489.820 1141.979,481.725 1138.137 C 459.383 1127.536,418.143 1130.872,396.779 1145.010 C 365.282 1165.854,348.755 1211.578,360.085 1246.534 C 364.027 1258.696,395.100 1291.976,505.549 1402.330 C 596.115 1492.818,651.487 1545.171,661.447 1549.730 C 680.966 1558.663,717.303 1558.906,738.041 1550.241 C 749.483 1545.460,832.984 1464.293,1046.050 1250.841 C 1206.821 1089.778,1346.918 947.802,1357.377 935.339 C 1369.129 921.334,1377.268 907.285,1378.684 898.560 C 1384.823 860.731,1365.125 819.068,1333.971 803.986 C 1316.341 795.451,1282.274 790.867,1264.598 794.650 " fill="#1D1E23" stroke="none" fill-rule="evenodd"/></svg>