<svg viewBox="0 0 2400 2400" fill="none" xmlns="http://www.w3.org/2000/svg"><path d="M386.000 150.627 C 367.759 160.212,349.981 178.404,320.157 218.000 C 155.815 436.190,77.053 719.215,105.876 988.000 C 120.453 1123.929,153.662 1238.953,213.857 1362.000 C 266.230 1469.058,346.095 1582.800,383.359 1603.400 C 418.562 1622.860,468.271 1612.380,498.271 1579.173 C 534.789 1538.752,536.181 1484.686,501.919 1437.475 C 365.840 1249.963,308.000 1083.090,308.000 878.000 C 308.000 681.127,369.442 495.157,485.086 342.000 C 524.829 289.365,534.093 259.006,522.538 219.259 C 514.794 192.620,490.994 164.099,466.692 152.335 C 445.470 142.062,403.970 141.183,386.000 150.627 M1932.950 152.446 C 1908.698 164.450,1885.154 192.800,1877.462 219.259 C 1865.916 258.974,1875.120 289.190,1915.249 343.311 C 2076.792 561.184,2130.939 832.681,2065.543 1096.887 C 2038.036 1208.016,1983.742 1321.595,1913.275 1415.418 C 1875.539 1465.662,1866.097 1497.647,1877.462 1536.741 C 1890.416 1581.300,1931.187 1612.800,1975.907 1612.800 C 2019.825 1612.800,2046.959 1588.297,2113.950 1488.140 C 2207.028 1348.982,2266.859 1190.525,2290.714 1020.000 C 2301.320 944.180,2300.240 796.869,2288.518 720.578 C 2270.634 604.178,2238.040 500.233,2186.115 394.000 C 2134.728 288.868,2054.327 173.769,2017.839 153.103 C 1996.246 140.873,1956.945 140.569,1932.950 152.446 M699.620 435.942 C 675.329 440.329,658.968 453.036,634.934 486.186 C 607.121 524.547,564.779 608.598,548.381 658.000 C 484.051 851.801,507.564 1063.372,612.484 1234.790 C 655.069 1304.367,675.370 1321.315,716.000 1321.210 C 754.283 1321.112,787.899 1299.720,806.046 1263.908 C 825.963 1224.605,822.034 1182.618,794.076 1136.000 C 742.993 1050.822,720.000 970.740,720.000 878.000 C 720.000 784.294,743.117 703.853,794.261 619.589 C 811.704 590.851,821.613 552.964,818.098 528.451 C 809.454 468.163,755.310 425.887,699.620 435.942 M1640.950 444.446 C 1607.079 461.212,1580.000 504.553,1580.000 542.000 C 1580.000 561.559,1591.482 595.842,1606.181 620.175 C 1697.597 771.501,1704.763 951.765,1625.246 1099.776 C 1588.398 1168.366,1584.053 1178.371,1581.573 1200.346 C 1572.248 1283.004,1658.947 1349.507,1725.322 1310.609 C 1758.952 1290.901,1818.617 1190.345,1849.319 1101.633 C 1899.962 955.305,1899.971 800.911,1849.344 654.367 C 1819.148 566.958,1761.578 468.435,1728.408 447.399 C 1705.125 432.633,1667.389 431.359,1640.950 444.446 M1164.860 833.027 C 1148.948 838.126,1117.898 864.727,1109.975 880.048 C 1104.254 891.112,548.000 2294.860,548.000 2298.235 C 548.000 2299.206,841.593 2300.000,1200.428 2300.000 C 1720.727 2300.000,1852.467 2298.987,1850.937 2295.000 C 1825.183 2227.893,1293.488 886.950,1289.877 880.000 C 1269.123 840.048,1211.047 818.227,1164.860 833.027 M1329.097 1357.053 C 1399.001 1535.774,1456.151 1683.357,1456.097 1685.016 C 1456.044 1686.675,1367.775 1617.450,1259.944 1531.183 C 1152.114 1444.916,1064.364 1373.060,1064.944 1371.504 C 1086.271 1314.335,1198.596 1032.019,1200.000 1032.055 C 1201.100 1032.084,1259.194 1178.333,1329.097 1357.053 M1199.153 1658.000 C 1298.392 1737.200,1379.680 1802.906,1379.794 1804.012 C 1379.907 1805.119,1244.070 1873.982,1077.934 1957.042 C 786.999 2102.494,776.064 2107.579,781.193 2095.029 C 784.121 2087.863,836.771 1953.699,898.192 1796.886 C 961.144 1636.162,1011.797 1512.259,1014.292 1512.886 C 1016.726 1513.499,1099.914 1578.800,1199.153 1658.000 M1542.002 1901.000 C 1561.020 1948.058,1644.000 2160.491,1644.000 2162.121 C 1644.000 2163.154,1493.250 2163.901,1309.000 2163.780 L 974.000 2163.561 1252.000 2024.000 C 1404.900 1947.242,1531.155 1884.340,1532.566 1884.220 C 1533.977 1884.099,1538.223 1891.650,1542.002 1901.000 " fill="#1D1E23" stroke="none" fill-rule="evenodd"/></svg>