<svg viewBox="0 0 2400 2400" fill="none" xmlns="http://www.w3.org/2000/svg"><path d="M390.000 151.235 C 333.505 177.943,225.170 347.398,170.867 494.000 C 114.982 644.871,93.253 794.653,103.703 956.974 C 114.463 1124.096,170.592 1296.914,265.132 1454.000 C 312.050 1531.958,364.388 1595.474,390.872 1606.595 C 459.632 1635.469,546.365 1552.905,522.404 1481.386 C 518.832 1470.724,496.922 1432.300,473.716 1396.000 C 402.140 1284.041,356.373 1183.553,332.528 1086.000 C 315.811 1017.607,314.000 997.081,314.000 876.000 C 314.000 762.052,314.385 756.170,325.218 704.705 C 350.643 583.917,394.825 478.728,464.091 374.081 C 525.617 281.126,534.511 257.666,522.234 220.704 C 514.174 196.438,488.907 166.666,466.802 155.389 C 443.599 143.551,410.088 141.739,390.000 151.235 M1946.000 148.174 C 1906.120 161.008,1873.826 206.031,1874.412 247.978 C 1874.811 276.501,1883.538 295.605,1923.237 354.862 C 2003.860 475.202,2050.918 584.816,2076.793 712.549 C 2085.167 753.889,2086.000 768.674,2086.000 876.000 C 2086.000 983.247,2085.160 998.192,2076.777 1040.000 C 2050.300 1172.066,2008.843 1270.950,1929.759 1390.673 C 1871.233 1479.274,1864.424 1499.800,1879.906 1540.955 C 1900.852 1596.634,1961.884 1626.461,2010.000 1604.532 C 2055.137 1583.961,2152.343 1442.070,2205.934 1318.528 C 2276.622 1155.575,2308.027 978.771,2296.263 810.000 C 2285.133 650.320,2251.092 525.974,2179.235 382.512 C 2126.532 277.291,2051.645 172.574,2015.746 153.900 C 2002.005 146.752,1960.904 143.378,1946.000 148.174 M691.293 438.612 C 666.111 442.993,626.138 491.566,592.724 558.384 C 541.545 660.729,519.503 741.103,513.620 846.820 C 505.602 990.927,554.524 1158.435,637.213 1269.996 C 663.631 1305.637,679.450 1316.965,705.870 1319.155 C 769.228 1324.410,816.860 1276.464,816.531 1207.766 C 816.426 1185.808,813.400 1177.261,784.161 1116.335 C 728.578 1000.517,721.828 970.647,725.067 854.831 C 727.555 765.824,731.528 750.284,775.918 655.928 C 821.977 558.027,825.768 540.411,809.281 500.911 C 801.606 482.522,777.418 456.886,758.762 447.369 C 742.885 439.268,711.174 435.153,691.293 438.612 M1657.459 440.356 C 1650.561 442.355,1636.202 449.843,1625.549 456.995 C 1598.185 475.368,1582.925 505.914,1582.640 542.887 C 1582.440 568.720,1583.959 573.210,1614.800 638.000 C 1665.279 744.043,1677.732 792.655,1677.815 884.000 C 1677.888 964.413,1666.517 1006.687,1614.758 1118.415 C 1576.146 1201.764,1573.554 1217.864,1592.322 1257.792 C 1624.174 1325.553,1705.423 1340.972,1748.863 1287.498 C 1801.927 1222.177,1854.517 1105.806,1873.735 1011.182 C 1906.119 851.735,1879.723 689.927,1797.042 541.051 C 1764.570 482.582,1743.923 457.460,1718.681 445.707 C 1697.231 435.720,1678.964 434.124,1657.459 440.356 M1174.000 832.614 C 1145.959 838.982,1121.057 860.907,1107.417 891.238 C 1085.238 940.553,595.989 2170.982,557.856 2273.346 C 551.712 2289.838,551.486 2293.223,556.324 2296.285 C 562.742 2300.347,1800.048 2301.485,1829.442 2297.456 C 1839.649 2296.057,1848.000 2293.201,1848.000 2291.109 C 1848.000 2286.406,1822.624 2221.872,1587.259 1628.000 C 1296.272 893.785,1285.164 867.070,1264.837 852.596 C 1240.178 835.037,1201.143 826.451,1174.000 832.614 M1209.276 1055.000 C 1225.082 1091.528,1433.140 1622.757,1444.526 1655.656 C 1448.648 1667.567,1451.258 1678.075,1450.326 1679.008 C 1447.927 1681.406,1200.900 1485.725,1097.283 1399.348 L 1064.567 1372.075 1078.908 1335.038 C 1090.749 1304.456,1168.894 1109.388,1191.091 1055.000 C 1194.459 1046.750,1198.467 1040.000,1199.999 1040.000 C 1201.531 1040.000,1205.706 1046.750,1209.276 1055.000 M1047.664 1539.000 C 1076.275 1560.778,1345.470 1776.218,1367.122 1794.666 L 1377.293 1803.331 1363.646 1811.766 C 1343.247 1824.375,812.135 2089.884,796.582 2095.248 C 783.333 2099.817,783.197 2099.744,785.788 2089.420 C 789.138 2076.075,847.777 1924.889,925.970 1728.000 C 988.905 1569.531,1011.451 1516.000,1015.259 1516.000 C 1016.463 1516.000,1031.045 1526.350,1047.664 1539.000 M1588.418 2019.833 C 1614.993 2087.025,1637.021 2146.500,1637.368 2152.000 L 1638.000 2162.000 1306.000 2162.793 L 974.000 2163.587 1252.000 2024.115 C 1500.003 1899.694,1530.545 1885.347,1535.050 1891.155 C 1537.827 1894.735,1561.843 1952.640,1588.418 2019.833 " fill="#1D1E23" stroke="none" fill-rule="evenodd"/></svg>