<svg viewBox="0 0 2400 2400" fill="none" xmlns="http://www.w3.org/2000/svg"><path d="M384.000 152.943 C 361.181 165.160,328.942 203.188,283.740 271.207 C 192.701 408.201,134.552 562.570,109.411 734.000 C 100.596 794.106,99.457 950.966,107.422 1008.000 C 120.983 1105.115,144.470 1196.788,176.292 1276.807 C 233.510 1420.689,340.367 1585.520,389.822 1606.183 C 441.718 1627.867,504.986 1593.119,522.347 1533.397 C 533.772 1494.098,528.387 1479.118,472.238 1394.000 C 384.123 1260.425,338.065 1146.775,317.427 1012.000 C 307.680 948.350,307.667 811.795,317.402 748.000 C 338.777 607.919,386.916 484.878,463.726 374.000 C 522.948 288.510,534.044 261.302,524.358 225.329 C 517.683 200.541,496.390 171.704,475.076 158.588 C 447.785 141.794,409.281 139.407,384.000 152.943 M1933.094 154.005 C 1879.271 181.338,1858.523 243.506,1885.703 296.000 C 1891.968 308.100,1907.275 332.400,1919.719 350.000 C 1956.497 402.019,1978.026 438.742,2005.314 496.000 C 2044.792 578.839,2067.420 652.035,2082.597 746.000 C 2092.426 806.853,2092.585 944.404,2082.897 1006.164 C 2059.123 1157.721,2007.541 1282.728,1915.109 1412.795 C 1870.145 1476.065,1862.985 1510.583,1885.578 1555.167 C 1912.197 1607.697,1978.062 1628.257,2023.220 1598.133 C 2067.559 1568.555,2160.069 1426.746,2207.270 1316.000 C 2278.944 1147.838,2306.768 989.598,2296.220 810.135 C 2290.123 706.402,2274.250 624.742,2241.427 528.242 C 2201.283 410.218,2131.129 280.712,2061.472 196.040 C 2029.010 156.581,2014.419 147.353,1981.016 145.161 C 1957.621 143.626,1951.198 144.811,1933.094 154.005 M682.000 441.589 C 666.150 448.557,637.291 480.054,618.862 510.496 C 596.424 547.561,557.618 630.180,546.510 664.533 C 486.522 850.066,507.554 1051.186,604.694 1220.898 C 632.446 1269.384,663.312 1306.449,682.671 1314.538 C 702.969 1323.019,734.998 1321.320,758.163 1310.533 C 795.295 1293.242,817.410 1256.240,817.559 1211.156 C 817.643 1185.464,816.244 1181.514,784.969 1119.156 C 733.179 1015.895,721.978 972.497,722.212 876.000 C 722.442 780.850,732.764 740.491,782.058 642.000 C 817.977 570.234,823.830 547.222,814.408 514.812 C 800.750 467.828,760.959 435.848,716.543 436.157 C 704.144 436.243,688.600 438.687,682.000 441.589 M1640.879 446.311 C 1602.929 465.223,1582.301 498.946,1582.119 542.375 C 1582.003 569.982,1582.887 572.528,1614.742 636.375 C 1650.826 708.697,1664.864 749.891,1673.934 810.069 C 1689.915 916.098,1675.682 992.778,1617.890 1112.000 C 1579.978 1190.211,1575.701 1207.164,1585.435 1240.648 C 1606.604 1313.467,1687.185 1345.625,1736.606 1300.977 C 1758.467 1281.226,1791.813 1229.718,1817.696 1175.717 C 1897.459 1009.308,1908.986 834.690,1851.608 662.000 C 1827.714 590.088,1772.571 488.590,1741.434 459.212 C 1714.770 434.055,1675.568 429.025,1640.879 446.311 M1167.540 833.275 C 1150.746 839.559,1133.890 851.048,1120.660 865.229 C 1110.399 876.227,1060.746 1000.257,576.707 2224.000 C 561.478 2262.500,549.796 2295.350,550.745 2297.000 C 552.824 2300.611,1792.493 2301.080,1826.910 2297.483 L 1850.994 2294.966 1835.932 2256.483 C 1807.956 2185.001,1609.670 1684.481,1448.411 1278.290 C 1331.193 983.034,1285.163 871.447,1277.068 862.917 C 1251.424 835.895,1198.684 821.622,1167.540 833.275 M1206.594 1047.000 C 1208.985 1053.050,1236.563 1122.800,1267.877 1202.000 C 1322.844 1341.019,1426.822 1607.452,1446.291 1659.163 C 1451.791 1673.774,1453.717 1683.093,1450.882 1681.386 C 1437.575 1673.372,1169.506 1459.554,1097.286 1399.351 L 1064.572 1372.080 1080.515 1331.040 C 1129.204 1205.707,1197.876 1036.000,1199.903 1036.000 C 1201.192 1036.000,1204.203 1040.950,1206.594 1047.000 M1125.013 1599.369 C 1284.731 1725.633,1376.000 1800.065,1376.000 1804.056 C 1376.000 1806.031,1255.850 1867.802,1109.000 1941.323 C 852.197 2069.893,784.979 2102.312,781.799 2099.132 C 779.546 2096.879,975.630 1598.961,1003.959 1535.000 C 1008.588 1524.550,1013.990 1516.000,1015.965 1516.000 C 1017.940 1516.000,1067.011 1553.516,1125.013 1599.369 M1569.507 1971.000 C 1588.290 2018.850,1612.489 2080.500,1623.283 2108.000 C 1634.076 2135.500,1642.147 2159.350,1641.217 2161.000 C 1640.288 2162.650,1489.784 2163.901,1306.764 2163.780 L 974.000 2163.561 1252.000 2024.000 C 1404.900 1947.242,1531.205 1884.340,1532.678 1884.220 C 1534.150 1884.099,1550.723 1923.150,1569.507 1971.000 " fill="#1D1E23" stroke="none" fill-rule="evenodd"/></svg>