<svg viewBox="0 0 2400 2400" fill="none" xmlns="http://www.w3.org/2000/svg"><path d="M379.653 159.360 C 355.817 174.477,329.660 204.636,294.104 258.000 C 140.511 488.518,74.492 762.769,110.332 1021.415 C 133.393 1187.843,198.752 1355.870,296.488 1500.000 C 356.070 1587.863,388.776 1615.391,428.059 1610.739 C 454.058 1607.659,474.928 1596.397,495.013 1574.607 C 515.251 1552.652,524.403 1531.983,524.604 1507.776 C 524.805 1483.616,519.255 1471.357,473.480 1394.860 C 397.748 1268.301,359.145 1183.766,335.880 1093.533 C 317.359 1021.702,314.733 985.628,317.661 843.217 L 320.268 716.433 337.885 655.217 C 368.470 548.934,395.610 489.534,470.278 365.459 C 522.618 278.486,529.858 260.112,523.316 230.864 C 512.229 181.296,471.081 148.000,420.912 148.000 C 402.136 148.000,394.060 150.224,379.653 159.360 M1938.549 153.859 C 1919.593 160.617,1902.688 176.246,1888.643 200.000 C 1879.630 215.244,1878.014 222.594,1878.093 248.000 C 1878.200 282.651,1878.825 284.076,1930.310 367.057 C 2013.691 501.447,2065.292 630.544,2080.323 742.365 C 2086.801 790.560,2082.104 1013.973,2073.761 1054.470 C 2052.584 1157.258,2004.265 1269.620,1928.997 1391.106 C 1907.932 1425.107,1886.280 1463.860,1880.882 1477.224 C 1871.952 1499.332,1871.485 1503.389,1875.706 1522.250 C 1883.893 1558.833,1910.663 1591.888,1942.018 1604.129 C 1948.608 1606.702,1965.121 1608.960,1978.712 1609.147 C 1999.747 1609.436,2005.901 1607.771,2020.062 1597.957 C 2065.751 1566.295,2157.622 1427.407,2206.102 1316.707 C 2274.428 1160.692,2309.426 963.496,2296.385 808.000 C 2280.079 613.581,2224.542 445.266,2124.082 285.807 C 2076.556 210.369,2037.951 165.390,2011.128 154.203 C 1992.929 146.612,1959.325 146.453,1938.549 153.859 M1652.753 442.577 C 1629.327 451.072,1595.056 485.330,1588.841 506.464 C 1578.117 542.936,1584.764 572.891,1622.024 656.000 C 1647.685 713.236,1667.000 772.400,1672.419 810.362 C 1675.141 829.431,1676.034 865.836,1674.668 902.000 C 1671.912 974.946,1664.813 1002.194,1624.133 1095.975 C 1608.620 1131.738,1592.093 1173.622,1587.406 1189.050 C 1579.229 1215.972,1579.152 1217.944,1585.482 1238.027 C 1604.003 1296.781,1662.189 1332.472,1709.807 1314.286 C 1767.635 1292.201,1850.560 1132.525,1876.802 992.727 C 1890.080 921.991,1889.298 823.964,1874.912 755.915 C 1851.448 644.922,1797.146 522.458,1748.427 470.661 C 1721.060 441.564,1684.853 430.936,1652.753 442.577 M676.765 446.491 C 660.204 454.919,641.521 477.553,615.633 520.551 C 537.552 650.237,501.680 800.346,515.828 938.197 C 529.607 1072.447,594.898 1231.531,663.732 1298.569 C 707.919 1341.604,788.086 1313.511,809.398 1247.524 C 822.067 1208.297,817.521 1186.369,780.061 1106.000 C 728.953 996.352,718.705 942.245,727.784 830.000 C 733.582 758.322,737.939 742.305,773.900 660.490 C 815.985 564.739,822.203 544.155,815.872 521.542 C 808.413 494.902,790.200 470.246,766.970 455.339 C 749.376 444.049,742.092 441.897,718.145 440.912 C 697.821 440.077,686.323 441.627,676.765 446.491 M1162.621 837.580 C 1132.465 848.831,1121.086 865.287,1084.828 950.082 C 1028.177 1082.571,552.000 2281.247,552.000 2291.365 C 552.000 2298.199,904.187 2301.171,1375.787 2298.318 C 1631.970 2296.768,1842.962 2294.641,1844.659 2293.593 C 1849.030 2290.891,1833.948 2250.898,1718.856 1960.000 C 1322.219 957.496,1289.312 877.085,1267.534 857.191 C 1244.883 836.499,1192.011 826.616,1162.621 837.580 M1207.804 1055.000 C 1220.160 1081.715,1332.144 1365.801,1438.810 1641.025 C 1444.570 1655.889,1448.095 1669.238,1446.643 1670.691 C 1442.481 1674.852,1410.877 1651.359,1277.740 1545.139 C 1113.679 1414.246,1068.000 1375.630,1068.000 1367.830 C 1068.000 1364.273,1091.172 1303.905,1119.494 1233.681 C 1185.854 1069.138,1196.512 1044.000,1199.913 1044.000 C 1201.454 1044.000,1205.005 1048.950,1207.804 1055.000 M1061.519 1550.852 C 1145.848 1616.926,1342.037 1775.193,1357.919 1789.961 C 1373.361 1804.319,1373.601 1804.938,1365.919 1810.606 C 1356.525 1817.536,819.945 2084.836,800.872 2092.086 C 793.651 2094.831,786.809 2096.142,785.667 2095.000 C 781.186 2090.519,1008.671 1516.000,1014.926 1516.000 C 1016.088 1516.000,1037.055 1531.683,1061.519 1550.852 M1539.205 1905.000 C 1555.389 1931.775,1636.000 2141.093,1636.000 2156.343 C 1636.000 2163.826,1628.490 2163.994,1305.000 2163.718 L 974.000 2163.435 1220.000 2040.516 C 1436.206 1932.483,1519.213 1892.580,1528.674 1892.128 C 1530.144 1892.057,1534.884 1897.850,1539.205 1905.000 " fill="#1D1E23" stroke="none" fill-rule="evenodd"/></svg>