<svg viewBox="0 0 2400 2400" fill="none" xmlns="http://www.w3.org/2000/svg"><path d="M394.829 128.643 C 352.451 175.810,325.669 210.490,288.054 266.907 C 220.611 368.062,175.515 469.621,136.388 608.468 C 108.243 708.341,106.409 724.821,106.379 878.000 C 106.349 1031.889,109.171 1055.988,139.599 1161.684 C 191.599 1342.311,270.729 1485.922,397.255 1629.291 L 421.339 1656.581 494.481 1583.519 L 567.623 1510.458 546.664 1486.229 C 413.638 1332.452,337.324 1163.877,315.769 976.186 C 308.674 914.413,312.890 783.185,323.996 720.100 C 351.520 563.755,421.234 418.224,531.239 287.470 L 567.020 244.940 494.113 172.113 L 421.206 99.285 394.829 128.643 M1903.595 174.622 L 1832.279 245.244 1855.385 271.622 C 1898.956 321.362,1932.720 369.354,1971.030 436.000 C 2046.459 567.220,2081.522 692.092,2086.748 848.109 C 2091.885 1001.490,2065.514 1127.914,2000.415 1262.000 C 1956.537 1352.374,1925.343 1400.503,1861.495 1476.334 L 1832.587 1510.668 1905.742 1583.743 L 1978.898 1656.818 2018.655 1609.409 C 2140.599 1463.996,2188.595 1379.400,2244.318 1211.666 C 2273.060 1125.151,2286.526 1060.241,2292.438 979.732 C 2298.668 894.876,2294.962 767.255,2284.483 705.781 C 2252.387 517.494,2172.582 337.430,2056.774 192.000 C 2013.936 138.204,1983.694 104.000,1978.967 104.000 C 1976.737 104.000,1942.819 135.780,1903.595 174.622 M701.513 404.911 C 622.509 489.471,556.230 617.124,527.530 740.000 C 516.191 788.548,511.539 865.577,516.095 929.332 C 526.665 1077.242,597.972 1239.361,701.602 1351.089 L 713.742 1364.178 786.473 1291.528 L 859.204 1218.877 836.155 1189.873 C 806.933 1153.099,788.879 1123.335,764.258 1071.339 C 730.300 999.625,731.025 1003.733,730.482 880.000 L 730.000 770.000 740.996 738.929 C 762.282 678.778,799.281 612.018,838.149 563.626 L 859.333 537.252 786.538 464.537 L 713.742 391.822 701.513 404.911 M1612.402 466.266 L 1540.433 536.533 1567.321 571.949 C 1614.434 634.003,1645.666 696.497,1664.612 766.625 C 1671.780 793.156,1673.159 810.042,1673.544 876.000 C 1673.953 945.906,1673.040 957.528,1664.751 988.000 C 1646.495 1055.107,1615.838 1116.950,1569.291 1180.564 C 1555.381 1199.574,1544.000 1216.693,1544.000 1218.606 C 1544.000 1220.518,1576.146 1254.192,1615.436 1293.437 L 1686.872 1364.790 1716.109 1329.395 C 1819.724 1203.959,1877.186 1061.874,1886.529 908.000 C 1892.378 811.666,1862.776 674.668,1814.834 576.198 C 1786.707 518.427,1700.451 396.000,1687.875 396.000 C 1685.948 396.000,1651.985 427.620,1612.402 466.266 M1162.621 837.580 C 1132.465 848.831,1121.086 865.287,1084.828 950.082 C 1028.177 1082.571,552.000 2281.247,552.000 2291.365 C 552.000 2298.199,904.187 2301.171,1375.787 2298.318 C 1631.970 2296.768,1842.962 2294.641,1844.659 2293.593 C 1849.030 2290.891,1833.948 2250.898,1718.856 1960.000 C 1322.219 957.496,1289.312 877.085,1267.534 857.191 C 1244.883 836.499,1192.011 826.616,1162.621 837.580 M1207.804 1055.000 C 1220.160 1081.715,1332.144 1365.801,1438.810 1641.025 C 1444.570 1655.889,1448.095 1669.238,1446.643 1670.691 C 1442.481 1674.852,1410.877 1651.359,1277.740 1545.139 C 1113.679 1414.246,1068.000 1375.630,1068.000 1367.830 C 1068.000 1364.273,1091.172 1303.905,1119.494 1233.681 C 1185.854 1069.138,1196.512 1044.000,1199.913 1044.000 C 1201.454 1044.000,1205.005 1048.950,1207.804 1055.000 M1061.519 1550.852 C 1145.848 1616.926,1342.037 1775.193,1357.919 1789.961 C 1373.361 1804.319,1373.601 1804.938,1365.919 1810.606 C 1356.525 1817.536,819.945 2084.836,800.872 2092.086 C 793.651 2094.831,786.809 2096.142,785.667 2095.000 C 781.186 2090.519,1008.671 1516.000,1014.926 1516.000 C 1016.088 1516.000,1037.055 1531.683,1061.519 1550.852 M1539.205 1905.000 C 1555.389 1931.775,1636.000 2141.093,1636.000 2156.343 C 1636.000 2163.826,1628.490 2163.994,1305.000 2163.718 L 974.000 2163.435 1220.000 2040.516 C 1436.206 1932.483,1519.213 1892.580,1528.674 1892.128 C 1530.144 1892.057,1534.884 1897.850,1539.205 1905.000 " fill="#1D1E23" stroke="none" fill-rule="evenodd"/></svg>