<svg viewBox="0 0 2400 2400" fill="none" xmlns="http://www.w3.org/2000/svg"><path d="M389.490 134.624 C 268.171 270.104,191.217 413.122,138.009 602.000 C 109.591 702.877,107.380 719.297,105.135 846.155 C 102.362 1002.840,108.784 1057.077,144.622 1179.635 C 192.687 1344.009,265.011 1475.173,384.031 1613.819 L 421.016 1656.904 494.165 1583.835 L 567.313 1510.767 542.954 1482.465 C 414.232 1332.905,339.259 1168.440,315.942 984.480 C 309.776 935.836,309.769 825.462,315.929 772.000 C 337.079 588.423,411.683 423.857,540.938 275.660 L 567.400 245.320 494.285 172.284 L 421.169 99.248 389.490 134.624 M1904.992 173.221 L 1832.506 246.000 1850.838 266.000 C 1919.909 341.355,1990.568 455.643,2029.521 555.011 C 2095.740 723.933,2107.294 921.223,2061.543 1101.828 C 2041.792 1179.799,2003.759 1267.826,1954.617 1349.307 C 1925.385 1397.775,1908.222 1421.376,1863.576 1474.492 L 1832.904 1510.984 1905.823 1583.823 L 1978.741 1656.661 2010.686 1619.331 C 2130.416 1479.416,2187.707 1381.684,2238.693 1230.379 C 2282.011 1101.828,2292.297 1043.499,2294.969 911.247 C 2296.229 848.843,2295.206 795.104,2292.190 765.247 C 2272.825 573.574,2197.493 381.091,2078.795 220.000 C 2053.589 185.791,1987.306 106.516,1980.279 102.172 C 1978.738 101.220,1944.859 133.192,1904.992 173.221 M683.470 425.790 C 604.049 519.500,549.341 632.835,523.736 756.702 C 511.076 817.945,511.102 936.208,523.789 998.000 C 549.789 1124.635,602.967 1235.156,683.827 1330.614 L 712.939 1364.981 786.194 1291.806 L 859.449 1218.631 842.223 1198.316 C 803.085 1152.159,767.664 1089.390,741.597 1020.000 C 730.545 990.579,730.299 988.089,728.855 890.894 C 727.931 828.741,729.008 784.211,731.741 771.466 C 744.270 713.045,791.393 619.880,835.891 565.555 L 859.191 537.111 786.065 464.065 L 712.939 391.019 683.470 425.790 M1611.859 466.470 L 1540.415 536.941 1561.725 563.470 C 1616.773 632.004,1657.092 716.749,1670.143 791.352 C 1677.225 831.833,1678.347 914.766,1672.317 952.000 C 1660.142 1027.183,1624.661 1107.460,1573.032 1176.644 L 1541.208 1219.288 1614.056 1292.056 L 1686.905 1364.825 1714.773 1331.412 C 1819.069 1206.369,1876.095 1066.999,1886.385 912.000 C 1892.939 813.275,1864.617 678.408,1816.289 578.214 C 1786.436 516.323,1701.429 396.000,1687.557 396.000 C 1685.217 396.000,1651.152 427.712,1611.859 466.470 M1155.466 839.779 C 1118.486 859.965,1122.944 850.264,939.145 1310.501 C 789.840 1684.362,578.825 2217.246,557.973 2273.089 C 554.053 2283.588,552.155 2293.488,553.755 2295.089 C 558.680 2300.015,1838.950 2298.648,1843.888 2293.711 C 1849.232 2288.368,1860.924 2319.171,1680.780 1864.000 C 1374.998 1091.377,1313.297 938.204,1286.083 884.165 C 1273.613 859.402,1269.496 854.857,1250.978 845.401 C 1222.388 830.804,1176.823 828.121,1155.466 839.779 M1251.374 1161.000 C 1296.252 1274.255,1426.277 1607.181,1441.848 1648.706 C 1456.579 1687.991,1459.471 1689.833,1272.000 1540.507 C 1124.115 1422.713,1063.418 1372.261,1065.358 1368.745 C 1066.191 1367.235,1096.091 1292.650,1131.802 1203.000 C 1167.514 1113.350,1198.239 1040.000,1200.080 1040.000 C 1201.921 1040.000,1225.004 1094.450,1251.374 1161.000 M1031.267 1526.866 C 1039.370 1532.843,1120.257 1597.000,1211.015 1669.438 C 1342.845 1774.657,1375.127 1802.232,1371.537 1806.557 C 1365.139 1814.267,800.549 2096.000,791.497 2096.000 C 787.374 2096.000,784.000 2095.263,784.000 2094.363 C 784.000 2088.272,934.222 1704.770,979.356 1595.639 C 1007.160 1528.409,1012.700 1516.000,1014.909 1516.000 C 1015.803 1516.000,1023.164 1520.890,1031.267 1526.866 M1556.793 1942.000 C 1595.041 2034.723,1636.000 2144.439,1636.000 2154.169 L 1636.000 2164.000 1305.000 2163.781 L 974.000 2163.562 1194.000 2053.112 C 1452.725 1923.220,1519.326 1891.416,1529.496 1892.904 C 1534.975 1893.705,1542.322 1906.920,1556.793 1942.000 " fill="#1D1E23" stroke="none" fill-rule="evenodd"/></svg>