<svg viewBox="0 0 2400 2400" fill="none" xmlns="http://www.w3.org/2000/svg"><path d="M400.679 147.927 C 357.991 158.163,284.598 255.368,217.904 390.000 C 161.854 503.146,129.437 606.319,112.332 726.000 C 80.606 947.981,114.926 1155.982,217.931 1366.000 C 272.704 1477.678,351.717 1587.566,390.467 1605.954 C 407.989 1614.268,438.931 1612.805,460.155 1602.658 C 498.771 1584.196,525.714 1544.434,525.714 1505.906 C 525.714 1483.492,516.067 1464.122,456.412 1366.768 C 385.331 1250.766,339.279 1136.501,322.028 1033.332 C 316.531 1000.455,315.679 971.161,316.983 859.887 L 318.553 726.000 331.017 678.000 C 359.810 567.115,400.909 473.957,466.357 371.234 C 515.763 293.690,526.062 271.954,525.702 246.000 C 524.864 185.701,458.909 133.963,400.679 147.927 M1932.861 154.658 C 1914.396 163.759,1886.402 196.208,1880.755 215.057 C 1874.401 236.263,1874.749 263.449,1881.623 282.933 C 1884.716 291.699,1905.527 327.475,1927.869 362.435 C 2004.005 481.573,2053.933 599.033,2075.829 710.530 C 2084.016 752.216,2084.471 763.710,2082.963 890.530 C 2081.416 1020.662,2080.933 1027.734,2070.705 1070.000 C 2044.483 1178.348,1999.074 1282.574,1933.902 1384.000 C 1893.688 1446.583,1877.743 1476.642,1873.905 1497.102 C 1869.896 1518.469,1881.851 1552.432,1901.064 1574.259 C 1923.785 1600.072,1944.086 1609.671,1976.342 1609.852 C 1999.220 1609.981,2004.958 1608.424,2019.976 1598.017 C 2072.838 1561.383,2171.224 1407.130,2219.749 1284.807 C 2279.850 1133.301,2307.781 960.056,2296.298 810.000 C 2286.142 677.283,2261.762 572.615,2214.495 458.806 C 2159.763 327.022,2057.514 171.935,2013.128 153.381 C 1995.220 145.895,1949.154 146.628,1932.861 154.658 M692.491 440.272 C 685.061 441.881,674.261 446.656,668.491 450.884 C 636.515 474.310,574.310 584.299,547.964 664.000 C 490.899 836.628,503.842 1013.663,585.844 1182.126 C 614.542 1241.083,651.808 1294.284,674.023 1308.014 C 706.460 1328.061,754.212 1320.847,783.599 1291.460 C 803.532 1271.527,816.017 1239.647,815.951 1208.850 C 815.900 1185.025,815.939 1185.130,768.912 1082.000 C 740.299 1019.254,732.184 992.008,727.012 941.335 C 723.611 908.005,723.602 880.092,726.977 831.335 C 732.188 756.058,736.030 742.491,777.773 652.000 C 792.488 620.100,808.276 581.267,812.858 565.705 C 821.052 537.873,821.068 537.029,813.869 514.141 C 797.550 462.259,743.333 429.263,692.491 440.272 M1659.056 439.983 C 1628.720 449.117,1595.134 481.507,1587.815 508.686 C 1578.216 544.335,1583.957 572.675,1613.608 636.000 C 1644.269 701.486,1665.586 761.602,1671.759 800.000 C 1678.206 840.095,1677.031 935.344,1669.650 971.081 C 1662.703 1004.714,1646.293 1048.543,1613.448 1121.192 C 1586.626 1180.517,1578.395 1208.193,1581.946 1227.116 C 1588.942 1264.410,1623.275 1305.723,1655.227 1315.296 C 1695.960 1327.500,1729.806 1313.888,1759.747 1273.265 C 1799.521 1219.298,1848.652 1112.022,1867.495 1038.000 C 1878.272 995.666,1888.000 919.758,1888.000 878.000 C 1888.000 778.484,1858.411 660.599,1809.479 565.162 C 1768.647 485.526,1740.789 452.108,1706.825 442.022 C 1684.564 435.411,1675.522 435.025,1659.056 439.983 M1155.466 839.779 C 1118.486 859.965,1122.944 850.264,939.145 1310.501 C 789.840 1684.362,578.825 2217.246,557.973 2273.089 C 554.053 2283.588,552.155 2293.488,553.755 2295.089 C 558.680 2300.015,1838.950 2298.648,1843.888 2293.711 C 1849.232 2288.368,1860.924 2319.171,1680.780 1864.000 C 1374.998 1091.377,1313.297 938.204,1286.083 884.165 C 1273.613 859.402,1269.496 854.857,1250.978 845.401 C 1222.388 830.804,1176.823 828.121,1155.466 839.779 M1251.374 1161.000 C 1296.252 1274.255,1426.277 1607.181,1441.848 1648.706 C 1456.579 1687.991,1459.471 1689.833,1272.000 1540.507 C 1124.115 1422.713,1063.418 1372.261,1065.358 1368.745 C 1066.191 1367.235,1096.091 1292.650,1131.802 1203.000 C 1167.514 1113.350,1198.239 1040.000,1200.080 1040.000 C 1201.921 1040.000,1225.004 1094.450,1251.374 1161.000 M1031.267 1526.866 C 1039.370 1532.843,1120.257 1597.000,1211.015 1669.438 C 1342.845 1774.657,1375.127 1802.232,1371.537 1806.557 C 1365.139 1814.267,800.549 2096.000,791.497 2096.000 C 787.374 2096.000,784.000 2095.263,784.000 2094.363 C 784.000 2088.272,934.222 1704.770,979.356 1595.639 C 1007.160 1528.409,1012.700 1516.000,1014.909 1516.000 C 1015.803 1516.000,1023.164 1520.890,1031.267 1526.866 M1556.793 1942.000 C 1595.041 2034.723,1636.000 2144.439,1636.000 2154.169 L 1636.000 2164.000 1305.000 2163.781 L 974.000 2163.562 1194.000 2053.112 C 1452.725 1923.220,1519.326 1891.416,1529.496 1892.904 C 1534.975 1893.705,1542.322 1906.920,1556.793 1942.000 " fill="#1D1E23" stroke="none" fill-rule="evenodd"/></svg>