<svg viewBox="0 0 2400 2400" fill="none" xmlns="http://www.w3.org/2000/svg"><path d="M396.213 126.684 C 241.100 295.660,145.516 497.317,109.296 732.000 C 99.278 796.910,99.278 959.090,109.296 1024.000 C 128.323 1147.282,162.506 1257.865,213.778 1362.000 C 262.702 1461.366,315.381 1538.554,393.410 1625.205 L 421.510 1656.410 494.400 1583.601 L 567.289 1510.791 538.563 1478.396 C 413.041 1336.843,338.230 1174.201,314.152 990.519 C 302.569 902.158,307.807 775.028,326.535 690.000 C 361.199 532.616,437.692 385.679,545.679 269.040 L 567.525 245.444 494.406 172.406 L 421.288 99.368 396.213 126.684 M1904.821 172.968 L 1831.643 246.437 1840.325 254.218 C 1845.101 258.498,1863.353 279.100,1880.885 300.000 C 2067.969 523.014,2135.465 814.419,2065.502 1097.049 C 2031.359 1234.975,1961.259 1366.051,1861.933 1477.689 L 1832.590 1510.670 1905.310 1583.311 L 1978.031 1655.952 2006.326 1624.976 C 2165.122 1451.135,2259.255 1248.214,2292.537 1008.000 C 2300.440 950.959,2299.297 793.934,2290.542 734.000 C 2256.719 502.453,2157.017 292.341,2001.440 124.749 L 1978.000 99.499 1904.821 172.968 M687.820 419.574 C 610.169 506.303,553.580 616.536,528.461 730.000 C 481.576 941.777,539.037 1165.825,682.246 1329.632 L 713.052 1364.868 786.463 1291.538 L 859.873 1218.208 846.350 1204.104 C 806.521 1162.567,762.382 1086.785,742.613 1026.000 C 713.463 936.365,712.532 828.752,740.104 735.765 C 757.006 678.763,802.510 598.912,842.672 555.779 L 859.638 537.557 786.406 464.406 L 713.175 391.255 687.820 419.574 M1612.864 464.925 L 1539.729 538.351 1550.273 548.175 C 1588.852 584.120,1643.632 680.630,1661.679 744.448 C 1706.385 902.535,1669.950 1066.576,1561.822 1194.036 L 1540.771 1218.851 1613.764 1291.764 L 1686.757 1364.677 1707.675 1341.338 C 1772.649 1268.846,1817.582 1192.580,1849.727 1100.232 C 1931.144 866.325,1876.199 599.242,1709.118 416.749 L 1686.000 391.499 1612.864 464.925 M1164.860 833.027 C 1148.948 838.126,1117.898 864.727,1109.975 880.048 C 1104.254 891.112,548.000 2294.860,548.000 2298.235 C 548.000 2299.206,841.593 2300.000,1200.428 2300.000 C 1720.727 2300.000,1852.467 2298.987,1850.937 2295.000 C 1825.183 2227.893,1293.488 886.950,1289.877 880.000 C 1269.123 840.048,1211.047 818.227,1164.860 833.027 M1329.097 1357.053 C 1399.001 1535.774,1456.151 1683.357,1456.097 1685.016 C 1456.044 1686.675,1367.775 1617.450,1259.944 1531.183 C 1152.114 1444.916,1064.364 1373.060,1064.944 1371.504 C 1086.271 1314.335,1198.596 1032.019,1200.000 1032.055 C 1201.100 1032.084,1259.194 1178.333,1329.097 1357.053 M1199.153 1658.000 C 1298.392 1737.200,1379.680 1802.906,1379.794 1804.012 C 1379.907 1805.119,1244.070 1873.982,1077.934 1957.042 C 786.999 2102.494,776.064 2107.579,781.193 2095.029 C 784.121 2087.863,836.771 1953.699,898.192 1796.886 C 961.144 1636.162,1011.797 1512.259,1014.292 1512.886 C 1016.726 1513.499,1099.914 1578.800,1199.153 1658.000 M1542.002 1901.000 C 1561.020 1948.058,1644.000 2160.491,1644.000 2162.121 C 1644.000 2163.154,1493.250 2163.901,1309.000 2163.780 L 974.000 2163.561 1252.000 2024.000 C 1404.900 1947.242,1531.155 1884.340,1532.566 1884.220 C 1533.977 1884.099,1538.223 1891.650,1542.002 1901.000 " fill="#1D1E23" stroke="none" fill-rule="evenodd"/></svg>