<svg viewBox="0 0 2400 2400" fill="none" xmlns="http://www.w3.org/2000/svg"><path d="M405.401 116.936 C 326.967 198.594,249.261 314.496,200.919 421.930 C 159.409 514.179,118.934 652.968,108.189 739.895 C 105.885 758.537,104.000 822.708,104.000 882.498 C 104.000 1002.045,107.972 1037.492,132.382 1135.767 C 178.571 1321.729,260.500 1474.750,395.527 1627.248 L 421.424 1656.496 494.412 1583.588 L 567.400 1510.680 541.012 1480.423 C 351.671 1263.326,275.853 999.486,322.492 720.000 C 348.812 562.272,423.017 410.170,537.568 279.144 L 567.261 245.180 494.526 172.526 L 421.792 99.871 405.401 116.936 M1904.892 172.911 L 1831.783 246.296 1844.083 258.080 C 1861.689 274.948,1914.980 343.850,1943.018 386.000 C 2050.133 547.023,2103.522 751.197,2088.229 941.332 C 2078.453 1062.882,2052.272 1160.815,2002.245 1262.971 C 1959.834 1349.573,1918.845 1411.791,1858.988 1480.423 L 1832.600 1510.680 1905.685 1583.686 L 1978.771 1656.691 2014.455 1615.346 C 2128.795 1482.863,2190.411 1376.466,2241.900 1222.599 C 2282.910 1100.050,2297.323 1010.599,2297.102 880.000 C 2296.900 760.345,2284.334 670.851,2253.294 568.000 C 2203.688 403.637,2115.338 248.709,1999.392 122.763 L 1978.000 99.527 1904.892 172.911 M694.126 412.690 C 606.506 510.075,548.452 628.857,521.446 766.000 C 512.698 810.428,511.578 930.613,519.490 976.000 C 543.678 1114.757,597.969 1231.924,684.172 1331.402 L 713.116 1364.804 786.258 1291.742 L 859.401 1218.680 840.212 1196.340 C 797.319 1146.403,758.515 1074.609,737.334 1006.000 C 726.534 971.014,726.223 967.409,726.307 878.000 C 726.390 789.077,726.762 784.796,737.420 750.000 C 758.113 682.448,795.744 611.985,837.273 563.032 L 859.229 537.149 786.264 464.264 L 713.300 391.379 694.126 412.690 M1613.246 465.168 L 1540.908 538.000 1563.454 564.492 C 1609.126 618.159,1654.531 710.258,1668.195 776.950 C 1698.256 923.680,1663.178 1064.199,1565.720 1187.448 L 1540.837 1218.917 1613.949 1291.949 L 1687.061 1364.981 1716.530 1330.235 C 1837.300 1187.841,1899.920 1001.829,1884.609 830.963 C 1870.793 676.795,1818.686 549.241,1721.491 431.661 C 1707.697 414.974,1693.975 399.299,1690.998 396.828 C 1686.712 393.271,1670.519 407.503,1613.246 465.168 M1174.000 832.614 C 1145.959 838.982,1121.057 860.907,1107.417 891.238 C 1085.238 940.553,595.989 2170.982,557.856 2273.346 C 551.712 2289.838,551.486 2293.223,556.324 2296.285 C 562.742 2300.347,1800.048 2301.485,1829.442 2297.456 C 1839.649 2296.057,1848.000 2293.201,1848.000 2291.109 C 1848.000 2286.406,1822.624 2221.872,1587.259 1628.000 C 1296.272 893.785,1285.164 867.070,1264.837 852.596 C 1240.178 835.037,1201.143 826.451,1174.000 832.614 M1209.276 1055.000 C 1225.082 1091.528,1433.140 1622.757,1444.526 1655.656 C 1448.648 1667.567,1451.258 1678.075,1450.326 1679.008 C 1447.927 1681.406,1200.900 1485.725,1097.283 1399.348 L 1064.567 1372.075 1078.908 1335.038 C 1090.749 1304.456,1168.894 1109.388,1191.091 1055.000 C 1194.459 1046.750,1198.467 1040.000,1199.999 1040.000 C 1201.531 1040.000,1205.706 1046.750,1209.276 1055.000 M1047.664 1539.000 C 1076.275 1560.778,1345.470 1776.218,1367.122 1794.666 L 1377.293 1803.331 1363.646 1811.766 C 1343.247 1824.375,812.135 2089.884,796.582 2095.248 C 783.333 2099.817,783.197 2099.744,785.788 2089.420 C 789.138 2076.075,847.777 1924.889,925.970 1728.000 C 988.905 1569.531,1011.451 1516.000,1015.259 1516.000 C 1016.463 1516.000,1031.045 1526.350,1047.664 1539.000 M1588.418 2019.833 C 1614.993 2087.025,1637.021 2146.500,1637.368 2152.000 L 1638.000 2162.000 1306.000 2162.793 L 974.000 2163.587 1252.000 2024.115 C 1500.003 1899.694,1530.545 1885.347,1535.050 1891.155 C 1537.827 1894.735,1561.843 1952.640,1588.418 2019.833 " fill="#1D1E23" stroke="none" fill-rule="evenodd"/></svg>