<svg viewBox="0 0 2400 2400" fill="none" xmlns="http://www.w3.org/2000/svg"><path d="M733.909 307.981 C 685.629 323.060,498.798 488.659,422.501 584.000 C 354.856 668.530,288.077 784.924,253.824 878.000 C 234.711 929.934,214.026 1010.958,206.207 1064.513 C 196.730 1129.423,197.793 1249.985,208.394 1312.499 C 252.015 1569.743,405.894 1808.371,650.758 1998.497 C 732.832 2062.224,768.308 2073.580,816.183 2051.446 C 846.372 2037.489,865.656 2019.588,878.267 1993.812 C 887.553 1974.833,888.679 1968.306,887.427 1940.744 C 885.504 1898.399,878.144 1888.507,796.000 1817.862 C 721.730 1753.989,639.222 1672.866,602.897 1628.000 C 527.162 1534.458,471.332 1419.488,447.503 1308.000 C 439.814 1272.022,438.489 1253.383,438.263 1178.000 C 437.973 1080.901,443.204 1045.446,468.587 972.478 C 497.568 889.168,561.599 779.575,620.773 712.000 C 658.089 669.387,751.238 576.000,756.426 576.000 C 763.053 576.000,847.804 656.612,1026.273 832.667 C 1385.010 1186.553,1427.479 1227.157,1450.848 1238.590 C 1494.096 1259.749,1543.890 1249.094,1577.750 1211.434 C 1587.382 1200.720,1598.129 1183.543,1601.632 1173.264 C 1610.132 1148.317,1609.632 1113.936,1600.478 1094.000 C 1590.311 1071.858,1455.734 932.260,1195.582 673.998 C 964.937 445.028,837.466 323.095,818.386 313.189 C 804.493 305.976,750.906 302.673,733.909 307.981 M1573.178 313.969 C 1533.195 334.265,1510.400 370.447,1510.156 414.000 C 1509.902 459.478,1520.989 477.164,1582.904 530.046 C 1701.925 631.702,1786.141 718.297,1829.883 784.000 C 1895.873 883.119,1937.807 979.541,1950.786 1062.000 C 1958.805 1112.947,1959.797 1249.021,1952.478 1294.000 C 1944.222 1344.734,1922.570 1405.565,1888.294 1474.323 C 1835.923 1579.380,1799.046 1629.142,1699.229 1729.446 L 1636.092 1792.893 1385.046 1543.825 C 1086.693 1247.824,965.461 1131.503,945.389 1121.978 C 924.989 1112.297,871.936 1115.445,846.297 1127.856 C 812.028 1144.446,786.957 1187.274,786.349 1230.265 C 786.033 1252.645,787.443 1257.066,801.355 1277.291 C 827.549 1315.375,949.189 1440.595,1198.378 1686.000 C 1499.424 1982.474,1551.993 2033.235,1571.022 2045.827 C 1589.355 2057.960,1626.354 2062.959,1650.152 2056.519 C 1714.965 2038.980,1900.067 1874.482,1991.345 1753.304 C 2071.659 1646.682,2133.228 1523.894,2167.498 1402.000 C 2186.986 1332.684,2192.384 1293.142,2194.799 1202.000 C 2197.280 1108.390,2192.911 1065.325,2172.072 978.000 C 2139.074 839.714,2069.420 703.197,1969.597 581.160 C 1905.417 502.698,1781.679 385.634,1716.000 341.242 C 1678.063 315.601,1655.645 306.780,1624.000 305.045 C 1597.604 303.597,1591.499 304.669,1573.178 313.969 " fill="#1D1E23" stroke="none" fill-rule="evenodd"/></svg>