<svg viewBox="0 0 2400 2400" fill="none" xmlns="http://www.w3.org/2000/svg"><path d="M1600.000 303.715 C 1549.278 314.151,1508.000 364.571,1508.000 416.090 C 1508.000 437.401,1517.333 465.038,1530.249 481.971 C 1536.451 490.102,1565.932 516.715,1595.763 541.110 C 1677.520 607.971,1792.106 724.572,1824.628 774.000 C 1882.092 861.338,1917.631 933.601,1940.189 1008.982 C 1954.857 1057.996,1962.231 1146.413,1958.623 1230.000 C 1954.988 1314.190,1938.610 1373.424,1892.262 1470.000 C 1844.829 1568.837,1788.579 1643.924,1691.977 1737.356 L 1634.743 1792.711 1446.371 1604.938 C 1159.760 1319.236,975.932 1140.161,956.217 1127.458 C 940.755 1117.495,934.591 1116.000,908.988 1116.000 C 869.352 1116.000,847.643 1122.114,828.206 1138.752 C 805.630 1158.076,793.116 1181.342,787.415 1214.592 C 782.682 1242.189,782.849 1243.566,793.568 1265.474 C 801.571 1281.833,825.648 1310.148,881.597 1368.996 C 956.770 1448.066,1371.137 1858.710,1505.338 1987.134 C 1569.893 2048.910,1573.602 2051.765,1595.080 2056.224 C 1641.245 2065.808,1668.743 2056.792,1727.034 2012.961 C 1815.700 1946.291,1907.914 1858.412,1969.396 1781.994 C 2075.737 1649.819,2149.336 1498.197,2182.299 1343.388 C 2196.555 1276.433,2200.525 1140.968,2190.300 1070.318 C 2155.199 827.772,2040.625 626.660,1826.000 430.863 C 1713.657 328.375,1651.128 293.196,1600.000 303.715 M729.280 309.846 C 668.101 336.456,502.309 484.679,422.631 584.000 C 304.233 731.586,230.117 896.740,205.425 1068.000 C 197.532 1122.740,196.606 1234.304,203.632 1284.000 C 226.807 1447.927,293.600 1606.334,397.835 1744.576 C 464.513 1833.007,540.808 1910.942,634.370 1986.195 C 711.463 2048.201,750.563 2068.162,783.008 2062.075 C 847.905 2049.900,890.217 2003.784,889.508 1946.000 C 888.954 1900.854,876.227 1883.805,790.156 1812.902 C 715.852 1751.693,625.396 1660.497,584.933 1606.000 C 507.578 1501.815,460.316 1393.571,441.931 1278.484 C 434.411 1231.412,433.382 1135.818,439.881 1088.000 C 454.977 976.914,507.890 858.308,593.337 744.021 C 623.574 703.578,748.056 576.000,757.280 576.000 C 764.821 576.000,863.391 671.080,1158.427 962.949 C 1296.836 1099.870,1419.307 1218.831,1430.585 1227.306 C 1466.824 1254.535,1506.277 1257.435,1547.978 1235.936 C 1599.833 1209.201,1624.226 1140.914,1600.176 1089.812 C 1583.326 1054.009,856.082 330.435,818.816 312.395 C 798.188 302.409,749.560 301.025,729.280 309.846 " fill="#1D1E23" stroke="none" fill-rule="evenodd"/></svg>