<svg viewBox="0 0 2400 2400" fill="none" xmlns="http://www.w3.org/2000/svg"><path d="M746.000 303.551 C 716.366 311.297,668.783 343.989,595.166 407.185 C 292.353 667.132,153.869 997.002,210.121 1324.365 C 251.559 1565.518,398.158 1796.150,627.263 1980.620 C 724.730 2059.099,750.865 2070.902,799.551 2058.429 C 813.277 2054.913,832.286 2046.683,841.795 2040.141 C 877.804 2015.366,897.498 1966.880,888.281 1925.693 C 880.331 1890.169,866.149 1873.645,793.637 1815.419 C 619.660 1675.720,518.510 1541.294,464.496 1378.000 C 430.590 1275.498,423.963 1154.146,446.366 1046.000 C 467.827 942.401,535.380 810.939,617.320 713.312 C 647.361 677.520,743.237 582.844,756.801 575.576 C 762.375 572.589,819.756 627.612,1074.689 880.401 C 1245.787 1050.059,1398.646 1200.389,1414.376 1214.467 C 1438.983 1236.490,1446.684 1240.980,1469.525 1246.616 C 1494.360 1252.745,1497.730 1252.719,1521.745 1246.218 C 1567.803 1233.751,1598.195 1202.204,1607.814 1156.878 C 1615.112 1122.485,1606.195 1090.114,1581.440 1061.138 C 1560.178 1036.250,984.319 462.299,892.076 374.057 C 858.018 341.477,824.640 312.517,817.904 309.702 C 801.955 303.038,761.277 299.558,746.000 303.551 M1588.000 306.033 C 1527.193 326.220,1493.981 391.729,1513.999 451.996 C 1523.223 479.769,1538.039 495.455,1607.746 551.248 C 1675.832 605.743,1768.637 696.680,1801.705 741.301 C 1871.216 835.097,1919.949 931.369,1944.807 1024.000 C 1956.543 1067.733,1957.243 1074.632,1959.012 1164.000 C 1961.143 1271.663,1957.834 1297.847,1932.265 1375.641 C 1886.879 1513.724,1801.409 1640.150,1677.232 1752.879 L 1634.082 1792.051 1442.041 1600.608 C 1188.625 1347.982,977.760 1141.693,958.400 1127.465 C 943.758 1116.704,940.441 1116.005,904.400 1116.088 C 858.088 1116.194,841.657 1122.454,816.889 1149.427 C 797.941 1170.063,793.277 1179.873,787.418 1211.421 C 781.565 1242.933,786.110 1260.668,807.324 1289.092 C 817.548 1302.791,884.433 1373.208,955.957 1445.573 C 1151.371 1643.286,1560.332 2043.958,1574.000 2051.089 C 1580.600 2054.533,1599.757 2058.167,1616.572 2059.165 C 1655.226 2061.458,1673.658 2053.649,1730.000 2011.110 C 1990.011 1814.797,2149.279 1568.064,2190.316 1298.000 C 2198.498 1244.151,2199.552 1136.966,2192.420 1084.000 C 2161.123 851.582,2062.708 662.686,1877.337 479.237 C 1799.908 402.611,1729.232 344.463,1679.491 316.462 C 1651.895 300.927,1615.779 296.810,1588.000 306.033 " fill="#1D1E23" stroke="none" fill-rule="evenodd"/></svg>