<svg viewBox="0 0 2400 2400" fill="none" xmlns="http://www.w3.org/2000/svg"><path d="M1286.000 208.399 C 1240.501 213.904,1160.820 230.418,1113.762 244.096 C 976.522 283.985,820.382 374.454,715.971 474.581 C 572.803 611.874,478.206 773.093,429.987 961.974 C 405.806 1056.699,402.910 1086.667,405.099 1219.553 C 406.882 1327.760,407.951 1342.201,417.473 1386.596 C 460.762 1588.428,548.284 1755.069,683.673 1893.434 C 804.698 2017.120,933.827 2097.397,1096.184 2149.883 C 1208.308 2186.130,1275.074 2196.463,1398.000 2196.590 C 1472.018 2196.667,1499.773 2195.088,1540.000 2188.511 C 1604.581 2177.953,1685.969 2157.139,1744.133 2136.306 C 1797.828 2117.075,1890.000 2072.168,1890.000 2065.239 C 1890.000 2062.621,1864.800 2042.635,1834.000 2020.827 C 1690.410 1919.156,1580.179 1792.032,1507.134 1643.867 C 1466.536 1561.518,1443.483 1494.583,1421.502 1395.234 C 1411.164 1348.511,1410.523 1339.402,1408.927 1216.615 C 1407.055 1072.549,1409.050 1051.716,1434.133 953.427 C 1466.897 825.038,1528.127 699.538,1611.316 590.264 C 1655.395 532.364,1740.574 448.615,1800.000 404.746 C 1827.500 384.445,1859.711 360.480,1871.580 351.490 L 1893.160 335.144 1880.324 327.017 C 1858.948 313.483,1759.228 269.239,1716.863 254.493 C 1671.609 238.741,1603.633 222.756,1543.214 213.657 C 1493.464 206.165,1331.778 202.860,1286.000 208.399 " fill="#1D1E23" stroke="none" fill-rule="evenodd"/></svg>