<svg viewBox="0 0 2400 2400" fill="none" xmlns="http://www.w3.org/2000/svg"><path d="M1312.000 204.220 C 866.753 244.872,503.331 572.758,418.540 1010.317 C 347.915 1374.769,485.254 1747.583,776.000 1980.656 C 961.882 2129.666,1195.841 2207.243,1434.000 2198.837 C 1577.444 2193.775,1714.140 2158.844,1846.785 2093.356 C 1890.766 2071.643,1901.861 2063.954,1893.322 2061.107 C 1883.270 2057.757,1806.510 2004.404,1772.000 1976.782 C 1372.757 1657.221,1282.607 1076.627,1566.009 650.136 C 1643.117 534.095,1742.478 435.648,1854.801 364.000 C 1877.219 349.700,1895.660 336.664,1895.781 335.031 C 1896.134 330.252,1802.020 284.482,1752.401 265.301 C 1618.448 213.520,1456.362 191.039,1312.000 204.220 " fill="#1D1E23" stroke="none" fill-rule="evenodd"/></svg>