<svg viewBox="0 0 2400 2400" fill="none" xmlns="http://www.w3.org/2000/svg"><path d="M1222.000 217.876 C 1163.305 229.154,1120.977 240.019,1075.100 255.584 C 807.045 346.530,576.490 565.936,471.805 829.709 C 394.862 1023.580,380.065 1241.464,430.297 1440.920 C 475.771 1621.484,565.576 1777.685,700.512 1910.913 C 725.530 1935.615,758.600 1965.893,774.000 1978.198 C 1017.487 2172.749,1342.252 2244.714,1638.000 2169.653 C 1736.359 2144.689,1817.461 2111.165,1839.000 2086.568 C 1863.534 2058.549,1856.459 2046.487,1774.441 1976.504 C 1684.034 1899.363,1631.061 1842.314,1578.975 1766.000 C 1506.793 1660.243,1459.531 1554.905,1430.242 1434.506 C 1409.078 1347.509,1406.810 1324.912,1406.504 1198.000 C 1406.200 1071.798,1408.634 1049.154,1432.368 957.397 C 1467.798 820.424,1533.922 684.918,1614.578 584.000 C 1654.892 533.559,1702.798 485.571,1773.370 424.939 C 1814.389 389.697,1842.813 362.229,1845.928 354.819 C 1852.136 340.056,1848.093 322.873,1835.180 309.127 C 1808.618 280.853,1656.271 229.493,1552.622 213.869 C 1524.826 209.679,1479.801 208.132,1392.000 208.350 C 1281.922 208.624,1265.309 209.555,1222.000 217.876 " fill="#1D1E23" stroke="none" fill-rule="evenodd"/></svg>