<svg viewBox="0 0 2400 2400" fill="none" xmlns="http://www.w3.org/2000/svg"><path d="M1313.535 204.063 C 1070.386 227.730,862.833 324.763,693.797 493.797 C 537.209 650.383,442.156 840.270,409.367 1062.000 C 399.439 1129.139,399.384 1275.936,409.262 1340.000 C 453.861 1629.224,607.645 1872.216,847.740 2032.832 C 967.442 2112.909,1109.899 2167.477,1260.000 2190.747 C 1323.946 2200.661,1475.316 2200.587,1538.844 2190.612 C 1624.857 2177.105,1717.093 2150.967,1789.392 2119.609 C 1828.131 2102.807,1837.720 2096.013,1846.410 2079.208 C 1859.915 2053.091,1850.356 2036.151,1800.955 1998.664 C 1579.390 1830.529,1443.984 1597.106,1407.272 1320.000 C 1400.788 1271.059,1400.832 1124.503,1407.344 1078.000 C 1446.541 798.113,1579.810 569.148,1801.388 401.009 C 1846.398 366.854,1854.912 353.671,1848.160 328.593 C 1842.360 307.054,1831.370 298.593,1782.726 278.213 C 1701.702 244.267,1618.863 221.615,1532.000 209.654 C 1479.287 202.395,1361.609 199.383,1313.535 204.063 " fill="#1D1E23" stroke="none" fill-rule="evenodd"/></svg>