<svg viewBox="0 0 2400 2400" fill="none" xmlns="http://www.w3.org/2000/svg"><path d="M1332.000 204.273 C 1245.681 209.423,1140.533 231.594,1058.000 262.046 C 966.106 295.953,844.979 364.752,770.000 425.627 C 699.746 482.667,618.555 571.702,569.044 646.000 C 486.254 770.237,428.711 922.141,407.670 1072.000 C 400.497 1123.089,401.629 1288.708,409.499 1339.463 C 479.680 1792.094,824.394 2129.903,1280.000 2192.526 C 1328.605 2199.206,1467.227 2199.310,1514.000 2192.701 C 1606.745 2179.596,1694.380 2156.988,1772.000 2126.141 C 1820.831 2106.736,1896.618 2068.236,1894.078 2064.126 C 1893.000 2062.382,1875.442 2049.603,1855.059 2035.729 C 1788.693 1990.552,1754.832 1963.210,1704.561 1914.199 C 1546.446 1760.050,1451.093 1576.071,1413.181 1352.000 C 1404.220 1299.037,1402.986 1113.561,1411.238 1060.000 C 1445.449 837.953,1546.769 638.949,1702.543 487.846 C 1752.138 439.739,1783.144 414.468,1847.000 370.109 C 1871.750 352.916,1892.000 337.196,1892.000 335.176 C 1892.000 328.591,1763.251 268.925,1713.079 252.258 C 1599.859 214.648,1457.840 196.765,1332.000 204.273 " fill="#1D1E23" stroke="none" fill-rule="evenodd"/></svg>