<svg viewBox="0 0 2400 2400" fill="none" xmlns="http://www.w3.org/2000/svg"><path d="M1314.000 204.536 C 1082.368 224.432,857.889 329.552,691.925 495.842 C 563.891 624.128,474.707 781.991,430.831 958.000 C 407.850 1050.188,402.214 1097.848,402.214 1200.000 C 402.214 1302.152,407.850 1349.812,430.831 1442.000 C 538.198 1872.704,916.001 2179.890,1361.431 2198.656 C 1494.614 2204.267,1640.128 2178.893,1769.013 2127.584 C 1815.148 2109.218,1896.123 2069.199,1895.712 2064.967 C 1895.554 2063.335,1875.304 2048.873,1850.712 2032.828 C 1428.469 1757.340,1280.110 1202.431,1508.274 752.000 C 1587.290 596.009,1699.908 468.536,1843.972 372.019 C 1870.036 354.557,1892.497 338.432,1893.885 336.185 C 1896.974 331.189,1797.547 282.589,1742.219 262.051 C 1612.076 213.741,1454.000 192.510,1314.000 204.536 " fill="#1D1E23" stroke="none" fill-rule="evenodd"/></svg>