<svg viewBox="0 0 2400 2400" fill="none" xmlns="http://www.w3.org/2000/svg"><path d="M1244.000 214.535 C 1095.484 240.699,970.955 289.486,852.377 367.964 C 790.311 409.040,753.783 439.019,697.630 494.964 C 540.978 651.035,447.964 832.561,412.140 1052.123 C 400.602 1122.837,400.461 1276.298,411.869 1346.219 C 438.443 1509.086,504.353 1668.881,592.801 1784.877 C 634.755 1839.898,701.482 1913.664,742.767 1950.662 C 877.670 2071.556,1061.229 2156.208,1258.000 2188.271 C 1304.681 2195.878,1321.252 2196.548,1420.000 2194.826 C 1523.890 2193.015,1533.283 2192.216,1589.104 2180.439 C 1696.645 2157.751,1807.017 2116.367,1835.230 2088.155 C 1862.562 2060.822,1858.192 2053.269,1767.008 1970.260 C 1630.849 1846.308,1571.659 1769.715,1501.815 1627.094 C 1459.739 1541.175,1433.618 1461.980,1417.676 1372.000 C 1409.282 1324.623,1406.408 1201.384,1411.426 1104.000 C 1415.202 1030.703,1417.130 1016.481,1429.590 970.000 C 1478.676 786.888,1557.952 639.966,1672.707 519.434 C 1686.618 504.822,1730.111 463.603,1769.359 427.835 C 1808.606 392.067,1842.642 358.577,1844.995 353.413 C 1851.288 339.602,1842.616 314.407,1827.983 303.988 C 1798.830 283.229,1713.827 251.689,1626.000 229.044 L 1570.000 214.605 1412.000 213.689 C 1325.100 213.186,1249.500 213.567,1244.000 214.535 " fill="#1D1E23" stroke="none" fill-rule="evenodd"/></svg>