<svg viewBox="0 0 2400 2400" fill="none" xmlns="http://www.w3.org/2000/svg"><path d="M1000.010 401.988 L 802.020 600.010 1001.010 799.000 L 1200.000 997.990 1200.000 848.995 L 1200.000 700.000 1212.158 700.000 C 1237.483 700.000,1303.374 708.768,1338.000 716.746 C 1555.434 766.844,1732.969 944.368,1783.282 1162.000 C 1814.262 1296.008,1799.799 1432.642,1741.596 1555.827 C 1712.152 1618.146,1676.018 1668.549,1622.282 1722.258 C 1532.573 1811.922,1444.158 1859.470,1311.000 1889.659 L 1300.000 1892.152 1300.000 1992.076 C 1300.000 2087.431,1300.346 2092.000,1307.568 2092.000 C 1319.062 2092.000,1390.648 2077.073,1420.000 2068.556 C 1734.165 1977.395,1960.205 1708.308,1995.753 1383.158 C 2020.758 1154.445,1940.003 917.521,1780.075 750.390 C 1639.436 603.417,1462.652 519.555,1259.048 503.225 L 1200.096 498.497 1199.048 351.232 L 1198.000 203.966 1000.010 401.988 M609.142 761.416 C 558.859 815.168,515.208 879.852,479.953 952.852 C 373.459 1173.360,373.472 1426.260,479.989 1647.148 C 518.957 1727.959,559.696 1786.387,623.785 1853.379 C 737.700 1972.455,881.142 2050.928,1045.432 2084.050 C 1067.120 2088.423,1088.270 2092.000,1092.432 2092.000 C 1099.654 2092.000,1100.000 2087.431,1100.000 1992.076 L 1100.000 1892.152 1089.000 1889.659 C 955.842 1859.470,867.427 1811.922,777.718 1722.258 C 626.255 1570.871,568.421 1366.547,617.937 1157.759 C 639.663 1066.148,692.214 966.548,753.252 901.298 L 777.399 875.485 707.743 805.742 C 669.431 767.384,636.923 736.000,635.501 736.000 C 634.080 736.000,622.218 747.437,609.142 761.416 " fill="#1D1E23" stroke="none" fill-rule="evenodd"/></svg>