<svg viewBox="0 0 2400 2400" fill="none" xmlns="http://www.w3.org/2000/svg"><path d="M996.165 405.961 L 802.000 599.921 1001.000 798.956 L 1200.000 997.990 1200.000 848.995 L 1200.000 700.000 1215.000 700.001 C 1253.422 700.003,1367.860 723.321,1411.231 739.985 C 1602.158 813.344,1742.005 977.366,1786.576 1180.210 C 1797.043 1227.851,1797.222 1366.615,1786.879 1416.000 C 1776.598 1465.090,1762.009 1508.266,1739.953 1554.875 C 1710.350 1617.434,1676.977 1663.321,1618.161 1722.341 C 1535.338 1805.449,1461.459 1848.536,1347.000 1880.486 L 1300.000 1893.606 1300.061 1987.803 C 1300.095 2039.611,1301.717 2084.519,1303.667 2087.598 C 1306.629 2092.277,1311.382 2092.404,1332.606 2088.374 C 1636.983 2030.579,1870.796 1825.555,1963.315 1535.322 C 2070.416 1199.350,1936.476 829.765,1636.000 632.154 C 1523.414 558.110,1404.839 518.543,1250.758 503.603 L 1200.000 498.682 1200.000 355.341 C 1200.000 245.943,1198.855 212.000,1195.165 212.000 C 1192.506 212.000,1102.956 299.282,996.165 405.961 M609.775 761.026 C 459.915 924.820,380.724 1162.960,404.222 1379.158 C 416.030 1487.804,458.809 1617.708,512.093 1706.727 C 630.639 1904.774,835.015 2046.569,1058.950 2086.136 C 1087.072 2091.104,1090.471 2091.002,1095.000 2085.046 C 1098.666 2080.225,1100.000 2053.811,1100.000 1986.038 L 1100.000 1893.606 1053.000 1880.486 C 948.124 1851.211,868.042 1806.545,795.288 1736.747 C 656.405 1603.504,591.631 1442.536,604.189 1261.852 C 613.473 1128.287,664.284 1004.431,750.220 905.896 L 777.046 875.136 711.523 809.310 C 675.485 773.106,642.990 741.812,639.312 739.768 C 633.990 736.812,627.955 741.155,609.775 761.026 " fill="#1D1E23" stroke="none" fill-rule="evenodd"/></svg>