<svg viewBox="0 0 2400 2400" fill="none" xmlns="http://www.w3.org/2000/svg"><path d="M1117.877 287.193 C 1096.668 304.277,923.134 478.502,858.709 547.393 C 811.698 597.663,811.089 600.665,840.570 636.792 C 872.394 675.793,1112.203 913.109,1128.360 921.591 C 1146.861 931.304,1165.195 928.107,1185.105 911.695 L 1200.000 899.418 1200.000 799.709 L 1200.000 700.000 1209.795 700.000 C 1233.860 700.000,1317.570 713.212,1354.000 722.760 C 1570.365 779.467,1734.882 952.616,1784.644 1176.000 C 1792.782 1212.532,1794.000 1228.676,1794.000 1300.000 C 1794.000 1391.534,1790.028 1418.359,1765.607 1491.761 C 1721.196 1625.246,1623.115 1744.759,1496.012 1820.270 C 1481.203 1829.068,1442.292 1847.145,1409.543 1860.440 C 1327.944 1893.567,1313.097 1906.181,1303.974 1950.127 C 1294.964 1993.526,1314.681 2034.328,1355.834 2057.448 C 1392.472 2078.031,1419.873 2073.498,1522.000 2029.956 C 1696.690 1955.477,1851.453 1801.772,1929.712 1625.032 C 2003.309 1458.821,2018.560 1279.789,1974.074 1104.291 C 1938.023 962.073,1869.891 842.190,1765.962 738.104 C 1696.663 668.702,1630.891 622.195,1542.000 579.745 C 1456.362 538.848,1376.372 517.458,1263.067 505.157 L 1200.134 498.324 1199.067 398.600 L 1198.000 298.876 1183.472 287.121 C 1175.240 280.459,1162.186 274.459,1153.349 273.274 C 1139.607 271.430,1135.391 273.085,1117.877 287.193 M596.950 792.446 C 564.644 808.437,527.092 860.330,484.052 948.461 C 360.364 1201.729,375.158 1484.405,524.723 1725.553 C 583.086 1819.653,674.952 1912.128,770.926 1973.389 C 829.653 2010.875,925.730 2053.857,979.275 2066.598 C 1015.006 2075.101,1033.856 2070.068,1060.851 2044.817 C 1095.857 2012.073,1106.609 1977.964,1093.945 1939.835 C 1082.060 1904.053,1063.309 1889.362,995.041 1862.344 C 897.832 1823.873,842.270 1786.609,769.713 1711.226 C 689.360 1627.741,636.574 1529.462,613.296 1420.000 C 602.968 1371.436,603.140 1228.785,613.584 1180.210 C 628.793 1109.475,657.768 1040.148,705.619 960.000 C 741.257 900.308,745.827 875.346,727.679 839.487 C 717.989 820.339,686.648 793.113,668.491 788.070 C 644.602 781.434,615.614 783.207,596.950 792.446 " fill="#1D1E23" stroke="none" fill-rule="evenodd"/></svg>