<svg viewBox="0 0 2400 2400" fill="none" xmlns="http://www.w3.org/2000/svg"><path d="M1117.752 287.077 C 1076.088 326.783,988.007 413.438,922.015 479.644 L 802.030 600.020 1001.015 799.005 L 1200.000 997.990 1200.000 848.995 L 1200.000 700.000 1211.000 700.024 C 1231.845 700.068,1302.121 712.111,1352.328 724.242 C 1409.102 737.959,1476.188 768.069,1535.278 806.356 C 1582.984 837.266,1658.105 913.355,1693.194 966.308 C 1744.412 1043.601,1781.201 1137.157,1788.049 1207.524 C 1793.090 1259.321,1792.961 1358.458,1787.799 1400.105 C 1782.381 1443.811,1757.715 1517.558,1731.342 1568.901 C 1676.326 1676.006,1569.756 1782.800,1465.728 1835.073 C 1437.206 1849.405,1364.335 1876.182,1327.000 1886.051 L 1300.000 1893.187 1300.028 1965.594 C 1300.066 2062.170,1302.932 2092.000,1312.173 2092.000 C 1326.960 2092.000,1433.365 2063.074,1473.917 2048.031 C 1649.430 1982.921,1790.840 1865.005,1887.816 1702.898 C 1928.084 1635.584,1965.837 1538.058,1983.392 1456.000 C 2026.252 1255.647,1982.139 1035.699,1863.798 859.699 C 1784.461 741.709,1672.068 643.636,1545.779 582.200 C 1468.226 544.473,1375.335 519.794,1257.000 505.478 L 1200.000 498.583 1199.719 364.291 C 1199.564 290.431,1198.103 226.599,1196.471 222.442 C 1193.957 216.038,1181.944 225.901,1117.752 287.077 M611.272 759.979 C 587.325 784.824,543.186 844.303,519.238 884.000 C 431.748 1029.027,387.162 1216.596,403.714 1370.000 C 418.625 1508.196,472.687 1655.109,547.138 1759.758 C 578.453 1803.774,652.228 1881.838,695.683 1916.937 C 791.422 1994.267,897.792 2046.867,1017.900 2076.273 C 1078.807 2091.185,1090.901 2091.411,1096.099 2077.740 C 1098.245 2072.096,1100.000 2028.332,1100.000 1980.486 L 1100.000 1893.492 1067.000 1884.148 C 930.933 1845.621,847.523 1794.768,758.035 1695.776 C 642.833 1568.339,593.716 1423.418,607.631 1252.000 C 618.468 1118.505,667.785 1002.070,757.381 898.451 L 777.743 874.902 708.846 807.451 C 670.952 770.353,637.829 740.000,635.239 740.000 C 632.649 740.000,621.864 748.990,611.272 759.979 " fill="#1D1E23" stroke="none" fill-rule="evenodd"/></svg>