<svg viewBox="0 0 2400 2400" fill="none" xmlns="http://www.w3.org/2000/svg"><path d="M997.406 405.236 L 802.000 599.629 1001.000 798.809 L 1200.000 997.990 1200.000 848.408 L 1200.000 698.826 1230.421 701.398 C 1273.083 705.004,1355.343 722.203,1398.000 736.436 C 1441.921 751.090,1507.059 784.959,1549.809 815.371 C 1592.327 845.618,1651.883 905.974,1684.899 952.276 C 1732.029 1018.373,1770.294 1105.202,1785.797 1181.232 C 1793.240 1217.735,1794.770 1363.777,1788.139 1404.886 C 1780.019 1455.234,1759.162 1516.396,1732.001 1569.505 C 1676.275 1678.473,1569.252 1784.290,1460.169 1838.275 C 1429.348 1853.529,1346.549 1882.507,1312.804 1889.850 L 1299.607 1892.722 1300.804 1990.035 C 1301.462 2043.557,1303.357 2088.702,1305.016 2090.356 C 1309.855 2095.184,1389.505 2077.018,1446.502 2058.087 C 1657.720 1987.934,1822.838 1843.709,1918.288 1646.000 C 2010.740 1454.501,2024.728 1253.480,1959.483 1054.000 C 1908.726 898.818,1807.544 759.246,1673.326 659.275 C 1556.779 572.465,1437.264 526.952,1273.767 507.117 L 1200.000 498.168 1199.939 360.084 C 1199.905 284.138,1198.288 219.490,1196.345 216.421 C 1193.691 212.230,1144.228 259.176,997.406 405.236 M613.423 757.000 C 498.957 881.774,423.637 1050.514,404.078 1226.000 C 390.043 1351.927,412.888 1487.305,471.521 1625.661 C 549.074 1808.661,714.803 1966.147,911.967 2044.201 C 960.226 2063.306,1054.081 2088.000,1078.435 2088.000 C 1093.788 2088.000,1095.183 2087.085,1097.500 2075.500 C 1098.875 2068.625,1100.000 2024.950,1100.000 1978.444 L 1100.000 1893.887 1049.000 1878.755 C 934.561 1844.798,861.981 1802.462,783.976 1724.166 C 684.589 1624.408,629.229 1518.435,609.410 1390.000 C 601.191 1336.742,604.178 1233.340,615.451 1180.873 C 637.879 1076.485,682.437 985.720,750.120 906.548 L 777.008 875.095 709.548 807.548 C 672.445 770.396,639.148 740.000,635.554 740.000 C 631.959 740.000,622.001 747.650,613.423 757.000 " fill="#1D1E23" stroke="none" fill-rule="evenodd"/></svg>