<svg viewBox="0 0 2400 2400" fill="none" xmlns="http://www.w3.org/2000/svg"><path d="M997.995 404.005 L 802.020 600.010 1001.010 799.000 L 1200.000 997.990 1200.000 848.995 L 1200.000 700.000 1215.000 700.018 C 1245.586 700.056,1338.801 716.249,1377.320 728.216 C 1645.628 811.573,1821.608 1073.648,1796.022 1351.762 C 1782.786 1495.630,1725.372 1617.807,1622.427 1721.172 C 1539.533 1804.403,1458.109 1851.035,1341.000 1882.349 L 1300.000 1893.311 1300.000 1990.781 C 1300.000 2072.859,1300.929 2088.607,1305.882 2090.508 C 1315.467 2094.186,1407.895 2073.103,1458.780 2055.631 C 1695.626 1974.307,1880.750 1786.863,1959.409 1548.731 C 2071.882 1208.227,1943.033 836.961,1642.425 635.375 C 1529.195 559.444,1402.905 516.445,1255.000 503.465 L 1200.000 498.639 1200.000 353.319 C 1200.000 273.394,1198.643 208.000,1196.985 208.000 C 1195.326 208.000,1105.781 296.202,997.995 404.005 M607.931 763.000 C 458.632 925.688,380.559 1161.844,404.231 1379.158 C 417.109 1497.380,459.791 1623.596,519.225 1719.211 C 618.358 1878.692,771.610 1999.612,948.000 2057.527 C 1019.280 2080.930,1091.299 2095.551,1096.310 2087.635 C 1098.272 2084.536,1099.905 2039.545,1099.939 1987.656 L 1100.000 1893.311 1059.000 1882.349 C 942.793 1851.277,860.434 1804.333,779.578 1723.080 C 627.809 1570.565,569.260 1367.279,617.931 1161.824 C 640.322 1067.307,690.399 970.771,752.370 902.664 L 777.243 875.328 707.664 805.664 C 669.396 767.349,636.876 736.000,635.397 736.000 C 633.919 736.000,621.559 748.150,607.931 763.000 " fill="#1D1E23" stroke="none" fill-rule="evenodd"/></svg>