<svg viewBox="0 0 2400 2400" fill="none" xmlns="http://www.w3.org/2000/svg"><path d="M977.266 424.785 C 870.597 531.321,823.545 580.965,821.828 588.785 C 815.762 616.399,818.041 619.217,969.396 771.282 C 1048.928 851.188,1118.861 919.138,1124.801 922.282 C 1130.742 925.427,1142.919 928.000,1151.860 928.000 C 1164.791 928.000,1171.175 925.200,1183.059 914.314 L 1198.000 900.628 1199.196 800.314 L 1200.391 700.000 1212.353 700.000 C 1218.932 700.000,1241.794 701.902,1263.158 704.226 C 1465.549 726.246,1636.776 843.471,1732.198 1025.339 C 1825.564 1203.292,1820.865 1421.252,1719.856 1597.794 C 1664.229 1695.018,1568.653 1785.393,1467.876 1836.063 C 1451.073 1844.511,1418.577 1857.940,1395.662 1865.906 C 1348.331 1882.359,1334.240 1890.772,1319.383 1911.447 C 1276.857 1970.624,1309.614 2053.854,1381.354 2068.901 C 1401.311 2073.088,1405.918 2072.462,1443.947 2060.407 C 1773.665 1955.885,1999.934 1646.423,1999.934 1300.000 C 1999.934 1095.885,1920.381 897.015,1780.075 750.390 C 1639.476 603.459,1462.644 519.555,1259.191 503.237 L 1200.382 498.520 1199.191 398.946 L 1198.000 299.372 1183.059 285.686 C 1170.449 274.136,1165.162 272.000,1149.179 272.000 L 1130.241 272.000 977.266 424.785 M614.000 784.397 C 605.200 786.552,590.891 793.220,582.202 799.214 C 560.360 814.282,516.850 878.851,484.155 944.717 C 373.499 1167.641,372.016 1423.652,480.083 1647.418 C 576.794 1847.668,759.464 2003.595,968.682 2064.486 C 996.688 2072.637,1001.378 2072.965,1022.464 2068.246 C 1042.132 2063.844,1048.888 2059.728,1067.938 2040.538 C 1106.071 2002.127,1110.846 1953.511,1080.617 1911.447 C 1065.760 1890.772,1051.669 1882.359,1004.338 1865.906 C 914.581 1834.704,847.988 1792.493,777.718 1722.258 C 689.419 1634.003,637.775 1538.821,611.550 1416.000 C 598.633 1355.509,598.624 1244.572,611.531 1184.000 C 629.442 1099.940,657.542 1033.450,706.693 958.825 C 738.789 910.095,744.408 889.031,734.436 854.835 C 719.120 802.316,666.496 771.538,614.000 784.397 " fill="#1D1E23" stroke="none" fill-rule="evenodd"/></svg>