<svg viewBox="0 0 2400 2400" fill="none" xmlns="http://www.w3.org/2000/svg"><path d="M1096.966 307.431 C 1054.665 345.454,912.993 489.501,858.719 549.671 C 815.268 597.844,814.417 600.588,834.676 627.212 C 854.517 653.284,956.590 759.220,1023.308 822.981 C 1140.040 934.540,1142.974 936.394,1174.004 918.209 C 1183.821 912.456,1193.686 904.324,1195.926 900.137 C 1198.367 895.576,1200.000 853.948,1200.000 796.263 C 1200.000 700.827,1200.073 700.000,1208.487 700.000 C 1224.248 700.000,1301.769 712.350,1335.355 720.211 C 1542.926 768.797,1702.045 916.612,1767.872 1122.000 C 1792.440 1198.655,1796.247 1245.979,1788.309 1376.045 C 1785.392 1423.843,1783.088 1435.840,1768.372 1479.856 C 1749.085 1537.541,1718.316 1598.661,1685.247 1644.976 C 1655.008 1687.327,1586.936 1756.225,1544.162 1787.773 C 1513.243 1810.577,1489.050 1823.415,1376.000 1877.012 C 1355.100 1886.921,1333.745 1899.108,1328.545 1904.094 C 1304.035 1927.594,1296.411 1977.798,1312.352 2010.726 C 1321.784 2030.210,1347.110 2053.977,1368.000 2062.946 C 1397.988 2075.822,1458.969 2060.130,1550.207 2016.060 C 1725.768 1931.259,1876.222 1766.849,1946.292 1583.236 C 2012.094 1410.804,2015.466 1225.158,1956.031 1047.023 C 1914.143 921.477,1848.017 817.992,1750.785 725.817 C 1679.781 658.505,1625.561 621.143,1539.807 580.433 C 1454.570 539.968,1376.442 519.136,1259.000 505.558 L 1200.000 498.736 1200.000 399.280 L 1200.000 299.824 1181.217 287.912 C 1149.372 267.716,1138.291 270.283,1096.966 307.431 M611.000 787.778 C 604.950 789.720,593.108 796.414,584.685 802.654 C 552.366 826.598,528.478 861.683,487.845 944.884 C 426.315 1070.875,395.659 1207.474,401.407 1330.037 C 413.402 1585.827,547.634 1822.410,763.111 1967.536 C 814.925 2002.434,935.098 2056.546,987.801 2068.711 C 1013.872 2074.729,1037.315 2066.053,1062.187 2041.181 C 1095.211 2008.157,1105.424 1976.263,1093.946 1942.000 C 1084.384 1913.456,1065.333 1895.801,1022.694 1875.969 C 880.190 1809.688,854.084 1793.243,790.334 1729.604 C 710.377 1649.784,664.787 1578.480,629.467 1478.000 L 614.000 1434.000 614.000 1302.000 L 614.000 1170.000 627.678 1128.000 C 635.732 1103.269,660.260 1048.673,687.331 995.220 C 741.389 888.479,744.715 875.096,725.818 840.374 C 708.609 808.756,679.271 789.484,643.345 786.199 C 631.605 785.126,617.050 785.836,611.000 787.778 " fill="#1D1E23" stroke="none" fill-rule="evenodd"/></svg>