<svg viewBox="0 0 2400 2400" fill="none" xmlns="http://www.w3.org/2000/svg"><path d="M1323.986 193.986 L 1513.941 383.973 1580.380 317.620 L 1646.820 251.267 1667.845 261.922 C 1820.674 339.366,1965.255 467.282,2063.532 612.000 C 2156.557 748.984,2209.721 884.835,2238.461 1059.000 L 2245.226 1100.000 2315.613 1099.939 C 2354.326 1099.905,2388.175 1098.495,2390.833 1096.806 C 2399.310 1091.418,2382.065 984.940,2357.664 892.000 C 2317.315 738.323,2248.035 599.628,2143.872 464.000 C 2109.279 418.958,1992.107 300.652,1944.052 262.246 C 1819.813 162.954,1647.638 77.452,1492.998 38.253 C 1407.054 16.467,1296.994 4.028,1190.016 4.010 L 1134.032 4.000 1323.986 193.986 M490.994 495.006 L 68.003 918.011 775.007 1625.007 L 1482.011 2332.003 1906.000 1908.000 L 2329.989 1483.997 1623.999 777.999 C 1235.704 389.699,917.103 72.000,915.997 72.000 C 914.891 72.000,723.640 262.353,490.994 495.006 M1517.998 883.998 L 2117.986 1483.996 1800.000 1802.000 L 1482.014 2120.004 881.009 1519.009 L 280.004 918.014 596.993 601.007 C 771.336 426.653,914.888 284.000,915.996 284.000 C 917.104 284.000,1188.005 553.999,1517.998 883.998 M8.480 1303.619 C 1.817 1307.839,3.045 1317.861,22.253 1416.000 C 104.218 1834.789,376.580 2163.718,768.791 2317.587 C 897.120 2367.932,1025.575 2393.684,1171.528 2398.326 C 1250.081 2400.824,1257.638 2399.200,1246.506 2382.210 C 1242.732 2376.450,1160.189 2291.601,1063.077 2193.656 L 886.511 2015.575 819.647 2082.353 L 752.782 2149.131 713.391 2128.143 C 625.368 2081.244,551.940 2027.286,476.487 1954.055 C 301.770 1784.483,201.084 1589.030,161.710 1343.000 L 154.828 1300.000 84.414 1300.061 C 45.686 1300.095,11.516 1301.696,8.480 1303.619 " fill="#1D1E23" stroke="none" fill-rule="evenodd"/></svg>