<svg viewBox="0 0 2400 2400" fill="none" xmlns="http://www.w3.org/2000/svg"><path d="M1152.281 2.685 L 1134.562 4.530 1324.252 194.252 L 1513.941 383.973 1580.373 317.627 L 1646.805 251.282 1672.403 264.184 C 1806.250 331.651,1933.991 437.789,2028.431 560.000 C 2142.032 707.007,2214.677 880.388,2240.021 1065.000 L 2244.826 1100.000 2320.413 1100.000 C 2361.986 1100.000,2395.990 1098.650,2395.978 1097.000 C 2395.966 1095.350,2392.266 1068.800,2387.756 1038.000 C 2377.183 965.803,2366.771 918.002,2348.113 856.000 C 2290.642 665.024,2193.179 501.547,2052.093 359.473 C 1950.743 257.414,1852.640 186.292,1730.000 125.967 C 1601.005 62.515,1479.624 26.176,1343.489 10.251 C 1289.630 3.951,1181.285 -0.336,1152.281 2.685 M490.994 495.006 L 68.003 918.011 775.007 1625.007 L 1482.011 2332.003 1906.000 1908.000 L 2329.989 1483.997 1623.999 777.999 C 1235.704 389.699,917.103 72.000,915.997 72.000 C 914.891 72.000,723.640 262.353,490.994 495.006 M1517.998 883.998 L 2117.986 1483.996 1800.000 1802.000 L 1482.014 2120.004 881.009 1519.009 L 280.004 918.014 596.993 601.007 C 771.336 426.653,914.888 284.000,915.996 284.000 C 917.104 284.000,1188.005 553.999,1517.998 883.998 M5.920 1321.000 C 47.114 1644.897,187.367 1910.532,424.431 2113.646 C 638.733 2297.257,919.274 2400.314,1203.800 2399.945 C 1276.535 2399.851,1289.575 2419.611,1075.440 2205.440 L 886.059 2016.027 819.428 2082.571 L 752.798 2149.115 709.399 2126.151 C 462.734 1995.632,270.413 1760.189,194.127 1495.348 C 179.828 1445.705,162.987 1365.703,157.847 1323.000 L 155.078 1300.000 79.164 1300.000 L 3.249 1300.000 5.920 1321.000 " fill="#1D1E23" stroke="none" fill-rule="evenodd"/></svg>