<svg viewBox="0 0 2400 2400" fill="none" xmlns="http://www.w3.org/2000/svg"><path d="M1166.862 9.710 C 1163.088 13.484,1160.000 19.218,1160.000 22.453 C 1160.000 25.689,1239.553 108.437,1336.785 206.340 L 1513.570 384.344 1580.195 317.805 L 1646.820 251.267 1666.410 261.216 C 1768.092 312.853,1858.495 378.461,1940.218 459.927 C 2087.732 606.978,2178.898 776.111,2227.492 992.883 C 2243.237 1063.123,2247.501 1072.909,2268.377 1086.724 C 2282.787 1096.261,2289.495 1097.981,2312.308 1097.990 C 2336.364 1097.999,2340.871 1096.691,2354.616 1085.716 C 2363.077 1078.959,2373.278 1067.259,2377.285 1059.716 C 2401.338 1014.433,2345.850 809.702,2267.871 656.022 C 2212.283 546.469,2139.283 446.981,2046.151 353.849 C 1917.518 225.215,1782.759 138.642,1611.565 74.658 C 1496.319 31.584,1387.823 11.118,1245.600 5.624 C 1180.755 3.120,1173.052 3.519,1166.862 9.710 M886.000 135.416 C 846.379 142.541,841.500 146.890,565.016 421.541 C 279.337 705.326,171.976 816.110,148.773 851.056 C 134.715 872.229,134.114 874.591,132.882 913.531 C 131.656 952.235,132.114 954.872,143.371 974.000 C 149.845 985.000,173.635 1014.700,196.237 1040.000 C 249.825 1099.985,1300.015 2150.175,1360.000 2203.763 C 1385.300 2226.365,1415.000 2250.048,1426.000 2256.391 C 1443.909 2266.719,1449.554 2267.897,1480.000 2267.658 C 1520.567 2267.340,1531.875 2263.656,1564.884 2240.002 C 1591.844 2220.682,2045.977 1771.419,2164.722 1646.596 C 2204.175 1605.124,2243.027 1561.293,2251.060 1549.195 C 2264.758 1528.564,2265.767 1524.877,2267.300 1489.827 C 2269.419 1441.366,2265.086 1432.397,2209.399 1370.000 C 2157.126 1311.429,1198.310 349.702,1084.419 241.605 C 1039.549 199.018,993.246 157.567,981.522 149.493 C 962.442 136.352,957.152 134.692,931.103 133.675 C 915.096 133.050,894.800 133.833,886.000 135.416 M944.994 328.209 C 956.767 331.478,985.547 357.134,1078.994 447.664 C 1263.335 626.252,2049.173 1415.899,2062.303 1435.741 C 2072.671 1451.408,2074.000 1456.890,2074.000 1484.000 C 2074.000 1511.058,2072.657 1516.626,2062.351 1532.292 C 2047.546 1554.796,1569.942 2032.321,1538.631 2055.925 C 1518.740 2070.920,1511.886 2073.787,1492.587 2075.183 C 1448.732 2078.355,1443.177 2074.977,1360.772 1995.009 C 1230.569 1868.659,787.761 1426.516,556.139 1191.587 C 336.374 968.683,332.846 964.851,328.457 944.390 C 317.490 893.249,322.353 883.545,401.040 799.551 C 467.486 728.624,836.361 362.022,856.992 346.409 C 884.393 325.672,913.891 319.571,944.994 328.209 M67.165 1303.748 C 36.457 1313.587,15.133 1343.260,15.385 1375.802 C 15.573 1400.047,28.907 1465.285,46.405 1527.565 C 137.345 1851.261,365.429 2126.032,666.000 2273.984 C 827.211 2353.338,983.329 2393.413,1152.442 2398.850 C 1220.615 2401.042,1223.161 2400.839,1231.442 2392.558 C 1236.149 2387.851,1240.000 2381.980,1240.000 2379.511 C 1240.000 2373.500,1201.028 2332.918,1030.169 2161.011 L 886.063 2016.022 818.878 2083.011 L 751.693 2150.000 714.847 2130.522 C 579.579 2059.015,448.877 1946.595,357.649 1823.290 C 265.764 1699.097,210.351 1575.091,172.075 1408.000 C 156.840 1341.490,148.941 1324.250,128.422 1312.718 C 110.606 1302.705,83.028 1298.667,67.165 1303.748 " fill="#1D1E23" stroke="none" fill-rule="evenodd"/></svg>