<svg viewBox="0 0 2400 2400" fill="none" xmlns="http://www.w3.org/2000/svg"><path d="M1164.439 11.181 C 1161.997 15.742,1160.000 21.795,1160.000 24.632 C 1160.000 27.469,1239.627 109.492,1336.948 206.904 L 1513.896 384.018 1580.549 317.451 L 1647.202 250.885 1689.255 273.142 C 1970.090 421.780,2167.724 687.949,2229.788 1001.121 C 2240.242 1053.869,2245.853 1069.339,2258.590 1080.527 C 2279.471 1098.868,2313.417 1105.313,2338.740 1095.746 C 2351.308 1090.997,2370.436 1074.160,2376.970 1062.094 C 2390.116 1037.818,2387.138 1004.349,2363.437 910.000 C 2310.913 700.915,2207.913 517.266,2056.393 362.541 C 1919.816 223.074,1765.510 126.055,1580.787 63.505 C 1470.965 26.318,1370.458 8.523,1251.439 5.196 C 1170.814 2.941,1168.773 3.082,1164.439 11.181 M873.144 137.574 C 863.873 140.597,848.573 147.658,839.144 153.263 C 829.715 158.869,671.528 314.328,487.618 498.728 C 107.050 880.308,134.080 848.257,134.029 918.000 C 133.977 989.035,74.021 923.002,775.509 1624.501 C 1477.041 2326.045,1410.780 2265.888,1482.062 2265.960 C 1552.884 2266.031,1523.755 2290.703,1910.383 1903.170 C 2292.054 1520.606,2265.767 1551.597,2265.916 1484.000 C 2266.069 1414.752,2329.503 1484.545,1628.527 782.714 C 932.065 85.402,986.582 135.651,924.000 133.335 C 902.669 132.545,883.719 134.125,873.144 137.574 M950.000 328.346 C 963.895 332.082,1038.025 404.575,1513.415 879.324 C 1893.214 1258.611,2063.125 1430.899,2068.327 1442.000 C 2078.659 1464.050,2078.553 1504.215,2068.106 1525.737 C 2062.820 1536.625,1973.247 1628.715,1797.106 1804.350 C 1510.111 2090.521,1526.969 2076.106,1479.536 2075.912 C 1466.698 2075.860,1450.730 2072.558,1440.000 2067.737 C 1425.912 2061.408,1304.494 1942.096,881.397 1518.825 C 584.066 1221.371,337.679 971.781,333.871 964.181 C 330.063 956.580,326.038 939.034,324.927 925.190 C 320.955 875.709,308.366 890.704,595.501 602.886 C 793.437 404.479,858.635 341.456,873.785 333.886 C 895.552 323.010,922.788 321.030,950.000 328.346 M60.000 1306.377 C 38.869 1315.530,24.447 1331.538,18.112 1352.870 C 13.135 1369.629,13.184 1376.500,18.496 1407.032 C 86.981 1800.679,348.584 2135.709,714.133 2297.922 C 861.341 2363.246,1028.481 2400.000,1178.332 2400.000 C 1226.337 2400.000,1228.006 2399.709,1234.192 2390.268 C 1239.374 2382.359,1239.675 2378.801,1235.797 2371.268 C 1233.172 2366.171,1153.428 2284.136,1058.586 2188.969 L 886.148 2015.938 818.921 2082.969 L 751.693 2150.000 714.847 2130.429 C 664.007 2103.426,610.849 2069.690,564.847 2035.236 C 514.948 1997.864,424.024 1909.241,383.176 1858.162 C 276.665 1724.976,205.778 1573.890,171.872 1407.798 C 163.411 1366.348,156.173 1341.221,149.892 1331.485 C 132.324 1304.254,91.334 1292.805,60.000 1306.377 " fill="#1D1E23" stroke="none" fill-rule="evenodd"/></svg>