<svg viewBox="0 0 2400 2400" fill="none" xmlns="http://www.w3.org/2000/svg"><path d="M1166.093 11.898 C 1159.643 19.024,1159.530 20.687,1164.933 28.933 C 1168.226 33.959,1247.972 116.026,1342.146 211.306 L 1513.372 384.541 1580.351 317.649 L 1647.331 250.757 1692.665 275.739 C 1874.859 376.137,2024.725 524.669,2118.756 698.038 C 2164.642 782.639,2194.965 863.417,2222.348 974.000 C 2243.765 1060.485,2249.320 1074.183,2267.829 1086.134 C 2299.636 1106.672,2336.799 1103.411,2362.371 1077.840 C 2384.348 1055.862,2387.369 1038.218,2378.672 982.614 C 2360.585 866.964,2301.309 708.748,2232.683 592.948 C 2106.826 380.574,1910.837 205.669,1687.315 106.249 C 1552.359 46.222,1436.787 18.250,1282.068 8.167 C 1188.207 2.049,1174.609 2.487,1166.093 11.898 M894.000 136.039 C 880.800 137.487,864.552 141.508,857.893 144.976 C 833.990 157.425,770.613 217.362,554.395 432.000 C 313.848 670.789,172.956 816.410,149.450 850.541 C 134.842 871.751,134.199 874.096,132.690 911.648 C 130.861 957.201,132.951 962.890,167.361 1006.000 C 222.330 1074.868,1329.453 2181.464,1396.781 2234.835 C 1434.764 2264.945,1447.638 2269.442,1489.550 2267.242 C 1515.943 2265.857,1526.169 2263.319,1543.618 2253.822 C 1558.838 2245.538,1612.687 2195.708,1727.569 2083.601 C 1919.124 1896.672,2159.569 1654.485,2209.678 1598.000 C 2262.576 1538.370,2264.629 1534.584,2267.045 1492.205 C 2268.916 1459.389,2268.202 1454.499,2258.705 1435.156 C 2252.992 1423.520,2229.344 1392.916,2206.155 1367.146 C 2147.503 1301.968,1101.803 255.461,1038.000 198.089 C 1009.400 172.372,979.700 148.136,972.000 144.231 C 954.915 135.567,926.005 132.531,894.000 136.039 M961.008 338.699 C 969.682 344.710,1030.154 401.160,1095.389 464.143 C 1244.292 607.905,2021.826 1389.009,2050.638 1423.778 L 2072.000 1449.557 2072.000 1484.228 C 2072.000 1516.059,2071.096 1520.038,2060.961 1532.791 C 2039.847 1559.359,1813.126 1789.180,1674.416 1924.620 C 1581.532 2015.315,1529.340 2063.408,1518.416 2068.369 C 1496.105 2078.501,1466.846 2078.091,1444.626 2067.335 C 1422.669 2056.706,1224.429 1863.544,861.700 1499.341 C 523.428 1159.694,352.440 985.101,339.151 965.777 C 332.025 955.413,327.381 942.154,325.616 927.134 C 323.295 907.371,324.339 901.388,333.313 883.045 C 348.208 852.602,430.476 765.851,657.868 540.807 C 874.272 326.637,880.154 321.918,925.619 326.006 C 938.296 327.146,950.818 331.637,961.008 338.699 M47.073 1314.342 C 38.862 1320.300,28.266 1333.187,23.525 1342.981 C 12.406 1365.950,14.460 1397.659,31.753 1470.000 C 55.765 1570.450,84.606 1649.493,130.271 1740.000 C 247.067 1971.488,432.064 2156.153,662.562 2271.335 C 825.468 2352.740,978.145 2392.123,1155.955 2398.604 L 1222.000 2401.011 1231.574 2390.636 L 1241.149 2380.261 1231.128 2367.131 C 1225.617 2359.909,1145.852 2277.827,1053.871 2184.726 L 886.635 2015.451 819.203 2082.726 L 751.770 2150.000 717.174 2132.000 C 571.801 2056.366,422.251 1921.503,328.812 1781.780 C 255.889 1672.735,216.149 1579.562,175.676 1422.743 C 148.313 1316.723,141.408 1307.130,90.797 1304.822 C 64.733 1303.633,60.583 1304.537,47.073 1314.342 " fill="#1D1E23" stroke="none" fill-rule="evenodd"/></svg>