<svg viewBox="0 0 2400 2400" fill="none" xmlns="http://www.w3.org/2000/svg"><path d="M1167.645 11.483 C 1158.931 18.540,1158.767 19.510,1164.780 28.483 C 1168.288 33.718,1248.140 115.988,1342.229 211.307 L 1513.300 384.613 1580.214 317.786 L 1647.129 250.959 1678.564 268.195 C 1773.026 319.989,1852.953 378.160,1924.757 447.377 C 1984.996 505.445,2027.187 555.559,2070.090 620.000 C 2143.283 729.937,2181.275 818.528,2222.631 975.701 C 2247.141 1068.852,2251.122 1077.025,2278.511 1090.425 C 2296.431 1099.193,2303.510 1100.606,2318.920 1098.494 C 2341.051 1095.461,2359.098 1084.022,2372.361 1064.621 C 2389.770 1039.155,2383.823 979.577,2353.392 874.586 C 2320.312 760.456,2264.751 639.738,2202.115 545.902 C 2151.429 469.968,2123.347 435.373,2058.150 368.547 C 1935.763 243.104,1803.552 153.245,1648.555 90.160 C 1529.872 41.856,1424.184 18.635,1275.250 8.140 C 1191.747 2.256,1178.533 2.666,1167.645 11.483 M873.100 139.667 C 855.161 144.231,847.476 149.820,797.717 194.497 C 740.157 246.178,253.680 732.468,198.371 793.613 C 136.364 862.162,134.668 865.173,132.698 910.231 C 130.712 955.640,135.890 968.631,173.484 1012.556 C 246.012 1097.296,1284.204 2135.635,1382.914 2222.157 C 1428.000 2261.675,1437.773 2266.000,1482.000 2266.000 C 1511.388 2266.000,1521.398 2264.326,1536.500 2256.885 C 1563.585 2243.541,1670.569 2141.619,1938.291 1874.106 C 2176.114 1636.469,2241.586 1567.461,2257.174 1538.000 C 2264.048 1525.008,2265.673 1514.764,2265.820 1483.517 C 2265.999 1445.248,2265.914 1444.908,2250.495 1422.490 C 2241.967 1410.091,2215.723 1378.809,2192.175 1352.974 C 2132.930 1287.971,1087.465 242.443,1036.412 197.140 C 970.855 138.966,969.811 138.407,924.518 137.315 C 903.333 136.804,880.195 137.863,873.100 139.667 M953.061 334.654 C 959.145 337.742,990.645 364.740,1023.061 394.649 C 1095.196 461.204,1992.306 1359.270,2038.712 1411.381 L 2072.000 1448.762 2071.985 1481.381 C 2071.974 1506.390,2070.194 1516.913,2064.356 1526.487 C 2047.697 1553.806,1687.974 1915.551,1564.578 2029.074 C 1521.330 2068.861,1508.391 2076.023,1480.000 2075.890 C 1454.861 2075.772,1434.854 2062.142,1368.041 1999.617 C 1193.743 1836.505,361.789 999.264,339.714 964.756 C 333.647 955.271,327.469 938.684,325.985 927.894 C 320.152 885.482,339.612 860.925,537.906 660.457 C 691.492 505.187,840.443 361.584,866.516 343.645 C 876.534 336.752,889.517 329.647,895.366 327.855 C 908.725 323.764,938.526 327.275,953.061 334.654 M57.781 1307.573 C 45.307 1313.023,25.447 1337.496,19.928 1354.217 C 13.222 1374.537,17.216 1409.498,34.120 1478.446 C 76.547 1651.502,155.019 1811.417,266.498 1952.000 C 311.630 2008.915,416.067 2110.002,476.139 2154.917 C 681.246 2308.273,907.039 2389.002,1157.568 2398.551 L 1222.000 2401.007 1231.428 2390.790 C 1240.307 2381.168,1240.481 2380.033,1234.425 2371.287 C 1230.889 2366.179,1151.209 2284.007,1057.360 2188.681 L 886.724 2015.363 819.301 2082.681 L 751.879 2150.000 721.858 2134.566 C 640.694 2092.838,553.547 2028.695,476.532 1954.000 C 412.190 1891.596,369.874 1841.872,328.232 1779.739 C 256.860 1673.245,222.029 1591.980,176.153 1424.924 C 154.505 1346.095,145.233 1323.613,130.346 1313.859 C 119.240 1306.582,69.844 1302.303,57.781 1307.573 " fill="#1D1E23" stroke="none" fill-rule="evenodd"/></svg>