<svg viewBox="0 0 2400 2400" fill="none" xmlns="http://www.w3.org/2000/svg"><path d="M1066.000 108.582 C 950.561 123.299,822.689 162.218,714.000 215.714 C 613.447 265.207,537.903 316.586,456.639 390.751 L 423.278 421.198 496.332 494.332 L 569.386 567.466 597.693 541.076 C 686.209 458.556,814.984 385.384,940.000 346.573 C 1116.512 291.776,1322.458 296.401,1498.000 359.106 C 1610.761 399.385,1716.962 463.122,1803.346 542.361 L 1832.693 569.280 1905.346 496.353 L 1978.000 423.426 1948.000 395.318 C 1779.097 237.069,1548.286 131.455,1320.576 108.226 C 1271.693 103.239,1106.090 103.471,1066.000 108.582 M1142.000 516.404 C 1042.485 524.577,939.727 557.090,854.066 607.507 C 812.766 631.815,752.294 676.790,730.222 699.615 L 714.444 715.931 785.974 787.862 L 857.504 859.794 873.752 846.085 C 987.848 749.819,1116.750 708.082,1251.560 723.755 C 1350.664 735.276,1430.275 768.869,1508.000 831.963 L 1542.000 859.563 1613.780 787.776 L 1685.559 715.989 1671.780 701.581 C 1651.432 680.304,1598.391 639.576,1559.844 615.629 C 1495.707 575.785,1415.800 543.888,1341.754 528.571 C 1305.830 521.141,1211.488 511.159,1190.419 512.560 C 1185.789 512.868,1164.000 514.598,1142.000 516.404 M100.680 1153.000 L 102.000 1290.000 113.225 1312.858 C 137.011 1361.295,176.568 1382.151,244.000 1381.805 C 306.837 1381.483,348.089 1359.057,370.756 1312.897 L 382.000 1290.000 383.393 1153.000 L 384.785 1016.000 347.011 1016.000 L 309.236 1016.000 306.957 1148.051 C 304.455 1292.957,304.175 1294.597,278.707 1313.582 C 264.042 1324.513,224.334 1325.041,204.685 1314.567 C 180.954 1301.916,179.553 1293.440,177.030 1147.286 L 174.764 1016.000 137.062 1016.000 L 99.360 1016.000 100.680 1153.000 M456.000 1200.000 L 456.000 1384.000 494.000 1384.000 L 532.000 1384.000 532.000 1306.000 L 532.000 1228.000 606.000 1228.000 L 680.000 1228.000 680.000 1306.000 L 680.000 1384.000 720.000 1384.000 L 760.000 1384.000 760.000 1200.000 L 760.000 1016.000 720.000 1016.000 L 680.000 1016.000 680.000 1090.000 L 680.000 1164.000 606.000 1164.000 L 532.000 1164.000 532.000 1090.000 L 532.000 1016.000 494.000 1016.000 L 456.000 1016.000 456.000 1200.000 M832.000 1200.000 L 832.000 1384.000 870.000 1384.000 L 908.000 1384.000 908.000 1310.090 L 908.000 1236.180 981.000 1235.090 L 1054.000 1234.000 1055.168 1203.000 L 1056.337 1172.000 982.168 1172.000 L 908.000 1172.000 908.000 1124.000 L 908.000 1076.000 990.000 1076.000 L 1072.000 1076.000 1072.000 1046.000 L 1072.000 1016.000 952.000 1016.000 L 832.000 1016.000 832.000 1200.000 M1224.000 1199.364 L 1224.000 1384.000 1262.000 1384.000 L 1300.000 1384.000 1300.000 1318.000 L 1300.000 1252.000 1331.000 1252.053 L 1362.000 1252.105 1396.000 1318.000 L 1430.000 1383.895 1471.000 1383.947 C 1493.550 1383.976,1512.000 1383.113,1512.000 1382.029 C 1512.000 1380.945,1495.043 1347.342,1474.317 1307.356 L 1436.633 1234.653 1461.579 1210.327 C 1481.817 1190.590,1487.892 1181.576,1493.775 1162.552 C 1511.775 1104.347,1480.749 1042.277,1425.317 1025.594 C 1413.374 1022.000,1374.585 1019.102,1315.430 1017.383 L 1224.000 1014.727 1224.000 1199.364 M1564.000 1200.000 L 1564.000 1384.000 1604.000 1384.000 L 1644.000 1384.000 1644.000 1310.000 L 1644.000 1236.000 1716.000 1236.000 L 1788.000 1236.000 1788.000 1204.000 L 1788.000 1172.000 1716.000 1172.000 L 1644.000 1172.000 1644.000 1124.000 L 1644.000 1076.000 1726.000 1076.000 L 1808.000 1076.000 1808.000 1046.000 L 1808.000 1016.000 1686.000 1016.000 L 1564.000 1016.000 1564.000 1200.000 M1872.000 1200.000 L 1872.000 1384.000 1912.000 1384.000 L 1952.000 1384.000 1952.000 1200.000 L 1952.000 1016.000 1912.000 1016.000 L 1872.000 1016.000 1872.000 1200.000 M2016.000 1200.000 L 2016.000 1384.000 2095.000 1383.997 L 2174.000 1383.994 2198.979 1372.176 C 2212.718 1365.677,2233.119 1351.790,2244.316 1341.317 C 2280.363 1307.600,2294.732 1273.935,2298.687 1213.935 C 2305.440 1111.486,2251.699 1034.510,2163.422 1020.185 C 2149.440 1017.917,2110.550 1016.047,2077.000 1016.030 L 2016.000 1016.000 2016.000 1200.000 M1393.568 1083.836 C 1411.155 1090.522,1420.671 1110.419,1418.969 1136.945 C 1416.462 1176.035,1396.134 1188.000,1332.229 1188.000 L 1300.000 1188.000 1300.000 1131.392 L 1300.000 1074.784 1341.570 1077.328 C 1364.434 1078.727,1387.833 1081.655,1393.568 1083.836 M2175.029 1088.498 C 2207.836 1104.380,2219.753 1134.537,2219.880 1202.000 C 2219.965 1247.315,2215.793 1266.440,2200.915 1288.921 C 2186.583 1310.579,2165.403 1320.386,2127.328 1322.996 L 2096.000 1325.143 2096.000 1199.985 L 2096.000 1074.826 2126.765 1077.427 C 2145.155 1078.981,2164.570 1083.435,2175.029 1088.498 M786.673 1614.251 L 716.036 1687.284 744.885 1713.994 C 825.400 1788.538,952.054 1850.607,1076.000 1876.261 C 1111.151 1883.537,1131.371 1884.954,1200.000 1884.954 C 1268.629 1884.954,1288.849 1883.537,1324.000 1876.261 C 1448.243 1850.545,1577.434 1787.005,1655.777 1713.081 L 1684.477 1686.000 1612.806 1614.609 L 1541.136 1543.218 1499.340 1574.982 C 1476.352 1592.452,1445.623 1613.412,1431.053 1621.560 C 1309.347 1689.621,1144.701 1698.466,1014.612 1643.932 C 976.395 1627.911,938.542 1604.717,894.762 1570.494 L 857.311 1541.218 786.673 1614.251 M496.396 1905.603 L 423.392 1978.688 452.696 2005.974 C 608.119 2150.693,801.843 2246.188,1016.000 2283.650 C 1349.057 2341.911,1698.376 2237.759,1947.304 2005.974 L 1976.608 1978.688 1903.631 1905.630 L 1830.653 1832.573 1800.327 1860.647 C 1764.323 1893.976,1708.873 1936.293,1670.000 1960.106 C 1586.257 2011.405,1467.910 2056.919,1362.000 2078.558 C 1308.689 2089.451,1300.910 2090.000,1200.000 2090.000 C 1099.118 2090.000,1091.296 2089.448,1038.000 2078.567 C 867.339 2043.724,712.719 1966.951,599.701 1860.939 L 569.401 1832.518 496.396 1905.603 " fill="#1D1E23" stroke="none" fill-rule="evenodd"/></svg>