<svg viewBox="0 0 2400 2400" fill="none" xmlns="http://www.w3.org/2000/svg"><path d="M1082.000 107.950 C 968.948 117.570,825.756 160.718,703.989 221.855 C 611.719 268.182,539.144 317.494,462.583 385.878 L 423.166 421.086 496.269 494.269 L 569.372 567.452 595.686 543.136 C 671.293 473.268,781.568 405.772,884.000 366.666 C 1054.960 301.396,1244.364 291.376,1426.202 337.980 C 1560.310 372.351,1690.754 442.697,1799.052 539.051 L 1832.822 569.096 1904.411 497.590 C 1943.785 458.261,1976.000 424.754,1976.000 423.128 C 1976.000 417.038,1885.813 340.739,1839.915 308.000 C 1699.004 207.485,1529.923 138.644,1364.000 114.229 C 1310.486 106.355,1144.241 102.653,1082.000 107.950 M1132.000 518.055 C 1039.177 528.445,978.601 546.300,894.000 588.206 C 834.555 617.652,779.464 654.640,738.787 692.416 L 714.000 715.435 785.541 787.300 L 857.082 859.164 888.253 834.517 C 995.453 749.749,1121.902 710.217,1242.825 723.665 C 1348.142 735.379,1416.211 762.804,1502.250 828.190 L 1542.957 859.125 1614.478 787.280 L 1686.000 715.435 1661.213 692.416 C 1584.722 621.380,1467.146 558.951,1362.870 534.006 C 1323.855 524.673,1218.842 511.495,1191.114 512.453 C 1183.901 512.702,1157.300 515.223,1132.000 518.055 M100.000 1151.215 L 100.000 1286.429 110.818 1308.138 C 135.808 1358.286,174.592 1380.380,238.240 1380.727 C 303.553 1381.082,339.572 1363.697,367.458 1318.358 L 382.000 1294.715 383.148 1155.358 L 384.295 1016.000 346.148 1016.000 L 308.000 1016.000 307.777 1085.000 C 307.655 1122.950,306.123 1184.262,304.372 1221.249 C 300.887 1294.899,298.062 1303.592,273.640 1315.835 C 256.812 1324.272,219.905 1323.012,203.468 1313.440 C 183.125 1301.593,180.571 1284.679,177.445 1141.079 L 174.723 1016.000 137.361 1016.000 L 100.000 1016.000 100.000 1151.215 M456.000 1200.000 L 456.000 1384.000 494.000 1384.000 L 532.000 1384.000 532.000 1306.000 L 532.000 1228.000 606.000 1228.000 L 680.000 1228.000 680.000 1306.000 L 680.000 1384.000 720.000 1384.000 L 760.000 1384.000 760.000 1200.000 L 760.000 1016.000 720.000 1016.000 L 680.000 1016.000 680.000 1090.000 L 680.000 1164.000 606.000 1164.000 L 532.000 1164.000 532.000 1090.000 L 532.000 1016.000 494.000 1016.000 L 456.000 1016.000 456.000 1200.000 M832.000 1200.000 L 832.000 1384.000 870.000 1384.000 L 908.000 1384.000 908.000 1310.090 L 908.000 1236.180 981.000 1235.090 L 1054.000 1234.000 1055.168 1203.000 L 1056.337 1172.000 982.168 1172.000 L 908.000 1172.000 908.000 1124.000 L 908.000 1076.000 990.000 1076.000 L 1072.000 1076.000 1072.000 1046.000 L 1072.000 1016.000 952.000 1016.000 L 832.000 1016.000 832.000 1200.000 M1224.000 1200.000 L 1224.000 1384.000 1262.000 1384.000 L 1300.000 1384.000 1300.000 1318.000 L 1300.000 1252.000 1331.000 1252.079 L 1362.000 1252.158 1395.991 1318.079 L 1429.981 1384.000 1470.991 1384.000 C 1493.546 1384.000,1512.000 1382.960,1512.000 1381.688 C 1512.000 1380.417,1494.991 1346.667,1474.202 1306.688 L 1436.405 1234.000 1461.861 1207.790 C 1482.486 1186.554,1488.608 1177.140,1494.119 1158.183 C 1508.783 1107.741,1486.181 1055.560,1439.313 1031.649 C 1426.786 1025.259,1410.661 1022.852,1360.775 1019.929 C 1326.249 1017.906,1281.350 1016.194,1261.000 1016.125 L 1224.000 1016.000 1224.000 1200.000 M1564.000 1200.000 L 1564.000 1384.000 1604.000 1384.000 L 1644.000 1384.000 1644.000 1310.000 L 1644.000 1236.000 1716.000 1236.000 L 1788.000 1236.000 1788.000 1204.000 L 1788.000 1172.000 1716.000 1172.000 L 1644.000 1172.000 1644.000 1124.000 L 1644.000 1076.000 1726.000 1076.000 L 1808.000 1076.000 1808.000 1046.000 L 1808.000 1016.000 1686.000 1016.000 L 1564.000 1016.000 1564.000 1200.000 M1872.000 1200.000 L 1872.000 1384.000 1912.000 1384.000 L 1952.000 1384.000 1952.000 1200.000 L 1952.000 1016.000 1912.000 1016.000 L 1872.000 1016.000 1872.000 1200.000 M2016.000 1200.000 L 2016.000 1384.000 2096.440 1384.000 L 2176.880 1384.000 2200.617 1371.348 C 2262.478 1338.377,2291.605 1292.819,2298.340 1218.498 C 2303.866 1157.516,2282.038 1092.729,2244.809 1059.613 C 2206.586 1025.611,2167.743 1016.090,2067.000 1016.030 L 2016.000 1016.000 2016.000 1200.000 M1396.000 1087.282 C 1413.318 1095.592,1421.810 1117.347,1417.945 1143.502 C 1413.110 1176.223,1390.735 1187.939,1333.000 1187.978 L 1300.000 1188.000 1300.000 1131.485 L 1300.000 1074.969 1341.000 1077.767 C 1365.813 1079.460,1387.527 1083.216,1396.000 1087.282 M2174.802 1090.394 C 2192.617 1098.959,2197.201 1103.657,2206.717 1123.108 C 2217.116 1144.362,2217.835 1149.164,2217.915 1197.910 C 2218.015 1259.213,2212.126 1279.728,2188.232 1301.314 C 2171.840 1316.124,2145.999 1324.000,2113.803 1324.000 L 2096.000 1324.000 2096.000 1199.483 L 2096.000 1074.966 2125.000 1077.680 C 2142.968 1079.361,2161.913 1084.198,2174.802 1090.394 M785.002 1615.706 L 716.005 1687.356 745.002 1713.993 C 824.156 1786.701,956.776 1851.704,1075.202 1875.837 C 1132.302 1887.474,1267.004 1887.615,1323.518 1876.098 C 1404.194 1859.657,1509.904 1816.987,1576.521 1773.973 C 1606.112 1754.866,1658.278 1713.130,1674.895 1695.269 L 1683.790 1685.707 1612.237 1614.237 L 1540.684 1542.767 1515.342 1562.749 C 1429.967 1630.069,1364.312 1659.904,1271.077 1673.748 C 1194.286 1685.151,1116.663 1678.776,1046.529 1655.309 C 989.880 1636.354,945.556 1611.083,885.433 1563.459 C 871.921 1552.757,859.321 1544.012,857.433 1544.028 C 855.545 1544.043,822.951 1576.298,785.002 1615.706 M496.572 1905.427 L 423.311 1978.769 456.948 2009.390 C 672.071 2205.218,954.318 2309.710,1238.000 2298.547 C 1502.716 2288.130,1746.025 2188.269,1943.345 2009.054 L 1976.689 1978.769 1903.623 1905.622 L 1830.556 1832.475 1806.278 1854.969 C 1702.915 1950.737,1591.334 2013.069,1444.000 2057.347 C 1347.346 2086.394,1322.254 2089.724,1200.000 2089.724 C 1100.278 2089.724,1085.915 2088.859,1046.284 2080.466 C 859.709 2040.956,706.572 1964.117,589.917 1851.476 L 569.834 1832.085 496.572 1905.427 " fill="#1D1E23" stroke="none" fill-rule="evenodd"/></svg>