<svg viewBox="0 0 2400 2400" fill="none" xmlns="http://www.w3.org/2000/svg"><path d="M1105.152 104.090 C 856.776 128.215,629.057 229.037,454.708 392.074 L 423.416 421.336 496.630 494.630 L 569.844 567.925 591.922 546.543 C 696.917 444.856,856.763 360.546,1006.000 328.140 C 1202.714 285.425,1410.484 309.584,1586.757 395.670 C 1673.489 438.027,1739.899 482.778,1801.770 540.558 L 1832.611 569.361 1905.306 496.400 L 1978.000 423.440 1944.000 391.289 C 1789.649 245.336,1578.055 144.486,1358.000 111.990 C 1293.787 102.507,1163.391 98.433,1105.152 104.090 M1132.559 516.316 C 1009.399 528.198,886.353 576.176,787.409 650.898 C 754.733 675.574,716.000 710.454,716.000 715.202 C 716.000 716.787,747.950 749.970,787.000 788.942 L 858.000 859.801 884.000 837.634 C 975.917 759.270,1081.350 720.032,1200.000 720.032 C 1318.431 720.032,1423.967 759.319,1516.000 837.667 L 1542.000 859.801 1613.000 788.942 C 1652.050 749.970,1684.000 716.787,1684.000 715.202 C 1684.000 710.454,1645.267 675.574,1612.591 650.898 C 1476.319 547.986,1304.270 499.751,1132.559 516.316 M100.000 1144.738 C 100.000 1301.344,101.472 1309.564,135.799 1344.592 C 154.430 1363.604,162.409 1368.594,185.421 1375.623 C 264.349 1399.734,344.977 1371.926,372.457 1311.118 C 381.826 1290.384,382.023 1287.507,383.239 1153.000 L 384.478 1016.000 346.530 1016.000 L 308.581 1016.000 307.291 1147.000 C 306.131 1264.654,305.249 1279.510,298.628 1292.823 C 284.643 1320.945,243.430 1331.738,209.265 1316.226 C 178.523 1302.269,178.166 1300.434,176.800 1149.000 L 175.600 1016.000 137.800 1016.000 L 100.000 1016.000 100.000 1144.738 M456.000 1200.000 L 456.000 1384.000 494.000 1384.000 L 532.000 1384.000 532.000 1306.000 L 532.000 1228.000 606.000 1228.000 L 680.000 1228.000 680.000 1306.000 L 680.000 1384.000 720.000 1384.000 L 760.000 1384.000 760.000 1200.000 L 760.000 1016.000 720.000 1016.000 L 680.000 1016.000 680.000 1090.000 L 680.000 1164.000 606.000 1164.000 L 532.000 1164.000 532.000 1090.000 L 532.000 1016.000 494.000 1016.000 L 456.000 1016.000 456.000 1200.000 M832.000 1200.000 L 832.000 1384.000 870.000 1384.000 L 908.000 1384.000 908.000 1310.090 L 908.000 1236.180 981.000 1235.090 L 1054.000 1234.000 1055.168 1203.000 L 1056.337 1172.000 982.168 1172.000 L 908.000 1172.000 908.000 1124.000 L 908.000 1076.000 990.000 1076.000 L 1072.000 1076.000 1072.000 1046.000 L 1072.000 1016.000 952.000 1016.000 L 832.000 1016.000 832.000 1200.000 M1224.000 1199.678 L 1224.000 1384.000 1262.000 1384.000 L 1300.000 1384.000 1300.000 1318.000 L 1300.000 1252.000 1331.262 1252.000 L 1362.524 1252.000 1396.262 1317.925 L 1430.000 1383.850 1471.000 1383.925 C 1493.550 1383.966,1512.000 1382.947,1512.000 1381.659 C 1512.000 1380.372,1494.900 1347.225,1474.000 1308.000 C 1453.100 1268.775,1436.000 1235.116,1436.000 1233.203 C 1436.000 1231.290,1441.148 1226.684,1447.440 1222.967 C 1506.656 1187.987,1517.418 1099.287,1468.233 1051.589 C 1437.371 1021.659,1424.856 1018.792,1317.000 1016.947 L 1224.000 1015.355 1224.000 1199.678 M1564.000 1200.000 L 1564.000 1384.000 1604.000 1384.000 L 1644.000 1384.000 1644.000 1310.000 L 1644.000 1236.000 1716.000 1236.000 L 1788.000 1236.000 1788.000 1204.000 L 1788.000 1172.000 1716.000 1172.000 L 1644.000 1172.000 1644.000 1124.000 L 1644.000 1076.000 1726.000 1076.000 L 1808.000 1076.000 1808.000 1046.000 L 1808.000 1016.000 1686.000 1016.000 L 1564.000 1016.000 1564.000 1200.000 M1872.000 1200.000 L 1872.000 1384.000 1912.000 1384.000 L 1952.000 1384.000 1952.000 1200.000 L 1952.000 1016.000 1912.000 1016.000 L 1872.000 1016.000 1872.000 1200.000 M2016.000 1200.295 L 2016.000 1384.590 2097.000 1383.295 L 2178.000 1382.000 2205.101 1369.163 C 2267.596 1339.561,2300.000 1281.798,2300.000 1200.000 C 2300.000 1107.352,2255.442 1042.332,2178.160 1022.208 C 2161.063 1017.756,2134.757 1016.000,2085.160 1016.000 L 2016.000 1016.000 2016.000 1200.295 M1397.910 1085.573 C 1413.658 1095.892,1420.439 1109.576,1420.608 1131.380 C 1420.936 1173.637,1399.960 1188.000,1337.919 1188.000 L 1300.000 1188.000 1300.000 1131.434 L 1300.000 1074.867 1343.966 1076.951 C 1375.079 1078.426,1390.848 1080.946,1397.910 1085.573 M2176.683 1088.611 C 2209.670 1106.822,2221.319 1135.893,2221.319 1200.000 C 2221.319 1248.260,2216.718 1268.287,2200.477 1290.707 C 2184.671 1312.526,2164.712 1321.374,2127.000 1323.280 L 2096.000 1324.847 2096.000 1199.852 L 2096.000 1074.857 2127.837 1077.039 C 2150.696 1078.606,2164.471 1081.869,2176.683 1088.611 M786.894 1614.135 L 715.860 1687.415 738.274 1708.613 C 824.488 1790.151,957.901 1855.285,1086.000 1878.377 C 1141.558 1888.392,1258.442 1888.392,1314.000 1878.377 C 1442.302 1855.248,1575.498 1790.164,1662.046 1708.310 L 1684.781 1686.808 1612.681 1614.708 L 1540.580 1542.608 1526.056 1554.304 C 1454.193 1612.175,1415.488 1634.948,1353.982 1655.551 C 1253.822 1689.103,1136.884 1688.352,1039.065 1653.528 C 981.622 1633.078,936.257 1605.714,873.112 1553.428 L 857.928 1540.855 786.894 1614.135 M496.472 1905.527 L 423.439 1978.641 456.314 2009.568 C 650.969 2192.685,925.623 2299.914,1200.000 2299.914 C 1473.270 2299.914,1747.125 2193.415,1941.504 2011.553 L 1976.619 1978.699 1903.609 1905.609 L 1830.599 1832.518 1800.299 1860.921 C 1673.658 1979.635,1504.371 2058.669,1318.000 2086.090 C 1259.276 2094.730,1140.893 2094.745,1082.000 2086.119 C 895.904 2058.863,722.660 1977.895,598.899 1860.334 L 569.506 1832.413 496.472 1905.527 " fill="#1D1E23" stroke="none" fill-rule="evenodd"/></svg>