<svg viewBox="0 0 2400 2400" fill="none" xmlns="http://www.w3.org/2000/svg"><path d="M1147.449 121.283 C 1126.523 150.132,968.000 451.692,968.000 462.650 C 968.000 466.894,981.233 468.000,1032.000 468.000 L 1096.000 468.000 1096.000 1031.999 L 1096.000 1595.999 1015.000 1529.359 C 908.639 1441.854,860.636 1400.360,827.940 1367.664 C 780.098 1319.823,747.970 1272.418,732.074 1226.216 C 723.910 1202.486,716.009 1137.427,716.003 1093.879 L 716.000 1069.758 737.998 1053.879 C 762.068 1036.504,779.635 1014.563,793.078 985.086 C 800.132 969.617,801.802 958.406,801.891 925.930 C 801.993 888.606,801.099 884.029,788.853 859.141 C 773.669 828.282,749.945 805.375,716.496 789.278 C 696.985 779.888,689.224 778.485,658.000 778.699 C 610.775 779.022,583.996 789.019,552.670 818.021 C 512.578 855.140,497.204 895.995,504.347 946.435 C 506.252 959.889,511.421 979.318,515.833 989.611 C 524.586 1010.031,555.558 1045.061,579.573 1061.704 L 594.765 1072.232 597.353 1129.116 C 605.032 1297.877,661.693 1395.602,832.003 1533.823 C 1008.103 1676.744,1053.668 1719.886,1075.305 1764.185 C 1087.647 1789.453,1095.829 1828.405,1095.853 1862.000 C 1095.864 1877.656,1095.281 1878.314,1068.787 1892.608 C 1028.783 1914.191,1002.590 1936.608,980.310 1968.334 C 930.763 2038.887,929.086 2122.930,975.786 2195.183 C 1008.441 2245.707,1052.205 2277.218,1110.384 2292.098 C 1147.468 2301.583,1166.520 2301.983,1198.160 2293.940 C 1262.306 2277.634,1324.774 2229.967,1351.556 2176.889 C 1378.167 2124.152,1377.560 2049.496,1350.067 1993.522 C 1332.214 1957.175,1294.465 1920.878,1248.646 1896.000 L 1215.493 1878.000 1218.164 1684.000 L 1220.835 1490.000 1233.220 1466.540 C 1258.262 1419.104,1285.752 1395.418,1423.575 1302.523 C 1571.630 1202.732,1618.808 1163.315,1655.745 1108.549 C 1689.842 1057.994,1712.324 991.838,1718.166 924.870 L 1721.033 892.000 1762.517 892.000 L 1804.000 892.000 1804.000 748.000 L 1804.000 604.000 1658.000 604.000 L 1512.000 604.000 1512.000 748.000 L 1512.000 892.000 1556.461 892.000 L 1600.922 892.000 1598.176 915.000 C 1591.001 975.118,1571.185 1020.551,1533.001 1064.435 C 1504.652 1097.017,1482.819 1115.968,1432.677 1151.520 C 1381.753 1187.626,1228.659 1288.000,1224.513 1288.000 C 1219.349 1288.000,1216.000 1081.610,1216.000 763.349 L 1216.000 468.000 1280.000 468.000 C 1335.431 468.000,1344.000 467.161,1344.000 461.734 C 1344.000 454.859,1285.524 339.910,1223.063 224.000 C 1180.772 145.521,1160.805 111.920,1156.583 112.126 C 1155.162 112.195,1151.052 116.316,1147.449 121.283 " fill="#1D1E23" stroke="none" fill-rule="evenodd"/></svg>