<svg viewBox="0 0 2400 2400" fill="none" xmlns="http://www.w3.org/2000/svg"><path d="M1176.089 146.539 C 1148.689 169.594,981.099 386.268,958.381 428.010 C 948.496 446.172,948.124 448.551,953.255 460.796 C 956.298 468.058,963.720 479.850,969.749 487.000 L 980.711 500.000 1040.356 500.000 L 1100.000 500.000 1100.000 900.000 L 1100.000 1300.000 950.000 1300.000 L 800.000 1300.000 800.000 1196.532 L 800.000 1093.063 815.605 1082.736 C 849.223 1060.489,889.155 1013.575,901.729 981.555 C 910.719 958.660,919.873 916.384,919.941 897.447 C 920.026 873.668,901.751 813.621,886.796 788.539 C 869.216 759.055,829.501 723.671,794.672 706.462 C 695.115 657.270,576.221 691.116,516.520 785.646 C 470.044 859.235,469.955 940.275,516.272 1011.935 C 533.508 1038.604,561.440 1067.545,584.967 1083.115 L 600.000 1093.063 600.108 1187.532 C 600.255 1314.997,603.643 1347.163,620.624 1382.313 C 638.825 1419.987,680.122 1461.227,717.947 1479.503 C 754.412 1497.121,784.282 1499.598,963.000 1499.826 L 1100.000 1500.000 1099.510 1613.000 C 1099.240 1675.150,1097.890 1744.234,1096.510 1766.519 L 1094.000 1807.039 1073.269 1823.400 C 1044.735 1845.919,1009.675 1890.458,998.349 1918.576 C 974.368 1978.112,976.231 2033.828,1004.108 2090.759 C 1042.671 2169.514,1113.614 2216.215,1195.178 2216.538 C 1214.330 2216.615,1239.000 2214.447,1250.000 2211.722 C 1366.740 2182.800,1442.185 2064.078,1413.878 1953.840 C 1400.731 1902.640,1374.158 1862.870,1327.778 1824.980 L 1300.000 1802.287 1300.000 1651.143 L 1300.000 1500.000 1447.000 1499.876 C 1527.850 1499.809,1607.500 1498.028,1624.000 1495.919 C 1706.986 1485.313,1782.565 1413.170,1795.724 1332.000 C 1798.043 1317.700,1799.956 1260.100,1799.975 1204.000 L 1800.011 1102.000 1824.203 1094.891 C 1855.634 1085.654,1888.926 1054.875,1895.903 1028.603 C 1899.057 1016.724,1900.122 972.738,1899.261 889.938 L 1898.000 768.671 1885.831 751.366 C 1879.139 741.849,1863.981 727.298,1852.148 719.031 L 1830.634 704.000 1700.021 704.000 L 1569.408 704.000 1550.783 717.242 C 1540.540 724.525,1525.470 739.068,1517.296 749.561 L 1502.432 768.638 1502.216 893.319 C 1502.052 987.890,1503.297 1021.666,1507.369 1033.179 C 1515.090 1055.007,1547.859 1086.200,1572.119 1094.817 C 1598.749 1104.275,1599.950 1109.454,1599.978 1215.000 L 1600.000 1300.000 1450.000 1300.000 L 1300.000 1300.000 1300.000 900.445 L 1300.000 500.890 1357.229 499.410 C 1422.741 497.716,1431.755 494.355,1443.972 467.068 C 1452.482 448.060,1452.034 446.296,1429.974 412.000 C 1410.169 381.210,1274.741 199.216,1249.072 168.897 C 1219.883 134.420,1198.336 127.819,1176.089 146.539 " fill="#1D1E23" stroke="none" fill-rule="evenodd"/></svg>