<svg viewBox="0 0 2400 2400" fill="none" xmlns="http://www.w3.org/2000/svg"><path d="M1057.324 285.095 L 960.648 466.000 1028.324 467.094 L 1096.000 468.189 1096.000 1032.604 L 1096.000 1597.019 1079.000 1581.361 C 1069.650 1572.750,1017.455 1530.177,963.010 1486.754 C 822.046 1374.328,774.972 1325.050,742.236 1255.645 C 720.847 1210.298,716.000 1185.843,716.000 1123.262 L 716.000 1068.205 728.239 1061.876 C 761.862 1044.490,791.855 1004.825,802.346 963.874 C 819.677 896.227,786.348 821.594,724.905 790.458 C 627.618 741.160,510.378 806.367,501.285 914.833 C 496.362 973.559,525.405 1028.400,579.000 1061.577 L 596.000 1072.100 596.000 1121.526 C 596.000 1257.830,641.947 1358.975,752.556 1466.161 C 795.048 1507.338,825.730 1532.644,929.502 1612.102 C 1059.030 1711.283,1096.165 1763.355,1095.891 1845.421 L 1095.783 1878.000 1062.909 1893.568 C 979.426 1933.104,930.252 2023.454,943.190 2113.535 C 957.663 2214.310,1040.433 2291.194,1142.791 2298.943 C 1239.354 2306.254,1335.166 2241.117,1364.396 2148.289 C 1375.192 2113.999,1376.043 2062.852,1366.362 2030.000 C 1347.971 1967.586,1309.539 1922.360,1251.517 1894.853 L 1215.968 1878.000 1216.984 1685.907 L 1218.000 1493.813 1231.377 1466.650 C 1256.832 1414.960,1298.534 1378.869,1418.102 1305.048 C 1499.718 1254.658,1537.068 1229.399,1568.676 1203.217 C 1662.633 1125.390,1705.262 1048.926,1716.502 938.058 L 1721.172 892.000 1762.586 892.000 L 1804.000 892.000 1804.000 748.000 L 1804.000 604.000 1658.000 604.000 L 1512.000 604.000 1512.000 748.000 L 1512.000 892.000 1556.552 892.000 L 1601.103 892.000 1598.370 922.168 C 1592.593 985.918,1569.119 1033.851,1519.221 1083.786 C 1483.038 1119.997,1445.703 1147.178,1347.532 1208.780 C 1307.897 1233.651,1262.869 1263.450,1247.470 1275.000 C 1232.071 1286.550,1218.691 1296.000,1217.736 1296.000 C 1216.781 1296.000,1216.000 1109.743,1216.000 882.094 L 1216.000 468.189 1283.279 467.094 L 1350.558 466.000 1255.460 286.060 C 1203.157 187.094,1158.931 105.687,1157.181 105.156 C 1155.432 104.625,1110.496 185.598,1057.324 285.095 " fill="#1D1E23" stroke="none" fill-rule="evenodd"/></svg>