<svg viewBox="0 0 2400 2400" fill="none" xmlns="http://www.w3.org/2000/svg"><path d="M1179.839 128.650 C 1170.544 140.393,1103.729 228.750,1031.362 325.000 L 899.785 500.000 999.893 500.000 L 1100.000 500.000 1100.000 900.000 L 1100.000 1300.000 950.000 1300.000 L 800.000 1300.000 800.000 1196.544 L 800.000 1093.088 816.143 1081.901 C 864.366 1048.482,906.307 983.790,916.414 927.237 C 931.288 844.003,875.670 746.473,788.994 703.803 C 736.774 678.095,663.836 678.306,609.322 704.323 C 579.504 718.555,525.244 767.471,510.028 793.840 C 478.064 849.232,475.193 929.809,502.949 992.555 C 511.932 1012.863,558.668 1064.445,583.976 1081.983 L 600.000 1093.088 600.000 1189.649 C 600.000 1311.910,603.776 1344.974,622.012 1382.407 C 640.613 1420.589,679.266 1459.282,717.593 1478.087 C 756.021 1496.941,788.378 1499.845,961.000 1499.931 L 1100.000 1500.000 1100.000 1653.897 L 1100.000 1807.795 1089.000 1813.495 C 1053.852 1831.711,1008.030 1890.529,991.463 1938.697 C 966.271 2011.942,989.313 2093.714,1052.404 2154.967 C 1095.451 2196.761,1128.334 2211.670,1184.864 2215.025 C 1253.320 2219.088,1302.883 2200.828,1350.475 2154.011 C 1389.250 2115.868,1409.127 2075.962,1415.867 2022.727 C 1425.235 1948.733,1389.964 1871.338,1325.602 1824.661 L 1300.000 1806.094 1300.000 1653.449 L 1300.000 1500.804 1465.000 1498.923 C 1643.494 1496.888,1650.708 1496.088,1691.689 1473.783 C 1733.586 1450.980,1773.483 1402.540,1788.702 1356.000 C 1796.347 1332.618,1797.389 1318.420,1799.044 1215.000 L 1800.885 1100.000 1850.443 1100.000 L 1900.000 1100.000 1900.000 900.000 L 1900.000 700.000 1700.000 700.000 L 1500.000 700.000 1500.000 900.000 L 1500.000 1100.000 1550.000 1100.000 L 1600.000 1100.000 1600.000 1200.000 L 1600.000 1300.000 1450.000 1300.000 L 1300.000 1300.000 1300.000 900.000 L 1300.000 500.000 1400.059 500.000 L 1500.118 500.000 1421.374 395.000 C 1308.320 244.247,1218.260 127.465,1206.718 116.650 L 1196.739 107.300 1179.839 128.650 " fill="#1D1E23" stroke="none" fill-rule="evenodd"/></svg>