<svg viewBox="0 0 2400 2400" fill="none" xmlns="http://www.w3.org/2000/svg"><path d="M1183.377 142.090 C 1159.874 154.857,974.482 392.313,955.828 433.544 C 947.478 451.999,950.187 463.126,968.419 485.243 L 980.582 500.000 1040.291 500.000 L 1100.000 500.000 1100.000 900.000 L 1100.000 1300.000 950.000 1300.000 L 800.000 1300.000 800.000 1196.326 L 800.000 1092.652 813.519 1084.297 C 837.251 1069.630,883.917 1016.895,896.261 990.793 C 911.956 957.604,921.621 912.418,918.572 886.475 C 915.963 864.281,901.405 818.142,889.951 795.766 C 863.711 744.506,797.390 698.355,734.796 687.797 C 612.364 667.146,496.570 756.173,482.202 882.000 C 478.654 913.067,487.451 955.778,504.550 990.511 C 518.416 1018.678,562.993 1069.781,586.214 1084.132 L 600.000 1092.652 600.000 1189.431 C 600.000 1311.913,603.770 1344.962,622.012 1382.407 C 640.613 1420.589,679.266 1459.282,717.593 1478.087 C 756.044 1496.952,788.362 1499.845,961.649 1499.931 L 1101.298 1500.000 1098.628 1647.000 C 1097.159 1727.850,1094.943 1797.600,1093.702 1802.000 C 1092.462 1806.400,1083.228 1816.247,1073.183 1823.882 C 1011.718 1870.600,973.684 1955.230,983.680 2023.031 C 989.166 2060.236,1002.934 2093.885,1025.761 2125.874 C 1068.319 2185.513,1127.973 2216.000,1202.114 2216.000 C 1260.877 2216.000,1310.100 2194.810,1354.400 2150.443 C 1408.835 2095.926,1431.302 2022.772,1414.054 1956.207 C 1400.537 1904.043,1373.521 1862.888,1328.463 1825.820 L 1300.000 1802.404 1300.000 1651.575 L 1300.000 1500.746 1465.000 1499.171 C 1623.948 1497.655,1630.954 1497.265,1656.000 1488.542 C 1729.804 1462.838,1785.808 1397.772,1795.903 1326.000 C 1798.069 1310.600,1799.877 1253.664,1799.921 1199.475 L 1800.000 1100.950 1817.000 1096.645 C 1853.908 1087.298,1886.956 1057.589,1895.585 1026.000 C 1898.295 1016.079,1899.949 964.406,1899.939 890.000 L 1899.922 770.000 1885.751 752.172 C 1877.957 742.366,1862.494 727.516,1851.388 719.172 L 1831.197 704.000 1700.199 704.000 L 1569.200 704.000 1553.477 715.390 C 1532.598 730.514,1504.436 762.868,1501.311 775.321 C 1499.932 780.814,1499.797 838.651,1501.011 903.848 C 1502.701 994.583,1504.583 1025.625,1509.036 1036.193 C 1516.626 1054.207,1551.258 1086.252,1573.387 1095.737 C 1582.989 1099.853,1592.336 1106.546,1594.159 1110.610 C 1595.982 1114.675,1598.213 1158.950,1599.117 1209.000 L 1600.760 1300.000 1450.380 1300.000 L 1300.000 1300.000 1300.000 900.000 L 1300.000 500.000 1347.000 499.678 C 1407.284 499.265,1426.857 494.308,1438.875 476.408 C 1458.661 446.939,1454.238 439.221,1302.503 238.437 C 1228.139 140.034,1211.676 126.719,1183.377 142.090 " fill="#1D1E23" stroke="none" fill-rule="evenodd"/></svg>