<svg viewBox="0 0 2400 2400" fill="none" xmlns="http://www.w3.org/2000/svg"><path d="M1138.707 135.000 C 1092.899 210.951,966.339 458.077,970.119 464.192 C 971.444 466.337,999.453 468.000,1034.236 468.000 L 1096.000 468.000 1096.000 1032.107 L 1096.000 1596.214 1027.000 1539.430 C 862.993 1404.459,799.785 1344.650,766.066 1292.527 C 731.819 1239.586,722.450 1205.788,717.684 1118.000 L 715.078 1070.000 735.013 1055.315 C 759.928 1036.962,781.218 1011.240,792.650 985.681 C 799.734 969.843,801.506 958.189,801.722 926.000 C 801.966 889.612,800.936 883.852,790.318 862.218 C 775.395 831.811,751.270 807.785,719.615 791.806 C 695.299 779.531,693.343 779.212,652.286 780.828 C 600.898 782.849,581.485 790.846,548.079 823.756 C 518.217 853.173,506.610 877.675,504.625 915.487 C 501.604 973.019,523.599 1018.067,573.599 1056.754 L 594.816 1073.170 597.339 1125.780 C 605.957 1305.472,660.303 1393.678,866.000 1561.831 C 957.624 1636.732,1015.740 1687.945,1040.145 1715.292 C 1068.649 1747.231,1085.947 1783.708,1091.976 1824.586 C 1099.269 1874.035,1099.307 1873.951,1058.602 1899.106 C 981.783 1946.578,942.217 2010.421,942.774 2086.000 C 943.166 2139.059,962.331 2184.460,1002.782 2228.151 C 1029.567 2257.083,1054.467 2273.213,1092.407 2286.213 C 1152.125 2306.675,1192.036 2302.953,1252.996 2271.239 C 1352.936 2219.244,1394.202 2118.582,1358.121 2014.804 C 1341.225 1966.208,1303.947 1926.861,1243.315 1893.625 L 1215.621 1878.444 1218.257 1684.222 L 1220.892 1490.000 1232.929 1468.000 C 1259.512 1419.417,1285.131 1397.020,1416.000 1307.955 C 1560.185 1209.827,1619.558 1161.192,1651.018 1115.439 C 1685.204 1065.721,1708.843 1000.534,1716.712 934.285 L 1721.734 892.000 1762.867 892.000 L 1804.000 892.000 1804.000 748.000 L 1804.000 604.000 1658.000 604.000 L 1512.000 604.000 1512.000 748.000 L 1512.000 892.000 1556.000 892.000 C 1584.286 892.000,1600.000 893.512,1600.000 896.234 C 1600.000 913.693,1589.476 962.546,1581.093 984.000 C 1549.547 1064.734,1494.967 1114.425,1297.991 1241.743 L 1226.000 1288.275 1222.953 1273.138 C 1221.277 1264.812,1218.765 1080.250,1217.370 863.000 L 1214.835 468.000 1277.181 468.000 C 1318.616 468.000,1340.450 466.508,1342.277 463.552 C 1348.208 453.956,1167.170 112.000,1156.159 112.000 C 1154.190 112.000,1146.337 122.350,1138.707 135.000 " fill="#1D1E23" stroke="none" fill-rule="evenodd"/></svg>