<svg viewBox="0 0 2400 2400" fill="none" xmlns="http://www.w3.org/2000/svg"><path d="M1136.610 139.002 C 1094.726 213.659,964.000 459.419,964.000 463.501 C 964.000 466.651,983.789 468.000,1030.000 468.000 L 1096.000 468.000 1096.000 1032.091 L 1096.000 1596.183 1061.000 1566.806 C 1041.750 1550.649,992.745 1510.557,952.100 1477.714 C 820.630 1371.480,767.887 1314.070,737.644 1244.281 C 721.678 1207.439,716.187 1174.163,716.079 1113.598 L 716.000 1069.196 735.560 1057.036 C 778.632 1030.262,805.410 979.942,805.293 926.000 C 805.178 873.080,782.110 828.756,740.076 800.686 C 709.756 780.439,688.168 774.832,647.246 776.576 C 603.631 778.434,569.814 794.140,540.596 826.110 C 477.008 895.685,491.904 1001.636,573.140 1057.585 L 594.883 1072.561 597.095 1135.280 C 599.753 1210.673,610.558 1258.222,637.720 1314.057 C 680.511 1402.019,742.566 1467.200,898.262 1587.726 C 996.624 1663.868,1057.519 1723.099,1075.376 1760.000 C 1089.730 1789.661,1096.000 1818.183,1096.000 1853.810 L 1096.000 1878.529 1071.208 1890.265 C 976.236 1935.220,925.651 2029.360,945.613 2124.000 C 966.049 2220.888,1046.007 2291.374,1143.669 2298.597 C 1242.427 2305.900,1345.814 2230.851,1367.659 2136.000 C 1369.939 2126.100,1371.848 2102.440,1371.902 2083.421 C 1372.136 2000.613,1328.500 1933.818,1248.470 1894.481 L 1214.940 1878.000 1217.025 1685.552 L 1219.110 1493.104 1232.555 1465.566 C 1241.631 1446.976,1255.202 1428.759,1274.318 1409.503 C 1301.843 1381.776,1320.177 1368.999,1495.568 1255.314 C 1564.689 1210.511,1629.739 1150.930,1660.212 1104.513 C 1693.076 1054.453,1711.831 995.883,1718.336 923.000 L 1721.103 892.000 1762.552 892.000 L 1804.000 892.000 1804.000 748.000 L 1804.000 604.000 1658.000 604.000 L 1512.000 604.000 1512.000 748.000 L 1512.000 892.000 1556.517 892.000 L 1601.034 892.000 1598.226 921.000 C 1592.416 980.998,1568.274 1031.480,1522.485 1079.377 C 1489.276 1114.116,1451.112 1142.601,1357.340 1202.641 C 1313.703 1230.580,1266.049 1262.116,1251.441 1272.720 C 1236.834 1283.324,1222.884 1292.000,1220.441 1292.000 C 1217.215 1292.000,1216.000 1179.288,1216.000 880.000 L 1216.000 468.000 1282.000 468.000 C 1320.905 468.000,1348.000 466.444,1348.000 464.209 C 1348.000 460.469,1222.414 221.638,1181.803 148.148 C 1170.299 127.329,1159.337 109.780,1157.443 109.150 C 1155.549 108.520,1146.174 121.953,1136.610 139.002 " fill="#1D1E23" stroke="none" fill-rule="evenodd"/></svg>