<svg viewBox="0 0 2400 2400" fill="none" xmlns="http://www.w3.org/2000/svg"><path d="M1174.716 144.152 C 1151.995 162.024,959.253 417.385,950.885 440.702 C 946.880 451.861,955.219 473.755,968.226 486.227 L 980.502 498.000 1040.251 499.288 L 1100.000 500.576 1100.000 900.288 L 1100.000 1300.000 950.000 1300.000 L 800.000 1300.000 800.000 1196.674 L 800.000 1093.347 819.846 1080.488 C 842.048 1066.101,875.632 1030.440,890.297 1005.680 C 914.318 965.124,924.231 911.580,916.228 865.621 C 900.072 772.847,832.670 704.652,738.000 685.294 C 648.546 667.003,550.838 715.201,506.561 799.460 C 462.820 882.700,474.316 971.158,538.188 1042.813 C 550.354 1056.461,569.238 1073.414,580.153 1080.487 L 600.000 1093.347 600.023 1201.674 C 600.036 1261.253,601.801 1320.800,603.946 1334.000 C 609.666 1369.206,632.628 1412.628,660.000 1440.000 C 687.372 1467.372,730.794 1490.334,766.000 1496.054 C 779.200 1498.199,859.750 1499.964,945.000 1499.977 L 1100.000 1500.000 1100.000 1653.730 C 1100.000 1806.435,1099.944 1807.479,1091.592 1810.130 C 1079.188 1814.066,1026.310 1865.679,1012.542 1887.288 C 984.713 1930.964,973.727 2004.318,987.574 2054.000 C 1019.260 2167.685,1136.260 2240.210,1246.000 2214.191 C 1347.611 2190.100,1419.784 2101.996,1419.953 2001.840 C 1420.072 1931.139,1386.479 1866.114,1327.664 1823.202 L 1300.000 1803.017 1300.000 1651.509 L 1300.000 1500.000 1455.000 1499.977 C 1540.250 1499.964,1620.800 1498.199,1634.000 1496.054 C 1711.162 1483.517,1783.820 1412.641,1796.028 1338.000 C 1798.187 1324.800,1799.964 1266.276,1799.977 1207.947 L 1800.000 1101.893 1821.000 1096.945 C 1848.586 1090.445,1870.994 1074.306,1885.905 1050.200 L 1898.000 1030.648 1899.252 903.613 C 1900.372 790.011,1899.781 775.173,1893.659 763.289 C 1881.263 739.224,1868.323 725.450,1847.017 713.645 L 1826.000 702.000 1700.000 702.000 C 1577.692 702.000,1573.516 702.259,1557.487 710.833 C 1535.536 722.574,1508.953 753.334,1505.096 771.454 C 1503.393 779.454,1502.000 840.000,1502.000 906.000 C 1502.000 1022.119,1502.286 1026.534,1510.833 1042.513 C 1526.461 1071.729,1565.489 1099.855,1590.572 1099.978 C 1598.939 1100.019,1600.000 1111.992,1600.000 1206.327 L 1600.000 1300.000 1450.000 1300.000 L 1300.000 1300.000 1300.000 900.000 L 1300.000 500.000 1353.000 499.774 C 1419.421 499.491,1430.994 495.925,1443.133 472.000 C 1449.073 460.292,1451.408 450.512,1449.811 444.021 C 1445.224 425.375,1253.255 165.898,1227.107 143.000 C 1215.859 133.150,1187.922 133.764,1174.716 144.152 " fill="#1D1E23" stroke="none" fill-rule="evenodd"/></svg>