<svg viewBox="0 0 2400 2400" fill="none" xmlns="http://www.w3.org/2000/svg"><path d="M1180.000 138.843 C 1169.570 144.175,1138.800 182.167,1059.334 287.831 C 999.183 367.811,951.655 434.727,950.344 441.278 C 947.006 457.968,960.394 485.930,975.451 493.716 C 984.805 498.553,1000.542 500.000,1043.801 500.000 L 1100.000 500.000 1100.000 900.000 L 1100.000 1300.000 950.000 1300.000 L 800.000 1300.000 800.000 1196.380 L 800.000 1092.760 817.000 1082.783 C 842.082 1068.063,881.242 1025.235,895.568 996.856 C 913.764 960.810,921.296 924.648,918.681 885.892 C 912.046 787.540,841.804 706.247,746.000 686.044 C 711.044 678.672,689.272 678.597,655.603 685.734 C 554.958 707.068,480.000 798.530,480.000 900.000 C 480.000 931.254,487.969 964.199,503.032 995.223 C 515.989 1021.910,558.307 1068.326,582.728 1082.638 L 600.000 1092.760 600.000 1206.183 C 600.000 1273.535,601.796 1328.216,604.420 1340.803 C 620.053 1415.765,684.235 1479.947,759.197 1495.580 C 772.622 1498.379,838.985 1500.000,940.197 1500.000 L 1100.000 1500.000 1100.000 1653.090 L 1100.000 1806.181 1085.002 1814.090 C 1060.767 1826.871,1018.901 1871.444,1004.997 1899.268 C 940.774 2027.790,1010.021 2178.217,1149.840 2213.914 C 1262.144 2242.585,1383.952 2168.718,1413.886 2053.791 C 1436.718 1966.135,1398.881 1869.206,1321.883 1818.098 L 1300.000 1803.572 1300.000 1651.786 L 1300.000 1500.000 1459.803 1500.000 C 1561.015 1500.000,1627.378 1498.379,1640.803 1495.580 C 1693.601 1484.569,1750.994 1442.461,1774.995 1397.125 C 1798.485 1352.753,1800.000 1341.768,1800.000 1215.785 L 1800.000 1101.022 1816.367 1098.405 C 1850.449 1092.955,1877.040 1072.333,1891.676 1040.000 C 1899.296 1023.167,1899.830 1014.076,1899.912 899.785 L 1900.000 777.571 1889.639 756.779 C 1877.460 732.340,1857.481 714.620,1832.511 706.112 C 1805.175 696.797,1593.630 697.204,1565.983 706.625 C 1540.665 715.251,1515.251 740.665,1506.625 765.983 C 1496.822 794.751,1496.822 1005.249,1506.625 1034.017 C 1518.084 1067.648,1560.294 1100.000,1592.713 1100.000 C 1599.568 1100.000,1600.000 1105.926,1600.000 1200.000 L 1600.000 1300.000 1450.000 1300.000 L 1300.000 1300.000 1300.000 900.000 L 1300.000 500.000 1357.000 499.985 C 1424.357 499.967,1434.710 496.118,1445.849 466.951 C 1451.927 451.036,1452.016 447.781,1446.713 435.090 C 1439.011 416.655,1238.913 150.093,1226.838 142.181 C 1211.565 132.174,1195.311 131.016,1180.000 138.843 " fill="#1D1E23" stroke="none" fill-rule="evenodd"/></svg>