<svg viewBox="0 0 2400 2400" fill="none" xmlns="http://www.w3.org/2000/svg"><path d="M1136.740 139.000 C 1082.536 232.736,963.148 461.815,966.666 465.333 C 968.133 466.800,997.833 468.000,1032.667 468.000 L 1096.000 468.000 1096.000 1032.396 L 1096.000 1596.792 1073.000 1577.069 C 1060.350 1566.221,1014.900 1528.736,972.000 1493.768 C 829.549 1377.655,781.910 1328.711,748.114 1263.752 C 725.622 1220.520,719.790 1194.862,717.256 1128.000 L 715.059 1070.000 736.529 1055.735 C 794.250 1017.387,818.785 941.333,795.590 872.651 C 779.019 823.580,726.613 782.134,675.191 777.430 C 604.015 770.920,544.440 804.212,514.842 867.037 C 503.770 890.539,502.169 898.108,502.367 926.000 C 502.744 979.238,525.798 1022.684,571.225 1055.765 L 594.796 1072.930 597.363 1133.465 C 602.251 1248.727,628.841 1321.073,697.810 1406.759 C 732.540 1449.907,773.440 1487.491,868.000 1563.149 C 1061.672 1718.108,1089.628 1752.485,1094.770 1842.000 L 1096.838 1878.000 1065.419 1893.906 C 985.244 1934.496,933.921 2019.698,941.772 2099.174 C 951.164 2194.254,1022.436 2274.526,1114.853 2294.109 C 1149.396 2301.428,1167.688 2301.370,1199.647 2293.836 C 1271.569 2276.883,1336.518 2222.171,1360.880 2158.016 C 1374.107 2123.184,1374.006 2053.598,1360.672 2014.995 C 1342.920 1963.600,1300.966 1920.169,1240.432 1890.522 L 1214.863 1878.000 1217.609 1684.247 L 1220.355 1490.494 1234.433 1463.703 C 1258.767 1417.396,1288.839 1391.574,1417.886 1306.176 C 1540.176 1225.250,1592.524 1185.007,1628.412 1144.334 C 1681.216 1084.487,1710.110 1013.322,1718.300 922.934 L 1721.103 892.000 1762.552 892.000 L 1804.000 892.000 1804.000 748.000 L 1804.000 604.000 1658.000 604.000 L 1512.000 604.000 1512.000 748.000 L 1512.000 892.000 1556.466 892.000 L 1600.932 892.000 1598.048 918.933 C 1591.003 984.718,1565.097 1035.632,1511.714 1088.613 C 1483.093 1117.018,1453.980 1138.384,1349.418 1207.719 L 1222.000 1292.212 1219.397 1259.106 C 1217.965 1240.898,1216.615 1055.450,1216.397 847.000 L 1216.000 468.000 1279.333 468.000 C 1314.167 468.000,1343.866 466.800,1345.333 465.334 C 1348.116 462.551,1298.041 363.893,1222.842 224.000 C 1173.016 131.308,1161.515 112.000,1156.126 112.000 C 1154.051 112.000,1145.327 124.150,1136.740 139.000 " fill="#1D1E23" stroke="none" fill-rule="evenodd"/></svg>