<svg viewBox="0 0 2400 2400" fill="none" xmlns="http://www.w3.org/2000/svg"><path d="M1179.727 141.907 C 1160.612 152.302,976.543 391.757,954.467 434.948 C 948.405 446.808,948.377 449.159,954.137 462.948 C 957.595 471.226,965.166 482.950,970.961 489.000 L 981.497 500.000 1040.748 500.000 L 1100.000 500.000 1100.000 900.000 L 1100.000 1300.000 950.000 1300.000 L 800.000 1300.000 800.000 1196.787 L 800.000 1093.575 823.925 1076.703 C 852.590 1056.487,885.787 1017.759,898.809 989.339 C 909.677 965.621,919.829 921.546,919.931 897.640 C 920.034 873.195,905.895 822.676,891.270 795.236 C 865.909 747.654,812.893 706.796,754.707 689.990 C 721.242 680.324,667.808 681.292,635.472 692.150 C 568.418 714.667,514.901 767.643,491.851 834.320 C 467.919 903.550,482.747 974.979,533.933 1037.034 C 545.271 1050.779,564.619 1068.962,576.930 1077.441 L 599.314 1092.857 600.942 1215.428 C 602.449 1328.823,603.218 1339.752,611.209 1361.404 C 633.095 1420.702,679.070 1466.762,738.323 1488.752 C 761.046 1497.185,768.815 1497.601,931.137 1499.075 L 1100.273 1500.611 1099.137 1652.629 L 1098.000 1804.647 1086.000 1812.990 C 1057.620 1832.720,1015.593 1879.972,1003.566 1905.672 C 964.328 1989.523,978.650 2080.301,1041.740 2147.617 C 1085.990 2194.832,1137.809 2217.816,1200.000 2217.812 C 1300.621 2217.805,1388.840 2148.669,1413.928 2050.160 C 1435.052 1967.218,1401.585 1881.128,1325.401 1822.428 L 1300.000 1802.857 1300.000 1651.428 L 1300.000 1500.000 1451.000 1499.921 C 1534.050 1499.877,1614.402 1498.049,1629.560 1495.858 C 1709.092 1484.361,1783.353 1412.168,1796.054 1334.000 C 1798.199 1320.800,1799.964 1262.950,1799.977 1205.445 L 1800.000 1100.890 1814.814 1098.111 C 1846.804 1092.110,1877.082 1069.241,1892.154 1039.697 C 1899.442 1025.412,1900.000 1015.622,1900.000 902.031 C 1900.000 800.525,1898.944 777.216,1893.788 764.872 C 1886.053 746.354,1871.259 730.314,1848.217 715.462 L 1830.434 704.000 1699.669 704.000 L 1568.904 704.000 1549.452 717.000 C 1538.753 724.150,1524.349 738.456,1517.442 748.790 L 1504.884 767.581 1501.890 842.790 C 1500.244 884.156,1500.029 943.144,1501.413 973.875 C 1503.750 1025.744,1504.727 1031.038,1515.051 1047.736 C 1528.836 1070.034,1555.551 1090.841,1578.157 1096.887 C 1600.098 1102.755,1600.000 1102.238,1600.000 1212.500 L 1600.000 1300.000 1450.000 1300.000 L 1300.000 1300.000 1300.000 900.375 L 1300.000 500.750 1357.715 499.375 C 1408.719 498.160,1416.743 497.028,1426.715 489.640 C 1437.716 481.491,1444.495 470.814,1449.693 453.451 C 1451.597 447.091,1445.846 435.314,1427.229 407.451 C 1401.809 369.408,1256.184 174.742,1238.713 155.451 C 1220.607 135.458,1200.201 130.773,1179.727 141.907 " fill="#1D1E23" stroke="none" fill-rule="evenodd"/></svg>