<svg viewBox="0 0 2400 2400" fill="none" xmlns="http://www.w3.org/2000/svg"><path d="M292.000 704.046 C 227.491 715.173,153.987 770.459,122.195 831.766 L 106.759 861.531 103.609 941.766 C 101.877 985.895,100.356 1147.550,100.230 1301.000 L 100.000 1580.000 177.510 1580.000 L 255.020 1580.000 257.087 1247.000 C 258.538 1013.250,260.522 909.552,263.744 899.076 C 269.309 880.981,287.538 866.233,312.632 859.521 C 328.464 855.287,333.623 855.545,348.559 861.322 C 358.152 865.033,372.691 873.903,380.870 881.034 L 395.739 894.000 398.481 1237.000 L 401.224 1580.000 478.612 1580.000 L 556.000 1580.000 556.268 1431.000 C 556.416 1349.050,557.907 1196.401,559.581 1091.780 C 562.998 878.322,561.945 885.372,593.006 867.915 C 625.158 849.845,668.167 860.495,689.945 891.921 L 700.000 906.430 700.000 1243.215 L 700.000 1580.000 778.000 1580.000 L 856.000 1580.000 856.000 1229.900 L 856.000 879.800 841.457 850.900 C 788.064 744.796,715.295 698.650,612.780 705.887 C 565.839 709.201,546.782 714.980,507.480 737.816 L 476.020 756.095 455.010 742.163 C 430.078 725.629,398.981 714.391,355.161 706.079 C 320.425 699.489,318.731 699.435,292.000 704.046 M964.597 762.786 C 933.900 777.910,919.704 825.509,938.377 850.699 C 965.299 887.017,1008.011 896.753,1040.437 873.963 C 1063.192 857.970,1077.577 830.472,1073.778 810.225 C 1065.940 768.446,1005.984 742.394,964.597 762.786 M1619.608 782.011 C 1565.826 792.730,1521.159 825.402,1496.155 872.315 L 1483.904 895.299 1484.952 1048.650 L 1486.000 1202.000 1538.000 1203.154 C 1566.600 1203.789,1593.777 1203.373,1598.393 1202.230 C 1606.662 1200.183,1606.820 1198.090,1609.035 1061.076 C 1610.346 979.988,1613.021 917.515,1615.450 911.243 C 1620.639 897.848,1630.891 892.209,1655.115 889.426 C 1682.139 886.322,1698.802 898.380,1708.392 927.983 C 1712.620 941.031,1719.855 953.427,1726.192 958.480 C 1740.231 969.674,1765.813 977.116,1779.741 974.057 C 1801.798 969.212,1820.000 939.405,1820.000 908.129 C 1820.000 848.231,1769.923 798.152,1693.930 782.055 C 1660.988 775.077,1654.422 775.073,1619.608 782.011 M2025.752 795.457 C 1990.682 804.691,1923.690 855.489,1900.591 890.363 C 1873.355 931.482,1862.089 996.388,1873.657 1045.547 C 1896.895 1144.306,1986.192 1217.109,2084.000 1217.036 C 2111.953 1217.016,2123.821 1214.854,2150.730 1204.884 C 2218.779 1179.669,2262.449 1136.069,2286.772 1069.058 C 2321.986 972.046,2277.805 867.186,2178.853 812.919 L 2147.707 795.837 2092.853 794.034 C 2062.684 793.043,2032.488 793.683,2025.752 795.457 M1270.000 803.588 C 1225.425 815.161,1162.742 869.788,1141.009 916.000 C 1112.360 976.919,1114.674 1032.869,1148.466 1096.269 C 1164.601 1126.541,1206.371 1166.301,1244.834 1187.998 L 1274.000 1204.451 1339.094 1202.936 C 1413.794 1201.198,1420.847 1198.537,1432.782 1167.588 C 1441.355 1145.358,1441.345 1130.645,1432.743 1108.201 C 1423.423 1083.886,1410.999 1077.829,1354.595 1070.104 C 1295.397 1061.996,1278.633 1055.627,1270.308 1038.084 C 1262.467 1021.560,1262.133 984.211,1269.666 966.183 C 1278.358 945.380,1289.935 940.349,1344.506 933.661 C 1400.850 926.756,1418.407 919.851,1429.763 900.133 C 1439.514 883.201,1440.669 847.178,1432.000 830.360 C 1418.988 805.116,1409.677 802.079,1342.717 801.236 C 1309.323 800.816,1276.600 801.874,1270.000 803.588 M948.475 926.583 L 932.938 942.121 930.191 1012.060 C 928.679 1050.527,928.018 1109.000,928.722 1142.000 L 930.000 1202.000 1001.054 1203.093 L 1072.108 1204.185 1071.054 1071.532 L 1070.000 938.878 1054.849 926.617 C 1040.807 915.254,1036.928 914.235,1001.855 912.701 L 964.013 911.046 948.475 926.583 M2120.319 941.295 C 2142.710 953.136,2151.647 968.647,2154.464 1000.556 C 2156.575 1024.473,2155.961 1027.002,2144.225 1042.706 C 2129.960 1061.794,2103.993 1076.000,2083.366 1076.000 C 2064.484 1076.000,2036.085 1060.484,2025.000 1044.111 C 2017.743 1033.392,2016.000 1025.272,2016.000 1002.186 C 2016.000 977.989,2017.536 971.472,2025.918 960.111 C 2041.458 939.048,2055.014 932.056,2080.371 932.026 C 2096.110 932.008,2107.952 934.755,2120.319 941.295 M1394.000 1310.719 C 1216.937 1315.999,1107.156 1330.631,1053.896 1356.050 C 984.894 1388.981,975.766 1446.720,1031.589 1497.153 C 1054.648 1517.985,1075.392 1528.870,1148.000 1558.233 C 1226.082 1589.811,1242.252 1597.675,1245.269 1605.537 C 1252.974 1625.615,1195.792 1630.990,1043.181 1624.534 C 978.731 1621.807,921.167 1618.654,915.261 1617.527 C 898.895 1614.406,891.312 1625.191,870.900 1680.618 C 844.872 1751.294,844.967 1750.728,858.665 1753.565 C 879.639 1757.910,1037.241 1763.988,1128.000 1763.953 C 1266.980 1763.898,1358.498 1753.059,1403.367 1731.338 C 1454.892 1706.395,1488.456 1635.861,1472.215 1586.651 C 1458.616 1545.445,1405.318 1514.949,1271.647 1471.891 C 1182.754 1443.257,1158.000 1431.487,1158.000 1417.858 C 1158.000 1402.067,1179.688 1399.707,1371.415 1394.642 C 1580.858 1389.108,1559.728 1394.453,1577.160 1342.606 L 1587.047 1313.201 1530.523 1310.615 C 1499.435 1309.193,1464.100 1308.393,1452.000 1308.837 C 1439.900 1309.282,1413.800 1310.128,1394.000 1310.719 M1668.000 1312.541 C 1668.000 1313.378,1662.544 1330.103,1655.876 1349.707 C 1649.208 1369.312,1645.158 1386.601,1646.876 1388.127 C 1648.594 1389.653,1677.508 1394.012,1711.129 1397.813 L 1772.258 1404.725 1817.129 1376.685 C 1841.808 1361.263,1870.100 1342.693,1880.000 1335.419 L 1898.000 1322.194 1877.118 1319.548 C 1852.863 1316.475,1668.000 1310.281,1668.000 1312.541 M1944.000 1370.077 C 1859.954 1403.828,1824.000 1420.124,1824.000 1424.466 C 1824.000 1426.113,1827.687 1428.631,1832.193 1430.061 C 1841.272 1432.943,1857.936 1428.295,1986.000 1387.167 L 2074.000 1358.906 2050.000 1349.659 C 2036.800 1344.574,2024.200 1340.401,2022.000 1340.386 C 2019.800 1340.372,1984.700 1353.732,1944.000 1370.077 M1992.000 1417.439 L 1862.000 1450.534 1859.889 1468.613 C 1858.728 1478.556,1854.705 1491.380,1850.950 1497.111 C 1826.668 1534.170,1718.013 1570.917,1610.339 1578.486 C 1589.252 1579.968,1572.000 1581.405,1572.000 1581.679 C 1572.000 1581.954,1558.500 1621.400,1542.000 1669.338 C 1525.500 1717.276,1512.000 1757.567,1512.000 1758.872 C 1512.000 1762.163,1655.986 1757.171,1712.000 1751.938 C 1896.238 1734.727,2058.795 1689.086,2143.875 1630.682 C 2171.376 1611.804,2223.851 1559.974,2232.370 1543.275 C 2249.072 1510.535,2239.205 1473.107,2204.263 1436.663 C 2183.152 1414.645,2138.698 1383.894,2128.380 1384.171 C 2124.871 1384.266,2063.500 1399.236,1992.000 1417.439 " fill="#1D1E23" stroke="none" fill-rule="evenodd"/></svg>