<svg viewBox="0 0 2400 2400" fill="none" xmlns="http://www.w3.org/2000/svg"><path d="M1179.562 129.000 C 1170.419 140.550,1103.729 228.750,1031.362 325.000 L 899.785 500.000 999.893 500.000 L 1100.000 500.000 1100.000 900.000 L 1100.000 1300.000 950.000 1300.000 L 800.000 1300.000 800.000 1196.674 L 800.000 1093.347 819.847 1080.487 C 847.952 1062.275,882.021 1022.790,898.041 989.861 C 958.653 865.271,881.654 715.338,742.000 686.018 C 706.910 678.650,693.090 678.650,658.000 686.018 C 511.150 716.849,435.375 880.185,509.703 1005.680 C 524.368 1030.440,557.952 1066.101,580.154 1080.488 L 600.000 1093.347 600.023 1201.674 C 600.036 1261.253,601.801 1320.800,603.946 1334.000 C 609.666 1369.206,632.628 1412.628,660.000 1440.000 C 687.372 1467.372,730.794 1490.334,766.000 1496.054 C 779.200 1498.199,859.750 1499.964,945.000 1499.977 L 1100.000 1500.000 1100.000 1653.263 L 1100.000 1806.527 1083.000 1815.995 C 1042.388 1838.613,999.822 1897.578,986.114 1950.209 C 959.187 2053.586,1023.945 2169.903,1129.136 2207.104 C 1168.387 2220.986,1225.099 2221.764,1266.000 2208.983 C 1400.434 2166.972,1461.442 2003.620,1386.457 1886.454 C 1370.913 1862.166,1332.386 1823.622,1313.471 1813.435 L 1300.000 1806.181 1300.000 1653.090 L 1300.000 1500.000 1455.000 1499.977 C 1540.250 1499.964,1620.800 1498.199,1634.000 1496.054 C 1669.206 1490.334,1712.628 1467.372,1740.000 1440.000 C 1767.372 1412.628,1790.334 1369.206,1796.054 1334.000 C 1798.199 1320.800,1799.964 1262.750,1799.977 1205.000 L 1800.000 1100.000 1850.000 1100.000 L 1900.000 1100.000 1900.000 900.000 L 1900.000 700.000 1700.000 700.000 L 1500.000 700.000 1500.000 900.000 L 1500.000 1100.000 1550.000 1100.000 L 1600.000 1100.000 1600.000 1200.000 L 1600.000 1300.000 1450.000 1300.000 L 1300.000 1300.000 1300.000 900.000 L 1300.000 500.000 1400.043 500.000 L 1500.086 500.000 1391.347 355.000 C 1252.425 169.751,1204.565 108.000,1199.913 108.000 C 1197.863 108.000,1188.705 117.450,1179.562 129.000 " fill="#1D1E23" stroke="none" fill-rule="evenodd"/></svg>