<svg viewBox="0 0 2400 2400" fill="none" xmlns="http://www.w3.org/2000/svg"><path d="M1179.751 128.761 C 1170.504 140.442,1103.729 228.750,1031.362 325.000 L 899.785 500.000 999.893 500.000 L 1100.000 500.000 1100.000 900.000 L 1100.000 1300.000 950.000 1300.000 L 800.000 1300.000 800.000 1197.000 L 800.000 1094.000 825.649 1075.017 C 885.569 1030.667,924.782 950.135,918.257 884.826 C 909.327 795.450,843.027 715.863,756.274 690.382 C 728.744 682.295,676.692 682.174,646.166 690.125 C 633.233 693.493,612.133 701.856,599.277 708.708 C 572.135 723.175,529.172 763.571,511.786 790.972 C 476.385 846.766,473.052 935.337,504.065 996.128 C 515.726 1018.984,550.695 1057.901,576.375 1076.602 L 600.000 1093.806 600.108 1187.903 C 600.255 1314.989,603.652 1347.183,620.624 1382.313 C 638.825 1419.987,680.122 1461.227,717.947 1479.503 C 754.412 1497.121,784.282 1499.598,963.000 1499.826 L 1100.000 1500.000 1100.000 1653.620 L 1100.000 1807.240 1082.601 1817.437 C 1042.932 1840.684,999.912 1901.974,986.341 1954.577 C 968.856 2022.350,992.593 2096.784,1049.937 2154.000 C 1095.677 2199.637,1135.919 2216.000,1202.419 2216.000 C 1250.545 2216.000,1282.824 2206.007,1323.128 2178.630 C 1399.687 2126.627,1435.810 2025.338,1408.945 1938.000 C 1395.082 1892.929,1360.735 1847.066,1320.303 1819.635 L 1300.206 1806.000 1300.103 1653.000 L 1300.000 1500.000 1437.000 1499.826 C 1615.737 1499.598,1645.600 1497.121,1682.013 1479.503 C 1721.132 1460.576,1758.142 1423.366,1777.963 1383.037 C 1796.800 1344.708,1799.399 1322.038,1799.748 1193.000 L 1800.000 1100.000 1850.000 1100.000 L 1900.000 1100.000 1900.000 900.000 L 1900.000 700.000 1700.000 700.000 L 1500.000 700.000 1500.000 900.000 L 1500.000 1100.000 1550.000 1100.000 L 1600.000 1100.000 1600.000 1200.000 L 1600.000 1300.000 1450.000 1300.000 L 1300.000 1300.000 1300.000 900.000 L 1300.000 500.000 1400.085 500.000 L 1500.170 500.000 1386.680 349.000 C 1266.034 188.478,1205.668 110.782,1200.024 108.761 C 1198.121 108.079,1188.999 117.079,1179.751 128.761 " fill="#1D1E23" stroke="none" fill-rule="evenodd"/></svg>