<svg viewBox="0 0 2400 2400" fill="none" xmlns="http://www.w3.org/2000/svg"><path d="M1276.000 281.524 C 1276.000 358.719,1276.468 364.000,1283.305 364.000 C 1307.267 364.000,1385.162 373.927,1428.000 382.440 C 1713.023 439.082,1937.621 650.621,2007.796 928.526 C 2014.333 954.410,2022.678 1004.543,2026.607 1041.526 L 2033.670 1108.000 2116.835 1108.000 L 2200.000 1108.000 2199.927 1075.000 C 2199.784 1010.939,2181.949 917.034,2153.394 830.000 C 2107.168 689.108,2042.958 583.301,1942.007 481.669 C 1769.946 308.448,1571.136 219.701,1315.000 201.778 L 1276.000 199.049 1276.000 281.524 M1276.915 612.422 L 1278.000 694.000 1306.000 696.887 C 1374.740 703.974,1415.682 715.686,1472.000 744.375 C 1595.974 807.529,1673.557 921.483,1693.378 1069.536 L 1698.260 1106.000 1781.739 1107.083 L 1865.219 1108.166 1862.690 1069.083 C 1856.561 974.359,1821.988 873.769,1767.099 790.965 C 1736.353 744.580,1654.748 662.349,1610.000 632.660 C 1522.408 574.544,1422.856 540.917,1316.915 533.659 L 1275.831 530.845 1276.915 612.422 M227.851 685.000 C 242.840 729.550,298.711 893.800,352.007 1050.000 C 405.304 1206.200,454.275 1349.779,460.834 1369.064 L 472.757 1404.127 580.947 1403.064 L 689.136 1402.000 825.928 1003.000 L 962.721 604.000 896.361 604.018 C 859.862 604.028,809.968 605.191,785.485 606.602 L 740.969 609.167 715.992 699.583 C 674.134 851.108,584.190 1165.143,582.031 1167.302 C 580.914 1168.419,579.190 1168.524,578.201 1167.534 C 576.125 1165.458,505.337 916.947,453.855 731.000 L 418.694 604.000 309.645 604.000 L 200.597 604.000 227.851 685.000 M1212.696 824.223 C 1184.572 829.238,1138.172 848.812,1107.655 868.537 C 1044.394 909.424,998.119 973.208,981.809 1042.000 C 974.187 1074.145,974.315 1151.668,982.040 1182.160 C 990.645 1216.125,1016.338 1266.323,1038.262 1292.000 C 1101.598 1366.182,1176.271 1401.198,1272.000 1401.607 C 1327.034 1401.842,1358.858 1394.639,1408.000 1370.824 C 1436.459 1357.032,1448.555 1347.799,1482.220 1314.173 C 1525.817 1270.628,1539.882 1248.385,1558.042 1194.268 C 1567.374 1166.455,1568.672 1156.325,1568.543 1112.268 C 1568.375 1054.722,1562.907 1029.114,1541.809 987.076 C 1522.791 949.181,1496.423 915.849,1464.545 889.407 C 1435.775 865.541,1376.832 834.700,1348.000 828.426 C 1320.881 822.524,1236.860 819.914,1212.696 824.223 M1322.000 976.531 C 1366.871 993.545,1404.083 1032.817,1412.311 1071.838 C 1419.739 1107.070,1415.506 1155.314,1403.135 1176.424 C 1389.256 1200.107,1354.595 1232.186,1330.000 1244.112 C 1313.166 1252.275,1303.985 1253.818,1271.996 1253.861 C 1238.613 1253.907,1231.263 1252.578,1211.558 1242.937 C 1186.285 1230.573,1153.634 1198.323,1139.442 1171.707 C 1131.159 1156.173,1130.000 1148.580,1130.000 1109.844 C 1130.000 1066.484,1130.252 1065.269,1144.000 1042.396 C 1183.559 976.579,1253.689 950.629,1322.000 976.531 M688.000 1866.000 L 688.000 2200.000 910.000 2200.000 L 1132.000 2200.000 1132.000 2138.000 L 1132.000 2076.000 992.000 2076.000 L 852.000 2076.000 852.000 1804.000 L 852.000 1532.000 770.000 1532.000 L 688.000 1532.000 688.000 1866.000 M1088.896 1593.000 L 1090.000 1654.000 1189.000 1655.070 L 1288.000 1656.140 1288.000 1928.070 L 1288.000 2200.000 1368.000 2200.000 L 1448.000 2200.000 1448.000 1928.069 L 1448.000 1656.137 1549.000 1655.069 L 1650.000 1654.000 1651.104 1593.000 L 1652.208 1532.000 1370.000 1532.000 L 1087.792 1532.000 1088.896 1593.000 M1736.000 1866.000 L 1736.000 2200.000 1968.000 2200.000 L 2200.000 2200.000 2200.000 2138.000 L 2200.000 2076.000 2050.000 2076.000 L 1900.000 2076.000 1900.000 1996.000 L 1900.000 1916.000 2026.000 1916.000 L 2152.000 1916.000 2152.000 1856.000 L 2152.000 1796.000 2026.000 1796.000 L 1900.000 1796.000 1900.000 1726.000 L 1900.000 1656.000 2050.000 1656.000 L 2200.000 1656.000 2200.000 1594.000 L 2200.000 1532.000 1968.000 1532.000 L 1736.000 1532.000 1736.000 1866.000 " fill="#1D1E23" stroke="none" fill-rule="evenodd"/></svg>