<svg viewBox="0 0 2400 2400" fill="none" xmlns="http://www.w3.org/2000/svg"><path d="M1276.916 280.582 L 1278.000 361.895 1298.000 364.541 C 1394.426 377.297,1424.765 382.510,1470.000 394.099 C 1753.103 466.623,1965.234 692.722,2015.705 975.737 C 2019.850 998.981,2025.445 1038.250,2028.139 1063.000 L 2033.037 1108.000 2116.518 1108.000 L 2200.000 1108.000 2200.000 1075.513 C 2200.000 1010.339,2179.959 911.164,2148.146 818.908 C 2101.384 683.301,2043.275 588.266,1946.156 488.563 C 1818.227 357.229,1674.281 273.983,1502.000 231.700 C 1450.892 219.157,1368.561 206.335,1310.916 201.942 L 1275.832 199.268 1276.916 280.582 M1276.917 612.893 L 1278.000 693.786 1324.072 700.222 C 1380.393 708.089,1419.493 719.636,1461.803 740.898 C 1546.932 783.679,1607.501 842.833,1647.238 922.000 C 1671.841 971.014,1682.978 1009.226,1695.038 1086.000 L 1698.180 1106.000 1781.695 1107.083 L 1865.210 1108.166 1862.653 1072.145 C 1856.067 979.356,1821.140 875.956,1769.725 797.034 C 1738.526 749.143,1650.149 660.696,1602.959 630.135 C 1530.314 583.090,1449.867 553.074,1362.000 540.229 C 1331.200 535.727,1299.213 532.034,1290.917 532.022 L 1275.834 532.000 1276.917 612.893 M261.785 785.000 C 295.583 884.550,356.708 1063.974,397.618 1183.720 C 438.528 1303.466,472.000 1402.045,472.000 1402.784 C 472.000 1403.524,520.856 1403.650,580.568 1403.064 L 689.136 1402.000 825.928 1003.000 L 962.721 604.000 908.361 604.015 C 878.462 604.023,828.662 605.188,797.694 606.605 L 741.388 609.181 694.554 774.501 C 622.809 1027.751,582.746 1164.000,580.025 1164.000 C 576.843 1164.000,541.451 1043.224,473.064 799.000 L 418.462 604.000 309.398 604.000 L 200.334 604.000 261.785 785.000 M1200.000 828.390 C 1153.072 837.551,1076.816 885.865,1040.786 929.265 C 998.284 980.461,980.674 1026.272,977.459 1094.000 C 974.636 1153.495,979.564 1184.530,998.001 1223.352 C 1035.700 1302.735,1093.826 1356.399,1173.338 1385.229 C 1202.020 1395.628,1212.831 1397.308,1262.048 1399.011 C 1328.152 1401.298,1352.319 1396.625,1403.106 1371.733 C 1428.560 1359.258,1444.925 1347.178,1473.901 1319.477 C 1520.089 1275.321,1537.739 1249.348,1555.061 1200.046 C 1568.255 1162.494,1568.406 1161.273,1566.712 1106.000 C 1565.414 1063.674,1562.946 1043.651,1556.604 1024.000 C 1526.647 931.186,1425.952 843.523,1331.738 828.236 C 1301.357 823.307,1225.587 823.396,1200.000 828.390 M1330.872 981.892 C 1357.585 994.113,1390.106 1024.527,1402.399 1048.788 C 1410.867 1065.498,1412.000 1073.124,1412.000 1113.411 L 1412.000 1159.088 1395.980 1183.079 C 1359.119 1238.278,1310.905 1260.892,1248.793 1252.112 C 1215.992 1247.476,1200.794 1239.456,1172.493 1211.849 C 1137.687 1177.896,1134.811 1170.756,1132.776 1113.240 C 1131.208 1068.932,1131.818 1063.238,1139.464 1050.868 C 1163.759 1011.557,1189.674 988.730,1224.875 975.631 C 1252.953 965.184,1300.488 967.991,1330.872 981.892 M688.000 1866.000 L 688.000 2200.000 910.000 2200.000 L 1132.000 2200.000 1132.000 2138.000 L 1132.000 2076.000 992.000 2076.000 L 852.000 2076.000 852.000 1804.000 L 852.000 1532.000 770.000 1532.000 L 688.000 1532.000 688.000 1866.000 M1088.896 1593.000 L 1090.000 1654.000 1189.000 1655.070 L 1288.000 1656.140 1288.000 1928.070 L 1288.000 2200.000 1368.000 2200.000 L 1448.000 2200.000 1448.000 1928.069 L 1448.000 1656.137 1549.000 1655.069 L 1650.000 1654.000 1651.104 1593.000 L 1652.208 1532.000 1370.000 1532.000 L 1087.792 1532.000 1088.896 1593.000 M1736.000 1866.000 L 1736.000 2200.000 1968.000 2200.000 L 2200.000 2200.000 2200.000 2138.000 L 2200.000 2076.000 2050.000 2076.000 L 1900.000 2076.000 1900.000 1996.000 L 1900.000 1916.000 2026.000 1916.000 L 2152.000 1916.000 2152.000 1856.000 L 2152.000 1796.000 2026.000 1796.000 L 1900.000 1796.000 1900.000 1726.000 L 1900.000 1656.000 2050.000 1656.000 L 2200.000 1656.000 2200.000 1594.000 L 2200.000 1532.000 1968.000 1532.000 L 1736.000 1532.000 1736.000 1866.000 " fill="#1D1E23" stroke="none" fill-rule="evenodd"/></svg>