<svg viewBox="0 0 2400 2400" fill="none" xmlns="http://www.w3.org/2000/svg"><path d="M664.177 210.059 C 641.706 220.214,624.901 235.042,613.089 255.136 C 602.469 273.202,601.940 276.642,600.593 336.441 L 599.186 398.882 540.593 401.664 C 475.661 404.748,436.744 411.366,413.444 423.285 C 387.171 436.724,356.592 463.720,338.535 489.415 C 304.828 537.381,307.013 517.186,303.202 816.000 C 301.336 962.300,300.380 1295.300,301.078 1556.000 C 302.512 2091.514,300.247 2054.447,334.643 2105.154 C 357.363 2138.650,386.186 2164.463,419.030 2180.730 C 443.706 2192.953,445.258 2193.177,529.030 2196.612 C 575.763 2198.528,731.900 2199.065,876.000 2197.806 C 1168.563 2195.248,1160.161 2196.074,1186.134 2167.325 C 1214.411 2136.026,1220.808 2099.065,1204.376 2061.918 C 1193.666 2037.706,1182.935 2025.794,1162.000 2014.880 C 1146.829 2006.970,1137.092 2006.367,974.000 2003.252 C 879.400 2001.445,748.656 1998.561,683.457 1996.842 L 564.914 1993.716 545.676 1981.822 C 532.363 1973.592,523.429 1964.082,516.668 1950.944 C 506.944 1932.048,506.884 1931.190,503.668 1764.980 C 501.891 1673.141,500.339 1440.950,500.219 1249.000 L 500.000 900.000 1199.673 900.000 L 1899.346 900.000 1900.692 1201.000 C 1902.034 1501.058,1902.066 1502.051,1910.730 1518.273 C 1921.333 1538.127,1946.744 1561.697,1966.399 1569.909 C 1985.144 1577.741,2016.181 1577.697,2035.128 1569.811 C 2043.308 1566.407,2057.794 1556.057,2067.321 1546.811 C 2100.880 1514.240,2097.864 1561.141,2099.115 1052.330 C 2099.797 775.052,2098.724 587.790,2096.356 570.704 C 2090.793 530.558,2072.444 495.643,2040.279 464.000 C 1992.990 417.478,1960.613 406.293,1859.630 401.590 L 1801.110 398.865 1799.007 338.433 C 1796.603 269.366,1791.541 251.450,1768.789 231.474 C 1745.215 210.775,1722.494 202.704,1694.193 204.976 C 1652.064 208.358,1617.355 232.491,1608.208 264.760 C 1605.521 274.242,1602.352 308.550,1601.166 341.000 L 1599.010 400.000 1200.079 400.000 L 801.149 400.000 799.074 339.000 C 796.329 258.271,789.129 240.842,748.701 217.064 C 726.671 204.107,684.990 200.652,664.177 210.059 M1909.620 1840.409 C 1902.801 1847.934,1901.870 1856.706,1900.763 1923.838 L 1899.527 1998.858 1714.763 2001.546 C 1476.638 2005.010,1480.437 2004.657,1454.449 2025.704 C 1424.919 2049.620,1419.352 2062.575,1420.807 2104.000 C 1421.785 2131.863,1423.660 2140.327,1431.196 2150.893 C 1446.185 2171.907,1474.621 2192.805,1493.087 2196.379 C 1502.389 2198.179,1597.750 2199.730,1705.000 2199.826 L 1900.000 2200.000 1900.059 2273.000 C 1900.140 2373.375,1905.775 2382.291,1950.271 2352.453 C 1990.790 2325.282,2224.352 2122.291,2232.401 2107.251 C 2234.935 2102.515,2234.874 2097.370,2232.224 2092.418 C 2223.230 2075.614,1990.067 1874.944,1942.071 1842.701 C 1922.871 1829.802,1919.451 1829.560,1909.620 1840.409 " fill="#1D1E23" stroke="none" fill-rule="evenodd"/></svg>