<svg viewBox="0 0 2400 2400" fill="none" xmlns="http://www.w3.org/2000/svg"><path d="M666.363 206.293 C 643.583 214.639,625.689 229.702,613.089 251.136 C 602.398 269.322,601.952 272.335,600.656 335.000 L 599.312 400.000 542.390 400.000 C 511.084 400.000,474.789 401.945,461.735 404.321 C 406.957 414.294,349.626 457.177,324.516 506.959 C 298.665 558.208,300.124 510.851,300.059 1300.803 C 300.017 1810.332,301.287 2025.778,304.420 2040.803 C 320.053 2115.765,384.235 2179.947,459.197 2195.580 C 473.664 2198.597,583.603 2200.000,805.484 2200.000 C 1171.681 2200.000,1154.892 2201.319,1186.105 2170.105 C 1225.746 2130.465,1225.286 2068.389,1185.063 2029.297 C 1154.179 1999.281,1162.251 2000.000,855.987 2000.000 C 550.739 2000.000,560.703 2000.913,529.895 1970.105 C 497.914 1938.125,500.000 1977.397,500.000 1407.287 L 500.000 900.000 1200.000 900.000 L 1900.000 900.000 1900.000 1196.536 C 1900.000 1419.466,1901.220 1497.159,1904.916 1509.536 C 1907.916 1519.585,1917.658 1534.049,1929.916 1546.656 C 1972.388 1590.337,2032.597 1589.205,2073.276 1543.961 C 2082.743 1533.430,2092.629 1517.673,2095.245 1508.943 C 2101.777 1487.140,2102.093 590.432,2095.580 559.197 C 2081.755 492.905,2033.261 437.781,1966.000 411.902 C 1945.070 403.849,1932.918 402.440,1871.000 400.888 L 1800.000 399.108 1800.000 342.267 C 1800.000 274.066,1794.810 254.599,1770.014 229.804 C 1728.068 187.857,1656.981 192.403,1621.197 239.319 C 1603.125 263.014,1600.048 278.080,1600.022 343.000 L 1600.000 400.000 1200.000 400.000 L 800.000 400.000 800.000 342.713 C 800.000 274.096,794.842 254.632,770.105 229.895 C 742.868 202.658,701.791 193.312,666.363 206.293 M1920.000 1831.106 C 1916.700 1832.172,1910.850 1835.788,1907.000 1839.142 C 1900.785 1844.556,1900.000 1853.914,1900.000 1922.620 L 1900.000 2000.000 1702.636 2000.000 C 1488.939 2000.000,1481.651 2000.639,1453.909 2021.798 C 1446.357 2027.558,1435.188 2040.760,1429.089 2051.136 C 1419.633 2067.222,1418.000 2074.417,1418.000 2100.000 C 1418.000 2125.583,1419.633 2132.778,1429.089 2148.864 C 1435.188 2159.240,1446.112 2172.255,1453.364 2177.786 C 1482.237 2199.808,1484.369 2200.000,1700.418 2200.000 L 1899.831 2200.000 1900.915 2278.573 L 1902.000 2357.145 1912.219 2364.771 C 1920.199 2370.725,1924.582 2371.540,1932.219 2368.491 C 1937.599 2366.343,2008.150 2307.732,2089.000 2238.245 C 2221.170 2124.651,2236.000 2110.703,2236.000 2099.988 C 2236.000 2089.265,2221.147 2075.337,2087.858 1961.071 C 2006.380 1891.221,1936.630 1832.968,1932.858 1831.620 C 1929.086 1830.271,1923.300 1830.040,1920.000 1831.106 " fill="#1D1E23" stroke="none" fill-rule="evenodd"/></svg>