<svg viewBox="0 0 2400 2400" fill="none" xmlns="http://www.w3.org/2000/svg"><path d="M375.974 503.514 C 347.738 512.731,323.766 533.085,309.448 560.000 C 302.288 573.458,301.955 598.638,300.829 1210.093 C 300.185 1559.943,301.196 1870.760,303.075 1900.797 C 306.323 1952.716,307.240 1956.924,321.678 1986.136 C 352.940 2049.391,411.584 2090.458,479.100 2096.373 C 529.219 2100.765,1649.858 2100.465,1698.848 2096.047 C 1721.314 2094.021,1744.971 2089.635,1751.420 2086.300 C 1768.336 2077.552,1791.123 2044.408,1796.633 2020.537 C 1802.989 1993.003,1796.430 1965.107,1777.556 1939.395 C 1762.321 1918.641,1754.632 1913.126,1732.094 1906.782 C 1723.289 1904.304,1504.113 1901.805,1148.000 1900.124 C 712.986 1898.071,574.422 1896.265,562.891 1892.499 C 544.831 1886.600,521.942 1867.359,513.451 1850.938 C 502.317 1829.407,500.269 1728.651,499.900 1184.000 C 499.701 890.300,498.070 629.588,496.275 604.641 C 493.332 563.748,491.863 557.649,481.351 542.691 C 461.167 513.974,406.357 493.597,375.974 503.514 M984.000 803.589 C 893.235 806.395,881.672 809.978,844.812 846.729 C 813.408 878.040,802.325 904.979,802.325 950.000 C 802.325 980.542,803.940 989.498,812.975 1009.073 C 826.721 1038.854,859.044 1070.964,891.639 1087.216 L 917.278 1100.000 1199.639 1099.997 L 1482.000 1099.994 1507.173 1088.085 C 1538.809 1073.119,1570.786 1041.534,1586.158 1010.070 C 1596.531 988.837,1597.825 982.064,1597.635 949.982 C 1597.456 919.646,1595.715 910.097,1586.824 890.676 C 1574.438 863.621,1542.653 830.861,1513.789 815.400 L 1494.000 804.800 1278.000 802.989 C 1159.200 801.992,1026.900 802.262,984.000 803.589 M1484.000 1303.589 C 1393.235 1306.395,1381.672 1309.978,1344.812 1346.729 C 1313.408 1378.040,1302.325 1404.979,1302.325 1450.000 C 1302.325 1480.542,1303.940 1489.498,1312.975 1509.073 C 1326.721 1538.854,1359.044 1570.964,1391.639 1587.216 L 1417.278 1600.000 1699.639 1599.997 L 1982.000 1599.994 2007.173 1588.085 C 2038.809 1573.119,2070.786 1541.534,2086.158 1510.070 C 2096.531 1488.837,2097.825 1482.064,2097.635 1449.982 C 2097.456 1419.646,2095.715 1410.097,2086.824 1390.676 C 2074.438 1363.621,2042.653 1330.861,2013.789 1315.400 L 1994.000 1304.800 1778.000 1302.989 C 1659.200 1301.992,1526.900 1302.262,1484.000 1303.589 " fill="#1D1E23" stroke="none" fill-rule="evenodd"/></svg>