<svg viewBox="0 0 2400 2400" fill="none" xmlns="http://www.w3.org/2000/svg"><path d="M666.363 206.293 C 643.583 214.639,625.689 229.702,613.089 251.136 C 602.398 269.322,601.952 272.335,600.656 335.000 L 599.312 400.000 542.390 400.000 C 511.084 400.000,474.789 401.945,461.735 404.321 C 406.957 414.294,349.626 457.177,324.516 506.959 C 298.665 558.208,300.124 510.851,300.059 1300.803 C 300.017 1810.332,301.287 2025.778,304.420 2040.803 C 320.327 2117.083,385.669 2181.384,462.000 2195.875 C 478.873 2199.078,564.991 2200.070,752.000 2199.215 C 1016.947 2198.005,1018.065 2197.965,1034.379 2189.236 C 1053.449 2179.031,1074.655 2156.197,1082.500 2137.419 C 1089.575 2120.488,1089.575 2079.512,1082.500 2062.581 C 1074.655 2043.803,1053.449 2020.969,1034.379 2010.764 C 1018.229 2002.123,1014.897 2001.972,796.000 2000.000 L 574.000 1998.000 554.995 1988.641 C 544.542 1983.493,530.643 1972.794,524.107 1964.865 C 498.676 1934.013,500.000 1964.639,500.000 1407.287 L 500.000 900.000 1200.000 900.000 L 1900.000 900.000 1900.022 1155.000 C 1900.037 1318.323,1901.532 1415.356,1904.182 1424.899 C 1910.297 1446.915,1931.501 1472.239,1953.149 1483.380 C 1993.162 1503.971,2038.975 1497.235,2070.014 1466.196 C 2101.790 1434.421,2100.000 1462.519,2100.000 995.484 C 2100.000 707.897,2098.642 573.883,2095.580 559.197 C 2081.755 492.905,2033.261 437.781,1966.000 411.902 C 1945.070 403.849,1932.918 402.440,1871.000 400.888 L 1800.000 399.108 1800.000 342.267 C 1800.000 274.066,1794.810 254.599,1770.014 229.804 C 1728.068 187.857,1656.981 192.403,1621.197 239.319 C 1603.125 263.014,1600.048 278.080,1600.022 343.000 L 1600.000 400.000 1200.000 400.000 L 800.000 400.000 800.000 342.713 C 800.000 274.096,794.842 254.632,770.105 229.895 C 742.868 202.658,701.791 193.312,666.363 206.293 M1790.000 1712.451 C 1625.353 1723.023,1483.107 1796.819,1403.592 1912.914 C 1366.492 1967.081,1334.767 2033.112,1332.773 2060.314 C 1329.183 2109.297,1365.044 2144.117,1418.872 2143.912 C 1463.461 2143.743,1487.113 2125.731,1526.000 2062.331 C 1579.259 1975.500,1661.071 1914.026,1758.000 1888.005 C 1806.246 1875.053,1879.225 1872.937,1928.053 1883.075 C 1970.567 1891.901,2014.958 1908.499,2048.000 1927.923 C 2072.039 1942.055,2124.000 1982.606,2124.000 1987.235 C 2124.000 1988.825,2102.400 2011.669,2076.000 2038.000 C 2034.585 2079.307,2028.000 2087.636,2028.000 2098.711 C 2028.000 2124.173,2026.722 2124.000,2214.890 2124.000 C 2378.667 2124.000,2384.252 2123.748,2392.000 2116.000 C 2399.752 2108.248,2400.000 2102.667,2400.000 1936.290 L 2400.000 1764.581 2389.371 1756.220 C 2382.534 1750.842,2375.757 1748.740,2370.371 1750.326 C 2365.767 1751.682,2336.800 1777.654,2306.000 1808.040 L 2250.000 1863.289 2223.313 1840.644 C 2113.550 1747.508,1958.485 1701.632,1790.000 1712.451 " fill="#1D1E23" stroke="none" fill-rule="evenodd"/></svg>