<svg viewBox="0 0 2400 2400" fill="none" xmlns="http://www.w3.org/2000/svg"><path d="M400.464 500C345.52 500 300.968 544.52 300.929 599.464L300 1900C300 2010 389 2100 500 2100H1700C1755.23 2100 1800 2055.23 1800 2000C1800 1944.77 1755.23 1900 1700 1900H600C545 1900 500 1855 500 1800V599.535C500 544.564 455.436 500 400.464 500Z" fill="#1D1E23"/><path d="M1450 1600C1367.16 1600 1300 1532.84 1300 1450 1300 1367.16 1367.16 1300 1450 1300H1950C2032.84 1300 2100 1367.16 2100 1450 2100 1532.84 2032.84 1600 1950 1600H1450ZM800 950C800 1032.84 867.157 1100 950 1100H1450C1532.84 1100 1600 1032.84 1600 950 1600 867.157 1532.84 800 1450 800H950C867.157 800 800 867.157 800 950Z" fill="#1D1E23"/></svg>