<svg viewBox="0 0 2400 2400" fill="none" xmlns="http://www.w3.org/2000/svg"><path d="M1900 400H1800V300C1800 244.772 1755.23 200 1700 200C1644.77 200 1600 244.772 1600 300V400H800V300C800 244.772 755.228 200 700 200C644.772 200 600 244.772 600 300V400H500C389 400 301 490 301 600L300 2000C300 2110 389 2200 500 2200H1004.49V2198.89C1052.62 2191.66 1089.52 2150.14 1089.52 2100C1089.52 2049.86 1052.62 2008.32 1004.49 2001.1V2000H600C545 2000 500 1955 500 1900V900H1900V1400.88L1900.13 1400.91C1902.79 1453.76 1946.49 1495.79 2000 1495.79C2055.23 1495.79 2100 1451.02 2100 1395.79V600C2100 490 2010 400 1900 400Z" fill="#1D1E23"/><path d="M2357.31 1756.57C2373.06 1740.82 2399.99 1751.98 2399.99 1774.25L2399.99 2098.69C2399.99 2112.5 2388.79 2123.69 2374.98 2123.69L2050.55 2123.68C2028.28 2123.68 2017.13 2096.76 2032.88 2081.01L2125.89 1987.99C1976.18 1838.28 1732.84 1838.28 1583.13 1987.99C1555.03 2016.09 1532.07 2047.6 1514.56 2081.17C1495.24 2118.19 1459.51 2146.3 1417.76 2146.3C1357.35 2146.3 1313.3 2090.23 1336.91 2034.63C1365.35 1967.67 1405.21 1899.63 1449.99 1854.85C1649.9 1654.93 2050.07 1663.98 2249.99 1863.9L2357.31 1756.57Z" fill="#1D1E23"/></svg>