<svg viewBox="0 0 2400 2400" fill="none" xmlns="http://www.w3.org/2000/svg"><path d="M664.177 210.059 C 641.706 220.214,624.901 235.042,613.089 255.136 C 602.469 273.202,601.940 276.642,600.593 336.441 L 599.186 398.882 540.593 401.664 C 475.661 404.748,436.744 411.366,413.444 423.285 C 387.171 436.724,356.592 463.720,338.535 489.415 C 304.828 537.381,307.013 517.186,303.202 816.000 C 301.336 962.300,300.380 1295.300,301.078 1556.000 C 302.248 1992.786,302.895 2031.866,309.324 2053.770 C 326.534 2112.414,379.120 2166.682,440.000 2188.628 L 466.000 2198.000 732.000 2198.000 C 975.511 2198.000,999.942 2197.399,1020.970 2190.897 C 1045.474 2183.319,1066.595 2165.783,1078.733 2142.937 C 1087.985 2125.523,1088.180 2074.839,1079.062 2057.699 C 1072.014 2044.451,1046.435 2019.725,1031.520 2011.743 C 1019.679 2005.406,880.963 2000.515,704.781 2000.222 L 571.561 2000.000 547.820 1983.878 C 534.763 1975.011,521.315 1962.410,517.937 1955.877 C 505.731 1932.274,503.716 1863.028,501.264 1383.000 L 498.798 900.000 1199.399 900.000 L 1900.000 900.000 1900.323 1093.000 C 1900.501 1199.150,1901.898 1319.642,1903.429 1360.760 L 1906.212 1435.520 1918.106 1450.181 C 1924.648 1458.244,1937.789 1470.474,1947.308 1477.359 C 1962.112 1488.065,1968.765 1490.082,1993.308 1491.302 C 2019.496 1492.605,2024.236 1491.563,2047.617 1479.365 C 2079.057 1462.962,2087.394 1452.215,2092.346 1421.714 C 2098.490 1383.859,2102.098 591.157,2096.253 563.122 C 2088.641 526.609,2069.622 492.955,2040.237 464.000 C 1993.038 417.493,1960.628 406.293,1859.630 401.590 L 1801.110 398.865 1799.007 338.433 C 1796.603 269.366,1791.541 251.450,1768.789 231.474 C 1745.215 210.775,1722.494 202.704,1694.193 204.976 C 1652.064 208.358,1617.355 232.491,1608.208 264.760 C 1605.521 274.242,1602.352 308.550,1601.166 341.000 L 1599.010 400.000 1200.079 400.000 L 801.149 400.000 799.074 339.000 C 796.329 258.271,789.129 240.842,748.701 217.064 C 726.671 204.107,684.990 200.652,664.177 210.059 M1744.000 1718.510 C 1644.365 1730.251,1533.451 1781.218,1462.482 1847.872 C 1392.885 1913.237,1327.296 2031.874,1334.148 2080.000 C 1338.816 2112.785,1381.179 2144.073,1420.771 2143.978 C 1455.552 2143.894,1480.719 2124.068,1530.594 2057.462 C 1627.393 1928.190,1728.664 1875.575,1870.000 1881.123 C 1929.354 1883.453,1970.232 1892.657,2014.623 1913.688 C 2046.975 1929.014,2097.350 1962.063,2111.287 1977.104 L 2120.574 1987.127 2095.287 2015.802 C 2027.719 2092.421,2027.528 2092.672,2028.779 2103.198 C 2029.662 2110.629,2033.320 2114.490,2042.000 2117.151 C 2048.600 2119.175,2127.382 2121.012,2217.072 2121.233 C 2378.288 2121.630,2380.240 2121.538,2388.646 2113.132 C 2396.967 2104.811,2397.191 2101.160,2399.140 1942.509 C 2401.377 1760.370,2400.881 1756.000,2377.947 1756.000 C 2364.065 1756.000,2351.454 1765.595,2294.000 1819.869 C 2244.847 1866.300,2251.622 1864.001,2225.018 1843.286 C 2168.385 1799.190,2116.325 1770.240,2054.000 1748.185 C 1986.418 1724.268,1963.047 1720.793,1856.000 1718.740 C 1802.100 1717.706,1751.700 1717.603,1744.000 1718.510 " fill="#1D1E23" stroke="none" fill-rule="evenodd"/></svg>