<svg viewBox="0 0 2400 2400" fill="none" xmlns="http://www.w3.org/2000/svg"><path d="M670.535 207.885 C 640.558 217.486,610.567 249.296,603.733 278.737 C 601.785 287.132,600.148 317.508,600.095 346.240 L 600.000 398.481 533.000 403.101 C 457.343 408.318,426.343 415.096,399.579 432.270 C 378.072 446.071,344.792 479.043,329.197 502.000 C 308.575 532.356,307.771 541.286,303.446 788.000 C 298.170 1088.901,301.207 2003.306,307.611 2042.000 C 310.600 2060.065,316.813 2077.682,325.122 2091.650 C 344.310 2123.908,385.909 2163.767,416.631 2179.330 C 442.607 2192.490,443.912 2192.706,518.472 2196.176 C 668.846 2203.174,1126.450 2197.517,1156.671 2188.287 C 1173.448 2183.162,1193.657 2161.998,1204.438 2138.262 C 1221.814 2100.006,1207.283 2046.528,1172.960 2022.404 C 1157.023 2011.203,1153.071 2010.366,1103.034 2007.579 C 1073.865 2005.955,942.000 2002.472,810.000 1999.840 C 546.312 1994.581,556.166 1995.658,531.212 1969.366 C 507.576 1944.463,507.684 1945.465,503.830 1714.376 C 501.882 1597.569,500.223 1366.550,500.144 1201.000 L 500.000 900.000 1199.673 900.000 L 1899.346 900.000 1900.673 1201.000 L 1902.000 1502.000 1912.922 1520.578 C 1938.793 1564.587,1983.596 1584.400,2028.833 1571.836 C 2036.991 1569.570,2053.530 1558.701,2065.586 1547.683 C 2084.455 1530.437,2088.236 1524.472,2092.753 1504.825 C 2096.919 1486.702,2098.000 1387.640,2098.000 1024.000 C 2098.000 586.839,2097.659 564.999,2090.508 544.000 C 2077.907 507.001,2055.848 476.376,2021.137 447.693 C 1983.335 416.455,1947.763 406.597,1855.563 401.808 L 1801.126 398.980 1798.794 340.490 C 1795.924 268.472,1792.234 254.883,1769.649 233.131 C 1729.442 194.409,1660.720 196.789,1624.394 238.162 C 1607.829 257.028,1604.221 273.094,1601.297 341.000 L 1598.756 400.000 1199.959 400.000 L 801.162 400.000 798.923 341.000 C 795.768 257.883,787.465 238.134,747.015 217.544 C 725.991 206.843,688.552 202.114,670.535 207.885 M1909.620 1840.420 C 1902.818 1847.935,1901.848 1856.886,1900.581 1923.752 L 1899.163 1998.664 1694.581 2002.792 C 1557.331 2005.562,1486.190 2008.454,1478.424 2011.580 C 1458.674 2019.530,1435.264 2040.782,1427.552 2057.761 C 1418.342 2078.037,1417.673 2118.686,1426.212 2139.128 C 1434.097 2158.003,1449.122 2173.829,1472.000 2187.357 L 1490.000 2198.000 1694.629 2199.230 L 1899.258 2200.461 1900.678 2275.230 C 1902.638 2378.490,1906.355 2383.093,1957.924 2346.124 C 2008.325 2309.992,2229.053 2117.450,2233.571 2105.675 C 2234.769 2102.554,2234.802 2097.532,2233.644 2094.515 C 2228.225 2080.392,2010.404 1892.252,1944.400 1844.684 C 1923.644 1829.725,1919.732 1829.246,1909.620 1840.420 " fill="#1D1E23" stroke="none" fill-rule="evenodd"/></svg>