<svg viewBox="0 0 2400 2400" fill="none" xmlns="http://www.w3.org/2000/svg"><path d="M677.328 203.647 C 642.660 212.424,611.127 242.885,603.733 274.737 C 601.785 283.132,600.148 314.504,600.095 344.454 L 600.000 398.908 531.000 401.078 C 452.357 403.550,433.995 407.756,396.747 431.831 C 362.740 453.811,337.967 480.911,321.586 514.051 C 308.820 539.879,307.427 546.377,304.002 596.051 C 299.557 660.526,299.212 1970.512,303.627 2020.900 C 306.131 2049.480,309.417 2061.329,321.774 2086.332 C 349.658 2142.751,407.155 2186.493,466.000 2196.054 C 492.936 2200.431,914.269 2201.498,981.882 2197.361 C 1021.324 2194.948,1026.554 2193.667,1043.100 2182.361 C 1071.214 2163.152,1084.471 2141.660,1086.875 2111.395 C 1087.984 2097.428,1086.918 2078.704,1084.504 2069.788 C 1078.652 2048.167,1056.276 2022.784,1033.237 2011.631 C 1014.637 2002.627,1012.808 2002.541,792.146 2000.279 L 569.798 1998.000 548.518 1984.339 C 513.387 1961.785,507.806 1949.668,503.778 1887.205 C 501.890 1857.942,500.268 1623.850,500.173 1367.000 L 500.000 900.000 1199.813 900.000 L 1899.626 900.000 1900.813 1163.000 C 1902.136 1456.158,1900.093 1435.518,1930.670 1464.559 C 1954.277 1486.980,1970.308 1493.728,2000.000 1493.746 C 2030.044 1493.764,2047.446 1486.670,2071.225 1464.712 C 2099.294 1438.792,2098.000 1461.832,2098.000 988.000 L 2098.000 562.000 2088.423 536.006 C 2083.155 521.709,2074.299 502.809,2068.741 494.006 C 2052.426 468.161,2018.302 438.265,1986.959 422.356 C 1954.394 405.826,1918.331 400.314,1841.419 400.108 L 1800.838 400.000 1799.200 337.000 C 1797.390 267.358,1794.107 254.723,1772.109 232.725 C 1739.256 199.872,1692.269 192.421,1652.983 213.835 C 1610.634 236.917,1600.000 263.170,1600.000 344.636 L 1600.000 400.000 1200.419 400.000 L 800.838 400.000 799.200 337.000 C 797.390 267.358,794.107 254.723,772.109 232.725 C 747.300 207.915,708.041 195.871,677.328 203.647 M1752.000 1716.100 C 1608.370 1735.925,1487.739 1801.103,1414.797 1898.293 C 1372.687 1954.401,1331.870 2038.954,1332.088 2069.626 C 1332.373 2109.839,1371.707 2144.040,1417.597 2143.978 C 1460.673 2143.919,1482.787 2127.493,1525.239 2064.023 C 1575.798 1988.433,1636.071 1936.099,1707.044 1906.166 C 1807.635 1863.742,1929.147 1868.311,2028.459 1918.251 C 2053.013 1930.598,2116.763 1975.526,2122.191 1984.310 C 2123.503 1986.432,2102.847 2010.532,2076.288 2037.866 C 2036.205 2079.119,2028.000 2089.615,2028.000 2099.641 C 2028.000 2121.812,2029.567 2122.000,2214.855 2122.000 C 2371.590 2122.000,2384.222 2121.488,2390.855 2114.860 C 2397.455 2108.266,2398.088 2094.680,2399.148 1936.860 C 2400.295 1766.250,2400.284 1765.990,2391.705 1759.000 C 2374.608 1745.070,2367.252 1749.285,2307.224 1807.412 L 2250.000 1862.825 2216.792 1836.007 C 2145.579 1778.497,2059.599 1740.270,1959.211 1721.486 C 1920.139 1714.175,1790.380 1710.802,1752.000 1716.100 " fill="#1D1E23" stroke="none" fill-rule="evenodd"/></svg>