<svg viewBox="0 0 2400 2400" fill="none" xmlns="http://www.w3.org/2000/svg"><path d="M1800 400H1900C2010 400 2100 490 2100 600V1478.35C2100 1533.58 2055.23 1578.35 2000 1578.35 1946.49 1578.35 1902.79 1536.32 1900.13 1483.46L1900 1483.43V900H500V1900C500 1955 545 2000 600 2000H1117.39C1171.76 2001 1215.53 2045.4 1215.53 2100 1215.53 2154.61 1171.75 2198.99 1117.38 2199.98L1115.53 2200H500C389 2200 300 2110 300 2000L301 600C301 490 389 400 500 400H600V300C600 244.772 644.772 200 700 200 755.228 200 800 244.772 800 300V400H1600V300C1600 244.772 1644.77 200 1700 200 1755.23 200 1800 244.772 1800 300V400ZM1899.99 2345.64V2200H1515.87C1460.64 2200 1415.87 2155.23 1415.87 2100 1415.87 2044.77 1460.64 2000 1515.87 2000H1899.99V1854.36C1899.99 1833 1925.05 1821.47 1941.26 1835.37L2227.85 2081.02C2239.49 2091 2239.49 2109 2227.85 2118.98L1941.26 2364.63C1925.05 2378.53 1899.99 2367 1899.99 2345.64Z" fill="#1D1E23"/></svg>