<svg viewBox="0 0 2400 2400" fill="none" xmlns="http://www.w3.org/2000/svg"><path d="M372.575 504.348 C 340.096 514.270,312.986 541.949,304.354 574.000 C 298.203 596.837,298.267 1911.297,304.420 1940.803 C 320.053 2015.765,384.235 2079.947,459.197 2095.580 C 474.141 2098.696,662.425 2100.000,1097.484 2100.000 C 1790.580 2100.000,1737.868 2102.343,1770.105 2070.105 C 1809.232 2030.979,1809.232 1969.021,1770.105 1929.895 C 1737.979 1897.768,1784.269 1900.000,1150.000 1900.000 C 515.731 1900.000,562.021 1902.232,529.895 1870.105 C 497.670 1837.880,500.022 1890.427,499.824 1198.287 C 499.635 532.451,500.776 567.505,478.333 538.081 C 455.789 508.524,408.392 493.406,372.575 504.348 M914.938 804.287 C 874.041 814.100,831.727 849.516,813.596 889.111 C 803.753 910.604,802.198 918.913,802.198 950.000 C 802.198 980.930,803.773 989.439,813.384 1010.418 C 827.528 1041.292,858.391 1072.063,890.000 1086.806 L 914.000 1098.000 1200.000 1098.000 L 1486.000 1098.000 1510.418 1086.715 C 1541.347 1072.421,1572.154 1041.456,1586.743 1010.000 C 1596.330 989.330,1597.869 981.004,1597.838 950.000 C 1597.807 918.958,1596.232 910.572,1586.404 889.111 C 1572.444 858.625,1541.311 827.920,1509.011 812.784 L 1486.000 802.000 1208.000 801.336 C 1053.598 800.968,923.303 802.280,914.938 804.287 M1414.938 1304.287 C 1374.041 1314.100,1331.727 1349.516,1313.596 1389.111 C 1303.753 1410.604,1302.198 1418.913,1302.198 1450.000 C 1302.198 1480.930,1303.773 1489.439,1313.384 1510.418 C 1327.528 1541.292,1358.391 1572.063,1390.000 1586.806 L 1414.000 1598.000 1700.000 1598.000 L 1986.000 1598.000 2010.418 1586.715 C 2041.347 1572.421,2072.154 1541.456,2086.743 1510.000 C 2096.330 1489.330,2097.869 1481.004,2097.838 1450.000 C 2097.807 1418.958,2096.232 1410.572,2086.404 1389.111 C 2072.444 1358.625,2041.311 1327.920,2009.011 1312.784 L 1986.000 1302.000 1708.000 1301.336 C 1553.598 1300.968,1423.303 1302.280,1414.938 1304.287 " fill="#1D1E23" stroke="none" fill-rule="evenodd"/></svg>