<svg viewBox="0 0 2400 2400" fill="none" xmlns="http://www.w3.org/2000/svg"><path d="M369.847 506.712 C 355.973 509.473,323.076 537.226,314.920 553.050 C 308.526 565.457,306.478 581.964,303.260 647.050 C 297.774 758.007,301.573 1904.858,307.547 1941.176 C 310.006 1956.123,315.484 1975.149,319.722 1983.454 C 338.255 2019.783,382.686 2060.907,427.244 2082.975 L 456.488 2097.458 999.244 2099.133 C 1507.229 2100.702,1697.813 2098.183,1737.740 2089.375 C 1755.037 2085.558,1782.109 2055.519,1791.946 2029.225 C 1799.164 2009.934,1799.778 2003.874,1796.204 1987.209 C 1787.296 1945.673,1764.291 1917.207,1735.273 1911.817 C 1708.950 1906.927,1518.526 1903.815,1019.039 1900.111 L 564.077 1896.738 543.539 1881.662 C 531.259 1872.647,520.616 1860.878,517.070 1852.390 C 507.940 1830.540,504.906 1719.373,502.270 1310.000 C 500.966 1107.600,498.803 856.587,497.463 752.194 L 495.027 562.387 472.189 539.549 C 442.423 509.783,408.733 498.973,369.847 506.712 M1020.000 808.007 C 881.898 810.952,880.674 811.242,845.422 849.318 C 815.798 881.315,807.052 901.493,804.790 943.055 C 802.075 992.942,807.624 1007.508,843.751 1045.321 C 860.386 1062.732,882.997 1082.141,893.998 1088.452 L 914.000 1099.925 1200.000 1099.925 L 1486.000 1099.925 1506.000 1088.401 C 1533.101 1072.785,1573.620 1031.340,1585.923 1006.652 C 1594.339 989.762,1595.996 980.791,1595.978 952.215 C 1595.965 933.397,1594.175 911.700,1592.000 904.000 C 1585.971 882.663,1554.118 845.696,1522.828 823.721 L 1494.745 804.000 1316.373 804.745 C 1218.268 805.155,1084.900 806.623,1020.000 808.007 M1520.000 1308.007 C 1381.898 1310.952,1380.674 1311.242,1345.422 1349.318 C 1315.798 1381.315,1307.052 1401.493,1304.790 1443.055 C 1302.075 1492.942,1307.624 1507.508,1343.751 1545.321 C 1360.386 1562.732,1382.997 1582.141,1393.998 1588.452 L 1414.000 1599.925 1700.000 1599.925 L 1986.000 1599.925 2006.000 1588.401 C 2033.101 1572.785,2073.620 1531.340,2085.923 1506.652 C 2094.339 1489.762,2095.996 1480.791,2095.978 1452.215 C 2095.965 1433.397,2094.175 1411.700,2092.000 1404.000 C 2085.971 1382.663,2054.118 1345.696,2022.828 1323.721 L 1994.745 1304.000 1816.373 1304.745 C 1718.268 1305.155,1584.900 1306.623,1520.000 1308.007 " fill="#1D1E23" stroke="none" fill-rule="evenodd"/></svg>