<svg viewBox="0 0 2400 2400" fill="none" xmlns="http://www.w3.org/2000/svg"><path d="M364.509 508.306 C 349.092 514.478,325.125 535.235,315.574 550.689 C 307.463 563.814,306.375 572.641,303.145 651.536 C 301.199 699.091,300.253 1006.200,301.044 1334.000 C 302.627 1990.225,301.087 1950.722,326.839 1995.362 C 344.450 2025.889,383.381 2061.279,418.397 2078.593 L 449.555 2094.000 583.778 2096.555 C 786.279 2100.409,1571.607 2100.175,1656.196 2096.235 C 1705.073 2093.959,1735.166 2090.785,1744.383 2086.934 C 1767.436 2077.301,1791.892 2042.708,1797.487 2011.819 C 1800.706 1994.047,1790.722 1959.064,1776.971 1939.935 C 1758.073 1913.645,1751.189 1910.798,1698.250 1907.378 C 1671.712 1905.664,1405.624 1902.536,1106.941 1900.428 L 563.883 1896.595 543.385 1881.549 C 505.361 1853.637,507.390 1869.850,503.673 1564.191 C 501.892 1417.786,500.161 1190.000,499.826 1058.000 C 499.491 926.000,498.043 761.004,496.608 691.342 L 494.000 564.684 481.836 547.380 C 464.524 522.751,427.308 503.910,396.651 504.254 C 384.193 504.393,369.729 506.217,364.509 508.306 M970.000 807.779 C 884.566 810.481,880.329 811.957,842.292 852.279 C 811.329 885.102,804.000 904.850,804.000 955.463 C 804.000 982.178,805.860 993.317,812.672 1007.389 C 824.072 1030.937,864.393 1071.583,892.000 1087.356 L 914.000 1099.925 1200.000 1099.925 L 1486.000 1099.925 1507.935 1087.348 C 1537.059 1070.648,1572.496 1034.650,1585.953 1008.092 C 1596.168 987.934,1596.747 983.976,1595.369 943.722 C 1593.924 901.501,1593.661 900.480,1578.510 878.482 C 1561.046 853.126,1539.696 832.705,1512.851 815.680 L 1494.434 804.000 1268.217 804.751 C 1143.798 805.164,1009.600 806.527,970.000 807.779 M1470.000 1307.779 C 1384.566 1310.481,1380.329 1311.957,1342.292 1352.279 C 1311.329 1385.102,1304.000 1404.850,1304.000 1455.463 C 1304.000 1482.178,1305.860 1493.317,1312.672 1507.389 C 1324.072 1530.937,1364.393 1571.583,1392.000 1587.356 L 1414.000 1599.925 1700.000 1599.925 L 1986.000 1599.925 2007.935 1587.348 C 2037.059 1570.648,2072.496 1534.650,2085.953 1508.092 C 2096.168 1487.934,2096.747 1483.976,2095.369 1443.722 C 2093.924 1401.501,2093.661 1400.480,2078.510 1378.482 C 2061.046 1353.126,2039.696 1332.705,2012.851 1315.680 L 1994.434 1304.000 1768.217 1304.751 C 1643.798 1305.164,1509.600 1306.527,1470.000 1307.779 " fill="#1D1E23" stroke="none" fill-rule="evenodd"/></svg>