<svg viewBox="0 0 2400 2400" fill="none" xmlns="http://www.w3.org/2000/svg"><path d="M675.282 205.641 C 642.569 214.343,612.891 242.970,604.415 274.000 C 602.011 282.800,600.035 314.471,600.022 344.380 L 600.000 398.759 534.611 401.440 C 435.853 405.487,408.461 415.256,359.708 463.813 C 331.902 491.508,315.252 520.262,307.486 554.000 C 301.656 579.327,297.666 1913.585,303.167 1998.193 C 306.484 2049.198,308.009 2056.874,319.685 2081.340 C 335.196 2113.841,372.701 2155.264,401.396 2171.586 C 449.710 2199.069,433.927 2198.045,802.000 2197.589 C 1040.933 2197.294,1138.669 2195.875,1150.655 2192.528 C 1175.514 2185.587,1206.021 2150.800,1211.843 2122.756 C 1223.294 2067.598,1186.637 2012.107,1134.798 2006.125 C 1123.359 2004.805,994.300 2002.081,848.000 2000.071 C 701.700 1998.062,575.036 1994.665,566.523 1992.523 C 546.541 1987.493,524.685 1969.663,514.539 1950.112 C 507.312 1936.186,506.219 1923.486,503.539 1822.325 C 501.902 1760.546,500.437 1527.750,500.282 1305.000 L 500.000 900.000 1199.791 900.000 L 1899.582 900.000 1900.791 1201.000 C 1901.996 1501.071,1902.027 1502.050,1910.679 1518.212 C 1929.881 1554.079,1965.822 1577.445,2002.000 1577.583 C 2037.087 1577.717,2073.599 1552.011,2093.452 1513.199 C 2099.405 1501.560,2100.000 1458.106,2100.000 1034.825 C 2100.000 590.649,2099.657 568.254,2092.529 547.536 C 2078.962 508.105,2065.053 485.902,2038.152 460.737 C 1990.044 415.735,1958.506 404.873,1865.548 401.293 L 1801.097 398.811 1799.066 336.406 C 1796.701 263.711,1793.413 252.965,1766.210 229.021 C 1742.429 208.087,1726.244 202.744,1692.408 204.656 C 1670.397 205.900,1661.853 208.544,1645.095 219.297 C 1633.847 226.515,1621.789 236.779,1618.299 242.105 C 1606.058 260.788,1600.000 296.121,1600.000 348.840 L 1600.000 400.000 1200.567 400.000 L 801.135 400.000 798.996 337.000 C 796.661 268.235,793.864 256.655,774.755 236.643 C 748.428 209.072,708.805 196.723,675.282 205.641 M1908.290 1842.539 C 1900.593 1852.325,1900.000 1858.286,1900.000 1925.892 L 1900.000 1998.706 1701.000 2001.469 C 1591.550 2002.988,1495.176 2005.321,1486.835 2006.653 C 1469.666 2009.395,1435.673 2037.294,1425.477 2057.011 C 1416.898 2073.601,1416.627 2126.040,1425.036 2142.207 C 1433.420 2158.326,1465.008 2187.158,1482.113 2194.305 C 1493.294 2198.977,1532.062 2200.000,1697.872 2200.000 L 1900.000 2200.000 1900.000 2275.110 C 1900.000 2402.678,1896.622 2403.219,2079.090 2246.420 C 2189.007 2151.964,2236.000 2108.490,2236.000 2101.257 C 2236.000 2092.609,2215.712 2072.441,2144.758 2010.551 C 1998.945 1883.367,1934.718 1832.000,1921.507 1832.000 C 1918.798 1832.000,1912.850 1836.743,1908.290 1842.539 " fill="#1D1E23" stroke="none" fill-rule="evenodd"/></svg>