<svg viewBox="0 0 2400 2400" fill="none" xmlns="http://www.w3.org/2000/svg"><path d="M675.282 205.641 C 642.569 214.343,612.891 242.970,604.415 274.000 C 602.011 282.800,600.035 314.471,600.022 344.380 L 600.000 398.759 534.611 401.440 C 435.853 405.487,408.461 415.256,359.708 463.813 C 331.902 491.508,315.252 520.262,307.486 554.000 C 301.656 579.327,297.666 1913.585,303.167 1998.193 C 306.506 2049.546,307.960 2056.781,320.041 2082.193 C 329.340 2101.750,341.679 2118.417,361.631 2138.369 C 397.821 2174.559,430.150 2190.758,476.920 2196.136 C 519.935 2201.082,952.023 2201.086,995.030 2196.141 C 1034.865 2191.561,1057.786 2177.997,1074.906 2148.872 C 1084.394 2132.733,1086.000 2125.613,1086.000 2099.705 C 1086.000 2072.968,1084.578 2067.107,1073.894 2049.810 C 1066.385 2037.653,1054.357 2025.615,1042.216 2018.106 C 1023.019 2006.232,1021.336 2005.950,954.322 2003.400 C 916.745 2001.970,815.629 2000.620,729.620 2000.400 L 573.240 2000.000 548.359 1983.919 C 508.336 1958.051,507.104 1953.487,503.548 1818.000 C 501.932 1756.400,500.472 1524.650,500.304 1303.000 L 500.000 900.000 1199.652 900.000 L 1899.304 900.000 1901.032 1159.000 C 1902.250 1341.555,1904.143 1422.294,1907.444 1432.549 C 1912.926 1449.581,1942.083 1477.936,1963.175 1486.749 C 1997.099 1500.923,2038.782 1492.511,2071.380 1464.913 C 2097.628 1442.692,2096.823 1456.511,2098.968 991.384 C 2100.771 600.293,2100.437 571.361,2093.892 551.384 C 2080.689 511.084,2065.414 486.240,2038.167 460.752 C 1990.043 415.734,1958.514 404.874,1865.548 401.293 L 1801.097 398.811 1799.066 336.406 C 1796.701 263.711,1793.413 252.965,1766.210 229.021 C 1742.429 208.087,1726.244 202.744,1692.408 204.656 C 1670.397 205.900,1661.853 208.544,1645.095 219.297 C 1633.847 226.515,1621.789 236.779,1618.299 242.105 C 1606.058 260.788,1600.000 296.121,1600.000 348.840 L 1600.000 400.000 1200.567 400.000 L 801.135 400.000 798.996 337.000 C 796.661 268.235,793.864 256.655,774.755 236.643 C 748.428 209.072,708.805 196.723,675.282 205.641 M1698.000 1726.378 C 1583.999 1752.874,1483.549 1812.086,1423.697 1888.072 C 1377.897 1946.216,1337.889 2023.875,1333.451 2063.244 C 1327.610 2115.062,1388.143 2156.199,1446.281 2139.921 C 1469.912 2133.305,1493.296 2110.478,1530.029 2058.168 C 1606.902 1948.697,1699.443 1891.233,1816.387 1880.351 C 1888.546 1873.637,1961.965 1886.445,2022.000 1916.221 C 2058.773 1934.460,2120.000 1977.978,2120.000 1985.876 C 2120.000 1988.812,2103.274 2008.941,2082.832 2030.607 C 2036.025 2080.216,2028.000 2090.758,2028.000 2102.638 C 2028.000 2120.390,2038.429 2121.485,2210.000 2121.752 C 2298.000 2121.888,2374.751 2120.666,2380.559 2119.035 C 2386.366 2117.404,2392.544 2112.904,2394.288 2109.035 C 2398.208 2100.336,2401.770 1792.692,2398.173 1773.518 C 2394.674 1754.863,2381.824 1748.783,2364.658 1757.660 C 2357.810 1761.201,2329.884 1785.676,2302.600 1812.049 C 2275.316 1838.422,2251.420 1859.987,2249.497 1859.972 C 2247.573 1859.956,2232.711 1849.358,2216.470 1836.419 C 2154.981 1787.436,2084.437 1753.034,2000.064 1730.885 C 1955.294 1719.133,1951.023 1718.756,1848.000 1717.472 C 1745.995 1716.201,1740.342 1716.537,1698.000 1726.378 " fill="#1D1E23" stroke="none" fill-rule="evenodd"/></svg>