<svg viewBox="0 0 2400 2400" fill="none" xmlns="http://www.w3.org/2000/svg"><path d="M1120.000 204.325 C 1039.097 212.178,939.626 233.421,866.850 258.388 C 808.896 278.270,705.658 330.124,651.081 366.765 C 498.953 468.897,370.983 614.780,298.173 769.074 C 253.109 864.570,224.570 962.125,209.423 1072.449 C 199.346 1145.848,200.261 1269.158,211.423 1342.000 C 235.344 1498.101,289.370 1636.887,374.919 1762.000 C 412.532 1817.007,430.312 1838.403,485.798 1895.428 C 604.931 2017.866,727.771 2095.005,887.982 2147.984 C 999.234 2184.773,1064.471 2195.146,1192.562 2196.416 C 1267.696 2197.160,1271.757 2196.803,1285.647 2188.218 C 1345.958 2150.944,1340.419 2048.864,1276.311 2016.159 C 1257.566 2006.596,1249.359 2005.306,1160.000 1997.878 C 1032.757 1987.300,945.408 1965.126,854.000 1920.196 C 593.009 1791.911,429.596 1549.877,403.750 1253.326 C 393.704 1138.057,417.062 1000.790,466.365 885.360 C 541.418 709.644,675.795 569.021,850.000 483.893 C 947.603 436.198,1039.583 411.544,1146.000 404.554 C 1293.452 394.868,1427.946 422.210,1560.000 488.717 C 1716.832 567.704,1835.481 687.375,1915.782 847.565 C 1966.012 947.769,1985.470 1024.999,1998.072 1174.196 C 2005.020 1256.444,2008.405 1270.360,2026.652 1291.677 C 2070.078 1342.412,2153.452 1339.602,2185.981 1286.308 L 2198.000 1266.616 2197.732 1200.308 C 2197.425 1124.393,2191.513 1065.837,2177.509 1000.000 C 2125.429 755.159,1997.079 551.417,1803.238 405.881 C 1748.611 364.867,1699.380 335.216,1630.000 301.541 C 1541.496 258.584,1467.100 234.667,1364.891 216.313 C 1324.102 208.988,1299.257 207.039,1188.000 202.433 C 1169.300 201.658,1138.700 202.510,1120.000 204.325 M1133.008 712.175 C 1123.663 716.934,1110.613 727.651,1104.008 735.990 L 1092.000 751.151 1092.399 938.576 C 1092.619 1041.659,1093.969 1162.366,1095.399 1206.813 L 1098.000 1287.627 1114.000 1304.196 C 1134.711 1325.643,1191.755 1363.207,1329.283 1445.959 L 1440.565 1512.919 1477.283 1477.292 C 1497.477 1457.697,1521.857 1435.090,1531.461 1427.054 L 1548.922 1412.443 1535.461 1404.153 C 1528.057 1399.594,1459.450 1358.546,1383.000 1312.937 L 1244.000 1230.010 1243.857 1028.005 C 1243.711 821.587,1240.957 757.355,1231.406 737.604 C 1224.545 723.419,1195.765 708.482,1169.888 705.678 C 1154.393 703.999,1146.246 705.434,1133.008 712.175 M1712.000 1444.319 C 1692.569 1455.824,1520.872 1629.184,1515.865 1642.355 C 1512.672 1650.754,1513.273 1655.348,1518.638 1663.540 C 1522.406 1669.293,1566.103 1714.600,1615.744 1764.221 C 1702.969 1851.413,1726.956 1870.644,1736.533 1861.067 C 1744.197 1853.403,1747.809 1826.062,1747.905 1775.000 L 1748.000 1724.000 1983.000 1723.762 C 2112.250 1723.630,2226.661 1722.099,2237.247 1720.358 C 2274.078 1714.302,2293.072 1692.192,2295.223 1652.872 C 2296.485 1629.785,2295.362 1624.041,2287.251 1612.095 C 2267.661 1583.243,2261.936 1581.592,2171.368 1578.657 C 2126.616 1577.207,2013.239 1576.016,1919.419 1576.011 L 1748.838 1576.000 1747.419 1512.613 C 1745.650 1433.604,1741.996 1426.559,1712.000 1444.319 M2061.620 1868.408 C 2054.963 1875.752,2053.839 1884.531,2052.726 1937.866 L 2051.453 1998.917 1801.922 2000.779 L 1552.391 2002.641 1536.328 2013.773 C 1519.863 2025.183,1499.980 2058.050,1500.022 2073.785 C 1500.102 2103.169,1519.645 2133.150,1543.257 2140.114 C 1552.466 2142.829,1649.492 2145.898,1801.723 2148.287 C 1935.771 2150.391,2045.949 2152.616,2046.564 2153.231 C 2047.179 2153.845,2048.831 2176.770,2050.236 2204.174 C 2053.102 2260.085,2057.633 2283.343,2066.309 2286.672 C 2069.548 2287.915,2079.804 2283.980,2089.099 2277.928 C 2111.802 2263.145,2279.281 2094.412,2284.267 2081.298 C 2287.286 2073.356,2286.652 2068.538,2281.563 2060.772 C 2270.857 2044.432,2102.568 1877.446,2087.628 1868.338 C 2070.847 1858.108,2070.955 1858.108,2061.620 1868.408 " fill="#1D1E23" stroke="none" fill-rule="evenodd"/></svg>