<svg viewBox="0 0 2400 2400" fill="none" xmlns="http://www.w3.org/2000/svg"><path d="M1199 200C647 200 200 648 200 1200C200 1752 647 2200 1199 2200C1217.17 2200 1235.22 2199.52 1253.15 2198.56C1311.87 2195.43 1343.38 2132.06 1326.18 2075.83C1312.48 2031.08 1270.02 1998.34 1223.23 1999.67C1215.51 1999.89 1207.77 2000 1200 2000C758 2000 400 1642 400 1200C400 758 758 400 1200 400C1642 400 2000 758 2000 1200C2000 1207.76 1999.89 1215.5 1999.67 1223.21C1998.34 1270.01 2031.09 1312.48 2075.86 1326.18C2132.11 1343.4 2195.53 1311.86 2198.61 1253.1C2199.53 1235.52 2200 1217.81 2200 1200C2200 648 1752 200 1199 200Z" fill="#1D1E23"/><path d="M1163.94 702.09H1169.94C1209.94 702.09 1241.94 734.09 1241.94 774.09V1228.09L1551.09 1411.82C1510.62 1440.8 1473.9 1474.68 1441.81 1512.61L1140.94 1332.09C1109.94 1314.09 1091.94 1281.09 1091.94 1246.09V774.09C1091.94 734.09 1123.94 702.09 1163.94 702.09ZM1900 1400C1624 1400 1400 1624 1400 1900 1400 2176 1624 2400 1900 2400 2176 2400 2400 2176 2400 1900 2400 1624 2176 1400 1900 1400Z" fill="#1D1E23"/></svg>