<svg viewBox="0 0 2400 2400" fill="none" xmlns="http://www.w3.org/2000/svg"><path d="M1100.000 206.614 C 1026.670 217.794,1001.490 222.551,952.000 234.578 C 877.338 252.722,832.730 269.501,755.272 308.575 C 650.651 361.351,577.806 413.894,495.689 495.811 C 359.555 631.613,277.218 775.345,232.187 955.791 C 214.466 1026.802,207.181 1076.272,204.476 1143.961 C 196.985 1331.419,226.785 1479.348,303.998 1638.000 C 350.566 1733.685,400.369 1805.744,472.137 1881.279 C 594.594 2010.163,724.654 2093.131,889.475 2147.508 C 1008.492 2186.773,1079.925 2197.545,1206.325 2195.290 C 1277.996 2194.012,1278.779 2193.902,1292.916 2183.109 C 1339.456 2147.576,1337.265 2062.254,1288.865 2025.338 C 1269.196 2010.336,1249.824 2005.876,1178.000 1999.813 C 1017.315 1986.249,916.329 1957.519,806.000 1893.980 C 583.500 1765.841,440.281 1547.714,408.190 1288.105 C 402.079 1238.672,403.067 1142.967,410.216 1091.710 C 451.382 796.562,645.762 556.280,928.972 450.453 C 1115.018 380.933,1343.729 389.453,1524.560 472.641 C 1709.448 557.694,1841.509 688.544,1926.912 871.302 C 1965.981 954.907,1982.308 1022.715,1995.944 1158.000 C 2000.600 1204.200,2006.096 1248.300,2008.156 1256.000 C 2026.861 1325.911,2120.874 1351.893,2172.569 1301.438 C 2200.828 1273.857,2201.936 1267.656,2196.622 1166.894 C 2191.464 1069.080,2183.447 1015.805,2162.397 939.440 C 2089.258 674.107,1922.839 461.837,1684.747 330.190 C 1523.281 240.911,1368.895 202.900,1174.419 204.545 C 1138.989 204.844,1105.500 205.776,1100.000 206.614 M1133.326 714.047 C 1121.955 719.736,1107.771 730.790,1101.805 738.611 L 1090.960 752.830 1093.174 1007.415 C 1094.743 1187.777,1096.794 1266.989,1100.210 1279.114 C 1106.019 1299.736,1125.536 1318.025,1180.000 1353.887 C 1266.247 1410.676,1514.534 1556.503,1565.908 1580.544 C 1596.066 1594.657,1606.743 1593.836,1632.116 1575.456 C 1664.878 1551.724,1672.955 1508.306,1649.321 1482.973 C 1632.991 1465.469,1577.855 1430.215,1400.740 1324.030 L 1244.000 1230.059 1243.905 1036.030 C 1243.799 818.343,1240.506 752.108,1229.000 736.232 C 1220.045 723.876,1191.887 709.524,1170.000 706.161 C 1157.455 704.234,1149.535 705.937,1133.326 714.047 M2127.937 1512.506 C 2118.442 1519.384,2094.682 1540.427,2075.136 1559.270 L 2039.598 1593.528 2122.731 1676.732 L 2205.864 1759.936 2233.222 1732.968 C 2263.692 1702.932,2299.902 1657.029,2299.962 1648.363 C 2300.117 1625.638,2174.955 1500.000,2152.160 1500.000 C 2148.332 1500.000,2137.432 1505.627,2127.937 1512.506 M1744.988 1889.012 L 1500.000 2134.024 1500.000 2217.012 L 1500.000 2300.000 1583.012 2300.000 L 1666.024 2300.000 1911.988 2054.012 L 2157.951 1808.024 2076.012 1726.012 C 2030.946 1680.905,1993.151 1644.000,1992.024 1644.000 C 1990.898 1644.000,1879.731 1754.255,1744.988 1889.012 " fill="#1D1E23" stroke="none" fill-rule="evenodd"/></svg>