<svg viewBox="0 0 2400 2400" fill="none" xmlns="http://www.w3.org/2000/svg"><path d="M1500 200C1500 144.772 1455.23 100 1400 100H1000C944.772 100 900 144.772 900 200C900 255.228 944.772 300 1000 300H1400C1455.23 300 1500 255.228 1500 200ZM1100 1300C1100 1355.23 1144.77 1400 1200 1400C1255.23 1400 1300 1355.23 1300 1300V900C1300 844.772 1255.23 800 1200 800C1144.77 800 1100 844.772 1100 900V1300ZM1903 739L1973.99 668.006C2014.15 627.853 2017.16 562.953 1977.09 522.713C1937.36 482.818 1873.62 486.375 1833.81 526.186L1762 598C1607 474 1412 400 1200 400C703 400 300 803 300 1300C300 1797 702 2200 1200 2200C1698 2200 2100 1797 2100 1300C2100 1088 2026 893 1903 739ZM1200 2000C813 2000 500 1687 500 1300C500 913 813 600 1200 600C1587 600 1900 913 1900 1300C1900 1687 1587 2000 1200 2000Z" fill="#1D1E23"/></svg>