<svg viewBox="0 0 2400 2400" fill="none" xmlns="http://www.w3.org/2000/svg"><path d="M1132.000 202.501 C 963.619 218.370,823.465 261.951,694.000 338.697 C 532.500 434.433,389.311 586.331,307.799 748.386 C 200.285 962.137,172.771 1215.287,231.964 1446.120 C 286.713 1659.624,403.905 1840.846,578.000 1981.218 C 671.413 2056.535,771.162 2110.532,885.372 2147.604 C 999.683 2184.709,1068.265 2196.002,1184.989 2196.941 L 1271.138 2197.634 1287.535 2186.783 C 1314.577 2168.887,1325.757 2147.934,1327.387 2112.091 C 1328.994 2076.775,1324.174 2062.324,1302.457 2037.352 C 1278.248 2009.515,1263.431 2004.759,1185.903 1999.939 C 1041.725 1990.977,948.205 1968.165,846.291 1917.100 C 591.060 1789.213,427.511 1545.569,403.192 1257.000 C 390.163 1102.392,432.205 925.223,514.012 790.000 C 684.682 507.888,1005.793 358.948,1329.502 411.753 C 1547.203 447.265,1741.197 571.911,1862.162 754.000 C 1951.163 887.972,1988.834 1007.142,1999.762 1189.281 C 2004.118 1261.887,2009.567 1278.294,2037.352 1302.457 C 2060.454 1322.548,2075.372 1328.000,2107.242 1328.000 C 2140.811 1328.000,2163.997 1317.243,2182.447 1293.109 C 2193.068 1279.217,2195.278 1272.216,2197.504 1245.414 C 2202.085 1190.262,2193.731 1076.702,2180.134 1009.308 C 2116.744 695.109,1924.440 444.836,1638.000 303.753 C 1541.739 256.340,1444.666 226.751,1330.769 210.105 C 1288.016 203.857,1166.813 199.220,1132.000 202.501 M1132.100 711.177 C 1124.455 715.393,1112.755 725.569,1106.100 733.792 L 1094.000 748.741 1094.000 1005.371 C 1094.000 1146.517,1095.401 1268.590,1097.114 1276.644 C 1103.478 1306.565,1133.309 1328.430,1320.901 1440.671 L 1441.004 1512.531 1481.502 1473.041 C 1503.776 1451.322,1528.120 1428.895,1535.600 1423.205 L 1549.200 1412.858 1531.600 1401.734 C 1514.081 1390.661,1351.499 1293.539,1281.000 1252.032 L 1244.000 1230.248 1243.876 1016.124 C 1243.749 795.430,1241.285 749.097,1228.777 732.274 C 1210.621 707.853,1158.681 696.519,1132.100 711.177 M1790.275 1409.066 C 1780.348 1414.706,1773.119 1422.424,1770.668 1430.000 C 1768.440 1436.888,1766.045 1537.004,1765.048 1665.000 L 1763.311 1888.000 1743.840 1888.000 L 1724.369 1888.000 1723.184 1701.000 C 1722.280 1558.222,1720.790 1511.881,1716.881 1505.041 C 1701.196 1477.589,1646.804 1477.589,1631.119 1505.041 C 1627.148 1511.991,1625.743 1569.395,1624.855 1761.000 L 1623.711 2008.000 1608.347 2008.000 L 1592.983 2008.000 1563.679 1935.479 C 1547.562 1895.592,1529.472 1856.188,1523.479 1847.915 C 1510.820 1830.440,1478.628 1813.258,1451.674 1809.591 C 1430.891 1806.763,1411.227 1814.497,1403.769 1828.432 C 1397.571 1840.013,1409.891 1877.939,1463.682 2012.879 C 1545.850 2219.002,1552.982 2232.742,1602.542 2280.410 C 1645.452 2321.682,1691.869 2348.332,1745.604 2362.548 C 1779.153 2371.423,1872.832 2371.427,1906.370 2362.555 C 1997.046 2338.566,2072.877 2276.098,2115.335 2190.414 C 2146.477 2127.566,2145.377 2138.695,2147.013 1870.000 C 2148.641 1602.843,2148.799 1604.766,2124.000 1591.194 C 2107.217 1582.009,2083.776 1583.647,2068.346 1595.082 C 2050.966 1607.962,2048.672 1627.205,2048.322 1763.000 L 2048.000 1888.000 2028.208 1888.000 L 2008.417 1888.000 2007.208 1691.000 C 2006.283 1540.130,2004.801 1491.902,2000.881 1485.041 C 1988.878 1464.032,1946.397 1456.670,1926.677 1472.182 C 1920.956 1476.682,1914.424 1487.032,1912.160 1495.182 C 1909.608 1504.370,1908.036 1581.805,1908.022 1699.000 L 1908.000 1888.000 1888.000 1888.000 C 1877.000 1888.000,1867.840 1887.550,1867.644 1887.000 C 1867.448 1886.450,1865.862 1783.400,1864.120 1658.000 C 1862.378 1532.600,1859.755 1427.135,1858.291 1423.632 C 1854.724 1415.099,1827.249 1399.984,1815.455 1400.066 C 1810.255 1400.102,1798.924 1404.152,1790.275 1409.066 " fill="#1D1E23" stroke="none" fill-rule="evenodd"/></svg>