<svg viewBox="0 0 2400 2400" fill="none" xmlns="http://www.w3.org/2000/svg"><path d="M1132.000 202.501 C 963.619 218.370,823.465 261.951,694.000 338.697 C 532.500 434.433,389.311 586.331,307.799 748.386 C 200.285 962.137,172.771 1215.287,231.964 1446.120 C 286.713 1659.624,403.905 1840.846,578.000 1981.218 C 671.413 2056.535,771.162 2110.532,885.372 2147.604 C 999.683 2184.709,1068.265 2196.002,1184.989 2196.941 L 1271.138 2197.634 1287.535 2186.783 C 1314.577 2168.887,1325.757 2147.934,1327.387 2112.091 C 1328.994 2076.775,1324.174 2062.324,1302.457 2037.352 C 1278.248 2009.515,1263.431 2004.759,1185.903 1999.939 C 1041.725 1990.977,948.205 1968.165,846.291 1917.100 C 591.060 1789.213,427.511 1545.569,403.192 1257.000 C 390.163 1102.392,432.205 925.223,514.012 790.000 C 684.682 507.888,1005.793 358.948,1329.502 411.753 C 1547.203 447.265,1741.197 571.911,1862.162 754.000 C 1951.163 887.972,1988.834 1007.142,1999.762 1189.281 C 2004.118 1261.887,2009.567 1278.294,2037.352 1302.457 C 2060.454 1322.548,2075.372 1328.000,2107.242 1328.000 C 2140.811 1328.000,2163.997 1317.243,2182.447 1293.109 C 2193.068 1279.217,2195.278 1272.216,2197.504 1245.414 C 2202.085 1190.262,2193.731 1076.702,2180.134 1009.308 C 2116.744 695.109,1924.440 444.836,1638.000 303.753 C 1541.739 256.340,1444.666 226.751,1330.769 210.105 C 1288.016 203.857,1166.813 199.220,1132.000 202.501 M1132.100 711.177 C 1124.455 715.393,1112.755 725.569,1106.100 733.792 L 1094.000 748.741 1094.000 1005.371 C 1094.000 1146.517,1095.401 1268.590,1097.114 1276.644 C 1103.478 1306.565,1133.309 1328.430,1320.901 1440.671 L 1441.004 1512.531 1481.502 1473.041 C 1503.776 1451.322,1528.120 1428.895,1535.600 1423.205 L 1549.200 1412.858 1531.600 1401.734 C 1514.081 1390.661,1351.499 1293.539,1281.000 1252.032 L 1244.000 1230.248 1243.876 1016.124 C 1243.749 795.430,1241.285 749.097,1228.777 732.274 C 1210.621 707.853,1158.681 696.519,1132.100 711.177 M1992.290 1610.539 C 1984.571 1620.353,1984.000 1626.258,1984.000 1696.281 L 1984.000 1771.483 1777.000 1772.741 L 1570.000 1774.000 1552.000 1784.619 C 1517.032 1805.249,1503.500 1829.071,1503.500 1870.000 C 1503.500 1911.120,1521.894 1941.926,1558.000 1961.276 C 1573.651 1969.663,1578.471 1969.882,1778.699 1971.291 L 1983.397 1972.731 1984.699 2049.761 C 1986.718 2169.295,1984.324 2169.247,2122.000 2052.533 C 2228.754 1962.034,2308.140 1891.504,2314.952 1881.109 C 2320.604 1872.482,2320.697 1870.136,2315.702 1862.187 C 2299.021 1835.643,2020.498 1600.000,2005.804 1600.000 C 2002.931 1600.000,1996.850 1604.743,1992.290 1610.539 " fill="#1D1E23" stroke="none" fill-rule="evenodd"/></svg>