<svg viewBox="0 0 2400 2400" fill="none" xmlns="http://www.w3.org/2000/svg"><path d="M1112.545 204.400 C 912.297 222.358,715.951 303.249,564.000 430.389 C 519.354 467.745,451.449 537.020,415.388 582.000 C 204.810 844.657,144.036 1210.759,257.685 1532.000 C 309.267 1677.801,385.366 1797.432,497.084 1908.345 C 611.581 2022.016,737.496 2099.604,885.372 2147.604 C 999.683 2184.709,1068.265 2196.002,1184.989 2196.941 L 1271.138 2197.634 1287.535 2186.783 C 1314.577 2168.887,1325.757 2147.934,1327.387 2112.091 C 1328.994 2076.775,1324.174 2062.324,1302.457 2037.352 C 1278.248 2009.515,1263.431 2004.759,1185.903 1999.939 C 1071.032 1992.799,1001.067 1979.471,920.543 1949.390 C 552.298 1811.829,337.029 1420.262,418.227 1035.692 C 492.209 685.292,780.453 433.745,1143.000 403.192 C 1341.739 386.444,1560.039 457.333,1715.157 588.990 C 1755.975 623.634,1810.287 680.693,1837.959 718.000 C 1923.129 832.830,1985.560 992.363,1994.763 1118.687 L 1997.144 1151.374 1918.421 1152.687 C 1833.811 1154.098,1832.196 1154.527,1832.061 1175.588 C 1831.991 1186.594,1836.107 1191.855,1935.632 1308.000 C 2032.659 1421.230,2088.107 1483.185,2094.669 1485.703 C 2104.281 1489.392,2110.646 1484.022,2152.709 1436.739 C 2278.662 1295.152,2368.027 1186.174,2367.939 1174.270 C 2367.794 1154.707,2365.311 1154.084,2281.925 1152.691 C 2205.751 1151.419,2203.453 1151.138,2200.187 1142.691 C 2198.339 1137.911,2193.887 1107.697,2190.294 1075.549 C 2166.730 864.734,2064.276 652.870,1912.000 500.066 C 1828.999 416.777,1743.266 355.371,1638.000 303.816 C 1545.966 258.741,1458.700 230.669,1360.000 214.387 C 1301.405 204.721,1168.691 199.365,1112.545 204.400 M1132.100 711.177 C 1124.455 715.393,1112.755 725.569,1106.100 733.792 L 1094.000 748.741 1094.000 1005.371 C 1094.000 1146.517,1095.381 1268.481,1097.069 1276.402 C 1103.247 1305.392,1134.568 1328.644,1308.000 1432.993 C 1466.880 1528.586,1570.972 1587.445,1586.201 1590.302 C 1604.918 1593.813,1624.112 1586.332,1641.011 1568.938 C 1664.532 1544.728,1669.545 1522.019,1657.830 1492.741 C 1649.255 1471.311,1622.788 1454.375,1291.000 1258.012 L 1244.000 1230.196 1243.876 1016.098 C 1243.749 795.429,1241.284 749.097,1228.777 732.274 C 1210.621 707.853,1158.681 696.519,1132.100 711.177 " fill="#1D1E23" stroke="none" fill-rule="evenodd"/></svg>