<svg viewBox="0 0 2400 2400" fill="none" xmlns="http://www.w3.org/2000/svg"><path d="M1106.000 206.560 C 1031.122 215.077,918.393 240.909,854.449 264.204 C 807.438 281.330,707.155 332.376,657.671 364.367 C 517.001 455.310,384.791 600.308,310.598 745.012 C 258.522 846.580,219.535 976.996,208.238 1087.424 C 202.138 1147.051,203.024 1261.704,210.049 1321.762 C 230.528 1496.832,306.677 1680.361,415.114 1816.000 C 449.272 1858.726,509.022 1920.356,552.579 1957.790 C 654.382 2045.280,758.511 2103.608,892.000 2147.917 C 1006.074 2185.782,1086.924 2197.862,1209.717 2195.388 C 1277.596 2194.021,1278.848 2193.836,1292.907 2183.109 C 1340.948 2146.453,1335.416 2055.002,1283.206 2022.723 C 1263.250 2010.385,1245.379 2007.096,1129.094 1994.365 C 1020.323 1982.456,941.989 1961.132,858.000 1920.566 C 590.967 1791.592,418.166 1529.432,405.453 1234.000 C 395.387 1000.083,482.374 783.562,650.537 623.953 C 843.705 440.612,1105.276 367.271,1369.097 422.481 C 1486.499 447.050,1612.055 507.915,1709.152 587.329 C 1802.979 664.068,1888.944 780.691,1938.013 897.813 C 1969.018 971.816,1981.025 1026.454,1996.072 1162.000 C 2000.712 1203.800,2006.418 1245.688,2008.751 1255.085 C 2014.865 1279.714,2031.454 1300.254,2056.308 1313.973 C 2084.358 1329.455,2124.464 1330.796,2150.379 1317.117 C 2172.195 1305.601,2190.604 1283.955,2196.357 1263.053 C 2202.647 1240.198,2194.847 1101.794,2183.497 1034.860 C 2162.801 912.810,2111.999 779.044,2045.535 671.597 C 1967.956 546.182,1846.013 426.218,1719.705 351.057 C 1593.377 275.884,1468.876 231.651,1334.000 214.024 C 1286.898 207.868,1137.497 202.977,1106.000 206.560 M1148.000 709.036 C 1133.579 712.788,1111.381 727.648,1098.912 741.899 C 1092.255 749.506,1091.890 766.251,1092.912 1016.739 L 1094.000 1283.478 1106.000 1296.110 C 1130.771 1322.184,1206.010 1372.024,1365.182 1467.797 L 1440.363 1513.034 1471.182 1483.449 C 1488.132 1467.178,1512.365 1444.564,1525.034 1433.196 L 1548.068 1412.527 1513.034 1390.989 C 1493.765 1379.144,1425.350 1338.191,1361.000 1299.984 L 1244.000 1230.516 1243.909 1040.258 C 1243.821 854.427,1240.301 763.833,1232.358 742.941 C 1224.356 721.896,1174.931 702.031,1148.000 709.036 M1993.620 1608.419 C 1986.799 1615.956,1985.852 1624.911,1984.586 1693.857 L 1983.172 1770.876 1774.586 1773.787 C 1540.768 1777.051,1556.364 1774.918,1526.764 1807.681 C 1510.180 1826.037,1501.539 1857.644,1505.635 1884.961 C 1509.694 1912.030,1530.454 1943.525,1553.683 1957.856 L 1573.367 1970.000 1778.683 1971.391 L 1984.000 1972.782 1984.080 2025.391 C 1984.172 2085.533,1989.080 2126.794,1997.095 2134.809 C 2005.448 2143.162,2017.464 2136.880,2063.914 2099.874 C 2178.214 2008.815,2316.000 1884.007,2316.000 1871.532 C 2316.000 1867.375,2303.850 1852.080,2289.000 1837.544 C 2219.574 1769.584,2016.239 1600.000,2004.180 1600.000 C 2002.563 1600.000,1997.811 1603.789,1993.620 1608.419 " fill="#1D1E23" stroke="none" fill-rule="evenodd"/></svg>