<svg viewBox="0 0 2400 2400" fill="none" xmlns="http://www.w3.org/2000/svg"><path d="M1106.000 206.560 C 1031.122 215.077,918.393 240.909,854.449 264.204 C 807.438 281.330,707.155 332.376,657.671 364.367 C 517.001 455.310,384.791 600.308,310.598 745.012 C 258.522 846.580,219.535 976.996,208.238 1087.424 C 202.138 1147.051,203.024 1261.704,210.049 1321.762 C 230.528 1496.832,306.677 1680.361,415.114 1816.000 C 449.272 1858.726,509.022 1920.356,552.579 1957.790 C 654.382 2045.280,758.511 2103.608,892.000 2147.917 C 1006.074 2185.782,1086.924 2197.862,1209.717 2195.388 C 1277.596 2194.021,1278.848 2193.836,1292.907 2183.109 C 1340.948 2146.453,1335.416 2055.002,1283.206 2022.723 C 1263.250 2010.385,1245.379 2007.096,1129.094 1994.365 C 1020.323 1982.456,941.989 1961.132,858.000 1920.566 C 590.967 1791.592,418.166 1529.432,405.453 1234.000 C 395.387 1000.083,482.374 783.562,650.537 623.953 C 843.705 440.612,1105.276 367.271,1369.097 422.481 C 1486.499 447.050,1612.055 507.915,1709.152 587.329 C 1802.979 664.068,1888.944 780.691,1938.013 897.813 C 1969.018 971.816,1981.025 1026.454,1996.072 1162.000 C 2000.712 1203.800,2006.418 1245.688,2008.751 1255.085 C 2014.865 1279.714,2031.454 1300.254,2056.308 1313.973 C 2084.358 1329.455,2124.464 1330.796,2150.379 1317.117 C 2172.195 1305.601,2190.604 1283.955,2196.357 1263.053 C 2202.647 1240.198,2194.847 1101.794,2183.497 1034.860 C 2162.801 912.810,2111.999 779.044,2045.535 671.597 C 1967.956 546.182,1846.013 426.218,1719.705 351.057 C 1593.377 275.884,1468.876 231.651,1334.000 214.024 C 1286.898 207.868,1137.497 202.977,1106.000 206.560 M1146.987 709.150 C 1138.488 711.217,1123.304 720.597,1111.987 730.771 L 1092.000 748.741 1092.314 925.371 C 1092.486 1022.517,1093.901 1141.664,1095.458 1190.143 C 1098.793 1294.016,1099.014 1294.632,1145.201 1329.062 C 1213.705 1380.128,1517.912 1560.777,1572.597 1582.865 C 1601.670 1594.608,1615.205 1591.599,1639.543 1567.980 C 1665.554 1542.737,1670.075 1509.888,1650.895 1485.503 C 1639.072 1470.473,1573.409 1428.210,1395.913 1321.388 L 1244.062 1230.000 1243.940 1040.000 C 1243.821 854.349,1240.291 763.807,1232.358 742.941 C 1224.254 721.627,1175.323 702.259,1146.987 709.150 M2131.678 1511.344 C 2121.839 1517.584,2097.069 1538.600,2076.633 1558.048 L 2039.477 1593.407 2122.667 1676.668 L 2205.857 1759.928 2231.171 1734.964 C 2259.491 1707.036,2300.000 1656.115,2300.000 1648.445 C 2300.000 1627.296,2173.996 1500.000,2153.062 1500.000 C 2151.140 1500.000,2141.516 1505.105,2131.678 1511.344 M1744.988 1889.012 L 1500.000 2134.024 1500.000 2217.012 L 1500.000 2300.000 1583.012 2300.000 L 1666.024 2300.000 1911.988 2054.012 L 2157.951 1808.024 2076.012 1726.012 C 2030.946 1680.905,1993.151 1644.000,1992.024 1644.000 C 1990.898 1644.000,1879.731 1754.255,1744.988 1889.012 " fill="#1D1E23" stroke="none" fill-rule="evenodd"/></svg>