<svg viewBox="0 0 2400 2400" fill="none" xmlns="http://www.w3.org/2000/svg"><path d="M1304.061 299.374 C 1304.095 351.419,1305.494 396.158,1307.171 398.795 C 1308.847 401.432,1338.070 411.665,1372.109 421.535 C 1516.754 463.472,1597.173 501.218,1682.063 567.012 C 1825.921 678.510,1914.308 810.230,1972.609 1000.000 L 1987.970 1050.000 1987.985 1202.618 L 1988.000 1355.235 1970.051 1410.618 C 1924.785 1550.288,1862.034 1659.652,1774.772 1750.951 C 1718.260 1810.077,1643.948 1867.645,1576.000 1904.935 C 1520.575 1935.353,1397.662 1977.903,1334.932 1988.389 L 1303.864 1993.583 1304.932 2091.791 L 1306.000 2190.000 1330.000 2188.966 C 1405.747 2185.702,1562.549 2136.161,1663.215 2083.690 C 1809.114 2007.641,1946.378 1881.222,2041.500 1735.291 C 2105.871 1636.538,2162.377 1491.668,2184.762 1368.000 C 2195.231 1310.163,2199.478 1147.005,2192.175 1083.191 C 2185.504 1024.891,2170.324 959.291,2147.933 892.000 C 2096.165 736.423,2019.387 610.845,1908.201 499.898 C 1757.927 349.945,1583.402 258.184,1372.000 217.975 C 1342.300 212.326,1314.850 207.039,1311.000 206.227 C 1304.488 204.852,1304.004 211.341,1304.061 299.374 M1032.000 215.867 C 884.073 243.557,754.864 298.807,608.710 396.866 L 566.994 424.854 608.497 466.712 C 631.324 489.734,663.945 521.228,680.989 536.699 L 711.978 564.828 766.989 532.129 C 870.851 470.392,946.088 439.820,1049.000 417.535 L 1100.000 406.492 1099.965 328.246 C 1099.946 285.211,1098.795 240.550,1097.408 229.000 C 1094.958 208.599,1094.530 208.011,1082.443 208.377 C 1075.599 208.584,1052.900 211.954,1032.000 215.867 M411.316 586.291 C 308.833 726.495,246.523 869.011,213.750 1038.171 C 204.960 1083.538,204.066 1093.583,208.565 1096.434 C 217.635 1102.181,393.379 1100.870,400.748 1095.000 C 404.200 1092.250,411.116 1072.900,416.116 1052.000 C 442.519 941.641,476.762 858.762,539.241 754.000 C 562.955 714.237,563.054 713.941,555.951 704.000 C 552.021 698.500,521.112 665.331,487.264 630.291 L 425.722 566.582 411.316 586.291 M1132.000 715.833 C 1124.300 719.947,1111.932 729.628,1104.517 737.346 L 1091.033 751.378 1093.162 1004.689 C 1094.596 1175.276,1096.789 1263.878,1099.878 1276.000 C 1106.045 1300.201,1117.258 1311.083,1176.044 1349.915 C 1249.801 1398.637,1502.690 1549.682,1544.916 1570.233 C 1584.591 1589.544,1600.660 1591.858,1622.640 1581.428 C 1648.850 1568.991,1668.473 1527.674,1660.149 1502.451 C 1651.293 1475.617,1623.480 1456.497,1395.031 1320.190 L 1245.207 1230.795 1242.360 1066.397 C 1240.794 975.979,1238.046 867.362,1236.252 825.028 C 1233.116 750.981,1232.601 747.543,1222.722 734.591 C 1217.073 727.185,1206.228 718.173,1198.621 714.563 C 1180.336 705.886,1149.519 706.474,1132.000 715.833 M231.000 1302.776 C 211.845 1303.904,204.000 1305.928,204.000 1309.742 C 204.000 1331.591,238.609 1471.507,258.039 1528.209 C 286.172 1610.305,368.122 1761.392,416.915 1821.120 L 426.000 1832.241 497.220 1760.860 L 568.440 1689.479 537.841 1641.739 C 489.853 1566.870,454.313 1488.324,430.270 1404.000 C 424.311 1383.100,415.713 1352.992,411.163 1337.093 C 405.976 1318.969,400.486 1307.518,396.445 1306.393 C 386.733 1303.691,261.845 1300.961,231.000 1302.776 M640.607 1903.170 C 602.817 1939.927,571.921 1972.198,571.949 1974.884 C 572.016 1981.316,662.330 2040.628,718.000 2070.799 C 813.920 2122.785,871.470 2145.086,978.411 2171.712 C 1052.522 2190.164,1090.570 2197.356,1096.075 2193.954 C 1098.471 2192.473,1099.989 2153.064,1099.971 2092.764 L 1099.942 1994.000 1054.104 1985.067 C 963.033 1967.320,858.285 1924.935,759.114 1865.703 C 734.302 1850.883,712.946 1838.213,711.658 1837.549 C 710.369 1836.884,678.396 1866.414,640.607 1903.170 " fill="#1D1E23" stroke="none" fill-rule="evenodd"/></svg>