<svg viewBox="0 0 2400 2400" fill="none" xmlns="http://www.w3.org/2000/svg"><path d="M200 1200C200 648 647 200 1199 200C1752 200 2200 648 2200 1200C2200 1217.81 2199.53 1235.52 2198.61 1253.1C2195.53 1311.86 2132.11 1343.4 2075.86 1326.18C2031.09 1312.48 1998.34 1270.01 1999.67 1223.21C1999.89 1215.5 2000 1207.76 2000 1200C2000 758 1642 400 1200 400C758 400 400 758 400 1200C400 1642 758 2000 1200 2000C1207.77 2000 1215.51 1999.89 1223.23 1999.67C1270.02 1998.34 1312.48 2031.08 1326.18 2075.83C1343.38 2132.06 1311.87 2195.43 1253.15 2198.56C1235.22 2199.52 1217.17 2200 1199 2200C647 2200 200 1752 200 1200Z" fill="#1D1E23"/><path d="M1169.94 702.09H1163.94C1123.94 702.09 1091.94 734.09 1091.94 774.09V1246.09C1091.94 1281.09 1109.94 1314.09 1140.94 1332.09L1441.81 1512.61C1473.9 1474.68 1510.62 1440.8 1551.09 1411.82L1241.94 1228.09V774.09C1241.94 734.09 1209.94 702.09 1169.94 702.09Z" fill="#1D1E23"/><path fill-rule="evenodd" d="M2400 1900C2400 2176.14 2176.14 2400 1900 2400C1623.86 2400 1400 2176.14 1400 1900C1400 1623.86 1623.86 1400 1900 1400C2176.14 1400 2400 1623.86 2400 1900ZM1700 1900C1700 1955.23 1655.23 2000 1600 2000C1544.77 2000 1500 1955.23 1500 1900C1500 1844.77 1544.77 1800 1600 1800C1655.23 1800 1700 1844.77 1700 1900ZM1900 2000C1955.23 2000 2000 1955.23 2000 1900C2000 1844.77 1955.23 1800 1900 1800C1844.77 1800 1800 1844.77 1800 1900C1800 1955.23 1844.77 2000 1900 2000ZM2300 1900C2300 1955.23 2255.23 2000 2200 2000C2144.77 2000 2100 1955.23 2100 1900C2100 1844.77 2144.77 1800 2200 1800C2255.23 1800 2300 1844.77 2300 1900Z" fill="#1D1E23"/></svg>