<svg viewBox="0 0 2400 2400" fill="none" xmlns="http://www.w3.org/2000/svg"><path d="M1056.000 104.245 C 1010.640 105.886,968.646 109.297,962.018 111.880 C 927.751 125.232,902.639 162.444,902.708 199.766 C 902.775 236.123,928.159 276.748,957.811 287.955 C 979.454 296.135,1068.279 299.766,1249.622 299.883 L 1429.245 300.000 1442.579 289.830 C 1480.151 261.172,1495.776 234.548,1495.912 198.956 C 1496.069 157.843,1471.000 121.424,1436.067 112.018 C 1417.865 107.117,1258.352 99.921,1186.000 100.738 C 1159.600 101.036,1101.100 102.614,1056.000 104.245 M1064.000 412.485 C 867.806 452.030,733.314 516.146,600.773 633.317 C 433.703 781.013,324.752 999.041,303.603 1228.000 C 286.263 1415.731,341.737 1629.235,451.009 1795.326 C 597.603 2018.145,848.550 2168.506,1119.424 2195.823 C 1299.919 2214.025,1505.985 2165.713,1666.973 2067.450 C 1767.518 2006.080,1881.051 1895.167,1952.653 1788.362 C 2026.448 1678.286,2075.130 1543.422,2092.120 1402.000 C 2098.900 1345.561,2097.933 1238.758,2090.132 1182.342 C 2069.985 1036.660,2011.086 888.769,1925.959 770.120 L 1903.761 739.181 1930.881 710.564 C 1997.698 640.056,2010.842 613.195,2000.212 568.884 C 1988.214 518.872,1933.002 489.211,1879.547 504.059 C 1859.298 509.684,1837.028 525.504,1795.680 563.636 L 1759.994 596.547 1728.997 574.783 C 1607.928 489.776,1446.936 425.900,1319.158 412.173 C 1272.460 407.156,1089.326 407.380,1064.000 412.485 M1242.518 607.957 C 1348.042 613.815,1411.374 630.134,1506.031 675.855 C 1580.281 711.719,1622.112 741.927,1686.118 805.906 C 1716.983 836.758,1751.682 874.600,1763.227 890.000 C 1788.150 923.243,1850.487 1045.418,1865.450 1090.348 C 1888.585 1159.815,1895.784 1247.528,1888.404 1370.000 C 1882.118 1474.312,1873.546 1504.918,1821.285 1609.643 C 1783.932 1684.493,1756.802 1723.184,1702.097 1779.614 C 1645.477 1838.019,1608.772 1868.232,1558.625 1897.707 C 1430.997 1972.725,1284.183 2008.227,1151.217 1996.228 C 999.500 1982.535,876.842 1934.345,767.541 1845.488 C 722.601 1808.954,651.050 1732.083,624.456 1691.764 C 572.417 1612.871,527.738 1504.368,514.319 1424.295 C 507.254 1382.138,506.519 1321.186,511.927 1226.000 C 517.595 1126.265,526.473 1094.896,578.404 991.123 C 625.926 896.159,666.030 843.086,738.669 779.034 C 789.678 734.054,818.011 714.692,876.950 684.537 C 978.910 632.371,1065.679 607.877,1160.000 604.634 C 1167.700 604.369,1204.833 605.865,1242.518 607.957 M1165.851 810.123 C 1142.678 818.699,1122.436 836.857,1111.496 858.883 L 1102.000 878.000 1102.000 1102.344 L 1102.000 1326.689 1116.884 1349.107 C 1159.559 1413.389,1244.757 1411.729,1286.000 1345.813 L 1298.000 1326.634 1298.000 1106.317 C 1298.000 871.179,1297.454 863.849,1278.226 840.998 C 1253.788 811.955,1200.479 797.308,1165.851 810.123 " fill="#1D1E23" stroke="none" fill-rule="evenodd"/></svg>