<svg viewBox="0 0 2400 2400" fill="none" xmlns="http://www.w3.org/2000/svg"><path d="M1120.000 204.325 C 1039.097 212.178,939.626 233.421,866.850 258.388 C 808.896 278.270,705.658 330.124,651.081 366.765 C 498.953 468.897,370.983 614.780,298.173 769.074 C 253.109 864.570,224.570 962.125,209.423 1072.449 C 199.346 1145.848,200.261 1269.158,211.423 1342.000 C 235.344 1498.101,289.370 1636.887,374.919 1762.000 C 412.532 1817.007,430.312 1838.403,485.798 1895.428 C 604.931 2017.866,727.771 2095.005,887.982 2147.984 C 999.234 2184.773,1064.471 2195.146,1192.562 2196.416 C 1267.696 2197.160,1271.757 2196.803,1285.647 2188.218 C 1345.958 2150.944,1340.419 2048.864,1276.311 2016.159 C 1257.566 2006.596,1249.359 2005.306,1160.000 1997.878 C 1032.757 1987.300,945.408 1965.126,854.000 1920.196 C 593.009 1791.911,429.596 1549.877,403.750 1253.326 C 393.704 1138.057,417.062 1000.790,466.365 885.360 C 541.418 709.644,675.795 569.021,850.000 483.893 C 947.603 436.198,1039.583 411.544,1146.000 404.554 C 1293.452 394.868,1427.946 422.210,1560.000 488.717 C 1716.832 567.704,1835.481 687.375,1915.782 847.565 C 1966.012 947.769,1985.470 1024.999,1998.072 1174.196 C 2005.020 1256.444,2008.405 1270.360,2026.652 1291.677 C 2070.078 1342.412,2153.452 1339.602,2185.981 1286.308 L 2198.000 1266.616 2197.732 1200.308 C 2197.425 1124.393,2191.513 1065.837,2177.509 1000.000 C 2125.429 755.159,1997.079 551.417,1803.238 405.881 C 1748.611 364.867,1699.380 335.216,1630.000 301.541 C 1541.496 258.584,1467.100 234.667,1364.891 216.313 C 1324.102 208.988,1299.257 207.039,1188.000 202.433 C 1169.300 201.658,1138.700 202.510,1120.000 204.325 M1133.008 712.175 C 1123.663 716.934,1110.613 727.651,1104.008 735.990 L 1092.000 751.151 1092.399 938.576 C 1092.619 1041.659,1093.969 1162.366,1095.399 1206.813 L 1098.000 1287.627 1114.000 1304.196 C 1134.711 1325.643,1191.755 1363.207,1329.283 1445.959 L 1440.565 1512.919 1477.283 1477.292 C 1497.477 1457.697,1521.857 1435.090,1531.461 1427.054 L 1548.922 1412.443 1535.461 1404.153 C 1528.057 1399.594,1459.450 1358.546,1383.000 1312.937 L 1244.000 1230.010 1243.857 1028.005 C 1243.711 821.587,1240.957 757.355,1231.406 737.604 C 1224.545 723.419,1195.765 708.482,1169.888 705.678 C 1154.393 703.999,1146.246 705.434,1133.008 712.175 M1993.620 1608.409 C 1986.783 1615.955,1985.873 1624.734,1984.768 1693.853 L 1983.535 1770.888 1776.092 1772.818 L 1568.650 1774.749 1547.944 1788.036 C 1518.439 1806.969,1507.401 1825.439,1504.927 1860.017 C 1501.683 1905.357,1520.534 1941.528,1557.621 1961.127 C 1573.680 1969.613,1578.002 1969.812,1779.000 1971.282 L 1984.000 1972.782 1984.174 2035.391 C 1984.351 2098.911,1987.658 2129.258,1995.229 2136.829 C 2006.775 2148.375,2029.361 2132.129,2170.000 2011.109 C 2288.174 1909.421,2319.989 1879.904,2320.031 1871.912 C 2320.119 1854.828,2024.002 1600.000,2004.062 1600.000 C 2002.510 1600.000,1997.811 1603.784,1993.620 1608.409 " fill="#1D1E23" stroke="none" fill-rule="evenodd"/></svg>