<svg viewBox="0 0 2400 2400" fill="none" xmlns="http://www.w3.org/2000/svg"><path d="M1120.000 204.325 C 1039.097 212.178,939.626 233.421,866.850 258.388 C 808.896 278.270,705.658 330.124,651.081 366.765 C 500.569 467.812,370.352 615.610,300.151 765.074 C 145.963 1093.358,174.082 1468.282,374.919 1762.000 C 412.532 1817.007,430.312 1838.403,485.798 1895.428 C 604.931 2017.866,727.771 2095.005,887.982 2147.984 C 999.234 2184.773,1064.471 2195.146,1192.562 2196.416 C 1267.696 2197.160,1271.757 2196.803,1285.647 2188.218 C 1345.958 2150.944,1340.419 2048.864,1276.311 2016.159 C 1257.566 2006.596,1249.359 2005.306,1160.000 1997.878 C 1032.757 1987.300,945.408 1965.126,854.000 1920.196 C 593.009 1791.911,429.596 1549.877,403.750 1253.326 C 393.704 1138.057,417.062 1000.790,466.365 885.360 C 541.418 709.644,675.795 569.021,850.000 483.893 C 947.603 436.198,1039.583 411.544,1146.000 404.554 C 1293.452 394.868,1427.946 422.210,1560.000 488.717 C 1716.832 567.704,1835.481 687.375,1915.782 847.565 C 1966.012 947.769,1985.470 1024.999,1998.072 1174.196 C 2005.020 1256.444,2008.405 1270.360,2026.652 1291.677 C 2070.082 1342.415,2153.459 1339.602,2185.981 1286.301 L 2198.000 1266.602 2197.548 1196.301 C 2195.745 915.944,2079.191 650.606,1877.171 466.957 C 1802.790 399.340,1727.021 348.632,1630.000 301.541 C 1541.496 258.584,1467.100 234.667,1364.891 216.313 C 1324.102 208.988,1299.257 207.039,1188.000 202.433 C 1169.300 201.658,1138.700 202.510,1120.000 204.325 M1133.008 712.175 C 1123.663 716.934,1110.613 727.651,1104.008 735.990 L 1092.000 751.151 1092.399 938.576 C 1092.619 1041.659,1093.969 1162.366,1095.399 1206.813 L 1098.000 1287.627 1114.000 1304.196 C 1134.711 1325.643,1191.755 1363.207,1329.283 1445.959 L 1440.565 1512.919 1477.283 1477.292 C 1497.477 1457.697,1521.857 1435.090,1531.461 1427.054 L 1548.922 1412.443 1535.461 1404.153 C 1528.057 1399.594,1459.450 1358.546,1383.000 1312.937 L 1244.000 1230.010 1243.857 1028.005 C 1243.711 821.587,1240.957 757.355,1231.406 737.604 C 1224.545 723.419,1195.765 708.482,1169.888 705.678 C 1154.393 703.999,1146.246 705.434,1133.008 712.175 M1825.616 1408.080 C 1732.789 1417.872,1619.790 1475.261,1546.117 1550.030 C 1478.715 1618.436,1427.364 1715.265,1409.496 1807.650 C 1402.518 1843.727,1401.503 1942.266,1407.714 1980.593 C 1424.143 2081.972,1473.737 2176.968,1548.705 2250.659 C 1649.368 2349.606,1762.243 2397.086,1898.000 2397.587 C 1958.588 2397.811,1993.969 2392.314,2052.000 2373.664 C 2127.574 2349.376,2178.018 2319.719,2235.010 2266.069 C 2320.122 2185.948,2366.235 2104.616,2390.398 1992.000 C 2400.048 1947.024,2400.110 1851.075,2390.518 1808.000 C 2375.330 1739.804,2347.986 1673.237,2314.501 1622.946 C 2293.979 1592.124,2229.667 1524.953,2196.639 1499.844 C 2162.123 1473.604,2083.608 1435.012,2038.508 1422.120 C 1979.389 1405.220,1901.455 1400.081,1825.616 1408.080 M2100.000 1900.000 L 2100.000 2100.000 1900.000 2100.000 L 1700.000 2100.000 1700.000 1900.000 L 1700.000 1700.000 1900.000 1700.000 L 2100.000 1700.000 2100.000 1900.000 " fill="#1D1E23" stroke="none" fill-rule="evenodd"/></svg>