<svg viewBox="0 0 2400 2400" fill="none" xmlns="http://www.w3.org/2000/svg"><path d="M1163.94 702.09H1169.94C1209.94 702.09 1241.94 734.09 1241.94 774.09V1228.09L1628.94 1458.09C1663.94 1478.09 1674.94 1523.09 1653.94 1557.09C1633.94 1591.09 1589.94 1601.09 1555.94 1581.09L1140.94 1332.09C1109.94 1314.09 1091.94 1281.09 1091.94 1246.09V774.09C1091.94 734.09 1123.94 702.09 1163.94 702.09Z" fill="#1D1E23"/><path d="M200 1200C200 648 647 200 1199 200 1752 200 2200 648 2200 1200 2200 1217.81 2199.53 1235.52 2198.61 1253.1 2195.53 1311.86 2132.11 1343.4 2075.86 1326.18 2031.09 1312.48 1998.34 1270.01 1999.67 1223.21 1999.89 1215.5 2000 1207.76 2000 1200 2000 758 1642 400 1200 400 758 400 400 758 400 1200 400 1642 758 2000 1200 2000 1207.77 2000 1215.51 1999.89 1223.23 1999.67 1270.02 1998.34 1312.48 2031.08 1326.18 2075.83 1343.38 2132.06 1311.87 2195.43 1253.15 2198.56 1235.22 2199.52 1217.17 2200 1199 2200 647 2200 200 1752 200 1200ZM1500 2133.36V2300H1666.64L2158.13 1808.51 1991.49 1641.87 1500 2133.36ZM2287 1679.64C2304.33 1662.31 2304.33 1634.31 2287 1616.98L2183.02 1513C2165.69 1495.67 2137.69 1495.67 2120.36 1513L2039.04 1594.32 2205.68 1760.96 2287 1679.64Z" fill="#1D1E23"/></svg>