<svg viewBox="0 0 2400 2400" fill="none" xmlns="http://www.w3.org/2000/svg"><path d="M1047.696 212.156 C 890.381 237.133,743.782 298.578,606.646 397.017 L 567.293 425.265 638.770 496.742 L 710.246 568.219 755.636 537.892 C 851.243 474.013,956.876 431.776,1071.000 411.796 L 1100.000 406.719 1100.000 305.359 C 1100.000 249.612,1098.650 204.181,1097.000 204.402 C 1095.350 204.623,1073.163 208.113,1047.696 212.156 M1304.000 306.554 C 1304.000 397.647,1304.665 408.000,1310.518 408.000 C 1325.474 408.000,1413.417 429.875,1458.000 444.684 C 1623.139 499.540,1771.133 615.527,1873.086 770.000 C 1920.011 841.097,1958.182 933.638,1982.973 1036.404 C 1993.700 1080.871,1993.971 1084.921,1993.929 1200.000 C 1993.887 1314.956,1993.600 1319.206,1982.802 1364.731 C 1976.707 1390.433,1966.162 1428.233,1959.371 1448.731 C 1884.939 1673.371,1711.765 1856.911,1492.000 1944.080 C 1448.599 1961.294,1361.157 1985.448,1324.758 1990.277 L 1304.000 1993.031 1304.000 2092.279 C 1304.000 2146.866,1305.350 2192.355,1307.000 2193.365 C 1312.249 2196.579,1400.115 2180.335,1454.000 2166.188 C 1625.379 2121.195,1779.874 2032.361,1905.379 1906.647 C 2060.349 1751.417,2156.949 1558.178,2190.645 1336.000 C 2200.421 1271.541,2200.459 1127.577,2190.717 1064.000 C 2150.078 798.787,2017.634 570.617,1812.000 411.562 C 1670.769 302.321,1520.583 238.481,1339.000 210.501 L 1304.000 205.108 1304.000 306.554 M397.013 606.322 C 288.880 757.832,233.781 895.628,206.379 1083.069 L 203.883 1100.138 304.817 1099.069 L 405.751 1098.000 408.995 1080.000 C 429.735 964.926,472.334 856.187,533.309 762.669 C 550.189 736.781,564.000 713.809,564.000 711.620 C 564.000 709.432,532.799 675.917,494.665 637.143 L 425.331 566.644 397.013 606.322 M1133.008 712.417 C 1123.663 717.043,1110.613 727.651,1104.008 735.990 L 1092.000 751.151 1092.016 964.576 C 1092.025 1081.959,1093.215 1201.180,1094.659 1229.511 C 1097.152 1278.392,1097.917 1281.957,1109.643 1299.339 C 1123.831 1320.371,1138.629 1330.121,1344.000 1453.754 C 1564.757 1586.648,1570.396 1589.717,1593.790 1589.697 C 1627.574 1589.668,1651.152 1570.240,1660.693 1534.568 C 1666.968 1511.107,1660.445 1488.566,1642.287 1470.961 C 1634.934 1463.833,1542.567 1406.804,1437.026 1344.231 L 1245.134 1230.461 1242.585 1186.231 C 1241.183 1161.904,1239.931 1065.500,1239.803 972.000 C 1239.533 775.937,1237.414 744.374,1223.512 729.275 C 1200.976 704.800,1162.773 697.684,1133.008 712.417 M205.799 1313.000 C 206.987 1320.150,210.748 1343.100,214.156 1364.000 C 229.417 1457.582,265.820 1567.460,310.668 1655.306 C 330.444 1694.043,394.164 1793.548,416.850 1821.120 L 426.000 1832.241 497.393 1760.686 L 568.787 1689.131 549.208 1661.566 C 480.231 1564.449,435.367 1456.963,411.650 1332.000 C 408.936 1317.700,404.754 1304.678,402.358 1303.061 C 399.961 1301.445,354.268 1300.095,300.819 1300.061 L 203.637 1300.000 205.799 1313.000 M637.883 1904.568 L 567.342 1973.828 578.671 1983.042 C 584.902 1988.109,614.059 2008.515,643.463 2028.388 C 711.218 2074.180,807.763 2121.596,886.460 2147.729 C 940.240 2165.589,1035.677 2187.690,1083.000 2193.244 L 1100.000 2195.239 1100.000 2094.135 L 1100.000 1993.031 1079.000 1990.328 C 1067.450 1988.841,1040.000 1983.123,1018.000 1977.621 C 920.217 1953.166,840.825 1919.068,762.000 1867.674 C 737.800 1851.896,715.845 1838.158,713.212 1837.146 C 710.579 1836.135,676.681 1866.474,637.883 1904.568 " fill="#1D1E23" stroke="none" fill-rule="evenodd"/></svg>