<svg viewBox="0 0 2400 2400" fill="none" xmlns="http://www.w3.org/2000/svg"><path d="M1076.000 210.536 C 785.996 247.267,524.213 412.041,361.031 660.558 C 258.768 816.297,202.523 1006.049,202.319 1196.000 C 202.082 1415.722,270.030 1622.199,398.400 1791.841 C 456.351 1868.423,534.029 1946.161,610.000 2003.603 C 764.713 2120.583,957.489 2188.375,1162.866 2198.027 C 1239.469 2201.626,1268.794 2197.971,1289.398 2182.256 C 1331.459 2150.175,1338.895 2093.897,1307.363 2046.293 C 1288.701 2018.118,1266.615 2009.508,1194.000 2002.097 C 1006.765 1982.987,903.398 1953.552,796.000 1888.762 C 693.996 1827.226,598.495 1735.408,535.179 1638.000 C 488.506 1566.196,456.546 1494.734,427.844 1398.000 L 411.229 1342.000 410.614 1210.000 C 410.000 1078.038,410.003 1077.987,421.289 1030.607 C 460.487 866.043,538.352 729.238,655.074 619.852 C 759.855 521.658,875.423 459.662,1023.805 422.050 C 1062.301 412.291,1067.391 412.000,1199.455 412.000 L 1335.459 412.000 1382.105 424.027 C 1483.975 450.293,1599.773 504.756,1679.607 563.949 C 1791.218 646.703,1891.107 779.909,1945.106 918.000 C 1964.765 968.275,1982.519 1044.026,1990.104 1110.000 C 2004.844 1238.193,2008.148 1257.187,2019.271 1277.666 C 2047.653 1329.919,2127.309 1344.333,2169.463 1304.845 C 2198.942 1277.230,2206.518 1217.532,2194.388 1108.429 C 2158.004 781.166,1988.766 513.875,1712.037 346.614 C 1602.391 280.342,1485.853 237.290,1363.762 217.953 C 1323.238 211.535,1111.252 206.071,1076.000 210.536 M1132.000 715.818 C 1124.300 719.923,1112.600 728.964,1106.000 735.909 L 1094.000 748.535 1094.000 999.268 C 1094.000 1137.170,1095.481 1258.690,1097.292 1269.311 C 1103.501 1305.740,1121.912 1319.794,1323.104 1441.694 L 1440.208 1512.646 1482.789 1471.991 C 1531.450 1425.532,1542.826 1412.326,1537.387 1408.607 C 1524.461 1399.767,1418.009 1334.332,1350.876 1293.960 C 1307.358 1267.788,1266.178 1241.722,1259.364 1236.034 L 1246.976 1225.692 1243.426 1081.846 C 1235.793 772.606,1234.598 750.883,1224.419 736.589 C 1205.317 709.762,1161.731 699.966,1132.000 715.818 M1846.000 1406.436 C 1736.063 1417.673,1629.943 1469.406,1547.903 1551.758 C 1413.425 1686.748,1368.704 1874.549,1427.901 2055.697 C 1453.562 2134.222,1487.769 2186.892,1557.112 2254.649 C 1613.010 2309.268,1647.556 2332.525,1711.174 2358.368 C 1791.321 2390.925,1856.210 2401.435,1940.000 2395.433 C 2128.763 2381.910,2304.088 2246.914,2369.518 2064.714 C 2391.051 2004.751,2394.029 1984.149,2393.620 1898.000 C 2393.273 1825.047,2392.327 1814.653,2382.876 1780.000 C 2356.656 1683.858,2311.018 1606.081,2242.807 1541.287 C 2178.197 1479.913,2086.875 1431.874,2004.436 1415.894 C 1966.401 1408.521,1877.518 1403.215,1846.000 1406.436 " fill="#1D1E23" stroke="none" fill-rule="evenodd"/></svg>