<svg viewBox="0 0 2400 2400" fill="none" xmlns="http://www.w3.org/2000/svg"><path d="M1100.000 206.614 C 1026.670 217.794,1001.490 222.551,952.000 234.578 C 877.141 252.770,832.726 269.503,754.365 309.034 C 650.634 361.362,578.051 413.958,493.697 497.921 C 377.066 614.011,305.336 728.987,254.373 881.538 C 196.201 1055.664,186.214 1247.154,226.238 1421.015 C 266.568 1596.209,350.867 1754.061,472.036 1881.279 C 595.101 2010.488,724.717 2093.152,889.475 2147.508 C 1008.492 2186.773,1079.925 2197.545,1206.325 2195.290 C 1277.996 2194.012,1278.779 2193.902,1292.916 2183.109 C 1339.456 2147.576,1337.265 2062.254,1288.865 2025.338 C 1269.196 2010.336,1249.824 2005.876,1178.000 1999.813 C 1017.315 1986.249,916.329 1957.519,806.000 1893.980 C 582.752 1765.410,440.085 1547.506,407.941 1286.000 C 401.589 1234.324,402.696 1141.043,410.268 1089.897 C 454.260 792.757,646.226 556.107,928.972 450.453 C 1115.018 380.933,1343.729 389.453,1524.560 472.641 C 1709.448 557.694,1841.509 688.544,1926.912 871.302 C 1965.981 954.907,1982.308 1022.715,1995.944 1158.000 C 2000.600 1204.200,2006.096 1248.300,2008.156 1256.000 C 2026.591 1324.900,2120.322 1351.799,2171.336 1302.830 C 2198.721 1276.542,2201.181 1266.597,2198.171 1194.326 C 2193.357 1078.704,2181.025 999.746,2153.640 909.193 C 2106.559 753.510,2030.656 624.376,1918.148 508.550 C 1751.470 336.954,1520.934 226.627,1290.419 208.137 C 1241.805 204.238,1121.878 203.279,1100.000 206.614 M1133.326 714.047 C 1121.955 719.736,1107.744 730.824,1101.747 738.687 L 1090.843 752.983 1092.886 1018.774 L 1094.929 1284.566 1110.465 1300.556 C 1132.244 1322.972,1199.760 1367.822,1329.240 1445.885 L 1440.480 1512.951 1473.240 1481.375 C 1491.258 1464.008,1515.550 1441.379,1527.221 1431.089 L 1548.443 1412.380 1533.221 1402.887 C 1524.850 1397.666,1456.350 1356.694,1381.000 1311.840 L 1244.000 1230.285 1243.905 1036.143 C 1243.799 818.346,1240.507 752.110,1229.000 736.232 C 1220.045 723.876,1191.887 709.524,1170.000 706.161 C 1157.455 704.234,1149.535 705.937,1133.326 714.047 M1830.000 1407.765 C 1675.811 1425.669,1527.129 1534.130,1452.270 1683.314 C 1435.691 1716.354,1413.519 1783.170,1408.241 1816.000 C 1401.158 1860.054,1403.066 1961.012,1411.719 2000.000 C 1455.762 2198.448,1616.664 2355.900,1810.260 2389.995 C 1857.918 2398.389,1948.927 2398.357,1989.713 2389.932 C 2061.087 2375.190,2132.504 2345.409,2183.560 2309.100 C 2219.895 2283.259,2285.673 2216.316,2310.868 2179.538 C 2345.644 2128.771,2370.695 2071.954,2388.118 2004.325 C 2395.632 1975.160,2399.312 1902.791,2395.715 1854.938 C 2389.898 1777.547,2351.623 1673.358,2307.204 1614.000 C 2254.042 1542.958,2197.107 1494.560,2124.515 1458.703 C 2069.986 1431.768,2032.987 1418.740,1992.000 1412.043 C 1956.483 1406.240,1864.136 1403.801,1830.000 1407.765 M2100.000 1900.000 L 2100.000 2100.000 1900.000 2100.000 L 1700.000 2100.000 1700.000 1900.000 L 1700.000 1700.000 1900.000 1700.000 L 2100.000 1700.000 2100.000 1900.000 " fill="#1D1E23" stroke="none" fill-rule="evenodd"/></svg>