<svg viewBox="0 0 2400 2400" fill="none" xmlns="http://www.w3.org/2000/svg"><path d="M1040.000 213.861 C 878.809 243.068,749.155 297.999,606.528 397.509 L 567.100 425.018 638.289 496.289 C 677.442 535.488,711.394 566.385,713.738 564.949 C 716.082 563.513,738.537 549.217,763.638 533.182 C 859.893 471.688,965.177 430.394,1073.068 411.816 L 1100.136 407.155 1099.068 306.909 C 1098.400 244.253,1096.500 206.314,1094.000 205.732 C 1091.800 205.220,1067.500 208.878,1040.000 213.861 M1304.061 301.554 C 1304.095 354.599,1305.445 399.933,1307.061 402.295 C 1308.678 404.658,1331.600 411.599,1358.000 417.719 C 1494.715 449.416,1602.823 500.363,1700.000 578.890 C 1735.643 607.693,1806.867 680.290,1832.553 714.000 C 1899.370 801.689,1941.919 889.548,1976.870 1012.000 L 1990.000 1058.000 1989.895 1202.000 L 1989.791 1346.000 1974.805 1397.730 C 1908.390 1626.992,1769.223 1801.927,1568.000 1909.091 C 1505.336 1942.463,1404.687 1976.642,1334.197 1988.486 L 1304.000 1993.560 1304.000 2088.453 C 1304.000 2140.644,1304.974 2185.885,1306.165 2188.988 C 1312.791 2206.255,1510.901 2155.656,1608.000 2111.898 C 1747.829 2048.882,1879.712 1946.741,1977.146 1826.000 C 2076.482 1702.903,2147.831 1550.774,2179.949 1393.591 C 2205.646 1267.834,2204.722 1112.129,2177.578 994.000 C 2130.839 790.595,2039.153 625.462,1895.488 485.938 C 1741.073 335.974,1558.531 245.685,1339.000 210.688 L 1304.000 205.108 1304.061 301.554 M397.142 606.223 C 292.777 752.755,235.060 896.698,205.940 1083.069 L 203.273 1100.139 304.341 1099.069 L 405.408 1098.000 414.569 1054.000 C 434.972 955.996,477.246 852.560,533.559 762.851 C 548.061 739.749,560.939 718.206,562.178 714.978 C 563.655 711.130,540.513 684.554,494.951 637.778 L 425.472 566.446 397.142 606.223 M1147.056 707.831 C 1129.607 713.327,1110.632 726.475,1100.634 739.998 L 1091.386 752.506 1093.023 1009.253 C 1094.186 1191.606,1096.027 1270.201,1099.380 1280.499 C 1109.235 1310.775,1141.288 1332.834,1402.000 1488.763 C 1573.001 1591.038,1578.875 1593.829,1609.375 1587.325 C 1642.533 1580.253,1668.122 1540.038,1661.597 1505.256 C 1656.053 1475.705,1645.136 1468.109,1394.123 1319.136 C 1312.656 1270.786,1245.272 1230.522,1244.381 1229.661 C 1243.491 1228.800,1241.509 1123.224,1239.978 995.048 C 1237.781 811.180,1236.012 758.660,1231.597 746.173 C 1221.511 717.652,1178.217 698.016,1147.056 707.831 M204.000 1303.734 C 204.000 1316.552,226.151 1425.159,236.141 1461.320 C 269.083 1580.563,329.125 1702.999,404.558 1804.753 L 425.275 1832.698 496.852 1761.121 L 568.429 1689.544 537.782 1643.772 C 484.645 1564.410,445.061 1473.157,422.354 1377.679 C 404.686 1303.387,405.469 1305.294,391.489 1302.498 C 371.300 1298.460,204.000 1299.563,204.000 1303.734 M673.032 1871.520 C 651.564 1891.169,618.957 1922.497,600.571 1941.138 L 567.141 1975.030 606.571 2002.914 C 706.195 2073.364,817.332 2128.327,919.155 2157.502 C 959.520 2169.067,1033.894 2186.159,1060.000 2189.870 C 1069.900 2191.277,1082.950 2193.375,1089.000 2194.532 L 1100.000 2196.636 1100.000 2094.318 L 1100.000 1992.000 1091.000 1991.964 C 1075.122 1991.900,995.374 1972.505,950.000 1957.673 C 881.832 1935.389,816.429 1902.795,735.032 1850.540 L 712.063 1835.795 673.032 1871.520 " fill="#1D1E23" stroke="none" fill-rule="evenodd"/></svg>