<svg viewBox="0 0 2400 2400" fill="none" xmlns="http://www.w3.org/2000/svg"><path d="M1112.000 203.923 C 833.630 231.768,590.463 362.388,419.326 576.000 C 147.365 915.458,126.704 1391.677,368.248 1753.288 C 676.969 2215.470,1294.618 2338.595,1756.000 2029.929 C 2215.492 1722.528,2337.727 1104.086,2029.929 644.000 C 1872.846 409.198,1631.891 256.219,1349.288 211.869 C 1290.914 202.708,1165.973 198.524,1112.000 203.923 M1274.000 404.133 C 1456.349 421.235,1623.340 498.040,1755.450 625.571 C 2004.489 865.978,2070.161 1239.929,1917.944 1550.849 C 1796.348 1799.221,1559.627 1964.889,1282.000 1995.912 C 1085.155 2017.907,873.543 1957.479,710.000 1832.570 C 674.030 1805.098,606.674 1738.415,576.092 1700.000 C 537.021 1650.922,510.707 1609.106,481.701 1550.000 C 346.093 1273.664,382.928 942.169,576.152 700.000 C 606.996 661.343,669.507 599.393,708.000 569.335 C 866.875 445.271,1072.549 385.240,1274.000 404.133 M1200.000 900.986 L 1200.000 1201.972 989.000 1413.249 L 778.000 1624.526 804.769 1649.625 C 874.038 1714.572,976.156 1765.106,1086.000 1788.793 C 1143.902 1801.279,1256.346 1801.201,1314.996 1788.634 C 1562.447 1735.613,1741.127 1555.755,1790.641 1309.855 C 1800.731 1259.747,1800.779 1140.478,1790.730 1090.616 C 1766.718 971.479,1714.492 871.684,1631.110 785.611 C 1548.541 700.378,1450.950 643.729,1342.241 617.930 C 1304.445 608.960,1239.438 600.000,1212.158 600.000 L 1200.000 600.000 1200.000 900.986 " fill="#1D1E23" stroke="none" fill-rule="evenodd"/></svg>