<svg viewBox="0 0 2400 2400" fill="none" xmlns="http://www.w3.org/2000/svg"><path d="M1132.000 202.501 C 963.619 218.370,823.465 261.951,694.000 338.697 C 532.500 434.433,389.311 586.331,307.799 748.386 C 200.285 962.137,172.771 1215.287,231.964 1446.120 C 286.713 1659.624,403.905 1840.846,578.000 1981.218 C 671.413 2056.535,771.162 2110.532,885.372 2147.604 C 999.683 2184.709,1068.265 2196.002,1184.989 2196.941 L 1271.138 2197.634 1287.535 2186.783 C 1314.577 2168.887,1325.757 2147.934,1327.387 2112.091 C 1328.994 2076.775,1324.174 2062.324,1302.457 2037.352 C 1278.248 2009.515,1263.431 2004.759,1185.903 1999.939 C 1041.725 1990.977,948.205 1968.165,846.291 1917.100 C 591.060 1789.213,427.511 1545.569,403.192 1257.000 C 390.163 1102.392,432.205 925.223,514.012 790.000 C 684.682 507.888,1005.793 358.948,1329.502 411.753 C 1547.203 447.265,1741.197 571.911,1862.162 754.000 C 1951.163 887.972,1988.834 1007.142,1999.762 1189.281 C 2004.118 1261.887,2009.567 1278.294,2037.352 1302.457 C 2060.454 1322.548,2075.372 1328.000,2107.242 1328.000 C 2140.811 1328.000,2163.997 1317.243,2182.447 1293.109 C 2193.068 1279.217,2195.278 1272.216,2197.504 1245.414 C 2202.085 1190.262,2193.731 1076.702,2180.134 1009.308 C 2116.744 695.109,1924.440 444.836,1638.000 303.753 C 1541.739 256.340,1444.666 226.751,1330.769 210.105 C 1288.016 203.857,1166.813 199.220,1132.000 202.501 M1132.100 711.177 C 1124.455 715.393,1112.755 725.569,1106.100 733.792 L 1094.000 748.741 1094.000 1005.371 C 1094.000 1146.517,1095.401 1268.590,1097.114 1276.644 C 1103.478 1306.565,1133.309 1328.430,1320.901 1440.671 L 1441.004 1512.531 1481.502 1473.041 C 1503.776 1451.322,1528.120 1428.895,1535.600 1423.205 L 1549.200 1412.858 1531.600 1401.734 C 1514.081 1390.661,1351.499 1293.539,1281.000 1252.032 L 1244.000 1230.248 1243.876 1016.124 C 1243.749 795.430,1241.285 749.097,1228.777 732.274 C 1210.621 707.853,1158.681 696.519,1132.100 711.177 M1802.000 1410.608 C 1649.446 1443.058,1522.562 1540.562,1454.861 1677.367 C 1415.530 1756.843,1402.105 1814.195,1402.280 1902.000 C 1402.449 1987.453,1419.711 2057.879,1458.746 2132.375 C 1514.758 2239.270,1617.355 2328.428,1732.000 2369.836 C 1879.149 2422.985,2045.473 2402.295,2177.553 2314.413 C 2219.202 2286.700,2286.700 2219.202,2314.413 2177.553 C 2355.427 2115.912,2382.532 2044.707,2394.182 1968.000 C 2411.816 1851.890,2382.457 1724.713,2314.413 1622.447 C 2287.245 1581.618,2219.331 1513.332,2180.000 1487.301 C 2117.587 1445.992,2045.036 1417.577,1978.263 1408.290 C 1934.093 1402.146,1835.696 1403.441,1802.000 1410.608 M2090.000 1900.124 C 2090.000 1903.397,2025.779 1949.026,1945.000 2003.146 L 1800.000 2100.291 1800.000 1899.940 L 1800.000 1699.588 1945.000 1796.918 C 2025.695 1851.084,2090.000 1896.854,2090.000 1900.124 " fill="#1D1E23" stroke="none" fill-rule="evenodd"/></svg>