<svg viewBox="0 0 2400 2400" fill="none" xmlns="http://www.w3.org/2000/svg"><path d="M1120.000 204.325 C 1039.097 212.178,939.626 233.421,866.850 258.388 C 808.896 278.270,705.658 330.124,651.081 366.765 C 498.953 468.897,370.983 614.780,298.173 769.074 C 253.109 864.570,224.570 962.125,209.423 1072.449 C 199.346 1145.848,200.261 1269.158,211.423 1342.000 C 235.344 1498.101,289.370 1636.887,374.919 1762.000 C 412.532 1817.007,430.312 1838.403,485.798 1895.428 C 604.931 2017.866,727.771 2095.005,887.982 2147.984 C 999.234 2184.773,1064.471 2195.146,1192.562 2196.416 C 1267.696 2197.160,1271.757 2196.803,1285.647 2188.218 C 1345.958 2150.944,1340.419 2048.864,1276.311 2016.159 C 1257.566 2006.596,1249.359 2005.306,1160.000 1997.878 C 1032.757 1987.300,945.408 1965.126,854.000 1920.196 C 593.009 1791.911,429.596 1549.877,403.750 1253.326 C 393.704 1138.057,417.062 1000.790,466.365 885.360 C 541.418 709.644,675.795 569.021,850.000 483.893 C 947.603 436.198,1039.583 411.544,1146.000 404.554 C 1293.452 394.868,1427.946 422.210,1560.000 488.717 C 1716.832 567.704,1835.481 687.375,1915.782 847.565 C 1966.012 947.769,1985.470 1024.999,1998.072 1174.196 C 2005.020 1256.444,2008.405 1270.360,2026.652 1291.677 C 2070.078 1342.412,2153.452 1339.602,2185.981 1286.308 L 2198.000 1266.616 2197.732 1200.308 C 2197.425 1124.393,2191.513 1065.837,2177.509 1000.000 C 2125.429 755.159,1997.079 551.417,1803.238 405.881 C 1748.611 364.867,1699.380 335.216,1630.000 301.541 C 1541.496 258.584,1467.100 234.667,1364.891 216.313 C 1324.102 208.988,1299.257 207.039,1188.000 202.433 C 1169.300 201.658,1138.700 202.510,1120.000 204.325 M1133.008 712.175 C 1123.663 716.934,1110.613 727.651,1104.008 735.990 L 1092.000 751.151 1092.399 938.576 C 1092.619 1041.659,1093.969 1162.366,1095.399 1206.813 L 1098.000 1287.627 1114.000 1304.196 C 1134.711 1325.643,1191.755 1363.207,1329.283 1445.959 L 1440.565 1512.919 1477.283 1477.292 C 1497.477 1457.697,1521.857 1435.090,1531.461 1427.054 L 1548.922 1412.443 1535.461 1404.153 C 1528.057 1399.594,1459.450 1358.546,1383.000 1312.937 L 1244.000 1230.010 1243.857 1028.005 C 1243.711 821.587,1240.957 757.355,1231.406 737.604 C 1224.545 723.419,1195.765 708.482,1169.888 705.678 C 1154.393 703.999,1146.246 705.434,1133.008 712.175 M1796.284 1406.843 C 1788.741 1410.779,1779.119 1418.709,1774.903 1424.464 C 1767.629 1434.394,1767.124 1446.483,1765.004 1661.464 L 1762.770 1888.000 1743.849 1888.000 L 1724.929 1888.000 1723.392 1700.714 C 1722.005 1531.596,1721.185 1512.405,1714.944 1502.879 C 1701.155 1481.834,1656.946 1478.690,1638.214 1497.423 C 1630.190 1505.446,1629.061 1511.737,1626.661 1561.790 C 1625.197 1592.301,1624.000 1705.180,1624.000 1812.632 L 1624.000 2008.000 1608.525 2008.000 L 1593.050 2008.000 1569.973 1951.000 C 1529.123 1850.106,1522.369 1839.655,1486.013 1821.078 C 1461.560 1808.583,1430.376 1806.902,1414.614 1817.230 C 1393.878 1830.817,1399.539 1852.085,1472.846 2036.000 C 1496.960 2096.500,1526.521 2166.415,1538.537 2191.366 C 1557.515 2230.775,1564.690 2241.083,1593.191 2269.876 C 1631.811 2308.892,1672.040 2335.949,1717.304 2353.351 C 1749.832 2365.857,1750.392 2365.922,1826.000 2365.922 C 1901.765 2365.922,1902.102 2365.882,1935.042 2353.225 C 2018.705 2321.076,2079.459 2264.028,2119.824 2179.714 C 2128.701 2161.171,2138.133 2135.200,2140.784 2122.000 C 2148.092 2085.615,2147.978 1626.686,2140.657 1609.343 C 2131.533 1587.730,2092.965 1579.321,2070.494 1594.044 C 2052.236 1606.007,2050.727 1617.419,2048.939 1757.000 L 2047.261 1888.000 2028.079 1888.000 L 2008.897 1888.000 2007.293 1691.000 C 2006.146 1550.125,2004.348 1491.584,2000.983 1485.521 C 1991.021 1467.574,1955.814 1458.789,1933.888 1468.779 C 1910.106 1479.615,1910.115 1479.538,1908.790 1693.000 L 1907.580 1888.000 1888.430 1888.000 L 1869.280 1888.000 1866.640 1791.352 C 1865.188 1738.196,1864.000 1663.784,1864.000 1625.991 C 1864.000 1588.199,1862.812 1527.162,1861.361 1490.355 L 1858.721 1423.432 1846.027 1413.749 C 1828.446 1400.340,1812.887 1398.180,1796.284 1406.843 " fill="#1D1E23" stroke="none" fill-rule="evenodd"/></svg>