<svg viewBox="0 0 2400 2400" fill="none" xmlns="http://www.w3.org/2000/svg"><path d="M1169.94 702.09H1163.94C1123.94 702.09 1091.94 734.09 1091.94 774.09V1246.09C1091.94 1281.09 1109.94 1314.09 1140.94 1332.09L1441.81 1512.61C1473.9 1474.68 1510.62 1440.8 1551.09 1411.82L1241.94 1228.09V774.09C1241.94 734.09 1209.94 702.09 1169.94 702.09ZM1749 1460.53V1575H2225C2266.42 1575 2300 1608.58 2300 1650 2300 1691.42 2266.42 1725 2225 1725H1749V1839.47C1749 1861.77 1722.02 1872.91 1706.29 1857.12L1517.57 1667.64C1507.86 1657.89 1507.86 1642.11 1517.57 1632.36L1706.29 1442.88C1722.02 1427.09 1749 1438.23 1749 1460.53ZM1575 2000H2051V1885.53C2051 1863.23 2077.98 1852.09 2093.71 1867.88L2282.43 2057.36C2292.14 2067.11 2292.14 2082.89 2282.43 2092.64L2093.71 2282.12C2077.98 2297.91 2051 2286.77 2051 2264.47V2150H1575C1533.58 2150 1500 2116.42 1500 2075 1500 2033.58 1533.58 2000 1575 2000Z" fill="#1D1E23"/><path d="M200 1200C200 648 647 200 1199 200C1752 200 2200 648 2200 1200C2200 1217.81 2199.53 1235.52 2198.61 1253.1C2195.53 1311.86 2132.11 1343.4 2075.86 1326.18C2031.09 1312.48 1998.34 1270.01 1999.67 1223.21C1999.89 1215.5 2000 1207.76 2000 1200C2000 758 1642 400 1200 400C758 400 400 758 400 1200C400 1642 758 2000 1200 2000C1207.77 2000 1215.51 1999.89 1223.23 1999.67C1270.02 1998.34 1312.48 2031.08 1326.18 2075.83C1343.38 2132.06 1311.87 2195.43 1253.15 2198.56C1235.22 2199.52 1217.17 2200 1199 2200C647 2200 200 1752 200 1200Z" fill="#1D1E23"/></svg>