<svg viewBox="0 0 2400 2400" fill="none" xmlns="http://www.w3.org/2000/svg"><path d="M1102.000 206.820 C 1020.100 217.883,926.563 238.994,865.532 260.189 C 814.250 277.998,707.624 331.938,653.042 367.682 C 522.353 453.269,398.628 585.131,326.271 715.942 C 269.014 819.455,226.932 950.367,209.887 1078.000 C 202.248 1135.203,201.157 1252.892,207.737 1310.000 C 237.032 1564.262,357.170 1789.852,552.833 1958.008 C 654.369 2045.269,758.630 2103.648,892.000 2147.917 C 1006.074 2185.782,1086.924 2197.862,1209.717 2195.388 C 1277.596 2194.021,1278.848 2193.836,1292.907 2183.109 C 1340.948 2146.453,1335.416 2055.002,1283.206 2022.723 C 1263.250 2010.385,1245.379 2007.096,1129.094 1994.365 C 1020.323 1982.456,941.989 1961.132,858.000 1920.566 C 622.452 1806.799,464.344 1596.703,415.073 1332.000 C 403.622 1270.480,402.672 1130.397,413.309 1072.000 C 462.371 802.672,619.083 595.784,862.000 479.647 C 1018.183 404.977,1191.883 385.395,1369.097 422.481 C 1486.499 447.050,1612.055 507.915,1709.152 587.329 C 1802.979 664.068,1888.944 780.691,1938.013 897.813 C 1969.018 971.816,1981.025 1026.454,1996.072 1162.000 C 2000.712 1203.800,2006.418 1245.688,2008.751 1255.085 C 2021.306 1305.653,2081.739 1338.632,2134.685 1323.808 C 2160.414 1316.604,2189.525 1288.300,2196.197 1264.000 C 2202.579 1240.755,2195.583 1111.323,2184.198 1042.000 C 2130.738 716.508,1934.693 452.972,1638.000 307.767 C 1509.458 244.857,1408.433 217.335,1272.000 208.061 C 1215.458 204.218,1126.093 203.565,1102.000 206.820 M1148.000 709.036 C 1133.579 712.788,1111.381 727.648,1098.912 741.899 C 1092.255 749.506,1091.890 766.251,1092.912 1016.739 L 1094.000 1283.478 1106.000 1296.110 C 1130.771 1322.184,1206.010 1372.024,1365.182 1467.797 L 1440.363 1513.034 1471.182 1483.449 C 1488.132 1467.178,1512.365 1444.564,1525.034 1433.196 L 1548.068 1412.527 1513.034 1390.989 C 1493.765 1379.144,1425.350 1338.191,1361.000 1299.984 L 1244.000 1230.516 1243.909 1040.258 C 1243.821 854.427,1240.301 763.833,1232.358 742.941 C 1224.356 721.896,1174.931 702.031,1148.000 709.036 M1846.000 1406.436 C 1736.063 1417.673,1629.943 1469.406,1547.903 1551.758 C 1413.425 1686.748,1368.704 1874.549,1427.901 2055.697 C 1453.562 2134.222,1487.769 2186.892,1557.112 2254.649 C 1613.010 2309.268,1647.556 2332.525,1711.174 2358.368 C 1791.321 2390.925,1856.210 2401.435,1940.000 2395.433 C 2128.763 2381.910,2304.088 2246.914,2369.518 2064.714 C 2391.051 2004.751,2394.029 1984.149,2393.620 1898.000 C 2393.273 1825.047,2392.327 1814.653,2382.876 1780.000 C 2356.656 1683.858,2311.018 1606.081,2242.807 1541.287 C 2178.197 1479.913,2086.875 1431.874,2004.436 1415.894 C 1966.401 1408.521,1877.518 1403.215,1846.000 1406.436 M1923.413 1650.570 L 1948.000 1653.140 1948.000 1702.570 L 1948.000 1752.000 1900.318 1752.000 L 1852.637 1752.000 1849.855 1726.022 C 1846.178 1691.688,1850.575 1657.242,1859.283 1652.162 C 1867.189 1647.550,1889.271 1647.001,1923.413 1650.570 M1927.000 1850.592 L 1948.000 1853.114 1948.000 2002.557 L 1948.000 2152.000 1900.630 2152.000 L 1853.259 2152.000 1850.642 2083.000 C 1847.399 1997.506,1847.708 1899.856,1851.296 1876.114 C 1855.351 1849.293,1871.331 1843.905,1927.000 1850.592 " fill="#1D1E23" stroke="none" fill-rule="evenodd"/></svg>