<svg viewBox="0 0 2400 2400" fill="none" xmlns="http://www.w3.org/2000/svg"><path d="M1132.000 202.501 C 963.619 218.370,823.465 261.951,694.000 338.697 C 532.500 434.433,389.311 586.331,307.799 748.386 C 200.285 962.137,172.771 1215.287,231.964 1446.120 C 286.713 1659.624,403.905 1840.846,578.000 1981.218 C 671.413 2056.535,771.162 2110.532,885.372 2147.604 C 999.683 2184.709,1068.265 2196.002,1184.989 2196.941 L 1271.138 2197.634 1287.535 2186.783 C 1314.577 2168.887,1325.757 2147.934,1327.387 2112.091 C 1328.994 2076.775,1324.174 2062.324,1302.457 2037.352 C 1278.248 2009.515,1263.431 2004.759,1185.903 1999.939 C 1041.725 1990.977,948.205 1968.165,846.291 1917.100 C 591.060 1789.213,427.511 1545.569,403.192 1257.000 C 390.163 1102.392,432.205 925.223,514.012 790.000 C 684.682 507.888,1005.793 358.948,1329.502 411.753 C 1547.203 447.265,1741.197 571.911,1862.162 754.000 C 1951.163 887.972,1988.834 1007.142,1999.762 1189.281 C 2004.118 1261.887,2009.567 1278.294,2037.352 1302.457 C 2060.454 1322.548,2075.372 1328.000,2107.242 1328.000 C 2140.811 1328.000,2163.997 1317.243,2182.447 1293.109 C 2193.068 1279.217,2195.278 1272.216,2197.504 1245.414 C 2202.085 1190.262,2193.731 1076.702,2180.134 1009.308 C 2116.744 695.109,1924.440 444.836,1638.000 303.753 C 1541.739 256.340,1444.666 226.751,1330.769 210.105 C 1288.016 203.857,1166.813 199.220,1132.000 202.501 M1132.100 711.177 C 1124.455 715.393,1112.755 725.569,1106.100 733.792 L 1094.000 748.741 1094.000 1005.371 C 1094.000 1146.517,1095.381 1268.481,1097.069 1276.402 C 1103.247 1305.392,1134.568 1328.644,1308.000 1432.993 C 1466.880 1528.586,1570.972 1587.445,1586.201 1590.302 C 1604.918 1593.813,1624.112 1586.332,1641.011 1568.938 C 1664.532 1544.728,1669.545 1522.019,1657.830 1492.741 C 1649.255 1471.311,1622.788 1454.375,1291.000 1258.012 L 1244.000 1230.196 1243.876 1016.098 C 1243.749 795.429,1241.284 749.097,1228.777 732.274 C 1210.621 707.853,1158.681 696.519,1132.100 711.177 M2134.000 1506.223 C 2127.400 1509.619,2103.542 1530.734,2080.982 1553.145 L 2039.963 1593.894 2122.924 1676.925 L 2205.885 1759.957 2241.144 1724.978 C 2279.780 1686.649,2300.000 1659.446,2300.000 1645.796 C 2300.000 1629.802,2189.860 1513.071,2166.327 1504.124 C 2151.982 1498.670,2148.203 1498.916,2134.000 1506.223 M1744.988 1889.012 L 1500.000 2134.024 1500.000 2217.012 L 1500.000 2300.000 1583.012 2300.000 L 1666.024 2300.000 1911.988 2054.012 L 2157.951 1808.024 2076.012 1726.012 C 2030.946 1680.905,1993.151 1644.000,1992.024 1644.000 C 1990.898 1644.000,1879.731 1754.255,1744.988 1889.012 " fill="#1D1E23" stroke="none" fill-rule="evenodd"/></svg>