<svg viewBox="0 0 2400 2400" fill="none" xmlns="http://www.w3.org/2000/svg"><path d="M1100.000 206.614 C 1026.670 217.794,1001.490 222.551,952.000 234.578 C 877.338 252.722,832.730 269.501,755.272 308.575 C 650.651 361.351,577.806 413.894,495.689 495.811 C 359.555 631.613,277.218 775.345,232.187 955.791 C 214.466 1026.802,207.181 1076.272,204.476 1143.961 C 196.985 1331.419,226.785 1479.348,303.998 1638.000 C 350.566 1733.685,400.369 1805.744,472.137 1881.279 C 594.594 2010.163,724.654 2093.131,889.475 2147.508 C 1008.492 2186.773,1079.925 2197.545,1206.325 2195.290 C 1277.996 2194.012,1278.779 2193.902,1292.916 2183.109 C 1339.456 2147.576,1337.265 2062.254,1288.865 2025.338 C 1269.196 2010.336,1249.824 2005.876,1178.000 1999.813 C 1017.315 1986.249,916.329 1957.519,806.000 1893.980 C 583.500 1765.841,440.281 1547.714,408.190 1288.105 C 402.079 1238.672,403.067 1142.967,410.216 1091.710 C 451.382 796.562,645.762 556.280,928.972 450.453 C 1115.018 380.933,1343.729 389.453,1524.560 472.641 C 1709.448 557.694,1841.509 688.544,1926.912 871.302 C 1965.981 954.907,1982.308 1022.715,1995.944 1158.000 C 2000.600 1204.200,2006.096 1248.300,2008.156 1256.000 C 2026.861 1325.911,2120.874 1351.893,2172.569 1301.438 C 2200.828 1273.857,2201.936 1267.656,2196.622 1166.894 C 2191.464 1069.080,2183.447 1015.805,2162.397 939.440 C 2089.258 674.107,1922.839 461.837,1684.747 330.190 C 1523.281 240.911,1368.895 202.900,1174.419 204.545 C 1138.989 204.844,1105.500 205.776,1100.000 206.614 M1133.326 714.047 C 1121.955 719.736,1107.744 730.824,1101.747 738.687 L 1090.843 752.983 1092.886 1018.774 L 1094.929 1284.566 1110.465 1300.556 C 1132.244 1322.972,1199.760 1367.822,1329.240 1445.885 L 1440.480 1512.951 1473.240 1481.375 C 1491.258 1464.008,1515.550 1441.379,1527.221 1431.089 L 1548.443 1412.380 1533.221 1402.887 C 1524.850 1397.666,1456.350 1356.694,1381.000 1311.840 L 1244.000 1230.285 1243.905 1036.143 C 1243.799 818.346,1240.507 752.110,1229.000 736.232 C 1220.045 723.876,1191.887 709.524,1170.000 706.161 C 1157.455 704.234,1149.535 705.937,1133.326 714.047 M1788.900 1412.017 C 1781.695 1416.410,1773.828 1424.953,1771.416 1431.002 C 1768.514 1438.282,1766.333 1517.395,1764.966 1665.000 L 1762.899 1888.000 1743.450 1888.000 L 1724.000 1888.000 1723.748 1729.000 C 1723.447 1538.749,1721.169 1505.945,1707.543 1495.627 C 1683.629 1477.519,1641.081 1485.188,1631.553 1509.323 C 1627.807 1518.810,1626.141 1583.153,1624.930 1765.000 L 1623.312 2008.000 1608.181 2008.000 L 1593.050 2008.000 1569.976 1951.000 C 1530.698 1853.970,1521.271 1839.329,1487.121 1822.311 C 1447.391 1802.513,1404.000 1810.678,1404.000 1837.952 C 1404.000 1867.606,1516.436 2155.841,1552.789 2219.380 C 1568.232 2246.370,1614.219 2293.133,1647.512 2315.701 C 1706.068 2355.392,1748.685 2367.842,1826.000 2367.842 C 1889.865 2367.842,1916.716 2362.402,1962.000 2340.289 C 2046.006 2299.268,2109.099 2225.380,2136.443 2136.000 C 2145.567 2106.176,2145.621 2104.618,2145.689 1870.000 C 2145.726 1740.200,2144.363 1627.164,2142.661 1618.809 C 2134.651 1579.497,2067.476 1576.555,2055.832 1615.006 C 2053.078 1624.103,2050.437 1680.739,2049.117 1759.000 L 2046.942 1888.000 2027.979 1888.000 L 2009.017 1888.000 2007.253 1691.000 C 2005.998 1550.717,2004.137 1491.509,2000.791 1485.348 C 1989.753 1465.027,1944.020 1458.984,1923.993 1475.202 C 1911.340 1485.448,1908.311 1533.184,1908.143 1725.000 L 1908.000 1888.000 1888.643 1888.000 L 1869.285 1888.000 1866.643 1779.350 C 1865.189 1719.593,1863.779 1633.643,1863.510 1588.350 C 1863.240 1543.058,1861.890 1487.163,1860.510 1464.139 L 1858.000 1422.278 1844.408 1413.139 C 1827.549 1401.803,1806.356 1401.374,1788.900 1412.017 " fill="#1D1E23" stroke="none" fill-rule="evenodd"/></svg>