<svg viewBox="0 0 2400 2400" fill="none" xmlns="http://www.w3.org/2000/svg"><path d="M1068.000 210.403 C 1062.500 211.382,1042.183 214.944,1022.851 218.319 C 902.363 239.354,752.611 299.645,650.044 368.413 C 573.358 419.828,473.490 511.139,416.316 582.116 C 322.566 698.496,252.589 851.812,217.639 1017.404 C 208.955 1058.552,207.052 1080.099,205.221 1158.000 C 201.727 1306.732,211.954 1385.651,250.058 1504.000 C 295.794 1646.053,361.040 1758.260,461.717 1868.000 C 596.407 2014.816,732.075 2100.291,922.000 2157.994 C 1016.265 2186.633,1087.459 2195.810,1216.400 2195.941 C 1274.581 2196.000,1274.860 2195.956,1290.869 2184.359 C 1334.865 2152.489,1338.330 2075.154,1297.588 2034.412 C 1279.786 2016.611,1256.898 2008.480,1211.520 2003.839 C 1067.358 1989.095,1014.025 1979.553,942.000 1955.615 C 688.843 1871.478,494.330 1656.730,425.759 1385.668 C 403.081 1296.021,397.820 1153.967,413.996 1068.000 C 464.176 801.310,618.724 595.714,852.862 484.174 C 1027.590 400.937,1217.744 382.128,1400.897 429.966 C 1584.688 477.970,1750.099 592.490,1851.595 742.000 C 1927.741 854.168,1982.600 1000.673,1994.021 1122.358 L 1996.683 1150.715 1929.341 1153.454 C 1892.304 1154.960,1855.700 1157.618,1848.000 1159.361 C 1835.817 1162.118,1834.105 1163.972,1834.806 1173.650 C 1835.266 1179.996,1844.892 1197.060,1857.223 1213.386 C 1895.107 1263.548,2055.280 1447.231,2087.967 1478.000 L 2100.715 1490.000 2135.143 1454.000 C 2196.664 1389.672,2341.010 1218.115,2360.636 1186.000 C 2364.670 1179.400,2367.977 1171.819,2367.985 1169.154 C 2368.008 1161.819,2342.976 1156.893,2292.000 1154.200 C 2266.700 1152.864,2236.035 1150.790,2223.856 1149.592 L 2201.713 1147.413 2190.551 1076.707 C 2177.509 994.087,2154.535 900.620,2134.551 848.874 C 2084.924 720.374,1988.325 573.973,1894.666 485.317 C 1748.226 346.700,1572.981 256.271,1380.000 219.742 C 1339.969 212.165,1317.392 210.879,1206.000 209.829 C 1135.600 209.166,1073.500 209.424,1068.000 210.403 M1146.987 709.150 C 1138.488 711.217,1123.304 720.597,1111.987 730.771 L 1092.000 748.741 1092.314 925.371 C 1092.486 1022.517,1093.901 1141.664,1095.458 1190.143 C 1098.793 1294.016,1099.014 1294.632,1145.201 1329.062 C 1213.705 1380.128,1517.912 1560.777,1572.597 1582.865 C 1601.670 1594.608,1615.205 1591.599,1639.543 1567.980 C 1665.554 1542.737,1670.075 1509.888,1650.895 1485.503 C 1639.072 1470.473,1573.409 1428.210,1395.913 1321.388 L 1244.062 1230.000 1243.940 1040.000 C 1243.821 854.349,1240.291 763.807,1232.358 742.941 C 1224.254 721.627,1175.323 702.259,1146.987 709.150 " fill="#1D1E23" stroke="none" fill-rule="evenodd"/></svg>