<svg viewBox="0 0 2400 2400" fill="none" xmlns="http://www.w3.org/2000/svg"><path d="M1089.418 208.060 C 954.704 221.204,797.227 276.034,672.000 353.393 C 591.974 402.829,489.111 494.135,421.217 576.000 C 329.879 686.133,259.902 832.643,224.436 988.000 C 205.946 1068.997,203.157 1102.290,205.066 1219.206 C 206.783 1324.337,207.510 1332.964,219.280 1388.000 C 241.039 1489.736,268.722 1570.041,310.381 1652.269 C 358.410 1747.071,414.256 1822.749,497.764 1906.199 C 616.102 2024.454,731.425 2095.706,888.000 2147.304 C 1005.346 2185.975,1055.925 2194.000,1182.298 2194.000 L 1278.595 2194.000 1292.888 2183.109 C 1336.059 2150.213,1338.706 2074.495,1298.105 2033.895 C 1277.516 2013.305,1255.216 2005.767,1204.000 2002.086 C 1038.997 1990.226,934.289 1963.861,828.507 1907.540 C 614.224 1793.451,464.781 1590.000,415.791 1345.671 C 404.878 1291.244,400.497 1160.962,407.726 1105.831 C 438.630 870.141,561.023 668.533,750.106 541.850 C 940.321 414.411,1174.111 371.993,1388.000 426.114 C 1585.791 476.162,1749.205 588.344,1856.886 748.000 C 1928.167 853.687,1983.886 1005.058,1994.186 1121.000 L 1996.940 1152.000 1951.470 1152.318 C 1889.835 1152.749,1841.273 1157.127,1835.641 1162.759 C 1823.785 1174.615,1839.228 1196.256,1957.759 1333.875 C 1997.492 1380.006,2045.617 1434.006,2064.704 1453.875 L 2099.408 1490.000 2120.057 1470.000 C 2168.064 1423.503,2339.186 1222.001,2358.734 1188.951 C 2376.565 1158.803,2374.207 1157.823,2270.783 1152.414 C 2233.813 1150.481,2202.944 1148.247,2202.184 1147.450 C 2201.424 1146.652,2196.022 1113.736,2190.178 1074.302 C 2178.229 993.661,2159.814 917.316,2138.006 858.000 C 2101.681 759.198,2033.124 641.154,1964.937 560.000 C 1808.943 374.343,1577.944 245.524,1344.000 213.728 C 1292.029 206.665,1138.702 203.251,1089.418 208.060 M1133.326 714.047 C 1121.955 719.736,1107.771 730.790,1101.805 738.611 L 1090.960 752.830 1093.174 1007.415 C 1094.743 1187.777,1096.794 1266.989,1100.210 1279.114 C 1106.019 1299.736,1125.536 1318.025,1180.000 1353.887 C 1266.247 1410.676,1514.534 1556.503,1565.908 1580.544 C 1596.066 1594.657,1606.743 1593.836,1632.116 1575.456 C 1664.878 1551.724,1672.955 1508.306,1649.321 1482.973 C 1632.991 1465.469,1577.855 1430.215,1400.740 1324.030 L 1244.000 1230.059 1243.905 1036.030 C 1243.799 818.343,1240.506 752.108,1229.000 736.232 C 1220.045 723.876,1191.887 709.524,1170.000 706.161 C 1157.455 704.234,1149.535 705.937,1133.326 714.047 " fill="#1D1E23" stroke="none" fill-rule="evenodd"/></svg>