<svg viewBox="0 0 2400 2400" fill="none" xmlns="http://www.w3.org/2000/svg"><path d="M1044.000 104.033 C 979.749 106.401,967.811 107.881,953.387 115.264 C 916.498 134.146,894.942 179.088,903.797 218.655 C 909.886 245.862,930.082 275.182,949.772 285.401 C 971.179 296.510,1033.640 299.478,1252.000 299.763 L 1430.000 299.995 1452.000 282.708 C 1504.044 241.815,1512.517 180.757,1472.476 135.153 C 1450.531 110.159,1440.746 107.721,1346.690 103.806 C 1252.261 99.877,1154.782 99.950,1044.000 104.033 M1079.602 409.859 C 953.421 430.543,852.877 465.323,752.000 523.180 C 596.590 612.313,471.799 746.329,391.805 910.000 C 267.069 1165.215,270.467 1452.326,401.273 1710.000 C 536.326 1976.039,801.275 2158.745,1103.237 2194.068 C 1301.704 2217.284,1522.105 2164.293,1689.541 2053.104 C 1804.994 1976.436,1922.071 1851.122,1985.802 1736.000 C 2115.859 1501.068,2133.830 1216.362,2034.240 968.606 C 2005.234 896.444,1969.242 830.405,1926.363 770.668 L 1903.873 739.337 1938.414 702.668 C 1957.412 682.501,1978.239 658.332,1984.697 648.960 C 2018.711 599.599,2004.462 534.513,1954.264 509.954 C 1934.956 500.507,1928.343 499.310,1902.640 500.608 C 1876.721 501.917,1870.554 503.840,1851.580 516.529 C 1839.711 524.466,1814.255 545.751,1795.012 563.830 L 1760.024 596.699 1741.012 582.827 C 1624.280 497.652,1467.101 431.691,1338.078 413.733 C 1274.985 404.952,1123.393 402.680,1079.602 409.859 M1332.000 615.779 C 1394.574 627.507,1450.522 646.890,1511.928 678.114 C 1595.160 720.437,1619.458 738.318,1690.378 809.440 C 1763.510 882.779,1781.265 907.493,1825.848 998.000 C 1883.721 1115.489,1894.075 1167.114,1890.830 1322.000 C 1887.938 1460.068,1880.017 1493.205,1821.986 1610.000 C 1782.281 1689.913,1754.140 1729.164,1690.761 1793.033 C 1631.559 1852.692,1586.383 1885.828,1515.761 1921.394 C 1394.365 1982.530,1276.598 2006.387,1147.624 1995.970 C 972.255 1981.805,829.217 1914.584,703.232 1787.128 C 649.469 1732.737,616.973 1687.801,582.057 1619.567 C 548.771 1554.515,528.709 1498.865,515.884 1436.000 C 507.999 1397.353,507.470 1385.219,509.251 1284.000 C 511.797 1139.308,518.487 1110.714,578.221 989.182 C 623.460 897.139,664.302 844.298,745.760 772.421 C 789.024 734.246,807.953 720.938,856.000 694.923 C 944.271 647.127,1025.084 618.570,1100.659 608.464 C 1150.509 601.799,1279.102 605.865,1332.000 615.779 M1157.971 813.189 C 1131.745 825.685,1113.750 846.750,1105.728 874.343 C 1100.026 893.957,1099.410 922.332,1100.622 1109.325 L 1102.000 1322.000 1111.312 1340.907 C 1134.853 1388.705,1195.233 1411.530,1238.466 1388.973 C 1262.570 1376.397,1279.189 1361.166,1289.175 1342.497 C 1297.904 1326.179,1298.012 1323.741,1299.148 1118.000 C 1300.412 888.914,1298.932 866.873,1280.772 844.335 C 1250.455 806.710,1198.973 793.653,1157.971 813.189 " fill="#1D1E23" stroke="none" fill-rule="evenodd"/></svg>