<svg viewBox="0 0 2400 2400" fill="none" xmlns="http://www.w3.org/2000/svg"><path d="M1106.000 206.560 C 1031.122 215.077,918.393 240.909,854.449 264.204 C 807.438 281.330,707.155 332.376,657.671 364.367 C 517.001 455.310,384.791 600.308,310.598 745.012 C 258.522 846.580,219.535 976.996,208.238 1087.424 C 202.138 1147.051,203.024 1261.704,210.049 1321.762 C 230.528 1496.832,306.677 1680.361,415.114 1816.000 C 449.272 1858.726,509.022 1920.356,552.579 1957.790 C 654.382 2045.280,758.511 2103.608,892.000 2147.917 C 1006.074 2185.782,1086.924 2197.862,1209.717 2195.388 C 1277.596 2194.021,1278.848 2193.836,1292.907 2183.109 C 1340.948 2146.453,1335.416 2055.002,1283.206 2022.723 C 1263.250 2010.385,1245.379 2007.096,1129.094 1994.365 C 1020.323 1982.456,941.989 1961.132,858.000 1920.566 C 590.967 1791.592,418.166 1529.432,405.453 1234.000 C 395.387 1000.083,482.374 783.562,650.537 623.953 C 843.705 440.612,1105.276 367.271,1369.097 422.481 C 1486.499 447.050,1612.055 507.915,1709.152 587.329 C 1802.979 664.068,1888.944 780.691,1938.013 897.813 C 1969.018 971.816,1981.025 1026.454,1996.072 1162.000 C 2000.712 1203.800,2006.418 1245.688,2008.751 1255.085 C 2014.865 1279.714,2031.454 1300.254,2056.308 1313.973 C 2084.358 1329.455,2124.464 1330.796,2150.379 1317.117 C 2172.195 1305.601,2190.604 1283.955,2196.357 1263.053 C 2202.647 1240.198,2194.847 1101.794,2183.497 1034.860 C 2162.801 912.810,2111.999 779.044,2045.535 671.597 C 1967.956 546.182,1846.013 426.218,1719.705 351.057 C 1593.377 275.884,1468.876 231.651,1334.000 214.024 C 1286.898 207.868,1137.497 202.977,1106.000 206.560 M1148.000 709.036 C 1133.579 712.788,1111.381 727.648,1098.912 741.899 C 1092.255 749.506,1091.890 766.251,1092.912 1016.739 L 1094.000 1283.478 1106.000 1296.110 C 1130.771 1322.184,1206.010 1372.024,1365.182 1467.797 L 1440.363 1513.034 1471.182 1483.449 C 1488.132 1467.178,1512.365 1444.564,1525.034 1433.196 L 1548.068 1412.527 1513.034 1390.989 C 1493.765 1379.144,1425.350 1338.191,1361.000 1299.984 L 1244.000 1230.516 1243.909 1040.258 C 1243.821 854.427,1240.301 763.833,1232.358 742.941 C 1224.356 721.896,1174.931 702.031,1148.000 709.036 M1709.178 1447.607 C 1688.342 1462.700,1526.975 1624.968,1520.186 1637.653 C 1517.321 1643.005,1516.031 1651.579,1517.318 1656.706 C 1520.036 1667.535,1704.593 1851.530,1721.081 1859.848 C 1728.494 1863.588,1733.490 1864.110,1736.176 1861.424 C 1742.705 1854.895,1747.952 1813.043,1747.977 1767.297 L 1748.000 1724.594 1993.000 1723.297 L 2238.000 1722.000 2257.791 1712.000 C 2281.243 1700.150,2291.424 1683.182,2294.819 1650.285 C 2296.840 1630.709,2295.828 1626.133,2286.291 1611.722 C 2280.065 1602.314,2269.537 1592.891,2261.498 1589.533 C 2243.063 1581.830,2090.186 1576.215,1895.544 1576.092 L 1749.087 1576.000 1747.021 1517.000 C 1744.928 1457.204,1740.655 1436.000,1730.699 1436.000 C 1727.675 1436.000,1717.990 1441.223,1709.178 1447.607 M2061.620 1868.420 C 2054.981 1875.756,2053.818 1884.681,2052.588 1937.772 L 2051.175 1998.704 1798.588 2001.296 L 1546.000 2003.888 1527.635 2023.532 C 1504.629 2048.141,1496.759 2072.010,1504.183 2094.656 C 1511.218 2116.115,1519.334 2127.450,1532.563 2134.291 C 1548.249 2142.403,1641.847 2146.940,1864.423 2150.379 L 2046.846 2153.197 2049.304 2195.599 C 2051.965 2241.495,2058.053 2279.653,2063.600 2285.200 C 2071.121 2292.721,2097.095 2271.737,2173.520 2196.394 C 2259.601 2111.533,2284.000 2083.846,2284.000 2071.026 C 2284.000 2057.742,2085.590 1860.000,2072.261 1860.000 C 2070.599 1860.000,2065.811 1863.789,2061.620 1868.420 " fill="#1D1E23" stroke="none" fill-rule="evenodd"/></svg>