<svg viewBox="0 0 2400 2400" fill="none" xmlns="http://www.w3.org/2000/svg"><path d="M1132.000 202.501 C 963.619 218.370,823.465 261.951,694.000 338.697 C 532.500 434.433,389.311 586.331,307.799 748.386 C 200.285 962.137,172.771 1215.287,231.964 1446.120 C 286.713 1659.624,403.905 1840.846,578.000 1981.218 C 671.413 2056.535,771.162 2110.532,885.372 2147.604 C 999.683 2184.709,1068.265 2196.002,1184.989 2196.941 L 1271.138 2197.634 1287.535 2186.783 C 1314.577 2168.887,1325.757 2147.934,1327.387 2112.091 C 1328.994 2076.775,1324.174 2062.324,1302.457 2037.352 C 1278.248 2009.515,1263.431 2004.759,1185.903 1999.939 C 1041.725 1990.977,948.205 1968.165,846.291 1917.100 C 591.060 1789.213,427.511 1545.569,403.192 1257.000 C 390.163 1102.392,432.205 925.223,514.012 790.000 C 684.682 507.888,1005.793 358.948,1329.502 411.753 C 1547.203 447.265,1741.197 571.911,1862.162 754.000 C 1951.163 887.972,1988.834 1007.142,1999.762 1189.281 C 2004.118 1261.887,2009.567 1278.294,2037.352 1302.457 C 2060.454 1322.548,2075.372 1328.000,2107.242 1328.000 C 2140.811 1328.000,2163.997 1317.243,2182.447 1293.109 C 2193.068 1279.217,2195.278 1272.216,2197.504 1245.414 C 2202.085 1190.262,2193.731 1076.702,2180.134 1009.308 C 2116.744 695.109,1924.440 444.836,1638.000 303.753 C 1541.739 256.340,1444.666 226.751,1330.769 210.105 C 1288.016 203.857,1166.813 199.220,1132.000 202.501 M1132.100 711.177 C 1124.455 715.393,1112.755 725.569,1106.100 733.792 L 1094.000 748.741 1094.000 1005.371 C 1094.000 1146.517,1095.401 1268.590,1097.114 1276.644 C 1103.478 1306.565,1133.309 1328.430,1320.901 1440.671 L 1441.004 1512.531 1481.502 1473.041 C 1503.776 1451.322,1528.120 1428.895,1535.600 1423.205 L 1549.200 1412.858 1531.600 1401.734 C 1514.081 1390.661,1351.499 1293.539,1281.000 1252.032 L 1244.000 1230.248 1243.876 1016.124 C 1243.749 795.430,1241.285 749.097,1228.777 732.274 C 1210.621 707.853,1158.681 696.519,1132.100 711.177 M1800.000 1410.447 C 1629.875 1447.377,1488.628 1570.185,1430.167 1732.000 C 1376.926 1879.365,1397.685 2045.444,1485.922 2178.056 C 1513.801 2219.956,1580.253 2286.337,1622.371 2314.362 C 1724.716 2382.460,1851.854 2411.821,1968.000 2394.182 C 2081.396 2376.960,2171.013 2331.817,2251.415 2251.415 C 2331.817 2171.013,2376.960 2081.396,2394.182 1968.000 C 2411.816 1851.890,2382.457 1724.713,2314.413 1622.447 C 2287.245 1581.618,2219.331 1513.332,2180.000 1487.301 C 2117.587 1445.992,2045.036 1417.577,1978.263 1408.290 C 1935.220 1402.303,1831.749 1403.555,1800.000 1410.447 M1949.834 1558.125 C 2045.565 1583.060,2111.711 1680.189,2096.341 1773.258 C 2089.738 1813.239,2074.270 1838.963,2023.738 1894.000 C 1974.683 1947.428,1957.919 1975.601,1954.067 2011.084 C 1949.199 2055.929,1954.398 2052.000,1899.924 2052.000 L 1852.000 2052.000 1852.000 2026.197 C 1852.000 1958.358,1868.694 1926.378,1949.062 1840.257 C 1968.698 1819.216,1987.051 1797.500,1989.847 1792.000 C 2004.630 1762.921,1999.717 1718.739,1978.626 1691.087 C 1930.791 1628.372,1831.594 1644.703,1806.112 1719.489 C 1802.750 1729.354,1800.000 1740.704,1800.000 1744.713 C 1800.000 1751.374,1795.704 1752.000,1750.000 1752.000 L 1700.000 1752.000 1700.000 1742.197 C 1700.000 1736.805,1702.025 1722.855,1704.500 1711.197 C 1719.591 1640.122,1783.830 1572.141,1850.794 1556.382 C 1875.217 1550.635,1924.400 1551.500,1949.834 1558.125 M1933.000 2150.567 L 1948.000 2153.047 1948.000 2202.523 L 1948.000 2252.000 1900.523 2252.000 L 1853.047 2252.000 1850.567 2237.000 C 1845.996 2209.345,1847.588 2152.833,1853.000 2150.649 C 1860.256 2147.721,1915.439 2147.665,1933.000 2150.567 " fill="#1D1E23" stroke="none" fill-rule="evenodd"/></svg>