<svg viewBox="0 0 2400 2400" fill="none" xmlns="http://www.w3.org/2000/svg"><path d="M1106.000 206.560 C 1031.122 215.077,918.393 240.909,854.449 264.204 C 807.438 281.330,707.155 332.376,657.671 364.367 C 517.001 455.310,384.791 600.308,310.598 745.012 C 258.522 846.580,219.535 976.996,208.238 1087.424 C 202.138 1147.051,203.024 1261.704,210.049 1321.762 C 230.528 1496.832,306.677 1680.361,415.114 1816.000 C 449.272 1858.726,509.022 1920.356,552.579 1957.790 C 654.382 2045.280,758.511 2103.608,892.000 2147.917 C 1006.074 2185.782,1086.924 2197.862,1209.717 2195.388 C 1277.596 2194.021,1278.848 2193.836,1292.907 2183.109 C 1340.948 2146.453,1335.416 2055.002,1283.206 2022.723 C 1263.250 2010.385,1245.379 2007.096,1129.094 1994.365 C 1020.323 1982.456,941.989 1961.132,858.000 1920.566 C 590.967 1791.592,418.166 1529.432,405.453 1234.000 C 395.387 1000.083,482.374 783.562,650.537 623.953 C 843.705 440.612,1105.276 367.271,1369.097 422.481 C 1486.499 447.050,1612.055 507.915,1709.152 587.329 C 1802.979 664.068,1888.944 780.691,1938.013 897.813 C 1969.018 971.816,1981.025 1026.454,1996.072 1162.000 C 2000.712 1203.800,2006.418 1245.688,2008.751 1255.085 C 2014.865 1279.714,2031.454 1300.254,2056.308 1313.973 C 2084.358 1329.455,2124.464 1330.796,2150.379 1317.117 C 2172.195 1305.601,2190.604 1283.955,2196.357 1263.053 C 2202.647 1240.198,2194.847 1101.794,2183.497 1034.860 C 2162.801 912.810,2111.999 779.044,2045.535 671.597 C 1967.956 546.182,1846.013 426.218,1719.705 351.057 C 1593.377 275.884,1468.876 231.651,1334.000 214.024 C 1286.898 207.868,1137.497 202.977,1106.000 206.560 M1148.000 709.036 C 1133.579 712.788,1111.381 727.648,1098.912 741.899 C 1092.255 749.506,1091.890 766.251,1092.912 1016.739 L 1094.000 1283.478 1106.000 1296.110 C 1130.771 1322.184,1206.010 1372.024,1365.182 1467.797 L 1440.363 1513.034 1471.182 1483.449 C 1488.132 1467.178,1512.365 1444.564,1525.034 1433.196 L 1548.068 1412.527 1513.034 1390.989 C 1493.765 1379.144,1425.350 1338.191,1361.000 1299.984 L 1244.000 1230.516 1243.909 1040.258 C 1243.821 854.427,1240.301 763.833,1232.358 742.941 C 1224.356 721.896,1174.931 702.031,1148.000 709.036 M1792.792 1410.477 C 1766.752 1423.733,1767.376 1418.034,1764.966 1664.624 L 1762.784 1888.000 1743.392 1888.000 L 1724.000 1888.000 1723.929 1733.000 C 1723.890 1647.750,1722.167 1561.800,1720.101 1542.000 C 1716.833 1510.681,1714.992 1504.830,1705.949 1497.000 C 1690.860 1483.936,1656.798 1484.257,1641.274 1497.610 C 1630.211 1507.126,1630.075 1507.819,1627.388 1568.610 C 1625.895 1602.374,1624.522 1715.050,1624.337 1819.000 L 1624.000 2008.000 1608.498 2008.000 L 1592.996 2008.000 1567.590 1945.304 C 1553.617 1910.821,1536.743 1873.543,1530.092 1862.462 C 1511.258 1831.084,1477.593 1812.000,1441.075 1812.000 C 1422.156 1812.000,1403.994 1824.394,1404.013 1837.290 C 1404.049 1860.288,1494.765 2099.670,1536.652 2187.298 C 1553.057 2221.617,1561.936 2234.375,1589.196 2262.791 C 1639.065 2314.775,1683.822 2343.738,1737.355 2358.670 C 1766.487 2366.795,1851.534 2370.009,1887.713 2364.352 C 1987.881 2348.690,2087.181 2263.912,2128.438 2158.834 C 2140.906 2127.079,2141.443 2123.239,2144.776 2042.000 C 2146.671 1995.800,2147.051 1880.831,2145.620 1786.513 L 2143.017 1615.026 2131.837 1602.513 C 2121.851 1591.337,2118.280 1590.000,2098.419 1590.000 C 2079.645 1590.000,2074.516 1591.666,2065.482 1600.700 C 2055.358 1610.824,2054.610 1614.273,2051.603 1664.700 C 2049.854 1694.015,2048.329 1756.250,2048.212 1803.000 L 2048.000 1888.000 2028.543 1888.000 L 2009.086 1888.000 2007.029 1691.000 C 2005.899 1582.650,2003.636 1490.783,2002.002 1486.852 C 1997.327 1475.606,1978.287 1467.989,1955.199 1468.127 C 1930.589 1468.275,1921.426 1473.877,1915.254 1492.551 C 1912.354 1501.324,1910.185 1572.405,1909.017 1697.000 L 1907.226 1888.000 1888.258 1888.000 L 1869.290 1888.000 1866.645 1767.348 C 1865.190 1700.990,1864.000 1618.473,1864.000 1583.976 C 1864.000 1549.480,1862.819 1499.296,1861.376 1472.456 C 1858.796 1424.468,1858.560 1423.519,1847.189 1415.422 C 1831.416 1404.191,1809.122 1402.164,1792.792 1410.477 " fill="#1D1E23" stroke="none" fill-rule="evenodd"/></svg>