<svg viewBox="0 0 2400 2400" fill="none" xmlns="http://www.w3.org/2000/svg"><path d="M1120.000 204.325 C 1039.097 212.178,939.626 233.421,866.850 258.388 C 808.896 278.270,705.658 330.124,651.081 366.765 C 498.953 468.897,370.983 614.780,298.173 769.074 C 253.109 864.570,224.570 962.125,209.423 1072.449 C 199.346 1145.848,200.261 1269.158,211.423 1342.000 C 235.344 1498.101,289.370 1636.887,374.919 1762.000 C 412.532 1817.007,430.312 1838.403,485.798 1895.428 C 604.931 2017.866,727.771 2095.005,887.982 2147.984 C 999.234 2184.773,1064.471 2195.146,1192.562 2196.416 C 1267.696 2197.160,1271.757 2196.803,1285.647 2188.218 C 1345.958 2150.944,1340.419 2048.864,1276.311 2016.159 C 1257.566 2006.596,1249.359 2005.306,1160.000 1997.878 C 1032.757 1987.300,945.408 1965.126,854.000 1920.196 C 593.009 1791.911,429.596 1549.877,403.750 1253.326 C 393.704 1138.057,417.062 1000.790,466.365 885.360 C 541.418 709.644,675.795 569.021,850.000 483.893 C 947.603 436.198,1039.583 411.544,1146.000 404.554 C 1293.452 394.868,1427.946 422.210,1560.000 488.717 C 1716.832 567.704,1835.481 687.375,1915.782 847.565 C 1966.012 947.769,1985.470 1024.999,1998.072 1174.196 C 2005.020 1256.444,2008.405 1270.360,2026.652 1291.677 C 2070.078 1342.412,2153.452 1339.602,2185.981 1286.308 L 2198.000 1266.616 2197.732 1200.308 C 2197.425 1124.393,2191.513 1065.837,2177.509 1000.000 C 2125.429 755.159,1997.079 551.417,1803.238 405.881 C 1748.611 364.867,1699.380 335.216,1630.000 301.541 C 1541.496 258.584,1467.100 234.667,1364.891 216.313 C 1324.102 208.988,1299.257 207.039,1188.000 202.433 C 1169.300 201.658,1138.700 202.510,1120.000 204.325 M1133.008 712.175 C 1123.663 716.934,1110.339 727.997,1103.399 736.759 L 1090.781 752.691 1092.982 1013.754 C 1095.402 1300.838,1093.989 1285.693,1120.659 1310.319 C 1148.627 1336.145,1214.174 1377.931,1389.524 1481.723 C 1506.431 1550.921,1583.155 1592.000,1595.492 1592.000 C 1607.213 1592.000,1631.909 1579.079,1642.532 1567.389 C 1663.427 1544.396,1668.844 1519.337,1658.350 1494.222 C 1650.323 1475.010,1620.680 1455.245,1419.022 1334.645 L 1244.044 1230.000 1243.880 1028.000 C 1243.711 821.551,1240.953 757.346,1231.406 737.604 C 1224.545 723.419,1195.765 708.482,1169.888 705.678 C 1154.393 703.999,1146.246 705.434,1133.008 712.175 M2132.582 1508.210 C 2125.203 1512.709,2101.270 1533.754,2079.399 1554.977 L 2039.634 1593.564 2122.752 1676.753 L 2205.870 1759.942 2235.211 1730.971 C 2269.850 1696.769,2300.000 1658.141,2300.000 1647.963 C 2300.000 1632.787,2211.141 1534.783,2176.693 1511.965 C 2155.330 1497.815,2150.330 1497.390,2132.582 1508.210 M1744.988 1889.012 L 1500.000 2134.024 1500.000 2217.012 L 1500.000 2300.000 1583.012 2300.000 L 1666.024 2300.000 1911.988 2054.012 L 2157.951 1808.024 2076.012 1726.012 C 2030.946 1680.905,1993.151 1644.000,1992.024 1644.000 C 1990.898 1644.000,1879.731 1754.255,1744.988 1889.012 " fill="#1D1E23" stroke="none" fill-rule="evenodd"/></svg>