<svg viewBox="0 0 2400 2400" fill="none" xmlns="http://www.w3.org/2000/svg"><path d="M1053.559 212.045 C 874.354 239.181,699.880 317.258,563.795 431.214 C 512.700 474.000,434.209 556.245,397.213 605.763 C 296.178 740.995,230.457 906.545,207.361 1084.000 C 200.989 1132.952,200.989 1267.048,207.361 1316.000 C 224.961 1451.229,269.038 1585.023,331.987 1694.300 C 435.392 1873.806,608.107 2031.211,788.304 2110.167 C 844.555 2134.814,935.948 2164.969,992.000 2177.375 C 1054.404 2191.188,1099.791 2195.496,1192.562 2196.416 C 1267.696 2197.160,1271.757 2196.803,1285.647 2188.218 C 1345.851 2151.010,1340.403 2048.654,1276.497 2016.313 C 1257.330 2006.613,1248.055 2005.015,1182.000 2000.037 C 1037.552 1989.152,943.513 1965.676,842.986 1915.406 C 623.330 1805.564,463.079 1593.008,416.002 1349.058 C 355.692 1036.541,489.596 714.879,753.435 538.479 C 900.598 440.087,1094.105 388.652,1260.000 403.830 C 1508.634 426.579,1729.658 554.693,1860.666 752.000 C 1931.746 859.050,1984.664 1004.242,1994.219 1118.427 L 1996.933 1150.854 1920.564 1152.856 C 1867.456 1154.249,1842.338 1156.400,1838.097 1159.919 C 1821.843 1173.409,1830.855 1186.776,1947.370 1322.000 C 2054.870 1446.762,2092.934 1488.000,2100.592 1488.000 C 2105.791 1488.000,2131.970 1460.473,2193.408 1390.406 C 2303.125 1265.278,2368.000 1184.083,2368.000 1171.893 C 2368.000 1157.855,2357.889 1155.638,2280.613 1152.732 C 2238.772 1151.158,2203.463 1148.797,2202.151 1147.484 C 2200.838 1146.171,2196.262 1118.894,2191.983 1086.868 C 2178.494 985.927,2161.833 918.766,2130.229 837.938 C 2067.648 677.889,1962.216 533.526,1830.000 426.849 C 1703.061 324.429,1544.806 250.058,1390.401 220.261 C 1299.283 202.677,1140.931 198.814,1053.559 212.045 M1133.008 712.175 C 1123.663 716.934,1110.339 727.997,1103.399 736.759 L 1090.781 752.691 1092.982 1013.754 C 1095.402 1300.838,1093.989 1285.693,1120.659 1310.319 C 1148.627 1336.145,1214.174 1377.931,1389.524 1481.723 C 1506.431 1550.921,1583.155 1592.000,1595.492 1592.000 C 1607.213 1592.000,1631.909 1579.079,1642.532 1567.389 C 1663.427 1544.396,1668.844 1519.337,1658.350 1494.222 C 1650.323 1475.010,1620.680 1455.245,1419.022 1334.645 L 1244.044 1230.000 1243.880 1028.000 C 1243.711 821.551,1240.953 757.346,1231.406 737.604 C 1224.545 723.419,1195.765 708.482,1169.888 705.678 C 1154.393 703.999,1146.246 705.434,1133.008 712.175 " fill="#1D1E23" stroke="none" fill-rule="evenodd"/></svg>