<svg viewBox="0 0 2400 2400" fill="none" xmlns="http://www.w3.org/2000/svg"><path d="M1102.000 206.820 C 1020.100 217.883,926.563 238.994,865.532 260.189 C 814.250 277.998,707.624 331.938,653.042 367.682 C 522.353 453.269,398.628 585.131,326.271 715.942 C 268.618 820.171,226.775 950.798,209.655 1080.000 C 200.897 1146.095,200.887 1261.776,209.634 1328.000 C 241.968 1572.818,362.863 1794.745,552.833 1958.008 C 654.369 2045.269,758.630 2103.648,892.000 2147.917 C 1006.074 2185.782,1086.924 2197.862,1209.717 2195.388 C 1277.596 2194.021,1278.848 2193.836,1292.907 2183.109 C 1340.948 2146.453,1335.416 2055.002,1283.206 2022.723 C 1263.250 2010.385,1245.379 2007.096,1129.094 1994.365 C 1020.323 1982.456,941.989 1961.132,858.000 1920.566 C 622.452 1806.799,464.344 1596.703,415.073 1332.000 C 403.622 1270.480,402.672 1130.397,413.309 1072.000 C 462.371 802.672,619.083 595.784,862.000 479.647 C 1018.183 404.977,1191.883 385.395,1369.097 422.481 C 1486.499 447.050,1612.055 507.915,1709.152 587.329 C 1802.979 664.068,1888.944 780.691,1938.013 897.813 C 1969.018 971.816,1981.025 1026.454,1996.072 1162.000 C 2000.712 1203.800,2006.418 1245.688,2008.751 1255.085 C 2021.306 1305.653,2081.739 1338.632,2134.685 1323.808 C 2160.414 1316.604,2189.525 1288.300,2196.197 1264.000 C 2202.579 1240.755,2195.583 1111.323,2184.198 1042.000 C 2130.738 716.508,1934.693 452.972,1638.000 307.767 C 1509.458 244.857,1408.433 217.335,1272.000 208.061 C 1215.458 204.218,1126.093 203.565,1102.000 206.820 M1148.000 709.036 C 1133.579 712.788,1111.381 727.648,1098.912 741.899 C 1092.255 749.506,1091.890 766.251,1092.912 1016.739 L 1094.000 1283.478 1106.000 1296.110 C 1130.771 1322.184,1206.010 1372.024,1365.182 1467.797 L 1440.363 1513.034 1471.182 1483.449 C 1488.132 1467.178,1512.365 1444.564,1525.034 1433.196 L 1548.068 1412.527 1513.034 1390.989 C 1493.765 1379.144,1425.350 1338.191,1361.000 1299.984 L 1244.000 1230.516 1243.909 1040.258 C 1243.821 854.427,1240.301 763.833,1232.358 742.941 C 1224.356 721.896,1174.931 702.031,1148.000 709.036 M1792.452 1414.179 C 1638.236 1447.635,1494.119 1571.115,1438.261 1717.651 C 1407.034 1799.569,1405.986 1805.455,1406.140 1898.000 C 1406.265 1972.826,1407.284 1985.713,1415.471 2016.000 C 1460.180 2181.398,1579.878 2313.709,1735.286 2369.518 C 1795.338 2391.083,1815.754 2394.017,1904.000 2393.771 C 1981.715 2393.553,1987.881 2392.966,2022.000 2382.541 C 2072.806 2367.017,2117.518 2348.555,2154.325 2327.902 C 2179.118 2313.989,2198.666 2297.512,2244.296 2252.064 C 2307.805 2188.809,2329.368 2158.756,2356.647 2095.483 C 2386.306 2026.689,2392.715 1997.825,2394.993 1922.801 C 2397.414 1843.082,2393.452 1813.163,2371.668 1746.634 C 2343.969 1662.040,2300.900 1594.521,2237.696 1536.606 C 2173.427 1477.715,2075.292 1427.590,1997.809 1414.078 C 1952.874 1406.243,1828.754 1406.303,1792.452 1414.179 M1962.000 1809.395 C 2023.060 1851.190,2065.026 1881.019,2087.708 1898.748 C 2091.064 1901.371,1989.237 1973.906,1879.000 2047.418 L 1800.000 2100.100 1800.000 1899.960 L 1800.000 1699.821 1843.000 1728.597 C 1866.650 1744.424,1920.200 1780.783,1962.000 1809.395 " fill="#1D1E23" stroke="none" fill-rule="evenodd"/></svg>