<svg viewBox="0 0 2400 2400" fill="none" xmlns="http://www.w3.org/2000/svg"><path d="M996.000 103.662 C 958.734 106.566,934.248 119.706,916.683 146.224 C 887.605 190.123,900.515 253.698,944.406 282.743 C 968.806 298.891,997.276 300.605,1218.660 299.260 L 1426.000 298.000 1444.878 288.702 C 1468.434 277.101,1490.192 248.444,1496.633 220.537 C 1502.726 194.144,1496.658 165.767,1479.976 142.635 C 1460.613 115.784,1445.892 108.126,1405.463 103.873 C 1367.703 99.900,1046.400 99.735,996.000 103.662 M1122.000 404.339 C 999.002 416.927,901.217 445.188,794.941 498.864 C 700.055 546.788,630.996 597.514,555.697 674.599 C 367.498 867.259,275.251 1134.475,306.049 1397.762 C 326.503 1572.618,392.958 1732.027,501.249 1866.000 C 537.986 1911.450,615.113 1985.499,662.000 2020.336 C 888.066 2188.302,1177.131 2242.112,1442.910 2165.705 C 1598.726 2120.910,1718.302 2050.272,1834.518 1934.367 C 1978.070 1791.200,2058.520 1630.239,2092.601 1418.000 C 2100.508 1368.761,2099.303 1228.239,2090.493 1172.000 C 2067.115 1022.779,2010.202 883.684,1925.859 769.635 L 1903.587 739.519 1945.160 696.133 C 1991.440 647.836,2000.711 632.388,2003.197 599.424 C 2008.322 531.479,1951.200 483.879,1883.910 500.022 C 1860.623 505.608,1835.358 524.035,1789.628 568.787 L 1761.256 596.552 1731.354 575.098 C 1617.965 493.746,1484.055 436.920,1351.540 413.922 C 1323.689 409.088,1173.476 398.738,1158.000 400.586 C 1155.800 400.849,1139.600 402.538,1122.000 404.339 M1262.305 604.348 C 1315.830 609.674,1371.002 620.606,1415.760 634.753 C 1456.743 647.708,1554.225 695.680,1598.000 724.436 C 1641.045 752.712,1747.259 858.918,1775.578 902.000 C 1803.022 943.752,1853.056 1045.453,1865.974 1085.741 C 1907.977 1216.747,1907.977 1383.253,1865.974 1514.259 C 1853.056 1554.547,1803.022 1656.248,1775.578 1698.000 C 1746.628 1742.042,1641.163 1847.135,1595.964 1876.980 C 1507.931 1935.110,1420.494 1970.785,1318.000 1990.394 C 1261.750 2001.155,1132.382 2000.148,1072.665 1988.485 C 978.937 1970.178,892.897 1934.706,812.000 1881.018 C 753.066 1841.906,662.117 1752.549,624.294 1696.599 C 594.421 1652.408,557.589 1579.706,540.745 1531.685 C 491.420 1391.063,489.118 1228.308,534.434 1085.607 C 548.017 1042.835,595.343 946.288,624.436 902.000 C 652.712 858.955,758.918 752.741,802.000 724.422 C 842.871 697.557,944.635 647.548,985.584 634.205 C 1071.724 606.137,1171.784 595.341,1262.305 604.348 M1177.328 803.647 C 1158.635 808.380,1131.185 825.607,1121.620 838.609 C 1099.014 869.336,1100.000 857.892,1100.000 1089.604 C 1100.000 1231.798,1101.496 1310.580,1104.457 1324.388 C 1112.141 1360.216,1149.662 1393.091,1189.029 1398.487 C 1226.394 1403.609,1271.806 1379.184,1288.702 1344.878 L 1298.000 1326.000 1298.000 1100.000 L 1298.000 874.000 1288.799 855.321 C 1270.011 817.183,1218.388 793.252,1177.328 803.647 " fill="#1D1E23" stroke="none" fill-rule="evenodd"/></svg>