<svg viewBox="0 0 2400 2400" fill="none" xmlns="http://www.w3.org/2000/svg"><path d="M1100.000 206.614 C 1026.670 217.794,1001.490 222.551,952.000 234.578 C 877.338 252.722,832.730 269.501,755.272 308.575 C 650.651 361.351,577.806 413.894,495.689 495.811 C 359.555 631.613,277.218 775.345,232.187 955.791 C 214.466 1026.802,207.181 1076.272,204.476 1143.961 C 196.985 1331.419,226.785 1479.348,303.998 1638.000 C 350.566 1733.685,400.369 1805.744,472.137 1881.279 C 594.594 2010.163,724.654 2093.131,889.475 2147.508 C 1008.492 2186.773,1079.925 2197.545,1206.325 2195.290 C 1277.996 2194.012,1278.779 2193.902,1292.916 2183.109 C 1339.456 2147.576,1337.265 2062.254,1288.865 2025.338 C 1269.196 2010.336,1249.824 2005.876,1178.000 1999.813 C 1017.315 1986.249,916.329 1957.519,806.000 1893.980 C 583.500 1765.841,440.281 1547.714,408.190 1288.105 C 402.079 1238.672,403.067 1142.967,410.216 1091.710 C 451.382 796.562,645.762 556.280,928.972 450.453 C 1115.018 380.933,1343.729 389.453,1524.560 472.641 C 1709.448 557.694,1841.509 688.544,1926.912 871.302 C 1965.981 954.907,1982.308 1022.715,1995.944 1158.000 C 2000.600 1204.200,2006.096 1248.300,2008.156 1256.000 C 2026.861 1325.911,2120.874 1351.893,2172.569 1301.438 C 2200.828 1273.857,2201.936 1267.656,2196.622 1166.894 C 2191.464 1069.080,2183.447 1015.805,2162.397 939.440 C 2089.258 674.107,1922.839 461.837,1684.747 330.190 C 1523.281 240.911,1368.895 202.900,1174.419 204.545 C 1138.989 204.844,1105.500 205.776,1100.000 206.614 M1133.326 714.047 C 1121.955 719.736,1107.744 730.824,1101.747 738.687 L 1090.843 752.983 1092.886 1018.774 L 1094.929 1284.566 1110.465 1300.556 C 1132.244 1322.972,1199.760 1367.822,1329.240 1445.885 L 1440.480 1512.951 1473.240 1481.375 C 1491.258 1464.008,1515.550 1441.379,1527.221 1431.089 L 1548.443 1412.380 1533.221 1402.887 C 1524.850 1397.666,1456.350 1356.694,1381.000 1311.840 L 1244.000 1230.285 1243.905 1036.143 C 1243.799 818.346,1240.507 752.110,1229.000 736.232 C 1220.045 723.876,1191.887 709.524,1170.000 706.161 C 1157.455 704.234,1149.535 705.937,1133.326 714.047 M1712.000 1444.543 C 1694.359 1455.270,1525.816 1624.841,1518.436 1639.287 C 1515.086 1645.845,1514.177 1653.219,1516.094 1658.301 C 1520.038 1668.757,1674.632 1824.752,1703.359 1847.263 C 1715.107 1856.468,1727.193 1864.000,1730.218 1864.000 C 1741.653 1864.000,1745.546 1845.949,1747.259 1785.000 L 1748.973 1724.000 1975.486 1723.869 C 2100.069 1723.797,2214.434 1722.136,2229.632 1720.179 C 2273.323 1714.550,2291.428 1695.301,2294.872 1650.817 C 2296.651 1627.845,2295.862 1624.725,2284.263 1608.850 C 2277.371 1599.418,2266.843 1589.764,2260.866 1587.397 C 2244.217 1580.803,2112.130 1576.451,1921.486 1576.214 L 1748.973 1576.000 1747.259 1515.000 C 1745.574 1455.029,1741.619 1435.982,1730.859 1436.015 C 1728.187 1436.023,1719.700 1439.861,1712.000 1444.543 M2061.620 1868.420 C 2054.973 1875.764,2053.818 1884.703,2052.573 1938.420 L 2051.145 2000.000 1916.573 2000.007 C 1842.558 2000.011,1729.026 2001.209,1664.280 2002.668 L 1546.561 2005.321 1531.514 2018.915 C 1509.953 2038.394,1498.357 2064.122,1501.705 2085.055 C 1504.946 2105.325,1516.523 2124.802,1530.949 2134.254 C 1543.948 2142.771,1613.538 2145.982,1876.441 2150.192 L 2046.881 2152.922 2049.650 2199.243 C 2052.595 2248.488,2058.316 2282.487,2064.279 2286.173 C 2073.911 2292.125,2103.384 2267.962,2180.757 2190.680 C 2273.603 2097.942,2288.405 2080.412,2284.966 2067.262 C 2282.477 2057.743,2115.219 1889.289,2090.400 1871.304 C 2071.725 1857.772,2071.295 1857.729,2061.620 1868.420 " fill="#1D1E23" stroke="none" fill-rule="evenodd"/></svg>