<svg viewBox="0 0 2400 2400" fill="none" xmlns="http://www.w3.org/2000/svg"><path d="M966.363 106.293 C 943.583 114.639,925.689 129.702,913.089 151.136 C 903.633 167.222,902.000 174.417,902.000 200.000 C 902.000 225.583,903.633 232.778,913.089 248.864 C 919.188 259.240,930.112 272.255,937.364 277.786 C 966.427 299.953,966.977 300.000,1199.790 300.000 C 1442.774 300.000,1439.892 300.319,1470.105 270.105 C 1509.232 230.979,1509.232 169.021,1470.105 129.895 C 1439.826 99.615,1443.019 99.963,1198.287 100.282 C 1021.045 100.513,979.177 101.598,966.363 106.293 M1134.000 402.411 C 1002.331 416.004,909.048 441.479,805.761 492.050 C 623.555 581.262,480.972 723.792,391.660 906.000 C 287.776 1117.937,271.879 1356.518,346.483 1584.000 C 389.346 1714.697,464.798 1836.798,564.000 1936.000 C 663.202 2035.202,785.303 2110.654,916.000 2153.517 C 1105.272 2215.589,1294.728 2215.589,1484.000 2153.517 C 1614.697 2110.654,1736.798 2035.202,1836.000 1936.000 C 1980.493 1791.507,2070.098 1605.676,2094.063 1400.804 C 2119.726 1181.421,2057.947 947.583,1928.033 772.368 L 1903.358 739.089 1945.607 696.215 C 1994.030 647.077,2004.705 628.209,2004.532 592.070 C 2004.402 564.725,1997.777 546.858,1980.453 527.128 C 1952.984 495.841,1905.551 486.975,1865.476 505.635 C 1852.436 511.706,1829.497 530.076,1802.573 556.009 L 1760.195 596.827 1745.097 584.927 C 1716.025 562.013,1649.193 520.238,1606.988 498.598 C 1523.243 455.660,1427.015 424.726,1332.000 410.198 C 1291.273 403.971,1166.442 399.061,1134.000 402.411 M1268.576 604.197 C 1321.638 609.572,1374.364 620.549,1421.034 635.935 C 1472.502 652.904,1562.752 698.786,1607.972 730.973 C 1656.655 765.625,1734.375 843.345,1769.027 892.028 C 1801.203 937.232,1847.095 1027.494,1864.049 1078.918 C 1910.490 1219.786,1910.490 1380.214,1864.049 1521.082 C 1847.095 1572.506,1801.203 1662.768,1769.027 1707.972 C 1734.180 1756.929,1656.222 1834.837,1608.906 1867.991 C 1518.057 1931.647,1424.858 1970.865,1318.000 1990.405 C 1261.934 2000.657,1138.066 2000.657,1082.000 1990.405 C 934.706 1963.471,810.602 1898.635,706.000 1793.972 C 649.620 1737.558,613.984 1688.932,578.503 1620.000 C 491.168 1450.326,476.777 1253.751,538.406 1072.285 C 556.718 1018.366,596.666 940.698,631.119 892.028 C 665.448 843.536,743.149 765.764,792.028 730.973 C 839.627 697.093,928.987 652.200,984.000 634.529 C 1076.889 604.693,1172.685 594.482,1268.576 604.197 M1166.363 806.293 C 1143.583 814.639,1125.689 829.702,1113.089 851.136 L 1102.000 870.000 1100.871 1091.092 C 1100.121 1237.726,1101.168 1317.484,1103.979 1327.924 C 1110.087 1350.605,1131.127 1376.047,1153.149 1387.380 C 1193.162 1407.971,1238.975 1401.235,1270.014 1370.196 C 1300.330 1339.880,1300.000 1342.857,1300.000 1100.000 C 1300.000 857.251,1300.316 860.105,1270.105 829.895 C 1242.868 802.658,1201.791 793.312,1166.363 806.293 " fill="#1D1E23" stroke="none" fill-rule="evenodd"/></svg>