<svg viewBox="0 0 2400 2400" fill="none" xmlns="http://www.w3.org/2000/svg"><path d="M1128.000 202.685 C 1118.100 203.394,1089.300 206.796,1064.000 210.247 C 845.816 240.004,652.338 335.952,495.847 492.000 C 336.806 650.591,244.557 834.804,209.403 1064.000 C 199.571 1128.103,199.571 1271.897,209.403 1336.000 C 233.422 1492.601,281.824 1621.812,362.987 1746.000 C 404.430 1809.414,437.716 1850.026,495.847 1908.105 C 653.587 2065.704,850.018 2161.659,1078.000 2192.481 C 1118.301 2197.930,1256.037 2199.669,1272.927 2194.942 C 1288.431 2190.603,1311.033 2169.578,1320.824 2150.385 C 1331.019 2130.401,1332.065 2089.096,1322.923 2067.442 C 1314.524 2047.545,1289.920 2021.168,1270.273 2010.995 C 1256.399 2003.812,1243.679 2002.134,1184.000 1999.613 C 1049.595 1993.936,949.791 1969.240,842.000 1914.989 C 682.968 1834.948,557.266 1707.235,479.953 1547.148 C 373.432 1326.584,373.480 1073.316,480.083 852.582 C 522.472 764.813,573.021 695.139,644.560 625.880 C 711.449 561.122,770.624 519.665,852.852 479.953 C 1125.897 348.086,1446.705 381.609,1690.000 567.430 C 1723.942 593.354,1792.511 660.591,1821.116 696.000 C 1891.398 782.998,1946.203 891.105,1973.478 996.543 C 1989.287 1057.660,1996.568 1109.791,1999.656 1184.000 C 2002.143 1243.737,2003.805 1256.386,2010.995 1270.273 C 2021.168 1289.920,2047.545 1314.524,2067.442 1322.923 C 2089.096 1332.065,2130.401 1331.019,2150.385 1320.824 C 2169.578 1311.033,2190.603 1288.431,2194.942 1272.927 C 2200.624 1252.623,2197.499 1112.522,2190.282 1064.000 C 2144.092 753.458,1976.167 501.321,1708.000 339.859 C 1540.034 238.728,1327.337 188.424,1128.000 202.685 M1130.000 711.483 C 1114.072 721.375,1101.496 735.459,1096.266 749.260 C 1089.891 766.086,1090.400 1255.733,1096.815 1277.143 C 1106.349 1308.965,1128.602 1325.670,1289.359 1421.682 L 1440.719 1512.081 1474.232 1478.568 C 1492.664 1460.136,1516.802 1438.148,1527.873 1429.705 C 1538.943 1421.263,1547.994 1413.376,1547.986 1412.178 C 1547.978 1410.980,1479.609 1369.500,1396.055 1320.000 L 1244.138 1230.000 1244.069 1005.197 C 1243.997 772.065,1242.624 749.500,1227.325 730.051 C 1207.694 705.093,1156.128 695.256,1130.000 711.483 M1850.000 1402.511 C 1711.690 1417.529,1581.793 1491.373,1499.196 1601.937 C 1468.239 1643.377,1430.909 1719.767,1418.044 1768.000 C 1387.460 1882.670,1398.189 2006.800,1447.635 2110.372 C 1475.059 2167.817,1503.569 2208.297,1547.636 2252.364 C 1718.563 2423.291,1979.506 2447.770,2182.372 2311.910 C 2222.911 2284.760,2284.760 2222.911,2311.910 2182.372 C 2428.328 2008.537,2428.328 1791.463,2311.910 1617.628 C 2285.156 1577.679,2223.076 1515.347,2183.968 1489.167 C 2099.641 1432.715,2016.414 1405.575,1918.000 1402.434 C 1889.400 1401.521,1858.800 1401.556,1850.000 1402.511 M2100.000 1900.000 L 2100.000 2100.000 1900.000 2100.000 L 1700.000 2100.000 1700.000 1900.000 L 1700.000 1700.000 1900.000 1700.000 L 2100.000 1700.000 2100.000 1900.000 " fill="#1D1E23" stroke="none" fill-rule="evenodd"/></svg>