<svg viewBox="0 0 2400 2400" fill="none" xmlns="http://www.w3.org/2000/svg"><path d="M1104.000 207.901 C 944.832 220.964,779.876 279.993,644.000 372.509 C 499.703 470.759,382.483 603.407,306.510 754.418 C 229.968 906.561,190.642 1099.160,203.073 1261.000 C 222.413 1512.770,318.138 1725.467,489.940 1898.404 C 654.208 2063.757,829.693 2152.721,1066.000 2190.446 C 1112.602 2197.885,1247.871 2200.826,1269.236 2194.864 C 1275.416 2193.140,1288.368 2184.452,1298.017 2175.557 C 1330.471 2145.642,1336.621 2098.271,1313.552 2055.887 C 1293.391 2018.844,1268.812 2007.361,1198.000 2001.900 C 1011.042 1987.481,883.750 1948.625,766.371 1870.147 C 593.024 1754.249,479.967 1594.688,424.916 1388.243 L 410.451 1334.000 408.900 1218.511 C 407.265 1096.745,408.560 1081.296,426.356 1010.212 C 462.198 867.052,527.008 750.006,627.714 646.566 C 738.856 532.408,859.847 463.360,1020.000 422.696 L 1070.000 410.000 1200.000 410.000 C 1321.735 410.000,1332.289 410.575,1366.000 419.047 C 1493.523 451.093,1615.303 509.877,1704.303 582.349 C 1840.047 692.884,1945.794 866.344,1979.644 1034.000 C 1984.086 1056.000,1991.370 1110.980,1995.832 1156.179 C 2000.293 1201.377,2006.840 1248.177,2010.381 1260.179 C 2026.755 1315.679,2097.125 1344.596,2150.762 1317.868 C 2197.175 1294.739,2206.957 1252.202,2195.807 1122.000 C 2169.402 813.688,2007.968 540.043,1753.181 371.710 C 1613.584 279.481,1466.244 225.300,1320.000 212.418 C 1252.966 206.513,1147.731 204.312,1104.000 207.901 M1148.736 708.172 C 1133.166 711.606,1111.935 725.918,1100.109 740.953 C 1091.763 751.563,1091.729 752.822,1092.862 1012.806 C 1094.137 1305.378,1091.976 1284.593,1124.129 1313.641 C 1145.429 1332.884,1179.105 1354.517,1323.176 1441.503 L 1440.351 1512.251 1492.152 1463.245 C 1532.484 1425.090,1542.852 1413.218,1538.977 1409.627 C 1533.286 1404.353,1446.344 1351.051,1330.776 1281.984 C 1287.203 1255.943,1249.922 1231.592,1247.930 1227.870 C 1245.938 1224.147,1242.519 1117.682,1240.333 991.281 C 1237.750 841.995,1234.799 757.349,1231.912 749.730 C 1220.013 718.328,1184.082 700.376,1148.736 708.172 M1830.000 1407.765 C 1675.811 1425.669,1527.129 1534.130,1452.270 1683.314 C 1435.691 1716.354,1413.519 1783.170,1408.241 1816.000 C 1401.158 1860.054,1403.066 1961.012,1411.719 2000.000 C 1455.762 2198.448,1616.664 2355.900,1810.260 2389.995 C 1857.918 2398.389,1948.927 2398.357,1989.713 2389.932 C 2061.087 2375.190,2132.504 2345.409,2183.560 2309.100 C 2219.895 2283.259,2285.673 2216.316,2310.868 2179.538 C 2345.644 2128.771,2370.695 2071.954,2388.118 2004.325 C 2395.632 1975.160,2399.312 1902.791,2395.715 1854.938 C 2389.898 1777.547,2351.623 1673.358,2307.204 1614.000 C 2254.042 1542.958,2197.107 1494.560,2124.515 1458.703 C 2069.986 1431.768,2032.987 1418.740,1992.000 1412.043 C 1956.483 1406.240,1864.136 1403.801,1830.000 1407.765 M2182.787 1717.123 C 2196.321 1726.373,2209.198 1746.500,2213.652 1765.363 C 2215.640 1773.783,2213.641 1781.323,2205.934 1794.473 C 2194.024 1814.797,2045.454 1968.702,1927.933 2082.459 C 1829.047 2178.177,1822.992 2180.950,1777.953 2151.154 C 1751.857 2133.890,1630.581 2013.091,1606.686 1980.560 C 1591.785 1960.273,1588.000 1951.876,1588.000 1939.105 C 1588.000 1905.547,1617.923 1875.748,1652.093 1875.276 C 1673.758 1874.977,1687.175 1884.822,1758.177 1953.117 L 1816.615 2009.328 1919.308 1907.505 C 2065.339 1762.711,2117.993 1712.553,2128.671 1708.065 C 2141.871 1702.518,2167.757 1706.851,2182.787 1717.123 " fill="#1D1E23" stroke="none" fill-rule="evenodd"/></svg>