<svg viewBox="0 0 2400 2400" fill="none" xmlns="http://www.w3.org/2000/svg"><path d="M1132.000 202.501 C 963.619 218.370,823.465 261.951,694.000 338.697 C 532.500 434.433,389.311 586.331,307.799 748.386 C 200.285 962.137,172.771 1215.287,231.964 1446.120 C 286.713 1659.624,403.905 1840.846,578.000 1981.218 C 671.413 2056.535,771.162 2110.532,885.372 2147.604 C 999.683 2184.709,1068.265 2196.002,1184.989 2196.941 L 1271.138 2197.634 1287.535 2186.783 C 1314.577 2168.887,1325.757 2147.934,1327.387 2112.091 C 1328.994 2076.775,1324.174 2062.324,1302.457 2037.352 C 1278.248 2009.515,1263.431 2004.759,1185.903 1999.939 C 1041.725 1990.977,948.205 1968.165,846.291 1917.100 C 591.060 1789.213,427.511 1545.569,403.192 1257.000 C 390.163 1102.392,432.205 925.223,514.012 790.000 C 684.682 507.888,1005.793 358.948,1329.502 411.753 C 1547.203 447.265,1741.197 571.911,1862.162 754.000 C 1951.163 887.972,1988.834 1007.142,1999.762 1189.281 C 2004.118 1261.887,2009.567 1278.294,2037.352 1302.457 C 2060.454 1322.548,2075.372 1328.000,2107.242 1328.000 C 2140.811 1328.000,2163.997 1317.243,2182.447 1293.109 C 2193.068 1279.217,2195.278 1272.216,2197.504 1245.414 C 2202.085 1190.262,2193.731 1076.702,2180.134 1009.308 C 2116.744 695.109,1924.440 444.836,1638.000 303.753 C 1541.739 256.340,1444.666 226.751,1330.769 210.105 C 1288.016 203.857,1166.813 199.220,1132.000 202.501 M1132.100 711.177 C 1124.455 715.393,1112.755 725.569,1106.100 733.792 L 1094.000 748.741 1094.000 1005.371 C 1094.000 1146.517,1095.401 1268.590,1097.114 1276.644 C 1103.478 1306.565,1133.309 1328.430,1320.901 1440.671 L 1441.004 1512.531 1481.502 1473.041 C 1503.776 1451.322,1528.120 1428.895,1535.600 1423.205 L 1549.200 1412.858 1531.600 1401.734 C 1514.081 1390.661,1351.499 1293.539,1281.000 1252.032 L 1244.000 1230.248 1243.876 1016.124 C 1243.749 795.430,1241.285 749.097,1228.777 732.274 C 1210.621 707.853,1158.681 696.519,1132.100 711.177 M1697.208 1455.486 C 1666.621 1481.169,1522.661 1627.423,1516.423 1639.151 C 1513.747 1644.184,1512.780 1652.284,1514.275 1657.151 C 1515.770 1662.018,1560.424 1709.504,1613.505 1762.675 C 1743.358 1892.748,1745.174 1893.090,1747.275 1787.868 L 1748.550 1724.000 1988.504 1724.000 C 2150.824 1724.000,2234.153 1722.566,2246.060 1719.568 C 2282.995 1710.267,2304.625 1672.370,2295.692 1632.611 C 2290.463 1609.339,2283.128 1599.264,2263.036 1587.757 L 2246.000 1578.000 1997.000 1576.804 L 1748.000 1575.608 1748.000 1514.694 C 1748.000 1428.778,1740.051 1419.513,1697.208 1455.486 M2060.290 1870.539 C 2052.752 1880.123,2052.000 1886.445,2052.000 1940.269 L 2052.000 1999.460 1802.703 2000.730 L 1553.406 2002.000 1537.196 2012.731 C 1498.746 2038.183,1489.456 2087.346,1516.581 2121.830 C 1535.625 2146.040,1527.231 2145.258,1796.868 2147.943 C 1932.645 2149.296,2044.930 2151.597,2046.390 2153.057 C 2047.850 2154.517,2050.200 2182.753,2051.612 2215.803 C 2055.862 2315.273,2057.799 2314.902,2182.177 2190.770 C 2233.302 2139.747,2278.176 2093.138,2281.898 2087.196 C 2286.303 2080.161,2287.658 2073.184,2285.781 2067.196 C 2282.190 2055.739,2107.132 1879.750,2088.000 1868.363 C 2070.362 1857.865,2070.254 1857.873,2060.290 1870.539 " fill="#1D1E23" stroke="none" fill-rule="evenodd"/></svg>