<svg viewBox="0 0 2400 2400" fill="none" xmlns="http://www.w3.org/2000/svg"><path d="M1128.000 202.685 C 1118.100 203.394,1089.300 206.796,1064.000 210.247 C 845.816 240.004,652.338 335.952,495.847 492.000 C 336.806 650.591,244.557 834.804,209.403 1064.000 C 199.571 1128.103,199.571 1271.897,209.403 1336.000 C 233.422 1492.601,281.824 1621.812,362.987 1746.000 C 404.430 1809.414,437.716 1850.026,495.847 1908.105 C 653.587 2065.704,850.018 2161.659,1078.000 2192.481 C 1118.301 2197.930,1256.037 2199.669,1272.927 2194.942 C 1288.431 2190.603,1311.033 2169.578,1320.824 2150.385 C 1331.019 2130.401,1332.065 2089.096,1322.923 2067.442 C 1314.524 2047.545,1289.920 2021.168,1270.273 2010.995 C 1256.399 2003.812,1243.679 2002.134,1184.000 1999.613 C 1049.595 1993.936,949.791 1969.240,842.000 1914.989 C 682.968 1834.948,557.266 1707.235,479.953 1547.148 C 373.432 1326.584,373.480 1073.316,480.083 852.582 C 522.472 764.813,573.021 695.139,644.560 625.880 C 711.449 561.122,770.624 519.665,852.852 479.953 C 1125.897 348.086,1446.705 381.609,1690.000 567.430 C 1723.942 593.354,1792.511 660.591,1821.116 696.000 C 1891.398 782.998,1946.203 891.105,1973.478 996.543 C 1989.287 1057.660,1996.568 1109.791,1999.656 1184.000 C 2002.143 1243.737,2003.805 1256.386,2010.995 1270.273 C 2021.168 1289.920,2047.545 1314.524,2067.442 1322.923 C 2089.096 1332.065,2130.401 1331.019,2150.385 1320.824 C 2169.578 1311.033,2190.603 1288.431,2194.942 1272.927 C 2200.624 1252.623,2197.499 1112.522,2190.282 1064.000 C 2144.092 753.458,1976.167 501.321,1708.000 339.859 C 1540.034 238.728,1327.337 188.424,1128.000 202.685 M1130.000 711.483 C 1114.072 721.375,1101.496 735.459,1096.266 749.260 C 1089.891 766.086,1090.400 1255.733,1096.815 1277.143 C 1106.349 1308.965,1128.602 1325.670,1289.359 1421.682 L 1440.719 1512.081 1474.232 1478.568 C 1492.664 1460.136,1516.802 1438.148,1527.873 1429.705 C 1538.943 1421.263,1547.994 1413.376,1547.986 1412.178 C 1547.978 1410.980,1479.609 1369.500,1396.055 1320.000 L 1244.138 1230.000 1244.069 1005.197 C 1243.997 772.065,1242.624 749.500,1227.325 730.051 C 1207.694 705.093,1156.128 695.256,1130.000 711.483 M1793.194 1406.497 C 1764.808 1420.494,1766.126 1408.649,1764.874 1661.000 L 1763.748 1888.000 1743.874 1888.000 L 1724.000 1888.000 1724.000 1703.801 C 1724.000 1550.781,1723.019 1517.706,1718.204 1508.395 C 1700.509 1474.176,1647.491 1474.176,1629.796 1508.395 C 1624.920 1517.823,1624.000 1558.388,1624.000 1763.801 L 1624.000 2008.000 1608.425 2008.000 L 1592.850 2008.000 1564.396 1937.000 C 1548.746 1897.950,1532.508 1860.358,1528.311 1853.463 C 1506.556 1817.718,1440.348 1795.989,1414.688 1816.173 C 1392.517 1833.613,1393.337 1836.859,1465.870 2018.774 C 1502.542 2110.748,1538.063 2195.900,1544.806 2208.000 C 1576.232 2264.395,1626.615 2311.585,1685.689 2339.956 C 1736.795 2364.500,1761.621 2369.776,1826.000 2369.776 C 1890.379 2369.776,1915.205 2364.500,1966.311 2339.956 C 2033.746 2307.570,2082.648 2258.562,2115.942 2190.000 C 2148.234 2123.500,2148.000 2125.954,2148.000 1853.828 C 2148.000 1622.692,2147.753 1614.888,2140.104 1604.146 C 2135.761 1598.047,2126.727 1590.786,2120.028 1588.012 C 2104.666 1581.649,2077.983 1585.003,2067.137 1594.661 C 2049.118 1610.707,2048.000 1620.242,2048.000 1757.872 L 2048.000 1888.000 2028.000 1888.000 L 2008.000 1888.000 2008.000 1693.801 C 2008.000 1482.421,2008.256 1484.951,1985.328 1469.927 C 1972.580 1461.575,1946.199 1460.401,1932.769 1467.589 C 1927.710 1470.296,1920.075 1478.246,1915.801 1485.255 C 1908.387 1497.414,1908.029 1506.972,1908.015 1693.209 L 1908.000 1888.418 1887.000 1887.209 L 1866.000 1886.000 1864.000 1658.000 C 1862.522 1489.547,1860.730 1427.786,1857.138 1421.521 C 1851.435 1411.575,1828.813 1399.961,1815.395 1400.091 C 1810.228 1400.141,1800.237 1403.024,1793.194 1406.497 " fill="#1D1E23" stroke="none" fill-rule="evenodd"/></svg>