<svg viewBox="0 0 2400 2400" fill="none" xmlns="http://www.w3.org/2000/svg"><path d="M1064.000 209.601 C 841.006 243.678,646.241 341.430,491.369 497.001 C 337.293 651.774,243.684 839.954,209.320 1064.000 C 199.513 1127.944,199.492 1271.819,209.281 1336.000 C 243.636 1561.251,337.128 1747.885,494.559 1905.489 C 650.097 2061.197,842.945 2158.603,1057.821 2189.988 C 1119.924 2199.059,1242.137 2202.681,1265.487 2196.144 C 1335.712 2176.482,1351.770 2081.677,1293.909 2028.344 C 1272.110 2008.250,1259.006 2004.880,1183.513 1999.955 C 1037.053 1990.401,943.709 1966.557,834.000 1910.674 C 728.097 1856.729,628.056 1770.864,554.810 1671.044 C 490.052 1582.791,436.750 1460.933,416.134 1354.000 C 360.981 1067.939,465.142 773.482,687.184 587.759 C 801.123 492.457,938.820 431.108,1087.248 409.516 C 1144.656 401.164,1256.948 401.165,1313.485 409.517 C 1538.840 442.808,1737.846 567.801,1861.951 754.000 C 1947.821 882.835,1992.185 1021.205,1998.535 1180.000 C 2001.247 1247.806,2007.390 1271.177,2028.527 1294.109 C 2083.332 1353.564,2178.816 1335.630,2196.338 1262.590 C 2202.514 1236.848,2198.789 1119.115,2189.929 1060.000 C 2140.131 727.750,1937.532 450.150,1638.000 303.752 C 1546.533 259.047,1459.661 230.908,1360.000 213.707 C 1308.704 204.853,1112.846 202.136,1064.000 209.601 M1133.008 712.417 C 1123.663 717.043,1110.431 727.880,1103.605 736.499 L 1091.194 752.169 1092.597 1013.400 L 1094.000 1274.631 1106.031 1294.315 C 1120.693 1318.306,1135.782 1328.592,1311.481 1434.374 L 1440.961 1512.330 1483.481 1470.892 C 1506.866 1448.102,1530.935 1426.231,1536.966 1422.290 C 1542.997 1418.349,1547.023 1413.655,1545.913 1411.859 C 1544.308 1409.262,1371.854 1305.276,1265.577 1242.823 L 1245.155 1230.822 1242.596 1186.411 C 1241.188 1161.985,1239.931 1065.500,1239.803 972.000 C 1239.533 775.937,1237.414 744.374,1223.512 729.275 C 1200.976 704.800,1162.773 697.684,1133.008 712.417 M1802.000 1410.608 C 1649.446 1443.058,1522.562 1540.562,1454.861 1677.367 C 1415.530 1756.843,1402.105 1814.195,1402.280 1902.000 C 1402.449 1987.453,1419.711 2057.879,1458.746 2132.375 C 1514.758 2239.270,1617.355 2328.428,1732.000 2369.836 C 1879.149 2422.985,2045.473 2402.295,2177.553 2314.413 C 2219.202 2286.700,2286.700 2219.202,2314.413 2177.553 C 2355.427 2115.912,2382.532 2044.707,2394.182 1968.000 C 2411.816 1851.890,2382.457 1724.713,2314.413 1622.447 C 2287.245 1581.618,2219.331 1513.332,2180.000 1487.301 C 2117.587 1445.992,2045.036 1417.577,1978.263 1408.290 C 1934.093 1402.146,1835.696 1403.441,1802.000 1410.608 M1643.296 1811.719 C 1684.076 1832.741,1707.456 1881.455,1696.425 1922.420 C 1673.383 2007.993,1564.713 2026.289,1516.031 1952.791 C 1504.982 1936.110,1504.000 1931.803,1504.000 1900.000 C 1504.000 1868.372,1505.019 1863.833,1515.762 1847.614 C 1544.557 1804.141,1598.916 1788.842,1643.296 1811.719 M1943.296 1811.719 C 1984.076 1832.741,2007.456 1881.455,1996.425 1922.420 C 1973.383 2007.993,1864.713 2026.289,1816.031 1952.791 C 1804.982 1936.110,1804.000 1931.803,1804.000 1900.000 C 1804.000 1868.372,1805.019 1863.833,1815.762 1847.614 C 1844.557 1804.141,1898.916 1788.842,1943.296 1811.719 M2243.296 1811.719 C 2284.076 1832.741,2307.456 1881.455,2296.425 1922.420 C 2273.383 2007.993,2164.713 2026.289,2116.031 1952.791 C 2104.982 1936.110,2104.000 1931.803,2104.000 1900.000 C 2104.000 1868.372,2105.019 1863.833,2115.762 1847.614 C 2144.557 1804.141,2198.916 1788.842,2243.296 1811.719 " fill="#1D1E23" stroke="none" fill-rule="evenodd"/></svg>