<svg viewBox="0 0 2400 2400" fill="none" xmlns="http://www.w3.org/2000/svg"><path d="M1100.000 206.614 C 1026.670 217.794,1001.490 222.551,952.000 234.578 C 877.141 252.770,832.726 269.503,754.365 309.034 C 650.634 361.362,578.051 413.958,493.697 497.921 C 377.066 614.011,305.336 728.987,254.373 881.538 C 196.201 1055.664,186.214 1247.154,226.238 1421.015 C 266.568 1596.209,350.867 1754.061,472.036 1881.279 C 595.101 2010.488,724.717 2093.152,889.475 2147.508 C 1008.492 2186.773,1079.925 2197.545,1206.325 2195.290 C 1277.996 2194.012,1278.779 2193.902,1292.916 2183.109 C 1339.456 2147.576,1337.265 2062.254,1288.865 2025.338 C 1269.196 2010.336,1249.824 2005.876,1178.000 1999.813 C 1017.315 1986.249,916.329 1957.519,806.000 1893.980 C 582.752 1765.410,440.085 1547.506,407.941 1286.000 C 401.589 1234.324,402.696 1141.043,410.268 1089.897 C 454.260 792.757,646.226 556.107,928.972 450.453 C 1115.018 380.933,1343.729 389.453,1524.560 472.641 C 1709.448 557.694,1841.509 688.544,1926.912 871.302 C 1965.981 954.907,1982.308 1022.715,1995.944 1158.000 C 2000.600 1204.200,2006.096 1248.300,2008.156 1256.000 C 2026.591 1324.900,2120.322 1351.799,2171.336 1302.830 C 2198.721 1276.542,2201.181 1266.597,2198.171 1194.326 C 2193.357 1078.704,2181.025 999.746,2153.640 909.193 C 2106.559 753.510,2030.656 624.376,1918.148 508.550 C 1751.470 336.954,1520.934 226.627,1290.419 208.137 C 1241.805 204.238,1121.878 203.279,1100.000 206.614 M1133.326 714.047 C 1121.955 719.736,1107.744 730.824,1101.747 738.687 L 1090.843 752.983 1092.886 1018.774 L 1094.929 1284.566 1110.465 1300.556 C 1132.244 1322.972,1199.760 1367.822,1329.240 1445.885 L 1440.480 1512.951 1473.240 1481.375 C 1491.258 1464.008,1515.550 1441.379,1527.221 1431.089 L 1548.443 1412.380 1533.221 1402.887 C 1524.850 1397.666,1456.350 1356.694,1381.000 1311.840 L 1244.000 1230.285 1243.905 1036.143 C 1243.799 818.346,1240.507 752.110,1229.000 736.232 C 1220.045 723.876,1191.887 709.524,1170.000 706.161 C 1157.455 704.234,1149.535 705.937,1133.326 714.047 M1822.752 1408.618 C 1781.526 1413.330,1726.544 1431.285,1678.614 1455.687 C 1528.814 1531.955,1430.376 1669.258,1405.743 1836.293 C 1386.534 1966.548,1432.397 2122.032,1517.589 2215.471 C 1581.334 2285.387,1616.082 2313.539,1673.761 2341.995 C 1766.568 2387.783,1845.000 2403.527,1942.000 2395.839 C 2161.176 2378.467,2352.464 2204.604,2390.147 1988.515 C 2397.728 1945.044,2397.641 1858.460,2389.973 1814.489 C 2368.877 1693.510,2304.569 1586.631,2205.473 1507.848 C 2177.414 1485.540,2111.203 1449.387,2068.000 1432.784 C 2002.922 1407.773,1910.135 1398.630,1822.752 1408.618 M1932.000 1556.141 C 1967.509 1561.713,2003.706 1580.242,2033.257 1607.974 C 2078.913 1650.821,2098.533 1698.005,2095.130 1756.778 C 2092.630 1799.966,2075.760 1832.151,2022.204 1895.910 C 1972.833 1954.687,1962.747 1971.937,1954.596 2011.541 C 1951.253 2027.789,1946.515 2043.089,1944.069 2045.541 C 1941.518 2048.098,1920.676 2050.584,1895.208 2051.370 L 1850.796 2052.740 1853.564 2016.077 C 1858.212 1954.503,1872.983 1926.414,1941.565 1848.729 C 1990.890 1792.857,1995.954 1783.937,1995.980 1752.872 C 1996.004 1723.402,1988.526 1703.145,1970.797 1684.649 C 1950.191 1663.153,1929.829 1654.538,1899.989 1654.693 C 1854.141 1654.932,1824.185 1676.939,1805.751 1723.925 L 1794.736 1752.000 1749.243 1752.000 C 1696.644 1752.000,1696.935 1752.224,1704.079 1717.244 C 1711.832 1679.281,1736.829 1635.960,1767.888 1606.661 C 1817.643 1559.725,1863.967 1545.464,1932.000 1556.141 M1927.000 2150.592 L 1948.000 2153.114 1948.000 2202.557 L 1948.000 2252.000 1900.288 2252.000 L 1852.576 2252.000 1849.774 2229.577 C 1845.986 2199.255,1849.770 2155.872,1856.580 2151.557 C 1862.973 2147.506,1897.383 2147.035,1927.000 2150.592 " fill="#1D1E23" stroke="none" fill-rule="evenodd"/></svg>