<svg viewBox="0 0 2400 2400" fill="none" xmlns="http://www.w3.org/2000/svg"><path d="M1100.000 206.614 C 1026.670 217.794,1001.490 222.551,952.000 234.578 C 877.338 252.722,832.730 269.501,755.272 308.575 C 650.651 361.351,577.806 413.894,495.689 495.811 C 359.555 631.613,277.218 775.345,232.187 955.791 C 214.466 1026.802,207.181 1076.272,204.476 1143.961 C 196.985 1331.419,226.785 1479.348,303.998 1638.000 C 350.566 1733.685,400.369 1805.744,472.137 1881.279 C 594.594 2010.163,724.654 2093.131,889.475 2147.508 C 1008.492 2186.773,1079.925 2197.545,1206.325 2195.290 C 1277.996 2194.012,1278.779 2193.902,1292.916 2183.109 C 1339.456 2147.576,1337.265 2062.254,1288.865 2025.338 C 1269.196 2010.336,1249.824 2005.876,1178.000 1999.813 C 1017.315 1986.249,916.329 1957.519,806.000 1893.980 C 583.500 1765.841,440.281 1547.714,408.190 1288.105 C 402.079 1238.672,403.067 1142.967,410.216 1091.710 C 451.382 796.562,645.762 556.280,928.972 450.453 C 1115.018 380.933,1343.729 389.453,1524.560 472.641 C 1709.448 557.694,1841.509 688.544,1926.912 871.302 C 1965.981 954.907,1982.308 1022.715,1995.944 1158.000 C 2000.600 1204.200,2006.096 1248.300,2008.156 1256.000 C 2026.861 1325.911,2120.874 1351.893,2172.569 1301.438 C 2200.828 1273.857,2201.936 1267.656,2196.622 1166.894 C 2191.464 1069.080,2183.447 1015.805,2162.397 939.440 C 2089.258 674.107,1922.839 461.837,1684.747 330.190 C 1523.281 240.911,1368.895 202.900,1174.419 204.545 C 1138.989 204.844,1105.500 205.776,1100.000 206.614 M1133.326 714.047 C 1121.955 719.736,1107.744 730.824,1101.747 738.687 L 1090.843 752.983 1092.886 1018.774 L 1094.929 1284.566 1110.465 1300.556 C 1132.244 1322.972,1199.760 1367.822,1329.240 1445.885 L 1440.480 1512.951 1473.240 1481.375 C 1491.258 1464.008,1515.550 1441.379,1527.221 1431.089 L 1548.443 1412.380 1533.221 1402.887 C 1524.850 1397.666,1456.350 1356.694,1381.000 1311.840 L 1244.000 1230.285 1243.905 1036.143 C 1243.799 818.346,1240.507 752.110,1229.000 736.232 C 1220.045 723.876,1191.887 709.524,1170.000 706.161 C 1157.455 704.234,1149.535 705.937,1133.326 714.047 M1993.620 1608.419 C 1986.799 1615.955,1985.852 1624.908,1984.587 1693.771 L 1983.175 1770.704 1774.712 1773.290 L 1566.249 1775.876 1544.867 1790.603 C 1519.449 1808.109,1507.949 1828.198,1505.051 1860.157 C 1501.276 1901.784,1522.427 1942.542,1557.387 1961.007 C 1573.745 1969.648,1577.136 1969.805,1778.569 1971.280 L 1983.138 1972.777 1984.908 2045.389 C 1987.423 2148.569,1991.420 2154.447,2036.560 2121.343 C 2094.835 2078.608,2301.138 1899.577,2315.132 1879.598 C 2319.798 1872.936,2319.372 1870.458,2311.926 1860.957 C 2279.815 1819.986,2019.975 1600.000,2003.691 1600.000 C 2002.343 1600.000,1997.811 1603.789,1993.620 1608.419 " fill="#1D1E23" stroke="none" fill-rule="evenodd"/></svg>