<svg viewBox="0 0 2400 2400" fill="none" xmlns="http://www.w3.org/2000/svg"><path d="M1076.000 210.536 C 699.908 258.171,374.663 523.033,256.208 878.130 C 217.327 994.688,202.441 1082.493,202.319 1196.000 C 202.082 1415.722,270.030 1622.199,398.400 1791.841 C 456.351 1868.423,534.029 1946.161,610.000 2003.603 C 764.713 2120.583,957.489 2188.375,1162.866 2198.027 C 1239.469 2201.626,1268.794 2197.971,1289.398 2182.256 C 1331.459 2150.175,1338.895 2093.897,1307.363 2046.293 C 1288.701 2018.118,1266.615 2009.508,1194.000 2002.097 C 1006.765 1982.987,903.398 1953.552,796.000 1888.762 C 693.996 1827.226,598.495 1735.408,535.179 1638.000 C 488.486 1566.165,456.510 1494.657,427.862 1398.000 L 411.264 1342.000 410.632 1210.000 C 410.000 1078.009,410.001 1077.997,421.289 1030.607 C 460.487 866.043,538.352 729.238,655.074 619.852 C 759.855 521.658,875.423 459.662,1023.805 422.050 C 1062.301 412.291,1067.391 412.000,1199.455 412.000 L 1335.459 412.000 1382.105 424.027 C 1483.975 450.293,1599.773 504.756,1679.607 563.949 C 1791.218 646.703,1891.107 779.909,1945.106 918.000 C 1964.765 968.275,1982.519 1044.026,1990.104 1110.000 C 2004.844 1238.193,2008.148 1257.187,2019.271 1277.666 C 2047.653 1329.919,2127.309 1344.333,2169.463 1304.845 C 2198.942 1277.230,2206.518 1217.532,2194.388 1108.429 C 2158.004 781.166,1988.766 513.875,1712.037 346.614 C 1602.391 280.342,1485.853 237.290,1363.762 217.953 C 1323.238 211.535,1111.252 206.071,1076.000 210.536 M1132.000 715.818 C 1124.300 719.923,1112.600 728.964,1106.000 735.909 L 1094.000 748.535 1094.000 999.268 C 1094.000 1137.170,1095.481 1258.690,1097.292 1269.311 C 1103.501 1305.740,1121.912 1319.794,1323.104 1441.694 L 1440.208 1512.646 1482.789 1471.991 C 1531.450 1425.532,1542.826 1412.326,1537.387 1408.607 C 1524.461 1399.767,1418.009 1334.332,1350.876 1293.960 C 1307.358 1267.788,1266.178 1241.722,1259.364 1236.034 L 1246.976 1225.692 1243.426 1081.846 C 1235.793 772.606,1234.598 750.883,1224.419 736.589 C 1205.317 709.762,1161.731 699.966,1132.000 715.818 M1792.452 1414.179 C 1638.236 1447.635,1494.119 1571.115,1438.261 1717.651 C 1407.034 1799.569,1405.986 1805.455,1406.140 1898.000 C 1406.265 1972.826,1407.284 1985.713,1415.471 2016.000 C 1460.180 2181.398,1579.878 2313.709,1735.286 2369.518 C 1795.338 2391.083,1815.754 2394.017,1904.000 2393.771 C 1981.715 2393.553,1987.881 2392.966,2022.000 2382.541 C 2072.806 2367.017,2117.518 2348.555,2154.325 2327.902 C 2179.118 2313.989,2198.666 2297.512,2244.296 2252.064 C 2307.805 2188.809,2329.368 2158.756,2356.647 2095.483 C 2386.306 2026.689,2392.715 1997.825,2394.993 1922.801 C 2397.414 1843.082,2393.452 1813.163,2371.668 1746.634 C 2343.969 1662.040,2300.900 1594.521,2237.696 1536.606 C 2173.427 1477.715,2075.292 1427.590,1997.809 1414.078 C 1952.874 1406.243,1828.754 1406.303,1792.452 1414.179 M1638.222 1813.495 C 1671.591 1829.033,1696.000 1864.603,1696.000 1897.693 C 1696.000 1924.385,1686.670 1945.852,1666.149 1966.372 C 1641.840 1990.682,1614.343 2001.748,1588.513 1997.618 C 1562.585 1993.472,1532.132 1972.993,1518.144 1950.295 C 1507.393 1932.851,1506.000 1927.079,1506.000 1899.978 C 1506.000 1872.873,1507.391 1867.111,1518.144 1849.683 C 1544.092 1807.625,1593.585 1792.709,1638.222 1813.495 M1938.222 1813.495 C 1971.591 1829.033,1996.000 1864.603,1996.000 1897.693 C 1996.000 1924.385,1986.670 1945.852,1966.149 1966.372 C 1941.840 1990.682,1914.343 2001.748,1888.513 1997.618 C 1862.585 1993.472,1832.132 1972.993,1818.144 1950.295 C 1807.393 1932.851,1806.000 1927.079,1806.000 1899.978 C 1806.000 1872.873,1807.391 1867.111,1818.144 1849.683 C 1844.092 1807.625,1893.585 1792.709,1938.222 1813.495 M2238.222 1813.495 C 2271.591 1829.033,2296.000 1864.603,2296.000 1897.693 C 2296.000 1924.385,2286.670 1945.852,2266.149 1966.372 C 2241.840 1990.682,2214.343 2001.748,2188.513 1997.618 C 2162.585 1993.472,2132.132 1972.993,2118.144 1950.295 C 2107.393 1932.851,2106.000 1927.079,2106.000 1899.978 C 2106.000 1872.873,2107.391 1867.111,2118.144 1849.683 C 2144.092 1807.625,2193.585 1792.709,2238.222 1813.495 " fill="#1D1E23" stroke="none" fill-rule="evenodd"/></svg>