<svg viewBox="0 0 2400 2400" fill="none" xmlns="http://www.w3.org/2000/svg"><path d="M1096.000 208.144 C 996.725 214.393,860.524 253.657,755.433 306.322 C 548.359 410.095,373.025 594.133,284.353 800.785 C 173.297 1059.606,173.317 1340.056,284.412 1599.295 C 378.739 1819.406,573.801 2015.675,796.256 2114.306 C 926.698 2172.141,1087.404 2204.166,1223.060 2199.359 C 1259.577 2198.065,1268.668 2196.354,1283.836 2187.919 C 1331.294 2161.527,1342.564 2090.205,1306.705 2043.191 C 1291.918 2023.804,1269.889 2009.948,1248.496 2006.578 C 1240.523 2005.322,1209.700 2002.407,1180.000 2000.101 C 1031.653 1988.582,931.238 1962.131,828.507 1907.512 C 702.693 1840.621,588.137 1732.341,517.488 1613.532 C 472.844 1538.456,435.653 1443.263,416.905 1356.085 C 406.754 1308.886,406.138 1300.008,406.209 1202.000 C 406.280 1103.965,406.913 1095.052,417.244 1046.611 C 452.242 882.506,523.814 748.144,635.979 635.979 C 747.285 524.673,884.781 450.895,1044.000 417.042 C 1090.952 407.059,1100.462 406.411,1200.000 406.412 C 1299.579 406.413,1308.961 407.053,1354.879 416.980 C 1611.637 472.487,1812.838 630.323,1922.169 862.000 C 1968.386 959.936,1987.743 1039.681,1997.816 1173.642 C 2004.054 1256.608,2010.656 1278.967,2035.302 1300.606 C 2080.122 1339.959,2149.548 1337.403,2180.065 1295.276 C 2198.039 1270.464,2201.529 1247.148,2198.657 1171.079 C 2192.994 1021.098,2161.864 896.631,2096.342 762.000 C 2000.766 565.617,1849.280 412.242,1652.044 312.163 C 1514.626 242.435,1409.321 214.154,1264.000 207.946 C 1169.698 203.917,1163.023 203.925,1096.000 208.144 M1147.056 707.831 C 1129.774 713.274,1110.663 726.433,1100.941 739.583 L 1092.000 751.676 1092.000 1009.997 C 1092.000 1256.677,1092.345 1268.988,1099.661 1283.159 C 1115.996 1314.802,1132.548 1326.604,1313.512 1435.640 L 1441.024 1512.470 1477.512 1477.129 C 1497.580 1457.691,1520.750 1436.040,1529.000 1429.016 C 1537.250 1421.992,1544.000 1414.706,1544.000 1412.827 C 1544.000 1410.947,1478.750 1370.329,1399.000 1322.565 C 1319.250 1274.801,1251.496 1234.171,1248.436 1232.276 C 1243.840 1229.430,1242.376 1188.194,1240.024 995.415 C 1237.781 811.563,1235.989 758.639,1231.588 746.173 C 1221.519 717.654,1178.221 698.015,1147.056 707.831 M1825.616 1408.080 C 1732.789 1417.872,1619.790 1475.261,1546.117 1550.030 C 1478.715 1618.436,1427.364 1715.265,1409.496 1807.650 C 1402.518 1843.727,1401.503 1942.266,1407.714 1980.593 C 1424.143 2081.972,1473.737 2176.968,1548.705 2250.659 C 1649.368 2349.606,1762.243 2397.086,1898.000 2397.587 C 1958.588 2397.811,1993.969 2392.314,2052.000 2373.664 C 2127.574 2349.376,2178.018 2319.719,2235.010 2266.069 C 2320.122 2185.948,2366.235 2104.616,2390.398 1992.000 C 2400.048 1947.024,2400.110 1851.075,2390.518 1808.000 C 2375.330 1739.804,2347.986 1673.237,2314.501 1622.946 C 2293.979 1592.124,2229.667 1524.953,2196.639 1499.844 C 2162.123 1473.604,2083.608 1435.012,2038.508 1422.120 C 1979.389 1405.220,1901.455 1400.081,1825.616 1408.080 M1619.601 1804.288 C 1657.632 1812.444,1687.720 1843.649,1696.349 1883.887 C 1706.119 1929.443,1673.975 1980.358,1626.853 1993.968 C 1588.349 2005.088,1554.479 1994.996,1526.549 1964.081 C 1507.309 1942.785,1504.000 1933.380,1504.000 1900.000 C 1504.000 1866.629,1507.311 1857.214,1526.521 1835.950 C 1543.029 1817.678,1556.273 1809.687,1578.870 1804.366 C 1599.541 1799.499,1597.290 1799.503,1619.601 1804.288 M1919.601 1804.288 C 1957.632 1812.444,1987.720 1843.649,1996.349 1883.887 C 2006.119 1929.443,1973.975 1980.358,1926.853 1993.968 C 1888.349 2005.088,1854.479 1994.996,1826.549 1964.081 C 1807.309 1942.785,1804.000 1933.380,1804.000 1900.000 C 1804.000 1866.629,1807.311 1857.214,1826.521 1835.950 C 1843.029 1817.678,1856.273 1809.687,1878.870 1804.366 C 1899.541 1799.499,1897.290 1799.503,1919.601 1804.288 M2219.601 1804.288 C 2257.632 1812.444,2287.720 1843.649,2296.349 1883.887 C 2306.119 1929.443,2273.975 1980.358,2226.853 1993.968 C 2188.349 2005.088,2154.479 1994.996,2126.549 1964.081 C 2107.309 1942.785,2104.000 1933.380,2104.000 1900.000 C 2104.000 1866.629,2107.311 1857.214,2126.521 1835.950 C 2143.029 1817.678,2156.273 1809.687,2178.870 1804.366 C 2199.541 1799.499,2197.290 1799.503,2219.601 1804.288 " fill="#1D1E23" stroke="none" fill-rule="evenodd"/></svg>