<svg viewBox="0 0 2400 2400" fill="none" xmlns="http://www.w3.org/2000/svg"><path d="M1120.000 204.325 C 1039.097 212.178,939.626 233.421,866.850 258.388 C 808.896 278.270,705.658 330.124,651.081 366.765 C 500.569 467.812,370.352 615.610,300.151 765.074 C 145.963 1093.358,174.082 1468.282,374.919 1762.000 C 412.532 1817.007,430.312 1838.403,485.798 1895.428 C 604.931 2017.866,727.771 2095.005,887.982 2147.984 C 999.234 2184.773,1064.471 2195.146,1192.562 2196.416 C 1267.696 2197.160,1271.757 2196.803,1285.647 2188.218 C 1345.958 2150.944,1340.419 2048.864,1276.311 2016.159 C 1257.566 2006.596,1249.359 2005.306,1160.000 1997.878 C 1032.757 1987.300,945.408 1965.126,854.000 1920.196 C 593.009 1791.911,429.596 1549.877,403.750 1253.326 C 393.704 1138.057,417.062 1000.790,466.365 885.360 C 541.418 709.644,675.795 569.021,850.000 483.893 C 947.603 436.198,1039.583 411.544,1146.000 404.554 C 1293.452 394.868,1427.946 422.210,1560.000 488.717 C 1716.832 567.704,1835.481 687.375,1915.782 847.565 C 1966.012 947.769,1985.470 1024.999,1998.072 1174.196 C 2005.020 1256.444,2008.405 1270.360,2026.652 1291.677 C 2070.082 1342.415,2153.459 1339.602,2185.981 1286.301 L 2198.000 1266.602 2197.548 1196.301 C 2195.745 915.944,2079.191 650.606,1877.171 466.957 C 1802.790 399.340,1727.021 348.632,1630.000 301.541 C 1541.496 258.584,1467.100 234.667,1364.891 216.313 C 1324.102 208.988,1299.257 207.039,1188.000 202.433 C 1169.300 201.658,1138.700 202.510,1120.000 204.325 M1133.008 712.175 C 1123.663 716.934,1110.613 727.651,1104.008 735.990 L 1092.000 751.151 1092.399 938.576 C 1092.619 1041.659,1093.969 1162.366,1095.399 1206.813 L 1098.000 1287.627 1114.000 1304.196 C 1134.711 1325.643,1191.755 1363.207,1329.283 1445.959 L 1440.565 1512.919 1477.283 1477.292 C 1497.477 1457.697,1521.857 1435.090,1531.461 1427.054 L 1548.922 1412.443 1535.461 1404.153 C 1528.057 1399.594,1459.450 1358.546,1383.000 1312.937 L 1244.000 1230.010 1243.857 1028.005 C 1243.711 821.587,1240.957 757.355,1231.406 737.604 C 1224.545 723.419,1195.765 708.482,1169.888 705.678 C 1154.393 703.999,1146.246 705.434,1133.008 712.175 M1824.000 1407.925 C 1744.701 1416.432,1642.885 1464.107,1573.286 1525.320 C 1476.482 1610.460,1418.015 1722.389,1403.685 1850.000 C 1391.506 1958.464,1422.187 2080.879,1485.892 2178.000 C 1506.213 2208.980,1591.020 2293.787,1622.000 2314.108 C 1674.339 2348.439,1739.793 2375.328,1808.000 2390.518 C 1851.047 2400.104,1947.050 2400.049,1991.838 2390.412 C 2099.668 2367.211,2184.148 2320.559,2258.367 2243.230 C 2352.749 2144.892,2398.236 2031.340,2397.460 1896.000 C 2396.894 1797.473,2368.518 1704.074,2314.501 1622.946 C 2293.979 1592.124,2229.667 1524.953,2196.639 1499.844 C 2162.123 1473.604,2083.608 1435.012,2038.508 1422.120 C 1979.904 1405.367,1898.225 1399.962,1824.000 1407.925 M1935.765 1556.241 C 2014.478 1569.012,2086.221 1642.727,2095.142 1720.000 C 2101.984 1779.264,2088.343 1819.115,2043.514 1870.829 C 1972.311 1952.966,1962.471 1968.137,1955.584 2006.381 C 1946.999 2054.062,1952.398 2049.843,1898.315 2051.132 L 1850.809 2052.264 1853.032 2015.132 C 1856.738 1953.235,1872.113 1924.829,1945.655 1844.000 C 1990.771 1794.415,1997.702 1782.018,1997.459 1751.348 C 1996.831 1672.028,1910.860 1626.229,1844.735 1669.988 C 1824.583 1683.325,1814.099 1698.063,1804.479 1726.582 L 1796.580 1750.000 1748.290 1751.123 C 1693.404 1752.400,1696.675 1755.026,1703.995 1715.546 C 1710.463 1680.663,1733.273 1639.172,1761.497 1610.947 C 1811.845 1560.600,1863.223 1544.471,1935.765 1556.241 M1929.442 2150.544 L 1948.000 2153.087 1948.000 2202.544 L 1948.000 2252.000 1900.523 2252.000 L 1853.047 2252.000 1850.567 2237.000 C 1846.647 2213.280,1847.596 2164.228,1852.141 2155.737 C 1855.614 2149.248,1860.685 2148.000,1883.582 2148.000 C 1898.598 2148.000,1919.235 2149.145,1929.442 2150.544 " fill="#1D1E23" stroke="none" fill-rule="evenodd"/></svg>