<svg viewBox="0 0 2400 2400" fill="none" xmlns="http://www.w3.org/2000/svg"><path d="M1128.000 202.389 C 879.226 224.290,666.653 321.677,495.847 492.000 C 336.806 650.591,244.557 834.804,209.403 1064.000 C 199.571 1128.103,199.571 1271.897,209.403 1336.000 C 233.422 1492.601,281.824 1621.812,362.987 1746.000 C 404.430 1809.414,437.716 1850.026,495.847 1908.105 C 653.587 2065.704,850.018 2161.659,1078.000 2192.481 C 1118.301 2197.930,1256.037 2199.669,1272.927 2194.942 C 1288.431 2190.603,1311.033 2169.578,1320.824 2150.385 C 1331.019 2130.401,1332.065 2089.096,1322.923 2067.442 C 1314.524 2047.545,1289.920 2021.168,1270.273 2010.995 C 1256.399 2003.812,1243.679 2002.134,1184.000 1999.613 C 1049.595 1993.936,949.791 1969.240,842.000 1914.989 C 682.968 1834.948,557.266 1707.235,479.953 1547.148 C 345.267 1268.265,383.709 937.503,578.875 696.000 C 607.500 660.579,676.073 593.342,710.000 567.430 C 851.390 459.440,1025.349 400.000,1200.000 400.000 C 1381.033 400.000,1562.235 464.310,1704.000 578.875 C 1739.421 607.500,1806.658 676.073,1832.570 710.000 C 1905.933 806.054,1960.767 925.890,1983.570 1040.000 C 1992.602 1085.197,1999.983 1144.121,1997.224 1149.000 C 1996.291 1150.650,1960.754 1152.000,1918.254 1152.000 C 1861.287 1152.000,1839.902 1153.314,1836.880 1157.000 C 1832.915 1161.836,1830.590 1173.020,1831.539 1182.692 C 1832.268 1190.111,2079.903 1477.420,2090.490 1483.128 C 2098.224 1487.298,2101.776 1487.298,2109.510 1483.128 C 2114.741 1480.307,2175.041 1412.611,2243.510 1332.692 C 2351.022 1207.201,2368.000 1185.625,2368.000 1174.492 C 2368.000 1167.401,2365.840 1159.440,2363.200 1156.800 C 2359.790 1153.390,2335.484 1152.000,2279.276 1152.000 C 2200.402 1152.000,2200.147 1151.972,2198.418 1143.000 C 2197.465 1138.050,2194.727 1113.300,2192.334 1088.000 C 2170.462 856.737,2049.095 618.902,1872.307 460.865 C 1717.841 322.783,1539.685 239.533,1335.214 209.888 C 1294.761 204.023,1163.425 199.270,1128.000 202.389 M1130.000 711.483 C 1114.072 721.375,1101.496 735.459,1096.266 749.260 C 1089.891 766.086,1090.400 1255.733,1096.815 1277.143 C 1106.799 1310.468,1125.338 1323.718,1349.594 1457.819 C 1465.970 1527.410,1568.864 1586.401,1578.247 1588.911 C 1638.567 1605.044,1688.814 1528.532,1650.708 1478.573 C 1643.365 1468.946,1583.808 1431.504,1442.293 1347.547 L 1244.158 1230.000 1244.079 1005.197 C 1243.997 772.073,1242.622 749.498,1227.325 730.051 C 1207.694 705.093,1156.128 695.256,1130.000 711.483 " fill="#1D1E23" stroke="none" fill-rule="evenodd"/></svg>