<svg viewBox="0 0 2400 2400" fill="none" xmlns="http://www.w3.org/2000/svg"><path d="M1108.545 204.138 C 796.319 234.318,520.746 404.372,350.372 672.000 C 318.468 722.115,273.515 818.568,252.284 882.460 C 183.002 1090.954,183.002 1309.046,252.284 1517.540 C 300.974 1664.069,381.908 1794.313,493.797 1906.203 C 647.637 2060.042,840.890 2157.629,1056.000 2190.098 C 1112.351 2198.603,1244.456 2202.501,1267.053 2196.324 C 1331.875 2178.607,1351.822 2090.344,1302.979 2037.355 C 1274.308 2006.251,1264.004 2002.987,1184.000 1999.656 C 1052.317 1994.175,949.680 1968.776,842.000 1915.021 C 766.589 1877.375,708.042 1835.590,644.580 1774.120 C 573.375 1705.151,525.536 1639.324,481.701 1550.000 C 330.046 1240.966,395.155 867.895,642.640 627.819 C 710.756 561.743,765.491 523.173,850.000 481.701 C 1130.525 344.037,1472.374 385.031,1710.000 584.831 C 1802.050 662.228,1866.456 744.209,1918.323 850.000 C 1972.168 959.826,1999.894 1081.301,2000.036 1208.000 C 2000.084 1251.629,2008.698 1275.987,2032.394 1299.503 C 2074.291 1341.084,2142.105 1340.549,2179.161 1298.345 C 2196.229 1278.905,2199.954 1262.013,2199.964 1204.000 C 2200.050 705.963,1838.637 285.623,1346.700 211.616 C 1285.763 202.448,1165.192 198.663,1108.545 204.138 M1132.284 711.006 C 1124.741 714.853,1113.041 724.917,1106.284 733.372 L 1094.000 748.744 1094.000 1011.372 C 1094.000 1273.985,1094.001 1274.001,1102.764 1290.379 C 1107.585 1299.387,1117.774 1312.241,1125.406 1318.942 C 1133.039 1325.644,1207.085 1371.829,1289.954 1421.576 L 1440.624 1512.024 1476.581 1476.068 C 1496.357 1456.291,1520.517 1434.381,1530.269 1427.377 C 1540.021 1420.374,1547.966 1413.599,1547.925 1412.322 C 1547.884 1411.045,1479.034 1369.154,1394.925 1319.230 L 1242.000 1228.461 1240.000 989.230 C 1238.058 756.926,1237.762 749.595,1229.777 736.002 C 1212.629 706.811,1164.641 694.507,1132.284 711.006 M1850.000 1402.511 C 1711.690 1417.529,1581.793 1491.373,1499.196 1601.937 C 1468.239 1643.377,1430.909 1719.767,1418.044 1768.000 C 1387.460 1882.670,1398.189 2006.800,1447.635 2110.372 C 1475.059 2167.817,1503.569 2208.297,1547.636 2252.364 C 1718.563 2423.291,1979.506 2447.770,2182.372 2311.910 C 2222.911 2284.760,2284.760 2222.911,2311.910 2182.372 C 2428.328 2008.537,2428.328 1791.463,2311.910 1617.628 C 2285.156 1577.679,2223.076 1515.347,2183.968 1489.167 C 2099.641 1432.715,2016.414 1405.575,1918.000 1402.434 C 1889.400 1401.521,1858.800 1401.556,1850.000 1402.511 M1634.017 1806.625 C 1670.996 1819.225,1700.000 1860.362,1700.000 1900.210 C 1700.000 1949.644,1660.297 1993.679,1611.189 1998.710 C 1570.530 2002.876,1533.962 1984.375,1513.267 1949.169 C 1503.616 1932.750,1502.000 1925.697,1502.000 1900.000 C 1502.000 1874.417,1503.633 1867.222,1513.089 1851.136 C 1538.628 1807.691,1585.986 1790.259,1634.017 1806.625 M1934.017 1806.625 C 1970.996 1819.225,2000.000 1860.362,2000.000 1900.210 C 2000.000 1949.644,1960.297 1993.679,1911.189 1998.710 C 1870.530 2002.876,1833.962 1984.375,1813.267 1949.169 C 1803.616 1932.750,1802.000 1925.697,1802.000 1900.000 C 1802.000 1874.417,1803.633 1867.222,1813.089 1851.136 C 1838.628 1807.691,1885.986 1790.259,1934.017 1806.625 M2234.017 1806.625 C 2270.996 1819.225,2300.000 1860.362,2300.000 1900.210 C 2300.000 1949.644,2260.297 1993.679,2211.189 1998.710 C 2170.530 2002.876,2133.962 1984.375,2113.267 1949.169 C 2103.616 1932.750,2102.000 1925.697,2102.000 1900.000 C 2102.000 1874.417,2103.633 1867.222,2113.089 1851.136 C 2138.628 1807.691,2185.986 1790.259,2234.017 1806.625 " fill="#1D1E23" stroke="none" fill-rule="evenodd"/></svg>