<svg viewBox="0 0 2400 2400" fill="none" xmlns="http://www.w3.org/2000/svg"><path d="M2052.000 202.671 C 2014.799 208.553,1957.733 222.428,1928.478 232.702 C 1829.346 267.518,1734.305 335.266,1675.949 412.710 C 1643.588 455.655,1633.046 474.546,1615.249 521.479 L 1600.000 561.692 1600.000 972.754 L 1600.000 1383.816 1610.818 1390.908 C 1620.392 1397.185,1634.650 1398.157,1734.818 1399.369 L 1848.000 1400.738 1848.000 1752.449 L 1848.000 2104.159 1858.593 2121.079 C 1881.844 2158.217,1911.866 2185.273,1937.699 2192.371 C 1962.633 2199.222,2001.782 2197.356,2022.154 2188.344 C 2043.927 2178.713,2081.774 2141.833,2091.163 2121.098 C 2097.540 2107.015,2098.074 2042.465,2099.096 1161.366 L 2100.193 216.732 2089.557 208.366 C 2079.258 200.265,2073.109 199.333,2052.000 202.671 M369.038 207.660 C 352.365 211.923,323.271 235.789,311.326 255.001 L 302.000 270.000 300.874 614.250 L 299.748 958.500 314.095 1000.250 C 346.097 1093.377,389.020 1158.712,450.562 1207.975 C 503.477 1250.333,578.494 1283.210,644.502 1292.973 L 675.004 1297.484 677.260 1701.742 C 678.501 1924.084,680.805 2111.400,682.379 2118.000 C 684.086 2125.158,696.761 2141.550,713.791 2158.623 C 745.303 2190.214,760.176 2196.800,800.000 2196.800 C 839.824 2196.800,854.697 2190.214,886.209 2158.623 C 903.277 2141.512,915.905 2125.174,917.607 2118.000 C 919.173 2111.400,921.482 1923.750,922.738 1701.000 L 925.021 1296.000 936.084 1296.000 C 955.272 1296.000,1039.854 1272.822,1066.968 1260.134 C 1106.736 1241.524,1143.390 1215.486,1177.442 1181.655 C 1232.563 1126.890,1262.321 1075.965,1288.267 992.000 L 1301.246 950.000 1298.690 618.000 C 1297.281 434.941,1294.450 279.057,1292.381 270.523 C 1287.457 250.221,1269.567 228.423,1247.642 216.014 C 1233.137 207.804,1224.613 206.026,1199.705 206.014 C 1172.988 206.002,1167.127 207.418,1150.094 218.000 C 1139.471 224.600,1125.218 236.899,1118.422 245.331 L 1106.064 260.663 1103.364 347.331 C 1101.878 394.999,1100.514 538.850,1100.332 667.000 L 1100.000 900.000 1000.000 900.000 L 900.000 900.000 899.663 657.000 C 899.477 523.350,898.089 379.471,896.579 337.268 L 893.833 260.536 881.527 245.268 C 874.759 236.871,860.529 224.600,849.906 218.000 C 832.835 207.395,827.033 206.000,799.978 206.000 C 772.918 206.000,767.126 207.393,750.072 218.000 C 739.461 224.600,725.218 236.899,718.422 245.331 L 706.064 260.663 703.364 347.331 C 701.878 394.999,700.514 538.850,700.332 667.000 L 700.000 900.000 600.000 900.000 L 500.000 900.000 499.663 657.000 C 499.477 523.350,498.089 379.471,496.579 337.268 L 493.833 260.536 481.527 245.268 C 461.697 220.665,436.663 207.346,407.214 205.730 C 393.346 204.969,376.167 205.837,369.038 207.660 " fill="#1D1E23" stroke="none" fill-rule="evenodd"/></svg>