<svg viewBox="0 0 2400 2400" fill="none" xmlns="http://www.w3.org/2000/svg"><path d="M377.328 203.647 C 345.381 211.735,308.722 245.792,301.655 273.949 C 300.536 278.410,300.236 435.047,300.989 622.030 L 302.358 962.000 312.864 998.000 C 359.816 1158.883,483.667 1269.794,641.918 1292.675 L 675.647 1297.552 677.000 1701.776 C 678.063 2019.111,679.467 2109.358,683.536 2121.620 C 689.829 2140.588,723.865 2175.631,748.301 2188.302 C 773.713 2201.479,826.287 2201.479,851.699 2188.302 C 876.135 2175.631,910.171 2140.588,916.464 2121.620 C 920.533 2109.358,921.937 2019.111,923.000 1701.776 L 924.353 1297.552 958.082 1292.675 C 1047.773 1279.707,1126.835 1238.370,1189.988 1171.425 C 1237.341 1121.227,1267.320 1067.198,1287.323 996.000 L 1298.000 958.000 1298.000 620.000 C 1298.000 248.870,1298.630 258.897,1273.732 233.999 C 1251.451 211.718,1229.984 202.560,1200.000 202.545 C 1170.207 202.531,1153.996 209.287,1130.670 231.441 C 1099.857 260.706,1102.136 233.708,1100.819 585.000 L 1099.639 900.000 1000.023 900.000 L 900.407 900.000 898.997 589.000 C 897.932 354.020,896.365 274.315,892.585 262.924 C 886.538 244.703,865.814 223.175,842.894 211.306 C 830.610 204.945,818.906 202.555,800.000 202.545 C 770.207 202.531,753.996 209.287,730.670 231.441 C 699.857 260.706,702.136 233.708,700.819 585.000 L 699.639 900.000 600.023 900.000 L 500.407 900.000 498.997 589.000 C 497.932 354.020,496.365 274.315,492.585 262.924 C 486.664 245.081,465.836 223.140,444.474 212.242 C 426.536 203.091,395.312 199.094,377.328 203.647 M2026.759 206.407 C 1912.141 224.291,1808.649 275.363,1728.658 353.516 C 1666.629 414.120,1633.930 462.472,1613.365 524.000 L 1602.000 558.000 1602.000 971.353 L 1602.000 1384.706 1611.443 1392.353 C 1620.245 1399.481,1628.592 1400.000,1734.443 1400.000 L 1848.000 1400.000 1848.039 1749.000 L 1848.078 2098.000 1857.832 2118.950 C 1871.149 2147.554,1899.804 2177.138,1925.145 2188.446 C 1954.645 2201.609,1998.529 2201.679,2025.080 2188.605 C 2049.466 2176.596,2076.596 2149.466,2088.605 2125.080 L 2098.000 2106.000 2098.000 1160.646 L 2098.000 215.293 2088.557 207.646 C 2077.802 198.938,2074.992 198.882,2026.759 206.407 " fill="#1D1E23" stroke="none" fill-rule="evenodd"/></svg>