<svg viewBox="0 0 2400 2400" fill="none" xmlns="http://www.w3.org/2000/svg"><path d="M1100 900H900V300C900 244.772 855.228 200 800 200C744.772 200 700 244.772 700 300V900H500V300C500 244.772 455.228 200 400 200C344.772 200 300 244.772 300 300V900C300 1112 466 1284 675 1297V2075C675 2144.04 730.964 2200 800 2200C869.036 2200 925 2144.04 925 2075V1297C1134 1284 1300 1112 1300 900V300C1300 244.772 1255.23 200 1200 200C1144.77 200 1100 244.772 1100 300V900ZM1600 600V1375C1600 1388.81 1611.19 1400 1625 1400H1850V2075C1850 2144.04 1905.96 2200 1975 2200C2044.04 2200 2100 2144.04 2100 2075V225C2100 211.193 2088.79 199.937 2075 200.612C1810.6 213.561 1600 429.345 1600 600Z" fill="#1D1E23"/></svg>