<svg viewBox="0 0 2400 2400" fill="none" xmlns="http://www.w3.org/2000/svg"><path d="M2052.000 202.668 C 1901.334 230.600,1803.684 278.963,1713.512 370.312 C 1671.319 413.056,1639.759 460.995,1617.724 515.815 L 1600.000 559.909 1600.000 971.862 L 1600.000 1383.816 1610.821 1390.908 C 1620.394 1397.182,1634.702 1398.163,1734.821 1399.410 L 1848.000 1400.820 1848.000 1753.970 L 1848.000 2107.120 1865.318 2130.560 C 1903.117 2181.720,1932.102 2197.972,1980.754 2195.283 C 1997.514 2194.356,2016.254 2190.625,2024.649 2186.544 C 2045.578 2176.368,2087.080 2133.512,2092.599 2116.376 C 2096.031 2105.719,2097.678 1858.306,2098.966 1159.938 C 2100.667 237.708,2100.543 217.731,2093.089 210.986 C 2084.646 203.345,2067.295 199.833,2052.000 202.668 M377.027 207.877 C 355.165 211.295,329.440 229.769,313.000 253.856 L 300.000 272.904 300.000 616.133 L 300.000 959.363 312.211 994.681 C 344.121 1086.980,391.380 1159.723,449.849 1206.538 C 503.001 1249.096,591.255 1287.141,653.903 1294.504 L 674.707 1296.949 677.162 1704.303 C 679.937 2164.821,676.339 2120.860,714.374 2158.896 C 743.068 2187.590,762.161 2195.824,800.000 2195.824 C 837.839 2195.824,856.932 2187.590,885.626 2158.896 C 923.558 2120.963,919.970 2164.839,922.799 1704.387 L 925.302 1296.948 946.460 1294.462 C 976.420 1290.940,1057.918 1265.563,1084.000 1251.634 C 1117.075 1233.969,1155.282 1203.897,1186.793 1170.724 C 1236.553 1118.339,1260.165 1077.141,1286.494 996.771 L 1300.000 955.541 1299.645 746.771 C 1299.449 631.947,1298.087 477.700,1296.617 404.000 L 1293.945 270.000 1283.058 251.434 C 1276.804 240.768,1264.183 227.576,1253.400 220.434 C 1236.022 208.923,1232.056 208.000,1199.965 208.000 C 1166.066 208.000,1164.826 208.343,1143.651 223.560 C 1131.743 232.118,1117.650 245.051,1112.333 252.301 L 1102.665 265.481 1100.783 582.741 L 1098.902 900.000 999.979 900.000 L 901.056 900.000 899.266 582.837 L 897.476 265.673 887.738 252.397 C 882.382 245.095,868.257 232.118,856.349 223.560 C 835.171 208.340,833.940 208.000,800.000 208.000 C 766.060 208.000,764.829 208.340,743.651 223.560 C 731.743 232.118,717.650 245.051,712.333 252.301 L 702.665 265.481 700.783 582.741 L 698.902 900.000 599.979 900.000 L 501.056 900.000 499.263 582.309 L 497.470 264.618 483.192 247.194 C 457.776 216.176,418.050 201.465,377.027 207.877 " fill="#1D1E23" stroke="none" fill-rule="evenodd"/></svg>