<svg viewBox="0 0 2400 2400" fill="none" xmlns="http://www.w3.org/2000/svg"><path d="M366.363 206.293 C 343.583 214.639,325.689 229.702,313.089 251.136 L 302.000 270.000 300.911 602.935 C 299.851 927.020,300.044 936.959,308.170 976.836 C 341.977 1142.726,477.009 1270.638,642.092 1293.149 L 676.000 1297.773 676.000 1698.174 C 676.000 2148.985,674.014 2119.579,706.938 2156.198 C 716.949 2167.333,734.333 2181.268,745.570 2187.165 C 763.074 2196.352,770.870 2197.888,800.000 2197.888 C 829.130 2197.888,836.926 2196.352,854.430 2187.165 C 865.667 2181.268,883.051 2167.333,893.062 2156.198 C 925.986 2119.579,924.000 2148.985,924.000 1698.174 L 924.000 1297.773 957.908 1293.149 C 1122.794 1270.665,1258.028 1142.705,1291.741 977.273 C 1299.687 938.279,1300.000 924.400,1300.000 611.084 C 1300.000 244.123,1301.337 261.127,1270.014 229.804 C 1238.975 198.765,1193.162 192.029,1153.149 212.620 C 1131.501 223.761,1110.297 249.085,1104.182 271.101 C 1101.498 280.766,1100.037 393.855,1100.022 593.000 L 1100.000 900.000 1000.000 900.000 L 900.000 900.000 900.000 592.713 C 900.000 246.296,901.215 261.005,870.014 229.804 C 838.975 198.765,793.162 192.029,753.149 212.620 C 731.501 223.761,710.297 249.085,704.182 271.101 C 701.498 280.766,700.037 393.855,700.022 593.000 L 700.000 900.000 600.000 900.000 L 500.000 900.000 500.000 592.713 C 500.000 246.422,501.200 260.990,470.105 229.895 C 442.868 202.658,401.791 193.312,366.363 206.293 M2052.000 202.557 C 2046.500 203.365,2028.500 205.990,2012.000 208.391 C 1943.183 218.406,1851.189 256.994,1786.822 302.844 C 1719.443 350.841,1653.435 427.635,1625.668 490.333 C 1619.904 503.350,1611.770 527.338,1607.594 543.640 C 1600.380 571.795,1600.000 593.587,1600.000 978.640 C 1600.000 1378.667,1600.105 1384.105,1608.000 1392.000 C 1615.632 1399.632,1621.333 1400.000,1731.875 1400.000 L 1847.750 1400.000 1848.875 1751.000 L 1850.000 2102.000 1860.592 2124.592 C 1889.413 2186.067,1956.776 2214.843,2017.876 2191.781 C 2049.856 2179.711,2079.644 2150.107,2091.385 2118.726 L 2100.000 2095.700 2100.000 1155.850 C 2100.000 221.333,2099.955 215.955,2092.000 208.000 C 2084.378 200.378,2075.279 199.140,2052.000 202.557 " fill="#1D1E23" stroke="none" fill-rule="evenodd"/></svg>