<svg viewBox="0 0 2400 2400" fill="none" xmlns="http://www.w3.org/2000/svg"><path d="M2020.000 208.061 C 1882.905 232.264,1763.342 302.536,1678.200 408.950 C 1647.991 446.706,1628.978 481.260,1612.104 529.068 L 1600.000 563.360 1600.000 973.060 L 1600.000 1382.760 1608.413 1390.380 C 1616.210 1397.442,1625.297 1398.086,1732.413 1399.173 L 1848.000 1400.346 1848.000 1751.408 L 1848.000 2102.471 1862.048 2126.235 C 1878.878 2154.706,1903.459 2178.196,1928.000 2189.260 C 1953.734 2200.863,1999.360 2200.421,2024.705 2188.324 C 2047.336 2177.523,2081.475 2142.427,2092.080 2119.062 C 2099.668 2102.344,2099.826 2082.986,2099.912 1159.290 L 2100.000 216.581 2089.461 208.290 C 2076.978 198.471,2074.367 198.463,2020.000 208.061 M361.421 209.786 C 343.481 217.592,316.733 242.881,307.710 260.568 C 300.275 275.141,300.000 287.836,300.000 615.915 L 300.000 956.148 314.491 1001.074 C 344.819 1095.102,386.834 1158.304,455.115 1212.610 C 505.556 1252.728,588.073 1287.085,651.112 1294.218 L 675.004 1296.921 676.837 1703.460 C 678.429 2056.704,679.471 2111.835,684.784 2124.000 C 693.297 2143.490,730.433 2179.549,752.000 2189.266 C 776.845 2200.460,823.155 2200.460,848.000 2189.266 C 869.579 2179.543,906.715 2143.477,915.200 2124.000 C 920.492 2111.853,921.546 2056.139,923.159 1703.000 L 925.018 1296.000 935.509 1295.913 C 951.159 1295.784,1014.430 1281.162,1038.812 1272.040 C 1092.201 1252.064,1136.640 1223.440,1178.063 1182.344 C 1232.149 1128.685,1260.499 1080.502,1286.116 998.705 L 1300.928 951.410 1298.843 618.705 C 1297.395 387.695,1295.353 280.498,1292.162 268.000 C 1286.712 246.652,1265.082 222.337,1242.000 211.611 C 1222.513 202.555,1181.552 201.573,1162.113 209.695 C 1141.971 218.111,1112.815 246.772,1107.429 263.451 C 1104.060 273.884,1102.249 365.989,1101.029 589.000 L 1099.327 900.000 1000.196 900.000 L 901.064 900.000 899.141 587.000 C 897.505 320.750,896.322 271.909,891.220 260.000 C 884.119 243.424,856.586 217.508,837.687 209.611 C 820.335 202.361,779.557 202.407,762.113 209.695 C 741.971 218.111,712.815 246.772,707.429 263.451 C 704.060 273.884,702.249 365.989,701.029 589.000 L 699.327 900.000 600.196 900.000 L 501.064 900.000 499.141 587.000 C 497.505 320.750,496.322 271.909,491.220 260.000 C 484.119 243.424,456.586 217.508,437.687 209.611 C 420.702 202.515,377.908 202.613,361.421 209.786 " fill="#1D1E23" stroke="none" fill-rule="evenodd"/></svg>