<svg viewBox="0 0 2400 2400" fill="none" xmlns="http://www.w3.org/2000/svg"><path d="M670.535 107.885 C 640.558 117.486,610.567 149.296,603.733 178.737 C 601.785 187.132,600.148 217.508,600.095 246.240 L 600.000 298.481 533.000 303.101 C 457.343 308.318,426.343 315.096,399.579 332.270 C 378.072 346.071,344.792 379.043,329.197 402.000 C 308.915 431.856,307.709 443.792,303.940 652.000 C 299.759 882.937,299.427 1736.587,303.469 1862.521 L 306.310 1951.042 321.157 1981.083 C 344.486 2028.286,388.292 2068.180,439.579 2088.929 C 461.753 2097.900,464.301 2098.012,670.899 2099.103 C 785.793 2099.710,910.893 2098.665,948.899 2096.781 C 1024.034 2093.056,1034.099 2090.302,1059.341 2066.552 C 1080.052 2047.066,1084.689 2034.809,1084.845 1999.138 C 1084.971 1970.332,1083.872 1965.672,1073.492 1951.003 C 1067.171 1942.070,1055.281 1929.350,1047.068 1922.736 C 1026.908 1906.501,1008.248 1905.099,766.000 1901.622 L 570.000 1898.809 554.000 1887.804 C 526.262 1868.725,516.050 1855.119,511.842 1831.634 C 507.249 1806.000,500.464 1333.861,500.192 1021.000 L 500.000 800.000 1199.513 800.000 L 1899.026 800.000 1900.833 911.000 C 1902.821 1033.078,1904.330 1041.523,1928.654 1066.656 C 1947.474 1086.102,1985.067 1101.489,2006.558 1098.544 C 2041.530 1093.750,2083.991 1063.165,2092.546 1036.606 C 2095.899 1026.197,2097.744 940.838,2098.967 739.562 L 2100.683 457.124 2088.775 433.535 C 2062.165 380.820,2025.066 343.033,1979.393 322.123 C 1950.023 308.677,1927.279 304.800,1858.773 301.564 L 1801.121 298.840 1798.792 240.420 C 1795.924 168.474,1792.231 154.879,1769.649 133.131 C 1729.442 94.409,1660.720 96.789,1624.394 138.162 C 1607.829 157.028,1604.221 173.094,1601.297 241.000 L 1598.756 300.000 1199.959 300.000 L 801.162 300.000 798.923 241.000 C 795.768 157.883,787.465 138.134,747.015 117.544 C 725.991 106.843,688.552 102.114,670.535 107.885 M1644.000 1206.522 C 1572.646 1216.740,1536.776 1227.594,1480.000 1256.145 C 1331.093 1331.028,1228.969 1471.530,1207.626 1630.877 C 1196.103 1716.908,1210.324 1822.755,1243.870 1900.646 C 1307.367 2048.081,1474.407 2174.999,1628.000 2192.511 C 1679.297 2198.360,1784.178 2193.673,1822.748 2183.809 C 1929.418 2156.527,2041.443 2077.643,2108.600 1982.522 C 2146.678 1928.589,2178.998 1851.723,2190.351 1788.098 C 2197.598 1747.482,2197.448 1653.353,2190.069 1611.039 C 2169.617 1493.757,2097.565 1378.001,1998.595 1303.425 C 1956.525 1271.724,1880.118 1234.559,1832.000 1222.391 C 1775.902 1208.205,1685.518 1200.576,1644.000 1206.522 M1743.535 1454.282 C 1744.380 1455.082,1746.778 1506.647,1748.864 1568.869 L 1752.657 1682.000 1844.354 1774.057 L 1936.052 1866.115 1900.973 1901.032 L 1865.894 1935.948 1756.342 1826.342 L 1646.790 1716.736 1649.692 1587.921 C 1651.288 1517.073,1653.628 1456.411,1654.893 1453.116 C 1656.832 1448.062,1663.818 1447.571,1699.596 1449.976 C 1722.918 1451.543,1742.691 1453.481,1743.535 1454.282 " fill="#1D1E23" stroke="none" fill-rule="evenodd"/></svg>