<svg viewBox="0 0 2400 2400" fill="none" xmlns="http://www.w3.org/2000/svg"><path d="M677.328 103.647 C 642.660 112.424,611.127 142.885,603.733 174.737 C 601.785 183.132,600.148 214.504,600.095 244.454 L 600.000 298.908 531.000 301.078 C 452.357 303.550,433.995 307.756,396.747 331.831 C 362.740 353.811,337.967 380.911,321.586 414.051 C 308.820 439.879,307.427 446.377,304.002 496.051 C 299.557 560.526,299.212 1870.512,303.627 1920.900 C 306.131 1949.480,309.417 1961.329,321.774 1986.332 C 349.658 2042.751,407.155 2086.493,466.000 2096.054 C 492.936 2100.431,914.269 2101.498,981.882 2097.361 C 1021.324 2094.948,1026.554 2093.667,1043.100 2082.361 C 1071.214 2063.152,1084.471 2041.660,1086.875 2011.395 C 1087.984 1997.428,1086.918 1978.704,1084.504 1969.788 C 1078.652 1948.167,1056.276 1922.784,1033.237 1911.631 C 1014.637 1902.627,1012.808 1902.541,792.146 1900.279 L 569.798 1898.000 548.518 1884.339 C 513.387 1861.785,507.806 1849.668,503.778 1787.205 C 501.890 1757.942,500.268 1523.850,500.173 1267.000 L 500.000 800.000 1199.595 800.000 L 1899.190 800.000 1900.726 915.000 C 1902.181 1023.979,1902.720 1030.870,1911.015 1046.613 C 1927.086 1077.115,1965.230 1100.000,2000.000 1100.000 C 2036.388 1100.000,2073.381 1076.796,2090.335 1043.338 L 2100.395 1023.485 2099.191 740.743 L 2097.986 458.000 2088.368 434.000 C 2067.733 382.512,2034.038 345.352,1986.832 322.021 C 1954.103 305.846,1917.377 300.311,1841.419 300.108 L 1800.838 300.000 1799.200 237.000 C 1797.390 167.358,1794.107 154.723,1772.109 132.725 C 1739.256 99.872,1692.269 92.421,1652.983 113.835 C 1610.634 136.917,1600.000 163.170,1600.000 244.636 L 1600.000 300.000 1200.419 300.000 L 800.838 300.000 799.200 237.000 C 797.390 167.358,794.107 154.723,772.109 132.725 C 747.300 107.915,708.041 95.871,677.328 103.647 M1640.000 1204.222 C 1497.277 1222.001,1359.961 1307.197,1283.526 1425.390 C 1191.777 1567.264,1175.996 1739.636,1240.557 1894.720 C 1298.059 2032.845,1418.442 2137.825,1570.000 2182.012 C 1634.588 2200.842,1742.319 2202.702,1814.000 2186.224 C 1954.150 2154.006,2081.942 2052.387,2147.674 1920.890 C 2163.706 1888.818,2181.495 1835.421,2190.614 1792.000 C 2200.495 1744.945,2200.369 1650.635,2190.363 1604.000 C 2153.488 1432.152,2043.243 1300.736,1882.000 1236.423 C 1811.189 1208.179,1713.056 1195.122,1640.000 1204.222 M1746.291 1452.958 C 1747.859 1454.525,1750.036 1506.967,1751.129 1569.495 L 1753.118 1683.182 1844.536 1774.535 L 1935.954 1865.888 1901.032 1900.973 L 1866.110 1936.057 1757.055 1827.056 L 1648.000 1718.055 1648.000 1593.288 C 1648.000 1518.393,1649.626 1464.244,1652.068 1457.820 L 1656.137 1447.120 1699.789 1448.614 C 1723.798 1449.436,1744.724 1451.390,1746.291 1452.958 " fill="#1D1E23" stroke="none" fill-rule="evenodd"/></svg>