<svg viewBox="0 0 2400 2400" fill="none" xmlns="http://www.w3.org/2000/svg"><path d="M675.282 105.641 C 642.569 114.343,612.891 142.970,604.415 174.000 C 602.011 182.800,600.035 214.471,600.022 244.380 L 600.000 298.759 534.611 301.440 C 435.853 305.487,408.461 315.256,359.708 363.813 C 331.902 391.508,315.252 420.262,307.486 454.000 C 301.656 479.327,297.666 1813.585,303.167 1898.193 C 306.506 1949.546,307.960 1956.781,320.041 1982.193 C 329.340 2001.750,341.679 2018.417,361.631 2038.369 C 397.821 2074.559,430.150 2090.758,476.920 2096.136 C 519.935 2101.082,952.023 2101.086,995.030 2096.141 C 1034.865 2091.561,1057.786 2077.997,1074.906 2048.872 C 1084.394 2032.733,1086.000 2025.613,1086.000 1999.705 C 1086.000 1972.968,1084.578 1967.107,1073.894 1949.810 C 1066.385 1937.653,1054.357 1925.615,1042.216 1918.106 C 1023.019 1906.232,1021.336 1905.950,954.322 1903.400 C 916.745 1901.970,815.629 1900.620,729.620 1900.400 L 573.240 1900.000 548.359 1883.919 C 508.336 1858.051,507.104 1853.487,503.548 1718.000 C 501.932 1656.400,500.472 1424.650,500.304 1203.000 L 500.000 800.000 1200.000 800.000 L 1900.000 800.000 1900.028 891.000 C 1900.067 1013.458,1902.077 1032.242,1917.623 1055.396 C 1935.618 1082.198,1973.513 1101.382,2004.000 1099.124 C 2041.444 1096.351,2074.667 1073.975,2092.111 1039.782 C 2099.979 1024.360,2100.132 1017.751,2099.078 739.007 L 2098.000 454.000 2084.784 426.090 C 2066.032 386.487,2043.080 358.650,2012.488 338.404 C 1968.670 309.405,1927.202 300.095,1841.567 300.030 L 1801.135 300.000 1799.085 237.000 C 1796.699 163.658,1793.455 153.002,1766.210 129.021 C 1742.429 108.087,1726.244 102.744,1692.408 104.656 C 1670.397 105.900,1661.853 108.544,1645.095 119.297 C 1633.847 126.515,1621.789 136.779,1618.299 142.105 C 1606.058 160.788,1600.000 196.121,1600.000 248.840 L 1600.000 300.000 1200.567 300.000 L 801.135 300.000 798.996 237.000 C 796.661 168.235,793.864 156.655,774.755 136.643 C 748.428 109.072,708.805 96.723,675.282 105.641 M1653.949 1204.266 C 1486.042 1217.406,1326.050 1327.993,1252.139 1482.000 C 1217.235 1554.729,1202.467 1620.443,1202.697 1702.000 C 1203.080 1837.289,1252.469 1957.197,1346.037 2050.000 C 1418.729 2122.098,1515.646 2174.132,1606.876 2190.041 C 1651.340 2197.795,1748.575 2197.810,1792.961 2190.069 C 1934.345 2165.414,2072.466 2062.761,2142.076 1930.601 C 2160.494 1895.634,2184.241 1826.299,2192.287 1784.000 C 2199.411 1746.545,2198.283 1640.867,2190.373 1604.649 C 2156.069 1447.588,2061.373 1324.498,1920.846 1254.306 C 1844.100 1215.973,1744.053 1197.215,1653.949 1204.266 M1746.253 1452.920 C 1747.041 1453.708,1748.858 1505.573,1750.291 1568.176 L 1752.895 1682.000 1844.474 1774.057 L 1936.052 1866.115 1900.973 1901.032 L 1865.894 1935.948 1756.531 1826.532 L 1647.169 1717.115 1648.600 1587.558 C 1649.387 1516.301,1651.639 1455.494,1653.603 1452.432 C 1656.453 1447.989,1666.030 1447.331,1700.998 1449.175 C 1725.100 1450.447,1745.465 1452.132,1746.253 1452.920 " fill="#1D1E23" stroke="none" fill-rule="evenodd"/></svg>