<svg viewBox="0 0 2400 2400" fill="none" xmlns="http://www.w3.org/2000/svg"><path d="M1800 300H1900C2010 300 2100 390 2100 500V1001.34C2100 1056.56 2055.23 1101.34 2000 1101.34C1946.49 1101.34 1902.79 1059.3 1900.13 1006.45L1900 1006.42V800H500V1800C500 1855 545 1900 600 1900H1004.49V1901.1C1052.62 1908.32 1089.52 1949.86 1089.52 2000C1089.52 2050.14 1052.62 2091.66 1004.49 2098.89V2100H500C389 2100 300 2010 300 1900L301 500C301 390 389 300 500 300H600V200C600 144.772 644.772 100 700 100C755.228 100 800 144.772 800 200V300H1600V200C1600 144.772 1644.77 100 1700 100C1755.23 100 1800 144.772 1800 200V300Z" fill="#1D1E23"/><path fill-rule="evenodd" d="M1505 2160.63C1565.83 2186.88 1630.83 2200 1700 2200C1769.17 2200 1834.17 2186.88 1895 2160.63C1955.83 2134.38 2008.75 2098.75 2053.75 2053.75C2098.75 2008.75 2134.38 1955.83 2160.63 1895C2186.88 1834.17 2200 1769.17 2200 1700C2200 1630.83 2186.88 1565.83 2160.63 1505C2134.38 1444.17 2098.75 1391.25 2053.75 1346.25C2008.75 1301.25 1955.83 1265.62 1895 1239.38C1834.17 1213.13 1769.17 1200 1700 1200C1630.83 1200 1565.83 1213.13 1505 1239.38C1444.17 1265.62 1391.25 1301.25 1346.25 1346.25C1301.25 1391.25 1265.62 1444.17 1239.38 1505C1213.13 1565.83 1200 1630.83 1200 1700C1200 1769.17 1213.13 1834.17 1239.38 1895C1265.62 1955.83 1301.25 2008.75 1346.25 2053.75C1391.25 2098.75 1444.17 2134.38 1505 2160.63ZM1750 1680L1935 1865L1865 1935L1650 1720V1450H1750V1680Z" fill="#1D1E23"/></svg>