<svg viewBox="0 0 2400 2400" fill="none" xmlns="http://www.w3.org/2000/svg"><path d="M666.363 106.293 C 643.583 114.639,625.689 129.702,613.089 151.136 C 602.398 169.322,601.952 172.335,600.656 235.000 L 599.312 300.000 542.390 300.000 C 511.084 300.000,474.789 301.945,461.735 304.321 C 406.957 314.294,349.626 357.177,324.516 406.959 C 298.665 458.208,300.124 410.851,300.059 1200.803 C 300.017 1710.332,301.287 1925.778,304.420 1940.803 C 320.327 2017.083,385.669 2081.384,462.000 2095.875 C 478.873 2099.078,564.991 2100.070,752.000 2099.215 C 1016.947 2098.005,1018.065 2097.965,1034.379 2089.236 C 1053.449 2079.031,1074.655 2056.197,1082.500 2037.419 C 1089.575 2020.488,1089.575 1979.512,1082.500 1962.581 C 1074.655 1943.803,1053.449 1920.969,1034.379 1910.764 C 1018.229 1902.123,1014.897 1901.972,796.000 1900.000 L 574.000 1898.000 554.995 1888.641 C 544.542 1883.493,530.643 1872.794,524.107 1864.865 C 498.676 1834.013,500.000 1864.639,500.000 1307.287 L 500.000 800.000 1199.775 800.000 L 1899.549 800.000 1900.775 915.000 C 1901.945 1024.841,1902.398 1030.743,1910.862 1046.570 C 1948.890 1117.675,2051.110 1117.675,2089.138 1046.570 L 2098.000 1030.000 2099.214 758.000 C 2100.069 566.555,2099.079 478.892,2095.874 462.000 C 2083.023 394.289,2034.562 338.282,1966.000 311.902 C 1945.070 303.849,1932.918 302.440,1871.000 300.888 L 1800.000 299.108 1800.000 242.267 C 1800.000 174.066,1794.810 154.599,1770.014 129.804 C 1728.068 87.857,1656.981 92.403,1621.197 139.319 C 1603.125 163.014,1600.048 178.080,1600.022 243.000 L 1600.000 300.000 1200.000 300.000 L 800.000 300.000 800.000 242.713 C 800.000 174.096,794.842 154.632,770.105 129.895 C 742.868 102.658,701.791 93.312,666.363 106.293 M1634.000 1204.581 C 1506.734 1220.802,1377.328 1296.706,1299.984 1400.499 C 1256.591 1458.730,1220.144 1542.156,1207.582 1612.000 C 1204.615 1628.500,1202.187 1668.100,1202.187 1700.000 C 1202.187 1764.434,1207.491 1801.145,1224.235 1852.584 C 1255.874 1949.783,1320.297 2040.214,1400.499 2100.006 C 1458.699 2143.395,1542.140 2179.853,1612.000 2192.418 C 1628.500 2195.385,1668.100 2197.813,1700.000 2197.813 C 1789.884 2197.813,1851.293 2183.207,1928.810 2143.389 C 2202.617 2002.744,2284.389 1647.921,2100.016 1400.499 C 1993.900 1258.095,1812.494 1181.830,1634.000 1204.581 M1751.059 1566.092 L 1752.118 1682.183 1844.036 1774.036 L 1935.954 1865.888 1901.032 1900.973 L 1866.110 1936.057 1757.055 1827.056 L 1648.000 1718.055 1648.000 1585.694 C 1648.000 1512.896,1649.253 1452.081,1650.783 1450.550 C 1652.314 1449.019,1675.264 1448.269,1701.783 1448.883 L 1750.000 1450.000 1751.059 1566.092 " fill="#1D1E23" stroke="none" fill-rule="evenodd"/></svg>