<svg viewBox="0 0 2400 2400" fill="none" xmlns="http://www.w3.org/2000/svg"><path d="M485.778 403.876 L 345.557 406.000 315.248 420.986 C 273.177 441.789,240.211 474.302,221.727 513.224 C 208.857 540.325,207.051 548.341,203.829 592.683 C 199.424 653.295,199.271 1777.114,203.662 1823.037 C 212.125 1911.570,286.688 1987.054,374.806 1996.297 C 391.963 1998.096,611.860 1999.666,863.467 1999.784 L 1320.933 2000.000 1318.392 1991.000 C 1300.278 1926.855,1299.649 1780.650,1317.218 1718.000 C 1364.252 1550.278,1460.140 1432.010,1610.044 1356.831 C 1683.111 1320.187,1756.484 1304.047,1850.000 1304.047 C 1970.775 1304.047,2064.174 1332.555,2164.283 1399.975 L 2200.000 1424.029 2199.824 1013.014 C 2199.728 786.956,2198.118 588.780,2196.246 572.623 C 2188.970 509.803,2146.242 451.390,2085.654 421.432 L 2054.443 406.000 1924.222 403.431 C 1772.234 400.432,691.050 400.767,485.778 403.876 M981.617 604.087 C 1068.021 609.598,1123.770 624.037,1193.939 659.077 C 1338.508 731.269,1437.670 854.091,1482.392 1016.353 C 1493.478 1056.574,1493.873 1061.149,1493.935 1150.000 C 1493.998 1239.225,1493.652 1243.256,1482.457 1283.647 C 1456.858 1376.005,1417.190 1450.594,1360.286 1513.368 C 1262.146 1621.632,1138.739 1684.299,999.524 1696.566 C 875.842 1707.464,755.621 1678.010,655.078 1612.177 C 533.959 1532.873,457.188 1426.691,417.544 1283.647 C 406.363 1243.302,406.002 1239.123,406.002 1150.000 C 406.002 1060.877,406.363 1056.698,417.544 1016.353 C 454.293 883.753,521.047 785.546,629.363 704.729 C 662.671 679.878,731.082 644.556,772.736 630.704 C 803.524 620.466,869.719 605.441,896.000 602.726 C 903.700 601.931,911.800 600.999,914.000 600.654 C 916.200 600.310,946.628 601.855,981.617 604.087 M917.217 807.824 C 890.503 824.113,891.411 816.500,892.771 1012.831 C 894.169 1214.718,891.964 1201.845,929.215 1225.666 C 975.555 1255.300,1168.366 1366.338,1201.710 1382.592 C 1241.229 1401.857,1247.705 1402.990,1263.841 1393.458 C 1278.670 1384.698,1288.000 1367.961,1288.000 1350.120 C 1288.000 1322.262,1295.387 1327.603,1108.000 1219.983 C 1049.700 1186.500,1001.197 1158.354,1000.215 1157.435 C 999.234 1156.516,997.319 1083.367,995.960 994.882 C 994.144 876.645,992.146 831.524,988.422 824.660 C 982.730 814.169,955.213 800.214,940.000 800.103 C 934.500 800.063,924.248 803.537,917.217 807.824 M1798.543 1404.162 C 1632.388 1422.862,1480.426 1543.206,1427.876 1697.708 C 1408.559 1754.501,1402.086 1792.724,1402.086 1850.000 C 1402.086 1947.072,1431.527 2039.949,1485.136 2112.000 C 1574.519 2232.132,1703.498 2297.818,1850.000 2297.818 C 1906.980 2297.818,1946.278 2291.146,2003.179 2271.811 C 2120.718 2231.872,2229.655 2124.173,2270.413 2007.616 C 2311.468 1890.208,2308.256 1778.947,2260.621 1668.457 C 2204.612 1538.542,2081.210 1439.841,1938.000 1410.413 C 1900.338 1402.674,1836.995 1399.835,1798.543 1404.162 M2095.159 1679.611 C 2120.927 1692.825,2129.277 1705.067,2131.265 1732.541 L 2133.032 1756.973 1975.516 1913.828 C 1882.450 2006.504,1810.258 2075.181,1799.077 2081.676 C 1776.923 2094.547,1762.431 2093.348,1740.000 2076.789 C 1720.267 2062.221,1610.899 1954.651,1587.496 1926.792 C 1570.205 1906.209,1568.000 1901.451,1568.000 1884.721 C 1568.000 1858.943,1581.774 1839.039,1606.023 1829.779 C 1637.394 1817.798,1647.935 1823.636,1716.692 1891.075 L 1776.246 1949.487 1901.123 1822.959 C 2018.572 1703.956,2054.945 1672.000,2072.942 1672.000 C 2076.999 1672.000,2086.997 1675.425,2095.159 1679.611 " fill="#1D1E23" stroke="none" fill-rule="evenodd"/></svg>