<svg viewBox="0 0 2400 2400" fill="none" xmlns="http://www.w3.org/2000/svg"><path d="M584.000 403.753 L 346.000 406.000 320.000 418.395 C 266.449 443.926,229.424 485.069,211.106 539.400 L 202.138 566.000 200.889 1156.000 C 200.202 1480.500,201.182 1770.617,203.066 1800.704 C 206.323 1852.724,207.237 1856.917,221.678 1886.136 C 252.434 1948.367,311.167 1990.048,376.963 1996.338 C 395.133 1998.075,614.960 1999.610,865.467 1999.748 L 1320.933 2000.000 1318.492 1991.000 C 1306.098 1945.295,1303.211 1910.893,1305.150 1832.000 C 1307.286 1745.073,1310.909 1723.732,1333.908 1662.629 C 1422.254 1427.916,1652.888 1280.433,1895.560 1303.472 C 1992.155 1312.642,2074.787 1341.486,2154.351 1393.806 L 2200.365 1424.064 2199.183 991.032 L 2198.000 558.000 2188.432 534.000 C 2166.769 479.662,2135.453 446.156,2082.000 420.124 L 2050.000 404.540 1436.000 403.023 C 1098.300 402.188,714.900 402.516,584.000 403.753 M1037.399 608.472 C 1128.395 620.119,1235.459 670.557,1310.058 736.922 C 1347.039 769.821,1384.841 812.545,1407.024 846.514 C 1447.319 908.217,1481.513 993.114,1491.935 1057.329 C 1497.111 1089.219,1497.111 1210.781,1491.935 1242.671 C 1480.304 1314.336,1437.824 1413.306,1391.969 1475.570 C 1299.152 1601.604,1154.979 1683.361,1002.435 1696.466 C 935.766 1702.193,860.485 1696.524,810.386 1682.002 C 608.480 1623.479,471.234 1483.345,414.928 1278.223 C 406.942 1249.130,406.083 1236.676,406.083 1150.000 C 406.083 1043.050,408.778 1026.612,438.819 950.317 C 493.713 810.900,605.940 697.011,742.902 641.732 C 837.723 603.462,923.010 593.829,1037.399 608.472 M928.656 806.543 C 901.496 820.362,902.134 815.997,900.754 997.215 C 899.471 1165.700,901.392 1194.031,915.137 1209.294 C 922.265 1217.208,1038.355 1287.267,1151.011 1351.641 C 1241.710 1403.468,1262.627 1408.396,1286.436 1383.545 C 1295.492 1374.093,1297.538 1368.336,1297.538 1352.315 C 1297.538 1341.512,1295.207 1329.864,1292.357 1326.431 C 1286.491 1319.362,1199.865 1267.119,1083.000 1200.169 L 1004.000 1154.911 1004.000 1001.956 C 1004.000 917.830,1002.856 843.281,1001.458 836.290 C 996.077 809.386,955.586 792.841,928.656 806.543 M1796.000 1404.366 C 1747.299 1409.731,1708.295 1421.371,1658.000 1445.547 C 1526.748 1508.637,1439.308 1621.826,1407.353 1770.000 C 1404.398 1783.700,1402.250 1818.892,1402.347 1852.000 C 1402.539 1917.298,1410.673 1959.866,1434.025 2017.776 C 1478.589 2128.286,1570.570 2221.238,1677.882 2264.208 C 1742.409 2290.045,1779.383 2297.199,1850.000 2297.509 C 1904.450 2297.748,1919.372 2296.410,1950.000 2288.539 C 2039.243 2265.606,2114.946 2221.726,2175.808 2157.655 C 2300.537 2026.348,2333.457 1836.843,2260.723 1668.839 C 2204.173 1538.219,2081.356 1439.871,1938.000 1410.413 C 1899.662 1402.535,1836.887 1399.862,1796.000 1404.366 M1896.000 1760.000 L 1896.000 1896.000 1850.000 1896.000 L 1804.000 1896.000 1804.000 1760.000 L 1804.000 1624.000 1850.000 1624.000 L 1896.000 1624.000 1896.000 1760.000 M1896.000 2030.000 L 1896.000 2076.000 1850.000 2076.000 L 1804.000 2076.000 1804.000 2030.000 L 1804.000 1984.000 1850.000 1984.000 L 1896.000 1984.000 1896.000 2030.000 " fill="#1D1E23" stroke="none" fill-rule="evenodd"/></svg>