<svg viewBox="0 0 2400 2400" fill="none" xmlns="http://www.w3.org/2000/svg"><path d="M687.954 403.877 L 341.909 406.000 311.116 423.621 C 256.631 454.800,223.854 494.883,209.066 548.421 C 202.450 572.371,202.000 614.003,202.000 1202.000 C 202.000 1800.009,202.351 1831.146,209.347 1854.000 C 213.387 1867.200,221.968 1887.272,228.414 1898.604 C 244.411 1926.726,285.901 1964.496,318.337 1980.464 C 344.228 1993.211,347.486 1993.783,409.593 1996.511 C 498.408 2000.412,1906.202 2000.303,1988.874 1996.389 C 2053.486 1993.330,2056.665 1992.774,2082.874 1979.943 C 2120.165 1961.687,2162.301 1919.334,2179.807 1882.510 C 2191.565 1857.778,2193.217 1849.750,2196.265 1802.510 C 2198.129 1773.629,2199.654 1502.500,2199.654 1200.000 C 2199.654 897.500,2198.129 626.371,2196.265 597.490 C 2193.238 550.580,2191.521 542.139,2180.164 518.343 C 2162.839 482.043,2128.479 446.279,2089.496 423.970 L 2058.093 406.000 1752.046 403.448 C 1413.889 400.629,1203.544 400.713,687.954 403.877 M972.000 603.980 C 1066.575 610.915,1113.009 621.749,1179.171 652.316 C 1253.415 686.617,1337.786 753.847,1383.954 815.495 C 1428.064 874.395,1463.460 947.202,1482.180 1017.536 C 1492.354 1055.759,1492.551 1058.932,1491.129 1161.311 L 1489.674 1266.000 1474.710 1310.000 C 1441.843 1406.639,1404.006 1468.371,1336.161 1536.045 C 1252.907 1619.091,1169.768 1664.134,1054.416 1688.690 C 997.116 1700.889,902.745 1700.858,845.246 1688.622 C 729.311 1663.950,631.733 1609.566,551.305 1524.796 C 494.511 1464.937,455.898 1399.055,424.841 1309.023 L 410.000 1266.000 410.000 1150.000 L 410.000 1034.000 424.893 990.818 C 456.267 899.850,492.844 837.056,549.260 777.310 C 637.855 683.486,737.884 630.858,874.000 606.455 C 914.558 599.184,908.641 599.333,972.000 603.980 M917.856 813.109 C 908.657 821.022,906.759 826.830,903.408 857.324 C 901.287 876.633,900.102 958.805,900.775 1039.929 C 902.204 1211.965,898.043 1196.379,952.207 1232.595 C 998.528 1263.567,1157.033 1355.838,1206.618 1380.696 C 1252.782 1403.840,1259.405 1403.984,1282.995 1382.365 C 1294.460 1371.859,1297.600 1365.977,1297.600 1355.009 C 1297.600 1325.105,1290.014 1319.433,1117.000 1219.993 L 1004.000 1155.045 1004.000 999.394 C 1004.000 828.225,1003.229 822.012,980.514 810.266 C 961.900 800.640,930.706 802.056,917.856 813.109 " fill="#1D1E23" stroke="none" fill-rule="evenodd"/></svg>