<svg viewBox="0 0 2400 2400" fill="none" xmlns="http://www.w3.org/2000/svg"><path fill-rule="evenodd" d="M2000 400H400C289 400 201 489 201 600L200 1800C200 1911 289 2000 400 2000H1320.7C1307.22 1952.32 1300 1902 1300 1850C1300 1546.24 1546.24 1300 1850 1300C1982.96 1300 2104.91 1347.18 2200 1425.72V600C2200 489 2111 400 2000 400ZM1500 1150C1500 1453.76 1253.76 1700 950 1700C646.243 1700 400 1453.76 400 1150C400 846.243 646.243 600 950 600C1253.76 600 1500 846.243 1500 1150Z" fill="#1D1E23"/><path fill-rule="evenodd" d="M2300 1850C2300 2098.53 2098.53 2300 1850 2300C1601.47 2300 1400 2098.53 1400 1850C1400 1601.47 1601.47 1400 1850 1400C2098.53 1400 2300 1601.47 2300 1850ZM1775.26 1949.39L1668.08 1842.21C1644.79 1818.91 1606.85 1818.91 1583.55 1842.21C1560.25 1865.5 1560.25 1903.44 1583.55 1926.74L1727.33 2070.53C1753.29 2096.49 1795.22 2096.49 1821.18 2070.53L2116.46 1775.26C2139.75 1751.96 2139.75 1714.02 2116.46 1690.73C2093.16 1667.43 2055.22 1667.43 2031.93 1690.73L1775.26 1949.39Z" fill="#1D1E23"/><path d="M941.118 800H945.309C973.25 800 995.603 821.592 995.603 848.581V1154.91L1265.93 1310.1C1290.38 1323.6 1298.06 1353.96 1283.39 1376.9C1269.42 1399.84 1238.69 1406.59 1214.94 1393.09L925.052 1225.08C903.398 1212.94 890.825 1190.67 890.825 1167.06V848.581C890.825 821.592 913.177 800 941.118 800Z" fill="#1D1E23"/></svg>