<svg viewBox="0 0 2400 2400" fill="none" xmlns="http://www.w3.org/2000/svg"><path d="M358.041 404.701 C 305.713 414.679,246.049 460.612,222.951 508.700 C 199.030 558.499,200.124 525.443,200.059 1200.803 C 200.017 1637.327,201.302 1825.850,204.420 1840.803 C 220.053 1915.765,284.235 1979.947,359.197 1995.580 C 373.975 1998.662,522.792 2000.000,850.663 2000.000 L 1320.933 2000.000 1318.492 1991.000 C 1300.542 1924.807,1296.416 1815.782,1309.389 1750.504 C 1338.752 1602.761,1422.936 1474.209,1542.244 1394.925 C 1639.465 1330.318,1732.479 1302.335,1850.000 1302.335 C 1968.437 1302.335,2064.696 1331.681,2161.000 1397.150 L 2200.000 1423.662 2200.000 1002.028 C 2200.000 709.664,2198.645 573.895,2195.580 559.197 C 2179.683 482.966,2113.826 418.136,2038.265 404.335 C 2007.531 398.722,387.547 399.074,358.041 404.701 M1051.704 610.024 C 1162.418 631.545,1259.127 682.795,1338.166 761.834 C 1417.695 841.363,1468.242 937.127,1490.536 1050.504 C 1500.212 1099.712,1500.259 1201.165,1490.629 1249.496 C 1467.909 1363.520,1417.611 1458.744,1338.166 1538.142 C 1259.976 1616.285,1164.786 1667.285,1054.000 1690.391 C 1003.516 1700.921,896.484 1700.921,846.000 1690.391 C 735.214 1667.285,640.024 1616.285,561.834 1538.142 C 482.376 1458.732,432.026 1363.397,409.389 1249.496 C 399.688 1200.684,399.688 1099.316,409.389 1050.504 C 432.022 936.624,482.356 841.313,561.834 761.834 C 651.931 671.737,761.289 619.595,896.000 602.503 C 923.579 599.003,1018.629 603.595,1051.704 610.024 M921.674 803.875 C 917.094 805.728,908.544 812.952,902.674 819.929 L 892.000 832.614 892.000 1008.506 C 892.000 1197.081,891.844 1195.517,912.620 1214.628 C 917.779 1219.374,989.500 1262.379,1072.000 1310.195 C 1236.449 1405.508,1242.958 1408.198,1268.000 1391.207 C 1292.089 1374.862,1296.829 1336.720,1276.978 1318.955 C 1273.140 1315.521,1208.800 1277.574,1134.000 1234.628 L 998.000 1156.545 996.000 995.090 C 994.171 847.448,993.375 832.681,986.689 822.484 C 974.553 803.973,943.443 795.069,921.674 803.875 M1790.000 1404.509 C 1647.045 1422.366,1512.516 1518.880,1446.351 1651.052 C 1419.639 1704.412,1400.047 1788.590,1400.047 1850.000 C 1400.047 1911.410,1419.639 1995.588,1446.351 2048.948 C 1488.910 2133.965,1566.035 2211.090,1651.052 2253.649 C 1704.412 2280.361,1788.590 2299.953,1850.000 2299.953 C 1911.410 2299.953,1995.588 2280.361,2048.948 2253.649 C 2133.965 2211.090,2211.090 2133.965,2253.649 2048.948 C 2280.361 1995.588,2299.953 1911.410,2299.953 1850.000 C 2299.953 1834.600,2297.293 1804.354,2294.042 1782.786 C 2257.527 1540.532,2035.431 1373.853,1790.000 1404.509 M2100.061 1681.000 C 2110.043 1686.060,2121.068 1695.666,2125.242 1702.940 C 2133.333 1717.042,2135.129 1746.824,2128.600 1758.640 C 2126.363 1762.688,2052.863 1837.396,1965.267 1924.658 C 1791.481 2097.779,1792.795 2096.746,1758.126 2087.569 C 1744.793 2084.041,1727.339 2068.722,1657.353 1999.125 C 1587.396 1929.557,1572.016 1912.230,1568.729 1899.281 C 1557.914 1856.672,1594.976 1817.715,1638.614 1825.824 C 1651.549 1828.227,1663.724 1838.326,1715.035 1889.208 L 1776.069 1949.733 1904.973 1818.251 C 2056.075 1664.126,2060.554 1660.975,2100.061 1681.000 " fill="#1D1E23" stroke="none" fill-rule="evenodd"/></svg>