<svg viewBox="0 0 2400 2400" fill="none" xmlns="http://www.w3.org/2000/svg"><path fill-rule="evenodd" d="M400 400H2000C2111 400 2200 489 2200 600V1800C2200 1911 2111 2000 2000 2000H400C289 2000 200 1911 200 1800L201 600C201 489 289 400 400 400ZM950 1700C1253.76 1700 1500 1453.76 1500 1150C1500 846.243 1253.76 600 950 600C646.243 600 400 846.243 400 1150C400 1453.76 646.243 1700 950 1700Z" fill="#1D1E23"/><path d="M950.294 800H954.485C982.426 800 1004.78 821.592 1004.78 848.581V1154.91L1275.11 1310.1C1299.55 1323.6 1307.24 1353.96 1292.57 1376.9C1278.6 1399.84 1247.86 1406.59 1224.11 1393.09L934.228 1225.08C912.573 1212.94 900 1190.67 900 1167.06V848.581C900 821.592 922.353 800 950.294 800Z" fill="#1D1E23"/></svg>