<svg viewBox="0 0 2400 2400" fill="none" xmlns="http://www.w3.org/2000/svg"><path d="M773.913 403.966 L 341.826 406.000 311.913 423.715 C 256.280 456.662,219.663 503.087,207.021 556.705 C 203.104 573.319,202.010 716.049,202.045 1206.000 L 202.090 1834.000 211.194 1859.315 C 233.667 1921.807,281.333 1969.447,341.007 1989.056 C 365.520 1997.111,375.177 1997.303,843.542 1999.066 L 1321.084 2000.863 1318.284 1989.709 C 1306.744 1943.728,1304.010 1783.493,1313.958 1736.198 C 1326.199 1678.009,1359.508 1601.065,1398.892 1540.000 C 1426.425 1497.310,1493.775 1430.219,1540.334 1399.101 C 1587.510 1367.571,1659.154 1333.921,1706.448 1321.081 C 1744.433 1310.768,1750.040 1310.338,1848.000 1310.207 C 1946.246 1310.075,1951.483 1310.466,1990.296 1320.817 C 2054.885 1338.042,2110.566 1364.301,2177.000 1408.869 L 2200.000 1424.298 2199.724 1055.149 C 2199.573 852.117,2198.154 655.331,2196.571 617.847 C 2193.707 550.022,2193.622 549.544,2178.795 518.323 C 2161.307 481.499,2127.883 446.331,2088.595 423.417 L 2063.591 408.834 1998.796 406.518 C 1900.769 403.015,1259.697 401.679,773.913 403.966 M1014.000 608.378 C 1139.820 621.039,1244.923 672.764,1342.167 769.881 C 1398.951 826.591,1442.029 898.533,1472.841 988.113 L 1490.000 1038.000 1489.462 1154.000 L 1488.924 1270.000 1472.909 1314.417 C 1438.263 1410.513,1401.595 1469.197,1334.414 1536.072 C 1249.264 1620.832,1159.352 1668.798,1045.384 1690.262 C 997.581 1699.265,897.750 1699.118,854.000 1689.979 C 811.772 1681.159,753.735 1662.411,717.411 1645.858 C 644.780 1612.759,559.352 1541.854,508.137 1472.162 C 480.287 1434.263,442.777 1360.225,424.075 1306.238 L 411.687 1270.476 412.844 1144.238 L 414.000 1018.000 429.459 978.000 C 462.697 892.000,497.037 834.420,548.209 778.886 C 632.724 687.165,737.253 632.249,878.000 605.627 C 906.666 600.205,939.344 600.866,1014.000 608.378 M920.005 807.006 C 893.920 820.041,894.000 819.426,894.000 1006.000 C 894.000 1132.633,895.284 1178.242,899.216 1191.229 C 903.859 1206.566,908.173 1210.872,938.487 1230.427 C 1033.470 1291.702,1218.842 1394.240,1242.328 1398.497 C 1267.768 1403.107,1296.424 1359.671,1284.790 1334.135 C 1279.182 1321.827,1235.707 1293.842,1107.000 1219.689 L 1000.000 1158.042 999.972 1128.021 C 999.919 1072.782,991.990 842.133,989.779 831.526 C 988.246 824.174,981.830 817.913,968.256 810.526 C 945.492 798.136,938.741 797.643,920.005 807.006 M1784.000 1408.127 C 1639.653 1425.202,1499.287 1532.787,1439.726 1672.000 C 1399.057 1767.055,1391.137 1866.049,1416.458 1962.814 C 1456.889 2117.326,1578.076 2239.303,1734.518 2282.948 C 1771.689 2293.319,1778.682 2293.955,1854.000 2293.815 C 1929.654 2293.675,1935.956 2293.069,1970.000 2282.667 C 2151.649 2227.164,2275.149 2078.868,2296.740 1890.324 C 2309.485 1779.028,2267.732 1649.012,2190.964 1560.948 C 2088.079 1442.923,1944.773 1389.109,1784.000 1408.127 M2105.697 1686.169 C 2119.887 1695.467,2127.311 1710.683,2130.331 1736.655 L 2132.812 1758.000 2009.406 1880.104 C 1877.110 2011.003,1799.823 2082.609,1784.424 2088.547 C 1767.552 2095.053,1750.144 2084.990,1701.295 2040.493 C 1632.351 1977.692,1573.103 1911.946,1569.856 1894.641 C 1563.350 1859.957,1590.964 1828.000,1627.442 1828.000 C 1646.836 1828.000,1665.157 1841.698,1730.747 1905.237 L 1776.179 1949.249 1907.089 1819.410 C 1994.022 1733.189,2043.807 1686.741,2055.285 1681.146 C 2074.048 1672.001,2085.871 1673.179,2105.697 1686.169 " fill="#1D1E23" stroke="none" fill-rule="evenodd"/></svg>