<svg viewBox="0 0 2400 2400" fill="none" xmlns="http://www.w3.org/2000/svg"><path d="M773.913 403.896 L 341.826 406.000 311.913 423.715 C 256.280 456.662,219.663 503.087,207.021 556.705 C 203.104 573.319,202.010 716.049,202.045 1206.000 L 202.090 1834.000 211.272 1860.000 C 223.833 1895.571,245.069 1925.405,275.988 1950.916 C 322.877 1989.606,333.646 1993.021,419.552 1996.450 C 518.944 2000.416,1867.529 2000.360,1972.672 1996.385 C 2050.389 1993.447,2056.622 1992.634,2076.672 1982.810 C 2129.198 1957.074,2177.437 1901.858,2190.952 1852.000 C 2197.542 1827.690,2198.000 1785.307,2198.000 1200.000 C 2198.000 616.671,2197.524 572.278,2191.016 548.740 C 2187.175 534.847,2179.112 515.083,2173.098 504.822 C 2157.417 478.064,2121.313 443.514,2088.930 424.275 L 2060.980 407.671 1959.490 405.860 C 1780.216 402.663,1218.358 401.732,773.913 403.896 M1014.000 608.378 C 1139.820 621.039,1244.923 672.764,1342.167 769.881 C 1398.951 826.591,1442.029 898.533,1472.841 988.113 L 1490.000 1038.000 1489.462 1154.000 L 1488.924 1270.000 1472.909 1314.417 C 1438.263 1410.513,1401.595 1469.197,1334.414 1536.072 C 1249.264 1620.832,1159.352 1668.798,1045.384 1690.262 C 997.581 1699.265,897.750 1699.118,854.000 1689.979 C 811.772 1681.159,753.735 1662.411,717.411 1645.858 C 644.780 1612.759,559.352 1541.854,508.137 1472.162 C 480.287 1434.263,442.777 1360.225,424.075 1306.238 L 411.687 1270.476 412.844 1144.238 L 414.000 1018.000 429.459 978.000 C 462.697 892.000,497.037 834.420,548.209 778.886 C 632.724 687.165,737.253 632.249,878.000 605.627 C 906.666 600.205,939.344 600.866,1014.000 608.378 M923.424 810.066 C 904.056 820.587,902.754 830.905,900.957 988.000 C 899.189 1142.680,902.039 1186.042,915.139 1203.745 C 924.616 1216.553,1007.874 1269.079,1119.380 1332.600 C 1222.865 1391.551,1248.069 1402.599,1264.004 1395.998 C 1287.671 1386.195,1301.098 1362.667,1295.307 1341.148 C 1290.099 1321.799,1249.100 1295.063,1055.248 1184.603 L 1004.497 1155.684 1003.165 996.842 C 1002.210 883.032,1000.446 834.827,996.942 826.807 C 988.117 806.611,947.013 797.251,923.424 810.066 " fill="#1D1E23" stroke="none" fill-rule="evenodd"/></svg>