<svg viewBox="0 0 2400 2400" fill="none" xmlns="http://www.w3.org/2000/svg"><path d="M526.000 407.887 L 338.000 410.000 316.089 421.293 C 288.712 435.402,255.158 463.813,237.628 487.727 C 230.260 497.777,218.670 521.248,211.871 539.885 L 199.511 573.771 200.971 1201.885 C 202.619 1910.727,199.900 1853.935,234.643 1905.154 C 257.266 1938.506,286.164 1964.452,318.564 1980.501 C 342.762 1992.487,344.431 1992.721,430.564 1996.178 C 478.654 1998.108,698.660 1999.758,919.467 1999.844 L 1320.933 2000.000 1318.461 1991.000 C 1309.755 1959.304,1307.355 1918.428,1309.030 1830.395 C 1311.046 1724.435,1313.869 1708.217,1340.917 1647.176 C 1374.778 1570.759,1414.694 1512.396,1470.953 1457.045 C 1544.413 1384.772,1632.033 1337.354,1736.000 1313.610 C 1779.051 1303.778,1882.282 1301.780,1934.000 1309.778 C 2011.647 1321.786,2090.294 1353.048,2166.446 1402.174 L 2200.000 1423.820 2200.000 989.521 L 2200.000 555.222 2183.182 522.611 C 2160.943 479.490,2125.410 443.973,2081.525 421.000 L 2049.051 404.000 1381.525 404.887 C 1014.386 405.375,629.400 406.725,526.000 407.887 M1068.000 615.668 C 1225.710 650.907,1365.449 759.363,1437.116 902.151 C 1470.688 969.039,1484.732 1015.834,1492.291 1086.000 C 1497.735 1136.528,1495.116 1215.425,1486.515 1260.000 C 1468.734 1352.151,1413.935 1455.830,1344.298 1529.073 C 1299.318 1576.382,1252.127 1611.216,1194.000 1640.015 C 1107.150 1683.045,1050.286 1695.957,947.524 1695.984 C 848.976 1696.009,795.234 1683.743,709.144 1641.575 C 596.190 1586.248,518.331 1508.554,460.631 1393.587 C 449.704 1371.814,434.291 1335.376,426.381 1312.613 L 412.000 1271.226 412.000 1147.932 L 412.000 1024.637 424.466 989.319 C 477.067 840.283,583.246 717.938,713.321 656.481 C 768.167 630.568,833.135 611.715,886.000 606.371 C 923.731 602.557,1034.687 608.225,1068.000 615.668 M925.348 810.422 C 902.361 821.759,901.972 825.171,902.287 1012.450 C 902.499 1138.252,903.871 1186.032,907.526 1194.855 C 913.407 1209.054,961.737 1241.809,1072.000 1306.325 C 1224.009 1395.267,1257.466 1408.118,1282.024 1386.994 C 1293.269 1377.322,1299.067 1352.766,1294.451 1334.372 C 1291.859 1324.047,1221.011 1279.545,1065.248 1190.404 L 1004.496 1155.636 1003.165 996.818 C 1002.210 883.027,1000.446 834.827,996.942 826.807 C 987.987 806.312,950.894 797.823,925.348 810.422 M1776.000 1408.187 C 1746.096 1411.793,1690.620 1430.609,1650.000 1450.923 C 1557.139 1497.362,1479.878 1578.415,1439.881 1671.354 C 1411.776 1736.661,1405.995 1767.857,1406.036 1854.000 C 1406.068 1920.107,1407.205 1933.905,1414.773 1960.000 C 1457.465 2107.212,1553.400 2214.407,1690.394 2267.969 C 1748.705 2290.767,1791.407 2297.141,1871.991 2295.076 C 1935.373 2293.451,1939.745 2292.795,1981.853 2278.579 C 2156.712 2219.547,2274.299 2076.036,2296.376 1894.715 C 2303.373 1837.245,2295.288 1770.703,2273.314 1704.930 C 2229.060 1572.464,2124.358 1470.971,1982.812 1423.332 C 1951.809 1412.897,1936.847 1410.432,1888.000 1407.710 C 1820.439 1403.945,1810.837 1403.986,1776.000 1408.187 M1896.000 1760.000 L 1896.000 1896.000 1850.000 1896.000 L 1804.000 1896.000 1804.000 1760.000 L 1804.000 1624.000 1850.000 1624.000 L 1896.000 1624.000 1896.000 1760.000 M1896.000 2030.000 L 1896.000 2076.000 1850.000 2076.000 L 1804.000 2076.000 1804.000 2030.000 L 1804.000 1984.000 1850.000 1984.000 L 1896.000 1984.000 1896.000 2030.000 " fill="#1D1E23" stroke="none" fill-rule="evenodd"/></svg>