<svg viewBox="0 0 2400 2400" fill="none" xmlns="http://www.w3.org/2000/svg"><path d="M950.294 800H954.485C982.426 800 1004.78 821.592 1004.78 848.581V1154.91L1275.11 1310.1C1299.55 1323.6 1307.24 1353.96 1292.57 1376.9C1278.6 1399.84 1247.86 1406.59 1224.11 1393.09L934.228 1225.08C912.573 1212.94 900 1190.67 900 1167.06V848.581C900 821.592 922.353 800 950.294 800Z" fill="#1D1E23"/><path fill-rule="evenodd" d="M2000 400H400C289 400 201 489 201 600L200 1800C200 1911 289 2000 400 2000H1320.7C1307.22 1952.32 1300 1902 1300 1850C1300 1546.24 1546.24 1300 1850 1300C1982.96 1300 2104.91 1347.18 2200 1425.72V600C2200 489 2111 400 2000 400ZM1500 1150C1500 1453.76 1253.76 1700 950 1700C646.243 1700 400 1453.76 400 1150C400 846.243 646.243 600 950 600C1253.76 600 1500 846.243 1500 1150Z" fill="#1D1E23"/><path d="M1850 2300C2098.4 2300 2300 2098.4 2300 1850C2300 1601.6 2098.4 1400 1850 1400C1601.6 1400 1400 1601.6 1400 1850C1400 2098.4 1601.6 2300 1850 2300ZM1805 1625H1895V1895H1805V1625ZM1805 1985H1895V2075H1805V1985Z" fill="#1D1E23"/></svg>