<svg viewBox="0 0 2400 2400" fill="none" xmlns="http://www.w3.org/2000/svg"><path d="M700.000 407.864 L 338.000 410.000 317.324 420.903 C 288.305 436.206,251.517 467.828,236.688 490.217 C 229.779 500.647,218.528 523.698,211.686 541.439 L 199.246 573.697 201.201 1189.849 C 202.489 1595.547,204.623 1816.792,207.451 1837.595 C 212.748 1876.569,227.036 1902.269,264.190 1939.650 C 293.962 1969.605,324.578 1986.763,358.644 1992.585 C 372.754 1994.997,567.892 1997.415,851.573 1998.695 L 1321.146 2000.813 1318.400 1991.406 C 1303.804 1941.410,1307.214 1743.542,1323.563 1691.767 C 1334.149 1658.246,1372.210 1582.610,1397.943 1543.956 C 1423.944 1504.901,1505.858 1422.552,1544.032 1397.093 C 1602.267 1358.252,1673.585 1327.708,1738.663 1313.734 C 1778.581 1305.163,1900.290 1303.891,1944.000 1311.589 C 2012.814 1323.708,2094.554 1356.979,2165.000 1401.543 L 2200.000 1423.684 2200.000 989.709 L 2200.000 555.734 2189.462 534.867 C 2164.286 485.015,2132.382 451.428,2083.199 423.000 L 2050.328 404.000 1556.164 404.864 C 1284.374 405.340,899.100 406.690,700.000 407.864 M985.494 608.079 C 1059.996 612.831,1091.352 619.158,1146.721 640.611 C 1254.658 682.431,1351.289 762.292,1413.118 860.775 C 1476.506 961.739,1502.845 1075.249,1492.291 1201.974 C 1485.408 1284.625,1467.844 1341.972,1427.355 1414.000 C 1350.412 1550.878,1230.113 1643.994,1080.147 1682.752 C 1031.939 1695.212,930.259 1699.769,869.585 1692.191 C 797.354 1683.168,717.459 1651.903,643.991 1603.908 C 597.575 1573.586,530.800 1507.489,500.628 1462.000 C 474.717 1422.936,440.956 1354.193,424.347 1306.681 L 412.000 1271.363 412.000 1147.507 L 412.000 1023.651 426.502 984.825 C 460.610 893.508,501.289 830.171,569.742 761.799 C 645.023 686.607,716.766 645.348,816.581 619.846 C 878.357 604.062,899.471 602.591,985.494 608.079 M928.005 810.783 C 901.788 824.302,901.938 823.117,902.559 1012.000 C 902.917 1120.920,904.640 1185.853,907.354 1192.723 C 912.987 1206.979,943.544 1229.085,1028.592 1280.429 C 1122.291 1336.998,1196.393 1377.243,1226.836 1388.097 C 1270.302 1403.595,1291.187 1392.678,1295.054 1352.440 C 1296.875 1333.490,1296.732 1333.219,1277.445 1319.144 C 1250.288 1299.327,1188.363 1261.565,1089.513 1204.544 L 1005.025 1155.809 1002.861 996.904 C 1001.670 909.507,999.451 834.034,997.930 829.186 C 991.441 808.507,952.362 798.222,928.005 810.783 M1778.642 1408.382 C 1721.208 1416.067,1639.217 1451.221,1585.657 1491.125 C 1507.755 1549.165,1452.135 1626.467,1421.764 1718.908 C 1407.936 1760.999,1400.982 1849.687,1406.913 1908.323 C 1420.890 2046.493,1515.671 2180.971,1646.267 2247.925 C 1717.932 2284.666,1785.772 2298.332,1880.000 2295.009 C 1930.966 2293.211,1942.465 2291.466,1974.812 2280.621 C 2050.261 2255.324,2106.844 2221.280,2161.003 2168.597 C 2292.236 2040.937,2331.816 1861.531,2266.883 1688.660 C 2221.099 1566.771,2117.329 1469.582,1984.779 1424.446 C 1941.048 1409.555,1832.876 1401.125,1778.642 1408.382 M1896.000 1760.000 L 1896.000 1896.000 1850.000 1896.000 L 1804.000 1896.000 1804.000 1760.000 L 1804.000 1624.000 1850.000 1624.000 L 1896.000 1624.000 1896.000 1760.000 M1896.000 2030.000 L 1896.000 2076.000 1850.000 2076.000 L 1804.000 2076.000 1804.000 2030.000 L 1804.000 1984.000 1850.000 1984.000 L 1896.000 1984.000 1896.000 2030.000 " fill="#1D1E23" stroke="none" fill-rule="evenodd"/></svg>