<svg viewBox="0 0 2400 2400" fill="none" xmlns="http://www.w3.org/2000/svg"><path d="M366.000 407.728 C 327.687 410.708,299.325 424.929,263.053 459.344 C 236.072 484.944,222.899 506.075,209.665 544.984 L 200.000 573.401 200.095 1167.701 C 200.147 1494.565,201.850 1783.456,203.881 1809.681 C 207.060 1850.753,209.317 1860.906,220.163 1882.937 C 235.583 1914.260,273.695 1955.838,301.396 1971.559 C 350.300 1999.313,314.430 1997.492,843.000 1999.058 C 1105.350 1999.835,1320.000 1999.577,1320.000 1998.484 C 1320.000 1997.391,1316.924 1984.235,1313.165 1969.248 C 1304.657 1935.329,1303.747 1787.185,1311.758 1740.000 C 1326.382 1653.853,1383.591 1546.672,1455.000 1471.633 C 1587.460 1332.440,1772.454 1275.318,1963.975 1314.471 C 2030.329 1328.036,2096.743 1356.449,2163.052 1399.640 L 2200.105 1423.774 2199.052 988.584 L 2198.000 553.394 2180.701 518.485 C 2158.027 472.729,2132.666 447.352,2085.022 422.745 L 2048.729 404.000 1223.365 404.619 C 769.414 404.960,383.600 406.359,366.000 407.728 M1040.017 609.778 C 1150.169 626.384,1253.865 680.560,1338.108 765.518 C 1386.551 814.371,1411.021 848.404,1440.638 908.119 C 1481.202 989.904,1495.934 1054.347,1495.934 1150.000 C 1495.934 1218.082,1490.020 1261.374,1474.066 1310.077 C 1424.929 1460.081,1328.388 1573.831,1192.311 1642.059 C 1113.901 1681.372,1044.136 1697.347,950.000 1697.544 C 855.538 1697.741,798.772 1684.984,713.887 1644.479 C 572.185 1576.864,477.516 1466.528,423.468 1306.000 L 410.000 1266.000 410.000 1148.000 L 410.000 1030.000 423.240 992.000 C 474.749 844.165,569.091 730.761,695.608 664.598 C 740.436 641.155,804.572 618.695,850.219 610.455 C 892.057 602.902,992.040 602.546,1040.017 609.778 M921.217 811.824 C 912.031 817.425,907.529 823.893,905.217 834.809 C 899.723 860.753,901.249 1184.255,906.926 1197.034 C 912.796 1210.249,944.863 1231.399,1071.993 1305.910 C 1218.626 1391.852,1246.257 1404.178,1270.019 1394.250 C 1288.665 1386.459,1296.000 1373.769,1296.000 1349.302 C 1296.000 1329.184,1295.350 1327.940,1279.000 1316.757 C 1260.456 1304.072,1136.138 1230.638,1055.000 1184.439 L 1004.000 1155.400 1004.000 999.572 C 1004.000 828.209,1003.231 822.013,980.514 810.266 C 963.829 801.638,936.757 802.349,921.217 811.824 M1760.452 1409.920 C 1703.290 1422.899,1636.663 1452.699,1588.203 1486.961 C 1551.429 1512.961,1505.128 1560.379,1480.106 1597.667 C 1420.336 1686.736,1395.496 1782.192,1404.171 1889.470 C 1408.110 1938.180,1412.221 1957.414,1427.840 2000.212 C 1475.162 2129.876,1572.514 2226.332,1704.000 2273.827 C 1751.888 2291.125,1787.561 2296.346,1858.000 2296.366 C 1915.115 2296.383,1925.849 2295.266,1957.777 2285.985 C 2027.185 2265.808,2071.808 2243.484,2126.953 2201.348 C 2244.814 2111.290,2312.899 1952.885,2296.476 1806.938 C 2275.017 1616.229,2150.991 1470.782,1964.000 1417.037 C 1935.031 1408.711,1919.345 1407.032,1858.000 1405.692 C 1804.681 1404.527,1779.371 1405.625,1760.452 1409.920 M1896.000 1760.000 L 1896.000 1896.000 1850.000 1896.000 L 1804.000 1896.000 1804.000 1760.000 L 1804.000 1624.000 1850.000 1624.000 L 1896.000 1624.000 1896.000 1760.000 M1896.000 2030.000 L 1896.000 2076.000 1850.000 2076.000 L 1804.000 2076.000 1804.000 2030.000 L 1804.000 1984.000 1850.000 1984.000 L 1896.000 1984.000 1896.000 2030.000 " fill="#1D1E23" stroke="none" fill-rule="evenodd"/></svg>