<svg viewBox="0 0 2400 2400" fill="none" xmlns="http://www.w3.org/2000/svg"><path d="M358.041 404.701 C 305.713 414.679,246.049 460.612,222.951 508.700 C 199.030 558.499,200.124 525.443,200.059 1200.803 C 200.017 1637.327,201.302 1825.850,204.420 1840.803 C 220.053 1915.765,284.235 1979.947,359.197 1995.580 C 389.211 2001.839,2010.789 2001.839,2040.803 1995.580 C 2115.765 1979.947,2179.947 1915.765,2195.580 1840.803 C 2201.819 1810.886,2201.819 589.114,2195.580 559.197 C 2179.683 482.966,2113.826 418.136,2038.265 404.335 C 2007.531 398.722,387.547 399.074,358.041 404.701 M1051.704 610.024 C 1162.418 631.545,1259.127 682.795,1338.166 761.834 C 1417.695 841.363,1468.242 937.127,1490.536 1050.504 C 1500.212 1099.712,1500.259 1201.165,1490.629 1249.496 C 1467.909 1363.520,1417.611 1458.744,1338.166 1538.142 C 1259.976 1616.285,1164.786 1667.285,1054.000 1690.391 C 1003.516 1700.921,896.484 1700.921,846.000 1690.391 C 735.214 1667.285,640.024 1616.285,561.834 1538.142 C 482.376 1458.732,432.026 1363.397,409.389 1249.496 C 399.688 1200.684,399.688 1099.316,409.389 1050.504 C 432.022 936.624,482.356 841.313,561.834 761.834 C 651.931 671.737,761.289 619.595,896.000 602.503 C 923.579 599.003,1018.629 603.595,1051.704 610.024 M925.194 807.838 C 899.828 823.305,899.991 822.000,900.088 1008.801 C 900.169 1164.404,900.766 1179.286,907.523 1194.000 C 911.564 1202.800,918.274 1212.903,922.435 1216.450 C 929.527 1222.496,1198.947 1379.165,1226.801 1393.440 C 1243.800 1402.151,1259.168 1401.697,1275.052 1392.012 C 1302.162 1375.483,1307.043 1339.648,1284.950 1319.331 C 1278.928 1313.792,1213.250 1274.514,1139.000 1232.045 L 1004.000 1154.829 1004.000 993.954 C 1004.000 836.868,1003.803 832.829,995.647 822.460 C 977.875 799.867,948.326 793.734,925.194 807.838 " fill="#1D1E23" stroke="none" fill-rule="evenodd"/></svg>