<svg viewBox="0 0 2400 2400" fill="none" xmlns="http://www.w3.org/2000/svg"><path d="M362.000 404.128 C 279.430 421.199,215.889 487.974,204.162 570.000 C 198.402 610.282,198.566 1806.681,204.335 1838.265 C 218.366 1915.083,284.917 1981.634,361.735 1995.665 C 377.905 1998.618,534.529 2000.000,853.168 2000.000 L 1320.867 2000.000 1318.058 1989.000 C 1304.548 1936.106,1302.467 1918.063,1302.259 1852.000 C 1302.010 1772.848,1307.554 1737.625,1330.858 1670.305 C 1385.338 1512.926,1509.587 1387.567,1666.000 1332.170 C 1781.085 1291.410,1906.294 1289.905,2020.485 1327.910 C 2077.161 1346.773,2112.000 1363.998,2161.903 1397.833 L 2200.000 1423.662 2200.000 1004.566 C 2200.000 720.834,2198.600 577.803,2195.665 561.735 C 2183.408 494.631,2133.608 436.889,2065.677 411.018 L 2042.000 402.000 1210.000 401.410 C 752.400 401.086,370.800 402.309,362.000 404.128 M1062.000 611.488 C 1169.822 635.243,1261.388 685.104,1338.142 761.858 C 1416.264 839.981,1467.280 935.192,1490.391 1046.000 C 1500.921 1096.484,1500.921 1203.516,1490.391 1254.000 C 1443.812 1477.329,1279.906 1641.939,1055.790 1690.468 C 1008.086 1700.797,891.914 1700.797,844.210 1690.468 C 647.215 1647.812,494.993 1514.963,430.873 1329.736 C 407.948 1263.512,402.100 1226.984,402.100 1150.000 C 402.100 1073.027,407.948 1036.487,430.858 970.305 C 458.666 889.974,500.824 822.893,561.858 761.858 C 650.794 672.923,753.970 622.803,890.000 602.456 C 919.076 598.107,1026.985 603.774,1062.000 611.488 M923.650 809.120 C 899.783 825.204,900.123 822.320,900.059 1009.128 C 899.996 1192.550,900.386 1196.477,920.484 1214.563 C 925.718 1219.273,997.500 1262.386,1080.000 1310.371 C 1222.480 1393.243,1231.049 1397.626,1250.923 1397.808 C 1269.346 1397.977,1273.408 1396.438,1284.923 1384.923 C 1296.134 1373.712,1298.000 1369.049,1298.000 1352.245 C 1298.000 1337.135,1295.830 1330.335,1288.529 1322.563 C 1283.320 1317.018,1217.170 1277.005,1141.529 1233.643 L 1004.000 1154.805 1004.000 993.942 C 1004.000 836.868,1003.803 832.829,995.647 822.460 C 977.290 799.122,946.853 793.483,923.650 809.120 M1790.000 1404.509 C 1624.441 1425.189,1477.973 1546.219,1424.190 1706.786 C 1361.881 1892.809,1426.173 2094.881,1585.396 2213.458 C 1656.186 2266.177,1759.513 2299.953,1850.000 2299.953 C 2040.951 2299.953,2215.082 2174.515,2275.810 1993.214 C 2298.797 1924.587,2304.863 1854.575,2294.042 1782.786 C 2257.561 1540.756,2035.205 1373.881,1790.000 1404.509 M1896.000 1760.000 L 1896.000 1896.000 1850.000 1896.000 L 1804.000 1896.000 1804.000 1760.000 L 1804.000 1624.000 1850.000 1624.000 L 1896.000 1624.000 1896.000 1760.000 M1896.000 2030.000 L 1896.000 2076.000 1850.000 2076.000 L 1804.000 2076.000 1804.000 2030.000 L 1804.000 1984.000 1850.000 1984.000 L 1896.000 1984.000 1896.000 2030.000 " fill="#1D1E23" stroke="none" fill-rule="evenodd"/></svg>