<svg viewBox="0 0 2400 2400" fill="none" xmlns="http://www.w3.org/2000/svg"><path d="M457.351 309.747 C 383.156 323.659,325.978 382.070,305.559 464.813 C 299.434 489.636,299.423 496.256,305.415 555.061 C 361.377 1104.320,660.779 1580.522,1124.000 1857.031 C 1363.108 1999.761,1628.488 2082.020,1890.000 2094.466 L 1946.000 2097.131 1970.318 2084.852 C 2021.718 2058.899,2052.769 2028.599,2076.677 1981.067 C 2093.230 1948.157,2093.244 1948.088,2097.112 1883.637 C 2102.526 1793.423,2096.292 1682.841,2083.965 1650.433 C 2071.039 1616.449,2024.792 1568.782,1986.279 1549.748 C 1941.559 1527.646,1809.222 1509.048,1670.000 1505.298 C 1594.967 1503.278,1588.808 1503.663,1570.807 1511.512 C 1536.564 1526.443,1515.555 1544.223,1415.647 1642.827 L 1317.293 1739.896 1261.647 1707.397 C 1124.383 1627.234,1046.409 1567.127,935.904 1456.292 C 835.324 1355.412,768.431 1267.501,689.959 1133.071 L 659.063 1080.141 757.502 979.619 C 897.700 836.454,902.590 827.757,898.848 728.196 C 896.549 667.005,880.496 524.315,869.800 470.000 C 862.358 432.204,848.843 400.664,831.467 380.541 C 810.915 356.739,779.688 332.498,752.000 318.850 L 726.000 306.035 606.000 305.205 C 519.342 304.606,478.040 305.868,457.351 309.747 M1649.579 317.000 C 1624.663 333.760,1609.080 356.527,1604.028 383.546 C 1601.813 395.396,1600.000 448.661,1600.000 501.913 L 1600.000 598.733 1489.000 601.242 C 1427.950 602.621,1371.803 605.580,1364.228 607.817 C 1347.290 612.819,1322.116 636.582,1311.073 657.994 C 1299.736 679.973,1299.736 720.027,1311.073 742.006 C 1321.974 763.141,1347.092 787.030,1364.228 792.560 C 1372.257 795.150,1424.118 797.815,1488.591 798.949 L 1599.181 800.894 1600.799 911.447 C 1602.177 1005.528,1603.460 1024.384,1609.412 1038.000 C 1643.689 1116.419,1756.311 1116.419,1790.588 1038.000 C 1796.540 1024.384,1797.823 1005.528,1799.201 911.447 L 1800.819 800.894 1911.409 798.949 C 1975.882 797.815,2027.743 795.150,2035.772 792.560 C 2052.767 787.076,2078.000 763.191,2088.692 742.468 C 2099.727 721.080,2099.727 678.920,2088.692 657.532 C 2077.857 636.533,2052.572 612.779,2035.772 607.817 C 2028.197 605.580,1972.250 602.625,1911.444 601.251 L 1800.889 598.752 1798.919 488.376 C 1797.754 423.128,1795.094 372.052,1792.411 363.451 C 1787.102 346.429,1759.023 319.042,1737.781 310.166 C 1729.421 306.673,1711.292 304.000,1695.964 304.000 C 1672.066 304.000,1666.646 305.519,1649.579 317.000 " fill="#1D1E23" stroke="none" fill-rule="evenodd"/></svg>