<svg viewBox="0 0 2400 2400" fill="none" xmlns="http://www.w3.org/2000/svg"><path d="M473.608 303.803 C 388.318 317.083,322.802 378.128,305.673 460.278 C 300.791 483.693,300.511 497.565,304.075 539.338 C 346.602 1037.738,597.434 1483.186,1001.241 1777.422 C 1129.734 1871.049,1289.929 1954.477,1441.682 2006.801 C 1595.235 2059.744,1764.590 2092.805,1886.253 2093.587 L 1950.506 2094.000 1984.789 2077.036 C 2038.323 2050.546,2072.090 2009.970,2090.647 1949.829 C 2097.067 1929.022,2098.000 1911.288,2098.000 1810.000 C 2098.000 1686.661,2096.085 1671.371,2075.618 1631.251 C 2054.632 1590.115,1994.365 1543.394,1948.000 1532.316 C 1938.100 1529.951,1865.200 1520.641,1786.000 1511.628 C 1621.412 1492.897,1609.311 1493.252,1556.070 1518.369 C 1528.486 1531.382,1517.986 1540.604,1422.070 1636.055 L 1318.000 1739.622 1296.000 1727.312 C 1163.842 1653.363,1077.175 1591.567,979.167 1501.405 C 861.484 1393.142,763.253 1267.110,681.588 1119.607 L 659.185 1079.142 765.094 972.571 C 823.343 913.957,874.125 859.857,877.941 852.349 C 890.167 828.294,899.800 795.824,902.204 770.569 C 904.955 741.665,875.515 478.973,865.605 444.000 C 848.797 384.685,796.312 331.191,734.993 310.877 C 712.572 303.449,698.886 302.496,602.000 301.613 C 542.600 301.071,484.824 302.057,473.608 303.803 M1664.342 306.868 C 1640.729 315.209,1614.918 341.645,1606.625 365.983 C 1601.106 382.178,1600.000 403.342,1600.000 492.713 L 1600.000 600.000 1492.713 600.000 C 1369.204 600.000,1357.672 602.117,1329.895 629.895 C 1290.768 669.021,1290.768 730.979,1329.895 770.105 C 1357.672 797.883,1369.204 800.000,1492.713 800.000 L 1600.000 800.000 1600.000 907.287 C 1600.000 996.658,1601.106 1017.822,1606.625 1034.017 C 1619.196 1070.911,1660.361 1100.000,1700.000 1100.000 C 1739.639 1100.000,1780.804 1070.911,1793.375 1034.017 C 1798.894 1017.822,1800.000 996.658,1800.000 907.287 L 1800.000 800.000 1907.287 800.000 C 2030.796 800.000,2042.328 797.883,2070.105 770.105 C 2109.232 730.979,2109.232 669.021,2070.105 629.895 C 2042.328 602.117,2030.796 600.000,1907.287 600.000 L 1800.000 600.000 1800.000 492.713 C 1800.000 369.204,1797.883 357.672,1770.105 329.895 C 1742.352 302.141,1702.370 293.437,1664.342 306.868 " fill="#1D1E23" stroke="none" fill-rule="evenodd"/></svg>