<svg viewBox="0 0 2400 2400" fill="none" xmlns="http://www.w3.org/2000/svg"><path d="M1661.911 311.241 C 1640.140 321.460,1620.702 341.712,1609.431 365.916 C 1600.365 385.385,1600.077 389.277,1600.039 493.000 L 1600.000 600.000 1555.000 600.095 C 1530.250 600.148,1477.698 601.907,1438.217 604.004 C 1369.933 607.631,1365.571 608.357,1348.721 618.908 C 1338.979 625.009,1325.381 637.827,1318.504 647.394 C 1306.780 663.702,1306.000 666.967,1306.000 699.736 C 1306.000 731.863,1306.946 736.049,1317.714 751.587 C 1333.083 773.764,1348.827 786.677,1367.124 792.110 C 1375.361 794.555,1430.415 797.554,1490.486 798.829 L 1598.971 801.131 1601.124 909.566 C 1602.308 969.205,1605.202 1024.300,1607.556 1032.000 C 1613.458 1051.308,1633.534 1074.523,1653.387 1084.997 C 1665.879 1091.588,1676.946 1093.769,1698.000 1093.791 C 1730.316 1093.823,1749.593 1086.140,1771.060 1064.673 C 1795.642 1040.091,1796.837 1033.563,1799.086 911.565 L 1801.121 801.130 1909.560 798.828 C 1969.600 797.554,2024.640 794.555,2032.876 792.110 C 2051.173 786.677,2066.917 773.764,2082.286 751.587 C 2093.054 736.049,2094.000 731.863,2094.000 699.736 C 2094.000 666.967,2093.220 663.702,2081.496 647.394 C 2074.619 637.827,2061.021 625.009,2051.279 618.908 C 2034.429 608.357,2030.067 607.631,1961.783 604.004 C 1922.302 601.907,1870.009 600.148,1845.575 600.095 L 1801.151 600.000 1798.839 491.000 C 1796.428 377.323,1794.009 359.755,1778.177 340.940 C 1753.094 311.131,1694.196 296.086,1661.911 311.241 M444.419 314.330 C 383.625 330.678,333.816 379.543,311.781 444.454 C 283.415 528.013,337.137 816.789,420.046 1026.427 C 576.036 1420.851,865.989 1735.253,1246.000 1922.025 C 1441.856 2018.287,1634.213 2072.603,1849.185 2092.347 C 1917.788 2098.648,1949.361 2096.113,1974.814 2082.259 C 2017.360 2059.103,2057.953 2017.867,2077.500 1977.948 C 2095.410 1941.371,2097.945 1921.348,2097.748 1818.000 C 2097.468 1670.778,2089.965 1641.276,2040.359 1592.354 C 1993.894 1546.530,1952.620 1531.877,1832.000 1518.382 C 1755.712 1509.848,1622.600 1502.898,1598.405 1506.186 C 1555.654 1511.997,1528.618 1532.814,1398.896 1659.798 L 1316.445 1740.510 1255.223 1703.717 C 1140.322 1634.666,1067.047 1580.265,985.776 1503.676 C 862.367 1387.377,780.492 1284.316,688.100 1128.976 L 658.942 1079.953 732.500 1004.976 C 877.273 857.411,896.526 829.864,899.238 766.407 C 901.789 706.744,881.018 514.563,865.499 454.240 C 853.619 408.058,830.752 374.853,790.308 345.055 C 737.857 306.411,746.014 307.964,597.133 308.263 C 495.796 308.467,461.096 309.845,444.419 314.330 " fill="#1D1E23" stroke="none" fill-rule="evenodd"/></svg>