<svg viewBox="0 0 2400 2400" fill="none" xmlns="http://www.w3.org/2000/svg"><path d="M302.521 309.000 C 296.366 331.966,302.845 523.932,312.342 600.000 C 351.806 916.100,476.635 1214.281,671.528 1458.000 C 716.478 1514.210,830.385 1631.697,896.000 1689.525 C 1156.456 1919.071,1508.836 2064.946,1877.218 2095.721 C 1931.976 2100.296,2076.068 2101.480,2091.000 2097.479 L 2100.000 2095.067 2100.000 1821.533 C 2100.000 1671.090,2099.550 1547.958,2099.000 1547.908 C 2098.450 1547.857,1980.100 1533.634,1836.000 1516.301 L 1574.000 1484.788 1447.520 1610.851 L 1321.040 1736.914 1283.520 1717.540 C 1167.672 1657.721,989.586 1516.329,891.900 1406.613 C 812.855 1317.832,725.411 1195.799,681.568 1113.083 L 662.000 1076.166 789.207 948.853 L 916.413 821.540 890.190 599.770 C 875.768 477.797,861.920 361.635,859.418 341.633 L 854.868 305.267 732.434 302.640 C 665.095 301.196,541.360 300.011,457.467 300.007 L 304.933 300.000 302.521 309.000 M1600.000 450.000 L 1600.000 600.000 1450.000 600.000 L 1300.000 600.000 1300.000 700.000 L 1300.000 800.000 1450.000 800.000 L 1600.000 800.000 1600.000 950.000 L 1600.000 1100.000 1700.000 1100.000 L 1800.000 1100.000 1800.000 950.000 L 1800.000 800.000 1950.000 800.000 L 2100.000 800.000 2100.000 700.000 L 2100.000 600.000 1950.000 600.000 L 1800.000 600.000 1800.000 450.000 L 1800.000 300.000 1700.000 300.000 L 1600.000 300.000 1600.000 450.000 " fill="#1D1E23" stroke="none" fill-rule="evenodd"/></svg>