<svg viewBox="0 0 2400 2400" fill="none" xmlns="http://www.w3.org/2000/svg"><path d="M502.000 304.242 C 436.274 307.787,403.307 320.833,363.058 359.224 C 333.694 387.232,318.005 414.546,307.564 455.838 C 299.998 485.756,299.706 492.307,303.845 539.155 C 357.101 1141.843,712.093 1662.153,1250.000 1925.927 C 1456.562 2027.219,1674.752 2084.929,1886.600 2094.304 L 1947.201 2096.986 1980.368 2079.493 C 2035.556 2050.386,2068.737 2012.488,2088.491 1956.000 C 2097.127 1931.302,2097.588 1924.191,2097.699 1814.000 C 2097.823 1689.478,2095.769 1671.707,2076.892 1634.000 C 2064.834 1609.913,2025.568 1570.799,1995.727 1553.149 C 1983.777 1546.081,1963.200 1537.598,1950.000 1534.298 C 1903.628 1522.704,1717.606 1502.779,1652.000 1502.379 L 1590.000 1502.000 1558.400 1517.439 C 1529.276 1531.668,1518.602 1540.980,1422.186 1636.267 L 1317.571 1739.656 1273.786 1714.602 C 1141.127 1638.694,1054.094 1573.593,952.514 1474.288 C 844.288 1368.486,770.881 1273.411,692.091 1136.994 L 659.166 1079.988 765.379 971.810 C 880.182 854.882,887.012 845.715,897.902 793.930 C 904.622 761.977,902.684 728.903,885.600 584.000 C 867.264 428.479,861.336 409.716,816.000 363.715 C 787.216 334.509,743.863 309.929,714.932 306.411 C 685.944 302.887,552.348 301.526,502.000 304.242 M1672.308 304.611 C 1659.008 307.718,1648.955 314.405,1631.817 331.543 C 1601.570 361.790,1600.000 369.992,1600.000 497.787 L 1600.000 599.180 1487.000 600.792 C 1361.230 602.585,1356.572 603.452,1330.979 629.803 C 1309.641 651.775,1302.239 669.854,1302.239 700.000 C 1302.239 730.146,1309.641 748.225,1330.979 770.197 C 1356.883 796.869,1361.171 797.669,1486.724 799.237 L 1599.448 800.646 1600.724 913.323 C 1602.131 1037.545,1602.306 1038.482,1629.448 1067.351 C 1649.696 1088.887,1670.191 1097.704,1700.000 1097.704 C 1729.809 1097.704,1750.304 1088.887,1770.552 1067.351 C 1797.694 1038.482,1797.869 1037.545,1799.276 913.323 L 1800.552 800.646 1913.276 799.237 C 2038.829 797.669,2043.117 796.869,2069.021 770.197 C 2090.359 748.225,2097.761 730.146,2097.761 700.000 C 2097.761 669.854,2090.359 651.775,2069.021 629.803 C 2043.437 603.461,2038.737 602.585,1913.322 600.795 L 1800.643 599.188 1799.236 486.594 C 1797.687 362.614,1796.764 357.379,1772.109 332.725 C 1745.964 306.579,1708.752 296.097,1672.308 304.611 " fill="#1D1E23" stroke="none" fill-rule="evenodd"/></svg>