<svg viewBox="0 0 2400 2400" fill="none" xmlns="http://www.w3.org/2000/svg"><path d="M481.691 307.596 C 420.997 312.616,372.254 340.505,339.261 389.088 C 312.516 428.471,301.948 462.713,302.559 508.000 C 303.479 576.077,323.423 701.866,350.442 810.000 C 460.296 1249.652,733.582 1621.082,1118.000 1853.209 C 1340.117 1987.332,1595.226 2070.979,1846.000 2091.911 C 1932.250 2099.110,1944.872 2098.068,1977.415 2081.063 C 2017.504 2060.114,2057.662 2019.192,2077.304 1979.273 C 2091.127 1951.181,2092.787 1944.149,2096.664 1897.273 C 2101.830 1834.799,2098.458 1721.486,2090.140 1678.051 C 2085.550 1654.080,2080.354 1640.775,2069.332 1624.772 C 2050.042 1596.763,2013.381 1563.924,1987.078 1551.090 C 1942.896 1529.534,1842.596 1514.435,1695.665 1507.220 C 1585.289 1501.800,1578.175 1502.926,1536.074 1532.493 C 1520.921 1543.134,1465.390 1594.213,1412.671 1646.001 L 1316.819 1740.162 1261.409 1707.423 C 1145.402 1638.880,1072.341 1585.120,986.000 1504.770 C 866.301 1393.377,776.526 1280.547,690.191 1132.993 L 659.176 1079.986 746.281 990.993 C 885.165 849.099,900.000 826.248,900.000 754.221 C 900.000 690.335,878.885 504.496,865.865 453.791 C 855.767 414.464,841.839 390.703,812.871 363.384 C 798.067 349.423,773.181 331.292,757.569 323.093 L 729.184 308.186 623.592 306.390 C 565.516 305.402,501.661 305.945,481.691 307.596 M1662.026 310.035 C 1637.436 323.386,1624.306 336.574,1613.310 358.967 L 1602.000 382.000 1600.666 491.000 L 1599.332 600.000 1548.666 600.191 C 1520.800 600.297,1467.625 601.913,1430.501 603.784 C 1365.144 607.078,1362.482 607.551,1346.613 618.705 C 1337.599 625.040,1324.773 637.978,1318.112 647.456 C 1306.846 663.486,1306.000 667.154,1306.000 700.000 C 1306.000 732.798,1306.854 736.518,1318.000 752.275 C 1324.600 761.605,1336.647 774.591,1344.771 781.134 C 1358.424 792.128,1362.967 793.275,1404.771 796.283 C 1429.647 798.074,1483.531 799.642,1524.513 799.769 L 1599.026 800.000 1600.833 911.000 C 1602.790 1031.149,1603.748 1036.906,1626.230 1063.572 C 1671.105 1116.796,1763.099 1101.424,1791.233 1036.000 C 1795.935 1025.065,1797.667 997.698,1799.145 911.000 L 1801.037 800.000 1875.518 799.769 C 1916.483 799.642,1970.353 798.074,1995.229 796.283 C 2037.033 793.275,2041.576 792.128,2055.229 781.134 C 2063.353 774.591,2075.400 761.605,2082.000 752.275 C 2093.146 736.518,2094.000 732.798,2094.000 700.000 C 2094.000 667.154,2093.154 663.486,2081.888 647.456 C 2075.227 637.978,2062.401 625.040,2053.387 618.705 C 2037.518 607.551,2034.856 607.078,1969.499 603.784 C 1932.375 601.913,1879.050 600.297,1851.000 600.191 L 1800.000 600.000 1799.769 525.000 C 1799.642 483.750,1798.074 429.647,1796.283 404.771 C 1793.274 362.954,1792.131 358.428,1781.125 344.771 C 1760.705 319.433,1736.240 307.036,1702.955 305.163 C 1681.371 303.948,1670.952 305.189,1662.026 310.035 " fill="#1D1E23" stroke="none" fill-rule="evenodd"/></svg>