<svg viewBox="0 0 2400 2400" fill="none" xmlns="http://www.w3.org/2000/svg"><path d="M742.000 408.024 C 706.284 411.639,656.577 448.049,639.199 483.326 L 630.000 502.000 628.665 1200.793 L 627.330 1899.585 640.495 1918.793 C 658.103 1944.482,688.986 1974.209,709.385 1985.104 C 731.361 1996.841,792.130 1997.809,820.466 1986.873 C 842.096 1978.525,886.144 1935.163,899.409 1909.159 L 908.000 1892.319 907.962 1199.159 L 907.925 506.000 896.435 486.000 C 882.346 461.477,845.348 425.854,825.042 417.262 C 806.684 409.494,768.951 405.297,742.000 408.024 M1557.137 418.016 C 1532.852 430.312,1499.786 464.795,1485.785 492.425 L 1476.000 511.734 1476.000 1201.102 L 1476.000 1890.471 1490.043 1914.235 C 1506.031 1941.291,1537.050 1972.099,1561.428 1985.137 C 1575.367 1992.592,1584.355 1994.000,1618.000 1994.000 C 1652.496 1994.000,1660.466 1992.686,1675.922 1984.448 C 1698.836 1972.236,1740.377 1930.783,1751.448 1909.081 L 1760.000 1892.319 1759.962 1201.159 L 1759.925 510.000 1747.520 488.367 C 1732.067 461.419,1702.617 431.605,1679.555 419.562 C 1665.297 412.116,1654.113 410.118,1620.000 408.923 C 1580.989 407.556,1576.515 408.203,1557.137 418.016 M284.066 734.791 C 260.607 746.766,216.655 791.051,211.985 807.415 C 203.257 838.003,199.647 990.630,200.806 1280.000 C 202.169 1620.114,198.207 1585.810,241.180 1629.579 C 273.988 1662.994,293.723 1672.831,332.620 1675.155 C 377.712 1677.848,402.360 1668.988,435.297 1638.244 C 449.769 1624.736,464.585 1606.540,468.755 1597.154 C 480.270 1571.231,483.810 1459.915,483.911 1120.508 L 484.000 823.016 466.052 797.864 C 447.223 771.478,422.230 747.701,402.000 736.929 C 393.611 732.462,376.158 730.109,344.000 729.108 C 305.852 727.921,295.622 728.891,284.066 734.791 M1133.699 735.326 C 1112.655 745.211,1079.121 778.843,1063.973 805.255 L 1052.075 826.000 1052.075 1200.000 L 1052.075 1574.000 1063.578 1594.000 C 1078.622 1620.155,1118.855 1658.174,1142.609 1668.682 C 1158.621 1675.764,1166.889 1676.720,1197.723 1675.053 C 1243.206 1672.594,1258.516 1666.124,1287.549 1637.091 C 1335.239 1589.401,1337.351 1567.711,1334.931 1150.509 C 1333.114 837.291,1332.833 832.835,1312.307 792.601 C 1302.952 774.264,1278.479 751.505,1255.180 739.476 C 1230.307 726.634,1157.499 724.146,1133.699 735.326 M2000.000 736.581 C 1973.976 749.632,1933.836 790.851,1928.279 810.229 C 1919.884 839.504,1916.291 952.893,1916.182 1192.000 C 1916.064 1448.017,1920.232 1571.238,1929.781 1594.092 C 1951.960 1647.175,2013.889 1680.716,2078.570 1674.676 C 2111.894 1671.564,2131.969 1660.104,2161.982 1627.060 C 2204.103 1580.684,2200.272 1624.699,2199.061 1201.040 L 2198.000 830.000 2188.313 810.475 C 2176.141 785.943,2143.210 751.906,2119.848 739.711 C 2105.231 732.081,2094.398 730.137,2060.000 728.974 C 2022.710 727.713,2015.982 728.566,2000.000 736.581 " fill="#1D1E23" stroke="none" fill-rule="evenodd"/></svg>