<svg viewBox="0 0 2400 2400" fill="none" xmlns="http://www.w3.org/2000/svg"><path d="M723.529 409.290 C 688.971 422.195,650.204 457.474,635.860 489.072 C 628.377 505.557,628.173 524.151,628.088 1200.215 L 628.000 1894.429 638.104 1914.705 C 650.277 1939.134,689.159 1977.289,712.827 1988.030 C 739.817 2000.280,797.680 1999.224,825.695 1985.971 C 851.019 1973.991,883.164 1941.278,897.593 1912.802 L 908.000 1892.266 908.000 1200.000 L 908.000 507.734 898.348 488.687 C 883.724 459.828,854.652 429.886,829.134 417.401 C 811.006 408.532,799.993 406.156,772.323 405.143 C 750.352 404.338,732.792 405.831,723.529 409.290 M1571.050 409.827 C 1534.946 423.640,1507.184 450.629,1485.628 492.867 L 1476.000 511.734 1476.000 1200.307 L 1476.000 1888.880 1488.981 1913.440 C 1505.901 1945.454,1534.502 1973.926,1562.718 1986.843 C 1595.304 2001.761,1640.675 2001.836,1672.943 1987.025 C 1700.126 1974.548,1730.300 1945.663,1747.520 1915.633 L 1759.925 1894.000 1759.959 1204.000 L 1759.994 514.000 1748.225 489.123 C 1734.059 459.180,1708.300 432.397,1679.350 417.512 C 1661.605 408.389,1651.921 406.330,1622.000 405.321 C 1597.760 404.503,1581.116 405.975,1571.050 409.827 M284.000 734.444 C 271.900 740.567,251.810 755.718,239.356 768.113 C 199.993 807.287,202.594 777.864,200.945 1202.653 L 199.513 1571.305 210.161 1592.318 C 224.529 1620.671,256.829 1652.026,286.000 1665.936 C 318.477 1681.423,364.433 1681.894,396.734 1667.071 C 425.186 1654.013,461.366 1620.385,469.978 1598.993 C 480.910 1571.837,483.640 1481.443,483.828 1140.487 L 484.000 826.974 471.157 804.487 C 454.681 775.640,424.658 745.611,402.488 735.804 C 391.146 730.787,371.348 727.277,345.550 725.712 C 307.848 723.423,304.972 723.831,284.000 734.444 M1146.000 729.028 C 1110.416 743.826,1080.178 772.128,1062.337 807.336 L 1052.000 827.734 1052.000 1200.000 L 1052.000 1572.266 1062.407 1592.802 C 1077.035 1621.671,1108.957 1653.980,1135.045 1666.321 C 1155.020 1675.771,1160.626 1676.579,1197.667 1675.350 C 1235.895 1674.081,1239.761 1673.155,1261.738 1660.000 C 1291.585 1642.134,1313.449 1614.639,1324.765 1580.744 C 1333.654 1554.116,1333.699 1552.610,1335.102 1233.392 C 1335.929 1045.022,1334.909 895.711,1332.627 871.392 C 1327.701 818.873,1316.472 788.261,1293.828 765.617 C 1265.858 737.647,1242.189 727.946,1196.776 725.838 C 1171.018 724.643,1153.971 725.714,1146.000 729.028 M2010.337 730.112 C 1988.410 738.411,1956.007 763.788,1942.560 783.192 C 1918.210 818.329,1919.036 807.154,1917.085 1128.000 C 1915.146 1447.025,1918.545 1570.625,1930.039 1599.090 C 1939.453 1622.403,1978.762 1657.460,2007.621 1668.281 C 2036.616 1679.153,2093.287 1678.039,2118.000 1666.112 C 2139.165 1655.897,2175.224 1618.824,2189.227 1592.881 L 2200.455 1572.082 2199.186 1203.041 L 2197.918 834.000 2188.386 810.236 C 2176.447 780.472,2148.086 751.326,2116.943 736.815 C 2088.840 723.721,2036.000 720.398,2010.337 730.112 " fill="#1D1E23" stroke="none" fill-rule="evenodd"/></svg>