<svg viewBox="0 0 2400 2400" fill="none" xmlns="http://www.w3.org/2000/svg"><path d="M200 861.84C200 783.503 263.505 719.998 341.842 719.998 420.179 719.998 483.684 783.503 483.684 861.84V1538.16C483.684 1616.49 420.179 1680 341.842 1680 263.505 1680 200 1616.49 200 1538.16V861.84ZM1051.03 861.84C1051.03 783.503 1114.53 719.998 1192.87 719.998 1271.2 719.998 1334.71 783.503 1334.71 861.84V1538.16C1334.71 1616.49 1271.2 1680 1192.87 1680 1114.53 1680 1051.03 1616.49 1051.03 1538.16V861.84ZM1916.31 861.84C1916.31 783.503 1979.81 719.998 2058.15 719.998 2136.49 719.998 2199.99 783.503 2199.99 861.84V1538.16C2199.99 1616.49 2136.49 1680 2058.15 1680 1979.81 1680 1916.31 1616.49 1916.31 1538.16V861.84ZM625.537 541.842C625.537 463.505 689.042 400 767.379 400 845.716 400 909.221 463.505 909.221 541.842V1858.16C909.221 1936.5 845.716 2000 767.379 2000 689.042 2000 625.537 1936.5 625.537 1858.16V541.842ZM1476.61 541.842C1476.61 463.505 1540.12 400 1618.45 400 1696.79 400 1760.3 463.505 1760.3 541.842V1858.16C1760.3 1936.5 1696.79 2000 1618.45 2000 1540.12 2000 1476.61 1936.5 1476.61 1858.16V541.842Z" fill="#1D1E23"/></svg>