<svg viewBox="0 0 2400 2400" fill="none" xmlns="http://www.w3.org/2000/svg"><path d="M746.000 403.905 C 704.986 408.532,659.601 441.924,639.854 482.000 L 630.000 502.000 630.000 1200.000 L 630.000 1898.000 639.829 1918.000 C 653.114 1945.033,683.255 1974.270,710.873 1986.914 C 729.837 1995.596,739.431 1997.333,768.413 1997.333 C 798.494 1997.333,806.327 1995.801,826.379 1985.990 C 855.962 1971.516,880.275 1947.151,895.776 1916.443 L 908.000 1892.228 908.000 1199.955 L 908.000 507.681 899.464 490.841 C 866.093 425.005,815.088 396.111,746.000 403.905 M1585.534 405.416 C 1542.257 416.407,1508.454 445.412,1487.635 489.419 L 1476.006 514.000 1476.006 1200.000 L 1476.006 1886.000 1487.824 1910.979 C 1504.037 1945.252,1530.389 1972.355,1561.063 1986.306 C 1581.630 1995.661,1591.607 1997.677,1618.000 1997.811 C 1645.000 1997.949,1653.889 1996.180,1674.889 1986.490 C 1704.749 1972.714,1733.849 1943.494,1749.362 1911.715 L 1760.239 1889.429 1759.120 1199.715 L 1758.000 510.000 1746.503 485.111 C 1718.384 424.234,1648.220 389.496,1585.534 405.416 M2028.890 724.083 C 1984.838 733.191,1937.594 774.679,1925.026 815.293 C 1918.544 836.243,1918.000 866.003,1918.000 1200.000 C 1918.000 1623.715,1914.987 1591.933,1959.327 1635.977 C 1981.096 1657.600,1990.413 1663.846,2010.000 1669.949 C 2043.496 1680.385,2088.257 1679.934,2113.003 1668.912 C 2139.784 1656.983,2173.597 1623.559,2187.958 1594.821 L 2200.000 1570.722 2199.920 1218.361 C 2199.875 1024.562,2198.216 854.779,2196.233 841.065 C 2191.373 807.466,2178.333 782.935,2153.051 759.829 C 2120.403 729.990,2070.210 715.540,2028.890 724.083 M280.000 736.020 C 253.137 751.083,226.026 776.801,215.468 797.237 C 211.138 805.617,205.900 827.217,203.828 845.237 C 201.755 863.263,200.047 1033.792,200.030 1224.361 L 200.000 1570.722 212.002 1594.739 C 227.813 1626.382,252.063 1650.173,284.000 1665.375 C 305.826 1675.764,314.817 1677.762,340.000 1677.818 C 385.379 1677.919,408.298 1668.433,440.605 1636.179 C 484.825 1592.031,481.525 1626.073,483.066 1198.205 L 484.390 830.410 471.584 805.181 C 457.390 777.215,430.375 749.567,403.568 735.568 C 389.228 728.080,378.282 726.145,344.000 725.039 C 303.327 723.727,301.305 724.074,280.000 736.020 M1132.916 734.166 C 1104.875 748.308,1079.366 774.513,1064.309 804.646 L 1052.000 829.278 1052.000 1200.000 L 1052.000 1570.722 1064.729 1596.196 C 1080.627 1628.010,1103.635 1651.319,1133.621 1665.990 C 1153.762 1675.844,1161.450 1677.333,1192.164 1677.333 C 1223.867 1677.333,1230.214 1676.008,1253.551 1664.520 C 1300.795 1641.261,1326.109 1602.614,1332.238 1544.385 C 1336.953 1499.591,1336.953 900.409,1332.238 855.615 C 1326.274 798.949,1301.727 760.316,1257.425 737.869 C 1236.913 727.476,1229.025 725.847,1194.000 724.766 C 1157.324 723.635,1152.248 724.416,1132.916 734.166 " fill="#1D1E23" stroke="none" fill-rule="evenodd"/></svg>