<svg viewBox="0 0 2400 2400" fill="none" xmlns="http://www.w3.org/2000/svg"><path d="M818.763 404.176 C 797.691 407.829,772.474 426.571,756.893 450.158 C 749.685 461.071,684.060 588.975,611.061 734.390 L 478.335 998.780 382.167 1001.289 C 329.275 1002.669,279.479 1005.665,271.509 1007.946 C 251.602 1013.645,222.573 1040.225,211.335 1063.045 C 202.772 1080.433,202.000 1087.126,202.000 1144.000 C 202.000 1213.197,204.030 1220.460,231.441 1249.339 C 252.545 1271.573,273.280 1280.956,306.038 1283.097 L 334.075 1284.929 367.307 1447.464 C 422.856 1719.159,468.052 1935.740,478.369 1979.683 C 490.307 2030.530,503.453 2049.106,540.659 2067.698 L 565.278 2080.000 1200.289 2080.000 L 1835.301 2080.000 1860.469 2066.971 C 1898.270 2047.403,1908.669 2031.244,1923.402 1969.179 C 1935.939 1916.363,1974.834 1730.597,2032.635 1447.468 L 2065.816 1284.936 2093.908 1283.100 C 2126.724 1280.956,2147.443 1271.586,2168.559 1249.339 C 2195.830 1220.608,2198.002 1212.981,2197.986 1146.000 C 2197.972 1087.079,2197.759 1085.617,2186.190 1064.706 C 2173.249 1041.315,2154.137 1024.204,2127.408 1012.075 C 2111.662 1004.930,2100.941 1004.167,2015.136 1004.088 L 1920.272 1004.000 1788.129 741.000 C 1715.450 596.350,1647.439 465.509,1636.993 450.242 C 1612.367 414.252,1597.126 405.951,1556.000 406.131 C 1521.904 406.281,1502.553 414.202,1481.448 436.649 C 1455.604 464.137,1447.970 492.187,1457.493 524.663 C 1460.935 536.398,1515.021 649.050,1577.684 775.000 L 1691.618 1004.000 1199.809 1004.000 C 770.089 1004.000,708.000 1003.259,708.000 998.128 C 708.000 994.899,754.477 899.049,811.283 785.128 C 929.480 548.091,940.036 524.469,939.912 497.278 C 939.635 436.480,883.087 393.023,818.763 404.176 M858.685 1241.299 C 865.661 1244.918,875.412 1253.557,880.354 1260.497 L 889.338 1273.115 889.669 1555.557 L 890.000 1838.000 880.597 1853.124 C 866.568 1875.690,844.460 1885.577,808.000 1885.593 C 769.437 1885.609,745.287 1875.462,731.640 1853.508 L 722.000 1838.000 722.000 1557.707 L 722.000 1277.414 731.885 1262.987 C 737.322 1255.053,748.122 1244.751,755.885 1240.095 C 768.236 1232.688,774.749 1231.823,808.000 1233.174 C 832.807 1234.183,850.404 1237.004,858.685 1241.299 M1246.860 1238.676 C 1254.599 1242.348,1266.239 1252.681,1272.727 1261.639 L 1284.525 1277.925 1283.263 1557.963 C 1281.872 1866.470,1283.019 1852.938,1256.752 1870.619 C 1212.803 1900.203,1143.556 1888.050,1120.996 1846.793 C 1114.562 1835.027,1113.903 1811.955,1112.798 1559.498 L 1111.596 1284.995 1122.424 1267.069 C 1139.386 1238.987,1153.117 1233.110,1203.395 1232.409 C 1223.292 1232.132,1237.337 1234.157,1246.860 1238.676 M1645.500 1241.305 C 1651.283 1245.094,1660.960 1255.667,1667.004 1264.800 L 1677.993 1281.405 1679.278 1511.703 C 1679.984 1638.366,1678.961 1764.803,1677.005 1792.673 C 1673.733 1839.294,1672.549 1844.525,1662.197 1858.097 C 1647.365 1877.543,1629.362 1884.527,1593.712 1884.667 C 1555.462 1884.817,1539.174 1878.980,1522.064 1858.991 L 1508.000 1842.560 1508.000 1557.125 L 1508.000 1271.690 1523.075 1255.529 C 1541.345 1235.943,1554.983 1232.043,1600.493 1233.393 C 1625.029 1234.120,1638.021 1236.404,1645.500 1241.305 " fill="#1D1E23" stroke="none" fill-rule="evenodd"/></svg>