<svg viewBox="0 0 2400 2400" fill="none" xmlns="http://www.w3.org/2000/svg"><path d="M813.459 404.119 C 806.561 406.248,792.161 413.843,781.459 420.995 C 762.001 433.999,761.993 434.013,620.142 716.652 L 478.284 999.304 380.142 1000.782 C 269.793 1002.443,265.537 1003.357,234.389 1032.068 C 205.439 1058.754,199.020 1081.198,200.663 1150.000 C 201.936 1203.303,202.568 1207.025,213.796 1227.294 C 234.338 1264.378,268.172 1284.000,311.572 1284.000 L 334.137 1284.000 407.518 1642.586 C 447.877 1839.808,483.436 2007.248,486.540 2014.675 C 495.316 2035.678,518.029 2058.122,541.033 2068.522 L 562.000 2078.000 1200.000 2078.000 L 1838.000 2078.000 1858.000 2068.786 C 1883.098 2057.222,1898.200 2043.019,1909.875 2020.000 C 1916.327 2007.277,1940.520 1896.762,1992.402 1643.000 L 2065.801 1284.000 2088.397 1284.000 C 2131.829 1284.000,2165.656 1264.388,2186.204 1227.294 C 2197.795 1206.371,2198.000 1204.955,2198.000 1146.000 C 2198.000 1091.815,2197.146 1084.404,2189.191 1069.534 C 2174.566 1042.196,2159.579 1027.462,2134.172 1015.442 L 2110.000 1004.006 2015.006 1004.003 L 1920.011 1004.000 1782.006 728.012 C 1638.083 440.190,1629.804 425.947,1598.000 411.463 C 1572.456 399.829,1533.870 401.411,1507.530 415.171 C 1467.453 436.107,1445.455 481.781,1455.753 522.676 C 1458.224 532.489,1512.394 644.802,1576.130 772.259 L 1692.014 1004.000 1198.007 1004.000 C 926.303 1004.000,704.000 1003.133,704.000 1002.073 C 704.000 1001.013,757.251 893.463,822.335 763.073 C 950.300 506.704,948.113 512.301,936.412 471.167 C 929.850 448.103,908.642 422.531,886.860 411.418 C 868.356 401.978,832.076 398.370,813.459 404.119 M853.601 1237.576 C 860.941 1240.642,872.133 1249.951,878.473 1258.262 L 890.000 1273.373 891.079 1552.690 C 892.131 1824.858,891.955 1832.407,884.191 1847.626 C 873.332 1868.911,859.678 1878.655,832.757 1884.334 C 804.424 1890.310,765.857 1884.715,748.069 1872.049 C 741.332 1867.252,732.260 1856.350,727.909 1847.822 C 720.258 1832.824,720.000 1823.378,720.000 1558.000 C 720.000 1292.622,720.258 1283.176,727.909 1268.178 C 735.289 1253.713,749.993 1240.149,764.000 1234.886 C 776.601 1230.151,840.416 1232.066,853.601 1237.576 M1252.313 1241.095 C 1259.736 1246.098,1269.902 1256.264,1274.905 1263.687 L 1284.000 1277.183 1284.000 1556.790 C 1284.000 1862.879,1285.115 1848.253,1260.184 1869.232 C 1244.955 1882.046,1210.176 1889.557,1182.734 1885.958 C 1153.225 1882.088,1130.586 1867.868,1120.384 1846.794 C 1112.124 1829.730,1112.000 1825.455,1112.000 1557.366 L 1112.000 1285.258 1121.300 1267.629 C 1135.832 1240.083,1153.487 1232.146,1200.408 1232.066 C 1233.799 1232.009,1240.580 1233.188,1252.313 1241.095 M1639.722 1237.856 C 1655.393 1245.960,1670.904 1265.410,1675.824 1283.124 C 1681.474 1303.468,1681.474 1812.532,1675.824 1832.876 C 1673.552 1841.057,1667.047 1853.272,1661.370 1860.019 C 1644.389 1880.200,1630.008 1885.493,1591.837 1885.610 C 1552.574 1885.730,1538.897 1879.958,1518.424 1854.629 L 1506.000 1839.257 1506.000 1558.336 L 1506.000 1277.414 1515.885 1262.987 C 1532.527 1238.700,1548.377 1232.198,1591.199 1232.092 C 1616.194 1232.030,1632.112 1233.921,1639.722 1237.856 " fill="#1D1E23" stroke="none" fill-rule="evenodd"/></svg>