<svg viewBox="0 0 2400 2400" fill="none" xmlns="http://www.w3.org/2000/svg"><path d="M2086.55 1003.17H1918.49L1645.38 456.951C1620.17 406.531 1559.24 387.624 1508.82 412.834C1458.4 438.044 1439.5 498.968 1464.71 549.388L1693.7 1005.27H702.101L931.092 547.288C956.302 496.867 935.294 435.943 886.975 410.733C836.555 385.523 775.63 406.531 750.42 454.851L477.311 1001.07H309.244C248.319 1001.07 200 1049.39 200 1110.31V1175.44C200 1236.36 248.319 1284.68 309.244 1284.68H334.454L479.412 1992.67C489.916 2043.09 534.034 2078.8 586.555 2078.8H1813.45C1865.97 2078.8 1910.08 2043.09 1920.59 1992.67L2065.55 1284.68H2090.76C2151.68 1284.68 2200 1236.36 2200 1175.44V1110.31C2195.8 1051.49 2147.48 1003.17 2086.55 1003.17ZM893.277 1816.2C893.277 1854.01 861.765 1885.52 823.95 1885.52H788.235C750.42 1885.52 718.908 1854.01 718.908 1816.2V1299.39C718.908 1261.57 750.42 1230.06 788.235 1230.06H823.95C861.765 1230.06 893.277 1261.57 893.277 1299.39V1816.2ZM1286.13 1816.2C1286.13 1854.01 1254.62 1885.52 1216.81 1885.52H1181.09C1143.28 1885.52 1111.76 1854.01 1111.76 1816.2V1299.39C1111.76 1261.57 1143.28 1230.06 1181.09 1230.06H1216.81C1254.62 1230.06 1286.13 1261.57 1286.13 1299.39V1816.2ZM1678.99 1816.2C1678.99 1854.01 1647.48 1885.52 1609.66 1885.52H1573.95C1536.13 1885.52 1504.62 1854.01 1504.62 1816.2V1299.39C1504.62 1261.57 1536.13 1230.06 1573.95 1230.06H1609.66C1647.48 1230.06 1678.99 1261.57 1678.99 1299.39V1816.2Z" fill="#1D1E23"/></svg>