<svg viewBox="0 0 2400 2400" fill="none" xmlns="http://www.w3.org/2000/svg"><path d="M1092.000 208.195 C 959.583 217.612,774.985 284.088,650.000 367.365 C 586.905 409.405,555.098 435.257,502.648 487.127 C 363.854 624.385,276.854 775.163,230.161 959.365 C 205.012 1058.578,196.820 1154.108,203.644 1268.604 C 217.530 1501.574,324.411 1736.163,494.112 1906.139 C 648.455 2060.734,836.826 2154.470,1066.000 2190.721 C 1127.908 2200.514,1272.321 2200.465,1336.000 2190.631 C 1552.475 2157.198,1739.395 2065.492,1891.594 1918.045 C 1952.477 1859.063,1990.768 1813.407,2034.144 1748.075 C 2183.778 1522.703,2235.142 1240.028,2173.711 980.000 C 2081.156 588.228,1778.378 295.484,1387.331 219.679 C 1363.443 215.049,1313.780 210.156,1268.185 207.941 C 1181.755 203.743,1154.037 203.783,1092.000 208.195 M1312.000 410.582 C 1399.403 423.069,1466.186 443.368,1546.000 481.707 C 1712.705 561.785,1841.721 691.810,1921.436 860.081 C 1973.549 970.087,1996.000 1072.436,1996.000 1200.000 C 1996.000 1301.356,1980.514 1392.946,1949.904 1472.620 C 1924.992 1537.463,1868.242 1643.319,1841.212 1675.363 L 1829.940 1688.727 1272.970 1130.498 C 966.636 823.473,716.000 570.343,716.000 567.988 C 716.000 560.987,798.354 509.391,850.000 484.036 C 996.200 412.259,1151.217 387.613,1312.000 410.582 M1683.179 1832.523 C 1679.917 1842.415,1615.091 1883.584,1555.850 1913.384 C 1380.407 2001.637,1193.282 2021.955,1002.056 1973.514 C 884.637 1943.770,764.712 1880.615,673.063 1800.260 C 532.186 1676.742,430.923 1485.552,408.160 1300.105 C 402.804 1256.469,402.804 1143.531,408.160 1099.895 C 423.615 973.992,486.647 816.073,557.150 726.623 L 569.270 711.245 1127.127 1269.145 C 1461.079 1603.123,1684.260 1829.244,1683.179 1832.523 " fill="#1D1E23" stroke="none" fill-rule="evenodd"/></svg>