<svg viewBox="0 0 2400 2400" fill="none" xmlns="http://www.w3.org/2000/svg"><path d="M1062.000 210.040 C 838.845 245.765,647.360 340.791,498.022 489.920 C 335.373 652.340,239.530 845.602,207.371 1076.000 C 199.343 1133.512,200.542 1278.601,209.535 1338.000 C 259.968 1671.099,465.368 1953.685,762.000 2098.072 C 996.553 2212.242,1262.178 2230.922,1508.000 2150.533 C 1764.708 2066.585,1981.131 1878.587,2098.027 1638.000 C 2234.203 1357.731,2233.307 1038.111,2095.564 760.000 C 2043.904 655.694,1982.750 570.004,1904.273 491.959 C 1757.151 345.647,1581.994 255.288,1368.000 215.310 C 1310.952 204.652,1116.566 201.304,1062.000 210.040 M1268.000 404.227 C 1401.520 416.419,1526.247 459.404,1636.000 531.052 C 1937.883 728.127,2069.859 1100.851,1959.968 1446.000 C 1938.251 1514.212,1881.272 1624.941,1843.066 1673.179 L 1830.747 1688.734 1377.042 1235.367 C 1127.504 986.015,876.390 733.556,819.011 674.347 L 714.687 566.694 726.343 557.232 C 732.754 552.027,755.100 537.170,776.000 524.217 C 927.735 430.172,1097.828 388.689,1268.000 404.227 M1684.048 1828.375 C 1686.921 1833.514,1679.199 1840.323,1644.224 1863.492 C 1402.111 2023.878,1106.420 2043.404,846.000 1916.204 C 613.273 1802.530,450.378 1578.475,409.635 1316.000 C 400.762 1258.843,400.751 1140.208,409.612 1084.287 C 430.298 953.746,487.571 814.900,557.142 726.633 L 569.254 711.265 1124.869 1266.633 C 1430.458 1572.085,1682.088 1824.869,1684.048 1828.375 " fill="#1D1E23" stroke="none" fill-rule="evenodd"/></svg>