<svg viewBox="0 0 2400 2400" fill="none" xmlns="http://www.w3.org/2000/svg"><path d="M1118.000 206.424 C 956.947 218.282,787.043 277.650,644.362 371.923 C 494.452 470.972,358.807 630.799,288.119 791.674 C 266.998 839.740,242.361 911.165,230.085 959.915 C 182.920 1147.222,193.856 1354.889,260.483 1537.119 C 334.478 1739.503,470.551 1912.980,650.000 2033.707 C 696.182 2064.777,800.010 2116.962,857.739 2138.120 C 908.419 2156.694,1005.333 2181.431,1062.000 2190.256 C 1129.444 2200.759,1285.600 2199.715,1350.000 2188.330 C 1565.633 2150.209,1739.801 2062.760,1894.450 1914.965 C 2167.011 1654.483,2267.301 1255.006,2149.937 897.307 C 2068.516 649.154,1906.900 452.080,1682.000 326.706 C 1573.429 266.182,1435.324 222.100,1324.000 212.437 C 1271.207 207.854,1147.583 204.246,1118.000 206.424 M1340.000 415.332 C 1467.982 438.332,1590.071 493.104,1694.511 574.372 C 1835.368 683.979,1943.783 858.621,1979.839 1034.000 C 2006.111 1161.788,1997.889 1325.827,1959.289 1444.000 C 1937.469 1510.800,1872.323 1637.959,1840.216 1676.417 L 1829.769 1688.931 1272.884 1130.040 C 966.598 822.650,716.000 569.654,716.000 567.827 C 716.000 561.973,784.226 519.339,837.938 491.628 C 921.681 448.424,1001.455 422.644,1090.734 409.934 C 1148.490 401.712,1280.066 404.561,1340.000 415.332 M1527.099 1671.534 L 1685.611 1833.069 1673.805 1842.769 C 1630.711 1878.179,1514.425 1936.470,1436.858 1961.546 C 1175.048 2046.184,883.401 1983.499,669.618 1796.642 C 564.067 1704.385,468.434 1548.841,430.510 1407.740 C 408.905 1327.356,406.236 1304.546,406.205 1200.000 C 406.179 1114.568,407.317 1096.319,415.074 1057.705 C 438.269 942.239,494.100 810.417,552.807 732.508 L 569.002 711.017 968.795 1110.508 C 1188.681 1330.229,1439.918 1582.690,1527.099 1671.534 " fill="#1D1E23" stroke="none" fill-rule="evenodd"/></svg>