<svg viewBox="0 0 2400 2400" fill="none" xmlns="http://www.w3.org/2000/svg"><path d="M1132.000 202.651 C 941.582 221.296,791.734 273.396,644.261 372.232 C 438.450 510.168,290.634 719.846,230.485 959.178 C 207.975 1048.744,202.290 1097.204,202.233 1200.000 C 202.179 1296.418,207.104 1342.049,226.407 1424.000 C 261.131 1571.410,328.270 1708.862,422.767 1826.000 C 464.457 1877.679,547.120 1957.940,598.159 1996.296 C 735.305 2099.361,894.499 2165.512,1066.000 2190.702 C 1132.705 2200.500,1276.164 2200.418,1339.188 2190.547 C 1553.391 2156.996,1741.608 2063.784,1893.397 1916.082 C 1982.826 1829.061,2043.246 1746.230,2096.240 1638.000 C 2143.274 1541.942,2174.294 1443.979,2190.470 1340.420 C 2199.726 1281.161,2199.726 1118.839,2190.470 1059.580 C 2162.118 878.065,2085.277 705.775,1970.730 566.887 C 1837.093 404.852,1650.419 285.403,1450.000 233.685 C 1377.834 215.062,1334.362 208.825,1244.000 204.130 C 1166.610 200.108,1158.997 200.008,1132.000 202.651 M1237.540 404.045 C 1359.131 410.439,1439.898 430.538,1543.148 480.098 C 1770.476 589.214,1934.519 800.316,1984.764 1048.400 C 1993.119 1089.651,1993.983 1104.491,1993.818 1204.000 C 1993.644 1309.133,1993.153 1316.116,1982.712 1361.810 C 1967.138 1429.973,1947.438 1486.222,1918.203 1546.000 C 1895.866 1591.675,1841.833 1679.923,1832.777 1685.520 C 1830.986 1686.626,1577.871 1435.877,1270.298 1128.298 L 711.075 569.064 736.537 550.978 C 850.596 469.960,980.567 420.624,1122.000 404.659 C 1139.600 402.672,1155.800 400.827,1158.000 400.559 C 1160.200 400.292,1195.993 401.860,1237.540 404.045 M1100.217 1238.746 C 1604.288 1743.891,1684.000 1824.903,1684.000 1832.048 C 1684.000 1834.378,1661.950 1850.763,1635.000 1868.458 C 1428.618 2003.969,1174.642 2035.775,940.607 1955.420 C 673.723 1863.787,472.019 1631.964,415.236 1351.600 C 406.937 1310.626,406.003 1295.044,406.025 1198.000 C 406.047 1099.905,406.911 1085.964,415.436 1046.000 C 439.188 934.666,485.653 828.506,550.745 736.864 L 568.599 711.727 591.299 731.610 C 603.785 742.545,832.798 970.757,1100.217 1238.746 " fill="#1D1E23" stroke="none" fill-rule="evenodd"/></svg>