<svg viewBox="0 0 2400 2400" fill="none" xmlns="http://www.w3.org/2000/svg"><path d="M1101.209 206.286 C 974.803 221.604,864.217 253.853,759.539 305.924 C 475.389 447.269,276.763 709.559,215.755 1024.000 C 199.387 1108.366,197.539 1277.811,212.113 1358.000 C 246.865 1549.208,331.894 1725.779,455.102 1862.596 C 606.872 2031.128,790.983 2135.901,1016.000 2181.789 C 1123.683 2203.748,1280.119 2203.724,1386.981 2181.731 C 1590.333 2139.879,1760.953 2048.029,1906.079 1902.284 C 2022.943 1784.922,2100.307 1658.178,2152.264 1498.968 C 2189.531 1384.774,2197.382 1325.374,2194.847 1176.796 C 2193.209 1080.831,2191.511 1055.439,2184.492 1022.000 C 2135.157 786.957,2017.981 585.899,1846.000 441.196 C 1701.239 319.395,1509.529 233.014,1338.000 212.299 C 1302.256 207.982,1175.159 199.720,1156.000 200.468 C 1150.500 200.682,1125.844 203.301,1101.209 206.286 M1230.556 404.248 C 1347.043 411.173,1418.219 426.307,1501.397 461.835 C 1679.161 537.762,1814.235 660.958,1907.251 832.000 C 1931.666 876.894,1958.846 947.385,1975.114 1008.000 L 1989.607 1062.000 1991.095 1188.217 C 1992.565 1312.812,1992.448 1315.040,1982.003 1361.610 C 1966.506 1430.706,1943.207 1494.661,1910.458 1558.000 C 1878.274 1620.246,1838.502 1684.000,1831.855 1684.000 C 1829.476 1684.000,1576.201 1433.171,1269.021 1126.603 L 710.513 569.206 746.256 545.281 C 862.281 467.618,963.922 428.370,1102.000 407.916 C 1128.400 404.005,1152.050 400.624,1154.556 400.402 C 1157.062 400.181,1191.262 401.911,1230.556 404.248 M1054.150 1192.746 C 1557.864 1697.746,1684.000 1825.661,1684.000 1831.474 C 1684.000 1837.662,1605.720 1888.343,1560.752 1911.271 C 1486.040 1949.363,1405.120 1975.796,1318.000 1990.567 C 1262.756 1999.933,1137.003 1999.916,1082.172 1990.534 C 900.456 1959.443,755.623 1884.429,631.863 1757.307 C 528.184 1650.810,463.968 1537.735,424.910 1392.888 L 410.110 1338.000 410.055 1200.000 L 410.000 1062.000 421.267 1020.222 C 450.301 912.563,491.618 822.150,549.848 738.851 L 568.737 711.830 595.369 735.661 C 610.016 748.768,816.468 954.456,1054.150 1192.746 " fill="#1D1E23" stroke="none" fill-rule="evenodd"/></svg>