<svg viewBox="0 0 2400 2400" fill="none" xmlns="http://www.w3.org/2000/svg"><path d="M1112.000 203.923 C 833.630 231.768,590.463 362.388,419.326 576.000 C 147.365 915.458,126.704 1391.677,368.248 1753.288 C 676.969 2215.470,1294.618 2338.595,1756.000 2029.929 C 2215.492 1722.528,2337.727 1104.086,2029.929 644.000 C 1872.846 409.198,1631.891 256.219,1349.288 211.869 C 1290.914 202.708,1165.973 198.524,1112.000 203.923 M1274.000 404.133 C 1456.349 421.235,1623.340 498.040,1755.450 625.571 C 2003.123 864.659,2069.747 1237.149,1920.078 1546.000 C 1897.459 1592.678,1867.494 1642.099,1842.855 1673.367 L 1830.746 1688.735 1271.556 1129.556 C 827.312 685.321,713.290 569.265,716.859 564.965 C 727.328 552.351,809.240 501.456,853.793 479.884 C 984.284 416.700,1129.283 390.561,1274.000 404.133 M1688.000 1832.255 C 1688.000 1833.501,1665.847 1849.213,1638.771 1867.172 C 1404.044 2022.856,1107.097 2042.834,852.852 1920.047 C 770.600 1880.324,711.409 1838.851,644.580 1774.120 C 573.375 1705.151,525.536 1639.324,481.701 1550.000 C 374.373 1331.292,373.713 1073.170,479.922 854.000 C 502.541 807.322,532.506 757.901,557.145 726.633 L 569.254 711.265 1128.627 1270.627 C 1436.282 1578.276,1688.000 1831.009,1688.000 1832.255 " fill="#1D1E23" stroke="none" fill-rule="evenodd"/></svg>