<svg viewBox="0 0 2400 2400" fill="none" xmlns="http://www.w3.org/2000/svg"><path d="M1897.859 421.328 C 1866.802 439.092,1653.230 598.773,1625.000 625.337 C 1617.832 632.081,1612.000 641.595,1612.000 646.542 C 1612.000 655.730,1671.134 738.221,1700.761 770.363 C 1709.703 780.063,1720.515 788.000,1724.789 788.000 C 1734.930 788.000,1751.504 776.515,1864.000 691.536 C 2004.029 585.757,2025.831 567.629,2027.020 555.987 C 2027.728 549.062,2020.105 534.963,2002.155 510.000 C 1967.839 462.274,1925.125 411.988,1918.954 412.048 C 1916.229 412.075,1906.736 416.251,1897.859 421.328 M1209.972 659.421 C 1187.988 670.439,1087.783 728.829,987.295 789.177 L 804.591 898.900 579.228 900.780 L 353.866 902.660 317.904 921.233 C 248.841 956.903,210.923 1008.962,203.263 1078.627 C 201.123 1098.082,200.080 1164.400,200.944 1226.000 C 202.390 1329.136,203.208 1339.874,211.275 1361.677 C 223.094 1393.621,240.046 1419.126,265.114 1442.678 C 312.524 1487.221,339.846 1496.515,430.714 1499.009 L 499.428 1500.895 500.846 1681.447 C 501.838 1807.838,503.671 1865.237,506.953 1872.791 C 516.683 1895.180,527.090 1898.000,599.988 1898.000 C 672.911 1898.000,683.456 1895.140,692.933 1872.791 C 696.054 1865.430,698.024 1804.462,699.130 1681.000 L 700.752 1500.000 749.953 1500.000 L 799.155 1500.000 968.577 1601.434 C 1173.664 1724.221,1228.397 1755.479,1243.642 1758.528 C 1262.793 1762.359,1283.964 1753.064,1290.226 1738.077 C 1297.236 1721.298,1301.980 1114.472,1297.206 845.086 L 1294.000 664.173 1284.000 654.183 C 1266.112 636.314,1254.431 637.141,1209.972 659.421 M1400.350 1200.000 L 1400.375 1534.000 1429.187 1503.305 C 1478.651 1450.610,1515.830 1382.119,1536.657 1305.321 C 1543.793 1279.007,1545.182 1262.490,1545.342 1202.000 C 1545.514 1136.716,1544.566 1126.428,1535.175 1091.705 C 1513.587 1011.881,1479.837 949.415,1430.108 897.244 L 1400.326 866.000 1400.350 1200.000 M1863.393 1102.939 C 1822.677 1103.980,1811.732 1105.502,1807.393 1110.728 C 1803.251 1115.716,1802.000 1136.469,1802.000 1200.187 C 1802.000 1276.157,1802.642 1283.862,1809.620 1291.576 C 1817.156 1299.907,1819.250 1300.000,2000.000 1300.000 C 2180.719 1300.000,2182.845 1299.906,2190.380 1291.580 C 2197.361 1283.867,2198.000 1276.160,2198.000 1199.723 C 2198.000 1130.737,2196.961 1115.306,2192.000 1110.630 C 2187.147 1106.055,2160.003 1104.656,2050.000 1103.310 C 1975.200 1102.394,1891.227 1102.227,1863.393 1102.939 M1702.472 1625.383 C 1687.405 1641.550,1622.686 1730.033,1613.995 1746.348 C 1607.821 1757.939,1607.890 1758.095,1627.100 1776.000 C 1645.474 1793.126,1824.306 1929.506,1880.508 1969.253 C 1895.087 1979.564,1910.685 1988.000,1915.170 1988.000 C 1924.399 1988.000,1953.369 1956.314,1991.684 1904.313 C 2022.085 1863.052,2029.125 1849.845,2025.986 1839.957 C 2023.071 1830.772,1977.975 1794.240,1868.000 1711.969 C 1777.215 1644.055,1730.066 1612.000,1720.959 1612.000 C 1717.651 1612.000,1709.332 1618.022,1702.472 1625.383 " fill="#1D1E23" stroke="none" fill-rule="evenodd"/></svg>