<svg viewBox="0 0 2400 2400" fill="none" xmlns="http://www.w3.org/2000/svg"><path d="M1825 1100C1811.19 1100 1800 1111.19 1800 1125V1275C1800 1288.81 1811.19 1300 1825 1300H2175C2188.81 1300 2200 1288.81 2200 1275V1125C2200 1111.19 2188.81 1100 2175 1100H1825ZM1615.18 1740.83C1606.83 1751.95 1609.11 1767.73 1620.27 1776.02C1706.55 1840 1811.68 1918.97 1900.08 1985.1C1911.1 1993.35 1926.7 1991.12 1934.97 1980.12C1964.94 1940.24 1994.92 1899.94 2024.89 1860.06C2033.21 1848.99 2030.99 1833.26 2019.89 1824.96C1931.48 1758.81 1826.35 1679.79 1740.11 1615.08C1729.02 1606.76 1713.28 1609.07 1705.03 1620.21C1675.08 1660.63 1645.13 1700.98 1615.18 1740.83ZM2020.1 575.051C2031.11 566.739 2033.27 551.089 2024.99 540.066C1994.98 500.144 1964.98 459.8 1934.97 419.878C1926.7 408.877 1911.1 406.654 1900.08 414.898C1811.61 481.091 1706.37 560.196 1620.05 624.961C1608.98 633.265 1606.77 648.97 1615.08 660.031C1645.06 699.91 1675.03 740.211 1705.01 780.09C1713.28 791.103 1728.91 793.319 1739.93 785.059C1826.28 720.377 1931.59 641.925 2020.1 575.051ZM400 900C290 900 200 990 200 1100V1300C200 1410 290 1500 400 1500H500V1850C500 1877.61 522.386 1900 550 1900H650C677.614 1900 700 1877.61 700 1850V1500H800L1224.28 1754.57C1257.6 1774.56 1300 1750.56 1300 1711.69V688.309C1300 649.445 1257.6 625.439 1224.28 645.435L800 900H400ZM1550 1200C1550 1067 1492 947 1400 865V1534C1492 1453 1550 1333 1550 1200Z" fill="#1D1E23"/></svg>