<svg viewBox="0 0 2400 2400" fill="none" xmlns="http://www.w3.org/2000/svg"><path d="M1760.630 519.583 C 1681.352 579.001,1614.584 631.171,1612.258 635.518 C 1609.932 639.864,1609.258 646.701,1610.762 650.710 C 1615.408 663.103,1707.498 783.450,1715.690 787.834 C 1719.942 790.110,1726.701 790.732,1730.710 789.218 C 1743.517 784.381,2023.436 572.528,2027.804 564.367 C 2034.061 552.674,2029.403 544.539,1977.212 476.000 C 1935.653 421.424,1928.490 413.853,1917.386 412.775 C 1906.328 411.702,1887.001 424.870,1760.630 519.583 M1020.000 769.001 L 806.000 898.000 582.000 900.024 L 358.000 902.049 334.000 911.592 C 265.979 938.641,218.214 993.050,204.420 1059.197 C 198.523 1087.474,198.523 1312.526,204.420 1340.803 C 220.053 1415.765,284.235 1479.947,359.197 1495.580 C 370.855 1498.011,407.305 1500.000,440.197 1500.000 L 500.000 1500.000 500.015 1681.000 C 500.029 1853.463,500.398 1862.604,507.838 1874.806 C 521.376 1897.009,532.424 1900.002,600.801 1899.985 C 654.442 1899.972,663.581 1899.006,674.806 1892.162 C 700.294 1876.621,700.000 1879.095,700.000 1680.199 L 700.000 1500.000 749.640 1500.000 L 799.281 1500.000 1016.061 1630.000 C 1135.291 1701.500,1236.702 1760.207,1241.421 1760.461 C 1256.747 1761.283,1265.798 1759.326,1276.935 1752.779 C 1301.320 1738.446,1300.000 1770.093,1300.000 1200.000 C 1300.000 628.435,1301.422 661.653,1276.318 646.824 C 1249.074 630.731,1250.542 630.031,1020.000 769.001 M1400.000 1200.255 L 1400.000 1533.750 1424.315 1509.875 C 1473.389 1461.688,1517.283 1383.181,1535.944 1310.220 C 1575.911 1153.948,1523.921 975.940,1408.649 874.380 L 1400.000 866.760 1400.000 1200.255 M1808.000 1108.000 C 1800.508 1115.492,1800.000 1121.333,1800.000 1200.000 C 1800.000 1278.667,1800.508 1284.508,1808.000 1292.000 C 1815.768 1299.768,1821.333 1300.000,2000.000 1300.000 C 2178.667 1300.000,2184.232 1299.768,2192.000 1292.000 C 2199.492 1284.508,2200.000 1278.667,2200.000 1200.000 C 2200.000 1121.333,2199.492 1115.492,2192.000 1108.000 C 2184.232 1100.232,2178.667 1100.000,2000.000 1100.000 C 1821.333 1100.000,1815.768 1100.232,1808.000 1108.000 M1705.207 1621.000 C 1693.890 1633.441,1618.050 1736.696,1612.197 1747.632 C 1608.338 1754.843,1608.643 1758.385,1613.799 1766.254 C 1620.202 1776.026,1896.097 1984.112,1909.439 1989.231 C 1913.366 1990.738,1920.058 1990.110,1924.310 1987.834 C 1932.020 1983.708,2024.510 1863.389,2028.727 1852.000 C 2029.949 1848.700,2029.463 1842.004,2027.648 1837.120 C 2025.766 1832.060,1962.299 1781.737,1880.087 1720.120 C 1726.807 1605.240,1722.015 1602.524,1705.207 1621.000 " fill="#1D1E23" stroke="none" fill-rule="evenodd"/></svg>