<svg viewBox="0 0 2400 2400" fill="none" xmlns="http://www.w3.org/2000/svg"><path d="M1902.000 418.296 C 1886.191 426.527,1840.031 459.889,1740.000 535.384 C 1635.557 614.209,1613.215 632.424,1610.836 640.691 C 1608.432 649.044,1616.859 662.973,1653.730 711.586 C 1695.127 766.166,1711.874 785.592,1720.302 788.808 C 1725.364 790.740,1734.265 787.087,1748.830 777.100 C 1794.535 745.760,2004.290 585.974,2022.883 568.334 C 2034.927 556.907,2031.500 548.987,1990.780 494.128 C 1954.368 445.074,1925.221 411.987,1918.453 412.025 C 1916.004 412.038,1908.600 414.861,1902.000 418.296 M1207.036 659.378 C 1186.666 670.036,1087.694 728.334,987.097 788.929 L 804.195 899.102 579.097 900.601 L 354.000 902.101 319.203 919.371 C 265.360 946.095,232.643 981.019,211.817 1034.000 C 202.778 1056.997,202.319 1063.131,200.846 1180.792 C 199.911 1255.497,200.968 1314.239,203.543 1330.792 C 213.076 1392.056,255.978 1449.814,312.568 1477.573 C 350.576 1496.216,372.504 1500.000,442.546 1500.000 L 500.000 1500.000 500.226 1677.000 C 500.469 1867.819,501.149 1874.681,521.283 1889.625 C 531.350 1897.097,539.144 1898.145,593.584 1899.346 C 661.691 1900.848,677.761 1897.235,690.689 1877.517 C 697.453 1867.199,698.091 1852.672,699.222 1683.183 L 700.443 1500.000 749.934 1500.000 L 799.425 1500.000 954.712 1593.227 C 1040.121 1644.502,1139.223 1703.242,1174.940 1723.762 C 1234.535 1757.999,1241.214 1760.891,1256.092 1758.895 C 1281.360 1755.506,1290.987 1747.082,1294.744 1725.076 C 1298.971 1700.312,1299.009 699.903,1294.784 675.193 C 1292.168 659.895,1289.094 654.856,1278.312 648.193 C 1258.887 636.187,1248.134 637.875,1207.036 659.378 M1400.000 1199.986 L 1400.000 1533.699 1420.272 1513.850 C 1473.253 1461.972,1515.657 1386.318,1536.717 1306.098 C 1548.381 1261.667,1551.176 1175.183,1542.537 1126.000 C 1526.003 1031.864,1483.878 948.535,1422.293 888.137 L 1400.000 866.273 1400.000 1199.986 M1823.044 1102.765 C 1801.902 1106.158,1800.000 1114.220,1800.000 1200.447 C 1800.000 1271.942,1800.697 1279.975,1807.647 1288.557 L 1815.293 1298.000 2000.000 1298.000 L 2184.707 1298.000 2192.353 1288.557 C 2199.306 1279.971,2200.000 1271.935,2200.000 1200.000 C 2200.000 1128.079,2199.305 1120.028,2192.357 1111.443 L 2184.714 1102.000 2009.357 1101.503 C 1912.911 1101.230,1829.070 1101.797,1823.044 1102.765 M1698.811 1629.000 C 1680.818 1651.287,1632.228 1717.497,1618.284 1738.728 C 1610.914 1749.949,1608.404 1757.432,1610.658 1761.461 C 1614.981 1769.185,1659.111 1803.994,1776.000 1891.880 C 1899.285 1984.575,1910.676 1992.269,1919.505 1988.808 C 1935.306 1982.615,2028.000 1860.661,2028.000 1846.065 C 2028.000 1833.745,2008.760 1817.509,1873.478 1715.667 C 1770.279 1637.977,1731.696 1612.000,1719.503 1612.000 C 1715.671 1612.000,1706.359 1619.650,1698.811 1629.000 " fill="#1D1E23" stroke="none" fill-rule="evenodd"/></svg>