<svg viewBox="0 0 2400 2400" fill="none" xmlns="http://www.w3.org/2000/svg"><path d="M1874.882 437.300 C 1778.591 502.586,1618.036 627.283,1614.034 639.892 C 1610.671 650.487,1619.237 665.144,1662.351 722.565 C 1696.089 767.499,1716.047 788.000,1726.054 788.000 C 1733.814 788.000,1773.995 759.903,1868.000 688.740 C 1997.761 590.511,2027.685 565.172,2027.911 553.335 C 2028.177 539.392,1929.162 412.000,1918.059 412.000 C 1914.835 412.000,1895.406 423.385,1874.882 437.300 M1211.319 659.577 C 1172.615 679.371,1109.546 716.194,940.624 817.625 L 805.642 898.677 578.483 901.238 L 351.325 903.800 319.498 920.758 C 262.593 951.078,227.946 989.439,210.891 1041.007 C 203.615 1063.006,202.422 1078.475,200.934 1170.126 C 198.078 1346.005,205.941 1381.440,260.000 1436.312 C 308.480 1485.521,334.983 1495.111,432.490 1498.722 L 498.980 1501.185 500.750 1681.592 C 502.684 1878.775,502.874 1880.359,526.036 1891.875 C 543.140 1900.379,656.860 1900.379,673.964 1891.875 C 696.933 1880.455,697.132 1878.789,699.205 1681.092 L 701.103 1500.000 750.275 1500.000 L 799.446 1500.000 926.723 1576.458 C 1093.168 1676.446,1187.975 1731.920,1219.698 1747.886 C 1249.388 1762.829,1267.339 1762.479,1283.170 1746.648 L 1292.771 1737.047 1296.802 1539.524 C 1299.019 1430.886,1299.828 1189.900,1298.600 1004.000 L 1296.366 666.000 1284.120 655.000 C 1266.589 639.253,1248.884 640.366,1211.319 659.577 M1400.190 1199.490 C 1400.012 1511.280,1400.437 1532.622,1406.717 1527.490 C 1410.412 1524.470,1427.150 1505.477,1443.914 1485.283 C 1478.625 1443.468,1509.244 1388.054,1528.616 1331.991 C 1541.516 1294.657,1541.768 1292.573,1543.215 1211.428 C 1544.624 1132.439,1544.234 1127.192,1534.234 1090.484 C 1512.887 1012.127,1478.314 948.966,1426.682 894.000 L 1400.380 866.000 1400.190 1199.490 M1813.404 1107.810 C 1805.652 1111.087,1804.518 1115.692,1801.854 1154.722 C 1797.815 1213.893,1802.014 1283.728,1810.096 1291.810 C 1815.503 1297.217,1839.523 1298.000,2000.000 1298.000 C 2171.045 1298.000,2184.207 1297.507,2190.857 1290.856 C 2197.259 1284.453,2198.000 1275.032,2198.000 1200.055 C 2198.000 1136.777,2196.734 1115.132,2192.803 1111.199 C 2188.719 1107.113,2148.486 1105.805,2004.803 1105.088 C 1901.875 1104.575,1818.244 1105.764,1813.404 1107.810 M1701.991 1627.000 C 1694.232 1635.250,1670.786 1665.400,1649.887 1694.000 C 1622.752 1731.136,1612.192 1748.785,1612.945 1755.742 C 1614.225 1767.559,1642.199 1790.730,1784.962 1898.227 C 1904.257 1988.053,1908.979 1990.969,1923.003 1983.463 C 1940.643 1974.023,2019.321 1871.438,2025.728 1849.526 C 2029.271 1837.408,1998.938 1810.573,1886.931 1726.735 C 1787.873 1652.590,1729.201 1612.000,1721.084 1612.000 C 1718.341 1612.000,1709.749 1618.750,1701.991 1627.000 " fill="#1D1E23" stroke="none" fill-rule="evenodd"/></svg>