<svg viewBox="0 0 2400 2400" fill="none" xmlns="http://www.w3.org/2000/svg"><path d="M1867.786 443.000 C 1784.250 499.517,1648.938 603.371,1622.735 631.078 C 1611.927 642.508,1611.704 643.537,1617.222 656.495 C 1624.185 672.848,1678.966 746.605,1702.010 770.656 C 1711.150 780.195,1721.409 788.000,1724.807 788.000 C 1737.624 788.000,1957.309 625.065,2005.471 579.838 C 2025.357 561.164,2028.610 556.223,2026.140 548.440 C 2019.954 528.951,1926.761 412.000,1917.417 412.000 C 1915.321 412.000,1892.986 425.950,1867.786 443.000 M1213.788 659.410 C 1179.092 676.229,1077.488 735.272,910.734 835.517 L 803.468 900.000 728.734 900.006 C 687.630 900.009,585.081 901.202,500.846 902.658 L 347.692 905.304 315.346 923.573 C 244.198 963.756,211.008 1012.644,203.329 1088.571 C 197.679 1144.438,201.411 1318.830,208.883 1348.084 C 217.835 1383.133,231.994 1407.154,260.927 1436.379 C 309.055 1484.992,336.257 1494.643,436.528 1498.681 L 499.055 1501.199 500.830 1679.600 C 502.783 1876.010,503.648 1883.108,526.807 1892.675 C 533.559 1895.464,562.601 1897.365,600.000 1897.466 C 672.658 1897.661,684.569 1893.984,692.214 1868.994 C 695.216 1859.182,697.528 1792.831,698.903 1677.000 L 701.005 1500.000 750.222 1500.000 L 799.438 1500.000 936.719 1582.517 C 1125.108 1695.754,1222.261 1751.223,1241.081 1756.291 C 1258.896 1761.088,1274.468 1756.742,1286.297 1743.672 C 1292.392 1736.937,1293.533 1719.850,1296.358 1593.038 C 1300.013 1428.985,1300.065 910.288,1296.442 762.149 L 1294.000 662.298 1280.408 653.149 C 1261.675 640.539,1250.563 641.583,1213.788 659.410 M1400.434 1190.000 C 1400.504 1368.200,1401.909 1517.434,1403.555 1521.632 C 1406.118 1528.168,1410.140 1525.009,1431.558 1499.632 C 1477.151 1445.613,1507.608 1392.267,1530.688 1326.000 C 1541.619 1294.617,1541.835 1292.227,1541.917 1202.000 L 1542.000 1110.000 1526.785 1066.000 C 1501.696 993.444,1470.621 941.381,1420.035 887.152 L 1400.305 866.000 1400.434 1190.000 M1839.034 1106.658 C 1809.353 1108.266,1807.945 1108.785,1805.095 1119.168 C 1801.145 1133.558,1801.156 1258.033,1805.109 1276.614 C 1806.819 1284.651,1811.319 1292.487,1815.109 1294.026 C 1825.658 1298.310,2066.859 1301.482,2128.780 1298.151 C 2158.930 1296.529,2186.377 1293.135,2189.826 1290.602 C 2203.196 1280.783,2202.879 1115.496,2189.481 1110.354 C 2182.214 1107.566,1880.937 1104.388,1839.034 1106.658 M1700.808 1629.587 C 1678.498 1653.790,1630.418 1719.114,1619.509 1740.044 L 1610.519 1757.291 1634.344 1779.646 C 1671.095 1814.128,1873.523 1966.889,1902.137 1981.734 C 1912.155 1986.931,1914.615 1986.887,1923.722 1981.346 C 1948.233 1966.433,2023.562 1865.489,2023.837 1847.187 C 2023.966 1838.638,2017.930 1831.145,1995.000 1811.390 C 1935.480 1760.112,1731.994 1612.000,1721.064 1612.000 C 1718.839 1612.000,1709.724 1619.914,1700.808 1629.587 " fill="#1D1E23" stroke="none" fill-rule="evenodd"/></svg>