<svg viewBox="0 0 2400 2400" fill="none" xmlns="http://www.w3.org/2000/svg"><path d="M1427.890 166.543 C 1411.102 177.650,1211.842 377.298,1205.381 389.486 C 1192.598 413.600,1196.153 418.358,1317.176 539.107 C 1428.287 649.968,1430.617 652.000,1446.616 652.000 C 1458.887 652.000,1465.513 649.396,1473.455 641.455 L 1484.000 630.909 1484.000 555.605 L 1484.000 480.301 1511.000 482.464 C 1628.163 491.849,1723.146 534.670,1802.238 613.762 C 1888.302 699.826,1933.045 807.692,1933.415 930.000 C 1933.590 987.787,1927.650 1024.432,1909.230 1079.220 C 1893.788 1125.150,1893.827 1141.656,1909.431 1164.812 C 1940.447 1210.836,2003.724 1210.582,2034.908 1164.309 C 2045.655 1148.361,2064.432 1091.539,2074.695 1043.904 C 2085.161 995.327,2085.070 864.356,2074.535 816.000 C 2015.068 543.032,1796.092 351.250,1523.487 333.385 L 1484.000 330.797 1484.000 255.754 L 1484.000 180.711 1471.693 170.356 C 1457.570 158.471,1442.123 157.127,1427.890 166.543 M369.467 305.643 C 346.528 312.909,325.559 329.925,312.802 351.626 C 302.872 368.517,302.044 373.229,302.542 410.000 C 304.287 538.949,347.637 749.219,404.122 902.723 C 465.773 1070.267,558.382 1241.480,661.005 1377.642 C 762.391 1512.162,897.029 1645.956,1030.531 1744.853 C 1217.693 1883.499,1441.592 1990.013,1666.731 2047.510 C 1778.927 2076.163,1910.054 2096.431,1990.000 2097.477 C 2027.001 2097.961,2031.415 2097.168,2048.864 2086.911 C 2059.240 2080.812,2072.255 2069.888,2077.786 2062.636 C 2100.041 2033.458,2100.000 2033.966,2100.000 1789.847 L 2100.000 1564.699 2086.950 1539.490 C 2064.613 1496.341,2067.136 1497.238,1839.451 1451.527 C 1731.168 1429.787,1636.914 1412.000,1629.999 1412.000 C 1623.083 1412.000,1608.554 1414.965,1597.713 1418.589 C 1580.292 1424.412,1562.632 1440.457,1445.816 1556.589 C 1373.115 1628.865,1312.081 1688.000,1310.184 1688.000 C 1308.288 1688.000,1288.571 1676.900,1266.368 1663.334 C 1053.988 1533.564,859.863 1337.760,730.439 1122.771 L 711.639 1091.542 840.820 959.548 C 979.424 817.926,987.809 807.127,988.000 770.000 C 988.057 759.000,970.629 663.833,949.272 558.517 C 904.840 339.422,903.935 336.831,864.000 314.372 L 842.000 302.000 614.000 301.203 C 435.397 300.579,382.418 301.541,369.467 305.643 " fill="#1D1E23" stroke="none" fill-rule="evenodd"/></svg>