<svg viewBox="0 0 2400 2400" fill="none" xmlns="http://www.w3.org/2000/svg"><path d="M1425.600 171.500 C 1400.191 190.230,1205.466 389.210,1203.024 398.939 C 1200.037 410.844,1211.935 426.756,1273.027 492.555 C 1363.758 590.278,1433.224 652.000,1452.476 652.000 C 1456.277 652.000,1464.924 647.340,1471.693 641.644 L 1484.000 631.289 1484.061 560.644 C 1484.095 521.790,1485.554 487.746,1487.303 484.991 C 1494.363 473.872,1620.930 502.679,1673.733 527.423 C 1794.952 584.228,1885.057 692.523,1917.166 820.000 C 1924.390 848.679,1925.727 865.581,1925.709 928.000 C 1925.689 996.072,1924.658 1006.830,1912.844 1062.290 C 1905.780 1095.449,1900.000 1129.061,1900.000 1136.983 C 1900.000 1164.317,1939.557 1196.474,1973.817 1196.992 C 2010.263 1197.543,2033.935 1171.276,2056.107 1105.682 C 2075.614 1047.974,2080.931 1010.347,2080.931 930.000 C 2080.931 847.149,2075.358 809.913,2053.606 747.423 C 2012.320 628.810,1937.388 523.698,1844.227 453.711 C 1807.126 425.839,1733.810 386.470,1689.841 370.808 C 1651.107 357.012,1578.533 341.344,1527.000 335.652 L 1484.000 330.903 1484.000 255.596 L 1484.000 180.288 1469.071 170.144 C 1450.083 157.241,1444.716 157.408,1425.600 171.500 M438.000 307.807 C 374.220 309.848,364.117 311.112,349.503 318.880 C 328.265 330.169,313.395 348.027,307.616 369.182 C 301.830 390.364,305.185 482.440,313.767 538.000 C 366.303 878.104,495.630 1171.473,709.604 1435.926 C 755.282 1492.380,887.762 1627.237,942.000 1672.492 C 1101.120 1805.258,1271.323 1906.098,1457.154 1977.705 C 1639.929 2048.134,1856.349 2096.000,1992.015 2096.000 C 2030.689 2096.000,2047.708 2089.781,2070.739 2067.233 C 2098.004 2040.542,2098.000 2040.580,2098.000 1784.000 L 2098.000 1558.000 2089.037 1541.232 C 2068.401 1502.625,2043.487 1493.897,1830.000 1450.478 C 1725.796 1429.285,1662.558 1420.000,1622.426 1420.000 C 1593.737 1420.000,1592.718 1420.352,1573.563 1436.899 C 1545.688 1460.977,1490.732 1512.753,1393.086 1606.930 L 1308.172 1688.828 1267.378 1663.615 C 1068.986 1541.002,895.785 1369.052,749.056 1149.036 L 711.067 1092.071 792.224 1009.036 C 893.776 905.133,957.831 835.237,972.595 812.217 C 982.217 797.214,984.000 790.263,984.000 767.763 C 984.000 738.128,968.744 649.141,941.868 522.000 C 908.358 363.483,898.961 338.434,864.771 316.495 L 845.300 304.000 677.650 304.751 C 585.442 305.164,477.600 306.539,438.000 307.807 " fill="#1D1E23" stroke="none" fill-rule="evenodd"/></svg>