<svg viewBox="0 0 2400 2400" fill="none" xmlns="http://www.w3.org/2000/svg"><path d="M1405.025 187.404 C 1354.665 231.886,1204.301 387.407,1201.723 397.679 C 1200.343 403.177,1202.232 412.713,1206.233 420.450 C 1213.855 435.190,1376.282 601.547,1413.700 632.937 C 1434.813 650.649,1438.935 652.570,1451.461 650.538 C 1459.194 649.283,1469.229 644.553,1473.761 640.027 C 1481.403 632.394,1482.090 626.295,1483.242 555.898 C 1484.365 487.343,1485.149 480.000,1491.347 480.000 C 1509.089 480.000,1569.046 489.196,1596.098 496.066 C 1732.587 530.729,1848.071 631.678,1900.217 761.906 C 1940.174 861.694,1943.788 958.328,1911.771 1070.858 C 1896.676 1123.911,1895.936 1128.857,1900.701 1144.762 C 1911.127 1179.563,1949.317 1203.860,1984.301 1197.949 C 2028.082 1190.552,2051.486 1149.685,2074.756 1040.000 C 2084.791 992.700,2084.479 873.864,2074.179 820.000 C 2060.588 748.920,2023.473 658.439,1983.601 599.181 C 1879.515 444.487,1710.403 346.990,1523.084 333.681 L 1484.169 330.916 1483.084 254.613 L 1482.000 178.310 1468.408 169.155 C 1447.188 154.861,1439.297 157.133,1405.025 187.404 M316.000 303.765 C 271.157 305.769,264.115 307.108,247.719 316.747 C 225.698 329.693,208.067 353.858,203.768 376.986 C 199.947 397.546,205.565 488.575,214.276 547.238 C 241.170 728.363,300.107 917.060,381.404 1082.335 C 425.811 1172.612,443.805 1203.834,502.238 1292.000 C 756.311 1675.352,1143.818 1945.830,1594.000 2054.047 C 1694.957 2078.315,1790.623 2093.547,1872.000 2098.311 C 1925.847 2101.462,1937.030 2098.277,1966.066 2071.513 C 2000.006 2040.227,1997.847 2056.924,1999.222 1815.102 C 1999.944 1688.242,1998.827 1588.531,1996.496 1571.712 C 1989.695 1522.635,1971.538 1504.790,1911.409 1488.084 C 1851.753 1471.509,1578.168 1419.345,1539.070 1417.090 C 1502.032 1414.954,1499.381 1415.347,1484.527 1425.176 C 1475.940 1430.859,1410.932 1492.708,1340.066 1562.618 L 1211.217 1689.727 1194.609 1680.226 C 1161.304 1661.173,1085.415 1609.861,1040.268 1575.870 C 881.839 1456.591,749.743 1311.213,636.755 1131.786 L 611.510 1091.696 708.319 992.848 C 874.960 822.697,888.000 806.696,888.000 772.362 C 888.000 752.969,867.017 638.083,840.063 509.901 C 807.236 353.790,801.999 339.250,771.563 319.720 C 756.591 310.112,744.846 306.245,722.913 303.703 C 691.623 300.076,397.517 300.120,316.000 303.765 " fill="#1D1E23" stroke="none" fill-rule="evenodd"/></svg>