<svg viewBox="0 0 2400 2400" fill="none" xmlns="http://www.w3.org/2000/svg"><path d="M1421.359 175.533 C 1395.085 196.614,1210.307 383.658,1204.228 395.327 C 1197.477 408.284,1206.339 420.686,1274.775 494.062 C 1363.032 588.689,1432.559 652.000,1448.220 652.000 C 1452.346 652.000,1462.084 646.414,1469.861 639.586 L 1484.000 627.171 1484.028 582.586 C 1484.044 558.064,1485.204 525.850,1486.607 511.000 L 1489.157 484.000 1511.578 484.036 C 1541.008 484.084,1611.124 500.179,1650.379 515.897 C 1752.921 556.957,1840.865 641.055,1890.027 745.066 C 1934.556 839.273,1941.449 931.499,1913.266 1056.000 C 1897.926 1123.763,1897.173 1128.879,1900.599 1142.000 C 1904.244 1155.959,1928.002 1181.716,1945.716 1190.914 C 1962.298 1199.524,1987.706 1198.989,2003.434 1189.698 C 2032.097 1172.767,2057.074 1119.716,2072.973 1042.000 C 2084.953 983.439,2084.686 878.209,2072.411 820.000 C 2026.992 604.632,1883.776 440.448,1678.406 368.309 C 1638.045 354.131,1561.059 337.873,1515.000 333.801 L 1484.000 331.060 1484.000 255.674 L 1484.000 180.288 1469.071 170.144 C 1460.861 164.565,1451.122 160.000,1447.431 160.000 C 1443.739 160.000,1432.007 166.990,1421.359 175.533 M271.688 307.561 C 255.438 310.917,228.914 330.802,213.192 351.415 L 202.570 365.341 206.984 451.671 C 213.424 577.637,237.353 694.648,288.137 848.497 C 354.786 1050.412,434.179 1203.586,557.403 1368.000 C 811.392 1706.888,1156.239 1938.999,1564.195 2045.654 C 1667.058 2072.546,1785.789 2092.855,1872.577 2098.402 C 1911.369 2100.882,1916.756 2100.348,1933.186 2092.394 C 1954.260 2082.192,1985.989 2049.789,1994.239 2030.044 C 1998.937 2018.802,1999.944 1987.624,1999.695 1861.128 C 1999.264 1641.468,1995.678 1558.213,1985.777 1537.985 C 1970.594 1506.965,1938.253 1493.761,1809.765 1466.127 C 1706.952 1444.015,1583.201 1423.915,1533.284 1421.221 L 1488.568 1418.807 1388.131 1516.403 C 1332.891 1570.081,1269.767 1630.838,1247.854 1651.418 L 1208.014 1688.837 1178.270 1670.298 C 1132.030 1641.478,1038.341 1574.186,992.000 1536.510 C 939.513 1493.836,846.554 1403.180,799.075 1348.362 C 756.671 1299.404,696.231 1218.991,646.452 1145.305 L 610.905 1092.685 724.148 975.342 C 849.945 844.991,882.299 807.135,886.347 785.555 C 889.648 767.961,882.062 719.416,853.912 578.000 C 818.868 401.954,803.941 351.949,779.567 328.944 C 755.711 306.427,757.225 306.560,512.000 305.542 C 387.700 305.027,279.560 305.935,271.688 307.561 " fill="#1D1E23" stroke="none" fill-rule="evenodd"/></svg>