<svg viewBox="0 0 2400 2400" fill="none" xmlns="http://www.w3.org/2000/svg"><path d="M1432.601 164.272 C 1422.501 168.318,1239.848 349.731,1214.773 380.621 C 1202.479 395.766,1200.166 401.267,1202.380 410.090 C 1205.490 422.479,1276.985 500.486,1358.547 580.479 C 1434.822 655.288,1447.399 662.087,1471.693 641.644 L 1484.000 631.289 1484.000 555.399 L 1484.000 479.510 1503.000 482.083 C 1620.012 497.932,1682.480 520.561,1751.854 572.234 C 1904.019 685.572,1963.612 866.312,1913.337 1062.000 C 1893.193 1140.407,1893.685 1148.744,1920.012 1175.071 C 1950.041 1205.100,1987.167 1206.510,2018.758 1178.820 C 2058.475 1144.006,2087.696 1016.889,2082.392 902.000 C 2079.305 835.143,2070.214 788.023,2049.976 734.000 C 1981.840 552.110,1852.211 423.674,1678.577 366.022 C 1627.332 349.007,1590.344 341.324,1531.000 335.369 L 1484.000 330.652 1484.000 255.470 L 1484.000 180.288 1469.071 170.144 C 1453.088 159.283,1447.358 158.361,1432.601 164.272 M363.597 310.226 C 339.664 317.597,309.749 348.610,305.687 370.261 C 301.260 393.862,306.896 496.656,315.652 552.000 C 358.527 822.987,454.026 1069.905,601.086 1290.000 C 774.828 1550.029,1002.100 1754.370,1276.942 1897.665 C 1489.589 2008.533,1765.505 2087.670,1964.119 2094.757 C 2038.452 2097.410,2042.132 2096.524,2069.527 2069.383 C 2101.164 2038.039,2099.813 2050.333,2099.912 1792.867 L 2100.000 1563.734 2090.373 1544.867 C 2069.511 1503.981,2056.104 1497.834,1928.000 1470.421 C 1744.819 1431.222,1675.339 1418.861,1635.714 1418.423 L 1597.429 1418.000 1575.714 1434.480 C 1563.771 1443.544,1499.219 1504.294,1432.265 1569.480 C 1365.310 1634.666,1309.510 1687.989,1308.265 1687.977 C 1307.019 1687.964,1287.100 1676.124,1264.000 1661.667 C 1056.406 1531.744,880.067 1355.789,744.063 1142.864 L 711.401 1091.728 802.395 998.864 C 918.459 880.415,969.492 823.707,980.516 800.935 C 988.839 783.740,989.041 780.977,984.485 746.411 C 978.808 703.343,937.082 492.926,919.886 420.650 C 903.558 352.025,894.026 333.342,866.975 316.948 L 845.611 304.000 613.806 304.279 C 425.711 304.505,378.530 305.626,363.597 310.226 " fill="#1D1E23" stroke="none" fill-rule="evenodd"/></svg>