<svg viewBox="0 0 2400 2400" fill="none" xmlns="http://www.w3.org/2000/svg"><path d="M1432.057 164.473 C 1417.255 170.378,1204.950 384.823,1201.908 396.942 C 1200.318 403.278,1201.955 412.178,1206.233 420.450 C 1213.798 435.080,1376.149 601.433,1413.208 632.528 C 1440.279 655.242,1453.149 657.248,1471.693 641.644 L 1484.000 631.289 1484.000 555.507 L 1484.000 479.724 1505.000 482.043 C 1588.301 491.242,1654.951 510.666,1705.405 540.449 C 1824.865 610.964,1903.450 721.332,1925.912 850.136 C 1939.110 925.818,1932.930 1001.132,1906.112 1091.436 C 1892.896 1135.937,1895.131 1150.350,1919.161 1175.585 C 1956.754 1215.064,2016.797 1202.908,2041.434 1150.830 C 2058.236 1115.313,2075.673 1046.209,2080.436 996.262 C 2085.567 942.456,2082.315 855.472,2073.576 812.809 C 2059.820 745.645,2024.676 662.087,1984.898 601.968 C 1878.752 441.540,1717.094 348.356,1519.084 333.459 L 1484.169 330.833 1483.084 254.572 L 1482.000 178.310 1468.408 169.155 C 1453.653 159.216,1447.291 158.397,1432.057 164.473 M402.000 303.393 C 363.050 306.238,348.777 311.838,328.308 332.308 C 305.753 354.862,302.631 365.239,303.292 415.461 C 304.972 543.236,349.805 756.947,407.037 910.000 C 584.459 1384.468,940.057 1759.312,1398.864 1955.508 C 1554.911 2022.237,1728.153 2069.800,1888.000 2089.799 C 1952.427 2097.859,2026.975 2098.937,2040.184 2091.999 C 2061.345 2080.883,2079.788 2062.979,2088.685 2044.913 L 2098.000 2026.000 2099.235 1795.331 L 2100.470 1564.661 2089.912 1543.825 C 2075.815 1516.006,2065.798 1506.744,2038.946 1496.697 C 2014.591 1487.585,1884.410 1459.602,1728.544 1429.975 C 1620.700 1409.476,1611.995 1409.386,1581.909 1428.467 C 1571.615 1434.994,1510.725 1492.010,1446.597 1555.168 C 1382.469 1618.325,1325.169 1674.252,1319.264 1679.450 L 1308.527 1688.899 1283.264 1673.706 C 1069.272 1545.011,873.987 1352.997,743.548 1143.030 L 711.170 1090.912 780.990 1020.456 C 904.174 896.150,966.018 829.306,977.699 807.844 C 987.806 789.273,988.803 784.266,986.729 762.484 C 981.889 711.665,922.489 418.549,907.630 372.164 C 896.893 338.645,888.897 327.937,864.820 314.832 L 845.051 304.073 641.525 302.418 C 529.586 301.508,421.800 301.947,402.000 303.393 " fill="#1D1E23" stroke="none" fill-rule="evenodd"/></svg>