<svg viewBox="0 0 2400 2400" fill="none" xmlns="http://www.w3.org/2000/svg"><path d="M1429.822 167.456 C 1412.860 177.800,1222.929 367.746,1209.975 387.320 C 1200.482 401.666,1199.936 404.358,1204.694 413.375 C 1221.249 444.751,1405.954 632.423,1432.830 645.177 C 1452.055 654.299,1457.210 653.831,1471.693 641.644 L 1484.000 631.289 1484.000 555.644 C 1484.000 514.040,1485.350 480.007,1487.000 480.016 C 1497.487 480.072,1571.561 493.551,1599.732 500.529 C 1714.711 529.010,1819.631 610.543,1877.683 716.525 C 1934.092 819.508,1944.034 941.219,1907.756 1084.666 C 1903.490 1101.533,1900.000 1123.840,1900.000 1134.238 C 1900.000 1151.459,1901.693 1154.836,1919.007 1172.150 C 1957.670 1210.812,2005.221 1205.589,2034.327 1159.482 C 2047.834 1138.086,2066.280 1081.500,2074.632 1035.844 C 2084.126 983.943,2084.115 876.006,2074.610 824.000 C 2056.522 725.038,2000.320 610.990,1931.697 534.000 C 1825.669 415.042,1688.997 349.464,1515.000 334.062 L 1484.000 331.317 1484.000 255.803 L 1484.000 180.288 1469.071 170.144 C 1451.271 158.049,1445.857 157.678,1429.822 167.456 M395.791 307.690 C 352.117 310.639,328.118 324.652,311.611 356.841 C 292.199 394.693,309.467 556.318,350.482 720.680 C 418.810 994.488,543.703 1238.751,727.477 1458.000 C 771.301 1510.282,878.755 1618.540,932.147 1664.200 C 1062.173 1775.396,1211.059 1870.450,1360.460 1937.652 C 1560.296 2027.540,1784.377 2086.132,1960.643 2094.585 C 2030.619 2097.941,2040.089 2095.959,2065.030 2072.733 C 2099.798 2040.355,2097.842 2056.241,2099.209 1795.249 C 2100.412 1565.529,2100.379 1564.422,2091.768 1547.249 C 2069.364 1502.565,2058.775 1498.241,1878.228 1460.045 C 1740.263 1430.858,1673.058 1420.000,1630.365 1420.000 L 1593.221 1420.000 1563.610 1445.431 C 1538.017 1467.412,1443.838 1557.183,1339.311 1659.232 L 1308.622 1689.194 1271.311 1666.098 C 1060.486 1535.595,886.811 1362.416,740.598 1136.900 L 711.358 1091.800 798.329 1002.900 C 897.251 901.784,954.256 839.712,973.056 812.639 C 984.879 795.614,985.945 791.575,985.362 766.000 C 984.383 723.023,927.063 436.009,907.475 376.000 C 896.924 343.676,885.393 327.921,862.444 314.472 L 844.575 304.000 637.288 304.690 C 523.279 305.069,414.606 306.419,395.791 307.690 " fill="#1D1E23" stroke="none" fill-rule="evenodd"/></svg>