<svg viewBox="0 0 2400 2400" fill="none" xmlns="http://www.w3.org/2000/svg"><g><path d="M1463.14 1440 1211.14 1690C961.136 1547 754.136 1340 611.136 1090L861.136 838C884.136 814 894.136 781 888.136 748L813.136 380C804.136 334 763.136 300 715.136 300H300.136C244.136 300 197.136 347 200.136 403 217.136 692 305.136 963 443.136 1200 601.136 1473 828.136 1699 1100.14 1857 1337.14 1994 1608.14 2083 1897.14 2100 1953.14 2103 2000.14 2056 2000.14 2000V1585C2000.14 1537 1966.14 1496 1920.14 1487L1553.14 1414C1520.14 1407 1486.14 1417 1463.14 1440ZM1485.05 196.966V331.216C1816.55 331.216 2085.05 599.716 2085.05 931.216 2085.05 1009.22 2070.05 1084.22 2042.3 1152.47 2022.05 1202.72 1957.55 1216.22 1919.3 1177.97 1899.05 1157.72 1890.8 1126.97 1902.05 1099.97 1923.8 1048.22 1935.05 990.466 1935.05 931.216 1935.05 682.966 1733.3 481.216 1485.05 481.216V615.466C1485.05 649.216 1444.55 665.716 1420.55 642.466L1211.3 433.216C1196.3 418.216 1196.3 394.966 1211.3 379.966L1421.3 170.716C1444.55 146.716 1485.05 163.216 1485.05 196.966Z" fill="#1D1E23"/></g></svg>