<svg viewBox="0 0 2400 2400" fill="none" xmlns="http://www.w3.org/2000/svg"><g><path d="M1485.05 331.216V196.966C1485.05 163.216 1444.55 146.716 1421.3 170.716L1211.3 379.966C1196.3 394.966 1196.3 418.216 1211.3 433.216L1420.55 642.466C1444.55 665.716 1485.05 649.216 1485.05 615.466V481.216C1733.3 481.216 1935.05 682.966 1935.05 931.216 1935.05 990.466 1923.8 1048.22 1902.05 1099.97 1890.8 1126.97 1899.05 1157.72 1919.3 1177.97 1957.55 1216.22 2022.05 1202.72 2042.3 1152.47 2070.05 1084.22 2085.05 1009.22 2085.05 931.216 2085.05 599.716 1816.55 331.216 1485.05 331.216ZM1311.14 1690 1563.14 1440C1586.14 1417 1620.14 1407 1653.14 1414L2020.14 1487C2066.14 1496 2100.14 1537 2100.14 1585V2000C2100.14 2056 2053.14 2103 1997.14 2100 1708.14 2083 1437.14 1994 1200.14 1857 928.136 1699 701.136 1473 543.136 1200 405.136 963 317.136 692 300.136 403 297.136 347 344.136 300 400.136 300H815.136C863.136 300 904.136 334 913.136 380L988.136 748C994.136 781 984.136 814 961.136 838L711.136 1090C854.136 1340 1061.14 1547 1311.14 1690Z" fill="#1D1E23"/></g></svg>