<svg viewBox="0 0 2400 2400" fill="none" xmlns="http://www.w3.org/2000/svg"><path d="M1433.514 648.342 C 1412.828 654.340,1308.681 755.760,972.215 1097.561 L 654.429 1420.386 520.215 1286.613 C 446.397 1213.037,382.068 1150.851,377.263 1148.420 C 364.467 1141.946,305.870 1142.828,292.594 1149.693 C 273.055 1159.797,248.968 1189.784,242.268 1212.346 C 233.868 1240.630,234.104 1242.928,248.318 1271.373 C 258.246 1291.240,279.864 1315.620,359.724 1397.012 C 541.600 1582.377,608.103 1645.738,626.464 1651.148 C 650.029 1658.093,667.065 1657.166,686.208 1647.899 C 710.419 1636.179,837.152 1513.259,1095.470 1250.952 C 1425.127 916.204,1544.316 791.961,1551.100 776.000 C 1566.599 739.538,1551.054 686.742,1518.156 664.108 C 1492.287 646.309,1460.770 640.439,1433.514 648.342 M2033.514 648.342 C 2012.821 654.342,1908.607 755.814,1572.721 1097.009 L 1255.441 1419.303 1237.134 1411.205 C 1210.460 1399.406,1182.967 1402.500,1158.527 1420.051 C 1113.508 1452.381,1096.164 1509.756,1118.402 1552.785 C 1122.158 1560.053,1142.606 1583.377,1163.840 1604.615 C 1196.780 1637.560,1205.606 1644.167,1223.950 1649.615 C 1252.337 1658.045,1266.027 1657.669,1286.196 1647.905 C 1313.100 1634.881,1435.297 1515.854,1732.270 1213.403 C 2091.546 847.500,2143.792 792.931,2151.049 776.000 C 2166.631 739.653,2151.082 686.761,2118.156 664.108 C 2092.287 646.309,2060.770 640.439,2033.514 648.342 " fill="#1D1E23" stroke="none" fill-rule="evenodd"/></svg>