<svg viewBox="0 0 2400 2400" fill="none" xmlns="http://www.w3.org/2000/svg"><path d="M441.741 203.865 L 261.482 206.000 240.384 222.000 C 205.921 248.136,206.657 244.861,203.522 386.000 C 199.155 582.571,199.488 1606.593,203.928 1633.705 C 208.967 1664.473,212.449 1667.732,230.117 1658.217 C 237.803 1654.078,323.774 1572.010,421.164 1475.843 L 598.237 1300.995 1110.118 1298.914 C 1487.410 1297.380,1626.063 1295.589,1637.454 1292.103 C 1656.919 1286.146,1686.329 1256.363,1692.106 1236.757 C 1695.030 1226.838,1697.156 1100.050,1698.595 850.000 C 1700.749 475.372,1697.303 276.995,1688.239 254.000 C 1681.424 236.711,1660.609 216.627,1644.177 211.488 C 1614.104 202.082,948.543 197.863,441.741 203.865 M1492.085 412.000 C 1494.395 415.655,1495.901 548.037,1495.939 750.714 C 1495.990 1031.768,1495.124 1084.304,1490.359 1089.069 C 1481.479 1097.950,1376.807 1099.976,926.408 1099.989 L 518.817 1100.000 483.550 1133.997 C 464.154 1152.695,441.737 1171.116,433.736 1174.932 C 419.524 1181.709,419.026 1181.671,412.230 1173.278 C 402.666 1161.467,399.999 1097.976,400.006 882.368 C 400.016 599.615,404.272 416.299,410.984 409.587 C 419.791 400.780,1486.498 403.161,1492.085 412.000 M1900.000 1049.374 L 1900.000 1500.000 1249.547 1500.000 L 599.095 1500.000 601.073 1611.000 C 602.247 1676.891,604.900 1727.932,607.602 1736.597 C 610.105 1744.625,619.465 1758.728,628.402 1767.937 C 659.318 1799.794,607.634 1797.159,1238.000 1799.015 L 1802.000 1800.676 1934.000 1931.541 C 2126.470 2122.356,2170.535 2164.000,2179.974 2164.000 C 2185.091 2164.000,2190.050 2159.844,2193.099 2153.000 C 2200.312 2136.810,2199.473 690.052,2192.236 664.000 C 2186.043 641.710,2159.419 615.489,2135.790 608.410 C 2125.361 605.285,2078.555 602.572,2009.606 601.096 L 1900.000 598.748 1900.000 1049.374 " fill="#1D1E23" stroke="none" fill-rule="evenodd"/></svg>