<svg viewBox="0 0 2400 2400" fill="none" xmlns="http://www.w3.org/2000/svg"><path d="M1849.608 207.770 C 1775.208 219.475,1692.006 274.896,1650.785 340.206 C 1593.944 430.266,1587.367 539.790,1633.351 630.543 C 1656.707 676.636,1715.049 737.086,1762.000 763.838 C 1808.639 790.412,1877.241 800.992,1947.101 792.384 C 2011.376 784.463,2052.095 763.338,2106.394 709.740 C 2141.107 675.474,2166.825 636.974,2182.373 596.000 C 2193.023 567.932,2193.762 562.136,2193.845 506.000 C 2193.931 448.394,2193.409 444.484,2180.763 408.000 C 2151.103 322.430,2104.249 269.772,2025.328 233.308 C 2008.789 225.667,1983.275 216.968,1968.629 213.976 C 1933.533 206.808,1875.090 203.761,1849.608 207.770 M783.906 403.798 L 509.811 406.000 489.077 419.307 C 462.310 436.486,422.724 478.890,409.985 504.029 L 400.000 523.734 400.000 1262.849 L 400.000 2001.963 561.018 1840.981 L 722.037 1680.000 1299.151 1680.000 L 1876.266 1680.000 1897.133 1669.449 C 1923.994 1655.866,1975.866 1603.994,1989.449 1577.133 L 2000.000 1556.266 2000.000 1273.633 L 2000.000 991.000 1987.000 993.600 C 1979.850 995.030,1943.850 997.338,1907.000 998.730 L 1840.000 1001.259 1840.000 1260.630 L 1840.000 1520.000 1281.036 1520.000 L 722.071 1520.000 641.036 1600.963 L 560.000 1681.927 560.000 1120.963 L 560.000 560.000 982.000 560.000 L 1404.000 560.000 1404.024 513.000 C 1404.037 487.150,1405.204 451.150,1406.617 433.000 L 1409.186 400.000 1233.593 400.798 C 1137.017 401.237,934.657 402.587,783.906 403.798 " fill="#1D1E23" stroke="none" fill-rule="evenodd"/></svg>