<svg viewBox="0 0 2400 2400" fill="none" xmlns="http://www.w3.org/2000/svg"><path d="M331.447 203.781 L 260.894 206.000 237.447 224.192 C 217.924 239.340,213.024 245.700,208.168 262.192 C 203.185 279.113,202.147 378.183,201.044 942.000 C 200.334 1305.000,201.159 1614.408,202.876 1629.574 C 206.553 1662.029,212.953 1668.983,230.740 1659.847 C 236.933 1656.665,322.151 1574.476,420.113 1477.203 L 598.225 1300.343 1110.113 1299.002 C 1521.121 1297.926,1625.151 1296.619,1637.987 1292.371 C 1659.816 1285.145,1685.881 1258.207,1692.595 1235.931 C 1697.002 1221.311,1698.000 1131.586,1698.000 750.000 C 1698.000 240.864,1698.873 260.662,1675.238 233.743 C 1654.643 210.287,1645.238 207.490,1574.374 203.746 C 1505.026 200.082,448.089 200.111,331.447 203.781 M1490.858 409.143 C 1497.600 415.885,1498.000 434.990,1498.000 750.000 C 1498.000 1065.018,1497.600 1084.114,1490.858 1090.857 C 1484.093 1097.623,1458.261 1098.057,1001.154 1099.079 L 518.592 1100.157 479.694 1137.903 C 423.875 1192.068,408.322 1193.621,402.873 1145.574 C 401.153 1130.408,400.253 960.326,400.873 767.612 C 401.789 482.805,402.998 416.023,407.332 410.802 C 410.727 406.714,420.902 403.830,435.332 402.868 C 447.800 402.037,688.786 401.502,970.858 401.678 C 1457.626 401.984,1484.080 402.363,1490.858 409.143 M1900.000 1049.590 L 1900.000 1500.000 1249.675 1500.000 L 599.349 1500.000 600.760 1613.000 C 602.334 1739.089,602.861 1741.885,630.511 1770.875 C 639.030 1779.807,653.200 1789.489,662.000 1792.391 C 674.859 1796.631,788.301 1797.928,1239.886 1799.003 L 1801.771 1800.339 1979.886 1977.201 C 2077.849 2074.475,2163.067 2156.665,2169.260 2159.847 C 2187.428 2169.179,2193.480 2162.157,2197.073 2127.576 C 2198.764 2111.309,2199.540 1779.400,2198.798 1390.000 C 2197.745 836.823,2196.348 677.854,2192.410 663.042 C 2188.740 649.238,2182.834 640.139,2170.685 629.575 C 2140.081 602.961,2137.962 602.574,2013.000 600.792 L 1900.000 599.180 1900.000 1049.590 " fill="#1D1E23" stroke="none" fill-rule="evenodd"/></svg>