<svg viewBox="0 0 2400 2400" fill="none" xmlns="http://www.w3.org/2000/svg"><path d="M1854.143 204.451 C 1785.198 214.495,1717.718 252.664,1669.577 308.850 C 1648.441 333.517,1618.570 392.006,1610.228 425.057 C 1591.288 500.094,1602.153 584.683,1638.862 648.000 C 1658.393 681.687,1718.313 741.607,1752.000 761.138 C 1839.138 811.658,1960.862 811.658,2048.000 761.138 C 2081.687 741.607,2141.607 681.687,2161.138 648.000 C 2227.462 533.602,2205.282 381.356,2108.345 285.612 C 2043.497 221.564,1947.364 190.871,1854.143 204.451 M522.984 404.343 C 478.462 414.836,438.645 447.440,417.089 491.053 L 402.000 521.583 400.959 1261.792 L 399.918 2002.000 560.959 1841.050 L 722.000 1680.101 1300.209 1679.050 L 1878.418 1678.000 1908.643 1663.061 C 1945.047 1645.068,1967.725 1621.905,1985.342 1584.718 L 1998.000 1558.000 1999.129 1274.592 L 2000.257 991.185 1975.129 994.592 C 1961.308 996.467,1925.249 998.000,1894.997 998.000 L 1839.993 998.000 1839.997 1259.000 L 1840.000 1520.000 1281.036 1520.000 L 722.071 1520.000 641.036 1600.963 L 560.000 1681.927 560.000 1120.963 L 560.000 560.000 981.000 560.003 L 1402.000 560.007 1402.000 505.003 C 1402.000 474.751,1403.439 438.750,1405.199 425.000 L 1408.397 400.000 973.199 400.402 C 733.839 400.623,531.243 402.396,522.984 404.343 " fill="#1D1E23" stroke="none" fill-rule="evenodd"/></svg>