<svg viewBox="0 0 2400 2400" fill="none" xmlns="http://www.w3.org/2000/svg"><path d="M366.000 207.647 C 307.464 212.566,250.393 255.657,219.617 318.173 C 207.645 342.490,206.733 347.562,203.644 406.982 C 201.842 441.642,200.285 859.693,200.184 1335.985 L 200.000 2201.970 401.015 2000.985 L 602.029 1800.000 1274.015 1799.804 C 1643.607 1799.696,1970.486 1798.114,2000.413 1796.288 C 2050.004 1793.263,2057.272 1791.806,2082.413 1779.853 C 2119.869 1762.046,2161.972 1720.027,2179.678 1682.780 C 2191.167 1658.613,2193.046 1649.643,2196.431 1602.780 C 2198.675 1571.721,2199.783 1303.896,2199.122 952.000 L 2198.000 354.000 2183.065 322.721 C 2162.058 278.727,2129.502 245.717,2083.878 222.154 L 2048.729 204.000 1221.365 204.647 C 766.314 205.002,381.400 206.352,366.000 207.647 " fill="#1D1E23" stroke="none" fill-rule="evenodd"/></svg>