<svg viewBox="0 0 2400 2400" fill="none" xmlns="http://www.w3.org/2000/svg"><path d="M1424.841 650.030 C 1407.614 657.515,1301.977 762.076,946.945 1123.059 L 654.783 1420.117 522.391 1286.241 C 432.388 1195.228,385.239 1150.386,375.128 1146.183 C 353.381 1137.141,314.291 1138.177,293.274 1148.352 C 270.493 1159.379,249.501 1184.535,241.259 1210.682 C 232.211 1239.385,238.202 1265.593,260.589 1295.245 C 269.592 1307.169,350.992 1391.265,441.479 1482.126 C 617.435 1658.809,613.912 1655.921,653.536 1655.978 C 694.536 1656.037,682.927 1666.153,954.000 1394.154 C 1284.322 1062.704,1540.018 799.633,1550.000 780.963 C 1561.177 760.057,1560.720 719.896,1549.051 697.621 C 1539.106 678.637,1516.314 657.394,1497.419 649.500 C 1480.461 642.414,1441.719 642.697,1424.841 650.030 M2024.841 650.030 C 2007.618 657.513,1901.979 762.074,1547.264 1122.734 L 1255.422 1419.467 1236.711 1409.408 C 1222.269 1401.644,1213.817 1399.731,1199.667 1401.023 C 1165.919 1404.105,1121.503 1444.709,1111.584 1481.545 C 1105.990 1502.318,1108.582 1533.830,1117.401 1552.278 C 1125.414 1569.040,1181.711 1627.725,1203.804 1642.345 C 1222.786 1654.907,1256.262 1659.052,1282.896 1652.140 C 1300.846 1647.481,1317.225 1631.900,1554.000 1394.237 C 1885.554 1061.441,2140.055 799.564,2150.000 780.963 C 2161.177 760.057,2160.720 719.896,2149.051 697.621 C 2139.106 678.637,2116.314 657.394,2097.419 649.500 C 2080.461 642.414,2041.719 642.697,2024.841 650.030 " fill="#1D1E23" stroke="none" fill-rule="evenodd"/></svg>