<svg viewBox="0 0 2400 2400" fill="none" xmlns="http://www.w3.org/2000/svg"><path fill-rule="evenodd" d="M1134.68 1578.41C1096.94 1540.16 1096.92 1478.69 1134.63 1440.4L1154.69 1420.02C1182.15 1392.14 1227.11 1392.13 1254.59 1419.99L1991.93 671.088C2030.41 631.997 2093.45 631.97 2131.97 671.028C2169.7 709.285 2169.72 770.749 2132.02 809.033L1325.79 1627.7C1286.63 1667.46 1222.52 1667.48 1183.34 1627.76L1134.68 1578.41ZM654.588 1419.99L1391.93 671.088C1430.41 631.997 1493.45 631.97 1531.97 671.028C1569.7 709.285 1569.72 770.749 1532.02 809.033L725.893 1627.59C686.699 1667.39 622.502 1667.37 583.339 1627.54L265.217 1304.01C227.575 1265.73 227.621 1204.32 265.32 1166.1C303.865 1127.01 366.952 1127.08 405.412 1166.25L654.588 1419.99Z" fill="#1D1E23"/></svg>