<svg viewBox="0 0 2400 2400" fill="none" xmlns="http://www.w3.org/2000/svg"><path d="M503.662 203.524 L 261.325 206.000 238.966 223.252 C 225.797 233.414,214.684 245.744,211.930 253.252 C 202.935 277.769,199.620 530.250,201.023 1084.000 C 201.964 1455.342,203.805 1641.956,206.606 1650.000 C 215.939 1676.792,223.403 1670.570,450.092 1447.047 L 598.000 1301.205 1108.000 1298.551 C 1388.500 1297.092,1624.258 1294.757,1631.907 1293.362 C 1641.564 1291.601,1652.750 1283.890,1668.512 1268.128 C 1690.501 1246.139,1691.308 1244.565,1694.351 1217.715 C 1699.503 1172.257,1698.617 323.437,1693.377 284.953 C 1689.958 259.841,1686.321 248.554,1678.232 237.949 C 1659.485 213.371,1650.511 210.993,1564.000 207.683 C 1449.001 203.283,782.940 200.671,503.662 203.524 M1470.590 410.539 L 1491.179 412.939 1493.953 481.469 C 1498.683 598.338,1494.817 1082.789,1489.109 1088.494 C 1480.231 1097.367,1377.790 1099.483,944.601 1099.744 L 519.201 1100.000 483.956 1133.179 C 464.570 1151.428,442.123 1169.878,434.072 1174.179 C 419.822 1181.793,419.289 1181.803,413.949 1174.553 C 410.932 1170.457,407.009 1156.957,405.232 1144.553 C 401.078 1115.564,402.415 493.601,406.734 446.000 L 410.000 410.000 472.000 407.530 C 547.990 404.503,1441.912 407.196,1470.590 410.539 M1900.000 1050.000 L 1900.000 1500.000 1250.000 1500.000 L 600.000 1500.000 600.231 1575.000 C 600.358 1616.250,601.918 1670.222,603.697 1694.939 C 606.917 1739.663,607.013 1739.981,623.719 1761.635 C 633.528 1774.350,645.803 1785.329,653.252 1788.050 C 676.141 1796.411,860.751 1799.589,1335.437 1799.797 L 1800.875 1800.000 1961.437 1958.651 C 2127.115 2122.355,2171.886 2164.000,2182.202 2164.000 C 2185.500 2164.000,2190.274 2159.050,2192.811 2153.000 C 2198.179 2140.196,2199.593 751.061,2194.298 690.473 C 2191.303 656.190,2190.621 654.325,2174.805 637.166 C 2165.790 627.387,2153.090 616.632,2146.581 613.266 C 2133.484 606.493,2044.425 600.469,1953.000 600.172 L 1900.000 600.000 1900.000 1050.000 " fill="#1D1E23" stroke="none" fill-rule="evenodd"/></svg>