<svg viewBox="0 0 2400 2400" fill="none" xmlns="http://www.w3.org/2000/svg"><path d="M366.000 207.647 C 307.235 212.586,249.386 256.428,219.778 318.464 C 209.359 340.296,206.883 351.570,203.818 391.152 C 201.822 416.918,200.147 785.022,200.095 1209.159 L 200.000 1980.319 208.440 1997.159 C 219.900 2020.025,234.528 2034.994,256.000 2045.828 C 291.540 2063.759,322.537 2062.418,352.499 2041.654 C 361.295 2035.559,421.297 1978.693,485.838 1915.286 L 603.184 1800.000 1274.592 1799.804 C 1643.866 1799.696,1970.486 1798.114,2000.413 1796.288 C 2050.004 1793.263,2057.272 1791.806,2082.413 1779.853 C 2119.869 1762.046,2161.972 1720.027,2179.678 1682.780 C 2191.167 1658.613,2193.046 1649.643,2196.431 1602.780 C 2198.675 1571.721,2199.783 1303.896,2199.122 952.000 L 2198.000 354.000 2183.065 322.721 C 2162.058 278.727,2129.502 245.717,2083.878 222.154 L 2048.729 204.000 1221.365 204.647 C 766.314 205.002,381.400 206.352,366.000 207.647 M2000.000 1000.000 L 2000.000 1600.000 1259.048 1600.000 L 518.097 1600.000 459.048 1658.950 L 400.000 1717.900 400.000 1058.950 L 400.000 400.000 1200.000 400.000 L 2000.000 400.000 2000.000 1000.000 " fill="#1D1E23" stroke="none" fill-rule="evenodd"/></svg>