<svg viewBox="0 0 2400 2400" fill="none" xmlns="http://www.w3.org/2000/svg"><path d="M1434.792 646.885 C 1416.497 649.638,1344.193 719.985,988.215 1081.374 L 654.430 1420.232 528.215 1292.949 C 458.797 1222.943,394.940 1160.340,386.311 1153.832 C 371.940 1142.994,367.909 1142.000,338.311 1142.000 C 310.024 1142.000,303.595 1143.414,286.690 1153.351 C 254.688 1172.161,232.523 1215.580,238.092 1248.545 C 239.546 1257.149,247.626 1274.508,256.048 1287.120 C 276.209 1317.312,584.141 1627.697,609.783 1643.674 C 632.969 1658.120,663.568 1660.376,686.800 1649.352 C 710.384 1638.161,824.968 1526.041,1136.426 1209.396 C 1436.488 904.337,1535.894 801.573,1546.875 785.081 C 1564.510 758.597,1560.748 712.092,1538.626 683.087 C 1514.975 652.078,1480.398 640.023,1434.792 646.885 M2034.872 646.877 C 2016.478 649.652,1943.374 720.747,1589.413 1080.095 L 1255.338 1419.254 1233.576 1409.291 C 1207.002 1397.125,1188.939 1398.988,1162.287 1416.641 C 1113.994 1448.629,1094.992 1507.245,1118.227 1552.550 C 1127.933 1571.475,1190.943 1635.175,1209.274 1644.594 C 1229.309 1654.889,1257.803 1657.995,1279.218 1652.218 C 1303.825 1645.581,1382.976 1568.916,1738.413 1207.445 C 2037.264 903.520,2135.979 801.446,2146.875 785.081 C 2164.510 758.597,2160.748 712.092,2138.626 683.087 C 2114.990 652.099,2080.365 640.015,2034.872 646.877 " fill="#1D1E23" stroke="none" fill-rule="evenodd"/></svg>