<svg viewBox="0 0 2400 2400" fill="none" xmlns="http://www.w3.org/2000/svg"><path d="M1475 400C1488.81 400 1500 411.193 1500 425V1075C1500 1088.81 1488.81 1100 1475 1100H527.355C520.725 1100 514.366 1102.63 509.678 1107.32L458 1159L442.678 1174.32C426.929 1190.07 400 1178.92 400 1156.64V425C400 411.193 411.193 400 425 400H1475ZM1600 200H300C245 200 200 245 200 300V1639.64C200 1661.92 226.929 1673.07 242.678 1657.32L600 1300H1600C1655 1300 1700 1255 1700 1200V300C1700 245 1655 200 1600 200ZM2100 600H1900V1500H600V1700C600 1755 645 1800 700 1800H1800L2157.32 2157.32C2173.07 2173.07 2200 2161.92 2200 2139.64V700C2200 645 2155 600 2100 600Z" fill="#1D1E23"/></svg>