<svg viewBox="0 0 2400 2400" fill="none" xmlns="http://www.w3.org/2000/svg"><path d="M1832.103 209.998 C 1798.572 217.593,1748.665 241.816,1716.636 266.041 C 1653.951 313.454,1612.134 390.957,1602.165 478.201 C 1596.460 528.131,1615.118 608.110,1642.539 651.264 C 1660.595 679.680,1718.347 737.083,1749.592 757.669 C 1796.937 788.864,1856.322 801.013,1934.000 795.397 C 1973.626 792.532,2021.112 777.477,2052.139 757.942 C 2075.216 743.412,2143.412 675.216,2157.942 652.139 C 2184.823 609.445,2203.161 533.041,2198.297 484.000 C 2192.224 422.765,2165.938 356.010,2130.189 311.033 C 2097.049 269.338,2043.725 234.174,1986.000 215.949 C 1949.438 204.406,1870.302 201.345,1832.103 209.998 M683.836 403.844 L 509.672 406.000 486.408 420.000 C 457.559 437.362,429.867 467.083,412.925 498.870 L 400.000 523.120 400.000 1262.541 L 400.000 2001.963 561.018 1840.981 L 722.037 1680.000 1299.458 1680.000 L 1876.880 1680.000 1901.130 1667.075 C 1935.950 1648.516,1965.750 1619.562,1984.121 1586.440 L 1999.894 1558.000 1999.947 1274.500 L 2000.000 991.000 1988.307 993.339 C 1981.876 994.625,1945.876 996.925,1908.307 998.450 L 1840.000 1001.223 1840.000 1260.611 L 1840.000 1520.000 1281.036 1520.000 L 722.071 1520.000 641.036 1600.963 L 560.000 1681.927 560.000 1120.963 L 560.000 560.000 982.000 560.000 L 1404.000 560.000 1404.035 501.000 C 1404.054 468.550,1405.205 432.550,1406.592 421.000 L 1409.114 400.000 1133.557 400.844 C 982.001 401.308,779.626 402.658,683.836 403.844 " fill="#1D1E23" stroke="none" fill-rule="evenodd"/></svg>