<svg viewBox="0 0 2400 2400" fill="none" xmlns="http://www.w3.org/2000/svg"><path d="M634.000 403.859 L 514.000 406.000 490.848 417.724 C 459.385 433.655,430.689 463.434,413.781 497.698 L 399.815 526.000 400.907 1236.889 L 402.000 1947.779 410.530 1956.308 C 416.787 1962.565,421.524 1964.055,428.308 1961.902 C 433.394 1960.288,500.812 1896.200,578.125 1819.484 L 718.693 1680.000 978.347 1679.945 C 1121.156 1679.915,1241.872 1678.852,1246.605 1677.582 C 1255.143 1675.291,1255.089 1674.914,1239.662 1628.994 C 1231.111 1603.541,1221.082 1568.604,1217.376 1551.358 L 1210.638 1520.000 964.754 1520.000 L 718.870 1520.000 657.598 1579.883 C 594.619 1641.433,580.805 1650.519,568.661 1638.376 C 562.514 1632.229,562.000 1591.036,562.000 1104.001 C 562.000 602.729,562.358 575.929,569.143 569.143 C 575.939 562.347,606.570 562.000,1200.496 562.000 L 1824.707 562.000 1832.353 571.443 C 1839.109 579.786,1840.000 587.754,1840.000 639.846 L 1840.000 698.806 1914.760 701.656 C 1955.878 703.224,1991.428 704.843,1993.760 705.253 C 1996.617 705.756,1998.357 676.640,1999.095 616.000 L 2000.189 526.000 1986.353 497.964 C 1969.601 464.022,1939.758 433.173,1908.677 417.671 C 1886.621 406.671,1883.645 406.283,1800.000 403.512 C 1703.134 400.303,818.502 400.566,634.000 403.859 M1424.000 709.466 C 1386.813 718.121,1359.481 728.245,1323.194 746.806 C 1124.342 848.519,1044.960 1088.657,1143.663 1289.906 C 1191.923 1388.306,1279.187 1462.180,1392.382 1500.460 C 1429.565 1513.035,1430.902 1513.182,1508.000 1513.182 C 1584.745 1513.182,1586.592 1512.982,1622.812 1500.730 C 1668.089 1485.415,1717.967 1460.772,1750.712 1437.540 L 1775.424 1420.006 1783.712 1430.543 C 1789.888 1438.394,1792.000 1446.872,1792.000 1463.816 L 1792.000 1486.552 1929.000 1622.625 C 2004.350 1697.464,2073.604 1763.699,2082.898 1769.813 C 2107.351 1785.898,2122.536 1782.104,2152.120 1752.520 C 2179.184 1725.456,2183.889 1711.443,2173.385 1689.187 C 2169.041 1679.983,2111.172 1618.451,2026.498 1533.000 L 1886.779 1392.000 1863.929 1392.000 C 1846.871 1392.000,1838.408 1389.899,1830.543 1383.712 L 1820.006 1375.424 1837.540 1350.712 C 1860.772 1317.967,1885.415 1268.089,1900.730 1222.812 C 1912.982 1186.592,1913.182 1184.745,1913.182 1108.000 C 1913.182 1030.902,1913.035 1029.565,1900.460 992.382 C 1862.091 878.925,1789.226 792.870,1690.236 744.104 C 1626.515 712.712,1602.408 707.340,1518.000 705.724 C 1469.030 704.786,1438.963 705.983,1424.000 709.466 M1588.000 838.239 C 1636.138 852.813,1686.150 884.971,1721.053 923.791 C 1741.984 947.072,1772.115 1003.258,1782.299 1038.000 C 1791.773 1070.320,1791.934 1140.601,1782.615 1175.735 C 1745.332 1316.293,1611.179 1408.521,1473.055 1388.550 C 1374.661 1374.324,1288.895 1310.332,1249.829 1221.998 C 1217.986 1149.994,1222.725 1044.709,1260.903 976.000 C 1303.905 898.608,1377.883 845.057,1459.891 831.958 C 1491.366 826.931,1562.107 830.399,1588.000 838.239 " fill="#1D1E23" stroke="none" fill-rule="evenodd"/></svg>