<svg viewBox="0 0 2400 2400" fill="none" xmlns="http://www.w3.org/2000/svg"><path d="M690.000 403.675 L 510.000 406.000 488.859 417.712 C 458.798 434.367,430.211 464.686,413.982 497.127 L 400.000 525.075 400.000 1263.519 L 400.000 2001.963 561.018 1840.981 L 722.037 1680.000 1298.481 1680.000 L 1874.925 1680.000 1903.498 1665.705 C 1940.967 1646.961,1966.835 1621.247,1985.229 1584.463 L 2000.000 1554.925 2000.000 1040.000 L 2000.000 525.075 1985.637 496.365 C 1967.760 460.631,1939.843 432.263,1907.119 416.579 L 1882.000 404.541 1376.000 402.946 C 1097.700 402.068,789.000 402.397,690.000 403.675 M1840.000 1040.000 L 1840.000 1520.000 1281.036 1520.000 L 722.071 1520.000 641.036 1600.963 L 560.000 1681.927 560.000 1120.963 L 560.000 560.000 1200.000 560.000 L 1840.000 560.000 1840.000 1040.000 M970.230 756.993 C 949.419 762.491,919.384 792.594,912.889 814.464 C 894.312 877.022,938.437 937.946,1002.000 937.497 C 1066.691 937.041,1111.042 875.640,1089.922 815.778 C 1072.189 765.519,1025.240 742.461,970.230 756.993 M1412.723 756.547 C 1405.420 758.651,1389.858 769.739,1378.140 781.186 C 1360.282 798.633,1356.042 805.610,1351.934 824.315 C 1342.859 865.639,1363.982 909.596,1401.686 927.848 C 1423.669 938.490,1459.423 939.367,1483.213 929.848 C 1527.008 912.325,1549.265 849.928,1527.648 805.274 C 1507.375 763.394,1459.463 743.080,1412.723 756.547 M906.156 1143.000 C 923.305 1184.067,967.812 1242.067,1004.916 1271.702 C 1035.354 1296.012,1092.022 1325.333,1130.000 1336.422 C 1166.532 1347.089,1237.620 1350.765,1278.956 1344.125 C 1384.095 1327.237,1475.113 1261.001,1528.056 1162.847 L 1544.101 1133.101 1525.492 1130.551 C 1515.257 1129.148,1370.311 1128.000,1203.388 1128.000 L 899.893 1128.000 906.156 1143.000 " fill="#1D1E23" stroke="none" fill-rule="evenodd"/></svg>