<svg viewBox="0 0 2400 2400" fill="none" xmlns="http://www.w3.org/2000/svg"><path d="M282.990 206.780 C 256.741 208.321,255.341 208.960,233.333 229.446 L 210.686 250.526 207.397 284.263 C 202.495 334.540,198.521 1168.508,201.961 1424.887 C 205.310 1674.435,204.501 1667.842,230.091 1654.169 C 246.322 1645.496,331.483 1564.753,492.000 1405.844 L 598.000 1300.907 1111.184 1298.430 C 1536.196 1296.379,1626.655 1294.998,1637.682 1290.391 C 1658.835 1281.552,1686.628 1252.317,1691.290 1234.000 C 1697.160 1210.941,1700.598 768.900,1697.015 498.000 L 1694.000 270.000 1684.000 250.208 C 1670.756 223.995,1658.466 215.829,1625.411 211.278 C 1599.001 207.641,340.166 203.424,282.990 206.780 M1490.668 413.337 C 1494.717 417.391,1494.713 1055.988,1490.664 1076.574 C 1488.121 1089.501,1486.114 1091.454,1472.899 1093.854 C 1464.704 1095.343,1246.612 1097.493,988.248 1098.632 L 518.496 1100.704 486.935 1130.025 C 448.801 1165.452,426.112 1181.666,418.668 1178.810 C 405.200 1173.642,404.000 1144.679,404.000 824.857 C 404.000 473.014,405.671 413.354,415.605 410.545 C 427.410 407.206,1487.295 409.959,1490.668 413.337 M1900.000 1049.361 L 1900.000 1500.000 1249.425 1500.000 L 598.849 1500.000 601.161 1609.000 C 602.516 1672.890,605.395 1724.496,608.117 1733.696 C 610.741 1742.566,621.018 1758.049,631.749 1769.297 C 650.409 1788.859,651.283 1789.263,682.369 1792.707 C 699.766 1794.635,958.733 1797.261,1257.850 1798.543 L 1801.701 1800.873 1955.850 1953.063 C 2122.352 2117.447,2173.880 2164.995,2183.511 2163.140 C 2186.905 2162.486,2191.087 2155.663,2192.805 2147.976 C 2196.840 2129.918,2198.065 713.424,2194.072 682.887 C 2190.718 657.233,2181.055 640.418,2159.881 623.385 C 2141.570 608.655,2111.603 604.738,1991.000 601.309 L 1900.000 598.722 1900.000 1049.361 " fill="#1D1E23" stroke="none" fill-rule="evenodd"/></svg>