<svg viewBox="0 0 2400 2400" fill="none" xmlns="http://www.w3.org/2000/svg"><path d="M535.311 113.522 C 503.203 126.728,464.293 155.697,444.901 180.832 C 381.224 263.369,387.139 356.749,460.966 434.470 C 493.505 468.724,530.265 489.383,571.479 496.577 C 634.796 507.628,713.786 474.377,755.516 419.106 C 800.259 359.844,809.528 294.562,783.037 225.267 C 770.848 193.382,724.469 144.670,690.269 127.834 C 637.423 101.818,577.273 96.263,535.311 113.522 M1135.311 113.522 C 1103.203 126.728,1064.293 155.697,1044.901 180.832 C 981.224 263.369,987.139 356.749,1060.966 434.470 C 1093.505 468.724,1130.265 489.383,1171.479 496.577 C 1234.796 507.628,1313.786 474.377,1355.516 419.106 C 1400.259 359.844,1409.528 294.562,1383.037 225.267 C 1370.848 193.382,1324.469 144.670,1290.269 127.834 C 1237.423 101.818,1177.273 96.263,1135.311 113.522 M1735.311 113.522 C 1703.203 126.728,1664.293 155.697,1644.901 180.832 C 1581.224 263.369,1587.139 356.749,1660.966 434.470 C 1693.505 468.724,1730.265 489.383,1771.479 496.577 C 1834.796 507.628,1913.786 474.377,1955.516 419.106 C 2000.259 359.844,2009.528 294.562,1983.037 225.267 C 1970.848 193.382,1924.469 144.670,1890.269 127.834 C 1837.423 101.818,1777.273 96.263,1735.311 113.522 M535.311 713.522 C 503.203 726.728,464.293 755.697,444.901 780.832 C 381.224 863.369,387.139 956.749,460.966 1034.470 C 493.505 1068.724,530.265 1089.383,571.479 1096.577 C 634.796 1107.628,713.786 1074.377,755.516 1019.106 C 800.259 959.844,809.528 894.562,783.037 825.267 C 770.848 793.382,724.469 744.670,690.269 727.834 C 637.423 701.818,577.273 696.263,535.311 713.522 M1135.311 713.522 C 1103.203 726.728,1064.293 755.697,1044.901 780.832 C 981.224 863.369,987.139 956.749,1060.966 1034.470 C 1093.505 1068.724,1130.265 1089.383,1171.479 1096.577 C 1234.796 1107.628,1313.786 1074.377,1355.516 1019.106 C 1400.259 959.844,1409.528 894.562,1383.037 825.267 C 1370.848 793.382,1324.469 744.670,1290.269 727.834 C 1237.423 701.818,1177.273 696.263,1135.311 713.522 M1735.311 713.522 C 1703.203 726.728,1664.293 755.697,1644.901 780.832 C 1581.224 863.369,1587.139 956.749,1660.966 1034.470 C 1693.505 1068.724,1730.265 1089.383,1771.479 1096.577 C 1834.796 1107.628,1913.786 1074.377,1955.516 1019.106 C 2000.259 959.844,2009.528 894.562,1983.037 825.267 C 1970.848 793.382,1924.469 744.670,1890.269 727.834 C 1837.423 701.818,1777.273 696.263,1735.311 713.522 M535.311 1313.522 C 503.203 1326.728,464.293 1355.697,444.901 1380.832 C 381.224 1463.369,387.139 1556.749,460.966 1634.470 C 493.505 1668.724,530.265 1689.383,571.479 1696.577 C 634.796 1707.628,713.786 1674.377,755.516 1619.106 C 800.259 1559.844,809.528 1494.562,783.037 1425.267 C 770.848 1393.382,724.469 1344.670,690.269 1327.834 C 637.423 1301.818,577.273 1296.263,535.311 1313.522 M1135.311 1313.522 C 1103.203 1326.728,1064.293 1355.697,1044.901 1380.832 C 981.224 1463.369,987.139 1556.749,1060.966 1634.470 C 1093.505 1668.724,1130.265 1689.383,1171.479 1696.577 C 1234.796 1707.628,1313.786 1674.377,1355.516 1619.106 C 1400.259 1559.844,1409.528 1494.562,1383.037 1425.267 C 1370.848 1393.382,1324.469 1344.670,1290.269 1327.834 C 1237.423 1301.818,1177.273 1296.263,1135.311 1313.522 M1735.311 1313.522 C 1703.203 1326.728,1664.293 1355.697,1644.901 1380.832 C 1581.224 1463.369,1587.139 1556.749,1660.966 1634.470 C 1693.505 1668.724,1730.265 1689.383,1771.479 1696.577 C 1834.796 1707.628,1913.786 1674.377,1955.516 1619.106 C 2000.259 1559.844,2009.528 1494.562,1983.037 1425.267 C 1970.848 1393.382,1924.469 1344.670,1890.269 1327.834 C 1837.423 1301.818,1777.273 1296.263,1735.311 1313.522 M1143.377 1909.329 C 1096.134 1926.999,1043.296 1974.121,1021.679 2017.861 C 996.642 2068.520,994.946 2113.089,1015.928 2168.972 C 1035.224 2220.363,1087.910 2269.837,1143.310 2288.588 C 1191.031 2304.740,1245.702 2299.254,1290.204 2273.847 C 1385.310 2219.549,1423.281 2111.286,1379.234 2020.000 C 1365.542 1991.623,1316.506 1938.559,1292.636 1926.288 C 1261.464 1910.263,1168.974 1899.754,1143.377 1909.329 " fill="#1D1E23" stroke="none" fill-rule="evenodd"/></svg>