<svg viewBox="0 0 2400 2400" fill="none" xmlns="http://www.w3.org/2000/svg"><path d="M557.089 105.747 C 447.638 132.269,379.365 240.813,406.337 345.423 C 424.936 417.560,482.287 475.153,554.166 493.875 C 678.774 526.332,808.580 416.828,798.674 287.611 C 791.246 190.716,720.253 116.129,624.105 104.204 C 584.058 99.237,583.946 99.240,557.089 105.747 M1157.089 105.747 C 1047.638 132.269,979.365 240.813,1006.337 345.423 C 1024.936 417.560,1082.287 475.153,1154.166 493.875 C 1278.774 526.332,1408.580 416.828,1398.674 287.611 C 1391.246 190.716,1320.253 116.129,1224.105 104.204 C 1184.058 99.237,1183.946 99.240,1157.089 105.747 M1757.089 105.747 C 1647.638 132.269,1579.365 240.813,1606.337 345.423 C 1624.936 417.560,1682.287 475.153,1754.166 493.875 C 1878.774 526.332,2008.580 416.828,1998.674 287.611 C 1991.246 190.716,1920.253 116.129,1824.105 104.204 C 1784.058 99.237,1783.946 99.240,1757.089 105.747 M557.089 705.747 C 447.638 732.269,379.365 840.813,406.337 945.423 C 424.936 1017.560,482.287 1075.153,554.166 1093.875 C 678.774 1126.332,808.580 1016.828,798.674 887.611 C 791.246 790.716,720.253 716.129,624.105 704.204 C 584.058 699.237,583.946 699.240,557.089 705.747 M1157.089 705.747 C 1047.638 732.269,979.365 840.813,1006.337 945.423 C 1024.936 1017.560,1082.287 1075.153,1154.166 1093.875 C 1278.774 1126.332,1408.580 1016.828,1398.674 887.611 C 1391.246 790.716,1320.253 716.129,1224.105 704.204 C 1184.058 699.237,1183.946 699.240,1157.089 705.747 M1757.089 705.747 C 1647.638 732.269,1579.365 840.813,1606.337 945.423 C 1624.936 1017.560,1682.287 1075.153,1754.166 1093.875 C 1878.774 1126.332,2008.580 1016.828,1998.674 887.611 C 1991.246 790.716,1920.253 716.129,1824.105 704.204 C 1784.058 699.237,1783.946 699.240,1757.089 705.747 M557.089 1305.747 C 447.638 1332.269,379.365 1440.813,406.337 1545.423 C 424.936 1617.560,482.287 1675.153,554.166 1693.875 C 678.774 1726.332,808.580 1616.828,798.674 1487.611 C 791.246 1390.716,720.253 1316.129,624.105 1304.204 C 584.058 1299.237,583.946 1299.240,557.089 1305.747 M1157.089 1305.747 C 1047.638 1332.269,979.365 1440.813,1006.337 1545.423 C 1024.936 1617.560,1082.287 1675.153,1154.166 1693.875 C 1278.774 1726.332,1408.580 1616.828,1398.674 1487.611 C 1391.246 1390.716,1320.253 1316.129,1224.105 1304.204 C 1184.058 1299.237,1183.946 1299.240,1157.089 1305.747 M1757.089 1305.747 C 1647.638 1332.269,1579.365 1440.813,1606.337 1545.423 C 1624.936 1617.560,1682.287 1675.153,1754.166 1693.875 C 1878.774 1726.332,2008.580 1616.828,1998.674 1487.611 C 1991.246 1390.716,1920.253 1316.129,1824.105 1304.204 C 1784.058 1299.237,1783.946 1299.240,1757.089 1305.747 M1130.667 1913.577 C 1064.870 1941.213,1017.509 1996.974,1003.797 2062.950 C 984.828 2154.224,1043.715 2255.330,1135.033 2288.272 C 1172.382 2301.745,1231.069 2301.766,1265.361 2288.317 C 1321.670 2266.233,1368.805 2218.930,1388.272 2164.967 C 1401.745 2127.618,1401.766 2068.931,1388.317 2034.639 C 1367.185 1980.757,1323.103 1935.166,1273.297 1915.684 C 1254.787 1908.444,1240.137 1906.284,1202.000 1905.174 C 1158.290 1903.902,1151.914 1904.653,1130.667 1913.577 " fill="#1D1E23" stroke="none" fill-rule="evenodd"/></svg>