<svg viewBox="0 0 2400 2400" fill="none" xmlns="http://www.w3.org/2000/svg"><path d="M556.000 106.366 C 494.741 122.626,445.731 162.726,419.542 218.017 C 383.463 294.188,399.030 375.567,461.694 438.369 C 526.006 502.823,606.246 516.706,687.353 477.412 C 714.720 464.152,754.228 427.070,771.434 398.493 C 790.790 366.343,801.114 324.844,798.425 290.000 C 791.032 194.198,725.879 123.063,629.857 105.955 C 590.683 98.975,583.697 99.014,556.000 106.366 M1156.000 106.366 C 1094.741 122.626,1045.731 162.726,1019.542 218.017 C 983.463 294.188,999.030 375.567,1061.694 438.369 C 1126.006 502.823,1206.246 516.706,1287.353 477.412 C 1314.720 464.152,1354.228 427.070,1371.434 398.493 C 1390.790 366.343,1401.114 324.844,1398.425 290.000 C 1391.032 194.198,1325.879 123.063,1229.857 105.955 C 1190.683 98.975,1183.697 99.014,1156.000 106.366 M1756.000 106.366 C 1694.741 122.626,1645.731 162.726,1619.542 218.017 C 1583.463 294.188,1599.030 375.567,1661.694 438.369 C 1726.006 502.823,1806.246 516.706,1887.353 477.412 C 1914.720 464.152,1954.228 427.070,1971.434 398.493 C 1990.790 366.343,2001.114 324.844,1998.425 290.000 C 1991.032 194.198,1925.879 123.063,1829.857 105.955 C 1790.683 98.975,1783.697 99.014,1756.000 106.366 M556.000 706.366 C 494.741 722.626,445.731 762.726,419.542 818.017 C 383.463 894.188,399.030 975.567,461.694 1038.369 C 526.006 1102.823,606.246 1116.706,687.353 1077.412 C 714.720 1064.152,754.228 1027.070,771.434 998.493 C 790.790 966.343,801.114 924.844,798.425 890.000 C 791.032 794.198,725.879 723.063,629.857 705.955 C 590.683 698.975,583.697 699.014,556.000 706.366 M1156.000 706.366 C 1094.741 722.626,1045.731 762.726,1019.542 818.017 C 983.463 894.188,999.030 975.567,1061.694 1038.369 C 1126.006 1102.823,1206.246 1116.706,1287.353 1077.412 C 1314.720 1064.152,1354.228 1027.070,1371.434 998.493 C 1390.790 966.343,1401.114 924.844,1398.425 890.000 C 1391.032 794.198,1325.879 723.063,1229.857 705.955 C 1190.683 698.975,1183.697 699.014,1156.000 706.366 M1756.000 706.366 C 1694.741 722.626,1645.731 762.726,1619.542 818.017 C 1583.463 894.188,1599.030 975.567,1661.694 1038.369 C 1726.006 1102.823,1806.246 1116.706,1887.353 1077.412 C 1914.720 1064.152,1954.228 1027.070,1971.434 998.493 C 1990.790 966.343,2001.114 924.844,1998.425 890.000 C 1991.032 794.198,1925.879 723.063,1829.857 705.955 C 1790.683 698.975,1783.697 699.014,1756.000 706.366 M556.000 1306.366 C 494.741 1322.626,445.731 1362.726,419.542 1418.017 C 383.463 1494.188,399.030 1575.567,461.694 1638.369 C 526.006 1702.823,606.246 1716.706,687.353 1677.412 C 714.720 1664.152,754.228 1627.070,771.434 1598.493 C 790.790 1566.343,801.114 1524.844,798.425 1490.000 C 791.032 1394.198,725.879 1323.063,629.857 1305.955 C 590.683 1298.975,583.697 1299.014,556.000 1306.366 M1156.000 1306.366 C 1094.741 1322.626,1045.731 1362.726,1019.542 1418.017 C 983.463 1494.188,999.030 1575.567,1061.694 1638.369 C 1126.006 1702.823,1206.246 1716.706,1287.353 1677.412 C 1314.720 1664.152,1354.228 1627.070,1371.434 1598.493 C 1390.790 1566.343,1401.114 1524.844,1398.425 1490.000 C 1391.032 1394.198,1325.879 1323.063,1229.857 1305.955 C 1190.683 1298.975,1183.697 1299.014,1156.000 1306.366 M1756.000 1306.366 C 1694.741 1322.626,1645.731 1362.726,1619.542 1418.017 C 1583.463 1494.188,1599.030 1575.567,1661.694 1638.369 C 1726.006 1702.823,1806.246 1716.706,1887.353 1677.412 C 1914.720 1664.152,1954.228 1627.070,1971.434 1598.493 C 1990.790 1566.343,2001.114 1524.844,1998.425 1490.000 C 1991.032 1394.198,1925.879 1323.063,1829.857 1305.955 C 1790.683 1298.975,1783.697 1299.014,1756.000 1306.366 M1148.000 1907.741 C 1121.346 1915.880,1088.989 1935.097,1066.668 1956.045 C 981.370 2036.093,978.255 2150.877,1059.057 2236.531 C 1118.484 2299.528,1207.944 2316.614,1283.844 2279.465 C 1319.545 2261.991,1363.918 2217.634,1379.889 2183.454 C 1404.691 2130.371,1404.532 2067.370,1379.465 2016.156 C 1362.531 1981.557,1318.742 1937.477,1286.000 1922.070 C 1253.911 1906.970,1176.759 1898.959,1148.000 1907.741 " fill="#1D1E23" stroke="none" fill-rule="evenodd"/></svg>