<svg viewBox="0 0 2400 2400" fill="none" xmlns="http://www.w3.org/2000/svg"><path d="M1101.602 208.349 C 1015.453 214.570,900.591 243.073,813.574 279.823 C 455.987 430.843,217.076 774.804,202.217 1160.000 C 193.071 1397.082,273.147 1639.953,421.802 1826.000 C 455.482 1868.152,529.003 1941.242,574.000 1977.306 C 710.531 2086.733,867.586 2156.330,1050.000 2188.241 C 1113.028 2199.267,1269.704 2200.250,1337.604 2190.045 C 1512.931 2163.696,1682.234 2090.860,1820.000 1982.513 C 1866.692 1945.791,1938.787 1874.061,1977.306 1826.000 C 2074.027 1705.322,2142.149 1562.941,2175.769 1411.195 C 2182.251 1381.938,2189.638 1342.700,2192.185 1324.000 C 2198.983 1274.086,2197.890 1123.200,2190.350 1070.779 C 2174.010 957.175,2142.244 854.043,2093.394 756.000 C 2042.437 653.728,1984.790 572.765,1908.092 495.752 C 1753.456 340.483,1522.639 229.765,1308.576 208.177 C 1261.905 203.471,1168.073 203.548,1101.602 208.349 M1301.065 408.330 C 1350.074 413.525,1424.301 431.498,1475.048 450.458 C 1673.486 524.596,1829.327 667.523,1921.595 860.000 C 2046.518 1120.597,2015.157 1440.031,1841.611 1674.700 C 1754.990 1791.829,1638.131 1883.240,1505.648 1937.501 C 1324.061 2011.874,1134.215 2018.718,948.000 1957.604 C 661.222 1863.486,452.360 1611.972,409.834 1309.538 C 401.852 1252.776,401.999 1142.623,410.133 1084.301 C 424.983 977.837,463.771 872.722,524.105 775.443 C 636.944 593.510,821.683 465.939,1042.011 417.805 C 1115.024 401.855,1207.918 398.457,1301.065 408.330 M1162.000 509.555 C 1133.674 521.930,1110.091 550.896,1101.819 583.473 L 1097.282 601.342 1050.736 616.424 C 962.444 645.032,904.550 689.433,854.343 767.046 C 832.451 800.887,812.883 848.050,807.761 879.320 C 800.997 920.616,803.145 1003.377,811.866 1037.477 C 830.304 1109.569,878.955 1181.196,941.821 1228.808 C 979.643 1257.453,1014.927 1274.323,1067.827 1289.056 L 1099.939 1298.000 1099.970 1448.395 L 1100.000 1598.789 986.591 1600.986 C 860.938 1603.421,859.975 1603.609,830.670 1631.441 C 822.239 1639.448,812.647 1651.135,809.355 1657.412 C 801.275 1672.816,801.289 1727.155,809.377 1742.795 C 816.905 1757.353,848.472 1786.741,863.031 1792.746 C 869.711 1795.501,916.544 1798.195,982.811 1799.635 C 1047.168 1801.034,1093.079 1803.634,1095.187 1806.000 C 1097.148 1808.200,1102.862 1820.398,1107.884 1833.107 C 1124.308 1874.666,1170.376 1904.051,1210.486 1898.554 C 1247.602 1893.466,1281.341 1865.209,1294.251 1828.398 C 1297.799 1818.279,1302.014 1807.421,1303.617 1804.270 C 1305.220 1801.118,1323.764 1792.763,1344.826 1785.701 C 1466.441 1744.929,1543.021 1670.288,1584.599 1552.000 C 1592.827 1528.592,1593.751 1518.622,1593.869 1452.000 C 1593.987 1385.086,1593.111 1375.319,1584.715 1350.000 C 1545.120 1230.603,1453.466 1143.330,1334.729 1111.963 L 1300.000 1102.788 1300.000 951.847 L 1300.000 800.905 1411.000 798.955 C 1475.759 797.816,1527.737 795.152,1535.772 792.560 C 1552.767 787.076,1578.000 763.191,1588.692 742.468 C 1599.727 721.080,1599.727 678.920,1588.692 657.532 C 1577.819 636.460,1552.522 612.742,1535.772 607.918 C 1528.197 605.736,1473.830 602.772,1414.955 601.332 C 1345.369 599.629,1306.768 597.188,1304.644 594.356 C 1302.848 591.960,1298.382 581.878,1294.721 571.950 C 1279.113 529.630,1242.812 503.884,1199.133 504.157 C 1185.310 504.243,1168.600 506.672,1162.000 509.555 M1100.000 950.081 L 1100.000 1092.163 1083.326 1083.656 C 1059.075 1071.284,1028.456 1037.872,1014.980 1009.076 C 1004.069 985.758,1003.347 981.287,1004.636 945.004 C 1006.313 897.820,1014.425 879.050,1047.588 845.621 C 1064.957 828.113,1090.192 809.734,1099.000 808.177 C 1099.550 808.080,1100.000 871.937,1100.000 950.081 M1347.640 1340.577 C 1366.957 1359.138,1385.149 1385.358,1391.366 1403.597 C 1393.915 1411.075,1395.999 1432.675,1395.997 1451.597 C 1395.994 1481.128,1394.376 1489.419,1384.572 1510.143 C 1371.304 1538.188,1340.568 1571.466,1316.674 1583.656 L 1300.000 1592.163 1300.000 1449.825 L 1300.000 1307.488 1315.905 1316.427 C 1324.653 1321.344,1338.934 1332.211,1347.640 1340.577 " fill="#1D1E23" stroke="none" fill-rule="evenodd"/></svg>