<svg viewBox="0 0 2400 2400" fill="none" xmlns="http://www.w3.org/2000/svg"><path d="M1136.000 202.380 C 968.975 217.003,836.397 256.878,706.000 331.710 C 526.782 434.558,394.992 574.823,302.821 760.815 C 96.244 1177.668,210.444 1687.611,576.000 1980.656 C 774.116 2139.474,1034.098 2218.475,1284.000 2195.798 C 1414.432 2183.963,1524.888 2153.128,1642.000 2095.859 C 2002.714 1919.466,2224.508 1536.074,2196.757 1136.908 C 2186.570 990.391,2153.525 869.888,2089.143 744.483 C 1998.592 568.102,1867.744 431.417,1694.000 331.710 C 1582.716 267.846,1451.585 224.038,1324.000 208.099 C 1287.329 203.518,1165.378 199.808,1136.000 202.380 M1283.158 404.231 C 1467.915 424.356,1639.211 507.025,1768.843 638.627 C 2007.181 880.586,2067.120 1239.420,1920.424 1546.089 C 1878.326 1634.096,1827.471 1704.385,1755.440 1774.120 C 1688.551 1838.878,1629.376 1880.335,1547.148 1920.047 C 1273.943 2051.991,953.437 2018.500,710.000 1832.570 C 676.073 1806.658,607.500 1739.421,578.875 1704.000 C 428.558 1517.994,368.547 1272.854,416.148 1039.272 C 439.979 922.331,500.418 793.629,575.471 700.000 C 744.224 489.481,1017.453 375.288,1283.158 404.231 M1100.000 551.598 L 1100.000 603.197 1071.000 609.722 C 948.315 637.328,851.596 729.331,813.348 854.814 C 803.755 886.286,802.622 896.333,802.622 950.000 C 802.622 1003.654,803.756 1013.718,813.338 1045.153 C 851.063 1168.911,942.286 1257.268,1065.000 1288.909 L 1100.000 1297.933 1100.000 1448.967 L 1100.000 1600.000 950.000 1600.000 L 800.000 1600.000 800.000 1700.000 L 800.000 1800.000 950.000 1800.000 L 1100.000 1800.000 1100.000 1850.000 L 1100.000 1900.000 1200.000 1900.000 L 1300.000 1900.000 1300.000 1848.967 L 1300.000 1797.933 1335.000 1788.909 C 1457.936 1757.211,1548.868 1669.144,1586.652 1545.186 C 1596.245 1513.714,1597.378 1503.667,1597.378 1450.000 C 1597.378 1396.333,1596.245 1386.286,1586.652 1354.814 C 1568.149 1294.109,1544.943 1254.111,1501.528 1208.089 C 1457.224 1161.124,1391.511 1123.640,1329.000 1109.675 L 1300.000 1103.197 1300.000 951.598 L 1300.000 800.000 1450.000 800.000 L 1600.000 800.000 1600.000 700.000 L 1600.000 600.000 1450.000 600.000 L 1300.000 600.000 1300.000 550.000 L 1300.000 500.000 1200.000 500.000 L 1100.000 500.000 1100.000 551.598 M1100.000 950.067 L 1100.000 1092.135 1081.000 1082.397 C 1054.941 1069.042,1026.601 1038.753,1013.261 1010.000 C 1003.669 989.327,1002.131 981.010,1002.162 950.000 C 1002.193 919.116,1003.787 910.530,1013.384 889.582 C 1025.847 862.378,1056.571 829.697,1082.000 816.596 C 1090.800 812.063,1098.450 808.274,1099.000 808.177 C 1099.550 808.080,1100.000 871.930,1100.000 950.067 M1356.802 1346.670 C 1367.143 1357.302,1380.615 1376.800,1386.739 1390.000 C 1396.317 1410.643,1397.874 1419.036,1397.874 1450.000 C 1397.874 1480.964,1396.317 1489.357,1386.739 1510.000 C 1373.399 1538.753,1345.059 1569.042,1319.000 1582.397 L 1300.000 1592.135 1300.000 1450.000 L 1300.000 1307.865 1319.000 1317.603 C 1329.450 1322.959,1346.461 1336.039,1356.802 1346.670 " fill="#1D1E23" stroke="none" fill-rule="evenodd"/></svg>