<svg viewBox="0 0 2400 2400" fill="none" xmlns="http://www.w3.org/2000/svg"><path d="M1058.000 212.089 C 899.509 236.456,773.995 284.671,644.000 371.123 C 407.657 528.303,253.653 773.803,209.354 1064.000 C 200.730 1120.495,199.547 1263.862,207.258 1318.000 C 240.714 1552.881,337.421 1750.633,495.786 1908.000 C 653.456 2064.677,849.644 2160.265,1080.000 2192.644 C 1133.523 2200.167,1277.747 2199.038,1333.221 2190.660 C 1557.504 2156.791,1749.485 2061.754,1904.214 1908.000 C 2059.343 1753.848,2158.121 1555.836,2190.552 1334.000 C 2200.073 1268.870,2200.111 1140.602,2190.630 1072.000 C 2161.027 857.815,2073.205 671.763,1927.764 515.118 C 1776.133 351.808,1541.253 233.568,1318.000 208.162 C 1258.344 201.374,1113.466 203.562,1058.000 212.089 M1332.000 411.558 C 1816.642 496.273,2111.321 984.941,1958.206 1450.000 C 1913.042 1587.177,1837.053 1702.199,1726.534 1800.674 C 1577.465 1933.499,1371.836 2006.654,1170.000 1998.669 C 691.927 1979.753,340.431 1553.470,410.271 1077.293 C 433.016 922.211,510.371 765.386,621.460 649.134 C 750.973 513.604,924.445 428.368,1120.000 404.175 C 1166.770 398.388,1279.023 402.298,1332.000 411.558 M1180.000 503.702 C 1158.451 508.116,1142.399 518.047,1125.162 537.629 C 1110.571 554.206,1100.000 577.699,1100.000 593.550 C 1100.000 601.340,1091.196 605.494,1056.231 614.200 C 952.441 640.046,860.442 726.051,819.475 835.529 C 807.239 868.227,806.489 873.431,804.890 936.693 C 803.036 1010.085,805.403 1027.152,824.194 1075.878 C 852.814 1150.093,910.115 1215.895,980.767 1255.680 C 1004.245 1268.901,1059.977 1289.382,1085.508 1294.172 L 1100.000 1296.890 1100.000 1448.035 L 1100.000 1599.180 987.000 1600.619 C 878.385 1602.002,873.266 1602.418,855.087 1611.344 C 837.069 1620.190,819.527 1638.221,807.750 1660.000 C 804.576 1665.869,802.343 1682.393,802.343 1700.000 C 802.343 1717.607,804.576 1734.131,807.750 1740.000 C 819.518 1761.763,837.065 1779.809,855.087 1788.685 C 873.211 1797.612,878.337 1798.046,978.000 1799.096 C 1035.200 1799.699,1085.660 1800.986,1090.133 1801.955 C 1095.739 1803.170,1099.710 1809.042,1102.916 1820.858 C 1123.737 1897.601,1212.792 1924.544,1268.037 1870.815 C 1282.326 1856.917,1299.898 1823.160,1299.961 1809.485 C 1300.004 1800.100,1302.594 1798.829,1356.000 1781.992 C 1461.403 1748.762,1543.112 1668.716,1581.301 1561.279 C 1593.075 1528.154,1593.926 1521.960,1595.244 1459.827 C 1596.354 1407.508,1595.250 1388.247,1589.972 1367.827 C 1557.101 1240.643,1459.773 1143.090,1334.376 1111.639 L 1300.000 1103.018 1300.000 951.834 L 1300.000 800.651 1413.000 799.240 C 1538.857 797.668,1543.109 796.877,1569.021 770.197 C 1590.359 748.225,1597.761 730.146,1597.761 700.000 C 1597.761 669.854,1590.359 651.775,1569.021 629.803 C 1543.748 603.781,1537.899 602.639,1422.000 601.097 C 1364.800 600.336,1313.950 598.844,1309.000 597.781 C 1303.930 596.692,1299.962 592.824,1299.912 588.924 C 1299.759 576.881,1284.032 546.506,1270.774 532.649 C 1247.487 508.312,1212.293 497.088,1180.000 503.702 M1100.000 950.250 L 1100.000 1092.499 1079.607 1081.400 C 1055.042 1068.030,1028.362 1039.317,1014.319 1011.137 C 1005.273 992.985,1004.000 985.440,1004.000 950.000 C 1004.000 914.107,1005.213 907.127,1014.811 887.785 C 1027.308 862.604,1059.506 828.648,1082.268 816.648 C 1090.921 812.086,1098.450 808.274,1099.000 808.177 C 1099.550 808.080,1100.000 872.012,1100.000 950.250 M1353.887 1345.438 C 1365.157 1356.747,1379.243 1375.803,1385.189 1387.785 C 1394.787 1407.127,1396.000 1414.107,1396.000 1450.000 C 1396.000 1485.440,1394.727 1492.985,1385.681 1511.137 C 1371.638 1539.317,1344.958 1568.030,1320.393 1581.400 L 1300.000 1592.499 1300.000 1450.168 L 1300.000 1307.837 1316.699 1316.356 C 1325.883 1321.042,1342.618 1334.128,1353.887 1345.438 " fill="#1D1E23" stroke="none" fill-rule="evenodd"/></svg>