<svg viewBox="0 0 2400 2400" fill="none" xmlns="http://www.w3.org/2000/svg"><path d="M1123.505 208.103 C 987.392 217.588,875.891 248.279,754.000 309.807 C 630.123 372.338,525.266 454.010,443.050 552.000 C 313.686 706.183,239.286 869.938,212.245 1060.000 C 201.049 1138.689,198.734 1194.460,203.950 1259.865 C 218.604 1443.649,276.880 1614.750,374.488 1760.568 C 435.754 1852.095,544.154 1959.959,640.000 2024.766 C 742.901 2094.344,844.598 2138.911,975.671 2171.870 C 1061.324 2193.408,1101.198 2197.108,1223.863 2194.899 C 1322.234 2193.127,1338.930 2191.837,1380.148 2182.823 C 1523.962 2151.373,1645.144 2101.508,1752.000 2029.812 C 1970.498 1883.208,2116.735 1668.821,2176.149 1408.000 C 2193.721 1330.862,2197.351 1286.352,2194.903 1178.019 C 2192.458 1069.754,2185.471 1018.858,2161.914 937.691 C 2109.852 758.314,2032.550 624.451,1910.142 501.702 C 1777.369 368.560,1610.049 274.551,1426.000 229.686 C 1343.105 209.478,1224.844 201.040,1123.505 208.103 M1319.635 412.432 C 1393.119 421.247,1498.974 455.888,1572.000 495.018 C 1751.605 591.259,1889.149 753.268,1953.575 944.465 C 2037.625 1193.898,1993.656 1466.967,1834.966 1681.085 C 1804.612 1722.041,1736.339 1792.573,1694.000 1826.715 C 1548.918 1943.708,1328.607 2012.295,1148.620 1996.501 C 853.070 1970.567,617.189 1813.102,487.692 1555.292 C 408.997 1398.621,384.689 1210.959,420.285 1034.906 C 441.728 928.855,494.754 811.949,562.596 721.156 C 590.553 683.742,655.778 615.621,691.871 586.141 C 813.840 486.519,985.655 416.157,1126.000 408.354 C 1184.555 405.098,1274.241 406.987,1319.635 412.432 M1167.036 509.448 C 1158.806 512.519,1147.443 518.065,1141.786 521.773 C 1128.885 530.225,1110.162 559.428,1102.121 583.636 L 1095.984 602.112 1061.113 613.952 C 963.268 647.173,897.704 697.496,850.468 775.634 C 820.523 825.169,807.232 868.493,804.954 924.000 C 801.315 1012.638,815.982 1072.293,856.789 1134.834 C 907.401 1212.402,988.101 1269.577,1079.000 1292.270 L 1100.000 1297.512 1100.000 1448.756 L 1100.000 1600.000 1047.000 1600.125 C 1017.850 1600.194,965.336 1601.930,930.302 1603.981 C 870.858 1607.463,865.407 1608.457,848.691 1618.856 C 838.839 1624.985,825.357 1636.727,818.731 1644.949 C 808.148 1658.080,806.459 1663.762,804.844 1691.660 C 802.560 1731.119,811.226 1751.909,839.998 1775.999 C 862.572 1794.899,858.276 1794.225,1002.000 1801.404 L 1094.000 1806.000 1106.247 1829.060 C 1138.563 1889.908,1190.804 1913.098,1239.547 1888.231 C 1258.962 1878.326,1286.331 1848.333,1294.434 1828.081 C 1302.649 1807.550,1318.209 1794.527,1344.876 1785.861 C 1356.494 1782.086,1381.663 1770.985,1400.806 1761.194 C 1487.301 1716.952,1545.638 1652.480,1580.150 1562.987 L 1592.548 1530.838 1591.217 1444.419 L 1589.887 1358.000 1573.802 1322.000 C 1526.093 1215.224,1444.677 1144.313,1332.613 1111.932 L 1300.000 1102.508 1300.000 951.829 L 1300.000 801.151 1409.000 798.839 C 1469.419 797.557,1524.630 794.558,1532.876 792.110 C 1551.173 786.677,1566.917 773.764,1582.286 751.587 C 1593.054 736.049,1594.000 731.863,1594.000 699.736 C 1594.000 667.033,1593.206 663.692,1581.652 647.742 C 1574.861 638.366,1562.143 625.508,1553.391 619.168 C 1537.480 607.642,1537.467 607.640,1449.739 603.864 C 1401.482 601.786,1349.197 599.036,1333.548 597.753 L 1305.096 595.420 1295.548 574.735 C 1283.488 548.608,1263.131 525.760,1242.562 515.267 C 1222.155 504.856,1186.668 502.122,1167.036 509.448 M1100.000 950.256 L 1100.000 1092.512 1083.460 1083.256 C 1063.287 1071.967,1032.838 1038.553,1018.176 1011.615 C 1007.885 992.707,1007.391 989.332,1008.681 946.834 C 1010.311 893.151,1015.392 880.350,1048.169 847.347 C 1066.206 829.185,1093.458 808.098,1099.000 808.015 C 1099.550 808.007,1100.000 872.015,1100.000 950.256 M1349.911 1346.060 C 1386.536 1382.148,1391.812 1395.216,1391.875 1450.000 C 1391.922 1491.201,1391.193 1495.276,1380.418 1514.061 C 1364.697 1541.469,1336.402 1572.104,1316.510 1583.256 L 1300.000 1592.512 1300.000 1450.153 L 1300.000 1307.795 1311.655 1313.822 C 1318.066 1317.137,1335.281 1331.644,1349.911 1346.060 " fill="#1D1E23" stroke="none" fill-rule="evenodd"/></svg>