<svg viewBox="0 0 2400 2400" fill="none" xmlns="http://www.w3.org/2000/svg"><path d="M1116.000 208.159 C 892.698 222.551,671.784 322.808,504.562 485.648 C 398.108 589.313,312.290 720.963,261.839 858.000 C 215.501 983.866,193.703 1136.582,203.890 1264.000 C 219.710 1461.876,287.579 1645.346,402.312 1800.396 C 443.747 1856.391,541.880 1953.666,601.878 1998.217 C 659.782 2041.213,733.247 2084.651,791.140 2110.122 C 877.035 2147.913,995.523 2181.908,1075.895 2191.820 C 1119.693 2197.221,1280.307 2197.221,1324.105 2191.820 C 1405.233 2181.814,1511.225 2151.768,1599.010 2113.891 C 1882.248 1991.679,2096.044 1737.239,2170.293 1434.000 C 2191.685 1346.631,2196.000 1309.097,2196.000 1210.377 C 2196.000 1078.412,2184.632 1002.689,2148.203 892.000 C 2075.770 671.910,1943.676 497.325,1756.668 374.520 C 1668.665 316.730,1600.940 283.865,1503.333 251.584 C 1378.312 210.236,1270.801 198.183,1116.000 208.159 M1335.391 413.511 C 1500.946 444.510,1639.562 515.536,1755.088 628.560 C 1962.149 831.136,2042.208 1118.197,1970.428 1400.685 C 1921.448 1593.440,1796.422 1766.570,1629.052 1873.403 C 1489.629 1962.398,1304.621 2009.701,1146.913 1996.676 C 890.663 1975.514,676.120 1851.054,537.190 1642.965 C 433.677 1487.924,389.154 1304.710,407.977 1111.249 C 424.773 938.618,507.545 765.189,633.556 638.601 C 753.562 518.044,921.513 434.211,1092.000 409.767 C 1142.389 402.543,1288.844 404.796,1335.391 413.511 M1169.055 507.893 C 1140.898 514.580,1114.719 543.705,1102.431 582.017 L 1096.010 602.033 1049.374 617.780 C 947.735 652.098,875.744 715.688,831.397 810.322 C 808.012 860.226,802.843 890.120,805.173 962.000 C 806.697 1009.023,809.042 1028.056,816.018 1050.000 C 834.442 1107.959,865.026 1156.600,910.651 1200.503 C 956.521 1244.643,1008.244 1273.317,1073.000 1290.506 L 1100.000 1297.673 1100.000 1448.836 L 1100.000 1600.000 1039.000 1600.218 C 1005.450 1600.338,952.165 1601.927,920.589 1603.749 C 866.420 1606.875,862.262 1607.710,846.969 1618.531 C 838.055 1624.839,825.243 1636.851,818.499 1645.225 C 808.019 1658.237,806.008 1664.486,804.668 1688.200 C 802.220 1731.529,805.671 1742.192,830.022 1766.544 C 841.823 1778.344,856.179 1789.787,861.924 1791.971 C 869.569 1794.878,1033.029 1803.460,1090.316 1803.962 C 1092.690 1803.983,1098.924 1813.450,1104.170 1825.000 C 1118.002 1855.455,1132.810 1872.998,1154.706 1884.868 C 1182.035 1899.684,1199.184 1901.968,1225.552 1894.302 C 1254.557 1885.870,1283.730 1857.671,1294.480 1827.674 C 1302.797 1804.466,1312.799 1796.288,1346.000 1785.553 C 1410.037 1764.848,1483.323 1716.006,1520.728 1669.104 C 1542.611 1641.667,1567.132 1597.543,1582.474 1558.000 C 1592.951 1530.994,1593.339 1527.230,1593.406 1452.000 C 1593.469 1380.401,1592.712 1371.866,1584.179 1348.000 C 1540.949 1227.085,1453.049 1144.689,1331.856 1111.475 L 1300.000 1102.745 1300.000 951.372 L 1300.000 800.000 1375.000 799.769 C 1416.250 799.642,1470.353 798.074,1495.229 796.283 C 1537.033 793.275,1541.576 792.128,1555.229 781.134 C 1563.353 774.591,1575.400 761.605,1582.000 752.275 C 1593.146 736.518,1594.000 732.798,1594.000 700.000 C 1594.000 667.154,1593.154 663.486,1581.888 647.456 C 1575.227 637.978,1562.296 624.966,1553.153 618.540 L 1536.530 606.857 1422.213 602.043 C 1359.339 599.395,1307.266 596.503,1306.497 595.615 C 1305.728 594.727,1299.403 581.941,1292.441 567.202 C 1268.664 516.860,1223.240 495.025,1169.055 507.893 M1100.000 950.081 L 1100.000 1092.163 1084.674 1084.344 C 1064.742 1074.176,1027.615 1033.904,1015.517 1009.330 C 1007.339 992.721,1006.037 984.370,1006.264 950.000 C 1006.581 901.960,1013.690 882.752,1042.717 851.503 C 1058.139 834.900,1092.808 808.000,1098.783 808.000 C 1099.452 808.000,1100.000 871.937,1100.000 950.081 M1350.428 1345.687 C 1387.606 1382.866,1393.685 1397.187,1393.858 1448.000 C 1393.981 1484.323,1392.714 1492.613,1384.483 1509.330 C 1372.385 1533.904,1335.258 1574.176,1315.326 1584.344 L 1300.000 1592.163 1300.000 1449.979 L 1300.000 1307.795 1312.980 1314.507 C 1320.119 1318.198,1336.970 1332.230,1350.428 1345.687 " fill="#1D1E23" stroke="none" fill-rule="evenodd"/></svg>