<svg viewBox="0 0 2400 2400" fill="none" xmlns="http://www.w3.org/2000/svg"><path d="M1123.505 208.103 C 987.392 217.588,875.891 248.279,754.000 309.807 C 630.123 372.338,525.266 454.010,443.050 552.000 C 313.686 706.183,239.286 869.938,212.245 1060.000 C 201.049 1138.689,198.734 1194.460,203.950 1259.865 C 218.604 1443.649,276.880 1614.750,374.488 1760.568 C 435.754 1852.095,544.154 1959.959,640.000 2024.766 C 742.901 2094.344,844.598 2138.911,975.671 2171.870 C 1061.324 2193.408,1101.198 2197.108,1223.863 2194.899 C 1322.234 2193.127,1338.930 2191.837,1380.148 2182.823 C 1523.962 2151.373,1645.144 2101.508,1752.000 2029.812 C 1970.498 1883.208,2116.735 1668.821,2176.149 1408.000 C 2193.721 1330.862,2197.351 1286.352,2194.903 1178.019 C 2192.458 1069.754,2185.471 1018.858,2161.914 937.691 C 2109.852 758.314,2032.550 624.451,1910.142 501.702 C 1777.369 368.560,1610.049 274.551,1426.000 229.686 C 1343.105 209.478,1224.844 201.040,1123.505 208.103 M1319.635 412.432 C 1393.119 421.247,1498.974 455.888,1572.000 495.018 C 1751.605 591.259,1889.149 753.268,1953.575 944.465 C 2037.625 1193.898,1993.656 1466.967,1834.966 1681.085 C 1804.612 1722.041,1736.339 1792.573,1694.000 1826.715 C 1548.918 1943.708,1328.607 2012.295,1148.620 1996.501 C 853.070 1970.567,617.189 1813.102,487.692 1555.292 C 408.997 1398.621,384.689 1210.959,420.285 1034.906 C 441.728 928.855,494.754 811.949,562.596 721.156 C 590.553 683.742,655.778 615.621,691.871 586.141 C 813.840 486.519,985.655 416.157,1126.000 408.354 C 1184.555 405.098,1274.241 406.987,1319.635 412.432 M1100.000 551.254 L 1100.000 602.508 1067.000 611.994 C 969.730 639.953,883.853 707.970,840.713 791.218 C 805.203 859.742,804.000 864.842,804.000 946.816 C 804.000 1027.393,806.922 1042.287,832.791 1093.596 C 883.355 1193.886,964.088 1260.637,1070.651 1290.264 C 1092.602 1296.367,1095.473 1298.367,1097.609 1309.047 C 1098.924 1315.621,1100.000 1383.775,1100.000 1460.500 L 1100.000 1600.000 950.000 1600.000 L 800.000 1600.000 800.000 1700.000 L 800.000 1800.000 950.000 1800.000 L 1100.000 1800.000 1100.000 1850.000 L 1100.000 1900.000 1200.000 1900.000 L 1300.000 1900.000 1300.000 1848.594 L 1300.000 1797.187 1327.000 1790.000 C 1436.890 1760.750,1512.944 1698.091,1564.904 1594.000 C 1591.792 1540.134,1593.816 1529.854,1593.647 1448.000 C 1593.496 1374.712,1593.372 1373.675,1580.746 1340.230 C 1538.382 1228.015,1449.031 1146.243,1330.757 1111.446 L 1300.000 1102.397 1300.000 951.199 L 1300.000 800.000 1450.000 800.000 L 1600.000 800.000 1600.000 700.000 L 1600.000 600.000 1450.000 600.000 L 1300.000 600.000 1300.000 550.000 L 1300.000 500.000 1200.000 500.000 L 1100.000 500.000 1100.000 551.254 M1100.000 950.256 L 1100.000 1092.512 1083.460 1083.256 C 1063.287 1071.967,1032.838 1038.553,1018.176 1011.615 C 1007.885 992.707,1007.391 989.332,1008.681 946.834 C 1010.311 893.151,1015.392 880.350,1048.169 847.347 C 1066.206 829.185,1093.458 808.098,1099.000 808.015 C 1099.550 808.007,1100.000 872.015,1100.000 950.256 M1349.911 1346.060 C 1386.536 1382.148,1391.812 1395.216,1391.875 1450.000 C 1391.922 1491.201,1391.193 1495.276,1380.418 1514.061 C 1364.697 1541.469,1336.402 1572.104,1316.510 1583.256 L 1300.000 1592.512 1300.000 1450.153 L 1300.000 1307.795 1311.655 1313.822 C 1318.066 1317.137,1335.281 1331.644,1349.911 1346.060 " fill="#1D1E23" stroke="none" fill-rule="evenodd"/></svg>