<svg viewBox="0 0 2400 2400" fill="none" xmlns="http://www.w3.org/2000/svg"><path d="M1101.602 208.349 C 1015.453 214.570,900.591 243.073,813.574 279.823 C 455.987 430.843,217.076 774.804,202.217 1160.000 C 193.071 1397.082,273.147 1639.953,421.802 1826.000 C 455.482 1868.152,529.003 1941.242,574.000 1977.306 C 710.531 2086.733,867.586 2156.330,1050.000 2188.241 C 1113.028 2199.267,1269.704 2200.250,1337.604 2190.045 C 1512.931 2163.696,1682.234 2090.860,1820.000 1982.513 C 1866.692 1945.791,1938.787 1874.061,1977.306 1826.000 C 2074.027 1705.322,2142.149 1562.941,2175.769 1411.195 C 2182.251 1381.938,2189.638 1342.700,2192.185 1324.000 C 2198.983 1274.086,2197.890 1123.200,2190.350 1070.779 C 2174.010 957.175,2142.244 854.043,2093.394 756.000 C 2042.437 653.728,1984.790 572.765,1908.092 495.752 C 1753.456 340.483,1522.639 229.765,1308.576 208.177 C 1261.905 203.471,1168.073 203.548,1101.602 208.349 M1301.065 408.330 C 1350.074 413.525,1424.301 431.498,1475.048 450.458 C 1673.486 524.596,1829.327 667.523,1921.595 860.000 C 2046.518 1120.597,2015.157 1440.031,1841.611 1674.700 C 1754.990 1791.829,1638.131 1883.240,1505.648 1937.501 C 1324.061 2011.874,1134.215 2018.718,948.000 1957.604 C 661.222 1863.486,452.360 1611.972,409.834 1309.538 C 401.852 1252.776,401.999 1142.623,410.133 1084.301 C 424.983 977.837,463.771 872.722,524.105 775.443 C 636.944 593.510,821.683 465.939,1042.011 417.805 C 1115.024 401.855,1207.918 398.457,1301.065 408.330 M1100.000 551.394 L 1100.000 602.788 1065.863 611.806 C 993.468 630.931,925.334 674.288,880.927 729.489 C 850.930 766.777,836.001 792.838,818.133 839.104 L 804.000 875.698 804.000 950.353 L 804.000 1025.008 818.472 1061.504 C 867.615 1185.438,957.091 1264.332,1081.000 1292.981 L 1100.000 1297.374 1100.000 1448.687 L 1100.000 1600.000 950.000 1600.000 L 800.000 1600.000 800.000 1700.000 L 800.000 1800.000 950.000 1800.000 L 1100.000 1800.000 1100.000 1850.000 L 1100.000 1900.000 1200.000 1900.000 L 1300.000 1900.000 1300.030 1849.000 L 1300.061 1798.000 1332.173 1789.056 C 1408.953 1767.672,1469.535 1730.011,1515.762 1674.925 C 1545.797 1639.136,1581.779 1568.857,1589.963 1530.000 C 1598.120 1491.275,1597.897 1402.246,1589.559 1368.256 C 1570.652 1291.183,1515.664 1211.234,1451.678 1167.781 C 1418.420 1145.196,1360.018 1118.024,1327.000 1109.774 L 1300.000 1103.027 1300.000 951.514 L 1300.000 800.000 1450.000 800.000 L 1600.000 800.000 1600.000 700.000 L 1600.000 600.000 1450.000 600.000 L 1300.000 600.000 1300.000 550.000 L 1300.000 500.000 1200.000 500.000 L 1100.000 500.000 1100.000 551.394 M1100.000 950.081 L 1100.000 1092.163 1083.326 1083.656 C 1059.075 1071.284,1028.456 1037.872,1014.980 1009.076 C 1004.069 985.758,1003.347 981.287,1004.636 945.004 C 1006.313 897.820,1014.425 879.050,1047.588 845.621 C 1064.957 828.113,1090.192 809.734,1099.000 808.177 C 1099.550 808.080,1100.000 871.937,1100.000 950.081 M1347.640 1340.577 C 1366.957 1359.138,1385.149 1385.358,1391.366 1403.597 C 1393.915 1411.075,1395.999 1432.675,1395.997 1451.597 C 1395.994 1481.128,1394.376 1489.419,1384.572 1510.143 C 1371.304 1538.188,1340.568 1571.466,1316.674 1583.656 L 1300.000 1592.163 1300.000 1449.825 L 1300.000 1307.488 1315.905 1316.427 C 1324.653 1321.344,1338.934 1332.211,1347.640 1340.577 " fill="#1D1E23" stroke="none" fill-rule="evenodd"/></svg>