<svg viewBox="0 0 2400 2400" fill="none" xmlns="http://www.w3.org/2000/svg"><path d="M1113.315 204.372 C 995.007 214.925,875.686 248.306,766.000 301.537 C 659.606 353.170,576.367 411.685,498.022 489.920 C 334.830 652.883,240.884 842.895,207.264 1078.000 C 199.454 1132.612,200.678 1279.389,209.415 1336.000 C 230.847 1474.870,272.879 1594.848,339.595 1707.591 C 479.640 1944.253,705.744 2109.858,976.000 2173.710 C 1074.274 2196.929,1077.939 2197.147,1401.000 2198.951 L 1700.000 2200.621 1700.000 2100.310 L 1700.000 2000.000 1469.000 1999.796 C 1341.950 1999.684,1202.000 1998.032,1158.000 1996.124 C 1086.463 1993.022,1072.287 1991.192,1024.000 1978.829 C 867.523 1938.764,745.723 1869.392,635.155 1757.360 C 566.343 1687.637,525.081 1629.705,481.765 1542.000 C 350.942 1277.113,381.673 967.423,562.860 724.789 C 591.248 686.774,660.229 615.057,698.928 583.324 C 940.219 385.469,1267.256 346.073,1542.000 481.765 C 1708.485 563.989,1836.916 692.446,1917.918 857.759 C 1980.881 986.256,1997.554 1070.182,1997.829 1260.000 L 1998.000 1378.000 1986.000 1401.812 C 1971.761 1430.068,1937.330 1468.574,1914.399 1481.889 C 1888.668 1496.830,1853.668 1502.513,1825.381 1496.345 C 1812.521 1493.540,1794.800 1487.081,1786.000 1481.991 C 1760.923 1467.486,1728.747 1432.402,1715.051 1404.633 L 1702.540 1379.266 1699.641 1254.563 C 1696.516 1120.156,1693.543 1097.987,1669.789 1032.000 C 1613.961 876.907,1483.402 757.828,1325.180 717.692 C 1184.799 682.081,1043.658 706.144,923.424 786.188 C 816.438 857.411,744.631 960.622,711.992 1090.086 C 704.189 1121.040,702.948 1136.220,703.009 1200.000 C 703.084 1278.539,705.664 1296.009,726.400 1358.370 C 796.792 1570.070,1006.568 1711.544,1230.000 1698.001 C 1339.944 1691.337,1454.186 1644.594,1530.098 1575.214 L 1552.095 1555.110 1591.324 1592.555 C 1645.956 1644.702,1697.370 1673.509,1766.586 1690.753 C 1803.594 1699.972,1887.617 1699.910,1925.451 1690.635 C 2056.873 1658.418,2152.046 1565.694,2188.865 1434.000 C 2197.370 1403.581,2197.817 1394.788,2197.906 1256.000 C 2198.005 1102.584,2196.295 1080.291,2177.816 994.000 C 2105.522 656.410,1865.380 379.678,1541.547 260.781 C 1457.082 229.770,1367.831 212.077,1256.000 204.177 C 1191.090 199.591,1166.543 199.625,1113.315 204.372 M1263.106 908.176 C 1364.384 925.410,1462.394 1019.496,1489.846 1125.840 C 1498.118 1157.884,1498.118 1242.116,1489.846 1274.160 C 1466.730 1363.707,1393.785 1446.608,1310.537 1477.943 C 1235.739 1506.097,1164.629 1506.317,1091.214 1478.624 C 1024.058 1453.291,965.957 1399.131,930.292 1328.616 C 894.612 1258.073,894.578 1142.342,930.216 1071.384 C 984.394 963.512,1094.527 896.072,1206.000 902.507 C 1225.800 903.650,1251.498 906.201,1263.106 908.176 " fill="#1D1E23" stroke="none" fill-rule="evenodd"/></svg>