<svg viewBox="0 0 2400 2400" fill="none" xmlns="http://www.w3.org/2000/svg"><path d="M1078.000 211.768 C 930.342 223.484,740.358 299.867,601.119 403.498 C 528.511 457.538,441.687 545.955,389.184 619.322 C 257.318 803.591,186.986 1047.178,203.520 1262.347 C 217.244 1440.953,267.251 1589.871,360.475 1729.755 C 467.573 1890.458,597.777 2005.547,765.598 2087.851 C 860.062 2134.180,967.906 2169.870,1061.715 2185.850 C 1110.641 2194.184,1276.317 2199.699,1483.026 2199.874 L 1632.052 2200.000 1659.589 2172.951 C 1681.940 2150.995,1688.338 2141.820,1693.563 2124.225 C 1702.353 2094.625,1701.834 2088.948,1687.768 2060.799 C 1673.864 2032.975,1658.431 2018.203,1636.876 2012.086 C 1628.694 2009.764,1565.300 2006.100,1496.000 2003.943 C 1045.717 1989.928,1081.237 1993.194,970.013 1955.579 C 830.591 1908.428,742.907 1856.756,648.957 1766.383 C 574.113 1694.388,522.479 1623.294,478.155 1531.205 C 427.302 1425.553,411.962 1359.533,409.018 1233.646 C 405.125 1067.240,421.486 984.377,482.202 862.982 C 594.237 638.980,799.168 473.182,1024.000 424.643 C 1140.225 399.551,1278.695 401.544,1392.000 429.941 C 1507.426 458.870,1614.056 513.349,1702.958 588.817 C 1842.721 707.460,1946.166 886.762,1981.933 1072.368 C 1988.862 1108.323,1995.713 1230.577,1995.891 1321.440 C 1995.999 1376.380,1995.883 1377.101,1983.000 1401.418 C 1966.358 1432.829,1922.885 1477.404,1898.274 1488.291 C 1876.428 1497.954,1837.160 1499.610,1813.414 1491.869 C 1792.482 1485.045,1769.602 1468.854,1747.872 1445.491 C 1708.524 1403.183,1706.726 1396.117,1700.152 1258.000 C 1694.645 1142.286,1690.724 1112.773,1674.121 1062.090 C 1636.787 948.119,1564.535 850.213,1472.282 788.587 C 1426.639 758.096,1402.073 745.501,1351.175 726.497 L 1312.349 712.000 1200.373 712.000 L 1088.397 712.000 1051.063 725.514 C 943.782 764.349,851.222 832.026,792.515 914.558 C 762.920 956.166,745.046 992.514,720.996 1060.000 L 703.178 1110.000 705.274 1200.000 C 706.966 1272.674,708.968 1296.389,715.670 1323.190 C 731.041 1384.658,761.788 1448.291,800.295 1498.330 C 821.563 1525.968,880.698 1584.030,910.000 1606.045 C 956.492 1640.975,1038.184 1675.838,1106.930 1690.088 C 1149.463 1698.904,1250.859 1698.837,1293.666 1689.965 C 1384.265 1671.186,1462.305 1633.435,1527.005 1577.091 L 1552.009 1555.315 1585.005 1586.026 C 1648.112 1644.764,1705.617 1676.790,1772.213 1690.284 C 1819.323 1699.829,1914.856 1696.553,1952.000 1684.117 C 2016.585 1662.495,2079.042 1620.354,2116.963 1572.814 C 2141.978 1541.455,2168.735 1490.094,2181.987 1448.000 C 2206.042 1371.592,2204.896 1155.016,2179.796 1034.000 C 2120.920 750.141,1961.498 511.592,1729.160 359.699 C 1680.136 327.648,1572.751 273.701,1528.000 258.641 C 1492.303 246.628,1415.376 227.101,1368.000 218.027 C 1328.648 210.490,1144.262 206.510,1078.000 211.768 M1269.504 912.174 C 1326.273 920.734,1397.452 968.811,1438.028 1026.000 C 1485.771 1093.289,1501.157 1153.206,1492.217 1237.021 C 1485.187 1302.929,1462.885 1350.308,1414.074 1403.028 C 1381.426 1438.291,1342.629 1464.571,1299.093 1480.913 C 1269.204 1492.131,1260.531 1493.505,1209.509 1495.099 C 1143.559 1497.159,1127.183 1493.699,1068.127 1465.230 C 1035.633 1449.565,1025.124 1441.791,994.127 1410.486 C 953.115 1369.066,926.199 1325.932,915.286 1284.138 C 907.458 1254.157,905.522 1166.160,911.946 1132.287 C 921.520 1081.803,949.103 1034.701,996.433 988.018 C 1042.031 943.042,1094.154 915.052,1145.283 908.086 C 1171.849 904.466,1231.387 906.425,1269.504 912.174 " fill="#1D1E23" stroke="none" fill-rule="evenodd"/></svg>