<svg viewBox="0 0 2400 2400" fill="none" xmlns="http://www.w3.org/2000/svg"><path d="M1116.000 204.238 C 879.892 225.101,664.110 324.849,497.822 490.000 C 440.639 546.792,410.121 583.816,365.861 650.093 C 281.931 775.771,230.727 913.925,207.264 1078.000 C 199.646 1131.271,200.776 1278.891,209.240 1336.234 C 240.873 1550.529,335.815 1739.815,488.000 1892.000 C 635.427 2039.427,819.544 2137.695,1027.451 2179.917 C 1111.660 2197.019,1164.907 2199.912,1396.287 2199.957 C 1643.189 2200.006,1639.840 2200.371,1670.105 2170.105 C 1717.986 2122.224,1705.139 2040.973,1645.005 2011.359 L 1626.000 2002.000 1382.000 1999.659 C 1176.752 1997.690,1131.974 1996.233,1100.056 1990.489 C 915.252 1957.231,764.168 1882.167,640.580 1762.205 C 513.056 1638.422,437.194 1492.260,408.988 1316.000 C 399.046 1253.874,400.161 1132.935,411.237 1072.000 C 426.186 989.761,447.054 926.358,482.987 854.000 C 629.462 559.049,939.693 378.421,1256.000 403.923 C 1583.182 430.302,1849.194 642.884,1956.078 963.386 C 1988.682 1061.151,2001.629 1160.686,1999.368 1296.188 L 1998.000 1378.199 1984.259 1406.100 C 1967.215 1440.703,1935.948 1472.721,1905.073 1487.185 C 1872.140 1502.613,1827.860 1502.613,1794.927 1487.185 C 1763.538 1472.480,1730.885 1438.998,1714.869 1405.095 L 1702.070 1378.000 1699.393 1260.000 C 1696.568 1135.419,1693.450 1111.387,1671.893 1048.000 C 1611.801 871.307,1468.204 743.200,1292.376 709.420 C 1245.029 700.323,1153.096 700.311,1106.900 709.394 C 964.276 737.438,839.226 826.450,766.294 951.842 C 744.497 989.320,725.432 1037.685,713.055 1086.904 C 703.422 1125.211,702.206 1137.557,702.109 1198.000 C 701.956 1293.306,715.764 1352.793,756.424 1432.000 C 841.090 1596.935,1010.996 1699.938,1198.476 1699.987 C 1323.490 1700.020,1444.006 1655.122,1528.245 1577.131 L 1551.753 1555.367 1582.877 1587.204 C 1636.579 1642.139,1700.939 1677.373,1775.960 1692.908 C 1829.206 1703.934,1899.322 1701.237,1949.803 1686.220 C 2078.883 1647.822,2169.991 1543.037,2193.999 1405.363 C 2201.196 1364.095,2202.253 1204.685,2195.774 1137.695 C 2171.790 889.698,2066.375 663.386,1894.000 489.827 C 1787.107 382.201,1655.986 300.196,1513.278 251.718 C 1460.225 233.696,1390.350 217.516,1332.118 209.768 C 1276.506 202.370,1168.441 199.604,1116.000 204.238 M1274.000 909.291 C 1366.163 934.808,1440.048 999.227,1476.677 1086.000 C 1493.068 1124.829,1497.915 1150.850,1497.915 1200.000 C 1497.915 1226.016,1495.503 1255.557,1492.362 1268.000 C 1468.730 1361.610,1400.546 1441.862,1315.098 1476.635 C 1180.394 1531.453,1027.000 1484.117,950.100 1364.000 C 914.772 1308.819,902.085 1265.483,902.085 1200.000 C 902.085 1134.490,914.792 1091.108,950.124 1036.000 C 989.952 973.878,1063.333 922.491,1132.178 908.510 C 1144.180 906.073,1157.600 903.245,1162.000 902.226 C 1176.697 898.823,1253.745 903.683,1274.000 909.291 " fill="#1D1E23" stroke="none" fill-rule="evenodd"/></svg>