<svg viewBox="0 0 2400 2400" fill="none" xmlns="http://www.w3.org/2000/svg"><path d="M1102.000 207.998 C 930.418 219.093,737.923 296.148,584.000 415.351 C 537.052 451.709,461.479 526.106,422.843 574.000 C 333.095 685.253,266.510 818.468,231.985 955.843 C 181.516 1156.663,193.763 1367.582,266.688 1553.490 C 338.242 1735.902,474.041 1904.419,640.000 2016.741 C 746.318 2088.698,863.535 2140.097,993.575 2171.782 C 1089.455 2195.143,1104.912 2196.246,1372.523 2198.811 L 1619.047 2201.175 1637.478 2192.252 C 1675.961 2173.623,1704.321 2124.626,1698.325 2087.128 C 1694.774 2064.923,1682.940 2043.410,1666.182 2028.696 C 1636.388 2002.537,1650.189 2003.971,1388.828 1999.862 C 1257.473 1997.796,1134.333 1994.273,1115.185 1992.031 C 1010.330 1979.758,852.742 1920.207,760.000 1857.812 C 560.229 1723.409,430.369 1514.280,407.569 1290.249 C 402.728 1242.673,405.444 1124.122,412.565 1072.179 C 432.818 924.463,519.210 760.811,641.897 637.752 C 809.823 469.318,1021.577 389.936,1257.052 407.145 C 1378.190 415.998,1471.529 443.420,1579.215 501.795 C 1749.318 594.004,1888.700 764.693,1953.380 960.000 C 1986.422 1059.771,1996.922 1135.364,1997.566 1278.084 L 1998.000 1374.168 1984.692 1401.200 C 1976.107 1418.639,1961.711 1438.041,1944.130 1455.868 C 1919.845 1480.493,1913.739 1484.456,1888.088 1492.248 C 1856.657 1501.795,1837.841 1501.167,1802.229 1489.386 C 1776.370 1480.831,1730.672 1435.661,1714.918 1403.084 C 1703.986 1380.478,1703.783 1378.650,1699.927 1267.906 C 1697.777 1206.162,1694.018 1142.674,1691.575 1126.822 C 1685.176 1085.314,1663.462 1022.056,1639.798 975.987 C 1578.264 856.192,1473.851 766.845,1344.000 722.869 L 1306.000 710.000 1200.000 710.000 C 1094.356 710.000,1093.886 710.038,1060.000 721.305 C 963.976 753.234,875.326 811.063,820.000 877.865 C 773.140 934.446,749.608 976.892,723.371 1052.163 L 706.000 1102.000 706.028 1196.000 C 706.053 1281.761,706.877 1293.118,715.431 1325.577 C 756.267 1480.531,870.979 1609.132,1018.619 1665.473 C 1193.498 1732.209,1394.007 1697.060,1528.979 1576.007 L 1551.957 1555.398 1584.979 1586.801 C 1627.456 1627.197,1650.906 1644.019,1692.385 1663.849 C 1746.472 1689.706,1780.262 1696.937,1848.000 1697.151 C 1895.580 1697.302,1911.749 1695.766,1938.000 1688.604 C 2085.400 1648.386,2183.436 1528.374,2196.628 1372.000 C 2202.239 1305.480,2198.451 1142.117,2190.041 1088.000 C 2151.953 842.889,2043.243 633.094,1868.221 466.931 C 1775.308 378.720,1659.612 306.867,1538.261 262.006 C 1486.805 242.984,1386.507 217.457,1343.644 212.474 C 1295.610 206.889,1158.436 204.348,1102.000 207.998 M1288.000 913.952 C 1388.086 944.463,1476.741 1044.527,1492.416 1144.673 C 1499.524 1190.080,1495.010 1260.139,1482.697 1295.547 C 1457.383 1368.335,1400.302 1433.458,1331.197 1468.390 C 1271.058 1498.789,1186.964 1507.018,1122.803 1488.783 C 1044.843 1466.626,986.525 1421.296,942.285 1348.468 C 923.758 1317.970,913.539 1289.371,907.587 1251.364 C 902.092 1216.270,905.231 1147.210,913.731 1116.181 C 939.534 1021.990,1029.718 934.563,1126.266 910.145 C 1158.211 902.066,1256.608 904.382,1288.000 913.952 " fill="#1D1E23" stroke="none" fill-rule="evenodd"/></svg>