<svg viewBox="0 0 2400 2400" fill="none" xmlns="http://www.w3.org/2000/svg"><path d="M1064.526 210.214 C 693.119 262.796,380.437 518.063,257.874 868.747 C 211.778 1000.640,195.376 1121.706,203.784 1268.000 C 214.386 1452.468,281.455 1633.284,395.940 1786.049 C 433.852 1836.636,518.053 1923.313,570.000 1965.226 C 701.639 2071.439,857.792 2144.782,1026.000 2179.404 C 1110.899 2196.878,1131.527 2197.948,1384.000 2197.975 L 1626.000 2198.000 1644.878 2188.702 C 1668.402 2177.116,1690.190 2148.453,1696.608 2120.648 C 1706.373 2078.345,1686.514 2035.348,1647.371 2014.043 L 1626.336 2002.595 1380.168 1999.550 C 1113.232 1996.249,1107.442 1995.804,1016.000 1971.564 C 809.619 1916.855,640.969 1797.023,526.846 1624.000 C 479.327 1551.955,448.660 1481.964,426.071 1394.000 C 406.377 1317.305,402.619 1277.846,405.203 1174.849 C 407.683 1075.982,414.251 1036.101,441.429 954.880 C 500.298 778.952,631.793 614.399,790.000 518.676 C 919.715 440.192,1046.480 404.242,1194.105 404.073 C 1308.765 403.942,1394.289 420.250,1497.222 461.873 C 1750.560 564.315,1937.275 802.826,1985.811 1086.000 C 1995.257 1141.107,2001.284 1247.062,1998.919 1316.444 C 1996.934 1374.710,1996.029 1380.450,1985.396 1402.256 C 1971.910 1429.911,1937.421 1468.555,1914.399 1481.806 C 1887.915 1497.051,1855.874 1502.388,1826.619 1496.427 C 1813.079 1493.668,1794.800 1487.209,1786.000 1482.073 C 1760.882 1467.415,1728.725 1432.357,1715.150 1404.833 L 1702.737 1379.666 1699.609 1266.833 C 1696.126 1141.220,1693.211 1116.362,1675.469 1060.976 C 1648.283 976.107,1605.704 905.342,1546.118 846.000 C 1484.647 784.781,1409.312 740.749,1326.000 717.346 C 1287.823 706.621,1282.082 706.109,1200.000 706.099 C 1122.441 706.090,1110.663 707.000,1080.000 715.375 C 914.254 760.645,786.145 876.369,730.588 1031.008 C 706.405 1098.320,702.618 1120.848,702.856 1196.000 C 703.236 1316.010,724.694 1388.712,787.405 1482.467 C 926.433 1690.315,1206.843 1759.904,1433.564 1642.822 C 1468.713 1624.670,1503.922 1599.877,1532.470 1573.173 L 1551.414 1555.454 1583.592 1587.118 C 1655.767 1658.138,1734.937 1694.002,1830.000 1698.740 C 1999.695 1707.197,2140.216 1604.925,2186.377 1439.365 C 2195.995 1404.870,2196.957 1394.090,2198.906 1299.019 C 2201.239 1185.209,2197.285 1125.536,2181.862 1041.788 C 2142.916 830.320,2039.889 635.064,1889.373 487.469 C 1836.295 435.421,1823.055 423.863,1780.881 392.762 C 1655.699 300.444,1521.616 243.657,1358.000 213.664 C 1306.744 204.269,1121.872 202.095,1064.526 210.214 M1263.106 908.176 C 1364.384 925.410,1462.394 1019.496,1489.846 1125.840 C 1498.118 1157.884,1498.118 1242.116,1489.846 1274.160 C 1466.730 1363.707,1393.785 1446.608,1310.537 1477.943 C 1235.739 1506.097,1164.629 1506.317,1091.214 1478.624 C 1024.058 1453.291,965.957 1399.131,930.292 1328.616 C 894.612 1258.073,894.578 1142.342,930.216 1071.384 C 984.394 963.512,1094.527 896.072,1206.000 902.507 C 1225.800 903.650,1251.498 906.201,1263.106 908.176 " fill="#1D1E23" stroke="none" fill-rule="evenodd"/></svg>