<svg viewBox="0 0 2400 2400" fill="none" xmlns="http://www.w3.org/2000/svg"><path d="M700 800V620.711C700 576.165 646.143 553.857 614.645 585.355L35.355 1164.64C15.829 1184.17 15.829 1215.83 35.355 1235.36L614.645 1814.64C646.143 1846.14 700 1823.83 700 1779.29V1600L300 1200L700 800ZM1300 900V620.711C1300 576.165 1246.14 553.857 1214.64 585.355L635.355 1164.64C615.829 1184.17 615.829 1215.83 635.355 1235.36L1214.64 1814.64C1246.14 1846.14 1300 1823.83 1300 1779.29V1490C1800 1490 2150 1650 2400 2000C2300 1500 2000 1000 1300 900Z" fill="#1D1E23"/></svg>