<svg viewBox="0 0 2400 2400" fill="none" xmlns="http://www.w3.org/2000/svg"><path d="M1058.387 212.555 C 909.778 231.624,747.408 298.234,609.900 396.541 C 545.272 442.745,458.629 527.290,407.270 594.266 C 262.730 782.755,186.273 1034.389,203.531 1264.804 C 213.917 1403.469,241.758 1507.680,300.110 1626.304 C 376.915 1782.442,502.364 1924.956,648.000 2021.517 C 759.199 2095.245,873.859 2143.539,1018.000 2177.359 C 1088.157 2193.819,1127.782 2196.117,1384.000 2198.577 L 1626.000 2200.901 1647.860 2185.400 C 1672.115 2168.200,1689.135 2143.689,1696.624 2115.170 C 1700.837 2099.127,1700.570 2093.172,1694.820 2074.932 C 1691.108 2063.157,1681.815 2046.214,1674.168 2037.280 C 1648.892 2007.751,1644.965 2006.940,1510.000 2003.355 C 1108.903 1992.700,1107.053 1992.622,1070.000 1984.674 C 994.464 1968.473,885.427 1928.599,820.000 1893.253 C 677.534 1816.288,553.187 1687.127,481.837 1542.000 C 419.931 1416.083,399.129 1305.135,407.821 1147.233 C 414.236 1030.705,430.393 966.583,477.678 870.000 C 592.643 635.174,804.613 465.994,1041.030 420.371 C 1248.499 380.333,1462.883 421.706,1631.951 534.408 C 1816.650 657.530,1949.269 867.066,1986.220 1094.149 C 1990.668 1121.483,1993.374 1171.775,1994.836 1254.265 L 1996.967 1374.530 1985.483 1398.248 C 1968.464 1433.400,1921.109 1481.596,1894.672 1490.672 C 1864.077 1501.176,1827.057 1499.882,1800.000 1487.363 C 1763.224 1470.347,1717.095 1418.470,1708.146 1384.062 C 1706.134 1376.328,1702.478 1322.300,1700.021 1264.000 C 1694.728 1138.412,1692.066 1116.796,1675.536 1065.167 C 1622.789 900.422,1507.130 780.563,1346.681 724.370 L 1311.363 712.000 1200.432 712.000 L 1089.501 712.000 1055.073 723.637 C 962.480 754.936,873.952 813.943,817.004 882.319 C 771.870 936.509,748.396 980.136,719.889 1062.811 L 704.000 1108.889 704.108 1175.445 C 704.254 1264.602,708.871 1306.522,723.554 1352.000 C 748.522 1429.330,786.918 1491.117,847.900 1552.100 C 908.620 1612.819,965.264 1647.710,1045.661 1673.915 C 1101.634 1692.158,1137.268 1697.635,1200.000 1697.635 C 1263.129 1697.635,1298.276 1692.227,1356.000 1673.633 C 1422.665 1652.160,1480.180 1619.680,1529.063 1575.902 L 1552.126 1555.248 1587.063 1588.341 C 1644.506 1642.752,1705.212 1677.042,1767.450 1690.234 C 1809.506 1699.148,1903.398 1697.874,1939.386 1687.901 C 2069.353 1651.885,2161.290 1552.390,2190.688 1415.937 C 2200.977 1368.181,2200.806 1160.885,2190.421 1092.000 C 2143.410 780.176,1971.695 511.043,1718.031 351.612 C 1669.950 321.393,1588.417 280.714,1540.000 262.789 C 1486.500 242.981,1380.296 217.148,1331.983 212.190 C 1283.700 207.235,1097.914 207.483,1058.387 212.555 M1238.825 907.839 C 1273.693 910.724,1289.881 914.166,1311.698 923.332 C 1402.616 961.532,1477.796 1055.127,1492.336 1148.215 C 1497.801 1183.203,1494.628 1248.229,1485.803 1282.111 C 1466.561 1355.986,1399.426 1435.125,1326.806 1469.536 C 1283.484 1490.064,1249.416 1497.272,1196.000 1497.212 C 1155.590 1497.167,1145.489 1495.678,1112.879 1484.964 C 1031.091 1458.093,971.251 1405.600,930.455 1324.939 C 911.787 1288.028,906.313 1259.361,906.598 1200.000 C 906.906 1135.862,912.802 1109.129,936.913 1062.547 C 957.243 1023.268,1012.741 964.808,1050.000 943.423 C 1113.053 907.233,1149.191 900.423,1238.825 907.839 " fill="#1D1E23" stroke="none" fill-rule="evenodd"/></svg>