<svg viewBox="0 0 2400 2400" fill="none" xmlns="http://www.w3.org/2000/svg"><path d="M1138.000 202.805 C 1095.453 206.279,1005.034 221.119,962.000 231.690 C 820.309 266.495,671.254 341.909,559.908 435.127 C 367.581 596.143,247.910 813.171,209.407 1070.779 C 200.293 1131.756,200.246 1266.530,209.317 1330.000 C 240.333 1547.023,336.903 1744.318,487.157 1897.635 C 603.965 2016.824,736.025 2097.860,900.791 2151.454 C 1032.275 2194.222,1054.219 2196.267,1409.000 2198.816 L 1700.000 2200.906 1700.000 2100.453 L 1700.000 2000.000 1471.000 1999.964 C 1227.381 1999.925,1111.009 1995.930,1056.142 1985.721 C 1037.521 1982.256,998.821 1971.667,970.142 1962.190 C 833.081 1916.899,743.108 1862.232,643.952 1764.000 C 561.359 1682.177,510.033 1607.329,466.443 1505.144 C 402.504 1355.257,387.182 1188.584,422.610 1028.315 C 458.117 867.685,557.339 705.147,686.000 596.847 C 858.739 451.444,1062.496 386.743,1280.576 408.046 C 1512.424 430.694,1733.840 566.982,1864.578 767.516 C 1913.635 842.763,1957.338 939.410,1974.119 1009.759 C 1989.406 1073.850,1992.140 1105.753,1994.536 1248.000 L 1996.793 1382.000 1981.397 1407.009 C 1960.642 1440.721,1926.345 1475.066,1902.000 1486.515 C 1873.449 1499.943,1826.408 1499.836,1797.285 1486.277 C 1771.957 1474.484,1734.123 1436.915,1718.301 1407.843 C 1707.368 1387.755,1706.404 1382.321,1703.463 1324.180 C 1692.117 1099.861,1692.750 1107.332,1681.958 1070.000 C 1669.011 1025.207,1639.718 963.155,1611.918 921.628 C 1600.273 904.232,1572.577 871.832,1550.372 849.628 C 1477.843 777.098,1405.098 736.954,1307.035 715.341 C 1252.668 703.359,1151.581 702.389,1100.190 713.356 C 1002.180 734.273,920.619 778.967,847.638 851.752 C 785.102 914.120,753.871 965.581,720.489 1061.263 L 704.000 1108.525 704.000 1199.818 L 704.000 1291.111 720.339 1338.494 C 748.673 1420.667,780.250 1476.679,828.506 1530.362 C 900.758 1610.740,979.113 1656.731,1094.071 1686.239 C 1128.714 1695.131,1142.473 1696.494,1198.000 1696.535 C 1266.752 1696.586,1296.886 1692.099,1354.000 1673.306 C 1421.192 1651.198,1474.098 1621.882,1525.504 1578.273 L 1552.262 1555.573 1583.131 1584.221 C 1640.006 1637.002,1691.333 1668.441,1750.000 1686.431 C 1769.444 1692.394,1787.668 1693.810,1846.000 1693.895 C 1914.602 1693.995,1919.605 1693.464,1952.000 1682.637 C 2069.643 1643.318,2161.599 1545.227,2189.716 1429.062 C 2197.462 1397.057,2200.275 1284.771,2196.306 1166.000 C 2192.351 1047.659,2184.192 1000.418,2150.016 898.000 C 2094.238 730.847,2022.742 613.882,1904.285 495.996 C 1760.790 353.194,1597.508 264.004,1410.000 226.002 C 1337.474 211.303,1188.993 198.640,1138.000 202.805 M1238.825 907.839 C 1273.693 910.724,1289.881 914.166,1311.698 923.332 C 1402.616 961.532,1477.796 1055.127,1492.336 1148.215 C 1497.801 1183.203,1494.628 1248.229,1485.803 1282.111 C 1466.561 1355.986,1399.426 1435.125,1326.806 1469.536 C 1283.484 1490.064,1249.416 1497.272,1196.000 1497.212 C 1155.590 1497.167,1145.489 1495.678,1112.879 1484.964 C 1031.091 1458.093,971.251 1405.600,930.455 1324.939 C 911.787 1288.028,906.313 1259.361,906.598 1200.000 C 906.906 1135.862,912.802 1109.129,936.913 1062.547 C 957.243 1023.268,1012.741 964.808,1050.000 943.423 C 1113.053 907.233,1149.191 900.423,1238.825 907.839 " fill="#1D1E23" stroke="none" fill-rule="evenodd"/></svg>