<svg viewBox="0 0 2400 2400" fill="none" xmlns="http://www.w3.org/2000/svg"><path d="M628.000 578.853 C 611.423 587.215,65.181 1131.861,40.822 1164.314 C 15.422 1198.156,15.238 1205.915,39.159 1234.348 C 69.445 1270.348,620.472 1817.407,632.681 1823.596 C 647.607 1831.163,669.180 1826.231,686.086 1811.388 L 700.000 1799.171 700.000 1698.600 L 700.000 1598.030 501.015 1399.015 L 302.030 1200.000 501.086 1000.915 L 700.141 801.829 699.071 700.353 L 698.000 598.876 683.692 587.299 C 665.421 572.515,646.310 569.616,628.000 578.853 M1228.000 578.865 C 1211.924 586.987,690.363 1106.006,650.731 1153.320 C 618.867 1191.359,615.268 1203.040,629.613 1221.848 C 668.707 1273.103,1202.882 1808.143,1228.360 1821.565 C 1246.855 1831.308,1265.177 1828.121,1285.105 1811.695 L 1300.000 1799.418 1300.000 1645.089 L 1300.000 1490.759 1367.000 1493.484 C 1623.333 1503.910,1801.457 1544.410,1975.833 1631.916 C 2121.406 1704.968,2255.107 1815.755,2366.630 1955.737 C 2381.413 1974.293,2394.220 1987.341,2395.089 1984.733 C 2399.018 1972.946,2346.359 1788.795,2317.100 1712.000 C 2197.519 1398.143,1993.760 1165.808,1717.673 1028.506 C 1613.041 976.471,1509.364 941.953,1373.800 914.018 C 1336.819 906.397,1305.108 898.708,1303.331 896.931 C 1301.554 895.154,1299.628 827.366,1299.050 746.290 L 1298.000 598.879 1283.692 587.300 C 1265.413 572.508,1246.307 569.614,1228.000 578.865 " fill="#1D1E23" stroke="none" fill-rule="evenodd"/></svg>