<svg viewBox="0 0 2400 2400" fill="none" xmlns="http://www.w3.org/2000/svg"><path d="M617.202 589.000 C 608.911 596.150,531.898 670.909,446.063 755.131 C 231.150 966.007,38.204 1163.998,27.864 1184.266 C 20.433 1198.832,20.013 1202.419,24.449 1213.437 C 34.349 1238.029,621.713 1821.266,641.608 1826.259 C 653.949 1829.356,672.330 1822.572,688.531 1808.939 L 700.000 1799.289 700.000 1698.659 L 700.000 1598.030 501.015 1399.015 L 302.030 1200.000 501.015 1000.985 L 700.000 801.970 700.000 701.010 L 700.000 600.050 683.400 588.025 C 659.880 570.988,637.713 571.314,617.202 589.000 M1211.134 594.686 C 1166.687 633.986,857.973 939.220,750.108 1050.515 C 627.340 1177.187,614.615 1193.983,625.486 1215.007 C 636.644 1236.584,947.600 1553.486,1130.996 1730.183 C 1236.610 1831.939,1241.799 1835.400,1268.514 1821.886 C 1275.931 1818.134,1286.050 1811.361,1291.000 1806.835 L 1300.000 1798.605 1300.000 1645.303 L 1300.000 1492.000 1321.000 1492.019 C 1357.584 1492.051,1471.844 1499.822,1532.000 1506.369 C 1786.527 1534.071,1988.943 1614.077,2172.000 1759.332 C 2218.314 1796.083,2311.322 1888.387,2354.043 1940.000 C 2385.202 1977.643,2392.372 1984.962,2395.261 1982.072 C 2400.747 1976.586,2340.618 1773.444,2311.176 1698.000 C 2171.227 1339.380,1914.584 1086.831,1567.241 965.928 C 1520.806 949.766,1444.954 929.585,1363.467 911.713 L 1304.933 898.876 1302.467 880.880 C 1301.110 870.982,1300.000 803.746,1300.000 731.467 L 1300.000 600.050 1283.400 588.025 C 1257.346 569.152,1237.994 570.936,1211.134 594.686 " fill="#1D1E23" stroke="none" fill-rule="evenodd"/></svg>