<svg viewBox="0 0 2400 2400" fill="none" xmlns="http://www.w3.org/2000/svg"><path d="M1138.000 202.387 C 990.532 216.673,884.633 245.100,766.000 302.244 C 646.928 359.599,555.835 427.440,462.870 528.000 C 364.805 634.077,297.823 748.423,251.466 888.896 C 145.353 1210.443,209.723 1561.563,423.602 1827.847 C 555.429 1991.974,741.105 2111.268,952.000 2167.334 C 1059.956 2196.034,1116.346 2199.564,1471.000 2199.829 L 1700.000 2200.000 1700.000 2100.000 L 1700.000 2000.000 1471.000 1999.912 C 1189.896 1999.804,1093.753 1995.902,1038.000 1982.337 C 945.976 1959.948,842.576 1916.849,776.000 1873.132 C 679.126 1809.520,579.667 1708.950,524.507 1618.828 C 482.060 1549.478,444.376 1461.453,425.980 1388.684 C 397.685 1276.752,396.180 1137.957,422.054 1026.392 C 489.345 736.240,722.288 499.264,1012.520 425.701 C 1127.478 396.564,1276.425 396.592,1388.728 425.770 C 1531.108 462.764,1665.975 541.165,1768.501 646.540 C 1834.091 713.952,1877.786 777.394,1922.407 870.000 C 1982.620 994.963,1996.000 1067.530,1996.000 1269.135 L 1996.000 1380.880 1983.014 1405.244 C 1963.899 1441.108,1922.956 1481.001,1895.759 1490.262 C 1868.000 1499.715,1831.995 1499.713,1804.229 1490.258 C 1776.140 1480.694,1731.209 1436.771,1714.792 1402.828 C 1703.599 1379.686,1703.580 1379.504,1700.024 1260.796 C 1698.065 1195.422,1694.461 1129.350,1692.013 1113.968 C 1677.678 1023.855,1623.628 920.372,1554.422 850.541 C 1459.316 754.574,1336.998 704.000,1200.000 704.000 C 1092.546 704.000,1005.250 731.260,914.875 793.036 C 822.684 856.053,757.669 945.385,720.969 1059.469 L 706.000 1106.000 706.078 1202.000 L 706.156 1298.000 721.272 1342.982 C 760.803 1460.611,826.712 1548.900,924.411 1615.099 C 973.545 1648.391,1056.317 1681.133,1120.000 1692.467 C 1163.533 1700.215,1250.461 1699.134,1292.000 1690.328 C 1387.703 1670.039,1472.239 1628.503,1534.349 1571.251 L 1551.899 1555.074 1584.434 1585.681 C 1643.868 1641.592,1695.135 1671.866,1758.000 1688.174 C 1802.740 1699.781,1888.784 1699.919,1932.794 1688.454 C 2059.559 1655.433,2155.084 1558.756,2190.928 1427.206 C 2196.862 1405.427,2197.766 1381.879,2197.577 1254.000 C 2197.347 1098.239,2195.516 1074.520,2177.355 992.000 C 2152.923 880.979,2097.193 747.476,2037.095 656.000 C 1885.802 425.715,1644.253 264.479,1384.000 220.055 C 1308.322 207.137,1182.354 198.090,1138.000 202.387 M1288.000 913.952 C 1388.086 944.463,1476.741 1044.527,1492.416 1144.673 C 1499.524 1190.080,1495.010 1260.139,1482.697 1295.547 C 1457.383 1368.335,1400.302 1433.458,1331.197 1468.390 C 1271.058 1498.789,1186.964 1507.018,1122.803 1488.783 C 1044.843 1466.626,986.525 1421.296,942.285 1348.468 C 923.758 1317.970,913.539 1289.371,907.587 1251.364 C 902.092 1216.270,905.231 1147.210,913.731 1116.181 C 939.534 1021.990,1029.718 934.563,1126.266 910.145 C 1158.211 902.066,1256.608 904.382,1288.000 913.952 " fill="#1D1E23" stroke="none" fill-rule="evenodd"/></svg>