<svg viewBox="0 0 2400 2400" fill="none" xmlns="http://www.w3.org/2000/svg"><path d="M626.000 583.480 C 608.729 594.203,312.513 885.226,177.620 1024.000 C 10.410 1196.022,12.060 1193.800,30.796 1221.599 C 44.242 1241.552,493.454 1691.583,579.716 1771.522 C 648.932 1835.664,649.076 1835.722,682.000 1812.776 L 698.000 1801.625 699.071 1699.898 L 700.141 1598.171 501.086 1399.085 L 302.030 1200.000 501.015 1000.985 L 700.000 801.970 700.000 700.897 L 700.000 599.824 681.217 587.912 C 659.607 574.207,643.073 572.880,626.000 583.480 M1220.797 587.882 C 1170.857 624.059,663.728 1133.393,636.064 1175.158 C 616.113 1205.279,617.534 1208.785,674.586 1270.239 C 825.779 1433.097,1207.213 1809.021,1234.313 1821.881 C 1251.541 1830.056,1261.074 1828.148,1283.243 1812.089 L 1300.000 1799.950 1300.000 1645.975 L 1300.000 1492.000 1321.000 1492.062 C 1386.445 1492.255,1552.569 1507.545,1628.720 1520.384 C 1835.154 1555.190,2024.926 1639.781,2180.063 1766.146 C 2217.831 1796.909,2303.621 1882.540,2351.867 1937.631 C 2374.808 1963.829,2394.273 1983.182,2395.121 1980.638 C 2399.270 1968.189,2332.715 1751.084,2301.118 1674.000 C 2198.729 1424.206,2035.683 1224.929,1822.659 1089.219 C 1776.209 1059.627,1664.917 1003.207,1615.435 984.167 C 1543.277 956.400,1461.942 933.389,1345.528 907.807 L 1305.055 898.913 1302.556 872.457 C 1301.182 857.905,1300.044 790.610,1300.028 722.912 L 1300.000 599.824 1281.217 587.912 C 1257.172 572.663,1241.817 572.656,1220.797 587.882 " fill="#1D1E23" stroke="none" fill-rule="evenodd"/></svg>