<svg viewBox="0 0 2400 2400" fill="none" xmlns="http://www.w3.org/2000/svg"><path d="M624.000 580.337 C 607.555 590.094,75.002 1122.220,44.706 1159.166 C 21.029 1188.039,17.122 1198.973,24.010 1217.078 C 27.212 1225.495,133.690 1334.210,329.463 1528.946 C 621.805 1819.739,630.416 1827.893,645.263 1827.946 C 662.728 1828.008,673.371 1823.340,689.000 1808.763 L 700.000 1798.503 700.000 1698.266 L 700.000 1598.030 501.015 1399.015 L 302.030 1200.000 501.015 1000.985 L 700.000 801.970 700.000 701.734 L 700.000 601.497 689.000 591.237 C 666.028 569.812,647.091 566.636,624.000 580.337 M1224.000 580.427 C 1208.019 590.012,771.968 1023.232,687.117 1113.824 C 627.914 1177.033,617.266 1192.564,621.519 1209.507 C 625.158 1224.005,737.968 1341.016,998.611 1600.643 C 1194.022 1795.291,1224.001 1823.638,1237.037 1826.083 C 1257.097 1829.847,1269.150 1826.258,1285.927 1811.528 L 1300.000 1799.171 1300.000 1645.586 L 1300.000 1492.000 1333.000 1492.014 C 1374.617 1492.032,1482.148 1498.621,1532.000 1504.207 C 1889.038 1544.218,2167.431 1696.272,2372.000 1963.001 C 2384.100 1978.778,2395.121 1991.757,2396.491 1991.843 C 2402.964 1992.251,2354.797 1814.753,2329.402 1744.618 C 2255.584 1540.754,2158.232 1382.386,2024.027 1247.849 C 1868.567 1092.005,1680.200 987.865,1450.000 930.494 C 1416.917 922.249,1308.915 900.000,1301.974 900.000 C 1300.888 900.000,1300.000 832.837,1300.000 750.748 L 1300.000 601.497 1289.000 591.237 C 1265.989 569.775,1247.020 566.620,1224.000 580.427 " fill="#1D1E23" stroke="none" fill-rule="evenodd"/></svg>