<svg viewBox="0 0 2400 2400" fill="none" xmlns="http://www.w3.org/2000/svg"><path d="M617.600 583.564 C 609.020 589.924,472.135 725.374,313.412 884.564 C 8.079 1190.794,15.505 1182.430,22.136 1212.619 C 25.640 1228.574,58.674 1262.474,380.582 1580.466 L 631.164 1828.000 649.641 1828.000 C 665.098 1828.000,670.559 1825.764,683.059 1814.314 L 698.000 1800.628 699.200 1699.529 L 700.401 1598.430 501.215 1399.215 L 302.030 1200.000 501.215 1000.785 L 700.401 801.570 699.200 700.471 L 698.000 599.372 683.059 585.686 C 663.067 567.374,640.431 566.640,617.600 583.564 M1217.600 583.564 C 1209.020 589.924,1072.135 725.374,913.412 884.564 C 607.712 1191.162,615.634 1182.231,622.094 1213.000 C 624.274 1223.383,682.912 1284.259,913.412 1515.436 C 1072.135 1674.626,1209.020 1810.076,1217.600 1816.436 C 1240.432 1833.361,1263.068 1832.626,1283.059 1814.311 L 1298.000 1800.622 1299.138 1645.702 L 1300.275 1490.781 1383.138 1493.254 C 1666.855 1501.721,1898.422 1568.597,2092.000 1697.974 C 2201.937 1771.450,2292.983 1857.842,2374.205 1965.754 C 2386.811 1982.504,2397.773 1995.560,2398.565 1994.768 C 2401.059 1992.274,2361.540 1840.074,2345.916 1792.000 C 2186.764 1302.313,1849.052 1000.651,1358.734 910.196 C 1328.337 904.588,1302.750 900.000,1301.873 900.000 C 1300.996 900.000,1299.766 832.360,1299.139 749.689 L 1298.000 599.378 1283.059 585.689 C 1263.068 567.374,1240.432 566.639,1217.600 583.564 " fill="#1D1E23" stroke="none" fill-rule="evenodd"/></svg>