<svg viewBox="0 0 2400 2400" fill="none" xmlns="http://www.w3.org/2000/svg"><path d="M1095.271 804.329 C 837.941 819.374,578.451 895.904,350.043 1024.113 C 249.503 1080.548,119.054 1173.790,61.816 1230.132 C 9.130 1281.993,-10.857 1348.037,6.122 1414.160 C 18.425 1462.073,29.286 1477.561,103.744 1553.367 C 222.575 1674.349,248.034 1690.000,326.000 1690.000 C 385.504 1690.000,406.192 1681.288,481.443 1624.543 C 675.922 1477.891,714.611 1437.417,724.297 1370.482 C 726.245 1357.017,727.875 1284.581,727.920 1209.513 L 728.000 1073.027 776.580 1060.173 C 858.034 1038.621,906.947 1028.414,978.000 1018.143 C 1200.979 985.909,1400.762 998.535,1619.000 1058.654 L 1672.000 1073.255 1672.000 1214.081 C 1672.000 1291.536,1673.758 1364.175,1675.906 1375.502 C 1685.697 1427.131,1712.517 1463.807,1779.974 1517.816 C 1893.203 1608.470,1980.955 1671.584,2005.721 1680.178 C 2040.030 1692.083,2087.415 1694.660,2120.000 1686.392 C 2171.145 1673.415,2183.859 1664.300,2272.383 1577.151 C 2317.891 1532.349,2360.022 1488.626,2366.007 1479.990 C 2392.295 1442.056,2405.082 1380.776,2396.219 1335.200 C 2384.656 1275.736,2354.857 1237.300,2267.755 1169.497 C 1983.373 948.126,1626.169 815.254,1290.243 805.884 C 1250.509 804.775,1201.800 803.305,1182.000 802.616 C 1162.200 801.927,1123.172 802.698,1095.271 804.329 " fill="#1D1E23" stroke="none" fill-rule="evenodd"/></svg>