<svg viewBox="0 0 2400 2400" fill="none" xmlns="http://www.w3.org/2000/svg"><path d="M1070.000 806.362 C 1063.400 807.261,1040.900 809.890,1020.000 812.204 C 770.245 839.859,522.544 929.979,314.000 1069.064 C 221.077 1131.038,163.323 1178.464,66.707 1272.134 L -0.586 1337.375 150.707 1488.947 C 233.918 1572.312,317.631 1654.889,336.736 1672.452 L 371.472 1704.384 438.736 1651.376 C 475.731 1622.221,562.923 1553.046,632.496 1497.652 L 758.993 1396.936 760.678 1228.620 C 761.605 1136.045,763.375 1059.292,764.610 1058.056 C 769.469 1053.198,911.105 1019.858,968.857 1009.978 C 1023.435 1000.641,1044.172 999.280,1162.000 997.305 C 1308.503 994.849,1364.174 998.051,1450.000 1013.871 C 1506.937 1024.365,1631.369 1054.035,1635.415 1058.082 C 1636.637 1059.303,1638.394 1135.997,1639.321 1228.513 L 1641.005 1396.723 1669.502 1420.085 C 1685.176 1432.934,1772.700 1502.912,1864.000 1575.591 L 2030.000 1707.736 2214.971 1522.913 L 2399.941 1338.091 2362.971 1300.828 C 2275.239 1212.403,2186.951 1137.776,2102.000 1080.240 C 1913.607 952.642,1703.937 866.013,1492.000 828.208 C 1386.968 809.472,1361.413 807.390,1220.000 806.042 C 1144.100 805.319,1076.600 805.463,1070.000 806.362 " fill="#1D1E23" stroke="none" fill-rule="evenodd"/></svg>