<svg viewBox="0 0 2400 2400" fill="none" xmlns="http://www.w3.org/2000/svg"><path d="M1024.000 809.956 C 1020.700 810.782,995.500 814.436,968.000 818.076 C 712.275 851.925,452.855 950.528,234.729 1096.786 C 119.398 1174.118,43.653 1241.992,21.055 1288.258 C -4.827 1341.246,-5.308 1397.831,19.674 1450.656 C 41.647 1497.118,194.499 1648.819,243.916 1673.209 C 269.339 1685.757,270.899 1686.000,325.916 1686.000 C 379.243 1686.000,383.121 1685.450,404.806 1674.801 C 451.981 1651.634,598.339 1537.740,660.274 1475.998 C 703.762 1432.644,717.652 1408.477,723.894 1365.304 C 726.065 1350.287,727.877 1278.373,727.921 1205.496 L 728.000 1072.992 787.000 1058.201 C 937.384 1020.501,1023.127 1008.523,1166.000 1005.257 C 1341.193 1001.252,1439.549 1013.382,1630.638 1062.560 L 1671.276 1073.019 1672.929 1223.509 C 1674.861 1399.296,1676.313 1407.797,1711.524 1449.438 C 1757.323 1503.601,1916.047 1629.836,1988.135 1669.429 C 2036.424 1695.951,2107.456 1697.036,2158.448 1672.031 C 2199.209 1652.043,2345.507 1512.156,2370.816 1468.969 C 2405.158 1410.368,2407.491 1339.694,2376.975 1282.385 C 2339.063 1211.187,2158.532 1079.296,1969.600 984.767 C 1800.704 900.262,1649.050 852.191,1454.000 821.334 C 1393.809 811.811,1379.287 811.127,1210.000 809.831 C 1111.000 809.074,1027.300 809.130,1024.000 809.956 " fill="#1D1E23" stroke="none" fill-rule="evenodd"/></svg>