<svg viewBox="0 0 2400 2400" fill="none" xmlns="http://www.w3.org/2000/svg"><path d="M1036.000 810.396 C 1030.500 811.310,1004.400 814.907,978.000 818.389 C 733.273 850.667,490.166 946.543,276.754 1094.945 C 211.244 1140.499,154.238 1188.587,70.655 1268.800 L -0.690 1337.270 146.655 1484.895 C 227.695 1566.089,311.465 1648.723,332.811 1668.526 L 371.623 1704.532 438.811 1651.416 C 475.765 1622.202,562.856 1553.042,632.346 1497.728 L 758.693 1397.156 761.197 1228.061 C 762.574 1135.059,764.363 1058.303,765.173 1057.494 C 767.853 1054.814,877.137 1028.529,928.000 1018.331 C 1010.422 1001.806,1046.986 999.127,1198.000 998.550 C 1375.591 997.872,1405.800 1001.292,1569.000 1040.561 L 1636.000 1056.682 1636.555 1095.341 C 1636.860 1116.603,1638.210 1193.400,1639.555 1266.000 L 1642.000 1398.000 1835.984 1553.000 L 2029.968 1708.000 2214.955 1523.045 L 2399.941 1338.091 2362.971 1300.718 C 2316.096 1253.333,2241.748 1186.711,2189.319 1145.113 C 2003.475 997.660,1768.051 886.386,1539.730 838.084 C 1416.816 812.080,1403.954 810.950,1218.000 809.798 C 1123.400 809.212,1041.500 809.481,1036.000 810.396 " fill="#1D1E23" stroke="none" fill-rule="evenodd"/></svg>