<svg viewBox="0 0 2400 2400" fill="none" xmlns="http://www.w3.org/2000/svg"><path d="M1096.000 804.075 C 786.101 827.933,511.537 926.088,267.290 1100.333 C 201.489 1147.275,140.869 1198.998,68.803 1269.691 L -0.393 1337.569 154.803 1493.044 C 240.162 1578.556,323.772 1661.033,340.605 1676.327 L 371.209 1704.135 438.605 1651.308 C 475.672 1622.253,563.150 1552.953,633.000 1497.307 L 760.000 1396.134 760.024 1259.067 C 760.037 1183.680,761.188 1107.363,762.580 1089.474 L 765.113 1056.948 817.556 1042.674 C 881.160 1025.363,956.014 1010.209,1018.158 1002.063 C 1073.671 994.786,1306.447 993.593,1367.158 1000.275 C 1415.657 1005.613,1527.100 1027.767,1588.436 1044.264 L 1634.872 1056.753 1637.412 1089.377 C 1638.809 1107.320,1639.963 1183.662,1639.976 1259.026 L 1640.000 1396.053 1649.000 1403.804 C 1653.950 1408.068,1741.700 1478.122,1844.000 1559.481 L 2030.000 1707.407 2215.204 1522.703 L 2400.408 1338.000 2329.191 1268.000 C 2226.064 1166.637,2135.728 1096.200,2022.000 1028.479 C 1818.136 907.086,1608.292 836.586,1371.913 810.075 C 1304.950 802.565,1157.312 799.354,1096.000 804.075 " fill="#1D1E23" stroke="none" fill-rule="evenodd"/></svg>