<svg viewBox="0 0 2400 2400" fill="none" xmlns="http://www.w3.org/2000/svg"><path d="M1430.000 578.290 C 1423.400 581.723,1414.052 588.230,1409.226 592.751 C 1400.553 600.875,1400.438 602.642,1399.226 745.877 C 1398.291 856.388,1396.783 892.248,1392.871 896.957 C 1390.050 900.352,1379.250 904.333,1368.871 905.803 C 1335.261 910.564,1228.588 935.447,1179.652 949.941 C 1035.195 992.727,867.053 1081.827,755.201 1174.861 C 588.802 1313.264,458.013 1506.447,374.235 1737.566 C 345.307 1817.371,302.232 1969.866,304.821 1983.309 C 305.583 1987.264,322.716 1969.222,349.894 1935.845 C 527.591 1717.617,754.931 1582.467,1042.121 1524.329 C 1122.913 1507.973,1213.852 1498.330,1333.000 1493.484 L 1400.000 1490.759 1400.000 1644.965 L 1400.000 1799.171 1413.914 1811.388 C 1428.806 1824.464,1449.474 1830.442,1464.652 1826.064 C 1473.905 1823.395,2057.183 1241.648,2078.095 1214.231 L 2088.950 1200.000 2078.796 1186.688 C 2062.968 1165.936,1534.103 634.289,1496.518 601.346 C 1460.628 569.890,1451.941 566.879,1430.000 578.290 " fill="#1D1E23" stroke="none" fill-rule="evenodd"/></svg>