<svg viewBox="0 0 2400 2400" fill="none" xmlns="http://www.w3.org/2000/svg"><path d="M1416.941 585.689 L 1402.000 599.378 1400.861 749.689 C 1400.234 832.360,1399.004 900.000,1398.127 900.000 C 1397.250 900.000,1371.663 904.588,1341.266 910.196 C 1197.600 936.700,1086.296 973.764,966.711 1034.922 C 675.971 1183.613,473.019 1434.195,355.186 1789.965 C 336.899 1845.179,298.519 1991.852,301.562 1994.895 C 302.284 1995.617,313.189 1982.504,325.795 1965.754 C 407.017 1857.842,498.063 1771.450,608.000 1697.974 C 801.578 1568.597,1033.145 1501.721,1316.862 1493.254 L 1399.725 1490.781 1400.862 1645.702 L 1402.000 1800.622 1416.941 1814.311 C 1429.566 1825.878,1434.828 1828.000,1450.881 1828.000 L 1469.879 1828.000 1778.939 1519.035 C 2024.696 1273.355,2088.000 1208.008,2088.000 1200.000 C 2088.000 1191.992,2024.696 1126.645,1778.939 880.965 L 1469.879 572.000 1450.881 572.000 C 1434.828 572.000,1429.566 574.122,1416.941 585.689 " fill="#1D1E23" stroke="none" fill-rule="evenodd"/></svg>