<svg viewBox="0 0 2400 2400" fill="none" xmlns="http://www.w3.org/2000/svg"><path d="M1427.629 581.293 C 1414.707 588.105,1408.811 594.245,1405.546 604.293 C 1402.941 612.313,1400.041 668.617,1398.557 740.000 C 1395.733 875.828,1394.034 894.630,1384.103 899.945 C 1380.361 901.947,1347.757 909.951,1311.650 917.730 C 1179.169 946.273,1087.626 978.118,978.000 1033.799 C 851.923 1097.835,771.916 1155.555,675.878 1251.762 C 563.403 1364.434,493.992 1466.900,416.947 1634.000 C 378.970 1716.367,299.165 1963.495,304.944 1980.833 C 305.755 1983.265,330.815 1957.523,360.634 1923.628 C 474.687 1793.980,578.362 1710.100,708.169 1642.449 C 891.955 1546.666,1058.994 1507.625,1344.953 1493.617 L 1399.905 1490.925 1400.953 1646.274 L 1402.000 1801.622 1418.000 1812.775 C 1451.832 1836.357,1448.956 1837.778,1538.270 1753.355 C 1633.414 1663.421,2032.046 1265.442,2065.490 1226.998 L 2088.981 1199.995 2053.490 1161.103 C 2033.971 1139.712,1900.100 1004.005,1756.000 859.533 C 1519.758 622.680,1465.796 572.000,1449.846 572.000 C 1447.323 572.000,1437.325 576.182,1427.629 581.293 " fill="#1D1E23" stroke="none" fill-rule="evenodd"/></svg>