<svg viewBox="0 0 2400 2400" fill="none" xmlns="http://www.w3.org/2000/svg"><path d="M1426.076 581.150 C 1401.398 595.127,1400.127 600.345,1400.046 688.000 C 1399.937 804.845,1395.643 891.786,1389.686 897.743 C 1386.918 900.511,1368.756 905.869,1349.327 909.649 C 1200.959 938.517,1100.273 971.713,982.117 1030.719 C 779.750 1131.777,628.094 1269.329,508.078 1460.672 C 475.162 1513.150,414.766 1632.797,392.317 1690.000 C 361.967 1767.336,315.708 1917.689,306.188 1969.944 L 303.283 1985.889 312.130 1977.944 C 316.996 1973.575,339.395 1948.400,361.906 1922.000 C 537.709 1715.822,746.789 1590.818,1017.110 1530.270 C 1101.710 1511.321,1205.167 1499.532,1339.000 1493.590 L 1400.000 1490.882 1400.000 1644.744 L 1400.000 1798.605 1409.055 1807.112 C 1419.659 1817.074,1444.209 1828.000,1455.988 1828.000 C 1470.469 1828.000,2088.000 1214.247,2088.000 1199.855 C 2088.000 1189.902,1524.376 622.696,1480.641 588.635 C 1456.243 569.634,1448.327 568.548,1426.076 581.150 " fill="#1D1E23" stroke="none" fill-rule="evenodd"/></svg>