<svg viewBox="0 0 2400 2400" fill="none" xmlns="http://www.w3.org/2000/svg"><path d="M1430.000 576.657 C 1425.600 579.085,1417.050 585.667,1411.000 591.284 L 1400.000 601.497 1400.000 748.608 C 1400.000 914.148,1402.810 900.357,1368.000 905.629 C 1317.781 913.235,1212.433 938.628,1158.069 956.230 C 1045.531 992.668,945.706 1040.893,848.000 1106.025 C 778.193 1152.559,738.206 1185.395,677.784 1245.799 C 514.873 1408.664,400.237 1617.460,328.489 1882.000 C 307.465 1959.517,300.055 1992.000,303.396 1992.000 C 304.873 1992.000,315.964 1978.963,328.041 1963.029 C 528.353 1698.746,811.320 1544.178,1168.000 1504.207 C 1217.852 1498.621,1325.383 1492.032,1367.000 1492.014 L 1400.000 1492.000 1400.000 1645.252 L 1400.000 1798.503 1411.000 1808.763 C 1426.656 1823.365,1437.259 1828.000,1455.006 1828.000 C 1470.253 1828.000,1476.006 1822.513,1768.483 1529.000 C 1932.352 1364.550,2071.495 1223.250,2077.688 1215.000 L 2088.950 1200.000 2077.709 1185.000 C 2071.527 1176.750,1932.375 1035.450,1768.483 871.000 C 1470.708 572.212,1470.485 572.000,1454.248 572.122 C 1445.312 572.189,1434.400 574.229,1430.000 576.657 " fill="#1D1E23" stroke="none" fill-rule="evenodd"/></svg>