<svg viewBox="0 0 2400 2400" fill="none" xmlns="http://www.w3.org/2000/svg"><path d="M903.788 1404H906.988V1490.4H998.188V1186.4H786.987V1275.2H896.588V1311.2C896.588 1327.2 893.388 1341.07 886.988 1352.8 880.588 1364.53 872.054 1374.4 861.388 1382.4 850.721 1390.4 838.188 1396.53 823.787 1400.8 809.388 1404.53 793.921 1406.4 777.388 1406.4 735.254 1406.4 701.654 1393.6 676.588 1368 651.521 1342.4 638.988 1305.07 638.988 1256V1166.4C638.988 1116.8 651.254 1079.47 675.788 1054.4 700.854 1028.8 734.188 1016 775.788 1016 809.388 1016 836.054 1024 855.788 1040 876.054 1056 891.254 1076 901.388 1100L986.988 1049.6C966.721 1008.53 938.988 977.067 903.788 955.2 868.588 933.333 825.921 922.4 775.788 922.4 738.454 922.4 704.588 928.8 674.188 941.6 643.788 954.4 617.654 973.067 595.788 997.6 573.921 1022.13 556.854 1052.53 544.588 1088.8 532.854 1124.53 526.988 1165.87 526.988 1212.8 526.988 1259.73 532.854 1301.07 544.588 1336.8 556.321 1372.53 572.321 1402.67 592.588 1427.2 613.387 1451.2 637.654 1469.33 665.388 1481.6 693.654 1493.87 724.321 1500 757.388 1500 799.521 1500 833.121 1490.93 858.188 1472.8 883.788 1454.13 898.988 1431.2 903.788 1404ZM1113.32 1405.6V1490.4H1366.92V1405.6H1292.52V1016.8H1366.92V932H1113.32V1016.8H1186.92V1405.6H1113.32ZM1490.8 932V1490.4H1596.4V1254.4H1817.2V1160.8H1596.4V1025.6H1850V932H1490.8Z" fill="#1D1E23"/><path fill-rule="evenodd" d="M200 800C200 468.629 468.629 200 800 200H1600C1931.37 200 2200 468.629 2200 800V1600C2200 1931.37 1931.37 2200 1600 2200H800C468.629 2200 200 1931.37 200 1600V800ZM800 400H1600C1820.91 400 2000 579.086 2000 800V1600C2000 1820.91 1820.91 2000 1600 2000H800C579.086 2000 400 1820.91 400 1600V800C400 579.086 579.086 400 800 400Z" fill="#1D1E23"/></svg>