<svg viewBox="0 0 2400 2400" fill="none" xmlns="http://www.w3.org/2000/svg"><path d="M730.000 204.583 C 689.116 209.102,622.248 225.629,584.916 240.443 C 385.157 319.711,249.253 485.057,208.833 698.000 C 202.634 730.660,202.000 777.236,202.000 1200.000 C 202.000 1710.716,201.012 1687.126,226.037 1774.000 C 239.010 1819.039,272.108 1888.608,301.433 1932.476 C 392.834 2069.208,531.282 2159.521,698.000 2191.167 C 730.660 2197.366,777.236 2198.000,1200.000 2198.000 C 1622.764 2198.000,1669.340 2197.366,1702.000 2191.167 C 1759.747 2180.205,1806.834 2165.110,1854.476 2142.285 C 2034.146 2056.206,2153.578 1900.026,2191.167 1702.000 C 2197.366 1669.340,2198.000 1622.764,2198.000 1200.000 C 2198.000 689.284,2198.988 712.874,2173.963 626.000 C 2160.990 580.961,2127.892 511.392,2098.567 467.524 C 1999.661 319.565,1840.042 223.011,1663.158 204.143 C 1615.265 199.035,776.627 199.430,730.000 204.583 M1703.790 413.231 C 1854.643 457.292,1960.993 571.710,1991.826 723.117 C 2000.072 763.608,2000.182 771.068,1999.086 1213.117 L 1997.972 1662.000 1987.259 1700.832 C 1947.630 1844.475,1840.215 1950.428,1694.889 1989.221 L 1662.000 1998.000 1200.000 1998.000 L 738.000 1998.000 705.111 1989.221 C 559.454 1950.339,453.366 1845.722,412.929 1701.089 L 402.000 1662.000 402.000 1200.000 L 402.000 738.000 412.929 698.911 C 456.824 541.909,578.934 431.692,739.678 403.985 C 749.755 402.248,962.300 401.134,1212.000 401.510 L 1666.000 402.193 1703.790 413.231 M704.762 932.100 C 663.528 942.902,638.311 957.606,605.579 989.932 C 569.778 1025.289,547.256 1069.191,535.303 1126.916 C 523.543 1183.713,526.507 1274.554,541.794 1325.892 C 556.976 1376.874,573.426 1405.674,605.878 1438.087 C 651.434 1483.587,702.454 1502.493,770.000 1498.903 C 833.450 1495.531,873.585 1472.536,895.736 1426.865 L 907.796 1402.000 907.898 1447.131 L 908.000 1492.262 953.000 1491.131 L 998.000 1490.000 999.048 1339.000 L 1000.096 1188.000 894.048 1188.000 L 788.000 1188.000 788.000 1232.000 L 788.000 1276.000 842.000 1276.000 L 896.000 1276.000 896.000 1300.536 C 896.000 1333.846,889.317 1353.678,872.121 1371.397 C 838.092 1406.462,780.770 1416.322,722.040 1397.213 C 694.085 1388.118,659.944 1353.575,649.640 1323.960 C 642.960 1304.758,642.000 1290.194,642.000 1208.000 C 642.000 1115.190,642.131 1113.722,652.361 1092.000 C 667.162 1060.571,681.026 1045.965,709.248 1032.072 C 755.008 1009.544,813.493 1011.848,850.938 1037.653 C 861.393 1044.858,877.387 1061.623,886.479 1074.909 L 903.010 1099.066 943.505 1075.329 C 965.777 1062.274,984.000 1049.410,984.000 1046.743 C 984.000 1038.712,956.312 1000.162,937.875 982.523 C 895.975 942.437,843.823 923.841,774.360 924.220 C 748.095 924.364,723.790 927.115,704.762 932.100 M1112.000 974.000 L 1112.000 1016.000 1150.038 1016.000 L 1188.076 1016.000 1187.038 1211.000 L 1186.000 1406.000 1149.000 1407.150 L 1112.000 1408.300 1112.000 1448.150 L 1112.000 1488.000 1240.000 1488.000 L 1368.000 1488.000 1368.000 1448.150 L 1368.000 1408.300 1331.000 1407.150 L 1294.000 1406.000 1292.962 1211.000 L 1291.924 1016.000 1329.962 1016.000 L 1368.000 1016.000 1368.000 974.000 L 1368.000 932.000 1240.000 932.000 L 1112.000 932.000 1112.000 974.000 M1492.000 1210.000 L 1492.000 1488.000 1544.000 1488.000 L 1596.000 1488.000 1596.000 1370.000 L 1596.000 1252.000 1706.000 1252.000 L 1816.000 1252.000 1816.000 1206.000 L 1816.000 1160.000 1706.000 1160.000 L 1596.000 1160.000 1596.000 1092.000 L 1596.000 1024.000 1722.000 1024.000 L 1848.000 1024.000 1848.000 978.000 L 1848.000 932.000 1670.000 932.000 L 1492.000 932.000 1492.000 1210.000 " fill="#1D1E23" stroke="none" fill-rule="evenodd"/></svg>