<svg viewBox="0 0 2400 2400" fill="none" xmlns="http://www.w3.org/2000/svg"><path d="M924.000 204.251 C 803.867 205.918,706.742 208.996,690.990 211.633 C 676.135 214.121,644.635 222.453,620.990 230.148 C 438.899 289.411,294.331 430.999,233.145 610.000 C 210.086 677.458,208.085 691.673,204.004 817.027 C 199.342 960.256,199.312 1348.970,203.948 1552.000 C 206.900 1681.287,208.481 1706.419,215.399 1734.000 C 241.975 1839.957,293.872 1932.648,371.764 2013.271 C 426.551 2069.978,469.938 2102.276,534.000 2134.040 C 589.998 2161.806,626.588 2174.907,690.967 2190.242 L 731.934 2200.000 1086.967 2199.800 C 1282.235 2199.690,1500.500 2198.026,1572.000 2196.102 C 1691.796 2192.879,1704.983 2191.814,1740.000 2182.538 C 1855.514 2151.939,1933.061 2106.968,2020.180 2020.053 C 2107.397 1933.041,2148.505 1861.351,2182.467 1737.034 L 2193.131 1698.000 2196.985 1446.117 C 2201.863 1127.325,2196.167 717.081,2186.270 674.395 C 2169.402 601.645,2137.875 529.937,2094.647 466.000 C 2061.206 416.540,1981.049 336.952,1932.000 304.509 C 1859.780 256.739,1770.502 220.555,1704.000 212.101 C 1668.561 207.596,1321.585 199.830,1200.000 200.821 C 1161.500 201.134,1037.300 202.678,924.000 204.251 M1704.299 414.096 C 1847.834 462.888,1942.070 558.629,1985.708 700.000 L 1996.203 734.000 1995.101 1210.000 L 1994.000 1686.000 1976.158 1729.731 C 1922.336 1861.648,1840.949 1938.351,1704.613 1985.643 L 1663.226 2000.000 1201.842 2000.000 L 740.459 2000.000 698.926 1986.395 C 617.422 1959.696,561.024 1925.521,511.686 1872.934 C 476.420 1835.347,446.429 1786.425,423.051 1728.354 L 406.000 1686.000 404.898 1206.000 L 403.795 726.000 414.240 696.000 C 454.953 579.064,524.971 494.966,623.711 444.405 C 688.806 411.072,690.321 410.800,826.000 408.052 C 892.000 406.715,1109.935 405.256,1310.299 404.810 L 1674.599 404.000 1704.299 414.096 M716.000 930.686 C 664.151 938.961,598.681 987.932,567.687 1041.623 C 529.817 1107.226,517.685 1226.153,539.901 1314.000 C 568.231 1426.020,652.046 1497.929,754.000 1497.687 C 817.741 1497.535,861.171 1477.704,889.329 1435.892 C 901.872 1417.266,903.169 1416.374,905.431 1424.817 C 906.784 1429.868,907.915 1447.109,907.945 1463.131 L 908.000 1492.262 953.000 1491.131 L 998.000 1490.000 999.048 1339.000 L 1000.096 1188.000 894.048 1188.000 L 788.000 1188.000 788.000 1232.000 L 788.000 1276.000 842.000 1276.000 L 896.000 1276.000 896.000 1287.265 C 896.000 1310.644,887.089 1346.539,877.715 1360.922 C 857.040 1392.645,800.288 1412.218,753.865 1403.637 C 740.916 1401.243,722.114 1395.125,712.082 1390.041 C 688.102 1377.890,657.810 1345.169,652.356 1325.528 C 649.781 1316.253,648.051 1268.123,648.060 1206.000 L 648.075 1102.000 659.975 1081.251 C 672.534 1059.353,686.458 1046.978,716.000 1031.457 C 731.669 1023.225,739.439 1022.016,776.000 1022.126 C 814.910 1022.243,819.595 1023.125,839.680 1034.126 C 853.644 1041.774,868.492 1054.898,881.398 1071.000 C 892.419 1084.750,903.048 1096.000,905.020 1096.000 C 910.468 1096.000,962.420 1064.976,974.792 1054.334 L 985.695 1044.955 974.149 1027.477 C 955.994 999.996,924.226 971.572,889.828 952.033 C 862.976 936.781,853.650 933.651,828.099 931.318 C 796.062 928.392,732.610 928.034,716.000 930.686 M1112.000 974.000 L 1112.000 1016.000 1150.000 1016.000 L 1188.000 1016.000 1188.000 1109.351 C 1188.000 1160.694,1186.811 1248.894,1185.359 1305.351 L 1182.717 1408.000 1147.359 1408.000 L 1112.000 1408.000 1112.000 1448.000 L 1112.000 1488.000 1240.000 1488.000 L 1368.000 1488.000 1368.000 1448.000 L 1368.000 1408.000 1332.639 1408.000 L 1297.278 1408.000 1294.648 1315.000 C 1293.202 1263.850,1292.014 1175.650,1292.009 1119.000 L 1292.000 1016.000 1330.000 1016.000 L 1368.000 1016.000 1368.000 974.000 L 1368.000 932.000 1240.000 932.000 L 1112.000 932.000 1112.000 974.000 M1492.000 1210.000 L 1492.000 1488.000 1544.000 1488.000 L 1596.000 1488.000 1596.000 1370.000 L 1596.000 1252.000 1706.000 1252.000 L 1816.000 1252.000 1816.000 1206.000 L 1816.000 1160.000 1706.000 1160.000 L 1596.000 1160.000 1596.000 1092.000 L 1596.000 1024.000 1722.000 1024.000 L 1848.000 1024.000 1848.000 978.000 L 1848.000 932.000 1670.000 932.000 L 1492.000 932.000 1492.000 1210.000 " fill="#1D1E23" stroke="none" fill-rule="evenodd"/></svg>