<svg viewBox="0 0 2400 2400" fill="none" xmlns="http://www.w3.org/2000/svg"><path d="M946.000 203.954 C 842.600 205.697,741.380 208.327,721.066 209.798 C 642.862 215.462,549.389 251.339,463.811 308.538 C 421.002 337.151,348.433 406.938,316.961 449.758 C 255.976 532.733,216.491 633.908,206.919 731.726 C 200.395 798.406,200.537 1588.803,207.088 1668.000 C 215.417 1768.689,252.666 1862.021,321.487 1954.643 C 350.650 1993.890,424.770 2066.453,461.112 2091.334 C 522.845 2133.598,599.066 2166.760,684.000 2188.308 L 730.000 2199.978 1088.000 2199.834 C 1458.715 2199.685,1677.174 2195.559,1717.125 2187.952 C 1756.720 2180.412,1824.182 2156.158,1868.000 2133.707 C 1921.103 2106.500,1966.829 2072.068,2019.183 2019.865 C 2104.403 1934.892,2145.820 1864.274,2180.659 1744.543 L 2193.039 1702.000 2197.188 1440.000 C 2201.402 1173.953,2196.194 740.185,2188.146 686.869 C 2179.695 630.881,2140.374 535.776,2100.963 476.000 C 2061.574 416.258,1986.072 341.229,1925.037 301.176 C 1865.629 262.190,1782.485 226.816,1725.255 216.177 C 1668.193 205.569,1244.482 198.923,946.000 203.954 M1715.175 418.416 C 1784.436 444.133,1831.035 473.256,1879.323 521.004 C 1926.832 567.982,1964.859 632.778,1986.719 704.000 L 1997.154 738.000 1994.871 1214.000 L 1992.587 1690.000 1981.940 1716.000 C 1922.175 1861.944,1844.576 1936.348,1698.681 1987.594 L 1663.363 2000.000 1201.909 2000.000 L 740.455 2000.000 703.228 1987.621 C 622.879 1960.904,569.539 1929.901,521.819 1882.181 C 479.622 1839.984,448.716 1790.485,418.058 1716.000 L 407.356 1690.000 405.082 1209.219 L 402.807 728.438 413.877 697.219 C 456.462 577.117,531.582 490.074,638.972 436.395 C 688.985 411.396,690.793 411.211,914.000 408.225 C 1026.200 406.724,1243.629 405.159,1397.175 404.748 L 1676.349 404.000 1715.175 418.416 M711.726 931.753 C 673.700 938.778,617.037 976.446,586.144 1015.236 C 531.065 1084.398,511.881 1228.652,544.465 1328.652 C 582.585 1445.645,669.166 1506.569,781.342 1495.333 C 828.777 1490.582,861.886 1472.850,886.871 1438.814 C 899.491 1421.622,901.911 1419.920,904.470 1426.440 C 906.102 1430.598,907.564 1447.109,907.719 1463.131 L 908.000 1492.262 953.000 1491.131 L 998.000 1490.000 999.048 1339.000 L 1000.096 1188.000 894.048 1188.000 L 788.000 1188.000 788.000 1232.000 L 788.000 1276.000 842.000 1276.000 L 896.000 1276.000 896.000 1287.803 C 896.000 1307.349,887.641 1341.060,878.855 1356.945 C 850.104 1408.927,750.575 1420.793,695.266 1378.832 C 685.770 1371.628,672.431 1357.460,665.623 1347.348 C 650.181 1324.408,648.067 1305.250,648.028 1187.875 L 648.000 1101.750 661.698 1079.850 C 676.185 1056.690,687.759 1046.407,714.963 1032.529 C 729.119 1025.307,738.637 1024.000,777.058 1024.000 C 820.014 1024.000,823.382 1024.604,840.217 1035.320 C 849.998 1041.546,868.255 1057.746,880.789 1071.320 C 893.323 1084.894,904.709 1096.000,906.091 1096.000 C 910.679 1096.000,963.708 1063.867,974.644 1054.461 L 985.400 1045.209 976.925 1031.605 C 956.576 998.940,896.400 950.843,859.667 937.883 C 840.510 931.123,738.103 926.881,711.726 931.753 M1112.000 974.000 L 1112.000 1016.000 1150.000 1016.000 L 1188.000 1016.000 1187.993 1095.000 C 1187.989 1138.450,1186.799 1226.650,1185.348 1291.000 L 1182.711 1408.000 1147.356 1408.000 L 1112.000 1408.000 1112.000 1448.000 L 1112.000 1488.000 1240.000 1488.000 L 1368.000 1488.000 1368.000 1448.000 L 1368.000 1408.000 1332.642 1408.000 L 1297.284 1408.000 1294.650 1303.000 C 1293.202 1245.250,1292.013 1157.050,1292.008 1107.000 L 1292.000 1016.000 1330.000 1016.000 L 1368.000 1016.000 1368.000 974.000 L 1368.000 932.000 1240.000 932.000 L 1112.000 932.000 1112.000 974.000 M1492.000 1210.000 L 1492.000 1488.000 1544.000 1488.000 L 1596.000 1488.000 1596.000 1370.000 L 1596.000 1252.000 1706.000 1252.000 L 1816.000 1252.000 1816.000 1206.000 L 1816.000 1160.000 1706.000 1160.000 L 1596.000 1160.000 1596.000 1092.000 L 1596.000 1024.000 1722.000 1024.000 L 1848.000 1024.000 1848.000 978.000 L 1848.000 932.000 1670.000 932.000 L 1492.000 932.000 1492.000 1210.000 " fill="#1D1E23" stroke="none" fill-rule="evenodd"/></svg>