<svg viewBox="0 0 2400 2400" fill="none" xmlns="http://www.w3.org/2000/svg"><path d="M802.000 204.090 C 707.709 206.520,699.374 207.361,656.000 218.831 C 539.619 249.607,450.843 301.141,369.038 385.410 C 304.041 452.364,256.018 533.190,228.383 622.142 C 202.845 704.344,203.809 687.485,201.410 1094.000 C 199.078 1489.189,202.867 1686.493,213.624 1730.000 C 242.240 1845.742,294.737 1939.236,377.742 2022.282 C 464.943 2109.527,561.769 2161.962,685.246 2188.810 L 726.000 2197.671 1200.000 2197.671 C 1673.889 2197.671,1674.009 2197.669,1714.591 2188.843 C 1844.542 2160.581,1948.189 2102.267,2039.018 2006.312 C 2112.240 1928.958,2164.370 1827.182,2188.743 1714.000 C 2195.999 1680.304,2196.632 1654.324,2198.636 1308.000 C 2200.914 914.227,2197.056 713.144,2186.395 670.000 C 2158.223 555.983,2104.633 460.077,2024.250 379.826 C 1940.517 296.231,1856.876 248.230,1744.193 219.103 C 1701.703 208.119,1689.984 206.897,1598.000 203.853 C 1483.775 200.073,951.748 200.231,802.000 204.090 M1706.731 414.421 C 1753.641 428.283,1812.730 459.328,1851.579 490.525 C 1915.030 541.478,1963.678 617.480,1987.001 702.094 L 1998.000 742.000 1997.471 1206.000 L 1996.942 1670.000 1984.080 1710.000 C 1938.664 1851.243,1836.480 1949.513,1693.247 1989.691 L 1656.495 2000.000 1200.000 2000.000 L 743.505 2000.000 706.753 1989.593 C 665.708 1977.970,606.567 1951.539,577.287 1931.732 C 501.660 1880.574,446.130 1804.362,416.420 1710.952 L 404.000 1671.904 404.000 1199.459 L 404.000 727.013 418.174 684.655 C 462.716 551.543,552.560 461.255,684.000 417.515 L 718.000 406.201 868.000 404.021 C 950.500 402.822,1165.600 402.496,1346.000 403.295 L 1674.000 404.749 1706.731 414.421 M724.989 928.161 C 659.817 939.874,609.792 974.014,571.903 1032.635 C 513.316 1123.281,513.342 1304.872,571.956 1395.409 C 618.794 1467.757,692.879 1505.495,774.521 1498.594 C 830.795 1493.837,867.911 1472.849,892.777 1431.725 L 908.000 1406.550 908.000 1449.406 L 908.000 1492.262 953.000 1491.131 L 998.000 1490.000 999.048 1339.000 L 1000.096 1188.000 894.048 1188.000 L 788.000 1188.000 788.000 1232.000 L 788.000 1276.000 842.572 1276.000 L 897.143 1276.000 894.992 1307.386 C 892.599 1342.301,887.006 1355.935,867.341 1374.795 C 817.966 1422.149,717.591 1415.458,673.692 1361.886 C 645.390 1327.347,644.186 1321.203,644.088 1210.872 C 643.992 1103.129,644.475 1100.193,667.841 1066.231 C 677.315 1052.461,687.093 1044.932,710.567 1033.330 C 738.736 1019.408,743.581 1018.293,775.503 1018.389 C 827.593 1018.546,857.839 1034.759,888.574 1079.000 C 895.070 1088.350,902.234 1096.000,904.494 1096.000 C 910.373 1096.000,961.830 1065.482,974.883 1054.255 L 985.879 1044.797 970.371 1022.280 C 940.185 978.452,900.449 948.896,852.000 934.235 C 825.736 926.287,754.397 922.876,724.989 928.161 M1112.000 974.000 L 1112.000 1016.000 1150.000 1016.000 L 1188.000 1016.000 1188.000 1139.359 C 1188.000 1207.206,1186.816 1295.406,1185.369 1335.359 L 1182.738 1408.000 1147.369 1408.000 L 1112.000 1408.000 1112.000 1448.000 L 1112.000 1488.000 1240.000 1488.000 L 1368.000 1488.000 1368.000 1448.000 L 1368.000 1408.000 1332.630 1408.000 L 1297.259 1408.000 1294.642 1339.000 C 1293.202 1301.050,1292.019 1212.850,1292.012 1143.000 L 1292.000 1016.000 1330.000 1016.000 L 1368.000 1016.000 1368.000 974.000 L 1368.000 932.000 1240.000 932.000 L 1112.000 932.000 1112.000 974.000 M1492.000 1210.000 L 1492.000 1488.000 1544.000 1488.000 L 1596.000 1488.000 1596.000 1370.000 L 1596.000 1252.000 1706.000 1252.000 L 1816.000 1252.000 1816.000 1206.000 L 1816.000 1160.000 1706.000 1160.000 L 1596.000 1160.000 1596.000 1092.000 L 1596.000 1024.000 1722.000 1024.000 L 1848.000 1024.000 1848.000 978.000 L 1848.000 932.000 1670.000 932.000 L 1492.000 932.000 1492.000 1210.000 " fill="#1D1E23" stroke="none" fill-rule="evenodd"/></svg>