<svg viewBox="0 0 2400 2400" fill="none" xmlns="http://www.w3.org/2000/svg"><path d="M874.000 204.101 C 737.109 206.245,700.815 207.977,678.000 213.457 C 559.083 242.018,461.776 294.781,381.919 374.000 C 299.112 456.145,247.789 545.089,217.805 658.411 C 207.837 696.085,207.136 705.448,203.306 852.000 C 198.696 1028.394,201.797 1630.695,207.612 1688.264 C 217.438 1785.549,273.919 1906.037,349.995 1992.000 C 441.974 2095.933,548.786 2158.244,688.796 2189.646 L 734.963 2200.000 1090.482 2199.600 C 1286.017 2199.380,1503.600 2197.857,1574.000 2196.215 C 1693.162 2193.435,1704.636 2192.526,1740.180 2183.053 C 1854.321 2152.631,1941.535 2102.512,2024.000 2019.951 C 2082.106 1961.776,2125.923 1895.483,2156.160 1820.000 C 2169.871 1785.770,2187.858 1721.059,2192.849 1688.000 C 2199.604 1643.260,2199.745 782.185,2193.007 719.684 C 2184.259 638.529,2150.744 548.694,2102.186 476.244 C 2011.094 340.330,1877.316 248.002,1721.976 213.838 C 1669.314 202.256,1278.438 197.768,874.000 204.101 M1708.250 415.426 C 1780.170 439.775,1839.900 476.218,1884.357 522.875 C 1932.376 573.271,1965.450 630.831,1985.962 699.705 L 1996.000 733.410 1996.000 1204.386 L 1996.000 1675.363 1983.540 1710.681 C 1957.538 1784.387,1921.550 1842.313,1873.265 1888.178 C 1823.041 1935.886,1775.019 1963.259,1698.952 1987.537 L 1659.904 2000.000 1200.793 2000.000 L 741.682 2000.000 702.122 1987.634 C 554.833 1941.594,467.842 1857.275,416.395 1710.681 L 404.000 1675.363 404.000 1199.880 L 404.000 724.397 417.535 687.005 C 445.943 608.529,476.643 559.447,527.351 511.442 C 587.972 454.052,669.212 413.355,734.000 407.922 C 751.600 406.446,970.412 404.960,1220.250 404.619 L 1674.499 404.000 1708.250 415.426 M694.000 935.850 C 638.718 953.968,587.837 999.260,560.210 1054.942 C 524.448 1127.020,518.217 1254.944,546.386 1338.714 C 558.941 1376.049,574.169 1401.512,601.346 1430.613 C 650.247 1482.975,716.074 1506.865,784.125 1496.947 C 837.575 1489.156,866.845 1471.445,892.960 1431.092 L 906.000 1410.941 907.141 1451.600 L 908.283 1492.259 953.141 1491.130 L 998.000 1490.000 999.048 1339.000 L 1000.096 1188.000 894.048 1188.000 L 788.000 1188.000 788.000 1232.000 L 788.000 1276.000 842.587 1276.000 L 897.174 1276.000 894.632 1306.071 C 893.154 1323.558,888.772 1342.647,884.161 1351.684 C 851.699 1415.315,739.117 1425.304,681.837 1369.634 C 647.551 1336.312,646.000 1329.402,646.000 1210.000 C 646.000 1109.449,646.306 1105.378,655.234 1087.254 C 666.873 1063.625,690.767 1041.874,718.614 1029.559 C 735.772 1021.971,747.110 1020.000,773.611 1020.000 C 826.917 1020.000,853.334 1032.919,884.537 1074.247 C 893.570 1086.211,902.681 1096.000,904.783 1096.000 C 910.436 1096.000,962.162 1065.197,974.883 1054.255 L 985.879 1044.797 970.331 1022.222 C 948.151 990.018,920.136 966.437,881.044 947.066 L 847.056 930.224 782.528 929.104 C 727.165 928.143,714.591 929.101,694.000 935.850 M1112.000 974.000 L 1112.000 1016.000 1150.000 1016.000 L 1188.000 1016.000 1187.990 1125.000 C 1187.985 1184.950,1186.798 1273.150,1185.353 1321.000 L 1182.726 1408.000 1147.363 1408.000 L 1112.000 1408.000 1112.000 1448.000 L 1112.000 1488.000 1240.000 1488.000 L 1368.000 1488.000 1368.000 1448.000 L 1368.000 1408.000 1332.635 1408.000 L 1297.270 1408.000 1294.645 1327.000 C 1293.202 1282.450,1292.016 1194.250,1292.011 1131.000 L 1292.000 1016.000 1330.000 1016.000 L 1368.000 1016.000 1368.000 974.000 L 1368.000 932.000 1240.000 932.000 L 1112.000 932.000 1112.000 974.000 M1492.000 1210.000 L 1492.000 1488.000 1544.000 1488.000 L 1596.000 1488.000 1596.000 1370.000 L 1596.000 1252.000 1706.000 1252.000 L 1816.000 1252.000 1816.000 1206.000 L 1816.000 1160.000 1706.000 1160.000 L 1596.000 1160.000 1596.000 1092.000 L 1596.000 1024.000 1722.000 1024.000 L 1848.000 1024.000 1848.000 978.000 L 1848.000 932.000 1670.000 932.000 L 1492.000 932.000 1492.000 1210.000 " fill="#1D1E23" stroke="none" fill-rule="evenodd"/></svg>