<svg viewBox="0 0 2400 2400" fill="none" xmlns="http://www.w3.org/2000/svg"><path d="M1087.5 1481.25V976.266C1087.5 914.145 1037.12 863.766 975 863.766H806.25C681.973 863.766 581.25 964.488 581.25 1088.77V1368.75C581.25 1493.03 681.973 1593.75 806.25 1593.75H975C1037.12 1593.75 1087.5 1543.37 1087.5 1481.25ZM918.75 1425H806.25C775.242 1425 750 1399.76 750 1368.75V1088.77C750 1057.76 775.242 1032.52 806.25 1032.52H918.75V1425ZM1200 300C697.898 300 316.102 717.762 300 1200V1256.25C300 1287.33 325.172 1312.5 356.25 1312.5H412.5C443.578 1312.5 468.75 1287.33 468.75 1256.25V1200C468.75 796.793 796.793 468.75 1200 468.75C1603.21 468.75 1931.25 796.793 1931.25 1200H1930.83C1931.11 1208.54 1931.25 1782.61 1931.25 1782.61C1931.25 1864.7 1864.7 1931.25 1782.61 1931.25H1425C1425 1838.05 1349.45 1762.5 1256.25 1762.5H1143.75C1050.55 1762.5 975 1838.05 975 1931.25C975 2024.45 1050.55 2100 1143.75 2100H1782.61C1957.9 2100 2100 1957.9 2100 1782.61V1200C2083.9 717.762 1702.1 300 1200 300ZM1593.75 1593.75C1718.03 1593.75 1818.75 1493.03 1818.75 1368.75V1088.77C1818.75 964.488 1718.03 863.766 1593.75 863.766H1425C1362.88 863.766 1312.5 914.145 1312.5 976.266V1481.25C1312.5 1543.37 1362.88 1593.75 1425 1593.75H1593.75ZM1481.25 1032.52H1593.75C1624.76 1032.52 1650 1057.76 1650 1088.77V1368.75C1650 1399.76 1624.76 1425 1593.75 1425H1481.25V1032.52Z" fill="#1D1E23"/></svg>