<svg viewBox="0 0 2400 2400" fill="none" xmlns="http://www.w3.org/2000/svg"><path d="M1102.000 308.384 C 963.809 318.358,792.027 389.076,660.000 490.343 C 614.393 525.324,551.548 586.477,516.316 630.157 C 380.503 798.536,292.909 1041.218,300.808 1227.230 C 303.706 1295.479,315.350 1308.419,376.000 1310.786 C 401.009 1311.762,415.289 1310.247,430.000 1305.056 C 461.824 1293.828,461.557 1294.797,476.155 1138.000 C 478.613 1111.600,484.193 1071.319,488.555 1048.486 C 523.202 867.145,635.476 702.229,798.000 593.948 C 908.879 520.076,1009.876 485.828,1147.203 475.534 C 1281.696 465.453,1406.803 489.294,1521.986 546.956 C 1719.120 645.644,1856.375 819.371,1909.941 1038.000 L 1923.662 1094.000 1926.450 1456.322 L 1929.238 1818.643 1917.619 1840.162 C 1902.613 1867.954,1867.896 1903.365,1840.000 1919.332 L 1818.000 1931.925 1621.557 1931.962 L 1425.114 1932.000 1422.682 1911.461 C 1416.812 1861.897,1373.374 1802.684,1327.921 1782.286 C 1294.024 1767.075,1227.258 1761.316,1153.216 1767.219 C 1122.847 1769.640,1090.262 1774.358,1080.805 1777.702 C 1055.645 1786.599,1031.007 1805.785,1011.825 1831.418 C 983.467 1869.312,978.535 1884.088,978.250 1932.000 C 978.018 1970.957,978.869 1975.728,990.000 1997.851 C 1014.758 2047.059,1065.851 2085.731,1119.563 2095.917 C 1144.518 2100.650,1501.223 2100.926,1714.000 2096.377 L 1854.000 2093.384 1884.246 2081.413 C 1927.669 2064.226,1977.602 2033.476,2003.796 2007.792 C 2030.136 1981.964,2058.422 1938.280,2079.280 1891.216 L 2094.000 1858.000 2095.208 1496.000 C 2096.504 1107.242,2096.490 1106.901,2075.398 1020.000 C 2028.042 824.885,1921.395 644.942,1782.000 524.955 C 1644.468 406.571,1467.268 325.134,1319.207 312.265 C 1256.690 306.832,1149.935 304.924,1102.000 308.384 M773.561 871.523 C 702.981 877.411,638.559 926.442,601.253 1002.663 L 582.000 1042.000 582.104 1220.000 C 582.217 1414.879,583.204 1424.785,606.962 1469.579 C 622.347 1498.586,680.722 1556.153,708.000 1569.219 C 749.256 1588.980,770.375 1592.003,886.000 1594.696 C 992.199 1597.171,994.290 1597.064,1011.398 1588.322 C 1035.499 1576.006,1062.717 1549.947,1076.406 1526.082 L 1087.925 1506.000 1087.962 1228.801 C 1087.996 980.831,1087.315 950.253,1081.502 938.801 C 1070.228 916.592,1048.172 892.439,1028.751 881.034 L 1010.000 870.023 908.000 869.420 C 851.900 869.088,791.402 870.034,773.561 871.523 M1391.974 871.737 C 1361.454 881.021,1328.229 911.755,1319.712 938.581 C 1316.127 949.875,1314.342 1027.425,1313.041 1228.439 L 1311.265 1502.877 1319.917 1519.836 C 1331.997 1543.517,1358.192 1570.797,1381.918 1584.406 C 1401.695 1595.750,1402.942 1595.924,1464.000 1595.854 C 1559.876 1595.743,1638.301 1589.767,1664.687 1580.562 C 1729.506 1557.947,1790.147 1493.762,1810.715 1426.000 C 1817.287 1404.350,1817.980 1385.353,1817.794 1232.000 C 1817.616 1084.542,1816.680 1058.612,1810.736 1036.452 C 1800.070 996.681,1781.328 965.813,1747.010 931.495 C 1709.478 893.962,1680.347 878.611,1634.711 872.316 C 1599.594 867.472,1407.502 867.014,1391.974 871.737 M920.000 1228.000 L 920.000 1424.000 868.197 1424.000 C 804.088 1424.000,780.778 1419.425,765.932 1403.929 L 754.780 1392.288 756.986 1228.059 C 759.448 1044.760,758.977 1047.705,786.989 1040.399 C 810.189 1034.349,822.363 1033.245,873.000 1032.599 L 920.000 1032.000 920.000 1228.000 M1615.293 1041.217 C 1640.508 1049.478,1640.672 1050.597,1643.059 1230.655 L 1645.201 1392.309 1634.058 1403.939 C 1619.223 1419.424,1595.898 1424.000,1531.803 1424.000 L 1480.000 1424.000 1480.000 1227.407 L 1480.000 1030.814 1540.347 1033.624 C 1573.538 1035.169,1607.263 1038.586,1615.293 1041.217 " fill="#1D1E23" stroke="none" fill-rule="evenodd"/></svg>