<svg viewBox="0 0 2400 2400" fill="none" xmlns="http://www.w3.org/2000/svg"><path d="M1078.000 310.446 C 898.796 336.804,720.157 425.973,586.522 555.771 C 508.538 631.516,455.607 704.851,404.256 808.298 C 336.069 945.660,302.650 1073.339,302.256 1198.000 C 302.003 1278.063,305.825 1292.157,330.601 1302.509 C 354.245 1312.388,398.514 1314.162,425.514 1306.313 C 446.550 1300.198,449.283 1298.082,455.888 1282.797 C 459.880 1273.559,465.122 1248.000,467.536 1226.000 C 469.951 1204.000,474.747 1159.900,478.195 1128.000 C 492.381 996.745,525.215 901.732,590.852 802.000 C 685.144 658.727,837.131 545.985,996.000 501.468 C 1129.117 464.167,1292.965 466.109,1420.834 506.503 C 1541.188 544.523,1658.403 620.533,1740.816 714.000 C 1823.398 807.658,1879.061 916.335,1911.784 1047.791 L 1923.286 1094.000 1926.022 1458.000 L 1928.757 1822.000 1912.982 1846.000 C 1893.994 1874.887,1855.863 1911.826,1832.981 1923.500 C 1816.664 1931.824,1812.264 1932.000,1620.680 1932.000 L 1425.040 1932.000 1422.990 1915.000 C 1417.674 1870.933,1385.352 1819.566,1346.945 1794.146 C 1315.712 1773.475,1281.942 1766.819,1208.000 1766.761 C 1100.437 1766.677,1063.056 1777.057,1024.697 1817.659 C 996.259 1847.761,984.868 1869.761,979.900 1904.177 C 972.185 1957.629,980.622 1990.604,1012.000 2029.639 C 1041.749 2066.647,1083.210 2090.029,1129.831 2096.091 C 1162.613 2100.353,1558.111 2100.513,1736.000 2096.337 L 1858.000 2093.472 1887.356 2080.491 C 1984.316 2037.616,2037.797 1984.379,2080.731 1888.000 L 2095.876 1854.000 2095.904 1508.000 C 2095.919 1313.487,2094.207 1142.524,2091.993 1117.516 C 2078.593 966.142,1996.222 771.777,1887.931 636.000 C 1857.032 597.259,1781.630 522.575,1746.000 495.421 C 1624.578 402.885,1487.964 340.271,1358.000 317.590 C 1323.154 311.508,1108.083 306.021,1078.000 310.446 M798.000 871.896 C 744.912 874.829,724.385 879.859,696.439 896.787 C 654.279 922.325,621.873 959.799,595.080 1014.000 L 579.261 1046.000 581.368 1224.000 C 583.588 1411.609,585.000 1426.758,603.679 1463.371 C 615.135 1485.827,648.806 1524.012,678.133 1547.806 C 725.323 1586.093,775.493 1595.729,928.000 1595.795 C 1005.740 1595.829,1015.725 1592.797,1049.681 1558.841 C 1091.507 1517.015,1088.424 1544.505,1087.129 1224.906 C 1086.193 993.614,1085.036 944.293,1080.351 936.000 C 1068.972 915.858,1050.175 895.668,1032.310 884.398 L 1014.000 872.848 932.000 870.935 C 886.900 869.884,826.600 870.316,798.000 871.896 M1401.759 871.970 C 1366.733 877.112,1329.165 908.233,1319.636 940.000 C 1316.984 948.840,1314.595 1055.012,1313.153 1228.053 L 1310.871 1502.105 1320.022 1520.043 C 1332.724 1544.941,1371.174 1581.495,1393.718 1590.105 C 1410.232 1596.412,1422.368 1596.910,1507.106 1594.756 C 1559.298 1593.430,1614.600 1590.460,1630.000 1588.155 C 1705.059 1576.923,1780.385 1511.032,1808.514 1432.000 C 1817.662 1406.297,1817.764 1404.033,1817.432 1234.000 C 1817.068 1048.330,1816.352 1040.643,1795.292 996.516 C 1777.298 958.813,1727.373 908.081,1690.169 889.694 C 1664.724 877.118,1656.465 875.192,1613.819 871.891 C 1558.315 867.595,1431.239 867.642,1401.759 871.970 M920.000 1228.000 L 920.000 1424.000 870.197 1424.000 C 810.950 1424.000,784.172 1418.994,767.250 1404.755 L 754.734 1394.223 757.408 1236.112 C 758.883 1148.881,761.935 1071.297,764.216 1063.047 C 766.490 1054.823,771.979 1046.152,776.414 1043.779 C 788.097 1037.526,827.696 1033.089,877.000 1032.507 L 920.000 1032.000 920.000 1228.000 M1605.859 1040.365 C 1616.782 1042.430,1627.272 1045.672,1629.170 1047.570 C 1637.442 1055.842,1639.919 1091.219,1642.509 1238.113 L 1645.263 1394.226 1632.748 1404.757 C 1615.828 1418.994,1589.049 1424.000,1529.803 1424.000 L 1480.000 1424.000 1480.000 1227.436 L 1480.000 1030.872 1533.000 1033.741 C 1562.150 1035.319,1594.937 1038.300,1605.859 1040.365 " fill="#1D1E23" stroke="none" fill-rule="evenodd"/></svg>