<svg viewBox="0 0 2400 2400" fill="none" xmlns="http://www.w3.org/2000/svg"><path d="M1132.000 302.464 C 911.640 322.683,719.309 414.422,565.665 572.594 C 399.345 743.818,299.946 985.822,300.015 1219.367 C 300.032 1276.200,304.350 1288.854,328.963 1304.202 C 340.449 1311.364,347.472 1312.192,388.000 1311.165 C 426.538 1310.189,435.763 1308.702,444.868 1302.000 C 463.238 1288.477,467.996 1273.153,468.034 1227.395 C 468.215 1008.524,540.049 827.541,683.795 683.795 C 742.824 624.765,799.976 583.748,876.000 545.851 C 964.389 501.790,1042.523 480.329,1145.889 471.720 C 1245.369 463.435,1349.850 477.624,1448.000 512.748 C 1676.259 594.431,1852.730 791.296,1909.833 1027.952 C 1929.744 1110.473,1930.000 1116.152,1930.000 1476.000 L 1930.000 1814.000 1920.350 1838.000 C 1907.150 1870.829,1870.829 1907.150,1838.000 1920.350 L 1814.000 1930.000 1619.000 1931.144 L 1424.000 1932.289 1424.000 1918.870 C 1424.000 1901.413,1413.431 1865.732,1403.008 1848.000 C 1391.362 1828.188,1360.840 1797.295,1342.000 1786.252 C 1309.649 1767.288,1288.664 1764.000,1200.000 1764.000 C 1090.932 1764.000,1065.218 1771.408,1023.611 1814.815 C 987.383 1852.610,974.003 1889.075,976.802 1942.388 C 978.277 1970.497,980.778 1980.036,993.334 2005.440 C 1015.806 2050.910,1049.971 2079.047,1100.570 2093.756 C 1120.573 2099.571,1160.140 2100.122,1480.449 2099.046 C 1877.845 2097.711,1852.859 2099.376,1914.977 2070.082 C 1986.958 2036.135,2035.965 1987.246,2069.784 1915.645 C 2099.372 1853.001,2098.000 1873.797,2098.000 1488.000 C 2098.000 1218.655,2096.808 1134.024,2092.619 1106.000 C 2061.460 897.520,1973.496 715.858,1834.335 572.594 C 1696.390 430.583,1521.455 339.218,1331.924 310.196 C 1290.997 303.929,1167.910 299.168,1132.000 302.464 M748.645 872.017 C 675.952 891.338,619.208 944.773,593.162 1018.434 L 582.000 1050.000 582.000 1228.000 C 582.000 1405.089,582.049 1406.150,591.601 1435.310 C 614.762 1506.013,667.822 1559.484,738.000 1582.844 C 769.567 1593.352,771.543 1593.499,884.000 1593.748 C 995.844 1593.995,998.399 1593.820,1019.118 1584.457 C 1047.168 1571.781,1074.116 1541.713,1082.128 1514.151 C 1087.365 1496.137,1088.060 1454.995,1087.108 1219.606 C 1086.001 946.305,1085.990 945.982,1077.191 929.534 C 1063.655 904.232,1050.631 890.723,1027.331 877.816 L 1006.000 866.000 892.000 865.107 C 789.888 864.308,774.939 865.028,748.645 872.017 M1390.811 869.769 C 1354.718 882.644,1325.670 912.955,1315.972 947.862 C 1313.584 956.459,1312.036 1066.364,1312.022 1228.274 C 1312.003 1454.137,1312.917 1497.634,1318.040 1514.885 C 1326.043 1541.837,1353.269 1571.978,1380.882 1584.457 C 1401.601 1593.820,1404.156 1593.995,1516.000 1593.748 C 1628.457 1593.499,1630.433 1593.352,1662.000 1582.844 C 1730.850 1559.926,1781.508 1509.930,1807.219 1439.523 L 1818.000 1410.000 1819.235 1243.873 C 1820.623 1057.265,1819.058 1041.414,1794.037 988.728 C 1777.478 953.860,1738.586 912.647,1703.411 892.696 C 1660.185 868.178,1632.051 863.978,1512.360 864.176 C 1433.414 864.306,1402.085 865.748,1390.811 869.769 M920.000 1228.000 L 920.000 1424.000 855.801 1424.000 C 784.169 1424.000,773.490 1421.196,759.838 1398.806 C 752.444 1386.679,752.029 1377.656,752.015 1228.617 C 751.998 1051.427,751.423 1055.062,781.870 1039.991 C 795.859 1033.066,806.097 1032.006,859.000 1032.003 L 920.000 1032.000 920.000 1228.000 M1617.824 1039.915 C 1648.577 1054.802,1648.002 1051.202,1647.985 1228.617 C 1647.971 1377.656,1647.556 1386.679,1640.162 1398.806 C 1626.510 1421.196,1615.831 1424.000,1544.199 1424.000 L 1480.000 1424.000 1480.000 1228.000 L 1480.000 1032.000 1540.737 1032.000 C 1593.082 1032.000,1603.733 1033.094,1617.824 1039.915 " fill="#1D1E23" stroke="none" fill-rule="evenodd"/></svg>