<svg viewBox="0 0 2400 2400" fill="none" xmlns="http://www.w3.org/2000/svg"><path d="M1086.000 308.105 C 986.551 323.393,909.382 347.239,822.000 389.683 C 707.468 445.315,613.063 517.290,533.023 610.000 C 392.257 773.050,300.000 1009.978,300.000 1208.434 C 300.000 1290.784,311.441 1307.901,368.700 1311.216 C 407.513 1313.463,439.810 1306.976,451.439 1294.597 C 462.236 1283.104,466.438 1258.891,471.879 1176.814 C 481.697 1028.698,513.842 921.871,581.051 814.000 C 674.030 664.768,838.477 541.243,1002.000 497.802 C 1115.206 467.728,1246.331 464.224,1358.000 488.289 C 1634.065 547.780,1854.248 771.478,1914.547 1053.722 L 1924.861 1102.000 1926.893 1460.220 L 1928.925 1818.440 1917.998 1840.004 C 1902.700 1870.193,1867.695 1905.529,1838.767 1919.985 L 1814.722 1932.000 1619.921 1932.000 L 1425.119 1932.000 1422.872 1910.226 C 1417.887 1861.930,1376.804 1804.611,1331.406 1782.613 C 1301.666 1768.203,1248.880 1762.417,1174.000 1765.358 C 1103.766 1768.116,1074.039 1774.885,1047.904 1794.071 C 1025.382 1810.603,999.658 1842.906,987.273 1870.205 C 979.829 1886.615,978.269 1897.217,978.147 1932.209 C 978.007 1972.406,978.646 1975.691,991.561 2001.135 C 1017.552 2052.341,1066.245 2087.807,1122.907 2096.802 C 1156.905 2102.199,1824.199 2097.863,1854.000 2092.051 C 1882.215 2086.549,1957.426 2048.176,1986.483 2024.458 C 1999.949 2013.467,2019.571 1993.117,2030.088 1979.237 C 2052.029 1950.279,2085.311 1883.407,2092.417 1854.000 C 2096.009 1839.140,2097.241 1743.537,2097.213 1482.000 C 2097.179 1170.279,2096.402 1125.426,2090.423 1090.025 C 2062.623 925.412,1987.058 755.226,1887.868 633.839 C 1848.293 585.407,1824.531 560.981,1778.242 521.150 C 1651.415 412.018,1495.910 337.426,1345.958 313.795 C 1298.826 306.367,1122.422 302.506,1086.000 308.105 M1415.287 867.754 C 1380.800 871.391,1364.722 879.376,1342.613 903.848 C 1312.220 937.489,1314.393 914.207,1312.712 1224.346 L 1311.203 1502.693 1321.738 1523.483 C 1335.573 1550.786,1357.520 1572.241,1385.730 1586.043 L 1408.612 1597.238 1518.052 1594.466 C 1594.175 1592.538,1634.472 1589.876,1650.420 1585.722 C 1709.167 1570.421,1766.819 1521.859,1795.811 1463.256 C 1819.581 1415.207,1821.019 1399.799,1819.019 1214.590 C 1817.119 1038.685,1816.978 1037.539,1791.006 986.000 C 1775.864 955.952,1725.767 905.030,1697.077 890.523 C 1660.658 872.108,1633.445 867.996,1536.000 866.187 C 1486.500 865.268,1432.179 865.973,1415.287 867.754 M748.000 873.518 C 678.255 892.804,624.323 943.250,593.533 1018.000 L 582.000 1046.000 580.854 1187.076 C 580.224 1264.668,581.356 1350.487,583.371 1377.786 C 586.793 1424.167,588.116 1429.655,603.555 1461.553 C 615.743 1486.732,627.189 1502.898,647.187 1523.175 C 677.964 1554.383,700.333 1568.744,739.236 1582.274 C 764.186 1590.950,775.086 1591.902,878.834 1594.466 L 991.370 1597.247 1014.261 1586.047 C 1042.233 1572.362,1064.407 1550.824,1077.863 1524.270 L 1088.000 1504.266 1087.962 1227.133 L 1087.925 950.000 1076.190 929.540 C 1061.777 904.412,1031.909 877.463,1012.491 872.070 C 990.956 866.088,770.503 867.295,748.000 873.518 M920.000 1228.000 L 920.000 1424.000 863.000 1423.978 C 799.115 1423.953,779.427 1420.110,765.346 1404.917 L 755.674 1394.480 756.837 1227.656 C 757.939 1069.557,758.402 1060.387,765.693 1052.334 C 778.704 1037.965,805.365 1032.581,865.000 1032.279 L 920.000 1032.000 920.000 1228.000 M1619.282 1041.629 C 1642.753 1053.766,1641.902 1047.131,1643.163 1227.850 L 1644.326 1394.480 1634.654 1404.917 C 1620.573 1420.110,1600.885 1423.953,1537.000 1423.978 L 1480.000 1424.000 1480.000 1227.373 L 1480.000 1030.747 1543.991 1033.266 C 1587.992 1034.998,1611.512 1037.611,1619.282 1041.629 " fill="#1D1E23" stroke="none" fill-rule="evenodd"/></svg>