<svg viewBox="0 0 2400 2400" fill="none" xmlns="http://www.w3.org/2000/svg"><path d="M918.000 207.848 L 738.000 210.000 716.000 221.907 C 703.900 228.456,679.487 248.256,661.750 265.907 C 629.450 298.049,616.442 318.958,607.670 352.834 C 601.285 377.494,598.501 599.222,603.393 693.467 C 607.146 765.754,608.435 774.807,617.660 793.663 C 630.867 820.657,696.741 892.248,864.516 1061.944 L 999.033 1198.000 856.773 1342.000 C 708.421 1492.166,643.824 1561.326,624.087 1591.124 C 603.560 1622.114,602.302 1636.755,602.189 1846.000 L 602.085 2038.000 611.660 2062.000 C 616.927 2075.200,623.998 2090.500,627.375 2096.000 C 652.353 2136.689,697.331 2172.379,745.997 2190.129 L 775.788 2200.994 1211.307 2199.335 L 1646.827 2197.676 1672.645 2184.965 C 1712.775 2165.210,1762.495 2118.488,1779.794 2084.278 C 1794.811 2054.581,1796.706 2030.362,1798.900 1840.000 L 1801.044 1654.000 1787.838 1620.700 C 1770.824 1577.797,1759.662 1565.175,1558.134 1360.965 L 1399.214 1199.931 1546.295 1050.965 C 1720.532 874.497,1763.950 826.736,1780.561 793.266 C 1792.177 769.860,1793.018 764.921,1796.227 701.266 C 1801.026 606.048,1800.740 450.200,1795.667 396.000 C 1793.299 370.700,1788.025 340.505,1783.948 328.901 C 1769.137 286.743,1733.116 250.052,1675.387 218.320 L 1649.336 204.000 1373.668 204.848 C 1222.051 205.315,1017.000 206.665,918.000 207.848 M1600.000 575.674 L 1600.000 751.348 1406.577 942.192 C 1300.195 1047.156,1210.195 1134.692,1206.577 1136.717 C 1202.573 1138.958,1197.427 1138.958,1193.423 1136.717 C 1189.805 1134.692,1099.805 1047.156,993.423 942.192 L 800.000 751.348 800.000 575.674 L 800.000 400.000 1200.000 400.000 L 1600.000 400.000 1600.000 575.674 " fill="#1D1E23" stroke="none" fill-rule="evenodd"/></svg>