<svg viewBox="0 0 2400 2400" fill="none" xmlns="http://www.w3.org/2000/svg"><path d="M832.000 207.827 L 738.000 210.000 712.000 224.000 C 675.924 243.426,636.309 283.828,620.160 317.665 C 601.683 356.381,598.805 397.640,601.308 588.000 C 603.353 743.465,605.579 771.259,618.099 797.645 C 627.886 818.268,705.525 901.713,858.480 1056.000 L 999.253 1198.000 852.627 1346.052 C 706.911 1493.184,648.311 1555.663,626.720 1586.913 C 602.923 1621.354,602.000 1630.878,602.000 1842.000 C 602.000 2032.724,602.062 2034.179,611.328 2061.005 C 631.940 2120.678,679.591 2166.325,746.704 2190.686 L 772.364 2200.000 1117.182 2199.611 C 1306.832 2199.396,1505.241 2198.046,1558.091 2196.611 L 1654.183 2194.000 1680.984 2180.802 C 1711.636 2165.708,1756.944 2124.003,1773.221 2095.901 C 1796.933 2054.963,1797.967 2044.103,1797.984 1836.000 L 1798.000 1646.000 1784.744 1613.090 C 1772.132 1581.778,1768.266 1576.826,1705.121 1511.090 C 1668.618 1473.091,1584.712 1387.667,1518.662 1321.261 L 1398.570 1200.521 1550.019 1047.261 C 1764.889 829.820,1781.851 809.828,1792.217 761.794 C 1798.250 733.837,1801.528 477.550,1796.742 408.000 C 1792.281 343.171,1785.248 318.723,1761.951 287.065 C 1744.825 263.792,1710.691 236.544,1675.415 217.986 L 1648.830 204.000 1287.415 204.827 C 1088.637 205.281,883.700 206.631,832.000 207.827 M1600.000 575.621 L 1600.000 751.243 1409.000 940.118 C 1303.950 1043.999,1213.950 1131.676,1209.000 1134.956 C 1201.024 1140.241,1198.976 1140.241,1191.000 1134.956 C 1186.050 1131.676,1096.050 1043.999,991.000 940.118 L 800.000 751.243 800.000 575.621 L 800.000 400.000 1200.000 400.000 L 1600.000 400.000 1600.000 575.621 " fill="#1D1E23" stroke="none" fill-rule="evenodd"/></svg>