<svg viewBox="0 0 2400 2400" fill="none" xmlns="http://www.w3.org/2000/svg"><path d="M552.000 307.929 C 458.230 310.191,439.344 311.674,424.000 317.977 C 378.728 336.573,344.072 371.774,317.736 425.911 L 300.000 462.369 300.371 1068.184 C 300.575 1401.383,302.083 1736.100,303.722 1812.000 C 306.531 1942.104,307.218 1951.289,315.724 1972.525 C 331.814 2012.693,380.778 2062.036,427.252 2084.915 L 452.968 2097.575 1179.484 2097.787 C 1971.208 2098.019,1944.699 2098.757,1988.759 2075.273 C 2020.541 2058.333,2065.270 2010.732,2081.008 1977.101 C 2092.759 1951.990,2093.272 1948.498,2096.368 1872.561 C 2100.550 1770.008,2100.533 629.582,2096.348 526.907 L 2093.124 447.813 2078.624 418.474 C 2060.069 380.930,2017.343 339.071,1977.610 319.508 L 1950.174 306.000 1306.087 305.637 C 951.839 305.437,612.500 306.469,552.000 307.929 M1900.000 1000.000 L 1900.000 1500.000 1700.776 1500.000 L 1501.551 1500.000 1494.477 1536.904 C 1471.201 1658.325,1399.194 1745.541,1292.169 1781.943 C 1228.808 1803.493,1169.599 1803.347,1104.000 1781.478 C 1051.699 1764.043,1011.991 1735.071,971.627 1684.896 C 934.003 1638.127,913.739 1591.973,903.813 1530.442 L 898.902 1500.000 699.451 1500.000 L 500.000 1500.000 500.000 1000.000 L 500.000 500.000 1200.000 500.000 L 1900.000 500.000 1900.000 1000.000 " fill="#1D1E23" stroke="none" fill-rule="evenodd"/></svg>