<svg viewBox="0 0 2400 2400" fill="none" xmlns="http://www.w3.org/2000/svg"><path d="M676.000 304.085 C 445.658 306.519,441.710 306.802,409.609 323.179 C 364.598 346.142,335.087 380.046,313.147 434.000 L 300.135 466.000 300.132 1166.000 C 300.131 1562.862,301.742 1885.479,303.852 1910.981 C 308.839 1971.265,321.196 1997.999,363.618 2040.283 C 395.252 2071.815,416.728 2084.774,450.206 2092.532 C 476.353 2098.591,1816.381 2102.372,1899.024 2096.620 C 1949.980 2093.073,1958.021 2091.449,1982.699 2079.717 C 2019.245 2062.343,2061.736 2020.066,2079.858 1983.045 C 2092.243 1957.747,2093.252 1952.464,2096.288 1897.045 C 2100.504 1820.079,2100.504 579.921,2096.288 502.955 C 2093.267 447.805,2092.202 442.180,2080.150 417.698 C 2062.371 381.584,2027.908 345.952,1989.497 323.970 L 1958.097 306.000 1748.048 303.439 C 1500.255 300.419,994.061 300.723,676.000 304.085 M1900.000 1000.000 L 1900.000 1500.000 1700.901 1500.000 L 1501.801 1500.000 1494.947 1540.166 C 1471.110 1679.855,1368.885 1779.950,1233.094 1796.560 C 1167.946 1804.529,1096.132 1788.040,1041.422 1752.551 C 1006.182 1729.691,956.438 1674.816,936.883 1637.229 C 919.347 1603.523,906.168 1560.655,901.767 1523.000 L 899.078 1500.000 699.539 1500.000 L 500.000 1500.000 500.000 1000.000 L 500.000 500.000 1200.000 500.000 L 1900.000 500.000 1900.000 1000.000 " fill="#1D1E23" stroke="none" fill-rule="evenodd"/></svg>