<svg viewBox="0 0 2400 2400" fill="none" xmlns="http://www.w3.org/2000/svg"><path d="M512.000 303.936 C 439.755 306.636,427.877 309.641,388.994 335.056 C 352.518 358.897,329.973 388.991,310.516 439.808 L 302.020 462.000 300.893 1167.044 C 300.273 1554.818,301.349 1890.975,303.282 1914.059 C 306.329 1950.427,308.771 1960.022,321.572 1985.922 C 340.708 2024.642,377.119 2062.142,412.479 2079.550 C 435.746 2091.004,443.828 2092.673,492.186 2096.007 C 557.291 2100.496,1861.708 2100.926,1916.875 2096.476 C 1950.208 2093.787,1960.105 2091.188,1986.307 2078.238 C 2026.921 2058.165,2058.227 2026.797,2078.419 1985.940 C 2092.544 1957.361,2093.919 1951.490,2096.548 1908.508 C 2100.260 1847.839,2100.260 552.161,2096.548 491.492 C 2093.919 448.510,2092.544 442.639,2078.419 414.060 C 2058.100 372.946,2026.960 341.854,1985.660 321.442 L 1954.455 306.020 1872.228 303.387 C 1769.673 300.104,601.929 300.575,512.000 303.936 M1900.000 1000.000 L 1900.000 1500.000 1700.765 1500.000 L 1501.530 1500.000 1496.570 1535.046 C 1479.139 1658.202,1395.899 1754.797,1278.000 1788.683 C 1232.474 1801.768,1162.599 1801.700,1120.000 1788.531 C 1066.198 1771.897,1029.699 1750.082,992.000 1712.026 C 941.493 1661.040,912.309 1603.272,903.452 1536.749 L 898.559 1500.000 699.280 1500.000 L 500.000 1500.000 500.000 1000.000 L 500.000 500.000 1200.000 500.000 L 1900.000 500.000 1900.000 1000.000 " fill="#1D1E23" stroke="none" fill-rule="evenodd"/></svg>