<svg viewBox="0 0 2400 2400" fill="none" xmlns="http://www.w3.org/2000/svg"><path d="M800.000 304.085 C 581.323 305.936,458.750 308.445,445.002 311.352 C 387.285 323.556,340.162 368.629,310.443 440.056 L 299.602 466.112 301.046 1196.056 C 302.385 1873.000,302.993 1927.884,309.419 1951.946 C 313.230 1966.216,321.070 1985.949,326.842 1995.797 C 343.891 2024.890,390.046 2067.486,419.778 2081.568 L 446.000 2093.987 658.000 2096.594 C 985.460 2100.620,1848.244 2100.266,1902.003 2096.083 C 1928.405 2094.029,1957.872 2089.573,1967.485 2086.182 C 2009.934 2071.205,2060.217 2023.137,2082.648 1976.092 C 2092.223 1956.009,2093.366 1948.013,2096.365 1880.092 C 2100.634 1783.426,2100.622 616.308,2096.351 519.573 C 2093.114 446.248,2092.867 444.744,2079.699 417.995 C 2063.042 384.160,2027.079 346.917,1989.707 324.800 C 1962.119 308.474,1961.785 308.395,1912.000 306.253 C 1824.312 302.481,1145.788 301.158,800.000 304.085 M1900.000 1000.000 L 1900.000 1500.000 1700.454 1500.000 L 1500.908 1500.000 1498.221 1519.000 C 1476.507 1672.547,1376.275 1777.061,1232.128 1796.460 C 1176.817 1803.904,1104.912 1789.262,1054.762 1760.342 C 1009.931 1734.490,955.372 1674.990,932.481 1626.988 C 918.692 1598.072,905.837 1554.097,901.854 1522.217 L 899.078 1500.000 699.539 1500.000 L 500.000 1500.000 500.000 1000.000 L 500.000 500.000 1200.000 500.000 L 1900.000 500.000 1900.000 1000.000 " fill="#1D1E23" stroke="none" fill-rule="evenodd"/></svg>