<svg viewBox="0 0 2400 2400" fill="none" xmlns="http://www.w3.org/2000/svg"><path d="M1126.466 204.099 C 1008.050 217.681,901.907 256.065,807.698 319.373 C 635.585 435.033,526.674 617.422,503.489 828.818 C 497.969 879.146,501.087 968.332,510.172 1020.000 C 526.400 1112.294,572.686 1224.723,624.563 1297.863 C 656.898 1343.450,724.325 1413.622,765.863 1444.914 L 798.000 1469.125 800.000 1597.684 C 801.994 1725.874,802.029 1726.300,812.218 1746.085 C 823.722 1768.422,848.837 1789.634,871.101 1795.818 C 891.577 1801.504,1508.423 1801.504,1528.899 1795.818 C 1551.163 1789.634,1576.278 1768.422,1587.782 1746.085 C 1597.970 1726.300,1598.006 1725.871,1600.000 1597.729 L 1602.000 1469.215 1632.000 1445.064 C 1722.841 1371.932,1805.121 1262.648,1846.621 1160.005 C 1880.460 1076.311,1895.174 1009.716,1898.768 924.000 C 1902.389 837.635,1892.071 765.200,1863.675 677.637 C 1785.436 436.371,1575.597 254.969,1324.711 211.711 C 1271.092 202.466,1173.404 198.715,1126.466 204.099 M900.725 2063.133 C 901.907 2121.656,902.746 2127.715,912.218 2146.097 C 923.725 2168.426,948.844 2189.636,971.101 2195.818 C 991.374 2201.448,1408.626 2201.448,1428.899 2195.818 C 1451.156 2189.636,1476.275 2168.426,1487.782 2146.097 C 1497.254 2127.715,1498.093 2121.656,1499.275 2063.133 L 1500.550 2000.000 1200.000 2000.000 L 899.450 2000.000 900.725 2063.133 " fill="#1D1E23" stroke="none" fill-rule="evenodd"/></svg>