<svg viewBox="0 0 2400 2400" fill="none" xmlns="http://www.w3.org/2000/svg"><path d="M1121.968 208.109 C 1017.019 216.757,905.418 256.869,812.062 319.496 C 630.597 441.231,522.920 625.223,503.183 847.286 C 492.637 965.954,519.510 1099.775,576.816 1213.956 C 616.048 1292.124,666.694 1355.475,748.000 1428.082 C 771.100 1448.711,791.213 1468.617,792.695 1472.318 C 794.177 1476.019,797.439 1534.488,799.944 1602.249 C 803.155 1689.084,806.133 1729.363,810.036 1738.702 C 813.081 1745.990,824.438 1760.819,835.274 1771.655 C 851.443 1787.824,858.473 1791.917,874.488 1794.486 C 899.947 1798.569,1500.053 1798.569,1525.512 1794.486 C 1541.527 1791.917,1548.557 1787.824,1564.726 1771.655 C 1575.562 1760.819,1586.942 1745.935,1590.015 1738.581 C 1594.017 1729.002,1596.865 1689.195,1600.053 1598.282 L 1604.503 1471.356 1658.364 1419.062 C 1783.746 1297.331,1846.493 1192.801,1882.304 1046.000 C 1903.684 958.359,1902.858 826.552,1880.385 739.605 C 1833.861 559.606,1737.776 420.690,1592.521 323.422 C 1453.484 230.317,1302.243 193.254,1121.968 208.109 M900.970 2061.000 C 902.092 2094.550,905.087 2127.209,907.625 2133.576 C 915.216 2152.616,935.566 2175.406,955.378 2187.053 L 974.000 2198.000 1200.000 2198.000 L 1426.000 2198.000 1444.751 2186.978 C 1455.063 2180.915,1470.121 2167.877,1478.211 2158.004 C 1490.863 2142.564,1493.391 2135.992,1496.285 2111.026 C 1498.135 2095.062,1499.728 2063.550,1499.824 2041.000 L 1500.000 2000.000 1199.465 2000.000 L 898.929 2000.000 900.970 2061.000 " fill="#1D1E23" stroke="none" fill-rule="evenodd"/></svg>