<svg viewBox="0 0 2400 2400" fill="none" xmlns="http://www.w3.org/2000/svg"><path d="M1114.000 208.144 C 1050.667 213.428,971.335 235.494,905.033 266.266 C 715.280 354.335,575.682 521.558,523.738 723.017 C 484.286 876.025,495.726 1025.581,558.308 1174.954 C 598.751 1271.484,656.813 1349.738,743.705 1424.825 C 766.967 1444.927,788.390 1463.519,791.312 1466.142 C 795.369 1469.783,797.457 1501.111,800.150 1598.769 C 802.090 1669.091,805.500 1731.424,807.728 1737.286 C 809.957 1743.147,821.280 1757.697,832.890 1769.618 C 852.251 1789.496,855.989 1791.570,878.000 1794.646 C 909.297 1799.020,1490.703 1799.020,1522.000 1794.646 C 1544.011 1791.570,1547.749 1789.496,1567.110 1769.618 C 1578.720 1757.697,1590.043 1743.147,1592.272 1737.286 C 1594.500 1731.424,1597.912 1669.035,1599.853 1598.644 L 1603.383 1470.660 1634.692 1442.668 C 1779.498 1313.196,1860.413 1175.233,1890.797 1006.000 C 1901.089 948.672,1899.815 825.905,1888.369 772.000 C 1835.129 521.278,1679.685 336.808,1445.410 246.331 C 1352.735 210.540,1240.406 197.597,1114.000 208.144 M900.804 2061.000 C 902.012 2105.436,904.218 2126.008,908.926 2136.758 C 919.038 2159.846,946.602 2187.235,965.489 2192.960 C 989.314 2200.183,1410.823 2200.139,1434.694 2192.911 C 1452.398 2187.551,1485.356 2155.308,1492.807 2136.060 C 1494.949 2130.527,1497.712 2097.650,1498.948 2063.000 L 1501.195 2000.000 1200.170 2000.000 L 899.145 2000.000 900.804 2061.000 " fill="#1D1E23" stroke="none" fill-rule="evenodd"/></svg>