<svg viewBox="0 0 2400 2400" fill="none" xmlns="http://www.w3.org/2000/svg"><path d="M1654.992 193.707 C 1632.867 201.603,1613.614 217.829,1601.089 239.136 C 1591.602 255.275,1590.011 262.334,1590.079 288.000 C 1590.136 309.333,1592.294 322.045,1597.549 332.000 C 1601.613 339.700,1639.316 380.650,1681.334 423.000 L 1757.730 500.000 1681.334 577.000 C 1639.316 619.350,1601.876 660.053,1598.134 667.450 C 1575.184 712.813,1593.571 772.128,1638.831 798.733 C 1655.303 808.415,1662.221 809.989,1688.000 809.921 C 1709.333 809.864,1722.045 807.706,1732.000 802.451 C 1739.700 798.387,1780.650 760.684,1823.000 718.666 L 1900.000 642.270 1977.000 718.666 C 2019.350 760.684,2060.300 798.387,2068.000 802.451 C 2077.955 807.706,2090.667 809.864,2112.000 809.921 C 2137.779 809.989,2144.697 808.415,2161.169 798.733 C 2183.400 785.665,2202.136 761.752,2208.452 738.384 C 2213.938 718.090,2210.892 685.291,2201.866 667.450 C 2198.124 660.053,2160.684 619.350,2118.666 577.000 L 2042.270 500.000 2118.666 423.000 C 2160.684 380.650,2198.124 339.947,2201.866 332.550 C 2205.609 325.152,2209.618 309.852,2210.776 298.550 C 2218.253 225.556,2149.766 171.025,2079.547 194.063 C 2060.293 200.380,2049.592 209.457,1979.000 279.348 L 1900.000 357.564 1821.000 279.388 C 1753.596 212.687,1739.107 200.243,1722.287 194.606 C 1698.743 186.716,1675.454 186.405,1654.992 193.707 M1118.868 304.467 C 1034.772 312.570,933.270 340.604,854.630 377.445 C 574.406 508.726,399.511 793.444,400.078 1117.424 C 400.572 1399.574,588.697 1721.420,968.320 2089.576 C 1041.498 2160.544,1194.292 2298.000,1200.000 2298.000 C 1201.835 2298.000,1239.936 2265.619,1284.668 2226.042 C 1379.839 2141.841,1555.162 1968.137,1619.242 1894.559 C 1840.652 1640.331,1955.102 1433.519,1992.541 1220.000 C 1998.456 1186.265,1999.764 1068.351,1994.682 1027.000 L 1991.363 1000.000 1695.682 1000.000 L 1400.000 1000.000 1400.000 662.670 L 1400.000 325.339 1355.000 316.640 C 1271.310 300.462,1199.074 296.738,1118.868 304.467 M1266.174 912.372 C 1324.845 934.235,1365.108 974.388,1388.135 1034.000 C 1395.716 1053.628,1397.405 1065.651,1397.405 1100.000 C 1397.405 1134.349,1395.716 1146.372,1388.135 1166.000 C 1343.839 1280.672,1222.347 1330.908,1113.438 1279.584 C 1068.489 1258.402,1031.642 1217.198,1011.865 1166.000 C 998.535 1131.489,998.562 1068.375,1011.923 1034.000 C 1029.004 990.053,1053.929 958.066,1089.285 934.722 C 1108.937 921.747,1146.198 906.455,1168.000 902.417 C 1190.086 898.327,1242.837 903.676,1266.174 912.372 " fill="#1D1E23" stroke="none" fill-rule="evenodd"/></svg>