<svg viewBox="0 0 2400 2400" fill="none" xmlns="http://www.w3.org/2000/svg"><path d="M1654.824 194.662 C 1633.833 201.904,1608.396 224.109,1597.397 244.791 C 1588.116 262.244,1587.940 312.798,1597.100 330.363 C 1600.646 337.163,1638.036 378.113,1680.189 421.363 L 1756.832 500.000 1680.189 578.637 C 1638.036 621.887,1600.546 662.837,1596.879 669.637 C 1592.509 677.739,1590.175 691.651,1590.106 710.000 C 1590.015 734.063,1591.746 741.078,1602.418 759.894 C 1617.242 786.028,1643.815 805.864,1669.077 809.653 C 1689.478 812.712,1717.435 809.186,1732.363 801.670 C 1738.063 798.801,1778.113 761.964,1821.363 719.811 L 1900.000 643.168 1978.637 719.811 C 2021.887 761.964,2062.837 799.354,2069.637 802.900 C 2087.202 812.060,2137.756 811.884,2155.209 802.603 C 2186.799 785.803,2212.000 746.492,2212.000 714.013 C 2212.000 707.105,2209.298 692.353,2205.995 681.233 C 2200.680 663.335,2190.991 651.770,2121.605 580.507 L 2043.219 500.000 2121.605 419.493 C 2190.991 348.230,2200.680 336.665,2205.995 318.767 C 2213.421 293.763,2213.520 282.323,2206.514 259.043 C 2198.860 233.611,2183.604 215.236,2159.017 201.835 C 2131.417 186.790,2094.969 185.917,2068.409 199.662 C 2058.311 204.888,2018.712 240.372,1975.442 282.967 L 1900.066 357.169 1824.271 282.787 C 1782.583 241.877,1741.302 204.745,1732.534 200.272 C 1710.046 188.800,1678.431 186.517,1654.824 194.662 M1125.418 304.365 C 987.557 316.668,844.750 369.680,730.000 451.150 C 573.130 562.524,457.936 743.405,418.261 940.651 C 379.167 1135.011,403.456 1298.638,500.400 1494.000 C 561.686 1617.503,654.144 1749.054,784.346 1898.000 C 846.325 1968.902,1002.146 2124.192,1092.000 2204.606 C 1201.540 2302.638,1195.202 2297.600,1203.902 2293.545 C 1240.634 2276.423,1576.851 1947.195,1658.906 1848.000 C 1851.653 1614.989,1948.659 1436.372,1987.988 1242.065 C 1995.193 1206.465,1996.955 1183.697,1997.274 1122.065 C 1997.491 1080.229,1996.263 1035.650,1994.546 1023.000 L 1991.424 1000.000 1695.712 1000.000 L 1400.000 1000.000 1400.000 662.702 L 1400.000 325.403 1353.000 316.778 C 1266.886 300.975,1202.658 297.472,1125.418 304.365 M1224.105 904.228 C 1292.729 912.789,1347.761 952.026,1378.568 1014.361 L 1394.000 1045.585 1394.000 1100.000 L 1394.000 1154.415 1378.496 1185.786 C 1351.229 1240.955,1305.160 1278.423,1245.476 1293.968 C 1158.766 1316.554,1063.182 1270.114,1021.092 1184.952 L 1006.000 1154.415 1006.000 1100.000 L 1006.000 1045.585 1021.432 1014.361 C 1052.175 952.155,1119.390 905.084,1184.105 900.438 C 1187.463 900.197,1205.463 901.903,1224.105 904.228 " fill="#1D1E23" stroke="none" fill-rule="evenodd"/></svg>