<svg viewBox="0 0 2400 2400" fill="none" xmlns="http://www.w3.org/2000/svg"><path d="M1648.000 198.156 C 1631.341 205.595,1605.703 229.496,1597.395 245.334 C 1590.451 258.570,1589.225 308.557,1595.448 324.699 C 1600.156 336.910,1630.950 371.077,1705.412 446.708 L 1757.306 499.416 1684.143 574.708 C 1592.754 668.757,1590.784 671.587,1590.453 709.285 C 1590.237 733.827,1591.850 741.041,1601.071 756.776 C 1615.434 781.285,1640.054 801.855,1662.567 808.159 C 1686.222 814.782,1723.560 808.375,1741.402 794.632 C 1748.331 789.295,1786.983 752.927,1827.296 713.815 L 1900.591 642.701 1953.296 694.591 C 2028.923 769.050,2063.090 799.844,2075.301 804.552 C 2091.458 810.780,2141.411 809.544,2154.874 802.582 C 2172.532 793.451,2197.934 763.677,2205.931 742.738 C 2215.021 718.937,2212.148 689.781,2198.402 666.326 C 2192.970 657.056,2155.834 615.847,2115.878 574.751 L 2043.230 500.031 2116.018 425.016 C 2201.909 336.496,2210.060 324.593,2209.852 288.000 C 2209.672 256.432,2199.809 235.308,2175.556 214.548 C 2153.718 195.855,2137.223 190.802,2104.146 192.671 C 2068.642 194.677,2061.059 200.087,1971.348 287.411 L 1900.039 356.822 1828.236 287.105 C 1735.776 197.331,1731.402 194.301,1692.342 192.953 C 1671.504 192.233,1657.615 193.863,1648.000 198.156 M1156.000 302.680 C 961.647 313.282,769.784 397.847,635.951 531.896 C 452.476 715.665,364.224 1002.637,414.498 1252.000 C 458.678 1471.141,613.837 1724.258,858.774 1976.767 C 973.121 2094.649,1157.336 2268.889,1191.010 2291.014 C 1199.314 2296.469,1201.197 2296.056,1215.010 2285.756 C 1288.693 2230.810,1592.553 1928.660,1673.344 1830.000 C 1839.341 1627.290,1930.488 1464.645,1977.085 1288.000 L 1993.440 1226.000 1995.095 1130.474 C 1996.006 1077.935,1995.571 1027.085,1994.130 1017.474 L 1991.510 1000.000 1695.755 1000.000 L 1400.000 1000.000 1400.000 662.604 L 1400.000 325.207 1350.981 316.641 C 1301.077 307.921,1217.338 299.579,1192.000 300.803 C 1184.300 301.175,1168.100 302.020,1156.000 302.680 M1251.067 910.460 C 1302.208 923.747,1344.913 957.473,1374.471 1007.916 L 1392.000 1037.833 1392.000 1100.000 L 1392.000 1162.167 1374.410 1192.084 C 1340.057 1250.511,1289.951 1286.587,1229.000 1296.779 C 1150.840 1309.849,1070.206 1268.433,1025.663 1192.341 L 1008.000 1162.167 1008.000 1100.000 L 1008.000 1037.833 1025.663 1007.659 C 1054.748 957.972,1102.086 920.072,1152.419 906.175 C 1176.460 899.536,1215.559 901.235,1251.067 910.460 " fill="#1D1E23" stroke="none" fill-rule="evenodd"/></svg>