<svg viewBox="0 0 2400 2400" fill="none" xmlns="http://www.w3.org/2000/svg"><path d="M1657.459 195.810 C 1635.229 201.113,1604.211 228.201,1596.254 249.260 C 1593.915 255.454,1592.000 273.595,1592.000 289.575 C 1592.000 327.773,1596.552 334.421,1686.100 427.014 L 1756.713 500.027 1683.954 575.014 C 1643.936 616.256,1606.717 657.629,1601.244 666.954 C 1593.239 680.594,1591.294 689.311,1591.294 711.557 C 1591.294 740.914,1594.175 749.092,1612.957 773.053 C 1631.814 797.109,1657.447 810.004,1686.000 809.797 C 1724.372 809.519,1736.480 801.412,1822.095 718.676 L 1900.039 643.351 1973.020 713.932 C 2065.765 803.628,2072.169 808.000,2110.814 808.000 C 2144.131 808.000,2161.245 802.144,2176.593 785.493 C 2208.582 750.785,2216.982 723.185,2206.515 687.180 C 2199.592 663.366,2179.835 639.852,2090.645 549.273 L 2042.664 500.546 2107.918 433.273 C 2184.477 354.346,2202.121 332.182,2207.517 308.168 C 2223.120 238.723,2155.688 176.696,2085.218 195.672 C 2063.021 201.649,2040.736 219.833,1964.230 294.393 L 1900.142 356.851 1829.667 288.690 C 1790.906 251.201,1752.292 215.746,1743.859 209.902 C 1720.307 193.581,1688.531 188.398,1657.459 195.810 M1139.060 304.336 C 1030.138 313.335,933.380 340.696,834.236 390.533 C 756.125 429.798,701.297 469.186,638.582 531.091 C 518.881 649.247,439.699 807.853,409.477 990.000 C 400.641 1043.254,399.527 1165.206,407.431 1214.000 C 441.368 1423.520,566.078 1650.082,781.734 1894.000 C 856.218 1978.245,1088.334 2205.640,1167.203 2271.630 C 1201.502 2300.327,1197.092 2301.048,1247.911 2258.435 C 1290.364 2222.837,1526.201 1990.265,1601.237 1910.000 C 1752.586 1748.104,1875.170 1565.044,1937.527 1407.801 C 1947.603 1382.392,1964.309 1332.892,1974.650 1297.801 L 1993.452 1234.000 1995.043 1134.084 C 1995.918 1079.130,1995.481 1026.480,1994.072 1017.084 L 1991.510 1000.000 1695.755 1000.000 L 1400.000 1000.000 1400.000 662.499 L 1400.000 324.998 1345.000 316.488 C 1287.037 307.520,1210.206 299.626,1190.000 300.563 C 1183.400 300.869,1160.477 302.567,1139.060 304.336 M1240.803 908.407 C 1294.273 919.523,1343.830 957.043,1375.297 1010.233 L 1392.000 1038.465 1392.000 1100.000 L 1392.000 1161.535 1375.321 1189.767 C 1354.052 1225.770,1316.481 1262.765,1286.303 1277.420 C 1249.607 1295.241,1206.548 1302.746,1173.490 1297.084 C 1114.252 1286.937,1058.323 1246.597,1024.703 1189.767 L 1008.000 1161.535 1008.010 1099.767 L 1008.021 1038.000 1022.427 1014.000 C 1051.846 964.992,1087.387 932.761,1134.000 912.818 C 1156.941 903.003,1205.219 901.009,1240.803 908.407 " fill="#1D1E23" stroke="none" fill-rule="evenodd"/></svg>