<svg viewBox="0 0 2400 2400" fill="none" xmlns="http://www.w3.org/2000/svg"><path d="M360.226 204.334 C 306.919 214.871,248.788 258.896,224.406 307.196 C 198.480 358.554,200.124 292.064,200.059 1291.985 L 200.000 2201.970 401.015 2000.985 L 602.029 1800.000 1310.818 1800.000 C 1812.822 1800.000,2025.790 1798.710,2040.803 1795.580 C 2115.765 1779.947,2179.947 1715.765,2195.580 1640.803 C 2201.819 1610.886,2201.819 389.114,2195.580 359.197 C 2181.788 293.062,2134.082 238.710,2066.000 211.568 L 2042.000 202.000 1210.000 201.410 C 745.558 201.081,370.148 202.373,360.226 204.334 M1746.071 612.218 C 1816.173 648.296,1816.173 751.704,1746.071 787.782 L 1726.216 798.000 1206.274 799.044 C 621.371 800.219,662.045 802.256,629.986 770.196 C 590.731 730.941,590.723 669.067,629.967 629.823 C 661.366 598.423,619.552 600.501,1204.108 601.293 L 1726.216 602.000 1746.071 612.218 M1746.071 912.218 C 1816.173 948.296,1816.173 1051.704,1746.071 1087.782 L 1726.216 1098.000 1206.274 1099.044 C 621.371 1100.219,662.045 1102.256,629.986 1070.196 C 590.731 1030.941,590.723 969.067,629.967 929.823 C 661.366 898.423,619.552 900.501,1204.108 901.293 L 1726.216 902.000 1746.071 912.218 M1346.073 1212.218 C 1416.173 1248.298,1416.173 1351.702,1346.073 1387.782 L 1326.219 1398.000 1006.354 1399.071 C 645.236 1400.279,661.301 1401.512,629.986 1370.196 C 590.731 1330.941,590.723 1269.067,629.967 1229.823 C 660.696 1199.093,642.633 1200.471,1004.109 1201.280 L 1326.219 1202.000 1346.073 1212.218 " fill="#1D1E23" stroke="none" fill-rule="evenodd"/></svg>