<svg viewBox="0 0 2400 2400" fill="none" xmlns="http://www.w3.org/2000/svg"><path d="M584.000 203.753 L 346.000 206.000 318.713 219.341 C 279.579 238.475,239.755 277.287,221.633 313.954 C 207.792 341.959,207.234 344.855,203.824 406.432 C 201.888 441.394,200.236 859.693,200.152 1335.985 L 200.000 2201.970 401.015 2000.985 L 602.029 1800.000 1290.015 1799.806 C 1668.407 1799.699,1995.494 1798.201,2016.875 1796.476 C 2050.208 1793.787,2060.105 1791.188,2086.307 1778.238 C 2126.813 1758.219,2158.235 1726.780,2178.285 1686.212 C 2192.396 1657.660,2193.670 1652.081,2196.876 1604.780 C 2198.770 1576.851,2199.797 1284.900,2199.159 956.000 L 2198.000 358.000 2188.375 334.000 C 2167.139 281.051,2134.179 245.678,2082.797 220.694 L 2050.000 204.747 1436.000 203.126 C 1098.300 202.235,714.900 202.516,584.000 203.753 M1743.597 611.794 C 1777.278 628.977,1796.800 661.342,1796.800 700.000 C 1796.800 740.236,1775.084 774.048,1737.583 792.202 C 1720.837 800.309,1717.347 800.353,1199.364 799.001 C 781.583 797.910,674.830 796.593,662.047 792.369 C 621.707 779.040,592.010 720.529,603.648 677.308 C 609.631 655.088,631.671 623.819,648.128 614.202 C 669.148 601.918,742.892 600.513,1259.544 602.545 C 1706.492 604.304,1729.787 604.749,1743.597 611.794 M1743.597 911.794 C 1777.278 928.977,1796.800 961.342,1796.800 1000.000 C 1796.800 1040.236,1775.084 1074.048,1737.583 1092.202 C 1720.837 1100.309,1717.347 1100.353,1199.364 1099.001 C 781.583 1097.910,674.830 1096.593,662.047 1092.369 C 621.707 1079.040,592.010 1020.529,603.648 977.308 C 609.631 955.088,631.671 923.819,648.128 914.202 C 669.148 901.918,742.892 900.513,1259.544 902.545 C 1706.492 904.304,1729.787 904.749,1743.597 911.794 M1343.559 1211.775 C 1377.279 1228.978,1396.800 1261.325,1396.800 1300.000 C 1396.800 1340.267,1375.086 1374.047,1337.507 1392.238 C 1320.804 1400.324,1316.244 1400.418,997.289 1399.217 L 674.000 1398.000 655.321 1388.799 C 616.433 1369.642,592.569 1318.453,603.536 1277.722 C 609.634 1255.076,629.897 1225.952,646.840 1215.481 C 668.605 1202.030,718.554 1200.385,1041.507 1202.485 C 1311.522 1204.241,1329.898 1204.806,1343.559 1211.775 " fill="#1D1E23" stroke="none" fill-rule="evenodd"/></svg>