<svg viewBox="0 0 2400 2400" fill="none" xmlns="http://www.w3.org/2000/svg"><path d="M368.000 207.662 C 309.198 212.244,245.758 260.875,216.866 323.515 C 207.671 343.449,206.701 351.532,203.665 433.515 C 201.863 482.182,200.301 899.993,200.194 1361.985 L 200.000 2201.970 401.015 2000.985 L 602.029 1800.000 1274.015 1799.804 C 1643.607 1799.696,1970.486 1798.114,2000.413 1796.288 C 2050.004 1793.263,2057.272 1791.806,2082.413 1779.853 C 2119.869 1762.046,2161.972 1720.027,2179.678 1682.780 C 2191.167 1658.613,2193.046 1649.643,2196.431 1602.780 C 2198.675 1571.721,2199.783 1303.896,2199.122 952.000 L 2198.000 354.000 2183.065 322.721 C 2162.058 278.727,2129.502 245.717,2083.878 222.154 L 2048.729 204.000 1223.365 204.662 C 769.414 205.027,384.500 206.377,368.000 207.662 M1695.530 606.660 C 1738.281 609.123,1742.065 610.039,1757.530 621.669 C 1814.572 664.567,1806.224 754.711,1742.000 789.366 L 1726.000 798.000 1204.000 797.700 C 807.105 797.471,677.919 796.234,664.971 792.538 C 630.829 782.790,602.926 741.467,602.487 700.000 C 602.206 673.476,614.054 647.430,636.267 625.739 C 648.817 613.484,655.266 610.511,674.675 608.030 C 703.731 604.316,1633.201 603.068,1695.530 606.660 M1695.530 906.660 C 1738.281 909.123,1742.065 910.039,1757.530 921.669 C 1814.572 964.567,1806.224 1054.711,1742.000 1089.366 L 1726.000 1098.000 1204.000 1097.700 C 807.105 1097.471,677.919 1096.234,664.971 1092.538 C 630.829 1082.790,602.926 1041.467,602.487 1000.000 C 602.206 973.476,614.054 947.430,636.267 925.739 C 648.817 913.484,655.266 910.511,674.675 908.030 C 703.731 904.316,1633.201 903.068,1695.530 906.660 M1316.868 1207.399 C 1350.068 1211.092,1368.962 1224.547,1385.000 1255.918 C 1409.878 1304.581,1391.094 1362.875,1342.000 1389.366 L 1326.000 1398.000 997.345 1398.000 L 668.690 1398.000 651.471 1385.898 C 593.901 1345.438,585.390 1281.309,631.045 1231.979 C 647.195 1214.529,652.959 1211.013,670.000 1208.220 C 695.159 1204.095,1280.491 1203.353,1316.868 1207.399 " fill="#1D1E23" stroke="none" fill-rule="evenodd"/></svg>