<svg viewBox="0 0 2400 2400" fill="none" xmlns="http://www.w3.org/2000/svg"><path d="M708.000 207.857 L 342.000 210.000 318.000 221.879 C 282.060 239.667,228.024 294.716,215.794 326.000 L 206.412 350.000 203.642 616.000 C 202.118 762.300,200.675 1178.993,200.436 1541.985 L 200.000 2201.970 401.015 2000.985 L 602.029 1800.000 1200.015 1799.814 C 1781.252 1799.633,2029.668 1796.358,2061.526 1788.456 C 2099.549 1779.025,2156.023 1727.256,2178.998 1680.770 L 2194.000 1650.417 2196.617 1538.208 C 2198.057 1476.494,2199.407 1185.190,2199.617 890.867 L 2200.000 355.734 2189.522 334.867 C 2162.522 281.096,2130.533 248.370,2075.668 218.389 L 2049.336 204.000 1561.668 204.857 C 1293.451 205.329,909.300 206.679,708.000 207.857 M1750.141 619.628 C 1778.100 635.665,1792.500 662.148,1792.500 697.531 C 1792.500 711.572,1789.913 729.253,1786.750 736.821 C 1779.267 754.731,1758.231 778.491,1739.249 790.474 L 1724.159 800.000 1405.079 799.658 C 997.071 799.221,678.872 794.394,659.329 788.346 C 642.871 783.253,622.122 761.812,612.826 740.291 C 609.363 732.275,606.509 713.668,606.326 697.914 C 606.034 672.742,607.353 667.719,619.046 649.493 C 639.302 617.917,644.426 614.706,679.215 611.789 C 696.147 610.369,939.500 608.953,1220.000 608.641 L 1730.000 608.075 1750.141 619.628 M1750.141 919.628 C 1778.100 935.665,1792.500 962.148,1792.500 997.531 C 1792.500 1011.572,1789.913 1029.253,1786.750 1036.821 C 1779.267 1054.731,1758.231 1078.491,1739.249 1090.474 L 1724.159 1100.000 1405.079 1099.658 C 997.071 1099.221,678.872 1094.394,659.329 1088.346 C 642.871 1083.253,622.122 1061.812,612.826 1040.291 C 609.363 1032.275,606.509 1013.668,606.326 997.914 C 606.034 972.742,607.353 967.719,619.046 949.493 C 639.302 917.917,644.426 914.706,679.215 911.789 C 696.147 910.369,939.500 908.953,1220.000 908.641 L 1730.000 908.075 1750.141 919.628 M1343.656 1215.825 C 1361.142 1224.745,1377.805 1243.004,1385.696 1261.890 C 1405.662 1309.674,1390.806 1355.725,1345.782 1385.619 L 1324.123 1400.000 997.062 1399.961 L 670.000 1399.922 652.397 1385.930 C 605.047 1348.290,592.541 1304.210,615.932 1257.400 C 632.323 1224.598,643.802 1214.745,669.227 1211.653 C 680.652 1210.263,833.622 1208.873,1009.159 1208.563 C 1318.634 1208.017,1328.784 1208.237,1343.656 1215.825 " fill="#1D1E23" stroke="none" fill-rule="evenodd"/></svg>