<svg viewBox="0 0 2400 2400" fill="none" xmlns="http://www.w3.org/2000/svg"><path d="M536.000 207.890 L 342.000 210.000 314.345 223.517 C 281.780 239.434,239.614 279.536,223.179 310.222 C 217.227 321.333,210.255 341.129,207.686 354.212 C 204.237 371.770,202.569 616.852,201.318 1290.000 L 199.622 2202.000 400.811 2001.176 L 602.000 1800.352 1316.000 1798.949 C 2121.220 1797.367,2053.750 1800.224,2104.898 1765.532 C 2147.170 1736.861,2178.346 1696.316,2190.660 1654.000 C 2197.148 1631.703,2197.743 1584.861,2199.034 993.887 L 2200.425 357.775 2184.329 325.887 C 2158.174 274.070,2126.738 243.688,2069.133 214.554 L 2048.266 204.000 1389.133 204.890 C 1026.610 205.380,642.700 206.730,536.000 207.890 M1745.359 615.531 C 1812.156 648.416,1810.664 748.227,1742.775 788.383 L 1722.000 800.672 1198.746 798.284 C 626.953 795.674,660.521 797.190,634.494 772.788 C 607.521 747.498,596.339 698.079,610.124 665.087 C 618.040 646.140,633.752 625.659,647.078 616.918 C 661.848 607.228,777.534 605.239,1302.000 605.660 L 1726.000 606.000 1745.359 615.531 M1745.359 915.531 C 1812.156 948.416,1810.664 1048.227,1742.775 1088.383 L 1722.000 1100.672 1198.746 1098.284 C 626.953 1095.674,660.521 1097.190,634.494 1072.788 C 607.521 1047.498,596.339 998.079,610.124 965.087 C 618.040 946.140,633.752 925.659,647.078 916.918 C 661.848 907.228,777.534 905.239,1302.000 905.660 L 1726.000 906.000 1745.359 915.531 M1346.271 1216.224 C 1361.360 1223.701,1369.019 1231.069,1378.838 1247.551 C 1409.844 1299.603,1395.780 1356.175,1344.177 1386.975 L 1322.354 1400.000 996.540 1400.000 L 670.727 1400.000 649.376 1383.880 C 597.217 1344.499,588.838 1285.447,628.333 1235.579 C 635.179 1226.936,644.654 1217.645,649.390 1214.932 C 662.372 1207.496,773.405 1205.062,1066.271 1205.796 L 1326.542 1206.449 1346.271 1216.224 " fill="#1D1E23" stroke="none" fill-rule="evenodd"/></svg>