<svg viewBox="0 0 2400 2400" fill="none" xmlns="http://www.w3.org/2000/svg"><path d="M200.000 1200.985 L 200.000 2201.970 401.015 2000.985 L 602.029 1800.000 1401.015 1800.000 L 2200.000 1800.000 2200.000 1000.000 L 2200.000 200.000 1200.000 200.000 L 200.000 200.000 200.000 1200.985 M1800.000 700.000 L 1800.000 800.000 1200.000 800.000 L 600.000 800.000 600.000 700.000 L 600.000 600.000 1200.000 600.000 L 1800.000 600.000 1800.000 700.000 M1800.000 1000.000 L 1800.000 1100.000 1200.000 1100.000 L 600.000 1100.000 600.000 1000.000 L 600.000 900.000 1200.000 900.000 L 1800.000 900.000 1800.000 1000.000 M1400.000 1300.000 L 1400.000 1400.000 1000.000 1400.000 L 600.000 1400.000 600.000 1300.000 L 600.000 1200.000 1000.000 1200.000 L 1400.000 1200.000 1400.000 1300.000 " fill="#1D1E23" stroke="none" fill-rule="evenodd"/></svg>