<svg viewBox="0 0 2400 2400" fill="none" xmlns="http://www.w3.org/2000/svg"><path d="M1088.000 211.833 C 857.447 229.498,610.951 368.853,448.885 573.154 C 329.021 724.256,254.278 916.365,236.127 1120.000 C 205.692 1461.458,363.389 1809.560,640.876 2013.445 C 769.965 2108.294,943.134 2176.853,1091.424 2191.819 C 1144.713 2197.198,1255.607 2197.185,1308.135 2191.794 C 1586.554 2163.223,1860.854 1985.697,2017.257 1732.851 C 2089.481 1616.094,2140.416 1470.718,2160.506 1324.000 C 2167.279 1274.541,2167.387 1137.523,2160.696 1084.000 C 2131.944 853.996,2037.115 654.331,1880.695 494.449 C 1803.832 415.885,1720.349 354.921,1621.072 304.855 C 1531.551 259.710,1458.327 234.637,1372.000 219.570 C 1319.780 210.456,1162.057 206.159,1088.000 211.833 M1325.378 408.301 C 1370.322 414.984,1430.069 431.626,1478.000 450.812 C 1701.947 540.455,1866.655 722.165,1943.170 964.000 C 1968.569 1044.277,1970.008 1057.189,1969.914 1204.000 L 1969.828 1338.000 1955.415 1392.000 C 1909.524 1563.940,1830.568 1696.431,1708.165 1806.892 C 1613.389 1892.422,1514.672 1944.894,1374.877 1984.049 L 1318.000 1999.979 1205.262 1999.990 C 1085.411 2000.001,1073.177 1998.674,1002.008 1977.944 C 831.573 1928.300,691.863 1832.441,588.172 1694.000 C 520.325 1603.414,466.593 1487.480,442.496 1379.685 C 416.214 1262.109,418.547 1111.435,448.467 994.190 C 468.998 913.732,514.305 813.543,563.498 739.813 C 595.369 692.047,658.529 619.969,699.154 585.003 C 809.926 489.665,975.115 414.253,1096.000 403.836 C 1143.142 399.774,1286.844 402.571,1325.378 408.301 M1590.000 695.510 C 1501.125 731.169,1054.895 945.855,1007.311 975.848 C 992.370 985.265,985.008 994.284,970.602 1020.814 C 926.573 1101.896,719.935 1568.066,703.899 1622.487 C 700.203 1635.030,700.134 1642.287,703.611 1652.823 C 710.927 1674.989,730.851 1698.730,749.861 1707.933 C 764.905 1715.215,769.763 1715.834,783.300 1712.188 C 825.702 1700.771,964.396 1638.423,1188.917 1529.850 C 1355.196 1449.441,1393.915 1428.896,1409.037 1413.050 C 1425.586 1395.710,1547.851 1130.987,1645.073 902.000 C 1695.613 782.961,1701.574 764.699,1696.289 745.072 C 1689.657 720.443,1645.351 683.541,1623.128 684.138 C 1620.308 684.213,1605.400 689.331,1590.000 695.510 M1232.000 1082.497 C 1264.837 1087.420,1303.149 1123.129,1312.382 1157.419 C 1314.791 1166.365,1317.041 1187.256,1317.381 1203.842 C 1318.153 1241.477,1307.941 1264.684,1277.433 1294.621 C 1251.117 1320.444,1235.916 1325.686,1195.396 1322.908 C 1143.187 1319.330,1113.629 1298.654,1089.126 1248.572 C 1078.686 1227.233,1078.591 1226.292,1082.936 1187.139 C 1088.157 1140.096,1095.991 1125.543,1130.795 1098.226 C 1158.497 1076.484,1174.893 1073.936,1232.000 1082.497 " fill="#1D1E23" stroke="none" fill-rule="evenodd"/></svg>