<svg viewBox="0 0 2400 2400" fill="none" xmlns="http://www.w3.org/2000/svg"><path d="M1134.000 202.313 C 1024.934 212.964,945.086 231.039,859.057 264.553 C 638.604 350.433,457.239 514.627,346.276 728.785 C 117.538 1170.249,239.438 1714.853,633.152 2010.439 C 757.572 2103.848,906.002 2165.910,1064.143 2190.645 C 1128.301 2200.680,1271.699 2200.680,1335.857 2190.645 C 1560.032 2155.581,1755.203 2049.553,1911.357 1878.000 C 2050.125 1725.546,2143.228 1513.184,2163.748 1302.305 C 2204.392 884.625,1989.259 485.594,1624.479 302.064 C 1493.500 236.166,1370.262 205.632,1222.000 202.346 C 1182.400 201.468,1142.800 201.453,1134.000 202.313 M1352.813 409.334 C 1563.785 455.350,1743.247 582.000,1856.959 765.119 C 2021.170 1029.560,2021.170 1370.440,1856.959 1634.881 C 1809.359 1711.535,1733.105 1795.947,1664.881 1847.510 C 1384.632 2059.318,1015.368 2059.318,735.119 1847.510 C 692.637 1815.403,620.597 1743.363,588.490 1700.881 C 343.572 1376.823,367.220 927.124,644.589 634.104 C 742.660 530.498,875.804 452.252,1013.112 417.530 C 1085.989 399.100,1115.216 396.219,1214.000 397.723 C 1294.433 398.947,1311.886 400.407,1352.813 409.334 M1604.000 686.423 C 1582.084 694.537,1022.858 959.464,1010.178 967.740 C 1001.476 973.420,988.714 985.464,981.818 994.506 C 974.921 1003.547,922.328 1116.932,864.944 1246.472 C 807.560 1376.013,747.422 1511.700,731.305 1548.000 C 705.206 1606.779,702.000 1616.698,702.000 1638.655 C 702.000 1659.571,703.828 1665.942,714.054 1680.655 C 721.011 1690.667,733.694 1701.915,744.054 1707.261 C 778.010 1724.785,773.096 1726.639,1092.000 1576.034 C 1251.500 1500.709,1387.973 1434.601,1395.273 1429.127 C 1402.574 1423.654,1413.648 1412.134,1419.882 1403.528 C 1429.625 1390.078,1491.139 1253.641,1660.429 870.000 C 1703.113 773.271,1706.588 757.135,1691.010 728.000 C 1678.053 703.766,1654.058 687.261,1629.281 685.541 C 1618.677 684.804,1607.300 685.202,1604.000 686.423 M1254.254 1085.065 C 1278.306 1097.313,1301.648 1121.951,1313.412 1147.510 C 1319.959 1161.736,1321.931 1173.841,1321.961 1200.000 C 1321.994 1229.189,1320.415 1237.228,1310.799 1256.810 C 1264.325 1351.448,1135.675 1351.448,1089.201 1256.810 C 1079.585 1237.228,1078.006 1229.189,1078.039 1200.000 C 1078.069 1173.841,1080.041 1161.736,1086.588 1147.510 C 1102.073 1113.867,1132.088 1087.320,1168.000 1075.503 C 1187.582 1069.059,1232.630 1074.053,1254.254 1085.065 " fill="#1D1E23" stroke="none" fill-rule="evenodd"/></svg>