<svg viewBox="0 0 2400 2400" fill="none" xmlns="http://www.w3.org/2000/svg"><path d="M707.266 1602.98L964.961 1020.97C977.425 992.819 999.293 970.246 1026.56 957.379L1590.39 691.371C1655.43 660.686 1722.46 729.839 1692.73 797.016L1435.04 1379.03C1422.57 1407.18 1400.71 1429.75 1373.44 1442.62L809.609 1708.63C744.531 1739.31 677.539 1670.16 707.266 1602.98ZM1288.2 1291.05C1336.91 1240.77 1336.91 1159.23 1288.2 1108.95C1239.49 1058.67 1160.51 1058.67 1111.8 1108.95C1063.09 1159.23 1063.09 1240.77 1111.8 1291.05C1160.51 1341.33 1239.49 1341.33 1288.2 1291.05ZM231.25 1200C231.25 647.702 664.961 200 1200 200C1735.04 200 2168.75 647.702 2168.75 1200C2168.75 1752.3 1735.04 2200 1200 2200C664.961 2200 231.25 1752.3 231.25 1200ZM1981.25 1200C1981.25 755.323 1630.78 393.548 1200 393.548C769.219 393.548 418.75 755.323 418.75 1200C418.75 1644.68 769.219 2006.45 1200 2006.45C1630.78 2006.45 1981.25 1644.68 1981.25 1200Z" fill="#1D1E23"/></svg>