<svg viewBox="0 0 2400 2400" fill="none" xmlns="http://www.w3.org/2000/svg"><path d="M744.000 403.818 L 414.000 406.000 392.095 418.000 C 363.365 433.739,328.795 469.094,312.809 499.087 L 300.000 523.120 300.000 1262.541 L 300.000 2001.963 461.000 1841.081 L 622.000 1680.199 882.802 1679.100 C 1059.310 1678.355,1144.971 1676.633,1147.831 1673.772 C 1150.799 1670.802,1147.437 1654.134,1136.535 1617.772 C 1127.998 1589.297,1118.699 1555.650,1115.870 1543.000 L 1110.727 1520.000 866.399 1520.000 L 622.071 1520.000 541.036 1600.963 L 460.000 1681.927 460.000 1120.963 L 460.000 560.000 1100.000 560.000 L 1740.000 560.000 1740.000 629.389 L 1740.000 698.778 1785.000 701.371 C 1809.750 702.797,1844.605 703.972,1862.456 703.982 L 1894.913 704.000 1897.456 685.442 C 1898.855 675.235,1900.000 634.675,1900.000 595.309 C 1900.000 525.885,1899.683 523.108,1889.443 502.902 C 1874.839 474.082,1831.607 430.353,1804.707 417.192 L 1782.825 406.486 1518.412 403.539 C 1372.986 401.918,1213.500 400.826,1164.000 401.114 C 1114.500 401.401,925.500 402.618,744.000 403.818 M1618.803 807.989 C 1506.952 828.362,1431.926 868.492,1346.793 953.482 C 1280.377 1019.788,1245.981 1075.608,1219.441 1160.160 L 1206.308 1202.000 1206.154 1298.000 C 1206.003 1391.913,1206.246 1394.826,1217.293 1432.000 C 1241.364 1512.994,1278.746 1576.862,1339.447 1640.701 C 1405.247 1709.904,1464.859 1748.129,1554.943 1778.884 L 1598.000 1793.584 1700.000 1793.584 L 1802.000 1793.584 1844.957 1778.917 C 1899.633 1760.250,1945.753 1737.242,1984.807 1709.151 C 2022.147 1682.293,2080.614 1624.115,2108.571 1586.000 C 2134.397 1550.789,2168.307 1480.962,2182.386 1434.000 C 2192.741 1399.461,2193.195 1394.105,2193.589 1302.000 L 2194.000 1206.000 2180.644 1164.000 C 2153.514 1078.682,2118.715 1019.286,2060.448 958.843 C 1980.710 876.127,1883.919 824.669,1781.094 810.328 C 1705.706 799.813,1666.774 799.252,1618.803 807.989 M1748.943 1125.000 L 1750.000 1250.000 1875.000 1251.057 L 2000.000 1252.114 2000.000 1302.057 L 2000.000 1352.000 1874.000 1352.000 L 1748.000 1352.000 1748.000 1476.000 L 1748.000 1600.000 1700.000 1600.000 L 1652.000 1600.000 1652.000 1476.000 L 1652.000 1352.000 1526.000 1352.000 L 1400.000 1352.000 1400.000 1302.057 L 1400.000 1252.114 1525.000 1251.057 L 1650.000 1250.000 1651.057 1125.000 L 1652.114 1000.000 1700.000 1000.000 L 1747.886 1000.000 1748.943 1125.000 " fill="#1D1E23" stroke="none" fill-rule="evenodd"/></svg>