<svg viewBox="0 0 2400 2400" fill="none" xmlns="http://www.w3.org/2000/svg"><path d="M534.000 403.859 L 414.000 406.000 390.848 417.724 C 359.742 433.475,330.942 463.225,313.982 497.127 L 300.000 525.075 300.000 1263.519 L 300.000 2001.963 461.018 1840.981 L 622.037 1680.000 880.018 1679.945 C 1021.908 1679.915,1141.872 1678.852,1146.605 1677.582 C 1155.143 1675.291,1155.089 1674.914,1139.662 1628.994 C 1131.111 1603.541,1121.082 1568.604,1117.376 1551.358 L 1110.638 1520.000 866.355 1520.000 L 622.071 1520.000 541.036 1600.963 L 460.000 1681.927 460.000 1120.963 L 460.000 560.000 1100.000 560.000 L 1740.000 560.000 1740.000 629.403 L 1740.000 698.806 1814.760 701.656 C 1855.878 703.224,1891.428 704.843,1893.760 705.253 C 1896.617 705.756,1898.357 676.640,1899.095 616.000 L 1900.189 526.000 1886.353 497.964 C 1869.601 464.022,1839.758 433.173,1808.677 417.671 C 1786.621 406.671,1783.645 406.283,1700.000 403.512 C 1603.134 400.303,718.502 400.566,534.000 403.859 M1654.000 802.307 C 1570.989 813.887,1536.549 823.600,1482.172 850.766 C 1429.397 877.133,1391.056 905.107,1346.080 950.062 C 1285.277 1010.837,1246.726 1073.309,1222.701 1150.000 C 1204.581 1207.839,1202.527 1223.118,1202.527 1300.000 C 1202.527 1376.882,1204.581 1392.161,1222.701 1450.000 C 1246.635 1526.398,1284.945 1588.584,1346.000 1650.138 C 1406.904 1711.541,1458.765 1745.257,1532.000 1771.059 C 1595.713 1793.507,1622.726 1797.615,1704.000 1797.216 C 1785.459 1796.816,1817.403 1791.063,1886.568 1764.336 C 2015.932 1714.348,2131.901 1590.949,2175.820 1456.551 C 2192.429 1405.726,2197.443 1366.432,2197.074 1290.000 C 2196.790 1231.197,2195.405 1216.861,2186.833 1184.000 C 2165.350 1101.638,2135.482 1042.863,2084.111 981.859 C 2007.788 891.224,1912.073 833.690,1798.634 810.258 C 1768.944 804.125,1677.141 799.079,1654.000 802.307 M1748.943 1125.000 L 1750.000 1250.000 1875.000 1251.057 L 2000.000 1252.114 2000.000 1302.057 L 2000.000 1352.000 1874.000 1352.000 L 1748.000 1352.000 1748.000 1476.000 L 1748.000 1600.000 1700.000 1600.000 L 1652.000 1600.000 1652.000 1476.000 L 1652.000 1352.000 1526.000 1352.000 L 1400.000 1352.000 1400.000 1302.057 L 1400.000 1252.114 1525.000 1251.057 L 1650.000 1250.000 1651.057 1125.000 L 1652.114 1000.000 1700.000 1000.000 L 1747.886 1000.000 1748.943 1125.000 " fill="#1D1E23" stroke="none" fill-rule="evenodd"/></svg>