<svg viewBox="0 0 2400 2400" fill="none" xmlns="http://www.w3.org/2000/svg"><path d="M672.000 403.865 L 414.000 406.000 388.789 419.670 C 359.026 435.807,330.870 465.202,312.925 498.870 L 300.000 523.120 300.000 1262.541 L 300.000 2001.963 461.018 1840.981 L 622.037 1680.000 882.018 1679.939 C 1033.394 1679.903,1144.432 1678.339,1147.821 1676.195 C 1152.763 1673.069,1151.472 1665.670,1139.286 1627.256 C 1131.389 1602.365,1121.691 1568.050,1117.733 1551.000 L 1110.537 1520.000 866.304 1520.000 L 622.071 1520.000 541.036 1600.963 L 460.000 1681.927 460.000 1120.963 L 460.000 560.000 1100.000 560.000 L 1740.000 560.000 1740.000 629.380 L 1740.000 698.760 1794.632 701.380 C 1824.680 702.821,1859.530 704.000,1872.075 704.000 L 1894.886 704.000 1897.408 683.000 C 1898.795 671.450,1899.946 630.752,1899.965 592.560 L 1900.000 523.120 1887.070 498.560 C 1869.851 465.852,1834.356 430.497,1805.182 416.995 L 1782.000 406.266 1576.000 403.489 C 1350.697 400.451,1070.332 400.568,672.000 403.865 M1628.000 806.534 C 1512.020 824.082,1432.169 865.991,1344.000 955.588 C 1271.782 1028.977,1237.607 1088.543,1213.740 1182.630 C 1205.045 1216.905,1204.000 1229.502,1204.000 1300.000 C 1204.000 1370.498,1205.045 1383.095,1213.740 1417.370 C 1239.874 1520.395,1286.846 1595.909,1375.268 1677.055 C 1428.624 1726.019,1486.276 1757.820,1567.320 1782.992 C 1600.992 1793.450,1604.848 1793.763,1700.000 1793.763 C 1795.834 1793.763,1798.796 1793.518,1834.000 1782.654 C 1922.846 1755.238,1986.575 1717.318,2050.210 1654.006 C 2115.557 1588.990,2155.744 1522.031,2182.385 1433.777 C 2192.313 1400.888,2193.333 1391.005,2195.027 1311.345 C 2196.804 1227.767,2196.497 1223.246,2186.389 1184.010 C 2165.568 1103.183,2134.978 1043.626,2081.713 980.212 C 2015.383 901.241,1926.114 844.343,1827.272 818.035 C 1796.334 809.800,1694.479 798.413,1670.000 800.452 C 1667.800 800.635,1648.900 803.372,1628.000 806.534 M1748.943 1125.000 L 1750.000 1250.000 1875.000 1251.057 L 2000.000 1252.114 2000.000 1302.057 L 2000.000 1352.000 1874.000 1352.000 L 1748.000 1352.000 1748.000 1476.000 L 1748.000 1600.000 1700.000 1600.000 L 1652.000 1600.000 1652.000 1476.000 L 1652.000 1352.000 1526.000 1352.000 L 1400.000 1352.000 1400.000 1302.057 L 1400.000 1252.114 1525.000 1251.057 L 1650.000 1250.000 1651.057 1125.000 L 1652.114 1000.000 1700.000 1000.000 L 1747.886 1000.000 1748.943 1125.000 " fill="#1D1E23" stroke="none" fill-rule="evenodd"/></svg>