<svg viewBox="0 0 2400 2400" fill="none" xmlns="http://www.w3.org/2000/svg"><path d="M422.000 405.636 C 375.108 417.255,336.285 449.624,314.773 495.037 L 302.000 522.000 300.959 1262.000 L 299.918 2002.000 460.977 1841.000 L 622.037 1680.000 889.485 1680.000 C 1142.404 1680.000,1156.809 1679.620,1154.641 1673.000 C 1153.380 1669.150,1145.179 1645.300,1136.417 1620.000 C 1127.656 1594.700,1118.289 1561.850,1115.603 1547.000 L 1110.719 1520.000 866.395 1520.000 L 622.071 1520.000 541.036 1600.963 L 460.000 1681.927 460.000 1120.963 L 460.000 560.000 1100.000 560.000 L 1740.000 560.000 1740.000 629.433 L 1740.000 698.866 1813.000 701.010 C 1853.150 702.189,1889.298 704.494,1893.328 706.131 C 1900.331 708.975,1900.598 704.946,1899.328 615.554 L 1898.000 522.000 1885.227 495.037 C 1863.047 448.214,1821.627 414.857,1772.803 404.498 C 1740.889 397.726,449.530 398.815,422.000 405.636 M1632.396 804.471 C 1531.214 816.204,1433.384 863.845,1354.665 939.719 C 1276.087 1015.456,1228.078 1102.352,1207.546 1206.000 C 1200.189 1243.140,1200.189 1356.860,1207.546 1394.000 C 1228.324 1498.892,1276.634 1585.596,1357.234 1662.650 C 1414.609 1717.501,1472.795 1752.837,1543.382 1775.696 C 1599.501 1793.870,1628.501 1798.000,1700.000 1798.000 C 1771.727 1798.000,1800.467 1793.882,1857.371 1775.450 C 1979.101 1736.021,2090.612 1638.840,2149.780 1520.618 C 2184.626 1450.995,2198.000 1389.803,2198.000 1300.000 C 2198.000 1228.273,2193.882 1199.533,2175.450 1142.629 C 2150.935 1066.944,2108.219 1000.329,2045.335 939.719 C 1933.729 832.146,1792.533 785.901,1632.396 804.471 M1748.943 1125.000 L 1750.000 1250.000 1875.000 1251.057 L 2000.000 1252.114 2000.000 1302.057 L 2000.000 1352.000 1874.000 1352.000 L 1748.000 1352.000 1748.000 1476.000 L 1748.000 1600.000 1700.000 1600.000 L 1652.000 1600.000 1652.000 1476.000 L 1652.000 1352.000 1526.000 1352.000 L 1400.000 1352.000 1400.000 1302.057 L 1400.000 1252.114 1525.000 1251.057 L 1650.000 1250.000 1651.057 1125.000 L 1652.114 1000.000 1700.000 1000.000 L 1747.886 1000.000 1748.943 1125.000 " fill="#1D1E23" stroke="none" fill-rule="evenodd"/></svg>