<svg viewBox="0 0 2400 2400" fill="none" xmlns="http://www.w3.org/2000/svg"><path d="M756.000 403.887 L 414.000 406.190 396.000 415.670 C 371.260 428.699,323.366 477.581,310.564 502.867 L 300.000 523.734 300.000 1262.849 L 300.000 2001.963 461.018 1840.981 L 622.037 1680.000 822.018 1679.987 C 932.008 1679.979,1050.350 1678.798,1085.000 1677.360 C 1159.456 1674.272,1154.671 1680.918,1134.040 1609.258 C 1126.362 1582.589,1118.113 1551.596,1115.709 1540.385 L 1111.337 1520.000 866.704 1520.000 L 622.071 1520.000 541.036 1600.963 L 460.000 1681.927 460.000 1120.963 L 460.000 560.000 1100.000 560.000 L 1740.000 560.000 1740.000 629.401 L 1740.000 698.802 1776.614 701.401 C 1796.752 702.830,1831.617 704.000,1854.091 704.000 L 1894.953 704.000 1897.433 689.000 C 1898.796 680.750,1899.932 640.603,1899.956 599.785 C 1899.999 527.213,1899.762 525.093,1889.247 503.993 C 1875.257 475.918,1831.821 432.023,1804.243 418.090 L 1782.485 407.098 1490.243 403.751 C 1329.509 401.911,1175.500 400.671,1148.000 400.995 C 1120.500 401.319,944.100 402.621,756.000 403.887 M1599.880 811.959 C 1553.463 821.976,1521.387 833.210,1480.500 853.771 C 1435.226 876.539,1402.677 900.768,1354.459 947.598 C 1283.915 1016.110,1248.912 1071.464,1219.509 1161.006 L 1204.000 1208.235 1204.030 1279.118 C 1204.069 1368.973,1208.477 1406.763,1224.315 1453.023 C 1246.981 1519.224,1275.528 1567.620,1325.897 1625.232 C 1393.041 1702.034,1458.679 1745.258,1563.387 1781.625 L 1604.774 1796.000 1700.000 1796.000 L 1795.226 1796.000 1836.613 1781.625 C 1932.701 1748.252,1985.538 1715.612,2052.123 1648.493 C 2102.645 1597.565,2123.192 1569.174,2150.286 1512.851 C 2181.888 1447.157,2188.841 1421.226,2192.338 1356.000 C 2194.048 1324.100,2195.572 1277.950,2195.724 1253.445 C 2195.984 1211.419,2195.076 1206.195,2179.725 1161.445 C 2147.888 1068.634,2115.062 1014.707,2052.163 951.882 C 1991.411 891.201,1911.243 842.880,1837.837 822.699 C 1767.577 803.382,1661.755 798.606,1599.880 811.959 M1748.943 1125.000 L 1750.000 1250.000 1875.000 1251.057 L 2000.000 1252.114 2000.000 1302.057 L 2000.000 1352.000 1874.000 1352.000 L 1748.000 1352.000 1748.000 1476.000 L 1748.000 1600.000 1700.000 1600.000 L 1652.000 1600.000 1652.000 1476.000 L 1652.000 1352.000 1526.000 1352.000 L 1400.000 1352.000 1400.000 1302.057 L 1400.000 1252.114 1525.000 1251.057 L 1650.000 1250.000 1651.057 1125.000 L 1652.114 1000.000 1700.000 1000.000 L 1747.886 1000.000 1748.943 1125.000 " fill="#1D1E23" stroke="none" fill-rule="evenodd"/></svg>