<svg viewBox="0 0 2400 2400" fill="none" xmlns="http://www.w3.org/2000/svg"><path d="M1650 1600H1750V1350H2000V1250H1750V1000H1650V1250H1400V1350H1650V1600ZM1700 1800C1561.67 1800 1443.75 1751.25 1346.25 1653.75C1248.75 1556.25 1200 1438.33 1200 1300C1200 1161.67 1248.75 1043.75 1346.25 946.25C1443.75 848.75 1561.67 800 1700 800C1838.33 800 1956.25 848.75 2053.75 946.25C2151.25 1043.75 2200 1161.67 2200 1300C2200 1438.33 2151.25 1556.25 2053.75 1653.75C1956.25 1751.25 1838.33 1800 1700 1800Z" fill="#1D1E23"/><path d="M460 400H1740C1828 400 1900 472 1900 560V707.089C1867.34 702.417 1833.95 700 1800 700C1779.79 700 1759.78 700.857 1740 702.535V560H460V1680L620 1520H1110.25C1119.9 1575.88 1136.18 1629.49 1158.25 1680H620L300 2000V560C300 472 372 400 460 400Z" fill="#1D1E23"/></svg>