<svg viewBox="0 0 2400 2400" fill="none" xmlns="http://www.w3.org/2000/svg"><path d="M1155.982 209.145 C 1132.932 215.694,1105.320 234.729,1084.413 258.480 C 1063.592 282.134,1052.753 316.005,1048.479 370.773 C 1046.725 393.242,1043.056 414.318,1040.325 417.608 C 1037.594 420.899,1028.754 425.683,1020.680 428.241 C 997.825 435.481,874.174 498.079,845.534 516.909 L 819.824 533.812 1308.912 1022.913 L 1798.000 1512.014 1799.131 1317.007 C 1799.753 1209.753,1798.525 1070.700,1796.401 1008.000 C 1792.919 905.176,1791.514 890.098,1782.075 854.200 C 1751.752 738.876,1707.216 662.878,1618.617 575.272 C 1555.085 512.452,1492.281 472.281,1401.335 436.296 C 1383.370 429.187,1365.725 420.116,1362.125 416.138 C 1357.748 411.302,1354.263 395.834,1351.607 369.453 C 1349.422 347.754,1345.734 322.830,1343.412 314.067 C 1332.095 271.365,1301.938 235.769,1261.323 217.175 C 1234.718 204.995,1184.151 201.140,1155.982 209.145 M246.433 329.655 C 210.170 343.147,176.841 392.761,182.114 425.401 C 188.850 467.098,200.271 480.031,472.296 754.000 L 607.330 890.000 603.849 954.000 C 601.935 989.200,600.285 1171.450,600.184 1359.000 L 600.000 1700.000 564.289 1700.000 C 517.388 1700.000,470.024 1706.805,451.637 1716.185 C 392.914 1746.143,383.899 1825.515,434.017 1871.320 C 445.846 1882.131,460.582 1892.168,466.762 1893.624 C 472.943 1895.080,733.600 1897.352,1046.000 1898.672 L 1614.000 1901.072 1715.382 1999.536 C 1859.903 2139.896,1919.523 2195.112,1939.111 2206.736 C 1953.967 2215.552,1959.829 2216.686,1983.588 2215.344 C 2016.342 2213.493,2042.177 2199.483,2060.913 2173.411 C 2071.263 2159.008,2073.114 2152.330,2074.961 2122.729 L 2077.088 2088.636 2011.544 2019.375 C 1921.511 1924.235,579.710 582.398,446.000 453.789 C 386.600 396.655,331.314 344.815,323.142 338.588 C 304.876 324.671,270.569 320.676,246.433 329.655 M1000.000 2011.794 C 1000.000 2032.512,1019.589 2086.473,1036.070 2111.153 C 1069.194 2160.756,1142.082 2199.721,1202.160 2199.941 C 1259.246 2200.150,1328.686 2161.327,1364.604 2109.122 C 1379.661 2087.237,1400.000 2032.513,1400.000 2013.885 L 1400.000 2000.000 1200.000 2000.000 L 1000.000 2000.000 1000.000 2011.794 " fill="#1D1E23" stroke="none" fill-rule="evenodd"/></svg>