<svg viewBox="0 0 2400 2400" fill="none" xmlns="http://www.w3.org/2000/svg"><path d="M499.99 1900C444.762 1900 399.99 1855.23 399.99 1800C399.99 1744.77 444.762 1700 499.99 1700H599.99V1000C599.99 945 607.074 890.833 621.24 837.5C635.407 784.167 656.657 733.333 684.99 685L999.99 1000H719.99L209.99 490C171.33 451.34 171.33 388.66 209.99 350C248.65 311.34 311.33 311.34 349.99 350L2049.75 2049.76C2088.54 2088.55 2088.54 2151.45 2049.75 2190.24C2011.14 2228.85 1948.62 2229.06 1909.75 2190.72L1614.99 1900H499.99ZM1799.99 1515L819.99 535C853.324 508.333 889.157 485 927.49 465C965.824 445 1006.66 430 1049.99 420V350C1049.99 308.333 1064.57 272.917 1093.74 243.75C1122.91 214.583 1158.32 200 1199.99 200C1241.66 200 1277.07 214.583 1306.24 243.75C1335.41 272.917 1349.99 308.333 1349.99 350V420C1483.32 453.333 1591.66 523.75 1674.99 631.25C1758.32 738.75 1799.99 861.667 1799.99 1000V1515ZM1199.99 2200C1144.99 2200 1097.91 2180.42 1058.74 2141.25C1019.57 2102.08 999.99 2055 999.99 2000H1399.99C1399.99 2055 1380.41 2102.08 1341.24 2141.25C1302.07 2180.42 1254.99 2200 1199.99 2200Z" fill="#1D1E23"/></svg>