<svg viewBox="0 0 2400 2400" fill="none" xmlns="http://www.w3.org/2000/svg"><path d="M1150.811 209.769 C 1118.691 221.227,1081.972 252.731,1067.295 281.424 C 1056.241 303.033,1048.151 344.611,1048.069 380.235 C 1048.028 398.288,1045.985 413.015,1043.000 416.785 C 1040.250 420.257,1028.100 426.224,1016.000 430.044 C 986.946 439.217,867.591 500.151,841.185 519.293 L 820.369 534.382 1310.413 1024.191 L 1800.457 1514.000 1798.775 1222.000 C 1797.004 914.561,1796.286 901.488,1777.640 837.146 C 1746.695 730.360,1706.272 662.617,1624.000 579.670 C 1556.561 511.678,1499.471 474.401,1410.000 439.939 C 1385.800 430.618,1363.115 419.746,1359.589 415.780 C 1354.956 410.569,1352.581 397.118,1351.026 367.284 C 1347.452 298.724,1327.703 257.819,1284.125 228.719 C 1270.889 219.880,1251.032 210.740,1239.863 208.344 C 1212.465 202.468,1169.344 203.158,1150.811 209.769 M252.344 326.909 C 226.020 331.869,195.046 363.936,184.074 397.589 C 177.529 417.661,183.764 447.822,199.556 472.489 C 205.722 482.120,300.056 580.182,409.187 690.404 L 607.606 890.808 603.889 948.404 C 601.844 980.082,600.133 1162.150,600.086 1353.000 L 600.000 1700.000 559.000 1700.079 C 503.745 1700.186,465.889 1706.133,445.901 1717.847 C 426.620 1729.146,408.771 1753.181,403.651 1774.737 C 399.371 1792.759,402.872 1829.847,410.189 1844.000 C 417.640 1858.414,447.976 1886.723,462.000 1892.350 C 471.077 1895.991,612.842 1897.629,1044.018 1899.074 L 1614.035 1900.985 1746.018 2029.045 C 1921.141 2198.964,1933.782 2210.003,1959.536 2215.527 C 1998.376 2223.856,2037.322 2207.498,2061.896 2172.533 C 2073.142 2156.532,2074.000 2152.820,2074.000 2120.184 L 2074.000 2085.057 2011.106 2019.096 C 1902.606 1905.307,992.959 993.453,650.773 655.464 C 384.635 392.590,320.789 331.485,308.773 328.148 C 293.949 324.030,270.368 323.513,252.344 326.909 M1000.000 2013.299 C 1000.000 2027.547,1014.482 2073.645,1026.055 2096.234 C 1053.636 2150.071,1120.349 2192.377,1187.141 2198.387 C 1257.807 2204.746,1334.825 2163.499,1370.851 2100.000 C 1386.490 2072.436,1400.000 2032.635,1400.000 2014.126 L 1400.000 2000.000 1200.000 2000.000 L 1000.000 2000.000 1000.000 2013.299 " fill="#1D1E23" stroke="none" fill-rule="evenodd"/></svg>