<svg viewBox="0 0 2400 2400" fill="none" xmlns="http://www.w3.org/2000/svg"><path d="M1164.000 207.549 C 1131.413 214.641,1091.141 244.389,1073.592 274.335 C 1060.600 296.505,1053.459 323.657,1048.057 371.426 C 1045.730 392.011,1042.150 411.984,1040.101 415.811 C 1038.053 419.638,1027.742 425.995,1017.189 429.937 C 991.080 439.690,889.143 491.402,850.611 514.441 L 819.222 533.210 1306.605 1020.605 C 1574.665 1288.672,1795.581 1508.000,1797.528 1508.000 C 1802.568 1508.000,1797.622 959.253,1792.146 911.053 C 1783.505 834.976,1750.455 746.482,1705.420 678.835 C 1676.989 636.127,1610.981 564.609,1569.615 531.694 C 1532.073 501.821,1480.930 471.021,1437.276 451.996 C 1372.955 423.964,1363.915 419.316,1360.191 412.357 C 1358.235 408.703,1353.893 384.665,1350.541 358.938 C 1347.189 333.211,1340.784 303.882,1336.307 293.763 C 1319.624 256.048,1285.479 224.477,1249.736 213.721 C 1227.281 206.963,1181.755 203.686,1164.000 207.549 M253.055 327.691 C 210.831 338.376,173.335 396.394,183.723 434.971 C 193.012 469.469,222.146 501.753,464.408 746.000 L 607.238 890.000 603.842 958.000 C 601.974 995.400,600.345 1177.650,600.223 1363.000 L 600.000 1700.000 567.000 1700.028 C 523.642 1700.065,462.622 1709.418,448.912 1718.127 C 383.738 1759.528,386.280 1846.525,453.820 1886.106 L 471.051 1896.204 1042.468 1898.765 L 1613.884 1901.326 1735.942 2019.291 C 1879.632 2158.162,1929.311 2203.218,1946.872 2210.594 C 1985.239 2226.708,2040.722 2206.668,2063.003 2168.649 C 2071.408 2154.307,2073.847 2144.126,2075.241 2117.567 L 2076.982 2084.398 1679.491 1685.605 C 1134.209 1138.539,458.552 465.206,386.159 396.723 C 353.247 365.588,320.545 337.374,313.489 334.025 C 297.256 326.323,269.825 323.448,253.055 327.691 M1000.000 2012.126 C 1000.000 2027.425,1013.046 2066.443,1027.909 2095.596 C 1040.784 2120.851,1068.293 2149.175,1098.000 2167.765 C 1124.336 2184.244,1175.062 2200.000,1201.785 2200.000 C 1262.997 2200.000,1341.830 2152.110,1370.989 2097.211 C 1386.290 2068.401,1400.000 2028.193,1400.000 2012.126 L 1400.000 2000.000 1200.000 2000.000 L 1000.000 2000.000 1000.000 2012.126 " fill="#1D1E23" stroke="none" fill-rule="evenodd"/></svg>