<svg viewBox="0 0 2400 2400" fill="none" xmlns="http://www.w3.org/2000/svg"><path d="M1162.938 204.097 C 1116.646 215.788,1074.172 254.816,1057.528 300.956 C 1054.011 310.706,1050.229 340.084,1048.690 369.600 L 1046.000 421.201 1018.000 428.666 C 981.202 438.476,885.551 486.346,849.188 513.150 L 820.375 534.387 1310.188 1024.188 L 1800.000 1513.988 1799.927 1233.994 C 1799.849 937.134,1798.620 912.949,1780.051 842.819 C 1753.089 740.992,1702.814 654.920,1624.035 575.718 C 1555.149 506.462,1484.965 463.039,1394.540 433.729 L 1354.000 420.589 1351.584 373.294 C 1348.764 318.069,1343.764 296.984,1327.381 271.211 C 1299.924 228.019,1259.157 204.143,1208.782 201.753 C 1191.852 200.950,1171.222 202.005,1162.938 204.097 M258.000 323.550 C 229.892 330.838,204.182 352.051,189.583 380.000 C 178.716 400.803,179.667 440.900,191.575 464.000 C 197.869 476.211,266.449 547.762,404.797 686.459 L 608.740 890.918 604.381 926.459 C 601.525 949.746,600.019 1089.228,600.011 1331.000 L 600.000 1700.000 542.503 1700.000 C 463.062 1700.000,437.124 1710.249,413.089 1751.136 C 403.633 1767.222,402.000 1774.417,402.000 1800.000 C 402.000 1825.583,403.633 1832.778,413.089 1848.864 C 419.188 1859.240,430.112 1872.255,437.364 1877.786 C 468.095 1901.226,434.293 1900.000,1049.871 1900.000 L 1614.736 1900.000 1770.930 2053.761 C 1922.526 2202.995,1927.803 2207.719,1950.170 2214.221 C 1998.744 2228.342,2046.287 2206.877,2070.266 2160.000 C 2080.078 2140.817,2080.203 2098.693,2070.503 2080.000 C 2060.878 2061.452,342.194 341.658,323.580 331.950 C 306.729 323.162,275.117 319.112,258.000 323.550 M1000.000 2013.087 C 1000.000 2034.482,1013.897 2078.142,1028.241 2101.809 C 1096.271 2214.058,1250.844 2232.979,1341.719 2140.181 C 1375.143 2106.049,1400.000 2050.616,1400.000 2010.210 L 1400.000 2000.000 1200.000 2000.000 L 1000.000 2000.000 1000.000 2013.087 " fill="#1D1E23" stroke="none" fill-rule="evenodd"/></svg>