<svg viewBox="0 0 2400 2400" fill="none" xmlns="http://www.w3.org/2000/svg"><path d="M1171.308 204.122 C 1131.556 208.951,1083.319 245.794,1064.595 285.628 C 1055.012 306.014,1048.228 345.469,1048.025 382.000 C 1047.815 419.582,1046.329 422.206,1022.193 427.607 C 994.090 433.896,880.566 490.512,847.023 514.966 L 820.379 534.391 1310.189 1024.189 L 1800.000 1513.988 1799.937 1249.994 C 1799.858 920.467,1797.934 894.014,1767.422 802.892 C 1738.436 716.328,1690.266 642.058,1615.629 568.857 C 1554.298 508.705,1483.185 464.874,1400.000 435.953 C 1379.100 428.687,1359.750 419.981,1357.000 416.606 C 1354.059 412.998,1351.988 398.841,1351.970 382.235 C 1351.882 300.538,1326.912 249.590,1272.829 220.764 C 1252.065 209.698,1240.399 206.601,1204.000 202.494 C 1198.500 201.873,1183.789 202.606,1171.308 204.122 M242.000 329.555 C 213.574 341.973,187.582 374.616,182.370 404.444 C 178.182 428.409,186.913 457.907,204.948 480.722 C 213.885 492.029,308.230 588.937,414.603 696.074 L 608.008 890.869 604.067 938.435 C 601.872 964.938,600.099 1144.078,600.063 1343.000 L 600.000 1700.000 555.000 1700.030 C 468.127 1700.089,438.337 1710.599,414.147 1749.725 C 403.469 1766.997,402.122 1772.645,402.250 1799.601 C 402.350 1820.660,404.550 1834.059,409.410 1843.213 C 419.992 1863.142,445.599 1886.851,462.740 1892.589 C 474.760 1896.613,598.627 1897.975,1046.123 1899.003 L 1614.247 1900.308 1765.524 2048.220 C 1848.726 2129.572,1924.271 2200.430,1933.400 2205.682 C 1979.801 2232.376,2037.461 2215.060,2066.357 2165.752 C 2074.788 2151.366,2076.706 2142.968,2076.706 2120.443 C 2076.706 2105.235,2074.471 2088.617,2071.739 2083.512 C 2056.770 2055.542,339.679 338.800,317.334 329.464 C 300.879 322.589,257.828 322.641,242.000 329.555 M1000.054 2015.000 C 1000.133 2037.350,1020.817 2092.593,1037.735 2115.639 C 1090.352 2187.318,1186.011 2217.355,1266.630 2187.514 C 1294.109 2177.343,1324.881 2157.831,1342.742 2139.253 C 1371.338 2109.509,1400.000 2046.599,1400.000 2013.579 L 1400.000 2000.000 1200.000 2000.000 L 1000.000 2000.000 1000.054 2015.000 " fill="#1D1E23" stroke="none" fill-rule="evenodd"/></svg>