<svg viewBox="0 0 2400 2400" fill="none" xmlns="http://www.w3.org/2000/svg"><path d="M1101.839 208.154 C 1037.968 212.460,968.007 227.259,882.000 254.657 C 802.335 280.035,678.491 346.139,590.694 410.148 C 547.073 441.951,441.005 548.469,404.712 596.921 C 283.228 759.102,214.891 944.838,204.324 1141.563 C 195.394 1307.817,221.134 1450.846,287.406 1603.222 C 335.541 1713.899,402.404 1810.444,495.909 1904.286 C 612.200 2020.995,736.319 2097.638,892.768 2149.343 C 993.131 2182.512,1075.438 2196.494,1170.000 2196.438 C 1274.449 2196.375,1315.065 2181.932,1372.384 2124.470 C 1412.009 2084.747,1432.075 2049.100,1442.451 2000.000 C 1455.607 1937.743,1443.167 1878.454,1401.272 1803.746 C 1383.734 1772.471,1378.269 1758.897,1378.572 1747.361 C 1379.035 1729.689,1388.674 1713.062,1401.209 1708.312 C 1406.044 1706.480,1448.700 1703.768,1496.000 1702.285 C 1612.531 1698.631,1692.767 1692.800,1724.000 1685.715 C 1933.570 1638.172,2099.127 1488.921,2167.385 1286.000 C 2187.825 1225.233,2194.671 1190.201,2197.871 1130.000 C 2202.778 1037.663,2190.013 951.799,2155.651 846.000 C 2080.304 614.015,1907.915 424.655,1666.000 308.143 C 1538.946 246.951,1419.172 216.587,1271.766 208.201 C 1191.621 203.642,1168.860 203.635,1101.839 208.154 M1010.842 616.361 C 1033.314 625.994,1066.002 656.818,1080.450 682.000 C 1091.295 700.902,1091.927 704.589,1091.962 749.159 C 1091.994 789.398,1090.752 798.764,1083.500 812.981 C 1070.842 837.791,1035.061 873.143,1009.534 886.059 C 989.603 896.143,982.749 897.455,950.000 897.455 C 917.151 897.455,910.428 896.158,890.204 885.926 C 859.205 870.242,823.426 831.531,811.958 801.268 C 804.465 781.492,803.465 772.775,805.299 743.192 C 808.000 699.607,817.549 676.980,845.182 648.683 C 868.142 625.172,888.136 613.244,913.375 608.002 C 937.054 603.084,990.576 607.674,1010.842 616.361 M1510.842 616.361 C 1533.314 625.994,1566.002 656.818,1580.450 682.000 C 1591.295 700.902,1591.927 704.589,1591.962 749.159 C 1591.994 789.398,1590.752 798.764,1583.500 812.981 C 1570.842 837.791,1535.061 873.143,1509.534 886.059 C 1489.603 896.143,1482.749 897.455,1450.000 897.455 C 1417.151 897.455,1410.428 896.158,1390.204 885.926 C 1359.205 870.242,1323.426 831.531,1311.958 801.268 C 1304.465 781.492,1303.465 772.775,1305.299 743.192 C 1308.000 699.607,1317.549 676.980,1345.182 648.683 C 1368.142 625.172,1388.136 613.244,1413.375 608.002 C 1437.054 603.084,1490.576 607.674,1510.842 616.361 M710.842 1016.361 C 733.314 1025.994,766.002 1056.818,780.450 1082.000 C 791.295 1100.902,791.927 1104.589,791.962 1149.159 C 791.994 1189.398,790.752 1198.764,783.500 1212.981 C 770.842 1237.791,735.061 1273.143,709.534 1286.059 C 689.603 1296.143,682.749 1297.455,650.000 1297.455 C 617.151 1297.455,610.428 1296.158,590.204 1285.926 C 559.205 1270.242,523.426 1231.531,511.958 1201.268 C 504.465 1181.492,503.465 1172.775,505.299 1143.192 C 508.000 1099.607,517.549 1076.980,545.182 1048.683 C 568.142 1025.172,588.136 1013.244,613.375 1008.002 C 637.054 1003.084,690.576 1007.674,710.842 1016.361 M1810.842 1016.361 C 1833.314 1025.994,1866.002 1056.818,1880.450 1082.000 C 1891.295 1100.902,1891.927 1104.589,1891.962 1149.159 C 1891.994 1189.398,1890.752 1198.764,1883.500 1212.981 C 1870.842 1237.791,1835.061 1273.143,1809.534 1286.059 C 1789.603 1296.143,1782.749 1297.455,1750.000 1297.455 C 1717.151 1297.455,1710.428 1296.158,1690.204 1285.926 C 1659.205 1270.242,1623.426 1231.531,1611.958 1201.268 C 1604.465 1181.492,1603.465 1172.775,1605.299 1143.192 C 1608.000 1099.607,1617.549 1076.980,1645.182 1048.683 C 1668.142 1025.172,1688.136 1013.244,1713.375 1008.002 C 1737.054 1003.084,1790.576 1007.674,1810.842 1016.361 " fill="#1D1E23" stroke="none" fill-rule="evenodd"/></svg>