<svg viewBox="0 0 2400 2400" fill="none" xmlns="http://www.w3.org/2000/svg"><path d="M1112.000 203.919 C 819.100 233.250,564.755 377.421,392.323 611.855 C 204.082 867.782,150.114 1207.111,249.577 1509.371 C 375.245 1891.263,716.118 2161.577,1115.900 2196.367 C 1248.978 2207.947,1318.312 2187.584,1383.660 2117.727 C 1410.134 2089.426,1435.558 2041.710,1444.256 2004.000 C 1460.011 1935.687,1441.789 1856.449,1396.446 1796.103 C 1374.648 1767.093,1370.372 1753.509,1376.897 1734.011 C 1379.704 1725.625,1387.076 1714.992,1393.280 1710.382 C 1404.054 1702.376,1410.698 1701.894,1541.280 1699.630 C 1660.684 1697.561,1682.985 1696.170,1717.362 1688.647 C 1775.715 1675.876,1824.270 1658.419,1875.906 1631.645 C 2036.529 1548.359,2150.511 1397.203,2188.304 1217.362 C 2211.143 1108.679,2199.685 970.749,2157.165 842.526 C 2084.034 621.994,1915.810 431.905,1694.000 319.164 C 1578.360 260.386,1478.580 229.259,1344.000 209.977 C 1293.311 202.715,1159.041 199.209,1112.000 203.919 M1013.175 615.206 C 1045.145 630.397,1069.961 655.357,1085.546 688.000 C 1096.586 711.122,1097.960 717.985,1097.960 750.000 C 1097.960 781.955,1096.572 788.921,1085.602 812.000 C 1069.901 845.033,1045.056 869.884,1012.000 885.622 C 988.906 896.617,981.977 898.000,950.000 898.000 C 918.023 898.000,911.094 896.617,888.000 885.622 C 854.944 869.884,830.099 845.033,814.398 812.000 C 803.428 788.921,802.040 781.955,802.040 750.000 C 802.040 718.045,803.428 711.079,814.398 688.000 C 834.216 646.307,871.724 615.017,914.984 604.088 C 942.192 597.215,985.674 602.138,1013.175 615.206 M1513.175 615.206 C 1545.145 630.397,1569.961 655.357,1585.546 688.000 C 1596.586 711.122,1597.960 717.985,1597.960 750.000 C 1597.960 781.955,1596.572 788.921,1585.602 812.000 C 1569.901 845.033,1545.056 869.884,1512.000 885.622 C 1488.906 896.617,1481.977 898.000,1450.000 898.000 C 1418.023 898.000,1411.094 896.617,1388.000 885.622 C 1354.944 869.884,1330.099 845.033,1314.398 812.000 C 1303.428 788.921,1302.040 781.955,1302.040 750.000 C 1302.040 718.045,1303.428 711.079,1314.398 688.000 C 1334.216 646.307,1371.724 615.017,1414.984 604.088 C 1442.192 597.215,1485.674 602.138,1513.175 615.206 M713.175 1015.206 C 745.145 1030.397,769.961 1055.357,785.546 1088.000 C 796.586 1111.122,797.960 1117.985,797.960 1150.000 C 797.960 1181.955,796.572 1188.921,785.602 1212.000 C 769.901 1245.033,745.056 1269.884,712.000 1285.622 C 688.906 1296.617,681.977 1298.000,650.000 1298.000 C 618.023 1298.000,611.094 1296.617,588.000 1285.622 C 554.944 1269.884,530.099 1245.033,514.398 1212.000 C 503.428 1188.921,502.040 1181.955,502.040 1150.000 C 502.040 1118.045,503.428 1111.079,514.398 1088.000 C 534.216 1046.307,571.724 1015.017,614.984 1004.088 C 642.192 997.215,685.674 1002.138,713.175 1015.206 M1813.175 1015.206 C 1845.145 1030.397,1869.961 1055.357,1885.546 1088.000 C 1896.586 1111.122,1897.960 1117.985,1897.960 1150.000 C 1897.960 1181.955,1896.572 1188.921,1885.602 1212.000 C 1869.901 1245.033,1845.056 1269.884,1812.000 1285.622 C 1788.906 1296.617,1781.977 1298.000,1750.000 1298.000 C 1718.023 1298.000,1711.094 1296.617,1688.000 1285.622 C 1654.944 1269.884,1630.099 1245.033,1614.398 1212.000 C 1603.428 1188.921,1602.040 1181.955,1602.040 1150.000 C 1602.040 1118.045,1603.428 1111.079,1614.398 1088.000 C 1634.216 1046.307,1671.724 1015.017,1714.984 1004.088 C 1742.192 997.215,1785.674 1002.138,1813.175 1015.206 " fill="#1D1E23" stroke="none" fill-rule="evenodd"/></svg>