<svg viewBox="0 0 2400 2400" fill="none" xmlns="http://www.w3.org/2000/svg"><path d="M1110.000 208.097 C 964.236 218.703,822.902 265.975,679.856 351.965 C 600.066 399.929,575.957 419.313,493.699 501.636 C 420.399 574.993,409.840 587.372,372.587 643.619 C 296.184 758.978,248.799 871.739,222.305 1001.233 C 206.856 1076.748,202.821 1129.949,205.033 1228.977 C 207.262 1328.813,215.049 1384.128,238.213 1464.693 C 288.883 1640.918,367.711 1774.526,498.111 1905.204 C 616.960 2024.307,739.166 2099.048,900.409 2151.247 C 1006.292 2185.525,1089.665 2198.127,1189.677 2194.973 C 1283.819 2192.004,1315.226 2180.161,1369.099 2127.311 C 1401.781 2095.250,1424.163 2060.661,1436.399 2023.310 C 1444.179 1999.559,1445.949 1986.034,1445.730 1952.000 C 1445.408 1901.856,1435.924 1870.085,1401.727 1804.593 C 1387.761 1777.847,1380.000 1758.093,1380.000 1749.293 C 1380.000 1732.793,1389.048 1714.012,1398.852 1710.163 C 1402.783 1708.620,1459.100 1704.866,1524.000 1701.821 C 1670.751 1694.937,1710.352 1690.557,1760.480 1675.665 C 1868.678 1643.522,1951.636 1592.938,2030.198 1511.202 C 2096.225 1442.509,2140.750 1366.959,2171.172 1272.000 C 2193.397 1202.627,2197.649 1173.450,2197.404 1092.000 C 2197.245 1038.904,2195.166 1010.892,2188.798 976.000 C 2136.775 690.996,1965.128 464.058,1696.000 324.464 C 1552.255 249.905,1436.626 219.164,1258.000 208.021 C 1188.462 203.683,1170.535 203.692,1110.000 208.097 M1012.000 617.768 C 1035.643 629.975,1059.897 651.967,1075.300 675.167 L 1090.000 697.306 1090.000 750.167 L 1090.000 803.027 1074.336 825.770 C 1055.846 852.616,1033.206 873.027,1007.133 886.355 C 980.677 899.879,921.154 900.344,893.286 887.244 C 868.527 875.606,831.865 839.161,817.552 811.956 C 806.932 791.772,806.044 786.837,806.545 750.808 C 807.036 715.541,808.350 709.058,819.668 686.069 C 833.503 657.964,863.446 627.814,890.000 615.248 C 911.701 604.979,990.377 606.604,1012.000 617.768 M1512.000 617.768 C 1535.643 629.975,1559.897 651.967,1575.300 675.167 L 1590.000 697.306 1590.000 750.167 L 1590.000 803.027 1574.336 825.770 C 1555.846 852.616,1533.206 873.027,1507.133 886.355 C 1480.677 899.879,1421.154 900.344,1393.286 887.244 C 1368.527 875.606,1331.865 839.161,1317.552 811.956 C 1306.932 791.772,1306.044 786.837,1306.545 750.808 C 1307.036 715.541,1308.350 709.058,1319.668 686.069 C 1333.503 657.964,1363.446 627.814,1390.000 615.248 C 1411.701 604.979,1490.377 606.604,1512.000 617.768 M712.000 1017.768 C 735.643 1029.975,759.897 1051.967,775.300 1075.167 L 790.000 1097.306 790.000 1150.167 L 790.000 1203.027 774.336 1225.770 C 755.846 1252.616,733.206 1273.027,707.133 1286.355 C 680.677 1299.879,621.154 1300.344,593.286 1287.244 C 568.527 1275.606,531.865 1239.161,517.552 1211.956 C 506.932 1191.772,506.044 1186.837,506.545 1150.808 C 507.036 1115.541,508.350 1109.058,519.668 1086.069 C 533.503 1057.964,563.446 1027.814,590.000 1015.248 C 611.701 1004.979,690.377 1006.604,712.000 1017.768 M1812.000 1017.768 C 1835.643 1029.975,1859.897 1051.967,1875.300 1075.167 L 1890.000 1097.306 1890.000 1150.167 L 1890.000 1203.027 1874.336 1225.770 C 1855.846 1252.616,1833.206 1273.027,1807.133 1286.355 C 1780.677 1299.879,1721.154 1300.344,1693.286 1287.244 C 1668.527 1275.606,1631.865 1239.161,1617.552 1211.956 C 1606.932 1191.772,1606.044 1186.837,1606.545 1150.808 C 1607.036 1115.541,1608.350 1109.058,1619.668 1086.069 C 1633.503 1057.964,1663.446 1027.814,1690.000 1015.248 C 1711.701 1004.979,1790.377 1006.604,1812.000 1017.768 " fill="#1D1E23" stroke="none" fill-rule="evenodd"/></svg>