<svg viewBox="0 0 2400 2400" fill="none" xmlns="http://www.w3.org/2000/svg"><path d="M1090.000 208.137 C 1026.160 212.847,902.034 243.391,836.385 270.544 C 739.658 310.551,631.713 374.347,562.000 432.708 C 518.290 469.300,450.579 538.617,416.304 581.859 C 289.713 741.568,213.690 941.343,203.919 1139.972 C 196.042 1300.096,217.220 1430.720,273.962 1572.000 C 376.274 1826.743,583.575 2031.748,838.488 2130.272 C 955.931 2175.664,1064.749 2197.779,1170.000 2197.646 C 1271.341 2197.518,1319.325 2180.546,1374.588 2125.283 C 1425.200 2074.670,1450.675 2009.413,1446.915 1940.003 C 1444.238 1890.579,1433.969 1859.336,1403.896 1809.120 C 1390.523 1786.791,1378.588 1762.400,1377.374 1754.918 C 1374.526 1737.366,1388.332 1708.946,1401.049 1706.183 C 1405.972 1705.113,1468.672 1702.392,1540.382 1700.135 C 1685.012 1695.585,1717.415 1691.506,1783.003 1669.593 C 1992.096 1599.736,2140.341 1433.062,2188.798 1213.352 C 2200.499 1160.302,2201.384 1047.114,2190.604 982.489 C 2180.836 923.930,2159.599 847.872,2137.416 792.000 C 2024.443 507.465,1742.878 287.445,1408.216 222.192 C 1328.672 206.682,1191.717 200.633,1090.000 208.137 M1012.786 616.849 C 1040.462 629.618,1067.642 655.956,1082.755 684.650 C 1093.106 704.303,1094.000 709.498,1094.000 750.000 C 1094.000 790.636,1093.129 795.655,1082.607 815.642 C 1067.849 843.678,1038.075 872.440,1009.172 886.580 C 989.147 896.378,981.563 897.818,950.000 897.818 C 918.437 897.818,910.853 896.378,890.828 886.580 C 859.113 871.064,830.312 841.839,815.462 810.105 C 804.004 785.620,803.336 781.601,804.636 745.004 C 806.243 699.789,814.318 679.536,842.442 650.184 C 877.550 613.543,901.253 603.824,952.000 605.261 C 983.108 606.141,994.133 608.243,1012.786 616.849 M1512.786 616.849 C 1540.462 629.618,1567.642 655.956,1582.755 684.650 C 1593.106 704.303,1594.000 709.498,1594.000 750.000 C 1594.000 790.636,1593.129 795.655,1582.607 815.642 C 1567.849 843.678,1538.075 872.440,1509.172 886.580 C 1489.147 896.378,1481.563 897.818,1450.000 897.818 C 1418.437 897.818,1410.853 896.378,1390.828 886.580 C 1359.113 871.064,1330.312 841.839,1315.462 810.105 C 1304.004 785.620,1303.336 781.601,1304.636 745.004 C 1306.243 699.789,1314.318 679.536,1342.442 650.184 C 1377.550 613.543,1401.253 603.824,1452.000 605.261 C 1483.108 606.141,1494.133 608.243,1512.786 616.849 M712.786 1016.849 C 740.462 1029.618,767.642 1055.956,782.755 1084.650 C 793.106 1104.303,794.000 1109.498,794.000 1150.000 C 794.000 1190.636,793.129 1195.655,782.607 1215.642 C 767.849 1243.678,738.075 1272.440,709.172 1286.580 C 689.147 1296.378,681.563 1297.818,650.000 1297.818 C 618.437 1297.818,610.853 1296.378,590.828 1286.580 C 559.113 1271.064,530.312 1241.839,515.462 1210.105 C 504.004 1185.620,503.336 1181.601,504.636 1145.004 C 506.243 1099.789,514.318 1079.536,542.442 1050.184 C 577.550 1013.543,601.253 1003.824,652.000 1005.261 C 683.108 1006.141,694.133 1008.243,712.786 1016.849 M1812.786 1016.849 C 1840.462 1029.618,1867.642 1055.956,1882.755 1084.650 C 1893.106 1104.303,1894.000 1109.498,1894.000 1150.000 C 1894.000 1190.636,1893.129 1195.655,1882.607 1215.642 C 1867.849 1243.678,1838.075 1272.440,1809.172 1286.580 C 1789.147 1296.378,1781.563 1297.818,1750.000 1297.818 C 1718.437 1297.818,1710.853 1296.378,1690.828 1286.580 C 1659.113 1271.064,1630.312 1241.839,1615.462 1210.105 C 1604.004 1185.620,1603.336 1181.601,1604.636 1145.004 C 1606.243 1099.789,1614.318 1079.536,1642.442 1050.184 C 1677.550 1013.543,1701.253 1003.824,1752.000 1005.261 C 1783.108 1006.141,1794.133 1008.243,1812.786 1016.849 " fill="#1D1E23" stroke="none" fill-rule="evenodd"/></svg>