<svg viewBox="0 0 2400 2400" fill="none" xmlns="http://www.w3.org/2000/svg"><path d="M1200 200C649 200 200 649 200 1200C200 1751 649 2200 1200 2200C1338 2200 1450 2088 1450 1950C1450 1889 1427 1830 1386 1783C1378 1773 1373 1762 1373 1750C1373 1722 1395 1700 1423 1700H1600C1931 1700 2200 1431 2200 1100C2200 604 1751 200 1200 200ZM1750 1300C1667 1300 1600 1233 1600 1150C1600 1067 1667 1000 1750 1000C1833 1000 1900 1067 1900 1150C1900 1233 1833 1300 1750 1300ZM1450 900C1367 900 1300 833 1300 750C1300 667 1367 600 1450 600C1533 600 1600 667 1600 750C1600 833 1533 900 1450 900ZM500 1150C500 1067 567 1000 650 1000C733 1000 800 1067 800 1150C800 1233 733 1300 650 1300C567 1300 500 1233 500 1150ZM1100 750C1100 833 1033 900 950 900C867 900 800 833 800 750C800 667 867 600 950 600C1033 600 1100 667 1100 750Z" fill="#1D1E23"/></svg>