<svg viewBox="0 0 2400 2400" fill="none" xmlns="http://www.w3.org/2000/svg"><path d="M1058.000 210.553 C 1004.573 218.835,906.784 243.903,857.739 261.890 C 796.915 284.197,703.305 331.682,650.000 367.268 C 586.767 409.482,545.506 443.145,494.585 494.066 C 337.511 651.140,242.775 841.702,209.261 1068.000 C 200.935 1124.216,199.840 1263.947,207.285 1320.000 C 250.079 1642.182,437.899 1919.723,718.164 2074.928 C 906.906 2179.448,1167.999 2228.066,1291.311 2181.651 C 1380.797 2147.969,1448.221 2051.481,1448.506 1956.697 C 1448.679 1898.773,1435.792 1858.047,1399.436 1801.635 C 1381.372 1773.605,1376.000 1761.794,1376.000 1750.107 C 1376.000 1733.532,1388.138 1710.376,1399.081 1706.074 C 1402.886 1704.578,1467.200 1701.827,1542.000 1699.960 C 1690.395 1696.256,1709.216 1693.901,1784.547 1669.611 C 1991.220 1602.971,2148.140 1424.265,2189.883 1208.000 C 2219.995 1051.992,2178.416 842.817,2086.128 686.036 C 2012.456 560.879,1916.817 460.573,1792.859 378.454 C 1665.971 294.393,1537.273 243.707,1380.000 215.855 C 1312.869 203.966,1120.889 200.805,1058.000 210.553 M1000.000 610.948 C 1036.989 623.373,1067.584 651.718,1086.136 690.752 C 1094.500 708.349,1096.000 717.357,1096.000 750.000 C 1096.000 782.941,1094.531 791.601,1085.819 810.017 C 1070.647 842.088,1043.855 869.601,1013.008 884.787 C 988.987 896.612,983.156 897.818,950.000 897.818 C 916.844 897.818,911.013 896.612,886.992 884.787 C 856.761 869.904,830.180 842.965,814.319 811.137 C 805.273 792.985,804.000 785.440,804.000 750.000 C 804.000 714.107,805.213 707.127,814.811 687.785 C 834.842 647.422,878.058 612.131,917.375 604.029 C 938.055 599.768,976.236 602.965,1000.000 610.948 M1500.000 610.948 C 1536.989 623.373,1567.584 651.718,1586.136 690.752 C 1594.500 708.349,1596.000 717.357,1596.000 750.000 C 1596.000 782.941,1594.531 791.601,1585.819 810.017 C 1570.647 842.088,1543.855 869.601,1513.008 884.787 C 1488.987 896.612,1483.156 897.818,1450.000 897.818 C 1416.844 897.818,1411.013 896.612,1386.992 884.787 C 1356.761 869.904,1330.180 842.965,1314.319 811.137 C 1305.273 792.985,1304.000 785.440,1304.000 750.000 C 1304.000 714.107,1305.213 707.127,1314.811 687.785 C 1334.842 647.422,1378.058 612.131,1417.375 604.029 C 1438.055 599.768,1476.236 602.965,1500.000 610.948 M700.000 1010.948 C 736.989 1023.373,767.584 1051.718,786.136 1090.752 C 794.500 1108.349,796.000 1117.357,796.000 1150.000 C 796.000 1182.941,794.531 1191.601,785.819 1210.017 C 770.647 1242.088,743.855 1269.601,713.008 1284.787 C 688.987 1296.612,683.156 1297.818,650.000 1297.818 C 616.844 1297.818,611.013 1296.612,586.992 1284.787 C 556.761 1269.904,530.180 1242.965,514.319 1211.137 C 505.273 1192.985,504.000 1185.440,504.000 1150.000 C 504.000 1114.107,505.213 1107.127,514.811 1087.785 C 534.842 1047.422,578.058 1012.131,617.375 1004.029 C 638.055 999.768,676.236 1002.965,700.000 1010.948 M1800.000 1010.948 C 1836.989 1023.373,1867.584 1051.718,1886.136 1090.752 C 1894.500 1108.349,1896.000 1117.357,1896.000 1150.000 C 1896.000 1182.941,1894.531 1191.601,1885.819 1210.017 C 1870.647 1242.088,1843.855 1269.601,1813.008 1284.787 C 1788.987 1296.612,1783.156 1297.818,1750.000 1297.818 C 1716.844 1297.818,1711.013 1296.612,1686.992 1284.787 C 1656.761 1269.904,1630.180 1242.965,1614.319 1211.137 C 1605.273 1192.985,1604.000 1185.440,1604.000 1150.000 C 1604.000 1114.107,1605.213 1107.127,1614.811 1087.785 C 1634.842 1047.422,1678.058 1012.131,1717.375 1004.029 C 1738.055 999.768,1776.236 1002.965,1800.000 1010.948 " fill="#1D1E23" stroke="none" fill-rule="evenodd"/></svg>