<svg viewBox="0 0 2400 2400" fill="none" xmlns="http://www.w3.org/2000/svg"><path d="M898.091 414.432 C 617.703 491.314,508.820 824.353,690.027 1050.834 C 768.532 1148.953,893.123 1205.434,1016.000 1198.608 C 1280.680 1183.905,1459.037 931.504,1381.056 682.000 C 1347.564 574.843,1276.115 491.760,1175.791 443.314 C 1108.223 410.685,1075.984 403.920,990.000 404.323 C 943.444 404.542,927.944 406.247,898.091 414.432 M1537.798 1205.695 C 1434.549 1225.000,1350.378 1273.866,1289.525 1349.832 C 1161.483 1509.673,1173.578 1738.158,1317.710 1882.290 C 1438.046 2002.626,1620.339 2032.686,1773.906 1957.516 L 1801.811 1943.857 1929.924 2071.924 L 2058.037 2199.991 2129.014 2129.014 L 2199.991 2058.037 2071.421 1929.421 L 1942.850 1800.804 1951.054 1787.402 C 1963.550 1766.987,1978.560 1727.558,1988.567 1688.863 C 1999.295 1647.378,2001.434 1560.600,1992.631 1524.000 C 1967.950 1421.389,1923.670 1348.303,1850.918 1290.094 C 1819.047 1264.594,1763.230 1234.185,1722.698 1220.240 C 1677.618 1204.730,1582.836 1197.274,1537.798 1205.695 M948.000 1402.772 C 906.474 1405.211,817.957 1416.666,764.463 1426.523 C 497.096 1475.792,284.627 1586.720,224.252 1708.564 C 202.625 1752.208,200.179 1771.281,200.080 1897.000 L 200.000 2000.000 676.234 2000.000 L 1152.468 2000.000 1134.786 1977.000 C 1071.860 1895.149,1025.503 1794.505,1010.183 1706.476 C 997.577 1634.046,1004.078 1507.498,1024.059 1436.355 C 1030.745 1412.552,1031.362 1406.061,1027.193 1403.416 C 1022.205 1400.252,994.711 1400.029,948.000 1402.772 M1624.105 1404.228 C 1692.729 1412.789,1747.761 1452.026,1778.568 1514.361 L 1794.000 1545.585 1794.000 1600.000 L 1794.000 1654.415 1778.908 1684.952 C 1736.684 1770.386,1641.567 1816.418,1553.840 1793.873 C 1495.141 1778.788,1448.737 1740.887,1421.504 1685.786 L 1406.000 1654.415 1406.000 1600.000 L 1406.000 1545.585 1421.432 1514.361 C 1452.175 1452.155,1519.390 1405.084,1584.105 1400.438 C 1587.463 1400.197,1605.463 1401.903,1624.105 1404.228 " fill="#1D1E23" stroke="none" fill-rule="evenodd"/></svg>