<svg viewBox="0 0 2400 2400" fill="none" xmlns="http://www.w3.org/2000/svg"><path d="M940.000 408.656 C 890.001 412.562,829.116 436.231,774.000 473.188 C 741.427 495.029,688.054 549.484,666.379 582.990 C 645.506 615.256,622.416 669.161,612.213 709.442 C 560.566 913.347,694.258 1133.543,901.524 1185.950 C 991.699 1208.750,1080.539 1200.088,1166.475 1160.116 C 1212.434 1138.739,1244.814 1115.666,1284.188 1076.236 C 1337.490 1022.858,1372.589 958.521,1390.692 881.014 C 1401.018 836.803,1400.056 753.297,1388.735 711.253 C 1366.777 629.699,1337.128 577.128,1282.000 522.000 C 1238.185 478.185,1200.343 453.223,1141.151 429.091 C 1093.232 409.554,1021.625 402.280,940.000 408.656 M1534.000 1208.018 C 1462.456 1216.623,1362.960 1270.626,1308.142 1330.606 C 1209.296 1438.760,1177.013 1587.504,1222.601 1724.740 C 1243.802 1788.561,1269.458 1829.459,1320.000 1880.000 C 1370.606 1930.607,1411.047 1955.934,1476.811 1978.208 C 1519.726 1992.743,1525.055 1993.597,1582.711 1995.178 C 1665.125 1997.436,1716.809 1986.278,1784.947 1951.517 L 1801.186 1943.232 1929.612 2071.612 L 2058.037 2199.991 2129.014 2129.014 L 2199.991 2058.037 2071.528 1929.528 L 1943.065 1801.020 1953.271 1783.510 C 1973.970 1747.999,1992.845 1678.062,1997.940 1618.000 C 2004.594 1539.579,1974.440 1439.554,1921.876 1365.686 C 1871.245 1294.533,1761.624 1223.490,1684.960 1212.145 C 1651.158 1207.143,1561.625 1204.695,1534.000 1208.018 M956.000 1402.554 C 897.528 1407.609,818.974 1417.782,772.000 1426.384 C 478.602 1480.109,254.426 1605.537,211.479 1740.000 C 204.117 1763.050,202.931 1779.274,201.031 1883.000 L 198.887 2000.000 675.191 2000.000 L 1151.495 2000.000 1121.993 1957.859 C 1070.869 1884.833,1028.509 1792.396,1014.520 1723.337 C 1000.468 1653.963,1002.825 1551.633,1020.701 1455.029 C 1025.481 1429.196,1028.110 1406.777,1026.543 1405.209 C 1023.206 1401.873,981.881 1400.317,956.000 1402.554 M1640.803 1408.407 C 1694.273 1419.523,1743.830 1457.043,1775.297 1510.233 L 1792.000 1538.465 1792.000 1600.000 L 1792.000 1661.535 1775.699 1688.973 C 1729.179 1767.279,1648.142 1809.885,1571.706 1796.225 C 1511.600 1785.483,1458.803 1747.240,1424.735 1689.767 L 1408.000 1661.535 1408.010 1599.767 L 1408.021 1538.000 1422.427 1514.000 C 1451.846 1464.992,1487.387 1432.761,1534.000 1412.818 C 1556.941 1403.003,1605.219 1401.009,1640.803 1408.407 " fill="#1D1E23" stroke="none" fill-rule="evenodd"/></svg>