<svg viewBox="0 0 2400 2400" fill="none" xmlns="http://www.w3.org/2000/svg"><path d="M943.256 404.030 C 884.263 413.415,822.127 437.959,773.129 471.233 C 695.490 523.957,639.422 603.687,613.020 698.911 C 603.383 733.667,602.182 744.873,602.182 800.000 C 602.182 855.349,603.362 866.260,613.184 901.706 C 647.518 1025.614,735.676 1125.213,852.000 1171.512 C 1033.371 1243.702,1246.205 1170.991,1344.371 1003.302 C 1450.291 822.368,1398.484 587.773,1226.871 471.233 C 1191.681 447.336,1134.311 421.411,1095.826 412.015 C 1057.150 402.572,978.349 398.448,943.256 404.030 M1554.000 1202.416 C 1384.744 1227.496,1257.645 1337.837,1213.184 1498.294 C 1203.362 1533.740,1202.182 1544.651,1202.182 1600.000 C 1202.182 1655.127,1203.383 1666.333,1213.020 1701.089 C 1252.614 1843.892,1356.307 1947.568,1498.911 1986.932 C 1532.881 1996.309,1545.595 1997.741,1596.000 1997.861 C 1640.002 1997.967,1661.241 1996.175,1684.000 1990.437 C 1719.022 1981.609,1768.271 1962.872,1787.402 1951.099 L 1800.804 1942.850 1929.421 2071.421 L 2058.037 2199.991 2129.014 2129.014 L 2199.991 2058.037 2071.621 1929.621 L 1943.251 1801.206 1955.402 1779.603 C 1962.084 1767.721,1972.925 1741.800,1979.491 1722.000 C 2034.627 1555.748,1971.565 1369.493,1826.871 1271.233 C 1791.681 1247.336,1734.311 1221.411,1695.826 1212.015 C 1662.970 1203.992,1580.862 1198.435,1554.000 1202.416 M920.000 1404.616 C 852.933 1409.703,753.106 1426.102,681.018 1443.875 C 501.680 1488.090,367.788 1550.841,284.967 1629.494 C 249.567 1663.112,227.602 1694.061,212.857 1731.100 C 202.205 1757.859,202.142 1758.634,200.810 1879.000 L 199.472 2000.000 676.249 2000.000 L 1153.025 2000.000 1142.445 1987.000 C 1073.883 1902.759,1027.294 1804.989,1009.499 1708.000 C 995.249 1630.337,1002.035 1505.457,1024.389 1434.000 C 1028.518 1420.800,1031.920 1407.750,1031.948 1405.000 C 1032.008 1399.191,993.281 1399.058,920.000 1404.616 M1666.174 1412.372 C 1724.845 1434.235,1765.108 1474.388,1788.135 1534.000 C 1795.716 1553.628,1797.405 1565.651,1797.405 1600.000 C 1797.405 1634.349,1795.716 1646.372,1788.135 1666.000 C 1768.358 1717.198,1731.511 1758.402,1686.562 1779.584 C 1577.653 1830.908,1456.161 1780.672,1411.865 1666.000 C 1398.535 1631.489,1398.562 1568.375,1411.923 1534.000 C 1429.004 1490.053,1453.929 1458.066,1489.285 1434.722 C 1508.937 1421.747,1546.198 1406.455,1568.000 1402.417 C 1590.086 1398.327,1642.837 1403.676,1666.174 1412.372 " fill="#1D1E23" stroke="none" fill-rule="evenodd"/></svg>