<svg viewBox="0 0 2400 2400" fill="none" xmlns="http://www.w3.org/2000/svg"><path d="M929.447 407.725 C 880.332 415.593,812.250 444.782,766.440 477.612 C 735.379 499.871,690.512 546.469,667.853 580.000 C 645.576 612.966,623.602 663.815,611.674 710.000 C 598.790 759.886,598.595 838.257,611.227 889.228 C 629.812 964.213,666.448 1029.216,720.630 1083.338 C 849.966 1212.532,1043.441 1235.331,1205.612 1140.488 C 1240.899 1119.851,1291.336 1074.652,1318.566 1039.265 C 1373.870 967.393,1404.273 869.192,1398.739 780.304 C 1391.018 656.260,1325.570 538.865,1227.962 473.975 C 1191.501 449.736,1131.825 421.797,1099.865 414.004 C 1070.009 406.723,960.812 402.700,929.447 407.725 M1522.000 1208.476 C 1431.016 1232.250,1368.241 1267.518,1311.896 1326.515 C 1260.860 1379.954,1225.536 1446.124,1209.675 1518.000 C 1198.587 1568.245,1200.103 1647.376,1213.093 1696.476 C 1251.656 1842.228,1357.803 1948.458,1503.177 1986.786 C 1535.966 1995.431,1550.704 1997.022,1598.000 1997.022 C 1664.088 1997.022,1708.848 1987.234,1766.665 1960.140 L 1801.684 1943.730 1929.860 2071.861 L 2058.037 2199.991 2129.014 2129.014 L 2199.991 2058.037 2071.528 1929.528 L 1943.065 1801.020 1953.317 1783.510 C 1972.462 1750.811,1991.300 1685.787,1996.054 1635.998 C 2002.596 1567.479,1995.584 1518.935,1969.568 1452.632 C 1939.680 1376.461,1886.804 1311.344,1820.212 1268.699 C 1787.549 1247.782,1729.050 1221.136,1699.865 1213.882 C 1668.161 1206.002,1545.710 1202.280,1522.000 1208.476 M932.577 1404.516 C 609.323 1431.073,316.181 1552.606,232.678 1694.685 C 204.331 1742.917,202.874 1751.570,200.973 1883.000 L 199.280 2000.000 675.669 2000.000 L 1152.057 2000.000 1130.683 1971.000 C 1072.943 1892.658,1031.439 1804.411,1013.575 1722.000 C 999.222 1655.789,1002.793 1531.560,1021.429 1448.795 C 1030.233 1409.693,1030.345 1407.396,1023.616 1403.795 C 1015.522 1399.462,991.804 1399.651,932.577 1404.516 M1651.067 1410.460 C 1702.208 1423.747,1744.913 1457.473,1774.471 1507.916 L 1792.000 1537.833 1792.000 1600.000 L 1792.000 1662.167 1774.337 1692.341 C 1691.218 1834.333,1508.822 1834.401,1425.738 1692.470 L 1408.000 1662.167 1408.000 1600.000 L 1408.000 1537.833 1425.663 1507.659 C 1454.748 1457.972,1502.086 1420.072,1552.419 1406.175 C 1576.460 1399.536,1615.559 1401.235,1651.067 1410.460 " fill="#1D1E23" stroke="none" fill-rule="evenodd"/></svg>