<svg viewBox="0 0 2400 2400" fill="none" xmlns="http://www.w3.org/2000/svg"><path d="M907.497 414.110 C 800.986 437.956,695.236 521.028,647.948 618.000 C 599.152 718.066,589.435 797.408,614.059 894.731 C 662.293 1085.368,848.595 1217.981,1037.349 1196.037 C 1200.006 1177.127,1332.578 1067.958,1381.601 912.552 C 1415.470 805.189,1395.704 675.910,1330.757 580.000 C 1313.041 553.839,1257.800 497.885,1230.000 477.942 C 1196.497 453.909,1145.103 429.048,1108.754 419.293 C 1067.518 408.226,947.576 405.138,907.497 414.110 M1502.000 1214.110 C 1464.974 1223.272,1386.317 1264.267,1349.006 1293.851 C 1292.370 1338.756,1245.371 1406.793,1222.420 1477.099 C 1207.899 1521.585,1203.242 1552.219,1203.435 1602.000 C 1203.685 1666.268,1217.563 1724.276,1246.408 1781.614 C 1263.516 1815.620,1276.744 1833.141,1315.660 1873.341 C 1371.134 1930.644,1410.850 1955.878,1484.000 1980.296 C 1515.981 1990.971,1529.919 1993.302,1572.000 1995.012 C 1652.704 1998.290,1716.168 1985.979,1777.611 1955.124 L 1801.222 1943.268 1929.629 2071.630 L 2058.037 2199.991 2129.014 2129.014 L 2199.991 2058.037 2071.954 1929.954 L 1943.917 1801.871 1957.776 1773.936 C 1983.480 1722.127,2002.956 1625.629,1998.128 1574.000 C 1988.381 1469.747,1938.271 1367.427,1867.681 1307.636 C 1819.949 1267.207,1755.081 1230.262,1709.823 1217.731 C 1675.596 1208.253,1535.532 1205.813,1502.000 1214.110 M868.000 1412.335 C 701.375 1434.102,566.438 1471.407,448.180 1528.401 C 317.707 1591.281,238.129 1662.562,211.950 1740.000 C 203.945 1763.681,202.967 1776.435,200.983 1883.000 L 198.805 2000.000 674.825 2000.000 L 1150.845 2000.000 1117.473 1949.554 C 1083.036 1897.498,1047.074 1827.991,1032.850 1786.000 C 1010.590 1720.283,1009.995 1715.728,1010.127 1612.000 C 1010.233 1529.191,1011.628 1506.081,1019.126 1462.913 C 1024.007 1434.815,1028.000 1410.065,1028.000 1407.913 C 1028.000 1401.436,930.879 1404.120,868.000 1412.335 M1636.437 1408.083 C 1688.313 1417.921,1737.672 1453.937,1772.703 1507.513 L 1792.000 1537.026 1792.000 1600.000 L 1792.000 1662.974 1772.686 1692.487 C 1714.279 1781.739,1627.558 1817.436,1541.265 1787.747 C 1497.357 1772.640,1458.895 1740.468,1427.383 1692.487 L 1408.000 1662.974 1408.000 1600.000 L 1408.000 1537.026 1427.397 1507.513 C 1460.934 1456.488,1508.435 1418.371,1550.984 1408.343 C 1572.045 1403.379,1611.009 1403.261,1636.437 1408.083 " fill="#1D1E23" stroke="none" fill-rule="evenodd"/></svg>