<svg viewBox="0 0 2400 2400" fill="none" xmlns="http://www.w3.org/2000/svg"><path d="M898.091 414.432 C 617.703 491.314,508.820 824.353,690.027 1050.834 C 768.532 1148.953,893.123 1205.434,1016.000 1198.608 C 1280.680 1183.905,1459.037 931.504,1381.056 682.000 C 1347.564 574.843,1276.115 491.760,1175.791 443.314 C 1108.223 410.685,1075.984 403.920,990.000 404.323 C 943.444 404.542,927.944 406.247,898.091 414.432 M1554.713 1204.175 C 1406.731 1220.716,1274.216 1324.475,1224.067 1463.071 C 1181.304 1581.251,1197.205 1713.668,1266.819 1819.088 C 1305.778 1878.086,1381.183 1940.759,1445.342 1967.469 C 1501.834 1990.986,1535.356 1997.517,1600.000 1997.600 C 1651.500 1997.666,1662.483 1996.418,1698.000 1986.459 C 1720.000 1980.291,1752.347 1968.395,1769.882 1960.023 L 1801.765 1944.802 1903.164 2044.444 C 1958.933 2099.247,2010.286 2147.155,2017.281 2150.908 C 2036.169 2161.040,2077.496 2160.073,2098.538 2149.007 C 2133.231 2130.761,2151.644 2104.295,2154.941 2067.935 C 2158.879 2024.509,2155.524 2019.726,2029.891 1889.658 L 1944.561 1801.317 1960.409 1767.062 C 1991.118 1700.682,2004.937 1619.759,1996.239 1557.228 C 1983.547 1465.973,1953.122 1399.641,1893.323 1332.851 C 1809.009 1238.679,1681.050 1190.053,1554.713 1204.175 M948.000 1402.772 C 906.474 1405.211,817.957 1416.666,764.463 1426.523 C 497.021 1475.806,284.630 1586.715,224.214 1708.639 C 203.295 1750.856,198.723 1781.250,200.846 1864.000 C 201.995 1908.768,204.186 1929.979,208.729 1940.317 C 217.912 1961.213,243.614 1986.330,262.000 1992.377 C 274.723 1996.561,367.567 1997.917,715.373 1999.001 L 1152.747 2000.363 1134.925 1977.181 C 1071.853 1895.141,1025.518 1794.587,1010.183 1706.476 C 997.577 1634.046,1004.078 1507.498,1024.059 1436.355 C 1030.745 1412.552,1031.362 1406.061,1027.193 1403.416 C 1022.205 1400.252,994.711 1400.029,948.000 1402.772 M1624.105 1404.228 C 1692.729 1412.789,1747.761 1452.026,1778.568 1514.361 L 1794.000 1545.585 1794.000 1600.000 L 1794.000 1654.415 1778.908 1684.952 C 1736.684 1770.386,1641.567 1816.418,1553.840 1793.873 C 1495.141 1778.788,1448.737 1740.887,1421.504 1685.786 L 1406.000 1654.415 1406.000 1600.000 L 1406.000 1545.585 1421.432 1514.361 C 1452.175 1452.155,1519.390 1405.084,1584.105 1400.438 C 1587.463 1400.197,1605.463 1401.903,1624.105 1404.228 " fill="#1D1E23" stroke="none" fill-rule="evenodd"/></svg>