<svg viewBox="0 0 2400 2400" fill="none" xmlns="http://www.w3.org/2000/svg"><path d="M943.256 404.030 C 884.263 413.415,822.127 437.959,773.129 471.233 C 695.490 523.957,639.422 603.687,613.020 698.911 C 603.383 733.667,602.182 744.873,602.182 800.000 C 602.182 855.349,603.362 866.260,613.184 901.706 C 647.518 1025.614,735.676 1125.213,852.000 1171.512 C 1033.371 1243.702,1246.205 1170.991,1344.371 1003.302 C 1450.291 822.368,1398.484 587.773,1226.871 471.233 C 1191.681 447.336,1134.311 421.411,1095.826 412.015 C 1057.150 402.572,978.349 398.448,943.256 404.030 M1548.000 1204.282 C 1507.522 1209.369,1473.202 1219.473,1433.510 1237.988 C 1384.494 1260.853,1352.013 1283.379,1315.696 1319.696 C 1265.595 1369.797,1234.640 1422.739,1213.780 1494.000 C 1198.733 1545.403,1195.943 1622.369,1207.166 1676.474 C 1256.985 1916.647,1506.218 2058.638,1732.812 1975.941 C 1750.320 1969.551,1772.962 1959.675,1783.126 1953.994 L 1801.607 1943.665 1901.804 2043.442 C 1956.912 2098.319,2007.947 2146.191,2015.215 2149.823 C 2077.079 2180.741,2155.822 2131.866,2155.961 2062.464 C 2156.051 2017.323,2159.963 2022.353,1989.088 1847.911 L 1943.942 1801.821 1957.696 1773.911 C 2000.060 1687.946,2010.037 1594.758,1986.593 1504.000 C 1968.408 1433.599,1937.456 1378.370,1886.005 1324.517 C 1797.163 1231.527,1675.519 1188.256,1548.000 1204.282 M920.000 1404.616 C 852.933 1409.703,753.106 1426.102,681.018 1443.875 C 501.680 1488.090,367.788 1550.841,284.967 1629.494 C 249.442 1663.231,227.487 1694.225,212.993 1731.100 C 203.138 1756.173,202.313 1763.221,200.844 1834.866 C 198.979 1925.838,202.620 1942.830,229.804 1970.014 C 261.652 2001.863,231.245 2000.000,719.225 2000.000 L 1153.025 2000.000 1142.445 1987.000 C 1073.883 1902.759,1027.294 1804.989,1009.499 1708.000 C 995.249 1630.337,1002.035 1505.457,1024.389 1434.000 C 1028.518 1420.800,1031.920 1407.750,1031.948 1405.000 C 1032.008 1399.191,993.281 1399.058,920.000 1404.616 M1666.174 1412.372 C 1724.845 1434.235,1765.108 1474.388,1788.135 1534.000 C 1795.716 1553.628,1797.405 1565.651,1797.405 1600.000 C 1797.405 1634.349,1795.716 1646.372,1788.135 1666.000 C 1768.358 1717.198,1731.511 1758.402,1686.562 1779.584 C 1577.653 1830.908,1456.161 1780.672,1411.865 1666.000 C 1398.535 1631.489,1398.562 1568.375,1411.923 1534.000 C 1429.004 1490.053,1453.929 1458.066,1489.285 1434.722 C 1508.937 1421.747,1546.198 1406.455,1568.000 1402.417 C 1590.086 1398.327,1642.837 1403.676,1666.174 1412.372 " fill="#1D1E23" stroke="none" fill-rule="evenodd"/></svg>