<svg viewBox="0 0 2400 2400" fill="none" xmlns="http://www.w3.org/2000/svg"><path d="M940.000 408.656 C 890.001 412.562,829.116 436.231,774.000 473.188 C 741.427 495.029,688.054 549.484,666.379 582.990 C 645.506 615.256,622.416 669.161,612.213 709.442 C 560.566 913.347,694.258 1133.543,901.524 1185.950 C 991.699 1208.750,1080.539 1200.088,1166.475 1160.116 C 1212.434 1138.739,1244.814 1115.666,1284.188 1076.236 C 1337.490 1022.858,1372.589 958.521,1390.692 881.014 C 1401.018 836.803,1400.056 753.297,1388.735 711.253 C 1366.777 629.699,1337.128 577.128,1282.000 522.000 C 1238.185 478.185,1200.343 453.223,1141.151 429.091 C 1093.232 409.554,1021.625 402.280,940.000 408.656 M1535.969 1208.101 C 1506.515 1211.552,1457.650 1226.988,1426.771 1242.596 C 1232.141 1340.969,1150.535 1558.216,1233.917 1756.000 C 1269.734 1840.958,1350.319 1921.804,1441.090 1963.846 C 1491.153 1987.033,1517.662 1992.618,1588.533 1994.910 C 1646.253 1996.776,1654.103 1996.149,1690.533 1986.760 C 1712.240 1981.165,1745.245 1970.155,1763.879 1962.294 C 1782.512 1954.432,1799.338 1948.000,1801.271 1948.000 C 1803.204 1948.000,1843.758 1986.023,1891.393 2032.495 C 2013.799 2151.916,2015.340 2153.152,2044.442 2155.257 C 2057.521 2156.204,2076.081 2154.777,2085.686 2152.088 C 2122.339 2141.826,2151.178 2105.433,2154.863 2064.791 C 2158.399 2025.802,2154.789 2020.826,2023.704 1884.000 L 1945.145 1802.000 1960.847 1762.827 C 1988.081 1694.883,1997.073 1653.342,1996.958 1596.000 C 1996.883 1558.510,1994.806 1538.307,1988.657 1515.253 C 1968.240 1438.699,1937.660 1383.019,1886.508 1329.261 C 1816.996 1256.206,1736.981 1216.227,1644.000 1208.093 C 1592.884 1203.621,1574.196 1203.622,1535.969 1208.101 M956.000 1402.554 C 751.589 1420.224,581.009 1462.466,441.864 1529.873 C 316.179 1590.761,235.005 1665.332,210.953 1742.000 C 203.126 1766.952,202.189 1778.534,202.346 1848.387 C 202.520 1926.024,202.624 1926.950,213.233 1945.052 C 225.774 1966.451,251.893 1990.034,267.226 1993.801 C 273.152 1995.256,474.698 1997.478,715.107 1998.737 L 1152.214 2001.026 1122.353 1958.372 C 1070.876 1884.842,1028.546 1792.578,1014.520 1723.337 C 1000.468 1653.963,1002.825 1551.633,1020.701 1455.029 C 1025.481 1429.196,1028.110 1406.777,1026.543 1405.209 C 1023.206 1401.873,981.881 1400.317,956.000 1402.554 M1640.803 1408.407 C 1694.273 1419.523,1743.830 1457.043,1775.297 1510.233 L 1792.000 1538.465 1792.000 1600.000 L 1792.000 1661.535 1775.699 1688.973 C 1729.179 1767.279,1648.142 1809.885,1571.706 1796.225 C 1511.600 1785.483,1458.803 1747.240,1424.735 1689.767 L 1408.000 1661.535 1408.010 1599.767 L 1408.021 1538.000 1422.427 1514.000 C 1451.846 1464.992,1487.387 1432.761,1534.000 1412.818 C 1556.941 1403.003,1605.219 1401.009,1640.803 1408.407 " fill="#1D1E23" stroke="none" fill-rule="evenodd"/></svg>