<svg viewBox="0 0 2400 2400" fill="none" xmlns="http://www.w3.org/2000/svg"><path d="M302.521 309.000 C 296.366 331.966,302.845 523.932,312.342 600.000 C 351.806 916.100,476.635 1214.281,671.528 1458.000 C 716.478 1514.210,830.385 1631.697,896.000 1689.525 C 1156.456 1919.071,1508.836 2064.946,1877.218 2095.721 C 1931.976 2100.296,2076.068 2101.480,2091.000 2097.479 L 2100.000 2095.067 2100.000 1821.533 C 2100.000 1671.090,2099.550 1547.958,2099.000 1547.908 C 2098.450 1547.857,1980.100 1533.634,1836.000 1516.301 L 1574.000 1484.788 1447.520 1610.851 L 1321.040 1736.914 1283.520 1717.540 C 1167.672 1657.721,989.586 1516.329,891.900 1406.613 C 812.855 1317.832,725.411 1195.799,681.568 1113.083 L 662.000 1076.166 789.207 948.853 L 916.413 821.540 890.190 599.770 C 875.768 477.797,861.920 361.635,859.418 341.633 L 854.868 305.267 732.434 302.640 C 665.095 301.196,541.360 300.011,457.467 300.007 L 304.933 300.000 302.521 309.000 M1200.000 399.061 L 1200.000 499.068 1227.000 501.786 C 1281.015 507.223,1338.875 516.719,1377.964 526.564 C 1562.313 572.990,1722.578 700.476,1817.250 876.000 C 1861.081 957.265,1885.524 1046.929,1898.214 1173.000 L 1900.932 1200.000 2001.078 1200.000 L 2101.224 1200.000 2098.697 1155.000 C 2088.625 975.616,2020.616 793.540,1910.817 652.000 C 1789.626 495.775,1611.544 379.492,1418.000 330.204 C 1374.567 319.143,1290.648 306.107,1235.000 301.777 L 1200.000 299.054 1200.000 399.061 M1200.000 799.304 L 1200.000 898.607 1239.000 905.441 C 1376.542 929.540,1470.460 1023.458,1494.559 1161.000 L 1501.393 1200.000 1601.212 1200.000 L 1701.032 1200.000 1698.146 1163.000 C 1691.853 1082.301,1658.755 990.179,1611.259 921.167 C 1547.656 828.751,1438.548 750.392,1331.852 720.505 C 1301.332 711.956,1231.180 700.067,1211.000 700.024 L 1200.000 700.000 1200.000 799.304 " fill="#1D1E23" stroke="none" fill-rule="evenodd"/></svg>