<svg viewBox="0 0 2400 2400" fill="none" xmlns="http://www.w3.org/2000/svg"><path d="M301.622 314.608 C 297.241 337.962,302.916 524.905,309.799 584.000 C 350.648 934.664,487.104 1248.044,713.008 1510.000 C 766.780 1572.353,872.622 1674.579,936.000 1725.372 C 994.004 1771.859,1082.602 1833.047,1144.000 1869.021 C 1363.439 1997.597,1616.709 2075.681,1879.800 2095.871 C 1938.086 2100.344,2076.397 2101.392,2091.027 2097.472 L 2100.055 2095.053 2099.027 1820.555 L 2098.000 1546.058 1836.000 1515.520 L 1574.000 1484.982 1447.611 1610.857 L 1321.222 1736.732 1296.123 1724.062 C 1157.987 1654.331,992.683 1523.396,874.373 1390.000 C 799.715 1305.822,710.323 1175.803,671.469 1094.879 L 662.288 1075.758 788.800 948.879 L 915.311 822.000 884.811 561.000 L 854.311 300.000 579.337 300.000 L 304.363 300.000 301.622 314.608 M1200.000 398.682 L 1200.000 498.503 1255.000 503.295 C 1350.539 511.619,1420.565 530.448,1503.091 570.003 C 1648.109 639.509,1760.552 752.015,1830.165 897.257 C 1869.545 979.423,1888.392 1049.593,1896.705 1145.000 L 1901.497 1200.000 2000.748 1200.000 L 2100.000 1200.000 2100.000 1178.695 C 2100.000 1166.977,2098.087 1137.727,2095.748 1113.695 C 2065.688 804.782,1876.610 531.140,1598.503 394.059 C 1485.342 338.282,1375.606 309.583,1245.000 301.609 L 1200.000 298.861 1200.000 398.682 M1200.000 799.483 L 1200.000 898.966 1227.275 901.654 C 1371.060 915.822,1484.178 1028.940,1498.346 1172.725 L 1501.034 1200.000 1601.107 1200.000 L 1701.181 1200.000 1698.580 1163.000 C 1682.067 928.093,1495.674 733.041,1260.105 704.156 C 1241.463 701.870,1220.313 700.000,1213.105 700.000 L 1200.000 700.000 1200.000 799.483 " fill="#1D1E23" stroke="none" fill-rule="evenodd"/></svg>