<svg viewBox="0 0 2400 2400" fill="none" xmlns="http://www.w3.org/2000/svg"><path d="M1730.000 121.610 C 1702.463 133.765,1703.680 125.934,1701.088 307.628 C 1699.798 398.033,1697.905 472.000,1696.882 472.000 C 1695.859 472.000,1662.612 440.357,1623.000 401.682 C 1548.010 328.466,1500.162 285.720,1482.796 276.426 C 1468.412 268.728,1453.360 273.699,1434.775 292.284 C 1405.664 321.395,1411.132 329.518,1565.865 487.046 L 1676.906 600.091 1601.453 678.063 C 1462.594 821.558,1424.373 863.123,1421.780 873.453 C 1416.171 895.801,1443.708 929.333,1467.670 929.333 C 1485.932 929.333,1503.322 915.051,1601.602 819.335 C 1651.496 770.742,1693.349 732.015,1694.608 733.274 C 1695.867 734.534,1697.866 808.677,1699.050 898.037 L 1701.204 1060.511 1713.958 1070.239 C 1734.422 1085.848,1748.869 1089.416,1764.745 1082.782 C 1783.005 1075.153,1872.321 991.211,1945.098 913.282 C 2003.403 850.850,2019.922 830.549,2019.974 821.262 C 2020.022 812.656,1974.224 759.121,1898.219 678.936 L 1823.276 599.873 1902.311 518.936 C 1945.781 474.421,1989.143 428.100,1998.671 416.000 C 2024.087 383.724,2022.980 377.728,1983.125 331.846 C 1937.282 279.070,1800.294 143.598,1777.508 128.505 C 1756.879 114.841,1748.191 113.580,1730.000 121.610 M1849.064 335.061 L 1896.002 382.123 1848.001 429.999 L 1800.000 477.875 1800.000 382.937 C 1800.000 330.722,1800.478 288.000,1801.063 288.000 C 1801.647 288.000,1823.247 309.178,1849.064 335.061 M484.000 307.770 C 465.300 309.514,441.900 314.178,432.000 318.134 C 372.517 341.901,325.781 394.059,310.132 454.140 C 286.381 545.323,341.846 829.232,423.800 1035.981 C 506.456 1244.501,635.142 1436.611,805.629 1606.000 C 1000.660 1799.774,1217.099 1931.393,1482.000 2017.307 C 1612.833 2059.739,1798.574 2096.087,1883.975 2095.970 C 1951.275 2095.877,2000.806 2075.602,2041.740 2031.389 C 2079.455 1990.654,2090.850 1964.600,2095.898 1907.570 C 2100.903 1851.020,2100.930 1767.370,2095.961 1712.000 C 2092.742 1676.130,2090.072 1665.704,2077.664 1640.568 C 2048.471 1581.426,1993.644 1542.181,1923.529 1530.239 C 1861.183 1519.619,1702.888 1503.483,1656.000 1502.966 C 1565.571 1501.971,1556.585 1507.706,1370.082 1685.449 L 1316.097 1736.899 1276.321 1714.378 C 1039.784 1580.449,827.628 1368.852,693.093 1132.685 L 662.722 1079.371 724.653 1016.685 C 893.938 845.337,902.403 831.998,901.501 738.000 C 900.987 684.317,885.616 549.759,871.850 478.422 C 858.816 410.876,834.774 373.038,782.358 337.574 C 744.114 311.699,722.066 307.563,614.000 305.993 C 561.200 305.226,502.700 306.025,484.000 307.770 M1856.684 860.261 C 1833.961 882.117,1813.084 900.000,1810.292 900.000 C 1804.433 900.000,1800.000 843.315,1800.000 768.398 L 1800.000 722.041 1849.000 771.281 L 1898.000 820.522 1856.684 860.261 " fill="#1D1E23" stroke="none" fill-rule="evenodd"/></svg>