<svg viewBox="0 0 2400 2400" fill="none" xmlns="http://www.w3.org/2000/svg"><path d="M484.000 307.770 C 465.300 309.514,441.900 314.178,432.000 318.134 C 372.517 341.901,325.781 394.059,310.132 454.140 C 286.381 545.323,341.846 829.232,423.800 1035.981 C 506.456 1244.501,635.142 1436.611,805.629 1606.000 C 1000.660 1799.774,1217.099 1931.393,1482.000 2017.307 C 1612.833 2059.739,1798.574 2096.087,1883.975 2095.970 C 1951.275 2095.877,2000.806 2075.602,2041.740 2031.389 C 2079.455 1990.654,2090.850 1964.600,2095.898 1907.570 C 2100.903 1851.020,2100.930 1767.370,2095.961 1712.000 C 2092.742 1676.130,2090.072 1665.704,2077.664 1640.568 C 2048.471 1581.426,1993.644 1542.181,1923.529 1530.239 C 1861.183 1519.619,1702.888 1503.483,1656.000 1502.966 C 1565.571 1501.971,1556.585 1507.706,1370.082 1685.449 L 1316.097 1736.899 1276.321 1714.378 C 1039.784 1580.449,827.628 1368.852,693.093 1132.685 L 662.722 1079.371 724.653 1016.685 C 893.938 845.337,902.403 831.998,901.501 738.000 C 900.987 684.317,885.616 549.759,871.850 478.422 C 858.816 410.876,834.774 373.038,782.358 337.574 C 744.114 311.699,722.066 307.563,614.000 305.993 C 561.200 305.226,502.700 306.025,484.000 307.770 M1244.813 324.578 C 1221.423 342.843,1204.000 377.931,1204.000 406.767 C 1204.000 433.299,1210.829 450.253,1230.112 471.597 C 1246.468 489.702,1255.820 493.158,1383.636 528.337 C 1431.720 541.572,1458.103 551.688,1503.636 574.350 C 1573.150 608.947,1607.848 631.672,1657.395 675.054 C 1725.989 735.112,1777.030 800.324,1817.803 880.000 C 1846.961 936.977,1860.231 971.919,1877.806 1038.000 C 1905.056 1140.455,1907.584 1147.513,1923.248 1164.903 C 1962.610 1208.604,2025.722 1207.403,2067.425 1162.160 C 2086.968 1140.959,2089.812 1128.150,2086.898 1074.458 C 2084.495 1030.179,2065.994 951.325,2044.090 892.000 C 1962.425 670.823,1809.088 501.773,1594.000 395.788 C 1488.552 343.829,1400.333 318.177,1311.594 313.673 L 1262.000 311.156 1244.813 324.578 M1273.055 719.938 C 1245.747 726.328,1213.839 761.592,1203.181 797.158 C 1199.481 809.505,1199.880 816.183,1205.328 833.158 C 1220.022 878.936,1224.249 883.076,1290.035 916.121 C 1403.406 973.067,1424.899 993.312,1475.430 1090.755 C 1512.316 1161.884,1525.002 1179.768,1545.466 1189.478 C 1561.800 1197.229,1598.379 1198.000,1621.536 1191.081 C 1652.719 1181.763,1688.000 1132.498,1688.000 1098.271 C 1688.000 1069.173,1649.293 978.869,1614.237 926.184 C 1589.596 889.150,1527.936 824.770,1491.224 797.744 C 1419.751 745.129,1318.979 709.191,1273.055 719.938 " fill="#1D1E23" stroke="none" fill-rule="evenodd"/></svg>