<svg viewBox="0 0 2400 2400" fill="none" xmlns="http://www.w3.org/2000/svg"><path d="M1724.970 121.976 C 1717.803 125.091,1709.738 132.671,1707.047 138.820 C 1703.531 146.856,1701.783 195.929,1700.832 313.337 L 1699.509 476.675 1602.121 380.605 C 1548.557 327.767,1497.599 280.897,1488.880 276.449 C 1475.989 269.873,1470.407 269.085,1459.007 272.232 C 1441.586 277.043,1425.326 292.859,1421.936 308.292 C 1416.001 335.314,1419.553 339.848,1550.779 472.726 L 1676.642 600.173 1656.585 623.087 C 1645.553 635.689,1587.809 694.587,1528.264 753.972 C 1422.517 859.434,1420.000 862.317,1420.015 877.972 C 1420.046 910.811,1447.929 935.905,1478.097 930.246 C 1490.876 927.848,1507.951 912.729,1593.958 827.652 L 1694.831 727.869 1697.387 754.935 C 1698.793 769.821,1699.956 844.364,1699.972 920.586 L 1700.000 1059.171 1714.073 1071.528 C 1730.777 1086.194,1742.904 1089.846,1762.618 1086.148 C 1774.502 1083.918,1789.323 1071.501,1843.112 1018.708 C 1936.037 927.502,2015.379 841.865,2018.509 829.396 C 2023.054 811.288,2009.487 793.573,1924.000 705.985 C 1878.900 659.777,1837.766 617.165,1832.592 611.293 L 1823.184 600.616 1916.854 504.918 C 1968.372 452.285,2012.860 403.581,2015.715 396.688 C 2023.412 378.106,2019.130 368.524,1986.612 331.554 C 1941.806 280.614,1782.088 124.596,1770.067 120.026 C 1755.670 114.552,1740.547 115.206,1724.970 121.976 M1849.064 335.061 L 1896.002 382.123 1848.001 429.999 L 1800.000 477.875 1800.000 382.937 C 1800.000 330.722,1800.478 288.000,1801.063 288.000 C 1801.647 288.000,1823.247 309.178,1849.064 335.061 M488.000 304.084 C 469.300 305.683,443.695 310.930,431.101 315.745 C 370.825 338.789,320.692 396.690,307.930 458.000 C 298.069 505.377,309.467 624.130,335.765 748.000 C 405.560 1076.758,562.199 1366.115,798.042 1601.958 C 1005.173 1809.090,1257.062 1957.085,1536.000 2035.539 C 1692.636 2079.594,1877.537 2105.363,1942.000 2092.121 C 2006.380 2078.895,2068.266 2023.346,2088.501 1960.618 C 2096.067 1937.166,2097.317 1922.055,2099.015 1833.584 C 2101.356 1711.584,2097.740 1677.543,2078.243 1638.000 C 2063.855 1608.821,2037.892 1579.298,2009.193 1559.485 C 1971.516 1533.472,1956.765 1530.348,1776.000 1510.089 C 1625.399 1493.211,1587.771 1496.428,1536.334 1530.581 C 1524.245 1538.607,1470.692 1588.328,1417.326 1641.072 C 1346.991 1710.587,1318.514 1736.286,1313.814 1734.482 C 1299.562 1729.013,1219.146 1681.137,1172.000 1650.051 C 1039.074 1562.408,918.075 1450.428,819.344 1323.680 C 768.135 1257.939,704.275 1160.013,675.704 1103.413 L 663.568 1079.371 757.402 984.019 C 809.011 931.576,858.606 878.907,867.612 866.979 C 899.348 824.945,908.325 778.506,900.343 697.663 C 892.228 615.473,876.043 487.694,870.195 459.647 C 857.274 397.676,822.083 353.312,762.381 323.729 C 733.689 309.511,724.188 306.910,689.688 303.829 C 643.767 299.729,537.387 299.863,488.000 304.084 M1852.883 864.999 C 1816.618 901.206,1807.058 908.827,1803.966 904.000 C 1801.811 900.637,1800.096 859.337,1800.061 810.020 L 1800.000 722.041 1848.979 771.020 L 1897.957 819.998 1852.883 864.999 " fill="#1D1E23" stroke="none" fill-rule="evenodd"/></svg>