<svg viewBox="0 0 2400 2400" fill="none" xmlns="http://www.w3.org/2000/svg"><path d="M301.609 314.678 C 297.529 336.427,302.869 508.225,309.732 576.000 C 345.969 933.845,506.350 1289.750,746.165 1544.493 C 807.009 1609.124,888.979 1686.570,939.856 1727.494 C 1202.429 1938.700,1527.591 2066.382,1878.000 2095.877 C 1930.204 2100.271,2076.475 2101.371,2091.000 2097.479 L 2100.000 2095.067 2100.000 1821.533 C 2100.000 1671.090,2099.550 1547.838,2099.000 1547.640 C 2098.450 1547.442,1980.100 1533.235,1836.000 1516.068 L 1574.000 1484.857 1447.616 1610.789 L 1321.232 1736.721 1292.957 1722.482 C 1167.196 1659.150,990.361 1519.045,884.123 1398.567 C 805.889 1309.846,725.348 1196.895,683.457 1117.155 L 662.000 1076.309 788.977 949.155 L 915.954 822.000 885.872 564.228 C 869.326 422.453,854.788 305.453,853.564 304.228 C 852.340 303.003,728.282 301.480,577.880 300.843 L 304.421 299.687 301.609 314.678 " fill="#1D1E23" stroke="none" fill-rule="evenodd"/></svg>