<svg viewBox="0 0 2400 2400" fill="none" xmlns="http://www.w3.org/2000/svg"><path d="M1725.586 123.630 C 1715.724 128.109,1707.953 134.859,1706.116 140.542 C 1704.435 145.744,1702.176 223.345,1701.097 312.989 L 1699.134 475.977 1612.567 391.325 C 1524.438 305.145,1485.225 272.000,1471.401 272.000 C 1457.514 272.000,1432.306 287.805,1425.644 300.689 C 1420.185 311.244,1419.891 315.862,1423.836 329.029 C 1429.279 347.198,1450.755 370.804,1585.712 506.958 L 1677.852 599.916 1653.649 624.958 C 1640.338 638.731,1584.571 696.010,1529.723 752.245 C 1474.875 808.480,1427.523 859.186,1424.495 864.926 C 1411.157 890.210,1437.472 929.818,1467.607 929.818 C 1487.538 929.818,1497.177 921.823,1607.405 813.863 L 1694.780 728.286 1697.374 779.143 C 1698.800 807.114,1699.975 881.590,1699.984 944.644 L 1700.000 1059.289 1712.180 1069.538 C 1718.879 1075.175,1731.220 1081.842,1739.605 1084.354 C 1764.532 1091.823,1777.767 1082.218,1872.203 988.126 C 1967.430 893.246,2020.000 834.838,2020.000 823.914 C 2020.000 809.200,1977.162 760.161,1844.457 622.961 L 1822.172 599.921 1884.305 536.961 C 2015.591 403.924,2023.972 393.249,2014.643 370.921 C 2003.956 345.344,1799.077 137.475,1769.190 121.886 C 1754.526 114.237,1745.471 114.599,1725.586 123.630 M1849.064 335.061 L 1896.002 382.123 1848.001 429.999 L 1800.000 477.875 1800.000 382.937 C 1800.000 330.722,1800.478 288.000,1801.063 288.000 C 1801.647 288.000,1823.247 309.178,1849.064 335.061 M464.000 308.569 C 392.170 320.435,323.418 386.993,308.407 459.197 C 291.706 539.529,328.690 759.225,389.572 941.335 C 418.324 1027.339,440.286 1080.923,479.164 1159.929 C 601.284 1408.095,813.093 1649.278,1048.000 1807.653 C 1126.483 1860.566,1170.816 1886.071,1257.007 1927.894 C 1407.564 2000.951,1569.689 2052.253,1736.000 2079.465 C 1885.503 2103.927,1953.492 2100.126,2005.413 2064.404 C 2035.259 2043.869,2063.722 2011.566,2078.801 1981.114 C 2092.265 1953.922,2093.325 1948.878,2096.874 1895.114 C 2098.948 1863.701,2099.566 1803.328,2098.247 1760.950 C 2096.234 1696.229,2094.492 1680.229,2087.357 1660.950 C 2069.174 1611.815,2030.964 1569.130,1986.000 1547.722 C 1957.219 1534.018,1919.711 1527.173,1802.461 1514.228 C 1678.985 1500.595,1642.608 1498.627,1610.000 1503.819 C 1556.549 1512.329,1534.130 1528.161,1420.000 1637.995 C 1381.500 1675.046,1342.469 1712.511,1333.265 1721.252 L 1316.531 1737.145 1275.265 1713.796 C 1157.969 1647.428,1042.680 1559.053,941.814 1458.186 C 839.070 1355.443,754.132 1243.936,688.027 1125.017 L 663.022 1080.033 743.437 997.884 C 872.020 866.531,887.757 845.986,898.510 795.437 C 906.329 758.685,904.062 713.625,887.947 585.477 C 869.111 435.685,860.064 407.175,818.299 366.000 C 785.811 333.970,745.711 313.039,707.271 308.048 C 670.680 303.297,493.622 303.676,464.000 308.569 M1854.599 862.609 C 1822.130 894.172,1810.050 903.650,1806.641 900.241 C 1803.602 897.202,1801.632 866.777,1800.726 808.842 L 1799.368 722.000 1848.684 771.210 L 1898.000 820.420 1854.599 862.609 " fill="#1D1E23" stroke="none" fill-rule="evenodd"/></svg>