<svg viewBox="0 0 2400 2400" fill="none" xmlns="http://www.w3.org/2000/svg"><path d="M1700.000 288.974 L 1700.000 477.947 1586.029 364.029 L 1472.057 250.110 1435.997 286.003 L 1399.938 321.895 1538.947 460.948 L 1677.957 600.000 1538.947 739.052 L 1399.938 878.105 1435.997 913.997 L 1472.057 949.890 1586.029 835.971 L 1700.000 722.053 1700.000 911.026 L 1700.000 1100.000 1725.023 1100.000 L 1750.045 1100.000 1880.141 969.000 C 1951.693 896.950,2015.395 832.228,2021.700 825.174 L 2033.163 812.348 1927.741 706.042 L 1822.320 599.736 1929.157 492.844 L 2035.994 385.952 1892.976 242.976 L 1749.959 100.000 1724.979 100.000 L 1700.000 100.000 1700.000 288.974 M1846.979 430.979 L 1800.000 477.957 1800.000 384.000 L 1800.000 290.043 1846.979 337.021 L 1893.957 384.000 1846.979 430.979 M302.521 309.000 C 294.671 338.292,303.419 543.860,316.323 633.314 C 362.819 955.649,491.025 1243.667,699.443 1494.000 C 737.048 1539.168,849.169 1651.187,902.000 1696.373 C 1172.847 1928.026,1506.118 2064.438,1878.000 2095.862 C 1930.192 2100.272,2076.453 2101.377,2091.027 2097.472 L 2100.055 2095.053 2099.027 1820.675 L 2098.000 1546.297 1836.000 1515.600 L 1574.000 1484.903 1447.616 1610.812 L 1321.232 1736.721 1291.616 1721.815 C 1177.520 1664.390,1030.875 1551.928,918.000 1435.290 C 823.705 1337.851,721.617 1197.386,673.519 1098.904 L 662.239 1075.808 788.983 948.904 L 915.728 822.000 885.929 568.000 C 869.539 428.300,856.101 310.850,856.065 307.000 C 856.004 300.402,840.188 300.000,580.467 300.000 L 304.933 300.000 302.521 309.000 M1846.979 862.979 L 1800.000 909.957 1800.000 816.000 L 1800.000 722.043 1846.979 769.021 L 1893.957 816.000 1846.979 862.979 " fill="#1D1E23" stroke="none" fill-rule="evenodd"/></svg>