<svg viewBox="0 0 2400 2400" fill="none" xmlns="http://www.w3.org/2000/svg"><path d="M488.000 304.084 C 469.300 305.683,443.695 310.930,431.101 315.745 C 370.825 338.789,320.692 396.690,307.930 458.000 C 298.069 505.377,309.467 624.130,335.765 748.000 C 405.560 1076.758,562.199 1366.115,798.042 1601.958 C 1005.173 1809.090,1257.062 1957.085,1536.000 2035.539 C 1692.636 2079.594,1877.537 2105.363,1942.000 2092.121 C 2006.380 2078.895,2068.266 2023.346,2088.501 1960.618 C 2096.067 1937.166,2097.317 1922.055,2099.015 1833.584 C 2101.356 1711.584,2097.740 1677.543,2078.243 1638.000 C 2063.855 1608.821,2037.892 1579.298,2009.193 1559.485 C 1971.516 1533.472,1956.765 1530.348,1776.000 1510.089 C 1625.399 1493.211,1587.771 1496.428,1536.334 1530.581 C 1524.245 1538.607,1470.692 1588.328,1417.326 1641.072 C 1346.991 1710.587,1318.514 1736.286,1313.814 1734.482 C 1299.562 1729.013,1219.146 1681.137,1172.000 1650.051 C 1039.074 1562.408,918.075 1450.428,819.344 1323.680 C 768.135 1257.939,704.275 1160.013,675.704 1103.413 L 663.568 1079.371 757.402 984.019 C 809.011 931.576,858.606 878.907,867.612 866.979 C 899.348 824.945,908.325 778.506,900.343 697.663 C 892.228 615.473,876.043 487.694,870.195 459.647 C 857.274 397.676,822.083 353.312,762.381 323.729 C 733.689 309.511,724.188 306.910,689.688 303.829 C 643.767 299.729,537.387 299.863,488.000 304.084 M1262.000 313.290 C 1217.688 333.629,1191.577 385.972,1203.568 430.423 C 1209.606 452.808,1232.971 482.292,1252.613 492.313 C 1261.532 496.863,1295.192 505.958,1327.414 512.525 C 1401.809 527.686,1445.765 542.260,1506.000 571.738 C 1648.643 641.547,1754.080 745.741,1824.009 886.000 C 1856.821 951.812,1871.790 995.980,1887.745 1074.061 C 1900.872 1138.302,1909.104 1157.734,1930.757 1175.582 C 1973.956 1211.190,2035.390 1205.150,2071.140 1161.779 C 2093.993 1134.054,2097.449 1098.236,2083.794 1030.628 C 2026.457 746.741,1853.013 519.923,1595.697 392.331 C 1479.169 334.550,1305.370 293.383,1262.000 313.290 M1261.065 721.936 C 1229.096 735.833,1200.000 780.688,1200.000 816.074 C 1200.000 832.802,1219.242 874.136,1233.083 887.139 C 1238.154 891.903,1264.121 904.598,1290.787 915.350 C 1348.865 938.770,1386.915 963.184,1418.547 997.327 C 1447.710 1028.805,1464.194 1056.271,1485.923 1109.587 C 1506.653 1160.454,1515.194 1172.846,1539.229 1186.932 C 1555.221 1196.304,1562.294 1197.874,1587.968 1197.750 C 1631.558 1197.541,1659.265 1179.268,1678.567 1138.000 C 1691.009 1111.400,1690.443 1090.473,1676.128 1047.744 C 1633.514 920.551,1539.316 811.524,1420.890 752.326 C 1356.610 720.194,1292.927 708.085,1261.065 721.936 " fill="#1D1E23" stroke="none" fill-rule="evenodd"/></svg>