<svg viewBox="0 0 2400 2400" fill="none" xmlns="http://www.w3.org/2000/svg"><path d="M302.521 309.000 C 294.671 338.292,303.419 543.860,316.323 633.314 C 362.819 955.649,491.025 1243.667,699.443 1494.000 C 737.048 1539.168,849.169 1651.187,902.000 1696.373 C 1172.847 1928.026,1506.118 2064.438,1878.000 2095.862 C 1930.192 2100.272,2076.453 2101.377,2091.027 2097.472 L 2100.055 2095.053 2099.027 1820.675 L 2098.000 1546.297 1836.000 1515.600 L 1574.000 1484.903 1447.616 1610.812 L 1321.232 1736.721 1291.616 1721.815 C 1177.520 1664.390,1030.875 1551.928,918.000 1435.290 C 823.705 1337.851,721.617 1197.386,673.519 1098.904 L 662.239 1075.808 788.983 948.904 L 915.728 822.000 885.929 568.000 C 869.539 428.300,856.101 310.850,856.065 307.000 C 856.004 300.402,840.188 300.000,580.467 300.000 L 304.933 300.000 302.521 309.000 " fill="#1D1E23" stroke="none" fill-rule="evenodd"/></svg>