<svg viewBox="0 0 2400 2400" fill="none" xmlns="http://www.w3.org/2000/svg"><path d="M302.521 309.000 C 294.671 338.292,303.419 543.860,316.323 633.314 C 362.819 955.649,491.025 1243.667,699.443 1494.000 C 737.048 1539.168,849.169 1651.187,902.000 1696.373 C 1172.847 1928.026,1506.118 2064.438,1878.000 2095.862 C 1930.192 2100.272,2076.453 2101.377,2091.027 2097.472 L 2100.055 2095.053 2099.027 1820.675 L 2098.000 1546.297 1836.000 1515.600 L 1574.000 1484.903 1447.616 1610.812 L 1321.232 1736.721 1291.616 1721.815 C 1177.520 1664.390,1030.875 1551.928,918.000 1435.290 C 823.705 1337.851,721.617 1197.386,673.519 1098.904 L 662.239 1075.808 788.983 948.904 L 915.728 822.000 885.929 568.000 C 869.539 428.300,856.101 310.850,856.065 307.000 C 856.004 300.402,840.188 300.000,580.467 300.000 L 304.933 300.000 302.521 309.000 M1200.000 398.607 L 1200.000 498.310 1263.000 505.163 C 1335.089 513.004,1368.702 519.524,1414.000 534.453 C 1629.619 605.513,1794.281 770.184,1865.533 986.012 C 1880.466 1031.247,1886.990 1064.861,1894.837 1137.000 L 1901.690 1200.000 2001.460 1200.000 L 2101.229 1200.000 2098.658 1153.000 C 2086.928 938.589,1998.599 735.185,1850.000 580.389 C 1772.227 499.373,1695.770 443.446,1595.125 393.952 C 1483.040 338.831,1375.627 310.971,1239.000 301.584 L 1200.000 298.904 1200.000 398.607 M1200.000 799.483 L 1200.000 898.967 1225.000 901.716 C 1372.625 917.952,1482.048 1027.375,1498.284 1175.000 L 1501.033 1200.000 1601.116 1200.000 L 1701.198 1200.000 1698.610 1163.543 C 1683.832 955.345,1531.070 771.847,1327.962 718.317 C 1292.074 708.859,1235.558 700.000,1211.105 700.000 L 1200.000 700.000 1200.000 799.483 " fill="#1D1E23" stroke="none" fill-rule="evenodd"/></svg>