<svg viewBox="0 0 2400 2400" fill="none" xmlns="http://www.w3.org/2000/svg"><path d="M1734.000 118.724 C 1729.600 119.623,1721.500 123.775,1716.000 127.951 C 1707.014 134.773,1705.734 139.318,1703.376 172.771 C 1701.932 193.247,1700.582 270.088,1700.376 343.529 L 1700.000 477.058 1616.726 395.279 C 1511.195 291.643,1487.878 272.000,1470.384 272.000 C 1454.969 272.000,1432.353 285.989,1424.920 300.120 C 1417.068 315.047,1421.932 334.619,1438.645 355.351 C 1446.914 365.608,1504.042 424.863,1565.596 487.029 L 1677.512 600.059 1663.765 615.029 C 1656.205 623.263,1599.298 681.353,1537.307 744.117 C 1466.015 816.298,1423.592 862.234,1421.864 869.117 C 1412.457 906.599,1452.583 942.741,1485.943 926.833 C 1493.459 923.249,1543.527 877.071,1597.205 824.216 L 1694.801 728.116 1697.380 767.058 C 1698.798 788.476,1699.968 863.019,1699.979 932.709 L 1700.000 1059.418 1714.895 1071.695 C 1733.013 1086.630,1751.689 1090.756,1768.898 1083.628 C 1791.656 1074.202,1994.453 869.158,2015.777 834.014 C 2021.481 824.612,2021.235 822.584,2012.360 805.855 C 2007.100 795.939,1969.467 753.216,1928.732 710.913 C 1887.997 668.611,1847.365 626.322,1838.439 616.937 L 1822.211 599.874 1890.399 530.937 C 1982.044 438.286,2014.582 402.194,2017.713 389.718 C 2019.591 382.235,2017.299 373.989,2009.630 360.637 C 1997.863 340.151,1796.778 137.233,1775.218 124.088 C 1762.668 116.437,1751.994 115.048,1734.000 118.724 M1849.064 335.061 L 1896.002 382.123 1848.001 429.999 L 1800.000 477.875 1800.000 382.937 C 1800.000 330.722,1800.478 288.000,1801.063 288.000 C 1801.647 288.000,1823.247 309.178,1849.064 335.061 M500.000 303.891 C 449.229 307.913,420.016 317.565,386.866 341.270 C 347.493 369.425,321.217 407.122,309.615 452.099 C 293.769 513.525,317.363 694.323,362.064 854.000 C 441.685 1138.421,578.289 1375.305,783.894 1585.490 C 902.156 1706.388,1015.992 1795.215,1156.000 1875.848 C 1348.781 1986.873,1583.100 2063.589,1809.975 2089.959 C 1931.338 2104.065,1982.314 2092.550,2037.618 2038.538 C 2063.475 2013.284,2077.009 1992.266,2088.632 1959.315 C 2097.104 1935.293,2097.569 1927.770,2097.727 1812.000 C 2097.884 1697.731,2097.354 1688.416,2089.369 1665.007 C 2077.731 1630.892,2059.606 1603.935,2030.743 1577.815 C 1986.543 1537.816,1968.324 1532.584,1809.593 1514.300 C 1689.604 1500.479,1639.574 1497.860,1606.284 1503.657 C 1553.048 1512.928,1534.721 1526.452,1408.000 1649.981 C 1376.100 1681.078,1342.241 1713.247,1332.758 1721.469 L 1315.515 1736.417 1288.758 1721.526 C 1030.574 1577.835,816.851 1364.062,681.988 1114.613 L 662.856 1079.227 732.688 1008.613 C 878.218 861.457,890.911 844.521,900.562 784.628 C 905.961 751.126,902.482 700.275,885.607 566.000 C 874.055 474.080,867.534 442.465,854.047 412.989 C 834.162 369.531,776.726 323.282,726.469 310.259 C 697.792 302.828,561.719 299.002,500.000 303.891 M1855.633 862.082 C 1832.332 885.137,1811.426 904.000,1809.177 904.000 C 1802.662 904.000,1800.000 872.224,1800.000 794.462 L 1800.000 722.041 1849.000 771.103 L 1898.000 820.164 1855.633 862.082 " fill="#1D1E23" stroke="none" fill-rule="evenodd"/></svg>