<svg viewBox="0 0 2400 2400" fill="none" xmlns="http://www.w3.org/2000/svg"><path d="M464.000 308.569 C 392.170 320.435,323.418 386.993,308.407 459.197 C 291.706 539.529,328.690 759.225,389.572 941.335 C 418.324 1027.339,440.286 1080.923,479.164 1159.929 C 601.284 1408.095,813.093 1649.278,1048.000 1807.653 C 1126.483 1860.566,1170.816 1886.071,1257.007 1927.894 C 1407.564 2000.951,1569.689 2052.253,1736.000 2079.465 C 1885.503 2103.927,1953.492 2100.126,2005.413 2064.404 C 2035.259 2043.869,2063.722 2011.566,2078.801 1981.114 C 2092.265 1953.922,2093.325 1948.878,2096.874 1895.114 C 2098.948 1863.701,2099.566 1803.328,2098.247 1760.950 C 2096.234 1696.229,2094.492 1680.229,2087.357 1660.950 C 2069.174 1611.815,2030.964 1569.130,1986.000 1547.722 C 1957.219 1534.018,1919.711 1527.173,1802.461 1514.228 C 1678.985 1500.595,1642.608 1498.627,1610.000 1503.819 C 1556.549 1512.329,1534.130 1528.161,1420.000 1637.995 C 1381.500 1675.046,1342.469 1712.511,1333.265 1721.252 L 1316.531 1737.145 1275.265 1713.796 C 1157.969 1647.428,1042.680 1559.053,941.814 1458.186 C 839.070 1355.443,754.132 1243.936,688.027 1125.017 L 663.022 1080.033 743.437 997.884 C 872.020 866.531,887.757 845.986,898.510 795.437 C 906.329 758.685,904.062 713.625,887.947 585.477 C 869.111 435.685,860.064 407.175,818.299 366.000 C 785.811 333.970,745.711 313.039,707.271 308.048 C 670.680 303.297,493.622 303.676,464.000 308.569 " fill="#1D1E23" stroke="none" fill-rule="evenodd"/></svg>