<svg viewBox="0 0 2400 2400" fill="none" xmlns="http://www.w3.org/2000/svg"><path d="M500.000 303.891 C 449.229 307.913,420.016 317.565,386.866 341.270 C 347.493 369.425,321.217 407.122,309.615 452.099 C 293.769 513.525,317.363 694.323,362.064 854.000 C 441.685 1138.421,578.289 1375.305,783.894 1585.490 C 902.156 1706.388,1015.992 1795.215,1156.000 1875.848 C 1348.781 1986.873,1583.100 2063.589,1809.975 2089.959 C 1931.338 2104.065,1982.314 2092.550,2037.618 2038.538 C 2063.475 2013.284,2077.009 1992.266,2088.632 1959.315 C 2097.104 1935.293,2097.569 1927.770,2097.727 1812.000 C 2097.884 1697.731,2097.354 1688.416,2089.369 1665.007 C 2077.731 1630.892,2059.606 1603.935,2030.743 1577.815 C 1986.543 1537.816,1968.324 1532.584,1809.593 1514.300 C 1689.604 1500.479,1639.574 1497.860,1606.284 1503.657 C 1553.048 1512.928,1534.721 1526.452,1408.000 1649.981 C 1376.100 1681.078,1342.241 1713.247,1332.758 1721.469 L 1315.515 1736.417 1288.758 1721.526 C 1030.574 1577.835,816.851 1364.062,681.988 1114.613 L 662.856 1079.227 732.688 1008.613 C 878.218 861.457,890.911 844.521,900.562 784.628 C 905.961 751.126,902.482 700.275,885.607 566.000 C 874.055 474.080,867.534 442.465,854.047 412.989 C 834.162 369.531,776.726 323.282,726.469 310.259 C 697.792 302.828,561.719 299.002,500.000 303.891 M1266.000 311.981 C 1231.550 322.848,1202.599 365.528,1202.223 406.000 C 1201.960 434.285,1209.899 452.748,1232.207 475.735 C 1249.138 493.182,1264.708 498.785,1350.000 518.123 C 1416.055 533.100,1456.810 548.051,1520.000 580.487 C 1591.370 617.123,1640.346 652.484,1693.931 706.069 C 1747.516 759.654,1782.877 808.630,1819.513 880.000 C 1853.618 946.442,1866.867 983.689,1885.675 1066.000 C 1893.718 1101.200,1903.973 1137.611,1908.464 1146.913 C 1918.754 1168.227,1940.040 1185.234,1967.783 1194.308 C 2008.555 1207.644,2053.546 1189.611,2077.905 1150.169 C 2089.375 1131.598,2089.978 1128.502,2089.580 1090.293 C 2088.979 1032.574,2064.785 938.392,2027.339 848.000 C 1916.181 579.672,1668.089 378.103,1375.449 318.353 C 1336.130 310.326,1281.357 307.136,1266.000 311.981 M1270.254 718.901 C 1232.765 728.450,1195.341 785.588,1201.512 823.856 C 1204.680 843.507,1223.991 879.747,1236.000 888.578 C 1241.500 892.623,1266.083 904.716,1290.630 915.451 C 1351.873 942.237,1381.414 960.839,1412.487 992.184 C 1442.624 1022.585,1460.920 1051.774,1484.362 1106.850 C 1504.255 1153.590,1515.567 1171.071,1533.989 1183.545 C 1559.859 1201.062,1602.168 1202.789,1632.570 1187.570 C 1660.505 1173.585,1688.000 1130.577,1688.000 1100.865 C 1688.000 1069.509,1657.456 992.133,1624.554 940.140 C 1580.675 870.802,1527.476 817.731,1458.335 774.322 C 1389.403 731.046,1312.055 708.254,1270.254 718.901 " fill="#1D1E23" stroke="none" fill-rule="evenodd"/></svg>