<svg viewBox="0 0 2400 2400" fill="none" xmlns="http://www.w3.org/2000/svg"><path d="M1723.526 122.012 C 1700.682 134.427,1700.000 140.062,1700.000 316.433 L 1700.000 477.657 1597.000 375.398 C 1486.155 265.350,1483.149 263.213,1453.152 273.101 C 1425.551 282.200,1411.891 317.129,1425.737 343.199 C 1428.892 349.139,1486.492 408.889,1553.737 475.975 C 1620.982 543.062,1676.000 599.726,1676.000 601.895 C 1676.000 604.064,1618.400 663.539,1548.000 734.062 L 1420.000 862.285 1420.000 880.603 C 1420.000 918.223,1459.106 943.303,1491.199 926.266 C 1497.139 923.112,1546.100 876.296,1600.000 822.230 L 1698.000 723.929 1700.000 892.276 L 1702.000 1060.622 1716.941 1074.311 C 1736.929 1092.624,1759.566 1093.360,1782.400 1076.441 C 1807.950 1057.509,2006.537 855.132,2013.908 840.514 C 2028.104 812.361,2024.703 807.356,1919.693 701.894 C 1867.062 649.036,1824.000 604.022,1824.000 601.862 C 1824.000 599.703,1866.306 555.659,1918.014 503.986 C 1980.684 441.359,2013.462 405.691,2016.329 397.004 C 2025.432 369.420,2022.320 365.271,1900.548 242.686 C 1837.547 179.263,1781.139 124.813,1775.199 121.686 C 1761.512 114.481,1737.101 114.635,1723.526 122.012 M1849.064 335.061 L 1896.002 382.123 1848.001 429.999 L 1800.000 477.875 1800.000 382.937 C 1800.000 330.722,1800.478 288.000,1801.063 288.000 C 1801.647 288.000,1823.247 309.178,1849.064 335.061 M470.142 304.451 C 400.674 314.571,332.558 372.957,311.578 440.364 C 294.536 495.119,309.402 643.066,347.982 802.653 C 496.940 1418.841,981.571 1903.273,1598.000 2052.158 C 1756.695 2090.488,1905.163 2105.376,1959.636 2088.422 C 2003.549 2074.755,2048.391 2038.143,2073.256 1995.655 C 2095.383 1957.846,2100.006 1925.746,2099.941 1810.360 C 2099.876 1696.400,2096.978 1673.991,2076.976 1632.790 C 2055.722 1589.010,2003.025 1546.031,1954.000 1532.495 C 1945.200 1530.065,1872.300 1520.569,1792.000 1511.392 C 1622.245 1491.993,1609.213 1492.370,1556.618 1518.195 C 1528.760 1531.875,1516.707 1542.446,1422.897 1635.482 L 1319.794 1737.733 1294.897 1724.235 C 1085.497 1610.706,915.537 1461.315,779.523 1271.235 C 744.577 1222.399,699.887 1150.644,675.926 1104.900 L 662.779 1079.801 766.453 974.900 C 875.653 864.409,885.319 851.831,898.189 803.474 C 906.768 771.244,905.383 737.975,889.803 602.000 C 874.462 468.106,869.497 441.809,853.173 408.000 C 828.854 357.632,764.723 312.356,706.000 304.097 C 672.168 299.338,503.501 299.592,470.142 304.451 M1852.022 865.978 C 1826.782 891.290,1804.751 912.000,1803.065 912.000 C 1801.379 912.000,1800.000 869.259,1800.000 817.020 L 1800.000 722.041 1848.957 770.998 L 1897.914 819.955 1852.022 865.978 " fill="#1D1E23" stroke="none" fill-rule="evenodd"/></svg>