<svg viewBox="0 0 2400 2400" fill="none" xmlns="http://www.w3.org/2000/svg"><path d="M302.691 308.349 C 298.761 323.041,299.507 424.069,304.116 501.155 C 324.060 834.693,447.819 1166.669,650.852 1431.250 C 719.167 1520.274,853.475 1656.676,945.234 1730.222 C 1190.225 1926.585,1482.471 2046.867,1820.000 2090.257 C 1873.490 2097.134,2061.467 2102.866,2085.516 2098.355 L 2100.000 2095.637 2100.000 1821.819 C 2100.000 1671.218,2098.650 1547.963,2097.000 1547.918 C 2095.350 1547.872,1977.000 1533.635,1834.000 1516.280 L 1574.000 1484.724 1447.616 1610.723 L 1321.232 1736.721 1291.949 1721.974 C 1172.032 1661.585,988.851 1516.127,887.817 1401.067 C 810.403 1312.905,722.366 1189.452,679.555 1109.023 L 662.001 1076.045 789.380 948.620 L 916.759 821.194 886.186 563.737 C 869.371 422.136,855.105 305.771,854.483 305.150 C 853.861 304.528,730.035 302.822,579.313 301.359 L 305.273 298.698 302.691 308.349 M1200.000 399.530 C 1200.000 478.489,1201.096 500.000,1205.119 500.000 C 1220.269 500.000,1312.354 513.077,1346.101 520.021 C 1507.484 553.227,1655.452 647.450,1754.373 780.000 C 1822.333 871.065,1857.461 947.914,1879.618 1054.000 C 1887.027 1089.475,1900.000 1178.713,1900.000 1194.205 C 1900.000 1199.111,1915.426 1200.000,2000.610 1200.000 L 2101.219 1200.000 2098.626 1154.599 C 2089.859 1001.096,2035.938 838.786,1950.262 708.000 C 1831.467 526.658,1634.862 386.587,1422.963 332.328 C 1378.606 320.970,1291.437 307.101,1231.000 301.786 L 1200.000 299.060 1200.000 399.530 M1200.000 799.053 L 1200.000 898.107 1241.038 906.506 C 1315.071 921.657,1361.028 945.233,1407.897 992.103 C 1454.960 1039.165,1478.799 1085.762,1493.281 1159.000 L 1501.389 1200.000 1601.244 1200.000 L 1701.100 1200.000 1698.364 1166.274 C 1693.148 1101.988,1668.859 1021.746,1637.138 964.000 C 1578.494 857.246,1470.254 767.300,1353.423 728.238 C 1318.168 716.451,1235.548 700.000,1211.603 700.000 L 1200.000 700.000 1200.000 799.053 " fill="#1D1E23" stroke="none" fill-rule="evenodd"/></svg>