<svg viewBox="0 0 2400 2400" fill="none" xmlns="http://www.w3.org/2000/svg"><path d="M1700.000 288.974 L 1700.000 477.947 1586.029 364.029 L 1472.057 250.110 1435.997 286.003 L 1399.938 321.895 1538.947 460.948 L 1677.957 600.000 1538.947 739.052 L 1399.938 878.105 1435.997 913.997 L 1472.057 949.890 1586.029 835.971 L 1700.000 722.053 1700.000 911.026 L 1700.000 1100.000 1725.033 1100.000 L 1750.065 1100.000 1840.046 1009.000 C 1889.535 958.950,1953.401 894.143,1981.970 864.985 L 2033.914 811.971 1927.985 705.985 L 1822.056 599.999 1929.025 492.976 L 2035.994 385.952 1892.976 242.976 L 1749.959 100.000 1724.979 100.000 L 1700.000 100.000 1700.000 288.974 M1846.979 430.979 L 1800.000 477.957 1800.000 384.000 L 1800.000 290.043 1846.979 337.021 L 1893.957 384.000 1846.979 430.979 M302.691 308.349 C 298.761 323.041,299.507 424.069,304.116 501.155 C 324.060 834.693,447.819 1166.669,650.852 1431.250 C 719.167 1520.274,853.475 1656.676,945.234 1730.222 C 1190.225 1926.585,1482.471 2046.867,1820.000 2090.257 C 1873.490 2097.134,2061.467 2102.866,2085.516 2098.355 L 2100.000 2095.637 2100.000 1821.819 C 2100.000 1671.218,2098.650 1547.963,2097.000 1547.918 C 2095.350 1547.872,1977.000 1533.635,1834.000 1516.280 L 1574.000 1484.724 1447.616 1610.723 L 1321.232 1736.721 1291.949 1721.974 C 1172.032 1661.585,988.851 1516.127,887.817 1401.067 C 810.403 1312.905,722.366 1189.452,679.555 1109.023 L 662.001 1076.045 789.380 948.620 L 916.759 821.194 886.186 563.737 C 869.371 422.136,855.105 305.771,854.483 305.150 C 853.861 304.528,730.035 302.822,579.313 301.359 L 305.273 298.698 302.691 308.349 M1846.979 862.979 L 1800.000 909.957 1800.000 816.000 L 1800.000 722.043 1846.979 769.021 L 1893.957 816.000 1846.979 862.979 " fill="#1D1E23" stroke="none" fill-rule="evenodd"/></svg>