<svg viewBox="0 0 2400 2400" fill="none" xmlns="http://www.w3.org/2000/svg"><path d="M470.142 304.451 C 400.674 314.571,332.558 372.957,311.578 440.364 C 294.536 495.119,309.402 643.066,347.982 802.653 C 496.940 1418.841,981.571 1903.273,1598.000 2052.158 C 1756.695 2090.488,1905.163 2105.376,1959.636 2088.422 C 2003.549 2074.755,2048.391 2038.143,2073.256 1995.655 C 2095.383 1957.846,2100.006 1925.746,2099.941 1810.360 C 2099.876 1696.400,2096.978 1673.991,2076.976 1632.790 C 2055.722 1589.010,2003.025 1546.031,1954.000 1532.495 C 1945.200 1530.065,1872.300 1520.569,1792.000 1511.392 C 1622.245 1491.993,1609.213 1492.370,1556.618 1518.195 C 1528.760 1531.875,1516.707 1542.446,1422.897 1635.482 L 1319.794 1737.733 1294.897 1724.235 C 1085.497 1610.706,915.537 1461.315,779.523 1271.235 C 744.577 1222.399,699.887 1150.644,675.926 1104.900 L 662.779 1079.801 766.453 974.900 C 875.653 864.409,885.319 851.831,898.189 803.474 C 906.768 771.244,905.383 737.975,889.803 602.000 C 874.462 468.106,869.497 441.809,853.173 408.000 C 828.854 357.632,764.723 312.356,706.000 304.097 C 672.168 299.338,503.501 299.592,470.142 304.451 " fill="#1D1E23" stroke="none" fill-rule="evenodd"/></svg>