<svg viewBox="0 0 2400 2400" fill="none" xmlns="http://www.w3.org/2000/svg"><path d="M301.609 314.678 C 297.529 336.427,302.869 508.225,309.732 576.000 C 345.969 933.845,506.350 1289.750,746.165 1544.493 C 807.009 1609.124,888.979 1686.570,939.856 1727.494 C 1202.429 1938.700,1527.591 2066.382,1878.000 2095.877 C 1930.204 2100.271,2076.475 2101.371,2091.000 2097.479 L 2100.000 2095.067 2100.000 1821.533 C 2100.000 1671.090,2099.550 1547.838,2099.000 1547.640 C 2098.450 1547.442,1980.100 1533.235,1836.000 1516.068 L 1574.000 1484.857 1447.616 1610.789 L 1321.232 1736.721 1292.957 1722.482 C 1167.196 1659.150,990.361 1519.045,884.123 1398.567 C 805.889 1309.846,725.348 1196.895,683.457 1117.155 L 662.000 1076.309 788.977 949.155 L 915.954 822.000 885.872 564.228 C 869.326 422.453,854.788 305.453,853.564 304.228 C 852.340 303.003,728.282 301.480,577.880 300.843 L 304.421 299.687 301.609 314.678 M1200.000 398.967 L 1200.000 498.966 1229.000 501.682 C 1382.285 516.037,1479.965 548.675,1592.000 622.973 C 1655.886 665.340,1734.660 744.114,1777.027 808.000 C 1851.325 920.035,1883.963 1017.715,1898.318 1171.000 L 1901.034 1200.000 2000.517 1200.000 L 2100.000 1200.000 2100.000 1178.424 C 2100.000 1142.401,2092.198 1076.753,2081.721 1024.611 C 2024.217 738.447,1832.017 499.420,1563.049 379.576 C 1464.409 335.625,1361.886 311.154,1237.000 301.753 L 1200.000 298.968 1200.000 398.967 M1200.000 798.825 L 1200.000 898.754 1232.006 903.280 C 1373.659 923.312,1476.688 1026.341,1496.720 1167.994 L 1501.246 1200.000 1601.213 1200.000 L 1701.180 1200.000 1698.585 1166.237 C 1689.482 1047.804,1642.138 943.347,1558.266 856.645 C 1470.011 765.412,1360.060 713.401,1230.662 701.675 L 1200.000 698.897 1200.000 798.825 " fill="#1D1E23" stroke="none" fill-rule="evenodd"/></svg>