<svg viewBox="0 0 2400 2400" fill="none" xmlns="http://www.w3.org/2000/svg"><path d="M470.142 304.451 C 400.674 314.571,332.558 372.957,311.578 440.364 C 294.536 495.119,309.402 643.066,347.982 802.653 C 496.940 1418.841,981.571 1903.273,1598.000 2052.158 C 1756.695 2090.488,1905.163 2105.376,1959.636 2088.422 C 2003.549 2074.755,2048.391 2038.143,2073.256 1995.655 C 2095.383 1957.846,2100.006 1925.746,2099.941 1810.360 C 2099.876 1696.400,2096.978 1673.991,2076.976 1632.790 C 2055.722 1589.010,2003.025 1546.031,1954.000 1532.495 C 1945.200 1530.065,1872.300 1520.569,1792.000 1511.392 C 1622.245 1491.993,1609.213 1492.370,1556.618 1518.195 C 1528.760 1531.875,1516.707 1542.446,1422.897 1635.482 L 1319.794 1737.733 1294.897 1724.235 C 1085.497 1610.706,915.537 1461.315,779.523 1271.235 C 744.577 1222.399,699.887 1150.644,675.926 1104.900 L 662.779 1079.801 766.453 974.900 C 875.653 864.409,885.319 851.831,898.189 803.474 C 906.768 771.244,905.383 737.975,889.803 602.000 C 874.462 468.106,869.497 441.809,853.173 408.000 C 828.854 357.632,764.723 312.356,706.000 304.097 C 672.168 299.338,503.501 299.592,470.142 304.451 M1281.306 308.139 C 1257.088 312.983,1242.958 321.411,1225.162 341.629 C 1190.622 380.869,1191.297 432.557,1226.867 472.119 C 1247.301 494.847,1262.579 501.252,1318.000 510.328 C 1522.899 543.882,1706.593 672.717,1809.682 855.175 C 1848.267 923.468,1877.100 1005.227,1889.672 1082.000 C 1898.435 1135.512,1905.229 1152.427,1925.445 1171.061 C 1968.601 1210.841,2030.194 1208.447,2067.879 1165.527 C 2096.104 1133.380,2098.918 1105.158,2082.152 1022.361 C 2033.972 784.430,1898.350 582.996,1695.734 448.426 C 1580.026 371.578,1458.370 326.947,1308.000 306.181 C 1302.500 305.422,1290.488 306.303,1281.306 308.139 M1278.000 715.495 C 1235.702 726.477,1200.000 771.402,1200.000 813.647 C 1200.000 841.462,1220.182 880.072,1242.293 894.560 C 1247.661 898.077,1270.795 907.758,1293.702 916.073 C 1390.121 951.074,1451.740 1013.281,1486.582 1110.797 C 1502.982 1156.699,1513.395 1171.780,1539.136 1186.911 C 1555.222 1196.367,1562.417 1198.000,1588.000 1198.000 C 1613.391 1198.000,1620.823 1196.341,1636.374 1187.198 C 1667.252 1169.045,1688.000 1133.883,1688.000 1099.704 C 1688.000 1059.130,1644.732 960.291,1602.108 903.498 C 1571.367 862.538,1518.642 811.670,1481.197 786.846 C 1405.656 736.766,1316.566 705.483,1278.000 715.495 " fill="#1D1E23" stroke="none" fill-rule="evenodd"/></svg>