<svg viewBox="0 0 2400 2400" fill="none" xmlns="http://www.w3.org/2000/svg"><path d="M1700.000 288.974 L 1700.000 477.947 1586.029 364.029 L 1472.057 250.110 1435.997 286.003 L 1399.938 321.895 1538.947 460.948 L 1677.957 600.000 1538.947 739.052 L 1399.938 878.105 1435.997 913.997 L 1472.057 949.890 1586.029 835.971 L 1700.000 722.053 1700.000 911.026 L 1700.000 1100.000 1725.021 1100.000 L 1750.042 1100.000 1891.021 958.979 C 1968.560 881.418,2032.000 816.246,2032.000 814.153 C 2032.000 812.060,1984.779 763.003,1927.064 705.137 L 1822.128 599.927 1929.061 492.940 L 2035.994 385.952 1892.976 242.976 L 1749.959 100.000 1724.979 100.000 L 1700.000 100.000 1700.000 288.974 M1846.979 430.979 L 1800.000 477.957 1800.000 384.000 L 1800.000 290.043 1846.979 337.021 L 1893.957 384.000 1846.979 430.979 M301.622 314.608 C 297.241 337.962,302.916 524.905,309.799 584.000 C 350.648 934.664,487.104 1248.044,713.008 1510.000 C 766.780 1572.353,872.622 1674.579,936.000 1725.372 C 994.004 1771.859,1082.602 1833.047,1144.000 1869.021 C 1363.439 1997.597,1616.709 2075.681,1879.800 2095.871 C 1938.086 2100.344,2076.397 2101.392,2091.027 2097.472 L 2100.055 2095.053 2099.027 1820.555 L 2098.000 1546.058 1836.000 1515.520 L 1574.000 1484.982 1447.611 1610.857 L 1321.222 1736.732 1296.123 1724.062 C 1157.987 1654.331,992.683 1523.396,874.373 1390.000 C 799.715 1305.822,710.323 1175.803,671.469 1094.879 L 662.288 1075.758 788.800 948.879 L 915.311 822.000 884.811 561.000 L 854.311 300.000 579.337 300.000 L 304.363 300.000 301.622 314.608 M1846.979 862.979 L 1800.000 909.957 1800.000 816.000 L 1800.000 722.043 1846.979 769.021 L 1893.957 816.000 1846.979 862.979 " fill="#1D1E23" stroke="none" fill-rule="evenodd"/></svg>