<svg viewBox="0 0 2400 2400" fill="none" xmlns="http://www.w3.org/2000/svg"><path d="M484.000 307.770 C 465.300 309.514,441.900 314.178,432.000 318.134 C 372.517 341.901,325.781 394.059,310.132 454.140 C 286.381 545.323,341.846 829.232,423.800 1035.981 C 506.456 1244.501,635.142 1436.611,805.629 1606.000 C 1000.660 1799.774,1217.099 1931.393,1482.000 2017.307 C 1612.833 2059.739,1798.574 2096.087,1883.975 2095.970 C 1951.275 2095.877,2000.806 2075.602,2041.740 2031.389 C 2079.455 1990.654,2090.850 1964.600,2095.898 1907.570 C 2100.903 1851.020,2100.930 1767.370,2095.961 1712.000 C 2092.742 1676.130,2090.072 1665.704,2077.664 1640.568 C 2048.471 1581.426,1993.644 1542.181,1923.529 1530.239 C 1861.183 1519.619,1702.888 1503.483,1656.000 1502.966 C 1565.571 1501.971,1556.585 1507.706,1370.082 1685.449 L 1316.097 1736.899 1276.321 1714.378 C 1039.784 1580.449,827.628 1368.852,693.093 1132.685 L 662.722 1079.371 724.653 1016.685 C 893.938 845.337,902.403 831.998,901.501 738.000 C 900.987 684.317,885.616 549.759,871.850 478.422 C 858.816 410.876,834.774 373.038,782.358 337.574 C 744.114 311.699,722.066 307.563,614.000 305.993 C 561.200 305.226,502.700 306.025,484.000 307.770 " fill="#1D1E23" stroke="none" fill-rule="evenodd"/></svg>