<svg viewBox="0 0 2400 2400" fill="none" xmlns="http://www.w3.org/2000/svg"><path d="M500.000 303.891 C 449.229 307.913,420.016 317.565,386.866 341.270 C 347.493 369.425,321.217 407.122,309.615 452.099 C 293.769 513.525,317.363 694.323,362.064 854.000 C 441.685 1138.421,578.289 1375.305,783.894 1585.490 C 902.156 1706.388,1015.992 1795.215,1156.000 1875.848 C 1348.781 1986.873,1583.100 2063.589,1809.975 2089.959 C 1931.338 2104.065,1982.314 2092.550,2037.618 2038.538 C 2063.475 2013.284,2077.009 1992.266,2088.632 1959.315 C 2097.104 1935.293,2097.569 1927.770,2097.727 1812.000 C 2097.884 1697.731,2097.354 1688.416,2089.369 1665.007 C 2077.731 1630.892,2059.606 1603.935,2030.743 1577.815 C 1986.543 1537.816,1968.324 1532.584,1809.593 1514.300 C 1689.604 1500.479,1639.574 1497.860,1606.284 1503.657 C 1553.048 1512.928,1534.721 1526.452,1408.000 1649.981 C 1376.100 1681.078,1342.241 1713.247,1332.758 1721.469 L 1315.515 1736.417 1288.758 1721.526 C 1030.574 1577.835,816.851 1364.062,681.988 1114.613 L 662.856 1079.227 732.688 1008.613 C 878.218 861.457,890.911 844.521,900.562 784.628 C 905.961 751.126,902.482 700.275,885.607 566.000 C 874.055 474.080,867.534 442.465,854.047 412.989 C 834.162 369.531,776.726 323.282,726.469 310.259 C 697.792 302.828,561.719 299.002,500.000 303.891 " fill="#1D1E23" stroke="none" fill-rule="evenodd"/></svg>