<svg viewBox="0 0 2400 2400" fill="none" xmlns="http://www.w3.org/2000/svg"><path d="M1886.880 141.000 C 1880.021 146.159,1849.380 208.939,1802.148 314.609 L 1775.057 375.219 1706.529 406.254 C 1533.530 484.601,1531.051 486.107,1538.156 508.492 C 1540.972 517.365,1590.259 542.331,1714.554 597.847 L 1775.107 624.893 1802.153 685.446 C 1857.669 809.741,1882.635 859.028,1891.508 861.844 C 1913.734 868.898,1922.130 854.970,1997.847 685.446 L 2024.893 624.893 2085.446 597.847 C 2209.741 542.331,2259.028 517.365,2261.844 508.492 C 2268.949 486.107,2266.470 484.601,2093.471 406.254 L 2024.943 375.219 1997.852 314.609 C 1950.620 208.939,1919.979 146.159,1913.120 141.000 C 1909.463 138.250,1903.559 136.000,1900.000 136.000 C 1896.441 136.000,1890.537 138.250,1886.880 141.000 M840.000 402.750 C 561.687 423.652,305.596 596.636,183.796 846.000 C 88.818 1040.452,74.613 1248.319,142.384 1452.000 C 240.583 1747.131,492.527 1953.092,805.205 1993.847 C 973.289 2015.756,1155.574 1976.987,1308.978 1886.704 C 1556.807 1740.849,1710.355 1459.239,1698.671 1172.000 C 1686.570 874.510,1520.008 617.537,1252.726 483.993 C 1128.895 422.122,977.874 392.395,840.000 402.750 M1161.269 911.493 C 1185.382 926.483,1197.333 947.860,1197.333 976.000 C 1197.333 1006.577,1184.613 1027.055,1157.264 1040.505 C 1139.716 1049.135,1131.877 1050.103,1069.268 1051.380 L 1000.536 1052.782 999.268 1275.688 L 998.000 1498.595 987.264 1514.813 C 970.314 1540.417,946.549 1550.000,900.000 1550.000 C 853.451 1550.000,829.686 1540.417,812.736 1514.813 L 802.000 1498.595 800.732 1275.688 L 799.464 1052.782 730.732 1051.380 C 668.123 1050.103,660.284 1049.135,642.736 1040.505 C 615.703 1027.210,602.133 1005.778,602.133 976.375 C 602.133 936.439,627.706 908.125,668.000 903.445 C 680.100 902.040,792.600 901.140,918.000 901.445 L 1146.000 902.000 1161.269 911.493 M1886.880 1541.000 C 1880.021 1546.159,1849.380 1608.939,1802.148 1714.609 L 1775.057 1775.219 1706.529 1806.254 C 1533.530 1884.601,1531.051 1886.107,1538.156 1908.492 C 1540.972 1917.365,1590.259 1942.331,1714.554 1997.847 L 1775.107 2024.893 1802.153 2085.446 C 1857.669 2209.741,1882.635 2259.028,1891.508 2261.844 C 1913.734 2268.898,1922.130 2254.970,1997.847 2085.446 L 2024.893 2024.893 2085.446 1997.847 C 2209.741 1942.331,2259.028 1917.365,2261.844 1908.492 C 2268.949 1886.107,2266.470 1884.601,2093.471 1806.254 L 2024.943 1775.219 1997.852 1714.609 C 1950.620 1608.939,1919.979 1546.159,1913.120 1541.000 C 1909.463 1538.250,1903.559 1536.000,1900.000 1536.000 C 1896.441 1536.000,1890.537 1538.250,1886.880 1541.000 " fill="#1D1E23" stroke="none" fill-rule="evenodd"/></svg>