<svg viewBox="0 0 2400 2400" fill="none" xmlns="http://www.w3.org/2000/svg"><path d="M1883.030 143.000 C 1879.615 146.850,1853.870 200.693,1825.819 262.652 L 1774.818 375.303 1662.409 426.196 C 1600.584 454.187,1546.850 479.823,1543.000 483.164 C 1539.150 486.506,1536.000 494.082,1536.000 500.000 C 1536.000 505.918,1539.150 513.554,1543.000 516.970 C 1546.850 520.385,1600.618 546.096,1662.485 574.105 L 1774.969 625.031 1825.895 737.515 C 1853.904 799.382,1879.615 853.150,1883.030 857.000 C 1886.446 860.850,1894.082 864.000,1900.000 864.000 C 1905.918 864.000,1913.554 860.850,1916.970 857.000 C 1920.385 853.150,1946.096 799.382,1974.105 737.515 L 2025.031 625.031 2137.515 574.105 C 2199.382 546.096,2253.150 520.385,2257.000 516.970 C 2260.850 513.554,2264.000 505.918,2264.000 500.000 C 2264.000 494.082,2260.850 486.506,2257.000 483.164 C 2253.150 479.823,2199.416 454.187,2137.591 426.196 L 2025.182 375.303 1974.181 262.652 C 1946.130 200.693,1920.385 146.850,1916.970 143.000 C 1913.554 139.150,1905.918 136.000,1900.000 136.000 C 1894.082 136.000,1886.446 139.150,1883.030 143.000 M820.022 404.359 C 670.641 418.732,520.607 480.076,400.000 576.092 C 361.585 606.674,294.902 674.030,267.430 710.000 C 159.440 851.390,100.000 1025.349,100.000 1200.000 C 100.000 1381.033,164.310 1562.235,278.875 1704.000 C 307.500 1739.421,376.073 1806.658,410.000 1832.570 C 551.309 1940.498,725.325 1999.934,900.000 1999.934 C 1074.675 1999.934,1248.691 1940.498,1390.000 1832.570 C 1423.927 1806.658,1492.500 1739.421,1521.125 1704.000 C 1635.635 1562.303,1699.934 1381.065,1699.934 1200.000 C 1699.934 995.885,1620.381 797.015,1480.075 650.390 C 1306.993 469.514,1068.150 380.486,820.022 404.359 M1154.000 907.560 C 1220.709 938.348,1211.378 1031.210,1139.920 1047.675 C 1130.064 1049.946,1094.550 1051.848,1061.000 1051.902 L 1000.000 1052.000 999.912 1271.000 C 999.830 1476.245,999.355 1491.034,992.348 1506.464 C 978.573 1536.797,948.007 1551.804,900.000 1551.804 C 851.993 1551.804,821.427 1536.797,807.652 1506.464 C 800.645 1491.034,800.170 1476.245,800.088 1271.000 L 800.000 1052.000 739.000 1051.902 C 705.450 1051.848,669.936 1049.946,660.080 1047.675 C 588.622 1031.210,579.291 938.348,646.000 907.560 C 660.988 900.643,677.057 900.176,900.000 900.176 C 1122.943 900.176,1139.012 900.643,1154.000 907.560 M1883.030 1543.000 C 1879.615 1546.850,1853.870 1600.693,1825.819 1662.652 L 1774.818 1775.303 1662.409 1826.196 C 1600.584 1854.187,1546.850 1879.823,1543.000 1883.164 C 1539.150 1886.506,1536.000 1894.082,1536.000 1900.000 C 1536.000 1905.918,1539.150 1913.554,1543.000 1916.970 C 1546.850 1920.385,1600.618 1946.096,1662.485 1974.105 L 1774.969 2025.031 1825.895 2137.515 C 1853.904 2199.382,1879.615 2253.150,1883.030 2257.000 C 1886.446 2260.850,1894.082 2264.000,1900.000 2264.000 C 1905.918 2264.000,1913.554 2260.850,1916.970 2257.000 C 1920.385 2253.150,1946.096 2199.382,1974.105 2137.515 L 2025.031 2025.031 2137.515 1974.105 C 2199.382 1946.096,2253.150 1920.385,2257.000 1916.970 C 2260.850 1913.554,2264.000 1905.918,2264.000 1900.000 C 2264.000 1894.082,2260.850 1886.506,2257.000 1883.164 C 2253.150 1879.823,2199.416 1854.187,2137.591 1826.196 L 2025.182 1775.303 1974.181 1662.652 C 1946.130 1600.693,1920.385 1546.850,1916.970 1543.000 C 1913.554 1539.150,1905.918 1536.000,1900.000 1536.000 C 1894.082 1536.000,1886.446 1539.150,1883.030 1543.000 " fill="#1D1E23" stroke="none" fill-rule="evenodd"/></svg>