<svg viewBox="0 0 2400 2400" fill="none" xmlns="http://www.w3.org/2000/svg"><path d="M900 400C458 400 100 758 100 1200C100 1642 458 2000 900 2000C1342 2000 1700 1642 1700 1200C1700 758 1342 400 900 400ZM1200 975C1200 1016.42 1166.42 1050 1125 1050H1000V1475C1000 1516.42 966.421 1550 925 1550H875C833.579 1550 800 1516.42 800 1475V1050H675C633.579 1050 600 1016.42 600 975C600 933.579 633.579 900 675 900H1125C1166.42 900 1200 933.579 1200 975ZM2025 375L2249.93 477.241C2269.47 486.123 2269.47 513.877 2249.93 522.759L2025 625L1922.76 849.93C1913.88 869.47 1886.12 869.47 1877.24 849.93L1775 625L1550.07 522.759C1530.53 513.877 1530.53 486.123 1550.07 477.241L1775 375L1877.24 150.07C1886.12 130.53 1913.88 130.53 1922.76 150.07L2025 375ZM2025 1775L2249.93 1877.24C2269.47 1886.12 2269.47 1913.88 2249.93 1922.76L2025 2025L1922.76 2249.93C1913.88 2269.47 1886.12 2269.47 1877.24 2249.93L1775 2025L1550.07 1922.76C1530.53 1913.88 1530.53 1886.12 1550.07 1877.24L1775 1775L1877.24 1550.07C1886.12 1530.53 1913.88 1530.53 1922.76 1550.07L2025 1775Z" fill="#1D1E23"/></svg>