<svg viewBox="0 0 2400 2400" fill="none" xmlns="http://www.w3.org/2000/svg"><path d="M1888.629 143.000 C 1879.692 150.577,1835.498 238.157,1797.893 322.815 L 1774.432 375.630 1748.216 387.374 C 1628.397 441.047,1541.816 485.498,1538.068 495.265 C 1533.574 506.978,1555.086 521.320,1636.000 560.558 C 1681.100 582.428,1731.285 607.000,1747.522 615.161 L 1777.044 630.000 1807.873 698.000 C 1860.947 815.064,1887.665 864.000,1898.506 864.000 C 1911.226 864.000,1955.328 784.277,2003.810 673.643 L 2025.001 625.286 2077.500 602.057 C 2155.139 567.706,2245.739 520.922,2256.212 509.774 L 2265.395 500.000 2256.454 490.483 C 2247.122 480.550,2172.599 442.526,2079.464 400.179 L 2024.928 375.382 1999.914 318.691 C 1961.381 231.361,1916.970 144.801,1908.325 140.174 C 1898.257 134.786,1898.331 134.775,1888.629 143.000 M782.843 410.011 C 547.770 448.162,334.049 592.244,213.995 793.505 C 171.745 864.334,131.947 966.257,115.871 1044.800 C 98.999 1127.235,98.254 1255.831,114.163 1339.632 C 148.575 1520.895,242.501 1686.080,377.178 1802.188 C 487.599 1897.384,610.903 1956.135,766.628 1987.751 C 800.502 1994.629,822.115 1995.997,896.628 1995.984 C 1016.409 1995.962,1076.412 1985.374,1183.572 1945.349 C 1343.646 1885.560,1482.356 1770.517,1577.568 1618.576 C 1660.898 1485.596,1705.343 1321.614,1698.607 1172.000 C 1691.064 1004.479,1629.737 838.962,1525.946 706.000 C 1497.321 669.330,1433.234 604.984,1398.000 577.537 C 1295.222 497.475,1174.609 443.871,1034.000 415.765 C 976.897 404.351,837.409 401.155,782.843 410.011 M1166.809 917.909 C 1187.998 936.045,1197.405 959.242,1193.902 984.715 C 1186.783 1036.471,1153.556 1051.740,1047.648 1051.921 L 1001.295 1052.000 998.527 1277.000 L 995.759 1502.000 984.455 1516.000 C 965.648 1539.293,950.900 1545.504,910.173 1547.280 C 863.299 1549.324,843.569 1543.860,821.408 1522.697 L 803.923 1506.000 801.314 1279.541 L 798.705 1053.081 734.353 1050.823 C 698.959 1049.581,663.458 1046.611,655.463 1044.222 C 623.434 1034.654,607.275 1011.956,606.936 976.058 C 606.687 949.582,618.720 924.051,635.505 915.440 C 649.888 908.060,719.898 905.720,954.280 904.784 L 1150.560 904.000 1166.809 917.909 M1888.629 1543.000 C 1879.692 1550.577,1835.498 1638.157,1797.893 1722.815 L 1774.432 1775.630 1748.216 1787.374 C 1628.397 1841.047,1541.816 1885.498,1538.068 1895.265 C 1533.574 1906.978,1555.086 1921.320,1636.000 1960.558 C 1681.100 1982.428,1731.285 2007.000,1747.522 2015.161 L 1777.044 2030.000 1807.873 2098.000 C 1860.947 2215.064,1887.665 2264.000,1898.506 2264.000 C 1911.226 2264.000,1955.328 2184.277,2003.810 2073.643 L 2025.001 2025.286 2077.500 2002.057 C 2155.139 1967.706,2245.739 1920.922,2256.212 1909.774 L 2265.395 1900.000 2256.454 1890.483 C 2247.122 1880.550,2172.599 1842.526,2079.464 1800.179 L 2024.928 1775.382 1999.914 1718.691 C 1961.381 1631.361,1916.970 1544.801,1908.325 1540.174 C 1898.257 1534.786,1898.331 1534.775,1888.629 1543.000 " fill="#1D1E23" stroke="none" fill-rule="evenodd"/></svg>