<svg viewBox="0 0 2400 2400" fill="none" xmlns="http://www.w3.org/2000/svg"><path d="M1882.187 149.400 C 1872.984 161.465,1831.049 248.524,1790.126 340.521 L 1774.770 375.042 1681.556 417.993 C 1577.327 466.019,1538.680 487.039,1536.816 496.716 C 1533.901 511.851,1577.542 536.640,1718.909 600.150 C 1771.212 623.647,1776.280 626.861,1781.532 639.858 C 1784.675 647.636,1804.507 691.423,1825.604 737.162 C 1866.275 825.339,1888.237 864.000,1897.659 864.000 C 1912.578 864.000,1946.766 802.813,2001.731 677.741 L 2024.697 625.483 2081.348 600.033 C 2222.430 536.654,2266.097 511.843,2263.184 496.716 C 2261.319 487.033,2222.662 466.014,2118.161 417.862 L 2024.663 374.781 2000.024 319.099 C 1964.267 238.292,1925.623 159.143,1915.880 146.756 C 1904.595 132.409,1894.544 133.198,1882.187 149.400 M826.455 404.345 C 619.415 423.851,415.031 533.803,279.760 698.450 C 203.230 791.598,142.918 918.067,116.376 1041.049 C 96.710 1132.174,97.419 1269.603,118.027 1360.896 C 167.422 1579.713,287.506 1754.385,470.000 1872.871 C 546.765 1922.711,653.271 1964.619,758.667 1986.454 C 805.473 1996.150,817.938 1997.082,900.000 1997.014 C 998.589 1996.934,1031.073 1992.551,1118.186 1967.579 C 1338.965 1904.289,1514.279 1756.486,1618.235 1546.000 C 1727.138 1325.497,1726.366 1075.404,1616.085 850.000 C 1538.611 691.649,1421.079 572.249,1264.000 492.315 C 1130.166 424.210,965.979 391.200,826.455 404.345 M1163.185 913.936 C 1191.610 932.747,1202.867 968.865,1190.443 1001.397 C 1175.478 1040.583,1154.880 1048.889,1067.000 1051.178 L 1000.000 1052.923 1000.000 1169.812 C 1000.000 1234.100,998.809 1335.670,997.353 1395.522 L 994.706 1504.343 979.648 1521.450 C 961.222 1542.384,944.374 1548.000,900.000 1548.000 C 856.426 1548.000,839.236 1542.405,820.560 1522.144 L 805.324 1505.615 802.662 1402.159 C 801.198 1345.258,800.000 1243.402,800.000 1175.813 L 800.000 1052.923 733.000 1051.178 C 662.246 1049.335,644.515 1045.394,625.155 1027.206 C 603.016 1006.408,598.534 962.134,615.767 934.481 C 625.901 918.221,637.868 910.981,660.000 907.721 C 669.900 906.262,783.789 904.828,913.086 904.534 L 1148.172 904.000 1163.185 913.936 M1882.187 1549.400 C 1872.984 1561.465,1831.049 1648.524,1790.126 1740.521 L 1774.770 1775.042 1681.556 1817.993 C 1577.327 1866.019,1538.680 1887.039,1536.816 1896.716 C 1533.901 1911.851,1577.542 1936.640,1718.909 2000.150 C 1771.212 2023.647,1776.280 2026.861,1781.532 2039.858 C 1784.675 2047.636,1804.507 2091.423,1825.604 2137.162 C 1866.275 2225.339,1888.237 2264.000,1897.659 2264.000 C 1912.578 2264.000,1946.766 2202.813,2001.731 2077.741 L 2024.697 2025.483 2081.348 2000.033 C 2222.430 1936.654,2266.097 1911.843,2263.184 1896.716 C 2261.319 1887.033,2222.662 1866.014,2118.161 1817.862 L 2024.663 1774.781 2000.024 1719.099 C 1964.267 1638.292,1925.623 1559.143,1915.880 1546.756 C 1904.595 1532.409,1894.544 1533.198,1882.187 1549.400 " fill="#1D1E23" stroke="none" fill-rule="evenodd"/></svg>