<svg viewBox="0 0 2400 2400" fill="none" xmlns="http://www.w3.org/2000/svg"><path d="M1152.663 310.136 C 1119.894 317.248,1096.423 331.196,1062.798 363.539 C 1043.186 382.402,1031.466 398.057,1020.798 419.641 L 1006.000 449.578 1003.375 571.789 C 1001.931 639.005,1000.581 840.301,1000.375 1019.114 L 1000.000 1344.228 1011.945 1367.891 C 1046.434 1436.214,1100.749 1481.032,1165.532 1494.626 C 1228.982 1507.939,1290.219 1485.923,1342.579 1430.974 C 1370.199 1401.988,1380.143 1386.432,1390.508 1356.000 C 1397.652 1335.022,1398.000 1313.567,1398.000 894.000 L 1398.000 454.000 1383.250 423.832 C 1356.889 369.917,1299.083 322.801,1243.898 310.250 C 1211.028 302.774,1186.721 302.743,1152.663 310.136 M1155.612 1707.959 C 1125.659 1713.176,1091.173 1733.757,1060.782 1764.553 C 998.556 1827.608,984.579 1913.433,1024.377 1988.102 C 1040.227 2017.840,1086.731 2062.915,1116.386 2077.284 C 1141.306 2089.358,1179.841 2100.000,1198.644 2100.000 C 1246.269 2100.000,1295.780 2077.083,1336.089 2036.382 C 1376.578 1995.498,1400.000 1945.055,1400.000 1898.737 C 1400.000 1820.718,1330.189 1731.778,1254.000 1712.734 C 1230.577 1706.879,1176.797 1704.269,1155.612 1707.959 " fill="#1D1E23" stroke="none" fill-rule="evenodd"/></svg>