<svg viewBox="0 0 2400 2400" fill="none" xmlns="http://www.w3.org/2000/svg"><path d="M1152.000 309.470 C 1119.755 316.503,1089.406 334.565,1060.000 364.221 C 1032.213 392.245,1014.965 421.704,1007.436 454.000 C 1004.094 468.338,1002.318 596.884,1001.162 908.088 L 999.550 1342.175 1015.895 1374.832 C 1033.418 1409.840,1069.229 1450.811,1098.000 1468.765 C 1177.358 1518.287,1270.252 1505.437,1340.492 1435.222 C 1372.923 1402.803,1390.882 1368.824,1396.303 1329.626 C 1398.590 1313.092,1399.697 1132.570,1399.062 880.000 L 1398.000 458.000 1384.295 426.204 C 1373.299 400.691,1365.000 388.826,1342.295 366.159 C 1289.129 313.079,1224.167 293.727,1152.000 309.470 M1150.471 1708.233 C 1122.948 1715.078,1086.614 1737.135,1062.000 1761.939 C 1005.723 1818.652,987.185 1894.367,1012.722 1963.203 C 1045.186 2050.714,1142.616 2111.454,1227.263 2096.955 C 1304.906 2083.655,1375.638 2016.851,1393.841 1939.628 C 1401.527 1907.019,1401.535 1887.654,1393.873 1857.840 C 1376.727 1791.118,1327.143 1737.061,1261.755 1713.803 C 1238.799 1705.638,1173.955 1702.392,1150.471 1708.233 " fill="#1D1E23" stroke="none" fill-rule="evenodd"/></svg>