<svg viewBox="0 0 2400 2400" fill="none" xmlns="http://www.w3.org/2000/svg"><path d="M1000.000 900.000 L 1000.000 1500.000 1200.000 1500.000 L 1400.000 1500.000 1400.000 900.000 L 1400.000 300.000 1200.000 300.000 L 1000.000 300.000 1000.000 900.000 M1155.612 1707.959 C 1125.659 1713.176,1091.173 1733.757,1060.782 1764.553 C 998.556 1827.608,984.579 1913.433,1024.377 1988.102 C 1040.227 2017.840,1086.731 2062.915,1116.386 2077.284 C 1141.306 2089.358,1179.841 2100.000,1198.644 2100.000 C 1246.269 2100.000,1295.780 2077.083,1336.089 2036.382 C 1376.578 1995.498,1400.000 1945.055,1400.000 1898.737 C 1400.000 1820.718,1330.189 1731.778,1254.000 1712.734 C 1230.577 1706.879,1176.797 1704.269,1155.612 1707.959 " fill="#1D1E23" stroke="none" fill-rule="evenodd"/></svg>