<svg viewBox="0 0 2400 2400" fill="none" xmlns="http://www.w3.org/2000/svg"><path fill-rule="evenodd" d="M717.797 864.153C597.511 864.153 500 961.664 500 1081.95V1953.39C500 2073.68 597.511 2171.19 717.797 2171.19H1588.99C1709.27 2171.19 1806.78 2073.68 1806.78 1953.39V1081.95C1806.78 961.664 1709.27 864.153 1588.99 864.153H717.797ZM717.797 971.188C657.654 971.188 608.899 1019.94 608.899 1080.09V1953.39C608.899 2013.53 657.654 2062.29 717.797 2062.29H1588.99C1649.13 2062.29 1697.88 2013.53 1697.88 1953.39V1080.09C1697.88 1019.94 1649.13 971.188 1588.99 971.188H717.797Z" fill="black"/><path d="M717.71 406.445C717.699 347.66 765.351 300 824.136 300 882.906 300 930.551 347.637 930.562 406.407L930.649 898.942H717.797L717.71 406.445ZM1371.19 835.594C1371.19 775.451 1419.94 726.696 1480.09 726.696 1540.23 726.696 1588.99 775.451 1588.99 835.594V898.942H1371.19V835.594Z" fill="black"/><path fill-rule="evenodd" d="M826.696 1171.19C766.553 1171.19 717.797 1219.94 717.797 1280.09V1497.88C717.797 1558.03 766.553 1606.78 826.696 1606.78H1480.09C1540.23 1606.78 1588.99 1558.03 1588.99 1497.88V1280.09C1588.99 1219.94 1540.23 1171.19 1480.09 1171.19H826.696Z" fill="black"/></svg>