<svg viewBox="0 0 2400 2400" fill="none" xmlns="http://www.w3.org/2000/svg"><path d="M795.974 303.497 C 766.082 313.306,737.570 338.484,725.195 366.000 C 718.570 380.733,717.909 401.031,716.854 622.306 L 715.707 862.611 684.973 867.389 C 618.875 877.665,557.027 921.484,526.426 979.717 C 498.969 1031.969,500.125 1008.421,500.059 1516.803 C 500.018 1838.512,501.330 1981.940,504.451 1996.803 C 513.061 2037.806,533.381 2074.316,564.904 2105.424 C 598.777 2138.851,623.444 2153.116,666.342 2164.087 C 696.283 2171.745,711.923 2171.998,1151.640 2171.931 C 1536.190 2171.872,1610.302 2170.956,1634.000 2165.972 C 1716.699 2148.577,1784.435 2080.552,1802.109 1997.147 C 1810.643 1956.873,1810.674 1079.275,1802.143 1039.017 C 1782.462 946.146,1705.764 876.378,1611.485 865.589 L 1588.971 863.013 1587.156 831.659 C 1585.662 805.857,1583.259 796.940,1573.585 781.291 C 1532.369 714.626,1440.371 709.470,1393.298 771.187 C 1377.721 791.610,1372.052 810.211,1372.022 841.000 L 1372.000 864.000 1152.120 864.000 L 932.239 864.000 931.120 623.000 C 930.022 386.810,929.830 381.641,921.503 364.000 C 911.148 342.062,891.841 322.122,870.329 311.148 C 852.873 302.242,812.470 298.085,795.974 303.497 M1640.451 984.847 C 1663.781 998.562,1681.169 1018.275,1689.610 1040.579 C 1695.620 1056.459,1696.106 1099.039,1695.102 1522.000 C 1694.056 1962.396,1693.628 1986.749,1686.678 2000.718 C 1676.263 2021.654,1653.563 2043.698,1632.279 2053.544 C 1614.006 2061.997,1613.844 2062.000,1154.000 2062.000 L 694.000 2062.000 671.184 2050.796 C 646.870 2038.856,633.006 2025.004,618.809 1998.466 L 610.000 1982.000 610.000 1520.000 C 610.000 1137.039,610.946 1055.320,615.529 1042.337 C 623.174 1020.680,650.097 992.620,674.000 981.397 L 694.000 972.007 1158.000 973.004 L 1622.000 974.000 1640.451 984.847 M795.974 1175.737 C 776.711 1181.597,761.288 1191.605,746.790 1207.652 C 717.785 1239.757,718.000 1238.409,718.000 1388.283 L 718.000 1522.566 730.042 1546.111 C 737.512 1560.718,748.588 1574.618,759.218 1582.726 C 793.271 1608.699,782.354 1608.000,1154.000 1608.000 C 1535.276 1608.000,1518.110 1609.313,1552.064 1577.553 C 1562.899 1567.418,1574.865 1551.050,1579.764 1539.662 C 1588.125 1520.226,1588.352 1515.430,1587.194 1382.806 L 1586.000 1246.000 1575.004 1227.294 C 1568.956 1217.006,1557.357 1203.107,1549.228 1196.406 C 1518.503 1171.080,1533.109 1171.966,1152.287 1172.344 C 961.829 1172.533,801.488 1174.060,795.974 1175.737 " stroke="none" fill-rule="evenodd"/></svg>