<svg viewBox="0 0 2400 2400" fill="none" xmlns="http://www.w3.org/2000/svg"><path d="M289.736 203.597 C 258.254 206.727,245.319 213.841,222.378 240.642 C 200.540 266.156,199.274 279.161,200.747 462.981 C 202.199 644.332,201.853 641.875,229.803 669.021 C 251.775 690.359,269.854 697.761,300.000 697.761 C 330.146 697.761,348.225 690.359,370.197 669.021 C 396.868 643.118,397.669 638.824,399.237 513.322 L 400.645 400.645 513.322 399.237 C 638.824 397.669,643.118 396.868,669.021 370.197 C 676.905 362.078,686.597 348.813,690.559 340.718 C 700.306 320.799,700.245 279.078,690.438 259.028 C 680.223 238.142,653.988 213.040,636.610 207.522 C 619.850 202.201,336.073 198.990,289.736 203.597 M1800.000 202.521 C 1763.414 205.588,1755.254 208.523,1737.304 225.069 C 1711.400 248.946,1702.299 268.419,1702.283 300.000 C 1702.263 338.380,1721.867 369.817,1758.000 389.351 C 1773.136 397.533,1780.087 398.069,1886.677 399.276 L 1999.354 400.552 2000.763 513.276 C 2002.331 638.829,2003.131 643.117,2029.803 669.021 C 2037.922 676.905,2051.187 686.597,2059.282 690.559 C 2079.201 700.306,2120.922 700.245,2140.972 690.438 C 2161.528 680.384,2186.468 654.538,2192.769 636.761 C 2200.384 615.272,2200.317 284.544,2192.693 263.008 C 2185.768 243.450,2155.616 213.536,2136.823 207.581 C 2122.559 203.060,1843.555 198.869,1800.000 202.521 M500.000 800.000 L 500.000 1100.000 800.000 1100.000 L 1100.000 1100.000 1100.000 800.000 L 1100.000 500.000 800.000 500.000 L 500.000 500.000 500.000 800.000 M1300.000 800.000 L 1300.000 1100.000 1600.000 1100.000 L 1900.000 1100.000 1900.000 800.000 L 1900.000 500.000 1600.000 500.000 L 1300.000 500.000 1300.000 800.000 M948.000 802.000 L 948.000 952.000 800.000 952.000 L 652.000 952.000 652.000 802.000 L 652.000 652.000 800.000 652.000 L 948.000 652.000 948.000 802.000 M1748.000 802.000 L 1748.000 952.000 1600.000 952.000 L 1452.000 952.000 1452.000 802.000 L 1452.000 652.000 1600.000 652.000 L 1748.000 652.000 1748.000 802.000 M500.000 1600.000 L 500.000 1900.000 800.000 1900.000 L 1100.000 1900.000 1100.000 1600.000 L 1100.000 1300.000 800.000 1300.000 L 500.000 1300.000 500.000 1600.000 M1300.000 1376.000 L 1300.000 1452.000 1374.000 1452.000 L 1448.000 1452.000 1448.000 1526.000 L 1448.000 1600.000 1374.000 1600.000 L 1300.000 1600.000 1300.000 1676.000 L 1300.000 1752.000 1374.000 1752.000 L 1448.000 1752.000 1448.000 1826.000 L 1448.000 1900.000 1524.000 1900.000 L 1600.000 1900.000 1600.000 1826.000 L 1600.000 1752.000 1674.000 1752.000 L 1748.000 1752.000 1748.000 1826.000 L 1748.000 1900.000 1824.000 1900.000 L 1900.000 1900.000 1900.000 1826.000 L 1900.000 1752.000 1826.000 1752.000 L 1752.000 1752.000 1752.000 1676.000 L 1752.000 1600.000 1826.000 1600.000 L 1900.000 1600.000 1900.000 1526.000 L 1900.000 1452.000 1826.000 1452.000 L 1752.000 1452.000 1752.000 1376.000 L 1752.000 1300.000 1676.000 1300.000 L 1600.000 1300.000 1600.000 1376.000 L 1600.000 1452.000 1526.000 1452.000 L 1452.000 1452.000 1452.000 1376.000 L 1452.000 1300.000 1376.000 1300.000 L 1300.000 1300.000 1300.000 1376.000 M948.000 1602.000 L 948.000 1752.000 800.000 1752.000 L 652.000 1752.000 652.000 1602.000 L 652.000 1452.000 800.000 1452.000 L 948.000 1452.000 948.000 1602.000 M1748.000 1526.000 L 1748.000 1600.000 1674.000 1600.000 L 1600.000 1600.000 1600.000 1676.000 L 1600.000 1752.000 1526.000 1752.000 L 1452.000 1752.000 1452.000 1676.000 L 1452.000 1600.000 1526.000 1600.000 L 1600.000 1600.000 1600.000 1526.000 L 1600.000 1452.000 1674.000 1452.000 L 1748.000 1452.000 1748.000 1526.000 M272.308 1704.611 C 258.998 1707.721,248.951 1714.409,231.749 1731.611 C 199.320 1764.040,199.163 1765.213,200.747 1962.981 C 202.212 2145.916,201.637 2142.070,231.906 2171.445 C 259.390 2198.117,258.426 2198.000,450.000 2198.000 C 641.393 2198.000,641.013 2198.046,667.318 2171.741 C 690.048 2149.011,697.761 2130.835,697.761 2100.000 C 697.761 2069.854,690.359 2051.775,669.021 2029.803 C 643.437 2003.461,638.737 2002.585,513.322 2000.795 L 400.643 1999.188 399.236 1886.594 C 397.687 1762.614,396.764 1757.379,372.109 1732.725 C 345.964 1706.579,308.752 1696.097,272.308 1704.611 M2072.308 1704.611 C 2059.008 1707.718,2048.955 1714.405,2031.817 1731.543 C 2001.570 1761.790,2000.000 1769.992,2000.000 1897.787 L 2000.000 1999.180 1887.000 2000.792 C 1761.230 2002.585,1756.572 2003.452,1730.979 2029.803 C 1723.095 2037.922,1713.403 2051.187,1709.441 2059.282 C 1699.694 2079.201,1699.755 2120.922,1709.562 2140.972 C 1719.616 2161.528,1745.462 2186.468,1763.239 2192.769 C 1784.728 2200.384,2115.456 2200.317,2136.992 2192.693 C 2156.261 2185.871,2185.871 2156.261,2192.693 2136.992 C 2200.261 2115.613,2200.389 1784.735,2192.837 1763.446 C 2177.565 1720.397,2121.623 1693.089,2072.308 1704.611 " fill="#1D1E23" stroke="none" fill-rule="evenodd"/></svg>