<svg viewBox="0 0 2400 2400" fill="none" xmlns="http://www.w3.org/2000/svg"><path d="M1809.095 204.037 C 1752.593 208.871,1726.831 225.102,1709.384 266.858 C 1693.566 304.715,1711.821 358.444,1748.106 380.827 C 1774.341 397.010,1798.649 400.000,1903.990 400.000 L 1998.888 400.000 2001.079 507.000 C 2003.682 634.105,2006.240 646.729,2034.410 671.525 C 2057.543 691.887,2073.958 697.244,2107.427 695.353 C 2130.000 694.077,2137.003 691.777,2152.767 680.456 C 2163.021 673.092,2177.225 659.832,2184.331 650.989 L 2197.251 634.912 2197.292 449.807 L 2197.332 264.701 2180.161 244.192 C 2155.809 215.107,2147.379 211.843,2086.531 207.940 C 2005.113 202.718,1850.022 200.536,1809.095 204.037 M309.692 207.417 C 265.941 209.756,259.813 211.041,244.726 221.034 C 235.564 227.103,223.284 239.298,217.436 248.134 C 207.672 262.889,206.497 269.172,203.044 325.100 C 198.835 393.290,201.953 605.914,207.499 628.850 C 212.320 648.787,233.296 674.458,252.966 684.493 C 273.655 695.047,307.024 698.433,329.191 692.227 C 338.760 689.547,354.969 680.193,365.211 671.438 C 393.533 647.229,396.083 634.806,398.857 507.546 L 401.178 401.091 507.589 398.910 C 634.261 396.314,646.722 393.768,671.721 365.368 C 691.620 342.761,697.672 322.255,694.522 288.106 C 691.784 258.422,679.671 238.094,653.652 219.525 L 638.000 208.354 498.000 206.594 C 421.000 205.626,336.261 205.996,309.692 207.417 M500.000 800.000 L 500.000 1100.000 800.000 1100.000 L 1100.000 1100.000 1100.000 800.000 L 1100.000 500.000 800.000 500.000 L 500.000 500.000 500.000 800.000 M1300.000 800.000 L 1300.000 1100.000 1600.000 1100.000 L 1900.000 1100.000 1900.000 800.000 L 1900.000 500.000 1600.000 500.000 L 1300.000 500.000 1300.000 800.000 M948.000 802.000 L 948.000 952.000 800.000 952.000 L 652.000 952.000 652.000 802.000 L 652.000 652.000 800.000 652.000 L 948.000 652.000 948.000 802.000 M1748.000 802.000 L 1748.000 952.000 1600.000 952.000 L 1452.000 952.000 1452.000 802.000 L 1452.000 652.000 1600.000 652.000 L 1748.000 652.000 1748.000 802.000 M500.000 1600.000 L 500.000 1900.000 800.000 1900.000 L 1100.000 1900.000 1100.000 1600.000 L 1100.000 1300.000 800.000 1300.000 L 500.000 1300.000 500.000 1600.000 M1300.000 1376.000 L 1300.000 1452.000 1374.000 1452.000 L 1448.000 1452.000 1448.000 1526.000 L 1448.000 1600.000 1374.000 1600.000 L 1300.000 1600.000 1300.000 1676.000 L 1300.000 1752.000 1374.000 1752.000 L 1448.000 1752.000 1448.000 1826.000 L 1448.000 1900.000 1524.000 1900.000 L 1600.000 1900.000 1600.000 1826.000 L 1600.000 1752.000 1674.000 1752.000 L 1748.000 1752.000 1748.000 1826.000 L 1748.000 1900.000 1824.000 1900.000 L 1900.000 1900.000 1900.000 1826.000 L 1900.000 1752.000 1826.000 1752.000 L 1752.000 1752.000 1752.000 1676.000 L 1752.000 1600.000 1826.000 1600.000 L 1900.000 1600.000 1900.000 1526.000 L 1900.000 1452.000 1826.000 1452.000 L 1752.000 1452.000 1752.000 1376.000 L 1752.000 1300.000 1676.000 1300.000 L 1600.000 1300.000 1600.000 1376.000 L 1600.000 1452.000 1526.000 1452.000 L 1452.000 1452.000 1452.000 1376.000 L 1452.000 1300.000 1376.000 1300.000 L 1300.000 1300.000 1300.000 1376.000 M948.000 1602.000 L 948.000 1752.000 800.000 1752.000 L 652.000 1752.000 652.000 1602.000 L 652.000 1452.000 800.000 1452.000 L 948.000 1452.000 948.000 1602.000 M1748.000 1526.000 L 1748.000 1600.000 1674.000 1600.000 L 1600.000 1600.000 1600.000 1676.000 L 1600.000 1752.000 1526.000 1752.000 L 1452.000 1752.000 1452.000 1676.000 L 1452.000 1600.000 1526.000 1600.000 L 1600.000 1600.000 1600.000 1526.000 L 1600.000 1452.000 1674.000 1452.000 L 1748.000 1452.000 1748.000 1526.000 M261.911 1711.241 C 240.140 1721.460,220.702 1741.712,209.431 1765.916 C 200.380 1785.351,200.089 1789.230,200.399 1886.000 C 200.575 1941.000,201.907 2019.598,203.360 2060.662 L 206.000 2135.323 218.112 2152.550 C 224.773 2162.025,237.423 2174.837,246.223 2181.021 C 261.409 2191.695,265.470 2192.456,326.111 2196.008 C 407.030 2200.747,523.477 2200.810,587.610 2196.150 C 633.128 2192.843,638.543 2191.588,653.262 2180.925 C 662.085 2174.534,674.861 2161.634,681.652 2152.258 C 693.223 2136.285,694.000 2132.998,694.000 2100.000 C 694.000 2066.935,693.237 2063.726,681.496 2047.394 C 674.619 2037.827,661.021 2025.009,651.279 2018.908 C 634.429 2008.357,630.067 2007.631,561.783 2004.004 C 522.302 2001.907,470.009 2000.148,445.575 2000.095 L 401.151 2000.000 398.839 1891.000 C 396.428 1777.323,394.009 1759.755,378.177 1740.940 C 353.094 1711.131,294.196 1696.086,261.911 1711.241 M2059.436 1711.780 C 2038.245 1723.367,2020.093 1743.019,2009.431 1765.916 C 2000.365 1785.385,2000.077 1789.277,2000.039 1893.000 L 2000.000 2000.000 1957.000 2000.114 C 1933.350 2000.176,1880.829 2001.916,1840.286 2003.979 C 1769.780 2007.568,1765.794 2008.216,1748.676 2018.866 C 1738.832 2024.990,1725.204 2036.917,1718.389 2045.371 C 1706.523 2060.093,1706.000 2062.314,1706.000 2098.018 C 1706.000 2133.050,1706.729 2136.333,1718.112 2152.536 C 1724.773 2162.018,1737.735 2175.056,1746.915 2181.508 C 1761.812 2191.978,1768.468 2193.641,1808.803 2196.974 C 1833.662 2199.028,1916.592 2199.865,1993.093 2198.834 L 2132.185 2196.960 2148.303 2185.790 C 2164.651 2174.461,2182.509 2154.179,2192.141 2136.000 C 2196.349 2128.059,2197.237 2090.579,2196.451 1954.000 C 2195.857 1850.699,2193.782 1775.209,2191.255 1764.997 C 2183.662 1734.304,2144.308 1709.236,2098.127 1705.676 C 2079.103 1704.209,2070.919 1705.501,2059.436 1711.780 " fill="#1D1E23" stroke="none" fill-rule="evenodd"/></svg>