<svg viewBox="0 0 2400 2400" fill="none" xmlns="http://www.w3.org/2000/svg"><path d="M1321.960 303.945 C 1283.152 309.652,1243.634 335.289,1214.558 373.622 C 1183.246 414.902,1167.646 455.073,1136.378 574.945 C 1115.231 656.016,1111.993 664.277,1091.114 690.420 C 1083.901 699.451,1060.793 728.251,1039.762 754.420 C 1018.732 780.589,980.354 829.329,954.479 862.731 C 928.603 896.133,896.841 935.021,883.896 949.148 L 860.360 974.834 667.871 976.888 L 475.382 978.941 452.851 994.471 C 418.293 1018.290,408.436 1035.143,403.913 1078.147 C 401.807 1098.168,400.111 1300.375,400.071 1536.062 L 400.000 1958.124 409.182 1975.290 C 423.981 2002.959,437.397 2017.298,460.405 2030.040 L 482.000 2042.000 624.000 2042.000 L 766.000 2042.000 787.435 2030.127 C 811.616 2016.734,833.595 1993.219,840.954 1972.868 L 845.903 1959.182 869.342 1961.834 C 902.497 1965.585,951.238 1980.417,1029.921 2010.701 C 1222.590 2084.855,1291.431 2097.505,1504.000 2097.815 C 1609.913 2097.969,1635.619 2096.854,1665.248 2090.824 C 1760.354 2071.465,1829.991 2031.833,1880.165 1968.509 C 1915.015 1924.526,1930.736 1884.688,1943.585 1807.806 C 1949.692 1771.269,1954.684 1754.961,1967.464 1729.806 C 1994.692 1676.211,2014.715 1590.398,2009.418 1550.000 C 2007.830 1537.889,2010.393 1526.363,2019.964 1502.575 C 2039.705 1453.510,2045.126 1421.561,2044.595 1357.414 C 2044.141 1302.704,2044.521 1299.958,2056.033 1274.568 C 2077.629 1226.939,2084.437 1193.758,2084.661 1135.040 C 2084.840 1088.054,2083.661 1078.402,2074.358 1050.688 C 2061.259 1011.666,2051.722 992.630,2029.705 961.552 C 2003.197 924.138,1960.937 887.360,1920.389 866.418 C 1868.904 839.827,1848.162 835.853,1746.907 833.182 C 1667.208 831.081,1659.999 830.306,1661.982 824.057 C 1702.041 697.843,1694.594 553.716,1642.878 454.311 C 1615.138 400.990,1564.609 354.225,1507.569 329.078 C 1482.042 317.825,1444.511 308.961,1402.000 304.144 C 1362.217 299.637,1351.437 299.610,1321.960 303.945 M1420.000 478.472 C 1464.599 490.714,1499.284 525.300,1510.561 568.777 C 1518.255 598.436,1517.882 707.093,1509.983 737.419 C 1506.674 750.125,1491.125 788.753,1475.430 823.260 C 1440.641 899.747,1423.977 946.759,1421.139 976.422 L 1418.994 998.845 1616.570 1000.845 L 1814.147 1002.846 1837.726 1014.392 C 1866.213 1028.340,1891.904 1053.129,1904.605 1078.920 C 1917.856 1105.831,1918.013 1168.500,1904.900 1197.397 C 1892.675 1224.338,1870.661 1253.290,1857.256 1260.055 C 1851.065 1263.179,1845.434 1266.060,1844.743 1266.458 C 1844.052 1266.855,1849.902 1279.920,1857.743 1295.490 C 1871.686 1323.177,1871.999 1324.837,1871.961 1370.900 C 1871.917 1423.767,1866.673 1440.420,1838.494 1477.168 L 1823.797 1496.336 1829.870 1514.224 C 1849.577 1572.270,1835.858 1636.447,1793.655 1683.635 L 1777.231 1702.000 1774.549 1760.000 C 1772.206 1810.658,1770.586 1820.629,1761.752 1838.769 C 1740.152 1883.123,1701.426 1913.309,1651.295 1924.868 C 1636.898 1928.187,1589.830 1929.771,1506.000 1929.756 C 1339.087 1929.726,1316.360 1925.623,1108.000 1857.917 C 982.490 1817.132,934.249 1804.784,887.000 1801.347 L 852.000 1798.802 852.000 1471.927 L 852.000 1145.052 881.000 1143.158 C 942.838 1139.120,982.702 1103.366,1111.970 936.000 C 1143.405 895.300,1185.706 842.200,1205.972 818.000 C 1226.237 793.800,1247.851 765.963,1254.003 756.139 C 1270.878 729.191,1285.777 684.571,1301.527 613.812 C 1319.589 532.666,1325.078 514.930,1340.283 488.579 L 1352.642 467.158 1375.321 469.796 C 1387.795 471.246,1407.900 475.150,1420.000 478.472 M658.034 1743.460 C 690.652 1758.278,711.642 1795.616,706.264 1829.252 C 699.918 1868.937,674.813 1894.607,635.052 1902.067 C 598.943 1908.841,554.238 1877.003,544.270 1837.415 C 527.994 1772.777,597.042 1715.752,658.034 1743.460 " fill="#1D1E23" stroke="none" fill-rule="evenodd"/></svg>