<svg viewBox="0 0 2400 2400" fill="none" xmlns="http://www.w3.org/2000/svg"><path d="M2000.000 200.000 L 2000.000 300.000 1900.000 300.000 L 1800.000 300.000 1800.000 400.000 L 1800.000 500.000 1900.000 500.000 L 2000.000 500.000 2000.000 600.000 L 2000.000 700.000 2100.000 700.000 L 2200.000 700.000 2200.000 600.000 L 2200.000 500.000 2300.000 500.000 L 2400.000 500.000 2400.000 400.000 L 2400.000 300.000 2300.000 300.000 L 2200.000 300.000 2200.000 200.000 L 2200.000 100.000 2100.000 100.000 L 2000.000 100.000 2000.000 200.000 M1117.875 203.970 C 1038.714 210.600,957.704 227.561,876.613 254.483 C 822.571 272.424,709.469 327.553,660.000 360.065 C 404.719 527.841,250.025 773.955,207.486 1080.000 C 199.446 1137.843,200.580 1279.090,209.557 1338.000 C 237.306 1520.105,315.720 1699.513,424.700 1830.238 C 638.405 2086.585,939.742 2217.588,1267.364 2196.578 C 1356.594 2190.856,1420.186 2178.218,1515.809 2147.205 C 1740.674 2074.276,1936.994 1915.712,2060.593 1707.194 C 2110.460 1623.066,2142.788 1544.368,2167.888 1446.000 C 2191.953 1351.685,2197.817 1303.768,2197.746 1202.000 C 2197.671 1095.258,2188.798 1029.045,2161.027 928.000 L 2153.881 902.000 1976.941 900.958 L 1800.000 899.917 1800.000 799.958 L 1800.000 700.000 1700.000 700.000 L 1600.000 700.000 1600.000 492.054 L 1600.000 284.107 1585.000 277.697 C 1551.517 263.387,1463.213 235.951,1420.000 226.431 C 1327.612 206.078,1203.165 196.826,1117.875 203.970 M900.000 810.948 C 936.989 823.373,967.584 851.718,986.136 890.752 C 994.500 908.349,996.000 917.357,996.000 950.000 C 996.000 982.941,994.531 991.601,985.819 1010.017 C 970.647 1042.088,943.855 1069.601,913.008 1084.787 C 888.987 1096.612,883.156 1097.818,850.000 1097.818 C 816.844 1097.818,811.013 1096.612,786.992 1084.787 C 756.761 1069.904,730.180 1042.965,714.319 1011.137 C 705.273 992.985,704.000 985.440,704.000 950.000 C 704.000 914.107,705.213 907.127,714.811 887.785 C 734.842 847.422,778.058 812.131,817.375 804.029 C 838.055 799.768,876.236 802.965,900.000 810.948 M1600.000 810.948 C 1636.989 823.373,1667.584 851.718,1686.136 890.752 C 1694.500 908.349,1696.000 917.357,1696.000 950.000 C 1696.000 982.941,1694.531 991.601,1685.819 1010.017 C 1670.647 1042.088,1643.855 1069.601,1613.008 1084.787 C 1588.987 1096.612,1583.156 1097.818,1550.000 1097.818 C 1516.844 1097.818,1511.013 1096.612,1486.992 1084.787 C 1456.761 1069.904,1430.180 1042.965,1414.319 1011.137 C 1405.273 992.985,1404.000 985.440,1404.000 950.000 C 1404.000 914.107,1405.213 907.127,1414.811 887.785 C 1434.842 847.422,1478.058 812.131,1517.375 804.029 C 1538.055 799.768,1576.236 802.965,1600.000 810.948 M1706.100 1404.765 C 1709.293 1407.960,1676.174 1472.330,1654.660 1504.742 C 1602.980 1582.600,1512.482 1660.538,1430.231 1698.021 C 1398.464 1712.498,1337.981 1732.024,1298.000 1740.711 C 1265.872 1747.691,1134.128 1747.691,1102.000 1740.711 C 1063.931 1732.440,1003.139 1713.074,973.502 1699.776 C 883.728 1659.498,787.672 1574.878,736.585 1491.066 C 720.913 1465.355,692.000 1410.357,692.000 1406.256 C 692.000 1405.186,707.750 1403.655,727.000 1402.853 C 791.240 1400.177,1703.294 1401.958,1706.100 1404.765 " fill="#1D1E23" stroke="none" fill-rule="evenodd"/></svg>