<svg viewBox="0 0 2400 2400" fill="none" xmlns="http://www.w3.org/2000/svg"><path d="M2000.000 200.000 L 2000.000 300.000 1900.000 300.000 L 1800.000 300.000 1800.000 400.000 L 1800.000 500.000 1900.000 500.000 L 2000.000 500.000 2000.000 600.000 L 2000.000 700.000 2100.000 700.000 L 2200.000 700.000 2200.000 600.000 L 2200.000 500.000 2300.000 500.000 L 2400.000 500.000 2400.000 400.000 L 2400.000 300.000 2300.000 300.000 L 2200.000 300.000 2200.000 200.000 L 2200.000 100.000 2100.000 100.000 L 2000.000 100.000 2000.000 200.000 M1092.000 206.781 C 1020.758 214.418,909.596 241.458,846.270 266.555 C 749.261 304.999,631.709 373.807,559.881 434.189 C 491.682 491.521,409.402 582.964,365.695 650.000 C 270.023 796.739,210.304 979.422,202.244 1150.000 C 192.797 1349.942,243.405 1547.742,348.951 1723.400 C 414.721 1832.859,532.791 1954.792,647.034 2031.236 C 773.665 2115.970,914.056 2168.872,1070.000 2190.619 C 1136.323 2199.868,1269.360 2199.807,1334.000 2190.499 C 1509.993 2165.155,1681.777 2092.034,1818.000 1984.481 C 1861.227 1950.352,1941.718 1870.282,1976.800 1826.512 C 2074.030 1705.203,2131.523 1588.791,2170.352 1434.604 C 2192.707 1345.831,2196.823 1309.810,2196.698 1204.000 C 2196.562 1088.593,2190.874 1042.918,2163.522 937.608 L 2155.109 905.216 2092.555 902.621 C 2058.150 901.194,1978.250 900.021,1915.000 900.013 L 1800.000 900.000 1800.000 800.000 L 1800.000 700.000 1700.036 700.000 L 1600.071 700.000 1599.036 491.497 L 1598.000 282.994 1569.311 271.976 C 1445.846 224.556,1325.313 203.494,1184.000 204.645 C 1141.100 204.994,1099.700 205.956,1092.000 206.781 M912.786 816.849 C 940.462 829.618,967.642 855.956,982.755 884.650 C 993.106 904.303,994.000 909.498,994.000 950.000 C 994.000 990.636,993.129 995.655,982.607 1015.642 C 967.849 1043.678,938.075 1072.440,909.172 1086.580 C 889.147 1096.378,881.563 1097.818,850.000 1097.818 C 818.437 1097.818,810.853 1096.378,790.828 1086.580 C 759.113 1071.064,730.312 1041.839,715.462 1010.105 C 704.004 985.620,703.336 981.601,704.636 945.004 C 706.243 899.789,714.318 879.536,742.442 850.184 C 777.550 813.543,801.253 803.824,852.000 805.261 C 883.108 806.141,894.133 808.243,912.786 816.849 M1612.786 816.849 C 1640.462 829.618,1667.642 855.956,1682.755 884.650 C 1693.106 904.303,1694.000 909.498,1694.000 950.000 C 1694.000 990.636,1693.129 995.655,1682.607 1015.642 C 1667.849 1043.678,1638.075 1072.440,1609.172 1086.580 C 1589.147 1096.378,1581.563 1097.818,1550.000 1097.818 C 1518.437 1097.818,1510.853 1096.378,1490.828 1086.580 C 1459.113 1071.064,1430.312 1041.839,1415.462 1010.105 C 1404.004 985.620,1403.336 981.601,1404.636 945.004 C 1406.243 899.789,1414.318 879.536,1442.442 850.184 C 1477.550 813.543,1501.253 803.824,1552.000 805.261 C 1583.108 806.141,1594.133 808.243,1612.786 816.849 M1704.000 1409.829 C 1704.000 1418.742,1669.479 1482.378,1646.495 1515.833 C 1621.478 1552.249,1564.470 1610.240,1524.000 1640.441 C 1472.576 1678.817,1434.084 1698.519,1368.000 1720.291 C 1312.779 1738.483,1300.205 1741.145,1253.000 1744.638 C 1218.374 1747.200,1181.626 1747.200,1147.000 1744.638 C 1099.795 1741.145,1087.221 1738.483,1032.000 1720.291 C 965.916 1698.519,927.424 1678.817,876.000 1640.441 C 835.581 1610.278,778.557 1552.288,753.468 1515.833 C 734.486 1488.253,692.000 1412.798,692.000 1406.667 C 692.000 1405.200,919.700 1404.000,1198.000 1404.000 C 1638.496 1404.000,1704.000 1404.755,1704.000 1409.829 " fill="#1D1E23" stroke="none" fill-rule="evenodd"/></svg>