<svg viewBox="0 0 2400 2400" fill="none" xmlns="http://www.w3.org/2000/svg"><path d="M1308.000 306.132 C 1258.725 319.944,1220.414 353.696,1192.371 408.000 C 1170.478 450.393,1158.784 485.301,1137.928 570.511 C 1127.906 611.459,1117.199 650.960,1114.136 658.290 C 1111.074 665.621,1092.484 690.354,1072.827 713.253 C 1053.170 736.151,1020.309 777.187,999.802 804.443 C 945.001 877.282,891.167 943.945,873.495 960.849 L 857.972 975.698 667.986 976.849 L 478.000 978.000 459.336 988.972 C 449.071 995.006,434.281 1007.410,426.470 1016.535 C 398.298 1049.448,399.745 1021.128,400.932 1516.238 L 402.000 1962.000 412.803 1982.479 C 424.536 2004.720,439.858 2019.455,465.534 2033.191 C 481.437 2041.699,486.659 2042.041,618.336 2043.192 C 748.628 2044.332,755.667 2044.012,777.125 2035.984 C 803.191 2026.231,837.582 1992.116,842.104 1971.525 L 844.859 1958.983 870.332 1961.593 C 906.296 1965.278,952.589 1979.487,1032.666 2011.421 C 1202.841 2079.286,1283.399 2095.457,1468.344 2098.880 C 1619.727 2101.682,1677.433 2094.884,1750.547 2065.634 C 1795.193 2047.773,1824.268 2028.509,1858.092 1994.381 C 1908.895 1943.121,1934.510 1885.549,1944.575 1800.000 C 1948.386 1767.614,1951.248 1758.336,1963.952 1737.200 C 1993.557 1687.941,2014.950 1598.347,2009.197 1547.705 C 2007.663 1534.200,2009.211 1525.297,2015.109 1513.705 C 2038.724 1467.287,2050.690 1397.263,2044.169 1343.634 C 2039.862 1308.206,2039.889 1307.991,2051.886 1284.225 C 2058.509 1271.106,2068.725 1244.539,2074.590 1225.186 C 2083.782 1194.853,2085.289 1182.552,2085.516 1136.000 C 2085.766 1085.005,2085.050 1079.885,2072.653 1044.000 C 2042.717 957.340,1979.930 889.042,1898.901 854.997 C 1856.027 836.984,1820.549 832.000,1735.182 832.000 L 1659.067 832.000 1661.720 823.000 C 1681.371 756.327,1685.052 735.428,1686.957 679.719 C 1693.082 500.567,1628.134 377.132,1500.652 325.640 C 1446.704 303.849,1350.793 294.137,1308.000 306.132 M1422.000 478.105 C 1451.242 486.254,1478.331 505.096,1492.215 526.946 C 1512.995 559.650,1517.740 582.775,1517.877 652.000 C 1518.027 727.858,1513.733 744.005,1467.873 840.000 C 1437.167 904.274,1420.094 956.679,1420.028 986.857 L 1420.000 999.714 1617.092 1000.857 L 1814.184 1002.000 1840.924 1015.168 C 1881.697 1035.246,1909.214 1071.328,1915.871 1113.440 C 1920.228 1141.001,1914.247 1179.745,1901.465 1206.765 C 1889.592 1231.862,1860.892 1264.000,1850.352 1264.000 C 1846.492 1264.000,1843.933 1265.350,1844.667 1267.000 C 1845.400 1268.650,1852.300 1282.562,1860.000 1297.916 C 1873.464 1324.764,1874.000 1327.518,1874.000 1369.916 C 1874.000 1410.928,1873.135 1415.825,1861.589 1440.189 C 1854.764 1454.594,1843.448 1472.906,1836.444 1480.883 L 1823.709 1495.388 1832.298 1520.694 C 1845.316 1559.049,1841.757 1602.814,1822.440 1641.899 C 1814.158 1658.657,1801.144 1677.263,1791.803 1685.702 L 1775.564 1700.373 1774.782 1757.187 C 1774.031 1811.732,1773.504 1815.038,1761.566 1840.000 C 1747.427 1869.566,1722.321 1896.227,1697.137 1908.418 C 1659.604 1926.587,1642.449 1928.980,1535.858 1930.914 C 1369.712 1933.928,1306.918 1923.932,1138.000 1867.581 C 974.027 1812.880,923.368 1800.060,871.000 1800.016 L 852.000 1800.000 852.000 1472.000 L 852.000 1144.000 877.361 1144.000 C 939.624 1144.000,985.268 1102.683,1122.739 921.883 C 1156.146 877.947,1197.831 826.088,1215.373 806.641 C 1264.773 751.875,1281.052 714.409,1303.851 603.008 C 1317.777 534.961,1327.500 504.923,1342.701 482.989 L 1353.511 467.390 1377.755 469.961 C 1391.090 471.376,1411.000 475.040,1422.000 478.105 M664.371 1745.307 C 727.975 1778.886,719.757 1875.495,651.364 1898.211 C 572.543 1924.392,506.395 1827.664,560.770 1765.735 C 587.572 1735.208,629.560 1726.929,664.371 1745.307 " fill="#1D1E23" stroke="none" fill-rule="evenodd"/></svg>