<svg viewBox="0 0 2400 2400" fill="none" xmlns="http://www.w3.org/2000/svg"><path d="M2000.000 200.000 L 2000.000 300.000 1900.000 300.000 L 1800.000 300.000 1800.000 400.000 L 1800.000 500.000 1900.000 500.000 L 2000.000 500.000 2000.000 600.000 L 2000.000 700.000 2100.000 700.000 L 2200.000 700.000 2200.000 600.000 L 2200.000 500.000 2300.000 500.000 L 2400.000 500.000 2400.000 400.000 L 2400.000 300.000 2300.000 300.000 L 2200.000 300.000 2200.000 200.000 L 2200.000 100.000 2100.000 100.000 L 2000.000 100.000 2000.000 200.000 M1066.000 210.593 C 952.692 228.228,859.979 257.672,760.000 307.773 C 666.166 354.795,598.405 400.338,534.489 459.344 C 395.871 587.315,320.932 698.894,259.930 868.145 C 175.243 1103.107,183.075 1354.100,282.498 1591.408 C 334.135 1714.656,395.636 1803.442,504.152 1911.399 C 645.002 2051.522,807.774 2137.904,1010.851 2180.300 C 1065.474 2191.704,1077.983 2192.817,1174.334 2194.847 C 1288.555 2197.253,1328.422 2194.258,1404.000 2177.592 C 1553.234 2144.683,1710.749 2070.493,1820.497 1981.421 C 1853.872 1954.334,1952.308 1855.017,1982.469 1818.000 C 2050.678 1734.287,2109.867 1624.766,2145.452 1516.422 C 2189.172 1383.308,2198.115 1321.063,2194.644 1174.000 C 2192.155 1068.502,2189.164 1043.977,2168.258 957.631 L 2155.578 905.261 2068.789 902.640 C 2021.055 901.199,1941.050 900.015,1891.000 900.010 L 1800.000 900.000 1800.000 800.000 L 1800.000 700.000 1700.000 700.000 L 1600.000 700.000 1600.000 492.054 L 1600.000 284.107 1585.194 277.921 C 1555.466 265.500,1500.484 248.420,1451.829 236.492 C 1358.747 213.672,1335.948 211.249,1202.000 209.939 C 1133.800 209.272,1072.600 209.566,1066.000 210.593 M912.000 817.768 C 935.643 829.975,959.897 851.967,975.300 875.167 L 990.000 897.306 990.000 950.167 L 990.000 1003.027 974.336 1025.770 C 955.846 1052.616,933.206 1073.027,907.133 1086.355 C 880.677 1099.879,821.154 1100.344,793.286 1087.244 C 768.527 1075.606,731.865 1039.161,717.552 1011.956 C 706.932 991.772,706.044 986.837,706.545 950.808 C 707.036 915.541,708.350 909.058,719.668 886.069 C 733.503 857.964,763.446 827.814,790.000 815.248 C 811.701 804.979,890.377 806.604,912.000 817.768 M1612.000 817.768 C 1635.643 829.975,1659.897 851.967,1675.300 875.167 L 1690.000 897.306 1690.000 950.167 L 1690.000 1003.027 1674.336 1025.770 C 1655.846 1052.616,1633.206 1073.027,1607.133 1086.355 C 1580.677 1099.879,1521.154 1100.344,1493.286 1087.244 C 1468.527 1075.606,1431.865 1039.161,1417.552 1011.956 C 1406.932 991.772,1406.044 986.837,1406.545 950.808 C 1407.036 915.541,1408.350 909.058,1419.668 886.069 C 1433.503 857.964,1463.446 827.814,1490.000 815.248 C 1511.701 804.979,1590.377 806.604,1612.000 817.768 M1700.000 1413.829 C 1700.000 1422.727,1665.316 1486.837,1645.052 1515.395 C 1622.413 1547.300,1550.508 1619.494,1514.554 1646.419 C 1499.558 1657.650,1473.498 1674.161,1456.644 1683.109 C 1422.009 1701.499,1343.601 1729.580,1302.738 1738.230 C 1265.299 1746.154,1134.428 1746.118,1097.262 1738.172 C 1063.196 1730.889,998.712 1709.067,962.443 1692.548 C 901.565 1664.820,820.972 1599.248,771.865 1537.491 C 749.148 1508.921,696.000 1421.488,696.000 1412.687 C 696.000 1409.129,816.975 1408.000,1198.000 1408.000 C 1634.993 1408.000,1700.000 1408.755,1700.000 1413.829 " fill="#1D1E23" stroke="none" fill-rule="evenodd"/></svg>