<svg viewBox="0 0 2400 2400" fill="none" xmlns="http://www.w3.org/2000/svg"><path d="M2000.000 200.000 L 2000.000 300.000 1900.000 300.000 L 1800.000 300.000 1800.000 400.000 L 1800.000 500.000 1900.000 500.000 L 2000.000 500.000 2000.000 600.000 L 2000.000 700.000 2100.000 700.000 L 2200.000 700.000 2200.000 600.000 L 2200.000 500.000 2300.000 500.000 L 2400.000 500.000 2400.000 400.000 L 2400.000 300.000 2300.000 300.000 L 2200.000 300.000 2200.000 200.000 L 2200.000 100.000 2100.000 100.000 L 2000.000 100.000 2000.000 200.000 M1108.545 204.429 C 800.727 231.791,520.656 404.513,350.372 672.000 C 318.468 722.115,273.515 818.568,252.284 882.460 C 168.965 1133.196,186.683 1403.415,301.824 1638.000 C 353.763 1743.820,410.044 1822.449,493.797 1906.203 C 648.729 2061.134,839.618 2157.095,1060.000 2190.836 C 1123.622 2200.577,1275.859 2200.550,1337.463 2190.786 C 1503.861 2164.416,1643.613 2109.297,1772.009 2019.401 C 2109.667 1782.991,2268.322 1365.730,2171.547 968.620 C 2164.928 941.461,2157.867 914.911,2155.855 909.620 L 2152.198 900.000 1976.099 900.000 L 1800.000 900.000 1800.000 800.000 L 1800.000 700.000 1700.036 700.000 L 1600.071 700.000 1599.036 491.484 L 1598.000 282.968 1558.000 267.247 C 1422.720 214.079,1258.382 191.111,1108.545 204.429 M913.175 815.206 C 945.145 830.397,969.961 855.357,985.546 888.000 C 996.586 911.122,997.960 917.985,997.960 950.000 C 997.960 981.955,996.572 988.921,985.602 1012.000 C 969.901 1045.033,945.056 1069.884,912.000 1085.622 C 888.906 1096.617,881.977 1098.000,850.000 1098.000 C 818.023 1098.000,811.094 1096.617,788.000 1085.622 C 754.944 1069.884,730.099 1045.033,714.398 1012.000 C 703.428 988.921,702.040 981.955,702.040 950.000 C 702.040 918.045,703.428 911.079,714.398 888.000 C 734.216 846.307,771.724 815.017,814.984 804.088 C 842.192 797.215,885.674 802.138,913.175 815.206 M1613.175 815.206 C 1645.145 830.397,1669.961 855.357,1685.546 888.000 C 1696.586 911.122,1697.960 917.985,1697.960 950.000 C 1697.960 981.955,1696.572 988.921,1685.602 1012.000 C 1669.901 1045.033,1645.056 1069.884,1612.000 1085.622 C 1588.906 1096.617,1581.977 1098.000,1550.000 1098.000 C 1518.023 1098.000,1511.094 1096.617,1488.000 1085.622 C 1454.944 1069.884,1430.099 1045.033,1414.398 1012.000 C 1403.428 988.921,1402.040 981.955,1402.040 950.000 C 1402.040 918.045,1403.428 911.079,1414.398 888.000 C 1434.216 846.307,1471.724 815.017,1514.984 804.088 C 1542.192 797.215,1585.674 802.138,1613.175 815.206 M1708.000 1404.395 C 1708.000 1412.777,1670.953 1482.149,1650.536 1512.000 C 1622.179 1553.459,1558.302 1618.407,1516.722 1648.059 C 1328.077 1782.585,1071.923 1782.585,883.278 1648.059 C 841.698 1618.407,777.821 1553.459,749.464 1512.000 C 729.047 1482.149,692.000 1412.777,692.000 1404.395 C 692.000 1401.225,833.535 1400.000,1200.000 1400.000 C 1566.465 1400.000,1708.000 1401.225,1708.000 1404.395 " fill="#1D1E23" stroke="none" fill-rule="evenodd"/></svg>