<svg viewBox="0 0 2400 2400" fill="none" xmlns="http://www.w3.org/2000/svg"><path d="M1323.122 303.949 C 1289.635 309.897,1260.738 326.183,1232.448 355.054 C 1190.501 397.861,1176.164 430.281,1138.061 568.490 C 1125.714 613.275,1111.569 657.136,1106.627 665.959 C 1093.638 689.149,889.615 945.901,869.405 964.491 L 858.000 974.982 666.000 977.488 L 474.000 979.995 452.000 995.387 C 428.170 1012.059,414.813 1028.830,407.285 1051.529 C 403.705 1062.324,402.110 1179.320,401.009 1512.078 L 399.533 1958.156 410.373 1977.551 C 424.582 2002.974,443.668 2021.670,468.001 2034.000 L 487.734 2044.000 624.000 2044.000 L 760.266 2044.000 780.556 2033.718 C 805.329 2021.165,833.798 1992.657,840.744 1973.450 L 845.889 1959.220 865.945 1961.785 C 900.113 1966.154,946.902 1980.124,1028.000 2010.171 C 1222.886 2082.378,1275.161 2092.915,1464.000 2098.053 C 1613.010 2102.107,1684.550 2093.342,1756.556 2062.207 C 1794.981 2045.593,1818.810 2029.388,1852.886 1996.699 C 1903.345 1948.294,1924.414 1905.532,1942.296 1815.236 C 1948.492 1783.949,1957.780 1751.280,1964.824 1736.000 C 1993.162 1674.526,2015.769 1583.346,2010.128 1553.277 C 2008.373 1543.920,2011.139 1529.675,2019.503 1505.002 C 2039.781 1445.178,2040.710 1439.893,2043.945 1366.000 C 2046.952 1297.316,2047.683 1292.652,2059.813 1264.733 C 2077.832 1223.263,2083.851 1189.807,2083.931 1130.672 C 2083.991 1085.710,2082.704 1075.539,2073.548 1048.672 C 2045.129 965.278,1991.820 903.590,1914.000 864.046 C 1871.869 842.637,1841.497 837.034,1749.312 833.663 C 1707.134 832.120,1670.483 829.534,1667.865 827.916 C 1664.271 825.696,1665.117 816.277,1671.316 789.487 C 1695.443 685.219,1692.958 594.565,1663.540 505.848 C 1636.622 424.672,1588.174 368.931,1513.489 333.212 C 1466.376 310.679,1369.270 295.753,1323.122 303.949 M1399.169 474.336 C 1453.274 485.454,1482.714 507.297,1503.596 551.817 C 1513.728 573.420,1513.992 576.040,1513.703 652.000 C 1513.364 741.010,1515.908 730.506,1468.246 839.678 C 1438.373 908.102,1420.000 963.746,1420.000 985.794 L 1420.000 998.693 1618.119 1001.339 L 1816.238 1003.986 1836.480 1014.243 C 1862.465 1027.411,1890.429 1053.239,1900.880 1073.725 C 1911.566 1094.671,1915.743 1131.042,1911.453 1165.788 C 1907.297 1199.444,1890.823 1229.377,1863.314 1253.253 L 1844.627 1269.471 1857.314 1293.735 C 1869.591 1317.218,1870.000 1319.610,1870.000 1368.000 C 1870.000 1426.025,1866.748 1437.954,1841.623 1472.083 L 1823.844 1496.234 1830.298 1518.432 C 1834.801 1533.925,1836.322 1551.711,1835.331 1577.315 C 1833.658 1620.548,1824.160 1644.759,1794.668 1680.968 C 1777.310 1702.279,1775.992 1705.505,1775.892 1726.943 C 1775.446 1821.644,1759.084 1864.372,1710.433 1897.880 C 1676.314 1921.378,1652.440 1926.622,1566.000 1929.603 C 1471.285 1932.870,1363.073 1927.241,1309.154 1916.243 C 1266.648 1907.573,1209.369 1890.848,1094.000 1853.420 C 1000.567 1823.109,928.424 1805.101,886.940 1801.735 L 852.000 1798.900 852.000 1472.030 L 852.000 1145.160 879.000 1142.849 C 943.782 1137.304,977.190 1107.669,1112.183 936.000 C 1145.917 893.100,1190.981 836.400,1212.325 810.000 C 1233.668 783.600,1255.616 753.000,1261.099 742.000 C 1274.612 714.887,1288.692 669.066,1305.442 597.687 C 1321.351 529.890,1328.041 509.458,1342.298 485.131 C 1353.771 465.554,1355.155 465.291,1399.169 474.336 M669.974 1751.105 C 731.673 1794.419,708.172 1891.086,633.210 1902.328 C 607.630 1906.164,574.820 1888.999,557.000 1862.458 C 545.900 1845.926,544.000 1839.560,544.000 1818.899 C 544.000 1780.509,565.366 1751.876,603.056 1739.760 C 622.054 1733.653,652.458 1738.807,669.974 1751.105 " fill="#1D1E23" stroke="none" fill-rule="evenodd"/></svg>