<svg viewBox="0 0 2400 2400" fill="none" xmlns="http://www.w3.org/2000/svg"><path d="M1300.316 310.319 C 1274.228 319.825,1252.595 334.662,1228.966 359.254 C 1191.211 398.547,1178.611 426.960,1140.590 558.534 C 1127.325 604.441,1113.728 648.542,1110.375 656.538 C 1102.304 675.785,955.026 865.156,883.456 948.312 L 860.484 975.003 666.330 977.974 L 472.177 980.946 452.088 995.935 C 428.611 1013.451,418.251 1025.756,409.290 1046.766 C 403.464 1060.428,402.594 1108.308,400.861 1510.815 L 398.929 1959.631 411.746 1979.604 C 426.985 2003.352,449.597 2024.571,471.660 2035.827 C 486.877 2043.590,494.565 2043.998,624.841 2043.962 L 762.000 2043.925 782.000 2032.450 C 805.944 2018.713,838.620 1984.892,842.365 1969.971 C 844.931 1959.748,845.914 1959.374,863.528 1961.910 C 900.860 1967.286,947.715 1981.360,1045.706 2016.632 C 1216.118 2077.972,1266.367 2088.907,1412.838 2096.526 C 1510.202 2101.591,1610.250 2099.036,1660.485 2090.203 C 1705.675 2082.256,1759.277 2063.316,1793.521 2043.194 C 1808.765 2034.237,1836.577 2011.628,1855.865 1992.512 C 1900.449 1948.325,1918.864 1913.029,1936.479 1838.000 C 1943.194 1809.400,1954.042 1770.700,1960.585 1752.000 C 2001.523 1635.014,2012.000 1594.360,2012.000 1552.495 C 2012.000 1536.448,2016.548 1514.148,2025.908 1484.293 C 2038.266 1444.878,2040.286 1432.022,2044.031 1368.967 C 2048.029 1301.661,2049.097 1295.524,2064.731 1250.000 C 2080.272 1204.749,2081.327 1198.763,2083.143 1145.479 C 2084.861 1095.098,2084.103 1085.772,2076.159 1059.620 C 2050.306 974.503,1995.772 907.664,1920.027 868.257 C 1876.494 845.609,1852.173 840.404,1768.000 835.720 C 1668.058 830.160,1667.997 830.148,1668.012 816.819 C 1668.019 810.868,1671.892 787.100,1676.619 764.000 C 1686.968 713.426,1689.165 608.891,1680.697 570.000 C 1672.668 533.125,1656.672 485.104,1644.166 460.329 C 1607.574 387.841,1541.885 336.408,1459.424 315.680 C 1413.497 304.135,1325.430 301.168,1300.316 310.319 M1397.210 474.436 C 1452.383 486.769,1484.140 510.342,1504.400 554.000 C 1510.823 567.843,1511.833 580.518,1511.890 648.000 C 1511.927 692.113,1510.060 732.951,1507.592 742.000 C 1505.192 750.800,1490.122 788.600,1474.103 826.000 C 1441.413 902.323,1420.000 965.449,1420.000 985.500 L 1420.000 998.904 1619.000 1001.819 L 1818.000 1004.733 1838.000 1015.367 C 1849.000 1021.215,1867.331 1035.214,1878.736 1046.475 C 1906.060 1073.456,1913.818 1098.214,1911.099 1149.761 C 1908.752 1194.256,1897.226 1219.827,1865.984 1249.845 L 1844.914 1270.090 1856.812 1293.621 C 1868.655 1317.041,1868.704 1317.430,1867.355 1376.226 L 1866.000 1435.301 1844.883 1466.235 C 1824.244 1496.467,1823.879 1497.495,1828.800 1511.584 C 1835.194 1529.895,1835.158 1600.726,1828.742 1622.671 C 1826.062 1631.840,1813.701 1653.440,1801.273 1670.671 L 1778.678 1702.000 1775.293 1748.000 C 1773.432 1773.300,1769.173 1804.800,1765.830 1818.000 C 1754.399 1863.135,1719.666 1900.288,1673.846 1916.392 C 1642.498 1927.410,1551.084 1933.525,1466.000 1930.297 C 1333.822 1925.280,1301.112 1919.006,1138.750 1867.521 C 1012.331 1827.433,941.703 1809.054,891.380 1803.150 L 852.000 1798.530 852.000 1471.843 L 852.000 1145.157 878.392 1142.692 C 945.366 1136.438,977.616 1106.498,1144.111 896.000 C 1276.036 729.208,1269.012 742.002,1303.567 605.562 C 1325.724 518.075,1331.722 500.711,1346.597 481.000 C 1357.922 465.993,1358.884 465.868,1397.210 474.436 M664.945 1749.217 C 696.375 1766.450,711.998 1809.646,699.975 1846.075 C 687.417 1884.128,644.166 1909.739,608.623 1900.168 C 588.568 1894.767,559.814 1870.118,550.380 1850.237 C 541.977 1832.528,542.425 1805.853,551.460 1785.966 C 560.055 1767.045,583.660 1745.104,599.073 1741.708 C 605.083 1740.384,611.800 1738.728,614.000 1738.029 C 622.665 1735.274,650.775 1741.448,664.945 1749.217 " fill="#1D1E23" stroke="none" fill-rule="evenodd"/></svg>