<svg viewBox="0 0 2400 2400" fill="none" xmlns="http://www.w3.org/2000/svg"><path d="M1800 900V700H1600V284C1477 230 1342 200 1199 200C647 200 200 648 200 1200C200 1752 647 2200 1199 2200C1752 2200 2200 1752 2200 1200C2200 1095 2183 995 2153 900H1800ZM1550 800C1633 800 1700 867 1700 950C1700 1033 1633 1100 1550 1100C1467 1100 1400 1033 1400 950C1400 867 1467 800 1550 800ZM850 800C933 800 1000 867 1000 950C1000 1033 933 1100 850 1100C767 1100 700 1033 700 950C700 867 767 800 850 800ZM1200 1750C967 1750 769 1604 689 1400H1711C1631 1604 1433 1750 1200 1750ZM2200 300H2400V500H2200V700H2000V500H1800V300H2000V100H2200V300Z" fill="#1D1E23"/></svg>