<svg viewBox="0 0 2400 2400" fill="none" xmlns="http://www.w3.org/2000/svg"><path d="M2039.23 1307.89C2070.06 1255.69 2087.5 1200 2087.5 1132.68C2087.5 977.936 1956.66 831.809 1785.79 831.809H1657.54C1674.84 786.773 1688.65 732.914 1688.65 668.191C1688.65 412.275 1556.15 300 1353.72 300C1137.13 300 1149.49 633.749 1101.44 681.797C1021.47 761.767 927.01 915.4 859.703 975H512.5C450.368 975 400 1025.37 400 1087.5V1931.25C400 1993.38 450.368 2043.75 512.5 2043.75H737.5C789.858 2043.75 833.856 2007.98 846.407 1959.55C1002.88 1963.07 1110.29 2099.96 1471.49 2099.96C1496.88 2099.96 1525 2100 1549.61 2100C1820.72 2100 1943.31 1961.4 1946.66 1764.86C1993.49 1700.08 2018.03 1613.25 2007.63 1529.34C2042.27 1464.47 2055.66 1387.51 2039.23 1307.89ZM1822.14 1497.14C1866.3 1571.43 1826.57 1670.85 1773.13 1699.54C1800.2 1871.03 1711.23 1931.21 1586.38 1931.21H1453.42C1201.57 1931.21 1038.48 1798.25 850 1798.25V1143.75H888.391C988.094 1143.75 1127.38 894.527 1220.76 801.117C1320.46 701.414 1287.24 535.23 1353.72 468.75C1519.9 468.75 1519.9 584.695 1519.9 668.191C1519.9 805.898 1420.2 867.598 1420.2 1000.56H1785.79C1860 1000.56 1918.43 1067.04 1918.75 1133.52C1919.07 1199.96 1873.68 1266.45 1840.46 1266.45C1887.88 1317.62 1898.01 1425.48 1822.14 1497.14ZM709.375 1818.75C709.375 1865.35 671.6 1903.12 625 1903.12C578.4 1903.12 540.625 1865.35 540.625 1818.75C540.625 1772.15 578.4 1734.38 625 1734.38C671.6 1734.38 709.375 1772.15 709.375 1818.75Z" fill="#1D1E23"/></svg>