<svg viewBox="0 0 2400 2400" fill="none" xmlns="http://www.w3.org/2000/svg"><path d="M2000.000 200.000 L 2000.000 300.000 1900.000 300.000 L 1800.000 300.000 1800.000 400.000 L 1800.000 500.000 1900.000 500.000 L 2000.000 500.000 2000.000 600.000 L 2000.000 700.000 2100.000 700.000 L 2200.000 700.000 2200.000 600.000 L 2200.000 500.000 2300.000 500.000 L 2400.000 500.000 2400.000 400.000 L 2400.000 300.000 2300.000 300.000 L 2200.000 300.000 2200.000 200.000 L 2200.000 100.000 2100.000 100.000 L 2000.000 100.000 2000.000 200.000 M1090.000 207.938 C 1047.712 211.927,973.720 227.248,913.848 244.411 C 814.000 273.034,689.032 337.357,588.726 411.757 C 547.538 442.307,452.643 536.108,414.473 584.000 C 309.264 716.007,234.757 893.106,209.863 1070.346 C 175.042 1318.269,246.164 1592.158,397.780 1794.000 C 437.948 1847.476,528.033 1940.342,579.915 1981.758 C 717.615 2091.682,884.217 2163.131,1065.029 2189.805 C 1115.769 2197.291,1271.021 2198.501,1323.820 2191.823 C 1491.024 2170.674,1663.861 2099.807,1804.000 1994.937 C 1856.714 1955.490,1954.702 1856.172,1998.302 1798.000 C 2087.777 1678.617,2138.319 1568.608,2175.647 1411.990 C 2192.678 1340.532,2196.010 1306.043,2195.922 1202.105 C 2195.832 1095.932,2190.800 1049.893,2169.920 964.208 L 2155.552 905.249 2080.776 902.636 C 2039.649 901.199,1959.650 900.018,1903.000 900.011 L 1800.000 900.000 1800.000 800.000 L 1800.000 700.000 1700.000 700.000 L 1600.000 700.000 1600.000 492.054 L 1600.000 284.107 1585.784 278.167 C 1520.667 250.960,1419.182 224.668,1338.000 213.974 C 1281.408 206.519,1141.204 203.107,1090.000 207.938 M910.842 816.361 C 933.314 825.994,966.002 856.818,980.450 882.000 C 991.295 900.902,991.927 904.589,991.962 949.159 C 991.994 989.398,990.752 998.764,983.500 1012.981 C 970.842 1037.791,935.061 1073.143,909.534 1086.059 C 889.603 1096.143,882.749 1097.455,850.000 1097.455 C 817.151 1097.455,810.428 1096.158,790.204 1085.926 C 759.205 1070.242,723.426 1031.531,711.958 1001.268 C 704.465 981.492,703.465 972.775,705.299 943.192 C 708.000 899.607,717.549 876.980,745.182 848.683 C 768.142 825.172,788.136 813.244,813.375 808.002 C 837.054 803.084,890.576 807.674,910.842 816.361 M1610.842 816.361 C 1633.314 825.994,1666.002 856.818,1680.450 882.000 C 1691.295 900.902,1691.927 904.589,1691.962 949.159 C 1691.994 989.398,1690.752 998.764,1683.500 1012.981 C 1670.842 1037.791,1635.061 1073.143,1609.534 1086.059 C 1589.603 1096.143,1582.749 1097.455,1550.000 1097.455 C 1517.151 1097.455,1510.428 1096.158,1490.204 1085.926 C 1459.205 1070.242,1423.426 1031.531,1411.958 1001.268 C 1404.465 981.492,1403.465 972.775,1405.299 943.192 C 1408.000 899.607,1417.549 876.980,1445.182 848.683 C 1468.142 825.172,1488.136 813.244,1513.375 808.002 C 1537.054 803.084,1590.576 807.674,1610.842 816.361 M1702.100 1408.765 C 1705.271 1411.937,1672.715 1475.292,1649.898 1510.352 C 1641.433 1523.358,1611.893 1556.682,1584.254 1584.404 C 1512.041 1656.832,1460.988 1688.937,1369.432 1719.497 C 1302.383 1741.877,1279.672 1745.342,1200.000 1745.342 C 1120.328 1745.342,1097.617 1741.877,1030.568 1719.497 C 944.006 1690.604,890.067 1657.811,824.527 1594.232 C 772.996 1544.242,756.179 1522.573,720.146 1459.738 L 691.624 1410.000 716.812 1407.594 C 751.913 1404.240,1698.702 1405.366,1702.100 1408.765 " fill="#1D1E23" stroke="none" fill-rule="evenodd"/></svg>