<svg viewBox="0 0 2400 2400" fill="none" xmlns="http://www.w3.org/2000/svg"><path d="M1316.000 307.532 C 1289.893 311.757,1265.581 325.817,1237.107 353.159 C 1192.443 396.048,1184.453 413.151,1139.607 561.876 C 1123.072 616.712,1107.618 660.253,1101.274 669.876 C 1072.009 714.272,915.032 913.734,875.373 956.917 L 858.000 975.834 666.000 978.347 L 474.000 980.860 459.022 990.959 C 436.406 1006.207,413.174 1033.305,407.904 1050.581 C 404.477 1061.818,402.630 1187.301,401.095 1513.230 L 398.987 1960.461 414.422 1982.871 C 432.685 2009.388,462.512 2034.099,483.186 2039.841 C 491.942 2042.273,551.634 2043.965,629.159 2043.978 C 750.099 2043.998,761.475 2043.409,775.159 2036.410 C 797.133 2025.173,826.700 1997.642,838.597 1977.343 C 848.922 1959.724,849.294 1959.515,865.533 1962.229 C 898.519 1967.742,941.921 1980.781,1038.061 2014.061 C 1242.883 2084.964,1282.499 2092.836,1462.650 2098.429 C 1670.756 2104.891,1771.578 2076.977,1858.825 1988.744 C 1901.057 1946.034,1918.523 1910.641,1940.125 1824.000 C 1944.787 1805.300,1960.012 1754.900,1973.958 1712.000 C 2006.695 1611.293,2007.637 1607.504,2011.987 1558.996 C 2014.009 1536.448,2020.280 1502.700,2025.923 1484.000 C 2035.866 1451.050,2039.437 1426.559,2047.794 1334.000 C 2050.710 1301.704,2055.695 1278.296,2066.533 1246.000 C 2081.101 1202.594,2081.304 1201.109,2081.597 1136.000 C 2081.892 1070.194,2081.854 1069.903,2068.575 1036.944 C 2030.893 943.416,1952.583 870.144,1866.879 848.225 C 1848.133 843.430,1807.846 838.671,1761.284 835.749 C 1719.878 833.151,1681.950 829.490,1677.000 827.612 C 1666.332 823.565,1666.116 819.813,1674.149 778.000 C 1684.155 725.915,1688.601 648.629,1684.239 602.594 C 1679.697 554.655,1659.533 488.239,1637.632 449.077 C 1600.251 382.233,1526.927 329.934,1448.075 313.873 C 1415.655 307.269,1340.054 303.640,1316.000 307.532 M1402.015 476.004 C 1451.799 488.736,1480.904 509.981,1500.651 548.000 C 1509.604 565.237,1509.999 569.647,1509.983 652.000 L 1509.967 738.000 1471.243 834.000 C 1433.767 926.906,1420.000 968.530,1420.000 988.930 L 1420.000 998.705 1555.000 1001.346 C 1629.250 1002.799,1718.800 1004.021,1754.000 1004.062 C 1817.219 1004.136,1818.238 1004.277,1837.512 1015.624 C 1862.485 1030.326,1890.599 1057.573,1900.187 1076.367 C 1916.776 1108.883,1913.568 1180.910,1894.058 1214.000 C 1888.869 1222.800,1875.671 1238.748,1864.728 1249.440 L 1844.832 1268.880 1856.912 1294.694 C 1868.937 1320.391,1868.984 1320.773,1867.263 1377.984 L 1865.534 1435.458 1846.491 1464.097 C 1836.017 1479.848,1827.672 1495.720,1827.946 1499.368 C 1831.814 1550.800,1831.938 1608.434,1828.208 1620.885 C 1825.730 1629.154,1812.970 1651.966,1799.851 1671.578 C 1778.162 1704.005,1775.997 1709.174,1775.972 1728.618 C 1775.922 1766.075,1765.371 1823.117,1754.310 1845.724 C 1741.609 1871.684,1714.614 1897.420,1686.701 1910.179 C 1652.358 1925.878,1615.001 1929.842,1504.000 1929.569 C 1351.018 1929.193,1314.783 1922.828,1121.865 1862.443 C 1015.570 1829.171,940.614 1810.088,891.000 1803.666 L 852.000 1798.617 852.000 1471.887 L 852.000 1145.157 878.806 1142.654 C 942.041 1136.749,977.528 1104.582,1126.651 918.000 C 1218.133 803.538,1251.390 757.868,1266.467 726.000 C 1273.819 710.460,1289.671 659.730,1302.090 612.000 C 1325.608 521.614,1339.845 483.364,1353.538 473.773 C 1364.033 466.422,1364.664 466.451,1402.015 476.004 M654.814 1746.537 C 712.439 1767.040,719.953 1855.556,666.840 1888.205 C 643.998 1902.246,624.933 1905.443,606.353 1898.347 C 542.656 1874.021,524.633 1807.156,569.642 1762.148 C 595.056 1736.734,616.311 1732.838,654.814 1746.537 " fill="#1D1E23" stroke="none" fill-rule="evenodd"/></svg>