<svg viewBox="0 0 2400 2400" fill="none" xmlns="http://www.w3.org/2000/svg"><path d="M1119.301 606.103 C 894.940 636.707,703.445 794.411,632.499 1007.004 C 608.151 1079.964,602.308 1117.932,602.495 1202.000 C 602.681 1285.998,608.504 1323.251,632.451 1393.652 C 691.174 1566.286,833.714 1708.826,1006.348 1767.549 C 1077.771 1791.844,1113.786 1797.395,1200.000 1797.395 C 1286.214 1797.395,1322.229 1791.844,1393.652 1767.549 C 1566.286 1708.826,1708.826 1566.286,1767.549 1393.652 C 1791.496 1323.251,1797.319 1285.998,1797.505 1202.000 C 1797.692 1117.932,1791.849 1079.964,1767.501 1007.004 C 1677.710 737.940,1402.163 567.519,1119.301 606.103 " fill="#1D1E23" stroke="none" fill-rule="evenodd"/></svg>