<svg viewBox="0 0 2400 2400" fill="none" xmlns="http://www.w3.org/2000/svg"><path d="M1153.115 604.385 C 1105.573 607.921,1058.826 616.860,1016.210 630.563 C 971.480 644.946,894.922 684.150,854.000 713.626 C 809.228 745.877,748.036 806.047,713.799 851.486 C 666.412 914.378,623.961 1014.131,609.742 1096.000 C 601.198 1145.194,603.641 1287.486,613.725 1328.000 C 642.705 1444.433,695.510 1538.821,778.062 1621.753 C 857.357 1701.413,962.185 1760.951,1065.762 1785.156 C 1116.840 1797.092,1276.017 1797.930,1328.000 1786.537 C 1472.918 1754.775,1613.052 1657.483,1698.551 1529.272 C 1743.330 1462.122,1782.805 1364.463,1791.745 1298.711 C 1797.022 1259.903,1797.157 1158.294,1791.996 1109.317 C 1785.219 1044.994,1747.184 943.367,1705.936 879.368 C 1586.176 693.551,1373.904 587.963,1153.115 604.385 " fill="#1D1E23" stroke="none" fill-rule="evenodd"/></svg>