<svg viewBox="0 0 2400 2400" fill="none" xmlns="http://www.w3.org/2000/svg"><path d="M1106.000 610.074 C 1048.200 619.414,1001.614 634.431,946.000 661.650 C 876.408 695.712,842.182 719.333,788.729 770.194 C 699.537 855.059,650.653 939.252,615.074 1069.280 C 606.865 1099.282,606.147 1110.307,606.427 1202.000 C 606.718 1297.017,607.257 1303.924,617.251 1340.604 C 648.057 1453.675,696.469 1537.000,779.734 1620.266 C 860.998 1701.529,945.253 1751.335,1052.774 1781.667 C 1104.102 1796.147,1257.911 1799.509,1322.532 1787.563 C 1383.914 1776.216,1468.134 1739.308,1533.209 1695.237 C 1580.392 1663.283,1666.724 1577.489,1695.456 1534.000 C 1739.455 1467.403,1777.988 1374.493,1789.820 1306.476 C 1796.925 1265.635,1798.086 1153.790,1791.861 1110.000 C 1783.421 1050.639,1753.034 961.318,1723.209 908.206 C 1639.911 759.867,1492.008 652.701,1319.127 615.422 C 1269.222 604.660,1156.942 601.843,1106.000 610.074 " fill="#1D1E23" stroke="none" fill-rule="evenodd"/></svg>