<svg viewBox="0 0 2400 2400" fill="none" xmlns="http://www.w3.org/2000/svg"><path d="M518.000 455.716 C 458.972 463.092,407.973 516.818,401.536 578.405 C 398.455 607.877,407.842 647.502,423.163 669.703 C 438.513 691.945,472.654 717.505,497.130 725.079 C 508.608 728.631,543.200 735.319,574.000 739.941 C 793.298 772.849,993.513 855.247,1161.928 981.902 C 1425.822 1180.360,1601.455 1470.878,1653.953 1795.769 C 1667.385 1878.899,1671.534 1898.249,1680.318 1918.742 C 1690.771 1943.129,1719.714 1972.523,1746.732 1986.193 C 1767.072 1996.484,1773.873 1997.818,1806.000 1997.818 C 1838.201 1997.818,1844.905 1996.496,1865.474 1986.089 C 1895.956 1970.666,1928.867 1935.164,1938.617 1907.186 C 1949.066 1877.201,1947.467 1817.699,1934.181 1742.145 C 1887.101 1474.406,1780.655 1237.330,1613.534 1028.000 C 1561.578 962.923,1446.978 847.042,1384.715 796.625 C 1238.856 678.518,1076.773 588.321,902.679 528.378 C 771.124 483.083,583.145 447.575,518.000 455.716 M500.000 1027.741 C 463.581 1038.859,430.536 1068.702,413.343 1106.000 C 397.396 1140.597,397.347 1184.043,413.217 1218.000 C 437.326 1269.586,463.567 1287.013,551.593 1309.894 C 695.182 1347.219,790.804 1397.988,883.285 1486.000 C 988.229 1585.873,1050.509 1694.208,1088.639 1843.209 C 1106.947 1914.754,1117.772 1937.659,1144.730 1961.896 C 1175.283 1989.366,1196.130 1997.559,1236.084 1997.797 C 1266.740 1997.980,1272.849 1996.680,1296.823 1984.878 C 1341.491 1962.888,1373.151 1920.260,1378.316 1875.157 C 1383.229 1832.249,1348.790 1700.694,1307.353 1604.080 C 1206.291 1368.443,1004.898 1175.166,760.000 1078.787 C 655.450 1037.641,541.106 1015.191,500.000 1027.741 M581.387 1568.149 C 502.842 1582.148,437.572 1638.690,411.212 1715.566 C 399.306 1750.287,398.522 1811.216,409.559 1844.000 C 432.116 1911.004,481.719 1962.460,547.940 1987.549 C 569.900 1995.869,580.922 1997.422,618.000 1997.422 C 655.078 1997.422,666.100 1995.869,688.060 1987.549 C 738.813 1968.320,785.237 1928.789,809.571 1884.079 C 822.937 1859.521,836.000 1809.067,836.000 1782.000 C 836.000 1754.596,822.892 1704.414,809.087 1678.964 C 784.157 1633.006,733.681 1591.018,685.457 1576.123 C 654.907 1566.687,609.227 1563.187,581.387 1568.149 " fill="#1D1E23" stroke="none" fill-rule="evenodd"/></svg>