<svg viewBox="0 0 2400 2400" fill="none" xmlns="http://www.w3.org/2000/svg"><path d="M499.974 459.464 C 450.780 475.769,409.212 524.513,401.682 574.723 C 398.050 598.949,406.572 639.195,420.499 663.580 C 434.920 688.829,472.288 717.586,501.476 725.897 C 512.764 729.111,549.900 736.369,584.000 742.027 C 707.237 762.472,813.939 793.757,918.664 840.150 C 1270.567 996.041,1535.157 1309.848,1629.928 1683.715 C 1641.657 1729.987,1643.994 1741.557,1658.262 1824.000 C 1673.711 1913.266,1685.305 1940.615,1718.914 1967.064 C 1750.252 1991.725,1766.868 1997.538,1806.000 1997.529 C 1837.610 1997.522,1844.661 1996.150,1863.816 1986.280 C 1889.057 1973.273,1923.114 1940.059,1934.278 1917.560 C 1940.984 1904.047,1941.960 1893.579,1941.697 1838.000 C 1941.435 1782.548,1939.691 1765.647,1928.640 1711.458 C 1867.495 1411.623,1738.765 1157.213,1542.336 948.000 C 1419.906 817.603,1308.722 729.280,1162.000 645.868 C 1010.310 559.632,850.317 502.308,670.000 469.591 C 611.604 458.995,518.178 453.431,499.974 459.464 M488.554 1032.374 C 474.546 1037.938,459.099 1048.901,444.013 1063.987 C 388.486 1119.514,386.943 1199.976,440.294 1257.856 C 460.046 1279.284,485.315 1290.637,564.000 1313.438 C 700.102 1352.876,776.081 1392.124,862.817 1467.796 C 975.446 1566.058,1044.767 1682.097,1089.950 1848.000 C 1108.421 1915.821,1123.350 1944.117,1153.551 1968.547 C 1180.574 1990.407,1203.259 1997.780,1242.634 1997.500 C 1278.290 1997.247,1308.777 1983.604,1337.196 1955.185 C 1387.003 1905.378,1389.384 1859.855,1349.394 1722.000 C 1315.416 1604.870,1256.871 1490.388,1180.635 1392.000 C 1127.363 1323.249,1030.056 1233.049,952.000 1180.064 C 830.751 1097.760,658.628 1032.494,545.474 1025.918 C 515.485 1024.176,506.684 1025.174,488.554 1032.374 M557.788 1573.613 C 512.064 1587.934,463.392 1624.009,437.824 1662.529 C 359.591 1780.392,414.435 1938.803,550.456 1987.856 C 571.775 1995.544,581.312 1996.504,624.788 1995.338 C 674.543 1994.003,674.747 1993.958,709.989 1976.480 C 752.197 1955.548,792.717 1917.726,809.233 1883.846 C 822.202 1857.241,836.000 1804.742,836.000 1782.000 C 836.000 1759.258,822.202 1706.759,809.233 1680.154 C 786.662 1633.851,720.789 1583.324,668.803 1572.438 C 640.799 1566.575,578.144 1567.237,557.788 1573.613 " fill="#1D1E23" stroke="none" fill-rule="evenodd"/></svg>