<svg viewBox="0 0 2400 2400" fill="none" xmlns="http://www.w3.org/2000/svg"><path d="M400.000 585.418 L 400.000 726.836 455.000 729.670 C 775.883 746.203,1061.419 869.323,1285.439 1087.746 C 1395.087 1194.655,1472.108 1300.223,1539.523 1436.000 C 1619.542 1597.163,1660.650 1757.124,1670.330 1945.000 L 1673.164 2000.000 1815.203 2000.000 L 1957.242 2000.000 1954.605 1938.839 C 1945.166 1719.921,1891.508 1508.533,1795.999 1314.000 C 1601.567 917.979,1239.677 618.584,812.000 499.927 C 704.442 470.085,521.819 444.104,419.000 444.016 L 400.000 444.000 400.000 585.418 M400.000 1150.926 L 400.000 1291.068 427.000 1293.705 C 561.497 1306.843,630.427 1326.029,731.663 1378.502 C 802.249 1415.089,825.718 1433.004,898.229 1505.651 C 970.592 1578.149,994.222 1610.474,1031.692 1688.221 C 1071.487 1770.790,1095.208 1853.310,1101.770 1932.000 C 1103.146 1948.500,1105.280 1970.550,1106.511 1981.000 L 1108.751 2000.000 1250.676 2000.000 L 1392.601 2000.000 1390.038 1963.000 C 1379.657 1813.115,1348.147 1687.505,1292.217 1573.042 C 1243.041 1472.400,1190.390 1396.288,1116.884 1319.578 C 939.587 1134.555,704.449 1026.062,453.440 1013.465 L 400.000 1010.783 400.000 1150.926 M581.387 1568.149 C 502.842 1582.148,437.572 1638.690,411.212 1715.566 C 399.306 1750.287,398.522 1811.216,409.559 1844.000 C 432.116 1911.004,481.719 1962.460,547.940 1987.549 C 569.900 1995.869,580.922 1997.422,618.000 1997.422 C 655.078 1997.422,666.100 1995.869,688.060 1987.549 C 738.813 1968.320,785.237 1928.789,809.571 1884.079 C 822.937 1859.521,836.000 1809.067,836.000 1782.000 C 836.000 1754.596,822.892 1704.414,809.087 1678.964 C 784.157 1633.006,733.681 1591.018,685.457 1576.123 C 654.907 1566.687,609.227 1563.187,581.387 1568.149 " fill="#1D1E23" stroke="none" fill-rule="evenodd"/></svg>