<svg viewBox="0 0 2400 2400" fill="none" xmlns="http://www.w3.org/2000/svg"><path d="M497.185 461.791 C 455.836 474.715,413.465 522.142,403.505 566.650 C 398.164 590.517,402.172 621.272,414.706 652.597 C 422.152 671.207,460.549 707.638,484.497 718.815 C 494.123 723.308,533.500 732.727,572.000 739.747 C 658.688 755.553,740.776 775.345,798.187 794.283 C 1127.335 902.860,1397.119 1140.574,1545.824 1453.049 C 1597.926 1562.530,1625.874 1652.004,1653.744 1798.551 C 1674.670 1908.578,1682.329 1930.710,1708.561 1956.942 C 1737.929 1986.310,1762.013 1995.933,1806.000 1995.873 C 1851.078 1995.812,1867.289 1989.030,1901.983 1955.715 C 1940.091 1919.122,1941.796 1914.022,1941.360 1838.000 C 1941.082 1789.706,1938.862 1763.202,1932.312 1730.000 C 1874.914 1439.037,1757.076 1192.383,1577.824 988.000 C 1526.842 929.871,1422.738 828.985,1370.000 786.601 C 1315.163 742.531,1217.758 677.410,1152.000 640.855 C 974.414 542.137,763.111 474.647,586.000 460.076 C 525.978 455.138,517.977 455.292,497.185 461.791 M499.755 1029.353 C 476.913 1035.646,462.298 1045.987,436.773 1073.915 C 388.592 1126.633,390.563 1205.550,441.357 1257.478 C 464.727 1281.369,471.501 1284.304,594.000 1323.620 C 741.149 1370.847,840.328 1432.792,926.779 1531.467 C 1001.679 1616.959,1046.552 1703.447,1088.145 1842.484 C 1096.998 1872.077,1108.768 1905.852,1114.302 1917.538 C 1126.012 1942.271,1150.452 1968.362,1176.000 1983.403 C 1192.386 1993.050,1197.765 1994.000,1236.000 1994.000 C 1286.203 1994.000,1303.427 1987.307,1336.172 1955.075 C 1377.944 1913.957,1385.440 1871.932,1366.161 1786.944 C 1325.464 1607.540,1234.292 1438.509,1112.312 1316.316 C 1021.423 1225.267,948.029 1171.067,846.188 1119.788 C 714.453 1053.455,559.289 1012.951,499.755 1029.353 M567.249 1571.828 C 526.499 1579.298,466.673 1621.008,440.509 1660.189 C 363.830 1775.017,407.878 1922.862,536.451 1982.207 C 560.887 1993.486,564.440 1994.000,618.000 1994.000 C 670.381 1994.000,675.478 1993.307,696.873 1983.279 C 745.950 1960.277,790.716 1920.308,808.825 1883.326 C 821.222 1858.007,836.000 1802.907,836.000 1782.000 C 836.000 1762.046,821.482 1706.637,809.763 1681.864 C 792.013 1644.345,738.895 1598.484,691.591 1579.839 C 667.228 1570.236,599.677 1565.884,567.249 1571.828 " fill="#1D1E23" stroke="none" fill-rule="evenodd"/></svg>