<svg viewBox="0 0 2400 2400" fill="none" xmlns="http://www.w3.org/2000/svg"><path d="M400.000 584.796 L 400.000 726.751 459.000 729.329 C 901.458 748.662,1302.477 999.136,1517.514 1390.468 C 1609.033 1557.018,1662.252 1748.315,1670.671 1941.000 L 1673.249 2000.000 1815.250 2000.000 L 1957.251 2000.000 1954.641 1937.000 C 1930.935 1364.731,1597.041 853.976,1082.000 602.126 C 885.080 505.834,688.197 456.372,459.000 445.612 L 400.000 442.842 400.000 584.796 M400.000 1152.000 C 400.000 1229.000,400.639 1292.000,401.419 1292.000 C 423.716 1292.000,513.890 1302.216,541.210 1307.837 C 631.135 1326.340,734.156 1370.782,808.000 1422.927 C 856.573 1457.226,941.981 1542.695,976.953 1592.000 C 1043.780 1686.215,1093.964 1820.469,1101.928 1926.338 C 1103.238 1943.752,1105.270 1967.450,1106.443 1979.000 L 1108.576 2000.000 1249.845 2000.000 L 1391.115 2000.000 1389.395 1965.000 C 1386.553 1907.161,1379.959 1852.781,1369.492 1800.861 C 1285.821 1385.829,938.923 1067.315,516.799 1017.937 C 488.886 1014.671,451.188 1012.000,433.025 1012.000 L 400.000 1012.000 400.000 1152.000 M569.103 1570.046 C 492.332 1586.727,424.577 1654.238,406.150 1732.412 C 369.493 1887.923,512.077 2030.507,667.588 1993.850 C 725.828 1980.122,781.983 1936.788,809.574 1884.283 C 896.306 1719.231,751.768 1530.355,569.103 1570.046 " fill="#1D1E23" stroke="none" fill-rule="evenodd"/></svg>