<svg viewBox="0 0 2400 2400" fill="none" xmlns="http://www.w3.org/2000/svg"><path d="M400.000 584.956 L 400.000 727.044 443.000 729.789 C 691.153 745.627,891.652 807.075,1076.000 923.789 C 1282.722 1054.668,1440.231 1232.690,1548.017 1457.278 C 1619.670 1606.581,1654.278 1743.884,1668.428 1935.000 L 1673.240 2000.000 1815.235 2000.000 L 1957.230 2000.000 1954.522 1941.000 C 1933.220 1476.929,1716.550 1055.890,1354.000 774.050 C 1094.115 572.021,800.385 465.427,449.000 445.628 L 400.000 442.867 400.000 584.956 M400.000 1151.020 L 400.000 1291.215 425.000 1293.910 C 481.530 1300.004,556.241 1312.720,590.830 1322.134 C 648.328 1337.783,733.466 1376.736,788.666 1412.651 C 846.910 1450.545,943.659 1546.265,985.084 1606.981 C 1019.281 1657.103,1063.152 1755.993,1081.476 1824.260 C 1089.323 1853.494,1108.000 1974.599,1108.000 1996.247 C 1108.000 1998.514,1164.434 2000.000,1250.548 2000.000 L 1393.096 2000.000 1390.317 1961.000 C 1368.103 1649.305,1231.646 1391.481,994.000 1212.189 C 836.236 1093.163,649.740 1025.448,447.000 1013.578 L 400.000 1010.826 400.000 1151.020 M567.249 1571.828 C 526.499 1579.298,466.673 1621.008,440.509 1660.189 C 363.830 1775.017,407.878 1922.862,536.451 1982.207 C 560.887 1993.486,564.440 1994.000,618.000 1994.000 C 670.381 1994.000,675.478 1993.307,696.873 1983.279 C 745.950 1960.277,790.716 1920.308,808.825 1883.326 C 821.222 1858.007,836.000 1802.907,836.000 1782.000 C 836.000 1762.046,821.482 1706.637,809.763 1681.864 C 792.013 1644.345,738.895 1598.484,691.591 1579.839 C 667.228 1570.236,599.677 1565.884,567.249 1571.828 " fill="#1D1E23" stroke="none" fill-rule="evenodd"/></svg>