<svg viewBox="0 0 2400 2400" fill="none" xmlns="http://www.w3.org/2000/svg"><path d="M400.000 585.010 L 400.000 727.049 439.000 729.761 C 650.452 744.464,808.428 784.698,968.000 864.487 C 1197.683 979.334,1376.679 1150.151,1506.100 1378.000 C 1602.002 1546.837,1647.779 1701.296,1666.436 1919.000 L 1673.378 2000.000 1815.310 2000.000 L 1957.242 2000.000 1954.632 1943.000 C 1931.633 1440.793,1681.152 991.915,1268.000 712.512 C 1026.921 549.476,768.924 465.855,445.000 445.762 L 400.000 442.971 400.000 585.010 M400.000 1150.993 L 400.000 1291.078 423.000 1293.745 C 478.003 1300.122,568.721 1316.444,600.645 1325.707 C 673.319 1346.794,764.229 1392.899,822.000 1437.968 C 868.129 1473.955,958.561 1568.550,984.856 1608.321 C 1010.480 1647.078,1024.789 1674.715,1047.567 1729.446 C 1077.761 1801.995,1089.388 1849.388,1104.120 1959.963 C 1106.609 1978.643,1110.750 1995.266,1113.323 1996.902 C 1115.895 1998.539,1179.897 1999.905,1255.548 1999.939 L 1393.096 2000.000 1390.352 1961.000 C 1378.372 1790.769,1325.479 1620.405,1242.263 1484.021 C 1171.254 1367.643,1058.713 1252.609,940.000 1175.063 C 792.647 1078.808,629.411 1025.810,443.000 1013.701 L 400.000 1010.908 400.000 1150.993 M570.268 1572.244 C 526.484 1579.572,464.287 1623.918,436.028 1667.957 C 428.937 1679.007,418.830 1701.606,413.567 1718.177 C 381.281 1819.848,430.462 1929.195,530.775 1978.773 L 561.585 1994.000 618.160 1994.000 L 674.736 1994.000 705.766 1978.250 C 747.610 1957.011,791.717 1915.737,807.873 1882.702 C 821.042 1855.774,836.000 1802.221,836.000 1782.000 C 836.000 1761.769,821.039 1708.221,807.855 1681.262 C 792.136 1649.120,749.546 1609.155,710.388 1589.802 C 672.537 1571.095,617.978 1564.258,570.268 1572.244 " fill="#1D1E23" stroke="none" fill-rule="evenodd"/></svg>