<svg viewBox="0 0 2400 2400" fill="none" xmlns="http://www.w3.org/2000/svg"><path d="M506.000 459.579 C 484.594 465.124,462.403 478.940,443.198 498.677 C 379.984 563.643,390.540 657.186,466.783 707.687 C 489.140 722.496,494.359 723.986,595.369 744.393 C 815.768 788.921,949.210 841.617,1106.000 946.041 C 1184.951 998.623,1220.809 1028.246,1294.431 1101.709 C 1391.067 1198.136,1460.318 1290.857,1518.711 1402.000 C 1587.514 1532.955,1616.083 1615.440,1649.790 1780.444 C 1678.479 1920.883,1686.340 1941.171,1723.185 1969.876 C 1748.259 1989.411,1777.505 1997.411,1815.660 1995.169 C 1853.010 1992.976,1869.739 1985.369,1901.175 1956.287 C 1937.056 1923.093,1939.807 1914.635,1939.912 1837.203 C 1940.006 1767.663,1934.845 1731.347,1911.825 1639.597 C 1836.327 1338.674,1698.570 1097.969,1482.100 888.726 C 1387.581 797.363,1333.392 754.586,1222.533 683.827 C 1021.727 555.657,771.109 471.212,554.000 458.567 C 534.200 457.414,512.600 457.869,506.000 459.579 M477.918 1039.594 C 395.275 1086.998,377.236 1189.721,440.071 1255.114 C 462.033 1277.970,475.850 1284.359,576.882 1318.386 C 673.595 1350.958,737.922 1379.747,790.853 1414.145 C 907.009 1489.634,998.485 1602.916,1051.567 1737.012 C 1057.879 1752.955,1074.090 1799.448,1087.592 1840.329 C 1114.145 1920.722,1125.197 1942.075,1152.375 1965.494 C 1181.744 1990.801,1189.780 1993.628,1232.000 1993.507 C 1287.789 1993.348,1300.336 1988.567,1334.418 1954.485 C 1366.881 1922.022,1376.000 1901.061,1376.000 1858.902 C 1376.000 1789.531,1326.451 1635.620,1270.760 1532.000 C 1247.646 1488.995,1201.230 1419.204,1170.999 1382.000 C 1135.797 1338.678,1046.369 1251.954,1000.602 1216.755 C 862.413 1110.474,658.519 1027.910,534.558 1028.038 C 501.630 1028.071,496.006 1029.219,477.918 1039.594 M570.268 1572.244 C 526.484 1579.572,464.287 1623.918,436.028 1667.957 C 428.937 1679.007,418.830 1701.606,413.567 1718.177 C 381.281 1819.848,430.462 1929.195,530.775 1978.773 L 561.585 1994.000 618.160 1994.000 L 674.736 1994.000 705.766 1978.250 C 747.610 1957.011,791.717 1915.737,807.873 1882.702 C 821.042 1855.774,836.000 1802.221,836.000 1782.000 C 836.000 1761.769,821.039 1708.221,807.855 1681.262 C 792.136 1649.120,749.546 1609.155,710.388 1589.802 C 672.537 1571.095,617.978 1564.258,570.268 1572.244 " fill="#1D1E23" stroke="none" fill-rule="evenodd"/></svg>