<svg viewBox="0 0 2400 2400" fill="none" xmlns="http://www.w3.org/2000/svg"><path d="M400.000 584.878 L 400.000 726.972 449.000 729.807 C 766.050 748.153,1029.167 855.676,1254.000 1058.771 C 1388.118 1179.922,1489.707 1321.627,1566.019 1494.000 C 1625.039 1627.313,1657.745 1766.014,1668.594 1929.000 L 1673.320 2000.000 1815.281 2000.000 L 1957.242 2000.000 1954.553 1937.619 C 1927.977 1321.272,1543.012 780.893,968.000 552.786 C 813.057 491.320,637.612 454.708,453.812 445.484 L 400.000 442.783 400.000 584.878 M400.000 1151.368 L 400.000 1290.736 457.000 1297.452 C 527.025 1305.702,576.746 1315.961,625.082 1332.130 C 669.292 1346.919,750.324 1386.311,789.616 1412.114 C 849.699 1451.572,948.744 1550.851,989.030 1612.000 C 1029.790 1673.867,1074.346 1781.527,1089.994 1855.955 C 1094.657 1878.133,1108.000 1983.711,1108.000 1998.427 C 1108.000 1999.292,1172.114 2000.000,1250.476 2000.000 L 1392.951 2000.000 1390.171 1961.000 C 1377.638 1785.188,1331.620 1632.768,1249.081 1493.690 C 1118.934 1274.392,893.367 1105.609,648.042 1043.956 C 573.518 1025.228,479.638 1012.143,419.000 1012.034 L 400.000 1012.000 400.000 1151.368 M557.788 1573.613 C 512.064 1587.934,463.392 1624.009,437.824 1662.529 C 359.591 1780.392,414.435 1938.803,550.456 1987.856 C 571.775 1995.544,581.312 1996.504,624.788 1995.338 C 674.543 1994.003,674.747 1993.958,709.989 1976.480 C 752.197 1955.548,792.717 1917.726,809.233 1883.846 C 822.202 1857.241,836.000 1804.742,836.000 1782.000 C 836.000 1759.258,822.202 1706.759,809.233 1680.154 C 786.662 1633.851,720.789 1583.324,668.803 1572.438 C 640.799 1566.575,578.144 1567.237,557.788 1573.613 " fill="#1D1E23" stroke="none" fill-rule="evenodd"/></svg>