<svg viewBox="0 0 2400 2400" fill="none" xmlns="http://www.w3.org/2000/svg"><path d="M497.199 459.167 C 421.277 486.428,383.136 563.228,408.148 638.477 C 415.692 661.171,421.570 670.272,441.648 690.350 C 472.124 720.824,492.484 728.847,562.000 737.779 C 705.756 756.250,832.216 794.818,963.912 860.354 C 1091.821 924.007,1184.487 989.566,1285.439 1087.826 C 1499.024 1295.718,1628.857 1559.296,1663.826 1856.000 C 1671.554 1921.573,1697.660 1962.475,1747.361 1986.883 C 1767.024 1996.539,1774.732 1998.000,1806.000 1998.000 C 1837.681 1998.000,1844.853 1996.599,1865.782 1986.323 C 1913.434 1962.926,1943.393 1919.416,1947.051 1868.293 C 1949.304 1836.802,1936.962 1746.454,1919.416 1666.000 C 1833.345 1271.323,1592.241 922.104,1251.582 698.696 C 1066.286 577.177,866.891 500.174,644.000 464.057 C 567.069 451.592,522.437 450.105,497.199 459.167 M512.527 1024.195 C 414.566 1044.094,367.613 1163.034,426.383 1242.415 C 444.082 1266.321,468.857 1285.835,491.778 1293.921 C 501.223 1297.254,529.746 1304.645,555.161 1310.345 C 731.111 1349.807,884.448 1454.531,984.600 1603.638 C 1035.704 1679.722,1070.861 1760.348,1089.640 1844.524 C 1095.349 1870.112,1102.746 1898.777,1106.079 1908.222 C 1118.661 1943.886,1155.527 1979.532,1193.344 1992.600 C 1251.324 2012.637,1320.346 1988.440,1355.537 1935.741 C 1385.083 1891.496,1386.126 1861.197,1361.487 1762.937 C 1316.978 1585.440,1228.822 1428.998,1101.379 1301.351 C 968.479 1168.238,796.475 1073.708,616.000 1034.596 C 558.235 1022.077,534.633 1019.705,512.527 1024.195 M569.103 1570.046 C 492.332 1586.727,424.577 1654.238,406.150 1732.412 C 369.493 1887.923,512.077 2030.507,667.588 1993.850 C 725.828 1980.122,781.983 1936.788,809.574 1884.283 C 896.306 1719.231,751.768 1530.355,569.103 1570.046 " fill="#1D1E23" stroke="none" fill-rule="evenodd"/></svg>