<svg viewBox="0 0 2400 2400" fill="none" xmlns="http://www.w3.org/2000/svg"><path d="M1037.005 206.008 C 985.976 217.211,988.282 215.177,701.749 501.730 C 471.090 732.405,431.995 773.179,422.780 792.684 C 398.784 843.473,400.000 808.898,400.000 1440.644 C 400.000 1847.867,401.311 2025.894,404.420 2040.803 C 420.053 2115.765,484.235 2179.947,559.197 2195.580 C 589.114 2201.819,1810.886 2201.819,1840.803 2195.580 C 1915.765 2179.947,1979.947 2115.765,1995.580 2040.803 C 2001.839 2010.789,2001.839 389.211,1995.580 359.197 C 1981.788 293.062,1934.082 238.710,1866.000 211.568 L 1842.000 202.000 1452.000 201.261 C 1134.240 200.658,1057.370 201.538,1037.005 206.008 M1134.017 406.625 C 1145.651 410.589,1160.290 420.080,1170.465 430.255 C 1197.738 457.528,1200.000 470.528,1200.000 600.000 C 1200.000 729.472,1197.738 742.472,1170.465 769.745 C 1130.966 809.244,1069.192 809.402,1029.895 770.105 C 1001.843 742.054,1000.000 731.566,1000.000 600.000 C 1000.000 468.367,1001.833 457.956,1029.967 429.823 C 1057.748 402.041,1095.720 393.575,1134.017 406.625 M1434.017 406.625 C 1445.651 410.589,1460.290 420.080,1470.465 430.255 C 1497.738 457.528,1500.000 470.528,1500.000 600.000 C 1500.000 729.472,1497.738 742.472,1470.465 769.745 C 1430.966 809.244,1369.192 809.402,1329.895 770.105 C 1301.843 742.054,1300.000 731.566,1300.000 600.000 C 1300.000 468.367,1301.833 457.956,1329.967 429.823 C 1357.748 402.041,1395.720 393.575,1434.017 406.625 M1734.017 406.625 C 1745.651 410.589,1760.290 420.080,1770.465 430.255 C 1797.738 457.528,1800.000 470.528,1800.000 600.000 C 1800.000 729.472,1797.738 742.472,1770.465 769.745 C 1730.966 809.244,1669.192 809.402,1629.895 770.105 C 1601.843 742.054,1600.000 731.566,1600.000 600.000 C 1600.000 468.367,1601.833 457.956,1629.967 429.823 C 1657.748 402.041,1695.720 393.575,1734.017 406.625 " fill="#1D1E23" stroke="none" fill-rule="evenodd"/></svg>