<svg viewBox="0 0 2400 2400" fill="none" xmlns="http://www.w3.org/2000/svg"><path d="M1090.000 203.462 C 1014.446 206.659,1006.329 209.560,957.444 250.829 C 914.605 286.994,458.080 744.790,437.603 772.118 C 415.206 802.008,408.177 822.351,403.911 869.641 C 399.465 918.913,399.237 1976.751,403.662 2023.037 C 409.953 2088.847,451.631 2147.566,513.893 2178.337 C 541.415 2191.939,549.138 2193.851,587.325 2196.516 C 642.986 2200.400,1757.014 2200.400,1812.675 2196.516 C 1850.862 2193.851,1858.585 2191.939,1886.107 2178.337 C 1926.914 2158.169,1958.189 2126.874,1978.395 2085.989 C 1993.391 2055.647,1993.712 2054.034,1996.977 1992.557 C 1998.805 1958.151,1999.782 1576.300,1999.150 1144.000 L 1998.000 358.000 1988.375 334.000 C 1967.233 281.285,1934.320 245.887,1882.797 220.449 L 1850.000 204.257 1502.000 202.506 C 1310.600 201.542,1125.200 201.973,1090.000 203.462 M1144.071 412.036 C 1165.941 423.193,1187.173 446.442,1193.015 465.629 C 1200.000 488.567,1200.000 711.433,1193.015 734.371 C 1187.097 753.808,1166.042 776.654,1142.775 788.886 C 1130.501 795.338,1119.024 797.712,1100.000 797.733 C 1069.851 797.766,1051.798 790.382,1029.803 769.021 C 1004.062 744.021,1002.787 737.615,1000.951 624.000 C 999.027 504.922,1002.626 466.130,1017.582 444.725 C 1045.835 404.289,1100.961 390.043,1144.071 412.036 M1444.071 412.036 C 1465.941 423.193,1487.173 446.442,1493.015 465.629 C 1500.000 488.567,1500.000 711.433,1493.015 734.371 C 1487.097 753.808,1466.042 776.654,1442.775 788.886 C 1430.501 795.338,1419.024 797.712,1400.000 797.733 C 1369.851 797.766,1351.798 790.382,1329.803 769.021 C 1304.062 744.021,1302.787 737.615,1300.951 624.000 C 1299.027 504.922,1302.626 466.130,1317.582 444.725 C 1345.835 404.289,1400.961 390.043,1444.071 412.036 M1744.071 412.036 C 1765.941 423.193,1787.173 446.442,1793.015 465.629 C 1800.000 488.567,1800.000 711.433,1793.015 734.371 C 1787.097 753.808,1766.042 776.654,1742.775 788.886 C 1730.501 795.338,1719.024 797.712,1700.000 797.733 C 1669.851 797.766,1651.798 790.382,1629.803 769.021 C 1604.062 744.021,1602.787 737.615,1600.951 624.000 C 1599.027 504.922,1602.626 466.130,1617.582 444.725 C 1645.835 404.289,1700.961 390.043,1744.071 412.036 " fill="#1D1E23" stroke="none" fill-rule="evenodd"/></svg>