<svg viewBox="0 0 2400 2400" fill="none" xmlns="http://www.w3.org/2000/svg"><path d="M1182.000 208.138 C 1083.965 209.741,1021.011 212.360,1012.572 215.188 C 988.017 223.416,955.179 252.833,808.507 398.000 C 570.693 633.373,432.880 777.107,421.823 801.294 C 401.902 844.875,402.000 841.596,402.000 1462.209 L 402.000 2042.418 416.816 2072.209 C 442.749 2124.355,485.205 2167.335,527.553 2184.312 C 548.173 2192.579,559.115 2193.552,662.000 2196.273 C 821.051 2200.479,1604.287 2200.316,1738.000 2196.050 C 1799.600 2194.084,1856.752 2190.483,1865.005 2188.048 C 1885.713 2181.939,1938.878 2140.872,1956.907 2117.060 C 1965.107 2106.231,1976.782 2086.713,1982.853 2073.686 L 1993.892 2050.000 1996.546 1910.000 C 1998.006 1833.000,1999.381 1451.790,1999.600 1062.867 L 2000.000 355.734 1989.522 334.867 C 1962.522 281.096,1930.533 248.370,1875.668 218.389 L 1849.336 204.000 1593.668 204.794 C 1453.051 205.231,1267.800 206.736,1182.000 208.138 M1142.734 414.617 C 1149.791 417.965,1163.763 429.469,1173.782 440.181 L 1192.000 459.657 1192.000 597.046 L 1192.000 734.434 1180.214 753.019 C 1163.337 779.631,1142.120 792.430,1110.701 794.952 C 1067.553 798.415,1037.527 783.633,1017.089 748.864 L 1006.000 730.000 1006.000 598.000 L 1006.000 466.000 1019.798 446.833 C 1035.237 425.387,1054.272 411.997,1075.666 407.534 C 1094.512 403.603,1126.684 407.000,1142.734 414.617 M1442.734 414.617 C 1449.791 417.965,1463.763 429.469,1473.782 440.181 L 1492.000 459.657 1492.000 597.046 L 1492.000 734.434 1480.214 753.019 C 1463.337 779.631,1442.120 792.430,1410.701 794.952 C 1367.553 798.415,1337.527 783.633,1317.089 748.864 L 1306.000 730.000 1306.000 598.000 L 1306.000 466.000 1319.798 446.833 C 1335.237 425.387,1354.272 411.997,1375.666 407.534 C 1394.512 403.603,1426.684 407.000,1442.734 414.617 M1742.734 414.617 C 1749.791 417.965,1763.763 429.469,1773.782 440.181 L 1792.000 459.657 1792.000 597.046 L 1792.000 734.434 1780.214 753.019 C 1763.337 779.631,1742.120 792.430,1710.701 794.952 C 1667.553 798.415,1637.527 783.633,1617.089 748.864 L 1606.000 730.000 1606.000 598.000 L 1606.000 466.000 1619.798 446.833 C 1635.237 425.387,1654.272 411.997,1675.666 407.534 C 1694.512 403.603,1726.684 407.000,1742.734 414.617 " fill="#1D1E23" stroke="none" fill-rule="evenodd"/></svg>