<svg viewBox="0 0 2400 2400" fill="none" xmlns="http://www.w3.org/2000/svg"><path d="M1035.612 208.051 C 1011.460 212.137,995.562 220.550,963.727 246.091 C 932.568 271.090,486.100 716.848,449.512 759.487 C 413.606 801.332,408.020 818.422,403.381 900.609 C 401.254 938.292,400.191 1198.843,400.935 1500.609 C 402.172 2002.791,402.673 2035.287,409.498 2056.000 C 426.886 2108.766,468.709 2156.476,518.343 2180.164 C 542.139 2191.521,550.580 2193.238,597.490 2196.265 C 626.371 2198.129,897.500 2199.654,1200.000 2199.654 C 1502.500 2199.654,1773.629 2198.129,1802.510 2196.265 C 1849.750 2193.217,1857.778 2191.565,1882.510 2179.807 C 1919.118 2162.404,1961.697 2120.144,1979.717 2083.332 C 1991.926 2058.392,1993.011 2052.693,1996.479 1995.332 C 1998.604 1960.171,1999.720 1596.904,1999.093 1144.000 L 1998.000 354.000 1983.065 322.721 C 1962.058 278.727,1929.502 245.717,1883.878 222.154 L 1848.729 204.000 1451.365 204.470 C 1232.814 204.729,1045.725 206.341,1035.612 208.051 M1137.419 409.500 C 1156.942 417.657,1180.279 439.782,1188.540 457.966 C 1195.082 472.366,1195.833 486.751,1195.912 599.128 C 1196.009 737.172,1195.324 741.764,1170.797 767.351 C 1150.434 788.594,1130.870 796.706,1100.000 796.706 C 1067.268 796.706,1048.637 788.265,1025.166 762.802 C 1011.325 747.785,1008.184 741.179,1005.515 721.465 C 1000.056 681.139,1001.386 488.334,1007.259 468.773 C 1013.707 447.295,1036.940 421.054,1058.000 411.463 C 1077.348 402.651,1118.589 401.632,1137.419 409.500 M1437.419 409.500 C 1456.942 417.657,1480.279 439.782,1488.540 457.966 C 1495.082 472.366,1495.833 486.751,1495.912 599.128 C 1496.009 737.172,1495.324 741.764,1470.797 767.351 C 1450.434 788.594,1430.870 796.706,1400.000 796.706 C 1367.268 796.706,1348.637 788.265,1325.166 762.802 C 1311.325 747.785,1308.184 741.179,1305.515 721.465 C 1300.056 681.139,1301.386 488.334,1307.259 468.773 C 1313.707 447.295,1336.940 421.054,1358.000 411.463 C 1377.348 402.651,1418.589 401.632,1437.419 409.500 M1737.419 409.500 C 1756.942 417.657,1780.279 439.782,1788.540 457.966 C 1795.082 472.366,1795.833 486.751,1795.912 599.128 C 1796.009 737.172,1795.324 741.764,1770.797 767.351 C 1750.434 788.594,1730.870 796.706,1700.000 796.706 C 1667.268 796.706,1648.637 788.265,1625.166 762.802 C 1611.325 747.785,1608.184 741.179,1605.515 721.465 C 1600.056 681.139,1601.386 488.334,1607.259 468.773 C 1613.707 447.295,1636.940 421.054,1658.000 411.463 C 1677.348 402.651,1718.589 401.632,1737.419 409.500 " fill="#1D1E23" stroke="none" fill-rule="evenodd"/></svg>