<svg viewBox="0 0 2400 2400" fill="none" xmlns="http://www.w3.org/2000/svg"><path d="M1104.000 207.783 C 1002.788 210.392,1006.206 209.165,943.560 265.393 C 882.665 320.051,446.447 760.226,432.078 781.515 C 413.376 809.225,408.244 830.110,403.947 896.000 C 399.687 961.326,399.203 1831.160,403.352 1964.249 L 406.042 2050.499 421.427 2081.630 C 438.740 2116.659,474.119 2155.554,504.740 2173.220 C 515.047 2179.167,534.847 2187.175,548.740 2191.016 C 572.278 2197.524,616.671 2198.000,1200.000 2198.000 C 1908.680 2198.000,1853.366 2200.546,1904.898 2165.553 C 1947.174 2136.846,1978.330 2096.328,1990.676 2054.000 C 1997.225 2031.549,1997.765 1976.021,1999.037 1193.859 L 2000.396 357.718 1984.315 325.859 C 1958.174 274.071,1926.728 243.683,1869.133 214.554 L 1848.266 204.000 1519.133 204.783 C 1338.110 205.213,1151.300 206.563,1104.000 207.783 M1150.453 418.257 C 1161.068 424.820,1175.208 437.950,1181.876 447.435 L 1194.000 464.680 1194.000 591.340 C 1194.000 661.003,1192.548 724.857,1190.774 733.239 C 1186.752 752.236,1163.283 778.844,1142.000 788.537 C 1119.469 798.799,1079.555 798.435,1057.517 787.766 C 1035.166 776.946,1013.529 752.534,1007.960 731.853 C 1004.980 720.783,1003.908 673.731,1004.745 590.626 L 1006.000 466.000 1019.009 447.266 C 1041.732 414.544,1064.589 403.594,1106.577 405.317 C 1125.745 406.103,1135.400 408.951,1150.453 418.257 M1450.453 418.257 C 1461.068 424.820,1475.208 437.950,1481.876 447.435 L 1494.000 464.680 1494.000 591.340 C 1494.000 661.003,1492.548 724.857,1490.774 733.239 C 1486.752 752.236,1463.283 778.844,1442.000 788.537 C 1419.469 798.799,1379.555 798.435,1357.517 787.766 C 1335.166 776.946,1313.529 752.534,1307.960 731.853 C 1304.980 720.783,1303.908 673.731,1304.745 590.626 L 1306.000 466.000 1319.009 447.266 C 1341.732 414.544,1364.589 403.594,1406.577 405.317 C 1425.745 406.103,1435.400 408.951,1450.453 418.257 M1750.453 418.257 C 1761.068 424.820,1775.208 437.950,1781.876 447.435 L 1794.000 464.680 1794.000 591.340 C 1794.000 661.003,1792.548 724.857,1790.774 733.239 C 1786.752 752.236,1763.283 778.844,1742.000 788.537 C 1719.469 798.799,1679.555 798.435,1657.517 787.766 C 1635.166 776.946,1613.529 752.534,1607.960 731.853 C 1604.980 720.783,1603.908 673.731,1604.745 590.626 L 1606.000 466.000 1619.009 447.266 C 1641.732 414.544,1664.589 403.594,1706.577 405.317 C 1725.745 406.103,1735.400 408.951,1750.453 418.257 " fill="#1D1E23" stroke="none" fill-rule="evenodd"/></svg>