<svg viewBox="0 0 2400 2400" fill="none" xmlns="http://www.w3.org/2000/svg"><path d="M568.000 202.763 C 488.648 216.047,420.727 281.000,404.420 359.197 C 398.161 389.211,398.161 2010.789,404.420 2040.803 C 420.053 2115.765,484.235 2179.947,559.197 2195.580 C 574.144 2198.697,763.470 2200.000,1201.356 2200.000 C 1745.763 2200.000,1825.258 2199.245,1846.160 2193.878 C 1921.672 2174.488,1980.207 2114.522,1995.580 2040.803 C 1998.711 2025.789,2000.000 1812.274,2000.000 1308.788 L 2000.000 597.970 1800.985 398.985 L 1601.970 200.000 1089.985 200.545 C 808.393 200.844,573.500 201.843,568.000 202.763 M900.000 1050.000 L 900.000 1300.000 1400.000 1300.000 L 1900.000 1300.000 1900.000 1450.000 L 1900.000 1600.000 1200.000 1600.000 L 500.000 1600.000 500.000 1242.713 C 500.000 840.398,498.482 861.307,529.967 829.823 C 558.753 801.036,561.354 800.673,741.000 800.316 L 900.000 800.000 900.000 1050.000 M1400.000 1000.000 L 1400.000 1200.000 1200.000 1200.000 L 1000.000 1200.000 1000.000 1000.000 L 1000.000 800.000 1200.000 800.000 L 1400.000 800.000 1400.000 1000.000 M1834.017 806.625 C 1859.335 815.251,1884.749 840.665,1893.375 865.983 C 1899.100 882.783,1900.000 906.802,1900.000 1042.713 L 1900.000 1200.000 1700.000 1200.000 L 1500.000 1200.000 1500.000 1000.000 L 1500.000 800.000 1657.287 800.000 C 1793.198 800.000,1817.217 800.900,1834.017 806.625 M900.000 1900.000 L 900.000 2100.000 742.713 2100.000 C 563.765 2100.000,559.140 2099.350,529.895 2070.105 C 500.650 2040.860,500.000 2036.235,500.000 1857.287 L 500.000 1700.000 700.000 1700.000 L 900.000 1700.000 900.000 1900.000 M1400.000 1900.000 L 1400.000 2100.000 1200.000 2100.000 L 1000.000 2100.000 1000.000 1900.000 L 1000.000 1700.000 1200.000 1700.000 L 1400.000 1700.000 1400.000 1900.000 M1900.000 1857.287 C 1900.000 2036.235,1899.350 2040.860,1870.105 2070.105 C 1840.860 2099.350,1836.235 2100.000,1657.287 2100.000 L 1500.000 2100.000 1500.000 1900.000 L 1500.000 1700.000 1700.000 1700.000 L 1900.000 1700.000 1900.000 1857.287 " fill="#1D1E23" stroke="none" fill-rule="evenodd"/></svg>