<svg viewBox="0 0 2400 2400" fill="none" xmlns="http://www.w3.org/2000/svg"><path d="M625.766 203.802 L 545.532 206.000 515.021 221.092 C 473.789 241.488,441.632 273.488,421.563 314.096 C 407.192 343.173,406.048 348.189,403.438 393.566 C 399.803 456.762,399.803 1943.238,403.438 2006.434 C 406.048 2051.799,407.195 2056.833,421.544 2085.866 C 452.948 2149.408,511.459 2190.447,579.100 2196.373 C 630.373 2200.866,1778.997 2200.594,1821.926 2196.079 C 1898.380 2188.039,1961.078 2138.898,1989.177 2064.995 L 1997.920 2042.000 1999.104 1320.159 L 2000.288 598.318 1801.159 399.159 L 1602.030 200.000 1154.015 200.802 C 907.607 201.244,669.895 202.594,625.766 203.802 M900.000 1050.000 L 900.000 1300.000 1400.000 1300.000 L 1900.000 1300.000 1900.000 1450.000 L 1900.000 1600.000 1200.000 1600.000 L 500.000 1600.000 500.204 1273.000 C 500.316 1093.150,501.902 926.611,503.729 902.914 C 507.522 853.721,514.755 838.267,543.219 818.541 C 565.496 803.104,588.310 801.201,759.000 800.543 L 900.000 800.000 900.000 1050.000 M1400.000 1000.000 L 1400.000 1200.000 1200.000 1200.000 L 1000.000 1200.000 1000.000 1000.000 L 1000.000 800.000 1200.000 800.000 L 1400.000 800.000 1400.000 1000.000 M1842.000 810.651 C 1860.861 820.845,1880.155 840.456,1890.552 860.000 C 1897.397 872.866,1898.106 887.201,1899.313 1037.000 L 1900.627 1200.000 1700.313 1200.000 L 1500.000 1200.000 1500.000 999.687 L 1500.000 799.373 1663.000 800.688 C 1821.183 801.964,1826.473 802.258,1842.000 810.651 M900.000 1900.279 L 900.000 2100.559 737.000 2099.253 C 555.484 2097.799,558.494 2098.227,530.133 2069.867 C 502.127 2041.861,502.479 2044.336,500.777 1863.000 L 499.247 1700.000 699.624 1700.000 L 900.000 1700.000 900.000 1900.279 M1400.000 1900.000 L 1400.000 2100.000 1200.000 2100.000 L 1000.000 2100.000 1000.000 1900.000 L 1000.000 1700.000 1200.000 1700.000 L 1400.000 1700.000 1400.000 1900.000 M1899.223 1863.000 C 1897.521 2044.336,1897.873 2041.861,1869.867 2069.867 C 1841.506 2098.227,1844.516 2097.799,1663.000 2099.253 L 1500.000 2100.559 1500.000 1900.279 L 1500.000 1700.000 1700.376 1700.000 L 1900.753 1700.000 1899.223 1863.000 " fill="#1D1E23" stroke="none" fill-rule="evenodd"/></svg>