<svg viewBox="0 0 2400 2400" fill="none" xmlns="http://www.w3.org/2000/svg"><path d="M805.911 203.823 L 541.822 206.000 512.204 223.599 C 473.777 246.431,437.578 283.369,420.333 317.343 L 406.760 344.086 403.177 429.043 C 397.469 564.436,401.586 2029.554,407.742 2053.219 C 418.451 2094.389,468.256 2153.805,512.025 2177.627 C 549.107 2197.810,549.574 2197.824,1198.000 2197.915 C 1848.501 2198.007,1844.800 2198.117,1888.000 2177.243 C 1921.836 2160.894,1964.581 2115.992,1982.967 2077.485 L 1998.000 2046.000 1999.032 1322.047 L 2000.065 598.094 1801.047 399.047 L 1602.030 200.000 1336.015 200.823 C 1189.707 201.275,951.160 202.625,805.911 203.823 M900.000 1050.000 L 900.000 1300.000 1400.000 1300.000 L 1900.000 1300.000 1900.000 1450.000 L 1900.000 1600.000 1200.000 1600.000 L 500.000 1600.000 500.231 1355.000 C 500.527 1042.000,504.753 875.189,512.875 855.938 C 519.389 840.500,542.897 817.901,559.444 811.171 C 572.793 805.742,668.914 801.527,799.000 800.668 L 900.000 800.000 900.000 1050.000 M1400.000 1000.000 L 1400.000 1200.000 1200.000 1200.000 L 1000.000 1200.000 1000.000 1000.000 L 1000.000 800.000 1200.000 800.000 L 1400.000 800.000 1400.000 1000.000 M1850.947 818.121 C 1862.468 825.761,1876.698 839.271,1882.570 848.144 C 1892.955 863.837,1893.332 866.539,1896.379 947.139 C 1898.101 992.712,1899.621 1068.250,1899.755 1115.000 L 1900.000 1200.000 1700.000 1200.000 L 1500.000 1200.000 1500.000 999.357 L 1500.000 798.713 1665.000 801.472 L 1830.000 804.231 1850.947 818.121 M900.000 1900.000 L 900.000 2100.000 787.000 2099.744 C 724.850 2099.603,648.348 2098.117,616.996 2096.441 C 561.597 2093.479,559.571 2093.053,544.996 2081.316 C 536.748 2074.673,524.846 2061.955,518.547 2053.052 L 507.093 2036.866 503.724 1937.433 C 501.872 1882.745,500.276 1806.950,500.178 1769.000 L 500.000 1700.000 700.000 1700.000 L 900.000 1700.000 900.000 1900.000 M1400.000 1900.000 L 1400.000 2100.000 1200.000 2100.000 L 1000.000 2100.000 1000.000 1900.000 L 1000.000 1700.000 1200.000 1700.000 L 1400.000 1700.000 1400.000 1900.000 M1899.809 1767.000 C 1899.704 1803.850,1898.120 1879.629,1896.287 1935.398 L 1892.956 2036.796 1881.478 2053.017 C 1875.165 2061.939,1863.252 2074.673,1855.004 2081.316 C 1840.429 2093.053,1838.403 2093.479,1783.004 2096.441 C 1751.652 2098.117,1675.150 2099.603,1613.000 2099.744 L 1500.000 2100.000 1500.000 1900.000 L 1500.000 1700.000 1700.000 1700.000 L 1900.000 1700.000 1899.809 1767.000 " fill="#1D1E23" stroke="none" fill-rule="evenodd"/></svg>