<svg viewBox="0 0 2400 2400" fill="none" xmlns="http://www.w3.org/2000/svg"><path d="M855.841 203.811 L 541.682 206.000 517.841 220.000 C 486.639 238.322,432.896 292.204,418.130 319.969 C 406.863 341.153,406.319 344.721,402.863 419.969 C 398.325 518.781,402.835 2013.609,407.767 2045.304 C 412.474 2075.558,430.462 2105.039,465.774 2140.376 C 498.903 2173.527,523.655 2186.553,564.011 2192.072 C 607.640 2198.039,1476.896 2201.651,1680.000 2196.709 C 1812.140 2193.494,1850.219 2191.366,1866.686 2186.274 C 1909.250 2173.111,1958.255 2125.581,1986.093 2070.463 L 2000.000 2042.925 2000.000 1320.448 L 2000.000 597.970 1800.985 398.985 L 1601.970 200.000 1385.985 200.811 C 1267.193 201.256,1028.628 202.606,855.841 203.811 M900.000 1050.000 L 900.000 1300.000 1400.000 1300.000 L 1900.000 1300.000 1900.000 1450.000 L 1900.000 1600.000 1200.000 1600.000 L 500.000 1600.000 500.118 1383.000 C 500.255 1132.724,505.822 886.944,511.863 864.509 C 517.350 844.132,528.686 830.279,550.182 817.682 C 566.925 807.870,571.720 807.220,648.890 804.308 C 693.500 802.624,768.250 800.966,815.000 800.623 L 900.000 800.000 900.000 1050.000 M1400.000 1000.000 L 1400.000 1200.000 1200.000 1200.000 L 1000.000 1200.000 1000.000 1000.000 L 1000.000 800.000 1200.000 800.000 L 1400.000 800.000 1400.000 1000.000 M1844.258 813.899 C 1863.865 826.595,1883.907 847.250,1888.657 859.656 C 1893.258 871.672,1899.681 1025.956,1899.870 1129.000 L 1900.000 1200.000 1700.000 1200.000 L 1500.000 1200.000 1500.000 999.495 L 1500.000 798.989 1665.000 801.828 C 1828.227 804.637,1830.153 804.766,1844.258 813.899 M900.000 1900.000 L 900.000 2100.000 779.000 2099.744 C 632.823 2099.434,570.941 2095.818,553.020 2086.537 C 545.881 2082.840,533.110 2071.048,524.640 2060.333 C 509.934 2041.728,509.128 2039.167,506.727 2003.426 C 505.345 1982.842,502.985 1906.150,501.484 1833.000 L 498.754 1700.000 699.377 1700.000 L 900.000 1700.000 900.000 1900.000 M1400.000 1900.000 L 1400.000 2100.000 1200.000 2100.000 L 1000.000 2100.000 1000.000 1900.000 L 1000.000 1700.000 1200.000 1700.000 L 1400.000 1700.000 1400.000 1900.000 M1898.515 1831.000 C 1897.035 1903.050,1894.693 1979.730,1893.312 2001.399 C 1890.886 2039.478,1890.285 2041.452,1875.381 2060.307 C 1866.899 2071.036,1854.119 2082.840,1846.980 2086.537 C 1829.059 2095.818,1767.177 2099.434,1621.000 2099.744 L 1500.000 2100.000 1500.000 1900.000 L 1500.000 1700.000 1700.604 1700.000 L 1901.207 1700.000 1898.515 1831.000 " fill="#1D1E23" stroke="none" fill-rule="evenodd"/></svg>