<svg viewBox="0 0 2400 2400" fill="none" xmlns="http://www.w3.org/2000/svg"><path d="M729.951 203.838 L 541.901 206.000 510.502 223.970 C 471.917 246.052,437.613 281.616,419.596 318.214 C 407.100 343.597,406.291 347.987,403.514 405.471 C 399.701 484.398,399.701 1915.602,403.514 1994.529 C 406.291 2052.013,407.100 2056.403,419.596 2081.786 C 435.528 2114.149,473.275 2155.565,501.617 2171.781 C 549.775 2199.334,507.735 2197.558,1146.714 2199.038 C 1758.514 2200.456,1833.904 2198.909,1872.972 2184.134 C 1923.225 2165.129,1969.409 2117.089,1989.987 2062.418 L 2000.000 2035.817 2000.000 1316.894 L 2000.000 597.970 1800.985 398.985 L 1601.970 200.000 1259.985 200.838 C 1071.893 201.299,833.378 202.649,729.951 203.838 M900.000 1050.000 L 900.000 1300.000 1400.000 1300.000 L 1900.000 1300.000 1900.000 1450.000 L 1900.000 1600.000 1200.000 1600.000 L 500.000 1600.000 500.259 1317.000 C 500.401 1161.350,501.902 996.048,503.593 949.663 C 506.460 871.060,507.326 864.137,516.334 847.827 C 522.417 836.815,533.064 825.963,545.056 818.554 C 562.083 808.033,568.896 806.484,609.056 804.004 C 633.775 802.478,709.350 800.952,777.000 800.614 L 900.000 800.000 900.000 1050.000 M1400.000 1000.000 L 1400.000 1200.000 1200.000 1200.000 L 1000.000 1200.000 1000.000 1000.000 L 1000.000 800.000 1200.000 800.000 L 1400.000 800.000 1400.000 1000.000 M1845.429 813.454 C 1855.179 819.168,1867.912 829.494,1873.724 836.401 C 1897.075 864.152,1896.523 859.780,1898.972 1036.484 L 1901.239 1200.000 1700.619 1200.000 L 1500.000 1200.000 1500.000 999.405 L 1500.000 798.809 1663.850 800.937 L 1827.701 803.064 1845.429 813.454 M900.000 1900.409 L 900.000 2100.818 739.000 2098.947 C 636.578 2097.757,572.874 2095.448,563.913 2092.602 C 544.147 2086.324,512.343 2052.963,507.632 2033.564 C 505.553 2025.004,502.705 1946.450,501.302 1859.000 L 498.751 1700.000 699.376 1700.000 L 900.000 1700.000 900.000 1900.409 M1400.000 1900.000 L 1400.000 2100.000 1200.000 2100.000 L 1000.000 2100.000 1000.000 1900.000 L 1000.000 1700.000 1200.000 1700.000 L 1400.000 1700.000 1400.000 1900.000 M1898.677 1859.000 C 1897.254 1946.450,1894.401 2025.004,1892.338 2033.564 C 1887.665 2052.958,1855.882 2086.315,1836.087 2092.602 C 1827.126 2095.448,1763.422 2097.757,1661.000 2098.947 L 1500.000 2100.818 1500.000 1900.409 L 1500.000 1700.000 1700.633 1700.000 L 1901.266 1700.000 1898.677 1859.000 " fill="#1D1E23" stroke="none" fill-rule="evenodd"/></svg>