<svg viewBox="0 0 2400 2400" fill="none" xmlns="http://www.w3.org/2000/svg"><path d="M536.000 207.890 L 342.000 210.000 314.345 223.517 C 281.780 239.434,239.614 279.536,223.179 310.222 C 217.227 321.333,210.255 341.129,207.686 354.212 C 204.237 371.770,202.569 616.852,201.318 1290.000 L 199.622 2202.000 400.811 2001.176 L 602.000 1800.352 1316.000 1798.949 C 2121.220 1797.367,2053.750 1800.224,2104.898 1765.532 C 2147.170 1736.861,2178.346 1696.316,2190.660 1654.000 C 2197.148 1631.703,2197.743 1584.861,2199.034 993.887 L 2200.425 357.775 2184.329 325.887 C 2158.174 274.070,2126.738 243.688,2069.133 214.554 L 2048.266 204.000 1389.133 204.890 C 1026.610 205.380,642.700 206.730,536.000 207.890 M900.000 1000.000 L 900.000 1100.000 800.000 1100.000 L 700.000 1100.000 700.000 1000.000 L 700.000 900.000 800.000 900.000 L 900.000 900.000 900.000 1000.000 M1300.000 1000.000 L 1300.000 1100.000 1200.000 1100.000 L 1100.000 1100.000 1100.000 1000.000 L 1100.000 900.000 1200.000 900.000 L 1300.000 900.000 1300.000 1000.000 M1700.000 1000.000 L 1700.000 1100.000 1600.000 1100.000 L 1500.000 1100.000 1500.000 1000.000 L 1500.000 900.000 1600.000 900.000 L 1700.000 900.000 1700.000 1000.000 " fill="#1D1E23" stroke="none" fill-rule="evenodd"/></svg>