<svg viewBox="0 0 2400 2400" fill="none" xmlns="http://www.w3.org/2000/svg"><path d="M368.000 207.662 C 309.198 212.244,245.758 260.875,216.866 323.515 C 207.671 343.449,206.701 351.532,203.665 433.515 C 201.863 482.182,200.301 899.993,200.194 1361.985 L 200.000 2201.970 401.015 2000.985 L 602.029 1800.000 1274.015 1799.804 C 1643.607 1799.696,1970.486 1798.114,2000.413 1796.288 C 2050.004 1793.263,2057.272 1791.806,2082.413 1779.853 C 2119.869 1762.046,2161.972 1720.027,2179.678 1682.780 C 2191.167 1658.613,2193.046 1649.643,2196.431 1602.780 C 2198.675 1571.721,2199.783 1303.896,2199.122 952.000 L 2198.000 354.000 2183.065 322.721 C 2162.058 278.727,2129.502 245.717,2083.878 222.154 L 2048.729 204.000 1223.365 204.662 C 769.414 205.027,384.500 206.377,368.000 207.662 M900.000 1000.000 L 900.000 1100.000 800.000 1100.000 L 700.000 1100.000 700.000 1000.000 L 700.000 900.000 800.000 900.000 L 900.000 900.000 900.000 1000.000 M1300.000 1000.000 L 1300.000 1100.000 1200.000 1100.000 L 1100.000 1100.000 1100.000 1000.000 L 1100.000 900.000 1200.000 900.000 L 1300.000 900.000 1300.000 1000.000 M1700.000 1000.000 L 1700.000 1100.000 1600.000 1100.000 L 1500.000 1100.000 1500.000 1000.000 L 1500.000 900.000 1600.000 900.000 L 1700.000 900.000 1700.000 1000.000 " fill="#1D1E23" stroke="none" fill-rule="evenodd"/></svg>