<svg viewBox="0 0 2400 2400" fill="none" xmlns="http://www.w3.org/2000/svg"><path d="M584.000 203.753 L 346.000 206.000 318.713 219.341 C 279.579 238.475,239.755 277.287,221.633 313.954 C 207.792 341.959,207.234 344.855,203.824 406.432 C 201.888 441.394,200.236 859.693,200.152 1335.985 L 200.000 2201.970 401.015 2000.985 L 602.029 1800.000 1290.015 1799.806 C 1668.407 1799.699,1995.494 1798.201,2016.875 1796.476 C 2050.208 1793.787,2060.105 1791.188,2086.307 1778.238 C 2126.813 1758.219,2158.235 1726.780,2178.285 1686.212 C 2192.396 1657.660,2193.670 1652.081,2196.876 1604.780 C 2198.770 1576.851,2199.797 1284.900,2199.159 956.000 L 2198.000 358.000 2188.375 334.000 C 2167.139 281.051,2134.179 245.678,2082.797 220.694 L 2050.000 204.747 1436.000 203.126 C 1098.300 202.235,714.900 202.516,584.000 203.753 M900.000 1000.000 L 900.000 1100.000 800.000 1100.000 L 700.000 1100.000 700.000 1000.000 L 700.000 900.000 800.000 900.000 L 900.000 900.000 900.000 1000.000 M1300.000 1000.000 L 1300.000 1100.000 1200.000 1100.000 L 1100.000 1100.000 1100.000 1000.000 L 1100.000 900.000 1200.000 900.000 L 1300.000 900.000 1300.000 1000.000 M1700.000 1000.000 L 1700.000 1100.000 1600.000 1100.000 L 1500.000 1100.000 1500.000 1000.000 L 1500.000 900.000 1600.000 900.000 L 1700.000 900.000 1700.000 1000.000 " fill="#1D1E23" stroke="none" fill-rule="evenodd"/></svg>