<svg viewBox="0 0 2400 2400" fill="none" xmlns="http://www.w3.org/2000/svg"><path d="M360.226 204.334 C 306.919 214.871,248.788 258.896,224.406 307.196 C 198.480 358.554,200.124 292.064,200.059 1291.985 L 200.000 2201.970 401.015 2000.985 L 602.029 1800.000 1310.818 1800.000 C 1812.822 1800.000,2025.790 1798.710,2040.803 1795.580 C 2115.765 1779.947,2179.947 1715.765,2195.580 1640.803 C 2201.819 1610.886,2201.819 389.114,2195.580 359.197 C 2181.788 293.062,2134.082 238.710,2066.000 211.568 L 2042.000 202.000 1210.000 201.410 C 745.558 201.081,370.148 202.373,360.226 204.334 M900.000 1000.000 L 900.000 1100.000 800.000 1100.000 L 700.000 1100.000 700.000 1000.000 L 700.000 900.000 800.000 900.000 L 900.000 900.000 900.000 1000.000 M1300.000 1000.000 L 1300.000 1100.000 1200.000 1100.000 L 1100.000 1100.000 1100.000 1000.000 L 1100.000 900.000 1200.000 900.000 L 1300.000 900.000 1300.000 1000.000 M1700.000 1000.000 L 1700.000 1100.000 1600.000 1100.000 L 1500.000 1100.000 1500.000 1000.000 L 1500.000 900.000 1600.000 900.000 L 1700.000 900.000 1700.000 1000.000 " fill="#1D1E23" stroke="none" fill-rule="evenodd"/></svg>