<svg viewBox="0 0 2400 2400" fill="none" xmlns="http://www.w3.org/2000/svg"><path d="M708.000 207.857 L 342.000 210.000 318.000 221.879 C 282.060 239.667,228.024 294.716,215.794 326.000 L 206.412 350.000 203.642 616.000 C 202.118 762.300,200.675 1178.993,200.436 1541.985 L 200.000 2201.970 401.015 2000.985 L 602.029 1800.000 1200.015 1799.814 C 1781.252 1799.633,2029.668 1796.358,2061.526 1788.456 C 2099.549 1779.025,2156.023 1727.256,2178.998 1680.770 L 2194.000 1650.417 2196.617 1538.208 C 2198.057 1476.494,2199.407 1185.190,2199.617 890.867 L 2200.000 355.734 2189.522 334.867 C 2162.522 281.096,2130.533 248.370,2075.668 218.389 L 2049.336 204.000 1561.668 204.857 C 1293.451 205.329,909.300 206.679,708.000 207.857 M900.000 1000.000 L 900.000 1100.000 800.000 1100.000 L 700.000 1100.000 700.000 1000.000 L 700.000 900.000 800.000 900.000 L 900.000 900.000 900.000 1000.000 M1300.000 1000.000 L 1300.000 1100.000 1200.000 1100.000 L 1100.000 1100.000 1100.000 1000.000 L 1100.000 900.000 1200.000 900.000 L 1300.000 900.000 1300.000 1000.000 M1700.000 1000.000 L 1700.000 1100.000 1600.000 1100.000 L 1500.000 1100.000 1500.000 1000.000 L 1500.000 900.000 1600.000 900.000 L 1700.000 900.000 1700.000 1000.000 " fill="#1D1E23" stroke="none" fill-rule="evenodd"/></svg>