<svg viewBox="0 0 2400 2400" fill="none" xmlns="http://www.w3.org/2000/svg"><path d="M608.373 236.173 C 598.677 240.572,516.463 306.284,425.673 382.201 C 240.124 537.354,241.799 535.511,242.320 584.000 C 242.743 623.401,262.938 655.058,300.000 674.417 C 321.648 685.726,361.356 684.595,384.929 672.000 C 401.101 663.359,604.747 495.453,696.961 414.730 C 731.016 384.918,743.235 365.646,746.716 336.250 C 755.334 263.482,675.489 205.723,608.373 236.173 M1712.000 236.324 C 1673.150 253.910,1654.397 282.983,1654.156 326.000 C 1653.981 357.348,1660.697 375.012,1680.487 395.253 C 1703.643 418.938,2000.693 666.044,2014.776 673.338 C 2022.568 677.373,2038.446 681.656,2050.058 682.855 C 2141.220 692.263,2194.568 579.659,2129.686 514.777 C 2097.620 482.711,1808.942 244.699,1792.840 237.051 C 1768.525 225.503,1736.541 225.215,1712.000 236.324 M1134.000 402.411 C 1002.086 416.029,908.182 441.668,805.616 492.072 C 622.972 581.826,480.949 723.840,391.660 906.000 C 303.172 1086.528,277.887 1293.804,320.324 1490.780 C 339.494 1579.759,384.445 1692.433,430.919 1768.000 C 503.615 1886.204,613.796 1996.385,732.000 2069.081 C 807.567 2115.555,920.241 2160.506,1009.220 2179.676 C 1414.163 2266.918,1825.533 2066.950,2008.340 1694.000 C 2130.232 1445.325,2130.232 1154.675,2008.340 906.000 C 1918.996 723.727,1776.237 581.039,1594.384 492.251 C 1506.571 449.377,1426.928 424.446,1332.000 410.116 C 1291.148 403.950,1166.194 399.087,1134.000 402.411 M1268.576 604.197 C 1390.694 616.568,1508.265 660.536,1607.972 731.119 C 1656.464 765.448,1734.236 843.149,1769.027 892.028 C 1801.203 937.232,1847.095 1027.494,1864.049 1078.918 C 1910.490 1219.786,1910.490 1380.214,1864.049 1521.082 C 1847.095 1572.506,1801.203 1662.768,1769.027 1707.972 C 1734.180 1756.929,1656.222 1834.837,1608.906 1867.991 C 1518.057 1931.647,1424.858 1970.865,1318.000 1990.405 C 1261.934 2000.657,1138.066 2000.657,1082.000 1990.405 C 934.706 1963.471,810.602 1898.635,706.000 1793.972 C 649.620 1737.558,613.984 1688.932,578.503 1620.000 C 491.168 1450.326,476.777 1253.751,538.406 1072.285 C 556.718 1018.366,596.666 940.698,631.119 892.028 C 665.585 843.343,743.343 765.585,792.028 731.119 C 930.789 632.889,1101.913 587.312,1268.576 604.197 M941.785 909.932 C 911.671 925.048,902.793 941.113,900.732 984.219 C 898.254 1036.060,901.877 1053.627,918.947 1072.521 C 926.847 1081.265,937.065 1090.575,941.655 1093.210 C 947.568 1096.604,995.365 1098.583,1105.633 1100.000 L 1261.266 1102.000 1088.143 1302.000 C 992.926 1412.000,911.680 1509.200,907.598 1518.000 C 901.636 1530.851,900.158 1543.845,900.088 1584.026 C 900.040 1611.541,901.774 1640.238,903.942 1647.799 C 909.144 1665.935,934.155 1691.108,951.860 1696.027 C 970.825 1701.296,1429.175 1701.296,1448.140 1696.027 C 1465.845 1691.108,1490.856 1665.935,1496.058 1647.799 C 1501.138 1630.084,1501.151 1569.962,1496.079 1552.275 C 1491.617 1536.717,1475.636 1518.406,1458.000 1508.643 C 1447.596 1502.884,1425.566 1501.734,1292.368 1500.000 L 1138.735 1498.000 1311.858 1298.000 C 1407.075 1188.000,1488.320 1090.800,1492.402 1082.000 C 1498.368 1069.140,1499.837 1056.189,1499.890 1016.000 C 1499.967 956.972,1496.524 941.948,1479.039 925.025 C 1452.454 899.295,1460.348 900.000,1198.914 900.000 L 961.571 900.000 941.785 909.932 " fill="#1D1E23" stroke="none" fill-rule="evenodd"/></svg>