<svg viewBox="0 0 2400 2400" fill="none" xmlns="http://www.w3.org/2000/svg"><path d="M1723.540 233.518 C 1671.182 252.229,1647.325 297.385,1658.567 356.500 C 1663.200 380.860,1763.426 471.955,1949.638 621.053 C 2028.095 683.873,2047.585 691.833,2088.663 677.837 C 2125.625 665.243,2156.952 621.578,2157.318 582.145 C 2157.716 539.229,2146.531 527.131,1971.990 381.670 C 1855.456 284.552,1813.399 252.378,1786.000 239.386 C 1759.779 226.953,1745.631 225.624,1723.540 233.518 M604.530 242.083 C 561.561 266.647,350.638 441.898,273.000 517.544 L 244.000 545.800 244.022 573.900 C 244.054 614.321,249.085 627.942,272.703 651.560 C 296.670 675.528,303.551 678.060,344.077 677.827 C 371.005 677.673,376.035 676.360,392.131 665.286 C 442.825 630.407,654.775 453.200,702.725 405.604 C 730.757 377.779,736.397 369.864,742.052 350.413 C 750.400 321.696,747.308 301.819,730.632 277.007 C 709.757 245.949,682.281 232.018,642.000 232.070 C 628.041 232.089,616.723 235.113,604.530 242.083 M1078.000 410.289 C 951.507 429.664,845.459 468.031,730.159 536.134 C 627.977 596.487,521.365 699.998,446.741 811.307 C 359.086 942.053,299.989 1137.940,300.003 1297.695 C 300.020 1480.121,366.651 1685.756,471.539 1827.086 C 506.017 1873.542,624.489 1991.492,672.000 2026.663 C 765.225 2095.675,867.608 2143.012,990.000 2173.692 C 1224.042 2232.361,1483.523 2187.510,1688.000 2053.044 C 1903.322 1911.447,2047.033 1688.867,2090.385 1429.828 C 2100.792 1367.647,2099.829 1225.024,2088.573 1161.266 C 2054.341 967.373,1967.216 798.435,1832.121 664.000 C 1705.134 537.634,1532.717 447.079,1364.000 418.137 C 1280.010 403.729,1145.012 400.025,1078.000 410.289 M1246.305 604.252 C 1413.202 620.493,1551.674 678.779,1660.577 778.630 C 1739.549 851.038,1773.036 893.205,1811.211 968.312 C 1848.127 1040.943,1865.322 1083.331,1878.722 1134.736 C 1889.860 1177.463,1890.000 1179.464,1890.000 1296.000 C 1890.000 1423.050,1887.499 1445.190,1865.604 1512.000 C 1849.571 1560.923,1791.162 1674.067,1761.861 1712.963 C 1727.058 1759.160,1654.810 1831.541,1610.000 1865.102 C 1564.616 1899.093,1471.457 1946.243,1411.761 1965.437 C 1225.984 2025.169,1017.292 2002.587,851.817 1904.846 C 776.766 1860.516,691.534 1783.948,638.211 1712.954 C 605.709 1669.680,556.746 1574.904,538.305 1519.567 C 510.570 1436.343,507.070 1407.960,509.251 1284.000 C 511.292 1168.022,513.043 1154.290,533.994 1090.000 C 546.200 1052.542,600.824 940.082,622.778 907.207 C 662.186 848.199,751.982 759.385,814.343 717.737 C 911.428 652.899,1065.080 604.483,1186.305 600.532 C 1195.273 600.239,1222.273 601.913,1246.305 604.252 M945.926 909.405 C 913.938 923.792,897.529 961.886,900.873 1013.995 C 902.818 1044.307,913.474 1069.235,931.436 1085.490 C 941.359 1094.470,987.417 1098.075,1145.000 1102.204 C 1211.524 1103.947,1248.000 1106.368,1248.000 1109.040 C 1248.000 1114.798,1234.202 1131.504,1101.836 1286.000 C 937.336 1478.003,904.613 1518.662,901.581 1534.824 C 900.178 1542.307,899.781 1569.512,900.700 1595.280 C 902.141 1635.716,903.714 1644.539,912.185 1659.712 C 929.429 1690.597,934.952 1692.728,1008.773 1696.984 C 1044.648 1699.052,1157.206 1699.876,1258.902 1698.815 C 1467.997 1696.633,1461.485 1697.620,1485.494 1664.477 C 1497.733 1647.582,1497.999 1646.259,1497.948 1602.606 C 1497.903 1563.940,1496.683 1555.715,1488.787 1540.843 C 1477.626 1519.823,1460.918 1509.146,1434.264 1506.001 C 1423.119 1504.686,1352.054 1502.347,1276.343 1500.805 L 1138.685 1498.000 1228.633 1394.000 C 1350.442 1253.160,1458.192 1126.271,1480.004 1097.978 L 1498.000 1074.634 1498.000 1016.317 C 1498.000 961.676,1497.379 956.916,1488.152 940.802 C 1482.736 931.344,1471.936 919.644,1464.152 914.802 C 1450.019 906.012,1449.669 905.999,1204.000 904.987 C 1003.724 904.162,955.756 904.983,945.926 909.405 " fill="#1D1E23" stroke="none" fill-rule="evenodd"/></svg>