<svg viewBox="0 0 2400 2400" fill="none" xmlns="http://www.w3.org/2000/svg"><path d="M711.639 403.049C753.828 367.662 759.381 304.79 724.048 262.555C688.677 220.277 625.728 214.683 583.456 250.062L276.964 506.583C234.503 542.121 229.008 605.403 264.699 647.735C300.235 689.882 363.183 695.326 405.421 659.898L711.639 403.049ZM2135.35 648.678C2171.01 606.385 2165.59 543.127 2123.22 507.567L1816.42 250.128C1774.19 214.686 1711.19 220.166 1675.65 262.319C1639.99 304.613 1645.41 367.87 1687.78 403.43L1994.58 660.869C2036.81 696.311 2099.81 690.831 2135.35 648.678ZM1200 399.999C703 399.999 300 802.999 300 1300C300 1797 702 2200 1200 2200C1697 2200 2100 1797 2100 1300C2100 802.999 1697 399.999 1200 399.999ZM1200 2000C813 2000 500 1687 500 1300C500 912.999 813 599.999 1200 599.999C1587 599.999 1900 912.999 1900 1300C1900 1687 1587 2000 1200 2000ZM900 1025C900 1066.42 933.579 1100 975 1100H1263L918.256 1498.88C906.48 1512.5 900 1529.91 900 1547.92V1625C900 1666.42 933.579 1700 975 1700H1425C1466.42 1700 1500 1666.42 1500 1625V1575C1500 1533.58 1466.42 1500 1425 1500H1137L1481.74 1101.12C1493.52 1087.5 1500 1070.09 1500 1052.08V974.999C1500 933.577 1466.42 899.999 1425 899.999H975C933.579 899.999 900 933.577 900 974.999V1025Z" fill="#1D1E23"/></svg>