<svg viewBox="0 0 2400 2400" fill="none" xmlns="http://www.w3.org/2000/svg"><path d="M1721.851 234.365 C 1699.798 242.196,1677.474 261.433,1667.285 281.387 C 1655.852 303.776,1652.786 346.182,1661.396 362.832 C 1674.709 388.577,1764.940 470.876,1905.187 585.192 C 2027.772 685.111,2048.716 695.256,2092.000 675.686 C 2130.612 658.228,2155.890 620.327,2155.961 579.783 C 2156.032 539.166,2142.396 524.348,1980.997 389.648 C 1856.489 285.737,1803.700 245.987,1776.850 235.926 C 1752.343 226.742,1743.989 226.505,1721.851 234.365 M618.000 236.240 C 589.393 244.629,366.731 426.404,271.000 519.522 L 244.000 545.785 244.000 575.021 C 244.000 592.350,246.523 610.314,250.195 619.128 C 257.439 636.516,280.879 661.952,298.000 671.003 C 315.163 680.076,365.861 679.828,383.242 670.586 C 414.606 653.908,653.003 454.991,707.067 400.388 C 737.350 369.803,745.223 354.193,745.596 324.000 C 746.319 265.426,678.214 218.584,618.000 236.240 M1102.000 407.908 C 939.067 425.302,755.312 503.482,630.000 608.722 C 456.250 754.643,352.456 936.251,311.501 1166.000 C 299.326 1234.302,298.298 1354.527,309.312 1422.000 C 318.543 1478.546,335.706 1546.884,354.018 1600.000 C 373.005 1655.075,421.064 1752.790,451.400 1798.000 C 500.972 1871.878,629.500 1998.881,706.939 2050.507 C 813.281 2121.402,953.407 2173.412,1090.000 2192.687 C 1142.576 2200.106,1264.147 2199.035,1320.000 2190.660 C 1473.909 2167.583,1609.969 2111.902,1730.949 2022.483 C 1779.057 1986.926,1858.221 1911.333,1894.824 1866.000 C 1988.038 1750.555,2054.105 1609.848,2084.286 1462.492 C 2102.180 1375.125,2101.197 1219.560,2082.181 1129.579 C 2024.233 855.369,1856.661 632.603,1612.000 504.531 C 1520.809 456.796,1427.090 426.550,1332.615 414.365 C 1273.325 406.718,1146.430 403.165,1102.000 407.908 M1240.000 604.227 C 1343.527 613.680,1427.198 636.780,1514.000 679.872 C 1584.590 714.915,1638.344 755.083,1702.276 820.558 C 1758.239 877.873,1780.758 909.683,1818.073 984.133 C 1850.319 1048.469,1868.083 1093.612,1879.900 1141.251 C 1888.227 1174.824,1888.561 1182.919,1886.917 1311.251 C 1885.039 1457.743,1883.670 1468.098,1857.739 1532.000 C 1840.744 1573.881,1792.791 1666.128,1770.754 1699.331 C 1740.981 1744.191,1635.319 1849.039,1590.722 1877.976 C 1453.623 1966.933,1298.885 2008.552,1151.397 1996.136 C 1000.318 1983.418,873.341 1932.871,763.975 1841.909 C 716.120 1802.106,651.131 1732.208,624.755 1692.172 C 594.303 1645.948,552.568 1561.348,536.695 1513.666 C 512.013 1439.528,510.201 1424.726,510.784 1302.000 C 511.365 1179.442,514.232 1152.243,532.361 1097.280 C 548.217 1049.211,609.793 924.905,633.772 892.559 C 676.399 835.060,756.583 757.895,813.568 719.534 C 896.699 663.573,1027.971 617.093,1138.000 604.662 C 1183.203 599.555,1188.573 599.532,1240.000 604.227 M966.957 906.957 C 946.805 908.221,941.967 910.258,928.392 923.201 C 892.209 957.696,890.436 1040.734,925.103 1077.224 C 941.647 1094.638,946.637 1095.287,1112.983 1101.634 C 1185.024 1104.383,1244.935 1107.601,1246.119 1108.785 C 1249.280 1111.947,1226.844 1139.452,1099.925 1288.000 C 970.444 1439.548,914.362 1507.829,905.846 1524.298 C 898.789 1537.945,897.843 1605.546,904.288 1635.601 C 910.846 1666.178,927.372 1686.230,950.752 1691.979 C 976.063 1698.203,1304.198 1701.945,1388.000 1696.966 C 1458.523 1692.776,1468.381 1689.429,1486.263 1663.610 C 1497.554 1647.308,1497.994 1644.979,1497.833 1602.332 C 1497.684 1562.865,1496.590 1556.089,1487.864 1540.587 C 1468.467 1506.128,1463.626 1505.292,1256.424 1500.640 L 1138.848 1498.000 1254.424 1363.986 C 1392.338 1204.070,1489.424 1088.288,1496.165 1075.692 C 1499.645 1069.190,1500.499 1050.772,1499.112 1012.187 C 1496.982 952.969,1493.925 942.763,1472.101 922.000 L 1459.487 910.000 1378.744 907.399 C 1295.344 904.713,1007.685 904.404,966.957 906.957 " fill="#1D1E23" stroke="none" fill-rule="evenodd"/></svg>