<svg viewBox="0 0 2400 2400" fill="none" xmlns="http://www.w3.org/2000/svg"><path d="M617.184 233.062 C 584.686 245.583,277.942 501.451,253.987 536.019 C 243.867 550.621,242.463 556.103,242.824 579.579 C 243.052 594.349,245.884 612.767,249.119 620.508 C 257.400 640.327,278.378 662.994,297.621 672.916 C 317.527 683.178,355.115 684.192,376.480 675.043 C 407.197 661.890,709.165 410.065,729.627 380.538 C 735.406 372.200,742.258 355.249,744.854 342.870 C 748.870 323.727,748.558 317.137,742.771 298.778 C 735.006 274.143,715.813 252.149,691.064 239.523 C 671.277 229.428,634.876 226.245,617.184 233.062 M1719.878 234.144 C 1695.923 241.528,1670.606 263.728,1661.985 284.909 C 1652.694 307.732,1652.632 349.694,1661.860 369.140 C 1670.655 387.674,1690.520 406.035,1810.182 506.229 C 1993.618 659.821,2013.213 674.803,2037.887 680.324 C 2070.979 687.730,2098.017 680.601,2123.402 657.778 C 2166.073 619.413,2170.081 560.553,2132.840 519.185 C 2117.709 502.377,1956.570 366.699,1852.263 282.941 C 1782.170 226.656,1764.862 220.277,1719.878 234.144 M1142.000 402.598 C 1135.400 403.367,1112.900 405.942,1092.000 408.319 C 992.145 419.679,905.263 445.424,810.000 491.883 C 704.590 543.291,635.408 592.997,555.697 674.599 C 458.487 774.114,391.804 883.477,347.826 1015.518 C 277.687 1226.107,284.405 1429.940,368.444 1641.078 C 414.065 1755.697,469.575 1838.232,565.672 1934.328 C 681.299 2049.955,781.689 2110.315,943.524 2161.512 C 1243.220 2256.321,1586.968 2173.331,1819.611 1950.000 C 1976.784 1799.117,2074.109 1599.887,2095.823 1384.576 C 2117.550 1169.122,2053.208 941.476,1919.621 761.163 C 1884.564 713.844,1810.474 637.150,1764.000 600.072 C 1645.930 505.875,1497.381 438.615,1353.249 414.093 C 1324.335 409.174,1164.897 398.325,1156.000 400.671 C 1154.900 400.961,1148.600 401.828,1142.000 402.598 M1258.000 604.156 C 1380.954 615.749,1491.099 654.370,1594.000 721.970 C 1641.175 752.960,1745.792 856.686,1775.578 902.000 C 1803.022 943.752,1853.056 1045.453,1865.974 1085.741 C 1907.977 1216.747,1907.977 1383.253,1865.974 1514.259 C 1853.056 1554.547,1803.022 1656.248,1775.578 1698.000 C 1746.628 1742.042,1641.163 1847.135,1595.964 1876.980 C 1507.931 1935.110,1420.494 1970.785,1318.000 1990.394 C 1261.750 2001.155,1132.382 2000.148,1072.665 1988.485 C 978.937 1970.178,892.897 1934.706,812.000 1881.018 C 753.066 1841.906,662.117 1752.549,624.294 1696.599 C 594.421 1652.408,557.589 1579.706,540.745 1531.685 C 491.420 1391.063,489.118 1228.308,534.434 1085.607 C 548.017 1042.835,595.343 946.288,624.436 902.000 C 654.950 855.549,758.864 752.733,808.000 720.377 C 921.260 645.795,1055.366 603.949,1192.000 600.553 C 1204.100 600.253,1233.800 601.874,1258.000 604.156 M946.000 908.474 C 909.082 927.916,900.000 947.236,900.000 1006.325 C 900.000 1047.997,914.607 1078.187,941.929 1092.982 C 946.922 1095.686,1005.731 1098.213,1100.765 1099.807 C 1183.763 1101.199,1252.831 1103.498,1254.248 1104.915 C 1255.665 1106.332,1216.477 1153.956,1167.163 1210.746 C 1044.172 1352.382,940.532 1474.341,919.531 1502.150 L 902.000 1525.364 900.620 1575.843 C 899.076 1632.309,903.033 1653.483,918.582 1671.962 C 941.550 1699.258,928.149 1698.000,1196.000 1698.000 C 1329.100 1698.000,1442.811 1696.651,1448.692 1695.001 C 1464.749 1690.497,1484.230 1672.330,1492.481 1654.165 C 1497.888 1642.263,1499.847 1628.208,1499.912 1600.872 C 1500.006 1561.166,1494.576 1541.562,1478.809 1524.675 C 1458.767 1503.210,1457.485 1503.043,1292.367 1500.432 L 1138.532 1498.000 1230.498 1392.000 C 1357.711 1245.375,1459.632 1125.441,1480.469 1097.850 L 1498.000 1074.636 1499.380 1024.157 C 1500.932 967.393,1496.976 946.528,1481.082 927.638 C 1459.000 901.395,1466.921 902.150,1202.000 901.047 C 964.714 900.059,961.819 900.143,946.000 908.474 " fill="#1D1E23" stroke="none" fill-rule="evenodd"/></svg>