<svg viewBox="0 0 2400 2400" fill="none" xmlns="http://www.w3.org/2000/svg"><path d="M590.000 303.853 C 497.737 306.699,496.107 307.053,439.308 336.603 C 385.226 364.740,342.701 413.302,317.492 475.713 C 309.601 495.249,307.054 511.652,303.657 564.828 C 297.842 655.854,301.129 1861.735,307.274 1891.641 C 309.720 1903.543,317.833 1926.043,325.303 1941.641 C 353.212 1999.910,391.824 2040.152,448.369 2069.900 C 503.301 2098.800,483.430 2097.421,868.233 2099.029 L 1214.465 2100.476 1248.003 2088.236 C 1297.233 2070.270,1329.634 2049.033,1368.467 2009.282 C 1461.890 1913.651,2039.635 1266.483,2062.757 1231.564 C 2068.015 1223.624,2078.655 1199.395,2086.401 1177.721 L 2100.486 1138.315 2098.904 830.157 C 2097.745 604.309,2096.017 517.192,2092.436 504.000 C 2078.877 454.052,2039.357 392.891,2000.764 362.128 C 1970.830 338.269,1918.222 312.393,1889.212 307.261 C 1862.772 302.584,727.665 299.606,590.000 303.853 M1845.096 495.115 C 1867.965 507.403,1895.905 536.292,1908.166 560.326 C 1916.889 577.424,1917.117 581.557,1919.119 758.894 L 1921.164 940.000 1817.582 940.176 C 1624.792 940.503,1473.943 946.598,1438.000 955.513 C 1297.472 990.368,1174.860 1082.891,1100.753 1210.000 C 1069.806 1263.080,1042.891 1343.532,1036.020 1403.492 C 1033.844 1422.482,1032.051 1546.373,1032.033 1679.000 L 1032.000 1920.000 809.000 1919.961 L 586.000 1919.922 565.222 1910.248 C 538.705 1897.902,510.306 1871.730,495.594 1846.082 L 484.075 1826.000 484.038 1200.841 C 484.000 576.390,484.009 575.663,492.284 559.443 C 503.599 537.264,529.806 509.630,551.770 496.717 L 570.000 486.000 732.000 483.663 C 821.100 482.378,1103.700 482.120,1360.000 483.090 L 1826.000 484.853 1845.096 495.115 M1912.000 1102.159 C 1912.000 1112.251,1886.383 1147.182,1836.401 1205.244 C 1715.185 1346.057,1348.647 1755.930,1260.050 1849.737 C 1209.752 1902.993,1200.839 1910.446,1194.759 1904.334 C 1188.282 1897.824,1189.617 1444.169,1196.243 1400.256 C 1207.898 1323.010,1263.321 1231.442,1329.171 1180.640 C 1389.975 1133.730,1453.393 1108.555,1522.000 1104.091 C 1574.077 1100.703,1912.000 1099.029,1912.000 1102.159 " fill="#1D1E23" stroke="none" fill-rule="evenodd"/></svg>