<svg viewBox="0 0 2400 2400" fill="none" xmlns="http://www.w3.org/2000/svg"><path d="M514.000 306.381 C 498.503 309.552,469.032 320.520,448.000 330.944 C 394.667 357.378,356.539 395.417,330.497 448.173 C 298.037 513.930,300.139 461.865,300.139 1200.000 C 300.139 1938.135,298.037 1886.070,330.497 1951.827 C 356.654 2004.816,395.179 2043.342,448.173 2069.507 C 512.569 2101.302,499.492 2100.413,883.361 2099.093 L 1222.000 2097.929 1248.000 2088.652 C 1279.635 2077.363,1319.436 2056.045,1340.541 2039.084 C 1368.128 2016.915,2044.969 1261.721,2061.115 1235.095 C 2069.429 1221.386,2081.129 1195.731,2087.115 1178.084 L 2098.000 1146.000 2099.143 845.431 C 2100.437 505.170,2100.913 511.704,2070.356 450.000 C 2041.617 391.967,2000.207 352.300,1938.711 323.895 C 1884.704 298.949,1916.764 299.968,1197.169 300.326 C 645.222 300.601,537.589 301.555,514.000 306.381 M1840.592 492.592 C 1869.362 506.080,1893.920 530.638,1907.408 559.408 L 1918.000 582.000 1919.190 760.593 L 1920.380 939.186 1709.190 941.180 C 1478.994 943.352,1465.482 944.508,1395.318 968.015 C 1207.223 1031.032,1071.795 1189.319,1038.100 1385.524 C 1033.078 1414.771,1032.000 1465.149,1032.000 1670.651 L 1032.000 1920.254 807.000 1919.127 L 582.000 1918.000 559.408 1907.408 C 530.638 1893.920,506.080 1869.362,492.592 1840.592 L 482.000 1818.000 482.000 1200.000 L 482.000 582.000 492.592 559.408 C 510.173 521.909,544.369 493.489,582.938 484.320 C 591.521 482.280,860.393 481.011,1208.000 481.370 L 1818.000 482.000 1840.592 492.592 M1909.835 1109.000 C 1908.348 1113.950,1904.177 1122.802,1900.566 1128.671 C 1878.244 1164.949,1247.765 1871.334,1216.689 1894.882 C 1185.119 1918.805,1187.320 1937.434,1189.054 1661.000 C 1190.715 1396.267,1190.517 1399.022,1212.152 1340.815 C 1250.260 1238.288,1334.684 1156.152,1439.982 1119.158 C 1489.187 1101.871,1505.233 1100.768,1713.270 1100.376 L 1912.539 1100.000 1909.835 1109.000 " fill="#1D1E23" stroke="none" fill-rule="evenodd"/></svg>