<svg viewBox="0 0 2400 2400" fill="none" xmlns="http://www.w3.org/2000/svg"><path fill-rule="evenodd" d="M300 570C300 420.883 420.883 300 570 300H1830C1979.12 300 2100 420.883 2100 570V1096.39C2100 1163.09 2075.31 1227.43 2030.69 1277.01L1370.44 2010.62C1319.24 2067.51 1246.29 2100 1169.75 2100H570C420.883 2100 300 1979.12 300 1830V570ZM480 615C480 540.442 540.442 480 615 480H1785C1859.56 480 1920 540.442 1920 615V941.25H1560C1267.98 941.25 1031.25 1177.98 1031.25 1470V1920H615C540.442 1920 480 1859.56 480 1785V615ZM1188.75 1910.84C1208.24 1903.27 1225.93 1891.19 1240.22 1875.31L1605 1470L1886.6 1148.17C1899.25 1133.71 1908.57 1116.84 1914.1 1098.75H1560C1354.96 1098.75 1188.75 1264.96 1188.75 1470V1910.84Z" fill="#1D1E23"/></svg>