<svg viewBox="0 0 2400 2400" fill="none" xmlns="http://www.w3.org/2000/svg"><path d="M518.000 308.275 C 472.497 313.515,422.693 340.764,379.424 384.094 C 338.382 425.195,315.670 466.656,307.169 516.000 C 300.184 556.542,300.390 1853.128,307.387 1889.484 C 316.765 1938.205,354.403 1999.137,397.772 2035.807 C 428.540 2061.823,476.883 2086.571,508.012 2092.242 C 526.100 2095.537,637.363 2097.566,874.043 2098.916 L 1214.086 2100.856 1250.615 2086.748 C 1315.681 2061.620,1335.416 2045.997,1425.217 1948.528 C 1563.146 1798.824,1911.869 1408.446,2012.880 1290.671 C 2063.191 1232.010,2068.330 1224.491,2082.597 1188.671 L 2098.000 1150.000 2097.518 834.000 C 2097.039 519.735,2096.988 517.857,2088.247 492.000 C 2083.414 477.700,2072.332 453.903,2063.621 439.118 C 2031.995 385.439,1998.035 354.461,1940.234 326.564 C 1908.779 311.383,1903.302 310.073,1860.234 307.437 C 1796.229 303.519,552.562 304.296,518.000 308.275 M1852.568 501.000 C 1880.292 519.633,1905.849 550.157,1912.014 572.000 C 1914.188 579.700,1917.162 665.354,1918.625 762.342 L 1921.284 938.684 1745.642 941.315 C 1472.535 945.407,1433.320 949.827,1351.782 985.712 C 1292.500 1011.802,1237.117 1050.344,1187.921 1099.745 C 1124.694 1163.236,1086.744 1223.507,1060.321 1302.395 C 1034.219 1380.326,1035.058 1369.366,1033.145 1657.000 L 1031.396 1920.000 806.463 1920.000 L 581.529 1920.000 557.765 1905.718 C 526.653 1887.022,517.986 1878.784,499.258 1850.112 L 483.654 1826.225 484.827 1198.112 C 485.808 672.694,486.904 568.365,491.529 560.000 C 513.103 520.978,551.053 491.272,584.000 487.617 C 596.100 486.274,880.787 484.912,1216.637 484.588 L 1827.274 484.000 1852.568 501.000 M1909.193 1102.526 C 1912.972 1106.305,1905.534 1118.545,1877.647 1154.437 C 1811.955 1238.987,1288.641 1824.530,1223.964 1885.852 C 1198.973 1909.547,1198.783 1909.639,1195.101 1899.852 C 1192.907 1894.017,1192.072 1789.687,1193.054 1644.000 C 1194.904 1369.758,1193.943 1379.959,1223.834 1317.177 C 1260.066 1241.077,1302.925 1193.736,1374.522 1150.731 C 1430.460 1117.131,1469.318 1107.569,1564.000 1104.104 C 1663.236 1100.472,1906.029 1099.362,1909.193 1102.526 " fill="#1D1E23" stroke="none" fill-rule="evenodd"/></svg>