<svg viewBox="0 0 2400 2400" fill="none" xmlns="http://www.w3.org/2000/svg"><path d="M668.000 307.877 C 502.016 309.950,497.458 310.219,475.058 319.266 C 407.000 346.753,339.361 415.441,315.688 481.109 C 306.782 505.813,306.686 508.548,302.918 844.376 C 300.571 1053.617,300.519 1318.469,302.783 1538.376 L 306.445 1894.000 317.210 1921.444 C 346.114 1995.127,410.333 2058.638,482.271 2084.685 C 503.428 2092.345,518.140 2093.608,618.000 2096.334 C 679.600 2098.015,839.309 2099.528,972.909 2099.696 L 1215.817 2100.000 1241.050 2090.502 C 1309.816 2064.619,1337.401 2043.376,1423.500 1950.000 C 1593.640 1765.480,1978.798 1333.392,2041.009 1257.249 C 2064.221 1228.839,2087.777 1183.903,2096.442 1151.506 C 2100.002 1138.197,2100.276 1057.042,2097.572 817.514 L 2094.000 501.102 2073.283 459.438 C 2040.702 393.916,1997.026 352.158,1928.164 320.693 C 1906.321 310.713,1904.028 310.524,1770.000 307.646 C 1619.481 304.415,933.681 304.558,668.000 307.877 M1842.071 494.531 C 1866.329 510.567,1895.707 540.182,1904.789 557.755 C 1912.081 571.862,1913.280 584.620,1916.259 679.755 C 1918.089 738.190,1919.679 820.382,1919.793 862.404 L 1920.000 938.808 1755.000 941.562 C 1506.535 945.710,1442.023 951.190,1384.000 973.081 C 1257.608 1020.766,1145.600 1120.650,1086.925 1238.000 C 1069.197 1273.457,1045.740 1342.186,1039.827 1376.000 C 1036.919 1392.632,1034.503 1495.323,1033.122 1661.000 L 1030.963 1920.000 804.482 1919.893 L 578.000 1919.785 550.000 1900.893 C 529.575 1887.111,516.739 1874.425,502.553 1854.000 L 483.106 1826.000 485.383 1202.000 C 486.834 804.409,489.111 573.145,491.660 564.620 C 497.352 545.577,520.207 519.269,544.742 503.517 L 565.796 490.000 695.898 487.868 C 767.454 486.695,1051.032 485.345,1326.071 484.868 L 1826.143 484.000 1842.071 494.531 M1903.815 1103.801 C 1908.804 1106.957,1908.848 1108.942,1904.126 1117.765 C 1891.313 1141.706,1796.187 1252.622,1588.313 1486.000 C 1351.627 1751.724,1210.966 1904.000,1202.197 1904.000 C 1198.948 1904.000,1196.221 1895.209,1194.570 1879.413 C 1191.156 1846.750,1191.784 1633.756,1195.707 1494.000 C 1198.519 1393.825,1199.787 1379.255,1207.718 1356.000 C 1249.585 1233.242,1358.817 1133.931,1476.378 1111.741 C 1522.370 1103.061,1891.796 1096.198,1903.815 1103.801 " fill="#1D1E23" stroke="none" fill-rule="evenodd"/></svg>