<svg viewBox="0 0 2400 2400" fill="none" xmlns="http://www.w3.org/2000/svg"><path d="M350 2200C310 2200 275 2185 245 2155C215 2125 200 2090 200 2050V950C200 910 215 875 245 845C275 815 310 800 350 800H2050C2090 800 2125 815 2155 845C2185 875 2200 910 2200 950V2050C2200 2090 2185 2125 2155 2155C2125 2185 2090 2200 2050 2200H350ZM350 2050H2050V950H350V2050ZM1017.5 1778.49C1017.5 1818.54 1062.24 1842.34 1095.45 1819.94L1508.3 1541.6C1537.76 1521.74 1537.69 1478.36 1508.17 1458.6L1095.32 1182.12C1062.1 1159.87 1017.5 1183.68 1017.5 1223.66V1778.49ZM397.5 650C383.693 650 372.5 638.807 372.5 625V525C372.5 511.193 383.693 500 397.5 500H2002.5C2016.31 500 2027.5 511.193 2027.5 525V625C2027.5 638.807 2016.31 650 2002.5 650H397.5ZM725 350C711.193 350 700 338.807 700 325V225C700 211.193 711.193 200 725 200H1675C1688.81 200 1700 211.193 1700 225V325C1700 338.807 1688.81 350 1675 350H725Z" fill="#1D1E23"/></svg>