<svg viewBox="0 0 2400 2400" fill="none" xmlns="http://www.w3.org/2000/svg"><path d="M709.765 209.669 C 702.810 214.747,701.865 221.394,700.710 273.379 C 699.536 326.154,700.112 332.112,707.052 339.052 C 713.944 345.944,723.554 346.944,805.989 349.343 C 924.221 352.784,1475.779 352.784,1594.011 349.343 C 1676.446 346.944,1686.056 345.944,1692.948 339.052 C 1699.879 332.121,1700.462 326.171,1699.290 274.310 C 1698.365 233.361,1696.447 215.333,1692.510 210.601 C 1687.464 204.533,1647.877 204.000,1202.275 204.000 C 790.287 204.000,716.364 204.851,709.765 209.669 M381.765 509.688 C 374.677 514.879,374.000 520.601,374.000 575.273 C 374.000 628.563,374.841 636.098,381.620 643.585 L 389.240 652.000 1200.000 652.000 L 2010.760 652.000 2018.380 643.585 C 2025.148 636.111,2026.000 628.578,2026.000 576.216 C 2026.000 532.135,2024.615 515.589,2020.510 510.631 C 2015.431 504.496,1954.199 504.000,1202.275 504.000 C 505.981 504.000,388.417 504.815,381.765 509.688 M313.775 807.667 C 279.255 813.337,231.030 854.499,209.785 896.425 L 200.000 915.734 200.038 1500.867 L 200.075 2086.000 212.652 2107.935 C 228.744 2135.998,264.002 2171.256,292.065 2187.348 L 314.000 2199.925 1200.000 2199.925 L 2086.000 2199.925 2107.935 2187.348 C 2135.998 2171.256,2171.256 2135.998,2187.348 2107.935 L 2199.925 2086.000 2199.925 1500.000 L 2199.925 914.000 2187.426 892.203 C 2171.458 864.354,2139.646 832.542,2111.797 816.574 L 2090.000 804.075 1210.000 804.538 C 726.000 804.793,322.699 806.201,313.775 807.667 M2048.000 1502.000 L 2048.000 2052.000 1200.000 2052.000 L 352.000 2052.000 352.000 1502.000 L 352.000 952.000 1200.000 952.000 L 2048.000 952.000 2048.000 1502.000 M1044.656 1182.758 C 1018.140 1195.823,1019.365 1184.397,1017.206 1438.935 C 1015.071 1690.779,1018.415 1792.880,1029.345 1809.562 C 1033.098 1815.290,1042.967 1821.766,1052.123 1824.509 C 1072.354 1830.571,1077.274 1828.379,1153.629 1779.284 C 1220.084 1736.554,1474.022 1564.851,1500.000 1545.082 C 1522.167 1528.212,1527.676 1518.757,1527.858 1497.268 C 1527.985 1482.351,1526.156 1479.032,1511.000 1466.672 C 1471.406 1434.384,1134.569 1207.288,1096.594 1187.279 C 1072.041 1174.342,1063.282 1173.579,1044.656 1182.758 " fill="#1D1E23" stroke="none" fill-rule="evenodd"/></svg>