<svg viewBox="0 0 2400 2400" fill="none" xmlns="http://www.w3.org/2000/svg"><path d="M733.082 202.868 C 701.974 205.165,700.000 209.664,700.000 278.270 C 700.000 330.619,700.617 335.319,708.420 342.380 C 716.602 349.785,730.486 350.000,1200.000 350.000 C 1669.514 350.000,1683.398 349.785,1691.580 342.380 C 1699.389 335.313,1700.000 330.627,1700.000 277.823 C 1700.000 227.727,1699.081 219.752,1692.355 211.443 L 1684.709 202.000 1219.355 201.662 C 963.410 201.476,744.587 202.019,733.082 202.868 M418.990 502.898 C 371.333 504.822,370.964 505.432,372.694 579.358 C 373.820 627.513,375.047 636.341,381.620 643.593 L 389.240 652.000 1200.000 652.000 L 2010.760 652.000 2018.380 643.593 C 2024.972 636.320,2026.173 627.521,2027.282 578.384 C 2028.451 526.616,2027.862 520.716,2020.636 511.792 L 2012.708 502.000 1233.354 501.743 C 804.709 501.601,438.246 502.121,418.990 502.898 M422.000 803.528 L 306.000 806.000 285.250 816.941 C 256.931 831.872,227.371 862.503,212.434 892.396 L 200.000 917.278 200.000 1500.000 L 200.000 2082.722 211.842 2106.421 C 226.993 2136.740,263.260 2173.007,293.579 2188.158 L 317.278 2200.000 1200.000 2200.000 L 2082.722 2200.000 2106.421 2188.158 C 2136.740 2173.007,2173.007 2136.740,2188.158 2106.421 L 2200.000 2082.722 2200.000 1500.000 L 2200.000 917.278 2187.985 893.233 C 2173.733 864.714,2138.294 829.351,2109.178 814.597 L 2088.787 804.264 1313.393 802.660 C 886.927 801.778,485.800 802.169,422.000 803.528 M2048.000 1502.000 L 2048.000 2052.000 1200.000 2052.000 L 352.000 2052.000 352.000 1502.000 L 352.000 952.000 1200.000 952.000 L 2048.000 952.000 2048.000 1502.000 M1040.900 1184.017 C 1033.695 1188.410,1025.595 1196.953,1022.900 1203.002 C 1019.180 1211.351,1018.000 1283.377,1018.000 1502.000 C 1018.000 1821.242,1016.820 1806.872,1044.235 1821.597 C 1054.868 1827.309,1062.171 1828.483,1073.658 1826.328 C 1084.184 1824.353,1139.494 1789.579,1251.469 1714.533 C 1414.844 1605.039,1492.089 1552.056,1513.614 1534.725 C 1523.296 1526.930,1525.533 1521.695,1527.062 1503.260 C 1528.664 1483.938,1527.718 1480.049,1519.567 1472.455 C 1496.932 1451.368,1129.417 1202.934,1095.226 1185.608 C 1072.159 1173.919,1058.136 1173.508,1040.900 1184.017 " fill="#1D1E23" stroke="none" fill-rule="evenodd"/></svg>