<svg viewBox="0 0 2400 2400" fill="none" xmlns="http://www.w3.org/2000/svg"><path d="M738.023 207.633 C 706.426 209.972,706.016 210.143,703.497 222.000 C 702.094 228.600,700.734 255.771,700.473 282.380 C 699.844 346.709,697.362 344.512,775.128 348.459 C 851.695 352.346,1548.305 352.346,1624.872 348.459 C 1704.716 344.406,1701.442 347.731,1699.215 272.958 C 1698.083 234.977,1695.859 214.259,1692.559 210.958 C 1688.679 207.076,1588.019 205.920,1228.802 205.633 C 976.461 205.431,755.610 206.331,738.023 207.633 M428.101 507.717 L 378.202 510.000 374.844 528.000 C 372.996 537.900,372.360 566.403,373.430 591.340 C 374.952 626.806,376.885 638.348,382.308 644.340 C 389.094 651.839,406.319 652.000,1200.000 652.000 L 2010.760 652.000 2018.380 643.579 C 2025.154 636.093,2025.999 628.561,2025.994 575.773 C 2025.990 532.426,2024.586 514.986,2020.795 511.194 C 2016.575 506.973,1871.562 505.947,1246.801 505.717 C 823.960 505.561,455.545 506.461,428.101 507.717 M464.000 807.911 C 306.432 809.943,301.547 810.242,285.428 818.863 C 261.050 831.901,230.031 862.709,214.043 889.765 L 200.000 913.529 200.038 1499.765 L 200.075 2086.000 211.599 2106.000 C 226.395 2131.678,268.322 2173.605,294.000 2188.401 L 314.000 2199.925 1200.000 2199.925 L 2086.000 2199.925 2106.000 2188.401 C 2117.000 2182.062,2137.447 2165.429,2151.438 2151.438 C 2165.429 2137.447,2182.062 2117.000,2188.401 2106.000 L 2199.925 2086.000 2199.930 1500.000 L 2199.935 914.000 2188.967 895.045 C 2174.246 869.603,2143.190 838.088,2114.380 819.357 L 2090.760 804.000 1358.380 804.911 C 955.571 805.413,553.100 806.763,464.000 807.911 M2048.000 1502.000 L 2048.000 2052.000 1200.000 2052.000 L 352.000 2052.000 352.000 1502.000 L 352.000 952.000 1200.000 952.000 L 2048.000 952.000 2048.000 1502.000 M1043.149 1184.196 C 1017.918 1197.520,1018.214 1193.761,1018.305 1500.000 C 1018.397 1809.784,1018.181 1807.174,1044.899 1820.980 C 1065.459 1831.605,1075.494 1828.526,1128.814 1795.228 C 1204.764 1747.799,1488.145 1555.015,1506.924 1538.000 C 1520.841 1525.390,1525.041 1518.520,1526.741 1505.577 C 1527.928 1496.544,1526.910 1485.437,1524.479 1480.894 C 1518.799 1470.283,1433.421 1409.915,1258.879 1293.101 C 1122.590 1201.889,1079.393 1175.822,1065.114 1176.177 C 1061.201 1176.274,1051.317 1179.883,1043.149 1184.196 " fill="#1D1E23" stroke="none" fill-rule="evenodd"/></svg>