<svg viewBox="0 0 2400 2400" fill="none" xmlns="http://www.w3.org/2000/svg"><path d="M356.012 469.988 L 286.068 540.017 403.158 657.157 L 520.247 774.297 490.468 836.148 C 439.040 942.964,411.926 1036.152,403.655 1134.517 C 385.796 1346.910,457.845 1561.310,602.249 1725.485 L 636.979 1764.970 519.515 1882.485 L 402.051 2000.000 701.025 2000.000 L 1000.000 2000.000 1000.000 1701.027 L 1000.000 1402.054 888.512 1513.488 L 777.024 1624.923 750.334 1593.642 C 698.532 1532.931,659.093 1462.049,632.055 1381.065 C 609.560 1313.688,606.791 1289.474,609.080 1180.118 C 610.862 1094.956,612.016 1082.574,621.208 1050.000 C 635.583 999.061,655.530 945.467,664.012 934.991 L 671.237 926.070 1046.649 1302.035 C 1253.125 1508.816,1432.666 1690.205,1445.627 1705.123 C 1472.833 1736.435,1473.446 1734.760,1427.918 1753.478 L 1400.000 1764.956 1400.059 1857.478 C 1400.122 1955.996,1402.604 1971.209,1418.222 1968.801 C 1434.659 1966.267,1504.590 1937.722,1563.853 1909.357 L 1625.706 1879.752 1753.886 2007.886 L 1882.066 2136.020 1952.011 2065.989 L 2021.956 1995.958 1223.956 1197.958 L 425.956 399.958 356.012 469.988 M1400.000 700.973 L 1400.000 1001.946 1512.276 889.973 L 1624.552 778.000 1642.575 798.000 C 1669.740 828.146,1723.093 909.382,1742.486 950.126 C 1751.943 969.996,1766.372 1008.696,1774.549 1036.126 L 1789.418 1086.000 1791.067 1180.158 C 1792.982 1289.460,1789.266 1319.232,1764.566 1392.485 L 1748.892 1438.970 1824.085 1514.085 L 1899.279 1589.201 1911.102 1565.600 C 1938.079 1511.750,1967.494 1425.315,1984.473 1350.000 C 2001.744 1273.389,2001.514 1124.282,1984.008 1048.000 C 1948.246 892.170,1884.659 767.129,1788.732 664.000 L 1764.548 638.000 1883.249 519.000 L 2001.950 400.000 1700.975 400.000 L 1400.000 400.000 1400.000 700.973 M944.372 444.098 C 921.476 452.815,882.169 469.247,857.023 480.612 L 811.303 501.277 886.952 576.926 L 962.601 652.575 981.301 643.491 L 1000.000 634.406 1000.000 543.703 C 1000.000 449.917,998.191 427.912,990.500 428.124 C 988.025 428.192,967.267 435.381,944.372 444.098 " fill="#1D1E23" stroke="none" fill-rule="evenodd"/></svg>