<svg viewBox="0 0 2400 2400" fill="none" xmlns="http://www.w3.org/2000/svg"><path d="M1400.000 649.021 L 1400.000 899.289 1411.898 909.301 C 1426.636 921.701,1449.394 929.521,1461.733 926.425 C 1466.852 925.140,1505.698 890.349,1548.058 849.112 L 1625.076 774.136 1639.538 791.510 C 1712.071 878.651,1762.946 980.172,1784.734 1081.246 C 1791.962 1114.782,1793.536 1135.106,1793.620 1196.000 C 1793.732 1277.654,1787.440 1320.526,1763.582 1400.681 L 1751.283 1442.000 1821.550 1510.910 C 1866.127 1554.626,1893.893 1579.023,1897.494 1577.640 C 1916.714 1570.265,1969.313 1425.354,1988.283 1327.515 C 2030.364 1110.485,1955.708 853.598,1798.941 676.000 L 1765.398 638.000 1834.005 567.217 C 1871.739 528.286,1907.833 488.899,1914.215 479.690 C 1935.099 449.554,1925.868 413.615,1895.635 407.356 C 1888.136 405.803,1773.550 403.232,1641.000 401.643 L 1400.000 398.753 1400.000 649.021 M397.847 446.712 C 387.047 448.861,352.868 475.087,342.356 489.290 C 331.776 503.585,328.025 560.966,336.610 577.178 C 344.041 591.211,418.072 672.619,473.194 727.372 L 518.872 772.745 491.349 832.569 C 416.996 994.184,390.082 1128.801,404.177 1268.576 C 422.092 1446.221,488.604 1597.922,606.843 1730.818 L 636.679 1764.354 559.340 1843.343 C 516.803 1886.787,479.458 1927.185,476.351 1933.115 C 469.196 1946.774,475.239 1969.728,490.884 1988.321 L 501.555 2001.003 733.778 1999.249 C 905.703 1997.951,968.326 1996.232,974.959 1992.629 C 979.886 1989.953,987.064 1981.966,990.911 1974.881 C 997.290 1963.132,998.028 1941.729,999.308 1731.283 L 1000.713 1500.566 983.884 1488.376 C 962.838 1473.130,943.208 1468.942,930.982 1477.088 C 926.042 1480.380,889.808 1513.881,850.463 1551.536 C 811.118 1589.191,776.627 1620.000,773.817 1620.000 C 763.158 1620.000,692.962 1517.977,664.475 1461.081 C 631.956 1396.135,615.721 1340.337,607.713 1266.000 C 596.251 1159.599,617.184 1031.925,659.784 948.423 L 668.360 931.613 685.180 944.537 C 694.431 951.645,876.513 1131.677,1089.807 1344.609 L 1477.615 1731.758 1453.427 1747.391 C 1417.449 1770.645,1400.000 1800.443,1400.000 1838.631 C 1400.000 1882.482,1436.987 1926.029,1480.735 1933.685 C 1499.974 1937.051,1534.407 1925.589,1583.614 1899.439 L 1621.229 1879.449 1645.614 1903.105 C 1745.322 1999.830,1812.238 2061.942,1829.607 2073.886 C 1864.986 2098.214,1901.928 2096.921,1937.020 2070.126 C 1964.474 2049.163,1973.064 2032.469,1975.177 1995.973 L 1976.962 1965.142 1949.037 1933.571 C 1902.542 1881.004,1147.879 1120.599,849.531 825.700 C 454.729 435.461,463.696 443.535,426.217 444.545 C 415.098 444.844,402.331 445.820,397.847 446.712 M851.000 484.372 C 833.950 493.477,820.000 502.684,820.000 504.832 C 820.000 506.979,851.346 540.489,889.658 579.298 C 959.047 649.587,959.348 649.830,967.663 642.305 C 972.254 638.151,980.902 624.682,986.882 612.376 C 995.516 594.606,997.779 584.171,997.877 561.686 C 997.984 537.038,996.434 530.840,985.905 513.810 C 979.253 503.051,966.090 488.821,956.653 482.189 C 942.053 471.927,935.211 469.958,910.748 468.973 C 883.674 467.884,880.195 468.781,851.000 484.372 " fill="#1D1E23" stroke="none" fill-rule="evenodd"/></svg>