<svg viewBox="0 0 2400 2400" fill="none" xmlns="http://www.w3.org/2000/svg"><path d="M356.012 469.988 L 286.068 540.017 403.235 657.234 L 520.401 774.451 490.932 834.627 C 449.120 920.005,427.744 983.479,411.036 1071.867 C 398.502 1138.174,398.498 1261.842,411.028 1328.000 C 441.082 1486.691,506.254 1620.407,608.430 1733.016 L 637.212 1764.737 519.631 1882.369 L 402.051 2000.000 701.025 2000.000 L 1000.000 2000.000 1000.000 1701.027 L 1000.000 1402.054 888.628 1513.373 L 777.255 1624.692 754.421 1599.346 C 687.778 1525.371,635.534 1420.512,613.249 1316.000 C 602.207 1264.211,603.137 1128.412,614.896 1075.707 C 628.703 1013.818,660.308 928.000,669.293 928.000 C 671.793 928.000,853.606 1108.048,1073.321 1328.106 C 1377.107 1632.365,1471.792 1729.431,1468.577 1733.305 C 1466.252 1736.106,1449.871 1744.376,1432.175 1751.682 L 1400.000 1764.966 1400.000 1861.719 C 1400.000 1979.300,1398.994 1976.458,1436.180 1963.959 C 1472.898 1951.618,1530.906 1926.572,1581.629 1901.160 L 1625.257 1879.303 1753.661 2007.661 L 1882.066 2136.020 1952.011 2065.989 L 2021.956 1995.958 1223.956 1197.958 L 425.956 399.958 356.012 469.988 M1400.000 700.973 L 1400.000 1001.946 1512.267 889.973 L 1624.535 778.000 1644.510 800.000 C 1670.508 828.632,1724.935 910.283,1741.811 945.969 C 1757.872 979.933,1776.807 1038.202,1786.695 1084.096 C 1792.408 1110.610,1793.989 1135.437,1793.951 1198.000 C 1793.895 1289.274,1789.032 1321.496,1764.280 1394.627 L 1749.176 1439.253 1824.227 1514.227 L 1899.279 1589.201 1911.147 1565.600 C 1944.931 1498.418,1976.725 1399.357,1990.614 1318.000 C 2000.042 1262.774,2000.039 1137.192,1990.608 1082.000 C 1971.070 967.664,1927.828 855.161,1869.148 766.000 C 1845.822 730.557,1794.986 667.409,1774.289 648.168 L 1763.713 638.336 1882.832 519.168 L 2001.950 400.000 1700.975 400.000 L 1400.000 400.000 1400.000 700.973 M950.000 441.763 C 911.618 455.991,851.680 481.647,827.031 494.398 L 812.063 502.142 887.349 577.350 L 962.636 652.559 981.318 643.482 L 1000.000 634.406 999.945 540.203 C 999.890 444.084,998.525 427.841,990.533 428.209 C 988.040 428.324,969.800 434.423,950.000 441.763 " fill="#1D1E23" stroke="none" fill-rule="evenodd"/></svg>