<svg viewBox="0 0 2400 2400" fill="none" xmlns="http://www.w3.org/2000/svg"><path d="M356.012 469.988 L 286.068 540.017 403.814 657.814 L 521.560 775.610 510.500 794.805 C 438.579 919.635,400.134 1060.359,400.033 1199.158 C 399.889 1396.435,478.027 1596.171,609.736 1735.201 L 637.471 1764.478 519.761 1882.239 L 402.051 2000.000 701.025 2000.000 L 1000.000 2000.000 1000.000 1701.027 L 1000.000 1402.054 888.650 1513.350 L 777.301 1624.646 752.249 1597.323 C 644.571 1479.883,587.441 1306.599,603.391 1145.812 C 610.626 1072.874,630.913 998.620,658.971 942.386 L 668.757 922.772 1072.145 1326.145 C 1294.009 1548.001,1474.801 1730.704,1473.905 1732.153 C 1473.010 1733.602,1456.015 1741.607,1436.139 1749.942 L 1400.000 1765.096 1400.000 1868.548 C 1400.000 1954.159,1400.958 1972.000,1405.555 1972.000 C 1426.480 1972.000,1547.538 1922.013,1601.013 1891.293 L 1624.026 1878.072 1753.046 2007.046 L 1882.066 2136.020 1952.011 2065.989 L 2021.956 1995.958 1223.956 1197.958 L 425.956 399.958 356.012 469.988 M1400.000 700.973 L 1400.000 1001.946 1512.275 889.973 L 1624.550 778.000 1648.678 803.985 C 1676.446 833.889,1714.504 889.286,1734.339 928.673 C 1811.728 1082.347,1819.992 1262.109,1756.852 1418.353 L 1748.627 1438.705 1824.192 1514.192 L 1899.758 1589.679 1921.508 1543.840 C 1972.441 1436.494,1999.883 1316.528,1999.967 1200.842 C 2000.110 1004.194,1921.133 801.869,1791.201 666.019 L 1764.402 638.000 1883.176 519.000 L 2001.950 400.000 1700.975 400.000 L 1400.000 400.000 1400.000 700.973 M956.000 439.523 C 913.885 453.418,860.706 475.650,833.160 490.878 L 812.320 502.398 887.160 577.006 L 962.000 651.613 981.000 643.297 L 1000.000 634.980 1000.000 531.490 C 1000.000 451.283,998.875 428.034,995.000 428.153 C 992.250 428.237,974.700 433.354,956.000 439.523 " fill="#1D1E23" stroke="none" fill-rule="evenodd"/></svg>