<svg viewBox="0 0 2400 2400" fill="none" xmlns="http://www.w3.org/2000/svg"><path d="M1400.912 650.221 L 1402.000 900.618 1416.941 914.309 C 1429.526 925.841,1434.851 928.000,1450.708 928.000 L 1469.533 928.000 1545.897 852.000 C 1587.898 810.200,1623.271 776.000,1624.506 776.000 C 1629.307 776.000,1680.084 839.729,1700.996 872.000 C 1757.027 958.470,1786.928 1044.699,1796.567 1147.612 C 1804.685 1234.290,1791.511 1329.868,1759.694 1415.118 L 1750.320 1440.237 1822.118 1512.118 C 1861.607 1551.653,1895.396 1584.000,1897.204 1584.000 C 1899.012 1584.000,1909.300 1565.550,1920.066 1543.000 C 2023.714 1325.907,2026.543 1092.464,1928.198 872.000 C 1895.582 798.881,1844.639 722.199,1791.206 665.790 L 1764.411 637.504 1834.621 567.752 C 1919.959 482.971,1928.000 472.774,1928.000 449.341 C 1928.000 435.040,1925.524 429.180,1914.309 416.941 L 1900.618 402.000 1650.221 400.912 L 1399.824 399.824 1400.912 650.221 M407.451 442.636 C 386.734 446.187,354.772 469.214,342.144 489.686 C 331.389 507.121,330.009 512.839,330.079 539.686 C 330.136 561.300,332.276 574.018,337.537 584.000 C 341.595 591.700,384.679 638.022,433.279 686.939 L 521.643 775.877 512.533 790.939 C 507.523 799.222,492.899 827.600,480.035 854.000 C 427.724 961.358,400.119 1080.455,400.033 1199.158 C 399.889 1396.403,478.030 1596.173,609.687 1735.150 L 637.374 1764.376 554.687 1847.405 L 472.000 1930.435 472.000 1949.276 C 472.000 1965.151,474.155 1970.470,485.691 1983.059 L 499.382 1998.000 730.691 1998.993 C 910.704 1999.765,964.191 1998.865,971.880 1994.934 C 977.314 1992.156,985.906 1983.731,990.973 1976.211 L 1000.187 1962.540 999.093 1730.961 L 998.000 1499.382 983.059 1485.691 C 970.474 1474.159,965.149 1472.000,949.292 1472.000 L 930.467 1472.000 854.103 1548.000 C 812.102 1589.800,776.729 1624.000,775.494 1624.000 C 774.260 1624.000,761.502 1610.050,747.143 1593.000 C 592.984 1409.950,557.852 1167.400,654.783 955.349 L 669.387 923.402 1072.693 1326.693 C 1294.512 1548.504,1476.000 1731.199,1476.000 1732.682 C 1476.000 1734.166,1469.364 1737.570,1461.253 1740.247 C 1441.062 1746.910,1410.968 1777.994,1404.889 1798.464 C 1398.751 1819.133,1398.590 1854.594,1404.552 1872.403 C 1411.484 1893.105,1426.274 1910.648,1447.136 1922.911 C 1462.549 1931.971,1470.757 1933.995,1492.000 1933.971 C 1516.164 1933.945,1521.389 1932.159,1566.000 1908.679 C 1592.400 1894.784,1615.718 1881.739,1617.818 1879.690 C 1620.207 1877.358,1660.607 1914.607,1725.818 1979.268 C 1838.295 2090.797,1840.031 2092.046,1882.464 2091.961 C 1953.195 2091.819,2001.233 2012.138,1968.486 1949.274 C 1958.747 1930.578,487.468 459.484,469.626 450.602 C 456.108 443.872,424.137 439.776,407.451 442.636 M852.242 482.524 C 832.309 492.712,816.000 502.181,816.000 503.566 C 816.000 504.950,848.518 538.465,888.261 578.042 L 960.523 650.000 975.538 633.300 C 992.865 614.030,1000.000 593.817,1000.000 564.000 C 1000.000 520.639,981.863 490.091,946.283 473.523 C 914.539 458.741,895.139 460.598,852.242 482.524 " fill="#1D1E23" stroke="none" fill-rule="evenodd"/></svg>