<svg viewBox="0 0 2400 2400" fill="none" xmlns="http://www.w3.org/2000/svg"><path d="M1000.010 301.988 L 802.020 500.010 1001.010 699.000 L 1200.000 897.990 1200.000 748.995 L 1200.000 600.000 1212.158 600.000 C 1218.844 600.000,1241.794 601.902,1263.158 604.226 C 1465.549 626.246,1636.776 743.471,1732.198 925.339 C 1817.803 1088.500,1821.763 1281.153,1743.049 1453.251 L 1730.584 1480.502 1802.251 1552.251 C 1841.667 1591.713,1874.835 1623.994,1875.958 1623.987 C 1879.895 1623.962,1917.033 1555.700,1931.976 1521.023 C 2026.364 1301.986,2022.119 1064.205,1920.047 852.852 C 1881.875 773.813,1839.431 712.420,1780.075 650.390 C 1639.436 503.417,1462.652 419.555,1259.048 403.225 L 1200.096 398.497 1199.048 251.232 L 1198.000 103.966 1000.010 301.988 M502.558 809.990 C 374.969 1032.881,366.458 1312.144,480.083 1547.418 C 522.472 1635.187,573.021 1704.861,644.560 1774.120 C 711.449 1838.878,770.624 1880.335,852.852 1920.047 C 951.756 1967.812,1081.620 1999.831,1177.000 1999.967 L 1200.000 2000.000 1200.000 2150.995 L 1200.000 2301.990 1400.995 2100.995 L 1601.990 1900.000 1400.995 1699.005 L 1200.000 1498.010 1200.000 1649.606 L 1200.000 1801.203 1160.503 1798.614 C 901.066 1781.612,679.457 1595.175,617.745 1342.000 C 585.567 1209.990,599.142 1073.141,656.951 946.749 L 669.416 919.498 597.749 847.749 C 558.333 808.287,525.165 776.006,524.042 776.013 C 522.919 776.020,513.251 791.310,502.558 809.990 " fill="#1D1E23" stroke="none" fill-rule="evenodd"/></svg>