<svg viewBox="0 0 2400 2400" fill="none" xmlns="http://www.w3.org/2000/svg"><path d="M977.266 324.785 C 870.597 431.321,823.545 480.965,821.828 488.785 C 815.762 516.399,818.041 519.217,969.396 671.282 C 1048.928 751.188,1118.861 819.138,1124.801 822.282 C 1130.742 825.427,1142.919 828.000,1151.860 828.000 C 1164.791 828.000,1171.175 825.200,1183.059 814.314 L 1198.000 800.628 1199.196 700.314 L 1200.391 600.000 1212.353 600.000 C 1237.502 600.000,1303.488 608.795,1338.000 616.746 C 1555.434 666.844,1732.969 844.368,1783.282 1062.000 C 1801.568 1141.100,1803.995 1231.223,1789.920 1308.501 C 1786.565 1326.925,1775.484 1367.698,1765.297 1399.106 C 1747.350 1454.436,1746.925 1456.883,1751.608 1477.810 C 1760.385 1517.032,1790.405 1547.268,1829.079 1555.840 C 1854.572 1561.491,1875.762 1557.549,1901.019 1542.456 C 1927.170 1526.829,1942.749 1501.909,1959.603 1448.747 C 1986.701 1363.268,1995.501 1313.584,1998.704 1228.000 C 2006.747 1013.070,1927.971 804.947,1780.075 650.390 C 1639.476 503.459,1462.644 419.555,1259.191 403.237 L 1200.382 398.520 1199.191 298.946 L 1198.000 199.372 1183.059 185.686 C 1170.449 174.136,1165.162 172.000,1149.179 172.000 L 1130.241 172.000 977.266 324.785 M499.849 857.025 C 472.755 873.216,457.443 897.484,440.397 951.253 C 413.299 1036.732,404.499 1086.416,401.296 1172.000 C 394.331 1358.128,452.514 1539.541,567.430 1690.000 C 593.342 1723.927,660.579 1792.500,696.000 1821.125 C 793.705 1900.083,919.815 1959.622,1040.000 1983.533 C 1088.849 1993.252,1144.364 1999.920,1176.804 1999.967 L 1199.609 2000.000 1200.804 2100.314 L 1202.000 2200.628 1216.941 2214.314 C 1229.551 2225.864,1234.838 2228.000,1250.819 2228.000 L 1269.755 2228.000 1420.872 2077.076 C 1525.287 1972.795,1573.325 1922.107,1576.310 1913.062 C 1585.557 1885.041,1583.826 1882.829,1436.528 1734.525 C 1360.338 1657.813,1290.980 1589.863,1282.400 1583.525 C 1259.552 1566.646,1236.911 1567.394,1216.941 1585.686 L 1202.000 1599.372 1200.801 1700.274 L 1199.602 1801.176 1160.304 1798.601 C 899.967 1781.540,675.234 1591.115,616.718 1338.000 C 590.433 1224.299,596.595 1113.037,635.594 997.206 C 654.078 942.307,654.242 941.000,646.090 913.551 C 633.238 870.275,596.510 844.000,548.867 844.000 C 525.275 844.000,518.740 845.736,499.849 857.025 " fill="#1D1E23" stroke="none" fill-rule="evenodd"/></svg>