<svg viewBox="0 0 2400 2400" fill="none" xmlns="http://www.w3.org/2000/svg"><path d="M1096.966 207.431 C 1054.665 245.454,912.993 389.501,858.719 449.671 C 815.268 497.844,814.417 500.588,834.676 527.212 C 854.517 553.284,956.590 659.220,1023.308 722.981 C 1140.040 834.540,1142.974 836.394,1174.004 818.209 C 1183.821 812.456,1193.686 804.324,1195.926 800.137 C 1198.367 795.576,1200.000 753.948,1200.000 696.263 L 1200.000 600.000 1209.000 600.078 C 1228.174 600.244,1304.687 611.864,1336.545 619.448 C 1536.111 666.953,1700.643 817.858,1766.077 1013.404 C 1786.303 1073.849,1793.213 1122.207,1793.312 1204.000 C 1793.403 1278.973,1789.792 1303.413,1763.820 1403.588 C 1749.339 1459.440,1749.137 1472.683,1762.361 1499.221 C 1791.198 1557.090,1861.017 1573.287,1908.058 1533.022 C 1928.663 1515.386,1941.379 1493.347,1958.351 1445.861 C 1996.911 1337.976,2007.883 1186.126,1986.165 1060.949 C 1943.386 814.392,1775.635 593.696,1548.000 484.494 C 1455.427 440.083,1380.417 419.596,1259.000 405.558 L 1200.000 398.736 1200.000 299.280 L 1200.000 199.824 1181.217 187.912 C 1149.372 167.716,1138.291 170.283,1096.966 207.431 M510.000 852.352 C 495.346 860.917,467.433 889.820,460.119 904.000 C 450.385 922.875,421.932 1012.659,413.532 1051.009 C 408.055 1076.013,406.716 1104.024,406.602 1196.000 C 406.437 1327.960,408.908 1346.064,439.817 1439.381 C 473.209 1540.199,504.670 1602.671,558.009 1674.079 C 587.152 1713.095,655.807 1784.597,694.928 1816.676 C 787.173 1892.315,900.191 1948.144,1020.321 1977.413 C 1069.515 1989.399,1142.616 2000.000,1176.069 2000.000 L 1199.863 2000.000 1200.931 2100.812 L 1202.000 2201.625 1218.063 2212.912 C 1226.898 2219.120,1240.754 2225.274,1248.855 2226.589 L 1263.584 2228.979 1412.187 2081.490 C 1498.629 1995.696,1564.118 1927.507,1568.743 1918.479 C 1582.226 1892.159,1577.996 1883.845,1518.441 1819.619 C 1464.820 1761.792,1330.191 1631.431,1286.792 1595.314 C 1261.223 1574.035,1248.751 1571.367,1226.801 1582.482 C 1198.668 1596.728,1200.000 1590.829,1200.000 1701.210 L 1200.000 1801.180 1165.219 1798.507 C 1053.812 1789.943,932.899 1745.564,849.205 1682.518 C 799.500 1645.076,736.223 1579.596,706.328 1534.666 C 665.013 1472.572,631.019 1394.517,615.453 1326.000 C 611.525 1308.711,610.090 1271.802,610.322 1194.000 L 610.644 1086.000 631.663 1010.897 C 652.629 935.983,652.666 935.748,646.396 917.347 C 637.919 892.468,623.364 874.309,601.745 861.639 C 587.353 853.205,577.194 850.758,550.881 849.388 C 529.997 848.300,515.081 849.382,510.000 852.352 " fill="#1D1E23" stroke="none" fill-rule="evenodd"/></svg>