<svg viewBox="0 0 2400 2400" fill="none" xmlns="http://www.w3.org/2000/svg"><path d="M1400.000 649.394 L 1400.000 899.950 1416.472 911.882 C 1425.532 918.445,1439.048 924.960,1446.509 926.359 C 1463.440 929.536,1471.338 923.344,1559.333 837.908 C 1594.403 803.859,1624.035 776.000,1625.183 776.000 C 1628.848 776.000,1667.650 827.188,1690.145 861.698 C 1735.654 931.514,1771.189 1016.521,1786.219 1091.522 C 1791.774 1119.244,1792.564 1140.352,1790.783 1213.522 C 1788.511 1306.844,1786.435 1321.010,1763.500 1399.685 L 1751.165 1442.000 1813.627 1502.937 C 1886.767 1574.291,1893.228 1579.264,1902.681 1571.473 C 1926.653 1551.716,1981.901 1380.678,1994.248 1288.000 C 2021.399 1084.205,1948.386 852.836,1802.717 681.062 C 1783.623 658.545,1768.000 639.053,1768.000 637.745 C 1768.000 636.437,1797.881 604.310,1834.402 566.351 C 1870.923 528.391,1906.023 489.563,1912.402 480.065 C 1927.861 457.047,1928.502 431.790,1913.969 418.322 C 1900.799 406.116,1877.843 404.847,1609.000 401.466 L 1400.000 398.838 1400.000 649.394 M394.636 449.613 C 370.930 458.400,342.774 484.349,337.310 502.447 C 330.036 526.541,330.866 564.055,339.000 578.895 C 347.578 594.545,420.900 675.427,477.194 731.338 L 518.815 772.676 493.924 827.338 C 403.288 1026.374,381.426 1173.613,416.320 1350.000 C 444.565 1492.783,507.005 1617.113,608.063 1731.796 L 636.572 1764.149 559.831 1843.075 C 517.623 1886.484,480.310 1927.747,476.913 1934.770 C 471.295 1946.387,471.346 1949.132,477.469 1965.167 C 481.172 1974.862,488.574 1986.903,493.919 1991.924 L 503.637 2001.053 734.818 1999.242 C 904.920 1997.910,968.367 1996.154,974.959 1992.597 C 979.886 1989.938,987.046 1981.966,990.870 1974.881 C 997.244 1963.075,997.831 1942.659,997.912 1730.180 L 998.000 1498.361 978.637 1486.380 C 945.454 1465.849,939.594 1467.866,886.155 1518.200 C 802.659 1596.845,776.132 1619.800,771.026 1617.826 C 757.170 1612.469,688.159 1508.061,660.096 1450.000 C 621.112 1369.341,606.495 1301.480,606.679 1202.000 C 606.850 1109.267,622.619 1029.095,654.080 961.001 L 667.846 931.206 683.771 943.819 C 703.303 959.288,1476.000 1727.743,1476.000 1731.699 C 1476.000 1733.254,1469.250 1738.345,1461.000 1743.011 C 1425.185 1763.267,1400.000 1801.573,1400.000 1835.790 C 1400.000 1875.318,1430.572 1917.568,1468.224 1930.074 C 1487.435 1936.455,1489.319 1936.378,1516.553 1928.106 C 1532.139 1923.372,1562.010 1910.597,1582.932 1899.718 L 1620.972 1879.937 1691.071 1946.969 C 1824.407 2074.471,1838.833 2085.800,1873.996 2090.620 C 1889.152 2092.697,1896.127 2091.067,1917.866 2080.364 C 1960.035 2059.605,1976.000 2032.723,1976.000 1982.478 L 1976.000 1960.499 1801.000 1781.452 C 1566.257 1541.280,701.153 676.017,586.488 566.716 C 472.457 458.021,458.405 447.064,430.717 445.265 C 419.202 444.516,403.176 446.448,394.636 449.613 M856.982 482.054 C 841.531 489.784,826.826 498.595,824.304 501.633 C 820.630 506.061,832.514 520.316,884.129 573.395 C 919.555 609.826,952.105 640.764,956.462 642.147 C 967.202 645.555,972.648 640.187,985.946 613.082 C 995.028 594.573,997.299 584.453,997.412 562.000 C 997.582 528.132,991.824 515.776,964.369 491.092 C 948.802 477.096,940.275 472.577,925.645 470.572 C 893.862 466.215,886.022 467.526,856.982 482.054 " fill="#1D1E23" stroke="none" fill-rule="evenodd"/></svg>