<svg viewBox="0 0 2400 2400" fill="none" xmlns="http://www.w3.org/2000/svg"><path d="M356.012 469.988 L 286.068 540.017 403.145 657.145 L 520.222 774.272 490.299 834.136 C 390.238 1034.319,373.424 1241.054,440.536 1446.000 C 475.769 1553.594,534.521 1653.819,610.131 1735.312 L 637.326 1764.623 519.688 1882.312 L 402.051 2000.000 701.025 2000.000 L 1000.000 2000.000 1000.000 1701.027 L 1000.000 1402.054 888.903 1513.098 L 777.805 1624.142 761.531 1607.071 C 717.855 1561.258,676.380 1497.633,649.972 1435.934 C 595.758 1309.272,587.440 1163.790,626.658 1028.184 C 636.609 993.775,662.651 929.306,667.912 926.055 C 671.373 923.916,1472.000 1725.417,1472.000 1731.020 C 1472.000 1733.156,1455.800 1741.697,1436.000 1750.000 L 1400.000 1765.096 1400.061 1863.548 C 1400.095 1917.697,1401.637 1964.389,1403.488 1967.309 C 1406.163 1971.528,1410.248 1971.703,1423.395 1968.163 C 1452.335 1960.370,1526.300 1929.175,1576.399 1903.633 L 1624.874 1878.919 1753.470 2007.470 L 1882.066 2136.020 1952.011 2065.989 L 2021.956 1995.958 1223.956 1197.958 L 425.956 399.958 356.012 469.988 M1400.000 700.973 L 1400.000 1001.946 1512.283 889.973 L 1624.567 778.000 1646.539 802.000 C 1675.509 833.643,1724.132 906.501,1741.799 944.740 C 1808.129 1088.301,1815.747 1253.140,1762.867 1400.557 L 1749.036 1439.114 1824.390 1514.389 L 1899.743 1589.664 1919.761 1546.903 C 2014.986 1343.491,2024.892 1126.219,1948.244 922.163 C 1911.446 824.195,1859.843 739.915,1792.625 668.000 L 1764.585 638.000 1883.267 519.000 L 2001.950 400.000 1700.975 400.000 L 1400.000 400.000 1400.000 700.973 M945.314 443.525 C 920.737 452.044,880.617 468.686,856.158 480.507 L 811.687 502.000 887.161 577.279 L 962.636 652.559 981.318 643.482 L 1000.000 634.406 1000.000 537.530 C 1000.000 446.305,998.757 427.975,992.572 428.018 C 991.157 428.027,969.891 435.006,945.314 443.525 " fill="#1D1E23" stroke="none" fill-rule="evenodd"/></svg>