<svg viewBox="0 0 2400 2400" fill="none" xmlns="http://www.w3.org/2000/svg"><path d="M1400.000 648.662 L 1400.000 898.503 1411.000 908.763 C 1426.578 923.292,1437.249 928.000,1454.606 928.000 C 1468.909 928.000,1473.987 923.777,1547.216 851.000 L 1624.694 774.000 1636.759 788.000 C 1793.312 969.653,1837.084 1182.228,1763.491 1403.470 L 1751.027 1440.940 1818.514 1508.727 C 1855.631 1546.011,1889.113 1578.242,1892.917 1580.354 C 1898.865 1583.655,1902.604 1578.434,1919.605 1543.096 C 1957.496 1464.334,1986.620 1363.418,1995.778 1279.158 C 2019.172 1063.920,1942.566 831.695,1794.970 670.426 L 1764.635 637.280 1834.501 567.640 C 1908.730 493.652,1928.000 469.637,1928.000 451.116 C 1928.000 437.492,1920.057 420.912,1908.536 410.485 C 1900.679 403.375,1887.405 402.882,1650.127 400.905 L 1400.000 398.821 1400.000 648.662 M384.000 452.200 C 364.809 463.984,344.611 483.602,336.845 498.000 C 328.084 514.243,328.259 565.410,337.134 582.430 C 340.699 589.266,383.226 635.343,431.639 684.822 L 519.662 774.784 490.125 834.392 C 424.730 966.367,395.887 1094.219,401.329 1228.000 C 409.123 1419.598,482.404 1597.647,610.126 1735.306 L 637.316 1764.613 554.658 1847.341 C 476.199 1925.868,472.000 1930.840,472.000 1945.234 C 472.000 1962.703,479.049 1978.086,493.042 1991.155 L 502.845 2000.309 734.422 1999.155 C 909.311 1998.283,968.116 1996.788,974.642 1993.051 C 979.396 1990.328,987.046 1982.016,991.642 1974.578 C 999.865 1961.274,1000.000 1957.351,1000.000 1731.276 L 1000.000 1501.497 989.000 1491.237 C 973.404 1476.691,962.748 1472.000,945.300 1472.000 C 930.871 1472.000,926.036 1476.024,852.783 1549.000 L 775.490 1626.000 763.262 1612.000 C 708.901 1549.763,655.454 1458.896,632.359 1389.447 C 588.260 1256.836,592.415 1113.307,644.137 982.623 C 652.979 960.280,662.467 937.972,665.221 933.049 C 669.994 924.519,689.189 943.077,1074.114 1328.371 L 1478.000 1732.645 1461.236 1740.655 C 1438.994 1751.283,1409.742 1783.074,1404.356 1802.472 C 1401.985 1811.012,1400.035 1828.144,1400.022 1840.543 C 1399.963 1900.344,1457.001 1946.556,1512.783 1931.902 C 1522.252 1929.415,1550.481 1916.590,1575.514 1903.403 L 1621.027 1879.426 1635.303 1892.713 C 1643.155 1900.021,1688.697 1944.028,1736.508 1990.507 C 1790.912 2043.395,1830.002 2078.192,1840.982 2083.507 C 1902.296 2113.189,1977.939 2063.688,1977.758 1994.000 C 1977.719 1978.742,1974.914 1964.172,1970.057 1954.000 C 1964.823 1943.038,1732.511 1708.108,1232.209 1207.838 C 830.594 806.250,493.167 470.550,482.372 461.838 C 463.587 446.681,461.352 445.948,430.372 444.802 C 402.940 443.786,395.863 444.915,384.000 452.200 M887.120 467.759 C 871.892 472.637,816.000 500.923,816.000 503.751 C 816.000 505.034,848.320 538.366,887.822 577.822 L 959.645 649.562 968.237 641.786 C 993.710 618.733,1006.366 570.223,996.458 533.616 C 983.828 486.951,929.450 454.198,887.120 467.759 " fill="#1D1E23" stroke="none" fill-rule="evenodd"/></svg>