<svg viewBox="0 0 2400 2400" fill="none" xmlns="http://www.w3.org/2000/svg"><path d="M1400.000 649.586 L 1400.000 899.171 1413.914 911.388 C 1428.938 924.579,1449.714 930.501,1464.652 925.849 C 1469.794 924.248,1507.905 889.427,1549.343 848.469 L 1624.687 774.000 1636.611 788.000 C 1789.294 967.261,1833.110 1172.380,1766.003 1393.725 L 1751.533 1441.449 1820.767 1510.806 C 1858.845 1548.952,1892.651 1579.660,1895.892 1579.047 C 1915.622 1575.313,1972.125 1419.852,1990.266 1319.391 C 1993.582 1301.026,1997.361 1260.800,1998.664 1230.000 C 2007.239 1027.257,1928.218 813.865,1789.069 664.000 L 1764.928 638.000 1839.534 562.000 C 1880.880 519.881,1917.395 479.139,1921.442 470.611 C 1930.334 451.873,1927.749 432.808,1914.175 417.016 L 1904.706 406.000 1801.353 403.449 C 1744.509 402.046,1630.950 400.696,1549.000 400.449 L 1400.000 400.000 1400.000 649.586 M390.000 449.694 C 373.127 457.261,344.945 482.570,337.620 496.735 C 330.463 510.575,329.110 560.257,335.442 576.682 C 339.696 587.716,420.064 675.196,483.119 737.426 L 519.015 772.853 489.825 835.426 C 422.529 979.686,394.891 1104.106,401.605 1232.566 C 411.845 1428.473,484.888 1601.097,617.633 1743.107 L 637.362 1764.213 556.984 1845.205 C 505.412 1897.170,475.592 1930.234,473.778 1937.461 C 469.816 1953.246,477.695 1976.295,491.611 1989.627 L 503.400 2000.922 734.700 1999.289 C 900.663 1998.117,968.382 1996.338,974.434 1992.991 C 979.072 1990.424,986.272 1983.302,990.434 1977.162 C 997.606 1966.581,998.060 1953.897,999.151 1733.416 L 1000.303 1500.832 985.256 1488.429 C 968.909 1474.955,950.073 1469.566,935.348 1474.151 C 930.206 1475.752,892.400 1510.321,851.333 1550.972 C 810.266 1591.623,774.785 1623.721,772.488 1622.301 C 763.894 1616.990,707.475 1538.664,686.182 1502.483 C 628.471 1404.424,604.032 1315.033,604.032 1202.000 C 604.032 1143.001,610.315 1093.772,624.197 1044.000 C 635.597 1003.130,663.721 932.000,668.482 932.000 C 670.613 932.000,695.227 953.455,723.179 979.678 C 790.353 1042.698,1478.184 1731.258,1475.829 1733.126 C 1474.823 1733.924,1465.562 1739.407,1455.249 1745.311 C 1420.967 1764.937,1400.000 1799.023,1400.000 1835.133 C 1400.000 1865.260,1408.040 1884.301,1430.159 1906.555 C 1446.798 1923.296,1454.621 1928.013,1472.316 1931.973 C 1500.655 1938.315,1514.285 1934.552,1574.420 1903.785 L 1621.487 1879.704 1647.743 1904.820 C 1662.184 1918.633,1697.400 1952.572,1726.000 1980.239 C 1802.622 2054.362,1827.865 2076.319,1845.851 2084.489 C 1878.031 2099.106,1914.214 2092.021,1943.961 2065.276 C 1954.701 2055.619,1966.077 2040.638,1969.873 2031.152 C 1977.314 2012.554,1978.655 1975.503,1972.475 1959.249 C 1967.315 1945.678,1321.820 1294.193,847.033 823.365 C 442.229 421.936,466.823 443.878,422.000 444.179 C 411.000 444.253,396.600 446.735,390.000 449.694 M888.000 467.606 C 873.633 472.235,820.979 499.179,818.518 503.162 C 817.375 505.011,848.860 538.806,888.484 578.262 L 960.527 650.000 973.760 634.916 C 987.600 619.140,1000.000 583.833,1000.000 560.202 C 1000.000 527.241,977.922 491.265,948.476 476.243 C 930.943 467.298,901.851 463.143,888.000 467.606 " fill="#1D1E23" stroke="none" fill-rule="evenodd"/></svg>