<svg viewBox="0 0 2400 2400" fill="none" xmlns="http://www.w3.org/2000/svg"><path d="M498.000 407.908 L 302.000 410.000 284.152 419.514 C 261.434 431.624,227.353 466.437,211.986 493.231 L 200.075 514.000 200.038 1200.380 L 200.000 1886.760 215.298 1910.380 C 234.571 1940.136,268.061 1973.310,294.000 1988.338 L 314.000 1999.925 825.318 1999.962 L 1336.636 2000.000 1334.419 1989.000 C 1329.278 1963.494,1320.285 1904.062,1317.774 1879.000 L 1315.068 1852.000 832.948 1852.000 L 350.828 1852.000 353.786 1285.015 C 355.414 973.173,357.633 716.593,358.718 714.838 C 361.816 709.826,405.422 736.957,860.000 1026.726 C 1119.329 1192.035,1175.338 1226.340,1191.803 1229.957 C 1213.544 1234.732,1217.495 1232.413,1560.808 1013.414 C 1863.606 820.260,1986.238 743.016,2016.494 726.385 L 2042.711 711.975 2045.348 828.987 C 2046.798 893.344,2047.989 1009.307,2047.993 1086.682 L 2048.000 1227.364 2061.000 1230.143 C 2068.150 1231.672,2100.747 1241.818,2133.437 1252.691 C 2166.127 1263.564,2194.027 1271.307,2195.437 1269.897 C 2196.847 1268.488,2198.477 1099.028,2199.061 893.320 L 2200.121 519.306 2189.933 500.586 C 2174.404 472.054,2149.836 445.498,2118.817 423.714 L 2090.745 404.000 1392.373 404.908 C 1008.268 405.407,605.800 406.757,498.000 407.908 M2028.874 559.453 C 2030.455 560.935,1880.155 656.966,1694.874 772.854 C 1319.568 1007.598,1239.283 1056.557,1213.504 1066.402 L 1195.851 1073.144 1171.277 1060.263 C 1109.916 1028.098,367.319 563.081,371.169 559.231 C 377.687 552.713,2021.921 552.932,2028.874 559.453 M1834.000 1377.562 C 1734.236 1401.369,1667.063 1439.987,1593.746 1515.682 C 1507.900 1604.312,1466.484 1708.684,1466.640 1836.000 C 1466.737 1914.939,1480.105 1972.823,1514.214 2042.000 C 1535.460 2085.091,1557.389 2114.979,1598.989 2157.543 C 1652.042 2211.827,1702.890 2245.903,1764.486 2268.453 C 1917.319 2324.402,2080.317 2303.255,2204.662 2211.346 C 2300.018 2140.864,2356.766 2057.483,2386.231 1944.562 C 2394.813 1911.672,2395.997 1898.553,2395.972 1836.562 C 2395.941 1759.140,2391.399 1731.463,2368.361 1668.339 C 2330.146 1563.627,2249.370 1473.560,2144.818 1419.084 C 2079.164 1384.875,2026.667 1372.376,1938.000 1369.844 C 1880.541 1368.203,1869.912 1368.992,1834.000 1377.562 M2198.706 1794.569 C 2218.625 1820.685,2211.009 1860.297,2184.540 1868.243 C 2164.794 1874.171,1859.835 1877.640,1759.450 1873.079 C 1670.074 1869.018,1663.764 1866.997,1656.979 1840.263 C 1652.678 1823.320,1656.021 1798.379,1663.610 1790.790 C 1672.142 1782.258,1706.759 1780.992,1944.796 1780.501 L 2187.593 1780.000 2198.706 1794.569 " fill="#1D1E23" stroke="none" fill-rule="evenodd"/></svg>