<svg viewBox="0 0 2400 2400" fill="none" xmlns="http://www.w3.org/2000/svg"><path d="M317.531 403.778 C 277.286 413.443,233.342 450.115,213.473 490.614 L 202.000 514.000 202.000 1200.000 L 202.000 1886.000 213.473 1909.386 C 228.133 1939.268,260.687 1971.822,290.594 1986.507 L 314.000 1998.000 825.449 1999.060 L 1336.897 2000.119 1334.093 1989.060 C 1326.973 1960.984,1319.761 1916.280,1317.404 1885.616 L 1314.820 1852.000 833.410 1852.000 L 352.000 1852.000 352.000 1278.000 C 352.000 962.300,352.899 704.000,353.997 704.000 C 355.096 704.000,540.946 822.282,766.997 966.849 L 1178.000 1229.698 1200.000 1229.683 L 1222.000 1229.668 1633.028 966.834 C 1859.093 822.275,2044.943 704.000,2046.028 704.000 C 2047.112 704.000,2048.000 821.720,2048.000 965.601 L 2048.000 1227.202 2069.000 1232.091 C 2101.464 1239.650,2164.352 1260.106,2180.841 1268.471 C 2189.003 1272.612,2196.697 1276.000,2197.938 1276.000 C 2199.179 1276.000,2199.701 1104.550,2199.097 895.000 L 2198.000 514.000 2185.446 490.000 C 2169.826 460.139,2135.267 426.963,2105.011 412.784 L 2082.000 402.000 1206.000 401.391 C 724.200 401.057,324.389 402.131,317.531 403.778 M2031.929 561.271 C 2024.268 566.370,1837.799 683.370,1617.553 821.271 C 1250.017 1051.393,1215.699 1072.000,1200.000 1072.000 C 1184.301 1072.000,1149.983 1051.393,782.447 821.271 C 562.201 683.370,375.732 566.370,368.071 561.271 L 354.143 552.000 1200.000 552.000 L 2045.857 552.000 2031.929 561.271 M1879.263 1368.320 C 1816.621 1374.954,1764.002 1391.585,1706.000 1423.083 C 1625.985 1466.534,1538.825 1561.523,1504.105 1643.116 C 1444.857 1782.346,1453.571 1947.451,1526.600 2069.322 C 1575.670 2151.210,1662.111 2227.700,1745.168 2262.729 C 1873.330 2316.781,2030.586 2311.377,2149.731 2248.827 C 2210.176 2217.093,2280.744 2154.410,2320.076 2097.513 C 2430.238 1938.159,2426.202 1712.413,2310.419 1557.369 C 2228.245 1447.329,2113.478 1381.493,1980.576 1368.157 C 1934.738 1363.557,1924.067 1363.574,1879.263 1368.320 M2192.408 1785.120 C 2201.423 1791.168,2207.785 1799.838,2211.300 1810.865 C 2216.034 1825.717,2215.772 1829.362,2208.840 1845.033 C 2194.588 1877.251,2205.762 1876.000,1932.197 1876.000 C 1670.556 1876.000,1678.539 1876.660,1660.353 1853.540 C 1650.060 1840.455,1649.155 1812.061,1658.573 1797.687 C 1672.912 1775.803,1666.170 1776.333,1932.408 1776.160 L 2178.817 1776.000 2192.408 1785.120 " fill="#1D1E23" stroke="none" fill-rule="evenodd"/></svg>