<svg viewBox="0 0 2400 2400" fill="none" xmlns="http://www.w3.org/2000/svg"><path d="M686.000 407.863 L 302.000 410.000 283.666 420.778 C 261.583 433.761,219.111 478.221,208.015 499.971 C 200.087 515.510,200.000 523.158,200.000 1202.120 L 200.000 1888.559 212.810 1907.279 C 232.943 1936.703,263.885 1967.857,289.620 1984.617 L 313.240 2000.000 824.620 2000.000 C 1105.879 2000.000,1336.000 1999.279,1336.000 1998.397 C 1336.000 1997.516,1332.583 1976.366,1328.407 1951.397 C 1324.232 1926.429,1319.588 1893.850,1318.089 1879.000 L 1315.363 1852.000 833.682 1852.000 L 352.000 1852.000 352.374 1643.000 C 353.043 1269.001,357.935 720.731,360.628 718.038 C 362.074 716.593,369.274 718.504,376.628 722.285 C 394.086 731.261,545.308 826.298,772.000 970.759 C 1113.641 1188.473,1173.760 1225.551,1192.432 1230.062 C 1212.762 1234.973,1209.357 1236.998,1620.812 975.324 C 1789.558 868.006,1953.358 764.711,1984.812 745.781 L 2042.000 711.362 2044.480 816.681 C 2045.844 874.606,2047.198 990.400,2047.489 1074.000 L 2048.019 1226.000 2115.009 1247.010 C 2151.854 1258.565,2184.864 1268.015,2188.365 1268.010 C 2197.503 1267.996,2199.977 1171.034,2199.989 812.351 L 2200.000 518.703 2189.308 500.351 C 2171.465 469.726,2155.467 452.229,2122.754 427.561 L 2091.508 404.000 1580.754 404.863 C 1299.839 405.338,897.200 406.688,686.000 407.863 M1996.000 559.523 L 2026.000 562.000 1984.000 589.612 C 1883.052 655.977,1430.064 939.494,1298.660 1018.554 C 1257.224 1043.485,1216.352 1065.970,1207.835 1068.522 L 1192.349 1073.162 1109.175 1023.258 C 974.498 942.455,523.947 660.596,416.000 589.617 L 374.000 562.000 396.000 559.652 C 425.552 556.498,1957.869 556.374,1996.000 559.523 M1862.581 1372.251 C 1764.699 1387.157,1679.407 1431.712,1603.559 1507.559 C 1538.463 1572.656,1501.847 1634.949,1479.464 1718.679 C 1473.133 1742.359,1470.603 1766.588,1469.091 1818.000 C 1466.218 1915.654,1476.956 1965.975,1518.258 2048.425 C 1560.619 2132.990,1658.708 2224.739,1744.895 2260.415 C 1928.621 2336.465,2123.866 2298.680,2263.994 2159.956 C 2320.760 2103.758,2355.943 2043.840,2382.713 1957.777 C 2393.429 1923.325,2393.841 1918.816,2393.843 1836.000 C 2393.845 1740.259,2392.322 1731.270,2363.607 1657.595 C 2308.125 1515.243,2158.127 1394.864,2013.352 1376.501 C 1965.503 1370.432,1888.735 1368.268,1862.581 1372.251 M2198.841 1795.592 C 2209.699 1811.705,2211.231 1841.607,2201.882 1854.955 C 2198.517 1859.759,2189.067 1865.609,2180.882 1867.956 C 2159.067 1874.211,1824.208 1877.934,1748.000 1872.769 C 1713.900 1870.458,1681.331 1866.791,1675.625 1864.620 C 1669.918 1862.449,1662.941 1855.101,1660.120 1848.290 C 1654.220 1834.047,1656.418 1797.986,1663.627 1790.765 C 1670.908 1783.470,1744.207 1781.353,1977.841 1781.693 L 2189.683 1782.000 2198.841 1795.592 " fill="#1D1E23" stroke="none" fill-rule="evenodd"/></svg>