<svg viewBox="0 0 2400 2400" fill="none" xmlns="http://www.w3.org/2000/svg"><path d="M1226.9 1225.33C1210.49 1235.8 1189.51 1235.8 1173.1 1225.33L350 700V1850H832.5H1315C1315 1873.33 1317.08 1898.75 1321.25 1926.25C1325.42 1953.75 1330.83 1978.33 1337.5 2000H350C310 2000 275 1984.58 245 1953.75C215 1922.92 200 1888.33 200 1850V550C200 511.667 215 477.083 245 446.25C275 415.417 310 400 350 400H2050C2088.33 400 2122.92 415.417 2153.75 446.25C2184.58 477.083 2200 511.667 2200 550V1277.5C2181.67 1267.5 2157.92 1257.92 2128.75 1248.75C2099.58 1239.58 2073.33 1232.5 2050 1227.5V700L1226.9 1225.33ZM1173.46 1065.87C1189.69 1076.04 1210.31 1076.04 1226.54 1065.87L2050 550H350L1173.46 1065.87ZM1932.5 2300C1803.16 2300 1692.91 2255 1601.75 2165C1510.58 2075 1465 1964.99 1465 1834.96C1465 1704.94 1510.58 1594.11 1601.75 1502.46C1692.91 1410.82 1803.16 1365 1932.5 1365C2061.84 1365 2172.09 1410.82 2263.26 1502.46C2354.42 1594.11 2400 1704.94 2400 1834.96C2400 1964.99 2354.42 2075 2263.26 2165C2172.09 2255 2061.84 2300 1932.5 2300ZM1650 1825C1650 1852.61 1672.39 1875 1700 1875H2165C2192.61 1875 2215 1852.61 2215 1825C2215 1797.39 2192.61 1775 2165 1775H1700C1672.39 1775 1650 1797.39 1650 1825Z" fill="#1D1E23"/></svg>