<svg viewBox="0 0 2400 2400" fill="none" xmlns="http://www.w3.org/2000/svg"><path d="M530.000 403.720 L 306.000 406.000 285.509 417.359 C 258.266 432.460,227.302 464.598,212.239 493.406 L 200.000 516.812 200.000 1200.000 L 200.000 1883.188 212.235 1906.594 C 228.299 1937.326,262.946 1972.058,292.999 1987.558 L 317.124 2000.000 826.995 2000.000 L 1336.867 2000.000 1334.088 1989.000 C 1328.338 1966.238,1320.623 1916.836,1317.845 1884.993 L 1314.967 1852.000 833.443 1852.000 L 351.919 1852.000 352.959 1282.333 C 353.532 969.016,355.235 711.431,356.744 709.922 C 359.538 707.129,434.129 754.123,911.658 1059.535 C 1168.395 1223.736,1182.212 1232.000,1200.005 1232.000 C 1217.771 1232.000,1230.824 1224.241,1464.347 1074.856 C 1950.061 764.144,2039.999 707.527,2043.969 709.981 C 2046.609 711.613,2048.000 801.173,2048.000 969.580 L 2048.000 1226.689 2089.000 1237.670 C 2122.545 1246.654,2164.596 1261.330,2195.000 1274.663 C 2198.980 1276.409,2200.000 1199.553,2200.000 897.828 L 2200.000 518.799 2189.000 496.543 C 2175.566 469.362,2136.912 429.711,2109.947 415.452 L 2090.000 404.904 1422.000 403.172 C 1054.600 402.219,653.200 402.466,530.000 403.720 M2037.890 557.485 C 2022.118 568.449,1411.776 950.383,1332.000 999.210 C 1222.782 1066.056,1208.935 1073.187,1194.114 1070.223 C 1179.946 1067.389,1158.975 1055.262,1022.000 970.694 C 914.179 904.126,376.012 567.132,362.110 557.479 C 355.419 552.833,482.787 552.000,1200.000 552.000 C 1917.683 552.000,2044.585 552.831,2037.890 557.485 M1879.381 1368.557 C 1804.664 1377.123,1720.183 1408.947,1665.728 1449.040 C 1592.725 1502.791,1528.454 1582.371,1499.809 1654.481 C 1442.505 1798.735,1457.155 1964.671,1537.911 2086.039 C 1587.239 2160.175,1669.913 2230.929,1742.929 2261.498 C 1862.484 2311.551,2001.366 2312.297,2118.543 2263.517 C 2182.939 2236.708,2265.771 2169.748,2312.843 2106.446 C 2429.795 1949.173,2428.408 1717.996,2309.547 1557.200 C 2229.228 1448.542,2114.036 1383.184,1976.843 1368.427 C 1931.083 1363.505,1923.357 1363.515,1879.381 1368.557 M2187.841 1782.542 C 2202.077 1790.952,2212.000 1807.875,2212.000 1823.746 C 2212.000 1843.057,2201.725 1863.456,2189.193 1869.025 C 2172.443 1876.470,1689.866 1876.205,1676.786 1868.745 C 1653.694 1855.574,1645.447 1820.796,1659.824 1797.217 C 1672.077 1777.123,1666.399 1777.523,1951.383 1776.672 C 2153.614 1776.069,2177.903 1776.672,2187.841 1782.542 " fill="#1D1E23" stroke="none" fill-rule="evenodd"/></svg>