<svg xmlns="http://www.w3.org/2000/svg" width="1200" height="1200" fill="none"><g clip-path="url(#a)"><path fill="#1D1E23" d="M950 200H250c-55.5 0-100 45-100 100v600c0 55 44.5 100 100 100h700c55 0 100-45 100-100V300c0-55-45-100-100-100M550 525c0 14-11 25-25 25h-25c-14 0-25-11-25-25H375v150h100c0-14 11-25 25-25h25c14 0 25 11 25 25v25c0 27.5-22.5 50-50 50H350c-27.5 0-50-22.5-50-50V500c0-27.5 22.5-50 50-50h150c27.5 0 50 22.5 50 50zm350 0c0 14-11 25-25 25h-25c-14 0-25-11-25-25H725v150h100c0-14 11-25 25-25h25c14 0 25 11 25 25v25c0 27.5-22.5 50-50 50H700c-27.5 0-50-22.5-50-50V500c0-27.5 22.5-50 50-50h150c27.5 0 50 22.5 50 50z"/></g><defs><clipPath id="a"><path fill="#fff" d="M0 0h1200v1200H0z"/></clipPath></defs></svg>