<svg width="1200" height="1200" viewBox="0 0 1200 1200" fill="none" xmlns="http://www.w3.org/2000/svg"><path d="M536.465 189.55C526.745 172.647 539.255 151.616 558.75 152.094L736.88 156.46C745.605 156.674 753.585 161.423 757.94 168.989L1062.555 698.645C1072.28 715.55 1059.765 736.58 1040.275 736.105L862.145 731.735C853.42 731.525 845.44 726.775 841.085 719.21L536.465 189.55Z" fill="#1D1E23"/><path d="M318.052 993.8C298.534 993.8 286.543 972.43 296.714 955.77L389.529 803.74C394.069 796.305 402.154 791.77 410.867 791.77L1049.38 791.77C1069.075 791.77 1081.035 813.48 1070.51 830.13L974.39 982.16C969.805 989.405 961.83 993.8 953.255 993.8L318.052 993.8Z" fill="#1D1E23"/><path d="M247.258 914.68C237.48 931.55 213.012 931.23 203.679 914.11L118.395 757.665C114.218 750 114.339 740.71 118.715 733.16L425.103 204.524C434.881 187.654 459.35 187.974 468.683 205.095L553.965 361.54C558.145 369.204 558.02 378.49 553.645 386.042L247.258 914.68Z" fill="#1D1E23"/></svg>