<svg xmlns="http://www.w3.org/2000/svg" width="1200" height="1200" fill="none" viewBox="0 0 1200 1200"><g clip-path="url(#a)"><path fill="#000" d="M600 700c83 0 150-67 150-150V250c0-83-67-150-150-150s-150 67-150 150v300c0 83 67 150 150 150m-50-450c0-27.5 22.5-50 50-50s50 22.5 50 50v300c0 27.5-22.5 50-50 50s-50-22.5-50-50zm300 300c0 138-112 250-250 250S350 688 350 550H250c0 176.5 130.5 321.5 300 346v154h100V896c169.5-24.5 300-169.5 300-346z"/></g><defs><clipPath id="a"><path fill="#fff" d="M0 0h1200v1200H0z"/></clipPath></defs></svg>