<svg width="1200" height="1200" viewBox="0 0 1200 1200" fill="none" xmlns="http://www.w3.org/2000/svg"><g clip-path="url(#clip0_231_5135)"><path d="M750 530V250C750 167 683 100 600 100C523 100 460.501 158 452.001 232.5L750 530ZM904 550C883.5 550 865.5 565 862.5 585.5C860 601.5 856.5 617.5 851.5 632L915 695.5C930 665.5 941 633 946.5 598.5C950 573 930 550 904 550ZM185.5 178C166 197.5 166 229 185.5 248.5L450 513.5V535C450 594.5 480 651 531.5 680.5C569 702 602 702.5 632.5 696L715.5 779C680 795.5 640.5 805 600 805C473.001 805 356 716.5 337.5 585.5C334.5 565 316.5 550 296.001 550C270 550 250 573 253.5 598.5C276.5 746.5 401.501 863.5 550 886V1000C550 1027.5 572.5 1050 600 1050C627.5 1050 650 1027.5 650 1000V886C695.5 879.5 738.5 863.5 777.5 841L952 1015.5C971.5 1035 1003 1035 1022.5 1015.5C1042 996 1042 964.5 1022.5 945L256 178C236.5 158.5 205.001 158.5 185.5 178Z" fill="black"/></g><defs><clipPath id="clip0_231_5135"><path width="24" fill="white" d="M0 0H1200V1200H0V0z"/></clipPath></defs></svg>