<svg xmlns="http://www.w3.org/2000/svg" width="1200" height="1200" fill="none" viewBox="0 0 1200 1200"><g clip-path="url(#a)"><path fill="#000" d="M600 100c-276 0-500 224-500 500s224 500 500 500 500-224 500-500-224-500-500-500M500 800c-27.5 0-50-22.5-50-50V450c0-27.5 22.5-50 50-50s50 22.5 50 50v300c0 27.5-22.5 50-50 50m200 0c-27.5 0-50-22.5-50-50V450c0-27.5 22.5-50 50-50s50 22.5 50 50v300c0 27.5-22.5 50-50 50"/></g><defs><clipPath id="a"><path fill="#fff" d="M0 0h1200v1200H0z"/></clipPath></defs></svg>