<svg xmlns="http://www.w3.org/2000/svg" width="1200" height="1200" fill="none" viewBox="0 0 1200 1200"><g clip-path="url(#a)"><path fill="#000" d="M600 250.001V110.502c0-22.501-27-33.5-42.5-17.5l-189.998 189.5c-10 10-10 25.5 0 35.5L557 507.5c16 15.5 43 4.5 43-17.999v-139.5c186.5 0 334 170.999 293 364.499C869.5 828 777.5 919.5 664.5 943c-178.499 37.5-337.499-85-361.498-250.5-3.5-24-24.5-42.5-49.001-42.5-29.999 0-54 26.5-50 56.5 31 219.5 240 382 476.499 336 156-30.5 281.5-156 312-312C1042 474.001 847 250.001 600 250.001"/></g><defs><clipPath id="a"><path fill="#fff" d="M0 0h1200v1200H0z"/></clipPath></defs></svg>