<svg width="1200" height="1200" viewBox="0 0 1200 1200" fill="none" xmlns="http://www.w3.org/2000/svg"><g clip-path="url(#clip0_231_5124)"><path d="M600 100C324 100 100 324 100 600C100 876 324 1100 600 1100C876 1100 1100 876 1100 600C1100 324 876 100 600 100ZM750 800H450C422.5 800 400 777.5 400 750V450C400 422.5 422.5 400 450 400H750C777.5 400 800 422.5 800 450V750C800 777.5 777.5 800 750 800Z" fill="black"/></g><defs><clipPath id="clip0_231_5124"><path width="24" fill="white" d="M0 0H1200V1200H0V0z"/></clipPath></defs></svg>