<svg width="1200" height="1200" viewBox="0 0 1200 1200" fill="none" xmlns="http://www.w3.org/2000/svg"><g clip-path="url(#clip0_124_1164)"><path d="M217 146.509L146.5 217.009L364.5 435.009L350 450.009H149.999V750.01H350L600 1000.01V670.51L809 879.51C776.5 904.01 740 923.51 700 935.01V1038.01C767 1023.01 828.5 992.01 880.5 950.51L983 1053.01L1053.5 982.51L217 146.509ZM950 600.01C950 641.01 942.5 680.51 929.5 717.01L1006 793.51C1034 735.01 1050 669.51 1050 600.01C1050 386.009 900.5 207.009 700 161.509V264.509C844.5 307.509 950 441.509 950 600.01ZM600 200.009L506 294.009L600 388.009V200.009ZM825 600.01C825 511.51 774 435.509 700 398.509V488.009L824 612.01C824.5 608.01 825 604.01 825 600.01Z" fill="black"/></g><defs><clipPath id="clip0_124_1164"><path width="24" fill="white" d="M0 0H1200V1200H0V0z"/></clipPath></defs></svg>