<svg xmlns="http://www.w3.org/2000/svg" width="1200" height="1200" fill="none"><g clip-path="url(#a)"><path fill="#000" d="m217 146.509-70.5 70.5 218 218-14.5 15H149.999V750.01H350l250 250v-329.5l209 209c-32.5 24.5-69 44-109 55.5v103c67-15 128.5-46 180.5-87.5l102.5 102.5 70.5-70.5zM950 600.01c0 41-7.5 80.5-20.5 117l76.5 76.5c28-58.5 44-124 44-193.5 0-214.001-149.5-393.001-350-438.501v103c144.5 43 250 177 250 335.501M600 200.009l-94 94 94 94zM825 600.01c0-88.5-51-164.501-125-201.501v89.5L824 612.01c.5-4 1-8 1-12"/></g><defs><clipPath id="a"><path fill="#fff" d="M0 0h1200v1200H0z"/></clipPath></defs></svg>