<svg viewBox="0 0 24 24" fill="none" xmlns="http://www.w3.org/2000/svg"><g><path d="M4.33993 2.93018L2.92993 4.34018L7.28993 8.70018L6.99993 9.00018H2.99993V15.0002H6.99993L11.9999 20.0002V13.4102L16.1799 17.5902C15.5299 18.0802 14.7999 18.4702 13.9999 18.7002V20.7602C15.3399 20.4602 16.5699 19.8402 17.6099 19.0102L19.6599 21.0602L21.0699 19.6502L4.33993 2.93018ZM18.9999 12.0002C18.9999 12.8202 18.8499 13.6102 18.5899 14.3402L20.1199 15.8702C20.6799 14.7002 20.9999 13.3902 20.9999 12.0002C20.9999 7.72018 18.0099 4.14018 13.9999 3.23018V5.29018C16.8899 6.15018 18.9999 8.83018 18.9999 12.0002ZM11.9999 4.00018L10.1199 5.88018L11.9999 7.76018V4.00018ZM16.4999 12.0002C16.4999 10.2302 15.4799 8.71018 13.9999 7.97018V9.76018L16.4799 12.2402C16.4899 12.1602 16.4999 12.0802 16.4999 12.0002Z" fill="#1D1E23"/></g></svg>