<svg xmlns="http://www.w3.org/2000/svg" width="1200" height="1200" fill="none"><path fill="#1D1E23" d="M200.232 250c-27.472 0-49.748 22.26-49.768 49.732L150 950c0 55 44.5 100 100 100h600c27.615 0 50-22.385 50-50s-22.385-50-50-50H300c-27.5 0-50-22.5-50-50V299.767C250 272.282 227.718 250 200.232 250"/><path fill="#1D1E23" d="M725 800c-41.42 0-75-33.58-75-75s33.58-75 75-75h250c41.42 0 75 33.58 75 75s-33.58 75-75 75zM400 475c0 41.42 33.578 75 75 75h250c41.42 0 75-33.58 75-75 0-41.422-33.58-75-75-75H475c-41.422 0-75 33.578-75 75"/></svg>