<svg xmlns="http://www.w3.org/2000/svg" width="1200" height="1200" fill="none"><path fill="#1D1E23" d="M581.97 351.045h3c20 0 36 16 36 36v227l193.5 115c17.5 10 23 32.5 12.5 49.5-10 17-32 22-49 12l-207.5-124.5c-15.5-9-24.5-25.5-24.5-43v-236c0-20 16-36 36-36"/><path fill="#1D1E23" d="M599.5 100C323.5 100 100 324 100 600s223.5 500 499.5 500q13.628 0 27.075-.72c29.36-1.565 45.115-33.25 36.515-61.365-6.85-22.375-28.08-38.745-51.475-38.08q-5.789.165-11.615.165c-221 0-400-179-400-400s179-400 400-400c212.605 0 386.34 165.657 399.23 375h-72.05c-10.68 0-16.445 12.525-9.495 20.635L1040.51 738.93c4.99 5.82 13.99 5.82 18.98 0l122.825-143.295c6.95-8.11 1.185-20.635-9.495-20.635h-73.435C1086.345 310.6 867.6 100 599.5 100"/></svg>