<svg width="1200" height="1200" viewBox="0 0 1200 1200" fill="none" xmlns="http://www.w3.org/2000/svg"><path d="M549.99 102.503V203.502C476.99 212.502 410.49 241.502 354.99 284.502L283.99 213.002C357.99 152.502 449.49 112.502 549.99 102.503Z" fill="#1D1E23"/><path d="M212.99 284.002L284.49 355.002C241.49 410.503 212.49 477.003 203.491 550H102.49C112.49 449.502 152.49 358.002 212.99 284.002Z" fill="#1D1E23"/><path d="M102.49 650H203.491C212.49 723 241.49 789.5 284.49 844.5L212.99 916C152.49 842 112.49 750.5 102.49 650Z" fill="#1D1E23"/><path d="M549.99 1097.505C449.99 1087.5 357.99 1047.505 283.99 987L354.99 915.5C410.49 958.5 476.99 987.5 549.99 996.5V1097.505Z" fill="#1D1E23"/><path d="M652.49 1097.505C903.99 1071 1099.99 858 1099.99 600C1099.99 342.002 903.99 129.002 652.49 102.503V203.502C848.49 229.502 999.99 397.502 999.99 600C999.99 802.5 848.49 970.5 652.49 996.5V1097.505Z" fill="#1D1E23"/><path d="M584.97 351.048H581.97C561.97 351.048 545.97 367.049 545.97 387.048V623.05C545.97 640.55 554.97 657.05 570.47 666.05L777.97 790.55C794.97 800.55 816.97 795.55 826.97 778.55C837.47 761.55 831.97 739.05 814.47 729.05L620.97 614.05V387.048C620.97 367.049 604.97 351.048 584.97 351.048Z" fill="#1D1E23"/></svg>