<svg width="1200" height="1200" viewBox="0 0 1200 1200" fill="none" xmlns="http://www.w3.org/2000/svg"><path d="M549.99 102.49V203.491C476.99 212.49 410.49 241.49 354.99 284.49L283.99 212.99C357.99 152.49 449.49 112.49 549.99 102.49Z" fill="black"/><path d="M212.99 283.99L284.49 354.99C241.49 410.49 212.49 476.99 203.491 549.99H102.49C112.49 449.49 152.49 357.99 212.99 283.99Z" fill="black"/><path d="M102.49 649.99H203.491C212.49 722.99 241.49 789.49 284.49 844.49L212.99 915.99C152.49 841.99 112.49 750.49 102.49 649.99Z" fill="black"/><path d="M549.99 1097.49C449.99 1087.49 357.99 1047.49 283.99 986.99L354.99 915.49C410.49 958.49 476.99 987.49 549.99 996.49V1097.49Z" fill="black"/><path d="M652.49 1097.49C903.99 1070.99 1099.99 857.99 1099.99 599.99C1099.99 341.99 903.99 128.99 652.49 102.49V203.491C848.49 229.49 999.99 397.49 999.99 599.99C999.99 802.49 848.49 970.49 652.49 996.49V1097.49Z" fill="black"/><path d="M584.97 351.036H581.97C561.97 351.036 545.97 367.036 545.97 387.036V623.035C545.97 640.535 554.97 657.035 570.47 666.035L777.97 790.535C794.97 800.535 816.97 795.535 826.97 778.535C837.47 761.535 831.97 739.035 814.47 729.035L620.97 614.035V387.036C620.97 367.036 604.97 351.036 584.97 351.036Z" fill="black"/></svg>