<svg xmlns="http://www.w3.org/2000/svg" width="1200" height="1200" fill="none" viewBox="0 0 1200 1200"><path fill="#000" d="M100 600c0-276 223.5-500 499.5-500C876 100 1100 324 1100 600c0 8.905-.235 17.76-.695 26.55-1.54 29.38-33.25 45.15-61.375 36.54-22.385-6.85-38.76-28.085-38.095-51.485q.165-5.784.165-11.605c0-221-179-400-400-400S200 379 200 600s179 400 400 400q5.826 0 11.615-.165c23.395-.665 44.625 15.705 51.475 38.08 8.6 28.115-7.155 59.8-36.515 61.365q-13.447.72-27.075.72c-276 0-499.5-224-499.5-500"/><path fill="#000" d="M584.97 351.045h-3c-20 0-36 16-36 36v236c0 17.5 9 34 24.5 43l150.435 90.26a301.6 301.6 0 0 1 54.64-50.395L620.97 614.045v-227c0-20-16-36-36-36"/><path fill="#000" fill-rule="evenodd" d="M950 1200c138.07 0 250-111.93 250-250s-111.93-250-250-250-250 111.93-250 250 111.93 250 250 250M848.935 945.67l59.54 59.55 142.595-143.705c12.94-12.94 34.02-12.94 46.96 0 12.945 12.945 12.945 34.02 0 46.965l-164.04 164.04c-14.42 14.42-37.72 14.42-52.14 0l-79.88-79.885c-12.94-12.945-12.94-34.02 0-46.965 12.945-12.94 34.02-12.94 46.965 0"/></svg>