<svg xmlns="http://www.w3.org/2000/svg" width="1200" height="1200" fill="none" viewBox="0 0 1200 1200"><path fill="#000" d="M599.5 100C323.5 100 100 324 100 600s223.5 500 499.5 500q13.628 0 27.075-.72c29.36-1.565 45.115-33.25 36.515-61.365-6.85-22.375-28.08-38.745-51.475-38.08q-5.789.165-11.615.165c-221 0-400-179-400-400s179-400 400-400 400 179 400 400q0 5.821-.165 11.605c-.665 23.4 15.71 44.635 38.095 51.485 28.125 8.61 59.835-7.16 61.375-36.54.46-8.79.695-17.645.695-26.55 0-276-224-500-500.5-500"/><path fill="#000" d="M581.97 351.045h3c20 0 36 16 36 36v227l154.575 91.865a301.6 301.6 0 0 0-54.64 50.395l-150.435-90.26c-15.5-9-24.5-25.5-24.5-43v-236c0-20 16-36 36-36M950 700c-138 0-250 112-250 250s112 250 250 250 250-112 250-250-112-250-250-250"/></svg>