<svg xmlns="http://www.w3.org/2000/svg" width="1200" height="1200" fill="none" viewBox="0 0 1200 1200"><path fill="#000" d="M581.97 351.045h3c20 0 36 16 36 36v227l193.5 115c17.5 10 23 32.5 12.5 49.5-10 17-32 22-49 12l-207.5-124.5c-15.5-9-24.5-25.5-24.5-43v-236c0-20 16-36 36-36"/><path fill="#000" d="M100 600c0-276 223.5-500 499.5-500C876 100 1100 324 1100 600c0 8.905-.235 17.76-.695 26.55-1.54 29.38-33.25 45.15-61.375 36.54-22.385-6.85-38.76-28.085-38.095-51.485q.165-5.784.165-11.605c0-221-179-400-400-400S200 379 200 600s179 400 400 400q5.826 0 11.615-.165c23.395-.665 44.625 15.705 51.475 38.08 8.6 28.115-7.155 59.8-36.515 61.365q-13.447.72-27.075.72c-276 0-499.5-224-499.5-500M750 1066.68V1150h83.32l245.745-245.745-83.32-83.32zm393.5-226.86c8.665-8.665 8.665-22.665 0-31.33l-51.99-51.99c-8.665-8.665-22.665-8.665-31.33 0l-40.66 40.66 83.32 83.32z"/></svg>