<svg xmlns="http://www.w3.org/2000/svg" width="1200" height="1200" fill="none" viewBox="0 0 1200 1200"><path fill="#000" d="M584.97 351.045h-3c-20 0-36 16-36 36v236c0 17.5 9 34 24.5 43l150.435 90.26a301.6 301.6 0 0 1 54.64-50.395L620.97 614.045v-227c0-20-16-36-36-36"/><path fill="#000" d="M100 600c0-276 223.5-500 499.5-500C876 100 1100 324 1100 600c0 8.905-.235 17.76-.695 26.55-1.54 29.38-33.25 45.15-61.375 36.54-22.385-6.85-38.76-28.085-38.095-51.485q.165-5.784.165-11.605c0-221-179-400-400-400S200 379 200 600s179 400 400 400q5.826 0 11.615-.165c23.395-.665 44.625 15.705 51.475 38.08 8.6 28.115-7.155 59.8-36.515 61.365q-13.447.72-27.075.72c-276 0-499.5-224-499.5-500"/><path fill="#000" d="M912.92 1186.57c-66.095 0-125.495-40.345-150.025-101.775l-61.43-154.285c-6.285-16.015 8.715-32.03 25.14-26.76l16.015 5.27c11.35 3.65 20.68 12.37 25.14 23.52l28.585 71.565h15.205V765.89c0-13.99 11.355-25.345 25.34-25.345 13.99 0 25.345 11.355 25.345 25.345v177.395h20.275V725.34c0-13.985 11.35-25.34 25.34-25.34s25.34 11.355 25.34 25.34v217.945h20.275v-187.53c0-13.99 11.355-25.345 25.345-25.345 13.985 0 25.34 11.355 25.34 25.345v187.53h20.275v-126.71c0-13.99 11.35-25.345 25.34-25.345s25.345 11.355 25.345 25.345v207.805c0 89.61-72.58 162.19-162.19 162.19"/></svg>