<svg xmlns="http://www.w3.org/2000/svg" width="1200" height="1200" fill="none" viewBox="0 0 1200 1200"><path fill="#000" d="M549.99 102.49v101.001c-73 8.999-139.5 37.999-195 80.999l-71-71.5c74-60.5 165.5-100.5 266-110.5M212.99 283.99l71.5 71c-43 55.5-72 122-80.999 195H102.49c10-100.5 50-192 110.5-266M102.49 649.99h101.001c8.999 73 37.999 139.5 80.999 194.5l-71.5 71.5c-60.5-74-100.5-165.5-110.5-266M549.99 1097.49c-100-10-192-50-266-110.5l71-71.5c55.5 43 122 72 195 81zM652.49 1097.49c251.5-26.5 447.5-239.5 447.5-497.5s-196-471-447.5-497.5v101.001c196 25.999 347.5 193.999 347.5 396.499s-151.5 370.5-347.5 396.5z"/><path fill="#000" d="M584.97 351.036h-3c-20 0-36 16-36 36v235.999c0 17.5 9 34 24.5 43l207.5 124.5c17 10 39 5 49-12 10.5-17 5-39.5-12.5-49.5l-193.5-115V387.036c0-20-16-36-36-36"/></svg>