<svg xmlns="http://www.w3.org/2000/svg" width="1200" height="1200" fill="none"><path fill="#1D1E23" d="M584.97 351.045h-3c-20 0-36 16-36 36v236c0 17.5 9 34 24.5 43l150.435 90.26a301.6 301.6 0 0 1 54.64-50.395L620.97 614.045v-227c0-20-16-36-36-36"/><path fill="#1D1E23" d="M100 600c0-276 223.5-500 499.5-500C876 100 1100 324 1100 600c0 8.905-.235 17.76-.695 26.55-1.54 29.38-33.25 45.15-61.375 36.54-22.385-6.85-38.76-28.085-38.095-51.485q.165-5.784.165-11.605c0-221-179-400-400-400S200 379 200 600s179 400 400 400q5.826 0 11.615-.165c23.395-.665 44.625 15.705 51.475 38.08 8.6 28.115-7.155 59.8-36.515 61.365q-13.447.72-27.075.72c-276 0-499.5-224-499.5-500"/><path fill="#1D1E23" d="M950 700c-138 0-250 112-250 250s112 250 250 250 250-112 250-250-112-250-250-250m25 425h-50v-50h50zm51.75-193.75-22.5 23C986.25 972.5 975 987.5 975 1025h-50v-12.5c0-27.5 11.25-52.5 29.25-70.75l31-31.5c9.25-9 14.75-21.5 14.75-35.25 0-27.5-22.5-50-50-50s-50 22.5-50 50h-50c0-55.25 44.75-100 100-100s100 44.75 100 100c0 22-9 42-23.25 56.25"/></svg>