<svg width="1200" height="1200" viewBox="0 0 1200 1200" fill="none" xmlns="http://www.w3.org/2000/svg"><path d="M584.97 351.045H581.97C561.97 351.045 545.97 367.045 545.97 387.045V623.045C545.97 640.545 554.97 657.045 570.47 666.045L720.905 756.305C736.95 737.34 755.31 720.4 775.545 705.91L620.97 614.045V387.045C620.97 367.045 604.97 351.045 584.97 351.045Z" fill="#1D1E23"/><path d="M874.5 730.265V787.5H1112.5C1133.21 787.5 1150 804.29 1150 825C1150 845.71 1133.21 862.5 1112.5 862.5H874.5V919.735C874.5 930.885 861.01 936.455 853.145 928.56L758.785 833.82C753.93 828.945 753.93 821.055 758.785 816.18L853.145 721.44C861.01 713.545 874.5 719.115 874.5 730.265Z" fill="#1D1E23"/><path d="M787.5 1000H1025.5V942.765C1025.5 931.615 1038.99 926.045 1046.855 933.94L1141.215 1028.68C1146.07 1033.555 1146.07 1041.445 1141.215 1046.32L1046.855 1141.06C1038.99 1148.955 1025.5 1143.385 1025.5 1132.235V1075H787.5C766.79 1075 750 1058.21 750 1037.5C750 1016.79 766.79 1000 787.5 1000Z" fill="#1D1E23"/><path d="M100 600C100 324 323.5 100 599.5 100C876 100 1100 324 1100 600C1100 608.905 1099.765 617.76 1099.305 626.55C1097.765 655.93 1066.055 671.7 1037.93 663.09C1015.545 656.24 999.17 635.005 999.835 611.605C999.945 607.75 1000 603.88 1000 600C1000 379 821 200 600 200C379 200 200 379 200 600C200 821 379 1000 600 1000C603.885 1000 607.755 999.945 611.615 999.835C635.01 999.17 656.24 1015.54 663.09 1037.915C671.69 1066.03 655.935 1097.715 626.575 1099.28C617.61 1099.76 608.585 1100 599.5 1100C323.5 1100 100 876 100 600Z" fill="#1D1E23"/></svg>