<svg xmlns="http://www.w3.org/2000/svg" width="1200" height="1200" fill="none"><path fill="#1D1E23" d="M900 150h50c55 0 100 45 100 100v250.67c0 27.61-22.385 50-50 50-26.755 0-48.605-21.02-49.935-47.445l-.065-.015V400H250v500c0 27.5 22.5 50 50 50h202.245v.55c24.065 3.61 42.515 24.38 42.515 49.45s-18.45 45.83-42.515 49.445v.555H250c-55.5 0-100-45-100-100l.5-700c0-55 44-100 99.5-100h50v-50c0-27.614 22.386-50 50-50s50 22.386 50 50v50h400v-50c0-27.614 22.385-50 50-50s50 22.386 50 50z"/><path fill="#1D1E23" fill-rule="evenodd" d="M752.5 1080.315q45.622 19.686 97.5 19.685 51.878.001 97.5-19.685 45.624-19.689 79.375-53.44t53.44-79.375q19.686-45.622 19.685-97.5.001-51.878-19.685-97.5-19.689-45.624-53.44-79.375c-22.5-22.5-48.96-40.315-79.375-53.435Q901.878 600.001 850 600q-51.878.001-97.5 19.69c-30.415 13.12-56.875 30.935-79.375 53.435s-40.315 48.96-53.435 79.375Q600.001 798.122 600 850q.001 51.878 19.69 97.5c13.12 30.415 30.935 56.875 53.435 79.375q33.751 33.751 79.375 53.44M875 840l92.5 92.5-35 35L825 860V725h50z"/></svg>