<svg width="1200" height="1200" viewBox="0 0 1200 1200" fill="none" xmlns="http://www.w3.org/2000/svg"><path d="M900 150H950C1005 150 1050 195 1050 250V500.67C1050 528.28 1027.615 550.67 1000 550.67C973.245 550.67 951.395 529.65 950.065 503.225L950 503.21V400H250V900C250 927.5 272.5 950 300 950H502.245V950.55C526.31 954.16 544.76 974.93 544.76 1000C544.76 1025.07 526.31 1045.83 502.245 1049.445V1050H250C194.5 1050 150 1005 150 950L150.5 250C150.5 195 194.5 150 250 150H300V100C300 72.386 322.386 50 350 50C377.614 50 400 72.386 400 100V150H800V100C800 72.386 822.385 50 850 50C877.615 50 900 72.386 900 100V150Z" fill="black"/><path fill-rule="evenodd" d="M752.5 1080.315C782.915 1093.44 815.415 1100 850 1100C884.585 1100 917.085 1093.44 947.5 1080.315C977.915 1067.19 1004.375 1049.375 1026.875 1026.875C1049.375 1004.375 1067.19 977.915 1080.315 947.5C1093.44 917.085 1100 884.585 1100 850C1100 815.415 1093.44 782.915 1080.315 752.5C1067.19 722.085 1049.375 695.625 1026.875 673.125C1004.375 650.625 977.915 632.81 947.5 619.69C917.085 606.565 884.585 600 850 600C815.415 600 782.915 606.565 752.5 619.69C722.085 632.81 695.625 650.625 673.125 673.125C650.625 695.625 632.81 722.085 619.69 752.5C606.565 782.915 600 815.415 600 850C600 884.585 606.565 917.085 619.69 947.5C632.81 977.915 650.625 1004.375 673.125 1026.875C695.625 1049.375 722.085 1067.19 752.5 1080.315ZM875 840L967.5 932.5L932.5 967.5L825 860V725H875V840Z" fill="black"/></svg>