<svg width="1200" height="1200" viewBox="0 0 1200 1200" fill="none" xmlns="http://www.w3.org/2000/svg"><path fill-rule="evenodd" d="M200 200H1000C1055.5 200 1100 244.5 1100 300V900C1100 955.5 1055.5 1000 1000 1000H200C144.5 1000 100 955.5 100 900L100.5 300C100.5 244.5 144.5 200 200 200ZM475 850C626.88 850 750 726.88 750 575C750 423.121 626.88 300 475 300C323.122 300 200 423.121 200 575C200 726.88 323.122 850 475 850Z" fill="black"/><path d="M475.147 400H477.243C491.213 400 502.39 410.796 502.39 424.291V577.455L637.555 655.05C649.775 661.8 653.62 676.98 646.285 688.45C639.3 699.92 623.93 703.295 612.055 696.545L467.114 612.54C456.287 606.47 450 595.335 450 583.53V424.291C450 410.796 461.177 400 475.147 400Z" fill="black"/></svg>