<svg xmlns="http://www.w3.org/2000/svg" width="1200" height="1200" fill="none"><path fill="#1D1E23" d="M475.147 400h2.096c13.97 0 25.147 10.796 25.147 24.291v153.164l135.165 77.595c12.22 6.75 16.065 21.93 8.73 33.4-6.985 11.47-22.355 14.845-34.23 8.095L467.114 612.54C456.287 606.47 450 595.335 450 583.53V424.291C450 410.796 461.177 400 475.147 400"/><path fill="#1D1E23" fill-rule="evenodd" d="M1000 200H200c-55.5 0-99.5 44.5-99.5 100l-.5 600c0 55.5 44.5 100 100 100h460.35c-6.74-23.84-10.35-49-10.35-75 0-151.88 123.12-275 275-275 66.48 0 127.455 23.59 175 62.86V300c0-55.5-44.5-100-100-100M750 575c0 151.88-123.12 275-275 275-151.878 0-275-123.12-275-275 0-151.879 123.122-275 275-275 151.88 0 275 123.121 275 275"/><path fill="#1D1E23" d="M925 1150c124.2 0 225-100.8 225-225s-100.8-225-225-225-225 100.8-225 225 100.8 225 225 225m-22.5-337.5h45v135h-45zm0 180h45v45h-45z"/></svg>