<svg width="1200" height="1200" viewBox="0 0 1200 1200" fill="none" xmlns="http://www.w3.org/2000/svg"><path d="M475.147 400H477.243C491.213 400 502.39 410.796 502.39 424.291V577.455L637.555 655.05C649.775 661.8 653.62 676.98 646.285 688.45C639.3 699.92 623.93 703.295 612.055 696.545L467.114 612.54C456.287 606.47 450 595.335 450 583.53V424.291C450 410.796 461.177 400 475.147 400Z" fill="black"/><path fill-rule="evenodd" d="M1000 200H200C144.5 200 100.5 244.5 100.5 300L100 900C100 955.5 144.5 1000 200 1000H660.35C653.61 976.16 650 951 650 925C650 773.12 773.12 650 925 650C991.48 650 1052.455 673.59 1100 712.86V300C1100 244.5 1055.5 200 1000 200ZM750 575C750 726.88 626.88 850 475 850C323.122 850 200 726.88 200 575C200 423.121 323.122 300 475 300C626.88 300 750 423.121 750 575Z" fill="black"/><path d="M925 1150C1049.2 1150 1150 1049.2 1150 925C1150 800.8 1049.2 700 925 700C800.8 700 700 800.8 700 925C700 1049.2 800.8 1150 925 1150ZM902.5 812.5H947.5V947.5H902.5V812.5ZM902.5 992.5H947.5V1037.5H902.5V992.5Z" fill="black"/></svg>