<svg width="1200" height="1200" viewBox="0 0 1200 1200" fill="none" xmlns="http://www.w3.org/2000/svg"><path fill-rule="evenodd" d="M1000 200H200C144.5 200 100.5 244.5 100.5 300L100 900C100 955.5 144.5 1000 200 1000H660.35C653.61 976.16 650 951 650 925C650 773.12 773.12 650 925 650C991.48 650 1052.455 673.59 1100 712.86V300C1100 244.5 1055.5 200 1000 200ZM750 575C750 726.88 626.88 850 475 850C323.122 850 200 726.88 200 575C200 423.121 323.122 300 475 300C626.88 300 750 423.121 750 575Z" fill="#1D1E23"/><path fill-rule="evenodd" d="M1150 925C1150 1049.265 1049.265 1150 925 1150C800.735 1150 700 1049.265 700 925C700 800.735 800.735 700 925 700C1049.265 700 1150 800.735 1150 925ZM887.63 974.695L834.04 921.105C822.395 909.455 803.425 909.455 791.775 921.105C780.125 932.75 780.125 951.72 791.775 963.37L863.665 1035.265C876.645 1048.245 897.61 1048.245 910.59 1035.265L1058.23 887.63C1069.875 875.98 1069.875 857.01 1058.23 845.365C1046.58 833.715 1027.61 833.715 1015.965 845.365L887.63 974.695Z" fill="#1D1E23"/><path d="M470.559 400H472.654C486.625 400 497.802 410.796 497.802 424.291V577.455L632.965 655.05C645.19 661.8 649.03 676.98 641.695 688.45C634.71 699.92 619.345 703.295 607.47 696.545L462.526 612.54C451.699 606.47 445.413 595.335 445.413 583.53V424.291C445.413 410.796 456.588 400 470.559 400Z" fill="#1D1E23"/></svg>