<svg viewBox="0 0 2400 2400" fill="none" xmlns="http://www.w3.org/2000/svg"><path d="M1131.073 404.450 C 896.200 427.104,674.995 566.972,555.935 768.110 L 535.268 803.024 490.682 811.907 C 379.456 834.068,286.567 879.902,205.320 952.713 C 119.047 1030.029,66.281 1109.835,30.270 1217.468 C 5.908 1290.284,3.020 1312.896,5.034 1415.082 C 7.037 1516.695,10.809 1536.634,44.165 1621.946 C 89.893 1738.905,186.846 1850.120,303.579 1919.521 C 340.271 1941.336,430.762 1977.417,471.980 1986.667 C 512.429 1995.744,778.363 1999.457,1408.635 1999.745 L 1967.270 2000.000 2015.037 1986.118 C 2104.070 1960.245,2159.175 1932.398,2217.009 1884.055 C 2301.478 1813.446,2362.442 1716.101,2386.134 1614.000 C 2402.281 1544.414,2401.217 1446.825,2383.539 1376.064 C 2364.230 1298.774,2319.076 1220.595,2257.301 1157.500 C 2178.205 1076.713,2107.244 1037.649,1997.494 1014.477 C 1971.158 1008.916,1946.885 1003.321,1943.555 1002.043 C 1939.923 1000.650,1929.926 976.046,1918.583 940.585 C 1875.872 807.063,1818.566 710.999,1727.642 620.507 C 1570.255 463.867,1348.334 383.495,1131.073 404.450 M1322.000 615.638 C 1391.750 632.612,1474.843 670.427,1524.165 707.644 C 1558.279 733.385,1633.652 811.439,1653.905 842.000 C 1677.498 877.599,1710.744 945.633,1722.320 982.000 C 1735.062 1022.030,1742.770 1074.270,1746.290 1144.456 L 1749.022 1198.913 1839.511 1201.704 C 1942.872 1204.891,1976.372 1208.950,2009.342 1222.280 C 2042.281 1235.598,2096.002 1272.378,2117.598 1296.398 C 2143.147 1324.814,2170.858 1370.619,2183.270 1404.952 C 2193.020 1431.918,2193.769 1438.730,2193.721 1500.000 C 2193.675 1558.307,2192.608 1569.031,2184.564 1592.000 C 2174.155 1621.724,2149.292 1665.799,2128.326 1691.695 C 2091.201 1737.550,2017.160 1782.557,1962.000 1792.800 C 1939.706 1796.940,1790.949 1798.000,1232.000 1798.000 L 530.000 1798.000 490.000 1784.527 C 419.424 1760.755,373.958 1733.757,324.563 1686.289 C 275.890 1639.513,241.218 1583.545,217.920 1514.142 C 207.836 1484.100,207.616 1481.170,208.793 1392.679 L 210.000 1302.000 225.473 1264.000 C 248.513 1207.416,274.090 1166.754,311.442 1127.327 C 357.351 1078.867,415.799 1041.628,479.779 1020.075 C 506.347 1011.124,595.633 1000.114,642.214 1000.043 L 670.429 1000.000 687.116 956.896 C 740.454 819.123,850.963 704.240,988.147 643.950 C 1024.656 627.905,1080.505 612.207,1116.000 608.013 C 1165.495 602.164,1284.777 606.579,1322.000 615.638 " fill="#1D1E23" stroke="none" fill-rule="evenodd"/></svg>