<svg viewBox="0 0 2400 2400" fill="none" xmlns="http://www.w3.org/2000/svg"><path d="M369.159 456.812 L 300.347 525.624 432.477 658.901 C 505.149 732.204,563.872 794.388,562.974 797.089 C 562.014 799.974,540.209 805.565,510.114 810.641 C 338.352 839.615,200.856 926.270,103.740 1066.752 C 74.914 1108.451,50.538 1159.444,30.004 1221.001 C 5.754 1293.701,2.784 1317.377,5.070 1419.770 C 6.783 1496.507,8.116 1509.973,17.175 1542.085 C 47.466 1649.452,96.262 1735.122,171.462 1812.958 C 256.929 1901.422,332.914 1946.110,462.104 1983.887 L 517.208 2000.000 1145.575 2000.000 L 1773.942 2000.000 1874.007 2100.007 L 1974.072 2200.014 2044.013 2129.987 L 2113.954 2059.961 1277.980 1223.980 C 818.195 764.191,441.099 388.000,439.989 388.000 C 438.879 388.000,407.006 418.965,369.159 456.812 M1094.525 410.033 C 1021.644 421.898,942.158 446.843,866.195 481.689 L 834.389 496.279 888.195 550.537 C 917.788 580.379,952.319 613.513,964.931 624.167 L 987.862 643.539 1022.629 631.787 C 1082.734 611.470,1108.219 608.000,1197.307 608.000 C 1291.771 608.000,1331.282 613.427,1383.425 633.565 C 1468.988 666.609,1521.038 700.482,1586.450 765.689 C 1636.200 815.283,1666.051 857.674,1695.919 921.146 C 1729.674 992.879,1740.864 1042.975,1746.239 1146.413 L 1748.962 1198.825 1829.481 1201.573 C 1873.766 1203.084,1926.057 1206.101,1945.681 1208.276 C 2008.474 1215.238,2055.214 1239.595,2110.185 1294.000 C 2164.658 1347.913,2188.282 1398.264,2194.197 1473.057 C 2198.426 1526.533,2191.144 1574.111,2172.710 1613.448 C 2153.629 1654.167,2131.228 1687.737,2102.258 1719.028 L 2080.473 1742.558 2150.507 1812.279 L 2220.540 1882.000 2248.344 1852.546 C 2312.627 1784.447,2354.545 1714.599,2380.701 1632.000 L 2394.000 1590.000 2393.934 1500.000 C 2393.860 1399.838,2392.520 1391.778,2363.607 1317.595 C 2343.104 1264.990,2308.562 1213.123,2261.100 1163.675 C 2182.483 1081.767,2106.520 1038.570,2002.000 1016.332 C 1934.779 1002.031,1940.919 1008.080,1914.382 930.000 C 1872.814 807.690,1836.901 743.970,1757.225 651.157 C 1657.685 535.204,1491.508 442.843,1330.000 413.707 C 1279.176 404.538,1141.471 402.390,1094.525 410.033 M1174.000 1400.000 L 1573.985 1800.000 1057.102 1800.000 L 540.219 1800.000 497.109 1785.539 C 365.768 1741.480,283.181 1667.698,231.798 1548.514 C 211.310 1500.993,208.000 1479.103,208.000 1391.139 C 208.000 1325.263,209.055 1312.608,216.361 1290.874 C 248.130 1196.362,308.020 1116.389,384.000 1067.021 C 466.608 1013.346,520.197 1002.295,706.008 1000.615 L 774.015 1000.000 1174.000 1400.000 " fill="#1D1E23" stroke="none" fill-rule="evenodd"/></svg>