<svg viewBox="0 0 2400 2400" fill="none" xmlns="http://www.w3.org/2000/svg"><path d="M1094.525 410.292 C 1023.361 421.359,942.796 446.551,866.195 481.689 L 834.389 496.279 888.195 550.537 C 917.788 580.379,952.319 613.513,964.931 624.167 L 987.862 643.539 1022.629 631.787 C 1082.734 611.470,1108.219 608.000,1197.307 608.000 C 1291.771 608.000,1331.282 613.427,1383.425 633.565 C 1468.988 666.609,1521.038 700.482,1586.450 765.689 C 1636.200 815.283,1666.051 857.674,1695.919 921.146 C 1729.674 992.879,1740.864 1042.975,1746.239 1146.413 L 1748.962 1198.825 1829.481 1201.573 C 1873.766 1203.084,1926.057 1206.101,1945.681 1208.276 C 2008.474 1215.238,2055.214 1239.595,2110.185 1294.000 C 2164.658 1347.913,2188.282 1398.264,2194.197 1473.057 C 2198.426 1526.533,2191.144 1574.111,2172.710 1613.448 C 2153.629 1654.167,2131.228 1687.737,2102.258 1719.028 L 2080.473 1742.558 2150.507 1812.279 L 2220.540 1882.000 2248.344 1852.546 C 2312.627 1784.447,2354.545 1714.599,2380.701 1632.000 L 2394.000 1590.000 2393.934 1500.000 C 2393.860 1399.838,2392.520 1391.778,2363.607 1317.595 C 2343.104 1264.990,2308.562 1213.123,2261.100 1163.675 C 2181.414 1080.654,2111.630 1041.153,2000.061 1015.917 C 1960.341 1006.933,1948.398 1002.617,1941.699 994.830 C 1937.068 989.445,1924.861 960.360,1914.574 930.196 C 1890.375 859.238,1863.179 798.992,1835.037 754.000 C 1717.408 565.941,1524.255 441.998,1298.881 409.958 C 1247.996 402.724,1142.074 402.897,1094.525 410.292 M414.854 433.750 C 375.189 444.290,348.743 478.831,345.129 524.816 C 343.222 549.091,343.747 550.889,359.654 574.622 C 368.731 588.164,421.053 645.058,475.925 701.052 L 575.692 802.859 530.074 807.484 C 385.177 822.174,253.639 892.015,147.864 1010.422 C 83.885 1082.043,38.056 1170.667,13.634 1270.000 C 5.176 1304.403,1.282 1453.813,7.778 1494.679 C 27.659 1619.741,105.509 1758.170,201.916 1839.885 C 285.669 1910.874,367.208 1952.083,491.682 1986.331 L 541.364 2000.000 1157.776 2000.000 L 1774.188 2000.000 1806.094 2032.417 C 1856.187 2083.313,1919.491 2139.578,1936.321 2148.164 C 1955.855 2158.129,1988.575 2158.295,2010.000 2148.537 C 2027.167 2140.719,2051.610 2116.093,2061.841 2096.308 C 2065.302 2089.614,2069.211 2076.284,2070.526 2066.684 C 2074.031 2041.118,2063.120 2020.862,2019.528 1972.000 C 1971.272 1917.911,712.847 658.803,585.166 536.860 C 531.907 485.994,483.307 441.842,477.166 438.745 C 459.972 430.072,435.942 428.146,414.854 433.750 M1174.008 1400.032 L 1574.000 1800.064 1048.000 1799.032 L 522.000 1798.000 478.072 1780.920 C 453.911 1771.526,421.329 1756.509,405.667 1747.548 C 339.112 1709.468,278.682 1644.590,244.180 1574.174 C 211.422 1507.320,210.657 1503.857,208.857 1414.249 C 207.032 1323.417,209.706 1303.834,230.829 1253.374 C 286.560 1120.242,408.380 1023.889,540.762 1008.235 C 583.686 1003.159,611.733 1001.897,706.008 1000.795 L 774.015 1000.000 1174.008 1400.032 " fill="#1D1E23" stroke="none" fill-rule="evenodd"/></svg>