<svg viewBox="0 0 2400 2400" fill="none" xmlns="http://www.w3.org/2000/svg"><path d="M1140.000 404.667 C 956.587 421.943,776.338 509.636,653.717 641.249 C 617.996 679.590,576.111 734.498,552.492 773.947 L 535.760 801.893 476.880 816.311 C 346.969 848.122,266.605 893.107,173.912 985.901 C 131.046 1028.814,91.576 1081.421,69.374 1125.235 C 53.736 1156.096,25.603 1230.386,15.312 1268.000 C 6.783 1299.169,6.018 1309.828,6.117 1396.000 C 6.236 1499.435,10.014 1527.053,32.929 1592.000 C 87.839 1747.634,216.399 1885.112,367.506 1949.789 C 432.986 1977.815,472.249 1987.834,533.252 1992.084 C 564.926 1994.291,894.869 1997.103,1280.000 1998.450 L 1970.000 2000.864 2030.562 1980.843 C 2136.232 1945.909,2181.693 1918.487,2254.000 1846.064 C 2296.733 1803.262,2321.384 1769.317,2346.998 1718.000 C 2390.848 1630.150,2404.370 1542.747,2391.696 1429.087 C 2380.059 1324.729,2325.531 1223.015,2235.889 1138.450 C 2163.914 1070.553,2113.302 1045.019,1984.204 1011.475 C 1962.646 1005.874,1947.409 999.458,1942.126 993.758 C 1937.571 988.843,1925.073 959.887,1914.352 929.411 C 1878.454 827.363,1850.198 771.759,1800.268 704.915 C 1709.504 583.402,1577.964 489.441,1430.000 440.425 C 1370.397 420.680,1338.026 414.037,1263.114 406.178 C 1198.955 399.447,1195.827 399.408,1140.000 404.667 M1400.000 1100.000 L 1400.000 1300.000 1550.988 1300.000 L 1701.976 1300.000 1451.988 1550.169 L 1202.000 1800.338 961.000 1558.438 C 828.450 1425.394,720.000 1314.561,720.000 1312.144 C 720.000 1309.727,722.250 1307.020,725.000 1306.129 C 727.750 1305.238,790.750 1303.286,865.000 1301.791 L 1000.000 1299.074 1000.000 1099.537 L 1000.000 900.000 1200.000 900.000 L 1400.000 900.000 1400.000 1100.000 " fill="#1D1E23" stroke="none" fill-rule="evenodd"/></svg>