<svg viewBox="0 0 2400 2400" fill="none" xmlns="http://www.w3.org/2000/svg"><path d="M368.967 457.032 L 300.020 526.064 435.922 661.922 C 522.263 748.235,570.033 798.752,566.912 800.446 C 564.210 801.912,545.800 805.196,526.000 807.742 C 347.464 830.708,198.602 924.045,96.140 1077.266 C 59.717 1131.733,25.073 1217.640,9.892 1291.139 C 0.966 1334.349,1.055 1465.903,10.040 1510.043 C 42.175 1667.922,139.298 1811.762,274.000 1900.971 C 331.524 1939.068,383.569 1961.992,464.559 1984.908 L 510.000 1997.765 1142.000 1998.971 L 1774.000 2000.178 1874.036 2100.096 L 1974.072 2200.014 2044.013 2129.987 L 2113.954 2059.961 1277.980 1223.980 C 818.195 764.191,441.086 388.000,439.961 388.000 C 438.835 388.000,406.888 419.064,368.967 457.032 M1139.085 404.330 C 1059.442 410.639,958.703 438.586,874.168 477.821 L 834.387 496.284 892.194 554.551 C 923.987 586.597,958.568 619.720,969.040 628.156 L 988.081 643.496 1015.811 634.064 C 1088.850 609.222,1107.981 606.349,1200.000 606.406 C 1297.625 606.467,1330.111 611.730,1397.134 638.342 C 1471.961 668.053,1518.011 698.032,1577.516 755.774 C 1633.384 809.987,1654.101 837.565,1685.823 899.948 C 1729.216 985.285,1741.240 1033.775,1746.588 1145.000 L 1749.232 1200.000 1787.616 1200.095 C 1808.727 1200.148,1857.959 1201.889,1897.020 1203.964 C 1955.363 1207.064,1973.044 1209.477,1996.068 1217.485 C 2053.781 1237.555,2116.244 1286.391,2149.850 1337.716 C 2185.868 1392.726,2198.391 1443.380,2194.925 1520.036 C 2193.160 1559.071,2190.919 1571.061,2180.195 1598.870 C 2164.756 1638.903,2137.258 1681.811,2104.809 1716.498 L 2080.452 1742.537 2150.138 1812.138 L 2219.825 1881.739 2234.240 1867.870 C 2259.076 1843.974,2302.217 1791.220,2321.928 1760.640 C 2352.969 1712.485,2375.196 1659.187,2390.592 1596.000 C 2399.534 1559.295,2399.309 1445.406,2390.209 1402.663 C 2369.499 1305.387,2325.591 1225.511,2253.005 1153.064 C 2177.137 1077.342,2097.286 1034.224,1995.790 1014.174 C 1934.426 1002.052,1939.474 1006.240,1922.592 953.455 C 1881.397 824.654,1843.049 752.624,1767.736 662.579 C 1673.587 550.015,1531.685 462.729,1379.789 423.946 C 1310.777 406.326,1213.723 398.416,1139.085 404.330 M1174.000 1400.000 L 1573.985 1800.000 1057.222 1800.000 L 540.459 1800.000 497.757 1786.012 C 421.610 1761.068,373.810 1733.537,324.563 1686.260 C 286.766 1649.974,264.773 1619.022,240.140 1567.447 C 210.201 1504.764,206.152 1483.915,206.456 1394.000 C 206.698 1322.515,207.346 1316.153,217.361 1286.902 C 257.064 1170.948,335.452 1082.018,438.866 1035.609 C 500.392 1007.997,546.323 1001.744,696.008 1000.597 L 774.015 1000.000 1174.000 1400.000 " fill="#1D1E23" stroke="none" fill-rule="evenodd"/></svg>