<svg viewBox="0 0 2400 2400" fill="none" xmlns="http://www.w3.org/2000/svg"><path d="M1143.592 404.208 C 997.704 414.702,845.824 476.473,724.000 574.860 C 660.834 625.874,595.331 701.592,554.394 770.919 L 535.597 802.751 492.798 811.852 C 367.296 838.542,276.592 885.820,187.981 970.730 C 132.917 1023.495,98.816 1068.409,68.428 1128.192 C 42.307 1179.580,14.109 1261.179,8.093 1302.787 C 2.887 1338.797,2.949 1436.909,8.211 1488.187 C 17.251 1576.281,62.042 1680.481,125.791 1761.720 C 195.258 1850.248,282.852 1916.677,382.000 1956.024 C 450.914 1983.372,471.196 1988.233,534.000 1992.456 C 568.293 1994.761,888.132 1997.447,1280.496 1998.724 L 1966.993 2000.958 2025.106 1982.487 C 2096.946 1959.653,2127.275 1946.191,2170.795 1917.823 C 2212.698 1890.510,2275.092 1830.586,2305.269 1788.674 C 2349.888 1726.703,2382.112 1649.569,2392.153 1580.701 C 2400.043 1526.580,2395.264 1422.971,2382.659 1374.891 C 2362.139 1296.621,2319.898 1224.253,2256.693 1159.081 C 2177.156 1077.068,2120.353 1045.137,2002.533 1016.208 C 1933.894 999.354,1941.005 1006.030,1916.740 935.658 C 1895.955 875.381,1874.617 824.132,1856.924 792.000 C 1750.321 598.393,1562.199 460.941,1342.333 416.012 C 1309.477 409.299,1204.313 398.668,1190.000 400.614 C 1187.800 400.913,1166.916 402.531,1143.592 404.208 M1222.400 831.342 C 1266.131 863.135,1686.000 1281.215,1686.000 1292.967 C 1686.000 1296.898,1654.682 1298.230,1543.000 1299.051 L 1400.000 1300.101 1400.000 1500.051 L 1400.000 1700.000 1200.000 1700.000 L 1000.000 1700.000 1000.000 1500.000 L 1000.000 1300.000 851.000 1299.826 L 702.000 1299.651 931.878 1071.215 C 1058.310 945.575,1168.830 837.653,1177.478 831.389 C 1197.099 817.176,1202.906 817.169,1222.400 831.342 " fill="#1D1E23" stroke="none" fill-rule="evenodd"/></svg>