<svg viewBox="0 0 2400 2400" fill="none" xmlns="http://www.w3.org/2000/svg"><path d="M369.250 456.721 L 300.530 525.441 424.608 651.385 C 492.851 720.654,551.539 781.683,555.027 787.006 C 563.578 800.056,560.715 801.465,504.286 811.979 C 285.914 852.666,118.924 988.265,42.046 1187.328 C 13.106 1262.263,7.348 1290.766,5.141 1370.000 C 2.509 1464.517,7.711 1513.955,26.186 1570.000 C 53.514 1652.897,89.558 1717.510,145.114 1783.190 C 225.712 1878.475,308.416 1932.970,439.000 1976.837 L 502.000 1998.000 1138.000 1999.042 L 1774.000 2000.084 1874.036 2100.049 L 1974.072 2200.014 2044.013 2129.987 L 2113.954 2059.961 1277.980 1223.980 C 818.195 764.191,441.099 388.000,439.989 388.000 C 438.879 388.000,407.047 418.924,369.250 456.721 M1128.000 408.131 C 1080.477 411.361,1043.935 418.648,986.000 436.450 C 947.023 448.427,871.961 477.609,847.213 490.407 L 834.895 496.777 884.448 546.668 C 911.701 574.108,945.841 607.145,960.314 620.083 L 986.628 643.607 1029.217 629.797 C 1085.036 611.697,1135.074 606.430,1226.000 609.084 C 1309.579 611.523,1343.841 617.678,1398.793 640.123 C 1527.204 692.572,1634.604 793.574,1693.575 917.345 C 1727.217 987.955,1740.152 1045.384,1746.085 1150.484 L 1748.822 1198.968 1823.411 1201.757 C 1966.482 1207.107,2002.048 1214.203,2052.493 1247.464 C 2095.915 1276.094,2145.299 1328.131,2164.803 1365.808 C 2197.669 1429.294,2204.042 1524.121,2180.117 1593.661 C 2168.876 1626.333,2138.207 1676.258,2107.408 1712.022 L 2080.816 1742.901 2150.710 1812.451 L 2220.604 1882.000 2246.641 1854.000 C 2310.084 1785.775,2350.761 1718.683,2379.687 1634.555 L 2396.000 1587.111 2395.865 1526.555 C 2395.658 1433.486,2390.756 1392.011,2374.730 1347.737 C 2340.257 1252.504,2287.046 1178.436,2206.561 1113.651 C 2143.704 1063.056,2094.618 1039.593,2006.000 1017.781 C 1963.185 1007.244,1948.059 1001.799,1941.755 994.654 C 1937.221 989.515,1924.854 960.304,1914.274 929.741 C 1872.856 810.096,1834.392 740.975,1763.059 658.000 C 1667.223 546.524,1521.024 459.515,1366.000 421.695 C 1336.780 414.567,1306.057 410.877,1252.000 408.005 C 1211.300 405.842,1176.200 404.343,1174.000 404.675 C 1171.800 405.006,1151.100 406.561,1128.000 408.131 M1174.000 1400.000 L 1573.985 1800.000 1057.778 1800.000 L 541.572 1800.000 500.257 1786.086 C 371.800 1742.827,298.508 1681.207,242.493 1569.376 C 212.265 1509.026,210.211 1498.161,210.099 1398.000 C 209.988 1299.047,210.911 1294.277,242.221 1232.000 C 303.975 1109.169,408.060 1029.327,532.000 1009.715 C 557.634 1005.658,643.847 1001.352,714.008 1000.623 L 774.015 1000.000 1174.000 1400.000 " fill="#1D1E23" stroke="none" fill-rule="evenodd"/></svg>