<svg viewBox="0 0 2400 2400" fill="none" xmlns="http://www.w3.org/2000/svg"><path d="M1120.428 404.572 C 887.840 428.885,665.621 572.473,553.819 770.691 L 535.380 803.382 506.690 807.984 C 258.084 847.862,66.923 1031.073,11.097 1282.966 C -1.418 1339.433,-1.320 1460.201,11.287 1517.362 C 24.210 1575.959,41.652 1624.408,68.362 1675.906 C 153.048 1839.180,302.792 1950.472,492.000 1990.760 C 524.094 1997.594,566.464 1998.000,1248.000 1998.000 L 1970.000 1998.000 2013.096 1987.054 C 2112.474 1961.813,2191.414 1916.833,2258.361 1847.302 C 2324.148 1778.976,2363.265 1707.678,2386.858 1613.096 C 2396.282 1575.314,2397.632 1561.862,2397.804 1504.000 C 2398.078 1411.773,2384.826 1353.101,2346.633 1277.443 C 2276.414 1138.342,2137.354 1034.813,1989.901 1011.858 C 1931.012 1002.691,1936.348 1006.526,1925.938 965.893 C 1833.115 603.609,1491.787 365.754,1120.428 404.572 M1563.675 951.834 C 1581.400 960.877,1602.737 984.000,1610.500 1002.581 C 1618.722 1022.258,1617.343 1062.626,1607.720 1084.000 C 1601.495 1097.827,1537.292 1164.328,1330.808 1370.829 C 1039.820 1661.840,1044.927 1657.389,1001.821 1657.611 C 960.642 1657.822,955.738 1654.071,823.218 1520.993 C 687.861 1385.067,689.363 1387.159,692.821 1339.354 C 695.000 1309.235,711.471 1282.379,737.716 1266.153 C 753.633 1256.312,762.511 1253.827,785.976 1252.642 C 828.432 1250.498,837.759 1256.582,924.980 1343.318 L 999.960 1417.882 1232.980 1185.260 C 1447.951 970.656,1467.549 952.153,1486.000 946.376 C 1510.353 938.750,1542.450 941.006,1563.675 951.834 " fill="#1D1E23" stroke="none" fill-rule="evenodd"/></svg>