<svg viewBox="0 0 2400 2400" fill="none" xmlns="http://www.w3.org/2000/svg"><path d="M1139.085 404.305 C 1059.338 410.668,958.651 438.610,874.168 477.821 L 834.387 496.284 892.194 554.551 C 923.987 586.597,958.568 619.720,969.040 628.156 L 988.081 643.496 1015.811 634.064 C 1088.850 609.222,1107.981 606.349,1200.000 606.406 C 1297.625 606.467,1330.111 611.730,1397.134 638.342 C 1471.961 668.053,1518.011 698.032,1577.516 755.774 C 1633.384 809.987,1654.101 837.565,1685.823 899.948 C 1729.216 985.285,1741.240 1033.775,1746.588 1145.000 L 1749.232 1200.000 1787.616 1200.095 C 1808.727 1200.148,1857.959 1201.889,1897.020 1203.964 C 1955.363 1207.064,1973.044 1209.477,1996.068 1217.485 C 2053.781 1237.555,2116.244 1286.391,2149.850 1337.716 C 2185.868 1392.726,2198.391 1443.380,2194.925 1520.036 C 2193.160 1559.071,2190.919 1571.061,2180.195 1598.870 C 2164.756 1638.903,2137.258 1681.811,2104.809 1716.498 L 2080.452 1742.537 2150.138 1812.138 L 2219.825 1881.739 2234.240 1867.870 C 2259.076 1843.974,2302.217 1791.220,2321.928 1760.640 C 2352.969 1712.485,2375.196 1659.187,2390.592 1596.000 C 2399.534 1559.295,2399.309 1445.406,2390.209 1402.663 C 2369.499 1305.387,2325.591 1225.511,2253.005 1153.064 C 2177.137 1077.342,2097.286 1034.224,1995.790 1014.174 C 1933.903 1001.948,1940.379 1008.069,1918.449 941.083 C 1877.829 817.014,1838.955 746.137,1762.000 655.834 C 1615.372 483.774,1372.451 385.684,1139.085 404.305 M405.140 436.195 C 367.234 451.204,344.000 487.573,344.000 531.900 C 344.000 565.548,353.915 577.886,497.131 722.452 L 576.831 802.903 540.415 805.752 C 406.138 816.256,278.819 877.045,175.750 979.863 C 96.011 1059.408,47.210 1144.477,17.340 1256.000 C 8.352 1289.560,6.926 1304.282,5.136 1382.000 C 3.495 1453.313,4.360 1476.652,9.699 1505.080 C 33.623 1632.456,106.185 1759.059,202.000 1840.598 C 287.680 1913.512,377.182 1957.853,503.111 1989.775 L 543.450 2000.000 1158.167 2000.000 L 1772.884 2000.000 1844.402 2069.624 C 1922.973 2146.114,1940.386 2157.891,1974.205 2157.414 C 1999.408 2157.059,2018.698 2148.096,2039.520 2127.066 C 2066.968 2099.344,2076.819 2068.753,2068.386 2037.434 C 2065.119 2025.301,2052.276 2008.109,2019.139 1971.510 C 1962.408 1908.852,1019.066 962.868,723.769 672.512 C 601.542 552.331,494.187 448.940,485.202 442.756 C 462.891 427.400,433.447 424.987,405.140 436.195 M1174.008 1400.042 L 1574.000 1800.083 1050.000 1799.042 L 526.000 1798.000 488.000 1784.509 C 417.345 1759.426,372.831 1732.674,324.563 1686.289 C 276.043 1639.660,241.213 1583.528,218.127 1514.758 C 208.561 1486.261,208.000 1479.901,208.000 1400.000 C 208.000 1320.371,208.587 1313.663,218.005 1285.607 C 263.275 1150.748,365.886 1050.906,495.875 1015.233 C 530.934 1005.612,588.216 1001.423,696.008 1000.597 L 774.015 1000.000 1174.008 1400.042 " fill="#1D1E23" stroke="none" fill-rule="evenodd"/></svg>