<svg viewBox="0 0 2400 2400" fill="none" xmlns="http://www.w3.org/2000/svg"><path d="M1124.428 404.572 C 890.503 429.024,670.026 570.064,555.476 768.533 L 535.544 803.067 498.772 809.668 C 372.572 832.322,268.739 886.676,177.742 977.718 C 105.849 1049.647,61.971 1120.623,30.432 1216.000 C 6.635 1287.968,2.861 1313.150,2.861 1400.000 C 2.861 1484.918,6.386 1509.428,28.744 1580.000 C 58.137 1672.779,105.978 1750.537,177.742 1822.170 C 248.923 1893.223,321.579 1938.143,416.086 1969.531 C 504.806 1998.996,438.242 1996.628,1240.000 1998.846 L 1962.000 2000.843 2002.000 1989.948 C 2115.016 1959.164,2182.426 1922.073,2252.249 1852.249 C 2334.520 1769.979,2385.732 1663.615,2396.242 1553.185 C 2401.102 1502.128,2395.237 1417.941,2383.745 1373.795 C 2362.614 1292.618,2317.934 1216.935,2252.503 1151.485 C 2174.198 1073.159,2095.036 1031.448,1988.160 1012.204 C 1962.968 1007.667,1940.886 1002.486,1939.090 1000.690 C 1937.294 998.894,1928.775 974.154,1920.160 945.712 C 1901.272 883.355,1886.269 846.420,1859.344 796.000 C 1717.557 530.482,1422.632 373.401,1124.428 404.572 M1400.000 1100.000 L 1400.000 1300.000 1551.000 1300.073 L 1702.000 1300.146 1478.000 1523.370 C 1354.800 1646.143,1243.936 1754.110,1231.637 1763.296 C 1219.286 1772.521,1204.779 1780.000,1199.237 1780.000 C 1193.717 1780.000,1181.280 1774.282,1171.600 1767.294 C 1161.920 1760.305,1051.400 1652.350,926.000 1527.393 L 698.000 1300.198 849.000 1300.099 L 1000.000 1300.000 1000.000 1100.000 L 1000.000 900.000 1200.000 900.000 L 1400.000 900.000 1400.000 1100.000 " fill="#1D1E23" stroke="none" fill-rule="evenodd"/></svg>