<svg viewBox="0 0 2400 2400" fill="none" xmlns="http://www.w3.org/2000/svg"><path d="M1126.000 404.706 C 1047.703 412.596,958.028 438.353,877.337 476.127 L 834.348 496.252 896.174 558.544 C 930.178 592.805,964.757 625.857,973.015 631.994 L 988.031 643.153 1031.015 629.139 C 1054.657 621.432,1087.500 612.685,1104.000 609.702 C 1139.240 603.332,1245.752 602.417,1286.000 608.139 C 1370.373 620.135,1460.293 658.236,1530.000 711.527 C 1561.895 735.910,1617.299 792.002,1643.385 826.320 C 1673.883 866.442,1717.852 957.288,1729.929 1005.132 C 1739.719 1043.917,1748.000 1120.357,1748.000 1171.946 L 1748.000 1198.730 1848.212 1201.453 C 1959.864 1204.486,1977.113 1206.996,2019.361 1226.358 C 2104.373 1265.317,2167.465 1339.140,2189.846 1425.840 C 2199.508 1463.270,2198.287 1549.446,2187.645 1581.126 C 2171.536 1629.080,2145.327 1673.406,2112.050 1708.973 L 2080.553 1742.638 2150.525 1812.319 L 2220.497 1882.000 2254.328 1846.738 C 2327.137 1770.851,2372.979 1684.316,2392.454 1586.000 C 2400.638 1544.682,2399.544 1446.429,2390.429 1404.162 C 2368.129 1300.759,2328.045 1227.391,2252.380 1151.485 C 2174.550 1073.408,2094.788 1031.404,1987.761 1012.132 C 1962.788 1007.635,1940.836 1002.436,1938.977 1000.577 C 1937.119 998.719,1929.373 976.236,1921.764 950.615 C 1888.062 837.134,1842.222 750.584,1770.636 665.270 C 1615.030 479.826,1368.679 380.250,1126.000 404.706 M415.974 431.737 C 369.832 445.773,344.249 480.108,344.088 528.217 C 344.013 550.680,345.754 557.200,356.252 573.754 C 362.991 584.380,415.217 640.261,472.310 697.934 L 576.115 802.794 540.122 805.349 C 446.564 811.990,353.247 845.049,268.173 901.692 C 135.250 990.193,43.776 1125.534,11.640 1281.246 C 0.345 1335.979,-0.571 1456.682,9.921 1508.000 C 38.587 1648.214,112.133 1769.872,220.352 1856.086 C 303.625 1922.427,382.618 1960.049,497.900 1988.273 L 545.799 2000.000 1159.965 2000.000 L 1774.130 2000.000 1820.065 2046.418 C 1845.329 2071.948,1880.943 2106.039,1899.207 2122.177 C 1927.397 2147.086,1935.706 2152.202,1954.207 2156.043 C 1985.837 2162.609,2014.606 2153.604,2038.575 2129.636 C 2069.222 2098.988,2078.233 2067.730,2067.115 2030.624 C 2060.230 2007.645,1951.323 1896.438,1253.343 1199.671 C 541.166 488.732,489.109 437.795,469.022 432.216 C 451.911 427.465,430.652 427.273,415.974 431.737 M1174.000 1400.000 L 1573.985 1800.000 1057.820 1800.000 L 541.654 1800.000 505.827 1789.692 C 361.051 1748.037,259.713 1649.754,215.382 1508.000 C 206.845 1480.702,206.003 1470.794,206.036 1398.000 C 206.072 1318.299,206.121 1317.862,218.923 1281.110 C 242.891 1212.307,275.038 1160.862,323.233 1114.180 C 365.869 1072.884,407.858 1046.234,462.973 1025.489 C 516.625 1005.294,550.916 1001.394,682.008 1000.575 L 774.015 1000.000 1174.000 1400.000 " fill="#1D1E23" stroke="none" fill-rule="evenodd"/></svg>