<svg viewBox="0 0 2400 2400" fill="none" xmlns="http://www.w3.org/2000/svg"><path d="M368.967 457.032 L 300.020 526.064 436.010 662.010 C 510.804 736.780,572.000 798.925,572.000 800.110 C 572.000 801.295,551.750 804.439,527.000 807.096 C 329.523 828.301,152.901 954.047,60.151 1139.468 C 44.390 1170.978,18.810 1247.289,9.693 1290.000 C 0.007 1335.373,0.060 1465.049,9.783 1510.000 C 36.902 1635.375,90.268 1734.537,177.830 1822.258 C 265.768 1910.357,357.077 1959.379,493.316 1991.638 C 528.351 1999.934,533.572 2000.000,1151.287 2000.000 L 1773.942 2000.000 1874.007 2100.007 L 1974.072 2200.014 2044.013 2129.987 L 2113.954 2059.961 1277.980 1223.980 C 818.195 764.191,441.086 388.000,439.961 388.000 C 438.835 388.000,406.888 419.064,368.967 457.032 M1126.000 404.706 C 1047.703 412.596,958.028 438.353,877.337 476.127 L 834.348 496.252 896.174 558.544 C 930.178 592.805,964.757 625.857,973.015 631.994 L 988.031 643.153 1031.015 629.139 C 1054.657 621.432,1087.500 612.685,1104.000 609.702 C 1139.240 603.332,1245.752 602.417,1286.000 608.139 C 1370.373 620.135,1460.293 658.236,1530.000 711.527 C 1561.895 735.910,1617.299 792.002,1643.385 826.320 C 1673.883 866.442,1717.852 957.288,1729.929 1005.132 C 1739.719 1043.917,1748.000 1120.357,1748.000 1171.946 L 1748.000 1198.730 1848.212 1201.453 C 1959.864 1204.486,1977.113 1206.996,2019.361 1226.358 C 2104.373 1265.317,2167.465 1339.140,2189.846 1425.840 C 2199.508 1463.270,2198.287 1549.446,2187.645 1581.126 C 2171.536 1629.080,2145.327 1673.406,2112.050 1708.973 L 2080.553 1742.638 2150.525 1812.319 L 2220.497 1882.000 2254.328 1846.738 C 2327.137 1770.851,2372.979 1684.316,2392.454 1586.000 C 2400.638 1544.682,2399.544 1446.429,2390.429 1404.162 C 2368.129 1300.759,2328.045 1227.391,2252.380 1151.485 C 2174.550 1073.408,2094.788 1031.404,1987.761 1012.132 C 1962.788 1007.635,1940.836 1002.436,1938.977 1000.577 C 1937.119 998.719,1929.373 976.236,1921.764 950.615 C 1888.258 837.793,1842.690 751.514,1771.445 666.000 C 1617.096 480.736,1368.837 380.234,1126.000 404.706 M1174.000 1400.000 L 1573.985 1800.000 1057.653 1800.000 L 541.321 1800.000 495.661 1785.602 C 379.083 1748.842,295.086 1680.274,246.353 1582.087 C 209.753 1508.346,202.106 1471.005,204.835 1379.332 C 206.489 1323.761,207.840 1314.535,219.217 1281.110 C 242.356 1213.132,274.756 1161.134,323.233 1114.180 C 365.869 1072.884,407.858 1046.234,462.973 1025.489 C 516.625 1005.294,550.916 1001.394,682.008 1000.575 L 774.015 1000.000 1174.000 1400.000 " fill="#1D1E23" stroke="none" fill-rule="evenodd"/></svg>