<svg viewBox="0 0 2400 2400" fill="none" xmlns="http://www.w3.org/2000/svg"><path d="M1131.073 404.450 C 896.200 427.104,674.995 566.972,555.935 768.110 L 535.268 803.024 490.682 811.907 C 379.456 834.068,286.567 879.902,205.320 952.713 C 119.047 1030.029,66.281 1109.835,30.270 1217.468 C 5.908 1290.284,3.020 1312.896,5.034 1415.082 C 7.037 1516.695,10.809 1536.634,44.165 1621.946 C 89.893 1738.905,186.846 1850.120,303.579 1919.521 C 340.271 1941.336,430.762 1977.417,471.980 1986.667 C 512.429 1995.744,778.363 1999.457,1408.635 1999.745 L 1967.270 2000.000 2015.037 1986.118 C 2104.070 1960.245,2159.175 1932.398,2217.009 1884.055 C 2301.478 1813.446,2362.442 1716.101,2386.134 1614.000 C 2402.281 1544.414,2401.217 1446.825,2383.539 1376.064 C 2364.230 1298.774,2319.076 1220.595,2257.301 1157.500 C 2178.205 1076.713,2107.244 1037.649,1997.494 1014.477 C 1971.158 1008.916,1946.885 1003.321,1943.555 1002.043 C 1939.923 1000.650,1929.926 976.046,1918.583 940.585 C 1875.872 807.063,1818.566 710.999,1727.642 620.507 C 1570.255 463.867,1348.334 383.495,1131.073 404.450 M1331.029 1370.971 L 1002.026 1699.992 827.011 1525.012 L 651.997 1350.031 721.991 1280.037 L 791.985 1210.043 896.005 1314.005 L 1000.025 1417.967 1258.990 1159.002 L 1517.956 900.037 1588.994 970.993 L 1660.033 1041.949 1331.029 1370.971 " fill="#1D1E23" stroke="none" fill-rule="evenodd"/></svg>