<svg viewBox="0 0 2400 2400" fill="none" xmlns="http://www.w3.org/2000/svg"><path d="M1120.428 404.572 C 887.840 428.885,665.621 572.473,553.819 770.691 L 535.380 803.382 506.690 807.984 C 258.084 847.862,66.923 1031.073,11.097 1282.966 C -1.418 1339.433,-1.320 1460.201,11.287 1517.362 C 24.210 1575.959,41.652 1624.408,68.362 1675.906 C 153.048 1839.180,302.792 1950.472,492.000 1990.760 C 524.094 1997.594,566.464 1998.000,1248.000 1998.000 L 1970.000 1998.000 2013.096 1987.054 C 2112.474 1961.813,2191.414 1916.833,2258.361 1847.302 C 2324.148 1778.976,2363.265 1707.678,2386.858 1613.096 C 2396.282 1575.314,2397.632 1561.862,2397.804 1504.000 C 2398.078 1411.773,2384.826 1353.101,2346.633 1277.443 C 2276.414 1138.342,2137.354 1034.813,1989.901 1011.858 C 1931.012 1002.691,1936.348 1006.526,1925.938 965.893 C 1833.115 603.609,1491.787 365.754,1120.428 404.572 M1550.014 1299.048 L 1400.000 1300.096 1400.000 1500.048 L 1400.000 1700.000 1200.000 1700.000 L 1000.000 1700.000 1000.000 1500.000 L 1000.000 1300.000 851.012 1300.000 L 702.024 1300.000 952.000 1050.000 L 1201.976 800.000 1451.002 1049.000 L 1700.028 1298.000 1550.014 1299.048 " fill="#1D1E23" stroke="none" fill-rule="evenodd"/></svg>