<svg viewBox="0 0 2400 2400" fill="none" xmlns="http://www.w3.org/2000/svg"><path d="M1124.428 404.572 C 890.503 429.024,670.026 570.064,555.476 768.533 L 535.544 803.067 498.772 809.668 C 372.572 832.322,268.739 886.676,177.742 977.718 C 105.849 1049.647,61.971 1120.623,30.432 1216.000 C 6.635 1287.968,2.861 1313.150,2.861 1400.000 C 2.861 1484.918,6.386 1509.428,28.744 1580.000 C 58.137 1672.779,105.978 1750.537,177.742 1822.170 C 248.923 1893.223,321.579 1938.143,416.086 1969.531 C 504.806 1998.996,438.242 1996.628,1240.000 1998.846 L 1962.000 2000.843 2002.000 1989.948 C 2115.016 1959.164,2182.426 1922.073,2252.249 1852.249 C 2334.520 1769.979,2385.732 1663.615,2396.242 1553.185 C 2401.102 1502.128,2395.237 1417.941,2383.745 1373.795 C 2362.614 1292.618,2317.934 1216.935,2252.503 1151.485 C 2174.198 1073.159,2095.036 1031.448,1988.160 1012.204 C 1962.968 1007.667,1940.886 1002.486,1939.090 1000.690 C 1937.294 998.894,1928.775 974.154,1920.160 945.712 C 1901.272 883.355,1886.269 846.420,1859.344 796.000 C 1717.557 530.482,1422.632 373.401,1124.428 404.572 M1298.459 610.192 C 1367.080 622.158,1448.053 655.081,1508.812 695.719 C 1545.844 720.488,1621.406 794.964,1648.667 833.566 C 1673.809 869.167,1707.649 936.096,1721.603 977.820 C 1736.541 1022.486,1743.194 1065.168,1746.392 1136.859 L 1749.155 1198.796 1850.460 1201.586 C 1959.398 1204.587,1979.360 1207.633,2022.918 1227.906 C 2088.791 1258.564,2141.318 1310.968,2171.787 1376.426 C 2190.708 1417.072,2196.000 1444.084,2196.000 1500.000 C 2196.000 1555.916,2190.708 1582.928,2171.787 1623.574 C 2138.501 1695.084,2079.466 1750.837,2005.803 1780.334 C 1980.568 1790.438,1966.889 1793.032,1922.795 1796.075 C 1893.758 1798.078,1571.122 1799.781,1205.827 1799.859 L 541.654 1800.000 505.827 1789.692 C 361.051 1748.037,259.713 1649.754,215.382 1508.000 C 206.845 1480.702,206.003 1470.794,206.036 1398.000 L 206.073 1318.000 219.292 1280.000 C 257.772 1169.391,325.620 1091.313,426.000 1042.125 C 450.200 1030.267,481.700 1017.776,496.000 1014.368 C 525.377 1007.366,599.777 1000.086,642.481 1000.034 L 670.963 1000.000 681.954 969.000 C 746.721 786.339,911.278 644.299,1098.000 609.883 C 1138.532 602.412,1254.874 602.591,1298.459 610.192 " fill="#1D1E23" stroke="none" fill-rule="evenodd"/></svg>