<svg viewBox="0 0 2400 2400" fill="none" xmlns="http://www.w3.org/2000/svg"><path d="M368.967 457.032 L 300.020 526.063 438.059 664.032 L 576.098 802.000 541.049 804.646 C 370.510 817.519,200.493 918.750,102.106 1066.000 C 59.053 1130.433,29.049 1201.963,11.097 1282.966 C -1.418 1339.433,-1.320 1460.201,11.287 1517.362 C 51.585 1700.081,163.589 1848.420,324.094 1931.645 C 375.051 1958.067,423.041 1975.426,482.638 1988.993 L 522.000 1997.954 1148.000 1999.051 L 1774.000 2000.148 1874.036 2100.081 L 1974.072 2200.014 2044.013 2129.987 L 2113.954 2059.961 1277.980 1223.980 C 818.195 764.191,441.086 388.000,439.961 388.000 C 438.835 388.000,406.888 419.064,368.967 457.032 M1124.000 404.411 C 1039.516 413.909,958.938 437.007,880.931 474.087 L 834.322 496.241 908.161 570.316 C 965.203 627.540,983.820 643.960,990.000 642.497 C 994.400 641.456,1013.555 635.163,1032.567 628.512 C 1089.718 608.520,1130.151 602.287,1202.000 602.391 C 1296.332 602.529,1365.081 618.365,1444.496 658.249 C 1503.234 687.749,1538.398 713.515,1588.230 763.566 C 1637.870 813.425,1665.990 852.332,1694.065 910.000 C 1730.568 984.980,1743.796 1040.804,1746.814 1132.612 L 1749.003 1199.225 1851.502 1201.082 C 1958.694 1203.024,1969.714 1204.568,2016.000 1224.123 C 2102.361 1260.610,2168.891 1339.029,2192.362 1432.000 C 2199.444 1460.054,2199.578 1539.130,2192.592 1568.000 C 2189.664 1580.100,2178.362 1608.532,2167.475 1631.182 C 2150.806 1665.860,2142.339 1677.863,2113.860 1707.182 L 2080.040 1742.000 2149.980 1811.946 L 2219.920 1881.892 2251.993 1850.007 C 2387.484 1715.310,2434.152 1520.812,2373.986 1341.578 C 2317.268 1172.621,2161.033 1038.499,1989.901 1011.858 C 1931.012 1002.691,1936.348 1006.526,1925.938 965.893 C 1847.026 657.905,1589.161 436.216,1272.576 404.190 C 1225.307 399.409,1167.731 399.494,1124.000 404.411 M1174.008 1400.061 L 1574.000 1800.122 1056.000 1799.060 L 538.000 1797.999 499.522 1787.362 C 404.513 1761.099,323.900 1704.426,271.233 1626.871 C 247.060 1591.275,221.346 1534.105,211.360 1493.760 C 199.512 1445.886,198.604 1361.044,209.438 1314.000 C 247.788 1147.464,384.627 1023.833,554.000 1002.696 C 560.600 1001.873,612.803 1000.929,670.008 1000.599 L 774.015 1000.000 1174.008 1400.061 " fill="#1D1E23" stroke="none" fill-rule="evenodd"/></svg>