<svg viewBox="0 0 2400 2400" fill="none" xmlns="http://www.w3.org/2000/svg"><path d="M1131.073 404.450 C 896.200 427.104,674.995 566.972,555.935 768.110 L 535.268 803.024 490.682 811.907 C 379.456 834.068,286.567 879.902,205.320 952.713 C 119.047 1030.029,66.281 1109.835,30.270 1217.468 C 5.908 1290.284,3.020 1312.896,5.034 1415.082 C 7.037 1516.695,10.809 1536.634,44.165 1621.946 C 89.893 1738.905,186.846 1850.120,303.579 1919.521 C 340.271 1941.336,430.762 1977.417,471.980 1986.667 C 512.429 1995.744,778.363 1999.457,1408.635 1999.745 L 1967.270 2000.000 2015.037 1986.118 C 2104.070 1960.245,2159.175 1932.398,2217.009 1884.055 C 2301.478 1813.446,2362.442 1716.101,2386.134 1614.000 C 2402.281 1544.414,2401.217 1446.825,2383.539 1376.064 C 2364.230 1298.774,2319.076 1220.595,2257.301 1157.500 C 2178.205 1076.713,2107.244 1037.649,1997.494 1014.477 C 1971.158 1008.916,1946.885 1003.321,1943.555 1002.043 C 1939.923 1000.650,1929.926 976.046,1918.583 940.585 C 1875.872 807.063,1818.566 710.999,1727.642 620.507 C 1570.255 463.867,1348.334 383.495,1131.073 404.450 M1573.278 959.086 C 1582.216 965.561,1594.985 980.516,1601.653 992.319 C 1612.018 1010.665,1613.778 1017.927,1613.778 1042.350 C 1613.778 1079.581,1611.009 1083.642,1520.837 1178.655 C 1428.873 1275.556,1089.226 1610.996,1061.110 1632.687 C 1019.681 1664.649,979.807 1664.999,941.186 1633.740 C 914.597 1612.219,746.407 1443.542,721.051 1412.967 C 695.393 1382.028,689.203 1362.547,695.416 1332.291 C 700.900 1305.594,714.928 1283.724,736.677 1267.969 C 751.997 1256.872,755.722 1256.000,787.817 1256.000 C 819.194 1256.000,824.156 1257.093,840.844 1267.675 C 850.969 1274.096,891.026 1310.435,929.858 1348.427 L 1000.463 1417.503 1177.232 1241.515 C 1400.115 1019.616,1465.631 956.727,1481.432 949.511 C 1490.262 945.478,1503.373 944.298,1525.513 945.543 C 1552.475 947.058,1559.374 949.014,1573.278 959.086 " fill="#1D1E23" stroke="none" fill-rule="evenodd"/></svg>