<svg viewBox="0 0 2400 2400" fill="none" xmlns="http://www.w3.org/2000/svg"><path d="M358.041 404.627 C 305.500 414.842,246.026 460.660,222.951 508.700 C 199.030 558.499,200.124 525.443,200.059 1200.803 C 200.017 1637.327,201.302 1825.850,204.420 1840.803 C 220.053 1915.765,284.235 1979.947,359.197 1995.580 C 389.211 2001.839,2010.789 2001.839,2040.803 1995.580 C 2115.765 1979.947,2179.947 1915.765,2195.580 1840.803 C 2201.803 1810.962,2201.803 789.038,2195.580 759.197 C 2181.788 693.062,2134.082 638.710,2066.000 611.568 L 2042.000 602.000 1622.187 600.893 L 1202.374 599.786 1126.075 524.380 C 1083.407 482.211,1038.495 441.682,1024.184 432.433 C 974.993 400.639,993.430 402.243,668.000 401.451 C 493.861 401.028,370.026 402.296,358.041 404.627 M1534.017 906.625 C 1545.651 910.589,1560.290 920.080,1570.465 930.255 C 1597.526 957.316,1600.000 971.077,1600.000 1094.550 L 1600.000 1199.649 1713.121 1200.824 C 1825.501 1201.992,1826.373 1202.067,1846.084 1212.218 C 1871.420 1225.266,1889.978 1249.529,1896.329 1277.908 C 1906.290 1322.417,1885.737 1367.360,1846.084 1387.782 C 1826.373 1397.933,1825.501 1398.008,1713.121 1399.176 L 1600.000 1400.351 1600.000 1505.450 C 1600.000 1628.923,1597.526 1642.684,1570.465 1669.745 C 1530.966 1709.244,1469.192 1709.402,1429.895 1670.105 C 1402.117 1642.328,1400.000 1630.796,1400.000 1507.287 L 1400.000 1400.000 1292.713 1400.000 C 1169.204 1400.000,1157.672 1397.883,1129.895 1370.105 C 1090.768 1330.979,1090.768 1269.021,1129.895 1229.895 C 1157.672 1202.117,1169.204 1200.000,1292.713 1200.000 L 1400.000 1200.000 1400.000 1092.713 C 1400.000 969.138,1402.108 957.682,1429.967 929.823 C 1457.748 902.041,1495.720 893.575,1534.017 906.625 " fill="#1D1E23" stroke="none" fill-rule="evenodd"/></svg>