<svg viewBox="0 0 2400 2400" fill="none" xmlns="http://www.w3.org/2000/svg"><path d="M200.000 1200.000 L 200.000 2000.000 1200.000 2000.000 L 2200.000 2000.000 2200.000 1300.000 L 2200.000 600.000 1700.970 600.000 L 1201.940 600.000 1102.000 500.000 L 1002.060 400.000 601.030 400.000 L 200.000 400.000 200.000 1200.000 M1600.000 1050.000 L 1600.000 1200.000 1750.000 1200.000 L 1900.000 1200.000 1900.000 1300.000 L 1900.000 1400.000 1750.000 1400.000 L 1600.000 1400.000 1600.000 1550.000 L 1600.000 1700.000 1500.000 1700.000 L 1400.000 1700.000 1400.000 1550.000 L 1400.000 1400.000 1250.000 1400.000 L 1100.000 1400.000 1100.000 1300.000 L 1100.000 1200.000 1250.000 1200.000 L 1400.000 1200.000 1400.000 1050.000 L 1400.000 900.000 1500.000 900.000 L 1600.000 900.000 1600.000 1050.000 " fill="#1D1E23" stroke="none" fill-rule="evenodd"/></svg>