<svg viewBox="0 0 2400 2400" fill="none" xmlns="http://www.w3.org/2000/svg"><path d="M349.930 407.646 C 311.251 414.012,243.457 470.109,222.965 512.705 C 201.171 558.007,201.997 530.660,202.045 1206.000 L 202.090 1834.000 211.272 1860.000 C 223.833 1895.571,245.069 1925.405,275.988 1950.916 C 322.877 1989.606,333.646 1993.021,419.552 1996.450 C 518.944 2000.416,1867.529 2000.360,1972.672 1996.385 C 2050.612 1993.439,2056.565 1992.657,2076.672 1982.737 C 2123.716 1959.528,2168.427 1912.496,2185.748 1868.000 C 2189.861 1857.436,2194.201 1830.172,2196.255 1802.000 C 2198.180 1775.600,2199.810 1529.658,2199.877 1255.463 L 2200.000 756.926 2183.365 723.690 C 2161.561 680.129,2126.115 644.384,2081.921 621.394 L 2050.000 604.789 1626.000 601.920 L 1202.000 599.051 1144.000 542.492 C 1070.663 470.978,1027.431 433.987,1002.000 420.991 C 985.285 412.449,973.788 410.246,932.000 407.573 C 872.566 403.773,373.087 403.835,349.930 407.646 M1551.090 918.651 C 1561.355 924.997,1575.106 937.806,1581.649 947.116 L 1593.546 964.043 1597.449 1081.472 L 1601.352 1198.901 1701.377 1201.802 C 1756.391 1203.398,1810.042 1206.070,1820.602 1207.739 C 1845.428 1211.663,1869.736 1228.727,1883.253 1251.719 C 1892.362 1267.214,1894.000 1274.620,1894.000 1300.314 C 1894.000 1327.041,1892.580 1332.911,1882.000 1349.924 C 1875.400 1360.538,1863.353 1374.578,1855.229 1381.125 C 1841.572 1392.131,1837.046 1393.274,1795.229 1396.283 C 1770.353 1398.074,1716.562 1399.642,1675.694 1399.769 L 1601.388 1400.000 1597.469 1517.917 L 1593.550 1635.834 1581.286 1652.917 C 1574.540 1662.313,1561.436 1675.400,1552.166 1682.000 C 1536.499 1693.154,1532.822 1694.000,1500.000 1694.000 C 1467.154 1694.000,1463.486 1693.154,1447.456 1681.888 C 1437.978 1675.227,1425.040 1662.401,1418.705 1653.387 C 1407.551 1637.518,1407.078 1634.856,1403.784 1569.499 C 1401.913 1532.375,1400.297 1479.050,1400.191 1451.000 L 1400.000 1400.000 1325.000 1399.769 C 1283.750 1399.642,1229.647 1398.074,1204.771 1396.283 C 1163.321 1393.300,1158.357 1392.067,1145.350 1381.514 C 1137.545 1375.181,1125.498 1362.173,1118.579 1352.606 C 1106.740 1336.236,1106.000 1333.138,1106.000 1299.951 C 1106.000 1267.160,1106.849 1263.482,1118.112 1247.456 C 1124.773 1237.978,1137.623 1225.023,1146.666 1218.667 C 1162.678 1207.413,1164.930 1207.023,1232.555 1203.765 C 1270.750 1201.925,1324.050 1200.325,1351.000 1200.210 L 1400.000 1200.000 1400.172 1147.000 C 1400.267 1117.850,1401.894 1064.650,1403.788 1028.777 C 1406.968 968.548,1408.015 962.371,1417.459 948.101 C 1438.570 916.200,1465.816 903.322,1507.214 905.678 C 1526.361 906.768,1536.918 909.889,1551.090 918.651 " fill="#1D1E23" stroke="none" fill-rule="evenodd"/></svg>