<svg viewBox="0 0 2400 2400" fill="none" xmlns="http://www.w3.org/2000/svg"><path d="M650.000 104.157 C 449.800 105.658,275.338 108.283,262.306 109.991 C 242.522 112.583,232.644 117.136,202.446 137.585 C 161.591 165.249,144.729 185.018,117.961 236.635 L 100.000 271.271 100.000 1199.724 L 100.000 2128.178 115.544 2159.089 C 147.157 2221.956,182.960 2258.680,238.090 2284.784 L 266.000 2298.000 1198.479 2299.332 L 2130.957 2300.663 2152.479 2289.785 C 2224.115 2253.574,2268.544 2206.113,2288.680 2144.289 L 2297.243 2118.000 2298.868 1438.000 L 2300.494 758.000 1979.460 429.000 L 1658.426 100.000 1336.213 100.714 C 1158.996 101.106,850.200 102.656,650.000 104.157 M1548.972 595.000 L 1550.000 870.000 1817.000 871.028 L 2084.000 872.057 2084.000 1476.028 L 2084.000 2080.000 1200.000 2080.000 L 316.000 2080.000 316.000 1200.000 L 316.000 320.000 931.972 320.000 L 1547.945 320.000 1548.972 595.000 M1138.000 1199.688 C 1082.067 1205.208,1011.920 1253.638,981.002 1308.083 C 915.104 1424.127,911.007 1648.285,972.460 1775.487 C 1002.773 1838.234,1061.619 1887.044,1124.959 1901.978 C 1158.321 1909.844,1241.999 1909.768,1275.628 1901.841 C 1344.903 1885.511,1405.223 1830.635,1436.039 1755.906 C 1480.739 1647.506,1483.264 1471.467,1441.705 1360.760 C 1411.949 1281.492,1346.813 1215.946,1286.338 1204.414 C 1258.393 1199.085,1172.001 1196.333,1138.000 1199.688 M1727.228 1199.698 C 1689.183 1205.040,1647.230 1227.829,1614.319 1261.033 C 1540.118 1335.894,1511.715 1458.799,1528.129 1634.000 C 1541.513 1776.869,1610.126 1874.209,1716.000 1900.530 C 1730.219 1904.066,1761.343 1905.975,1804.000 1905.930 C 1866.608 1905.863,1871.297 1905.307,1895.231 1895.116 C 1927.680 1881.299,1966.212 1853.679,1983.960 1831.514 C 2004.642 1805.685,2036.000 1742.216,2036.000 1726.184 C 2036.000 1710.271,2034.533 1709.598,1965.968 1694.045 C 1903.360 1679.845,1903.899 1679.752,1892.247 1706.654 C 1877.140 1741.533,1855.959 1771.108,1841.002 1778.206 C 1833.641 1781.699,1817.354 1786.422,1804.809 1788.702 C 1784.978 1792.307,1779.128 1791.757,1760.000 1784.492 C 1698.442 1761.112,1683.101 1711.726,1682.809 1536.000 C 1682.694 1466.358,1684.163 1439.235,1689.303 1416.095 C 1699.044 1372.250,1712.983 1346.460,1735.201 1331.173 C 1751.882 1319.697,1757.392 1318.206,1788.655 1316.711 C 1819.895 1315.218,1825.091 1316.019,1838.755 1324.439 C 1861.039 1338.170,1871.007 1350.327,1888.562 1385.177 C 1897.200 1402.324,1906.541 1417.226,1909.321 1418.293 C 1916.537 1421.062,1966.549 1409.962,2005.095 1397.035 C 2036.535 1386.491,2037.964 1385.491,2037.188 1374.571 C 2036.742 1368.286,2028.264 1346.466,2018.348 1326.082 C 1990.534 1268.907,1942.603 1225.632,1885.134 1205.808 C 1863.172 1198.232,1764.787 1194.425,1727.228 1199.698 M384.000 1552.000 L 384.000 1900.000 469.000 1899.790 C 515.750 1899.675,584.600 1898.037,622.000 1896.151 C 684.460 1893.000,692.352 1891.736,718.874 1880.639 C 756.816 1864.763,778.230 1849.623,805.908 1819.103 C 862.231 1756.997,887.717 1659.905,882.746 1526.384 C 876.829 1367.473,837.375 1287.259,738.073 1232.247 L 699.961 1211.134 606.980 1207.766 C 555.841 1205.914,484.750 1204.308,449.000 1204.199 L 384.000 1204.000 384.000 1552.000 M1242.800 1320.570 C 1271.916 1329.483,1296.947 1373.984,1304.351 1430.000 C 1311.684 1485.474,1310.637 1655.180,1302.740 1691.225 C 1287.505 1760.759,1258.884 1787.917,1200.771 1787.978 C 1149.130 1788.032,1120.798 1767.734,1104.162 1718.763 C 1085.913 1665.039,1084.123 1457.612,1101.360 1394.000 C 1117.492 1334.469,1150.466 1310.525,1210.000 1315.111 C 1221.000 1315.959,1235.760 1318.415,1242.800 1320.570 M605.435 1324.126 C 629.324 1326.391,653.624 1330.736,659.435 1333.781 C 686.419 1347.922,712.483 1389.082,720.847 1430.765 C 726.861 1460.739,726.426 1632.467,720.241 1670.000 C 714.435 1705.228,702.984 1729.227,681.940 1750.271 C 660.210 1772.000,636.294 1779.741,581.657 1782.729 L 537.314 1785.153 534.665 1673.577 C 533.208 1612.210,532.012 1507.550,532.008 1441.000 L 532.000 1320.000 547.000 1320.003 C 555.250 1320.005,581.546 1321.860,605.435 1324.126 " fill="#1D1E23" stroke="none" fill-rule="evenodd"/></svg>