<svg viewBox="0 0 2400 2400" fill="none" xmlns="http://www.w3.org/2000/svg"><path d="M400.000 103.878 C 240.710 106.258,247.415 105.085,196.828 139.437 C 157.782 165.953,132.154 198.847,112.630 247.506 L 102.000 274.000 102.000 1200.000 L 102.000 2126.000 112.630 2152.494 C 139.893 2220.440,189.587 2269.678,252.000 2290.584 C 273.078 2297.644,312.716 2298.001,1198.000 2299.109 L 2122.000 2300.266 2146.000 2291.672 C 2229.352 2261.825,2289.130 2187.478,2296.395 2104.623 C 2298.065 2085.580,2299.440 1774.800,2299.450 1414.000 L 2299.468 758.000 1978.734 429.020 L 1658.000 100.040 1100.000 100.898 C 793.100 101.369,478.100 102.710,400.000 103.878 M1548.972 595.000 L 1550.000 870.000 1817.000 871.028 L 2084.000 872.057 2084.000 1476.028 L 2084.000 2080.000 1200.000 2080.000 L 316.000 2080.000 316.000 1200.000 L 316.000 320.000 931.972 320.000 L 1547.945 320.000 1548.972 595.000 M1142.350 1196.278 C 1099.999 1202.142,1045.477 1229.551,1015.766 1259.916 C 961.270 1315.610,928.065 1424.644,928.035 1548.000 C 927.992 1721.509,979.913 1839.763,1076.000 1885.002 C 1117.565 1904.571,1142.111 1909.401,1200.000 1909.401 C 1257.847 1909.401,1283.060 1904.476,1322.112 1885.549 C 1387.717 1853.753,1431.857 1793.065,1455.856 1701.666 C 1473.027 1636.267,1476.347 1503.072,1462.576 1432.000 C 1438.587 1308.184,1374.877 1226.285,1283.476 1201.766 C 1255.908 1194.370,1178.008 1191.341,1142.350 1196.278 M1739.970 1195.614 C 1626.948 1211.651,1551.523 1300.794,1529.809 1444.000 C 1522.209 1494.125,1522.326 1606.498,1530.033 1658.000 C 1543.689 1749.260,1575.348 1813.635,1628.344 1857.905 C 1673.223 1895.395,1717.960 1908.679,1800.000 1908.877 C 1848.034 1908.993,1857.459 1907.838,1885.311 1898.427 C 1925.088 1884.987,1952.448 1867.432,1979.089 1838.257 C 2011.016 1803.292,2048.461 1719.702,2035.724 1711.829 C 2026.725 1706.268,1911.201 1679.451,1905.562 1681.614 C 1902.503 1682.788,1900.000 1686.297,1900.000 1689.411 C 1900.000 1699.741,1868.674 1757.858,1857.160 1768.889 C 1850.127 1775.627,1835.861 1782.355,1819.520 1786.641 C 1797.100 1792.521,1789.997 1792.825,1771.531 1788.692 C 1731.812 1779.804,1710.385 1759.889,1695.755 1718.264 C 1680.089 1673.693,1675.089 1471.256,1688.193 1412.116 C 1699.606 1360.610,1723.494 1328.024,1757.171 1318.023 C 1823.281 1298.390,1874.242 1329.541,1896.187 1403.000 C 1900.446 1417.254,1902.921 1420.000,1911.513 1420.000 C 1930.103 1420.000,2023.841 1395.411,2032.749 1388.198 L 2041.482 1381.126 2032.363 1355.563 C 2003.889 1275.749,1948.837 1221.627,1875.970 1201.814 C 1850.029 1194.760,1771.286 1191.170,1739.970 1195.614 M384.000 1551.863 L 384.000 1900.997 527.000 1898.945 C 684.506 1896.685,693.382 1895.515,742.998 1870.476 C 819.257 1831.992,863.390 1757.075,879.948 1638.000 C 889.509 1569.245,882.517 1447.887,865.597 1388.901 C 841.553 1305.081,787.205 1245.594,708.609 1217.065 C 683.137 1207.819,677.301 1207.422,533.130 1205.115 L 384.000 1202.730 384.000 1551.863 M1234.000 1316.415 C 1266.735 1325.357,1289.077 1353.135,1302.835 1402.000 C 1310.292 1428.484,1314.412 1603.677,1308.856 1658.013 C 1299.118 1753.243,1269.165 1789.478,1200.000 1789.702 C 1133.052 1789.919,1101.074 1752.834,1091.737 1664.150 C 1087.055 1619.676,1087.177 1488.574,1091.946 1439.569 C 1100.492 1351.757,1132.455 1313.420,1198.000 1312.366 C 1209.000 1312.189,1225.200 1314.011,1234.000 1316.415 M653.230 1329.420 C 690.184 1344.861,716.977 1387.005,723.942 1440.645 C 726.038 1456.790,727.760 1502.400,727.768 1542.000 C 727.795 1671.784,719.037 1715.793,686.526 1749.246 C 663.558 1772.877,641.096 1780.224,583.652 1782.892 L 537.303 1785.044 534.662 1703.522 C 533.210 1658.685,532.016 1553.772,532.011 1470.383 L 532.000 1318.766 585.672 1321.192 C 618.178 1322.662,644.820 1325.906,653.230 1329.420 " fill="#1D1E23" stroke="none" fill-rule="evenodd"/></svg>