<svg viewBox="0 0 2400 2400" fill="none" xmlns="http://www.w3.org/2000/svg"><path d="M272.000 104.346 C 239.487 110.612,191.950 137.331,164.519 164.755 C 136.619 192.648,112.071 237.716,104.360 275.197 C 98.204 305.124,98.204 2094.876,104.360 2124.803 C 106.759 2136.461,115.745 2160.716,124.330 2178.701 C 153.321 2239.437,210.157 2283.932,274.000 2295.872 C 291.417 2299.130,549.236 2300.037,1214.000 2299.180 L 2130.000 2298.000 2154.000 2288.885 C 2207.862 2268.429,2251.579 2228.665,2275.911 2178.000 C 2284.364 2160.400,2293.241 2136.461,2295.640 2124.803 C 2298.685 2109.997,2300.000 1901.023,2300.000 1431.687 L 2300.000 759.768 1979.000 429.968 L 1658.000 100.169 974.000 100.523 C 597.800 100.717,281.900 102.438,272.000 104.346 M1548.972 595.000 L 1550.000 870.000 1817.000 871.028 L 2084.000 872.057 2084.000 1476.028 L 2084.000 2080.000 1200.000 2080.000 L 316.000 2080.000 316.000 1200.000 L 316.000 320.000 931.972 320.000 L 1547.945 320.000 1548.972 595.000 M1128.000 1198.240 C 1096.099 1205.117,1051.768 1226.534,1028.948 1246.096 C 949.518 1314.183,911.548 1474.090,934.051 1645.750 C 952.738 1788.301,1014.392 1873.421,1120.000 1902.470 C 1156.164 1912.418,1243.774 1912.448,1279.680 1902.525 C 1376.314 1875.820,1436.752 1800.752,1462.136 1675.901 C 1465.480 1659.455,1469.313 1616.300,1470.654 1580.000 C 1474.743 1469.329,1462.531 1396.830,1427.688 1324.924 C 1393.589 1254.554,1342.166 1213.169,1270.000 1198.018 C 1235.096 1190.689,1162.503 1190.803,1128.000 1198.240 M1732.301 1196.349 C 1681.167 1206.381,1647.357 1224.180,1611.818 1259.776 C 1550.449 1321.245,1522.798 1411.477,1522.881 1550.000 C 1522.965 1688.861,1550.881 1782.491,1610.000 1842.192 C 1657.713 1890.375,1710.328 1909.707,1794.000 1909.798 C 1853.340 1909.863,1877.165 1905.197,1919.331 1885.254 C 1957.446 1867.226,1989.285 1835.266,2011.014 1793.220 C 2030.350 1755.804,2043.071 1717.356,2037.747 1712.422 C 2033.799 1708.762,1918.475 1679.998,1907.756 1679.999 C 1903.625 1680.000,1899.801 1686.678,1896.454 1699.737 C 1890.695 1722.209,1868.745 1760.719,1855.148 1772.207 C 1840.471 1784.608,1805.684 1793.299,1781.910 1790.505 C 1731.854 1784.622,1706.555 1760.257,1689.895 1701.889 C 1680.957 1670.574,1676.792 1490.459,1683.790 1437.874 C 1695.420 1350.482,1728.455 1312.078,1792.000 1312.078 C 1843.344 1312.078,1874.406 1336.614,1892.261 1391.277 C 1897.062 1405.975,1902.287 1419.429,1903.872 1421.177 C 1905.456 1422.924,1936.734 1416.850,1973.377 1407.680 C 2049.399 1388.654,2046.004 1392.177,2029.830 1349.091 C 1989.822 1242.520,1912.785 1191.268,1794.360 1192.438 C 1769.962 1192.679,1742.035 1194.439,1732.301 1196.349 M384.000 1552.081 L 384.000 1900.693 527.000 1899.068 C 665.900 1897.490,670.936 1897.156,702.646 1887.424 C 781.525 1863.217,832.308 1810.877,861.592 1723.606 C 891.035 1635.861,892.735 1483.970,865.348 1388.000 C 841.528 1304.531,784.868 1242.069,710.310 1217.086 L 678.000 1206.259 531.000 1204.864 L 384.000 1203.469 384.000 1552.081 M1237.109 1316.241 C 1269.894 1325.345,1293.617 1358.142,1305.501 1410.790 C 1314.311 1449.816,1314.780 1648.227,1306.159 1688.907 C 1299.393 1720.832,1286.991 1750.275,1274.805 1763.339 C 1242.465 1798.010,1167.502 1800.391,1130.523 1767.923 C 1114.736 1754.061,1101.674 1725.857,1093.768 1688.558 C 1085.423 1649.186,1085.769 1454.656,1094.258 1412.831 C 1108.630 1342.027,1138.991 1312.575,1198.000 1312.198 C 1211.200 1312.114,1228.799 1313.933,1237.109 1316.241 M656.045 1330.459 C 691.564 1346.691,714.513 1380.509,723.688 1430.143 C 730.430 1466.612,729.165 1648.555,721.958 1679.126 C 703.312 1758.215,660.499 1786.787,566.000 1783.211 L 534.000 1782.000 532.967 1550.607 L 531.935 1319.214 584.967 1320.713 C 627.817 1321.925,641.465 1323.796,656.045 1330.459 " fill="#1D1E23" stroke="none" fill-rule="evenodd"/></svg>