<svg viewBox="0 0 2400 2400" fill="none" xmlns="http://www.w3.org/2000/svg"><path d="M1377.981 227.968 C 1346.748 234.778,1314.361 268.995,1303.949 306.182 C 1299.484 322.129,1299.679 327.615,1305.345 345.592 C 1313.158 370.378,1334.977 397.275,1355.949 407.974 C 1364.249 412.208,1396.005 424.945,1426.520 436.278 C 1457.034 447.611,1508.100 468.596,1540.000 482.912 C 1653.641 533.913,1663.013 537.221,1686.868 534.759 C 1737.218 529.562,1776.000 486.578,1776.000 435.969 C 1776.000 386.011,1735.080 349.925,1618.317 296.912 C 1507.285 246.502,1414.739 219.953,1377.981 227.968 M951.453 233.796 C 893.369 245.900,797.713 284.714,722.760 326.593 C 478.698 462.957,315.912 667.123,236.867 936.000 C 211.612 1021.909,203.967 1082.363,204.063 1195.424 C 204.178 1330.082,214.274 1397.635,250.545 1506.425 C 304.838 1669.267,385.458 1798.295,506.518 1916.096 C 618.381 2024.949,743.066 2099.680,899.257 2151.489 C 1000.801 2185.172,1010.785 2185.664,1050.503 2158.946 C 1080.724 2138.615,1093.439 2117.301,1095.332 2083.795 C 1096.692 2059.739,1095.431 2052.918,1086.100 2033.846 C 1072.242 2005.521,1057.708 1997.063,962.319 1961.817 C 873.242 1928.903,811.888 1900.199,767.728 1870.777 C 574.456 1742.012,447.303 1543.241,413.320 1316.752 C 404.410 1257.365,404.604 1136.117,413.702 1078.136 C 454.050 821.003,611.529 604.381,842.000 488.987 C 877.290 471.318,905.973 459.873,1022.000 417.168 C 1057.469 404.113,1083.752 378.854,1094.012 347.962 C 1100.038 329.820,1100.345 323.853,1096.202 305.341 C 1082.943 246.091,1026.448 218.168,951.453 233.796 M1916.920 636.461 C 1880.342 654.566,1854.859 702.054,1863.835 735.386 C 1866.182 744.102,1884.223 787.406,1903.927 831.617 C 1923.631 875.827,1950.696 941.180,1964.073 976.845 C 1977.449 1012.511,1991.956 1047.456,1996.310 1054.502 C 2004.373 1067.547,2031.583 1086.744,2054.945 1095.869 C 2094.113 1111.167,2158.064 1072.091,2172.452 1024.069 C 2181.971 992.298,2156.234 898.500,2108.347 790.439 C 2051.481 662.116,2020.365 627.996,1960.215 628.003 C 1941.589 628.005,1929.055 630.454,1916.920 636.461 M1143.092 721.788 C 1133.160 729.372,1119.402 744.081,1112.517 754.474 L 1100.000 773.372 1100.000 986.053 L 1100.000 1198.735 1025.000 1201.335 C 939.299 1204.306,903.553 1209.152,885.629 1220.229 C 858.546 1236.968,836.663 1289.326,843.686 1320.585 C 848.378 1341.466,856.212 1351.104,939.740 1438.750 C 1026.750 1530.051,1137.729 1634.722,1160.538 1647.000 C 1185.278 1660.317,1216.105 1659.327,1242.000 1644.384 C 1283.674 1620.335,1506.526 1399.150,1540.190 1348.425 C 1546.605 1338.759,1553.067 1324.378,1554.551 1316.467 C 1560.623 1284.105,1540.764 1236.541,1514.371 1220.229 C 1496.567 1209.226,1461.078 1204.428,1375.000 1201.386 L 1300.000 1198.736 1299.646 1044.368 C 1299.452 959.466,1298.102 861.968,1296.646 827.706 C 1294.124 768.328,1293.476 764.620,1282.802 748.492 C 1276.643 739.186,1263.240 726.269,1253.019 719.786 C 1235.929 708.948,1231.486 708.000,1197.792 708.000 C 1162.182 708.000,1160.642 708.388,1143.092 721.788 M2034.000 1315.599 C 2004.699 1329.194,1993.935 1345.164,1971.634 1408.120 C 1953.522 1459.249,1935.133 1502.453,1880.598 1622.000 C 1868.239 1649.093,1866.000 1658.294,1866.000 1682.000 C 1866.000 1705.476,1867.813 1713.084,1877.221 1729.090 C 1903.496 1773.789,1964.761 1788.724,2010.909 1761.679 C 2041.199 1743.927,2074.031 1691.787,2113.974 1598.000 C 2139.287 1538.565,2166.882 1457.073,2172.373 1425.541 C 2180.939 1376.353,2164.461 1340.850,2123.585 1320.424 C 2093.589 1305.435,2059.826 1303.617,2034.000 1315.599 M1632.000 1877.364 C 1615.500 1884.905,1578.315 1901.970,1549.366 1915.285 C 1520.417 1928.601,1466.432 1950.514,1429.398 1963.982 C 1343.186 1995.334,1333.054 2001.042,1317.535 2027.003 C 1302.475 2052.197,1298.967 2070.788,1304.449 2096.353 C 1311.894 2131.065,1347.871 2168.575,1379.472 2174.571 C 1423.584 2182.941,1609.144 2119.018,1693.676 2066.332 C 1727.791 2045.069,1755.979 2019.190,1766.471 1999.501 C 1776.737 1980.234,1776.094 1942.685,1765.140 1921.788 C 1747.604 1888.337,1717.324 1867.695,1682.000 1865.113 C 1665.771 1863.927,1656.344 1866.237,1632.000 1877.364 " fill="#1D1E23" stroke="none" fill-rule="evenodd"/></svg>