<svg viewBox="0 0 2400 2400" fill="none" xmlns="http://www.w3.org/2000/svg"><path d="M1367.014 230.068 C 1333.597 242.341,1308.677 273.916,1301.828 312.663 C 1297.324 338.145,1309.714 371.093,1331.867 392.539 C 1349.679 409.783,1355.866 412.646,1420.508 433.561 C 1471.242 449.977,1512.393 466.991,1572.959 496.594 C 1646.916 532.743,1658.261 537.143,1677.515 537.143 C 1736.664 537.143,1789.697 474.737,1776.176 421.044 C 1769.501 394.532,1762.336 382.630,1743.105 366.105 C 1690.324 320.751,1522.548 247.415,1432.484 230.330 C 1393.022 222.844,1386.751 222.819,1367.014 230.068 M938.000 236.023 C 881.995 251.100,824.733 273.050,766.000 301.956 C 495.800 434.935,304.025 669.898,229.707 959.020 C 209.143 1039.020,203.006 1095.135,203.135 1202.000 C 203.260 1305.389,208.574 1355.141,227.488 1430.000 C 294.398 1694.828,443.794 1902.503,672.000 2047.912 C 751.428 2098.523,860.430 2144.717,964.842 2172.018 C 995.873 2180.132,1001.677 2180.570,1017.907 2176.026 C 1060.104 2164.211,1092.279 2129.543,1098.298 2089.405 C 1101.596 2067.415,1091.652 2034.075,1076.255 2015.496 C 1061.222 1997.356,1046.896 1990.640,957.677 1959.901 C 868.043 1929.018,817.958 1905.143,757.449 1864.451 C 581.242 1745.952,462.481 1568.134,417.869 1356.000 C 403.580 1288.059,399.748 1162.186,409.783 1090.424 C 445.378 835.881,598.572 616.536,824.634 496.434 C 872.067 471.234,917.646 452.516,982.597 431.565 C 1010.869 422.445,1040.576 411.664,1048.613 407.608 C 1080.353 391.588,1103.598 345.939,1098.234 310.165 C 1093.940 281.530,1073.325 252.079,1048.543 239.174 C 1030.326 229.687,1022.474 228.037,996.543 228.243 C 979.744 228.376,953.400 231.877,938.000 236.023 M1927.014 629.822 C 1892.674 642.996,1866.575 676.096,1861.536 712.864 C 1858.720 733.402,1861.849 741.763,1911.377 846.080 C 1929.466 884.182,1953.644 944.068,1966.282 982.080 C 1986.188 1041.953,1990.811 1052.019,2005.302 1067.038 C 2023.491 1085.890,2055.194 1100.024,2079.150 1099.961 C 2113.078 1099.872,2157.382 1067.596,2170.413 1033.477 C 2186.411 991.585,2156.378 886.592,2088.182 746.000 C 2044.496 655.939,2016.919 628.567,1966.841 625.563 C 1951.404 624.637,1936.327 626.250,1927.014 629.822 M1155.707 711.704 C 1137.957 721.343,1113.062 748.481,1105.611 766.313 C 1101.039 777.257,1100.000 818.518,1100.000 989.236 L 1100.000 1198.728 1008.207 1201.224 C 908.646 1203.931,900.099 1205.622,875.128 1227.547 C 845.360 1253.683,832.978 1307.562,849.483 1339.140 C 867.144 1372.932,1134.994 1638.974,1163.233 1650.773 C 1184.557 1659.683,1219.383 1658.518,1239.568 1648.221 C 1269.843 1632.775,1472.501 1434.230,1531.253 1362.455 C 1552.927 1335.976,1553.859 1333.873,1555.312 1308.154 C 1557.168 1275.301,1546.178 1246.253,1524.786 1227.471 C 1500.444 1206.098,1492.151 1204.471,1392.432 1201.498 L 1300.000 1198.742 1299.748 1012.371 C 1299.446 788.500,1297.854 765.533,1281.200 744.853 C 1274.621 736.684,1261.606 724.600,1252.278 718.000 C 1237.231 707.354,1231.633 705.884,1202.659 704.971 C 1176.546 704.148,1167.135 705.498,1155.707 711.704 M2047.790 1308.389 C 2039.975 1310.606,2024.675 1319.092,2013.790 1327.245 C 1994.362 1341.798,1993.656 1343.094,1975.228 1398.035 C 1944.577 1489.414,1932.558 1518.634,1897.416 1587.202 C 1865.439 1649.597,1864.000 1653.546,1864.000 1678.939 C 1864.000 1710.062,1873.828 1734.069,1893.312 1750.539 C 1941.689 1791.435,2005.880 1783.971,2043.700 1733.054 C 2081.695 1681.900,2142.809 1543.370,2165.926 1456.000 C 2180.825 1399.687,2178.139 1373.293,2154.333 1342.081 C 2132.055 1312.873,2084.727 1297.906,2047.790 1308.389 M1583.764 1899.358 C 1527.283 1927.654,1486.128 1945.011,1435.764 1961.774 C 1397.394 1974.545,1360.600 1987.676,1354.000 1990.954 C 1305.316 2015.131,1287.212 2074.969,1313.922 2123.422 C 1333.123 2158.255,1361.228 2176.000,1397.194 2176.000 C 1415.259 2176.000,1492.113 2156.087,1534.000 2140.553 C 1633.349 2103.710,1714.997 2060.530,1747.488 2027.650 C 1776.629 1998.160,1783.745 1958.800,1766.595 1921.971 C 1750.656 1887.744,1720.475 1866.540,1681.671 1862.308 C 1662.983 1860.270,1658.089 1862.122,1583.764 1899.358 " fill="#1D1E23" stroke="none" fill-rule="evenodd"/></svg>