<svg viewBox="0 0 2400 2400" fill="none" xmlns="http://www.w3.org/2000/svg"><path d="M1300.000 306.101 L 1300.000 407.094 1327.000 411.895 C 1445.287 432.928,1563.305 482.759,1680.143 561.004 L 1690.286 567.797 1761.532 496.468 L 1832.778 425.139 1795.389 399.257 C 1640.332 291.922,1507.139 237.329,1335.000 210.552 L 1300.000 205.108 1300.000 306.101 M1021.444 217.780 C 813.470 260.990,632.655 356.125,492.918 495.863 C 414.230 574.551,358.340 652.230,308.413 752.298 C 258.892 851.552,223.981 961.217,209.915 1061.707 C 202.480 1114.824,201.322 1272.132,207.969 1326.007 C 217.840 1406.011,250.873 1519.983,290.027 1609.129 C 312.959 1661.339,354.242 1734.193,386.921 1780.122 C 435.214 1847.995,553.038 1966.267,617.235 2011.309 C 738.894 2096.670,880.642 2156.015,1035.282 2186.331 C 1084.410 2195.963,1093.084 2196.738,1096.220 2191.781 C 1098.232 2188.601,1099.905 2142.771,1099.939 2089.935 L 1100.000 1993.870 1054.690 1985.155 C 963.649 1967.643,843.529 1920.465,771.204 1873.815 C 594.047 1759.546,460.612 1566.386,420.406 1366.000 C 354.532 1037.680,487.397 714.827,762.582 534.537 C 844.284 481.010,956.908 435.283,1055.000 415.811 L 1100.000 406.878 1100.000 332.026 C 1100.000 290.857,1098.844 246.109,1097.430 232.587 L 1094.860 208.000 1080.430 208.261 C 1072.494 208.405,1045.950 212.689,1021.444 217.780 M1903.148 639.000 L 1832.379 710.000 1856.416 748.000 C 1925.245 856.815,1964.995 953.778,1986.369 1065.000 L 1993.095 1100.000 2086.810 1100.000 C 2142.845 1100.000,2183.590 1098.360,2188.147 1095.921 C 2196.786 1091.298,2196.967 1093.464,2181.555 1016.785 C 2155.998 889.631,2113.834 781.239,2049.141 676.381 C 2027.044 640.565,1977.193 568.000,1974.686 568.000 C 1974.263 568.000,1942.071 599.950,1903.148 639.000 M1100.000 950.000 L 1100.000 1200.000 901.004 1200.000 L 702.008 1200.000 951.004 1448.996 L 1200.000 1697.992 1448.996 1448.996 L 1697.992 1200.000 1498.996 1200.000 L 1300.000 1200.000 1300.000 950.000 L 1300.000 700.000 1200.000 700.000 L 1100.000 700.000 1100.000 950.000 M1984.605 1342.389 C 1973.465 1396.234,1947.122 1475.238,1920.128 1535.759 C 1895.967 1589.928,1882.182 1615.000,1853.091 1657.685 L 1831.496 1689.369 1876.748 1734.967 C 1901.637 1760.045,1934.331 1791.583,1949.403 1805.051 L 1976.805 1829.538 1984.600 1819.769 C 1988.888 1814.396,2008.615 1785.700,2028.439 1756.000 C 2091.888 1660.941,2141.486 1548.248,2170.007 1434.340 C 2184.702 1375.653,2196.074 1310.652,2192.321 1306.802 C 2190.606 1305.043,2145.199 1302.518,2091.415 1301.191 L 1993.627 1298.779 1984.605 1342.389 M1662.000 1850.358 C 1589.141 1905.440,1459.396 1961.356,1351.359 1984.235 C 1328.612 1989.052,1307.750 1994.790,1305.000 1996.986 C 1299.041 2001.745,1297.818 2182.360,1303.682 2191.623 C 1307.794 2198.117,1336.662 2193.337,1434.000 2170.044 C 1558.567 2140.234,1680.887 2083.526,1792.494 2003.844 L 1832.907 1974.990 1761.495 1903.495 C 1722.219 1864.173,1689.165 1832.048,1688.042 1832.107 C 1686.919 1832.165,1675.200 1840.378,1662.000 1850.358 " fill="#1D1E23" stroke="none" fill-rule="evenodd"/></svg>