<svg viewBox="0 0 2400 2400" fill="none" xmlns="http://www.w3.org/2000/svg"><path d="M968.000 228.415 C 796.637 266.740,619.560 366.890,487.903 499.945 C 347.161 642.182,247.760 834.097,214.400 1028.000 C 197.378 1126.941,198.147 1292.061,216.041 1380.496 C 262.996 1612.551,375.536 1808.171,547.311 1956.317 C 665.916 2058.606,804.753 2130.891,958.000 2170.140 L 1002.000 2181.408 1026.000 2173.861 C 1097.886 2151.254,1122.605 2064.569,1072.543 2010.643 C 1057.582 1994.527,1047.307 1989.932,967.988 1963.887 C 891.378 1938.733,839.999 1916.267,790.000 1886.063 C 498.505 1709.971,350.504 1372.550,417.980 1037.915 C 436.806 944.550,477.423 846.159,531.054 764.000 C 634.881 604.946,785.282 492.724,972.752 434.426 C 1049.073 410.692,1051.917 409.499,1067.351 394.755 C 1129.426 335.449,1094.254 232.684,1009.662 226.203 C 996.648 225.206,977.900 226.201,968.000 228.415 M1366.510 229.873 C 1309.919 250.045,1284.498 318.051,1313.730 371.069 C 1326.620 394.448,1351.197 413.377,1377.763 420.387 C 1386.693 422.744,1419.200 432.864,1450.000 442.877 C 1500.432 459.272,1528.638 472.245,1634.000 527.510 C 1704.936 564.717,1793.601 496.540,1776.062 418.275 C 1770.727 394.469,1759.259 377.204,1737.882 360.793 C 1676.848 313.939,1514.656 244.381,1432.083 229.647 C 1394.516 222.944,1385.865 222.974,1366.510 229.873 M1917.717 633.523 C 1892.986 645.039,1873.742 667.391,1865.885 693.726 C 1855.503 728.526,1857.296 735.279,1899.243 819.349 C 1936.821 894.661,1954.853 940.040,1977.940 1017.394 C 1986.847 1047.236,1991.228 1055.435,2005.866 1069.662 C 2023.463 1086.764,2053.944 1100.000,2075.733 1100.000 C 2100.586 1100.000,2128.730 1087.651,2148.159 1068.222 C 2177.806 1038.575,2182.649 1009.378,2167.660 950.666 C 2147.479 871.621,2089.891 736.549,2051.427 678.045 C 2018.160 627.445,1967.205 610.479,1917.717 633.523 M1174.471 704.259 C 1150.887 710.084,1122.041 733.310,1111.298 755.122 L 1102.000 774.000 1100.749 986.501 L 1099.499 1199.002 1006.749 1200.792 C 922.308 1202.421,912.542 1203.335,897.727 1211.001 C 848.985 1236.221,828.320 1294.822,850.916 1343.747 C 859.917 1363.234,1133.049 1636.448,1154.000 1646.921 C 1186.927 1663.379,1225.829 1661.288,1252.538 1641.624 C 1275.143 1624.980,1424.878 1478.738,1486.604 1413.018 C 1518.614 1378.937,1547.575 1344.516,1550.962 1336.526 C 1554.349 1328.537,1557.017 1312.100,1556.890 1300.000 C 1556.500 1262.829,1538.824 1233.024,1505.630 1213.572 C 1488.527 1203.549,1485.840 1203.246,1394.302 1201.046 L 1300.501 1198.791 1299.250 986.396 C 1298.000 774.045,1297.998 773.996,1288.799 755.321 C 1269.455 716.053,1218.628 693.352,1174.471 704.259 M2042.992 1309.707 C 2024.937 1316.150,2002.198 1332.927,1993.474 1346.242 C 1989.975 1351.582,1979.319 1381.612,1969.794 1412.976 C 1947.776 1485.474,1935.317 1515.346,1895.128 1592.000 C 1864.875 1649.701,1862.626 1655.664,1862.689 1678.000 C 1862.806 1719.545,1880.291 1747.677,1918.000 1766.989 C 1951.209 1783.996,1990.321 1780.678,2021.364 1758.221 C 2058.919 1731.054,2137.221 1568.375,2165.933 1457.871 C 2177.208 1414.477,2178.119 1399.960,2171.278 1372.788 C 2164.715 1346.724,2133.276 1315.285,2107.212 1308.722 C 2083.110 1302.654,2061.843 1302.980,2042.992 1309.707 M1617.846 1882.379 C 1526.933 1930.652,1481.112 1949.792,1398.000 1974.211 C 1378.200 1980.028,1354.659 1989.006,1345.686 1994.161 C 1320.427 2008.672,1300.090 2045.243,1300.022 2076.274 C 1299.979 2096.176,1311.984 2126.541,1326.687 2143.718 C 1355.457 2177.330,1387.777 2183.117,1452.562 2166.257 C 1562.380 2137.678,1703.820 2072.031,1746.136 2030.000 C 1775.286 2001.045,1783.428 1966.058,1769.922 1927.778 C 1756.967 1891.061,1724.902 1866.526,1683.513 1861.662 C 1662.519 1859.195,1660.029 1859.980,1617.846 1882.379 " fill="#1D1E23" stroke="none" fill-rule="evenodd"/></svg>