<svg viewBox="0 0 2400 2400" fill="none" xmlns="http://www.w3.org/2000/svg"><path d="M1361.778 233.312 C 1323.505 251.480,1295.722 298.838,1301.896 335.384 C 1305.736 358.115,1326.102 390.631,1343.860 402.382 C 1352.497 408.098,1388.012 422.668,1422.782 434.761 C 1457.552 446.854,1511.200 468.489,1542.000 482.840 C 1650.695 533.485,1656.890 535.900,1678.215 535.951 C 1736.710 536.092,1787.343 476.640,1775.855 421.303 C 1767.005 378.673,1735.247 352.233,1635.245 304.236 C 1544.808 260.831,1462.231 232.984,1404.000 226.255 C 1385.676 224.138,1378.621 225.317,1361.778 233.312 M960.000 231.999 C 881.106 245.405,747.159 305.270,647.207 371.795 C 456.989 498.401,321.346 676.411,250.167 892.848 C 210.482 1013.521,202.356 1073.693,204.978 1227.465 C 206.479 1315.449,208.285 1341.314,215.350 1376.000 C 287.018 1727.875,511.487 2000.299,836.000 2129.245 C 882.250 2147.622,961.410 2172.900,988.803 2178.039 C 1020.796 2184.041,1070.030 2154.777,1088.949 2118.513 C 1107.858 2082.269,1093.788 2023.885,1060.901 2002.121 C 1052.206 1996.367,1020.096 1982.663,989.546 1971.667 C 866.930 1927.535,815.706 1903.926,759.384 1865.588 C 639.234 1783.801,553.237 1685.513,488.064 1555.489 C 441.747 1463.085,416.224 1372.486,407.636 1270.000 C 381.238 954.963,529.196 669.449,801.425 510.109 C 850.995 481.095,896.051 461.518,977.686 433.524 C 1013.059 421.394,1048.715 407.087,1056.922 401.730 C 1074.590 390.198,1094.790 356.800,1098.315 333.294 C 1101.577 311.543,1091.197 279.919,1074.586 261.001 C 1049.478 232.404,1012.581 223.065,960.000 231.999 M1940.000 627.702 C 1905.908 634.685,1876.828 661.981,1865.628 697.512 C 1856.759 725.647,1858.316 731.229,1900.908 824.000 C 1932.855 893.583,1956.457 952.006,1978.022 1014.876 C 1992.148 1056.061,2005.389 1072.244,2038.156 1088.375 C 2060.536 1099.393,2066.778 1100.785,2084.423 1098.696 C 2122.083 1094.235,2163.208 1060.407,2172.540 1026.212 C 2182.351 990.267,2158.123 900.967,2108.455 790.000 C 2064.272 691.288,2034.213 647.010,2002.649 634.142 C 1985.500 627.151,1956.998 624.221,1940.000 627.702 M1166.000 707.987 C 1149.942 713.044,1128.226 731.473,1113.798 752.286 L 1102.000 769.306 1100.807 984.653 L 1099.613 1200.000 1056.807 1200.173 C 973.368 1200.511,910.900 1206.358,892.960 1215.510 C 853.134 1235.828,829.730 1301.041,848.999 1338.000 C 863.581 1365.967,1077.297 1582.094,1145.494 1637.838 C 1162.615 1651.833,1167.798 1653.863,1190.039 1655.279 C 1235.257 1658.158,1239.949 1655.042,1353.732 1546.570 C 1439.470 1464.835,1537.609 1359.465,1548.011 1337.977 C 1568.060 1296.561,1547.839 1236.325,1506.871 1215.424 C 1489.312 1206.466,1425.853 1200.706,1339.337 1200.218 L 1300.674 1200.000 1298.970 991.000 C 1297.791 846.352,1295.822 777.524,1292.573 767.463 C 1286.392 748.319,1275.251 734.621,1253.931 719.952 C 1239.499 710.023,1231.393 707.614,1207.234 706.072 C 1191.155 705.047,1172.600 705.908,1166.000 707.987 M2054.000 1307.566 C 2025.249 1314.861,1998.734 1335.397,1989.905 1357.207 C 1986.166 1366.443,1974.235 1400.100,1963.393 1432.000 C 1952.372 1464.426,1926.653 1525.015,1905.065 1569.411 C 1872.900 1635.560,1866.171 1652.691,1864.775 1671.987 C 1860.659 1728.894,1896.327 1770.379,1953.304 1774.952 C 1987.231 1777.676,2013.918 1766.243,2038.062 1738.643 C 2082.886 1687.402,2167.272 1485.364,2174.491 1412.000 C 2176.955 1386.967,2169.764 1362.312,2153.955 1341.585 C 2135.602 1317.524,2083.988 1299.957,2054.000 1307.566 M1608.371 1887.979 C 1536.984 1923.112,1485.481 1944.768,1418.000 1968.027 C 1385.000 1979.401,1351.978 1992.401,1344.618 1996.916 C 1325.755 2008.487,1309.245 2032.999,1303.738 2057.610 C 1294.410 2099.291,1318.230 2146.717,1358.351 2166.347 C 1377.040 2175.490,1383.689 2176.749,1403.149 2174.827 C 1439.332 2171.252,1521.031 2146.779,1582.299 2121.161 C 1742.037 2054.370,1793.893 2001.938,1769.888 1931.489 C 1756.571 1892.405,1717.796 1864.000,1677.761 1864.000 C 1660.587 1864.000,1648.856 1868.054,1608.371 1887.979 " fill="#1D1E23" stroke="none" fill-rule="evenodd"/></svg>