<svg viewBox="0 0 2400 2400" fill="none" xmlns="http://www.w3.org/2000/svg"><path d="M928.028 238.378 C 618.720 324.481,362.071 565.283,256.825 868.135 C 216.299 984.749,202.157 1070.602,202.157 1200.000 C 202.157 1304.330,207.195 1349.445,228.499 1435.865 C 289.224 1682.196,435.612 1891.077,647.278 2033.420 C 733.411 2091.344,848.279 2142.308,952.000 2168.618 L 1002.000 2181.301 1025.165 2174.490 C 1093.101 2154.519,1120.586 2077.649,1080.851 2018.747 C 1066.376 1997.290,1044.712 1986.027,987.619 1970.279 C 762.342 1908.137,578.324 1753.439,477.255 1541.231 C 403.517 1386.409,382.196 1205.094,417.749 1035.187 C 479.088 742.050,703.637 505.289,993.707 427.905 C 1019.946 420.905,1048.150 410.720,1056.383 405.272 C 1085.524 385.987,1102.508 349.453,1098.842 313.935 C 1093.433 261.523,1052.019 223.977,1000.000 224.321 C 987.560 224.404,956.285 230.512,928.028 238.378 M1360.000 232.072 C 1325.206 248.308,1305.034 276.380,1301.155 313.963 C 1296.393 360.105,1325.679 405.105,1368.548 417.518 C 1481.498 450.223,1529.511 468.634,1584.925 500.491 C 1600.916 509.684,1621.493 521.501,1630.651 526.750 C 1668.980 548.719,1715.048 541.333,1748.531 507.850 C 1783.069 473.312,1788.451 423.252,1761.934 383.183 C 1729.451 334.098,1497.197 231.163,1406.000 225.433 C 1383.396 224.012,1374.531 225.292,1360.000 232.072 M1940.481 624.581 C 1896.969 632.477,1864.824 670.214,1861.005 717.882 C 1859.181 740.654,1860.106 743.897,1877.571 776.000 C 1927.540 867.849,1959.586 944.471,1973.969 1006.493 C 1981.856 1040.499,1992.541 1060.567,2010.757 1075.582 C 2075.239 1128.733,2176.039 1085.570,2176.591 1004.572 C 2177.033 939.706,2098.466 741.218,2040.992 662.000 C 2019.840 632.846,1978.908 617.608,1940.481 624.581 M1164.342 706.868 C 1154.630 710.299,1139.161 720.628,1129.967 729.823 C 1099.771 760.019,1100.000 758.006,1100.000 992.713 L 1100.000 1200.000 1015.000 1200.022 C 965.288 1200.035,923.390 1201.880,914.077 1204.465 C 859.968 1219.487,828.479 1278.739,846.045 1332.477 C 852.563 1352.415,863.567 1364.538,995.447 1497.082 C 1095.735 1597.874,1143.161 1642.789,1155.907 1649.043 C 1181.087 1661.400,1219.293 1661.148,1244.000 1648.461 C 1267.605 1636.341,1535.740 1368.745,1547.070 1346.000 C 1571.969 1296.021,1552.650 1237.675,1502.273 1210.710 C 1487.130 1202.605,1479.539 1201.912,1393.000 1200.734 L 1300.000 1199.468 1300.000 992.447 C 1300.000 758.120,1300.214 760.004,1270.105 729.895 C 1242.352 702.141,1202.370 693.437,1164.342 706.868 M2040.548 1309.477 C 2022.786 1315.905,1997.548 1337.404,1989.503 1352.960 C 1985.958 1359.817,1977.918 1384.607,1971.637 1408.048 C 1956.338 1465.150,1928.926 1532.473,1899.181 1586.000 C 1885.733 1610.200,1871.865 1635.400,1868.365 1642.000 C 1858.878 1659.887,1860.200 1701.862,1870.895 1722.273 C 1891.967 1762.492,1937.896 1785.369,1980.000 1776.619 C 2022.660 1767.753,2042.687 1745.991,2087.318 1660.000 C 2133.236 1571.528,2176.088 1446.099,2175.912 1400.680 C 2175.762 1362.008,2153.411 1327.530,2118.089 1311.484 C 2099.475 1303.029,2061.111 1302.035,2040.548 1309.477 M1651.670 1863.819 C 1645.988 1865.541,1623.488 1877.458,1601.670 1890.301 C 1537.034 1928.349,1470.209 1954.891,1370.694 1982.043 C 1297.982 2001.881,1276.536 2097.009,1332.649 2150.797 C 1369.469 2186.091,1406.740 2184.759,1526.238 2143.880 C 1605.653 2116.713,1721.782 2057.603,1748.779 2030.606 C 1787.841 1991.543,1784.281 1919.967,1741.516 1884.602 C 1717.104 1864.414,1678.879 1855.572,1651.670 1863.819 " fill="#1D1E23" stroke="none" fill-rule="evenodd"/></svg>