<svg viewBox="0 0 2400 2400" fill="none" xmlns="http://www.w3.org/2000/svg"><path d="M806.000 203.798 L 546.000 206.017 520.554 219.803 C 485.164 238.978,440.409 281.818,424.411 311.835 C 414.852 329.768,410.409 344.828,407.520 369.085 C 405.193 388.623,402.724 674.299,401.444 1072.000 C 399.304 1737.389,402.428 2032.781,411.947 2065.005 C 418.065 2085.718,459.133 2138.882,482.940 2156.907 C 493.769 2165.107,513.287 2176.730,526.314 2182.738 L 550.000 2193.661 686.000 2197.072 C 877.450 2201.873,1806.062 2198.045,1841.644 2192.308 C 1875.337 2186.875,1903.157 2171.687,1931.818 2143.078 C 1957.359 2117.584,1973.108 2095.285,1986.995 2064.950 L 1997.432 2042.153 1999.254 1420.624 L 2001.075 799.095 1701.548 499.548 L 1402.020 200.000 1234.010 200.790 C 1141.605 201.224,949.000 202.578,806.000 203.798 M1338.217 400.371 C 1357.698 412.553,1766.683 819.230,1797.638 857.200 L 1813.277 876.382 1805.189 887.191 L 1797.100 898.000 1563.550 897.480 C 1409.214 897.137,1326.385 895.519,1319.343 892.710 C 1309.863 888.928,1308.387 885.671,1305.985 863.229 C 1302.309 828.893,1305.638 403.765,1309.651 395.000 C 1313.899 385.723,1315.176 385.963,1338.217 400.371 " fill="#1D1E23" stroke="none" fill-rule="evenodd"/></svg>