<svg viewBox="0 0 2400 2400" fill="none" xmlns="http://www.w3.org/2000/svg"><path d="M636.000 203.790 L 546.000 206.000 518.713 219.341 C 479.674 238.428,439.750 277.297,421.728 313.761 C 408.220 341.094,407.359 345.361,403.876 402.240 C 399.431 474.858,399.106 1962.100,403.524 2016.875 C 406.213 2050.208,408.812 2060.105,421.762 2086.307 C 441.802 2126.855,473.213 2158.232,513.893 2178.337 C 541.415 2191.939,549.138 2193.851,587.325 2196.516 C 642.986 2200.400,1757.014 2200.400,1812.675 2196.516 C 1850.862 2193.851,1858.585 2191.939,1886.107 2178.337 C 1949.393 2147.059,1990.456 2088.430,1996.373 2020.900 C 1998.055 2001.705,1999.559 1718.704,1999.716 1392.010 L 2000.000 798.020 1701.010 499.010 L 1402.020 200.000 1064.010 200.790 C 878.105 201.225,685.500 202.575,636.000 203.790 M1569.226 621.000 C 1697.518 749.150,1804.921 858.935,1807.900 864.966 C 1816.489 882.359,1808.656 894.837,1787.212 897.923 C 1777.745 899.285,1667.913 899.860,1543.141 899.200 C 1331.653 898.081,1315.798 897.516,1309.141 890.860 C 1302.472 884.192,1301.922 867.837,1300.822 643.371 C 1299.737 421.811,1300.176 402.435,1306.442 395.511 C 1324.301 375.778,1320.272 372.321,1569.226 621.000 " fill="#1D1E23" stroke="none" fill-rule="evenodd"/></svg>