<svg viewBox="0 0 2400 2400" fill="none" xmlns="http://www.w3.org/2000/svg"><path d="M770.000 203.843 L 546.000 206.067 525.941 216.624 C 477.962 241.875,441.421 276.585,421.899 315.454 C 401.665 355.739,402.000 340.633,402.000 1212.000 C 402.000 2132.739,399.097 2052.839,434.447 2104.898 C 463.868 2148.226,504.348 2178.869,548.000 2190.859 C 572.444 2197.573,611.470 2198.000,1200.000 2198.000 C 1890.072 2198.000,1847.096 2199.514,1894.000 2173.553 C 1925.175 2156.298,1960.814 2117.559,1978.593 2081.603 L 1994.000 2050.445 1996.552 1902.223 C 1997.955 1820.700,1999.305 1538.895,1999.552 1275.990 L 2000.000 797.980 1700.990 498.990 L 1401.980 200.000 1197.990 200.809 C 1085.796 201.254,893.200 202.619,770.000 203.843 M1346.604 405.625 C 1378.062 429.324,1806.135 859.822,1809.835 871.482 C 1811.994 878.283,1810.311 883.332,1803.378 890.853 L 1794.000 901.025 1556.762 898.917 C 1337.881 896.971,1318.922 896.265,1311.762 889.784 C 1304.246 882.983,1304.000 875.252,1304.000 645.640 C 1304.000 501.253,1305.526 404.508,1307.901 398.260 C 1313.291 384.082,1319.601 385.283,1346.604 405.625 " fill="#1D1E23" stroke="none" fill-rule="evenodd"/></svg>