<svg viewBox="0 0 2400 2400" fill="none" xmlns="http://www.w3.org/2000/svg"><path d="M560.226 204.362 C 507.022 214.795,448.796 258.880,424.406 307.196 C 398.566 358.385,400.124 301.195,400.059 1200.803 C 400.017 1783.337,401.276 2025.723,404.420 2040.803 C 420.053 2115.765,484.235 2179.947,559.197 2195.580 C 589.114 2201.819,1810.886 2201.819,1840.803 2195.580 C 1915.765 2179.947,1979.947 2115.765,1995.580 2040.803 C 1998.695 2025.864,2000.000 1839.288,2000.000 1408.860 L 2000.000 798.113 1700.944 499.056 L 1401.887 200.000 989.944 200.438 C 763.375 200.679,570.002 202.445,560.226 204.362 M1575.000 625.370 C 1780.368 830.395,1812.000 863.536,1812.000 873.672 C 1812.000 880.106,1809.021 888.662,1805.380 892.685 C 1799.106 899.618,1786.145 900.000,1557.380 900.000 C 1321.333 900.000,1315.823 899.823,1308.000 892.000 C 1300.177 884.177,1300.000 878.667,1300.000 642.290 L 1300.000 400.581 1310.629 392.220 C 1317.451 386.854,1324.255 384.738,1329.629 386.313 C 1334.233 387.662,1444.650 495.238,1575.000 625.370 " fill="#1D1E23" stroke="none" fill-rule="evenodd"/></svg>