<svg viewBox="0 0 2400 2400" fill="none" xmlns="http://www.w3.org/2000/svg"><path d="M712.000 203.838 L 546.000 206.000 524.000 217.309 C 473.049 243.501,431.673 285.706,415.482 328.000 C 408.550 346.108,406.473 363.799,403.744 428.000 C 399.327 531.922,399.341 1940.020,403.760 2004.614 C 406.830 2049.494,408.698 2058.330,420.242 2082.614 C 438.010 2119.988,480.056 2162.011,517.490 2179.807 C 542.222 2191.565,550.250 2193.217,597.490 2196.265 C 626.371 2198.129,897.500 2199.654,1200.000 2199.654 C 1502.500 2199.654,1773.629 2198.129,1802.510 2196.265 C 1849.490 2193.233,1857.840 2191.531,1881.797 2180.097 C 1933.990 2155.188,1977.171 2103.642,1992.459 2048.000 C 1996.255 2034.182,1997.755 1886.929,1998.912 1414.220 L 2000.421 798.440 1701.220 499.220 L 1402.020 200.000 1140.010 200.838 C 995.905 201.298,803.300 202.648,712.000 203.838 M1354.222 410.868 C 1395.398 444.765,1797.296 849.318,1806.177 865.808 C 1813.804 879.972,1813.804 879.974,1804.786 888.987 L 1795.767 898.000 1562.883 898.000 C 1434.797 898.000,1325.077 896.623,1319.061 894.939 C 1311.810 892.910,1307.215 888.265,1305.432 881.162 C 1303.953 875.268,1302.576 764.881,1302.371 635.858 C 1301.979 388.261,1301.998 388.000,1319.711 388.000 C 1323.414 388.000,1338.944 398.291,1354.222 410.868 " fill="#1D1E23" stroke="none" fill-rule="evenodd"/></svg>