<svg viewBox="0 0 2400 2400" fill="none" xmlns="http://www.w3.org/2000/svg"><path d="M1650.000 467.286 C 1622.321 480.402,1571.651 528.638,1261.828 836.805 L 960.033 1136.988 887.772 1066.436 C 767.059 948.579,752.559 938.788,698.000 938.297 C 670.683 938.051,662.653 939.651,643.130 949.235 C 580.142 980.154,547.482 1046.893,565.316 1108.240 C 574.240 1138.936,599.743 1168.684,719.555 1288.150 C 831.690 1399.962,855.447 1420.059,890.559 1432.805 C 940.929 1451.091,1020.826 1445.668,1057.469 1421.478 C 1080.920 1405.996,1206.643 1284.344,1499.662 993.599 C 1778.760 716.669,1820.092 673.312,1832.932 644.000 C 1858.300 586.087,1826.688 509.813,1763.250 475.872 C 1740.899 463.913,1733.867 462.210,1702.000 461.033 C 1673.006 459.962,1662.886 461.179,1650.000 467.286 M736.487 1803.801 L 554.975 1806.000 533.655 1829.463 C 498.694 1867.938,492.334 1901.375,512.177 1942.365 C 525.072 1969.002,544.057 1986.351,566.758 1992.242 C 590.991 1998.530,1661.105 2002.560,1766.612 1996.761 C 1846.998 1992.342,1856.958 1988.922,1877.553 1958.666 C 1904.760 1918.697,1905.187 1881.280,1878.889 1841.577 C 1856.141 1807.234,1854.423 1806.919,1672.000 1803.559 C 1495.747 1800.314,1014.145 1800.438,736.487 1803.801 " fill="#1D1E23" stroke="none" fill-rule="evenodd"/></svg>