<svg viewBox="0 0 2400 2400" fill="none" xmlns="http://www.w3.org/2000/svg"><path d="M1658.724 463.802 C 1629.203 473.367,1579.657 520.361,1197.263 901.493 L 960.526 1137.449 889.821 1068.503 C 769.488 951.161,752.882 940.105,696.886 940.039 C 668.260 940.005,660.661 941.570,640.821 951.586 C 613.688 965.282,582.881 996.749,570.777 1023.131 C 564.220 1037.423,562.105 1049.762,562.060 1074.000 C 562.007 1102.064,563.461 1108.638,573.877 1127.444 C 602.046 1178.301,827.425 1401.420,873.366 1423.929 C 905.267 1439.558,938.149 1445.451,978.174 1442.710 C 1026.668 1439.388,1051.073 1428.479,1091.902 1391.871 C 1138.090 1350.459,1546.419 949.010,1680.151 813.535 C 1789.121 703.144,1825.684 662.584,1832.623 644.399 C 1851.005 596.219,1837.946 542.577,1798.146 502.777 C 1770.936 475.568,1744.353 464.075,1703.656 461.926 C 1685.145 460.949,1664.926 461.793,1658.724 463.802 M810.550 1803.542 L 555.099 1806.000 536.939 1826.000 C 516.922 1848.046,500.100 1880.204,500.039 1896.541 C 499.970 1915.284,512.853 1947.556,527.004 1964.089 C 553.040 1994.506,545.460 1993.364,742.000 1996.480 C 1000.208 2000.573,1717.524 2000.303,1778.577 1996.089 C 1807.495 1994.093,1837.195 1989.879,1844.577 1986.723 C 1883.975 1969.882,1908.471 1908.395,1892.002 1867.686 C 1882.743 1844.800,1867.230 1823.807,1854.842 1817.401 C 1847.731 1813.724,1823.934 1809.999,1794.547 1807.964 C 1727.259 1803.303,1119.331 1800.571,810.550 1803.542 " fill="#1D1E23" stroke="none" fill-rule="evenodd"/></svg>