<svg viewBox="0 0 2400 2400" fill="none" xmlns="http://www.w3.org/2000/svg"><path d="M1622.399 487.939 C 1584.555 518.013,1480.403 619.407,1185.344 913.423 L 960.689 1137.285 883.344 1062.626 C 793.948 976.334,766.369 954.355,736.318 945.456 C 707.026 936.782,664.074 939.622,640.301 951.805 C 616.081 964.218,581.394 999.870,571.096 1022.936 C 559.085 1049.840,558.926 1099.545,570.778 1122.000 C 584.305 1147.626,627.783 1196.381,711.710 1280.036 C 813.485 1381.481,860.779 1420.945,893.710 1431.903 C 946.678 1449.530,1005.939 1446.096,1049.506 1422.874 C 1078.779 1407.272,1212.802 1278.598,1548.288 944.000 C 1782.723 710.186,1826.263 663.542,1835.415 636.403 C 1848.810 596.681,1835.743 545.493,1803.085 509.760 C 1771.665 475.382,1751.366 466.712,1697.774 464.780 L 1653.549 463.186 1622.399 487.939 M579.158 1806.806 C 552.826 1808.329,552.008 1808.716,536.106 1827.179 C 516.430 1850.024,500.000 1881.630,500.000 1896.635 C 500.000 1929.708,532.674 1980.226,559.197 1988.162 C 585.885 1996.146,918.451 2000.490,1364.000 1998.675 C 1670.463 1997.426,1805.016 1995.541,1821.875 1992.260 C 1865.670 1983.738,1891.591 1952.650,1895.035 1904.514 C 1896.691 1881.363,1895.554 1874.872,1886.852 1857.813 C 1872.225 1829.137,1857.188 1816.499,1831.634 1811.407 C 1810.942 1807.283,644.987 1803.000,579.158 1806.806 " fill="#1D1E23" stroke="none" fill-rule="evenodd"/></svg>