<svg viewBox="0 0 2400 2400" fill="none" xmlns="http://www.w3.org/2000/svg"><path d="M394.000 407.740 C 340.139 409.914,337.160 410.490,316.000 422.818 C 267.007 451.361,231.818 489.310,215.648 531.038 C 206.978 553.413,206.659 560.029,203.146 790.000 C 201.164 919.800,200.117 1209.738,200.820 1434.307 L 202.099 1842.614 216.865 1872.307 C 241.316 1921.473,279.713 1961.313,323.328 1982.768 C 343.411 1992.647,349.482 1993.442,427.328 1996.385 C 536.381 2000.508,1843.526 2000.473,1962.825 1996.344 C 2053.911 1993.191,2056.083 1992.917,2078.825 1981.666 C 2108.095 1967.185,2163.133 1913.498,2177.140 1885.765 C 2197.408 1845.633,2197.000 1856.884,2198.816 1289.380 L 2200.520 756.761 2189.722 735.380 C 2164.437 685.316,2132.563 651.535,2084.256 623.606 L 2052.442 605.212 1627.507 602.279 L 1202.572 599.346 1138.286 537.256 C 1063.942 465.451,1021.422 430.019,996.000 418.688 C 980.701 411.868,965.097 410.206,892.000 407.605 C 795.735 404.180,480.104 404.266,394.000 407.740 M1936.537 811.881 C 1974.179 822.858,1987.661 847.285,1992.862 913.929 C 1997.208 969.631,1997.910 1559.661,1993.756 1665.333 C 1990.953 1736.622,1990.944 1736.677,1978.476 1755.045 C 1960.336 1781.769,1949.634 1788.022,1913.632 1792.934 C 1892.091 1795.872,1657.408 1797.368,1178.000 1797.623 C 492.965 1797.986,473.623 1797.791,460.000 1790.378 C 436.937 1777.829,423.555 1766.644,417.382 1754.757 C 414.171 1748.573,409.687 1722.473,407.418 1696.757 C 402.579 1641.904,401.431 1070.773,405.907 944.982 C 408.931 860.006,408.939 859.954,420.576 842.385 C 442.080 809.920,439.626 810.329,630.000 807.531 C 900.472 803.556,1919.624 806.950,1936.537 811.881 " fill="#1D1E23" stroke="none" fill-rule="evenodd"/></svg>