<svg viewBox="0 0 2400 2400" fill="none" xmlns="http://www.w3.org/2000/svg"><path d="M506.000 404.266 C 335.427 407.472,330.599 408.189,287.980 436.649 C 259.803 455.464,234.506 485.580,213.774 524.989 L 199.575 551.979 201.052 1156.989 C 202.649 1810.886,201.634 1780.773,223.515 1823.227 C 237.772 1850.888,282.091 1892.797,313.126 1907.965 C 339.319 1920.766,342.555 1921.332,407.126 1924.389 C 493.855 1928.495,1905.500 1928.526,1992.073 1924.424 C 2055.569 1921.415,2059.237 1920.774,2086.073 1908.001 C 2122.762 1890.539,2160.657 1852.673,2182.148 1812.000 L 2198.000 1782.000 2198.000 1272.000 C 2198.000 794.588,2197.543 760.345,2190.852 736.099 C 2176.138 682.782,2139.556 640.817,2083.142 612.539 L 2050.000 595.926 1624.000 593.312 L 1198.000 590.698 1100.000 495.395 L 1002.000 400.092 830.000 400.751 C 735.400 401.113,589.600 402.695,506.000 404.266 M1018.000 688.000 L 1118.000 783.773 1559.000 783.886 L 2000.000 784.000 2000.000 1262.000 L 2000.000 1740.000 1200.000 1740.000 L 400.000 1740.000 400.000 1166.000 L 400.000 592.000 659.000 592.114 L 918.000 592.227 1018.000 688.000 M1460.000 884.503 C 1394.857 895.067,1328.974 955.034,1308.037 1022.822 C 1298.435 1053.911,1297.937 1074.400,1306.032 1105.476 C 1325.731 1181.107,1382.947 1237.250,1455.722 1252.358 C 1468.276 1254.964,1494.960 1256.157,1516.981 1255.096 C 1570.244 1252.531,1602.673 1236.959,1642.865 1194.647 C 1688.801 1146.289,1705.959 1098.174,1696.380 1044.576 C 1689.026 1003.426,1672.025 970.991,1642.837 942.428 C 1591.623 892.309,1530.761 873.028,1460.000 884.503 M1421.671 1364.248 C 1290.080 1374.391,1126.144 1452.893,1108.146 1514.380 C 1105.632 1522.971,1102.506 1555.650,1101.200 1587.000 L 1098.825 1644.000 1499.964 1644.000 L 1901.103 1644.000 1898.849 1587.000 C 1896.209 1520.266,1893.007 1507.289,1873.576 1484.589 C 1836.307 1441.049,1736.487 1393.256,1643.165 1374.271 C 1615.590 1368.662,1497.585 1359.240,1472.000 1360.605 C 1466.500 1360.899,1443.852 1362.538,1421.671 1364.248 " fill="#1D1E23" stroke="none" fill-rule="evenodd"/></svg>