<svg viewBox="0 0 2400 2400" fill="none" xmlns="http://www.w3.org/2000/svg"><path d="M354.000 407.758 C 333.726 411.252,312.192 422.438,281.897 445.212 C 240.162 476.585,215.518 514.852,207.604 560.577 C 202.071 592.536,198.137 1580.067,202.903 1740.394 L 206.184 1850.787 221.659 1882.098 C 241.488 1922.220,278.864 1960.391,317.256 1979.729 C 344.466 1993.434,344.640 1993.462,419.256 1996.439 C 518.878 2000.413,1867.364 2000.367,1972.672 1996.385 C 2050.612 1993.439,2056.565 1992.657,2076.672 1982.737 C 2123.716 1959.528,2168.427 1912.496,2185.748 1868.000 C 2189.861 1857.436,2194.201 1830.172,2196.255 1802.000 C 2198.180 1775.600,2199.810 1529.658,2199.877 1255.463 L 2200.000 756.926 2183.365 723.690 C 2161.561 680.129,2126.115 644.384,2081.921 621.394 L 2050.000 604.789 1626.000 601.920 L 1202.000 599.051 1144.000 542.492 C 1070.663 470.978,1027.431 433.987,1002.000 420.991 C 985.285 412.449,973.788 410.246,932.000 407.573 C 871.551 403.708,376.586 403.866,354.000 407.758 " fill="#1D1E23" stroke="none" fill-rule="evenodd"/></svg>