<svg viewBox="0 0 2400 2400" fill="none" xmlns="http://www.w3.org/2000/svg"><path d="M396.000 404.077 C 365.198 405.754,339.154 409.377,328.171 413.515 C 281.812 430.976,239.871 470.689,216.832 518.938 L 202.000 550.000 200.960 1135.800 C 200.389 1457.990,201.514 1737.486,203.462 1756.902 C 208.107 1803.218,223.436 1834.992,257.634 1869.190 C 291.384 1902.940,326.603 1920.273,369.847 1924.416 C 411.834 1928.439,1988.166 1928.439,2030.153 1924.416 C 2100.867 1917.641,2162.406 1868.121,2189.210 1796.425 C 2197.510 1774.224,2197.608 1769.430,2199.014 1316.000 C 2199.795 1064.100,2198.838 829.134,2196.888 793.853 C 2193.522 732.982,2192.673 728.349,2180.266 703.146 C 2158.416 658.764,2116.390 621.998,2065.843 603.048 L 2042.000 594.109 1620.945 592.792 L 1199.890 591.476 1100.304 495.738 L 1000.719 400.000 723.359 400.677 C 570.812 401.050,423.500 402.580,396.000 404.077 M1018.000 687.973 L 1118.000 783.785 1559.000 783.892 L 2000.000 784.000 2000.000 1262.000 L 2000.000 1740.000 1200.000 1740.000 L 400.000 1740.000 400.000 1166.000 L 400.000 592.000 659.000 592.080 L 918.000 592.160 1018.000 687.973 M1454.041 884.701 C 1420.301 891.135,1386.383 910.081,1358.880 937.855 C 1307.965 989.274,1290.044 1047.859,1306.171 1110.160 C 1315.646 1146.759,1326.986 1166.775,1355.180 1196.662 C 1401.269 1245.519,1456.913 1264.444,1530.283 1256.215 C 1573.171 1251.406,1606.502 1234.178,1642.271 1198.332 C 1692.776 1147.717,1709.206 1093.556,1693.835 1028.347 C 1685.485 992.921,1670.210 966.322,1641.983 938.053 C 1594.118 890.116,1526.421 870.898,1454.041 884.701 M1390.000 1366.175 C 1283.816 1385.830,1181.967 1427.979,1137.795 1470.547 C 1106.811 1500.407,1102.565 1513.292,1100.741 1583.000 L 1099.145 1644.000 1499.573 1644.000 L 1900.000 1644.000 1900.000 1596.546 C 1900.000 1536.257,1895.356 1511.980,1879.634 1490.088 C 1845.527 1442.596,1752.977 1397.606,1636.000 1371.654 C 1585.118 1360.365,1438.972 1357.111,1390.000 1366.175 " fill="#1D1E23" stroke="none" fill-rule="evenodd"/></svg>