<svg viewBox="0 0 2400 2400" fill="none" xmlns="http://www.w3.org/2000/svg"><path d="M548.000 404.113 C 352.442 407.269,331.088 409.613,297.083 431.661 C 265.765 451.966,232.893 488.574,214.433 523.704 L 199.128 552.829 201.133 1149.415 C 202.506 1557.977,204.535 1754.554,207.572 1773.140 C 213.597 1810.010,226.991 1834.574,257.470 1864.650 C 287.969 1894.746,318.812 1914.187,346.124 1920.532 C 371.899 1926.520,1831.475 1930.210,1964.000 1924.622 C 2067.058 1920.277,2076.615 1917.989,2116.000 1888.234 C 2145.019 1866.310,2168.530 1837.907,2187.382 1802.000 L 2199.983 1778.000 2199.681 1356.000 C 2199.515 1123.900,2198.123 889.714,2196.587 835.586 L 2193.795 737.171 2179.151 707.540 C 2159.175 667.121,2129.042 637.468,2084.760 614.652 L 2050.000 596.742 1624.046 593.797 L 1198.092 590.853 1100.046 495.496 L 1002.000 400.139 860.000 400.755 C 781.900 401.093,641.500 402.605,548.000 404.113 M1018.000 688.000 L 1118.000 783.773 1559.000 783.886 L 2000.000 784.000 2000.000 1262.000 L 2000.000 1740.000 1200.000 1740.000 L 400.000 1740.000 400.000 1166.000 L 400.000 592.000 659.000 592.114 L 918.000 592.227 1018.000 688.000 M1469.861 884.017 C 1371.070 894.691,1283.316 1007.108,1303.936 1096.575 C 1321.616 1173.285,1380.815 1235.254,1452.111 1251.682 C 1497.036 1262.034,1560.171 1253.908,1596.000 1233.161 C 1621.512 1218.388,1664.048 1173.359,1678.725 1145.587 C 1693.902 1116.869,1701.652 1081.381,1698.174 1056.523 C 1693.705 1024.582,1679.899 988.668,1663.905 967.383 C 1617.060 905.038,1548.383 875.532,1469.861 884.017 M1425.006 1364.054 C 1300.591 1376.938,1154.980 1439.402,1117.565 1495.939 C 1106.557 1512.574,1100.082 1555.063,1100.030 1611.000 L 1100.000 1644.000 1500.594 1644.000 L 1901.187 1644.000 1899.003 1588.831 C 1897.802 1558.488,1894.446 1525.638,1891.545 1515.831 C 1878.334 1471.164,1792.406 1416.140,1688.602 1385.874 C 1628.712 1368.412,1492.111 1357.105,1425.006 1364.054 " fill="#1D1E23" stroke="none" fill-rule="evenodd"/></svg>