<svg viewBox="0 0 2400 2400" fill="none" xmlns="http://www.w3.org/2000/svg"><path d="M360.226 404.287 C 306.746 414.998,248.774 458.923,224.406 507.196 C 198.837 557.848,200.124 521.170,200.059 1200.803 C 200.017 1637.327,201.302 1825.850,204.420 1840.803 C 220.053 1915.765,284.235 1979.947,359.197 1995.580 C 389.211 2001.839,2010.789 2001.839,2040.803 1995.580 C 2115.765 1979.947,2179.947 1915.765,2195.580 1840.803 C 2201.803 1810.962,2201.803 789.038,2195.580 759.197 C 2181.788 693.062,2134.082 638.710,2066.000 611.568 L 2042.000 602.000 1622.187 600.893 L 1202.374 599.786 1126.075 524.380 C 1083.407 482.211,1038.495 441.682,1024.184 432.433 C 974.995 400.640,993.427 402.244,668.000 401.442 C 508.500 401.049,370.002 402.330,360.226 404.287 M1934.017 806.625 C 1945.651 810.589,1960.290 820.080,1970.465 830.255 C 2001.529 861.318,2000.000 837.006,2000.000 1300.000 C 2000.000 1762.994,2001.529 1738.682,1970.465 1769.745 C 1937.640 1802.571,2003.111 1800.000,1200.000 1800.000 C 397.685 1800.000,462.298 1802.508,429.895 1770.105 C 398.228 1738.438,400.000 1766.311,400.000 1300.000 C 400.000 833.573,398.215 861.574,429.967 829.823 C 461.583 798.207,397.469 800.669,1198.287 800.316 C 1855.030 800.026,1916.191 800.551,1934.017 806.625 " fill="#1D1E23" stroke="none" fill-rule="evenodd"/></svg>