<svg viewBox="0 0 2400 2400" fill="none" xmlns="http://www.w3.org/2000/svg"><path d="M354.000 407.758 C 333.726 411.252,312.192 422.438,281.897 445.212 C 240.162 476.585,215.518 514.852,207.604 560.577 C 202.071 592.536,198.137 1580.067,202.903 1740.394 L 206.184 1850.787 221.659 1882.098 C 241.488 1922.220,278.864 1960.391,317.256 1979.729 C 344.466 1993.434,344.640 1993.462,419.256 1996.439 C 518.878 2000.413,1867.364 2000.367,1972.672 1996.385 C 2050.612 1993.439,2056.565 1992.657,2076.672 1982.737 C 2123.716 1959.528,2168.427 1912.496,2185.748 1868.000 C 2189.861 1857.436,2194.201 1830.172,2196.255 1802.000 C 2198.180 1775.600,2199.810 1529.658,2199.877 1255.463 L 2200.000 756.926 2183.365 723.690 C 2161.561 680.129,2126.115 644.384,2081.921 621.394 L 2050.000 604.789 1626.000 601.920 L 1202.000 599.051 1144.000 542.492 C 1070.663 470.978,1027.431 433.987,1002.000 420.991 C 985.285 412.449,973.788 410.246,932.000 407.573 C 871.551 403.708,376.586 403.866,354.000 407.758 M1913.236 807.707 C 1950.342 811.599,1968.424 823.291,1983.346 853.042 C 1992.365 871.023,1992.832 876.753,1996.677 1016.838 C 1999.215 1109.267,1999.379 1265.168,1997.130 1446.000 L 1993.597 1730.000 1982.003 1751.294 C 1967.160 1778.553,1953.439 1788.083,1922.725 1792.462 C 1885.916 1797.710,978.270 1801.146,703.319 1797.078 L 464.639 1793.546 445.704 1781.773 C 416.797 1763.799,412.035 1754.964,407.943 1711.719 C 401.665 1645.367,399.246 1341.307,403.072 1099.390 L 406.782 864.781 417.356 846.738 C 434.588 817.333,449.975 810.401,504.000 807.701 C 576.823 804.061,1878.530 804.067,1913.236 807.707 " fill="#1D1E23" stroke="none" fill-rule="evenodd"/></svg>