<svg viewBox="0 0 2400 2400" fill="none" xmlns="http://www.w3.org/2000/svg"><path d="M394.000 407.740 C 340.139 409.914,337.160 410.490,316.000 422.818 C 267.007 451.361,231.818 489.310,215.648 531.038 C 206.978 553.413,206.659 560.029,203.146 790.000 C 201.164 919.800,200.117 1209.738,200.820 1434.307 L 202.099 1842.614 216.865 1872.307 C 241.316 1921.473,279.713 1961.313,323.328 1982.768 C 343.411 1992.647,349.482 1993.442,427.328 1996.385 C 536.381 2000.508,1843.526 2000.473,1962.825 1996.344 C 2053.911 1993.191,2056.083 1992.917,2078.825 1981.666 C 2108.095 1967.185,2163.133 1913.498,2177.140 1885.765 C 2197.408 1845.633,2197.000 1856.884,2198.816 1289.380 L 2200.520 756.761 2189.722 735.380 C 2164.437 685.316,2132.563 651.535,2084.256 623.606 L 2052.442 605.212 1627.507 602.279 L 1202.572 599.346 1138.286 537.256 C 1063.942 465.451,1021.422 430.019,996.000 418.688 C 980.701 411.868,965.097 410.206,892.000 407.605 C 795.735 404.180,480.104 404.266,394.000 407.740 " fill="#1D1E23" stroke="none" fill-rule="evenodd"/></svg>