<svg viewBox="0 0 2400 2400" fill="none" xmlns="http://www.w3.org/2000/svg"><path d="M454.000 403.701 L 346.000 406.023 324.000 417.321 C 273.065 443.478,231.649 485.725,215.499 528.000 C 201.375 564.973,199.552 657.135,200.943 1264.000 C 202.175 1801.535,202.662 1835.253,209.498 1856.000 C 226.786 1908.466,268.134 1955.749,318.337 1980.464 C 344.228 1993.211,347.486 1993.783,409.593 1996.511 C 498.408 2000.412,1906.202 2000.303,1988.874 1996.389 C 2053.486 1993.330,2056.665 1992.774,2082.874 1979.943 C 2119.911 1961.811,2162.312 1919.311,2179.559 1883.031 C 2190.408 1860.209,2192.985 1848.829,2196.315 1809.031 C 2198.708 1780.433,2199.809 1564.460,2199.125 1258.000 L 2198.000 754.000 2183.065 722.721 C 2162.106 678.827,2129.485 645.709,2084.142 622.290 L 2049.257 604.273 1625.629 601.541 L 1202.000 598.810 1136.962 535.462 C 1060.195 460.689,1025.268 431.146,998.000 417.919 C 980.515 409.438,970.706 407.958,920.000 406.154 C 820.380 402.610,566.830 401.275,454.000 403.701 M1922.481 806.352 C 1948.155 809.440,1974.968 828.653,1984.896 851.076 C 1992.281 867.756,1993.712 882.094,1996.966 972.000 C 2001.274 1091.049,1997.842 1696.976,1992.700 1725.224 C 1988.459 1748.519,1970.843 1774.706,1951.945 1785.808 C 1938.547 1793.679,1929.373 1794.128,1718.000 1797.270 C 1411.281 1801.829,490.901 1797.853,467.125 1791.866 C 446.154 1786.586,422.626 1768.680,413.521 1751.073 C 402.747 1730.239,398.986 1561.277,401.523 1212.000 C 402.793 1037.100,405.346 884.562,407.196 873.026 C 411.191 848.109,427.073 826.420,450.213 814.282 C 465.509 806.257,473.275 805.933,700.000 803.860 C 965.357 801.432,1897.377 803.333,1922.481 806.352 " fill="#1D1E23" stroke="none" fill-rule="evenodd"/></svg>