<svg viewBox="0 0 2400 2400" fill="none" xmlns="http://www.w3.org/2000/svg"><path d="M456.000 404.074 C 338.655 406.980,328.174 408.915,288.928 434.914 C 259.969 454.098,234.613 484.119,215.827 521.463 L 200.000 552.926 200.143 1131.463 C 200.221 1449.658,201.845 1727.100,203.750 1748.000 C 208.696 1802.238,218.672 1825.484,252.581 1861.794 C 274.100 1884.836,287.686 1895.361,310.395 1906.585 C 338.334 1920.393,343.197 1921.442,393.040 1924.416 C 462.126 1928.538,1937.874 1928.538,2006.960 1924.416 C 2057.036 1921.428,2061.569 1920.441,2090.214 1906.284 C 2127.971 1887.623,2157.495 1858.413,2178.297 1819.136 L 2193.729 1790.000 2196.513 1712.000 C 2200.583 1597.984,2200.310 842.889,2196.177 782.429 C 2192.929 734.917,2191.523 728.574,2178.316 701.850 C 2159.458 663.695,2126.117 632.486,2081.173 610.920 L 2048.119 595.060 1623.347 592.926 L 1198.574 590.792 1100.287 495.558 L 1002.000 400.323 782.000 400.886 C 661.000 401.196,514.300 402.631,456.000 404.074 M1018.000 688.000 L 1118.000 783.773 1559.000 783.886 L 2000.000 784.000 2000.000 1262.000 L 2000.000 1740.000 1200.000 1740.000 L 400.000 1740.000 400.000 1166.000 L 400.000 592.000 659.000 592.114 L 918.000 592.227 1018.000 688.000 M1458.212 884.252 C 1387.282 896.119,1316.559 967.367,1302.922 1040.696 C 1294.334 1086.876,1311.192 1144.815,1344.950 1185.135 C 1386.117 1234.304,1434.797 1256.807,1500.000 1256.807 C 1548.345 1256.807,1581.016 1246.842,1614.000 1222.036 C 1673.520 1177.272,1704.495 1117.093,1698.439 1057.983 C 1693.175 1006.603,1675.385 971.071,1637.325 935.925 C 1586.789 889.257,1528.613 872.473,1458.212 884.252 M1414.000 1364.010 C 1321.838 1372.250,1193.584 1421.618,1142.331 1468.581 C 1107.493 1500.504,1103.446 1511.885,1100.937 1585.000 L 1098.913 1644.000 1499.952 1644.000 L 1900.990 1644.000 1899.154 1585.000 C 1897.080 1518.345,1892.923 1503.756,1868.805 1478.491 C 1828.336 1436.098,1736.127 1393.380,1642.638 1373.713 C 1589.138 1362.459,1482.141 1357.919,1414.000 1364.010 " fill="#1D1E23" stroke="none" fill-rule="evenodd"/></svg>