<svg viewBox="0 0 2400 2400" fill="none" xmlns="http://www.w3.org/2000/svg"><path d="M353.051 406.056 C 289.111 419.948,235.113 467.523,210.587 531.575 L 202.000 554.000 200.924 1153.998 C 200.191 1562.177,201.192 1760.474,204.054 1774.258 C 217.884 1840.878,272.045 1899.338,339.133 1920.059 C 364.431 1927.873,378.213 1928.000,1200.000 1928.000 C 2021.787 1928.000,2035.569 1927.873,2060.867 1920.059 C 2126.300 1899.849,2176.868 1847.129,2194.033 1781.227 C 2203.145 1746.244,2202.991 773.165,2193.868 738.140 C 2176.110 669.961,2121.137 616.697,2049.187 597.956 C 2029.649 592.867,1966.200 592.000,1613.489 592.000 L 1200.659 592.000 1100.578 496.000 L 1000.497 400.000 689.248 400.318 C 443.266 400.569,372.768 401.773,353.051 406.056 M1018.000 687.918 L 1118.000 783.661 1559.000 783.831 L 2000.000 784.000 2000.000 1262.000 L 2000.000 1740.000 1200.000 1740.000 L 400.000 1740.000 400.000 1166.000 L 400.000 592.000 659.000 592.087 L 918.000 592.174 1018.000 687.918 M1440.000 887.543 C 1403.535 899.332,1383.307 911.854,1355.927 939.589 C 1315.027 981.020,1296.984 1027.753,1301.112 1081.565 C 1306.785 1155.505,1355.972 1218.858,1430.639 1248.397 C 1450.269 1256.163,1461.347 1257.639,1500.000 1257.639 C 1538.653 1257.639,1549.731 1256.163,1569.361 1248.397 C 1623.573 1226.950,1669.558 1182.371,1687.821 1133.561 C 1726.042 1031.404,1666.246 919.075,1556.274 886.446 C 1526.810 877.704,1468.737 878.252,1440.000 887.543 M1430.000 1360.375 C 1292.672 1377.120,1159.217 1432.548,1121.035 1488.697 C 1102.756 1515.578,1100.000 1528.665,1100.000 1588.597 L 1100.000 1644.000 1500.282 1644.000 L 1900.563 1644.000 1899.282 1583.000 C 1898.212 1532.108,1896.694 1519.349,1890.116 1506.000 C 1860.183 1445.258,1750.873 1391.381,1606.000 1365.967 C 1560.914 1358.058,1472.135 1355.237,1430.000 1360.375 " fill="#1D1E23" stroke="none" fill-rule="evenodd"/></svg>