<svg viewBox="0 0 2400 2400" fill="none" xmlns="http://www.w3.org/2000/svg"><path d="M500.000 303.598 C 448.117 306.076,444.781 306.769,414.898 321.288 C 354.937 350.420,311.818 408.304,303.817 470.404 C 299.190 506.323,299.190 893.677,303.817 929.596 C 308.747 967.864,330.386 1010.386,360.000 1040.000 C 389.614 1069.614,432.136 1091.253,470.404 1096.183 C 506.323 1100.810,893.677 1100.810,929.596 1096.183 C 1014.052 1085.302,1086.162 1011.233,1096.635 924.605 C 1098.917 905.731,1099.978 801.551,1099.176 675.100 L 1097.800 458.000 1088.275 434.000 C 1067.352 381.284,1034.259 345.729,982.797 320.674 L 950.000 304.707 752.000 302.864 C 643.100 301.850,529.700 302.180,500.000 303.598 M1500.000 303.598 C 1448.117 306.076,1444.781 306.769,1414.898 321.288 C 1356.108 349.851,1312.693 407.288,1303.899 468.137 C 1301.843 482.362,1300.161 586.700,1300.161 700.000 C 1300.161 813.300,1301.843 917.638,1303.899 931.863 C 1315.584 1012.719,1389.611 1085.774,1470.404 1096.183 C 1506.323 1100.810,1893.677 1100.810,1929.596 1096.183 C 2014.052 1085.302,2086.162 1011.233,2096.635 924.605 C 2098.917 905.731,2099.978 801.551,2099.176 675.100 L 2097.800 458.000 2088.275 434.000 C 2067.352 381.284,2034.259 345.729,1982.797 320.674 L 1950.000 304.707 1752.000 302.864 C 1643.100 301.850,1529.700 302.180,1500.000 303.598 M500.000 1303.598 C 448.117 1306.076,444.781 1306.769,414.898 1321.288 C 354.937 1350.420,311.818 1408.304,303.817 1470.404 C 299.190 1506.323,299.190 1893.677,303.817 1929.596 C 314.379 2011.574,388.426 2085.621,470.404 2096.183 C 485.582 2098.138,588.900 2099.738,700.000 2099.738 C 811.100 2099.738,914.418 2098.138,929.596 2096.183 C 1014.052 2085.302,1086.162 2011.233,1096.635 1924.605 C 1098.917 1905.731,1099.978 1801.551,1099.176 1675.100 L 1097.800 1458.000 1088.275 1434.000 C 1067.352 1381.284,1034.259 1345.729,982.797 1320.674 L 950.000 1304.707 752.000 1302.864 C 643.100 1301.850,529.700 1302.180,500.000 1303.598 M1500.000 1303.598 C 1448.117 1306.076,1444.781 1306.769,1414.898 1321.288 C 1356.108 1349.851,1312.693 1407.288,1303.899 1468.137 C 1301.843 1482.362,1300.161 1586.700,1300.161 1700.000 C 1300.161 1813.300,1301.843 1917.638,1303.899 1931.863 C 1315.584 2012.719,1389.611 2085.774,1470.404 2096.183 C 1485.582 2098.138,1588.900 2099.738,1700.000 2099.738 C 1811.100 2099.738,1914.418 2098.138,1929.596 2096.183 C 2014.052 2085.302,2086.162 2011.233,2096.635 1924.605 C 2098.917 1905.731,2099.978 1801.551,2099.176 1675.100 L 2097.800 1458.000 2088.275 1434.000 C 2067.352 1381.284,2034.259 1345.729,1982.797 1320.674 L 1950.000 1304.707 1752.000 1302.864 C 1643.100 1301.850,1529.700 1302.180,1500.000 1303.598 " fill="#1D1E23" stroke="none" fill-rule="evenodd"/></svg>