<svg viewBox="0 0 2400 2400" fill="none" xmlns="http://www.w3.org/2000/svg"><path d="M452.000 307.771 C 411.615 315.996,359.162 354.897,331.841 396.885 C 302.269 442.333,302.000 445.102,302.000 704.000 C 302.000 917.811,302.524 935.548,309.451 956.000 C 330.334 1017.658,377.416 1066.156,438.323 1088.747 C 461.372 1097.296,467.579 1097.570,672.248 1099.070 C 798.715 1099.997,896.952 1098.997,918.773 1096.560 C 966.339 1091.250,1000.148 1076.056,1031.997 1045.677 C 1060.661 1018.337,1076.216 994.828,1088.689 960.000 L 1098.000 934.000 1098.000 694.000 L 1098.000 454.000 1083.193 422.855 C 1062.339 378.990,1029.549 345.742,983.878 322.154 L 948.729 304.000 707.365 304.460 C 574.614 304.713,459.700 306.203,452.000 307.771 M1452.000 307.689 C 1444.300 309.213,1424.946 317.331,1408.990 325.730 C 1352.920 355.246,1311.829 412.805,1304.048 472.731 C 1299.103 510.814,1299.103 889.186,1304.048 927.269 C 1313.211 997.841,1366.719 1062.189,1438.323 1088.747 C 1461.372 1097.296,1467.579 1097.570,1672.248 1099.070 C 1798.715 1099.997,1896.952 1098.997,1918.773 1096.560 C 1966.339 1091.250,2000.148 1076.056,2031.997 1045.677 C 2060.661 1018.337,2076.216 994.828,2088.689 960.000 L 2098.000 934.000 2098.000 694.000 L 2098.000 454.000 2083.193 422.855 C 2062.339 378.990,2029.549 345.742,1983.878 322.154 L 1948.729 304.000 1707.365 304.460 C 1574.614 304.713,1459.700 306.166,1452.000 307.689 M452.000 1307.771 C 411.615 1315.996,359.162 1354.897,331.841 1396.885 C 302.269 1442.333,302.000 1445.102,302.000 1704.000 C 302.000 1917.811,302.524 1935.548,309.451 1956.000 C 330.334 2017.658,377.416 2066.156,438.323 2088.747 C 461.372 2097.296,467.579 2097.570,672.248 2099.070 C 798.715 2099.997,896.952 2098.997,918.773 2096.560 C 966.339 2091.250,1000.148 2076.056,1031.997 2045.677 C 1060.661 2018.337,1076.216 1994.828,1088.689 1960.000 L 1098.000 1934.000 1098.000 1694.000 L 1098.000 1454.000 1083.193 1422.855 C 1062.339 1378.990,1029.549 1345.742,983.878 1322.154 L 948.729 1304.000 707.365 1304.460 C 574.614 1304.713,459.700 1306.203,452.000 1307.771 M1452.000 1307.689 C 1444.300 1309.213,1424.946 1317.331,1408.990 1325.730 C 1352.920 1355.246,1311.829 1412.805,1304.048 1472.731 C 1299.103 1510.814,1299.103 1889.186,1304.048 1927.269 C 1313.211 1997.841,1366.719 2062.189,1438.323 2088.747 C 1461.372 2097.296,1467.579 2097.570,1672.248 2099.070 C 1798.715 2099.997,1896.952 2098.997,1918.773 2096.560 C 1966.339 2091.250,2000.148 2076.056,2031.997 2045.677 C 2060.661 2018.337,2076.216 1994.828,2088.689 1960.000 L 2098.000 1934.000 2098.000 1694.000 L 2098.000 1454.000 2083.193 1422.855 C 2062.339 1378.990,2029.549 1345.742,1983.878 1322.154 L 1948.729 1304.000 1707.365 1304.460 C 1574.614 1304.713,1459.700 1306.166,1452.000 1307.689 " fill="#1D1E23" stroke="none" fill-rule="evenodd"/></svg>