<svg viewBox="0 0 2400 2400" fill="none" xmlns="http://www.w3.org/2000/svg"><path d="M532.000 307.770 L 438.000 310.051 416.000 321.922 C 403.900 328.451,378.515 349.140,359.588 367.897 C 310.679 416.367,308.374 423.494,303.260 542.000 C 297.731 670.161,301.211 923.342,308.879 950.718 C 322.684 1000.006,368.656 1054.015,417.201 1077.977 C 441.642 1090.041,452.356 1092.762,488.000 1095.961 C 537.100 1100.368,783.431 1100.739,882.548 1096.556 C 950.909 1093.671,951.178 1093.623,980.730 1079.017 C 1028.043 1055.634,1065.671 1013.998,1088.955 959.263 C 1097.965 938.083,1098.005 937.062,1099.175 697.212 L 1100.349 456.423 1089.697 435.212 C 1062.509 381.074,1030.647 348.432,975.668 318.389 L 949.336 304.000 787.668 304.745 C 698.751 305.155,583.700 306.516,532.000 307.770 M1536.000 307.876 L 1442.000 310.261 1417.940 322.714 C 1373.421 345.755,1338.441 381.400,1320.370 422.140 C 1302.554 462.304,1302.000 470.868,1302.000 706.000 L 1302.000 930.000 1312.393 958.408 C 1333.125 1015.075,1367.836 1054.491,1418.289 1078.661 C 1441.656 1089.855,1453.836 1092.867,1488.289 1095.972 C 1537.091 1100.370,1783.532 1100.735,1882.548 1096.556 C 1950.909 1093.671,1951.178 1093.623,1980.730 1079.017 C 2028.043 1055.634,2065.671 1013.998,2088.955 959.263 C 2097.965 938.083,2098.005 937.062,2099.175 697.212 L 2100.349 456.423 2089.697 435.212 C 2062.509 381.074,2030.647 348.432,1975.668 318.389 L 1949.336 304.000 1789.668 304.745 C 1701.851 305.155,1587.700 306.564,1536.000 307.876 M532.000 1307.770 L 438.000 1310.051 416.000 1321.922 C 403.900 1328.451,378.515 1349.140,359.588 1367.897 C 310.679 1416.367,308.374 1423.494,303.260 1542.000 C 297.731 1670.161,301.211 1923.342,308.879 1950.718 C 322.684 2000.006,368.656 2054.015,417.201 2077.977 C 441.642 2090.041,452.356 2092.762,488.000 2095.961 C 537.100 2100.368,783.431 2100.739,882.548 2096.556 C 950.909 2093.671,951.178 2093.623,980.730 2079.017 C 1028.043 2055.634,1065.671 2013.998,1088.955 1959.263 C 1097.965 1938.083,1098.005 1937.062,1099.175 1697.212 L 1100.349 1456.423 1089.697 1435.212 C 1062.509 1381.074,1030.647 1348.432,975.668 1318.389 L 949.336 1304.000 787.668 1304.745 C 698.751 1305.155,583.700 1306.516,532.000 1307.770 M1536.000 1307.876 L 1442.000 1310.261 1417.940 1322.714 C 1373.421 1345.755,1338.441 1381.400,1320.370 1422.140 C 1302.554 1462.304,1302.000 1470.868,1302.000 1706.000 L 1302.000 1930.000 1312.393 1958.408 C 1333.125 2015.075,1367.836 2054.491,1418.289 2078.661 C 1441.656 2089.855,1453.836 2092.867,1488.289 2095.972 C 1537.091 2100.370,1783.532 2100.735,1882.548 2096.556 C 1950.909 2093.671,1951.178 2093.623,1980.730 2079.017 C 2028.043 2055.634,2065.671 2013.998,2088.955 1959.263 C 2097.965 1938.083,2098.005 1937.062,2099.175 1697.212 L 2100.349 1456.423 2089.697 1435.212 C 2062.509 1381.074,2030.647 1348.432,1975.668 1318.389 L 1949.336 1304.000 1789.668 1304.745 C 1701.851 1305.155,1587.700 1306.564,1536.000 1307.876 " fill="#1D1E23" stroke="none" fill-rule="evenodd"/></svg>