<svg viewBox="0 0 2400 2400" fill="none" xmlns="http://www.w3.org/2000/svg"><path d="M300.000 700.000 L 300.000 1100.000 700.000 1100.000 L 1100.000 1100.000 1100.000 700.000 L 1100.000 300.000 700.000 300.000 L 300.000 300.000 300.000 700.000 M1300.000 700.000 L 1300.000 1100.000 1700.000 1100.000 L 2100.000 1100.000 2100.000 700.000 L 2100.000 300.000 1700.000 300.000 L 1300.000 300.000 1300.000 700.000 M300.000 1700.000 L 300.000 2100.000 700.000 2100.000 L 1100.000 2100.000 1100.000 1700.000 L 1100.000 1300.000 700.000 1300.000 L 300.000 1300.000 300.000 1700.000 M1300.000 1700.000 L 1300.000 2100.000 1700.000 2100.000 L 2100.000 2100.000 2100.000 1700.000 L 2100.000 1300.000 1700.000 1300.000 L 1300.000 1300.000 1300.000 1700.000 " fill="#1D1E23" stroke="none" fill-rule="evenodd"/></svg>