<svg viewBox="0 0 2400 2400" fill="none" xmlns="http://www.w3.org/2000/svg"><path d="M468.000 302.590 C 447.018 306.114,409.172 321.592,389.052 334.877 C 347.077 362.593,314.625 410.264,304.420 459.197 C 298.331 488.395,298.331 911.605,304.420 940.803 C 320.053 1015.765,384.235 1079.947,459.197 1095.580 C 488.395 1101.669,911.605 1101.669,940.803 1095.580 C 1015.765 1079.947,1079.947 1015.765,1095.580 940.803 C 1101.669 911.605,1101.669 488.395,1095.580 459.197 C 1081.788 393.062,1034.082 338.710,966.000 311.568 L 942.000 302.000 710.000 301.455 C 582.400 301.155,473.500 301.666,468.000 302.590 M1468.000 302.590 C 1447.018 306.114,1409.172 321.592,1389.052 334.877 C 1347.077 362.593,1314.625 410.264,1304.420 459.197 C 1301.504 473.180,1300.000 555.128,1300.000 700.000 C 1300.000 844.872,1301.504 926.820,1304.420 940.803 C 1320.053 1015.765,1384.235 1079.947,1459.197 1095.580 C 1488.395 1101.669,1911.605 1101.669,1940.803 1095.580 C 2015.765 1079.947,2079.947 1015.765,2095.580 940.803 C 2101.669 911.605,2101.669 488.395,2095.580 459.197 C 2081.788 393.062,2034.082 338.710,1966.000 311.568 L 1942.000 302.000 1710.000 301.455 C 1582.400 301.155,1473.500 301.666,1468.000 302.590 M468.000 1302.590 C 447.018 1306.114,409.172 1321.592,389.052 1334.877 C 347.077 1362.593,314.625 1410.264,304.420 1459.197 C 298.331 1488.395,298.331 1911.605,304.420 1940.803 C 320.053 2015.765,384.235 2079.947,459.197 2095.580 C 488.395 2101.669,911.605 2101.669,940.803 2095.580 C 1015.765 2079.947,1079.947 2015.765,1095.580 1940.803 C 1101.669 1911.605,1101.669 1488.395,1095.580 1459.197 C 1081.788 1393.062,1034.082 1338.710,966.000 1311.568 L 942.000 1302.000 710.000 1301.455 C 582.400 1301.155,473.500 1301.666,468.000 1302.590 M1468.000 1302.590 C 1447.018 1306.114,1409.172 1321.592,1389.052 1334.877 C 1347.077 1362.593,1314.625 1410.264,1304.420 1459.197 C 1301.504 1473.180,1300.000 1555.128,1300.000 1700.000 C 1300.000 1844.872,1301.504 1926.820,1304.420 1940.803 C 1320.053 2015.765,1384.235 2079.947,1459.197 2095.580 C 1488.395 2101.669,1911.605 2101.669,1940.803 2095.580 C 2015.765 2079.947,2079.947 2015.765,2095.580 1940.803 C 2101.669 1911.605,2101.669 1488.395,2095.580 1459.197 C 2081.788 1393.062,2034.082 1338.710,1966.000 1311.568 L 1942.000 1302.000 1710.000 1301.455 C 1582.400 1301.155,1473.500 1301.666,1468.000 1302.590 " fill="#1D1E23" stroke="none" fill-rule="evenodd"/></svg>