<svg viewBox="0 0 2400 2400" fill="none" xmlns="http://www.w3.org/2000/svg"><path d="M100.000 1200.000 L 100.000 2300.000 1200.000 2300.000 L 2300.000 2300.000 2300.000 1498.990 L 2300.000 697.980 2000.990 398.990 L 1701.980 100.000 900.990 100.000 L 100.000 100.000 100.000 1200.000 M1600.000 550.000 L 1600.000 800.000 1850.000 800.000 L 2100.000 800.000 2100.000 1450.000 L 2100.000 2100.000 1200.000 2100.000 L 300.000 2100.000 300.000 1200.000 L 300.000 300.000 950.000 300.000 L 1600.000 300.000 1600.000 550.000 M1704.807 1199.845 C 1596.779 1229.049,1537.461 1316.267,1519.709 1472.000 C 1513.745 1524.325,1517.023 1644.921,1525.687 1691.887 C 1548.411 1815.073,1607.129 1891.815,1691.200 1908.206 C 1765.551 1922.702,1835.276 1890.390,1868.566 1826.010 C 1888.544 1787.374,1892.000 1790.913,1892.000 1850.000 L 1892.000 1900.000 1958.000 1900.000 L 2024.000 1900.000 2024.000 1714.000 L 2024.000 1528.000 1898.000 1528.000 L 1772.000 1528.000 1772.000 1580.000 L 1772.000 1632.000 1832.000 1632.000 L 1892.000 1632.000 1892.000 1664.738 C 1892.000 1712.238,1882.778 1741.178,1860.251 1764.371 C 1844.865 1780.212,1838.282 1783.923,1818.319 1788.006 C 1762.497 1799.424,1717.744 1779.364,1696.042 1733.196 C 1680.526 1700.187,1675.617 1666.335,1673.246 1576.000 C 1668.082 1379.212,1694.699 1312.176,1778.000 1312.176 C 1825.393 1312.176,1854.394 1336.384,1873.806 1392.146 C 1883.804 1420.868,1886.070 1424.349,1893.550 1422.479 C 1898.198 1421.317,1929.450 1413.829,1963.000 1405.839 C 1996.550 1397.849,2024.000 1389.982,2024.000 1388.357 C 2024.000 1386.731,2019.533 1372.268,2014.074 1356.217 C 1987.307 1277.518,1944.328 1231.545,1872.478 1204.756 C 1834.806 1190.710,1748.000 1188.168,1704.807 1199.845 M452.000 1264.000 L 452.000 1324.000 566.000 1324.000 L 680.000 1324.000 680.000 1515.803 C 680.000 1640.171,678.453 1714.818,675.601 1728.118 C 665.782 1773.901,624.741 1797.947,574.445 1787.384 C 544.686 1781.134,519.345 1754.254,508.000 1716.905 L 499.653 1689.422 430.826 1703.423 C 392.972 1711.124,361.254 1718.000,360.342 1718.704 C 356.579 1721.607,373.573 1771.844,387.149 1797.949 C 417.978 1857.230,469.143 1893.880,537.782 1905.850 C 582.375 1913.627,613.654 1913.622,658.329 1905.831 C 747.932 1890.205,814.389 1826.723,827.743 1744.000 C 830.356 1727.809,831.951 1621.038,831.970 1461.000 L 832.000 1204.000 642.000 1204.000 L 452.000 1204.000 452.000 1264.000 M976.000 1552.000 L 976.000 1900.000 1052.000 1900.000 L 1128.000 1900.000 1128.000 1772.000 L 1128.000 1644.000 1209.000 1643.769 C 1301.531 1643.506,1327.535 1638.883,1365.764 1615.897 C 1439.918 1571.312,1473.628 1476.047,1454.076 1366.323 C 1439.743 1285.883,1388.641 1230.651,1309.472 1210.030 C 1290.765 1205.158,1256.523 1204.000,1131.160 1204.000 L 976.000 1204.000 976.000 1552.000 M1267.582 1334.000 C 1288.783 1346.488,1296.358 1359.893,1301.198 1393.492 C 1306.606 1431.032,1300.782 1479.678,1288.983 1495.508 C 1271.950 1518.362,1259.567 1521.881,1191.000 1523.351 L 1128.000 1524.703 1128.000 1424.000 L 1128.000 1323.297 1191.000 1324.649 C 1245.273 1325.813,1255.881 1327.108,1267.582 1334.000 " fill="#1D1E23" stroke="none" fill-rule="evenodd"/></svg>