<svg viewBox="0 0 2400 2400" fill="none" xmlns="http://www.w3.org/2000/svg"><path d="M650.000 104.157 C 449.800 105.658,275.338 108.283,262.306 109.991 C 242.522 112.583,232.644 117.136,202.446 137.585 C 161.591 165.249,144.729 185.018,117.961 236.635 L 100.000 271.271 100.000 1199.724 L 100.000 2128.178 115.544 2159.089 C 147.157 2221.956,182.960 2258.680,238.090 2284.784 L 266.000 2298.000 1198.479 2299.332 L 2130.957 2300.663 2152.479 2289.785 C 2224.115 2253.574,2268.544 2206.113,2288.680 2144.289 L 2297.243 2118.000 2298.868 1438.000 L 2300.494 758.000 1979.460 429.000 L 1658.426 100.000 1336.213 100.714 C 1158.996 101.106,850.200 102.656,650.000 104.157 M1548.972 595.000 L 1550.000 870.000 1817.000 871.028 L 2084.000 872.057 2084.000 1476.028 L 2084.000 2080.000 1200.000 2080.000 L 316.000 2080.000 316.000 1200.000 L 316.000 320.000 931.972 320.000 L 1547.945 320.000 1548.972 595.000 M1695.769 1204.915 C 1568.922 1249.293,1508.821 1378.898,1517.459 1589.432 C 1520.643 1667.026,1525.433 1699.356,1540.655 1745.974 C 1578.149 1860.807,1659.031 1924.588,1746.721 1908.472 C 1799.564 1898.761,1827.931 1880.243,1863.369 1832.323 C 1884.264 1804.068,1885.852 1802.787,1888.440 1812.079 C 1889.959 1817.536,1891.382 1839.550,1891.601 1861.000 L 1892.000 1900.000 1958.000 1900.000 L 2024.000 1900.000 2024.000 1714.000 L 2024.000 1528.000 1898.000 1528.000 L 1772.000 1528.000 1772.000 1580.000 L 1772.000 1632.000 1832.516 1632.000 L 1893.032 1632.000 1890.185 1668.387 C 1886.215 1719.146,1878.935 1740.806,1858.806 1761.756 C 1820.406 1801.720,1753.689 1799.583,1715.483 1757.164 C 1682.875 1720.960,1673.864 1664.678,1677.195 1518.000 C 1679.578 1413.074,1683.101 1390.593,1702.673 1355.418 C 1717.759 1328.305,1739.383 1315.990,1771.848 1316.022 C 1821.433 1316.072,1840.992 1329.627,1868.000 1382.657 C 1885.590 1417.195,1886.319 1417.992,1900.000 1417.628 C 1920.133 1417.093,2005.635 1396.611,2014.356 1390.234 C 2021.504 1385.008,2021.506 1384.134,2014.442 1361.422 C 1996.828 1304.791,1965.203 1261.939,1918.583 1231.535 C 1875.581 1203.490,1857.954 1198.930,1786.000 1197.240 C 1727.326 1195.862,1719.817 1196.501,1695.769 1204.915 M452.000 1264.000 L 452.000 1324.000 566.000 1324.000 L 680.000 1324.000 679.809 1431.000 C 679.704 1489.850,678.124 1583.486,676.297 1639.081 C 673.017 1738.906,672.847 1740.348,662.579 1755.165 C 646.369 1778.556,630.765 1785.969,597.708 1785.986 C 573.405 1785.998,567.030 1784.421,552.494 1774.802 C 533.999 1762.562,514.348 1734.760,507.104 1710.584 C 504.563 1702.105,500.341 1694.345,497.722 1693.340 C 491.372 1690.903,371.301 1715.615,365.290 1720.596 C 361.701 1723.569,362.047 1729.442,366.739 1745.249 C 389.268 1821.143,437.440 1872.345,510.603 1898.163 C 534.584 1906.626,544.982 1907.830,594.000 1907.818 C 658.890 1907.802,675.052 1904.801,716.000 1885.161 C 755.687 1866.125,793.644 1828.643,811.743 1790.614 C 823.307 1766.316,825.168 1757.520,828.240 1712.614 C 830.145 1684.776,831.770 1558.950,831.851 1433.000 L 832.000 1204.000 642.000 1204.000 L 452.000 1204.000 452.000 1264.000 M976.000 1551.391 L 976.000 1900.000 1052.000 1900.000 L 1128.000 1900.000 1128.000 1772.490 L 1128.000 1644.981 1213.000 1643.027 C 1307.005 1640.866,1330.127 1636.304,1366.993 1612.645 C 1403.798 1589.025,1433.483 1548.033,1448.145 1500.579 C 1457.928 1468.916,1459.074 1385.907,1450.189 1352.524 C 1430.644 1279.089,1369.583 1221.835,1300.378 1212.053 C 1286.617 1210.108,1208.002 1207.227,1125.679 1205.650 L 976.000 1202.783 976.000 1551.391 M1218.257 1327.688 C 1288.262 1333.494,1297.085 1344.219,1297.647 1424.196 C 1297.989 1472.881,1297.647 1474.993,1286.735 1491.544 C 1270.289 1516.487,1256.739 1520.776,1187.000 1523.111 L 1128.000 1525.087 1128.000 1424.544 L 1128.000 1324.000 1153.000 1324.174 C 1166.750 1324.270,1196.116 1325.851,1218.257 1327.688 " fill="#1D1E23" stroke="none" fill-rule="evenodd"/></svg>