<svg viewBox="0 0 2400 2400" fill="none" xmlns="http://www.w3.org/2000/svg"><path d="M100.000 1200.000 L 100.000 2300.000 1200.000 2300.000 L 2300.000 2300.000 2300.000 1498.990 L 2300.000 697.980 2000.990 398.990 L 1701.980 100.000 900.990 100.000 L 100.000 100.000 100.000 1200.000 M1600.000 550.000 L 1600.000 800.000 1850.000 800.000 L 2100.000 800.000 2100.000 1450.000 L 2100.000 2100.000 1200.000 2100.000 L 300.000 2100.000 300.000 1200.000 L 300.000 300.000 950.000 300.000 L 1600.000 300.000 1600.000 550.000 M1724.000 1196.597 C 1682.466 1202.362,1636.192 1226.671,1603.607 1259.843 C 1533.407 1331.308,1504.361 1464.954,1520.116 1644.000 C 1531.711 1775.762,1584.992 1870.317,1664.743 1900.661 C 1732.904 1926.595,1812.778 1904.208,1853.558 1847.740 C 1862.601 1835.217,1873.272 1818.995,1877.271 1811.689 C 1888.193 1791.739,1891.867 1802.590,1891.939 1855.000 L 1892.000 1900.000 1958.000 1900.000 L 2024.000 1900.000 2024.000 1714.000 L 2024.000 1528.000 1898.000 1528.000 L 1772.000 1528.000 1772.000 1580.000 L 1772.000 1632.000 1832.535 1632.000 L 1893.070 1632.000 1891.035 1671.000 C 1888.704 1715.668,1882.375 1736.800,1864.609 1759.231 C 1841.913 1787.888,1800.442 1798.510,1758.672 1786.367 C 1717.238 1774.322,1691.532 1740.279,1681.976 1684.798 C 1669.468 1612.177,1670.938 1452.578,1684.631 1396.630 C 1694.607 1355.864,1718.019 1324.092,1743.308 1316.999 C 1749.189 1315.349,1765.700 1314.083,1780.000 1314.184 C 1825.927 1314.510,1851.070 1334.885,1872.035 1388.769 C 1877.942 1403.953,1884.422 1418.022,1886.435 1420.035 C 1890.366 1423.966,2014.399 1395.201,2020.704 1388.896 C 2025.991 1383.609,2001.990 1320.315,1984.371 1293.079 C 1950.742 1241.095,1890.518 1203.730,1828.105 1196.128 C 1789.038 1191.370,1760.735 1191.497,1724.000 1196.597 M452.000 1264.000 L 452.000 1324.000 566.397 1324.000 L 680.794 1324.000 679.216 1525.000 C 677.800 1705.209,676.916 1727.640,670.666 1741.854 C 656.696 1773.624,632.416 1788.800,595.557 1788.800 C 553.252 1788.800,520.364 1760.003,505.919 1710.312 L 499.907 1689.633 432.954 1703.223 C 396.129 1710.697,364.450 1718.270,362.556 1720.051 C 357.976 1724.356,373.830 1772.424,388.925 1800.000 C 416.425 1850.240,452.870 1880.067,509.370 1898.574 C 537.564 1907.809,549.069 1909.312,594.000 1909.631 C 649.460 1910.025,674.346 1905.727,711.833 1889.282 C 762.024 1867.263,804.310 1821.995,820.809 1772.618 C 829.591 1746.337,829.722 1742.570,831.103 1475.000 L 832.503 1204.000 642.252 1204.000 L 452.000 1204.000 452.000 1264.000 M976.000 1552.000 L 976.000 1900.000 1052.000 1900.000 L 1128.000 1900.000 1128.000 1772.000 L 1128.000 1644.000 1199.000 1643.921 C 1238.050 1643.877,1282.402 1642.049,1297.560 1639.858 C 1399.261 1625.157,1465.219 1531.035,1458.639 1410.000 C 1453.723 1319.589,1418.291 1259.321,1350.355 1225.815 C 1311.613 1206.707,1283.089 1204.067,1115.000 1204.030 L 976.000 1204.000 976.000 1552.000 M1270.422 1336.261 C 1293.454 1350.495,1301.508 1373.141,1301.646 1424.055 C 1301.746 1460.863,1300.527 1468.597,1291.880 1486.055 C 1276.716 1516.667,1263.983 1521.279,1189.000 1523.316 L 1128.000 1524.973 1128.000 1423.889 L 1128.000 1322.805 1191.914 1325.023 C 1249.021 1327.005,1257.382 1328.202,1270.422 1336.261 " fill="#1D1E23" stroke="none" fill-rule="evenodd"/></svg>