<svg viewBox="0 0 2400 2400" fill="none" xmlns="http://www.w3.org/2000/svg"><path d="M702.000 104.319 C 477.600 105.953,282.954 108.472,269.453 109.915 C 217.564 115.463,153.108 168.818,118.968 234.483 L 100.000 270.967 100.000 1200.000 L 100.000 2129.033 119.000 2165.508 C 145.473 2216.330,188.892 2260.279,235.463 2283.392 L 268.926 2300.000 1200.878 2300.000 L 2132.830 2300.000 2159.879 2285.786 C 2218.917 2254.763,2263.420 2207.922,2284.941 2154.155 L 2297.811 2122.000 2299.167 1440.000 L 2300.523 758.000 1979.574 429.000 L 1658.624 100.000 1384.312 100.673 C 1233.441 101.043,926.400 102.684,702.000 104.319 M1548.972 595.000 L 1550.000 870.000 1817.000 871.028 L 2084.000 872.057 2084.000 1476.028 L 2084.000 2080.000 1200.000 2080.000 L 316.000 2080.000 316.000 1200.000 L 316.000 320.000 931.972 320.000 L 1547.945 320.000 1548.972 595.000 M1710.353 1200.203 C 1688.303 1205.756,1649.659 1225.945,1625.275 1244.650 C 1575.559 1282.788,1538.483 1356.111,1523.460 1446.000 C 1516.534 1487.445,1516.637 1630.868,1523.624 1674.000 C 1539.606 1772.657,1585.834 1855.216,1644.099 1889.160 C 1670.602 1904.600,1708.614 1913.345,1734.933 1910.057 C 1788.335 1903.384,1824.463 1882.099,1860.000 1836.372 C 1872.100 1820.802,1883.114 1808.049,1884.477 1808.032 C 1888.501 1807.980,1891.909 1835.757,1891.956 1869.000 L 1892.000 1900.000 1958.000 1900.000 L 2024.000 1900.000 2024.000 1714.000 L 2024.000 1528.000 1898.000 1528.000 L 1772.000 1528.000 1772.000 1580.000 L 1772.000 1632.000 1832.000 1632.000 C 1901.327 1632.000,1894.711 1625.888,1888.055 1683.784 C 1881.072 1744.531,1855.624 1778.529,1810.057 1787.988 C 1772.675 1795.749,1733.405 1781.040,1710.168 1750.576 C 1692.022 1726.785,1683.849 1695.597,1679.085 1631.961 C 1673.696 1559.974,1679.800 1417.530,1689.640 1385.655 C 1707.073 1329.186,1748.770 1306.006,1806.685 1320.590 C 1829.844 1326.421,1846.044 1342.552,1865.034 1378.689 C 1873.189 1394.208,1882.756 1409.308,1886.296 1412.245 C 1894.768 1419.277,1913.795 1417.726,1960.000 1406.239 C 2008.542 1394.171,2020.000 1389.596,2020.000 1382.281 C 2020.000 1372.554,2002.120 1326.318,1991.089 1307.522 C 1965.932 1264.653,1910.142 1218.885,1867.668 1206.272 C 1843.503 1199.096,1731.855 1194.789,1710.353 1200.203 M452.000 1264.000 L 452.000 1324.000 566.000 1324.000 L 680.000 1324.000 679.900 1415.000 C 679.729 1571.209,673.161 1734.169,666.523 1746.877 C 646.116 1785.951,586.919 1799.762,551.584 1773.693 C 535.252 1761.644,515.171 1733.457,506.220 1710.019 C 499.362 1692.062,499.026 1691.818,484.627 1694.354 C 455.275 1699.524,393.603 1712.337,378.512 1716.401 C 363.331 1720.488,363.065 1720.882,365.116 1736.177 C 366.268 1744.760,374.423 1766.682,383.239 1784.891 C 410.182 1840.543,453.251 1877.734,514.604 1898.330 C 544.037 1908.210,549.284 1908.715,605.916 1907.111 C 659.190 1905.601,669.118 1904.194,693.510 1894.692 C 757.299 1869.842,806.035 1819.599,822.446 1761.770 C 828.378 1740.867,829.409 1705.795,830.993 1471.000 L 832.794 1204.000 642.397 1204.000 L 452.000 1204.000 452.000 1264.000 M976.000 1551.456 L 976.000 1900.000 1052.000 1900.000 L 1128.000 1900.000 1128.000 1772.593 L 1128.000 1645.186 1211.000 1642.850 C 1300.920 1640.319,1328.309 1635.580,1360.000 1617.071 C 1403.620 1591.595,1442.144 1534.960,1451.697 1482.265 C 1457.972 1447.653,1457.033 1381.647,1449.875 1354.166 C 1435.639 1299.509,1395.698 1250.669,1346.352 1227.577 C 1313.023 1211.981,1285.792 1209.457,1111.000 1205.764 L 976.000 1202.912 976.000 1551.456 M1249.393 1332.264 C 1288.157 1339.616,1296.000 1355.500,1296.000 1426.657 C 1296.000 1474.891,1295.456 1478.355,1285.664 1492.485 C 1269.958 1515.149,1251.849 1520.648,1185.000 1523.053 L 1128.000 1525.103 1128.000 1423.967 L 1128.000 1322.831 1178.671 1325.646 C 1206.540 1327.195,1238.365 1330.173,1249.393 1332.264 " fill="#1D1E23" stroke="none" fill-rule="evenodd"/></svg>