<svg viewBox="0 0 2400 2400" fill="none" xmlns="http://www.w3.org/2000/svg"><path d="M100.000 1200.000 L 100.000 2300.000 1200.000 2300.000 L 2300.000 2300.000 2300.000 1498.990 L 2300.000 697.980 2000.990 398.990 L 1701.980 100.000 900.990 100.000 L 100.000 100.000 100.000 1200.000 M1600.000 550.000 L 1600.000 800.000 1850.000 800.000 L 2100.000 800.000 2100.000 1450.000 L 2100.000 2100.000 1200.000 2100.000 L 300.000 2100.000 300.000 1200.000 L 300.000 300.000 950.000 300.000 L 1600.000 300.000 1600.000 550.000 M1731.911 1195.632 C 1660.374 1205.736,1598.438 1250.074,1564.674 1315.349 C 1527.795 1386.647,1513.850 1464.486,1517.260 1580.000 C 1518.462 1620.700,1522.212 1669.300,1525.593 1688.000 C 1553.007 1839.586,1641.548 1927.081,1748.900 1908.673 C 1800.093 1899.894,1836.344 1874.876,1867.192 1827.035 C 1875.336 1814.404,1883.140 1804.054,1884.533 1804.035 C 1889.479 1803.967,1891.891 1822.509,1891.945 1861.000 L 1892.000 1900.000 1958.000 1900.000 L 2024.000 1900.000 2024.000 1714.000 L 2024.000 1528.000 1898.000 1528.000 L 1772.000 1528.000 1772.000 1580.000 L 1772.000 1632.000 1832.590 1632.000 L 1893.181 1632.000 1890.563 1669.000 C 1887.364 1714.204,1883.467 1728.967,1868.504 1752.562 C 1835.844 1804.061,1743.816 1802.677,1708.293 1750.151 C 1682.060 1711.361,1675.289 1669.887,1675.289 1548.000 C 1675.289 1428.196,1682.519 1381.955,1706.720 1346.983 C 1723.472 1322.775,1738.097 1316.000,1773.601 1316.000 C 1826.137 1316.000,1845.086 1329.827,1870.399 1386.635 C 1881.298 1411.097,1887.243 1420.000,1892.675 1420.000 C 1901.534 1420.000,1964.731 1406.260,1997.000 1397.319 C 2016.639 1391.877,2020.000 1389.577,2020.000 1381.577 C 2020.000 1366.898,1996.851 1312.262,1980.352 1288.000 C 1953.052 1247.855,1896.448 1210.319,1848.000 1200.234 C 1818.643 1194.124,1759.258 1191.769,1731.911 1195.632 M452.000 1264.000 L 452.000 1324.000 566.000 1324.000 L 680.000 1324.000 679.649 1453.000 C 679.456 1523.950,678.082 1617.267,676.597 1660.371 C 673.940 1737.461,673.712 1739.019,662.683 1755.685 C 649.323 1775.874,626.004 1787.786,599.597 1787.912 C 552.121 1788.139,522.465 1760.981,502.505 1699.000 C 501.265 1695.150,497.742 1692.000,494.676 1692.000 C 487.768 1692.000,396.317 1710.529,375.322 1716.182 C 357.657 1720.939,357.646 1721.891,374.711 1767.896 C 399.032 1833.466,442.858 1875.702,509.822 1898.104 C 538.308 1907.634,547.536 1908.744,597.822 1908.691 C 647.027 1908.639,657.972 1907.359,686.000 1898.378 C 741.526 1880.586,786.196 1842.952,810.745 1793.282 C 824.114 1766.231,825.405 1760.361,828.397 1713.048 C 830.172 1684.971,831.709 1558.950,831.812 1433.000 L 832.000 1204.000 642.000 1204.000 L 452.000 1204.000 452.000 1264.000 M976.000 1551.530 L 976.000 1900.000 1052.000 1900.000 L 1128.000 1900.000 1128.000 1772.000 L 1128.000 1644.000 1197.000 1643.921 C 1234.950 1643.877,1278.600 1642.028,1294.000 1639.811 C 1366.690 1629.348,1422.012 1580.645,1447.160 1504.976 C 1455.911 1478.643,1457.460 1466.805,1457.495 1426.000 C 1457.542 1371.486,1450.779 1340.026,1431.016 1302.832 C 1408.673 1260.780,1357.009 1222.140,1309.008 1211.579 C 1298.554 1209.279,1219.350 1206.421,1133.000 1205.228 L 976.000 1203.059 976.000 1551.530 M1266.493 1334.502 C 1291.105 1346.181,1297.808 1363.333,1299.404 1418.717 C 1300.752 1465.521,1300.378 1468.223,1289.881 1487.510 C 1273.749 1517.149,1263.012 1520.948,1189.000 1523.208 L 1128.000 1525.071 1128.000 1423.914 L 1128.000 1322.758 1190.556 1325.455 C 1234.706 1327.359,1257.049 1330.021,1266.493 1334.502 " fill="#1D1E23" stroke="none" fill-rule="evenodd"/></svg>