<svg viewBox="0 0 2400 2400" fill="none" xmlns="http://www.w3.org/2000/svg"><path d="M889.137 316.002 C 841.651 332.885,810.983 353.177,756.157 403.991 C 672.099 481.896,446.592 708.081,434.168 726.946 C 420.125 748.271,417.619 744.239,493.930 823.114 L 552.837 884.000 410.793 884.000 L 268.749 884.000 242.847 911.976 C 228.601 927.363,216.008 943.536,214.863 947.915 C 213.554 952.921,217.300 962.116,224.950 972.677 C 241.986 996.194,529.429 1282.480,542.936 1289.383 C 557.972 1297.067,566.059 1293.283,597.530 1263.844 L 624.000 1239.083 624.000 1097.123 L 624.000 955.163 684.888 1014.072 C 718.376 1046.472,749.744 1074.788,754.593 1076.998 C 768.941 1083.535,781.382 1077.598,810.488 1050.324 L 838.000 1024.544 926.826 1113.065 L 1015.652 1201.585 754.806 1463.793 C 463.295 1756.826,360.156 1864.889,347.981 1890.040 C 335.985 1914.820,334.009 1941.415,341.892 1972.000 C 354.182 2019.685,383.224 2056.180,426.172 2077.910 C 445.539 2087.709,452.969 2089.114,487.605 2089.528 L 527.006 2090.000 549.311 2074.645 C 587.964 2048.036,709.120 1930.243,1172.899 1468.364 L 1623.798 1019.313 1652.899 1025.981 C 1692.124 1034.970,1795.921 1035.013,1830.000 1026.056 C 1887.126 1011.040,1943.975 976.010,1990.213 927.334 C 2059.933 853.936,2092.985 765.520,2086.665 669.312 C 2082.687 608.742,2069.241 566.239,2050.089 553.690 C 2041.471 548.044,2039.375 547.984,2031.964 553.175 C 2027.355 556.404,1971.334 609.210,1907.473 670.523 C 1843.612 731.835,1788.709 783.494,1785.466 785.319 C 1781.795 787.386,1775.816 786.179,1769.623 782.121 C 1756.659 773.627,1654.350 671.305,1645.851 658.334 C 1639.926 649.292,1639.891 647.508,1645.482 639.525 C 1648.880 634.675,1699.216 581.047,1757.341 520.353 C 1885.487 386.544,1886.305 385.597,1880.220 378.264 C 1865.159 360.118,1797.974 344.000,1737.389 344.000 C 1602.921 344.000,1487.131 417.407,1425.068 542.000 C 1399.771 592.786,1397.982 602.635,1398.193 690.000 C 1398.347 753.742,1399.689 773.252,1404.799 786.000 L 1411.212 802.000 1318.638 895.000 L 1226.065 987.999 1137.242 899.243 L 1048.420 810.487 1076.210 781.231 C 1096.838 759.516,1104.000 749.126,1104.000 740.920 C 1104.000 732.094,1091.367 716.703,1041.364 664.614 L 978.729 599.364 1040.647 536.682 C 1128.902 447.339,1180.000 392.049,1180.000 385.898 C 1180.000 370.567,1088.903 319.354,1048.454 311.946 C 1036.604 309.776,1000.604 308.132,968.454 308.292 C 922.249 308.523,905.628 310.139,889.137 316.002 M1557.563 1372.676 C 1528.884 1397.123,1456.772 1468.241,1415.265 1513.013 L 1379.097 1552.025 1386.273 1563.013 C 1410.282 1599.775,1867.103 2053.461,1903.089 2076.282 C 1920.663 2087.427,1923.738 2088.000,1965.998 2088.000 C 2005.495 2088.000,2012.681 2086.878,2030.705 2077.896 C 2056.002 2065.290,2093.592 2026.390,2104.901 2001.114 C 2116.483 1975.229,2117.414 1909.562,2106.516 1887.233 C 2094.218 1862.034,2025.535 1789.139,1826.199 1589.727 C 1651.624 1415.085,1589.476 1356.000,1580.355 1356.000 C 1578.579 1356.000,1568.323 1363.504,1557.563 1372.676 " fill="#1D1E23" stroke="none" fill-rule="evenodd"/></svg>