<svg viewBox="0 0 2400 2400" fill="none" xmlns="http://www.w3.org/2000/svg"><path d="M904.000 310.134 C 872.499 318.841,825.561 341.864,800.055 361.119 C 774.705 380.257,502.271 648.936,455.459 700.966 C 437.447 720.986,424.000 739.492,424.000 744.261 C 424.000 749.646,446.851 775.814,488.651 818.295 L 553.302 884.000 411.160 884.000 L 269.017 884.000 240.509 914.012 C 224.762 930.589,212.000 947.589,212.000 951.987 C 212.000 963.694,252.988 1007.843,388.638 1142.245 C 529.160 1281.474,544.962 1296.000,555.899 1296.000 C 560.439 1296.000,577.118 1283.516,593.988 1267.491 L 624.000 1238.983 624.000 1096.849 L 624.000 954.716 687.527 1017.163 C 723.460 1052.486,755.562 1080.742,761.433 1082.215 C 773.056 1085.132,788.371 1074.666,819.899 1042.261 L 837.799 1023.864 926.820 1112.819 L 1015.841 1201.774 700.592 1517.887 C 527.205 1691.749,376.037 1846.424,364.662 1861.610 C 339.504 1895.195,334.283 1912.527,337.540 1951.649 C 341.986 2005.061,371.754 2049.963,419.639 2075.485 C 439.081 2085.848,449.464 2088.475,479.355 2090.597 C 513.010 2092.986,517.021 2092.437,536.769 2082.741 C 548.446 2077.008,579.600 2052.994,606.000 2029.376 C 632.400 2005.759,872.132 1768.765,1138.737 1502.723 L 1623.475 1019.010 1652.737 1026.505 C 1675.608 1032.363,1695.980 1033.953,1746.000 1033.787 C 1806.944 1033.584,1811.814 1032.968,1848.000 1020.884 C 1949.401 987.022,2028.165 910.460,2068.181 806.857 C 2083.334 767.626,2089.586 721.874,2086.846 670.262 C 2082.581 589.925,2061.873 541.788,2035.217 550.248 C 2030.553 551.729,1975.959 602.931,1913.898 664.031 C 1851.836 725.131,1796.320 778.227,1790.529 782.021 C 1780.548 788.561,1779.428 788.555,1769.000 781.895 C 1754.699 772.762,1655.238 673.301,1646.105 659.000 C 1639.601 648.816,1639.558 647.270,1645.534 638.150 C 1649.083 632.733,1704.265 574.837,1768.160 509.493 C 1836.851 439.245,1883.845 388.151,1883.139 384.483 C 1879.843 367.369,1836.057 350.441,1777.099 343.487 C 1659.113 329.572,1534.458 381.856,1464.639 474.543 C 1439.506 507.907,1410.868 564.790,1401.476 600.000 C 1391.040 639.125,1392.082 749.308,1403.183 780.440 L 1411.184 802.880 1318.560 895.441 L 1225.935 988.002 1136.915 898.916 L 1047.895 809.830 1070.259 787.915 C 1101.057 757.734,1109.125 745.847,1105.839 735.492 C 1104.353 730.810,1075.150 698.380,1040.943 663.425 L 978.749 599.871 1074.394 502.936 C 1126.998 449.621,1172.601 401.017,1175.734 394.928 C 1181.148 384.402,1180.767 383.172,1168.003 370.003 C 1153.400 354.937,1105.362 328.390,1068.927 315.251 C 1037.900 304.063,937.260 300.940,904.000 310.134 M1557.359 1371.473 C 1532.035 1391.714,1390.745 1535.289,1384.372 1547.257 C 1380.060 1555.355,1380.834 1558.361,1390.551 1571.257 C 1405.730 1591.404,1750.433 1938.257,1831.412 2014.869 C 1867.389 2048.905,1903.389 2079.588,1911.412 2083.053 C 1921.503 2087.411,1938.949 2089.406,1968.000 2089.526 C 2006.553 2089.684,2011.802 2088.763,2031.956 2078.297 C 2065.497 2060.881,2097.161 2026.231,2107.492 1995.641 C 2117.384 1966.349,2118.709 1918.575,2110.284 1894.965 C 2100.356 1867.143,2070.754 1834.759,1874.000 1636.478 C 1674.607 1435.538,1591.839 1356.000,1582.128 1356.000 C 1579.153 1356.000,1568.007 1362.963,1557.359 1371.473 " fill="#1D1E23" stroke="none" fill-rule="evenodd"/></svg>