<svg viewBox="0 0 2400 2400" fill="none" xmlns="http://www.w3.org/2000/svg"><path d="M930.639 303.916 C 893.815 310.619,857.871 323.823,826.000 342.356 C 797.910 358.691,771.397 383.496,609.000 545.383 C 446.722 707.152,424.000 731.283,424.000 741.857 C 424.000 752.098,433.773 763.698,488.955 818.956 L 553.909 884.000 411.854 884.000 L 269.800 884.000 240.900 913.094 C 217.952 936.196,212.000 944.654,212.000 954.159 C 212.000 964.596,233.152 987.259,377.112 1131.065 C 518.622 1272.423,543.882 1296.000,553.822 1296.000 C 562.896 1296.000,571.792 1289.627,594.710 1266.710 L 624.000 1237.419 624.000 1095.868 L 624.000 954.316 689.274 1019.158 C 742.394 1071.926,756.631 1084.000,765.733 1084.000 C 774.242 1084.000,784.266 1076.850,807.618 1054.125 L 838.317 1024.251 927.147 1113.146 L 1015.977 1202.042 689.836 1528.021 C 317.240 1900.432,337.984 1876.028,338.020 1941.916 C 338.038 1974.055,339.416 1980.908,350.625 2004.605 C 366.076 2037.270,387.903 2059.692,420.884 2076.782 C 444.307 2088.920,448.696 2089.799,486.000 2089.818 C 556.279 2089.855,502.788 2137.625,1098.508 1542.803 L 1623.015 1019.085 1649.910 1025.830 C 1729.501 1045.791,1813.628 1039.292,1883.035 1007.821 C 1970.123 968.334,2041.171 889.095,2072.087 796.974 C 2083.479 763.029,2085.416 751.175,2087.101 705.108 C 2088.747 660.137,2087.726 646.660,2080.290 615.108 C 2067.882 562.466,2061.312 550.319,2044.374 548.701 C 2031.358 547.458,2025.569 552.593,1910.234 667.701 C 1817.230 760.522,1787.437 788.000,1779.803 788.000 C 1765.707 788.000,1640.000 662.265,1640.000 648.166 C 1640.000 640.727,1668.879 609.442,1762.000 516.000 C 1829.100 448.669,1884.000 390.524,1884.000 386.790 C 1884.000 360.463,1799.685 336.969,1720.297 341.174 C 1642.411 345.300,1579.530 369.673,1516.775 420.063 C 1466.708 460.263,1422.246 528.455,1403.187 594.273 C 1395.245 621.701,1394.032 634.673,1394.234 690.000 C 1394.429 743.494,1395.816 758.035,1402.684 778.581 L 1410.900 803.163 1318.418 895.582 L 1225.935 988.002 1136.934 898.935 L 1047.932 809.867 1077.966 780.034 C 1099.097 759.043,1108.000 747.288,1108.000 740.374 C 1108.000 733.028,1091.630 714.069,1043.131 665.247 L 978.262 599.946 1079.131 498.793 C 1183.786 393.843,1188.066 388.066,1172.616 372.616 C 1149.667 349.667,1096.552 321.779,1053.856 310.261 C 1025.163 302.520,957.459 299.034,930.639 303.916 M1474.969 1451.031 C 1401.616 1524.432,1380.000 1548.340,1380.000 1556.073 C 1380.000 1563.987,1433.037 1619.070,1633.000 1818.835 C 1839.542 2025.173,1889.673 2073.252,1906.000 2080.661 C 1922.634 2088.210,1933.068 2089.759,1968.000 2089.868 C 2006.616 2089.989,2011.858 2089.059,2033.063 2078.320 C 2060.010 2064.673,2093.250 2031.234,2103.979 2006.979 C 2114.728 1982.679,2119.786 1945.820,2115.802 1920.826 C 2107.592 1869.321,2112.080 1874.513,1842.793 1604.992 C 1623.897 1385.907,1592.554 1355.985,1581.969 1355.992 C 1571.600 1355.999,1556.813 1369.133,1474.969 1451.031 " fill="#1D1E23" stroke="none" fill-rule="evenodd"/></svg>