<svg viewBox="0 0 2400 2400" fill="none" xmlns="http://www.w3.org/2000/svg"><path d="M920.000 307.672 C 891.559 311.766,846.139 331.305,811.444 354.370 C 779.739 375.447,451.478 699.334,433.836 726.946 C 423.374 743.320,423.238 744.242,429.814 754.278 C 433.557 759.991,462.824 791.515,494.851 824.332 L 553.083 884.000 411.000 884.000 L 268.917 884.000 244.161 910.464 C 208.394 948.700,207.565 951.643,226.040 974.874 C 245.380 999.194,516.918 1270.555,537.137 1285.769 C 555.966 1299.937,560.838 1298.168,597.536 1263.839 L 624.000 1239.083 624.000 1096.940 L 624.000 954.797 679.000 1008.506 C 751.129 1078.942,759.736 1085.423,773.970 1080.011 C 780.006 1077.716,796.961 1064.238,811.647 1050.060 L 838.348 1024.282 927.167 1113.166 L 1015.985 1202.050 843.637 1374.025 C 561.795 1655.258,365.348 1857.922,352.100 1881.119 C 337.038 1907.493,333.594 1930.446,339.715 1963.667 C 349.231 2015.314,379.830 2055.586,427.143 2078.734 C 446.402 2088.157,454.265 2089.582,488.096 2089.776 C 526.564 2089.998,527.145 2089.857,548.701 2075.041 C 592.315 2045.066,658.705 1980.651,1137.012 1504.233 L 1624.023 1019.144 1653.012 1026.332 C 1674.519 1031.664,1698.001 1033.542,1744.000 1033.608 C 1814.355 1033.708,1840.389 1027.961,1895.818 1000.091 C 1992.862 951.299,2069.056 847.874,2083.983 744.678 C 2089.556 706.146,2088.867 666.017,2081.949 626.349 C 2074.907 585.969,2066.277 565.864,2051.203 554.722 L 2040.406 546.741 2027.203 556.895 C 2019.941 562.480,1965.400 614.252,1906.000 671.944 C 1846.600 729.636,1793.950 779.556,1789.000 782.879 C 1780.868 788.337,1778.939 788.225,1769.000 781.713 C 1754.700 772.345,1655.655 673.300,1646.287 659.000 C 1639.743 649.012,1639.643 647.172,1645.202 639.000 C 1648.569 634.050,1695.762 584.100,1750.077 528.000 C 1804.392 471.900,1857.137 416.345,1867.290 404.545 L 1885.748 383.091 1874.736 373.619 C 1850.421 352.704,1766.046 337.895,1706.000 344.004 C 1639.513 350.768,1576.124 375.817,1522.494 416.520 C 1476.387 451.512,1427.601 522.517,1406.047 586.000 C 1390.961 630.431,1390.595 744.702,1405.405 786.415 L 1411.233 802.831 1318.584 895.416 L 1225.935 988.002 1136.921 898.922 L 1047.907 809.842 1072.257 785.921 C 1103.845 754.890,1110.620 742.594,1102.748 730.581 C 1099.574 725.735,1070.483 694.388,1038.102 660.919 L 979.228 600.066 1074.961 501.991 C 1127.614 448.049,1173.213 399.207,1176.293 393.453 C 1181.658 383.428,1181.175 382.353,1164.745 367.773 C 1144.650 349.940,1081.927 318.007,1055.773 312.294 C 1030.288 306.727,946.401 303.871,920.000 307.672 M1564.000 1366.662 C 1544.431 1381.440,1449.627 1474.966,1411.556 1517.051 L 1379.847 1552.102 1386.279 1564.539 C 1394.107 1579.676,1829.079 2016.129,1874.000 2053.921 C 1891.600 2068.727,1910.382 2082.534,1915.738 2084.602 C 1921.094 2086.671,1944.903 2088.416,1968.647 2088.481 C 2008.547 2088.590,2013.398 2087.742,2032.674 2077.299 C 2061.112 2061.893,2091.025 2031.026,2103.476 2004.241 C 2112.391 1985.062,2113.827 1976.494,2113.907 1942.000 C 2113.980 1910.792,2112.352 1898.684,2106.504 1886.914 C 2094.157 1862.068,2047.556 1811.865,1874.602 1637.086 C 1709.200 1469.938,1590.716 1355.962,1582.447 1356.044 C 1580.001 1356.069,1571.700 1360.846,1564.000 1366.662 " fill="#1D1E23" stroke="none" fill-rule="evenodd"/></svg>