<svg viewBox="0 0 2400 2400" fill="none" xmlns="http://www.w3.org/2000/svg"><path d="M906.212 311.982 C 878.259 317.040,832.897 340.525,798.903 367.539 C 761.215 397.488,601.517 552.315,504.306 653.150 C 446.941 712.654,428.000 734.768,428.000 742.240 C 428.000 753.621,441.059 769.146,507.709 837.000 L 553.875 884.000 411.261 884.000 L 268.648 884.000 242.324 912.843 C 227.846 928.706,216.007 945.356,216.015 949.843 C 216.023 954.329,219.367 963.400,223.446 970.000 C 232.507 984.661,526.366 1278.299,540.652 1286.967 C 555.627 1296.054,567.255 1291.288,597.318 1263.741 L 624.000 1239.291 624.000 1097.298 L 624.000 955.304 684.051 1013.003 C 717.079 1044.738,748.489 1073.051,753.850 1075.920 C 767.654 1083.307,782.183 1076.398,812.966 1047.806 L 838.000 1024.555 926.755 1112.999 L 1015.510 1201.444 758.999 1459.722 C 489.087 1731.493,375.613 1849.645,355.829 1879.513 C 338.217 1906.103,334.092 1924.982,339.208 1955.593 C 345.337 1992.263,364.027 2027.566,389.768 2051.092 C 420.741 2079.399,438.557 2086.547,486.000 2089.701 L 526.000 2092.361 552.238 2072.432 C 596.037 2039.166,754.024 1885.230,1198.746 1442.498 L 1623.493 1019.654 1656.154 1026.272 C 1681.598 1031.427,1703.972 1032.506,1757.407 1031.155 C 1823.291 1029.488,1827.297 1028.909,1858.834 1016.483 C 1956.708 977.921,2039.371 890.587,2071.312 792.000 C 2088.703 738.321,2092.013 688.060,2081.955 630.385 C 2072.170 574.271,2053.168 542.812,2034.949 552.563 C 2030.651 554.863,1993.757 588.527,1952.963 627.372 C 1795.737 777.088,1784.294 787.328,1776.497 785.289 C 1772.386 784.214,1739.758 753.875,1703.991 717.869 L 1638.959 652.404 1646.479 640.629 C 1650.616 634.153,1699.222 581.412,1754.492 523.427 C 1866.241 406.192,1885.046 384.929,1881.730 379.563 C 1877.450 372.638,1848.174 359.925,1821.085 353.230 C 1779.864 343.041,1691.734 344.134,1650.000 355.352 C 1552.394 381.588,1471.725 448.534,1425.089 542.000 C 1400.145 591.990,1398.263 602.534,1398.668 690.000 C 1398.951 751.228,1400.466 773.754,1405.125 786.000 L 1411.212 802.000 1318.638 895.000 L 1226.065 987.999 1137.252 899.253 L 1048.440 810.506 1074.142 783.261 C 1088.278 768.276,1100.979 751.492,1102.367 745.963 C 1105.462 733.629,1096.221 721.816,1027.652 650.454 L 978.648 599.454 1034.779 542.727 C 1116.962 459.671,1180.000 391.448,1180.000 385.561 C 1180.000 374.926,1127.321 341.942,1080.000 322.949 C 1051.881 311.662,1046.112 310.829,988.000 309.654 C 953.900 308.965,917.095 310.012,906.212 311.982 M1535.089 1393.481 C 1495.409 1429.311,1383.328 1544.252,1380.784 1551.723 C 1378.264 1559.127,1435.037 1619.235,1603.951 1788.000 C 1801.876 1985.749,1895.861 2074.678,1915.676 2082.958 C 1936.311 2091.580,2008.880 2088.456,2030.000 2078.036 C 2050.533 2067.906,2092.020 2026.475,2101.374 2006.757 C 2112.629 1983.034,2117.279 1944.195,2112.522 1913.640 C 2109.166 1892.082,2105.285 1883.220,2091.218 1864.986 C 2040.101 1798.729,1595.479 1356.000,1580.055 1356.000 C 1578.154 1356.000,1557.919 1372.867,1535.089 1393.481 " fill="#1D1E23" stroke="none" fill-rule="evenodd"/></svg>