<svg viewBox="0 0 2400 2400" fill="none" xmlns="http://www.w3.org/2000/svg"><path d="M682.000 400.004 L 782.000 500.815 952.000 498.441 C 1045.500 497.135,1126.848 494.962,1132.774 493.610 C 1160.889 487.200,1200.000 432.570,1200.000 399.711 C 1200.000 378.051,1177.690 337.222,1157.398 321.744 C 1141.272 309.444,1139.499 309.061,1087.426 306.617 C 1058.042 305.237,932.300 303.003,808.000 301.651 L 582.000 299.194 682.000 400.004 M1460.805 306.938 C 1447.332 308.146,1442.660 310.564,1439.220 318.114 C 1433.309 331.088,1439.047 337.802,1570.379 471.563 L 1677.403 580.568 1473.716 784.284 L 1270.029 988.001 1341.014 1058.986 L 1412.000 1129.971 1617.034 924.966 L 1822.068 719.961 1878.034 776.373 C 1958.215 857.194,2058.746 951.146,2072.847 958.438 C 2080.678 962.488,2086.288 963.312,2088.814 960.786 C 2097.937 951.663,2100.643 852.758,2098.793 596.051 C 2097.738 449.723,2095.620 325.320,2094.086 319.599 C 2091.318 309.278,2090.913 309.179,2040.648 306.616 C 1988.184 303.940,1491.184 304.216,1460.805 306.938 M255.974 327.526 C 210.260 342.394,184.000 379.238,184.000 428.508 C 184.000 455.295,196.256 474.294,249.891 530.654 L 300.000 583.307 300.000 1255.538 L 300.000 1927.770 311.622 1959.615 C 335.242 2024.336,375.586 2064.729,440.135 2088.287 L 472.230 2100.000 1144.476 2100.000 L 1816.722 2100.000 1869.107 2150.005 C 1927.578 2205.817,1947.146 2217.853,1978.696 2217.407 C 2018.088 2216.851,2061.743 2182.092,2072.303 2142.874 C 2079.598 2115.782,2075.137 2094.674,2057.536 2073.013 C 2019.632 2026.367,1801.024 1804.822,1182.098 1185.816 C 551.402 555.039,356.234 363.110,319.902 337.932 C 302.827 326.099,274.526 321.493,255.974 327.526 M945.167 1313.699 C 875.687 1386.542,864.101 1410.938,877.402 1456.393 C 892.791 1508.979,947.494 1539.806,996.403 1523.454 C 1015.632 1517.025,1046.130 1493.439,1091.402 1449.986 L 1130.492 1412.467 1374.233 1656.233 L 1617.975 1900.000 1058.988 1900.000 L 500.000 1900.000 500.000 1341.012 L 500.000 782.025 743.711 1025.711 L 987.423 1269.398 945.167 1313.699 M1955.627 1213.729 C 1936.030 1224.168,1914.449 1246.139,1906.795 1263.444 C 1903.540 1270.805,1901.756 1326.067,1900.901 1446.000 L 1899.676 1618.000 1999.838 1717.970 L 2100.000 1817.940 2099.920 1563.970 C 2099.875 1424.286,2098.174 1298.483,2096.140 1284.408 C 2091.775 1254.216,2079.293 1236.264,2050.000 1218.047 C 2034.126 1208.175,2025.836 1205.907,2002.390 1205.018 C 1978.648 1204.119,1970.992 1205.545,1955.627 1213.729 " fill="#1D1E23" stroke="none" fill-rule="evenodd"/></svg>