<svg viewBox="0 0 2400 2400" fill="none" xmlns="http://www.w3.org/2000/svg"><path d="M682.000 399.819 L 782.000 500.533 952.000 498.828 C 1066.113 497.684,1126.843 495.586,1136.732 492.448 C 1165.459 483.330,1200.000 432.859,1200.000 400.000 C 1200.000 364.877,1165.421 316.329,1134.937 308.653 C 1124.002 305.900,1020.080 303.370,849.865 301.713 L 582.000 299.106 682.000 399.819 M1442.620 311.315 C 1438.979 315.338,1436.000 321.633,1436.000 325.303 C 1436.000 333.645,1468.736 368.998,1585.739 487.009 L 1677.953 580.017 1473.991 784.009 L 1270.029 988.001 1341.014 1058.986 L 1412.000 1129.971 1617.000 925.221 L 1822.000 720.471 1938.146 835.236 C 2051.610 947.350,2079.111 970.489,2088.151 961.449 C 2097.746 951.854,2099.826 894.256,2099.544 646.000 C 2099.223 363.641,2097.526 313.936,2088.000 307.915 C 2084.352 305.609,1957.990 304.098,1765.620 304.061 C 1464.153 304.003,1448.928 304.345,1442.620 311.315 M249.467 329.708 C 209.081 342.343,184.000 378.153,184.000 423.181 C 184.000 438.416,186.604 454.278,190.428 462.336 C 193.963 469.786,219.971 499.931,248.224 529.327 L 299.594 582.772 300.887 1258.386 L 302.181 1934.000 310.947 1960.000 C 331.996 2022.431,377.599 2068.030,440.000 2089.042 L 466.000 2097.797 1141.729 2099.111 L 1817.458 2100.426 1868.797 2150.166 C 1897.034 2177.524,1926.856 2203.312,1935.068 2207.474 C 1972.775 2226.583,2009.198 2220.530,2043.820 2189.402 C 2065.869 2169.578,2076.000 2145.513,2076.000 2112.960 C 2076.000 2097.331,2073.239 2091.992,2051.224 2065.050 C 2013.847 2019.309,1582.346 1583.129,999.522 1001.945 C 433.988 438.002,327.040 334.334,304.255 328.005 C 285.672 322.842,269.838 323.334,249.467 329.708 M939.707 1319.288 C 881.956 1379.705,869.869 1400.755,873.014 1435.438 C 879.474 1506.682,949.318 1548.487,1010.746 1517.876 C 1022.871 1511.833,1051.130 1488.569,1080.839 1460.171 L 1130.615 1412.591 1374.295 1656.295 L 1617.975 1900.000 1058.988 1900.000 L 500.000 1900.000 500.000 1341.012 L 500.000 782.025 743.705 1025.705 L 987.409 1269.385 939.707 1319.288 M1978.183 1204.571 C 1943.145 1212.642,1911.142 1242.823,1903.720 1274.795 C 1901.779 1283.158,1900.148 1363.814,1900.095 1454.030 L 1900.000 1618.060 2000.000 1718.000 L 2100.000 1817.940 2100.000 1548.842 C 2100.000 1252.677,2101.126 1266.552,2074.708 1237.310 C 2050.009 1209.971,2011.476 1196.902,1978.183 1204.571 " fill="#1D1E23" stroke="none" fill-rule="evenodd"/></svg>