<svg viewBox="0 0 2400 2400" fill="none" xmlns="http://www.w3.org/2000/svg"><path d="M682.000 399.974 L 782.000 500.369 954.000 499.175 C 1144.060 497.855,1141.155 498.229,1167.729 471.655 C 1185.890 453.495,1199.922 422.262,1199.922 400.000 C 1199.922 364.018,1168.448 317.707,1137.076 307.525 C 1126.003 303.931,1050.310 302.227,852.000 301.106 L 582.000 299.580 682.000 399.974 M1465.029 302.865 C 1441.499 304.605,1433.378 313.009,1437.883 330.957 C 1439.404 337.019,1488.638 389.747,1559.059 460.733 L 1677.673 580.298 1473.851 784.149 L 1270.029 988.001 1341.014 1058.986 L 1412.000 1129.971 1617.000 925.132 L 1822.000 720.292 1942.388 839.916 C 2065.171 961.921,2079.340 973.255,2090.313 958.248 C 2099.313 945.940,2100.500 899.012,2099.239 605.141 C 2098.077 334.157,2097.558 315.840,2090.859 309.141 C 2084.139 302.420,2066.142 301.980,1784.859 301.657 C 1620.487 301.469,1476.563 302.012,1465.029 302.865 M246.510 329.873 C 223.752 337.985,203.249 355.919,192.705 376.936 C 181.219 399.829,179.682 438.585,189.356 461.342 C 193.184 470.348,217.378 498.554,247.939 529.639 L 300.000 582.594 300.284 1234.297 C 300.441 1592.734,301.945 1901.705,303.627 1920.900 C 311.719 2013.255,386.745 2088.281,479.100 2096.373 C 498.295 2098.055,807.190 2099.559,1165.533 2099.716 L 1817.065 2100.000 1872.436 2153.860 C 1922.220 2202.287,1930.073 2208.379,1950.289 2214.256 C 1979.110 2222.635,2000.517 2219.502,2028.305 2202.838 C 2057.948 2185.062,2072.430 2160.939,2074.990 2125.076 L 2076.922 2098.000 2058.160 2073.050 C 2029.827 2035.375,1898.478 1901.863,1294.353 1296.670 C 546.264 547.259,329.125 333.798,309.283 328.288 C 288.744 322.585,265.294 323.177,246.510 329.873 M938.365 1320.248 C 884.231 1376.122,872.000 1395.714,872.000 1426.550 C 872.000 1457.608,881.900 1480.941,903.750 1501.379 C 924.669 1520.947,943.078 1527.943,973.737 1527.978 C 1004.241 1528.012,1024.009 1515.641,1079.752 1461.635 L 1130.496 1412.471 1374.236 1656.236 L 1617.975 1900.000 1058.988 1900.000 L 500.000 1900.000 500.000 1341.012 L 500.000 782.025 743.764 1025.764 L 987.529 1269.504 938.365 1320.248 M1977.328 1203.647 C 1958.635 1208.380,1931.185 1225.607,1921.620 1238.609 C 1899.280 1268.975,1900.000 1262.038,1900.000 1446.831 L 1900.000 1618.060 2000.164 1718.030 L 2100.329 1818.000 2099.164 1546.000 L 2098.000 1274.000 2088.799 1255.321 C 2070.011 1217.183,2018.388 1193.252,1977.328 1203.647 " fill="#1D1E23" stroke="none" fill-rule="evenodd"/></svg>