<svg viewBox="0 0 2400 2400" fill="none" xmlns="http://www.w3.org/2000/svg"><path d="M682.000 400.000 L 781.940 500.000 948.257 500.000 C 1137.247 500.000,1140.672 499.539,1170.105 470.105 C 1188.067 452.144,1200.000 424.160,1200.000 400.000 C 1200.000 375.840,1188.067 347.856,1170.105 329.895 C 1139.335 299.125,1148.757 300.000,848.317 300.000 L 582.060 300.000 682.000 400.000 M1444.890 306.227 C 1438.897 310.424,1436.000 316.567,1436.000 325.075 C 1436.000 336.287,1449.508 351.232,1556.949 458.885 L 1677.898 580.073 1473.963 784.037 L 1270.029 988.001 1341.014 1058.986 L 1412.000 1129.971 1617.019 924.981 L 1822.039 719.990 1943.995 841.995 C 2043.712 941.752,2067.920 964.000,2076.749 964.000 C 2100.901 964.000,2100.000 976.896,2100.000 631.110 C 2100.000 321.333,2099.865 315.865,2092.000 308.000 C 2084.135 300.135,2078.667 300.000,1768.890 300.000 C 1490.165 300.000,1452.754 300.719,1444.890 306.227 M238.150 332.225 C 200.449 351.032,182.238 380.273,182.238 422.000 C 182.238 460.396,189.363 472.005,249.713 531.940 L 300.000 581.880 300.000 1250.743 C 300.000 1723.600,301.295 1925.818,304.420 1940.803 C 320.053 2015.765,384.235 2079.947,459.197 2095.580 C 474.182 2098.705,676.400 2100.000,1149.257 2100.000 L 1818.120 2100.000 1868.060 2150.287 C 1895.527 2177.944,1924.873 2204.144,1933.274 2208.507 C 1996.203 2241.198,2075.819 2193.187,2075.961 2122.464 C 2076.054 2075.928,2144.082 2147.375,1202.382 1204.973 C 569.928 572.047,333.450 337.807,321.044 331.973 C 298.361 321.308,259.801 321.425,238.150 332.225 M938.030 1320.124 C 882.626 1376.119,871.429 1394.536,871.429 1429.667 C 871.429 1485.035,914.555 1528.571,969.402 1528.571 C 1005.579 1528.571,1023.458 1517.793,1079.876 1461.970 L 1130.200 1412.176 1374.088 1656.088 L 1617.975 1900.000 1058.988 1900.000 L 500.000 1900.000 500.000 1341.012 L 500.000 782.025 743.912 1025.912 L 987.824 1269.800 938.030 1320.124 M1966.363 1206.293 C 1943.583 1214.639,1925.689 1229.702,1913.089 1251.136 L 1902.000 1270.000 1900.886 1444.000 L 1899.772 1618.000 1999.886 1717.970 L 2100.000 1817.940 2100.000 1551.683 C 2100.000 1251.243,2100.875 1260.665,2070.105 1229.895 C 2042.868 1202.658,2001.791 1193.312,1966.363 1206.293 " fill="#1D1E23" stroke="none" fill-rule="evenodd"/></svg>