<svg viewBox="0 0 2400 2400" fill="none" xmlns="http://www.w3.org/2000/svg"><path d="M682.000 400.000 L 781.940 500.000 883.970 499.627 C 940.086 499.421,1020.200 498.071,1062.000 496.627 C 1149.927 493.588,1152.174 492.716,1180.203 450.744 C 1205.995 412.121,1205.305 386.475,1177.363 345.182 C 1151.439 306.871,1159.492 308.199,927.360 303.943 C 816.612 301.912,693.614 300.194,654.030 300.125 L 582.060 300.000 682.000 400.000 M1490.842 307.494 C 1445.464 309.905,1436.337 312.762,1436.061 324.641 C 1435.899 331.645,1475.723 375.174,1572.056 473.287 L 1677.397 580.574 1473.713 784.287 L 1270.029 988.001 1341.014 1058.986 L 1412.000 1129.971 1617.030 924.969 L 1822.061 719.968 1886.031 784.185 C 1966.323 864.788,2056.164 947.843,2072.913 956.952 C 2080.453 961.053,2087.167 962.433,2089.283 960.317 C 2097.989 951.611,2100.760 842.610,2098.699 590.000 C 2097.515 444.800,2095.383 322.989,2093.963 319.309 C 2092.543 315.629,2088.371 311.340,2084.691 309.776 C 2076.172 306.158,1553.775 304.150,1490.842 307.494 M248.342 330.714 C 222.980 339.894,197.957 366.453,190.265 392.356 C 174.760 444.566,184.096 463.343,268.670 550.049 L 299.931 582.098 300.966 1260.049 L 302.000 1938.000 314.998 1968.000 C 339.461 2024.466,375.320 2060.633,430.370 2084.365 L 462.000 2098.000 1139.951 2099.034 L 1817.902 2100.069 1849.951 2131.330 C 1923.199 2202.776,1942.975 2216.000,1976.578 2216.000 C 2003.961 2216.000,2027.218 2204.494,2049.157 2180.093 C 2076.198 2150.016,2082.433 2119.814,2067.828 2089.644 C 2054.898 2062.936,1876.524 1880.987,1195.216 1199.547 C 555.001 559.207,346.653 354.561,318.000 337.920 C 296.406 325.378,270.490 322.697,248.342 330.714 M944.516 1314.706 C 880.441 1382.505,865.310 1412.302,875.584 1450.455 C 889.144 1500.812,938.916 1535.097,985.717 1526.317 C 1005.982 1522.515,1040.553 1497.667,1088.320 1452.570 L 1130.640 1412.615 1374.308 1656.308 L 1617.975 1900.000 1058.988 1900.000 L 500.000 1900.000 500.000 1341.012 L 500.000 782.025 743.689 1025.689 L 987.378 1269.354 944.516 1314.706 M1966.992 1209.472 C 1946.186 1217.223,1925.635 1233.701,1913.043 1252.728 L 1902.401 1268.810 1900.860 1443.405 L 1899.318 1618.000 1999.840 1718.000 L 2100.361 1818.000 2099.181 1547.887 L 2098.000 1277.773 2087.803 1257.887 C 2072.797 1228.621,2042.460 1208.914,2008.000 1206.045 C 1990.655 1204.601,1977.004 1205.742,1966.992 1209.472 " fill="#1D1E23" stroke="none" fill-rule="evenodd"/></svg>