<svg viewBox="0 0 2400 2400" fill="none" xmlns="http://www.w3.org/2000/svg"><path d="M1285.223 136.417 C 1268.008 141.397,1171.938 231.920,1041.260 366.296 C 983.652 425.533,932.629 479.004,927.875 485.119 L 919.232 496.239 934.478 514.844 C 960.956 547.158,1232.966 817.965,1256.613 835.556 C 1269.051 844.808,1285.697 853.428,1293.606 854.711 C 1326.273 860.012,1361.226 839.477,1376.516 806.000 C 1393.680 768.421,1385.195 753.980,1287.020 653.689 L 1207.054 572.000 1264.728 572.000 C 1381.279 572.000,1466.679 583.158,1544.000 608.487 C 1754.814 677.547,1942.594 865.336,2011.493 1076.000 C 2055.055 1209.196,2058.648 1367.594,2021.329 1509.647 C 1994.800 1610.630,1937.473 1713.850,1860.961 1798.395 C 1785.337 1881.960,1725.690 1928.368,1638.000 1971.870 C 1517.013 2031.891,1419.417 2051.430,1264.000 2046.749 C 1142.334 2043.084,1047.980 2018.615,934.866 1961.395 C 875.419 1931.323,873.294 1930.598,843.717 1930.303 C 816.660 1930.032,811.907 1931.163,799.096 1940.914 C 768.422 1964.264,758.063 2001.181,773.700 2031.419 C 788.329 2059.709,870.450 2106.115,968.000 2141.216 C 1092.976 2186.185,1217.660 2203.291,1364.000 2195.543 C 1461.910 2190.360,1530.642 2175.828,1619.496 2141.526 C 1975.748 2003.995,2215.114 1645.363,2198.521 1274.000 C 2189.829 1079.479,2126.318 909.872,2006.797 762.000 C 1975.445 723.211,1892.405 640.490,1854.000 609.792 C 1764.635 538.358,1642.190 476.411,1538.000 449.922 C 1469.732 432.565,1347.717 420.134,1244.650 420.036 L 1207.299 420.000 1288.005 337.000 C 1332.393 291.350,1371.458 248.738,1374.817 242.306 C 1383.868 224.973,1382.576 195.673,1371.925 176.721 C 1361.423 158.036,1346.208 145.835,1323.348 137.770 C 1305.003 131.298,1303.150 131.232,1285.223 136.417 M622.968 789.715 C 614.700 792.666,595.873 805.636,581.129 818.540 C 510.931 879.976,206.788 1187.080,161.941 1241.811 C 148.663 1258.015,146.698 1263.263,144.994 1287.081 C 143.652 1305.837,144.899 1318.410,149.099 1328.462 C 160.870 1356.633,581.555 1779.978,616.000 1798.315 C 638.418 1810.249,677.625 1808.427,702.311 1794.303 C 726.718 1780.339,1139.589 1366.952,1154.442 1341.606 C 1168.615 1317.422,1171.258 1286.480,1161.098 1263.683 C 1155.701 1251.572,1122.370 1213.856,1055.331 1144.000 C 961.328 1046.047,754.585 842.301,714.962 808.565 C 686.835 784.617,655.340 778.163,622.968 789.715 M827.018 1137.018 L 996.000 1306.035 826.000 1476.000 L 656.000 1645.965 486.000 1476.000 L 316.000 1306.035 484.982 1137.018 C 577.923 1044.058,654.881 968.000,656.000 968.000 C 657.119 968.000,734.077 1044.058,827.018 1137.018 " fill="#1D1E23" stroke="none" fill-rule="evenodd"/></svg>