<svg viewBox="0 0 2400 2400" fill="none" xmlns="http://www.w3.org/2000/svg"><path d="M356.950 312.446 C 337.066 322.288,310.106 351.290,306.197 367.043 C 301.937 384.210,299.215 1589.617,302.903 1826.000 C 306.663 2067.048,304.651 2053.793,341.124 2077.855 C 384.049 2106.174,417.044 2105.990,459.232 2077.197 C 495.582 2052.388,493.512 2066.007,496.505 1832.000 C 499.861 1569.611,499.867 818.315,496.515 560.000 C 493.649 339.191,494.731 347.263,465.278 326.922 C 429.378 302.128,388.761 296.700,356.950 312.446 M1956.950 312.446 C 1937.066 322.288,1910.106 351.290,1906.197 367.043 C 1901.937 384.210,1899.215 1589.617,1902.903 1826.000 C 1906.663 2067.048,1904.651 2053.793,1941.124 2077.855 C 1984.049 2106.174,2017.044 2105.990,2059.232 2077.197 C 2095.582 2052.388,2093.512 2066.007,2096.505 1832.000 C 2099.861 1569.611,2099.867 818.315,2096.515 560.000 C 2093.649 339.191,2094.731 347.263,2065.278 326.922 C 2029.378 302.128,1988.761 296.700,1956.950 312.446 M712.000 1200.000 L 712.000 1276.000 788.000 1276.000 L 864.000 1276.000 864.000 1200.000 L 864.000 1124.000 788.000 1124.000 L 712.000 1124.000 712.000 1200.000 M1124.000 1200.000 L 1124.000 1276.000 1200.000 1276.000 L 1276.000 1276.000 1276.000 1200.000 L 1276.000 1124.000 1200.000 1124.000 L 1124.000 1124.000 1124.000 1200.000 M1550.000 1127.513 L 1538.000 1130.079 1538.000 1202.039 L 1538.000 1274.000 1613.000 1275.088 L 1688.000 1276.177 1688.000 1200.088 L 1688.000 1124.000 1625.000 1124.473 C 1590.350 1124.734,1556.600 1126.101,1550.000 1127.513 " fill="#1D1E23" stroke="none" fill-rule="evenodd"/></svg>