<svg viewBox="0 0 2400 2400" fill="none" xmlns="http://www.w3.org/2000/svg"><path d="M1124.912 375.000 L 1126.000 450.000 1200.000 450.000 L 1274.000 450.000 1275.088 375.000 L 1276.177 300.000 1200.000 300.000 L 1123.823 300.000 1124.912 375.000 M370.000 308.662 C 350.642 315.929,325.146 335.916,313.148 353.231 L 302.000 369.317 302.392 1171.659 C 302.795 1995.258,303.427 2030.254,318.373 2055.555 C 327.097 2070.323,352.669 2086.760,378.768 2094.374 C 403.866 2101.696,423.340 2097.793,454.434 2079.209 C 482.231 2062.595,487.866 2051.375,492.791 2002.834 C 495.471 1976.416,497.097 1693.701,497.399 1202.000 C 497.876 422.363,497.015 373.037,482.445 344.861 C 469.091 319.036,400.869 297.074,370.000 308.662 M1970.000 308.662 C 1950.642 315.929,1925.146 335.916,1913.148 353.231 L 1902.000 369.317 1902.392 1171.659 C 1902.795 1995.258,1903.427 2030.254,1918.373 2055.555 C 1927.097 2070.323,1952.669 2086.760,1978.768 2094.374 C 2003.866 2101.696,2023.340 2097.793,2054.434 2079.209 C 2082.231 2062.595,2087.866 2051.375,2092.791 2002.834 C 2095.471 1976.416,2097.097 1693.701,2097.399 1202.000 C 2097.876 422.363,2097.015 373.037,2082.445 344.861 C 2069.091 319.036,2000.869 297.074,1970.000 308.662 M1124.000 788.000 L 1124.000 864.000 1200.000 864.000 L 1276.000 864.000 1276.000 788.000 L 1276.000 712.000 1200.000 712.000 L 1124.000 712.000 1124.000 788.000 M712.000 1200.000 L 712.000 1276.000 788.000 1276.000 L 864.000 1276.000 864.000 1200.000 L 864.000 1124.000 788.000 1124.000 L 712.000 1124.000 712.000 1200.000 M1124.000 1200.000 L 1124.000 1276.000 1200.000 1276.000 L 1276.000 1276.000 1276.000 1200.000 L 1276.000 1124.000 1200.000 1124.000 L 1124.000 1124.000 1124.000 1200.000 M1566.000 1127.706 L 1538.000 1130.000 1538.000 1202.000 L 1538.000 1274.000 1613.000 1275.088 L 1688.000 1276.177 1688.000 1200.088 L 1688.000 1124.000 1641.000 1124.706 C 1615.150 1125.095,1581.400 1126.445,1566.000 1127.706 M1124.000 1614.000 L 1124.000 1688.000 1200.000 1688.000 L 1276.000 1688.000 1276.000 1614.000 L 1276.000 1540.000 1200.000 1540.000 L 1124.000 1540.000 1124.000 1614.000 M1124.000 2026.000 L 1124.000 2100.000 1200.000 2100.000 L 1276.000 2100.000 1276.000 2026.000 L 1276.000 1952.000 1200.000 1952.000 L 1124.000 1952.000 1124.000 2026.000 " fill="#1D1E23" stroke="none" fill-rule="evenodd"/></svg>