<svg viewBox="0 0 2400 2400" fill="none" xmlns="http://www.w3.org/2000/svg"><path d="M1281.638 140.106 C 1258.456 151.580,1154.661 249.379,1039.464 368.289 C 985.269 424.230,936.030 475.884,930.044 483.076 L 919.161 496.152 934.508 514.881 C 960.758 546.915,1244.865 827.819,1263.498 840.161 C 1285.671 854.848,1304.137 858.411,1325.386 852.103 C 1357.116 842.683,1389.230 797.381,1382.679 771.281 C 1377.795 751.822,1353.350 722.146,1280.721 647.505 L 1206.000 570.714 1294.000 573.329 C 1450.853 577.991,1531.374 595.496,1634.880 647.438 C 1834.679 747.702,1988.133 942.651,2029.925 1149.305 C 2056.746 1281.932,2049.380 1426.243,2009.659 1546.370 C 1962.313 1689.552,1846.126 1839.988,1715.332 1927.456 C 1647.769 1972.638,1539.984 2018.144,1464.000 2033.565 C 1409.476 2044.631,1341.162 2049.223,1270.000 2046.605 C 1136.913 2041.710,1052.789 2019.760,924.453 1956.444 C 877.284 1933.173,873.484 1932.000,845.255 1932.000 C 808.668 1932.000,795.472 1938.248,779.772 1963.004 C 765.234 1985.928,763.712 2014.117,775.944 2033.909 C 810.782 2090.278,1027.706 2173.824,1186.000 2191.838 C 1233.035 2197.190,1365.803 2197.147,1415.158 2191.763 C 1578.979 2173.892,1747.135 2098.786,1882.000 1983.251 C 2089.608 1805.398,2210.743 1534.970,2198.543 1276.583 C 2189.879 1093.082,2137.787 942.153,2032.674 796.000 C 1996.171 745.244,1885.173 632.437,1836.049 596.169 C 1745.531 529.341,1631.734 474.158,1535.617 450.481 C 1466.240 433.392,1340.384 420.134,1246.637 420.040 L 1207.274 420.000 1278.175 347.000 C 1373.295 249.064,1380.000 240.431,1380.000 215.901 C 1380.000 180.275,1365.114 158.133,1330.000 141.533 C 1305.586 129.991,1302.268 129.893,1281.638 140.106 M616.700 794.207 C 592.108 806.685,505.659 887.091,377.572 1016.621 C 237.289 1158.485,160.256 1240.944,151.913 1258.179 C 143.516 1275.525,141.359 1308.644,147.578 1324.740 C 159.197 1354.811,580.117 1779.289,617.937 1799.075 C 633.367 1807.146,673.453 1807.192,692.203 1799.159 C 709.626 1791.695,878.513 1628.083,1038.695 1463.490 C 1136.319 1363.179,1156.421 1340.558,1161.695 1325.079 C 1174.226 1288.303,1167.164 1265.783,1129.999 1224.000 C 1034.925 1117.114,730.947 817.097,698.394 798.020 C 671.027 781.982,643.342 780.690,616.700 794.207 M827.018 1137.018 L 996.000 1306.035 826.000 1476.000 L 656.000 1645.965 486.000 1476.000 L 316.000 1306.035 484.982 1137.018 C 577.923 1044.058,654.881 968.000,656.000 968.000 C 657.119 968.000,734.077 1044.058,827.018 1137.018 " fill="#1D1E23" stroke="none" fill-rule="evenodd"/></svg>