<svg viewBox="0 0 2400 2400" fill="none" xmlns="http://www.w3.org/2000/svg"><path d="M366.681 306.493 C 341.509 314.226,315.472 340.018,306.625 365.983 C 300.544 383.829,300.000 452.285,300.000 1200.000 C 300.000 2114.372,297.361 2037.572,329.895 2070.105 C 369.021 2109.232,430.979 2109.232,470.105 2070.105 C 502.639 2037.572,500.000 2114.372,500.000 1200.000 C 500.000 282.858,502.816 362.101,469.063 329.297 C 441.234 302.250,406.020 294.407,366.681 306.493 M1966.681 306.493 C 1941.509 314.226,1915.472 340.018,1906.625 365.983 C 1900.544 383.829,1900.000 452.285,1900.000 1200.000 C 1900.000 2114.372,1897.361 2037.572,1929.895 2070.105 C 1969.021 2109.232,2030.979 2109.232,2070.105 2070.105 C 2102.639 2037.572,2100.000 2114.372,2100.000 1200.000 C 2100.000 282.858,2102.816 362.101,2069.063 329.297 C 2041.234 302.250,2006.020 294.407,1966.681 306.493 M712.000 1200.000 L 712.000 1276.000 788.000 1276.000 L 864.000 1276.000 864.000 1200.000 L 864.000 1124.000 788.000 1124.000 L 712.000 1124.000 712.000 1200.000 M1124.000 1200.000 L 1124.000 1276.000 1200.000 1276.000 L 1276.000 1276.000 1276.000 1200.000 L 1276.000 1124.000 1200.000 1124.000 L 1124.000 1124.000 1124.000 1200.000 M1537.776 1129.141 C 1536.691 1131.968,1536.298 1165.718,1536.902 1204.141 L 1538.000 1274.000 1613.000 1275.088 L 1688.000 1276.177 1688.000 1200.088 L 1688.000 1124.000 1613.874 1124.000 C 1557.183 1124.000,1539.285 1125.209,1537.776 1129.141 " fill="#1D1E23" stroke="none" fill-rule="evenodd"/></svg>