<svg viewBox="0 0 2400 2400" fill="none" xmlns="http://www.w3.org/2000/svg"><path d="M1310 2200C1205 2200 1101.67 2184.58 1000 2153.75C925.438 2131.14 857.151 2098.89 795.14 2057C758.32 2032.13 755.839 1980.43 786.519 1948.29C814.016 1919.48 858.651 1916.72 892.132 1938.28C945.021 1972.34 1000.14 1997.92 1057.5 2015C1135.83 2038.33 1220 2050 1310 2050C1513.33 2050 1687.5 1977.5 1832.5 1832.5C1977.5 1687.5 2050 1513.33 2050 1310C2050 1106.67 1977.5 932.5 1832.5 787.5C1687.5 642.5 1513.33 570 1310 570H1205L1360 725C1390.38 755.376 1390.38 804.624 1360 835C1329.62 865.376 1280.38 865.376 1250 835L927.678 512.678C917.915 502.915 917.915 487.085 927.678 477.322L1250 155C1280.38 124.624 1329.62 124.624 1360 155C1390.38 185.376 1390.38 234.624 1360 265L1205 420H1310C1553.33 420 1762.5 507.5 1937.5 682.5C2112.5 857.5 2200 1066.67 2200 1310C2200 1431.67 2176.25 1546.25 2128.75 1653.75C2081.25 1761.25 2017.08 1855.42 1936.25 1936.25C1855.42 2017.08 1761.25 2081.25 1653.75 2128.75C1546.25 2176.25 1431.67 2200 1310 2200ZM725.711 1779.29C686.658 1818.34 623.342 1818.34 584.289 1779.29L170.711 1365.71C131.658 1326.66 131.658 1263.34 170.711 1224.29L584.289 810.711C623.342 771.658 686.658 771.658 725.711 810.711L1139.29 1224.29C1178.34 1263.34 1178.34 1326.66 1139.29 1365.71L725.711 1779.29ZM655 1645L995 1305L655 965L315 1305L655 1645Z" fill="#1D1E23"/></svg>