<svg viewBox="0 0 2400 2400" fill="none" xmlns="http://www.w3.org/2000/svg"><path d="M1276.201 140.250 C 1263.011 146.234,1218.407 188.422,1103.958 303.162 C 1019.015 388.323,942.657 466.550,934.276 477.000 L 919.036 496.000 934.247 515.000 C 942.613 525.450,1018.214 602.842,1102.250 686.981 C 1262.522 847.451,1272.626 855.824,1306.000 855.824 C 1350.783 855.824,1389.902 811.034,1382.059 768.739 C 1378.180 747.817,1367.952 735.517,1282.500 649.000 L 1206.446 572.000 1276.223 572.003 C 1393.944 572.009,1467.579 582.144,1549.809 609.660 C 1755.554 678.507,1941.493 864.446,2010.340 1070.191 C 2060.448 1219.936,2060.194 1400.034,2009.663 1551.664 C 1992.084 1604.413,1951.608 1682.978,1916.881 1731.758 C 1886.503 1774.428,1811.993 1853.679,1769.951 1888.037 C 1677.694 1963.432,1573.907 2012.105,1454.000 2036.206 C 1392.095 2048.649,1254.013 2051.807,1187.990 2042.290 C 1086.831 2027.708,1006.279 2001.533,926.000 1957.159 C 882.891 1933.330,875.242 1930.446,850.928 1928.858 C 818.761 1926.756,806.222 1931.155,787.098 1951.250 C 763.730 1975.804,759.577 2003.253,774.707 2033.135 C 795.107 2073.424,949.538 2145.257,1076.425 2173.477 C 1160.071 2192.080,1211.599 2197.560,1304.000 2197.681 C 1429.440 2197.844,1519.210 2181.704,1624.301 2140.091 C 1996.211 1992.826,2231.543 1618.172,2195.960 1230.000 C 2176.382 1016.429,2093.804 842.218,1938.000 685.793 C 1862.035 609.525,1794.347 559.389,1706.607 514.403 C 1582.904 450.977,1473.748 425.901,1301.143 421.256 L 1208.286 418.757 1286.326 338.959 C 1329.248 295.070,1367.164 254.890,1370.584 249.671 C 1394.923 212.524,1377.996 161.876,1334.468 141.609 C 1309.576 130.018,1299.285 129.778,1276.201 140.250 M612.331 792.958 C 579.583 808.822,161.795 1229.155,149.480 1258.627 C 141.853 1276.882,142.516 1317.571,150.731 1335.395 C 158.523 1352.301,580.575 1776.662,606.369 1793.526 C 628.382 1807.918,656.012 1810.890,686.202 1802.113 C 709.548 1795.327,711.515 1793.494,926.155 1578.631 C 1045.182 1459.479,1147.430 1354.645,1153.372 1345.666 C 1169.488 1321.314,1172.266 1283.445,1159.850 1257.384 C 1146.916 1230.238,722.855 805.677,695.737 792.724 C 671.441 781.118,636.569 781.216,612.331 792.958 M827.018 1137.018 L 996.000 1306.035 826.000 1476.000 L 656.000 1645.965 486.000 1476.000 L 316.000 1306.035 484.982 1137.018 C 577.923 1044.058,654.881 968.000,656.000 968.000 C 657.119 968.000,734.077 1044.058,827.018 1137.018 " fill="#1D1E23" stroke="none" fill-rule="evenodd"/></svg>