<svg viewBox="0 0 2400 2400" fill="none" xmlns="http://www.w3.org/2000/svg"><path d="M356.957 314.073 C 345.155 320.066,329.346 332.771,320.957 343.006 L 306.000 361.254 302.812 615.627 C 298.613 950.634,302.163 1975.566,307.669 2017.925 C 312.704 2056.660,318.450 2065.134,352.277 2083.715 C 372.925 2095.057,382.340 2097.845,400.000 2097.845 C 417.660 2097.845,427.075 2095.057,447.723 2083.715 C 481.631 2065.090,487.323 2056.669,492.197 2017.925 C 497.810 1973.298,501.582 837.444,496.986 575.664 C 492.676 330.162,495.022 343.694,452.784 320.745 C 417.205 301.414,386.144 299.251,356.957 314.073 M1956.957 314.073 C 1945.155 320.066,1929.346 332.771,1920.957 343.006 L 1906.000 361.254 1902.812 615.627 C 1898.613 950.634,1902.163 1975.566,1907.669 2017.925 C 1912.704 2056.660,1918.450 2065.134,1952.277 2083.715 C 1972.925 2095.057,1982.340 2097.845,2000.000 2097.845 C 2017.660 2097.845,2027.075 2095.057,2047.723 2083.715 C 2081.631 2065.090,2087.323 2056.669,2092.197 2017.925 C 2097.810 1973.298,2101.582 837.444,2096.986 575.664 C 2092.676 330.162,2095.022 343.694,2052.784 320.745 C 2017.205 301.414,1986.144 299.251,1956.957 314.073 M712.000 1200.000 L 712.000 1276.000 788.000 1276.000 L 864.000 1276.000 864.000 1200.000 L 864.000 1124.000 788.000 1124.000 L 712.000 1124.000 712.000 1200.000 M1124.000 1200.000 L 1124.000 1276.000 1200.000 1276.000 L 1276.000 1276.000 1276.000 1200.000 L 1276.000 1124.000 1200.000 1124.000 L 1124.000 1124.000 1124.000 1200.000 M1558.000 1127.628 L 1538.000 1130.000 1538.000 1202.000 L 1538.000 1274.000 1613.000 1275.088 L 1688.000 1276.177 1688.000 1200.088 L 1688.000 1124.000 1633.000 1124.628 C 1602.750 1124.974,1569.000 1126.324,1558.000 1127.628 " fill="#1D1E23" stroke="none" fill-rule="evenodd"/></svg>