<svg viewBox="0 0 2400 2400" fill="none" xmlns="http://www.w3.org/2000/svg"><path d="M1274.000 139.662 C 1249.743 151.011,920.000 482.931,920.000 495.999 C 920.000 509.136,1245.460 836.060,1270.774 848.351 C 1302.855 863.927,1338.458 857.531,1361.470 832.060 C 1374.206 817.963,1383.955 795.390,1383.955 780.000 C 1383.955 776.700,1381.996 766.800,1379.602 758.000 C 1376.042 744.916,1359.850 726.510,1290.747 657.000 L 1206.246 572.000 1291.610 572.000 C 1386.817 572.000,1434.867 577.373,1507.271 596.116 C 1746.538 658.052,1961.948 873.462,2023.884 1112.729 C 2041.414 1180.448,2048.000 1234.320,2048.000 1310.000 C 2048.000 1516.335,1978.217 1685.071,1832.245 1831.697 C 1686.456 1978.138,1516.669 2048.538,1308.000 2049.067 C 1231.052 2049.262,1185.405 2044.572,1116.467 2029.388 C 1036.825 2011.847,983.080 1990.685,906.129 1946.566 C 872.905 1927.518,868.329 1926.006,844.129 1926.081 C 822.148 1926.149,815.332 1927.959,801.197 1937.482 C 771.766 1957.310,760.382 1984.247,768.005 2016.022 C 773.432 2038.644,787.707 2053.523,826.717 2077.221 C 1001.492 2183.391,1271.699 2226.356,1485.629 2181.994 C 1736.846 2129.899,1964.851 1959.505,2090.444 1730.000 C 2169.984 1584.650,2204.562 1439.646,2198.707 1276.000 C 2190.287 1040.658,2099.654 840.227,1925.496 671.805 C 1850.688 599.461,1784.087 552.073,1695.697 508.298 C 1569.371 445.734,1446.887 420.000,1275.440 420.000 L 1206.257 420.000 1286.664 339.000 C 1330.887 294.450,1370.318 251.700,1374.288 244.000 C 1393.021 207.662,1377.007 161.191,1339.273 142.387 C 1314.717 130.150,1295.999 129.369,1274.000 139.662 M637.775 783.879 C 628.851 785.228,613.551 791.086,603.775 796.896 C 576.921 812.856,162.935 1229.710,151.808 1251.994 C 140.575 1274.490,139.411 1307.294,148.968 1332.050 C 154.730 1346.975,194.881 1388.931,380.968 1574.477 C 590.320 1783.221,607.331 1799.212,625.104 1803.976 C 650.983 1810.914,684.250 1806.994,705.189 1794.539 C 726.850 1781.655,1148.999 1358.335,1157.923 1340.550 C 1167.375 1321.710,1170.088 1287.901,1163.976 1265.104 C 1159.212 1247.336,1143.301 1230.399,936.427 1022.890 C 785.427 871.426,708.862 797.385,698.000 792.322 C 678.626 783.292,659.447 780.603,637.775 783.879 M827.018 1137.018 L 996.000 1306.035 826.000 1476.000 L 656.000 1645.965 486.000 1476.000 L 316.000 1306.035 484.982 1137.018 C 577.923 1044.058,654.881 968.000,656.000 968.000 C 657.119 968.000,734.077 1044.058,827.018 1137.018 " fill="#1D1E23" stroke="none" fill-rule="evenodd"/></svg>