<svg viewBox="0 0 2400 2400" fill="none" xmlns="http://www.w3.org/2000/svg"><path d="M100.000 1200.000 L 100.000 2300.000 1200.000 2300.000 L 2300.000 2300.000 2300.000 1498.990 L 2300.000 697.980 2000.990 398.990 L 1701.980 100.000 900.990 100.000 L 100.000 100.000 100.000 1200.000 M1600.000 550.000 L 1600.000 800.000 1850.000 800.000 L 2100.000 800.000 2100.000 1450.000 L 2100.000 2100.000 1200.000 2100.000 L 300.000 2100.000 300.000 1200.000 L 300.000 300.000 950.000 300.000 L 1600.000 300.000 1600.000 550.000 M396.000 1551.359 L 396.000 1900.000 472.000 1900.000 L 548.000 1900.000 548.000 1772.555 L 548.000 1645.110 635.000 1642.918 C 734.354 1640.416,749.497 1637.262,788.694 1610.915 C 819.681 1590.087,848.015 1555.437,862.664 1520.456 C 873.074 1495.597,873.829 1489.774,875.163 1424.000 L 876.583 1354.000 859.819 1320.552 C 829.240 1259.539,781.253 1221.197,724.276 1212.250 C 710.127 1210.029,630.477 1206.975,547.276 1205.465 L 396.000 1202.718 396.000 1551.359 M964.000 1552.516 L 964.000 1901.032 1099.000 1898.876 C 1173.250 1897.690,1245.700 1894.720,1260.000 1892.275 C 1324.226 1881.296,1390.669 1829.786,1420.924 1767.519 C 1468.031 1670.570,1478.380 1515.840,1445.505 1400.000 C 1421.511 1315.451,1387.045 1269.829,1318.980 1232.521 L 1279.961 1211.134 1186.980 1207.766 C 1135.841 1205.914,1064.750 1204.308,1029.000 1204.199 L 964.000 1204.000 964.000 1552.516 M1560.000 1552.000 L 1560.000 1900.000 1634.000 1900.000 L 1708.000 1900.000 1708.000 1754.000 L 1708.000 1608.000 1848.000 1608.000 L 1988.000 1608.000 1988.000 1546.000 L 1988.000 1484.000 1848.000 1484.000 L 1708.000 1484.000 1708.000 1460.632 C 1708.000 1447.780,1709.169 1412.880,1710.599 1383.076 L 1713.198 1328.887 1868.599 1325.938 L 2024.000 1322.989 2024.000 1263.494 L 2024.000 1204.000 1792.000 1204.000 L 1560.000 1204.000 1560.000 1552.000 M1230.188 1331.671 C 1262.519 1345.973,1289.138 1378.307,1297.664 1413.636 C 1303.212 1436.629,1306.897 1562.266,1303.766 1621.734 C 1300.323 1687.151,1294.339 1710.650,1273.454 1740.789 C 1254.897 1767.566,1223.171 1778.797,1155.000 1782.722 L 1112.000 1785.198 1112.000 1552.015 L 1112.000 1318.831 1162.984 1321.664 C 1198.142 1323.617,1219.003 1326.723,1230.188 1331.671 M678.050 1332.849 C 688.795 1336.396,697.445 1343.401,705.827 1355.345 C 717.837 1372.457,718.000 1373.367,718.000 1423.345 C 718.000 1469.573,717.156 1475.473,708.345 1490.855 C 693.591 1516.611,681.104 1520.675,609.313 1523.088 L 548.000 1525.149 548.000 1423.952 L 548.000 1322.755 605.223 1325.226 C 636.696 1326.585,669.468 1330.016,678.050 1332.849 " fill="#1D1E23" stroke="none" fill-rule="evenodd"/></svg>