<svg viewBox="0 0 2400 2400" fill="none" xmlns="http://www.w3.org/2000/svg"><path d="M100.000 1200.000 L 100.000 2300.000 1200.000 2300.000 L 2300.000 2300.000 2300.000 1498.990 L 2300.000 697.980 2000.990 398.990 L 1701.980 100.000 900.990 100.000 L 100.000 100.000 100.000 1200.000 M1600.000 550.000 L 1600.000 800.000 1850.000 800.000 L 2100.000 800.000 2100.000 1450.000 L 2100.000 2100.000 1200.000 2100.000 L 300.000 2100.000 300.000 1200.000 L 300.000 300.000 950.000 300.000 L 1600.000 300.000 1600.000 550.000 M396.000 1551.407 L 396.000 1900.000 472.000 1900.000 L 548.000 1900.000 548.000 1772.000 L 548.000 1644.000 605.000 1643.897 C 695.350 1643.733,737.377 1638.428,767.000 1623.447 C 808.590 1602.413,847.779 1558.898,865.229 1514.376 C 871.783 1497.653,873.550 1481.419,875.084 1423.830 L 876.953 1353.660 864.919 1329.820 C 839.397 1279.261,805.880 1244.162,764.976 1225.159 C 737.022 1212.172,701.329 1209.173,533.000 1205.667 L 396.000 1202.814 396.000 1551.407 M964.000 1552.000 L 964.000 1900.000 1049.000 1899.809 C 1185.620 1899.501,1261.602 1894.456,1290.000 1883.807 C 1409.660 1838.933,1469.450 1715.066,1462.710 1526.000 C 1460.203 1455.664,1452.440 1413.341,1432.744 1362.616 C 1409.305 1302.252,1375.802 1264.683,1315.361 1230.983 L 1281.253 1211.966 1177.627 1208.061 C 1120.632 1205.914,1049.250 1204.122,1019.000 1204.078 L 964.000 1204.000 964.000 1552.000 M1560.000 1552.000 L 1560.000 1900.000 1634.000 1900.000 L 1708.000 1900.000 1708.000 1754.000 L 1708.000 1608.000 1848.000 1608.000 L 1988.000 1608.000 1988.000 1546.000 L 1988.000 1484.000 1847.378 1484.000 L 1706.756 1484.000 1709.363 1427.000 C 1710.797 1395.650,1711.977 1360.550,1711.985 1349.000 L 1712.000 1328.000 1769.000 1327.991 C 1800.350 1327.987,1870.550 1326.798,1925.000 1325.351 L 2024.000 1322.719 2024.000 1263.360 L 2024.000 1204.000 1792.000 1204.000 L 1560.000 1204.000 1560.000 1552.000 M1217.827 1328.640 C 1239.338 1334.231,1264.120 1351.971,1277.607 1371.433 C 1298.553 1401.659,1300.714 1414.306,1302.997 1520.045 C 1306.162 1666.670,1298.918 1711.036,1265.836 1747.655 C 1246.643 1768.900,1214.931 1778.951,1155.762 1782.545 L 1112.000 1785.203 1112.000 1552.087 L 1112.000 1318.971 1157.000 1321.749 C 1181.750 1323.276,1209.122 1326.378,1217.827 1328.640 M637.248 1328.024 C 680.271 1332.208,693.645 1337.869,707.183 1357.627 C 715.205 1369.334,716.000 1375.380,716.000 1424.656 C 716.000 1474.246,715.236 1479.964,706.947 1492.408 C 691.463 1515.657,675.288 1520.650,607.717 1523.045 L 548.000 1525.162 548.000 1424.581 L 548.000 1324.000 573.000 1324.103 C 586.750 1324.160,615.662 1325.924,637.248 1328.024 " fill="#1D1E23" stroke="none" fill-rule="evenodd"/></svg>