<svg viewBox="0 0 2400 2400" fill="none" xmlns="http://www.w3.org/2000/svg"><path d="M100.000 1200.000 L 100.000 2300.000 1200.000 2300.000 L 2300.000 2300.000 2300.000 1498.990 L 2300.000 697.980 2000.990 398.990 L 1701.980 100.000 900.990 100.000 L 100.000 100.000 100.000 1200.000 M1600.000 550.000 L 1600.000 800.000 1850.000 800.000 L 2100.000 800.000 2100.000 1450.000 L 2100.000 2100.000 1200.000 2100.000 L 300.000 2100.000 300.000 1200.000 L 300.000 300.000 950.000 300.000 L 1600.000 300.000 1600.000 550.000 M1710.353 1200.203 C 1688.303 1205.756,1649.659 1225.945,1625.275 1244.650 C 1575.559 1282.788,1538.483 1356.111,1523.460 1446.000 C 1516.534 1487.445,1516.637 1630.868,1523.624 1674.000 C 1539.606 1772.657,1585.834 1855.216,1644.099 1889.160 C 1670.602 1904.600,1708.614 1913.345,1734.933 1910.057 C 1788.335 1903.384,1824.463 1882.099,1860.000 1836.372 C 1872.100 1820.802,1883.114 1808.049,1884.477 1808.032 C 1888.501 1807.980,1891.909 1835.757,1891.956 1869.000 L 1892.000 1900.000 1958.000 1900.000 L 2024.000 1900.000 2024.000 1714.000 L 2024.000 1528.000 1898.000 1528.000 L 1772.000 1528.000 1772.000 1580.000 L 1772.000 1632.000 1832.000 1632.000 C 1901.327 1632.000,1894.711 1625.888,1888.055 1683.784 C 1881.072 1744.531,1855.624 1778.529,1810.057 1787.988 C 1772.675 1795.749,1733.405 1781.040,1710.168 1750.576 C 1692.022 1726.785,1683.849 1695.597,1679.085 1631.961 C 1673.696 1559.974,1679.800 1417.530,1689.640 1385.655 C 1707.073 1329.186,1748.770 1306.006,1806.685 1320.590 C 1829.844 1326.421,1846.044 1342.552,1865.034 1378.689 C 1873.189 1394.208,1882.756 1409.308,1886.296 1412.245 C 1894.768 1419.277,1913.795 1417.726,1960.000 1406.239 C 2008.542 1394.171,2020.000 1389.596,2020.000 1382.281 C 2020.000 1372.554,2002.120 1326.318,1991.089 1307.522 C 1965.932 1264.653,1910.142 1218.885,1867.668 1206.272 C 1843.503 1199.096,1731.855 1194.789,1710.353 1200.203 M396.000 1551.407 L 396.000 1900.000 472.000 1900.000 L 548.000 1900.000 548.000 1772.000 L 548.000 1644.000 605.000 1643.897 C 695.350 1643.733,737.377 1638.428,767.000 1623.447 C 808.590 1602.413,847.779 1558.898,865.229 1514.376 C 871.783 1497.653,873.550 1481.419,875.084 1423.830 L 876.953 1353.660 864.919 1329.820 C 839.397 1279.261,805.880 1244.162,764.976 1225.159 C 737.022 1212.172,701.329 1209.173,533.000 1205.667 L 396.000 1202.814 396.000 1551.407 M960.000 1552.000 L 960.000 1900.000 1023.346 1900.000 L 1086.692 1900.000 1089.366 1681.608 C 1090.842 1561.126,1093.698 1460.256,1095.736 1456.613 C 1098.749 1451.230,1100.851 1453.333,1107.117 1468.005 C 1116.798 1490.674,1163.716 1622.375,1217.552 1778.000 L 1259.064 1898.000 1349.532 1899.075 L 1440.000 1900.150 1440.000 1552.075 L 1440.000 1204.000 1376.653 1204.000 L 1313.306 1204.000 1310.554 1419.000 C 1309.041 1537.250,1306.409 1640.300,1304.706 1648.000 C 1301.728 1661.463,1300.903 1660.083,1283.193 1612.000 C 1266.724 1567.287,1203.480 1384.998,1158.643 1253.006 L 1142.000 1204.013 1051.000 1204.006 L 960.000 1204.000 960.000 1552.000 M637.248 1328.024 C 680.271 1332.208,693.645 1337.869,707.183 1357.627 C 715.205 1369.334,716.000 1375.380,716.000 1424.656 C 716.000 1474.246,715.236 1479.964,706.947 1492.408 C 691.463 1515.657,675.288 1520.650,607.717 1523.045 L 548.000 1525.162 548.000 1424.581 L 548.000 1324.000 573.000 1324.103 C 586.750 1324.160,615.662 1325.924,637.248 1328.024 " fill="#1D1E23" stroke="none" fill-rule="evenodd"/></svg>