<svg viewBox="0 0 2400 2400" fill="none" xmlns="http://www.w3.org/2000/svg"><path d="M650.000 104.157 C 449.800 105.658,275.338 108.283,262.306 109.991 C 242.522 112.583,232.644 117.136,202.446 137.585 C 161.591 165.249,144.729 185.018,117.961 236.635 L 100.000 271.271 100.000 1199.724 L 100.000 2128.178 115.544 2159.089 C 147.157 2221.956,182.960 2258.680,238.090 2284.784 L 266.000 2298.000 1198.479 2299.332 L 2130.957 2300.663 2152.479 2289.785 C 2224.115 2253.574,2268.544 2206.113,2288.680 2144.289 L 2297.243 2118.000 2298.868 1438.000 L 2300.494 758.000 1979.460 429.000 L 1658.426 100.000 1336.213 100.714 C 1158.996 101.106,850.200 102.656,650.000 104.157 M1548.972 595.000 L 1550.000 870.000 1817.000 871.028 L 2084.000 872.057 2084.000 1476.028 L 2084.000 2080.000 1200.000 2080.000 L 316.000 2080.000 316.000 1200.000 L 316.000 320.000 931.972 320.000 L 1547.945 320.000 1548.972 595.000 M1695.769 1204.915 C 1568.922 1249.293,1508.821 1378.898,1517.459 1589.432 C 1520.643 1667.026,1525.433 1699.356,1540.655 1745.974 C 1578.149 1860.807,1659.031 1924.588,1746.721 1908.472 C 1799.564 1898.761,1827.931 1880.243,1863.369 1832.323 C 1884.264 1804.068,1885.852 1802.787,1888.440 1812.079 C 1889.959 1817.536,1891.382 1839.550,1891.601 1861.000 L 1892.000 1900.000 1958.000 1900.000 L 2024.000 1900.000 2024.000 1714.000 L 2024.000 1528.000 1898.000 1528.000 L 1772.000 1528.000 1772.000 1580.000 L 1772.000 1632.000 1832.516 1632.000 L 1893.032 1632.000 1890.185 1668.387 C 1886.215 1719.146,1878.935 1740.806,1858.806 1761.756 C 1820.406 1801.720,1753.689 1799.583,1715.483 1757.164 C 1682.875 1720.960,1673.864 1664.678,1677.195 1518.000 C 1679.578 1413.074,1683.101 1390.593,1702.673 1355.418 C 1717.759 1328.305,1739.383 1315.990,1771.848 1316.022 C 1821.433 1316.072,1840.992 1329.627,1868.000 1382.657 C 1885.590 1417.195,1886.319 1417.992,1900.000 1417.628 C 1920.133 1417.093,2005.635 1396.611,2014.356 1390.234 C 2021.504 1385.008,2021.506 1384.134,2014.442 1361.422 C 1996.828 1304.791,1965.203 1261.939,1918.583 1231.535 C 1875.581 1203.490,1857.954 1198.930,1786.000 1197.240 C 1727.326 1195.862,1719.817 1196.501,1695.769 1204.915 M396.000 1551.359 L 396.000 1900.000 472.000 1900.000 L 548.000 1900.000 548.000 1772.555 L 548.000 1645.110 635.000 1642.918 C 734.354 1640.416,749.497 1637.262,788.694 1610.915 C 819.681 1590.087,848.015 1555.437,862.664 1520.456 C 873.074 1495.597,873.829 1489.774,875.163 1424.000 L 876.583 1354.000 859.819 1320.552 C 829.240 1259.539,781.253 1221.197,724.276 1212.250 C 710.127 1210.029,630.477 1206.975,547.276 1205.465 L 396.000 1202.718 396.000 1551.359 M960.000 1552.000 L 960.000 1900.000 1023.434 1900.000 L 1086.867 1900.000 1088.833 1678.718 C 1090.045 1542.311,1092.334 1454.692,1094.802 1450.282 C 1099.683 1441.561,1114.070 1479.465,1199.816 1726.951 L 1259.079 1898.000 1349.540 1899.075 L 1440.000 1900.150 1440.000 1552.075 L 1440.000 1204.000 1376.000 1204.000 L 1312.000 1204.000 1312.000 1331.351 C 1312.000 1484.329,1307.730 1664.000,1304.094 1664.000 C 1300.223 1664.000,1263.555 1560.424,1161.433 1261.026 L 1142.000 1204.052 1051.000 1204.026 L 960.000 1204.000 960.000 1552.000 M678.050 1332.849 C 688.795 1336.396,697.445 1343.401,705.827 1355.345 C 717.837 1372.457,718.000 1373.367,718.000 1423.345 C 718.000 1469.573,717.156 1475.473,708.345 1490.855 C 693.591 1516.611,681.104 1520.675,609.313 1523.088 L 548.000 1525.149 548.000 1423.952 L 548.000 1322.755 605.223 1325.226 C 636.696 1326.585,669.468 1330.016,678.050 1332.849 " fill="#1D1E23" stroke="none" fill-rule="evenodd"/></svg>