<svg viewBox="0 0 2400 2400" fill="none" xmlns="http://www.w3.org/2000/svg"><path d="M100.000 1200.000 L 100.000 2300.000 1200.000 2300.000 L 2300.000 2300.000 2300.000 1498.990 L 2300.000 697.980 2000.990 398.990 L 1701.980 100.000 900.990 100.000 L 100.000 100.000 100.000 1200.000 M1600.000 550.000 L 1600.000 800.000 1850.000 800.000 L 2100.000 800.000 2100.000 1450.000 L 2100.000 2100.000 1200.000 2100.000 L 300.000 2100.000 300.000 1200.000 L 300.000 300.000 950.000 300.000 L 1600.000 300.000 1600.000 550.000 M1704.807 1199.845 C 1596.779 1229.049,1537.461 1316.267,1519.709 1472.000 C 1513.745 1524.325,1517.023 1644.921,1525.687 1691.887 C 1548.411 1815.073,1607.129 1891.815,1691.200 1908.206 C 1765.551 1922.702,1835.276 1890.390,1868.566 1826.010 C 1888.544 1787.374,1892.000 1790.913,1892.000 1850.000 L 1892.000 1900.000 1958.000 1900.000 L 2024.000 1900.000 2024.000 1714.000 L 2024.000 1528.000 1898.000 1528.000 L 1772.000 1528.000 1772.000 1580.000 L 1772.000 1632.000 1832.000 1632.000 L 1892.000 1632.000 1892.000 1664.738 C 1892.000 1712.238,1882.778 1741.178,1860.251 1764.371 C 1844.865 1780.212,1838.282 1783.923,1818.319 1788.006 C 1762.497 1799.424,1717.744 1779.364,1696.042 1733.196 C 1680.526 1700.187,1675.617 1666.335,1673.246 1576.000 C 1668.082 1379.212,1694.699 1312.176,1778.000 1312.176 C 1825.393 1312.176,1854.394 1336.384,1873.806 1392.146 C 1883.804 1420.868,1886.070 1424.349,1893.550 1422.479 C 1898.198 1421.317,1929.450 1413.829,1963.000 1405.839 C 1996.550 1397.849,2024.000 1389.982,2024.000 1388.357 C 2024.000 1386.731,2019.533 1372.268,2014.074 1356.217 C 1987.307 1277.518,1944.328 1231.545,1872.478 1204.756 C 1834.806 1190.710,1748.000 1188.168,1704.807 1199.845 M396.000 1552.000 L 396.000 1900.000 472.000 1900.000 L 548.000 1900.000 548.000 1772.000 L 548.000 1644.000 628.423 1644.000 C 688.625 1644.000,714.953 1642.417,733.137 1637.705 C 801.935 1619.878,848.908 1573.492,870.559 1502.000 C 880.805 1468.164,880.805 1379.836,870.559 1346.000 C 848.651 1273.662,802.080 1228.590,730.160 1210.122 C 710.763 1205.141,677.400 1204.000,551.160 1204.000 L 396.000 1204.000 396.000 1552.000 M960.000 1552.000 L 960.000 1900.000 1024.000 1900.000 L 1088.000 1900.000 1088.000 1667.707 C 1088.000 1455.854,1088.569 1435.527,1094.470 1436.707 C 1099.157 1437.644,1122.655 1501.388,1179.730 1668.000 L 1258.520 1898.000 1349.260 1899.075 L 1440.000 1900.150 1440.000 1552.075 L 1440.000 1204.000 1376.000 1204.000 L 1312.000 1204.000 1312.000 1433.764 C 1312.000 1598.029,1310.732 1664.311,1307.553 1666.276 C 1305.107 1667.788,1301.957 1667.088,1300.553 1664.722 C 1299.149 1662.355,1262.900 1557.735,1220.000 1432.232 L 1142.000 1204.047 1051.000 1204.023 L 960.000 1204.000 960.000 1552.000 M673.812 1328.435 C 696.977 1334.866,714.015 1353.835,719.469 1379.266 C 728.729 1422.445,722.905 1478.143,707.018 1498.340 C 690.717 1519.064,672.133 1523.815,607.000 1523.912 L 548.000 1524.000 548.000 1424.000 L 548.000 1324.000 603.000 1324.022 C 633.250 1324.035,665.116 1326.020,673.812 1328.435 " fill="#1D1E23" stroke="none" fill-rule="evenodd"/></svg>