<svg viewBox="0 0 2400 2400" fill="none" xmlns="http://www.w3.org/2000/svg"><path d="M100.000 1200.000 L 100.000 2300.000 1200.000 2300.000 L 2300.000 2300.000 2300.000 1498.990 L 2300.000 697.980 2000.990 398.990 L 1701.980 100.000 900.990 100.000 L 100.000 100.000 100.000 1200.000 M1600.000 550.000 L 1600.000 800.000 1850.000 800.000 L 2100.000 800.000 2100.000 1450.000 L 2100.000 2100.000 1200.000 2100.000 L 300.000 2100.000 300.000 1200.000 L 300.000 300.000 950.000 300.000 L 1600.000 300.000 1600.000 550.000 M1731.911 1195.632 C 1660.374 1205.736,1598.438 1250.074,1564.674 1315.349 C 1527.795 1386.647,1513.850 1464.486,1517.260 1580.000 C 1518.462 1620.700,1522.212 1669.300,1525.593 1688.000 C 1553.007 1839.586,1641.548 1927.081,1748.900 1908.673 C 1800.093 1899.894,1836.344 1874.876,1867.192 1827.035 C 1875.336 1814.404,1883.140 1804.054,1884.533 1804.035 C 1889.479 1803.967,1891.891 1822.509,1891.945 1861.000 L 1892.000 1900.000 1958.000 1900.000 L 2024.000 1900.000 2024.000 1714.000 L 2024.000 1528.000 1898.000 1528.000 L 1772.000 1528.000 1772.000 1580.000 L 1772.000 1632.000 1832.590 1632.000 L 1893.181 1632.000 1890.563 1669.000 C 1887.364 1714.204,1883.467 1728.967,1868.504 1752.562 C 1835.844 1804.061,1743.816 1802.677,1708.293 1750.151 C 1682.060 1711.361,1675.289 1669.887,1675.289 1548.000 C 1675.289 1428.196,1682.519 1381.955,1706.720 1346.983 C 1723.472 1322.775,1738.097 1316.000,1773.601 1316.000 C 1826.137 1316.000,1845.086 1329.827,1870.399 1386.635 C 1881.298 1411.097,1887.243 1420.000,1892.675 1420.000 C 1901.534 1420.000,1964.731 1406.260,1997.000 1397.319 C 2016.639 1391.877,2020.000 1389.577,2020.000 1381.577 C 2020.000 1366.898,1996.851 1312.262,1980.352 1288.000 C 1953.052 1247.855,1896.448 1210.319,1848.000 1200.234 C 1818.643 1194.124,1759.258 1191.769,1731.911 1195.632 M396.000 1551.465 L 396.000 1900.000 472.000 1900.000 L 548.000 1900.000 548.000 1772.549 L 548.000 1645.098 637.000 1643.042 C 716.845 1641.197,728.469 1640.051,750.000 1631.903 C 808.215 1609.874,848.570 1565.753,869.790 1500.935 C 875.459 1483.617,876.437 1468.319,875.287 1414.935 L 873.888 1350.000 859.183 1318.953 C 842.117 1282.924,809.788 1246.599,780.695 1230.765 C 740.617 1208.951,727.007 1207.402,555.000 1205.078 L 396.000 1202.930 396.000 1551.465 M960.000 1552.000 L 960.000 1900.000 1024.000 1900.000 L 1088.000 1900.000 1088.000 1730.636 C 1088.000 1554.256,1091.220 1439.046,1096.065 1442.040 C 1100.911 1445.035,1133.800 1535.128,1197.536 1720.000 L 1258.903 1898.000 1349.452 1899.075 L 1440.000 1900.150 1440.000 1552.075 L 1440.000 1204.000 1376.406 1204.000 L 1312.812 1204.000 1311.406 1431.668 C 1310.633 1556.885,1308.650 1660.685,1307.000 1662.334 C 1305.350 1663.984,1303.091 1664.424,1301.980 1663.313 C 1299.065 1660.399,1257.232 1541.517,1195.601 1361.008 L 1142.000 1204.015 1051.000 1204.008 L 960.000 1204.000 960.000 1552.000 M655.282 1327.743 C 687.849 1331.516,699.021 1338.774,712.389 1364.841 C 718.519 1376.792,720.000 1388.303,720.000 1423.974 C 720.000 1463.540,718.910 1470.417,709.783 1488.428 C 695.201 1517.204,684.416 1520.921,609.000 1523.161 L 548.000 1524.973 548.000 1424.486 L 548.000 1324.000 587.000 1324.176 C 608.450 1324.272,639.177 1325.878,655.282 1327.743 " fill="#1D1E23" stroke="none" fill-rule="evenodd"/></svg>