<svg viewBox="0 0 2400 2400" fill="none" xmlns="http://www.w3.org/2000/svg"><path d="M650.000 104.157 C 449.800 105.658,275.338 108.283,262.306 109.991 C 242.522 112.583,232.644 117.136,202.446 137.585 C 161.591 165.249,144.729 185.018,117.961 236.635 L 100.000 271.271 100.000 1199.724 L 100.000 2128.178 115.544 2159.089 C 147.157 2221.956,182.960 2258.680,238.090 2284.784 L 266.000 2298.000 1198.479 2299.332 L 2130.957 2300.663 2152.479 2289.785 C 2224.115 2253.574,2268.544 2206.113,2288.680 2144.289 L 2297.243 2118.000 2298.868 1438.000 L 2300.494 758.000 1979.460 429.000 L 1658.426 100.000 1336.213 100.714 C 1158.996 101.106,850.200 102.656,650.000 104.157 M1548.972 595.000 L 1550.000 870.000 1817.000 871.028 L 2084.000 872.057 2084.000 1476.028 L 2084.000 2080.000 1200.000 2080.000 L 316.000 2080.000 316.000 1200.000 L 316.000 320.000 931.972 320.000 L 1547.945 320.000 1548.972 595.000 M396.000 1551.359 L 396.000 1900.000 472.000 1900.000 L 548.000 1900.000 548.000 1772.555 L 548.000 1645.110 635.000 1642.918 C 734.354 1640.416,749.497 1637.262,788.694 1610.915 C 819.681 1590.087,848.015 1555.437,862.664 1520.456 C 873.074 1495.597,873.829 1489.774,875.163 1424.000 L 876.583 1354.000 859.819 1320.552 C 829.240 1259.539,781.253 1221.197,724.276 1212.250 C 710.127 1210.029,630.477 1206.975,547.276 1205.465 L 396.000 1202.718 396.000 1551.359 M976.000 1551.391 L 976.000 1900.000 1052.000 1900.000 L 1128.000 1900.000 1128.000 1772.490 L 1128.000 1644.981 1213.000 1643.027 C 1307.005 1640.866,1330.127 1636.304,1366.993 1612.645 C 1403.798 1589.025,1433.483 1548.033,1448.145 1500.579 C 1457.928 1468.916,1459.074 1385.907,1450.189 1352.524 C 1430.644 1279.089,1369.583 1221.835,1300.378 1212.053 C 1286.617 1210.108,1208.002 1207.227,1125.679 1205.650 L 976.000 1202.783 976.000 1551.391 M1504.000 1264.000 L 1504.000 1324.000 1604.000 1324.000 L 1704.000 1324.000 1704.000 1612.000 L 1704.000 1900.000 1780.000 1900.000 L 1856.000 1900.000 1856.000 1612.000 L 1856.000 1324.000 1956.000 1324.000 L 2056.000 1324.000 2056.000 1264.000 L 2056.000 1204.000 1780.000 1204.000 L 1504.000 1204.000 1504.000 1264.000 M678.050 1332.849 C 688.795 1336.396,697.445 1343.401,705.827 1355.345 C 717.837 1372.457,718.000 1373.367,718.000 1423.345 C 718.000 1469.573,717.156 1475.473,708.345 1490.855 C 693.591 1516.611,681.104 1520.675,609.313 1523.088 L 548.000 1525.149 548.000 1423.952 L 548.000 1322.755 605.223 1325.226 C 636.696 1326.585,669.468 1330.016,678.050 1332.849 M1218.257 1327.688 C 1288.262 1333.494,1297.085 1344.219,1297.647 1424.196 C 1297.989 1472.881,1297.647 1474.993,1286.735 1491.544 C 1270.289 1516.487,1256.739 1520.776,1187.000 1523.111 L 1128.000 1525.087 1128.000 1424.544 L 1128.000 1324.000 1153.000 1324.174 C 1166.750 1324.270,1196.116 1325.851,1218.257 1327.688 " fill="#1D1E23" stroke="none" fill-rule="evenodd"/></svg>