<svg viewBox="0 0 2400 2400" fill="none" xmlns="http://www.w3.org/2000/svg"><path d="M548.000 104.174 C 342.663 106.001,257.795 108.073,247.092 111.522 C 225.011 118.636,174.765 153.631,155.965 174.989 C 146.918 185.267,131.075 210.680,120.758 231.462 L 102.000 269.249 102.000 1200.000 L 102.000 2130.751 121.378 2169.787 C 146.926 2221.251,180.396 2256.058,225.791 2278.373 L 257.583 2294.000 403.791 2297.011 C 484.206 2298.667,906.536 2299.567,1342.302 2299.011 L 2134.604 2298.000 2169.960 2280.480 C 2228.329 2251.557,2269.617 2203.427,2290.470 2140.000 C 2297.313 2119.184,2297.765 2081.393,2298.859 1438.000 L 2300.015 758.000 1979.108 429.000 L 1658.201 100.000 1246.100 100.814 C 1019.445 101.262,705.300 102.774,548.000 104.174 M1548.972 595.000 L 1550.000 870.000 1817.000 871.028 L 2084.000 872.057 2084.000 1476.028 L 2084.000 2080.000 1200.000 2080.000 L 316.000 2080.000 316.000 1200.000 L 316.000 320.000 931.972 320.000 L 1547.945 320.000 1548.972 595.000 M396.000 1551.465 L 396.000 1900.000 472.000 1900.000 L 548.000 1900.000 548.000 1772.549 L 548.000 1645.098 637.000 1643.042 C 716.845 1641.197,728.469 1640.051,750.000 1631.903 C 808.215 1609.874,848.570 1565.753,869.790 1500.935 C 875.459 1483.617,876.437 1468.319,875.287 1414.935 L 873.888 1350.000 859.183 1318.953 C 842.117 1282.924,809.788 1246.599,780.695 1230.765 C 740.617 1208.951,727.007 1207.402,555.000 1205.078 L 396.000 1202.930 396.000 1551.465 M976.000 1551.530 L 976.000 1900.000 1052.000 1900.000 L 1128.000 1900.000 1128.000 1772.000 L 1128.000 1644.000 1197.000 1643.921 C 1234.950 1643.877,1278.600 1642.028,1294.000 1639.811 C 1366.690 1629.348,1422.012 1580.645,1447.160 1504.976 C 1455.911 1478.643,1457.460 1466.805,1457.495 1426.000 C 1457.542 1371.486,1450.779 1340.026,1431.016 1302.832 C 1408.673 1260.780,1357.009 1222.140,1309.008 1211.579 C 1298.554 1209.279,1219.350 1206.421,1133.000 1205.228 L 976.000 1203.059 976.000 1551.530 M1504.000 1264.000 L 1504.000 1324.000 1604.000 1324.000 L 1704.000 1324.000 1704.000 1612.000 L 1704.000 1900.000 1780.000 1900.000 L 1856.000 1900.000 1856.000 1612.000 L 1856.000 1324.000 1956.000 1324.000 L 2056.000 1324.000 2056.000 1264.000 L 2056.000 1204.000 1780.000 1204.000 L 1504.000 1204.000 1504.000 1264.000 M655.282 1327.743 C 687.849 1331.516,699.021 1338.774,712.389 1364.841 C 718.519 1376.792,720.000 1388.303,720.000 1423.974 C 720.000 1463.540,718.910 1470.417,709.783 1488.428 C 695.201 1517.204,684.416 1520.921,609.000 1523.161 L 548.000 1524.973 548.000 1424.486 L 548.000 1324.000 587.000 1324.176 C 608.450 1324.272,639.177 1325.878,655.282 1327.743 M1266.493 1334.502 C 1291.105 1346.181,1297.808 1363.333,1299.404 1418.717 C 1300.752 1465.521,1300.378 1468.223,1289.881 1487.510 C 1273.749 1517.149,1263.012 1520.948,1189.000 1523.208 L 1128.000 1525.071 1128.000 1423.914 L 1128.000 1322.758 1190.556 1325.455 C 1234.706 1327.359,1257.049 1330.021,1266.493 1334.502 " fill="#1D1E23" stroke="none" fill-rule="evenodd"/></svg>