<svg viewBox="0 0 2400 2400" fill="none" xmlns="http://www.w3.org/2000/svg"><path d="M100.000 1200.000 L 100.000 2300.000 1200.000 2300.000 L 2300.000 2300.000 2300.000 1498.990 L 2300.000 697.980 2000.990 398.990 L 1701.980 100.000 900.990 100.000 L 100.000 100.000 100.000 1200.000 M1600.000 550.000 L 1600.000 800.000 1850.000 800.000 L 2100.000 800.000 2100.000 1450.000 L 2100.000 2100.000 1200.000 2100.000 L 300.000 2100.000 300.000 1200.000 L 300.000 300.000 950.000 300.000 L 1600.000 300.000 1600.000 550.000 M396.000 1552.000 L 396.000 1900.000 472.000 1900.000 L 548.000 1900.000 548.000 1772.000 L 548.000 1644.000 628.423 1644.000 C 688.625 1644.000,714.953 1642.417,733.137 1637.705 C 801.935 1619.878,848.908 1573.492,870.559 1502.000 C 880.805 1468.164,880.805 1379.836,870.559 1346.000 C 848.651 1273.662,802.080 1228.590,730.160 1210.122 C 710.763 1205.141,677.400 1204.000,551.160 1204.000 L 396.000 1204.000 396.000 1552.000 M976.000 1552.000 L 976.000 1900.000 1052.000 1900.000 L 1128.000 1900.000 1128.000 1772.000 L 1128.000 1644.000 1209.000 1643.769 C 1301.531 1643.506,1327.535 1638.883,1365.764 1615.897 C 1439.918 1571.312,1473.628 1476.047,1454.076 1366.323 C 1439.743 1285.883,1388.641 1230.651,1309.472 1210.030 C 1290.765 1205.158,1256.523 1204.000,1131.160 1204.000 L 976.000 1204.000 976.000 1552.000 M1504.000 1264.000 L 1504.000 1324.000 1604.000 1324.000 L 1704.000 1324.000 1704.000 1612.000 L 1704.000 1900.000 1780.000 1900.000 L 1856.000 1900.000 1856.000 1612.000 L 1856.000 1324.000 1956.000 1324.000 L 2056.000 1324.000 2056.000 1264.000 L 2056.000 1204.000 1780.000 1204.000 L 1504.000 1204.000 1504.000 1264.000 M673.812 1328.435 C 696.977 1334.866,714.015 1353.835,719.469 1379.266 C 728.729 1422.445,722.905 1478.143,707.018 1498.340 C 690.717 1519.064,672.133 1523.815,607.000 1523.912 L 548.000 1524.000 548.000 1424.000 L 548.000 1324.000 603.000 1324.022 C 633.250 1324.035,665.116 1326.020,673.812 1328.435 M1267.582 1334.000 C 1288.783 1346.488,1296.358 1359.893,1301.198 1393.492 C 1306.606 1431.032,1300.782 1479.678,1288.983 1495.508 C 1271.950 1518.362,1259.567 1521.881,1191.000 1523.351 L 1128.000 1524.703 1128.000 1424.000 L 1128.000 1323.297 1191.000 1324.649 C 1245.273 1325.813,1255.881 1327.108,1267.582 1334.000 " fill="#1D1E23" stroke="none" fill-rule="evenodd"/></svg>