<svg viewBox="0 0 2400 2400" fill="none" xmlns="http://www.w3.org/2000/svg"><path d="M400.000 103.878 C 240.710 106.258,247.415 105.085,196.828 139.437 C 157.782 165.953,132.154 198.847,112.630 247.506 L 102.000 274.000 102.000 1200.000 L 102.000 2126.000 112.630 2152.494 C 139.893 2220.440,189.587 2269.678,252.000 2290.584 C 273.078 2297.644,312.716 2298.001,1198.000 2299.109 L 2122.000 2300.266 2146.000 2291.672 C 2229.352 2261.825,2289.130 2187.478,2296.395 2104.623 C 2298.065 2085.580,2299.440 1774.800,2299.450 1414.000 L 2299.468 758.000 1978.734 429.020 L 1658.000 100.040 1100.000 100.898 C 793.100 101.369,478.100 102.710,400.000 103.878 M1548.972 595.000 L 1550.000 870.000 1817.000 871.028 L 2084.000 872.057 2084.000 1476.028 L 2084.000 2080.000 1200.000 2080.000 L 316.000 2080.000 316.000 1200.000 L 316.000 320.000 931.972 320.000 L 1547.945 320.000 1548.972 595.000 M396.000 1552.000 L 396.000 1900.000 472.000 1900.000 L 548.000 1900.000 548.000 1772.386 L 548.000 1644.771 637.000 1643.021 C 717.053 1641.447,728.560 1640.350,751.462 1632.112 C 805.491 1612.678,849.325 1565.984,868.066 1507.899 C 876.448 1481.918,877.681 1470.661,877.476 1422.000 C 877.265 1372.167,876.084 1362.721,866.751 1336.226 C 841.354 1264.126,785.031 1217.621,711.552 1208.083 C 695.299 1205.973,617.650 1204.191,539.000 1204.124 L 396.000 1204.000 396.000 1552.000 M976.000 1552.000 L 976.000 1900.000 1052.000 1900.000 L 1128.000 1900.000 1128.000 1772.000 L 1128.000 1644.000 1199.000 1643.921 C 1238.050 1643.877,1282.402 1642.049,1297.560 1639.858 C 1399.261 1625.157,1465.219 1531.035,1458.639 1410.000 C 1453.723 1319.589,1418.291 1259.321,1350.355 1225.815 C 1311.613 1206.707,1283.089 1204.067,1115.000 1204.030 L 976.000 1204.000 976.000 1552.000 M1504.000 1264.000 L 1504.000 1324.000 1604.000 1324.000 L 1704.000 1324.000 1704.000 1612.000 L 1704.000 1900.000 1780.000 1900.000 L 1856.000 1900.000 1856.000 1612.000 L 1856.000 1324.000 1956.000 1324.000 L 2056.000 1324.000 2056.000 1264.000 L 2056.000 1204.000 1780.000 1204.000 L 1504.000 1204.000 1504.000 1264.000 M689.111 1335.450 C 697.771 1340.803,707.102 1351.752,712.716 1363.151 C 720.654 1379.267,721.994 1388.089,721.956 1424.000 C 721.917 1460.691,720.653 1468.519,711.956 1485.933 C 695.937 1518.006,685.901 1521.732,611.000 1523.419 L 548.000 1524.838 548.000 1423.892 L 548.000 1322.945 611.395 1324.772 C 667.987 1326.403,676.326 1327.549,689.111 1335.450 M1270.422 1336.261 C 1293.454 1350.495,1301.508 1373.141,1301.646 1424.055 C 1301.746 1460.863,1300.527 1468.597,1291.880 1486.055 C 1276.716 1516.667,1263.983 1521.279,1189.000 1523.316 L 1128.000 1524.973 1128.000 1423.889 L 1128.000 1322.805 1191.914 1325.023 C 1249.021 1327.005,1257.382 1328.202,1270.422 1336.261 " fill="#1D1E23" stroke="none" fill-rule="evenodd"/></svg>