<svg viewBox="0 0 2400 2400" fill="none" xmlns="http://www.w3.org/2000/svg"><path d="M729.817 403.819 C 578.181 405.833,564.730 406.575,553.817 413.518 C 523.234 432.975,505.733 458.241,501.513 489.029 C 498.553 510.627,504.544 532.984,519.695 556.875 C 537.577 585.072,554.658 592.084,615.634 596.256 C 679.465 600.624,1702.805 600.673,1778.279 596.312 C 1817.546 594.043,1838.930 590.985,1849.022 586.196 C 1866.837 577.742,1889.903 544.996,1896.246 519.154 C 1905.685 480.700,1882.435 430.075,1848.256 414.657 C 1831.148 406.940,1819.563 406.243,1664.000 403.564 C 1478.047 400.361,979.804 400.497,729.817 403.819 M1175.359 728.717 C 1147.466 750.548,583.382 1314.365,556.575 1347.208 C 545.259 1361.072,536.000 1375.859,536.000 1380.067 C 536.000 1396.546,546.066 1397.558,727.000 1399.282 L 900.000 1400.931 900.124 1599.465 C 900.191 1708.659,901.957 1811.171,904.048 1827.269 C 914.637 1908.822,986.351 1982.474,1068.078 1995.734 C 1101.703 2001.189,1298.297 2001.189,1331.922 1995.734 C 1400.326 1984.636,1462.983 1931.079,1488.758 1861.677 C 1497.342 1838.563,1497.588 1832.801,1499.074 1619.417 L 1500.596 1400.833 1671.298 1399.111 C 1849.675 1397.311,1864.000 1395.905,1864.000 1380.202 C 1864.000 1365.558,1816.900 1316.078,1530.410 1029.762 C 1273.204 772.711,1210.076 712.000,1200.000 712.000 C 1198.195 712.000,1187.107 719.523,1175.359 728.717 " fill="#1D1E23" stroke="none" fill-rule="evenodd"/></svg>