<svg viewBox="0 0 2400 2400" fill="none" xmlns="http://www.w3.org/2000/svg"><path d="M814.000 403.866 C 587.032 406.012,568.944 406.691,554.868 413.605 C 534.025 423.842,513.217 449.436,505.289 474.587 C 499.641 492.506,499.373 498.886,503.497 517.315 C 506.163 529.229,513.701 547.424,520.248 557.747 C 538.122 585.931,554.993 591.879,629.340 596.207 C 706.783 600.715,1680.937 600.769,1766.071 596.269 C 1837.049 592.518,1852.256 588.359,1869.378 568.010 C 1897.330 534.790,1904.698 496.660,1890.068 460.935 C 1882.153 441.609,1853.387 414.204,1836.957 410.338 C 1822.368 406.905,1370.022 400.324,1196.000 401.012 C 1120.100 401.313,948.200 402.597,814.000 403.866 M1178.880 726.225 C 1152.947 745.250,574.062 1324.246,552.862 1352.363 C 543.588 1364.663,536.000 1377.758,536.000 1381.462 C 536.000 1395.542,554.131 1397.198,729.000 1399.089 L 900.000 1400.938 900.071 1591.469 C 900.155 1817.755,902.027 1842.376,922.256 1883.307 C 951.065 1941.598,1010.523 1986.299,1072.000 1995.885 C 1105.929 2001.176,1294.496 2001.128,1328.000 1995.821 C 1381.018 1987.421,1433.409 1953.601,1463.300 1908.481 C 1498.320 1855.617,1499.368 1846.216,1499.744 1581.516 L 1500.000 1401.033 1669.000 1398.878 C 1761.950 1397.692,1843.400 1395.088,1850.000 1393.092 C 1870.358 1386.933,1867.304 1376.765,1833.361 1337.696 C 1816.304 1318.063,1682.570 1182.288,1536.174 1035.974 C 1292.817 792.752,1209.065 711.829,1200.975 712.099 C 1199.339 712.154,1189.396 718.510,1178.880 726.225 " fill="#1D1E23" stroke="none" fill-rule="evenodd"/></svg>