<svg viewBox="0 0 2400 2400" fill="none" xmlns="http://www.w3.org/2000/svg"><path d="M458.041 304.701 C 385.928 318.453,319.929 384.827,304.420 459.197 C 298.170 489.170,298.170 1910.830,304.420 1940.803 C 320.053 2015.765,384.235 2079.947,459.197 2095.580 C 489.170 2101.830,1910.830 2101.830,1940.803 2095.580 C 2015.765 2079.947,2079.947 2015.765,2095.580 1940.803 C 2098.695 1925.864,2100.000 1739.268,2100.000 1308.788 L 2100.000 697.970 1900.985 498.985 L 1701.970 300.000 1089.985 300.447 C 721.453 300.717,470.060 302.409,458.041 304.701 M1500.000 700.000 L 1500.000 900.000 1000.000 900.000 L 500.000 900.000 500.000 700.000 L 500.000 500.000 1000.000 500.000 L 1500.000 500.000 1500.000 700.000 M1274.000 1309.291 C 1366.163 1334.808,1440.048 1399.227,1476.677 1486.000 C 1493.068 1524.829,1497.915 1550.850,1497.915 1600.000 C 1497.915 1626.016,1495.503 1655.557,1492.362 1668.000 C 1468.730 1761.610,1400.546 1841.862,1315.098 1876.635 C 1180.394 1931.453,1027.000 1884.117,950.100 1764.000 C 914.772 1708.819,902.085 1665.483,902.085 1600.000 C 902.085 1534.490,914.792 1491.108,950.124 1436.000 C 989.952 1373.878,1063.333 1322.491,1132.178 1308.510 C 1144.180 1306.073,1157.600 1303.245,1162.000 1302.226 C 1176.697 1298.823,1253.745 1303.683,1274.000 1309.291 " fill="#1D1E23" stroke="none" fill-rule="evenodd"/></svg>