<svg viewBox="0 0 2400 2400" fill="none" xmlns="http://www.w3.org/2000/svg"><path d="M567.776 303.860 L 445.551 306.000 414.344 321.432 C 373.070 341.842,341.894 372.958,321.620 413.980 C 307.743 442.058,306.115 448.822,303.467 489.412 C 299.672 547.583,299.672 1852.417,303.467 1910.588 C 306.115 1951.178,307.743 1957.942,321.620 1986.020 C 341.843 2026.938,373.089 2058.170,414.060 2078.419 C 442.639 2092.544,448.510 2093.919,491.492 2096.548 C 552.161 2100.260,1847.839 2100.260,1908.508 2096.548 C 1951.490 2093.919,1957.361 2092.544,1985.940 2078.419 C 2049.403 2047.054,2090.450 1988.507,2096.373 1920.900 C 2098.055 1901.705,2099.559 1618.693,2099.716 1291.985 L 2100.000 697.970 1900.985 498.985 L 1701.970 300.000 1195.985 300.860 C 917.693 301.334,634.999 302.684,567.776 303.860 M1500.000 700.000 L 1500.000 900.000 1000.000 900.000 L 500.000 900.000 500.000 700.000 L 500.000 500.000 1000.000 500.000 L 1500.000 500.000 1500.000 700.000 M1263.106 1308.176 C 1364.384 1325.410,1462.394 1419.496,1489.846 1525.840 C 1498.118 1557.884,1498.118 1642.116,1489.846 1674.160 C 1466.730 1763.707,1393.785 1846.608,1310.537 1877.943 C 1235.739 1906.097,1164.629 1906.317,1091.214 1878.624 C 1024.058 1853.291,965.957 1799.131,930.292 1728.616 C 894.612 1658.073,894.578 1542.342,930.216 1471.384 C 984.394 1363.512,1094.527 1296.072,1206.000 1302.507 C 1225.800 1303.650,1251.498 1306.201,1263.106 1308.176 " fill="#1D1E23" stroke="none" fill-rule="evenodd"/></svg>