<svg viewBox="0 0 2400 2400" fill="none" xmlns="http://www.w3.org/2000/svg"><path d="M829.842 303.812 L 441.684 306.000 418.085 320.000 C 378.711 343.359,338.047 384.743,321.428 418.369 L 306.980 447.603 303.239 538.801 C 298.027 665.874,301.666 1915.220,307.331 1943.355 C 315.347 1983.171,338.158 2017.913,379.392 2053.111 C 405.251 2075.184,430.368 2087.675,459.177 2092.791 C 489.529 2098.181,1734.342 2101.738,1858.628 2096.790 C 1949.528 2093.171,1951.729 2092.879,1976.628 2081.163 C 2021.889 2059.864,2057.808 2023.233,2082.898 1972.786 L 2097.428 1943.572 2099.252 1321.339 L 2101.075 699.105 1901.553 499.553 L 1702.030 300.000 1460.015 300.812 C 1326.907 301.259,1043.329 302.609,829.842 303.812 M1500.000 700.000 L 1500.000 900.000 1000.000 900.000 L 500.000 900.000 500.000 700.000 L 500.000 500.000 1000.000 500.000 L 1500.000 500.000 1500.000 700.000 M1269.504 1312.174 C 1326.273 1320.734,1397.452 1368.811,1438.028 1426.000 C 1485.771 1493.289,1501.157 1553.206,1492.217 1637.021 C 1485.187 1702.929,1462.885 1750.308,1414.074 1803.028 C 1381.426 1838.291,1342.629 1864.571,1299.093 1880.913 C 1269.204 1892.131,1260.531 1893.505,1209.509 1895.099 C 1143.559 1897.159,1127.183 1893.699,1068.127 1865.230 C 1035.633 1849.565,1025.124 1841.791,994.127 1810.486 C 953.115 1769.066,926.199 1725.932,915.286 1684.138 C 907.458 1654.157,905.522 1566.160,911.946 1532.287 C 921.520 1481.803,949.103 1434.701,996.433 1388.018 C 1042.031 1343.042,1094.154 1315.052,1145.283 1308.086 C 1171.849 1304.466,1231.387 1306.425,1269.504 1312.174 " fill="#1D1E23" stroke="none" fill-rule="evenodd"/></svg>