<svg viewBox="0 0 2400 2400" fill="none" xmlns="http://www.w3.org/2000/svg"><path d="M693.953 303.850 L 441.905 306.000 410.504 323.970 C 372.154 345.917,337.635 381.572,319.939 417.517 C 308.223 441.317,306.836 448.280,303.759 498.774 C 299.370 570.779,299.370 1829.221,303.759 1901.226 C 306.852 1951.976,308.187 1958.623,320.231 1983.226 C 337.936 2019.395,380.684 2062.103,416.955 2079.858 C 442.253 2092.243,447.536 2093.252,502.955 2096.288 C 579.921 2100.504,1820.079 2100.504,1897.045 2096.288 C 1952.273 2093.263,1957.795 2092.215,1982.444 2080.080 C 2034.544 2054.431,2077.330 2003.063,2092.459 1948.000 C 2096.255 1934.182,2097.755 1786.930,2098.912 1314.225 L 2100.420 698.450 1901.225 499.225 L 1702.030 300.000 1324.015 300.850 C 1116.107 301.317,832.579 302.667,693.953 303.850 M1500.000 700.000 L 1500.000 900.000 1000.000 900.000 L 500.000 900.000 500.000 700.000 L 500.000 500.000 1000.000 500.000 L 1500.000 500.000 1500.000 700.000 M1288.000 1313.952 C 1388.086 1344.463,1476.741 1444.527,1492.416 1544.673 C 1499.524 1590.080,1495.010 1660.139,1482.697 1695.547 C 1457.383 1768.335,1400.302 1833.458,1331.197 1868.390 C 1271.058 1898.789,1186.964 1907.018,1122.803 1888.783 C 1044.843 1866.626,986.525 1821.296,942.285 1748.468 C 923.758 1717.970,913.539 1689.371,907.587 1651.364 C 902.092 1616.270,905.231 1547.210,913.731 1516.181 C 939.534 1421.990,1029.718 1334.563,1126.266 1310.145 C 1158.211 1302.066,1256.608 1304.382,1288.000 1313.952 " fill="#1D1E23" stroke="none" fill-rule="evenodd"/></svg>