<svg viewBox="0 0 2400 2400" fill="none" xmlns="http://www.w3.org/2000/svg"><path d="M200.000 1200.000 L 200.000 2000.000 1200.000 2000.000 L 2200.000 2000.000 2200.000 1300.000 L 2200.000 600.000 1700.970 600.000 L 1201.940 600.000 1102.000 500.000 L 1002.060 400.000 601.030 400.000 L 200.000 400.000 200.000 1200.000 M1536.437 908.083 C 1588.313 917.921,1637.672 953.937,1672.703 1007.513 L 1692.000 1037.026 1692.000 1100.000 L 1692.000 1162.974 1672.686 1192.487 C 1614.279 1281.739,1527.558 1317.436,1441.265 1287.747 C 1397.357 1272.640,1358.895 1240.468,1327.383 1192.487 L 1308.000 1162.974 1308.000 1100.000 L 1308.000 1037.026 1327.397 1007.513 C 1360.934 956.488,1408.435 918.371,1450.984 908.343 C 1472.045 903.379,1511.009 903.261,1536.437 908.083 M1576.795 1409.967 C 1726.636 1429.748,1849.269 1487.921,1883.796 1555.599 C 1892.501 1572.663,1899.695 1626.010,1899.897 1675.000 L 1900.000 1700.000 1500.000 1700.000 L 1100.000 1700.000 1100.103 1675.000 C 1100.284 1631.107,1107.576 1572.422,1114.517 1559.000 C 1136.718 1516.067,1194.020 1474.454,1270.663 1445.605 C 1368.038 1408.954,1474.888 1396.515,1576.795 1409.967 " fill="#1D1E23" stroke="none" fill-rule="evenodd"/></svg>