<svg viewBox="0 0 2400 2400" fill="none" xmlns="http://www.w3.org/2000/svg"><path d="M454.000 403.701 L 346.000 406.023 324.000 417.321 C 273.065 443.478,231.649 485.725,215.499 528.000 C 201.375 564.973,199.552 657.135,200.943 1264.000 C 202.175 1801.535,202.662 1835.253,209.498 1856.000 C 226.786 1908.466,268.134 1955.749,318.337 1980.464 C 344.228 1993.211,347.486 1993.783,409.593 1996.511 C 498.408 2000.412,1906.202 2000.303,1988.874 1996.389 C 2053.486 1993.330,2056.665 1992.774,2082.874 1979.943 C 2119.911 1961.811,2162.312 1919.311,2179.559 1883.031 C 2190.408 1860.209,2192.985 1848.829,2196.315 1809.031 C 2198.708 1780.433,2199.809 1564.460,2199.125 1258.000 L 2198.000 754.000 2183.065 722.721 C 2162.106 678.827,2129.485 645.709,2084.142 622.290 L 2049.257 604.273 1625.629 601.541 L 1202.000 598.810 1136.962 535.462 C 1060.195 460.689,1025.268 431.146,998.000 417.919 C 980.515 409.438,970.706 407.958,920.000 406.154 C 820.380 402.610,566.830 401.275,454.000 403.701 M1551.067 910.460 C 1602.208 923.747,1644.913 957.473,1674.471 1007.916 L 1692.000 1037.833 1692.000 1100.000 L 1692.000 1162.167 1674.337 1192.341 C 1591.218 1334.333,1408.822 1334.401,1325.738 1192.470 L 1308.000 1162.167 1308.000 1100.000 L 1308.000 1037.833 1325.663 1007.659 C 1354.748 957.972,1402.086 920.072,1452.419 906.175 C 1476.460 899.536,1515.559 901.235,1551.067 910.460 M1540.000 1404.227 C 1632.838 1412.704,1718.565 1435.113,1784.015 1468.012 C 1823.875 1488.047,1869.401 1524.141,1882.062 1545.744 C 1893.603 1565.438,1899.920 1607.504,1899.970 1665.000 L 1900.000 1700.000 1500.000 1700.000 L 1100.000 1700.000 1100.030 1665.000 C 1100.080 1607.504,1106.397 1565.438,1117.938 1545.744 C 1130.756 1523.873,1176.256 1487.983,1217.379 1467.307 C 1276.067 1437.799,1363.934 1413.413,1444.000 1404.411 C 1486.877 1399.590,1489.164 1399.586,1540.000 1404.227 " fill="#1D1E23" stroke="none" fill-rule="evenodd"/></svg>