<svg viewBox="0 0 2400 2400" fill="none" xmlns="http://www.w3.org/2000/svg"><path d="M200.000 1200.000 L 200.000 2000.000 1200.000 2000.000 L 2200.000 2000.000 2200.000 1300.000 L 2200.000 600.000 1700.970 600.000 L 1201.940 600.000 1102.000 500.000 L 1002.060 400.000 601.030 400.000 L 200.000 400.000 200.000 1200.000 M1566.174 912.372 C 1624.845 934.235,1665.108 974.388,1688.135 1034.000 C 1695.716 1053.628,1697.405 1065.651,1697.405 1100.000 C 1697.405 1134.349,1695.716 1146.372,1688.135 1166.000 C 1668.358 1217.198,1631.511 1258.402,1586.562 1279.584 C 1477.653 1330.908,1356.161 1280.672,1311.865 1166.000 C 1298.535 1131.489,1298.562 1068.375,1311.923 1034.000 C 1329.004 990.053,1353.929 958.066,1389.285 934.722 C 1408.937 921.747,1446.198 906.455,1468.000 902.417 C 1490.086 898.327,1542.837 903.676,1566.174 912.372 M1572.795 1405.967 C 1700.048 1422.766,1803.539 1463.303,1858.589 1517.914 C 1895.581 1554.611,1900.000 1568.142,1900.000 1644.726 L 1900.000 1700.000 1500.000 1700.000 L 1100.000 1700.000 1100.000 1644.726 C 1100.000 1568.142,1104.419 1554.611,1141.411 1517.914 C 1184.411 1475.257,1254.753 1441.967,1348.000 1420.143 C 1432.683 1400.323,1498.565 1396.168,1572.795 1405.967 " fill="#1D1E23" stroke="none" fill-rule="evenodd"/></svg>