<svg viewBox="0 0 2400 2400" fill="none" xmlns="http://www.w3.org/2000/svg"><path d="M360.226 404.287 C 306.746 414.998,248.774 458.923,224.406 507.196 C 198.837 557.848,200.124 521.170,200.059 1200.803 C 200.017 1637.327,201.302 1825.850,204.420 1840.803 C 220.053 1915.765,284.235 1979.947,359.197 1995.580 C 389.211 2001.839,2010.789 2001.839,2040.803 1995.580 C 2115.765 1979.947,2179.947 1915.765,2195.580 1840.803 C 2201.803 1810.962,2201.803 789.038,2195.580 759.197 C 2181.788 693.062,2134.082 638.710,2066.000 611.568 L 2042.000 602.000 1622.187 600.893 L 1202.374 599.786 1126.075 524.380 C 1083.407 482.211,1038.495 441.682,1024.184 432.433 C 974.995 400.640,993.427 402.244,668.000 401.442 C 508.500 401.049,370.002 402.330,360.226 404.287 M1566.174 912.372 C 1624.845 934.235,1665.108 974.388,1688.135 1034.000 C 1695.716 1053.628,1697.405 1065.651,1697.405 1100.000 C 1697.405 1134.349,1695.716 1146.372,1688.135 1166.000 C 1668.358 1217.198,1631.511 1258.402,1586.562 1279.584 C 1477.653 1330.908,1356.161 1280.672,1311.865 1166.000 C 1298.535 1131.489,1298.562 1068.375,1311.923 1034.000 C 1329.004 990.053,1353.929 958.066,1389.285 934.722 C 1408.937 921.747,1446.198 906.455,1468.000 902.417 C 1490.086 898.327,1542.837 903.676,1566.174 912.372 M1572.795 1405.967 C 1700.048 1422.766,1803.539 1463.303,1858.589 1517.914 C 1895.581 1554.611,1900.000 1568.142,1900.000 1644.726 L 1900.000 1700.000 1500.000 1700.000 L 1100.000 1700.000 1100.000 1644.726 C 1100.000 1568.142,1104.419 1554.611,1141.411 1517.914 C 1184.411 1475.257,1254.753 1441.967,1348.000 1420.143 C 1432.683 1400.323,1498.565 1396.168,1572.795 1405.967 " fill="#1D1E23" stroke="none" fill-rule="evenodd"/></svg>