<svg viewBox="0 0 2400 2400" fill="none" xmlns="http://www.w3.org/2000/svg"><path d="M200.000 1200.000 L 200.000 2000.000 1200.000 2000.000 L 2200.000 2000.000 2200.000 1300.000 L 2200.000 600.000 1700.970 600.000 L 1201.940 600.000 1102.000 500.000 L 1002.060 400.000 601.030 400.000 L 200.000 400.000 200.000 1200.000 M1540.803 908.407 C 1594.273 919.523,1643.830 957.043,1675.297 1010.233 L 1692.000 1038.465 1692.000 1100.000 L 1692.000 1161.535 1675.699 1188.973 C 1629.179 1267.279,1548.142 1309.885,1471.706 1296.225 C 1411.600 1285.483,1358.803 1247.240,1324.735 1189.767 L 1308.000 1161.535 1308.010 1099.767 L 1308.021 1038.000 1322.427 1014.000 C 1351.846 964.992,1387.387 932.761,1434.000 912.818 C 1456.941 903.003,1505.219 901.009,1540.803 908.407 M1583.538 1410.273 C 1703.946 1426.745,1799.781 1465.276,1856.448 1520.000 C 1890.143 1552.540,1895.375 1567.986,1898.790 1645.000 L 1901.229 1700.000 1500.000 1700.000 L 1098.771 1700.000 1101.210 1645.000 C 1104.625 1567.986,1109.857 1552.540,1143.552 1520.000 C 1188.755 1476.347,1255.950 1444.374,1350.000 1421.767 C 1439.927 1400.152,1491.126 1397.632,1583.538 1410.273 " fill="#1D1E23" stroke="none" fill-rule="evenodd"/></svg>