<svg viewBox="0 0 2400 2400" fill="none" xmlns="http://www.w3.org/2000/svg"><path d="M200.000 1200.000 L 200.000 2000.000 1200.000 2000.000 L 2200.000 2000.000 2200.000 1300.000 L 2200.000 600.000 1700.970 600.000 L 1201.940 600.000 1102.000 500.000 L 1002.060 400.000 601.030 400.000 L 200.000 400.000 200.000 1200.000 M1524.105 904.228 C 1592.729 912.789,1647.761 952.026,1678.568 1014.361 L 1694.000 1045.585 1694.000 1100.000 L 1694.000 1154.415 1678.908 1184.952 C 1636.684 1270.386,1541.567 1316.418,1453.840 1293.873 C 1395.141 1278.788,1348.737 1240.887,1321.504 1185.786 L 1306.000 1154.415 1306.000 1100.000 L 1306.000 1045.585 1321.432 1014.361 C 1352.175 952.155,1419.390 905.084,1484.105 900.438 C 1487.463 900.197,1505.463 901.903,1524.105 904.228 M1544.000 1404.064 C 1665.006 1414.574,1773.527 1450.430,1838.311 1501.306 C 1890.586 1542.358,1896.819 1556.251,1899.199 1637.000 L 1901.055 1700.000 1500.050 1700.000 L 1099.044 1700.000 1100.760 1637.000 C 1102.953 1556.460,1109.215 1542.515,1161.689 1501.306 C 1231.631 1446.380,1357.918 1407.402,1488.000 1400.592 C 1493.500 1400.304,1518.700 1401.866,1544.000 1404.064 " fill="#1D1E23" stroke="none" fill-rule="evenodd"/></svg>