<svg viewBox="0 0 2400 2400" fill="none" xmlns="http://www.w3.org/2000/svg"><path d="M438.000 403.794 L 346.000 406.000 318.713 419.341 C 279.639 438.445,239.752 477.293,221.693 513.832 C 208.782 539.956,207.131 547.220,203.855 592.310 C 199.432 653.187,199.256 1776.949,203.662 1823.037 C 209.967 1888.990,251.613 1947.556,314.202 1978.490 C 343.649 1993.043,347.895 1993.986,395.634 1996.575 C 461.344 2000.138,1938.656 2000.138,2004.366 1996.575 C 2052.105 1993.986,2056.351 1993.043,2085.798 1978.490 C 2126.780 1958.235,2158.139 1926.974,2178.208 1886.368 C 2191.671 1859.127,2193.656 1851.075,2196.805 1810.936 C 2198.744 1786.221,2199.803 1539.200,2199.158 1262.000 L 2197.986 758.000 2188.368 734.000 C 2167.094 680.917,2134.434 645.975,2081.658 619.831 L 2047.723 603.020 1624.862 600.977 L 1202.000 598.935 1136.000 534.393 C 1055.666 455.834,1024.745 429.786,996.000 416.457 L 974.000 406.255 814.000 403.477 C 638.525 400.430,576.074 400.483,438.000 403.794 M1524.105 904.228 C 1592.729 912.789,1647.761 952.026,1678.568 1014.361 L 1694.000 1045.585 1694.000 1100.000 L 1694.000 1154.415 1678.908 1184.952 C 1636.684 1270.386,1541.567 1316.418,1453.840 1293.873 C 1395.141 1278.788,1348.737 1240.887,1321.504 1185.786 L 1306.000 1154.415 1306.000 1100.000 L 1306.000 1045.585 1321.432 1014.361 C 1352.175 952.155,1419.390 905.084,1484.105 900.438 C 1487.463 900.197,1505.463 901.903,1524.105 904.228 M1544.000 1404.064 C 1665.006 1414.574,1773.527 1450.430,1838.311 1501.306 C 1890.586 1542.358,1896.819 1556.251,1899.199 1637.000 L 1901.055 1700.000 1500.050 1700.000 L 1099.044 1700.000 1100.760 1637.000 C 1102.953 1556.460,1109.215 1542.515,1161.689 1501.306 C 1231.631 1446.380,1357.918 1407.402,1488.000 1400.592 C 1493.500 1400.304,1518.700 1401.866,1544.000 1404.064 " fill="#1D1E23" stroke="none" fill-rule="evenodd"/></svg>