<svg viewBox="0 0 2400 2400" fill="none" xmlns="http://www.w3.org/2000/svg"><path d="M200.000 1200.000 L 200.000 2000.000 1200.000 2000.000 L 2200.000 2000.000 2200.000 1300.000 L 2200.000 600.000 1700.970 600.000 L 1201.940 600.000 1102.000 500.000 L 1002.060 400.000 601.030 400.000 L 200.000 400.000 200.000 1200.000 M1551.067 910.460 C 1602.208 923.747,1644.913 957.473,1674.471 1007.916 L 1692.000 1037.833 1692.000 1100.000 L 1692.000 1162.167 1674.337 1192.341 C 1591.218 1334.333,1408.822 1334.401,1325.738 1192.470 L 1308.000 1162.167 1308.000 1100.000 L 1308.000 1037.833 1325.663 1007.659 C 1354.748 957.972,1402.086 920.072,1452.419 906.175 C 1476.460 899.536,1515.559 901.235,1551.067 910.460 M1540.000 1404.227 C 1632.838 1412.704,1718.565 1435.113,1784.015 1468.012 C 1823.875 1488.047,1869.401 1524.141,1882.062 1545.744 C 1893.603 1565.438,1899.920 1607.504,1899.970 1665.000 L 1900.000 1700.000 1500.000 1700.000 L 1100.000 1700.000 1100.030 1665.000 C 1100.080 1607.504,1106.397 1565.438,1117.938 1545.744 C 1130.756 1523.873,1176.256 1487.983,1217.379 1467.307 C 1276.067 1437.799,1363.934 1413.413,1444.000 1404.411 C 1486.877 1399.590,1489.164 1399.586,1540.000 1404.227 " fill="#1D1E23" stroke="none" fill-rule="evenodd"/></svg>