<svg viewBox="0 0 2400 2400" fill="none" xmlns="http://www.w3.org/2000/svg"><path d="M560.226 204.305 C 506.811 214.950,448.779 258.913,424.406 307.196 C 398.566 358.385,400.124 301.195,400.059 1200.803 C 400.017 1783.337,401.276 2025.723,404.420 2040.803 C 420.053 2115.765,484.235 2179.947,559.197 2195.580 C 589.114 2201.819,1810.886 2201.819,1840.803 2195.580 C 1915.765 2179.947,1979.947 2115.765,1995.580 2040.803 C 1998.690 2025.886,1999.982 1848.125,1999.941 1440.803 C 1999.876 803.517,2001.121 836.371,1975.130 786.372 C 1964.445 765.818,1922.327 721.797,1706.230 505.334 C 1522.708 321.499,1442.706 244.017,1424.296 232.280 C 1373.678 200.008,1405.495 202.160,968.000 201.421 C 753.500 201.059,570.002 202.357,560.226 204.305 M1617.143 899.033 C 1355.555 900.203,1360.488 900.699,1329.986 870.196 C 1299.454 839.664,1300.000 844.908,1300.000 582.298 L 1300.000 350.022 1574.012 624.011 L 1848.023 898.000 1617.143 899.033 M1227.199 1129.738 C 1240.222 1136.657,1517.291 1414.302,1523.581 1426.737 C 1530.012 1439.452,1528.990 1463.089,1521.458 1475.841 C 1507.871 1498.841,1501.869 1500.000,1396.383 1500.000 L 1300.000 1500.000 1300.000 1655.274 C 1300.000 1834.155,1299.033 1841.178,1270.465 1869.745 C 1230.966 1909.244,1169.192 1909.402,1129.895 1870.105 C 1100.654 1840.864,1100.000 1836.213,1100.000 1657.483 L 1100.000 1500.391 999.686 1499.196 L 899.372 1498.000 885.686 1483.059 C 874.122 1470.434,872.000 1465.171,872.000 1449.117 L 872.000 1430.116 1025.058 1277.058 L 1178.116 1124.000 1197.257 1124.000 C 1207.784 1124.000,1221.258 1126.582,1227.199 1129.738 " fill="#1D1E23" stroke="none" fill-rule="evenodd"/></svg>