<svg viewBox="0 0 2400 2400" fill="none" xmlns="http://www.w3.org/2000/svg"><path d="M698.000 203.770 L 546.000 206.000 524.000 217.309 C 473.049 243.501,431.673 285.706,415.482 328.000 C 408.550 346.108,406.473 363.799,403.744 428.000 C 399.327 531.922,399.341 1940.020,403.760 2004.614 C 406.830 2049.494,408.698 2058.330,420.242 2082.614 C 438.010 2119.988,480.056 2162.011,517.490 2179.807 C 542.222 2191.565,550.250 2193.217,597.490 2196.265 C 665.930 2200.682,1734.070 2200.682,1802.510 2196.265 C 1849.420 2193.238,1857.861 2191.521,1881.657 2180.164 C 1913.833 2164.807,1955.341 2127.163,1971.586 2098.604 C 1978.032 2087.272,1986.613 2067.200,1990.653 2054.000 C 1997.639 2031.179,1998.000 2001.313,1998.000 1446.000 C 1998.000 794.784,1999.253 825.763,1971.213 783.773 C 1951.410 754.117,1776.323 572.303,1611.683 410.428 C 1463.951 265.176,1428.945 233.678,1398.901 218.967 C 1378.649 209.050,1371.399 207.876,1319.310 206.073 C 1223.386 202.754,859.215 201.404,698.000 203.770 M1840.000 895.233 C 1840.000 901.613,1386.217 902.137,1369.260 895.776 C 1350.201 888.628,1329.182 872.135,1317.325 855.025 L 1306.007 838.694 1303.351 722.347 C 1301.891 658.356,1300.556 548.400,1300.384 478.000 L 1300.072 350.000 1570.036 620.233 C 1718.516 768.861,1840.000 892.611,1840.000 895.233 M1218.000 1128.396 C 1231.497 1132.066,1255.596 1154.432,1372.058 1271.373 C 1465.259 1364.958,1513.322 1416.130,1519.981 1428.867 C 1529.377 1446.838,1529.564 1448.530,1523.923 1464.505 C 1512.523 1496.785,1508.788 1497.820,1398.350 1499.306 L 1301.269 1500.612 1298.503 1657.306 C 1296.983 1743.488,1294.666 1820.760,1293.354 1829.022 C 1290.412 1847.563,1265.434 1877.065,1242.980 1888.520 C 1221.021 1899.723,1179.076 1899.807,1157.532 1888.692 C 1135.031 1877.082,1112.027 1851.653,1107.622 1833.520 C 1105.549 1824.984,1102.705 1746.450,1101.302 1659.000 L 1098.751 1500.000 999.667 1500.000 L 900.582 1500.000 888.305 1485.105 C 874.928 1468.877,869.571 1450.004,874.180 1435.348 C 875.797 1430.206,944.704 1358.050,1027.306 1275.000 C 1191.281 1110.137,1180.718 1118.257,1218.000 1128.396 " fill="#1D1E23" stroke="none" fill-rule="evenodd"/></svg>