<svg viewBox="0 0 2400 2400" fill="none" xmlns="http://www.w3.org/2000/svg"><path d="M400.000 1200.000 L 400.000 2200.000 1200.000 2200.000 L 2000.000 2200.000 2000.000 1498.990 L 2000.000 797.980 1700.990 498.990 L 1401.980 200.000 900.990 200.000 L 400.000 200.000 400.000 1200.000 M1576.000 626.000 L 1849.978 900.000 1574.989 900.000 L 1300.000 900.000 1300.000 626.000 C 1300.000 475.300,1300.455 352.000,1301.011 352.000 C 1301.567 352.000,1425.312 475.300,1576.000 626.000 M1508.963 1409.736 C 1577.031 1480.766,1588.054 1493.924,1581.604 1496.455 C 1577.422 1498.095,1512.350 1499.564,1437.000 1499.719 L 1300.000 1500.000 1300.000 1700.000 L 1300.000 1900.000 1200.000 1900.000 L 1100.000 1900.000 1100.000 1700.000 L 1100.000 1500.000 951.015 1500.000 L 802.030 1500.000 1001.995 1300.005 L 1201.959 1100.011 1315.338 1213.005 C 1377.697 1275.152,1464.828 1363.681,1508.963 1409.736 " fill="#1D1E23" stroke="none" fill-rule="evenodd"/></svg>