<svg viewBox="0 0 2400 2400" fill="none" xmlns="http://www.w3.org/2000/svg"><path d="M620.000 207.798 C 545.441 209.903,541.030 210.479,520.000 220.862 C 479.773 240.723,440.889 278.723,421.362 317.259 C 415.114 329.589,409.903 349.208,407.486 369.502 C 402.386 412.314,398.491 1671.336,402.792 1886.288 L 406.080 2050.577 420.982 2080.729 C 441.303 2121.847,477.899 2158.571,518.593 2178.683 L 549.088 2193.754 683.544 2197.061 C 860.171 2201.405,1806.157 2197.896,1838.972 2192.775 C 1896.780 2183.755,1957.364 2131.999,1985.031 2068.000 L 1998.000 2038.000 1999.076 1636.000 C 2000.375 1150.717,1995.759 843.276,1986.746 814.812 C 1983.404 804.258,1972.324 785.358,1962.123 772.812 C 1905.145 702.731,1514.080 310.185,1442.062 250.781 C 1393.344 210.596,1393.871 210.731,1272.000 207.482 C 1151.755 204.277,737.631 204.478,620.000 207.798 M1838.502 894.835 C 1833.906 899.436,1440.401 901.082,1396.553 896.684 C 1355.113 892.528,1340.836 884.552,1318.609 853.141 L 1307.218 837.044 1303.800 657.522 C 1301.920 558.785,1300.296 449.202,1300.191 414.004 L 1300.000 350.007 1570.831 620.839 C 1719.789 769.796,1840.240 893.095,1838.502 894.835 M1235.460 1141.990 C 1281.595 1177.684,1479.780 1376.942,1515.172 1423.217 C 1532.855 1446.338,1524.431 1482.501,1499.122 1492.119 C 1490.641 1495.342,1453.105 1497.782,1393.000 1499.018 L 1300.000 1500.930 1299.758 1545.465 C 1299.626 1569.959,1298.080 1645.442,1296.325 1713.205 L 1293.133 1836.410 1281.218 1852.857 C 1274.666 1861.903,1261.634 1874.861,1252.258 1881.652 C 1236.285 1893.223,1232.998 1894.000,1200.000 1894.000 C 1167.002 1894.000,1163.715 1893.223,1147.742 1881.652 C 1138.366 1874.861,1125.561 1862.216,1119.285 1853.552 L 1107.874 1837.799 1104.041 1729.900 C 1101.932 1670.555,1100.161 1594.550,1100.104 1561.000 L 1100.000 1500.000 1000.192 1500.000 L 900.384 1500.000 888.740 1483.000 C 872.680 1459.553,870.683 1450.895,877.546 1434.470 C 883.924 1419.206,1154.216 1146.009,1177.119 1131.678 C 1194.479 1120.815,1212.121 1123.934,1235.460 1141.990 " fill="#1D1E23" stroke="none" fill-rule="evenodd"/></svg>