<svg viewBox="0 0 2400 2400" fill="none" xmlns="http://www.w3.org/2000/svg"><path d="M614.000 234.735 C 573.799 256.224,309.813 475.369,274.044 516.946 C 255.257 538.783,247.978 556.323,248.088 579.488 C 248.199 602.976,258.914 626.648,278.133 645.867 C 308.593 676.326,345.570 683.669,382.000 666.492 C 410.167 653.210,663.324 448.694,714.508 397.870 C 742.640 369.936,749.140 355.977,748.939 323.929 C 748.662 279.690,733.732 254.360,698.000 237.510 C 673.700 226.050,632.776 224.698,614.000 234.735 M1708.120 232.450 C 1678.778 244.161,1653.945 276.691,1649.480 309.267 C 1645.569 337.803,1654.016 361.170,1677.619 387.104 C 1711.545 424.379,1952.868 627.591,2004.356 662.239 C 2021.097 673.506,2028.538 675.996,2045.402 675.978 C 2086.312 675.933,2113.670 662.181,2134.502 631.187 C 2149.724 608.540,2154.326 582.369,2147.840 555.331 C 2144.237 540.316,2137.648 529.596,2120.908 511.514 C 2078.425 465.627,1818.503 251.734,1786.253 236.122 C 1767.940 227.257,1726.063 225.289,1708.120 232.450 M1120.000 408.656 C 994.355 414.454,860.566 458.330,732.000 535.899 C 605.892 611.985,500.408 718.360,424.191 846.310 C 316.236 1027.538,275.492 1268.699,317.972 1475.009 C 398.626 1866.713,723.955 2157.163,1126.000 2196.408 C 1218.057 2205.394,1323.795 2195.902,1423.894 2169.666 C 1729.663 2089.524,1965.714 1862.000,2060.558 1556.000 C 2108.649 1400.842,2111.666 1240.388,2069.580 1076.106 C 2006.014 827.977,1831.893 613.063,1601.605 498.496 C 1484.585 440.279,1383.654 412.890,1274.000 409.595 C 1241.000 408.603,1205.900 407.384,1196.000 406.886 C 1186.100 406.387,1151.900 407.184,1120.000 408.656 M1268.000 608.417 C 1361.295 616.689,1426.098 634.944,1508.108 676.054 C 1567.138 705.645,1616.948 739.162,1660.617 778.676 C 1827.266 929.471,1905.906 1119.723,1894.371 1344.190 C 1883.337 1558.899,1765.301 1761.844,1580.000 1884.699 C 1449.361 1971.312,1280.439 2013.044,1130.162 1995.829 C 857.295 1964.571,625.668 1778.807,538.203 1521.082 C 511.385 1442.057,509.996 1430.866,510.035 1294.000 L 510.071 1170.000 524.669 1122.000 C 540.344 1070.463,568.574 1001.287,588.889 964.637 C 673.652 811.711,807.259 699.078,973.503 640.401 C 1003.147 629.938,1097.194 608.296,1138.000 602.547 C 1152.541 600.498,1205.834 602.905,1268.000 608.417 M1153.459 803.810 C 1136.147 807.940,1117.216 822.187,1108.940 837.315 C 1102.550 848.994,1102.016 870.460,1102.198 1108.081 L 1102.396 1366.161 1111.469 1384.903 C 1124.955 1412.761,1169.057 1443.193,1373.255 1565.545 C 1530.187 1659.576,1546.962 1666.845,1574.479 1652.737 C 1615.797 1631.552,1633.428 1580.572,1609.337 1551.942 C 1594.872 1534.751,1516.399 1483.842,1375.127 1400.000 L 1257.179 1330.000 1254.590 1270.364 C 1253.165 1237.564,1251.990 1134.064,1251.978 1040.364 C 1251.964 936.302,1250.359 864.252,1247.853 855.230 C 1242.445 835.756,1213.599 810.359,1190.196 804.467 C 1170.669 799.550,1171.276 799.560,1153.459 803.810 " fill="#1D1E23" stroke="none" fill-rule="evenodd"/></svg>