<svg viewBox="0 0 2400 2400" fill="none" xmlns="http://www.w3.org/2000/svg"><path d="M629.647 227.582 C 613.017 231.813,592.422 246.430,515.339 308.707 C 339.158 451.046,268.130 514.836,255.572 542.000 C 239.430 576.918,247.675 616.214,277.359 645.842 C 312.800 681.215,357.632 686.034,397.131 658.716 C 423.382 640.560,529.128 555.895,618.000 481.877 C 744.287 376.698,749.762 370.054,749.762 322.000 C 749.762 280.190,729.823 248.772,693.671 233.621 C 677.242 226.735,644.948 223.689,629.647 227.582 M1722.000 227.899 C 1678.453 237.925,1647.855 277.901,1648.088 324.464 C 1648.209 348.746,1659.368 370.987,1683.573 395.192 C 1715.845 427.464,1896.486 579.292,1981.254 645.391 C 2020.334 675.864,2020.616 676.000,2044.790 676.000 C 2089.924 676.000,2117.759 660.845,2139.004 624.706 C 2148.177 609.102,2149.997 601.357,2149.985 578.000 C 2149.961 535.838,2142.320 525.372,2059.708 454.354 C 1938.471 350.133,1798.769 238.272,1782.269 232.207 C 1768.997 227.328,1735.026 224.899,1722.000 227.899 M1080.000 409.771 C 978.363 424.457,896.500 449.508,811.841 491.832 C 720.135 537.677,650.833 583.932,592.285 638.371 C 438.842 781.044,347.012 952.343,311.450 1162.234 C 300.915 1224.416,298.707 1355.153,307.198 1414.000 C 335.704 1611.548,418.361 1782.656,552.640 1922.088 C 741.761 2118.465,1016.687 2221.578,1282.305 2195.752 C 1483.275 2176.211,1673.967 2089.054,1818.968 1950.466 C 2005.034 1772.629,2109.161 1518.531,2098.637 1268.000 C 2090.811 1081.695,2029.749 911.297,1915.520 756.997 C 1877.935 706.229,1792.905 621.443,1740.625 582.604 C 1622.853 495.112,1483.631 435.572,1345.763 413.736 C 1290.009 404.905,1130.174 402.521,1080.000 409.771 M1226.068 604.247 C 1350.116 612.488,1416.106 629.167,1510.000 676.008 C 1584.751 713.299,1631.505 747.280,1694.195 809.880 C 1792.621 908.164,1854.307 1022.537,1884.108 1162.000 C 1896.288 1218.998,1899.438 1337.121,1890.415 1398.486 C 1868.704 1546.151,1805.475 1675.735,1703.248 1782.072 C 1532.237 1959.960,1289.288 2035.344,1054.000 1983.525 C 810.016 1929.791,612.428 1750.037,534.060 1510.513 C 511.406 1441.274,507.053 1407.294,506.583 1296.000 C 506.206 1206.804,506.999 1194.451,515.412 1158.496 C 572.894 912.810,732.872 728.922,964.000 642.861 C 1008.068 626.453,1103.357 605.598,1158.068 600.387 C 1160.306 600.174,1190.906 601.911,1226.068 604.247 M1151.165 803.954 C 1134.731 808.908,1116.678 823.171,1108.940 837.315 C 1102.563 848.971,1102.000 870.274,1102.000 1100.000 C 1102.000 1237.500,1103.472 1358.626,1105.270 1369.169 C 1110.005 1396.922,1123.813 1410.134,1197.326 1457.247 C 1293.207 1518.698,1481.158 1631.045,1514.838 1647.039 C 1549.344 1663.426,1565.126 1662.963,1587.434 1644.908 C 1610.719 1626.061,1617.324 1614.295,1619.203 1588.310 C 1620.905 1564.781,1620.728 1564.308,1603.462 1546.302 C 1584.886 1526.929,1515.133 1482.420,1355.377 1388.000 L 1257.242 1330.000 1254.639 1286.000 C 1253.208 1261.800,1252.019 1155.600,1251.998 1050.000 C 1251.959 858.099,1251.954 857.992,1242.976 843.162 C 1223.226 810.540,1184.367 793.945,1151.165 803.954 " fill="#1D1E23" stroke="none" fill-rule="evenodd"/></svg>