<svg viewBox="0 0 2400 2400" fill="none" xmlns="http://www.w3.org/2000/svg"><path d="M629.625 213.431 C 581.280 251.660,213.015 559.121,210.289 563.532 C 208.125 567.034,321.521 707.524,331.480 713.679 C 336.052 716.504,371.939 687.635,580.000 513.764 C 722.056 395.051,779.063 345.542,785.337 335.433 C 788.597 330.180,783.881 322.178,761.761 295.433 C 699.038 219.597,671.033 188.000,666.539 188.000 C 663.925 188.000,647.314 199.444,629.625 213.431 M1707.410 215.114 C 1675.013 249.481,1612.000 326.039,1612.000 331.032 C 1612.000 339.720,1760.768 466.860,2045.548 701.553 L 2065.096 717.662 2077.548 703.242 C 2136.135 635.395,2188.000 572.340,2188.000 568.961 C 2188.000 562.252,2146.850 526.057,1996.530 400.542 C 1836.788 267.161,1752.985 198.949,1740.932 192.499 C 1733.808 188.686,1729.727 191.439,1707.410 215.114 M1104.000 406.557 C 1098.500 407.365,1080.500 409.944,1064.000 412.290 C 927.020 431.761,775.228 496.066,656.855 584.774 C 609.999 619.888,527.429 701.300,491.309 748.000 C 391.631 876.872,332.027 1018.883,307.472 1186.000 C 300.643 1232.473,300.616 1367.249,307.426 1414.000 C 336.957 1616.739,421.714 1790.282,557.670 1926.382 C 661.681 2030.504,755.131 2091.630,886.085 2141.202 C 1123.225 2230.970,1374.737 2217.037,1605.674 2101.340 C 1725.745 2041.186,1832.909 1950.708,1917.577 1838.000 C 1960.538 1780.813,1982.267 1745.163,2011.466 1683.962 C 2149.120 1395.438,2123.804 1062.921,1943.860 796.000 C 1914.485 752.426,1903.404 738.662,1858.830 690.383 C 1808.851 636.250,1763.247 597.195,1704.000 557.787 C 1573.759 471.159,1437.139 421.269,1294.000 408.065 C 1252.914 404.275,1126.387 403.271,1104.000 406.557 M1278.000 608.474 C 1435.737 624.046,1575.400 690.919,1690.120 805.805 C 1749.174 864.944,1784.702 912.751,1819.614 980.052 C 1881.789 1099.912,1902.342 1204.330,1893.017 1352.968 C 1889.616 1407.172,1885.687 1436.780,1877.776 1467.812 C 1826.618 1668.506,1692.599 1834.755,1508.204 1926.262 C 1340.257 2009.606,1156.356 2021.958,976.995 1961.940 C 753.787 1887.250,583.157 1702.456,522.760 1470.000 C 507.521 1411.346,502.572 1353.969,505.338 1268.000 C 508.870 1158.189,525.573 1092.862,576.414 990.000 C 656.524 827.922,791.401 707.120,964.000 642.860 C 1002.915 628.372,1054.251 616.149,1118.000 606.196 C 1155.258 600.378,1202.861 601.056,1278.000 608.474 M1100.975 1100.796 L 1102.000 1401.591 1284.000 1510.868 C 1507.066 1644.802,1561.369 1676.000,1571.426 1676.000 C 1576.794 1676.000,1585.391 1666.326,1598.973 1645.000 C 1624.231 1605.340,1648.671 1563.275,1647.167 1562.049 C 1644.585 1559.942,1314.753 1363.496,1284.505 1346.049 L 1252.000 1327.300 1252.000 1063.650 L 1252.000 800.000 1175.975 800.000 L 1099.949 800.000 1100.975 1100.796 " fill="#1D1E23" stroke="none" fill-rule="evenodd"/></svg>