<svg viewBox="0 0 2400 2400" fill="none" xmlns="http://www.w3.org/2000/svg"><path d="M637.440 209.275 C 594.006 241.285,339.213 452.978,246.958 533.704 C 216.519 560.338,212.458 565.383,216.051 572.095 C 223.199 585.451,282.899 658.765,309.434 686.773 L 334.851 713.601 378.120 679.800 C 479.195 600.844,735.105 384.323,769.696 348.495 C 783.436 334.264,784.850 331.100,781.043 323.119 C 770.156 300.289,675.284 192.000,666.172 192.000 C 663.261 192.000,650.332 199.774,637.440 209.275 M1722.859 200.563 C 1706.656 212.648,1612.000 325.011,1612.000 332.161 C 1612.000 338.454,1844.702 536.756,2044.547 700.766 L 2063.095 715.987 2087.613 689.777 C 2116.378 659.027,2188.000 571.743,2188.000 567.437 C 2188.000 557.556,1747.810 191.577,1736.587 192.127 C 1735.164 192.196,1728.987 195.993,1722.859 200.563 M1094.000 408.361 C 1020.744 417.327,929.275 442.371,852.865 474.384 C 728.988 526.284,632.549 595.099,532.051 703.307 C 420.688 823.211,346.665 975.761,311.416 1158.000 C 303.885 1196.934,303.885 1403.066,311.416 1442.000 C 349.532 1639.062,431.971 1799.025,564.000 1932.107 C 700.473 2069.669,875.059 2157.517,1078.000 2190.740 C 1144.138 2201.568,1265.026 2200.496,1333.332 2188.477 C 1531.454 2153.614,1686.229 2076.165,1821.391 1944.252 C 1936.786 1831.630,2010.428 1713.048,2057.788 1563.593 C 2086.028 1474.478,2096.308 1404.199,2096.308 1300.260 C 2096.308 1189.828,2083.835 1110.812,2051.685 1017.573 C 1970.725 782.781,1822.505 612.770,1601.171 500.825 C 1505.473 452.423,1420.951 425.687,1326.563 413.962 C 1265.193 406.339,1135.953 403.226,1094.000 408.361 M1258.000 608.232 C 1428.712 622.990,1563.708 684.309,1683.348 801.436 C 1784.480 900.444,1852.760 1020.685,1880.855 1149.246 C 1888.859 1185.873,1889.761 1201.139,1889.761 1300.000 C 1889.761 1399.629,1888.901 1413.943,1880.636 1451.827 C 1857.489 1557.931,1796.647 1675.509,1719.067 1764.058 C 1575.498 1927.928,1343.613 2019.783,1134.000 1995.819 C 892.593 1968.219,690.213 1830.277,582.621 1620.000 C 526.059 1509.455,506.662 1428.671,506.744 1304.000 C 506.802 1216.190,515.558 1148.295,533.890 1093.507 C 549.904 1045.646,596.817 950.284,624.609 909.097 C 693.094 807.607,781.160 731.317,894.000 675.730 C 958.504 643.954,1006.105 627.579,1066.978 616.226 C 1135.377 603.468,1180.874 601.565,1258.000 608.232 M1100.975 1100.885 L 1102.000 1401.769 1292.772 1515.885 C 1536.918 1661.927,1566.923 1678.634,1575.448 1673.276 C 1583.960 1667.926,1614.490 1623.102,1632.921 1588.895 L 1647.413 1562.000 1449.706 1444.490 L 1252.000 1326.980 1252.000 1063.490 L 1252.000 800.000 1175.975 800.000 L 1099.949 800.000 1100.975 1100.885 " fill="#1D1E23" stroke="none" fill-rule="evenodd"/></svg>