<svg viewBox="0 0 2400 2400" fill="none" xmlns="http://www.w3.org/2000/svg"><path d="M617.504 231.413 C 600.154 239.559,528.611 296.098,392.000 409.626 C 289.314 494.961,259.212 524.554,252.811 546.464 C 246.210 569.054,246.780 597.330,254.195 615.128 C 262.368 634.747,286.092 659.138,306.000 668.389 C 327.007 678.151,365.602 678.457,383.010 669.000 C 410.267 654.193,692.500 423.458,724.829 389.552 C 769.694 342.498,756.531 264.840,698.688 235.331 C 675.156 223.326,638.497 221.557,617.504 231.413 M1714.000 228.665 C 1661.671 248.382,1636.873 298.989,1652.811 353.536 C 1656.125 364.878,1665.768 378.161,1683.811 396.235 C 1710.717 423.188,1896.849 579.422,1974.180 639.962 L 2017.561 673.923 2046.630 675.391 C 2082.273 677.191,2104.208 668.080,2127.251 641.902 C 2159.781 604.945,2160.501 552.718,2128.987 515.901 C 2104.599 487.409,1814.020 247.456,1786.958 233.461 C 1771.273 225.350,1729.999 222.636,1714.000 228.665 M1142.000 402.638 C 1135.400 403.385,1112.900 405.942,1092.000 408.319 C 1038.231 414.436,968.121 429.727,917.429 446.393 C 824.599 476.912,700.866 545.880,624.212 609.829 C 584.022 643.357,511.434 718.801,483.548 756.028 C 369.926 907.708,307.594 1084.048,301.152 1272.036 C 287.633 1666.531,537.190 2024.552,914.233 2151.576 C 1121.242 2221.317,1332.269 2215.181,1537.544 2133.453 C 1701.836 2068.043,1850.548 1945.772,1950.404 1794.000 C 2166.358 1465.770,2146.255 1046.179,1899.715 736.000 C 1868.683 696.958,1794.131 622.999,1756.000 593.430 C 1622.365 489.800,1456.474 421.979,1302.793 408.147 C 1255.916 403.928,1159.715 400.631,1142.000 402.638 M1234.838 603.974 C 1340.788 609.856,1419.843 629.886,1507.340 673.020 C 1794.031 814.349,1947.410 1127.112,1883.881 1440.845 C 1820.660 1753.054,1549.497 1984.398,1230.000 1998.705 C 921.706 2012.510,635.973 1816.050,538.013 1522.921 C 511.033 1442.185,507.325 1419.209,505.137 1319.197 C 503.533 1245.876,504.433 1220.846,509.814 1189.197 C 550.791 948.160,706.105 750.549,928.718 656.208 C 953.773 645.590,987.712 633.164,1004.137 628.595 C 1034.498 620.149,1112.921 605.483,1142.000 602.814 C 1150.800 602.006,1159.800 601.077,1162.000 600.749 C 1164.200 600.421,1196.977 601.872,1234.838 603.974 M1151.165 803.731 C 1134.461 809.110,1116.597 823.318,1108.940 837.315 C 1102.556 848.983,1102.000 870.681,1102.000 1108.000 C 1102.000 1388.595,1101.739 1385.124,1124.527 1407.911 C 1136.926 1420.311,1244.833 1488.589,1382.000 1570.829 C 1541.450 1666.429,1546.969 1668.663,1580.000 1651.003 C 1615.702 1631.914,1631.548 1586.897,1613.612 1555.511 C 1603.591 1537.974,1560.599 1509.678,1390.000 1408.332 L 1254.000 1327.541 1252.000 1090.770 L 1250.000 854.000 1240.507 838.731 C 1222.470 809.718,1181.913 793.829,1151.165 803.731 " fill="#1D1E23" stroke="none" fill-rule="evenodd"/></svg>