<svg viewBox="0 0 2400 2400" fill="none" xmlns="http://www.w3.org/2000/svg"><path d="M629.813 212.873 C 583.864 249.619,247.524 529.880,224.713 550.428 L 207.427 566.000 254.297 623.258 C 280.076 654.749,308.613 688.739,317.713 698.791 L 334.259 717.067 392.130 669.779 C 470.555 605.695,625.710 476.267,716.966 398.805 C 769.060 354.586,791.024 333.546,788.954 329.846 C 784.522 321.927,682.079 199.107,673.240 191.116 C 665.937 184.512,664.165 185.400,629.813 212.873 M1687.108 237.000 C 1639.425 293.501,1614.501 324.033,1610.667 330.639 C 1609.021 333.475,1637.029 359.899,1682.741 398.639 C 1824.132 518.462,2061.799 716.000,2064.572 716.000 C 2068.424 716.000,2181.062 583.613,2189.326 569.373 C 2192.078 564.630,2148.478 526.580,1971.836 379.570 C 1799.310 235.986,1739.757 188.000,1734.087 188.000 C 1730.993 188.000,1709.852 210.050,1687.108 237.000 M1122.000 404.379 C 999.625 416.750,901.255 445.169,794.941 498.864 C 700.055 546.788,630.996 597.514,555.697 674.599 C 237.693 1000.142,214.350 1510.431,501.198 1866.000 C 560.403 1939.388,661.660 2026.820,742.653 2074.487 C 820.930 2120.556,935.582 2164.665,1022.000 2181.959 C 1310.781 2239.750,1607.742 2153.389,1819.611 1950.000 C 2150.540 1632.316,2193.194 1129.240,1920.336 762.000 C 1884.492 713.757,1810.559 637.201,1764.000 600.117 C 1631.279 494.403,1457.502 422.072,1302.793 408.147 C 1240.209 402.514,1157.500 400.790,1122.000 404.379 M1235.135 603.990 C 1363.668 611.125,1468.381 643.759,1572.409 709.102 C 1747.160 818.869,1869.106 1009.001,1892.160 1207.639 C 1899.146 1267.832,1895.067 1395.222,1884.655 1442.000 C 1843.564 1626.617,1741.965 1776.784,1588.000 1880.467 C 1464.978 1963.312,1319.690 2004.834,1174.000 1998.784 C 872.697 1986.271,617.732 1788.123,530.296 1498.523 C 509.248 1428.808,503.998 1389.218,504.013 1300.295 C 504.021 1247.713,506.065 1210.177,510.234 1186.000 C 551.039 949.401,709.255 748.870,928.015 656.481 C 953.622 645.667,987.945 633.099,1004.287 628.553 C 1034.524 620.142,1112.980 605.478,1142.000 602.814 C 1150.800 602.006,1159.800 601.077,1162.000 600.749 C 1164.200 600.421,1197.111 601.880,1235.135 603.990 M1100.975 1100.796 L 1102.000 1401.591 1284.000 1510.930 C 1480.553 1629.012,1557.313 1673.705,1570.210 1677.575 C 1577.312 1679.705,1583.176 1672.174,1613.649 1621.791 C 1633.024 1589.755,1648.230 1562.919,1647.439 1562.154 C 1645.805 1560.577,1420.313 1426.020,1319.000 1366.167 L 1252.000 1326.585 1252.000 1063.293 L 1252.000 800.000 1175.975 800.000 L 1099.949 800.000 1100.975 1100.796 " fill="#1D1E23" stroke="none" fill-rule="evenodd"/></svg>