<svg viewBox="0 0 2400 2400" fill="none" xmlns="http://www.w3.org/2000/svg"><path d="M614.000 235.674 C 584.318 250.854,410.854 391.470,313.511 479.261 C 252.428 534.350,239.697 560.849,252.844 605.536 C 259.386 627.774,296.226 664.614,318.464 671.156 C 355.205 681.965,372.562 675.470,437.117 626.760 C 531.828 555.293,679.544 432.549,718.612 392.852 C 744.253 366.798,749.562 351.944,747.076 313.207 C 745.501 288.662,743.159 280.678,733.585 267.205 C 709.703 233.595,649.237 217.652,614.000 235.674 M1708.652 232.311 C 1678.658 241.519,1648.000 287.829,1648.000 323.927 C 1648.000 346.142,1665.709 376.941,1693.333 402.768 C 1755.330 460.733,1952.878 625.837,2000.989 659.897 C 2061.925 703.037,2149.394 654.910,2149.834 578.000 C 2150.067 537.161,2135.755 519.955,2017.767 419.229 C 1951.651 362.786,1813.708 253.338,1794.494 242.078 C 1774.150 230.156,1731.485 225.301,1708.652 232.311 M1080.000 412.255 C 900.570 431.337,701.929 530.219,562.074 670.074 C 420.754 811.393,333.660 992.018,307.515 1198.000 C 300.332 1254.598,301.343 1376.249,309.424 1427.605 C 366.704 1791.633,631.253 2081.935,987.721 2171.930 C 1067.882 2192.167,1113.761 2197.761,1200.000 2197.810 C 1283.593 2197.859,1328.346 2192.581,1408.000 2173.282 C 1712.443 2099.521,1955.405 1874.275,2054.128 1574.267 C 2102.358 1427.699,2111.448 1283.795,2082.013 1132.831 C 2025.496 842.978,1831.956 600.826,1559.714 479.347 C 1470.331 439.462,1394.072 419.548,1302.419 412.159 C 1243.873 407.438,1124.805 407.490,1080.000 412.255 M1311.757 613.907 C 1473.667 637.595,1625.937 725.479,1737.792 859.798 C 1811.947 948.847,1864.089 1060.666,1884.435 1174.277 C 1896.505 1241.677,1896.665 1358.324,1884.779 1424.086 C 1841.331 1664.454,1670.962 1868.337,1442.000 1953.966 C 1333.412 1994.577,1225.222 2007.972,1118.646 1994.001 C 848.116 1958.537,622.529 1772.568,536.391 1514.000 C 527.596 1487.600,518.524 1454.300,516.231 1440.000 C 513.937 1425.700,512.047 1357.182,512.030 1287.738 L 512.000 1161.475 525.585 1119.738 C 584.577 938.490,672.711 815.584,809.831 723.342 C 894.307 666.515,970.055 636.430,1096.000 609.683 C 1128.864 602.703,1251.605 605.106,1311.757 613.907 M1151.036 805.561 C 1128.719 813.721,1116.945 822.603,1109.313 837.038 C 1103.103 848.781,1102.298 873.954,1100.752 1104.751 L 1099.045 1359.502 1107.858 1377.706 C 1123.212 1409.424,1155.943 1433.655,1312.000 1528.831 C 1431.913 1601.964,1511.145 1646.487,1535.095 1654.194 C 1555.976 1660.914,1556.382 1660.884,1575.058 1651.273 C 1612.329 1632.093,1630.562 1586.103,1612.374 1557.152 C 1602.097 1540.793,1520.614 1487.008,1371.279 1398.011 L 1257.196 1330.022 1254.609 1256.011 C 1253.187 1215.305,1251.939 1114.500,1251.837 1032.000 C 1251.735 949.500,1250.136 874.155,1248.284 864.567 C 1244.018 842.484,1233.879 828.843,1211.615 815.229 C 1189.399 801.645,1170.150 798.573,1151.036 805.561 " fill="#1D1E23" stroke="none" fill-rule="evenodd"/></svg>