<svg viewBox="0 0 2400 2400" fill="none" xmlns="http://www.w3.org/2000/svg"><path d="M1878.689 105.731 C 1834.750 117.541,1802.932 156.670,1802.478 199.452 C 1802.065 238.398,1832.577 282.153,1866.891 291.820 C 1875.201 294.161,1909.000 297.825,1942.000 299.961 C 2043.044 306.503,2053.608 309.723,2076.160 340.855 C 2090.407 360.524,2094.586 381.544,2100.180 461.700 C 2105.176 533.302,2110.002 549.905,2131.231 568.545 C 2177.358 609.045,2225.706 608.581,2268.315 567.230 C 2293.015 543.260,2296.710 530.601,2299.025 462.000 C 2301.418 391.094,2296.082 344.116,2280.700 300.647 C 2250.862 216.328,2163.617 134.697,2081.453 114.222 C 2068.554 111.008,2024.832 106.493,1984.294 104.189 C 1897.436 99.252,1903.097 99.170,1878.689 105.731 M350.000 106.627 C 306.310 113.017,249.453 139.362,209.463 171.744 C 164.755 207.948,122.256 275.306,110.398 328.755 C 102.422 364.707,99.114 429.095,102.378 484.888 C 104.996 529.648,106.017 534.107,117.592 551.308 C 124.416 561.449,137.805 575.204,147.345 581.873 C 163.473 593.150,167.165 594.000,200.000 594.000 C 232.846 594.000,236.514 593.154,252.544 581.888 C 262.022 575.227,274.844 562.567,281.036 553.756 C 292.997 536.738,294.168 529.591,303.754 415.110 C 307.744 367.461,312.936 350.803,329.468 332.611 C 345.834 314.600,365.776 307.884,415.164 303.749 C 529.574 294.170,536.739 292.996,553.756 281.036 C 562.567 274.844,575.227 262.022,581.888 252.544 C 593.154 236.514,594.000 232.846,594.000 200.000 C 594.000 167.154,593.154 163.486,581.888 147.456 C 575.227 137.978,562.026 124.773,552.553 118.112 L 535.330 106.000 448.665 105.436 C 400.999 105.125,356.600 105.661,350.000 106.627 M1142.000 437.126 C 1109.563 449.506,1056.984 477.991,880.000 579.067 C 628.229 722.853,589.215 746.866,559.658 776.235 C 542.799 792.986,528.622 811.879,520.439 828.502 C 508.684 852.381,507.315 859.311,503.897 912.267 C 499.429 981.496,499.271 1378.116,503.673 1474.000 C 509.414 1599.038,519.824 1611.252,722.000 1730.157 C 823.178 1789.663,1030.115 1908.046,1080.000 1934.959 C 1128.560 1961.157,1182.342 1977.452,1210.086 1974.374 C 1258.687 1968.981,1280.228 1958.549,1490.000 1838.821 C 1759.201 1685.174,1823.242 1645.081,1855.040 1610.289 C 1887.579 1574.686,1892.302 1557.459,1896.793 1458.000 C 1901.851 1345.994,1898.510 902.539,1892.348 868.000 C 1880.488 801.513,1855.576 777.109,1711.741 691.075 C 1601.271 624.998,1346.875 481.282,1296.572 456.534 C 1243.190 430.271,1243.110 430.247,1204.572 429.107 C 1172.215 428.150,1162.133 429.442,1142.000 437.126 M1284.743 675.503 C 1391.570 735.023,1476.239 784.501,1537.608 823.268 L 1585.215 853.342 1575.996 860.807 C 1564.963 869.742,1439.935 944.976,1302.054 1025.651 C 1242.682 1060.389,1199.650 1083.192,1196.054 1081.819 C 1177.487 1074.732,830.675 868.128,820.427 858.049 C 815.685 853.386,819.862 849.308,848.427 830.719 C 875.073 813.378,1195.324 628.000,1198.635 628.000 C 1199.103 628.000,1237.851 649.376,1284.743 675.503 M903.126 1143.000 L 1101.048 1258.000 1098.139 1480.000 C 1096.539 1602.100,1094.355 1703.418,1093.285 1705.152 C 1090.700 1709.341,1053.165 1689.100,864.220 1581.627 L 705.260 1491.210 702.639 1392.605 C 699.257 1265.400,699.233 1028.000,702.602 1028.000 C 704.033 1028.000,794.269 1079.750,903.126 1143.000 M1697.371 1077.000 C 1700.693 1134.650,1700.689 1253.894,1697.361 1386.573 L 1694.737 1491.146 1536.369 1581.360 C 1449.266 1630.977,1362.490 1679.789,1343.533 1689.831 L 1309.065 1708.088 1306.565 1691.044 C 1305.190 1681.670,1302.882 1580.400,1301.437 1466.000 L 1298.809 1258.000 1492.405 1145.052 C 1598.882 1082.931,1687.975 1032.081,1690.389 1032.052 C 1693.165 1032.019,1695.730 1048.531,1697.371 1077.000 M160.088 1810.778 C 136.881 1822.629,113.316 1848.218,107.391 1868.000 C 99.285 1895.065,100.590 2037.863,109.246 2070.869 C 117.270 2101.469,139.195 2145.909,162.419 2178.650 C 191.948 2220.278,244.472 2259.818,297.428 2280.284 C 323.868 2290.502,337.837 2293.052,385.428 2296.349 C 451.207 2300.906,514.887 2298.074,538.746 2289.529 C 557.341 2282.870,581.747 2258.370,590.389 2237.687 C 597.516 2220.629,597.635 2179.645,590.606 2162.872 C 587.640 2155.792,580.213 2144.071,574.103 2136.825 C 555.734 2115.039,537.065 2108.122,484.836 2103.749 C 373.382 2094.418,363.743 2092.893,347.266 2081.989 C 327.667 2069.019,309.623 2041.096,306.505 2018.912 C 305.198 2009.611,302.213 1974.100,299.871 1940.000 C 297.529 1905.900,293.745 1872.104,291.462 1864.898 C 285.774 1846.938,270.593 1829.857,249.156 1817.294 C 225.336 1803.335,181.012 1800.092,160.088 1810.778 M2161.484 1809.760 C 2141.236 1818.572,2113.368 1848.086,2108.382 1866.000 C 2105.933 1874.800,2102.100 1909.900,2099.865 1944.000 C 2095.000 2018.229,2091.310 2035.747,2075.789 2058.307 C 2052.082 2092.764,2055.164 2091.892,1915.164 2103.715 C 1862.942 2108.125,1844.250 2115.058,1825.897 2136.825 C 1809.762 2155.960,1804.000 2172.585,1804.000 2200.000 C 1804.000 2229.165,1810.370 2245.745,1829.866 2267.325 C 1854.489 2294.580,1869.143 2297.892,1964.000 2297.647 C 2059.676 2297.400,2077.243 2294.027,2133.406 2265.126 C 2162.603 2250.102,2177.358 2238.989,2206.401 2210.148 C 2264.680 2152.274,2290.486 2099.654,2296.646 2026.133 C 2301.445 1968.853,2297.196 1874.481,2289.023 1856.827 C 2281.900 1841.441,2255.614 1818.773,2234.820 1810.085 C 2216.905 1802.600,2178.330 1802.429,2161.484 1809.760 " fill="#1D1E23" stroke="none" fill-rule="evenodd"/></svg>