<svg viewBox="0 0 2400 2400" fill="none" xmlns="http://www.w3.org/2000/svg"><path d="M362.000 102.503 C 320.325 110.710,307.122 114.314,286.178 123.198 C 212.289 154.541,152.080 214.340,123.365 284.902 C 105.028 329.962,100.000 364.007,100.000 443.119 C 100.000 527.197,104.007 544.217,129.895 570.105 C 169.021 609.232,230.979 609.232,270.105 570.105 C 295.475 544.735,300.000 526.557,300.000 450.000 C 300.000 373.443,304.525 355.265,329.895 329.895 C 355.265 304.525,373.443 300.000,450.000 300.000 C 526.557 300.000,544.735 295.475,570.105 270.105 C 609.232 230.979,609.232 169.021,570.105 129.895 C 543.963 103.752,527.311 99.918,442.287 100.464 C 402.529 100.719,366.400 101.637,362.000 102.503 M1864.342 106.646 C 1828.846 119.631,1800.000 161.484,1800.000 200.000 C 1800.000 224.160,1811.933 252.144,1829.895 270.105 C 1855.265 295.475,1873.443 300.000,1950.000 300.000 C 2026.838 300.000,2044.695 304.485,2070.465 330.255 C 2095.101 354.890,2100.000 375.088,2100.000 452.013 C 2100.000 526.374,2104.690 544.901,2129.895 570.105 C 2147.856 588.067,2175.840 600.000,2200.000 600.000 C 2239.639 600.000,2280.804 570.911,2293.375 534.017 C 2302.439 507.417,2302.739 384.921,2293.845 341.865 C 2270.410 228.406,2189.778 142.981,2074.000 108.950 C 2060.011 104.838,2028.152 102.637,1968.000 101.628 C 1896.229 100.424,1879.078 101.255,1864.342 106.646 M1169.204 428.549 C 1155.566 430.507,1136.161 435.645,1126.081 439.965 C 1116.001 444.286,990.389 514.911,846.943 596.911 C 611.947 731.243,583.523 748.573,559.774 772.000 C 544.229 787.334,529.073 807.025,522.830 820.000 C 499.647 868.178,500.000 862.301,500.000 1200.000 C 500.000 1537.734,499.647 1531.863,522.846 1580.000 C 546.083 1628.215,557.988 1636.414,841.823 1799.698 C 984.725 1881.906,1111.196 1953.391,1122.868 1958.554 C 1170.897 1979.794,1229.103 1979.794,1277.132 1958.554 C 1288.804 1953.391,1415.275 1881.906,1558.177 1799.698 C 1842.012 1636.414,1853.917 1628.215,1877.154 1580.000 C 1900.353 1531.863,1900.000 1537.734,1900.000 1200.000 C 1900.000 862.266,1900.353 868.137,1877.154 820.000 C 1854.044 772.049,1842.180 763.901,1555.411 599.034 C 1410.988 516.003,1284.648 444.564,1274.656 440.281 C 1260.575 434.246,1198.358 421.959,1194.711 424.494 C 1194.320 424.765,1182.842 426.590,1169.204 428.549 M1398.188 739.000 C 1504.592 800.050,1591.202 851.580,1590.655 853.510 C 1590.108 855.441,1501.986 908.167,1394.830 970.680 L 1200.000 1084.341 1005.170 970.680 C 898.014 908.167,809.885 855.441,809.329 853.510 C 808.187 849.547,1191.038 628.310,1199.363 628.121 C 1202.312 628.055,1291.784 677.950,1398.188 739.000 M943.000 1165.817 L 1100.000 1257.260 1100.000 1486.866 C 1100.000 1613.149,1098.650 1715.754,1097.000 1714.876 C 1095.350 1713.998,1005.350 1662.414,897.000 1600.245 L 700.000 1487.211 700.000 1255.740 L 700.000 1024.270 743.000 1049.322 C 766.650 1063.100,856.650 1115.523,943.000 1165.817 M1700.000 1255.606 L 1700.000 1487.211 1503.000 1600.245 C 1394.650 1662.414,1304.650 1713.998,1303.000 1714.876 C 1301.350 1715.754,1300.000 1613.140,1300.000 1486.846 L 1300.000 1257.219 1499.000 1140.888 C 1608.450 1076.905,1698.450 1024.431,1699.000 1024.278 C 1699.550 1024.125,1700.000 1128.223,1700.000 1255.606 M164.342 1806.868 C 140.729 1815.209,114.918 1841.645,106.625 1865.983 C 97.561 1892.583,97.261 2015.079,106.155 2058.135 C 131.010 2178.468,221.532 2268.990,341.865 2293.845 C 362.189 2298.043,394.380 2300.000,443.119 2300.000 C 527.197 2300.000,544.217 2295.993,570.105 2270.105 C 609.232 2230.979,609.232 2169.021,570.105 2129.895 C 544.735 2104.525,526.557 2100.000,450.000 2100.000 C 373.443 2100.000,355.265 2095.475,329.895 2070.105 C 304.525 2044.735,300.000 2026.557,300.000 1950.000 C 300.000 1873.443,295.475 1855.265,270.105 1829.895 C 242.352 1802.141,202.370 1793.437,164.342 1806.868 M2164.342 1806.868 C 2140.729 1815.209,2114.918 1841.645,2106.625 1865.983 C 2101.570 1880.819,2100.000 1900.247,2100.000 1947.987 C 2100.000 2024.912,2095.101 2045.110,2070.465 2069.745 C 2044.695 2095.515,2026.838 2100.000,1950.000 2100.000 C 1873.443 2100.000,1855.265 2104.525,1829.895 2129.895 C 1790.768 2169.021,1790.768 2230.979,1829.895 2270.105 C 1855.783 2295.993,1872.803 2300.000,1956.881 2300.000 C 2005.620 2300.000,2037.811 2298.043,2058.135 2293.845 C 2178.468 2268.990,2268.990 2178.468,2293.845 2058.135 C 2302.739 2015.079,2302.439 1892.583,2293.375 1865.983 C 2276.062 1815.170,2217.194 1788.201,2164.342 1806.868 " fill="#1D1E23" stroke="none" fill-rule="evenodd"/></svg>