<svg viewBox="0 0 2400 2400" fill="none" xmlns="http://www.w3.org/2000/svg"><path d="M100.000 350.000 L 100.000 600.000 200.000 600.000 L 300.000 600.000 300.000 450.000 L 300.000 300.000 450.000 300.000 L 600.000 300.000 600.000 200.000 L 600.000 100.000 350.000 100.000 L 100.000 100.000 100.000 350.000 M1800.000 200.000 L 1800.000 300.000 1950.000 300.000 L 2100.000 300.000 2100.000 450.000 L 2100.000 600.000 2200.000 600.000 L 2300.000 600.000 2300.000 350.000 L 2300.000 100.000 2050.000 100.000 L 1800.000 100.000 1800.000 200.000 M1095.803 455.023 C 1042.011 485.285,885.941 574.684,748.981 653.687 L 499.962 797.329 500.981 1200.932 L 502.000 1604.535 672.000 1702.519 C 765.500 1756.410,922.550 1846.531,1021.000 1902.789 L 1200.000 2005.075 1379.000 1902.789 C 1477.450 1846.531,1634.500 1756.410,1728.000 1702.519 L 1898.000 1604.535 1899.019 1200.929 L 1900.038 797.323 1647.019 651.702 C 1305.146 454.943,1207.568 400.000,1200.001 400.000 C 1196.484 400.000,1149.595 424.760,1095.803 455.023 M1245.281 652.702 C 1402.407 739.497,1585.619 847.975,1585.260 854.000 C 1584.968 858.897,1556.854 876.012,1357.053 992.928 L 1200.105 1084.766 1109.053 1031.709 C 937.590 931.797,821.999 863.122,816.447 857.866 C 811.776 853.443,814.318 850.423,832.447 838.856 C 877.296 810.238,1194.187 628.000,1199.100 628.000 C 1199.905 628.000,1220.686 639.116,1245.281 652.702 M929.211 1158.033 L 1100.423 1257.733 1099.211 1482.537 C 1098.545 1606.178,1096.807 1708.531,1095.349 1709.987 C 1093.891 1711.444,1004.791 1662.223,897.349 1600.608 L 702.000 1488.581 700.968 1256.340 L 699.936 1024.098 728.968 1041.215 C 744.936 1050.630,835.045 1103.198,929.211 1158.033 M1699.032 1258.249 L 1698.000 1488.498 1502.651 1600.567 C 1395.209 1662.205,1306.109 1711.444,1304.651 1709.988 C 1303.193 1708.531,1301.467 1606.140,1300.816 1482.452 L 1299.632 1257.565 1494.816 1143.092 C 1602.167 1080.131,1692.265 1028.479,1695.032 1028.309 C 1699.032 1028.063,1699.853 1075.247,1699.032 1258.249 M100.000 2050.000 L 100.000 2300.000 350.000 2300.000 L 600.000 2300.000 600.000 2200.000 L 600.000 2100.000 450.000 2100.000 L 300.000 2100.000 300.000 1950.000 L 300.000 1800.000 200.000 1800.000 L 100.000 1800.000 100.000 2050.000 M2100.000 1950.000 L 2100.000 2100.000 1950.000 2100.000 L 1800.000 2100.000 1800.000 2200.000 L 1800.000 2300.000 2050.000 2300.000 L 2300.000 2300.000 2300.000 2050.000 L 2300.000 1800.000 2200.000 1800.000 L 2100.000 1800.000 2100.000 1950.000 " fill="#1D1E23" stroke="none" fill-rule="evenodd"/></svg>