<svg viewBox="0 0 2400 2400" fill="none" xmlns="http://www.w3.org/2000/svg"><path d="M100.000 350.000 L 100.000 600.000 200.000 600.000 L 300.000 600.000 300.000 450.000 L 300.000 300.000 450.000 300.000 L 600.000 300.000 600.000 200.000 L 600.000 100.000 350.000 100.000 L 100.000 100.000 100.000 350.000 M1800.000 200.000 L 1800.000 300.000 1950.000 300.000 L 2100.000 300.000 2100.000 450.000 L 2100.000 600.000 2200.000 600.000 L 2300.000 600.000 2300.000 350.000 L 2300.000 100.000 2050.000 100.000 L 1800.000 100.000 1800.000 200.000 M1129.998 437.279 C 1069.801 470.282,786.214 632.293,574.981 754.355 L 499.962 797.706 500.981 1201.291 L 502.000 1604.877 540.000 1626.938 C 645.364 1688.105,1184.830 1996.550,1192.798 2000.180 C 1200.947 2003.893,1237.007 1984.305,1508.000 1828.955 C 1676.300 1732.475,1832.900 1642.590,1856.000 1629.209 L 1898.000 1604.882 1899.019 1201.295 L 1900.038 797.707 1877.019 784.341 C 1675.181 667.139,1204.426 400.000,1199.729 400.000 C 1198.776 400.000,1167.397 416.776,1129.998 437.279 M1284.743 675.503 C 1391.570 735.023,1476.239 784.501,1537.608 823.268 L 1585.215 853.342 1575.996 860.807 C 1564.963 869.742,1439.935 944.976,1302.054 1025.651 C 1242.682 1060.389,1199.650 1083.192,1196.054 1081.819 C 1177.487 1074.732,830.675 868.128,820.427 858.049 C 815.685 853.386,819.862 849.308,848.427 830.719 C 875.073 813.378,1195.324 628.000,1198.635 628.000 C 1199.103 628.000,1237.851 649.376,1284.743 675.503 M903.126 1143.000 L 1101.048 1258.000 1098.139 1480.000 C 1096.539 1602.100,1094.355 1703.418,1093.285 1705.152 C 1090.700 1709.341,1053.165 1689.100,864.220 1581.627 L 705.260 1491.210 702.639 1392.605 C 699.257 1265.400,699.233 1028.000,702.602 1028.000 C 704.033 1028.000,794.269 1079.750,903.126 1143.000 M1697.371 1077.000 C 1700.693 1134.650,1700.689 1253.894,1697.361 1386.573 L 1694.737 1491.146 1536.369 1581.360 C 1449.266 1630.977,1362.490 1679.789,1343.533 1689.831 L 1309.065 1708.088 1306.565 1691.044 C 1305.190 1681.670,1302.882 1580.400,1301.437 1466.000 L 1298.809 1258.000 1492.405 1145.052 C 1598.882 1082.931,1687.975 1032.081,1690.389 1032.052 C 1693.165 1032.019,1695.730 1048.531,1697.371 1077.000 M100.000 2050.000 L 100.000 2300.000 350.000 2300.000 L 600.000 2300.000 600.000 2200.000 L 600.000 2100.000 450.000 2100.000 L 300.000 2100.000 300.000 1950.000 L 300.000 1800.000 200.000 1800.000 L 100.000 1800.000 100.000 2050.000 M2100.000 1950.000 L 2100.000 2100.000 1950.000 2100.000 L 1800.000 2100.000 1800.000 2200.000 L 1800.000 2300.000 2050.000 2300.000 L 2300.000 2300.000 2300.000 2050.000 L 2300.000 1800.000 2200.000 1800.000 L 2100.000 1800.000 2100.000 1950.000 " fill="#1D1E23" stroke="none" fill-rule="evenodd"/></svg>