<svg viewBox="0 0 2400 2400" fill="none" xmlns="http://www.w3.org/2000/svg"><path d="M100.000 350.000 L 100.000 600.000 200.000 600.000 L 300.000 600.000 300.000 450.000 L 300.000 300.000 450.000 300.000 L 600.000 300.000 600.000 200.000 L 600.000 100.000 350.000 100.000 L 100.000 100.000 100.000 350.000 M1800.000 200.000 L 1800.000 300.000 1950.000 300.000 L 2100.000 300.000 2100.000 450.000 L 2100.000 600.000 2200.000 600.000 L 2300.000 600.000 2300.000 350.000 L 2300.000 100.000 2050.000 100.000 L 1800.000 100.000 1800.000 200.000 M847.000 596.909 L 500.000 797.253 500.000 1200.228 L 500.000 1603.202 848.024 1803.601 C 1039.437 1913.821,1197.826 2004.000,1200.000 2004.000 C 1202.174 2004.000,1360.563 1913.821,1551.976 1803.601 L 1900.000 1603.202 1900.000 1200.218 L 1900.000 797.233 1553.393 597.616 C 1362.760 487.827,1203.910 397.677,1200.393 397.282 C 1196.877 396.888,1037.850 486.720,847.000 596.909 M1398.188 739.000 C 1504.592 800.050,1591.202 851.580,1590.655 853.510 C 1590.108 855.441,1501.986 908.167,1394.830 970.680 L 1200.000 1084.341 1005.170 970.680 C 898.014 908.167,809.885 855.441,809.329 853.510 C 808.187 849.547,1191.038 628.310,1199.363 628.121 C 1202.312 628.055,1291.784 677.950,1398.188 739.000 M943.000 1165.817 L 1100.000 1257.260 1100.000 1486.866 C 1100.000 1613.149,1098.650 1715.754,1097.000 1714.876 C 1095.350 1713.998,1005.350 1662.414,897.000 1600.245 L 700.000 1487.211 700.000 1255.740 L 700.000 1024.270 743.000 1049.322 C 766.650 1063.100,856.650 1115.523,943.000 1165.817 M1700.000 1255.606 L 1700.000 1487.211 1503.000 1600.245 C 1394.650 1662.414,1304.650 1713.998,1303.000 1714.876 C 1301.350 1715.754,1300.000 1613.140,1300.000 1486.846 L 1300.000 1257.219 1499.000 1140.888 C 1608.450 1076.905,1698.450 1024.431,1699.000 1024.278 C 1699.550 1024.125,1700.000 1128.223,1700.000 1255.606 M100.000 2050.000 L 100.000 2300.000 350.000 2300.000 L 600.000 2300.000 600.000 2200.000 L 600.000 2100.000 450.000 2100.000 L 300.000 2100.000 300.000 1950.000 L 300.000 1800.000 200.000 1800.000 L 100.000 1800.000 100.000 2050.000 M2100.000 1950.000 L 2100.000 2100.000 1950.000 2100.000 L 1800.000 2100.000 1800.000 2200.000 L 1800.000 2300.000 2050.000 2300.000 L 2300.000 2300.000 2300.000 2050.000 L 2300.000 1800.000 2200.000 1800.000 L 2100.000 1800.000 2100.000 1950.000 " fill="#1D1E23" stroke="none" fill-rule="evenodd"/></svg>