<svg viewBox="0 0 2400 2400" fill="none" xmlns="http://www.w3.org/2000/svg"><path d="M746.000 307.845 L 638.000 310.000 612.107 324.000 C 575.226 343.941,538.724 379.400,524.180 409.416 C 501.125 456.994,502.000 422.218,502.000 1290.666 C 502.000 1731.033,503.117 2092.450,504.483 2093.816 C 507.401 2096.734,589.870 2062.298,941.000 1911.540 L 1200.000 1800.338 1459.000 1911.540 C 1810.115 2062.291,1892.599 2096.734,1895.517 2093.817 C 1899.642 2089.693,1900.471 781.850,1896.456 612.000 C 1893.488 486.439,1891.407 449.767,1886.320 433.385 C 1872.998 390.484,1827.724 344.184,1771.114 315.568 L 1748.228 304.000 1301.114 304.845 C 1055.201 305.310,805.400 306.660,746.000 307.845 M1648.000 514.720 C 1668.320 527.376,1683.567 544.635,1688.268 560.301 C 1696.790 588.707,1700.197 904.942,1696.743 1347.018 C 1694.847 1589.578,1692.296 1789.037,1691.073 1790.260 C 1688.427 1792.907,1650.332 1777.349,1436.000 1686.086 C 1259.726 1611.028,1203.482 1588.000,1196.437 1588.000 C 1192.188 1588.000,1036.686 1653.987,824.000 1746.043 C 774.500 1767.468,727.524 1787.296,719.609 1790.106 L 705.218 1795.215 702.527 1370.608 C 700.013 974.179,703.693 597.933,710.414 564.000 C 717.152 529.986,742.113 512.226,789.402 507.800 C 807.331 506.122,1004.700 505.030,1228.000 505.374 L 1634.000 506.000 1648.000 514.720 " fill="#1D1E23" stroke="none" fill-rule="evenodd"/></svg>