<svg viewBox="0 0 2400 2400" fill="none" xmlns="http://www.w3.org/2000/svg"><path d="M500.000 1199.901 L 500.000 2099.802 509.000 2096.284 C 513.950 2094.349,671.450 2026.959,859.000 1946.528 L 1200.000 1800.290 1541.000 1946.528 C 1728.550 2026.959,1886.050 2094.349,1891.000 2096.284 L 1900.000 2099.802 1900.000 1199.901 L 1900.000 300.000 1200.000 300.000 L 500.000 300.000 500.000 1199.901 M1700.000 1150.054 L 1700.000 1800.107 1685.796 1794.173 C 1677.984 1790.908,1565.426 1742.151,1435.667 1685.822 L 1199.742 1583.406 964.871 1685.504 C 835.692 1741.659,723.250 1790.417,715.000 1793.855 L 700.000 1800.107 700.000 1150.054 L 700.000 500.000 1200.000 500.000 L 1700.000 500.000 1700.000 1150.054 " fill="#1D1E23" stroke="none" fill-rule="evenodd"/></svg>