<svg viewBox="0 0 2400 2400" fill="none" xmlns="http://www.w3.org/2000/svg"><path d="M774.000 303.783 L 646.000 306.000 614.898 321.199 C 550.990 352.431,510.089 409.841,503.625 477.385 C 501.908 495.323,500.390 867.060,500.252 1303.466 L 500.000 2096.933 509.000 2094.996 C 513.950 2093.931,671.450 2027.187,859.000 1946.675 L 1200.000 1800.290 1541.000 1946.675 C 1728.550 2027.187,1886.050 2093.931,1891.000 2094.996 L 1900.000 2096.933 1899.929 1305.466 C 1899.887 843.403,1898.302 499.212,1896.120 478.467 C 1888.648 407.435,1849.813 353.265,1783.159 320.899 L 1750.000 304.797 1326.000 303.182 C 1092.800 302.293,844.400 302.563,774.000 303.783 " fill="#1D1E23" stroke="none" fill-rule="evenodd"/></svg>