<svg viewBox="0 0 2400 2400" fill="none" xmlns="http://www.w3.org/2000/svg"><path d="M500.000 1199.901 L 500.000 2099.802 509.000 2096.284 C 513.950 2094.349,671.450 2026.959,859.000 1946.528 L 1200.000 1800.290 1541.000 1946.528 C 1728.550 2026.959,1886.050 2094.349,1891.000 2096.284 L 1900.000 2099.802 1900.000 1199.901 L 1900.000 300.000 1200.000 300.000 L 500.000 300.000 500.000 1199.901 M1700.000 1149.901 L 1700.000 1799.802 1691.000 1796.318 C 1686.050 1794.402,1590.845 1753.168,1479.434 1704.688 C 1368.023 1656.208,1259.424 1609.119,1238.104 1600.044 L 1199.340 1583.546 1146.670 1606.348 C 1117.702 1618.889,1009.400 1665.984,906.000 1711.003 C 802.600 1756.023,713.950 1794.419,709.000 1796.329 L 700.000 1799.802 700.000 1149.901 L 700.000 500.000 1200.000 500.000 L 1700.000 500.000 1700.000 1149.901 " fill="#1D1E23" stroke="none" fill-rule="evenodd"/></svg>