<svg viewBox="0 0 2400 2400" fill="none" xmlns="http://www.w3.org/2000/svg"><path d="M774.000 303.783 L 646.000 306.000 614.898 321.199 C 550.990 352.431,510.089 409.841,503.625 477.385 C 501.908 495.323,500.390 867.060,500.252 1303.466 L 500.000 2096.933 509.000 2094.996 C 513.950 2093.931,671.450 2027.187,859.000 1946.675 L 1200.000 1800.290 1541.000 1946.675 C 1728.550 2027.187,1886.050 2093.931,1891.000 2094.996 L 1900.000 2096.933 1899.929 1305.466 C 1899.887 843.403,1898.302 499.212,1896.120 478.467 C 1888.648 407.435,1849.813 353.265,1783.159 320.899 L 1750.000 304.797 1326.000 303.182 C 1092.800 302.293,844.400 302.563,774.000 303.783 M1640.000 509.593 C 1663.086 522.113,1680.102 536.595,1686.684 549.322 C 1698.798 572.749,1700.949 699.401,1698.672 1255.431 C 1697.461 1551.018,1695.562 1793.772,1694.450 1794.883 C 1693.339 1795.995,1604.652 1758.721,1497.368 1712.053 C 1273.925 1614.856,1208.818 1588.000,1196.629 1588.000 C 1188.881 1588.000,1051.979 1646.242,796.893 1758.060 C 747.885 1779.543,706.799 1796.132,705.591 1794.925 C 701.278 1790.611,699.031 707.763,703.182 633.542 C 707.506 556.224,709.999 546.595,730.643 527.489 C 759.326 500.942,760.033 500.906,1244.000 501.517 C 1611.088 501.981,1626.547 502.296,1640.000 509.593 " fill="#1D1E23" stroke="none" fill-rule="evenodd"/></svg>