<svg viewBox="0 0 2400 2400" fill="none" xmlns="http://www.w3.org/2000/svg"><path d="M746.000 307.845 L 638.000 310.000 612.107 324.000 C 575.226 343.941,538.724 379.400,524.180 409.416 C 501.125 456.994,502.000 422.218,502.000 1290.666 C 502.000 1731.033,503.117 2092.450,504.483 2093.816 C 507.401 2096.734,589.870 2062.298,941.000 1911.540 L 1200.000 1800.338 1459.000 1911.540 C 1810.115 2062.291,1892.599 2096.734,1895.517 2093.817 C 1899.642 2089.693,1900.471 781.850,1896.456 612.000 C 1893.488 486.439,1891.407 449.767,1886.320 433.385 C 1872.998 390.484,1827.724 344.184,1771.114 315.568 L 1748.228 304.000 1301.114 304.845 C 1055.201 305.310,805.400 306.660,746.000 307.845 " fill="#1D1E23" stroke="none" fill-rule="evenodd"/></svg>