<svg viewBox="0 0 2400 2400" fill="none" xmlns="http://www.w3.org/2000/svg"><path d="M655.859 307.623 C 619.926 312.682,568.729 346.045,540.197 382.994 C 515.931 414.420,507.076 443.690,503.590 504.000 C 498.938 584.491,499.174 2096.000,503.839 2096.000 C 509.174 2096.000,638.093 2041.594,941.000 1911.511 L 1200.000 1800.283 1459.000 1911.511 C 1764.701 2042.794,1890.828 2096.000,1896.341 2096.000 C 1899.023 2096.000,1899.898 1825.704,1898.973 1283.000 C 1897.446 387.870,1899.447 456.646,1873.436 405.235 C 1858.343 375.404,1819.178 339.698,1779.876 319.937 L 1748.178 304.000 1211.089 304.534 C 915.690 304.828,665.836 306.218,655.859 307.623 " fill="#1D1E23" stroke="none" fill-rule="evenodd"/></svg>