<svg viewBox="0 0 2400 2400" fill="none" xmlns="http://www.w3.org/2000/svg"><path d="M668.000 302.637 C 647.246 306.025,609.246 321.543,589.052 334.877 C 545.841 363.409,513.625 411.662,504.177 462.000 C 500.907 479.422,499.991 707.096,500.836 1292.712 L 502.000 2099.424 851.000 1949.857 L 1200.000 1800.290 1549.000 1949.857 L 1898.000 2099.424 1899.164 1292.712 C 1900.009 707.096,1899.093 479.422,1895.823 462.000 C 1883.168 394.575,1835.416 339.242,1766.000 311.568 L 1742.000 302.000 1210.000 301.502 C 917.400 301.228,673.500 301.739,668.000 302.637 M1634.017 506.625 C 1645.674 510.597,1660.296 520.085,1670.529 530.319 C 1702.181 561.971,1700.152 514.652,1699.013 1194.708 L 1698.000 1799.279 1450.384 1691.361 C 1284.166 1618.918,1200.012 1584.175,1194.384 1585.672 C 1189.773 1586.898,1077.100 1635.478,944.000 1693.629 L 702.000 1799.356 700.987 1192.749 C 699.848 510.870,697.612 562.177,729.876 529.914 C 760.943 498.846,732.088 500.669,1198.287 500.316 C 1575.798 500.029,1616.386 500.617,1634.017 506.625 " fill="#1D1E23" stroke="none" fill-rule="evenodd"/></svg>