<svg viewBox="0 0 2400 2400" fill="none" xmlns="http://www.w3.org/2000/svg"><path d="M645.062 112.258 C 592.793 119.056,476.000 156.627,476.000 166.643 C 476.000 173.216,512.889 212.646,640.055 342.000 C 826.632 531.787,847.329 555.845,853.829 590.497 C 857.093 607.892,850.778 630.665,837.013 651.137 C 806.107 697.103,662.078 836.471,628.865 852.549 C 607.214 863.031,582.734 860.706,557.205 845.745 C 537.437 834.161,464.968 765.108,287.193 588.462 L 164.387 466.435 156.516 484.796 C 147.104 506.754,128.236 565.040,115.338 612.000 C 106.561 643.957,106.025 652.489,106.424 754.000 L 106.848 862.000 121.595 911.915 C 129.706 939.368,143.543 978.682,152.343 999.279 C 248.290 1223.850,446.695 1370.356,690.000 1396.295 C 762.471 1404.021,836.863 1396.433,933.126 1371.496 L 980.252 1359.288 1336.906 1714.206 C 1815.607 2190.578,1831.303 2204.907,1891.675 2220.667 C 1925.630 2229.531,1990.216 2230.101,2022.160 2221.819 C 2107.582 2199.672,2180.808 2129.340,2210.485 2040.935 C 2219.849 2013.039,2220.616 2005.877,2219.138 1960.162 C 2217.219 1900.807,2209.958 1876.772,2181.022 1834.000 C 2159.423 1802.071,2059.554 1699.573,1642.992 1281.804 L 1355.629 993.609 1371.492 931.804 C 1394.260 843.091,1397.259 816.596,1394.900 724.959 C 1393.138 656.500,1391.473 640.773,1382.384 606.692 C 1360.270 523.780,1327.597 450.036,1283.633 383.811 C 1251.221 334.988,1171.371 254.750,1121.749 221.140 C 1033.581 161.422,926.827 120.603,836.388 112.026 C 787.477 107.388,681.518 107.516,645.062 112.258 " fill="#1D1E23" stroke="none" fill-rule="evenodd"/></svg>