<svg viewBox="0 0 2400 2400" fill="none" xmlns="http://www.w3.org/2000/svg"><path d="M612.000 118.207 C 570.819 127.668,495.436 151.848,476.983 161.517 C 467.981 166.234,474.192 173.077,650.057 352.190 C 806.421 511.442,834.224 541.535,844.760 562.937 C 858.929 591.718,858.885 611.251,844.588 640.786 C 828.599 673.813,667.341 833.970,631.838 852.083 C 613.269 861.556,600.163 861.993,573.360 854.033 C 556.112 848.911,543.976 839.202,487.634 785.451 C 451.535 751.012,364.037 665.145,293.194 594.634 L 164.387 466.433 156.357 485.167 C 143.189 515.888,117.372 599.857,110.034 635.831 C 104.341 663.746,103.493 685.277,104.998 763.699 C 106.667 850.618,107.673 861.273,117.845 899.812 C 185.463 1155.983,377.244 1339.040,628.881 1387.601 C 730.699 1407.249,827.245 1401.584,943.346 1369.146 L 980.692 1358.712 1287.346 1664.527 C 1814.313 2190.054,1820.103 2195.491,1874.471 2215.833 C 1923.095 2234.025,2001.121 2233.178,2049.100 2213.937 C 2127.765 2182.390,2184.758 2121.701,2210.567 2042.000 C 2218.819 2016.515,2220.959 2001.856,2221.077 1970.000 C 2221.349 1896.052,2203.711 1854.453,2144.028 1788.285 C 2123.113 1765.096,1937.153 1576.595,1730.784 1369.393 L 1355.568 992.663 1369.664 939.332 C 1392.261 853.838,1397.505 817.458,1397.530 746.000 C 1397.559 664.287,1388.560 614.147,1359.125 532.000 C 1284.765 324.481,1120.197 176.942,902.000 122.176 C 857.999 111.132,822.682 108.157,738.000 108.359 C 663.940 108.535,649.030 109.701,612.000 118.207 " fill="#1D1E23" stroke="none" fill-rule="evenodd"/></svg>