<svg viewBox="0 0 2400 2400" fill="none" xmlns="http://www.w3.org/2000/svg"><path d="M704.000 104.467 C 652.252 107.533,601.821 116.885,553.410 132.392 C 520.029 143.085,472.792 162.003,468.174 166.530 C 467.169 167.514,563.461 265.446,682.157 384.157 L 897.966 599.994 748.000 750.000 L 598.034 900.006 381.213 683.213 L 164.393 466.420 155.828 486.210 C 140.503 521.620,120.650 585.076,111.469 628.000 C 98.336 689.394,98.196 806.588,111.179 871.022 C 151.597 1071.626,275.043 1236.908,452.551 1328.088 C 603.559 1405.655,777.111 1420.153,945.278 1369.247 L 980.556 1358.568 1471.284 1849.284 L 1962.011 2339.999 2147.005 2155.005 L 2331.999 1970.012 1843.374 1481.374 L 1354.749 992.736 1369.341 943.368 C 1418.528 776.964,1406.917 621.180,1333.977 468.897 C 1218.902 228.644,976.350 88.333,704.000 104.467 " fill="#1D1E23" stroke="none" fill-rule="evenodd"/></svg>