<svg viewBox="0 0 2400 2400" fill="none" xmlns="http://www.w3.org/2000/svg"><path d="M612.000 118.207 C 570.537 127.732,495.402 151.866,476.693 161.669 C 467.315 166.582,472.639 172.330,682.268 383.601 L 897.471 600.489 747.752 750.248 L 598.034 900.006 381.213 683.213 L 164.393 466.420 156.360 485.160 C 143.189 515.887,117.373 599.853,110.034 635.831 C 104.341 663.746,103.493 685.277,104.998 763.699 C 106.667 850.618,107.673 861.273,117.845 899.812 C 185.463 1155.983,377.244 1339.040,628.881 1387.601 C 730.700 1407.250,827.244 1401.584,943.349 1369.145 L 980.698 1358.710 1471.355 1849.355 L 1962.011 2339.999 2147.005 2155.005 L 2331.999 1970.012 1843.690 1481.690 L 1355.381 993.369 1369.571 939.685 C 1392.265 853.824,1397.505 817.527,1397.530 746.000 C 1397.559 664.287,1388.560 614.147,1359.125 532.000 C 1284.765 324.481,1120.197 176.942,902.000 122.176 C 857.999 111.132,822.682 108.157,738.000 108.359 C 663.940 108.535,649.030 109.701,612.000 118.207 " fill="#1D1E23" stroke="none" fill-rule="evenodd"/></svg>