<svg viewBox="0 0 2400 2400" fill="none" xmlns="http://www.w3.org/2000/svg"><path d="M656.000 111.720 C 595.330 118.179,476.000 155.521,476.000 168.047 C 476.000 172.679,522.796 222.007,665.676 367.988 C 783.553 488.422,827.357 536.653,842.807 563.017 C 855.704 585.023,856.304 612.583,844.421 637.130 C 832.738 661.265,770.231 730.149,708.987 786.384 C 631.674 857.373,613.775 866.547,576.649 854.216 C 550.457 845.516,510.125 808.862,317.232 618.457 C 186.848 489.756,163.907 468.711,160.664 474.830 C 153.745 487.889,133.164 549.342,120.754 594.000 C 105.708 648.146,102.124 705.977,107.370 810.000 C 110.864 879.303,111.628 883.873,127.743 932.000 C 215.413 1193.818,412.204 1359.348,677.556 1394.474 C 754.764 1404.695,822.017 1398.721,931.843 1371.885 L 981.685 1359.707 1257.843 1635.184 C 1733.630 2109.801,1815.842 2188.012,1861.714 2209.674 C 1901.000 2228.226,1969.954 2233.550,2019.544 2221.860 C 2098.099 2203.343,2170.686 2137.832,2206.535 2053.100 C 2217.492 2027.201,2217.978 2023.430,2217.505 1968.000 C 2216.722 1876.165,2207.720 1858.365,2109.234 1753.911 C 2074.017 1716.560,1890.123 1530.021,1700.580 1339.380 L 1355.956 992.761 1371.885 929.960 C 1394.122 842.288,1397.498 811.668,1394.808 722.000 C 1392.910 658.697,1390.859 639.651,1382.535 608.000 C 1362.260 530.906,1326.698 449.184,1288.543 392.000 C 1247.631 330.684,1172.130 255.112,1112.000 215.291 C 1045.253 171.088,946.876 130.877,874.000 118.009 C 832.550 110.690,701.246 106.902,656.000 111.720 " fill="#1D1E23" stroke="none" fill-rule="evenodd"/></svg>