<svg viewBox="0 0 2400 2400" fill="none" xmlns="http://www.w3.org/2000/svg"><path d="M664.000 108.228 C 620.244 113.639,555.922 130.442,508.667 148.805 L 467.334 164.867 478.649 177.434 C 484.873 184.345,562.960 263.800,652.176 354.000 C 741.393 444.200,821.013 526.239,829.109 536.308 C 858.343 572.665,863.118 602.493,845.712 640.000 C 837.493 657.709,817.800 679.592,744.751 752.187 C 642.600 853.704,630.062 862.571,593.928 858.841 C 582.168 857.627,565.991 853.524,557.979 849.722 C 549.432 845.666,465.016 765.179,353.741 654.990 L 164.071 467.170 155.953 486.110 C 141.349 520.179,119.976 588.899,111.246 629.854 C 104.107 663.342,102.699 683.268,102.752 750.000 C 102.825 839.972,108.827 879.114,134.251 955.407 C 194.292 1135.573,334.709 1284.813,507.953 1352.588 C 650.550 1408.373,785.934 1413.614,943.242 1369.438 L 980.485 1358.979 1367.242 1744.723 C 1579.959 1956.882,1771.100 2145.288,1792.000 2163.403 C 1833.189 2199.103,1855.752 2211.980,1896.000 2222.757 C 1930.975 2232.121,1993.914 2231.966,2025.776 2222.437 C 2130.194 2191.206,2204.191 2107.501,2219.917 2002.827 C 2228.874 1943.204,2213.768 1875.583,2181.787 1832.140 C 2155.216 1796.045,2106.774 1746.407,1712.691 1351.460 L 1354.936 992.919 1369.425 941.460 C 1405.459 813.484,1408.613 711.288,1380.036 597.664 C 1329.441 396.497,1193.975 235.975,1007.824 156.609 C 963.393 137.666,913.860 122.824,865.047 113.827 C 823.431 106.158,706.968 102.914,664.000 108.228 " fill="#1D1E23" stroke="none" fill-rule="evenodd"/></svg>