<svg viewBox="0 0 2400 2400" fill="none" xmlns="http://www.w3.org/2000/svg"><path d="M645.062 112.258 C 591.474 119.228,476.000 156.634,476.000 167.024 C 476.000 174.624,510.229 210.238,725.863 426.999 L 897.963 599.997 747.998 750.002 L 598.034 900.006 381.213 683.213 L 164.393 466.420 156.519 484.789 C 147.104 506.753,128.237 565.035,115.338 612.000 C 106.561 643.957,106.025 652.489,106.424 754.000 L 106.848 862.000 121.595 911.915 C 129.706 939.368,143.543 978.682,152.343 999.279 C 248.290 1223.850,446.695 1370.356,690.000 1396.295 C 762.580 1404.033,836.845 1396.438,933.532 1371.390 L 981.065 1359.077 1471.538 1849.538 L 1962.011 2339.999 2147.005 2155.005 L 2331.999 1970.012 1843.813 1481.813 L 1355.628 993.615 1371.491 931.808 C 1394.260 843.090,1397.259 816.596,1394.900 724.959 C 1393.138 656.500,1391.473 640.773,1382.384 606.692 C 1360.270 523.780,1327.597 450.036,1283.633 383.811 C 1251.221 334.988,1171.371 254.750,1121.749 221.140 C 1033.581 161.422,926.827 120.603,836.388 112.026 C 787.477 107.388,681.518 107.516,645.062 112.258 " fill="#1D1E23" stroke="none" fill-rule="evenodd"/></svg>