<svg viewBox="0 0 2400 2400" fill="none" xmlns="http://www.w3.org/2000/svg"><path d="M704.000 104.467 C 652.252 107.533,601.821 116.885,553.410 132.392 C 520.101 143.062,472.796 162.001,468.195 166.508 C 467.203 167.480,550.365 252.364,653.001 355.138 C 854.622 557.032,855.781 558.431,855.873 600.000 C 855.961 639.582,846.735 652.259,743.446 754.476 C 639.323 857.519,631.150 863.096,590.417 858.892 C 578.583 857.670,562.848 853.647,555.450 849.950 C 548.053 846.254,457.038 758.448,353.196 654.826 L 164.392 466.423 155.827 486.212 C 140.503 521.620,120.650 585.076,111.469 628.000 C 98.336 689.394,98.196 806.588,111.179 871.022 C 151.597 1071.626,275.043 1236.908,452.551 1328.088 C 603.548 1405.649,777.112 1420.152,945.248 1369.257 L 980.496 1358.587 1393.248 1770.804 C 1840.978 2217.955,1821.415 2200.128,1886.000 2219.837 C 1975.131 2247.038,2070.647 2223.771,2139.362 2158.121 C 2174.820 2124.245,2195.836 2091.242,2210.762 2046.000 C 2225.462 2001.440,2226.248 1939.685,2212.671 1896.000 C 2191.824 1828.922,2211.048 1850.073,1764.894 1403.338 L 1354.767 992.676 1369.350 943.338 C 1418.527 776.966,1406.911 621.169,1333.977 468.897 C 1218.902 228.644,976.350 88.333,704.000 104.467 " fill="#1D1E23" stroke="none" fill-rule="evenodd"/></svg>