<svg viewBox="0 0 2400 2400" fill="none" xmlns="http://www.w3.org/2000/svg"><path d="M1072.000 410.547 C 1033.480 417.432,954.952 439.630,916.187 454.593 C 668.709 550.112,490.986 750.956,423.745 1011.101 C 410.796 1061.198,400.000 1135.063,400.000 1173.563 L 400.000 1198.716 257.491 1201.201 C 179.111 1202.567,113.937 1204.730,112.660 1206.007 C 111.383 1207.283,198.467 1296.457,306.179 1404.169 L 502.020 1600.010 701.995 1400.005 L 901.970 1200.000 750.468 1200.000 L 598.967 1200.000 601.776 1167.000 C 614.802 1013.983,675.417 880.016,777.807 777.944 C 826.862 729.041,873.861 695.066,934.000 665.034 C 1014.578 624.795,1078.125 609.007,1174.000 605.407 C 1273.486 601.671,1339.534 612.475,1427.601 646.889 C 1468.891 663.025,1474.162 664.203,1483.362 659.354 C 1488.951 656.410,1523.331 624.709,1559.762 588.910 L 1626.000 523.820 1600.000 509.652 C 1528.834 470.874,1453.770 440.951,1378.000 421.156 C 1339.403 411.072,1333.509 410.672,1210.000 409.733 C 1139.600 409.198,1077.500 409.564,1072.000 410.547 M1702.015 999.957 L 1502.030 1200.000 1651.015 1200.000 L 1800.000 1200.000 1799.999 1215.000 C 1799.998 1233.490,1785.851 1321.437,1777.639 1354.000 C 1768.444 1390.465,1753.025 1429.841,1730.910 1473.340 C 1649.100 1634.251,1494.036 1751.719,1315.370 1788.128 C 1283.833 1794.555,1260.103 1796.300,1204.617 1796.273 C 1104.073 1796.223,1055.840 1786.910,963.099 1749.638 L 918.411 1731.678 852.947 1796.839 C 816.943 1832.678,785.675 1865.265,783.464 1869.256 C 777.477 1880.063,783.758 1885.291,829.371 1907.468 C 936.363 1959.487,1026.888 1985.840,1135.126 1996.477 C 1305.191 2013.192,1496.643 1963.284,1644.000 1863.826 C 1786.239 1767.821,1892.352 1632.363,1948.515 1475.098 C 1979.257 1389.017,2000.000 1287.767,2000.000 1223.795 L 2000.000 1200.000 2146.000 1200.000 C 2257.504 1200.000,2292.000 1198.857,2292.000 1195.163 C 2292.000 1192.503,2204.250 1102.484,2097.000 995.120 L 1902.000 799.913 1702.015 999.957 " fill="#1D1E23" stroke="none" fill-rule="evenodd"/></svg>