<svg viewBox="0 0 2400 2400" fill="none" xmlns="http://www.w3.org/2000/svg"><path d="M1060.000 415.967 C 1043.500 417.802,1010.646 424.952,986.990 431.858 C 734.466 505.574,540.380 685.567,449.845 930.000 C 421.688 1006.020,400.000 1110.772,400.000 1170.746 L 400.000 1198.466 301.850 1202.564 C 190.988 1207.192,187.090 1208.323,176.248 1238.999 C 170.706 1254.682,170.883 1255.781,181.116 1269.196 C 219.134 1319.041,448.274 1546.833,484.532 1570.827 C 498.988 1580.393,499.779 1580.480,513.437 1573.999 C 541.171 1560.839,743.473 1363.788,802.475 1292.464 C 828.217 1261.347,831.317 1250.184,820.244 1228.477 C 809.171 1206.774,801.571 1205.206,691.000 1201.814 C 601.688 1199.073,600.001 1198.864,600.078 1190.511 C 600.459 1149.034,620.371 1049.554,638.212 1000.000 C 694.150 844.631,823.745 709.175,975.932 647.008 C 1047.658 617.709,1079.717 611.526,1172.000 609.194 C 1274.432 606.607,1310.641 610.667,1396.478 634.364 C 1463.613 652.898,1464.252 652.990,1481.062 646.527 C 1505.654 637.073,1536.093 612.387,1545.385 594.361 C 1549.820 585.759,1554.228 569.311,1555.182 557.809 C 1559.598 504.556,1526.342 469.703,1443.365 440.621 C 1376.708 417.260,1361.421 415.436,1220.000 413.975 C 1148.500 413.236,1076.500 414.133,1060.000 415.967 M1877.139 832.931 C 1805.430 894.182,1584.473 1117.806,1574.899 1138.819 C 1569.493 1150.683,1580.858 1180.948,1594.854 1191.957 C 1604.462 1199.514,1610.962 1200.000,1702.539 1200.000 L 1800.000 1200.000 1799.927 1209.000 C 1799.767 1228.597,1787.375 1304.243,1777.847 1343.779 C 1736.817 1514.039,1614.976 1663.171,1454.256 1739.851 C 1377.221 1776.605,1322.225 1790.644,1242.000 1794.037 C 1157.399 1797.614,1088.355 1791.498,1036.000 1775.789 C 1003.860 1766.145,983.499 1762.697,949.270 1761.100 C 908.063 1759.178,903.411 1759.711,890.214 1767.868 C 865.535 1783.120,844.045 1822.281,844.045 1852.000 C 844.045 1887.044,871.125 1922.500,913.771 1943.293 C 942.276 1957.192,1006.751 1976.394,1057.446 1986.083 C 1107.454 1995.641,1212.550 2000.811,1267.041 1996.395 C 1373.664 1987.753,1508.403 1942.840,1615.698 1880.176 C 1718.489 1820.143,1821.807 1715.233,1886.689 1605.011 C 1946.955 1502.629,1992.260 1356.634,1998.702 1244.049 L 2001.222 1200.000 2099.006 1200.000 L 2196.790 1200.000 2208.345 1187.630 C 2224.878 1169.932,2231.061 1147.267,2222.797 1134.655 C 2211.047 1116.722,2081.675 982.629,2010.831 914.953 C 1926.901 834.777,1909.616 820.000,1899.761 820.000 C 1895.645 820.000,1885.466 825.819,1877.139 832.931 " fill="#1D1E23" stroke="none" fill-rule="evenodd"/></svg>