<svg viewBox="0 0 2400 2400" fill="none" xmlns="http://www.w3.org/2000/svg"><path d="M1098.000 406.480 C 895.616 435.868,714.090 535.990,585.364 689.229 C 480.682 813.845,409.146 993.810,401.160 1152.634 L 398.779 1200.000 290.389 1200.448 C 230.775 1200.694,165.329 1202.044,144.952 1203.448 L 107.905 1206.000 304.967 1403.000 L 502.030 1600.000 702.000 1400.000 L 901.970 1200.000 750.410 1200.000 L 598.850 1200.000 601.539 1167.000 C 618.414 959.956,722.976 787.702,893.527 685.986 C 988.732 629.206,1085.991 602.870,1200.000 602.998 C 1287.401 603.097,1360.378 617.580,1435.354 649.708 C 1453.699 657.568,1472.264 664.000,1476.608 664.000 C 1484.302 664.000,1600.193 554.075,1616.388 531.417 L 1623.951 520.833 1560.976 489.174 C 1491.665 454.330,1431.497 432.752,1360.532 417.289 C 1318.773 408.190,1303.538 407.026,1212.000 405.944 C 1155.900 405.280,1104.600 405.522,1098.000 406.480 M1702.000 1000.000 L 1502.030 1200.000 1651.015 1200.000 L 1800.000 1200.000 1799.982 1215.000 C 1799.944 1245.447,1783.776 1338.722,1771.921 1376.879 C 1715.684 1557.894,1575.014 1703.497,1396.253 1765.719 C 1324.880 1790.563,1283.551 1797.416,1204.000 1797.602 C 1109.479 1797.822,1044.153 1784.546,958.074 1747.624 L 919.115 1730.913 846.665 1803.363 C 777.686 1872.341,774.593 1876.096,782.107 1881.717 C 803.535 1897.748,900.091 1941.886,948.000 1957.550 C 1142.786 2021.239,1334.919 2012.477,1521.927 1931.375 C 1690.106 1858.439,1835.970 1718.808,1916.147 1554.000 C 1961.520 1460.734,1994.204 1339.564,1998.836 1247.449 L 2001.221 1200.000 2148.611 1200.000 C 2229.675 1200.000,2296.000 1198.643,2296.000 1196.985 C 2296.000 1195.327,2207.343 1105.327,2098.985 996.985 L 1901.970 800.000 1702.000 1000.000 " fill="#1D1E23" stroke="none" fill-rule="evenodd"/></svg>