<svg viewBox="0 0 2400 2400" fill="none" xmlns="http://www.w3.org/2000/svg"><path d="M1055.450 416.078 C 996.758 425.244,913.071 453.564,846.000 486.958 C 634.583 592.219,482.695 781.971,423.759 1014.458 C 409.797 1069.535,400.000 1134.107,400.000 1171.050 L 400.000 1199.074 265.000 1201.791 C 190.750 1203.286,127.750 1205.238,125.000 1206.129 C 122.250 1207.020,120.000 1209.744,120.000 1212.182 C 120.000 1214.620,205.950 1302.949,311.000 1408.468 L 502.000 1600.323 701.985 1400.161 L 901.970 1200.000 750.468 1200.000 L 598.966 1200.000 601.807 1171.000 C 609.931 1088.055,630.253 1011.946,662.393 944.098 C 695.117 875.018,733.790 822.162,793.066 765.504 C 839.460 721.159,882.427 692.023,948.221 660.291 C 1036.275 617.824,1102.672 605.736,1229.379 609.104 C 1314.217 611.359,1336.370 615.441,1419.184 644.073 C 1444.521 652.833,1469.319 660.000,1474.292 660.000 C 1480.396 660.000,1502.614 641.967,1542.667 604.503 C 1575.300 573.980,1607.132 543.541,1613.405 536.861 L 1624.811 524.716 1614.993 518.283 C 1597.545 506.850,1479.033 453.276,1443.365 440.697 C 1375.553 416.782,1362.192 415.217,1214.000 413.830 C 1139.200 413.130,1067.853 414.142,1055.450 416.078 M1701.995 1000.005 L 1502.030 1200.000 1651.015 1200.000 L 1800.000 1200.000 1800.000 1211.682 C 1800.000 1232.734,1780.681 1337.220,1770.048 1373.679 C 1756.874 1418.848,1722.513 1491.375,1694.340 1533.478 C 1618.799 1646.369,1506.235 1729.288,1368.000 1773.871 C 1309.147 1792.852,1265.694 1797.444,1172.000 1794.583 C 1089.858 1792.074,1058.873 1785.566,969.797 1752.107 C 946.212 1743.248,924.177 1736.000,920.831 1736.000 C 912.935 1736.000,784.000 1864.862,784.000 1872.753 C 784.000 1881.678,794.310 1889.276,831.929 1908.071 C 968.797 1976.455,1137.704 2010.482,1270.000 1996.322 C 1543.324 1967.067,1779.384 1810.195,1903.456 1575.366 C 1954.157 1479.406,1993.396 1342.687,1998.847 1243.000 L 2001.198 1200.000 2137.599 1199.719 C 2212.620 1199.564,2277.422 1198.095,2281.604 1196.455 C 2288.054 1193.924,2277.031 1180.766,2208.963 1109.736 C 2164.828 1063.681,2077.697 975.152,2015.338 913.005 L 1901.959 800.011 1701.995 1000.005 " fill="#1D1E23" stroke="none" fill-rule="evenodd"/></svg>