<svg viewBox="0 0 2400 2400" fill="none" xmlns="http://www.w3.org/2000/svg"><path d="M1050.000 414.938 C 954.844 438.841,913.293 453.569,843.051 488.291 C 639.988 588.670,493.014 767.960,428.494 994.000 C 412.173 1051.179,400.000 1128.203,400.000 1174.289 L 400.000 1198.788 305.275 1201.643 C 196.154 1204.933,188.580 1206.725,178.620 1231.618 C 174.979 1240.717,172.000 1251.599,172.000 1255.800 C 172.000 1271.873,456.080 1557.493,488.998 1574.516 C 504.129 1582.340,510.155 1579.830,544.313 1551.473 C 580.879 1521.117,694.845 1408.971,764.414 1334.888 C 829.424 1265.658,834.394 1256.684,822.089 1230.753 C 809.600 1204.435,811.750 1204.948,700.541 1201.751 L 599.081 1198.835 601.705 1170.418 C 616.900 1005.849,675.180 879.870,785.602 772.899 C 854.296 706.353,926.466 661.569,1009.395 634.029 C 1077.834 611.301,1101.939 608.000,1199.479 608.000 C 1297.737 608.000,1314.442 610.288,1401.975 635.730 C 1432.761 644.679,1460.661 651.982,1463.975 651.961 C 1474.781 651.891,1510.167 633.365,1525.929 619.526 C 1545.416 602.416,1556.649 577.288,1556.709 550.674 C 1556.828 497.566,1521.503 465.299,1430.988 435.831 C 1365.000 414.349,1340.545 411.953,1192.476 412.464 C 1118.514 412.719,1054.400 413.832,1050.000 414.938 M1881.539 828.820 C 1856.942 847.622,1727.233 973.867,1651.483 1052.735 C 1589.556 1117.211,1572.000 1137.798,1572.000 1145.943 C 1572.000 1158.109,1581.412 1178.147,1593.165 1191.000 C 1601.278 1199.873,1602.802 1200.000,1701.214 1200.000 L 1801.034 1200.000 1798.193 1229.000 C 1789.549 1317.254,1767.493 1400.402,1736.212 1462.659 C 1651.559 1631.138,1500.441 1747.743,1314.000 1788.443 C 1276.632 1796.601,1109.049 1795.907,1078.000 1787.467 C 1064.800 1783.879,1036.000 1775.955,1014.000 1769.858 C 984.746 1761.752,964.170 1758.670,937.409 1758.387 C 902.218 1758.015,900.229 1758.474,885.409 1770.389 C 861.860 1789.323,847.693 1815.020,845.112 1843.479 C 840.739 1891.711,869.654 1927.716,932.101 1951.798 C 974.009 1967.959,1028.132 1981.708,1084.000 1990.385 C 1141.067 1999.248,1263.821 2000.510,1308.000 1992.688 C 1578.346 1944.823,1785.510 1798.951,1905.452 1572.000 C 1955.875 1476.590,1993.668 1344.262,1998.843 1245.000 L 2001.189 1200.000 2099.897 1200.000 C 2197.156 1200.000,2198.726 1199.868,2206.835 1191.000 C 2218.567 1178.169,2228.000 1158.116,2228.000 1146.005 C 2228.000 1137.951,2210.549 1117.435,2150.429 1054.807 C 2076.150 977.430,1942.714 847.453,1918.461 828.850 C 1903.944 817.717,1896.075 817.710,1881.539 828.820 " fill="#1D1E23" stroke="none" fill-rule="evenodd"/></svg>