<svg viewBox="0 0 2400 2400" fill="none" xmlns="http://www.w3.org/2000/svg"><path d="M1090.000 412.501 C 1019.622 416.502,936.950 441.875,843.051 488.291 C 639.988 588.670,493.014 767.960,428.494 994.000 C 412.171 1051.186,400.000 1128.203,400.000 1174.304 L 400.000 1198.818 259.005 1201.737 C 181.458 1203.343,117.315 1205.351,116.466 1206.200 C 113.292 1209.374,176.183 1274.693,336.757 1434.999 L 502.033 1599.997 702.001 1399.999 L 901.970 1200.000 750.985 1200.000 L 600.000 1200.000 600.078 1189.000 C 600.234 1167.005,611.563 1093.048,619.545 1061.912 C 652.129 934.813,710.822 837.765,807.620 750.930 C 846.332 716.202,883.465 691.288,935.804 664.924 C 1020.746 622.139,1089.368 607.133,1202.000 606.715 C 1299.760 606.352,1334.962 613.091,1445.751 653.377 C 1469.254 661.923,1474.945 662.713,1482.923 658.532 C 1493.642 652.916,1624.000 528.987,1624.000 524.413 C 1624.000 519.803,1502.653 462.288,1460.000 446.681 C 1379.851 417.354,1349.538 412.554,1236.000 411.209 C 1179.900 410.544,1114.200 411.126,1090.000 412.501 M1702.015 999.801 L 1502.030 1200.000 1651.015 1200.000 L 1800.000 1200.000 1800.000 1213.615 C 1800.000 1240.472,1779.199 1350.701,1767.470 1386.000 C 1753.406 1428.327,1720.240 1496.191,1695.934 1532.375 C 1612.945 1655.925,1488.940 1742.922,1338.433 1783.184 C 1299.771 1793.526,1293.795 1793.997,1202.000 1793.940 C 1110.421 1793.883,1104.057 1793.376,1063.805 1782.930 C 1029.988 1774.154,969.100 1753.013,923.924 1734.362 C 919.689 1732.613,896.853 1752.972,848.574 1801.537 C 787.331 1863.144,779.794 1872.142,783.554 1879.167 C 788.315 1888.062,845.620 1917.051,904.878 1940.541 C 1030.178 1990.209,1167.881 2009.499,1288.000 1994.210 C 1600.946 1954.378,1854.767 1750.617,1953.453 1460.000 C 1980.095 1381.542,1999.928 1282.214,1999.976 1227.000 L 2000.000 1200.000 2141.000 1199.939 C 2218.550 1199.905,2284.494 1198.298,2287.542 1196.368 C 2291.685 1193.744,2243.720 1143.219,2097.542 996.230 L 1902.000 799.602 1702.015 999.801 " fill="#1D1E23" stroke="none" fill-rule="evenodd"/></svg>