<svg viewBox="0 0 2400 2400" fill="none" xmlns="http://www.w3.org/2000/svg"><path d="M677.328 203.647 C 642.660 212.424,611.127 242.885,603.733 274.737 C 601.785 283.132,600.148 314.504,600.095 344.454 L 600.000 398.908 531.000 401.078 C 452.357 403.550,433.995 407.756,396.747 431.831 C 362.740 453.811,337.967 480.911,321.586 514.051 C 308.820 539.879,307.427 546.377,304.002 596.051 C 299.557 660.526,299.212 1970.512,303.627 2020.900 C 306.131 2049.480,309.417 2061.329,321.774 2086.332 C 350.800 2145.062,409.320 2188.313,470.404 2196.183 C 485.582 2198.138,637.122 2199.797,807.159 2199.869 C 1112.427 2199.998,1116.524 2199.895,1132.612 2191.688 C 1155.065 2180.233,1182.925 2150.514,1187.857 2132.757 C 1193.047 2114.068,1193.106 2086.143,1187.994 2067.739 C 1182.463 2047.830,1159.447 2022.382,1137.254 2011.639 L 1118.530 2002.575 844.165 2000.287 L 569.800 1998.000 548.519 1984.339 C 513.387 1961.785,507.806 1949.669,503.778 1887.205 C 501.890 1857.942,500.268 1623.850,500.173 1367.000 L 500.000 900.000 1199.675 900.000 L 1899.349 900.000 1900.760 1013.000 C 1902.332 1138.857,1903.123 1143.109,1929.803 1169.021 C 1952.172 1190.745,1969.929 1198.029,2000.000 1197.816 C 2018.457 1197.685,2030.694 1195.172,2042.180 1189.153 C 2065.139 1177.122,2090.829 1147.902,2094.751 1129.359 C 2096.538 1120.912,2098.000 989.800,2098.000 838.000 L 2098.000 562.000 2088.423 536.006 C 2083.155 521.709,2074.299 502.809,2068.741 494.006 C 2052.426 468.161,2018.302 438.265,1986.959 422.356 C 1954.394 405.826,1918.331 400.314,1841.419 400.108 L 1800.838 400.000 1799.200 337.000 C 1797.390 267.358,1794.107 254.723,1772.109 232.725 C 1739.256 199.872,1692.269 192.421,1652.983 213.835 C 1610.634 236.917,1600.000 263.170,1600.000 344.636 L 1600.000 400.000 1200.419 400.000 L 800.838 400.000 799.200 337.000 C 797.390 267.358,794.107 254.723,772.109 232.725 C 747.300 207.915,708.041 195.871,677.328 203.647 M2034.000 1406.223 C 2027.400 1409.619,2003.542 1430.734,1980.982 1453.145 L 1939.963 1493.894 2022.924 1576.925 L 2105.885 1659.957 2141.144 1624.978 C 2179.780 1586.649,2200.000 1559.446,2200.000 1545.796 C 2200.000 1529.802,2089.860 1413.071,2066.327 1404.124 C 2051.982 1398.670,2048.203 1398.916,2034.000 1406.223 M1644.988 1789.012 L 1400.000 2034.024 1400.000 2117.012 L 1400.000 2200.000 1483.012 2200.000 L 1566.024 2200.000 1811.988 1954.012 L 2057.951 1708.024 1976.012 1626.012 C 1930.946 1580.905,1893.151 1544.000,1892.024 1544.000 C 1890.898 1544.000,1779.731 1654.255,1644.988 1789.012 " fill="#1D1E23" stroke="none" fill-rule="evenodd"/></svg>