<svg viewBox="0 0 2400 2400" fill="none" xmlns="http://www.w3.org/2000/svg"><path d="M666.363 106.293 C 643.583 114.639,625.689 129.702,613.089 151.136 C 602.398 169.322,601.952 172.335,600.656 235.000 L 599.312 300.000 542.390 300.000 C 511.084 300.000,474.789 301.945,461.735 304.321 C 406.957 314.294,349.626 357.177,324.516 406.959 C 298.665 458.208,300.124 410.851,300.059 1200.803 C 300.017 1710.332,301.287 1925.778,304.420 1940.803 C 320.327 2017.083,385.669 2081.384,462.000 2095.875 C 478.873 2099.078,564.991 2100.070,752.000 2099.215 C 1016.947 2098.005,1018.065 2097.965,1034.379 2089.236 C 1053.449 2079.031,1074.655 2056.197,1082.500 2037.419 C 1089.575 2020.488,1089.575 1979.512,1082.500 1962.581 C 1074.655 1943.803,1053.449 1920.969,1034.379 1910.764 C 1018.229 1902.123,1014.897 1901.972,796.000 1900.000 L 574.000 1898.000 554.995 1888.641 C 544.542 1883.493,530.643 1872.794,524.107 1864.865 C 498.676 1834.013,500.000 1864.639,500.000 1307.287 L 500.000 800.000 1199.775 800.000 L 1899.549 800.000 1900.775 915.000 C 1901.945 1024.841,1902.398 1030.743,1910.862 1046.570 C 1948.890 1117.675,2051.110 1117.675,2089.138 1046.570 L 2098.000 1030.000 2099.214 758.000 C 2100.069 566.555,2099.079 478.892,2095.874 462.000 C 2083.023 394.289,2034.562 338.282,1966.000 311.902 C 1945.070 303.849,1932.918 302.440,1871.000 300.888 L 1800.000 299.108 1800.000 242.267 C 1800.000 174.066,1794.810 154.599,1770.014 129.804 C 1728.068 87.857,1656.981 92.403,1621.197 139.319 C 1603.125 163.014,1600.048 178.080,1600.022 243.000 L 1600.000 300.000 1200.000 300.000 L 800.000 300.000 800.000 242.713 C 800.000 174.096,794.842 154.632,770.105 129.895 C 742.868 102.658,701.791 93.312,666.363 106.293 M1650.000 1202.511 C 1511.690 1217.529,1381.793 1291.373,1299.196 1401.937 C 1268.239 1443.377,1230.909 1519.767,1218.044 1568.000 C 1187.460 1682.670,1198.189 1806.800,1247.635 1910.372 C 1275.059 1967.817,1303.569 2008.297,1347.636 2052.364 C 1518.563 2223.291,1779.506 2247.770,1982.372 2111.910 C 2022.911 2084.760,2084.760 2022.911,2111.910 1982.372 C 2228.328 1808.537,2228.328 1591.463,2111.910 1417.628 C 2085.156 1377.679,2023.076 1315.347,1983.968 1289.167 C 1899.641 1232.715,1816.414 1205.575,1718.000 1202.434 C 1689.400 1201.521,1658.800 1201.556,1650.000 1202.511 M1978.382 1511.616 C 1996.603 1519.891,2011.188 1539.897,2014.678 1561.403 C 2019.756 1592.695,2017.188 1595.806,1836.518 1777.216 C 1742.733 1871.385,1660.600 1951.784,1654.000 1955.880 C 1636.875 1966.509,1616.008 1969.384,1595.637 1963.922 C 1580.395 1959.835,1565.852 1947.164,1488.523 1870.596 C 1379.424 1762.571,1371.460 1748.971,1393.211 1707.840 C 1408.455 1679.014,1444.623 1664.975,1474.740 1676.195 C 1480.933 1678.502,1515.256 1709.537,1551.013 1745.162 L 1616.025 1809.935 1765.013 1661.128 C 1846.956 1579.285,1918.500 1510.563,1924.000 1508.414 C 1939.689 1502.284,1960.537 1503.511,1978.382 1511.616 " fill="#1D1E23" stroke="none" fill-rule="evenodd"/></svg>