<svg viewBox="0 0 2400 2400" fill="none" xmlns="http://www.w3.org/2000/svg"><path d="M660.000 210.786 C 639.193 221.358,613.251 249.097,607.806 266.595 C 605.169 275.068,602.144 308.299,601.083 340.442 L 599.155 398.883 540.578 401.665 C 439.840 406.450,407.429 417.453,361.816 462.352 C 344.701 479.200,332.289 496.392,321.539 518.143 L 306.000 549.581 302.773 749.791 C 300.998 859.906,300.256 1193.900,301.124 1492.000 L 302.701 2034.000 313.018 2063.196 C 330.663 2113.130,372.398 2158.088,423.908 2182.648 C 443.991 2192.223,451.987 2193.366,519.908 2196.365 C 616.392 2200.626,1783.608 2200.626,1880.092 2196.365 C 1947.942 2193.369,1956.030 2192.215,1976.092 2182.672 C 2008.566 2167.223,2044.247 2136.272,2065.214 2105.364 C 2100.466 2053.396,2097.486 2124.918,2099.036 1293.871 L 2100.409 557.743 2083.569 524.098 C 2054.066 465.153,1996.931 418.499,1941.679 408.239 C 1930.503 406.163,1894.321 403.206,1861.276 401.667 L 1801.192 398.869 1798.870 336.414 C 1797.592 302.064,1794.744 269.218,1792.541 263.424 C 1786.471 247.458,1764.708 224.562,1746.379 214.857 C 1723.270 202.622,1676.730 202.622,1653.621 214.857 C 1635.292 224.562,1613.529 247.458,1607.459 263.424 C 1605.256 269.218,1602.399 302.318,1601.109 336.979 L 1598.766 400.000 1199.957 400.000 L 801.149 400.000 799.074 339.000 C 796.327 258.210,789.142 240.850,748.577 216.991 C 725.351 203.331,680.813 200.211,660.000 210.786 M1898.211 1370.167 C 1896.586 1628.758,1893.994 1863.460,1892.451 1891.726 C 1889.883 1938.778,1888.707 1944.537,1878.532 1959.913 C 1860.381 1987.342,1844.284 1992.134,1756.581 1996.218 C 1659.564 2000.736,740.436 2000.736,643.419 1996.218 C 555.873 1992.141,539.604 1987.318,521.593 1960.103 C 512.162 1945.851,510.191 1937.705,507.687 1902.617 C 506.082 1880.132,503.436 1645.345,501.806 1380.868 L 498.843 900.000 1200.004 900.000 L 1901.166 900.000 1898.211 1370.167 M774.763 1107.690 C 754.516 1111.846,729.023 1130.241,714.112 1151.454 L 702.000 1168.685 702.000 1347.652 L 702.000 1526.620 714.126 1546.238 C 730.063 1572.019,760.619 1595.003,783.524 1598.438 C 793.240 1599.895,873.730 1600.233,962.389 1599.190 C 1123.199 1597.298,1123.632 1597.270,1142.353 1587.636 C 1152.675 1582.324,1168.518 1569.251,1177.560 1558.585 L 1194.000 1539.192 1197.120 1434.596 C 1200.616 1317.416,1197.781 1185.220,1191.316 1164.000 C 1186.435 1147.979,1168.398 1127.465,1148.000 1114.736 C 1134.222 1106.139,1131.269 1105.989,962.000 1105.281 C 867.400 1104.886,783.143 1105.970,774.763 1107.690 " fill="#1D1E23" stroke="none" fill-rule="evenodd"/></svg>