<svg viewBox="0 0 2400 2400" fill="none" xmlns="http://www.w3.org/2000/svg"><path d="M600.000 300.000 L 600.000 400.000 450.000 400.000 L 300.000 400.000 300.000 1300.000 L 300.000 2200.000 1200.000 2200.000 L 2100.000 2200.000 2100.000 1300.000 L 2100.000 400.000 1950.000 400.000 L 1800.000 400.000 1800.000 300.000 L 1800.000 200.000 1700.000 200.000 L 1600.000 200.000 1600.000 300.000 L 1600.000 400.000 1200.000 400.000 L 800.000 400.000 800.000 300.000 L 800.000 200.000 700.000 200.000 L 600.000 200.000 600.000 300.000 M1900.000 1450.000 L 1900.000 2000.000 1200.000 2000.000 L 500.000 2000.000 500.000 1450.000 L 500.000 900.000 1200.000 900.000 L 1900.000 900.000 1900.000 1450.000 M861.741 1256.000 C 769.193 1367.151,703.976 1448.129,704.035 1451.818 C 704.074 1454.250,931.934 1729.439,944.217 1741.889 C 951.931 1749.707,952.000 1748.896,952.000 1650.889 L 952.000 1552.000 1199.930 1552.000 L 1447.860 1552.000 1448.930 1650.918 L 1450.000 1749.837 1538.067 1643.918 C 1586.503 1585.663,1642.033 1518.606,1661.466 1494.902 L 1696.799 1451.803 1685.646 1436.902 C 1666.418 1411.211,1593.116 1321.333,1520.166 1234.000 L 1450.000 1150.000 1448.931 1251.000 L 1447.863 1352.000 1200.000 1352.000 L 952.137 1352.000 951.069 1251.000 L 950.000 1150.000 861.741 1256.000 " fill="#1D1E23" stroke="none" fill-rule="evenodd"/></svg>