<svg viewBox="0 0 2400 2400" fill="none" xmlns="http://www.w3.org/2000/svg"><path d="M674.463 204.261 C 655.914 208.842,630.966 226.426,617.914 244.117 C 604.577 262.194,600.000 288.645,600.000 347.651 L 600.000 398.908 531.000 401.078 C 452.357 403.550,433.995 407.756,396.747 431.831 C 362.740 453.811,337.967 480.911,321.586 514.051 C 308.820 539.879,307.427 546.377,304.002 596.051 C 299.557 660.526,299.212 1970.512,303.627 2020.900 C 309.550 2088.507,350.597 2147.054,414.060 2178.419 C 442.639 2192.544,448.510 2193.919,491.492 2196.548 C 552.161 2200.260,1847.839 2200.260,1908.508 2196.548 C 1951.490 2193.919,1957.361 2192.544,1985.940 2178.419 C 2026.884 2158.184,2058.159 2126.934,2078.346 2086.089 C 2092.951 2056.536,2093.690 2053.063,2096.932 1998.657 C 2098.789 1967.496,2099.789 1630.600,2099.154 1250.000 L 2098.000 558.000 2088.375 534.000 C 2067.938 483.044,2034.927 446.703,1986.959 422.356 C 1954.394 405.826,1918.331 400.314,1841.419 400.108 L 1800.838 400.000 1799.200 337.000 C 1797.390 267.358,1794.107 254.723,1772.109 232.725 C 1750.555 211.170,1729.525 202.296,1700.000 202.296 C 1670.475 202.296,1649.445 211.170,1627.891 232.725 C 1605.893 254.723,1602.610 267.358,1600.800 337.000 L 1599.162 400.000 1200.000 400.000 L 800.838 400.000 799.200 337.000 C 797.390 267.358,794.107 254.723,772.109 232.725 C 746.460 207.075,708.211 195.926,674.463 204.261 M1899.914 1363.000 C 1899.831 1814.572,1897.436 1930.005,1887.758 1948.801 C 1880.819 1962.279,1863.612 1979.873,1850.848 1986.539 C 1844.714 1989.742,1821.314 1994.021,1798.848 1996.047 C 1745.519 2000.856,654.481 2000.856,601.152 1996.047 C 578.686 1994.021,555.286 1989.742,549.152 1986.539 C 536.266 1979.809,519.171 1962.255,512.046 1948.436 C 502.414 1929.755,500.344 1828.405,500.173 1367.000 L 500.000 900.000 1200.000 900.000 L 1900.000 900.000 1899.914 1363.000 M812.000 1103.750 C 771.382 1105.737,763.828 1107.277,747.434 1116.915 C 699.826 1144.901,686.330 1210.300,718.564 1256.814 C 736.304 1282.412,753.603 1291.616,792.349 1296.071 C 835.322 1301.011,1557.859 1301.136,1604.654 1296.211 C 1646.961 1291.758,1658.999 1285.884,1677.519 1260.655 C 1705.976 1221.889,1705.976 1178.111,1677.519 1139.345 C 1657.541 1112.129,1647.181 1107.893,1590.523 1103.773 C 1538.670 1100.003,888.992 1099.983,812.000 1103.750 M804.000 1503.556 C 772.516 1505.581,762.816 1507.872,747.434 1516.915 C 699.826 1544.901,686.330 1610.300,718.564 1656.814 C 736.020 1682.003,754.599 1692.186,791.161 1696.606 C 840.177 1702.532,1418.030 1698.884,1437.255 1692.527 C 1454.968 1686.670,1479.914 1662.489,1490.437 1640.975 C 1500.308 1620.793,1500.308 1579.207,1490.437 1559.025 C 1479.871 1537.423,1454.916 1513.292,1437.255 1507.600 C 1425.861 1503.928,1348.595 1502.484,1132.000 1501.897 C 972.500 1501.465,824.900 1502.212,804.000 1503.556 " fill="#1D1E23" stroke="none" fill-rule="evenodd"/></svg>