<svg viewBox="0 0 2400 2400" fill="none" xmlns="http://www.w3.org/2000/svg"><path d="M677.328 103.647 C 642.660 112.424,611.127 142.885,603.733 174.737 C 601.785 183.132,600.148 214.504,600.095 244.454 L 600.000 298.908 531.000 301.078 C 452.357 303.550,433.995 307.756,396.747 331.831 C 362.740 353.811,337.967 380.911,321.586 414.051 C 308.820 439.879,307.427 446.377,304.002 496.051 C 299.557 560.526,299.212 1870.512,303.627 1920.900 C 306.131 1949.480,309.417 1961.329,321.774 1986.332 C 349.658 2042.751,407.155 2086.493,466.000 2096.054 C 492.936 2100.431,914.269 2101.498,981.882 2097.361 C 1021.324 2094.948,1026.554 2093.667,1043.100 2082.361 C 1071.214 2063.152,1084.471 2041.660,1086.875 2011.395 C 1087.984 1997.428,1086.918 1978.704,1084.504 1969.788 C 1078.652 1948.167,1056.276 1922.784,1033.237 1911.631 C 1014.637 1902.627,1012.808 1902.541,792.146 1900.279 L 569.798 1898.000 548.518 1884.339 C 513.387 1861.785,507.806 1849.668,503.778 1787.205 C 501.890 1757.942,500.268 1523.850,500.173 1267.000 L 500.000 800.000 1199.595 800.000 L 1899.190 800.000 1900.726 915.000 C 1902.181 1023.979,1902.720 1030.870,1911.015 1046.613 C 1927.086 1077.115,1965.230 1100.000,2000.000 1100.000 C 2036.388 1100.000,2073.381 1076.796,2090.335 1043.338 L 2100.395 1023.485 2099.191 740.743 L 2097.986 458.000 2088.368 434.000 C 2067.733 382.512,2034.038 345.352,1986.832 322.021 C 1954.103 305.846,1917.377 300.311,1841.419 300.108 L 1800.838 300.000 1799.200 237.000 C 1797.390 167.358,1794.107 154.723,1772.109 132.725 C 1739.256 99.872,1692.269 92.421,1652.983 113.835 C 1610.634 136.917,1600.000 163.170,1600.000 244.636 L 1600.000 300.000 1200.419 300.000 L 800.838 300.000 799.200 237.000 C 797.390 167.358,794.107 154.723,772.109 132.725 C 747.300 107.915,708.041 95.871,677.328 103.647 M1602.000 1210.608 C 1451.217 1242.682,1323.514 1339.917,1256.560 1473.631 C 1215.644 1555.345,1202.333 1610.450,1202.361 1698.000 C 1202.391 1788.440,1218.575 1855.710,1258.746 1932.375 C 1314.758 2039.270,1417.355 2128.428,1532.000 2169.836 C 1679.149 2222.985,1845.473 2202.295,1977.553 2114.413 C 2019.206 2086.698,2086.701 2019.201,2114.419 1977.544 C 2226.730 1808.750,2226.727 1591.246,2114.413 1422.447 C 2087.245 1381.618,2019.331 1313.332,1980.000 1287.301 C 1917.587 1245.992,1845.036 1217.577,1778.263 1208.290 C 1734.093 1202.146,1635.696 1203.441,1602.000 1210.608 M1968.177 1507.983 C 1987.690 1513.404,2006.517 1534.141,2012.570 1556.881 C 2016.888 1573.103,2016.681 1577.679,2011.103 1589.375 C 2001.471 1609.575,1928.759 1686.497,1783.542 1830.115 C 1643.515 1968.600,1639.108 1971.932,1603.840 1965.973 C 1584.278 1962.668,1550.355 1933.761,1469.534 1851.524 C 1406.024 1786.903,1384.000 1757.943,1384.000 1739.058 C 1384.000 1725.866,1395.765 1701.060,1406.721 1691.153 C 1417.211 1681.666,1441.539 1671.997,1454.872 1672.015 C 1472.526 1672.039,1487.859 1683.869,1553.943 1748.455 L 1615.978 1809.083 1766.283 1660.304 C 1848.950 1578.475,1920.505 1509.946,1925.294 1508.016 C 1937.071 1503.269,1951.170 1503.258,1968.177 1507.983 " fill="#1D1E23" stroke="none" fill-rule="evenodd"/></svg>