<svg viewBox="0 0 2400 2400" fill="none" xmlns="http://www.w3.org/2000/svg"><path d="M664.342 206.868 C 654.630 210.299,639.161 220.628,629.967 229.823 C 605.150 254.639,600.000 274.041,600.000 342.713 L 600.000 400.000 542.735 400.000 C 511.239 400.000,474.789 401.945,461.735 404.321 C 406.957 414.294,349.626 457.177,324.516 506.959 C 298.665 558.208,300.124 510.851,300.059 1300.803 C 300.017 1810.332,301.287 2025.778,304.420 2040.803 C 320.053 2115.765,384.235 2179.947,459.197 2195.580 C 489.170 2201.830,1910.830 2201.830,1940.803 2195.580 C 2015.765 2179.947,2079.947 2115.765,2095.580 2040.803 C 2101.830 2010.830,2101.830 589.170,2095.580 559.197 C 2081.755 492.905,2033.261 437.781,1966.000 411.902 C 1945.070 403.849,1932.918 402.440,1871.000 400.888 L 1800.000 399.108 1800.000 342.267 C 1800.000 274.135,1794.800 254.590,1770.105 229.895 C 1752.144 211.933,1724.160 200.000,1700.000 200.000 C 1675.840 200.000,1647.856 211.933,1629.895 229.895 C 1605.158 254.632,1600.000 274.096,1600.000 342.713 L 1600.000 400.000 1200.000 400.000 L 800.000 400.000 800.000 342.713 C 800.000 274.096,794.842 254.632,770.105 229.895 C 742.352 202.141,702.370 193.437,664.342 206.868 M1900.000 1405.274 C 1900.000 1973.975,1901.864 1938.346,1870.465 1969.745 C 1837.810 2002.400,1891.001 2000.000,1200.000 2000.000 C 509.722 2000.000,562.127 2002.338,529.895 1970.105 C 497.914 1938.125,500.000 1977.397,500.000 1407.287 L 500.000 900.000 1200.000 900.000 L 1900.000 900.000 1900.000 1405.274 M856.883 1242.435 C 721.991 1381.368,664.174 1443.914,661.765 1453.512 C 660.317 1459.280,660.316 1468.713,661.761 1474.472 C 664.214 1484.244,721.791 1546.627,852.463 1681.091 C 903.000 1733.094,906.858 1736.176,921.308 1736.091 C 932.820 1736.022,939.514 1733.101,948.308 1724.308 L 960.000 1712.615 960.000 1630.308 L 960.000 1548.000 1200.000 1548.000 L 1440.000 1548.000 1440.000 1629.461 C 1440.000 1705.029,1440.582 1711.661,1448.049 1721.153 C 1456.968 1732.492,1473.722 1737.728,1488.898 1733.919 C 1500.251 1731.070,1726.693 1497.696,1735.712 1479.549 C 1747.276 1456.283,1741.186 1447.745,1630.734 1332.384 C 1498.711 1194.493,1495.994 1192.000,1477.782 1192.000 C 1467.202 1192.000,1460.284 1195.101,1451.692 1203.692 L 1440.000 1215.385 1440.000 1297.692 L 1440.000 1380.000 1200.000 1380.000 L 960.000 1380.000 960.000 1297.692 L 960.000 1215.385 948.308 1203.692 C 939.506 1194.890,932.831 1191.981,921.308 1191.923 C 906.927 1191.852,903.026 1194.910,856.883 1242.435 " fill="#1D1E23" stroke="none" fill-rule="evenodd"/></svg>