<svg viewBox="0 0 2400 2400" fill="none" xmlns="http://www.w3.org/2000/svg"><path d="M651.783 215.462 C 609.563 242.676,600.000 267.193,600.000 348.220 L 600.000 398.759 534.611 401.440 C 435.853 405.487,408.461 415.256,359.708 463.813 C 330.601 492.804,314.779 521.096,307.036 558.000 C 303.095 576.781,302.000 739.433,302.000 1306.000 C 302.000 1997.163,302.333 2031.089,309.347 2054.000 C 313.387 2067.200,321.968 2087.272,328.414 2098.604 C 344.298 2126.528,385.832 2164.462,417.698 2180.150 C 442.180 2192.202,447.805 2193.267,502.955 2196.288 C 579.921 2200.504,1820.079 2200.504,1897.045 2196.288 C 1952.464 2193.252,1957.747 2192.243,1983.045 2179.858 C 2019.172 2162.173,2062.071 2119.383,2079.622 2083.525 C 2091.386 2059.492,2092.932 2051.928,2096.385 2001.525 C 2098.632 1968.729,2099.741 1661.095,2099.094 1250.000 L 2098.000 554.000 2083.065 522.721 C 2056.871 467.863,2006.404 424.714,1950.526 409.401 C 1939.237 406.307,1900.997 402.659,1865.548 401.293 L 1801.097 398.811 1798.977 336.406 C 1797.811 302.083,1794.757 268.600,1792.190 262.000 C 1785.658 245.203,1760.988 220.435,1742.000 211.611 C 1720.519 201.628,1679.481 201.628,1658.000 211.611 C 1639.012 220.435,1614.342 245.203,1607.810 262.000 C 1605.243 268.600,1602.181 302.350,1601.004 337.000 L 1598.865 400.000 1200.000 400.000 L 801.135 400.000 799.085 337.000 C 796.743 265.002,793.411 253.388,768.701 231.091 C 746.237 210.821,728.007 204.000,696.295 204.000 C 673.679 204.000,666.830 205.764,651.783 215.462 M1898.626 1399.000 C 1897.340 1676.529,1894.642 1909.265,1892.547 1923.381 C 1888.156 1952.982,1874.061 1973.741,1850.362 1985.511 C 1825.223 1997.997,1752.712 1999.564,1200.000 1999.564 C 647.288 1999.564,574.777 1997.997,549.638 1985.511 C 526.578 1974.059,510.994 1951.865,507.058 1924.872 C 505.224 1912.292,502.678 1676.550,501.401 1401.000 L 499.080 900.000 1200.010 900.000 L 1900.940 900.000 1898.626 1399.000 M1314.000 1303.829 C 1260.125 1306.707,1249.456 1310.564,1227.182 1335.218 C 1202.239 1362.827,1202.000 1364.811,1202.000 1544.000 C 1202.000 1633.100,1203.495 1714.782,1205.322 1725.516 C 1207.896 1740.632,1212.680 1749.346,1226.540 1764.164 C 1259.368 1799.259,1250.082 1797.860,1450.000 1797.816 C 1611.941 1797.780,1627.186 1797.196,1640.841 1790.508 C 1657.847 1782.179,1686.039 1753.142,1692.822 1736.969 C 1699.240 1721.667,1699.302 1378.475,1692.890 1363.209 C 1686.820 1348.759,1661.241 1320.847,1647.609 1313.798 C 1641.563 1310.671,1624.327 1307.229,1609.308 1306.149 C 1561.629 1302.719,1363.873 1301.165,1314.000 1303.829 " fill="#1D1E23" stroke="none" fill-rule="evenodd"/></svg>