<svg viewBox="0 0 2400 2400" fill="none" xmlns="http://www.w3.org/2000/svg"><path d="M662.000 211.357 C 640.990 221.478,612.960 250.859,607.769 268.203 C 605.498 275.791,602.556 308.334,601.231 340.519 L 598.822 399.038 546.411 401.861 C 480.877 405.391,439.748 412.350,414.000 424.266 C 382.711 438.746,336.550 487.339,317.725 525.614 L 302.177 557.227 300.793 1247.614 C 300.031 1627.326,300.985 1963.200,302.913 1994.000 C 306.229 2046.984,307.219 2051.662,321.292 2080.861 C 341.104 2121.965,376.892 2158.073,417.914 2178.347 L 447.813 2193.124 526.907 2196.348 C 629.582 2200.533,1770.008 2200.550,1872.561 2196.368 C 1949.210 2193.243,1951.778 2192.858,1978.077 2180.551 C 1997.679 2171.378,2013.442 2159.489,2035.858 2136.969 C 2075.754 2096.887,2086.335 2078.316,2092.244 2038.000 C 2095.642 2014.814,2097.421 1806.035,2098.700 1280.000 L 2100.467 554.000 2082.082 522.000 C 2046.563 460.174,1990.840 416.913,1935.806 408.436 C 1921.613 406.250,1885.523 403.229,1855.607 401.723 L 1801.213 398.985 1798.706 335.307 C 1795.907 264.196,1792.476 252.270,1768.847 231.524 C 1748.391 213.564,1732.108 208.000,1700.000 208.000 C 1667.892 208.000,1651.609 213.564,1631.153 231.524 C 1607.491 252.299,1604.095 264.155,1601.274 335.815 L 1598.747 400.000 1199.954 400.000 L 801.162 400.000 798.923 341.000 C 796.540 278.211,790.947 253.971,774.865 236.718 C 749.607 209.623,692.322 196.750,662.000 211.357 M1898.081 1323.000 C 1896.479 1555.650,1893.919 1789.234,1892.394 1842.074 C 1889.745 1933.849,1889.181 1938.951,1879.810 1956.074 C 1867.910 1977.818,1851.237 1986.845,1811.005 1993.327 C 1767.603 2000.319,630.275 1999.958,586.263 1992.938 C 547.148 1986.699,532.810 1978.667,520.233 1955.949 C 511.012 1939.292,510.310 1933.387,507.647 1850.154 C 506.096 1801.669,503.513 1568.050,501.907 1331.000 L 498.987 900.000 1199.991 900.000 L 1900.995 900.000 1898.081 1323.000 M778.000 1107.587 C 754.738 1110.448,734.517 1124.167,717.619 1148.550 C 704.390 1167.639,700.224 1203.122,707.875 1231.535 C 714.381 1255.696,744.154 1285.102,768.111 1291.028 C 792.898 1297.159,1276.151 1301.233,1474.000 1296.979 C 1624.224 1293.748,1630.631 1293.294,1647.054 1284.703 C 1667.589 1273.962,1685.983 1249.749,1693.925 1223.006 C 1701.445 1197.683,1696.257 1171.213,1678.655 1145.090 C 1658.609 1115.343,1649.446 1111.912,1579.094 1107.818 C 1511.471 1103.882,809.761 1103.680,778.000 1107.587 " fill="#1D1E23" stroke="none" fill-rule="evenodd"/></svg>