<svg viewBox="0 0 2400 2400" fill="none" xmlns="http://www.w3.org/2000/svg"><path d="M660.000 210.786 C 639.193 221.358,613.251 249.097,607.806 266.595 C 605.169 275.068,602.144 308.299,601.083 340.442 L 599.155 398.883 540.578 401.665 C 439.840 406.450,407.429 417.453,361.816 462.352 C 344.701 479.200,332.289 496.392,321.539 518.143 L 306.000 549.581 302.773 749.791 C 300.998 859.906,300.256 1193.900,301.124 1492.000 L 302.701 2034.000 313.018 2063.196 C 330.663 2113.130,372.398 2158.088,423.908 2182.648 C 443.991 2192.223,451.987 2193.366,519.908 2196.365 C 616.392 2200.626,1783.608 2200.626,1880.092 2196.365 C 1947.942 2193.369,1956.030 2192.215,1976.092 2182.672 C 2008.566 2167.223,2044.247 2136.272,2065.214 2105.364 C 2100.466 2053.396,2097.486 2124.918,2099.036 1293.871 L 2100.409 557.743 2083.569 524.098 C 2054.066 465.153,1996.931 418.499,1941.679 408.239 C 1930.503 406.163,1894.321 403.206,1861.276 401.667 L 1801.192 398.869 1798.870 336.414 C 1797.592 302.064,1794.744 269.218,1792.541 263.424 C 1786.471 247.458,1764.708 224.562,1746.379 214.857 C 1723.270 202.622,1676.730 202.622,1653.621 214.857 C 1635.292 224.562,1613.529 247.458,1607.459 263.424 C 1605.256 269.218,1602.399 302.318,1601.109 336.979 L 1598.766 400.000 1199.957 400.000 L 801.149 400.000 799.074 339.000 C 796.327 258.210,789.142 240.850,748.577 216.991 C 725.351 203.331,680.813 200.211,660.000 210.786 M1898.211 1370.167 C 1896.586 1628.758,1893.994 1863.460,1892.451 1891.726 C 1889.883 1938.778,1888.707 1944.537,1878.532 1959.913 C 1860.381 1987.342,1844.284 1992.134,1756.581 1996.218 C 1659.564 2000.736,740.436 2000.736,643.419 1996.218 C 555.873 1992.141,539.604 1987.318,521.593 1960.103 C 512.162 1945.851,510.191 1937.705,507.687 1902.617 C 506.082 1880.132,503.436 1645.345,501.806 1380.868 L 498.843 900.000 1200.004 900.000 L 1901.166 900.000 1898.211 1370.167 M761.689 1109.674 C 742.701 1117.942,719.516 1140.232,711.460 1157.966 C 702.652 1177.354,701.635 1218.596,709.500 1237.419 C 731.088 1289.088,799.032 1313.736,845.233 1286.661 C 863.972 1275.679,878.232 1259.809,888.957 1238.000 C 910.884 1193.409,891.434 1139.705,844.470 1115.171 C 820.265 1102.526,783.683 1100.097,761.689 1109.674 M1157.717 1113.249 C 1117.505 1132.517,1095.234 1175.776,1103.939 1217.707 C 1118.214 1286.470,1195.503 1319.556,1253.214 1281.607 C 1284.659 1260.931,1306.083 1208.769,1295.937 1177.589 C 1288.791 1155.632,1269.632 1130.143,1251.006 1117.817 C 1227.161 1102.037,1185.383 1099.992,1157.717 1113.249 M1557.717 1113.249 C 1517.505 1132.517,1495.234 1175.776,1503.939 1217.707 C 1518.214 1286.470,1595.503 1319.556,1653.214 1281.607 C 1684.659 1260.931,1706.083 1208.769,1695.937 1177.589 C 1688.791 1155.632,1669.632 1130.143,1651.006 1117.817 C 1627.161 1102.037,1585.383 1099.992,1557.717 1113.249 M761.689 1409.674 C 742.701 1417.942,719.516 1440.232,711.460 1457.966 C 702.652 1477.354,701.635 1518.596,709.500 1537.419 C 731.088 1589.088,799.032 1613.736,845.233 1586.661 C 863.972 1575.679,878.232 1559.809,888.957 1538.000 C 910.884 1493.409,891.434 1439.705,844.470 1415.171 C 820.265 1402.526,783.683 1400.097,761.689 1409.674 M1157.717 1413.249 C 1117.505 1432.517,1095.234 1475.776,1103.939 1517.707 C 1118.214 1586.470,1195.503 1619.556,1253.214 1581.607 C 1284.659 1560.931,1306.083 1508.769,1295.937 1477.589 C 1288.791 1455.632,1269.632 1430.143,1251.006 1417.817 C 1227.161 1402.037,1185.383 1399.992,1157.717 1413.249 M1557.717 1413.249 C 1517.505 1432.517,1495.234 1475.776,1503.939 1517.707 C 1518.214 1586.470,1595.503 1619.556,1653.214 1581.607 C 1684.659 1560.931,1706.083 1508.769,1695.937 1477.589 C 1688.791 1455.632,1669.632 1430.143,1651.006 1417.817 C 1627.161 1402.037,1585.383 1399.992,1557.717 1413.249 M761.689 1709.674 C 742.701 1717.942,719.516 1740.232,711.460 1757.966 C 702.652 1777.354,701.635 1818.596,709.500 1837.419 C 731.088 1889.088,799.032 1913.736,845.233 1886.661 C 863.972 1875.679,878.232 1859.809,888.957 1838.000 C 910.884 1793.409,891.434 1739.705,844.470 1715.171 C 820.265 1702.526,783.683 1700.097,761.689 1709.674 M1157.717 1713.249 C 1117.505 1732.517,1095.234 1775.776,1103.939 1817.707 C 1118.214 1886.470,1195.503 1919.556,1253.214 1881.607 C 1284.659 1860.931,1306.083 1808.769,1295.937 1777.589 C 1288.791 1755.632,1269.632 1730.143,1251.006 1717.817 C 1227.161 1702.037,1185.383 1699.992,1157.717 1713.249 M1557.717 1713.249 C 1517.505 1732.517,1495.234 1775.776,1503.939 1817.707 C 1518.214 1886.470,1595.503 1919.556,1653.214 1881.607 C 1684.659 1860.931,1706.083 1808.769,1695.937 1777.589 C 1688.791 1755.632,1669.632 1730.143,1651.006 1717.817 C 1627.161 1702.037,1585.383 1699.992,1557.717 1713.249 " fill="#1D1E23" stroke="none" fill-rule="evenodd"/></svg>