<svg viewBox="0 0 2400 2400" fill="none" xmlns="http://www.w3.org/2000/svg"><path d="M664.177 110.059 C 641.706 120.214,624.901 135.042,613.089 155.136 C 602.469 173.202,601.940 176.642,600.593 236.441 L 599.186 298.882 540.593 301.664 C 475.661 304.748,436.744 311.366,413.444 323.285 C 387.171 336.724,356.592 363.720,338.535 389.415 C 304.828 437.381,307.013 417.186,303.202 716.000 C 301.336 862.300,300.380 1195.300,301.078 1456.000 C 302.248 1892.786,302.895 1931.866,309.324 1953.770 C 326.534 2012.414,379.120 2066.682,440.000 2088.628 L 466.000 2098.000 732.000 2098.000 C 975.511 2098.000,999.942 2097.399,1020.970 2090.897 C 1045.474 2083.319,1066.595 2065.783,1078.733 2042.937 C 1087.985 2025.523,1088.180 1974.839,1079.062 1957.699 C 1072.014 1944.451,1046.435 1919.725,1031.520 1911.743 C 1019.679 1905.406,880.963 1900.515,704.781 1900.222 L 571.561 1900.000 547.820 1883.878 C 534.763 1875.011,521.315 1862.410,517.937 1855.877 C 505.731 1832.274,503.716 1763.028,501.264 1283.000 L 498.798 800.000 1199.069 800.000 L 1899.341 800.000 1900.762 911.000 C 1902.349 1035.029,1903.437 1040.706,1931.032 1069.026 C 1945.638 1084.014,1979.902 1100.000,1997.424 1100.000 C 2018.353 1100.000,2049.202 1087.057,2066.687 1070.940 C 2100.383 1039.880,2097.861 1065.319,2099.125 743.714 L 2100.251 457.427 2083.439 423.714 C 2053.298 363.268,2001.269 321.328,1940.000 308.086 C 1927.900 305.471,1891.700 302.329,1859.555 301.104 L 1801.111 298.877 1799.007 238.439 C 1796.603 169.365,1791.542 151.451,1768.789 131.474 C 1745.215 110.775,1722.494 102.704,1694.193 104.976 C 1652.064 108.358,1617.355 132.491,1608.208 164.760 C 1605.521 174.242,1602.352 208.550,1601.166 241.000 L 1599.010 300.000 1200.079 300.000 L 801.149 300.000 799.074 239.000 C 796.329 158.271,789.129 140.842,748.701 117.064 C 726.671 104.107,684.990 100.652,664.177 110.059 M1630.000 1207.765 C 1555.634 1216.399,1474.784 1249.624,1405.555 1299.998 C 1313.587 1366.918,1242.359 1473.765,1213.563 1588.000 C 1207.298 1612.852,1206.033 1632.415,1206.191 1702.000 C 1206.370 1780.755,1207.065 1788.498,1217.311 1826.000 C 1260.694 1984.776,1388.172 2120.007,1543.528 2172.055 C 1601.823 2191.586,1630.667 2196.000,1700.000 2196.000 C 1792.196 2196.000,1840.556 2184.157,1932.000 2139.186 L 1982.000 2114.596 2046.327 2050.298 C 2113.258 1983.396,2128.946 1961.912,2155.654 1900.579 C 2224.266 1743.019,2206.221 1554.230,2109.445 1417.140 C 2080.520 1376.165,2014.960 1312.357,1975.069 1286.355 C 1919.929 1250.413,1861.642 1226.322,1799.886 1213.950 C 1763.861 1206.733,1668.725 1203.269,1630.000 1207.765 M1982.787 1517.123 C 1996.321 1526.373,2009.198 1546.500,2013.652 1565.363 C 2015.640 1573.783,2013.641 1581.323,2005.934 1594.473 C 1994.024 1614.797,1845.454 1768.702,1727.933 1882.459 C 1629.047 1978.177,1622.992 1980.950,1577.953 1951.154 C 1551.857 1933.890,1430.581 1813.091,1406.686 1780.560 C 1391.785 1760.273,1388.000 1751.876,1388.000 1739.105 C 1388.000 1705.547,1417.923 1675.748,1452.093 1675.276 C 1473.758 1674.977,1487.175 1684.822,1558.177 1753.117 L 1616.615 1809.328 1719.308 1707.505 C 1865.339 1562.711,1917.993 1512.553,1928.671 1508.065 C 1941.871 1502.518,1967.757 1506.851,1982.787 1517.123 " fill="#1D1E23" stroke="none" fill-rule="evenodd"/></svg>