<svg viewBox="0 0 2400 2400" fill="none" xmlns="http://www.w3.org/2000/svg"><path d="M662.000 211.357 C 640.990 221.478,612.960 250.859,607.769 268.203 C 605.498 275.791,602.556 308.334,601.231 340.519 L 598.822 399.038 546.411 401.861 C 480.877 405.391,439.748 412.350,414.000 424.266 C 382.711 438.746,336.550 487.339,317.725 525.614 L 302.177 557.227 300.793 1247.614 C 300.031 1627.326,300.985 1963.200,302.913 1994.000 C 306.229 2046.984,307.219 2051.662,321.292 2080.861 C 341.104 2121.965,376.892 2158.073,417.914 2178.347 L 447.813 2193.124 526.907 2196.348 C 629.582 2200.533,1770.008 2200.550,1872.561 2196.368 C 1949.210 2193.243,1951.778 2192.858,1978.077 2180.551 C 1997.679 2171.378,2013.442 2159.489,2035.858 2136.969 C 2075.754 2096.887,2086.335 2078.316,2092.244 2038.000 C 2095.642 2014.814,2097.421 1806.035,2098.700 1280.000 L 2100.467 554.000 2082.082 522.000 C 2046.563 460.174,1990.840 416.913,1935.806 408.436 C 1921.613 406.250,1885.523 403.229,1855.607 401.723 L 1801.213 398.985 1798.706 335.307 C 1795.907 264.196,1792.476 252.270,1768.847 231.524 C 1748.391 213.564,1732.108 208.000,1700.000 208.000 C 1667.892 208.000,1651.609 213.564,1631.153 231.524 C 1607.491 252.299,1604.095 264.155,1601.274 335.815 L 1598.747 400.000 1199.954 400.000 L 801.162 400.000 798.923 341.000 C 796.540 278.211,790.947 253.971,774.865 236.718 C 749.607 209.623,692.322 196.750,662.000 211.357 M1898.081 1323.000 C 1896.479 1555.650,1893.919 1789.234,1892.394 1842.074 C 1889.745 1933.849,1889.181 1938.951,1879.810 1956.074 C 1867.910 1977.818,1851.237 1986.845,1811.005 1993.327 C 1767.603 2000.319,630.275 1999.958,586.263 1992.938 C 547.148 1986.699,532.810 1978.667,520.233 1955.949 C 511.012 1939.292,510.310 1933.387,507.647 1850.154 C 506.096 1801.669,503.513 1568.050,501.907 1331.000 L 498.987 900.000 1199.991 900.000 L 1900.995 900.000 1898.081 1323.000 M765.203 1108.183 C 746.464 1113.953,713.587 1147.631,708.378 1166.394 C 693.847 1218.730,712.471 1263.900,757.706 1286.031 C 796.717 1305.117,836.596 1299.138,865.929 1269.804 C 915.461 1220.273,904.163 1146.693,842.170 1115.066 C 823.975 1105.784,784.470 1102.251,765.203 1108.183 M1169.467 1109.468 C 1088.111 1136.100,1080.026 1247.392,1156.674 1285.586 C 1185.900 1300.150,1217.579 1299.994,1244.851 1285.151 C 1287.486 1261.946,1309.828 1202.341,1290.263 1164.000 C 1281.411 1146.655,1257.622 1121.242,1243.100 1113.619 C 1227.152 1105.248,1188.939 1103.094,1169.467 1109.468 M1569.467 1109.468 C 1488.111 1136.100,1480.026 1247.392,1556.674 1285.586 C 1585.900 1300.150,1617.579 1299.994,1644.851 1285.151 C 1687.486 1261.946,1709.828 1202.341,1690.263 1164.000 C 1681.411 1146.655,1657.622 1121.242,1643.100 1113.619 C 1627.152 1105.248,1588.939 1103.094,1569.467 1109.468 M765.203 1408.183 C 746.464 1413.953,713.587 1447.631,708.378 1466.394 C 693.847 1518.730,712.471 1563.900,757.706 1586.031 C 796.717 1605.117,836.596 1599.138,865.929 1569.804 C 915.461 1520.273,904.163 1446.693,842.170 1415.066 C 823.975 1405.784,784.470 1402.251,765.203 1408.183 M1169.467 1409.468 C 1088.111 1436.100,1080.026 1547.392,1156.674 1585.586 C 1185.900 1600.150,1217.579 1599.994,1244.851 1585.151 C 1287.486 1561.946,1309.828 1502.341,1290.263 1464.000 C 1281.411 1446.655,1257.622 1421.242,1243.100 1413.619 C 1227.152 1405.248,1188.939 1403.094,1169.467 1409.468 M1569.467 1409.468 C 1488.111 1436.100,1480.026 1547.392,1556.674 1585.586 C 1585.900 1600.150,1617.579 1599.994,1644.851 1585.151 C 1687.486 1561.946,1709.828 1502.341,1690.263 1464.000 C 1681.411 1446.655,1657.622 1421.242,1643.100 1413.619 C 1627.152 1405.248,1588.939 1403.094,1569.467 1409.468 M765.203 1708.183 C 746.464 1713.953,713.587 1747.631,708.378 1766.394 C 693.847 1818.730,712.471 1863.900,757.706 1886.031 C 796.717 1905.117,836.596 1899.138,865.929 1869.804 C 915.461 1820.273,904.163 1746.693,842.170 1715.066 C 823.975 1705.784,784.470 1702.251,765.203 1708.183 M1169.467 1709.468 C 1088.111 1736.100,1080.026 1847.392,1156.674 1885.586 C 1185.900 1900.150,1217.579 1899.994,1244.851 1885.151 C 1287.486 1861.946,1309.828 1802.341,1290.263 1764.000 C 1281.411 1746.655,1257.622 1721.242,1243.100 1713.619 C 1227.152 1705.248,1188.939 1703.094,1169.467 1709.468 M1569.467 1709.468 C 1488.111 1736.100,1480.026 1847.392,1556.674 1885.586 C 1585.900 1900.150,1617.579 1899.994,1644.851 1885.151 C 1687.486 1861.946,1709.828 1802.341,1690.263 1764.000 C 1681.411 1746.655,1657.622 1721.242,1643.100 1713.619 C 1627.152 1705.248,1588.939 1703.094,1569.467 1709.468 " fill="#1D1E23" stroke="none" fill-rule="evenodd"/></svg>