<svg viewBox="0 0 2400 2400" fill="none" xmlns="http://www.w3.org/2000/svg"><path d="M564.177 110.059 C 541.706 120.214,524.901 135.042,513.089 155.136 C 502.469 173.202,501.940 176.642,500.593 236.441 L 499.186 298.882 440.593 301.664 C 375.661 304.748,336.744 311.366,313.444 323.285 C 287.171 336.724,256.592 363.720,238.535 389.415 C 204.828 437.381,207.013 417.186,203.202 716.000 C 201.336 862.300,200.380 1195.300,201.078 1456.000 C 202.248 1892.786,202.895 1931.866,209.324 1953.770 C 226.534 2012.414,279.120 2066.682,340.000 2088.628 L 366.000 2098.000 632.000 2098.000 C 875.511 2098.000,899.942 2097.399,920.970 2090.897 C 945.474 2083.319,966.595 2065.783,978.733 2042.937 C 987.985 2025.523,988.180 1974.839,979.062 1957.699 C 972.014 1944.451,946.435 1919.725,931.520 1911.743 C 919.679 1905.406,780.963 1900.515,604.781 1900.222 L 471.561 1900.000 447.820 1883.878 C 434.763 1875.011,421.315 1862.410,417.937 1855.877 C 405.731 1832.274,403.716 1763.028,401.264 1283.000 L 398.798 800.000 1099.069 800.000 L 1799.341 800.000 1800.762 911.000 C 1802.349 1035.029,1803.437 1040.706,1831.032 1069.026 C 1845.638 1084.014,1879.902 1100.000,1897.424 1100.000 C 1918.353 1100.000,1949.202 1087.057,1966.687 1070.940 C 2000.383 1039.880,1997.861 1065.319,1999.125 743.714 L 2000.251 457.427 1983.439 423.714 C 1953.298 363.268,1901.269 321.328,1840.000 308.086 C 1827.900 305.471,1791.700 302.329,1759.555 301.104 L 1701.111 298.877 1699.007 238.439 C 1696.603 169.365,1691.542 151.451,1668.789 131.474 C 1645.215 110.775,1622.494 102.704,1594.193 104.976 C 1552.064 108.358,1517.355 132.491,1508.208 164.760 C 1505.521 174.242,1502.352 208.550,1501.166 241.000 L 1499.010 300.000 1100.079 300.000 L 701.149 300.000 699.074 239.000 C 696.329 158.271,689.129 140.842,648.701 117.064 C 626.671 104.107,584.990 100.652,564.177 110.059 M1526.000 1216.178 C 1497.601 1219.921,1434.535 1239.613,1396.840 1256.508 C 1356.226 1274.711,1296.524 1316.250,1261.099 1350.953 C 1186.364 1424.165,1139.467 1509.580,1117.683 1612.162 C 1107.724 1659.056,1107.576 1753.513,1117.388 1800.000 C 1143.979 1925.986,1211.801 2032.663,1314.000 2109.248 C 1371.740 2152.518,1461.680 2189.559,1534.000 2199.855 C 1581.063 2206.556,1661.602 2204.800,1700.357 2196.228 C 1807.485 2172.535,1884.575 2131.299,1957.027 2058.936 C 2021.884 1994.157,2059.682 1930.127,2086.621 1839.406 L 2101.291 1790.000 2101.245 1708.000 C 2101.202 1631.982,2100.427 1623.134,2090.618 1586.712 C 2078.641 1542.243,2060.424 1494.602,2045.225 1468.000 C 2014.899 1414.924,1950.856 1344.914,1894.207 1302.911 C 1854.454 1273.436,1783.860 1238.615,1742.534 1228.097 C 1692.821 1215.445,1579.067 1209.183,1526.000 1216.178 M1484.217 1487.479 C 1493.998 1493.793,1525.866 1521.863,1555.036 1549.858 L 1608.072 1600.758 1658.956 1551.866 C 1723.518 1489.830,1743.513 1476.000,1768.636 1476.000 C 1803.456 1476.000,1837.175 1511.195,1837.721 1548.109 C 1838.087 1572.915,1822.962 1594.997,1761.228 1659.786 L 1714.739 1708.575 1748.647 1743.287 C 1839.524 1836.320,1850.106 1855.364,1832.481 1894.165 C 1818.789 1924.310,1784.201 1943.930,1754.556 1938.368 C 1736.799 1935.037,1711.298 1914.993,1653.147 1858.660 L 1607.610 1814.546 1570.805 1850.572 C 1482.668 1936.843,1462.709 1948.354,1424.988 1934.672 C 1400.685 1925.856,1379.596 1898.981,1373.649 1869.246 C 1370.347 1852.737,1393.465 1820.218,1452.143 1758.833 L 1500.743 1707.989 1450.959 1656.057 C 1423.577 1627.494,1396.257 1597.028,1390.246 1588.355 C 1346.200 1524.797,1419.737 1445.857,1484.217 1487.479 " fill="#1D1E23" stroke="none" fill-rule="evenodd"/></svg>