<svg viewBox="0 0 2400 2400" fill="none" xmlns="http://www.w3.org/2000/svg"><path d="M674.463 204.261 C 655.914 208.842,630.966 226.426,617.914 244.117 C 604.577 262.194,600.000 288.645,600.000 347.651 L 600.000 398.908 531.000 401.078 C 452.357 403.550,433.995 407.756,396.747 431.831 C 362.740 453.811,337.967 480.911,321.586 514.051 C 308.820 539.879,307.427 546.377,304.002 596.051 C 299.557 660.526,299.212 1970.512,303.627 2020.900 C 309.550 2088.507,350.597 2147.054,414.060 2178.419 C 442.639 2192.544,448.510 2193.919,491.492 2196.548 C 552.161 2200.260,1847.839 2200.260,1908.508 2196.548 C 1951.490 2193.919,1957.361 2192.544,1985.940 2178.419 C 2026.884 2158.184,2058.159 2126.934,2078.346 2086.089 C 2092.951 2056.536,2093.690 2053.063,2096.932 1998.657 C 2098.789 1967.496,2099.789 1630.600,2099.154 1250.000 L 2098.000 558.000 2088.375 534.000 C 2067.938 483.044,2034.927 446.703,1986.959 422.356 C 1954.394 405.826,1918.331 400.314,1841.419 400.108 L 1800.838 400.000 1799.200 337.000 C 1797.390 267.358,1794.107 254.723,1772.109 232.725 C 1750.555 211.170,1729.525 202.296,1700.000 202.296 C 1670.475 202.296,1649.445 211.170,1627.891 232.725 C 1605.893 254.723,1602.610 267.358,1600.800 337.000 L 1599.162 400.000 1200.000 400.000 L 800.838 400.000 799.200 337.000 C 797.390 267.358,794.107 254.723,772.109 232.725 C 746.460 207.075,708.211 195.926,674.463 204.261 M1899.914 1363.000 C 1899.831 1814.572,1897.436 1930.005,1887.758 1948.801 C 1880.819 1962.279,1863.612 1979.873,1850.848 1986.539 C 1844.714 1989.742,1821.314 1994.021,1798.848 1996.047 C 1745.519 2000.856,654.481 2000.856,601.152 1996.047 C 578.686 1994.021,555.286 1989.742,549.152 1986.539 C 536.266 1979.809,519.171 1962.255,512.046 1948.436 C 502.414 1929.755,500.344 1828.405,500.173 1367.000 L 500.000 900.000 1200.000 900.000 L 1900.000 900.000 1899.914 1363.000 M792.000 1103.452 C 751.695 1107.402,726.048 1125.230,706.620 1162.801 C 700.757 1174.139,700.000 1195.547,700.000 1350.000 C 700.000 1503.627,700.780 1525.922,706.548 1537.199 C 718.649 1560.856,736.042 1579.306,755.087 1588.685 L 774.000 1598.000 948.000 1598.000 C 1082.377 1598.000,1125.414 1596.791,1136.992 1592.693 C 1156.261 1585.871,1185.871 1556.261,1192.693 1536.992 C 1200.379 1515.281,1200.379 1184.719,1192.693 1163.008 C 1185.778 1143.477,1155.641 1113.555,1136.823 1107.539 C 1120.436 1102.299,837.924 1098.950,792.000 1103.452 " fill="#1D1E23" stroke="none" fill-rule="evenodd"/></svg>