<svg viewBox="0 0 2400 2400" fill="none" xmlns="http://www.w3.org/2000/svg"><path d="M575.282 105.641 C 542.569 114.343,512.891 142.970,504.415 174.000 C 502.011 182.800,500.035 214.471,500.022 244.380 L 500.000 298.759 434.611 301.440 C 335.853 305.487,308.461 315.256,259.708 363.813 C 231.902 391.508,215.252 420.262,207.486 454.000 C 201.656 479.327,197.666 1813.585,203.167 1898.193 C 206.506 1949.546,207.960 1956.781,220.041 1982.193 C 229.340 2001.750,241.679 2018.417,261.631 2038.369 C 297.821 2074.559,330.150 2090.758,376.920 2096.136 C 419.935 2101.082,852.023 2101.086,895.030 2096.141 C 934.865 2091.561,957.786 2077.997,974.906 2048.872 C 984.394 2032.733,986.000 2025.613,986.000 1999.705 C 986.000 1972.968,984.578 1967.107,973.894 1949.810 C 966.385 1937.653,954.357 1925.615,942.216 1918.106 C 923.019 1906.232,921.336 1905.950,854.322 1903.400 C 816.745 1901.970,715.629 1900.620,629.620 1900.400 L 473.240 1900.000 448.359 1883.919 C 408.336 1858.051,407.104 1853.487,403.548 1718.000 C 401.932 1656.400,400.472 1424.650,400.304 1203.000 L 400.000 800.000 1100.000 800.000 L 1800.000 800.000 1800.028 891.000 C 1800.067 1013.458,1802.077 1032.242,1817.623 1055.396 C 1835.618 1082.198,1873.513 1101.382,1904.000 1099.124 C 1941.444 1096.351,1974.667 1073.975,1992.111 1039.782 C 1999.979 1024.360,2000.132 1017.751,1999.078 739.007 L 1998.000 454.000 1984.784 426.090 C 1966.032 386.487,1943.080 358.650,1912.488 338.404 C 1868.670 309.405,1827.202 300.095,1741.567 300.030 L 1701.135 300.000 1699.085 237.000 C 1696.699 163.658,1693.455 153.002,1666.210 129.021 C 1642.429 108.087,1626.244 102.744,1592.408 104.656 C 1570.397 105.900,1561.853 108.544,1545.095 119.297 C 1533.847 126.515,1521.789 136.779,1518.299 142.105 C 1506.058 160.788,1500.000 196.121,1500.000 248.840 L 1500.000 300.000 1100.567 300.000 L 701.135 300.000 698.996 237.000 C 696.661 168.235,693.864 156.655,674.755 136.643 C 648.428 109.072,608.805 96.723,575.282 105.641 M1520.000 1216.227 C 1488.262 1220.917,1418.492 1244.632,1381.697 1263.237 C 1268.764 1320.337,1174.043 1429.496,1134.596 1548.000 C 1087.771 1688.668,1105.544 1844.040,1182.477 1966.582 C 1261.288 2092.112,1375.092 2170.035,1520.296 2197.890 C 1554.538 2204.459,1640.844 2206.859,1670.343 2202.063 C 1752.510 2188.704,1824.517 2161.328,1886.333 2119.945 C 1903.750 2108.285,1936.168 2080.577,1958.372 2058.372 C 2028.168 1988.577,2065.121 1923.381,2090.898 1824.562 C 2101.267 1784.811,2101.982 1776.849,2101.732 1704.000 C 2101.489 1632.900,2100.538 1622.557,2090.984 1587.082 C 2065.095 1490.956,2032.067 1432.871,1964.000 1363.767 C 1914.963 1313.983,1877.574 1286.420,1820.849 1258.239 C 1763.103 1229.551,1726.156 1219.683,1662.000 1215.814 C 1594.416 1211.738,1549.491 1211.868,1520.000 1216.227 M1485.704 1487.183 C 1494.342 1493.133,1525.470 1521.223,1554.879 1549.607 L 1608.349 1601.213 1653.174 1557.370 C 1744.517 1468.029,1761.505 1460.190,1804.582 1487.509 C 1823.893 1499.756,1835.541 1518.904,1838.896 1543.916 C 1842.325 1569.479,1826.313 1593.008,1756.596 1664.858 L 1715.009 1707.717 1769.416 1764.412 C 1822.529 1819.760,1840.023 1844.515,1839.978 1864.263 C 1839.872 1910.450,1800.562 1944.884,1754.929 1938.764 C 1736.623 1936.308,1719.123 1922.595,1655.065 1860.511 L 1608.130 1815.022 1556.746 1864.511 C 1498.653 1920.462,1479.071 1935.356,1459.407 1938.547 C 1438.409 1941.954,1411.933 1933.048,1397.471 1917.714 C 1382.313 1901.641,1370.128 1872.005,1373.368 1859.092 C 1377.866 1841.171,1402.405 1809.750,1451.379 1759.202 L 1500.861 1708.130 1444.766 1649.812 C 1386.680 1589.423,1375.984 1574.111,1376.022 1551.395 C 1376.080 1516.669,1388.883 1496.500,1421.285 1480.087 C 1442.175 1469.507,1463.441 1471.849,1485.704 1487.183 " fill="#1D1E23" stroke="none" fill-rule="evenodd"/></svg>