<svg viewBox="0 0 2400 2400" fill="none" xmlns="http://www.w3.org/2000/svg"><path d="M1800 300H1900C2010 300 2100 390 2100 500V1001.34C2100 1056.56 2055.23 1101.34 2000 1101.34C1946.49 1101.34 1902.79 1059.3 1900.13 1006.45L1900 1006.42V800H500V1800C500 1855 545 1900 600 1900H1004.49V1901.1C1052.62 1908.32 1089.52 1949.86 1089.52 2000C1089.52 2050.14 1052.62 2091.66 1004.49 2098.89V2100H500C389 2100 300 2010 300 1900L301 500C301 390 389 300 500 300H600V200C600 144.772 644.772 100 700 100C755.228 100 800 144.772 800 200V300H1600V200C1600 144.772 1644.77 100 1700 100C1755.23 100 1800 144.772 1800 200V300Z" fill="#1D1E23"/><path fill-rule="evenodd" d="M1700 2200C1976.14 2200 2200 1976.14 2200 1700C2200 1423.86 1976.14 1200 1700 1200C1423.86 1200 1200 1423.86 1200 1700C1200 1976.14 1423.86 2200 1700 2200ZM1497.87 1691.34L1616.95 1810.44L1902.14 1523.03C1928.02 1497.15 1970.18 1497.15 1996.06 1523.03C2021.95 1548.92 2021.95 1591.07 1996.06 1616.96L1667.98 1945.04C1639.14 1973.88 1592.54 1973.88 1563.7 1945.04L1403.94 1785.27C1378.06 1759.38 1378.06 1717.23 1403.94 1691.34C1429.83 1665.46 1471.98 1665.46 1497.87 1691.34Z" fill="#1D1E23"/></svg>