<svg viewBox="0 0 2400 2400" fill="none" xmlns="http://www.w3.org/2000/svg"><path d="M666.363 206.293 C 643.583 214.639,625.689 229.702,613.089 251.136 C 602.398 269.322,601.952 272.335,600.656 335.000 L 599.312 400.000 542.390 400.000 C 511.084 400.000,474.789 401.945,461.735 404.321 C 406.957 414.294,349.626 457.177,324.516 506.959 C 298.665 558.208,300.124 510.851,300.059 1300.803 C 300.017 1810.332,301.287 2025.778,304.420 2040.803 C 320.053 2115.765,384.235 2179.947,459.197 2195.580 C 473.648 2198.593,581.220 2199.988,797.197 2199.961 L 1114.000 2199.922 1134.029 2190.595 C 1155.848 2180.434,1177.839 2158.148,1186.500 2137.419 C 1193.575 2120.488,1193.575 2079.512,1186.500 2062.581 C 1178.655 2043.803,1157.449 2020.969,1138.379 2010.764 C 1122.093 2002.050,1120.439 2001.989,848.000 2000.000 L 574.000 1998.000 554.995 1988.641 C 544.542 1983.493,530.643 1972.794,524.107 1964.865 C 498.676 1934.013,500.000 1964.639,500.000 1407.287 L 500.000 900.000 1200.000 900.000 L 1900.000 900.000 1900.000 1007.287 C 1900.000 1130.796,1902.117 1142.328,1929.895 1170.105 C 1968.972 1209.183,2029.346 1209.303,2069.392 1170.383 C 2100.980 1139.683,2100.000 1150.025,2100.000 847.484 C 2100.000 667.946,2098.551 573.445,2095.580 559.197 C 2081.755 492.905,2033.261 437.781,1966.000 411.902 C 1945.070 403.849,1932.918 402.440,1871.000 400.888 L 1800.000 399.108 1800.000 342.267 C 1800.000 274.066,1794.810 254.599,1770.014 229.804 C 1728.068 187.857,1656.981 192.403,1621.197 239.319 C 1603.125 263.014,1600.048 278.080,1600.022 343.000 L 1600.000 400.000 1200.000 400.000 L 800.000 400.000 800.000 342.713 C 800.000 274.096,794.842 254.632,770.105 229.895 C 742.868 202.658,701.791 193.312,666.363 206.293 M2030.000 1407.588 C 2023.400 1411.745,2000.458 1432.912,1979.018 1454.627 L 1940.036 1494.107 2023.147 1577.147 L 2106.258 1660.188 2150.820 1615.021 C 2196.042 1569.186,2203.210 1557.360,2198.113 1537.000 C 2195.057 1524.791,2088.962 1415.011,2071.199 1405.676 C 2056.578 1397.993,2044.332 1398.561,2030.000 1407.588 M1644.988 1789.012 L 1400.000 2034.024 1400.000 2117.012 L 1400.000 2200.000 1483.012 2200.000 L 1566.024 2200.000 1811.988 1954.012 L 2057.951 1708.024 1976.012 1626.012 C 1930.946 1580.905,1893.151 1544.000,1892.024 1544.000 C 1890.898 1544.000,1779.731 1654.255,1644.988 1789.012 " fill="#1D1E23" stroke="none" fill-rule="evenodd"/></svg>