<svg viewBox="0 0 2400 2400" fill="none" xmlns="http://www.w3.org/2000/svg"><path d="M674.463 204.261 C 655.914 208.842,630.966 226.426,617.914 244.117 C 604.577 262.194,600.000 288.645,600.000 347.651 L 600.000 398.908 531.000 401.078 C 452.357 403.550,433.995 407.756,396.747 431.831 C 362.740 453.811,337.967 480.911,321.586 514.051 C 308.820 539.879,307.427 546.377,304.002 596.051 C 299.557 660.526,299.212 1970.512,303.627 2020.900 C 309.550 2088.507,350.597 2147.054,414.060 2178.419 C 442.639 2192.544,448.510 2193.919,491.492 2196.548 C 552.161 2200.260,1847.839 2200.260,1908.508 2196.548 C 1951.490 2193.919,1957.361 2192.544,1985.940 2178.419 C 2026.884 2158.184,2058.159 2126.934,2078.346 2086.089 C 2092.951 2056.536,2093.690 2053.063,2096.932 1998.657 C 2098.789 1967.496,2099.789 1630.600,2099.154 1250.000 L 2098.000 558.000 2088.375 534.000 C 2067.938 483.044,2034.927 446.703,1986.959 422.356 C 1954.394 405.826,1918.331 400.314,1841.419 400.108 L 1800.838 400.000 1799.200 337.000 C 1797.390 267.358,1794.107 254.723,1772.109 232.725 C 1750.555 211.170,1729.525 202.296,1700.000 202.296 C 1670.475 202.296,1649.445 211.170,1627.891 232.725 C 1605.893 254.723,1602.610 267.358,1600.800 337.000 L 1599.162 400.000 1200.000 400.000 L 800.838 400.000 799.200 337.000 C 797.390 267.358,794.107 254.723,772.109 232.725 C 746.460 207.075,708.211 195.926,674.463 204.261 M1899.914 1363.000 C 1899.831 1814.572,1897.436 1930.005,1887.758 1948.801 C 1880.819 1962.279,1863.612 1979.873,1850.848 1986.539 C 1844.714 1989.742,1821.314 1994.021,1798.848 1996.047 C 1745.519 2000.856,654.481 2000.856,601.152 1996.047 C 578.686 1994.021,555.286 1989.742,549.152 1986.539 C 536.266 1979.809,519.171 1962.255,512.046 1948.436 C 502.414 1929.755,500.344 1828.405,500.173 1367.000 L 500.000 900.000 1200.000 900.000 L 1900.000 900.000 1899.914 1363.000 M898.000 1201.584 C 883.210 1213.288,698.946 1406.463,676.376 1433.927 C 655.603 1459.204,655.595 1468.769,676.324 1494.073 C 700.105 1523.105,888.013 1719.465,900.568 1728.405 C 915.177 1738.807,930.718 1737.927,946.622 1725.796 L 960.000 1715.593 960.000 1631.796 L 960.000 1548.000 1200.000 1548.000 L 1440.000 1548.000 1440.000 1625.740 C 1440.000 1668.496,1441.759 1708.106,1443.909 1713.761 C 1448.720 1726.413,1471.522 1737.991,1484.980 1734.614 C 1494.959 1732.109,1656.780 1570.507,1711.000 1508.900 C 1742.160 1473.494,1744.750 1465.838,1732.407 1445.598 C 1716.272 1419.138,1514.074 1208.531,1494.883 1198.196 C 1479.302 1189.805,1466.795 1191.503,1450.650 1204.203 L 1440.000 1212.581 1440.000 1296.290 L 1440.000 1380.000 1200.080 1380.000 L 960.159 1380.000 959.080 1295.156 L 958.000 1210.312 944.408 1201.156 C 927.083 1189.485,913.128 1189.614,898.000 1201.584 " fill="#1D1E23" stroke="none" fill-rule="evenodd"/></svg>