<svg viewBox="0 0 2400 2400" fill="none" xmlns="http://www.w3.org/2000/svg"><path d="M664.342 206.868 C 654.630 210.299,639.161 220.628,629.967 229.823 C 605.150 254.639,600.000 274.041,600.000 342.713 L 600.000 400.000 542.735 400.000 C 511.239 400.000,474.789 401.945,461.735 404.321 C 406.957 414.294,349.626 457.177,324.516 506.959 C 298.665 558.208,300.124 510.851,300.059 1300.803 C 300.017 1810.332,301.287 2025.778,304.420 2040.803 C 320.053 2115.765,384.235 2179.947,459.197 2195.580 C 489.170 2201.830,1910.830 2201.830,1940.803 2195.580 C 2015.765 2179.947,2079.947 2115.765,2095.580 2040.803 C 2101.830 2010.830,2101.830 589.170,2095.580 559.197 C 2081.755 492.905,2033.261 437.781,1966.000 411.902 C 1945.070 403.849,1932.918 402.440,1871.000 400.888 L 1800.000 399.108 1800.000 342.267 C 1800.000 274.135,1794.800 254.590,1770.105 229.895 C 1752.144 211.933,1724.160 200.000,1700.000 200.000 C 1675.840 200.000,1647.856 211.933,1629.895 229.895 C 1605.158 254.632,1600.000 274.096,1600.000 342.713 L 1600.000 400.000 1200.000 400.000 L 800.000 400.000 800.000 342.713 C 800.000 274.096,794.842 254.632,770.105 229.895 C 742.352 202.141,702.370 193.437,664.342 206.868 M1900.000 1405.274 C 1900.000 1973.975,1901.864 1938.346,1870.465 1969.745 C 1837.810 2002.400,1891.001 2000.000,1200.000 2000.000 C 509.722 2000.000,562.127 2002.338,529.895 1970.105 C 497.914 1938.125,500.000 1977.397,500.000 1407.287 L 500.000 900.000 1200.000 900.000 L 1900.000 900.000 1900.000 1405.274 M766.363 1106.293 C 743.583 1114.639,725.689 1129.702,713.089 1151.136 L 702.000 1170.000 702.000 1350.000 L 702.000 1530.000 713.089 1548.864 C 719.188 1559.240,730.112 1572.255,737.364 1577.786 C 765.697 1599.397,771.466 1600.000,949.790 1600.000 C 1137.075 1600.000,1140.703 1599.508,1170.105 1570.105 C 1199.504 1540.707,1200.000 1537.051,1200.000 1350.000 C 1200.000 1162.949,1199.504 1159.293,1170.105 1129.895 C 1140.613 1100.403,1137.308 1099.961,948.287 1100.282 C 814.450 1100.509,778.948 1101.682,766.363 1106.293 " fill="#1D1E23" stroke="none" fill-rule="evenodd"/></svg>