<svg viewBox="0 0 2400 2400" fill="none" xmlns="http://www.w3.org/2000/svg"><path d="M562.000 111.357 C 540.990 121.478,512.960 150.859,507.769 168.203 C 505.498 175.791,502.556 208.321,501.232 240.491 L 498.825 298.983 444.412 301.722 C 366.902 305.624,342.663 310.164,311.269 326.661 C 276.637 344.860,235.441 387.619,214.997 426.585 L 200.000 455.170 200.408 1172.585 C 200.863 1974.834,203.025 2139.935,213.442 2168.000 C 228.706 2209.125,275.265 2256.793,326.000 2283.241 L 346.000 2293.667 584.000 2296.455 C 932.061 2300.533,1889.446 2300.292,1978.737 2296.104 C 2050.911 2292.718,2056.858 2291.835,2078.737 2281.252 C 2105.846 2268.140,2161.202 2215.671,2177.275 2187.853 C 2184.368 2175.578,2189.238 2158.750,2192.324 2135.853 C 2195.566 2111.804,2197.404 1863.373,2198.672 1278.000 L 2200.457 454.000 2182.077 422.000 C 2146.571 360.181,2090.842 316.913,2035.806 308.436 C 2021.613 306.250,1985.523 303.229,1955.607 301.723 L 1901.213 298.985 1898.706 235.307 C 1895.907 164.196,1892.476 152.270,1868.847 131.524 C 1848.391 113.564,1832.108 108.000,1800.000 108.000 C 1767.892 108.000,1751.609 113.564,1731.153 131.524 C 1707.491 152.299,1704.095 164.155,1701.274 235.815 L 1698.747 300.000 1199.954 300.000 L 701.162 300.000 698.923 241.000 C 696.540 178.211,690.947 153.971,674.865 136.718 C 649.607 109.623,592.322 96.750,562.000 111.357 M1999.868 975.000 C 1999.584 1352.924,1992.266 2010.340,1988.104 2031.874 C 1983.293 2056.760,1967.012 2077.092,1944.000 2086.953 C 1919.011 2097.660,1675.181 2100.907,1055.614 2098.784 C 483.556 2096.824,472.951 2096.647,457.614 2088.806 C 437.273 2078.406,421.009 2063.081,415.533 2049.153 C 407.463 2028.630,404.681 1885.602,401.760 1341.000 L 398.857 800.000 1199.429 800.000 L 2000.000 800.000 1999.868 975.000 " fill="#1D1E23" stroke="none" fill-rule="evenodd"/></svg>