<svg viewBox="0 0 2400 2400" fill="none" xmlns="http://www.w3.org/2000/svg"><path d="M651.783 215.462 C 609.563 242.676,600.000 267.193,600.000 348.220 L 600.000 398.759 534.611 401.440 C 435.853 405.487,408.461 415.256,359.708 463.813 C 330.601 492.804,314.779 521.096,307.036 558.000 C 303.095 576.781,302.000 739.433,302.000 1306.000 C 302.000 1997.163,302.333 2031.089,309.347 2054.000 C 313.387 2067.200,321.968 2087.272,328.414 2098.604 C 344.298 2126.528,385.832 2164.462,417.698 2180.150 C 442.180 2192.202,447.805 2193.267,502.955 2196.288 C 579.921 2200.504,1820.079 2200.504,1897.045 2196.288 C 1952.464 2193.252,1957.747 2192.243,1983.045 2179.858 C 2019.172 2162.173,2062.071 2119.383,2079.622 2083.525 C 2091.386 2059.492,2092.932 2051.928,2096.385 2001.525 C 2098.632 1968.729,2099.741 1661.095,2099.094 1250.000 L 2098.000 554.000 2083.065 522.721 C 2056.871 467.863,2006.404 424.714,1950.526 409.401 C 1939.237 406.307,1900.997 402.659,1865.548 401.293 L 1801.097 398.811 1798.977 336.406 C 1797.811 302.083,1794.757 268.600,1792.190 262.000 C 1785.658 245.203,1760.988 220.435,1742.000 211.611 C 1720.519 201.628,1679.481 201.628,1658.000 211.611 C 1639.012 220.435,1614.342 245.203,1607.810 262.000 C 1605.243 268.600,1602.181 302.350,1601.004 337.000 L 1598.865 400.000 1200.000 400.000 L 801.135 400.000 799.085 337.000 C 796.743 265.002,793.411 253.388,768.701 231.091 C 746.237 210.821,728.007 204.000,696.295 204.000 C 673.679 204.000,666.830 205.764,651.783 215.462 M1898.626 1399.000 C 1897.340 1676.529,1894.642 1909.265,1892.547 1923.381 C 1888.156 1952.982,1874.061 1973.741,1850.362 1985.511 C 1825.223 1997.997,1752.712 1999.564,1200.000 1999.564 C 647.288 1999.564,574.777 1997.997,549.638 1985.511 C 526.578 1974.059,510.994 1951.865,507.058 1924.872 C 505.224 1912.292,502.678 1676.550,501.401 1401.000 L 499.080 900.000 1200.010 900.000 L 1900.940 900.000 1898.626 1399.000 M871.816 1103.767 C 777.102 1105.759,764.356 1106.812,753.816 1113.518 C 717.855 1136.397,702.362 1162.329,702.148 1200.000 C 701.901 1243.334,727.365 1279.434,767.529 1292.694 C 786.105 1298.826,1522.045 1302.404,1589.724 1296.691 C 1645.232 1292.005,1659.976 1285.660,1678.183 1258.625 C 1705.102 1218.652,1705.375 1184.197,1679.100 1142.805 C 1657.285 1108.438,1651.830 1107.094,1520.000 1103.603 C 1393.029 1100.240,1035.198 1100.331,871.816 1103.767 M768.679 1507.970 C 741.954 1514.292,711.991 1546.322,703.579 1577.563 C 694.604 1610.894,712.263 1660.066,740.012 1679.009 C 767.913 1698.055,767.210 1698.018,1096.000 1697.699 C 1266.500 1697.533,1414.782 1696.038,1425.516 1694.376 C 1440.902 1691.994,1449.082 1687.567,1464.164 1673.460 C 1489.530 1649.732,1497.176 1632.718,1497.176 1600.000 C 1497.176 1566.984,1489.164 1549.384,1463.715 1526.503 C 1448.789 1513.083,1440.148 1508.559,1425.645 1506.572 C 1398.755 1502.886,784.646 1504.193,768.679 1507.970 " fill="#1D1E23" stroke="none" fill-rule="evenodd"/></svg>