<svg viewBox="0 0 2400 2400" fill="none" xmlns="http://www.w3.org/2000/svg"><path d="M1900 400H1800V300C1800 244.772 1755.23 200 1700 200 1644.77 200 1600 244.772 1600 300V400H800V300C800 244.772 755.228 200 700 200 644.772 200 600 244.772 600 300V400H500C389 400 301 490 301 600L300 2000C300 2110 389 2200 500 2200H1093.64L1095.49 2199.98C1149.87 2198.99 1193.64 2154.61 1193.64 2100 1193.64 2045.4 1149.87 2001 1095.5 2000H600C545 2000 500 1955 500 1900V900H1900V1104.58L1900.13 1104.61C1902.79 1157.46 1946.49 1199.5 2000 1199.5 2055.23 1199.5 2100 1154.73 2100 1099.5V600C2100 490 2010 400 1900 400ZM1400 2200V2033.36L1891.49 1541.87 2058.13 1708.51 1566.64 2200H1400ZM2187 1516.98C2204.33 1534.31 2204.33 1562.31 2187 1579.64L2105.68 1660.96 1939.04 1494.32 2020.36 1413C2037.69 1395.67 2065.69 1395.67 2083.02 1413L2187 1516.98Z" fill="#1D1E23"/></svg>