<svg viewBox="0 0 2400 2400" fill="none" xmlns="http://www.w3.org/2000/svg"><path d="M670.535 207.885 C 640.558 217.486,610.567 249.296,603.733 278.737 C 601.785 287.132,600.148 317.508,600.095 346.240 L 600.000 398.481 533.000 403.101 C 432.145 410.056,404.873 419.857,360.573 465.071 C 333.024 493.186,319.415 514.002,312.890 538.000 C 304.736 567.986,300.435 867.956,300.385 1410.000 C 300.339 1902.776,303.079 2038.013,313.703 2067.518 C 323.560 2094.893,358.080 2138.240,385.486 2157.657 C 433.094 2191.388,438.155 2192.915,516.000 2197.038 C 604.095 2201.704,1094.658 2197.641,1121.875 2192.020 C 1145.809 2187.076,1167.378 2167.839,1182.091 2138.314 C 1204.177 2093.993,1189.019 2047.975,1142.097 2016.895 L 1124.108 2004.980 847.054 2001.991 L 570.000 1999.003 554.000 1987.901 C 526.158 1968.582,516.043 1955.082,511.842 1931.634 C 507.249 1906.000,500.464 1433.861,500.192 1121.000 L 500.000 900.000 1200.000 900.000 L 1900.000 900.000 1900.143 979.000 C 1900.314 1073.844,1904.850 1130.305,1913.667 1147.356 C 1917.252 1154.288,1929.080 1166.991,1939.952 1175.585 C 1962.313 1193.261,1985.801 1198.601,2021.000 1194.014 C 2040.324 1191.495,2044.118 1189.098,2068.539 1163.974 L 2095.077 1136.672 2097.880 1035.336 C 2099.422 979.601,2100.071 849.400,2099.324 746.000 C 2097.978 559.776,2097.877 557.793,2088.680 536.084 C 2070.286 492.668,2035.995 453.103,1996.000 429.148 C 1971.130 414.252,1939.590 407.744,1869.554 403.054 L 1801.108 398.470 1798.785 340.235 C 1795.924 268.481,1792.221 254.870,1769.649 233.131 C 1729.442 194.409,1660.720 196.789,1624.394 238.162 C 1607.829 257.028,1604.221 273.094,1601.297 341.000 L 1598.756 400.000 1199.959 400.000 L 801.162 400.000 798.923 341.000 C 795.768 257.883,787.465 238.134,747.015 217.544 C 725.991 206.843,688.552 202.114,670.535 207.885 M2031.678 1411.344 C 2021.839 1417.584,1997.069 1438.600,1976.633 1458.048 L 1939.477 1493.407 2022.667 1576.668 L 2105.857 1659.928 2131.171 1634.964 C 2159.491 1607.036,2200.000 1556.115,2200.000 1548.445 C 2200.000 1527.296,2073.996 1400.000,2053.062 1400.000 C 2051.140 1400.000,2041.516 1405.105,2031.678 1411.344 M1644.988 1789.012 L 1400.000 2034.024 1400.000 2117.012 L 1400.000 2200.000 1483.012 2200.000 L 1566.024 2200.000 1811.988 1954.012 L 2057.951 1708.024 1976.012 1626.012 C 1930.946 1580.905,1893.151 1544.000,1892.024 1544.000 C 1890.898 1544.000,1779.731 1654.255,1644.988 1789.012 " fill="#1D1E23" stroke="none" fill-rule="evenodd"/></svg>