<svg viewBox="0 0 2400 2400" fill="none" xmlns="http://www.w3.org/2000/svg"><path d="M600.000 300.000 L 600.000 400.000 450.000 400.000 L 300.000 400.000 300.000 1300.000 L 300.000 2200.000 1200.000 2200.000 L 2100.000 2200.000 2100.000 1300.000 L 2100.000 400.000 1950.000 400.000 L 1800.000 400.000 1800.000 300.000 L 1800.000 200.000 1700.000 200.000 L 1600.000 200.000 1600.000 300.000 L 1600.000 400.000 1200.000 400.000 L 800.000 400.000 800.000 300.000 L 800.000 200.000 700.000 200.000 L 600.000 200.000 600.000 300.000 M1900.000 1450.000 L 1900.000 2000.000 1200.000 2000.000 L 500.000 2000.000 500.000 1450.000 L 500.000 900.000 1200.000 900.000 L 1900.000 900.000 1900.000 1450.000 M825.081 1299.688 C 719.058 1426.735,700.907 1450.324,705.081 1455.639 C 707.787 1459.083,764.000 1526.724,830.000 1605.951 L 950.000 1750.000 951.070 1651.000 L 952.140 1552.000 1200.000 1552.000 L 1447.860 1552.000 1448.930 1651.000 L 1450.000 1750.000 1570.000 1605.951 C 1636.000 1526.724,1692.213 1459.083,1694.919 1455.639 C 1699.093 1450.324,1680.942 1426.735,1574.919 1299.688 L 1450.000 1150.000 1448.931 1251.000 L 1447.863 1352.000 1200.000 1352.000 L 952.137 1352.000 951.069 1251.000 L 950.000 1150.000 825.081 1299.688 " fill="#1D1E23" stroke="none" fill-rule="evenodd"/></svg>