<svg viewBox="0 0 2400 2400" fill="none" xmlns="http://www.w3.org/2000/svg"><path d="M577.328 103.647 C 542.660 112.424,511.127 142.885,503.733 174.737 C 501.785 183.132,500.148 214.504,500.095 244.454 L 500.000 298.908 431.000 301.078 C 352.357 303.550,333.995 307.756,296.747 331.831 C 262.740 353.811,237.967 380.911,221.586 414.051 C 208.820 439.879,207.427 446.377,204.002 496.051 C 199.557 560.526,199.212 1870.512,203.627 1920.900 C 206.131 1949.480,209.417 1961.329,221.774 1986.332 C 249.658 2042.751,307.155 2086.493,366.000 2096.054 C 392.936 2100.431,814.269 2101.498,881.882 2097.361 C 921.324 2094.948,926.554 2093.667,943.100 2082.361 C 971.214 2063.152,984.471 2041.660,986.875 2011.395 C 987.984 1997.428,986.918 1978.704,984.504 1969.788 C 978.652 1948.167,956.276 1922.784,933.237 1911.631 C 914.637 1902.627,912.808 1902.541,692.146 1900.279 L 469.798 1898.000 448.518 1884.339 C 413.387 1861.785,407.806 1849.668,403.778 1787.205 C 401.890 1757.942,400.268 1523.850,400.173 1267.000 L 400.000 800.000 1099.595 800.000 L 1799.190 800.000 1800.726 915.000 C 1802.181 1023.979,1802.720 1030.870,1811.015 1046.613 C 1827.086 1077.115,1865.230 1100.000,1900.000 1100.000 C 1936.388 1100.000,1973.381 1076.796,1990.335 1043.338 L 2000.395 1023.485 1999.191 740.743 L 1997.986 458.000 1988.368 434.000 C 1967.733 382.512,1934.038 345.352,1886.832 322.021 C 1854.103 305.846,1817.377 300.311,1741.419 300.108 L 1700.838 300.000 1699.200 237.000 C 1697.390 167.358,1694.107 154.723,1672.109 132.725 C 1639.256 99.872,1592.269 92.421,1552.983 113.835 C 1510.634 136.917,1500.000 163.170,1500.000 244.636 L 1500.000 300.000 1100.419 300.000 L 700.838 300.000 699.200 237.000 C 697.390 167.358,694.107 154.723,672.109 132.725 C 647.300 107.915,608.041 95.871,577.328 103.647 M1490.535 1222.353 C 1399.586 1246.156,1332.061 1282.605,1268.877 1342.000 C 1149.740 1453.994,1096.222 1596.497,1111.658 1760.627 C 1121.186 1861.938,1161.517 1953.638,1232.453 2035.278 C 1355.516 2176.909,1546.795 2236.574,1729.335 2190.269 C 1951.344 2133.952,2104.629 1937.137,2104.939 1708.000 C 2105.125 1571.397,2055.615 1451.281,1960.000 1356.359 C 1898.170 1294.977,1820.427 1248.822,1740.000 1225.745 C 1704.957 1215.691,1695.308 1214.733,1616.000 1213.433 C 1533.984 1212.089,1528.172 1212.503,1490.535 1222.353 M1475.014 1479.899 C 1485.494 1484.656,1514.311 1509.449,1550.054 1544.462 L 1608.080 1601.304 1661.154 1549.126 C 1717.789 1493.447,1746.642 1472.000,1764.916 1472.000 C 1778.368 1472.000,1810.942 1487.751,1821.380 1499.303 C 1830.550 1509.451,1839.592 1534.174,1839.824 1549.737 C 1840.155 1571.839,1823.435 1596.062,1769.083 1652.221 L 1715.088 1708.012 1772.067 1766.770 C 1803.406 1799.087,1831.511 1831.426,1834.523 1838.635 C 1844.698 1862.986,1838.748 1897.259,1820.847 1917.419 C 1803.351 1937.123,1764.301 1945.247,1738.635 1934.523 C 1731.426 1931.511,1699.071 1903.391,1666.735 1872.033 L 1607.942 1815.020 1552.048 1869.389 C 1493.542 1926.300,1473.749 1940.000,1450.031 1940.000 C 1433.915 1940.000,1410.056 1931.095,1398.714 1920.847 C 1387.664 1910.864,1372.000 1878.068,1372.000 1864.916 C 1372.000 1846.642,1393.447 1817.789,1449.126 1761.154 L 1501.304 1708.080 1445.096 1650.701 C 1414.182 1619.143,1385.797 1587.343,1382.018 1580.036 C 1372.143 1560.939,1375.075 1522.151,1387.739 1504.367 C 1397.926 1490.061,1431.596 1472.047,1448.000 1472.127 C 1453.500 1472.154,1465.656 1475.651,1475.014 1479.899 " fill="#1D1E23" stroke="none" fill-rule="evenodd"/></svg>