<svg viewBox="0 0 2400 2400" fill="none" xmlns="http://www.w3.org/2000/svg"><path d="M600.000 300.000 L 600.000 400.000 450.000 400.000 L 300.000 400.000 300.000 1300.000 L 300.000 2200.000 1200.000 2200.000 L 2100.000 2200.000 2100.000 1300.000 L 2100.000 400.000 1950.000 400.000 L 1800.000 400.000 1800.000 300.000 L 1800.000 200.000 1700.000 200.000 L 1600.000 200.000 1600.000 300.000 L 1600.000 400.000 1200.000 400.000 L 800.000 400.000 800.000 300.000 L 800.000 200.000 700.000 200.000 L 600.000 200.000 600.000 300.000 M1900.000 1450.000 L 1900.000 2000.000 1200.000 2000.000 L 500.000 2000.000 500.000 1450.000 L 500.000 900.000 1200.000 900.000 L 1900.000 900.000 1900.000 1450.000 M846.578 1274.000 C 749.158 1390.803,704.127 1447.111,704.038 1452.232 C 704.017 1453.460,759.350 1520.960,827.000 1602.232 L 950.000 1750.000 951.070 1651.000 L 952.140 1552.000 1200.000 1552.000 L 1447.860 1552.000 1448.930 1651.000 L 1450.000 1750.000 1573.000 1602.125 C 1640.650 1520.794,1695.983 1453.294,1695.962 1452.125 C 1695.871 1447.109,1650.144 1389.967,1553.422 1274.000 L 1450.000 1150.000 1448.931 1251.000 L 1447.863 1352.000 1200.000 1352.000 L 952.137 1352.000 951.069 1251.000 L 950.000 1150.000 846.578 1274.000 " fill="#1D1E23" stroke="none" fill-rule="evenodd"/></svg>