<svg viewBox="0 0 2400 2400" fill="none" xmlns="http://www.w3.org/2000/svg"><path d="M564.342 106.868 C 554.630 110.299,539.161 120.628,529.967 129.823 C 505.192 154.597,500.000 174.080,500.000 242.267 L 500.000 299.108 429.000 300.888 C 367.082 302.440,354.930 303.849,334.000 311.902 C 266.739 337.781,218.245 392.905,204.420 459.197 C 198.161 489.211,198.161 2110.789,204.420 2140.803 C 220.053 2215.765,284.235 2279.947,359.197 2295.580 C 389.211 2301.839,2010.789 2301.839,2040.803 2295.580 C 2115.765 2279.947,2179.947 2215.765,2195.580 2140.803 C 2201.839 2110.789,2201.839 489.211,2195.580 459.197 C 2181.755 392.905,2133.261 337.781,2066.000 311.902 C 2045.070 303.849,2032.918 302.440,1971.000 300.888 L 1900.000 299.108 1900.000 242.267 C 1900.000 174.135,1894.800 154.590,1870.105 129.895 C 1830.979 90.768,1769.021 90.768,1729.895 129.895 C 1705.158 154.632,1700.000 174.096,1700.000 242.713 L 1700.000 300.000 1200.000 300.000 L 700.000 300.000 700.000 242.713 C 700.000 174.096,694.842 154.632,670.105 129.895 C 642.352 102.141,602.370 93.437,564.342 106.868 M2000.000 1405.274 C 2000.000 2085.620,2002.112 2038.098,1970.465 2069.745 C 1937.640 2102.571,2003.111 2100.000,1200.000 2100.000 C 397.685 2100.000,462.298 2102.508,429.895 2070.105 C 397.677 2037.887,400.000 2089.402,400.000 1407.287 L 400.000 800.000 1200.000 800.000 L 2000.000 800.000 2000.000 1405.274 " fill="#1D1E23" stroke="none" fill-rule="evenodd"/></svg>