<svg viewBox="0 0 2400 2400" fill="none" xmlns="http://www.w3.org/2000/svg"><path d="M500.000 200.000 L 500.000 300.000 350.000 300.000 L 200.000 300.000 200.000 1300.000 L 200.000 2300.000 1200.000 2300.000 L 2200.000 2300.000 2200.000 1300.000 L 2200.000 300.000 2050.000 300.000 L 1900.000 300.000 1900.000 200.000 L 1900.000 100.000 1800.000 100.000 L 1700.000 100.000 1700.000 200.000 L 1700.000 300.000 1200.000 300.000 L 700.000 300.000 700.000 200.000 L 700.000 100.000 600.000 100.000 L 500.000 100.000 500.000 200.000 M2000.000 1450.000 L 2000.000 2100.000 1200.000 2100.000 L 400.000 2100.000 400.000 1450.000 L 400.000 800.000 1200.000 800.000 L 2000.000 800.000 2000.000 1450.000 " fill="#1D1E23" stroke="none" fill-rule="evenodd"/></svg>