<svg viewBox="0 0 2400 2400" fill="none" xmlns="http://www.w3.org/2000/svg"><path d="M675.282 205.641 C 642.569 214.343,612.891 242.970,604.415 274.000 C 602.011 282.800,600.035 314.471,600.022 344.380 L 600.000 398.759 534.611 401.440 C 435.853 405.487,408.461 415.256,359.708 463.813 C 331.902 491.508,315.252 520.262,307.486 554.000 C 301.656 579.327,297.666 1913.585,303.167 1998.193 C 306.471 2049.007,308.036 2056.932,319.516 2080.986 C 344.080 2132.455,394.955 2176.208,446.885 2190.525 C 472.320 2197.537,493.824 2198.000,794.000 2198.000 C 970.000 2198.000,1119.106 2196.577,1125.346 2194.837 C 1141.133 2190.436,1175.694 2157.227,1184.498 2138.000 C 1205.030 2093.160,1185.568 2039.187,1139.907 2014.336 L 1119.226 2003.079 845.299 2000.936 L 571.372 1998.793 547.425 1983.315 C 508.475 1958.140,507.089 1952.918,503.548 1818.000 C 501.932 1756.400,500.472 1524.650,500.304 1303.000 L 500.000 900.000 1199.547 900.000 L 1899.095 900.000 1901.045 1011.000 C 1902.184 1075.759,1904.848 1127.737,1907.440 1135.772 C 1912.963 1152.886,1936.851 1178.022,1957.922 1188.891 C 1977.640 1199.061,2020.788 1199.935,2038.973 1190.531 C 2058.431 1180.469,2075.427 1164.402,2086.375 1145.722 L 2096.592 1128.286 2098.921 851.056 C 2101.101 591.478,2100.792 572.431,2094.068 551.913 C 2080.682 511.067,2065.517 486.336,2038.167 460.752 C 1990.043 415.734,1958.514 404.874,1865.548 401.293 L 1801.097 398.811 1799.066 336.406 C 1796.701 263.711,1793.413 252.965,1766.210 229.021 C 1742.429 208.087,1726.244 202.744,1692.408 204.656 C 1670.397 205.900,1661.853 208.544,1645.095 219.297 C 1633.847 226.515,1621.789 236.779,1618.299 242.105 C 1606.058 260.788,1600.000 296.121,1600.000 348.840 L 1600.000 400.000 1200.567 400.000 L 801.135 400.000 798.996 337.000 C 796.661 268.235,793.864 256.655,774.755 236.643 C 748.428 209.072,708.805 196.723,675.282 205.641 M2032.582 1408.210 C 2025.203 1412.709,2001.270 1433.754,1979.399 1454.977 L 1939.634 1493.564 2022.752 1576.753 L 2105.870 1659.942 2135.211 1630.971 C 2169.850 1596.769,2200.000 1558.141,2200.000 1547.963 C 2200.000 1532.787,2111.141 1434.783,2076.693 1411.965 C 2055.330 1397.815,2050.330 1397.390,2032.582 1408.210 M1644.988 1789.012 L 1400.000 2034.024 1400.000 2117.012 L 1400.000 2200.000 1483.012 2200.000 L 1566.024 2200.000 1811.988 1954.012 L 2057.951 1708.024 1976.012 1626.012 C 1930.946 1580.905,1893.151 1544.000,1892.024 1544.000 C 1890.898 1544.000,1779.731 1654.255,1644.988 1789.012 " fill="#1D1E23" stroke="none" fill-rule="evenodd"/></svg>