<svg viewBox="0 0 2400 2400" fill="none" xmlns="http://www.w3.org/2000/svg"><path d="M1700 300H1800C1910 300 2000 390 2000 500V1001.34C2000 1056.56 1955.23 1101.34 1900 1101.34C1846.49 1101.34 1802.79 1059.3 1800.13 1006.45L1800 1006.42V800H400V1800C400 1855 445 1900 500 1900H904.492V1901.1C952.619 1908.32 989.524 1949.86 989.524 2000C989.524 2050.14 952.621 2091.66 904.492 2098.89V2100H400C289 2100 200 2010 200 1900L201 500C201 390 289 300 400 300H500V200C500 144.772 544.772 100 600 100C655.228 100 700 144.772 700 200V300H1500V200C1500 144.772 1544.77 100 1600 100C1655.23 100 1700 144.772 1700 200V300Z" fill="#1D1E23"/><path fill-rule="evenodd" d="M1960.69 2060.66C2155.96 1865.4 2155.96 1548.82 1960.69 1353.55C1765.43 1158.29 1448.85 1158.29 1253.59 1353.55C1058.32 1548.82 1058.33 1865.4 1253.59 2060.66C1448.85 2255.92 1765.43 2255.92 1960.69 2060.66ZM1607.14 1813.17L1501.07 1919.24C1471.91 1948.41 1424.18 1948.41 1395.01 1919.24C1365.84 1890.07 1365.84 1842.34 1395.01 1813.17L1501.07 1707.11L1395.01 1601.04C1365.84 1571.87 1365.84 1524.14 1395.01 1494.97C1424.18 1465.81 1471.91 1465.81 1501.07 1494.97L1607.14 1601.04L1713.21 1494.97C1742.37 1465.81 1790.1 1465.81 1819.27 1494.97C1848.44 1524.14 1848.44 1571.87 1819.27 1601.04L1713.21 1707.11L1819.27 1813.17C1848.44 1842.34 1848.44 1890.07 1819.27 1919.24C1790.1 1948.41 1742.37 1948.41 1713.21 1919.24L1607.14 1813.17Z" fill="#1D1E23"/></svg>