<svg viewBox="0 0 2400 2400" fill="none" xmlns="http://www.w3.org/2000/svg"><path d="M1118.000 206.424 C 956.947 218.282,787.043 277.650,644.362 371.923 C 494.452 470.972,358.807 630.799,288.119 791.674 C 266.998 839.740,242.361 911.165,230.085 959.915 C 182.920 1147.222,193.856 1354.889,260.483 1537.119 C 334.478 1739.503,470.551 1912.980,650.000 2033.707 C 696.182 2064.777,800.010 2116.962,857.739 2138.120 C 908.419 2156.694,1005.333 2181.431,1062.000 2190.256 C 1129.444 2200.759,1285.600 2199.715,1350.000 2188.330 C 1565.633 2150.209,1739.801 2062.760,1894.450 1914.965 C 2167.011 1654.483,2267.301 1255.006,2149.937 897.307 C 2068.516 649.154,1906.900 452.080,1682.000 326.706 C 1573.429 266.182,1435.324 222.100,1324.000 212.437 C 1271.207 207.854,1147.583 204.246,1118.000 206.424 M1318.496 412.297 C 1440.631 426.829,1598.264 496.531,1705.754 583.535 C 1764.829 631.352,1827.251 701.125,1868.994 766.000 C 1890.423 799.305,1931.605 880.624,1947.540 921.101 C 1961.707 957.086,1977.603 1017.601,1986.653 1070.000 C 1996.263 1125.637,1996.222 1269.582,1986.580 1326.000 C 1962.110 1469.194,1904.150 1598.379,1816.292 1705.550 C 1785.050 1743.660,1717.219 1808.729,1678.832 1837.412 C 1533.448 1946.046,1346.246 2005.866,1174.000 1998.728 C 1016.201 1992.189,861.530 1938.574,730.966 1845.156 C 713.167 1832.420,677.066 1801.300,650.742 1776.000 C 575.704 1703.880,527.457 1637.271,482.120 1543.205 C 427.485 1429.849,404.000 1326.069,404.000 1198.000 C 404.000 1069.631,429.138 960.751,484.126 850.953 C 597.098 625.373,796.830 470.508,1042.919 417.686 C 1100.756 405.271,1237.042 402.606,1318.496 412.297 M1616.961 812.441 C 1605.360 818.183,1504.085 916.081,1299.695 1119.127 L 999.469 1417.379 934.734 1353.491 C 842.953 1262.911,798.438 1221.368,783.211 1212.084 C 758.862 1197.239,706.554 1203.949,678.233 1225.551 C 649.334 1247.593,635.499 1299.911,649.628 1333.726 C 659.795 1358.059,930.606 1630.510,960.529 1646.510 C 969.752 1651.442,982.925 1653.759,1002.298 1653.857 C 1029.318 1653.994,1031.576 1653.260,1052.298 1637.619 C 1087.131 1611.327,1252.276 1451.086,1442.000 1259.491 C 1648.514 1050.940,1743.029 950.974,1750.565 933.128 C 1764.511 900.101,1750.730 847.642,1722.439 826.063 C 1691.989 802.838,1647.871 797.140,1616.961 812.441 " fill="#1D1E23" stroke="none" fill-rule="evenodd"/></svg>