<svg viewBox="0 0 2400 2400" fill="none" xmlns="http://www.w3.org/2000/svg"><path d="M1062.000 210.040 C 838.845 245.765,647.360 340.791,498.022 489.920 C 335.373 652.340,239.530 845.602,207.371 1076.000 C 199.343 1133.512,200.542 1278.601,209.535 1338.000 C 259.968 1671.099,465.368 1953.685,762.000 2098.072 C 996.553 2212.242,1262.178 2230.922,1508.000 2150.533 C 1764.708 2066.585,1981.131 1878.587,2098.027 1638.000 C 2234.203 1357.731,2233.307 1038.111,2095.564 760.000 C 2043.904 655.694,1982.750 570.004,1904.273 491.959 C 1757.151 345.647,1581.994 255.288,1368.000 215.310 C 1310.952 204.652,1116.566 201.304,1062.000 210.040 M1326.000 411.837 C 1622.919 460.750,1864.045 666.230,1959.754 951.902 C 1999.698 1071.128,2008.586 1220.991,1983.463 1351.671 C 1917.079 1696.981,1632.628 1957.109,1279.158 1995.753 C 1025.610 2023.473,757.215 1914.525,591.610 1716.662 C 393.891 1480.428,345.941 1159.772,467.097 884.000 C 573.880 640.941,790.372 466.063,1046.000 416.371 C 1138.265 398.435,1235.125 396.867,1326.000 411.837 M1329.007 1088.987 L 1000.020 1417.974 870.977 1288.977 L 741.934 1159.980 671.991 1230.009 L 602.048 1300.038 802.030 1500.020 L 1002.012 1700.003 1401.981 1300.019 L 1801.950 900.035 1732.018 830.018 C 1693.555 791.508,1661.165 760.000,1660.040 760.000 C 1658.915 760.000,1509.950 908.044,1329.007 1088.987 " fill="#1D1E23" stroke="none" fill-rule="evenodd"/></svg>