<svg viewBox="0 0 2400 2400" fill="none" xmlns="http://www.w3.org/2000/svg"><path d="M1920.641 610.114 C 1904.527 617.112,1817.372 702.597,1299.256 1219.592 L 900.511 1617.474 725.007 1443.737 C 628.480 1348.182,541.700 1264.622,532.163 1258.048 C 517.705 1248.083,510.070 1245.856,486.230 1244.652 C 443.057 1242.472,415.118 1257.604,393.172 1295.053 C 380.587 1316.527,378.730 1352.597,388.978 1376.531 C 395.531 1391.835,730.791 1733.289,814.601 1810.017 C 866.254 1857.306,880.797 1863.723,918.546 1855.887 C 939.849 1851.464,941.965 1849.599,1095.054 1700.308 C 1364.926 1437.129,2041.776 754.758,2049.955 737.617 C 2061.280 713.882,2059.788 677.166,2046.582 654.632 C 2034.751 634.444,2016.022 617.311,1997.128 609.394 C 1980.321 602.351,1937.592 602.753,1920.641 610.114 " fill="#1D1E23" stroke="none" fill-rule="evenodd"/></svg>