<svg viewBox="0 0 2400 2400" fill="none" xmlns="http://www.w3.org/2000/svg"><path d="M1112.000 204.220 C 666.753 244.872,303.331 572.758,218.540 1010.317 C 147.915 1374.769,285.254 1747.583,576.000 1980.656 C 948.217 2279.040,1479.623 2271.554,1846.000 1962.766 C 2142.943 1712.498,2268.973 1302.525,2162.395 933.537 C 2154.843 907.392,2146.624 880.696,2144.132 874.213 L 2139.599 862.425 2059.696 942.329 L 1979.792 1022.233 1987.892 1070.116 C 2015.647 1234.181,1991.403 1400.801,1917.944 1550.849 C 1796.348 1799.221,1559.627 1964.889,1282.000 1995.912 C 1085.155 2017.907,873.543 1957.479,710.000 1832.570 C 674.030 1805.098,606.674 1738.415,576.092 1700.000 C 449.460 1540.936,387.274 1339.850,403.222 1141.000 C 419.302 940.502,501.142 765.080,642.640 627.819 C 710.756 561.743,765.491 523.173,850.000 481.701 C 1083.047 367.336,1358.838 374.441,1585.541 500.650 L 1629.083 524.890 1700.832 453.140 L 1772.582 381.391 1741.291 361.099 C 1554.685 240.090,1330.702 184.252,1112.000 204.220 M1559.008 878.988 L 1060.019 1377.977 918.006 1236.006 L 775.993 1094.035 705.011 1165.018 L 634.028 1236.000 846.004 1448.004 L 1057.981 1660.009 1628.972 1089.028 L 2199.964 518.047 2131.025 449.023 C 2093.108 411.061,2061.166 380.000,2060.041 380.000 C 2058.916 380.000,1833.451 604.545,1559.008 878.988 " fill="#1D1E23" stroke="none" fill-rule="evenodd"/></svg>