<svg viewBox="0 0 2400 2400" fill="none" xmlns="http://www.w3.org/2000/svg"><path d="M1062.000 210.040 C 838.845 245.765,647.360 340.791,498.022 489.920 C 335.373 652.340,239.530 845.602,207.371 1076.000 C 199.343 1133.512,200.542 1278.601,209.535 1338.000 C 259.968 1671.099,465.368 1953.685,762.000 2098.072 C 996.553 2212.242,1262.178 2230.922,1508.000 2150.533 C 1764.708 2066.585,1981.131 1878.587,2098.027 1638.000 C 2234.203 1357.731,2233.307 1038.111,2095.564 760.000 C 2043.904 655.694,1982.750 570.004,1904.273 491.959 C 1757.151 345.647,1581.994 255.288,1368.000 215.310 C 1310.952 204.652,1116.566 201.304,1062.000 210.040 M1326.000 411.837 C 1622.919 460.750,1864.045 666.230,1959.754 951.902 C 1999.698 1071.128,2008.586 1220.991,1983.463 1351.671 C 1917.079 1696.981,1632.628 1957.109,1279.158 1995.753 C 1025.610 2023.473,757.215 1914.525,591.610 1716.662 C 393.891 1480.428,345.941 1159.772,467.097 884.000 C 573.880 640.941,790.372 466.063,1046.000 416.371 C 1138.265 398.435,1235.125 396.867,1326.000 411.837 M1622.999 807.079 C 1606.430 813.133,1565.363 852.654,1302.251 1115.749 L 1000.504 1417.476 901.939 1320.588 C 847.728 1267.299,795.995 1218.817,786.975 1212.850 C 773.130 1203.689,766.484 1202.048,744.288 1202.307 C 686.640 1202.981,642.649 1245.322,642.790 1300.000 C 642.821 1312.100,645.901 1329.200,649.634 1338.000 C 658.217 1358.231,928.923 1629.448,956.497 1645.441 C 982.706 1660.644,1016.751 1661.008,1041.758 1646.353 C 1051.617 1640.576,1089.904 1607.356,1126.841 1572.531 C 1209.102 1494.975,1693.939 1007.255,1727.248 968.553 C 1757.947 932.885,1764.587 909.825,1754.323 874.520 C 1737.956 818.217,1677.491 787.166,1622.999 807.079 " fill="#1D1E23" stroke="none" fill-rule="evenodd"/></svg>