<svg viewBox="0 0 2400 2400" fill="none" xmlns="http://www.w3.org/2000/svg"><path d="M1102.000 208.094 C 972.847 217.484,818.194 267.238,697.229 338.314 C 571.710 412.066,446.494 528.775,369.266 644.000 C 284.529 770.426,226.647 925.824,207.611 1078.000 C 201.168 1129.511,201.168 1266.489,207.611 1318.000 C 244.133 1609.966,406.585 1870.930,654.379 2035.693 C 892.305 2193.895,1193.913 2239.463,1473.125 2159.391 C 1639.980 2111.541,1779.477 2029.252,1902.194 1906.284 C 2100.658 1707.414,2207.403 1444.947,2198.386 1178.000 C 2193.472 1032.517,2184.244 1001.736,2136.455 971.428 C 2120.701 961.438,2114.605 960.000,2088.000 960.000 C 2061.468 960.000,2055.286 961.449,2039.783 971.299 C 2019.491 984.192,1996.383 1008.988,1995.201 1019.139 C 1994.762 1022.913,1994.272 1087.200,1994.113 1162.000 C 1993.868 1276.868,1992.705 1303.283,1986.630 1332.000 C 1949.406 1507.946,1867.799 1654.785,1737.592 1780.106 C 1635.389 1878.473,1526.791 1939.013,1389.345 1974.240 C 1241.648 2012.094,1111.901 2007.612,961.257 1959.452 C 746.222 1890.707,578.898 1745.058,481.679 1542.000 C 371.778 1312.452,379.145 1035.692,500.982 816.867 C 598.483 641.752,760.776 506.144,947.263 443.967 C 1029.021 416.708,1082.364 407.679,1176.000 405.251 C 1304.418 401.921,1381.796 415.923,1512.830 466.203 C 1593.013 496.971,1620.228 501.582,1648.315 489.158 C 1668.390 480.277,1689.127 461.158,1698.643 442.756 C 1707.234 426.143,1710.220 384.846,1704.157 366.477 C 1701.493 358.403,1694.782 346.413,1689.246 339.833 C 1647.631 290.377,1436.881 219.614,1296.571 207.986 C 1244.444 203.666,1162.280 203.712,1102.000 208.094 M2034.724 423.849 C 2028.522 425.833,2013.222 435.144,2000.724 444.542 C 1974.223 464.467,1645.542 787.728,1300.198 1133.516 L 1058.395 1375.629 970.198 1288.757 C 870.173 1190.235,829.025 1153.697,808.339 1145.035 C 785.845 1135.615,742.731 1140.583,722.152 1154.965 C 685.876 1180.317,670.137 1221.783,681.695 1261.544 C 687.145 1280.291,695.431 1290.954,749.226 1348.456 C 808.171 1411.464,952.526 1552.888,993.926 1588.191 C 1020.451 1610.809,1034.303 1616.000,1068.129 1616.000 L 1096.516 1616.000 1279.258 1435.171 C 1379.766 1335.715,1616.295 1100.424,1804.877 912.303 L 2147.754 570.264 2154.036 542.643 C 2159.748 517.530,2159.747 513.302,2154.025 496.074 C 2137.436 446.130,2077.847 410.054,2034.724 423.849 " fill="#1D1E23" stroke="none" fill-rule="evenodd"/></svg>