<svg viewBox="0 0 2400 2400" fill="none" xmlns="http://www.w3.org/2000/svg"><path d="M1070.000 210.500 C 914.840 233.276,770.904 289.011,638.000 377.778 C 526.871 452.001,415.611 568.562,343.794 686.000 C 280.711 789.156,220.235 963.581,207.696 1078.536 C 201.324 1136.953,205.164 1316.781,213.835 1366.000 C 241.672 1524.020,319.095 1695.192,420.089 1822.000 C 458.237 1869.899,548.482 1958.187,595.930 1994.028 C 731.928 2096.758,888.620 2162.463,1062.477 2189.667 C 1124.880 2199.431,1278.884 2198.465,1343.613 2187.903 C 1527.673 2157.872,1680.292 2091.325,1819.097 1980.575 C 1874.402 1936.448,1962.730 1846.972,1998.976 1798.357 C 2098.840 1664.413,2171.485 1484.240,2191.804 1320.105 C 2197.238 1276.212,2197.207 1134.727,2191.753 1084.842 C 2189.418 1063.479,2183.833 1028.000,2179.342 1006.000 C 2170.570 963.030,2145.467 876.066,2140.309 870.785 C 2138.583 869.017,2101.601 902.317,2058.128 944.785 L 1979.087 1022.000 1984.544 1054.000 C 1988.433 1076.813,1989.844 1121.027,1989.458 1208.000 C 1988.972 1317.516,1988.042 1333.684,1980.374 1366.000 C 1942.360 1526.194,1865.586 1663.597,1753.481 1772.074 C 1642.139 1879.812,1516.188 1946.719,1359.152 1981.544 C 1241.918 2007.542,1135.561 2005.767,1016.600 1975.828 C 713.522 1899.551,504.299 1688.135,423.715 1376.730 L 412.000 1331.459 412.000 1197.455 C 412.000 1047.779,413.150 1039.249,446.215 943.687 C 543.879 661.428,793.330 452.629,1079.442 413.656 C 1144.545 404.788,1276.372 404.964,1332.000 413.993 C 1407.865 426.308,1495.154 457.483,1597.627 508.862 L 1629.253 524.719 1701.165 452.807 L 1773.077 380.896 1735.539 358.879 C 1618.171 290.043,1498.785 242.562,1385.671 219.735 C 1346.912 211.913,1327.377 210.799,1212.000 209.830 C 1140.500 209.230,1076.600 209.531,1070.000 210.500 M1559.008 878.988 L 1060.019 1377.977 918.006 1236.006 L 775.993 1094.035 705.011 1165.018 L 634.028 1236.000 846.004 1448.004 L 1057.981 1660.009 1628.972 1089.028 L 2199.964 518.047 2131.025 449.023 C 2093.108 411.061,2061.166 380.000,2060.041 380.000 C 2058.916 380.000,1833.451 604.545,1559.008 878.988 " fill="#1D1E23" stroke="none" fill-rule="evenodd"/></svg>