<svg viewBox="0 0 2400 2400" fill="none" xmlns="http://www.w3.org/2000/svg"><path d="M1112.000 203.923 C 833.630 231.768,590.463 362.388,419.326 576.000 C 147.365 915.458,126.704 1391.677,368.248 1753.288 C 676.969 2215.470,1294.618 2338.595,1756.000 2029.929 C 2215.492 1722.528,2337.727 1104.086,2029.929 644.000 C 1872.846 409.198,1631.891 256.219,1349.288 211.869 C 1290.914 202.708,1165.973 198.524,1112.000 203.923 M1272.576 404.038 C 1577.061 433.717,1833.941 627.519,1945.870 912.000 C 2033.733 1135.312,2011.422 1400.632,1887.383 1607.541 C 1672.000 1966.819,1222.500 2101.493,850.000 1918.351 C 519.776 1755.994,342.689 1393.923,417.838 1034.756 C 462.965 819.077,600.109 627.929,792.459 512.617 C 934.690 427.351,1108.498 388.044,1272.576 404.038 M1329.007 1088.987 L 1000.020 1417.974 870.977 1288.977 L 741.934 1159.980 671.991 1230.009 L 602.048 1300.038 802.030 1500.020 L 1002.012 1700.003 1401.981 1300.019 L 1801.950 900.035 1732.018 830.018 C 1693.555 791.508,1661.165 760.000,1660.040 760.000 C 1658.915 760.000,1509.950 908.044,1329.007 1088.987 " fill="#1D1E23" stroke="none" fill-rule="evenodd"/></svg>