<svg viewBox="0 0 2400 2400" fill="none" xmlns="http://www.w3.org/2000/svg"><path d="M1050.920 214.235 C 966.802 227.326,872.611 255.504,790.526 292.132 C 548.270 400.231,350.343 611.983,262.121 857.444 C 177.255 1093.568,180.890 1337.421,272.697 1567.099 C 357.407 1779.020,519.807 1965.347,710.000 2068.830 C 804.085 2120.022,866.993 2144.767,966.846 2169.863 C 1054.834 2191.976,1090.203 2196.055,1194.881 2196.161 C 1298.719 2196.266,1335.332 2192.837,1408.000 2176.204 C 1560.892 2141.208,1696.294 2077.624,1812.000 1986.487 C 2041.196 1805.960,2174.407 1555.363,2196.258 1263.617 C 2214.486 1020.254,2128.022 757.770,1964.627 560.437 C 1802.499 364.635,1553.773 232.284,1310.000 212.101 C 1241.508 206.430,1093.219 207.651,1050.920 214.235 M1786.449 709.910 C 1810.048 716.918,1838.854 740.280,1846.520 758.629 C 1852.099 771.981,1853.413 822.573,1848.601 838.739 C 1843.316 856.493,1138.994 1561.564,1054.054 1634.130 C 1030.825 1653.976,1030.761 1654.000,1001.906 1654.000 C 976.792 1654.000,970.988 1652.559,957.508 1642.977 C 912.717 1611.139,615.394 1315.482,568.474 1256.123 C 546.493 1228.314,541.338 1210.206,547.529 1182.541 C 557.470 1138.122,587.567 1110.941,632.684 1105.639 C 675.381 1100.621,691.339 1113.126,883.273 1302.016 L 1000.547 1417.429 1243.273 1175.356 C 1580.553 838.986,1700.907 722.367,1721.074 712.385 C 1741.045 702.499,1759.182 701.813,1786.449 709.910 " fill="#1D1E23" stroke="none" fill-rule="evenodd"/></svg>