<svg viewBox="0 0 2400 2400" fill="none" xmlns="http://www.w3.org/2000/svg"><path d="M1112.000 203.923 C 833.630 231.768,590.463 362.388,419.326 576.000 C 147.365 915.458,126.704 1391.677,368.248 1753.288 C 676.969 2215.470,1294.618 2338.595,1756.000 2029.929 C 2215.492 1722.528,2337.727 1104.086,2029.929 644.000 C 1872.846 409.198,1631.891 256.219,1349.288 211.869 C 1290.914 202.708,1165.973 198.524,1112.000 203.923 M1798.000 709.549 C 1821.538 720.696,1841.142 740.120,1849.797 760.872 C 1857.742 779.920,1857.768 819.984,1849.848 839.128 C 1845.513 849.605,1727.607 970.212,1450.848 1247.264 C 1234.781 1463.560,1053.140 1643.110,1047.200 1646.264 C 1024.440 1658.349,997.936 1661.122,973.094 1654.017 C 950.362 1647.515,946.937 1644.357,754.716 1452.706 C 639.966 1338.297,555.952 1251.402,550.995 1242.000 C 544.963 1230.560,542.533 1218.590,542.469 1200.000 C 542.262 1140.058,591.172 1095.080,649.963 1101.148 C 661.588 1102.347,677.152 1106.372,684.550 1110.091 C 691.947 1113.810,765.959 1184.588,849.020 1267.376 L 1000.040 1417.898 1353.073 1064.949 C 1547.241 870.827,1706.982 711.973,1708.053 711.940 C 1709.124 711.907,1717.200 709.286,1726.000 706.115 C 1749.923 697.497,1775.082 698.697,1798.000 709.549 " fill="#1D1E23" stroke="none" fill-rule="evenodd"/></svg>