<svg viewBox="0 0 2400 2400" fill="none" xmlns="http://www.w3.org/2000/svg"><path d="M1064.000 210.367 C 874.053 240.305,709.167 312.696,566.000 429.010 C 528.128 459.778,454.074 534.378,422.184 573.887 C 324.712 694.643,259.844 830.080,223.842 988.000 C 206.083 1065.900,202.889 1098.666,202.983 1202.000 C 203.095 1325.775,212.933 1390.605,248.811 1504.000 C 325.010 1744.834,498.905 1955.873,720.000 2075.837 C 952.198 2201.826,1210.834 2231.939,1464.000 2162.462 C 1590.419 2127.768,1691.914 2078.385,1794.000 2001.898 C 1986.333 1857.795,2111.149 1670.097,2169.231 1437.626 C 2191.715 1347.635,2197.670 1297.911,2197.688 1200.000 C 2197.704 1110.675,2192.493 1060.310,2175.753 988.000 C 2162.973 932.792,2143.251 868.000,2139.227 868.000 C 2137.172 868.000,2100.373 902.650,2057.452 945.000 L 1979.412 1022.000 1986.706 1068.000 C 1992.340 1103.529,1993.957 1135.853,1993.813 1210.000 C 1993.640 1298.764,1992.809 1309.846,1982.785 1357.024 C 1915.386 1674.236,1680.272 1911.470,1364.000 1981.388 C 1188.353 2020.218,1011.724 1997.105,842.000 1913.081 C 622.372 1804.351,470.356 1604.205,417.363 1354.000 C 407.066 1305.384,406.338 1295.492,406.175 1202.000 C 406.033 1121.112,407.417 1094.355,413.417 1062.000 C 458.562 818.531,613.863 605.410,826.422 495.231 C 944.404 434.075,1039.588 409.136,1170.342 405.122 C 1323.152 400.431,1420.852 421.796,1560.375 490.414 L 1629.542 524.430 1701.231 452.742 L 1772.919 381.053 1735.649 357.999 C 1625.247 289.707,1502.808 241.742,1376.596 217.341 C 1327.242 207.799,1311.439 206.670,1212.000 205.582 C 1128.944 204.673,1092.692 205.845,1064.000 210.367 M1559.008 878.988 L 1060.019 1377.977 918.006 1236.006 L 775.993 1094.035 705.011 1165.018 L 634.028 1236.000 846.004 1448.004 L 1057.981 1660.009 1628.972 1089.028 L 2199.964 518.047 2131.025 449.023 C 2093.108 411.061,2061.166 380.000,2060.041 380.000 C 2058.916 380.000,1833.451 604.545,1559.008 878.988 " fill="#1D1E23" stroke="none" fill-rule="evenodd"/></svg>