<svg viewBox="0 0 2400 2400" fill="none" xmlns="http://www.w3.org/2000/svg"><path d="M1110.000 207.889 C 934.107 221.123,751.184 290.877,605.780 400.165 C 387.761 564.032,255.632 781.563,212.115 1048.276 C 200.432 1119.880,200.445 1276.200,212.140 1347.877 C 258.844 1634.122,413.551 1873.514,658.000 2037.794 C 706.911 2070.664,811.324 2122.480,867.791 2141.905 C 1123.396 2229.834,1395.272 2213.633,1638.000 2096.008 C 1905.924 1966.173,2117.088 1696.015,2177.332 1406.000 C 2194.182 1324.884,2197.820 1286.939,2197.467 1196.000 C 2196.954 1063.891,2186.781 1013.275,2155.328 986.353 C 2129.211 963.997,2114.971 958.970,2082.525 960.652 C 2058.177 961.913,2051.235 964.040,2035.120 975.174 C 2024.736 982.349,2011.437 994.516,2005.567 1002.212 L 1994.895 1016.204 1991.894 1173.102 L 1988.893 1330.000 1976.764 1374.326 C 1922.305 1573.352,1804.466 1743.490,1639.750 1860.911 C 1514.579 1950.141,1325.065 2005.946,1172.000 1998.647 C 983.243 1989.646,791.613 1908.847,655.634 1780.928 C 441.471 1579.459,355.519 1269.636,433.992 982.000 C 483.930 798.959,613.883 626.886,780.156 523.638 C 856.099 476.481,953.167 437.011,1034.523 420.204 C 1094.389 407.837,1199.774 402.169,1268.907 407.597 C 1356.518 414.476,1393.362 423.717,1540.063 475.604 C 1615.499 502.285,1639.474 501.555,1673.575 471.538 C 1697.706 450.298,1704.003 437.517,1706.805 404.093 C 1711.040 353.583,1693.194 331.814,1618.000 295.763 C 1545.403 260.958,1432.673 227.555,1342.735 214.201 C 1291.578 206.605,1170.660 203.326,1110.000 207.889 M2024.380 430.451 C 1994.285 445.599,1898.909 537.677,1441.877 992.809 L 1057.470 1375.619 1017.735 1335.381 C 995.881 1313.251,945.819 1264.782,906.486 1227.674 C 813.594 1140.034,795.756 1130.959,745.726 1145.885 C 691.509 1162.060,662.269 1225.891,686.991 1274.104 C 708.254 1315.572,981.113 1586.171,1021.674 1606.016 C 1039.512 1614.743,1047.313 1616.187,1071.224 1615.187 L 1099.603 1614.000 1623.490 1092.959 L 2147.377 571.918 2153.592 544.595 C 2160.558 513.968,2158.660 502.068,2142.381 474.289 C 2126.528 447.238,2095.743 426.783,2063.947 422.172 C 2049.120 420.022,2042.241 421.461,2024.380 430.451 " fill="#1D1E23" stroke="none" fill-rule="evenodd"/></svg>