<svg viewBox="0 0 2400 2400" fill="none" xmlns="http://www.w3.org/2000/svg"><path d="M1072.000 210.085 C 828.217 243.836,625.659 350.309,456.928 533.395 C 392.655 603.136,347.296 669.719,303.918 758.000 C 223.885 920.882,192.886 1078.125,203.673 1266.500 C 222.416 1593.799,414.800 1900.868,706.000 2068.277 C 966.389 2217.973,1286.970 2239.834,1570.000 2127.197 C 1700.483 2075.268,1814.427 1998.430,1914.547 1894.852 C 2077.722 1726.040,2175.687 1514.361,2196.322 1286.000 C 2204.371 1196.920,2194.296 1043.227,2178.425 1012.987 C 2170.830 998.514,2145.522 974.720,2128.000 965.576 C 2118.700 960.722,2105.271 958.243,2088.000 958.191 C 2066.559 958.127,2058.197 960.207,2040.308 970.057 C 2015.813 983.544,1997.512 1005.956,1993.426 1027.472 C 1991.909 1035.463,1992.465 1080.700,1994.662 1128.000 C 2000.971 1263.788,1992.887 1333.671,1959.069 1435.697 C 1901.378 1609.746,1781.734 1766.580,1628.085 1869.566 C 1484.258 1965.968,1294.691 2014.080,1130.000 1995.977 C 844.159 1964.559,606.983 1800.785,484.137 1550.000 C 418.705 1416.421,393.560 1272.657,407.880 1114.000 C 436.803 793.541,678.604 511.877,996.399 428.458 C 1177.827 380.835,1353.117 396.248,1538.000 476.082 C 1604.407 504.757,1646.000 502.451,1680.097 468.204 C 1700.679 447.532,1708.000 428.169,1708.000 394.407 C 1708.000 365.329,1701.229 349.615,1680.730 331.117 C 1629.340 284.746,1442.965 222.798,1311.158 208.279 C 1258.891 202.521,1119.003 203.578,1072.000 210.085 M2031.372 424.723 C 2021.963 427.229,2001.983 441.633,1975.372 465.095 C 1952.617 485.157,1736.833 698.273,1495.851 938.686 L 1057.701 1375.801 997.851 1315.500 C 911.678 1228.679,828.029 1151.651,813.128 1145.400 C 795.814 1138.136,755.187 1138.564,736.872 1146.203 C 718.016 1154.067,697.724 1173.437,686.797 1194.000 C 673.799 1218.464,674.708 1256.401,688.871 1280.492 C 707.193 1311.658,936.721 1541.754,1005.331 1597.733 C 1023.664 1612.691,1026.241 1613.552,1057.661 1615.201 L 1090.708 1616.935 1118.354 1592.933 C 1133.559 1579.732,1371.298 1344.615,1646.662 1070.452 L 2147.324 571.974 2154.072 542.987 C 2160.678 514.612,2160.639 513.519,2152.202 491.211 C 2145.864 474.454,2137.770 463.109,2121.624 448.353 C 2092.175 421.437,2067.734 415.038,2031.372 424.723 " fill="#1D1E23" stroke="none" fill-rule="evenodd"/></svg>