<svg viewBox="0 0 2400 2400" fill="none" xmlns="http://www.w3.org/2000/svg"><path d="M1112.000 203.923 C 833.630 231.768,590.463 362.388,419.326 576.000 C 147.365 915.458,126.704 1391.677,368.248 1753.288 C 676.969 2215.470,1294.618 2338.595,1756.000 2029.929 C 2215.492 1722.528,2337.727 1104.086,2029.929 644.000 C 1872.846 409.198,1631.891 256.219,1349.288 211.869 C 1290.914 202.708,1165.973 198.524,1112.000 203.923 M1832.014 730.129 L 1901.729 800.258 1451.870 1250.130 L 1002.011 1700.003 752.029 1450.021 L 502.047 1200.039 571.994 1130.006 L 641.941 1059.974 820.977 1238.977 L 1000.014 1417.981 1379.004 1038.990 C 1587.449 830.546,1758.963 660.000,1760.147 660.000 C 1761.331 660.000,1793.671 691.558,1832.014 730.129 " fill="#1D1E23" stroke="none" fill-rule="evenodd"/></svg>