<svg viewBox="0 0 2400 2400" fill="none" xmlns="http://www.w3.org/2000/svg"><path d="M1062.000 210.040 C 838.845 245.765,647.360 340.791,498.022 489.920 C 335.373 652.340,239.530 845.602,207.371 1076.000 C 199.343 1133.512,200.542 1278.601,209.535 1338.000 C 259.968 1671.099,465.368 1953.685,762.000 2098.072 C 996.553 2212.242,1262.178 2230.922,1508.000 2150.533 C 1764.708 2066.585,1981.131 1878.587,2098.027 1638.000 C 2234.203 1357.731,2233.307 1038.111,2095.564 760.000 C 2043.904 655.694,1982.750 570.004,1904.273 491.959 C 1757.151 345.647,1581.994 255.288,1368.000 215.310 C 1310.952 204.652,1116.566 201.304,1062.000 210.040 M1801.535 712.245 C 1821.842 722.723,1833.879 733.651,1845.250 751.932 C 1852.481 763.558,1854.000 771.971,1854.000 800.398 L 1854.000 834.796 1834.147 858.398 C 1823.227 871.379,1643.206 1053.363,1434.099 1262.806 C 1153.918 1543.438,1049.754 1645.347,1038.124 1650.206 C 1017.324 1658.897,980.998 1658.676,961.447 1649.739 C 941.079 1640.429,560.435 1260.062,550.805 1239.395 C 541.596 1219.631,541.952 1178.848,551.515 1158.000 C 560.497 1138.420,576.675 1121.950,597.948 1110.727 C 618.737 1099.759,659.282 1099.319,681.208 1109.824 C 690.285 1114.172,757.729 1177.650,848.488 1267.267 L 1000.559 1417.424 1353.280 1064.982 C 1681.911 736.611,1707.366 712.116,1726.000 706.324 C 1750.788 698.619,1779.486 700.869,1801.535 712.245 " fill="#1D1E23" stroke="none" fill-rule="evenodd"/></svg>