<svg viewBox="0 0 2400 2400" fill="none" xmlns="http://www.w3.org/2000/svg"><path d="M1092.000 208.195 C 959.583 217.612,774.985 284.088,650.000 367.365 C 586.905 409.405,555.098 435.257,502.648 487.127 C 363.854 624.385,276.854 775.163,230.161 959.365 C 205.012 1058.578,196.820 1154.108,203.644 1268.604 C 217.530 1501.574,324.411 1736.163,494.112 1906.139 C 648.455 2060.734,836.826 2154.470,1066.000 2190.721 C 1127.908 2200.514,1272.321 2200.465,1336.000 2190.631 C 1552.475 2157.198,1739.395 2065.492,1891.594 1918.045 C 1952.477 1859.063,1990.768 1813.407,2034.144 1748.075 C 2183.778 1522.703,2235.142 1240.028,2173.711 980.000 C 2081.156 588.228,1778.378 295.484,1387.331 219.679 C 1363.443 215.049,1313.780 210.156,1268.185 207.941 C 1181.755 203.743,1154.037 203.783,1092.000 208.195 M1334.000 413.196 C 1556.501 455.615,1742.195 575.670,1862.388 754.808 C 1895.177 803.677,1939.639 893.551,1956.974 946.000 C 2010.125 1106.816,2009.634 1291.421,1955.621 1454.000 C 1887.993 1657.562,1740.916 1824.258,1546.000 1918.262 C 1461.934 1958.806,1367.838 1986.140,1279.158 1995.778 C 1050.475 2020.633,804.518 1932.489,637.987 1766.002 C 434.541 1562.609,354.846 1265.491,429.870 990.104 C 479.378 808.375,600.474 641.992,762.786 532.684 C 850.943 473.316,972.202 426.959,1082.947 410.288 C 1134.142 402.581,1287.650 404.359,1334.000 413.196 M1636.579 804.364 C 1626.120 806.383,1611.732 813.691,1600.579 822.650 C 1590.360 830.857,1451.126 967.998,1291.170 1127.407 L 1000.339 1417.241 911.358 1330.091 C 862.418 1282.158,811.848 1234.179,798.981 1223.470 C 775.910 1204.271,775.197 1204.000,747.664 1204.000 C 701.588 1204.000,669.750 1222.473,653.083 1258.880 C 644.819 1276.931,643.393 1285.227,644.670 1307.827 C 646.131 1333.685,647.189 1336.208,665.942 1358.520 C 696.421 1394.782,932.010 1628.507,951.521 1641.837 C 972.546 1656.202,1009.702 1660.428,1032.144 1651.005 C 1054.091 1641.791,1114.484 1585.842,1283.431 1418.208 C 1523.915 1179.592,1733.188 964.223,1746.291 941.864 C 1755.498 926.154,1757.827 917.509,1757.564 900.031 C 1757.197 875.743,1743.784 844.361,1727.396 829.451 C 1704.025 808.188,1668.131 798.273,1636.579 804.364 " fill="#1D1E23" stroke="none" fill-rule="evenodd"/></svg>