<svg viewBox="0 0 2400 2400" fill="none" xmlns="http://www.w3.org/2000/svg"><path d="M1138.000 202.502 C 880.686 223.698,667.025 320.707,491.868 495.867 C 362.267 625.469,276.116 776.031,232.013 950.000 C 207.911 1045.075,202.284 1091.983,202.266 1198.000 C 202.249 1297.282,207.148 1342.942,226.729 1426.000 C 310.779 1782.524,582.658 2066.499,931.816 2162.459 C 1046.701 2194.032,1141.022 2203.486,1268.000 2196.155 C 1462.749 2184.910,1664.071 2107.418,1818.000 1984.452 C 2047.652 1800.994,2188.530 1527.010,2198.823 1243.817 C 2201.325 1174.970,2195.024 1077.486,2185.278 1034.265 C 2179.793 1009.937,2176.609 1004.178,2159.358 987.374 C 2139.555 968.086,2112.032 956.000,2087.910 956.000 C 2057.197 956.000,2019.893 976.284,2004.347 1001.438 C 1989.828 1024.931,1988.187 1047.349,1995.179 1126.729 C 2005.189 1240.384,1994.772 1331.982,1960.008 1435.976 C 1877.834 1681.793,1682.536 1880.658,1445.959 1959.412 C 1299.535 2008.155,1149.760 2012.366,997.674 1972.013 C 680.384 1887.828,448.538 1621.989,408.196 1296.105 C 401.942 1245.582,403.004 1133.844,410.209 1084.513 C 425.389 980.568,458.409 885.487,509.438 798.780 C 633.142 588.590,843.514 445.597,1081.796 409.741 C 1235.150 386.665,1382.920 407.870,1536.000 474.918 C 1578.328 493.458,1589.728 496.832,1610.293 496.909 C 1640.760 497.023,1665.355 486.625,1683.500 465.958 C 1702.595 444.210,1709.050 426.214,1708.898 395.151 C 1708.651 344.679,1686.708 322.169,1602.949 286.462 C 1516.787 249.731,1422.139 223.062,1331.214 209.895 C 1289.542 203.861,1174.801 199.470,1138.000 202.502 M2021.123 427.837 C 1997.728 438.458,1887.634 545.667,1438.189 995.499 L 1058.378 1375.638 947.765 1266.194 C 879.408 1198.559,830.438 1153.283,819.576 1147.675 C 806.860 1141.108,794.810 1138.526,776.000 1138.337 C 731.392 1137.888,694.151 1164.960,681.486 1207.043 C 674.458 1230.394,674.578 1241.758,682.117 1267.146 C 687.635 1285.726,696.946 1296.640,777.117 1378.497 C 894.698 1498.552,1006.107 1603.617,1023.564 1610.911 C 1032.959 1614.837,1047.168 1616.310,1066.307 1615.344 L 1094.977 1613.896 1126.488 1586.082 C 1143.820 1570.784,1380.497 1335.907,1652.438 1064.134 L 2146.876 570.000 2153.811 543.814 C 2159.610 521.921,2159.968 514.736,2155.996 499.987 C 2147.145 467.116,2118.996 436.322,2086.740 424.224 C 2069.415 417.726,2039.805 419.356,2021.123 427.837 " fill="#1D1E23" stroke="none" fill-rule="evenodd"/></svg>