<svg viewBox="0 0 2400 2400" fill="none" xmlns="http://www.w3.org/2000/svg"><path d="M1899.208 628.924 C 1869.398 653.668,1630.748 889.087,1207.008 1311.751 L 900.017 1617.964 787.008 1505.733 C 523.223 1243.762,515.226 1237.439,461.375 1248.265 C 411.890 1258.213,381.582 1296.668,384.696 1345.559 C 386.140 1368.245,388.102 1373.301,402.085 1390.365 C 455.974 1456.129,778.692 1779.101,838.000 1826.624 C 890.418 1868.625,909.581 1869.293,956.083 1830.743 C 996.528 1797.215,1354.213 1445.300,1607.683 1189.654 C 1889.921 904.995,2029.524 760.183,2044.556 736.479 C 2070.234 695.990,2050.452 639.455,2002.483 616.234 C 1989.868 610.127,1977.588 608.000,1954.945 608.000 L 1924.415 608.000 1899.208 628.924 " fill="#1D1E23" stroke="none" fill-rule="evenodd"/></svg>