<svg viewBox="0 0 2400 2400" fill="none" xmlns="http://www.w3.org/2000/svg"><path d="M1118.000 206.424 C 956.947 218.282,787.043 277.650,644.362 371.923 C 494.452 470.972,358.807 630.799,288.119 791.674 C 266.998 839.740,242.361 911.165,230.085 959.915 C 182.920 1147.222,193.856 1354.889,260.483 1537.119 C 334.478 1739.503,470.551 1912.980,650.000 2033.707 C 696.182 2064.777,800.010 2116.962,857.739 2138.120 C 908.419 2156.694,1005.333 2181.431,1062.000 2190.256 C 1129.444 2200.759,1285.600 2199.715,1350.000 2188.330 C 1565.633 2150.209,1739.801 2062.760,1894.450 1914.965 C 2167.011 1654.483,2267.301 1255.006,2149.937 897.307 C 2068.516 649.154,1906.900 452.080,1682.000 326.706 C 1573.429 266.182,1435.324 222.100,1324.000 212.437 C 1271.207 207.854,1147.583 204.246,1118.000 206.424 M1832.018 730.018 L 1901.950 800.036 1451.981 1250.019 L 1002.011 1700.003 752.029 1450.021 L 502.047 1200.039 571.994 1130.006 L 641.941 1059.974 820.977 1238.977 L 1000.014 1417.981 1379.004 1038.990 C 1587.449 830.546,1758.915 660.000,1760.040 660.000 C 1761.165 660.000,1793.555 691.508,1832.018 730.018 " fill="#1D1E23" stroke="none" fill-rule="evenodd"/></svg>