<svg viewBox="0 0 2400 2400" fill="none" xmlns="http://www.w3.org/2000/svg"><path d="M1118.000 206.424 C 956.947 218.282,787.043 277.650,644.362 371.923 C 494.452 470.972,358.807 630.799,288.119 791.674 C 266.998 839.740,242.361 911.165,230.085 959.915 C 182.920 1147.222,193.856 1354.889,260.483 1537.119 C 334.478 1739.503,470.551 1912.980,650.000 2033.707 C 696.182 2064.777,800.010 2116.962,857.739 2138.120 C 908.419 2156.694,1005.333 2181.431,1062.000 2190.256 C 1129.444 2200.759,1285.600 2199.715,1350.000 2188.330 C 1565.633 2150.209,1739.801 2062.760,1894.450 1914.965 C 2167.011 1654.483,2267.301 1255.006,2149.937 897.307 C 2068.516 649.154,1906.900 452.080,1682.000 326.706 C 1573.429 266.182,1435.324 222.100,1324.000 212.437 C 1271.207 207.854,1147.583 204.246,1118.000 206.424 M1798.000 713.424 C 1822.614 724.926,1847.207 749.633,1850.198 765.864 C 1851.428 772.539,1851.886 792.730,1851.217 810.733 L 1850.000 843.465 1580.000 1116.382 C 1230.777 1469.378,1050.059 1645.380,1030.047 1651.985 C 1021.855 1654.688,1004.692 1656.144,991.907 1655.219 C 970.926 1653.701,966.400 1651.612,945.438 1633.769 C 868.694 1568.444,608.664 1308.053,565.027 1252.830 C 545.399 1227.990,541.050 1210.191,547.313 1180.334 C 556.750 1135.343,587.300 1108.740,633.821 1105.006 C 654.618 1103.337,662.625 1104.557,677.215 1111.620 C 697.264 1121.325,763.710 1183.144,905.010 1323.549 L 1000.020 1417.957 1257.010 1161.664 C 1590.393 829.184,1703.363 719.271,1720.258 710.950 C 1740.376 701.042,1773.777 702.105,1798.000 713.424 " fill="#1D1E23" stroke="none" fill-rule="evenodd"/></svg>