<svg viewBox="0 0 2400 2400" fill="none" xmlns="http://www.w3.org/2000/svg"><path d="M1092.000 208.195 C 959.583 217.612,774.985 284.088,650.000 367.365 C 586.905 409.405,555.098 435.257,502.648 487.127 C 363.854 624.385,276.854 775.163,230.161 959.365 C 205.012 1058.578,196.820 1154.108,203.644 1268.604 C 217.530 1501.574,324.411 1736.163,494.112 1906.139 C 648.455 2060.734,836.826 2154.470,1066.000 2190.721 C 1127.908 2200.514,1272.321 2200.465,1336.000 2190.631 C 1552.475 2157.198,1739.395 2065.492,1891.594 1918.045 C 1952.477 1859.063,1990.768 1813.407,2034.144 1748.075 C 2183.778 1522.703,2235.142 1240.028,2173.711 980.000 C 2081.156 588.228,1778.378 295.484,1387.331 219.679 C 1363.443 215.049,1313.780 210.156,1268.185 207.941 C 1181.755 203.743,1154.037 203.783,1092.000 208.195 M1804.470 715.171 C 1816.748 721.585,1831.421 733.641,1838.927 743.482 C 1851.668 760.187,1852.000 761.632,1852.000 800.454 L 1852.000 840.286 1647.000 1048.756 C 1436.130 1263.195,1105.375 1591.785,1060.943 1630.975 C 1036.816 1652.256,1034.887 1653.148,1008.932 1655.005 C 990.133 1656.350,977.594 1655.102,967.493 1650.882 C 949.127 1643.208,779.848 1480.313,649.592 1344.970 C 548.621 1240.055,544.078 1233.850,544.022 1200.771 C 543.958 1162.784,564.890 1128.028,597.274 1112.352 C 617.571 1102.526,657.225 1101.055,677.128 1109.390 C 692.152 1115.681,753.826 1173.545,896.877 1315.563 L 999.755 1417.697 1344.877 1073.692 C 1534.695 884.489,1698.859 723.907,1709.686 716.843 C 1726.896 705.615,1732.750 704.000,1756.229 704.000 C 1777.856 704.000,1787.251 706.175,1804.470 715.171 " fill="#1D1E23" stroke="none" fill-rule="evenodd"/></svg>