<svg viewBox="0 0 2400 2400" fill="none" xmlns="http://www.w3.org/2000/svg"><path d="M1938.000 603.550 C 1931.400 605.262,1919.700 609.851,1912.000 613.749 C 1904.300 617.647,1673.470 845.155,1399.045 1119.321 L 900.089 1617.805 721.045 1439.371 C 599.556 1318.296,536.214 1257.982,524.000 1251.747 C 499.793 1239.390,460.767 1239.018,438.000 1250.929 C 419.183 1260.773,399.825 1280.392,389.583 1300.000 C 379.018 1320.225,379.657 1361.074,390.866 1382.000 C 395.832 1391.271,494.177 1492.500,624.718 1622.710 C 847.172 1844.600,850.290 1847.503,873.067 1854.013 C 895.860 1860.528,906.270 1860.078,936.000 1851.290 C 946.960 1848.050,1068.391 1728.911,1495.271 1302.576 C 1822.310 975.954,2043.976 751.596,2049.123 742.000 C 2060.344 721.079,2060.988 680.237,2050.417 660.000 C 2040.417 640.855,2020.894 620.791,2003.580 611.864 C 1986.667 603.144,1955.034 599.134,1938.000 603.550 " fill="#1D1E23" stroke="none" fill-rule="evenodd"/></svg>