<svg viewBox="0 0 2400 2400" fill="none" xmlns="http://www.w3.org/2000/svg"><path d="M1096.000 208.126 C 1049.377 211.518,977.358 225.964,915.586 244.315 C 802.772 277.830,687.247 337.044,586.000 413.250 C 540.592 447.427,438.802 550.649,403.060 598.762 C 314.728 717.669,262.416 831.264,224.544 986.413 C 205.896 1062.808,202.932 1098.335,205.016 1220.466 C 207.060 1340.190,210.532 1368.010,234.239 1454.560 C 269.118 1581.900,326.364 1698.705,405.249 1803.485 C 442.986 1853.611,523.872 1936.893,573.995 1977.230 C 719.346 2094.204,893.007 2167.560,1084.000 2192.662 C 1132.020 2198.973,1271.236 2198.823,1316.000 2192.412 C 1556.067 2158.028,1740.485 2067.703,1904.382 1904.230 C 1936.491 1872.204,1972.751 1833.284,1984.959 1817.743 C 2084.101 1691.528,2157.168 1525.022,2186.209 1359.127 C 2202.437 1266.427,2200.618 1109.484,2182.266 1019.027 C 2172.813 972.433,2154.160 903.243,2144.413 878.618 L 2139.907 867.236 2108.954 895.338 C 2091.929 910.795,2055.842 945.752,2028.759 973.020 L 1979.518 1022.598 1986.088 1067.396 C 1991.343 1103.228,1992.326 1134.390,1991.000 1223.097 C 1989.381 1331.405,1989.052 1335.123,1976.968 1382.000 C 1946.967 1498.378,1902.071 1593.118,1834.270 1683.124 C 1738.491 1810.272,1602.445 1906.849,1447.561 1957.642 C 1276.583 2013.713,1121.054 2013.862,953.498 1958.117 C 679.131 1866.835,495.018 1663.459,421.085 1370.000 C 410.119 1326.473,410.000 1324.623,410.000 1198.000 L 410.000 1070.000 422.909 1019.070 C 451.522 906.177,502.158 800.786,571.405 710.000 C 601.940 669.967,675.677 596.881,716.989 565.702 C 812.695 493.467,927.614 440.714,1033.976 420.188 C 1119.466 403.690,1244.693 400.387,1326.000 412.486 C 1401.347 423.698,1474.673 448.654,1571.788 496.139 L 1629.577 524.396 1701.245 452.728 L 1772.912 381.060 1729.456 354.979 C 1606.315 281.073,1465.026 228.875,1344.000 212.576 C 1303.562 207.130,1148.052 204.340,1096.000 208.126 M1559.008 878.988 L 1060.019 1377.977 918.006 1236.006 L 775.993 1094.035 705.011 1165.018 L 634.028 1236.000 846.004 1448.004 L 1057.981 1660.009 1628.972 1089.028 L 2199.964 518.047 2131.025 449.023 C 2093.108 411.061,2061.166 380.000,2060.041 380.000 C 2058.916 380.000,1833.451 604.545,1559.008 878.988 " fill="#1D1E23" stroke="none" fill-rule="evenodd"/></svg>