<svg viewBox="0 0 2400 2400" fill="none" xmlns="http://www.w3.org/2000/svg"><path d="M1114.000 204.241 C 878.370 226.216,657.860 329.581,491.925 495.842 C 363.891 624.128,274.707 781.991,230.831 958.000 C 207.850 1050.188,202.214 1097.848,202.214 1200.000 C 202.214 1302.152,207.850 1349.812,230.831 1442.000 C 302.227 1728.408,497.316 1969.350,762.000 2098.015 C 1029.018 2227.814,1329.496 2233.074,1606.659 2112.802 C 1769.037 2042.340,1924.741 1911.947,2027.945 1760.000 C 2053.532 1722.328,2091.941 1653.165,2110.419 1611.489 C 2195.412 1419.795,2220.214 1214.053,2182.039 1017.374 C 2172.699 969.255,2146.082 872.717,2140.601 867.081 C 2139.040 865.476,2102.243 899.715,2058.831 943.168 L 1979.899 1022.174 1987.594 1074.087 C 2006.938 1204.595,1999.349 1318.679,1963.666 1433.788 C 1869.666 1737.021,1612.469 1952.374,1294.795 1993.839 C 1180.119 2008.807,1068.604 1997.244,949.434 1958.029 C 642.093 1856.894,429.243 1583.783,403.865 1258.002 C 383.446 995.865,496.974 738.801,707.152 571.265 C 749.949 537.151,782.362 516.712,838.576 488.392 C 955.516 429.479,1064.273 403.291,1194.000 402.808 C 1332.912 402.292,1437.511 427.131,1563.405 490.531 L 1629.937 524.036 1701.327 452.646 L 1772.717 381.256 1739.358 360.027 C 1612.742 279.451,1466.857 226.584,1320.000 208.057 C 1271.352 201.920,1160.840 199.873,1114.000 204.241 M1559.008 878.988 L 1060.019 1377.977 918.006 1236.006 L 775.993 1094.035 705.011 1165.018 L 634.028 1236.000 846.004 1448.004 L 1057.981 1660.009 1628.972 1089.028 L 2199.964 518.047 2131.025 449.023 C 2093.108 411.061,2061.166 380.000,2060.041 380.000 C 2058.916 380.000,1833.451 604.545,1559.008 878.988 " fill="#1D1E23" stroke="none" fill-rule="evenodd"/></svg>