<svg viewBox="0 0 2400 2400" fill="none" xmlns="http://www.w3.org/2000/svg"><path d="M1127.055 112.328 C 1047.076 131.188,960.334 204.899,926.212 283.000 L 918.785 300.000 609.393 300.000 L 300.000 300.000 300.000 1200.000 L 300.000 2100.000 1200.000 2100.000 L 2100.000 2100.000 2100.000 1200.000 L 2100.000 300.000 1791.000 299.957 L 1482.000 299.914 1466.117 269.665 C 1434.659 209.753,1387.153 164.300,1322.000 131.779 C 1304.304 122.946,1279.272 114.071,1266.000 111.926 C 1236.818 107.209,1147.670 107.467,1127.055 112.328 M1225.995 308.416 C 1247.605 313.858,1273.507 335.431,1284.647 357.269 C 1295.167 377.890,1296.027 415.446,1286.491 437.785 C 1268.713 479.429,1239.730 497.792,1195.704 495.304 C 1159.892 493.280,1135.637 478.512,1118.716 448.429 C 1089.411 396.329,1110.835 332.762,1164.961 311.218 C 1185.157 303.178,1202.105 302.400,1225.995 308.416 M1700.000 800.000 L 1700.000 900.000 1200.000 900.000 L 700.000 900.000 700.000 800.000 L 700.000 700.000 1200.000 700.000 L 1700.000 700.000 1700.000 800.000 M1700.000 1200.000 L 1700.000 1300.000 1200.000 1300.000 L 700.000 1300.000 700.000 1200.000 L 700.000 1100.000 1200.000 1100.000 L 1700.000 1100.000 1700.000 1200.000 M1400.000 1600.000 L 1400.000 1700.000 1050.000 1700.000 L 700.000 1700.000 700.000 1600.000 L 700.000 1500.000 1050.000 1500.000 L 1400.000 1500.000 1400.000 1600.000 " fill="#1D1E23" stroke="none" fill-rule="evenodd"/></svg>