<svg viewBox="0 0 2400 2400" fill="none" xmlns="http://www.w3.org/2000/svg"><path d="M1144.000 105.799 C 1087.593 117.900,1039.414 142.334,999.991 178.834 C 970.614 206.033,938.443 250.338,925.701 281.146 L 918.051 299.641 688.026 300.821 L 458.000 302.000 434.000 311.568 C 365.918 338.710,318.212 393.062,304.420 459.197 C 298.170 489.170,298.170 1910.830,304.420 1940.803 C 320.053 2015.765,384.235 2079.947,459.197 2095.580 C 474.217 2098.712,690.098 2100.000,1200.000 2100.000 C 1709.902 2100.000,1925.783 2098.712,1940.803 2095.580 C 2015.765 2079.947,2079.947 2015.765,2095.580 1940.803 C 2101.830 1910.830,2101.830 489.170,2095.580 459.197 C 2081.788 393.062,2034.082 338.710,1966.000 311.568 L 1942.000 302.000 1711.974 300.821 L 1481.949 299.641 1474.586 281.840 C 1441.655 202.220,1360.955 133.028,1274.000 109.858 C 1240.487 100.928,1176.080 98.917,1144.000 105.799 M1246.501 312.440 C 1285.734 332.630,1306.247 377.772,1296.329 422.092 C 1279.366 497.893,1184.978 525.188,1129.986 470.196 C 1090.731 430.941,1090.723 369.067,1129.967 329.823 C 1160.757 299.033,1207.034 292.130,1246.501 312.440 M1646.071 712.218 C 1716.173 748.297,1716.173 851.703,1646.072 887.782 L 1626.217 898.000 1206.305 899.055 C 733.324 900.242,761.754 901.965,729.986 870.196 C 690.731 830.941,690.723 769.067,729.967 729.823 C 761.104 698.685,731.122 700.490,1204.108 701.288 L 1626.217 702.000 1646.071 712.218 M1646.071 1112.218 C 1716.173 1148.297,1716.173 1251.703,1646.072 1287.782 L 1626.217 1298.000 1206.305 1299.055 C 733.324 1300.242,761.754 1301.965,729.986 1270.196 C 690.731 1230.941,690.723 1169.067,729.967 1129.823 C 761.104 1098.685,731.122 1100.490,1204.108 1101.288 L 1626.217 1102.000 1646.071 1112.218 M1346.073 1512.218 C 1416.172 1548.299,1416.172 1651.701,1346.074 1687.782 L 1326.221 1698.000 1056.392 1699.083 C 751.165 1700.308,760.964 1701.175,729.986 1670.196 C 690.731 1630.941,690.723 1569.067,729.967 1529.823 C 760.393 1499.397,748.350 1500.457,1054.110 1501.274 L 1326.221 1502.000 1346.073 1512.218 " fill="#1D1E23" stroke="none" fill-rule="evenodd"/></svg>