<svg viewBox="0 0 2400 2400" fill="none" xmlns="http://www.w3.org/2000/svg"><path d="M1120.805 111.773 C 1040.044 134.862,968.009 195.540,931.129 271.546 L 918.000 298.603 685.285 300.739 L 452.570 302.875 418.488 319.758 C 365.560 345.977,332.943 380.847,311.625 434.000 L 302.000 458.000 300.823 1152.000 C 300.176 1533.700,301.186 1870.617,303.069 1900.704 C 306.323 1952.727,307.236 1956.916,321.678 1986.136 C 341.767 2026.785,373.157 2058.204,413.693 2078.238 C 439.895 2091.188,449.792 2093.787,483.125 2096.476 C 504.506 2098.201,827.100 2099.612,1200.000 2099.612 C 1572.900 2099.612,1895.494 2098.201,1916.875 2096.476 C 1950.208 2093.787,1960.105 2091.188,1986.307 2078.238 C 2026.862 2058.195,2058.231 2026.788,2078.346 1986.089 C 2092.951 1956.536,2093.690 1953.063,2096.932 1898.657 C 2098.789 1867.496,2099.789 1530.600,2099.154 1150.000 L 2098.000 458.000 2088.375 434.000 C 2067.057 380.847,2034.440 345.977,1981.512 319.758 L 1947.430 302.875 1714.715 300.722 L 1482.000 298.570 1467.233 268.285 C 1430.847 193.664,1350.601 128.698,1272.000 110.228 C 1235.031 101.541,1153.688 102.372,1120.805 111.773 M1243.633 311.813 C 1277.306 328.991,1296.101 359.224,1296.676 397.133 C 1297.295 437.999,1278.361 469.882,1242.000 489.203 C 1221.337 500.182,1180.455 500.922,1159.570 490.695 C 1096.906 460.011,1082.189 378.902,1130.515 330.576 C 1160.311 300.780,1206.869 293.057,1243.633 311.813 M1643.576 711.784 C 1677.279 728.978,1696.800 761.333,1696.800 800.000 C 1696.800 840.242,1675.085 874.048,1637.568 892.209 C 1620.855 900.300,1616.806 900.362,1199.350 899.000 C 864.711 897.908,774.717 896.541,762.047 892.361 C 721.714 879.054,692.009 820.531,703.648 777.308 C 709.638 755.061,731.677 723.815,748.182 714.170 C 769.117 701.936,831.206 700.494,1249.523 702.527 C 1609.062 704.274,1629.812 704.762,1643.576 711.784 M1643.576 1111.784 C 1677.279 1128.978,1696.800 1161.333,1696.800 1200.000 C 1696.800 1240.242,1675.085 1274.048,1637.568 1292.209 C 1620.855 1300.300,1616.806 1300.362,1199.350 1299.000 C 864.711 1297.908,774.717 1296.541,762.047 1292.361 C 721.714 1279.054,692.009 1220.531,703.648 1177.308 C 709.638 1155.061,731.677 1123.815,748.182 1114.170 C 769.117 1101.936,831.206 1100.494,1249.523 1102.527 C 1609.062 1104.274,1629.812 1104.762,1643.576 1111.784 M1343.524 1511.757 C 1377.280 1528.978,1396.800 1561.310,1396.800 1600.000 C 1396.800 1640.277,1375.086 1674.047,1337.484 1692.250 C 1320.816 1700.319,1315.940 1700.436,1047.266 1699.228 L 774.000 1698.000 755.321 1688.799 C 716.433 1669.642,692.569 1618.453,703.536 1577.722 C 709.658 1554.987,729.918 1525.939,747.029 1515.364 C 768.708 1501.966,810.306 1500.381,1085.472 1502.470 C 1312.812 1504.196,1329.910 1504.812,1343.524 1511.757 " fill="#1D1E23" stroke="none" fill-rule="evenodd"/></svg>