<svg viewBox="0 0 2400 2400" fill="none" xmlns="http://www.w3.org/2000/svg"><path d="M1138.859 108.093 C 1113.767 112.056,1059.124 135.962,1031.121 155.229 C 989.907 183.584,942.770 240.922,925.795 283.346 L 919.131 300.000 609.566 300.000 L 300.000 300.000 300.000 1200.000 L 300.000 2100.000 1200.000 2100.000 L 2100.000 2100.000 2100.000 1200.000 L 2100.000 300.000 1790.607 300.000 L 1481.215 300.000 1473.775 283.000 C 1440.652 207.314,1362.866 138.079,1284.000 114.087 C 1257.937 106.159,1173.253 102.661,1138.859 108.093 M1242.726 312.352 C 1300.555 340.346,1313.760 420.650,1268.543 469.357 C 1235.274 505.194,1175.454 508.132,1138.650 475.737 C 1114.319 454.320,1104.000 431.946,1104.000 400.609 C 1104.000 371.782,1110.000 355.112,1127.583 335.086 C 1154.733 304.164,1205.221 294.196,1242.726 312.352 M1700.000 800.000 L 1700.000 900.000 1200.000 900.000 L 700.000 900.000 700.000 800.000 L 700.000 700.000 1200.000 700.000 L 1700.000 700.000 1700.000 800.000 M1700.000 1200.000 L 1700.000 1300.000 1200.000 1300.000 L 700.000 1300.000 700.000 1200.000 L 700.000 1100.000 1200.000 1100.000 L 1700.000 1100.000 1700.000 1200.000 M1400.000 1600.000 L 1400.000 1700.000 1050.000 1700.000 L 700.000 1700.000 700.000 1600.000 L 700.000 1500.000 1050.000 1500.000 L 1400.000 1500.000 1400.000 1600.000 " fill="#1D1E23" stroke="none" fill-rule="evenodd"/></svg>