<svg viewBox="0 0 2400 2400" fill="none" xmlns="http://www.w3.org/2000/svg"><path d="M1120.805 111.773 C 1039.713 134.957,967.329 196.109,931.129 272.019 L 918.000 299.550 609.000 299.775 L 300.000 300.000 300.000 1200.000 L 300.000 2100.000 1200.000 2100.000 L 2100.000 2100.000 2100.000 1200.000 L 2100.000 300.000 1791.000 299.758 L 1482.000 299.516 1467.233 268.758 C 1431.386 194.095,1350.950 128.780,1272.000 110.228 C 1235.031 101.541,1153.688 102.372,1120.805 111.773 M1243.633 311.813 C 1277.306 328.991,1296.101 359.224,1296.676 397.133 C 1297.295 437.999,1278.361 469.882,1242.000 489.203 C 1221.337 500.182,1180.455 500.922,1159.570 490.695 C 1096.906 460.011,1082.189 378.902,1130.515 330.576 C 1160.311 300.780,1206.869 293.057,1243.633 311.813 M1700.000 800.000 L 1700.000 900.000 1200.000 900.000 L 700.000 900.000 700.000 800.000 L 700.000 700.000 1200.000 700.000 L 1700.000 700.000 1700.000 800.000 M1700.000 1200.000 L 1700.000 1300.000 1200.000 1300.000 L 700.000 1300.000 700.000 1200.000 L 700.000 1100.000 1200.000 1100.000 L 1700.000 1100.000 1700.000 1200.000 M1400.000 1600.000 L 1400.000 1700.000 1050.000 1700.000 L 700.000 1700.000 700.000 1600.000 L 700.000 1500.000 1050.000 1500.000 L 1400.000 1500.000 1400.000 1600.000 " fill="#1D1E23" stroke="none" fill-rule="evenodd"/></svg>