<svg viewBox="0 0 2400 2400" fill="none" xmlns="http://www.w3.org/2000/svg"><path d="M1121.402 114.078 C 1091.770 122.065,1051.936 141.751,1024.426 162.002 C 993.031 185.113,946.936 239.424,930.857 272.246 L 918.000 298.491 756.344 301.246 C 667.434 302.761,562.134 304.000,522.344 304.000 L 450.000 304.000 416.789 322.758 C 375.607 346.017,336.154 386.259,314.997 426.585 L 300.000 455.170 300.366 1082.585 C 300.568 1427.663,301.961 1764.000,303.463 1830.000 C 306.191 1949.857,306.207 1950.028,317.190 1973.686 C 323.237 1986.713,334.893 2006.231,343.093 2017.060 C 361.137 2040.891,414.306 2081.951,434.995 2088.031 C 462.739 2096.184,690.903 2099.649,1200.000 2099.649 C 1709.097 2099.649,1937.261 2096.184,1965.005 2088.031 C 1985.694 2081.951,2038.863 2040.891,2056.907 2017.060 C 2065.107 2006.231,2076.772 1986.713,2082.830 1973.686 L 2093.845 1950.000 2096.531 1824.000 C 2098.008 1754.700,2099.393 1418.490,2099.608 1076.867 L 2100.000 455.734 2089.522 434.867 C 2062.522 381.096,2030.533 348.370,1975.668 318.389 L 1949.336 304.000 1883.324 304.000 C 1847.017 304.000,1741.491 302.808,1648.821 301.352 L 1480.330 298.703 1476.475 287.644 C 1470.695 271.063,1445.440 232.911,1423.171 207.119 C 1384.290 162.088,1314.636 119.940,1265.911 111.962 C 1231.129 106.266,1145.746 107.517,1121.402 114.078 M1225.995 308.416 C 1247.605 313.858,1273.507 335.431,1284.647 357.269 C 1295.167 377.890,1296.027 415.446,1286.491 437.785 C 1268.713 479.429,1239.730 497.792,1195.704 495.304 C 1159.892 493.280,1135.637 478.512,1118.716 448.429 C 1089.411 396.329,1110.835 332.762,1164.961 311.218 C 1185.157 303.178,1202.105 302.400,1225.995 308.416 M1654.459 721.173 C 1678.315 737.369,1692.983 766.314,1693.121 797.471 C 1693.181 811.014,1690.441 828.520,1687.003 836.558 C 1678.565 856.291,1653.890 882.873,1635.128 892.445 C 1620.038 900.143,1610.770 900.283,1198.855 899.003 C 876.916 898.003,774.529 896.527,763.230 892.724 C 754.702 889.852,741.570 879.923,732.153 869.224 C 701.220 834.083,696.256 784.084,719.986 746.667 C 735.419 722.331,747.741 715.101,779.383 711.812 C 794.022 710.291,993.200 709.261,1222.000 709.523 L 1638.000 710.000 1654.459 721.173 M1654.459 1121.173 C 1678.315 1137.369,1692.983 1166.314,1693.121 1197.471 C 1693.181 1211.014,1690.441 1228.520,1687.003 1236.558 C 1678.565 1256.291,1653.890 1282.873,1635.128 1292.445 C 1620.038 1300.143,1610.770 1300.283,1198.855 1299.003 C 876.916 1298.003,774.529 1296.527,763.230 1292.724 C 754.702 1289.852,741.570 1279.923,732.153 1269.224 C 701.220 1234.083,696.256 1184.084,719.986 1146.667 C 735.419 1122.331,747.741 1115.101,779.383 1111.812 C 794.022 1110.291,993.200 1109.261,1222.000 1109.523 L 1638.000 1110.000 1654.459 1121.173 M1343.772 1515.884 C 1387.392 1538.137,1406.989 1597.958,1385.086 1642.000 C 1376.574 1659.116,1352.503 1683.386,1335.159 1692.339 C 1320.958 1699.670,1308.470 1699.998,1045.159 1699.961 L 770.000 1699.922 752.397 1685.930 C 705.047 1648.290,692.541 1604.210,715.932 1557.400 C 732.323 1524.598,743.802 1514.745,769.227 1511.653 C 780.652 1510.263,911.122 1508.873,1059.159 1508.563 C 1319.698 1508.018,1328.814 1508.253,1343.772 1515.884 " fill="#1D1E23" stroke="none" fill-rule="evenodd"/></svg>