<svg viewBox="0 0 2400 2400" fill="none" xmlns="http://www.w3.org/2000/svg"><path d="M1104.000 206.141 C 968.810 224.580,867.112 254.367,764.000 305.728 C 488.747 442.832,300.054 679.515,226.032 980.515 C 218.659 1010.498,210.470 1056.398,207.835 1082.515 C 200.679 1153.439,201.442 1277.017,209.374 1332.000 C 234.507 1506.204,313.233 1688.201,421.545 1822.493 C 482.256 1897.766,580.750 1986.520,664.000 2040.973 C 780.674 2117.288,946.109 2176.558,1084.842 2191.747 C 1134.650 2197.201,1280.118 2197.245,1324.105 2191.820 C 1401.402 2182.287,1506.573 2153.044,1591.440 2117.488 C 1785.072 2036.363,1975.947 1861.903,2078.864 1671.978 C 2116.502 1602.523,2162.881 1476.915,2179.617 1399.111 C 2200.441 1302.305,2201.404 1109.640,2181.553 1012.000 C 2150.675 860.124,2070.124 690.285,1971.731 569.600 C 1830.800 396.738,1598.672 258.048,1390.000 222.030 C 1296.843 205.950,1160.810 198.393,1104.000 206.141 M1208.152 713.000 C 1238.189 728.147,1240.198 735.954,1244.207 853.100 C 1246.105 908.595,1247.736 1013.742,1247.829 1086.760 L 1248.000 1219.520 1313.000 1258.514 C 1606.033 1434.307,1660.015 1471.504,1665.644 1501.510 C 1671.040 1530.270,1648.835 1572.998,1621.837 1585.809 C 1590.855 1600.511,1565.172 1587.664,1316.370 1433.016 C 1177.730 1346.841,1145.435 1324.840,1125.000 1302.644 L 1108.000 1284.179 1108.022 1021.089 C 1108.037 850.637,1109.515 752.705,1112.221 742.962 C 1116.840 726.329,1127.203 717.899,1152.894 709.877 C 1177.398 702.225,1187.970 702.822,1208.152 713.000 " fill="#1D1E23" stroke="none" fill-rule="evenodd"/></svg>