<svg viewBox="0 0 2400 2400" fill="none" xmlns="http://www.w3.org/2000/svg"><path d="M1092.000 208.031 C 934.439 229.240,817.741 269.093,688.834 345.717 C 457.807 483.042,291.763 709.469,226.635 976.000 C 212.039 1035.732,208.312 1063.036,204.014 1141.736 C 196.450 1280.249,208.917 1378.324,249.811 1502.000 C 302.997 1662.853,379.088 1787.641,493.787 1902.120 C 614.130 2022.231,738.578 2098.885,896.000 2149.863 C 1004.030 2184.846,1084.299 2197.294,1202.000 2197.315 C 1310.617 2197.335,1366.519 2189.844,1466.350 2161.893 C 1633.048 2115.219,1776.879 2030.232,1903.556 1903.556 C 2020.547 1786.564,2092.869 1670.680,2146.370 1514.485 C 2183.473 1406.163,2191.332 1361.943,2194.439 1244.000 C 2198.485 1090.482,2189.957 1019.970,2153.767 907.688 C 2068.481 643.087,1894.691 437.346,1652.793 314.610 C 1510.861 242.595,1419.628 217.725,1254.567 206.051 C 1154.107 198.945,1160.033 198.873,1092.000 208.031 M1248.000 959.303 L 1248.000 1218.606 1423.000 1323.921 C 1564.129 1408.853,1682.924 1482.418,1691.279 1490.056 C 1695.727 1494.121,1625.338 1612.000,1618.463 1612.000 C 1608.724 1612.000,1500.122 1547.218,1184.000 1352.841 L 1106.000 1304.880 1103.549 1191.440 C 1102.201 1129.048,1100.851 992.950,1100.549 889.000 L 1100.000 700.000 1174.000 700.000 L 1248.000 700.000 1248.000 959.303 " fill="#1D1E23" stroke="none" fill-rule="evenodd"/></svg>