<svg viewBox="0 0 2400 2400" fill="none" xmlns="http://www.w3.org/2000/svg"><path d="M1130.000 202.399 C 1021.092 213.531,924.411 235.088,846.148 265.689 C 369.001 452.257,107.516 951.723,230.316 1442.000 C 319.430 1797.789,602.211 2080.570,958.000 2169.684 C 1105.307 2206.580,1265.592 2209.365,1409.675 2177.530 C 1797.350 2091.877,2098.450 1787.689,2179.313 1400.000 C 2194.641 1326.512,2197.910 1291.354,2197.910 1200.000 C 2197.910 1108.646,2194.641 1073.488,2179.313 1000.000 C 2139.255 807.946,2046.326 635.712,1907.773 496.732 C 1754.712 343.199,1558.626 243.488,1347.234 211.694 C 1296.336 204.039,1167.773 198.538,1130.000 202.399 M1248.000 959.419 L 1248.000 1218.838 1467.000 1350.062 C 1587.450 1422.235,1689.025 1483.328,1692.722 1485.824 C 1698.708 1489.867,1695.283 1497.130,1661.433 1552.182 C 1640.526 1586.182,1622.202 1615.197,1620.711 1616.660 C 1619.220 1618.123,1501.900 1547.809,1360.000 1460.406 L 1102.000 1301.493 1100.975 1000.747 L 1099.949 700.000 1173.975 700.000 L 1248.000 700.000 1248.000 959.419 " fill="#1D1E23" stroke="none" fill-rule="evenodd"/></svg>