<svg viewBox="0 0 2400 2400" fill="none" xmlns="http://www.w3.org/2000/svg"><path d="M1042.964 213.985 C 785.483 255.850,554.189 397.884,393.846 612.600 C 258.993 793.181,186.155 1040.744,203.073 1261.000 C 221.109 1495.800,304.210 1693.348,456.832 1864.234 C 664.198 2096.416,958.375 2216.627,1268.794 2196.032 C 1421.114 2185.925,1582.269 2134.993,1716.000 2054.692 C 1808.534 1999.129,1932.708 1887.045,1997.113 1800.947 C 2087.619 1679.956,2150.712 1536.716,2182.427 1380.228 C 2202.428 1281.538,2202.328 1109.486,2182.215 1014.456 C 2148.661 855.920,2084.895 716.049,1987.208 586.701 C 1956.126 545.546,1860.775 450.143,1816.000 415.400 C 1718.697 339.899,1592.383 275.250,1480.627 243.753 C 1374.791 213.925,1354.440 211.369,1210.000 209.759 C 1109.029 208.634,1069.764 209.628,1042.964 213.985 M1287.158 408.247 C 1556.534 437.697,1788.969 599.273,1910.863 841.813 C 1938.710 897.222,1957.093 945.349,1971.924 1001.674 C 1986.944 1058.714,1990.974 1090.207,1994.233 1176.000 C 1997.080 1250.956,1993.509 1297.702,1979.795 1365.005 C 1950.808 1507.254,1867.612 1660.483,1762.048 1766.048 C 1629.243 1898.852,1440.200 1984.568,1254.852 1996.020 C 1107.516 2005.123,983.283 1980.563,848.418 1915.670 C 816.748 1900.431,776.248 1878.250,758.418 1866.379 C 693.514 1823.165,583.536 1713.367,539.344 1647.664 C 510.368 1604.584,459.907 1500.907,443.137 1450.000 C 412.672 1357.516,401.470 1274.055,405.287 1168.000 C 409.667 1046.335,434.062 951.378,489.040 842.000 C 548.441 723.821,637.903 619.970,746.288 543.374 C 795.772 508.404,884.405 464.413,949.285 442.622 C 988.197 429.553,1061.631 413.223,1102.000 408.662 C 1147.749 403.493,1241.749 403.282,1287.158 408.247 M1153.055 703.893 C 1133.786 708.469,1113.340 725.947,1107.361 742.956 C 1103.187 754.827,1102.064 812.413,1102.036 1016.000 C 1101.996 1306.245,1099.923 1286.308,1132.938 1313.325 C 1156.894 1332.930,1242.531 1387.001,1378.000 1468.057 C 1510.307 1547.222,1586.913 1588.039,1602.942 1587.912 C 1654.062 1587.506,1689.782 1520.770,1659.491 1482.261 C 1647.197 1466.633,1575.526 1420.612,1407.462 1320.430 L 1257.200 1230.861 1254.600 1170.794 C 1253.170 1137.758,1251.990 1034.064,1251.978 940.364 C 1251.964 836.302,1250.359 764.252,1247.853 755.230 C 1242.445 735.756,1213.599 710.359,1190.196 704.467 C 1170.623 699.538,1171.346 699.549,1153.055 703.893 " fill="#1D1E23" stroke="none" fill-rule="evenodd"/></svg>