<svg viewBox="0 0 2400 2400" fill="none" xmlns="http://www.w3.org/2000/svg"><path d="M1132.000 202.651 C 941.582 221.296,791.734 273.396,644.261 372.232 C 438.450 510.168,290.634 719.846,230.485 959.178 C 207.975 1048.744,202.290 1097.204,202.233 1200.000 C 202.179 1296.418,207.104 1342.049,226.407 1424.000 C 261.131 1571.410,328.270 1708.862,422.767 1826.000 C 464.457 1877.679,547.120 1957.940,598.159 1996.296 C 735.305 2099.361,894.499 2165.512,1066.000 2190.702 C 1132.705 2200.500,1276.164 2200.418,1339.188 2190.547 C 1553.391 2156.996,1741.608 2063.784,1893.397 1916.082 C 1982.826 1829.061,2043.246 1746.230,2096.240 1638.000 C 2143.274 1541.942,2174.294 1443.979,2190.470 1340.420 C 2199.726 1281.161,2199.726 1118.839,2190.470 1059.580 C 2162.118 878.065,2085.277 705.775,1970.730 566.887 C 1837.093 404.852,1650.419 285.403,1450.000 233.685 C 1377.834 215.062,1334.362 208.825,1244.000 204.130 C 1166.610 200.108,1158.997 200.008,1132.000 202.651 M1207.862 709.986 C 1228.253 720.646,1241.262 738.786,1244.420 760.962 C 1246.068 772.533,1247.547 880.296,1247.708 1000.435 L 1248.000 1218.870 1383.000 1300.288 C 1550.732 1401.445,1635.206 1454.196,1647.380 1465.381 C 1661.873 1478.698,1668.000 1493.727,1668.000 1515.961 C 1668.000 1563.162,1628.815 1597.915,1584.363 1590.139 C 1568.803 1587.417,1451.528 1518.001,1254.000 1394.596 C 1113.790 1307.000,1110.650 1304.152,1103.341 1257.901 C 1100.305 1238.692,1099.589 1154.903,1101.040 988.936 L 1103.148 747.872 1113.781 733.932 C 1136.583 704.037,1176.868 693.783,1207.862 709.986 " fill="#1D1E23" stroke="none" fill-rule="evenodd"/></svg>