<svg viewBox="0 0 2400 2400" fill="none" xmlns="http://www.w3.org/2000/svg"><path d="M1108.545 204.138 C 796.319 234.318,520.746 404.372,350.372 672.000 C 318.468 722.115,273.515 818.568,252.284 882.460 C 183.002 1090.954,183.002 1309.046,252.284 1517.540 C 300.974 1664.069,381.908 1794.313,493.797 1906.203 C 648.729 2061.134,839.618 2157.095,1060.000 2190.836 C 1123.622 2200.577,1275.859 2200.550,1337.463 2190.786 C 1401.612 2180.620,1463.274 2165.956,1515.596 2148.425 C 1858.696 2033.465,2112.820 1743.895,2181.460 1389.683 C 2289.531 831.998,1909.983 296.356,1346.700 211.616 C 1285.763 202.448,1165.192 198.663,1108.545 204.138 M1274.000 404.133 C 1456.349 421.235,1623.340 498.040,1755.450 625.571 C 2004.489 865.978,2070.161 1239.929,1917.944 1550.849 C 1796.348 1799.221,1559.627 1964.889,1282.000 1995.912 C 1085.155 2017.907,873.543 1957.479,710.000 1832.570 C 674.030 1805.098,606.674 1738.415,576.092 1700.000 C 537.021 1650.922,510.707 1609.106,481.701 1550.000 C 346.093 1273.664,382.928 942.169,576.152 700.000 C 606.996 661.343,669.507 599.393,708.000 569.335 C 866.875 445.271,1072.549 385.240,1274.000 404.133 M1142.000 707.301 C 1122.897 716.338,1114.401 725.278,1106.153 745.018 C 1100.839 757.735,1100.000 793.756,1100.000 1009.159 C 1100.000 1287.600,1099.566 1282.824,1127.496 1311.703 C 1136.182 1320.682,1228.608 1378.608,1357.886 1456.093 C 1555.621 1574.610,1575.545 1585.636,1594.866 1587.238 C 1621.090 1589.413,1635.899 1583.509,1653.731 1563.771 C 1668.707 1547.195,1674.315 1527.813,1670.657 1505.271 C 1665.884 1475.864,1655.738 1467.621,1538.000 1397.508 C 1476.400 1360.825,1386.917 1307.538,1339.149 1279.093 L 1252.299 1227.374 1251.149 990.687 C 1250.040 762.294,1249.720 753.524,1242.000 740.424 C 1237.600 732.957,1227.222 721.370,1218.939 714.675 C 1199.426 698.904,1166.433 695.742,1142.000 707.301 " fill="#1D1E23" stroke="none" fill-rule="evenodd"/></svg>