<svg viewBox="0 0 2400 2400" fill="none" xmlns="http://www.w3.org/2000/svg"><path d="M1064.000 209.588 C 840.786 243.783,646.242 341.428,491.369 497.001 C 337.293 651.774,243.684 839.954,209.320 1064.000 C 199.513 1127.944,199.492 1271.819,209.281 1336.000 C 243.636 1561.251,337.128 1747.885,494.559 1905.489 C 702.194 2113.351,973.028 2215.373,1267.364 2196.602 C 1455.818 2184.583,1643.099 2115.706,1794.116 2002.877 C 2012.010 1840.082,2149.028 1609.685,2190.709 1336.000 C 2200.602 1271.037,2200.560 1123.474,2190.630 1060.812 C 2155.212 837.316,2057.243 643.650,1901.730 489.709 C 1758.133 347.564,1578.721 255.363,1368.000 215.424 C 1313.536 205.101,1117.814 201.344,1064.000 209.588 M1266.000 404.219 C 1510.640 425.302,1729.489 554.522,1864.401 757.547 C 2061.310 1053.868,2039.279 1442.225,1810.063 1715.408 C 1653.899 1901.527,1415.174 2007.575,1172.020 1998.846 C 1015.900 1993.241,861.732 1940.377,730.098 1847.311 C 690.853 1819.565,600.112 1731.929,571.356 1694.000 C 494.846 1593.087,441.151 1476.899,417.965 1362.085 C 360.620 1078.124,456.419 792.201,673.499 599.415 C 832.760 457.978,1051.938 385.771,1266.000 404.219 M1100.975 1000.752 L 1102.000 1301.503 1282.000 1409.872 C 1381.000 1469.475,1498.000 1539.340,1542.000 1565.128 L 1622.000 1612.016 1632.446 1599.335 C 1643.655 1585.728,1690.043 1510.495,1694.220 1499.147 C 1697.373 1490.584,1707.501 1497.020,1455.000 1347.136 L 1252.000 1226.636 1252.000 963.318 L 1252.000 700.000 1175.975 700.000 L 1099.949 700.000 1100.975 1000.752 " fill="#1D1E23" stroke="none" fill-rule="evenodd"/></svg>