<svg viewBox="0 0 2400 2400" fill="none" xmlns="http://www.w3.org/2000/svg"><path d="M1104.000 206.141 C 968.810 224.580,867.112 254.367,764.000 305.728 C 488.747 442.832,300.054 679.515,226.032 980.515 C 218.659 1010.498,210.470 1056.398,207.835 1082.515 C 200.679 1153.439,201.442 1277.017,209.374 1332.000 C 234.507 1506.204,313.233 1688.201,421.545 1822.493 C 482.256 1897.766,580.750 1986.520,664.000 2040.973 C 780.674 2117.288,946.109 2176.558,1084.842 2191.747 C 1134.650 2197.201,1280.118 2197.245,1324.105 2191.820 C 1401.402 2182.287,1506.573 2153.044,1591.440 2117.488 C 1785.072 2036.363,1975.947 1861.903,2078.864 1671.978 C 2116.502 1602.523,2162.881 1476.915,2179.617 1399.111 C 2200.441 1302.305,2201.404 1109.640,2181.553 1012.000 C 2150.675 860.124,2070.124 690.285,1971.731 569.600 C 1830.800 396.738,1598.672 258.048,1390.000 222.030 C 1296.843 205.950,1160.810 198.393,1104.000 206.141 M1248.000 959.311 L 1248.000 1218.623 1383.000 1299.963 C 1491.501 1365.337,1670.885 1475.768,1689.415 1488.596 C 1695.052 1492.498,1632.568 1602.232,1620.444 1609.726 C 1618.165 1611.134,1607.682 1607.888,1597.150 1602.512 C 1573.258 1590.316,1415.510 1495.309,1241.433 1388.274 L 1108.866 1306.762 1106.543 1288.381 C 1105.266 1278.271,1102.985 1141.750,1101.476 985.000 L 1098.732 700.000 1173.366 700.000 L 1248.000 700.000 1248.000 959.311 " fill="#1D1E23" stroke="none" fill-rule="evenodd"/></svg>