<svg viewBox="0 0 2400 2400" fill="none" xmlns="http://www.w3.org/2000/svg"><path d="M1130.000 202.399 C 1021.092 213.531,924.411 235.088,846.148 265.689 C 369.001 452.257,107.516 951.723,230.316 1442.000 C 319.430 1797.789,602.211 2080.570,958.000 2169.684 C 1105.307 2206.580,1265.592 2209.365,1409.675 2177.530 C 1797.350 2091.877,2098.450 1787.689,2179.313 1400.000 C 2194.641 1326.512,2197.910 1291.354,2197.910 1200.000 C 2197.910 1108.646,2194.641 1073.488,2179.313 1000.000 C 2139.255 807.946,2046.326 635.712,1907.773 496.732 C 1754.712 343.199,1558.626 243.488,1347.234 211.694 C 1296.336 204.039,1167.773 198.538,1130.000 202.399 M1215.823 713.408 C 1224.633 719.238,1235.478 731.135,1239.921 739.845 C 1247.751 755.193,1248.000 762.820,1248.000 987.265 L 1248.000 1218.849 1443.000 1336.188 C 1550.250 1400.724,1643.603 1459.349,1650.450 1466.465 C 1677.624 1494.705,1676.151 1543.895,1647.325 1570.809 C 1624.993 1591.661,1593.374 1597.001,1566.000 1584.543 C 1542.182 1573.703,1144.586 1328.270,1129.768 1315.259 C 1122.751 1309.099,1113.144 1295.072,1108.419 1284.088 C 1099.887 1264.255,1099.836 1262.356,1100.914 1006.428 L 1102.000 748.738 1114.232 733.369 C 1141.197 699.488,1182.520 691.369,1215.823 713.408 " fill="#1D1E23" stroke="none" fill-rule="evenodd"/></svg>