<svg viewBox="0 0 2400 2400" fill="none" xmlns="http://www.w3.org/2000/svg"><path d="M1101.209 206.286 C 974.803 221.604,864.217 253.853,759.539 305.924 C 475.389 447.269,276.763 709.559,215.755 1024.000 C 199.387 1108.366,197.539 1277.811,212.113 1358.000 C 246.865 1549.208,331.894 1725.779,455.102 1862.596 C 606.872 2031.128,790.983 2135.901,1016.000 2181.789 C 1123.683 2203.748,1280.119 2203.724,1386.981 2181.731 C 1590.333 2139.879,1760.953 2048.029,1906.079 1902.284 C 2022.943 1784.922,2100.307 1658.178,2152.264 1498.968 C 2189.531 1384.774,2197.382 1325.374,2194.847 1176.796 C 2193.209 1080.831,2191.511 1055.439,2184.492 1022.000 C 2135.157 786.957,2017.981 585.899,1846.000 441.196 C 1701.239 319.395,1509.529 233.014,1338.000 212.299 C 1302.256 207.982,1175.159 199.720,1156.000 200.468 C 1150.500 200.682,1125.844 203.301,1101.209 206.286 M1212.041 713.000 C 1238.173 730.785,1241.525 739.255,1244.552 795.158 C 1246.067 823.121,1247.462 929.913,1247.653 1032.473 L 1248.000 1218.945 1389.000 1304.201 C 1659.790 1467.936,1663.508 1470.662,1667.106 1508.101 C 1669.612 1534.188,1654.053 1567.607,1633.480 1580.321 C 1608.399 1595.822,1590.187 1594.987,1555.853 1576.759 C 1485.002 1539.145,1178.534 1349.824,1141.709 1320.921 C 1126.866 1309.272,1116.305 1296.949,1110.616 1284.640 C 1102.048 1266.103,1102.004 1264.569,1102.804 1007.159 C 1103.710 715.282,1101.243 737.182,1135.669 715.350 C 1159.203 700.425,1192.078 699.414,1212.041 713.000 " fill="#1D1E23" stroke="none" fill-rule="evenodd"/></svg>