<svg viewBox="0 0 2400 2400" fill="none" xmlns="http://www.w3.org/2000/svg"><path d="M1076.000 212.139 C 1034.636 215.012,1020.723 217.275,966.736 229.914 C 796.666 269.730,621.690 369.209,492.000 499.817 C 334.200 658.733,242.245 846.876,207.457 1082.000 C 199.705 1134.399,200.792 1266.371,209.467 1326.000 C 243.104 1557.201,334.766 1742.252,495.933 1904.327 C 675.946 2085.354,899.650 2183.650,1164.000 2197.877 C 1333.319 2206.990,1536.048 2156.761,1696.400 2065.969 C 1802.282 2006.018,1940.893 1880.830,2009.980 1782.756 C 2104.984 1647.891,2169.646 1484.683,2190.257 1327.734 C 2198.683 1263.573,2196.505 1088.634,2186.625 1036.000 C 2157.515 880.922,2086.266 719.173,1991.932 594.008 C 1960.653 552.507,1867.918 457.917,1824.000 422.718 C 1693.080 317.789,1498.237 232.277,1354.000 216.446 C 1306.307 211.211,1128.933 208.463,1076.000 212.139 M1274.000 408.069 C 1486.306 427.669,1685.977 533.785,1815.780 696.000 C 1898.938 799.922,1955.713 919.352,1981.648 1044.912 C 1991.642 1093.295,1997.349 1216.926,1992.196 1273.400 C 1971.126 1504.285,1846.441 1719.870,1656.689 1853.500 C 1588.462 1901.548,1489.181 1948.014,1408.000 1969.895 C 1259.758 2009.849,1100.667 2006.407,960.219 1960.206 C 877.263 1932.917,785.166 1887.605,736.000 1849.891 C 670.531 1799.670,579.365 1705.710,542.053 1650.000 C 499.450 1586.390,450.329 1479.444,431.999 1410.391 C 400.801 1292.866,396.575 1156.969,420.416 1038.000 C 457.790 851.505,579.976 663.689,738.000 549.832 C 782.032 518.107,892.204 462.125,944.773 444.765 C 1049.205 410.276,1161.876 397.718,1274.000 408.069 M1140.389 710.685 C 1124.728 718.893,1116.477 726.415,1110.422 738.006 C 1102.203 753.736,1102.065 758.191,1102.033 1008.000 C 1102.008 1201.333,1103.208 1265.973,1107.056 1278.635 C 1110.116 1288.703,1118.011 1300.449,1127.056 1308.392 C 1172.328 1348.146,1522.957 1558.097,1581.475 1580.490 C 1610.440 1591.575,1628.536 1587.231,1649.345 1564.198 C 1667.353 1544.265,1673.877 1521.826,1668.004 1500.017 C 1661.371 1475.383,1630.670 1454.399,1393.508 1312.401 L 1257.223 1230.801 1254.623 1156.401 C 1253.193 1115.480,1251.939 1014.500,1251.837 932.000 C 1251.735 849.500,1250.136 774.155,1248.284 764.567 C 1244.024 742.519,1233.912 728.887,1211.615 715.137 C 1184.246 698.259,1166.243 697.134,1140.389 710.685 " fill="#1D1E23" stroke="none" fill-rule="evenodd"/></svg>