<svg viewBox="0 0 2400 2400" fill="none" xmlns="http://www.w3.org/2000/svg"><path d="M687.954 403.877 L 341.909 406.000 311.116 423.621 C 256.631 454.800,223.854 494.883,209.066 548.421 C 202.450 572.371,202.000 614.003,202.000 1202.000 C 202.000 1800.009,202.351 1831.146,209.347 1854.000 C 213.387 1867.200,221.968 1887.272,228.414 1898.604 C 244.411 1926.726,285.901 1964.496,318.337 1980.464 C 344.228 1993.211,347.486 1993.783,409.593 1996.511 C 498.408 2000.412,1906.202 2000.303,1988.874 1996.389 C 2053.486 1993.330,2056.665 1992.774,2082.874 1979.943 C 2120.165 1961.687,2162.301 1919.334,2179.807 1882.510 C 2191.565 1857.778,2193.217 1849.750,2196.265 1802.510 C 2198.129 1773.629,2199.654 1502.500,2199.654 1200.000 C 2199.654 897.500,2198.129 626.371,2196.265 597.490 C 2193.238 550.580,2191.521 542.139,2180.164 518.343 C 2162.839 482.043,2128.479 446.279,2089.496 423.970 L 2058.093 406.000 1752.046 403.448 C 1413.889 400.629,1203.544 400.713,687.954 403.877 M2000.000 700.000 L 2000.000 800.000 1200.000 800.000 L 400.000 800.000 400.000 700.000 L 400.000 600.000 1200.000 600.000 L 2000.000 600.000 2000.000 700.000 M1999.639 1345.000 C 1999.441 1424.750,1998.065 1545.894,1996.583 1614.208 L 1993.887 1738.416 1979.750 1758.097 C 1952.965 1795.387,1963.006 1793.645,1758.000 1796.554 C 1526.053 1799.846,873.947 1799.846,642.000 1796.554 C 436.953 1793.645,447.044 1795.398,420.193 1758.019 L 406.000 1738.261 403.366 1618.130 C 401.918 1552.059,400.568 1430.950,400.366 1349.000 L 400.000 1200.000 1200.000 1200.000 L 2000.000 1200.000 1999.639 1345.000 " fill="#1D1E23" stroke="none" fill-rule="evenodd"/></svg>