<svg viewBox="0 0 2400 2400" fill="none" xmlns="http://www.w3.org/2000/svg"><path d="M358.041 404.701 C 305.713 414.679,246.049 460.612,222.951 508.700 C 199.030 558.499,200.124 525.443,200.059 1200.803 C 200.017 1637.327,201.302 1825.850,204.420 1840.803 C 220.053 1915.765,284.235 1979.947,359.197 1995.580 C 389.211 2001.839,2010.789 2001.839,2040.803 1995.580 C 2115.765 1979.947,2179.947 1915.765,2195.580 1840.803 C 2201.819 1810.886,2201.819 589.114,2195.580 559.197 C 2179.683 482.966,2113.826 418.136,2038.265 404.335 C 2007.531 398.722,387.547 399.074,358.041 404.701 M2000.000 700.000 L 2000.000 800.000 1200.000 800.000 L 400.000 800.000 400.000 700.000 L 400.000 600.000 1200.000 600.000 L 2000.000 600.000 2000.000 700.000 M2000.000 1455.274 C 2000.000 1745.218,2000.519 1739.691,1970.465 1769.745 C 1937.640 1802.571,2003.111 1800.000,1200.000 1800.000 C 397.685 1800.000,462.298 1802.508,429.895 1770.105 C 399.208 1739.418,400.000 1747.708,400.000 1457.287 L 400.000 1200.000 1200.000 1200.000 L 2000.000 1200.000 2000.000 1455.274 " fill="#1D1E23" stroke="none" fill-rule="evenodd"/></svg>