<svg viewBox="0 0 2400 2400" fill="none" xmlns="http://www.w3.org/2000/svg"><path d="M954.735 309.795 C 936.562 316.277,932.573 319.449,886.000 364.453 L 850.000 399.240 716.000 401.250 C 628.624 402.561,576.433 404.938,566.000 408.082 C 556.587 410.918,542.339 420.555,531.392 431.489 C 495.204 467.631,491.898 514.187,522.361 558.666 C 542.400 587.926,554.242 592.412,621.721 596.312 C 695.044 600.549,1704.956 600.549,1778.279 596.312 C 1845.758 592.412,1857.600 587.926,1877.639 558.666 C 1908.102 514.187,1904.796 467.631,1868.608 431.489 C 1857.661 420.555,1843.413 410.918,1834.000 408.082 C 1823.615 404.953,1770.972 402.508,1684.000 401.114 L 1550.000 398.968 1512.483 363.135 C 1491.849 343.427,1467.729 322.059,1458.883 315.651 L 1442.800 304.000 1206.400 304.176 C 1017.488 304.316,966.934 305.445,954.735 309.795 M600.887 1317.000 L 602.171 1934.000 610.942 1960.000 C 632.282 2023.259,681.556 2070.926,746.000 2090.653 C 768.654 2097.588,794.123 2098.000,1200.000 2098.000 L 1630.000 2098.000 1658.000 2089.166 C 1720.507 2069.446,1767.947 2022.682,1789.034 1960.000 L 1797.780 1934.000 1799.109 1317.000 L 1800.439 700.000 1200.021 700.000 L 599.604 700.000 600.887 1317.000 M1032.175 1102.091 C 1045.996 1109.238,1081.695 1141.560,1150.718 1209.420 L 1199.435 1257.316 1270.170 1188.735 C 1309.075 1151.016,1349.110 1114.719,1359.139 1108.077 C 1376.083 1096.854,1379.954 1096.000,1413.898 1096.000 C 1448.114 1096.000,1451.446 1096.752,1466.592 1107.890 C 1475.484 1114.429,1487.538 1126.676,1493.380 1135.105 C 1502.957 1148.925,1504.000 1153.976,1504.000 1186.529 C 1504.000 1219.998,1503.120 1223.957,1491.923 1240.861 C 1485.281 1250.890,1449.089 1290.818,1411.497 1329.590 L 1343.148 1400.086 1410.841 1469.506 C 1448.072 1507.687,1484.152 1547.407,1491.018 1557.772 C 1504.532 1578.175,1510.853 1609.537,1506.320 1633.698 C 1498.860 1673.465,1452.995 1709.825,1410.562 1709.611 C 1374.974 1709.431,1360.319 1699.403,1277.000 1618.215 L 1200.000 1543.184 1123.000 1618.215 C 1071.106 1668.781,1040.131 1695.913,1028.000 1701.426 C 986.518 1720.277,935.564 1705.268,909.134 1666.412 C 893.851 1643.943,890.144 1627.476,893.795 1598.259 C 897.617 1567.663,910.844 1549.818,989.435 1469.223 L 1057.405 1399.519 1007.403 1348.760 C 936.186 1276.464,903.681 1239.920,897.435 1225.128 C 890.459 1208.607,890.436 1167.475,897.394 1150.872 C 908.785 1123.688,932.672 1103.218,962.000 1095.506 C 978.884 1091.067,1017.945 1094.732,1032.175 1102.091 " fill="#1D1E23" stroke="none" fill-rule="evenodd"/></svg>