<svg viewBox="0 0 2400 2400" fill="none" xmlns="http://www.w3.org/2000/svg"><path d="M900.000 350.000 L 850.120 400.000 675.060 400.000 L 500.000 400.000 500.000 500.000 L 500.000 600.000 1200.000 600.000 L 1900.000 600.000 1900.000 500.000 L 1900.000 400.000 1724.940 400.000 L 1549.880 400.000 1500.000 350.000 L 1450.120 300.000 1200.000 300.000 L 949.880 300.000 900.000 350.000 M600.000 1400.000 L 600.000 2100.000 1200.000 2100.000 L 1800.000 2100.000 1800.000 1400.000 L 1800.000 700.000 1200.000 700.000 L 600.000 700.000 600.000 1400.000 M1600.000 1400.000 L 1600.000 1900.000 1200.000 1900.000 L 800.000 1900.000 800.000 1400.000 L 800.000 900.000 1200.000 900.000 L 1600.000 900.000 1600.000 1400.000 " fill="#1D1E23" stroke="none" fill-rule="evenodd"/></svg>