<svg viewBox="0 0 2400 2400" fill="none" xmlns="http://www.w3.org/2000/svg"><path d="M954.735 309.795 C 936.562 316.277,932.573 319.449,886.000 364.453 L 850.000 399.240 716.000 401.250 C 628.624 402.561,576.433 404.938,566.000 408.082 C 556.587 410.918,542.339 420.555,531.392 431.489 C 495.204 467.631,491.898 514.187,522.361 558.666 C 542.400 587.926,554.242 592.412,621.721 596.312 C 695.044 600.549,1704.956 600.549,1778.279 596.312 C 1845.758 592.412,1857.600 587.926,1877.639 558.666 C 1908.102 514.187,1904.796 467.631,1868.608 431.489 C 1857.661 420.555,1843.413 410.918,1834.000 408.082 C 1823.615 404.953,1770.972 402.508,1684.000 401.114 L 1550.000 398.968 1512.483 363.135 C 1491.849 343.427,1467.729 322.059,1458.883 315.651 L 1442.800 304.000 1206.400 304.176 C 1017.488 304.316,966.934 305.445,954.735 309.795 M600.887 1317.000 L 602.171 1934.000 610.942 1960.000 C 632.282 2023.259,681.556 2070.926,746.000 2090.653 C 768.654 2097.588,794.123 2098.000,1200.000 2098.000 L 1630.000 2098.000 1658.000 2089.166 C 1720.507 2069.446,1767.947 2022.682,1789.034 1960.000 L 1797.780 1934.000 1799.109 1317.000 L 1800.439 700.000 1200.021 700.000 L 599.604 700.000 600.887 1317.000 " fill="#1D1E23" stroke="none" fill-rule="evenodd"/></svg>