<svg viewBox="0 0 2400 2400" fill="none" xmlns="http://www.w3.org/2000/svg"><path d="M979.577 307.766 C 942.908 310.849,938.248 313.635,887.663 362.721 L 849.245 400.000 787.623 400.230 C 753.730 400.356,689.827 401.879,645.615 403.615 L 565.229 406.770 547.357 419.066 C 513.285 442.508,495.177 483.235,504.097 516.362 C 513.854 552.594,533.425 578.647,558.000 588.114 C 582.083 597.393,707.961 599.655,1200.000 599.655 C 1692.039 599.655,1817.917 597.393,1842.000 588.114 C 1866.338 578.738,1886.151 552.575,1895.662 517.256 C 1904.703 483.680,1885.558 440.683,1851.545 418.174 C 1834.848 407.124,1832.691 406.788,1758.227 403.630 C 1716.302 401.851,1652.492 400.307,1616.426 400.198 L 1550.852 400.000 1518.426 368.877 C 1500.592 351.760,1476.388 330.160,1464.641 320.877 L 1443.282 304.000 1226.641 304.604 C 1107.488 304.936,996.310 306.359,979.577 307.766 M600.000 1313.762 L 600.000 1927.523 610.533 1956.762 C 631.411 2014.713,666.322 2054.084,719.080 2079.176 L 750.000 2093.882 828.000 2096.590 C 870.900 2098.079,1068.168 2099.456,1266.374 2099.649 C 1608.350 2099.982,1627.856 2099.619,1648.464 2092.529 C 1683.791 2080.374,1711.767 2064.538,1733.022 2044.663 C 1760.389 2019.074,1774.706 1997.078,1788.378 1959.615 L 1800.000 1927.770 1800.000 1313.885 L 1800.000 700.000 1200.000 700.000 L 600.000 700.000 600.000 1313.762 M1598.746 1331.000 C 1597.425 1571.512,1594.590 1780.252,1592.332 1803.297 C 1587.694 1850.628,1581.195 1864.540,1555.359 1882.444 L 1538.684 1894.000 1200.000 1894.000 L 861.316 1894.000 844.641 1882.444 C 819.312 1864.891,811.737 1849.471,807.504 1806.851 C 805.491 1786.583,802.733 1574.250,801.376 1335.000 L 798.908 900.000 1200.010 900.000 L 1601.113 900.000 1598.746 1331.000 " fill="#1D1E23" stroke="none" fill-rule="evenodd"/></svg>