<svg viewBox="0 0 2400 2400" fill="none" xmlns="http://www.w3.org/2000/svg"><path d="M959.540 305.454 C 939.024 312.877,926.819 322.557,886.083 363.713 L 850.167 400.000 717.796 400.000 C 566.517 400.000,558.517 401.273,529.895 429.895 C 490.768 469.021,490.768 530.979,529.895 570.105 C 562.127 602.338,509.722 600.000,1200.000 600.000 C 1890.278 600.000,1837.873 602.338,1870.105 570.105 C 1909.232 530.979,1909.232 469.021,1870.105 429.895 C 1841.483 401.273,1833.483 400.000,1682.208 400.000 L 1549.842 400.000 1511.921 361.718 C 1491.064 340.663,1465.900 318.613,1456.000 312.718 L 1438.000 302.000 1206.000 301.111 C 1023.168 300.411,970.936 301.331,959.540 305.454 M600.000 1309.803 C 600.000 1739.542,601.305 1925.865,604.420 1940.803 C 620.053 2015.765,684.235 2079.947,759.197 2095.580 C 788.926 2101.779,1611.074 2101.779,1640.803 2095.580 C 1715.765 2079.947,1779.947 2015.765,1795.580 1940.803 C 1798.695 1925.865,1800.000 1739.542,1800.000 1309.803 L 1800.000 700.000 1200.000 700.000 L 600.000 700.000 600.000 1309.803 M1033.538 1100.785 C 1042.546 1105.380,1083.723 1142.532,1125.044 1183.345 L 1200.173 1257.551 1275.087 1183.230 C 1359.965 1099.023,1372.470 1090.558,1412.000 1090.558 C 1441.896 1090.558,1462.538 1099.362,1482.552 1120.649 C 1502.736 1142.117,1509.469 1158.973,1509.455 1188.000 C 1509.435 1227.541,1500.969 1240.043,1416.684 1325.000 L 1342.277 1400.000 1416.684 1475.000 C 1500.969 1559.957,1509.435 1572.459,1509.455 1612.000 C 1509.469 1641.027,1502.736 1657.883,1482.552 1679.351 C 1455.659 1707.954,1420.308 1717.309,1381.617 1706.061 C 1359.194 1699.542,1354.089 1695.301,1279.010 1620.819 L 1200.000 1542.436 1120.990 1620.819 C 1045.911 1695.301,1040.806 1699.542,1018.383 1706.061 C 980.654 1717.029,949.296 1709.486,920.649 1682.552 C 899.362 1662.538,890.558 1641.896,890.558 1612.000 C 890.558 1572.464,899.017 1559.970,983.318 1474.998 L 1057.727 1399.997 981.333 1322.998 C 939.316 1280.649,901.876 1239.947,898.134 1232.550 C 888.858 1214.216,885.913 1180.591,891.918 1161.576 C 902.901 1126.795,930.557 1100.450,965.328 1091.647 C 983.678 1087.002,1014.655 1091.151,1033.538 1100.785 " fill="#1D1E23" stroke="none" fill-rule="evenodd"/></svg>