<svg viewBox="0 0 2400 2400" fill="none" xmlns="http://www.w3.org/2000/svg"><path d="M979.577 307.766 C 942.908 310.849,938.248 313.635,887.663 362.721 L 849.245 400.000 787.623 400.230 C 753.730 400.356,689.827 401.879,645.615 403.615 L 565.229 406.770 547.357 419.066 C 513.285 442.508,495.177 483.235,504.097 516.362 C 513.854 552.594,533.425 578.647,558.000 588.114 C 582.083 597.393,707.961 599.655,1200.000 599.655 C 1692.039 599.655,1817.917 597.393,1842.000 588.114 C 1866.338 578.738,1886.151 552.575,1895.662 517.256 C 1904.703 483.680,1885.558 440.683,1851.545 418.174 C 1834.848 407.124,1832.691 406.788,1758.227 403.630 C 1716.302 401.851,1652.492 400.307,1616.426 400.198 L 1550.852 400.000 1518.426 368.877 C 1500.592 351.760,1476.388 330.160,1464.641 320.877 L 1443.282 304.000 1226.641 304.604 C 1107.488 304.936,996.310 306.359,979.577 307.766 M600.000 1313.762 L 600.000 1927.523 610.533 1956.762 C 631.411 2014.713,666.322 2054.084,719.080 2079.176 L 750.000 2093.882 828.000 2096.590 C 870.900 2098.079,1068.168 2099.456,1266.374 2099.649 C 1608.350 2099.982,1627.856 2099.619,1648.464 2092.529 C 1683.791 2080.374,1711.767 2064.538,1733.022 2044.663 C 1760.389 2019.074,1774.706 1997.078,1788.378 1959.615 L 1800.000 1927.770 1800.000 1313.885 L 1800.000 700.000 1200.000 700.000 L 600.000 700.000 600.000 1313.762 M1029.128 1101.404 C 1043.310 1107.357,1081.514 1141.350,1152.707 1211.359 L 1199.413 1257.290 1264.401 1194.595 C 1300.145 1160.113,1339.272 1124.273,1351.350 1114.950 C 1372.993 1098.245,1373.836 1097.981,1409.655 1096.683 C 1444.326 1095.426,1446.806 1095.909,1463.509 1107.174 C 1473.138 1113.669,1486.331 1126.862,1492.826 1136.491 C 1504.091 1153.194,1504.574 1155.674,1503.317 1190.345 C 1502.021 1226.101,1501.729 1227.040,1485.246 1248.345 C 1476.031 1260.255,1440.196 1299.388,1405.611 1335.306 L 1342.731 1400.612 1390.619 1449.306 C 1488.991 1549.334,1501.289 1565.638,1506.181 1602.521 C 1509.850 1630.173,1502.470 1653.499,1483.566 1674.008 C 1462.912 1696.414,1436.979 1708.571,1409.836 1708.571 C 1373.227 1708.571,1356.887 1696.675,1253.199 1594.525 L 1200.397 1542.508 1139.145 1602.254 C 1067.449 1672.187,1037.831 1697.981,1022.556 1703.789 C 1005.202 1710.387,967.912 1708.693,949.845 1700.486 C 928.422 1690.755,902.301 1660.506,896.054 1638.193 C 890.114 1616.976,893.400 1588.778,904.303 1567.406 C 913.280 1549.809,939.878 1519.856,1007.669 1451.002 L 1057.880 1400.005 1011.654 1353.002 C 905.709 1245.276,892.252 1226.982,892.088 1190.464 C 891.908 1150.513,909.115 1120.204,940.910 1104.466 C 961.173 1094.436,1008.609 1092.789,1029.128 1101.404 " fill="#1D1E23" stroke="none" fill-rule="evenodd"/></svg>