<svg viewBox="0 0 2400 2400" fill="none" xmlns="http://www.w3.org/2000/svg"><path d="M1020.000 307.807 C 967.845 309.655,951.270 311.621,940.988 317.181 C 933.832 321.051,910.212 341.269,888.499 362.109 L 849.022 400.000 795.511 400.151 C 766.080 400.234,701.812 401.926,652.692 403.911 C 563.644 407.509,563.342 407.552,548.692 418.659 C 502.886 453.388,490.861 496.930,514.429 542.728 C 531.056 575.040,548.231 587.432,584.446 593.249 C 626.745 600.042,1773.255 600.042,1815.554 593.249 C 1851.709 587.442,1868.943 575.040,1885.462 542.943 C 1898.857 516.914,1900.503 490.544,1890.266 465.976 C 1882.754 447.946,1859.551 422.253,1842.881 413.506 C 1830.632 407.079,1711.605 400.292,1607.833 400.105 L 1549.666 400.000 1531.833 381.639 C 1522.025 371.540,1498.189 349.940,1478.864 333.639 L 1443.728 304.000 1264.864 304.734 C 1166.489 305.138,1056.300 306.521,1020.000 307.807 M600.000 1314.129 L 600.000 1928.258 612.254 1960.034 C 634.728 2018.312,671.149 2056.876,730.058 2084.769 L 758.000 2098.000 1198.000 2098.000 L 1638.000 2098.000 1665.302 2086.454 C 1722.177 2062.401,1760.669 2024.558,1784.527 1969.239 L 1798.000 1938.000 1799.037 1319.000 L 1800.075 700.000 1200.037 700.000 L 600.000 700.000 600.000 1314.129 M1030.000 1103.479 C 1047.145 1111.305,1083.061 1142.960,1154.999 1213.649 L 1199.997 1257.867 1242.999 1215.624 C 1305.338 1154.386,1352.280 1112.150,1365.868 1105.076 C 1372.633 1101.554,1392.414 1098.095,1411.868 1097.033 C 1444.910 1095.229,1446.530 1095.557,1462.588 1107.311 C 1498.242 1133.409,1508.163 1158.054,1502.207 1205.728 C 1498.636 1234.306,1486.877 1250.042,1405.679 1334.902 L 1343.310 1400.083 1404.275 1463.042 C 1437.805 1497.669,1472.940 1536.384,1482.352 1549.076 C 1525.586 1607.378,1509.413 1672.199,1444.430 1701.072 C 1431.412 1706.856,1420.822 1708.442,1403.559 1707.194 C 1371.797 1704.896,1352.757 1691.122,1268.227 1609.294 L 1200.008 1543.254 1133.501 1607.529 C 1042.954 1695.037,1029.494 1705.092,1000.054 1707.222 C 961.159 1710.035,932.462 1696.412,910.487 1664.702 C 885.872 1629.183,888.389 1588.532,917.648 1549.076 C 927.060 1536.384,962.335 1497.523,996.037 1462.719 L 1057.314 1399.438 1011.359 1352.719 C 939.623 1279.790,913.105 1249.056,901.567 1225.472 C 892.220 1206.369,891.213 1200.621,893.456 1179.169 C 897.767 1137.921,921.600 1108.361,957.433 1099.816 C 980.723 1094.262,1013.424 1095.913,1030.000 1103.479 " fill="#1D1E23" stroke="none" fill-rule="evenodd"/></svg>