<svg viewBox="0 0 2400 2400" fill="none" xmlns="http://www.w3.org/2000/svg"><path d="M986.000 303.400 C 947.300 306.790,934.601 314.550,884.088 365.676 L 850.177 400.000 732.088 400.131 C 597.457 400.280,565.701 403.094,545.782 416.640 C 512.501 439.274,494.683 482.918,503.367 520.537 C 508.877 544.408,531.664 577.552,548.580 586.300 C 555.029 589.635,578.686 594.021,601.152 596.047 C 654.481 600.856,1745.519 600.856,1798.848 596.047 C 1821.314 594.021,1844.971 589.635,1851.420 586.300 C 1868.336 577.552,1891.123 544.408,1896.633 520.537 C 1905.317 482.918,1887.499 439.274,1854.218 416.640 C 1834.311 403.102,1802.544 400.280,1668.377 400.131 L 1550.755 400.000 1512.242 362.629 C 1491.060 342.075,1466.441 320.435,1457.533 314.540 L 1441.336 303.821 1229.668 302.209 C 1113.251 301.323,1003.600 301.859,986.000 303.400 M600.252 1295.000 C 600.390 1622.250,601.925 1904.867,603.662 1923.037 C 612.337 2013.779,687.839 2088.377,779.100 2096.373 C 824.596 2100.360,1575.404 2100.360,1620.900 2096.373 C 1713.255 2088.281,1788.281 2013.255,1796.373 1920.900 C 1798.055 1901.705,1799.559 1619.150,1799.716 1293.000 L 1800.000 700.000 1200.000 700.000 L 600.000 700.000 600.252 1295.000 " fill="#1D1E23" stroke="none" fill-rule="evenodd"/></svg>