<svg viewBox="0 0 2400 2400" fill="none" xmlns="http://www.w3.org/2000/svg"><path d="M959.540 305.454 C 939.024 312.877,926.819 322.557,886.083 363.713 L 850.167 400.000 717.796 400.000 C 566.517 400.000,558.517 401.273,529.895 429.895 C 490.768 469.021,490.768 530.979,529.895 570.105 C 562.127 602.338,509.722 600.000,1200.000 600.000 C 1890.278 600.000,1837.873 602.338,1870.105 570.105 C 1909.232 530.979,1909.232 469.021,1870.105 429.895 C 1841.483 401.273,1833.483 400.000,1682.208 400.000 L 1549.842 400.000 1511.921 361.718 C 1491.064 340.663,1465.900 318.613,1456.000 312.718 L 1438.000 302.000 1206.000 301.111 C 1023.168 300.411,970.936 301.331,959.540 305.454 M600.000 1309.803 C 600.000 1739.542,601.305 1925.865,604.420 1940.803 C 620.053 2015.765,684.235 2079.947,759.197 2095.580 C 788.926 2101.779,1611.074 2101.779,1640.803 2095.580 C 1715.765 2079.947,1779.947 2015.765,1795.580 1940.803 C 1798.695 1925.865,1800.000 1739.542,1800.000 1309.803 L 1800.000 700.000 1200.000 700.000 L 600.000 700.000 600.000 1309.803 " fill="#1D1E23" stroke="none" fill-rule="evenodd"/></svg>