<svg viewBox="0 0 2400 2400" fill="none" xmlns="http://www.w3.org/2000/svg"><path d="M666.000 303.788 L 546.000 306.000 518.035 320.000 C 501.722 328.167,478.671 344.746,462.710 359.791 C 439.773 381.412,432.252 392.085,416.194 425.791 C 394.976 470.333,305.088 679.633,163.578 1014.000 L 70.470 1234.000 68.949 1274.000 C 66.911 1327.584,72.500 1367.430,87.462 1406.000 C 120.050 1490.006,182.880 1550.285,274.849 1585.779 L 311.698 1600.000 512.849 1600.008 C 623.482 1600.013,761.250 1601.202,819.000 1602.650 L 924.000 1605.284 924.000 1615.784 C 924.000 1621.559,904.384 1723.420,880.409 1842.142 C 856.434 1960.864,835.569 2067.422,834.042 2078.938 C 830.882 2102.775,841.342 2141.797,857.737 2167.334 C 888.643 2215.473,949.321 2244.574,1001.186 2236.132 C 1033.382 2230.892,1050.019 2220.835,1098.520 2177.291 C 1156.285 2125.431,1404.446 1879.339,1548.004 1731.557 C 1657.232 1619.114,1663.945 1611.328,1680.530 1577.854 L 1698.000 1542.594 1698.000 1012.297 C 1698.000 441.366,1698.485 455.208,1676.960 412.000 C 1661.554 381.075,1620.528 341.373,1584.000 322.040 L 1554.000 306.162 1370.000 303.470 C 1159.990 300.397,842.225 300.541,666.000 303.788 M2044.000 310.413 C 2015.196 318.119,1984.328 337.077,1959.094 362.560 C 1933.144 388.764,1922.038 407.078,1910.917 442.000 L 1902.000 470.000 1902.000 908.000 L 1902.000 1346.000 1917.033 1377.485 C 1936.439 1418.129,1977.986 1460.849,2016.000 1479.246 C 2092.507 1516.273,2175.553 1500.996,2238.425 1438.332 C 2267.652 1409.201,2279.443 1390.497,2292.493 1352.566 C 2299.654 1331.753,2300.000 1310.885,2300.000 899.556 L 2300.000 468.364 2290.686 442.704 C 2277.937 407.582,2263.244 383.625,2240.505 360.886 C 2217.996 338.377,2174.845 314.729,2144.803 308.438 C 2115.971 302.401,2070.624 303.289,2044.000 310.413 " fill="#1D1E23" stroke="none" fill-rule="evenodd"/></svg>