<svg viewBox="0 0 2400 2400" fill="none" xmlns="http://www.w3.org/2000/svg"><path d="M583.232 303.892 C 549.565 306.204,540.521 308.503,514.488 321.369 C 477.407 339.695,440.896 374.530,424.292 407.422 C 405.037 445.565,250.284 807.778,108.739 1146.000 L 70.237 1238.000 70.118 1298.000 C 70.015 1350.272,71.191 1361.556,79.249 1385.608 C 111.578 1482.105,175.244 1548.141,271.079 1584.578 L 306.000 1597.855 614.668 1599.927 C 784.435 1601.067,924.608 1603.273,926.162 1604.828 C 927.717 1606.384,913.604 1681.984,894.799 1772.828 C 830.642 2082.760,830.006 2086.367,835.159 2110.935 C 849.360 2178.639,893.993 2223.299,960.293 2236.145 C 990.154 2241.930,1026.200 2234.933,1050.940 2218.548 C 1061.360 2211.646,1106.811 2170.699,1151.943 2127.552 C 1269.066 2015.581,1639.275 1641.914,1659.093 1615.666 C 1668.260 1603.525,1680.764 1581.084,1686.880 1565.796 L 1698.000 1538.000 1699.203 1046.000 C 1699.958 736.982,1698.882 533.173,1696.308 498.000 C 1692.459 445.382,1691.325 440.245,1677.526 412.938 C 1659.029 376.331,1621.341 339.695,1581.965 320.043 L 1554.000 306.086 1442.000 303.451 C 1297.930 300.062,634.051 300.403,583.232 303.892 M2030.667 313.784 C 1958.322 343.530,1911.496 403.724,1903.402 477.380 C 1901.229 497.155,1900.162 686.145,1900.864 926.753 L 1902.075 1342.000 1911.876 1367.115 C 1932.668 1420.390,1979.468 1466.614,2034.639 1488.366 C 2068.192 1501.594,2131.808 1501.594,2165.361 1488.366 C 2221.782 1466.121,2268.816 1418.901,2288.272 1364.967 L 2298.000 1338.000 2298.000 900.000 L 2298.000 462.000 2288.478 436.000 C 2265.760 373.971,2221.006 330.532,2160.579 311.857 C 2122.467 300.078,2061.812 300.978,2030.667 313.784 " fill="#1D1E23" stroke="none" fill-rule="evenodd"/></svg>