<svg viewBox="0 0 2400 2400" fill="none" xmlns="http://www.w3.org/2000/svg"><path d="M464.664 310.140 C 462.123 315.716,379.034 508.911,280.022 739.462 L 100.000 1158.645 100.000 1379.322 L 100.000 1600.000 277.000 1600.004 C 374.350 1600.006,560.351 1601.197,690.336 1602.652 L 926.673 1605.296 919.006 1647.648 C 914.789 1670.942,892.482 1780.900,869.434 1892.000 C 846.386 2003.100,825.555 2103.604,823.143 2115.343 L 818.758 2136.685 900.357 2218.357 L 981.955 2300.028 1340.978 1941.022 L 1700.000 1582.017 1700.000 941.008 L 1700.000 300.000 1084.642 300.000 L 469.284 300.000 464.664 310.140 M1900.000 900.000 L 1900.000 1500.000 2100.000 1500.000 L 2300.000 1500.000 2300.000 900.000 L 2300.000 300.000 2100.000 300.000 L 1900.000 300.000 1900.000 900.000 " fill="#1D1E23" stroke="none" fill-rule="evenodd"/></svg>