<svg viewBox="0 0 2400 2400" fill="none" xmlns="http://www.w3.org/2000/svg"><path d="M722.000 303.813 L 546.000 306.000 516.000 321.996 C 472.106 345.399,437.215 381.338,416.969 424.000 C 396.026 468.131,301.594 687.842,171.122 996.000 L 66.968 1242.000 69.223 1298.000 C 71.740 1360.492,77.752 1387.580,98.364 1429.287 C 133.323 1500.024,184.225 1546.047,268.726 1583.322 L 302.000 1598.000 560.000 1600.478 C 701.900 1601.841,841.850 1603.191,871.000 1603.478 C 921.186 1603.972,924.000 1604.425,924.000 1612.012 C 924.000 1616.418,903.184 1724.868,877.741 1853.012 C 834.267 2071.974,831.739 2087.324,835.752 2108.000 C 849.783 2180.306,905.740 2231.571,974.698 2235.294 C 1016.907 2237.573,1035.583 2229.890,1082.548 2190.925 C 1126.478 2154.477,1578.890 1704.045,1632.592 1643.288 C 1653.939 1619.136,1673.223 1592.246,1683.864 1571.794 L 1700.919 1539.013 1698.907 1012.506 C 1696.805 462.016,1696.498 452.789,1679.101 416.000 C 1666.897 390.193,1611.609 336.657,1580.000 320.039 L 1554.000 306.370 1316.000 303.501 C 1059.785 300.412,992.858 300.447,722.000 303.813 M2052.000 309.470 C 2018.987 316.671,1989.209 334.577,1957.529 366.277 C 1933.393 390.428,1926.998 399.884,1915.529 428.383 L 1902.000 462.000 1900.948 902.434 L 1899.897 1342.868 1916.069 1375.178 C 1933.414 1409.832,1969.361 1450.893,1998.000 1468.765 C 2077.358 1518.287,2170.252 1505.437,2240.492 1435.222 C 2272.923 1402.803,2290.882 1368.824,2296.303 1329.626 C 2298.590 1313.092,2299.697 1132.570,2299.062 880.000 L 2298.000 458.000 2284.295 426.204 C 2273.299 400.691,2265.000 388.826,2242.295 366.159 C 2189.129 313.079,2124.167 293.727,2052.000 309.470 " fill="#1D1E23" stroke="none" fill-rule="evenodd"/></svg>