<svg viewBox="0 0 2400 2400" fill="none" xmlns="http://www.w3.org/2000/svg"><path d="M465.214 309.000 C 462.975 313.950,379.886 507.210,280.572 738.467 L 100.000 1158.933 100.000 1378.864 L 100.000 1598.795 512.207 1600.938 C 738.921 1602.116,925.457 1604.123,926.731 1605.398 C 928.005 1606.672,904.253 1726.754,873.949 1872.246 L 818.850 2136.777 900.402 2218.403 L 981.955 2300.028 1340.978 1941.022 L 1700.000 1582.017 1700.000 941.008 L 1700.000 300.000 1084.642 300.000 L 469.284 300.000 465.214 309.000 M1900.000 900.000 L 1900.000 1500.000 2100.000 1500.000 L 2300.000 1500.000 2300.000 900.000 L 2300.000 300.000 2100.000 300.000 L 1900.000 300.000 1900.000 900.000 " fill="#1D1E23" stroke="none" fill-rule="evenodd"/></svg>