<svg viewBox="0 0 2400 2400" fill="none" xmlns="http://www.w3.org/2000/svg"><path d="M746.000 303.793 L 546.000 306.134 528.000 315.554 C 473.453 344.101,434.698 384.033,411.105 436.000 C 389.518 483.550,254.292 799.059,159.952 1021.993 L 66.856 1241.986 69.272 1295.993 C 71.925 1355.265,78.159 1384.789,96.213 1423.574 C 129.768 1495.662,188.190 1548.775,274.427 1585.594 L 306.000 1599.074 612.000 1601.781 C 780.300 1603.270,919.529 1605.997,921.398 1607.842 C 923.267 1609.687,909.143 1691.027,890.011 1788.598 C 827.637 2106.708,828.850 2097.564,843.950 2135.874 C 869.293 2200.168,929.928 2240.151,994.256 2234.988 C 1028.922 2232.205,1050.538 2219.203,1108.793 2166.093 C 1186.459 2095.286,1616.508 1663.660,1645.527 1627.391 C 1659.927 1609.393,1678.325 1582.077,1686.412 1566.689 L 1701.114 1538.710 1698.680 1022.355 C 1697.236 716.041,1694.596 491.803,1692.190 471.098 C 1689.919 451.564,1684.317 428.077,1679.465 417.756 C 1668.267 393.933,1616.029 342.144,1584.322 323.430 L 1559.636 308.860 1482.818 306.534 C 1357.877 302.750,961.183 301.274,746.000 303.793 M2052.663 310.136 C 1994.029 322.862,1937.350 373.943,1912.265 436.666 L 1900.000 467.333 1900.000 906.081 L 1900.000 1344.830 1914.161 1371.779 C 1949.418 1438.872,2001.571 1481.205,2065.496 1494.618 C 2128.985 1507.939,2190.207 1485.936,2242.579 1430.974 C 2270.199 1401.988,2280.143 1386.432,2290.508 1356.000 C 2297.652 1335.022,2298.000 1313.567,2298.000 894.000 L 2298.000 454.000 2283.250 423.832 C 2256.889 369.917,2199.083 322.801,2143.898 310.250 C 2111.028 302.774,2086.721 302.743,2052.663 310.136 " fill="#1D1E23" stroke="none" fill-rule="evenodd"/></svg>