<svg viewBox="0 0 2400 2400" fill="none" xmlns="http://www.w3.org/2000/svg"><path d="M568.000 302.763 C 507.905 312.823,448.686 356.284,423.031 409.156 C 390.982 475.208,79.765 1210.710,74.011 1234.000 C 64.505 1272.479,65.165 1332.899,75.527 1372.700 C 102.479 1476.225,175.625 1552.678,282.000 1588.507 L 310.000 1597.938 620.207 1599.969 L 930.413 1602.000 883.398 1828.000 C 857.540 1952.300,835.204 2064.002,833.762 2076.227 C 828.799 2118.320,849.544 2170.967,882.494 2199.897 C 916.359 2229.631,966.450 2244.197,1006.414 2235.933 C 1056.175 2225.643,1047.067 2233.769,1364.568 1916.423 C 1654.984 1626.148,1663.522 1617.181,1677.265 1588.000 C 1685.036 1571.500,1693.331 1547.319,1695.697 1534.265 C 1698.624 1518.120,1699.978 1346.727,1699.931 998.265 C 1699.854 434.662,1700.713 455.255,1675.262 406.921 C 1648.838 356.737,1591.465 314.196,1536.454 303.995 C 1515.718 300.150,590.639 298.974,568.000 302.763 M2068.000 302.417 C 1987.708 317.286,1920.601 381.603,1904.420 459.197 C 1901.356 473.891,1900.000 609.116,1900.000 900.000 C 1900.000 1190.884,1901.356 1326.109,1904.420 1340.803 C 1923.232 1431.010,2007.989 1500.000,2100.000 1500.000 C 2192.011 1500.000,2276.768 1431.010,2295.580 1340.803 C 2298.644 1326.109,2300.000 1190.884,2300.000 900.000 C 2300.000 609.116,2298.644 473.891,2295.580 459.197 C 2277.315 371.610,2200.058 306.120,2110.174 302.030 C 2092.478 301.224,2073.500 301.399,2068.000 302.417 " fill="#1D1E23" stroke="none" fill-rule="evenodd"/></svg>