<svg viewBox="0 0 2400 2400" fill="none" xmlns="http://www.w3.org/2000/svg"><path d="M506.129 303.775 L 466.257 306.000 283.129 731.768 L 100.000 1157.536 100.000 1378.768 L 100.000 1600.000 259.000 1600.416 C 541.372 1601.156,919.260 1605.922,922.116 1608.780 C 925.277 1611.943,912.577 1678.365,857.404 1947.249 L 818.572 2136.499 900.263 2218.264 L 981.955 2300.028 1340.978 1941.022 L 1700.000 1582.017 1700.000 941.008 L 1700.000 300.000 1123.000 300.775 C 805.650 301.201,528.058 302.551,506.129 303.775 M1900.000 900.000 L 1900.000 1500.000 2100.000 1500.000 L 2300.000 1500.000 2300.000 900.000 L 2300.000 300.000 2100.000 300.000 L 1900.000 300.000 1900.000 900.000 " fill="#1D1E23" stroke="none" fill-rule="evenodd"/></svg>