<svg viewBox="0 0 2400 2400" fill="none" xmlns="http://www.w3.org/2000/svg"><path d="M466.788 305.000 C 465.650 307.750,382.660 500.800,282.365 734.000 L 100.011 1158.000 100.005 1378.390 L 100.000 1598.781 510.982 1601.705 C 737.022 1603.314,922.784 1605.451,923.787 1606.454 C 926.559 1609.226,912.701 1681.125,863.494 1919.264 L 818.601 2136.528 900.278 2218.278 L 981.955 2300.028 1340.978 1941.022 L 1700.000 1582.017 1700.000 941.008 L 1700.000 300.000 1084.428 300.000 C 595.740 300.000,468.430 301.031,466.788 305.000 M1900.000 900.000 L 1900.000 1500.000 2100.000 1500.000 L 2300.000 1500.000 2300.000 900.000 L 2300.000 300.000 2100.000 300.000 L 1900.000 300.000 1900.000 900.000 " fill="#1D1E23" stroke="none" fill-rule="evenodd"/></svg>