<svg viewBox="0 0 2400 2400" fill="none" xmlns="http://www.w3.org/2000/svg"><path d="M708.000 203.914 L 546.000 206.396 521.834 219.311 C 475.453 244.098,437.645 281.488,417.661 322.336 C 407.374 343.361,406.626 348.845,403.627 425.272 C 399.501 530.418,399.501 1869.582,403.627 1974.728 C 406.649 2051.742,407.311 2056.527,418.018 2078.728 C 431.708 2107.118,489.491 2166.258,516.082 2179.095 C 554.437 2197.612,561.601 2197.809,1200.000 2197.908 C 1837.410 2198.005,1847.154 2197.741,1881.952 2179.376 C 1925.849 2156.210,1965.347 2113.532,1985.031 2068.000 L 1998.000 2038.000 1997.588 1460.000 C 1997.169 870.988,1996.260 832.615,1982.007 802.579 C 1968.089 773.249,1776.382 574.006,1577.668 382.345 C 1455.016 264.046,1420.422 233.909,1389.384 218.320 L 1368.939 208.051 1189.470 204.096 C 1000.768 199.937,968.438 199.925,708.000 203.914 M1838.502 894.835 C 1833.906 899.436,1440.401 901.082,1396.553 896.684 C 1355.113 892.528,1340.836 884.552,1318.609 853.141 L 1307.218 837.044 1303.800 657.522 C 1301.920 558.785,1300.296 449.202,1300.191 414.004 L 1300.000 350.007 1570.831 620.839 C 1719.789 769.796,1840.240 893.095,1838.502 894.835 M1543.656 1215.825 C 1561.142 1224.745,1577.805 1243.004,1585.696 1261.890 C 1605.662 1309.674,1590.806 1355.725,1545.782 1385.619 L 1524.123 1400.000 1197.062 1399.961 L 870.000 1399.922 852.397 1385.930 C 805.047 1348.290,792.541 1304.210,815.932 1257.400 C 832.323 1224.598,843.802 1214.745,869.227 1211.653 C 880.652 1210.263,1033.622 1208.873,1209.159 1208.563 C 1518.634 1208.017,1528.784 1208.237,1543.656 1215.825 M1543.656 1615.825 C 1561.142 1624.745,1577.805 1643.004,1585.696 1661.890 C 1605.662 1709.674,1590.806 1755.725,1545.782 1785.619 L 1524.123 1800.000 1197.062 1799.961 L 870.000 1799.922 852.397 1785.930 C 805.047 1748.290,792.541 1704.210,815.932 1657.400 C 832.323 1624.598,843.802 1614.745,869.227 1611.653 C 880.652 1610.263,1033.622 1608.873,1209.159 1608.563 C 1518.634 1608.017,1528.784 1608.237,1543.656 1615.825 " fill="#1D1E23" stroke="none" fill-rule="evenodd"/></svg>