<svg viewBox="0 0 2400 2400" fill="none" xmlns="http://www.w3.org/2000/svg"><path d="M656.000 203.876 C 546.002 206.247,546.000 206.248,523.041 217.395 C 474.630 240.900,441.934 272.840,419.376 318.662 C 407.141 343.514,406.279 348.230,403.514 405.471 C 399.701 484.398,399.701 1915.602,403.514 1994.529 C 406.304 2052.274,407.057 2056.321,419.887 2082.529 C 438.321 2120.180,480.505 2162.224,517.490 2179.807 C 542.222 2191.565,550.250 2193.217,597.490 2196.265 C 626.371 2198.129,897.500 2199.654,1200.000 2199.654 C 1502.500 2199.654,1773.629 2198.129,1802.510 2196.265 C 1849.420 2193.238,1857.861 2191.521,1881.657 2180.164 C 1913.833 2164.807,1955.341 2127.163,1971.586 2098.604 C 1978.032 2087.272,1986.613 2067.200,1990.653 2054.000 C 1997.640 2031.176,1998.000 2001.194,1998.000 1442.000 C 1998.000 788.906,1999.482 825.944,1971.730 785.607 C 1951.849 756.712,1828.975 629.509,1655.658 458.403 C 1470.989 276.089,1422.934 231.981,1393.035 217.353 C 1372.235 207.176,1369.437 206.900,1254.903 203.693 C 1126.139 200.089,827.412 200.180,656.000 203.876 M1840.000 895.233 C 1840.000 901.613,1386.217 902.137,1369.260 895.776 C 1350.201 888.628,1329.182 872.135,1317.325 855.025 L 1306.007 838.694 1303.351 722.347 C 1301.891 658.356,1300.556 548.400,1300.384 478.000 L 1300.072 350.000 1570.036 620.233 C 1718.516 768.861,1840.000 892.611,1840.000 895.233 M1516.868 1207.399 C 1550.068 1211.092,1568.962 1224.547,1585.000 1255.918 C 1609.878 1304.581,1591.094 1362.875,1542.000 1389.366 L 1526.000 1398.000 1197.345 1398.000 L 868.690 1398.000 851.471 1385.898 C 793.901 1345.438,785.390 1281.309,831.045 1231.979 C 847.195 1214.529,852.959 1211.013,870.000 1208.220 C 895.159 1204.095,1480.491 1203.353,1516.868 1207.399 M1516.868 1607.399 C 1550.068 1611.092,1568.962 1624.547,1585.000 1655.918 C 1609.878 1704.581,1591.094 1762.875,1542.000 1789.366 L 1526.000 1798.000 1197.345 1798.000 L 868.690 1798.000 851.471 1785.898 C 793.901 1745.438,785.390 1681.309,831.045 1631.979 C 847.195 1614.529,852.959 1611.013,870.000 1608.220 C 895.159 1604.095,1480.491 1603.353,1516.868 1607.399 " fill="#1D1E23" stroke="none" fill-rule="evenodd"/></svg>