<svg viewBox="0 0 2400 2400" fill="none" xmlns="http://www.w3.org/2000/svg"><path d="M692.000 203.901 L 546.000 206.359 516.000 222.031 C 476.241 242.802,437.817 280.919,420.008 317.256 C 406.929 343.943,406.586 345.990,403.583 415.256 C 399.590 507.354,399.583 1892.506,403.575 1984.565 C 406.380 2049.245,407.511 2056.917,417.138 2076.565 C 433.087 2109.116,462.891 2143.266,494.000 2164.632 C 545.397 2199.932,496.207 2197.291,1134.000 2198.988 C 1712.276 2200.527,1833.961 2198.424,1868.080 2186.300 C 1894.341 2176.968,1939.106 2141.720,1960.212 2113.755 C 1971.622 2098.637,1982.180 2078.308,1988.256 2059.755 L 1998.000 2030.000 1997.956 1452.000 C 1997.908 814.351,1998.313 825.787,1974.489 790.000 C 1955.442 761.390,1815.618 615.940,1655.674 458.358 C 1478.947 284.240,1424.805 234.907,1393.508 219.477 L 1369.015 207.402 1213.508 203.845 C 1046.159 200.018,921.921 200.031,692.000 203.901 M1822.414 897.098 C 1811.646 898.903,1705.448 899.845,1586.418 899.190 C 1371.779 898.010,1369.885 897.928,1356.000 889.252 C 1330.685 873.434,1311.382 850.221,1307.868 831.374 C 1306.086 821.818,1303.463 709.600,1302.039 582.000 L 1299.449 350.000 1570.720 621.908 L 1841.991 893.816 1822.414 897.098 M1546.271 1216.224 C 1561.360 1223.701,1569.019 1231.069,1578.838 1247.551 C 1609.844 1299.603,1595.780 1356.175,1544.177 1386.975 L 1522.354 1400.000 1196.540 1400.000 L 870.727 1400.000 849.376 1383.880 C 797.217 1344.499,788.838 1285.447,828.333 1235.579 C 835.179 1226.936,844.654 1217.645,849.390 1214.932 C 862.372 1207.496,973.405 1205.062,1266.271 1205.796 L 1526.542 1206.449 1546.271 1216.224 M1546.271 1616.224 C 1561.360 1623.701,1569.019 1631.069,1578.838 1647.551 C 1609.844 1699.603,1595.780 1756.175,1544.177 1786.975 L 1522.354 1800.000 1196.540 1800.000 L 870.727 1800.000 849.376 1783.880 C 797.217 1744.499,788.838 1685.447,828.333 1635.579 C 835.179 1626.936,844.654 1617.645,849.390 1614.932 C 862.372 1607.496,973.405 1605.062,1266.271 1605.796 L 1526.542 1606.449 1546.271 1616.224 " fill="#1D1E23" stroke="none" fill-rule="evenodd"/></svg>