<svg viewBox="0 0 2400 2400" fill="none" xmlns="http://www.w3.org/2000/svg"><path d="M400.000 1200.000 L 400.000 2200.000 1200.000 2200.000 L 2000.000 2200.000 2000.000 1498.990 L 2000.000 797.980 1700.990 498.990 L 1401.980 200.000 900.990 200.000 L 400.000 200.000 400.000 1200.000 M1576.000 626.000 L 1849.978 900.000 1574.989 900.000 L 1300.000 900.000 1300.000 626.000 C 1300.000 475.300,1300.455 352.000,1301.011 352.000 C 1301.567 352.000,1425.312 475.300,1576.000 626.000 M1600.000 1300.000 L 1600.000 1400.000 1200.000 1400.000 L 800.000 1400.000 800.000 1300.000 L 800.000 1200.000 1200.000 1200.000 L 1600.000 1200.000 1600.000 1300.000 M1600.000 1700.000 L 1600.000 1800.000 1200.000 1800.000 L 800.000 1800.000 800.000 1700.000 L 800.000 1600.000 1200.000 1600.000 L 1600.000 1600.000 1600.000 1700.000 " fill="#1D1E23" stroke="none" fill-rule="evenodd"/></svg>