<svg viewBox="0 0 2400 2400" fill="none" xmlns="http://www.w3.org/2000/svg"><path d="M964.342 306.868 C 954.630 310.299,939.161 320.628,929.967 329.823 C 899.196 360.593,900.000 352.200,900.000 642.713 L 900.000 900.000 815.000 900.022 C 765.288 900.035,723.390 901.880,714.077 904.465 C 659.999 919.478,628.525 978.660,645.998 1032.477 C 652.594 1052.793,666.590 1067.639,895.493 1297.119 C 1070.350 1472.418,1143.021 1542.705,1156.000 1549.081 C 1181.066 1561.394,1219.320 1561.130,1244.000 1548.474 C 1269.470 1535.413,1735.604 1069.071,1748.249 1044.000 C 1766.315 1008.182,1757.937 958.553,1728.929 929.545 C 1703.115 903.730,1695.566 902.130,1593.000 900.734 L 1500.000 899.468 1500.000 642.447 C 1500.000 352.323,1500.790 360.579,1470.105 329.895 C 1439.820 299.609,1443.028 299.958,1198.287 300.316 C 1013.160 300.586,979.456 301.530,964.342 306.868 M564.342 1806.868 C 529.056 1819.332,500.000 1861.388,500.000 1900.000 C 500.000 1924.160,511.933 1952.144,529.895 1970.105 C 562.127 2002.338,509.722 2000.000,1200.000 2000.000 C 1890.278 2000.000,1837.873 2002.338,1870.105 1970.105 C 1909.232 1930.979,1909.232 1869.021,1870.105 1829.895 C 1837.850 1797.639,1890.586 1799.961,1198.287 1800.316 C 650.824 1800.596,580.028 1801.328,564.342 1806.868 " fill="#1D1E23" stroke="none" fill-rule="evenodd"/></svg>