<svg viewBox="0 0 2400 2400" fill="none" xmlns="http://www.w3.org/2000/svg"><path d="M900.000 599.319 L 900.000 898.638 714.187 902.465 C 611.990 904.570,527.136 907.531,525.622 909.045 C 524.108 910.558,529.874 920.390,538.435 930.894 C 546.996 941.397,699.800 1096.336,878.000 1275.202 L 1202.000 1600.414 1551.991 1250.207 L 1901.983 900.000 1700.991 900.000 L 1500.000 900.000 1500.000 600.000 L 1500.000 300.000 1200.000 300.000 L 900.000 300.000 900.000 599.319 M500.000 1900.000 L 500.000 2000.000 1200.000 2000.000 L 1900.000 2000.000 1900.000 1900.000 L 1900.000 1800.000 1200.000 1800.000 L 500.000 1800.000 500.000 1900.000 " fill="#1D1E23" stroke="none" fill-rule="evenodd"/></svg>