<svg viewBox="0 0 2400 2400" fill="none" xmlns="http://www.w3.org/2000/svg"><path d="M470.363 406.293 C 447.583 414.639,429.689 429.702,417.089 451.136 C 402.732 475.560,401.388 516.932,414.138 542.000 C 418.614 550.800,552.264 725.002,711.138 929.115 L 1000.000 1300.229 1000.000 1559.918 C 1000.000 1734.052,1001.456 1826.590,1004.420 1840.803 C 1023.232 1931.010,1107.989 2000.000,1200.000 2000.000 C 1292.011 2000.000,1376.768 1931.010,1395.580 1840.803 C 1398.544 1826.590,1400.000 1734.052,1400.000 1559.918 L 1400.000 1300.229 1688.862 929.115 C 1847.736 725.002,1981.386 550.800,1985.862 542.000 C 1998.612 516.932,1997.268 475.560,1982.911 451.136 C 1969.393 428.139,1950.520 413.179,1925.545 405.663 C 1897.187 397.129,493.717 397.736,470.363 406.293 " fill="#1D1E23" stroke="none" fill-rule="evenodd"/></svg>