<svg viewBox="0 0 2400 2400" fill="none" xmlns="http://www.w3.org/2000/svg"><path d="M754.000 407.868 L 462.000 410.000 447.456 421.127 C 406.422 452.520,396.087 497.632,419.499 543.155 C 432.258 567.965,517.275 679.972,773.420 1009.436 L 1000.000 1300.872 1000.000 1572.569 L 1000.000 1844.266 1010.538 1865.133 C 1031.686 1907.009,1068.469 1950.096,1100.140 1970.088 C 1153.329 2003.665,1244.619 2005.006,1295.423 1972.958 C 1328.841 1951.877,1368.251 1907.122,1388.205 1867.593 L 1400.000 1844.228 1400.000 1572.214 L 1400.000 1300.200 1589.101 1057.100 C 1903.978 652.307,1967.922 567.780,1985.648 532.905 C 1989.309 525.702,1992.417 510.329,1992.556 498.742 C 1992.965 464.520,1979.103 440.815,1944.400 416.388 L 1926.800 404.000 1486.400 404.868 C 1244.180 405.345,914.600 406.695,754.000 407.868 " fill="#1D1E23" stroke="none" fill-rule="evenodd"/></svg>