<svg viewBox="0 0 2400 2400" fill="none" xmlns="http://www.w3.org/2000/svg"><path d="M704.550 603.842 L 355.101 606.000 337.284 625.681 C 297.761 669.340,291.910 703.348,316.285 747.723 C 335.249 782.247,342.919 787.207,386.050 792.833 C 437.435 799.537,1962.565 799.537,2013.950 792.833 C 2055.482 787.415,2064.455 782.152,2080.376 753.871 C 2099.391 720.091,2102.491 701.563,2093.776 673.786 C 2085.203 646.463,2057.446 615.068,2037.812 610.488 C 2022.690 606.960,1446.831 600.310,1224.000 601.090 C 1130.500 601.417,896.748 602.656,704.550 603.842 M875.189 1103.830 L 656.379 1106.000 640.007 1121.990 C 619.734 1141.790,600.000 1180.270,600.000 1200.000 C 600.000 1232.488,639.017 1286.914,667.226 1293.774 C 673.152 1295.215,884.100 1297.399,1136.000 1298.626 C 1602.855 1300.900,1716.190 1298.713,1744.504 1286.883 C 1760.242 1280.307,1776.451 1262.600,1788.825 1238.466 C 1811.488 1194.263,1785.741 1125.141,1741.769 1112.137 C 1731.555 1109.117,1658.362 1106.234,1534.000 1103.955 C 1332.987 1100.272,1235.853 1100.254,875.189 1103.830 M1073.407 1607.545 C 1053.234 1611.052,1033.691 1625.358,1017.855 1648.210 C 1006.925 1663.981,1006.000 1668.043,1006.000 1700.264 C 1006.000 1732.943,1006.806 1736.342,1018.404 1752.606 C 1025.227 1762.173,1039.114 1775.673,1049.266 1782.606 C 1066.117 1794.115,1071.477 1795.468,1110.862 1798.157 C 1134.588 1799.777,1192.700 1799.828,1240.000 1798.271 C 1337.012 1795.077,1348.388 1792.282,1371.500 1765.958 C 1389.918 1744.982,1396.000 1728.607,1396.000 1700.000 C 1396.000 1671.555,1389.916 1655.016,1371.907 1634.505 C 1346.832 1605.946,1347.945 1606.149,1212.000 1605.365 C 1144.900 1604.977,1082.533 1605.958,1073.407 1607.545 " fill="#1D1E23" stroke="none" fill-rule="evenodd"/></svg>