<svg viewBox="0 0 2400 2400" fill="none" xmlns="http://www.w3.org/2000/svg"><path d="M599.831 407.875 L 461.662 410.000 445.063 423.152 C 412.009 449.343,399.089 485.060,409.596 521.203 C 418.775 552.776,431.407 569.654,810.764 1057.210 L 1000.000 1300.421 1000.000 1571.747 L 1000.000 1843.074 1016.120 1875.281 C 1033.412 1909.829,1069.400 1950.917,1098.000 1968.765 C 1130.848 1989.263,1159.140 1997.131,1200.000 1997.131 C 1240.860 1997.131,1269.152 1989.263,1302.000 1968.765 C 1330.600 1950.917,1366.588 1909.829,1383.880 1875.281 L 1400.000 1843.074 1400.000 1571.630 L 1400.000 1300.186 1561.140 1093.093 C 1950.133 593.170,1981.705 551.127,1990.279 521.631 C 2001.792 482.027,1985.145 442.760,1945.791 416.693 L 1926.628 404.000 1332.314 404.875 C 1005.441 405.356,675.824 406.706,599.831 407.875 " fill="#1D1E23" stroke="none" fill-rule="evenodd"/></svg>