<svg viewBox="0 0 2400 2400" fill="none" xmlns="http://www.w3.org/2000/svg"><path d="M444.000 604.090 C 396.700 605.448,357.510 606.884,356.911 607.280 C 356.311 607.676,347.610 615.569,337.573 624.820 C 291.783 667.028,288.479 717.525,328.218 767.799 C 341.780 784.956,346.540 788.023,366.843 792.684 C 401.121 800.553,1998.911 800.545,2033.196 792.676 C 2054.209 787.852,2058.059 785.227,2074.110 764.776 C 2106.227 723.857,2107.417 680.073,2077.519 639.345 C 2055.704 609.627,2049.730 607.747,1964.469 603.777 C 1881.742 599.925,579.701 600.192,444.000 604.090 M718.000 1104.128 C 685.000 1105.576,657.510 1107.040,656.911 1107.381 C 656.311 1107.721,647.610 1115.569,637.573 1124.820 C 601.885 1157.716,591.390 1198.478,608.812 1236.525 C 621.518 1264.274,641.977 1285.736,662.047 1292.372 C 674.809 1296.592,775.900 1297.918,1167.443 1299.001 C 1658.503 1300.360,1727.072 1298.891,1751.043 1286.495 C 1768.295 1277.574,1791.075 1244.616,1796.633 1220.537 C 1802.994 1192.983,1796.431 1165.109,1777.519 1139.345 C 1756.858 1111.199,1747.309 1107.550,1684.243 1103.702 C 1621.288 1099.861,807.034 1100.220,718.000 1104.128 M1096.000 1602.457 C 1061.525 1606.451,1054.613 1609.114,1037.304 1625.069 C 1011.400 1648.946,1002.299 1668.419,1002.283 1700.000 C 1002.263 1738.380,1021.867 1769.817,1058.000 1789.351 C 1073.420 1797.686,1078.496 1798.000,1198.000 1798.000 C 1336.861 1798.000,1341.829 1797.229,1367.318 1771.741 C 1390.048 1749.011,1397.761 1730.835,1397.761 1700.000 C 1397.761 1669.854,1390.359 1651.775,1369.021 1629.803 C 1343.573 1603.600,1338.445 1602.646,1218.000 1601.691 C 1158.600 1601.220,1103.700 1601.565,1096.000 1602.457 " fill="#1D1E23" stroke="none" fill-rule="evenodd"/></svg>