<svg viewBox="0 0 2400 2400" fill="none" xmlns="http://www.w3.org/2000/svg"><path d="M1332.679 107.727 C 1314.725 112.301,1292.339 130.981,1279.155 152.389 C 1262.387 179.619,1260.181 212.336,1243.985 674.000 C 1226.713 1166.333,1225.612 1181.518,1206.267 1194.193 C 1194.777 1201.722,1177.529 1198.332,1171.676 1187.395 C 1162.995 1171.173,1158.299 1093.803,1138.092 634.000 C 1126.179 362.917,1125.544 354.507,1115.352 333.011 C 1098.530 297.531,1055.108 273.425,1014.140 276.822 C 988.417 278.955,957.815 294.351,943.197 312.513 C 919.461 342.002,918.037 362.401,904.000 874.000 C 895.171 1195.791,888.968 1370.632,885.594 1392.882 C 882.997 1410.003,870.389 1428.000,860.990 1428.000 C 857.454 1428.000,789.635 1385.094,710.280 1332.653 C 535.845 1217.378,548.248 1225.039,520.604 1215.481 C 448.638 1190.597,371.665 1209.606,322.370 1264.434 C 294.933 1294.950,293.755 1313.445,317.081 1347.496 C 354.680 1402.381,829.554 1984.434,933.375 2102.885 C 1014.297 2195.212,1094.716 2246.239,1215.834 2282.113 L 1263.966 2296.369 1436.983 2296.727 C 1585.483 2297.034,1614.441 2296.125,1641.337 2290.311 C 1816.644 2252.417,1968.644 2130.464,2038.553 1971.617 C 2079.962 1877.525,2081.153 1867.697,2123.815 1268.000 C 2148.810 916.651,2152.791 848.569,2151.351 797.078 C 2150.044 750.330,2149.595 748.195,2137.571 731.613 C 2111.093 695.096,2053.758 678.001,2015.105 695.099 C 1988.761 706.752,1965.172 732.605,1958.145 757.524 C 1951.249 781.976,1944.010 843.043,1927.978 1012.000 C 1914.166 1157.552,1910.779 1177.585,1897.776 1190.587 C 1887.508 1200.856,1881.619 1201.938,1866.758 1196.288 C 1859.141 1193.392,1856.467 1188.776,1854.595 1175.288 C 1850.343 1144.656,1844.198 1034.463,1836.010 842.000 C 1814.156 328.319,1812.963 308.310,1801.885 269.425 C 1791.965 234.604,1759.666 212.053,1715.153 208.868 C 1691.736 207.192,1685.377 208.344,1666.166 217.744 C 1643.450 228.858,1619.920 253.169,1612.183 273.520 C 1606.083 289.563,1601.600 364.719,1587.935 680.000 C 1571.106 1068.268,1568.118 1111.311,1557.230 1122.198 C 1551.277 1128.152,1533.544 1129.876,1522.371 1125.589 C 1512.667 1121.865,1508.792 1099.962,1504.397 1024.000 C 1498.062 914.513,1496.435 878.327,1485.967 614.000 C 1474.444 323.049,1468.978 218.064,1463.810 188.391 C 1455.264 139.322,1422.778 109.680,1373.811 106.270 C 1358.515 105.205,1340.005 105.860,1332.679 107.727 " fill="#1D1E23" stroke="none" fill-rule="evenodd"/></svg>