<svg viewBox="0 0 2400 2400" fill="none" xmlns="http://www.w3.org/2000/svg"><path d="M1313.554 117.934 C 1294.751 129.206,1279.453 147.812,1272.623 167.718 C 1262.049 198.533,1257.307 280.093,1244.001 660.000 C 1226.032 1173.028,1224.573 1190.733,1199.731 1197.229 C 1188.654 1200.126,1173.790 1194.435,1170.580 1186.068 C 1164.056 1169.067,1155.696 1026.916,1140.111 668.000 C 1126.557 355.821,1125.574 346.297,1103.745 315.642 C 1091.973 299.110,1058.230 280.833,1034.169 277.957 C 996.619 273.469,950.684 295.216,935.708 324.573 C 920.019 355.326,916.021 422.134,904.031 854.000 C 894.696 1190.228,888.870 1358.662,885.684 1384.430 C 883.213 1404.421,871.066 1428.000,863.239 1428.000 C 857.153 1428.000,816.353 1402.267,674.000 1308.647 C 612.400 1268.135,551.475 1229.949,538.610 1223.790 C 473.511 1192.622,398.797 1201.527,341.213 1247.320 C 314.136 1268.851,298.241 1295.371,301.619 1313.378 C 305.452 1333.806,319.509 1353.318,426.154 1486.241 C 694.180 1820.309,907.154 2075.957,967.617 2136.198 C 1041.628 2209.937,1093.370 2241.109,1200.240 2276.339 L 1259.883 2296.000 1436.110 2296.000 C 1629.081 2296.000,1639.831 2295.025,1707.337 2271.412 C 1881.342 2210.546,2023.832 2060.710,2066.040 1894.216 C 2082.326 1829.973,2093.732 1704.693,2127.788 1216.000 C 2154.084 838.669,2156.567 781.873,2148.067 752.233 C 2136.379 711.481,2071.130 679.364,2025.807 692.054 C 2004.556 698.004,1974.684 723.057,1964.098 743.809 C 1954.117 763.372,1947.203 812.611,1930.088 986.000 C 1914.545 1143.471,1911.373 1165.874,1902.081 1183.842 C 1894.417 1198.663,1879.445 1203.177,1866.369 1194.610 C 1851.756 1185.035,1850.574 1169.383,1832.045 740.000 C 1818.362 422.924,1813.409 332.622,1807.718 296.549 C 1798.924 240.811,1772.954 216.126,1716.373 209.724 C 1696.240 207.446,1689.609 208.508,1671.125 216.970 C 1647.005 228.013,1621.687 251.546,1613.684 270.362 C 1606.869 286.383,1601.953 356.649,1592.019 580.000 C 1570.866 1055.583,1567.815 1103.581,1557.766 1118.918 C 1549.383 1131.713,1526.512 1131.552,1518.051 1118.640 C 1507.751 1102.920,1502.637 1023.919,1487.971 654.000 C 1472.963 275.436,1468.647 202.437,1459.461 171.777 C 1453.165 150.765,1430.318 124.672,1410.223 115.545 C 1398.836 110.372,1384.461 108.161,1362.000 108.126 C 1335.050 108.084,1327.405 109.631,1313.554 117.934 " fill="#1D1E23" stroke="none" fill-rule="evenodd"/></svg>