<svg viewBox="0 0 2400 2400" fill="none" xmlns="http://www.w3.org/2000/svg"><path d="M1204.000 306.299 C 1198.500 307.248,1180.500 309.944,1164.000 312.290 C 942.913 343.716,719.282 477.355,581.513 660.378 C 476.196 800.289,411.390 977.214,401.526 1151.758 L 398.800 1200.000 250.400 1200.024 L 102.000 1200.049 298.163 1396.024 C 406.053 1503.811,496.193 1592.000,498.474 1592.000 C 500.756 1592.000,591.582 1503.894,700.311 1396.209 L 898.000 1200.417 749.000 1200.209 L 600.000 1200.000 600.000 1186.367 C 600.000 1160.549,612.474 1073.919,621.983 1033.694 C 638.135 965.368,676.707 876.990,717.866 814.000 C 758.234 752.223,849.929 659.735,908.992 621.223 C 950.333 594.266,1061.828 541.452,1101.057 530.243 C 1171.000 510.258,1203.653 506.310,1300.000 506.188 C 1438.620 506.012,1498.218 520.163,1619.477 582.047 C 1699.457 622.864,1726.374 642.537,1791.918 708.082 C 1857.463 773.626,1877.136 800.543,1917.953 880.523 C 1979.711 1001.536,1993.800 1060.879,1993.800 1200.000 C 1993.800 1302.038,1988.581 1341.111,1965.536 1411.610 C 1948.371 1464.118,1906.866 1549.143,1874.987 1597.099 C 1845.204 1641.904,1753.100 1735.355,1706.000 1768.558 C 1583.388 1854.994,1451.515 1897.071,1302.000 1897.466 C 1227.375 1897.663,1193.256 1893.480,1124.069 1875.654 C 1014.374 1847.392,922.050 1797.604,835.285 1719.922 L 807.227 1694.801 736.614 1765.663 L 666.000 1836.526 694.000 1862.778 C 831.746 1991.923,1023.156 2076.428,1221.695 2095.748 C 1430.661 2116.082,1659.949 2052.107,1830.000 1926.020 C 1904.206 1870.999,1994.369 1776.877,2044.598 1702.000 C 2160.783 1528.800,2215.260 1318.207,2195.748 1117.695 C 2186.805 1025.790,2159.687 922.171,2122.064 836.147 C 2063.109 701.346,1961.954 574.695,1839.011 481.750 C 1727.953 397.791,1577.473 333.914,1442.886 313.600 C 1404.079 307.743,1226.991 302.331,1204.000 306.299 M1200.970 1051.000 L 1202.000 1302.000 1394.961 1416.000 C 1501.089 1478.700,1596.724 1534.933,1607.483 1540.962 L 1627.045 1551.925 1661.522 1492.144 C 1680.485 1459.265,1696.000 1430.446,1696.000 1428.101 C 1696.000 1422.037,1657.160 1397.422,1497.613 1302.374 L 1357.240 1218.749 1354.620 1128.728 C 1353.179 1079.216,1352.000 984.998,1352.000 919.354 L 1352.000 800.000 1275.970 800.000 L 1199.940 800.000 1200.970 1051.000 " fill="#1D1E23" stroke="none" fill-rule="evenodd"/></svg>