<svg viewBox="0 0 2400 2400" fill="none" xmlns="http://www.w3.org/2000/svg"><path d="M1138.000 317.434 C 1040.786 338.322,981.567 358.941,900.000 400.303 C 651.399 526.367,485.993 736.307,422.790 1006.000 C 410.886 1056.798,400.000 1137.217,400.000 1174.367 L 400.000 1200.000 251.005 1200.000 L 102.010 1200.000 298.731 1396.720 L 495.451 1593.441 516.725 1574.916 C 528.426 1564.727,619.000 1476.298,718.000 1378.406 L 898.000 1200.420 749.000 1200.210 C 601.775 1200.003,600.000 1199.903,600.000 1191.842 C 600.000 1170.174,609.582 1101.119,618.447 1058.903 C 637.064 970.245,675.173 880.129,725.396 806.000 C 756.751 759.720,862.358 653.020,903.492 626.061 C 935.674 604.969,1025.956 559.337,1069.253 542.280 C 1084.242 536.375,1110.342 527.971,1127.253 523.604 C 1190.563 507.257,1374.414 504.178,1447.880 518.234 C 1496.510 527.539,1537.021 542.924,1611.694 580.450 C 1695.738 622.684,1721.614 641.467,1790.074 709.926 C 1858.650 778.503,1877.306 804.241,1919.966 889.137 C 1957.633 964.096,1976.296 1015.048,1983.622 1062.922 C 1996.982 1150.223,1991.960 1320.461,1974.253 1380.541 C 1953.592 1450.641,1906.414 1550.645,1868.833 1604.000 C 1838.111 1647.617,1731.837 1750.406,1686.000 1780.838 C 1633.617 1815.615,1574.300 1844.226,1513.724 1863.934 C 1436.663 1889.005,1403.983 1893.526,1298.000 1893.780 C 1215.648 1893.977,1201.596 1893.018,1164.000 1884.632 C 1032.357 1855.268,934.129 1805.782,834.638 1718.701 L 807.276 1694.752 736.638 1765.661 L 666.000 1836.571 692.000 1860.602 C 838.385 1995.904,1043.825 2083.915,1242.418 2096.401 C 1398.978 2106.245,1552.935 2075.102,1698.000 2004.244 C 1795.804 1956.471,1860.193 1908.511,1946.000 1819.521 C 2017.011 1745.877,2056.618 1690.449,2099.990 1604.021 C 2229.619 1345.705,2231.725 1063.432,2105.945 806.000 C 1998.628 586.358,1810.383 424.992,1568.523 345.318 C 1482.257 316.899,1441.945 311.498,1302.000 309.604 C 1187.597 308.056,1179.948 308.422,1138.000 317.434 M1200.970 1051.000 L 1202.000 1302.000 1244.000 1327.089 C 1498.219 1478.947,1621.314 1549.130,1627.072 1545.498 C 1633.797 1541.256,1685.439 1453.102,1691.669 1435.229 C 1695.277 1424.881,1694.131 1423.536,1666.725 1405.949 C 1650.926 1395.811,1574.834 1349.529,1497.631 1303.101 L 1357.261 1218.685 1354.631 1098.691 C 1353.184 1032.694,1352.000 938.490,1352.000 889.348 L 1352.000 800.000 1275.970 800.000 L 1199.940 800.000 1200.970 1051.000 " fill="#1D1E23" stroke="none" fill-rule="evenodd"/></svg>