<svg viewBox="0 0 2400 2400" fill="none" xmlns="http://www.w3.org/2000/svg"><path d="M1218.000 303.930 C 1138.582 312.440,1046.585 333.612,984.063 357.768 C 929.455 378.866,847.756 421.550,799.300 454.297 C 659.847 548.540,548.625 678.856,483.521 824.286 C 433.127 936.857,407.435 1039.953,401.240 1154.461 L 398.834 1198.922 299.424 1200.835 C 208.858 1202.578,199.264 1203.426,191.597 1210.365 C 179.104 1221.671,172.000 1237.723,172.000 1254.647 C 172.000 1269.025,177.280 1274.995,291.000 1389.223 C 356.450 1454.965,427.513 1524.784,448.919 1544.377 C 493.649 1585.320,500.520 1587.316,528.400 1567.473 C 538.080 1560.584,608.405 1492.634,684.677 1416.473 C 805.201 1296.127,823.716 1276.040,826.117 1263.026 C 829.777 1243.193,826.201 1230.589,812.590 1215.356 L 801.348 1202.774 700.674 1200.837 L 600.000 1198.899 600.125 1184.450 C 600.322 1161.617,610.815 1080.911,617.851 1048.114 C 648.811 903.799,732.931 763.699,845.299 669.306 C 1035.355 509.651,1287.408 460.017,1518.000 536.840 C 1594.458 562.313,1695.569 621.375,1761.607 679.140 C 1867.842 772.066,1953.386 917.633,1983.535 1056.790 C 2020.583 1227.788,1987.553 1416.772,1894.327 1567.193 C 1770.930 1766.298,1562.610 1887.798,1326.000 1898.662 C 1178.262 1905.445,1036.469 1863.826,902.781 1774.437 C 847.557 1737.512,828.404 1729.909,799.274 1733.348 C 748.753 1739.311,712.000 1780.856,712.000 1832.000 C 712.000 1876.516,731.374 1900.385,809.703 1952.368 C 917.136 2023.666,1034.428 2068.677,1170.000 2090.630 C 1224.681 2099.485,1360.225 2100.610,1414.000 2092.655 C 1574.619 2068.897,1713.897 2012.026,1840.000 1918.709 C 1890.110 1881.628,1983.403 1788.180,2020.794 1737.616 C 2116.952 1607.584,2178.573 1448.997,2196.277 1286.000 C 2202.570 1228.062,2198.717 1116.205,2188.354 1056.000 C 2139.021 769.397,1951.807 521.836,1686.000 391.714 C 1599.468 349.354,1519.041 324.254,1424.000 309.949 C 1373.812 302.395,1262.637 299.147,1218.000 303.930 M1244.873 810.314 C 1233.488 815.987,1218.735 827.496,1212.087 835.890 L 1200.000 851.151 1200.231 1022.576 C 1200.503 1224.969,1203.450 1279.952,1214.851 1295.370 C 1228.406 1313.700,1257.804 1333.326,1391.813 1413.512 C 1585.228 1529.244,1593.164 1532.706,1628.845 1516.923 C 1675.934 1496.093,1688.011 1435.764,1652.180 1400.348 C 1644.196 1392.457,1574.740 1348.406,1497.832 1302.457 C 1420.924 1256.508,1357.245 1218.253,1356.322 1217.445 C 1355.399 1216.638,1353.356 1134.027,1351.782 1033.867 L 1348.920 851.758 1338.008 836.011 C 1326.177 818.939,1293.565 800.000,1276.000 800.000 C 1270.264 800.000,1256.257 804.641,1244.873 810.314 " fill="#1D1E23" stroke="none" fill-rule="evenodd"/></svg>