<svg viewBox="0 0 2400 2400" fill="none" xmlns="http://www.w3.org/2000/svg"><path d="M1228.000 302.750 C 1193.490 305.341,1125.704 316.614,1084.321 326.642 C 1021.655 341.828,968.192 361.416,905.616 392.117 C 757.976 464.551,634.987 573.357,544.038 712.000 C 490.957 792.915,441.141 912.599,420.324 1009.220 C 410.337 1055.576,400.000 1139.781,400.000 1174.780 L 400.000 1199.609 299.686 1200.804 L 199.372 1202.000 185.686 1216.941 C 174.542 1229.107,172.011 1235.051,172.061 1248.941 C 172.095 1258.324,173.676 1268.452,175.575 1271.448 C 177.473 1274.445,246.171 1344.124,328.236 1426.289 C 432.683 1530.865,480.828 1576.425,488.722 1578.159 C 516.312 1584.218,519.507 1581.658,665.430 1436.602 C 742.117 1360.371,810.067 1290.980,816.430 1282.400 C 833.360 1259.572,832.629 1236.936,814.314 1216.941 L 800.628 1202.000 700.314 1200.804 L 600.000 1199.609 600.000 1186.228 C 600.000 1178.869,601.888 1154.207,604.197 1131.424 C 622.887 946.934,709.750 781.988,850.000 664.665 C 1036.659 508.518,1288.728 459.861,1516.683 535.973 C 1633.046 574.825,1751.861 655.403,1829.918 748.405 C 1981.485 928.988,2033.458 1149.500,1977.360 1373.964 C 1929.298 1566.270,1794.029 1734.765,1616.053 1824.017 C 1380.327 1942.231,1103.851 1920.697,893.303 1767.724 C 853.235 1738.612,838.252 1732.384,808.000 1732.263 C 780.896 1732.155,759.057 1741.760,739.195 1762.523 C 719.657 1782.948,712.000 1802.486,712.000 1831.915 C 712.000 1879.014,726.463 1896.893,809.739 1952.735 C 1068.341 2126.146,1409.361 2147.571,1694.000 2008.291 C 1976.091 1870.257,2163.798 1599.739,2196.390 1284.261 C 2202.187 1228.149,2198.994 1116.866,2190.071 1064.056 C 2158.639 878.012,2076.680 715.488,1946.177 580.416 C 1754.568 382.097,1497.068 282.541,1228.000 302.750 M1244.079 809.000 C 1234.391 813.950,1220.959 824.917,1214.232 833.370 L 1202.000 848.741 1202.000 1059.370 C 1202.000 1294.018,1200.847 1283.584,1229.993 1312.599 C 1237.397 1319.969,1317.598 1369.970,1408.217 1423.711 C 1556.312 1511.539,1575.084 1521.598,1593.791 1523.149 C 1663.563 1528.935,1701.350 1443.923,1650.234 1396.166 C 1644.445 1390.757,1575.424 1348.115,1496.854 1301.406 L 1354.000 1216.480 1351.957 1037.240 C 1350.833 938.658,1348.317 854.400,1346.365 850.000 C 1333.479 820.947,1304.259 800.264,1275.848 800.088 C 1268.064 800.040,1253.768 804.050,1244.079 809.000 " fill="#1D1E23" stroke="none" fill-rule="evenodd"/></svg>