<svg viewBox="0 0 2400 2400" fill="none" xmlns="http://www.w3.org/2000/svg"><path d="M1234.000 302.411 C 1102.331 316.004,1009.048 341.479,905.761 392.050 C 757.838 464.476,635.329 572.837,544.038 712.000 C 490.957 792.915,441.141 912.599,420.324 1009.220 C 410.315 1055.678,400.000 1139.803,400.000 1174.975 L 400.000 1200.000 251.055 1200.000 L 102.110 1200.000 296.593 1395.000 C 403.558 1502.250,491.990 1592.700,493.107 1596.000 C 494.481 1600.057,560.356 1536.921,696.565 1401.000 L 897.990 1200.000 748.995 1200.000 L 600.000 1200.000 600.000 1186.424 C 600.000 1159.869,608.512 1089.428,616.203 1052.333 C 633.925 966.855,677.946 867.142,731.119 792.028 C 765.448 743.536,843.149 665.764,892.028 630.973 C 937.232 598.797,1027.494 552.905,1078.918 535.951 C 1219.786 489.510,1380.214 489.510,1521.082 535.951 C 1572.506 552.905,1662.768 598.797,1707.972 630.973 C 1756.655 665.625,1834.375 743.345,1869.027 792.028 C 1901.203 837.232,1947.095 927.494,1964.049 978.918 C 2010.490 1119.786,2010.490 1280.214,1964.049 1421.082 C 1947.095 1472.506,1901.203 1562.768,1869.027 1607.972 C 1814.616 1684.416,1722.916 1765.743,1638.599 1812.334 C 1482.941 1898.347,1298.708 1921.976,1126.773 1877.979 C 1021.723 1851.097,912.007 1792.341,838.262 1723.471 L 807.389 1694.639 736.695 1765.516 L 666.000 1836.392 694.975 1864.196 C 777.857 1943.729,896.349 2013.528,1016.094 2053.354 C 1444.549 2195.857,1909.093 2000.489,2108.340 1594.000 C 2261.424 1281.689,2219.817 909.622,2001.311 636.902 C 1860.763 461.482,1655.956 343.923,1432.000 310.116 C 1391.148 303.950,1266.194 299.087,1234.000 302.411 M1200.970 1050.748 L 1202.000 1301.495 1413.562 1426.853 C 1529.921 1495.799,1625.481 1551.713,1625.918 1551.105 C 1632.320 1542.209,1700.000 1426.760,1700.000 1424.736 C 1700.000 1423.196,1622.150 1375.730,1527.000 1319.255 L 1354.000 1216.573 1352.964 1008.287 L 1351.929 800.000 1275.934 800.000 L 1199.940 800.000 1200.970 1050.748 " fill="#1D1E23" stroke="none" fill-rule="evenodd"/></svg>