<svg viewBox="0 0 2400 2400" fill="none" xmlns="http://www.w3.org/2000/svg"><path d="M1202.000 308.137 C 1100.707 315.611,972.828 355.654,875.112 410.498 C 641.533 541.597,492.565 733.308,427.921 986.000 C 412.822 1045.020,400.014 1132.382,400.005 1176.415 L 400.000 1198.831 305.112 1201.733 C 195.977 1205.070,188.539 1206.828,178.620 1231.618 C 174.979 1240.717,172.000 1251.622,172.000 1255.850 C 172.000 1266.283,236.126 1335.440,348.479 1446.173 C 444.593 1540.902,488.261 1580.000,497.947 1580.000 C 500.990 1580.000,508.002 1578.281,513.529 1576.179 C 525.395 1571.668,645.903 1455.497,749.899 1348.318 C 830.634 1265.111,835.011 1257.983,822.089 1230.753 C 809.600 1204.435,811.751 1204.948,700.534 1201.751 L 599.069 1198.835 601.828 1166.417 C 606.508 1111.425,622.885 1023.869,635.935 984.070 C 704.570 774.749,870.027 609.012,1080.738 538.514 C 1157.306 512.897,1202.460 506.228,1300.000 506.134 C 1373.766 506.063,1392.389 507.342,1430.911 515.129 C 1520.240 533.186,1603.219 569.136,1692.480 628.453 C 1833.436 722.121,1946.612 890.368,1983.645 1061.298 C 1990.847 1094.540,1992.000 1113.441,1992.000 1198.302 C 1992.000 1280.841,1990.714 1303.056,1984.036 1335.822 C 1966.119 1423.745,1919.239 1530.954,1865.019 1608.000 C 1850.057 1629.261,1816.192 1668.025,1788.139 1696.000 C 1662.604 1821.187,1503.891 1889.911,1320.000 1898.706 C 1182.628 1905.277,1060.336 1868.598,898.000 1772.136 C 837.249 1736.037,822.253 1730.278,798.917 1734.083 C 759.997 1740.429,728.235 1767.326,717.486 1803.043 C 709.438 1829.783,710.726 1847.873,722.336 1871.170 C 734.975 1896.535,757.162 1916.763,812.000 1952.920 C 916.541 2021.848,1044.350 2070.382,1174.000 2090.386 C 1233.632 2099.587,1365.655 2099.574,1424.000 2090.361 C 1586.850 2064.646,1736.698 1999.572,1860.000 1901.020 C 1892.698 1874.885,1973.398 1794.249,2001.132 1760.000 C 2037.440 1715.161,2077.543 1651.882,2103.796 1598.000 C 2230.155 1338.665,2232.025 1075.896,2109.362 816.081 C 2006.604 598.428,1803.427 422.644,1563.298 343.639 C 1456.271 308.425,1345.556 297.546,1202.000 308.137 M1250.498 809.643 C 1239.772 814.986,1223.818 826.251,1215.045 834.678 L 1199.095 850.000 1201.451 1052.000 C 1202.761 1164.355,1205.629 1262.740,1207.913 1273.695 C 1210.171 1284.527,1215.164 1296.892,1219.009 1301.173 C 1236.548 1320.698,1476.390 1468.045,1546.870 1502.593 C 1598.169 1527.740,1624.258 1527.126,1651.246 1500.138 C 1676.349 1475.036,1678.217 1433.167,1655.316 1408.955 C 1638.065 1390.716,1573.143 1348.099,1453.409 1276.414 L 1357.224 1218.829 1354.623 1144.414 C 1353.193 1103.486,1351.981 1031.300,1351.931 984.000 C 1351.792 853.717,1347.947 837.608,1311.615 815.075 C 1286.162 799.290,1273.539 798.168,1250.498 809.643 " fill="#1D1E23" stroke="none" fill-rule="evenodd"/></svg>