<svg viewBox="0 0 2400 2400" fill="none" xmlns="http://www.w3.org/2000/svg"><path d="M1169.919 330.747 C 1130.818 362.929,1014.290 467.076,580.130 857.872 L 202.260 1198.000 351.130 1199.049 L 500.000 1200.097 500.000 1600.049 L 500.000 2000.000 750.000 2000.000 L 1000.000 2000.000 1000.000 1700.000 L 1000.000 1400.000 1200.000 1400.000 L 1400.000 1400.000 1400.000 1700.000 L 1400.000 2000.000 1650.000 2000.000 L 1900.000 2000.000 1900.000 1600.049 L 1900.000 1200.097 2048.753 1199.049 L 2197.507 1198.000 1785.753 827.882 C 1300.210 391.437,1209.145 310.380,1202.669 308.884 C 1200.012 308.270,1185.275 318.108,1169.919 330.747 " fill="#1D1E23" stroke="none" fill-rule="evenodd"/></svg>