<svg viewBox="0 0 2400 2400" fill="none" xmlns="http://www.w3.org/2000/svg"><path d="M698.199 751.123 L 202.397 1198.000 351.199 1199.049 L 500.000 1200.097 500.000 1600.049 L 500.000 2000.000 750.000 2000.000 L 1000.000 2000.000 1000.000 1700.000 L 1000.000 1400.000 1200.000 1400.000 L 1400.000 1400.000 1400.000 1700.000 L 1400.000 2000.000 1650.000 2000.000 L 1900.000 2000.000 1900.000 1600.049 L 1900.000 1200.097 2048.867 1199.049 L 2197.734 1198.000 1821.867 860.074 C 1615.140 674.214,1391.435 473.064,1324.745 413.074 C 1258.055 353.083,1201.355 304.055,1198.745 304.123 C 1196.135 304.190,970.889 505.340,698.199 751.123 " fill="#1D1E23" stroke="none" fill-rule="evenodd"/></svg>