<svg viewBox="0 0 2400 2400" fill="none" xmlns="http://www.w3.org/2000/svg"><path d="M1181.970 315.315 C 1173.186 323.392,949.163 525.300,684.140 764.000 L 202.280 1198.000 351.140 1199.049 L 500.000 1200.097 500.000 1600.049 L 500.000 2000.000 750.000 2000.000 L 1000.000 2000.000 1000.000 1700.000 L 1000.000 1400.000 1200.000 1400.000 L 1400.000 1400.000 1400.000 1700.000 L 1400.000 2000.000 1650.000 2000.000 L 1900.000 2000.000 1900.000 1600.049 L 1900.000 1200.097 2048.916 1199.049 L 2197.832 1198.000 1739.916 786.272 C 1168.929 272.878,1211.099 310.726,1203.970 305.257 C 1199.103 301.523,1194.858 303.464,1181.970 315.315 " fill="#1D1E23" stroke="none" fill-rule="evenodd"/></svg>