<svg viewBox="0 0 2400 2400" fill="none" xmlns="http://www.w3.org/2000/svg"><path d="M1158.000 345.563 C 1143.659 352.364,1019.163 462.075,718.000 733.310 C 487.000 941.354,293.950 1117.335,289.000 1124.378 C 277.510 1140.725,277.553 1159.186,289.120 1176.350 C 304.349 1198.949,309.063 1199.876,409.000 1199.941 L 500.000 1200.000 500.000 1557.287 C 500.000 1959.495,498.494 1938.705,529.895 1970.105 C 559.293 1999.504,562.949 2000.000,750.000 2000.000 C 937.051 2000.000,940.707 1999.504,970.105 1970.105 C 1000.792 1939.418,1000.000 1947.708,1000.000 1657.287 L 1000.000 1400.000 1200.000 1400.000 L 1400.000 1400.000 1400.000 1657.287 C 1400.000 1947.708,1399.208 1939.418,1429.895 1970.105 C 1459.293 1999.504,1462.949 2000.000,1650.000 2000.000 C 1837.051 2000.000,1840.707 1999.504,1870.105 1970.105 C 1901.504 1938.706,1900.000 1959.471,1900.000 1557.490 L 1900.000 1200.404 1995.931 1199.202 L 2091.861 1198.000 2104.931 1184.923 C 2116.498 1173.349,2118.000 1169.336,2118.000 1150.000 C 2118.000 1131.012,2116.430 1126.613,2106.000 1116.371 C 2099.400 1109.891,1906.800 935.947,1678.000 729.829 C 1380.031 461.400,1256.325 352.376,1242.000 345.574 C 1215.172 332.836,1184.845 332.832,1158.000 345.563 " fill="#1D1E23" stroke="none" fill-rule="evenodd"/></svg>