<svg viewBox="0 0 2400 2400" fill="none" xmlns="http://www.w3.org/2000/svg"><path d="M1118.000 206.424 C 956.947 218.282,787.043 277.650,644.362 371.923 C 494.452 470.972,358.807 630.799,288.119 791.674 C 266.998 839.740,242.361 911.165,230.085 959.915 C 182.920 1147.222,193.856 1354.889,260.483 1537.119 C 334.478 1739.503,470.551 1912.980,650.000 2033.707 C 696.182 2064.777,800.010 2116.962,857.739 2138.120 C 908.419 2156.694,1005.333 2181.431,1062.000 2190.256 C 1129.444 2200.759,1285.600 2199.715,1350.000 2188.330 C 1565.633 2150.209,1739.801 2062.760,1894.450 1914.965 C 2167.011 1654.483,2267.301 1255.006,2149.937 897.307 C 2068.516 649.154,1906.900 452.080,1682.000 326.706 C 1573.429 266.182,1435.324 222.100,1324.000 212.437 C 1271.207 207.854,1147.583 204.246,1118.000 206.424 M1300.000 800.000 L 1300.000 900.000 1200.000 900.000 L 1100.000 900.000 1100.000 800.000 L 1100.000 700.000 1200.000 700.000 L 1300.000 700.000 1300.000 800.000 M1240.000 1112.336 C 1262.392 1122.488,1274.325 1133.442,1285.389 1154.000 C 1293.918 1169.848,1294.000 1172.184,1294.000 1400.000 C 1294.000 1652.568,1295.408 1637.074,1269.669 1667.664 C 1249.891 1691.169,1213.574 1702.316,1178.399 1695.678 C 1155.954 1691.442,1129.641 1672.071,1115.707 1649.525 C 1107.013 1635.458,1106.654 1630.445,1102.891 1470.526 C 1098.926 1302.034,1102.365 1182.961,1111.917 1158.000 C 1128.705 1114.129,1193.220 1091.128,1240.000 1112.336 " fill="#1D1E23" stroke="none" fill-rule="evenodd"/></svg>