<svg viewBox="0 0 2400 2400" fill="none" xmlns="http://www.w3.org/2000/svg"><path d="M1050.920 214.235 C 966.802 227.326,872.611 255.504,790.526 292.132 C 548.270 400.231,350.343 611.983,262.121 857.444 C 177.255 1093.568,180.890 1337.421,272.697 1567.099 C 357.407 1779.020,519.807 1965.347,710.000 2068.830 C 804.085 2120.022,866.993 2144.767,966.846 2169.863 C 1054.834 2191.976,1090.203 2196.055,1194.881 2196.161 C 1298.719 2196.266,1335.332 2192.837,1408.000 2176.204 C 1560.892 2141.208,1696.294 2077.624,1812.000 1986.487 C 2041.196 1805.960,2174.407 1555.363,2196.258 1263.617 C 2214.486 1020.254,2128.022 757.770,1964.627 560.437 C 1802.499 364.635,1553.773 232.284,1310.000 212.101 C 1241.508 206.430,1093.219 207.651,1050.920 214.235 M1300.000 800.000 L 1300.000 900.000 1200.000 900.000 L 1100.000 900.000 1100.000 800.000 L 1100.000 700.000 1200.000 700.000 L 1300.000 700.000 1300.000 800.000 M1247.574 1116.993 C 1258.151 1122.435,1271.027 1133.694,1277.963 1143.564 L 1290.000 1160.691 1290.000 1399.639 L 1290.000 1638.586 1278.966 1655.259 C 1261.728 1681.306,1240.058 1693.509,1207.807 1695.332 C 1175.017 1697.184,1158.272 1692.136,1137.100 1674.014 C 1108.187 1649.265,1108.287 1649.847,1104.034 1483.231 C 1099.247 1295.685,1103.446 1176.608,1115.693 1152.602 C 1137.914 1109.046,1199.709 1092.360,1247.574 1116.993 " fill="#1D1E23" stroke="none" fill-rule="evenodd"/></svg>