<svg viewBox="0 0 2400 2400" fill="none" xmlns="http://www.w3.org/2000/svg"><path d="M1002.015 299.957 L 802.030 500.000 951.015 500.000 L 1100.000 500.000 1100.000 1050.000 L 1100.000 1600.000 1200.000 1600.000 L 1300.000 1600.000 1300.000 1050.000 L 1300.000 500.000 1446.000 500.000 C 1557.504 500.000,1592.000 498.857,1592.000 495.163 C 1592.000 492.503,1504.250 402.484,1397.000 295.120 L 1202.000 99.913 1002.015 299.957 M400.000 1550.000 L 400.000 2300.000 1200.000 2300.000 L 2000.000 2300.000 2000.000 1550.000 L 2000.000 800.000 1750.000 800.000 L 1500.000 800.000 1500.000 900.000 L 1500.000 1000.000 1650.000 1000.000 L 1800.000 1000.000 1800.000 1550.000 L 1800.000 2100.000 1200.000 2100.000 L 600.000 2100.000 600.000 1550.000 L 600.000 1000.000 750.000 1000.000 L 900.000 1000.000 900.000 900.000 L 900.000 800.000 650.000 800.000 L 400.000 800.000 400.000 1550.000 " fill="#1D1E23" stroke="none" fill-rule="evenodd"/></svg>