<svg viewBox="0 0 2400 2400" fill="none" xmlns="http://www.w3.org/2000/svg"><path d="M1180.000 126.350 C 1165.537 132.587,905.358 388.218,883.569 417.600 C 866.640 440.429,867.372 463.065,885.686 483.059 L 899.372 498.000 999.686 499.196 L 1100.000 500.391 1100.000 1007.483 C 1100.000 1577.373,1097.915 1538.125,1129.895 1570.105 C 1169.021 1609.232,1230.979 1609.232,1270.105 1570.105 C 1302.085 1538.125,1300.000 1577.373,1300.000 1007.483 L 1300.000 500.391 1400.314 499.196 L 1500.628 498.000 1514.314 483.059 C 1525.864 470.450,1528.000 465.162,1528.000 449.183 L 1528.000 430.248 1379.000 280.705 C 1295.548 196.949,1224.338 128.708,1217.128 125.581 C 1201.245 118.694,1197.579 118.770,1180.000 126.350 M568.000 802.679 C 547.444 805.947,509.313 821.498,489.052 834.877 C 447.077 862.593,414.625 910.264,404.420 959.197 C 398.189 989.080,398.189 2110.920,404.420 2140.803 C 420.053 2215.765,484.235 2279.947,559.197 2295.580 C 589.114 2301.819,1810.886 2301.819,1840.803 2295.580 C 1877.645 2287.897,1911.709 2269.000,1940.355 2240.355 C 1969.000 2211.709,1987.897 2177.645,1995.580 2140.803 C 2001.811 2110.920,2001.811 989.080,1995.580 959.197 C 1981.776 893.002,1933.764 838.350,1866.000 811.696 C 1842.894 802.607,1837.269 802.203,1714.930 800.830 C 1568.438 799.186,1559.149 800.641,1529.986 829.804 C 1490.765 869.024,1490.725 930.936,1529.895 970.105 C 1557.672 997.883,1569.204 1000.000,1692.713 1000.000 L 1800.000 1000.000 1800.000 1550.000 L 1800.000 2100.000 1200.000 2100.000 L 600.000 2100.000 600.000 1550.000 L 600.000 1000.000 707.287 1000.000 C 830.796 1000.000,842.328 997.883,870.105 970.105 C 909.232 930.979,909.232 869.021,870.105 829.895 C 841.770 801.559,832.058 799.919,696.287 800.545 C 631.229 800.844,573.500 801.805,568.000 802.679 " fill="#1D1E23" stroke="none" fill-rule="evenodd"/></svg>