<svg viewBox="0 0 2400 2400" fill="none" xmlns="http://www.w3.org/2000/svg"><path d="M1181.852 127.438 C 1147.414 148.439,885.730 408.510,876.420 430.987 C 869.242 448.315,873.333 466.942,888.305 485.105 L 900.582 500.000 999.798 500.000 L 1099.013 500.000 1100.831 1013.000 C 1102.867 1587.799,1100.102 1540.477,1133.440 1571.111 C 1156.972 1592.734,1167.703 1596.890,1200.000 1596.890 C 1232.297 1596.890,1243.028 1592.734,1266.560 1571.111 C 1299.865 1540.507,1297.106 1587.735,1299.165 1013.000 L 1301.002 500.000 1400.087 500.000 L 1499.171 500.000 1511.388 486.086 C 1524.468 471.189,1530.444 450.517,1526.056 435.348 C 1523.062 424.998,1249.892 151.216,1223.441 132.055 C 1204.063 118.018,1198.341 117.383,1181.852 127.438 M606.000 804.017 C 545.801 806.755,525.268 812.486,489.608 836.506 C 464.306 853.550,433.505 889.703,419.771 918.481 C 409.044 940.957,406.842 951.260,403.787 993.274 C 399.170 1056.782,399.170 2043.218,403.787 2106.726 C 406.878 2149.234,408.985 2158.933,420.296 2182.726 C 438.008 2219.983,480.110 2262.036,517.490 2279.807 C 542.222 2291.565,550.250 2293.217,597.490 2296.265 C 626.371 2298.129,897.500 2299.654,1200.000 2299.654 C 1502.500 2299.654,1773.629 2298.129,1802.510 2296.265 C 1849.750 2293.217,1857.778 2291.565,1882.510 2279.807 C 1919.795 2262.082,1961.997 2219.974,1979.609 2182.926 C 1990.711 2159.572,1993.009 2149.131,1996.335 2106.926 C 1998.632 2077.786,1999.748 1834.769,1999.096 1506.000 L 1998.000 954.000 1983.065 922.721 C 1962.774 880.227,1929.451 845.808,1887.435 823.949 L 1855.693 807.435 1790.847 803.358 C 1721.743 799.012,1585.372 801.871,1563.576 808.122 C 1547.276 812.796,1522.003 836.803,1511.073 857.994 C 1499.736 879.973,1499.736 920.027,1511.073 942.006 C 1521.974 963.141,1547.092 987.030,1564.228 992.560 C 1572.263 995.152,1624.241 997.816,1689.000 998.955 L 1800.000 1000.905 1800.000 1550.453 L 1800.000 2100.000 1200.000 2100.000 L 600.000 2100.000 600.000 1550.453 L 600.000 1000.905 711.000 998.955 C 775.759 997.816,827.737 995.152,835.772 992.560 C 852.767 987.076,878.000 963.191,888.692 942.468 C 894.379 931.444,896.706 919.116,896.706 900.000 C 896.706 867.268,888.265 848.637,862.802 825.166 C 847.754 811.295,841.537 808.348,823.465 806.515 C 786.466 802.762,664.425 801.360,606.000 804.017 " fill="#1D1E23" stroke="none" fill-rule="evenodd"/></svg>