<svg viewBox="0 0 2400 2400" fill="none" xmlns="http://www.w3.org/2000/svg"><path d="M1176.732 131.929 C 1127.674 167.467,889.924 405.437,877.663 431.276 C 869.678 448.102,874.329 468.646,890.462 487.820 L 900.711 500.000 999.952 500.000 L 1099.193 500.000 1101.257 1003.000 C 1102.596 1329.180,1104.797 1513.605,1107.520 1527.634 C 1112.214 1551.821,1123.465 1566.285,1151.783 1584.538 C 1167.381 1594.592,1173.306 1596.000,1200.000 1596.000 C 1226.694 1596.000,1232.619 1594.592,1248.217 1584.538 C 1277.787 1565.478,1288.083 1551.766,1292.554 1525.490 C 1294.987 1511.195,1297.388 1305.884,1298.690 1001.000 L 1300.829 500.000 1399.717 500.000 C 1497.163 500.000,1498.726 499.869,1506.835 491.000 C 1518.567 478.169,1528.000 458.116,1528.000 446.005 C 1528.000 437.951,1510.549 417.435,1450.429 354.807 C 1376.150 277.430,1242.714 147.453,1218.461 128.850 C 1203.229 117.168,1196.416 117.671,1176.732 131.929 M1620.000 803.919 C 1558.824 806.863,1548.913 810.315,1526.520 836.477 C 1507.813 858.332,1502.803 874.791,1504.690 908.193 C 1506.433 939.029,1517.502 959.174,1544.771 981.134 C 1558.424 992.128,1562.967 993.275,1604.771 996.283 C 1629.647 998.074,1683.750 999.642,1725.000 999.769 L 1800.000 1000.000 1800.000 1550.000 L 1800.000 2100.000 1200.000 2100.000 L 600.000 2100.000 600.000 1550.000 L 600.000 1000.000 675.000 999.769 C 716.250 999.642,770.353 998.074,795.229 996.283 C 837.033 993.275,841.576 992.128,855.229 981.134 C 882.498 959.174,893.567 939.029,895.310 908.193 C 897.197 874.791,892.187 858.332,873.480 836.477 C 847.474 806.094,848.382 806.279,716.778 804.690 C 647.539 803.855,586.579 805.022,567.853 807.542 C 512.742 814.959,469.717 843.164,434.576 894.913 C 399.563 946.473,402.000 897.466,402.000 1550.000 C 402.000 2202.301,399.585 2153.559,434.447 2204.898 C 463.868 2248.226,504.348 2278.869,548.000 2290.859 C 572.444 2297.573,611.470 2298.000,1200.000 2298.000 C 1788.530 2298.000,1827.556 2297.573,1852.000 2290.859 C 1895.666 2278.865,1936.156 2248.208,1965.532 2204.898 C 2000.052 2154.004,1997.452 2205.300,1999.033 1543.897 L 2000.434 957.794 1983.582 924.124 C 1962.436 881.875,1926.187 844.581,1885.181 822.884 L 1856.612 807.767 1785.306 803.979 C 1709.091 799.930,1702.909 799.928,1620.000 803.919 " fill="#1D1E23" stroke="none" fill-rule="evenodd"/></svg>