<svg viewBox="0 0 2400 2400" fill="none" xmlns="http://www.w3.org/2000/svg"><path d="M1002.000 300.000 L 802.030 500.000 951.015 500.000 L 1100.000 500.000 1100.000 1050.000 L 1100.000 1600.000 1200.000 1600.000 L 1300.000 1600.000 1300.000 1050.000 L 1300.000 500.000 1448.000 500.000 C 1529.400 500.000,1596.000 498.643,1596.000 496.985 C 1596.000 495.327,1507.343 405.327,1398.985 296.985 L 1201.970 100.000 1002.000 300.000 M400.000 1550.000 L 400.000 2300.000 1200.000 2300.000 L 2000.000 2300.000 2000.000 1550.000 L 2000.000 800.000 1750.000 800.000 L 1500.000 800.000 1500.000 900.000 L 1500.000 1000.000 1650.000 1000.000 L 1800.000 1000.000 1800.000 1550.000 L 1800.000 2100.000 1200.000 2100.000 L 600.000 2100.000 600.000 1550.000 L 600.000 1000.000 750.000 1000.000 L 900.000 1000.000 900.000 900.000 L 900.000 800.000 650.000 800.000 L 400.000 800.000 400.000 1550.000 " fill="#1D1E23" stroke="none" fill-rule="evenodd"/></svg>