<svg viewBox="0 0 2400 2400" fill="none" xmlns="http://www.w3.org/2000/svg"><path d="M1185.247 124.033 C 1173.463 128.780,1065.063 231.756,961.327 336.746 C 890.355 408.578,876.207 424.830,873.887 437.195 C 870.154 457.096,873.771 469.183,888.472 485.927 L 900.829 500.000 1000.244 500.000 L 1099.659 500.000 1100.998 1011.000 C 1102.072 1420.663,1103.385 1525.173,1107.618 1538.000 C 1113.484 1555.778,1136.940 1579.623,1159.354 1590.593 C 1179.037 1600.227,1220.963 1600.227,1240.646 1590.593 C 1263.060 1579.623,1286.516 1555.778,1292.382 1538.000 C 1296.615 1525.173,1297.928 1420.663,1299.002 1011.000 L 1300.341 500.000 1399.422 500.000 L 1498.503 500.000 1508.763 489.000 C 1523.370 473.338,1528.000 462.740,1528.000 444.962 C 1528.000 429.809,1524.117 425.539,1380.822 283.140 C 1299.874 202.698,1227.424 133.090,1219.822 128.456 C 1204.893 119.355,1198.796 118.575,1185.247 124.033 M573.331 803.887 C 510.294 811.003,451.341 853.585,421.947 913.230 C 408.402 940.715,406.190 949.349,403.503 985.230 C 399.521 1038.401,399.521 2061.599,403.503 2114.770 C 406.182 2150.539,408.415 2159.301,421.710 2186.202 C 441.805 2226.861,473.171 2258.211,513.893 2278.337 C 541.415 2291.939,549.138 2293.851,587.325 2296.516 C 642.986 2300.400,1757.014 2300.400,1812.675 2296.516 C 1850.862 2293.851,1858.585 2291.939,1886.107 2278.337 C 1926.800 2258.225,1958.197 2226.857,1978.255 2186.272 C 1992.151 2158.156,1993.658 2151.728,1996.879 2106.840 C 1998.807 2079.978,1999.846 1810.500,1999.189 1508.000 L 1997.993 958.000 1988.371 934.000 C 1967.794 882.674,1934.929 846.704,1885.850 821.793 C 1856.382 806.835,1853.959 806.322,1796.779 802.936 C 1764.450 801.021,1701.100 800.180,1656.000 801.067 C 1564.344 802.869,1555.067 805.001,1530.979 829.803 C 1509.641 851.775,1502.239 869.854,1502.239 900.000 C 1502.239 930.146,1509.641 948.225,1530.979 970.197 C 1556.891 996.877,1561.143 997.668,1687.000 999.240 L 1800.000 1000.651 1800.000 1550.325 L 1800.000 2100.000 1200.000 2100.000 L 600.000 2100.000 600.000 1550.325 L 600.000 1000.651 713.000 999.240 C 838.857 997.668,843.109 996.877,869.021 970.197 C 890.359 948.225,897.761 930.146,897.761 900.000 C 897.761 869.854,890.359 851.775,869.021 829.803 C 843.434 803.458,838.839 802.622,714.000 801.583 C 652.400 801.070,589.099 802.107,573.331 803.887 " fill="#1D1E23" stroke="none" fill-rule="evenodd"/></svg>