<svg viewBox="0 0 2400 2400" fill="none" xmlns="http://www.w3.org/2000/svg"><path d="M464.000 507.629 C 408.591 512.681,343.732 563.991,317.073 623.861 C 309.784 640.232,306.441 657.310,303.764 691.861 C 299.074 752.396,299.121 1648.207,303.818 1708.848 C 306.888 1748.483,309.353 1759.691,319.829 1781.641 C 344.082 1832.459,395.217 1876.280,446.885 1890.525 C 472.787 1897.666,499.859 1898.000,1052.000 1898.000 C 1698.895 1898.000,1658.652 1899.762,1702.846 1869.508 C 1739.550 1844.382,1769.929 1806.074,1917.295 1599.089 C 2071.525 1382.462,2156.288 1259.638,2166.491 1238.000 C 2178.632 1212.253,2179.028 1183.587,2167.541 1161.941 C 2156.512 1141.155,2088.877 1043.258,1950.648 848.000 C 1746.200 559.204,1738.330 549.606,1683.080 521.662 L 1648.160 504.000 1069.080 504.629 C 750.586 504.976,478.300 506.326,464.000 507.629 " fill="#1D1E23" stroke="none" fill-rule="evenodd"/></svg>