<svg viewBox="0 0 2400 2400" fill="none" xmlns="http://www.w3.org/2000/svg"><path d="M692.000 507.849 L 442.000 510.000 418.000 521.889 C 388.598 536.454,333.101 590.224,320.868 616.000 C 302.395 654.922,302.124 663.365,302.060 1202.000 C 301.995 1755.173,301.849 1751.284,324.118 1790.207 C 345.873 1828.231,388.301 1865.332,435.127 1887.279 L 458.000 1898.000 1018.000 1897.910 C 1618.029 1897.813,1658.800 1896.698,1686.842 1879.612 C 1711.004 1864.890,1750.402 1825.244,1783.843 1782.000 C 1882.853 1653.967,2135.411 1292.326,2164.736 1236.594 C 2179.194 1209.118,2178.980 1192.313,2163.766 1160.153 C 2151.335 1133.877,2070.530 1015.957,1926.563 814.000 C 1759.135 579.132,1733.048 548.255,1677.290 518.955 L 1648.830 504.000 1295.415 504.849 C 1101.037 505.316,829.500 506.666,692.000 507.849 " fill="#1D1E23" stroke="none" fill-rule="evenodd"/></svg>