<svg viewBox="0 0 2400 2400" fill="none" xmlns="http://www.w3.org/2000/svg"><path d="M466.000 504.387 C 390.787 515.324,320.350 582.810,304.420 659.197 C 298.197 689.038,298.197 1710.962,304.420 1740.803 C 320.073 1815.861,382.883 1878.004,459.512 1894.247 C 481.529 1898.913,581.912 1899.873,1054.160 1899.931 C 1673.941 1900.006,1642.413 1901.122,1691.431 1877.373 C 1732.486 1857.482,1751.168 1833.929,1962.141 1536.077 C 2073.528 1378.819,2167.215 1244.049,2170.332 1236.588 C 2177.614 1219.159,2177.614 1180.841,2170.332 1163.412 C 2163.230 1146.414,1764.488 583.612,1744.599 562.513 C 1726.123 542.913,1696.779 523.904,1666.000 511.597 L 1642.000 502.000 1066.000 501.448 C 749.200 501.145,479.200 502.467,466.000 504.387 " fill="#1D1E23" stroke="none" fill-rule="evenodd"/></svg>