<svg viewBox="0 0 2400 2400" fill="none" xmlns="http://www.w3.org/2000/svg"><path d="M1359.687 177.655 C 1349.615 183.045,1323.515 203.232,1301.687 222.515 C 1248.853 269.188,811.684 706.660,764.705 759.867 C 710.880 820.830,708.263 827.485,703.853 914.584 C 701.864 953.863,700.184 1197.494,700.118 1455.986 L 700.000 1925.973 710.254 1956.763 C 732.409 2023.288,777.882 2067.188,850.525 2092.181 C 872.583 2099.770,887.355 2100.000,1351.850 2100.000 C 1829.500 2100.000,1830.497 2099.983,1855.655 2091.487 C 1886.590 2081.040,1935.546 2048.897,1951.037 2028.863 C 1957.358 2020.688,1967.146 2005.900,1972.789 1996.000 C 1998.260 1951.314,2304.309 1234.085,2325.921 1168.431 C 2331.800 1150.571,2332.640 1138.190,2330.809 1096.431 C 2329.592 1068.694,2325.597 1035.232,2321.931 1022.071 C 2306.177 965.516,2267.952 908.229,2219.896 869.152 C 2189.434 844.383,2138.171 817.777,2109.974 812.103 C 2098.988 809.892,1995.500 806.341,1880.000 804.212 C 1507.510 797.345,1475.283 796.617,1473.697 795.031 C 1472.839 794.172,1492.092 695.489,1516.483 575.735 C 1554.846 387.376,1560.908 352.333,1561.415 316.000 C 1561.942 278.192,1560.938 271.734,1551.358 251.299 C 1537.657 222.071,1511.657 194.018,1486.161 180.953 C 1468.840 172.077,1459.802 170.427,1422.000 169.238 C 1381.511 167.965,1376.539 168.637,1359.687 177.655 M252.000 909.470 C 219.755 916.503,189.406 934.565,160.000 964.221 C 132.213 992.245,114.965 1021.704,107.436 1054.000 C 104.094 1068.338,102.318 1196.884,101.162 1508.088 L 99.550 1942.175 115.895 1974.832 C 133.418 2009.840,169.229 2050.811,198.000 2068.765 C 277.358 2118.287,370.252 2105.437,440.492 2035.222 C 472.923 2002.803,490.882 1968.824,496.303 1929.626 C 498.590 1913.092,499.697 1732.570,499.062 1480.000 L 498.000 1058.000 484.295 1026.204 C 473.299 1000.691,465.000 988.826,442.295 966.159 C 389.129 913.079,324.167 893.727,252.000 909.470 " fill="#1D1E23" stroke="none" fill-rule="evenodd"/></svg>