<svg viewBox="0 0 2400 2400" fill="none" xmlns="http://www.w3.org/2000/svg"><path d="M1375.213 169.598 C 1364.880 172.379,1349.299 179.372,1340.588 185.136 C 1321.068 198.054,923.513 591.790,817.301 703.396 C 734.579 790.319,721.533 806.638,709.691 838.000 C 702.456 857.160,702.088 879.520,700.913 1370.637 C 700.214 1662.904,701.266 1899.014,703.360 1919.889 C 712.906 2015.058,785.063 2087.106,880.408 2096.670 C 901.564 2098.792,1113.823 2099.814,1377.661 2099.064 C 1809.557 2097.837,1839.359 2097.308,1860.000 2090.497 C 1886.924 2081.612,1903.876 2071.758,1930.192 2049.693 C 1958.567 2025.900,1968.817 2009.452,2002.744 1933.256 C 2064.736 1794.033,2267.382 1317.995,2311.481 1208.000 L 2329.924 1162.000 2329.962 1102.000 C 2329.995 1049.153,2328.860 1038.662,2320.440 1014.000 C 2290.876 927.405,2244.627 873.783,2163.428 831.957 C 2136.485 818.078,2116.588 810.790,2097.428 807.781 C 2080.736 805.160,1952.964 802.580,1771.000 801.191 C 1514.640 799.233,1472.000 798.087,1472.000 793.154 C 1472.000 789.989,1487.159 714.185,1505.687 624.700 C 1569.857 314.771,1569.484 316.882,1564.685 290.814 C 1558.585 257.682,1543.407 227.196,1522.700 206.490 C 1499.970 183.760,1479.651 173.415,1447.483 168.195 C 1415.144 162.948,1398.730 163.267,1375.213 169.598 M230.667 913.784 C 180.825 934.277,144.528 967.630,121.617 1013.987 C 109.141 1039.231,106.322 1049.978,103.233 1084.090 C 101.215 1106.378,100.159 1307.026,100.870 1533.189 L 102.155 1942.000 111.916 1967.115 C 132.595 2020.318,179.442 2066.604,234.639 2088.366 C 268.192 2101.594,331.808 2101.594,365.361 2088.366 C 421.782 2066.121,468.816 2018.901,488.272 1964.967 L 498.000 1938.000 498.000 1500.000 L 498.000 1062.000 488.478 1036.000 C 465.760 973.971,421.006 930.532,360.579 911.857 C 322.467 900.078,261.812 900.978,230.667 913.784 " fill="#1D1E23" stroke="none" fill-rule="evenodd"/></svg>