<svg viewBox="0 0 2400 2400" fill="none" xmlns="http://www.w3.org/2000/svg"><path d="M1382.938 168.142 C 1350.636 176.203,1332.105 191.383,1212.385 307.848 C 1052.588 463.300,789.710 729.344,753.517 772.241 C 706.966 827.416,707.109 826.962,703.136 932.000 C 701.263 981.500,700.268 1227.200,700.924 1478.000 L 702.116 1934.000 710.914 1960.000 C 732.231 2022.992,774.710 2065.344,840.000 2088.699 L 866.000 2098.000 1350.000 2098.000 L 1834.000 2098.000 1862.000 2089.070 C 1894.299 2078.770,1938.259 2047.822,1956.782 2022.345 C 1963.318 2013.355,1976.647 1989.291,1986.403 1968.869 C 2019.347 1899.903,2261.969 1331.510,2311.639 1206.935 C 2331.300 1157.624,2331.996 1154.531,2331.869 1116.935 C 2331.684 1061.857,2326.799 1030.769,2312.554 994.000 C 2281.363 913.495,2213.219 847.776,2129.378 817.344 C 2097.556 805.793,2079.764 805.086,1707.212 800.561 C 1580.279 799.019,1475.390 796.724,1474.127 795.460 C 1471.483 792.816,1474.027 779.627,1526.103 526.000 C 1549.482 412.138,1564.864 327.747,1565.111 312.000 C 1566.048 252.092,1523.367 189.861,1470.414 173.924 C 1445.898 166.546,1401.176 163.590,1382.938 168.142 M244.000 910.413 C 196.156 923.213,143.519 968.720,120.313 1017.345 C 100.376 1059.119,99.569 1080.517,100.843 1534.000 L 102.000 1946.000 117.033 1977.485 C 136.439 2018.129,177.986 2060.849,216.000 2079.246 C 292.507 2116.273,375.553 2100.996,438.425 2038.332 C 467.652 2009.201,479.443 1990.497,492.493 1952.566 C 499.654 1931.753,500.000 1910.885,500.000 1499.556 L 500.000 1068.364 490.686 1042.704 C 477.937 1007.582,463.244 983.625,440.505 960.886 C 417.996 938.377,374.845 914.729,344.803 908.438 C 315.971 902.401,270.624 903.289,244.000 910.413 " fill="#1D1E23" stroke="none" fill-rule="evenodd"/></svg>