<svg viewBox="0 0 2400 2400" fill="none" xmlns="http://www.w3.org/2000/svg"><path d="M1058.990 459.010 L 700.000 818.017 700.000 1459.008 L 700.000 2100.000 1315.358 2100.000 L 1930.716 2100.000 1935.336 2089.860 C 1937.877 2084.283,2020.966 1891.148,2119.978 1660.670 L 2300.000 1241.621 2300.000 1020.810 L 2300.000 800.000 1955.000 799.987 C 1617.662 799.974,1489.330 797.766,1479.693 791.810 C 1474.593 788.658,1490.299 704.634,1550.937 410.676 L 1581.328 263.352 1499.654 181.678 L 1417.980 100.004 1058.990 459.010 M100.000 1500.000 L 100.000 2100.000 300.000 2100.000 L 500.000 2100.000 500.000 1500.000 L 500.000 900.000 300.000 900.000 L 100.000 900.000 100.000 1500.000 " fill="#1D1E23" stroke="none" fill-rule="evenodd"/></svg>