<svg viewBox="0 0 2400 2400" fill="none" xmlns="http://www.w3.org/2000/svg"><path d="M1058.990 459.010 L 700.000 818.017 700.000 1459.008 L 700.000 2100.000 1315.502 2100.000 L 1931.004 2100.000 2115.502 1670.511 L 2300.000 1241.022 2300.000 1020.511 L 2300.000 800.000 1886.000 800.000 C 1508.304 800.000,1472.000 799.436,1472.000 793.568 C 1472.000 790.030,1496.563 669.249,1526.584 525.164 L 1581.169 263.193 1499.574 181.598 L 1417.980 100.004 1058.990 459.010 M100.000 1500.000 L 100.000 2100.000 300.000 2100.000 L 500.000 2100.000 500.000 1500.000 L 500.000 900.000 300.000 900.000 L 100.000 900.000 100.000 1500.000 " fill="#1D1E23" stroke="none" fill-rule="evenodd"/></svg>