<svg viewBox="0 0 2400 2400" fill="none" xmlns="http://www.w3.org/2000/svg"><path d="M1058.990 459.010 L 700.000 818.017 700.000 1459.008 L 700.000 2100.000 1315.358 2100.000 L 1930.716 2100.000 1935.179 2090.204 C 1937.634 2084.816,2020.723 1891.590,2119.821 1660.814 L 2300.000 1241.221 2300.000 1020.610 L 2300.000 800.000 1972.645 800.000 C 1792.600 800.000,1607.200 798.814,1560.645 797.364 C 1477.101 794.762,1476.000 794.614,1476.000 785.994 C 1476.000 777.831,1532.781 494.487,1566.431 334.733 L 1581.443 263.467 1499.711 181.735 L 1417.980 100.004 1058.990 459.010 M100.000 1500.000 L 100.000 2100.000 300.000 2100.000 L 500.000 2100.000 500.000 1500.000 L 500.000 900.000 300.000 900.000 L 100.000 900.000 100.000 1500.000 " fill="#1D1E23" stroke="none" fill-rule="evenodd"/></svg>