<svg viewBox="0 0 2400 2400" fill="none" xmlns="http://www.w3.org/2000/svg"><path d="M1371.377 169.351 C 1363.334 172.347,1348.934 179.440,1339.377 185.114 C 1329.820 190.787,1189.600 328.308,1027.777 490.715 C 711.937 807.695,720.457 798.077,706.127 853.840 C 700.778 874.654,700.000 943.822,700.000 1398.644 C 700.000 1763.524,701.324 1925.957,704.420 1940.803 C 720.053 2015.765,784.235 2079.947,859.197 2095.580 C 873.976 2098.662,1022.979 2100.000,1351.356 2100.000 C 1864.282 2100.000,1842.885 2100.892,1891.190 2077.491 C 1918.513 2064.254,1954.575 2030.633,1970.642 2003.415 C 1990.020 1970.589,2314.372 1209.973,2324.411 1173.814 C 2336.614 1129.865,2336.615 1070.212,2324.413 1026.000 C 2300.174 938.167,2245.419 871.067,2166.000 831.872 C 2103.430 800.992,2122.028 802.513,1777.793 800.132 L 1469.586 798.000 1516.601 572.000 C 1542.460 447.700,1564.796 335.998,1566.238 323.773 C 1571.201 281.680,1550.456 229.033,1517.506 200.103 C 1489.491 175.505,1465.678 166.616,1424.000 165.197 C 1398.799 164.339,1381.075 165.738,1371.377 169.351 M268.000 902.417 C 187.708 917.286,120.601 981.603,104.420 1059.197 C 98.221 1088.926,98.221 1911.074,104.420 1940.803 C 123.232 2031.010,207.989 2100.000,300.000 2100.000 C 392.011 2100.000,476.768 2031.010,495.580 1940.803 C 501.779 1911.074,501.779 1088.926,495.580 1059.197 C 477.315 971.610,400.058 906.120,310.174 902.030 C 292.478 901.224,273.500 901.399,268.000 902.417 " fill="#1D1E23" stroke="none" fill-rule="evenodd"/></svg>