<svg viewBox="0 0 2400 2400" fill="none" xmlns="http://www.w3.org/2000/svg"><path d="M1365.837 175.232 C 1333.649 190.422,1272.540 247.785,1030.316 490.186 C 767.259 753.436,723.805 800.585,713.691 833.732 C 702.860 869.233,700.314 987.829,700.155 1464.374 C 699.983 1977.660,697.977 1936.700,725.989 1991.977 C 751.836 2042.986,816.726 2088.322,875.554 2096.474 C 891.792 2098.724,1092.782 2099.797,1372.412 2099.126 L 1842.000 2098.000 1869.194 2085.119 C 1911.073 2065.283,1943.109 2040.873,1960.099 2015.854 C 1981.745 1983.980,2125.562 1655.335,2267.235 1314.000 C 2335.004 1150.724,2333.433 1156.075,2330.646 1098.000 C 2327.969 1042.228,2321.247 1012.997,2302.057 973.679 C 2272.093 912.287,2225.709 865.981,2161.676 833.536 C 2131.459 818.225,2119.848 814.576,2092.613 811.830 C 2074.607 810.015,1954.153 806.590,1824.937 804.219 C 1695.722 801.848,1564.350 798.842,1533.000 797.538 C 1479.228 795.303,1476.000 794.710,1476.000 787.075 C 1476.000 782.623,1494.269 687.860,1516.598 576.491 C 1551.775 401.035,1557.446 367.192,1559.070 323.007 C 1560.894 273.413,1560.637 271.384,1549.714 249.058 C 1536.127 221.287,1506.046 190.225,1482.768 179.928 C 1471.348 174.876,1451.752 171.569,1423.830 169.982 C 1387.791 167.934,1379.762 168.661,1365.837 175.232 M252.663 910.136 C 219.894 917.248,196.423 931.196,162.798 963.539 C 143.186 982.402,131.466 998.057,120.798 1019.641 L 106.000 1049.578 103.375 1171.789 C 101.931 1239.005,100.581 1440.301,100.375 1619.114 L 100.000 1944.228 111.945 1967.891 C 146.434 2036.214,200.749 2081.032,265.532 2094.626 C 328.982 2107.939,390.219 2085.923,442.579 2030.974 C 470.199 2001.988,480.143 1986.432,490.508 1956.000 C 497.652 1935.022,498.000 1913.567,498.000 1494.000 L 498.000 1054.000 483.250 1023.832 C 456.889 969.917,399.083 922.801,343.898 910.250 C 311.028 902.774,286.721 902.743,252.663 910.136 " fill="#1D1E23" stroke="none" fill-rule="evenodd"/></svg>