<svg viewBox="0 0 2400 2400" fill="none" xmlns="http://www.w3.org/2000/svg"><path d="M1058.990 459.010 L 700.000 818.017 700.000 1459.008 L 700.000 2100.000 1315.358 2100.000 L 1930.716 2100.000 1934.803 2091.000 C 1937.052 2086.050,2020.140 1892.794,2119.445 1661.542 L 2300.000 1241.085 2300.000 1020.633 L 2300.000 800.182 1888.332 799.091 C 1661.915 798.491,1475.579 796.914,1474.252 795.586 C 1471.979 793.312,1499.437 655.239,1556.367 382.658 L 1581.293 263.317 1499.636 181.660 L 1417.980 100.004 1058.990 459.010 M100.000 1500.000 L 100.000 2100.000 300.000 2100.000 L 500.000 2100.000 500.000 1500.000 L 500.000 900.000 300.000 900.000 L 100.000 900.000 100.000 1500.000 " fill="#1D1E23" stroke="none" fill-rule="evenodd"/></svg>