<svg viewBox="0 0 2400 2400" fill="none" xmlns="http://www.w3.org/2000/svg"><path d="M1152.000 102.500 C 1030.469 117.944,931.431 165.281,848.383 247.620 C 792.012 303.510,751.559 367.753,726.172 441.704 C 705.565 501.729,703.801 517.381,701.231 663.000 L 698.812 800.000 658.406 800.108 C 581.669 800.314,545.587 805.836,513.041 822.356 C 465.068 846.705,432.048 883.058,411.632 934.000 L 402.014 958.000 400.842 1462.000 C 400.197 1739.200,401.256 1986.221,403.195 2010.936 C 406.344 2051.075,408.329 2059.127,421.792 2086.368 C 441.800 2126.851,473.238 2158.244,513.893 2178.337 C 541.415 2191.939,549.138 2193.851,587.325 2196.516 C 610.796 2198.154,886.500 2199.494,1200.000 2199.494 C 1513.500 2199.494,1789.204 2198.154,1812.675 2196.516 C 1850.862 2193.851,1858.585 2191.939,1886.107 2178.337 C 1926.762 2158.244,1958.200 2126.851,1978.208 2086.368 C 1991.671 2059.127,1993.656 2051.075,1996.805 2010.936 C 1998.744 1986.221,1999.803 1739.200,1999.158 1462.000 L 1997.986 958.000 1988.368 934.000 C 1967.952 883.058,1934.932 846.705,1886.959 822.356 C 1854.346 805.802,1818.331 800.313,1741.000 800.108 L 1700.000 800.000 1699.905 697.000 C 1699.770 550.253,1696.223 512.914,1676.808 453.888 C 1668.104 427.427,1653.727 391.427,1644.860 373.888 C 1577.401 240.465,1447.912 142.143,1299.943 111.988 C 1259.992 103.847,1181.178 98.792,1152.000 102.500 M1263.106 308.176 C 1346.521 322.370,1432.251 391.491,1471.787 476.426 C 1493.363 522.776,1495.470 538.395,1498.477 674.252 L 1501.261 800.000 1199.989 800.000 L 898.716 800.000 901.428 675.871 C 902.920 607.599,906.111 542.349,908.521 530.871 C 922.883 462.452,979.504 385.179,1043.970 346.018 C 1111.781 304.825,1177.111 293.543,1263.106 308.176 M1224.105 1304.228 C 1292.729 1312.789,1347.761 1352.026,1378.568 1414.361 L 1394.000 1445.585 1394.000 1500.000 L 1394.000 1554.415 1378.496 1585.786 C 1351.229 1640.955,1305.160 1678.423,1245.476 1693.968 C 1158.766 1716.554,1063.182 1670.114,1021.092 1584.952 L 1006.000 1554.415 1006.000 1500.000 L 1006.000 1445.585 1021.432 1414.361 C 1052.175 1352.155,1119.390 1305.084,1184.105 1300.438 C 1187.463 1300.197,1205.463 1301.903,1224.105 1304.228 " fill="#1D1E23" stroke="none" fill-rule="evenodd"/></svg>