<svg viewBox="0 0 2400 2400" fill="none" xmlns="http://www.w3.org/2000/svg"><path d="M1134.000 104.581 C 1063.047 113.625,982.519 144.686,917.628 188.040 C 900.232 199.661,867.911 227.357,845.801 249.585 C 788.353 307.343,750.960 367.266,726.035 441.518 C 704.436 505.859,703.153 517.284,701.159 663.000 L 699.285 800.000 549.643 800.000 L 400.000 800.000 400.000 1500.000 L 400.000 2200.000 1200.000 2200.000 L 2000.000 2200.000 2000.000 1500.000 L 2000.000 800.000 1850.000 800.000 L 1700.000 800.000 1700.000 692.289 C 1700.000 633.049,1698.082 570.499,1695.737 553.289 C 1663.648 317.771,1485.882 132.829,1264.000 104.128 C 1228.086 99.482,1172.483 99.676,1134.000 104.581 M1274.000 309.291 C 1380.502 338.778,1458.180 416.285,1491.189 526.000 C 1495.808 541.352,1497.609 575.513,1498.942 673.000 L 1500.678 800.000 1200.000 800.000 L 899.322 800.000 901.058 673.000 C 902.889 539.036,903.709 532.319,924.123 484.000 C 937.753 451.740,963.806 412.987,988.396 388.396 C 1026.062 350.731,1084.698 318.152,1132.178 308.510 C 1144.180 306.073,1157.600 303.245,1162.000 302.226 C 1176.697 298.823,1253.745 303.683,1274.000 309.291 M1266.174 1312.372 C 1309.242 1328.421,1341.831 1353.725,1365.232 1389.285 C 1418.464 1470.177,1407.777 1573.130,1339.041 1641.605 C 1235.389 1744.864,1065.820 1705.679,1011.865 1566.000 C 998.535 1531.489,998.562 1468.375,1011.923 1434.000 C 1029.004 1390.053,1053.929 1358.066,1089.285 1334.722 C 1108.937 1321.747,1146.198 1306.455,1168.000 1302.417 C 1190.086 1298.327,1242.837 1303.676,1266.174 1312.372 " fill="#1D1E23" stroke="none" fill-rule="evenodd"/></svg>