<svg viewBox="0 0 2400 2400" fill="none" xmlns="http://www.w3.org/2000/svg"><path d="M1152.000 202.388 C 1107.361 207.720,1054.026 218.050,1026.801 226.635 C 822.527 291.053,668.737 453.283,615.999 659.982 C 604.234 706.090,600.240 780.250,600.109 955.000 L 600.000 1100.000 575.000 1100.023 C 539.768 1100.056,506.186 1106.235,484.542 1116.667 C 458.099 1129.412,425.982 1163.092,411.915 1192.827 L 400.006 1218.000 400.006 1650.000 L 400.006 2082.000 411.414 2106.000 C 428.101 2141.107,455.138 2169.015,488.759 2185.834 L 517.075 2200.000 1199.537 2199.997 L 1882.000 2199.994 1907.173 2188.085 C 1939.179 2172.943,1970.637 2141.611,1987.216 2108.361 L 2000.000 2082.722 1999.997 1650.361 L 1999.994 1218.000 1988.008 1192.664 C 1974.100 1163.266,1941.537 1129.330,1914.828 1116.401 C 1893.914 1106.276,1860.018 1100.056,1825.587 1100.023 L 1801.174 1100.000 1798.772 913.000 C 1796.116 706.176,1795.799 703.146,1768.067 619.580 C 1736.179 523.487,1690.737 450.165,1618.258 377.854 C 1525.964 285.775,1422.631 231.148,1300.443 209.840 C 1266.035 203.840,1177.185 199.380,1152.000 202.388 M1280.000 409.666 C 1358.713 423.801,1446.717 475.506,1501.836 540.000 C 1543.170 588.366,1578.066 657.771,1590.277 715.902 C 1594.156 734.368,1596.568 794.346,1598.524 921.000 L 1601.289 1100.000 1200.644 1100.000 L 800.000 1100.000 800.301 995.000 C 800.466 937.250,802.015 851.300,803.741 804.000 C 806.544 727.239,808.001 714.562,817.305 686.000 C 862.044 548.654,962.626 451.865,1100.000 413.966 C 1128.248 406.173,1143.812 404.560,1192.000 404.433 C 1223.900 404.348,1263.500 406.703,1280.000 409.666 " fill="#1D1E23" stroke="none" fill-rule="evenodd"/></svg>