<svg viewBox="0 0 2400 2400" fill="none" xmlns="http://www.w3.org/2000/svg"><path d="M1110.478 109.957 C 1042.938 124.022,965.416 157.247,912.599 194.764 C 874.006 222.178,809.029 289.205,782.730 328.730 C 745.126 385.245,716.699 456.182,707.895 515.468 C 705.728 530.060,702.783 599.796,701.349 670.436 L 698.743 798.872 638.692 801.668 C 605.664 803.206,569.497 806.163,558.321 808.239 C 503.084 818.497,445.933 865.155,416.448 924.063 L 399.626 957.674 400.962 1493.837 C 402.201 1990.677,402.813 2031.760,409.311 2054.000 C 421.685 2096.347,452.836 2136.853,495.102 2165.553 C 546.634 2200.546,491.320 2198.000,1200.000 2198.000 C 1910.564 2198.000,1853.584 2200.691,1906.000 2164.653 C 1948.764 2135.250,1979.954 2092.956,1992.641 2047.166 C 1996.171 2034.426,1997.788 1891.756,1998.910 1493.885 L 2000.422 957.770 1983.576 924.112 C 1954.066 865.152,1896.937 818.501,1841.679 808.239 C 1830.503 806.163,1794.327 803.206,1761.288 801.667 L 1701.216 798.870 1698.650 668.435 C 1695.356 501.060,1688.903 465.935,1645.410 378.624 C 1620.638 328.895,1599.729 299.539,1559.299 257.724 C 1489.470 185.502,1400.296 135.339,1304.000 114.112 C 1261.786 104.807,1147.039 102.343,1110.478 109.957 M1251.177 308.036 C 1308.745 315.512,1358.118 342.202,1410.197 393.999 C 1441.648 425.279,1449.110 435.507,1467.107 472.000 C 1487.315 512.974,1487.917 515.221,1491.774 564.000 C 1493.949 591.500,1496.972 655.850,1498.493 707.000 L 1501.258 800.000 1200.629 800.000 L 900.000 800.000 900.068 763.000 C 900.217 682.388,908.248 542.179,914.182 516.591 C 927.294 460.052,976.181 394.957,1037.321 352.626 C 1096.820 311.431,1166.095 296.987,1251.177 308.036 M1240.803 1308.407 C 1294.273 1319.523,1343.830 1357.043,1375.297 1410.233 L 1392.000 1438.465 1392.000 1500.000 L 1392.000 1561.535 1375.321 1589.767 C 1354.052 1625.770,1316.481 1662.765,1286.303 1677.420 C 1249.607 1695.241,1206.548 1702.746,1173.490 1697.084 C 1114.252 1686.937,1058.323 1646.597,1024.703 1589.767 L 1008.000 1561.535 1008.010 1499.767 L 1008.021 1438.000 1022.427 1414.000 C 1051.846 1364.992,1087.387 1332.761,1134.000 1312.818 C 1156.941 1303.003,1205.219 1301.009,1240.803 1308.407 " fill="#1D1E23" stroke="none" fill-rule="evenodd"/></svg>