<svg viewBox="0 0 2400 2400" fill="none" xmlns="http://www.w3.org/2000/svg"><path d="M1102.000 210.134 C 879.959 251.799,700.168 405.461,630.708 612.930 C 605.786 687.370,600.023 751.580,600.010 955.000 L 600.000 1100.000 577.831 1100.000 C 551.998 1100.000,499.028 1110.229,483.632 1118.190 C 463.703 1128.496,430.051 1162.930,415.000 1188.418 L 400.000 1213.818 400.000 1649.042 L 400.000 2084.266 410.514 2105.015 C 424.809 2133.224,463.415 2172.441,491.762 2187.551 L 515.120 2200.000 1200.560 2199.962 L 1886.000 2199.925 1907.935 2187.348 C 1935.998 2171.256,1971.256 2135.998,1987.348 2107.935 L 1999.925 2086.000 1999.925 1650.000 L 1999.925 1214.000 1987.348 1192.065 C 1973.252 1167.482,1936.024 1128.355,1917.727 1118.893 C 1901.156 1110.324,1848.939 1100.000,1822.169 1100.000 L 1800.000 1100.000 1799.918 967.000 C 1799.834 832.169,1795.535 733.551,1787.906 691.481 C 1781.752 657.543,1757.606 587.303,1737.745 545.568 C 1708.760 484.657,1675.477 439.053,1618.212 381.788 C 1527.431 291.007,1434.014 238.477,1322.935 215.749 C 1267.771 204.462,1148.395 201.428,1102.000 210.134 M1318.495 419.706 C 1429.558 459.095,1515.253 535.698,1561.306 636.755 C 1568.756 653.104,1577.762 675.372,1581.317 686.240 C 1590.142 713.212,1595.382 796.656,1598.590 961.311 L 1601.292 1100.000 1200.646 1100.000 L 800.000 1100.000 800.040 1019.000 C 800.090 918.620,806.914 746.404,812.154 713.279 C 816.781 684.031,836.038 637.463,862.599 591.297 C 886.900 549.060,945.993 488.679,986.691 464.500 C 1019.080 445.259,1062.725 425.979,1098.000 415.332 C 1118.741 409.072,1133.677 408.287,1208.000 409.553 C 1283.764 410.844,1296.916 412.053,1318.495 419.706 " fill="#1D1E23" stroke="none" fill-rule="evenodd"/></svg>