<svg viewBox="0 0 2400 2400" fill="none" xmlns="http://www.w3.org/2000/svg"><path d="M1152.000 202.388 C 1107.361 207.720,1054.026 218.050,1026.801 226.635 C 822.527 291.053,668.737 453.283,615.999 659.982 C 604.234 706.090,600.240 780.250,600.109 955.000 L 600.000 1100.000 500.000 1100.000 L 400.000 1100.000 400.000 1650.000 L 400.000 2200.000 1200.000 2200.000 L 2000.000 2200.000 2000.000 1650.000 L 2000.000 1100.000 1900.587 1100.000 L 1801.174 1100.000 1798.772 913.000 C 1796.116 706.176,1795.799 703.146,1768.067 619.580 C 1736.179 523.487,1690.737 450.165,1618.258 377.854 C 1525.964 285.775,1422.631 231.148,1300.443 209.840 C 1266.035 203.840,1177.185 199.380,1152.000 202.388 M1282.264 410.049 C 1339.947 420.832,1403.576 452.145,1458.718 496.884 C 1501.258 531.399,1529.022 568.639,1560.082 632.848 C 1594.643 704.292,1595.406 709.952,1598.550 918.262 L 1601.292 1100.000 1200.646 1100.000 L 800.000 1100.000 800.301 995.000 C 800.466 937.250,802.015 851.300,803.741 804.000 C 806.586 726.078,807.912 714.806,817.855 684.000 C 842.592 607.363,890.599 536.251,949.006 489.732 C 1003.710 446.162,1083.193 412.163,1150.000 403.757 C 1179.967 399.986,1244.979 403.079,1282.264 410.049 " fill="#1D1E23" stroke="none" fill-rule="evenodd"/></svg>