<svg viewBox="0 0 2400 2400" fill="none" xmlns="http://www.w3.org/2000/svg"><path d="M1126.000 207.879 C 1044.061 215.961,940.022 256.004,862.458 309.310 C 752.397 384.951,671.969 491.276,630.470 616.000 C 606.415 688.295,603.340 720.220,601.093 921.000 L 599.090 1100.000 582.545 1100.030 C 559.681 1100.072,517.863 1107.010,494.408 1114.652 C 470.769 1122.355,430.916 1160.218,412.325 1192.639 L 400.075 1214.000 400.075 1650.000 L 400.075 2086.000 412.652 2107.935 C 428.744 2135.998,464.002 2171.256,492.065 2187.348 L 514.000 2199.925 1200.000 2199.925 L 1886.000 2199.925 1906.000 2188.401 C 1931.678 2173.605,1973.605 2131.678,1988.401 2106.000 L 1999.925 2086.000 1999.925 1650.000 L 1999.925 1214.000 1988.447 1193.990 C 1970.399 1162.526,1927.791 1121.879,1905.115 1114.494 C 1882.111 1107.002,1840.153 1100.072,1817.544 1100.030 L 1801.088 1100.000 1798.756 925.000 C 1796.291 740.072,1793.911 709.380,1777.672 653.106 C 1744.703 538.861,1700.012 463.708,1615.417 380.261 C 1517.634 283.805,1409.812 226.911,1297.399 212.452 C 1251.858 206.595,1163.041 204.225,1126.000 207.879 M1248.000 411.612 C 1300.117 414.362,1309.223 415.976,1337.777 427.527 C 1408.479 456.125,1480.834 512.103,1522.413 570.370 C 1545.481 602.697,1578.864 672.916,1583.974 699.861 C 1590.061 731.959,1595.323 831.540,1598.408 973.000 L 1601.178 1100.000 1199.942 1100.000 L 798.705 1100.000 801.324 967.000 C 804.751 792.972,810.133 713.336,820.573 682.144 C 853.885 582.622,931.760 490.344,1017.949 448.264 C 1099.282 408.556,1121.870 404.957,1248.000 411.612 " fill="#1D1E23" stroke="none" fill-rule="evenodd"/></svg>