<svg viewBox="0 0 2400 2400" fill="none" xmlns="http://www.w3.org/2000/svg"><path d="M468.000 302.679 C 447.444 305.947,409.313 321.498,389.052 334.877 C 347.077 362.593,314.625 410.264,304.420 459.197 C 298.170 489.170,298.170 1910.830,304.420 1940.803 C 320.053 2015.765,384.235 2079.947,459.197 2095.580 C 473.639 2098.591,581.443 2100.000,797.484 2100.000 C 1154.735 2100.000,1138.944 2101.267,1170.105 2070.105 C 1209.232 2030.979,1209.232 1969.021,1170.105 1929.895 C 1139.010 1898.800,1153.578 1900.000,807.287 1900.000 L 500.000 1900.000 500.000 1200.000 L 500.000 500.000 807.287 500.000 C 1153.578 500.000,1139.010 501.200,1170.105 470.105 C 1209.232 430.979,1209.232 369.021,1170.105 329.895 C 1138.872 298.662,1155.034 299.931,796.287 300.545 C 621.229 300.844,473.500 301.805,468.000 302.679 M1716.941 885.686 L 1702.000 899.372 1700.804 999.686 L 1699.609 1100.000 1342.517 1100.000 C 940.529 1100.000,961.294 1098.496,929.895 1129.895 C 890.768 1169.021,890.768 1230.979,929.895 1270.105 C 961.294 1301.504,940.529 1300.000,1342.517 1300.000 L 1699.609 1300.000 1700.804 1400.314 L 1702.000 1500.628 1716.941 1514.314 C 1729.551 1525.864,1734.838 1528.000,1750.819 1528.000 L 1769.755 1528.000 1920.872 1377.076 C 2025.287 1272.795,2073.325 1222.107,2076.310 1213.062 C 2085.535 1185.109,2083.555 1182.565,1940.525 1038.532 C 1781.975 878.870,1774.098 872.000,1749.582 872.000 C 1735.009 872.000,1729.243 874.418,1716.941 885.686 " fill="#1D1E23" stroke="none" fill-rule="evenodd"/></svg>