<svg viewBox="0 0 2400 2400" fill="none" xmlns="http://www.w3.org/2000/svg"><path d="M1264.342 306.808 C 1228.999 319.412,1200.000 361.414,1200.000 400.000 C 1200.000 424.160,1211.933 452.144,1229.895 470.105 C 1261.295 501.506,1240.505 500.000,1642.713 500.000 L 2000.000 500.000 2000.000 1200.000 L 2000.000 1900.000 1642.713 1900.000 C 1240.505 1900.000,1261.295 1898.494,1229.895 1929.895 C 1190.768 1969.021,1190.768 2030.979,1229.895 2070.105 C 1261.346 2101.557,1239.341 2100.000,1652.516 2100.000 C 1905.060 2100.000,2026.220 2098.621,2040.803 2095.580 C 2115.765 2079.947,2179.947 2015.765,2195.580 1940.803 C 2201.830 1910.830,2201.830 489.170,2195.580 459.197 C 2181.788 393.062,2134.082 338.710,2066.000 311.568 L 2042.000 302.000 1662.000 301.255 C 1325.141 300.595,1279.995 301.225,1264.342 306.808 M1078.000 743.550 C 1049.892 750.838,1024.182 772.051,1009.583 800.000 C 999.694 818.930,999.664 860.972,1009.525 880.000 C 1013.516 887.700,1062.942 940.350,1119.361 997.000 L 1221.942 1100.000 753.684 1100.000 C 227.277 1100.000,261.757 1098.032,229.895 1129.895 C 190.768 1169.021,190.768 1230.979,229.895 1270.105 C 261.757 1301.968,227.277 1300.000,753.684 1300.000 L 1221.942 1300.000 1119.361 1403.000 C 1062.942 1459.650,1013.516 1512.300,1009.525 1520.000 C 999.664 1539.028,999.694 1581.070,1009.583 1600.000 C 1019.777 1619.517,1039.115 1639.168,1058.000 1649.203 C 1080.735 1661.283,1119.672 1660.951,1144.000 1648.469 C 1156.239 1642.190,1222.422 1578.871,1350.801 1450.617 C 1555.249 1246.368,1557.506 1243.653,1557.508 1202.000 C 1557.510 1159.516,1562.064 1165.011,1352.554 954.716 C 1245.549 847.309,1151.511 756.056,1143.580 751.930 C 1126.715 743.157,1095.098 739.117,1078.000 743.550 " fill="#1D1E23" stroke="none" fill-rule="evenodd"/></svg>