<svg viewBox="0 0 2400 2400" fill="none" xmlns="http://www.w3.org/2000/svg"><path d="M1308.000 303.831 C 1280.500 305.511,1257.510 307.136,1256.911 307.443 C 1256.311 307.749,1247.610 315.569,1237.573 324.820 C 1201.885 357.716,1191.390 398.478,1208.812 436.525 C 1221.519 464.275,1241.977 485.737,1262.047 492.371 C 1274.647 496.536,1353.866 497.929,1639.000 499.001 L 2000.000 500.357 2000.000 1199.896 L 2000.000 1899.436 1639.000 1901.016 C 1366.271 1902.210,1274.270 1903.810,1262.745 1907.557 C 1245.066 1913.305,1220.115 1937.453,1209.563 1959.025 C 1199.773 1979.042,1199.693 2020.798,1209.407 2040.646 C 1220.396 2063.099,1244.219 2086.519,1262.000 2092.350 C 1281.844 2098.857,1967.012 2102.708,2022.387 2096.623 C 2090.049 2089.188,2147.523 2048.454,2178.346 1986.089 C 2192.951 1956.536,2193.690 1953.063,2196.932 1898.657 C 2198.789 1867.496,2199.789 1530.600,2199.154 1150.000 L 2198.000 458.000 2188.375 434.000 C 2167.240 381.303,2134.330 345.902,2082.797 320.431 L 2050.000 304.221 1704.000 302.499 C 1513.700 301.552,1335.500 302.151,1308.000 303.831 M1062.000 749.555 C 1043.651 757.571,1024.958 774.941,1013.333 794.777 C 1004.827 809.292,1002.824 817.802,1002.824 839.416 C 1002.824 856.153,1005.230 870.776,1009.270 878.588 C 1012.815 885.444,1061.878 938.066,1118.298 995.527 L 1220.879 1100.000 791.440 1100.149 C 351.826 1100.301,270.632 1102.296,249.005 1113.480 C 231.711 1122.424,208.930 1155.359,203.367 1179.463 C 197.006 1207.017,203.569 1234.891,222.481 1260.655 C 241.001 1285.884,253.039 1291.758,295.346 1296.211 C 314.406 1298.217,530.448 1299.890,775.440 1299.929 L 1220.879 1300.000 1118.298 1404.473 C 1061.878 1461.934,1012.815 1514.556,1009.270 1521.412 C 1005.230 1529.224,1002.824 1543.847,1002.824 1560.584 C 1002.824 1582.246,1004.822 1590.700,1013.408 1605.350 C 1046.407 1661.659,1110.652 1674.526,1160.999 1634.908 C 1192.941 1609.773,1516.379 1285.325,1536.423 1258.312 C 1553.051 1235.904,1554.071 1232.988,1555.308 1204.312 C 1556.539 1175.797,1555.844 1172.814,1543.578 1154.000 C 1524.490 1124.722,1156.148 757.325,1138.482 749.944 C 1121.052 742.661,1078.279 742.444,1062.000 749.555 " fill="#1D1E23" stroke="none" fill-rule="evenodd"/></svg>