<svg viewBox="0 0 2400 2400" fill="none" xmlns="http://www.w3.org/2000/svg"><path d="M1404.846 306.999 L 1255.692 308.098 1238.636 325.153 C 1219.166 344.623,1204.196 372.867,1201.096 395.976 C 1197.274 424.474,1233.673 481.230,1262.898 492.341 C 1269.563 494.876,1408.489 497.289,1636.752 498.837 L 2000.000 501.299 2000.000 1199.950 L 2000.000 1898.600 1632.138 1902.485 L 1264.276 1906.371 1247.138 1918.689 C 1237.712 1925.465,1224.600 1939.648,1218.000 1950.208 C 1207.219 1967.458,1206.000 1972.721,1206.000 2002.001 C 1206.000 2030.746,1207.280 2036.526,1216.843 2050.973 C 1234.256 2077.280,1251.787 2088.235,1282.864 2092.231 C 1328.488 2098.098,1993.087 2101.894,2027.248 2096.483 C 2084.775 2087.371,2138.775 2049.139,2171.659 1994.240 C 2198.806 1948.918,2196.895 2004.929,2198.975 1193.719 L 2200.863 457.437 2189.954 435.719 C 2162.489 381.042,2130.814 348.523,2075.668 318.389 L 2049.336 304.000 1801.668 304.950 C 1665.451 305.472,1486.881 306.394,1404.846 306.999 M1067.409 749.480 C 1023.110 765.560,999.278 807.127,1006.065 856.474 C 1009.506 881.494,1020.598 894.839,1137.827 1015.000 L 1220.753 1100.000 935.376 1100.094 C 646.004 1100.188,302.853 1105.530,272.300 1110.416 C 222.695 1118.348,191.879 1177.442,209.571 1230.708 C 217.793 1255.462,237.265 1279.243,255.701 1287.046 C 278.084 1296.519,414.489 1299.503,837.000 1299.765 C 1045.450 1299.894,1216.000 1301.402,1216.000 1303.116 C 1216.000 1304.829,1204.115 1317.879,1189.589 1332.116 C 1113.579 1406.608,1018.332 1510.754,1010.950 1527.443 C 995.573 1562.204,1009.050 1612.627,1039.758 1635.230 C 1068.212 1656.173,1105.762 1661.449,1134.000 1648.470 C 1155.888 1638.410,1230.553 1569.774,1352.000 1448.074 C 1466.206 1333.628,1536.863 1257.670,1546.565 1238.908 C 1550.133 1232.007,1553.889 1215.480,1554.912 1202.181 C 1556.587 1180.397,1555.601 1176.276,1544.971 1160.606 C 1512.474 1112.703,1178.189 778.724,1142.004 758.007 C 1121.658 746.359,1086.940 742.390,1067.409 749.480 " fill="#1D1E23" stroke="none" fill-rule="evenodd"/></svg>