<svg viewBox="0 0 2400 2400" fill="none" xmlns="http://www.w3.org/2000/svg"><path d="M300.000 1200.000 L 300.000 2100.000 750.000 2100.000 L 1200.000 2100.000 1200.000 2000.000 L 1200.000 1900.000 850.000 1900.000 L 500.000 1900.000 500.000 1200.000 L 500.000 500.000 850.000 500.000 L 1200.000 500.000 1200.000 400.000 L 1200.000 300.000 750.000 300.000 L 300.000 300.000 300.000 1200.000 M1700.000 949.005 L 1700.000 1100.000 1300.000 1100.000 L 900.000 1100.000 900.000 1200.000 L 900.000 1300.000 1300.000 1300.000 L 1700.000 1300.000 1700.000 1450.995 L 1700.000 1601.990 1900.995 1400.995 L 2101.990 1200.000 1900.995 999.005 L 1700.000 798.010 1700.000 949.005 " fill="#1D1E23" stroke="none" fill-rule="evenodd"/></svg>