<svg viewBox="0 0 2400 2400" fill="none" xmlns="http://www.w3.org/2000/svg"><path d="M1200.000 400.000 L 1200.000 500.000 1600.000 500.000 L 2000.000 500.000 2000.000 1200.000 L 2000.000 1900.000 1600.000 1900.000 L 1200.000 1900.000 1200.000 2000.000 L 1200.000 2100.000 1700.000 2100.000 L 2200.000 2100.000 2200.000 1200.000 L 2200.000 300.000 1700.000 300.000 L 1200.000 300.000 1200.000 400.000 M1032.010 769.990 L 962.066 840.020 1092.010 970.010 L 1221.954 1100.000 710.977 1100.000 L 200.000 1100.000 200.000 1200.000 L 200.000 1300.000 710.977 1300.000 L 1221.954 1300.000 1091.996 1430.004 L 962.037 1560.009 1032.032 1630.003 L 1102.026 1699.998 1352.005 1449.995 L 1601.984 1199.992 1351.969 949.977 L 1101.953 699.961 1032.010 769.990 " fill="#1D1E23" stroke="none" fill-rule="evenodd"/></svg>