<svg viewBox="0 0 2400 2400" fill="none" xmlns="http://www.w3.org/2000/svg"><path d="M1267.191 306.902 C 1239.421 309.823,1200.000 364.444,1200.000 400.000 C 1200.000 431.312,1231.197 478.873,1259.822 491.201 C 1272.078 496.479,1323.217 497.558,1637.000 499.160 L 2000.000 501.013 2000.000 1199.849 L 2000.000 1898.686 1646.124 1901.402 C 1451.492 1902.897,1284.001 1905.249,1273.921 1906.631 C 1259.907 1908.552,1251.049 1913.229,1236.285 1926.503 C 1210.836 1949.384,1202.824 1966.984,1202.824 2000.000 C 1202.824 2032.707,1210.470 2049.732,1235.800 2073.425 C 1252.322 2088.880,1258.067 2091.699,1278.447 2094.349 C 1291.401 2096.034,1466.700 2097.545,1668.000 2097.706 L 2034.000 2098.000 2059.847 2088.672 C 2074.063 2083.542,2093.311 2074.881,2102.619 2069.426 C 2127.372 2054.919,2165.368 2012.327,2179.914 1982.782 C 2191.351 1959.548,2192.950 1951.660,2196.385 1901.525 C 2198.632 1868.729,2199.741 1561.095,2199.094 1150.000 L 2198.000 454.000 2183.065 422.721 C 2162.058 378.727,2129.502 345.717,2083.878 322.154 L 2048.729 304.000 1665.365 304.672 C 1454.514 305.042,1275.336 306.046,1267.191 306.902 M1065.841 748.257 C 1047.874 753.482,1021.924 777.499,1011.922 798.161 C 1004.727 813.024,1003.408 821.589,1004.619 845.578 C 1006.452 881.868,1002.972 877.367,1127.860 1005.000 L 1220.816 1100.000 841.408 1100.178 C 405.403 1100.382,272.794 1103.452,250.889 1113.846 C 234.158 1121.786,210.899 1153.861,203.640 1179.006 C 193.579 1213.852,217.154 1268.473,249.497 1285.258 C 260.184 1290.804,277.693 1294.042,309.304 1296.319 C 333.887 1298.090,549.034 1299.642,787.408 1299.769 L 1220.816 1300.000 1127.860 1395.000 C 1004.281 1521.295,1006.580 1518.363,1004.671 1552.143 C 1002.812 1585.045,1007.857 1601.720,1026.129 1623.066 C 1053.741 1655.325,1098.981 1665.672,1137.642 1648.571 C 1172.804 1633.016,1532.077 1274.295,1548.323 1238.520 C 1558.640 1215.800,1558.519 1178.180,1548.074 1161.049 C 1535.756 1140.846,1373.324 973.799,1253.037 857.630 C 1167.912 775.419,1140.784 751.483,1129.037 748.221 C 1111.272 743.287,1082.876 743.304,1065.841 748.257 " fill="#1D1E23" stroke="none" fill-rule="evenodd"/></svg>