<svg viewBox="0 0 2400 2400" fill="none" xmlns="http://www.w3.org/2000/svg"><path d="M534.000 307.614 C 444.258 309.941,441.460 310.267,420.000 320.878 C 377.497 341.894,334.995 384.166,316.904 423.416 C 308.223 442.250,306.634 453.100,303.726 513.416 C 299.332 604.552,299.451 1767.868,303.864 1870.000 C 307.621 1956.925,310.632 1970.854,332.630 2003.044 C 365.048 2050.483,412.219 2084.461,456.073 2091.961 C 520.101 2102.912,1102.415 2099.692,1140.803 2088.174 C 1159.630 2082.526,1185.650 2052.680,1192.227 2029.191 C 1198.460 2006.928,1195.036 1973.632,1184.362 1952.709 C 1179.785 1943.737,1167.995 1930.254,1158.161 1922.746 C 1140.426 1909.203,1139.859 1909.075,1087.142 1906.607 C 1057.914 1905.240,913.850 1902.936,767.000 1901.488 L 500.000 1898.856 500.000 1200.068 L 500.000 501.280 803.000 498.856 C 1001.495 497.268,1113.090 494.896,1126.556 491.980 C 1151.986 486.472,1175.940 466.912,1188.155 441.681 C 1195.621 426.258,1196.711 418.690,1195.096 393.519 C 1193.478 368.315,1191.280 361.028,1181.010 346.827 C 1174.318 337.572,1162.802 325.223,1155.421 319.384 L 1142.000 308.768 884.000 306.998 C 742.100 306.025,584.600 306.302,534.000 307.614 M1720.947 886.106 L 1700.000 900.213 1700.000 999.553 L 1700.000 1098.894 1386.952 1101.851 C 1214.776 1103.478,1048.514 1106.030,1017.481 1107.523 C 965.050 1110.045,959.890 1111.010,944.563 1121.153 C 919.055 1138.033,907.296 1158.906,904.969 1191.438 C 903.849 1207.086,904.988 1224.875,907.621 1232.852 C 913.444 1250.495,936.968 1278.227,953.256 1286.649 C 972.468 1296.585,1076.843 1299.614,1406.931 1299.819 L 1699.863 1300.000 1700.931 1400.812 L 1702.000 1501.625 1718.063 1512.912 C 1726.898 1519.120,1740.754 1525.274,1748.855 1526.589 L 1763.584 1528.979 1912.187 1381.490 C 1998.629 1295.696,2064.118 1227.507,2068.743 1218.479 C 2082.675 1191.283,2078.806 1184.324,2008.123 1109.456 C 1936.090 1033.158,1797.879 900.935,1771.974 883.537 C 1762.526 877.192,1751.893 872.000,1748.345 872.000 C 1744.796 872.000,1732.467 878.348,1720.947 886.106 " fill="#1D1E23" stroke="none" fill-rule="evenodd"/></svg>