<svg viewBox="0 0 2400 2400" fill="none" xmlns="http://www.w3.org/2000/svg"><path d="M1622.000 302.385 C 1615.400 303.271,1593.348 305.928,1572.995 308.288 C 1454.198 322.065,1344.508 375.795,1233.438 474.614 L 1199.566 504.750 1178.783 485.327 C 1082.673 395.504,977.990 337.616,868.000 313.468 C 840.357 307.400,817.920 306.058,748.000 306.294 C 672.835 306.547,657.212 307.735,624.000 315.719 C 430.240 362.299,288.924 493.630,226.058 685.544 C 205.281 748.971,202.896 769.498,204.960 867.156 C 206.691 949.060,207.522 956.731,219.570 1002.000 C 260.599 1156.159,338.282 1285.680,495.466 1462.000 C 610.407 1590.934,875.002 1844.048,1150.962 2089.054 L 1199.455 2132.108 1222.728 2112.727 C 1251.593 2088.688,1389.716 1964.353,1470.000 1890.138 C 1933.484 1461.690,2087.605 1276.761,2161.860 1059.974 C 2190.576 976.136,2196.012 942.537,2195.931 849.372 C 2195.855 762.790,2192.908 741.807,2172.088 679.569 C 2143.791 594.981,2105.155 529.667,2048.886 471.297 C 1977.655 397.406,1892.858 346.907,1798.000 321.887 C 1746.147 308.210,1654.360 298.039,1622.000 302.385 " fill="#1D1E23" stroke="none" fill-rule="evenodd"/></svg>