<svg viewBox="0 0 2400 2400" fill="none" xmlns="http://www.w3.org/2000/svg"><path d="M704.000 302.412 C 596.954 315.421,523.469 341.508,439.991 396.134 C 389.912 428.905,325.022 493.733,292.405 543.578 C 234.149 632.607,205.354 721.665,201.072 826.061 C 192.981 1023.333,274.679 1207.543,472.468 1438.000 C 526.532 1500.993,684.531 1660.934,790.056 1759.493 C 921.491 1882.251,1075.283 2020.901,1093.465 2033.030 C 1149.809 2070.615,1228.713 2074.070,1292.505 2041.744 C 1316.864 2029.400,1336.229 2012.936,1464.000 1895.937 C 1804.055 1584.550,1949.432 1431.063,2056.865 1270.000 C 2123.523 1170.066,2167.303 1071.006,2188.568 972.000 C 2200.736 915.350,2201.870 796.115,2190.737 744.000 C 2166.708 631.516,2118.500 541.504,2040.503 463.487 C 1959.749 382.713,1864.409 332.227,1749.496 309.389 C 1701.151 299.781,1600.225 299.767,1548.000 309.361 C 1434.946 330.130,1320.497 389.748,1235.340 472.230 L 1200.000 506.461 1164.660 472.230 C 1080.478 390.693,975.300 335.285,860.648 312.076 C 820.877 304.025,734.551 298.699,704.000 302.412 " fill="#1D1E23" stroke="none" fill-rule="evenodd"/></svg>