<svg viewBox="0 0 2400 2400" fill="none" xmlns="http://www.w3.org/2000/svg"><path d="M1590.000 306.803 C 1454.872 321.986,1346.934 373.418,1228.964 478.837 L 1199.929 504.783 1168.964 477.082 C 1078.637 396.275,985.994 344.215,888.573 319.517 C 845.197 308.520,839.096 308.000,753.405 308.000 C 654.663 308.000,629.107 311.408,568.663 332.637 C 485.983 361.676,422.352 401.454,361.888 461.900 C 316.133 507.642,284.797 552.355,256.456 612.343 C 214.851 700.406,203.985 747.871,204.033 841.352 C 204.074 922.421,208.751 963.679,223.848 1016.135 C 283.382 1222.997,408.057 1390.805,736.000 1705.478 C 875.583 1839.412,939.836 1899.120,1074.116 2019.676 C 1129.052 2068.997,1179.760 2114.713,1186.799 2121.266 L 1199.598 2133.180 1228.799 2107.606 C 1436.837 1925.409,1719.265 1659.173,1837.142 1534.141 C 2027.573 1332.151,2114.730 1203.087,2165.721 1047.573 C 2191.833 967.934,2197.103 928.573,2194.853 830.000 C 2192.816 740.785,2188.990 720.832,2159.649 646.411 C 2106.989 512.840,2004.371 406.098,1873.328 348.583 C 1791.081 312.484,1682.259 296.437,1590.000 306.803 " fill="#1D1E23" stroke="none" fill-rule="evenodd"/></svg>