<svg viewBox="0 0 2400 2400" fill="none" xmlns="http://www.w3.org/2000/svg"><path d="M1590.000 306.803 C 1454.872 321.986,1346.934 373.418,1228.964 478.837 L 1199.929 504.783 1168.964 477.082 C 1078.637 396.275,985.994 344.215,888.573 319.517 C 845.197 308.520,839.096 308.000,753.405 308.000 C 687.729 308.000,655.572 309.671,633.494 314.231 C 569.128 327.527,490.662 361.336,433.156 400.553 C 391.305 429.093,326.954 494.207,298.956 536.343 C 256.173 600.731,218.210 692.734,207.868 757.098 C 200.322 804.060,204.974 944.043,215.475 986.000 C 251.261 1128.976,331.741 1272.066,461.571 1423.547 C 545.488 1521.459,715.043 1690.393,928.063 1888.331 C 1071.911 2021.994,1192.502 2128.000,1200.707 2128.000 C 1205.048 2128.000,1246.964 2091.597,1347.887 2000.176 C 1638.995 1736.481,1836.931 1542.198,1950.689 1408.499 C 2076.475 1260.663,2148.227 1131.020,2184.525 986.000 C 2194.999 944.151,2199.681 804.015,2192.162 757.406 C 2186.937 725.012,2164.315 654.144,2146.572 614.579 C 2096.077 501.986,1991.998 400.667,1873.328 348.583 C 1791.081 312.484,1682.259 296.437,1590.000 306.803 M848.000 515.834 C 903.877 532.102,964.975 564.997,1011.118 603.658 C 1033.170 622.133,1084.683 689.636,1096.670 715.764 L 1105.953 736.000 1200.143 736.000 L 1294.333 736.000 1304.655 715.000 C 1310.331 703.450,1325.732 679.600,1338.878 662.000 C 1412.286 563.720,1511.853 510.829,1634.000 505.230 C 1739.804 500.380,1825.111 532.380,1896.350 603.640 C 1932.292 639.592,1951.678 668.570,1969.367 712.786 C 1989.248 762.481,1993.719 789.007,1993.508 856.000 C 1993.275 929.711,1984.971 967.336,1953.288 1038.218 C 1898.620 1160.524,1813.109 1273.867,1652.056 1437.497 C 1545.046 1546.219,1283.447 1792.585,1218.522 1845.786 L 1200.000 1860.964 1181.312 1845.650 C 1074.514 1758.138,723.917 1420.440,640.873 1325.096 C 501.367 1164.927,422.900 1025.232,407.712 910.000 C 402.307 868.998,405.124 806.034,414.422 760.000 C 427.085 697.310,473.360 624.833,530.773 577.770 C 559.805 553.971,624.129 522.792,666.095 512.178 C 710.332 500.988,803.436 502.860,848.000 515.834 " fill="#1D1E23" stroke="none" fill-rule="evenodd"/></svg>