<svg viewBox="0 0 2400 2400" fill="none" xmlns="http://www.w3.org/2000/svg"><path d="M680.695 304.164 C 607.715 313.331,526.970 340.839,467.059 376.943 C 330.209 459.415,244.308 581.866,209.565 744.000 C 199.188 792.425,199.170 902.970,209.531 958.000 C 253.317 1190.578,406.527 1402.019,792.314 1762.282 C 921.750 1883.155,1196.278 2132.000,1200.189 2132.000 C 1206.779 2132.000,1516.059 1849.825,1672.000 1701.539 C 2005.999 1383.934,2148.849 1179.073,2190.469 958.000 C 2200.830 902.970,2200.812 792.425,2190.435 744.000 C 2155.692 581.866,2069.791 459.415,1932.941 376.943 C 1799.236 296.368,1623.239 278.510,1469.465 329.916 C 1382.860 358.868,1299.804 409.336,1235.187 472.273 L 1200.000 506.545 1164.813 472.273 C 1080.939 390.579,964.268 329.640,854.000 309.931 C 810.295 302.119,720.706 299.138,680.695 304.164 " fill="#1D1E23" stroke="none" fill-rule="evenodd"/></svg>