<svg viewBox="0 0 2400 2400" fill="none" xmlns="http://www.w3.org/2000/svg"><path d="M1622.000 302.385 C 1615.400 303.271,1593.348 305.928,1572.995 308.288 C 1454.198 322.065,1344.508 375.795,1233.438 474.614 L 1199.566 504.750 1178.783 485.327 C 1082.673 395.504,977.990 337.616,868.000 313.468 C 840.357 307.400,817.920 306.058,748.000 306.294 C 672.835 306.547,657.212 307.735,624.000 315.719 C 430.240 362.299,288.924 493.630,226.058 685.544 C 205.281 748.971,202.896 769.498,204.960 867.156 C 206.677 948.381,207.592 956.976,219.107 1000.000 C 250.460 1117.140,300.789 1215.085,392.462 1337.362 C 457.900 1424.646,514.558 1487.524,645.528 1618.213 C 824.189 1796.491,1184.783 2128.000,1200.042 2128.000 C 1206.196 2128.000,1237.149 2101.119,1368.000 1982.137 C 1830.196 1561.867,2012.168 1365.411,2110.998 1180.000 C 2137.496 1130.287,2165.129 1059.281,2180.701 1000.889 C 2192.435 956.888,2193.318 948.651,2195.040 867.156 C 2197.107 769.377,2194.730 749.003,2173.805 685.126 C 2144.829 596.670,2106.503 531.066,2048.886 471.297 C 1977.655 397.406,1892.858 346.907,1798.000 321.887 C 1746.147 308.210,1654.360 298.039,1622.000 302.385 M824.000 510.156 C 898.177 525.691,974.876 566.491,1026.506 617.880 C 1052.213 643.467,1097.108 707.931,1101.552 725.640 L 1104.152 736.000 1199.100 736.000 L 1294.047 736.000 1302.784 717.000 C 1314.987 690.462,1356.683 634.661,1383.495 608.986 C 1481.039 515.576,1631.229 479.215,1757.253 518.498 C 1905.604 564.741,1996.550 692.251,1996.550 854.000 C 1996.550 924.733,1979.254 989.774,1939.241 1069.512 C 1871.252 1204.998,1755.747 1343.981,1542.000 1547.496 C 1375.297 1706.219,1206.993 1860.000,1199.984 1860.000 C 1190.805 1860.000,901.177 1592.176,780.000 1471.634 C 577.462 1270.156,471.417 1124.892,424.380 984.496 C 406.996 932.609,402.725 899.246,405.112 834.000 C 408.919 729.950,439.701 662.505,516.246 590.496 C 542.402 565.890,557.284 555.690,589.533 540.263 C 669.927 501.806,740.722 492.715,824.000 510.156 " fill="#1D1E23" stroke="none" fill-rule="evenodd"/></svg>