<svg viewBox="0 0 2400 2400" fill="none" xmlns="http://www.w3.org/2000/svg"><path d="M704.000 302.671 C 507.463 325.249,341.420 437.978,256.825 606.264 C 239.410 640.909,217.383 706.270,209.385 747.036 C 199.016 799.886,200.215 912.302,211.741 968.000 C 253.765 1171.076,380.668 1358.575,666.675 1640.161 C 794.847 1766.351,1004.966 1959.832,1075.886 2016.967 C 1117.471 2050.469,1153.051 2064.000,1199.557 2064.000 C 1225.012 2064.000,1277.295 2050.351,1297.655 2038.391 C 1364.231 1999.281,1819.694 1564.593,1929.827 1435.053 C 2022.172 1326.436,2074.443 1250.299,2120.035 1158.000 C 2179.142 1038.337,2196.882 967.700,2196.883 852.000 C 2196.883 771.231,2193.479 745.438,2175.239 688.000 C 2119.677 513.038,1985.359 381.112,1804.000 323.372 L 1762.000 310.000 1646.000 310.004 L 1530.000 310.009 1480.999 326.805 C 1384.989 359.715,1317.848 399.858,1233.067 475.040 L 1200.135 504.245 1162.036 470.743 C 1032.379 356.729,920.979 310.879,754.000 302.803 C 734.200 301.846,711.700 301.786,704.000 302.671 " fill="#1D1E23" stroke="none" fill-rule="evenodd"/></svg>