<svg viewBox="0 0 2400 2400" fill="none" xmlns="http://www.w3.org/2000/svg"><path d="M1578.000 308.282 C 1451.515 325.688,1346.193 376.482,1234.981 473.710 L 1200.005 504.289 1163.954 473.304 C 1084.528 405.040,1002.350 356.229,923.185 330.297 C 861.833 310.199,829.053 306.630,728.628 309.113 C 629.773 311.556,601.694 317.183,529.245 349.068 C 455.585 381.486,427.037 401.084,367.660 460.000 C 309.156 518.050,290.395 543.520,260.119 606.000 C 217.747 693.441,203.998 749.017,204.003 832.831 C 204.010 943.639,213.280 996.724,248.239 1086.136 C 303.478 1227.420,400.779 1365.304,564.476 1534.271 C 757.009 1733.003,1180.369 2128.000,1200.838 2128.000 C 1206.989 2128.000,1393.311 1960.702,1547.947 1816.332 C 1643.081 1727.513,1879.678 1489.939,1926.714 1436.000 C 2050.082 1294.527,2123.057 1176.279,2165.162 1049.620 C 2190.096 974.614,2193.533 949.926,2193.785 844.000 C 2193.994 756.516,2193.684 752.938,2182.683 716.000 C 2164.157 653.795,2141.034 598.867,2117.785 561.836 C 2036.892 432.989,1910.236 344.801,1764.142 315.603 C 1719.109 306.603,1618.855 302.660,1578.000 308.282 M838.000 513.888 C 892.639 526.576,968.064 566.559,1010.370 605.262 C 1039.963 632.333,1080.449 684.582,1095.304 714.870 L 1105.667 736.000 1200.564 736.000 C 1291.157 736.000,1295.573 735.646,1297.938 728.195 C 1301.843 715.893,1336.553 664.456,1359.613 636.800 C 1390.035 600.314,1435.680 565.646,1482.000 543.845 C 1529.880 521.309,1556.989 513.646,1609.364 507.842 C 1778.645 489.081,1924.043 579.770,1978.373 738.000 C 1988.098 766.325,1989.563 777.361,1991.128 834.099 C 1993.860 933.175,1986.621 966.482,1942.461 1058.000 C 1880.555 1186.295,1800.362 1288.367,1620.281 1468.081 C 1496.012 1592.096,1278.059 1797.000,1218.522 1845.786 L 1200.000 1860.964 1181.000 1845.507 C 1100.760 1780.233,786.947 1480.997,687.075 1374.527 C 539.101 1216.775,444.715 1069.037,415.286 949.106 C 404.205 903.950,403.534 814.781,413.907 766.000 C 426.795 705.389,460.711 646.165,510.426 597.455 C 553.955 554.806,631.872 516.568,692.645 508.031 C 725.368 503.435,807.183 506.731,838.000 513.888 " fill="#1D1E23" stroke="none" fill-rule="evenodd"/></svg>