<svg viewBox="0 0 2400 2400" fill="none" xmlns="http://www.w3.org/2000/svg"><path d="M704.000 302.754 C 555.372 318.405,421.390 387.742,329.171 496.734 C 267.917 569.128,228.043 652.330,209.404 746.643 C 198.684 800.886,199.477 908.566,211.020 966.011 C 252.677 1173.331,382.952 1363.501,686.434 1660.000 C 835.109 1805.254,1073.726 2021.499,1105.983 2040.213 C 1144.181 2062.373,1201.071 2069.516,1246.160 2057.811 C 1305.026 2042.531,1307.652 2040.451,1543.850 1822.000 C 1859.963 1529.639,2010.527 1360.339,2103.776 1192.404 C 2143.349 1121.134,2176.660 1032.472,2190.395 961.855 C 2199.983 912.562,2200.161 786.836,2190.704 744.000 C 2152.745 572.060,2049.798 438.035,1896.000 360.332 C 1855.095 339.666,1829.026 329.900,1775.878 315.334 C 1744.870 306.835,1734.037 306.053,1648.000 306.102 C 1559.008 306.153,1551.869 306.723,1514.000 316.796 C 1410.523 344.321,1326.611 390.714,1240.305 468.115 L 1200.000 504.262 1159.209 467.680 C 1044.319 364.644,930.663 314.848,786.000 304.167 C 755.200 301.893,727.300 300.313,724.000 300.656 C 720.700 301.000,711.700 301.944,704.000 302.754 " fill="#1D1E23" stroke="none" fill-rule="evenodd"/></svg>