<svg viewBox="0 0 2400 2400" fill="none" xmlns="http://www.w3.org/2000/svg"><path d="M684.000 306.720 C 606.078 314.734,494.054 360.370,422.629 413.197 C 293.215 508.913,218.315 641.925,203.874 801.674 C 185.795 1001.670,268.145 1196.300,470.439 1431.686 C 581.267 1560.644,816.924 1791.128,1016.000 1965.271 C 1084.621 2025.298,1110.751 2043.183,1146.339 2054.484 C 1183.080 2066.152,1203.229 2066.410,1244.987 2055.748 C 1287.701 2044.842,1303.742 2036.259,1342.200 2003.729 C 1466.182 1898.859,1786.934 1590.511,1893.238 1474.000 C 2053.970 1297.834,2152.360 1131.785,2184.766 982.000 C 2195.978 930.177,2199.236 803.311,2190.622 754.000 C 2156.280 557.419,2012.585 396.631,1806.681 324.391 L 1771.363 312.000 1648.000 312.000 L 1524.637 312.000 1489.319 324.169 C 1437.888 341.890,1347.323 388.072,1307.048 417.115 C 1287.825 430.978,1255.875 456.262,1236.048 473.302 L 1200.000 504.285 1163.952 473.302 C 1065.733 388.886,970.811 338.124,873.645 318.054 C 828.383 308.704,724.862 302.518,684.000 306.720 " fill="#1D1E23" stroke="none" fill-rule="evenodd"/></svg>