<svg viewBox="0 0 2400 2400" fill="none" xmlns="http://www.w3.org/2000/svg"><path d="M1578.000 308.282 C 1451.515 325.688,1346.193 376.482,1234.981 473.710 L 1200.005 504.289 1163.954 473.304 C 1063.867 387.282,956.605 330.942,860.000 313.649 C 824.011 307.207,704.971 306.351,654.185 312.168 C 592.718 319.210,511.087 351.108,447.041 393.112 C 337.468 464.975,252.318 584.321,216.824 715.782 C 207.157 751.585,206.489 759.939,206.253 848.000 C 205.967 954.109,208.244 969.591,236.726 1055.240 C 276.407 1174.568,346.352 1288.087,466.400 1428.000 C 518.045 1488.191,684.285 1656.492,810.000 1775.861 C 948.899 1907.748,1193.720 2130.000,1200.102 2130.000 C 1206.343 2130.000,1396.213 1959.454,1533.963 1830.118 C 1930.444 1457.852,2075.139 1284.233,2149.530 1091.496 C 2184.121 1001.876,2196.000 942.222,2196.000 858.134 C 2196.000 748.998,2184.313 696.118,2140.241 605.838 C 2066.323 454.423,1929.176 348.587,1764.142 315.603 C 1719.109 306.603,1618.855 302.660,1578.000 308.282 " fill="#1D1E23" stroke="none" fill-rule="evenodd"/></svg>