<svg viewBox="0 0 2400 2400" fill="none" xmlns="http://www.w3.org/2000/svg"><path d="M1601.968 304.109 C 1469.512 315.024,1352.561 367.702,1242.797 465.891 L 1199.594 504.537 1174.075 480.666 C 1070.857 384.111,955.376 324.827,838.000 308.139 C 787.652 300.981,684.104 303.012,639.875 312.026 C 440.411 352.674,289.032 488.256,226.793 682.000 C 205.645 747.832,202.554 769.681,202.744 852.000 C 202.940 937.093,209.471 977.078,236.371 1057.875 C 314.450 1292.394,505.048 1509.517,1107.451 2050.179 C 1156.366 2094.081,1197.650 2130.437,1199.194 2130.971 C 1205.871 2133.282,1504.803 1861.014,1674.000 1698.516 C 1921.411 1460.901,2048.599 1306.898,2124.058 1153.574 C 2151.746 1097.316,2175.892 1027.604,2188.337 968.000 C 2195.500 933.693,2197.124 912.445,2197.207 852.000 C 2197.318 769.665,2194.160 747.267,2173.234 682.000 C 2157.216 632.043,2132.614 580.002,2106.471 540.777 C 2030.588 426.919,1904.197 341.934,1769.070 313.908 C 1741.007 308.088,1658.936 299.378,1644.000 300.635 C 1640.700 300.913,1621.786 302.476,1601.968 304.109 " fill="#1D1E23" stroke="none" fill-rule="evenodd"/></svg>