<svg viewBox="0 0 2400 2400" fill="none" xmlns="http://www.w3.org/2000/svg"><path d="M674.000 308.178 C 623.155 312.990,537.560 340.977,488.000 368.996 C 416.193 409.591,348.021 469.638,303.813 531.232 C 276.011 569.967,238.514 645.062,222.388 694.300 C 208.621 736.335,204.036 778.541,204.170 862.000 C 204.298 941.876,209.125 973.275,232.035 1043.252 C 274.423 1172.725,348.998 1292.689,487.374 1454.000 C 555.699 1533.649,828.394 1800.095,991.388 1946.465 C 1092.005 2036.819,1118.149 2053.015,1174.941 2060.170 C 1226.540 2066.672,1279.259 2052.934,1317.344 2023.064 C 1342.093 2003.652,1431.412 1923.691,1521.831 1840.000 C 1887.820 1501.245,2029.080 1339.260,2120.062 1154.000 C 2154.149 1084.590,2175.756 1024.085,2188.119 963.415 C 2199.494 907.596,2199.295 795.428,2187.721 738.629 C 2172.815 665.485,2138.992 588.851,2094.760 528.000 C 2068.125 491.359,2000.676 427.428,1960.213 400.472 C 1892.836 355.585,1814.119 322.228,1752.000 312.241 C 1718.363 306.833,1577.637 306.833,1544.000 312.241 C 1484.655 321.782,1385.899 362.746,1323.719 403.614 C 1307.064 414.560,1272.355 441.734,1246.588 464.000 L 1199.738 504.485 1170.869 478.688 C 1081.306 398.654,984.747 343.680,892.254 320.065 C 873.652 315.315,834.829 310.178,800.946 307.983 C 735.554 303.747,720.577 303.770,674.000 308.178 M848.000 515.834 C 903.877 532.102,964.975 564.997,1011.118 603.658 C 1033.170 622.133,1084.683 689.636,1096.670 715.764 L 1105.953 736.000 1200.236 736.000 L 1294.518 736.000 1301.384 721.602 C 1313.203 696.817,1351.619 641.646,1371.485 620.926 C 1400.049 591.135,1435.372 566.796,1485.685 542.239 C 1547.615 512.011,1566.782 508.123,1654.000 508.095 C 1725.253 508.072,1726.402 508.210,1764.748 521.430 C 1831.732 544.523,1885.942 582.050,1922.573 630.685 C 1998.227 731.133,2016.356 858.444,1973.313 987.009 C 1941.727 1081.350,1871.929 1193.295,1771.926 1310.000 C 1695.534 1399.150,1502.184 1589.006,1305.997 1767.507 C 1266.399 1803.535,1226.350 1839.302,1217.000 1846.989 L 1200.000 1860.964 1181.312 1845.650 C 1074.514 1758.138,723.917 1420.440,640.873 1325.096 C 501.367 1164.927,422.900 1025.232,407.712 910.000 C 402.307 868.998,405.124 806.034,414.422 760.000 C 427.085 697.310,473.360 624.833,530.773 577.770 C 559.805 553.971,624.129 522.792,666.095 512.178 C 710.332 500.988,803.436 502.860,848.000 515.834 " fill="#1D1E23" stroke="none" fill-rule="evenodd"/></svg>