<svg viewBox="0 0 2400 2400" fill="none" xmlns="http://www.w3.org/2000/svg"><path d="M1601.968 304.109 C 1469.512 315.024,1352.561 367.702,1242.797 465.891 L 1199.594 504.537 1174.075 480.666 C 1070.857 384.111,955.376 324.827,838.000 308.139 C 787.652 300.981,684.104 303.012,639.875 312.026 C 440.411 352.674,289.032 488.256,226.793 682.000 C 205.645 747.832,202.554 769.681,202.744 852.000 C 202.940 937.090,209.471 977.078,236.367 1057.864 C 294.316 1231.920,435.474 1420.077,696.072 1670.629 C 866.206 1834.205,1190.586 2130.000,1199.836 2130.000 C 1210.062 2130.000,1598.037 1773.925,1731.395 1642.147 C 1989.207 1387.387,2107.250 1227.859,2163.634 1058.000 C 2190.633 976.665,2197.091 937.041,2197.207 852.000 C 2197.318 769.665,2194.160 747.267,2173.234 682.000 C 2157.216 632.043,2132.614 580.002,2106.471 540.777 C 2030.588 426.919,1904.197 341.934,1769.070 313.908 C 1741.007 308.088,1658.936 299.378,1644.000 300.635 C 1640.700 300.913,1621.786 302.476,1601.968 304.109 M804.000 505.846 C 891.646 519.219,981.823 566.638,1038.317 629.059 C 1061.666 654.857,1093.854 703.376,1100.025 722.077 L 1104.620 736.000 1200.234 736.000 L 1295.848 736.000 1298.513 725.382 C 1302.928 707.789,1347.971 643.964,1375.855 615.789 C 1455.866 534.944,1579.823 490.600,1689.608 503.547 C 1859.506 523.584,1978.353 644.528,1996.780 816.139 C 2007.665 917.522,1971.168 1033.302,1889.015 1158.000 C 1812.695 1273.846,1713.624 1384.949,1536.019 1553.871 C 1413.162 1670.721,1204.523 1862.000,1199.926 1862.000 C 1198.110 1862.000,1144.734 1814.519,1081.312 1756.487 C 743.192 1447.099,609.642 1307.117,512.228 1160.000 C 458.803 1079.316,425.410 1005.560,409.606 933.337 C 399.597 887.599,400.534 804.071,411.521 762.686 C 429.418 695.268,456.728 647.380,503.844 600.800 C 544.568 560.538,580.916 538.084,634.000 520.397 C 694.375 500.279,741.236 496.268,804.000 505.846 " fill="#1D1E23" stroke="none" fill-rule="evenodd"/></svg>