<svg viewBox="0 0 2400 2400" fill="none" xmlns="http://www.w3.org/2000/svg"><path d="M563.948 303.791 L 441.896 306.000 410.499 323.970 C 372.153 345.918,337.632 381.577,319.939 417.517 C 308.223 441.317,306.836 448.280,303.759 498.774 C 299.370 570.779,299.370 1829.221,303.759 1901.226 C 306.852 1951.976,308.187 1958.623,320.231 1983.226 C 337.936 2019.395,380.684 2062.103,416.955 2079.858 C 442.253 2092.243,447.536 2093.252,502.955 2096.288 C 579.979 2100.507,1820.106 2100.502,1897.152 2096.282 C 1953.320 2093.206,1957.652 2092.360,1983.035 2079.521 C 2015.683 2063.006,2055.809 2026.340,2071.586 1998.604 C 2099.023 1950.371,2098.044 1965.144,2097.594 1606.000 C 2097.301 1372.522,2095.884 1277.336,2092.522 1265.306 C 2086.078 1242.248,2054.449 1214.098,2025.545 1205.696 C 1984.676 1193.815,1942.438 1211.162,1914.102 1251.464 L 1902.000 1268.676 1899.265 1531.338 C 1897.760 1675.802,1895.408 1804.800,1894.038 1818.000 C 1890.963 1847.621,1871.440 1877.278,1848.732 1886.827 C 1822.584 1897.823,1733.901 1899.564,1200.000 1899.564 C 647.288 1899.564,574.777 1897.997,549.638 1885.511 C 524.981 1873.265,511.590 1852.871,507.452 1821.259 C 502.062 1780.094,498.606 869.356,503.215 705.044 C 507.722 544.384,507.615 544.896,542.035 520.162 L 561.292 506.323 671.646 503.456 C 732.341 501.879,858.382 500.456,951.737 500.294 C 1145.233 499.959,1140.623 500.697,1172.033 465.014 C 1194.072 439.976,1202.694 410.350,1196.282 381.696 C 1190.060 353.895,1172.227 327.849,1151.400 316.144 C 1135.590 307.258,1128.632 306.411,1048.224 303.580 C 953.827 300.258,754.389 300.345,563.948 303.791 M1457.966 311.460 C 1439.522 319.839,1417.630 343.123,1409.179 363.347 C 1401.800 381.008,1401.857 419.128,1409.289 436.916 C 1417.355 456.220,1438.418 478.977,1457.621 489.135 C 1473.352 497.457,1479.600 497.858,1615.604 499.290 L 1757.207 500.780 1292.719 965.390 L 828.231 1430.000 821.812 1455.283 C 813.995 1486.069,816.413 1503.413,832.428 1531.456 C 845.524 1554.385,870.461 1573.084,897.938 1580.577 C 910.686 1584.054,919.778 1583.595,942.000 1578.354 L 970.000 1571.751 1434.641 1107.241 L 1899.282 642.731 1901.035 782.365 C 1902.314 884.312,1904.221 926.079,1908.099 937.113 C 1916.116 959.919,1946.536 986.188,1974.264 994.249 C 1993.829 999.937,2000.652 1000.232,2018.778 996.176 C 2043.893 990.555,2068.800 972.866,2085.898 948.507 L 2098.000 931.267 2097.744 654.633 C 2097.550 444.515,2096.287 374.434,2092.490 363.169 C 2085.487 342.392,2049.186 309.902,2029.304 306.617 C 2020.887 305.226,1892.500 304.108,1744.000 304.132 C 1491.435 304.173,1472.965 304.646,1457.966 311.460 " fill="#1D1E23" stroke="none" fill-rule="evenodd"/></svg>