<svg viewBox="0 0 2400 2400" fill="none" xmlns="http://www.w3.org/2000/svg"><path d="M300.000 1200.000 L 300.000 2100.000 1200.000 2100.000 L 2100.000 2100.000 2100.000 1650.000 L 2100.000 1200.000 2000.000 1200.000 L 1900.000 1200.000 1900.000 1550.000 L 1900.000 1900.000 1200.000 1900.000 L 500.000 1900.000 500.000 1200.000 L 500.000 500.000 850.000 500.000 L 1200.000 500.000 1200.000 400.000 L 1200.000 300.000 750.000 300.000 L 300.000 300.000 300.000 1200.000 M1400.000 400.000 L 1400.000 500.000 1578.994 500.000 L 1757.988 500.000 1266.990 991.010 L 775.992 1482.020 846.986 1553.014 L 917.980 1624.008 1408.990 1133.010 L 1900.000 642.012 1900.000 821.006 L 1900.000 1000.000 2000.000 1000.000 L 2100.000 1000.000 2100.000 650.000 L 2100.000 300.000 1750.000 300.000 L 1400.000 300.000 1400.000 400.000 " fill="#1D1E23" stroke="none" fill-rule="evenodd"/></svg>