<svg viewBox="0 0 2400 2400" fill="none" xmlns="http://www.w3.org/2000/svg"><path d="M605.840 303.505 L 441.681 306.000 418.084 320.000 C 378.709 343.360,338.046 384.744,321.428 418.369 L 306.980 447.603 303.239 538.801 C 298.027 665.874,301.666 1915.220,307.331 1943.355 C 315.347 1983.171,338.158 2017.913,379.392 2053.111 C 406.085 2075.895,431.301 2088.104,461.407 2092.821 C 496.866 2098.376,1701.976 2101.662,1840.000 2096.580 C 1977.612 2091.513,1984.183 2089.510,2038.018 2036.225 C 2071.413 2003.170,2086.542 1976.615,2092.840 1940.000 C 2099.271 1902.612,2099.150 1336.340,2092.701 1286.368 C 2088.033 1250.199,2081.936 1239.776,2054.602 1221.229 C 2009.104 1190.356,1951.754 1202.297,1915.915 1250.103 L 1902.000 1268.665 1897.522 1547.333 C 1892.630 1851.743,1893.384 1843.290,1868.788 1869.493 C 1849.843 1889.676,1837.242 1892.424,1746.289 1896.210 C 1634.787 1900.851,747.144 1900.720,650.000 1896.048 C 544.471 1890.973,524.906 1882.728,512.263 1838.000 C 500.456 1796.232,500.035 633.274,511.803 568.330 C 515.974 545.312,531.284 524.931,552.916 513.600 C 565.938 506.778,611.739 505.015,908.000 499.929 C 1044.930 497.578,1123.962 494.694,1135.134 491.641 C 1154.363 486.386,1176.064 464.529,1188.390 438.000 C 1206.128 399.823,1191.652 346.787,1156.810 322.299 C 1141.150 311.293,1136.526 310.261,1090.983 307.618 C 1008.443 302.827,778.643 300.878,605.840 303.505 M1523.689 307.469 C 1465.380 309.837,1460.365 310.671,1445.621 320.440 C 1413.675 341.606,1400.399 374.558,1405.942 418.925 C 1408.324 437.983,1411.339 443.929,1427.357 461.155 C 1461.388 497.752,1461.622 497.798,1619.668 499.322 L 1757.337 500.650 1292.864 965.325 L 828.391 1430.000 821.642 1457.267 C 815.996 1480.080,815.694 1487.207,819.798 1500.902 C 830.703 1537.300,858.764 1566.961,893.075 1578.357 C 910.833 1584.255,914.743 1584.252,941.202 1578.311 L 970.000 1571.845 1435.000 1106.929 L 1900.000 642.013 1900.095 742.006 C 1900.206 859.519,1904.862 930.329,1913.586 947.200 C 1920.903 961.348,1945.611 981.739,1965.519 990.057 C 1983.701 997.654,2016.242 997.677,2034.362 990.106 C 2053.038 982.303,2066.813 971.184,2085.000 949.233 L 2100.000 931.129 2099.704 750.564 C 2099.303 505.764,2095.126 374.252,2087.163 355.744 C 2080.604 340.498,2056.528 319.122,2037.576 311.717 C 2024.315 306.536,1627.424 303.255,1523.689 307.469 " fill="#1D1E23" stroke="none" fill-rule="evenodd"/></svg>