<svg viewBox="0 0 2400 2400" fill="none" xmlns="http://www.w3.org/2000/svg"><path d="M1590.000 307.739 C 1492.489 310.244,1485.642 311.893,1466.051 337.578 C 1450.637 357.786,1438.975 394.093,1442.050 412.296 C 1446.870 440.823,1462.374 460.099,1573.144 575.277 L 1624.382 628.554 1580.445 675.277 C 1556.279 700.975,1332.193 926.197,1082.477 1175.770 L 628.446 1629.540 567.223 1569.765 C 468.156 1473.041,431.132 1444.000,406.885 1444.000 C 375.757 1444.000,328.422 1469.417,309.974 1496.038 L 298.902 1512.014 300.787 1767.372 C 302.668 2022.285,302.687 2022.761,311.687 2041.354 C 320.751 2060.077,344.487 2083.699,365.073 2094.481 C 374.477 2099.407,414.562 2100.109,631.073 2099.140 C 885.372 2098.003,886.034 2097.978,900.000 2089.252 C 935.705 2066.941,956.348 2034.263,956.616 1999.628 C 956.901 1962.827,940.135 1940.479,823.329 1821.970 L 772.048 1769.940 1271.705 1270.295 L 1771.361 770.651 1852.471 849.472 C 1897.081 892.823,1941.668 933.650,1951.553 940.198 C 1976.418 956.667,1997.747 961.941,2016.620 956.287 C 2038.074 949.859,2081.102 919.885,2087.138 907.163 C 2095.156 890.264,2099.778 804.876,2099.649 676.000 C 2099.474 501.508,2094.432 373.153,2087.069 355.757 C 2079.416 337.676,2050.452 312.682,2034.349 310.264 C 2013.869 307.188,1684.311 305.315,1590.000 307.739 " fill="#1D1E23" stroke="none" fill-rule="evenodd"/></svg>