<svg viewBox="0 0 2400 2400" fill="none" xmlns="http://www.w3.org/2000/svg"><path d="M593.909 303.790 L 441.818 306.000 412.202 323.599 C 373.040 346.870,337.203 383.661,320.347 417.901 C 307.428 444.145,306.928 447.019,303.723 513.479 C 299.373 603.703,299.442 1798.347,303.802 1886.000 C 307.632 1962.980,310.650 1973.310,341.493 2015.005 C 361.303 2041.783,398.738 2072.044,428.000 2084.931 C 457.444 2097.899,548.694 2099.637,1200.000 2099.637 C 1851.030 2099.637,1942.536 2097.896,1972.000 2084.950 C 2016.001 2065.616,2063.365 2019.347,2083.217 1976.305 C 2092.454 1956.278,2093.486 1947.972,2096.646 1868.305 C 2098.528 1820.837,2099.044 1668.600,2097.793 1530.000 C 2095.277 1251.343,2095.627 1255.037,2069.629 1232.211 C 2046.256 1211.689,2027.014 1203.996,1999.159 1204.038 C 1966.470 1204.086,1938.858 1219.132,1916.622 1249.012 L 1901.003 1270.000 1898.294 1537.548 C 1896.804 1684.699,1893.897 1813.999,1891.833 1824.882 C 1887.046 1850.124,1870.109 1875.189,1851.275 1884.904 C 1839.113 1891.177,1822.408 1893.132,1755.275 1896.141 C 1652.087 1900.764,742.709 1900.842,643.804 1896.235 C 547.896 1891.768,531.703 1885.716,514.746 1848.000 C 506.913 1830.579,506.538 1818.669,503.082 1478.000 C 499.413 1116.412,501.917 675.075,508.068 599.250 C 509.975 575.738,514.163 551.421,517.373 545.212 C 520.584 539.003,531.377 528.058,541.358 520.891 C 558.890 508.300,561.172 507.782,608.752 505.587 C 635.839 504.337,763.300 502.015,892.000 500.426 C 1151.253 497.224,1142.747 498.150,1167.038 470.485 C 1198.384 434.783,1205.735 396.016,1188.169 359.047 C 1178.576 338.858,1157.890 318.124,1140.556 311.323 C 1128.107 306.438,935.358 300.146,824.000 300.989 C 781.100 301.314,677.559 302.574,593.909 303.790 M1479.687 307.588 C 1453.760 310.391,1435.959 322.085,1417.855 348.210 C 1406.925 363.981,1406.000 368.043,1406.000 400.264 C 1406.000 432.943,1406.806 436.342,1418.404 452.606 C 1425.227 462.173,1438.957 475.567,1448.916 482.372 C 1472.100 498.212,1491.842 500.000,1643.597 500.000 L 1757.987 500.000 1293.053 965.000 L 828.120 1430.000 821.417 1457.277 C 815.093 1483.011,815.112 1485.817,821.747 1506.865 C 831.359 1537.359,857.470 1564.953,887.429 1576.279 C 909.316 1584.553,910.909 1584.617,940.000 1578.388 L 970.000 1571.964 1434.404 1107.585 L 1898.807 643.205 1900.912 782.915 C 1903.258 938.654,1904.525 946.268,1931.925 969.323 C 1983.215 1012.481,2039.688 1006.010,2083.108 952.000 L 2100.795 930.000 2098.445 650.337 C 2095.787 333.855,2098.328 356.738,2062.464 326.341 C 2045.450 311.920,2040.534 309.966,2014.748 307.379 C 1980.465 303.939,1511.749 304.122,1479.687 307.588 " fill="#1D1E23" stroke="none" fill-rule="evenodd"/></svg>