<svg viewBox="0 0 2400 2400" fill="none" xmlns="http://www.w3.org/2000/svg"><path d="M1523.672 307.470 C 1482.620 311.415,1459.231 332.931,1445.530 379.352 C 1440.343 396.925,1440.056 404.005,1443.909 419.352 C 1450.335 444.948,1467.440 466.139,1551.484 552.619 C 1591.368 593.659,1624.000 628.762,1624.000 630.625 C 1624.000 632.488,1400.026 857.980,1126.281 1131.719 L 628.562 1629.426 554.420 1557.156 C 472.012 1476.830,438.531 1449.588,417.328 1445.610 C 384.764 1439.501,336.808 1460.499,313.378 1491.126 L 302.000 1506.000 302.000 1760.000 C 302.000 1960.129,303.132 2017.818,307.338 2032.000 C 313.429 2052.536,330.011 2071.883,355.783 2088.520 L 373.566 2100.000 626.982 2100.000 C 854.523 2100.000,881.704 2099.327,893.199 2093.407 C 940.462 2069.066,965.458 2024.205,955.792 1981.070 C 950.036 1955.389,933.809 1935.235,846.784 1845.684 L 772.620 1769.368 1272.008 1269.992 L 1771.396 770.616 1853.433 850.581 C 1943.194 938.073,1956.946 949.182,1984.559 956.503 C 2000.578 960.750,2005.657 960.454,2021.660 954.342 C 2045.177 945.361,2075.140 925.116,2085.173 911.428 C 2097.349 894.818,2101.055 796.989,2098.094 570.319 C 2095.328 358.512,2095.301 358.260,2072.788 334.720 C 2066.855 328.516,2055.700 319.516,2048.000 314.720 C 2034.043 306.027,2033.263 305.998,1792.000 305.470 C 1658.900 305.179,1538.152 306.079,1523.672 307.470 " fill="#1D1E23" stroke="none" fill-rule="evenodd"/></svg>