<svg viewBox="0 0 2400 2400" fill="none" xmlns="http://www.w3.org/2000/svg"><path d="M1512.285 304.660 C 1459.861 319.717,1428.739 379.830,1446.112 432.477 C 1452.496 451.823,1462.040 462.913,1540.480 542.133 L 1627.746 630.266 1127.929 1130.071 L 628.112 1629.876 539.056 1541.422 C 442.943 1445.958,438.375 1442.783,397.689 1443.148 C 371.320 1443.385,345.758 1454.467,326.978 1473.805 C 299.591 1502.004,300.000 1497.515,300.000 1770.000 C 300.000 2046.226,299.334 2039.545,329.895 2070.105 C 360.457 2100.668,353.750 2100.000,630.210 2100.000 C 834.687 2100.000,877.722 2099.038,891.561 2094.155 C 943.020 2075.999,970.955 2019.242,953.888 1967.523 C 947.504 1948.177,937.960 1937.087,859.520 1857.867 L 772.254 1769.734 1272.071 1269.929 L 1771.888 770.124 1860.944 858.730 C 1946.546 943.900,1950.919 947.600,1973.685 954.151 C 1993.667 959.900,2000.663 960.229,2018.423 956.255 C 2041.579 951.073,2066.765 935.884,2079.770 919.260 C 2099.919 893.503,2100.000 892.350,2100.000 630.210 C 2100.000 353.750,2100.668 360.457,2070.105 329.895 C 2039.494 299.284,2046.289 299.953,1770.287 300.361 C 1623.073 300.578,1520.550 302.287,1512.285 304.660 " fill="#1D1E23" stroke="none" fill-rule="evenodd"/></svg>