<svg viewBox="0 0 2400 2400" fill="none" xmlns="http://www.w3.org/2000/svg"><path d="M458.041 304.701 C 385.928 318.453,319.929 384.827,304.420 459.197 C 298.170 489.170,298.170 1910.830,304.420 1940.803 C 320.053 2015.765,384.235 2079.947,459.197 2095.580 C 489.170 2101.830,1910.830 2101.830,1940.803 2095.580 C 2015.765 2079.947,2079.947 2015.765,2095.580 1940.803 C 2098.591 1926.361,2100.000 1818.557,2100.000 1602.516 C 2100.000 1245.265,2101.267 1261.056,2070.105 1229.895 C 2030.979 1190.768,1969.021 1190.768,1929.895 1229.895 C 1899.158 1260.631,1900.000 1251.675,1900.000 1547.987 C 1900.000 1846.042,1900.589 1839.621,1870.465 1869.745 C 1837.810 1902.400,1891.001 1900.000,1200.000 1900.000 C 509.722 1900.000,562.127 1902.338,529.895 1870.105 C 497.662 1837.873,500.000 1890.278,500.000 1200.000 C 500.000 509.722,497.662 562.127,529.895 529.895 C 560.650 499.140,551.440 500.000,850.000 500.000 C 1148.560 500.000,1139.350 500.860,1170.105 470.105 C 1209.232 430.979,1209.232 369.021,1170.105 329.895 C 1138.884 298.673,1155.006 299.943,796.287 300.447 C 613.648 300.704,469.494 302.517,458.041 304.701 M1464.342 306.868 C 1429.056 319.332,1400.000 361.388,1400.000 400.000 C 1400.000 439.639,1429.089 480.804,1465.983 493.375 C 1482.582 499.031,1505.346 500.000,1621.672 500.000 L 1757.920 500.000 1293.247 965.000 L 828.574 1430.000 821.827 1453.607 C 810.735 1492.413,820.119 1527.728,848.649 1554.552 C 877.221 1581.415,908.556 1588.988,946.393 1578.173 L 970.000 1571.426 1435.000 1106.753 L 1900.000 642.080 1900.000 778.328 C 1900.000 933.907,1901.164 941.375,1929.895 970.105 C 1969.021 1009.232,2030.979 1009.232,2070.105 970.105 C 2100.860 939.350,2100.000 948.560,2100.000 650.000 C 2100.000 351.440,2100.860 360.650,2070.105 329.895 C 2039.292 299.081,2048.848 299.959,1748.287 300.316 C 1517.863 300.589,1479.622 301.472,1464.342 306.868 " fill="#1D1E23" stroke="none" fill-rule="evenodd"/></svg>