<svg viewBox="0 0 2400 2400" fill="none" xmlns="http://www.w3.org/2000/svg"><path d="M1050.920 214.235 C 966.802 227.326,872.611 255.504,790.526 292.132 C 548.270 400.231,350.343 611.983,262.121 857.444 C 177.255 1093.568,180.890 1337.421,272.697 1567.099 C 357.407 1779.020,519.807 1965.347,710.000 2068.830 C 804.085 2120.022,866.993 2144.767,966.846 2169.863 C 1054.834 2191.976,1090.203 2196.055,1194.881 2196.161 C 1298.719 2196.266,1335.332 2192.837,1408.000 2176.204 C 1560.892 2141.208,1696.294 2077.624,1812.000 1986.487 C 2041.196 1805.960,2174.407 1555.363,2196.258 1263.617 C 2214.486 1020.254,2128.022 757.770,1964.627 560.437 C 1802.499 364.635,1553.773 232.284,1310.000 212.101 C 1241.508 206.430,1093.219 207.651,1050.920 214.235 M730.000 1060.163 C 762.132 1064.759,791.455 1082.090,813.803 1109.695 C 837.840 1139.386,840.000 1146.927,840.000 1201.181 L 840.000 1250.760 824.590 1274.603 C 806.637 1302.379,786.646 1320.036,756.207 1335.000 C 737.698 1344.100,729.230 1345.714,700.000 1345.714 C 670.770 1345.714,662.302 1344.100,643.793 1335.000 C 613.354 1320.036,593.363 1302.379,575.410 1274.603 L 560.000 1250.760 560.000 1197.820 L 560.000 1144.880 577.387 1121.262 C 600.454 1089.927,628.220 1068.152,655.766 1059.793 C 670.302 1055.382,697.521 1055.518,730.000 1060.163 M1230.000 1060.163 C 1262.132 1064.759,1291.455 1082.090,1313.803 1109.695 C 1337.840 1139.386,1340.000 1146.927,1340.000 1201.181 L 1340.000 1250.760 1324.590 1274.603 C 1306.637 1302.379,1286.646 1320.036,1256.207 1335.000 C 1237.698 1344.100,1229.230 1345.714,1200.000 1345.714 C 1170.770 1345.714,1162.302 1344.100,1143.793 1335.000 C 1113.354 1320.036,1093.363 1302.379,1075.410 1274.603 L 1060.000 1250.760 1060.000 1197.820 L 1060.000 1144.880 1077.387 1121.262 C 1100.454 1089.927,1128.220 1068.152,1155.766 1059.793 C 1170.302 1055.382,1197.521 1055.518,1230.000 1060.163 M1730.000 1060.163 C 1762.132 1064.759,1791.455 1082.090,1813.803 1109.695 C 1837.840 1139.386,1840.000 1146.927,1840.000 1201.181 L 1840.000 1250.760 1824.590 1274.603 C 1806.637 1302.379,1786.646 1320.036,1756.207 1335.000 C 1737.698 1344.100,1729.230 1345.714,1700.000 1345.714 C 1670.770 1345.714,1662.302 1344.100,1643.793 1335.000 C 1613.354 1320.036,1593.363 1302.379,1575.410 1274.603 L 1560.000 1250.760 1560.000 1197.820 L 1560.000 1144.880 1577.387 1121.262 C 1600.454 1089.927,1628.220 1068.152,1655.766 1059.793 C 1670.302 1055.382,1697.521 1055.518,1730.000 1060.163 " fill="#1D1E23" stroke="none" fill-rule="evenodd"/></svg>