<svg viewBox="0 0 2400 2400" fill="none" xmlns="http://www.w3.org/2000/svg"><path d="M1062.000 210.040 C 838.845 245.765,647.360 340.791,498.022 489.920 C 335.373 652.340,239.530 845.602,207.371 1076.000 C 199.343 1133.512,200.542 1278.601,209.535 1338.000 C 259.968 1671.099,465.368 1953.685,762.000 2098.072 C 996.553 2212.242,1262.178 2230.922,1508.000 2150.533 C 1764.708 2066.585,1981.131 1878.587,2098.027 1638.000 C 2234.203 1357.731,2233.307 1038.111,2095.564 760.000 C 2043.904 655.694,1982.750 570.004,1904.273 491.959 C 1757.151 345.647,1581.994 255.288,1368.000 215.310 C 1310.952 204.652,1116.566 201.304,1062.000 210.040 M762.142 1065.550 C 790.637 1078.596,816.180 1102.924,831.438 1131.552 C 843.374 1153.945,844.000 1157.357,844.000 1200.000 C 844.000 1242.643,843.374 1246.055,831.438 1268.448 C 773.885 1376.429,620.963 1374.189,567.000 1264.574 C 554.892 1239.981,554.013 1235.416,554.189 1198.084 C 554.357 1162.324,555.571 1155.695,565.439 1136.639 C 586.187 1096.573,626.312 1063.502,663.996 1055.409 C 689.674 1049.895,739.101 1055.002,762.142 1065.550 M1262.142 1065.550 C 1290.637 1078.596,1316.180 1102.924,1331.438 1131.552 C 1343.374 1153.945,1344.000 1157.357,1344.000 1200.000 C 1344.000 1242.643,1343.374 1246.055,1331.438 1268.448 C 1273.885 1376.429,1120.963 1374.189,1067.000 1264.574 C 1054.892 1239.981,1054.013 1235.416,1054.189 1198.084 C 1054.357 1162.324,1055.571 1155.695,1065.439 1136.639 C 1086.187 1096.573,1126.312 1063.502,1163.996 1055.409 C 1189.674 1049.895,1239.101 1055.002,1262.142 1065.550 M1762.142 1065.550 C 1790.637 1078.596,1816.180 1102.924,1831.438 1131.552 C 1843.374 1153.945,1844.000 1157.357,1844.000 1200.000 C 1844.000 1242.643,1843.374 1246.055,1831.438 1268.448 C 1773.885 1376.429,1620.963 1374.189,1567.000 1264.574 C 1554.892 1239.981,1554.013 1235.416,1554.189 1198.084 C 1554.357 1162.324,1555.571 1155.695,1565.439 1136.639 C 1586.187 1096.573,1626.312 1063.502,1663.996 1055.409 C 1689.674 1049.895,1739.101 1055.002,1762.142 1065.550 " fill="#1D1E23" stroke="none" fill-rule="evenodd"/></svg>