<svg viewBox="0 0 2400 2400" fill="none" xmlns="http://www.w3.org/2000/svg"><path d="M1112.000 203.923 C 833.630 231.768,590.463 362.388,419.326 576.000 C 147.365 915.458,126.704 1391.677,368.248 1753.288 C 676.969 2215.470,1294.618 2338.595,1756.000 2029.929 C 2215.492 1722.528,2337.727 1104.086,2029.929 644.000 C 1872.846 409.198,1631.891 256.219,1349.288 211.869 C 1290.914 202.708,1165.973 198.524,1112.000 203.923 M764.357 1065.021 C 792.378 1078.730,821.276 1107.658,835.130 1135.867 C 844.861 1155.681,846.000 1162.400,846.000 1200.000 C 846.000 1237.600,844.861 1244.319,835.130 1264.133 C 806.113 1323.217,740.261 1358.133,677.205 1347.871 C 630.004 1340.189,586.189 1307.623,565.123 1264.566 C 551.357 1236.430,547.964 1187.929,557.473 1155.220 C 569.453 1114.011,607.703 1074.021,649.344 1059.171 C 680.749 1047.972,735.166 1050.739,764.357 1065.021 M1264.357 1065.021 C 1292.378 1078.730,1321.276 1107.658,1335.130 1135.867 C 1344.861 1155.681,1346.000 1162.400,1346.000 1200.000 C 1346.000 1237.600,1344.861 1244.319,1335.130 1264.133 C 1306.113 1323.217,1240.261 1358.133,1177.205 1347.871 C 1130.004 1340.189,1086.189 1307.623,1065.123 1264.566 C 1051.357 1236.430,1047.964 1187.929,1057.473 1155.220 C 1069.453 1114.011,1107.703 1074.021,1149.344 1059.171 C 1180.749 1047.972,1235.166 1050.739,1264.357 1065.021 M1764.357 1065.021 C 1792.378 1078.730,1821.276 1107.658,1835.130 1135.867 C 1844.861 1155.681,1846.000 1162.400,1846.000 1200.000 C 1846.000 1237.600,1844.861 1244.319,1835.130 1264.133 C 1806.113 1323.217,1740.261 1358.133,1677.205 1347.871 C 1630.004 1340.189,1586.189 1307.623,1565.123 1264.566 C 1551.357 1236.430,1547.964 1187.929,1557.473 1155.220 C 1569.453 1114.011,1607.703 1074.021,1649.344 1059.171 C 1680.749 1047.972,1735.166 1050.739,1764.357 1065.021 " fill="#1D1E23" stroke="none" fill-rule="evenodd"/></svg>