<svg viewBox="0 0 2400 2400" fill="none" xmlns="http://www.w3.org/2000/svg"><path d="M1120.000 207.889 C 916.398 228.012,735.356 320.429,599.283 473.699 C 503.938 581.094,440.209 719.739,411.604 882.000 C 399.622 949.966,398.524 1059.155,409.271 1114.000 C 426.214 1200.464,454.862 1279.005,505.566 1378.000 C 581.070 1525.416,707.002 1700.715,839.650 1843.048 C 909.299 1917.783,1128.093 2137.338,1169.000 2173.543 L 1200.000 2200.981 1230.956 2173.490 C 1283.897 2126.477,1508.025 1900.952,1562.381 1840.000 C 1694.073 1692.328,1777.712 1583.051,1843.709 1472.437 C 1913.022 1356.265,1974.011 1207.970,1990.103 1116.476 C 1998.088 1071.079,1997.916 952.128,1989.784 896.513 C 1963.978 720.019,1890.885 565.205,1778.315 448.612 C 1709.740 377.587,1651.033 335.553,1554.000 288.003 C 1471.155 247.405,1414.405 228.634,1330.000 213.910 C 1287.615 206.517,1168.456 203.100,1120.000 207.889 M1236.437 808.083 C 1288.313 817.921,1337.672 853.937,1372.703 907.513 L 1392.000 937.026 1392.000 1000.000 L 1392.000 1062.974 1372.686 1092.487 C 1314.279 1181.739,1227.558 1217.436,1141.265 1187.747 C 1097.357 1172.640,1058.895 1140.468,1027.383 1092.487 L 1008.000 1062.974 1008.000 1000.000 L 1008.000 937.026 1027.397 907.513 C 1060.934 856.488,1108.435 818.371,1150.984 808.343 C 1172.045 803.379,1211.009 803.261,1236.437 808.083 " fill="#1D1E23" stroke="none" fill-rule="evenodd"/></svg>