<svg viewBox="0 0 2400 2400" fill="none" xmlns="http://www.w3.org/2000/svg"><path d="M1150.000 202.400 C 1008.084 216.037,903.762 248.044,791.105 312.512 C 562.733 443.199,414.879 695.753,401.504 978.000 C 387.134 1281.239,582.095 1621.345,996.893 2016.649 C 1133.792 2147.114,1159.200 2165.367,1203.816 2165.300 C 1229.408 2165.262,1247.804 2156.995,1278.000 2131.962 C 1321.132 2096.206,1476.647 1946.185,1543.511 1875.831 C 1797.413 1608.676,1947.223 1358.619,1990.340 1130.000 C 1999.683 1080.460,1999.686 942.328,1990.345 886.172 C 1950.085 644.146,1823.310 446.414,1632.530 328.088 C 1529.995 264.495,1420.821 224.600,1310.000 210.229 C 1262.874 204.118,1176.238 199.878,1150.000 202.400 M1251.067 810.460 C 1302.208 823.747,1344.913 857.473,1374.471 907.916 L 1392.000 937.833 1392.000 1000.000 L 1392.000 1062.167 1374.337 1092.341 C 1291.218 1234.333,1108.822 1234.401,1025.738 1092.470 L 1008.000 1062.167 1008.000 1000.000 L 1008.000 937.833 1025.663 907.659 C 1054.748 857.972,1102.086 820.072,1152.419 806.175 C 1176.460 799.536,1215.559 801.235,1251.067 810.460 " fill="#1D1E23" stroke="none" fill-rule="evenodd"/></svg>