<svg viewBox="0 0 2400 2400" fill="none" xmlns="http://www.w3.org/2000/svg"><path d="M1118.868 204.467 C 879.370 227.545,660.506 360.115,530.161 561.058 C 431.273 713.507,381.246 930.674,406.241 1099.004 C 448.346 1382.569,709.869 1755.606,1141.248 2147.421 L 1200.063 2200.842 1243.032 2161.862 C 1516.980 1913.345,1733.915 1662.421,1857.730 1450.852 C 1918.007 1347.855,1968.898 1223.954,1987.874 1134.000 C 2011.516 1021.923,1998.665 870.587,1954.206 737.537 C 1837.341 387.802,1493.482 168.368,1118.868 204.467 M1266.174 812.372 C 1324.845 834.235,1365.108 874.388,1388.135 934.000 C 1395.716 953.628,1397.405 965.651,1397.405 1000.000 C 1397.405 1034.349,1395.716 1046.372,1388.135 1066.000 C 1368.358 1117.198,1331.511 1158.402,1286.562 1179.584 C 1177.653 1230.908,1056.161 1180.672,1011.865 1066.000 C 998.535 1031.489,998.562 968.375,1011.923 934.000 C 1029.004 890.053,1053.929 858.066,1089.285 834.722 C 1108.937 821.747,1146.198 806.455,1168.000 802.417 C 1190.086 798.327,1242.837 803.676,1266.174 812.372 " fill="#1D1E23" stroke="none" fill-rule="evenodd"/></svg>