<svg viewBox="0 0 2400 2400" fill="none" xmlns="http://www.w3.org/2000/svg"><path d="M1114.000 206.665 C 1079.962 210.825,1045.332 217.554,1002.405 228.347 C 684.296 308.334,459.359 562.047,410.477 896.000 C 387.147 1055.389,408.301 1186.970,484.686 1357.576 C 572.756 1554.282,764.746 1799.006,1014.402 2032.792 C 1132.918 2143.773,1155.761 2160.119,1196.646 2163.202 C 1240.072 2166.477,1265.811 2147.953,1402.365 2015.150 C 1583.547 1838.946,1685.835 1723.778,1774.053 1596.659 C 1881.539 1441.775,1939.727 1322.412,1981.070 1172.001 L 1993.714 1126.000 1993.857 1012.000 C 1994.010 890.265,1992.657 878.105,1969.795 795.718 C 1914.196 595.359,1804.248 442.024,1638.891 334.239 C 1561.892 284.049,1450.874 238.504,1360.822 220.163 C 1297.039 207.172,1167.718 200.100,1114.000 206.665 M1236.437 808.083 C 1288.313 817.921,1337.672 853.937,1372.703 907.513 L 1392.000 937.026 1392.000 1000.000 L 1392.000 1062.974 1372.686 1092.487 C 1314.279 1181.739,1227.558 1217.436,1141.265 1187.747 C 1097.357 1172.640,1058.895 1140.468,1027.383 1092.487 L 1008.000 1062.974 1008.000 1000.000 L 1008.000 937.026 1027.397 907.513 C 1060.934 856.488,1108.435 818.371,1150.984 808.343 C 1172.045 803.379,1211.009 803.261,1236.437 808.083 " fill="#1D1E23" stroke="none" fill-rule="evenodd"/></svg>