<svg viewBox="0 0 2400 2400" fill="none" xmlns="http://www.w3.org/2000/svg"><path d="M1118.868 204.467 C 1034.772 212.570,933.270 240.604,854.630 277.445 C 574.406 408.726,399.511 693.444,400.078 1017.424 C 400.617 1325.278,624.133 1679.674,1079.079 2094.015 C 1148.597 2157.329,1163.395 2166.000,1201.917 2166.000 C 1238.338 2166.000,1250.160 2159.020,1318.000 2097.468 C 1771.360 1686.125,1999.383 1324.977,1999.922 1017.424 C 2000.207 854.752,1952.847 689.049,1869.215 560.101 C 1708.498 312.301,1419.797 175.469,1118.868 204.467 M1266.174 812.372 C 1324.845 834.235,1365.108 874.388,1388.135 934.000 C 1395.716 953.628,1397.405 965.651,1397.405 1000.000 C 1397.405 1034.349,1395.716 1046.372,1388.135 1066.000 C 1368.358 1117.198,1331.511 1158.402,1286.562 1179.584 C 1177.653 1230.908,1056.161 1180.672,1011.865 1066.000 C 998.535 1031.489,998.562 968.375,1011.923 934.000 C 1029.004 890.053,1053.929 858.066,1089.285 834.722 C 1108.937 821.747,1146.198 806.455,1168.000 802.417 C 1190.086 798.327,1242.837 803.676,1266.174 812.372 " fill="#1D1E23" stroke="none" fill-rule="evenodd"/></svg>