<svg viewBox="0 0 2400 2400" fill="none" xmlns="http://www.w3.org/2000/svg"><path d="M1110.000 206.711 C 1021.162 217.907,921.836 247.040,845.516 284.286 C 589.547 409.206,427.453 655.736,403.237 956.953 C 385.683 1175.295,477.005 1410.210,681.984 1674.000 C 763.703 1779.165,879.130 1904.705,996.394 2015.958 C 1134.639 2147.116,1158.033 2164.000,1201.522 2164.000 C 1244.884 2164.000,1260.432 2152.463,1407.324 2011.281 C 1586.474 1839.095,1699.563 1709.016,1797.923 1562.000 C 1890.546 1423.559,1944.849 1309.025,1979.036 1180.000 C 1993.268 1126.291,1993.354 1125.461,1995.059 1025.950 C 1996.570 937.796,1995.789 920.198,1988.486 877.950 C 1942.110 609.651,1788.505 400.285,1554.000 285.738 C 1467.777 243.622,1381.203 218.475,1287.158 208.231 C 1250.924 204.284,1137.012 203.307,1110.000 206.711 M1240.803 808.407 C 1294.273 819.523,1343.830 857.043,1375.297 910.233 L 1392.000 938.465 1392.000 1000.000 L 1392.000 1061.535 1375.699 1088.973 C 1329.179 1167.279,1248.142 1209.885,1171.706 1196.225 C 1111.600 1185.483,1058.803 1147.240,1024.735 1089.767 L 1008.000 1061.535 1008.010 999.767 L 1008.021 938.000 1022.427 914.000 C 1051.846 864.992,1087.387 832.761,1134.000 812.818 C 1156.941 803.003,1205.219 801.009,1240.803 808.407 " fill="#1D1E23" stroke="none" fill-rule="evenodd"/></svg>