<svg viewBox="0 0 2400 2400" fill="none" xmlns="http://www.w3.org/2000/svg"><path d="M1062.000 210.040 C 838.845 245.765,647.360 340.791,498.022 489.920 C 335.373 652.340,239.530 845.602,207.371 1076.000 C 199.343 1133.512,200.542 1278.601,209.535 1338.000 C 259.968 1671.099,465.368 1953.685,762.000 2098.072 C 996.553 2212.242,1262.178 2230.922,1508.000 2150.533 C 1764.708 2066.585,1981.131 1878.587,2098.027 1638.000 C 2234.203 1357.731,2233.307 1038.111,2095.564 760.000 C 2043.904 655.694,1982.750 570.004,1904.273 491.959 C 1757.151 345.647,1581.994 255.288,1368.000 215.310 C 1310.952 204.652,1116.566 201.304,1062.000 210.040 M1242.940 511.433 C 1254.016 517.361,1275.729 542.765,1280.545 555.432 C 1282.749 561.231,1285.779 579.236,1287.277 595.443 L 1290.000 624.909 1323.748 634.641 C 1426.038 664.139,1519.824 746.102,1519.824 806.000 C 1519.824 822.778,1508.311 852.504,1496.780 865.495 C 1486.454 877.129,1451.845 891.917,1434.841 891.961 C 1414.203 892.014,1393.000 880.377,1363.131 852.603 C 1304.059 797.676,1273.121 783.584,1210.000 782.854 C 1167.979 782.368,1139.998 788.243,1104.143 805.083 C 1066.349 822.833,1042.315 849.135,1031.573 884.504 C 1012.725 946.556,1035.811 993.701,1104.871 1034.189 C 1137.200 1053.143,1171.217 1067.500,1256.000 1097.976 C 1388.804 1145.713,1456.370 1183.409,1507.202 1238.123 C 1568.648 1304.263,1592.377 1374.855,1586.763 1474.807 C 1583.828 1527.056,1575.015 1562.355,1555.409 1600.389 C 1525.688 1658.047,1479.310 1702.192,1414.000 1734.989 C 1391.243 1746.416,1328.482 1768.056,1301.563 1773.755 C 1289.266 1776.359,1289.100 1776.725,1286.873 1806.176 C 1283.211 1854.590,1259.753 1885.853,1219.000 1896.633 C 1183.279 1906.082,1144.366 1887.840,1124.539 1852.350 C 1117.500 1839.751,1114.548 1826.916,1113.007 1802.216 L 1110.936 1769.016 1086.468 1762.222 C 1052.568 1752.809,999.990 1727.553,970.626 1706.577 C 957.082 1696.902,931.566 1673.914,913.925 1655.493 C 840.214 1578.521,819.672 1519.141,851.162 1474.059 C 865.861 1453.016,883.741 1441.451,910.004 1435.999 C 951.929 1427.296,975.258 1441.557,1018.204 1502.142 C 1052.802 1550.950,1077.412 1573.062,1120.000 1593.602 C 1153.735 1609.872,1154.411 1610.011,1206.655 1611.384 C 1264.017 1612.892,1287.465 1608.514,1325.646 1589.166 C 1385.251 1558.962,1415.729 1506.035,1410.828 1441.239 C 1404.392 1356.138,1350.805 1313.348,1163.585 1243.814 C 1032.407 1195.094,983.868 1168.310,931.862 1115.945 C 882.708 1066.452,857.723 1010.475,853.294 939.918 C 844.647 802.163,930.962 681.996,1071.659 635.915 L 1112.000 622.703 1112.022 602.351 C 1112.078 551.698,1140.145 510.723,1179.258 504.197 C 1196.470 501.325,1231.487 505.303,1242.940 511.433 " fill="#1D1E23" stroke="none" fill-rule="evenodd"/></svg>