<svg viewBox="0 0 2400 2400" fill="none" xmlns="http://www.w3.org/2000/svg"><path d="M1112.000 203.923 C 833.630 231.768,590.463 362.388,419.326 576.000 C 147.365 915.458,126.704 1391.677,368.248 1753.288 C 676.969 2215.470,1294.618 2338.595,1756.000 2029.929 C 2215.492 1722.528,2337.727 1104.086,2029.929 644.000 C 1872.846 409.198,1631.891 256.219,1349.288 211.869 C 1290.914 202.708,1165.973 198.524,1112.000 203.923 M1288.000 561.924 L 1288.000 623.848 1299.000 626.261 C 1376.361 643.234,1443.993 683.492,1492.829 741.639 C 1519.033 772.839,1556.232 841.591,1549.969 847.246 C 1541.894 854.536,1399.936 912.433,1396.040 910.025 C 1393.818 908.651,1392.000 905.213,1392.000 902.384 C 1392.000 893.897,1362.380 851.178,1344.097 833.296 C 1299.077 789.262,1228.167 771.206,1158.350 785.996 C 1099.663 798.429,1056.863 827.154,1037.119 867.358 C 1022.273 897.589,1021.557 940.335,1035.418 968.865 C 1056.107 1011.450,1114.122 1047.802,1222.000 1085.777 C 1353.527 1132.077,1393.379 1149.679,1445.359 1184.430 C 1501.114 1221.704,1544.415 1272.122,1566.946 1326.000 C 1594.894 1392.832,1595.308 1506.671,1567.857 1576.383 C 1531.624 1668.397,1447.108 1735.561,1328.415 1766.668 L 1288.000 1777.260 1288.000 1838.630 L 1288.000 1900.000 1200.099 1900.000 L 1112.198 1900.000 1111.099 1835.234 L 1110.000 1770.468 1088.000 1763.828 C 961.244 1725.571,862.067 1628.411,819.644 1500.929 C 814.987 1486.937,811.813 1475.019,812.589 1474.446 C 813.365 1473.872,844.399 1461.191,881.554 1446.266 C 918.708 1431.340,954.883 1416.716,961.943 1413.766 L 974.778 1408.403 987.467 1441.808 C 1020.077 1527.656,1084.192 1590.607,1158.813 1610.044 C 1209.364 1623.211,1287.552 1613.805,1332.950 1589.097 C 1391.122 1557.436,1421.951 1495.715,1411.625 1431.591 C 1404.645 1388.252,1380.434 1353.196,1336.704 1323.108 C 1308.395 1303.631,1235.126 1270.772,1160.000 1243.862 C 1050.395 1204.600,997.938 1177.720,946.839 1134.633 C 905.192 1099.516,869.250 1038.796,857.591 983.859 C 849.981 948.000,851.925 886.117,861.796 850.000 C 877.806 791.424,916.198 732.025,962.097 694.817 C 991.178 671.242,1048.055 642.701,1084.834 633.226 L 1112.000 626.228 1112.000 563.114 L 1112.000 500.000 1200.000 500.000 L 1288.000 500.000 1288.000 561.924 " fill="#1D1E23" stroke="none" fill-rule="evenodd"/></svg>