<svg viewBox="0 0 2400 2400" fill="none" xmlns="http://www.w3.org/2000/svg"><path d="M1118.000 206.424 C 956.947 218.282,787.043 277.650,644.362 371.923 C 494.452 470.972,358.807 630.799,288.119 791.674 C 266.998 839.740,242.361 911.165,230.085 959.915 C 182.920 1147.222,193.856 1354.889,260.483 1537.119 C 334.478 1739.503,470.551 1912.980,650.000 2033.707 C 696.182 2064.777,800.010 2116.962,857.739 2138.120 C 908.419 2156.694,1005.333 2181.431,1062.000 2190.256 C 1129.444 2200.759,1285.600 2199.715,1350.000 2188.330 C 1565.633 2150.209,1739.801 2062.760,1894.450 1914.965 C 2167.011 1654.483,2267.301 1255.006,2149.937 897.307 C 2068.516 649.154,1906.900 452.080,1682.000 326.706 C 1573.429 266.182,1435.324 222.100,1324.000 212.437 C 1271.207 207.854,1147.583 204.246,1118.000 206.424 M1288.000 561.351 L 1288.000 622.703 1328.250 635.885 C 1372.021 650.221,1420.518 677.219,1454.220 706.012 C 1481.707 729.495,1521.473 782.216,1538.610 817.895 L 1552.008 845.791 1539.004 852.751 C 1523.519 861.039,1406.531 908.015,1401.500 907.965 C 1399.575 907.946,1391.339 897.596,1383.198 884.965 C 1343.044 822.665,1291.283 789.788,1226.218 785.256 C 1163.295 780.874,1106.157 797.488,1067.685 831.352 C 1041.926 854.026,1030.515 879.096,1028.662 917.086 C 1027.328 944.419,1028.431 950.799,1037.794 969.938 C 1057.866 1010.963,1111.281 1043.095,1243.576 1093.726 C 1387.762 1148.909,1447.054 1180.236,1493.925 1226.000 C 1563.693 1294.119,1594.583 1383.903,1584.151 1488.251 C 1579.031 1539.463,1572.025 1564.776,1552.670 1602.000 C 1535.233 1635.533,1480.986 1694.078,1446.598 1716.476 C 1421.440 1732.862,1358.758 1758.357,1315.000 1770.002 L 1288.000 1777.187 1288.000 1838.594 L 1288.000 1900.000 1200.000 1900.000 L 1112.000 1900.000 1112.000 1836.291 L 1112.000 1772.581 1079.099 1759.894 C 980.544 1721.887,919.661 1674.711,869.141 1597.207 C 837.181 1548.175,813.763 1494.484,818.713 1481.585 C 821.934 1473.190,873.372 1448.569,954.469 1416.603 L 974.746 1408.611 985.917 1437.306 C 1011.965 1504.212,1065.696 1566.579,1120.671 1593.715 C 1155.995 1611.152,1193.966 1616.581,1246.483 1611.701 C 1305.798 1606.190,1336.477 1591.614,1374.651 1550.806 C 1402.998 1520.502,1409.741 1501.673,1409.314 1454.000 C 1408.947 1412.995,1403.478 1393.706,1385.568 1370.250 C 1355.901 1331.395,1312.882 1306.909,1178.000 1252.103 C 1081.728 1212.985,1009.225 1178.563,976.976 1156.663 C 939.226 1131.027,906.316 1092.058,883.614 1046.113 C 857.812 993.892,852.560 961.191,858.764 891.384 C 863.030 843.392,863.545 841.604,885.802 797.540 C 901.313 766.833,916.078 744.341,932.465 726.457 C 966.906 688.872,1027.468 653.000,1089.000 633.739 L 1112.000 626.539 1112.000 563.270 L 1112.000 500.000 1200.000 500.000 L 1288.000 500.000 1288.000 561.351 " fill="#1D1E23" stroke="none" fill-rule="evenodd"/></svg>