<svg viewBox="0 0 2400 2400" fill="none" xmlns="http://www.w3.org/2000/svg"><path d="M1200.000 249.005 C 1200.000 392.547,1199.639 400.000,1192.695 400.000 C 1169.465 400.000,1090.839 409.983,1046.208 418.599 C 764.234 473.034,535.132 673.784,444.307 946.011 C 411.619 1043.987,397.578 1135.804,401.185 1228.000 C 403.818 1295.312,411.563 1343.529,430.158 1408.375 C 453.458 1489.631,504.975 1607.959,520.719 1616.385 C 527.592 1620.063,537.175 1612.027,599.016 1550.732 L 669.482 1480.888 656.214 1449.444 C 615.332 1352.555,606.205 1307.343,606.666 1204.000 C 607.190 1086.264,618.372 1032.080,659.963 945.744 C 691.253 880.790,723.826 835.643,779.734 779.734 C 852.491 706.977,921.416 663.248,1009.395 634.027 C 1048.368 621.083,1158.029 600.000,1186.385 600.000 L 1200.000 600.000 1200.000 750.995 L 1200.000 901.990 1400.995 700.995 L 1601.990 500.000 1400.995 299.005 L 1200.000 98.010 1200.000 249.005 M1802.471 847.529 L 1731.025 919.057 1747.139 960.529 C 1786.545 1061.947,1794.152 1102.363,1793.342 1206.000 C 1792.898 1262.928,1790.801 1295.229,1786.073 1318.000 C 1760.229 1442.463,1687.326 1567.110,1591.488 1650.692 C 1493.337 1736.292,1365.513 1789.449,1235.668 1798.666 L 1200.000 1801.198 1200.000 1651.604 L 1200.000 1502.010 1001.005 1701.005 L 802.010 1900.000 1001.005 2098.995 L 1200.000 2297.990 1200.000 2148.995 L 1200.000 2000.000 1227.000 1999.976 C 1301.516 1999.911,1441.159 1966.126,1529.004 1926.908 C 1708.650 1846.708,1855.278 1697.064,1934.013 1513.569 C 2015.512 1323.631,2020.144 1118.863,1947.440 920.000 C 1934.576 884.813,1880.937 776.000,1876.456 776.000 C 1875.059 776.000,1841.766 808.188,1802.471 847.529 " fill="#1D1E23" stroke="none" fill-rule="evenodd"/></svg>