<svg viewBox="0 0 2400 2400" fill="none" xmlns="http://www.w3.org/2000/svg"><path d="M1228.849 179.866 C 1201.975 192.210,1200.011 200.566,1199.939 302.872 C 1199.905 350.792,1198.555 392.023,1196.939 394.496 C 1195.322 396.968,1175.100 401.092,1152.000 403.658 C 1000.953 420.441,896.522 453.759,784.915 520.773 C 687.099 579.508,595.719 667.474,530.532 765.655 C 404.227 955.886,368.635 1200.052,434.219 1426.369 C 454.357 1495.862,476.390 1529.793,512.830 1547.433 C 533.614 1557.495,551.131 1558.213,578.274 1550.115 C 605.838 1541.891,625.454 1524.154,640.272 1494.054 L 652.905 1468.393 632.438 1385.197 C 605.968 1277.594,601.111 1233.510,607.204 1156.151 C 614.555 1062.810,628.211 1010.754,664.225 938.791 C 694.543 878.208,729.034 830.789,779.904 779.753 C 878.157 681.179,987.489 627.973,1136.513 606.209 C 1159.896 602.794,1183.746 600.000,1189.513 600.000 L 1200.000 600.000 1200.000 699.975 L 1200.000 799.950 1216.472 811.882 C 1240.971 829.629,1256.838 831.361,1274.125 818.176 C 1315.157 786.879,1528.319 567.977,1563.984 520.512 C 1574.612 506.367,1578.611 497.551,1577.070 491.659 C 1573.145 476.649,1320.051 217.776,1278.000 185.759 C 1260.336 172.310,1248.411 170.880,1228.849 179.866 M1813.841 851.993 C 1795.919 857.594,1769.885 881.579,1760.352 901.274 C 1749.187 924.337,1749.782 939.250,1764.261 999.218 C 1782.215 1073.577,1787.578 1103.607,1792.168 1155.492 C 1797.296 1213.446,1791.308 1293.934,1777.952 1346.586 C 1759.626 1418.830,1717.747 1503.793,1669.226 1567.169 C 1641.492 1603.393,1576.489 1665.132,1538.255 1691.564 C 1456.374 1748.168,1335.774 1790.930,1237.070 1798.358 L 1200.140 1801.137 1199.070 1699.737 L 1198.000 1598.337 1178.637 1586.369 C 1140.513 1562.803,1149.050 1557.028,995.581 1710.200 C 857.576 1847.938,824.000 1885.462,824.000 1901.956 C 824.000 1918.655,860.218 1960.906,959.657 2060.210 C 1070.753 2171.155,1127.992 2222.484,1144.707 2226.155 C 1159.662 2229.440,1179.147 2218.092,1189.858 2199.858 C 1197.287 2187.214,1198.120 2177.903,1199.367 2093.590 L 1200.733 2001.180 1244.415 1998.681 C 1346.551 1992.837,1491.662 1949.850,1588.000 1896.899 C 1704.852 1832.672,1809.949 1732.340,1880.143 1618.000 C 1958.708 1490.026,2006.294 1307.836,1998.200 1166.000 C 1992.192 1060.722,1959.729 932.436,1928.019 888.661 C 1907.097 859.779,1893.012 852.059,1857.510 850.010 C 1840.179 849.011,1820.528 849.903,1813.841 851.993 " fill="#1D1E23" stroke="none" fill-rule="evenodd"/></svg>