<svg viewBox="0 0 2400 2400" fill="none" xmlns="http://www.w3.org/2000/svg"><path d="M1230.000 176.657 C 1225.600 179.085,1217.050 185.667,1211.000 191.284 L 1200.000 201.497 1200.000 300.232 L 1200.000 398.968 1163.000 401.713 C 1004.799 413.447,876.179 455.849,757.575 535.369 C 485.648 717.687,351.642 1040.680,416.555 1357.326 C 431.500 1430.226,453.129 1493.080,472.187 1518.996 C 488.330 1540.947,522.028 1557.714,550.000 1557.714 C 593.837 1557.714,632.124 1527.689,646.519 1482.023 C 652.979 1461.530,652.900 1460.526,641.952 1423.586 C 604.115 1295.919,596.475 1241.389,604.068 1153.212 C 614.972 1026.584,653.381 928.046,730.051 830.000 C 835.260 695.457,986.796 616.226,1167.000 601.539 L 1200.000 598.850 1200.000 698.677 L 1200.000 798.503 1211.000 808.763 C 1226.668 823.377,1237.261 828.000,1255.073 828.000 C 1270.281 828.000,1274.384 824.259,1418.493 679.000 C 1510.324 586.437,1569.038 524.190,1573.506 514.661 C 1577.859 505.375,1579.712 495.397,1578.201 489.375 C 1576.745 483.574,1512.164 415.363,1423.251 325.714 C 1271.604 172.812,1270.711 172.001,1254.399 172.122 C 1245.380 172.189,1234.400 174.229,1230.000 176.657 M1815.540 849.311 C 1792.169 857.999,1776.533 871.349,1763.972 893.343 C 1745.324 925.996,1745.292 938.501,1763.709 997.021 C 1793.196 1090.712,1803.467 1170.346,1796.065 1247.881 C 1787.830 1334.135,1771.739 1392.349,1735.773 1466.000 C 1643.603 1654.748,1448.906 1784.635,1237.000 1798.743 L 1200.000 1801.207 1200.000 1701.352 L 1200.000 1601.497 1189.000 1591.237 C 1173.325 1576.617,1162.739 1572.000,1144.890 1572.000 C 1129.634 1572.000,1125.655 1575.628,981.062 1721.358 C 899.556 1803.505,829.860 1876.537,826.181 1883.650 C 815.546 1904.216,821.061 1916.175,861.882 1961.070 C 921.605 2026.753,1112.733 2214.358,1127.651 2221.941 C 1155.398 2236.043,1187.727 2222.018,1195.984 2192.297 C 1198.168 2184.434,1199.965 2137.950,1199.978 2089.000 L 1200.000 2000.000 1225.105 2000.000 C 1285.388 2000.000,1374.627 1983.345,1452.000 1957.653 C 1768.767 1852.472,1983.227 1567.737,1998.555 1232.000 C 2002.915 1136.506,1990.761 1049.805,1959.453 953.059 C 1942.128 899.522,1928.760 877.943,1900.702 858.223 C 1886.561 848.284,1879.082 846.045,1856.828 845.089 C 1841.295 844.421,1823.912 846.198,1815.540 849.311 " fill="#1D1E23" stroke="none" fill-rule="evenodd"/></svg>