<svg viewBox="0 0 2400 2400" fill="none" xmlns="http://www.w3.org/2000/svg"><path d="M1200.000 248.532 L 1200.000 399.054 1165.000 401.788 C 991.510 415.338,854.149 464.286,725.645 558.348 C 576.334 667.640,473.486 821.473,425.757 1006.898 C 376.554 1198.048,397.545 1375.260,492.532 1570.629 C 514.709 1616.242,519.937 1622.523,530.744 1616.536 C 534.735 1614.325,567.454 1582.926,603.453 1546.761 L 668.905 1481.005 648.781 1431.503 C 611.722 1340.343,601.709 1282.010,605.268 1178.000 C 608.807 1074.570,623.260 1016.520,666.739 931.109 C 696.887 871.885,730.912 825.094,778.066 778.008 C 853.019 703.164,947.125 647.861,1040.123 624.005 C 1077.197 614.494,1164.667 600.002,1185.000 600.001 L 1200.000 600.000 1200.000 750.995 L 1200.000 901.990 1400.995 700.995 L 1601.990 500.000 1400.995 299.005 L 1200.000 98.010 1200.000 248.532 M1802.570 847.429 L 1731.224 918.858 1749.818 965.333 C 1771.098 1018.521,1785.601 1072.213,1792.314 1122.656 C 1798.334 1167.896,1794.755 1284.238,1786.182 1322.000 C 1739.163 1529.092,1593.418 1695.417,1397.841 1765.177 C 1355.924 1780.129,1283.126 1795.382,1239.000 1798.460 L 1200.000 1801.181 1200.000 1651.595 L 1200.000 1502.010 1001.005 1701.005 L 802.010 1900.000 1001.005 2098.995 L 1200.000 2297.990 1200.000 2148.995 L 1200.000 2000.000 1223.795 2000.000 C 1312.725 2000.000,1459.123 1962.362,1557.098 1914.311 C 1722.692 1833.097,1863.272 1683.526,1935.225 1512.000 C 2031.480 1282.544,2018.434 1032.592,1898.742 813.000 C 1887.650 792.650,1877.527 776.000,1876.246 776.000 C 1874.965 776.000,1841.811 808.143,1802.570 847.429 " fill="#1D1E23" stroke="none" fill-rule="evenodd"/></svg>