<svg viewBox="0 0 2400 2400" fill="none" xmlns="http://www.w3.org/2000/svg"><path d="M912.000 302.534 C 906.500 303.328,885.800 305.978,866.000 308.421 C 736.078 324.456,600.604 390.372,499.972 486.516 C 401.090 580.987,339.394 695.526,311.367 836.665 C 304.181 872.853,302.387 895.316,302.475 948.000 C 302.604 1025.457,309.494 1072.022,330.388 1136.654 C 366.200 1247.431,409.291 1320.759,483.639 1397.440 C 578.650 1495.433,696.435 1559.791,833.343 1588.520 C 891.008 1600.620,1008.676 1600.788,1064.000 1588.849 C 1142.705 1571.863,1211.871 1545.442,1289.903 1502.553 L 1329.713 1480.672 1546.678 1696.052 C 1775.854 1923.553,1839.125 1982.854,1867.345 1996.599 C 1914.119 2019.382,1981.590 1983.041,1998.126 1926.160 C 2006.033 1898.959,2003.372 1877.189,1989.113 1852.429 C 1978.247 1833.562,1886.755 1738.810,1636.968 1487.740 L 1479.516 1329.479 1498.395 1297.740 C 1542.883 1222.948,1574.338 1138.163,1588.602 1054.601 C 1599.565 990.370,1597.418 870.714,1584.285 814.000 C 1537.977 614.033,1411.699 456.570,1226.450 367.796 C 1144.439 328.495,1086.431 312.591,994.000 304.065 C 950.583 300.060,931.581 299.706,912.000 302.534 M998.000 507.959 C 1102.174 517.567,1186.167 558.313,1266.066 638.000 C 1320.270 692.061,1357.002 752.283,1378.811 822.847 C 1389.251 856.626,1389.679 861.517,1389.767 948.000 C 1389.856 1035.250,1389.520 1039.088,1378.772 1073.602 C 1354.919 1150.203,1317.538 1213.259,1265.192 1265.194 C 1211.623 1318.341,1157.938 1350.878,1074.819 1380.573 L 1031.638 1396.000 950.605 1396.000 L 869.572 1396.000 828.886 1382.298 C 728.845 1348.608,650.969 1293.846,590.307 1214.530 C 512.337 1112.583,485.433 965.499,519.971 830.000 C 548.423 718.374,639.294 608.301,750.074 551.272 C 829.359 510.456,896.986 498.642,998.000 507.959 " fill="#1D1E23" stroke="none" fill-rule="evenodd"/></svg>