<svg viewBox="0 0 2400 2400" fill="none" xmlns="http://www.w3.org/2000/svg"><path d="M880.000 304.433 C 660.187 329.310,466.929 464.471,368.738 662.000 C 208.563 984.222,339.145 1369.759,663.447 1532.110 C 712.273 1556.554,786.001 1581.557,834.000 1589.950 C 886.828 1599.187,974.933 1602.121,1022.238 1596.217 C 1111.483 1585.080,1208.125 1551.738,1285.500 1505.390 L 1329.001 1479.334 1567.500 1716.889 C 1805.988 1954.433,1838.109 1984.917,1863.608 1997.904 C 1880.919 2006.720,1923.413 2004.802,1945.282 1994.218 C 1989.287 1972.919,2012.040 1922.190,2000.035 1872.148 C 1995.521 1853.328,1989.677 1845.803,1936.791 1790.706 C 1904.742 1757.318,1788.664 1639.804,1678.839 1529.564 L 1479.157 1329.127 1503.329 1289.111 C 1545.910 1218.618,1579.693 1127.790,1592.409 1049.611 C 1595.237 1032.225,1597.636 985.600,1597.740 946.000 C 1597.953 864.892,1593.130 832.422,1569.513 756.000 C 1479.292 464.047,1183.180 270.121,880.000 304.433 M992.890 503.990 C 1047.192 509.273,1091.249 521.312,1138.521 543.786 C 1224.722 584.768,1286.988 640.616,1335.261 720.246 C 1424.616 867.644,1418.388 1059.117,1319.503 1204.732 C 1260.961 1290.939,1164.050 1358.155,1056.678 1387.023 C 1022.184 1396.297,1010.644 1397.422,950.000 1397.422 C 889.515 1397.422,877.768 1396.284,843.705 1387.120 C 761.041 1364.883,700.689 1331.490,642.331 1275.699 C 548.770 1186.254,502.761 1078.754,502.934 950.000 C 503.040 871.239,515.479 816.434,548.107 750.960 C 606.037 634.718,713.353 547.314,836.874 515.777 C 892.885 501.476,934.631 498.322,992.890 503.990 " fill="#1D1E23" stroke="none" fill-rule="evenodd"/></svg>