<svg viewBox="0 0 2400 2400" fill="none" xmlns="http://www.w3.org/2000/svg"><path d="M876.000 304.426 C 626.306 332.630,411.950 507.657,332.486 748.218 C 289.779 877.503,289.760 1022.555,332.432 1152.460 C 404.875 1372.997,592.416 1539.800,822.000 1587.892 C 874.167 1598.820,969.136 1602.809,1022.331 1596.308 C 1122.804 1584.029,1226.183 1546.470,1306.752 1492.975 L 1328.507 1478.531 1583.254 1733.125 C 1861.943 2011.648,1853.943 2004.800,1900.623 2004.800 C 1945.388 2004.800,1984.442 1976.820,1998.421 1934.733 C 2006.357 1910.839,2004.496 1876.453,1994.052 1854.000 C 1989.003 1843.146,1904.961 1756.077,1732.752 1583.290 L 1478.895 1328.580 1497.746 1299.290 C 1538.537 1235.913,1572.706 1150.434,1588.359 1072.605 C 1598.712 1021.129,1602.509 928.494,1596.348 877.690 C 1583.807 774.278,1551.497 684.009,1496.953 600.000 C 1360.651 390.067,1122.290 276.607,876.000 304.426 M1017.214 505.958 C 1253.447 541.565,1421.047 756.630,1397.012 993.314 C 1365.007 1308.483,1030.104 1493.471,748.000 1351.803 C 641.926 1298.534,561.943 1205.891,523.841 1092.162 C 501.207 1024.605,495.194 954.200,505.958 882.786 C 542.962 637.287,771.409 468.908,1017.214 505.958 " fill="#1D1E23" stroke="none" fill-rule="evenodd"/></svg>