<svg viewBox="0 0 2400 2400" fill="none" xmlns="http://www.w3.org/2000/svg"><path d="M874.000 308.515 C 733.884 318.262,568.805 405.190,464.895 523.942 C 357.808 646.327,303.114 788.730,302.792 946.000 C 302.464 1106.719,351.691 1240.837,457.112 1366.440 C 547.989 1474.713,650.502 1537.936,810.517 1584.394 L 854.000 1597.018 958.000 1594.887 L 1062.000 1592.755 1108.706 1578.453 C 1185.348 1554.984,1248.471 1527.918,1301.535 1495.771 L 1329.070 1479.091 1614.533 1764.533 L 1899.997 2049.976 1974.987 1974.987 L 2049.976 1899.997 1764.433 1614.433 L 1478.890 1328.869 1497.296 1299.338 C 1552.267 1211.140,1587.504 1101.452,1595.700 993.014 C 1606.396 851.507,1570.749 718.263,1488.951 594.000 C 1452.785 539.060,1365.206 451.429,1310.000 414.945 C 1263.733 384.368,1183.829 344.855,1138.841 330.306 C 1080.347 311.390,966.884 302.054,874.000 308.515 M1026.000 512.252 C 1067.337 517.424,1106.580 529.170,1141.828 546.920 C 1273.576 613.265,1359.692 724.692,1386.661 863.716 C 1395.410 908.817,1395.416 999.383,1386.672 1038.554 C 1371.275 1107.524,1334.710 1184.322,1292.140 1237.097 C 1199.849 1351.511,1035.863 1416.400,894.000 1394.641 C 788.961 1378.530,701.707 1333.932,630.294 1259.852 C 579.759 1207.430,548.268 1155.547,522.887 1082.890 L 510.000 1046.000 510.029 950.000 L 510.058 854.000 522.916 817.110 C 564.850 696.797,646.841 602.660,758.128 547.052 C 838.379 506.952,909.645 497.694,1026.000 512.252 " fill="#1D1E23" stroke="none" fill-rule="evenodd"/></svg>