<svg viewBox="0 0 2400 2400" fill="none" xmlns="http://www.w3.org/2000/svg"><path d="M750.000 299.785 L 302.000 499.404 302.485 818.702 C 302.756 997.558,304.881 1168.203,307.316 1206.666 C 321.649 1433.067,427.710 1697.052,582.327 1891.167 C 623.449 1942.794,727.749 2046.728,780.000 2088.147 C 876.955 2165.003,1010.514 2238.798,1116.000 2273.798 C 1193.496 2299.511,1203.802 2300.089,1260.000 2281.877 C 1387.955 2240.411,1506.765 2176.812,1614.711 2092.000 C 1670.259 2048.357,1777.367 1942.002,1820.157 1888.000 C 1923.091 1758.094,2007.078 1591.784,2053.470 1426.000 C 2093.623 1282.510,2097.068 1234.623,2097.603 812.568 L 2098.000 499.135 1648.000 299.591 C 1400.500 189.841,1198.000 100.073,1198.000 100.106 C 1198.000 100.139,996.400 189.995,750.000 299.785 M1732.018 830.018 L 1801.950 900.035 1401.981 1300.019 L 1002.012 1700.003 802.030 1500.020 L 602.048 1300.038 671.991 1230.009 L 741.934 1159.980 870.977 1288.977 L 1000.020 1417.974 1329.007 1088.987 C 1509.950 908.044,1658.915 760.000,1660.040 760.000 C 1661.165 760.000,1693.555 791.508,1732.018 830.018 " fill="#1D1E23" stroke="none" fill-rule="evenodd"/></svg>