<svg viewBox="0 0 2400 2400" fill="none" xmlns="http://www.w3.org/2000/svg"><path d="M1120.000 139.618 C 998.169 189.241,496.649 411.652,418.000 450.937 C 364.723 477.548,327.671 517.958,311.232 567.382 C 302.530 593.545,302.353 598.408,300.891 852.000 C 299.021 1176.540,302.922 1244.890,330.274 1366.845 C 412.561 1733.739,658.985 2056.895,978.884 2217.425 C 1051.703 2253.967,1169.988 2296.000,1200.000 2296.000 C 1233.072 2296.000,1347.002 2254.455,1429.953 2212.146 C 1751.993 2047.891,1998.898 1715.704,2073.780 1345.936 C 2097.118 1230.692,2097.732 1219.280,2097.872 898.000 C 2097.992 621.032,2097.519 600.257,2090.525 574.885 C 2076.005 522.217,2041.196 481.973,1984.861 452.723 C 1925.637 421.973,1352.835 167.547,1275.151 137.486 C 1243.593 125.274,1236.415 124.007,1199.151 124.070 C 1160.667 124.136,1155.537 125.144,1120.000 139.618 M1704.470 815.171 C 1716.748 821.585,1731.421 833.641,1738.927 843.482 C 1751.668 860.187,1752.000 861.633,1752.000 900.449 L 1752.000 940.275 1565.000 1130.792 C 1387.297 1311.838,1077.732 1618.496,1048.237 1642.704 C 1035.636 1653.047,1031.726 1654.000,1001.911 1654.000 C 972.296 1654.000,967.757 1652.913,951.791 1642.000 C 928.823 1626.300,673.565 1371.104,658.000 1348.281 C 647.236 1332.497,646.010 1327.558,646.093 1300.342 C 646.164 1276.984,648.195 1266.203,654.917 1253.503 C 664.775 1234.879,683.787 1217.391,702.872 1209.394 C 719.475 1202.436,760.570 1202.459,777.267 1209.436 C 792.292 1215.714,833.856 1253.630,930.885 1349.572 L 999.770 1417.685 1294.941 1123.353 C 1457.285 961.470,1598.989 823.391,1609.839 816.511 C 1626.871 805.709,1633.222 804.000,1656.326 804.000 C 1677.847 804.000,1687.273 806.187,1704.470 815.171 " fill="#1D1E23" stroke="none" fill-rule="evenodd"/></svg>