<svg viewBox="0 0 2400 2400" fill="none" xmlns="http://www.w3.org/2000/svg"><path d="M1162.000 128.121 C 1135.918 132.119,966.285 203.850,666.000 337.861 C 424.252 445.748,389.701 463.568,355.830 497.832 C 331.406 522.539,322.525 536.829,311.560 569.060 C 303.481 592.807,302.984 603.473,301.168 792.000 C 298.643 1054.056,304.167 1226.791,317.413 1300.000 C 365.589 1566.267,483.054 1796.117,667.679 1985.385 C 751.461 2071.275,837.710 2138.145,938.000 2194.971 C 1003.485 2232.076,1102.331 2272.864,1165.524 2288.857 C 1193.183 2295.856,1200.050 2296.248,1221.524 2292.047 C 1262.038 2284.123,1341.928 2253.486,1414.000 2218.233 C 1529.753 2161.615,1620.446 2095.985,1718.084 1998.180 C 1895.713 1820.249,2002.384 1631.175,2063.857 1385.300 C 2087.701 1289.934,2092.321 1251.642,2096.111 1118.000 C 2100.394 966.984,2100.549 710.978,2096.405 632.000 C 2093.538 577.367,2092.604 572.511,2080.298 548.356 C 2065.181 518.681,2035.361 485.557,2007.896 467.933 C 1974.838 446.720,1782.918 358.784,1478.000 225.139 C 1268.845 133.466,1258.247 129.498,1216.000 127.036 C 1197.300 125.946,1173.000 126.434,1162.000 128.121 M1686.690 809.981 C 1712.843 817.748,1742.358 843.444,1747.853 863.230 C 1750.109 871.354,1751.965 892.443,1751.978 910.095 L 1752.000 942.191 1399.000 1294.612 C 1204.850 1488.443,1041.751 1649.220,1036.558 1651.894 C 1030.001 1655.270,1017.475 1655.901,995.556 1653.961 L 963.996 1651.167 894.998 1586.137 C 789.109 1486.338,660.471 1354.105,653.843 1338.241 C 647.287 1322.550,646.033 1277.694,651.732 1262.705 C 662.378 1234.705,697.756 1209.310,731.723 1205.287 C 772.736 1200.430,791.935 1213.968,917.312 1336.155 L 1000.624 1417.348 1211.312 1207.322 C 1503.588 915.965,1600.417 822.609,1620.805 812.517 C 1641.084 802.480,1659.095 801.787,1686.690 809.981 " fill="#1D1E23" stroke="none" fill-rule="evenodd"/></svg>