<svg viewBox="0 0 2400 2400" fill="none" xmlns="http://www.w3.org/2000/svg"><path d="M750.000 299.737 L 302.000 499.245 300.891 722.622 C 299.578 987.026,305.291 1234.637,313.843 1284.000 C 372.994 1625.437,546.314 1914.202,811.303 2112.810 C 915.022 2190.547,1068.802 2266.961,1165.863 2288.991 C 1203.836 2297.611,1204.572 2297.626,1233.128 2290.404 C 1297.772 2274.055,1427.905 2216.802,1501.400 2172.378 C 1572.866 2129.179,1659.753 2059.397,1731.523 1987.559 C 1913.028 1805.878,2034.801 1566.388,2084.174 1294.000 C 2094.696 1235.951,2100.671 1002.714,2099.122 710.501 L 2098.000 499.002 1648.118 299.501 C 1400.682 189.775,1198.182 100.052,1198.118 100.115 C 1198.053 100.178,996.400 190.008,750.000 299.737 M1732.018 830.018 L 1801.950 900.035 1401.981 1300.019 L 1002.012 1700.003 802.030 1500.020 L 602.048 1300.038 671.991 1230.009 L 741.934 1159.980 870.977 1288.977 L 1000.020 1417.974 1329.007 1088.987 C 1509.950 908.044,1658.915 760.000,1660.040 760.000 C 1661.165 760.000,1693.555 791.508,1732.018 830.018 " fill="#1D1E23" stroke="none" fill-rule="evenodd"/></svg>