<svg viewBox="0 0 2400 2400" fill="none" xmlns="http://www.w3.org/2000/svg"><path d="M1154.000 127.554 C 1120.796 136.454,632.236 350.347,450.632 435.490 C 366.254 475.050,328.259 512.300,309.354 574.000 C 302.502 596.363,302.000 617.923,302.000 890.000 C 302.000 1105.471,303.388 1194.580,307.296 1230.000 C 324.980 1390.277,379.174 1560.702,458.023 1704.000 C 603.250 1967.929,835.583 2173.666,1092.000 2265.403 C 1193.203 2301.610,1201.816 2302.101,1277.545 2275.989 C 1454.652 2214.920,1595.023 2125.458,1730.299 1987.440 C 1854.142 1861.086,1943.520 1724.741,2007.877 1564.000 C 2047.183 1465.827,2082.277 1328.763,2091.859 1236.000 C 2097.859 1177.910,2101.605 755.803,2096.994 657.345 L 2093.216 576.691 2078.888 546.520 C 2062.910 512.874,2040.155 487.676,2006.045 465.856 C 1975.515 446.326,1735.666 337.289,1428.000 203.071 C 1245.745 123.564,1256.115 127.212,1208.000 125.677 C 1184.900 124.941,1160.600 125.785,1154.000 127.554 M1698.000 813.433 C 1719.639 823.554,1742.614 844.449,1748.389 859.260 C 1750.375 864.354,1752.000 885.342,1752.000 905.902 L 1752.000 943.284 1421.000 1274.750 C 1238.950 1457.057,1077.711 1616.860,1062.690 1629.869 L 1035.380 1653.521 1006.690 1653.760 C 990.911 1653.892,972.675 1652.521,966.166 1650.714 C 953.225 1647.122,686.185 1384.675,661.678 1351.464 C 648.633 1333.786,648.000 1331.354,648.000 1298.916 C 648.000 1267.200,648.878 1263.591,661.000 1245.452 C 685.654 1208.561,738.290 1193.295,778.000 1211.518 C 795.907 1219.735,838.955 1258.708,935.016 1353.670 L 1000.033 1417.942 1231.016 1187.742 C 1524.079 895.673,1602.597 819.644,1620.022 811.064 C 1640.393 801.035,1673.653 802.045,1698.000 813.433 " fill="#1D1E23" stroke="none" fill-rule="evenodd"/></svg>