<svg viewBox="0 0 2400 2400" fill="none" xmlns="http://www.w3.org/2000/svg"><path d="M1160.770 124.005 C 1137.303 128.985,821.856 266.558,502.989 410.878 C 395.908 459.343,388.631 463.326,362.979 487.522 C 328.795 519.765,309.667 556.294,304.081 600.000 C 299.035 639.487,299.004 1113.520,304.043 1188.000 C 328.160 1544.474,518.812 1894.798,806.000 2110.351 C 863.112 2153.217,909.269 2181.951,973.401 2214.562 C 1053.755 2255.421,1166.665 2296.000,1200.000 2296.000 C 1234.578 2296.000,1348.458 2254.568,1432.845 2211.285 C 1678.129 2085.478,1884.188 1858.690,1999.161 1588.000 C 2052.761 1461.805,2087.037 1319.360,2095.892 1186.000 C 2100.993 1109.186,2100.990 639.528,2095.888 600.219 C 2087.414 534.923,2046.394 480.801,1982.000 449.954 C 1899.256 410.318,1448.144 210.022,1306.095 149.850 C 1250.009 126.092,1241.065 123.469,1211.090 121.986 C 1192.891 121.086,1170.246 121.994,1160.770 124.005 M1701.535 812.245 C 1721.842 822.723,1733.879 833.651,1745.250 851.932 C 1752.481 863.558,1754.000 871.971,1754.000 900.398 L 1754.000 934.796 1734.172 958.398 C 1723.267 971.379,1565.729 1130.870,1384.088 1312.822 C 1141.987 1555.336,1049.628 1645.399,1038.087 1650.222 C 1017.318 1658.899,980.985 1658.670,961.447 1649.737 C 940.419 1640.123,658.108 1358.022,649.932 1338.454 C 646.669 1330.645,644.040 1312.949,644.088 1299.128 C 644.229 1258.695,661.853 1229.769,697.948 1210.727 C 718.743 1199.756,759.281 1199.319,781.221 1209.830 C 789.825 1213.951,840.814 1260.662,898.502 1317.270 L 1000.562 1417.418 1303.281 1114.980 C 1584.586 833.936,1607.415 812.102,1626.000 806.325 C 1650.788 798.619,1679.486 800.869,1701.535 812.245 " fill="#1D1E23" stroke="none" fill-rule="evenodd"/></svg>