<svg viewBox="0 0 2400 2400" fill="none" xmlns="http://www.w3.org/2000/svg"><path d="M750.000 299.753 L 302.000 499.063 300.815 802.532 C 299.570 1121.492,302.349 1212.361,315.844 1294.000 C 381.471 1691.004,631.130 2040.520,973.401 2214.562 C 1053.755 2255.421,1166.665 2296.000,1200.000 2296.000 C 1253.505 2296.000,1429.646 2221.140,1528.916 2156.210 C 1621.889 2095.399,1729.154 1999.957,1798.883 1916.000 C 1975.540 1703.297,2080.744 1441.551,2096.269 1176.111 C 2098.635 1135.657,2099.868 977.634,2099.185 802.532 L 2098.000 499.064 1648.907 299.532 C 1401.907 189.789,1199.407 100.100,1198.907 100.221 C 1198.408 100.343,996.400 190.132,750.000 299.753 M1732.018 830.018 L 1801.950 900.035 1401.981 1300.019 L 1002.012 1700.003 802.030 1500.020 L 602.048 1300.038 671.991 1230.009 L 741.934 1159.980 870.977 1288.977 L 1000.020 1417.974 1329.007 1088.987 C 1509.950 908.044,1658.915 760.000,1660.040 760.000 C 1661.165 760.000,1693.555 791.508,1732.018 830.018 " fill="#1D1E23" stroke="none" fill-rule="evenodd"/></svg>