<svg viewBox="0 0 2400 2400" fill="none" xmlns="http://www.w3.org/2000/svg"><path d="M750.000 299.754 L 302.000 499.096 300.768 818.548 C 299.485 1151.073,301.232 1204.384,316.476 1298.000 C 382.939 1706.143,655.329 2072.010,1014.000 2234.894 C 1078.392 2264.137,1177.103 2297.206,1200.000 2297.206 C 1222.897 2297.206,1321.608 2264.137,1386.000 2234.894 C 1744.444 2072.113,2017.076 1705.920,2083.521 1298.000 C 2098.768 1204.398,2100.515 1151.086,2099.232 818.548 L 2098.000 499.096 1650.000 299.754 C 1403.600 190.115,1201.100 100.411,1200.000 100.411 C 1198.900 100.411,996.400 190.115,750.000 299.754 M1732.014 830.128 L 1801.728 900.257 1401.870 1300.130 L 1002.012 1700.003 802.030 1500.020 L 602.048 1300.038 671.991 1230.009 L 741.934 1159.980 870.977 1288.977 L 1000.020 1417.974 1329.007 1088.987 C 1509.950 908.044,1658.963 760.000,1660.146 760.000 C 1661.330 760.000,1693.671 791.558,1732.014 830.128 " fill="#1D1E23" stroke="none" fill-rule="evenodd"/></svg>