<svg viewBox="0 0 2400 2400" fill="none" xmlns="http://www.w3.org/2000/svg"><path d="M1149.481 126.058 C 1124.436 132.810,414.238 447.962,390.977 462.646 C 366.385 478.170,339.493 507.538,325.042 534.651 C 299.680 582.235,299.999 577.837,300.014 879.840 C 300.028 1159.355,301.816 1205.020,316.314 1296.000 C 381.314 1703.888,654.625 2071.690,1014.000 2234.894 C 1078.392 2264.137,1177.103 2297.206,1200.000 2297.206 C 1222.897 2297.206,1321.608 2264.137,1386.000 2234.894 C 1745.145 2071.794,2018.702 1703.660,2083.683 1296.000 C 2098.183 1205.033,2099.972 1159.367,2099.986 879.840 C 2100.001 577.837,2100.320 582.235,2074.958 534.651 C 2060.507 507.538,2033.615 478.170,2009.023 462.646 C 1983.944 446.814,1274.697 132.601,1248.836 125.865 C 1221.033 118.623,1176.740 118.709,1149.481 126.058 M1698.000 809.549 C 1721.538 820.696,1741.142 840.120,1749.797 860.872 C 1757.743 879.922,1757.768 919.986,1749.845 939.128 C 1745.526 949.565,1641.452 1056.364,1400.845 1297.266 C 1212.280 1486.062,1053.140 1643.112,1047.200 1646.265 C 1024.425 1658.356,997.934 1661.123,973.094 1654.006 C 950.573 1647.553,946.392 1643.796,804.708 1502.694 C 721.227 1419.557,655.831 1351.193,650.987 1342.000 C 644.964 1330.567,642.533 1318.579,642.469 1300.000 C 642.262 1240.058,691.172 1195.080,749.963 1201.148 C 761.588 1202.347,777.152 1206.382,784.550 1210.113 C 791.947 1213.845,843.465 1262.114,899.034 1317.379 L 1000.069 1417.860 1303.096 1114.930 C 1469.761 948.318,1606.996 811.973,1608.062 811.940 C 1609.128 811.907,1617.200 809.286,1626.000 806.115 C 1649.923 797.497,1675.082 798.697,1698.000 809.549 " fill="#1D1E23" stroke="none" fill-rule="evenodd"/></svg>