<svg viewBox="0 0 2400 2400" fill="none" xmlns="http://www.w3.org/2000/svg"><path d="M987.974 203.668 C 960.463 212.227,935.185 233.516,922.398 258.897 C 918.353 266.928,910.639 313.716,901.955 382.897 C 894.285 444.004,887.021 499.870,885.815 507.045 C 883.908 518.378,880.102 521.883,856.810 533.751 C 842.065 541.264,815.813 556.242,798.472 567.036 L 766.945 586.662 654.472 538.611 C 547.146 492.759,540.719 490.553,514.000 490.399 C 482.841 490.219,462.441 498.376,443.098 518.750 C 437.103 525.065,387.229 608.254,332.269 703.613 C 227.606 885.209,224.199 892.713,229.713 929.481 C 234.866 963.845,248.525 978.004,353.006 1057.287 L 450.749 1131.455 450.791 1200.728 L 450.833 1270.000 351.522 1345.108 C 242.533 1427.535,233.322 1437.460,229.290 1476.811 C 228.096 1488.465,229.077 1505.243,231.470 1514.095 C 237.150 1535.106,428.649 1866.152,444.716 1882.734 C 451.502 1889.738,466.148 1899.380,477.262 1904.162 C 512.371 1919.265,527.055 1915.713,654.605 1861.263 L 767.211 1813.192 794.605 1830.943 C 809.672 1840.707,835.864 1855.715,852.809 1864.296 C 880.117 1878.124,883.868 1881.380,885.814 1892.949 C 887.021 1900.127,894.281 1955.972,901.948 2017.049 C 912.186 2098.609,917.982 2132.204,923.776 2143.562 C 934.110 2163.817,963.488 2189.382,983.227 2195.296 C 994.377 2198.636,1057.928 2199.989,1202.464 2199.961 L 1406.000 2199.922 1426.222 2190.505 C 1449.432 2179.698,1474.184 2152.989,1480.487 2131.952 C 1482.862 2124.026,1491.411 2064.562,1499.487 1999.809 L 1514.169 1882.076 1549.176 1863.125 C 1568.430 1852.701,1594.555 1837.131,1607.230 1828.523 L 1630.277 1812.872 1744.138 1861.436 C 1853.433 1908.052,1859.123 1910.000,1886.000 1910.000 C 1909.397 1910.000,1917.101 1908.177,1932.864 1898.911 C 1943.240 1892.812,1956.125 1882.012,1961.497 1874.911 C 1980.381 1849.951,2161.329 1533.790,2166.912 1516.000 C 2177.863 1481.102,2166.724 1443.256,2137.339 1415.524 C 2128.903 1407.563,2083.300 1371.816,2036.000 1336.086 L 1950.000 1271.124 1949.600 1200.562 L 1949.201 1130.000 2048.428 1055.007 C 2157.392 972.655,2166.666 962.657,2170.710 923.189 C 2171.904 911.535,2170.923 894.757,2168.530 885.905 C 2163.242 866.343,1972.084 534.742,1956.836 518.682 C 1937.559 498.376,1917.130 490.220,1886.000 490.399 C 1859.281 490.553,1852.854 492.759,1745.528 538.611 L 1633.055 586.662 1601.528 567.036 C 1584.187 556.242,1557.935 541.264,1543.190 533.751 C 1519.898 521.883,1516.092 518.378,1514.185 507.045 C 1512.979 499.870,1505.715 444.004,1498.045 382.897 C 1489.361 313.716,1481.647 266.928,1477.602 258.897 C 1468.460 240.750,1448.776 220.800,1430.000 210.649 C 1414.237 202.128,1410.916 201.989,1206.000 201.275 C 1091.600 200.876,993.488 201.953,987.974 203.668 M1294.000 861.569 C 1323.064 869.608,1377.131 894.923,1403.038 912.623 C 1451.521 945.747,1492.128 994.336,1519.758 1052.286 C 1545.336 1105.935,1550.000 1128.714,1550.000 1200.000 C 1550.000 1271.286,1545.336 1294.065,1519.758 1347.714 C 1498.962 1391.330,1475.143 1424.401,1442.591 1454.852 C 1324.153 1565.645,1143.530 1581.032,1011.300 1491.593 C 956.792 1454.724,917.182 1408.412,888.242 1347.714 C 862.664 1294.065,858.000 1271.286,858.000 1200.000 C 858.000 1128.714,862.664 1105.935,888.242 1052.286 C 936.617 950.824,1021.291 883.161,1132.000 857.500 C 1162.786 850.364,1262.549 852.869,1294.000 861.569 " fill="#1D1E23" stroke="none" fill-rule="evenodd"/></svg>