<svg viewBox="0 0 2400 2400" fill="none" xmlns="http://www.w3.org/2000/svg"><path d="M1025.594 207.484 C 971.389 210.086,970.538 210.349,946.634 231.800 C 922.795 253.192,916.794 274.952,895.835 416.000 C 889.133 461.100,882.628 502.070,881.380 507.044 C 878.736 517.580,870.872 523.512,811.319 559.893 L 767.162 586.869 683.891 551.768 C 568.266 503.028,544.061 495.155,509.696 495.111 C 479.408 495.072,463.991 500.586,449.555 516.620 C 429.171 539.261,357.189 656.652,292.609 772.577 C 218.659 905.319,214.433 927.147,254.138 971.309 C 272.952 992.234,340.771 1048.478,411.000 1101.398 L 452.000 1132.292 452.000 1201.375 L 452.000 1270.457 425.053 1290.229 C 368.355 1331.828,288.918 1395.839,263.442 1420.456 C 230.956 1451.848,224.109 1469.097,231.472 1500.996 C 239.127 1534.157,282.502 1615.253,373.211 1766.000 C 442.225 1880.694,452.806 1893.583,488.189 1906.067 C 502.865 1911.245,507.969 1911.254,529.999 1906.145 C 557.416 1899.787,637.364 1869.286,716.369 1835.044 L 766.737 1813.214 819.802 1845.878 C 848.987 1863.843,874.496 1881.454,876.488 1885.014 C 881.088 1893.233,884.945 1913.748,900.216 2011.193 C 921.012 2143.906,928.933 2164.245,968.291 2186.000 L 990.000 2198.000 1138.000 2199.164 C 1219.400 2199.805,1316.715 2198.850,1354.255 2197.043 L 1422.509 2193.757 1441.474 2178.217 C 1469.783 2155.020,1478.293 2137.277,1487.622 2082.000 C 1497.975 2020.655,1512.000 1914.909,1512.000 1898.194 C 1512.000 1885.856,1514.378 1883.929,1569.000 1851.982 C 1600.350 1833.646,1627.330 1817.955,1628.955 1817.114 C 1630.580 1816.272,1667.480 1830.246,1710.955 1848.166 C 1811.859 1889.758,1866.216 1908.000,1889.246 1908.000 C 1939.859 1908.000,1959.170 1884.725,2071.780 1688.000 C 2159.872 1534.109,2166.000 1520.990,2166.000 1486.302 C 2166.000 1461.605,2164.507 1455.798,2154.279 1440.714 C 2140.530 1420.436,2097.569 1383.719,2013.013 1319.975 L 1952.025 1274.000 1952.013 1231.604 C 1952.006 1208.285,1953.166 1175.413,1954.591 1158.553 L 1957.182 1127.899 2015.591 1081.238 C 2137.708 983.682,2164.437 957.058,2169.992 927.447 C 2175.643 897.328,2158.460 859.718,2066.077 700.000 C 1993.712 574.890,1960.115 523.546,1941.147 509.078 C 1928.666 499.558,1922.157 497.797,1894.869 496.556 C 1855.565 494.770,1832.409 501.921,1716.000 551.800 L 1634.000 586.935 1616.000 576.865 C 1606.100 571.326,1581.450 556.145,1561.222 543.130 C 1532.656 524.749,1523.520 516.622,1520.307 506.732 C 1518.032 499.730,1509.891 454.034,1502.216 405.187 C 1479.423 260.119,1471.756 237.502,1438.894 218.385 L 1422.000 208.557 1250.000 206.762 C 1155.400 205.775,1054.417 206.099,1025.594 207.484 M1274.000 862.182 C 1302.865 866.762,1318.770 872.270,1354.252 889.972 C 1438.494 932.001,1489.391 987.032,1532.137 1082.305 L 1544.000 1108.746 1544.000 1200.611 L 1544.000 1292.477 1528.309 1325.238 C 1497.039 1390.526,1455.773 1444.335,1410.881 1478.358 C 1379.557 1502.098,1322.057 1529.712,1285.814 1538.421 C 1246.489 1547.871,1151.323 1547.829,1116.231 1538.346 C 1015.349 1511.085,932.885 1436.837,880.107 1325.747 L 864.000 1291.845 864.094 1198.923 L 864.188 1106.000 887.201 1062.000 C 918.772 1001.638,936.212 976.460,965.301 949.250 C 1014.920 902.836,1069.224 874.547,1136.000 860.329 C 1177.638 851.462,1209.100 851.885,1274.000 862.182 " fill="#1D1E23" stroke="none" fill-rule="evenodd"/></svg>