<svg viewBox="0 0 2400 2400" fill="none" xmlns="http://www.w3.org/2000/svg"><path d="M1006.322 203.498 C 959.926 205.933,958.560 206.269,955.487 216.000 C 953.750 221.500,944.161 282.700,934.177 352.000 C 924.193 421.300,914.256 484.300,912.094 492.000 C 907.839 507.157,905.794 508.786,858.000 535.112 C 840.400 544.806,807.366 564.543,784.591 578.970 L 743.181 605.203 606.591 550.736 C 531.466 520.779,467.000 495.174,463.333 493.834 C 455.915 491.125,425.345 540.577,300.033 758.000 C 261.993 824.000,226.562 885.464,221.297 894.587 L 211.724 911.174 312.862 990.446 C 368.488 1034.045,422.550 1077.677,433.000 1087.406 L 452.000 1105.095 452.000 1204.179 L 452.000 1303.263 389.000 1352.611 C 316.401 1409.478,237.375 1474.944,226.572 1487.170 C 219.233 1495.475,219.722 1496.601,267.626 1581.662 C 323.218 1680.374,422.991 1851.987,442.819 1883.000 C 450.204 1894.550,458.441 1903.991,461.123 1903.981 C 467.399 1903.955,513.126 1886.791,641.402 1836.309 L 744.804 1795.616 789.402 1823.354 C 813.931 1838.610,850.200 1860.015,870.000 1870.921 C 891.651 1882.846,907.835 1894.586,910.603 1900.375 C 913.134 1905.669,924.419 1973.785,935.680 2051.744 C 946.941 2129.703,957.168 2194.503,958.408 2195.744 C 959.648 2196.985,1069.297 2198.491,1202.073 2199.091 L 1443.483 2200.181 1445.798 2183.091 C 1453.160 2128.760,1484.743 1916.611,1486.559 1909.294 C 1489.631 1896.915,1495.567 1892.520,1555.849 1857.990 C 1585.466 1841.025,1619.995 1820.152,1632.581 1811.605 L 1655.465 1796.065 1762.732 1838.522 C 1821.730 1861.873,1886.676 1887.036,1907.059 1894.439 L 1944.117 1907.899 1961.312 1880.949 C 1995.218 1827.805,2149.895 1556.863,2171.057 1513.544 L 2182.000 1491.145 2166.000 1477.099 C 2157.200 1469.373,2114.900 1435.055,2072.000 1400.835 C 2029.100 1366.615,1983.650 1329.750,1971.000 1318.913 L 1948.000 1299.208 1948.000 1200.393 L 1948.000 1101.578 2059.000 1013.217 C 2120.050 964.618,2173.243 921.269,2177.207 916.885 C 2184.212 909.137,2183.802 907.749,2162.572 867.266 C 2124.701 795.053,1951.422 498.587,1944.634 494.392 C 1942.966 493.361,1878.263 517.739,1800.851 548.565 L 1660.101 604.613 1616.862 577.307 C 1593.081 562.288,1555.230 540.100,1532.748 528.000 C 1506.111 513.663,1491.204 503.213,1489.953 498.000 C 1488.897 493.600,1479.935 436.900,1470.038 372.000 C 1460.140 307.100,1450.040 242.750,1447.593 229.000 L 1443.145 204.000 1346.573 203.991 C 1293.458 203.987,1205.900 203.311,1152.000 202.489 C 1098.100 201.668,1032.545 202.122,1006.322 203.498 M1234.000 856.178 C 1289.853 860.944,1309.071 866.389,1357.516 891.173 C 1434.218 930.414,1477.910 977.128,1520.245 1065.160 L 1539.885 1106.000 1539.885 1200.000 L 1539.885 1294.000 1519.912 1335.535 C 1495.285 1386.748,1473.087 1418.164,1437.446 1452.245 C 1391.188 1496.480,1351.925 1518.884,1289.154 1536.863 C 1243.643 1549.899,1151.617 1549.946,1106.803 1536.958 C 1047.440 1519.753,998.251 1489.735,953.576 1443.449 C 920.637 1409.323,901.641 1380.979,877.373 1329.749 L 860.000 1293.074 860.000 1199.366 L 860.000 1105.658 883.811 1057.829 C 913.372 998.452,940.959 961.692,978.120 932.161 C 1040.019 882.972,1101.812 858.603,1180.000 852.547 C 1183.300 852.292,1207.600 853.926,1234.000 856.178 " fill="#1D1E23" stroke="none" fill-rule="evenodd"/></svg>