<svg viewBox="0 0 2400 2400" fill="none" xmlns="http://www.w3.org/2000/svg"><path d="M956.016 203.000 C 956.043 208.109,915.973 489.462,913.873 498.912 C 912.432 505.392,902.900 512.136,878.946 523.623 C 841.813 541.430,785.471 574.995,763.487 592.407 C 755.436 598.783,746.408 603.969,743.424 603.932 C 740.441 603.895,674.497 578.022,596.881 546.437 L 455.763 489.011 440.422 515.505 C 431.985 530.077,381.393 617.600,327.995 710.000 C 274.597 802.400,226.612 885.428,221.362 894.507 L 211.817 911.015 333.860 1006.507 L 455.902 1102.000 453.075 1128.000 C 450.669 1150.127,450.776 1216.882,453.325 1283.705 L 454.000 1301.410 336.000 1394.351 C 270.588 1445.872,218.214 1489.921,218.480 1493.191 C 219.134 1501.237,452.817 1904.565,457.970 1906.542 C 460.229 1907.409,526.159 1882.402,604.480 1850.971 L 746.881 1793.823 766.441 1808.282 C 794.765 1829.220,857.825 1866.179,886.659 1878.740 C 903.342 1886.008,912.137 1892.278,913.377 1897.787 C 914.394 1902.304,924.748 1972.150,936.386 2053.000 L 957.546 2200.000 1200.773 2200.000 C 1334.548 2200.000,1444.000 2198.867,1444.000 2197.482 C 1444.000 2192.613,1484.121 1909.898,1486.009 1901.463 C 1487.387 1895.306,1499.365 1887.314,1528.960 1872.804 C 1551.532 1861.737,1589.249 1839.930,1612.775 1824.344 L 1655.551 1796.004 1797.822 1852.320 C 1876.070 1883.294,1941.876 1908.041,1944.057 1907.314 C 1950.638 1905.121,2188.691 1490.911,2184.834 1488.363 C 2182.867 1487.063,2127.912 1443.985,2062.711 1392.632 L 1944.164 1299.265 1947.082 1268.632 C 1950.461 1233.156,1950.879 1170.226,1948.000 1130.169 L 1946.000 1102.338 2066.000 1007.899 C 2132.000 955.958,2186.000 911.674,2186.000 909.491 C 2186.000 902.759,1950.302 495.232,1945.247 493.222 C 1942.632 492.183,1877.366 516.872,1800.211 548.085 L 1659.928 604.837 1620.558 578.375 C 1598.905 563.822,1560.730 541.478,1535.725 528.723 L 1490.261 505.531 1467.386 355.765 C 1454.805 273.394,1444.396 204.650,1444.255 203.000 C 1444.115 201.350,1334.200 200.000,1200.000 200.000 C 1065.800 200.000,956.007 201.350,956.016 203.000 M1290.000 861.569 C 1319.064 869.608,1373.131 894.923,1399.038 912.623 C 1447.521 945.747,1488.128 994.336,1515.758 1052.286 C 1541.336 1105.935,1546.000 1128.714,1546.000 1200.000 C 1546.000 1271.286,1541.336 1294.065,1515.758 1347.714 C 1494.962 1391.330,1471.143 1424.401,1438.591 1454.852 C 1320.153 1565.645,1139.530 1581.032,1007.300 1491.593 C 952.792 1454.724,913.182 1408.412,884.242 1347.714 C 858.664 1294.065,854.000 1271.286,854.000 1200.000 C 854.000 1128.714,858.664 1105.935,884.242 1052.286 C 932.617 950.824,1017.291 883.161,1128.000 857.500 C 1158.786 850.364,1258.549 852.869,1290.000 861.569 " fill="#1D1E23" stroke="none" fill-rule="evenodd"/></svg>