<svg viewBox="0 0 2400 2400" fill="none" xmlns="http://www.w3.org/2000/svg"><path d="M982.733 207.707 C 961.942 211.957,930.146 243.457,922.085 267.792 C 916.169 285.652,903.756 359.956,889.833 460.859 C 884.189 501.762,881.169 513.237,874.407 519.475 C 869.783 523.741,843.728 540.625,816.507 556.995 L 767.015 586.760 692.847 555.300 C 550.491 494.916,525.672 487.764,486.619 495.871 C 467.468 499.847,461.710 503.371,446.224 520.595 C 417.085 553.005,271.914 801.640,241.631 871.003 C 214.449 933.262,225.445 954.986,324.000 1033.736 C 349.300 1053.952,388.450 1084.397,411.000 1101.392 L 452.000 1132.292 451.987 1201.146 L 451.974 1270.000 384.987 1320.504 C 304.214 1381.401,252.088 1426.442,240.288 1445.534 C 219.092 1479.829,224.810 1505.841,272.623 1592.652 C 324.002 1685.937,427.443 1857.909,443.361 1876.505 C 458.168 1893.804,478.822 1905.937,500.186 1909.885 C 521.600 1913.843,583.765 1892.299,716.623 1834.875 L 767.245 1812.995 790.623 1828.037 C 803.480 1836.310,827.067 1850.576,843.038 1859.738 C 859.009 1868.901,874.576 1880.358,877.632 1885.199 C 880.689 1890.039,888.939 1933.600,895.967 1982.000 C 918.771 2139.058,925.254 2158.829,961.902 2183.104 C 975.445 2192.075,987.207 2196.116,1005.245 2197.997 C 1051.049 2202.772,1408.809 2198.437,1421.261 2192.956 C 1427.455 2190.230,1442.083 2178.438,1453.769 2166.752 C 1472.604 2147.918,1475.728 2142.354,1481.281 2117.753 C 1488.341 2086.477,1506.216 1961.942,1510.333 1915.344 L 1513.041 1884.689 1570.676 1850.344 C 1602.375 1831.455,1629.915 1816.000,1631.876 1816.000 C 1633.837 1816.000,1671.117 1831.045,1714.721 1849.433 C 1865.204 1912.893,1895.134 1919.560,1930.779 1897.563 C 1958.118 1880.692,1982.427 1844.692,2069.009 1692.857 C 2157.885 1537.000,2168.939 1514.416,2168.880 1488.819 C 2168.777 1444.127,2149.530 1422.649,2026.560 1330.000 L 1952.233 1274.000 1953.117 1202.000 L 1954.000 1130.000 2038.000 1063.100 C 2161.727 964.561,2176.313 946.825,2169.463 903.249 C 2164.798 873.578,2147.976 841.074,2050.817 674.000 C 1952.114 504.270,1943.875 495.071,1890.021 494.469 C 1855.693 494.085,1836.419 500.360,1719.406 550.012 L 1632.813 586.756 1583.406 557.228 C 1556.233 540.987,1530.283 523.554,1525.740 518.487 C 1519.008 510.978,1515.041 492.694,1504.293 419.637 C 1480.554 258.278,1474.157 239.010,1437.090 217.221 L 1418.000 206.000 1208.000 205.293 C 1092.500 204.904,991.130 205.991,982.733 207.707 M1230.000 856.016 C 1290.246 861.505,1308.100 866.053,1351.128 886.872 C 1433.644 926.797,1484.687 980.609,1528.278 1073.630 L 1544.000 1107.179 1544.000 1200.000 L 1544.000 1292.821 1528.432 1326.042 C 1476.403 1437.069,1398.431 1507.089,1294.000 1536.564 C 1251.751 1548.488,1156.697 1549.452,1116.000 1538.369 C 1013.152 1510.360,930.639 1436.094,879.580 1325.578 L 864.000 1291.855 864.021 1198.927 L 864.043 1106.000 886.069 1062.710 C 923.404 989.334,948.682 957.171,997.013 921.548 C 1041.592 888.690,1089.849 867.992,1145.366 857.918 C 1182.102 851.252,1178.582 851.331,1230.000 856.016 " fill="#1D1E23" stroke="none" fill-rule="evenodd"/></svg>