<svg viewBox="0 0 2400 2400" fill="none" xmlns="http://www.w3.org/2000/svg"><path d="M1727.665 209.850 C 1646.093 230.529,1570.421 292.023,1531.296 369.426 C 1510.327 410.910,1502.974 447.131,1502.460 511.483 L 1502.000 568.966 1488.000 578.680 C 1434.191 616.015,816.177 976.000,805.890 976.000 C 803.332 976.000,789.711 968.508,775.620 959.350 C 738.179 935.018,687.205 912.106,660.943 907.804 C 630.522 902.821,572.263 903.044,540.074 908.267 C 487.395 916.813,432.481 947.054,387.491 992.292 C 289.645 1090.679,273.084 1243.605,347.763 1359.149 C 368.226 1390.809,417.533 1439.723,444.465 1455.080 C 483.266 1477.206,526.256 1491.889,563.252 1495.651 C 604.087 1499.804,657.827 1495.529,686.000 1485.887 C 715.567 1475.767,763.921 1450.646,785.420 1434.235 L 804.293 1419.829 1158.146 1626.616 L 1512.000 1833.402 1512.000 1891.124 C 1512.000 1930.720,1513.980 1956.487,1518.306 1973.182 C 1542.000 2064.617,1616.938 2144.358,1709.433 2176.556 C 1739.282 2186.947,1746.783 2187.897,1799.295 2187.946 C 1850.170 2187.994,1860.030 2186.854,1887.295 2177.769 C 1931.256 2163.121,1968.285 2139.715,2004.000 2104.000 C 2039.951 2068.049,2063.126 2031.238,2078.108 1986.286 C 2088.070 1956.394,2088.595 1950.994,2087.244 1892.286 C 2085.861 1832.208,2085.341 1828.905,2072.582 1799.120 C 2038.566 1719.714,1982.593 1662.800,1907.481 1631.241 C 1868.035 1614.667,1826.420 1609.820,1768.951 1615.104 C 1712.831 1620.264,1689.665 1628.159,1641.378 1658.581 C 1610.971 1677.738,1604.570 1680.340,1595.821 1677.092 C 1584.919 1673.046,1440.022 1589.792,1104.626 1394.861 L 895.252 1273.175 894.626 1200.937 L 894.000 1128.700 1244.833 924.285 L 1595.667 719.871 1616.833 735.926 C 1684.904 787.557,1776.633 809.379,1856.231 792.878 C 1986.523 765.868,2079.966 663.955,2096.720 530.591 C 2104.691 467.141,2087.628 395.627,2050.985 338.900 C 2017.601 287.219,1954.771 238.085,1895.048 216.954 C 1869.952 208.075,1858.108 206.507,1808.000 205.432 C 1767.471 204.563,1743.272 205.894,1727.665 209.850 " fill="#1D1E23" stroke="none" fill-rule="evenodd"/></svg>