<svg viewBox="0 0 2400 2400" fill="none" xmlns="http://www.w3.org/2000/svg"><g><path d="M1800 1608C1724 1608 1656 1638 1604 1685L891 1270C896 1247 900 1224 900 1200C900 1176 896 1153 891 1130L1596 719C1650 769 1721 800 1800 800C1966 800 2100 666 2100 500C2100 334 1966 200 1800 200C1634 200 1500 334 1500 500C1500 524 1504 547 1509 570L804 981C750 931 679 900 600 900C434 900 300 1034 300 1200C300 1366 434 1500 600 1500C679 1500 750 1469 804 1419L1516 1835C1511 1856 1508 1878 1508 1900C1508 2061 1639 2192 1800 2192C1961 2192 2092 2061 2092 1900C2092 1739 1961 1608 1800 1608Z" fill="#1D1E23"/></g></svg>