<svg viewBox="0 0 2400 2400" fill="none" xmlns="http://www.w3.org/2000/svg"><path d="M1741.616 208.197 C 1680.672 216.153,1606.988 262.805,1562.256 321.759 C 1518.939 378.848,1506.449 418.073,1502.011 510.961 L 1499.098 571.922 1458.549 597.323 C 1347.683 666.775,814.611 976.000,805.749 976.000 C 804.070 976.000,786.268 966.197,766.189 954.216 C 746.111 942.235,715.354 926.570,697.841 919.405 C 666.680 906.655,664.676 906.375,604.000 906.270 C 535.030 906.152,515.327 910.167,468.053 933.973 C 377.782 979.433,316.078 1067.540,303.305 1169.217 C 299.396 1200.329,299.715 1212.080,305.371 1245.432 C 317.479 1316.831,342.106 1361.754,399.441 1417.024 C 439.007 1455.166,471.186 1473.293,525.882 1488.251 C 553.699 1495.857,564.665 1496.711,611.882 1494.945 C 653.026 1493.406,671.676 1490.888,689.676 1484.443 C 719.023 1473.935,768.346 1447.566,788.475 1431.624 L 803.600 1419.644 1157.351 1626.354 L 1511.101 1833.063 1513.002 1899.531 C 1514.548 1953.616,1516.461 1970.304,1523.270 1989.101 C 1552.120 2068.740,1606.976 2129.216,1682.000 2164.091 C 1725.590 2184.354,1743.585 2188.000,1800.000 2188.000 C 1858.585 2188.000,1874.856 2184.457,1923.989 2160.998 C 1957.351 2145.068,1966.902 2137.935,2002.419 2102.419 C 2037.694 2067.143,2045.205 2057.125,2061.222 2023.989 C 2086.792 1971.088,2089.298 1958.048,2087.180 1888.928 C 2085.491 1833.811,2084.554 1828.060,2072.697 1800.000 C 2037.805 1717.430,1972.069 1654.501,1890.211 1625.307 C 1846.393 1609.679,1754.141 1611.129,1703.215 1628.245 C 1689.347 1632.906,1662.978 1645.783,1644.617 1656.860 C 1626.256 1667.937,1607.086 1677.000,1602.016 1677.000 C 1592.186 1677.000,1514.080 1632.810,1134.958 1412.751 L 895.916 1274.000 896.958 1200.258 L 898.000 1126.516 1246.938 923.221 L 1595.876 719.925 1620.069 737.735 C 1711.926 805.357,1831.885 816.417,1931.168 766.419 C 2022.935 720.206,2080.705 638.254,2096.195 532.314 C 2104.252 477.212,2089.598 405.732,2059.436 353.015 C 2043.004 324.293,1996.824 275.586,1966.488 254.978 C 1953.556 246.193,1929.290 232.683,1912.565 224.955 C 1886.805 213.054,1875.720 210.408,1840.077 207.656 C 1790.515 203.829,1774.400 203.918,1741.616 208.197 " fill="#1D1E23" stroke="none" fill-rule="evenodd"/></svg>