<svg viewBox="0 0 2400 2400" fill="none" xmlns="http://www.w3.org/2000/svg"><path d="M1747.970 207.737 C 1696.248 214.787,1643.919 241.412,1599.314 283.373 C 1529.063 349.460,1507.651 400.883,1500.999 519.477 L 1498.000 572.954 1437.429 610.297 C 1364.111 655.499,1006.515 864.334,890.231 929.859 L 806.462 977.062 784.231 964.303 C 772.004 957.286,743.152 942.197,720.116 930.772 L 678.233 910.000 600.116 910.000 C 524.643 910.000,521.150 910.358,496.885 920.582 C 453.678 938.786,427.153 956.847,392.000 992.000 C 353.895 1030.105,335.777 1058.085,319.593 1103.820 C 302.723 1151.491,297.553 1193.059,303.590 1232.491 C 310.661 1278.684,322.211 1313.859,340.570 1345.118 C 359.421 1377.213,412.696 1432.806,444.828 1453.911 C 479.438 1476.643,530.311 1492.541,576.219 1494.971 C 653.145 1499.043,707.738 1484.278,771.944 1442.037 L 804.719 1420.474 1157.791 1626.791 L 1510.863 1833.108 1513.044 1899.554 C 1515.002 1959.208,1516.351 1969.011,1526.245 1995.455 C 1556.235 2075.618,1623.291 2142.385,1706.049 2174.484 C 1730.193 2183.849,1741.384 2185.566,1788.215 2187.095 C 1852.243 2189.185,1875.248 2184.566,1927.187 2159.191 C 1955.311 2145.451,1968.342 2135.610,1999.968 2104.227 C 2042.632 2061.889,2061.063 2033.096,2078.207 1982.000 C 2088.428 1951.537,2088.852 1947.118,2087.041 1890.000 C 2085.369 1837.261,2083.891 1826.969,2074.830 1804.953 C 2042.308 1725.929,1978.320 1661.920,1899.047 1629.112 C 1877.241 1620.087,1866.753 1618.520,1818.000 1617.003 C 1742.741 1614.661,1716.142 1620.337,1654.927 1651.803 C 1629.036 1665.111,1604.709 1676.000,1600.867 1676.000 C 1590.371 1676.000,1493.684 1621.184,1047.000 1361.989 L 896.000 1274.369 896.028 1226.185 C 896.044 1199.683,897.184 1166.065,898.562 1151.477 L 901.068 1124.955 1248.640 922.430 L 1596.213 719.905 1618.600 736.443 C 1647.697 757.938,1698.546 781.416,1734.790 790.090 C 1777.433 800.295,1851.386 796.746,1891.484 782.571 C 1941.135 765.018,1970.988 745.858,2010.150 706.412 C 2050.863 665.403,2072.548 627.653,2088.509 570.000 C 2111.733 486.115,2090.247 386.854,2034.187 319.048 C 1991.551 267.479,1922.146 221.317,1874.000 212.504 C 1844.029 207.018,1772.963 204.330,1747.970 207.737 " fill="#1D1E23" stroke="none" fill-rule="evenodd"/></svg>