<svg viewBox="0 0 2400 2400" fill="none" xmlns="http://www.w3.org/2000/svg"><path d="M1742.000 206.501 C 1684.266 219.022,1639.261 242.863,1594.027 284.889 C 1527.475 346.719,1496.432 426.989,1502.097 522.600 L 1504.739 567.200 1481.370 582.957 C 1427.559 619.240,821.735 972.688,809.136 975.149 C 803.332 976.283,793.479 971.895,780.602 962.442 C 755.732 944.186,704.553 918.636,676.274 910.359 C 642.147 900.370,552.789 901.550,517.421 912.456 C 417.467 943.277,343.217 1018.066,311.372 1120.000 C 297.916 1163.073,297.916 1236.927,311.372 1280.000 C 328.377 1334.431,349.928 1370.230,389.840 1410.341 C 420.422 1441.076,431.861 1449.559,464.000 1465.337 C 484.900 1475.597,513.700 1487.103,528.000 1490.905 C 563.110 1500.242,636.471 1500.017,672.000 1490.464 C 705.864 1481.359,756.502 1456.597,783.242 1436.066 L 804.484 1419.757 1157.530 1626.053 L 1510.577 1832.349 1510.520 1889.174 C 1510.453 1955.727,1515.804 1980.816,1540.978 2032.000 C 1554.410 2059.310,1564.814 2073.165,1593.850 2102.412 C 1633.698 2142.549,1662.506 2160.781,1714.000 2178.450 C 1742.710 2188.302,1751.552 2189.431,1800.000 2189.431 C 1848.448 2189.431,1857.290 2188.302,1886.000 2178.450 C 1936.232 2161.214,1966.384 2142.340,2004.362 2104.362 C 2042.340 2066.384,2061.214 2036.232,2078.450 1986.000 C 2088.302 1957.290,2089.431 1948.448,2089.431 1900.000 C 2089.431 1851.617,2088.292 1842.671,2078.484 1814.000 C 2053.244 1740.215,1999.720 1677.078,1933.459 1642.930 C 1881.874 1616.344,1854.535 1610.745,1788.000 1613.137 C 1719.249 1615.610,1688.450 1625.779,1630.238 1665.230 C 1617.169 1674.087,1604.549 1681.333,1602.194 1681.333 C 1599.839 1681.333,1438.995 1588.980,1244.762 1476.103 L 891.612 1270.873 894.410 1258.436 C 897.993 1242.505,898.054 1157.762,894.493 1141.943 L 891.779 1129.886 1243.628 924.807 L 1595.477 719.727 1616.739 736.051 C 1678.856 783.744,1765.747 807.099,1840.438 796.177 C 1911.752 785.750,1967.961 756.419,2017.457 703.803 C 2130.833 583.284,2124.932 394.398,2004.318 283.234 C 1961.342 243.626,1909.500 216.071,1863.106 208.176 C 1820.403 200.910,1770.935 200.226,1742.000 206.501 " fill="#1D1E23" stroke="none" fill-rule="evenodd"/></svg>