<svg viewBox="0 0 2400 2400" fill="none" xmlns="http://www.w3.org/2000/svg"><path d="M1096.966 207.431 C 1054.665 245.454,912.993 389.501,858.719 449.671 C 815.268 497.844,814.417 500.588,834.676 527.212 C 854.517 553.284,956.590 659.220,1023.308 722.981 C 1140.040 834.540,1142.974 836.394,1174.004 818.209 C 1183.821 812.456,1193.686 804.324,1195.926 800.137 C 1198.369 795.573,1200.000 753.798,1200.000 695.797 L 1200.000 599.068 1227.000 601.865 C 1273.630 606.695,1360.448 623.935,1391.847 634.600 C 1455.943 656.371,1536.076 703.927,1594.015 754.581 C 1707.224 853.555,1777.616 993.691,1792.237 1149.199 C 1797.994 1210.423,1793.029 1276.546,1777.762 1342.000 C 1747.356 1472.361,1747.047 1477.465,1767.696 1508.212 C 1781.016 1528.044,1818.234 1554.556,1837.948 1558.254 C 1872.155 1564.671,1920.399 1534.658,1939.601 1495.013 C 1956.666 1459.781,1977.643 1387.070,1988.363 1326.000 C 2000.137 1258.920,2001.204 1147.362,1990.659 1086.000 C 1943.992 814.446,1782.174 596.215,1542.900 482.146 C 1450.838 438.258,1372.292 417.683,1243.000 403.590 L 1200.000 398.903 1200.000 299.363 L 1200.000 199.824 1181.217 187.912 C 1149.372 167.716,1138.291 170.283,1096.966 207.431 M502.813 858.659 C 458.575 883.771,425.685 968.634,407.727 1104.000 C 400.385 1159.339,401.292 1269.643,409.469 1316.000 C 434.399 1457.328,484.179 1574.345,565.568 1682.938 C 674.196 1827.877,830.346 1929.694,1014.796 1975.858 C 1066.910 1988.901,1138.274 2000.000,1170.023 2000.000 L 1199.251 2000.000 1200.778 2093.000 C 1202.584 2203.074,1204.571 2210.974,1233.201 2221.907 C 1244.104 2226.071,1254.781 2227.656,1260.246 2225.922 C 1279.989 2219.656,1543.855 1954.840,1568.196 1916.864 C 1575.310 1905.764,1578.401 1896.605,1576.969 1890.864 C 1573.958 1878.795,1281.180 1584.424,1265.472 1577.672 C 1250.083 1571.058,1234.092 1574.946,1214.159 1590.150 L 1200.000 1600.950 1200.000 1701.065 L 1200.000 1801.180 1165.219 1798.507 C 1120.325 1795.056,1061.642 1783.016,1015.004 1767.689 C 965.065 1751.276,887.263 1712.944,858.504 1690.584 C 807.910 1651.247,731.275 1571.167,702.912 1528.000 C 677.607 1489.485,644.114 1420.442,627.238 1372.000 L 614.000 1334.000 614.000 1200.000 L 614.000 1066.000 629.463 1016.000 C 649.966 949.700,650.988 921.529,633.894 893.828 C 626.370 881.636,614.378 869.630,602.208 862.106 C 585.650 851.869,577.949 849.828,552.314 848.884 C 525.524 847.897,519.769 849.034,502.813 858.659 " fill="#1D1E23" stroke="none" fill-rule="evenodd"/></svg>