<svg viewBox="0 0 2400 2400" fill="none" xmlns="http://www.w3.org/2000/svg"><path d="M977.266 324.785 C 870.597 431.321,823.545 480.965,821.828 488.785 C 815.762 516.399,818.041 519.217,969.396 671.282 C 1048.928 751.188,1118.861 819.138,1124.801 822.282 C 1130.742 825.427,1142.919 828.000,1151.860 828.000 C 1164.791 828.000,1171.175 825.200,1183.059 814.314 L 1198.000 800.628 1199.196 700.314 L 1200.391 600.000 1212.353 600.000 C 1239.455 600.000,1304.558 608.987,1342.241 617.930 C 1552.481 667.824,1726.261 839.337,1780.021 1050.000 C 1809.986 1167.421,1804.890 1282.550,1764.406 1402.794 C 1745.808 1458.034,1745.712 1458.842,1754.301 1487.765 C 1767.350 1531.706,1818.137 1565.016,1861.147 1557.843 C 1881.921 1554.378,1911.040 1539.967,1922.834 1527.314 C 1949.838 1498.345,1985.124 1380.186,1995.747 1283.158 C 2022.156 1041.948,1932.135 795.967,1755.145 625.715 C 1617.004 492.834,1452.891 419.229,1259.191 403.281 L 1200.382 398.439 1199.191 298.905 L 1198.000 199.372 1183.059 185.686 C 1170.449 174.136,1165.162 172.000,1149.179 172.000 L 1130.241 172.000 977.266 324.785 M504.674 854.414 C 471.314 871.037,455.052 898.566,432.520 976.556 C 360.940 1224.311,410.031 1483.918,567.430 1690.000 C 593.342 1723.927,660.579 1792.500,696.000 1821.125 C 815.070 1917.349,963.892 1979.108,1116.842 1995.769 C 1138.206 1998.096,1165.656 2000.000,1177.842 2000.000 L 1200.000 2000.000 1200.000 2094.395 C 1200.000 2198.238,1201.879 2208.296,1223.682 2221.176 C 1230.036 2224.929,1243.002 2228.000,1252.495 2228.000 L 1269.755 2228.000 1420.993 2077.000 C 1582.343 1915.903,1586.888 1910.286,1576.400 1884.965 C 1573.792 1878.668,1503.730 1805.675,1420.707 1722.758 L 1269.755 1572.000 1250.819 1572.000 C 1234.838 1572.000,1229.551 1574.136,1216.941 1585.686 L 1202.000 1599.372 1200.801 1700.262 L 1199.602 1801.153 1158.801 1798.482 C 943.498 1784.390,753.177 1653.731,657.715 1454.476 C 617.868 1371.304,602.267 1299.011,602.369 1198.000 C 602.451 1117.135,608.059 1082.933,634.689 1000.894 C 652.749 945.257,653.099 943.223,648.305 921.802 C 633.991 857.841,563.842 824.928,504.674 854.414 " fill="#1D1E23" stroke="none" fill-rule="evenodd"/></svg>