<svg viewBox="0 0 2400 2400" fill="none" xmlns="http://www.w3.org/2000/svg"><path d="M1117.877 187.193 C 1096.668 204.277,923.134 378.502,858.709 447.393 C 811.698 497.663,811.089 500.665,840.570 536.792 C 872.394 575.793,1112.203 813.109,1128.360 821.591 C 1146.861 831.304,1165.195 828.107,1185.105 811.695 L 1200.000 799.418 1200.000 699.157 L 1200.000 598.897 1230.457 601.656 C 1271.935 605.415,1344.024 618.644,1378.000 628.732 C 1393.400 633.305,1426.410 646.662,1451.356 658.414 C 1621.688 738.661,1741.561 888.325,1784.219 1074.000 C 1789.994 1099.139,1793.172 1130.515,1794.752 1178.000 C 1797.469 1259.664,1791.470 1305.466,1766.981 1390.000 C 1748.455 1453.953,1746.943 1474.879,1759.142 1498.513 C 1774.613 1528.486,1820.149 1560.000,1847.987 1560.000 C 1866.770 1560.000,1896.715 1546.579,1915.385 1529.793 C 1931.760 1515.071,1937.881 1505.614,1947.969 1479.455 C 1978.505 1400.273,1995.500 1314.464,1998.562 1224.000 C 2002.980 1093.539,1977.410 975.873,1918.160 854.000 C 1836.969 686.996,1709.987 560.364,1543.148 480.021 C 1456.126 438.115,1363.163 413.552,1254.499 403.754 L 1200.135 398.852 1199.067 298.864 L 1198.000 198.876 1183.472 187.121 C 1175.240 180.459,1162.186 174.459,1153.349 173.274 C 1139.607 171.430,1135.391 173.085,1117.877 187.193 M518.992 849.463 C 482.318 863.146,460.028 892.015,440.322 951.351 C 410.065 1042.457,395.170 1165.077,402.944 1259.053 C 429.049 1574.613,633.099 1843.983,926.592 1950.329 C 1001.223 1977.372,1112.042 1999.928,1170.508 1999.976 L 1199.017 2000.000 1200.683 2097.940 C 1202.230 2188.908,1202.932 2196.668,1210.537 2206.940 C 1220.603 2220.537,1246.307 2230.296,1261.805 2226.406 C 1284.457 2220.721,1573.089 1926.362,1578.018 1903.918 C 1580.358 1893.265,1578.207 1888.754,1561.352 1868.954 C 1524.817 1826.037,1274.000 1576.649,1264.652 1573.945 C 1249.751 1569.634,1230.971 1575.054,1214.895 1588.305 L 1200.000 1600.582 1200.000 1700.882 L 1200.000 1801.181 1162.246 1798.527 C 1061.110 1791.418,955.647 1755.712,870.000 1699.584 C 828.890 1672.644,732.526 1576.717,705.968 1536.297 C 677.275 1492.629,641.811 1420.500,628.462 1378.664 C 611.397 1325.177,606.976 1288.021,606.490 1194.000 C 606.014 1101.963,606.994 1095.018,632.449 1010.158 C 648.942 955.177,651.555 928.250,642.500 906.581 C 634.588 887.644,613.292 864.822,594.668 855.321 C 574.146 844.851,538.706 842.108,518.992 849.463 " fill="#1D1E23" stroke="none" fill-rule="evenodd"/></svg>