<svg viewBox="0 0 2400 2400" fill="none" xmlns="http://www.w3.org/2000/svg"><path d="M997.406 305.236 L 802.000 499.629 1001.000 698.809 L 1200.000 897.990 1200.000 748.478 L 1200.000 598.966 1229.000 601.773 C 1395.921 617.931,1510.769 670.161,1620.266 779.710 C 1676.273 835.744,1708.934 881.057,1739.940 945.744 C 1774.637 1018.128,1789.008 1078.468,1794.307 1174.000 C 1799.217 1262.520,1786.148 1339.768,1751.073 1429.555 L 1730.932 1481.111 1800.818 1550.679 C 1851.205 1600.836,1872.512 1619.552,1877.185 1617.759 C 1885.349 1614.626,1898.200 1592.476,1919.978 1544.000 C 2012.616 1337.792,2023.815 1150.374,1955.711 946.011 C 1887.638 741.740,1751.604 586.355,1553.376 486.440 C 1468.076 443.446,1389.550 421.209,1273.000 407.042 L 1200.000 398.168 1199.939 260.084 C 1199.905 184.138,1198.288 119.490,1196.345 116.421 C 1193.691 112.230,1144.228 159.176,997.406 305.236 M509.744 798.131 C 476.433 850.204,437.147 953.005,418.095 1037.953 C 398.425 1125.654,396.753 1253.327,414.091 1343.632 C 448.594 1523.344,533.319 1671.635,674.538 1799.487 C 799.334 1912.471,984.057 1988.463,1159.000 1998.786 L 1200.000 2001.205 1200.000 2151.598 L 1200.000 2301.990 1400.995 2100.995 L 1601.990 1900.000 1400.995 1699.005 L 1200.000 1498.010 1200.000 1649.595 L 1200.000 1801.181 1161.000 1798.445 C 978.148 1785.616,799.374 1680.214,698.905 1526.000 C 675.661 1490.322,642.345 1419.086,628.752 1376.000 C 611.360 1320.868,606.776 1283.660,606.577 1196.000 C 606.347 1094.757,613.129 1059.354,650.916 964.531 L 669.035 919.062 596.872 846.899 L 524.709 774.736 509.744 798.131 " fill="#1D1E23" stroke="none" fill-rule="evenodd"/></svg>