<svg viewBox="0 0 2400 2400" fill="none" xmlns="http://www.w3.org/2000/svg"><path d="M1068.834 104.283 C 958.380 118.629,848.198 180.503,779.772 266.609 C 736.361 321.238,709.477 375.249,690.967 445.021 C 683.531 473.054,682.209 488.798,682.156 550.000 C 682.098 616.376,682.951 625.083,693.075 661.465 C 707.952 714.925,727.116 757.769,754.686 799.204 C 779.019 835.774,829.638 889.026,861.189 911.249 L 880.000 924.497 880.000 724.983 C 880.000 597.569,881.583 516.892,884.379 501.735 C 906.603 381.295,1021.406 293.244,1145.342 301.583 C 1265.680 309.681,1360.682 399.725,1375.760 519.978 C 1378.192 539.374,1380.000 631.859,1380.000 736.895 C 1380.000 837.603,1381.184 920.000,1382.631 920.000 C 1388.478 920.000,1428.070 886.533,1454.629 859.139 C 1619.668 688.914,1620.301 415.281,1456.056 242.355 C 1355.030 135.990,1213.438 85.502,1068.834 104.283 M1094.471 404.195 C 1069.292 410.518,1032.453 432.221,1017.197 449.719 C 1009.391 458.674,998.277 475.900,992.502 488.000 L 982.000 510.000 980.945 1067.420 L 979.890 1624.840 970.945 1622.678 C 966.025 1621.490,887.388 1604.922,796.196 1585.862 C 598.174 1544.473,587.439 1543.785,549.648 1570.063 C 533.659 1581.181,522.991 1592.652,514.365 1608.000 C 503.409 1627.493,502.000 1633.646,502.000 1662.000 C 502.000 1689.666,503.536 1696.771,513.343 1714.462 C 521.390 1728.979,587.047 1797.031,739.343 1948.709 C 971.418 2179.841,972.357 2180.637,1028.372 2193.841 C 1066.218 2202.762,1693.299 2202.876,1731.077 2193.969 C 1766.494 2185.619,1793.857 2170.610,1821.199 2144.535 C 1846.728 2120.189,1860.277 2099.821,1872.711 2067.098 C 1881.268 2044.577,1947.950 1586.348,1947.982 1549.840 C 1948.024 1502.673,1925.619 1450.068,1889.945 1413.572 C 1866.599 1389.688,1859.171 1385.605,1637.772 1274.990 C 1497.136 1204.725,1401.591 1159.288,1388.630 1156.509 C 1377.067 1154.029,1347.947 1152.000,1323.919 1152.000 L 1280.231 1152.000 1279.115 835.000 L 1278.000 518.000 1268.718 495.013 C 1256.024 463.579,1225.662 431.289,1194.264 415.832 C 1166.337 402.083,1123.002 397.030,1094.471 404.195 " fill="#1D1E23" stroke="none" fill-rule="evenodd"/></svg>