<svg viewBox="0 0 2400 2400" fill="none" xmlns="http://www.w3.org/2000/svg"><path d="M1082.000 104.351 C 927.206 124.871,796.376 215.462,730.125 348.000 C 693.235 421.803,683.656 462.809,683.576 547.274 C 683.521 605.161,684.808 619.034,693.295 652.000 C 714.907 735.944,737.743 779.462,793.924 843.765 C 824.842 879.153,869.030 920.000,876.394 920.000 C 878.421 920.000,880.054 881.901,880.123 833.000 C 880.301 706.731,886.995 513.844,892.166 486.000 C 903.856 423.054,970.026 349.640,1040.861 321.028 C 1078.837 305.689,1104.493 302.672,1153.405 307.794 C 1177.323 310.298,1203.927 314.771,1212.524 317.733 C 1261.883 334.738,1324.370 390.756,1348.947 440.032 C 1357.851 457.885,1365.485 480.511,1367.831 496.000 C 1372.299 525.503,1379.814 724.740,1380.203 824.000 C 1380.345 860.300,1381.825 897.200,1383.492 906.000 L 1386.523 922.000 1432.648 876.000 C 1498.813 810.014,1534.264 753.977,1559.174 676.000 C 1576.535 621.656,1582.506 566.461,1576.439 516.407 C 1556.434 351.341,1469.929 223.667,1329.970 152.638 C 1254.855 114.517,1153.784 94.836,1082.000 104.351 M1088.000 407.550 C 1052.492 419.067,1021.125 444.826,994.542 484.299 L 980.000 505.893 980.000 1065.380 L 980.000 1624.867 971.000 1622.728 C 933.159 1613.731,693.408 1567.147,659.487 1562.200 C 583.153 1551.068,569.132 1554.128,533.582 1589.677 C 505.661 1617.598,501.654 1629.799,504.699 1677.620 C 506.129 1700.079,508.151 1705.361,521.604 1721.777 C 550.541 1757.092,750.791 1962.160,838.312 2046.106 C 990.964 2192.523,988.939 2191.344,1096.000 2196.266 C 1193.889 2200.767,1627.166 2200.559,1689.759 2195.981 C 1748.354 2191.696,1764.990 2185.650,1804.877 2154.146 C 1854.662 2114.823,1867.835 2087.957,1886.275 1988.134 C 1898.226 1923.437,1932.866 1685.418,1942.143 1604.247 C 1949.939 1536.043,1947.222 1513.922,1925.629 1469.789 C 1904.408 1426.415,1877.470 1402.593,1806.000 1363.996 C 1726.594 1321.114,1476.035 1196.954,1428.000 1176.685 C 1389.849 1160.587,1345.157 1152.039,1299.000 1152.011 L 1280.000 1152.000 1280.000 832.620 L 1280.000 513.240 1264.634 489.620 C 1244.365 458.463,1213.125 429.943,1184.872 416.803 C 1167.073 408.525,1154.902 405.959,1130.000 405.236 C 1112.400 404.725,1093.500 405.766,1088.000 407.550 " fill="#1D1E23" stroke="none" fill-rule="evenodd"/></svg>