<svg viewBox="0 0 2400 2400" fill="none" xmlns="http://www.w3.org/2000/svg"><path d="M1080.007 104.509 C 975.382 116.617,875.137 167.059,802.341 244.227 C 749.910 299.807,713.744 365.772,692.977 443.705 C 684.137 476.878,682.739 490.561,682.526 546.000 C 682.308 602.454,683.527 614.952,692.859 652.000 C 705.513 702.229,721.508 742.607,743.250 779.204 C 762.251 811.188,820.208 876.694,853.997 904.378 L 878.000 924.044 880.884 745.022 C 884.649 511.355,886.953 481.781,904.034 447.896 C 940.096 376.358,1009.053 322.232,1083.020 307.406 C 1115.283 300.939,1188.471 307.572,1219.410 319.767 C 1264.907 337.701,1318.353 384.652,1344.170 429.367 C 1368.629 471.729,1371.660 489.850,1375.964 619.466 C 1378.130 684.660,1380.027 772.200,1380.181 814.000 C 1380.335 855.800,1381.707 896.916,1383.231 905.369 L 1386.000 920.737 1412.919 896.964 C 1531.785 791.988,1592.658 648.123,1576.172 511.135 C 1549.346 288.217,1389.229 129.094,1166.788 104.290 C 1124.288 99.551,1122.816 99.555,1080.007 104.509 M1092.132 406.210 C 1051.988 417.353,1022.251 441.567,993.489 486.529 L 980.000 507.616 980.000 1065.808 C 980.000 1372.814,979.550 1623.992,979.000 1623.982 C 978.450 1623.972,906.900 1609.447,820.000 1591.705 C 638.352 1554.618,592.486 1549.467,565.673 1563.146 C 545.306 1573.537,516.462 1602.106,509.412 1618.872 C 506.317 1626.233,504.000 1646.095,504.000 1665.271 C 504.000 1695.728,505.036 1700.229,515.312 1714.400 C 533.800 1739.896,719.190 1930.841,824.291 2032.637 C 962.387 2166.391,976.004 2177.262,1022.000 2190.481 C 1043.452 2196.647,1075.936 2197.543,1328.000 2198.927 C 1483.100 2199.778,1639.173 2198.852,1674.829 2196.870 C 1736.501 2193.442,1740.957 2192.627,1766.351 2180.125 C 1803.112 2162.028,1847.652 2119.254,1861.221 2089.018 C 1874.844 2058.659,1887.760 1992.735,1909.616 1842.000 C 1940.788 1627.022,1948.911 1559.486,1946.487 1535.436 C 1941.316 1484.107,1911.198 1431.320,1869.141 1399.871 C 1831.492 1371.719,1432.052 1172.044,1393.868 1162.289 C 1378.541 1158.373,1346.650 1154.201,1323.000 1153.018 L 1280.000 1150.867 1280.000 832.785 L 1280.000 514.703 1269.431 496.351 C 1228.609 425.469,1155.908 388.507,1092.132 406.210 " fill="#1D1E23" stroke="none" fill-rule="evenodd"/></svg>