<svg viewBox="0 0 2400 2400" fill="none" xmlns="http://www.w3.org/2000/svg"><path d="M990.960 110.077 C 906.214 126.089,829.881 167.117,760.615 233.884 C 700.728 291.611,662.147 358.203,640.401 441.375 C 620.277 518.347,620.097 575.853,639.736 653.617 C 663.438 747.466,692.305 796.793,767.540 872.000 L 817.558 922.000 820.576 902.000 C 822.235 891.000,825.348 796.500,827.492 692.000 C 831.792 482.452,831.974 480.946,858.804 432.528 C 866.567 418.519,885.565 393.744,901.021 377.472 C 935.523 341.151,981.974 315.791,1028.524 307.863 C 1064.979 301.654,1126.407 307.048,1162.000 319.583 C 1216.507 338.779,1268.181 385.978,1296.474 442.411 C 1317.187 483.723,1318.331 496.990,1322.217 740.870 L 1325.131 923.739 1337.566 915.155 C 1355.366 902.867,1409.231 847.364,1435.786 813.947 C 1472.660 767.544,1502.699 699.026,1516.430 630.000 C 1523.448 594.720,1523.432 501.963,1516.403 470.000 C 1494.874 372.107,1455.923 299.150,1390.313 233.829 C 1332.754 176.524,1265.392 138.378,1184.295 117.164 C 1135.417 104.378,1039.694 100.870,990.960 110.077 M1030.000 408.656 C 994.819 421.815,958.351 455.021,935.738 494.487 L 924.000 514.974 924.000 1069.563 L 924.000 1624.152 915.000 1622.022 C 910.050 1620.851,819.660 1601.878,714.133 1579.860 L 522.267 1539.827 461.115 1600.884 L 399.963 1661.941 668.981 1930.986 L 938.000 2200.031 1372.000 2199.015 L 1806.000 2198.000 1825.093 2064.000 C 1853.944 1861.521,1911.645 1438.311,1910.550 1437.216 C 1910.019 1436.686,1782.359 1373.305,1626.862 1296.370 L 1344.138 1156.488 1286.069 1153.665 L 1228.000 1150.842 1227.703 1080.421 C 1227.539 1041.689,1226.086 897.436,1224.475 759.859 C 1221.571 511.905,1221.467 509.555,1212.585 491.209 C 1197.678 460.415,1174.526 437.685,1141.381 421.304 C 1114.717 408.126,1107.332 406.301,1076.642 405.299 C 1057.589 404.677,1036.600 406.188,1030.000 408.656 " fill="#1D1E23" stroke="none" fill-rule="evenodd"/></svg>