<svg viewBox="0 0 2400 2400" fill="none" xmlns="http://www.w3.org/2000/svg"><path d="M1014.000 104.509 C 872.292 122.210,736.113 219.646,672.857 348.595 C 611.355 473.969,609.113 609.148,666.377 739.152 C 690.537 793.999,746.467 863.618,800.436 906.018 L 824.000 924.531 824.030 739.265 C 824.047 637.369,825.760 539.226,827.836 521.168 C 834.362 464.412,860.759 411.103,902.490 370.402 C 1023.393 252.485,1227.373 290.110,1300.480 443.813 C 1322.865 490.874,1323.854 502.669,1323.931 723.249 L 1324.000 924.497 1342.811 911.249 C 1374.362 889.026,1424.981 835.774,1449.314 799.204 C 1476.884 757.769,1496.048 714.925,1510.925 661.465 C 1521.032 625.142,1521.907 616.268,1521.907 550.000 C 1521.907 483.732,1521.032 474.858,1510.925 438.535 C 1487.575 354.628,1450.277 289.728,1392.212 231.968 C 1291.975 132.258,1156.732 86.681,1014.000 104.509 M1035.717 405.212 C 992.720 417.410,951.863 453.990,935.215 495.193 L 926.000 518.000 924.931 1071.059 L 923.863 1624.118 914.931 1622.035 C 910.019 1620.889,819.744 1601.840,714.320 1579.703 L 522.641 1539.454 461.302 1600.697 L 399.963 1661.941 668.981 1930.986 L 938.000 2200.031 1371.774 2199.015 L 1805.549 2198.000 1858.893 1818.452 C 1888.233 1609.701,1911.664 1438.330,1910.962 1437.629 C 1910.261 1436.928,1781.957 1372.853,1625.844 1295.240 L 1342.000 1154.127 1284.000 1152.063 L 1226.000 1150.000 1224.000 830.000 L 1222.000 510.000 1211.136 487.878 C 1194.239 453.475,1175.137 433.988,1142.500 417.857 C 1108.695 401.150,1067.311 396.249,1035.717 405.212 " fill="#1D1E23" stroke="none" fill-rule="evenodd"/></svg>