<svg viewBox="0 0 2400 2400" fill="none" xmlns="http://www.w3.org/2000/svg"><path d="M1070.000 104.509 C 959.582 118.302,845.831 182.610,778.692 269.196 C 716.555 349.332,686.563 426.914,681.733 520.000 C 676.200 626.653,699.283 714.348,755.434 800.000 C 772.698 826.335,836.529 893.278,861.417 911.152 L 879.189 923.915 880.987 712.957 C 882.577 526.408,883.594 499.455,889.778 480.000 C 915.374 399.474,973.628 340.914,1055.615 313.295 C 1079.905 305.111,1094.023 303.020,1126.000 302.866 C 1199.043 302.516,1252.993 324.612,1304.135 375.824 C 1338.574 410.310,1356.214 440.665,1368.594 486.744 C 1376.449 515.980,1377.121 530.992,1378.979 719.000 C 1380.072 829.550,1382.336 920.000,1384.009 920.000 C 1385.682 920.000,1401.213 907.757,1418.521 892.793 C 1578.441 754.532,1623.508 539.924,1531.853 353.107 C 1446.985 180.125,1261.959 80.532,1070.000 104.509 M1096.890 404.248 C 1055.072 412.490,1013.834 445.570,992.729 487.804 L 980.000 513.278 980.000 1068.639 C 980.000 1374.088,979.303 1624.000,978.452 1624.000 C 977.601 1624.000,916.851 1611.350,843.452 1595.888 C 702.773 1566.254,623.235 1551.944,600.000 1552.089 C 569.521 1552.278,528.434 1580.809,510.842 1614.000 C 504.302 1626.339,502.323 1637.322,502.195 1662.000 C 502.050 1689.906,503.443 1696.408,513.079 1712.822 C 525.663 1734.258,775.336 1988.794,889.633 2096.711 C 985.840 2187.547,992.862 2191.425,1070.906 2196.800 C 1101.482 2198.906,1259.505 2199.903,1426.000 2199.039 C 1723.514 2197.496,1726.199 2197.410,1750.000 2188.658 C 1798.524 2170.815,1841.843 2131.975,1863.760 2086.660 C 1876.675 2059.959,1889.611 1985.897,1923.614 1744.000 C 1948.468 1567.188,1950.298 1547.548,1944.603 1518.752 C 1937.449 1482.575,1916.012 1441.504,1890.960 1415.978 C 1864.798 1389.320,1819.300 1364.401,1600.000 1256.614 C 1382.364 1149.645,1396.987 1155.330,1333.166 1152.894 L 1280.140 1150.871 1279.070 832.435 L 1278.000 514.000 1266.671 490.929 C 1243.883 444.522,1200.983 412.227,1151.448 404.190 C 1122.836 399.547,1120.735 399.549,1096.890 404.248 " fill="#1D1E23" stroke="none" fill-rule="evenodd"/></svg>