<svg viewBox="0 0 2400 2400" fill="none" xmlns="http://www.w3.org/2000/svg"><path d="M1038.000 102.337 C 985.222 109.566,962.413 114.167,936.210 122.872 C 846.986 152.513,754.803 221.189,704.180 295.735 C 656.041 366.622,624.047 468.141,624.047 550.000 C 624.047 617.602,650.904 716.934,684.129 772.214 C 709.864 815.033,751.303 863.793,789.895 896.665 L 822.000 924.011 824.561 719.005 C 827.396 492.123,827.405 492.036,854.626 436.298 C 871.571 401.599,917.905 352.089,950.000 334.384 C 1021.819 294.767,1109.134 291.702,1182.132 326.236 C 1231.082 349.393,1272.817 390.698,1299.101 442.000 C 1320.303 483.383,1320.909 490.327,1322.910 714.972 L 1324.771 923.943 1342.563 911.166 C 1367.468 893.281,1431.296 826.345,1448.566 800.000 C 1507.760 709.708,1531.593 611.412,1520.991 501.305 C 1515.702 446.384,1500.730 396.701,1473.461 343.584 C 1413.465 226.715,1300.276 139.653,1172.238 111.888 C 1138.583 104.590,1061.561 99.110,1038.000 102.337 M1043.849 403.492 C 1002.913 412.091,957.900 448.789,937.740 490.000 L 926.000 514.000 924.958 1069.066 L 923.917 1624.132 914.958 1622.023 C 910.031 1620.863,819.715 1601.840,714.254 1579.750 L 522.509 1539.586 461.236 1600.763 L 399.963 1661.941 668.981 1930.986 L 938.000 2200.031 1371.946 2199.015 L 1805.891 2198.000 1836.729 1978.484 C 1853.689 1857.751,1876.678 1692.151,1887.816 1610.484 C 1898.954 1528.818,1908.973 1456.469,1910.081 1449.710 L 1912.096 1437.419 1627.048 1295.946 L 1342.000 1154.472 1285.604 1152.751 L 1229.207 1151.029 1226.604 1090.878 C 1225.172 1057.796,1223.960 914.464,1223.912 772.364 C 1223.814 484.057,1225.635 503.865,1195.346 461.687 C 1165.451 420.060,1094.580 392.836,1043.849 403.492 " fill="#1D1E23" stroke="none" fill-rule="evenodd"/></svg>