<svg viewBox="0 0 2400 2400" fill="none" xmlns="http://www.w3.org/2000/svg"><path d="M1080.000 104.016 C 1012.182 110.566,932.468 141.076,869.572 184.556 C 808.476 226.792,754.028 292.402,720.281 364.453 C 656.221 501.222,670.811 674.390,757.113 801.613 C 774.068 826.608,845.525 900.880,866.350 915.154 L 878.700 923.619 881.394 715.535 C 882.924 597.404,885.885 499.356,888.243 488.725 C 896.298 452.412,919.902 411.973,951.928 379.620 C 985.830 345.370,1019.124 325.124,1063.462 311.796 C 1089.101 304.089,1098.964 303.222,1139.462 305.111 C 1193.133 307.615,1222.840 316.225,1258.891 339.723 C 1307.363 371.318,1345.314 418.399,1362.678 468.481 C 1372.173 495.866,1373.152 505.518,1376.219 602.000 C 1378.038 659.200,1379.845 749.200,1380.236 802.000 C 1380.627 854.800,1382.084 903.069,1383.473 909.264 L 1386.000 920.527 1416.000 894.572 C 1531.849 794.339,1592.095 649.740,1576.340 509.730 C 1551.605 289.906,1386.128 125.124,1168.890 103.990 C 1126.116 99.829,1123.352 99.829,1080.000 104.016 M1093.534 405.647 C 1053.290 415.414,1020.635 441.765,994.250 485.765 L 980.000 509.529 980.000 1066.765 C 980.000 1373.244,979.299 1624.000,978.442 1624.000 C 977.585 1624.000,916.835 1611.510,843.442 1596.244 C 654.826 1557.011,605.706 1549.363,583.059 1555.704 C 559.067 1562.421,528.840 1585.960,514.572 1609.039 C 504.230 1625.766,502.857 1631.720,502.599 1660.966 C 502.393 1684.293,504.220 1697.570,508.816 1706.149 C 525.008 1736.371,886.610 2100.692,953.763 2154.441 C 990.947 2184.203,1010.035 2191.494,1063.206 2196.247 C 1109.957 2200.426,1597.379 2200.611,1682.000 2196.482 C 1741.661 2193.571,1742.168 2193.466,1771.712 2177.908 C 1803.506 2161.164,1836.373 2131.983,1852.702 2106.000 C 1866.670 2083.774,1874.192 2058.660,1885.649 1996.000 C 1898.381 1926.365,1943.091 1611.220,1946.465 1567.329 C 1949.493 1527.926,1943.345 1501.401,1921.522 1459.716 C 1904.177 1426.585,1883.070 1405.881,1840.000 1379.751 C 1804.487 1358.205,1475.880 1194.273,1424.315 1172.378 C 1391.147 1158.295,1357.109 1152.197,1311.000 1152.079 L 1280.000 1152.000 1280.000 834.406 L 1280.000 516.812 1267.757 493.406 C 1243.290 446.629,1199.497 413.489,1150.079 404.353 C 1122.123 399.185,1119.956 399.235,1093.534 405.647 " fill="#1D1E23" stroke="none" fill-rule="evenodd"/></svg>