<svg viewBox="0 0 2400 2400" fill="none" xmlns="http://www.w3.org/2000/svg"><path d="M310.000 648.899 C 289.760 656.097,265.657 675.673,256.101 692.675 C 250.456 702.720,246.243 718.413,244.985 734.087 C 241.898 772.547,249.056 783.424,338.730 876.524 C 462.227 1004.739,693.308 1236.436,793.045 1332.049 C 907.048 1441.338,920.327 1448.975,970.467 1434.085 C 987.544 1429.013,1000.059 1418.945,1058.193 1363.510 C 1095.487 1327.947,1174.609 1250.512,1234.020 1191.433 L 1342.039 1084.014 1585.989 1327.989 L 1829.939 1571.964 1769.757 1632.982 C 1663.271 1740.947,1663.767 1740.187,1679.574 1771.159 C 1695.905 1803.156,1675.970 1800.899,1928.720 1799.366 C 2144.519 1798.058,2154.673 1797.663,2170.000 1790.000 C 2198.291 1775.855,2197.962 1778.858,2197.982 1534.000 C 2198.002 1291.212,2198.225 1293.379,2171.819 1279.907 C 2163.294 1275.558,2152.999 1272.000,2148.942 1272.000 C 2134.247 1272.000,2103.614 1296.510,2037.208 1361.401 L 1969.515 1427.550 1797.758 1255.418 C 1606.040 1063.284,1425.986 888.079,1395.420 863.919 C 1375.624 848.271,1374.720 848.000,1342.241 848.000 C 1312.160 848.000,1307.771 849.035,1293.250 859.555 C 1274.262 873.309,1110.445 1030.635,1012.208 1129.460 L 942.416 1199.670 726.208 984.818 C 488.190 748.294,392.665 657.541,373.128 649.378 C 358.032 643.070,327.051 642.835,310.000 648.899 " fill="#1D1E23" stroke="none" fill-rule="evenodd"/></svg>