<svg viewBox="0 0 2400 2400" fill="none" xmlns="http://www.w3.org/2000/svg"><path d="M1733.591 603.585 C 1711.128 605.075,1694.557 608.187,1690.327 611.709 C 1679.476 620.746,1672.000 638.308,1672.000 654.765 C 1672.000 669.133,1676.135 674.065,1750.975 748.976 L 1829.950 828.025 1586.271 1071.729 L 1342.592 1315.432 1174.620 1149.488 C 1082.235 1058.219,999.061 979.099,989.790 973.665 C 967.227 960.443,926.687 956.336,909.002 965.482 C 882.571 979.150,839.051 1020.235,618.572 1239.659 C 359.533 1497.459,257.500 1603.434,249.199 1623.300 C 240.672 1643.709,241.965 1675.786,252.282 1699.768 C 263.459 1725.751,287.178 1746.375,315.279 1754.544 C 342.884 1762.569,365.283 1759.267,390.131 1743.508 C 400.675 1736.822,529.175 1611.923,675.686 1465.955 L 942.070 1200.560 1110.035 1367.614 C 1212.804 1469.825,1285.565 1539.066,1297.489 1546.000 C 1320.828 1559.572,1353.403 1561.411,1376.474 1550.459 C 1398.841 1539.841,1497.757 1445.087,1743.812 1198.578 L 1969.623 972.350 2046.312 1047.900 C 2108.714 1109.375,2125.643 1123.946,2137.187 1126.111 C 2174.414 1133.095,2193.905 1115.454,2197.956 1071.111 C 2202.625 1019.988,2198.472 639.375,2193.112 627.209 C 2190.497 621.274,2183.409 613.174,2177.361 609.209 C 2167.163 602.524,2151.973 601.970,1968.182 601.585 C 1859.182 601.357,1753.616 602.257,1733.591 603.585 " fill="#1D1E23" stroke="none" fill-rule="evenodd"/></svg>