<svg viewBox="0 0 2400 2400" fill="none" xmlns="http://www.w3.org/2000/svg"><path d="M1704.000 606.909 C 1698.500 607.910,1690.834 611.558,1686.965 615.016 C 1677.358 623.601,1670.343 648.855,1673.771 662.514 C 1675.568 669.672,1704.396 701.789,1753.178 750.982 L 1829.764 828.212 1585.901 1072.099 L 1342.039 1315.986 1232.019 1206.581 C 1079.624 1055.038,1000.808 980.575,983.400 971.694 C 962.036 960.795,929.099 957.735,911.928 965.054 C 887.814 975.332,839.656 1020.292,632.467 1225.953 C 434.670 1422.291,293.433 1567.018,262.218 1605.352 C 248.770 1621.867,246.213 1628.108,244.780 1647.928 C 241.745 1689.876,259.151 1724.500,292.987 1743.824 C 320.881 1759.755,342.017 1762.630,367.943 1754.019 C 392.430 1745.886,426.957 1713.160,738.023 1403.249 L 942.046 1199.983 1036.023 1294.374 C 1171.626 1430.575,1291.874 1544.355,1306.811 1550.596 C 1313.923 1553.568,1330.248 1556.000,1343.088 1556.000 C 1361.905 1556.000,1369.883 1553.794,1384.217 1544.627 C 1410.121 1528.061,1542.612 1400.219,1769.772 1172.601 L 1969.543 972.427 2042.533 1043.987 C 2082.677 1083.345,2121.322 1118.547,2128.412 1122.213 C 2146.117 1131.369,2171.183 1127.755,2182.681 1114.388 C 2199.774 1094.516,2201.176 1071.786,2199.125 847.796 C 2197.052 621.480,2196.883 619.739,2176.000 609.176 C 2168.255 605.259,2115.038 604.227,1940.000 604.604 C 1815.700 604.871,1709.500 605.908,1704.000 606.909 " fill="#1D1E23" stroke="none" fill-rule="evenodd"/></svg>