<svg viewBox="0 0 2400 2400" fill="none" xmlns="http://www.w3.org/2000/svg"><path d="M318.000 643.740 C 298.418 648.508,282.286 658.500,267.182 675.218 C 250.201 694.014,242.491 714.869,242.492 742.000 C 242.494 785.044,235.034 776.615,569.196 1111.119 C 806.932 1349.098,882.553 1422.512,897.785 1430.119 C 923.196 1442.809,958.022 1443.443,983.940 1431.687 C 997.315 1425.620,1045.176 1380.363,1172.019 1253.842 L 1342.158 1084.134 1586.007 1328.007 L 1829.856 1571.880 1750.928 1651.168 L 1672.000 1730.456 1672.000 1749.287 C 1672.000 1765.150,1674.158 1770.472,1685.691 1783.059 L 1699.382 1798.000 1928.691 1799.067 C 2145.081 1800.075,2158.771 1799.719,2171.691 1792.758 C 2179.221 1788.701,2188.671 1779.249,2192.691 1771.753 C 2199.520 1759.021,2200.000 1743.451,2200.000 1534.864 C 2200.000 1292.156,2200.556 1298.457,2177.540 1280.353 C 2165.006 1270.493,2140.720 1269.285,2124.801 1277.730 C 2118.861 1280.882,2081.641 1315.959,2042.091 1355.680 L 1970.182 1427.901 1686.040 1144.180 C 1469.122 927.583,1397.651 858.532,1383.949 852.317 C 1359.746 841.339,1320.374 841.154,1298.263 851.915 C 1287.698 857.056,1222.457 919.409,1112.042 1029.890 L 942.084 1199.951 668.042 926.312 C 402.624 661.284,393.316 652.474,372.274 646.337 C 349.184 639.602,337.327 639.035,318.000 643.740 " fill="#1D1E23" stroke="none" fill-rule="evenodd"/></svg>