<svg viewBox="0 0 2400 2400" fill="none" xmlns="http://www.w3.org/2000/svg"><path d="M1732.632 607.551 C 1685.642 610.333,1678.987 614.485,1673.976 644.143 C 1670.432 665.120,1674.693 670.710,1761.656 759.161 L 1829.653 828.322 1585.847 1072.153 L 1342.040 1315.985 1238.020 1212.568 C 1109.453 1084.748,1012.269 992.046,992.398 978.276 C 983.799 972.316,966.911 965.999,953.054 963.558 C 907.011 955.448,899.863 961.264,641.036 1217.468 C 418.816 1437.434,262.898 1599.488,252.183 1621.622 C 235.551 1655.978,243.921 1696.443,273.851 1726.372 C 309.480 1762.002,347.400 1768.071,385.080 1744.175 C 405.152 1731.446,608.736 1534.161,807.793 1334.540 L 941.587 1200.369 1077.793 1335.228 C 1240.332 1496.160,1299.292 1550.058,1316.578 1553.516 C 1336.775 1557.555,1359.358 1556.376,1373.291 1550.554 C 1394.836 1541.552,1469.843 1470.277,1726.202 1215.205 L 1970.404 972.228 2004.202 1006.522 C 2071.491 1074.797,2127.365 1123.518,2141.394 1126.150 C 2161.840 1129.986,2182.873 1119.414,2191.144 1101.144 C 2197.359 1087.417,2197.980 1065.608,2197.782 868.000 C 2197.551 636.393,2196.425 621.098,2178.864 611.079 C 2172.079 607.207,2123.558 605.913,1972.000 605.561 C 1863.100 605.309,1755.384 606.204,1732.632 607.551 " fill="#1D1E23" stroke="none" fill-rule="evenodd"/></svg>