<svg viewBox="0 0 2400 2400" fill="none" xmlns="http://www.w3.org/2000/svg"><path d="M311.878 645.949 C 288.404 653.437,262.910 675.462,252.267 697.448 C 242.946 716.703,240.483 754.736,247.400 772.610 C 255.279 792.972,303.060 843.564,527.752 1069.458 C 811.291 1354.513,888.891 1428.604,910.776 1435.161 C 945.600 1445.594,974.780 1439.764,1004.000 1416.532 C 1013.900 1408.661,1094.073 1330.689,1182.161 1243.260 L 1342.323 1084.298 1586.136 1328.136 L 1829.950 1571.975 1750.975 1651.024 C 1676.135 1725.935,1672.000 1730.867,1672.000 1745.235 C 1672.000 1762.692,1679.048 1778.085,1693.012 1791.126 L 1702.784 1800.253 1932.572 1799.126 C 2144.240 1798.089,2163.209 1797.444,2173.124 1790.944 C 2198.823 1774.099,2197.875 1782.476,2199.259 1560.181 C 2200.744 1321.752,2199.707 1303.091,2184.104 1287.489 C 2170.838 1274.223,2157.002 1270.171,2137.474 1273.835 C 2125.563 1276.069,2109.423 1289.925,2046.311 1352.101 L 1969.622 1427.651 1763.811 1221.455 C 1650.615 1108.047,1519.836 978.725,1473.191 934.074 C 1394.628 858.869,1386.862 852.525,1367.749 847.940 C 1339.790 841.232,1310.531 845.263,1290.369 858.599 C 1281.366 864.554,1199.300 943.668,1108.000 1034.408 L 942.000 1199.391 674.000 932.394 C 517.648 776.628,398.501 661.042,388.000 654.942 C 365.310 641.761,335.897 638.286,311.878 645.949 " fill="#1D1E23" stroke="none" fill-rule="evenodd"/></svg>