<svg viewBox="0 0 2400 2400" fill="none" xmlns="http://www.w3.org/2000/svg"><path d="M1696.000 613.226 C 1684.452 617.164,1681.024 621.087,1676.426 635.622 C 1671.357 651.645,1671.539 654.533,1678.426 667.431 C 1682.592 675.234,1718.280 714.668,1757.734 755.062 L 1829.469 828.507 1586.013 1071.987 L 1342.557 1315.468 1217.160 1191.929 C 1056.731 1033.876,999.895 981.379,978.885 971.841 C 968.772 967.250,952.958 964.140,939.456 964.088 C 919.722 964.011,913.911 966.004,892.842 980.073 C 861.261 1001.162,703.637 1152.789,512.000 1346.426 C 332.162 1528.141,261.662 1603.803,251.500 1626.000 C 233.980 1664.271,249.388 1710.405,289.250 1739.032 C 314.877 1757.436,335.730 1761.809,361.765 1754.240 C 380.600 1748.765,391.342 1740.284,454.511 1681.024 C 493.805 1644.161,619.667 1520.932,734.203 1407.182 L 942.452 1200.364 1010.226 1268.575 C 1109.544 1368.533,1266.697 1518.745,1291.702 1537.619 C 1312.406 1553.247,1314.720 1554.000,1342.038 1554.000 C 1369.818 1554.000,1371.361 1553.468,1393.823 1536.138 C 1421.816 1514.540,1656.781 1286.139,1837.723 1104.638 L 1969.446 972.509 2033.974 1035.254 C 2112.105 1111.227,2137.572 1130.096,2157.049 1126.442 C 2164.501 1125.044,2175.775 1118.497,2182.103 1111.893 C 2193.345 1100.158,2193.686 1098.500,2197.124 1038.943 C 2201.238 967.673,2197.358 657.338,2192.063 634.107 C 2190.070 625.366,2185.297 615.916,2181.455 613.107 C 2171.710 605.981,1716.918 606.092,1696.000 613.226 " fill="#1D1E23" stroke="none" fill-rule="evenodd"/></svg>