<svg viewBox="0 0 2400 2400" fill="none" xmlns="http://www.w3.org/2000/svg"><path d="M293.732 655.700 C 257.544 676.457,241.950 706.448,244.721 749.961 C 246.135 772.169,248.183 777.417,262.130 794.565 C 308.141 851.140,789.652 1335.239,865.442 1401.121 C 904.587 1435.149,921.480 1442.341,953.410 1438.571 C 964.085 1437.311,980.360 1431.861,989.577 1426.460 C 998.793 1421.058,1081.995 1341.927,1174.471 1250.611 L 1342.607 1084.583 1586.186 1328.186 L 1829.764 1571.788 1753.409 1648.894 C 1711.414 1691.302,1675.746 1730.206,1674.147 1735.348 C 1669.500 1750.290,1675.422 1771.064,1688.612 1786.086 L 1700.829 1800.000 1901.414 1799.716 C 2011.736 1799.559,2117.877 1798.042,2137.282 1796.343 C 2186.994 1791.992,2191.798 1786.779,2196.778 1731.791 C 2198.818 1709.264,2199.927 1605.145,2199.243 1500.416 C 2197.859 1288.343,2198.292 1291.693,2170.572 1278.539 C 2140.534 1264.286,2128.983 1271.255,2043.120 1355.437 L 1969.543 1427.574 1777.771 1235.440 C 1555.878 1013.127,1411.099 872.812,1387.481 857.182 C 1373.308 847.802,1366.797 846.222,1342.328 846.222 C 1318.512 846.222,1310.671 848.019,1295.384 856.978 C 1285.241 862.921,1201.963 941.931,1109.224 1033.595 L 941.417 1199.457 793.708 1051.383 C 572.319 829.445,398.152 661.261,380.253 652.129 C 355.410 639.455,319.468 640.939,293.732 655.700 " fill="#1D1E23" stroke="none" fill-rule="evenodd"/></svg>