<svg viewBox="0 0 2400 2400" fill="none" xmlns="http://www.w3.org/2000/svg"><path d="M315.766 647.793 C 260.060 664.697,229.247 725.158,251.449 774.000 C 263.376 800.239,325.183 865.344,581.919 1122.102 C 887.434 1427.644,906.051 1443.714,948.649 1438.669 C 959.743 1437.355,976.530 1431.761,985.954 1426.239 C 1004.880 1415.147,1089.770 1334.636,1242.021 1183.383 L 1342.041 1084.017 1585.730 1327.730 L 1829.420 1571.444 1757.710 1645.019 C 1682.809 1721.869,1669.118 1739.972,1673.300 1756.635 C 1678.428 1777.066,1693.357 1793.503,1710.045 1797.091 C 1718.820 1798.978,1822.300 1799.955,1940.000 1799.261 C 2147.982 1798.035,2154.450 1797.765,2170.000 1789.645 C 2197.813 1775.121,2197.501 1777.980,2197.682 1536.000 C 2197.865 1291.221,2197.961 1292.134,2170.765 1279.787 C 2161.544 1275.601,2151.048 1272.136,2147.440 1272.088 C 2135.812 1271.932,2094.850 1305.531,2031.420 1367.255 L 1969.484 1427.524 1819.742 1277.364 C 1621.089 1078.158,1411.120 874.844,1388.345 859.640 C 1371.061 848.102,1368.127 847.469,1337.628 848.697 C 1307.227 849.921,1304.183 850.880,1287.628 864.450 C 1264.794 883.167,1074.768 1066.297,1000.288 1141.361 L 942.577 1199.526 730.288 989.006 C 486.153 746.904,396.600 662.099,374.000 651.605 C 357.478 643.933,333.630 642.372,315.766 647.793 " fill="#1D1E23" stroke="none" fill-rule="evenodd"/></svg>