<svg viewBox="0 0 2400 2400" fill="none" xmlns="http://www.w3.org/2000/svg"><path d="M1142.000 106.264 C 1071.171 115.975,1021.498 131.633,966.620 161.548 C 881.875 207.742,802.020 286.229,760.639 364.000 C 730.374 420.880,707.118 500.862,701.598 567.050 L 698.850 600.000 799.050 600.000 L 899.249 600.000 901.918 579.000 C 915.909 468.895,969.848 382.892,1051.445 340.586 C 1106.289 312.151,1133.487 305.925,1200.300 306.513 C 1267.468 307.103,1288.755 311.848,1338.000 337.203 C 1362.279 349.704,1378.733 362.404,1406.195 389.840 C 1438.191 421.805,1445.043 431.336,1465.257 472.000 C 1492.692 527.190,1494.093 536.642,1498.294 695.000 L 1501.079 800.000 950.540 800.000 L 400.000 800.000 400.000 1500.000 L 400.000 2200.000 1200.000 2200.000 L 2000.000 2200.000 2000.000 1500.000 L 2000.000 800.000 1850.000 800.000 L 1700.000 800.000 1699.896 723.000 C 1699.749 615.206,1693.963 532.462,1683.881 494.000 C 1643.741 340.860,1543.993 217.174,1406.207 149.685 C 1341.621 118.050,1297.922 107.928,1218.000 106.090 C 1182.800 105.281,1148.600 105.359,1142.000 106.264 M1244.803 1308.501 C 1314.127 1323.222,1376.159 1386.945,1391.500 1459.197 C 1410.306 1547.776,1367.246 1636.026,1285.294 1676.864 C 1227.363 1705.731,1172.644 1705.792,1115.200 1677.054 C 1038.761 1638.813,998.401 1565.617,1005.642 1478.361 C 1011.944 1402.422,1072.408 1330.799,1148.000 1309.732 C 1171.035 1303.312,1217.580 1302.720,1244.803 1308.501 " fill="#1D1E23" stroke="none" fill-rule="evenodd"/></svg>