<svg viewBox="0 0 2400 2400" fill="none" xmlns="http://www.w3.org/2000/svg"><path d="M1080.000 214.196 C 961.454 241.399,865.676 293.953,781.815 377.815 C 702.060 457.570,648.680 551.138,617.680 665.522 C 605.135 711.810,600.272 796.943,600.114 973.000 L 600.000 1100.000 575.000 1100.069 C 496.859 1100.287,442.376 1132.110,409.681 1196.630 L 400.000 1215.734 400.000 1650.000 L 400.000 2084.266 410.514 2105.015 C 424.809 2133.224,463.415 2172.441,491.762 2187.551 L 515.120 2200.000 1200.000 2200.000 L 1884.880 2200.000 1909.440 2187.072 C 1940.295 2170.830,1970.175 2140.861,1987.000 2109.281 L 2000.000 2084.880 2000.000 1650.000 L 2000.000 1215.120 1987.083 1190.885 C 1970.011 1158.855,1942.813 1131.554,1912.963 1116.486 L 1888.683 1104.229 1343.717 1101.456 L 798.752 1098.682 801.589 942.341 C 805.722 714.616,807.623 701.026,846.125 624.000 C 887.148 541.931,947.993 482.198,1033.069 440.471 C 1093.944 410.614,1107.751 408.000,1204.602 408.000 C 1283.871 408.000,1288.811 408.460,1316.762 418.448 C 1388.783 444.185,1431.513 471.930,1498.410 536.395 C 1525.207 562.218,1552.638 586.193,1559.368 589.673 C 1573.823 597.148,1614.158 598.071,1636.311 591.434 C 1658.117 584.901,1677.685 567.210,1689.639 543.221 C 1712.818 496.706,1698.281 456.114,1634.333 388.792 C 1540.112 289.599,1412.643 224.341,1282.000 208.412 C 1262.200 205.998,1218.100 204.143,1184.000 204.291 C 1133.456 204.509,1114.240 206.340,1080.000 214.196 " fill="#1D1E23" stroke="none" fill-rule="evenodd"/></svg>