<svg viewBox="0 0 2400 2400" fill="none" xmlns="http://www.w3.org/2000/svg"><path d="M1094.000 114.636 C 946.677 146.120,801.643 263.575,745.328 397.007 C 720.844 455.021,700.063 541.236,700.016 585.000 L 700.000 600.000 799.451 600.000 L 898.902 600.000 903.897 569.000 C 917.593 483.989,954.188 414.584,1009.378 368.948 C 1034.355 348.294,1085.368 322.520,1117.840 314.147 C 1146.207 306.833,1240.640 305.744,1272.803 312.360 C 1323.226 322.733,1388.787 365.521,1428.532 413.997 C 1449.554 439.636,1481.622 503.622,1487.672 532.000 C 1492.071 552.633,1499.684 700.161,1499.902 769.000 L 1500.000 800.000 950.000 800.000 L 400.000 800.000 400.000 1500.000 L 400.000 2200.000 1200.000 2200.000 L 2000.000 2200.000 2000.000 1500.000 L 2000.000 800.000 1850.561 800.000 L 1701.123 800.000 1698.737 685.000 C 1697.425 621.750,1694.428 556.098,1692.077 539.106 C 1673.258 403.095,1584.726 263.599,1467.957 185.972 C 1411.845 148.668,1344.602 120.462,1292.000 112.163 C 1252.560 105.940,1127.374 107.504,1094.000 114.636 M1266.983 1315.246 C 1328.093 1338.465,1380.622 1401.577,1392.460 1466.000 C 1413.741 1581.810,1319.588 1696.292,1202.000 1697.583 C 1176.135 1697.867,1164.014 1695.738,1138.780 1686.481 C 1065.503 1659.599,1018.904 1603.103,1007.708 1527.570 C 1001.619 1486.496,1007.387 1450.884,1026.339 1412.530 C 1051.297 1362.023,1104.969 1318.797,1156.000 1308.105 C 1182.731 1302.505,1243.791 1306.433,1266.983 1315.246 " fill="#1D1E23" stroke="none" fill-rule="evenodd"/></svg>