<svg viewBox="0 0 2400 2400" fill="none" xmlns="http://www.w3.org/2000/svg"><path d="M1088.000 212.399 C 1029.502 223.847,927.588 267.656,868.522 306.744 C 819.896 338.924,741.061 418.667,706.821 470.308 C 663.298 535.952,623.440 628.910,612.171 691.059 C 604.558 733.037,600.213 833.142,600.104 969.000 L 600.000 1100.000 579.000 1100.069 C 552.460 1100.157,509.596 1109.150,486.029 1119.575 C 463.330 1129.616,428.996 1163.563,412.574 1192.203 L 400.075 1214.000 400.075 1650.000 L 400.075 2086.000 411.599 2106.000 C 426.395 2131.678,468.322 2173.605,494.000 2188.401 L 514.000 2199.925 1200.000 2199.925 L 1886.000 2199.925 1907.935 2187.348 C 1935.998 2171.256,1971.256 2135.998,1987.348 2107.935 L 1999.925 2086.000 1999.925 1650.000 L 1999.925 1214.000 1987.426 1192.203 C 1971.458 1164.354,1939.646 1132.542,1911.797 1116.574 L 1890.000 1104.075 1696.000 1104.035 C 1589.300 1104.013,1343.775 1102.797,1150.389 1101.334 L 798.777 1098.672 801.527 974.336 C 805.472 796.000,810.410 721.994,820.557 689.126 C 839.410 628.064,888.131 550.350,933.059 509.678 C 975.155 471.570,1046.590 430.553,1094.000 417.269 C 1121.418 409.586,1212.620 406.368,1266.431 411.185 C 1302.943 414.453,1316.624 417.659,1343.188 429.170 C 1385.937 447.696,1433.936 479.587,1477.467 518.387 C 1559.603 591.598,1566.391 596.000,1597.146 596.000 C 1642.180 596.000,1678.308 571.646,1693.920 530.765 C 1707.195 496.005,1697.804 466.929,1656.527 414.985 C 1577.830 315.954,1433.309 232.995,1306.746 214.203 C 1260.858 207.389,1119.555 206.224,1088.000 212.399 " fill="#1D1E23" stroke="none" fill-rule="evenodd"/></svg>