<svg viewBox="0 0 2400 2400" fill="none" xmlns="http://www.w3.org/2000/svg"><path d="M1138.000 104.288 C 1050.578 116.269,953.858 157.790,886.485 212.260 C 821.557 264.753,774.101 327.918,739.779 407.528 C 703.621 491.399,704.868 533.150,744.649 570.552 C 773.282 597.473,804.632 605.020,842.393 594.083 C 877.451 583.929,893.791 564.980,914.945 509.946 C 935.370 456.810,956.102 424.241,993.673 386.270 C 1065.931 313.243,1182.686 282.971,1278.540 312.410 C 1366.224 339.339,1429.205 392.045,1467.631 470.651 C 1494.563 525.745,1496.492 538.454,1498.860 676.401 L 1500.961 798.802 1026.615 800.913 L 552.269 803.024 518.338 819.833 C 465.566 845.975,432.906 880.918,411.632 934.000 L 402.014 958.000 400.842 1462.000 C 400.197 1739.200,401.256 1986.221,403.195 2010.936 C 406.344 2051.075,408.329 2059.127,421.792 2086.368 C 441.800 2126.851,473.238 2158.244,513.893 2178.337 C 541.415 2191.939,549.138 2193.851,587.325 2196.516 C 610.796 2198.154,886.500 2199.494,1200.000 2199.494 C 1513.500 2199.494,1789.204 2198.154,1812.675 2196.516 C 1850.862 2193.851,1858.585 2191.939,1886.107 2178.337 C 1926.762 2158.244,1958.200 2126.851,1978.208 2086.368 C 1991.671 2059.127,1993.656 2051.075,1996.805 2010.936 C 1998.744 1986.221,1999.803 1739.200,1999.158 1462.000 L 1997.986 958.000 1988.368 934.000 C 1967.952 883.058,1934.932 846.705,1886.959 822.356 C 1854.346 805.802,1818.331 800.313,1741.000 800.108 L 1700.000 800.000 1699.905 697.000 C 1699.770 550.253,1696.223 512.914,1676.808 453.888 C 1634.465 325.158,1559.651 232.067,1446.000 166.694 C 1358.476 116.349,1234.008 91.129,1138.000 104.288 M1224.105 1304.228 C 1292.729 1312.789,1347.761 1352.026,1378.568 1414.361 L 1394.000 1445.585 1394.000 1500.000 L 1394.000 1554.415 1378.496 1585.786 C 1351.229 1640.955,1305.160 1678.423,1245.476 1693.968 C 1158.766 1716.554,1063.182 1670.114,1021.092 1584.952 L 1006.000 1554.415 1006.000 1500.000 L 1006.000 1445.585 1021.432 1414.361 C 1052.175 1352.155,1119.390 1305.084,1184.105 1300.438 C 1187.463 1300.197,1205.463 1301.903,1224.105 1304.228 " fill="#1D1E23" stroke="none" fill-rule="evenodd"/></svg>