<svg viewBox="0 0 2400 2400" fill="none" xmlns="http://www.w3.org/2000/svg"><path d="M1144.000 202.786 C 1004.524 217.789,877.855 278.184,780.132 376.276 C 694.318 462.414,637.620 568.159,611.067 691.590 C 603.564 726.466,602.649 746.975,601.121 914.498 L 599.438 1098.996 556.478 1100.766 C 518.944 1102.312,510.265 1104.081,487.759 1114.769 C 454.914 1130.367,430.184 1155.065,414.434 1188.000 L 402.000 1214.000 402.000 1650.000 L 402.000 2086.000 413.194 2110.000 C 427.886 2141.500,458.693 2172.439,489.582 2186.715 L 514.000 2198.000 1200.000 2198.000 L 1886.000 2198.000 1912.000 2185.622 C 1945.044 2169.890,1969.890 2145.044,1985.622 2112.000 L 1998.000 2086.000 1998.000 1650.000 L 1998.000 1214.000 1985.622 1188.000 C 1969.890 1154.956,1945.044 1130.110,1912.000 1114.378 L 1886.000 1102.000 1342.707 1100.930 L 799.413 1099.860 801.144 922.930 C 802.550 779.183,804.068 741.124,809.235 720.000 C 829.964 635.263,870.790 563.984,930.687 507.953 C 980.262 461.578,1038.016 429.946,1107.298 411.223 C 1149.836 399.728,1240.154 398.811,1286.000 409.409 C 1372.828 429.481,1453.700 479.207,1508.899 546.462 C 1542.687 587.629,1561.101 598.028,1600.000 597.907 C 1635.903 597.796,1655.668 589.006,1677.586 563.399 C 1694.035 544.183,1699.984 526.738,1699.890 498.000 C 1699.800 470.557,1690.172 451.622,1655.039 409.791 C 1579.280 319.591,1466.621 249.265,1350.311 219.569 C 1288.219 203.715,1201.183 196.635,1144.000 202.786 " fill="#1D1E23" stroke="none" fill-rule="evenodd"/></svg>