<svg viewBox="0 0 2400 2400" fill="none" xmlns="http://www.w3.org/2000/svg"><path d="M1134.000 104.581 C 1058.060 114.260,964.657 152.342,901.937 199.196 C 864.719 227.000,817.797 274.832,791.280 312.000 C 756.424 360.855,719.571 444.830,713.479 489.280 C 705.199 549.686,760.226 605.224,822.037 598.845 C 869.284 593.968,895.721 568.991,913.955 512.000 C 929.071 464.755,951.996 427.780,989.879 389.541 C 1020.688 358.443,1031.589 350.358,1064.000 334.564 C 1156.728 289.379,1241.322 288.782,1331.841 332.674 C 1368.504 350.453,1378.219 357.501,1410.359 389.641 C 1442.513 421.795,1449.538 431.480,1467.311 468.159 C 1496.558 528.520,1500.000 551.703,1500.000 688.347 L 1500.000 799.809 1029.000 800.905 L 558.000 802.000 534.000 811.568 C 465.918 838.710,418.212 893.062,404.420 959.197 C 398.197 989.038,398.197 2010.962,404.420 2040.803 C 420.053 2115.765,484.235 2179.947,559.197 2195.580 C 589.114 2201.819,1810.886 2201.819,1840.803 2195.580 C 1915.765 2179.947,1979.947 2115.765,1995.580 2040.803 C 2001.803 2010.962,2001.803 989.038,1995.580 959.197 C 1981.755 892.905,1933.261 837.781,1866.000 811.902 C 1845.088 803.856,1832.909 802.440,1771.354 800.895 L 1700.708 799.123 1698.972 662.561 C 1697.298 530.773,1696.867 524.560,1686.635 484.814 C 1673.487 433.738,1652.871 383.230,1629.156 344.000 C 1525.830 173.070,1331.991 79.345,1134.000 104.581 M1266.174 1312.372 C 1324.845 1334.235,1365.108 1374.388,1388.135 1434.000 C 1395.716 1453.628,1397.405 1465.651,1397.405 1500.000 C 1397.405 1534.349,1395.716 1546.372,1388.135 1566.000 C 1343.839 1680.672,1222.347 1730.908,1113.438 1679.584 C 1068.489 1658.402,1031.642 1617.198,1011.865 1566.000 C 998.535 1531.489,998.562 1468.375,1011.923 1434.000 C 1029.004 1390.053,1053.929 1358.066,1089.285 1334.722 C 1108.937 1321.747,1146.198 1306.455,1168.000 1302.417 C 1190.086 1298.327,1242.837 1303.676,1266.174 1312.372 " fill="#1D1E23" stroke="none" fill-rule="evenodd"/></svg>