<svg viewBox="0 0 2400 2400" fill="none" xmlns="http://www.w3.org/2000/svg"><path d="M1130.994 204.321 C 1113.941 206.423,1079.544 213.414,1054.557 219.856 C 856.461 270.933,697.848 420.952,631.933 619.580 C 604.014 703.710,603.762 706.113,601.200 913.000 L 598.884 1100.000 574.442 1100.023 C 495.991 1100.098,444.167 1128.789,414.166 1188.759 L 400.000 1217.075 400.000 1649.899 L 400.000 2082.722 412.784 2108.361 C 429.363 2141.611,460.821 2172.943,492.827 2188.085 L 518.000 2199.994 1200.000 2199.994 L 1882.000 2199.994 1906.979 2188.176 C 1941.425 2171.881,1968.971 2144.948,1985.995 2110.920 L 2000.000 2082.925 2000.000 1650.000 L 2000.000 1217.075 1985.834 1188.759 C 1969.518 1156.145,1942.978 1129.959,1909.771 1113.713 L 1888.005 1103.064 1344.003 1100.930 L 800.000 1098.796 800.248 1006.398 C 800.384 955.579,801.999 870.800,803.838 818.000 C 806.913 729.685,808.034 719.438,817.837 690.000 C 840.825 620.964,873.065 567.220,919.784 520.051 C 954.718 484.782,986.449 462.271,1032.974 439.753 C 1096.365 409.071,1111.782 405.995,1202.000 406.036 L 1282.000 406.073 1320.000 419.260 C 1393.163 444.650,1442.258 477.306,1505.653 542.748 C 1553.690 592.337,1562.902 597.537,1602.000 597.136 C 1644.943 596.695,1674.695 577.327,1692.438 538.262 C 1713.404 492.102,1695.714 450.244,1624.978 378.643 C 1538.511 291.117,1427.235 232.313,1309.669 212.018 C 1255.759 202.711,1172.993 199.146,1130.994 204.321 " fill="#1D1E23" stroke="none" fill-rule="evenodd"/></svg>