<svg viewBox="0 0 2400 2400" fill="none" xmlns="http://www.w3.org/2000/svg"><path d="M1098.000 112.128 C 1035.755 125.208,977.800 150.347,920.032 189.327 C 883.865 213.730,822.347 272.382,795.951 307.625 C 744.347 376.525,709.199 472.536,701.728 565.000 L 698.900 600.000 799.057 600.000 L 899.215 600.000 902.073 575.000 C 908.545 518.396,934.551 452.018,967.362 408.356 C 1000.633 364.082,1059.055 327.946,1123.857 311.559 C 1152.969 304.197,1165.043 303.319,1211.801 305.161 C 1269.249 307.425,1287.309 311.515,1329.074 331.721 C 1389.414 360.915,1435.467 407.983,1468.284 474.000 C 1492.937 523.594,1494.748 536.406,1498.485 687.624 L 1501.262 800.000 950.631 800.000 L 400.000 800.000 400.000 1500.000 L 400.000 2200.000 1200.000 2200.000 L 2000.000 2200.000 2000.000 1500.000 L 2000.000 800.000 1850.603 800.000 L 1701.206 800.000 1698.792 677.000 C 1696.168 543.340,1693.863 522.399,1675.447 464.907 C 1658.266 411.273,1639.704 372.325,1610.209 328.020 C 1533.281 212.465,1414.492 131.821,1288.961 109.931 C 1239.954 101.385,1143.863 102.490,1098.000 112.128 M1256.000 1310.699 C 1318.125 1327.626,1369.586 1380.425,1389.554 1447.726 C 1398.445 1477.693,1397.925 1529.102,1388.422 1559.636 C 1360.409 1649.640,1261.418 1712.160,1171.373 1696.719 C 1117.032 1687.401,1062.028 1650.988,1032.657 1604.890 C 1010.615 1570.292,1003.021 1539.584,1004.648 1491.613 C 1006.019 1451.161,1006.857 1447.668,1022.980 1415.130 C 1067.478 1325.329,1159.059 1284.286,1256.000 1310.699 " fill="#1D1E23" stroke="none" fill-rule="evenodd"/></svg>