<svg viewBox="0 0 2400 2400" fill="none" xmlns="http://www.w3.org/2000/svg"><path d="M1111.458 208.144 C 1042.544 217.800,937.630 259.603,871.856 303.614 C 813.001 342.994,746.681 409.705,705.458 470.994 C 663.657 533.141,623.774 627.043,612.304 690.318 C 604.469 733.535,600.167 830.943,600.082 967.000 L 600.000 1100.000 577.000 1100.069 C 547.113 1100.160,505.280 1109.144,483.856 1120.073 C 458.735 1132.889,429.372 1162.247,413.769 1190.148 L 400.000 1214.769 400.038 1650.384 L 400.075 2086.000 412.652 2107.935 C 428.744 2135.998,464.002 2171.256,492.065 2187.348 L 514.000 2199.925 1199.440 2199.962 L 1884.880 2200.000 1908.565 2187.376 C 1936.404 2172.538,1975.617 2132.384,1990.015 2103.971 L 2000.000 2084.266 2000.000 1649.693 L 2000.000 1215.120 1987.527 1191.717 C 1972.651 1163.808,1937.197 1128.787,1909.784 1114.925 L 1890.000 1104.921 1345.000 1101.945 L 800.000 1098.968 800.123 1042.484 C 800.341 941.801,807.406 750.745,811.974 722.000 C 821.568 661.623,862.892 582.971,912.892 529.923 C 949.955 490.601,989.734 462.324,1045.379 435.742 C 1097.736 410.732,1126.291 406.479,1225.301 408.946 C 1292.208 410.613,1300.166 411.606,1325.181 421.412 C 1391.679 447.480,1431.498 474.180,1502.000 539.974 C 1528.400 564.611,1556.291 587.504,1563.980 590.848 C 1585.241 600.092,1630.295 596.111,1652.577 583.019 C 1680.879 566.390,1700.049 533.005,1699.961 500.497 C 1699.801 441.184,1589.310 328.321,1473.222 268.891 C 1386.739 224.617,1317.902 208.147,1210.000 205.915 C 1170.400 205.096,1126.056 206.099,1111.458 208.144 " fill="#1D1E23" stroke="none" fill-rule="evenodd"/></svg>