<svg viewBox="0 0 2400 2400" fill="none" xmlns="http://www.w3.org/2000/svg"><path d="M1142.543 104.103 C 1020.272 118.094,908.112 178.523,819.777 278.000 C 752.098 354.216,709.812 456.992,701.468 565.551 L 698.820 600.000 798.893 600.000 L 898.967 600.000 901.710 575.755 C 911.198 491.891,950.036 412.848,1002.923 369.767 C 1032.101 345.998,1080.727 321.615,1119.482 311.318 C 1163.072 299.736,1234.615 299.758,1277.420 311.367 C 1368.834 336.158,1444.750 405.847,1480.622 497.902 C 1492.135 527.448,1493.384 535.406,1496.324 598.000 C 1498.081 635.400,1499.627 696.150,1499.759 733.000 L 1500.000 800.000 950.000 800.000 L 400.000 800.000 400.000 1500.000 L 400.000 2200.000 1200.000 2200.000 L 2000.000 2200.000 2000.000 1500.000 L 2000.000 800.000 1850.448 800.000 L 1700.896 800.000 1698.809 673.000 C 1696.597 538.401,1695.022 524.977,1673.580 458.000 C 1617.712 283.487,1473.850 149.009,1303.004 111.596 C 1261.678 102.547,1186.731 99.047,1142.543 104.103 M1241.079 1305.877 C 1393.199 1338.112,1450.438 1529.760,1340.658 1639.290 C 1260.466 1719.299,1139.534 1719.299,1059.342 1639.290 C 982.304 1562.428,982.792 1437.848,1060.434 1360.206 C 1110.136 1310.504,1173.287 1291.512,1241.079 1305.877 " fill="#1D1E23" stroke="none" fill-rule="evenodd"/></svg>