<svg viewBox="0 0 2400 2400" fill="none" xmlns="http://www.w3.org/2000/svg"><path d="M1108.401 109.925 C 943.537 147.389,810.926 251.252,745.973 393.782 C 701.224 491.978,706.341 548.414,763.081 582.463 C 787.514 597.125,810.489 601.097,837.437 595.318 C 869.154 588.516,883.482 571.959,919.816 500.120 C 956.168 428.247,974.904 403.210,1018.870 367.753 C 1077.878 320.164,1138.049 301.217,1217.793 305.115 C 1264.203 307.383,1287.478 313.484,1328.090 334.025 C 1399.606 370.199,1444.639 419.309,1478.779 498.357 C 1490.336 525.116,1495.527 577.770,1498.704 700.474 L 1501.254 798.948 1025.627 801.849 L 550.000 804.749 518.079 821.375 C 474.824 843.903,439.284 879.533,416.738 922.972 L 399.624 955.944 400.961 1492.972 C 402.201 1990.635,402.813 2031.759,409.311 2054.000 C 421.685 2096.347,452.836 2136.853,495.102 2165.553 C 546.634 2200.546,491.320 2198.000,1200.000 2198.000 C 1910.564 2198.000,1853.584 2200.691,1906.000 2164.653 C 1948.764 2135.250,1979.954 2092.956,1992.641 2047.166 C 1996.171 2034.426,1997.788 1891.756,1998.910 1493.885 L 2000.422 957.770 1983.576 924.112 C 1954.066 865.152,1896.937 818.501,1841.679 808.239 C 1830.503 806.163,1794.274 803.204,1761.171 801.662 L 1700.982 798.859 1698.776 668.430 C 1696.427 529.550,1694.073 508.800,1673.551 446.099 C 1659.760 403.965,1625.059 337.009,1598.906 302.071 C 1527.778 207.049,1421.252 139.908,1300.000 113.676 C 1257.498 104.482,1142.281 102.226,1108.401 109.925 M1240.803 1308.407 C 1294.273 1319.523,1343.830 1357.043,1375.297 1410.233 L 1392.000 1438.465 1392.000 1500.000 L 1392.000 1561.535 1375.321 1589.767 C 1354.052 1625.770,1316.481 1662.765,1286.303 1677.420 C 1249.607 1695.241,1206.548 1702.746,1173.490 1697.084 C 1114.252 1686.937,1058.323 1646.597,1024.703 1589.767 L 1008.000 1561.535 1008.010 1499.767 L 1008.021 1438.000 1022.427 1414.000 C 1051.846 1364.992,1087.387 1332.761,1134.000 1312.818 C 1156.941 1303.003,1205.219 1301.009,1240.803 1308.407 " fill="#1D1E23" stroke="none" fill-rule="evenodd"/></svg>