<svg viewBox="0 0 2400 2400" fill="none" xmlns="http://www.w3.org/2000/svg"><path d="M1134.000 104.581 C 1063.047 113.625,982.519 144.686,917.628 188.040 C 876.823 215.301,811.391 281.186,784.588 322.000 C 735.575 396.634,707.411 478.712,701.307 564.708 L 698.802 600.000 798.592 600.000 L 898.381 600.000 903.216 561.724 C 912.214 490.483,947.087 419.572,994.381 376.347 C 1050.681 324.893,1141.076 295.104,1221.582 301.475 C 1350.607 311.685,1452.152 396.251,1491.189 526.000 C 1495.808 541.352,1497.609 575.513,1498.942 673.000 L 1500.678 800.000 950.339 800.000 L 400.000 800.000 400.000 1500.000 L 400.000 2200.000 1200.000 2200.000 L 2000.000 2200.000 2000.000 1500.000 L 2000.000 800.000 1850.000 800.000 L 1700.000 800.000 1700.000 692.289 C 1700.000 633.049,1698.082 570.499,1695.737 553.289 C 1663.648 317.771,1485.882 132.829,1264.000 104.128 C 1228.086 99.482,1172.483 99.676,1134.000 104.581 M1238.265 1304.335 C 1318.500 1318.990,1383.894 1387.175,1396.697 1469.530 C 1415.333 1589.402,1320.942 1700.000,1200.000 1700.000 C 1103.187 1700.000,1018.282 1626.822,1003.303 1530.470 C 993.332 1466.333,1013.201 1406.089,1059.645 1359.645 C 1108.484 1310.807,1169.781 1291.826,1238.265 1304.335 " fill="#1D1E23" stroke="none" fill-rule="evenodd"/></svg>