<svg viewBox="0 0 2400 2400" fill="none" xmlns="http://www.w3.org/2000/svg"><path d="M1154.000 102.593 C 1078.923 110.359,992.440 141.662,923.791 185.919 C 848.726 234.312,782.327 312.458,744.506 396.922 C 703.328 488.883,704.455 535.799,748.755 573.718 C 772.631 594.155,802.176 602.259,831.546 596.426 C 875.986 587.600,882.836 579.293,932.253 474.306 C 950.983 434.515,956.267 427.165,991.410 392.019 C 1035.367 348.058,1073.295 325.558,1126.853 311.672 C 1167.042 301.252,1231.435 300.412,1268.000 309.830 C 1327.810 325.235,1394.625 367.386,1429.404 411.654 C 1452.240 440.721,1477.184 486.795,1485.897 516.000 C 1493.150 540.313,1499.638 644.532,1499.863 740.343 L 1500.000 798.686 1025.449 801.439 L 550.898 804.192 516.420 822.000 C 470.136 845.905,440.667 875.363,418.706 919.681 L 402.000 953.394 400.846 1459.697 C 400.126 1775.977,401.200 1982.942,403.710 2011.142 C 407.035 2048.516,409.923 2060.904,420.494 2083.142 C 438.020 2120.010,480.305 2162.129,517.587 2179.853 C 542.728 2191.806,549.996 2193.263,599.587 2196.288 C 670.498 2200.614,1729.502 2200.614,1800.413 2196.288 C 1850.004 2193.263,1857.272 2191.806,1882.413 2179.853 C 1919.749 2162.103,1961.977 2120.015,1979.559 2083.031 C 1990.408 2060.209,1992.985 2048.829,1996.315 2009.031 C 1998.708 1980.433,1999.809 1764.460,1999.125 1458.000 L 1998.000 954.000 1983.065 922.721 C 1956.871 867.863,1906.404 824.714,1850.526 809.401 C 1839.237 806.307,1800.750 802.650,1765.000 801.274 L 1700.000 798.772 1699.931 692.386 C 1699.831 538.715,1693.543 492.391,1662.268 414.902 C 1597.819 255.220,1462.491 144.451,1292.157 111.957 C 1252.856 104.460,1182.232 99.673,1154.000 102.593 M1251.067 1310.460 C 1302.208 1323.747,1344.913 1357.473,1374.471 1407.916 L 1392.000 1437.833 1392.000 1500.000 L 1392.000 1562.167 1374.410 1592.084 C 1340.057 1650.511,1289.951 1686.587,1229.000 1696.779 C 1150.840 1709.849,1070.206 1668.433,1025.663 1592.341 L 1008.000 1562.167 1008.000 1500.000 L 1008.000 1437.833 1025.663 1407.659 C 1054.748 1357.972,1102.086 1320.072,1152.419 1306.175 C 1176.460 1299.536,1215.559 1301.235,1251.067 1310.460 " fill="#1D1E23" stroke="none" fill-rule="evenodd"/></svg>