<svg viewBox="0 0 2400 2400" fill="none" xmlns="http://www.w3.org/2000/svg"><path d="M1130.000 108.133 C 1087.792 112.068,1040.755 127.333,982.000 156.163 C 899.930 196.434,830.931 256.277,782.312 329.354 C 743.761 387.299,716.000 459.908,716.000 502.792 C 716.000 560.197,775.168 606.595,834.289 595.550 C 868.302 589.196,883.117 572.047,925.473 490.000 C 955.079 432.650,980.767 398.900,1016.451 370.470 C 1084.084 316.585,1153.103 297.249,1240.189 307.788 C 1326.546 318.239,1411.209 375.664,1455.865 454.076 C 1488.933 512.141,1493.481 539.102,1498.424 706.337 L 1501.153 798.674 1185.577 801.334 C 1012.009 802.797,798.000 803.996,710.000 803.997 L 550.000 804.000 516.789 822.758 C 475.607 846.017,436.154 886.259,414.997 926.585 L 400.000 955.170 400.338 1410.585 C 400.524 1661.063,401.950 1907.400,403.507 1958.000 C 406.240 2046.808,406.717 2050.822,417.262 2073.686 C 423.270 2086.713,434.893 2106.231,443.093 2117.060 C 461.122 2140.872,514.287 2181.939,534.995 2188.048 C 562.107 2196.048,767.538 2199.624,1200.000 2199.624 C 1629.050 2199.624,1837.936 2196.047,1864.281 2188.248 C 1900.532 2177.518,1957.667 2123.837,1979.258 2080.222 L 1994.000 2050.445 1996.555 1916.222 C 1997.960 1842.400,1999.310 1595.656,1999.555 1367.903 L 2000.000 953.806 1981.849 921.903 C 1946.857 860.400,1890.896 816.922,1835.806 808.436 C 1821.613 806.250,1785.530 803.229,1755.622 801.724 L 1701.244 798.986 1698.619 670.493 C 1695.201 503.240,1687.974 464.371,1644.365 378.718 C 1614.816 320.678,1597.816 297.262,1552.271 251.868 C 1462.381 162.273,1362.510 116.466,1238.381 107.898 C 1180.156 103.879,1175.522 103.889,1130.000 108.133 M1236.437 1308.083 C 1288.313 1317.921,1337.672 1353.937,1372.703 1407.513 L 1392.000 1437.026 1392.000 1500.000 L 1392.000 1562.974 1372.603 1592.487 C 1329.840 1657.551,1279.522 1690.669,1211.773 1698.341 C 1147.843 1705.581,1073.347 1662.831,1027.314 1592.487 L 1008.000 1562.974 1008.000 1500.000 L 1008.000 1437.026 1027.397 1407.513 C 1060.934 1356.488,1108.435 1318.371,1150.984 1308.343 C 1172.045 1303.379,1211.009 1303.261,1236.437 1308.083 " fill="#1D1E23" stroke="none" fill-rule="evenodd"/></svg>