<svg viewBox="0 0 2400 2400" fill="none" xmlns="http://www.w3.org/2000/svg"><path d="M1132.000 204.488 C 1093.358 208.932,1030.307 224.727,991.403 239.710 C 909.547 271.234,847.208 312.276,781.742 377.742 C 709.209 450.275,663.780 523.611,631.933 619.580 C 604.014 703.710,603.762 706.113,601.200 913.000 L 598.884 1100.000 499.442 1100.000 L 400.000 1100.000 400.000 1650.000 L 400.000 2200.000 1200.000 2200.000 L 2000.000 2200.000 2000.000 1650.000 L 2000.000 1100.000 1399.349 1100.000 L 798.699 1100.000 801.269 923.000 C 803.634 760.111,804.524 743.298,812.430 712.105 C 842.482 593.548,920.173 496.216,1028.000 442.037 C 1085.088 413.352,1109.380 407.456,1180.060 405.133 C 1217.968 403.886,1253.771 404.898,1272.060 407.734 C 1307.169 413.177,1368.094 436.694,1409.039 460.607 C 1443.589 480.785,1507.235 541.317,1530.000 575.649 L 1546.000 599.779 1650.000 599.828 C 1707.200 599.855,1756.370 598.375,1759.267 596.538 C 1769.900 589.795,1722.308 497.133,1677.823 437.966 C 1651.616 403.109,1586.551 339.718,1552.000 315.381 C 1427.751 227.861,1276.355 187.887,1132.000 204.488 " fill="#1D1E23" stroke="none" fill-rule="evenodd"/></svg>