<svg viewBox="0 0 2400 2400" fill="none" xmlns="http://www.w3.org/2000/svg"><path d="M1100.000 308.211 C 1050.961 311.776,979.374 327.054,920.000 346.628 C 866.975 364.108,761.622 415.469,712.000 448.031 C 330.687 698.243,194.001 1180.644,389.561 1586.000 C 492.211 1798.772,659.525 1953.543,878.533 2038.318 C 1175.001 2153.077,1508.029 2102.561,1756.141 1905.197 C 1906.417 1785.658,2012.233 1626.801,2065.991 1440.031 C 2083.694 1378.525,2088.453 1350.577,2089.212 1303.658 C 2089.823 1265.850,2089.437 1264.006,2077.418 1247.286 C 2058.849 1221.455,2032.652 1206.675,2001.972 1204.722 C 1972.887 1202.870,1954.987 1207.808,1932.966 1223.760 C 1912.254 1238.764,1901.966 1261.774,1887.405 1325.667 C 1850.032 1489.658,1782.095 1612.203,1672.000 1714.214 C 1556.790 1820.964,1418.859 1881.245,1254.328 1896.751 C 1196.081 1902.240,1124.784 1897.548,1060.697 1884.008 C 773.944 1823.426,546.065 1577.032,507.743 1286.129 C 504.739 1263.331,503.793 1221.785,505.147 1172.129 C 506.895 1107.995,509.063 1086.442,517.246 1051.807 C 530.917 993.953,544.933 953.993,570.174 900.909 C 639.224 755.691,754.910 639.799,900.000 570.494 C 1005.248 520.221,1100.250 501.154,1225.861 505.092 C 1380.638 509.944,1507.875 556.920,1639.486 657.802 C 1660.935 674.243,1681.646 691.189,1685.510 695.459 C 1692.334 702.999,1689.558 706.279,1588.987 809.446 C 1532.035 867.869,1482.160 921.756,1478.154 929.195 C 1468.655 946.833,1472.076 965.417,1488.487 985.326 L 1500.947 1000.442 1781.473 999.221 C 2084.158 997.904,2072.016 998.796,2090.856 976.487 L 2099.712 966.000 2099.856 683.291 L 2100.000 400.582 2085.105 388.305 C 2068.881 374.932,2050.010 369.572,2035.348 374.174 C 2030.206 375.788,1983.700 418.958,1932.000 470.109 L 1838.000 563.110 1810.000 539.141 C 1620.586 376.995,1424.782 302.198,1196.000 304.593 C 1166.300 304.903,1123.100 306.532,1100.000 308.211 M1149.675 809.542 C 1138.496 814.748,1122.568 825.980,1114.278 834.503 L 1099.207 850.000 1101.154 1054.000 C 1103.141 1262.270,1104.827 1285.342,1119.232 1301.451 C 1130.629 1314.197,1192.776 1354.408,1303.899 1420.938 C 1438.563 1501.561,1479.030 1522.024,1503.624 1521.930 C 1538.989 1521.795,1572.695 1487.088,1572.642 1450.862 C 1572.580 1407.697,1567.897 1404.004,1341.000 1268.173 L 1252.000 1214.894 1251.970 1062.447 C 1251.939 906.486,1248.589 849.600,1238.535 834.254 C 1232.014 824.303,1188.584 799.981,1177.440 800.039 C 1173.348 800.061,1160.854 804.337,1149.675 809.542 " fill="#1D1E23" stroke="none" fill-rule="evenodd"/></svg>