<svg viewBox="0 0 2400 2400" fill="none" xmlns="http://www.w3.org/2000/svg"><path d="M1104.000 306.287 C 1098.500 307.243,1080.500 309.944,1064.000 312.290 C 858.381 341.517,647.956 460.090,510.081 624.419 C 371.491 789.601,293.490 1015.023,301.229 1228.000 C 305.863 1355.544,335.912 1474.351,393.799 1594.000 C 505.277 1824.421,706.223 1992.603,955.401 2064.034 C 1128.754 2113.728,1304.781 2110.897,1474.492 2055.684 C 1643.476 2000.708,1770.370 1914.086,1895.592 1768.228 C 2008.549 1636.657,2088.059 1432.531,2098.532 1247.223 L 2101.200 1200.000 2001.167 1200.000 L 1901.133 1200.000 1896.330 1249.000 C 1878.156 1434.439,1808.952 1581.041,1681.435 1704.234 C 1585.497 1796.919,1476.904 1853.711,1333.808 1886.036 C 1289.886 1895.957,1279.171 1896.820,1202.000 1896.651 C 1107.630 1896.443,1075.421 1892.175,1003.388 1870.330 C 888.440 1835.472,799.328 1783.031,714.636 1700.404 C 651.920 1639.218,613.349 1586.633,574.964 1509.986 C 515.611 1391.470,495.435 1276.549,507.503 1125.745 C 527.869 871.242,715.157 631.336,961.280 544.478 C 1141.894 480.738,1344.161 491.967,1510.000 574.940 C 1579.530 609.727,1688.000 688.357,1688.000 703.973 C 1688.000 708.065,1626.544 773.488,1545.581 855.585 L 1403.163 1000.000 1751.581 1000.000 L 2100.000 1000.000 2100.000 651.023 L 2100.000 302.045 1968.342 433.659 L 1836.683 565.272 1807.342 538.316 C 1680.117 421.435,1513.179 340.334,1344.729 313.570 C 1307.791 307.701,1127.286 302.240,1104.000 306.287 M1100.970 1051.000 L 1102.000 1302.000 1294.961 1416.000 C 1401.089 1478.700,1496.730 1534.936,1507.496 1540.970 L 1527.072 1551.940 1563.321 1488.989 L 1599.571 1426.039 1564.786 1403.745 C 1545.653 1391.483,1468.636 1345.092,1393.636 1300.652 L 1257.272 1219.854 1254.636 1129.281 C 1253.186 1079.465,1252.000 984.998,1252.000 919.354 L 1252.000 800.000 1175.970 800.000 L 1099.940 800.000 1100.970 1051.000 " fill="#1D1E23" stroke="none" fill-rule="evenodd"/></svg>