<svg viewBox="0 0 2400 2400" fill="none" xmlns="http://www.w3.org/2000/svg"><path d="M1090.143 308.335 C 893.377 335.295,696.983 433.317,557.649 574.107 C 424.174 708.977,336.328 891.347,307.222 1094.000 C 299.963 1144.543,301.150 1271.515,309.367 1323.454 C 333.219 1474.224,399.195 1630.479,487.831 1746.120 C 590.666 1880.288,732.751 1984.205,894.000 2043.184 C 942.128 2060.787,1035.616 2084.724,1086.000 2092.345 C 1126.628 2098.490,1271.968 2098.571,1313.892 2092.472 C 1476.843 2068.766,1630.135 2003.665,1754.693 1905.268 C 1824.157 1850.394,1902.773 1764.330,1953.158 1688.000 C 2032.188 1568.276,2090.930 1389.577,2098.780 1245.000 L 2101.224 1200.000 2009.612 1200.055 C 1959.225 1200.085,1914.107 1201.154,1909.349 1202.430 C 1902.077 1204.381,1900.278 1208.675,1898.064 1229.375 C 1893.638 1270.738,1880.428 1346.990,1871.907 1380.366 C 1845.637 1483.252,1786.441 1591.001,1712.785 1670.000 C 1676.268 1709.166,1624.199 1754.899,1589.779 1778.039 C 1544.474 1808.498,1467.412 1844.739,1404.000 1865.409 C 1322.007 1892.136,1307.860 1894.030,1192.000 1893.782 C 1090.081 1893.563,1089.962 1893.553,1042.625 1880.755 C 961.249 1858.753,873.239 1821.255,822.000 1786.754 C 766.257 1749.220,693.709 1682.468,650.555 1629.005 C 614.650 1584.523,571.427 1506.517,545.858 1440.053 C 496.202 1310.981,492.284 1119.122,536.601 986.844 C 609.815 768.314,785.821 595.588,998.000 534.041 C 1133.924 494.614,1283.735 496.198,1418.662 538.488 C 1510.292 567.208,1684.000 675.869,1684.000 704.467 C 1684.000 712.413,1629.599 770.408,1490.268 911.000 L 1402.067 1000.000 1751.033 1000.000 L 2100.000 1000.000 2100.000 651.023 L 2100.000 302.045 1968.402 433.598 L 1836.805 565.150 1804.123 536.351 C 1657.723 407.345,1478.506 326.457,1308.000 312.429 C 1231.666 306.149,1121.242 304.074,1090.143 308.335 M1100.970 1051.000 L 1102.000 1302.000 1144.000 1327.089 C 1396.876 1478.145,1521.325 1549.123,1527.011 1545.537 C 1530.409 1543.393,1548.083 1515.692,1566.286 1483.979 L 1599.382 1426.318 1586.691 1417.829 C 1579.711 1413.160,1502.738 1366.654,1415.641 1314.481 L 1257.282 1219.621 1254.641 1099.159 C 1253.188 1032.905,1252.000 938.490,1252.000 889.348 L 1252.000 800.000 1175.970 800.000 L 1099.940 800.000 1100.970 1051.000 " fill="#1D1E23" stroke="none" fill-rule="evenodd"/></svg>