<svg viewBox="0 0 2400 2400" fill="none" xmlns="http://www.w3.org/2000/svg"><path d="M1112.000 307.889 C 1011.049 315.104,915.957 342.714,808.836 395.911 C 699.993 449.964,634.106 497.774,552.809 581.695 C 429.202 709.291,350.010 861.869,316.386 1037.208 C 262.808 1316.600,352.287 1612.797,553.923 1823.523 C 690.759 1966.526,871.967 2058.497,1080.000 2090.528 C 1142.610 2100.169,1261.021 2100.201,1324.000 2090.595 C 1683.496 2035.762,1960.056 1793.146,2065.616 1440.000 C 2082.355 1384.004,2088.000 1349.800,2088.000 1304.383 C 2088.000 1263.480,2087.440 1260.566,2077.000 1247.086 C 2041.524 1201.283,1983.596 1191.307,1935.697 1222.751 C 1914.634 1236.579,1906.033 1255.454,1885.845 1332.152 C 1840.596 1504.066,1782.952 1607.640,1676.046 1709.111 C 1574.591 1805.409,1457.691 1863.737,1317.548 1887.985 C 1226.971 1903.658,1147.213 1902.228,1060.000 1883.370 C 789.562 1824.893,575.610 1607.857,515.143 1330.657 C 507.297 1294.691,506.322 1279.155,506.688 1196.000 C 507.156 1089.745,512.334 1054.354,538.372 979.409 C 623.477 734.452,827.361 558.508,1078.000 513.732 C 1126.052 505.148,1251.265 503.920,1304.000 511.515 C 1355.317 518.907,1424.024 537.871,1469.844 557.291 C 1534.119 584.533,1615.000 635.506,1675.837 687.113 L 1689.673 698.850 1682.371 709.994 C 1678.355 716.124,1646.875 750.132,1612.415 785.569 C 1464.719 937.452,1463.345 939.360,1479.227 970.479 C 1496.071 1003.482,1469.150 1000.921,1778.704 998.968 C 1970.488 997.758,2058.317 995.839,2068.229 992.640 C 2076.056 990.115,2086.406 982.711,2091.229 976.187 L 2100.000 964.324 2100.000 682.187 L 2100.000 400.050 2083.528 388.118 C 2062.237 372.695,2043.214 368.974,2029.982 377.644 C 2024.492 381.241,1979.050 424.430,1929.000 473.619 L 1838.000 563.053 1812.000 541.160 C 1655.387 409.288,1507.288 338.674,1335.532 313.982 C 1283.872 306.555,1172.964 303.532,1112.000 307.889 M1150.498 809.643 C 1139.772 814.986,1123.818 826.251,1115.045 834.678 L 1099.095 850.000 1101.451 1052.000 C 1102.761 1164.355,1105.629 1262.740,1107.913 1273.695 C 1110.171 1284.527,1115.164 1296.892,1119.009 1301.173 C 1133.667 1317.491,1327.739 1438.273,1424.484 1491.286 C 1492.376 1528.489,1521.965 1529.890,1552.746 1497.357 C 1566.370 1482.957,1572.000 1468.037,1572.000 1446.331 C 1572.000 1410.748,1554.712 1397.004,1370.118 1285.835 L 1252.818 1215.193 1250.984 1040.596 C 1248.828 835.289,1249.307 838.342,1216.000 817.742 C 1186.046 799.216,1174.340 797.768,1150.498 809.643 " fill="#1D1E23" stroke="none" fill-rule="evenodd"/></svg>