<svg viewBox="0 0 2400 2400" fill="none" xmlns="http://www.w3.org/2000/svg"><path d="M1134.000 302.411 C 1002.331 316.004,909.048 341.479,805.761 392.050 C 623.555 481.262,480.972 623.792,391.660 806.000 C 269.768 1054.675,269.768 1345.325,391.660 1594.000 C 481.077 1776.421,623.579 1918.923,806.000 2008.340 C 1118.311 2161.424,1490.378 2119.817,1763.098 1901.311 C 1835.135 1843.594,1903.479 1768.005,1955.962 1688.000 C 2009.043 1607.085,2058.859 1487.401,2079.676 1390.780 C 2089.685 1344.322,2100.000 1260.197,2100.000 1225.025 L 2100.000 1200.000 2000.548 1200.000 L 1901.096 1200.000 1898.330 1239.000 C 1887.953 1385.338,1843.420 1507.039,1758.915 1620.000 C 1608.934 1820.487,1357.519 1926.937,1111.379 1894.170 C 799.055 1852.592,557.658 1615.875,507.500 1302.000 C 500.907 1260.744,500.907 1139.256,507.500 1098.000 C 540.598 890.884,656.559 714.879,832.123 605.290 C 1061.951 461.829,1362.362 466.957,1588.000 618.192 C 1625.979 643.648,1687.709 694.587,1691.013 703.199 C 1692.381 706.763,1640.280 761.694,1547.601 854.399 L 1402.041 1000.000 1751.021 1000.000 L 2100.000 1000.000 2100.000 651.023 L 2100.000 302.045 1968.289 433.711 L 1836.579 565.376 1804.513 535.210 C 1679.982 418.060,1509.694 336.939,1332.000 310.116 C 1291.148 303.950,1166.194 299.087,1134.000 302.411 M1100.970 1050.748 L 1102.000 1301.495 1313.562 1426.853 C 1429.921 1495.799,1525.481 1551.713,1525.918 1551.105 C 1532.765 1541.591,1599.956 1426.760,1599.842 1424.767 C 1599.755 1423.245,1521.905 1376.017,1426.842 1319.817 L 1254.000 1217.633 1252.964 1008.817 L 1251.929 800.000 1175.934 800.000 L 1099.940 800.000 1100.970 1050.748 " fill="#1D1E23" stroke="none" fill-rule="evenodd"/></svg>