<svg viewBox="0 0 2400 2400" fill="none" xmlns="http://www.w3.org/2000/svg"><path d="M1068.000 310.584 C 977.598 324.379,895.128 350.339,810.000 391.800 C 602.008 493.099,436.938 673.231,358.556 884.435 C 314.013 1004.460,296.485 1115.347,302.038 1242.000 C 316.984 1582.936,530.792 1891.877,844.000 2025.107 C 1066.381 2119.701,1306.731 2124.006,1527.840 2037.355 C 1648.900 1989.912,1749.524 1922.535,1844.321 1825.443 C 1945.711 1721.599,2012.821 1608.605,2059.118 1463.788 C 2081.250 1394.558,2089.322 1352.823,2089.687 1305.727 C 2089.979 1268.161,2089.255 1264.327,2078.923 1248.696 C 2046.169 1199.146,1980.528 1186.744,1934.916 1221.488 C 1910.202 1240.314,1900.985 1260.536,1887.773 1324.924 C 1841.168 1552.055,1707.479 1728.440,1505.410 1829.403 C 1411.328 1876.410,1279.538 1903.930,1174.000 1898.607 C 990.823 1889.367,830.970 1816.647,703.006 1684.343 C 602.913 1580.855,543.190 1467.908,513.527 1326.000 C 498.790 1255.496,497.872 1151.340,511.349 1078.871 C 548.191 880.762,663.994 710.297,832.807 605.673 C 1062.935 463.048,1358.019 467.977,1586.218 618.258 C 1620.813 641.041,1692.000 697.816,1692.000 702.625 C 1692.000 703.971,1643.496 754.257,1584.212 814.371 C 1494.967 904.867,1475.968 926.101,1473.772 937.808 C 1470.154 957.095,1473.887 969.315,1488.472 985.927 L 1500.829 1000.000 1771.414 999.826 C 1920.236 999.730,2050.002 998.107,2059.781 996.220 C 2072.653 993.736,2080.631 989.090,2088.674 979.394 L 2099.785 966.000 2099.892 683.748 L 2100.000 401.497 2089.000 391.237 C 2073.390 376.678,2062.747 372.000,2045.232 372.000 C 2030.598 372.000,2025.814 376.126,1934.393 467.607 L 1838.849 563.213 1790.424 522.472 C 1646.235 401.160,1480.893 328.009,1306.000 308.153 C 1253.769 302.223,1113.395 303.656,1068.000 310.584 M1144.873 810.314 C 1133.488 815.987,1118.735 827.496,1112.087 835.890 L 1100.000 851.151 1100.231 1022.576 C 1100.503 1224.969,1103.450 1279.952,1114.851 1295.370 C 1128.406 1313.700,1157.804 1333.326,1291.813 1413.512 C 1487.763 1530.761,1496.008 1534.245,1532.000 1515.007 C 1558.312 1500.943,1573.714 1477.159,1573.714 1450.592 C 1573.714 1424.452,1564.798 1409.270,1537.319 1388.623 C 1526.268 1380.319,1457.550 1337.849,1384.613 1294.246 L 1252.000 1214.967 1251.977 1052.484 C 1251.953 885.761,1249.461 849.447,1236.846 832.022 C 1227.985 819.781,1190.440 800.000,1176.068 800.000 C 1170.295 800.000,1156.257 804.641,1144.873 810.314 " fill="#1D1E23" stroke="none" fill-rule="evenodd"/></svg>