<svg viewBox="0 0 2400 2400" fill="none" xmlns="http://www.w3.org/2000/svg"><path d="M1080.000 310.857 C 1012.784 318.427,922.643 344.558,846.541 378.536 C 734.448 428.581,646.739 488.323,565.986 569.629 C 442.992 693.468,367.028 827.562,326.500 992.380 C 275.822 1198.473,302.713 1416.702,402.707 1610.838 C 547.137 1891.245,830.741 2076.871,1144.000 2096.033 C 1465.672 2115.711,1765.769 1966.860,1945.183 1698.639 C 2004.550 1609.886,2066.767 1461.506,2082.261 1371.723 C 2086.211 1348.832,2088.178 1319.329,2087.350 1295.390 L 2086.000 1256.369 2070.000 1239.845 C 2039.585 1208.436,2005.198 1198.433,1966.404 1209.710 C 1938.580 1217.799,1919.485 1234.188,1908.714 1259.226 C 1904.152 1269.832,1893.240 1304.495,1884.466 1336.255 C 1853.611 1447.944,1822.693 1521.208,1778.358 1587.692 C 1647.883 1783.348,1435.370 1897.130,1200.000 1897.352 C 1102.906 1897.444,1019.619 1879.950,928.029 1840.225 C 746.892 1761.662,599.478 1597.801,535.984 1404.443 C 511.779 1330.729,507.997 1303.421,508.024 1202.558 C 508.051 1098.347,513.664 1053.460,534.306 992.353 C 615.713 751.365,800.017 580.974,1044.000 521.136 C 1081.043 512.052,1096.733 510.613,1176.933 508.948 C 1275.120 506.909,1306.833 509.730,1373.249 526.409 C 1471.740 551.143,1556.940 594.821,1655.000 670.849 C 1673.150 684.921,1688.000 698.214,1688.000 700.388 C 1688.000 705.345,1667.170 728.171,1584.340 813.979 C 1506.441 894.679,1477.275 929.088,1473.954 944.211 C 1470.953 957.875,1484.018 985.443,1497.013 992.866 C 1508.189 999.251,1822.274 1001.958,1972.937 996.969 L 2071.873 993.692 2085.937 980.061 L 2100.000 966.431 2100.000 683.272 L 2100.000 400.114 2085.000 390.193 C 2063.318 375.853,2047.149 370.998,2035.673 375.381 C 2030.353 377.413,1983.700 420.368,1932.000 470.837 L 1838.000 562.599 1794.000 526.865 C 1640.263 402.007,1479.909 330.128,1315.158 312.222 C 1278.984 308.290,1111.427 307.318,1080.000 310.857 M1144.000 814.089 C 1134.100 819.842,1120.150 830.179,1113.000 837.059 L 1100.000 849.569 1100.286 973.785 C 1100.709 1157.368,1105.345 1270.621,1113.190 1289.001 C 1118.519 1301.487,1129.183 1310.289,1176.796 1341.501 C 1252.268 1390.975,1388.586 1472.777,1435.227 1496.580 C 1490.715 1524.898,1519.557 1526.681,1546.037 1503.431 C 1563.354 1488.227,1573.776 1461.389,1570.847 1439.549 C 1566.753 1409.030,1538.036 1387.339,1357.000 1278.023 L 1252.000 1214.620 1251.851 1082.310 C 1251.676 925.763,1247.575 852.052,1238.251 837.822 C 1228.263 822.578,1200.179 806.817,1180.000 805.132 C 1166.021 803.964,1157.979 805.965,1144.000 814.089 " fill="#1D1E23" stroke="none" fill-rule="evenodd"/></svg>