<svg viewBox="0 0 2400 2400" fill="none" xmlns="http://www.w3.org/2000/svg"><path d="M1102.000 306.733 C 999.536 319.836,899.813 349.528,810.000 393.675 C 582.780 505.362,425.336 684.613,347.762 919.935 C 287.234 1103.549,285.404 1284.682,342.268 1463.845 C 449.501 1801.705,722.397 2034.220,1078.031 2090.735 C 1138.864 2100.403,1265.429 2100.319,1326.000 2090.571 C 1544.686 2055.378,1719.704 1961.414,1866.292 1800.495 C 1954.359 1703.818,2010.491 1606.242,2054.113 1474.000 C 2080.366 1394.416,2100.000 1286.655,2100.000 1222.158 L 2100.000 1200.000 2000.000 1200.000 C 1912.640 1200.000,1900.000 1200.778,1900.000 1206.158 C 1900.000 1225.413,1890.250 1296.569,1881.876 1338.419 C 1853.698 1479.256,1790.902 1594.690,1686.263 1698.000 C 1661.751 1722.200,1624.665 1754.158,1603.848 1769.017 C 1530.163 1821.617,1420.345 1868.366,1324.670 1887.864 C 1273.479 1898.296,1143.038 1899.364,1084.000 1889.834 C 1012.875 1878.354,895.870 1833.942,834.000 1794.941 C 764.200 1750.941,677.245 1669.133,631.047 1604.000 C 597.979 1557.380,552.607 1467.052,536.614 1416.000 C 509.160 1328.365,499.736 1240.920,507.262 1143.636 C 512.806 1071.970,519.280 1037.960,538.414 980.000 C 613.471 752.633,810.121 573.303,1040.000 522.591 C 1151.443 498.006,1248.938 498.012,1359.841 522.611 C 1415.544 534.966,1449.472 546.779,1502.000 572.107 C 1563.940 601.974,1665.972 671.903,1682.925 696.107 C 1688.271 703.739,1687.056 706.188,1666.070 730.091 C 1653.632 744.259,1589.382 810.784,1523.293 877.925 L 1403.131 1000.000 1751.565 1000.000 L 2100.000 1000.000 2100.000 651.023 L 2100.000 302.045 1968.517 433.484 L 1837.033 564.922 1797.517 530.356 C 1675.478 423.607,1525.657 348.678,1376.817 319.955 C 1321.771 309.332,1147.311 300.939,1102.000 306.733 M1100.000 1049.943 L 1100.000 1299.886 1115.000 1309.581 C 1131.269 1320.096,1504.421 1539.921,1518.701 1547.403 C 1526.941 1551.720,1529.311 1548.627,1563.467 1488.981 L 1599.533 1426.000 1572.767 1408.964 C 1558.045 1399.595,1481.038 1353.190,1401.639 1305.842 L 1257.278 1219.756 1254.647 1114.878 C 1253.200 1057.195,1252.013 962.750,1252.008 905.000 L 1252.000 800.000 1176.000 800.000 L 1100.000 800.000 1100.000 1049.943 " fill="#1D1E23" stroke="none" fill-rule="evenodd"/></svg>