<svg viewBox="0 0 2400 2400" fill="none" xmlns="http://www.w3.org/2000/svg"><path d="M1116.000 304.168 C 842.638 330.399,597.215 480.305,443.656 714.840 C 375.824 818.442,329.309 941.227,309.112 1070.000 C 299.367 1132.128,299.497 1269.601,309.358 1330.000 C 325.919 1431.437,349.447 1506.515,392.089 1594.000 C 481.014 1776.438,622.649 1918.134,806.000 2008.090 C 1212.546 2207.550,1702.817 2072.447,1953.049 1692.000 C 2026.291 1580.645,2083.705 1423.692,2090.591 1316.000 C 2093.356 1272.758,2089.574 1259.182,2067.879 1234.473 C 2013.646 1172.706,1912.026 1200.593,1896.393 1281.534 C 1894.219 1292.790,1889.407 1318.200,1885.701 1338.000 C 1867.961 1432.760,1820.314 1538.997,1759.391 1619.628 C 1620.335 1803.667,1405.681 1906.732,1178.000 1898.780 C 894.635 1888.884,645.441 1706.434,541.832 1433.001 C 527.497 1395.169,508.760 1314.742,504.128 1271.158 C 476.075 1007.192,603.877 747.766,832.172 605.259 C 1095.923 440.619,1439.361 473.302,1674.000 685.370 L 1694.000 703.446 1589.543 808.723 C 1532.092 866.625,1482.142 918.451,1478.543 923.890 C 1474.944 929.330,1472.000 941.506,1472.000 950.949 C 1472.000 964.920,1474.550 970.900,1485.691 983.059 L 1499.383 998.000 1780.691 998.984 C 2000.699 999.754,2064.153 998.870,2071.880 994.926 C 2077.314 992.153,2085.899 983.741,2090.958 976.234 L 2100.157 962.585 2099.078 680.984 L 2098.000 399.383 2083.059 385.691 C 2070.463 374.149,2065.156 372.000,2049.246 372.000 L 2030.375 372.000 1934.187 467.780 L 1838.000 563.561 1804.000 533.388 C 1665.889 410.826,1506.424 336.047,1328.000 310.174 C 1272.487 302.124,1168.112 299.167,1116.000 304.168 M1144.079 809.000 C 1134.391 813.950,1120.959 824.917,1114.232 833.370 L 1102.000 848.741 1102.000 1059.370 C 1102.000 1293.987,1100.847 1283.548,1129.961 1312.599 C 1137.347 1319.969,1217.554 1369.971,1308.198 1423.713 C 1456.278 1511.507,1475.117 1521.600,1493.805 1523.150 C 1542.480 1527.187,1584.236 1480.613,1572.697 1435.155 C 1564.291 1402.037,1558.173 1397.351,1401.147 1303.758 L 1252.000 1214.860 1252.000 1041.933 C 1252.000 856.028,1251.081 846.573,1230.865 824.586 C 1218.985 811.665,1193.227 800.196,1175.848 800.088 C 1168.064 800.040,1153.768 804.050,1144.079 809.000 " fill="#1D1E23" stroke="none" fill-rule="evenodd"/></svg>