<svg viewBox="0 0 2400 2400" fill="none" xmlns="http://www.w3.org/2000/svg"><path d="M1122.000 304.379 C 999.625 316.750,901.255 345.169,794.941 398.864 C 616.169 489.156,475.941 631.782,389.682 811.054 C 346.894 899.980,314.149 1016.540,304.177 1115.424 C 279.495 1360.178,368.241 1624.967,535.289 1804.981 C 645.493 1923.740,764.484 2000.987,916.000 2052.133 C 1207.433 2150.510,1523.468 2093.457,1766.000 1898.685 C 1810.002 1863.348,1883.825 1786.294,1920.894 1737.011 C 2024.005 1599.928,2089.414 1419.749,2098.689 1247.242 L 2101.229 1200.000 2001.039 1200.000 L 1900.849 1200.000 1898.052 1237.000 C 1887.981 1370.198,1849.391 1485.503,1780.581 1588.000 C 1676.004 1743.772,1521.155 1846.994,1332.233 1886.866 C 1287.753 1896.254,1272.837 1897.488,1202.000 1897.639 C 1111.322 1897.833,1066.398 1891.094,986.000 1865.238 C 737.321 1785.262,553.058 1571.532,509.965 1313.075 C 500.056 1253.640,503.374 1105.784,515.780 1054.000 C 560.324 868.065,660.937 720.773,813.186 618.614 C 1015.859 482.622,1283.810 464.482,1505.750 571.730 C 1555.909 595.967,1606.962 629.371,1655.064 669.424 C 1688.921 697.614,1691.734 701.023,1687.569 708.806 C 1685.060 713.493,1619.957 780.928,1542.894 858.663 L 1402.779 1000.000 1751.389 1000.000 L 2100.000 1000.000 2100.000 651.023 L 2100.000 302.045 1968.268 433.732 L 1836.536 565.419 1810.547 541.107 C 1671.796 411.313,1482.254 324.315,1303.056 308.173 C 1240.255 302.516,1157.565 300.783,1122.000 304.379 M1100.970 1050.843 L 1102.000 1301.686 1140.468 1324.486 C 1281.854 1408.286,1485.597 1528.472,1504.264 1539.086 L 1526.529 1551.745 1561.960 1490.873 C 1581.447 1457.393,1598.006 1428.776,1598.758 1427.281 C 1600.475 1423.865,1564.460 1401.603,1393.628 1300.486 L 1257.257 1219.767 1254.640 1144.883 C 1253.200 1103.698,1252.018 1009.250,1252.011 935.000 L 1252.000 800.000 1175.970 800.000 L 1099.940 800.000 1100.970 1050.843 " fill="#1D1E23" stroke="none" fill-rule="evenodd"/></svg>