<svg viewBox="0 0 2400 2400" fill="none" xmlns="http://www.w3.org/2000/svg"><path d="M1170.706 346.661 C 1162.537 348.055,1122.570 384.415,1026.265 478.069 C 865.435 634.470,653.260 852.165,647.891 866.286 C 642.081 881.567,643.186 912.186,650.300 933.066 C 658.670 957.629,684.475 986.518,703.230 992.321 C 711.456 994.866,758.320 997.788,809.000 998.917 L 900.000 1000.942 900.253 1227.471 C 900.392 1352.062,901.846 1473.204,903.484 1496.675 C 906.108 1534.275,907.798 1541.278,917.690 1555.553 C 923.866 1564.464,938.121 1577.660,949.368 1584.878 L 969.817 1598.000 1200.000 1598.000 L 1430.183 1598.000 1450.632 1584.878 C 1461.879 1577.660,1476.153 1564.438,1482.351 1555.494 C 1492.425 1540.957,1493.929 1534.497,1496.531 1494.616 C 1498.132 1470.077,1499.567 1348.962,1499.721 1225.471 L 1500.000 1000.942 1591.000 999.249 C 1671.591 997.750,1684.059 996.628,1700.000 989.445 C 1748.732 967.486,1771.564 906.252,1748.598 859.113 C 1733.007 827.113,1295.724 389.107,1247.520 357.208 C 1231.974 346.920,1197.187 342.144,1170.706 346.661 M736.487 1803.801 L 554.975 1806.000 533.655 1829.463 C 498.694 1867.938,492.334 1901.375,512.177 1942.365 C 525.072 1969.002,544.057 1986.351,566.758 1992.242 C 590.991 1998.530,1661.105 2002.560,1766.612 1996.761 C 1846.998 1992.342,1856.958 1988.922,1877.553 1958.666 C 1904.760 1918.697,1905.187 1881.280,1878.889 1841.577 C 1856.141 1807.234,1854.423 1806.919,1672.000 1803.559 C 1495.747 1800.314,1014.145 1800.438,736.487 1803.801 " fill="#1D1E23" stroke="none" fill-rule="evenodd"/></svg>