<svg viewBox="0 0 2400 2400" fill="none" xmlns="http://www.w3.org/2000/svg"><path d="M1149.932 362.915 C 1092.553 408.458,713.449 787.005,660.470 851.658 C 646.768 868.379,646.016 870.822,646.292 897.658 C 646.626 929.960,653.048 945.753,675.441 969.330 C 699.884 995.066,701.971 995.536,805.074 998.519 L 898.925 1001.234 900.799 1261.617 C 902.607 1512.827,902.960 1522.634,910.817 1540.000 C 919.456 1559.097,932.229 1572.649,957.558 1589.593 L 973.116 1600.000 1200.000 1600.000 L 1426.884 1600.000 1442.442 1589.593 C 1467.785 1572.640,1480.547 1559.092,1489.161 1540.000 C 1496.986 1522.655,1497.351 1512.520,1499.191 1261.537 L 1501.100 1001.075 1589.550 998.850 C 1638.198 997.626,1684.932 994.549,1693.405 992.012 C 1737.963 978.672,1769.060 910.568,1750.546 866.872 C 1743.460 850.147,1681.542 782.537,1557.735 656.338 C 1444.955 541.379,1275.322 378.162,1251.377 361.568 C 1237.956 352.268,1230.315 350.267,1202.662 348.816 L 1169.864 347.095 1149.932 362.915 M579.158 1806.806 C 552.826 1808.329,552.008 1808.716,536.106 1827.179 C 516.430 1850.024,500.000 1881.630,500.000 1896.635 C 500.000 1929.708,532.674 1980.226,559.197 1988.162 C 585.885 1996.146,918.451 2000.490,1364.000 1998.675 C 1670.463 1997.426,1805.016 1995.541,1821.875 1992.260 C 1865.670 1983.738,1891.591 1952.650,1895.035 1904.514 C 1896.691 1881.363,1895.554 1874.872,1886.852 1857.813 C 1872.225 1829.137,1857.188 1816.499,1831.634 1811.407 C 1810.942 1807.283,644.987 1803.000,579.158 1806.806 " fill="#1D1E23" stroke="none" fill-rule="evenodd"/></svg>