<svg viewBox="0 0 2400 2400" fill="none" xmlns="http://www.w3.org/2000/svg"><path d="M1173.624 346.542 C 1161.711 349.174,1125.455 382.050,998.287 505.528 C 868.365 631.682,658.038 848.680,649.145 865.745 C 641.308 880.783,644.028 920.410,654.401 942.308 C 664.287 963.179,691.733 990.175,706.293 993.349 C 712.732 994.752,758.787 997.101,808.637 998.569 L 899.274 1001.236 900.939 1261.618 C 902.227 1462.995,903.791 1525.173,907.839 1536.000 C 914.404 1553.560,932.737 1573.642,955.783 1588.520 L 973.566 1600.000 1200.000 1600.000 L 1426.434 1600.000 1444.217 1588.520 C 1467.284 1573.629,1485.608 1553.545,1492.136 1536.000 C 1496.147 1525.216,1497.737 1462.159,1499.055 1261.502 L 1500.765 1001.005 1591.383 999.142 C 1689.257 997.130,1697.812 995.488,1723.572 973.770 C 1753.189 948.799,1765.272 893.856,1748.414 860.812 C 1738.567 841.509,1592.579 688.863,1443.508 542.000 C 1316.687 417.057,1259.456 364.061,1241.097 354.567 C 1228.905 348.263,1187.908 343.387,1173.624 346.542 M810.550 1803.542 L 555.099 1806.000 536.939 1826.000 C 516.922 1848.046,500.100 1880.204,500.039 1896.541 C 499.970 1915.284,512.853 1947.556,527.004 1964.089 C 553.040 1994.506,545.460 1993.364,742.000 1996.480 C 1000.208 2000.573,1717.524 2000.303,1778.577 1996.089 C 1807.495 1994.093,1837.195 1989.879,1844.577 1986.723 C 1883.975 1969.882,1908.471 1908.395,1892.002 1867.686 C 1882.743 1844.800,1867.230 1823.807,1854.842 1817.401 C 1847.731 1813.724,1823.934 1809.999,1794.547 1807.964 C 1727.259 1803.303,1119.331 1800.571,810.550 1803.542 " fill="#1D1E23" stroke="none" fill-rule="evenodd"/></svg>