<svg viewBox="0 0 2400 2400" fill="none" xmlns="http://www.w3.org/2000/svg"><path d="M1160.000 350.289 C 1144.280 356.999,673.921 826.791,654.333 855.346 C 644.786 869.264,642.670 876.501,642.684 895.177 C 642.704 922.310,654.483 951.757,673.205 971.477 C 696.414 995.922,704.175 997.535,806.766 999.219 L 899.532 1000.742 900.766 1263.371 C 901.849 1493.756,902.785 1527.719,908.394 1540.000 C 918.310 1561.713,934.416 1578.504,955.093 1588.688 L 974.000 1598.000 1200.000 1598.000 L 1426.000 1598.000 1444.907 1588.688 C 1465.584 1578.504,1481.690 1561.713,1491.606 1540.000 C 1497.215 1527.719,1498.151 1493.752,1499.234 1263.320 L 1500.468 1000.639 1593.234 999.305 C 1698.108 997.797,1704.409 996.227,1733.113 964.455 C 1765.369 928.752,1767.063 877.412,1737.202 840.556 C 1715.655 813.962,1403.118 499.383,1319.688 420.315 C 1243.683 348.283,1236.471 343.859,1195.536 344.157 C 1183.691 344.243,1167.700 347.002,1160.000 350.289 M626.000 1804.113 C 588.600 1805.528,557.510 1806.981,556.911 1807.343 C 556.311 1807.704,547.610 1815.569,537.573 1824.820 C 503.284 1856.427,491.661 1897.995,507.256 1933.251 C 518.214 1958.023,534.707 1979.126,548.807 1986.417 C 555.131 1989.687,578.686 1994.021,601.152 1996.047 C 654.481 2000.856,1745.519 2000.856,1798.848 1996.047 C 1821.314 1994.021,1844.971 1989.635,1851.420 1986.300 C 1868.336 1977.552,1891.123 1944.408,1896.633 1920.537 C 1902.994 1892.983,1896.431 1865.109,1877.519 1839.345 C 1856.381 1810.550,1848.443 1807.755,1776.451 1803.765 C 1705.920 1799.857,730.738 1800.151,626.000 1804.113 " fill="#1D1E23" stroke="none" fill-rule="evenodd"/></svg>