<svg viewBox="0 0 2400 2400" fill="none" xmlns="http://www.w3.org/2000/svg"><path d="M943.256 404.030 C 884.263 413.415,822.127 437.959,773.129 471.233 C 695.490 523.957,639.422 603.687,613.020 698.911 C 603.383 733.667,602.182 744.873,602.182 800.000 C 602.182 855.349,603.362 866.260,613.184 901.706 C 647.518 1025.614,735.676 1125.213,852.000 1171.512 C 1033.371 1243.702,1246.205 1170.991,1344.371 1003.302 C 1450.291 822.368,1398.484 587.773,1226.871 471.233 C 1191.681 447.336,1134.311 421.411,1095.826 412.015 C 1057.150 402.572,978.349 398.448,943.256 404.030 M1630.167 1102.918 C 1617.235 1106.203,1603.912 1116.547,1598.385 1127.594 C 1595.521 1133.317,1588.252 1163.200,1582.230 1194.000 L 1571.282 1250.000 1548.641 1259.893 C 1536.188 1265.334,1511.717 1279.322,1494.260 1290.978 L 1462.521 1312.170 1408.256 1294.085 C 1348.662 1274.224,1332.003 1272.338,1314.000 1283.411 C 1299.487 1292.339,1231.971 1407.949,1232.055 1423.730 C 1232.169 1445.269,1238.427 1453.824,1283.169 1493.612 L 1329.236 1534.578 1329.618 1599.935 L 1330.000 1665.293 1284.717 1705.129 C 1239.401 1744.995,1232.000 1754.887,1232.000 1775.589 C 1232.000 1786.099,1292.417 1896.991,1306.805 1912.889 C 1310.322 1916.775,1319.546 1921.708,1327.303 1923.849 C 1339.510 1927.220,1349.641 1925.044,1402.612 1907.673 L 1463.816 1887.602 1484.908 1903.375 C 1496.509 1912.050,1520.712 1926.490,1538.694 1935.464 L 1571.387 1951.781 1575.678 1972.891 C 1578.038 1984.501,1583.331 2010.592,1587.441 2030.872 C 1600.679 2096.203,1606.915 2100.003,1700.872 2099.994 C 1796.248 2099.985,1801.939 2095.901,1817.915 2016.000 C 1823.413 1988.500,1828.777 1962.304,1829.835 1957.786 C 1831.102 1952.372,1839.260 1946.463,1853.771 1940.448 C 1865.879 1935.430,1890.416 1921.531,1908.299 1909.561 L 1940.813 1887.798 2000.836 1907.497 C 2085.495 1935.281,2084.530 1935.719,2135.687 1846.308 C 2169.515 1787.185,2173.367 1774.614,2164.336 1752.811 C 2161.654 1746.337,2139.032 1723.545,2113.936 1702.031 C 2070.095 1664.450,2068.505 1662.532,2071.200 1650.499 C 2072.740 1643.624,2074.000 1620.900,2074.000 1600.000 C 2074.000 1579.100,2072.740 1556.376,2071.200 1549.501 C 2068.505 1537.468,2070.095 1535.550,2113.936 1497.969 C 2159.835 1458.623,2169.488 1445.511,2168.858 1423.365 C 2168.435 1408.489,2111.838 1307.343,2093.674 1289.000 C 2076.001 1271.154,2062.275 1271.912,1994.589 1294.470 L 1939.168 1312.941 1928.584 1304.661 C 1911.376 1291.198,1866.802 1265.056,1848.717 1257.820 C 1838.056 1253.554,1831.194 1247.981,1829.919 1242.551 C 1828.815 1237.848,1823.413 1211.500,1817.915 1184.000 C 1801.936 1104.085,1795.988 1099.798,1702.000 1100.470 C 1666.800 1100.722,1634.475 1101.823,1630.167 1102.918 M920.000 1302.765 C 761.691 1312.009,592.233 1355.992,445.503 1425.922 C 301.134 1494.726,248.375 1543.642,215.582 1639.092 L 202.215 1678.000 200.790 1795.013 C 199.143 1930.358,200.930 1941.141,229.804 1970.014 C 261.596 2001.807,232.980 2000.000,704.713 2000.000 C 935.321 2000.000,1124.000 1999.156,1124.000 1998.125 C 1124.000 1997.093,1116.128 1984.043,1106.507 1969.125 C 1057.886 1893.734,1023.277 1800.383,1007.474 1702.000 C 999.755 1653.946,1000.995 1534.778,1009.722 1486.000 C 1018.360 1437.719,1031.425 1391.543,1050.218 1342.884 C 1061.064 1314.800,1063.072 1305.879,1059.113 1303.367 C 1054.300 1300.313,968.360 1299.941,920.000 1302.765 M1766.174 1412.372 C 1824.845 1434.235,1865.108 1474.388,1888.135 1534.000 C 1895.716 1553.628,1897.405 1565.651,1897.405 1600.000 C 1897.405 1634.349,1895.716 1646.372,1888.135 1666.000 C 1868.358 1717.198,1831.511 1758.402,1786.562 1779.584 C 1677.653 1830.908,1556.161 1780.672,1511.865 1666.000 C 1498.535 1631.489,1498.562 1568.375,1511.923 1534.000 C 1529.004 1490.053,1553.929 1458.066,1589.285 1434.722 C 1608.937 1421.747,1646.198 1406.455,1668.000 1402.417 C 1690.086 1398.327,1742.837 1403.676,1766.174 1412.372 " fill="#1D1E23" stroke="none" fill-rule="evenodd"/></svg>