<svg viewBox="0 0 2400 2400" fill="none" xmlns="http://www.w3.org/2000/svg"><path d="M1118.000 206.424 C 956.947 218.282,787.043 277.650,644.362 371.923 C 494.452 470.972,358.807 630.799,288.119 791.674 C 266.998 839.740,242.361 911.165,230.085 959.915 C 182.920 1147.222,193.856 1354.889,260.483 1537.119 C 334.478 1739.503,470.551 1912.980,650.000 2033.707 C 696.182 2064.777,800.010 2116.962,857.739 2138.120 C 908.419 2156.694,1005.333 2181.431,1062.000 2190.256 C 1129.444 2200.759,1285.600 2199.715,1350.000 2188.330 C 1565.633 2150.209,1739.801 2062.760,1894.450 1914.965 C 2167.011 1654.483,2267.301 1255.006,2149.937 897.307 C 2068.516 649.154,1906.900 452.080,1682.000 326.706 C 1573.429 266.182,1435.324 222.100,1324.000 212.437 C 1271.207 207.854,1147.583 204.246,1118.000 206.424 M1238.825 507.839 C 1273.693 510.724,1289.881 514.166,1311.698 523.332 C 1402.616 561.532,1477.796 655.127,1492.336 748.215 C 1497.801 783.203,1494.628 848.229,1485.803 882.111 C 1466.561 955.986,1399.426 1035.125,1326.806 1069.536 C 1283.484 1090.064,1249.416 1097.272,1196.000 1097.212 C 1155.590 1097.167,1145.489 1095.678,1112.879 1084.964 C 1031.091 1058.093,971.251 1005.600,930.455 924.939 C 911.787 888.028,906.313 859.361,906.598 800.000 C 906.906 735.862,912.802 709.129,936.913 662.547 C 957.243 623.268,1012.741 564.808,1050.000 543.423 C 1113.053 507.233,1149.191 500.423,1238.825 507.839 M1301.750 1302.301 C 1515.626 1326.209,1702.155 1411.671,1769.194 1516.471 C 1786.120 1542.930,1801.349 1585.449,1797.849 1596.475 C 1790.459 1619.759,1695.538 1719.506,1641.929 1760.321 C 1543.781 1835.048,1395.476 1887.614,1258.191 1896.335 C 1050.311 1909.542,860.529 1850.349,716.316 1727.323 C 679.043 1695.526,618.595 1627.480,607.539 1604.872 C 599.430 1588.290,599.376 1587.080,605.868 1566.872 C 615.290 1537.543,642.136 1493.483,663.758 1471.861 C 723.062 1412.557,862.832 1348.124,997.005 1318.236 C 1038.788 1308.929,1099.555 1299.286,1146.000 1294.593 C 1170.076 1292.160,1243.562 1295.797,1301.750 1302.301 " fill="#1D1E23" stroke="none" fill-rule="evenodd"/></svg>