<svg viewBox="0 0 2400 2400" fill="none" xmlns="http://www.w3.org/2000/svg"><path d="M907.497 414.110 C 800.986 437.956,695.236 521.028,647.948 618.000 C 599.152 718.066,589.435 797.408,614.059 894.731 C 662.293 1085.368,848.595 1217.981,1037.349 1196.037 C 1200.006 1177.127,1332.578 1067.958,1381.601 912.552 C 1415.470 805.189,1395.704 675.910,1330.757 580.000 C 1313.041 553.839,1257.800 497.885,1230.000 477.942 C 1196.497 453.909,1145.103 429.048,1108.754 419.293 C 1067.518 408.226,947.576 405.138,907.497 414.110 M1636.131 1107.373 C 1607.197 1110.849,1601.613 1119.494,1582.574 1190.291 C 1574.407 1220.663,1565.910 1247.698,1563.693 1250.370 C 1561.476 1253.041,1537.460 1267.880,1510.323 1283.345 L 1460.984 1311.463 1431.492 1302.099 C 1399.313 1291.881,1345.544 1280.000,1331.483 1280.000 C 1313.062 1280.000,1264.232 1347.423,1240.998 1404.939 C 1232.164 1426.807,1232.038 1428.487,1238.295 1440.939 C 1241.905 1448.123,1263.566 1472.174,1286.429 1494.387 L 1328.000 1534.775 1328.000 1599.937 L 1328.000 1665.098 1279.463 1712.362 C 1232.796 1757.804,1231.025 1760.134,1233.524 1772.813 C 1240.525 1808.337,1302.578 1911.878,1322.234 1920.834 C 1333.892 1926.146,1357.142 1921.586,1419.829 1901.692 L 1461.788 1888.377 1491.894 1907.649 C 1508.452 1918.249,1531.000 1931.592,1542.000 1937.300 C 1553.000 1943.009,1564.216 1949.186,1566.924 1951.028 C 1569.632 1952.871,1575.533 1972.293,1580.037 1994.189 C 1591.291 2048.901,1599.881 2074.494,1610.264 2084.248 C 1622.471 2095.716,1667.451 2101.481,1721.561 2098.513 C 1792.711 2094.610,1797.939 2089.802,1819.992 2008.000 C 1828.166 1977.682,1835.395 1959.100,1841.197 1953.493 C 1846.039 1948.814,1870.439 1932.140,1895.420 1916.440 L 1940.840 1887.893 1977.420 1899.594 C 2033.912 1917.665,2064.400 1924.767,2074.547 1922.220 C 2085.438 1919.487,2107.880 1890.825,2136.013 1843.719 C 2160.498 1802.722,2169.375 1776.137,2163.627 1761.018 C 2161.402 1755.167,2140.926 1731.395,2118.124 1708.190 L 2076.666 1666.000 2075.454 1601.112 L 2074.241 1536.223 2116.912 1492.921 C 2140.381 1469.105,2161.402 1444.833,2163.627 1438.982 C 2166.563 1431.257,2166.109 1423.094,2161.968 1409.172 C 2155.367 1386.979,2117.931 1322.062,2097.012 1296.534 L 2082.671 1279.031 2057.131 1281.648 C 2043.084 1283.087,2011.086 1290.480,1986.023 1298.077 L 1940.455 1311.889 1891.722 1282.945 C 1864.919 1267.025,1840.279 1249.902,1836.966 1244.894 C 1833.652 1239.886,1825.223 1213.786,1818.234 1186.894 C 1803.474 1130.097,1799.777 1122.159,1784.385 1114.199 C 1771.452 1107.511,1672.792 1102.968,1636.131 1107.373 M894.000 1308.374 C 701.624 1319.283,447.237 1405.594,316.000 1504.484 C 265.500 1542.537,232.936 1589.601,209.782 1658.000 L 198.950 1690.000 201.194 1806.788 C 203.727 1938.594,204.928 1944.501,235.082 1973.396 C 249.854 1987.551,253.844 1989.139,284.575 1993.086 C 323.323 1998.063,1109.478 1999.838,1114.367 1994.960 C 1116.042 1993.288,1102.803 1961.788,1084.947 1924.960 C 1067.090 1888.132,1043.957 1834.600,1033.540 1806.000 L 1014.600 1754.000 1011.057 1670.000 C 1004.910 1524.260,1009.826 1473.907,1040.082 1372.697 C 1049.075 1342.614,1057.357 1314.850,1058.486 1311.000 C 1060.377 1304.552,1056.178 1304.047,1005.270 1304.599 C 974.871 1304.929,924.800 1306.627,894.000 1308.374 M1736.437 1408.083 C 1788.313 1417.921,1837.672 1453.937,1872.703 1507.513 L 1892.000 1537.026 1892.000 1600.000 L 1892.000 1662.974 1872.686 1692.487 C 1814.279 1781.739,1727.558 1817.436,1641.265 1787.747 C 1597.357 1772.640,1558.895 1740.468,1527.383 1692.487 L 1508.000 1662.974 1508.000 1600.000 L 1508.000 1537.026 1527.397 1507.513 C 1560.934 1456.488,1608.435 1418.371,1650.984 1408.343 C 1672.045 1403.379,1711.009 1403.261,1736.437 1408.083 " fill="#1D1E23" stroke="none" fill-rule="evenodd"/></svg>