<svg viewBox="0 0 2400 2400" fill="none" xmlns="http://www.w3.org/2000/svg"><path d="M940.000 408.656 C 890.001 412.562,829.116 436.231,774.000 473.188 C 741.427 495.029,688.054 549.484,666.379 582.990 C 645.506 615.256,622.416 669.161,612.213 709.442 C 560.566 913.347,694.258 1133.543,901.524 1185.950 C 991.699 1208.750,1080.539 1200.088,1166.475 1160.116 C 1212.434 1138.739,1244.814 1115.666,1284.188 1076.236 C 1337.490 1022.858,1372.589 958.521,1390.692 881.014 C 1401.018 836.803,1400.056 753.297,1388.735 711.253 C 1366.777 629.699,1337.128 577.128,1282.000 522.000 C 1238.185 478.185,1200.343 453.223,1141.151 429.091 C 1093.232 409.554,1021.625 402.280,940.000 408.656 M1624.000 1103.601 C 1600.379 1106.749,1596.237 1115.229,1581.566 1190.473 L 1570.195 1248.796 1546.221 1260.898 C 1533.036 1267.554,1508.385 1281.598,1491.441 1292.107 L 1460.634 1311.214 1399.317 1291.472 C 1362.834 1279.725,1332.500 1272.189,1324.420 1272.865 C 1311.307 1273.961,1309.274 1276.655,1265.420 1351.021 C 1240.439 1393.382,1220.000 1430.560,1220.000 1433.638 C 1220.000 1436.716,1243.400 1459.585,1272.000 1484.458 L 1324.000 1529.681 1324.000 1599.946 L 1324.000 1670.210 1272.000 1715.694 C 1243.400 1740.710,1220.000 1763.595,1220.000 1766.550 C 1220.000 1771.753,1304.817 1918.329,1312.043 1925.614 C 1318.702 1932.327,1337.776 1928.615,1399.388 1908.614 L 1460.776 1888.685 1493.388 1909.918 C 1511.325 1921.595,1536.006 1936.047,1548.235 1942.033 L 1570.470 1952.916 1581.568 2009.384 C 1594.763 2076.517,1600.086 2090.710,1614.067 2096.025 C 1625.374 2100.324,1763.165 2101.567,1783.245 2097.551 C 1799.165 2094.367,1804.226 2081.660,1818.499 2009.042 L 1829.530 1952.916 1851.765 1942.033 C 1863.994 1936.047,1888.655 1921.609,1906.567 1909.947 L 1939.133 1888.744 2008.315 1910.905 L 2077.497 1933.065 2086.428 1922.682 C 2096.555 1910.909,2152.966 1820.945,2170.449 1788.687 L 2182.000 1767.374 2126.984 1714.687 L 2071.969 1662.000 2071.984 1599.814 L 2072.000 1537.629 2126.000 1486.514 C 2155.700 1458.401,2180.000 1433.511,2180.000 1431.203 C 2180.000 1427.100,2097.394 1289.139,2086.290 1274.696 C 2080.865 1267.641,2079.677 1267.673,2051.328 1275.627 C 2035.188 1280.156,2003.504 1290.085,1980.920 1297.690 L 1939.858 1311.519 1908.805 1292.259 C 1891.726 1281.666,1866.964 1267.554,1853.779 1260.898 L 1829.805 1248.796 1818.434 1190.473 C 1803.801 1115.422,1799.626 1106.845,1776.000 1103.296 C 1754.287 1100.035,1649.171 1100.246,1624.000 1103.601 M878.000 1308.380 C 684.088 1322.646,420.199 1416.776,303.718 1513.228 C 259.694 1549.683,231.444 1592.952,209.452 1657.612 C 200.147 1684.969,200.000 1687.849,200.000 1842.799 L 200.000 2000.196 657.668 1999.098 C 909.385 1998.494,1116.499 1996.836,1117.921 1995.414 C 1119.343 1993.991,1111.310 1976.653,1100.071 1956.885 C 1072.680 1908.711,1048.424 1852.595,1028.654 1791.665 L 1012.322 1741.329 1009.693 1635.665 C 1006.359 1501.640,1009.336 1474.703,1037.975 1379.724 C 1050.089 1339.549,1060.000 1306.076,1060.000 1305.339 C 1060.000 1302.829,922.144 1305.132,878.000 1308.380 M1740.803 1408.407 C 1794.273 1419.523,1843.830 1457.043,1875.297 1510.233 L 1892.000 1538.465 1892.000 1600.000 L 1892.000 1661.535 1875.699 1688.973 C 1829.179 1767.279,1748.142 1809.885,1671.706 1796.225 C 1611.600 1785.483,1558.803 1747.240,1524.735 1689.767 L 1508.000 1661.535 1508.010 1599.767 L 1508.021 1538.000 1522.427 1514.000 C 1551.846 1464.992,1587.387 1432.761,1634.000 1412.818 C 1656.941 1403.003,1705.219 1401.009,1740.803 1408.407 " fill="#1D1E23" stroke="none" fill-rule="evenodd"/></svg>