<svg viewBox="0 0 2400 2400" fill="none" xmlns="http://www.w3.org/2000/svg"><path d="M1100.000 415.877 C 1056.903 427.334,987.558 463.107,949.006 493.769 C 877.394 550.725,824.719 639.956,807.820 732.936 C 801.485 767.792,802.426 840.427,809.654 874.554 C 827.200 957.392,862.172 1022.780,919.696 1080.304 C 971.860 1132.468,1033.721 1167.554,1107.177 1186.636 C 1139.279 1194.976,1155.349 1196.733,1200.000 1196.785 C 1269.045 1196.865,1313.855 1186.041,1379.640 1153.389 C 1420.448 1133.135,1429.900 1126.273,1468.907 1088.587 C 1520.598 1038.647,1553.502 991.901,1570.917 943.661 C 1590.335 889.874,1593.840 867.622,1593.864 798.000 C 1593.883 743.617,1592.500 728.891,1584.661 700.000 C 1573.195 657.738,1549.662 606.942,1526.577 574.626 C 1489.329 522.482,1416.361 462.171,1359.122 436.218 C 1312.827 415.227,1292.097 411.586,1208.000 409.674 C 1139.175 408.109,1126.471 408.839,1100.000 415.877 M1101.130 1308.078 C 1006.648 1315.517,854.628 1348.169,755.120 1382.398 C 689.809 1404.863,602.624 1446.925,552.000 1480.391 C 507.837 1509.586,447.880 1567.983,429.169 1600.027 C 404.842 1641.690,403.478 1653.095,401.085 1835.000 L 398.913 2000.000 1199.457 2000.000 L 2000.000 2000.000 2000.000 1827.000 L 2000.000 1654.000 1981.369 1621.014 C 1944.817 1556.296,1895.811 1508.710,1817.409 1461.806 C 1695.649 1388.963,1511.541 1332.405,1330.000 1312.074 C 1277.364 1306.179,1152.862 1304.005,1101.130 1308.078 " fill="#1D1E23" stroke="none" fill-rule="evenodd"/></svg>