<svg viewBox="0 0 2400 2400" fill="none" xmlns="http://www.w3.org/2000/svg"><path d="M940.000 408.656 C 890.001 412.562,829.116 436.231,774.000 473.188 C 741.427 495.029,688.054 549.484,666.379 582.990 C 645.506 615.256,622.416 669.161,612.213 709.442 C 560.566 913.347,694.258 1133.543,901.524 1185.950 C 991.699 1208.750,1080.539 1200.088,1166.475 1160.116 C 1212.434 1138.739,1244.814 1115.666,1284.188 1076.236 C 1337.490 1022.858,1372.589 958.521,1390.692 881.014 C 1401.018 836.803,1400.056 753.297,1388.735 711.253 C 1366.777 629.699,1337.128 577.128,1282.000 522.000 C 1238.185 478.185,1200.343 453.223,1141.151 429.091 C 1093.232 409.554,1021.625 402.280,940.000 408.656 M1621.458 1108.165 C 1604.933 1113.206,1598.302 1127.799,1581.694 1195.670 C 1574.382 1225.551,1566.060 1251.389,1563.200 1253.087 C 1560.340 1254.785,1536.024 1268.653,1509.164 1283.905 L 1460.328 1311.635 1431.591 1301.861 C 1398.508 1290.609,1350.068 1280.000,1331.773 1280.000 C 1322.793 1280.000,1315.794 1283.656,1307.234 1292.820 C 1291.457 1309.710,1250.088 1379.954,1239.931 1407.104 C 1232.323 1427.437,1232.248 1429.314,1238.519 1442.528 C 1242.161 1450.203,1263.761 1473.923,1286.521 1495.241 L 1327.901 1534.000 1327.950 1600.351 L 1328.000 1666.702 1294.081 1697.579 C 1275.426 1714.561,1253.466 1736.628,1245.281 1746.617 L 1230.399 1764.778 1237.566 1785.389 C 1249.189 1818.813,1288.664 1888.341,1306.864 1907.445 C 1323.239 1924.634,1324.281 1925.079,1342.864 1922.813 C 1353.389 1921.529,1384.452 1913.256,1411.893 1904.427 L 1461.787 1888.376 1491.893 1907.655 C 1508.452 1918.259,1533.250 1932.600,1547.000 1939.525 C 1560.750 1946.449,1572.000 1953.020,1572.000 1954.126 C 1572.000 1955.231,1576.500 1977.255,1582.000 2003.068 C 1595.395 2065.936,1602.035 2082.779,1616.344 2090.178 C 1631.798 2098.170,1704.583 2101.804,1747.539 2096.730 C 1794.655 2091.163,1800.469 2084.805,1816.044 2021.812 C 1831.844 1957.903,1834.010 1953.475,1855.549 1941.049 C 1865.697 1935.194,1888.961 1920.832,1907.246 1909.133 L 1940.492 1887.862 1991.246 1904.117 C 2019.161 1913.058,2049.691 1921.439,2059.090 1922.742 C 2075.202 1924.976,2077.090 1924.157,2092.052 1908.428 C 2111.430 1888.057,2153.325 1818.117,2162.256 1791.228 C 2171.456 1763.531,2166.450 1753.993,2117.525 1706.000 L 2076.749 1666.000 2074.912 1601.396 L 2073.076 1536.792 2115.862 1494.855 C 2166.696 1445.031,2171.529 1436.150,2162.397 1409.350 C 2152.778 1381.120,2113.548 1313.964,2095.740 1295.244 L 2080.127 1278.831 2055.063 1281.237 C 2041.279 1282.560,2009.945 1290.025,1985.432 1297.826 L 1940.865 1312.010 1895.432 1284.978 C 1827.410 1244.504,1833.830 1252.214,1820.130 1194.546 C 1798.992 1105.575,1799.937 1106.303,1704.183 1105.169 C 1665.583 1104.713,1628.356 1106.061,1621.458 1108.165 M878.000 1308.380 C 684.088 1322.646,420.199 1416.776,303.718 1513.228 C 259.250 1550.051,229.733 1595.813,208.077 1661.510 C 199.262 1688.249,199.067 1692.283,201.107 1805.510 C 202.314 1872.461,205.072 1927.954,207.592 1936.000 C 212.668 1952.205,240.471 1982.771,255.619 1988.801 C 261.328 1991.074,302.000 1994.420,346.000 1996.237 C 447.837 2000.442,1108.377 2000.909,1114.875 1996.780 C 1118.450 1994.508,1115.995 1986.796,1105.662 1967.841 C 1074.333 1910.374,1050.243 1855.785,1031.763 1800.380 L 1012.291 1742.000 1009.678 1636.000 C 1006.365 1501.599,1009.334 1474.711,1037.975 1379.724 C 1050.089 1339.549,1060.000 1306.076,1060.000 1305.339 C 1060.000 1302.829,922.144 1305.132,878.000 1308.380 M1740.803 1408.407 C 1794.273 1419.523,1843.830 1457.043,1875.297 1510.233 L 1892.000 1538.465 1892.000 1600.000 L 1892.000 1661.535 1875.699 1688.973 C 1829.179 1767.279,1748.142 1809.885,1671.706 1796.225 C 1611.600 1785.483,1558.803 1747.240,1524.735 1689.767 L 1508.000 1661.535 1508.010 1599.767 L 1508.021 1538.000 1522.427 1514.000 C 1551.846 1464.992,1587.387 1432.761,1634.000 1412.818 C 1656.941 1403.003,1705.219 1401.009,1740.803 1408.407 " fill="#1D1E23" stroke="none" fill-rule="evenodd"/></svg>