<svg viewBox="0 0 2400 2400" fill="none" xmlns="http://www.w3.org/2000/svg"><path d="M929.447 407.725 C 880.332 415.593,812.250 444.782,766.440 477.612 C 735.379 499.871,690.512 546.469,667.853 580.000 C 645.576 612.966,623.602 663.815,611.674 710.000 C 598.790 759.886,598.595 838.257,611.227 889.228 C 629.812 964.213,666.448 1029.216,720.630 1083.338 C 849.966 1212.532,1043.441 1235.331,1205.612 1140.488 C 1240.899 1119.851,1291.336 1074.652,1318.566 1039.265 C 1373.870 967.393,1404.273 869.192,1398.739 780.304 C 1391.018 656.260,1325.570 538.865,1227.962 473.975 C 1191.501 449.736,1131.825 421.797,1099.865 414.004 C 1070.009 406.723,960.812 402.700,929.447 407.725 M1646.000 1103.708 C 1632.800 1105.076,1618.166 1108.349,1613.481 1110.981 C 1601.894 1117.490,1593.366 1140.509,1581.350 1197.715 C 1571.455 1244.826,1567.176 1256.000,1559.031 1256.000 C 1556.837 1256.000,1533.922 1268.497,1508.109 1283.772 L 1461.177 1311.544 1417.589 1297.316 C 1369.173 1281.513,1330.341 1276.325,1316.382 1283.795 C 1304.863 1289.960,1268.622 1345.600,1247.630 1389.348 C 1225.217 1436.057,1225.724 1437.547,1282.305 1491.273 L 1328.000 1534.661 1328.000 1599.749 L 1328.000 1664.838 1279.925 1711.419 C 1241.179 1748.961,1231.865 1760.142,1231.925 1769.037 C 1232.012 1781.884,1270.673 1858.714,1295.287 1894.953 C 1319.852 1931.122,1328.231 1931.748,1414.052 1903.827 L 1462.862 1887.947 1490.387 1906.405 C 1505.526 1916.556,1529.944 1930.922,1544.651 1938.328 L 1571.390 1951.793 1575.986 1974.897 C 1578.513 1987.604,1583.917 2012.400,1587.993 2030.000 C 1603.610 2097.424,1604.525 2098.000,1696.000 2098.000 C 1772.171 2098.000,1787.336 2094.491,1800.047 2073.924 C 1804.659 2066.462,1812.926 2039.126,1818.419 2013.178 C 1823.912 1987.230,1831.041 1961.973,1834.261 1957.051 C 1837.482 1952.130,1847.640 1944.265,1856.836 1939.574 C 1866.031 1934.883,1888.644 1921.310,1907.088 1909.412 L 1940.621 1887.779 1990.422 1903.982 C 2017.813 1912.893,2048.358 1921.299,2058.299 1922.661 C 2075.904 1925.074,2076.861 1924.630,2095.187 1905.536 C 2116.376 1883.459,2163.129 1800.464,2166.671 1778.642 C 2169.851 1759.042,2160.338 1745.204,2114.838 1703.250 L 2077.151 1668.501 2074.920 1603.250 L 2072.689 1538.000 2117.998 1493.881 C 2175.623 1437.769,2176.311 1435.447,2150.821 1383.072 C 2129.419 1339.097,2098.721 1291.624,2086.923 1284.256 C 2072.886 1275.489,2044.169 1278.993,1991.157 1295.941 L 1940.732 1312.061 1909.366 1292.719 C 1892.115 1282.082,1868.423 1268.213,1856.719 1261.900 C 1845.014 1255.587,1833.956 1247.627,1832.145 1244.211 C 1830.335 1240.795,1824.925 1218.200,1820.123 1194.000 C 1810.418 1145.095,1800.635 1120.741,1787.388 1112.515 C 1772.571 1103.314,1695.883 1098.537,1646.000 1103.708 M864.000 1308.488 C 739.444 1322.813,606.539 1357.423,497.978 1403.805 C 389.532 1450.139,320.233 1491.819,279.036 1535.491 C 248.358 1568.010,229.653 1599.962,211.999 1650.000 L 199.298 1686.000 200.928 1806.000 C 202.743 1939.604,203.366 1943.100,230.133 1969.867 C 259.387 1999.121,227.288 1997.106,697.000 1999.161 C 1024.741 2000.595,1120.000 1999.929,1120.000 1996.204 C 1120.000 1993.559,1113.016 1979.382,1104.480 1964.698 C 1067.731 1901.483,1045.846 1850.564,1023.241 1775.688 L 1010.655 1734.000 1008.967 1620.000 C 1007.002 1487.342,1008.752 1472.143,1035.860 1386.350 C 1046.348 1353.157,1056.104 1321.050,1057.540 1315.000 L 1060.152 1304.000 977.076 1304.519 C 931.384 1304.804,880.500 1306.590,864.000 1308.488 M1751.067 1410.460 C 1802.208 1423.747,1844.913 1457.473,1874.471 1507.916 L 1892.000 1537.833 1892.000 1600.000 L 1892.000 1662.167 1874.337 1692.341 C 1791.218 1834.333,1608.822 1834.401,1525.738 1692.470 L 1508.000 1662.167 1508.000 1600.000 L 1508.000 1537.833 1525.663 1507.659 C 1554.748 1457.972,1602.086 1420.072,1652.419 1406.175 C 1676.460 1399.536,1715.559 1401.235,1751.067 1410.460 " fill="#1D1E23" stroke="none" fill-rule="evenodd"/></svg>