<svg viewBox="0 0 2400 2400" fill="none" xmlns="http://www.w3.org/2000/svg"><path d="M898.091 414.432 C 617.703 491.314,508.820 824.353,690.027 1050.834 C 768.532 1148.953,893.123 1205.434,1016.000 1198.608 C 1280.680 1183.905,1459.037 931.504,1381.056 682.000 C 1347.564 574.843,1276.115 491.760,1175.791 443.314 C 1108.223 410.685,1075.984 403.920,990.000 404.323 C 943.444 404.542,927.944 406.247,898.091 414.432 M1635.344 1103.542 C 1601.245 1110.724,1596.807 1118.971,1579.636 1207.068 C 1571.624 1248.172,1569.993 1252.351,1561.096 1254.584 C 1555.731 1255.931,1530.999 1269.283,1506.137 1284.255 L 1460.933 1311.477 1411.467 1295.281 C 1354.556 1276.649,1325.494 1273.822,1312.405 1285.647 C 1291.596 1304.446,1232.000 1409.526,1232.000 1427.417 C 1232.000 1443.447,1245.714 1460.699,1287.838 1497.660 L 1328.000 1532.900 1328.000 1600.000 L 1328.000 1667.100 1287.838 1702.340 C 1246.484 1738.626,1232.000 1756.581,1232.000 1771.561 C 1232.000 1789.065,1297.108 1906.719,1312.925 1917.798 C 1327.265 1927.842,1349.127 1925.101,1407.903 1905.892 L 1463.308 1887.784 1488.654 1905.413 C 1502.594 1915.109,1526.913 1929.511,1542.695 1937.418 L 1571.390 1951.793 1576.033 1974.897 C 1590.535 2047.064,1596.774 2071.015,1603.394 2079.935 C 1615.501 2096.251,1638.772 2100.525,1708.000 2099.148 C 1796.419 2097.389,1802.944 2092.453,1817.925 2016.000 C 1830.395 1952.363,1830.037 1953.121,1853.158 1941.495 C 1864.621 1935.731,1888.993 1921.284,1907.317 1909.390 L 1940.635 1887.766 1996.069 1905.883 C 2026.558 1915.847,2056.204 1924.000,2061.950 1924.000 C 2088.019 1924.000,2106.798 1902.078,2146.750 1825.007 C 2178.553 1763.656,2178.637 1764.036,2121.056 1709.131 L 2074.000 1664.262 2073.680 1599.901 L 2073.360 1535.540 2114.972 1497.006 C 2158.267 1456.914,2168.000 1443.797,2168.000 1425.544 C 2168.000 1413.538,2132.828 1344.560,2108.255 1308.376 C 2082.136 1269.914,2073.695 1269.067,1989.300 1296.435 L 1940.601 1312.227 1913.300 1294.625 C 1898.285 1284.943,1875.092 1271.539,1861.761 1264.837 C 1848.429 1258.136,1835.649 1250.256,1833.361 1247.326 C 1831.072 1244.397,1825.179 1221.300,1820.265 1196.000 C 1802.906 1106.636,1798.660 1102.996,1710.000 1101.480 C 1677.000 1100.916,1643.405 1101.844,1635.344 1103.542 M906.000 1304.230 C 738.588 1317.687,580.323 1360.895,429.566 1434.300 C 295.961 1499.355,244.156 1551.439,210.233 1654.820 L 199.463 1687.641 200.743 1806.820 C 202.171 1939.817,202.472 1941.477,230.511 1970.875 C 239.030 1979.807,253.200 1989.479,262.000 1992.368 C 274.684 1996.532,364.556 1997.907,695.621 1999.000 C 925.313 1999.759,1115.620 1999.467,1118.525 1998.352 C 1122.290 1996.907,1117.888 1986.792,1103.210 1963.162 C 1065.355 1902.216,1035.395 1827.576,1015.239 1744.000 C 1006.861 1709.256,1006.082 1696.917,1006.151 1600.000 C 1006.237 1479.894,1007.566 1471.358,1042.727 1365.110 C 1053.082 1333.821,1060.203 1306.870,1058.552 1305.218 C 1054.120 1300.786,956.693 1300.155,906.000 1304.230 M1724.105 1404.228 C 1792.729 1412.789,1847.761 1452.026,1878.568 1514.361 L 1894.000 1545.585 1894.000 1600.000 L 1894.000 1654.415 1878.908 1684.952 C 1836.684 1770.386,1741.567 1816.418,1653.840 1793.873 C 1595.141 1778.788,1548.737 1740.887,1521.504 1685.786 L 1506.000 1654.415 1506.000 1600.000 L 1506.000 1545.585 1521.432 1514.361 C 1552.175 1452.155,1619.390 1405.084,1684.105 1400.438 C 1687.463 1400.197,1705.463 1401.903,1724.105 1404.228 " fill="#1D1E23" stroke="none" fill-rule="evenodd"/></svg>