<svg viewBox="0 0 2400 2400" fill="none" xmlns="http://www.w3.org/2000/svg"><path d="M943.256 404.030 C 884.263 413.415,822.127 437.959,773.129 471.233 C 695.490 523.957,639.422 603.687,613.020 698.911 C 603.383 733.667,602.182 744.873,602.182 800.000 C 602.182 855.349,603.362 866.260,613.184 901.706 C 647.518 1025.614,735.676 1125.213,852.000 1171.512 C 1033.371 1243.702,1246.205 1170.991,1344.371 1003.302 C 1450.291 822.368,1398.484 587.773,1226.871 471.233 C 1191.681 447.336,1134.311 421.411,1095.826 412.015 C 1057.150 402.572,978.349 398.448,943.256 404.030 M1599.036 1105.000 C 1598.035 1107.750,1591.133 1141.185,1583.698 1179.299 L 1570.181 1248.598 1542.091 1261.672 C 1526.641 1268.863,1501.967 1283.036,1487.261 1293.168 L 1460.522 1311.589 1389.442 1287.813 C 1350.348 1274.737,1317.085 1265.379,1315.523 1267.019 C 1313.961 1268.658,1291.078 1307.355,1264.670 1353.010 L 1216.657 1436.020 1273.485 1486.026 L 1330.313 1536.031 1326.588 1568.015 C 1324.285 1587.789,1324.288 1612.240,1326.597 1632.060 L 1330.331 1664.119 1273.515 1714.085 L 1216.699 1764.051 1264.691 1847.025 C 1291.087 1892.661,1313.961 1931.342,1315.523 1932.981 C 1317.085 1934.621,1350.443 1925.231,1389.653 1912.116 L 1460.944 1888.270 1485.827 1906.026 C 1499.513 1915.791,1524.121 1930.151,1540.513 1937.935 L 1570.316 1952.089 1583.766 2021.044 C 1591.163 2058.970,1598.035 2092.250,1599.036 2095.000 C 1600.425 2098.817,1624.322 2100.000,1700.000 2100.000 C 1775.678 2100.000,1799.575 2098.817,1800.964 2095.000 C 1801.965 2092.250,1808.837 2058.970,1816.234 2021.044 L 1829.684 1952.089 1859.487 1937.935 C 1875.879 1930.151,1900.487 1915.791,1914.173 1906.026 L 1939.056 1888.270 2010.347 1912.116 C 2049.557 1925.231,2082.915 1934.621,2084.477 1932.981 C 2086.039 1931.342,2108.913 1892.661,2135.309 1847.025 L 2183.301 1764.051 2125.850 1713.527 C 2070.220 1664.603,2068.488 1662.606,2071.200 1650.501 C 2074.816 1634.356,2074.826 1565.684,2071.214 1549.569 C 2068.521 1537.556,2070.358 1535.440,2125.885 1486.580 L 2183.343 1436.020 2135.330 1353.010 C 2108.922 1307.355,2086.039 1268.658,2084.477 1267.019 C 2082.915 1265.379,2049.652 1274.737,2010.558 1287.813 L 1939.478 1311.589 1912.739 1293.168 C 1898.033 1283.036,1873.359 1268.863,1857.909 1261.672 L 1829.819 1248.598 1816.302 1179.299 C 1808.867 1141.185,1801.965 1107.750,1800.964 1105.000 C 1799.575 1101.183,1775.678 1100.000,1700.000 1100.000 C 1624.322 1100.000,1600.425 1101.183,1599.036 1105.000 M920.000 1302.765 C 761.691 1312.009,592.233 1355.992,445.503 1425.922 C 301.212 1494.689,248.552 1543.494,215.495 1639.092 L 202.041 1678.000 200.774 1839.000 L 199.507 2000.000 661.753 2000.000 C 915.989 2000.000,1124.000 1999.156,1124.000 1998.125 C 1124.000 1997.093,1116.128 1984.043,1106.507 1969.125 C 1057.886 1893.734,1023.277 1800.383,1007.474 1702.000 C 999.755 1653.946,1000.995 1534.778,1009.722 1486.000 C 1018.360 1437.719,1031.425 1391.543,1050.218 1342.884 C 1061.064 1314.800,1063.072 1305.879,1059.113 1303.367 C 1054.300 1300.313,968.360 1299.941,920.000 1302.765 M1766.174 1412.372 C 1824.845 1434.235,1865.108 1474.388,1888.135 1534.000 C 1895.716 1553.628,1897.405 1565.651,1897.405 1600.000 C 1897.405 1634.349,1895.716 1646.372,1888.135 1666.000 C 1868.358 1717.198,1831.511 1758.402,1786.562 1779.584 C 1677.653 1830.908,1556.161 1780.672,1511.865 1666.000 C 1498.535 1631.489,1498.562 1568.375,1511.923 1534.000 C 1529.004 1490.053,1553.929 1458.066,1589.285 1434.722 C 1608.937 1421.747,1646.198 1406.455,1668.000 1402.417 C 1690.086 1398.327,1742.837 1403.676,1766.174 1412.372 " fill="#1D1E23" stroke="none" fill-rule="evenodd"/></svg>