<svg viewBox="0 0 2400 2400" fill="none" xmlns="http://www.w3.org/2000/svg"><path d="M1154.000 402.416 C 984.744 427.496,857.645 537.837,813.184 698.294 C 803.362 733.740,802.182 744.651,802.182 800.000 C 802.182 855.127,803.383 866.333,813.020 901.089 C 852.609 1043.874,956.126 1147.391,1098.911 1186.980 C 1133.667 1196.617,1144.873 1197.818,1200.000 1197.818 C 1255.349 1197.818,1266.260 1196.638,1301.706 1186.816 C 1425.614 1152.482,1525.213 1064.324,1571.512 948.000 C 1640.036 775.840,1578.958 574.514,1426.871 471.233 C 1391.681 447.336,1334.311 421.411,1295.826 412.015 C 1262.970 403.992,1180.862 398.435,1154.000 402.416 M1112.000 1304.426 C 984.040 1315.627,823.275 1352.089,714.944 1394.479 C 659.358 1416.231,594.499 1448.787,552.000 1476.269 C 501.326 1509.038,442.606 1568.201,425.088 1604.138 C 400.798 1653.970,400.000 1661.434,400.000 1838.840 L 400.000 2000.000 1200.199 2000.000 L 2000.398 2000.000 1999.199 1829.000 L 1998.000 1658.000 1987.217 1631.100 C 1935.267 1501.504,1747.384 1391.954,1478.000 1334.187 C 1336.833 1303.915,1223.306 1294.683,1112.000 1304.426 " fill="#1D1E23" stroke="none" fill-rule="evenodd"/></svg>