<svg viewBox="0 0 2400 2400" fill="none" xmlns="http://www.w3.org/2000/svg"><path d="M1122.000 408.476 C 1031.016 432.250,968.241 467.518,911.896 526.515 C 860.860 579.954,825.536 646.124,809.675 718.000 C 798.587 768.245,800.103 847.376,813.093 896.476 C 851.652 1042.211,957.617 1148.278,1103.177 1186.834 C 1156.600 1200.985,1236.834 1201.835,1289.228 1188.803 C 1365.937 1169.725,1430.999 1132.560,1484.301 1077.373 C 1562.463 996.447,1597.551 909.102,1597.332 796.000 C 1597.225 740.574,1589.948 704.239,1567.895 649.021 C 1532.715 560.938,1462.580 486.581,1372.422 441.782 C 1316.698 414.093,1286.271 407.509,1206.000 405.769 C 1166.402 404.910,1131.317 406.041,1122.000 408.476 M1066.000 1310.103 C 928.535 1327.986,777.790 1367.347,675.891 1411.965 C 533.081 1474.496,439.179 1555.279,411.157 1639.711 C 402.867 1664.693,402.357 1674.304,400.909 1833.000 L 399.385 2000.000 1199.890 2000.000 L 2000.394 2000.000 1999.197 1827.000 L 1998.000 1654.000 1987.371 1631.327 C 1925.858 1500.111,1750.212 1396.299,1491.906 1338.490 C 1428.268 1324.248,1360.366 1312.955,1309.171 1308.101 C 1250.938 1302.578,1115.254 1303.696,1066.000 1310.103 " fill="#1D1E23" stroke="none" fill-rule="evenodd"/></svg>