<svg viewBox="0 0 2400 2400" fill="none" xmlns="http://www.w3.org/2000/svg"><path d="M1062.000 210.040 C 838.845 245.765,647.360 340.791,498.022 489.920 C 335.373 652.340,239.530 845.602,207.371 1076.000 C 199.343 1133.512,200.542 1278.601,209.535 1338.000 C 259.968 1671.099,465.368 1953.685,762.000 2098.072 C 996.553 2212.242,1262.178 2230.922,1508.000 2150.533 C 1764.708 2066.585,1981.131 1878.587,2098.027 1638.000 C 2234.203 1357.731,2233.307 1038.111,2095.564 760.000 C 2043.904 655.694,1982.750 570.004,1904.273 491.959 C 1757.151 345.647,1581.994 255.288,1368.000 215.310 C 1310.952 204.652,1116.566 201.304,1062.000 210.040 M1263.106 508.176 C 1364.384 525.410,1462.394 619.496,1489.846 725.840 C 1498.118 757.884,1498.118 842.116,1489.846 874.160 C 1466.730 963.707,1393.785 1046.608,1310.537 1077.943 C 1235.739 1106.097,1164.629 1106.317,1091.214 1078.624 C 1024.058 1053.291,965.957 999.131,930.292 928.616 C 894.612 858.073,894.578 742.342,930.216 671.384 C 984.394 563.512,1094.527 496.072,1206.000 502.507 C 1225.800 503.650,1251.498 506.201,1263.106 508.176 M1256.000 1295.955 C 1443.639 1306.880,1645.520 1381.475,1737.095 1473.722 C 1767.839 1504.691,1785.618 1533.948,1794.637 1568.407 L 1801.548 1594.815 1781.974 1622.407 C 1753.211 1662.953,1671.996 1742.101,1630.000 1770.515 C 1512.242 1850.187,1382.236 1891.827,1230.000 1898.635 C 1044.124 1906.947,860.443 1848.123,727.870 1737.828 C 674.881 1693.744,599.928 1608.469,600.047 1592.403 C 600.256 1564.252,622.890 1516.277,651.265 1483.840 C 736.797 1386.063,971.682 1300.482,1176.000 1292.650 C 1183.700 1292.354,1219.700 1293.842,1256.000 1295.955 " fill="#1D1E23" stroke="none" fill-rule="evenodd"/></svg>