<svg viewBox="0 0 2400 2400" fill="none" xmlns="http://www.w3.org/2000/svg"><path d="M907.497 414.110 C 800.986 437.956,695.236 521.028,647.948 618.000 C 599.152 718.066,589.435 797.408,614.059 894.731 C 662.293 1085.368,848.595 1217.981,1037.349 1196.037 C 1200.006 1177.127,1332.578 1067.958,1381.601 912.552 C 1415.470 805.189,1395.704 675.910,1330.757 580.000 C 1313.041 553.839,1257.800 497.885,1230.000 477.942 C 1196.497 453.909,1145.103 429.048,1108.754 419.293 C 1067.518 408.226,947.576 405.138,907.497 414.110 M1638.064 1102.694 C 1624.206 1103.714,1611.222 1107.084,1607.229 1110.698 C 1598.005 1119.045,1590.206 1144.353,1579.279 1201.388 L 1570.201 1248.777 1550.100 1258.944 C 1539.045 1264.536,1514.303 1278.666,1495.119 1290.342 L 1460.237 1311.573 1426.179 1300.060 C 1368.033 1280.406,1325.381 1270.980,1316.382 1275.795 C 1308.048 1280.256,1280.997 1322.319,1242.116 1391.276 L 1218.844 1432.551 1238.422 1452.551 C 1249.190 1463.551,1272.850 1485.347,1291.000 1500.986 L 1324.000 1529.420 1324.000 1600.277 L 1324.000 1671.134 1291.000 1699.272 C 1272.850 1714.747,1249.213 1736.395,1238.473 1747.377 L 1218.945 1767.345 1234.148 1794.673 C 1242.509 1809.703,1263.648 1846.077,1281.123 1875.504 L 1312.896 1929.008 1331.448 1926.764 C 1341.652 1925.529,1374.927 1916.458,1405.393 1906.605 L 1460.785 1888.691 1493.393 1909.921 C 1511.327 1921.597,1536.001 1936.045,1548.224 1942.028 L 1570.449 1952.906 1580.972 2006.305 C 1594.530 2075.109,1602.591 2093.918,1620.011 2097.402 C 1644.102 2102.220,1777.251 2100.266,1787.645 2094.941 C 1799.738 2088.745,1807.762 2065.625,1820.074 2001.493 L 1829.387 1952.986 1851.694 1942.068 C 1863.962 1936.063,1888.655 1921.609,1906.567 1909.947 L 1939.133 1888.744 2008.315 1910.905 L 2077.497 1933.065 2086.428 1922.682 C 2096.263 1911.248,2151.887 1822.385,2170.328 1788.646 L 2182.000 1767.291 2126.911 1714.646 L 2071.822 1662.000 2071.856 1600.000 L 2071.890 1538.000 2126.724 1485.777 L 2181.557 1433.553 2166.091 1405.777 C 2143.895 1365.915,2095.933 1287.229,2088.815 1279.000 C 2079.587 1268.331,2065.743 1270.300,1999.899 1291.645 L 1939.299 1311.290 1904.650 1290.201 C 1885.592 1278.602,1860.955 1264.536,1849.900 1258.944 L 1829.799 1248.777 1820.721 1201.388 C 1815.728 1175.325,1808.949 1145.662,1805.656 1135.470 C 1795.734 1104.759,1793.426 1103.827,1723.487 1102.287 C 1689.669 1101.542,1651.229 1101.726,1638.064 1102.694 M894.000 1308.374 C 664.898 1321.365,354.367 1441.409,266.025 1551.134 C 244.113 1578.351,214.735 1636.597,206.154 1669.840 C 201.136 1689.280,200.000 1722.036,200.000 1847.285 L 200.000 2000.889 655.680 1999.432 C 906.303 1998.630,1112.776 1996.558,1114.507 1994.826 C 1116.238 1993.095,1104.758 1966.003,1088.995 1934.622 C 1060.450 1877.794,1042.700 1834.845,1022.611 1774.000 C 1012.238 1742.582,1012.028 1739.782,1011.023 1620.000 C 1009.767 1470.257,1008.523 1478.367,1058.451 1311.000 C 1060.375 1304.551,1056.191 1304.047,1005.270 1304.599 C 974.871 1304.929,924.800 1306.627,894.000 1308.374 M1736.437 1408.083 C 1788.313 1417.921,1837.672 1453.937,1872.703 1507.513 L 1892.000 1537.026 1892.000 1600.000 L 1892.000 1662.974 1872.686 1692.487 C 1814.279 1781.739,1727.558 1817.436,1641.265 1787.747 C 1597.357 1772.640,1558.895 1740.468,1527.383 1692.487 L 1508.000 1662.974 1508.000 1600.000 L 1508.000 1537.026 1527.397 1507.513 C 1560.934 1456.488,1608.435 1418.371,1650.984 1408.343 C 1672.045 1403.379,1711.009 1403.261,1736.437 1408.083 " fill="#1D1E23" stroke="none" fill-rule="evenodd"/></svg>