<svg viewBox="0 0 2400 2400" fill="none" xmlns="http://www.w3.org/2000/svg"><path d="M834.416 195.000 C 820.444 216.450,778.849 285.300,741.982 348.000 C 705.115 410.700,672.937 463.298,670.476 464.885 C 664.661 468.632,527.690 501.760,407.000 528.608 L 312.000 549.742 312.166 569.871 C 312.258 580.942,319.208 664.561,327.612 755.692 L 342.893 921.384 221.198 1060.724 L 99.503 1200.063 221.232 1339.123 L 342.962 1478.182 331.837 1600.091 C 314.560 1789.416,310.726 1844.328,314.520 1848.100 C 316.434 1850.003,366.488 1862.538,425.752 1875.954 C 625.130 1921.091,665.360 1931.651,673.216 1940.912 C 677.184 1945.591,718.223 2012.550,764.413 2089.709 C 810.604 2166.869,851.554 2234.168,855.414 2239.263 L 862.432 2248.527 1031.292 2175.926 L 1200.151 2103.326 1341.076 2163.479 C 1464.854 2216.314,1532.497 2244.000,1537.805 2244.000 C 1540.266 2244.000,1591.706 2161.421,1658.283 2050.590 C 1691.128 1995.915,1721.869 1946.968,1726.597 1941.819 C 1737.605 1929.833,1749.356 1926.538,1932.377 1884.120 C 2016.214 1864.690,2086.164 1847.264,2087.822 1845.396 C 2089.479 1843.528,2083.250 1760.120,2073.978 1660.044 L 2057.122 1478.087 2178.837 1339.044 L 2300.553 1200.000 2178.837 1060.956 L 2057.122 921.913 2073.978 739.956 C 2083.250 639.880,2089.598 556.591,2088.087 554.869 C 2086.575 553.147,2006.287 533.724,1909.669 511.707 C 1813.051 489.690,1731.969 469.499,1729.487 466.838 C 1727.005 464.177,1684.094 393.600,1634.128 310.000 C 1584.162 226.400,1542.452 157.160,1541.439 156.132 C 1538.245 152.893,1502.156 167.225,1348.960 232.571 L 1199.921 296.145 1036.056 226.072 C 945.931 187.533,869.408 156.000,866.005 156.000 C 862.583 156.000,848.467 173.427,834.416 195.000 M1669.104 863.565 L 1741.809 935.129 1376.150 1303.805 L 1010.491 1672.480 820.268 1482.258 L 630.046 1292.035 703.990 1218.010 L 777.934 1143.984 894.235 1260.235 L 1010.535 1376.485 1299.760 1084.243 C 1458.833 923.509,1590.653 792.000,1592.692 792.000 C 1594.731 792.000,1629.116 824.204,1669.104 863.565 " fill="#1D1E23" stroke="none" fill-rule="evenodd"/></svg>