<svg viewBox="0 0 2400 2400" fill="none" xmlns="http://www.w3.org/2000/svg"><path d="M851.077 171.826 C 843.626 180.531,802.130 246.877,758.863 319.262 C 715.597 391.646,677.003 454.744,673.099 459.478 C 667.414 466.371,644.485 473.191,558.000 493.711 C 498.600 507.804,418.710 526.193,380.467 534.574 L 310.934 549.813 313.666 593.907 C 315.168 618.158,322.269 701.845,329.446 779.878 L 342.494 921.757 220.988 1060.898 L 99.483 1200.040 221.030 1339.020 L 342.578 1478.000 329.777 1620.000 C 310.295 1836.132,309.803 1846.289,318.653 1849.754 C 322.694 1851.335,386.300 1866.674,460.000 1883.840 C 631.683 1923.828,658.754 1931.255,670.354 1941.551 C 675.590 1946.198,718.152 2013.240,764.937 2090.534 C 811.721 2167.827,852.703 2235.001,856.007 2239.810 L 862.014 2248.552 1031.278 2176.026 L 1200.542 2103.500 1327.271 2157.460 C 1462.217 2214.918,1516.669 2237.472,1530.671 2241.708 C 1539.990 2244.526,1550.768 2228.306,1668.270 2034.619 C 1693.421 1993.159,1719.400 1953.195,1726.000 1945.809 C 1740.287 1929.821,1744.301 1928.558,1890.000 1894.201 C 1949.400 1880.194,2018.441 1863.674,2043.425 1857.490 L 2088.850 1846.245 2086.063 1802.123 C 2084.530 1777.855,2077.455 1695.000,2070.340 1618.000 L 2057.404 1478.000 2178.978 1339.000 L 2300.553 1200.000 2178.936 1061.000 L 2057.320 922.000 2068.202 805.789 C 2085.519 620.862,2089.723 560.123,2085.499 555.899 C 2083.405 553.805,2016.640 536.894,1937.133 518.319 C 1857.626 499.745,1778.254 480.684,1760.751 475.961 L 1728.928 467.374 1638.392 316.687 C 1588.597 233.809,1546.248 163.451,1544.281 160.335 C 1539.504 152.766,1525.483 157.986,1344.923 234.550 L 1199.847 296.069 1090.923 249.611 C 963.402 195.221,869.420 156.000,866.612 156.000 C 865.518 156.000,858.527 163.122,851.077 171.826 M1637.128 841.485 C 1655.528 849.325,1679.515 874.730,1690.490 898.000 C 1701.079 920.454,1701.925 930.631,1695.637 959.950 C 1691.638 978.597,1686.028 985.866,1628.335 1047.146 C 1534.736 1146.565,1236.853 1446.942,1151.139 1528.336 C 1068.063 1607.226,1046.570 1623.880,1023.915 1626.919 C 992.679 1631.108,975.485 1625.336,947.833 1601.378 C 894.709 1555.351,792.846 1456.140,743.126 1402.000 C 683.376 1336.940,669.610 1313.877,673.810 1285.871 C 679.765 1246.160,703.434 1213.542,738.000 1197.411 C 759.719 1187.276,791.556 1184.987,810.522 1192.198 C 825.281 1197.810,859.977 1228.548,942.114 1308.781 L 1010.480 1375.563 1150.240 1235.430 C 1319.932 1065.286,1516.339 874.242,1544.240 852.187 C 1564.016 836.555,1565.740 836.000,1594.488 836.000 C 1610.861 836.000,1630.049 838.468,1637.128 841.485 " fill="#1D1E23" stroke="none" fill-rule="evenodd"/></svg>