<svg viewBox="0 0 2400 2400" fill="none" xmlns="http://www.w3.org/2000/svg"><path d="M857.269 165.000 C 844.019 179.677,820.885 215.945,752.915 328.600 C 717.541 387.229,684.414 441.699,679.299 449.644 C 671.492 461.770,665.548 465.427,642.254 472.436 C 616.034 480.324,417.059 527.137,344.461 542.498 L 310.921 549.594 313.670 595.567 C 315.181 620.852,321.724 699.169,328.209 769.603 C 334.694 840.038,340.000 903.692,340.000 911.057 C 340.000 922.893,326.034 940.450,219.750 1062.220 L 99.501 1199.992 218.750 1336.264 C 314.862 1446.095,338.230 1475.016,339.185 1485.317 C 339.836 1492.347,334.982 1558.376,328.397 1632.049 C 310.678 1830.289,310.061 1841.430,316.517 1846.664 C 319.533 1849.109,365.200 1861.350,418.000 1873.867 C 598.434 1916.641,644.220 1928.234,657.237 1934.442 C 672.463 1941.703,690.533 1968.635,791.968 2135.252 C 840.696 2215.293,862.574 2247.868,866.571 2246.334 C 869.682 2245.141,946.092 2212.519,1036.370 2173.842 L 1200.512 2103.519 1327.256 2157.431 C 1502.222 2231.854,1522.387 2240.000,1531.652 2240.000 C 1541.390 2240.000,1557.860 2216.189,1629.871 2098.000 C 1706.582 1972.098,1726.344 1942.700,1739.479 1934.942 C 1746.052 1931.061,1791.608 1918.192,1840.715 1906.345 C 1889.822 1894.498,1965.794 1876.205,2009.543 1865.694 L 2089.087 1846.582 2086.392 1804.291 C 2084.910 1781.031,2078.272 1702.810,2071.639 1630.466 C 2065.007 1558.122,2060.125 1492.993,2060.790 1485.734 C 2061.785 1474.879,2083.172 1448.342,2181.263 1336.248 L 2300.527 1199.961 2179.174 1061.346 L 2057.821 922.731 2070.549 784.365 C 2077.549 708.264,2084.543 625.937,2086.092 601.416 L 2088.907 556.831 2067.454 550.610 C 2055.654 547.188,1978.500 528.265,1896.000 508.558 C 1813.500 488.852,1741.915 471.162,1736.922 469.247 C 1730.646 466.840,1699.736 418.902,1636.745 313.883 C 1559.417 184.960,1544.148 161.822,1535.733 160.822 C 1524.732 159.515,1493.201 171.855,1318.977 245.650 L 1199.954 296.064 1082.977 246.429 C 948.056 189.181,868.721 156.000,866.762 156.000 C 866.010 156.000,861.738 160.050,857.269 165.000 M1668.546 863.459 L 1742.000 934.918 1376.245 1303.699 L 1010.491 1672.480 820.268 1482.258 L 630.046 1292.035 703.990 1218.010 L 777.934 1143.984 894.197 1260.197 L 1010.460 1376.409 1299.661 1084.205 C 1458.721 923.492,1590.263 792.000,1591.977 792.000 C 1593.690 792.000,1628.146 824.157,1668.546 863.459 " fill="#1D1E23" stroke="none" fill-rule="evenodd"/></svg>