<svg viewBox="0 0 2400 2400" fill="none" xmlns="http://www.w3.org/2000/svg"><path d="M834.416 195.000 C 820.444 216.450,778.849 285.300,741.982 348.000 C 705.115 410.700,672.937 463.298,670.476 464.885 C 664.661 468.632,527.690 501.760,407.000 528.608 L 312.000 549.742 312.166 569.871 C 312.258 580.942,319.208 664.561,327.612 755.692 L 342.893 921.384 221.198 1060.724 L 99.503 1200.063 221.232 1339.123 L 342.962 1478.182 331.837 1600.091 C 314.560 1789.416,310.726 1844.328,314.520 1848.100 C 316.434 1850.003,366.488 1862.538,425.752 1875.954 C 625.130 1921.091,665.360 1931.651,673.216 1940.912 C 677.184 1945.591,718.223 2012.550,764.413 2089.709 C 810.604 2166.869,851.554 2234.168,855.414 2239.263 L 862.432 2248.527 1031.292 2175.926 L 1200.151 2103.326 1341.076 2163.479 C 1464.854 2216.314,1532.497 2244.000,1537.805 2244.000 C 1540.266 2244.000,1591.706 2161.421,1658.283 2050.590 C 1691.128 1995.915,1721.869 1946.968,1726.597 1941.819 C 1737.605 1929.833,1749.356 1926.538,1932.377 1884.120 C 2016.214 1864.690,2086.164 1847.264,2087.822 1845.396 C 2089.479 1843.528,2083.250 1760.120,2073.978 1660.044 L 2057.122 1478.087 2178.837 1339.044 L 2300.553 1200.000 2178.837 1060.956 L 2057.122 921.913 2073.978 739.956 C 2083.250 639.880,2089.598 556.591,2088.087 554.869 C 2086.575 553.147,2006.287 533.724,1909.669 511.707 C 1813.051 489.690,1731.969 469.499,1729.487 466.838 C 1727.005 464.177,1684.094 393.600,1634.128 310.000 C 1584.162 226.400,1542.452 157.160,1541.439 156.132 C 1538.245 152.893,1502.156 167.225,1348.960 232.571 L 1199.921 296.145 1036.056 226.072 C 945.931 187.533,869.408 156.000,866.005 156.000 C 862.583 156.000,848.467 173.427,834.416 195.000 M1637.583 840.700 C 1658.429 851.492,1680.183 873.576,1690.264 894.182 C 1699.560 913.181,1700.792 919.782,1699.063 941.318 C 1697.957 955.092,1693.996 972.273,1690.259 979.499 C 1682.640 994.233,1456.834 1226.394,1269.336 1412.268 C 1059.469 1620.319,1050.274 1628.000,1011.088 1628.000 C 998.248 1628.000,981.779 1625.508,974.490 1622.462 C 957.699 1615.447,816.723 1481.489,744.079 1403.523 C 679.547 1334.262,669.748 1317.786,673.600 1285.011 C 678.420 1244.007,704.405 1210.007,743.829 1193.123 C 764.018 1184.476,799.482 1185.533,818.735 1195.355 C 827.526 1199.840,874.158 1242.130,922.360 1289.334 L 1010.000 1375.158 1246.000 1140.439 C 1486.679 901.066,1553.254 838.042,1569.080 834.590 C 1582.464 831.670,1627.984 835.730,1637.583 840.700 " fill="#1D1E23" stroke="none" fill-rule="evenodd"/></svg>