<svg viewBox="0 0 2400 2400" fill="none" xmlns="http://www.w3.org/2000/svg"><path d="M768.000 304.662 C 718.500 388.523,675.961 459.941,673.468 463.369 C 670.403 467.585,610.849 482.653,489.468 509.926 L 310.000 550.251 311.069 562.125 C 311.658 568.656,319.222 651.984,327.879 747.298 L 343.618 920.595 221.690 1060.290 L 99.762 1199.984 212.496 1328.992 C 274.500 1399.946,329.408 1462.552,334.515 1468.115 L 343.801 1478.230 328.210 1648.115 C 319.635 1741.552,312.052 1825.024,311.358 1833.608 L 310.096 1849.217 489.685 1890.039 C 606.285 1916.543,670.805 1932.966,673.637 1936.862 C 676.037 1940.163,718.500 2011.477,768.000 2095.338 C 817.500 2179.199,859.587 2247.854,861.526 2247.906 C 863.466 2247.958,940.413 2215.392,1032.520 2175.538 L 1199.987 2103.076 1368.593 2175.404 C 1461.326 2215.184,1538.524 2246.912,1540.144 2245.911 C 1541.765 2244.909,1583.173 2176.426,1632.162 2093.726 C 1681.151 2011.027,1724.106 1940.044,1727.617 1935.988 C 1732.368 1930.498,1775.410 1919.267,1896.000 1892.049 C 1985.100 1871.939,2065.265 1853.684,2074.144 1851.483 L 2090.289 1847.481 2073.251 1662.848 L 2056.213 1478.215 2065.492 1468.107 C 2070.595 1462.548,2125.497 1399.950,2187.497 1329.000 L 2300.224 1200.000 2187.497 1071.000 C 2125.497 1000.050,2070.597 937.454,2065.496 931.897 L 2056.222 921.794 2073.297 737.120 L 2090.372 552.447 2048.186 542.662 C 2024.984 537.280,1943.779 518.846,1867.732 501.697 L 1729.463 470.516 1635.732 311.370 C 1584.179 223.839,1540.440 152.173,1538.533 152.111 C 1536.626 152.050,1459.676 184.491,1367.533 224.201 L 1200.000 296.403 1032.467 224.201 C 940.324 184.491,863.374 152.042,861.467 152.094 C 859.560 152.146,817.500 220.801,768.000 304.662 M1669.767 863.767 L 1741.451 935.533 1375.982 1304.018 L 1010.513 1672.503 820.280 1482.269 L 630.046 1292.035 703.990 1218.010 L 777.934 1143.984 894.242 1260.242 L 1010.549 1376.499 1299.781 1084.249 C 1458.858 923.512,1591.053 792.000,1593.548 792.000 C 1596.042 792.000,1630.341 824.295,1669.767 863.767 " fill="#1D1E23" stroke="none" fill-rule="evenodd"/></svg>