<svg viewBox="0 0 2400 2400" fill="none" xmlns="http://www.w3.org/2000/svg"><path d="M829.106 202.725 C 811.676 230.926,769.647 301.262,735.708 359.027 L 674.000 464.055 648.000 471.846 C 624.589 478.861,493.027 509.615,360.087 539.148 L 310.174 550.236 311.433 568.118 C 312.126 577.953,319.574 661.391,327.984 753.536 L 343.276 921.073 221.390 1060.569 L 99.504 1200.064 221.379 1339.290 L 343.254 1478.516 326.414 1663.685 C 315.097 1788.122,310.955 1849.301,313.787 1850.216 C 316.104 1850.964,363.000 1861.668,418.000 1874.003 C 546.821 1902.892,664.790 1931.457,670.418 1935.123 C 672.847 1936.705,705.109 1989.300,742.111 2052.000 C 811.139 2168.970,859.522 2248.000,862.103 2248.000 C 863.457 2248.000,1119.096 2138.461,1174.909 2113.965 L 1199.819 2103.033 1318.909 2154.152 C 1456.897 2213.382,1531.559 2244.000,1538.006 2244.000 C 1540.508 2244.000,1580.924 2179.650,1627.819 2101.000 C 1674.715 2022.350,1717.333 1952.280,1722.525 1945.289 C 1734.373 1929.338,1735.871 1928.901,1933.042 1883.812 C 2018.951 1864.167,2089.588 1847.623,2090.014 1847.047 C 2090.440 1846.471,2083.104 1763.344,2073.713 1662.321 L 2056.637 1478.641 2178.595 1339.321 L 2300.553 1200.000 2178.599 1060.685 L 2056.646 921.369 2073.743 737.685 C 2083.146 636.658,2090.566 553.616,2090.233 553.146 C 2089.710 552.410,1814.140 489.537,1751.972 475.969 C 1730.532 471.290,1729.531 470.454,1714.405 444.581 C 1673.377 374.401,1548.065 165.160,1543.235 158.770 C 1538.109 151.987,1527.343 156.009,1368.889 223.902 L 1200.007 296.264 1036.117 226.050 C 945.978 187.433,869.656 154.849,866.512 153.643 C 862.527 152.114,851.201 166.976,829.106 202.725 M1626.361 836.508 C 1648.914 842.187,1680.226 869.678,1692.116 894.239 C 1699.269 909.015,1700.590 917.623,1699.382 941.562 C 1698.142 966.101,1695.975 973.633,1685.952 988.237 C 1672.065 1008.471,1228.982 1455.863,1133.157 1546.409 C 1049.813 1625.160,1043.581 1629.309,1009.504 1628.729 C 988.727 1628.375,979.264 1626.011,964.591 1617.511 C 953.948 1611.346,891.986 1552.718,819.653 1480.371 C 675.598 1336.289,669.114 1327.577,673.112 1283.479 C 675.870 1253.062,690.751 1227.814,718.105 1207.140 C 753.261 1180.569,796.719 1178.164,829.717 1200.963 C 836.473 1205.631,879.848 1246.883,926.107 1292.634 L 1010.214 1375.818 1196.107 1189.559 C 1449.417 935.749,1552.601 837.019,1566.777 834.887 C 1589.009 831.543,1608.779 832.081,1626.361 836.508 " fill="#1D1E23" stroke="none" fill-rule="evenodd"/></svg>