<svg viewBox="0 0 2400 2400" fill="none" xmlns="http://www.w3.org/2000/svg"><path d="M1018.000 416.359 C 966.621 425.365,888.385 443.965,840.689 458.513 C 724.811 493.858,546.343 590.848,458.000 666.489 C 346.029 762.360,248.904 873.378,188.970 974.000 C 155.678 1029.895,104.000 1134.991,104.000 1146.803 C 104.000 1173.264,153.280 1272.497,206.070 1352.334 C 339.278 1553.794,516.414 1706.135,722.577 1796.541 C 948.140 1895.454,1190.509 1923.637,1420.000 1877.638 C 1599.523 1841.654,1766.220 1768.370,1904.000 1664.859 C 1957.278 1624.833,2091.971 1492.358,2132.625 1440.000 C 2185.598 1371.777,2249.830 1265.139,2284.076 1188.562 L 2300.819 1151.124 2286.233 1116.562 C 2246.540 1022.511,2158.082 884.841,2089.255 810.000 C 1962.650 672.331,1873.883 603.865,1724.000 528.279 C 1650.984 491.458,1607.345 473.837,1535.056 451.986 C 1420.293 417.297,1342.860 407.884,1176.000 408.337 C 1082.304 408.591,1054.163 410.020,1018.000 416.359 M1330.000 669.656 C 1362.969 678.546,1468.717 731.106,1498.116 753.214 C 1555.702 796.519,1619.840 875.786,1649.629 940.466 C 1684.628 1016.457,1693.561 1066.177,1690.871 1170.000 C 1688.516 1260.848,1680.558 1295.824,1646.226 1366.207 C 1577.217 1507.681,1452.381 1604.700,1296.000 1638.393 C 1249.287 1648.457,1151.539 1648.409,1104.000 1638.298 C 976.104 1611.097,872.226 1543.303,796.372 1437.530 C 744.537 1365.252,716.542 1288.849,708.043 1196.472 C 693.492 1038.301,745.454 900.350,861.575 788.869 C 921.050 731.771,993.758 690.909,1074.000 669.487 C 1108.392 660.305,1114.378 659.950,1208.000 661.530 C 1281.466 662.771,1312.008 664.805,1330.000 669.656 M1111.040 866.059 C 1080.586 877.245,1032.534 904.843,1007.363 925.606 C 974.493 952.718,947.148 988.758,926.884 1031.674 C 913.274 1060.498,910.371 1071.547,906.732 1108.382 C 900.803 1168.389,906.942 1224.540,923.409 1260.921 C 959.273 1340.155,1022.310 1401.357,1095.570 1428.071 C 1174.924 1457.006,1254.253 1453.013,1330.000 1416.271 C 1389.523 1387.398,1438.579 1338.328,1468.231 1278.000 C 1492.652 1228.314,1497.350 1203.776,1495.035 1138.000 C 1493.253 1087.371,1491.866 1078.931,1480.571 1050.000 C 1460.195 997.809,1426.530 952.407,1381.041 915.771 C 1344.558 886.388,1308.874 869.247,1273.560 864.142 C 1232.363 858.187,1129.156 859.404,1111.040 866.059 " fill="#1D1E23" stroke="none" fill-rule="evenodd"/></svg>