<svg viewBox="0 0 2400 2400" fill="none" xmlns="http://www.w3.org/2000/svg"><path d="M1114.000 404.167 C 902.703 421.386,711.075 488.855,533.532 608.542 C 468.219 652.572,432.247 684.037,346.000 772.577 C 275.002 845.462,235.683 895.946,186.007 978.000 C 161.299 1018.811,108.408 1122.884,102.356 1142.597 C 99.078 1153.274,126.255 1216.659,160.563 1278.356 C 265.007 1466.177,419.711 1627.606,594.865 1731.536 C 946.635 1940.265,1369.375 1955.199,1732.122 1771.712 C 1831.037 1721.678,1911.625 1666.418,1980.498 1601.397 C 2047.340 1538.294,2113.542 1467.184,2145.652 1424.000 C 2200.593 1350.111,2259.229 1249.030,2289.667 1175.736 L 2300.575 1149.472 2281.802 1106.607 C 2249.712 1033.334,2179.246 917.220,2126.074 850.000 C 2098.363 814.967,1989.091 704.584,1945.420 667.507 C 1903.824 632.194,1815.521 573.305,1755.992 541.180 C 1629.669 473.010,1483.626 427.505,1336.000 410.318 C 1269.302 402.553,1168.185 399.751,1114.000 404.167 M1334.000 669.550 C 1379.010 682.832,1449.238 716.801,1486.000 743.073 C 1586.989 815.244,1661.046 925.237,1684.515 1037.913 C 1694.804 1087.314,1698.063 1160.492,1692.322 1213.214 C 1673.462 1386.413,1553.621 1543.703,1388.707 1611.709 C 1372.816 1618.261,1340.506 1628.611,1316.907 1634.709 C 1277.549 1644.878,1267.878 1645.795,1200.000 1645.795 C 1131.907 1645.795,1122.531 1644.899,1082.543 1634.571 C 957.542 1602.287,855.354 1530.405,785.752 1425.800 C 724.377 1333.559,699.884 1240.299,705.439 1120.000 C 710.244 1015.941,740.814 933.805,807.846 844.846 C 866.833 766.564,942.879 712.340,1041.334 678.358 C 1099.978 658.117,1115.284 656.236,1210.000 657.631 C 1291.420 658.831,1300.692 659.722,1334.000 669.550 M1118.000 863.318 C 1015.498 894.078,936.087 975.328,909.953 1076.181 C 901.755 1107.817,901.985 1193.053,910.355 1225.423 C 917.812 1254.261,939.176 1298.356,958.338 1324.461 C 979.176 1352.848,1024.560 1393.690,1052.674 1409.357 C 1066.604 1417.119,1092.400 1428.466,1110.000 1434.572 C 1138.927 1444.609,1147.377 1445.690,1198.000 1445.837 C 1245.814 1445.976,1258.385 1444.631,1284.000 1436.633 C 1385.675 1404.885,1464.577 1323.562,1489.994 1224.320 C 1498.696 1190.344,1498.884 1110.285,1490.339 1077.310 C 1471.645 1005.164,1415.561 930.923,1350.723 892.491 C 1303.126 864.279,1281.155 858.881,1208.000 857.427 C 1153.299 856.340,1137.891 857.349,1118.000 863.318 " fill="#1D1E23" stroke="none" fill-rule="evenodd"/></svg>