<svg viewBox="0 0 2400 2400" fill="none" xmlns="http://www.w3.org/2000/svg"><path d="M305.140 296.436 C 250.633 317.389,226.206 390.121,258.180 436.259 C 264.432 445.281,314.145 498.172,368.653 553.794 L 467.758 654.926 436.641 680.973 C 401.508 710.382,307.758 807.701,273.811 850.000 C 219.750 917.364,145.595 1040.655,114.409 1115.025 L 99.596 1150.348 114.033 1184.174 C 186.997 1355.129,317.798 1522.495,480.375 1652.925 C 638.477 1779.766,844.316 1863.995,1066.000 1892.565 C 1125.561 1900.241,1282.202 1899.090,1344.000 1890.523 C 1412.762 1880.990,1485.546 1864.461,1565.783 1840.156 L 1633.566 1819.623 1733.783 1919.070 C 1904.406 2088.381,1928.366 2110.135,1950.297 2115.657 C 1983.467 2124.010,2018.066 2113.394,2042.552 2087.351 C 2060.798 2067.944,2068.806 2049.549,2070.923 2022.181 C 2072.631 2000.097,2071.744 1996.564,2060.693 1981.444 C 2036.407 1948.214,1885.085 1793.813,1286.991 1192.000 C 707.306 608.710,500.309 403.021,418.812 329.307 C 371.318 286.349,348.525 279.758,305.140 296.436 M1044.000 412.001 C 977.915 422.285,883.211 441.999,857.010 450.925 L 836.021 458.076 943.719 565.719 L 1051.417 673.362 1080.824 666.900 C 1225.458 635.119,1366.710 661.056,1482.956 740.741 C 1549.035 786.037,1619.146 869.737,1653.758 944.651 C 1671.118 982.224,1685.905 1032.664,1692.219 1075.846 C 1698.921 1121.682,1694.880 1215.629,1684.214 1261.944 L 1675.936 1297.888 1798.968 1421.206 C 1866.636 1489.031,1936.205 1557.427,1953.567 1573.197 L 1985.133 1601.869 2034.685 1550.488 C 2141.912 1439.302,2212.155 1338.105,2277.489 1200.687 L 2300.934 1151.375 2289.844 1124.687 C 2228.970 978.213,2117.768 822.455,1995.001 711.713 C 1831.505 564.230,1654.640 472.735,1447.292 428.377 C 1362.133 410.159,1332.886 407.348,1212.000 405.765 C 1109.747 404.427,1087.328 405.259,1044.000 412.001 M1244.000 860.333 C 1244.000 867.575,1481.923 1104.000,1489.210 1104.000 C 1497.678 1104.000,1497.931 1106.576,1485.595 1067.206 C 1470.991 1020.602,1451.053 984.489,1423.062 953.942 C 1383.829 911.125,1336.819 881.181,1282.579 864.456 C 1251.634 854.913,1244.000 854.098,1244.000 860.333 M900.000 1124.671 C 900.000 1231.500,927.500 1299.856,997.525 1367.082 C 1022.127 1390.702,1039.209 1403.167,1061.990 1414.124 C 1115.796 1440.004,1135.564 1444.604,1202.792 1446.892 L 1263.583 1448.962 1335.792 1522.115 C 1375.506 1562.350,1408.000 1597.210,1408.000 1599.581 C 1408.000 1605.416,1390.222 1612.439,1329.405 1630.627 L 1278.000 1646.000 1200.000 1645.774 C 1115.839 1645.529,1089.644 1641.247,1026.000 1617.330 C 908.865 1573.312,816.476 1489.986,758.420 1376.000 C 715.437 1291.607,702.060 1230.308,705.175 1132.000 C 707.459 1059.917,713.927 1025.863,736.399 967.590 L 748.955 935.033 824.477 1010.477 L 900.000 1085.921 900.000 1124.671 " fill="#1D1E23" stroke="none" fill-rule="evenodd"/></svg>