<svg viewBox="0 0 2400 2400" fill="none" xmlns="http://www.w3.org/2000/svg"><path d="M285.875 301.000 C 257.267 330.150,226.740 361.688,218.036 371.084 L 202.213 388.168 335.272 521.272 L 468.331 654.375 420.507 697.379 C 367.348 745.180,286.878 831.404,253.289 876.552 C 211.233 933.083,144.018 1048.427,114.120 1115.372 L 99.216 1148.744 114.291 1184.694 C 145.684 1259.555,213.632 1370.952,272.681 1444.362 C 312.209 1493.503,430.717 1612.795,476.256 1649.284 C 622.277 1766.285,809.778 1848.295,1014.000 1884.486 C 1074.531 1895.212,1235.958 1899.377,1316.198 1892.283 C 1390.601 1885.704,1476.500 1867.131,1585.744 1834.001 L 1633.487 1819.522 1803.774 1989.774 L 1974.060 2160.026 2043.707 2090.294 L 2113.353 2020.562 1367.677 1271.902 C 733.008 634.695,344.594 248.000,339.222 248.000 C 338.489 248.000,314.482 271.850,285.875 301.000 M1102.000 406.631 C 1051.856 410.270,885.602 440.925,851.021 452.908 L 836.042 458.098 943.436 565.436 L 1050.829 672.774 1088.415 666.506 C 1144.793 657.103,1219.685 654.317,1265.815 659.907 C 1378.487 673.560,1486.844 729.723,1561.141 812.979 C 1641.665 903.211,1680.956 987.675,1692.033 1094.360 C 1696.403 1136.449,1691.329 1223.652,1681.903 1268.462 L 1675.752 1297.701 1790.876 1413.113 C 1854.194 1476.590,1923.650 1544.897,1945.222 1564.907 L 1984.443 1601.289 2006.531 1579.644 C 2038.610 1548.210,2105.781 1472.504,2133.251 1436.826 C 2186.029 1368.276,2227.696 1300.563,2273.897 1208.264 C 2305.829 1144.471,2306.878 1155.183,2259.452 1060.823 C 2160.128 863.204,1990.555 681.202,1800.000 567.693 C 1654.009 480.731,1477.106 422.759,1326.000 412.361 C 1260.565 407.859,1130.818 404.540,1102.000 406.631 M1244.000 857.882 C 1244.000 868.846,1485.068 1106.284,1491.908 1102.057 C 1501.668 1096.025,1464.060 1008.643,1434.710 969.154 C 1405.788 930.242,1354.998 893.661,1297.395 870.254 C 1271.965 859.921,1244.000 853.441,1244.000 857.882 M901.267 1139.383 C 904.169 1204.766,910.989 1235.366,932.162 1278.000 C 970.630 1355.463,1048.054 1419.717,1125.021 1438.054 C 1138.760 1441.327,1175.200 1445.116,1206.000 1446.474 L 1262.000 1448.944 1295.294 1481.472 C 1313.605 1499.362,1346.786 1533.490,1369.028 1557.310 C 1400.840 1591.380,1408.245 1601.414,1403.734 1604.338 C 1400.580 1606.383,1372.800 1616.574,1342.000 1626.985 L 1286.000 1645.914 1212.000 1645.720 C 1107.006 1645.446,1056.301 1634.304,976.000 1593.864 C 883.736 1547.399,809.899 1473.067,761.077 1377.501 C 719.353 1295.829,707.714 1246.291,707.625 1150.000 C 707.550 1068.044,714.600 1025.238,738.452 962.818 L 749.037 935.115 823.940 1009.940 L 898.843 1084.765 901.267 1139.383 " fill="#1D1E23" stroke="none" fill-rule="evenodd"/></svg>