<svg viewBox="0 0 2400 2400" fill="none" xmlns="http://www.w3.org/2000/svg"><path d="M279.816 307.000 C 247.870 339.450,217.442 370.935,212.199 376.967 L 202.667 387.935 335.479 521.297 L 468.291 654.660 424.791 693.121 C 381.142 731.715,311.455 804.167,272.783 851.161 C 227.356 906.364,153.538 1028.466,117.863 1107.412 L 99.150 1148.824 110.199 1175.412 C 144.884 1258.879,207.025 1362.155,271.808 1444.000 C 311.063 1493.593,427.706 1611.015,476.000 1649.555 C 653.607 1791.291,896.491 1883.938,1122.000 1895.967 C 1203.490 1900.313,1323.749 1894.865,1385.406 1884.032 C 1440.235 1874.399,1522.217 1853.934,1587.644 1833.546 L 1633.288 1819.323 1803.674 1989.674 L 1974.060 2160.026 2043.713 2090.288 L 2113.365 2020.550 1333.683 1237.867 C 669.559 571.187,344.865 248.000,339.200 248.000 C 338.485 248.000,311.762 274.550,279.816 307.000 M1079.608 408.299 C 1038.367 411.715,896.835 438.969,858.909 450.798 L 835.819 458.000 943.574 565.637 L 1051.328 673.273 1084.664 666.180 C 1127.929 656.975,1228.993 653.516,1272.849 659.740 C 1340.315 669.314,1400.924 691.187,1462.440 728.158 C 1535.255 771.921,1624.157 875.192,1657.909 955.223 C 1676.474 999.241,1691.143 1060.550,1694.181 1106.815 C 1697.073 1150.849,1690.981 1231.902,1681.805 1271.464 L 1675.726 1297.677 1794.863 1417.101 C 1860.388 1482.784,1930.006 1551.235,1949.569 1569.214 L 1985.137 1601.904 2031.190 1553.952 C 2139.142 1441.548,2204.770 1348.222,2272.255 1211.145 L 2301.231 1152.289 2288.285 1121.145 C 2271.008 1079.577,2233.547 1008.265,2207.456 967.274 C 2038.680 702.117,1788.035 515.650,1501.062 441.752 C 1406.631 417.435,1366.379 411.835,1258.000 407.938 C 1144.702 403.863,1132.883 403.887,1079.608 408.299 M1244.000 860.205 C 1244.000 867.341,1483.058 1104.000,1490.267 1104.000 C 1497.455 1104.000,1495.720 1095.544,1478.875 1048.498 C 1465.455 1011.014,1437.350 966.448,1411.293 941.331 C 1401.782 932.163,1380.653 915.530,1364.341 904.368 C 1321.736 875.215,1244.000 846.687,1244.000 860.205 M901.133 1141.424 C 902.697 1181.517,905.794 1206.532,911.763 1227.284 C 940.786 1328.190,1024.681 1411.980,1122.985 1438.242 C 1135.643 1441.624,1172.621 1445.479,1205.159 1446.809 L 1264.318 1449.227 1336.159 1522.929 C 1375.671 1563.466,1408.000 1598.017,1408.000 1599.709 C 1408.000 1604.588,1382.090 1614.727,1325.512 1631.987 C 1279.225 1646.108,1268.357 1647.989,1233.512 1647.909 C 1153.612 1647.726,1099.693 1641.242,1053.271 1626.234 C 925.597 1584.960,828.957 1504.652,764.179 1386.000 C 715.289 1296.448,698.378 1210.433,707.687 1098.650 C 712.418 1041.836,718.078 1016.193,736.584 967.729 L 749.038 935.116 823.982 1009.982 L 898.926 1084.848 901.133 1141.424 " fill="#1D1E23" stroke="none" fill-rule="evenodd"/></svg>