<svg viewBox="0 0 2400 2400" fill="none" xmlns="http://www.w3.org/2000/svg"><path d="M270.748 315.481 C 234.036 352.595,204.000 384.535,204.000 386.459 C 204.000 388.382,263.465 449.441,336.145 522.145 L 468.289 654.333 426.171 691.472 C 380.965 731.336,305.642 809.702,271.879 852.000 C 222.377 914.016,153.012 1028.839,118.987 1105.091 L 99.351 1149.097 112.010 1179.548 C 182.437 1348.972,316.916 1521.787,480.375 1652.925 C 638.477 1779.766,844.316 1863.995,1066.000 1892.565 C 1125.561 1900.241,1282.202 1899.090,1344.000 1890.523 C 1412.764 1880.990,1485.547 1864.461,1565.792 1840.153 L 1633.584 1819.618 1803.822 1989.822 L 1974.060 2160.026 2043.719 2090.282 L 2113.377 2020.538 1303.688 1207.864 C 592.954 494.510,345.248 248.000,339.167 248.000 C 338.247 248.000,307.459 278.366,270.748 315.481 M1044.000 412.001 C 977.915 422.285,883.211 441.999,857.010 450.925 L 836.021 458.076 943.719 565.719 L 1051.417 673.362 1080.824 666.900 C 1225.458 635.119,1366.710 661.056,1482.956 740.741 C 1549.035 786.037,1619.146 869.737,1653.758 944.651 C 1671.118 982.224,1685.905 1032.664,1692.219 1075.846 C 1698.921 1121.682,1694.880 1215.629,1684.214 1261.944 L 1675.936 1297.888 1798.968 1421.206 C 1866.636 1489.031,1936.205 1557.427,1953.567 1573.197 L 1985.133 1601.869 2034.685 1550.488 C 2141.912 1439.302,2212.155 1338.105,2277.489 1200.687 L 2300.934 1151.375 2289.844 1124.687 C 2228.970 978.213,2117.768 822.455,1995.001 711.713 C 1831.505 564.230,1654.640 472.735,1447.292 428.377 C 1362.133 410.159,1332.886 407.348,1212.000 405.765 C 1109.747 404.427,1087.328 405.259,1044.000 412.001 M1244.000 860.333 C 1244.000 867.575,1481.923 1104.000,1489.210 1104.000 C 1497.678 1104.000,1497.931 1106.576,1485.595 1067.206 C 1470.991 1020.602,1451.053 984.489,1423.062 953.942 C 1383.829 911.125,1336.819 881.181,1282.579 864.456 C 1251.634 854.913,1244.000 854.098,1244.000 860.333 M900.000 1124.671 C 900.000 1231.500,927.500 1299.856,997.525 1367.082 C 1022.127 1390.702,1039.209 1403.167,1061.990 1414.124 C 1115.796 1440.004,1135.564 1444.604,1202.792 1446.892 L 1263.583 1448.962 1335.792 1522.115 C 1375.506 1562.350,1408.000 1597.210,1408.000 1599.581 C 1408.000 1605.416,1390.222 1612.439,1329.405 1630.627 L 1278.000 1646.000 1200.000 1645.774 C 1115.839 1645.529,1089.644 1641.247,1026.000 1617.330 C 908.865 1573.312,816.476 1489.986,758.420 1376.000 C 715.437 1291.607,702.060 1230.308,705.175 1132.000 C 707.459 1059.917,713.927 1025.863,736.399 967.590 L 748.955 935.033 824.477 1010.477 L 900.000 1085.921 900.000 1124.671 " fill="#1D1E23" stroke="none" fill-rule="evenodd"/></svg>