<svg viewBox="0 0 2400 2400" fill="none" xmlns="http://www.w3.org/2000/svg"><path d="M1074.000 408.032 C 982.488 419.341,876.693 444.031,800.000 471.977 C 739.687 493.954,629.521 548.022,572.796 583.484 C 503.864 626.579,456.995 663.591,394.011 724.668 C 299.002 816.802,239.796 888.583,189.331 972.821 C 153.425 1032.759,102.758 1135.574,103.191 1147.619 C 103.895 1167.174,137.111 1239.517,174.074 1302.000 C 267.867 1460.549,402.363 1604.380,547.284 1701.114 C 690.673 1796.826,859.267 1860.962,1040.000 1888.550 C 1123.971 1901.368,1272.153 1901.491,1358.333 1888.814 C 1575.514 1856.868,1786.149 1765.557,1940.255 1636.548 C 1984.560 1599.459,2091.706 1490.956,2126.445 1448.000 C 2179.393 1382.529,2245.866 1273.673,2281.053 1194.818 L 2300.730 1150.721 2284.325 1112.301 C 2256.659 1047.509,2181.968 922.424,2132.593 858.194 C 2106.678 824.483,1988.647 704.560,1946.877 669.502 C 1860.219 596.767,1714.708 513.801,1606.000 475.145 C 1461.950 423.921,1369.870 407.816,1210.000 405.880 C 1150.600 405.160,1089.400 406.129,1074.000 408.032 M1328.000 668.558 C 1366.793 678.211,1462.124 725.247,1498.000 752.435 C 1597.895 828.137,1669.757 945.065,1688.254 1062.000 C 1694.922 1104.157,1694.952 1202.278,1688.307 1240.000 C 1649.052 1462.846,1456.129 1634.320,1231.320 1646.179 C 1115.192 1652.305,1013.495 1624.307,917.628 1559.814 C 848.930 1513.600,777.363 1426.369,743.275 1347.302 C 705.981 1260.797,695.151 1148.672,714.324 1047.560 C 741.053 906.595,845.305 771.193,978.264 704.753 C 1019.725 684.035,1083.702 663.664,1118.000 660.259 C 1170.468 655.051,1293.216 659.902,1328.000 668.558 M1132.000 860.296 C 1119.900 862.384,1091.587 873.208,1069.082 884.348 C 999.091 918.996,946.455 976.661,918.876 1048.907 C 906.490 1081.355,906.244 1083.326,906.256 1150.000 C 906.268 1213.076,906.999 1219.899,916.356 1244.224 C 940.966 1308.199,986.650 1366.191,1040.000 1401.176 C 1129.631 1459.954,1255.959 1462.546,1349.122 1407.518 C 1419.519 1365.937,1475.621 1290.632,1491.555 1216.332 C 1498.061 1185.998,1497.142 1106.187,1489.960 1077.840 C 1466.160 983.895,1376.868 888.794,1291.610 866.587 C 1263.934 859.379,1160.857 855.316,1132.000 860.296 " fill="#1D1E23" stroke="none" fill-rule="evenodd"/></svg>