<svg viewBox="0 0 2400 2400" fill="none" xmlns="http://www.w3.org/2000/svg"><path d="M1108.000 404.466 C 880.010 422.666,665.325 505.300,479.161 646.510 C 426.619 686.365,306.788 806.052,267.417 858.000 C 207.227 937.416,152.431 1028.893,117.488 1108.290 L 99.395 1149.401 110.374 1175.701 C 178.910 1339.880,307.297 1511.783,448.965 1629.053 C 684.209 1823.784,993.089 1921.307,1294.000 1895.858 C 1527.462 1876.113,1739.085 1793.586,1928.000 1648.615 C 1974.766 1612.728,2095.709 1490.563,2132.550 1442.000 C 2196.166 1358.142,2251.169 1265.706,2285.967 1184.174 L 2300.404 1150.348 2285.591 1115.025 C 2254.481 1040.838,2193.431 938.285,2132.583 858.000 C 2090.402 802.344,1972.773 685.756,1915.793 643.128 C 1723.315 499.130,1516.748 421.732,1278.000 404.155 C 1214.778 399.501,1169.154 399.584,1108.000 404.466 M1303.432 661.858 C 1448.316 692.447,1577.855 792.626,1644.987 926.000 C 1681.324 998.192,1696.000 1062.636,1696.000 1150.000 C 1696.000 1241.143,1682.080 1300.795,1642.913 1377.501 C 1583.414 1494.025,1480.803 1582.544,1357.618 1623.614 C 1259.019 1656.486,1140.981 1656.486,1042.382 1623.614 C 871.996 1566.807,740.304 1415.133,709.878 1240.656 C 702.276 1197.067,702.276 1102.933,709.878 1059.344 C 733.894 921.625,829.607 785.541,950.000 717.940 C 1002.669 688.366,1076.860 662.854,1130.000 656.044 C 1168.881 651.061,1268.038 654.385,1303.432 661.858 M1150.000 855.726 C 1055.480 871.266,972.192 934.011,930.202 1021.311 C 908.747 1065.920,902.496 1094.952,902.496 1150.000 C 902.496 1205.034,908.824 1234.456,930.000 1277.873 C 993.061 1407.174,1132.489 1473.192,1272.000 1439.808 C 1377.114 1414.654,1462.167 1330.643,1490.611 1223.873 C 1500.013 1188.583,1500.013 1111.417,1490.611 1076.127 C 1463.531 974.479,1379.052 888.516,1280.000 861.818 C 1253.580 854.697,1177.847 851.148,1150.000 855.726 " fill="#1D1E23" stroke="none" fill-rule="evenodd"/></svg>