<svg viewBox="0 0 2400 2400" fill="none" xmlns="http://www.w3.org/2000/svg"><path d="M296.674 298.414 C 263.735 314.828,242.834 347.885,242.562 384.000 C 242.242 426.456,244.085 428.989,360.598 546.238 L 468.157 654.476 441.215 676.238 C 401.140 708.608,326.628 784.192,286.305 833.376 C 218.973 915.505,148.629 1031.751,110.368 1124.119 L 99.549 1150.237 114.010 1184.119 C 230.420 1456.869,462.633 1689.242,733.640 1804.175 C 1007.235 1920.206,1299.209 1930.828,1583.225 1835.085 L 1632.450 1818.491 1775.225 1960.858 C 1853.751 2039.160,1923.947 2106.196,1931.215 2109.827 C 1993.090 2140.735,2071.822 2091.865,2071.961 2022.464 C 2072.053 1976.510,2134.552 2042.455,1234.847 1139.186 C 567.223 468.918,403.362 306.404,386.870 298.186 C 358.481 284.039,325.351 284.123,296.674 298.414 M1102.000 404.494 C 1024.417 411.079,902.855 434.477,851.021 452.802 L 836.042 458.098 943.777 565.777 L 1051.511 673.456 1090.756 664.168 C 1144.454 651.460,1231.133 648.565,1283.844 657.719 C 1432.584 683.549,1559.040 772.548,1634.807 904.726 C 1697.379 1013.884,1714.856 1143.104,1683.636 1265.757 L 1675.553 1297.514 1826.757 1448.757 C 1909.919 1531.941,1980.007 1600.000,1982.507 1600.000 C 1985.008 1600.000,2013.255 1573.029,2045.279 1540.065 C 2149.897 1432.377,2227.656 1317.419,2284.447 1186.480 L 2300.191 1150.181 2291.499 1128.090 C 2286.718 1115.941,2269.148 1079.000,2252.455 1046.000 C 2098.173 741.011,1810.509 513.682,1478.000 433.980 C 1353.428 404.120,1225.040 394.052,1102.000 404.494 M1364.023 986.069 C 1442.723 1064.825,1494.500 1113.799,1495.267 1110.208 C 1497.208 1101.116,1485.427 1058.854,1472.012 1026.794 C 1448.522 970.653,1397.724 916.509,1340.511 886.633 C 1310.035 870.719,1264.913 856.000,1246.602 856.000 C 1234.935 856.000,1243.247 865.208,1364.023 986.069 M902.081 1145.043 C 902.012 1193.794,903.353 1206.308,911.388 1231.899 C 949.640 1353.722,1045.178 1433.594,1169.548 1447.726 C 1190.935 1450.156,1212.926 1450.133,1230.379 1447.661 L 1257.714 1443.790 1334.857 1520.856 C 1377.286 1563.243,1412.000 1598.896,1412.000 1600.085 C 1412.000 1605.867,1324.891 1634.807,1284.172 1642.552 C 1238.759 1651.191,1160.331 1651.135,1114.000 1642.431 C 962.727 1614.013,841.490 1528.085,765.193 1395.212 C 691.286 1266.501,680.369 1100.532,736.868 964.584 L 749.093 935.169 825.627 1011.627 L 902.161 1088.086 902.081 1145.043 " fill="#1D1E23" stroke="none" fill-rule="evenodd"/></svg>