<svg viewBox="0 0 2400 2400" fill="none" xmlns="http://www.w3.org/2000/svg"><path d="M1102.000 404.494 C 695.457 438.996,339.283 677.416,149.636 1042.000 C 135.904 1068.400,119.025 1103.575,112.129 1120.167 L 99.590 1150.334 114.030 1184.167 C 192.522 1368.075,327.870 1539.918,491.310 1663.178 C 912.421 1980.762,1499.010 1978.096,1917.475 1656.696 C 2075.938 1534.989,2209.139 1364.183,2285.970 1184.167 L 2300.410 1150.334 2287.871 1120.167 C 2280.975 1103.575,2264.096 1068.400,2250.364 1042.000 C 2139.740 829.333,1974.971 660.412,1765.085 544.493 C 1568.975 436.182,1328.034 385.312,1102.000 404.494 M1286.459 658.192 C 1486.680 693.107,1645.116 846.487,1689.117 1048.000 C 1700.842 1101.697,1700.842 1198.303,1689.117 1252.000 C 1660.377 1383.621,1583.124 1496.509,1472.266 1568.877 C 1307.743 1676.280,1092.257 1676.280,927.734 1568.877 C 816.876 1496.509,739.623 1383.621,710.883 1252.000 C 699.158 1198.303,699.158 1101.697,710.883 1048.000 C 739.086 918.837,815.001 806.697,924.000 733.187 C 972.050 700.781,1050.833 669.181,1110.388 658.427 C 1153.607 650.622,1242.371 650.504,1286.459 658.192 M1133.924 857.878 C 1028.705 880.789,945.369 959.529,911.430 1068.101 C 897.957 1111.205,897.957 1188.795,911.430 1231.899 C 963.512 1398.513,1129.794 1486.521,1293.994 1434.378 C 1385.910 1405.190,1457.779 1330.401,1488.570 1231.899 C 1502.043 1188.795,1502.043 1111.205,1488.570 1068.101 C 1454.340 958.596,1370.870 880.306,1264.253 857.704 C 1231.721 850.808,1165.993 850.896,1133.924 857.878 " fill="#1D1E23" stroke="none" fill-rule="evenodd"/></svg>