<svg viewBox="0 0 2400 2400" fill="none" xmlns="http://www.w3.org/2000/svg"><path d="M279.663 306.695 C 246.391 339.313,215.585 371.017,211.206 377.148 L 203.244 388.296 335.724 521.483 L 468.204 654.670 431.022 686.906 C 389.961 722.506,327.865 785.747,286.186 834.414 C 231.860 897.848,155.129 1022.279,117.859 1107.380 L 99.425 1149.472 110.336 1175.736 C 166.067 1309.884,252.863 1437.148,365.814 1550.321 C 496.935 1681.702,622.909 1763.617,789.307 1825.696 C 1008.258 1907.382,1244.822 1921.386,1474.000 1866.226 C 1496.000 1860.931,1540.875 1848.247,1573.722 1838.038 L 1633.443 1819.478 1803.752 1989.752 L 1974.060 2160.026 2043.709 2090.291 L 2113.358 2020.557 1301.679 1205.909 C 855.256 757.853,456.286 358.891,415.080 319.326 L 340.159 247.390 279.663 306.695 M1110.000 403.950 C 1035.828 410.261,905.113 434.591,856.381 451.156 L 836.021 458.076 943.815 565.816 L 1051.610 673.555 1080.805 666.742 C 1249.242 627.434,1416.918 671.067,1539.096 786.000 C 1672.844 911.818,1725.667 1086.322,1683.740 1263.850 L 1675.746 1297.700 1802.873 1425.112 C 1872.793 1495.188,1942.150 1563.392,1957.001 1576.674 L 1984.002 1600.825 2014.348 1571.413 C 2123.053 1466.052,2216.100 1335.869,2274.989 1206.743 L 2300.600 1150.588 2289.676 1124.294 C 2236.821 997.070,2151.101 868.348,2050.035 764.437 C 1854.639 563.540,1618.583 445.199,1343.184 410.073 C 1284.851 402.633,1163.059 399.435,1110.000 403.950 M1244.000 860.511 C 1244.000 865.643,1423.841 1048.130,1465.135 1084.901 C 1480.059 1098.190,1493.210 1108.123,1494.359 1106.974 C 1497.431 1103.902,1485.855 1061.880,1473.718 1032.044 C 1441.199 952.109,1362.411 884.391,1275.819 861.953 C 1248.262 854.812,1244.000 854.619,1244.000 860.511 M901.042 1145.567 C 902.914 1196.850,904.923 1211.379,913.853 1238.195 C 930.218 1287.336,953.753 1325.476,990.541 1362.471 C 1017.108 1389.189,1029.958 1398.584,1060.541 1413.655 C 1115.626 1440.799,1154.239 1449.334,1212.548 1447.255 L 1259.651 1445.576 1336.826 1522.890 C 1398.312 1584.487,1412.780 1600.976,1408.000 1603.999 C 1398.301 1610.133,1316.403 1635.647,1286.000 1642.005 C 1243.424 1650.909,1152.472 1649.878,1103.694 1639.938 C 947.303 1608.067,823.058 1511.352,751.779 1366.000 C 690.784 1241.617,685.215 1094.899,736.622 966.635 L 749.193 935.271 824.008 1010.008 L 898.822 1084.744 901.042 1145.567 " fill="#1D1E23" stroke="none" fill-rule="evenodd"/></svg>