<svg viewBox="0 0 2400 2400" fill="none" xmlns="http://www.w3.org/2000/svg"><path d="M310.000 295.146 C 272.067 307.764,243.864 348.227,244.088 389.713 C 244.278 424.934,255.372 438.869,398.813 584.053 L 468.025 654.106 428.357 688.896 C 379.100 732.098,291.485 826.140,255.905 874.000 C 203.636 944.309,139.697 1053.776,112.120 1120.167 L 99.590 1150.334 114.027 1184.167 C 148.896 1265.888,208.228 1363.579,271.835 1444.000 C 311.024 1493.550,427.653 1610.972,476.000 1649.555 C 653.607 1791.291,896.491 1883.938,1122.000 1895.967 C 1203.490 1900.313,1323.749 1894.865,1385.406 1884.032 C 1440.102 1874.423,1522.185 1853.943,1587.184 1833.689 L 1632.368 1819.610 1765.184 1950.211 C 1908.095 2090.739,1934.772 2113.738,1959.761 2117.960 C 2030.339 2129.884,2099.987 2035.781,2060.684 1981.600 C 2040.885 1954.307,1943.953 1855.377,1346.346 1252.538 C 824.271 725.892,520.791 423.768,426.000 336.304 C 392.337 305.243,362.065 287.939,342.000 288.286 C 335.400 288.400,321.000 291.487,310.000 295.146 M1079.608 408.299 C 1038.367 411.715,896.835 438.969,858.909 450.798 L 835.819 458.000 943.574 565.637 L 1051.328 673.273 1084.664 666.180 C 1127.929 656.975,1228.993 653.516,1272.849 659.740 C 1340.315 669.314,1400.924 691.187,1462.440 728.158 C 1535.255 771.921,1624.157 875.192,1657.909 955.223 C 1676.474 999.241,1691.143 1060.550,1694.181 1106.815 C 1697.073 1150.849,1690.981 1231.902,1681.805 1271.464 L 1675.726 1297.677 1794.863 1417.101 C 1860.388 1482.784,1930.006 1551.235,1949.569 1569.214 L 1985.137 1601.904 2031.190 1553.952 C 2139.142 1441.548,2204.770 1348.222,2272.255 1211.145 L 2301.231 1152.289 2288.285 1121.145 C 2271.008 1079.577,2233.547 1008.265,2207.456 967.274 C 2038.680 702.117,1788.035 515.650,1501.062 441.752 C 1406.631 417.435,1366.379 411.835,1258.000 407.938 C 1144.702 403.863,1132.883 403.887,1079.608 408.299 M1244.000 860.205 C 1244.000 867.341,1483.058 1104.000,1490.267 1104.000 C 1497.455 1104.000,1495.720 1095.544,1478.875 1048.498 C 1465.455 1011.014,1437.350 966.448,1411.293 941.331 C 1401.782 932.163,1380.653 915.530,1364.341 904.368 C 1321.736 875.215,1244.000 846.687,1244.000 860.205 M901.133 1141.424 C 902.697 1181.517,905.794 1206.532,911.763 1227.284 C 940.786 1328.190,1024.681 1411.980,1122.985 1438.242 C 1135.643 1441.624,1172.621 1445.479,1205.159 1446.809 L 1264.318 1449.227 1336.159 1522.929 C 1375.671 1563.466,1408.000 1598.017,1408.000 1599.709 C 1408.000 1604.588,1382.090 1614.727,1325.512 1631.987 C 1279.225 1646.108,1268.357 1647.989,1233.512 1647.909 C 1153.612 1647.726,1099.693 1641.242,1053.271 1626.234 C 925.597 1584.960,828.957 1504.652,764.179 1386.000 C 715.289 1296.448,698.378 1210.433,707.687 1098.650 C 712.418 1041.836,718.078 1016.193,736.584 967.729 L 749.038 935.116 823.982 1009.982 L 898.926 1084.848 901.133 1141.424 " fill="#1D1E23" stroke="none" fill-rule="evenodd"/></svg>