<svg viewBox="0 0 2400 2400" fill="none" xmlns="http://www.w3.org/2000/svg"><path d="M1090.000 207.942 C 991.874 215.868,856.495 255.676,755.433 306.322 C 548.359 410.095,373.025 594.133,284.353 800.785 C 173.297 1059.606,173.317 1340.056,284.412 1599.295 C 373.585 1807.379,555.065 1996.818,762.000 2097.827 C 856.626 2144.016,946.827 2172.076,1054.000 2188.662 C 1128.208 2200.147,1262.957 2201.060,1332.000 2190.546 C 1560.948 2155.683,1749.312 2061.714,1907.446 1903.473 C 1985.715 1825.152,2041.508 1747.680,2091.434 1648.000 C 2139.550 1551.931,2170.494 1456.514,2188.725 1348.000 C 2199.868 1281.673,2200.807 1120.264,2190.413 1058.000 C 2160.055 876.160,2087.592 711.587,1977.301 574.000 C 1935.504 521.859,1852.891 441.941,1800.000 402.484 C 1720.106 342.882,1622.561 291.034,1529.427 258.667 C 1470.401 238.154,1383.320 217.166,1337.699 212.459 C 1282.038 206.715,1137.763 204.085,1090.000 207.942 M1225.088 445.000 C 1281.411 531.075,1335.661 642.871,1376.488 757.000 L 1391.871 800.000 1200.174 800.000 L 1008.477 800.000 1017.670 773.000 C 1053.362 668.174,1115.833 536.016,1166.096 459.000 C 1182.967 433.150,1198.283 412.000,1200.133 412.000 C 1201.982 412.000,1213.212 426.850,1225.088 445.000 M914.139 496.402 C 875.112 580.431,827.757 706.200,809.993 773.000 L 802.813 800.000 655.356 800.000 L 507.900 800.000 518.567 783.000 C 547.084 737.552,589.955 685.141,637.548 637.543 C 692.848 582.239,735.050 548.730,791.677 515.166 C 828.005 493.633,932.542 443.209,935.247 445.914 C 936.126 446.793,926.627 469.512,914.139 496.402 M1510.000 464.678 C 1651.504 524.059,1792.282 643.688,1877.537 777.000 L 1892.246 800.000 1744.750 800.000 L 1597.255 800.000 1588.238 767.000 C 1569.777 699.440,1510.892 545.028,1481.365 486.750 C 1476.001 476.163,1469.898 462.991,1467.802 457.479 C 1464.311 448.297,1464.745 447.687,1472.996 450.193 C 1477.948 451.697,1494.600 458.216,1510.000 464.678 M762.257 1015.000 C 748.694 1098.169,748.835 1312.618,762.502 1387.000 L 764.890 1400.000 595.141 1400.000 L 425.393 1400.000 418.640 1361.000 C 406.880 1293.083,404.247 1263.625,404.247 1200.000 C 404.247 1136.183,406.884 1106.396,418.500 1039.000 L 425.222 1000.000 594.963 1000.000 L 764.703 1000.000 762.257 1015.000 M1981.360 1039.000 C 1993.120 1106.917,1995.753 1136.375,1995.753 1200.000 C 1995.753 1263.817,1993.116 1293.604,1981.500 1361.000 L 1974.778 1400.000 1804.944 1400.000 L 1635.110 1400.000 1637.712 1386.129 C 1644.007 1352.572,1647.731 1283.400,1647.731 1200.000 C 1647.731 1116.600,1644.007 1047.428,1637.712 1013.871 L 1635.110 1000.000 1804.859 1000.000 L 1974.607 1000.000 1981.360 1039.000 M1437.437 1028.000 C 1441.755 1055.639,1441.500 1350.990,1437.134 1378.000 L 1433.902 1398.000 1202.184 1399.033 C 1043.374 1399.741,969.134 1398.735,966.233 1395.837 C 961.389 1390.999,957.706 1070.153,962.021 1028.968 L 964.644 1003.936 1199.322 1004.968 L 1434.000 1006.000 1437.437 1028.000 M808.178 1621.000 C 821.150 1675.749,877.508 1825.650,914.440 1903.640 C 926.327 1928.743,935.181 1950.152,934.115 1951.218 C 928.246 1957.087,824.132 1906.993,772.716 1873.560 C 676.545 1811.026,582.139 1716.514,522.438 1623.000 L 507.754 1600.000 655.478 1600.000 L 803.202 1600.000 808.178 1621.000 M1377.360 1641.000 C 1356.195 1700.936,1318.840 1787.402,1291.388 1840.000 C 1263.463 1893.503,1223.586 1960.765,1209.574 1978.000 L 1199.818 1990.000 1191.900 1980.000 C 1145.090 1920.878,1064.410 1759.289,1022.640 1641.000 L 1008.163 1600.000 1200.000 1600.000 L 1391.837 1600.000 1377.360 1641.000 M1875.462 1625.000 C 1840.253 1677.281,1799.138 1727.433,1759.296 1766.699 C 1710.450 1814.839,1685.531 1835.359,1639.417 1865.418 C 1583.205 1902.059,1471.895 1957.228,1466.024 1951.357 C 1464.883 1950.216,1473.729 1928.551,1485.681 1903.211 C 1525.116 1819.607,1582.176 1666.458,1593.807 1613.000 L 1596.636 1600.000 1744.467 1600.000 L 1892.298 1600.000 1875.462 1625.000 " fill="#1D1E23" stroke="none" fill-rule="evenodd"/></svg>