<svg viewBox="0 0 2400 2400" fill="none" xmlns="http://www.w3.org/2000/svg"><path d="M830.000 312.299 C 796.538 317.927,740.022 335.599,701.324 352.535 C 476.087 451.112,331.800 644.981,304.171 886.162 C 296.002 957.471,302.235 1037.681,321.763 1112.558 C 383.845 1350.603,576.845 1532.613,826.000 1588.081 C 881.483 1600.433,1012.712 1599.514,1076.000 1586.331 C 1142.369 1572.505,1234.219 1536.406,1292.642 1501.185 L 1329.144 1479.180 1493.572 1642.964 C 1705.458 1854.020,1834.005 1978.467,1853.540 1991.450 C 1866.704 2000.199,1873.431 2001.748,1897.540 2001.586 C 1930.767 2001.362,1948.482 1994.771,1971.325 1974.134 C 1991.992 1955.463,2001.647 1930.491,2001.647 1895.708 C 2001.647 1873.602,1999.843 1866.166,1991.396 1853.441 C 1978.651 1834.243,1852.007 1703.469,1640.922 1491.536 L 1479.108 1329.071 1502.380 1289.536 C 1568.308 1177.536,1596.355 1075.940,1596.665 948.000 C 1596.858 868.487,1589.805 821.407,1567.692 754.591 C 1530.761 643.003,1481.891 565.309,1397.490 484.000 C 1325.055 414.220,1241.318 364.467,1141.828 332.100 C 1113.852 322.998,1077.756 314.453,1057.465 312.129 C 1015.674 307.341,858.782 307.458,830.000 312.299 M991.600 508.266 C 1080.360 515.383,1125.409 530.810,1197.409 578.742 C 1311.840 654.922,1379.120 767.028,1392.856 904.407 C 1401.643 992.296,1387.555 1069.657,1348.130 1150.000 C 1288.718 1271.077,1187.220 1352.306,1052.710 1386.427 C 868.435 1433.173,664.759 1345.969,565.899 1178.000 C 540.636 1135.077,523.640 1093.584,513.468 1050.000 C 502.328 1002.266,503.088 891.020,514.875 844.000 C 557.575 673.666,704.297 537.048,875.678 508.042 C 902.807 503.450,932.257 503.507,991.600 508.266 M722.383 912.200 C 696.836 934.631,695.664 957.072,718.478 986.982 L 728.407 1000.000 917.204 999.748 C 1021.042 999.610,1121.188 998.047,1139.751 996.276 C 1170.606 993.331,1174.459 991.983,1184.667 980.558 C 1205.669 957.053,1203.294 934.745,1177.368 911.982 L 1163.722 900.000 950.000 900.000 L 736.278 900.000 722.383 912.200 " fill="#1D1E23" stroke="none" fill-rule="evenodd"/></svg>