<svg viewBox="0 0 2400 2400" fill="none" xmlns="http://www.w3.org/2000/svg"><path d="M848.000 311.688 C 731.521 322.189,581.456 401.599,479.769 506.544 C 373.742 615.969,314.056 756.128,301.997 924.000 C 291.436 1071.030,355.817 1253.495,459.955 1371.673 C 493.756 1410.032,554.176 1464.702,586.428 1486.109 C 642.905 1523.596,730.849 1562.927,803.543 1583.208 C 840.444 1593.503,845.965 1593.939,940.000 1593.969 C 1019.935 1593.994,1044.250 1592.653,1071.904 1586.695 C 1147.784 1570.346,1232.027 1537.527,1294.266 1500.069 L 1329.079 1479.117 1485.539 1634.940 C 1687.961 1836.537,1832.263 1976.322,1852.258 1990.179 C 1866.306 1999.914,1871.646 2001.157,1898.224 2000.882 C 1934.472 2000.506,1957.530 1990.830,1977.347 1967.679 C 1993.774 1948.488,2000.558 1926.954,2000.752 1893.392 C 2000.877 1871.809,1999.162 1865.221,1989.970 1851.956 C 1976.385 1832.353,1834.576 1686.021,1633.076 1483.680 L 1479.398 1329.360 1506.830 1281.479 C 1569.572 1171.966,1595.944 1072.112,1595.961 944.000 C 1595.974 852.021,1585.283 797.024,1549.998 707.553 C 1474.402 515.864,1291.866 362.038,1087.351 317.670 C 1053.718 310.374,904.069 306.634,848.000 311.688 M1068.000 518.477 C 1128.535 531.789,1222.556 589.815,1276.853 647.372 C 1424.208 803.577,1434.889 1050.607,1301.784 1224.000 C 1233.640 1312.770,1129.166 1373.998,1012.295 1393.657 C 965.555 1401.520,940.884 1401.593,890.635 1394.019 C 740.634 1371.410,619.228 1284.385,553.959 1152.688 C 520.217 1084.604,506.857 1025.797,507.003 946.000 C 507.109 888.640,511.334 858.951,526.639 808.029 C 563.288 686.096,672.009 576.469,806.838 525.494 C 821.777 519.846,845.700 513.774,860.000 512.000 C 897.599 507.336,1037.088 511.679,1068.000 518.477 M927.592 709.149 C 905.314 724.146,903.190 732.974,900.925 820.003 L 898.875 898.778 828.437 901.533 C 741.272 904.943,725.165 907.840,712.678 922.357 C 699.833 937.291,702.012 965.394,717.600 985.831 L 728.407 1000.000 814.204 1000.000 L 900.000 1000.000 900.000 1085.303 C 900.000 1168.669,900.204 1170.792,909.000 1178.803 C 937.695 1204.939,980.974 1200.933,991.974 1171.122 C 994.815 1163.424,997.695 1125.575,998.942 1079.554 L 1001.069 1001.108 1084.392 999.108 C 1178.814 996.841,1184.307 995.254,1192.508 967.883 C 1198.764 947.002,1193.478 925.347,1179.613 915.060 C 1171.381 908.953,1158.518 906.622,1117.613 903.825 C 1089.226 901.885,1051.421 900.230,1033.603 900.149 L 1001.206 900.000 998.989 820.350 C 996.491 730.619,994.524 723.074,970.000 709.190 C 949.890 697.804,944.452 697.799,927.592 709.149 " fill="#1D1E23" stroke="none" fill-rule="evenodd"/></svg>