<svg viewBox="0 0 2400 2400" fill="none" xmlns="http://www.w3.org/2000/svg"><path d="M874.000 304.284 C 738.485 320.398,605.503 382.650,506.558 476.291 C 378.564 597.425,308.433 750.295,301.166 924.000 C 287.819 1243.079,506.324 1520.778,824.000 1588.470 C 881.374 1600.695,1001.934 1601.743,1062.000 1590.538 C 1142.781 1575.470,1233.906 1539.829,1299.360 1497.701 L 1328.720 1478.805 1583.360 1733.239 C 1861.901 2011.555,1854.009 2004.800,1900.623 2004.800 C 1958.684 2004.800,2004.800 1958.408,2004.800 1900.000 C 2004.800 1854.114,2011.015 1861.360,1733.239 1583.360 L 1478.805 1328.720 1497.710 1299.360 C 1538.054 1236.703,1572.872 1149.606,1588.359 1072.605 C 1598.712 1021.129,1602.509 928.494,1596.348 877.690 C 1583.807 774.278,1551.497 684.009,1496.953 600.000 C 1397.022 446.087,1239.506 341.012,1062.000 309.856 C 1017.896 302.114,917.314 299.133,874.000 304.284 M1042.000 509.979 C 1297.564 563.409,1454.211 824.429,1381.432 1075.575 C 1353.691 1171.300,1291.311 1259.666,1212.000 1315.585 C 928.389 1515.549,539.402 1339.485,503.020 994.686 C 483.593 810.569,583.311 630.322,751.052 546.351 C 783.017 530.350,840.245 512.291,879.142 505.931 C 922.307 498.874,997.865 500.751,1042.000 509.979 M723.650 909.120 C 705.505 921.348,699.301 934.276,701.398 955.487 C 702.669 968.338,706.444 976.290,715.638 985.487 L 728.149 998.000 945.075 998.996 C 1182.153 1000.084,1174.405 1000.798,1190.880 976.350 C 1206.940 952.519,1201.176 925.850,1176.350 909.120 L 1162.817 900.000 950.000 900.000 L 737.183 900.000 723.650 909.120 " fill="#1D1E23" stroke="none" fill-rule="evenodd"/></svg>