<svg viewBox="0 0 2400 2400" fill="none" xmlns="http://www.w3.org/2000/svg"><path d="M864.000 307.970 C 753.759 316.862,617.224 380.067,516.000 469.066 C 331.803 631.018,257.098 891.845,326.406 1131.015 C 357.375 1237.882,412.280 1329.454,493.681 1410.000 C 579.147 1494.567,683.468 1552.204,809.148 1584.293 C 881.738 1602.827,1017.839 1601.963,1094.817 1582.480 C 1165.597 1564.565,1243.307 1532.218,1299.084 1497.454 L 1328.169 1479.327 1575.847 1725.012 C 1712.069 1860.140,1833.758 1977.741,1846.265 1986.349 C 1867.897 2001.237,1870.491 2001.994,1899.502 2001.882 C 1933.265 2001.751,1948.643 1995.902,1971.351 1974.552 C 1993.909 1953.342,2001.719 1934.136,2001.869 1899.502 C 2001.994 1870.514,2001.230 1867.887,1986.447 1846.407 C 1977.894 1833.979,1860.299 1712.292,1725.126 1575.993 L 1479.357 1328.176 1499.225 1295.088 C 1559.115 1195.346,1589.735 1101.301,1595.951 998.000 C 1602.449 890.014,1591.751 813.048,1557.826 723.712 C 1486.737 536.512,1337.928 395.173,1146.000 332.562 C 1119.600 323.950,1085.400 315.008,1070.000 312.692 C 1034.116 307.295,908.162 304.408,864.000 307.970 M998.000 507.876 C 1075.107 512.978,1128.509 531.635,1197.534 577.586 C 1325.327 662.661,1396.000 795.275,1396.000 950.000 C 1396.000 1172.246,1240.573 1355.685,1020.190 1393.541 C 854.618 1421.983,676.224 1344.627,580.641 1202.942 C 527.156 1123.660,503.025 1045.087,502.960 950.000 C 502.876 828.359,546.162 723.625,632.620 636.276 C 690.046 578.259,745.539 543.989,817.697 521.979 C 878.781 503.347,902.045 501.528,998.000 507.876 M725.011 909.000 C 697.407 928.293,694.224 958.318,716.872 985.793 L 729.034 1000.547 945.517 999.274 C 1152.071 998.058,1162.593 997.641,1174.935 990.176 C 1187.837 982.372,1200.000 962.876,1200.000 950.000 C 1200.000 937.437,1188.064 918.068,1174.734 909.000 L 1161.505 900.000 949.696 900.000 L 737.887 900.000 725.011 909.000 " fill="#1D1E23" stroke="none" fill-rule="evenodd"/></svg>