<svg viewBox="0 0 2400 2400" fill="none" xmlns="http://www.w3.org/2000/svg"><path d="M876.000 304.143 C 623.998 334.991,413.315 506.092,334.387 744.000 C 271.535 933.448,296.485 1135.615,403.004 1300.000 C 500.137 1449.901,647.470 1550.854,824.000 1588.470 C 881.374 1600.695,1001.934 1601.743,1062.000 1590.538 C 1141.991 1575.617,1234.635 1539.385,1299.360 1497.710 L 1328.720 1478.805 1583.360 1733.239 C 1861.901 2011.555,1854.009 2004.800,1900.623 2004.800 C 1958.684 2004.800,2004.800 1958.408,2004.800 1900.000 C 2004.800 1854.114,2011.015 1861.360,1733.239 1583.360 L 1478.805 1328.720 1497.710 1299.360 C 1538.054 1236.703,1572.872 1149.606,1588.359 1072.605 C 1598.712 1021.129,1602.509 928.494,1596.348 877.690 C 1583.807 774.278,1551.497 684.009,1496.953 600.000 C 1397.022 446.087,1239.506 341.012,1062.000 309.856 C 1018.419 302.206,917.214 299.097,876.000 304.143 M1042.000 509.979 C 1297.564 563.409,1454.211 824.429,1381.432 1075.575 C 1303.371 1344.945,998.813 1477.757,748.000 1351.803 C 532.258 1243.460,440.659 980.514,542.143 760.865 C 605.154 624.485,739.275 524.873,887.821 504.128 C 924.476 499.008,1003.955 502.024,1042.000 509.979 M923.650 709.120 C 901.353 724.146,900.124 729.870,900.059 819.000 L 900.000 900.000 818.592 900.000 C 740.474 900.000,736.636 900.369,723.650 909.120 C 705.505 921.348,699.301 934.276,701.398 955.487 C 702.668 968.333,706.445 976.293,715.632 985.487 L 728.137 998.000 813.850 999.219 L 899.563 1000.437 900.781 1086.150 L 902.000 1171.863 914.374 1184.228 C 937.803 1207.642,974.879 1203.151,992.162 1174.806 C 999.226 1163.220,999.972 1154.281,999.985 1081.000 L 1000.000 1000.000 1080.199 1000.000 C 1169.260 1000.000,1177.999 998.033,1192.162 974.806 C 1206.803 950.793,1197.722 919.301,1172.376 906.194 C 1162.730 901.206,1144.780 900.000,1080.199 900.000 L 1000.000 900.000 999.985 819.000 C 999.972 745.719,999.226 736.780,992.162 725.194 C 976.874 700.121,947.299 693.183,923.650 709.120 " fill="#1D1E23" stroke="none" fill-rule="evenodd"/></svg>