<svg viewBox="0 0 2400 2400" fill="none" xmlns="http://www.w3.org/2000/svg"><path d="M881.408 304.098 C 733.211 319.710,599.876 383.929,491.661 491.814 C 394.910 588.271,334.492 703.047,309.429 838.000 C 299.076 893.744,299.076 1006.256,309.429 1062.000 C 334.468 1196.823,394.680 1311.165,491.757 1408.243 C 588.835 1505.320,703.177 1565.532,838.000 1590.571 C 893.849 1600.944,1006.308 1600.927,1062.000 1590.538 C 1142.790 1575.468,1233.905 1539.829,1299.380 1497.689 L 1328.759 1478.780 1614.378 1764.378 L 1899.997 2049.976 1974.987 1974.987 L 2049.976 1899.997 1764.378 1614.378 L 1478.780 1328.759 1497.689 1299.380 C 1539.829 1233.905,1575.468 1142.790,1590.538 1062.000 C 1600.927 1006.308,1600.944 893.849,1590.571 838.000 C 1565.528 703.157,1505.301 588.793,1408.243 491.782 C 1267.314 350.921,1077.806 283.409,881.408 304.098 M1042.000 509.979 C 1297.564 563.409,1454.211 824.429,1381.432 1075.575 C 1353.691 1171.300,1291.311 1259.666,1212.000 1315.585 C 928.389 1515.549,539.402 1339.485,503.020 994.686 C 483.593 810.569,583.311 630.322,751.052 546.351 C 783.017 530.350,840.245 512.291,879.142 505.931 C 922.307 498.874,997.865 500.751,1042.000 509.979 M900.000 800.000 L 900.000 900.000 800.000 900.000 L 700.000 900.000 700.000 950.000 L 700.000 1000.000 800.000 1000.000 L 900.000 1000.000 900.000 1100.000 L 900.000 1200.000 950.000 1200.000 L 1000.000 1200.000 1000.000 1100.000 L 1000.000 1000.000 1100.000 1000.000 L 1200.000 1000.000 1200.000 950.000 L 1200.000 900.000 1100.000 900.000 L 1000.000 900.000 1000.000 800.000 L 1000.000 700.000 950.000 700.000 L 900.000 700.000 900.000 800.000 " fill="#1D1E23" stroke="none" fill-rule="evenodd"/></svg>