<svg viewBox="0 0 2400 2400" fill="none" xmlns="http://www.w3.org/2000/svg"><path d="M838.000 309.676 C 573.891 360.635,367.128 560.675,314.491 816.162 C 254.089 1109.334,395.805 1399.465,664.556 1532.843 C 712.931 1556.851,786.485 1581.601,836.000 1590.533 C 893.670 1600.936,1016.718 1599.969,1070.000 1588.695 C 1148.615 1572.061,1233.789 1538.112,1299.338 1497.284 L 1328.676 1479.010 1567.338 1716.728 C 1698.602 1847.472,1815.900 1962.664,1828.000 1972.709 C 1858.168 1997.754,1871.960 2004.000,1897.089 2004.000 C 1959.396 2004.000,2004.000 1959.396,2004.000 1897.089 C 2004.000 1871.944,1997.744 1858.143,1972.681 1828.000 C 1962.620 1815.900,1847.492 1698.653,1716.840 1567.451 L 1479.293 1328.903 1502.863 1289.451 C 1532.403 1240.008,1551.066 1198.485,1569.515 1141.157 C 1591.604 1072.518,1597.357 1033.077,1597.689 948.000 C 1598.013 864.716,1593.405 833.313,1569.513 756.000 C 1502.613 539.511,1321.032 371.241,1096.000 317.197 C 1058.592 308.213,1043.722 306.955,960.000 305.692 C 892.340 304.671,858.154 305.787,838.000 309.676 M1066.000 515.725 C 1166.366 543.500,1262.839 611.827,1319.503 695.268 C 1409.288 827.482,1423.271 997.480,1355.999 1138.971 C 1328.995 1195.767,1301.599 1233.676,1256.272 1276.968 C 1138.680 1389.279,968.885 1428.049,813.965 1377.962 C 583.248 1303.369,452.241 1059.971,518.344 828.730 C 540.188 752.316,579.028 687.581,637.579 630.000 C 699.680 568.929,752.987 538.707,840.000 515.240 C 880.486 504.321,884.740 503.966,958.000 505.391 C 1021.006 506.617,1039.471 508.383,1066.000 515.725 M723.521 909.742 C 696.250 928.272,693.410 959.660,716.612 986.086 L 728.829 1000.000 933.414 999.762 C 1045.936 999.630,1146.893 998.064,1157.763 996.280 C 1202.810 988.887,1214.360 935.483,1176.479 909.742 L 1162.143 900.000 950.000 900.000 L 737.857 900.000 723.521 909.742 " fill="#1D1E23" stroke="none" fill-rule="evenodd"/></svg>