<svg viewBox="0 0 2400 2400" fill="none" xmlns="http://www.w3.org/2000/svg"><path d="M882.000 304.400 C 722.178 321.059,575.549 397.294,464.805 521.307 C 387.195 608.214,336.474 709.767,311.626 828.000 C 298.836 888.853,298.836 1011.147,311.626 1072.000 C 342.154 1217.257,411.479 1336.934,522.747 1436.462 C 607.878 1512.611,710.492 1563.678,828.000 1588.374 C 888.001 1600.985,1011.343 1601.159,1070.000 1588.716 C 1148.766 1572.008,1233.826 1538.088,1299.435 1497.224 L 1328.869 1478.890 1614.433 1764.433 L 1899.997 2049.976 1974.987 1974.987 L 2049.976 1899.997 1764.433 1614.433 L 1478.890 1328.869 1497.224 1299.435 C 1538.088 1233.826,1572.008 1148.766,1588.716 1070.000 C 1601.159 1011.343,1600.985 888.001,1588.374 828.000 C 1563.678 710.492,1512.611 607.878,1436.462 522.747 C 1292.505 361.809,1091.316 282.581,882.000 304.400 M1066.000 515.725 C 1166.366 543.500,1262.839 611.827,1319.503 695.268 C 1409.288 827.482,1423.271 997.480,1355.999 1138.971 C 1328.995 1195.767,1301.599 1233.676,1256.272 1276.968 C 1138.680 1389.279,968.885 1428.049,813.965 1377.962 C 583.248 1303.369,452.241 1059.971,518.344 828.730 C 540.188 752.316,579.028 687.581,637.579 630.000 C 699.680 568.929,752.987 538.707,840.000 515.240 C 880.486 504.321,884.740 503.966,958.000 505.391 C 1021.006 506.617,1039.471 508.383,1066.000 515.725 M700.000 950.000 L 700.000 1000.000 950.000 1000.000 L 1200.000 1000.000 1200.000 950.000 L 1200.000 900.000 950.000 900.000 L 700.000 900.000 700.000 950.000 " fill="#1D1E23" stroke="none" fill-rule="evenodd"/></svg>