<svg viewBox="0 0 2400 2400" fill="none" xmlns="http://www.w3.org/2000/svg"><path d="M848.000 309.640 C 665.285 341.931,511.282 443.135,405.894 600.173 C 281.267 785.878,267.310 1037.880,370.475 1239.657 C 423.622 1343.606,520.495 1447.914,618.151 1506.343 C 664.014 1533.783,738.666 1564.662,799.040 1581.164 L 846.000 1594.000 950.000 1593.975 C 1045.177 1593.953,1056.754 1593.194,1086.465 1585.027 C 1166.470 1563.035,1241.583 1532.119,1297.547 1498.146 L 1329.020 1479.041 1614.509 1764.509 L 1899.997 2049.976 1974.987 1974.987 L 2049.976 1899.997 1764.385 1614.385 L 1478.794 1328.773 1494.905 1303.264 C 1600.875 1135.472,1627.096 922.484,1564.001 742.000 C 1531.301 648.461,1480.757 568.757,1408.000 496.000 C 1351.941 439.941,1302.572 404.214,1234.000 370.081 C 1136.335 321.467,1078.628 307.930,960.000 305.806 C 903.567 304.796,868.646 305.991,848.000 309.640 M991.600 508.266 C 1080.360 515.383,1125.409 530.810,1197.409 578.742 C 1311.840 654.922,1379.120 767.028,1392.856 904.407 C 1401.643 992.296,1387.555 1069.657,1348.130 1150.000 C 1288.718 1271.077,1187.220 1352.306,1052.710 1386.427 C 868.435 1433.173,664.759 1345.969,565.899 1178.000 C 540.636 1135.077,523.640 1093.584,513.468 1050.000 C 502.328 1002.266,503.088 891.020,514.875 844.000 C 557.575 673.666,704.297 537.048,875.678 508.042 C 902.807 503.450,932.257 503.507,991.600 508.266 M900.000 800.000 L 900.000 900.000 800.000 900.000 L 700.000 900.000 700.000 950.000 L 700.000 1000.000 800.000 1000.000 L 900.000 1000.000 900.000 1100.000 L 900.000 1200.000 950.000 1200.000 L 1000.000 1200.000 1000.000 1100.000 L 1000.000 1000.000 1100.000 1000.000 L 1200.000 1000.000 1200.000 950.000 L 1200.000 900.000 1100.000 900.000 L 1000.000 900.000 1000.000 800.000 L 1000.000 700.000 950.000 700.000 L 900.000 700.000 900.000 800.000 " fill="#1D1E23" stroke="none" fill-rule="evenodd"/></svg>