<svg viewBox="0 0 2400 2400" fill="none" xmlns="http://www.w3.org/2000/svg"><path d="M843.405 311.753 C 753.790 321.189,630.774 377.638,539.621 451.150 C 475.866 502.567,406.478 587.336,372.332 655.521 C 328.775 742.498,300.156 860.058,300.156 952.000 C 300.156 1064.347,336.917 1190.710,398.294 1289.344 C 492.931 1441.425,667.824 1560.279,841.487 1590.529 C 887.333 1598.514,1034.786 1595.983,1076.000 1586.503 C 1145.343 1570.553,1235.126 1535.138,1293.757 1500.609 L 1329.514 1479.552 1485.757 1635.158 C 1687.986 1836.563,1832.271 1976.328,1852.258 1990.179 C 1866.306 1999.914,1871.646 2001.157,1898.224 2000.882 C 1934.472 2000.506,1957.530 1990.830,1977.347 1967.679 C 1993.774 1948.488,2000.558 1926.954,2000.752 1893.392 C 2000.877 1871.809,1999.162 1865.221,1989.970 1851.956 C 1976.385 1832.353,1834.576 1686.021,1633.076 1483.680 L 1479.398 1329.360 1506.830 1281.479 C 1569.572 1171.966,1595.944 1072.112,1595.961 944.000 C 1595.974 852.021,1585.283 797.024,1549.998 707.553 C 1474.407 515.879,1291.030 361.375,1087.351 317.751 C 1053.366 310.473,893.009 306.530,843.405 311.753 M1026.000 512.252 C 1067.337 517.424,1106.580 529.170,1141.828 546.920 C 1273.576 613.265,1359.692 724.692,1386.661 863.716 C 1395.410 908.817,1395.416 999.383,1386.672 1038.554 C 1371.275 1107.524,1334.710 1184.322,1292.140 1237.097 C 1199.849 1351.511,1035.863 1416.400,894.000 1394.641 C 788.961 1378.530,701.707 1333.932,630.294 1259.852 C 579.759 1207.430,548.268 1155.547,522.887 1082.890 L 510.000 1046.000 510.029 950.000 L 510.058 854.000 522.916 817.110 C 564.850 696.797,646.841 602.660,758.128 547.052 C 838.379 506.952,909.645 497.694,1026.000 512.252 M719.529 915.529 C 706.125 928.934,704.000 933.504,704.000 948.929 C 704.000 962.529,706.935 970.852,716.282 983.755 L 728.565 1000.710 941.282 999.355 C 1144.626 998.060,1154.694 997.647,1169.748 990.000 C 1191.456 978.972,1202.421 957.457,1196.098 938.296 C 1193.575 930.653,1185.259 918.910,1177.617 912.200 L 1163.722 900.000 949.390 900.000 L 735.059 900.000 719.529 915.529 " fill="#1D1E23" stroke="none" fill-rule="evenodd"/></svg>