<svg viewBox="0 0 2400 2400" fill="none" xmlns="http://www.w3.org/2000/svg"><path d="M854.000 307.958 C 713.214 327.606,559.052 411.997,463.170 521.905 C 312.062 695.116,262.480 933.995,332.386 1152.000 C 345.852 1193.995,393.730 1286.979,422.944 1327.874 C 457.847 1376.732,523.789 1442.729,572.000 1477.056 C 637.607 1523.768,736.707 1568.534,813.339 1586.074 C 886.577 1602.838,1021.174 1601.119,1094.817 1582.480 C 1165.597 1564.565,1243.307 1532.218,1299.084 1497.454 L 1328.169 1479.327 1575.847 1725.012 C 1712.069 1860.140,1833.758 1977.741,1846.265 1986.349 C 1867.897 2001.237,1870.491 2001.994,1899.502 2001.882 C 1933.265 2001.751,1948.643 1995.902,1971.351 1974.552 C 1993.909 1953.342,2001.719 1934.136,2001.869 1899.502 C 2001.994 1870.514,2001.230 1867.887,1986.447 1846.407 C 1977.894 1833.979,1860.299 1712.292,1725.126 1575.993 L 1479.357 1328.176 1499.225 1295.088 C 1559.115 1195.346,1589.735 1101.301,1595.951 998.000 C 1602.449 890.014,1591.751 813.048,1557.826 723.712 C 1486.737 536.512,1337.928 395.173,1146.000 332.562 C 1119.600 323.950,1085.400 314.977,1070.000 312.622 C 1032.816 306.937,884.298 303.730,854.000 307.958 M1043.701 512.261 C 1117.164 524.092,1204.703 572.287,1268.124 635.817 C 1333.962 701.770,1374.258 780.109,1390.608 873.938 C 1400.081 928.299,1396.160 1017.801,1382.139 1067.241 C 1332.304 1242.975,1191.577 1366.785,1010.000 1394.642 C 937.641 1405.744,849.173 1394.174,776.145 1364.060 C 667.546 1319.277,575.075 1222.859,532.642 1110.163 C 494.765 1009.565,493.715 890.032,529.865 793.966 C 568.921 690.180,651.569 598.181,750.000 548.924 C 786.315 530.752,842.888 511.731,872.000 507.906 C 902.635 503.881,1008.310 506.562,1043.701 512.261 M926.832 708.359 C 918.489 712.761,909.656 721.232,907.203 727.182 C 904.676 733.309,901.953 772.881,900.921 818.438 L 899.101 898.877 818.076 900.902 C 727.310 903.170,717.773 905.756,705.604 931.400 C 697.681 948.097,702.377 968.703,718.462 987.820 L 728.711 1000.000 814.356 1000.000 L 900.000 1000.000 900.000 1085.709 L 900.000 1171.418 914.717 1183.548 C 933.977 1199.424,947.020 1201.928,967.589 1193.698 C 995.534 1182.516,997.800 1174.489,999.290 1081.400 L 1000.580 1000.799 1083.290 999.308 C 1137.043 998.339,1168.953 996.155,1174.434 993.071 C 1194.685 981.674,1203.901 948.237,1192.607 927.134 C 1181.201 905.821,1169.681 903.095,1081.762 900.898 L 1000.577 898.869 999.202 818.434 C 997.655 727.964,995.673 720.077,971.371 707.679 C 952.693 698.150,945.981 698.253,926.832 708.359 " fill="#1D1E23" stroke="none" fill-rule="evenodd"/></svg>