<svg xmlns="http://www.w3.org/2000/svg" width="1200" height="1200" fill="none"><g clip-path="url(#a)"><path fill="#1D1E23" d="M967.5 502C933.5 329.5 782 200 600 200c-144.5 0-270 82-332.5 202C117 418 0 545.5 0 700c0 165.5 134.5 300 300 300h650c138 0 250-112 250-250 0-132-102.5-239-232.5-248m-432 312.5c-19.5 19.5-51 19.5-70.5 0L360 710c-19.5-19.5-19.5-51 0-70.5s51-19.5 70.5 0L500 709l224-224c19.5-19.5 51-19.5 70.5 0s19.5 51 0 70.5z"/></g><defs><clipPath id="a"><path fill="#fff" d="M0 0h1200v1200H0z"/></clipPath></defs></svg>