<svg xmlns="http://www.w3.org/2000/svg" width="1200" height="1200" fill="none" viewBox="0 0 1200 1200"><g clip-path="url(#a)"><path fill="#000" d="M1200 749.995c0-132-102.5-239-232.5-248C933.5 329.493 782 199.993 600 199.993c-66.5 0-128.5 18-182.5 48.5l74.5 74.5c33.5-14.5 69.5-23 108-23 152 0 275 123 275 275.002v25h75c83 0 150 67 150 150 0 49.5-24 92.5-60.5 120l70.5 70.5c54.5-46 90-113.5 90-190.5M220.5 192.993l-70.5 70.5 138.5 138.5h-21C117 417.993 0 545.495 0 699.995c0 165.5 134.5 300 300 300h586.5l100 100 70.5-70.5zM300 899.995c-110.5 0-200-89.5-200-200s89.5-200.002 200-200.002h86.5l400 400.002z"/></g><defs><clipPath id="a"><path fill="#fff" d="M0 0h1200v1200H0z"/></clipPath></defs></svg>