<svg width="1200" height="1200" viewBox="0 0 1200 1200" fill="none" xmlns="http://www.w3.org/2000/svg"><g clip-path="url(#clip0_238_2808)"><path d="M1200.01 750C1200.01 618 1097.51 511 967.51 502C933.51 329.5 782.01 200 600.01 200C533.51 200 471.512 218 417.512 248.5L492.012 323C525.51 308.5 561.51 300 600.01 300C752.01 300 875.01 423 875.01 575V600H950.01C1033.01 600 1100.01 667 1100.01 750C1100.01 799.5 1076.01 842.5 1039.51 870L1110.01 940.5C1164.51 894.5 1200.01 827 1200.01 750ZM185.512 228C166.012 247.5 166.012 279 185.512 298.5L288.512 401.5H267.512C103.511 419 -20.489 568.5 3.011 741C23.011 892 159.512 1000 311.012 1000H886.51L951.01 1064.5C970.51 1084 1002.01 1084 1021.51 1064.5C1041.01 1045 1041.01 1013.5 1021.51 994L256.012 228C236.511 208.5 205.011 208.5 185.512 228ZM300.012 900C189.512 900 100.012 810.5 100.012 700C100.012 589.5 189.512 500 300.012 500H386.512L786.51 900H300.012Z" fill="black"/></g><defs><clipPath id="clip0_238_2808"><path width="24" fill="white" d="M0 0H1200V1200H0V0z"/></clipPath></defs></svg>