<svg width="1200" height="1200" viewBox="0 0 1200 1200" fill="none" xmlns="http://www.w3.org/2000/svg"><g clip-path="url(#clip0_238_2802)"><path d="M1000 300H600L529.5 229.5C510.5 210.5 485 200 458.5 200H200C144.5 200 100.5 244.5 100.5 300L100 900C100 955.5 144.5 1000 200 1000H1000C1055 1000 1100 955 1100 900V400C1100 345 1055 300 1000 300ZM900 700H800V800C800 827.5 777.5 850 750 850C722.5 850 700 827.5 700 800V700H600C572.5 700 550 677.5 550 650C550 622.5 572.5 600 600 600H700V500C700 472.5 722.5 450 750 450C777.5 450 800 472.5 800 500V600H900C927.5 600 950 622.5 950 650C950 677.5 927.5 700 900 700Z" fill="#1D1E23"/></g><defs><clipPath id="clip0_238_2802"><path width="24" fill="white" d="M0 0H1200V1200H0V0z"/></clipPath></defs></svg>