<svg xmlns="http://www.w3.org/2000/svg" width="1200" height="1200" fill="none"><g fill="#000" clip-path="url(#a)"><path d="M828.76 50H157.079C98.186 50 50 99.5 50 160v880c0 60.5 47.65 110 106.544 110h886.376c58.895 0 107.08-49.5 107.08-110V380zm214.16 990H157.079V160H775.22v275h267.7z"/><path d="M192.285 600.995h112.5q70.5 0 104.5 45t34 129.5-34 129.5-104.5 45h-112.5zm107.5 290q33.5.001 49-21.5c10.333-14.335 15.5-35.165 15.5-62.5v-63.5q0-40.499-15.5-62t-49-21.5h-33.5v231zM600.09 955.995q-69.998-.001-103.5-47.5-33-47.499-33-133t33-133q33.503-47.499 103.5-47.5 69.999.001 103 47.5 33.501 47.499 33.5 133 .001 85.501-33.5 133-33.001 47.499-103 47.5m0-60.5q32.001-.001 44-23.5 12.501-23.999 12.5-66.5v-60.5q.001-42.001-12.5-65.5-11.999-24-44-24c-21.335 0-36.165 8-44.5 24q-12 23.499-12 65.5v61q0 42 12 66c8.335 15.665 23.165 23.5 44.5 23.5M897.895 955.995c-46.665 0-81.335-15.665-104-47q-33.501-47.497-33.5-133.5c0-57.335 11.165-101.665 33.5-133 22.665-31.665 57.335-47.5 104-47.5q27.001 0 47.5 7.5c14 4.665 26 11.335 36 20q14.999 12.998 24.5 31.5c6.665 12.335 11.835 26.165 15.5 41.5l-70 17q-3.001-12.501-7-23-3.997-10.5-10.5-18-5.999-7.501-15.5-11.5-9.001-4.5-22-4.5-30.503 0-43.5 24-12.501 23.499-12.5 65.5v61q-.001 42 12.5 66 12.997 23.499 43.5 23.5 26.003-.001 37.5-16c8-10.665 13.835-24.335 17.5-41l70 17c-3.665 15.335-8.835 29.165-15.5 41.5q-9.501 18.501-24.5 32c-10 8.665-22 15.335-36 20q-20.499 6.999-47.5 7"/></g><defs><clipPath id="a"><path fill="#fff" d="M0 0h1200v1200H0z"/></clipPath></defs></svg>