<svg xmlns="http://www.w3.org/2000/svg" width="1200" height="1200" fill="none" viewBox="0 0 1200 1200"><path fill="#000" d="M882.32 1032.36c9.765 9.76 25.595 9.76 35.36 0l164.64-164.645c9.765-9.765 9.765-25.595 0-35.355l-34.64-34.645c-9.765-9.765-25.595-9.765-35.36 0L950 860.035v-183.75c0-13.805-11.195-25-25-25h-50c-13.805 0-25 11.195-25 25v183.75l-62.32-62.32c-9.765-9.765-25.595-9.765-35.36 0l-34.64 34.645c-9.765 9.76-9.765 25.59 0 35.355zM300 1000.035q-41.25.001-70.625-29.375C209.791 951.08 200 927.535 200 900.035V200.036q0-41.25 29.375-70.625T300 100.036h339.645a25 25 0 0 1 17.675 7.323l285.36 285.355a25.01 25.01 0 0 1 7.32 17.678v115.893c0 13.81-11.195 25-25 25h-50c-13.805 0-25-11.19-25-25v-51.248c0-13.808-11.195-25-25-25H625c-13.805 0-25-11.193-25-25V225.036c0-13.806-11.195-25-25-25H325c-13.807 0-25 11.194-25 25v649.999c0 13.81 11.193 25 25 25h250c13.805 0 25 11.195 25 25v50c0 13.81-11.195 25-25 25z"/></svg>