<svg xmlns="http://www.w3.org/2000/svg" width="1200" height="1200" fill="none" viewBox="0 0 1200 1200"><g clip-path="url(#a)"><path fill="#000" d="M1000 300H600l-70.5-70.5c-19-19-44.5-29.5-71-29.5H200c-55 0-99.5 45-99.5 100l-.5 600c0 55 45 100 100 100h800c55 0 100-45 100-100V400c0-55-45-100-100-100m-50 600H250c-27.5 0-50-22.5-50-50V450c0-27.5 22.5-50 50-50h700c27.5 0 50 22.5 50 50v400c0 27.5-22.5 50-50 50"/></g><defs><clipPath id="a"><path fill="#fff" d="M0 0h1200v1200H0z"/></clipPath></defs></svg>