<svg xmlns="http://www.w3.org/2000/svg" width="1200" height="1200" fill="none"><g fill="#000" clip-path="url(#a)"><path d="M450 550H250c-55 0-100-45-100-100V250c0-55 45-100 100-100h200c55 0 100 45 100 100v200c0 55-45 100-100 100M450 1050H250c-55 0-100-45-100-100V750c0-55 45-100 100-100h200c55 0 100 45 100 100v200c0 55-45 100-100 100M650 250v200c0 55 45 100 100 100h200c55 0 100-45 100-100V250c0-55-45-100-100-100H750c-55 0-100 45-100 100M950 1050H750c-55 0-100-45-100-100V750c0-55 45-100 100-100h200c55 0 100 45 100 100v200c0 55-45 100-100 100"/></g><defs><clipPath id="a"><path fill="#fff" d="M0 0h1200v1200H0z"/></clipPath></defs></svg>