<svg width="1200" height="1200" viewBox="0 0 1200 1200" fill="none" xmlns="http://www.w3.org/2000/svg"><path d="M839.48 290.003L721.23 171.326C713.375 163.445 718.96 150.003 730.085 150.003H1037.48C1044.385 150.003 1049.98 155.6 1049.98 162.503V469.749C1049.98 480.896 1036.495 486.468 1028.63 478.572L910.48 360.003L705.98 564.505L635.48 494.003L839.48 290.003ZM999.98 600.005C972.37 600.005 949.98 622.39 949.98 650.005V808.505L1049.98 908.505V650.005C1049.98 622.39 1027.595 600.005 999.98 600.005ZM1024.23 1094.75C1004.805 1114.455 973.045 1114.57 953.48 1095L908.48 1050.005H249.982C194.483 1050.005 149.982 1005.005 149.982 950.005V291.503L104.733 246.253C85.264 226.785 85.264 195.221 104.733 175.753C124.201 156.285 155.764 156.285 175.232 175.753L1023.98 1024.5C1043.35 1043.875 1043.465 1075.245 1024.23 1094.75ZM808.48 950.005L564.48 706.005L520.23 750.255C500.765 769.72 469.2 769.72 449.733 750.255C430.264 730.785 430.264 699.22 449.733 679.755L493.983 635.505L249.982 391.503V950.005H808.48ZM391.483 250.003H549.98C577.595 250.003 599.98 227.617 599.98 200.003C599.98 172.388 577.595 150.003 549.98 150.003H291.483L391.483 250.003Z" fill="black"/></svg>