<svg xmlns="http://www.w3.org/2000/svg" width="1200" height="1200" fill="none"><g fill="#000" clip-path="url(#a)"><path d="M828.76 50H157.079C98.186 50 50 99.5 50 160v880c0 60.5 47.65 110 106.544 110h886.376c58.895 0 107.08-49.5 107.08-110V380zm214.16 990H157.079V160H775.22v275h267.7z"/><path d="M198.291 950V601h135c17 0 32.166 2.67 45.5 8q20 7.501 33.5 22 14 14.504 21 35c4.666 13.67 7 29 7 46q0 25.501-7 46-7 20.504-21 35-13.5 14.505-33.5 22.5-20 7.5-45.5 7.5h-59.5v127zm75.5-187.5h40.5c17.666 0 29.834-3.33 36.5-10q10.5-9.997 10.5-33v-15q0-22.995-10.5-33-10-9.999-36.5-10h-40.5zM482.095 601h112.5q70.501 0 104.5 45c22.665 30 34 73.17 34 129.5q-.001 84.501-34 129.5-33.999 45-104.5 45h-112.5zm107.5 290c22.335 0 38.665-7.165 49-21.5q15.501-21.496 15.5-62.5v-63.5q.001-40.499-15.5-62c-10.335-14.33-26.665-21.5-49-21.5h-33.5v231zM779.9 950V601h231.5v61.5H854.9v80h140V804h-140v146z"/></g><defs><clipPath id="a"><path fill="#fff" d="M0 0h1200v1200H0z"/></clipPath></defs></svg>