<svg xmlns="http://www.w3.org/2000/svg" width="1200" height="1200" fill="none"><g fill="#000" clip-path="url(#a)"><path d="M828.76 50H157.079C98.186 50 50 99.5 50 160v880c0 60.5 47.65 110 106.544 110h886.376c58.895 0 107.08-49.5 107.08-110V380zm214.16 990H157.079V160H775.22v275h267.7z"/><path d="M198.291 949.995v-349h135q25.5-.001 45.5 8 20 7.501 33.5 22c9.333 9.665 16.334 21.335 21 35q7 20.499 7 46t-7 46c-4.666 13.665-11.667 25.335-21 35q-13.5 14.498-33.5 22.5-20 7.5-45.5 7.5h-59.5v127zm75.5-187.5h40.5q26.5-.001 36.5-10 10.5-9.997 10.5-33v-15q0-23.002-10.5-33-10-9.999-36.5-10h-40.5zM550.095 717.995h-5.5v232h-63.999v-349h89.999l79.5 232h5.5v-232h64v349h-90zM945.4 900.495h-4.5q-4.499 11.003-11 21c-4.335 6.665-9.665 12.665-16 18q-9.503 7.5-22.5 12-12.503 4.5-28.5 4.5-25.499 0-45.5-12-19.5-11.999-33-35t-20.5-56q-6.501-33.001-6.5-74.5c0-59.335 10.835-104.665 32.5-136q32.497-47.499 100.5-47.5 27.001 0 47.5 7.5c13.665 4.665 25.335 11.5 35 20.5q14.999 12.998 24.5 31.5 9.502 18.501 15 41l-70 17q-3.001-11.002-7-21-3.501-10.499-9.5-18.5t-15-12.5q-9.001-5.001-22-5-28.5.001-40.5 23.5-11.499 23.498-11.5 66v57q-.001 42.501 12.5 68c8.665 17 23.835 25.5 45.5 25.5q25.499 0 38-15t12.5-38.5v-25.5h-59.5v-53h126.5v186.5h-67z"/></g><defs><clipPath id="a"><path fill="#fff" d="M0 0h1200v1200H0z"/></clipPath></defs></svg>