<svg xmlns="http://www.w3.org/2000/svg" width="1200" height="1200" fill="none" viewBox="0 0 1200 1200"><g clip-path="url(#a)"><path fill="#000" d="M1000 300H600l-70.5-70.5c-19-19-44.5-29.5-71-29.5H200c-55 0-99.5 45-99.5 100l-.5 600c0 55 45 100 100 100h800c55 0 100-45 100-100V400c0-55-45-100-100-100M750 450c55 0 100 45 100 100s-45 100-100 100-100-45-100-100 45-100 100-100m200 400H550v-50c0-66.5 133.5-100 200-100s200 33.5 200 100z"/></g><defs><clipPath id="a"><path fill="#fff" d="M0 0h1200v1200H0z"/></clipPath></defs></svg>