<svg width="1200" height="1200" viewBox="0 0 1200 1200" fill="none" xmlns="http://www.w3.org/2000/svg"><g clip-path="url(#clip0_124_964)"><path d="M1100 300H600L500 200H100V1000H1100V300ZM750 450C805 450 850 495 850 550C850 605 805 650 750 650C695 650 650 605 650 550C650 495 695 450 750 450ZM950 850H550V800C550 733.5 683.5 700 750 700C816.5 700 950 733.5 950 800V850Z" fill="#1D1E23"/></g><defs><clipPath id="clip0_124_964"><path width="24" fill="white" d="M0 0H1200V1200H0V0z"/></clipPath></defs></svg>