<svg width="1200" height="1200" viewBox="0 0 1200 1200" fill="none" xmlns="http://www.w3.org/2000/svg"><g clip-path="url(#clip0_238_2806)"><path d="M1000 300H600L529.5 229.5C510.5 210.5 485 200 458.5 200H200C145 200 100.5 245 100.5 300L100 900C100 955 145 1000 200 1000H1000C1055 1000 1100 955 1100 900V400C1100 345 1055 300 1000 300ZM750 450C805 450 850 495 850 550C850 605 805 650 750 650C695 650 650 605 650 550C650 495 695 450 750 450ZM950 850H550V800C550 733.5 683.5 700 750 700C816.5 700 950 733.5 950 800V850Z" fill="#1D1E23"/></g><defs><clipPath id="clip0_238_2806"><path width="24" fill="white" d="M0 0H1200V1200H0V0z"/></clipPath></defs></svg>