<svg xmlns="http://www.w3.org/2000/svg" width="1200" height="1200" fill="none"><g clip-path="url(#a)"><path fill="#1D1E23" d="M970.5 370.5 729 129c-18.5-18.5-44-29-70.5-29H300c-55 0-99.5 45-99.5 100l-.5 800c0 55 44.5 100 99.5 100H900c55 0 100-45 100-100V441.5c0-26.5-10.5-52-29.5-71M740 750h-90v150c0 27.5-22.5 50-50 50s-50-22.5-50-50V750h-89.5c-22.5 0-33.5-27-17.5-42.5L583 568c10-9.5 25.5-9.5 35.5 0L758 707.5c15 15.5 4 42.5-18 42.5m-40-300c-27.5 0-50-22.5-50-50V175l275 275z"/></g><defs><clipPath id="a"><path fill="#fff" d="M0 0h1200v1200H0z"/></clipPath></defs></svg>