<svg viewBox="0 0 2400 2400" fill="none" xmlns="http://www.w3.org/2000/svg"><path d="M466.363 406.293 C 443.583 414.639,425.689 429.702,413.089 451.136 L 402.000 470.000 402.000 600.000 L 402.000 730.000 413.089 748.864 C 426.034 770.886,443.670 785.416,467.778 793.922 C 494.110 803.212,706.427 802.776,734.017 793.375 C 759.335 784.749,784.749 759.335,793.375 734.017 C 803.178 705.249,803.178 494.751,793.375 465.983 C 784.749 440.665,759.335 415.251,734.017 406.625 C 707.328 397.531,491.010 397.263,466.363 406.293 M1066.363 406.293 C 1043.583 414.639,1025.689 429.702,1013.089 451.136 L 1002.000 470.000 1002.000 600.000 L 1002.000 730.000 1013.089 748.864 C 1026.034 770.886,1043.670 785.416,1067.778 793.922 C 1094.110 803.212,1306.427 802.776,1334.017 793.375 C 1359.335 784.749,1384.749 759.335,1393.375 734.017 C 1403.178 705.249,1403.178 494.751,1393.375 465.983 C 1384.749 440.665,1359.335 415.251,1334.017 406.625 C 1307.328 397.531,1091.010 397.263,1066.363 406.293 M1666.363 406.293 C 1643.583 414.639,1625.689 429.702,1613.089 451.136 L 1602.000 470.000 1602.000 600.000 L 1602.000 730.000 1613.089 748.864 C 1626.034 770.886,1643.670 785.416,1667.778 793.922 C 1694.110 803.212,1906.427 802.776,1934.017 793.375 C 1959.335 784.749,1984.749 759.335,1993.375 734.017 C 2003.178 705.249,2003.178 494.751,1993.375 465.983 C 1984.749 440.665,1959.335 415.251,1934.017 406.625 C 1907.328 397.531,1691.010 397.263,1666.363 406.293 M466.363 1006.293 C 443.583 1014.639,425.689 1029.702,413.089 1051.136 L 402.000 1070.000 402.000 1200.000 L 402.000 1330.000 413.089 1348.864 C 426.034 1370.886,443.670 1385.416,467.778 1393.922 C 494.110 1403.212,706.427 1402.776,734.017 1393.375 C 759.335 1384.749,784.749 1359.335,793.375 1334.017 C 803.178 1305.249,803.178 1094.751,793.375 1065.983 C 784.749 1040.665,759.335 1015.251,734.017 1006.625 C 707.328 997.531,491.010 997.263,466.363 1006.293 M1066.363 1006.293 C 1043.583 1014.639,1025.689 1029.702,1013.089 1051.136 L 1002.000 1070.000 1002.000 1200.000 L 1002.000 1330.000 1013.089 1348.864 C 1026.034 1370.886,1043.670 1385.416,1067.778 1393.922 C 1094.110 1403.212,1306.427 1402.776,1334.017 1393.375 C 1359.335 1384.749,1384.749 1359.335,1393.375 1334.017 C 1403.178 1305.249,1403.178 1094.751,1393.375 1065.983 C 1384.749 1040.665,1359.335 1015.251,1334.017 1006.625 C 1307.328 997.531,1091.010 997.263,1066.363 1006.293 M1666.363 1006.293 C 1643.583 1014.639,1625.689 1029.702,1613.089 1051.136 L 1602.000 1070.000 1602.000 1200.000 L 1602.000 1330.000 1613.089 1348.864 C 1626.034 1370.886,1643.670 1385.416,1667.778 1393.922 C 1694.110 1403.212,1906.427 1402.776,1934.017 1393.375 C 1959.335 1384.749,1984.749 1359.335,1993.375 1334.017 C 2003.178 1305.249,2003.178 1094.751,1993.375 1065.983 C 1984.749 1040.665,1959.335 1015.251,1934.017 1006.625 C 1907.328 997.531,1691.010 997.263,1666.363 1006.293 M466.363 1606.293 C 443.583 1614.639,425.689 1629.702,413.089 1651.136 L 402.000 1670.000 402.000 1800.000 L 402.000 1930.000 413.089 1948.864 C 426.034 1970.886,443.670 1985.416,467.778 1993.922 C 494.110 2003.212,706.427 2002.776,734.017 1993.375 C 759.335 1984.749,784.749 1959.335,793.375 1934.017 C 803.178 1905.249,803.178 1694.751,793.375 1665.983 C 784.749 1640.665,759.335 1615.251,734.017 1606.625 C 707.328 1597.531,491.010 1597.263,466.363 1606.293 M1066.363 1606.293 C 1043.583 1614.639,1025.689 1629.702,1013.089 1651.136 L 1002.000 1670.000 1002.000 1800.000 L 1002.000 1930.000 1013.089 1948.864 C 1026.034 1970.886,1043.670 1985.416,1067.778 1993.922 C 1094.110 2003.212,1306.427 2002.776,1334.017 1993.375 C 1359.335 1984.749,1384.749 1959.335,1393.375 1934.017 C 1403.178 1905.249,1403.178 1694.751,1393.375 1665.983 C 1384.749 1640.665,1359.335 1615.251,1334.017 1606.625 C 1307.328 1597.531,1091.010 1597.263,1066.363 1606.293 M1666.363 1606.293 C 1643.583 1614.639,1625.689 1629.702,1613.089 1651.136 L 1602.000 1670.000 1602.000 1800.000 L 1602.000 1930.000 1613.089 1948.864 C 1626.034 1970.886,1643.670 1985.416,1667.778 1993.922 C 1694.110 2003.212,1906.427 2002.776,1934.017 1993.375 C 1959.335 1984.749,1984.749 1959.335,1993.375 1934.017 C 2003.178 1905.249,2003.178 1694.751,1993.375 1665.983 C 1984.749 1640.665,1959.335 1615.251,1934.017 1606.625 C 1907.328 1597.531,1691.010 1597.263,1666.363 1606.293 " fill="#1D1E23" stroke="none" fill-rule="evenodd"/></svg>