<svg viewBox="0 0 2400 2400" fill="none" xmlns="http://www.w3.org/2000/svg"><path d="M475.197 407.588 C 442.686 414.372,411.627 444.389,404.325 476.080 C 398.859 499.799,398.789 697.957,404.236 723.359 C 409.344 747.177,428.816 771.438,455.336 787.028 L 474.000 798.000 598.000 798.000 C 719.986 798.000,722.309 797.848,741.041 788.623 C 751.513 783.466,766.139 771.766,773.543 762.623 C 800.543 729.280,800.000 732.617,800.000 600.000 C 800.000 496.013,799.101 477.858,793.407 466.801 C 781.630 443.934,767.118 427.821,748.374 416.802 L 730.000 406.000 610.000 405.249 C 544.000 404.836,483.338 405.888,475.197 407.588 M1075.197 407.588 C 1042.686 414.372,1011.627 444.389,1004.325 476.080 C 998.859 499.799,998.789 697.957,1004.236 723.359 C 1009.344 747.177,1028.816 771.438,1055.336 787.028 L 1074.000 798.000 1198.000 798.000 C 1319.986 798.000,1322.309 797.848,1341.041 788.623 C 1351.513 783.466,1366.139 771.766,1373.543 762.623 C 1400.543 729.280,1400.000 732.617,1400.000 600.000 C 1400.000 496.013,1399.101 477.858,1393.407 466.801 C 1381.630 443.934,1367.118 427.821,1348.374 416.802 L 1330.000 406.000 1210.000 405.249 C 1144.000 404.836,1083.338 405.888,1075.197 407.588 M1675.197 407.588 C 1642.686 414.372,1611.627 444.389,1604.325 476.080 C 1598.859 499.799,1598.789 697.957,1604.236 723.359 C 1609.344 747.177,1628.816 771.438,1655.336 787.028 L 1674.000 798.000 1798.000 798.000 C 1919.986 798.000,1922.309 797.848,1941.041 788.623 C 1951.513 783.466,1966.139 771.766,1973.543 762.623 C 2000.543 729.280,2000.000 732.617,2000.000 600.000 C 2000.000 496.013,1999.101 477.858,1993.407 466.801 C 1981.630 443.934,1967.118 427.821,1948.374 416.802 L 1930.000 406.000 1810.000 405.249 C 1744.000 404.836,1683.338 405.888,1675.197 407.588 M475.197 1007.588 C 442.686 1014.372,411.627 1044.389,404.325 1076.080 C 398.859 1099.799,398.789 1297.957,404.236 1323.359 C 409.344 1347.177,428.816 1371.438,455.336 1387.028 L 474.000 1398.000 598.000 1398.000 C 719.986 1398.000,722.309 1397.848,741.041 1388.623 C 751.513 1383.466,766.139 1371.766,773.543 1362.623 C 800.543 1329.280,800.000 1332.617,800.000 1200.000 C 800.000 1096.013,799.101 1077.858,793.407 1066.801 C 781.630 1043.934,767.118 1027.821,748.374 1016.802 L 730.000 1006.000 610.000 1005.249 C 544.000 1004.836,483.338 1005.888,475.197 1007.588 M1075.197 1007.588 C 1042.686 1014.372,1011.627 1044.389,1004.325 1076.080 C 998.859 1099.799,998.789 1297.957,1004.236 1323.359 C 1009.344 1347.177,1028.816 1371.438,1055.336 1387.028 L 1074.000 1398.000 1198.000 1398.000 C 1319.986 1398.000,1322.309 1397.848,1341.041 1388.623 C 1351.513 1383.466,1366.139 1371.766,1373.543 1362.623 C 1400.543 1329.280,1400.000 1332.617,1400.000 1200.000 C 1400.000 1096.013,1399.101 1077.858,1393.407 1066.801 C 1381.630 1043.934,1367.118 1027.821,1348.374 1016.802 L 1330.000 1006.000 1210.000 1005.249 C 1144.000 1004.836,1083.338 1005.888,1075.197 1007.588 M1675.197 1007.588 C 1642.686 1014.372,1611.627 1044.389,1604.325 1076.080 C 1598.859 1099.799,1598.789 1297.957,1604.236 1323.359 C 1609.344 1347.177,1628.816 1371.438,1655.336 1387.028 L 1674.000 1398.000 1798.000 1398.000 C 1919.986 1398.000,1922.309 1397.848,1941.041 1388.623 C 1951.513 1383.466,1966.139 1371.766,1973.543 1362.623 C 2000.543 1329.280,2000.000 1332.617,2000.000 1200.000 C 2000.000 1096.013,1999.101 1077.858,1993.407 1066.801 C 1981.630 1043.934,1967.118 1027.821,1948.374 1016.802 L 1930.000 1006.000 1810.000 1005.249 C 1744.000 1004.836,1683.338 1005.888,1675.197 1007.588 M475.197 1607.588 C 442.686 1614.372,411.627 1644.389,404.325 1676.080 C 398.859 1699.799,398.789 1897.957,404.236 1923.359 C 409.344 1947.177,428.816 1971.438,455.336 1987.028 L 474.000 1998.000 598.000 1998.000 C 719.986 1998.000,722.309 1997.848,741.041 1988.623 C 751.513 1983.466,766.139 1971.766,773.543 1962.623 C 800.543 1929.280,800.000 1932.617,800.000 1800.000 C 800.000 1696.013,799.101 1677.858,793.407 1666.801 C 781.630 1643.934,767.118 1627.821,748.374 1616.802 L 730.000 1606.000 610.000 1605.249 C 544.000 1604.836,483.338 1605.888,475.197 1607.588 M1075.197 1607.588 C 1042.686 1614.372,1011.627 1644.389,1004.325 1676.080 C 998.859 1699.799,998.789 1897.957,1004.236 1923.359 C 1009.344 1947.177,1028.816 1971.438,1055.336 1987.028 L 1074.000 1998.000 1198.000 1998.000 C 1319.986 1998.000,1322.309 1997.848,1341.041 1988.623 C 1351.513 1983.466,1366.139 1971.766,1373.543 1962.623 C 1400.543 1929.280,1400.000 1932.617,1400.000 1800.000 C 1400.000 1696.013,1399.101 1677.858,1393.407 1666.801 C 1381.630 1643.934,1367.118 1627.821,1348.374 1616.802 L 1330.000 1606.000 1210.000 1605.249 C 1144.000 1604.836,1083.338 1605.888,1075.197 1607.588 M1675.197 1607.588 C 1642.686 1614.372,1611.627 1644.389,1604.325 1676.080 C 1598.859 1699.799,1598.789 1897.957,1604.236 1923.359 C 1609.344 1947.177,1628.816 1971.438,1655.336 1987.028 L 1674.000 1998.000 1798.000 1998.000 C 1919.986 1998.000,1922.309 1997.848,1941.041 1988.623 C 1951.513 1983.466,1966.139 1971.766,1973.543 1962.623 C 2000.543 1929.280,2000.000 1932.617,2000.000 1800.000 C 2000.000 1696.013,1999.101 1677.858,1993.407 1666.801 C 1981.630 1643.934,1967.118 1627.821,1948.374 1616.802 L 1930.000 1606.000 1810.000 1605.249 C 1744.000 1604.836,1683.338 1605.888,1675.197 1607.588 " fill="#1D1E23" stroke="none" fill-rule="evenodd"/></svg>