<svg viewBox="0 0 2400 2400" fill="none" xmlns="http://www.w3.org/2000/svg"><path d="M488.000 403.334 C 462.902 406.375,434.056 421.704,421.620 438.609 C 399.761 468.321,400.000 466.534,400.000 600.000 C 400.000 707.702,400.885 726.115,406.593 737.199 C 418.730 760.765,431.807 774.622,452.983 786.355 L 474.000 798.000 600.000 798.000 C 715.096 798.000,727.304 797.352,741.068 790.512 C 761.975 780.122,791.042 746.734,794.874 728.708 C 798.927 709.641,798.952 490.475,794.904 471.454 C 791.010 453.159,764.244 422.354,742.513 411.158 C 727.035 403.184,719.232 402.588,618.000 401.659 C 558.600 401.114,500.100 401.867,488.000 403.334 M1088.000 403.334 C 1062.902 406.375,1034.056 421.704,1021.620 438.609 C 999.761 468.321,1000.000 466.534,1000.000 600.000 C 1000.000 707.702,1000.885 726.115,1006.593 737.199 C 1018.730 760.765,1031.807 774.622,1052.983 786.355 L 1074.000 798.000 1200.000 798.000 C 1315.096 798.000,1327.304 797.352,1341.068 790.512 C 1361.975 780.122,1391.042 746.734,1394.874 728.708 C 1398.927 709.641,1398.952 490.475,1394.904 471.454 C 1391.010 453.159,1364.244 422.354,1342.513 411.158 C 1327.035 403.184,1319.232 402.588,1218.000 401.659 C 1158.600 401.114,1100.100 401.867,1088.000 403.334 M1688.000 403.334 C 1662.902 406.375,1634.056 421.704,1621.620 438.609 C 1599.761 468.321,1600.000 466.534,1600.000 600.000 C 1600.000 707.702,1600.885 726.115,1606.593 737.199 C 1618.730 760.765,1631.807 774.622,1652.983 786.355 L 1674.000 798.000 1800.000 798.000 C 1915.096 798.000,1927.304 797.352,1941.068 790.512 C 1961.975 780.122,1991.042 746.734,1994.874 728.708 C 1998.927 709.641,1998.952 490.475,1994.904 471.454 C 1991.010 453.159,1964.244 422.354,1942.513 411.158 C 1927.035 403.184,1919.232 402.588,1818.000 401.659 C 1758.600 401.114,1700.100 401.867,1688.000 403.334 M488.000 1003.334 C 462.902 1006.375,434.056 1021.704,421.620 1038.609 C 399.761 1068.321,400.000 1066.534,400.000 1200.000 C 400.000 1307.702,400.885 1326.115,406.593 1337.199 C 418.730 1360.765,431.807 1374.622,452.983 1386.355 L 474.000 1398.000 600.000 1398.000 C 715.096 1398.000,727.304 1397.352,741.068 1390.512 C 761.975 1380.122,791.042 1346.734,794.874 1328.708 C 798.927 1309.641,798.952 1090.475,794.904 1071.454 C 791.010 1053.159,764.244 1022.354,742.513 1011.158 C 727.035 1003.184,719.232 1002.588,618.000 1001.659 C 558.600 1001.114,500.100 1001.867,488.000 1003.334 M1088.000 1003.334 C 1062.902 1006.375,1034.056 1021.704,1021.620 1038.609 C 999.761 1068.321,1000.000 1066.534,1000.000 1200.000 C 1000.000 1307.702,1000.885 1326.115,1006.593 1337.199 C 1018.730 1360.765,1031.807 1374.622,1052.983 1386.355 L 1074.000 1398.000 1200.000 1398.000 C 1315.096 1398.000,1327.304 1397.352,1341.068 1390.512 C 1361.975 1380.122,1391.042 1346.734,1394.874 1328.708 C 1398.927 1309.641,1398.952 1090.475,1394.904 1071.454 C 1391.010 1053.159,1364.244 1022.354,1342.513 1011.158 C 1327.035 1003.184,1319.232 1002.588,1218.000 1001.659 C 1158.600 1001.114,1100.100 1001.867,1088.000 1003.334 M1688.000 1003.334 C 1662.902 1006.375,1634.056 1021.704,1621.620 1038.609 C 1599.761 1068.321,1600.000 1066.534,1600.000 1200.000 C 1600.000 1307.702,1600.885 1326.115,1606.593 1337.199 C 1618.730 1360.765,1631.807 1374.622,1652.983 1386.355 L 1674.000 1398.000 1800.000 1398.000 C 1915.096 1398.000,1927.304 1397.352,1941.068 1390.512 C 1961.975 1380.122,1991.042 1346.734,1994.874 1328.708 C 1998.927 1309.641,1998.952 1090.475,1994.904 1071.454 C 1991.010 1053.159,1964.244 1022.354,1942.513 1011.158 C 1927.035 1003.184,1919.232 1002.588,1818.000 1001.659 C 1758.600 1001.114,1700.100 1001.867,1688.000 1003.334 M488.000 1603.334 C 462.902 1606.375,434.056 1621.704,421.620 1638.609 C 399.761 1668.321,400.000 1666.534,400.000 1800.000 C 400.000 1907.702,400.885 1926.115,406.593 1937.199 C 418.730 1960.765,431.807 1974.622,452.983 1986.355 L 474.000 1998.000 600.000 1998.000 C 715.096 1998.000,727.304 1997.352,741.068 1990.512 C 761.975 1980.122,791.042 1946.734,794.874 1928.708 C 798.927 1909.641,798.952 1690.475,794.904 1671.454 C 791.010 1653.159,764.244 1622.354,742.513 1611.158 C 727.035 1603.184,719.232 1602.588,618.000 1601.659 C 558.600 1601.114,500.100 1601.867,488.000 1603.334 M1088.000 1603.334 C 1062.902 1606.375,1034.056 1621.704,1021.620 1638.609 C 999.761 1668.321,1000.000 1666.534,1000.000 1800.000 C 1000.000 1907.702,1000.885 1926.115,1006.593 1937.199 C 1018.730 1960.765,1031.807 1974.622,1052.983 1986.355 L 1074.000 1998.000 1200.000 1998.000 C 1315.096 1998.000,1327.304 1997.352,1341.068 1990.512 C 1361.975 1980.122,1391.042 1946.734,1394.874 1928.708 C 1398.927 1909.641,1398.952 1690.475,1394.904 1671.454 C 1391.010 1653.159,1364.244 1622.354,1342.513 1611.158 C 1327.035 1603.184,1319.232 1602.588,1218.000 1601.659 C 1158.600 1601.114,1100.100 1601.867,1088.000 1603.334 M1688.000 1603.334 C 1662.902 1606.375,1634.056 1621.704,1621.620 1638.609 C 1599.761 1668.321,1600.000 1666.534,1600.000 1800.000 C 1600.000 1907.702,1600.885 1926.115,1606.593 1937.199 C 1618.730 1960.765,1631.807 1974.622,1652.983 1986.355 L 1674.000 1998.000 1800.000 1998.000 C 1915.096 1998.000,1927.304 1997.352,1941.068 1990.512 C 1961.975 1980.122,1991.042 1946.734,1994.874 1928.708 C 1998.927 1909.641,1998.952 1690.475,1994.904 1671.454 C 1991.010 1653.159,1964.244 1622.354,1942.513 1611.158 C 1927.035 1603.184,1919.232 1602.588,1818.000 1601.659 C 1758.600 1601.114,1700.100 1601.867,1688.000 1603.334 " fill="#1D1E23" stroke="none" fill-rule="evenodd"/></svg>