<svg viewBox="0 0 2400 2400" fill="none" xmlns="http://www.w3.org/2000/svg"><path d="M496.000 407.389 C 456.683 410.526,438.079 419.678,419.840 444.855 C 401.800 469.760,399.192 492.663,400.668 613.232 C 401.949 717.858,402.357 722.725,411.377 741.041 C 420.984 760.550,443.398 781.616,467.678 793.955 C 480.000 800.217,493.292 800.744,601.678 799.265 C 736.360 797.427,739.097 796.903,768.655 767.345 C 798.578 737.422,798.000 740.717,798.000 600.000 C 798.000 490.217,797.147 472.445,791.371 461.917 C 783.156 446.941,766.387 429.822,748.000 417.640 C 734.490 408.690,730.428 408.301,632.000 406.521 C 575.900 405.507,514.700 405.897,496.000 407.389 M1096.000 407.389 C 1056.683 410.526,1038.079 419.678,1019.840 444.855 C 1001.800 469.760,999.192 492.663,1000.668 613.232 C 1001.949 717.858,1002.357 722.725,1011.377 741.041 C 1020.984 760.550,1043.398 781.616,1067.678 793.955 C 1080.000 800.217,1093.292 800.744,1201.678 799.265 C 1336.360 797.427,1339.097 796.903,1368.655 767.345 C 1398.578 737.422,1398.000 740.717,1398.000 600.000 C 1398.000 490.217,1397.147 472.445,1391.371 461.917 C 1383.156 446.941,1366.387 429.822,1348.000 417.640 C 1334.490 408.690,1330.428 408.301,1232.000 406.521 C 1175.900 405.507,1114.700 405.897,1096.000 407.389 M1696.000 407.389 C 1656.683 410.526,1638.079 419.678,1619.840 444.855 C 1601.800 469.760,1599.192 492.663,1600.668 613.232 C 1601.949 717.858,1602.357 722.725,1611.377 741.041 C 1620.984 760.550,1643.398 781.616,1667.678 793.955 C 1680.000 800.217,1693.292 800.744,1801.678 799.265 C 1936.360 797.427,1939.097 796.903,1968.655 767.345 C 1998.578 737.422,1998.000 740.717,1998.000 600.000 C 1998.000 490.217,1997.147 472.445,1991.371 461.917 C 1983.156 446.941,1966.387 429.822,1948.000 417.640 C 1934.490 408.690,1930.428 408.301,1832.000 406.521 C 1775.900 405.507,1714.700 405.897,1696.000 407.389 M496.000 1007.389 C 456.683 1010.526,438.079 1019.678,419.840 1044.855 C 401.800 1069.760,399.192 1092.663,400.668 1213.232 C 401.949 1317.858,402.357 1322.725,411.377 1341.041 C 420.984 1360.550,443.398 1381.616,467.678 1393.955 C 480.000 1400.217,493.292 1400.744,601.678 1399.265 C 736.360 1397.427,739.097 1396.903,768.655 1367.345 C 798.578 1337.422,798.000 1340.717,798.000 1200.000 C 798.000 1090.217,797.147 1072.445,791.371 1061.917 C 783.156 1046.941,766.387 1029.822,748.000 1017.640 C 734.490 1008.690,730.428 1008.301,632.000 1006.521 C 575.900 1005.507,514.700 1005.897,496.000 1007.389 M1096.000 1007.389 C 1056.683 1010.526,1038.079 1019.678,1019.840 1044.855 C 1001.800 1069.760,999.192 1092.663,1000.668 1213.232 C 1001.949 1317.858,1002.357 1322.725,1011.377 1341.041 C 1020.984 1360.550,1043.398 1381.616,1067.678 1393.955 C 1080.000 1400.217,1093.292 1400.744,1201.678 1399.265 C 1336.360 1397.427,1339.097 1396.903,1368.655 1367.345 C 1398.578 1337.422,1398.000 1340.717,1398.000 1200.000 C 1398.000 1090.217,1397.147 1072.445,1391.371 1061.917 C 1383.156 1046.941,1366.387 1029.822,1348.000 1017.640 C 1334.490 1008.690,1330.428 1008.301,1232.000 1006.521 C 1175.900 1005.507,1114.700 1005.897,1096.000 1007.389 M1696.000 1007.389 C 1656.683 1010.526,1638.079 1019.678,1619.840 1044.855 C 1601.800 1069.760,1599.192 1092.663,1600.668 1213.232 C 1601.949 1317.858,1602.357 1322.725,1611.377 1341.041 C 1620.984 1360.550,1643.398 1381.616,1667.678 1393.955 C 1680.000 1400.217,1693.292 1400.744,1801.678 1399.265 C 1936.360 1397.427,1939.097 1396.903,1968.655 1367.345 C 1998.578 1337.422,1998.000 1340.717,1998.000 1200.000 C 1998.000 1090.217,1997.147 1072.445,1991.371 1061.917 C 1983.156 1046.941,1966.387 1029.822,1948.000 1017.640 C 1934.490 1008.690,1930.428 1008.301,1832.000 1006.521 C 1775.900 1005.507,1714.700 1005.897,1696.000 1007.389 M496.000 1607.389 C 456.683 1610.526,438.079 1619.678,419.840 1644.855 C 401.800 1669.760,399.192 1692.663,400.668 1813.232 C 401.949 1917.858,402.357 1922.725,411.377 1941.041 C 420.984 1960.550,443.398 1981.616,467.678 1993.955 C 480.000 2000.217,493.292 2000.744,601.678 1999.265 C 736.360 1997.427,739.097 1996.903,768.655 1967.345 C 798.578 1937.422,798.000 1940.717,798.000 1800.000 C 798.000 1690.217,797.147 1672.445,791.371 1661.917 C 783.156 1646.941,766.387 1629.822,748.000 1617.640 C 734.490 1608.690,730.428 1608.301,632.000 1606.521 C 575.900 1605.507,514.700 1605.897,496.000 1607.389 M1096.000 1607.389 C 1056.683 1610.526,1038.079 1619.678,1019.840 1644.855 C 1001.800 1669.760,999.192 1692.663,1000.668 1813.232 C 1001.949 1917.858,1002.357 1922.725,1011.377 1941.041 C 1020.984 1960.550,1043.398 1981.616,1067.678 1993.955 C 1080.000 2000.217,1093.292 2000.744,1201.678 1999.265 C 1336.360 1997.427,1339.097 1996.903,1368.655 1967.345 C 1398.578 1937.422,1398.000 1940.717,1398.000 1800.000 C 1398.000 1690.217,1397.147 1672.445,1391.371 1661.917 C 1383.156 1646.941,1366.387 1629.822,1348.000 1617.640 C 1334.490 1608.690,1330.428 1608.301,1232.000 1606.521 C 1175.900 1605.507,1114.700 1605.897,1096.000 1607.389 M1696.000 1607.389 C 1656.683 1610.526,1638.079 1619.678,1619.840 1644.855 C 1601.800 1669.760,1599.192 1692.663,1600.668 1813.232 C 1601.949 1917.858,1602.357 1922.725,1611.377 1941.041 C 1620.984 1960.550,1643.398 1981.616,1667.678 1993.955 C 1680.000 2000.217,1693.292 2000.744,1801.678 1999.265 C 1936.360 1997.427,1939.097 1996.903,1968.655 1967.345 C 1998.578 1937.422,1998.000 1940.717,1998.000 1800.000 C 1998.000 1690.217,1997.147 1672.445,1991.371 1661.917 C 1983.156 1646.941,1966.387 1629.822,1948.000 1617.640 C 1934.490 1608.690,1930.428 1608.301,1832.000 1606.521 C 1775.900 1605.507,1714.700 1605.897,1696.000 1607.389 " fill="#1D1E23" stroke="none" fill-rule="evenodd"/></svg>