<svg viewBox="0 0 2400 2400" fill="none" xmlns="http://www.w3.org/2000/svg"><path d="M1103.389 505.000 C 1021.579 581.101,544.802 1055.005,497.256 1107.480 C 476.585 1130.294,456.147 1155.872,451.836 1164.321 C 436.992 1193.418,443.036 1232.088,466.762 1259.806 C 493.436 1290.968,540.128 1304.410,573.406 1290.506 C 592.686 1282.450,661.928 1217.086,890.000 991.646 L 1094.000 790.000 1096.477 820.000 C 1097.840 836.500,1099.296 1047.100,1099.714 1288.000 C 1100.133 1528.900,1101.868 1773.021,1103.572 1830.491 C 1107.118 1950.135,1106.858 1949.175,1143.868 1979.344 L 1165.417 1996.911 1199.934 1995.261 C 1240.612 1993.316,1256.203 1985.628,1279.663 1955.950 L 1294.681 1936.951 1297.336 1741.475 C 1298.796 1633.964,1300.203 1387.600,1300.463 1194.000 C 1300.723 1000.400,1302.140 830.300,1303.613 816.000 L 1306.290 790.000 1460.145 942.176 C 1789.648 1268.083,1816.376 1292.706,1846.828 1298.419 C 1877.905 1304.249,1929.578 1275.756,1946.193 1243.628 C 1955.805 1225.039,1959.343 1201.468,1955.339 1182.693 C 1949.571 1155.648,1895.785 1098.821,1550.539 755.000 L 1242.265 448.000 1203.465 448.000 L 1164.665 448.000 1103.389 505.000 " fill="#1D1E23" stroke="none" fill-rule="evenodd"/></svg>