<svg viewBox="0 0 2400 2400" fill="none" xmlns="http://www.w3.org/2000/svg"><path d="M1178.000 443.550 C 1171.400 445.262,1159.700 449.846,1152.000 453.739 C 1144.300 457.631,985.524 613.182,799.164 799.408 C 432.323 1165.984,442.494 1154.617,442.492 1198.000 C 442.490 1241.570,425.748 1222.831,797.431 1595.266 C 986.944 1785.162,1146.860 1943.112,1152.800 1946.265 C 1193.100 1967.659,1237.420 1960.249,1270.084 1926.656 C 1291.784 1904.338,1300.058 1884.611,1299.912 1855.536 C 1299.725 1818.183,1298.845 1817.179,1032.850 1551.000 L 782.024 1300.000 1348.299 1300.000 C 1984.474 1300.000,1937.975 1302.236,1970.105 1270.105 C 2009.232 1230.979,2009.232 1169.021,1970.105 1129.895 C 1937.975 1097.764,1984.474 1100.000,1348.299 1100.000 L 782.024 1100.000 1032.850 849.000 C 1225.380 656.337,1285.553 593.816,1291.750 580.000 C 1305.825 548.623,1300.364 506.965,1278.403 478.172 C 1258.920 452.630,1209.161 435.471,1178.000 443.550 " fill="#1D1E23" stroke="none" fill-rule="evenodd"/></svg>