<svg viewBox="0 0 2400 2400" fill="none" xmlns="http://www.w3.org/2000/svg"><path d="M1117.529 491.269 C 1048.130 554.447,641.140 956.085,539.651 1061.547 C 446.879 1157.951,442.291 1164.598,442.722 1202.000 C 443.021 1227.879,451.534 1247.534,470.782 1266.782 C 502.180 1298.180,544.072 1306.360,581.263 1288.357 C 594.952 1281.730,665.161 1214.544,849.415 1031.751 L 1099.024 784.123 1100.828 1355.061 C 1102.407 1854.996,1103.389 1927.741,1108.725 1940.000 C 1115.709 1956.045,1146.815 1986.148,1163.031 1992.556 C 1177.247 1998.173,1222.835 1998.140,1237.110 1992.502 C 1254.937 1985.461,1287.425 1952.540,1292.375 1936.499 C 1295.543 1926.234,1297.452 1755.850,1298.914 1353.070 L 1300.978 784.139 1544.313 1025.461 C 1678.146 1158.188,1797.396 1273.497,1809.311 1281.703 C 1835.809 1299.953,1855.146 1303.141,1885.613 1294.284 C 1917.925 1284.891,1944.888 1258.292,1953.968 1226.853 C 1962.161 1198.485,1959.434 1178.317,1944.373 1155.892 C 1927.655 1131.000,1726.677 926.953,1470.618 674.903 L 1240.106 448.000 1202.582 448.000 L 1165.058 448.000 1117.529 491.269 " fill="#1D1E23" stroke="none" fill-rule="evenodd"/></svg>