<svg viewBox="0 0 2400 2400" fill="none" xmlns="http://www.w3.org/2000/svg"><path d="M1139.237 471.591 C 1046.620 546.323,507.158 1087.321,464.057 1148.695 C 439.817 1183.212,436.544 1197.033,447.008 1220.690 C 461.935 1254.434,519.376 1316.009,763.683 1560.155 C 1034.355 1830.650,1150.585 1942.146,1170.616 1950.515 C 1188.700 1958.071,1214.910 1957.238,1234.000 1948.502 C 1268.281 1932.812,1299.717 1890.728,1299.912 1860.263 C 1300.140 1824.609,1273.535 1794.403,991.794 1510.443 L 783.702 1300.712 1338.851 1298.712 C 1714.836 1297.357,1902.284 1295.295,1919.669 1292.320 C 1949.688 1287.184,1967.382 1275.349,1981.647 1250.864 C 2004.389 1211.830,2003.628 1182.163,1978.946 1145.526 C 1957.705 1113.998,1949.291 1111.046,1870.404 1107.443 C 1832.782 1105.724,1573.070 1103.064,1293.266 1101.531 L 784.531 1098.743 1006.782 874.372 C 1265.199 613.489,1285.117 591.849,1294.649 561.612 C 1301.110 541.114,1301.092 538.814,1294.296 517.000 C 1289.026 500.083,1282.213 489.219,1268.538 475.924 C 1247.159 455.141,1227.785 448.000,1192.773 448.000 C 1169.093 448.000,1167.730 448.601,1139.237 471.591 " fill="#1D1E23" stroke="none" fill-rule="evenodd"/></svg>