<svg viewBox="0 0 2400 2400" fill="none" xmlns="http://www.w3.org/2000/svg"><path d="M1160.893 410.642 C 1153.684 414.196,1140.478 423.605,1131.547 431.551 C 1100.731 458.969,1102.659 419.745,1100.975 1053.721 L 1099.479 1617.441 940.739 1459.404 C 695.215 1214.965,594.634 1118.161,577.961 1110.250 C 566.331 1104.731,556.472 1103.465,536.359 1104.909 C 502.285 1107.355,479.757 1118.951,462.165 1143.098 C 433.308 1182.706,434.971 1219.070,467.380 1257.088 C 536.911 1338.654,1138.422 1934.951,1164.687 1948.350 C 1181.996 1957.181,1211.535 1959.153,1228.522 1952.613 C 1234.308 1950.385,1262.194 1927.285,1290.489 1901.281 C 1406.266 1794.879,1927.235 1271.201,1946.382 1241.978 C 1952.104 1233.246,1953.860 1223.299,1953.750 1200.256 C 1953.581 1164.740,1948.359 1152.724,1922.892 1129.249 C 1904.409 1112.212,1880.210 1104.000,1848.489 1104.000 C 1817.976 1104.000,1796.612 1123.366,1487.481 1431.243 L 1300.963 1617.006 1299.252 1043.503 C 1297.342 402.977,1300.182 459.550,1268.497 430.925 C 1241.382 406.428,1189.343 396.619,1160.893 410.642 " fill="#1D1E23" stroke="none" fill-rule="evenodd"/></svg>