<svg viewBox="0 0 2400 2400" fill="none" xmlns="http://www.w3.org/2000/svg"><path d="M1161.421 453.786 C 1140.019 463.099,1117.134 486.880,1110.314 506.894 C 1102.558 529.658,1102.213 555.981,1109.446 573.291 C 1117.789 593.260,1180.131 659.238,1407.197 888.411 L 1615.673 1098.823 1113.542 1101.772 C 555.954 1105.047,468.905 1107.086,449.207 1117.335 C 424.492 1130.194,403.188 1168.201,402.871 1200.000 C 402.512 1236.111,429.243 1277.166,460.000 1287.740 C 487.268 1297.115,627.711 1299.693,1119.499 1299.845 L 1616.997 1300.000 1410.850 1507.799 C 1110.961 1810.092,1096.082 1827.349,1101.466 1866.628 C 1106.304 1901.924,1137.288 1942.524,1166.825 1952.272 C 1189.548 1959.772,1229.397 1954.935,1245.391 1942.736 C 1295.306 1904.664,1795.850 1410.119,1891.876 1304.000 C 1954.183 1235.144,1965.775 1207.705,1948.489 1170.000 C 1939.010 1149.324,1852.536 1057.240,1656.041 858.580 C 1447.343 647.581,1253.893 460.383,1237.446 453.511 C 1220.667 446.500,1177.810 446.655,1161.421 453.786 " fill="#1D1E23" stroke="none" fill-rule="evenodd"/></svg>