<svg viewBox="0 0 2400 2400" fill="none" xmlns="http://www.w3.org/2000/svg"><path d="M1164.342 406.868 C 1154.630 410.299,1139.161 420.628,1129.967 429.823 C 1097.752 462.037,1100.000 415.387,1100.000 1051.701 L 1100.000 1617.976 849.000 1367.372 C 710.950 1229.540,591.947 1113.744,584.550 1110.049 C 563.453 1099.509,532.438 1097.883,507.908 1106.031 C 451.852 1124.649,424.593 1191.022,451.650 1243.013 C 456.086 1251.537,608.341 1406.652,804.725 1602.720 C 1148.405 1945.848,1150.107 1947.470,1173.067 1954.023 C 1195.862 1960.529,1206.310 1960.074,1236.000 1951.283 C 1246.876 1948.063,1327.041 1870.252,1595.266 1602.569 C 1785.162 1413.056,1943.112 1253.140,1946.265 1247.200 C 1949.419 1241.260,1953.939 1227.352,1956.311 1216.294 C 1969.059 1156.851,1913.401 1095.497,1851.795 1101.084 C 1839.421 1102.206,1823.155 1106.194,1815.649 1109.946 C 1808.142 1113.698,1689.050 1229.540,1551.000 1367.372 L 1300.000 1617.976 1300.000 1051.701 C 1300.000 415.526,1302.236 462.025,1270.105 429.895 C 1242.352 402.141,1202.370 393.437,1164.342 406.868 " fill="#1D1E23" stroke="none" fill-rule="evenodd"/></svg>