<svg viewBox="0 0 2400 2400" fill="none" xmlns="http://www.w3.org/2000/svg"><path d="M1176.550 448.614 C 1160.243 451.532,1136.801 465.666,1124.766 479.837 C 1103.200 505.231,1097.204 550.997,1111.716 579.443 C 1121.396 598.418,1199.036 679.249,1441.120 922.388 L 1616.743 1098.777 1073.372 1101.434 C 774.517 1102.896,513.384 1105.686,493.075 1107.634 C 445.878 1112.161,434.794 1118.580,416.425 1152.021 C 398.179 1185.239,397.131 1211.786,412.871 1242.000 C 435.883 1286.172,448.316 1291.745,533.929 1296.269 C 569.168 1298.132,827.300 1299.733,1107.555 1299.828 L 1617.109 1300.000 1401.555 1517.005 C 1182.272 1737.764,1117.410 1806.521,1106.245 1830.050 C 1089.691 1864.933,1110.959 1918.832,1151.394 1944.476 C 1166.492 1954.050,1173.854 1956.000,1194.912 1956.000 C 1208.852 1956.000,1226.049 1953.580,1233.128 1950.622 C 1251.770 1942.833,1344.317 1855.326,1559.527 1642.000 C 1775.076 1428.338,1915.311 1283.201,1937.903 1250.399 C 1957.866 1221.413,1961.341 1193.558,1948.342 1166.707 C 1942.574 1154.791,1893.156 1100.946,1798.520 1003.463 C 1599.454 798.408,1259.365 462.472,1243.399 455.121 C 1226.366 447.279,1198.931 444.609,1176.550 448.614 " fill="#1D1E23" stroke="none" fill-rule="evenodd"/></svg>