<svg viewBox="0 0 2400 2400" fill="none" xmlns="http://www.w3.org/2000/svg"><path d="M1171.234 446.842 C 1156.581 449.080,1072.356 528.476,831.740 766.875 C 593.538 1002.881,472.258 1128.827,456.314 1156.744 C 425.989 1209.842,431.934 1222.017,546.789 1342.000 C 668.334 1468.973,1130.349 1927.432,1150.805 1941.368 C 1175.231 1958.008,1196.212 1961.669,1222.819 1953.934 C 1262.856 1942.295,1299.866 1896.395,1299.961 1858.263 C 1300.054 1820.888,1292.226 1812.090,980.294 1499.000 L 782.030 1300.000 1306.015 1299.827 C 1848.992 1299.647,1924.114 1298.016,1949.761 1285.845 C 1981.510 1270.779,2006.400 1213.677,1996.331 1179.006 C 1988.604 1152.401,1966.905 1122.303,1949.382 1113.885 C 1927.488 1103.367,1785.124 1100.668,1232.573 1100.300 L 783.146 1100.000 1026.230 855.000 C 1159.927 720.250,1274.320 603.117,1280.437 594.705 C 1307.746 557.147,1304.508 508.865,1272.465 475.822 C 1246.910 449.471,1214.600 440.221,1171.234 446.842 " fill="#1D1E23" stroke="none" fill-rule="evenodd"/></svg>