<svg viewBox="0 0 2400 2400" fill="none" xmlns="http://www.w3.org/2000/svg"><path d="M1174.471 404.259 C 1154.501 409.192,1121.565 433.371,1113.456 449.052 C 1109.987 455.760,1105.605 478.518,1103.717 499.624 C 1101.830 520.731,1100.221 780.756,1100.143 1077.459 L 1100.000 1616.918 852.698 1371.459 C 716.683 1236.456,597.659 1120.650,588.201 1114.111 C 573.050 1103.637,567.601 1102.222,542.392 1102.222 C 503.626 1102.222,475.830 1117.127,457.162 1147.924 C 440.428 1175.531,437.351 1196.841,445.869 1226.141 C 452.467 1248.839,455.722 1252.250,791.265 1588.104 C 977.569 1774.580,1137.927 1932.748,1147.616 1939.588 C 1172.460 1957.125,1191.483 1961.505,1218.473 1955.902 C 1239.905 1951.452,1242.781 1949.054,1345.202 1850.211 C 1402.841 1794.585,1561.926 1636.533,1698.725 1498.986 C 1918.081 1278.428,1948.045 1246.838,1952.490 1231.449 C 1964.187 1190.956,1953.192 1151.916,1922.756 1125.863 C 1886.359 1094.708,1836.483 1093.530,1800.549 1122.975 C 1790.469 1131.235,1673.797 1245.700,1541.278 1377.343 L 1300.334 1616.694 1299.002 1047.347 C 1297.930 588.910,1296.641 474.892,1292.384 462.047 C 1278.880 421.296,1220.778 392.821,1174.471 404.259 " fill="#1D1E23" stroke="none" fill-rule="evenodd"/></svg>