<svg viewBox="0 0 2400 2400" fill="none" xmlns="http://www.w3.org/2000/svg"><path d="M1156.920 452.247 C 1147.526 457.014,1133.560 468.252,1125.884 477.219 C 1094.459 513.933,1093.198 562.691,1122.721 599.562 C 1130.840 609.703,1245.525 726.450,1377.576 859.000 L 1617.667 1100.000 1095.834 1100.218 C 808.825 1100.338,548.727 1101.897,517.838 1103.682 C 452.624 1107.451,443.346 1110.921,422.481 1139.345 C 394.024 1178.111,394.024 1221.889,422.481 1260.655 C 441.447 1286.492,453.769 1292.182,499.624 1296.283 C 520.731 1298.170,780.910 1299.779,1077.801 1299.857 L 1617.602 1300.000 1383.610 1535.000 C 1149.174 1770.446,1119.011 1802.250,1106.079 1827.641 C 1092.220 1854.851,1102.761 1900.940,1128.974 1927.751 C 1156.025 1955.420,1189.772 1964.704,1225.522 1954.311 C 1246.076 1948.336,1253.929 1942.090,1315.026 1883.124 C 1431.172 1771.031,1797.852 1405.028,1868.229 1330.944 C 1947.614 1247.376,1956.941 1233.582,1956.941 1199.740 C 1956.941 1179.904,1954.970 1172.931,1945.471 1159.162 C 1925.093 1129.624,1822.599 1023.739,1539.439 739.698 C 1350.843 550.515,1256.876 458.984,1246.000 453.865 C 1221.265 442.223,1178.211 441.441,1156.920 452.247 " fill="#1D1E23" stroke="none" fill-rule="evenodd"/></svg>