<svg viewBox="0 0 2400 2400" fill="none" xmlns="http://www.w3.org/2000/svg"><path d="M1130.000 202.345 C 1041.166 211.187,970.499 224.448,906.000 244.380 C 568.847 348.572,312.158 621.543,228.334 965.033 C 207.086 1052.100,202.157 1096.350,202.157 1200.000 C 202.157 1303.650,207.086 1347.900,228.334 1434.967 C 262.781 1576.121,332.707 1718.738,420.368 1826.628 C 560.055 1998.548,750.806 2119.387,965.033 2171.666 C 1051.671 2192.809,1096.284 2197.764,1200.000 2197.764 C 1303.716 2197.764,1348.329 2192.809,1434.967 2171.666 C 1509.557 2153.463,1571.519 2130.842,1642.000 2096.083 C 1909.264 1964.275,2100.854 1725.138,2171.666 1434.967 C 2192.809 1348.329,2197.764 1303.716,2197.764 1200.000 C 2197.764 1130.107,2195.950 1094.203,2190.690 1060.000 C 2155.856 833.494,2052.481 632.491,1891.478 478.212 C 1739.895 332.959,1554.020 242.615,1340.000 210.166 C 1299.833 204.076,1163.585 199.002,1130.000 202.345 M1272.576 404.038 C 1577.061 433.717,1833.941 627.519,1945.870 912.000 C 2033.733 1135.312,2011.422 1400.632,1887.383 1607.541 C 1672.000 1966.819,1222.500 2101.493,850.000 1918.351 C 519.776 1755.994,342.689 1393.923,417.838 1034.756 C 462.965 819.077,600.109 627.929,792.459 512.617 C 934.690 427.351,1108.498 388.044,1272.576 404.038 M918.000 843.550 C 899.346 848.387,883.147 858.099,869.448 872.659 C 842.533 901.266,834.981 932.627,845.913 970.393 C 852.518 993.209,856.179 997.451,955.202 1097.000 L 1057.657 1200.000 955.202 1303.000 C 856.179 1402.549,852.518 1406.791,845.913 1429.607 C 834.702 1468.335,844.062 1503.675,872.649 1530.552 C 901.280 1557.470,932.629 1565.019,970.393 1554.087 C 993.209 1547.482,997.451 1543.821,1097.000 1444.798 L 1200.000 1342.343 1303.000 1444.798 C 1402.549 1543.821,1406.791 1547.482,1429.607 1554.087 C 1468.335 1565.298,1503.675 1555.938,1530.552 1527.351 C 1557.470 1498.720,1565.019 1467.371,1554.087 1429.607 C 1547.482 1406.791,1543.821 1402.549,1444.798 1303.000 L 1342.343 1200.000 1444.798 1097.000 C 1543.821 997.451,1547.482 993.209,1554.087 970.393 C 1561.951 943.227,1560.137 919.711,1548.425 896.987 C 1538.394 877.523,1517.821 857.999,1499.128 850.203 C 1477.062 840.999,1435.476 842.100,1414.841 852.433 C 1404.537 857.593,1359.572 899.086,1299.000 959.327 L 1200.000 1057.787 1101.000 959.327 C 1042.015 900.663,995.363 857.545,985.580 852.648 C 966.736 843.216,935.506 839.012,918.000 843.550 " fill="#1D1E23" stroke="none" fill-rule="evenodd"/></svg>