<svg viewBox="0 0 2400 2400" fill="none" xmlns="http://www.w3.org/2000/svg"><path d="M1123.912 204.302 C 897.523 222.936,673.537 324.088,508.522 482.212 C 357.287 627.131,261.223 804.145,218.022 1017.506 C 199.838 1107.313,197.217 1265.260,212.412 1355.573 C 240.417 1522.031,315.457 1691.073,418.577 1820.000 C 453.422 1863.565,532.296 1942.457,576.000 1977.458 C 675.999 2057.545,767.057 2106.447,896.020 2149.322 C 1007.555 2186.403,1072.437 2195.950,1213.158 2195.984 C 1322.566 2196.010,1398.449 2184.216,1498.874 2151.576 C 1657.223 2100.109,1779.313 2027.020,1895.450 1914.166 C 2015.904 1797.117,2099.344 1660.885,2153.388 1493.031 C 2189.332 1381.394,2198.285 1310.089,2194.700 1164.000 C 2192.669 1081.211,2190.761 1058.760,2182.410 1019.354 C 2146.226 848.615,2083.077 709.824,1984.000 583.284 C 1949.247 538.898,1862.107 451.826,1820.000 419.412 C 1691.313 320.348,1548.887 253.411,1409.792 226.623 C 1313.990 208.173,1192.310 198.673,1123.912 204.302 M1362.000 419.828 C 1476.598 444.646,1612.614 509.230,1702.000 581.271 C 1840.849 693.176,1941.707 858.556,1980.538 1038.000 C 1987.602 1070.647,1989.528 1095.502,1991.016 1173.212 C 1993.119 1283.085,1989.669 1320.765,1970.560 1396.628 C 1914.511 1619.151,1767.452 1803.822,1563.182 1908.200 C 1484.734 1948.285,1408.278 1973.765,1316.000 1990.577 C 1259.458 2000.878,1137.490 1999.974,1076.000 1988.797 C 945.976 1965.163,821.537 1912.570,725.463 1840.647 C 681.060 1807.407,601.469 1728.443,568.688 1685.109 C 478.470 1565.848,421.730 1421.955,408.156 1278.000 C 388.554 1070.126,443.129 880.921,571.355 712.205 C 601.866 672.059,670.366 603.384,712.000 571.201 C 818.617 488.784,962.132 426.958,1081.151 412.171 C 1097.018 410.200,1157.700 409.167,1216.000 409.877 C 1306.466 410.977,1327.862 412.436,1362.000 419.828 M870.986 870.986 L 800.009 941.963 928.981 1070.982 L 1057.954 1200.000 928.981 1329.018 L 800.009 1458.037 870.986 1529.014 L 941.963 1599.991 1070.982 1471.019 L 1200.000 1342.046 1329.018 1471.019 L 1458.037 1599.991 1529.014 1529.014 L 1599.991 1458.037 1471.019 1329.018 L 1342.046 1200.000 1471.019 1070.982 L 1599.991 941.963 1529.014 870.986 L 1458.037 800.009 1329.018 928.981 L 1200.000 1057.954 1070.982 928.981 L 941.963 800.009 870.986 870.986 " fill="#1D1E23" stroke="none" fill-rule="evenodd"/></svg>