<svg viewBox="0 0 2400 2400" fill="none" xmlns="http://www.w3.org/2000/svg"><path d="M1099.596 206.265 C 768.659 244.351,491.958 426.170,326.761 714.090 C 272.570 808.539,227.688 942.423,209.459 1064.000 C 199.783 1128.532,199.778 1272.226,209.449 1337.800 C 235.383 1513.645,310.837 1688.192,418.761 1822.000 C 571.354 2011.190,777.806 2134.788,1024.852 2184.851 C 1066.394 2193.269,1080.383 2194.000,1200.000 2194.000 C 1319.066 2194.000,1333.738 2193.242,1374.449 2184.985 C 1635.465 2132.044,1848.974 1999.504,2002.033 1795.400 C 2097.250 1668.429,2169.697 1491.357,2190.409 1334.980 C 2198.500 1273.897,2199.616 1133.215,2192.432 1080.000 C 2175.352 953.470,2130.401 815.621,2073.299 714.658 C 1971.633 534.901,1824.986 395.969,1642.000 306.049 C 1509.645 241.010,1411.983 216.051,1243.250 204.145 C 1172.733 199.170,1159.563 199.364,1099.596 206.265 M869.027 748.218 C 890.737 754.247,914.514 775.550,1064.995 923.796 L 1199.990 1056.785 1338.995 919.790 C 1415.448 844.442,1487.900 774.967,1500.000 765.400 L 1522.000 748.005 1559.785 748.003 C 1594.165 748.000,1598.951 748.957,1612.895 758.620 C 1621.324 764.462,1633.571 776.516,1640.110 785.408 C 1651.350 800.692,1652.000 803.678,1652.000 840.010 L 1652.000 878.443 1630.625 904.222 C 1618.868 918.400,1549.401 990.739,1476.252 1064.975 L 1343.255 1199.950 1485.889 1344.975 C 1564.338 1424.739,1633.635 1497.701,1639.882 1507.113 C 1660.802 1538.630,1659.971 1586.220,1637.980 1616.027 C 1606.417 1658.809,1551.389 1670.584,1510.277 1643.352 C 1500.529 1636.896,1426.718 1566.707,1346.252 1487.378 L 1199.950 1343.143 1049.579 1491.674 C 966.875 1573.365,894.258 1642.764,888.208 1645.892 C 863.899 1658.463,842.094 1661.176,819.097 1654.491 C 761.933 1637.873,732.660 1586.991,748.159 1531.186 C 754.420 1508.642,771.725 1489.266,919.806 1338.995 L 1056.785 1199.990 923.796 1064.995 C 772.703 911.624,754.129 890.736,747.705 866.967 C 727.393 791.813,793.393 727.213,869.027 748.218 " fill="#1D1E23" stroke="none" fill-rule="evenodd"/></svg>