<svg viewBox="0 0 2400 2400" fill="none" xmlns="http://www.w3.org/2000/svg"><path d="M1130.000 202.345 C 1041.166 211.187,970.499 224.448,906.000 244.380 C 568.847 348.572,312.158 621.543,228.334 965.033 C 207.086 1052.100,202.157 1096.350,202.157 1200.000 C 202.157 1303.650,207.086 1347.900,228.334 1434.967 C 262.781 1576.121,332.707 1718.738,420.368 1826.628 C 560.055 1998.548,750.806 2119.387,965.033 2171.666 C 1051.671 2192.809,1096.284 2197.764,1200.000 2197.764 C 1303.716 2197.764,1348.329 2192.809,1434.967 2171.666 C 1509.557 2153.463,1571.519 2130.842,1642.000 2096.083 C 1909.264 1964.275,2100.854 1725.138,2171.666 1434.967 C 2192.809 1348.329,2197.764 1303.716,2197.764 1200.000 C 2197.764 1130.107,2195.950 1094.203,2190.690 1060.000 C 2155.856 833.494,2052.481 632.491,1891.478 478.212 C 1739.895 332.959,1554.020 242.615,1340.000 210.166 C 1299.833 204.076,1163.585 199.002,1130.000 202.345 M1272.576 404.038 C 1577.061 433.717,1833.941 627.519,1945.870 912.000 C 2033.733 1135.312,2011.422 1400.632,1887.383 1607.541 C 1672.000 1966.819,1222.500 2101.493,850.000 1918.351 C 519.776 1755.994,342.689 1393.923,417.838 1034.756 C 462.965 819.077,600.109 627.929,792.459 512.617 C 934.690 427.351,1108.498 388.044,1272.576 404.038 M870.986 870.986 L 800.009 941.963 928.981 1070.982 L 1057.954 1200.000 928.981 1329.018 L 800.009 1458.037 870.986 1529.014 L 941.963 1599.991 1070.982 1471.019 L 1200.000 1342.046 1329.018 1471.019 L 1458.037 1599.991 1529.014 1529.014 L 1599.991 1458.037 1471.019 1329.018 L 1342.046 1200.000 1471.019 1070.982 L 1599.991 941.963 1529.014 870.986 L 1458.037 800.009 1329.018 928.981 L 1200.000 1057.954 1070.982 928.981 L 941.963 800.009 870.986 870.986 " fill="#1D1E23" stroke="none" fill-rule="evenodd"/></svg>