<svg viewBox="0 0 2400 2400" fill="none" xmlns="http://www.w3.org/2000/svg"><path d="M1134.000 202.741 C 789.543 232.801,496.975 418.188,326.681 714.304 C 279.466 796.402,235.855 921.016,214.096 1036.000 C 196.904 1126.847,198.609 1290.615,217.730 1385.051 C 243.625 1512.939,294.822 1639.361,363.095 1744.000 C 456.130 1886.592,599.882 2015.238,752.000 2092.040 C 821.115 2126.935,934.339 2165.807,1020.000 2184.050 C 1068.642 2194.409,1227.004 2199.075,1310.000 2192.595 C 1415.668 2184.345,1555.280 2140.978,1668.000 2081.390 C 1906.157 1955.491,2081.207 1739.612,2159.488 1475.263 C 2190.426 1370.790,2197.497 1310.230,2194.936 1171.690 C 2193.183 1076.841,2192.210 1066.012,2180.477 1010.716 C 2135.327 797.943,2044.392 630.665,1894.808 485.220 C 1817.867 410.406,1743.459 357.857,1643.559 307.779 C 1541.924 256.831,1461.207 231.369,1354.000 216.438 C 1261.312 203.529,1181.738 198.575,1134.000 202.741 M1318.496 412.297 C 1440.631 426.829,1598.264 496.531,1705.754 583.535 C 1764.829 631.352,1827.251 701.125,1868.994 766.000 C 1890.423 799.305,1931.605 880.624,1947.540 921.101 C 1961.707 957.086,1977.603 1017.601,1986.653 1070.000 C 1996.263 1125.637,1996.222 1269.582,1986.580 1326.000 C 1962.110 1469.194,1904.150 1598.379,1816.292 1705.550 C 1785.050 1743.660,1717.219 1808.729,1678.832 1837.412 C 1533.448 1946.046,1346.246 2005.866,1174.000 1998.728 C 1016.201 1992.189,861.530 1938.574,730.966 1845.156 C 713.167 1832.420,677.066 1801.300,650.742 1776.000 C 575.704 1703.880,527.457 1637.271,482.120 1543.205 C 427.485 1429.849,404.000 1326.069,404.000 1198.000 C 404.000 1069.631,429.138 960.751,484.126 850.953 C 597.098 625.373,796.830 470.508,1042.919 417.686 C 1100.756 405.271,1237.042 402.606,1318.496 412.297 M902.000 853.549 C 864.797 871.167,842.991 903.819,842.903 942.039 C 842.819 978.891,856.047 995.981,987.459 1128.795 L 1057.507 1199.590 969.320 1289.197 C 920.817 1338.480,873.835 1388.035,864.915 1399.319 C 831.977 1440.988,834.980 1490.389,872.711 1527.587 C 889.845 1544.479,901.625 1550.479,926.545 1555.008 C 972.244 1563.314,981.268 1557.096,1118.759 1422.553 L 1199.947 1343.106 1298.529 1439.710 C 1352.749 1492.842,1405.181 1541.043,1415.044 1546.823 C 1464.173 1575.615,1534.214 1543.570,1554.294 1483.115 C 1559.963 1466.048,1560.287 1459.592,1556.355 1442.024 C 1550.346 1415.172,1533.181 1394.457,1426.264 1285.027 L 1343.243 1200.054 1431.901 1109.027 C 1532.963 1005.265,1549.534 985.334,1556.549 959.105 C 1560.895 942.858,1560.602 937.275,1554.366 917.491 C 1544.397 885.866,1513.919 855.162,1485.868 848.485 C 1463.894 843.254,1432.907 847.188,1412.349 857.819 C 1398.221 865.125,1351.684 908.035,1265.001 993.684 L 1200.001 1057.908 1137.001 995.757 C 1029.557 889.762,1000.944 864.072,978.900 853.809 C 952.087 841.325,927.986 841.244,902.000 853.549 " fill="#1D1E23" stroke="none" fill-rule="evenodd"/></svg>