<svg viewBox="0 0 2400 2400" fill="none" xmlns="http://www.w3.org/2000/svg"><path d="M1130.000 202.728 C 802.628 231.030,525.970 397.241,353.324 669.341 C 268.187 803.520,213.272 970.876,203.677 1125.391 C 196.599 1239.376,204.439 1338.677,227.834 1431.342 C 275.675 1620.840,360.500 1772.738,491.868 1904.151 C 627.168 2039.499,783.361 2126.466,976.409 2173.941 C 1051.987 2192.528,1096.007 2197.084,1200.000 2197.084 C 1307.477 2197.084,1349.243 2192.475,1433.761 2171.289 C 1619.816 2124.650,1773.915 2038.187,1906.282 1906.166 C 2016.412 1796.323,2092.867 1673.804,2144.223 1524.867 C 2177.277 1429.006,2190.700 1362.595,2196.165 1267.879 C 2205.082 1113.338,2187.155 989.942,2135.458 850.000 C 2014.739 523.219,1726.471 281.693,1381.015 217.890 C 1334.151 209.234,1188.471 198.242,1154.000 200.760 C 1149.600 201.082,1138.800 201.967,1130.000 202.728 M1326.000 411.837 C 1622.919 460.750,1864.045 666.230,1959.754 951.902 C 1999.698 1071.128,2008.586 1220.991,1983.463 1351.671 C 1917.079 1696.981,1632.628 1957.109,1279.158 1995.753 C 1025.610 2023.473,757.215 1914.525,591.610 1716.662 C 393.891 1480.428,345.941 1159.772,467.097 884.000 C 573.880 640.941,790.372 466.063,1046.000 416.371 C 1138.265 398.435,1235.125 396.867,1326.000 411.837 M896.920 852.251 C 860.918 870.513,836.510 914.469,841.933 951.275 C 843.450 961.574,847.621 976.300,851.202 984.000 C 854.782 991.700,902.656 1043.490,957.587 1099.088 L 1057.462 1200.177 961.437 1297.088 C 908.623 1350.390,861.458 1399.728,856.626 1406.729 C 851.794 1413.730,845.877 1429.235,843.478 1441.183 C 826.684 1524.806,928.070 1591.543,995.606 1541.321 C 1003.523 1535.434,1052.751 1488.261,1105.002 1436.492 L 1200.004 1342.366 1297.002 1438.477 C 1350.351 1491.338,1399.728 1538.542,1406.729 1543.374 C 1442.805 1568.272,1494.436 1561.945,1527.850 1528.531 C 1559.822 1496.559,1567.380 1455.960,1548.798 1416.000 C 1545.218 1408.300,1497.384 1356.550,1442.501 1301.000 L 1342.713 1200.000 1442.501 1099.000 C 1497.384 1043.450,1545.218 991.700,1548.798 984.000 C 1567.369 944.063,1559.820 903.439,1527.896 871.515 C 1504.992 848.611,1485.027 842.073,1448.330 845.457 C 1430.662 847.086,1417.998 850.909,1407.706 857.720 C 1399.482 863.162,1349.384 910.219,1296.377 962.291 L 1200.000 1056.967 1104.766 963.483 C 1052.387 912.067,1001.691 864.600,992.108 858.000 C 977.134 847.687,970.419 845.830,944.342 844.794 C 919.550 843.808,910.876 845.172,896.920 852.251 " fill="#1D1E23" stroke="none" fill-rule="evenodd"/></svg>