<svg viewBox="0 0 2400 2400" fill="none" xmlns="http://www.w3.org/2000/svg"><path d="M1099.596 206.265 C 768.659 244.351,491.958 426.170,326.761 714.090 C 272.570 808.539,227.688 942.423,209.459 1064.000 C 199.783 1128.532,199.778 1272.226,209.449 1337.800 C 235.383 1513.645,310.837 1688.192,418.761 1822.000 C 571.354 2011.190,777.806 2134.788,1024.852 2184.851 C 1066.394 2193.269,1080.383 2194.000,1200.000 2194.000 C 1319.066 2194.000,1333.738 2193.242,1374.449 2184.985 C 1635.465 2132.044,1848.974 1999.504,2002.033 1795.400 C 2097.250 1668.429,2169.697 1491.357,2190.409 1334.980 C 2198.500 1273.897,2199.616 1133.215,2192.432 1080.000 C 2175.352 953.470,2130.401 815.621,2073.299 714.658 C 1971.633 534.901,1824.986 395.969,1642.000 306.049 C 1509.645 241.010,1411.983 216.051,1243.250 204.145 C 1172.733 199.170,1159.563 199.364,1099.596 206.265 M1379.015 878.985 L 1558.031 700.002 1629.014 770.986 L 1699.998 841.969 1521.015 1020.985 L 1342.033 1200.000 1521.015 1379.015 L 1699.998 1558.031 1629.014 1629.014 L 1558.031 1699.998 1379.015 1521.015 L 1200.000 1342.033 1020.985 1521.015 L 841.969 1699.998 770.986 1629.014 L 700.002 1558.031 878.985 1379.015 L 1057.967 1200.000 878.985 1020.985 L 700.002 841.969 770.986 770.986 L 841.969 700.002 1020.985 878.985 L 1200.000 1057.967 1379.015 878.985 " fill="#1D1E23" stroke="none" fill-rule="evenodd"/></svg>