<svg viewBox="0 0 2400 2400" fill="none" xmlns="http://www.w3.org/2000/svg"><path d="M1130.000 202.345 C 1041.166 211.187,970.499 224.448,906.000 244.380 C 568.847 348.572,312.158 621.543,228.334 965.033 C 207.086 1052.100,202.157 1096.350,202.157 1200.000 C 202.157 1303.650,207.086 1347.900,228.334 1434.967 C 262.781 1576.121,332.707 1718.738,420.368 1826.628 C 560.055 1998.548,750.806 2119.387,965.033 2171.666 C 1051.671 2192.809,1096.284 2197.764,1200.000 2197.764 C 1303.716 2197.764,1348.329 2192.809,1434.967 2171.666 C 1509.557 2153.463,1571.519 2130.842,1642.000 2096.083 C 1909.264 1964.275,2100.854 1725.138,2171.666 1434.967 C 2192.809 1348.329,2197.764 1303.716,2197.764 1200.000 C 2197.764 1130.107,2195.950 1094.203,2190.690 1060.000 C 2155.856 833.494,2052.481 632.491,1891.478 478.212 C 1739.895 332.959,1554.020 242.615,1340.000 210.166 C 1299.833 204.076,1163.585 199.002,1130.000 202.345 M1379.015 878.985 L 1558.031 700.002 1629.014 770.986 L 1699.998 841.969 1521.015 1020.985 L 1342.033 1200.000 1521.015 1379.015 L 1699.998 1558.031 1629.014 1629.014 L 1558.031 1699.998 1379.015 1521.015 L 1200.000 1342.033 1020.985 1521.015 L 841.969 1699.998 770.986 1629.014 L 700.002 1558.031 878.985 1379.015 L 1057.967 1200.000 878.985 1020.985 L 700.002 841.969 770.986 770.986 L 841.969 700.002 1020.985 878.985 L 1200.000 1057.967 1379.015 878.985 " fill="#1D1E23" stroke="none" fill-rule="evenodd"/></svg>