<svg viewBox="0 0 2400 2400" fill="none" xmlns="http://www.w3.org/2000/svg"><path d="M1130.000 202.728 C 802.628 231.030,525.970 397.241,353.324 669.341 C 268.187 803.520,213.272 970.876,203.677 1125.391 C 196.599 1239.376,204.439 1338.677,227.834 1431.342 C 275.675 1620.840,360.500 1772.738,491.868 1904.151 C 627.168 2039.499,783.361 2126.466,976.409 2173.941 C 1051.987 2192.528,1096.007 2197.084,1200.000 2197.084 C 1307.477 2197.084,1349.243 2192.475,1433.761 2171.289 C 1619.816 2124.650,1773.915 2038.187,1906.282 1906.166 C 2016.412 1796.323,2092.867 1673.804,2144.223 1524.867 C 2177.277 1429.006,2190.700 1362.595,2196.165 1267.879 C 2205.082 1113.338,2187.155 989.942,2135.458 850.000 C 2014.739 523.219,1726.471 281.693,1381.015 217.890 C 1334.151 209.234,1188.471 198.242,1154.000 200.760 C 1149.600 201.082,1138.800 201.967,1130.000 202.728 M1379.015 878.985 L 1558.031 700.002 1629.014 770.986 L 1699.998 841.969 1521.015 1020.985 L 1342.033 1200.000 1521.015 1379.015 L 1699.998 1558.031 1629.014 1629.014 L 1558.031 1699.998 1379.015 1521.015 L 1200.000 1342.033 1020.985 1521.015 L 841.969 1699.998 770.986 1629.014 L 700.002 1558.031 878.985 1379.015 L 1057.967 1200.000 878.985 1020.985 L 700.002 841.969 770.986 770.986 L 841.969 700.002 1020.985 878.985 L 1200.000 1057.967 1379.015 878.985 " fill="#1D1E23" stroke="none" fill-rule="evenodd"/></svg>