<svg viewBox="0 0 2400 2400" fill="none" xmlns="http://www.w3.org/2000/svg"><path d="M1123.912 204.302 C 897.523 222.936,673.537 324.088,508.522 482.212 C 357.287 627.131,261.223 804.145,218.022 1017.506 C 199.838 1107.313,197.217 1265.260,212.412 1355.573 C 240.417 1522.031,315.457 1691.073,418.577 1820.000 C 453.422 1863.565,532.296 1942.457,576.000 1977.458 C 675.999 2057.545,767.057 2106.447,896.020 2149.322 C 1007.555 2186.403,1072.437 2195.950,1213.158 2195.984 C 1322.566 2196.010,1398.449 2184.216,1498.874 2151.576 C 1657.223 2100.109,1779.313 2027.020,1895.450 1914.166 C 2015.904 1797.117,2099.344 1660.885,2153.388 1493.031 C 2189.332 1381.394,2198.285 1310.089,2194.700 1164.000 C 2192.669 1081.211,2190.761 1058.760,2182.410 1019.354 C 2146.226 848.615,2083.077 709.824,1984.000 583.284 C 1949.247 538.898,1862.107 451.826,1820.000 419.412 C 1691.313 320.348,1548.887 253.411,1409.792 226.623 C 1313.990 208.173,1192.310 198.673,1123.912 204.302 M1379.015 878.985 L 1558.031 700.002 1629.014 770.986 L 1699.998 841.969 1521.015 1020.985 L 1342.033 1200.000 1521.015 1379.015 L 1699.998 1558.031 1629.014 1629.014 L 1558.031 1699.998 1379.015 1521.015 L 1200.000 1342.033 1020.985 1521.015 L 841.969 1699.998 770.986 1629.014 L 700.002 1558.031 878.985 1379.015 L 1057.967 1200.000 878.985 1020.985 L 700.002 841.969 770.986 770.986 L 841.969 700.002 1020.985 878.985 L 1200.000 1057.967 1379.015 878.985 " fill="#1D1E23" stroke="none" fill-rule="evenodd"/></svg>