<svg viewBox="0 0 2400 2400" fill="none" xmlns="http://www.w3.org/2000/svg"><path d="M1130.000 202.728 C 802.628 231.030,525.970 397.241,353.324 669.341 C 268.187 803.520,213.272 970.876,203.677 1125.391 C 196.599 1239.376,204.439 1338.677,227.834 1431.342 C 275.675 1620.840,360.500 1772.738,491.868 1904.151 C 627.168 2039.499,783.361 2126.466,976.409 2173.941 C 1051.987 2192.528,1096.007 2197.084,1200.000 2197.084 C 1307.477 2197.084,1349.243 2192.475,1433.761 2171.289 C 1619.816 2124.650,1773.915 2038.187,1906.282 1906.166 C 2016.412 1796.323,2092.867 1673.804,2144.223 1524.867 C 2177.277 1429.006,2190.700 1362.595,2196.165 1267.879 C 2205.082 1113.338,2187.155 989.942,2135.458 850.000 C 2014.739 523.219,1726.471 281.693,1381.015 217.890 C 1334.151 209.234,1188.471 198.242,1154.000 200.760 C 1149.600 201.082,1138.800 201.967,1130.000 202.728 M1326.000 411.837 C 1622.919 460.750,1864.045 666.230,1959.754 951.902 C 1999.698 1071.128,2008.586 1220.991,1983.463 1351.671 C 1917.079 1696.981,1632.628 1957.109,1279.158 1995.753 C 1025.610 2023.473,757.215 1914.525,591.610 1716.662 C 393.891 1480.428,345.941 1159.772,467.097 884.000 C 573.880 640.941,790.372 466.063,1046.000 416.371 C 1138.265 398.435,1235.125 396.867,1326.000 411.837 M870.986 870.986 L 800.009 941.963 928.981 1070.982 L 1057.954 1200.000 928.981 1329.018 L 800.009 1458.037 870.986 1529.014 L 941.963 1599.991 1070.982 1471.019 L 1200.000 1342.046 1329.018 1471.019 L 1458.037 1599.991 1529.014 1529.014 L 1599.991 1458.037 1471.019 1329.018 L 1342.046 1200.000 1471.019 1070.982 L 1599.991 941.963 1529.014 870.986 L 1458.037 800.009 1329.018 928.981 L 1200.000 1057.954 1070.982 928.981 L 941.963 800.009 870.986 870.986 " fill="#1D1E23" stroke="none" fill-rule="evenodd"/></svg>