<svg viewBox="0 0 2400 2400" fill="none" xmlns="http://www.w3.org/2000/svg"><path d="M1134.000 202.741 C 789.543 232.801,496.975 418.188,326.681 714.304 C 279.466 796.402,235.855 921.016,214.096 1036.000 C 196.904 1126.847,198.609 1290.615,217.730 1385.051 C 243.625 1512.939,294.822 1639.361,363.095 1744.000 C 456.130 1886.592,599.882 2015.238,752.000 2092.040 C 821.115 2126.935,934.339 2165.807,1020.000 2184.050 C 1068.642 2194.409,1227.004 2199.075,1310.000 2192.595 C 1415.668 2184.345,1555.280 2140.978,1668.000 2081.390 C 1906.157 1955.491,2081.207 1739.612,2159.488 1475.263 C 2190.426 1370.790,2197.497 1310.230,2194.936 1171.690 C 2193.183 1076.841,2192.210 1066.012,2180.477 1010.716 C 2135.327 797.943,2044.392 630.665,1894.808 485.220 C 1817.867 410.406,1743.459 357.857,1643.559 307.779 C 1541.924 256.831,1461.207 231.369,1354.000 216.438 C 1261.312 203.529,1181.738 198.575,1134.000 202.741 M1379.015 878.985 L 1558.031 700.002 1629.014 770.986 L 1699.998 841.969 1521.015 1020.985 L 1342.033 1200.000 1521.015 1379.015 L 1699.998 1558.031 1629.014 1629.014 L 1558.031 1699.998 1379.015 1521.015 L 1200.000 1342.033 1020.985 1521.015 L 841.969 1699.998 770.986 1629.014 L 700.002 1558.031 878.985 1379.015 L 1057.967 1200.000 878.985 1020.985 L 700.002 841.969 770.986 770.986 L 841.969 700.002 1020.985 878.985 L 1200.000 1057.967 1379.015 878.985 " fill="#1D1E23" stroke="none" fill-rule="evenodd"/></svg>