<svg viewBox="0 0 2400 2400" fill="none" xmlns="http://www.w3.org/2000/svg"><path d="M1134.000 202.741 C 789.543 232.801,496.975 418.188,326.681 714.304 C 279.466 796.402,235.855 921.016,214.096 1036.000 C 196.904 1126.847,198.609 1290.615,217.730 1385.051 C 243.625 1512.939,294.822 1639.361,363.095 1744.000 C 456.130 1886.592,599.882 2015.238,752.000 2092.040 C 821.115 2126.935,934.339 2165.807,1020.000 2184.050 C 1068.642 2194.409,1227.004 2199.075,1310.000 2192.595 C 1415.668 2184.345,1555.280 2140.978,1668.000 2081.390 C 1906.157 1955.491,2081.207 1739.612,2159.488 1475.263 C 2190.426 1370.790,2197.497 1310.230,2194.936 1171.690 C 2193.183 1076.841,2192.210 1066.012,2180.477 1010.716 C 2135.327 797.943,2044.392 630.665,1894.808 485.220 C 1817.867 410.406,1743.459 357.857,1643.559 307.779 C 1541.924 256.831,1461.207 231.369,1354.000 216.438 C 1261.312 203.529,1181.738 198.575,1134.000 202.741 M1318.496 412.297 C 1440.631 426.829,1598.264 496.531,1705.754 583.535 C 1764.829 631.352,1827.251 701.125,1868.994 766.000 C 1890.423 799.305,1931.605 880.624,1947.540 921.101 C 1961.707 957.086,1977.603 1017.601,1986.653 1070.000 C 1996.263 1125.637,1996.222 1269.582,1986.580 1326.000 C 1962.110 1469.194,1904.150 1598.379,1816.292 1705.550 C 1785.050 1743.660,1717.219 1808.729,1678.832 1837.412 C 1533.448 1946.046,1346.246 2005.866,1174.000 1998.728 C 1016.201 1992.189,861.530 1938.574,730.966 1845.156 C 713.167 1832.420,677.066 1801.300,650.742 1776.000 C 575.704 1703.880,527.457 1637.271,482.120 1543.205 C 427.485 1429.849,404.000 1326.069,404.000 1198.000 C 404.000 1069.631,429.138 960.751,484.126 850.953 C 597.098 625.373,796.830 470.508,1042.919 417.686 C 1100.756 405.271,1237.042 402.606,1318.496 412.297 M870.986 870.986 L 800.009 941.963 928.981 1070.982 L 1057.954 1200.000 928.981 1329.018 L 800.009 1458.037 870.986 1529.014 L 941.963 1599.991 1070.982 1471.019 L 1200.000 1342.046 1329.018 1471.019 L 1458.037 1599.991 1529.014 1529.014 L 1599.991 1458.037 1471.019 1329.018 L 1342.046 1200.000 1471.019 1070.982 L 1599.991 941.963 1529.014 870.986 L 1458.037 800.009 1329.018 928.981 L 1200.000 1057.954 1070.982 928.981 L 941.963 800.009 870.986 870.986 " fill="#1D1E23" stroke="none" fill-rule="evenodd"/></svg>