<svg viewBox="0 0 2400 2400" fill="none" xmlns="http://www.w3.org/2000/svg"><path d="M1159.252 407.567 C 1133.940 412.874,1097.931 443.002,934.081 595.961 C 810.010 711.787,718.600 803.077,710.127 819.622 C 705.201 829.241,703.107 842.985,702.999 866.402 C 702.870 894.366,704.511 902.964,713.472 921.279 C 726.051 946.989,754.956 975.283,783.336 989.663 L 803.734 1000.000 1200.380 1000.000 L 1597.026 1000.000 1617.513 988.262 C 1648.541 970.484,1669.008 951.158,1681.934 927.435 C 1691.672 909.561,1693.892 900.187,1695.295 871.009 C 1696.366 848.744,1695.195 831.712,1692.075 824.181 C 1683.209 802.777,1400.948 529.402,1304.000 448.323 C 1260.810 412.202,1248.629 406.771,1208.000 405.521 C 1189.300 404.945,1167.363 405.866,1159.252 407.567 M808.000 1407.870 C 775.596 1411.277,762.814 1417.886,738.635 1443.735 C 717.346 1466.494,709.523 1482.290,703.558 1514.559 C 697.235 1548.766,704.452 1575.324,727.642 1603.177 C 745.390 1624.494,890.857 1764.470,1031.183 1895.260 C 1131.830 1989.068,1147.768 1998.060,1208.659 1995.384 C 1260.622 1993.100,1270.377 1986.803,1380.000 1884.779 C 1521.439 1753.146,1662.082 1616.900,1677.224 1596.848 C 1693.247 1575.631,1694.060 1573.183,1695.345 1542.317 C 1697.690 1485.995,1676.391 1447.697,1626.235 1418.048 L 1602.471 1404.000 1218.235 1404.568 C 1006.906 1404.880,822.300 1406.366,808.000 1407.870 " fill="#1D1E23" stroke="none" fill-rule="evenodd"/></svg>