<svg viewBox="0 0 2400 2400" fill="none" xmlns="http://www.w3.org/2000/svg"><path d="M1150.000 409.613 C 1122.356 421.823,1085.882 453.667,902.000 626.127 C 772.908 747.201,720.314 800.299,709.500 820.471 C 704.076 830.589,702.288 842.571,702.410 868.000 C 702.548 896.923,704.193 905.156,713.423 923.137 C 728.069 951.667,751.602 974.259,781.322 988.319 L 806.000 999.994 1200.594 999.997 L 1595.188 1000.000 1618.594 987.757 C 1651.465 970.564,1678.240 943.107,1688.470 916.103 C 1699.585 886.762,1700.540 839.692,1690.420 820.000 C 1677.817 795.475,1395.841 524.002,1302.322 446.358 C 1256.917 408.660,1245.507 403.967,1199.737 404.157 C 1177.453 404.249,1157.086 406.484,1150.000 409.613 M902.000 1403.643 C 775.336 1406.309,774.482 1406.504,740.818 1440.563 C 713.318 1468.385,701.989 1495.695,702.056 1534.000 C 702.125 1573.882,706.235 1581.971,749.328 1627.046 C 780.934 1660.106,1000.726 1868.178,1082.507 1942.460 C 1131.312 1986.789,1154.230 1997.531,1200.000 1997.531 C 1245.774 1997.531,1268.690 1986.789,1317.484 1942.460 C 1400.617 1866.934,1619.271 1659.970,1650.672 1627.086 C 1692.473 1583.311,1697.586 1573.569,1697.430 1538.000 C 1697.187 1482.538,1671.546 1439.932,1624.065 1416.093 L 1602.000 1405.015 1308.000 1403.151 C 1146.300 1402.126,963.600 1402.347,902.000 1403.643 " fill="#1D1E23" stroke="none" fill-rule="evenodd"/></svg>