<svg viewBox="0 0 2400 2400" fill="none" xmlns="http://www.w3.org/2000/svg"><path d="M808.000 907.870 C 775.596 911.277,762.814 917.886,738.635 943.735 C 717.346 966.494,709.523 982.290,703.558 1014.559 C 697.235 1048.766,704.452 1075.324,727.642 1103.177 C 745.390 1124.494,890.857 1264.470,1031.183 1395.260 C 1131.830 1489.068,1147.768 1498.060,1208.659 1495.384 C 1260.622 1493.100,1270.377 1486.803,1380.000 1384.779 C 1521.439 1253.146,1662.082 1116.900,1677.224 1096.848 C 1693.247 1075.631,1694.060 1073.183,1695.345 1042.317 C 1697.690 985.995,1676.391 947.697,1626.235 918.048 L 1602.471 904.000 1218.235 904.568 C 1006.906 904.880,822.300 906.366,808.000 907.870 " fill="#1D1E23" stroke="none" fill-rule="evenodd"/></svg>