<svg viewBox="0 0 2400 2400" fill="none" xmlns="http://www.w3.org/2000/svg"><path d="M1245.495 717.000 C 1221.509 733.066,1188.992 771.858,1053.934 945.530 C 901.181 1141.957,902.797 1139.170,903.151 1205.445 C 903.318 1236.702,904.781 1243.793,915.532 1265.445 C 929.926 1294.436,984.176 1367.159,1109.901 1526.000 C 1243.524 1694.819,1257.843 1707.412,1304.070 1696.741 C 1340.188 1688.404,1368.573 1662.567,1391.498 1617.159 C 1399.973 1600.373,1399.999 1599.232,1399.773 1263.159 C 1399.522 891.183,1396.865 795.724,1386.014 768.969 C 1378.374 750.132,1345.542 718.021,1325.128 709.422 C 1318.049 706.440,1301.603 704.000,1288.581 704.000 C 1268.517 704.000,1261.943 705.984,1245.495 717.000 " fill="#1D1E23" stroke="none" fill-rule="evenodd"/></svg>