<svg viewBox="0 0 2400 2400" fill="none" xmlns="http://www.w3.org/2000/svg"><path d="M1167.966 407.542 C 1136.939 412.035,1115.729 428.332,990.000 544.289 C 823.619 697.739,715.863 805.320,708.104 825.726 C 700.572 845.538,703.042 899.496,712.364 918.752 C 724.098 942.991,749.865 969.469,777.765 985.956 L 801.529 1000.000 1199.278 1000.000 L 1597.026 1000.000 1618.355 987.797 C 1647.419 971.168,1674.862 943.589,1684.880 920.943 C 1689.457 910.595,1694.062 890.110,1695.113 875.421 C 1698.823 823.564,1702.474 829.067,1590.667 717.984 C 1425.003 553.391,1290.779 431.602,1258.312 416.420 C 1240.147 407.925,1195.569 403.545,1167.966 407.542 M880.000 1407.797 C 773.637 1410.290,768.496 1411.549,740.443 1441.983 C 720.020 1464.139,709.934 1484.214,703.954 1514.613 C 697.886 1545.455,705.137 1573.879,725.859 1600.476 C 747.613 1628.398,1051.174 1917.128,1099.838 1956.184 C 1142.627 1990.524,1151.840 1994.001,1200.000 1993.990 C 1238.731 1993.981,1243.610 1993.089,1262.688 1982.524 C 1295.372 1964.425,1393.404 1875.629,1568.064 1705.918 C 1696.523 1581.099,1698.807 1577.844,1694.827 1525.223 C 1691.155 1476.670,1668.436 1442.568,1622.099 1416.057 L 1601.026 1404.000 1287.513 1404.797 C 1115.081 1405.236,931.700 1406.586,880.000 1407.797 " fill="#1D1E23" stroke="none" fill-rule="evenodd"/></svg>