<svg viewBox="0 0 2400 2400" fill="none" xmlns="http://www.w3.org/2000/svg"><path d="M880.000 907.797 C 773.637 910.290,768.496 911.549,740.443 941.983 C 720.020 964.139,709.934 984.214,703.954 1014.613 C 697.886 1045.455,705.137 1073.879,725.859 1100.476 C 747.613 1128.398,1051.174 1417.128,1099.838 1456.184 C 1142.627 1490.524,1151.840 1494.001,1200.000 1493.990 C 1238.731 1493.981,1243.610 1493.089,1262.688 1482.524 C 1295.372 1464.425,1393.404 1375.629,1568.064 1205.918 C 1696.523 1081.099,1698.807 1077.844,1694.827 1025.223 C 1691.155 976.670,1668.436 942.568,1622.099 916.057 L 1601.026 904.000 1287.513 904.797 C 1115.081 905.236,931.700 906.586,880.000 907.797 " fill="#1D1E23" stroke="none" fill-rule="evenodd"/></svg>