<svg viewBox="0 0 2400 2400" fill="none" xmlns="http://www.w3.org/2000/svg"><path d="M1150.000 911.182 C 1117.144 926.747,1045.467 989.924,857.806 1168.726 C 708.791 1310.707,702.663 1318.583,702.578 1368.215 C 702.537 1391.930,704.578 1402.686,712.065 1418.215 C 723.962 1442.891,755.486 1474.511,782.746 1489.111 L 803.492 1500.223 1202.746 1499.111 L 1602.000 1498.000 1620.000 1487.384 C 1643.070 1473.779,1674.415 1442.808,1683.779 1424.366 C 1696.412 1399.487,1701.190 1367.001,1695.937 1341.699 C 1691.960 1322.540,1687.369 1315.071,1663.357 1288.699 C 1615.919 1236.596,1361.763 995.718,1299.942 944.270 C 1262.303 912.947,1248.808 907.458,1204.349 905.388 C 1172.483 903.904,1163.295 904.884,1150.000 911.182 " fill="#1D1E23" stroke="none" fill-rule="evenodd"/></svg>