<svg viewBox="0 0 2400 2400" fill="none" xmlns="http://www.w3.org/2000/svg"><path d="M954.000 907.993 C 765.948 910.803,768.574 910.348,737.816 945.477 C 715.499 970.966,703.222 1002.150,702.964 1034.000 C 702.607 1078.220,709.097 1086.883,831.220 1205.185 C 1019.557 1387.631,1113.124 1471.497,1143.919 1485.463 C 1170.277 1497.416,1235.183 1497.248,1258.000 1485.167 C 1293.834 1466.194,1416.873 1354.459,1576.422 1196.000 C 1697.154 1076.093,1699.140 1073.235,1694.712 1025.821 C 1690.266 978.204,1671.540 949.061,1626.380 919.475 L 1602.760 904.000 1360.380 904.771 C 1227.071 905.195,1044.200 906.645,954.000 907.993 " fill="#1D1E23" stroke="none" fill-rule="evenodd"/></svg>