<svg viewBox="0 0 2400 2400" fill="none" xmlns="http://www.w3.org/2000/svg"><path d="M1159.366 907.900 C 1127.624 917.489,1051.401 984.003,830.000 1195.313 C 752.343 1269.430,718.350 1306.563,709.567 1326.872 C 702.184 1343.941,702.359 1396.329,709.858 1414.276 C 717.896 1433.514,757.748 1474.473,782.000 1488.422 L 802.000 1499.925 1199.159 1499.962 L 1596.319 1500.000 1613.159 1491.411 C 1622.422 1486.686,1641.867 1470.936,1656.370 1456.411 C 1687.020 1425.714,1697.514 1401.247,1697.201 1361.211 C 1697.051 1342.072,1694.689 1332.498,1686.836 1319.211 C 1664.746 1281.831,1330.477 963.066,1274.000 925.523 C 1247.206 907.712,1189.405 898.826,1159.366 907.900 " fill="#1D1E23" stroke="none" fill-rule="evenodd"/></svg>