<svg viewBox="0 0 2400 2400" fill="none" xmlns="http://www.w3.org/2000/svg"><path d="M1072.000 711.041 C 1054.977 719.381,1026.945 746.702,1018.342 763.339 C 1004.638 789.839,1002.980 826.325,1001.132 1142.000 C 999.286 1457.451,1002.558 1591.885,1012.782 1620.714 C 1031.565 1673.676,1091.644 1710.529,1134.533 1695.397 C 1161.963 1685.719,1203.454 1638.052,1360.328 1436.000 C 1491.803 1266.660,1493.341 1264.068,1495.411 1208.446 C 1497.131 1162.230,1492.903 1146.673,1468.654 1110.000 C 1426.557 1046.334,1229.317 791.481,1185.572 744.231 C 1173.507 731.200,1155.949 716.816,1146.555 712.269 C 1125.373 702.014,1091.561 701.458,1072.000 711.041 " fill="#1D1E23" stroke="none" fill-rule="evenodd"/></svg>