<svg viewBox="0 0 2400 2400" fill="none" xmlns="http://www.w3.org/2000/svg"><path d="M1087.974 703.737 C 1058.706 712.640,1032.273 736.357,1015.436 768.820 C 1002.885 793.022,1000.547 860.482,1000.568 1198.000 C 1000.588 1538.581,1002.939 1607.143,1015.424 1631.180 C 1035.692 1670.205,1067.477 1694.420,1104.129 1698.761 C 1120.157 1700.659,1127.549 1699.191,1144.856 1690.673 C 1168.834 1678.871,1189.540 1654.525,1349.122 1450.500 C 1476.105 1288.152,1485.574 1274.381,1494.072 1239.708 C 1502.432 1205.592,1500.413 1171.824,1488.093 1139.736 C 1479.925 1118.461,1424.413 1044.136,1258.020 831.689 C 1177.712 729.154,1163.444 714.521,1135.765 706.301 C 1112.856 699.498,1103.553 698.999,1087.974 703.737 " fill="#1D1E23" stroke="none" fill-rule="evenodd"/></svg>