<svg viewBox="0 0 2400 2400" fill="none" xmlns="http://www.w3.org/2000/svg"><path d="M1256.707 710.475 C 1230.263 724.018,1199.548 758.982,1081.349 910.098 C 979.364 1040.483,926.971 1111.387,915.724 1134.242 C 902.914 1160.271,899.552 1227.053,909.766 1252.582 C 922.198 1283.653,991.731 1378.004,1126.004 1546.000 C 1211.828 1653.380,1251.430 1694.030,1274.421 1698.343 C 1310.645 1705.139,1360.760 1673.212,1386.341 1627.043 L 1398.000 1606.000 1399.171 1286.000 C 1400.315 973.564,1396.623 805.144,1387.971 775.103 C 1383.079 758.116,1352.218 724.455,1331.906 713.951 C 1312.233 703.778,1273.299 701.978,1256.707 710.475 " fill="#1D1E23" stroke="none" fill-rule="evenodd"/></svg>