<svg viewBox="0 0 2400 2400" fill="none" xmlns="http://www.w3.org/2000/svg"><path d="M1144.000 913.610 C 1134.100 918.940,1111.600 935.307,1094.000 949.980 C 1048.267 988.108,866.906 1157.658,783.777 1240.000 C 705.220 1317.813,702.138 1322.736,702.247 1370.234 C 702.299 1392.764,704.513 1402.967,713.205 1420.732 C 726.027 1446.940,754.763 1475.185,783.336 1489.663 L 803.734 1500.000 1200.026 1500.000 C 1583.501 1500.000,1596.808 1499.751,1611.436 1492.288 C 1636.760 1479.368,1665.877 1454.015,1678.974 1433.480 C 1700.046 1400.440,1704.456 1349.255,1688.924 1318.000 C 1681.097 1302.249,1576.466 1198.658,1441.984 1073.513 C 1255.745 900.205,1264.690 906.540,1204.000 904.990 C 1166.026 904.021,1160.275 904.847,1144.000 913.610 " fill="#1D1E23" stroke="none" fill-rule="evenodd"/></svg>