<svg viewBox="0 0 2400 2400" fill="none" xmlns="http://www.w3.org/2000/svg"><path d="M1074.000 711.264 C 1052.300 721.563,1017.828 758.969,1012.147 778.381 C 1005.020 802.736,1000.400 980.276,1000.291 1234.000 C 1000.172 1510.863,1003.759 1598.659,1016.392 1628.025 C 1034.506 1670.131,1088.860 1704.704,1125.993 1697.737 C 1154.270 1692.433,1198.273 1644.008,1338.386 1464.000 C 1438.934 1334.824,1468.535 1294.511,1482.306 1268.000 C 1492.814 1247.769,1493.744 1242.462,1493.867 1202.000 C 1493.990 1161.318,1493.118 1156.203,1482.299 1134.169 C 1470.468 1110.072,1352.542 950.617,1267.704 844.000 C 1170.704 722.099,1155.832 708.781,1113.002 705.456 C 1095.857 704.126,1085.926 705.605,1074.000 711.264 " fill="#1D1E23" stroke="none" fill-rule="evenodd"/></svg>