<svg viewBox="0 0 2400 2400" fill="none" xmlns="http://www.w3.org/2000/svg"><path d="M801.641 904.489 C 742.442 917.981,696.408 979.636,700.747 1039.620 C 704.263 1088.231,705.735 1089.933,910.906 1282.670 C 1013.558 1379.102,1104.848 1463.871,1113.773 1471.047 C 1133.010 1486.515,1173.201 1500.000,1200.065 1500.000 C 1225.466 1500.000,1264.614 1487.511,1283.123 1473.503 C 1291.305 1467.310,1382.949 1382.474,1486.776 1284.978 C 1701.396 1083.446,1698.000 1087.513,1698.000 1032.000 C 1698.000 979.784,1670.904 937.796,1621.576 913.576 L 1598.000 902.000 1208.000 901.380 C 978.844 901.016,811.253 902.298,801.641 904.489 " fill="#1D1E23" stroke="none" fill-rule="evenodd"/></svg>