<svg viewBox="0 0 2400 2400" fill="none" xmlns="http://www.w3.org/2000/svg"><path d="M958.000 651.611 C 909.976 673.928,887.123 732.905,908.251 780.000 C 914.391 793.688,964.439 846.156,1117.148 999.000 L 1317.970 1200.000 1117.148 1401.000 C 904.257 1614.080,900.272 1618.753,900.088 1655.536 C 899.942 1684.611,908.216 1704.338,929.916 1726.656 C 962.578 1760.248,1006.880 1767.657,1047.200 1746.270 C 1053.140 1743.119,1168.052 1630.170,1302.561 1495.271 C 1566.112 1230.955,1557.510 1240.985,1557.508 1198.000 C 1557.506 1155.552,1559.348 1157.696,1300.825 899.196 C 1118.219 716.607,1057.763 658.484,1044.000 652.284 C 1020.364 641.637,980.141 641.322,958.000 651.611 " fill="#1D1E23" stroke="none" fill-rule="evenodd"/></svg>