<svg viewBox="0 0 2400 2400" fill="none" xmlns="http://www.w3.org/2000/svg"><path d="M967.353 648.727 C 948.308 653.799,922.018 676.512,910.981 697.430 C 904.423 709.858,902.208 721.085,902.119 742.342 C 902.014 767.353,903.410 772.756,914.000 788.318 C 920.600 798.016,1014.060 894.644,1121.689 1003.047 L 1317.379 1200.142 1127.398 1391.071 C 1022.909 1496.082,929.586 1592.477,920.014 1605.283 C 892.345 1642.301,892.900 1679.073,921.695 1716.785 C 936.217 1735.804,965.403 1753.507,989.214 1757.739 C 999.025 1759.482,1012.522 1758.091,1027.214 1753.822 C 1049.612 1747.315,1053.989 1743.210,1284.406 1512.601 C 1413.329 1383.570,1526.458 1267.700,1535.802 1255.112 C 1555.764 1228.221,1560.151 1212.516,1555.653 1184.059 C 1553.236 1168.768,1547.770 1157.175,1535.178 1140.629 C 1514.339 1113.248,1217.634 813.098,1119.413 720.037 C 1059.073 662.867,1046.185 652.493,1030.641 648.579 C 1009.365 643.221,987.839 643.272,967.353 648.727 " fill="#1D1E23" stroke="none" fill-rule="evenodd"/></svg>