<svg viewBox="0 0 2400 2400" fill="none" xmlns="http://www.w3.org/2000/svg"><path d="M971.815 649.556 C 931.375 660.215,902.662 698.417,902.434 741.864 C 902.350 757.860,904.806 770.721,909.717 780.000 C 917.744 795.166,976.176 855.911,1183.861 1064.999 L 1317.955 1199.999 1189.572 1328.999 C 924.681 1595.165,900.148 1623.105,900.039 1658.740 C 899.922 1696.788,940.719 1744.388,983.232 1755.805 C 997.216 1759.561,1004.455 1759.272,1021.652 1754.273 C 1040.601 1748.765,1051.256 1740.141,1122.421 1672.721 C 1208.550 1591.123,1414.848 1382.809,1495.126 1296.373 C 1546.750 1240.789,1556.000 1226.387,1556.000 1201.593 C 1556.000 1160.473,1544.532 1146.294,1357.605 956.304 C 1192.179 788.167,1062.723 664.962,1042.000 655.938 C 1019.848 646.291,993.346 643.881,971.815 649.556 " fill="#1D1E23" stroke="none" fill-rule="evenodd"/></svg>