<svg viewBox="0 0 2400 2400" fill="none" xmlns="http://www.w3.org/2000/svg"><path d="M972.942 647.682 C 937.314 656.771,906.781 692.031,902.465 729.070 C 898.973 759.044,904.704 777.280,925.134 801.193 C 934.995 812.736,1027.160 907.188,1129.944 1011.087 L 1316.824 1199.995 1124.980 1393.881 C 1019.465 1500.518,926.374 1597.583,918.110 1609.582 C 890.170 1650.150,894.450 1687.090,931.368 1724.008 C 968.559 1761.199,1003.543 1767.945,1042.809 1745.497 C 1077.645 1725.581,1531.749 1267.855,1547.710 1236.568 C 1558.810 1214.812,1558.670 1184.041,1547.366 1160.690 C 1537.766 1140.859,1491.202 1091.265,1318.239 916.654 C 1184.191 781.329,1071.306 672.948,1049.094 658.249 C 1032.018 646.949,995.617 641.898,972.942 647.682 " fill="#1D1E23" stroke="none" fill-rule="evenodd"/></svg>