<svg viewBox="0 0 2400 2400" fill="none" xmlns="http://www.w3.org/2000/svg"><path d="M1360.000 650.328 C 1344.493 656.991,863.505 1134.369,853.730 1152.800 C 841.652 1175.570,838.880 1202.070,845.976 1226.906 C 852.507 1249.762,855.096 1252.526,1097.288 1495.280 C 1234.375 1632.685,1348.591 1743.988,1356.987 1748.355 C 1408.992 1775.402,1475.351 1748.146,1493.969 1692.092 C 1502.127 1667.533,1500.487 1636.504,1489.920 1615.450 C 1486.207 1608.053,1392.922 1511.541,1282.619 1400.981 L 1082.068 1199.961 1282.649 998.981 C 1392.969 888.441,1486.199 792.053,1489.829 784.785 C 1499.291 765.836,1501.962 735.295,1496.015 714.053 C 1489.697 691.488,1463.699 661.300,1442.155 651.514 C 1422.203 642.451,1379.760 641.838,1360.000 650.328 " fill="#1D1E23" stroke="none" fill-rule="evenodd"/></svg>