<svg viewBox="0 0 2400 2400" fill="none" xmlns="http://www.w3.org/2000/svg"><path d="M1372.366 648.114 C 1367.067 650.368,1347.700 664.973,1329.328 680.571 C 1290.866 713.224,885.408 1116.488,862.424 1144.948 C 848.083 1162.705,846.991 1165.976,845.058 1196.968 L 842.995 1230.040 857.285 1247.145 C 890.069 1286.384,1036.605 1435.197,1191.303 1586.352 C 1344.164 1735.713,1358.149 1748.328,1377.122 1753.962 C 1439.809 1772.579,1508.060 1711.690,1498.201 1645.944 C 1493.638 1615.520,1481.354 1601.976,1216.435 1335.286 L 1082.616 1200.572 1257.947 1023.286 C 1507.165 771.290,1506.667 771.912,1496.752 724.643 C 1487.491 680.492,1452.116 649.944,1405.705 646.021 C 1392.667 644.919,1377.665 645.861,1372.366 648.114 " fill="#1D1E23" stroke="none" fill-rule="evenodd"/></svg>