<svg viewBox="0 0 2400 2400" fill="none" xmlns="http://www.w3.org/2000/svg"><path d="M958.000 655.599 C 938.227 664.774,918.404 685.208,910.203 704.872 C 901.230 726.384,902.096 766.829,911.873 782.864 C 920.898 797.665,1011.662 891.757,1191.509 1072.752 L 1317.457 1199.503 1154.245 1364.439 C 927.526 1593.553,900.000 1625.552,900.000 1660.000 C 900.000 1678.546,913.313 1704.372,933.045 1724.104 C 967.491 1758.550,1003.329 1766.530,1036.439 1747.126 C 1062.769 1731.696,1196.221 1603.649,1348.483 1447.721 C 1554.566 1236.675,1558.322 1232.060,1555.153 1193.838 C 1553.740 1176.796,1549.946 1167.087,1537.822 1149.484 C 1507.773 1105.854,1212.223 805.434,1097.948 702.361 C 1073.776 680.559,1046.800 659.449,1038.000 655.449 C 1016.731 645.781,979.009 645.852,958.000 655.599 " fill="#1D1E23" stroke="none" fill-rule="evenodd"/></svg>