<svg viewBox="0 0 2400 2400" fill="none" xmlns="http://www.w3.org/2000/svg"><path d="M618.000 543.550 C 599.346 548.387,583.147 558.099,569.448 572.659 C 542.574 601.222,535.004 632.572,545.848 670.393 C 552.597 693.932,553.345 694.730,805.235 947.000 L 1057.854 1200.000 805.235 1453.000 C 553.345 1705.270,552.597 1706.068,545.848 1729.607 C 534.727 1768.393,544.105 1803.715,572.649 1830.552 C 601.236 1857.429,632.574 1864.996,670.393 1854.152 C 693.932 1847.403,694.730 1846.655,947.000 1594.765 L 1200.000 1342.146 1453.000 1594.765 C 1705.270 1846.655,1706.068 1847.403,1729.607 1854.152 C 1768.393 1865.273,1803.715 1855.895,1830.552 1827.351 C 1857.429 1798.764,1864.996 1767.426,1854.152 1729.607 C 1847.403 1706.068,1846.655 1705.271,1594.750 1452.985 L 1342.116 1199.970 1590.666 950.985 C 1749.838 791.535,1842.062 696.246,1847.129 686.000 C 1872.050 635.607,1852.267 576.334,1802.483 552.234 C 1779.586 541.150,1740.602 541.189,1716.000 552.320 C 1702.271 558.532,1638.917 619.467,1448.970 809.158 L 1199.939 1057.853 950.970 809.318 C 788.509 647.142,696.295 557.942,685.580 552.606 C 666.707 543.207,635.468 539.021,618.000 543.550 " fill="#1D1E23" stroke="none" fill-rule="evenodd"/></svg>