<svg viewBox="0 0 2400 2400" fill="none" xmlns="http://www.w3.org/2000/svg"><path d="M606.992 549.707 C 553.824 568.681,527.291 631.398,551.452 680.990 C 558.373 695.195,623.216 762.977,808.800 950.003 L 1056.896 1200.027 808.328 1450.408 C 650.724 1609.162,556.648 1706.867,551.256 1717.395 C 539.984 1739.409,539.691 1772.017,550.550 1796.045 C 574.258 1848.503,632.688 1872.053,680.903 1848.582 C 695.001 1841.719,763.385 1776.306,949.909 1591.261 L 1200.012 1343.142 1450.016 1591.219 C 1637.150 1776.910,1704.796 1841.621,1719.010 1848.540 C 1798.081 1887.030,1887.030 1798.081,1848.540 1719.010 C 1841.621 1704.795,1776.849 1637.088,1590.940 1449.735 L 1342.584 1199.449 1522.407 1018.725 C 1802.061 737.670,1838.918 699.263,1847.834 679.611 C 1871.662 627.091,1844.119 565.561,1789.698 549.740 C 1761.265 541.474,1738.190 544.132,1711.295 558.770 C 1697.442 566.310,1617.149 643.229,1445.689 813.215 L 1199.938 1056.854 972.969 831.708 C 726.825 587.541,687.073 550.415,667.616 546.523 C 647.863 542.573,623.381 543.858,606.992 549.707 " fill="#1D1E23" stroke="none" fill-rule="evenodd"/></svg>