<svg viewBox="0 0 2400 2400" fill="none" xmlns="http://www.w3.org/2000/svg"><path d="M618.000 547.511 C 586.809 555.701,555.624 584.316,548.006 611.739 C 542.434 631.798,543.046 657.974,549.446 673.291 C 557.795 693.274,620.151 759.258,848.060 989.283 L 1057.399 1200.565 889.449 1369.283 C 699.471 1560.128,584.809 1677.903,562.594 1705.014 C 544.757 1726.781,539.528 1755.741,547.982 1785.936 C 554.310 1808.539,578.625 1836.684,601.308 1847.665 C 621.428 1857.405,653.838 1858.682,673.406 1850.506 C 692.995 1842.321,763.708 1775.440,992.988 1548.244 L 1199.976 1343.137 1410.988 1552.208 C 1640.748 1779.855,1706.731 1842.207,1726.709 1850.554 C 1756.992 1863.207,1804.373 1851.578,1828.764 1825.506 C 1853.051 1799.546,1862.702 1755.784,1850.554 1726.709 C 1842.205 1706.726,1779.849 1640.742,1551.941 1410.718 L 1342.602 1199.436 1496.639 1044.718 C 1731.248 809.073,1835.443 700.773,1844.353 683.309 C 1876.624 620.052,1832.496 547.826,1761.737 548.088 C 1747.393 548.141,1731.669 551.074,1722.000 555.500 C 1698.806 566.119,1627.233 633.509,1400.635 858.087 L 1199.484 1057.446 1042.742 901.356 C 844.732 704.170,723.054 586.415,694.716 564.553 C 676.345 550.379,668.977 547.218,651.295 545.921 C 639.583 545.063,624.600 545.778,618.000 547.511 " fill="#1D1E23" stroke="none" fill-rule="evenodd"/></svg>