<svg viewBox="0 0 2400 2400" fill="none" xmlns="http://www.w3.org/2000/svg"><path d="M252.928 408.242 C 226.230 413.505,188.981 435.558,162.290 461.903 C 133.125 490.690,118.403 514.673,108.984 548.740 C 102.476 572.278,102.000 616.671,102.000 1200.000 C 102.000 1788.804,102.425 1827.539,109.148 1851.901 C 118.788 1886.831,132.549 1909.281,162.288 1938.593 C 192.161 1968.038,234.199 1989.991,272.000 1995.885 C 305.715 2001.143,494.285 2001.143,528.000 1995.885 C 604.745 1983.918,675.183 1918.768,692.979 1843.295 C 696.895 1826.688,698.000 1684.613,698.000 1198.000 C 698.000 492.496,700.550 547.971,665.710 495.563 C 632.786 446.039,585.205 414.468,533.438 407.797 C 498.980 403.357,275.915 403.711,252.928 408.242 M1052.928 408.242 C 1026.230 413.505,988.981 435.558,962.290 461.903 C 933.125 490.690,918.403 514.673,908.984 548.740 C 902.476 572.278,902.000 616.671,902.000 1200.000 C 902.000 1788.804,902.425 1827.539,909.148 1851.901 C 918.788 1886.831,932.549 1909.281,962.288 1938.593 C 992.161 1968.038,1034.199 1989.991,1072.000 1995.885 C 1105.715 2001.143,1294.285 2001.143,1328.000 1995.885 C 1404.745 1983.918,1475.183 1918.768,1492.979 1843.295 C 1496.895 1826.688,1498.000 1684.613,1498.000 1198.000 C 1498.000 492.496,1500.550 547.971,1465.710 495.563 C 1432.786 446.039,1385.205 414.468,1333.438 407.797 C 1298.980 403.357,1075.915 403.711,1052.928 408.242 M1852.928 408.242 C 1826.230 413.505,1788.981 435.558,1762.290 461.903 C 1733.125 490.690,1718.403 514.673,1708.984 548.740 C 1702.476 572.278,1702.000 616.671,1702.000 1200.000 C 1702.000 1788.804,1702.425 1827.539,1709.148 1851.901 C 1718.788 1886.831,1732.549 1909.281,1762.288 1938.593 C 1792.161 1968.038,1834.199 1989.991,1872.000 1995.885 C 1905.715 2001.143,2094.285 2001.143,2128.000 1995.885 C 2204.745 1983.918,2275.183 1918.768,2292.979 1843.295 C 2296.895 1826.688,2298.000 1684.613,2298.000 1198.000 C 2298.000 492.496,2300.550 547.971,2265.710 495.563 C 2232.786 446.039,2185.205 414.468,2133.438 407.797 C 2098.980 403.357,1875.915 403.711,1852.928 408.242 " fill="#1D1E23" stroke="none" fill-rule="evenodd"/></svg>