<svg viewBox="0 0 2400 2400" fill="none" xmlns="http://www.w3.org/2000/svg"><path d="M291.896 403.627 C 250.996 406.279,242.642 408.146,217.896 420.161 C 180.600 438.269,138.104 480.260,120.334 516.565 C 108.692 540.348,106.962 548.515,103.814 594.565 C 99.230 661.610,99.230 1738.390,103.814 1805.435 C 106.962 1851.485,108.692 1859.652,120.334 1883.435 C 147.776 1939.497,209.193 1986.180,268.078 1995.734 C 301.703 2001.189,498.297 2001.189,531.922 1995.734 C 591.296 1986.101,651.881 1939.695,679.578 1882.634 C 691.640 1857.785,693.173 1850.429,696.257 1802.634 C 700.679 1734.102,700.686 666.000,696.265 597.490 C 693.243 550.664,691.509 542.115,680.241 518.505 C 656.151 468.030,603.817 423.144,553.896 410.141 C 526.104 402.902,364.888 398.894,291.896 403.627 M1091.896 403.627 C 1050.996 406.279,1042.642 408.146,1017.896 420.161 C 980.600 438.269,938.104 480.260,920.334 516.565 C 908.692 540.348,906.962 548.515,903.814 594.565 C 899.230 661.610,899.230 1738.390,903.814 1805.435 C 906.962 1851.485,908.692 1859.652,920.334 1883.435 C 947.776 1939.497,1009.193 1986.180,1068.078 1995.734 C 1101.703 2001.189,1298.297 2001.189,1331.922 1995.734 C 1391.296 1986.101,1451.881 1939.695,1479.578 1882.634 C 1491.640 1857.785,1493.173 1850.429,1496.257 1802.634 C 1500.679 1734.102,1500.686 666.000,1496.265 597.490 C 1493.243 550.664,1491.509 542.115,1480.241 518.505 C 1456.151 468.030,1403.817 423.144,1353.896 410.141 C 1326.104 402.902,1164.888 398.894,1091.896 403.627 M1891.896 403.627 C 1850.996 406.279,1842.642 408.146,1817.896 420.161 C 1780.600 438.269,1738.104 480.260,1720.334 516.565 C 1708.692 540.348,1706.962 548.515,1703.814 594.565 C 1699.230 661.610,1699.230 1738.390,1703.814 1805.435 C 1706.962 1851.485,1708.692 1859.652,1720.334 1883.435 C 1747.776 1939.497,1809.193 1986.180,1868.078 1995.734 C 1901.703 2001.189,2098.297 2001.189,2131.922 1995.734 C 2191.296 1986.101,2251.881 1939.695,2279.578 1882.634 C 2291.640 1857.785,2293.173 1850.429,2296.257 1802.634 C 2300.679 1734.102,2300.686 666.000,2296.265 597.490 C 2293.243 550.664,2291.509 542.115,2280.241 518.505 C 2256.151 468.030,2203.817 423.144,2153.896 410.141 C 2126.104 402.902,1964.888 398.894,1891.896 403.627 " fill="#1D1E23" stroke="none" fill-rule="evenodd"/></svg>