<svg viewBox="0 0 2400 2400" fill="none" xmlns="http://www.w3.org/2000/svg"><path d="M258.041 404.701 C 185.928 418.453,119.929 484.827,104.420 559.197 C 98.181 589.114,98.181 1810.886,104.420 1840.803 C 120.053 1915.765,184.235 1979.947,259.197 1995.580 C 287.474 2001.477,512.526 2001.477,540.803 1995.580 C 615.765 1979.947,679.947 1915.765,695.580 1840.803 C 701.819 1810.886,701.819 589.114,695.580 559.197 C 679.683 482.966,613.826 418.136,538.265 404.335 C 509.158 399.019,286.313 399.310,258.041 404.701 M1058.041 404.701 C 985.928 418.453,919.929 484.827,904.420 559.197 C 898.181 589.114,898.181 1810.886,904.420 1840.803 C 920.053 1915.765,984.235 1979.947,1059.197 1995.580 C 1087.474 2001.477,1312.526 2001.477,1340.803 1995.580 C 1415.765 1979.947,1479.947 1915.765,1495.580 1840.803 C 1501.819 1810.886,1501.819 589.114,1495.580 559.197 C 1479.683 482.966,1413.826 418.136,1338.265 404.335 C 1309.158 399.019,1086.313 399.310,1058.041 404.701 M1858.041 404.701 C 1785.928 418.453,1719.929 484.827,1704.420 559.197 C 1698.181 589.114,1698.181 1810.886,1704.420 1840.803 C 1720.053 1915.765,1784.235 1979.947,1859.197 1995.580 C 1887.474 2001.477,2112.526 2001.477,2140.803 1995.580 C 2215.765 1979.947,2279.947 1915.765,2295.580 1840.803 C 2301.819 1810.886,2301.819 589.114,2295.580 559.197 C 2279.683 482.966,2213.826 418.136,2138.265 404.335 C 2109.158 399.019,1886.313 399.310,1858.041 404.701 " fill="#1D1E23" stroke="none" fill-rule="evenodd"/></svg>