<svg viewBox="0 0 2400 2400" fill="none" xmlns="http://www.w3.org/2000/svg"><path d="M279.661 403.699 C 250.734 405.747,240.422 408.552,214.229 421.497 C 173.113 441.818,141.874 473.000,121.663 513.893 C 108.061 541.415,106.149 549.138,103.484 587.325 C 99.600 642.986,99.600 1757.014,103.484 1812.675 C 106.149 1850.862,108.061 1858.585,121.663 1886.107 C 149.664 1942.763,207.050 1986.476,266.000 1996.054 C 297.157 2001.117,502.843 2001.117,534.000 1996.054 C 592.950 1986.476,650.336 1942.763,678.337 1886.107 C 691.939 1858.585,693.851 1850.862,696.516 1812.675 C 700.400 1757.014,700.400 642.986,696.516 587.325 C 693.851 549.138,691.939 541.415,678.337 513.893 C 658.373 473.499,626.813 441.781,587.010 422.109 C 561.802 409.651,550.998 406.805,517.578 403.820 C 474.094 399.937,333.810 399.865,279.661 403.699 M1079.661 403.699 C 1050.734 405.747,1040.422 408.552,1014.229 421.497 C 973.113 441.818,941.874 473.000,921.663 513.893 C 908.061 541.415,906.149 549.138,903.484 587.325 C 899.600 642.986,899.600 1757.014,903.484 1812.675 C 906.149 1850.862,908.061 1858.585,921.663 1886.107 C 949.664 1942.763,1007.050 1986.476,1066.000 1996.054 C 1097.157 2001.117,1302.843 2001.117,1334.000 1996.054 C 1392.950 1986.476,1450.336 1942.763,1478.337 1886.107 C 1491.939 1858.585,1493.851 1850.862,1496.516 1812.675 C 1500.400 1757.014,1500.400 642.986,1496.516 587.325 C 1493.851 549.138,1491.939 541.415,1478.337 513.893 C 1458.373 473.499,1426.813 441.781,1387.010 422.109 C 1361.802 409.651,1350.998 406.805,1317.578 403.820 C 1274.094 399.937,1133.810 399.865,1079.661 403.699 M1879.661 403.699 C 1850.734 405.747,1840.422 408.552,1814.229 421.497 C 1773.113 441.818,1741.874 473.000,1721.663 513.893 C 1708.061 541.415,1706.149 549.138,1703.484 587.325 C 1699.600 642.986,1699.600 1757.014,1703.484 1812.675 C 1706.149 1850.862,1708.061 1858.585,1721.663 1886.107 C 1749.664 1942.763,1807.050 1986.476,1866.000 1996.054 C 1897.157 2001.117,2102.843 2001.117,2134.000 1996.054 C 2192.950 1986.476,2250.336 1942.763,2278.337 1886.107 C 2291.939 1858.585,2293.851 1850.862,2296.516 1812.675 C 2300.400 1757.014,2300.400 642.986,2296.516 587.325 C 2293.851 549.138,2291.939 541.415,2278.337 513.893 C 2258.373 473.499,2226.813 441.781,2187.010 422.109 C 2161.802 409.651,2150.998 406.805,2117.578 403.820 C 2074.094 399.937,1933.810 399.865,1879.661 403.699 " fill="#1D1E23" stroke="none" fill-rule="evenodd"/></svg>