<svg viewBox="0 0 2400 2400" fill="none" xmlns="http://www.w3.org/2000/svg"><path d="M364.342 306.868 C 354.630 310.299,339.161 320.628,329.967 329.823 C 298.215 361.574,300.000 333.573,300.000 800.000 C 300.000 1266.311,298.228 1238.438,329.895 1270.105 C 361.040 1301.250,345.562 1300.000,700.000 1300.000 C 1054.438 1300.000,1038.960 1301.250,1070.105 1270.105 C 1101.772 1238.438,1100.000 1266.311,1100.000 800.000 C 1100.000 333.689,1101.772 361.562,1070.105 329.895 C 1038.912 298.701,1054.732 299.960,698.287 300.316 C 422.569 300.591,379.735 301.432,364.342 306.868 M1364.342 306.868 C 1354.630 310.299,1339.161 320.628,1329.967 329.823 C 1299.673 360.117,1300.000 357.166,1300.000 600.000 C 1300.000 842.749,1299.684 839.895,1329.895 870.105 C 1361.040 901.250,1345.562 900.000,1700.000 900.000 C 2054.438 900.000,2038.960 901.250,2070.105 870.105 C 2100.316 839.895,2100.000 842.749,2100.000 600.000 C 2100.000 357.251,2100.316 360.105,2070.105 329.895 C 2038.912 298.701,2054.732 299.960,1698.287 300.316 C 1422.569 300.591,1379.735 301.432,1364.342 306.868 M1364.342 1106.868 C 1354.630 1110.299,1339.161 1120.628,1329.967 1129.823 C 1298.215 1161.574,1300.000 1133.573,1300.000 1600.000 C 1300.000 2066.311,1298.228 2038.438,1329.895 2070.105 C 1361.040 2101.250,1345.562 2100.000,1700.000 2100.000 C 2054.438 2100.000,2038.960 2101.250,2070.105 2070.105 C 2101.772 2038.438,2100.000 2066.311,2100.000 1600.000 C 2100.000 1133.689,2101.772 1161.562,2070.105 1129.895 C 2038.912 1098.701,2054.732 1099.960,1698.287 1100.316 C 1422.569 1100.591,1379.735 1101.432,1364.342 1106.868 M364.342 1506.868 C 354.630 1510.299,339.161 1520.628,329.967 1529.823 C 299.673 1560.117,300.000 1557.166,300.000 1800.000 C 300.000 2042.749,299.684 2039.895,329.895 2070.105 C 361.040 2101.250,345.562 2100.000,700.000 2100.000 C 1054.438 2100.000,1038.960 2101.250,1070.105 2070.105 C 1100.316 2039.895,1100.000 2042.749,1100.000 1800.000 C 1100.000 1557.251,1100.316 1560.105,1070.105 1529.895 C 1038.912 1498.701,1054.732 1499.960,698.287 1500.316 C 422.569 1500.591,379.735 1501.432,364.342 1506.868 " fill="#1D1E23" stroke="none" fill-rule="evenodd"/></svg>