<svg viewBox="0 0 2400 2400" fill="none" xmlns="http://www.w3.org/2000/svg"><path d="M426.000 307.812 C 354.816 310.432,345.450 313.242,324.926 338.142 C 318.439 346.011,310.938 359.771,308.257 368.718 C 301.616 390.884,301.501 1207.864,308.135 1232.502 C 314.310 1255.435,343.434 1285.744,365.121 1291.807 C 389.614 1298.654,801.836 1302.099,933.651 1296.559 C 1033.771 1292.350,1037.813 1291.863,1052.327 1282.258 C 1081.106 1263.214,1088.733 1248.432,1093.313 1202.827 C 1099.855 1137.680,1099.358 399.908,1092.753 371.175 C 1088.262 351.642,1084.427 345.537,1066.149 328.833 L 1044.793 309.314 879.397 306.662 C 697.379 303.744,524.645 304.182,426.000 307.812 M1488.000 307.936 C 1380.896 309.690,1360.200 310.993,1350.000 316.620 C 1335.748 324.482,1325.005 335.873,1309.860 359.183 L 1298.695 376.365 1301.292 600.178 C 1303.325 775.358,1305.073 826.817,1309.338 836.996 C 1317.665 856.867,1334.972 875.246,1357.553 888.198 L 1378.000 899.925 1699.159 899.962 C 2017.125 900.000,2020.482 899.917,2036.714 891.636 C 2045.732 887.035,2061.715 874.666,2072.233 864.148 C 2087.789 848.592,2091.947 841.386,2094.525 825.512 C 2096.268 814.781,2097.763 706.835,2097.847 585.633 L 2098.000 365.266 2083.412 347.462 C 2075.388 337.670,2061.888 324.989,2053.412 319.282 L 2038.000 308.905 1826.000 307.388 C 1709.400 306.554,1557.300 306.800,1488.000 307.936 M1426.000 1107.812 C 1354.816 1110.432,1345.450 1113.242,1324.926 1138.142 C 1318.439 1146.011,1310.938 1159.771,1308.257 1168.718 C 1301.616 1190.884,1301.501 2007.864,1308.135 2032.502 C 1314.310 2055.435,1343.434 2085.744,1365.121 2091.807 C 1389.614 2098.654,1801.836 2102.099,1933.651 2096.559 C 2033.771 2092.350,2037.813 2091.863,2052.327 2082.258 C 2081.106 2063.214,2088.733 2048.432,2093.313 2002.827 C 2099.855 1937.680,2099.358 1199.908,2092.753 1171.175 C 2088.262 1151.642,2084.427 1145.537,2066.149 1128.833 L 2044.793 1109.314 1879.397 1106.662 C 1697.379 1103.744,1524.645 1104.182,1426.000 1107.812 M488.000 1507.936 C 380.896 1509.690,360.200 1510.993,350.000 1516.620 C 335.748 1524.482,325.005 1535.873,309.860 1559.183 L 298.695 1576.365 301.292 1800.178 C 303.325 1975.358,305.073 2026.817,309.338 2036.996 C 317.665 2056.867,334.972 2075.246,357.553 2088.198 L 378.000 2099.925 699.159 2099.962 C 1017.125 2100.000,1020.482 2099.917,1036.714 2091.636 C 1045.732 2087.035,1061.715 2074.666,1072.233 2064.148 C 1087.789 2048.592,1091.947 2041.386,1094.525 2025.512 C 1096.268 2014.781,1097.763 1906.835,1097.847 1785.633 L 1098.000 1565.266 1083.412 1547.462 C 1075.388 1537.670,1061.888 1524.989,1053.412 1519.282 L 1038.000 1508.905 826.000 1507.388 C 709.400 1506.554,557.300 1506.800,488.000 1507.936 " fill="#1D1E23" stroke="none" fill-rule="evenodd"/></svg>