<svg viewBox="0 0 2400 2400" fill="none" xmlns="http://www.w3.org/2000/svg"><path d="M401.892 303.514 C 363.334 305.904,360.971 306.597,340.773 321.428 C 314.061 341.042,308.460 352.259,303.589 395.891 C 297.302 452.196,300.948 1217.678,307.599 1238.000 C 314.429 1258.868,342.961 1286.174,364.874 1292.812 C 389.847 1300.377,1010.153 1300.377,1035.126 1292.812 C 1058.577 1285.708,1085.771 1258.832,1092.609 1236.000 C 1100.564 1209.438,1100.564 390.562,1092.609 364.000 C 1086.067 342.157,1059.015 314.622,1037.177 307.578 C 1025.883 303.935,947.799 302.471,732.000 301.855 C 572.500 301.400,423.951 302.146,401.892 303.514 M1401.892 303.514 C 1363.497 305.894,1360.904 306.646,1341.189 321.122 C 1327.869 330.903,1317.311 342.912,1311.298 355.122 L 1302.000 374.000 1302.000 598.000 C 1302.000 778.134,1303.080 825.059,1307.515 837.620 C 1315.105 859.117,1343.252 886.279,1364.645 892.750 C 1378.343 896.894,1449.013 898.000,1700.000 898.000 C 1950.987 898.000,2021.657 896.894,2035.355 892.750 C 2056.748 886.279,2084.895 859.117,2092.485 837.620 C 2096.918 825.065,2098.000 778.434,2098.000 600.000 C 2098.000 421.566,2096.918 374.935,2092.485 362.380 C 2085.329 342.110,2056.987 313.944,2037.405 307.641 C 2025.835 303.917,1949.809 302.477,1732.000 301.855 C 1572.500 301.400,1423.951 302.146,1401.892 303.514 M1401.892 1103.514 C 1363.334 1105.904,1360.971 1106.597,1340.773 1121.428 C 1314.061 1141.042,1308.460 1152.259,1303.589 1195.891 C 1297.302 1252.196,1300.948 2017.678,1307.599 2038.000 C 1314.429 2058.868,1342.961 2086.174,1364.874 2092.812 C 1389.847 2100.377,2010.153 2100.377,2035.126 2092.812 C 2058.577 2085.708,2085.771 2058.832,2092.609 2036.000 C 2100.564 2009.438,2100.564 1190.562,2092.609 1164.000 C 2086.067 1142.157,2059.015 1114.622,2037.177 1107.578 C 2025.883 1103.935,1947.799 1102.471,1732.000 1101.855 C 1572.500 1101.400,1423.951 1102.146,1401.892 1103.514 M401.892 1503.514 C 363.497 1505.894,360.904 1506.646,341.189 1521.122 C 327.869 1530.903,317.311 1542.912,311.298 1555.122 L 302.000 1574.000 302.000 1798.000 C 302.000 1978.134,303.080 2025.059,307.515 2037.620 C 315.105 2059.117,343.252 2086.279,364.645 2092.750 C 378.343 2096.894,449.013 2098.000,700.000 2098.000 C 950.987 2098.000,1021.657 2096.894,1035.355 2092.750 C 1056.748 2086.279,1084.895 2059.117,1092.485 2037.620 C 1096.918 2025.065,1098.000 1978.434,1098.000 1800.000 C 1098.000 1621.566,1096.918 1574.935,1092.485 1562.380 C 1085.329 1542.110,1056.987 1513.944,1037.405 1507.641 C 1025.835 1503.917,949.809 1502.477,732.000 1501.855 C 572.500 1501.400,423.951 1502.146,401.892 1503.514 " fill="#1D1E23" stroke="none" fill-rule="evenodd"/></svg>