<svg viewBox="0 0 2400 2400" fill="none" xmlns="http://www.w3.org/2000/svg"><path d="M363.662 309.407 C 343.796 316.605,321.166 335.493,313.781 351.040 C 300.371 379.271,299.037 430.425,301.295 830.000 C 302.783 1093.452,304.927 1226.591,307.833 1236.000 C 312.809 1252.116,323.498 1265.134,345.551 1281.940 L 361.102 1293.790 465.551 1297.201 C 595.940 1301.459,1016.567 1297.666,1036.349 1292.054 C 1055.250 1286.692,1086.631 1255.468,1091.972 1236.711 C 1097.605 1216.930,1101.562 657.173,1097.254 489.624 L 1093.954 361.249 1082.652 344.941 C 1076.437 335.972,1063.847 323.541,1054.676 317.317 L 1038.000 306.000 708.000 305.107 C 445.655 304.396,375.061 305.278,363.662 309.407 M1362.462 309.889 C 1342.826 316.888,1318.365 340.589,1307.398 363.243 C 1299.015 380.561,1298.952 382.853,1300.866 603.364 C 1302.484 789.666,1303.782 828.303,1308.825 840.112 C 1317.143 859.596,1352.997 890.997,1371.292 894.823 C 1390.570 898.854,2009.541 898.830,2028.844 894.797 C 2048.282 890.736,2085.697 856.771,2092.698 836.831 C 2100.260 815.295,2100.260 384.705,2092.698 363.169 C 2089.683 354.582,2078.470 340.093,2066.066 328.756 C 2048.858 313.029,2040.925 308.666,2025.762 306.588 C 2015.379 305.164,1865.385 304.079,1692.442 304.176 C 1435.082 304.319,1375.179 305.356,1362.462 309.889 M1363.662 1109.407 C 1343.796 1116.605,1321.166 1135.493,1313.781 1151.040 C 1300.371 1179.271,1299.037 1230.425,1301.295 1630.000 C 1302.783 1893.452,1304.927 2026.591,1307.833 2036.000 C 1312.809 2052.116,1323.498 2065.134,1345.551 2081.940 L 1361.102 2093.790 1465.551 2097.201 C 1595.940 2101.459,2016.567 2097.666,2036.349 2092.054 C 2055.250 2086.692,2086.631 2055.468,2091.972 2036.711 C 2097.605 2016.930,2101.562 1457.173,2097.254 1289.624 L 2093.954 1161.249 2082.652 1144.941 C 2076.437 1135.972,2063.847 1123.541,2054.676 1117.317 L 2038.000 1106.000 1708.000 1105.107 C 1445.655 1104.396,1375.061 1105.278,1363.662 1109.407 M362.462 1509.889 C 342.826 1516.888,318.365 1540.589,307.398 1563.243 C 299.015 1580.561,298.952 1582.853,300.866 1803.364 C 302.484 1989.666,303.782 2028.303,308.825 2040.112 C 317.143 2059.596,352.997 2090.997,371.292 2094.823 C 390.570 2098.854,1009.541 2098.830,1028.844 2094.797 C 1048.282 2090.736,1085.697 2056.771,1092.698 2036.831 C 1100.260 2015.295,1100.260 1584.705,1092.698 1563.169 C 1089.683 1554.582,1078.470 1540.093,1066.066 1528.756 C 1048.858 1513.029,1040.925 1508.666,1025.762 1506.588 C 1015.379 1505.164,865.385 1504.079,692.442 1504.176 C 435.082 1504.319,375.179 1505.356,362.462 1509.889 " fill="#1D1E23" stroke="none" fill-rule="evenodd"/></svg>