<svg viewBox="0 0 2400 2400" fill="none" xmlns="http://www.w3.org/2000/svg"><path d="M1050.920 214.235 C 966.802 227.326,872.611 255.504,790.526 292.132 C 548.270 400.231,350.343 611.983,262.121 857.444 C 177.255 1093.568,180.890 1337.421,272.697 1567.099 C 357.407 1779.020,519.807 1965.347,710.000 2068.830 C 804.085 2120.022,866.993 2144.767,966.846 2169.863 C 1054.834 2191.976,1090.203 2196.055,1194.881 2196.161 C 1298.719 2196.266,1335.332 2192.837,1408.000 2176.204 C 1560.892 2141.208,1696.294 2077.624,1812.000 1986.487 C 2041.196 1805.960,2174.407 1555.363,2196.258 1263.617 C 2214.486 1020.254,2128.022 757.770,1964.627 560.437 C 1802.499 364.635,1553.773 232.284,1310.000 212.101 C 1241.508 206.430,1093.219 207.651,1050.920 214.235 M1511.924 1118.145 C 1525.346 1131.569,1528.227 1148.684,1520.064 1166.507 C 1506.437 1196.263,1393.563 1313.042,1264.352 1431.066 C 1207.480 1483.014,1204.907 1484.311,1184.928 1471.089 C 1149.041 1447.340,905.679 1206.936,883.555 1173.379 C 870.442 1153.490,877.366 1115.408,894.946 1110.730 C 898.826 1109.698,1037.401 1109.111,1202.890 1109.427 C 1499.849 1109.993,1503.887 1110.106,1511.924 1118.145 " fill="#1D1E23" stroke="none" fill-rule="evenodd"/></svg>