<svg viewBox="0 0 2400 2400" fill="none" xmlns="http://www.w3.org/2000/svg"><path d="M1092.000 208.195 C 959.583 217.612,774.985 284.088,650.000 367.365 C 586.905 409.405,555.098 435.257,502.648 487.127 C 363.854 624.385,276.854 775.163,230.161 959.365 C 205.012 1058.578,196.820 1154.108,203.644 1268.604 C 217.530 1501.574,324.411 1736.163,494.112 1906.139 C 648.455 2060.734,836.826 2154.470,1066.000 2190.721 C 1127.908 2200.514,1272.321 2200.465,1336.000 2190.631 C 1552.475 2157.198,1739.395 2065.492,1891.594 1918.045 C 1952.477 1859.063,1990.768 1813.407,2034.144 1748.075 C 2183.778 1522.703,2235.142 1240.028,2173.711 980.000 C 2081.156 588.228,1778.378 295.484,1387.331 219.679 C 1363.443 215.049,1313.780 210.156,1268.185 207.941 C 1181.755 203.743,1154.037 203.783,1092.000 208.195 M1501.526 1109.544 C 1512.056 1113.944,1518.059 1119.952,1522.468 1130.503 C 1533.118 1155.992,1527.908 1167.259,1482.454 1217.037 C 1438.653 1265.006,1256.640 1443.206,1230.336 1463.873 C 1205.525 1483.368,1199.186 1483.348,1172.953 1463.692 C 1135.269 1435.456,876.961 1175.672,873.798 1162.827 C 870.665 1150.107,880.710 1119.711,890.822 1111.315 C 899.907 1103.771,1036.416 1100.582,1284.382 1102.120 C 1455.672 1103.183,1489.031 1104.324,1501.526 1109.544 " fill="#1D1E23" stroke="none" fill-rule="evenodd"/></svg>