<svg viewBox="0 0 2400 2400" fill="none" xmlns="http://www.w3.org/2000/svg"><path d="M1118.000 206.424 C 956.947 218.282,787.043 277.650,644.362 371.923 C 494.452 470.972,358.807 630.799,288.119 791.674 C 266.998 839.740,242.361 911.165,230.085 959.915 C 182.920 1147.222,193.856 1354.889,260.483 1537.119 C 334.478 1739.503,470.551 1912.980,650.000 2033.707 C 696.182 2064.777,800.010 2116.962,857.739 2138.120 C 908.419 2156.694,1005.333 2181.431,1062.000 2190.256 C 1129.444 2200.759,1285.600 2199.715,1350.000 2188.330 C 1565.633 2150.209,1739.801 2062.760,1894.450 1914.965 C 2167.011 1654.483,2267.301 1255.006,2149.937 897.307 C 2068.516 649.154,1906.900 452.080,1682.000 326.706 C 1573.429 266.182,1435.324 222.100,1324.000 212.437 C 1271.207 207.854,1147.583 204.246,1118.000 206.424 M1504.600 1111.460 C 1517.979 1118.351,1529.906 1143.650,1525.861 1156.560 C 1520.753 1172.865,1502.181 1196.497,1457.377 1243.699 C 1391.450 1313.154,1228.551 1467.867,1214.083 1474.766 C 1202.485 1480.297,1200.078 1480.246,1188.431 1474.223 C 1162.096 1460.604,902.643 1204.517,879.615 1169.412 C 868.195 1152.004,879.363 1114.075,897.073 1110.124 C 916.957 1105.688,949.139 1105.232,1216.000 1105.608 C 1442.455 1105.927,1495.965 1107.012,1504.600 1111.460 " fill="#1D1E23" stroke="none" fill-rule="evenodd"/></svg>