<svg viewBox="0 0 2400 2400" fill="none" xmlns="http://www.w3.org/2000/svg"><path d="M1112.000 203.923 C 833.630 231.768,590.463 362.388,419.326 576.000 C 147.365 915.458,126.704 1391.677,368.248 1753.288 C 676.969 2215.470,1294.618 2338.595,1756.000 2029.929 C 2215.492 1722.528,2337.727 1104.086,2029.929 644.000 C 1872.846 409.198,1631.891 256.219,1349.288 211.869 C 1290.914 202.708,1165.973 198.524,1112.000 203.923 M1501.863 1105.685 C 1529.338 1117.165,1536.575 1155.214,1516.454 1182.400 C 1495.245 1211.056,1230.533 1470.475,1217.067 1475.801 C 1188.810 1486.975,1188.865 1487.018,1024.922 1322.871 L 872.000 1169.759 872.000 1151.186 C 872.000 1131.238,884.908 1110.658,901.674 1103.875 C 906.253 1102.023,1040.108 1100.393,1199.128 1100.254 C 1440.382 1100.042,1490.510 1100.941,1501.863 1105.685 " fill="#1D1E23" stroke="none" fill-rule="evenodd"/></svg>