<svg viewBox="0 0 2400 2400" fill="none" xmlns="http://www.w3.org/2000/svg"><path d="M710.217 906.673 C 670.448 917.993,641.062 964.523,644.849 1010.180 C 646.308 1027.772,649.657 1035.408,664.153 1054.198 C 690.007 1087.710,834.088 1234.015,1000.000 1395.229 C 1154.089 1544.956,1167.831 1555.878,1202.215 1555.961 C 1231.523 1556.032,1256.114 1539.301,1331.378 1468.080 C 1411.901 1391.884,1616.128 1185.322,1693.320 1102.000 C 1721.854 1071.200,1747.867 1039.700,1751.126 1032.000 C 1759.684 1011.779,1758.712 980.997,1748.909 961.781 C 1738.174 940.739,1709.326 914.378,1690.085 908.028 C 1669.030 901.079,1627.704 904.869,1611.303 915.253 C 1604.185 919.760,1508.583 1012.064,1398.853 1120.374 L 1199.344 1317.300 1064.672 1183.445 C 871.183 991.129,798.686 921.595,783.454 913.718 C 770.033 906.778,725.050 902.450,710.217 906.673 " fill="#1D1E23" stroke="none" fill-rule="evenodd"/></svg>