<svg viewBox="0 0 2400 2400" fill="none" xmlns="http://www.w3.org/2000/svg"><path d="M1168.836 847.702 C 1161.596 849.547,1151.699 854.419,1146.842 858.528 C 1106.461 892.698,981.526 1015.828,831.422 1169.390 C 665.504 1339.131,651.670 1354.343,645.538 1373.796 C 629.373 1425.080,663.858 1484.730,716.512 1496.560 C 741.936 1502.273,773.428 1496.994,791.343 1484.016 C 799.734 1477.938,895.171 1385.176,1003.425 1277.879 L 1200.250 1082.794 1391.125 1272.656 C 1496.106 1377.080,1592.477 1470.364,1605.283 1479.953 C 1624.518 1494.357,1632.360 1497.703,1650.387 1499.198 C 1689.763 1502.464,1728.026 1479.044,1748.468 1439.165 C 1759.256 1418.119,1760.080 1384.893,1750.379 1362.037 C 1745.456 1350.440,1679.396 1282.025,1508.802 1111.849 C 1379.661 983.024,1265.419 870.715,1254.930 862.272 C 1237.696 848.399,1233.269 846.798,1208.930 845.634 C 1194.119 844.926,1176.076 845.856,1168.836 847.702 " fill="#1D1E23" stroke="none" fill-rule="evenodd"/></svg>