<svg viewBox="0 0 2400 2400" fill="none" xmlns="http://www.w3.org/2000/svg"><path d="M710.992 905.532 C 670.918 920.300,643.502 957.121,643.119 996.690 C 642.682 1041.785,631.926 1029.117,887.413 1284.406 C 1016.436 1413.329,1132.300 1526.458,1144.888 1535.802 C 1184.912 1565.513,1219.881 1565.262,1259.567 1534.979 C 1287.870 1513.382,1541.275 1263.032,1658.494 1140.861 C 1740.982 1054.888,1748.349 1046.029,1754.255 1025.714 C 1767.381 980.564,1749.164 939.498,1704.000 912.423 C 1692.864 905.747,1683.373 904.027,1657.600 904.015 C 1628.132 904.001,1623.741 905.057,1609.074 915.682 C 1600.205 922.107,1504.426 1015.139,1396.231 1122.421 L 1199.515 1317.478 1038.757 1157.562 C 839.643 959.490,791.205 913.020,779.034 908.393 C 760.241 901.248,726.472 899.828,710.992 905.532 " fill="#1D1E23" stroke="none" fill-rule="evenodd"/></svg>