<svg viewBox="0 0 2400 2400" fill="none" xmlns="http://www.w3.org/2000/svg"><path d="M1157.186 854.501 C 1135.038 865.421,1007.903 988.491,843.360 1158.292 C 756.108 1248.331,676.739 1331.463,666.984 1343.030 C 636.467 1379.215,633.792 1409.248,657.544 1449.044 C 680.415 1487.365,721.559 1505.766,761.746 1495.647 C 786.969 1489.295,815.169 1463.629,1027.028 1254.190 L 1200.057 1083.138 1375.028 1256.292 C 1617.599 1496.342,1625.888 1503.259,1665.349 1498.586 C 1728.059 1491.159,1773.103 1420.677,1750.188 1365.834 C 1738.931 1338.891,1264.909 864.985,1237.950 853.721 C 1219.540 846.029,1173.465 846.474,1157.186 854.501 " fill="#1D1E23" stroke="none" fill-rule="evenodd"/></svg>