<svg viewBox="0 0 2400 2400" fill="none" xmlns="http://www.w3.org/2000/svg"><path d="M645.456 619.691 C 632.555 628.322,618.751 640.916,614.781 647.679 C 601.055 671.060,599.042 759.437,600.928 1256.000 C 602.478 1664.055,603.511 1727.845,608.766 1740.000 C 615.694 1756.025,646.785 1786.137,663.031 1792.556 C 677.247 1798.173,722.835 1798.140,737.110 1792.502 C 756.472 1784.855,787.526 1752.483,792.788 1734.461 C 798.399 1715.241,800.161 707.743,794.641 674.689 C 787.999 634.912,744.758 604.112,695.456 604.039 C 671.196 604.003,666.893 605.351,645.456 619.691 M1666.186 650.210 C 1643.685 661.943,1617.317 686.423,1470.509 831.873 C 1294.954 1005.804,1158.785 1147.012,1149.730 1164.523 C 1144.924 1173.815,1143.573 1184.859,1144.644 1206.078 L 1146.104 1234.977 1174.052 1266.288 C 1218.439 1316.016,1490.387 1590.011,1575.533 1670.789 C 1618.176 1711.245,1658.676 1747.259,1665.533 1750.819 C 1682.088 1759.415,1718.094 1759.184,1736.676 1750.363 C 1754.975 1741.676,1781.395 1715.341,1790.844 1696.368 C 1802.007 1673.955,1800.402 1638.215,1787.225 1615.729 C 1781.291 1605.605,1689.464 1509.520,1579.911 1398.803 L 1383.248 1200.052 1577.891 1003.026 C 1684.945 894.662,1777.732 798.166,1784.084 788.592 C 1799.346 765.585,1802.524 742.728,1794.362 714.653 C 1785.903 685.557,1771.652 669.388,1742.172 655.442 C 1714.534 642.367,1685.112 640.341,1666.186 650.210 " fill="#1D1E23" stroke="none" fill-rule="evenodd"/></svg>