<svg viewBox="0 0 2400 2400" fill="none" xmlns="http://www.w3.org/2000/svg"><path d="M674.471 604.259 C 654.550 609.180,621.572 633.358,613.505 648.957 C 601.109 672.928,599.640 741.497,600.999 1232.557 C 602.082 1623.946,603.409 1725.205,607.625 1738.000 C 613.484 1755.779,636.931 1779.618,659.354 1790.593 C 679.037 1800.227,720.963 1800.227,740.646 1790.593 C 764.831 1778.755,786.590 1755.882,792.578 1736.000 C 800.589 1709.406,800.612 690.663,792.603 664.098 C 779.844 621.777,722.057 592.505,674.471 604.259 M1675.239 645.805 C 1650.807 652.104,1614.659 686.145,1355.834 946.592 C 1224.423 1078.826,1155.142 1151.390,1150.169 1162.000 C 1140.910 1181.756,1140.479 1216.427,1149.234 1237.037 C 1156.115 1253.234,1436.851 1538.919,1580.788 1676.200 C 1656.756 1748.655,1660.371 1751.510,1681.789 1755.956 C 1713.872 1762.617,1742.472 1753.738,1766.575 1729.636 C 1806.976 1689.234,1810.649 1642.239,1776.706 1600.000 C 1768.751 1590.100,1676.876 1496.103,1572.541 1391.117 L 1382.841 1200.234 1579.773 1001.499 C 1688.085 892.195,1781.097 796.126,1786.466 788.013 C 1806.916 757.111,1801.478 703.393,1775.155 676.292 C 1760.643 661.350,1729.682 645.970,1708.000 642.931 C 1700.300 641.851,1685.557 643.145,1675.239 645.805 " fill="#1D1E23" stroke="none" fill-rule="evenodd"/></svg>