<svg viewBox="0 0 2400 2400" fill="none" xmlns="http://www.w3.org/2000/svg"><path d="M664.342 606.868 C 654.630 610.299,639.161 620.628,629.967 629.823 C 597.881 661.908,600.000 621.598,600.000 1200.000 C 600.000 1778.270,597.894 1738.104,629.895 1770.105 C 669.021 1809.232,730.979 1809.232,770.105 1770.105 C 802.106 1738.104,800.000 1778.270,800.000 1200.000 C 800.000 621.730,802.106 661.896,770.105 629.895 C 742.352 602.141,702.370 593.437,664.342 606.868 M1678.000 643.550 C 1671.400 645.262,1660.600 649.541,1654.000 653.060 C 1647.400 656.579,1531.879 769.830,1397.288 904.729 C 1155.093 1147.476,1152.507 1150.238,1145.976 1173.094 C 1138.880 1197.931,1141.652 1224.430,1153.730 1247.200 C 1156.881 1253.140,1269.830 1368.052,1404.729 1502.561 C 1593.621 1690.906,1653.218 1748.077,1664.000 1751.275 C 1693.723 1760.092,1704.113 1760.535,1726.933 1753.959 C 1745.097 1748.724,1754.321 1742.873,1770.329 1726.433 C 1799.350 1696.629,1806.560 1665.259,1793.480 1625.713 C 1787.602 1607.939,1767.048 1586.028,1584.552 1402.982 L 1382.144 1199.963 1582.657 998.982 C 1692.939 888.442,1786.207 791.947,1789.920 784.550 C 1805.453 753.603,1801.586 710.425,1780.703 681.616 C 1760.083 653.170,1711.025 634.988,1678.000 643.550 " fill="#1D1E23" stroke="none" fill-rule="evenodd"/></svg>