<svg viewBox="0 0 2400 2400" fill="none" xmlns="http://www.w3.org/2000/svg"><path d="M800.000 650.000 L 800.000 800.000 650.000 800.000 L 500.000 800.000 500.000 900.000 L 500.000 1000.000 750.000 1000.000 L 1000.000 1000.000 1000.000 750.000 L 1000.000 500.000 900.000 500.000 L 800.000 500.000 800.000 650.000 M1400.000 750.000 L 1400.000 1000.000 1650.000 1000.000 L 1900.000 1000.000 1900.000 900.000 L 1900.000 800.000 1750.000 800.000 L 1600.000 800.000 1600.000 650.000 L 1600.000 500.000 1500.000 500.000 L 1400.000 500.000 1400.000 750.000 M500.000 1500.000 L 500.000 1600.000 650.000 1600.000 L 800.000 1600.000 800.000 1750.000 L 800.000 1900.000 900.000 1900.000 L 1000.000 1900.000 1000.000 1650.000 L 1000.000 1400.000 750.000 1400.000 L 500.000 1400.000 500.000 1500.000 M1400.000 1650.000 L 1400.000 1900.000 1500.000 1900.000 L 1600.000 1900.000 1600.000 1750.000 L 1600.000 1600.000 1750.000 1600.000 L 1900.000 1600.000 1900.000 1500.000 L 1900.000 1400.000 1650.000 1400.000 L 1400.000 1400.000 1400.000 1650.000 " fill="#1D1E23" stroke="none" fill-rule="evenodd"/></svg>