<svg viewBox="0 0 2400 2400" fill="none" xmlns="http://www.w3.org/2000/svg"><path d="M859.436 511.780 C 838.245 523.367,820.093 543.019,809.431 565.916 C 800.365 585.385,800.077 589.277,800.039 693.000 L 800.000 800.000 757.000 800.114 C 733.350 800.176,680.829 801.916,640.286 803.979 C 569.780 807.568,565.794 808.216,548.676 818.866 C 538.832 824.990,525.204 836.917,518.389 845.371 C 506.523 860.093,506.000 862.314,506.000 898.018 C 506.000 933.050,506.729 936.333,518.112 952.536 C 524.773 962.018,537.735 975.056,546.915 981.508 C 561.812 991.978,568.468 993.641,608.803 996.974 C 633.662 999.028,716.592 999.865,793.093 998.834 L 932.185 996.960 948.303 985.790 C 964.651 974.461,982.509 954.179,992.141 936.000 C 996.349 928.059,997.237 890.579,996.451 754.000 C 995.857 650.699,993.782 575.209,991.255 564.997 C 983.662 534.304,944.308 509.236,898.127 505.676 C 879.103 504.209,870.919 505.501,859.436 511.780 M1461.911 511.241 C 1440.140 521.460,1420.702 541.712,1409.431 565.916 C 1400.380 585.351,1400.089 589.230,1400.399 686.000 C 1400.575 741.000,1401.907 819.598,1403.360 860.662 L 1406.000 935.323 1418.112 952.550 C 1424.773 962.025,1437.423 974.837,1446.223 981.021 C 1461.409 991.695,1465.470 992.456,1526.111 996.008 C 1607.030 1000.747,1723.477 1000.810,1787.610 996.150 C 1833.128 992.843,1838.543 991.588,1853.262 980.925 C 1862.085 974.534,1874.861 961.634,1881.652 952.258 C 1893.223 936.285,1894.000 932.998,1894.000 900.000 C 1894.000 866.935,1893.237 863.726,1881.496 847.394 C 1874.619 837.827,1861.021 825.009,1851.279 818.908 C 1834.429 808.357,1830.067 807.631,1761.783 804.004 C 1722.302 801.907,1670.009 800.148,1645.575 800.095 L 1601.151 800.000 1598.839 691.000 C 1596.428 577.323,1594.009 559.755,1578.177 540.940 C 1553.094 511.131,1494.196 496.086,1461.911 511.241 M609.095 1404.037 C 552.593 1408.871,526.831 1425.102,509.384 1466.858 C 493.566 1504.715,511.821 1558.444,548.106 1580.827 C 574.362 1597.024,598.648 1600.000,704.546 1600.000 L 800.000 1600.000 800.022 1705.000 C 800.036 1769.018,801.764 1816.245,804.450 1826.000 C 811.388 1851.198,848.069 1885.505,877.067 1893.916 C 901.430 1900.983,916.687 1899.744,938.000 1888.970 C 957.668 1879.028,979.828 1859.936,986.359 1847.307 C 995.859 1828.935,1001.275 1704.166,998.210 1574.300 L 995.574 1462.601 979.282 1443.142 C 955.878 1415.189,946.997 1411.819,886.531 1407.940 C 805.113 1402.718,650.022 1400.536,609.095 1404.037 M1510.000 1407.488 C 1476.618 1409.333,1458.186 1412.208,1449.476 1416.927 C 1434.561 1425.009,1416.775 1445.257,1409.641 1462.279 C 1402.790 1478.626,1398.380 1679.117,1402.898 1768.843 C 1406.188 1834.190,1406.532 1836.068,1418.256 1852.748 C 1443.957 1889.318,1493.841 1905.550,1533.719 1890.320 C 1556.165 1881.748,1589.795 1846.596,1595.619 1825.619 C 1598.222 1816.244,1599.964 1768.246,1599.978 1705.556 L 1600.000 1601.112 1707.000 1598.921 C 1834.319 1596.313,1846.702 1593.791,1871.721 1565.368 C 1891.620 1542.761,1897.672 1522.255,1894.522 1488.106 C 1891.784 1458.422,1879.671 1438.094,1853.652 1419.525 L 1838.000 1408.354 1698.000 1406.594 C 1621.000 1405.626,1536.400 1406.028,1510.000 1407.488 " fill="#1D1E23" stroke="none" fill-rule="evenodd"/></svg>