<svg viewBox="0 0 2400 2400" fill="none" xmlns="http://www.w3.org/2000/svg"><path d="M872.308 504.611 C 859.008 507.718,848.955 514.405,831.817 531.543 C 801.570 561.790,800.000 569.992,800.000 697.787 L 800.000 799.180 687.000 800.792 C 561.230 802.585,556.572 803.452,530.979 829.803 C 523.095 837.922,513.403 851.187,509.441 859.282 C 499.694 879.201,499.755 920.922,509.562 940.972 C 519.616 961.528,545.462 986.468,563.239 992.769 C 584.728 1000.384,915.456 1000.317,936.992 992.693 C 956.261 985.871,985.871 956.261,992.693 936.992 C 1000.261 915.613,1000.389 584.735,992.837 563.446 C 977.565 520.397,921.623 493.089,872.308 504.611 M1472.308 504.611 C 1458.998 507.721,1448.951 514.409,1431.749 531.611 C 1399.320 564.040,1399.163 565.213,1400.747 762.981 C 1402.212 945.916,1401.637 942.070,1431.906 971.445 C 1459.390 998.117,1458.426 998.000,1650.000 998.000 C 1841.393 998.000,1841.013 998.046,1867.318 971.741 C 1890.048 949.011,1897.761 930.835,1897.761 900.000 C 1897.761 869.854,1890.359 851.775,1869.021 829.803 C 1843.437 803.461,1838.737 802.585,1713.322 800.795 L 1600.643 799.188 1599.236 686.594 C 1597.687 562.614,1596.764 557.379,1572.109 532.725 C 1545.964 506.579,1508.752 496.097,1472.308 504.611 M600.000 1402.521 C 563.414 1405.588,555.254 1408.523,537.304 1425.069 C 511.400 1448.946,502.299 1468.419,502.283 1500.000 C 502.263 1538.380,521.867 1569.817,558.000 1589.351 C 573.136 1597.533,580.086 1598.069,686.724 1599.276 L 799.448 1600.552 800.724 1713.276 C 801.931 1819.914,802.467 1826.864,810.649 1842.000 C 828.219 1874.500,858.545 1895.189,893.975 1898.846 C 911.014 1900.605,919.214 1899.115,936.792 1891.068 C 962.537 1879.281,985.657 1856.793,992.837 1836.554 C 1000.389 1815.265,1000.261 1484.387,992.693 1463.008 C 985.768 1443.450,955.616 1413.536,936.823 1407.581 C 922.559 1403.060,643.555 1398.869,600.000 1402.521 M1489.736 1403.597 C 1458.254 1406.727,1445.319 1413.841,1422.378 1440.642 C 1400.540 1466.156,1399.274 1479.161,1400.747 1662.981 C 1402.189 1843.100,1401.951 1841.336,1428.404 1867.789 C 1449.759 1889.144,1480.573 1901.473,1506.025 1898.846 C 1541.455 1895.189,1571.781 1874.500,1589.351 1842.000 C 1597.533 1826.864,1598.069 1819.913,1599.276 1713.323 L 1600.552 1600.646 1713.276 1599.237 C 1838.829 1597.669,1843.117 1596.869,1869.021 1570.197 C 1876.905 1562.078,1886.597 1548.813,1890.559 1540.718 C 1900.306 1520.799,1900.245 1479.078,1890.438 1459.028 C 1880.223 1438.142,1853.988 1413.040,1836.610 1407.522 C 1819.850 1402.201,1536.073 1398.990,1489.736 1403.597 " fill="#1D1E23" stroke="none" fill-rule="evenodd"/></svg>