<svg viewBox="0 0 2400 2400" fill="none" xmlns="http://www.w3.org/2000/svg"><path d="M564.342 506.868 C 540.729 515.209,514.918 541.645,506.625 565.983 C 500.881 582.840,500.000 607.306,500.000 750.000 C 500.000 937.051,500.496 940.707,529.895 970.105 C 569.021 1009.232,630.979 1009.232,670.105 970.105 C 697.883 942.328,700.000 930.796,700.000 807.287 L 700.000 700.000 807.287 700.000 C 930.796 700.000,942.328 697.883,970.105 670.105 C 1009.232 630.979,1009.232 569.021,970.105 529.895 C 940.606 500.396,937.316 499.957,748.287 500.316 C 608.462 500.581,579.190 501.624,564.342 506.868 M1464.342 506.868 C 1429.056 519.332,1400.000 561.388,1400.000 600.000 C 1400.000 639.639,1429.089 680.804,1465.983 693.375 C 1482.178 698.894,1503.342 700.000,1592.713 700.000 L 1700.000 700.000 1700.000 807.287 C 1700.000 930.796,1702.117 942.328,1729.895 970.105 C 1769.021 1009.232,1830.979 1009.232,1870.105 970.105 C 1899.504 940.707,1900.000 937.051,1900.000 750.000 C 1900.000 562.949,1899.504 559.293,1870.105 529.895 C 1840.606 500.396,1837.316 499.957,1648.287 500.316 C 1508.462 500.581,1479.190 501.624,1464.342 506.868 M564.342 1406.868 C 540.729 1415.209,514.918 1441.645,506.625 1465.983 C 500.881 1482.840,500.000 1507.306,500.000 1650.000 C 500.000 1837.051,500.496 1840.707,529.895 1870.105 C 559.293 1899.504,562.949 1900.000,750.000 1900.000 C 937.051 1900.000,940.707 1899.504,970.105 1870.105 C 1009.232 1830.979,1009.232 1769.021,970.105 1729.895 C 942.328 1702.117,930.796 1700.000,807.287 1700.000 L 700.000 1700.000 700.000 1592.713 C 700.000 1469.204,697.883 1457.672,670.105 1429.895 C 642.352 1402.141,602.370 1393.437,564.342 1406.868 M1764.342 1406.868 C 1740.729 1415.209,1714.918 1441.645,1706.625 1465.983 C 1701.106 1482.178,1700.000 1503.342,1700.000 1592.713 L 1700.000 1700.000 1592.713 1700.000 C 1469.204 1700.000,1457.672 1702.117,1429.895 1729.895 C 1390.768 1769.021,1390.768 1830.979,1429.895 1870.105 C 1459.293 1899.504,1462.949 1900.000,1650.000 1900.000 C 1837.051 1900.000,1840.707 1899.504,1870.105 1870.105 C 1899.504 1840.707,1900.000 1837.051,1900.000 1650.000 C 1900.000 1462.949,1899.504 1459.293,1870.105 1429.895 C 1842.352 1402.141,1802.370 1393.437,1764.342 1406.868 " fill="#1D1E23" stroke="none" fill-rule="evenodd"/></svg>