<svg viewBox="0 0 2400 2400" fill="none" xmlns="http://www.w3.org/2000/svg"><path d="M849.579 517.000 C 824.663 533.760,809.080 556.527,804.028 583.546 C 801.813 595.396,800.000 648.661,800.000 701.913 L 800.000 798.733 689.000 801.268 C 627.950 802.662,571.475 805.669,563.501 807.951 C 547.460 812.541,514.685 844.693,507.498 862.890 C 501.860 877.165,501.827 922.753,507.444 936.969 C 513.716 952.841,541.914 982.056,559.159 990.547 C 572.854 997.291,587.591 997.852,750.000 997.816 C 912.882 997.780,927.123 997.227,941.068 990.400 C 962.015 980.146,991.056 946.782,994.767 928.708 C 998.793 909.105,998.740 590.199,994.709 570.761 C 987.216 534.636,941.801 504.107,895.452 504.039 C 872.097 504.005,866.580 505.564,849.579 517.000 M1449.579 517.000 C 1423.799 534.342,1409.017 556.529,1403.609 586.000 C 1397.730 618.035,1401.046 915.992,1407.510 936.455 C 1410.191 944.946,1420.893 959.250,1433.445 971.121 C 1450.618 987.363,1458.663 991.987,1474.407 994.666 C 1499.833 998.993,1800.046 999.014,1825.424 994.691 C 1848.122 990.825,1875.675 968.159,1888.690 942.647 C 1899.721 921.026,1899.721 878.910,1888.692 857.532 C 1877.857 836.533,1852.572 812.779,1835.772 807.817 C 1828.197 805.580,1772.250 802.625,1711.444 801.251 L 1600.889 798.752 1598.919 688.376 C 1597.754 623.128,1595.094 572.052,1592.411 563.451 C 1587.102 546.429,1559.023 519.042,1537.781 510.166 C 1529.421 506.673,1511.292 504.000,1495.964 504.000 C 1472.066 504.000,1466.646 505.519,1449.579 517.000 M596.000 1403.847 C 579.500 1405.299,560.417 1409.435,553.594 1413.039 C 537.866 1421.346,516.722 1445.296,509.179 1463.347 C 501.800 1481.008,501.857 1519.128,509.289 1536.916 C 517.365 1556.244,538.435 1578.993,557.621 1589.098 C 573.035 1597.216,580.631 1597.815,686.595 1599.267 L 799.190 1600.810 800.595 1713.405 L 802.000 1826.000 812.996 1844.706 C 832.560 1877.986,869.820 1900.169,905.726 1899.912 C 934.605 1899.705,982.977 1864.548,992.727 1836.679 C 999.587 1817.070,999.715 1479.582,992.869 1463.209 C 986.627 1448.280,961.109 1420.794,946.301 1413.048 C 936.320 1407.828,912.873 1406.044,822.000 1403.589 C 692.509 1400.091,637.982 1400.153,596.000 1403.847 M1514.000 1403.862 C 1460.117 1406.703,1449.470 1410.549,1427.182 1435.218 C 1402.142 1462.935,1401.992 1464.219,1402.077 1650.000 C 1402.132 1771.406,1403.522 1822.565,1407.086 1834.461 C 1414.057 1857.726,1444.449 1885.211,1473.238 1894.286 C 1492.733 1900.431,1498.551 1900.702,1517.918 1896.368 C 1545.444 1890.208,1569.810 1872.223,1585.914 1846.179 L 1598.000 1826.634 1599.405 1713.764 L 1600.809 1600.895 1711.405 1598.922 C 1776.601 1597.759,1827.952 1595.092,1836.499 1592.425 C 1852.540 1587.420,1885.484 1554.880,1892.502 1537.110 C 1899.510 1519.367,1898.174 1475.790,1890.100 1458.776 C 1886.208 1450.574,1874.203 1435.933,1863.423 1426.241 C 1845.756 1410.357,1841.363 1408.405,1818.911 1406.465 C 1778.163 1402.944,1565.794 1401.131,1514.000 1403.862 " fill="#1D1E23" stroke="none" fill-rule="evenodd"/></svg>