<svg viewBox="0 0 2400 2400" fill="none" xmlns="http://www.w3.org/2000/svg"><path d="M589.736 503.597 C 558.254 506.727,545.319 513.841,522.378 540.642 C 500.540 566.156,499.274 579.161,500.747 762.981 C 502.199 944.332,501.853 941.875,529.803 969.021 C 551.775 990.359,569.854 997.761,600.000 997.761 C 630.146 997.761,648.225 990.359,670.197 969.021 C 696.868 943.118,697.669 938.824,699.237 813.322 L 700.645 700.645 813.322 699.237 C 938.824 697.669,943.118 696.868,969.021 670.197 C 976.905 662.078,986.597 648.813,990.559 640.718 C 1000.306 620.799,1000.245 579.078,990.438 559.028 C 980.223 538.142,953.988 513.040,936.610 507.522 C 919.850 502.201,636.073 498.990,589.736 503.597 M1500.000 502.521 C 1463.414 505.588,1455.254 508.523,1437.304 525.069 C 1411.400 548.946,1402.299 568.419,1402.283 600.000 C 1402.263 638.380,1421.867 669.817,1458.000 689.351 C 1473.136 697.533,1480.087 698.069,1586.677 699.276 L 1699.354 700.552 1700.763 813.276 C 1702.331 938.829,1703.131 943.117,1729.803 969.021 C 1737.922 976.905,1751.187 986.597,1759.282 990.559 C 1779.201 1000.306,1820.922 1000.245,1840.972 990.438 C 1861.528 980.384,1886.468 954.538,1892.769 936.761 C 1900.384 915.272,1900.317 584.544,1892.693 563.008 C 1885.768 543.450,1855.616 513.536,1836.823 507.581 C 1822.559 503.060,1543.555 498.869,1500.000 502.521 M572.308 1404.611 C 558.998 1407.721,548.951 1414.409,531.749 1431.611 C 499.320 1464.040,499.163 1465.213,500.747 1662.981 C 502.212 1845.916,501.637 1842.070,531.906 1871.445 C 559.390 1898.117,558.426 1898.000,750.000 1898.000 C 941.393 1898.000,941.013 1898.046,967.318 1871.741 C 990.048 1849.011,997.761 1830.835,997.761 1800.000 C 997.761 1769.854,990.359 1751.775,969.021 1729.803 C 943.437 1703.461,938.737 1702.585,813.322 1700.795 L 700.643 1699.188 699.236 1586.594 C 697.687 1462.614,696.764 1457.379,672.109 1432.725 C 645.964 1406.579,608.752 1396.097,572.308 1404.611 M1772.308 1404.611 C 1759.008 1407.718,1748.955 1414.405,1731.817 1431.543 C 1701.570 1461.790,1700.000 1469.992,1700.000 1597.787 L 1700.000 1699.180 1587.000 1700.792 C 1461.230 1702.585,1456.572 1703.452,1430.979 1729.803 C 1423.095 1737.922,1413.403 1751.187,1409.441 1759.282 C 1399.694 1779.201,1399.755 1820.922,1409.562 1840.972 C 1419.616 1861.528,1445.462 1886.468,1463.239 1892.769 C 1484.728 1900.384,1815.456 1900.317,1836.992 1892.693 C 1856.261 1885.871,1885.871 1856.261,1892.693 1836.992 C 1900.261 1815.613,1900.389 1484.735,1892.837 1463.446 C 1877.565 1420.397,1821.623 1393.089,1772.308 1404.611 " fill="#1D1E23" stroke="none" fill-rule="evenodd"/></svg>