<svg viewBox="0 0 2400 2400" fill="none" xmlns="http://www.w3.org/2000/svg"><path d="M1506.000 503.910 C 1461.670 507.240,1444.008 515.165,1423.722 540.829 C 1406.280 562.894,1402.304 577.853,1404.781 612.091 C 1406.849 640.682,1421.093 663.361,1448.923 682.377 C 1471.622 697.886,1490.480 699.933,1611.000 699.972 L 1700.000 700.000 1700.231 775.000 C 1700.358 816.250,1701.905 870.039,1703.670 894.532 C 1707.252 944.246,1712.429 954.991,1745.385 981.101 C 1760.188 992.829,1764.586 994.117,1793.833 995.293 C 1821.496 996.406,1828.476 995.264,1843.681 987.140 C 1853.405 981.944,1868.705 969.029,1877.681 958.440 L 1894.000 939.187 1896.822 843.119 C 1898.374 790.282,1898.374 705.148,1896.822 653.933 L 1894.000 560.815 1877.791 541.691 C 1849.415 508.213,1849.698 508.276,1709.529 503.966 C 1575.580 499.848,1560.132 499.843,1506.000 503.910 M572.882 508.085 C 543.748 514.106,516.050 539.312,508.004 567.124 C 501.983 587.939,498.689 775.383,502.807 862.824 C 506.198 934.825,506.372 935.840,518.230 952.712 C 538.147 981.051,559.636 993.492,591.807 995.310 C 625.913 997.237,642.342 991.989,665.202 971.866 C 694.666 945.931,696.289 938.199,698.933 811.144 L 701.246 700.000 775.623 699.769 C 816.530 699.642,870.039 698.095,894.532 696.330 C 944.249 692.748,954.998 687.568,981.101 654.610 C 993.519 638.931,994.000 636.951,994.000 601.506 C 994.000 566.984,993.245 563.615,981.888 547.456 C 975.227 537.978,962.024 524.773,952.549 518.112 L 935.321 506.000 762.661 505.274 C 667.697 504.874,582.297 506.140,572.882 508.085 M562.026 1410.035 C 537.436 1423.386,524.306 1436.574,513.310 1458.967 L 502.000 1482.000 502.190 1644.000 C 502.295 1733.100,503.742 1814.464,505.406 1824.808 C 509.114 1847.850,535.954 1879.912,559.385 1889.287 C 579.165 1897.202,766.196 1901.953,866.814 1897.098 C 934.418 1893.835,935.929 1893.566,952.702 1881.777 C 962.093 1875.177,975.227 1862.022,981.888 1852.544 C 993.154 1836.514,994.000 1832.846,994.000 1800.000 C 994.000 1767.154,993.154 1763.486,981.888 1747.456 C 975.227 1737.978,962.401 1725.040,953.387 1718.705 C 937.518 1707.551,934.856 1707.078,869.499 1703.784 C 832.375 1701.913,779.050 1700.297,751.000 1700.191 L 700.000 1700.000 699.769 1625.000 C 699.642 1583.750,698.074 1529.647,696.283 1504.771 C 693.274 1462.954,692.131 1458.428,681.125 1444.771 C 660.705 1419.433,636.240 1407.036,602.955 1405.163 C 581.371 1403.948,570.952 1405.189,562.026 1410.035 M1762.026 1410.033 C 1737.431 1423.391,1724.306 1436.575,1713.310 1458.967 L 1702.000 1482.000 1700.666 1591.000 L 1699.332 1700.000 1650.666 1700.210 C 1623.900 1700.325,1570.750 1701.925,1532.555 1703.765 C 1465.066 1707.016,1462.654 1707.433,1446.935 1718.555 C 1438.040 1724.850,1425.190 1736.917,1418.381 1745.371 C 1406.456 1760.177,1406.000 1762.164,1406.000 1799.371 C 1406.000 1835.806,1406.656 1838.858,1417.552 1853.101 C 1423.905 1861.406,1436.353 1873.944,1445.214 1880.962 C 1460.549 1893.107,1463.555 1893.858,1507.662 1896.557 C 1566.847 1900.180,1727.535 1900.180,1790.509 1896.558 L 1839.018 1893.768 1857.487 1878.635 C 1867.644 1870.311,1880.819 1855.202,1886.763 1845.059 L 1897.571 1826.616 1897.310 1650.308 C 1897.031 1462.112,1896.812 1459.866,1876.746 1438.627 C 1849.983 1410.301,1789.355 1395.190,1762.026 1410.033 " fill="#1D1E23" stroke="none" fill-rule="evenodd"/></svg>