<svg viewBox="0 0 2400 2400" fill="none" xmlns="http://www.w3.org/2000/svg"><path d="M500.000 750.000 L 500.000 1000.000 600.000 1000.000 L 700.000 1000.000 700.000 850.000 L 700.000 700.000 850.000 700.000 L 1000.000 700.000 1000.000 600.000 L 1000.000 500.000 750.000 500.000 L 500.000 500.000 500.000 750.000 M1400.000 600.000 L 1400.000 700.000 1550.000 700.000 L 1700.000 700.000 1700.000 850.000 L 1700.000 1000.000 1800.000 1000.000 L 1900.000 1000.000 1900.000 750.000 L 1900.000 500.000 1650.000 500.000 L 1400.000 500.000 1400.000 600.000 M500.000 1650.000 L 500.000 1900.000 750.000 1900.000 L 1000.000 1900.000 1000.000 1800.000 L 1000.000 1700.000 850.000 1700.000 L 700.000 1700.000 700.000 1550.000 L 700.000 1400.000 600.000 1400.000 L 500.000 1400.000 500.000 1650.000 M1700.000 1550.000 L 1700.000 1700.000 1550.000 1700.000 L 1400.000 1700.000 1400.000 1800.000 L 1400.000 1900.000 1650.000 1900.000 L 1900.000 1900.000 1900.000 1650.000 L 1900.000 1400.000 1800.000 1400.000 L 1700.000 1400.000 1700.000 1550.000 " fill="#1D1E23" stroke="none" fill-rule="evenodd"/></svg>