<svg viewBox="0 0 2400 2400" fill="none" xmlns="http://www.w3.org/2000/svg"><path d="M364.342 606.868 C 329.056 619.332,300.000 661.388,300.000 700.000 C 300.000 724.160,311.933 752.144,329.895 770.105 C 362.428 802.639,285.628 800.000,1200.000 800.000 C 2114.372 800.000,2037.572 802.639,2070.105 770.105 C 2109.232 730.979,2109.232 669.021,2070.105 629.895 C 2037.555 597.344,2114.683 599.961,1198.287 600.316 C 469.667 600.598,380.104 601.301,364.342 606.868 M364.342 1106.868 C 329.056 1119.332,300.000 1161.388,300.000 1200.000 C 300.000 1224.160,311.933 1252.144,329.895 1270.105 C 362.428 1302.639,285.628 1300.000,1200.000 1300.000 C 2114.372 1300.000,2037.572 1302.639,2070.105 1270.105 C 2109.232 1230.979,2109.232 1169.021,2070.105 1129.895 C 2037.555 1097.344,2114.683 1099.961,1198.287 1100.316 C 469.667 1100.598,380.104 1101.301,364.342 1106.868 M364.342 1606.868 C 329.056 1619.332,300.000 1661.388,300.000 1700.000 C 300.000 1724.160,311.933 1752.144,329.895 1770.105 C 362.428 1802.639,285.628 1800.000,1200.000 1800.000 C 2114.372 1800.000,2037.572 1802.639,2070.105 1770.105 C 2109.232 1730.979,2109.232 1669.021,2070.105 1629.895 C 2037.555 1597.344,2114.683 1599.961,1198.287 1600.316 C 469.667 1600.598,380.104 1601.301,364.342 1606.868 " fill="#1D1E23" stroke="none" fill-rule="evenodd"/></svg>