<svg viewBox="0 0 2400 2400" fill="none" xmlns="http://www.w3.org/2000/svg"><path d="M740.502 603.804 L 355.003 606.000 337.387 626.000 C 301.417 666.838,294.292 700.240,312.938 740.618 C 324.977 766.691,340.248 782.395,359.494 788.494 C 393.911 799.400,1938.820 802.263,2017.800 791.567 C 2056.266 786.357,2067.335 778.823,2083.769 746.660 C 2106.364 702.442,2099.874 663.278,2064.217 628.674 C 2049.488 614.381,2044.902 612.334,2022.827 610.205 C 1994.636 607.485,1302.939 599.643,1196.000 600.830 C 1157.500 601.258,952.526 602.596,740.502 603.804 M740.502 1103.804 L 355.003 1106.000 337.387 1126.000 C 300.877 1167.450,293.945 1201.367,313.721 1241.788 C 330.688 1276.467,342.496 1286.667,370.248 1290.618 C 383.312 1292.478,761.200 1294.000,1210.000 1294.000 C 1869.275 1294.000,2029.309 1292.998,2043.226 1288.785 C 2057.643 1284.420,2062.988 1279.647,2076.000 1259.515 C 2084.551 1246.285,2093.614 1226.132,2096.141 1214.730 C 2100.211 1196.364,2099.750 1191.383,2092.097 1171.045 C 2086.665 1156.610,2076.880 1141.512,2065.732 1130.364 C 2049.519 1114.150,2045.872 1112.431,2023.003 1110.224 C 1994.694 1107.491,1303.361 1099.638,1196.000 1100.830 C 1157.500 1101.258,952.526 1102.596,740.502 1103.804 M740.502 1603.804 L 355.003 1606.000 337.387 1626.000 C 300.877 1667.450,293.945 1701.367,313.721 1741.788 C 330.688 1776.467,342.496 1786.667,370.248 1790.618 C 383.312 1792.478,761.200 1794.000,1210.000 1794.000 C 1869.275 1794.000,2029.309 1792.998,2043.226 1788.785 C 2057.643 1784.420,2062.988 1779.647,2076.000 1759.515 C 2084.551 1746.285,2093.614 1726.132,2096.141 1714.730 C 2100.211 1696.364,2099.750 1691.383,2092.097 1671.045 C 2086.665 1656.610,2076.880 1641.512,2065.732 1630.364 C 2049.519 1614.150,2045.872 1612.431,2023.003 1610.224 C 1994.694 1607.491,1303.361 1599.638,1196.000 1600.830 C 1157.500 1601.258,952.526 1602.596,740.502 1603.804 " fill="#1D1E23" stroke="none" fill-rule="evenodd"/></svg>