<svg viewBox="0 0 2400 2400" fill="none" xmlns="http://www.w3.org/2000/svg"><path d="M680.000 203.884 L 342.000 206.000 316.000 219.557 C 279.799 238.433,235.666 283.269,219.698 317.391 C 183.950 393.782,199.588 476.140,261.668 538.425 C 290.799 567.652,309.503 579.443,347.434 592.493 C 368.501 599.741,397.867 600.000,1200.000 600.000 C 2002.133 600.000,2031.499 599.741,2052.566 592.493 C 2090.497 579.443,2109.201 567.652,2138.332 538.425 C 2203.257 473.286,2216.939 394.236,2177.412 312.647 C 2162.214 281.278,2126.250 245.003,2089.495 223.970 L 2058.093 206.000 1758.046 203.439 C 1426.877 200.611,1186.796 200.711,680.000 203.884 M680.000 1003.884 L 342.000 1006.000 316.000 1019.557 C 279.799 1038.433,235.666 1083.269,219.698 1117.391 C 183.950 1193.782,199.588 1276.140,261.668 1338.425 C 290.799 1367.652,309.503 1379.443,347.434 1392.493 C 368.501 1399.741,397.867 1400.000,1200.000 1400.000 C 2002.133 1400.000,2031.499 1399.741,2052.566 1392.493 C 2090.497 1379.443,2109.201 1367.652,2138.332 1338.425 C 2203.257 1273.286,2216.939 1194.236,2177.412 1112.647 C 2162.214 1081.278,2126.250 1045.003,2089.495 1023.970 L 2058.093 1006.000 1758.046 1003.439 C 1426.877 1000.611,1186.796 1000.711,680.000 1003.884 M680.000 1803.884 L 342.000 1806.000 316.000 1819.557 C 279.799 1838.433,235.666 1883.269,219.698 1917.391 C 183.950 1993.782,199.588 2076.140,261.668 2138.425 C 290.799 2167.652,309.503 2179.443,347.434 2192.493 C 368.501 2199.741,397.867 2200.000,1200.000 2200.000 C 2002.133 2200.000,2031.499 2199.741,2052.566 2192.493 C 2090.497 2179.443,2109.201 2167.652,2138.332 2138.425 C 2203.257 2073.286,2216.939 1994.236,2177.412 1912.647 C 2162.214 1881.278,2126.250 1845.003,2089.495 1823.970 L 2058.093 1806.000 1758.046 1803.439 C 1426.877 1800.611,1186.796 1800.711,680.000 1803.884 " fill="#1D1E23" stroke="none" fill-rule="evenodd"/></svg>