<svg viewBox="0 0 2400 2400" fill="none" xmlns="http://www.w3.org/2000/svg"><path d="M365.296 606.720 C 342.024 609.912,307.269 656.150,301.628 691.422 C 296.286 724.833,326.402 776.144,358.935 789.060 C 371.274 793.959,410.185 795.489,574.000 797.512 C 684.000 798.871,832.799 798.636,904.664 796.991 L 1035.327 794.000 1052.552 781.888 C 1062.026 775.227,1075.227 762.022,1081.888 752.544 C 1093.154 736.514,1094.000 732.846,1094.000 700.000 C 1094.000 667.154,1093.154 663.486,1081.888 647.456 C 1075.227 637.978,1062.023 624.773,1052.547 618.112 L 1035.317 606.000 706.658 605.489 C 525.896 605.208,372.283 605.762,365.296 606.720 M365.296 1106.720 C 342.024 1109.912,307.269 1156.150,301.628 1191.422 C 296.286 1224.833,326.402 1276.144,358.935 1289.060 C 371.274 1293.959,410.185 1295.489,574.000 1297.512 C 684.000 1298.871,832.799 1298.636,904.664 1296.991 L 1035.327 1294.000 1052.552 1281.888 C 1062.026 1275.227,1075.227 1262.022,1081.888 1252.544 C 1093.154 1236.514,1094.000 1232.846,1094.000 1200.000 C 1094.000 1167.154,1093.154 1163.486,1081.888 1147.456 C 1075.227 1137.978,1062.023 1124.773,1052.547 1118.112 L 1035.317 1106.000 706.658 1105.489 C 525.896 1105.208,372.283 1105.762,365.296 1106.720 M365.296 1606.720 C 342.024 1609.912,307.269 1656.150,301.628 1691.422 C 296.286 1724.833,326.402 1776.144,358.935 1789.060 C 371.274 1793.959,410.185 1795.489,574.000 1797.512 C 684.000 1798.871,832.799 1798.636,904.664 1796.991 L 1035.327 1794.000 1052.552 1781.888 C 1062.026 1775.227,1075.227 1762.022,1081.888 1752.544 C 1093.154 1736.514,1094.000 1732.846,1094.000 1700.000 C 1094.000 1667.154,1093.154 1663.486,1081.888 1647.456 C 1075.227 1637.978,1062.023 1624.773,1052.547 1618.112 L 1035.317 1606.000 706.658 1605.489 C 525.896 1605.208,372.283 1605.762,365.296 1606.720 " fill="#1D1E23" stroke="none" fill-rule="evenodd"/></svg>