<svg viewBox="0 0 2400 2400" fill="none" xmlns="http://www.w3.org/2000/svg"><path d="M358.041 204.701 C 270.663 221.363,200.000 308.685,200.000 400.000 C 200.000 492.011,268.990 576.768,359.197 595.580 C 389.211 601.839,2010.789 601.839,2040.803 595.580 C 2131.010 576.768,2200.000 492.011,2200.000 400.000 C 2200.000 306.753,2129.049 220.917,2038.265 204.335 C 2007.531 198.722,387.547 199.074,358.041 204.701 M358.041 1004.701 C 270.663 1021.363,200.000 1108.685,200.000 1200.000 C 200.000 1292.011,268.990 1376.768,359.197 1395.580 C 389.211 1401.839,2010.789 1401.839,2040.803 1395.580 C 2131.010 1376.768,2200.000 1292.011,2200.000 1200.000 C 2200.000 1106.753,2129.049 1020.917,2038.265 1004.335 C 2007.531 998.722,387.547 999.074,358.041 1004.701 M358.041 1804.701 C 270.663 1821.363,200.000 1908.685,200.000 2000.000 C 200.000 2092.011,268.990 2176.768,359.197 2195.580 C 389.211 2201.839,2010.789 2201.839,2040.803 2195.580 C 2131.010 2176.768,2200.000 2092.011,2200.000 2000.000 C 2200.000 1906.753,2129.049 1820.917,2038.265 1804.335 C 2007.531 1798.722,387.547 1799.074,358.041 1804.701 " fill="#1D1E23" stroke="none" fill-rule="evenodd"/></svg>