<svg viewBox="0 0 2400 2400" fill="none" xmlns="http://www.w3.org/2000/svg"><path d="M1118.000 206.424 C 956.947 218.282,787.043 277.650,644.362 371.923 C 494.452 470.972,358.807 630.799,288.119 791.674 C 266.998 839.740,242.361 911.165,230.085 959.915 C 182.920 1147.222,193.856 1354.889,260.483 1537.119 C 334.478 1739.503,470.551 1912.980,650.000 2033.707 C 696.182 2064.777,800.010 2116.962,857.739 2138.120 C 908.419 2156.694,1005.333 2181.431,1062.000 2190.256 C 1129.444 2200.759,1285.600 2199.715,1350.000 2188.330 C 1565.633 2150.209,1739.801 2062.760,1894.450 1914.965 C 2167.011 1654.483,2267.301 1255.006,2149.937 897.307 C 2068.516 649.154,1906.900 452.080,1682.000 326.706 C 1573.429 266.182,1435.324 222.100,1324.000 212.437 C 1271.207 207.854,1147.583 204.246,1118.000 206.424 M1318.496 412.297 C 1440.631 426.829,1598.264 496.531,1705.754 583.535 C 1764.829 631.352,1827.251 701.125,1868.994 766.000 C 1890.423 799.305,1931.605 880.624,1947.540 921.101 C 1961.707 957.086,1977.603 1017.601,1986.653 1070.000 C 1996.263 1125.637,1996.222 1269.582,1986.580 1326.000 C 1962.110 1469.194,1904.150 1598.379,1816.292 1705.550 C 1785.050 1743.660,1717.219 1808.729,1678.832 1837.412 C 1533.448 1946.046,1346.246 2005.866,1174.000 1998.728 C 1016.201 1992.189,861.530 1938.574,730.966 1845.156 C 713.167 1832.420,677.066 1801.300,650.742 1776.000 C 575.704 1703.880,527.457 1637.271,482.120 1543.205 C 427.485 1429.849,404.000 1326.069,404.000 1198.000 C 404.000 1069.631,429.138 960.751,484.126 850.953 C 597.098 625.373,796.830 470.508,1042.919 417.686 C 1100.756 405.271,1237.042 402.606,1318.496 412.297 M1136.000 607.988 C 1060.932 616.224,962.836 669.736,904.464 734.293 C 847.445 797.354,808.481 886.753,801.299 971.000 L 798.826 1000.000 898.710 1000.000 L 998.593 1000.000 1005.149 969.791 C 1018.785 906.954,1054.397 857.944,1110.746 824.468 L 1138.465 808.000 1200.000 808.000 L 1261.535 808.000 1289.767 824.759 C 1325.634 846.050,1353.950 874.366,1375.241 910.233 L 1392.000 938.465 1391.824 992.233 C 1391.627 1052.812,1388.541 1065.293,1366.261 1095.645 C 1352.036 1115.023,1335.494 1130.642,1232.438 1222.000 C 1207.621 1244.000,1179.166 1272.799,1169.206 1285.998 C 1131.770 1335.605,1106.231 1403.585,1101.395 1466.499 L 1098.820 1500.000 1198.924 1500.000 L 1299.028 1500.000 1303.619 1469.130 C 1312.700 1408.074,1327.909 1386.138,1445.225 1264.898 C 1538.369 1168.637,1562.479 1138.642,1580.982 1096.000 L 1594.000 1066.000 1593.831 996.000 C 1593.645 919.169,1591.452 907.509,1565.252 844.022 C 1528.766 755.615,1468.493 692.305,1376.902 646.183 C 1317.611 616.326,1301.489 612.071,1232.000 607.938 C 1197.900 605.910,1168.200 604.450,1166.000 604.693 C 1163.800 604.937,1150.300 606.419,1136.000 607.988 M1100.000 1700.000 L 1100.000 1800.000 1200.000 1800.000 L 1300.000 1800.000 1300.000 1700.000 L 1300.000 1600.000 1200.000 1600.000 L 1100.000 1600.000 1100.000 1700.000 " fill="#1D1E23" stroke="none" fill-rule="evenodd"/></svg>