<svg viewBox="0 0 2400 2400" fill="none" xmlns="http://www.w3.org/2000/svg"><path d="M1050.920 214.235 C 966.802 227.326,872.611 255.504,790.526 292.132 C 548.270 400.231,350.343 611.983,262.121 857.444 C 177.255 1093.568,180.890 1337.421,272.697 1567.099 C 357.407 1779.020,519.807 1965.347,710.000 2068.830 C 804.085 2120.022,866.993 2144.767,966.846 2169.863 C 1054.834 2191.976,1090.203 2196.055,1194.881 2196.161 C 1298.719 2196.266,1335.332 2192.837,1408.000 2176.204 C 1560.892 2141.208,1696.294 2077.624,1812.000 1986.487 C 2041.196 1805.960,2174.407 1555.363,2196.258 1263.617 C 2214.486 1020.254,2128.022 757.770,1964.627 560.437 C 1802.499 364.635,1553.773 232.284,1310.000 212.101 C 1241.508 206.430,1093.219 207.651,1050.920 214.235 M1230.419 508.019 C 1301.052 513.522,1314.823 517.081,1370.000 544.089 C 1454.985 585.687,1515.175 644.541,1555.070 725.052 C 1582.046 779.491,1588.679 808.602,1590.833 882.000 C 1594.551 1008.709,1580.579 1038.033,1444.075 1190.000 C 1367.300 1275.471,1346.682 1301.861,1331.424 1334.187 C 1317.422 1363.850,1304.934 1418.315,1301.429 1465.000 L 1298.802 1500.000 1199.401 1500.000 L 1100.000 1500.000 1100.000 1478.895 C 1100.000 1411.799,1118.695 1326.876,1145.107 1274.000 C 1168.927 1226.311,1188.772 1201.153,1283.086 1099.077 C 1373.621 1001.092,1387.917 978.944,1396.575 923.257 C 1408.087 849.205,1370.392 778.240,1292.487 727.298 L 1262.974 708.000 1199.749 708.000 L 1136.524 708.000 1100.031 732.410 C 1065.338 755.616,1039.325 782.232,1025.826 808.336 C 1017.208 825.001,1000.000 879.755,1000.000 890.511 L 1000.000 900.000 900.000 900.000 C 805.003 900.000,800.000 899.626,800.000 892.524 C 800.000 888.412,802.684 869.654,805.965 850.840 C 823.235 751.806,870.158 661.749,933.191 606.659 C 989.240 557.672,1055.476 524.149,1124.000 510.087 C 1157.006 503.314,1167.434 503.111,1230.419 508.019 M1300.000 1800.000 L 1300.000 1900.000 1200.000 1900.000 L 1100.000 1900.000 1100.000 1800.000 L 1100.000 1700.000 1200.000 1700.000 L 1300.000 1700.000 1300.000 1800.000 " fill="#1D1E23" stroke="none" fill-rule="evenodd"/></svg>