<svg viewBox="0 0 2400 2400" fill="none" xmlns="http://www.w3.org/2000/svg"><path d="M1092.000 208.195 C 959.583 217.612,774.985 284.088,650.000 367.365 C 586.905 409.405,555.098 435.257,502.648 487.127 C 363.854 624.385,276.854 775.163,230.161 959.365 C 205.012 1058.578,196.820 1154.108,203.644 1268.604 C 217.530 1501.574,324.411 1736.163,494.112 1906.139 C 648.455 2060.734,836.826 2154.470,1066.000 2190.721 C 1127.908 2200.514,1272.321 2200.465,1336.000 2190.631 C 1552.475 2157.198,1739.395 2065.492,1891.594 1918.045 C 1952.477 1859.063,1990.768 1813.407,2034.144 1748.075 C 2183.778 1522.703,2235.142 1240.028,2173.711 980.000 C 2081.156 588.228,1778.378 295.484,1387.331 219.679 C 1363.443 215.049,1313.780 210.156,1268.185 207.941 C 1181.755 203.743,1154.037 203.783,1092.000 208.195 M1300.000 514.133 C 1333.030 522.678,1391.524 549.976,1424.490 572.230 C 1513.152 632.083,1578.636 736.263,1592.443 839.431 C 1597.900 880.198,1594.682 955.981,1586.144 987.819 C 1571.530 1042.308,1542.008 1084.707,1448.919 1184.897 C 1373.668 1265.888,1346.778 1299.329,1332.240 1330.000 C 1317.701 1360.671,1304.696 1416.969,1301.390 1463.543 L 1298.802 1500.000 1198.784 1500.000 L 1098.765 1500.000 1101.256 1450.865 C 1105.163 1373.763,1118.599 1321.263,1149.423 1262.656 C 1171.023 1221.586,1200.622 1185.403,1284.120 1098.000 C 1359.435 1019.164,1375.672 997.930,1387.926 962.253 C 1419.415 870.577,1382.231 778.776,1292.084 725.635 L 1262.167 708.000 1200.468 708.000 L 1138.769 708.000 1112.384 722.721 C 1079.706 740.953,1043.486 774.929,1028.165 801.724 C 1016.424 822.257,1000.000 874.271,1000.000 890.920 L 1000.000 900.000 899.594 900.000 L 799.188 900.000 802.041 871.000 C 808.523 805.099,834.472 731.916,870.886 676.840 C 921.883 599.704,1014.754 534.562,1102.267 514.541 C 1117.520 511.051,1133.600 507.340,1138.000 506.293 C 1156.587 501.870,1274.691 507.586,1300.000 514.133 M1300.000 1800.000 L 1300.000 1900.000 1200.000 1900.000 L 1100.000 1900.000 1100.000 1800.000 L 1100.000 1700.000 1200.000 1700.000 L 1300.000 1700.000 1300.000 1800.000 " fill="#1D1E23" stroke="none" fill-rule="evenodd"/></svg>