<svg viewBox="0 0 2400 2400" fill="none" xmlns="http://www.w3.org/2000/svg"><path d="M1092.000 208.195 C 959.583 217.612,774.985 284.088,650.000 367.365 C 586.905 409.405,555.098 435.257,502.648 487.127 C 363.854 624.385,276.854 775.163,230.161 959.365 C 205.012 1058.578,196.820 1154.108,203.644 1268.604 C 217.530 1501.574,324.411 1736.163,494.112 1906.139 C 648.455 2060.734,836.826 2154.470,1066.000 2190.721 C 1127.908 2200.514,1272.321 2200.465,1336.000 2190.631 C 1552.475 2157.198,1739.395 2065.492,1891.594 1918.045 C 1952.477 1859.063,1990.768 1813.407,2034.144 1748.075 C 2183.778 1522.703,2235.142 1240.028,2173.711 980.000 C 2081.156 588.228,1778.378 295.484,1387.331 219.679 C 1363.443 215.049,1313.780 210.156,1268.185 207.941 C 1181.755 203.743,1154.037 203.783,1092.000 208.195 M1334.000 413.196 C 1556.501 455.615,1742.195 575.670,1862.388 754.808 C 1895.177 803.677,1939.639 893.551,1956.974 946.000 C 2010.125 1106.816,2009.634 1291.421,1955.621 1454.000 C 1887.993 1657.562,1740.916 1824.258,1546.000 1918.262 C 1461.934 1958.806,1367.838 1986.140,1279.158 1995.778 C 1050.475 2020.633,804.518 1932.489,637.987 1766.002 C 434.541 1562.609,354.846 1265.491,429.870 990.104 C 479.378 808.375,600.474 641.992,762.786 532.684 C 850.943 473.316,972.202 426.959,1082.947 410.288 C 1134.142 402.581,1287.650 404.359,1334.000 413.196 M1122.000 608.476 C 1061.288 624.340,1007.123 648.454,966.000 677.926 C 935.458 699.816,890.391 746.634,868.214 779.512 C 832.743 832.101,806.706 905.987,801.440 969.000 L 798.850 1000.000 899.063 1000.000 L 999.277 1000.000 1003.965 972.205 C 1014.174 911.682,1052.019 858.282,1107.916 825.529 L 1137.833 808.000 1200.000 808.000 L 1262.167 808.000 1292.084 825.529 C 1327.792 846.452,1357.150 876.389,1377.260 912.384 L 1392.000 938.769 1392.000 995.824 C 1392.000 1051.750,1391.759 1053.333,1379.807 1075.756 C 1365.218 1103.128,1340.936 1127.699,1259.522 1197.474 C 1225.814 1226.363,1187.961 1262.273,1175.404 1277.272 C 1133.985 1326.750,1106.239 1397.068,1101.331 1465.000 L 1098.802 1500.000 1199.026 1500.000 L 1299.249 1500.000 1301.892 1479.000 C 1310.855 1407.791,1324.336 1387.522,1442.232 1268.000 C 1545.178 1163.635,1563.717 1139.969,1584.258 1086.705 L 1596.772 1054.255 1595.076 988.128 C 1593.566 929.287,1592.151 918.253,1582.236 888.000 C 1542.903 767.986,1480.678 695.664,1370.514 641.923 C 1346.031 629.980,1314.300 617.338,1300.000 613.831 C 1268.088 606.003,1145.568 602.317,1122.000 608.476 M1100.000 1700.000 L 1100.000 1800.000 1200.000 1800.000 L 1300.000 1800.000 1300.000 1700.000 L 1300.000 1600.000 1200.000 1600.000 L 1100.000 1600.000 1100.000 1700.000 " fill="#1D1E23" stroke="none" fill-rule="evenodd"/></svg>