<svg viewBox="0 0 2400 2400" fill="none" xmlns="http://www.w3.org/2000/svg"><path d="M1062.000 210.040 C 838.845 245.765,647.360 340.791,498.022 489.920 C 335.373 652.340,239.530 845.602,207.371 1076.000 C 199.343 1133.512,200.542 1278.601,209.535 1338.000 C 259.968 1671.099,465.368 1953.685,762.000 2098.072 C 996.553 2212.242,1262.178 2230.922,1508.000 2150.533 C 1764.708 2066.585,1981.131 1878.587,2098.027 1638.000 C 2234.203 1357.731,2233.307 1038.111,2095.564 760.000 C 2043.904 655.694,1982.750 570.004,1904.273 491.959 C 1757.151 345.647,1581.994 255.288,1368.000 215.310 C 1310.952 204.652,1116.566 201.304,1062.000 210.040 M1280.000 509.972 C 1357.600 523.139,1446.664 575.353,1501.796 640.000 C 1544.058 689.556,1579.056 760.147,1590.175 818.261 C 1598.761 863.134,1597.824 943.589,1588.281 980.903 C 1571.984 1044.622,1544.813 1084.330,1447.938 1186.000 C 1381.840 1255.370,1347.851 1296.667,1333.426 1325.133 C 1318.778 1354.039,1304.848 1413.000,1301.631 1459.713 L 1298.856 1500.000 1199.428 1500.000 L 1100.000 1500.000 1100.011 1469.000 C 1100.037 1397.146,1114.800 1330.182,1143.000 1274.000 C 1169.896 1220.416,1189.037 1196.728,1291.208 1090.581 C 1365.272 1013.636,1376.020 999.560,1388.114 963.668 C 1420.594 867.281,1378.042 767.100,1285.115 721.173 L 1254.415 706.000 1200.000 706.000 L 1145.585 706.000 1114.547 721.340 C 1054.257 751.137,1014.484 804.519,1003.392 870.528 L 998.440 900.000 898.750 900.000 L 799.060 900.000 801.940 869.000 C 814.573 733.022,894.088 611.237,1010.752 549.185 C 1094.496 504.642,1177.419 492.565,1280.000 509.972 M1300.000 1800.000 L 1300.000 1900.000 1200.000 1900.000 L 1100.000 1900.000 1100.000 1800.000 L 1100.000 1700.000 1200.000 1700.000 L 1300.000 1700.000 1300.000 1800.000 " fill="#1D1E23" stroke="none" fill-rule="evenodd"/></svg>