<svg viewBox="0 0 2400 2400" fill="none" xmlns="http://www.w3.org/2000/svg"><path d="M1092.000 208.195 C 959.583 217.612,774.985 284.088,650.000 367.365 C 586.905 409.405,555.098 435.257,502.648 487.127 C 363.854 624.385,276.854 775.163,230.161 959.365 C 205.012 1058.578,196.820 1154.108,203.644 1268.604 C 217.530 1501.574,324.411 1736.163,494.112 1906.139 C 648.455 2060.734,836.826 2154.470,1066.000 2190.721 C 1127.908 2200.514,1272.321 2200.465,1336.000 2190.631 C 1552.475 2157.198,1739.395 2065.492,1891.594 1918.045 C 1952.477 1859.063,1990.768 1813.407,2034.144 1748.075 C 2183.778 1522.703,2235.142 1240.028,2173.711 980.000 C 2081.156 588.228,1778.378 295.484,1387.331 219.679 C 1363.443 215.049,1313.780 210.156,1268.185 207.941 C 1181.755 203.743,1154.037 203.783,1092.000 208.195 M1334.000 413.196 C 1556.501 455.615,1742.195 575.670,1862.388 754.808 C 1895.177 803.677,1939.639 893.551,1956.974 946.000 C 2010.125 1106.816,2009.634 1291.421,1955.621 1454.000 C 1887.993 1657.562,1740.916 1824.258,1546.000 1918.262 C 1461.934 1958.806,1367.838 1986.140,1279.158 1995.778 C 1050.475 2020.633,804.518 1932.489,637.987 1766.002 C 434.541 1562.609,354.846 1265.491,429.870 990.104 C 479.378 808.375,600.474 641.992,762.786 532.684 C 850.943 473.316,972.202 426.959,1082.947 410.288 C 1134.142 402.581,1287.650 404.359,1334.000 413.196 M1152.000 602.782 C 1118.695 608.421,1061.389 626.623,1029.741 641.615 C 956.435 676.340,911.112 715.174,868.971 779.369 C 812.784 864.959,802.134 926.818,836.790 966.288 C 857.424 989.789,877.095 997.851,914.000 997.931 C 941.739 997.991,948.479 996.543,964.619 987.054 C 984.875 975.147,1002.156 953.473,1026.057 910.000 C 1070.324 829.482,1151.010 791.123,1240.437 808.083 C 1298.148 819.028,1349.926 860.226,1378.319 917.793 L 1394.000 949.585 1394.000 999.793 C 1394.000 1044.870,1393.007 1052.017,1384.284 1069.741 C 1372.539 1093.606,1330.780 1138.359,1282.000 1179.358 C 1228.224 1224.557,1173.090 1279.177,1155.956 1304.226 C 1127.837 1345.336,1105.466 1413.298,1101.060 1471.000 L 1098.845 1500.000 1198.836 1500.000 L 1298.828 1500.000 1303.509 1471.653 C 1308.876 1439.152,1322.842 1403.678,1342.159 1373.482 C 1349.523 1361.969,1399.481 1308.777,1453.177 1255.275 C 1545.906 1162.882,1551.638 1156.294,1567.382 1124.000 C 1590.987 1075.585,1597.672 1046.566,1597.327 994.000 C 1596.742 904.709,1559.413 810.076,1496.352 738.013 C 1447.644 682.351,1369.743 633.142,1303.859 616.418 C 1258.054 604.790,1181.004 597.872,1152.000 602.782 M1100.000 1700.000 L 1100.000 1800.000 1200.000 1800.000 L 1300.000 1800.000 1300.000 1700.000 L 1300.000 1600.000 1200.000 1600.000 L 1100.000 1600.000 1100.000 1700.000 " fill="#1D1E23" stroke="none" fill-rule="evenodd"/></svg>