<svg viewBox="0 0 2400 2400" fill="none" xmlns="http://www.w3.org/2000/svg"><path d="M1118.000 206.424 C 956.947 218.282,787.043 277.650,644.362 371.923 C 494.452 470.972,358.807 630.799,288.119 791.674 C 266.998 839.740,242.361 911.165,230.085 959.915 C 182.920 1147.222,193.856 1354.889,260.483 1537.119 C 334.478 1739.503,470.551 1912.980,650.000 2033.707 C 696.182 2064.777,800.010 2116.962,857.739 2138.120 C 908.419 2156.694,1005.333 2181.431,1062.000 2190.256 C 1129.444 2200.759,1285.600 2199.715,1350.000 2188.330 C 1565.633 2150.209,1739.801 2062.760,1894.450 1914.965 C 2167.011 1654.483,2267.301 1255.006,2149.937 897.307 C 2068.516 649.154,1906.900 452.080,1682.000 326.706 C 1573.429 266.182,1435.324 222.100,1324.000 212.437 C 1271.207 207.854,1147.583 204.246,1118.000 206.424 M1238.000 508.078 C 1301.500 512.623,1317.807 517.041,1374.000 544.921 C 1450.866 583.057,1499.416 627.956,1543.269 701.458 C 1584.908 771.250,1601.156 850.171,1592.242 939.336 C 1583.434 1027.442,1564.520 1058.542,1430.423 1205.415 C 1350.991 1292.415,1332.150 1319.773,1318.454 1368.000 C 1309.571 1399.280,1300.000 1457.639,1300.000 1480.524 L 1300.000 1500.000 1200.000 1500.000 L 1100.000 1500.000 1100.000 1480.424 C 1100.000 1415.815,1114.939 1338.679,1136.829 1290.268 C 1162.957 1232.482,1189.411 1198.109,1287.882 1094.000 C 1373.680 1003.289,1391.274 974.521,1398.131 913.727 C 1406.125 842.854,1363.279 768.107,1289.767 724.679 L 1261.535 708.000 1199.767 708.010 L 1138.000 708.021 1114.000 722.427 C 1056.984 756.653,1030.614 787.803,1012.246 842.627 C 1005.511 862.731,1000.000 883.865,1000.000 889.590 L 1000.000 900.000 899.682 900.000 L 799.363 900.000 802.162 873.000 C 808.822 808.764,834.937 733.713,868.788 681.522 C 924.325 595.898,1016.939 532.829,1120.000 510.449 C 1152.509 503.390,1168.113 503.076,1238.000 508.078 M1300.000 1800.000 L 1300.000 1900.000 1200.000 1900.000 L 1100.000 1900.000 1100.000 1800.000 L 1100.000 1700.000 1200.000 1700.000 L 1300.000 1700.000 1300.000 1800.000 " fill="#1D1E23" stroke="none" fill-rule="evenodd"/></svg>