<svg viewBox="0 0 2400 2400" fill="none" xmlns="http://www.w3.org/2000/svg"><path d="M1062.000 210.040 C 838.845 245.765,647.360 340.791,498.022 489.920 C 335.373 652.340,239.530 845.602,207.371 1076.000 C 199.343 1133.512,200.542 1278.601,209.535 1338.000 C 259.968 1671.099,465.368 1953.685,762.000 2098.072 C 996.553 2212.242,1262.178 2230.922,1508.000 2150.533 C 1764.708 2066.585,1981.131 1878.587,2098.027 1638.000 C 2234.203 1357.731,2233.307 1038.111,2095.564 760.000 C 2043.904 655.694,1982.750 570.004,1904.273 491.959 C 1757.151 345.647,1581.994 255.288,1368.000 215.310 C 1310.952 204.652,1116.566 201.304,1062.000 210.040 M1253.017 508.357 C 1346.187 520.630,1451.914 587.909,1519.609 678.000 C 1546.825 714.221,1577.897 777.467,1588.388 818.000 C 1599.504 860.949,1600.407 926.351,1590.485 970.000 C 1574.461 1040.502,1546.854 1082.535,1449.936 1184.000 C 1388.853 1247.948,1352.138 1292.208,1339.301 1317.369 C 1318.523 1358.099,1300.055 1435.021,1300.016 1481.000 L 1300.000 1500.000 1199.383 1500.000 L 1098.766 1500.000 1101.340 1447.000 C 1105.222 1367.042,1115.719 1326.517,1149.230 1262.103 C 1171.004 1220.251,1196.234 1189.566,1283.747 1098.502 C 1323.651 1056.979,1361.512 1015.430,1367.883 1006.171 C 1382.934 984.294,1396.420 944.209,1398.892 914.000 C 1408.895 791.754,1293.828 684.979,1172.000 703.459 C 1103.408 713.863,1049.763 755.254,1013.180 826.000 C 979.161 891.787,970.428 898.113,914.167 897.719 C 867.496 897.391,850.547 891.338,833.416 868.879 C 810.097 838.307,809.165 799.468,830.589 751.058 C 892.264 611.688,1011.137 521.083,1154.000 504.551 C 1181.195 501.404,1208.085 502.438,1253.017 508.357 M1300.000 1800.000 L 1300.000 1900.000 1200.000 1900.000 L 1100.000 1900.000 1100.000 1800.000 L 1100.000 1700.000 1200.000 1700.000 L 1300.000 1700.000 1300.000 1800.000 " fill="#1D1E23" stroke="none" fill-rule="evenodd"/></svg>