<svg viewBox="0 0 2400 2400" fill="none" xmlns="http://www.w3.org/2000/svg"><path d="M1112.000 203.923 C 833.630 231.768,590.463 362.388,419.326 576.000 C 147.365 915.458,126.704 1391.677,368.248 1753.288 C 676.969 2215.470,1294.618 2338.595,1756.000 2029.929 C 2215.492 1722.528,2337.727 1104.086,2029.929 644.000 C 1872.846 409.198,1631.891 256.219,1349.288 211.869 C 1290.914 202.708,1165.973 198.524,1112.000 203.923 M1295.826 512.015 C 1362.101 528.196,1432.918 568.338,1482.290 617.710 C 1532.103 667.523,1571.692 737.714,1588.626 806.240 C 1600.337 853.635,1601.242 937.081,1590.466 975.991 C 1569.846 1050.444,1547.183 1083.915,1449.208 1184.611 C 1368.934 1267.115,1339.736 1304.979,1323.853 1347.171 C 1311.459 1380.097,1304.270 1416.458,1301.349 1461.000 L 1298.792 1500.000 1199.396 1500.000 L 1100.000 1500.000 1100.079 1463.000 C 1100.275 1371.659,1121.069 1300.212,1168.343 1228.454 C 1185.555 1202.328,1216.723 1167.095,1279.669 1102.609 C 1352.876 1027.611,1369.047 1008.899,1379.125 987.525 C 1430.933 877.641,1381.157 756.348,1266.000 711.865 C 1246.372 704.284,1234.349 702.595,1200.000 702.595 C 1165.651 702.595,1153.628 704.284,1134.000 711.865 C 1062.289 739.566,1014.571 797.084,1003.008 869.762 L 998.196 900.000 898.547 900.000 L 798.897 900.000 801.668 869.000 C 805.479 826.360,814.601 787.522,829.147 752.000 C 885.569 614.214,1001.712 524.982,1154.000 502.416 C 1180.862 498.435,1262.970 503.992,1295.826 512.015 M1300.000 1800.000 L 1300.000 1900.000 1200.000 1900.000 L 1100.000 1900.000 1100.000 1800.000 L 1100.000 1700.000 1200.000 1700.000 L 1300.000 1700.000 1300.000 1800.000 " fill="#1D1E23" stroke="none" fill-rule="evenodd"/></svg>