<svg viewBox="0 0 2400 2400" fill="none" xmlns="http://www.w3.org/2000/svg"><path d="M1112.000 203.923 C 833.630 231.768,590.463 362.388,419.326 576.000 C 147.365 915.458,126.704 1391.677,368.248 1753.288 C 676.969 2215.470,1294.618 2338.595,1756.000 2029.929 C 2215.492 1722.528,2337.727 1104.086,2029.929 644.000 C 1872.846 409.198,1631.891 256.219,1349.288 211.869 C 1290.914 202.708,1165.973 198.524,1112.000 203.923 M1272.576 404.038 C 1577.061 433.717,1833.941 627.519,1945.870 912.000 C 2033.733 1135.312,2011.422 1400.632,1887.383 1607.541 C 1672.000 1966.819,1222.500 2101.493,850.000 1918.351 C 519.776 1755.994,342.689 1393.923,417.838 1034.756 C 462.965 819.077,600.109 627.929,792.459 512.617 C 934.690 427.351,1108.498 388.044,1272.576 404.038 M1152.000 602.384 C 1060.824 619.299,999.010 646.837,938.635 697.438 C 883.501 743.646,830.872 827.636,816.296 892.678 C 811.095 915.888,817.932 944.579,833.543 965.045 C 859.865 999.555,920.161 1011.097,962.889 989.804 C 987.504 977.538,997.662 964.870,1019.348 919.395 C 1069.157 814.946,1184.022 772.930,1286.591 821.640 C 1379.829 865.918,1425.578 982.404,1384.341 1070.526 C 1368.704 1103.941,1339.706 1134.213,1270.000 1189.887 C 1183.149 1259.256,1151.106 1297.669,1124.344 1364.504 C 1111.700 1396.082,1100.000 1452.803,1100.000 1482.524 L 1100.000 1500.000 1199.449 1500.000 L 1298.899 1500.000 1301.532 1477.000 C 1306.965 1429.551,1330.467 1379.692,1367.052 1338.000 C 1374.774 1329.200,1409.137 1296.767,1443.415 1265.927 C 1536.388 1182.279,1568.942 1139.918,1587.837 1078.000 C 1604.803 1022.406,1602.642 958.884,1581.378 888.099 C 1541.277 754.613,1431.427 647.613,1298.000 612.072 C 1266.826 603.768,1176.755 597.792,1152.000 602.384 M1100.000 1700.000 L 1100.000 1800.000 1200.000 1800.000 L 1300.000 1800.000 1300.000 1700.000 L 1300.000 1600.000 1200.000 1600.000 L 1100.000 1600.000 1100.000 1700.000 " fill="#1D1E23" stroke="none" fill-rule="evenodd"/></svg>