<svg viewBox="0 0 2400 2400" fill="none" xmlns="http://www.w3.org/2000/svg"><path d="M1112.000 203.923 C 833.630 231.768,590.463 362.388,419.326 576.000 C 147.365 915.458,126.704 1391.677,368.248 1753.288 C 676.969 2215.470,1294.618 2338.595,1756.000 2029.929 C 2215.492 1722.528,2337.727 1104.086,2029.929 644.000 C 1872.846 409.198,1631.891 256.219,1349.288 211.869 C 1290.914 202.708,1165.973 198.524,1112.000 203.923 M1280.667 512.334 C 1348.272 528.357,1431.043 578.025,1483.386 633.980 C 1590.469 748.453,1625.118 884.056,1579.498 1010.133 C 1560.903 1061.523,1535.120 1096.250,1452.208 1181.578 C 1353.019 1283.657,1331.944 1314.958,1313.457 1387.644 C 1308.092 1408.740,1302.598 1442.650,1301.248 1463.000 L 1298.793 1500.000 1199.397 1500.000 L 1100.000 1500.000 1100.079 1463.000 C 1100.275 1371.374,1121.868 1297.612,1169.213 1226.830 C 1185.718 1202.155,1219.692 1163.982,1279.909 1102.452 C 1353.183 1027.582,1368.751 1009.571,1379.301 987.465 C 1416.572 909.370,1401.401 820.642,1340.355 759.683 C 1262.068 681.507,1142.201 680.516,1061.388 757.377 C 1039.977 777.741,1031.564 789.935,1012.749 827.874 C 993.871 865.943,987.050 875.811,972.661 885.874 C 956.119 897.443,953.455 898.000,914.661 898.000 C 866.648 898.000,849.522 891.554,831.523 866.707 C 804.773 829.780,807.204 795.964,841.622 726.209 C 881.085 646.232,940.372 585.099,1016.000 546.405 C 1063.403 522.151,1100.910 510.843,1162.000 502.387 C 1184.868 499.222,1247.490 504.471,1280.667 512.334 M1300.000 1800.000 L 1300.000 1900.000 1200.000 1900.000 L 1100.000 1900.000 1100.000 1800.000 L 1100.000 1700.000 1200.000 1700.000 L 1300.000 1700.000 1300.000 1800.000 " fill="#1D1E23" stroke="none" fill-rule="evenodd"/></svg>