<svg viewBox="0 0 2400 2400" fill="none" xmlns="http://www.w3.org/2000/svg"><path d="M1062.000 210.040 C 838.845 245.765,647.360 340.791,498.022 489.920 C 335.373 652.340,239.530 845.602,207.371 1076.000 C 199.343 1133.512,200.542 1278.601,209.535 1338.000 C 259.968 1671.099,465.368 1953.685,762.000 2098.072 C 996.553 2212.242,1262.178 2230.922,1508.000 2150.533 C 1764.708 2066.585,1981.131 1878.587,2098.027 1638.000 C 2234.203 1357.731,2233.307 1038.111,2095.564 760.000 C 2043.904 655.694,1982.750 570.004,1904.273 491.959 C 1757.151 345.647,1581.994 255.288,1368.000 215.310 C 1310.952 204.652,1116.566 201.304,1062.000 210.040 M1326.000 411.837 C 1622.919 460.750,1864.045 666.230,1959.754 951.902 C 1999.698 1071.128,2008.586 1220.991,1983.463 1351.671 C 1917.079 1696.981,1632.628 1957.109,1279.158 1995.753 C 1025.610 2023.473,757.215 1914.525,591.610 1716.662 C 393.891 1480.428,345.941 1159.772,467.097 884.000 C 573.880 640.941,790.372 466.063,1046.000 416.371 C 1138.265 398.435,1235.125 396.867,1326.000 411.837 M1132.621 606.358 C 1047.828 624.917,975.868 661.264,920.678 713.412 C 886.451 745.752,840.331 818.533,824.017 865.950 C 798.391 940.433,839.320 999.884,916.287 999.978 C 961.536 1000.033,991.169 977.341,1019.542 920.911 C 1058.444 843.538,1120.337 803.520,1200.932 803.629 C 1266.487 803.718,1325.697 834.403,1361.421 886.802 C 1388.806 926.969,1397.383 953.992,1397.346 1000.000 C 1397.291 1070.375,1378.333 1099.216,1276.000 1184.616 C 1179.691 1264.989,1150.194 1299.613,1126.778 1359.777 C 1113.089 1394.949,1100.128 1453.739,1100.053 1481.000 L 1100.000 1500.000 1199.283 1500.000 L 1298.566 1500.000 1303.379 1469.000 C 1306.747 1447.316,1313.687 1426.703,1326.472 1400.411 C 1346.188 1359.869,1354.599 1350.548,1482.067 1228.000 C 1510.733 1200.439,1542.622 1165.393,1553.121 1149.910 C 1589.592 1096.125,1605.228 1028.574,1596.747 961.433 C 1572.515 769.574,1422.446 620.149,1238.000 604.226 C 1178.470 599.087,1164.555 599.369,1132.621 606.358 M1100.000 1700.000 L 1100.000 1800.000 1200.000 1800.000 L 1300.000 1800.000 1300.000 1700.000 L 1300.000 1600.000 1200.000 1600.000 L 1100.000 1600.000 1100.000 1700.000 " fill="#1D1E23" stroke="none" fill-rule="evenodd"/></svg>