<svg viewBox="0 0 2400 2400" fill="none" xmlns="http://www.w3.org/2000/svg"><path d="M1112.000 203.923 C 833.630 231.768,590.463 362.388,419.326 576.000 C 147.365 915.458,126.704 1391.677,368.248 1753.288 C 676.969 2215.470,1294.618 2338.595,1756.000 2029.929 C 2215.492 1722.528,2337.727 1104.086,2029.929 644.000 C 1872.846 409.198,1631.891 256.219,1349.288 211.869 C 1290.914 202.708,1165.973 198.524,1112.000 203.923 M1272.576 404.038 C 1577.061 433.717,1833.941 627.519,1945.870 912.000 C 2033.733 1135.312,2011.422 1400.632,1887.383 1607.541 C 1672.000 1966.819,1222.500 2101.493,850.000 1918.351 C 519.776 1755.994,342.689 1393.923,417.838 1034.756 C 462.965 819.077,600.109 627.929,792.459 512.617 C 934.690 427.351,1108.498 388.044,1272.576 404.038 M1154.000 602.416 C 1043.334 618.814,953.512 669.100,886.981 751.903 C 839.552 810.932,807.226 892.172,801.392 967.000 L 798.820 1000.000 898.949 1000.000 L 999.078 1000.000 1001.943 977.070 C 1011.410 901.300,1059.826 840.752,1134.000 811.923 C 1168.375 798.562,1231.489 798.535,1266.000 811.865 C 1325.470 834.838,1364.964 874.364,1388.033 934.000 C 1401.100 967.779,1401.478 1028.225,1388.821 1060.000 C 1372.091 1101.997,1351.244 1123.444,1244.000 1208.984 C 1152.063 1282.314,1108.786 1359.955,1101.297 1465.000 L 1098.802 1500.000 1198.587 1500.000 L 1298.371 1500.000 1303.112 1467.000 C 1312.896 1398.891,1348.341 1348.841,1451.399 1257.614 C 1519.999 1196.889,1550.808 1161.164,1572.263 1117.463 C 1594.325 1072.527,1601.286 1036.917,1598.745 982.000 C 1592.908 855.838,1529.267 740.769,1426.871 671.233 C 1391.681 647.336,1334.311 621.411,1295.826 612.015 C 1262.970 603.992,1180.862 598.435,1154.000 602.416 M1100.000 1700.000 L 1100.000 1800.000 1200.000 1800.000 L 1300.000 1800.000 1300.000 1700.000 L 1300.000 1600.000 1200.000 1600.000 L 1100.000 1600.000 1100.000 1700.000 " fill="#1D1E23" stroke="none" fill-rule="evenodd"/></svg>