<svg viewBox="0 0 2400 2400" fill="none" xmlns="http://www.w3.org/2000/svg"><path d="M1050.920 214.235 C 966.802 227.326,872.611 255.504,790.526 292.132 C 548.270 400.231,350.343 611.983,262.121 857.444 C 177.255 1093.568,180.890 1337.421,272.697 1567.099 C 357.407 1779.020,519.807 1965.347,710.000 2068.830 C 804.085 2120.022,866.993 2144.767,966.846 2169.863 C 1054.834 2191.976,1090.203 2196.055,1194.881 2196.161 C 1298.719 2196.266,1335.332 2192.837,1408.000 2176.204 C 1560.892 2141.208,1696.294 2077.624,1812.000 1986.487 C 2041.196 1805.960,2174.407 1555.363,2196.258 1263.617 C 2214.486 1020.254,2128.022 757.770,1964.627 560.437 C 1802.499 364.635,1553.773 232.284,1310.000 212.101 C 1241.508 206.430,1093.219 207.651,1050.920 214.235 M1362.000 419.828 C 1476.598 444.646,1612.614 509.230,1702.000 581.271 C 1840.849 693.176,1941.707 858.556,1980.538 1038.000 C 1987.602 1070.647,1989.528 1095.502,1991.016 1173.212 C 1993.119 1283.085,1989.669 1320.765,1970.560 1396.628 C 1914.511 1619.151,1767.452 1803.822,1563.182 1908.200 C 1484.734 1948.285,1408.278 1973.765,1316.000 1990.577 C 1259.458 2000.878,1137.490 1999.974,1076.000 1988.797 C 945.976 1965.163,821.537 1912.570,725.463 1840.647 C 681.060 1807.407,601.469 1728.443,568.688 1685.109 C 478.470 1565.848,421.730 1421.955,408.156 1278.000 C 388.554 1070.126,443.129 880.921,571.355 712.205 C 601.866 672.059,670.366 603.384,712.000 571.201 C 818.617 488.784,962.132 426.958,1081.151 412.171 C 1097.018 410.200,1157.700 409.167,1216.000 409.877 C 1306.466 410.977,1327.862 412.436,1362.000 419.828 M1132.426 608.588 C 1083.190 615.737,1018.809 643.356,968.000 679.127 C 876.218 743.742,811.935 856.115,801.617 969.981 L 798.897 1000.000 898.717 1000.000 L 998.537 1000.000 1005.629 969.917 C 1020.000 908.960,1052.765 863.095,1107.513 827.297 L 1137.026 808.000 1199.893 808.000 L 1262.760 808.000 1288.380 824.382 C 1323.346 846.739,1349.248 872.366,1372.899 908.000 L 1392.810 938.000 1391.123 996.000 C 1388.705 1079.149,1384.378 1086.412,1283.914 1175.953 C 1170.605 1276.942,1146.141 1307.549,1120.812 1380.011 C 1108.872 1414.169,1100.000 1459.251,1100.000 1485.766 L 1100.000 1500.000 1199.168 1500.000 L 1298.336 1500.000 1304.719 1466.191 C 1315.993 1406.469,1332.020 1383.201,1438.634 1271.772 C 1543.951 1161.698,1563.286 1137.249,1584.714 1087.053 L 1597.116 1058.000 1594.527 988.498 C 1592.182 925.534,1590.790 915.562,1579.735 882.498 C 1538.678 759.699,1459.531 677.508,1332.716 625.978 C 1295.867 611.005,1183.169 601.220,1132.426 608.588 M1100.000 1700.000 L 1100.000 1800.000 1200.000 1800.000 L 1300.000 1800.000 1300.000 1700.000 L 1300.000 1600.000 1200.000 1600.000 L 1100.000 1600.000 1100.000 1700.000 " fill="#1D1E23" stroke="none" fill-rule="evenodd"/></svg>