<svg viewBox="0 0 2400 2400" fill="none" xmlns="http://www.w3.org/2000/svg"><path d="M1118.000 206.424 C 956.947 218.282,787.043 277.650,644.362 371.923 C 494.452 470.972,358.807 630.799,288.119 791.674 C 266.998 839.740,242.361 911.165,230.085 959.915 C 182.920 1147.222,193.856 1354.889,260.483 1537.119 C 334.478 1739.503,470.551 1912.980,650.000 2033.707 C 696.182 2064.777,800.010 2116.962,857.739 2138.120 C 908.419 2156.694,1005.333 2181.431,1062.000 2190.256 C 1129.444 2200.759,1285.600 2199.715,1350.000 2188.330 C 1565.633 2150.209,1739.801 2062.760,1894.450 1914.965 C 2167.011 1654.483,2267.301 1255.006,2149.937 897.307 C 2068.516 649.154,1906.900 452.080,1682.000 326.706 C 1573.429 266.182,1435.324 222.100,1324.000 212.437 C 1271.207 207.854,1147.583 204.246,1118.000 206.424 M1275.131 514.568 C 1385.198 536.519,1501.807 631.545,1556.981 744.252 C 1589.561 810.804,1598.665 853.913,1594.397 921.417 C 1588.154 1020.172,1568.448 1053.989,1426.232 1210.000 C 1362.550 1279.858,1339.369 1312.695,1326.016 1351.953 C 1312.372 1392.068,1300.000 1451.977,1300.000 1477.930 L 1300.000 1500.000 1200.000 1500.000 L 1100.000 1500.000 1100.033 1479.000 C 1100.144 1407.561,1115.048 1337.349,1141.848 1282.000 C 1168.375 1227.215,1184.622 1205.318,1254.434 1130.256 C 1377.338 998.111,1379.191 995.630,1392.288 945.655 C 1410.941 874.481,1386.156 800.716,1327.063 751.539 C 1287.327 718.470,1249.063 704.000,1201.356 704.000 C 1122.897 704.000,1061.784 743.337,1014.320 824.392 C 975.557 890.587,966.801 896.873,913.645 896.664 C 862.573 896.464,842.379 885.772,825.510 850.000 C 813.234 823.969,813.629 805.105,827.268 766.000 C 849.167 703.216,899.596 632.888,953.838 589.489 C 1003.651 549.634,1079.083 515.506,1133.879 508.033 C 1165.056 503.781,1237.951 507.154,1275.131 514.568 M1300.000 1800.000 L 1300.000 1900.000 1200.000 1900.000 L 1100.000 1900.000 1100.000 1800.000 L 1100.000 1700.000 1200.000 1700.000 L 1300.000 1700.000 1300.000 1800.000 " fill="#1D1E23" stroke="none" fill-rule="evenodd"/></svg>