<svg viewBox="0 0 2400 2400" fill="none" xmlns="http://www.w3.org/2000/svg"><path d="M1118.000 206.424 C 956.947 218.282,787.043 277.650,644.362 371.923 C 494.452 470.972,358.807 630.799,288.119 791.674 C 266.998 839.740,242.361 911.165,230.085 959.915 C 182.920 1147.222,193.856 1354.889,260.483 1537.119 C 334.478 1739.503,470.551 1912.980,650.000 2033.707 C 696.182 2064.777,800.010 2116.962,857.739 2138.120 C 908.419 2156.694,1005.333 2181.431,1062.000 2190.256 C 1129.444 2200.759,1285.600 2199.715,1350.000 2188.330 C 1565.633 2150.209,1739.801 2062.760,1894.450 1914.965 C 2167.011 1654.483,2267.301 1255.006,2149.937 897.307 C 2068.516 649.154,1906.900 452.080,1682.000 326.706 C 1573.429 266.182,1435.324 222.100,1324.000 212.437 C 1271.207 207.854,1147.583 204.246,1118.000 206.424 M1318.496 412.297 C 1440.631 426.829,1598.264 496.531,1705.754 583.535 C 1764.829 631.352,1827.251 701.125,1868.994 766.000 C 1890.423 799.305,1931.605 880.624,1947.540 921.101 C 1961.707 957.086,1977.603 1017.601,1986.653 1070.000 C 1996.263 1125.637,1996.222 1269.582,1986.580 1326.000 C 1962.110 1469.194,1904.150 1598.379,1816.292 1705.550 C 1785.050 1743.660,1717.219 1808.729,1678.832 1837.412 C 1533.448 1946.046,1346.246 2005.866,1174.000 1998.728 C 1016.201 1992.189,861.530 1938.574,730.966 1845.156 C 713.167 1832.420,677.066 1801.300,650.742 1776.000 C 575.704 1703.880,527.457 1637.271,482.120 1543.205 C 427.485 1429.849,404.000 1326.069,404.000 1198.000 C 404.000 1069.631,429.138 960.751,484.126 850.953 C 597.098 625.373,796.830 470.508,1042.919 417.686 C 1100.756 405.271,1237.042 402.606,1318.496 412.297 M1145.273 604.232 C 1064.521 618.349,971.276 665.290,918.507 718.389 C 865.604 771.623,816.000 863.711,816.000 908.688 C 816.000 943.649,839.405 978.528,870.947 990.574 C 895.155 999.820,941.194 1000.085,958.207 991.077 C 976.470 981.408,999.744 954.206,1023.678 914.557 C 1061.714 851.544,1106.202 818.049,1165.513 807.769 C 1251.232 792.912,1326.892 830.609,1374.465 911.878 L 1392.000 941.833 1392.000 997.076 C 1392.000 1044.277,1390.845 1054.583,1384.064 1067.875 C 1370.045 1095.355,1338.328 1129.343,1270.911 1189.132 C 1234.690 1221.255,1193.927 1259.792,1180.328 1274.769 C 1138.809 1320.493,1107.391 1397.582,1101.504 1468.175 L 1098.850 1500.000 1198.794 1500.000 L 1298.738 1500.000 1305.226 1467.000 C 1309.183 1446.877,1318.195 1420.910,1328.322 1400.454 C 1343.625 1369.541,1352.191 1359.495,1437.464 1272.454 C 1488.359 1220.504,1536.734 1169.734,1544.965 1159.631 C 1562.516 1138.087,1580.813 1099.453,1589.691 1065.191 C 1597.825 1033.801,1597.908 964.902,1589.859 925.934 C 1556.171 762.836,1419.158 631.063,1259.913 608.606 C 1213.083 602.002,1167.895 600.278,1145.273 604.232 M1100.000 1700.000 L 1100.000 1800.000 1200.000 1800.000 L 1300.000 1800.000 1300.000 1700.000 L 1300.000 1600.000 1200.000 1600.000 L 1100.000 1600.000 1100.000 1700.000 " fill="#1D1E23" stroke="none" fill-rule="evenodd"/></svg>