<svg viewBox="0 0 2400 2400" fill="none" xmlns="http://www.w3.org/2000/svg"><path d="M1050.920 214.235 C 966.802 227.326,872.611 255.504,790.526 292.132 C 548.270 400.231,350.343 611.983,262.121 857.444 C 177.255 1093.568,180.890 1337.421,272.697 1567.099 C 357.407 1779.020,519.807 1965.347,710.000 2068.830 C 804.085 2120.022,866.993 2144.767,966.846 2169.863 C 1054.834 2191.976,1090.203 2196.055,1194.881 2196.161 C 1298.719 2196.266,1335.332 2192.837,1408.000 2176.204 C 1560.892 2141.208,1696.294 2077.624,1812.000 1986.487 C 2041.196 1805.960,2174.407 1555.363,2196.258 1263.617 C 2214.486 1020.254,2128.022 757.770,1964.627 560.437 C 1802.499 364.635,1553.773 232.284,1310.000 212.101 C 1241.508 206.430,1093.219 207.651,1050.920 214.235 M1295.260 519.725 C 1405.113 551.439,1508.335 643.288,1561.986 757.066 C 1591.512 819.682,1599.894 869.705,1592.304 938.000 C 1582.884 1022.760,1562.412 1057.717,1445.897 1188.000 C 1373.234 1269.248,1352.865 1295.262,1337.844 1326.000 C 1320.631 1361.223,1304.306 1424.035,1301.198 1467.000 L 1298.812 1500.000 1199.406 1500.000 L 1100.000 1500.000 1100.000 1476.895 C 1100.000 1385.182,1133.097 1279.676,1182.708 1213.237 C 1192.252 1200.457,1232.896 1154.209,1273.030 1110.465 C 1313.163 1066.720,1353.669 1020.820,1363.043 1008.465 C 1392.501 969.635,1404.663 913.854,1394.403 864.643 C 1372.996 761.977,1274.507 692.095,1172.229 707.002 C 1105.239 716.766,1056.603 754.139,1010.059 831.619 C 991.168 863.066,974.373 882.567,959.605 890.204 C 946.113 897.181,893.228 897.962,870.047 891.526 C 849.239 885.750,830.428 865.375,821.733 839.198 C 815.658 820.905,815.402 815.138,819.736 794.111 C 834.226 723.813,902.193 626.038,969.983 577.973 C 1007.011 551.718,1059.866 526.728,1106.000 513.662 C 1137.342 504.786,1256.764 508.612,1295.260 519.725 M1300.000 1800.000 L 1300.000 1900.000 1200.000 1900.000 L 1100.000 1900.000 1100.000 1800.000 L 1100.000 1700.000 1200.000 1700.000 L 1300.000 1700.000 1300.000 1800.000 " fill="#1D1E23" stroke="none" fill-rule="evenodd"/></svg>