<svg viewBox="0 0 2400 2400" fill="none" xmlns="http://www.w3.org/2000/svg"><path d="M1092.000 208.195 C 959.583 217.612,774.985 284.088,650.000 367.365 C 586.905 409.405,555.098 435.257,502.648 487.127 C 363.854 624.385,276.854 775.163,230.161 959.365 C 205.012 1058.578,196.820 1154.108,203.644 1268.604 C 217.530 1501.574,324.411 1736.163,494.112 1906.139 C 648.455 2060.734,836.826 2154.470,1066.000 2190.721 C 1127.908 2200.514,1272.321 2200.465,1336.000 2190.631 C 1552.475 2157.198,1739.395 2065.492,1891.594 1918.045 C 1952.477 1859.063,1990.768 1813.407,2034.144 1748.075 C 2183.778 1522.703,2235.142 1240.028,2173.711 980.000 C 2081.156 588.228,1778.378 295.484,1387.331 219.679 C 1363.443 215.049,1313.780 210.156,1268.185 207.941 C 1181.755 203.743,1154.037 203.783,1092.000 208.195 M1286.000 515.738 C 1351.679 532.956,1412.538 569.088,1471.234 625.710 C 1513.884 666.853,1535.970 698.088,1563.835 756.671 C 1590.249 812.203,1597.604 849.587,1595.124 915.706 C 1593.531 958.185,1591.369 971.386,1581.211 1000.664 C 1561.492 1057.500,1537.462 1089.718,1419.937 1216.893 C 1362.739 1278.787,1342.708 1306.485,1328.500 1343.330 C 1313.978 1380.986,1300.000 1446.853,1300.000 1477.628 L 1300.000 1500.000 1200.000 1500.000 L 1100.000 1500.000 1100.003 1481.000 C 1100.010 1443.820,1108.335 1373.541,1116.232 1344.000 C 1127.639 1301.328,1159.657 1239.020,1188.175 1204.000 C 1201.611 1187.500,1245.297 1139.281,1285.255 1096.847 C 1366.185 1010.902,1375.590 998.632,1387.941 962.889 C 1413.593 888.655,1393.820 812.455,1334.635 757.458 C 1294.005 719.703,1252.441 703.231,1198.291 703.426 C 1118.345 703.713,1059.663 743.578,1010.555 830.961 C 982.294 881.249,971.920 891.130,942.330 895.946 C 913.500 900.638,868.468 895.346,851.146 885.229 C 833.417 874.875,816.000 840.702,816.000 816.269 C 816.000 746.928,893.971 626.982,974.000 573.211 C 1022.100 540.893,1078.468 517.399,1130.639 507.924 C 1163.471 501.961,1250.061 506.316,1286.000 515.738 M1300.000 1800.000 L 1300.000 1900.000 1200.000 1900.000 L 1100.000 1900.000 1100.000 1800.000 L 1100.000 1700.000 1200.000 1700.000 L 1300.000 1700.000 1300.000 1800.000 " fill="#1D1E23" stroke="none" fill-rule="evenodd"/></svg>