<svg viewBox="0 0 2400 2400" fill="none" xmlns="http://www.w3.org/2000/svg"><path d="M1664.969 609.976 C 1645.180 618.577,1625.140 635.221,1615.062 651.427 C 1606.243 665.609,1605.930 669.757,1603.400 806.000 C 1599.717 1004.244,1599.858 1554.673,1603.615 1650.404 C 1607.298 1744.219,1609.662 1751.814,1643.769 1779.402 L 1665.538 1797.010 1702.653 1795.068 C 1745.290 1792.838,1756.397 1786.878,1781.408 1752.807 L 1795.685 1733.357 1798.188 1339.679 C 1800.958 904.003,1797.248 679.770,1786.863 655.248 C 1771.392 618.717,1703.164 593.377,1664.969 609.976 M667.233 649.426 C 637.314 660.511,611.754 689.100,603.393 720.830 C 599.142 736.963,599.422 742.802,605.346 761.596 C 614.550 790.793,638.252 816.934,847.769 1028.968 L 1016.708 1199.936 824.638 1394.968 C 719.000 1502.236,625.919 1598.087,617.790 1607.970 L 603.011 1625.940 604.908 1662.199 C 606.259 1688.030,608.898 1701.651,614.083 1709.565 C 625.187 1726.512,654.632 1747.160,678.365 1754.641 C 720.245 1767.843,737.510 1756.371,876.000 1623.325 C 978.919 1524.451,1189.008 1309.664,1224.415 1267.119 C 1235.829 1253.403,1247.605 1236.348,1250.584 1229.219 C 1258.346 1210.641,1257.266 1185.142,1247.898 1165.789 C 1238.198 1145.752,1049.313 949.441,905.567 810.000 C 780.815 688.984,749.090 660.126,733.671 653.640 C 713.738 645.255,683.641 643.346,667.233 649.426 " fill="#1D1E23" stroke="none" fill-rule="evenodd"/></svg>