<svg viewBox="0 0 2400 2400" fill="none" xmlns="http://www.w3.org/2000/svg"><path d="M1645.456 619.691 C 1632.555 628.322,1618.751 640.916,1614.781 647.679 C 1601.055 671.060,1599.042 759.437,1600.928 1256.000 C 1602.478 1664.055,1603.511 1727.845,1608.766 1740.000 C 1615.694 1756.025,1646.785 1786.137,1663.031 1792.556 C 1677.247 1798.173,1722.835 1798.140,1737.110 1792.502 C 1756.472 1784.855,1787.526 1752.483,1792.788 1734.461 C 1798.399 1715.241,1800.161 707.743,1794.641 674.689 C 1787.999 634.912,1744.758 604.112,1695.456 604.039 C 1671.196 604.003,1666.893 605.351,1645.456 619.691 M665.841 648.257 C 648.938 653.172,621.275 677.819,611.787 696.417 C 592.609 734.010,597.935 767.459,629.071 804.967 C 640.501 818.735,732.590 913.336,833.715 1015.190 L 1017.578 1200.381 875.657 1343.190 C 695.123 1524.855,619.107 1603.228,610.435 1616.637 C 601.761 1630.048,601.002 1681.117,609.187 1700.597 C 617.477 1720.326,647.325 1745.804,671.590 1753.864 C 697.932 1762.613,720.613 1759.691,744.642 1744.453 C 795.700 1712.072,1232.647 1273.027,1248.459 1238.216 C 1253.108 1227.981,1255.857 1212.560,1255.912 1196.405 C 1255.996 1171.838,1255.260 1169.910,1237.571 1148.405 C 1205.249 1109.111,1014.448 915.004,876.925 781.511 C 772.025 679.684,740.690 651.457,728.925 648.190 C 711.261 643.284,682.839 643.314,665.841 648.257 " fill="#1D1E23" stroke="none" fill-rule="evenodd"/></svg>