<svg viewBox="0 0 2400 2400" fill="none" xmlns="http://www.w3.org/2000/svg"><path d="M1660.646 610.762 C 1653.301 614.381,1639.315 624.690,1629.567 633.671 C 1615.742 646.407,1610.864 654.401,1607.397 670.000 C 1601.790 695.224,1598.245 1435.004,1602.872 1614.033 C 1606.504 1754.562,1604.861 1747.782,1642.828 1778.893 L 1661.265 1794.000 1700.261 1794.000 C 1737.879 1794.000,1739.801 1793.563,1754.629 1781.619 C 1763.083 1774.810,1775.400 1761.607,1782.000 1752.280 L 1794.000 1735.321 1797.203 1468.660 C 1798.965 1321.997,1799.378 1083.595,1798.122 938.878 C 1795.565 644.339,1796.698 655.493,1766.704 629.819 C 1738.669 605.822,1688.842 596.869,1660.646 610.762 M672.155 646.702 C 655.541 650.205,627.856 671.949,615.795 690.968 C 594.938 723.856,596.292 756.953,619.956 792.679 C 626.588 802.692,718.577 898.428,824.376 1005.426 L 1016.737 1199.968 833.961 1384.984 C 733.434 1486.743,641.019 1581.512,628.593 1595.583 L 606.000 1621.165 606.000 1659.894 C 606.000 1696.082,606.730 1699.579,617.120 1713.202 C 632.403 1733.239,659.636 1751.134,683.084 1756.546 C 729.675 1767.300,747.537 1752.978,990.240 1510.254 C 1178.778 1321.700,1246.226 1249.020,1252.018 1228.173 C 1259.759 1200.309,1257.042 1174.638,1244.521 1157.355 C 1210.450 1110.321,787.226 687.955,744.494 658.342 C 728.282 647.108,695.361 641.810,672.155 646.702 " fill="#1D1E23" stroke="none" fill-rule="evenodd"/></svg>