<svg viewBox="0 0 2400 2400" fill="none" xmlns="http://www.w3.org/2000/svg"><path d="M936.487 703.801 L 754.975 706.000 733.655 729.463 C 698.694 767.938,692.334 801.375,712.177 842.365 C 725.072 869.002,744.057 886.351,766.758 892.242 C 790.991 898.530,1861.105 902.560,1966.612 896.761 C 2046.998 892.342,2056.958 888.922,2077.553 858.666 C 2104.760 818.697,2105.187 781.280,2078.889 741.577 C 2056.141 707.234,2054.423 706.919,1872.000 703.559 C 1695.747 700.314,1214.145 700.438,936.487 703.801 M355.410 711.856 C 326.278 727.659,300.000 770.515,300.000 802.223 C 300.000 829.716,322.784 866.332,351.044 884.253 C 390.315 909.158,433.921 902.600,470.186 866.335 C 486.988 849.534,491.870 841.515,495.444 824.852 C 504.507 782.592,488.793 743.395,452.659 718.127 C 437.260 707.358,431.661 705.885,402.659 704.971 C 376.352 704.142,367.162 705.481,355.410 711.856 M936.487 1103.801 L 754.975 1106.000 733.655 1129.463 C 698.694 1167.938,692.334 1201.375,712.177 1242.365 C 725.072 1269.002,744.057 1286.351,766.758 1292.242 C 790.991 1298.530,1861.105 1302.560,1966.612 1296.761 C 2046.998 1292.342,2056.958 1288.922,2077.553 1258.666 C 2104.760 1218.697,2105.187 1181.280,2078.889 1141.577 C 2056.141 1107.234,2054.423 1106.919,1872.000 1103.559 C 1695.747 1100.314,1214.145 1100.438,936.487 1103.801 M355.410 1111.856 C 326.278 1127.659,300.000 1170.515,300.000 1202.223 C 300.000 1229.716,322.784 1266.332,351.044 1284.253 C 390.315 1309.158,433.921 1302.600,470.186 1266.335 C 486.988 1249.534,491.870 1241.515,495.444 1224.852 C 504.507 1182.592,488.793 1143.395,452.659 1118.127 C 437.260 1107.358,431.661 1105.885,402.659 1104.971 C 376.352 1104.142,367.162 1105.481,355.410 1111.856 M936.487 1503.801 L 754.975 1506.000 733.655 1529.463 C 698.694 1567.938,692.334 1601.375,712.177 1642.365 C 725.072 1669.002,744.057 1686.351,766.758 1692.242 C 790.991 1698.530,1861.105 1702.560,1966.612 1696.761 C 2046.998 1692.342,2056.958 1688.922,2077.553 1658.666 C 2104.760 1618.697,2105.187 1581.280,2078.889 1541.577 C 2056.141 1507.234,2054.423 1506.919,1872.000 1503.559 C 1695.747 1500.314,1214.145 1500.438,936.487 1503.801 M355.410 1511.856 C 326.278 1527.659,300.000 1570.515,300.000 1602.223 C 300.000 1629.716,322.784 1666.332,351.044 1684.253 C 390.315 1709.158,433.921 1702.600,470.186 1666.335 C 486.988 1649.534,491.870 1641.515,495.444 1624.852 C 504.507 1582.592,488.793 1543.395,452.659 1518.127 C 437.260 1507.358,431.661 1505.885,402.659 1504.971 C 376.352 1504.142,367.162 1505.481,355.410 1511.856 " fill="#1D1E23" stroke="none" fill-rule="evenodd"/></svg>