<svg viewBox="0 0 2400 2400" fill="none" xmlns="http://www.w3.org/2000/svg"><path d="M1096.000 504.207 C 945.523 505.995,869.313 508.340,859.451 511.486 C 841.543 517.199,814.951 545.298,807.543 566.337 C 803.353 578.237,802.025 609.390,802.014 696.000 C 801.998 826.326,804.974 844.707,830.166 869.900 C 859.100 898.833,828.040 896.688,1247.662 898.736 C 1455.748 899.751,1717.800 899.000,1830.000 897.067 C 2055.751 893.178,2046.568 894.354,2071.331 866.150 C 2096.706 837.251,2096.394 839.218,2097.233 702.748 C 2097.965 583.627,2097.622 577.188,2089.617 560.000 C 2078.096 535.261,2060.527 517.685,2041.769 512.133 C 2009.655 502.628,1551.789 498.791,1096.000 504.207 M372.882 508.039 C 342.993 514.297,316.139 539.280,307.161 569.182 C 303.565 581.157,302.148 620.631,302.239 706.256 L 302.368 826.512 313.295 845.157 C 326.425 867.563,355.447 890.710,375.448 894.730 C 383.452 896.339,442.200 897.733,506.000 897.827 C 619.767 897.997,622.366 897.820,641.041 888.623 C 651.513 883.466,666.139 871.766,673.543 862.623 C 700.543 829.280,700.000 832.617,700.000 700.000 C 700.000 596.013,699.101 577.858,693.407 566.801 C 681.630 543.934,667.118 527.821,648.374 516.802 L 630.000 506.000 510.000 505.227 C 444.000 504.802,382.297 506.067,372.882 508.039 M1096.000 1004.207 C 945.523 1005.995,869.313 1008.340,859.451 1011.486 C 841.543 1017.199,814.951 1045.298,807.543 1066.337 C 803.353 1078.237,802.025 1109.390,802.014 1196.000 C 801.998 1326.326,804.974 1344.707,830.166 1369.900 C 859.100 1398.833,828.040 1396.688,1247.662 1398.736 C 1455.748 1399.751,1717.800 1399.000,1830.000 1397.067 C 2055.751 1393.178,2046.568 1394.354,2071.331 1366.150 C 2096.706 1337.251,2096.394 1339.218,2097.233 1202.748 C 2097.965 1083.627,2097.622 1077.188,2089.617 1060.000 C 2078.096 1035.261,2060.527 1017.685,2041.769 1012.133 C 2009.655 1002.628,1551.789 998.791,1096.000 1004.207 M372.882 1008.039 C 342.993 1014.297,316.139 1039.280,307.161 1069.182 C 303.565 1081.157,302.148 1120.631,302.239 1206.256 L 302.368 1326.512 313.295 1345.157 C 326.425 1367.563,355.447 1390.710,375.448 1394.730 C 383.452 1396.339,442.200 1397.733,506.000 1397.827 C 619.767 1397.997,622.366 1397.820,641.041 1388.623 C 651.513 1383.466,666.139 1371.766,673.543 1362.623 C 700.543 1329.280,700.000 1332.617,700.000 1200.000 C 700.000 1096.013,699.101 1077.858,693.407 1066.801 C 681.630 1043.934,667.118 1027.821,648.374 1016.802 L 630.000 1006.000 510.000 1005.227 C 444.000 1004.802,382.297 1006.067,372.882 1008.039 M1096.000 1504.207 C 945.523 1505.995,869.313 1508.340,859.451 1511.486 C 841.543 1517.199,814.951 1545.298,807.543 1566.337 C 803.353 1578.237,802.025 1609.390,802.014 1696.000 C 801.998 1826.326,804.974 1844.707,830.166 1869.900 C 859.100 1898.833,828.040 1896.688,1247.662 1898.736 C 1455.748 1899.751,1717.800 1899.000,1830.000 1897.067 C 2055.751 1893.178,2046.568 1894.354,2071.331 1866.150 C 2096.706 1837.251,2096.394 1839.218,2097.233 1702.748 C 2097.965 1583.627,2097.622 1577.188,2089.617 1560.000 C 2078.096 1535.261,2060.527 1517.685,2041.769 1512.133 C 2009.655 1502.628,1551.789 1498.791,1096.000 1504.207 M372.882 1508.039 C 342.993 1514.297,316.139 1539.280,307.161 1569.182 C 303.565 1581.157,302.148 1620.631,302.239 1706.256 L 302.368 1826.512 313.295 1845.157 C 326.425 1867.563,355.447 1890.710,375.448 1894.730 C 383.452 1896.339,442.200 1897.733,506.000 1897.827 C 619.767 1897.997,622.366 1897.820,641.041 1888.623 C 651.513 1883.466,666.139 1871.766,673.543 1862.623 C 700.543 1829.280,700.000 1832.617,700.000 1700.000 C 700.000 1596.013,699.101 1577.858,693.407 1566.801 C 681.630 1543.934,667.118 1527.821,648.374 1516.802 L 630.000 1506.000 510.000 1505.227 C 444.000 1504.802,382.297 1506.067,372.882 1508.039 " fill="#1D1E23" stroke="none" fill-rule="evenodd"/></svg>