<svg viewBox="0 0 2400 2400" fill="none" xmlns="http://www.w3.org/2000/svg"><path d="M386.973 503.633 C 357.701 506.895,341.841 516.460,319.082 544.579 C 302.183 565.458,299.008 595.647,300.693 719.423 C 301.970 813.263,303.030 827.801,309.560 841.068 C 319.823 861.920,353.225 891.033,371.292 894.874 C 379.381 896.593,440.000 898.000,506.000 898.000 C 615.233 898.000,627.352 897.328,641.068 890.512 C 661.975 880.122,691.042 846.734,694.874 828.708 C 698.927 809.641,698.952 590.475,694.904 571.454 C 691.009 553.153,664.237 522.347,642.513 511.168 C 627.074 503.223,619.105 502.604,520.000 501.647 C 461.700 501.083,401.838 501.977,386.973 503.633 M924.000 503.759 C 854.615 506.267,850.535 507.748,822.378 540.642 C 801.363 565.194,799.135 582.973,800.762 713.192 C 802.334 839.063,802.863 841.865,830.511 870.901 C 840.256 881.136,852.676 889.177,864.000 892.584 C 890.589 900.584,2009.253 900.616,2036.000 892.618 C 2057.189 886.281,2084.880 859.001,2092.803 836.656 C 2098.658 820.145,2100.421 597.375,2094.903 571.448 C 2090.977 553.003,2067.506 522.018,2050.989 513.477 C 2042.230 508.948,2021.004 505.927,1982.162 503.682 C 1920.356 500.110,1023.160 500.176,924.000 503.759 M386.973 1003.633 C 357.701 1006.895,341.841 1016.460,319.082 1044.579 C 302.183 1065.458,299.008 1095.647,300.693 1219.423 C 301.970 1313.263,303.030 1327.801,309.560 1341.068 C 319.823 1361.920,353.225 1391.033,371.292 1394.874 C 379.381 1396.593,440.000 1398.000,506.000 1398.000 C 615.233 1398.000,627.352 1397.328,641.068 1390.512 C 661.975 1380.122,691.042 1346.734,694.874 1328.708 C 698.927 1309.641,698.952 1090.475,694.904 1071.454 C 691.009 1053.153,664.237 1022.347,642.513 1011.168 C 627.074 1003.223,619.105 1002.604,520.000 1001.647 C 461.700 1001.083,401.838 1001.977,386.973 1003.633 M924.000 1003.759 C 854.615 1006.267,850.535 1007.748,822.378 1040.642 C 801.363 1065.194,799.135 1082.973,800.762 1213.192 C 802.334 1339.063,802.863 1341.865,830.511 1370.901 C 840.256 1381.136,852.676 1389.177,864.000 1392.584 C 890.589 1400.584,2009.253 1400.616,2036.000 1392.618 C 2057.189 1386.281,2084.880 1359.001,2092.803 1336.656 C 2098.658 1320.145,2100.421 1097.375,2094.903 1071.448 C 2090.977 1053.003,2067.506 1022.018,2050.989 1013.477 C 2042.230 1008.948,2021.004 1005.927,1982.162 1003.682 C 1920.356 1000.110,1023.160 1000.176,924.000 1003.759 M386.973 1503.633 C 357.701 1506.895,341.841 1516.460,319.082 1544.579 C 302.183 1565.458,299.008 1595.647,300.693 1719.423 C 301.970 1813.263,303.030 1827.801,309.560 1841.068 C 319.823 1861.920,353.225 1891.033,371.292 1894.874 C 379.381 1896.593,440.000 1898.000,506.000 1898.000 C 615.233 1898.000,627.352 1897.328,641.068 1890.512 C 661.975 1880.122,691.042 1846.734,694.874 1828.708 C 698.927 1809.641,698.952 1590.475,694.904 1571.454 C 691.009 1553.153,664.237 1522.347,642.513 1511.168 C 627.074 1503.223,619.105 1502.604,520.000 1501.647 C 461.700 1501.083,401.838 1501.977,386.973 1503.633 M924.000 1503.759 C 854.615 1506.267,850.535 1507.748,822.378 1540.642 C 801.363 1565.194,799.135 1582.973,800.762 1713.192 C 802.334 1839.063,802.863 1841.865,830.511 1870.901 C 840.256 1881.136,852.676 1889.177,864.000 1892.584 C 890.589 1900.584,2009.253 1900.616,2036.000 1892.618 C 2057.189 1886.281,2084.880 1859.001,2092.803 1836.656 C 2098.658 1820.145,2100.421 1597.375,2094.903 1571.448 C 2090.977 1553.003,2067.506 1522.018,2050.989 1513.477 C 2042.230 1508.948,2021.004 1505.927,1982.162 1503.682 C 1920.356 1500.110,1023.160 1500.176,924.000 1503.759 " fill="#1D1E23" stroke="none" fill-rule="evenodd"/></svg>