<svg viewBox="0 0 2400 2400" fill="none" xmlns="http://www.w3.org/2000/svg"><path d="M366.480 708.706 C 333.674 717.868,303.504 762.085,303.150 801.521 C 302.931 825.875,310.773 843.564,331.441 865.339 C 372.790 908.903,426.862 908.197,471.548 863.511 C 491.126 843.933,497.425 826.106,495.197 796.576 C 492.478 760.521,472.936 728.963,444.092 714.048 C 429.213 706.353,385.641 703.355,366.480 708.706 M779.158 706.806 C 752.826 708.329,752.008 708.716,736.106 727.179 C 716.430 750.024,700.000 781.630,700.000 796.635 C 700.000 829.708,732.674 880.226,759.197 888.162 C 785.885 896.146,1118.451 900.490,1564.000 898.675 C 1870.463 897.426,2005.016 895.541,2021.875 892.260 C 2065.670 883.738,2091.591 852.650,2095.035 804.514 C 2096.691 781.363,2095.554 774.872,2086.852 757.813 C 2072.225 729.137,2057.188 716.499,2031.634 711.407 C 2010.942 707.283,844.987 703.000,779.158 706.806 M366.480 1108.706 C 333.674 1117.868,303.504 1162.085,303.150 1201.521 C 302.931 1225.875,310.773 1243.564,331.441 1265.339 C 372.790 1308.903,426.862 1308.197,471.548 1263.511 C 491.126 1243.933,497.425 1226.106,495.197 1196.576 C 492.478 1160.521,472.936 1128.963,444.092 1114.048 C 429.213 1106.353,385.641 1103.355,366.480 1108.706 M779.158 1106.806 C 752.826 1108.329,752.008 1108.716,736.106 1127.179 C 716.430 1150.024,700.000 1181.630,700.000 1196.635 C 700.000 1229.708,732.674 1280.226,759.197 1288.162 C 785.885 1296.146,1118.451 1300.490,1564.000 1298.675 C 1870.463 1297.426,2005.016 1295.541,2021.875 1292.260 C 2065.670 1283.738,2091.591 1252.650,2095.035 1204.514 C 2096.691 1181.363,2095.554 1174.872,2086.852 1157.813 C 2072.225 1129.137,2057.188 1116.499,2031.634 1111.407 C 2010.942 1107.283,844.987 1103.000,779.158 1106.806 M366.480 1508.706 C 333.674 1517.868,303.504 1562.085,303.150 1601.521 C 302.931 1625.875,310.773 1643.564,331.441 1665.339 C 372.790 1708.903,426.862 1708.197,471.548 1663.511 C 491.126 1643.933,497.425 1626.106,495.197 1596.576 C 492.478 1560.521,472.936 1528.963,444.092 1514.048 C 429.213 1506.353,385.641 1503.355,366.480 1508.706 M779.158 1506.806 C 752.826 1508.329,752.008 1508.716,736.106 1527.179 C 716.430 1550.024,700.000 1581.630,700.000 1596.635 C 700.000 1629.708,732.674 1680.226,759.197 1688.162 C 785.885 1696.146,1118.451 1700.490,1564.000 1698.675 C 1870.463 1697.426,2005.016 1695.541,2021.875 1692.260 C 2065.670 1683.738,2091.591 1652.650,2095.035 1604.514 C 2096.691 1581.363,2095.554 1574.872,2086.852 1557.813 C 2072.225 1529.137,2057.188 1516.499,2031.634 1511.407 C 2010.942 1507.283,844.987 1503.000,779.158 1506.806 " fill="#1D1E23" stroke="none" fill-rule="evenodd"/></svg>