<svg viewBox="0 0 2400 2400" fill="none" xmlns="http://www.w3.org/2000/svg"><path d="M300.000 700.000 L 300.000 900.000 500.000 900.000 L 700.000 900.000 700.000 700.000 L 700.000 500.000 500.000 500.000 L 300.000 500.000 300.000 700.000 M800.000 700.000 L 800.000 900.000 1450.000 900.000 L 2100.000 900.000 2100.000 700.000 L 2100.000 500.000 1450.000 500.000 L 800.000 500.000 800.000 700.000 M300.000 1200.000 L 300.000 1400.000 500.000 1400.000 L 700.000 1400.000 700.000 1200.000 L 700.000 1000.000 500.000 1000.000 L 300.000 1000.000 300.000 1200.000 M800.000 1200.000 L 800.000 1400.000 1450.000 1400.000 L 2100.000 1400.000 2100.000 1200.000 L 2100.000 1000.000 1450.000 1000.000 L 800.000 1000.000 800.000 1200.000 M300.000 1700.000 L 300.000 1900.000 500.000 1900.000 L 700.000 1900.000 700.000 1700.000 L 700.000 1500.000 500.000 1500.000 L 300.000 1500.000 300.000 1700.000 M800.000 1700.000 L 800.000 1900.000 1450.000 1900.000 L 2100.000 1900.000 2100.000 1700.000 L 2100.000 1500.000 1450.000 1500.000 L 800.000 1500.000 800.000 1700.000 " fill="#1D1E23" stroke="none" fill-rule="evenodd"/></svg>