<svg viewBox="0 0 2400 2400" fill="none" xmlns="http://www.w3.org/2000/svg"><path d="M364.342 706.868 C 329.056 719.332,300.000 761.388,300.000 800.000 C 300.000 852.737,347.263 900.000,400.000 900.000 C 424.160 900.000,452.144 888.067,470.105 870.105 C 545.368 794.843,465.271 671.220,364.342 706.868 M764.342 706.868 C 729.056 719.332,700.000 761.388,700.000 800.000 C 700.000 824.160,711.933 852.144,729.895 870.105 C 762.127 902.338,709.722 900.000,1400.000 900.000 C 2090.278 900.000,2037.873 902.338,2070.105 870.105 C 2109.232 830.979,2109.232 769.021,2070.105 729.895 C 2037.850 697.639,2090.586 699.961,1398.287 700.316 C 850.824 700.596,780.028 701.328,764.342 706.868 M364.342 1106.868 C 329.056 1119.332,300.000 1161.388,300.000 1200.000 C 300.000 1252.737,347.263 1300.000,400.000 1300.000 C 424.160 1300.000,452.144 1288.067,470.105 1270.105 C 545.368 1194.843,465.271 1071.220,364.342 1106.868 M764.342 1106.868 C 729.056 1119.332,700.000 1161.388,700.000 1200.000 C 700.000 1224.160,711.933 1252.144,729.895 1270.105 C 762.127 1302.338,709.722 1300.000,1400.000 1300.000 C 2090.278 1300.000,2037.873 1302.338,2070.105 1270.105 C 2109.232 1230.979,2109.232 1169.021,2070.105 1129.895 C 2037.850 1097.639,2090.586 1099.961,1398.287 1100.316 C 850.824 1100.596,780.028 1101.328,764.342 1106.868 M364.342 1506.868 C 329.056 1519.332,300.000 1561.388,300.000 1600.000 C 300.000 1652.737,347.263 1700.000,400.000 1700.000 C 424.160 1700.000,452.144 1688.067,470.105 1670.105 C 545.368 1594.843,465.271 1471.220,364.342 1506.868 M764.342 1506.868 C 729.056 1519.332,700.000 1561.388,700.000 1600.000 C 700.000 1624.160,711.933 1652.144,729.895 1670.105 C 762.127 1702.338,709.722 1700.000,1400.000 1700.000 C 2090.278 1700.000,2037.873 1702.338,2070.105 1670.105 C 2109.232 1630.979,2109.232 1569.021,2070.105 1529.895 C 2037.850 1497.639,2090.586 1499.961,1398.287 1500.316 C 850.824 1500.596,780.028 1501.328,764.342 1506.868 " fill="#1D1E23" stroke="none" fill-rule="evenodd"/></svg>