<svg viewBox="0 0 2400 2400" fill="none" xmlns="http://www.w3.org/2000/svg"><path d="M368.428 705.792 C 335.000 716.639,305.718 754.308,301.225 792.246 C 295.090 844.046,346.347 899.922,400.000 899.922 C 434.197 899.922,474.259 873.678,490.815 840.430 C 500.482 821.015,500.256 778.998,490.381 760.000 C 480.394 740.786,460.895 720.791,443.296 711.719 C 423.188 701.354,390.165 698.739,368.428 705.792 M826.000 704.113 C 788.600 705.528,757.510 706.981,756.911 707.343 C 756.311 707.704,747.610 715.569,737.573 724.820 C 703.284 756.427,691.661 797.995,707.256 833.251 C 718.214 858.023,734.707 879.126,748.807 886.417 C 755.131 889.687,778.686 894.021,801.152 896.047 C 854.481 900.856,1945.519 900.856,1998.848 896.047 C 2021.314 894.021,2044.971 889.635,2051.420 886.300 C 2068.336 877.552,2091.123 844.408,2096.633 820.537 C 2102.994 792.983,2096.431 765.109,2077.519 739.345 C 2056.381 710.550,2048.443 707.755,1976.451 703.765 C 1905.920 699.857,930.738 700.151,826.000 704.113 M368.428 1105.792 C 335.000 1116.639,305.718 1154.308,301.225 1192.246 C 295.090 1244.046,346.347 1299.922,400.000 1299.922 C 434.197 1299.922,474.259 1273.678,490.815 1240.430 C 500.482 1221.015,500.256 1178.998,490.381 1160.000 C 480.394 1140.786,460.895 1120.791,443.296 1111.719 C 423.188 1101.354,390.165 1098.739,368.428 1105.792 M826.000 1104.113 C 788.600 1105.528,757.510 1106.981,756.911 1107.343 C 756.311 1107.704,747.610 1115.569,737.573 1124.820 C 703.284 1156.427,691.661 1197.995,707.256 1233.251 C 718.214 1258.023,734.707 1279.126,748.807 1286.417 C 755.131 1289.687,778.686 1294.021,801.152 1296.047 C 854.481 1300.856,1945.519 1300.856,1998.848 1296.047 C 2021.314 1294.021,2044.971 1289.635,2051.420 1286.300 C 2068.336 1277.552,2091.123 1244.408,2096.633 1220.537 C 2102.994 1192.983,2096.431 1165.109,2077.519 1139.345 C 2056.381 1110.550,2048.443 1107.755,1976.451 1103.765 C 1905.920 1099.857,930.738 1100.151,826.000 1104.113 M368.428 1505.792 C 335.000 1516.639,305.718 1554.308,301.225 1592.246 C 295.090 1644.046,346.347 1699.922,400.000 1699.922 C 434.197 1699.922,474.259 1673.678,490.815 1640.430 C 500.482 1621.015,500.256 1578.998,490.381 1560.000 C 480.394 1540.786,460.895 1520.791,443.296 1511.719 C 423.188 1501.354,390.165 1498.739,368.428 1505.792 M826.000 1504.113 C 788.600 1505.528,757.510 1506.981,756.911 1507.343 C 756.311 1507.704,747.610 1515.569,737.573 1524.820 C 703.284 1556.427,691.661 1597.995,707.256 1633.251 C 718.214 1658.023,734.707 1679.126,748.807 1686.417 C 755.131 1689.687,778.686 1694.021,801.152 1696.047 C 854.481 1700.856,1945.519 1700.856,1998.848 1696.047 C 2021.314 1694.021,2044.971 1689.635,2051.420 1686.300 C 2068.336 1677.552,2091.123 1644.408,2096.633 1620.537 C 2102.994 1592.983,2096.431 1565.109,2077.519 1539.345 C 2056.381 1510.550,2048.443 1507.755,1976.451 1503.765 C 1905.920 1499.857,930.738 1500.151,826.000 1504.113 " fill="#1D1E23" stroke="none" fill-rule="evenodd"/></svg>