<svg viewBox="0 0 2400 2400" fill="none" xmlns="http://www.w3.org/2000/svg"><path d="M557.089 1005.747 C 447.638 1032.269,379.365 1140.813,406.337 1245.423 C 424.936 1317.560,482.287 1375.153,554.166 1393.875 C 678.774 1426.332,808.580 1316.828,798.674 1187.611 C 791.246 1090.716,720.253 1016.129,624.105 1004.204 C 584.058 999.237,583.946 999.240,557.089 1005.747 M1157.089 1005.747 C 1047.638 1032.269,979.365 1140.813,1006.337 1245.423 C 1024.936 1317.560,1082.287 1375.153,1154.166 1393.875 C 1278.774 1426.332,1408.580 1316.828,1398.674 1187.611 C 1391.246 1090.716,1320.253 1016.129,1224.105 1004.204 C 1184.058 999.237,1183.946 999.240,1157.089 1005.747 M1757.089 1005.747 C 1647.638 1032.269,1579.365 1140.813,1606.337 1245.423 C 1624.936 1317.560,1682.287 1375.153,1754.166 1393.875 C 1878.774 1426.332,2008.580 1316.828,1998.674 1187.611 C 1991.246 1090.716,1920.253 1016.129,1824.105 1004.204 C 1784.058 999.237,1783.946 999.240,1757.089 1005.747 " fill="#1D1E23" stroke="none" fill-rule="evenodd"/></svg>