<svg viewBox="0 0 2400 2400" fill="none" xmlns="http://www.w3.org/2000/svg"><path d="M1135.311 413.522 C 1103.203 426.728,1064.293 455.697,1044.901 480.832 C 981.224 563.369,987.139 656.749,1060.966 734.470 C 1093.505 768.724,1130.265 789.383,1171.479 796.577 C 1234.796 807.628,1313.786 774.377,1355.516 719.106 C 1400.259 659.844,1409.528 594.562,1383.037 525.267 C 1370.848 493.382,1324.469 444.670,1290.269 427.834 C 1237.423 401.818,1177.273 396.263,1135.311 413.522 M1135.311 1013.522 C 1103.203 1026.728,1064.293 1055.697,1044.901 1080.832 C 981.224 1163.369,987.139 1256.749,1060.966 1334.470 C 1093.505 1368.724,1130.265 1389.383,1171.479 1396.577 C 1234.796 1407.628,1313.786 1374.377,1355.516 1319.106 C 1400.259 1259.844,1409.528 1194.562,1383.037 1125.267 C 1370.848 1093.382,1324.469 1044.670,1290.269 1027.834 C 1237.423 1001.818,1177.273 996.263,1135.311 1013.522 M1135.311 1613.522 C 1103.203 1626.728,1064.293 1655.697,1044.901 1680.832 C 981.224 1763.369,987.139 1856.749,1060.966 1934.470 C 1093.505 1968.724,1130.265 1989.383,1171.479 1996.577 C 1234.796 2007.628,1313.786 1974.377,1355.516 1919.106 C 1400.259 1859.844,1409.528 1794.562,1383.037 1725.267 C 1370.848 1693.382,1324.469 1644.670,1290.269 1627.834 C 1237.423 1601.818,1177.273 1596.263,1135.311 1613.522 " fill="#1D1E23" stroke="none" fill-rule="evenodd"/></svg>