<svg viewBox="0 0 2400 2400" fill="none" xmlns="http://www.w3.org/2000/svg"><path d="M1157.089 405.747 C 1047.638 432.269,979.365 540.813,1006.337 645.423 C 1024.936 717.560,1082.287 775.153,1154.166 793.875 C 1278.774 826.332,1408.580 716.828,1398.674 587.611 C 1391.246 490.716,1320.253 416.129,1224.105 404.204 C 1184.058 399.237,1183.946 399.240,1157.089 405.747 M1157.089 1005.747 C 1047.638 1032.269,979.365 1140.813,1006.337 1245.423 C 1024.936 1317.560,1082.287 1375.153,1154.166 1393.875 C 1278.774 1426.332,1408.580 1316.828,1398.674 1187.611 C 1391.246 1090.716,1320.253 1016.129,1224.105 1004.204 C 1184.058 999.237,1183.946 999.240,1157.089 1005.747 M1157.089 1605.747 C 1047.638 1632.269,979.365 1740.813,1006.337 1845.423 C 1024.936 1917.560,1082.287 1975.153,1154.166 1993.875 C 1278.774 2026.332,1408.580 1916.828,1398.674 1787.611 C 1391.246 1690.716,1320.253 1616.129,1224.105 1604.204 C 1184.058 1599.237,1183.946 1599.240,1157.089 1605.747 " fill="#1D1E23" stroke="none" fill-rule="evenodd"/></svg>