<svg viewBox="0 0 2400 2400" fill="none" xmlns="http://www.w3.org/2000/svg"><path d="M556.000 1006.366 C 494.741 1022.626,445.731 1062.726,419.542 1118.017 C 383.463 1194.188,399.030 1275.567,461.694 1338.369 C 526.006 1402.823,606.246 1416.706,687.353 1377.412 C 714.720 1364.152,754.228 1327.070,771.434 1298.493 C 790.790 1266.343,801.114 1224.844,798.425 1190.000 C 791.032 1094.198,725.879 1023.063,629.857 1005.955 C 590.683 998.975,583.697 999.014,556.000 1006.366 M1156.000 1006.366 C 1094.741 1022.626,1045.731 1062.726,1019.542 1118.017 C 983.463 1194.188,999.030 1275.567,1061.694 1338.369 C 1126.006 1402.823,1206.246 1416.706,1287.353 1377.412 C 1314.720 1364.152,1354.228 1327.070,1371.434 1298.493 C 1390.790 1266.343,1401.114 1224.844,1398.425 1190.000 C 1391.032 1094.198,1325.879 1023.063,1229.857 1005.955 C 1190.683 998.975,1183.697 999.014,1156.000 1006.366 M1756.000 1006.366 C 1694.741 1022.626,1645.731 1062.726,1619.542 1118.017 C 1583.463 1194.188,1599.030 1275.567,1661.694 1338.369 C 1726.006 1402.823,1806.246 1416.706,1887.353 1377.412 C 1914.720 1364.152,1954.228 1327.070,1971.434 1298.493 C 1990.790 1266.343,2001.114 1224.844,1998.425 1190.000 C 1991.032 1094.198,1925.879 1023.063,1829.857 1005.955 C 1790.683 998.975,1783.697 999.014,1756.000 1006.366 " fill="#1D1E23" stroke="none" fill-rule="evenodd"/></svg>