<svg viewBox="0 0 2400 2400" fill="none" xmlns="http://www.w3.org/2000/svg"><path d="M1157.098 405.951 C 1120.430 416.187,1087.494 435.672,1059.756 463.538 C 1009.903 513.622,989.981 579.852,1006.125 641.834 C 1023.160 707.236,1079.428 768.550,1141.866 789.749 C 1202.252 810.250,1272.107 795.447,1325.355 750.865 C 1397.724 690.275,1418.192 596.224,1377.318 512.095 C 1363.296 483.232,1320.715 441.080,1291.316 426.959 C 1245.312 404.861,1191.291 396.406,1157.098 405.951 M1157.098 1005.951 C 1120.430 1016.187,1087.494 1035.672,1059.756 1063.538 C 1009.903 1113.622,989.981 1179.852,1006.125 1241.834 C 1023.160 1307.236,1079.428 1368.550,1141.866 1389.749 C 1202.252 1410.250,1272.107 1395.447,1325.355 1350.865 C 1397.724 1290.275,1418.192 1196.224,1377.318 1112.095 C 1363.296 1083.232,1320.715 1041.080,1291.316 1026.959 C 1245.312 1004.861,1191.291 996.406,1157.098 1005.951 M1157.098 1605.951 C 1120.430 1616.187,1087.494 1635.672,1059.756 1663.538 C 1009.903 1713.622,989.981 1779.852,1006.125 1841.834 C 1023.160 1907.236,1079.428 1968.550,1141.866 1989.749 C 1202.252 2010.250,1272.107 1995.447,1325.355 1950.865 C 1397.724 1890.275,1418.192 1796.224,1377.318 1712.095 C 1363.296 1683.232,1320.715 1641.080,1291.316 1626.959 C 1245.312 1604.861,1191.291 1596.406,1157.098 1605.951 " fill="#1D1E23" stroke="none" fill-rule="evenodd"/></svg>