<svg viewBox="0 0 2400 2400" fill="none" xmlns="http://www.w3.org/2000/svg"><path d="M535.311 1013.522 C 503.203 1026.728,464.293 1055.697,444.901 1080.832 C 381.224 1163.369,387.139 1256.749,460.966 1334.470 C 493.505 1368.724,530.265 1389.383,571.479 1396.577 C 634.796 1407.628,713.786 1374.377,755.516 1319.106 C 800.259 1259.844,809.528 1194.562,783.037 1125.267 C 770.848 1093.382,724.469 1044.670,690.269 1027.834 C 637.423 1001.818,577.273 996.263,535.311 1013.522 M1135.311 1013.522 C 1103.203 1026.728,1064.293 1055.697,1044.901 1080.832 C 981.224 1163.369,987.139 1256.749,1060.966 1334.470 C 1093.505 1368.724,1130.265 1389.383,1171.479 1396.577 C 1234.796 1407.628,1313.786 1374.377,1355.516 1319.106 C 1400.259 1259.844,1409.528 1194.562,1383.037 1125.267 C 1370.848 1093.382,1324.469 1044.670,1290.269 1027.834 C 1237.423 1001.818,1177.273 996.263,1135.311 1013.522 M1735.311 1013.522 C 1703.203 1026.728,1664.293 1055.697,1644.901 1080.832 C 1581.224 1163.369,1587.139 1256.749,1660.966 1334.470 C 1693.505 1368.724,1730.265 1389.383,1771.479 1396.577 C 1834.796 1407.628,1913.786 1374.377,1955.516 1319.106 C 2000.259 1259.844,2009.528 1194.562,1983.037 1125.267 C 1970.848 1093.382,1924.469 1044.670,1890.269 1027.834 C 1837.423 1001.818,1777.273 996.263,1735.311 1013.522 " fill="#1D1E23" stroke="none" fill-rule="evenodd"/></svg>