<svg viewBox="0 0 2400 2400" fill="none" xmlns="http://www.w3.org/2000/svg"><path d="M1156.000 406.366 C 1094.741 422.626,1045.731 462.726,1019.542 518.017 C 983.463 594.188,999.030 675.567,1061.694 738.369 C 1126.006 802.823,1206.246 816.706,1287.353 777.412 C 1314.720 764.152,1354.228 727.070,1371.434 698.493 C 1390.790 666.343,1401.114 624.844,1398.425 590.000 C 1391.032 494.198,1325.879 423.063,1229.857 405.955 C 1190.683 398.975,1183.697 399.014,1156.000 406.366 M1156.000 1006.366 C 1094.741 1022.626,1045.731 1062.726,1019.542 1118.017 C 983.463 1194.188,999.030 1275.567,1061.694 1338.369 C 1126.006 1402.823,1206.246 1416.706,1287.353 1377.412 C 1314.720 1364.152,1354.228 1327.070,1371.434 1298.493 C 1390.790 1266.343,1401.114 1224.844,1398.425 1190.000 C 1391.032 1094.198,1325.879 1023.063,1229.857 1005.955 C 1190.683 998.975,1183.697 999.014,1156.000 1006.366 M1156.000 1606.366 C 1094.741 1622.626,1045.731 1662.726,1019.542 1718.017 C 983.463 1794.188,999.030 1875.567,1061.694 1938.369 C 1126.006 2002.823,1206.246 2016.706,1287.353 1977.412 C 1314.720 1964.152,1354.228 1927.070,1371.434 1898.493 C 1390.790 1866.343,1401.114 1824.844,1398.425 1790.000 C 1391.032 1694.198,1325.879 1623.063,1229.857 1605.955 C 1190.683 1598.975,1183.697 1599.014,1156.000 1606.366 " fill="#1D1E23" stroke="none" fill-rule="evenodd"/></svg>