<svg viewBox="0 0 2400 2400" fill="none" xmlns="http://www.w3.org/2000/svg"><path d="M557.098 1005.951 C 520.430 1016.187,487.494 1035.672,459.756 1063.538 C 409.903 1113.622,389.981 1179.852,406.125 1241.834 C 423.160 1307.236,479.428 1368.550,541.866 1389.749 C 602.252 1410.250,672.107 1395.447,725.355 1350.865 C 797.724 1290.275,818.192 1196.224,777.318 1112.095 C 763.296 1083.232,720.715 1041.080,691.316 1026.959 C 645.312 1004.861,591.291 996.406,557.098 1005.951 M1157.098 1005.951 C 1120.430 1016.187,1087.494 1035.672,1059.756 1063.538 C 1009.903 1113.622,989.981 1179.852,1006.125 1241.834 C 1023.160 1307.236,1079.428 1368.550,1141.866 1389.749 C 1202.252 1410.250,1272.107 1395.447,1325.355 1350.865 C 1397.724 1290.275,1418.192 1196.224,1377.318 1112.095 C 1363.296 1083.232,1320.715 1041.080,1291.316 1026.959 C 1245.312 1004.861,1191.291 996.406,1157.098 1005.951 M1757.098 1005.951 C 1720.430 1016.187,1687.494 1035.672,1659.756 1063.538 C 1609.903 1113.622,1589.981 1179.852,1606.125 1241.834 C 1623.160 1307.236,1679.428 1368.550,1741.866 1389.749 C 1802.252 1410.250,1872.107 1395.447,1925.355 1350.865 C 1997.724 1290.275,2018.192 1196.224,1977.318 1112.095 C 1963.296 1083.232,1920.715 1041.080,1891.316 1026.959 C 1845.312 1004.861,1791.291 996.406,1757.098 1005.951 " fill="#1D1E23" stroke="none" fill-rule="evenodd"/></svg>