<svg viewBox="0 0 2400 2400" fill="none" xmlns="http://www.w3.org/2000/svg"><path d="M1101.905 407.800 C 1012.892 420.745,950.426 438.463,877.553 471.436 C 797.367 507.717,737.937 546.255,672.335 604.510 C 430.140 819.583,342.479 1151.328,446.405 1459.517 C 547.009 1757.852,819.355 1969.319,1137.704 1996.284 C 1275.415 2007.949,1412.755 1981.562,1548.000 1917.454 C 1625.331 1880.799,1689.043 1835.122,1756.328 1768.100 C 1816.887 1707.778,1843.951 1674.321,1885.268 1608.699 C 1925.982 1544.036,1935.521 1509.237,1923.952 1467.587 C 1912.122 1425.001,1849.567 1394.682,1801.372 1408.176 C 1776.129 1415.243,1762.332 1430.042,1712.000 1504.038 C 1688.900 1537.998,1657.813 1580.597,1642.918 1598.702 C 1575.263 1680.937,1461.979 1749.124,1338.000 1782.236 C 1303.402 1791.476,1287.656 1793.195,1221.400 1794.968 C 1129.846 1797.417,1087.188 1791.772,1014.000 1767.524 C 917.585 1735.581,849.098 1693.669,779.882 1624.252 C 696.497 1540.625,638.821 1435.989,617.193 1329.100 C 606.844 1277.951,606.927 1116.250,617.326 1068.816 C 666.243 845.703,851.244 664.838,1081.246 615.268 C 1135.942 603.480,1259.259 602.394,1313.080 613.227 C 1414.932 633.728,1505.886 678.869,1590.076 750.704 L 1620.414 776.590 1558.491 840.130 C 1486.592 913.905,1457.171 948.221,1448.950 967.897 C 1436.569 997.528,1451.467 1050.934,1479.477 1077.336 C 1498.954 1095.695,1510.055 1096.679,1722.795 1098.902 L 1923.589 1101.001 1941.025 1090.783 C 1966.177 1076.043,1990.897 1047.710,1994.615 1029.359 C 1996.327 1020.912,1997.789 924.000,1997.864 814.000 C 1997.999 615.294,1997.943 613.893,1989.175 597.503 C 1969.925 561.516,1940.970 546.615,1894.223 548.637 C 1856.617 550.264,1846.102 556.116,1794.959 603.878 L 1764.403 632.414 1725.201 599.830 C 1600.902 496.515,1457.283 430.341,1318.000 412.210 C 1289.240 408.466,1163.917 399.454,1154.000 400.417 C 1151.800 400.630,1128.357 403.953,1101.905 407.800 " fill="#1D1E23" stroke="none" fill-rule="evenodd"/></svg>