<svg viewBox="0 0 2400 2400" fill="none" xmlns="http://www.w3.org/2000/svg"><path d="M1882.419 519.581 L 1766.890 635.161 1728.445 603.304 C 1623.121 516.026,1525.149 464.501,1390.680 425.666 L 1343.360 412.000 1200.374 412.000 L 1057.387 412.000 1015.694 423.733 C 897.568 456.974,803.652 501.981,716.421 567.150 C 677.596 596.155,610.127 661.326,578.884 700.000 C 481.463 820.591,418.790 975.360,407.533 1123.140 C 395.188 1285.201,417.015 1408.124,482.120 1543.205 C 523.123 1628.279,563.796 1686.985,627.894 1753.608 C 740.372 1870.518,879.555 1947.057,1048.000 1984.631 C 1086.618 1993.246,1099.019 1993.994,1202.000 1993.931 C 1310.774 1993.864,1315.372 1993.537,1361.611 1982.593 C 1573.981 1932.329,1747.556 1814.237,1862.226 1642.000 C 1905.310 1577.288,1971.153 1433.350,1967.163 1412.598 C 1965.319 1403.005,1942.293 1400.637,1847.546 1400.296 L 1765.093 1400.000 1754.064 1425.000 C 1721.081 1499.767,1673.984 1567.080,1610.477 1630.220 C 1549.580 1690.766,1488.776 1729.174,1402.000 1761.910 C 1300.530 1800.189,1169.710 1808.948,1072.015 1784.004 C 950.326 1752.934,864.712 1705.228,781.742 1622.258 C 710.083 1550.599,659.990 1469.832,629.526 1376.831 C 611.201 1320.893,606.414 1273.138,609.193 1174.000 C 611.084 1106.535,613.002 1087.920,621.437 1055.196 C 650.100 943.998,704.622 850.567,786.849 771.738 C 865.423 696.412,973.071 636.892,1066.000 617.391 C 1105.077 609.191,1257.256 605.537,1300.628 611.757 C 1389.990 624.573,1524.431 690.924,1600.000 759.507 L 1622.000 779.473 1462.019 939.736 L 1302.038 1100.000 1651.019 1100.000 L 2000.000 1100.000 2000.000 752.000 C 2000.000 560.600,1999.538 404.000,1998.974 404.000 C 1998.410 404.000,1945.960 456.011,1882.419 519.581 " fill="#1D1E23" stroke="none" fill-rule="evenodd"/></svg>