<svg viewBox="0 0 2400 2400" fill="none" xmlns="http://www.w3.org/2000/svg"><path d="M1098.000 406.535 C 974.047 424.765,858.309 468.641,757.547 535.599 C 569.125 660.807,444.489 857.764,409.249 1086.000 C 400.087 1145.337,400.116 1254.774,409.310 1314.617 C 418.780 1376.266,440.313 1452.258,465.187 1511.817 C 540.546 1692.262,689.884 1846.290,867.311 1926.572 C 1079.596 2022.626,1310.827 2023.953,1524.000 1930.340 C 1665.121 1868.368,1797.964 1751.863,1880.143 1618.000 C 1917.173 1557.681,1976.851 1415.085,1969.824 1403.714 C 1968.509 1401.587,1924.322 1400.000,1866.402 1400.000 L 1765.277 1400.000 1748.450 1439.406 C 1718.146 1510.377,1659.560 1591.113,1599.416 1644.789 C 1533.571 1703.551,1469.100 1741.286,1389.279 1767.782 C 1330.192 1787.396,1294.043 1794.602,1238.000 1797.940 C 940.714 1815.645,674.989 1613.108,613.577 1322.000 C 604.145 1277.293,600.065 1204.323,604.176 1153.886 C 621.615 939.924,741.543 761.986,934.536 663.727 C 1081.627 588.839,1265.028 581.267,1418.000 643.768 C 1485.454 671.329,1547.731 710.336,1596.000 755.260 L 1622.000 779.458 1462.019 939.729 L 1302.038 1100.000 1651.019 1100.000 L 2000.000 1100.000 2000.000 751.025 L 2000.000 402.051 1883.000 518.784 L 1766.000 635.517 1742.000 613.634 C 1634.312 515.442,1494.740 444.288,1353.781 415.716 C 1316.715 408.203,1294.661 406.683,1210.000 405.806 C 1155.000 405.236,1104.600 405.564,1098.000 406.535 " fill="#1D1E23" stroke="none" fill-rule="evenodd"/></svg>