<svg viewBox="0 0 2400 2400" fill="none" xmlns="http://www.w3.org/2000/svg"><path d="M1098.887 408.064 C 1029.847 417.212,975.012 431.193,916.000 454.693 C 807.529 497.889,732.987 545.473,650.754 624.011 C 550.918 719.362,484.469 824.284,441.806 953.935 C 416.287 1031.486,407.531 1081.629,405.059 1164.361 C 401.133 1295.742,418.158 1396.696,462.638 1505.790 C 574.117 1779.208,843.504 1975.223,1136.648 1996.223 C 1203.690 2001.026,1301.550 1996.176,1348.912 1985.704 C 1585.288 1933.438,1760.788 1809.944,1885.901 1607.841 C 1924.098 1546.139,1929.063 1532.763,1927.397 1496.064 C 1926.159 1468.814,1924.364 1462.361,1913.861 1447.418 C 1881.443 1401.292,1811.607 1389.287,1771.587 1422.961 C 1764.872 1428.612,1739.023 1464.007,1714.145 1501.617 C 1665.832 1574.656,1630.348 1618.454,1594.823 1648.898 C 1516.776 1715.781,1422.850 1763.147,1322.928 1786.013 C 1281.133 1795.577,1206.677 1799.868,1151.319 1795.903 C 976.403 1783.373,806.260 1686.409,712.098 1545.591 C 633.427 1427.942,606.364 1338.370,606.474 1196.000 C 606.557 1088.076,622.490 1017.878,666.508 931.510 C 761.349 745.419,952.839 617.815,1157.000 604.659 C 1323.714 593.916,1469.614 643.665,1594.217 753.740 L 1620.342 776.819 1557.171 841.436 C 1456.332 944.584,1444.000 961.327,1444.000 995.089 C 1444.000 1021.741,1453.631 1047.792,1470.974 1068.054 C 1496.329 1097.675,1489.829 1096.853,1716.580 1099.107 L 1919.161 1101.120 1938.242 1091.883 C 1961.970 1080.396,1985.898 1056.186,1992.728 1036.753 C 1996.713 1025.417,1997.924 974.752,1997.957 818.000 C 1997.999 616.577,1997.891 613.798,1989.366 598.000 C 1970.098 562.293,1942.385 546.192,1900.000 546.079 C 1862.676 545.981,1848.716 553.415,1799.217 599.753 L 1764.435 632.315 1726.787 600.662 C 1636.748 524.959,1549.682 475.611,1444.000 440.383 C 1381.306 419.484,1317.439 408.457,1233.540 404.045 C 1191.993 401.860,1157.100 400.228,1156.000 400.417 C 1154.900 400.607,1129.199 404.048,1098.887 408.064 " fill="#1D1E23" stroke="none" fill-rule="evenodd"/></svg>