<svg viewBox="0 0 2400 2400" fill="none" xmlns="http://www.w3.org/2000/svg"><path d="M1116.000 404.513 C 789.289 437.669,507.054 682.602,425.974 1003.341 C 409.127 1069.983,403.121 1120.392,402.779 1198.000 C 401.859 1407.040,478.905 1602.042,621.271 1750.995 C 926.782 2070.643,1425.512 2084.094,1747.951 1781.382 C 1811.388 1721.826,1874.860 1636.779,1912.868 1560.407 C 1927.784 1530.434,1929.984 1522.649,1929.939 1500.000 C 1929.896 1478.777,1927.720 1470.069,1918.094 1452.608 C 1892.111 1405.474,1832.611 1387.114,1784.987 1411.536 C 1763.478 1422.566,1754.543 1433.589,1727.461 1482.498 C 1590.798 1729.309,1320.120 1848.058,1049.402 1779.970 C 904.495 1743.524,778.494 1653.407,698.138 1528.743 C 633.007 1427.698,602.604 1322.420,602.625 1198.000 C 602.653 1033.592,660.594 894.471,777.636 777.782 C 920.724 635.127,1108.240 575.681,1306.371 610.164 C 1404.995 627.329,1519.661 683.851,1592.305 751.108 L 1620.354 777.077 1540.760 857.538 C 1492.368 906.459,1457.542 945.056,1451.920 956.000 C 1432.925 992.973,1442.145 1042.274,1473.805 1073.022 C 1501.425 1099.846,1502.829 1100.000,1720.000 1100.000 C 1940.453 1100.000,1940.178 1100.033,1970.105 1070.105 C 2000.036 1040.174,2000.000 1040.477,2000.000 819.790 C 2000.000 659.168,1998.975 622.100,1994.155 608.439 C 1979.766 567.656,1943.955 542.503,1900.013 542.314 C 1864.492 542.161,1849.770 550.211,1803.264 595.212 L 1764.528 632.696 1727.264 600.033 C 1558.928 452.484,1338.395 381.944,1116.000 404.513 " fill="#1D1E23" stroke="none" fill-rule="evenodd"/></svg>