<svg viewBox="0 0 2400 2400" fill="none" xmlns="http://www.w3.org/2000/svg"><path d="M1142.000 402.303 C 1135.400 403.235,1112.900 405.975,1092.000 408.393 C 965.809 422.992,826.365 481.656,714.000 567.417 C 680.218 593.201,607.644 664.418,578.890 700.000 C 504.774 791.719,451.293 899.844,424.040 1013.070 C 408.090 1079.335,404.000 1117.358,404.000 1199.382 C 404.000 1365.748,446.936 1510.543,535.375 1642.425 C 661.219 1830.085,850.038 1951.277,1078.000 1990.703 C 1138.314 2001.135,1270.425 2000.166,1332.000 1988.841 C 1547.787 1949.153,1727.106 1835.753,1851.994 1660.000 C 1879.343 1621.512,1909.403 1570.882,1922.120 1541.885 C 1932.302 1518.668,1931.700 1478.360,1920.859 1457.430 C 1900.600 1418.318,1853.336 1394.771,1812.291 1403.342 C 1778.219 1410.457,1763.414 1422.886,1737.221 1466.370 C 1666.051 1584.520,1615.054 1641.210,1526.679 1700.416 C 1463.626 1742.657,1394.693 1770.911,1312.000 1788.406 C 1256.869 1800.070,1157.721 1801.020,1098.000 1790.457 C 962.417 1766.476,828.033 1690.819,745.916 1592.238 C 697.789 1534.462,653.024 1455.315,632.159 1391.109 C 599.825 1291.612,594.991 1152.042,620.379 1051.008 C 649.320 935.832,712.034 834.899,806.639 751.237 C 1033.652 550.482,1372.680 551.653,1595.037 753.959 L 1620.075 776.739 1540.283 858.599 C 1456.905 944.138,1444.458 961.279,1443.127 992.387 C 1441.366 1033.518,1469.692 1080.888,1503.130 1092.733 C 1514.685 1096.826,1563.477 1098.000,1722.000 1098.000 L 1926.000 1098.000 1944.907 1088.688 C 1965.584 1078.504,1981.690 1061.713,1991.606 1040.000 C 1997.201 1027.750,1998.000 1000.245,1998.000 820.000 C 1998.000 616.443,1997.897 613.810,1989.351 598.000 C 1969.861 561.949,1939.961 544.000,1899.391 544.000 C 1865.198 544.000,1847.934 553.347,1802.218 596.613 L 1764.127 632.662 1733.439 605.898 C 1611.014 499.125,1471.376 433.418,1316.729 409.811 C 1278.233 403.935,1164.937 399.067,1142.000 402.303 " fill="#1D1E23" stroke="none" fill-rule="evenodd"/></svg>