<svg viewBox="0 0 2400 2400" fill="none" xmlns="http://www.w3.org/2000/svg"><path d="M1882.306 519.693 L 1766.664 635.387 1737.196 609.686 C 1631.532 517.531,1518.596 457.692,1385.369 423.272 L 1334.000 410.000 1200.000 410.000 L 1066.000 410.000 1016.000 422.933 C 773.503 485.655,585.141 637.582,481.556 854.000 C 420.459 981.647,396.897 1104.227,404.477 1255.000 C 412.245 1409.530,477.703 1575.833,581.041 1703.579 C 750.803 1913.439,1024.644 2026.009,1288.000 1994.193 C 1469.855 1972.224,1622.906 1899.258,1753.478 1772.281 C 1847.570 1680.778,1899.248 1601.465,1949.444 1471.518 C 1975.053 1405.222,1975.018 1405.546,1956.947 1402.559 C 1948.726 1401.200,1902.400 1400.069,1854.000 1400.046 L 1766.000 1400.003 1746.087 1443.002 C 1722.511 1493.911,1683.631 1553.511,1644.720 1598.389 C 1523.732 1737.931,1327.834 1815.678,1146.000 1796.317 C 1001.329 1780.913,878.778 1722.889,777.944 1622.056 C 693.923 1538.034,637.826 1435.133,613.277 1320.000 C 602.056 1267.374,603.111 1132.678,615.179 1077.246 C 655.076 893.986,768.357 748.307,936.867 663.560 C 1018.447 622.531,1077.589 608.214,1178.069 605.168 C 1258.228 602.738,1301.963 607.589,1366.000 626.013 C 1440.283 647.385,1537.602 702.250,1596.000 755.681 L 1622.000 779.469 1462.019 939.735 L 1302.038 1100.000 1651.019 1100.000 L 2000.000 1100.000 2000.000 752.000 C 2000.000 560.600,1999.538 404.000,1998.974 404.000 C 1998.410 404.000,1945.909 456.062,1882.306 519.693 " fill="#1D1E23" stroke="none" fill-rule="evenodd"/></svg>