<svg viewBox="0 0 2400 2400" fill="none" xmlns="http://www.w3.org/2000/svg"><path d="M1099.274 408.018 C 999.202 424.329,941.342 441.801,862.000 479.669 C 772.166 522.544,707.501 568.403,635.979 639.959 C 401.231 874.819,338.459 1223.857,475.553 1532.000 C 515.410 1621.584,569.296 1697.178,646.638 1772.002 C 767.009 1888.454,906.325 1958.978,1074.000 1988.341 C 1145.470 2000.857,1256.569 2001.061,1324.000 1988.800 C 1459.308 1964.197,1584.725 1910.073,1681.458 1834.538 C 1725.319 1800.289,1799.884 1725.862,1833.256 1683.020 C 1943.829 1541.071,1956.376 1459.171,1874.000 1417.062 C 1849.512 1404.544,1809.328 1402.676,1789.458 1413.132 C 1773.902 1421.318,1751.491 1446.519,1723.787 1486.979 C 1679.272 1551.992,1636.479 1606.969,1610.498 1632.526 C 1543.998 1697.939,1441.267 1754.275,1336.604 1782.725 C 1300.340 1792.583,1292.303 1793.242,1204.000 1793.609 C 1112.981 1793.988,1108.617 1793.640,1066.383 1782.634 C 935.797 1748.604,844.360 1694.733,759.574 1601.876 C 697.128 1533.486,648.837 1447.151,625.406 1362.013 C 613.534 1318.873,608.356 1228.863,612.446 1136.728 C 616.054 1055.470,629.770 1005.920,670.008 928.791 C 700.060 871.186,731.417 828.632,778.151 782.034 C 857.306 703.109,949.797 650.596,1065.008 619.166 C 1095.227 610.922,1106.740 610.159,1202.000 610.083 C 1312.256 609.995,1313.899 610.200,1384.000 632.744 C 1449.710 653.877,1529.443 699.769,1591.138 751.967 L 1620.276 776.620 1557.426 841.310 C 1474.821 926.333,1449.326 958.428,1445.821 981.801 C 1442.238 1005.693,1449.958 1036.077,1465.453 1059.071 C 1485.898 1089.409,1494.323 1092.373,1571.117 1096.245 C 1674.097 1101.437,1922.778 1100.906,1933.263 1095.471 C 1951.727 1085.901,1976.391 1062.757,1986.489 1045.527 L 1997.022 1027.553 1997.511 820.777 C 1997.995 616.269,1997.906 613.824,1989.389 598.000 C 1970.696 563.265,1946.544 550.334,1900.000 550.141 C 1858.712 549.970,1846.680 556.022,1797.276 601.809 L 1764.552 632.137 1721.276 597.324 C 1575.598 480.132,1436.962 422.060,1270.000 408.292 C 1171.133 400.138,1147.849 400.101,1099.274 408.018 " fill="#1D1E23" stroke="none" fill-rule="evenodd"/></svg>