<svg viewBox="0 0 2400 2400" fill="none" xmlns="http://www.w3.org/2000/svg"><path d="M1882.489 519.511 L 1767.029 635.022 1726.514 601.104 C 1625.461 516.504,1518.118 460.094,1392.860 425.765 L 1342.636 412.000 1200.000 412.000 L 1057.364 412.000 1007.140 425.765 C 712.066 506.636,497.488 721.526,426.321 1007.430 C 408.233 1080.093,406.000 1101.696,406.000 1204.000 C 406.000 1291.480,407.017 1306.938,415.477 1348.000 C 477.697 1650.018,692.032 1884.165,982.990 1967.976 C 1062.712 1990.939,1109.157 1997.291,1198.000 1997.381 C 1283.509 1997.468,1321.074 1992.987,1397.828 1973.543 C 1615.467 1918.412,1814.958 1757.085,1911.677 1558.000 C 1936.874 1506.135,1968.000 1426.932,1968.000 1414.681 C 1968.000 1406.300,1965.654 1404.766,1949.442 1402.544 C 1939.235 1401.145,1893.578 1400.000,1847.982 1400.000 L 1765.080 1400.000 1752.169 1429.613 C 1710.355 1525.515,1628.527 1628.464,1548.983 1685.247 C 1482.208 1732.914,1395.235 1770.640,1310.591 1788.653 C 1256.273 1800.213,1155.949 1800.994,1100.000 1790.294 C 1011.404 1773.349,913.989 1731.919,849.906 1683.929 C 734.536 1597.534,653.600 1477.283,617.727 1338.968 C 603.707 1284.911,603.697 1127.506,617.711 1067.630 C 659.949 887.155,776.847 741.809,945.578 659.972 C 1030.457 618.804,1086.397 607.160,1202.000 606.594 C 1284.230 606.191,1318.858 610.844,1378.729 630.339 C 1445.979 652.236,1545.275 709.936,1598.000 757.756 L 1622.000 779.523 1462.019 939.762 L 1302.038 1100.000 1651.019 1100.000 L 2000.000 1100.000 2000.000 752.000 C 2000.000 560.600,1999.538 404.000,1998.974 404.000 C 1998.410 404.000,1945.991 455.980,1882.489 519.511 " fill="#1D1E23" stroke="none" fill-rule="evenodd"/></svg>