<svg viewBox="0 0 2400 2400" fill="none" xmlns="http://www.w3.org/2000/svg"><path d="M1120.022 404.070 C 808.455 436.701,545.775 645.477,444.412 941.039 C 335.708 1258.004,437.167 1610.949,697.539 1821.600 C 839.740 1936.646,1018.058 1999.934,1200.000 1999.934 C 1529.986 1999.934,1827.849 1794.260,1945.531 1485.144 C 1957.639 1453.342,1972.000 1408.439,1972.000 1402.384 C 1972.000 1401.073,1925.578 1400.000,1868.841 1400.000 L 1765.682 1400.000 1750.392 1436.108 C 1719.043 1510.143,1674.826 1573.001,1610.538 1634.921 C 1529.425 1713.047,1434.428 1762.885,1317.034 1788.903 C 1260.567 1801.418,1139.799 1801.320,1082.638 1788.713 C 849.261 1737.243,672.680 1567.619,617.806 1342.196 C 571.708 1152.828,622.504 946.162,749.918 804.694 C 894.452 644.217,1096.558 573.649,1306.821 610.243 C 1406.021 627.508,1522.136 685.149,1593.490 752.552 L 1622.000 779.483 1462.019 939.742 L 1302.038 1100.000 1651.019 1100.000 L 2000.000 1100.000 2000.000 751.025 L 2000.000 402.051 1883.000 518.585 L 1766.000 635.119 1728.000 601.191 C 1616.246 501.412,1470.847 432.940,1321.763 409.884 C 1273.012 402.345,1165.953 399.259,1120.022 404.070 " fill="#1D1E23" stroke="none" fill-rule="evenodd"/></svg>