<svg viewBox="0 0 2400 2400" fill="none" xmlns="http://www.w3.org/2000/svg"><path d="M1166.966 349.716 C 1147.199 356.770,1113.136 387.591,978.136 520.574 C 859.696 637.245,807.834 693.294,793.000 720.657 C 769.070 764.798,797.425 832.830,846.760 849.640 C 869.734 857.468,899.891 857.824,917.480 850.475 C 933.216 843.900,977.184 803.058,1105.000 676.286 L 1200.000 582.063 1295.000 676.286 C 1416.665 796.957,1465.023 842.255,1481.002 850.518 C 1498.361 859.495,1530.262 858.913,1552.176 849.219 C 1590.695 832.180,1618.989 787.825,1614.659 751.266 C 1613.368 740.366,1608.254 724.823,1603.294 716.724 C 1579.332 677.599,1260.170 360.677,1233.514 349.539 C 1216.921 342.606,1186.665 342.686,1166.966 349.716 M1485.889 1549.340 C 1464.210 1559.232,1423.901 1595.683,1311.150 1707.356 L 1200.301 1817.147 1071.150 1689.932 C 1000.118 1619.965,936.600 1559.413,930.000 1555.374 C 920.827 1549.760,909.938 1548.026,883.783 1548.015 C 853.087 1548.002,847.736 1549.163,831.783 1559.298 C 796.318 1581.829,778.876 1622.792,787.789 1662.619 C 792.345 1682.978,796.476 1688.502,845.118 1739.280 C 942.499 1840.937,1041.698 1940.499,1100.758 1995.855 C 1150.853 2042.809,1162.308 2051.631,1178.456 2055.698 C 1198.981 2060.866,1223.416 2058.424,1240.947 2049.452 C 1268.820 2035.187,1568.560 1737.242,1597.575 1694.959 C 1640.971 1631.717,1600.978 1552.848,1522.000 1545.920 C 1506.000 1544.516,1493.963 1545.656,1485.889 1549.340 " fill="#1D1E23" stroke="none" fill-rule="evenodd"/></svg>