<svg viewBox="0 0 2400 2400" fill="none" xmlns="http://www.w3.org/2000/svg"><path d="M811.997 470.003 L 742.056 540.030 972.015 770.015 L 1201.974 1000.000 1430.973 771.027 L 1659.972 542.054 1589.016 471.015 L 1518.060 399.977 1359.030 558.970 L 1200.000 717.962 1040.969 558.969 L 881.939 399.976 811.997 470.003 M970.015 1631.985 L 742.056 1859.970 811.997 1929.997 L 881.939 2000.024 1040.969 1841.031 L 1200.000 1682.038 1359.031 1841.031 L 1518.061 2000.024 1588.003 1929.997 L 1657.944 1859.970 1429.985 1631.985 C 1304.608 1506.593,1201.114 1404.000,1200.000 1404.000 C 1198.886 1404.000,1095.392 1506.593,970.015 1631.985 " fill="#1D1E23" stroke="none" fill-rule="evenodd"/></svg>