<svg viewBox="0 0 2400 2400" fill="none" xmlns="http://www.w3.org/2000/svg"><path d="M1176.285 348.660 C 1153.337 355.251,1132.054 372.656,1043.267 457.438 C 910.554 584.165,819.663 679.712,797.110 716.204 C 764.054 769.689,804.151 845.946,869.632 854.127 C 916.494 859.982,921.613 856.177,1093.299 687.863 L 1200.598 582.671 1281.299 662.784 C 1395.428 776.083,1466.713 842.478,1482.031 849.747 C 1512.252 864.087,1554.073 853.916,1581.731 825.499 C 1615.130 791.183,1622.863 753.203,1603.250 719.814 C 1583.549 686.275,1403.951 503.160,1278.313 388.514 C 1232.326 346.549,1211.695 338.491,1176.285 348.660 M1473.558 1558.489 C 1448.421 1575.437,1404.686 1615.822,1299.292 1719.407 L 1200.184 1816.813 1072.966 1692.260 C 1002.996 1623.755,940.404 1564.184,933.874 1559.880 C 924.240 1553.529,914.984 1552.048,884.801 1552.026 C 843.585 1551.997,833.546 1555.451,813.203 1576.659 C 795.424 1595.193,788.000 1615.405,788.000 1645.271 C 788.000 1666.977,789.703 1673.151,799.376 1686.504 C 828.784 1727.101,1079.579 1980.714,1139.224 2030.170 C 1179.209 2063.325,1211.021 2066.947,1247.898 2042.542 C 1268.780 2028.723,1399.498 1904.211,1477.714 1823.636 C 1613.953 1683.288,1627.486 1661.561,1609.830 1611.518 C 1591.367 1559.188,1516.014 1529.865,1473.558 1558.489 " fill="#1D1E23" stroke="none" fill-rule="evenodd"/></svg>