<svg viewBox="0 0 2400 2400" fill="none" xmlns="http://www.w3.org/2000/svg"><path d="M1170.992 349.707 C 1149.044 357.540,1134.492 369.726,1046.000 454.382 C 894.540 599.276,806.191 693.540,791.463 725.958 C 769.957 773.298,803.673 839.447,855.666 851.920 C 884.925 858.939,913.361 854.940,931.444 841.262 C 951.122 826.378,1008.729 771.473,1113.000 668.219 L 1200.001 582.067 1289.000 670.306 C 1414.699 794.929,1467.783 844.318,1482.758 850.574 C 1515.356 864.195,1553.598 854.924,1582.009 826.513 C 1622.225 786.296,1625.426 741.365,1590.927 701.318 C 1514.990 613.169,1266.444 369.573,1235.530 353.000 C 1216.511 342.804,1193.609 341.636,1170.992 349.707 M1493.091 1547.998 C 1472.889 1552.622,1433.576 1587.066,1312.451 1706.265 L 1200.080 1816.849 1079.040 1697.923 C 1012.468 1632.514,950.065 1572.473,940.368 1564.499 C 922.817 1550.067,922.558 1550.000,884.368 1550.000 C 847.831 1550.000,845.134 1550.602,827.849 1562.608 C 801.996 1580.566,786.482 1610.365,786.557 1641.919 C 786.593 1656.825,789.237 1671.016,793.496 1679.166 C 806.688 1704.406,1074.563 1976.672,1141.033 2032.399 C 1169.953 2056.645,1189.851 2062.649,1219.381 2056.041 C 1245.309 2050.238,1262.915 2035.337,1387.679 1913.600 C 1493.128 1810.710,1594.161 1703.287,1604.450 1683.117 C 1628.408 1636.157,1610.121 1580.933,1563.291 1558.819 C 1539.658 1547.659,1512.714 1543.506,1493.091 1547.998 " fill="#1D1E23" stroke="none" fill-rule="evenodd"/></svg>