<svg viewBox="0 0 2400 2400" fill="none" xmlns="http://www.w3.org/2000/svg"><path d="M1177.328 343.647 C 1170.358 345.412,1156.858 351.465,1147.328 357.099 C 1137.798 362.733,1055.815 441.849,965.145 532.911 C 786.396 712.433,784.248 715.094,784.088 757.128 C 783.876 812.865,826.018 857.069,879.726 857.447 C 923.301 857.754,922.836 858.108,1067.028 714.606 L 1200.055 582.215 1333.028 714.647 C 1432.907 814.120,1469.484 848.117,1480.000 851.253 C 1509.633 860.090,1520.097 860.540,1542.933 853.959 C 1561.052 848.737,1570.308 842.881,1586.084 826.656 C 1607.784 804.338,1616.058 784.611,1615.912 755.536 C 1615.730 719.266,1609.871 712.225,1428.836 530.730 C 1334.876 436.532,1251.511 356.078,1243.580 351.945 C 1226.553 343.071,1195.144 339.137,1177.328 343.647 M841.845 1551.514 C 821.494 1560.758,794.857 1590.689,788.704 1611.227 C 781.562 1635.065,783.110 1659.893,793.051 1680.984 C 799.821 1695.346,843.400 1741.463,972.000 1870.357 C 1066.374 1964.946,1148.667 2044.171,1156.987 2048.447 C 1179.695 2060.118,1203.240 2061.941,1230.393 2054.130 C 1253.697 2047.427,1256.200 2045.145,1425.127 1876.670 C 1613.332 1688.969,1616.070 1685.604,1615.912 1642.215 C 1615.798 1610.863,1606.252 1590.183,1582.065 1568.893 C 1560.861 1550.228,1543.790 1544.013,1514.000 1544.110 C 1476.078 1544.234,1467.430 1551.013,1328.999 1689.129 L 1199.999 1817.836 1068.999 1687.105 C 981.466 1599.750,933.066 1554.320,923.128 1550.186 C 902.709 1541.692,862.004 1542.357,841.845 1551.514 " fill="#1D1E23" stroke="none" fill-rule="evenodd"/></svg>