<svg viewBox="0 0 2400 2400" fill="none" xmlns="http://www.w3.org/2000/svg"><path d="M970.015 531.985 L 742.056 759.970 811.997 829.997 L 881.939 900.024 1040.969 741.031 L 1200.000 582.038 1359.031 741.031 L 1518.061 900.024 1588.003 829.997 L 1657.944 759.970 1429.985 531.985 C 1304.608 406.593,1201.114 304.000,1200.000 304.000 C 1198.886 304.000,1095.392 406.593,970.015 531.985 M812.015 1569.985 L 742.090 1639.995 970.045 1868.873 C 1095.420 1994.755,1198.522 2098.628,1199.160 2099.702 C 1199.798 2100.775,1303.742 1998.244,1430.146 1871.854 L 1659.972 1642.054 1589.016 1571.015 L 1518.060 1499.977 1359.030 1658.970 L 1200.000 1817.962 1040.969 1658.969 L 881.939 1499.976 812.015 1569.985 " fill="#1D1E23" stroke="none" fill-rule="evenodd"/></svg>