<svg xmlns="http://www.w3.org/2000/svg" width="1200" height="1200" fill="none"><g fill="#1D1E23" clip-path="url(#a)"><path d="M246.393 64.489c-19.53-19.513-51.381-19.637-69.049 1.577A549.96 549.96 0 0 0 50 417.99a549.94 549.94 0 0 0 127.331 351.905c17.671 21.225 49.534 21.095 69.062 1.565l2.197-2.195c19.526-19.53 19.271-51.03 2.047-72.615a446.84 446.84 0 0 1-.013-557.366c17.227-21.592 17.476-53.107-2.065-72.631zM951.26 66.954c-19.54 19.523-19.29 51.039-2.065 72.63a446.84 446.84 0 0 1-.015 557.366c-17.22 21.585-17.475 53.09 2.05 72.615l2.195 2.195c19.53 19.53 51.39 19.66 69.065-1.56a549.96 549.96 0 0 0-.015-703.833c-17.67-21.214-49.52-21.091-69.05-1.577z"/><path d="M807.605 210.476c19.525-19.526 51.53-19.707 68.02 2.444a343.71 343.71 0 0 1 0 410.48c-16.49 22.15-48.495 21.97-68.02 2.445l-2.2-2.2c-19.525-19.525-18.99-50.985-3.915-74.12a240.6 240.6 0 0 0 39.025-131.365c0-46.999-13.75-92.581-39.025-131.366-15.075-23.135-15.61-54.592 3.915-74.118zM392.22 210.476c-19.526-19.526-51.532-19.707-68.022 2.444a343.73 343.73 0 0 0 0 410.48c16.49 22.15 48.496 21.97 68.022 2.445l2.2-2.2c19.526-19.525 18.99-50.985 3.913-74.12a240.604 240.604 0 0 1 0-262.731c15.077-23.135 15.613-54.592-3.913-74.118zM516.23 309.079a137.48 137.48 0 0 1 83.68-28.417 137.48 137.48 0 0 1 83.685 28.417 137.5 137.5 0 0 1 49.1 73.484c7.83 29.23 5.8 60.228-5.78 88.188a137.47 137.47 0 0 1-58.26 66.454v541.965c0 27.615-22.385 50-50 50H581.17c-27.615 0-50-22.385-50-50V537.205a137.49 137.49 0 0 1-14.94-228.126"/></g><defs><clipPath id="a"><path fill="#fff" d="M0 0h1200v1200H0z"/></clipPath></defs></svg>