<svg xmlns="http://www.w3.org/2000/svg" width="1200" height="1200" fill="none"><g fill="#1D1E23" clip-path="url(#a)"><path d="m283.945 123.04-.096-.097.096-.096z"/><path d="M283.849 122.943 211.034 50a549.951 549.951 0 0 0 0 777.66l72.911-72.91a446.832 446.832 0 0 1-.096-631.807M988.785 50.108l-72.91 73.039a446.84 446.84 0 0 1 130.865 315.951A446.85 446.85 0 0 1 915.875 755.05l72.91 72.91a549.943 549.943 0 0 0 0-777.659z"/><path d="m770.05 268.87 72.91-72.911A343.73 343.73 0 0 1 943.63 439a343.73 343.73 0 0 1-100.67 243.04l-72.91-72.91A240.6 240.6 0 0 0 840.515 439a240.6 240.6 0 0 0-70.465-170.13M356.864 195.959a343.72 343.72 0 0 0 0 486.081l72.911-72.91a240.61 240.61 0 0 1 0-340.26zM516.23 329.918a137.48 137.48 0 0 1 83.68-28.416 137.48 137.48 0 0 1 83.685 28.416 137.5 137.5 0 0 1 49.1 73.484c7.83 29.23 5.8 60.228-5.78 88.188a137.5 137.5 0 0 1-58.26 66.455v591.965H531.17V558.045a137.493 137.493 0 0 1-64.039-154.643 137.5 137.5 0 0 1 49.099-73.484"/></g><defs><clipPath id="a"><path fill="#fff" d="M0 0h1200v1200H0z"/></clipPath></defs></svg>