<svg xmlns="http://www.w3.org/2000/svg" width="1200" height="1200" fill="none" viewBox="0 0 1200 1200"><g clip-path="url(#a)"><path fill="#000" d="M833.5 200H700v-50c0-27.5-22.5-50-50-50H550c-27.5 0-50 22.5-50 50v50H366.5c-36.5 0-66.5 30-66.5 66.5V1033c0 37 30 67 67 67h466c37 0 67-30 67-66.5v-767c0-36.5-30-66.5-66.5-66.5M650 900H550V800h100zm0-250c0 27.5-22.5 50-50 50s-50-22.5-50-50V500c0-27.5 22.5-50 50-50s50 22.5 50 50z"/></g><defs><clipPath id="a"><path fill="#fff" d="M0 0h1200v1200H0z"/></clipPath></defs></svg>