<svg xmlns="http://www.w3.org/2000/svg" width="1200" height="1200" fill="none"><g clip-path="url(#a)"><path fill="#1D1E23" d="M964.5 894.505 305.498 235.002c-19.5-19.499-50.999-19.499-70.499 0-19.501 19.5-19.501 51 0 70.5L529.5 600.005l-244.501 244.5c-19.501 19.5-19.501 51 0 70.5 19.499 19.5 50.999 19.5 70.499 0L550 720.505v309c0 44.5 54 66.995 85.5 35.5l179.5-179.5 79.5 79.5c19.5 19.5 51 19.5 70.5 0 19-19.5 19-51.5-.5-70.5m-314.5 14v-188l94 94zm0-617.003 94 94-73.5 73.5 70.5 70.503 109-108.503c19.5-19.5 19.5-51 0-71l-214.5-214.5c-31.5-31.5-85.5-9.5-85.5 35v168l100 100z"/></g><defs><clipPath id="a"><path fill="#fff" d="M0 0h1200v1200H0z"/></clipPath></defs></svg>