<svg width="1200" height="1200" viewBox="0 0 1200 1200" fill="none" xmlns="http://www.w3.org/2000/svg"><g clip-path="url(#clip0_231_4427)"><path d="M799 514.005L730 583.005C720 593.005 720 608.505 730 618.505L799 687.505C813 701.505 836.5 695.005 841.5 676.005C847 651.005 850 626.005 850 600.005C850 574.505 847 549.505 841 526.005C836.5 507.005 813 500.005 799 514.005ZM1005 389.002C992.5 361.502 956 355.502 935 377.002C922 390.002 919.5 409.002 926.5 426.002C949.5 479.502 962.5 538.005 962.5 599.505C962.5 661.505 949.5 720.505 926 774.005C919 790.005 921.5 808.505 934 821.005C954.5 841.505 989 835.505 1001.5 809.505C1033 744.505 1050.5 671.505 1050.5 594.505C1050 522.005 1034 452.003 1005 389.002ZM570.5 600.005L750 421.002C769.5 401.502 769.5 370.002 750 350.002L535.5 135.502C504 104.002 449.998 126.002 449.998 170.502V479.502L255.498 285.002C235.999 265.502 204.499 265.502 184.999 285.002C165.498 304.502 165.498 336.002 184.999 355.502L429.498 600.005L184.999 844.505C165.498 864.005 165.498 895.505 184.999 915.005C204.499 934.505 235.999 934.505 255.498 915.005L449.998 720.505V1029.505C449.998 1074.005 504 1096.5 535.5 1065.005L750 850.005C769.5 830.505 769.5 799.005 750 779.005L570.5 600.005ZM550 291.502L644 385.502L550 479.502V291.502ZM550 908.505V720.505L644 814.505L550 908.505Z" fill="black"/></g><defs><clipPath id="clip0_231_4427"><path width="24" fill="white" d="M0 0H1200V1200H0V0z"/></clipPath></defs></svg>