<svg width="1200" height="1200" viewBox="0 0 1200 1200" fill="none" xmlns="http://www.w3.org/2000/svg"><g clip-path="url(#clip0_231_4434)"><path d="M1000.005 765.505L1095.005 670.505C1134.005 631.505 1134.005 568.005 1095.005 529.005L1000.005 434.507V300.007C1000.005 245.007 955.005 200.007 900.005 200.007H765.505L670.505 105.007C631.505 66.007 568.005 66.007 529.005 105.007L434.507 200.007H300.007C245.007 200.007 200.007 245.007 200.007 300.007V434.507L105.007 529.505C66.007 568.505 66.007 632.005 105.007 671.005L200.007 766.005V900.005C200.007 955.005 245.007 1000.005 300.007 1000.005H434.507L529.505 1095.005C568.505 1134.005 632.005 1134.005 671.005 1095.005L766.005 1000.005H900.005C955.005 1000.005 1000.005 955.005 1000.005 900.005V765.505ZM600.005 845.005V355.007C600.005 324.507 627.505 299.507 657.505 305.507C795.505 332.507 900.005 454.007 900.005 600.005C900.005 746.005 795.505 867.505 657.505 894.505C627.505 900.505 600.005 875.505 600.005 845.005Z" fill="#1D1E23"/></g><defs><clipPath id="clip0_231_4434"><path width="24" fill="white" d="M0 0H1200V1200H0V0z"/></clipPath></defs></svg>