<svg xmlns="http://www.w3.org/2000/svg" width="1200" height="1200" fill="none"><g clip-path="url(#a)"><path fill="#1D1E23" d="M925 200c41.5 0 75 33.5 75 75v650c0 41.5-33.5 75-75 75s-75-33.5-75-75V275c0-41.5 33.5-75 75-75M325 700c41.5 0 75 33.5 75 75v150c0 41.5-33.5 75-75 75s-75-33.5-75-75V775c0-41.5 33.5-75 75-75m300-250c41.5 0 75 33.5 75 75v400c0 41.5-33.5 75-75 75s-75-33.5-75-75V525c0-41.5 33.5-75 75-75"/></g><defs><clipPath id="a"><path fill="#fff" d="M0 0h1200v1200H0z"/></clipPath></defs></svg>