<svg xmlns="http://www.w3.org/2000/svg" width="1200" height="1200" fill="none"><g fill="#1D1E23" clip-path="url(#a)"><path d="M706.25 756.25H503.125a203.37 203.37 0 0 1-143.563-59.56A203.36 203.36 0 0 1 300 553.125v-250A203.34 203.34 0 0 1 503.125 100h156.25a203.35 203.35 0 0 1 143.56 59.563A203.35 203.35 0 0 1 862.5 303.125V475l-93.75-93.75v-78.125a109.49 109.49 0 0 0-32.07-77.305 109.5 109.5 0 0 0-77.305-32.07h-156.25A109.495 109.495 0 0 0 393.75 303.125v250A109.49 109.49 0 0 0 503.125 662.5H706.25z"/><path d="M659.375 1100h-156.25a203.37 203.37 0 0 1-143.563-59.56A203.36 203.36 0 0 1 300 896.875V725l93.75 93.75v78.125a109.49 109.49 0 0 0 109.375 109.375h156.25c29-.03 56.8-11.565 77.305-32.07a109.49 109.49 0 0 0 32.07-77.305v-250c-.03-29-11.565-56.8-32.07-77.305a109.49 109.49 0 0 0-77.305-32.07H456.25v-93.75h203.125A203.36 203.36 0 0 1 862.5 646.875v250a203.36 203.36 0 0 1-59.57 143.555A203.36 203.36 0 0 1 659.375 1100"/></g><defs><clipPath id="a"><path fill="#fff" d="M0 0h1200v1200H0z"/></clipPath></defs></svg>