<svg xmlns="http://www.w3.org/2000/svg" width="1200" height="1200" fill="none" viewBox="0 0 1200 1200"><g clip-path="url(#a)"><path fill="#000" d="M1074 685 675 450V175c0-41.5-33.5-75-75-75s-75 33.5-75 75v275L126 685c-16 9-26 26.5-26 45 0 35 33.5 60 67 50.5l358-105V950l-113 67.5c-7.5 4.5-12 13-12 21.5v29c0 16.5 15.5 28.5 31 24.5l146-36.5 23-6 19 4.5 21 5.5 95 24 33.5 8.5c16 4 31-8 31-24.5v-29c0-9-4.5-17-12-21.5L675 950V675l358 105c33.5 10 67-15 67-50 0-18.5-10-36-26-45"/></g><defs><clipPath id="a"><path fill="#fff" d="M0 0h1200v1200H0z"/></clipPath></defs></svg>