<svg xmlns="http://www.w3.org/2000/svg" width="1200" height="1200" fill="none"><g fill="#000" clip-path="url(#a)"><path d="M125.84 579.17h132.279V500h77.064v193.855h-77.064v-69.48H125.84v69.48H50V500h75.84zM367.238 500H601.74a51 51 0 0 1 36.015 14.945A51 51 0 0 1 652.7 550.96v91.935a51 51 0 0 1-14.945 36.015 51.05 51.05 0 0 1-36.015 14.945H367.238l-.3-114.665h73.39l.323 66.43H579.29v-97.365H366.938zM992.455 500H683.34v193.96h73.495v-145.6h69.91v145.6h73.05v-145.6h69.91v145.6h73.41V551.005a50.8 50.8 0 0 0-3.79-19.475 50.77 50.77 0 0 0-27.425-27.605A50.7 50.7 0 0 0 992.455 500M1074.16 500H1150v79.17l-.3 26.105.3 19.1v69.48h-75.84z"/></g><defs><clipPath id="a"><path fill="#fff" d="M0 0h1200v1200H0z"/></clipPath></defs></svg>