<svg width="1200" height="1200" viewBox="0 0 1200 1200" fill="none" xmlns="http://www.w3.org/2000/svg"><g clip-path="url(#clip0_133_56)"><path d="M600 350C462 350 350 462 350 600C350 738 462 850 600 850C738 850 850 738 850 600C850 462 738 350 600 350ZM550 50V250H650V50H550ZM550 950V1150H650V950H550ZM1150 550H950V650H1150V550ZM250 550H50V650H250V550ZM812 883L935.5 1006.5L1006 936L882.5 812.5L812 883ZM193.5 264L317 387.5L387.5 317L264 193.5L193.5 264ZM317 812L193.5 935.5L264 1006L387.5 882.5L317 812ZM936 193.5L812.5 317L883 387.5L1006.5 264L936 193.5Z" fill="black"/></g><defs><clipPath id="clip0_133_56"><path width="24" fill="white" d="M0 0H1200V1200H0V0z"/></clipPath></defs></svg>