<svg xmlns="http://www.w3.org/2000/svg" width="1200" height="1200" fill="none"><g clip-path="url(#a)"><path fill="#1D1E23" d="M600 350c-138 0-250 112-250 250s112 250 250 250 250-112 250-250-112-250-250-250M550 50v200h100V50zm0 900v200h100V950zm600-400H950v100h200zm-900 0H50v100h200zm562 333 123.5 123.5L1006 936 882.5 812.5zM193.5 264 317 387.5l70.5-70.5L264 193.5zM317 812 193.5 935.5 264 1006l123.5-123.5zm619-618.5L812.5 317l70.5 70.5L1006.5 264z"/></g><defs><clipPath id="a"><path fill="#fff" d="M0 0h1200v1200H0z"/></clipPath></defs></svg>