<svg xmlns="http://www.w3.org/2000/svg" width="1200" height="1200" fill="none" viewBox="0 0 1200 1200"><g fill="#000" clip-path="url(#a)"><path d="M427.653 463.629V790.01h-76.855V463.629a36.738 36.738 0 1 0-73.48 0V790.01h-77.005V463.629a36.74 36.74 0 0 0-73.479 0V790.01H50V463.629a113.5 113.5 0 0 1 18.153-61.687 113.5 113.5 0 0 1 112.465-50.638 113.5 113.5 0 0 1 58.219 27.301 113.492 113.492 0 0 1 170.676 23.333 113.5 113.5 0 0 1 18.14 61.691M538.23 409.957c0 18.747-16.765 33.795-37.515 33.795-20.657-.021-37.469-15.242-37.49-33.924s16.704-33.945 37.45-33.859c20.745.086 37.555 15.243 37.555 33.988M799.895 601.205h-54.69a3.736 3.736 0 0 1-3.46-3.87V466.413c-.02-39.19 28.465-78.144 86.505-78.144 45.21.043 82.19 25.045 82.19 63.031v15.264c0 9.609-11.93 21.434-27.58 21.369-15.655-.065-28.295-10.599-28.295-21.111 0 0 1.935-25.282-25.665-24.357-16.19.581-25.67 10.125-25.67 27.324.13 10.706.13 127.656.13 127.656.02.475-.05.95-.21 1.395a3.7 3.7 0 0 1-.735 1.21c-.325.35-.71.63-1.145.83-.43.2-.9.31-1.375.325"/><path fill-rule="evenodd" d="M1102.225 591.005a108.2 108.2 0 0 1-59.965 18.425 108 108 0 0 1-41.61-8.07 108 108 0 0 1-35.295-23.465 108.1 108.1 0 0 1-23.54-35.245 108 108 0 0 1-8.16-41.59 108.17 108.17 0 0 1 129.24-105.913 108.18 108.18 0 0 1 84.995 84.81 108.16 108.16 0 0 1-6.015 62.438 108.2 108.2 0 0 1-39.65 48.61m-39.09-121.256a37.86 37.86 0 0 0-21.045-6.376 38.13 38.13 0 0 0-26.655 11.14 38.12 38.12 0 0 0-11.18 26.632 37.85 37.85 0 0 0 6.335 21.06 37.9 37.9 0 0 0 16.975 13.98 37.87 37.87 0 0 0 41.29-8.16 37.868 37.868 0 0 0 8.235-41.276 37.9 37.9 0 0 0-13.955-17"/><path d="m820.375 695.405 14.295-40.265c28.175-.155 42.085.215 62.52.76 5.425.145 11.345.305 18.08.465 8.125.28 21.945 1.375 38.695 3.72L885.17 702.93c-12.2-3.04-24.62-5.12-37.145-6.215-10.765-1.065-15.85-1.125-21.235-1.185-1.995-.025-4.035-.05-6.415-.125M918.205 716.635c.63.405 1.245.84 1.83 1.31l116.6-38.695a223 223 0 0 0-27.13-9.695l-100.91 40.63a96 96 0 0 1 9.61 6.45M654.205 602.525h35.75c22.51 0 30.895-14.55 30.915-33.6.02-19.045-9.245-34.395-32.245-34.395H658.42c-6.99 0-29.39-5.805-29.435-34.591 0-25.11 21.5-34.612 29.35-34.547h34.89c16.855 0 27.41-15.457 27.365-34.396-.045-18.94-12.6-33.365-28.225-33.408H652.27c-30.095 0-92.16 34.977-92.095 101.039 0 70.773 63.805 103.898 94.03 103.898M500.895 453.662c-26.766 0-35.924 11.48-35.924 26.701l.107 118.622a3.463 3.463 0 0 0 3.439 3.335l64.668.13a3.55 3.55 0 0 0 3.46-3.355s-.11-112.949-.13-117.528c.02-16.468-9.005-27.841-35.62-27.905M663.46 743.745c-6.125-1.815-13.24-3.77-20.71-5.825-30.37-8.35-66.68-18.335-66.68-27.235 0-12.85 31.84-13.65 57.4-14.29 2.315-.06 4.59-.115 6.77-.18 28.68-.795 139.865-.945 139.865-.945l14.125-40.03s-80.015-2.15-159.365 1.74c-114.325 5.74-135.67 31.065-138.357 55.315-3.483 31.625 38.977 53.49 64.687 63.27 7.01 2.68 15.195 5.16 23.305 7.62 20.275 6.145 40.115 12.155 40.115 20.8 0 9.845-14.665 10.6-56.8 9.845-65.265-1.14-120.192-7.72-120.192-7.72l-25.648 70.815s62.344 4.3 128.71 4.3c5 0 9.955.01 14.86.02 87.825.18 158.715.33 172.3-58.9 10.06-44.265-28.425-65.01-74.385-78.6M928.04 725.835l137.8-34.715c21.95 10.745 40.225 24.465 49.79 42.005 8.515 15.52 6.73 31.535-3.14 47.19-72.835 90.44-253.565 96.8-339.05 99.805-7.01.245-13.38.47-18.995.715l32.25-90.545a481 481 0 0 0 64.79-6.775 228 228 0 0 0 44.245-13.025c12.17-5.185 21.865-11.2 27.945-17.35 6.085-6.15 8.88-12.77 7.785-19.22a18.4 18.4 0 0 0-1.57-4.925 19.6 19.6 0 0 0-1.85-3.16"/></g><defs><clipPath id="a"><path fill="#fff" d="M0 0h1200v1200H0z"/></clipPath></defs></svg>