<svg xmlns="http://www.w3.org/2000/svg" width="1200" height="1200" fill="none"><g clip-path="url(#a)"><path fill="#000" d="M950.005 50H450.006c-55 0-100 45-100 100v100c0 27.5 22.5 50 50 50s50-22.5 50-50v-50h499.999v800H450.006v-50c0-27.5-22.5-50-50-50s-50 22.5-50 50v100c0 55 45 100 100 100h499.999c55 0 100-45 100-100V150c0-55-45-100-100-100M350.506 673.5l-96-96c-17.5-17.5-46-17.5-63.5 0s-17.5 46 0 63.5l123.5 123.5c19.5 19.5 51 19.5 70.5 0L677.505 472c17.5-17.5 17.5-46 0-63.5s-46-17.5-63.5 0z"/></g><defs><clipPath id="a"><path fill="#fff" d="M0 0h1200v1200H0z"/></clipPath></defs></svg>