<svg width="1200" height="1200" viewBox="0 0 1200 1200" fill="none" xmlns="http://www.w3.org/2000/svg"><g clip-path="url(#clip0_133_47)"><path d="M823.99 126C987.49 203.5 1104.49 362 1122.49 550H1197.49C1171.99 242 914.49 0 599.99 0L566.99 1.5L757.49 192L823.99 126ZM375.99 1074C212.49 997 95.49 838 77.49 650H2.49C27.99 958 285.49 1200 599.99 1200L632.99 1198.5L442.49 1008L375.99 1074ZM458.49 34.5L34.49 458.5L741.49 1165.5L1165.49 741.5L458.49 34.5ZM741.49 1059.5L140.49 458.5L458.49 140.5L1059.49 741.5L741.49 1059.5Z" fill="#1D1E23"/></g><defs><clipPath id="clip0_133_47"><path width="24" fill="white" d="M0 0H1200V1200H0V0z"/></clipPath></defs></svg>