<svg xmlns="http://www.w3.org/2000/svg" width="1200" height="1200" fill="none" viewBox="0 0 1200 1200"><g clip-path="url(#a)"><path fill="#000" d="M750 350v200h50v100H650V250h100L600 50 450.002 250H550v400H400.002V546.5c35-18.5 60-54 60-96.5 0-60.5-49.499-110-110-110s-110 49.5-110 110c0 42.5 25 78 60 96.5V650c0 55.5 44.5 100 100 100H550v152.5c-35.5 18.5-59.997 55-59.997 97.5 0 61 49.497 110 109.997 110s110-49 110-110c0-42.5-24.5-79-60-97.5V750h150c55.505 0 100-44.5 100-100V550h50V350z"/></g><defs><clipPath id="a"><path fill="#fff" d="M0 0h1200v1200H0z"/></clipPath></defs></svg>