<svg xmlns="http://www.w3.org/2000/svg" width="1200" height="1200" fill="none"><g clip-path="url(#a)"><path fill="#000" d="m1050 550.005 100-99.998c-186.5-186.5-443.5-257.5-685-215.5l129 129c165-1 330.5 61 456 186.498m-600 300 150 150 150-150c-82.5-83-217-83-300 0m500-200c-54-54-118-92.5-186-116.5l151 151zM170.5 82.007l-70.5 70.5 152.5 152.5c-73 36.5-141.5 84.5-202.5 145l100 99.998c61.5-61.498 132.5-107.998 208.5-138.998l112 111.998c-81 21.5-157 64-220.5 127l100 100c67.5-67.5 155.5-102 244.5-103l354 354 70.5-70.5z"/></g><defs><clipPath id="a"><path fill="#fff" d="M0 0h1200v1200H0z"/></clipPath></defs></svg>