<svg width="1200" height="1200" viewBox="0 0 1200 1200" fill="none" xmlns="http://www.w3.org/2000/svg"><g clip-path="url(#clip0_231_4447)"><path d="M1182.005 349.989C1159.505 332.989 935.505 149.989 600.005 149.989C534.005 149.989 472.506 156.989 415.505 168.989L921.505 674.99L1182.005 349.989ZM206.006 100.49C186.505 80.99 155.005 80.99 135.505 100.49C116.006 119.989 116.006 151.49 135.505 170.989L203.005 238.489C95.505 287.989 29.505 340.99 18.005 349.989L522.005 977.99C562.005 1027.99 638.005 1027.99 678.005 977.99L795.505 831.49L926.005 961.99C945.505 981.49 977.005 981.49 996.505 961.99C1016.005 942.49 1016.005 910.99 996.505 891.49L206.006 100.49Z" fill="black"/></g><defs><clipPath id="clip0_231_4447"><path width="24" fill="white" d="M0 0H1200V1200H0V0z"/></clipPath></defs></svg>