<svg xmlns="http://www.w3.org/2000/svg" width="1200" height="1200" fill="none"><g clip-path="url(#a)"><path fill="#1D1E23" d="M1182.005 349.989c-22.5-17-246.5-200-582-200-66 0-127.499 7-184.5 19l506 506.001zM206.006 100.49c-19.501-19.5-51.001-19.5-70.501 0-19.499 19.499-19.499 51 0 70.499l67.5 67.5c-107.5 49.5-173.5 102.501-185 111.5l504 628.001c40 50 116 50 156 0l117.5-146.5 130.5 130.5c19.5 19.5 51 19.5 70.5 0s19.5-51 0-70.5z"/></g><defs><clipPath id="a"><path fill="#fff" d="M0 0h1200v1200H0z"/></clipPath></defs></svg>