<svg viewBox="0 0 24 24" fill="none" xmlns="http://www.w3.org/2000/svg"><g><path d="M8.12 19.3002C8.51 19.6902 9.14 19.6902 9.53 19.3002L12 16.8302L14.47 19.3002C14.86 19.6902 15.49 19.6902 15.88 19.3002C16.27 18.9102 16.27 18.2802 15.88 17.8902L12.71 14.7202C12.32 14.3302 11.69 14.3302 11.3 14.7202L8.13 17.8902C7.73 18.2702 7.73 18.9102 8.12 19.3002ZM15.88 4.70021C15.49 4.31021 14.86 4.31021 14.47 4.70021L12 7.17022L9.53 4.70021C9.14 4.31021 8.51 4.31021 8.12 4.70021C7.73 5.09021 7.73 5.73021 8.12 6.12021L11.29 9.29022C11.68 9.68021 12.31 9.68021 12.7 9.29022L15.87 6.12021C16.27 5.73021 16.27 5.09021 15.88 4.70021Z" fill="#1D1E23"/></g></svg>