<svg xmlns="http://www.w3.org/2000/svg" width="1200" height="1200" fill="none"><g clip-path="url(#a)"><path fill="#1D1E23" d="M200 350c0 27.614 22.386 50 50 50h100c27.614 0 50-22.386 50-50V250c0-27.614-22.386-50-50-50H250c-27.614 0-50 22.386-50 50zm300 600c0 27.615 22.385 50 50 50h100c27.615 0 50-22.385 50-50V850c0-27.615-22.385-50-50-50H550c-27.615 0-50 22.385-50 50zm-300 0c0 27.615 22.386 50 50 50h100c27.614 0 50-22.385 50-50V850c0-27.615-22.386-50-50-50H250c-27.614 0-50 22.385-50 50zm0-300c0 27.615 22.386 50 50 50h100c27.614 0 50-22.385 50-50V550c0-27.615-22.386-50-50-50H250c-27.614 0-50 22.385-50 50zm300 0c0 27.615 22.385 50 50 50h100c27.615 0 50-22.385 50-50V550c0-27.615-22.385-50-50-50H550c-27.615 0-50 22.385-50 50zm350-450c-27.615 0-50 22.386-50 50v100c0 27.614 22.385 50 50 50h100c27.615 0 50-22.386 50-50V250c0-27.614-22.385-50-50-50zM500 350c0 27.614 22.385 50 50 50h100c27.615 0 50-22.386 50-50V250c0-27.614-22.385-50-50-50H550c-27.615 0-50 22.386-50 50zm300 300c0 27.615 22.385 50 50 50h100c27.615 0 50-22.385 50-50V550c0-27.615-22.385-50-50-50H850c-27.615 0-50 22.385-50 50zm0 300c0 27.615 22.385 50 50 50h100c27.615 0 50-22.385 50-50V850c0-27.615-22.385-50-50-50H850c-27.615 0-50 22.385-50 50z"/></g><defs><clipPath id="a"><path fill="#fff" d="M0 0h1200v1200H0z"/></clipPath></defs></svg>