<svg width="1200" height="1200" viewBox="0 0 1200 1200" fill="none" xmlns="http://www.w3.org/2000/svg"><g clip-path="url(#clip0_247_566)"><path d="M550 250V808.5L305.999 564.5C286.498 545 254.499 545 234.999 564.5C215.498 584 215.498 615.5 234.999 635L564.5 964.5C584 984 615.5 984 635 964.5L964.5 635C984 615.5 984 584 964.5 564.5C945 545 913.5 545 894 564.5L650 808.5V250C650 222.5 627.5 200 600 200C572.5 200 550 222.5 550 250Z" fill="black"/></g><defs><clipPath id="clip0_247_566"><path width="24" fill="white" d="M0 0H1200V1200H0V0z"/></clipPath></defs></svg>