<svg width="1200" height="1200" viewBox="0 0 1200 1200" fill="none" xmlns="http://www.w3.org/2000/svg"><g clip-path="url(#clip0_225_2892)"><path d="M950 550.01H391.499L635.5 306.01C655 286.51 655 254.511 635.5 235.011C616 215.51 584.5 215.51 565 235.011L235.499 564.51C215.999 584.01 215.999 615.51 235.499 635.01L565 964.51C584.5 984.01 616 984.01 635.5 964.51C655 945.01 655 913.51 635.5 894.01L391.499 650.01H950C977.5 650.01 1000 627.51 1000 600.01C1000 572.51 977.5 550.01 950 550.01Z" fill="#1D1E23"/></g><defs><clipPath id="clip0_225_2892"><path width="24" fill="white" d="M0 0H1200V1200H0V0z"/></clipPath></defs></svg>