<svg xmlns="http://www.w3.org/2000/svg" width="1200" height="1200" fill="none"><g clip-path="url(#a)"><path fill="#000" d="M600 100c-276.5 0-500 223.5-500 500s223.5 500 500 500 500-223.5 500-500-223.5-500-500-500m215 715c-19.5 19.5-51 19.5-70.5 0L600 670.5 455.5 815c-19.5 19.5-51 19.5-70.5 0s-19.5-51 0-70.5L529.5 600 385 455.5c-19.5-19.5-19.5-51 0-70.5s51-19.5 70.5 0L600 529.5 744.5 385c19.5-19.5 51-19.5 70.5 0s19.5 51 0 70.5L670.5 600 815 744.5c19 19 19 51 0 70.5"/></g><defs><clipPath id="a"><path fill="#fff" d="M0 0h1200v1200H0z"/></clipPath></defs></svg>