<svg width="1200" height="1200" viewBox="0 0 1200 1200" fill="none" xmlns="http://www.w3.org/2000/svg"><g clip-path="url(#clip0_225_2884)"><path d="M915 285.511C895.5 266.011 864 266.011 844.5 285.511L600 529.51L355.498 285.011C335.998 265.51 304.498 265.51 284.999 285.011C265.498 304.51 265.498 336.011 284.999 355.511L529.5 600.01L284.999 844.51C265.498 864.01 265.498 895.51 284.999 915.01C304.498 934.51 335.998 934.51 355.498 915.01L600 670.51L844.5 915.01C864 934.51 895.5 934.51 915 915.01C934.5 895.51 934.5 864.01 915 844.51L670.5 600.01L915 355.511C934 336.511 934 304.511 915 285.511Z" fill="#1D1E23"/></g><defs><clipPath id="clip0_225_2884"><path width="24" fill="white" d="M0 0H1200V1200H0V0z"/></clipPath></defs></svg>