<svg xmlns="http://www.w3.org/2000/svg" width="1200" height="1200" fill="none"><g clip-path="url(#a)"><path fill="#1D1E23" d="M50 900c0 55.23 44.772 100 100 100h100c55.228 0 100-44.77 100-100V300c0-55.228-44.772-100-100-100H150c-55.228 0-100 44.772-100 100zm900-700c-55.23 0-100 44.772-100 100v600c0 55.23 44.77 100 100 100h100c55.23 0 100-44.77 100-100V300c0-55.228-44.77-100-100-100zM450 900c0 55.23 44.771 100 100 100h100c55.23 0 100-44.77 100-100V300c0-55.228-44.77-100-100-100H550c-55.229 0-100 44.772-100 100z"/></g><defs><clipPath id="a"><path fill="#fff" d="M0 0h1200v1200H0z"/></clipPath></defs></svg>