<svg xmlns="http://www.w3.org/2000/svg" width="1200" height="1200" fill="none" viewBox="0 0 1200 1200"><g clip-path="url(#a)"><path fill="#000" d="M200 650h300c27.5 0 50-22.5 50-50V200c0-27.5-22.5-50-50-50H200c-27.5 0-50 22.5-50 50v400c0 27.5 22.5 50 50 50m0 400h300c27.5 0 50-22.5 50-50V800c0-27.5-22.5-50-50-50H200c-27.5 0-50 22.5-50 50v200c0 27.5 22.5 50 50 50m500 0h300c27.5 0 50-22.5 50-50V600c0-27.5-22.5-50-50-50H700c-27.5 0-50 22.5-50 50v400c0 27.5 22.5 50 50 50m-50-850v200c0 27.5 22.5 50 50 50h300c27.5 0 50-22.5 50-50V200c0-27.5-22.5-50-50-50H700c-27.5 0-50 22.5-50 50"/></g><defs><clipPath id="a"><path fill="#fff" d="M0 0h1200v1200H0z"/></clipPath></defs></svg>