<svg xmlns="http://www.w3.org/2000/svg" width="1200" height="1200" fill="none"><path fill="#000" d="m391.24 600.005 193.75 195c9.165 9.165 13.96 20.625 14.375 34.375q.624 20.625-14.375 35.625c-9.165 9.165-20.835 13.75-35 13.75s-25.835-4.585-35-13.75l-230-230q-7.5-7.499-10.625-16.25-3.125-8.753-3.125-18.75t3.125-18.75q3.125-8.751 10.625-16.25l230-230q13.749-13.75 34.375-14.375 20.625-.624 35.625 14.375 13.749 13.75 13.75 35-.001 21.25-13.75 35.001zm330 0 193.75 195c9.165 9.165 13.96 20.625 14.375 34.375q.624 20.625-14.375 35.625c-9.165 9.165-20.835 13.75-35 13.75s-25.835-4.585-35-13.75l-230-230q-7.499-7.499-10.625-16.25-3.126-8.753-3.125-18.75-.001-9.998 3.125-18.75 3.126-8.751 10.625-16.25l230-230q13.749-13.75 34.375-14.375 20.625-.624 35.625 14.375 13.749 13.75 13.75 35-.001 21.25-13.75 35.001z"/></svg>