<svg xmlns="http://www.w3.org/2000/svg" width="1200" height="1200" fill="none" viewBox="0 0 1200 1200"><g clip-path="url(#a)"><path fill="#000" d="M100 1000c0 55.23 44.772 100 100 100h800c55.23 0 100-44.77 100-100s-44.77-100-100-100H200c-55.228 0-100 44.77-100 100m0-400c0 55.23 44.772 100 100 100h800c55.23 0 100-44.77 100-100s-44.77-100-100-100H200c-55.228 0-100 44.77-100 100m100-500c-55.228 0-100 44.772-100 100s44.772 100 100 100h800c55.23 0 100-44.772 100-100s-44.77-100-100-100z"/></g><defs><clipPath id="a"><path fill="#fff" d="M0 0h1200v1200H0z"/></clipPath></defs></svg>