<svg xmlns="http://www.w3.org/2000/svg" width="1200" height="1200" fill="none" viewBox="0 0 1200 1200"><g clip-path="url(#a)"><path fill="#000" d="M600 100c-276 0-500 224-500 500s224 500 500 500 500-224 500-500-224-500-500-500m0 900c-220.5 0-400-179.5-400-400s179.5-400 400-400 400 179.5 400 400-179.5 400-400 400m-50-200h100v100H550zm80.5-498c-103-15-194 48.5-221.5 139.5-9 29 13 58.5 43.5 58.5h10c20.5 0 37-14.5 44-33.5 16-44.5 63.5-75 115-64 47.5 10 82.5 56.5 78.5 105-5 67-81 81.5-122.5 144 0 .5-.5.5-.5 1-.5 1-1 1.5-1.5 2.5-4.5 7.5-9 16-12.5 25-.5 1.5-1.5 2.5-2 4-.5 1-.5 2-1 3.5-6 17-10 37.5-10 62.5h100c0-21 5.5-38.5 14-53.5 1-1.5 1.5-3 2.5-4.5 4-7 9-13.5 14-19.5.5-.5 1-1.5 1.5-2 5-6 10.5-11.5 16.5-17 48-45.5 113-82.5 99.5-178-12-87-80.5-160.5-167.5-173.5"/></g><defs><clipPath id="a"><path fill="#fff" d="M0 0h1200v1200H0z"/></clipPath></defs></svg>