<svg xmlns="http://www.w3.org/2000/svg" width="1200" height="1200" fill="none"><g clip-path="url(#a)"><path fill="#1D1E23" d="M600 100c-276 0-500 224-500 500s224 500 500 500 500-224 500-500-224-500-500-500m50 850H550V850h100zm103.5-387.5-45 46C672.5 645 650 675 650 750H550v-25c0-55 22.5-105 58.5-141.5l62-63c18.5-18 29.5-43 29.5-70.5 0-55-45-100-100-100s-100 45-100 100H400c0-110.5 89.5-200 200-200s200 89.5 200 200c0 44-18 84-46.5 112.5"/></g><defs><clipPath id="a"><path fill="#fff" d="M0 0h1200v1200H0z"/></clipPath></defs></svg>