<svg xmlns="http://www.w3.org/2000/svg" width="1200" height="1200" fill="none"><g clip-path="url(#a)"><path fill="#000" d="M550 900h100V800H550zm50-800c-276 0-500 224-500 500s224 500 500 500 500-224 500-500-224-500-500-500m0 900c-220.5 0-400-179.5-400-400s179.5-400 400-400 400 179.5 400 400-179.5 400-400 400m0-700c-110.5 0-200 89.5-200 200h100c0-55 45-100 100-100s100 45 100 100c0 100-150 87.5-150 250h100c0-112.5 150-125 150-250 0-110.5-89.5-200-200-200"/></g><defs><clipPath id="a"><path fill="#fff" d="M0 0h1200v1200H0z"/></clipPath></defs></svg>