<svg width="1200" height="1200" viewBox="0 0 1200 1200" fill="none" xmlns="http://www.w3.org/2000/svg"><g clip-path="url(#clip0_117_776)"><path d="M150 650H250V550H150V650ZM150 850H250V750H150V850ZM150 450H250V350H150V450ZM350 650H1050V550H350V650ZM350 850H1050V750H350V850ZM350 350V450H1050V350H350ZM150 650H250V550H150V650ZM150 850H250V750H150V850ZM150 450H250V350H150V450ZM350 650H1050V550H350V650ZM350 850H1050V750H350V850ZM350 350V450H1050V350H350Z" fill="black"/></g><defs><clipPath id="clip0_117_776"><path width="24" fill="white" d="M0 0H1200V1200H0V0z"/></clipPath></defs></svg>