<svg width="1200" height="1200" viewBox="0 0 1200 1200" fill="none" xmlns="http://www.w3.org/2000/svg"><g clip-path="url(#clip0_225_2889)"><path d="M882.5 317.5C801 236 685.5 189 558.5 202C375.001 220.499 224.001 369.5 203.501 553C176.001 795.5 363.501 1000 600 1000C759.5 1000 896.5 906.5 960.5 772C976.5 738.5 952.5 700 915.5 700C897 700 879.5 710 871.5 726.5C815 848 679.5 925 531.5 892C420.501 867.5 331.001 777 307.501 666C265.501 472 413.001 300 600 300C683 300 757 334.5 811 389L735.5 464.499C704 496 726 550 770.5 550H950C977.5 550 1000 527.5 1000 500V320.499C1000 276 946 253.499 914.5 285L882.5 317.5Z" fill="black"/></g><defs><clipPath id="clip0_225_2889"><path width="24" fill="white" d="M0 0H1200V1200H0V0z"/></clipPath></defs></svg>