<svg width="1200" height="1200" viewBox="0 0 1200 1200" fill="none" xmlns="http://www.w3.org/2000/svg"><g clip-path="url(#clip0_117_969)"><path d="M882.5 317.5C810 245 710.5 200 600 200C379 200 200.501 379 200.501 600C200.501 821 379 1000 600 1000C786.5 1000 942 872.5 986.5 700H882.5C841.5 816.5 730.5 900 600 900C434.5 900 300 765.5 300 600C300 434.5 434.5 300 600 300C683 300 757 334.5 811 389L650 550H1000V200L882.5 317.5Z" fill="#1D1E23"/></g><defs><clipPath id="clip0_117_969"><path width="24" fill="white" d="M0 0H1200V1200H0V0z"/></clipPath></defs></svg>