<svg xmlns="http://www.w3.org/2000/svg" width="1200" height="1200" fill="none" viewBox="0 0 1200 1200"><g clip-path="url(#a)"><path fill="#000" d="M882.5 317.5C801 236 685.5 189 558.5 202c-183.499 18.499-334.499 167.5-354.999 351-27.5 242.5 160 447 396.499 447 159.5 0 296.5-93.5 360.5-228 16-33.5-8-72-45-72-18.5 0-36 10-44 26.5C815 848 679.5 925 531.5 892c-110.999-24.5-200.499-115-223.999-226-42-194 105.5-366 292.499-366 83 0 157 34.5 211 89l-75.5 75.499C704 496 726 550 770.5 550H950c27.5 0 50-22.5 50-50V320.499c0-44.499-54-67-85.5-35.499z"/></g><defs><clipPath id="a"><path fill="#fff" d="M0 0h1200v1200H0z"/></clipPath></defs></svg>