<svg xmlns="http://www.w3.org/2000/svg" width="1200" height="1200" fill="none" viewBox="0 0 1200 1200"><g clip-path="url(#a)"><path fill="#000" d="M406.001 965c19.499 19.5 50.999 19.5 70.5 0L600 841.5 723.5 965c19.5 19.5 51 19.5 70.5 0s19.5-51 0-70.5L635.5 736c-19.5-19.5-51-19.5-70.5 0L406.501 894.5c-20.001 19-20.001 51-.5 70.5M794 234.999c-19.5-19.501-51-19.501-70.5 0L600 358.499l-123.499-123.5c-19.501-19.501-51.001-19.501-70.5 0-19.501 19.5-19.501 51.499 0 71l158.499 158.5c19.5 19.5 51 19.5 70.5 0l158.5-158.5c20-19.501 20-51.5.5-71"/></g><defs><clipPath id="a"><path fill="#fff" d="M0 0h1200v1200H0z"/></clipPath></defs></svg>