<svg viewBox="0 0 2400 2400" fill="none" xmlns="http://www.w3.org/2000/svg"><path d="M458.041 404.669 C 385.821 418.556,319.927 484.839,304.420 559.197 C 298.181 589.114,298.181 1810.886,304.420 1840.803 C 320.053 1915.765,384.235 1979.947,459.197 1995.580 C 489.170 2001.830,1910.830 2001.830,1940.803 1995.580 C 2015.765 1979.947,2079.947 1915.765,2095.580 1840.803 C 2101.819 1810.886,2101.819 589.114,2095.580 559.197 C 2081.788 493.062,2034.082 438.710,1966.000 411.568 L 1942.000 402.000 1210.000 401.416 C 756.582 401.054,470.404 402.292,458.041 404.669 M1034.017 906.625 C 1060.999 915.818,1085.723 941.375,1093.735 968.356 C 1097.433 980.807,1100.000 1004.485,1100.000 1026.134 C 1100.000 1057.695,1098.727 1064.707,1090.880 1076.350 C 1085.864 1083.793,1077.314 1092.133,1071.880 1094.883 C 1058.129 1101.841,995.237 1101.460,978.137 1094.315 C 964.935 1088.799,952.000 1070.925,952.000 1058.199 C 952.000 1052.762,939.448 1052.000,849.951 1052.000 L 747.903 1052.000 748.951 1201.000 L 750.000 1350.000 849.099 1351.070 C 940.897 1352.061,948.359 1351.619,950.391 1345.070 C 961.867 1308.076,975.380 1300.000,1025.803 1300.000 C 1085.377 1300.000,1099.960 1314.602,1099.985 1374.274 C 1100.005 1422.844,1092.234 1447.976,1070.465 1469.745 C 1040.653 1499.558,1037.430 1500.000,850.000 1500.000 C 662.949 1500.000,659.293 1499.504,629.895 1470.105 C 599.684 1439.895,600.000 1442.749,600.000 1200.000 C 600.000 957.166,599.673 960.117,629.967 929.823 C 658.892 900.898,660.559 900.672,848.287 900.316 C 993.131 900.041,1017.082 900.854,1034.017 906.625 M1734.017 906.625 C 1760.999 915.818,1785.723 941.375,1793.735 968.356 C 1797.433 980.807,1800.000 1004.485,1800.000 1026.134 C 1800.000 1057.695,1798.727 1064.707,1790.880 1076.350 C 1785.864 1083.793,1777.314 1092.133,1771.880 1094.883 C 1758.129 1101.841,1695.237 1101.460,1678.137 1094.315 C 1664.935 1088.799,1652.000 1070.925,1652.000 1058.199 C 1652.000 1052.762,1639.448 1052.000,1549.951 1052.000 L 1447.903 1052.000 1448.951 1201.000 L 1450.000 1350.000 1549.099 1351.070 C 1640.897 1352.061,1648.359 1351.619,1650.391 1345.070 C 1661.867 1308.076,1675.380 1300.000,1725.803 1300.000 C 1785.377 1300.000,1799.960 1314.602,1799.985 1374.274 C 1800.005 1422.844,1792.234 1447.976,1770.465 1469.745 C 1740.653 1499.558,1737.430 1500.000,1550.000 1500.000 C 1362.949 1500.000,1359.293 1499.504,1329.895 1470.105 C 1299.684 1439.895,1300.000 1442.749,1300.000 1200.000 C 1300.000 957.166,1299.673 960.117,1329.967 929.823 C 1358.892 900.898,1360.559 900.672,1548.287 900.316 C 1693.131 900.041,1717.082 900.854,1734.017 906.625 " fill="#1D1E23" stroke="none" fill-rule="evenodd"/></svg>