<svg viewBox="0 0 2400 2400" fill="none" xmlns="http://www.w3.org/2000/svg"><path d="M461.884 407.647 C 438.336 409.618,429.171 412.734,405.474 426.828 C 370.594 447.573,336.669 483.534,319.961 517.474 C 308.734 540.279,306.940 548.845,303.814 594.565 C 299.230 661.610,299.230 1738.390,303.814 1805.435 C 306.962 1851.485,308.692 1859.652,320.334 1883.435 C 337.938 1919.399,380.784 1962.152,416.982 1979.872 C 442.659 1992.442,447.009 1993.239,506.982 1996.356 C 589.106 2000.625,1810.894 2000.625,1893.018 1996.356 C 1952.991 1993.239,1957.341 1992.442,1983.018 1979.872 C 2020.027 1961.754,2062.339 1919.254,2079.678 1882.780 C 2091.167 1858.613,2093.046 1849.643,2096.431 1802.780 C 2098.675 1771.721,2099.783 1503.896,2099.122 1152.000 L 2098.000 554.000 2083.065 522.721 C 2062.058 478.727,2029.502 445.717,1983.878 422.154 L 1948.729 404.000 1219.365 404.647 C 818.214 405.002,477.348 406.352,461.884 407.647 M1040.520 910.325 C 1076.461 928.719,1091.182 954.143,1097.179 1008.179 C 1100.997 1042.577,1100.664 1049.106,1094.240 1065.928 C 1088.123 1081.945,1084.181 1086.139,1068.882 1092.907 C 1053.864 1099.550,1044.623 1100.626,1014.824 1099.201 C 976.276 1097.358,971.622 1094.766,951.517 1063.940 L 945.035 1054.000 846.468 1052.742 L 747.902 1051.484 748.951 1200.742 L 750.000 1350.000 840.000 1351.129 C 889.500 1351.750,933.873 1351.311,938.607 1350.152 C 943.340 1348.993,951.822 1340.182,957.454 1330.571 C 963.794 1319.753,972.704 1310.992,980.847 1307.569 C 999.665 1299.660,1058.563 1300.437,1074.141 1308.800 C 1094.185 1319.559,1096.830 1329.074,1095.340 1385.044 C 1094.049 1433.504,1093.561 1435.966,1082.000 1452.292 C 1075.400 1461.613,1063.190 1474.723,1054.867 1481.426 C 1040.063 1493.349,1038.409 1493.691,978.867 1497.129 C 945.390 1499.062,862.520 1499.621,794.710 1498.372 C 654.847 1495.795,655.460 1495.921,626.503 1463.715 C 613.395 1449.135,608.544 1440.033,606.695 1426.548 C 601.947 1391.905,599.146 1062.686,603.193 1014.967 C 608.213 955.792,617.050 935.506,645.331 918.241 C 663.243 907.306,668.529 906.235,717.331 903.652 C 801.649 899.189,1027.888 903.861,1040.520 910.325 M1740.520 910.325 C 1776.461 928.719,1791.182 954.143,1797.179 1008.179 C 1800.997 1042.577,1800.664 1049.106,1794.240 1065.928 C 1788.123 1081.945,1784.181 1086.139,1768.882 1092.907 C 1753.864 1099.550,1744.623 1100.626,1714.824 1099.201 C 1676.276 1097.358,1671.622 1094.766,1651.517 1063.940 L 1645.035 1054.000 1546.468 1052.742 L 1447.902 1051.484 1448.951 1200.742 L 1450.000 1350.000 1540.000 1351.129 C 1589.500 1351.750,1633.873 1351.311,1638.607 1350.152 C 1643.340 1348.993,1651.822 1340.182,1657.454 1330.571 C 1663.794 1319.753,1672.704 1310.992,1680.847 1307.569 C 1699.665 1299.660,1758.563 1300.437,1774.141 1308.800 C 1794.185 1319.559,1796.830 1329.074,1795.340 1385.044 C 1794.049 1433.504,1793.561 1435.966,1782.000 1452.292 C 1775.400 1461.613,1763.190 1474.723,1754.867 1481.426 C 1740.063 1493.349,1738.409 1493.691,1678.867 1497.129 C 1645.390 1499.062,1562.520 1499.621,1494.710 1498.372 C 1354.847 1495.795,1355.460 1495.921,1326.503 1463.715 C 1313.395 1449.135,1308.544 1440.033,1306.695 1426.548 C 1301.947 1391.905,1299.146 1062.686,1303.193 1014.967 C 1308.213 955.792,1317.050 935.506,1345.331 918.241 C 1363.243 907.306,1368.529 906.235,1417.331 903.652 C 1501.649 899.189,1727.888 903.861,1740.520 910.325 " fill="#1D1E23" stroke="none" fill-rule="evenodd"/></svg>