<svg viewBox="0 0 2400 2400" fill="none" xmlns="http://www.w3.org/2000/svg"><path d="M606.000 407.894 C 439.523 409.981,437.837 410.085,420.000 419.381 C 364.215 448.453,323.644 495.621,309.090 548.327 C 302.443 572.396,302.000 613.118,302.000 1200.000 C 302.000 1785.307,302.458 1827.690,309.048 1852.000 C 322.534 1901.750,370.802 1957.074,423.063 1982.680 C 442.204 1992.059,450.601 1993.299,515.063 1996.273 C 554.078 1998.073,862.300 1999.546,1200.000 1999.546 C 1537.700 1999.546,1845.922 1998.073,1884.937 1996.273 C 1949.399 1993.299,1957.796 1992.059,1976.937 1982.680 C 2009.136 1966.904,2043.349 1936.988,2064.632 1906.000 C 2100.320 1854.037,2097.462 1913.199,2099.034 1193.887 L 2100.425 557.775 2084.329 525.887 C 2058.174 474.070,2026.738 443.688,1969.133 414.554 L 1948.266 404.000 1361.133 404.894 C 1038.210 405.386,698.400 406.736,606.000 407.894 M1052.671 918.011 C 1075.477 933.789,1090.530 964.008,1096.227 1005.450 C 1105.582 1073.497,1086.186 1100.030,1027.128 1099.978 C 988.899 1099.944,973.685 1094.265,959.606 1074.774 C 948.449 1059.327,945.691 1057.797,924.745 1055.434 C 912.235 1054.023,867.328 1052.673,824.951 1052.434 L 747.903 1052.000 748.951 1201.000 L 750.000 1350.000 844.000 1351.107 L 938.000 1352.215 958.563 1329.107 L 979.126 1306.000 1016.261 1304.576 C 1089.564 1301.765,1098.412 1311.324,1094.864 1389.498 C 1092.835 1434.210,1092.008 1437.964,1080.775 1453.498 C 1056.613 1486.910,1046.701 1491.871,995.670 1496.092 C 939.537 1500.735,788.305 1500.835,717.670 1496.276 C 661.844 1492.673,649.468 1488.806,631.518 1469.357 C 605.497 1441.164,606.765 1449.864,603.114 1274.525 C 598.944 1074.241,602.893 980.476,616.655 953.041 C 628.370 929.684,651.010 911.419,673.047 907.545 C 682.371 905.906,767.702 904.893,862.671 905.293 L 1035.342 906.022 1052.671 918.011 M1752.671 918.011 C 1775.477 933.789,1790.530 964.008,1796.227 1005.450 C 1805.582 1073.497,1786.186 1100.030,1727.128 1099.978 C 1688.899 1099.944,1673.685 1094.265,1659.606 1074.774 C 1648.449 1059.327,1645.691 1057.797,1624.745 1055.434 C 1612.235 1054.023,1567.328 1052.673,1524.951 1052.434 L 1447.903 1052.000 1448.951 1201.000 L 1450.000 1350.000 1544.000 1351.107 L 1638.000 1352.215 1658.563 1329.107 L 1679.126 1306.000 1716.261 1304.576 C 1789.564 1301.765,1798.412 1311.324,1794.864 1389.498 C 1792.835 1434.210,1792.008 1437.964,1780.775 1453.498 C 1756.613 1486.910,1746.701 1491.871,1695.670 1496.092 C 1639.537 1500.735,1488.305 1500.835,1417.670 1496.276 C 1361.844 1492.673,1349.468 1488.806,1331.518 1469.357 C 1305.497 1441.164,1306.765 1449.864,1303.114 1274.525 C 1298.944 1074.241,1302.893 980.476,1316.655 953.041 C 1328.370 929.684,1351.010 911.419,1373.047 907.545 C 1382.371 905.906,1467.702 904.893,1562.671 905.293 L 1735.342 906.022 1752.671 918.011 " fill="#1D1E23" stroke="none" fill-rule="evenodd"/></svg>