<svg viewBox="0 0 2400 2400" fill="none" xmlns="http://www.w3.org/2000/svg"><path d="M643.784 403.734 L 445.568 406.000 414.352 421.432 C 373.105 441.823,341.895 472.956,321.663 513.893 C 308.061 541.415,306.149 549.138,303.484 587.325 C 299.600 642.986,299.600 1757.014,303.484 1812.675 C 306.149 1850.862,308.061 1858.585,321.663 1886.107 C 341.840 1926.933,373.123 1958.187,414.060 1978.419 C 442.639 1992.544,448.510 1993.919,491.492 1996.548 C 517.071 1998.113,835.900 1999.393,1200.000 1999.393 C 1564.100 1999.393,1882.929 1998.113,1908.508 1996.548 C 1951.490 1993.919,1957.361 1992.544,1985.940 1978.419 C 2026.835 1958.208,2058.163 1926.927,2078.285 1886.212 C 2092.396 1857.660,2093.670 1852.081,2096.876 1804.780 C 2098.770 1776.851,2099.797 1484.900,2099.159 1156.000 L 2098.000 558.000 2088.375 534.000 C 2067.142 481.060,2034.184 445.686,1982.797 420.685 L 1950.000 404.729 1396.000 403.099 C 1091.300 402.202,752.803 402.488,643.784 403.734 M1042.052 910.620 C 1081.778 931.842,1096.083 958.829,1098.772 1017.623 C 1100.348 1052.097,1099.500 1060.047,1092.970 1072.000 C 1080.495 1094.836,1064.543 1100.688,1019.120 1099.093 C 982.417 1097.803,979.553 1097.069,967.973 1085.974 C 961.226 1079.510,954.720 1070.292,953.514 1065.489 C 952.309 1060.686,947.425 1055.710,942.661 1054.433 C 937.898 1053.155,892.128 1052.085,840.951 1052.055 L 747.903 1052.000 748.951 1201.000 L 750.000 1350.000 842.000 1351.129 C 892.600 1351.749,937.600 1351.348,942.000 1350.236 C 946.547 1349.087,952.820 1341.434,956.533 1332.506 C 966.096 1309.510,979.016 1302.808,1017.426 1300.918 C 1056.071 1299.017,1077.592 1305.091,1089.618 1321.293 C 1096.961 1331.187,1097.995 1338.127,1097.957 1377.293 C 1097.921 1414.210,1096.448 1425.185,1089.501 1440.279 C 1079.086 1462.908,1055.820 1486.002,1036.554 1492.837 C 1015.314 1500.372,684.390 1500.263,663.073 1492.714 C 642.937 1485.583,613.759 1456.463,607.703 1437.454 C 601.058 1416.594,597.579 1049.536,603.523 996.401 C 608.342 953.324,616.735 936.895,643.338 918.459 C 666.242 902.586,692.140 900.673,874.000 901.421 C 1021.119 902.025,1026.515 902.321,1042.052 910.620 M1742.052 910.620 C 1781.778 931.842,1796.083 958.829,1798.772 1017.623 C 1800.348 1052.097,1799.500 1060.047,1792.970 1072.000 C 1780.495 1094.836,1764.543 1100.688,1719.120 1099.093 C 1682.417 1097.803,1679.553 1097.069,1667.973 1085.974 C 1661.226 1079.510,1654.720 1070.292,1653.514 1065.489 C 1652.309 1060.686,1647.425 1055.710,1642.661 1054.433 C 1637.898 1053.155,1592.128 1052.085,1540.951 1052.055 L 1447.903 1052.000 1448.951 1201.000 L 1450.000 1350.000 1542.000 1351.129 C 1592.600 1351.749,1637.600 1351.348,1642.000 1350.236 C 1646.547 1349.087,1652.820 1341.434,1656.533 1332.506 C 1666.096 1309.510,1679.016 1302.808,1717.426 1300.918 C 1756.071 1299.017,1777.592 1305.091,1789.618 1321.293 C 1796.961 1331.187,1797.995 1338.127,1797.957 1377.293 C 1797.921 1414.210,1796.448 1425.185,1789.501 1440.279 C 1779.086 1462.908,1755.820 1486.002,1736.554 1492.837 C 1715.314 1500.372,1384.390 1500.263,1363.073 1492.714 C 1342.937 1485.583,1313.759 1456.463,1307.703 1437.454 C 1301.058 1416.594,1297.579 1049.536,1303.523 996.401 C 1308.342 953.324,1316.735 936.895,1343.338 918.459 C 1366.242 902.586,1392.140 900.673,1574.000 901.421 C 1721.119 902.025,1726.515 902.321,1742.052 910.620 " fill="#1D1E23" stroke="none" fill-rule="evenodd"/></svg>