<svg viewBox="0 0 2400 2400" fill="none" xmlns="http://www.w3.org/2000/svg"><path d="M457.228 704.308 C 431.107 717.238,409.247 743.455,405.309 766.576 C 403.489 777.259,402.000 975.000,402.000 1206.000 C 402.000 1530.976,403.133 1629.724,407.009 1642.461 C 410.248 1653.105,418.934 1665.391,431.587 1677.227 C 463.723 1707.286,506.758 1714.959,541.990 1696.912 C 577.145 1678.905,1117.395 1295.536,1147.097 1267.520 C 1167.751 1248.039,1173.696 1233.484,1173.857 1202.000 C 1174.064 1161.547,1163.153 1141.341,1126.466 1114.236 C 1028.600 1041.931,559.487 712.916,540.344 703.156 C 520.289 692.931,479.057 693.503,457.228 704.308 M1365.429 700.364 C 1345.523 706.132,1312.969 737.897,1307.072 757.306 C 1299.731 781.469,1299.672 1618.349,1307.009 1642.461 C 1310.248 1653.105,1318.934 1665.391,1331.587 1677.227 C 1363.723 1707.286,1406.758 1714.959,1441.990 1696.912 C 1477.145 1678.905,2017.395 1295.536,2047.097 1267.520 C 2064.707 1250.910,2072.234 1235.329,2074.839 1210.097 C 2077.611 1183.233,2067.751 1152.471,2050.650 1134.631 C 2037.838 1121.266,1977.359 1077.757,1746.000 915.460 C 1519.374 756.484,1447.990 707.588,1433.977 701.733 C 1418.815 695.397,1384.907 694.720,1365.429 700.364 " fill="#1D1E23" stroke="none" fill-rule="evenodd"/></svg>