<svg viewBox="0 0 2400 2400" fill="none" xmlns="http://www.w3.org/2000/svg"><path d="M400.000 1200.331 L 400.000 1800.750 419.099 1787.029 C 429.603 1779.482,555.153 1690.829,698.099 1590.020 C 1097.764 1308.169,1244.000 1203.677,1244.000 1199.954 C 1244.000 1196.395,1112.914 1102.926,700.000 812.063 C 564.700 716.756,441.850 630.032,427.000 619.344 L 400.000 599.911 400.000 1200.331 M1300.000 1200.331 L 1300.000 1800.750 1319.099 1787.029 C 1329.603 1779.482,1455.153 1690.829,1598.099 1590.020 C 1997.764 1308.169,2144.000 1203.677,2144.000 1199.954 C 2144.000 1196.395,2012.914 1102.926,1600.000 812.063 C 1464.700 716.756,1341.850 630.032,1327.000 619.344 L 1300.000 599.911 1300.000 1200.331 " fill="#1D1E23" stroke="none" fill-rule="evenodd"/></svg>