<svg viewBox="0 0 2400 2400" fill="none" xmlns="http://www.w3.org/2000/svg"><path d="M1004.000 668.775 C 517.500 1011.185,280.532 1180.072,270.000 1191.898 L 262.000 1200.882 278.000 1214.840 C 306.313 1239.540,590.558 1442.524,927.722 1678.817 C 1042.531 1759.278,1090.685 1790.915,1093.722 1787.879 C 1098.215 1783.387,1102.476 634.891,1098.066 617.000 C 1096.846 612.050,1094.532 608.055,1092.924 608.123 C 1091.316 608.191,1051.300 635.484,1004.000 668.775 M1904.000 668.775 C 1417.500 1011.185,1180.532 1180.072,1170.000 1191.898 L 1162.000 1200.882 1178.000 1214.840 C 1206.313 1239.540,1490.558 1442.524,1827.722 1678.817 C 1942.531 1759.278,1990.685 1790.915,1993.722 1787.879 C 1998.215 1783.387,2002.476 634.891,1998.066 617.000 C 1996.846 612.050,1994.532 608.055,1992.924 608.123 C 1991.316 608.191,1951.300 635.484,1904.000 668.775 " fill="#1D1E23" stroke="none" fill-rule="evenodd"/></svg>