<svg viewBox="0 0 2400 2400" fill="none" xmlns="http://www.w3.org/2000/svg"><path d="M400.434 1177.000 C 400.673 1492.150,402.023 1760.486,403.434 1773.303 L 406.000 1796.606 676.000 1605.809 C 1093.982 1310.440,1232.115 1211.260,1236.239 1203.554 C 1239.457 1197.541,1232.578 1191.063,1191.017 1160.971 C 1056.313 1063.437,405.787 604.000,402.391 604.000 C 401.076 604.000,400.195 861.850,400.434 1177.000 M1300.434 1177.000 C 1300.673 1492.150,1302.023 1760.486,1303.434 1773.303 L 1306.000 1796.606 1576.000 1605.809 C 1993.982 1310.440,2132.115 1211.260,2136.239 1203.554 C 2139.457 1197.541,2132.578 1191.063,2091.017 1160.971 C 1956.313 1063.437,1305.787 604.000,1302.391 604.000 C 1301.076 604.000,1300.195 861.850,1300.434 1177.000 " fill="#1D1E23" stroke="none" fill-rule="evenodd"/></svg>