<svg viewBox="0 0 2400 2400" fill="none" xmlns="http://www.w3.org/2000/svg"><path d="M964.509 700.306 C 939.096 710.479,399.516 1092.791,353.805 1133.013 C 335.684 1148.958,324.000 1174.658,324.000 1198.573 C 324.000 1220.174,335.806 1249.001,351.377 1265.417 C 379.637 1295.211,913.723 1670.676,963.961 1696.066 C 1006.848 1717.741,1064.462 1696.770,1089.154 1650.497 L 1097.956 1634.000 1097.903 1203.999 C 1097.853 799.992,1097.415 772.860,1090.665 755.185 C 1082.670 734.249,1062.860 714.734,1038.262 703.562 C 1020.605 695.542,980.800 693.785,964.509 700.306 M1872.000 698.777 C 1858.543 701.523,1663.139 836.318,1378.365 1039.300 C 1263.527 1121.153,1246.780 1134.869,1236.091 1155.821 C 1219.803 1187.748,1223.390 1234.890,1244.110 1261.232 C 1259.307 1280.552,1818.147 1674.719,1862.053 1697.086 C 1897.556 1715.172,1942.202 1705.863,1971.287 1674.310 C 2003.131 1639.764,2000.631 1682.315,1998.993 1202.756 C 1997.901 883.078,1996.306 770.319,1992.722 759.529 C 1980.119 721.581,1953.142 702.226,1908.000 698.742 C 1893.700 697.639,1877.500 697.654,1872.000 698.777 " fill="#1D1E23" stroke="none" fill-rule="evenodd"/></svg>