<svg viewBox="0 0 2400 2400" fill="none" xmlns="http://www.w3.org/2000/svg"><path d="M968.569 700.200 C 950.078 707.770,756.445 841.272,552.000 987.407 C 363.995 1121.790,336.621 1144.710,328.288 1174.717 C 322.519 1195.494,322.888 1203.639,330.694 1227.809 C 336.000 1244.237,342.962 1253.697,364.260 1273.415 C 420.247 1325.251,934.627 1685.118,972.000 1698.599 C 1016.089 1714.502,1068.260 1690.489,1092.439 1643.165 L 1101.208 1626.000 1098.707 1202.000 C 1097.261 956.934,1094.600 771.440,1092.401 762.455 C 1087.570 742.715,1059.878 714.008,1038.187 706.255 C 1016.666 698.563,980.296 695.399,968.569 700.200 M1774.000 762.191 C 1551.712 914.377,1281.892 1107.371,1255.125 1133.326 C 1234.599 1153.228,1228.000 1169.842,1228.000 1201.611 C 1228.000 1245.392,1234.546 1255.122,1294.000 1299.715 C 1438.145 1407.827,1820.201 1674.052,1859.803 1693.978 C 1896.891 1712.640,1934.511 1706.623,1968.759 1676.553 C 1999.527 1649.538,1997.383 1683.991,1997.541 1214.000 C 1997.693 758.652,1997.427 752.364,1977.116 730.974 C 1957.842 710.676,1937.502 702.740,1900.000 700.886 L 1866.000 699.205 1774.000 762.191 " fill="#1D1E23" stroke="none" fill-rule="evenodd"/></svg>