<svg viewBox="0 0 2400 2400" fill="none" xmlns="http://www.w3.org/2000/svg"><path d="M400.000 1200.632 C 400.000 1680.344,401.005 1800.188,405.000 1797.041 C 407.750 1794.875,548.600 1695.334,718.000 1575.839 C 1118.421 1293.382,1243.636 1203.869,1243.743 1200.000 C 1243.829 1196.910,1159.340 1136.399,863.010 927.317 C 712.855 821.372,547.250 704.448,495.000 667.487 L 400.000 600.284 400.000 1200.632 M1300.000 1200.632 C 1300.000 1680.344,1301.005 1800.188,1305.000 1797.041 C 1307.750 1794.875,1448.600 1695.334,1618.000 1575.839 C 2018.421 1293.382,2143.636 1203.869,2143.743 1200.000 C 2143.829 1196.910,2059.340 1136.399,1763.010 927.317 C 1612.855 821.372,1447.250 704.448,1395.000 667.487 L 1300.000 600.284 1300.000 1200.632 " fill="#1D1E23" stroke="none" fill-rule="evenodd"/></svg>