<svg viewBox="0 0 2400 2400" fill="none" xmlns="http://www.w3.org/2000/svg"><path d="M481.775 699.729 C 457.945 703.552,431.825 720.568,415.962 742.605 L 402.000 762.000 402.000 1200.311 L 402.000 1638.623 413.622 1654.311 C 429.085 1675.183,438.153 1682.665,462.000 1694.226 C 488.631 1707.136,514.211 1707.068,539.964 1694.018 C 580.103 1673.678,805.875 1517.525,1018.817 1362.825 C 1157.600 1262.000,1168.921 1250.472,1171.349 1207.499 C 1173.358 1171.937,1170.848 1163.175,1152.984 1143.402 C 1126.516 1114.105,1066.617 1070.187,772.283 864.274 C 593.891 739.473,559.139 715.761,542.000 707.145 C 526.608 699.407,502.379 696.424,481.775 699.729 M1358.000 706.278 C 1342.112 714.524,1325.887 730.127,1311.235 751.252 L 1299.269 768.504 1301.157 1193.252 C 1302.525 1501.085,1304.345 1623.131,1307.770 1636.641 C 1313.425 1658.954,1332.580 1680.105,1359.471 1693.732 C 1390.128 1709.267,1404.237 1710.309,1429.197 1698.882 C 1465.371 1682.321,1702.893 1519.822,1906.000 1372.681 C 2052.315 1266.684,2061.133 1258.654,2072.128 1221.398 C 2082.616 1185.861,2068.193 1151.609,2029.883 1121.073 C 1935.736 1046.030,1476.753 725.023,1439.301 708.027 C 1417.674 698.212,1375.296 697.300,1358.000 706.278 " fill="#1D1E23" stroke="none" fill-rule="evenodd"/></svg>