<svg viewBox="0 0 2400 2400" fill="none" xmlns="http://www.w3.org/2000/svg"><path d="M400.231 1183.269 C 400.357 1503.771,401.707 1772.831,403.231 1781.179 L 406.000 1796.358 722.000 1573.121 C 1074.881 1323.830,1214.948 1223.962,1230.676 1210.433 C 1236.693 1205.258,1240.051 1199.318,1238.436 1196.705 C 1234.783 1190.795,1134.323 1119.042,729.000 832.844 L 400.000 600.538 400.231 1183.269 M1300.231 1183.269 C 1300.357 1503.771,1301.707 1772.831,1303.231 1781.179 L 1306.000 1796.358 1622.000 1573.121 C 1974.881 1323.830,2114.948 1223.962,2130.676 1210.433 C 2136.693 1205.258,2140.051 1199.318,2138.436 1196.705 C 2134.783 1190.795,2034.323 1119.042,1629.000 832.844 L 1300.000 600.538 1300.231 1183.269 " fill="#1D1E23" stroke="none" fill-rule="evenodd"/></svg>