<svg viewBox="0 0 2400 2400" fill="none" xmlns="http://www.w3.org/2000/svg"><path d="M958.676 700.171 C 808.547 805.411,407.767 1089.147,317.303 1154.237 C 268.643 1189.248,257.502 1198.990,261.127 1203.358 C 269.865 1213.887,550.378 1413.850,954.000 1697.272 L 1094.000 1795.579 1096.704 1778.789 C 1100.067 1757.902,1100.913 623.035,1097.572 614.327 C 1096.237 610.847,1093.987 608.025,1092.572 608.057 C 1091.157 608.088,1030.904 649.539,958.676 700.171 M1858.676 700.171 C 1708.547 805.411,1307.767 1089.147,1217.303 1154.237 C 1168.643 1189.248,1157.502 1198.990,1161.127 1203.358 C 1169.865 1213.887,1450.378 1413.850,1854.000 1697.272 L 1994.000 1795.579 1996.704 1778.789 C 2000.067 1757.902,2000.913 623.035,1997.572 614.327 C 1996.237 610.847,1993.987 608.025,1992.572 608.057 C 1991.157 608.088,1930.904 649.539,1858.676 700.171 " fill="#1D1E23" stroke="none" fill-rule="evenodd"/></svg>