<svg viewBox="0 0 2400 2400" fill="none" xmlns="http://www.w3.org/2000/svg"><path d="M400.000 1200.327 L 400.000 1800.440 421.334 1785.220 C 433.068 1776.849,623.841 1642.200,845.273 1486.000 C 1066.705 1329.800,1247.840 1201.100,1247.795 1200.000 C 1247.751 1198.900,1088.145 1085.500,893.116 948.000 C 698.086 810.500,507.351 675.998,469.258 649.107 L 400.000 600.213 400.000 1200.327 M1300.000 1200.327 L 1300.000 1800.440 1321.334 1785.220 C 1333.068 1776.849,1523.841 1642.200,1745.273 1486.000 C 1966.705 1329.800,2147.840 1201.100,2147.795 1200.000 C 2147.751 1198.900,1988.145 1085.500,1793.116 948.000 C 1598.086 810.500,1407.351 675.998,1369.258 649.107 L 1300.000 600.213 1300.000 1200.327 " fill="#1D1E23" stroke="none" fill-rule="evenodd"/></svg>