<svg viewBox="0 0 2400 2400" fill="none" xmlns="http://www.w3.org/2000/svg"><path d="M478.000 695.550 C 458.849 700.516,441.431 710.923,426.444 726.355 C 398.664 754.958,400.000 731.026,400.000 1200.210 C 400.000 1659.001,399.098 1639.619,421.828 1669.419 C 427.403 1676.729,441.423 1687.925,452.983 1694.298 C 480.250 1709.333,517.047 1710.411,542.695 1696.926 C 574.476 1680.217,1134.067 1283.552,1150.227 1266.279 C 1168.392 1246.862,1176.019 1226.489,1175.961 1197.536 C 1175.916 1175.266,1162.321 1142.715,1147.529 1129.462 C 1131.657 1115.241,559.237 711.773,543.655 703.824 C 526.618 695.132,494.986 691.146,478.000 695.550 M1382.000 695.958 C 1360.876 699.300,1343.469 708.824,1326.444 726.355 C 1298.664 754.958,1300.000 731.026,1300.000 1200.210 C 1300.000 1659.001,1299.098 1639.619,1321.828 1669.419 C 1327.403 1676.729,1341.423 1687.925,1352.983 1694.298 C 1380.250 1709.333,1417.047 1710.411,1442.695 1696.926 C 1474.476 1680.217,2034.067 1283.552,2050.227 1266.279 C 2068.392 1246.862,2076.019 1226.489,2075.961 1197.536 C 2075.916 1175.261,2062.316 1142.703,2047.529 1129.475 C 2028.678 1112.609,1450.733 707.066,1438.510 702.127 C 1421.291 695.169,1400.994 692.953,1382.000 695.958 " fill="#1D1E23" stroke="none" fill-rule="evenodd"/></svg>