<svg viewBox="0 0 2400 2400" fill="none" xmlns="http://www.w3.org/2000/svg"><path d="M1142.000 208.087 C 1112.332 212.625,1039.472 248.089,1007.221 273.689 C 960.681 310.631,916.728 383.795,907.311 440.000 C 900.158 482.697,900.108 1116.856,907.254 1160.000 C 917.204 1220.065,965.196 1296.260,1017.241 1334.621 C 1146.459 1429.864,1305.779 1417.400,1414.153 1303.570 C 1450.401 1265.497,1464.466 1242.811,1484.061 1190.812 L 1500.000 1148.515 1500.000 800.000 L 1500.000 451.485 1483.897 408.742 C 1475.041 385.234,1461.230 356.100,1453.207 344.000 C 1412.149 282.079,1343.510 230.457,1280.534 214.138 C 1250.414 206.333,1174.996 203.039,1142.000 208.087 M1251.156 417.467 C 1260.443 423.330,1273.432 435.568,1280.021 444.663 L 1292.000 461.200 1292.000 799.710 C 1292.000 1171.505,1293.921 1141.437,1268.387 1169.357 C 1247.897 1191.762,1212.503 1202.114,1178.399 1195.678 C 1155.883 1191.429,1129.632 1172.057,1115.581 1149.323 C 1106.548 1134.707,1106.497 1133.713,1102.929 904.324 C 1099.282 669.801,1102.914 489.584,1111.902 459.165 C 1125.881 411.852,1204.818 388.215,1251.156 417.467 M572.704 1108.313 C 556.252 1113.348,528.450 1140.643,518.019 1162.000 C 492.894 1213.443,540.254 1368.271,615.476 1480.603 C 666.631 1556.994,743.734 1635.371,812.000 1680.374 C 875.786 1722.424,971.662 1763.084,1053.545 1782.811 L 1099.990 1794.000 1100.226 1872.000 C 1100.356 1914.900,1101.926 1970.353,1103.717 1995.229 C 1106.725 2037.033,1107.872 2041.576,1118.866 2055.229 C 1140.826 2082.498,1160.971 2093.567,1191.807 2095.310 C 1225.913 2097.237,1242.342 2091.989,1265.202 2071.866 C 1293.526 2046.935,1295.930 2036.813,1298.273 1932.626 C 1299.394 1882.782,1301.266 1830.921,1302.434 1817.379 L 1304.556 1792.758 1341.278 1783.749 C 1437.357 1760.177,1514.727 1727.879,1583.300 1682.717 C 1710.431 1598.989,1816.398 1462.311,1861.416 1324.000 C 1894.816 1221.382,1897.475 1194.432,1877.994 1155.987 C 1854.251 1109.133,1793.521 1090.736,1744.742 1115.621 C 1716.850 1129.851,1711.187 1140.308,1675.252 1243.939 C 1645.180 1330.664,1612.028 1387.215,1558.273 1443.485 C 1499.599 1504.904,1432.292 1547.199,1351.114 1573.660 C 1294.900 1591.985,1258.791 1597.720,1200.000 1597.663 C 1099.544 1597.566,1005.509 1568.769,920.965 1512.212 C 881.470 1485.792,818.835 1423.625,792.350 1384.559 C 766.941 1347.079,735.174 1277.710,713.634 1212.666 C 692.051 1147.495,680.571 1128.863,654.102 1116.050 C 632.942 1105.806,593.227 1102.031,572.704 1108.313 " fill="#1D1E23" stroke="none" fill-rule="evenodd"/></svg>