<svg viewBox="0 0 2400 2400" fill="none" xmlns="http://www.w3.org/2000/svg"><path d="M1138.142 208.171 C 1109.604 212.663,1063.848 233.673,1030.355 257.663 C 1000.005 279.402,956.710 324.193,943.035 348.000 C 930.967 369.009,910.144 426.936,906.370 450.000 L 903.752 466.000 1201.876 763.990 L 1500.000 1061.980 1499.819 819.990 C 1499.610 542.098,1496.172 439.736,1486.046 410.000 C 1461.456 337.788,1414.600 281.457,1345.024 240.464 C 1301.288 214.694,1273.929 207.462,1214.008 205.831 C 1185.404 205.052,1151.264 206.105,1138.142 208.171 M368.973 357.026 L 300.032 426.052 599.495 725.495 L 898.958 1024.938 901.083 1085.469 C 902.585 1128.248,905.633 1155.135,911.478 1177.147 C 938.808 1280.079,1022.947 1362.653,1128.000 1389.641 C 1164.248 1398.953,1217.497 1402.058,1243.887 1396.398 L 1265.641 1391.732 1329.227 1454.866 C 1364.199 1489.590,1399.986 1526.910,1408.754 1537.799 C 1423.802 1556.489,1424.284 1557.900,1417.348 1562.984 C 1408.966 1569.128,1348.476 1588.273,1304.000 1598.859 C 1262.050 1608.844,1140.053 1608.855,1093.363 1598.878 C 985.525 1575.834,894.568 1527.013,820.000 1452.150 C 731.110 1362.909,682.737 1258.763,673.622 1137.000 L 670.852 1100.000 584.823 1100.000 L 498.793 1100.000 501.233 1137.000 C 504.586 1187.849,517.598 1252.230,534.391 1301.062 C 613.364 1530.708,800.312 1698.292,1047.000 1760.576 L 1100.000 1773.957 1100.000 1936.978 L 1100.000 2100.000 1200.000 2100.000 L 1300.000 2100.000 1300.000 1936.681 L 1300.000 1773.362 1333.000 1766.319 C 1379.912 1756.306,1449.866 1732.265,1507.893 1706.214 L 1557.786 1683.814 1766.879 1892.879 L 1975.971 2101.943 2046.005 2031.995 L 2116.039 1962.046 1279.023 1125.023 C 818.664 664.660,441.086 288.000,439.961 288.000 C 438.835 288.000,406.891 319.062,368.973 357.026 M1726.208 1136.092 C 1724.656 1155.943,1719.081 1193.293,1713.820 1219.092 L 1704.255 1266.000 1763.077 1325.000 C 1795.430 1357.450,1824.818 1384.000,1828.385 1384.000 C 1846.457 1384.000,1892.589 1221.280,1898.625 1136.242 L 1901.198 1100.000 1815.115 1100.000 L 1729.032 1100.000 1726.208 1136.092 " fill="#1D1E23" stroke="none" fill-rule="evenodd"/></svg>