<svg viewBox="0 0 2400 2400" fill="none" xmlns="http://www.w3.org/2000/svg"><path d="M1151.054 203.856 C 1121.342 209.290,1092.690 219.616,1058.000 237.390 C 1018.952 257.397,965.609 308.631,942.835 348.000 C 927.646 374.259,911.069 420.576,906.329 450.000 L 903.752 466.000 1201.876 763.990 L 1500.000 1061.980 1500.000 766.821 C 1500.000 444.714,1499.827 441.892,1476.635 384.902 C 1442.556 301.159,1365.915 234.740,1274.000 209.291 C 1249.185 202.421,1176.476 199.206,1151.054 203.856 M396.674 338.414 C 352.283 360.534,331.516 412.892,347.654 462.000 C 351.945 475.055,403.186 528.431,626.056 752.000 L 899.200 1026.000 901.165 1078.000 C 903.457 1138.654,914.655 1182.830,940.153 1231.803 C 999.623 1346.024,1126.017 1415.422,1240.000 1396.436 L 1266.000 1392.105 1347.009 1473.025 C 1391.564 1517.531,1427.478 1555.567,1426.817 1557.549 C 1424.927 1563.219,1369.908 1583.096,1326.000 1593.972 C 1197.614 1625.772,1069.830 1609.930,946.499 1546.923 C 804.732 1474.498,709.552 1346.902,677.783 1186.687 C 669.930 1147.083,661.198 1131.408,637.941 1115.162 C 607.267 1093.736,564.486 1096.741,536.184 1122.309 C 498.907 1155.987,498.119 1194.661,532.565 1300.000 C 596.277 1494.838,755.042 1657.621,955.661 1733.807 C 988.832 1746.403,1054.095 1764.574,1085.000 1769.818 L 1100.000 1772.363 1100.000 1893.469 C 1100.000 2032.264,1101.619 2041.829,1129.895 2070.105 C 1169.021 2109.232,1230.979 2109.232,1270.105 2070.105 C 1298.381 2041.829,1300.000 2032.264,1300.000 1893.469 L 1300.000 1772.363 1315.000 1769.811 C 1378.666 1758.981,1451.473 1734.735,1515.303 1703.106 L 1556.606 1682.639 1737.303 1863.156 C 1928.839 2054.501,1935.063 2059.729,1971.536 2059.912 C 2000.611 2060.058,2020.338 2051.784,2042.656 2030.084 C 2076.250 1997.419,2083.661 1953.089,2062.262 1912.800 C 2059.107 1906.860,1704.058 1549.793,1273.263 1119.317 C 590.659 437.219,487.944 336.083,474.000 332.340 C 446.285 324.900,419.583 326.997,396.674 338.414 M1780.933 1104.493 C 1761.524 1110.094,1733.558 1138.832,1728.863 1158.000 C 1726.707 1166.800,1720.193 1194.641,1714.387 1219.868 L 1703.831 1265.736 1764.867 1326.868 C 1798.437 1360.491,1827.298 1388.000,1829.002 1388.000 C 1838.078 1388.000,1880.645 1267.458,1889.363 1217.069 C 1897.247 1171.494,1892.951 1153.071,1868.580 1127.951 C 1843.532 1102.132,1815.297 1094.575,1780.933 1104.493 " fill="#1D1E23" stroke="none" fill-rule="evenodd"/></svg>