<svg viewBox="0 0 2400 2400" fill="none" xmlns="http://www.w3.org/2000/svg"><path d="M1124.532 210.301 C 1055.641 228.832,978.012 288.188,941.755 350.058 C 930.003 370.111,909.843 426.844,906.241 450.000 L 903.752 466.000 1202.046 764.000 L 1500.340 1062.000 1498.865 756.000 C 1497.283 427.926,1497.860 437.510,1476.511 384.737 C 1443.723 303.685,1361.424 232.681,1274.160 210.154 C 1243.167 202.154,1154.498 202.241,1124.532 210.301 M415.974 331.737 C 390.466 339.496,363.546 361.170,352.370 382.943 C 343.881 399.481,340.405 429.145,344.627 449.012 C 349.803 473.362,359.982 484.222,664.270 790.000 L 899.119 1026.000 901.364 1076.000 C 903.851 1131.392,912.744 1172.172,931.221 1212.922 C 986.704 1335.287,1114.001 1413.036,1232.618 1397.006 L 1266.000 1392.494 1333.271 1459.247 C 1370.271 1495.961,1406.154 1532.980,1413.013 1541.512 C 1425.060 1556.498,1425.224 1557.212,1417.838 1562.613 C 1406.257 1571.082,1338.987 1591.734,1294.000 1600.633 C 1237.632 1611.783,1156.286 1611.585,1100.551 1600.161 C 991.280 1577.765,900.669 1531.616,827.533 1461.114 C 751.447 1387.767,710.085 1314.866,683.044 1206.453 C 668.295 1147.322,660.442 1131.053,640.174 1117.640 C 608.482 1096.668,575.906 1096.646,544.588 1117.577 C 508.685 1141.572,500.299 1177.766,515.757 1242.000 C 578.472 1502.595,794.180 1707.841,1066.707 1766.229 L 1099.414 1773.236 1100.756 1899.618 C 1102.251 2040.312,1102.652 2042.652,1129.803 2069.021 C 1151.775 2090.359,1169.854 2097.761,1200.000 2097.761 C 1230.146 2097.761,1248.225 2090.359,1270.197 2069.021 C 1297.348 2042.652,1297.749 2040.312,1299.244 1899.618 L 1300.586 1773.236 1333.293 1766.262 C 1384.569 1755.328,1449.390 1733.213,1505.648 1707.460 L 1557.295 1683.818 1727.648 1853.177 C 1821.341 1946.325,1908.477 2030.378,1921.283 2039.963 C 1940.513 2054.355,1948.365 2057.704,1966.387 2059.198 C 2005.763 2062.464,2044.026 2039.044,2064.468 1999.165 C 2075.125 1978.376,2076.108 1944.954,2066.713 1922.837 C 2062.142 1912.077,1881.083 1728.133,1443.136 1289.325 C 683.699 528.394,489.949 338.028,469.013 332.214 C 451.910 327.464,430.650 327.273,415.974 331.737 M1781.497 1104.346 C 1766.868 1108.588,1737.360 1135.902,1731.903 1150.255 C 1729.820 1155.735,1722.633 1183.941,1715.933 1212.935 L 1703.752 1265.651 1760.876 1323.086 C 1792.294 1354.675,1821.088 1382.234,1824.863 1384.328 C 1833.685 1389.221,1838.281 1380.500,1859.859 1317.920 C 1903.023 1192.743,1902.391 1150.149,1856.905 1118.627 C 1831.455 1100.990,1808.238 1096.594,1781.497 1104.346 " fill="#1D1E23" stroke="none" fill-rule="evenodd"/></svg>