<svg viewBox="0 0 2400 2400" fill="none" xmlns="http://www.w3.org/2000/svg"><path d="M1121.128 213.878 C 1069.830 228.360,1002.809 273.585,965.877 318.641 C 942.939 346.625,923.099 387.825,911.258 432.065 L 902.562 464.556 1201.588 763.278 L 1500.613 1062.000 1498.662 770.000 C 1497.409 582.511,1495.072 466.584,1492.132 446.106 C 1480.685 366.361,1429.229 294.740,1346.982 244.070 C 1328.842 232.894,1305.000 220.944,1294.000 217.514 C 1264.786 208.404,1149.135 205.972,1121.128 213.878 M368.973 357.026 L 300.032 426.052 599.410 725.410 L 898.788 1024.768 901.351 1083.384 C 905.035 1167.655,915.731 1206.250,950.533 1260.853 C 971.677 1294.026,1006.818 1329.078,1041.748 1351.836 C 1094.325 1386.091,1182.666 1406.234,1238.253 1396.642 L 1266.000 1391.854 1336.940 1464.010 C 1409.946 1538.267,1423.830 1555.926,1414.895 1563.156 C 1408.785 1568.100,1339.184 1590.418,1304.176 1598.659 C 1266.657 1607.492,1133.633 1607.117,1090.421 1598.058 C 921.672 1562.679,771.494 1439.339,709.266 1285.016 C 692.146 1242.559,682.083 1200.401,675.678 1144.299 L 670.619 1100.000 584.719 1100.000 L 498.819 1100.000 501.489 1137.974 C 515.672 1339.752,633.622 1538.572,808.388 1655.293 C 880.072 1703.169,1005.633 1755.187,1085.824 1770.231 L 1100.000 1772.890 1100.000 1936.445 L 1100.000 2100.000 1200.000 2100.000 L 1300.000 2100.000 1300.000 1936.520 L 1300.000 1773.041 1325.000 1768.181 C 1360.934 1761.195,1447.469 1731.672,1506.860 1706.136 L 1558.000 1684.148 1766.986 1893.045 L 1975.971 2101.943 2046.005 2031.995 L 2116.039 1962.046 1279.023 1125.023 C 818.664 664.660,441.086 288.000,439.961 288.000 C 438.835 288.000,406.891 319.062,368.973 357.026 M1722.428 1155.000 C 1718.547 1185.250,1712.710 1222.600,1709.456 1238.000 L 1703.541 1266.000 1763.979 1325.264 C 1797.220 1357.859,1826.573 1383.867,1829.208 1383.059 C 1847.452 1377.467,1891.984 1216.958,1898.586 1133.000 L 1901.180 1100.000 1815.333 1100.000 L 1729.485 1100.000 1722.428 1155.000 " fill="#1D1E23" stroke="none" fill-rule="evenodd"/></svg>