<svg viewBox="0 0 2400 2400" fill="none" xmlns="http://www.w3.org/2000/svg"><path d="M1122.000 213.404 C 1097.679 221.489,1040.753 251.078,1015.336 268.845 C 967.639 302.187,921.636 374.050,908.332 436.000 C 902.659 462.418,899.003 876.419,903.068 1032.000 C 906.449 1161.390,906.925 1166.999,916.901 1195.048 C 939.587 1258.834,990.011 1320.591,1046.320 1353.553 C 1159.993 1420.095,1286.692 1411.184,1385.478 1329.700 C 1435.175 1288.708,1462.839 1248.241,1488.217 1179.411 L 1500.000 1147.454 1500.000 800.000 L 1500.000 452.546 1488.189 420.514 C 1472.198 377.144,1458.198 350.310,1437.529 323.416 C 1404.868 280.918,1351.027 240.583,1301.054 221.175 C 1276.327 211.573,1268.151 210.558,1206.000 209.377 C 1157.081 208.448,1133.510 209.578,1122.000 213.404 M576.559 1108.039 C 561.056 1111.650,527.259 1143.052,518.099 1162.357 C 499.017 1202.569,523.970 1309.259,576.710 1412.957 C 627.851 1513.512,717.615 1616.198,807.507 1676.977 C 868.910 1718.494,976.197 1763.933,1060.445 1784.103 L 1098.891 1793.307 1101.162 1905.654 C 1102.466 1970.145,1105.351 2024.436,1107.935 2033.109 C 1117.586 2065.503,1151.448 2090.870,1190.407 2094.891 C 1219.397 2097.883,1242.891 2090.517,1265.211 2071.438 C 1290.790 2049.573,1295.026 2033.190,1297.911 1944.963 C 1299.187 1905.933,1301.242 1855.711,1302.476 1833.359 L 1304.721 1792.717 1341.360 1783.760 C 1431.799 1761.649,1520.049 1724.371,1586.177 1680.344 C 1658.289 1632.333,1732.952 1557.027,1783.844 1480.971 C 1839.846 1397.280,1898.375 1237.876,1889.944 1192.011 C 1878.350 1128.944,1822.159 1092.339,1763.238 1109.468 C 1722.510 1121.308,1713.692 1134.091,1680.093 1230.000 C 1643.955 1333.155,1610.169 1389.999,1548.087 1452.097 C 1453.678 1546.530,1334.179 1596.676,1204.000 1596.487 C 1049.945 1596.264,924.068 1538.684,823.231 1422.312 C 778.785 1371.020,755.264 1325.970,714.030 1213.163 C 702.603 1181.902,688.922 1149.903,683.627 1142.055 C 666.312 1116.388,613.182 1099.509,576.559 1108.039 " fill="#1D1E23" stroke="none" fill-rule="evenodd"/></svg>