<svg viewBox="0 0 2400 2400" fill="none" xmlns="http://www.w3.org/2000/svg"><path d="M1142.000 206.501 C 1025.863 231.689,932.808 321.941,907.434 434.000 C 899.584 468.670,899.451 1130.901,907.287 1165.017 C 927.083 1251.197,987.166 1327.604,1065.311 1365.976 C 1117.381 1391.544,1144.453 1397.852,1202.000 1397.827 C 1257.809 1397.802,1289.253 1389.932,1342.000 1362.788 C 1366.315 1350.275,1382.684 1337.637,1410.160 1310.160 C 1450.086 1270.234,1471.573 1234.593,1488.628 1180.000 L 1498.000 1150.000 1498.000 800.000 L 1498.000 450.000 1488.628 420.000 C 1471.920 366.518,1449.885 329.659,1412.107 292.000 C 1376.691 256.695,1349.155 237.999,1308.221 221.465 C 1263.305 203.323,1187.939 196.538,1142.000 206.501 M1244.190 412.097 C 1266.870 423.668,1286.925 445.465,1292.838 464.971 C 1300.357 489.776,1300.357 1110.224,1292.838 1135.029 C 1286.853 1154.772,1267.003 1176.154,1242.894 1188.825 C 1221.021 1200.321,1180.814 1201.094,1159.025 1190.437 C 1137.435 1179.877,1113.297 1154.923,1107.582 1137.255 C 1101.204 1117.537,1097.517 574.900,1103.295 506.441 C 1107.722 454.005,1113.679 440.240,1139.775 422.156 C 1173.932 398.485,1210.587 394.954,1244.190 412.097 M586.000 1103.716 C 553.506 1111.555,522.386 1140.585,513.416 1171.426 C 505.932 1197.159,508.084 1221.599,522.626 1276.000 C 542.990 1352.185,574.958 1422.270,619.513 1488.407 C 723.001 1642.025,873.052 1743.164,1058.689 1784.425 L 1099.379 1793.469 1100.764 1909.734 C 1102.306 2039.212,1102.994 2042.984,1129.803 2069.021 C 1151.775 2090.359,1169.854 2097.761,1200.000 2097.761 C 1230.146 2097.761,1248.225 2090.359,1270.197 2069.021 C 1296.996 2042.994,1297.692 2039.181,1299.248 1910.000 L 1300.644 1794.000 1359.322 1779.593 C 1391.595 1771.669,1438.528 1756.900,1463.617 1746.774 C 1640.883 1675.228,1784.575 1528.315,1854.581 1347.047 C 1869.980 1307.175,1892.000 1220.973,1892.000 1200.564 C 1892.000 1166.175,1867.642 1128.273,1834.513 1111.112 C 1794.699 1090.488,1735.300 1105.969,1711.714 1143.115 C 1705.737 1152.528,1695.056 1181.328,1687.977 1207.115 C 1658.230 1315.482,1618.459 1386.431,1548.357 1456.187 C 1469.156 1534.995,1358.400 1586.630,1247.000 1596.679 C 1051.362 1614.328,867.293 1519.304,769.016 1349.923 C 746.737 1311.525,727.346 1262.937,712.023 1207.115 C 696.352 1150.027,684.276 1129.656,657.709 1115.493 C 636.482 1104.176,605.312 1099.057,586.000 1103.716 " fill="#1D1E23" stroke="none" fill-rule="evenodd"/></svg>