<svg viewBox="0 0 2400 2400" fill="none" xmlns="http://www.w3.org/2000/svg"><path d="M1138.142 208.171 C 1109.604 212.663,1063.848 233.673,1030.355 257.663 C 1000.005 279.402,956.710 324.193,943.035 348.000 C 930.967 369.009,910.144 426.936,906.370 450.000 L 903.752 466.000 1201.876 763.990 L 1500.000 1061.980 1499.819 819.990 C 1499.610 542.098,1496.172 439.736,1486.046 410.000 C 1461.456 337.788,1414.600 281.457,1345.024 240.464 C 1301.288 214.694,1273.929 207.462,1214.008 205.831 C 1185.404 205.052,1151.264 206.105,1138.142 208.171 M411.540 333.518 C 367.520 349.250,344.000 382.665,344.000 429.475 C 344.000 453.952,344.927 456.443,363.000 480.533 C 373.450 494.463,498.281 622.891,640.403 765.930 L 898.806 1026.000 901.386 1074.000 C 907.049 1179.342,937.902 1250.793,1005.421 1314.930 C 1066.808 1373.241,1144.886 1403.885,1218.000 1398.363 C 1235.600 1397.033,1253.609 1394.963,1258.020 1393.763 C 1264.371 1392.034,1281.523 1407.231,1340.441 1466.790 C 1381.362 1508.155,1416.933 1545.988,1419.488 1550.863 C 1423.629 1558.761,1422.826 1560.402,1412.114 1565.941 C 1392.967 1575.842,1308.889 1598.847,1272.293 1604.198 C 1250.653 1607.363,1216.709 1608.287,1176.398 1606.810 C 1124.325 1604.903,1106.605 1602.532,1069.312 1592.485 C 986.175 1570.087,921.189 1537.994,860.256 1489.243 C 769.052 1416.275,717.406 1333.104,681.885 1202.000 C 675.925 1180.000,667.537 1154.507,663.247 1145.348 C 645.474 1107.409,592.506 1092.340,552.828 1113.935 C 501.637 1141.797,496.052 1189.450,531.538 1295.586 C 580.535 1442.132,681.711 1572.346,816.000 1661.690 C 884.192 1707.059,984.753 1749.043,1066.588 1766.309 L 1099.176 1773.185 1101.036 1897.593 C 1102.173 1973.582,1104.646 2027.360,1107.391 2035.772 C 1112.945 2052.793,1136.846 2078.018,1157.532 2088.692 C 1178.920 2099.727,1221.080 2099.727,1242.468 2088.692 C 1263.190 2078.000,1287.075 2052.767,1292.561 2035.772 C 1295.231 2027.498,1297.781 1972.331,1298.948 1897.585 L 1300.891 1773.171 1333.445 1766.223 C 1379.936 1756.301,1450.051 1732.182,1507.888 1706.216 L 1557.776 1683.819 1691.888 1817.126 C 1923.080 2046.931,1937.626 2059.665,1969.229 2059.912 C 1994.465 2060.110,2016.521 2050.935,2037.999 2031.304 C 2065.133 2006.506,2073.572 1986.046,2071.311 1950.538 L 2069.667 1924.728 2025.850 1877.364 C 1957.220 1803.178,626.254 472.943,548.318 400.643 C 477.625 335.062,466.616 327.832,438.000 328.198 C 431.400 328.282,419.493 330.676,411.540 333.518 M1785.021 1102.622 C 1780.082 1103.683,1766.294 1113.460,1754.379 1124.350 L 1732.716 1144.149 1717.968 1204.668 L 1703.220 1265.188 1763.608 1325.575 C 1815.098 1377.065,1825.027 1385.323,1830.998 1381.624 C 1838.716 1376.843,1866.811 1303.175,1880.738 1251.198 C 1886.060 1231.334,1889.707 1205.840,1889.817 1187.725 C 1889.975 1161.620,1888.563 1155.275,1879.569 1141.670 C 1861.942 1115.005,1815.898 1095.990,1785.021 1102.622 " fill="#1D1E23" stroke="none" fill-rule="evenodd"/></svg>