<svg viewBox="0 0 2400 2400" fill="none" xmlns="http://www.w3.org/2000/svg"><path d="M1162.000 202.226 C 1157.600 203.245,1144.180 206.073,1132.178 208.510 C 1044.459 226.324,958.270 299.130,923.365 384.902 C 899.950 442.439,900.000 441.555,900.000 800.000 C 900.000 1158.445,899.950 1157.561,923.365 1215.098 C 952.108 1285.729,1014.271 1347.892,1084.902 1376.635 C 1141.065 1399.491,1201.659 1405.511,1258.135 1393.845 C 1378.468 1368.990,1468.990 1278.468,1493.845 1158.135 C 1503.046 1113.591,1503.046 486.409,1493.845 441.865 C 1470.414 328.428,1387.504 240.717,1274.000 209.291 C 1253.745 203.683,1176.697 198.823,1162.000 202.226 M1234.017 406.625 C 1245.651 410.589,1260.290 420.080,1270.465 430.255 C 1300.980 460.769,1300.000 448.502,1300.000 800.000 C 1300.000 1151.498,1300.980 1139.231,1270.465 1169.745 C 1230.966 1209.244,1169.192 1209.402,1129.895 1170.105 C 1098.750 1138.960,1100.000 1154.438,1100.000 800.000 C 1100.000 445.461,1098.738 461.052,1129.967 429.823 C 1157.748 402.041,1195.720 393.575,1234.017 406.625 M501.489 1144.327 C 512.433 1324.502,598.791 1501.656,733.850 1620.989 C 775.160 1657.489,839.516 1701.654,883.593 1723.752 C 939.226 1751.643,1026.532 1780.319,1085.000 1789.904 L 1100.000 1792.363 1100.000 1946.181 L 1100.000 2100.000 1200.000 2100.000 L 1300.000 2100.000 1300.000 1946.181 L 1300.000 1792.363 1315.000 1789.904 C 1323.250 1788.551,1347.643 1783.064,1369.206 1777.710 C 1665.448 1704.159,1879.820 1446.370,1898.683 1141.000 L 1901.216 1100.000 1801.415 1100.000 L 1701.614 1100.000 1696.852 1147.000 C 1690.716 1207.570,1676.473 1259.874,1652.365 1310.372 C 1584.134 1453.291,1467.853 1548.077,1313.096 1586.927 C 1274.439 1596.631,1262.790 1597.745,1200.000 1597.745 C 1137.210 1597.745,1125.561 1596.631,1086.904 1586.927 C 932.147 1548.077,815.866 1453.291,747.635 1310.372 C 723.527 1259.874,709.284 1207.570,703.148 1147.000 L 698.386 1100.000 598.592 1100.000 L 498.797 1100.000 501.489 1144.327 " fill="#1D1E23" stroke="none" fill-rule="evenodd"/></svg>