<svg viewBox="0 0 2400 2400" fill="none" xmlns="http://www.w3.org/2000/svg"><path d="M1128.000 210.268 C 1095.863 218.654,1037.573 248.603,1010.097 270.845 C 978.058 296.779,950.849 331.228,931.780 370.000 C 900.901 432.781,902.304 412.320,902.304 800.000 C 902.304 1187.663,900.902 1167.199,931.769 1230.000 C 975.999 1319.986,1059.490 1380.642,1160.839 1396.416 C 1236.332 1408.167,1331.941 1380.168,1389.576 1329.432 C 1415.619 1306.507,1450.815 1263.948,1463.537 1240.000 C 1469.965 1227.900,1480.799 1202.107,1487.612 1182.681 L 1500.000 1147.363 1500.000 799.844 L 1500.000 452.326 1486.315 414.037 C 1470.165 368.851,1456.481 343.827,1432.200 315.077 C 1385.439 259.707,1326.425 222.216,1267.169 210.234 C 1229.031 202.523,1157.612 202.540,1128.000 210.268 M500.016 1127.000 C 500.055 1191.989,524.105 1293.607,558.949 1376.000 C 627.545 1538.207,766.066 1675.853,927.075 1741.797 C 972.095 1760.236,1051.307 1784.673,1083.000 1789.900 L 1100.000 1792.703 1100.000 1946.352 L 1100.000 2100.000 1200.000 2100.000 L 1300.000 2100.000 1300.000 1946.797 L 1300.000 1793.594 1339.000 1784.502 C 1478.022 1752.089,1590.294 1692.502,1684.251 1601.264 C 1758.865 1528.808,1808.984 1455.072,1846.372 1362.744 C 1876.122 1289.280,1893.630 1214.302,1898.619 1139.000 L 1901.203 1100.000 1801.220 1100.000 L 1701.238 1100.000 1696.391 1141.000 C 1671.256 1353.598,1544.573 1511.763,1347.967 1576.011 C 1294.747 1593.402,1267.964 1597.156,1198.000 1597.029 C 1125.057 1596.897,1091.629 1591.310,1032.000 1569.282 C 930.957 1531.956,850.641 1470.135,792.891 1385.235 C 742.724 1311.484,717.106 1243.162,705.146 1151.223 L 698.482 1100.000 599.241 1100.000 L 500.000 1100.000 500.016 1127.000 " fill="#1D1E23" stroke="none" fill-rule="evenodd"/></svg>