<svg viewBox="0 0 2400 2400" fill="none" xmlns="http://www.w3.org/2000/svg"><path d="M1122.000 213.404 C 1097.679 221.489,1040.753 251.078,1015.336 268.845 C 967.652 302.177,921.712 373.929,908.312 436.000 C 902.581 462.546,898.967 881.249,903.149 1034.000 C 907.065 1177.005,907.312 1178.627,933.033 1230.690 C 982.946 1331.723,1088.443 1398.147,1198.000 1397.522 C 1268.203 1397.121,1331.840 1374.265,1384.668 1330.476 C 1433.225 1290.228,1463.685 1245.945,1487.800 1180.543 L 1500.000 1147.454 1500.000 800.000 L 1500.000 452.546 1488.189 420.514 C 1472.198 377.144,1458.198 350.310,1437.529 323.416 C 1404.868 280.918,1351.027 240.583,1301.054 221.175 C 1276.327 211.573,1268.151 210.558,1206.000 209.377 C 1157.081 208.448,1133.510 209.578,1122.000 213.404 M501.137 1141.356 C 507.194 1248.316,556.003 1389.844,620.750 1488.188 C 650.685 1533.657,738.243 1624.978,788.000 1662.628 C 850.112 1709.626,982.019 1768.010,1067.677 1786.417 L 1100.000 1793.362 1100.000 1946.681 L 1100.000 2100.000 1200.000 2100.000 L 1300.000 2100.000 1300.000 1946.000 C 1300.000 1820.553,1300.986 1792.000,1305.318 1792.000 C 1319.037 1792.000,1416.696 1762.291,1461.735 1744.415 C 1644.498 1671.881,1793.497 1515.406,1857.813 1328.465 C 1882.752 1255.978,1900.000 1170.946,1900.000 1120.487 L 1900.000 1100.000 1800.461 1100.000 L 1700.922 1100.000 1698.189 1123.000 C 1693.221 1164.808,1679.735 1225.468,1667.286 1262.000 C 1640.767 1339.824,1604.951 1396.267,1544.181 1456.000 C 1481.958 1517.161,1416.819 1554.746,1325.488 1582.185 C 1295.297 1591.256,1280.127 1593.156,1223.855 1594.913 C 1118.217 1598.212,1069.088 1588.564,986.000 1548.202 C 862.892 1488.400,770.226 1381.538,728.625 1251.398 C 721.838 1230.167,712.206 1187.417,707.220 1156.398 L 698.154 1100.000 598.474 1100.000 L 498.795 1100.000 501.137 1141.356 " fill="#1D1E23" stroke="none" fill-rule="evenodd"/></svg>