<svg viewBox="0 0 2400 2400" fill="none" xmlns="http://www.w3.org/2000/svg"><path d="M1124.532 210.301 C 1055.641 228.832,978.012 288.188,941.755 350.058 C 930.003 370.111,909.843 426.844,906.241 450.000 L 903.752 466.000 1202.046 764.000 L 1500.340 1062.000 1498.865 756.000 C 1497.283 427.926,1497.860 437.510,1476.511 384.737 C 1443.723 303.685,1361.424 232.681,1274.160 210.154 C 1243.167 202.154,1154.498 202.241,1124.532 210.301 M368.973 357.026 L 300.032 426.052 600.016 726.016 L 900.000 1025.980 900.030 1071.990 C 900.102 1181.802,927.871 1253.175,995.254 1316.741 C 1030.633 1350.116,1061.491 1368.632,1107.326 1383.988 C 1150.965 1398.608,1208.969 1403.886,1243.832 1396.410 L 1265.645 1391.732 1333.094 1458.866 C 1370.191 1495.790,1406.154 1532.980,1413.013 1541.512 C 1425.122 1556.575,1425.259 1557.187,1417.741 1562.685 C 1404.977 1572.022,1327.324 1594.950,1283.852 1602.219 C 1225.041 1612.053,1129.146 1608.584,1074.000 1594.628 C 1022.756 1581.659,986.480 1567.938,944.165 1545.519 C 789.202 1463.415,683.351 1305.383,673.301 1141.126 L 670.784 1100.000 584.791 1100.000 L 498.797 1100.000 501.464 1140.693 C 512.460 1308.486,597.041 1478.030,728.000 1594.792 C 822.628 1679.162,940.674 1738.793,1067.000 1766.040 L 1100.000 1773.157 1100.000 1936.579 L 1100.000 2100.000 1200.000 2100.000 L 1300.000 2100.000 1300.000 1936.681 L 1300.000 1773.362 1333.000 1766.325 C 1384.604 1755.320,1449.299 1733.255,1505.817 1707.383 L 1557.634 1683.662 1766.803 1892.803 L 1975.971 2101.943 2046.005 2031.995 L 2116.039 1962.046 1279.023 1125.023 C 818.664 664.660,441.086 288.000,439.961 288.000 C 438.835 288.000,406.891 319.062,368.973 357.026 M1726.588 1139.000 C 1725.150 1160.450,1719.478 1197.776,1713.983 1221.946 L 1703.992 1265.891 1760.996 1323.206 C 1792.348 1354.729,1821.180 1382.283,1825.067 1384.437 C 1831.050 1387.753,1833.420 1385.414,1840.532 1369.176 C 1870.126 1301.610,1893.703 1208.026,1898.433 1139.357 L 1901.144 1100.000 1815.173 1100.000 L 1729.203 1100.000 1726.588 1139.000 " fill="#1D1E23" stroke="none" fill-rule="evenodd"/></svg>