<svg viewBox="0 0 2400 2400" fill="none" xmlns="http://www.w3.org/2000/svg"><path d="M1108.000 217.412 C 1055.067 236.229,1001.819 274.611,962.479 322.305 C 940.244 349.260,918.951 396.619,907.994 443.482 L 902.971 464.964 1201.485 763.479 L 1500.000 1061.993 1499.886 819.997 C 1499.761 554.127,1496.015 446.357,1485.703 412.000 C 1462.972 336.260,1403.658 269.966,1322.000 229.033 C 1287.902 211.940,1263.908 207.988,1194.803 208.084 C 1141.576 208.158,1130.761 209.320,1108.000 217.412 M408.214 334.911 C 381.401 344.378,354.370 373.448,348.108 399.552 C 340.009 433.311,344.140 456.422,362.282 478.854 C 383.191 504.708,480.653 604.714,708.394 834.000 L 899.100 1026.000 901.401 1070.029 C 904.140 1122.450,911.882 1161.790,927.241 1201.346 C 960.579 1287.202,1040.442 1360.272,1132.000 1388.689 C 1157.887 1396.724,1169.403 1397.900,1216.000 1397.267 L 1270.000 1396.534 1345.000 1472.247 C 1389.350 1517.019,1420.000 1551.061,1420.000 1555.546 C 1420.000 1565.150,1404.162 1571.598,1332.725 1591.078 C 1278.393 1605.893,1277.455 1605.999,1202.000 1605.896 C 1117.575 1605.780,1093.404 1601.919,1022.000 1577.141 C 967.036 1558.069,917.132 1531.561,871.440 1497.167 C 776.926 1426.023,722.020 1340.795,681.680 1202.611 C 673.430 1174.347,662.883 1145.590,658.244 1138.706 C 625.391 1089.956,549.339 1095.035,518.190 1148.059 C 488.102 1199.277,539.435 1355.719,627.110 1480.000 C 661.025 1528.075,742.603 1609.770,792.048 1645.176 C 861.672 1695.032,982.141 1748.096,1067.000 1766.288 L 1100.000 1773.362 1100.256 1859.681 C 1100.397 1907.157,1101.943 1967.225,1103.691 1993.166 C 1106.663 2037.265,1107.647 2041.297,1118.816 2055.166 C 1140.826 2082.498,1160.951 2093.566,1191.807 2095.310 C 1225.913 2097.237,1242.342 2091.989,1265.202 2071.866 C 1295.157 2045.499,1296.273 2039.738,1298.914 1897.723 L 1301.232 1773.098 1332.823 1766.309 C 1375.117 1757.221,1457.927 1728.558,1512.596 1704.084 L 1557.110 1684.157 1715.415 1840.694 C 1882.354 2005.768,1925.220 2045.267,1947.939 2054.951 C 1977.493 2067.548,2021.323 2052.418,2049.022 2020.058 C 2065.413 2000.909,2072.000 1980.946,2072.000 1950.416 L 2072.000 1927.761 2031.000 1883.008 C 1972.700 1819.372,618.295 466.006,546.085 399.232 C 513.131 368.760,478.813 340.266,469.822 335.914 C 450.537 326.578,432.641 326.287,408.214 334.911 M1781.221 1105.933 C 1774.192 1108.955,1760.443 1118.801,1750.666 1127.813 C 1733.242 1143.874,1732.592 1145.396,1717.827 1204.695 L 1702.764 1265.192 1760.898 1322.596 C 1797.568 1358.806,1822.052 1380.000,1827.213 1380.000 C 1833.885 1380.000,1838.330 1372.442,1851.324 1339.000 C 1882.388 1259.049,1895.635 1195.998,1888.261 1163.181 C 1879.469 1124.051,1816.903 1090.589,1781.221 1105.933 " fill="#1D1E23" stroke="none" fill-rule="evenodd"/></svg>