<svg viewBox="0 0 2400 2400" fill="none" xmlns="http://www.w3.org/2000/svg"><path d="M1108.000 217.412 C 1055.067 236.229,1001.819 274.611,962.479 322.305 C 940.244 349.260,918.951 396.619,907.994 443.482 L 902.971 464.964 1201.485 763.479 L 1500.000 1061.993 1499.886 819.997 C 1499.761 554.127,1496.015 446.357,1485.703 412.000 C 1462.972 336.260,1403.658 269.966,1322.000 229.033 C 1287.902 211.940,1263.908 207.988,1194.803 208.084 C 1141.576 208.158,1130.761 209.320,1108.000 217.412 M368.973 357.026 L 300.032 426.052 599.411 725.411 L 898.790 1024.770 901.280 1085.385 C 904.140 1155.042,910.492 1184.844,932.104 1230.000 C 957.463 1282.987,1002.213 1330.286,1056.000 1360.954 C 1106.390 1389.686,1191.304 1406.125,1240.651 1396.701 L 1266.000 1391.860 1340.491 1467.177 C 1413.828 1541.326,1426.377 1557.586,1415.471 1564.327 C 1407.781 1569.080,1339.054 1590.565,1306.000 1598.550 C 1266.215 1608.160,1134.933 1608.060,1090.663 1598.385 C 1000.400 1578.660,912.902 1534.810,846.910 1476.228 C 743.820 1384.714,689.242 1279.553,675.270 1145.515 L 670.526 1100.000 584.659 1100.000 L 498.793 1100.000 501.275 1137.772 C 513.425 1322.743,616.716 1511.077,770.750 1629.117 C 850.436 1690.181,962.063 1741.519,1069.000 1766.284 L 1100.000 1773.463 1100.000 1936.731 L 1100.000 2100.000 1200.000 2100.000 L 1300.000 2100.000 1300.000 1936.681 L 1300.000 1773.362 1332.206 1766.442 C 1375.155 1757.212,1457.675 1728.670,1512.948 1703.927 L 1557.814 1683.842 1766.892 1892.892 L 1975.971 2101.943 2046.005 2031.995 L 2116.039 1962.046 1279.023 1125.023 C 818.664 664.660,441.086 288.000,439.961 288.000 C 438.835 288.000,406.891 319.062,368.973 357.026 M1724.499 1144.303 C 1721.856 1168.670,1716.125 1205.952,1711.763 1227.153 L 1703.831 1265.700 1746.916 1309.133 C 1770.612 1333.021,1798.781 1360.000,1809.513 1369.085 L 1829.027 1385.605 1836.078 1376.898 C 1854.801 1353.776,1894.019 1201.595,1898.832 1133.385 L 1901.188 1100.000 1815.246 1100.000 L 1729.304 1100.000 1724.499 1144.303 " fill="#1D1E23" stroke="none" fill-rule="evenodd"/></svg>