<svg viewBox="0 0 2400 2400" fill="none" xmlns="http://www.w3.org/2000/svg"><path d="M1142.000 206.501 C 1025.863 231.689,932.808 321.941,907.434 434.000 C 899.458 469.225,899.462 1130.920,907.439 1165.749 C 928.713 1258.637,1000.187 1342.298,1088.000 1377.097 C 1173.357 1410.922,1257.503 1406.173,1342.000 1362.761 C 1366.351 1350.250,1382.643 1337.677,1410.160 1310.160 C 1450.086 1270.234,1471.573 1234.593,1488.628 1180.000 L 1498.000 1150.000 1498.000 800.000 L 1498.000 450.000 1488.628 420.000 C 1471.920 366.518,1449.885 329.659,1412.107 292.000 C 1376.691 256.695,1349.155 237.999,1308.221 221.465 C 1263.305 203.323,1187.939 196.538,1142.000 206.501 M1244.190 412.097 C 1266.870 423.668,1286.925 445.465,1292.838 464.971 C 1300.357 489.776,1300.357 1110.224,1292.838 1135.029 C 1286.853 1154.772,1267.003 1176.154,1242.894 1188.825 C 1221.021 1200.321,1180.814 1201.094,1159.025 1190.437 C 1137.435 1179.877,1113.297 1154.923,1107.582 1137.255 C 1101.204 1117.537,1097.517 574.900,1103.295 506.441 C 1107.722 454.005,1113.679 440.240,1139.775 422.156 C 1173.932 398.485,1210.587 394.954,1244.190 412.097 M500.000 1121.105 C 500.000 1174.498,514.003 1250.268,536.387 1318.000 C 590.715 1482.388,700.218 1617.016,851.954 1705.973 C 906.585 1738.001,994.584 1770.882,1067.000 1786.325 L 1100.000 1793.362 1100.000 1946.681 L 1100.000 2100.000 1200.000 2100.000 L 1300.000 2100.000 1300.012 1947.000 L 1300.024 1794.000 1356.255 1780.453 C 1536.302 1737.077,1685.393 1633.324,1785.121 1482.000 C 1849.344 1384.551,1890.811 1260.361,1898.419 1142.678 L 1901.178 1100.000 1801.241 1100.000 L 1701.304 1100.000 1696.540 1143.931 C 1672.008 1370.114,1520.455 1539.853,1298.000 1590.294 C 1253.094 1600.476,1146.906 1600.476,1102.000 1590.294 C 980.063 1562.645,876.410 1498.146,807.985 1407.338 C 745.289 1324.134,714.624 1246.856,703.460 1143.931 L 698.696 1100.000 599.348 1100.000 L 500.000 1100.000 500.000 1121.105 " fill="#1D1E23" stroke="none" fill-rule="evenodd"/></svg>