<svg viewBox="0 0 2400 2400" fill="none" xmlns="http://www.w3.org/2000/svg"><path d="M1151.054 203.856 C 1121.342 209.290,1092.690 219.616,1058.000 237.390 C 1018.952 257.397,965.609 308.631,942.835 348.000 C 927.646 374.259,911.069 420.576,906.329 450.000 L 903.752 466.000 1201.876 763.990 L 1500.000 1061.980 1500.000 766.821 C 1500.000 444.714,1499.827 441.892,1476.635 384.902 C 1442.556 301.159,1365.915 234.740,1274.000 209.291 C 1249.185 202.421,1176.476 199.206,1151.054 203.856 M368.973 357.026 L 300.032 426.052 600.016 726.016 L 900.000 1025.980 900.000 1077.159 C 900.000 1180.111,925.947 1248.667,988.640 1311.360 C 1032.511 1355.231,1080.816 1381.235,1141.865 1393.845 C 1175.948 1400.885,1221.809 1401.692,1247.771 1395.709 L 1265.542 1391.613 1346.780 1472.779 C 1391.461 1517.420,1427.478 1555.567,1426.817 1557.549 C 1424.927 1563.219,1369.908 1583.096,1326.000 1593.972 C 1142.015 1639.543,943.161 1582.564,810.589 1446.289 C 726.894 1360.255,672.000 1233.184,672.000 1125.476 L 672.000 1100.000 585.399 1100.000 L 498.797 1100.000 501.415 1139.942 C 520.251 1427.363,735.241 1680.196,1024.906 1755.578 C 1049.708 1762.032,1076.750 1768.449,1085.000 1769.838 L 1100.000 1772.363 1100.000 1936.181 L 1100.000 2100.000 1200.000 2100.000 L 1300.000 2100.000 1300.000 1936.181 L 1300.000 1772.363 1315.000 1769.811 C 1378.667 1758.981,1451.473 1734.735,1515.305 1703.105 L 1556.609 1682.638 1766.290 1892.290 L 1975.971 2101.943 2046.005 2031.995 L 2116.039 1962.046 1279.023 1125.023 C 818.664 664.660,441.086 288.000,439.961 288.000 C 438.835 288.000,406.891 319.062,368.973 357.026 M1728.000 1125.476 C 1728.000 1153.562,1719.081 1210.098,1709.378 1243.518 L 1703.131 1265.036 1764.517 1326.518 C 1798.279 1360.333,1827.298 1388.000,1829.002 1388.000 C 1833.445 1388.000,1850.502 1348.473,1866.112 1302.000 C 1883.404 1250.520,1895.177 1191.949,1898.536 1140.693 L 1901.203 1100.000 1814.601 1100.000 L 1728.000 1100.000 1728.000 1125.476 " fill="#1D1E23" stroke="none" fill-rule="evenodd"/></svg>