<svg viewBox="0 0 2400 2400" fill="none" xmlns="http://www.w3.org/2000/svg"><path d="M1162.000 202.226 C 1157.600 203.245,1144.180 206.073,1132.178 208.510 C 1044.459 226.324,958.270 299.130,923.365 384.902 C 899.950 442.439,900.000 441.555,900.000 800.000 C 900.000 1158.445,899.950 1157.561,923.365 1215.098 C 976.350 1345.298,1120.513 1422.272,1258.135 1393.845 C 1378.468 1368.990,1468.990 1278.468,1493.845 1158.135 C 1503.046 1113.591,1503.046 486.409,1493.845 441.865 C 1470.414 328.428,1387.504 240.717,1274.000 209.291 C 1253.745 203.683,1176.697 198.823,1162.000 202.226 M1234.017 406.625 C 1245.651 410.589,1260.290 420.080,1270.465 430.255 C 1300.980 460.769,1300.000 448.502,1300.000 800.000 C 1300.000 1151.498,1300.980 1139.231,1270.465 1169.745 C 1230.966 1209.244,1169.192 1209.402,1129.895 1170.105 C 1098.750 1138.960,1100.000 1154.438,1100.000 800.000 C 1100.000 445.461,1098.738 461.052,1129.967 429.823 C 1157.748 402.041,1195.720 393.575,1234.017 406.625 M580.285 1104.423 C 558.443 1111.074,533.041 1130.799,521.954 1149.718 C 501.701 1184.277,505.392 1228.618,536.250 1321.444 C 606.082 1531.508,774.679 1697.903,986.000 1765.319 C 1020.068 1776.187,1086.708 1792.000,1098.442 1792.000 C 1099.299 1792.000,1100.000 1842.079,1100.000 1903.287 C 1100.000 2031.217,1101.963 2042.174,1129.895 2070.105 C 1169.021 2109.232,1230.979 2109.232,1270.105 2070.105 C 1298.037 2042.174,1300.000 2031.217,1300.000 1903.287 C 1300.000 1842.079,1300.701 1792.000,1301.558 1792.000 C 1313.292 1792.000,1379.932 1776.187,1414.000 1765.319 C 1649.730 1690.116,1831.625 1490.803,1883.645 1250.702 C 1894.955 1198.500,1894.456 1181.614,1880.829 1155.530 C 1853.455 1103.130,1787.779 1084.840,1738.718 1115.953 C 1711.321 1133.328,1701.545 1151.475,1686.218 1213.408 C 1639.563 1401.932,1502.182 1539.459,1313.096 1586.927 C 1274.439 1596.631,1262.790 1597.745,1200.000 1597.745 C 1137.210 1597.745,1125.561 1596.631,1086.904 1586.927 C 897.428 1539.361,760.451 1402.068,713.641 1212.803 C 698.268 1150.647,688.328 1132.728,659.249 1114.749 C 638.378 1101.846,603.658 1097.306,580.285 1104.423 " fill="#1D1E23" stroke="none" fill-rule="evenodd"/></svg>