<svg viewBox="0 0 2400 2400" fill="none" xmlns="http://www.w3.org/2000/svg"><path d="M1121.128 213.878 C 1069.830 228.360,1002.809 273.585,965.877 318.641 C 942.939 346.625,923.099 387.825,911.258 432.065 L 902.562 464.556 1201.588 763.278 L 1500.613 1062.000 1498.662 770.000 C 1497.409 582.511,1495.072 466.584,1492.132 446.106 C 1480.685 366.361,1429.229 294.740,1346.982 244.070 C 1328.842 232.894,1305.000 220.944,1294.000 217.514 C 1264.786 208.404,1149.135 205.972,1121.128 213.878 M416.575 332.585 C 360.296 348.782,328.435 413.322,352.340 462.703 C 361.810 482.266,458.759 583.122,724.647 850.017 L 900.000 1026.033 900.000 1048.122 C 900.000 1080.869,907.234 1134.104,916.177 1167.166 C 942.890 1265.921,1022.229 1350.024,1121.165 1384.463 C 1151.455 1395.007,1158.542 1395.897,1212.597 1395.946 L 1271.193 1396.000 1336.146 1463.000 C 1371.870 1499.850,1405.730 1536.067,1411.391 1543.481 L 1421.684 1556.963 1413.213 1563.822 C 1401.562 1573.257,1309.144 1599.049,1267.874 1604.384 C 1217.938 1610.840,1123.609 1605.670,1077.386 1593.945 C 949.164 1561.418,835.902 1487.298,767.977 1391.464 C 737.051 1347.832,711.304 1292.284,685.240 1212.967 C 665.459 1152.771,659.862 1140.089,647.635 1127.757 C 603.501 1083.247,519.650 1111.046,510.317 1173.282 C 501.682 1230.864,549.792 1363.546,615.005 1462.000 C 651.737 1517.455,754.786 1620.841,807.878 1655.502 C 877.990 1701.275,975.877 1743.779,1056.449 1763.435 L 1098.897 1773.791 1101.163 1895.895 C 1102.498 1967.782,1105.282 2024.214,1107.933 2033.109 C 1117.589 2065.505,1151.449 2090.870,1190.407 2094.891 C 1219.397 2097.883,1242.891 2090.517,1265.211 2071.438 C 1294.094 2046.749,1296.076 2036.261,1298.854 1893.403 L 1301.199 1772.805 1325.599 1768.063 C 1360.832 1761.215,1447.696 1731.569,1506.548 1706.306 L 1557.376 1684.487 1709.688 1834.943 C 1869.653 1992.959,1924.334 2043.451,1947.292 2054.345 C 1986.112 2072.766,2054.331 2033.458,2067.818 1984.899 C 2070.093 1976.705,2071.965 1959.257,2071.978 1946.126 L 2072.000 1922.252 1313.000 1163.699 C 895.550 746.495,537.800 391.134,518.000 374.007 C 467.743 330.535,449.535 323.099,416.575 332.585 M1763.127 1118.046 C 1752.747 1125.662,1741.458 1136.160,1738.041 1141.376 C 1734.624 1146.592,1725.227 1176.577,1717.159 1208.011 L 1702.491 1265.163 1754.423 1315.950 C 1782.985 1343.883,1811.332 1369.999,1817.417 1373.986 C 1832.315 1383.747,1835.910 1379.627,1854.051 1332.000 C 1886.376 1247.131,1897.407 1176.915,1882.767 1149.207 C 1869.417 1123.937,1833.211 1103.933,1801.128 1104.099 C 1785.699 1104.179,1778.351 1106.876,1763.127 1118.046 " fill="#1D1E23" stroke="none" fill-rule="evenodd"/></svg>