<svg viewBox="0 0 2400 2400" fill="none" xmlns="http://www.w3.org/2000/svg"><path d="M744.000 510.413 C 695.987 523.258,643.527 568.703,620.138 617.711 C 609.948 639.061,607.007 651.798,603.710 688.858 C 601.200 717.057,600.126 923.923,600.846 1240.000 L 602.000 1746.000 617.033 1777.485 C 636.439 1818.129,677.986 1860.849,716.000 1879.246 C 792.507 1916.273,875.553 1900.996,938.425 1838.332 C 967.652 1809.201,979.443 1790.497,992.493 1752.566 C 999.688 1731.653,1000.000 1708.695,1000.000 1199.556 L 1000.000 668.364 990.686 642.704 C 977.937 607.582,963.244 583.625,940.505 560.886 C 917.996 538.377,874.845 514.729,844.803 508.438 C 815.971 502.401,770.624 503.289,744.000 510.413 M1544.000 510.413 C 1495.987 523.258,1443.527 568.703,1420.138 617.711 C 1409.948 639.061,1407.007 651.798,1403.710 688.858 C 1401.200 717.057,1400.126 923.923,1400.846 1240.000 L 1402.000 1746.000 1417.033 1777.485 C 1436.439 1818.129,1477.986 1860.849,1516.000 1879.246 C 1592.507 1916.273,1675.553 1900.996,1738.425 1838.332 C 1767.652 1809.201,1779.443 1790.497,1792.493 1752.566 C 1799.688 1731.653,1800.000 1708.695,1800.000 1199.556 L 1800.000 668.364 1790.686 642.704 C 1777.937 607.582,1763.244 583.625,1740.505 560.886 C 1717.996 538.377,1674.845 514.729,1644.803 508.438 C 1615.971 502.401,1570.624 503.289,1544.000 510.413 " fill="#1D1E23" stroke="none" fill-rule="evenodd"/></svg>