<svg viewBox="0 0 2400 2400" fill="none" xmlns="http://www.w3.org/2000/svg"><path d="M1092.000 208.195 C 959.583 217.612,774.985 284.088,650.000 367.365 C 586.905 409.405,555.098 435.257,502.648 487.127 C 363.854 624.385,276.854 775.163,230.161 959.365 C 205.012 1058.578,196.820 1154.108,203.644 1268.604 C 217.530 1501.574,324.411 1736.163,494.112 1906.139 C 648.455 2060.734,836.826 2154.470,1066.000 2190.721 C 1127.908 2200.514,1272.321 2200.465,1336.000 2190.631 C 1552.475 2157.198,1739.395 2065.492,1891.594 1918.045 C 1952.477 1859.063,1990.768 1813.407,2034.144 1748.075 C 2183.778 1522.703,2235.142 1240.028,2173.711 980.000 C 2081.156 588.228,1778.378 295.484,1387.331 219.679 C 1363.443 215.049,1313.780 210.156,1268.185 207.941 C 1181.755 203.743,1154.037 203.783,1092.000 208.195 M1050.197 816.122 C 1067.568 826.858,1087.109 849.374,1090.942 863.073 C 1094.964 877.444,1094.922 1522.700,1090.898 1537.101 C 1087.124 1550.609,1062.617 1578.441,1047.709 1586.150 C 1026.560 1597.087,1000.272 1600.624,976.621 1595.714 C 957.814 1591.809,951.076 1587.716,931.912 1568.552 C 910.496 1547.136,909.214 1544.716,906.737 1521.013 C 901.708 1472.898,898.938 988.387,903.331 925.273 C 908.162 855.877,913.776 839.727,938.713 823.489 C 976.655 798.783,1017.748 796.067,1050.197 816.122 M1450.197 816.122 C 1467.568 826.858,1487.109 849.374,1490.942 863.073 C 1494.964 877.444,1494.922 1522.700,1490.898 1537.101 C 1487.124 1550.609,1462.617 1578.441,1447.709 1586.150 C 1426.560 1597.087,1400.272 1600.624,1376.621 1595.714 C 1357.814 1591.809,1351.076 1587.716,1331.912 1568.552 C 1310.496 1547.136,1309.214 1544.716,1306.737 1521.013 C 1301.708 1472.898,1298.938 988.387,1303.331 925.273 C 1308.162 855.877,1313.776 839.727,1338.713 823.489 C 1376.655 798.783,1417.748 796.067,1450.197 816.122 " fill="#1D1E23" stroke="none" fill-rule="evenodd"/></svg>