<svg viewBox="0 0 2400 2400" fill="none" xmlns="http://www.w3.org/2000/svg"><path d="M1062.000 210.040 C 838.845 245.765,647.360 340.791,498.022 489.920 C 335.373 652.340,239.530 845.602,207.371 1076.000 C 199.343 1133.512,200.542 1278.601,209.535 1338.000 C 259.968 1671.099,465.368 1953.685,762.000 2098.072 C 996.553 2212.242,1262.178 2230.922,1508.000 2150.533 C 1764.708 2066.585,1981.131 1878.587,2098.027 1638.000 C 2234.203 1357.731,2233.307 1038.111,2095.564 760.000 C 2043.904 655.694,1982.750 570.004,1904.273 491.959 C 1757.151 345.647,1581.994 255.288,1368.000 215.310 C 1310.952 204.652,1116.566 201.304,1062.000 210.040 M1044.190 812.097 C 1066.870 823.668,1086.925 845.465,1092.838 864.971 C 1100.357 889.776,1100.357 1510.224,1092.838 1535.029 C 1086.853 1554.772,1067.003 1576.154,1042.894 1588.825 C 1021.021 1600.321,980.814 1601.094,959.025 1590.437 C 937.435 1579.877,913.297 1554.923,907.582 1537.255 C 901.204 1517.537,897.517 974.900,903.295 906.441 C 907.722 854.005,913.679 840.240,939.775 822.156 C 973.932 798.485,1010.587 794.954,1044.190 812.097 M1444.190 812.097 C 1466.870 823.668,1486.925 845.465,1492.838 864.971 C 1500.357 889.776,1500.357 1510.224,1492.838 1535.029 C 1486.853 1554.772,1467.003 1576.154,1442.894 1588.825 C 1421.021 1600.321,1380.814 1601.094,1359.025 1590.437 C 1337.435 1579.877,1313.297 1554.923,1307.582 1537.255 C 1301.204 1517.537,1297.517 974.900,1303.295 906.441 C 1307.722 854.005,1313.679 840.240,1339.775 822.156 C 1373.932 798.485,1410.587 794.954,1444.190 812.097 " fill="#1D1E23" stroke="none" fill-rule="evenodd"/></svg>