<svg viewBox="0 0 2400 2400" fill="none" xmlns="http://www.w3.org/2000/svg"><path d="M768.000 502.417 C 687.708 517.286,620.601 581.603,604.420 659.197 C 598.197 689.038,598.197 1710.962,604.420 1740.803 C 623.232 1831.010,707.989 1900.000,800.000 1900.000 C 892.011 1900.000,976.768 1831.010,995.580 1740.803 C 1001.803 1710.962,1001.803 689.038,995.580 659.197 C 977.315 571.610,900.058 506.120,810.174 502.030 C 792.478 501.224,773.500 501.399,768.000 502.417 M1568.000 502.417 C 1487.708 517.286,1420.601 581.603,1404.420 659.197 C 1398.197 689.038,1398.197 1710.962,1404.420 1740.803 C 1423.232 1831.010,1507.989 1900.000,1600.000 1900.000 C 1692.011 1900.000,1776.768 1831.010,1795.580 1740.803 C 1801.803 1710.962,1801.803 689.038,1795.580 659.197 C 1777.315 571.610,1700.058 506.120,1610.174 502.030 C 1592.478 501.224,1573.500 501.399,1568.000 502.417 " fill="#1D1E23" stroke="none" fill-rule="evenodd"/></svg>