<svg viewBox="0 0 2400 2400" fill="none" xmlns="http://www.w3.org/2000/svg"><path d="M1050.920 214.235 C 966.802 227.326,872.611 255.504,790.526 292.132 C 548.270 400.231,350.343 611.983,262.121 857.444 C 177.255 1093.568,180.890 1337.421,272.697 1567.099 C 357.407 1779.020,519.807 1965.347,710.000 2068.830 C 804.085 2120.022,866.993 2144.767,966.846 2169.863 C 1054.834 2191.976,1090.203 2196.055,1194.881 2196.161 C 1298.719 2196.266,1335.332 2192.837,1408.000 2176.204 C 1560.892 2141.208,1696.294 2077.624,1812.000 1986.487 C 2041.196 1805.960,2174.407 1555.363,2196.258 1263.617 C 2214.486 1020.254,2128.022 757.770,1964.627 560.437 C 1802.499 364.635,1553.773 232.284,1310.000 212.101 C 1241.508 206.430,1093.219 207.651,1050.920 214.235 M1050.496 818.079 C 1059.694 823.469,1072.795 835.462,1079.610 844.728 L 1092.000 861.576 1091.753 1175.788 C 1091.617 1348.605,1090.201 1503.006,1088.607 1518.902 C 1085.321 1551.670,1078.560 1563.413,1052.278 1582.000 C 1036.551 1593.123,1032.757 1594.000,1000.363 1594.000 C 969.058 1594.000,963.708 1592.870,949.032 1583.157 C 940.020 1577.194,927.588 1565.682,921.404 1557.574 C 910.919 1543.828,909.977 1539.434,907.428 1492.417 C 903.386 1417.878,903.646 939.899,907.751 897.493 C 909.694 877.415,914.144 855.458,917.638 848.700 C 938.376 808.597,1007.235 792.726,1050.496 818.079 M1450.496 818.079 C 1459.694 823.469,1472.795 835.462,1479.610 844.728 L 1492.000 861.576 1491.753 1175.788 C 1491.617 1348.605,1490.201 1503.006,1488.607 1518.902 C 1485.321 1551.670,1478.560 1563.413,1452.278 1582.000 C 1436.551 1593.123,1432.757 1594.000,1400.363 1594.000 C 1369.058 1594.000,1363.708 1592.870,1349.032 1583.157 C 1340.020 1577.194,1327.588 1565.682,1321.404 1557.574 C 1310.919 1543.828,1309.977 1539.434,1307.428 1492.417 C 1303.386 1417.878,1303.646 939.899,1307.751 897.493 C 1309.694 877.415,1314.144 855.458,1317.638 848.700 C 1338.376 808.597,1407.235 792.726,1450.496 818.079 " fill="#1D1E23" stroke="none" fill-rule="evenodd"/></svg>