<svg viewBox="0 0 2400 2400" fill="none" xmlns="http://www.w3.org/2000/svg"><path d="M752.411 510.187 C 718.447 517.555,689.014 535.939,656.482 570.106 C 629.416 598.533,615.813 621.562,607.615 652.834 C 604.439 664.949,602.534 827.809,601.139 1206.306 L 599.162 1742.613 610.119 1764.306 C 664.956 1872.878,762.068 1921.006,859.007 1887.653 C 889.989 1876.994,914.692 1860.240,942.579 1830.974 C 971.477 1800.647,981.051 1785.316,990.646 1754.000 C 997.629 1731.210,998.000 1702.872,998.000 1192.000 L 998.000 654.000 983.250 623.832 C 956.889 569.917,899.083 522.801,843.898 510.250 C 810.969 502.760,786.724 502.744,752.411 510.187 M1552.411 510.187 C 1518.447 517.555,1489.014 535.939,1456.482 570.106 C 1429.416 598.533,1415.813 621.562,1407.615 652.834 C 1404.439 664.949,1402.534 827.809,1401.139 1206.306 L 1399.162 1742.613 1410.119 1764.306 C 1464.956 1872.878,1562.068 1921.006,1659.007 1887.653 C 1689.989 1876.994,1714.692 1860.240,1742.579 1830.974 C 1771.477 1800.647,1781.051 1785.316,1790.646 1754.000 C 1797.629 1731.210,1798.000 1702.872,1798.000 1192.000 L 1798.000 654.000 1783.250 623.832 C 1756.889 569.917,1699.083 522.801,1643.898 510.250 C 1610.969 502.760,1586.724 502.744,1552.411 510.187 " fill="#1D1E23" stroke="none" fill-rule="evenodd"/></svg>