<svg viewBox="0 0 2400 2400" fill="none" xmlns="http://www.w3.org/2000/svg"><path d="M1062.000 210.040 C 838.845 245.765,647.360 340.791,498.022 489.920 C 335.373 652.340,239.530 845.602,207.371 1076.000 C 199.343 1133.512,200.542 1278.601,209.535 1338.000 C 259.968 1671.099,465.368 1953.685,762.000 2098.072 C 996.553 2212.242,1262.178 2230.922,1508.000 2150.533 C 1764.708 2066.585,1981.131 1878.587,2098.027 1638.000 C 2234.203 1357.731,2233.307 1038.111,2095.564 760.000 C 2043.904 655.694,1982.750 570.004,1904.273 491.959 C 1757.151 345.647,1581.994 255.288,1368.000 215.310 C 1310.952 204.652,1116.566 201.304,1062.000 210.040 M1246.818 935.449 C 1541.229 1156.334,1592.000 1195.246,1592.000 1199.999 C 1592.000 1207.111,1008.729 1646.061,1004.669 1642.004 C 997.896 1635.236,999.436 756.000,1006.221 756.000 C 1007.000 756.000,1115.268 836.752,1246.818 935.449 " fill="#1D1E23" stroke="none" fill-rule="evenodd"/></svg>