<svg viewBox="0 0 2400 2400" fill="none" xmlns="http://www.w3.org/2000/svg"><path d="M1112.000 203.923 C 833.630 231.768,590.463 362.388,419.326 576.000 C 147.365 915.458,126.704 1391.677,368.248 1753.288 C 676.969 2215.470,1294.618 2338.595,1756.000 2029.929 C 2215.492 1722.528,2337.727 1104.086,2029.929 644.000 C 1872.846 409.198,1631.891 256.219,1349.288 211.869 C 1290.914 202.708,1165.973 198.524,1112.000 203.923 M1303.000 977.299 C 1464.150 1098.132,1596.000 1198.348,1596.000 1200.000 C 1596.000 1202.448,1021.725 1635.278,1005.000 1645.435 C 1001.012 1647.858,1000.000 1557.731,1000.000 1200.000 C 1000.000 842.269,1001.012 752.142,1005.000 754.565 C 1007.750 756.235,1141.850 856.465,1303.000 977.299 " fill="#1D1E23" stroke="none" fill-rule="evenodd"/></svg>