<svg viewBox="0 0 2400 2400" fill="none" xmlns="http://www.w3.org/2000/svg"><path d="M1050.920 214.235 C 966.802 227.326,872.611 255.504,790.526 292.132 C 548.270 400.231,350.343 611.983,262.121 857.444 C 177.255 1093.568,180.890 1337.421,272.697 1567.099 C 357.407 1779.020,519.807 1965.347,710.000 2068.830 C 804.085 2120.022,866.993 2144.767,966.846 2169.863 C 1054.834 2191.976,1090.203 2196.055,1194.881 2196.161 C 1298.719 2196.266,1335.332 2192.837,1408.000 2176.204 C 1560.892 2141.208,1696.294 2077.624,1812.000 1986.487 C 2041.196 1805.960,2174.407 1555.363,2196.258 1263.617 C 2214.486 1020.254,2128.022 757.770,1964.627 560.437 C 1802.499 364.635,1553.773 232.284,1310.000 212.101 C 1241.508 206.430,1093.219 207.651,1050.920 214.235 M1092.487 823.298 C 1164.772 870.565,1530.492 1150.115,1551.816 1174.402 C 1570.149 1195.281,1568.500 1209.144,1545.000 1231.737 C 1490.759 1283.885,1110.471 1570.574,1064.912 1593.663 C 1052.583 1599.912,1050.843 1599.861,1034.912 1592.798 C 1025.610 1588.674,1015.672 1582.479,1012.826 1579.031 C 1008.657 1573.979,1007.880 1499.985,1008.826 1198.033 L 1010.000 823.304 1021.223 813.652 C 1039.399 798.020,1057.595 800.483,1092.487 823.298 " fill="#1D1E23" stroke="none" fill-rule="evenodd"/></svg>