<svg viewBox="0 0 2400 2400" fill="none" xmlns="http://www.w3.org/2000/svg"><path d="M1112.000 203.923 C 833.630 231.768,590.463 362.388,419.326 576.000 C 147.365 915.458,126.704 1391.677,368.248 1753.288 C 676.969 2215.470,1294.618 2338.595,1756.000 2029.929 C 2215.492 1722.528,2337.727 1104.086,2029.929 644.000 C 1872.846 409.198,1631.891 256.219,1349.288 211.869 C 1290.914 202.708,1165.973 198.524,1112.000 203.923 M1074.775 807.819 C 1107.164 827.568,1552.520 1165.074,1558.762 1174.602 C 1567.796 1188.390,1567.796 1211.610,1558.762 1225.398 C 1552.520 1234.926,1107.164 1572.432,1074.775 1592.181 C 1058.522 1602.091,1041.467 1602.084,1025.194 1592.162 C 998.594 1575.943,1000.000 1597.823,1000.000 1200.000 C 1000.000 802.177,998.594 824.057,1025.194 807.838 C 1041.467 797.916,1058.522 797.909,1074.775 807.819 " fill="#1D1E23" stroke="none" fill-rule="evenodd"/></svg>