<svg viewBox="0 0 2400 2400" fill="none" xmlns="http://www.w3.org/2000/svg"><path d="M858.000 594.260 C 838.420 604.394,816.555 628.292,809.033 647.779 C 802.447 664.842,802.000 700.319,802.000 1206.000 C 802.000 1810.650,799.233 1755.305,831.006 1786.213 C 851.957 1806.593,864.579 1812.186,895.300 1814.705 L 922.000 1816.893 1000.000 1769.765 C 1262.419 1611.209,1776.230 1278.147,1791.504 1256.697 C 1820.148 1216.470,1818.068 1168.356,1786.364 1137.816 C 1767.313 1119.465,1714.599 1084.141,1512.000 953.965 C 1198.051 752.243,975.412 612.970,942.000 597.399 C 917.823 586.131,876.676 584.594,858.000 594.260 " fill="#1D1E23" stroke="none" fill-rule="evenodd"/></svg>