<svg viewBox="0 0 2400 2400" fill="none" xmlns="http://www.w3.org/2000/svg"><path d="M1118.000 206.424 C 956.947 218.282,787.043 277.650,644.362 371.923 C 494.452 470.972,358.807 630.799,288.119 791.674 C 266.998 839.740,242.361 911.165,230.085 959.915 C 182.920 1147.222,193.856 1354.889,260.483 1537.119 C 334.478 1739.503,470.551 1912.980,650.000 2033.707 C 696.182 2064.777,800.010 2116.962,857.739 2138.120 C 908.419 2156.694,1005.333 2181.431,1062.000 2190.256 C 1129.444 2200.759,1285.600 2199.715,1350.000 2188.330 C 1565.633 2150.209,1739.801 2062.760,1894.450 1914.965 C 2167.011 1654.483,2267.301 1255.006,2149.937 897.307 C 2068.516 649.154,1906.900 452.080,1682.000 326.706 C 1573.429 266.182,1435.324 222.100,1324.000 212.437 C 1271.207 207.854,1147.583 204.246,1118.000 206.424 M1069.865 807.949 C 1093.505 816.937,1534.069 1150.614,1554.980 1175.369 C 1564.017 1186.067,1565.981 1198.198,1561.428 1215.196 C 1557.680 1229.187,1371.267 1374.885,1168.000 1522.696 C 1060.821 1600.633,1059.676 1601.298,1041.181 1596.318 C 1032.545 1593.993,1021.096 1587.422,1015.739 1581.716 L 1006.000 1571.343 1006.549 1210.671 C 1006.851 1012.302,1008.695 841.931,1010.648 832.069 C 1013.225 819.053,1016.912 812.764,1024.099 809.128 C 1036.049 803.081,1055.728 802.574,1069.865 807.949 " fill="#1D1E23" stroke="none" fill-rule="evenodd"/></svg>