<svg viewBox="0 0 2400 2400" fill="none" xmlns="http://www.w3.org/2000/svg"><path d="M1062.000 210.040 C 838.845 245.765,647.360 340.791,498.022 489.920 C 335.373 652.340,239.530 845.602,207.371 1076.000 C 199.343 1133.512,200.542 1278.601,209.535 1338.000 C 259.968 1671.099,465.368 1953.685,762.000 2098.072 C 996.553 2212.242,1262.178 2230.922,1508.000 2150.533 C 1764.708 2066.585,1981.131 1878.587,2098.027 1638.000 C 2234.203 1357.731,2233.307 1038.111,2095.564 760.000 C 2043.904 655.694,1982.750 570.004,1904.273 491.959 C 1757.151 345.647,1581.994 255.288,1368.000 215.310 C 1310.952 204.652,1116.566 201.304,1062.000 210.040 M1326.000 411.837 C 1622.919 460.750,1864.045 666.230,1959.754 951.902 C 1999.698 1071.128,2008.586 1220.991,1983.463 1351.671 C 1917.079 1696.981,1632.628 1957.109,1279.158 1995.753 C 1025.610 2023.473,757.215 1914.525,591.610 1716.662 C 393.891 1480.428,345.941 1159.772,467.097 884.000 C 573.880 640.941,790.372 466.063,1046.000 416.371 C 1138.265 398.435,1235.125 396.867,1326.000 411.837 M1028.005 806.809 C 1000.566 820.907,1002.000 799.230,1002.000 1200.000 C 1002.000 1513.778,1002.799 1563.599,1008.000 1574.000 C 1016.081 1590.161,1040.010 1601.639,1058.423 1598.185 C 1068.548 1596.285,1132.765 1550.201,1287.249 1433.974 C 1567.564 1223.075,1560.827 1228.417,1564.696 1214.000 C 1571.912 1187.109,1566.236 1178.136,1518.522 1141.009 C 1461.396 1096.559,1130.450 847.643,1095.181 822.599 C 1063.879 800.373,1047.859 796.607,1028.005 806.809 " fill="#1D1E23" stroke="none" fill-rule="evenodd"/></svg>