<svg viewBox="0 0 2400 2400" fill="none" xmlns="http://www.w3.org/2000/svg"><path d="M864.956 589.339 C 845.353 596.449,825.569 613.904,813.129 635.068 L 802.000 654.000 802.000 1200.000 L 802.000 1746.000 812.643 1764.000 C 834.340 1800.695,859.871 1816.000,899.387 1816.000 C 921.953 1816.000,925.597 1814.455,979.367 1782.103 C 1124.350 1694.867,1549.443 1425.048,1697.945 1326.000 C 1786.869 1266.689,1794.578 1260.605,1803.159 1242.957 C 1822.970 1202.212,1811.855 1152.026,1777.160 1125.562 C 1758.296 1111.175,1486.991 936.555,1230.000 773.395 C 978.930 613.994,948.737 595.334,932.499 589.532 C 914.581 583.129,882.332 583.038,864.956 589.339 " fill="#1D1E23" stroke="none" fill-rule="evenodd"/></svg>