<svg viewBox="0 0 2400 2400" fill="none" xmlns="http://www.w3.org/2000/svg"><path d="M1062.000 210.040 C 838.845 245.765,647.360 340.791,498.022 489.920 C 335.373 652.340,239.530 845.602,207.371 1076.000 C 199.343 1133.512,200.542 1278.601,209.535 1338.000 C 259.968 1671.099,465.368 1953.685,762.000 2098.072 C 996.553 2212.242,1262.178 2230.922,1508.000 2150.533 C 1764.708 2066.585,1981.131 1878.587,2098.027 1638.000 C 2234.203 1357.731,2233.307 1038.111,2095.564 760.000 C 2043.904 655.694,1982.750 570.004,1904.273 491.959 C 1757.151 345.647,1581.994 255.288,1368.000 215.310 C 1310.952 204.652,1116.566 201.304,1062.000 210.040 M1095.181 822.520 C 1167.734 873.822,1541.279 1157.851,1557.404 1173.975 C 1567.794 1184.366,1566.322 1217.515,1555.000 1228.112 C 1537.998 1244.027,1425.739 1330.195,1249.302 1462.761 C 1122.933 1557.709,1068.580 1596.279,1058.476 1598.175 C 1040.008 1601.639,1016.093 1590.185,1008.000 1574.000 C 1002.799 1563.599,1002.000 1513.778,1002.000 1200.000 C 1002.000 799.230,1000.566 820.907,1028.005 806.809 C 1047.834 796.620,1063.849 800.365,1095.181 822.520 " fill="#1D1E23" stroke="none" fill-rule="evenodd"/></svg>