<svg viewBox="0 0 2400 2400" fill="none" xmlns="http://www.w3.org/2000/svg"><path d="M1092.000 208.195 C 959.583 217.612,774.985 284.088,650.000 367.365 C 586.905 409.405,555.098 435.257,502.648 487.127 C 363.854 624.385,276.854 775.163,230.161 959.365 C 205.012 1058.578,196.820 1154.108,203.644 1268.604 C 217.530 1501.574,324.411 1736.163,494.112 1906.139 C 648.455 2060.734,836.826 2154.470,1066.000 2190.721 C 1127.908 2200.514,1272.321 2200.465,1336.000 2190.631 C 1552.475 2157.198,1739.395 2065.492,1891.594 1918.045 C 1952.477 1859.063,1990.768 1813.407,2034.144 1748.075 C 2183.778 1522.703,2235.142 1240.028,2173.711 980.000 C 2081.156 588.228,1778.378 295.484,1387.331 219.679 C 1363.443 215.049,1313.780 210.156,1268.185 207.941 C 1181.755 203.743,1154.037 203.783,1092.000 208.195 M1334.000 413.196 C 1556.501 455.615,1742.195 575.670,1862.388 754.808 C 1895.177 803.677,1939.639 893.551,1956.974 946.000 C 2010.125 1106.816,2009.634 1291.421,1955.621 1454.000 C 1887.993 1657.562,1740.916 1824.258,1546.000 1918.262 C 1461.934 1958.806,1367.838 1986.140,1279.158 1995.778 C 1050.475 2020.633,804.518 1932.489,637.987 1766.002 C 434.541 1562.609,354.846 1265.491,429.870 990.104 C 479.378 808.375,600.474 641.992,762.786 532.684 C 850.943 473.316,972.202 426.959,1082.947 410.288 C 1134.142 402.581,1287.650 404.359,1334.000 413.196 M1032.647 805.189 C 1009.314 812.477,1006.916 820.563,1002.918 905.423 C 1000.934 947.540,1000.079 1112.500,1001.019 1272.000 C 1002.938 1597.740,1001.355 1581.272,1031.927 1593.504 C 1040.856 1597.077,1050.490 1600.000,1053.337 1600.000 C 1064.478 1600.000,1132.944 1550.448,1386.000 1359.236 C 1469.600 1296.067,1543.772 1238.879,1550.826 1232.151 C 1566.746 1216.969,1571.600 1196.090,1562.456 1182.134 C 1558.913 1176.728,1545.195 1163.300,1531.971 1152.294 C 1498.831 1124.715,1097.312 823.583,1080.000 813.324 C 1061.423 802.316,1048.795 800.146,1032.647 805.189 " fill="#1D1E23" stroke="none" fill-rule="evenodd"/></svg>