<svg viewBox="0 0 2400 2400" fill="none" xmlns="http://www.w3.org/2000/svg"><path d="M947.996 354.004 L 702.016 600.008 951.008 849.000 L 1200.000 1097.992 1200.000 898.996 L 1200.000 700.000 1215.000 700.022 C 1248.559 700.070,1342.276 716.896,1382.648 730.121 C 1568.661 791.054,1714.699 938.239,1771.879 1122.408 C 1820.723 1279.726,1800.031 1461.271,1717.430 1600.134 C 1626.752 1752.573,1486.823 1852.184,1310.000 1890.169 C 1265.086 1899.818,1135.289 1899.865,1090.000 1890.250 C 966.051 1863.934,865.200 1809.652,777.808 1722.216 C 671.913 1616.268,619.427 1503.180,603.573 1346.804 L 598.828 1300.000 498.803 1300.000 L 398.779 1300.000 401.160 1347.366 C 409.132 1505.919,480.841 1686.344,585.312 1810.709 C 870.774 2150.529,1373.323 2196.481,1712.291 1913.757 C 1899.478 1757.630,2007.823 1516.398,1998.729 1276.000 C 1992.302 1106.090,1938.961 953.413,1840.279 822.468 C 1698.472 634.299,1497.467 524.743,1255.000 503.465 L 1200.000 498.639 1200.000 303.319 C 1200.000 195.894,1198.645 108.000,1196.988 108.000 C 1195.331 108.000,1083.285 218.702,947.996 354.004 " fill="#1D1E23" stroke="none" fill-rule="evenodd"/></svg>