<svg viewBox="0 0 2400 2400" fill="none" xmlns="http://www.w3.org/2000/svg"><path d="M1107.601 196.991 C 1059.137 239.259,734.327 570.019,725.879 585.705 L 718.097 600.156 728.048 618.950 C 740.202 641.903,1106.506 1010.463,1128.360 1021.728 C 1146.896 1031.283,1165.287 1028.031,1185.105 1011.695 L 1200.000 999.418 1200.000 849.709 C 1200.000 701.702,1200.093 700.000,1208.158 700.000 C 1228.748 700.000,1297.419 709.303,1330.000 716.505 C 1537.762 762.437,1701.814 913.567,1770.060 1121.904 C 1789.351 1180.795,1791.936 1202.113,1791.970 1302.648 C 1792.003 1400.173,1788.542 1427.323,1768.423 1487.376 C 1721.291 1628.054,1611.021 1761.182,1488.818 1824.940 C 1378.255 1882.626,1271.336 1904.787,1146.676 1895.858 C 1000.311 1885.373,855.735 1811.468,751.797 1694.000 C 684.123 1617.516,646.948 1545.242,616.008 1430.000 C 597.380 1360.617,589.703 1342.324,573.094 1327.741 C 553.220 1310.292,534.410 1303.200,508.000 1303.200 C 456.028 1303.200,414.597 1341.235,409.157 1393.942 C 404.706 1437.070,441.071 1565.121,481.753 1649.570 C 572.163 1837.244,747.799 1991.738,945.887 2057.834 C 1096.090 2107.952,1252.698 2112.775,1406.326 2072.013 C 1728.179 1986.617,1959.310 1716.498,1995.753 1383.158 C 2033.103 1041.529,1833.498 702.558,1514.829 566.446 C 1437.429 533.387,1351.307 512.724,1253.047 503.638 L 1200.095 498.741 1199.047 348.810 L 1198.000 198.879 1183.472 187.122 C 1175.136 180.376,1162.194 174.460,1153.106 173.241 C 1138.175 171.238,1135.570 172.598,1107.601 196.991 " fill="#1D1E23" stroke="none" fill-rule="evenodd"/></svg>