<svg viewBox="0 0 2400 2400" fill="none" xmlns="http://www.w3.org/2000/svg"><path d="M949.711 353.000 C 850.570 452.550,758.327 546.216,744.727 561.146 C 714.232 594.625,713.313 602.648,736.542 632.641 C 745.640 644.388,836.133 737.092,937.637 838.649 C 1098.412 999.507,1124.107 1023.658,1137.069 1026.089 C 1157.097 1029.846,1169.156 1026.252,1185.927 1011.528 L 1200.000 999.171 1200.000 849.036 L 1200.000 698.900 1234.836 701.726 C 1397.249 714.905,1531.721 778.639,1637.622 892.632 C 1709.589 970.097,1761.114 1068.829,1786.545 1178.000 C 1796.041 1218.763,1797.283 1369.316,1788.491 1414.000 C 1758.140 1568.265,1662.983 1712.147,1534.000 1798.803 C 1476.725 1837.282,1390.290 1872.636,1314.591 1888.546 C 1260.501 1899.915,1148.038 1900.853,1094.145 1890.386 C 941.201 1860.680,812.336 1778.923,715.248 1650.000 C 668.606 1588.063,637.412 1518.312,614.397 1424.492 C 596.782 1352.682,588.872 1335.981,564.980 1320.156 C 529.544 1296.684,495.842 1295.043,458.983 1314.996 C 427.158 1332.223,407.934 1365.637,408.063 1403.503 C 408.202 1444.682,437.354 1549.820,468.625 1621.927 C 542.940 1793.287,684.689 1939.136,858.000 2022.565 C 1187.210 2181.041,1593.865 2089.081,1822.498 1804.454 C 2068.339 1498.404,2057.553 1062.501,1796.901 770.000 C 1655.479 611.298,1474.968 522.173,1257.000 503.431 L 1200.000 498.530 1200.000 350.013 L 1200.000 201.497 1189.000 191.237 C 1173.393 176.681,1162.747 172.000,1145.246 172.000 C 1130.421 172.000,1124.607 177.382,949.711 353.000 " fill="#1D1E23" stroke="none" fill-rule="evenodd"/></svg>