<svg viewBox="0 0 2400 2400" fill="none" xmlns="http://www.w3.org/2000/svg"><path d="M950.008 351.991 L 702.016 600.008 951.008 849.000 L 1200.000 1097.992 1200.000 898.996 L 1200.000 700.000 1212.158 700.000 C 1237.483 700.000,1303.374 708.768,1338.000 716.746 C 1430.555 738.072,1526.000 787.497,1595.496 850.089 C 1691.009 936.114,1753.168 1038.563,1782.194 1157.804 C 1816.327 1298.021,1798.246 1448.776,1732.198 1574.661 C 1646.036 1738.882,1501.874 1848.020,1317.362 1888.713 C 1260.314 1901.295,1139.686 1901.295,1082.638 1888.713 C 975.040 1864.983,879.190 1817.177,804.708 1750.095 C 684.516 1641.843,618.250 1510.585,603.321 1351.196 L 598.526 1300.000 499.263 1300.000 L 400.000 1300.000 400.000 1322.158 C 400.000 1418.147,431.817 1547.478,479.953 1647.148 C 519.665 1729.376,561.122 1788.551,625.880 1855.440 C 695.139 1926.979,764.813 1977.528,852.582 2019.917 C 1131.568 2154.653,1462.550 2116.248,1704.000 1921.125 C 1739.421 1892.500,1806.658 1823.927,1832.570 1790.000 C 1940.498 1648.691,1999.934 1474.675,1999.934 1300.000 C 1999.934 1095.885,1920.381 897.015,1780.075 750.390 C 1639.432 603.414,1462.653 519.555,1259.037 503.225 L 1200.074 498.496 1199.037 301.235 L 1198.000 103.974 950.008 351.991 " fill="#1D1E23" stroke="none" fill-rule="evenodd"/></svg>