<svg viewBox="0 0 2400 2400" fill="none" xmlns="http://www.w3.org/2000/svg"><path d="M1102.896 201.670 C 1056.203 246.589,946.905 354.592,860.012 441.677 L 702.023 600.015 951.012 849.003 L 1200.000 1097.992 1200.000 898.530 L 1200.000 699.068 1227.000 701.741 C 1385.048 717.387,1510.242 772.624,1613.860 872.426 C 1694.462 950.060,1746.461 1038.494,1778.283 1152.061 C 1787.941 1186.531,1789.093 1198.229,1790.877 1280.000 C 1793.090 1381.442,1789.248 1414.978,1767.947 1480.163 C 1737.128 1574.473,1690.211 1650.365,1618.282 1722.258 C 1532.749 1807.749,1434.686 1861.352,1314.000 1888.584 C 1282.041 1895.796,1124.517 1895.993,1086.916 1888.868 C 991.970 1870.879,885.931 1816.581,808.446 1746.277 C 680.719 1630.387,626.116 1521.730,603.779 1339.000 L 599.012 1300.000 498.895 1300.000 L 398.779 1300.000 401.306 1347.000 C 405.831 1431.135,432.625 1536.468,471.852 1624.336 C 532.933 1761.158,632.787 1880.084,756.000 1962.756 C 901.343 2060.278,1095.870 2111.825,1260.000 2096.310 C 1551.696 2068.737,1789.525 1907.123,1913.634 1652.140 C 2011.588 1450.894,2024.604 1253.113,1953.834 1041.286 C 1904.180 892.665,1804.108 755.859,1676.000 661.464 C 1553.580 571.260,1434.827 527.078,1257.000 505.574 L 1200.000 498.681 1200.000 321.840 C 1200.000 149.120,1198.759 120.000,1191.396 120.000 C 1189.414 120.000,1149.589 156.752,1102.896 201.670 " fill="#1D1E23" stroke="none" fill-rule="evenodd"/></svg>