<svg viewBox="0 0 2400 2400" fill="none" xmlns="http://www.w3.org/2000/svg"><path d="M947.660 354.991 L 702.000 599.624 951.000 848.808 L 1200.000 1097.992 1200.000 898.422 L 1200.000 698.851 1227.221 701.381 C 1370.484 714.696,1484.013 760.337,1586.151 845.679 C 1688.831 931.472,1760.182 1052.918,1786.638 1186.920 C 1795.126 1229.917,1796.171 1353.932,1788.445 1401.391 C 1785.634 1418.656,1777.009 1452.856,1769.279 1477.391 C 1709.852 1666.000,1567.191 1809.068,1376.000 1871.792 C 1319.876 1890.204,1279.587 1896.010,1208.476 1895.931 C 1122.067 1895.835,1080.951 1890.782,1029.536 1873.940 C 927.208 1840.420,856.525 1796.665,777.786 1718.099 C 668.324 1608.879,621.052 1503.228,601.901 1325.000 L 599.215 1300.000 499.607 1300.000 L 400.000 1300.000 400.000 1325.105 C 400.000 1375.724,414.032 1458.679,433.304 1522.000 C 485.568 1693.716,586.890 1839.252,725.582 1941.820 C 867.046 2046.438,1059.862 2106.726,1226.889 2098.566 C 1424.125 2088.930,1600.083 2016.464,1742.310 1886.297 C 1915.252 1728.018,2016.326 1472.318,1996.719 1242.680 C 1986.856 1127.171,1950.360 1004.584,1898.579 913.042 C 1814.488 764.379,1681.538 641.992,1532.000 575.589 C 1447.115 537.895,1379.672 520.050,1273.000 507.059 L 1200.000 498.168 1199.719 312.084 C 1199.564 209.738,1198.061 122.480,1196.378 118.179 C 1193.783 111.544,1156.068 147.453,947.660 354.991 " fill="#1D1E23" stroke="none" fill-rule="evenodd"/></svg>