<svg viewBox="0 0 2400 2400" fill="none" xmlns="http://www.w3.org/2000/svg"><path d="M946.132 355.968 L 702.000 599.937 951.000 848.964 L 1200.000 1097.992 1200.000 898.996 L 1200.000 700.000 1214.026 700.000 C 1234.383 700.000,1304.397 710.959,1345.399 720.562 C 1432.181 740.889,1522.990 788.924,1596.721 853.504 C 1697.508 941.780,1765.780 1064.298,1788.690 1198.000 C 1800.131 1264.768,1797.433 1369.829,1782.682 1432.000 C 1758.426 1534.225,1715.003 1618.423,1645.597 1697.812 C 1577.551 1775.644,1484.543 1836.501,1382.600 1869.895 C 1308.177 1894.274,1286.879 1896.975,1184.918 1894.966 C 1101.329 1893.318,1090.937 1892.305,1056.000 1882.399 C 944.409 1850.761,857.386 1800.405,778.326 1721.724 C 675.514 1619.405,624.478 1511.512,605.476 1356.305 L 598.583 1300.000 499.291 1300.000 L 400.000 1300.000 400.000 1325.795 C 400.000 1364.884,410.716 1438.493,423.745 1488.899 C 504.268 1800.427,743.932 2026.026,1058.000 2085.933 C 1272.456 2126.839,1506.822 2070.874,1683.143 1936.652 C 1870.267 1794.207,1985.969 1573.358,1998.446 1334.813 C 2006.795 1175.191,1957.425 996.052,1868.547 863.479 C 1764.562 708.371,1623.859 600.159,1453.730 544.451 C 1391.693 524.137,1340.599 513.614,1263.000 505.167 L 1200.000 498.310 1200.000 305.155 C 1200.000 156.090,1198.889 112.000,1195.132 112.000 C 1192.455 112.000,1080.405 221.786,946.132 355.968 " fill="#1D1E23" stroke="none" fill-rule="evenodd"/></svg>