<svg viewBox="0 0 2400 2400" fill="none" xmlns="http://www.w3.org/2000/svg"><path d="M1664.969 609.976 C 1645.180 618.577,1625.140 635.221,1615.062 651.427 C 1606.243 665.609,1605.930 669.757,1603.400 806.000 C 1599.717 1004.244,1599.858 1554.673,1603.615 1650.404 C 1607.298 1744.219,1609.662 1751.814,1643.769 1779.402 L 1665.538 1797.010 1702.653 1795.068 C 1745.290 1792.838,1756.397 1786.878,1781.408 1752.807 L 1795.685 1733.357 1798.188 1339.679 C 1800.958 904.003,1797.248 679.770,1786.863 655.248 C 1771.392 618.717,1703.164 593.377,1664.969 609.976 M681.775 699.729 C 657.945 703.552,631.825 720.568,615.962 742.605 L 602.000 762.000 602.000 1200.311 L 602.000 1638.623 613.622 1654.311 C 629.085 1675.183,638.153 1682.665,662.000 1694.226 C 688.631 1707.136,714.211 1707.068,739.964 1694.018 C 780.103 1673.678,1005.875 1517.525,1218.817 1362.825 C 1357.600 1262.000,1368.921 1250.472,1371.349 1207.499 C 1373.358 1171.937,1370.848 1163.175,1352.984 1143.402 C 1326.516 1114.105,1266.617 1070.187,972.283 864.274 C 793.891 739.473,759.139 715.761,742.000 707.145 C 726.608 699.407,702.379 696.424,681.775 699.729 " fill="#1D1E23" stroke="none" fill-rule="evenodd"/></svg>