<svg viewBox="0 0 2400 2400" fill="none" xmlns="http://www.w3.org/2000/svg"><path d="M674.471 604.259 C 654.550 609.180,621.572 633.358,613.505 648.957 C 601.109 672.928,599.640 741.497,600.999 1232.557 C 602.082 1623.946,603.409 1725.205,607.625 1738.000 C 613.484 1755.779,636.931 1779.618,659.354 1790.593 C 679.037 1800.227,720.963 1800.227,740.646 1790.593 C 764.831 1778.755,786.590 1755.882,792.578 1736.000 C 800.589 1709.406,800.612 690.663,792.603 664.098 C 779.844 621.777,722.057 592.505,674.471 604.259 M1662.000 701.410 C 1650.811 706.621,1452.835 844.714,1182.175 1036.099 C 1118.471 1081.145,1059.592 1124.679,1051.333 1132.842 C 1015.998 1167.766,1016.650 1238.037,1052.611 1270.468 C 1063.501 1280.289,1144.447 1338.118,1345.329 1479.591 C 1632.651 1681.939,1658.242 1699.033,1681.713 1704.285 C 1722.541 1713.422,1761.706 1695.105,1786.952 1655.065 L 1800.000 1634.371 1799.824 1222.185 C 1799.728 995.483,1798.130 796.894,1796.274 780.876 C 1790.020 726.901,1760.252 699.776,1704.467 697.218 C 1684.112 696.285,1670.017 697.676,1662.000 701.410 " fill="#1D1E23" stroke="none" fill-rule="evenodd"/></svg>