<svg viewBox="0 0 2400 2400" fill="none" xmlns="http://www.w3.org/2000/svg"><path d="M600.000 1200.000 L 600.000 1800.000 700.000 1800.000 L 800.000 1800.000 800.000 1200.000 L 800.000 600.000 700.000 600.000 L 600.000 600.000 600.000 1200.000 M1704.000 668.775 C 1217.500 1011.185,980.532 1180.072,970.000 1191.898 L 962.000 1200.882 978.000 1214.840 C 1006.313 1239.540,1290.558 1442.524,1627.722 1678.817 C 1742.531 1759.278,1790.685 1790.915,1793.722 1787.879 C 1798.215 1783.387,1802.476 634.891,1798.066 617.000 C 1796.846 612.050,1794.532 608.055,1792.924 608.123 C 1791.316 608.191,1751.300 635.484,1704.000 668.775 " fill="#1D1E23" stroke="none" fill-rule="evenodd"/></svg>