<svg viewBox="0 0 2400 2400" fill="none" xmlns="http://www.w3.org/2000/svg"><path d="M600.000 1200.000 L 600.000 1800.000 700.000 1800.000 L 800.000 1800.000 800.000 1200.000 L 800.000 600.000 700.000 600.000 L 600.000 600.000 600.000 1200.000 M1658.676 700.171 C 1508.547 805.411,1107.767 1089.147,1017.303 1154.237 C 968.643 1189.248,957.502 1198.990,961.127 1203.358 C 969.865 1213.887,1250.378 1413.850,1654.000 1697.272 L 1794.000 1795.579 1796.704 1778.789 C 1800.067 1757.902,1800.913 623.035,1797.572 614.327 C 1796.237 610.847,1793.987 608.025,1792.572 608.057 C 1791.157 608.088,1730.904 649.539,1658.676 700.171 " fill="#1D1E23" stroke="none" fill-rule="evenodd"/></svg>