<svg viewBox="0 0 2400 2400" fill="none" xmlns="http://www.w3.org/2000/svg"><path d="M645.456 619.691 C 632.555 628.322,618.751 640.916,614.781 647.679 C 601.055 671.060,599.042 759.437,600.928 1256.000 C 602.478 1664.055,603.511 1727.845,608.766 1740.000 C 615.694 1756.025,646.785 1786.137,663.031 1792.556 C 677.247 1798.173,722.835 1798.140,737.110 1792.502 C 756.472 1784.855,787.526 1752.483,792.788 1734.461 C 798.399 1715.241,800.161 707.743,794.641 674.689 C 787.999 634.912,744.758 604.112,695.456 604.039 C 671.196 604.003,666.893 605.351,645.456 619.691 M1672.000 698.777 C 1658.543 701.523,1463.139 836.318,1178.365 1039.300 C 1063.527 1121.153,1046.780 1134.869,1036.091 1155.821 C 1019.803 1187.748,1023.390 1234.890,1044.110 1261.232 C 1059.307 1280.552,1618.147 1674.719,1662.053 1697.086 C 1697.556 1715.172,1742.202 1705.863,1771.287 1674.310 C 1803.131 1639.764,1800.631 1682.315,1798.993 1202.756 C 1797.901 883.078,1796.306 770.319,1792.722 759.529 C 1780.119 721.581,1753.142 702.226,1708.000 698.742 C 1693.700 697.639,1677.500 697.654,1672.000 698.777 " fill="#1D1E23" stroke="none" fill-rule="evenodd"/></svg>