<svg viewBox="0 0 2400 2400" fill="none" xmlns="http://www.w3.org/2000/svg"><path d="M660.646 610.762 C 653.301 614.381,639.315 624.690,629.567 633.671 C 615.742 646.407,610.864 654.401,607.397 670.000 C 601.790 695.224,598.245 1435.004,602.872 1614.033 C 606.504 1754.562,604.861 1747.782,642.828 1778.893 L 661.265 1794.000 700.261 1794.000 C 737.879 1794.000,739.801 1793.563,754.629 1781.619 C 763.083 1774.810,775.400 1761.607,782.000 1752.280 L 794.000 1735.321 797.203 1468.660 C 798.965 1321.997,799.378 1083.595,798.122 938.878 C 795.565 644.339,796.698 655.493,766.704 629.819 C 738.669 605.822,688.842 596.869,660.646 610.762 M1595.983 747.120 C 1458.021 840.012,1118.992 1079.938,1070.531 1118.975 C 1051.034 1134.681,1040.691 1146.456,1034.891 1159.551 C 1024.479 1183.060,1023.887 1216.147,1033.431 1241.098 C 1039.967 1258.184,1046.283 1264.328,1093.368 1299.404 C 1199.156 1378.211,1536.234 1615.530,1627.511 1675.465 C 1669.645 1703.132,1691.531 1709.932,1718.786 1703.824 C 1754.006 1695.931,1788.804 1665.439,1794.774 1637.239 C 1796.548 1628.857,1797.909 1431.051,1797.799 1197.669 C 1797.573 721.333,1799.422 750.864,1768.049 722.520 C 1749.328 705.607,1731.040 700.052,1693.983 700.022 L 1665.966 700.000 1595.983 747.120 " fill="#1D1E23" stroke="none" fill-rule="evenodd"/></svg>