<svg viewBox="0 0 2400 2400" fill="none" xmlns="http://www.w3.org/2000/svg"><path d="M1660.646 610.762 C 1653.301 614.381,1639.315 624.690,1629.567 633.671 C 1615.742 646.407,1610.864 654.401,1607.397 670.000 C 1601.790 695.224,1598.245 1435.004,1602.872 1614.033 C 1606.504 1754.562,1604.861 1747.782,1642.828 1778.893 L 1661.265 1794.000 1700.261 1794.000 C 1737.879 1794.000,1739.801 1793.563,1754.629 1781.619 C 1763.083 1774.810,1775.400 1761.607,1782.000 1752.280 L 1794.000 1735.321 1797.203 1468.660 C 1798.965 1321.997,1799.378 1083.595,1798.122 938.878 C 1795.565 644.339,1796.698 655.493,1766.704 629.819 C 1738.669 605.822,1688.842 596.869,1660.646 610.762 M669.916 701.335 C 646.395 709.057,633.775 718.511,617.630 740.504 L 603.249 760.095 601.314 1087.047 C 600.250 1266.871,600.907 1465.649,602.774 1528.775 L 606.169 1643.551 618.208 1660.681 C 639.018 1690.290,678.445 1708.289,714.777 1704.766 C 736.329 1702.675,839.179 1634.227,1094.000 1452.388 C 1372.716 1253.497,1372.706 1253.506,1372.706 1200.232 C 1372.706 1152.411,1368.992 1147.906,1268.000 1073.243 C 1203.306 1025.415,845.314 774.141,779.414 730.305 C 736.924 702.041,730.768 699.173,709.414 697.686 C 696.173 696.764,679.012 698.349,669.916 701.335 " fill="#1D1E23" stroke="none" fill-rule="evenodd"/></svg>