<svg viewBox="0 0 2400 2400" fill="none" xmlns="http://www.w3.org/2000/svg"><path d="M664.969 609.976 C 645.180 618.577,625.140 635.221,615.062 651.427 C 606.243 665.609,605.930 669.757,603.400 806.000 C 599.717 1004.244,599.858 1554.673,603.615 1650.404 C 607.298 1744.219,609.662 1751.814,643.769 1779.402 L 665.538 1797.010 702.653 1795.068 C 745.290 1792.838,756.397 1786.878,781.408 1752.807 L 795.685 1733.357 798.188 1339.679 C 800.958 904.003,797.248 679.770,786.863 655.248 C 771.392 618.717,703.164 593.377,664.969 609.976 M1574.000 762.191 C 1351.712 914.377,1081.892 1107.371,1055.125 1133.326 C 1034.599 1153.228,1028.000 1169.842,1028.000 1201.611 C 1028.000 1245.392,1034.546 1255.122,1094.000 1299.715 C 1238.145 1407.827,1620.201 1674.052,1659.803 1693.978 C 1696.891 1712.640,1734.511 1706.623,1768.759 1676.553 C 1799.527 1649.538,1797.383 1683.991,1797.541 1214.000 C 1797.693 758.652,1797.427 752.364,1777.116 730.974 C 1757.842 710.676,1737.502 702.740,1700.000 700.886 L 1666.000 699.205 1574.000 762.191 " fill="#1D1E23" stroke="none" fill-rule="evenodd"/></svg>