<svg viewBox="0 0 2400 2400" fill="none" xmlns="http://www.w3.org/2000/svg"><path d="M848.000 603.707 L 746.000 606.000 714.898 621.199 C 651.583 652.141,610.032 710.324,603.662 776.963 C 599.544 820.038,599.544 1579.962,603.662 1623.037 C 612.337 1713.779,687.839 1788.377,779.100 1796.373 C 824.596 1800.360,1575.404 1800.360,1620.900 1796.373 C 1688.272 1790.470,1747.069 1749.372,1778.169 1686.447 C 1791.335 1659.806,1793.650 1650.691,1796.814 1613.015 C 1798.801 1589.357,1799.864 1387.300,1799.176 1164.000 L 1797.925 758.000 1788.337 734.000 C 1767.210 681.116,1734.195 645.677,1682.797 620.711 L 1650.000 604.780 1300.000 603.097 C 1107.500 602.171,904.100 602.446,848.000 603.707 " fill="#1D1E23" stroke="none" fill-rule="evenodd"/></svg>