<svg viewBox="0 0 2400 2400" fill="none" xmlns="http://www.w3.org/2000/svg"><path d="M1118.000 206.424 C 956.947 218.282,787.043 277.650,644.362 371.923 C 494.452 470.972,358.807 630.799,288.119 791.674 C 266.998 839.740,242.361 911.165,230.085 959.915 C 182.920 1147.222,193.856 1354.889,260.483 1537.119 C 334.478 1739.503,470.551 1912.980,650.000 2033.707 C 696.182 2064.777,800.010 2116.962,857.739 2138.120 C 908.419 2156.694,1005.333 2181.431,1062.000 2190.256 C 1129.444 2200.759,1285.600 2199.715,1350.000 2188.330 C 1565.633 2150.209,1739.801 2062.760,1894.450 1914.965 C 2167.011 1654.483,2267.301 1255.006,2149.937 897.307 C 2068.516 649.154,1906.900 452.080,1682.000 326.706 C 1573.429 266.182,1435.324 222.100,1324.000 212.437 C 1271.207 207.854,1147.583 204.246,1118.000 206.424 M1551.327 817.077 C 1560.531 823.170,1573.448 835.590,1580.031 844.677 L 1592.000 861.200 1591.826 1189.600 C 1591.730 1370.220,1590.149 1525.773,1588.313 1535.273 C 1584.493 1555.038,1570.294 1571.824,1544.569 1586.989 L 1527.138 1597.265 1210.569 1597.633 C 845.381 1598.056,858.742 1599.123,830.097 1567.263 C 820.094 1556.138,810.580 1542.302,808.955 1536.517 C 807.330 1530.733,806.000 1378.400,806.000 1198.000 L 806.000 870.000 815.141 851.447 C 827.389 826.585,850.583 810.768,879.657 807.450 C 891.945 806.048,1044.333 805.148,1218.296 805.450 L 1534.592 806.000 1551.327 817.077 " fill="#1D1E23" stroke="none" fill-rule="evenodd"/></svg>