<svg viewBox="0 0 2400 2400" fill="none" xmlns="http://www.w3.org/2000/svg"><path d="M912.000 607.844 L 738.000 610.000 717.647 621.283 C 666.679 649.540,631.844 688.105,611.266 739.058 L 602.000 762.000 600.895 1189.494 C 599.666 1665.113,598.412 1640.828,626.831 1691.863 C 647.810 1729.536,680.508 1759.900,722.506 1780.710 L 757.402 1798.000 1199.701 1798.000 L 1642.000 1798.000 1668.000 1785.580 C 1722.609 1759.493,1760.126 1722.902,1782.604 1673.805 C 1792.645 1651.873,1793.317 1646.235,1796.359 1558.373 C 1798.118 1507.568,1799.656 1306.190,1799.778 1110.867 L 1800.000 755.734 1789.522 734.867 C 1762.522 681.096,1730.533 648.370,1675.668 618.389 L 1649.336 604.000 1367.668 604.844 C 1212.751 605.308,1007.700 606.658,912.000 607.844 " fill="#1D1E23" stroke="none" fill-rule="evenodd"/></svg>