<svg viewBox="0 0 2400 2400" fill="none" xmlns="http://www.w3.org/2000/svg"><path d="M753.681 607.679 C 712.939 614.364,651.977 659.972,628.414 701.396 C 621.968 712.728,613.387 732.800,609.347 746.000 C 602.412 768.654,602.000 794.123,602.000 1200.000 L 602.000 1630.000 610.834 1658.000 C 631.078 1722.168,680.399 1770.572,746.000 1790.653 C 768.648 1797.586,794.004 1798.000,1196.000 1798.000 C 1528.069 1798.000,1626.796 1796.871,1643.750 1792.881 C 1681.848 1783.915,1713.876 1765.224,1741.721 1735.707 C 1777.570 1697.705,1790.936 1668.157,1796.160 1615.357 C 1798.740 1589.274,1799.836 1422.574,1799.126 1164.000 L 1798.000 754.000 1783.065 722.721 C 1762.058 678.727,1729.502 645.717,1683.878 622.154 L 1648.729 604.000 1209.365 604.501 C 967.714 604.776,762.657 606.206,753.681 607.679 " fill="#1D1E23" stroke="none" fill-rule="evenodd"/></svg>