<svg viewBox="0 0 2400 2400" fill="none" xmlns="http://www.w3.org/2000/svg"><path d="M1112.000 203.923 C 833.630 231.768,590.463 362.388,419.326 576.000 C 147.365 915.458,126.704 1391.677,368.248 1753.288 C 676.969 2215.470,1294.618 2338.595,1756.000 2029.929 C 2215.492 1722.528,2337.727 1104.086,2029.929 644.000 C 1872.846 409.198,1631.891 256.219,1349.288 211.869 C 1290.914 202.708,1165.973 198.524,1112.000 203.923 M1534.017 806.625 C 1545.651 810.589,1560.290 820.080,1570.465 830.255 C 1600.980 860.769,1600.000 848.502,1600.000 1200.000 C 1600.000 1551.498,1600.980 1539.231,1570.465 1569.745 C 1538.901 1601.310,1554.938 1600.000,1200.000 1600.000 C 845.562 1600.000,861.040 1601.250,829.895 1570.105 C 798.750 1538.960,800.000 1554.438,800.000 1200.000 C 800.000 845.461,798.738 861.052,829.967 829.823 C 860.463 799.326,843.694 800.670,1198.287 800.316 C 1482.725 800.032,1516.533 800.667,1534.017 806.625 " fill="#1D1E23" stroke="none" fill-rule="evenodd"/></svg>