<svg viewBox="0 0 2400 2400" fill="none" xmlns="http://www.w3.org/2000/svg"><path d="M1092.000 208.195 C 959.583 217.612,774.985 284.088,650.000 367.365 C 586.905 409.405,555.098 435.257,502.648 487.127 C 363.854 624.385,276.854 775.163,230.161 959.365 C 205.012 1058.578,196.820 1154.108,203.644 1268.604 C 217.530 1501.574,324.411 1736.163,494.112 1906.139 C 648.455 2060.734,836.826 2154.470,1066.000 2190.721 C 1127.908 2200.514,1272.321 2200.465,1336.000 2190.631 C 1552.475 2157.198,1739.395 2065.492,1891.594 1918.045 C 1952.477 1859.063,1990.768 1813.407,2034.144 1748.075 C 2183.778 1522.703,2235.142 1240.028,2173.711 980.000 C 2081.156 588.228,1778.378 295.484,1387.331 219.679 C 1363.443 215.049,1313.780 210.156,1268.185 207.941 C 1181.755 203.743,1154.037 203.783,1092.000 208.195 M1544.273 812.223 C 1561.977 821.151,1586.760 848.087,1590.898 862.899 C 1592.604 869.005,1594.000 1022.500,1594.000 1204.000 C 1594.000 1576.158,1596.748 1544.578,1561.680 1575.446 C 1551.292 1584.590,1536.675 1593.161,1528.546 1594.875 C 1520.546 1596.562,1370.000 1597.928,1194.000 1597.910 C 830.671 1597.874,859.655 1600.588,826.288 1563.475 C 809.164 1544.430,808.637 1543.027,805.779 1508.963 C 804.166 1489.734,802.656 1344.400,802.423 1186.000 C 801.972 878.954,802.620 867.110,821.387 839.247 C 826.295 831.961,838.340 821.541,848.155 816.091 C 865.181 806.636,870.129 806.063,956.000 803.618 C 1005.500 802.208,1154.900 801.947,1288.000 803.039 C 1510.698 804.866,1531.138 805.598,1544.273 812.223 " fill="#1D1E23" stroke="none" fill-rule="evenodd"/></svg>