<svg viewBox="0 0 2400 2400" fill="none" xmlns="http://www.w3.org/2000/svg"><path d="M427.882 603.770 L 361.763 606.000 340.763 621.428 C 329.213 629.913,316.947 642.301,313.505 648.957 C 301.109 672.928,299.640 741.497,300.999 1232.557 C 302.051 1612.630,303.480 1725.376,307.395 1737.109 C 313.398 1755.100,332.680 1778.078,348.746 1786.386 C 355.103 1789.673,378.686 1794.021,401.152 1796.047 C 454.481 1800.856,1545.519 1800.856,1598.848 1796.047 C 1645.329 1791.855,1658.068 1786.641,1675.449 1764.696 C 1698.198 1735.973,1697.728 1740.451,1699.167 1538.613 L 1700.503 1351.225 1817.252 1466.613 C 1881.463 1530.076,1941.683 1587.217,1951.072 1593.594 C 1985.615 1617.052,2037.392 1609.977,2070.031 1577.338 C 2079.576 1567.793,2089.773 1553.237,2092.693 1544.992 C 2096.940 1532.993,2098.000 1463.320,2098.000 1196.000 L 2098.000 862.000 2086.733 842.831 C 2057.784 793.582,1990.999 777.312,1947.409 808.888 C 1937.920 815.762,1878.485 872.546,1815.330 935.075 L 1700.503 1048.765 1699.252 861.382 C 1697.887 657.082,1698.386 661.624,1674.130 632.856 C 1655.485 610.744,1644.764 607.551,1576.451 603.765 C 1509.479 600.054,537.970 600.058,427.882 603.770 " fill="#1D1E23" stroke="none" fill-rule="evenodd"/></svg>