<svg viewBox="0 0 2400 2400" fill="none" xmlns="http://www.w3.org/2000/svg"><path d="M524.000 603.852 C 341.452 606.272,355.136 603.849,322.975 639.448 C 310.816 652.906,308.225 659.254,305.360 682.613 C 303.512 697.676,302.026 938.600,302.058 1218.000 L 302.115 1726.000 311.329 1744.824 C 324.290 1771.302,342.881 1786.269,370.759 1792.666 C 405.275 1800.587,1594.962 1800.530,1629.532 1792.606 C 1648.582 1788.239,1656.368 1783.812,1670.411 1769.363 C 1679.952 1759.547,1689.847 1744.874,1692.401 1736.757 C 1695.517 1726.852,1697.668 1661.190,1698.943 1537.049 L 1700.842 1352.097 1819.421 1468.434 C 1884.639 1532.419,1946.100 1589.547,1956.000 1595.385 C 1979.615 1609.311,2017.672 1610.086,2042.273 1597.142 C 2060.683 1587.455,2086.213 1560.938,2092.676 1544.791 C 2095.588 1537.518,2097.661 1425.724,2099.037 1201.897 C 2101.057 873.100,2100.996 869.636,2092.892 853.897 C 2073.430 816.102,2040.168 794.762,2000.000 794.299 C 1978.591 794.053,1970.740 795.917,1955.539 804.853 C 1945.385 810.822,1883.914 867.987,1818.935 931.887 L 1700.793 1048.068 1698.952 863.034 C 1697.739 741.021,1695.566 673.143,1692.572 663.739 C 1685.957 642.961,1662.198 617.070,1644.803 611.683 C 1613.780 602.077,987.818 597.703,524.000 603.852 " fill="#1D1E23" stroke="none" fill-rule="evenodd"/></svg>