<svg viewBox="0 0 2400 2400" fill="none" xmlns="http://www.w3.org/2000/svg"><path d="M364.342 606.868 C 354.630 610.299,339.161 620.628,329.967 629.823 C 297.881 661.908,300.000 621.598,300.000 1200.000 C 300.000 1778.270,297.894 1738.104,329.895 1770.105 C 362.127 1802.338,309.722 1800.000,1000.000 1800.000 C 1690.278 1800.000,1637.873 1802.338,1670.105 1770.105 C 1699.832 1740.378,1700.000 1739.043,1700.000 1532.374 L 1700.000 1350.173 1823.000 1472.579 C 1960.466 1609.382,1962.747 1611.038,2008.027 1606.932 C 2048.185 1603.291,2081.022 1578.197,2094.293 1541.008 C 2098.599 1528.942,2099.666 1461.710,2099.737 1198.000 C 2099.823 876.475,2099.663 869.645,2091.676 852.000 C 2069.968 804.043,2019.243 781.639,1966.464 796.697 C 1952.658 800.636,1929.823 821.436,1825.000 925.554 L 1700.000 1049.714 1700.000 867.569 C 1700.000 660.964,1699.831 659.621,1670.105 629.895 C 1637.850 597.639,1690.586 599.961,998.287 600.316 C 450.824 600.596,380.028 601.328,364.342 606.868 " fill="#1D1E23" stroke="none" fill-rule="evenodd"/></svg>