<svg viewBox="0 0 2400 2400" fill="none" xmlns="http://www.w3.org/2000/svg"><path d="M360.971 365.028 L 292.028 434.055 509.937 651.937 L 727.847 869.819 713.112 884.910 L 698.376 900.000 499.188 900.000 L 300.000 900.000 300.000 1200.000 L 300.000 1500.000 498.988 1500.000 L 697.976 1500.000 948.988 1750.988 L 1200.000 2001.976 1200.000 1672.003 L 1200.000 1342.029 1408.000 1550.000 C 1522.400 1664.384,1615.972 1758.878,1615.937 1759.986 C 1615.802 1764.340,1541.186 1810.554,1504.943 1828.730 C 1483.857 1839.306,1451.619 1852.839,1433.302 1858.804 L 1400.000 1869.649 1400.000 1972.824 C 1400.000 2029.571,1400.588 2076.000,1401.306 2076.000 C 1409.583 2076.000,1496.749 2048.453,1528.627 2035.764 C 1600.455 2007.171,1682.922 1960.529,1747.174 1912.155 L 1760.251 1902.310 1861.154 2003.155 C 1916.651 2058.620,1963.864 2104.000,1966.072 2104.000 C 1968.279 2104.000,2001.108 2072.940,2039.024 2034.977 L 2107.962 1965.955 1272.977 1130.977 C 813.736 671.740,436.175 296.000,433.954 296.000 C 431.732 296.000,398.890 327.062,360.971 365.028 M1400.932 426.268 L 1402.000 528.536 1442.000 543.672 C 1762.752 665.043,1948.119 989.155,1887.936 1323.385 C 1883.541 1347.791,1875.295 1382.482,1869.610 1400.478 L 1859.274 1433.196 1934.598 1508.598 C 1976.025 1550.069,2010.839 1583.996,2011.961 1583.990 C 2015.011 1583.975,2041.963 1518.523,2053.958 1482.000 C 2114.878 1296.499,2114.737 1099.688,2053.551 916.394 C 1958.856 632.717,1733.289 417.781,1442.553 334.191 C 1423.056 328.586,1405.476 324.000,1403.485 324.000 C 1401.391 324.000,1400.315 367.125,1400.932 426.268 M1104.968 497.032 L 1011.999 590.063 1106.000 684.000 L 1200.000 777.936 1200.000 590.968 C 1200.000 488.136,1199.536 404.000,1198.968 404.000 C 1198.401 404.000,1156.100 445.864,1104.968 497.032 M1400.000 889.024 L 1400.000 978.048 1523.452 1101.452 C 1664.171 1242.117,1654.739 1237.557,1647.689 1161.513 C 1637.776 1054.593,1595.792 963.799,1520.748 886.997 C 1483.348 848.721,1416.957 800.000,1402.199 800.000 C 1400.989 800.000,1400.000 840.061,1400.000 889.024 " fill="#1D1E23" stroke="none" fill-rule="evenodd"/></svg>