<svg viewBox="0 0 2400 2400" fill="none" xmlns="http://www.w3.org/2000/svg"><path d="M1150.000 652.000 L 902.024 900.000 701.012 900.000 L 500.000 900.000 500.000 1200.000 L 500.000 1500.000 700.988 1500.000 L 901.976 1500.000 1150.988 1748.988 L 1400.000 1997.976 1400.000 1200.988 C 1400.000 762.645,1399.545 404.000,1398.988 404.000 C 1398.431 404.000,1286.387 515.600,1150.000 652.000 M1602.667 806.667 C 1599.276 810.057,1599.205 1542.798,1602.592 1571.000 C 1605.698 1596.863,1610.673 1597.736,1640.520 1577.650 C 1730.617 1517.019,1790.610 1438.513,1826.826 1333.852 L 1842.000 1290.000 1842.000 1200.000 L 1842.000 1110.000 1828.826 1072.253 C 1811.333 1022.132,1786.687 972.367,1765.202 943.785 C 1730.322 897.385,1655.612 828.278,1621.199 810.583 C 1606.659 803.106,1606.302 803.031,1602.667 806.667 " fill="#1D1E23" stroke="none" fill-rule="evenodd"/></svg>