<svg viewBox="0 0 2400 2400" fill="none" xmlns="http://www.w3.org/2000/svg"><path d="M1467.822 358.641 C 1451.959 361.340,1418.806 388.459,1410.405 405.610 C 1400.662 425.496,1399.792 479.237,1408.870 500.338 C 1417.231 519.772,1440.661 537.618,1500.000 569.751 C 1592.060 619.603,1650.000 661.897,1704.777 719.231 C 1790.651 809.115,1858.025 935.955,1881.533 1052.000 C 1897.155 1129.116,1898.993 1242.361,1885.932 1323.112 C 1863.828 1459.782,1788.033 1601.518,1683.283 1702.067 C 1631.827 1751.459,1584.467 1785.240,1509.125 1826.292 C 1445.021 1861.221,1411.135 1888.381,1403.753 1910.747 C 1391.217 1948.732,1410.206 2006.211,1442.964 2029.440 C 1476.495 2053.218,1514.376 2046.414,1606.000 2000.157 C 1747.161 1928.891,1866.198 1821.821,1953.048 1688.000 C 2063.360 1518.029,2115.201 1311.581,2095.823 1119.424 C 2082.874 991.023,2035.848 847.850,1971.356 740.481 C 1884.222 595.416,1753.096 474.301,1600.624 398.050 C 1535.491 365.477,1496.191 353.815,1467.822 358.641 M1069.080 546.614 C 1054.977 549.652,992.890 607.105,839.620 758.947 L 697.240 900.000 613.620 900.245 C 567.629 900.379,493.100 901.892,448.000 903.606 C 355.900 907.107,351.894 908.202,325.182 937.180 C 299.775 964.744,299.376 969.248,300.775 1212.718 C 302.151 1452.244,300.674 1440.256,332.543 1470.648 C 342.144 1479.804,357.200 1489.442,366.000 1492.066 C 376.692 1495.254,435.078 1497.475,542.000 1498.760 L 702.000 1500.684 830.000 1627.582 C 995.312 1791.472,1039.245 1832.876,1061.947 1846.180 C 1078.404 1855.825,1083.397 1856.823,1106.092 1855.001 C 1146.213 1851.780,1173.147 1832.529,1193.902 1792.241 C 1200.619 1779.202,1200.882 1748.188,1198.907 1200.241 C 1197.407 783.712,1195.547 617.840,1192.258 607.124 C 1185.762 585.958,1170.839 569.953,1146.816 558.385 C 1126.351 548.530,1087.496 542.646,1069.080 546.614 M1402.667 806.667 C 1401.200 808.133,1400.000 983.289,1400.000 1195.902 C 1400.000 1512.092,1400.973 1583.801,1405.343 1589.778 C 1410.410 1596.707,1411.810 1596.365,1432.343 1583.197 C 1467.056 1560.936,1513.652 1521.809,1535.019 1496.979 C 1581.097 1443.435,1617.024 1375.831,1634.860 1309.109 C 1644.151 1274.350,1645.328 1262.436,1645.440 1202.000 C 1645.545 1145.750,1644.100 1128.125,1637.079 1100.000 C 1626.741 1058.589,1606.019 1009.362,1580.843 966.407 C 1558.043 927.506,1488.463 855.302,1444.226 824.639 C 1414.983 804.369,1407.989 801.344,1402.667 806.667 " fill="#1D1E23" stroke="none" fill-rule="evenodd"/></svg>