<svg viewBox="0 0 2400 2400" fill="none" xmlns="http://www.w3.org/2000/svg"><path d="M1400.000 427.430 L 1400.000 526.861 1437.000 541.995 C 1561.141 592.773,1657.753 659.191,1726.337 740.904 C 1807.501 837.605,1860.966 947.068,1885.014 1065.773 C 1892.762 1104.020,1893.951 1122.169,1893.802 1200.000 C 1893.646 1282.019,1892.681 1294.470,1882.913 1340.406 C 1863.370 1432.310,1829.087 1513.892,1778.027 1590.000 C 1694.704 1714.197,1591.610 1795.871,1442.540 1855.783 L 1400.000 1872.880 1400.061 1969.440 C 1400.095 2022.548,1401.547 2068.243,1403.288 2070.984 C 1409.410 2080.626,1527.732 2040.514,1599.371 2004.510 C 1748.611 1929.506,1875.176 1814.120,1964.096 1672.000 C 2026.267 1572.632,2073.678 1442.929,2089.939 1327.730 C 2098.478 1267.243,2098.569 1138.484,2090.119 1074.898 C 2065.504 889.674,1979.835 715.392,1844.163 574.530 C 1773.867 501.546,1695.818 445.748,1594.000 395.687 C 1529.219 363.836,1432.600 328.000,1411.507 328.000 L 1400.000 328.000 1400.000 427.430 M948.000 650.000 L 698.024 900.000 499.012 900.000 L 300.000 900.000 300.000 1200.000 L 300.000 1500.000 500.988 1500.000 L 701.976 1500.000 950.988 1748.988 L 1200.000 1997.976 1200.000 1198.988 C 1200.000 759.545,1199.545 400.000,1198.988 400.000 C 1198.431 400.000,1085.487 512.500,948.000 650.000 M1402.390 806.426 C 1399.197 814.746,1399.304 1567.519,1402.500 1583.500 C 1403.875 1590.375,1407.025 1596.008,1409.500 1596.017 C 1411.975 1596.027,1428.554 1586.160,1446.341 1574.091 C 1532.270 1515.788,1590.298 1440.669,1624.572 1343.366 C 1643.813 1288.744,1649.836 1240.909,1646.288 1170.927 C 1643.103 1108.118,1632.262 1067.536,1602.228 1006.000 C 1567.817 935.495,1524.745 884.246,1458.822 835.367 C 1415.776 803.450,1405.545 798.203,1402.390 806.426 " fill="#1D1E23" stroke="none" fill-rule="evenodd"/></svg>