<svg viewBox="0 0 2400 2400" fill="none" xmlns="http://www.w3.org/2000/svg"><path d="M1150.000 652.000 L 902.024 900.000 701.012 900.000 L 500.000 900.000 500.000 1200.000 L 500.000 1500.000 700.988 1500.000 L 901.976 1500.000 1150.988 1748.988 L 1400.000 1997.976 1400.000 1200.988 C 1400.000 762.645,1399.545 404.000,1398.988 404.000 C 1398.431 404.000,1286.387 515.600,1150.000 652.000 M1602.667 806.667 C 1601.200 808.133,1600.000 983.289,1600.000 1195.902 C 1600.000 1512.092,1600.973 1583.801,1605.343 1589.778 C 1610.410 1596.707,1611.810 1596.365,1632.343 1583.197 C 1667.056 1560.936,1713.652 1521.809,1735.019 1496.979 C 1781.097 1443.435,1817.024 1375.831,1834.860 1309.109 C 1844.151 1274.350,1845.328 1262.436,1845.440 1202.000 C 1845.545 1145.750,1844.100 1128.125,1837.079 1100.000 C 1826.741 1058.589,1806.019 1009.362,1780.843 966.407 C 1758.043 927.506,1688.463 855.302,1644.226 824.639 C 1614.983 804.369,1607.989 801.344,1602.667 806.667 " fill="#1D1E23" stroke="none" fill-rule="evenodd"/></svg>