<svg viewBox="0 0 2400 2400" fill="none" xmlns="http://www.w3.org/2000/svg"><path d="M1261.247 549.609 C 1246.320 556.394,1134.490 662.672,996.031 801.658 L 898.061 900.000 802.031 900.308 C 749.214 900.477,673.390 901.881,633.533 903.427 C 561.939 906.203,560.879 906.376,545.533 917.741 C 525.531 932.555,517.251 942.273,507.822 962.000 C 500.577 977.159,500.176 989.665,500.176 1200.000 C 500.176 1449.456,498.882 1437.948,530.473 1469.515 C 558.504 1497.525,555.589 1497.111,738.000 1499.003 L 902.000 1500.704 1034.000 1631.592 C 1259.953 1855.643,1260.401 1856.023,1298.872 1855.978 C 1339.770 1855.930,1368.884 1838.088,1389.315 1800.550 L 1400.374 1780.229 1399.000 1201.115 C 1397.908 741.188,1396.559 618.707,1392.448 606.000 C 1381.483 572.111,1344.718 547.876,1300.408 545.329 C 1282.936 544.325,1269.684 545.773,1261.247 549.609 M1602.390 806.426 C 1599.197 814.746,1599.304 1567.519,1602.500 1583.500 C 1603.875 1590.375,1607.025 1596.008,1609.500 1596.017 C 1611.975 1596.027,1628.554 1586.160,1646.341 1574.091 C 1732.270 1515.788,1790.298 1440.669,1824.572 1343.366 C 1843.813 1288.744,1849.836 1240.909,1846.288 1170.927 C 1843.103 1108.118,1832.262 1067.536,1802.228 1006.000 C 1767.817 935.495,1724.745 884.246,1658.822 835.367 C 1615.776 803.450,1605.545 798.203,1602.390 806.426 " fill="#1D1E23" stroke="none" fill-rule="evenodd"/></svg>