<svg viewBox="0 0 2400 2400" fill="none" xmlns="http://www.w3.org/2000/svg"><path d="M1450.000 367.434 C 1432.355 378.322,1415.624 396.240,1409.440 410.872 C 1401.843 428.848,1402.328 485.267,1410.223 501.905 C 1418.980 520.358,1437.428 533.980,1510.279 575.780 C 1615.287 636.033,1674.697 682.377,1727.595 745.302 C 1801.532 833.253,1858.200 945.393,1880.646 1048.173 C 1888.879 1085.873,1889.791 1100.656,1889.890 1198.000 C 1889.980 1286.446,1888.711 1312.156,1882.882 1340.000 C 1852.897 1483.227,1769.111 1627.789,1661.615 1721.768 C 1621.152 1757.144,1572.912 1790.505,1514.000 1823.855 C 1458.562 1855.237,1423.071 1880.452,1411.538 1896.649 C 1391.427 1924.892,1399.591 1980.776,1428.650 2013.789 C 1464.860 2054.926,1502.968 2051.909,1606.192 1999.736 C 1850.775 1876.113,2027.377 1642.738,2081.680 1371.389 C 2111.083 1224.462,2105.270 1101.873,2061.789 951.927 C 2017.105 797.833,1943.578 675.183,1827.515 561.136 C 1763.078 497.818,1696.307 449.099,1614.948 406.038 C 1532.612 362.460,1478.562 349.810,1450.000 367.434 M1069.836 548.357 C 1052.060 553.382,994.686 605.948,837.155 761.541 L 696.971 900.000 623.486 900.156 C 536.902 900.340,383.558 906.331,364.994 910.254 C 345.814 914.307,317.906 940.776,309.303 963.073 C 302.550 980.573,302.004 998.431,302.059 1200.000 C 302.103 1362.999,303.383 1422.212,307.131 1434.694 C 313.212 1454.946,345.578 1485.771,367.323 1492.020 C 375.824 1494.463,449.322 1497.215,542.000 1498.559 L 702.000 1500.880 820.000 1617.883 C 980.488 1777.015,1045.994 1838.315,1065.807 1847.906 C 1097.675 1863.334,1140.385 1854.673,1167.842 1827.217 C 1200.630 1794.429,1197.876 1831.623,1199.030 1406.000 C 1199.597 1197.000,1198.697 931.500,1197.030 816.000 L 1194.000 606.000 1184.573 590.837 C 1173.088 572.363,1140.783 553.063,1116.019 549.880 C 1106.108 548.606,1094.400 546.968,1090.000 546.241 C 1085.600 545.514,1076.526 546.467,1069.836 548.357 M1402.667 806.667 C 1399.276 810.057,1399.205 1542.798,1402.592 1571.000 C 1405.698 1596.863,1410.673 1597.736,1440.520 1577.650 C 1530.617 1517.019,1590.610 1438.513,1626.826 1333.852 L 1642.000 1290.000 1642.000 1200.000 L 1642.000 1110.000 1628.826 1072.253 C 1611.333 1022.132,1586.687 972.367,1565.202 943.785 C 1530.322 897.385,1455.612 828.278,1421.199 810.583 C 1406.659 803.106,1406.302 803.031,1402.667 806.667 " fill="#1D1E23" stroke="none" fill-rule="evenodd"/></svg>