<svg viewBox="0 0 2400 2400" fill="none" xmlns="http://www.w3.org/2000/svg"><path d="M361.860 364.366 L 291.766 433.739 509.972 651.972 L 728.177 870.204 712.920 885.102 L 697.663 900.000 498.831 900.000 L 300.000 900.000 300.000 1200.000 L 300.000 1500.000 498.988 1500.000 L 697.976 1500.000 948.988 1750.988 L 1200.000 2001.976 1200.000 1672.003 L 1200.000 1342.029 1408.000 1550.000 C 1522.400 1664.384,1615.991 1758.878,1615.981 1759.986 C 1615.942 1764.060,1540.896 1810.252,1505.162 1828.197 C 1484.901 1838.371,1452.951 1851.915,1434.162 1858.295 L 1400.000 1869.893 1400.000 1972.947 C 1400.000 2031.720,1401.554 2076.000,1403.618 2076.000 C 1413.386 2076.000,1526.646 2036.981,1560.687 2021.888 C 1608.671 2000.613,1674.149 1963.243,1723.456 1928.992 L 1760.912 1902.973 1855.456 1996.674 C 1907.455 2048.209,1954.028 2093.699,1958.951 2097.762 L 1967.901 2105.151 2038.072 2035.701 L 2108.243 1966.251 1389.122 1246.874 C 993.605 851.216,616.440 475.183,550.977 411.244 L 431.953 294.993 361.860 364.366 M1401.801 329.076 C 1400.730 331.867,1400.337 377.817,1400.927 431.186 L 1402.000 528.220 1452.000 548.291 C 1620.805 616.051,1750.450 735.305,1827.833 894.000 C 1867.272 974.880,1887.131 1046.417,1896.122 1140.000 C 1903.523 1217.038,1893.336 1317.536,1869.992 1397.779 L 1859.584 1433.558 1935.657 1509.631 L 2011.729 1585.703 2024.355 1557.859 C 2058.237 1483.134,2087.014 1372.064,2095.748 1282.305 C 2113.411 1100.788,2070.415 906.852,1977.510 748.992 C 1859.261 548.072,1673.190 403.091,1447.535 336.054 C 1400.356 322.038,1404.272 322.636,1401.801 329.076 M1104.968 497.032 L 1011.999 590.063 1106.000 684.000 L 1200.000 777.936 1200.000 590.968 C 1200.000 488.136,1199.536 404.000,1198.968 404.000 C 1198.401 404.000,1156.100 445.864,1104.968 497.032 M1400.000 889.210 L 1400.000 978.421 1517.410 1095.210 C 1581.985 1159.445,1637.679 1212.000,1641.174 1212.000 C 1651.999 1212.000,1652.991 1204.773,1647.939 1162.711 C 1632.124 1031.049,1577.091 929.035,1479.385 850.264 C 1448.532 825.390,1410.110 800.127,1403.000 800.038 C 1401.350 800.017,1400.000 840.145,1400.000 889.210 " fill="#1D1E23" stroke="none" fill-rule="evenodd"/></svg>