<svg viewBox="0 0 2400 2400" fill="none" xmlns="http://www.w3.org/2000/svg"><path d="M1448.815 364.513 C 1430.115 373.769,1415.698 390.173,1406.124 413.087 C 1398.238 431.961,1398.238 476.039,1406.124 494.913 C 1418.991 525.709,1429.576 534.385,1489.799 563.498 C 1555.609 595.313,1602.435 624.956,1651.726 666.005 C 1760.323 756.443,1842.838 888.097,1877.379 1026.036 C 1893.513 1090.466,1897.613 1125.722,1897.613 1200.000 C 1897.613 1238.500,1895.312 1284.400,1892.500 1302.000 C 1861.818 1494.001,1761.133 1658.138,1604.783 1771.038 C 1585.652 1784.852,1538.877 1811.667,1500.838 1830.627 C 1410.999 1875.406,1400.000 1888.282,1400.000 1948.679 C 1400.000 1990.894,1422.932 2026.662,1458.727 2040.279 C 1482.063 2049.156,1509.560 2045.476,1550.845 2027.949 C 1882.789 1887.023,2100.000 1559.539,2100.000 1200.000 C 2100.000 841.860,1883.769 514.399,1554.821 374.379 C 1503.966 352.733,1477.576 350.276,1448.815 364.513 M1072.285 544.441 C 1064.742 546.728,1051.242 553.732,1042.285 560.006 C 1033.328 566.280,952.208 645.345,862.018 735.707 L 698.037 900.000 541.731 900.000 C 363.874 900.000,359.118 900.671,329.895 929.895 C 299.684 960.105,300.000 957.251,300.000 1200.000 C 300.000 1442.749,299.684 1439.895,329.895 1470.105 C 359.160 1499.371,363.660 1500.000,543.652 1500.000 L 701.879 1500.000 875.940 1673.702 C 1046.783 1844.194,1050.427 1847.526,1073.094 1854.013 C 1097.997 1861.140,1124.038 1858.391,1147.742 1846.133 C 1164.431 1837.503,1189.900 1806.781,1195.296 1788.773 C 1198.807 1777.055,1200.000 1627.438,1200.000 1199.039 C 1200.000 575.334,1201.175 608.740,1178.172 578.581 C 1157.032 550.865,1105.692 534.312,1072.285 544.441 M1400.000 1200.000 C 1400.000 1420.000,1401.350 1599.995,1403.000 1599.990 C 1404.650 1599.984,1416.655 1593.555,1429.677 1585.703 C 1680.403 1434.518,1724.579 1095.604,1520.748 886.997 C 1483.348 848.721,1416.957 800.000,1402.199 800.000 C 1400.989 800.000,1400.000 980.000,1400.000 1200.000 " fill="#1D1E23" stroke="none" fill-rule="evenodd"/></svg>