<svg viewBox="0 0 2400 2400" fill="none" xmlns="http://www.w3.org/2000/svg"><path d="M1469.080 546.614 C 1454.977 549.652,1392.890 607.105,1239.620 758.947 L 1097.240 900.000 1013.620 900.245 C 967.629 900.379,893.100 901.892,848.000 903.606 C 755.900 907.107,751.894 908.202,725.182 937.180 C 699.775 964.744,699.376 969.248,700.775 1212.718 C 702.151 1452.244,700.674 1440.256,732.543 1470.648 C 742.144 1479.804,757.200 1489.442,766.000 1492.066 C 776.692 1495.254,835.078 1497.475,942.000 1498.760 L 1102.000 1500.684 1230.000 1627.582 C 1395.312 1791.472,1439.245 1832.876,1461.947 1846.180 C 1478.404 1855.825,1483.397 1856.823,1506.092 1855.001 C 1546.213 1851.780,1573.147 1832.529,1593.902 1792.241 C 1600.619 1779.202,1600.882 1748.188,1598.907 1200.241 C 1597.407 783.712,1595.547 617.840,1592.258 607.124 C 1585.762 585.958,1570.839 569.953,1546.816 558.385 C 1526.351 548.530,1487.496 542.646,1469.080 546.614 " fill="#1D1E23" stroke="none" fill-rule="evenodd"/></svg>