<svg viewBox="0 0 2400 2400" fill="none" xmlns="http://www.w3.org/2000/svg"><path d="M1469.836 548.357 C 1452.060 553.382,1394.686 605.948,1237.155 761.541 L 1096.971 900.000 1023.486 900.156 C 936.902 900.340,783.558 906.331,764.994 910.254 C 745.814 914.307,717.906 940.776,709.303 963.073 C 702.550 980.573,702.004 998.431,702.059 1200.000 C 702.103 1362.999,703.383 1422.212,707.131 1434.694 C 713.212 1454.946,745.578 1485.771,767.323 1492.020 C 775.824 1494.463,849.322 1497.215,942.000 1498.559 L 1102.000 1500.880 1220.000 1617.883 C 1380.488 1777.015,1445.994 1838.315,1465.807 1847.906 C 1497.675 1863.334,1540.385 1854.673,1567.842 1827.217 C 1600.630 1794.429,1597.876 1831.623,1599.030 1406.000 C 1599.597 1197.000,1598.697 931.500,1597.030 816.000 L 1594.000 606.000 1584.573 590.837 C 1573.088 572.363,1540.783 553.063,1516.019 549.880 C 1506.108 548.606,1494.400 546.968,1490.000 546.241 C 1485.600 545.514,1476.526 546.467,1469.836 548.357 " fill="#1D1E23" stroke="none" fill-rule="evenodd"/></svg>