<svg viewBox="0 0 2400 2400" fill="none" xmlns="http://www.w3.org/2000/svg"><path d="M1150.000 652.000 L 902.024 900.000 701.012 900.000 L 500.000 900.000 500.000 1200.000 L 500.000 1500.000 700.988 1500.000 L 901.976 1500.000 1150.988 1748.988 L 1400.000 1997.976 1400.000 1200.988 C 1400.000 762.645,1399.545 404.000,1398.988 404.000 C 1398.431 404.000,1286.387 515.600,1150.000 652.000 M1600.000 1200.000 C 1600.000 1420.000,1601.350 1599.995,1603.000 1599.990 C 1604.650 1599.984,1616.655 1593.555,1629.677 1585.703 C 1880.403 1434.518,1924.579 1095.604,1720.748 886.997 C 1683.348 848.721,1616.957 800.000,1602.199 800.000 C 1600.989 800.000,1600.000 980.000,1600.000 1200.000 " fill="#1D1E23" stroke="none" fill-rule="evenodd"/></svg>