<svg viewBox="0 0 2400 2400" fill="none" xmlns="http://www.w3.org/2000/svg"><path d="M1400.932 426.268 L 1402.000 528.536 1442.000 543.672 C 1618.299 610.383,1751.355 732.497,1832.434 902.000 C 1932.978 1112.195,1919.102 1365.769,1796.101 1566.000 C 1713.772 1700.021,1592.664 1799.318,1442.000 1856.328 L 1402.000 1871.464 1400.932 1973.732 C 1400.345 2029.979,1401.282 2076.000,1403.013 2076.000 C 1411.263 2076.000,1470.716 2058.062,1512.000 2043.116 C 1763.543 1952.054,1969.810 1739.079,2053.508 1484.000 C 2214.493 993.375,1940.269 477.289,1442.553 334.191 C 1423.056 328.586,1405.476 324.000,1403.485 324.000 C 1401.391 324.000,1400.315 367.125,1400.932 426.268 M948.000 650.000 L 698.024 900.000 499.012 900.000 L 300.000 900.000 300.000 1200.000 L 300.000 1500.000 500.988 1500.000 L 701.976 1500.000 950.988 1748.988 L 1200.000 1997.976 1200.000 1198.988 C 1200.000 759.545,1199.545 400.000,1198.988 400.000 C 1198.431 400.000,1085.487 512.500,948.000 650.000 M1400.000 1200.000 C 1400.000 1420.000,1401.350 1599.995,1403.000 1599.990 C 1404.650 1599.984,1416.655 1593.555,1429.677 1585.703 C 1680.403 1434.518,1724.579 1095.604,1520.748 886.997 C 1483.348 848.721,1416.957 800.000,1402.199 800.000 C 1400.989 800.000,1400.000 980.000,1400.000 1200.000 " fill="#1D1E23" stroke="none" fill-rule="evenodd"/></svg>