<svg viewBox="0 0 2400 2400" fill="none" xmlns="http://www.w3.org/2000/svg"><path d="M360.971 365.028 L 292.028 434.055 509.937 651.937 L 727.847 869.819 713.112 884.910 L 698.376 900.000 499.188 900.000 L 300.000 900.000 300.000 1200.000 L 300.000 1500.000 498.988 1500.000 L 697.976 1500.000 948.988 1750.988 L 1200.000 2001.976 1200.000 1672.003 L 1200.000 1342.029 1408.000 1550.000 C 1522.400 1664.384,1616.000 1758.933,1616.000 1760.109 C 1616.000 1764.351,1534.598 1812.933,1495.237 1832.181 C 1473.097 1843.008,1442.611 1855.851,1427.491 1860.721 L 1400.000 1869.575 1400.061 1967.787 C 1400.095 2021.804,1401.672 2068.446,1403.566 2071.436 C 1406.346 2075.823,1417.715 2073.246,1462.505 2058.080 C 1568.135 2022.312,1628.521 1992.673,1716.902 1933.217 L 1760.743 1903.724 1862.492 2003.862 C 1918.454 2058.938,1965.557 2104.000,1967.164 2104.000 C 1968.771 2104.000,2001.170 2072.877,2039.163 2034.838 L 2108.240 1965.677 1272.523 1130.838 C 812.879 671.677,435.256 296.000,433.361 296.000 C 431.465 296.000,398.890 327.062,360.971 365.028 M1402.711 326.623 C 1401.220 328.114,1400.000 373.777,1400.000 428.097 L 1400.000 526.861 1437.000 542.051 C 1495.722 566.160,1547.298 593.157,1594.362 624.420 C 1655.958 665.338,1735.661 745.414,1777.086 808.000 C 1829.796 887.636,1865.258 970.727,1884.637 1060.000 C 1892.660 1096.959,1893.763 1113.283,1893.826 1196.000 C 1893.903 1296.586,1890.731 1322.956,1869.567 1397.691 L 1859.460 1433.382 1934.730 1508.745 C 2001.514 1575.611,2010.563 1583.339,2014.998 1577.292 C 2023.929 1565.113,2052.370 1487.196,2066.029 1437.486 C 2118.735 1245.672,2108.658 1056.309,2035.831 870.042 C 1938.972 622.308,1729.853 427.647,1471.111 344.363 C 1407.095 323.758,1405.888 323.445,1402.711 326.623 M1104.968 497.032 L 1011.999 590.063 1106.000 684.000 L 1200.000 777.936 1200.000 590.968 C 1200.000 488.136,1199.536 404.000,1198.968 404.000 C 1198.401 404.000,1156.100 445.864,1104.968 497.032 M1402.591 802.743 C 1401.166 804.168,1400.000 844.430,1400.000 892.216 L 1400.000 979.098 1518.294 1095.549 C 1583.355 1159.597,1639.121 1212.000,1642.217 1212.000 C 1651.650 1212.000,1652.705 1195.776,1646.147 1151.610 C 1629.861 1041.928,1589.856 958.192,1520.370 888.341 C 1477.506 845.252,1409.504 795.830,1402.591 802.743 " fill="#1D1E23" stroke="none" fill-rule="evenodd"/></svg>