<svg viewBox="0 0 2400 2400" fill="none" xmlns="http://www.w3.org/2000/svg"><path d="M402.992 341.468 C 364.147 355.948,336.038 394.006,336.125 432.000 C 336.155 444.983,339.294 460.869,343.785 470.761 C 351.371 487.469,494.956 638.111,655.595 797.896 L 727.874 869.791 713.125 884.896 L 698.376 900.000 614.188 900.245 C 567.885 900.379,493.100 901.892,448.000 903.606 C 355.900 907.107,351.894 908.202,325.182 937.180 C 299.775 964.744,299.376 969.248,300.775 1212.718 C 302.151 1452.244,300.674 1440.256,332.543 1470.648 C 342.144 1479.804,357.200 1489.442,366.000 1492.066 C 376.692 1495.254,435.078 1497.475,542.000 1498.760 L 702.000 1500.684 830.000 1627.582 C 995.312 1791.472,1039.245 1832.876,1061.947 1846.180 C 1078.271 1855.747,1083.494 1856.815,1105.369 1855.059 C 1135.795 1852.617,1159.239 1841.200,1174.996 1821.151 C 1199.976 1789.367,1198.782 1800.959,1200.990 1568.825 C 1202.104 1451.579,1204.205 1354.462,1205.658 1353.009 C 1208.654 1350.013,1325.363 1465.496,1497.267 1641.553 L 1614.000 1761.106 1602.723 1769.553 C 1596.521 1774.199,1557.909 1797.412,1516.920 1821.138 C 1475.931 1844.863,1436.588 1868.704,1429.493 1874.116 C 1414.682 1885.412,1399.951 1919.997,1400.088 1943.150 C 1400.373 1991.362,1457.971 2044.197,1504.268 2038.714 C 1545.426 2033.839,1632.117 1990.815,1722.318 1930.495 L 1761.244 1904.465 1826.973 1967.986 C 1863.123 2002.924,1902.669 2038.369,1914.853 2046.754 C 1935.166 2060.734,1939.204 2061.985,1963.502 2061.816 C 1995.912 2061.590,2016.258 2052.023,2038.809 2026.404 C 2064.413 1997.316,2070.547 1964.050,2055.890 1933.773 C 2042.564 1906.245,1888.058 1748.295,1254.000 1114.013 C 682.612 542.423,508.041 370.939,475.434 349.216 C 457.279 337.120,424.158 333.578,402.992 341.468 M1443.008 372.022 C 1432.562 379.019,1420.481 389.706,1416.163 395.772 C 1400.804 417.341,1395.151 468.652,1405.425 493.241 C 1413.942 513.625,1446.473 539.458,1504.509 571.924 C 1581.934 615.236,1635.091 651.856,1674.000 688.687 C 1762.305 772.275,1826.397 872.997,1863.840 987.022 C 1888.225 1061.283,1892.000 1088.433,1892.000 1189.547 C 1892.000 1292.820,1888.254 1329.776,1871.702 1389.799 L 1859.624 1433.598 1935.677 1509.651 L 2011.729 1585.703 2024.376 1557.852 C 2053.441 1493.843,2080.241 1393.930,2092.470 1304.000 C 2100.194 1247.197,2099.281 1131.419,2090.676 1076.385 C 2058.955 873.518,1975.908 708.553,1833.851 566.225 C 1757.854 490.083,1690.936 442.624,1590.084 393.344 C 1529.878 363.925,1525.499 362.439,1494.494 360.906 C 1463.389 359.368,1461.188 359.843,1443.008 372.022 M1069.585 549.478 C 1054.218 554.470,1018.840 576.169,1014.428 583.307 C 1013.339 585.070,1054.828 628.696,1106.626 680.256 L 1200.804 774.000 1198.688 698.000 C 1196.415 616.388,1193.290 598.901,1177.663 580.329 C 1155.626 554.140,1102.188 538.886,1069.585 549.478 M1400.000 889.035 L 1400.000 974.070 1485.000 1058.309 C 1597.277 1169.582,1639.717 1208.647,1644.865 1205.465 C 1647.640 1203.751,1648.289 1190.249,1646.743 1166.422 C 1643.945 1123.284,1624.989 1050.118,1606.223 1010.019 C 1577.264 948.140,1509.345 870.435,1444.282 824.743 C 1397.888 792.161,1400.000 789.095,1400.000 889.035 " fill="#1D1E23" stroke="none" fill-rule="evenodd"/></svg>