<svg viewBox="0 0 2400 2400" fill="none" xmlns="http://www.w3.org/2000/svg"><path d="M1461.841 360.257 C 1446.197 364.806,1417.695 389.210,1409.114 405.401 C 1399.847 422.888,1399.783 484.994,1409.014 502.406 C 1417.771 518.923,1439.610 537.650,1465.148 550.540 C 1476.616 556.328,1508.500 573.638,1536.000 589.005 C 1668.226 662.896,1765.751 766.401,1829.885 900.909 C 1872.665 990.631,1890.874 1064.431,1894.597 1163.190 C 1899.694 1298.381,1882.534 1386.899,1829.328 1499.876 C 1761.683 1643.515,1657.638 1749.169,1506.000 1828.203 C 1419.179 1873.454,1400.272 1893.463,1400.088 1940.287 C 1399.864 1996.972,1437.975 2044.000,1484.135 2044.000 C 1532.470 2044.000,1658.099 1981.050,1747.212 1912.179 C 1995.539 1720.260,2129.637 1407.309,2094.019 1102.822 C 2078.619 971.174,2032.598 838.147,1964.473 728.359 C 1872.045 579.407,1727.571 452.626,1571.129 383.185 C 1513.716 357.702,1488.687 352.451,1461.841 360.257 M1061.247 549.609 C 1046.320 556.394,934.490 662.672,796.031 801.658 L 698.061 900.000 602.031 900.308 C 549.214 900.477,473.390 901.881,433.533 903.427 C 361.939 906.203,360.879 906.376,345.533 917.741 C 325.531 932.555,317.251 942.273,307.822 962.000 C 300.577 977.159,300.176 989.665,300.176 1200.000 C 300.176 1449.456,298.882 1437.948,330.473 1469.515 C 358.504 1497.525,355.589 1497.111,538.000 1499.003 L 702.000 1500.704 834.000 1631.592 C 1059.953 1855.643,1060.401 1856.023,1098.872 1855.978 C 1139.770 1855.930,1168.884 1838.088,1189.315 1800.550 L 1200.374 1780.229 1199.000 1201.115 C 1197.908 741.188,1196.559 618.707,1192.448 606.000 C 1181.483 572.111,1144.718 547.876,1100.408 545.329 C 1082.936 544.325,1069.684 545.773,1061.247 549.609 M1402.390 806.426 C 1399.197 814.746,1399.304 1567.519,1402.500 1583.500 C 1403.875 1590.375,1407.025 1596.008,1409.500 1596.017 C 1411.975 1596.027,1428.554 1586.160,1446.341 1574.091 C 1532.270 1515.788,1590.298 1440.669,1624.572 1343.366 C 1643.813 1288.744,1649.836 1240.909,1646.288 1170.927 C 1643.103 1108.118,1632.262 1067.536,1602.228 1006.000 C 1567.817 935.495,1524.745 884.246,1458.822 835.367 C 1415.776 803.450,1405.545 798.203,1402.390 806.426 " fill="#1D1E23" stroke="none" fill-rule="evenodd"/></svg>