<svg viewBox="0 0 2400 2400" fill="none" xmlns="http://www.w3.org/2000/svg"><path d="M1472.285 544.441 C 1464.742 546.728,1451.242 553.732,1442.285 560.006 C 1433.328 566.280,1352.208 645.345,1262.018 735.707 L 1098.037 900.000 941.731 900.000 C 763.874 900.000,759.118 900.671,729.895 929.895 C 699.684 960.105,700.000 957.251,700.000 1200.000 C 700.000 1442.749,699.684 1439.895,729.895 1470.105 C 759.160 1499.371,763.660 1500.000,943.652 1500.000 L 1101.879 1500.000 1275.940 1673.702 C 1446.783 1844.194,1450.427 1847.526,1473.094 1854.013 C 1497.997 1861.140,1524.038 1858.391,1547.742 1846.133 C 1564.431 1837.503,1589.900 1806.781,1595.296 1788.773 C 1598.807 1777.055,1600.000 1627.438,1600.000 1199.039 C 1600.000 575.334,1601.175 608.740,1578.172 578.581 C 1557.032 550.865,1505.692 534.312,1472.285 544.441 " fill="#1D1E23" stroke="none" fill-rule="evenodd"/></svg>