<svg viewBox="0 0 2400 2400" fill="none" xmlns="http://www.w3.org/2000/svg"><path d="M1480.000 544.129 C 1472.300 545.471,1459.700 549.856,1452.000 553.873 C 1444.300 557.890,1361.500 637.256,1268.000 730.243 L 1098.000 899.311 936.000 900.907 C 820.976 902.040,770.643 903.914,762.424 907.371 C 741.970 915.974,720.881 935.663,711.315 955.087 L 702.000 974.000 702.000 1200.000 L 702.000 1426.000 711.315 1444.913 C 720.837 1464.248,741.761 1483.836,762.424 1492.759 C 770.868 1496.406,818.373 1498.139,937.993 1499.164 L 1101.987 1500.570 1273.993 1671.476 C 1383.567 1780.348,1451.607 1844.998,1461.447 1849.591 C 1480.957 1858.696,1517.131 1858.977,1538.171 1850.188 C 1557.964 1841.920,1573.639 1827.200,1587.357 1804.000 L 1598.000 1786.000 1599.163 1238.000 C 1599.847 916.018,1598.762 671.337,1596.534 644.751 C 1593.282 605.947,1591.241 597.335,1582.205 584.296 C 1563.324 557.051,1514.941 538.036,1480.000 544.129 " fill="#1D1E23" stroke="none" fill-rule="evenodd"/></svg>