<svg viewBox="0 0 2400 2400" fill="none" xmlns="http://www.w3.org/2000/svg"><path d="M360.971 365.028 L 292.028 434.055 509.937 651.937 L 727.847 869.819 713.112 884.910 L 698.376 900.000 499.188 900.000 L 300.000 900.000 300.000 1200.000 L 300.000 1500.000 498.988 1500.000 L 697.976 1500.000 948.988 1750.988 L 1200.000 2001.976 1200.000 1672.005 L 1200.000 1342.034 1378.358 1520.017 C 1583.121 1724.350,1614.594 1758.055,1608.022 1765.974 C 1596.077 1780.366,1462.010 1849.914,1421.741 1862.608 L 1400.000 1869.461 1400.000 1963.966 C 1400.000 2079.124,1399.112 2076.629,1436.446 2066.285 C 1477.621 2054.875,1570.654 2017.069,1615.392 1993.565 C 1638.158 1981.605,1680.138 1956.535,1708.682 1937.854 L 1760.580 1903.890 1863.135 2003.945 C 1919.540 2058.975,1966.679 2104.000,1967.888 2104.000 C 1969.097 2104.000,2001.215 2072.833,2039.262 2034.739 L 2108.437 1965.479 1272.118 1130.739 C 812.143 671.633,434.475 296.000,432.857 296.000 C 431.238 296.000,398.890 327.062,360.971 365.028 M1402.594 326.740 C 1401.167 328.166,1400.000 373.763,1400.000 428.067 L 1400.000 526.800 1427.000 538.077 C 1470.428 556.217,1538.312 590.900,1575.511 613.954 C 1722.850 705.267,1840.166 873.060,1883.181 1054.000 C 1888.702 1077.226,1889.750 1102.801,1889.324 1204.000 L 1888.812 1326.000 1874.016 1379.999 L 1859.220 1433.998 1934.020 1507.446 C 1996.963 1569.253,2009.674 1580.032,2014.211 1575.448 C 2027.922 1561.594,2068.836 1435.480,2084.107 1360.000 C 2094.914 1306.584,2099.526 1217.796,2095.571 1139.294 C 2086.987 968.917,2016.214 784.722,1906.032 646.000 C 1876.156 608.386,1805.201 536.833,1768.490 507.301 C 1684.601 439.815,1588.979 387.407,1476.000 346.995 C 1418.974 326.596,1406.248 323.085,1402.594 326.740 M1104.968 497.032 L 1011.999 590.063 1106.000 684.000 L 1200.000 777.936 1200.000 590.968 C 1200.000 488.136,1199.536 404.000,1198.968 404.000 C 1198.401 404.000,1156.100 445.864,1104.968 497.032 M1402.667 806.667 C 1401.200 808.133,1400.000 847.300,1400.000 893.704 L 1400.000 978.075 1479.000 1056.280 C 1582.491 1158.730,1639.157 1212.000,1644.647 1212.000 C 1652.474 1212.000,1645.993 1141.549,1633.976 1096.000 C 1619.811 1042.307,1598.872 993.548,1573.808 955.893 C 1541.752 907.732,1461.471 831.291,1421.199 810.583 C 1406.659 803.106,1406.302 803.031,1402.667 806.667 " fill="#1D1E23" stroke="none" fill-rule="evenodd"/></svg>