<svg viewBox="0 0 2400 2400" fill="none" xmlns="http://www.w3.org/2000/svg"><path d="M361.808 364.305 L 291.864 433.837 510.020 652.020 L 728.177 870.204 712.920 885.102 L 697.663 900.000 498.831 900.000 L 300.000 900.000 300.000 1200.000 L 300.000 1500.000 498.988 1500.000 L 697.976 1500.000 948.988 1750.988 L 1200.000 2001.976 1200.000 1671.993 L 1200.000 1342.010 1408.898 1550.907 C 1606.825 1748.835,1617.381 1760.113,1609.898 1765.662 C 1574.094 1792.214,1478.259 1842.450,1433.010 1858.383 L 1400.021 1870.000 1400.072 1966.000 C 1400.100 2018.800,1401.761 2064.590,1403.764 2067.756 C 1408.757 2075.646,1431.552 2070.092,1502.396 2043.723 C 1576.691 2016.069,1638.419 1984.598,1705.614 1940.116 L 1761.227 1903.301 1839.614 1980.696 C 1882.726 2023.263,1929.219 2068.783,1942.930 2081.851 L 1967.861 2105.612 2038.003 2035.883 L 2108.145 1966.155 1509.072 1366.825 C 1179.583 1037.193,802.394 661.133,670.876 531.134 L 431.752 294.774 361.808 364.305 M1402.667 326.667 C 1401.200 328.133,1400.000 373.701,1400.000 427.929 L 1400.000 526.525 1445.000 545.793 C 1565.219 597.267,1645.753 653.312,1720.915 737.805 C 1784.252 809.004,1833.650 895.084,1863.715 986.643 C 1890.291 1067.576,1892.981 1089.897,1891.071 1213.688 L 1889.400 1322.000 1874.549 1378.000 L 1859.698 1434.000 1933.261 1507.000 C 1973.721 1547.150,2008.722 1580.000,2011.039 1580.000 C 2019.634 1580.000,2059.971 1467.056,2075.730 1398.864 C 2092.807 1324.973,2097.687 1280.228,2097.641 1198.000 C 2097.590 1107.030,2091.750 1060.249,2070.176 978.000 C 2051.908 908.355,2037.099 868.792,2004.295 802.000 C 1959.101 709.977,1908.005 639.349,1831.965 563.791 C 1733.679 466.128,1610.032 391.301,1469.251 344.287 C 1402.039 321.841,1406.351 322.983,1402.667 326.667 M1104.968 497.032 L 1011.999 590.063 1106.000 684.000 L 1200.000 777.936 1200.000 590.968 C 1200.000 488.136,1199.536 404.000,1198.968 404.000 C 1198.401 404.000,1156.100 445.864,1104.968 497.032 M1400.000 891.603 L 1400.000 979.205 1509.000 1086.134 C 1621.886 1196.876,1642.213 1215.136,1647.109 1210.201 C 1652.284 1204.984,1648.610 1158.674,1639.790 1117.967 C 1618.067 1017.703,1580.320 948.436,1510.719 881.117 C 1470.901 842.605,1419.166 804.000,1407.373 804.000 C 1400.434 804.000,1400.000 809.151,1400.000 891.603 " fill="#1D1E23" stroke="none" fill-rule="evenodd"/></svg>