<svg viewBox="0 0 2400 2400" fill="none" xmlns="http://www.w3.org/2000/svg"><path d="M411.013 340.399 C 376.320 348.434,342.908 383.877,337.778 418.086 C 332.990 450.016,338.635 466.207,365.416 497.349 C 398.821 536.195,545.212 688.013,645.577 787.898 L 727.869 869.796 713.123 884.898 L 698.376 900.000 624.188 900.156 C 537.033 900.340,383.625 906.316,364.994 910.254 C 345.814 914.307,317.906 940.776,309.303 963.073 C 302.550 980.573,302.004 998.431,302.059 1200.000 C 302.103 1362.999,303.383 1422.212,307.131 1434.694 C 313.212 1454.946,345.578 1485.771,367.323 1492.020 C 375.824 1494.463,449.322 1497.215,542.000 1498.559 L 702.000 1500.880 820.000 1617.883 C 1038.091 1834.132,1063.488 1856.000,1096.537 1856.000 C 1122.556 1856.000,1151.467 1844.533,1168.571 1827.429 C 1197.163 1798.837,1197.011 1799.790,1200.369 1628.000 C 1202.025 1543.300,1203.519 1447.450,1203.690 1415.000 C 1203.923 1370.709,1205.247 1355.966,1209.000 1355.864 C 1214.275 1355.722,1612.000 1755.364,1612.000 1760.807 C 1612.000 1764.345,1597.516 1773.483,1494.166 1835.143 C 1428.375 1874.394,1421.551 1879.530,1413.047 1896.180 C 1395.240 1931.051,1396.103 1958.707,1415.936 1988.648 C 1430.537 2010.692,1457.108 2030.187,1481.411 2036.687 C 1497.880 2041.092,1502.972 2040.632,1528.928 2032.392 C 1578.735 2016.580,1651.780 1977.745,1729.160 1925.939 L 1761.390 1904.361 1812.005 1953.399 C 1867.877 2007.531,1914.758 2048.895,1928.839 2056.483 C 1943.783 2064.537,1984.800 2062.263,2005.519 2052.233 C 2036.878 2037.052,2063.824 1998.123,2063.824 1968.000 C 2063.824 1944.027,2050.684 1923.269,2001.629 1869.750 C 1911.410 1771.322,592.622 452.321,517.351 385.233 C 497.194 367.268,475.594 349.991,469.351 346.841 C 453.771 338.979,428.969 336.240,411.013 340.399 M1439.485 375.471 C 1423.229 387.221,1415.062 396.506,1410.104 408.873 C 1401.674 429.903,1398.015 462.164,1401.782 482.247 C 1405.860 503.981,1437.391 532.761,1491.352 564.000 C 1604.979 629.781,1659.445 670.051,1708.841 724.805 C 1793.667 818.834,1850.450 924.982,1880.491 1045.683 C 1886.667 1070.500,1889.051 1097.029,1890.760 1160.000 C 1893.457 1259.351,1888.253 1322.313,1872.035 1386.508 L 1860.038 1434.000 1935.884 1509.852 L 2011.729 1585.703 2023.421 1559.852 C 2049.673 1501.802,2076.397 1405.654,2090.087 1320.000 C 2100.363 1255.704,2099.401 1129.284,2088.130 1062.668 C 2060.699 900.549,1999.228 762.666,1898.805 638.000 C 1861.948 592.245,1772.003 506.445,1728.978 476.000 C 1681.800 442.615,1608.239 400.500,1560.599 379.598 C 1530.892 366.564,1516.904 362.778,1492.599 361.192 L 1462.000 359.196 1439.485 375.471 M1048.000 560.248 C 1012.534 579.760,1012.258 580.456,1031.137 602.736 C 1040.115 613.331,1081.982 656.200,1124.175 698.000 L 1200.889 774.000 1198.648 700.000 C 1195.433 593.853,1189.962 579.667,1144.000 558.304 C 1111.725 543.302,1077.544 543.994,1048.000 560.248 M1404.141 811.737 C 1401.696 816.305,1400.000 851.139,1400.000 896.775 L 1400.000 974.075 1479.000 1052.290 C 1586.488 1158.709,1635.194 1204.000,1642.151 1204.000 C 1655.786 1204.000,1644.544 1120.725,1621.632 1052.000 C 1593.576 967.845,1535.672 893.489,1446.654 827.305 C 1429.413 814.487,1413.726 804.000,1411.794 804.000 C 1409.862 804.000,1406.418 807.482,1404.141 811.737 " fill="#1D1E23" stroke="none" fill-rule="evenodd"/></svg>