<svg viewBox="0 0 2400 2400" fill="none" xmlns="http://www.w3.org/2000/svg"><path d="M1269.836 548.357 C 1252.060 553.382,1194.686 605.948,1037.155 761.541 L 896.971 900.000 823.486 900.156 C 736.902 900.340,583.558 906.331,564.994 910.254 C 545.814 914.307,517.906 940.776,509.303 963.073 C 502.550 980.573,502.004 998.431,502.059 1200.000 C 502.103 1362.999,503.383 1422.212,507.131 1434.694 C 513.212 1454.946,545.578 1485.771,567.323 1492.020 C 575.824 1494.463,649.322 1497.215,742.000 1498.559 L 902.000 1500.880 1020.000 1617.883 C 1180.488 1777.015,1245.994 1838.315,1265.807 1847.906 C 1297.675 1863.334,1340.385 1854.673,1367.842 1827.217 C 1400.630 1794.429,1397.876 1831.623,1399.030 1406.000 C 1399.597 1197.000,1398.697 931.500,1397.030 816.000 L 1394.000 606.000 1384.573 590.837 C 1373.088 572.363,1340.783 553.063,1316.019 549.880 C 1306.108 548.606,1294.400 546.968,1290.000 546.241 C 1285.600 545.514,1276.526 546.467,1269.836 548.357 M1602.667 806.667 C 1599.276 810.057,1599.205 1542.798,1602.592 1571.000 C 1605.698 1596.863,1610.673 1597.736,1640.520 1577.650 C 1730.617 1517.019,1790.610 1438.513,1826.826 1333.852 L 1842.000 1290.000 1842.000 1200.000 L 1842.000 1110.000 1828.826 1072.253 C 1811.333 1022.132,1786.687 972.367,1765.202 943.785 C 1730.322 897.385,1655.612 828.278,1621.199 810.583 C 1606.659 803.106,1606.302 803.031,1602.667 806.667 " fill="#1D1E23" stroke="none" fill-rule="evenodd"/></svg>