<svg viewBox="0 0 2400 2400" fill="none" xmlns="http://www.w3.org/2000/svg"><path d="M1280.000 544.129 C 1272.300 545.471,1259.700 549.856,1252.000 553.873 C 1244.300 557.890,1161.500 637.256,1068.000 730.243 L 898.000 899.311 736.000 900.907 C 620.976 902.040,570.643 903.914,562.424 907.371 C 541.970 915.974,520.881 935.663,511.315 955.087 L 502.000 974.000 502.000 1200.000 L 502.000 1426.000 511.315 1444.913 C 520.837 1464.248,541.761 1483.836,562.424 1492.759 C 570.868 1496.406,618.373 1498.139,737.993 1499.164 L 901.987 1500.570 1073.993 1671.476 C 1183.567 1780.348,1251.607 1844.998,1261.447 1849.591 C 1280.957 1858.696,1317.131 1858.977,1338.171 1850.188 C 1357.964 1841.920,1373.639 1827.200,1387.357 1804.000 L 1398.000 1786.000 1399.163 1238.000 C 1399.847 916.018,1398.762 671.337,1396.534 644.751 C 1393.282 605.947,1391.241 597.335,1382.205 584.296 C 1363.324 557.051,1314.941 538.036,1280.000 544.129 M1600.061 1195.000 C 1600.095 1412.250,1601.537 1592.227,1603.266 1594.950 C 1605.583 1598.598,1612.670 1596.043,1630.205 1585.238 C 1731.867 1522.596,1803.093 1428.033,1834.894 1313.482 C 1844.954 1277.244,1845.861 1268.084,1845.927 1202.000 C 1845.991 1138.882,1844.830 1125.559,1836.514 1094.000 C 1810.425 994.983,1755.397 910.479,1676.159 847.749 C 1645.504 823.480,1609.665 800.105,1603.000 800.033 C 1601.350 800.015,1600.028 977.750,1600.061 1195.000 " fill="#1D1E23" stroke="none" fill-rule="evenodd"/></svg>