<svg viewBox="0 0 2400 2400" fill="none" xmlns="http://www.w3.org/2000/svg"><path d="M1400.000 427.400 L 1400.000 526.800 1427.000 538.079 C 1510.426 572.928,1591.993 619.872,1646.489 664.400 C 1758.316 755.773,1850.958 910.896,1882.751 1060.000 C 1893.227 1109.135,1893.176 1285.628,1882.670 1337.740 C 1866.169 1419.590,1825.851 1514.940,1776.716 1588.316 C 1693.299 1712.886,1589.305 1795.427,1437.000 1857.950 L 1400.000 1873.139 1400.000 1965.805 C 1400.000 2081.441,1398.350 2077.617,1442.615 2064.600 C 1749.400 1974.390,1975.151 1746.214,2066.280 1434.235 C 2089.599 1354.403,2093.289 1323.112,2093.665 1202.000 C 2094.043 1080.287,2089.572 1041.512,2065.764 960.000 C 1994.480 715.947,1835.596 521.208,1615.278 407.856 C 1538.966 368.595,1434.509 328.000,1409.794 328.000 L 1400.000 328.000 1400.000 427.400 M948.000 650.000 L 698.024 900.000 499.012 900.000 L 300.000 900.000 300.000 1200.000 L 300.000 1500.000 500.988 1500.000 L 701.976 1500.000 950.988 1748.988 L 1200.000 1997.976 1200.000 1198.988 C 1200.000 759.545,1199.545 400.000,1198.988 400.000 C 1198.431 400.000,1085.487 512.500,948.000 650.000 M1402.667 806.667 C 1399.276 810.057,1399.205 1542.798,1402.592 1571.000 C 1405.698 1596.863,1410.673 1597.736,1440.520 1577.650 C 1530.617 1517.019,1590.610 1438.513,1626.826 1333.852 L 1642.000 1290.000 1642.000 1200.000 L 1642.000 1110.000 1628.826 1072.253 C 1611.333 1022.132,1586.687 972.367,1565.202 943.785 C 1530.322 897.385,1455.612 828.278,1421.199 810.583 C 1406.659 803.106,1406.302 803.031,1402.667 806.667 " fill="#1D1E23" stroke="none" fill-rule="evenodd"/></svg>