<svg viewBox="0 0 2400 2400" fill="none" xmlns="http://www.w3.org/2000/svg"><path d="M1401.839 328.977 C 1400.747 331.823,1400.337 377.817,1400.927 431.186 L 1402.000 528.220 1452.000 548.311 C 1622.289 616.735,1743.618 727.679,1825.769 890.085 C 1936.450 1108.892,1918.759 1382.096,1780.538 1588.601 C 1698.714 1710.848,1590.463 1797.024,1447.000 1854.125 L 1400.000 1872.832 1400.000 1972.542 C 1400.000 2050.268,1401.138 2072.688,1405.160 2074.231 C 1412.356 2076.993,1504.763 2046.925,1555.663 2025.261 C 1785.566 1927.407,1968.985 1729.145,2050.850 1490.000 C 2084.805 1390.808,2097.670 1311.211,2097.721 1200.000 C 2097.787 1057.550,2072.909 943.930,2013.935 817.328 C 1960.639 702.914,1868.210 584.654,1770.000 505.220 C 1687.965 438.869,1578.403 378.976,1480.000 346.689 C 1410.759 323.971,1404.320 322.511,1401.839 328.977 M948.000 650.000 L 698.024 900.000 499.012 900.000 L 300.000 900.000 300.000 1200.000 L 300.000 1500.000 500.988 1500.000 L 701.976 1500.000 950.988 1748.988 L 1200.000 1997.976 1200.000 1198.988 C 1200.000 759.545,1199.545 400.000,1198.988 400.000 C 1198.431 400.000,1085.487 512.500,948.000 650.000 M1400.061 1195.000 C 1400.095 1412.250,1401.537 1592.227,1403.266 1594.950 C 1405.583 1598.598,1412.670 1596.043,1430.205 1585.238 C 1531.867 1522.596,1603.093 1428.033,1634.894 1313.482 C 1644.954 1277.244,1645.861 1268.084,1645.927 1202.000 C 1645.991 1138.882,1644.830 1125.559,1636.514 1094.000 C 1610.425 994.983,1555.397 910.479,1476.159 847.749 C 1445.504 823.480,1409.665 800.105,1403.000 800.033 C 1401.350 800.015,1400.028 977.750,1400.061 1195.000 " fill="#1D1E23" stroke="none" fill-rule="evenodd"/></svg>