<svg viewBox="0 0 2400 2400" fill="none" xmlns="http://www.w3.org/2000/svg"><path d="M1150.000 652.000 L 902.024 900.000 701.012 900.000 L 500.000 900.000 500.000 1200.000 L 500.000 1500.000 700.988 1500.000 L 901.976 1500.000 1150.988 1748.988 L 1400.000 1997.976 1400.000 1200.988 C 1400.000 762.645,1399.545 404.000,1398.988 404.000 C 1398.431 404.000,1286.387 515.600,1150.000 652.000 M1600.061 1195.000 C 1600.095 1412.250,1601.537 1592.227,1603.266 1594.950 C 1605.583 1598.598,1612.670 1596.043,1630.205 1585.238 C 1731.867 1522.596,1803.093 1428.033,1834.894 1313.482 C 1844.954 1277.244,1845.861 1268.084,1845.927 1202.000 C 1845.991 1138.882,1844.830 1125.559,1836.514 1094.000 C 1810.425 994.983,1755.397 910.479,1676.159 847.749 C 1645.504 823.480,1609.665 800.105,1603.000 800.033 C 1601.350 800.015,1600.028 977.750,1600.061 1195.000 " fill="#1D1E23" stroke="none" fill-rule="evenodd"/></svg>