<svg viewBox="0 0 2400 2400" fill="none" xmlns="http://www.w3.org/2000/svg"><path d="M386.158 347.093 C 338.120 373.498,320.733 428.720,344.941 478.000 C 349.925 488.145,421.477 562.843,540.467 682.123 L 728.134 870.246 712.898 885.123 L 697.663 900.000 541.544 900.000 C 363.895 900.000,359.114 900.675,329.895 929.895 C 299.684 960.105,300.000 957.251,300.000 1200.000 C 300.000 1442.749,299.684 1439.895,329.895 1470.105 C 359.160 1499.371,363.660 1500.000,543.652 1500.000 L 701.879 1500.000 875.940 1673.702 C 1046.783 1844.194,1050.427 1847.526,1073.094 1854.013 C 1097.997 1861.140,1124.038 1858.391,1147.742 1846.133 C 1164.431 1837.503,1189.900 1806.781,1195.296 1788.773 C 1198.649 1777.581,1200.000 1711.169,1200.000 1557.550 L 1200.000 1342.029 1407.769 1549.769 C 1522.043 1664.027,1614.529 1759.144,1613.295 1761.140 C 1607.780 1770.064,1534.248 1814.399,1485.668 1838.090 C 1428.489 1865.974,1417.403 1875.681,1406.078 1907.778 C 1392.594 1945.996,1400.708 1980.941,1429.864 2010.221 C 1453.207 2033.664,1476.033 2042.024,1508.932 2039.182 C 1547.284 2035.869,1644.929 1986.358,1721.426 1931.437 L 1760.852 1903.132 1833.426 1975.317 C 1883.406 2025.029,1911.604 2050.042,1924.000 2055.663 C 1947.323 2066.238,1984.105 2066.564,2006.000 2056.389 C 2025.908 2047.138,2049.632 2022.747,2057.805 2003.128 C 2066.528 1982.188,2065.584 1945.921,2055.745 1924.000 C 2044.477 1898.894,507.604 360.400,479.133 345.725 C 451.684 331.576,413.362 332.140,386.158 347.093 M1451.924 363.798 C 1434.564 372.980,1417.285 389.928,1408.984 405.917 C 1400.783 421.711,1397.674 470.831,1403.715 489.137 C 1414.563 522.007,1427.478 533.091,1490.639 563.736 C 1523.288 579.578,1567.100 604.034,1588.000 618.083 C 1731.511 714.554,1836.414 862.441,1877.379 1026.036 C 1893.695 1091.194,1897.672 1125.868,1897.563 1202.000 C 1897.450 1280.986,1889.489 1337.548,1869.645 1400.367 L 1859.274 1433.196 1934.598 1508.598 C 1976.025 1550.069,2010.839 1583.996,2011.961 1583.990 C 2015.011 1583.975,2041.963 1518.523,2053.958 1482.000 C 2081.511 1398.101,2095.117 1321.350,2098.630 1230.000 C 2112.814 861.165,1893.625 517.563,1551.514 372.337 C 1506.957 353.423,1476.482 350.810,1451.924 363.798 M1082.000 543.958 C 1062.777 546.999,1047.163 555.174,1026.850 572.831 L 1011.700 586.000 1105.850 679.968 L 1200.000 773.936 1200.000 699.681 C 1200.000 614.747,1196.380 597.856,1173.022 573.805 C 1149.590 549.677,1115.826 538.606,1082.000 543.958 M1400.000 887.024 L 1400.000 974.048 1523.428 1097.428 C 1663.067 1237.013,1654.506 1232.585,1647.794 1161.747 C 1637.605 1054.220,1595.797 963.805,1520.748 886.997 C 1483.348 848.721,1416.957 800.000,1402.199 800.000 C 1400.989 800.000,1400.000 839.161,1400.000 887.024 " fill="#1D1E23" stroke="none" fill-rule="evenodd"/></svg>