<svg xmlns="http://www.w3.org/2000/svg" width="1200" height="1200" fill="none"><path fill="#000" d="M359.998 910.01c-110.5 0-200-89.5-200-200s89.5-200 200-200S560 599.51 560 710.01s-89.502 200-200.002 200m0-300c-55 0-100 45-100 100s45 100 100 100 99.999-45 99.999-100-44.999-100-99.999-100M560 510.01c-110.502 0-200.002-89.5-200.002-200s89.5-200 200.002-200c110.5 0 200 89.5 200 200s-89.5 200-200 200m0-300c-55 0-100.003 45-100.003 100S505 410.01 560 410.01s100-45 100-100-45-100-100-100m280 880c-110.5 0-200-89.5-200-200s89.5-200 200-200 200 89.5 200 200-89.5 200-200 200m0-300c-55 0-100 45-100 100s45 100 100 100 100-45 100-100-45-100-100-100"/></svg>