<svg xmlns="http://www.w3.org/2000/svg" width="1200" height="1200" fill="none"><path fill="#1D1E23" d="M950 150H250c-55 0-100 45-100 100v700c0 55 45 100 100 100h700c55 0 100-45 100-100V250c0-55-45-100-100-100"/><path fill="#fff" d="M550 300c0-27.614 22.385-50 50-50h100c27.615 0 50 22.386 50 50s-22.385 50-50 50H600c-27.615 0-50-22.386-50-50M550 450c0-27.614 22.385-50 50-50h200c27.615 0 50 22.386 50 50s-22.385 50-50 50H600c-27.615 0-50-22.386-50-50M550 600c0-27.615 22.385-50 50-50h300c27.615 0 50 22.385 50 50s-22.385 50-50 50H600c-27.615 0-50-22.385-50-50M350 900c0 27.615 22.386 50 50 50h100c27.615 0 50-22.385 50-50s-22.385-50-50-50H400c-27.614 0-50 22.385-50 50M250 750c0 27.615 22.386 50 50 50h200c27.615 0 50-22.385 50-50s-22.385-50-50-50H300c-27.614 0-50 22.385-50 50"/></svg>