<svg xmlns="http://www.w3.org/2000/svg" width="1200" height="1200" fill="none"><path fill="#1D1E23" d="M350 500c-110.5 0-200 89.5-200 200s89.5 200 200 200 200-89.5 200-200-89.5-200-200-200m0 300c-55 0-100-45-100-100s45-100 100-100 100 45 100 100-45 100-100 100m400.5-50c-82.5 0-150 67.5-150 150s67.5 150 150 150 150-67.5 150-150-67.5-150-150-150m0 200c-27.5 0-50-22.5-50-50s22.5-50 50-50 50 22.5 50 50-22.5 50-50 50M825 150c-151.5 0-275 123.5-275 275s123.5 275 275 275 275-123.5 275-275-123.5-275-275-275m0 450c-96.5 0-175-78.5-175-175s78.5-175 175-175 175 78.5 175 175-78.5 175-175 175"/></svg>