<svg width="1200" height="1200" viewBox="0 0 1200 1200" fill="none" xmlns="http://www.w3.org/2000/svg"><path d="M950 150H250C195 150 150 195 150 250V950C150 1005 195 1050 250 1050H950C1005 1050 1050 1005 1050 950V250C1050 195 1005 150 950 150Z" fill="black"/><path d="M550 300C550 272.386 572.385 250 600 250H700C727.615 250 750 272.386 750 300C750 327.614 727.615 350 700 350H600C572.385 350 550 327.614 550 300Z" fill="white"/><path d="M550 450C550 422.386 572.385 400 600 400H800C827.615 400 850 422.386 850 450C850 477.614 827.615 500 800 500H600C572.385 500 550 477.614 550 450Z" fill="white"/><path d="M550 600C550 572.385 572.385 550 600 550H900C927.615 550 950 572.385 950 600C950 627.615 927.615 650 900 650H600C572.385 650 550 627.615 550 600Z" fill="white"/><path d="M350 900C350 927.615 372.386 950 400 950H500C527.615 950 550 927.615 550 900C550 872.385 527.615 850 500 850H400C372.386 850 350 872.385 350 900Z" fill="white"/><path d="M250 750C250 777.615 272.386 800 300 800H500C527.615 800 550 777.615 550 750C550 722.385 527.615 700 500 700H300C272.386 700 250 722.385 250 750Z" fill="white"/></svg>