<svg xmlns="http://www.w3.org/2000/svg" width="1200" height="1200" fill="none"><path fill="#000" d="M300 512.5c0-6.905 5.596-12.5 12.5-12.5h125c6.904 0 12.5 5.595 12.5 12.5v475c0 6.905-5.596 12.5-12.5 12.5h-125c-6.904 0-12.5-5.595-12.5-12.5zm0-187.5c0-41.421 33.579-75 75-75s75 33.579 75 75v112.5c0 6.904-5.596 12.5-12.5 12.5h-125c-6.904 0-12.5-5.596-12.5-12.5zm500 487.5c0-6.905 5.595-12.5 12.5-12.5h125c6.905 0 12.5 5.595 12.5 12.5v175c0 6.905-5.595 12.5-12.5 12.5h-125c-6.905 0-12.5-5.595-12.5-12.5zm0-87.5c0-41.42 33.58-75 75-75s75 33.58 75 75v13.89c0 6.135-4.975 11.11-11.11 11.11H811.11c-6.135 0-11.11-4.975-11.11-11.11zm-250-62.5c0-6.905 5.595-12.5 12.5-12.5h125c6.905 0 12.5 5.595 12.5 12.5v325c0 6.905-5.595 12.5-12.5 12.5h-125c-6.905 0-12.5-5.595-12.5-12.5zm0-137.5c0-41.422 33.58-75 75-75s75 33.578 75 75v62.5c0 6.905-5.595 12.5-12.5 12.5h-125c-6.905 0-12.5-5.595-12.5-12.5z"/></svg>