<svg xmlns="http://www.w3.org/2000/svg" width="1200" height="1200" fill="none" viewBox="0 0 1200 1200"><path fill="#000" d="M200 1050c0 27.615-22.386 50-50 50s-50-22.385-50-50V150c0-27.614 22.386-50 50-50s50 22.386 50 50zm900-450c0-27.615-22.385-50-50-50H350c-27.614 0-50 22.385-50 50s22.386 50 50 50h700c27.615 0 50-22.385 50-50m-100 250c0-27.615-22.385-50-50-50H550c-27.615 0-50 22.385-50 50s22.385 50 50 50h400c27.615 0 50-22.385 50-50M900 350c0-27.614-22.385-50-50-50H350c-27.615 0-50 22.386-50 50s22.386 50 50 50h500c27.615 0 50-22.386 50-50"/></svg>