<svg xmlns="http://www.w3.org/2000/svg" width="1200" height="1200" fill="none"><path fill="#000" d="M350 900c-110.5 0-200-89.5-200-200s89.5-200 200-200 200 89.5 200 200-89.5 200-200 200m0-300c-55 0-100 45-100 100s45 100 100 100 100-45 100-100-45-100-100-100m200-100c-110.5 0-200-89.5-200-200s89.5-200 200-200 200 89.5 200 200-89.5 200-200 200m0-300c-55 0-100 45-100 100s45 100 100 100 100-45 100-100-45-100-100-100m280 880c-110.5 0-200-89.5-200-200s89.5-200 200-200 200 89.5 200 200-89.5 200-200 200m0-300c-55 0-100 45-100 100s45 100 100 100 100-45 100-100-45-100-100-100"/></svg>