<svg width="1200" height="1200" viewBox="0 0 1200 1200" fill="none" xmlns="http://www.w3.org/2000/svg"><path d="M359.998 910.01C249.498 910.01 159.998 820.51 159.998 710.01C159.998 599.51 249.498 510.01 359.998 510.01C470.498 510.01 560 599.51 560 710.01C560 820.51 470.498 910.01 359.998 910.01ZM359.998 610.01C304.998 610.01 259.998 655.01 259.998 710.01C259.998 765.01 304.998 810.01 359.998 810.01C414.998 810.01 459.997 765.01 459.997 710.01C459.997 655.01 414.998 610.01 359.998 610.01ZM560 510.01C449.498 510.01 359.998 420.51 359.998 310.01C359.998 199.51 449.498 110.01 560 110.01C670.5 110.01 760 199.51 760 310.01C760 420.51 670.5 510.01 560 510.01ZM560 210.01C505 210.01 459.997 255.01 459.997 310.01C459.997 365.01 505 410.01 560 410.01C615 410.01 660 365.01 660 310.01C660 255.01 615 210.01 560 210.01ZM840 1090.01C729.5 1090.01 640 1000.51 640 890.01C640 779.51 729.5 690.01 840 690.01C950.5 690.01 1040 779.51 1040 890.01C1040 1000.51 950.5 1090.01 840 1090.01ZM840 790.01C785 790.01 740 835.01 740 890.01C740 945.01 785 990.01 840 990.01C895 990.01 940 945.01 940 890.01C940 835.01 895 790.01 840 790.01Z" fill="black"/></svg>