<svg xmlns="http://www.w3.org/2000/svg" width="1200" height="1200" fill="none" viewBox="0 0 1200 1200"><g clip-path="url(#a)"><path fill="#000" d="M150 900c0 27.5 22.5 50 50 50h250V850H200c-27.5 0-50 22.5-50 50m0-600c0 27.5 22.5 50 50 50h450V250H200c-27.5 0-50 22.5-50 50m500 700v-50h350c27.5 0 50-22.5 50-50s-22.5-50-50-50H650v-50c0-27.5-22.5-50-50-50s-50 22.5-50 50v200c0 27.5 22.5 50 50 50s50-22.5 50-50M350 500v50H200c-27.5 0-50 22.5-50 50s22.5 50 50 50h150v50c0 27.5 22.5 50 50 50s50-22.5 50-50V500c0-27.5-22.5-50-50-50s-50 22.5-50 50m700 100c0-27.5-22.5-50-50-50H550v100h450c27.5 0 50-22.5 50-50M800 450c27.5 0 50-22.5 50-50v-50h150c27.5 0 50-22.5 50-50s-22.5-50-50-50H850v-50c0-27.5-22.5-50-50-50s-50 22.5-50 50v200c0 27.5 22.5 50 50 50"/></g><defs><clipPath id="a"><path fill="#fff" d="M0 0h1200v1200H0z"/></clipPath></defs></svg>