<svg width="1200" height="1200" viewBox="0 0 1200 1200" fill="none" xmlns="http://www.w3.org/2000/svg"><g clip-path="url(#clip0_1105_3171)"><path fill-rule="evenodd" d="M200 450C226.522 450 251.95 460.543 270.703 479.297C289.457 498.05 300 523.48 300 550V750H225V675H125V750H50V550C50 523.48 60.543 498.05 79.297 479.297C98.05 460.543 123.478 450 150 450H200ZM150 525C143.369 525 137.013 527.635 132.324 532.325C127.636 537.015 125 543.37 125 550V600H225V550C225 543.37 222.364 537.015 217.676 532.325C212.988 527.635 206.63 525 200 525H150Z" fill="black"/><path d="M425 650C425 656.63 427.636 662.985 432.324 667.675C437.012 672.365 443.37 675 450 675H500C506.63 675 512.985 672.365 517.675 667.675C522.365 662.985 525 656.63 525 650V450H600V650C600 676.52 589.455 701.95 570.705 720.705C551.95 739.455 526.52 750 500 750H450C423.478 750 398.05 739.455 379.297 720.705C360.543 701.95 350 676.52 350 650V450H425V650Z" fill="black"/><path d="M875 525H787.5V750H712.5V525H625V450H875V525Z" fill="black"/><path fill-rule="evenodd" d="M1075 450C1094.73 450.506 1113.535 458.553 1127.49 472.51C1141.445 486.467 1149.495 505.27 1150 525V675C1149.495 694.73 1141.445 713.535 1127.49 727.49C1113.535 741.445 1094.73 749.495 1075 750H975C955.27 749.495 936.465 741.445 922.51 727.49C908.555 713.535 900.505 694.73 900 675V525C900.505 505.27 908.555 486.467 922.51 472.51C936.465 458.553 955.27 450.506 975 450H1075ZM975 525V675H1075V525H975Z" fill="black"/></g><defs><clipPath id="clip0_1105_3171"><path width="24" fill="white" d="M0 0H1200V1200H0V0z"/></clipPath></defs></svg>