<svg xmlns="http://www.w3.org/2000/svg" width="1200" height="1200" fill="none"><g fill="#000" clip-path="url(#a)"><path fill-rule="evenodd" d="M420.068 800h-86.133l-19.14-65.185H204.883L185.791 800H100l122.022-349.658h75.244zM223.975 669.68h70.947l-35.84-123z"/><path d="m532.375 669.68 46.385-219.338h67.04l47.56 219.338 38.23-219.338h77.98L740.135 800H657.13l-44.485-199.22L567.82 800h-81.833l-70.606-349.658h77.979z"/><path fill-rule="evenodd" d="M961.62 450.342c34.22-2.289 68.32 6.293 97.855 24.609 10.925 8.039 19.685 18.916 25.485 31.544 5.8 12.63 8.425 26.625 7.62 40.625.41 16.29-3.63 32.36-11.67 46.29-8.43 13.215-20.78 23.145-35.11 28.27 15.55 3.84 29.365 13.28 39.015 26.66 9.995 13.76 15.33 30.635 15.185 47.95.92 14.51-1.425 29.05-6.835 42.43-5.42 13.39-13.775 25.255-24.365 34.62-26.95 19.13-59.15 28.39-91.605 26.27l-136.47.39V450.342zm-40.965 286.963h52.635c12.025.75 23.93-3.065 33.545-10.695 4.39-3.53 7.9-8.145 10.205-13.425 2.31-5.285 3.34-11.09 3.03-16.895.575-5.92-.06-11.905-1.905-17.53-1.85-5.635-4.86-10.795-8.79-15.09a39 39 0 0 0-14.015-9.765 37.3 37.3 0 0 0-16.6-2.685L920.655 650zm40.965-223.39h-39.015l-1.95 81.155h42.09c13.725 1.325 27.495-2.295 39.015-10.255 3.775-3.675 6.7-8.205 8.59-13.235a37.8 37.8 0 0 0 2.295-15.865c.545-5.955-.24-11.97-2.34-17.53-2.105-5.56-5.435-10.515-9.72-14.455-11.64-7.61-25.305-11.04-38.965-9.815"/></g><defs><clipPath id="a"><path fill="#fff" d="M0 0h1200v1200H0z"/></clipPath></defs></svg>