<svg width="1200" height="1200" viewBox="0 0 1200 1200" fill="none" xmlns="http://www.w3.org/2000/svg"><g clip-path="url(#clip0_1108_3292)"><path fill-rule="evenodd" d="M420.068 800H333.935L314.795 734.815H204.883L185.791 800H100L222.022 450.342H297.266L420.068 800ZM223.975 669.68H294.922L259.082 546.68L223.975 669.68Z" fill="black"/><path d="M532.375 669.68L578.76 450.342H645.8L693.36 669.68L731.59 450.342H809.57L740.135 800H657.13L612.645 600.78L567.82 800H485.987L415.381 450.342H493.36L532.375 669.68Z" fill="black"/><path fill-rule="evenodd" d="M961.62 450.342C995.84 448.053 1029.94 456.635 1059.475 474.951C1070.4 482.99 1079.16 493.867 1084.96 506.495C1090.76 519.125 1093.385 533.12 1092.58 547.12C1092.99 563.41 1088.95 579.48 1080.91 593.41C1072.48 606.625 1060.13 616.555 1045.8 621.68C1061.35 625.52 1075.165 634.96 1084.815 648.34C1094.81 662.1 1100.145 678.975 1100 696.29C1100.92 710.8 1098.575 725.34 1093.165 738.72C1087.745 752.11 1079.39 763.975 1068.8 773.34C1041.85 792.47 1009.65 801.73 977.195 799.61L840.725 800V450.342H961.62ZM920.655 737.305H973.29C985.315 738.055 997.22 734.24 1006.835 726.61C1011.225 723.08 1014.735 718.465 1017.04 713.185C1019.35 707.9 1020.38 702.095 1020.07 696.29C1020.645 690.37 1020.01 684.385 1018.165 678.76C1016.315 673.125 1013.305 667.965 1009.375 663.67C1005.44 659.38 1000.65 656.06 995.36 653.905C990.075 651.755 984.415 650.835 978.76 651.22L920.655 650V737.305ZM961.62 513.915H922.605L920.655 595.07H962.745C976.47 596.395 990.24 592.775 1001.76 584.815C1005.535 581.14 1008.46 576.61 1010.35 571.58C1012.24 566.545 1013.02 561.11 1012.645 555.715C1013.19 549.76 1012.405 543.745 1010.305 538.185C1008.2 532.625 1004.87 527.67 1000.585 523.73C988.945 516.12 975.28 512.69 961.62 513.915Z" fill="black"/></g><defs><clipPath id="clip0_1108_3292"><path width="24" fill="white" d="M0 0H1200V1200H0V0z"/></clipPath></defs></svg>