<svg xmlns="http://www.w3.org/2000/svg" width="1200" height="1200" fill="none"><g clip-path="url(#a)"><path fill="#1D1E23" d="m470 525 238.5-413c-35-7.5-71-12-108.5-12-120 0-230 42.5-316 112.5L467 530zm607-75c-46-146-157.5-263-300-317L594 450zm13 50H715.5l14.5 25 238 412.5c82-89 132-207 132-337.5 0-34.5-3.5-67.5-10-100M427 600 232 262.5c-81.5 89-132 207-132 337.5 0 34.5 3.5 67.5 10 100h374.5zM123 750c46 146 157.5 263 300 317l183-317zm563.5 0-195 338c35 7.5 71 12 108.5 12 120 0 230-42.5 316-112.5L733 670z"/></g><defs><clipPath id="a"><path fill="#fff" d="M0 0h1200v1200H0z"/></clipPath></defs></svg>