<svg width="1200" height="1200" viewBox="0 0 1200 1200" fill="none" xmlns="http://www.w3.org/2000/svg"><g clip-path="url(#clip0_124_546)"><path d="M470 525L708.5 112C673.5 104.5 637.5 100 600 100C480 100 370 142.5 284 212.5L467 530L470 525ZM1077 450C1031 304 919.5 187 777 133L594 450H1077ZM1090 500H715.5L730 525L968 937.5C1050 848.5 1100 730.5 1100 600C1100 565.5 1096.5 532.5 1090 500ZM427 600L232 262.5C150.5 351.5 100 469.5 100 600C100 634.5 103.5 667.5 110 700H484.5L427 600ZM123 750C169 896 280.5 1013 423 1067L606 750H123ZM686.5 750L491.5 1088C526.5 1095.5 562.5 1100 600 1100C720 1100 830 1057.5 916 987.5L733 670L686.5 750Z" fill="#1D1E23"/></g><defs><clipPath id="clip0_124_546"><path width="24" fill="white" d="M0 0H1200V1200H0V0z"/></clipPath></defs></svg>