<svg xmlns="http://www.w3.org/2000/svg" width="1200" height="1200" fill="none" viewBox="0 0 1200 1200"><g fill="#000" clip-path="url(#a)"><path d="M800 350h-50l-46.34-46.339a12.5 12.5 0 0 0-8.84-3.661H505.18c-3.32 0-6.497 1.317-8.841 3.661L450 350h-50c-55 0-100 45-100 100v300c0 55 45 100 100 100h400c55 0 100-45 100-100V450c0-55-45-100-100-100M600 700c-55 0-100-45-100-100s45-100 100-100 100 45 100 100-45 100-100 100"/><path d="M448.596 19.791c-9.126 2.418-12.023 13.778-5.348 20.453l187.917 187.917c7.875 7.875 21.34 2.297 21.34-8.839V101.999c220.795 21.987 399.58 187.964 440.94 402.526 4.885 25.335 26.215 44.975 52.02 44.975 29.365 0 52.64-25.24 47.695-54.186-61.095-357.526-419.71-561.591-744.564-475.523M547.5 1098c-220.799-21.985-399.582-187.965-440.943-402.525-4.884-25.335-26.213-44.975-52.016-44.975-29.365 0-52.644 25.24-47.697 54.185 61.092 357.525 419.707 561.59 744.566 475.525 9.125-2.42 12.02-13.78 5.345-20.455L568.84 971.84c-7.875-7.875-21.34-2.3-21.34 8.84z"/></g><defs><clipPath id="a"><path fill="#fff" d="M0 0h1200v1200H0z"/></clipPath></defs></svg>