<svg xmlns="http://www.w3.org/2000/svg" width="1200" height="1200" fill="none"><g clip-path="url(#a)"><path fill="#000" d="M850 750h100V350c0-55-45-100-100-100H450v100h350c27.5 0 50 22.5 50 50zM400 850c-27.5 0-50-22.5-50-50V100c0-27.5-22.5-50-50-50s-50 22.5-50 50v150H100c-27.5 0-50 22.5-50 50s22.5 50 50 50h150v500c0 55 45 100 100 100h500v150c0 27.5 22.5 50 50 50s50-22.5 50-50V950h150c27.5 0 50-22.5 50-50s-22.5-50-50-50z"/></g><defs><clipPath id="a"><path fill="#fff" d="M0 0h1200v1200H0z"/></clipPath></defs></svg>