<svg xmlns="http://www.w3.org/2000/svg" width="1200" height="1200" fill="none"><g clip-path="url(#a)"><path fill="#1D1E23" d="m1035.5 281.503-117-117c-19.5-19.5-51-19.5-70.5 0l-156 156-61.5-60.5c-19.5-19.5-51-19-70.5 0-19.5 19.5-19.5 51 0 70.5l36 36-438.5 438.502q-7.5 7.5-7.5 18v202c0 14 11 25 25 25h202c6.5 0 13-2.5 17.5-7.5l438.5-438.5 36 36c19.5 19.5 51 19.5 70.5 0s19.5-51 0-70.5l-61-61 156-156.002c20.5-20 20.5-51.5 1-71M346 950.005l-96-96 403-403.002 96 96.002z"/></g><defs><clipPath id="a"><path fill="#fff" d="M0 0h1200v1200H0z"/></clipPath></defs></svg>