<svg xmlns="http://www.w3.org/2000/svg" width="1200" height="1200" fill="none" viewBox="0 0 1200 1200"><g clip-path="url(#a)"><path fill="#000" d="M1000 100H200c-55 0-100 45-100 100v800c0 55 45 100 100 100h800c55 0 100-45 100-100V200c0-55-45-100-100-100m-600 900H250c-27.5 0-50-22.5-50-50V800h200zm0-300H200V500h200zm0-300H200V250c0-27.5 22.5-50 50-50h150zm300 600H500V800h200zm0-300H500V500h200zm0-300H500V200h200zm250 600H800V800h200v150c0 27.5-22.5 50-50 50m50-300H800V500h200zm0-300H800V200h150c27.5 0 50 22.5 50 50z"/></g><defs><clipPath id="a"><path fill="#fff" d="M0 0h1200v1200H0z"/></clipPath></defs></svg>