<svg width="1200" height="1200" viewBox="0 0 1200 1200" fill="none" xmlns="http://www.w3.org/2000/svg"><g clip-path="url(#clip0_124_533)"><path d="M1100 100H100V1100H1100V100ZM400 1000H200V800H400V1000ZM400 700H200V500H400V700ZM400 400H200V200H400V400ZM700 1000H500V800H700V1000ZM700 700H500V500H700V700ZM700 400H500V200H700V400ZM1000 1000H800V800H1000V1000ZM1000 700H800V500H1000V700ZM1000 400H800V200H1000V400Z" fill="black"/></g><defs><clipPath id="clip0_124_533"><path width="24" fill="white" d="M0 0H1200V1200H0V0z"/></clipPath></defs></svg>