<svg width="1200" height="1200" viewBox="0 0 1200 1200" fill="none" xmlns="http://www.w3.org/2000/svg"><g clip-path="url(#clip0_1103_2966)"><path d="M1050 575V525C1050 485 1015 450 975 450H800V750H875V650H930L975 750H1050L1005 645C1030 630 1050 605 1050 575ZM975 575H875V525H975V575ZM325 550H225V450H150V750H225V625H325V750H400V450H325V550ZM650 450H475V750H650C690 750 725 715 725 675V525C725 485 690 450 650 450ZM650 675H550V525H650V675Z" fill="black"/></g><defs><clipPath id="clip0_1103_2966"><path width="24" fill="white" d="M0 0H1200V1200H0V0z"/></clipPath></defs></svg>