<svg xmlns="http://www.w3.org/2000/svg" width="1200" height="1200" fill="none" viewBox="0 0 1200 1200"><g clip-path="url(#a)"><path fill="#000" d="M1100 800V200c0-55-45-100-100-100H400c-55 0-100 45-100 100v600c0 55 45 100 100 100h600c55 0 100-45 100-100M570 626.5l81.5 109 129-161c10-12.5 29-12.5 39 0l148 185C980.5 776 969 800 948 800H450c-20.5 0-32.5-23.5-20-40l100-133.5c10-13 30-13 40 0M100 350v650c0 55 45 100 100 100h650c27.5 0 50-22.5 50-50s-22.5-50-50-50H250c-27.5 0-50-22.5-50-50V350c0-27.5-22.5-50-50-50s-50 22.5-50 50"/></g><defs><clipPath id="a"><path fill="#fff" d="M0 0h1200v1200H0z"/></clipPath></defs></svg>