<svg xmlns="http://www.w3.org/2000/svg" width="1200" height="1200" fill="none" viewBox="0 0 1200 1200"><g fill="#000" clip-path="url(#a)"><path d="M250 450h75v300h-75zM612.5 525a38 38 0 0 0 26.375-11.125A38 38 0 0 0 650 487.5a38 38 0 0 0-37.5-37.5H475a75 75 0 0 0-75 75v37.5a74.997 74.997 0 0 0 75 75h100V675H437.5a37.5 37.5 0 0 0-26.516 10.985 37.49 37.49 0 0 0 0 53.03A37.5 37.5 0 0 0 437.5 750H575c19.89 0 38.97-7.9 53.035-21.965A75 75 0 0 0 650 675v-37.5c0-19.89-7.9-38.97-21.965-53.035A75 75 0 0 0 575 562.5H475V525z"/><path fill-rule="evenodd" d="M900 450H800a77.01 77.01 0 0 0-52.475 22.527A77 77 0 0 0 725 525v150a77.02 77.02 0 0 0 22.525 52.475A77.02 77.02 0 0 0 800 750h100a76.999 76.999 0 0 0 75-75V525a77 77 0 0 0-22.53-52.473A77 77 0 0 0 900 450m0 225H800V525h100z"/></g><defs><clipPath id="a"><path fill="#fff" d="M0 0h1200v1200H0z"/></clipPath></defs></svg>