<svg width="1200" height="1200" viewBox="0 0 1200 1200" fill="none" xmlns="http://www.w3.org/2000/svg"><g clip-path="url(#clip0_124_545)"><path d="M600 612.5C662 612.5 712.5 562 712.5 500C712.5 438 662 387.5 600 387.5C538 387.5 487.5 438 487.5 500C487.5 562 538 612.5 600 612.5ZM825 812.5C825 737.5 675 700 600 700C525 700 375 737.5 375 812.5V850H825V812.5ZM1000 150H200V1050H1000V150ZM900 950H300V250H900V950Z" fill="#1D1E23"/></g><defs><clipPath id="clip0_124_545"><path width="24" fill="white" d="M0 0H1200V1200H0V0z"/></clipPath></defs></svg>