<svg xmlns="http://www.w3.org/2000/svg" width="1200" height="1200" fill="none"><g fill="#000" fill-rule="evenodd" clip-path="url(#a)"><path d="M325 450H150v300h75V650h100a77 77 0 0 0 52.473-22.525A77.01 77.01 0 0 0 400 575v-50a77 77 0 0 0-75-75m0 125H225v-50h100zM725 575v-50a77 77 0 0 0-22.525-52.473A77.01 77.01 0 0 0 650 450H475v300h75V650h55l45 100h75l-45-105a84.5 84.5 0 0 0 31.715-29.075A84.54 84.54 0 0 0 725 575m-75 0H550v-50h100zM875 450h100a77.01 77.01 0 0 1 52.475 22.527A77 77 0 0 1 1050 525v150a77.02 77.02 0 0 1-22.525 52.475A77.02 77.02 0 0 1 975 750H875a76.999 76.999 0 0 1-75-75V525a77 77 0 0 1 22.53-52.473A77 77 0 0 1 875 450m0 225h100V525H875z"/></g><defs><clipPath id="a"><path fill="#fff" d="M0 0h1200v1200H0z"/></clipPath></defs></svg>