<svg xmlns="http://www.w3.org/2000/svg" width="1200" height="1200" fill="none" viewBox="0 0 1200 1200"><g clip-path="url(#a)"><path fill="#000" d="M741.5 241.511 635 135.011c-31-31-85-9-85 35.5v33c-197 24.499-350 192.5-350 396.499 0 182 121.5 335.5 288.5 384 31 9 61.5-16 61.5-48v-1.5c0-21.5-13.5-41-34-47-125-36-216-151-216-287.5 0-148.499 108-271.499 250-295.499v76.499c0 44.501 53.5 66.501 85 35.501l106.5-104c20-19 20-51 0-71m242 246.5q-12-41.25-33-79.5c-15.5-28.5-55-33.001-78-10.001l-.5.501c-15.5 15.5-19 39-8.5 57.999 10 18.501 18 38.001 24 58 6 21 25.5 35 47 35h1c32.5 0 57.5-31 48-61.999M650 934.01v1c0 32.5 31 57 62 48q41.25-12 79.5-33c28.5-15.5 33-55 10-78l-1-1c-15.5-15.5-39-19-58-8.5-18.5 10.5-38 18.5-58 24.5-20.5 6-34.5 25.5-34.5 47m222-132.5c23 23 62.5 18.5 78-10 14-25.5 25-52 33.5-79.5 9-31-15.5-62-48-62h-1c-22 0-41 14-47 35q-9 30-24 58.5c-10.5 19-6.5 43 8.5 58"/></g><defs><clipPath id="a"><path fill="#fff" d="M0 0h1200v1200H0z"/></clipPath></defs></svg>