<svg width="1200" height="1200" viewBox="0 0 1200 1200" fill="none" xmlns="http://www.w3.org/2000/svg"><g clip-path="url(#clip0_124_541)"><path d="M355.504 426.5L285.004 355.5C240.004 413.5 212.004 480.5 203.504 550H304.503C311.504 506.5 329.004 464 355.504 426.5ZM304.503 650H203.504C212.004 719.5 239.504 786.5 284.504 844.5L355.003 773.5C329.004 736 311.504 694 304.503 650ZM355.003 916C413.004 961 480.504 988 550.005 996.5V895C506.505 887.5 464.504 870.5 427.004 843.5L355.003 916ZM650.005 203.5V50L422.504 277.5L650.005 500V304.5C792.005 328.5 900.005 451.5 900.005 600C900.005 748.5 792.005 871.5 650.005 895.5V996.5C847.505 972 1000.005 804 1000.005 600C1000.005 396 847.505 228 650.005 203.5Z" fill="black"/></g><defs><clipPath id="clip0_124_541"><path width="24" fill="white" d="M0 0H1200V1200H0V0z"/></clipPath></defs></svg>