<svg width="1200" height="1200" viewBox="0 0 1200 1200" fill="none" xmlns="http://www.w3.org/2000/svg"><g clip-path="url(#clip0_238_2760)"><path d="M328.004 399.001C305.004 376.001 265.504 380.001 250.004 408.501C236.004 434.001 225.004 460.001 216.504 487.501C207.004 519 232.004 550 264.504 550H265.004C286.504 550 306.004 536 312.004 515C318.004 495.001 326.004 475.501 336.004 456.501C347.004 438.001 343.504 414.501 328.004 399.001ZM265.504 650H264.504C232.004 650 207.004 681 216.504 712.5C224.504 739.5 235.504 766 249.504 791.5C265.004 820 305.004 824.5 328.004 801.5C343.004 786 347.004 763 336.504 744C326.504 725.5 318.504 706 312.504 686C306.504 664 287.004 650 265.504 650ZM408.004 951C433.504 965 460.004 976 487.504 984C518.505 993 549.505 968 549.505 936V934.5C549.505 913 535.505 893.5 514.505 887.5C494.504 881.5 475.504 873.5 457.004 863.5C438.004 853 414.004 856.5 399.004 872L397.504 873.5C375.004 896 379.504 935.5 408.004 951ZM650.005 203.501V170.501C650.005 126.001 596.005 103.501 564.505 135.001L458.504 241.501C438.504 261.501 438.504 293.501 458.504 313.001L565.005 417.001C596.505 448.001 650.005 425.501 650.005 381.001V304.501C792.005 328.501 900.005 451.501 900.005 600C900.005 736.5 809.005 851 684.005 887.5C663.505 893.5 650.005 913 650.005 934.5V935.5C650.005 968 680.505 992.5 711.505 983.5C878.505 935.5 1000.005 782 1000.005 600C1000.005 396.001 847.505 228.001 650.005 203.501Z" fill="black"/></g><defs><clipPath id="clip0_238_2760"><path width="24" fill="white" d="M0 0H1200V1200H0V0z"/></clipPath></defs></svg>