<svg xmlns="http://www.w3.org/2000/svg" width="1200" height="1200" fill="none"><g clip-path="url(#a)"><path fill="#1D1E23" d="M1050 300H150c-55 0-100 45-100 100v400c0 55 45 100 100 100h900c55 0 100-45 100-100V400c0-55-45-100-100-100m-50 500H200c-27.5 0-50-22.5-50-50V450c0-27.5 22.5-50 50-50h50v150c0 27.5 22.5 50 50 50s50-22.5 50-50V400h100v150c0 27.5 22.5 50 50 50s50-22.5 50-50V400h100v150c0 27.5 22.5 50 50 50s50-22.5 50-50V400h100v150c0 27.5 22.5 50 50 50s50-22.5 50-50V400h50c27.5 0 50 22.5 50 50v300c0 27.5-22.5 50-50 50"/></g><defs><clipPath id="a"><path fill="#fff" d="M0 0h1200v1200H0z"/></clipPath></defs></svg>