<svg width="1200" height="1200" viewBox="0 0 1200 1200" fill="none" xmlns="http://www.w3.org/2000/svg"><g clip-path="url(#clip0_238_2749)"><path d="M1050 300H150C95 300 50 345 50 400V800C50 855 95 900 150 900H1050C1105 900 1150 855 1150 800V400C1150 345 1105 300 1050 300ZM1000 800H200C172.5 800 150 777.5 150 750V450C150 422.5 172.5 400 200 400H250V550C250 577.5 272.5 600 300 600C327.5 600 350 577.5 350 550V400H450V550C450 577.5 472.5 600 500 600C527.5 600 550 577.5 550 550V400H650V550C650 577.5 672.5 600 700 600C727.5 600 750 577.5 750 550V400H850V550C850 577.5 872.5 600 900 600C927.5 600 950 577.5 950 550V400H1000C1027.5 400 1050 422.5 1050 450V750C1050 777.5 1027.5 800 1000 800Z" fill="#1D1E23"/></g><defs><clipPath id="clip0_238_2749"><path width="24" fill="white" d="M0 0H1200V1200H0V0z"/></clipPath></defs></svg>