<svg xmlns="http://www.w3.org/2000/svg" width="1200" height="1200" fill="none"><g fill="#1D1E23" clip-path="url(#a)"><path d="M700 150H500c-27.5 0-50-22.5-50-50s22.5-50 50-50h200c27.5 0 50 22.5 50 50s-22.5 50-50 50"/><path fill-rule="evenodd" d="m989.005 332-37.5 37.5c61.5 77 98.5 174.5 98.5 280.5 0 248.5-201 450-450 450-253 0-456.5-208-450-462 6-240 210-438 450-438 106 0 203.5 37 281 99l37.5-37.5c19.5-19 50.5-19.5 70 0l.5.5c19.5 19.5 19 51 0 70m-389 368c27.5 0 50-22.5 50-50V450c0-27.5-22.5-50-50-50s-50 22.5-50 50v200c0 27.5 22.5 50 50 50"/></g><defs><clipPath id="a"><path fill="#fff" d="M0 0h1200v1200H0z"/></clipPath></defs></svg>