<svg width="1200" height="1200" viewBox="0 0 1200 1200" fill="none" xmlns="http://www.w3.org/2000/svg"><g clip-path="url(#clip0_124_532)"><path fill-rule="evenodd" d="M450 50H750V150H450V50ZM1022.5 298.5L951.5 369.5C1013 446.5 1050 544 1050 650C1050 898.5 849 1100 600 1100C351 1100 150 898.5 150 650C150 401.5 351.5 200 600 200C706 200 803.5 237 881 299L952 228C977.5 249 1001 273 1022.5 298.5ZM550 400V700H650V400H550Z" fill="#1D1E23"/></g><defs><clipPath id="clip0_124_532"><path width="24" fill="white" d="M0 0H1200V1200H0V0z"/></clipPath></defs></svg>