<svg xmlns="http://www.w3.org/2000/svg" width="1200" height="1200" fill="none" viewBox="0 0 1200 1200"><g clip-path="url(#a)"><path fill="#000" d="m453.76 812.5 146.25-88.75 146.25 88.75-38.75-166.25 130-112.5L666.26 520l-66.25-157.502L533.76 520l-171.25 13.75 130 112.5zM600.01 1165l-167.5-165h-232.5V767.5L35.01 600l165-167.502v-232.5h232.5l167.5-165 167.5 165h232.5v232.5l165 167.502-165 167.5V1000h-232.5zm0-140 125-125h175V725l125-125-125-125.002v-175h-175l-125-125-125 125h-175v175L175.01 600l125 125v175h175z"/></g><defs><clipPath id="a"><path fill="#fff" d="M0 0h1200v1200H0z"/></clipPath></defs></svg>