<svg xmlns="http://www.w3.org/2000/svg" width="1200" height="1200" fill="none"><path fill="#000" d="M600 350V250c0-55.228-44.77-100-100-100H200c-55.228 0-100 44.772-100 100v787.5c0 6.905 5.597 12.5 12.5 12.5h975c6.905 0 12.5-5.595 12.5-12.5V450c0-55.228-44.77-100-100-100zM300 937.5c0 6.905-5.596 12.5-12.5 12.5h-75c-6.904 0-12.5-5.595-12.5-12.5v-75c0-6.905 5.596-12.5 12.5-12.5h75c6.904 0 12.5 5.595 12.5 12.5zm0-200c0 6.905-5.596 12.5-12.5 12.5h-75c-6.904 0-12.5-5.595-12.5-12.5v-75c0-6.905 5.596-12.5 12.5-12.5h75c6.904 0 12.5 5.595 12.5 12.5zm0-200c0 6.905-5.596 12.5-12.5 12.5h-75c-6.904 0-12.5-5.595-12.5-12.5v-75c0-6.904 5.596-12.5 12.5-12.5h75c6.904 0 12.5 5.596 12.5 12.5zm0-200c0 6.904-5.596 12.5-12.5 12.5h-75c-6.904 0-12.5-5.596-12.5-12.5v-75c0-6.904 5.596-12.5 12.5-12.5h75c6.904 0 12.5 5.596 12.5 12.5zm200 600c0 6.905-5.596 12.5-12.5 12.5h-75c-6.904 0-12.5-5.595-12.5-12.5v-75c0-6.905 5.596-12.5 12.5-12.5h75c6.904 0 12.5 5.595 12.5 12.5zm0-200c0 6.905-5.596 12.5-12.5 12.5h-75c-6.904 0-12.5-5.595-12.5-12.5v-75c0-6.905 5.596-12.5 12.5-12.5h75c6.904 0 12.5 5.595 12.5 12.5zm0-200c0 6.905-5.596 12.5-12.5 12.5h-75c-6.904 0-12.5-5.595-12.5-12.5v-75c0-6.904 5.596-12.5 12.5-12.5h75c6.904 0 12.5 5.596 12.5 12.5zm0-200c0 6.904-5.596 12.5-12.5 12.5h-75c-6.904 0-12.5-5.596-12.5-12.5v-75c0-6.904 5.596-12.5 12.5-12.5h75c6.904 0 12.5 5.596 12.5 12.5zM1000 950H600V850h87.5c6.905 0 12.5-5.595 12.5-12.5v-75c0-6.905-5.595-12.5-12.5-12.5H600V650h87.5c6.905 0 12.5-5.595 12.5-12.5v-75c0-6.905-5.595-12.5-12.5-12.5H600V450h400zM900 562.5c0-6.905-5.595-12.5-12.5-12.5h-75c-6.905 0-12.5 5.595-12.5 12.5v75c0 6.905 5.595 12.5 12.5 12.5h75c6.905 0 12.5-5.595 12.5-12.5zm0 200c0-6.905-5.595-12.5-12.5-12.5h-75c-6.905 0-12.5 5.595-12.5 12.5v75c0 6.905 5.595 12.5 12.5 12.5h75c6.905 0 12.5-5.595 12.5-12.5z"/></svg>