<svg width="1200" height="1250" viewBox="0 0 1200 1250" fill="none" xmlns="http://www.w3.org/2000/svg"><path fill-rule="evenodd" d="M601.86 199.841C380.009 199.841 200.163 378.871 200.163 599.715C200.163 669 217.89 734.25 249.092 791.125L156.817 957.115C155.513 977.375 177.837 999.595 200.153 999.595H601.86C823.71 999.595 1003.56 820.56 1003.56 599.715C1003.56 378.871 823.71 199.841 601.86 199.841ZM300.156 599.715C300.156 435.105 434.209 301.661 599.57 301.661C764.93 301.661 898.985 435.105 898.985 599.715C898.985 764.325 764.93 897.775 599.57 897.775H306.792C306.792 897.775 347.519 823.77 355.986 809.58C364.452 795.385 360.201 781.605 355.986 774.555C315 713.125 300.156 655.34 300.156 599.715Z" fill="black"/></svg>