<svg width="1200" height="1200" viewBox="0 0 1200 1200" fill="none" xmlns="http://www.w3.org/2000/svg"><path d="M100 826.235C100 836.3 111.288 842.24 119.582 836.54L485.018 585.3C492.242 580.335 492.242 569.665 485.018 564.7L119.582 313.463C111.288 307.761 100 313.698 100 323.763V826.235Z" fill="black"/><path d="M1080.42 836.54C1088.71 842.24 1100 836.3 1100 826.235V323.763C1100 313.698 1088.71 307.761 1080.42 313.463L714.985 564.7C707.76 569.665 707.76 580.335 714.985 585.3L1080.42 836.54Z" fill="black"/><path d="M550 350C550 322.386 572.385 300 600 300C627.615 300 650 322.386 650 350V850C650 877.615 627.615 900 600 900C572.385 900 550 877.615 550 850V350Z" fill="black"/></svg>