<svg xmlns="http://www.w3.org/2000/svg" width="1200" height="1200" fill="none"><path fill="#000" d="M927.255 109.082H272.709a54.546 54.546 0 0 0-54.545 54.545v872.728a54.54 54.54 0 0 0 54.545 54.545h654.546a54.546 54.546 0 0 0 54.545-54.545V163.627a54.54 54.54 0 0 0-54.545-54.545M872.71 981.81H327.255V218.173H872.71zm-109.09-600c0-30.125-24.42-54.546-54.545-54.546H490.892c-30.125 0-54.546 24.421-54.546 54.546 0 30.124 24.421 54.545 54.546 54.545h218.183c30.125 0 54.545-24.421 54.545-54.545m0 436.365c0-30.125-24.42-54.545-54.545-54.545H490.892c-30.125 0-54.546 24.42-54.546 54.545s24.421 54.545 54.546 54.545h218.183c30.125 0 54.545-24.42 54.545-54.545m0-218.185c0-30.125-24.42-54.545-54.545-54.545H490.892c-30.125 0-54.546 24.42-54.546 54.545s24.421 54.545 54.546 54.545h218.183c30.125 0 54.545-24.42 54.545-54.545"/></svg>