<svg xmlns="http://www.w3.org/2000/svg" width="1200" height="1200" fill="none"><path fill="#000" d="M200 400c0-27.614 22.386-50 50-50h700c27.615 0 50 22.386 50 50s-22.385 50-50 50H250c-27.614 0-50-22.386-50-50m0 200c0 27.615 22.386 50 50 50h700c27.615 0 50-22.385 50-50s-22.385-50-50-50H250c-27.614 0-50 22.385-50 50m0 200c0 27.615 22.386 50 50 50h250c27.615 0 50-22.385 50-50s-22.385-50-50-50H250c-27.614 0-50 22.385-50 50m0 200c0 27.615 22.386 50 50 50h250c27.615 0 50-22.385 50-50s-22.385-50-50-50H250c-27.614 0-50 22.385-50 50m570.5-91.5L735.25 873c-19.45-19.585-51.11-19.64-70.625-.125-19.42 19.42-19.475 50.885-.125 70.375l70.685 71.185c19.49 19.625 51.215 19.7 70.795.16L964.44 856.48c19.635-19.59 19.65-51.39.04-71-19.595-19.595-51.365-19.595-70.96 0zM250 150c-27.614 0-50 22.386-50 50s22.386 50 50 50h700c27.615 0 50-22.386 50-50s-22.385-50-50-50z"/></svg>