<svg xmlns="http://www.w3.org/2000/svg" width="1200" height="1200" fill="none"><path fill="#000" d="M927.265 109.082H272.721a54.547 54.547 0 0 0-54.544 54.545v872.728a54.542 54.542 0 0 0 54.544 54.545h654.544a54.551 54.551 0 0 0 54.55-54.545V163.627c0-14.466-5.75-28.34-15.98-38.569a54.53 54.53 0 0 0-38.57-15.976M872.72 981.81H327.267V218.173H872.72zm-109.09-600c0-30.125-24.42-54.546-54.545-54.546H490.904c-30.125 0-54.546 24.421-54.546 54.546 0 30.124 24.421 54.545 54.546 54.545h218.181c30.125 0 54.545-24.421 54.545-54.545m0 436.365c0-30.125-24.42-54.545-54.545-54.545H490.904c-30.125 0-54.546 24.42-54.546 54.545s24.421 54.545 54.546 54.545h218.181c30.125 0 54.545-24.42 54.545-54.545m0-218.185c0-30.125-24.42-54.545-54.545-54.545H490.904c-30.125 0-54.546 24.42-54.546 54.545s24.421 54.545 54.546 54.545h218.181c30.125 0 54.545-24.42 54.545-54.545"/></svg>