<svg xmlns="http://www.w3.org/2000/svg" width="1200" height="1200" fill="none"><path fill="#1D1E23" d="M600 450h200c27.5 0 50-22.5 50-50s-22.5-50-50-50H600c-27.5 0-50 22.5-50 50s22.5 50 50 50m0 200h200c27.5 0 50-22.5 50-50s-22.5-50-50-50H600c-27.5 0-50 22.5-50 50s22.5 50 50 50m0 200h200c27.5 0 50-22.5 50-50s-22.5-50-50-50H600c-27.5 0-50 22.5-50 50s22.5 50 50 50M400 450c27.614 0 50-22.386 50-50s-22.386-50-50-50-50 22.386-50 50 22.386 50 50 50M400 650c27.614 0 50-22.385 50-50s-22.386-50-50-50-50 22.385-50 50 22.386 50 50 50M400 850c27.614 0 50-22.385 50-50s-22.386-50-50-50-50 22.385-50 50 22.386 50 50 50"/><path fill="#1D1E23" d="M950 150H250c-55 0-100 45-100 100v700c0 55 45 100 100 100h700c55 0 100-45 100-100V250c0-55-45-100-100-100m0 800H250V250h700z"/></svg>