<svg xmlns="http://www.w3.org/2000/svg" width="1200" height="1200" fill="none"><path fill="#000" d="M600 850c55 0 100-45 100-100s-45-100-100-100-100 45-100 100 45 100 100 100m300-450h-50V300c0-138-112-250-250-250-121.854 0-223.435 87.325-245.538 202.767C349.529 278.532 371.267 300 397.5 300s46.777-21.761 54.702-46.769C472.071 190.535 530.795 145 600 145c85.5 0 155 69.5 155 155v100H300c-55 0-100 45-100 100v500c0 55 45 100 100 100h600c55 0 100-45 100-100V500c0-55-45-100-100-100m0 600H300V500h600z"/></svg>