<svg width="1200" height="1200" viewBox="0 0 1200 1200" fill="none" xmlns="http://www.w3.org/2000/svg"><g clip-path="url(#clip0_8207_86)"><path fill-rule="evenodd" d="M600 190C436.904 190 289.998 313.46 289.998 510C289.998 566.22 311.773 635.65 367.134 720.305C418.206 798.395 495.092 885.15 600.22 980.485C705.115 885.17 781.885 798.43 832.905 720.34C888.22 635.665 910 566.23 910 510C910 313.46 763.09 190 600 190ZM567 1071.5C322.499 856 199.998 669 199.998 510C199.998 261 389.998 100 600 100C810 100 1000 261 1000 510C1000 669 877.5 856 633.5 1071.5C614.5 1088 586 1088 567 1071.5Z" fill="#1D1E23"/><path d="M697.985 502.015C697.985 556.13 654.115 600 600 600C545.885 600 502.015 556.13 502.015 502.015C502.015 447.898 545.885 404.029 600 404.029C654.115 404.029 697.985 447.898 697.985 502.015Z" fill="#1D1E23"/></g><defs><clipPath id="clip0_8207_86"><path width="24" fill="white" d="M0 0H1200V1200H0V0z"/></clipPath></defs></svg>