<svg xmlns="http://www.w3.org/2000/svg" width="1200" height="1200" fill="none"><g fill="#000" clip-path="url(#a)"><path fill-rule="evenodd" d="M600 190c-163.094 0-310 123.46-310 320 0 56.22 21.774 125.65 77.136 210.305 51.071 78.09 127.958 164.845 233.089 260.18 104.89-95.315 181.66-182.055 232.68-260.145C888.22 635.665 910 566.23 910 510c0-196.54-146.905-320-310-320m-33 881.5C322.5 856 200 669 200 510c0-249 190-410 400-410s400 161 400 410c0 159-122.5 346-366.5 561.5-19 16.5-47.5 16.5-66.5 0"/><path d="M697.99 502.015c0 54.115-43.87 97.985-97.985 97.985-54.12 0-97.985-43.87-97.985-97.985 0-54.117 43.865-97.986 97.985-97.986 54.115 0 97.985 43.869 97.985 97.986"/></g><defs><clipPath id="a"><path fill="#fff" d="M0 0h1200v1200H0z"/></clipPath></defs></svg>