<svg xmlns="http://www.w3.org/2000/svg" width="1200" height="1200" fill="none" viewBox="0 0 1200 1200"><path fill="#000" d="M200 350c0-27.614-22.386-50-50-50s-50 22.386-50 50v650c0 55 45 100 100 100h650c27.615 0 50-22.385 50-50s-22.385-50-50-50H200zm800-250H400c-55 0-100 45-100 100v600c0 55 45 100 100 100h600c55 0 100-45 100-100V200c0-55-45-100-100-100m-50 400c0 27.615-22.385 50-50 50H750v150c0 27.615-22.385 50-50 50s-50-22.385-50-50V550H500c-27.614 0-50-22.385-50-50s22.386-50 50-50h150V300c0-27.614 22.385-50 50-50s50 22.386 50 50v150h150c27.615 0 50 22.386 50 50"/></svg>