<svg xmlns="http://www.w3.org/2000/svg" width="1200" height="1200" fill="none"><path fill="#1D1E23" fill-rule="evenodd" d="M449.997 400c54.998 0 99.998-45 99.998-100s-45-100-99.998-100c-55 0-100 45-100 100s45 100 100 100m-.003 99.997c-55 0-100 44.998-100 99.998s45 100 100 100 100.001-45 100.001-100-45-99.998-100.001-99.998m0 300.008c-55 0-100 45-100 100s45 100 100 100 100.001-45 100.001-100-45-100-100.001-100M758.1 400c55 0 100-45 100-100s-45-100-100-100-100 45-100 100 45 100 100 100m0 99.997c-55 0-100 44.998-100 99.998s45 100 100 100 100-45 100-100-45-99.998-100-99.998m0 300.008c-55 0-100 45-100 100s45 100 100 100 100-45 100-100-45-100-100-100"/></svg>