<svg width="1200" height="1200" viewBox="0 0 1200 1200" fill="none" xmlns="http://www.w3.org/2000/svg"><path fill-rule="evenodd" d="M449.997 400C504.995 400 549.995 355 549.995 300C549.995 245 504.995 200 449.997 200C394.997 200 349.997 245 349.997 300C349.997 355 394.997 400 449.997 400ZM449.994 499.997C394.994 499.997 349.994 544.995 349.994 599.995C349.994 654.995 394.994 699.995 449.994 699.995C504.995 699.995 549.995 654.995 549.995 599.995C549.995 544.995 504.995 499.997 449.994 499.997ZM449.994 800.005C394.994 800.005 349.994 845.005 349.994 900.005C349.994 955.005 394.994 1000.005 449.994 1000.005C504.995 1000.005 549.995 955.005 549.995 900.005C549.995 845.005 504.995 800.005 449.994 800.005Z" fill="#1D1E23"/><path fill-rule="evenodd" d="M758.1 400C813.1 400 858.1 355 858.1 300C858.1 245 813.1 200 758.1 200C703.1 200 658.1 245 658.1 300C658.1 355 703.1 400 758.1 400ZM758.1 499.997C703.1 499.997 658.1 544.995 658.1 599.995C658.1 654.995 703.1 699.995 758.1 699.995C813.1 699.995 858.1 654.995 858.1 599.995C858.1 544.995 813.1 499.997 758.1 499.997ZM758.1 800.005C703.1 800.005 658.1 845.005 658.1 900.005C658.1 955.005 703.1 1000.005 758.1 1000.005C813.1 1000.005 858.1 955.005 858.1 900.005C858.1 845.005 813.1 800.005 758.1 800.005Z" fill="#1D1E23"/></svg>