<svg xmlns="http://www.w3.org/2000/svg" width="1200" height="1200" fill="none" viewBox="0 0 1200 1200"><path fill="#000" d="M954.91 600.04c0-15.775-.985-31.54-2.95-47.19l107.84-121.633-93.755-162.395-159.31 32.6a373.3 373.3 0 0 0-81.725-47.269L673.64 100H486.125l-51.392 154.153a373.4 373.4 0 0 0-81.666 47.191l-159.31-32.6L100 431.139 207.841 552.77a380 380 0 0 0-2.931 47.19 380 380 0 0 0 2.931 47.21L100 768.785l93.757 162.395 159.31-32.6a374 374 0 0 0 81.725 47.285L486.182 1100h187.513l51.375-154.135a374 374 0 0 0 81.725-47.285l159.31 32.6 93.755-162.395L952.02 647.17a380 380 0 0 0 2.89-47.13M351.973 350.019l54.692 27.952v22.092l120.34 120.342-26.7 26.68-120.341-120.321h-22.092l-27.932-54.692zm84.499 481.816a62.705 62.705 0 0 1-88.386 0 62.68 62.68 0 0 1 0-88.405L584.12 507.395a125.012 125.012 0 0 1 32.365-120.771 125 125 0 0 1 64.53-34.323 125 125 0 0 1 72.69 7.622l-70.925 70.904a31.34 31.34 0 0 0-9.115 22.101 31.35 31.35 0 0 0 9.115 22.102l22.11 22.091a31.264 31.264 0 0 0 44.205 0L820 426.217a125.04 125.04 0 0 1 7.605 72.682 125 125 0 0 1-34.33 64.516 125.01 125.01 0 0 1-120.75 32.385zm375.028-.1a62.494 62.494 0 0 1-88.385 0s-65.22-43.495-83.6-61.485l-1.445-1.445c-10.82-10.705-27.345-30.94-43.265-51.18L682.7 629.73a158 158 0 0 0 22.115 1.56c4.14 0 8.26-.175 12.36-.485 12.815 10.45 24.24 20.255 31.39 27.5.51.49 1 .975 1.445 1.445 17.99 18.38 61.49 83.6 61.49 83.6a62.5 62.5 0 0 1 18.34 44.18 62.48 62.48 0 0 1-18.26 44.205z"/></svg>