<svg width="1200" height="1200" viewBox="0 0 1200 1200" fill="none" xmlns="http://www.w3.org/2000/svg"><path d="M200 212.5C200 205.596 205.596 200 212.5 200H987.5C994.405 200 1000 205.596 1000 212.5V287.5C1000 294.404 994.405 300 987.5 300H212.5C205.596 300 200 294.404 200 287.5V212.5Z" fill="#1D1E23"/><path fill-rule="evenodd" d="M592.9 1000C600.965 1000 606.91 992.475 605.44 984.545C601.87 965.24 600 945.34 600 925C600 745.505 745.505 600 925 600C969.295 600 1011.52 608.86 1050 624.91V600L1002.01 360.048C1000.84 354.206 995.71 350 989.75 350H210.248C204.289 350 199.159 354.206 197.99 360.048L150 600V687.5C150 694.405 155.596 700 162.5 700H200V987.5C200 994.405 205.596 1000 212.5 1000H592.9ZM300 900H600V700H300V900Z" fill="#1D1E23"/><path d="M1077.32 815.7C1082.745 825.095 1096.745 823.59 1100.05 813.255L1124.98 735.265C1127.225 728.24 1122.935 720.81 1115.73 719.245L1035.725 701.84C1025.12 699.53 1016.815 710.905 1022.24 720.3L1039.365 749.96L759.71 911.415C749.745 917.17 746.33 929.91 752.085 939.875C757.835 949.84 770.58 953.255 780.545 947.5L1060.195 786.04L1077.32 815.7Z" fill="#1D1E23"/></svg>