<svg xmlns="http://www.w3.org/2000/svg" width="1200" height="1200" fill="none"><path fill="#000" d="M200 212.5c0-6.904 5.596-12.5 12.5-12.5h775c6.905 0 12.5 5.596 12.5 12.5v75c0 6.904-5.595 12.5-12.5 12.5h-775c-6.904 0-12.5-5.596-12.5-12.5z"/><path fill="#000" fill-rule="evenodd" d="M592.9 1000c8.065 0 14.01-7.525 12.54-15.455A327 327 0 0 1 600 925c0-179.495 145.505-325 325-325 44.295 0 86.52 8.86 125 24.91V600l-47.99-239.952A12.5 12.5 0 0 0 989.75 350H210.248a12.5 12.5 0 0 0-12.258 10.048L150 600v87.5c0 6.905 5.596 12.5 12.5 12.5H200v287.5c0 6.905 5.596 12.5 12.5 12.5zM300 900h300V700H300z"/><path fill="#000" d="M900 725v-44.82c0-11.14-13.465-16.715-21.34-8.84l-69.82 69.82c-4.885 4.885-4.885 12.795 0 17.68l69.82 69.82c7.875 7.875 21.34 2.3 21.34-8.84V775c82.75 0 150 67.25 150 150 0 18.405-3.32 36.15-9.48 52.45-4.045 10.715-2.465 23.105 5.635 31.205 11.715 11.715 31.37 9.525 37.89-5.71C1094.27 979.04 1100 952.705 1100 925c0-110.5-89.5-200-200-200m0 350c-82.75 0-150-67.25-150-150 0-18.405 3.32-36.15 9.48-52.45 4.045-10.715 2.465-23.105-5.635-31.205-11.715-11.715-31.37-9.525-37.89 5.71C705.73 870.96 700 897.295 700 925c0 110.5 89.5 200 200 200v44.82c0 11.14 13.465 16.715 21.34 8.84l69.82-69.82c4.885-4.885 4.885-12.795 0-17.68l-69.82-69.82c-7.875-7.875-21.34-2.3-21.34 8.84z"/></svg>