<svg xmlns="http://www.w3.org/2000/svg" width="1200" height="1200" fill="none"><path fill="#000" d="M200 212.5c0-6.904 5.596-12.5 12.5-12.5h775c6.905 0 12.5 5.596 12.5 12.5v75c0 6.904-5.595 12.5-12.5 12.5h-775c-6.904 0-12.5-5.596-12.5-12.5z"/><path fill="#000" fill-rule="evenodd" d="M592.9 1000c8.065 0 14.01-7.525 12.54-15.455A327 327 0 0 1 600 925c0-179.495 145.505-325 325-325 44.295 0 86.52 8.86 125 24.91V600l-47.99-239.952A12.5 12.5 0 0 0 989.75 350H210.248a12.5 12.5 0 0 0-12.258 10.048L150 600v87.5c0 6.905 5.596 12.5 12.5 12.5H200v287.5c0 6.905 5.596 12.5 12.5 12.5zM300 900h300V700H300z"/><path fill="#000" d="M1077.325 815.705c5.425 9.395 19.43 7.89 22.735-2.445l24.925-77.99c2.245-7.025-2.045-14.455-9.245-16.02l-80.01-17.405c-10.6-2.31-18.905 9.065-13.48 18.465l17.12 29.655L759.715 911.42c-9.96 5.755-13.375 18.495-7.625 28.46 5.755 9.965 18.495 13.38 28.46 7.625l279.655-161.455z"/></svg>