<svg xmlns="http://www.w3.org/2000/svg" width="1200" height="1200" fill="none" viewBox="0 0 1200 1200"><path fill="#000" d="M200 212.5c0-6.904 5.596-12.5 12.5-12.5h775c6.905 0 12.5 5.596 12.5 12.5v75c0 6.904-5.595 12.5-12.5 12.5h-775c-6.904 0-12.5-5.596-12.5-12.5z"/><path fill="#000" fill-rule="evenodd" d="M592.9 1000c8.065 0 14.01-7.525 12.54-15.455A327 327 0 0 1 600 925c0-179.495 145.505-325 325-325 44.295 0 86.52 8.86 125 24.91V600l-47.99-239.952A12.5 12.5 0 0 0 989.75 350H210.248a12.5 12.5 0 0 0-12.258 10.048L150 600v87.5c0 6.905 5.596 12.5 12.5 12.5H200v287.5c0 6.905 5.596 12.5 12.5 12.5zM300 900h300V700H300z"/><path fill="#000" d="M1066.665 838.41c0 10.85 12.88 16.55 20.91 9.25l60.585-55.075c5.455-4.96 5.455-13.54 0-18.5l-60.585-55.075c-8.03-7.3-20.91-1.605-20.91 9.245V762.5H743.75c-11.505 0-20.835 9.325-20.835 20.835 0 11.505 9.33 20.83 20.835 20.83h322.915zM791.665 894.925c0-10.855-12.875-16.55-20.905-9.25l-60.585 55.075c-5.455 4.96-5.455 13.54 0 18.5l60.585 55.075c8.03 7.3 20.905 1.605 20.905-9.25v-34.24h322.92c11.505 0 20.83-9.33 20.83-20.835s-9.325-20.835-20.83-20.835h-322.92z"/></svg>