<svg xmlns="http://www.w3.org/2000/svg" width="1200" height="1200" fill="none" viewBox="0 0 1200 1200"><path fill="#000" d="M1000 550c55.23 0 100-44.77 100-100V250c0-55.228-44.77-100-100-100H850c-55.23 0-100 44.772-100 100v50H450v-50c0-55.228-44.771-100-100-100H200c-55.228 0-100 44.772-100 100v200c0 55.23 44.772 100 100 100h150c55.229 0 100-44.77 100-100v-50h100v400c0 55.23 44.77 100 100 100h100v50c0 55.23 44.77 100 100 100h150c55.23 0 100-44.77 100-100V750c0-55.23-44.77-100-100-100H850c-55.23 0-100 44.77-100 100v50H650V400h100v50c0 55.23 44.77 100 100 100z"/></svg>