<svg width="1200" height="1200" viewBox="0 0 1200 1200" fill="none" xmlns="http://www.w3.org/2000/svg"><g clip-path="url(#clip0_8207_23)"><path d="M300 137.5H684.475L962.5 415.527V1000C962.5 1015.285 958.08 1027.94 948.535 1039.305L944.09 1044.09C931.485 1056.7 917.475 1062.5 900 1062.5H300C284.714 1062.5 272.06 1058.08 260.693 1048.535L255.908 1044.09C243.302 1031.485 237.5 1017.475 237.5 1000V200C237.5 184.714 241.918 172.06 251.465 160.694L255.908 155.908C268.515 143.302 282.524 137.5 300 137.5ZM262.5 1037.5H937.5V412.5H687.5V162.5H262.5V1037.5ZM776.955 617.48L547.46 846.925L423.047 722.51L441.26 704.295L546.24 809.275L572.755 782.765L757.47 598L776.955 617.48Z" stroke="#1D1E23" stroke-width="75"/></g><defs><clipPath id="clip0_8207_23"><path width="24" fill="white" d="M0 0H1200V1200H0V0z"/></clipPath></defs></svg>