<svg xmlns="http://www.w3.org/2000/svg" width="1200" height="1200" fill="none"><g clip-path="url(#a)"><path fill="#1D1E23" fill-rule="evenodd" d="M975 1066.005c-1.4 1.56-2.86 3.105-4.375 4.62A115 115 0 0 1 966 1075q-27.945 24.999-66 25H300q-38.054-.001-66.002-25a116 116 0 0 1-8.998-8.995q-25-27.951-25-66.005V200q0-38.054 25-66.002a114 114 0 0 1 4.375-4.623 115 115 0 0 1 4.623-4.375q27.948-25 66.002-25h400l300 300v600q-.001 38.054-25 66.005M868.935 375 725 231.066V375zM830 617.5 757.5 545 546.25 756.25l-105-105L370 722.5 547.5 900z"/></g><defs><clipPath id="a"><path fill="#fff" d="M0 0h1200v1200H0z"/></clipPath></defs></svg>