<svg width="1200" height="1200" viewBox="0 0 1200 1200" fill="none" xmlns="http://www.w3.org/2000/svg"><path d="M900 569.82C900 580.96 913.465 586.535 921.34 578.66L1091.16 408.839C1096.045 403.958 1096.045 396.042 1091.16 391.161L921.34 221.339C913.465 213.464 900 219.041 900 230.178V350H200C172.386 350 150 372.386 150 400C150 427.614 172.386 450 200 450H900V569.82Z" fill="black"/><path d="M300 630.18C300 619.04 286.536 613.465 278.661 621.34L108.839 791.16C103.957 796.045 103.957 803.955 108.839 808.84L278.661 978.66C286.536 986.535 300 980.96 300 969.82V850H1000C1027.615 850 1050 827.615 1050 800C1050 772.385 1027.615 750 1000 750H300V630.18Z" fill="black"/></svg>