<svg xmlns="http://www.w3.org/2000/svg" width="1200" height="1200" fill="none" viewBox="0 0 1200 1200"><path fill="#000" fill-rule="evenodd" d="M898.43 223.544c21.12-25.288 17.745-62.913-7.545-84.036s-62.915-17.746-84.035 7.544l-87.045 104.21H155.554c-30.554 0-55.554 25-55.554 55.555v555.558c0 30.555 25 55.555 55.554 55.555h7.422l-24.732 29.61c-21.123 25.29-17.749 62.915 7.544 84.035 25.288 21.125 62.916 17.745 84.04-7.545zM255.78 806.815 627 362.373H211.109v444.442z"/><path fill="#000" d="M766.67 806.815H547.13L454.328 917.93h367.897c30.55 0 55.55-25 55.55-55.555V667.93l179.545 179.545c15.75 15.745 42.68 4.595 42.68-17.68V339.394c0-22.272-26.93-33.427-42.68-17.678L877.775 501.26v-90.308L766.67 543.975z"/></svg>