<svg width="1200" height="1200" viewBox="0 0 1200 1200" fill="none" xmlns="http://www.w3.org/2000/svg"><path fill-rule="evenodd" d="M898.43 223.544C919.55 198.256 916.175 160.631 890.885 139.508C865.595 118.385 827.97 121.762 806.85 147.052L719.805 251.262H155.554C125 251.262 100 276.262 100 306.817V862.375C100 892.93 125 917.93 155.554 917.93H162.976L138.244 947.54C117.121 972.83 120.495 1010.455 145.788 1031.575C171.076 1052.7 208.704 1049.32 229.828 1024.03L898.43 223.544ZM255.78 806.815L627 362.373H211.109V806.815H255.78Z" fill="black"/><path d="M766.67 806.815H547.13L454.328 917.93H822.225C852.775 917.93 877.775 892.93 877.775 862.375V667.93L1057.32 847.475C1073.07 863.22 1100 852.07 1100 829.795V339.394C1100 317.122 1073.07 305.967 1057.32 321.716L877.775 501.26V410.952L766.67 543.975V806.815Z" fill="black"/></svg>