<svg xmlns="http://www.w3.org/2000/svg" width="1200" height="1200" fill="none" viewBox="0 0 1200 1200"><path fill="#000" fill-rule="evenodd" d="M898.43 223.538c21.12-25.289 17.745-62.914-7.545-84.036-25.29-21.123-62.915-17.746-84.035 7.544l-87.045 104.209H155.554c-30.554 0-55.554 25-55.554 55.557v555.553c0 30.56 25 55.56 55.554 55.56h7.422l-24.732 29.61c-21.123 25.29-17.749 62.915 7.544 84.035 25.288 21.125 62.916 17.745 84.04-7.545zM255.78 806.81 627 362.367H211.109V806.81z"/><path fill="#000" d="M766.67 806.81H547.13l-92.802 111.115h367.897c30.55 0 55.55-25 55.55-55.56v-194.44l179.545 179.54c15.75 15.75 42.68 4.595 42.68-17.675V339.388c0-22.273-26.93-33.426-42.68-17.677L877.775 501.255v-90.308L766.67 543.97z"/></svg>