<svg viewBox="0 0 24 24" fill="none" xmlns="http://www.w3.org/2000/svg"><g><path fill-rule="evenodd" clip-rule="evenodd" d="M4.92786 1.28978C4.53726 0.899515 3.90024 0.897044 3.54689 1.32133C1.90788 3.28936 1 5.77779 1 8.3598C1 10.9417 1.90778 13.43 3.54661 15.3979C3.90005 15.8224 4.53731 15.8198 4.92786 15.4292L4.97181 15.3853C5.36232 14.9947 5.35722 14.3647 5.01275 13.933C3.75565 12.3576 3.06156 10.3942 3.06156 8.35916C3.06156 6.3243 3.75555 4.361 5.01247 2.78568C5.35703 2.35385 5.362 1.72353 4.97118 1.33306L4.92786 1.28978ZM19.0252 1.33907C18.6344 1.72953 18.6394 2.35986 18.9839 2.79169C20.2408 4.36701 20.9348 6.33031 20.9348 8.36517C20.9348 10.4002 20.2407 12.3636 18.9836 13.939C18.6392 14.3707 18.6341 15.0008 19.0246 15.3913L19.0685 15.4352C19.4591 15.8258 20.0963 15.8284 20.4498 15.404C22.0886 13.436 22.9964 10.9477 22.9964 8.36582C22.9964 5.7838 22.0885 3.29538 20.4495 1.32734C20.0961 0.903061 19.4591 0.90553 19.0685 1.29579L19.0252 1.33907ZM16.1521 4.20952C16.5426 3.81899 17.1827 3.81538 17.5125 4.2584C18.3904 5.43764 18.8726 6.87557 18.8726 8.3632C18.8726 9.85084 18.3904 11.2888 17.5125 12.468C17.1827 12.911 16.5426 12.9074 16.1521 12.5169L16.1081 12.4729C15.7176 12.0824 15.7283 11.4532 16.0298 10.9905C16.5353 10.2148 16.8103 9.30319 16.8103 8.3632C16.8103 7.42321 16.5353 6.51157 16.0298 5.73588C15.7283 5.27318 15.7176 4.64404 16.1081 4.25352L16.1521 4.20952ZM7.8444 4.20952C7.45387 3.81899 6.81375 3.81538 6.48396 4.2584C5.60612 5.43764 5.12393 6.87557 5.12393 8.3632C5.12393 9.85084 5.60612 11.2888 6.48396 12.468C6.81375 12.911 7.45387 12.9074 7.8444 12.5169L7.8884 12.4729C8.27892 12.0824 8.26819 11.4532 7.96666 10.9905C7.46116 10.2148 7.18613 9.30319 7.18613 8.3632C7.18613 7.42321 7.46116 6.51157 7.96666 5.73588C8.26819 5.27317 8.27892 4.64404 7.8884 4.25352L7.8444 4.20952ZM10.3246 6.18158C10.8047 5.8131 11.393 5.61334 11.9982 5.61324C12.6035 5.61334 13.1918 5.8131 13.6719 6.18158C14.152 6.55006 14.4972 7.06665 14.6539 7.65126C14.8105 8.23587 14.7699 8.85583 14.5383 9.41501C14.3068 9.97419 13.8972 10.4414 13.3731 10.7441V21.5834C13.3731 22.1357 12.9254 22.5834 12.3731 22.5834H11.6234C11.0711 22.5834 10.6234 22.1357 10.6234 21.5834V10.7441C10.0993 10.4414 9.6897 9.97419 9.45814 9.41501C9.22658 8.85583 9.18598 8.23587 9.34263 7.65126C9.49928 7.06665 9.84444 6.55006 10.3246 6.18158Z" fill="#1D1E23"/></g></svg>