<svg viewBox="0 0 24 24" fill="none" xmlns="http://www.w3.org/2000/svg"><g><path fill-rule="evenodd" clip-rule="evenodd" d="M5.6789 2.4608L5.67697 2.45886L5.6789 2.45694V2.4608ZM5.67697 2.45886L4.22068 1C2.15849 3.06263 1 5.8599 1 8.77659C1 11.6933 2.15849 14.4905 4.22068 16.5532L5.6789 15.095C4.00304 13.419 3.06156 11.146 3.06156 8.77595C3.06156 6.40678 4.00232 4.13461 5.67697 2.45886ZM19.7757 1.00215L18.3175 2.46294C19.9933 4.13888 20.9348 6.41188 20.9348 8.78196C20.9348 11.152 19.9933 13.425 18.3175 15.101L19.7757 16.5592C21.8379 14.4966 22.9964 11.6993 22.9964 8.78261C22.9964 5.86592 21.8379 3.06865 19.7757 1.00602V1.00215ZM15.401 5.3774L16.8592 3.91919C18.1483 5.20837 18.8726 6.95684 18.8726 8.77999C18.8726 10.6031 18.1483 12.3516 16.8592 13.6408L15.401 12.1826C16.3034 11.2801 16.8103 10.0562 16.8103 8.77999C16.8103 7.50378 16.3034 6.27983 15.401 5.3774ZM7.13728 3.91919C5.84815 5.20837 5.12393 6.95684 5.12393 8.77999C5.12393 10.6031 5.84815 12.3516 7.13728 13.6408L8.5955 12.1826C7.69309 11.2801 7.18613 10.0562 7.18613 8.77999C7.18613 7.50378 7.69309 6.27983 8.5955 5.3774L7.13728 3.91919ZM10.3246 6.59837C10.8047 6.22989 11.393 6.03012 11.9982 6.03003C12.6035 6.03012 13.1918 6.22989 13.6719 6.59837C14.152 6.96684 14.4972 7.48344 14.6539 8.06805C14.8105 8.65265 14.7699 9.27261 14.5383 9.8318C14.3068 10.391 13.8972 10.8581 13.3731 11.1609V23.0002H10.6234V11.1609C10.0993 10.8581 9.6897 10.391 9.45814 9.8318C9.22658 9.27261 9.18598 8.65265 9.34263 8.06805C9.49928 7.48344 9.84444 6.96684 10.3246 6.59837Z" fill="#1D1E23"/></g></svg>