<svg viewBox="0 0 24 24" fill="none" xmlns="http://www.w3.org/2000/svg"><g><path d="M20.0001 15.3101L21.9001 13.4101C22.6801 12.6301 22.6801 11.3601 21.9001 10.5801L20.0001 8.69014V6.00014C20.0001 4.90014 19.1001 4.00014 18.0001 4.00014H15.3101L13.4101 2.10014C12.6301 1.32014 11.3601 1.32014 10.5801 2.10014L8.69014 4.00014H6.00014C4.90014 4.00014 4.00014 4.90014 4.00014 6.00014V8.69014L2.10014 10.5901C1.32014 11.3701 1.32014 12.6401 2.10014 13.4201L4.00014 15.3201V18.0001C4.00014 19.1001 4.90014 20.0001 6.00014 20.0001H8.69014L10.5901 21.9001C11.3701 22.6801 12.6401 22.6801 13.4201 21.9001L15.3201 20.0001H18.0001C19.1001 20.0001 20.0001 19.1001 20.0001 18.0001V15.3101ZM12.0001 16.9001V7.10014C12.0001 6.49014 12.5501 5.99014 13.1501 6.11014C15.9101 6.65014 18.0001 9.08014 18.0001 12.0001C18.0001 14.9201 15.9101 17.3501 13.1501 17.8901C12.5501 18.0101 12.0001 17.5101 12.0001 16.9001Z" fill="#1D1E23"/></g></svg>