<svg viewBox="0 0 24 24" fill="none" xmlns="http://www.w3.org/2000/svg"><g><path fill-rule="evenodd" clip-rule="evenodd" d="M14.125 15.125H10.0625C8.98544 15.1238 7.95284 14.6953 7.19124 13.9338C6.42965 13.1722 6.00124 12.1396 6 11.0625V6.0625C6.00114 4.98541 6.42951 3.95275 7.19113 3.19113C7.95275 2.42951 8.98541 2.00114 10.0625 2H13.1875C14.2646 2.00124 15.2971 2.42965 16.0587 3.19125C16.8203 3.95285 17.2488 4.98544 17.25 6.0625V9.5L15.375 7.625V6.0625C15.3744 5.48253 15.1437 4.92649 14.7336 4.51639C14.3235 4.10629 13.7675 3.87562 13.1875 3.875H10.0625C9.48253 3.87562 8.92649 4.10629 8.51638 4.51639C8.10628 4.92649 7.87562 5.48253 7.875 6.0625V11.0625C7.87562 11.6425 8.10628 12.1985 8.51638 12.6086C8.92649 13.0187 9.48253 13.2494 10.0625 13.25H14.125V15.125ZM13.1875 22H10.0625C8.98544 21.9988 7.95284 21.5703 7.19124 20.8088C6.42965 20.0472 6.00124 19.0146 6 17.9375V14.5L7.875 16.375V17.9375C7.87562 18.5175 8.10628 19.0735 8.51638 19.4836C8.92649 19.8937 9.48253 20.1244 10.0625 20.125H13.1875C13.7675 20.1244 14.3235 19.8937 14.7336 19.4836C15.1437 19.0735 15.3744 18.5175 15.375 17.9375V12.9375C15.3744 12.3575 15.1437 11.8015 14.7336 11.3914C14.3235 10.9813 13.7675 10.7506 13.1875 10.75H9.125V8.875H13.1875C14.2646 8.87624 15.2971 9.30465 16.0587 10.0662C16.8203 10.8278 17.2488 11.8604 17.25 12.9375V17.9375C17.2487 19.0145 16.8202 20.0471 16.0586 20.8086C15.2971 21.5702 14.2645 21.9987 13.1875 22Z" fill="#1D1E23"/></g></svg>