<svg viewBox="0 0 24 24" fill="none" xmlns="http://www.w3.org/2000/svg"><g><path d="M7.2925 6.29376C6.9025 5.90376 6.2725 5.90376 5.8825 6.29376L1.2925 10.8838C0.9025 11.2738 0.9025 11.9038 1.2925 12.2938L5.8825 16.8838C6.2725 17.2738 6.9025 17.2738 7.2925 16.8838C7.6825 16.4938 7.6825 15.8638 7.2925 15.4738L3.4125 11.5838L7.2925 7.70376C7.6725 7.31376 7.6725 6.67376 7.2925 6.29376ZM15.8725 6.29376C15.4825 6.68376 15.4825 7.31376 15.8725 7.70376L19.7525 11.5838L15.8725 15.4638C15.4825 15.8538 15.4825 16.4838 15.8725 16.8738C16.2625 17.2638 16.8925 17.2638 17.2825 16.8738L21.8725 12.2838C22.2625 11.8938 22.2625 11.2638 21.8725 10.8738L17.2825 6.28376C16.9025 5.90376 16.2625 5.90376 15.8725 6.29376ZM7.5825 12.5838C8.1325 12.5838 8.5825 12.1338 8.5825 11.5838C8.5825 11.0338 8.1325 10.5838 7.5825 10.5838C7.0325 10.5838 6.5825 11.0338 6.5825 11.5838C6.5825 12.1338 7.0325 12.5838 7.5825 12.5838ZM11.5825 12.5838C12.1325 12.5838 12.5825 12.1338 12.5825 11.5838C12.5825 11.0338 12.1325 10.5838 11.5825 10.5838C11.0325 10.5838 10.5825 11.0338 10.5825 11.5838C10.5825 12.1338 11.0325 12.5838 11.5825 12.5838ZM15.5825 10.5838C15.0325 10.5838 14.5825 11.0338 14.5825 11.5838C14.5825 12.1338 15.0325 12.5838 15.5825 12.5838C16.1325 12.5838 16.5825 12.1338 16.5825 11.5838C16.5825 11.0338 16.1325 10.5838 15.5825 10.5838Z" fill="#1D1E23"/></g></svg>