<svg viewBox="0 0 24 24" fill="none" xmlns="http://www.w3.org/2000/svg"><g><path d="M18.5296 23L12.9574 8.92258C12.6137 8.05332 11.3835 8.05332 11.0393 8.92258L5.46709 23H18.5296ZM16.4499 21.625H9.75451L15.352 18.826L16.4499 21.625ZM11.9983 10.2739L14.6031 16.9161L10.6375 13.7437L11.9983 10.2739ZM10.112 15.0839L13.8237 18.053L7.75818 21.0857L10.112 15.0839ZM19.7757 16.5547L18.3182 15.098C19.1481 14.2681 19.8065 13.2828 20.2556 12.1985C20.7048 11.1141 20.936 9.95191 20.936 8.7782C20.936 7.6045 20.7048 6.44228 20.2556 5.35792C19.8065 4.27356 19.1481 3.28829 18.3182 2.45836L19.7757 1C21.8381 3.06283 22.9967 5.86037 22.9967 8.77734C22.9967 11.6943 21.8381 14.4919 19.7757 16.5547ZM5.67849 15.098L4.22099 16.5547C2.1586 14.4919 1 11.6943 1 8.77734C1 5.86037 2.1586 3.06283 4.22099 1L5.67935 2.45836C4.84941 3.28829 4.19106 4.27356 3.74189 5.35792C3.29273 6.44228 3.06154 7.6045 3.06154 8.7782C3.06154 9.95191 3.29273 11.1141 3.74189 12.1985C4.19106 13.2828 4.84941 14.2681 5.67935 15.098H5.67849ZM15.4015 5.37508L16.8598 3.91672C17.4983 4.55513 18.0047 5.31304 18.3502 6.14717C18.6958 6.98131 18.8736 7.87534 18.8736 8.7782C18.8736 9.68107 18.6958 10.5751 18.3502 11.4092C18.0047 12.2434 17.4983 13.0013 16.8598 13.6397L15.4015 12.1813C15.8484 11.7344 16.2029 11.2039 16.4448 10.62C16.6867 10.0361 16.8112 9.41023 16.8112 8.7782C16.8112 8.14618 16.6867 7.52034 16.4448 6.93643C16.2029 6.35251 15.8484 5.82197 15.4015 5.37508ZM5.12334 8.77734C5.12234 7.87448 5.2997 6.98031 5.64524 6.14618C5.99078 5.31205 6.49769 4.55439 7.13685 3.91672L8.59521 5.37508C8.14828 5.82197 7.79375 6.35251 7.55187 6.93643C7.30999 7.52034 7.18549 8.14618 7.18549 8.7782C7.18549 9.41023 7.30999 10.0361 7.55187 10.62C7.79375 11.2039 8.14828 11.7344 8.59521 12.1813L7.13685 13.6397C6.49748 13.0018 5.99045 12.2439 5.64491 11.4094C5.29937 10.575 5.12211 9.6805 5.12334 8.77734Z" fill="#1D1E23"/></g></svg>