<svg viewBox="0 0 24 24" fill="none" xmlns="http://www.w3.org/2000/svg"><g><path d="M18.5296 23L12.9574 8.92258C12.6137 8.05332 11.3835 8.05332 11.0393 8.92258L5.46709 23H18.5296ZM16.4499 21.625H9.75451L15.352 18.826L16.4499 21.625ZM11.9983 10.2739L14.6031 16.9161L10.6375 13.7437L11.9983 10.2739ZM10.112 15.0839L13.8237 18.053L7.75818 21.0857L10.112 15.0839ZM20.4496 15.8165C20.0962 16.2408 19.4591 16.2383 19.0685 15.8479L19.0257 15.8052C18.635 15.4147 18.64 14.7844 18.9845 14.3527C19.5061 13.699 19.9344 12.9741 20.2556 12.1985C20.7048 11.1141 20.936 9.95191 20.936 8.7782C20.936 7.6045 20.7048 6.44228 20.2556 5.35792C19.9343 4.58212 19.5059 3.85704 18.9841 3.20329C18.6397 2.7717 18.6346 2.14181 19.0249 1.75124L19.0685 1.7076C19.459 1.31685 20.0964 1.31415 20.4499 1.73868C22.0889 3.70682 22.9967 6.19529 22.9967 8.77734C22.9967 11.3596 22.0887 13.8482 20.4496 15.8165ZM5.01227 14.3526C5.35671 14.7844 5.36169 15.4147 4.97096 15.8052L4.92818 15.8479C4.53759 16.2383 3.90049 16.2408 3.5471 15.8165C1.90796 13.8482 1 11.3596 1 8.77734C1 6.19519 1.90789 3.70663 3.54692 1.73845C3.90036 1.31402 4.53762 1.31663 4.92818 1.70718L4.97224 1.75124C5.36277 2.14177 5.3577 2.77183 5.01322 3.20352C4.49157 3.85721 4.06321 4.58221 3.74189 5.35792C3.29273 6.44228 3.06154 7.6045 3.06154 8.7782C3.06154 9.95191 3.29273 11.1141 3.74189 12.1985C4.06315 12.9741 4.49099 13.699 5.01227 14.3526ZM16.0304 6.15032C15.7288 5.68763 15.7181 5.05847 16.1086 4.66794L16.1527 4.62381C16.5433 4.23329 17.1833 4.22965 17.5131 4.67264C17.8512 5.12671 18.1326 5.62182 18.3502 6.14717C18.6958 6.98131 18.8736 7.87534 18.8736 8.7782C18.8736 9.68107 18.6958 10.5751 18.3502 11.4092C18.1326 11.9346 17.8512 12.4297 17.5131 12.8838C17.1833 13.3268 16.5433 13.3231 16.1527 12.9326L16.1086 12.8885C15.7181 12.4979 15.7288 11.8688 16.0304 11.4061C16.1921 11.158 16.3309 10.8949 16.4448 10.62C16.6867 10.0361 16.8112 9.41023 16.8112 8.7782C16.8112 8.14618 16.6867 7.52034 16.4448 6.93643C16.3309 6.66151 16.1921 6.39842 16.0304 6.15032ZM5.12334 8.77734C5.12234 7.87448 5.2997 6.98031 5.64524 6.14618C5.86301 5.62048 6.14487 5.12516 6.48355 4.67111C6.81348 4.22877 7.45293 4.2328 7.84313 4.623L7.88807 4.66794C8.27861 5.05847 8.2679 5.68763 7.96632 6.15033C7.8046 6.39842 7.66575 6.66151 7.55187 6.93643C7.30999 7.52034 7.18549 8.14618 7.18549 8.7782C7.18549 9.41023 7.30999 10.0361 7.55187 10.62C7.66575 10.8949 7.8046 11.158 7.96632 11.4061C8.2679 11.8688 8.27861 12.4979 7.88807 12.8885L7.84313 12.9334C7.45293 13.3236 6.81348 13.3276 6.48355 12.8853C6.1447 12.431 5.86272 11.9354 5.64491 11.4094C5.29937 10.575 5.12211 9.6805 5.12334 8.77734Z" fill="#1D1E23"/></g></svg>