<svg viewBox="0 0 24 24" fill="none" xmlns="http://www.w3.org/2000/svg"><g><path fill-rule="evenodd" clip-rule="evenodd" d="M4.30949 11.8056C4.30949 14.2636 5.76211 16.6427 8.40057 18.505V18.5047C8.52812 18.5917 8.63706 18.7033 8.72107 18.8329C8.80507 18.9625 8.86246 19.1075 8.88988 19.2595C8.91731 19.4115 8.91422 19.5674 8.8808 19.7182C8.84738 19.869 8.7843 20.0116 8.69523 20.1378C8.60617 20.2639 8.49289 20.3711 8.36199 20.4531C8.2311 20.5351 8.08521 20.5902 7.93282 20.6152C7.78042 20.6402 7.62457 20.6347 7.47433 20.599C7.32409 20.5632 7.18247 20.4979 7.05771 20.4068C3.78296 18.0961 1.97998 15.0413 1.97998 11.8052C1.97998 8.56911 3.78414 5.51388 7.05771 3.20312C7.28165 3.04516 7.55413 2.97125 7.82719 2.9944C8.10026 3.01755 8.3564 3.13626 8.55056 3.32966L15.7672 10.5166C15.8755 10.6245 15.9615 10.7526 16.0203 10.8937C16.0791 11.0348 16.1095 11.1861 16.1098 11.339C16.1101 11.4919 16.0803 11.6433 16.0221 11.7846C15.9639 11.926 15.8784 12.0545 15.7705 12.1628C15.6626 12.2711 15.5345 12.3571 15.3934 12.4158C15.2523 12.4746 15.101 12.505 14.9481 12.5054C14.7953 12.5057 14.6438 12.4759 14.5025 12.4176C14.3611 12.3594 14.2327 12.274 14.1243 12.1661L7.62603 5.69472C5.48127 7.45709 4.30949 9.59988 4.30949 11.8056ZM16.0331 3.0074C16.3374 2.95492 16.65 3.02544 16.9023 3.20346C20.1762 5.51422 21.98 8.56985 21.98 11.8059C21.98 15.042 20.1762 18.0968 16.9023 20.4076C16.6785 20.5657 16.4061 20.6398 16.133 20.6167C15.86 20.5936 15.6039 20.4749 15.4098 20.2814L8.19317 13.0945C7.97438 12.8766 7.8511 12.5808 7.85044 12.272C7.84978 11.9633 7.9718 11.6669 8.18965 11.4481C8.40751 11.2293 8.70335 11.1061 9.0121 11.1054C9.32086 11.1048 9.61722 11.2268 9.83601 11.4446L16.3343 17.916C18.4791 16.154 19.6509 14.0112 19.6509 11.8055C19.6509 9.34712 18.1979 6.96802 15.5598 5.10567C15.3075 4.92764 15.1363 4.6567 15.0839 4.35246C15.0314 4.04821 15.1019 3.73557 15.2799 3.48333C15.4579 3.23108 15.7289 3.05989 16.0331 3.0074Z" fill="#1D1E23"/></g></svg>