<svg viewBox="0 0 24 24" fill="none" xmlns="http://www.w3.org/2000/svg"><g><path fill-rule="evenodd" clip-rule="evenodd" d="M12.0001 3.06333C13.174 3.06178 14.3366 3.29224 15.4212 3.74146C16.5057 4.19067 17.4908 4.84979 18.3198 5.68093L19.7781 4.2226C18.758 3.1996 17.5458 2.38827 16.2111 1.83523C14.8764 1.28219 13.4456 0.998349 12.0009 1.00001C10.5562 0.998349 9.12542 1.28219 7.79075 1.83523C6.45609 2.38827 5.24386 3.1996 4.22373 4.2226L5.68206 5.68093C6.51086 4.85 7.49567 4.191 8.57991 3.74179C9.66415 3.29258 10.8265 3.06201 12.0001 3.06333ZM3.83313 10.1526V12.5399C3.83684 12.7335 3.80057 12.9259 3.72657 13.1049C3.66002 13.2617 3.55932 13.4018 3.43181 13.5148C3.30135 13.6278 3.14891 13.7125 2.98409 13.7636C2.80035 13.8206 2.60886 13.8487 2.41648 13.8469C2.22339 13.8488 2.03118 13.8207 1.84673 13.7636C1.68178 13.7125 1.52919 13.6278 1.39857 13.5148C1.27132 13.4019 1.17115 13.2618 1.10553 13.1049C1.03239 12.9257 0.996567 12.7334 1.00026 12.5399V10.1513H1.76165V12.5399C1.76165 12.7816 1.81894 12.9581 1.93352 13.0692C2.0481 13.1804 2.20837 13.2358 2.41433 13.2355C2.62086 13.2355 2.78128 13.1801 2.89557 13.0692C3.00987 12.9584 3.06716 12.7819 3.06745 12.5399V10.1513L3.83313 10.1526ZM7.58007 13.8481H6.81868V12.2643H5.3337V13.8481H4.57231V10.1529H5.3337V11.6507H6.81868V10.1529H7.58007V13.8481ZM9.08165 12.3382H10.5426L10.5417 11.7234H9.08079V10.7699H10.7265V10.1529H8.32026V13.8481H9.08165V12.3382ZM13.6162 12.4968H13.0095V13.8494H12.2481V10.1541H13.6231C13.8168 10.1515 14.0098 10.176 14.1967 10.2268C14.353 10.2686 14.4992 10.3417 14.6264 10.4416C14.7426 10.5348 14.8348 10.6545 14.8954 10.7905C14.9605 10.9427 14.9924 11.1071 14.9891 11.2726C14.9908 11.3956 14.9755 11.5182 14.9435 11.637C14.9155 11.7392 14.8709 11.8362 14.8116 11.924C14.754 12.0076 14.6837 12.0817 14.6032 12.1436C14.5184 12.2081 14.4264 12.2626 14.3291 12.306L15.1287 13.8163V13.8515H14.3123L13.6162 12.4968ZM13.0095 11.8797H13.624C13.7131 11.8814 13.8018 11.8682 13.8865 11.8406C13.9566 11.8175 14.0209 11.7794 14.0747 11.7289C14.1246 11.6807 14.163 11.622 14.1873 11.557C14.2136 11.4851 14.2266 11.4089 14.2255 11.3323C14.2255 11.1582 14.176 11.0211 14.0769 10.9211C13.9777 10.8211 13.8259 10.7713 13.6214 10.7716H13.0095V11.8797ZM16.4256 12.3382H17.8865V11.7234H16.4256V10.7699H18.0704V10.1529H15.6642V13.8481H16.4256V12.3382ZM19.5027 13.8481H18.7413V10.1529H19.5027V13.8481ZM20.1748 10.153V13.8482L21.3049 13.8525C21.5402 13.8547 21.7737 13.8109 21.9923 13.7236C22.1946 13.6431 22.3775 13.5206 22.529 13.3644C22.6819 13.2049 22.8002 13.0157 22.8766 12.8084C22.9613 12.5782 23.0031 12.3344 22.9999 12.0891V11.9215C23.0031 11.6756 22.9608 11.4312 22.8753 11.2005C22.7986 10.993 22.6808 10.803 22.529 10.642C22.3788 10.4857 22.1972 10.363 21.9962 10.2819C21.7788 10.1943 21.5462 10.1505 21.3117 10.153H20.1748ZM20.9362 13.2368V10.7696L21.3113 10.7704C21.6112 10.7701 21.839 10.867 21.9945 11.0609C22.15 11.2548 22.2278 11.5396 22.2278 11.9151V12.087C22.2275 12.4559 22.1489 12.7398 21.9919 12.9386C21.8349 13.1374 21.6058 13.2368 21.3044 13.2368H20.9362ZM13.8422 7.55306C13.2582 7.3112 12.6321 7.18714 12 7.188C11.3679 7.18714 10.7419 7.3112 10.1578 7.55306C9.57383 7.79493 9.04337 8.14982 8.59695 8.59735L7.13862 7.13902C7.77639 6.49976 8.53417 5.9928 9.36844 5.64727C10.2027 5.30173 11.097 5.12443 12 5.12554C12.903 5.12443 13.7973 5.30173 14.6316 5.64727C15.4659 5.9928 16.2236 6.49976 16.8614 7.13902L15.4031 8.59735C14.9567 8.14982 14.4262 7.79493 13.8422 7.55306ZM12.0002 20.9378C10.8263 20.9393 9.66364 20.7089 8.57909 20.2596C7.49454 19.8104 6.50946 19.1513 5.68045 18.3202L4.22212 19.7785C5.2423 20.8014 6.45454 21.6127 7.7892 22.1657C9.12385 22.7188 10.5546 23.0027 11.9993 23.0011C13.444 23.0027 14.8748 22.7188 16.2094 22.1657C17.5441 21.6127 18.7563 20.8014 19.7765 19.7785L18.3182 18.3202C17.4894 19.1511 16.5046 19.8101 15.4203 20.2593C14.3361 20.7085 13.1738 20.9391 12.0002 20.9378ZM10.1578 16.4476C10.7418 16.6895 11.3679 16.8137 12 16.8129C12.6322 16.8137 13.2582 16.6895 13.8422 16.4476C14.4262 16.2057 14.9567 15.8507 15.4031 15.4031L16.8614 16.8619C16.2236 17.5011 15.4659 18.0081 14.6316 18.3536C13.7973 18.6992 12.903 18.8765 12 18.8754C11.097 18.8765 10.2027 18.6992 9.36844 18.3536C8.53417 18.0081 7.77639 17.5011 7.13862 16.8619L8.59695 15.4031C9.04334 15.8507 9.57379 16.2057 10.1578 16.4476Z" fill="#1D1E23"/></g></svg>