<svg viewBox="0 0 24 24" fill="none" xmlns="http://www.w3.org/2000/svg"><g><path fill-rule="evenodd" clip-rule="evenodd" d="M8.55306 9.27258V15.8002H7.01597V9.27258C7.01597 9.0777 6.93854 8.8908 6.80074 8.753C6.66294 8.6152 6.47604 8.53779 6.28116 8.53779C6.08628 8.53779 5.89938 8.6152 5.76158 8.753C5.62378 8.8908 5.54637 9.0777 5.54637 9.27258V15.8002H4.00627V9.27258C4.00627 9.0777 3.92884 8.8908 3.79104 8.753C3.65324 8.6152 3.46634 8.53779 3.27146 8.53779C3.07658 8.53779 2.88968 8.6152 2.75188 8.753C2.61408 8.8908 2.53667 9.0777 2.53667 9.27258V15.8002H1V9.27688V9.27258C0.999564 8.83493 1.12564 8.40649 1.36305 8.03883C1.60046 7.67117 1.93909 7.37997 2.33816 7.20029C2.73722 7.02062 3.17972 6.96012 3.61236 7.02608C4.04501 7.09205 4.44937 7.28167 4.77675 7.5721C5.10409 7.28161 5.50841 7.09195 5.94105 7.02595C6.3737 6.95996 6.81621 7.02046 7.21526 7.20015C7.61432 7.37984 7.95291 7.67108 8.19026 8.03877C8.42762 8.40646 8.55361 8.83494 8.55306 9.27258ZM10.7646 8.19916C10.7646 8.57408 10.4293 8.87505 10.0143 8.87505C9.60116 8.87462 9.26494 8.57021 9.26451 8.19658C9.26408 7.82294 9.59858 7.51768 10.0135 7.5194C10.4284 7.52112 10.7646 7.82423 10.7646 8.19916ZM15.9979 12.0241H14.9041C14.8848 12.0227 14.8668 12.0138 14.8539 11.9994C14.841 11.9849 14.8342 11.9661 14.8349 11.9467V9.32828C14.8345 8.54447 15.4042 7.76538 16.5651 7.76538C17.4692 7.76624 18.2088 8.26628 18.2088 9.02602V9.33128C18.2088 9.52348 17.9702 9.75995 17.6572 9.75866C17.3442 9.75737 17.0913 9.54669 17.0913 9.33644C17.0913 9.33644 17.13 8.83082 16.578 8.8493C16.2542 8.86091 16.0646 9.05181 16.0646 9.39578C16.0672 9.6099 16.0672 11.9489 16.0672 11.9489C16.0676 11.9584 16.0662 11.9679 16.063 11.9768C16.0597 11.9857 16.0547 11.994 16.0483 12.001C16.0418 12.008 16.0341 12.0136 16.0254 12.0176C16.0168 12.0216 16.0074 12.0238 15.9979 12.0241ZM22.0445 11.8201C21.6899 12.0587 21.2726 12.1869 20.8452 12.1886C20.5599 12.1903 20.277 12.1354 20.013 12.0272C19.749 11.9189 19.5091 11.7594 19.3071 11.5579C19.1052 11.3563 18.9451 11.1168 18.8363 10.853C18.7275 10.5892 18.672 10.3065 18.6731 10.0212C18.6738 9.59381 18.8012 9.17623 19.039 8.82114C19.2768 8.46604 19.6145 8.18934 20.0094 8.02593C20.4043 7.86251 20.8387 7.81972 21.2579 7.90294C21.6771 7.98617 22.0623 8.19168 22.3648 8.49355C22.6673 8.79542 22.8737 9.18013 22.9578 9.59914C23.0419 10.0182 23.0001 10.4527 22.8376 10.848C22.675 11.2432 22.399 11.5815 22.0445 11.8201ZM21.2627 9.39498C21.1381 9.31176 20.9916 9.26738 20.8418 9.26747C20.6418 9.26893 20.4503 9.34894 20.3087 9.49026C20.1672 9.63158 20.0869 9.82288 20.0851 10.0229C20.0847 10.1727 20.1288 10.3193 20.2118 10.4441C20.2948 10.5688 20.413 10.6661 20.5514 10.7237C20.6897 10.7812 20.842 10.7965 20.989 10.7674C21.136 10.7383 21.2711 10.6663 21.3771 10.5605C21.4832 10.4546 21.5554 10.3197 21.5847 10.1727C21.614 10.0258 21.5991 9.87342 21.5418 9.73497C21.4844 9.59653 21.3873 9.4782 21.2627 9.39498ZM16.4075 13.9081L16.6934 13.1028C17.2569 13.0997 17.5351 13.1071 17.9438 13.118L17.9438 13.118L17.944 13.118L17.9444 13.118C18.053 13.1209 18.1707 13.1241 18.3054 13.1273C18.4679 13.1329 18.7443 13.1548 19.0793 13.2017L17.7034 14.0586C17.4594 13.9978 17.211 13.9562 16.9605 13.9343C16.7452 13.913 16.6435 13.9118 16.5358 13.9106H16.5357C16.4959 13.9101 16.4551 13.9096 16.4075 13.9081ZM18.3641 14.3327C18.3768 14.3408 18.389 14.3495 18.4007 14.3589L20.7327 13.585C20.5562 13.5088 20.375 13.444 20.1901 13.3911L18.1719 14.2037C18.2385 14.2429 18.3027 14.2859 18.3641 14.3327ZM13.0841 12.0505H13.7991C14.2493 12.0505 14.417 11.7595 14.4174 11.3785C14.4178 10.9976 14.2325 10.6906 13.7725 10.6906H13.1684C13.0286 10.6906 12.5806 10.5745 12.5798 9.99878C12.5798 9.49659 13.0097 9.30655 13.1667 9.30784H13.8645C14.2016 9.30784 14.4127 8.99871 14.4118 8.61991C14.4109 8.24112 14.1598 7.95262 13.8473 7.95176H13.0454C12.4435 7.95176 11.2022 8.6513 11.2035 9.97256C11.2035 11.388 12.4796 12.0505 13.0841 12.0505ZM10.0179 9.07325C9.48258 9.07325 9.29942 9.30284 9.29942 9.60725L9.30156 11.9798C9.30222 11.9976 9.30976 12.0145 9.32257 12.0269C9.33539 12.0393 9.35251 12.0463 9.37036 12.0464L10.6637 12.049C10.6815 12.0486 10.6986 12.0414 10.7114 12.029C10.7242 12.0166 10.7319 11.9997 10.7329 11.9819C10.7329 11.9819 10.7307 9.72291 10.7303 9.63133C10.7307 9.30198 10.5502 9.07454 10.0179 9.07325ZM13.2692 14.8749C13.1467 14.8386 13.0044 14.7995 12.855 14.7584C12.2476 14.5914 11.5214 14.3917 11.5214 14.2137C11.5214 13.9567 12.1582 13.9407 12.6694 13.9279L12.6697 13.9279C12.7159 13.9267 12.7612 13.9256 12.8048 13.9243C13.3784 13.9084 15.6021 13.9054 15.6021 13.9054L15.8846 13.1048C15.8846 13.1048 14.2843 13.0618 12.6974 13.1396C10.4108 13.2544 9.9839 13.7609 9.93016 14.2459C9.86051 14.8784 10.7097 15.3157 11.2239 15.5113C11.3641 15.5649 11.5278 15.6145 11.6901 15.6637C12.0955 15.7866 12.4923 15.9068 12.4923 16.0797C12.4923 16.2766 12.199 16.2917 11.3563 16.2766C10.051 16.2538 8.95245 16.1223 8.95245 16.1223L8.43951 17.5385C8.43951 17.5385 9.68638 17.6245 11.0137 17.6245C11.1137 17.6245 11.2128 17.6247 11.3109 17.6249C13.0674 17.6285 14.4852 17.6315 14.7569 16.4469C14.9581 15.5616 14.1885 15.1467 13.2692 14.8749ZM18.5608 14.5167L21.3168 13.8224C21.7558 14.0373 22.1213 14.3117 22.3126 14.6625C22.4829 14.9729 22.4472 15.2932 22.2499 15.6063C20.7931 17.4151 17.1785 17.5423 15.4688 17.6024C15.3286 17.6073 15.2012 17.6118 15.0889 17.6167L15.7339 15.8058C16.1684 15.79 16.6013 15.7447 17.0297 15.6703C17.3327 15.6136 17.6292 15.5263 17.9146 15.4098C18.158 15.3061 18.3519 15.1858 18.4735 15.0628C18.5952 14.9398 18.6511 14.8074 18.6292 14.6784C18.6234 14.6443 18.6129 14.6111 18.5978 14.5799C18.5875 14.5578 18.5751 14.5366 18.5608 14.5167Z" fill="#1D1E23"/></g></svg>