<svg viewBox="0 0 24 24" fill="none" xmlns="http://www.w3.org/2000/svg"><g><path d="M18.0164 6.03175H15.1374V8.92659H15.9921V9.09203C15.9921 11.0789 13.6257 11.7733 12.157 12.9911V4.68034H13.5136L11.5696 1L9.59861 4.68034H10.9659V15.9715C9.48647 14.5724 7.13646 13.4668 7.13646 11.3784V10.6987C7.41592 10.578 7.65388 10.3781 7.82091 10.1236C7.98793 9.86917 8.07669 9.57132 8.07621 9.26693C8.07621 8.43933 7.40889 7.72905 6.55423 7.72905C6.14426 7.7271 5.75028 7.88798 5.45886 8.17634C5.16744 8.46471 5.00239 8.85696 5 9.26693C5 9.90288 5.3949 10.4477 5.95049 10.6987V11.2809C5.95049 15.3029 10.9659 16.0982 10.9659 18.3309V18.7959C10.5161 18.9209 10.1201 19.1908 9.83914 19.5636C9.55818 19.9365 9.40796 20.3916 9.41171 20.8584C9.41171 22.0439 10.3837 23 11.5696 23C12.7556 23 13.7422 22.0427 13.7422 20.8588C13.7413 20.3885 13.5854 19.9314 13.2987 19.5586C13.0119 19.1857 12.6102 18.9178 12.1557 18.7963V15.3351C12.1557 12.937 17.1832 12.9318 17.1832 9.0538V8.92489H18.0164V6.03175Z" fill="#1D1E23"/></g></svg>