<svg viewBox="0 0 2400 2400" fill="none" xmlns="http://www.w3.org/2000/svg"><path d="M269.985 307.677 C 230.643 310.532,200.891 324.308,167.546 355.110 C 140.870 379.752,123.567 405.267,111.118 438.323 C 102.616 460.895,102.195 467.694,102.100 584.000 C 102.045 651.100,103.489 714.741,105.309 725.424 C 109.175 748.122,131.841 775.675,157.353 788.690 C 178.974 799.721,221.090 799.721,242.468 788.692 C 262.726 778.239,285.714 753.623,291.675 736.000 C 294.279 728.300,298.143 690.598,300.261 652.218 C 304.652 572.661,307.313 559.671,323.909 536.760 C 347.469 504.236,309.425 506.960,796.000 502.964 C 1278.638 499.001,1969.062 501.697,2017.130 507.732 C 2067.086 514.004,2084.915 531.628,2092.869 582.595 C 2096.571 606.321,2097.769 757.279,2097.769 1200.000 C 2097.769 1803.794,2097.007 1835.658,2082.009 1858.547 C 2073.045 1872.229,2049.871 1888.374,2033.100 1892.622 C 2024.795 1894.726,1902.800 1898.071,1762.000 1900.057 C 1621.200 1902.042,1494.790 1904.780,1481.089 1906.142 C 1458.866 1908.350,1454.063 1910.519,1436.577 1926.241 C 1410.837 1949.383,1402.824 1966.895,1402.824 2000.000 C 1402.824 2032.718,1410.470 2049.732,1435.836 2073.460 C 1450.899 2087.549,1459.118 2092.002,1474.484 2094.399 C 1485.218 2096.073,1637.100 2097.568,1812.000 2097.721 C 2164.396 2098.030,2150.460 2098.972,2198.604 2071.586 C 2226.377 2055.788,2264.436 2014.221,2279.914 1982.782 C 2291.351 1959.548,2292.950 1951.660,2296.385 1901.525 C 2298.632 1868.729,2299.741 1561.095,2299.094 1150.000 L 2298.000 454.000 2283.065 422.721 C 2262.058 378.727,2229.502 345.717,2183.878 322.154 L 2148.729 304.000 1225.365 304.677 C 717.514 305.049,287.593 306.399,269.985 307.677 M726.000 703.498 C 546.616 706.303,553.299 705.191,526.311 736.720 C 507.571 758.614,500.000 785.012,500.000 828.456 C 500.000 861.269,500.564 863.635,509.000 866.234 C 539.146 875.520,623.592 911.500,670.804 935.172 C 808.571 1004.250,923.202 1087.118,1024.069 1190.554 C 1160.869 1330.838,1252.731 1476.080,1324.145 1665.000 L 1337.375 1700.000 1579.902 1700.000 L 1822.429 1700.000 1843.221 1689.639 C 1866.855 1677.862,1886.298 1656.549,1892.154 1636.000 C 1897.621 1616.817,1901.450 1060.647,1897.268 893.310 L 1893.951 760.620 1881.976 743.687 C 1864.369 718.792,1852.724 711.844,1821.632 707.683 C 1788.142 703.201,949.764 699.998,726.000 703.498 M177.459 1008.356 C 150.675 1016.119,126.652 1036.715,113.000 1063.621 C 96.155 1096.819,96.042 1114.801,112.470 1147.676 C 133.598 1189.959,141.406 1193.588,260.000 1216.262 C 351.890 1233.831,423.519 1257.891,506.000 1298.892 C 671.438 1381.131,815.999 1524.935,898.746 1689.579 C 943.135 1777.903,963.422 1839.488,987.958 1960.400 C 996.262 2001.320,1006.169 2041.363,1009.976 2049.384 C 1018.437 2067.214,1042.564 2085.552,1069.207 2094.401 C 1110.403 2108.084,1160.624 2084.752,1182.000 2042.000 C 1192.620 2020.761,1193.922 2014.319,1193.318 1986.000 C 1191.351 1893.767,1143.572 1731.322,1082.034 1607.640 C 1019.520 1481.998,954.965 1397.772,834.553 1284.749 C 684.983 1144.358,475.357 1045.764,255.307 1012.314 C 195.081 1003.159,195.346 1003.172,177.459 1008.356 M155.707 1419.910 C 121.095 1438.207,95.969 1485.188,101.684 1520.925 C 106.531 1551.237,125.898 1578.550,152.000 1591.885 C 159.700 1595.819,193.000 1607.535,226.000 1617.922 C 326.893 1649.677,397.890 1692.624,461.802 1760.563 C 520.627 1823.094,551.944 1879.339,583.987 1980.000 C 607.205 2052.941,617.858 2071.342,645.744 2086.680 C 693.939 2113.187,755.515 2091.646,781.689 2039.121 C 794.782 2012.846,794.900 1992.036,782.229 1943.268 C 727.125 1731.186,603.005 1573.602,416.000 1478.302 C 306.026 1422.258,197.371 1397.884,155.707 1419.910 M100.000 1950.000 L 100.000 2100.000 250.552 2100.000 L 401.105 2100.000 398.536 2074.931 C 386.790 1960.276,311.867 1861.953,205.478 1821.572 C 179.523 1811.720,128.771 1800.446,109.000 1800.140 L 100.000 1800.000 100.000 1950.000 " fill="#1D1E23" stroke="none" fill-rule="evenodd"/></svg>