<svg viewBox="0 0 2400 2400" fill="none" xmlns="http://www.w3.org/2000/svg"><path d="M656.000 307.864 L 242.000 310.000 219.347 321.479 C 175.606 343.644,138.859 380.671,119.583 422.000 C 102.656 458.294,98.472 501.657,101.248 612.000 C 104.245 731.085,106.808 744.064,132.215 768.781 C 154.772 790.727,175.481 797.834,208.290 794.889 C 250.238 791.123,283.486 764.271,291.579 727.622 C 293.719 717.930,298.288 680.300,301.733 644.000 C 308.611 571.526,312.824 551.745,325.049 534.547 C 341.060 512.021,346.368 511.353,538.000 507.724 C 772.225 503.289,1793.203 503.361,1931.011 507.823 C 2056.699 511.892,2063.014 513.425,2080.000 544.000 L 2090.000 562.000 2091.060 1197.287 C 2092.095 1817.046,2091.932 1832.999,2084.414 1849.996 C 2073.723 1874.165,2052.063 1887.761,2017.267 1892.144 C 2002.270 1894.034,1896.400 1897.526,1782.000 1899.905 C 1667.600 1902.284,1548.365 1905.265,1517.033 1906.529 L 1460.065 1908.828 1442.013 1922.613 C 1432.084 1930.194,1420.215 1943.737,1415.638 1952.709 C 1404.964 1973.632,1401.540 2006.928,1407.773 2029.191 C 1414.342 2052.651,1440.367 2082.516,1459.197 2088.203 C 1490.053 2097.521,1951.377 2103.326,2087.764 2096.112 C 2155.103 2092.550,2158.417 2091.970,2183.114 2079.435 C 2226.088 2057.622,2279.353 1998.025,2288.494 1961.526 C 2296.512 1929.511,2299.564 1691.832,2299.779 1082.867 L 2300.000 455.734 2289.522 434.867 C 2262.522 381.096,2230.533 348.370,2175.668 318.389 L 2149.336 304.000 1609.668 304.864 C 1312.851 305.340,883.700 306.690,656.000 307.864 M754.000 707.767 C 594.481 709.622,559.994 711.015,550.141 716.000 C 533.701 724.317,509.387 760.622,504.267 784.498 C 499.391 807.233,498.679 851.731,503.080 858.649 C 504.707 861.205,534.678 875.452,569.683 890.309 C 839.379 1004.769,1035.913 1165.003,1184.965 1391.950 C 1225.011 1452.923,1289.100 1577.688,1318.108 1651.143 L 1337.515 1700.286 1583.758 1699.143 C 1860.306 1697.859,1838.759 1700.301,1871.634 1666.524 C 1888.928 1648.754,1889.330 1647.729,1892.541 1613.203 C 1897.418 1560.772,1901.588 1007.479,1898.106 874.922 L 1895.083 759.845 1877.021 739.756 C 1867.087 728.707,1854.244 717.287,1848.480 714.376 C 1840.040 710.115,1751.183 708.740,1392.000 707.310 C 1146.700 706.333,859.600 706.539,754.000 707.767 M161.084 1016.088 C 151.780 1020.854,138.493 1031.216,131.558 1039.115 C 117.261 1055.398,100.098 1089.841,100.039 1102.364 C 99.970 1117.114,111.128 1148.312,122.172 1164.248 C 136.123 1184.380,156.780 1193.972,212.468 1206.180 C 361.689 1238.889,406.472 1253.009,490.923 1293.972 C 639.476 1366.029,753.160 1464.912,845.057 1602.000 C 911.188 1700.652,951.001 1799.644,985.819 1952.000 C 1007.606 2047.333,1015.120 2063.303,1047.257 2082.576 C 1058.791 2089.493,1074.450 2096.320,1082.055 2097.746 C 1112.600 2103.477,1157.425 2079.555,1177.614 2046.750 C 1187.581 2030.554,1189.730 2022.305,1191.159 1994.750 C 1197.396 1874.482,1106.361 1621.018,1004.843 1476.000 C 958.107 1409.238,846.586 1291.107,782.000 1239.950 C 676.999 1156.780,540.572 1086.943,403.028 1045.955 C 347.117 1029.293,257.179 1011.766,216.000 1009.508 C 182.428 1007.666,176.029 1008.433,161.084 1016.088 M166.480 1416.934 C 133.263 1425.724,103.429 1469.950,103.429 1510.400 C 103.429 1536.503,119.526 1569.019,139.055 1582.364 C 145.788 1586.964,181.604 1602.036,218.648 1615.856 C 337.234 1660.099,391.062 1691.362,449.852 1750.140 C 512.382 1812.655,543.507 1866.217,584.460 1981.779 C 596.111 2014.657,611.124 2049.655,617.822 2059.551 C 663.794 2127.475,776.684 2094.173,790.359 2008.654 C 797.823 1961.978,739.714 1803.384,683.863 1718.000 C 643.778 1656.717,593.556 1602.463,531.316 1553.203 C 450.298 1489.082,332.057 1433.816,242.459 1418.192 C 202.552 1411.233,188.879 1411.006,166.480 1416.934 M100.000 1949.625 L 100.000 2100.000 250.570 2100.000 L 401.140 2100.000 398.649 2076.171 C 394.868 2039.995,370.496 1969.567,351.995 1941.351 C 302.200 1865.411,219.224 1815.387,121.000 1802.092 L 100.000 1799.249 100.000 1949.625 " fill="#1D1E23" stroke="none" fill-rule="evenodd"/></svg>