<svg viewBox="0 0 2400 2400" fill="none" xmlns="http://www.w3.org/2000/svg"><path d="M100.000 550.000 L 100.000 800.000 200.000 800.000 L 300.000 800.000 300.000 650.000 L 300.000 500.000 1200.000 500.000 L 2100.000 500.000 2100.000 1200.000 L 2100.000 1900.000 1750.000 1900.000 L 1400.000 1900.000 1400.000 2000.000 L 1400.000 2100.000 1850.000 2100.000 L 2300.000 2100.000 2300.000 1200.000 L 2300.000 300.000 1200.000 300.000 L 100.000 300.000 100.000 550.000 M500.000 781.469 L 500.000 862.938 535.000 876.068 C 628.455 911.127,746.526 972.441,835.806 1032.278 C 950.243 1108.974,1073.506 1231.348,1161.879 1356.000 C 1219.204 1436.858,1276.405 1544.771,1318.248 1651.000 L 1337.548 1700.000 1618.774 1700.000 L 1900.000 1700.000 1900.000 1200.000 L 1900.000 700.000 1200.000 700.000 L 500.000 700.000 500.000 781.469 M100.000 1098.827 L 100.000 1198.798 152.263 1203.572 C 341.859 1220.892,494.241 1276.058,632.000 1377.249 C 680.900 1413.169,786.831 1519.100,822.751 1568.000 C 923.942 1705.759,979.108 1858.141,996.428 2047.737 L 1001.202 2100.000 1100.601 2100.000 L 1200.000 2100.000 1199.997 2077.000 C 1199.992 2041.536,1192.694 1970.848,1183.789 1920.000 C 1151.941 1738.152,1073.727 1559.230,968.715 1428.000 C 925.650 1374.184,809.140 1258.945,762.997 1224.527 C 661.580 1148.880,524.858 1080.556,405.938 1046.094 C 337.125 1026.153,224.479 1007.243,141.000 1001.619 L 100.000 998.856 100.000 1098.827 M100.000 1499.550 L 100.000 1599.100 141.000 1604.019 C 270.264 1619.527,363.284 1663.452,450.144 1750.000 C 537.604 1837.145,578.753 1925.251,596.326 2063.000 L 601.047 2100.000 701.125 2100.000 L 801.203 2100.000 798.644 2060.951 C 778.733 1757.136,563.719 1498.013,269.973 1423.826 C 231.095 1414.007,136.573 1400.020,109.000 1400.005 L 100.000 1400.000 100.000 1499.550 M100.000 1950.000 L 100.000 2100.000 250.000 2100.000 L 400.000 2100.000 399.990 2085.000 C 399.974 2062.075,381.532 1997.309,366.103 1966.000 C 325.195 1882.983,245.779 1825.512,144.648 1805.739 C 94.416 1795.918,100.000 1777.875,100.000 1950.000 " fill="#1D1E23" stroke="none" fill-rule="evenodd"/></svg>