<svg viewBox="0 0 2400 2400" fill="none" xmlns="http://www.w3.org/2000/svg"><path d="M100.000 550.000 L 100.000 800.000 200.000 800.000 L 300.000 800.000 300.000 650.000 L 300.000 500.000 1200.000 500.000 L 2100.000 500.000 2100.000 1200.000 L 2100.000 1900.000 1750.000 1900.000 L 1400.000 1900.000 1400.000 2000.000 L 1400.000 2100.000 1850.000 2100.000 L 2300.000 2100.000 2300.000 1200.000 L 2300.000 300.000 1200.000 300.000 L 100.000 300.000 100.000 550.000 M100.000 1098.846 L 100.000 1198.861 145.000 1201.609 C 373.858 1215.581,578.097 1306.313,735.892 1464.108 C 893.687 1621.903,984.419 1826.142,998.391 2055.000 L 1001.139 2100.000 1101.178 2100.000 L 1201.217 2100.000 1198.550 2046.854 C 1187.385 1824.375,1111.917 1616.493,976.911 1436.334 C 939.443 1386.335,836.007 1279.522,789.906 1243.225 C 601.761 1095.089,388.165 1014.300,151.000 1001.569 L 100.000 998.831 100.000 1098.846 M100.000 1499.193 L 100.000 1598.386 147.000 1603.148 C 207.570 1609.284,259.874 1623.527,310.372 1647.635 C 367.817 1675.059,408.297 1703.569,452.364 1747.636 C 536.430 1831.701,584.786 1933.899,596.852 2053.000 L 601.614 2100.000 701.415 2100.000 L 801.216 2100.000 798.699 2059.000 C 788.043 1885.390,717.628 1729.583,593.972 1606.000 C 535.022 1547.085,487.053 1512.445,414.000 1476.034 C 352.415 1445.339,303.530 1427.783,247.034 1416.071 C 210.470 1408.490,139.961 1400.000,113.576 1400.000 L 100.000 1400.000 100.000 1499.193 M100.000 1949.483 L 100.000 2100.000 250.000 2100.000 L 400.000 2100.000 400.000 2085.831 C 400.000 2063.392,388.684 2014.509,376.635 1984.902 C 335.880 1884.754,237.590 1812.524,127.275 1801.654 L 100.000 1798.966 100.000 1949.483 " fill="#1D1E23" stroke="none" fill-rule="evenodd"/></svg>