<svg viewBox="0 0 2400 2400" fill="none" xmlns="http://www.w3.org/2000/svg"><path d="M478.000 303.910 L 246.000 306.000 214.898 321.199 C 155.807 350.077,113.296 406.533,103.568 469.050 C 101.071 485.095,99.929 542.864,100.759 611.050 C 102.319 739.067,103.049 743.037,129.803 769.021 C 151.775 790.359,169.854 797.761,200.000 797.761 C 230.146 797.761,248.225 790.359,270.197 769.021 C 294.160 745.747,296.921 734.763,300.106 650.000 C 303.286 565.413,305.561 556.328,330.454 528.822 C 343.284 514.645,349.844 510.882,368.000 507.283 C 397.306 501.474,1829.380 497.944,1952.015 503.379 C 2042.466 507.387,2049.113 508.753,2069.357 527.489 C 2089.550 546.178,2092.539 556.860,2096.235 623.549 C 2100.742 704.875,2100.742 1695.125,2096.235 1776.451 C 2092.449 1844.764,2089.256 1855.485,2067.144 1874.130 C 2038.119 1898.603,2050.823 1897.547,1752.000 1900.311 C 1555.134 1902.131,1473.705 1904.206,1462.745 1907.681 C 1445.117 1913.269,1420.156 1937.368,1409.563 1959.025 C 1399.692 1979.207,1399.692 2020.793,1409.563 2040.975 C 1420.084 2062.485,1445.029 2086.669,1462.745 2092.533 C 1482.045 2098.921,2075.792 2102.536,2125.177 2096.566 C 2190.568 2088.660,2248.195 2047.095,2278.346 1986.089 C 2292.951 1956.536,2293.690 1953.063,2296.932 1898.657 C 2298.789 1867.496,2299.789 1530.600,2299.154 1150.000 L 2298.000 458.000 2288.375 434.000 C 2267.128 381.023,2234.162 345.654,2182.797 320.723 L 2150.000 304.805 1430.000 303.312 C 1034.000 302.491,605.600 302.760,478.000 303.910 M628.000 703.770 C 554.115 706.266,550.819 707.415,522.437 740.573 C 505.772 760.042,500.000 782.914,500.000 829.476 L 500.000 862.559 557.000 883.995 C 715.573 943.628,885.116 1051.545,1004.107 1168.584 C 1143.760 1305.946,1249.174 1466.371,1315.990 1643.222 L 1337.609 1700.444 1581.804 1699.222 L 1826.000 1698.000 1844.824 1688.728 C 1868.294 1677.168,1886.101 1657.259,1892.832 1635.053 C 1900.395 1610.098,1900.395 789.902,1892.832 764.947 C 1886.883 745.321,1868.195 722.375,1850.857 713.409 C 1842.689 709.185,1819.114 706.130,1776.451 703.765 C 1709.479 700.054,737.892 700.058,628.000 703.770 M168.691 1011.621 C 156.338 1015.887,140.777 1025.430,131.665 1034.327 C 114.680 1050.912,100.000 1083.880,100.000 1105.437 C 100.000 1138.296,123.595 1177.509,152.124 1192.063 C 160.567 1196.370,190.543 1203.583,218.737 1208.091 C 428.774 1241.676,595.394 1324.377,735.412 1464.541 C 873.116 1602.389,954.931 1764.721,989.927 1969.537 C 995.522 2002.282,1003.419 2036.575,1007.475 2045.745 C 1016.694 2066.587,1039.722 2085.130,1067.783 2094.308 C 1086.171 2100.323,1092.618 2100.683,1111.389 2096.746 C 1152.708 2088.079,1183.325 2058.327,1192.329 2018.093 C 1196.280 2000.438,1195.894 1988.297,1190.081 1947.389 C 1163.061 1757.243,1078.783 1562.173,959.672 1414.083 C 922.448 1367.803,828.174 1274.038,783.211 1238.574 C 632.088 1119.381,447.846 1040.196,256.000 1011.984 C 191.234 1002.460,195.167 1002.477,168.691 1011.621 M169.681 1413.437 C 108.425 1433.393,81.576 1508.774,116.788 1561.935 C 133.113 1586.581,152.051 1596.575,218.065 1615.379 C 248.900 1624.163,288.446 1637.874,305.945 1645.848 C 385.106 1681.923,465.385 1750.681,514.522 1824.490 C 546.643 1872.740,566.162 1917.044,585.651 1985.941 C 602.531 2045.618,613.184 2066.189,635.058 2081.347 C 675.619 2109.456,725.348 2103.675,762.561 2066.526 C 801.379 2027.775,801.191 1991.034,761.579 1875.052 C 711.792 1729.279,622.042 1610.760,496.000 1524.344 C 386.458 1449.239,226.578 1394.901,169.681 1413.437 M100.000 1949.534 L 100.000 2100.000 250.000 2100.000 L 400.000 2100.000 400.000 2088.352 C 400.000 2081.945,397.464 2063.495,394.364 2047.352 C 368.755 1913.979,262.268 1816.445,126.374 1801.892 L 100.000 1799.068 100.000 1949.534 " fill="#1D1E23" stroke="none" fill-rule="evenodd"/></svg>