<svg viewBox="0 0 2400 2400" fill="none" xmlns="http://www.w3.org/2000/svg"><path d="M656.000 307.864 L 242.000 310.000 219.347 321.479 C 175.606 343.644,138.859 380.671,119.583 422.000 C 102.656 458.294,98.472 501.657,101.248 612.000 C 104.245 731.085,106.808 744.064,132.215 768.781 C 154.772 790.727,175.481 797.834,208.290 794.889 C 250.238 791.123,283.486 764.271,291.579 727.622 C 293.719 717.930,298.288 680.300,301.733 644.000 C 308.611 571.526,312.824 551.745,325.049 534.547 C 341.060 512.021,346.368 511.353,538.000 507.724 C 772.225 503.289,1793.203 503.361,1931.011 507.823 C 2056.699 511.892,2063.014 513.425,2080.000 544.000 L 2090.000 562.000 2091.060 1197.287 C 2092.095 1817.046,2091.932 1832.999,2084.414 1849.996 C 2073.723 1874.165,2052.063 1887.761,2017.267 1892.144 C 2002.270 1894.034,1896.400 1897.526,1782.000 1899.905 C 1667.600 1902.284,1548.365 1905.265,1517.033 1906.529 L 1460.065 1908.828 1442.013 1922.613 C 1432.084 1930.194,1420.215 1943.737,1415.638 1952.709 C 1404.964 1973.632,1401.540 2006.928,1407.773 2029.191 C 1414.342 2052.651,1440.367 2082.516,1459.197 2088.203 C 1490.053 2097.521,1951.377 2103.326,2087.764 2096.112 C 2155.103 2092.550,2158.417 2091.970,2183.114 2079.435 C 2226.088 2057.622,2279.353 1998.025,2288.494 1961.526 C 2296.512 1929.511,2299.564 1691.832,2299.779 1082.867 L 2300.000 455.734 2289.522 434.867 C 2262.522 381.096,2230.533 348.370,2175.668 318.389 L 2149.336 304.000 1609.668 304.864 C 1312.851 305.340,883.700 306.690,656.000 307.864 M161.084 1016.088 C 151.780 1020.854,138.493 1031.216,131.558 1039.115 C 117.261 1055.398,100.098 1089.841,100.039 1102.364 C 99.970 1117.114,111.128 1148.312,122.172 1164.248 C 136.123 1184.380,156.780 1193.972,212.468 1206.180 C 361.689 1238.889,406.472 1253.009,490.923 1293.972 C 639.476 1366.029,753.160 1464.912,845.057 1602.000 C 911.188 1700.652,951.001 1799.644,985.819 1952.000 C 1007.606 2047.333,1015.120 2063.303,1047.257 2082.576 C 1058.791 2089.493,1074.450 2096.320,1082.055 2097.746 C 1112.600 2103.477,1157.425 2079.555,1177.614 2046.750 C 1187.581 2030.554,1189.730 2022.305,1191.159 1994.750 C 1197.396 1874.482,1106.361 1621.018,1004.843 1476.000 C 958.107 1409.238,846.586 1291.107,782.000 1239.950 C 676.999 1156.780,540.572 1086.943,403.028 1045.955 C 347.117 1029.293,257.179 1011.766,216.000 1009.508 C 182.428 1007.666,176.029 1008.433,161.084 1016.088 M166.480 1416.934 C 133.263 1425.724,103.429 1469.950,103.429 1510.400 C 103.429 1536.503,119.526 1569.019,139.055 1582.364 C 145.788 1586.964,181.604 1602.036,218.648 1615.856 C 337.234 1660.099,391.062 1691.362,449.852 1750.140 C 512.382 1812.655,543.507 1866.217,584.460 1981.779 C 596.111 2014.657,611.124 2049.655,617.822 2059.551 C 663.794 2127.475,776.684 2094.173,790.359 2008.654 C 797.823 1961.978,739.714 1803.384,683.863 1718.000 C 643.778 1656.717,593.556 1602.463,531.316 1553.203 C 450.298 1489.082,332.057 1433.816,242.459 1418.192 C 202.552 1411.233,188.879 1411.006,166.480 1416.934 M103.901 1810.260 C 101.637 1816.216,100.000 1879.145,100.000 1960.260 L 100.000 2100.000 250.570 2100.000 L 401.140 2100.000 398.584 2075.549 C 395.139 2042.585,371.102 1972.153,353.291 1942.834 C 314.999 1879.797,245.107 1831.433,161.542 1810.146 C 112.241 1797.587,108.717 1797.594,103.901 1810.260 " fill="#1D1E23" stroke="none" fill-rule="evenodd"/></svg>