<svg viewBox="0 0 2400 2400" fill="none" xmlns="http://www.w3.org/2000/svg"><path d="M100.000 550.000 L 100.000 800.000 200.000 800.000 L 300.000 800.000 300.000 650.000 L 300.000 500.000 1200.000 500.000 L 2100.000 500.000 2100.000 1200.000 L 2100.000 1900.000 1750.000 1900.000 L 1400.000 1900.000 1400.000 2000.000 L 1400.000 2100.000 1850.000 2100.000 L 2300.000 2100.000 2300.000 1200.000 L 2300.000 300.000 1200.000 300.000 L 100.000 300.000 100.000 550.000 M100.000 1098.883 L 100.000 1198.904 139.000 1201.541 C 331.027 1214.525,493.940 1272.992,640.000 1381.341 C 688.825 1417.560,782.440 1511.175,818.659 1560.000 C 927.008 1706.060,985.475 1868.973,998.459 2061.000 L 1001.096 2100.000 1100.548 2100.000 L 1200.000 2100.000 1200.000 2073.886 C 1200.000 2059.524,1197.246 2021.552,1193.881 1989.505 C 1173.782 1798.112,1109.094 1625.085,998.256 1466.252 C 945.209 1390.234,837.906 1279.322,764.622 1224.760 C 580.350 1087.565,381.459 1015.930,145.000 1001.590 L 100.000 998.861 100.000 1098.883 M100.000 1499.348 L 100.000 1598.696 143.931 1603.460 C 285.699 1618.837,397.241 1678.417,486.545 1786.467 C 548.925 1861.942,584.146 1948.136,596.274 2055.000 L 601.381 2100.000 701.279 2100.000 L 801.178 2100.000 798.498 2058.546 C 790.217 1930.452,752.253 1819.068,679.561 1709.593 C 641.269 1651.924,550.870 1560.604,496.152 1524.316 C 425.718 1477.606,342.520 1439.975,270.000 1422.026 C 230.453 1412.239,144.396 1400.000,115.119 1400.000 L 100.000 1400.000 100.000 1499.348 M100.000 1949.483 L 100.000 2100.000 250.000 2100.000 L 400.000 2100.000 399.972 2085.000 C 399.937 2066.277,387.188 2012.384,376.198 1984.503 C 337.899 1887.337,237.189 1814.055,125.000 1801.716 L 100.000 1798.967 100.000 1949.483 " fill="#1D1E23" stroke="none" fill-rule="evenodd"/></svg>