<svg viewBox="0 0 2400 2400" fill="none" xmlns="http://www.w3.org/2000/svg"><path d="M100.000 550.000 L 100.000 800.000 200.000 800.000 L 300.000 800.000 300.000 650.000 L 300.000 500.000 1200.000 500.000 L 2100.000 500.000 2100.000 1200.000 L 2100.000 1900.000 1750.000 1900.000 L 1400.000 1900.000 1400.000 2000.000 L 1400.000 2100.000 1850.000 2100.000 L 2300.000 2100.000 2300.000 1200.000 L 2300.000 300.000 1200.000 300.000 L 100.000 300.000 100.000 550.000 M100.000 1099.484 L 100.000 1198.968 137.000 1201.702 C 335.574 1216.376,506.296 1278.605,646.602 1387.454 C 692.060 1422.719,777.281 1507.940,812.546 1553.398 C 921.395 1693.704,983.624 1864.426,998.298 2063.000 L 1001.032 2100.000 1101.132 2100.000 L 1201.232 2100.000 1198.615 2049.000 C 1187.084 1824.274,1102.068 1594.045,969.301 1428.000 C 933.230 1382.889,838.698 1286.107,794.940 1249.491 C 683.925 1156.594,523.049 1074.983,378.066 1038.013 C 301.579 1018.509,174.013 1000.235,113.000 1000.041 L 100.000 1000.000 100.000 1099.484 M100.000 1498.843 L 100.000 1598.836 143.000 1603.869 C 275.802 1619.411,369.684 1664.916,458.151 1756.623 C 539.752 1841.211,580.916 1931.311,596.299 2059.000 L 601.238 2100.000 701.208 2100.000 L 801.178 2100.000 798.419 2057.322 C 788.492 1903.781,728.198 1758.424,626.963 1643.979 C 546.373 1552.873,460.511 1492.317,349.775 1448.487 C 287.207 1423.723,216.317 1408.374,133.000 1401.552 L 100.000 1398.850 100.000 1498.843 M100.000 1949.539 L 100.000 2100.000 250.000 2100.000 L 400.000 2100.000 400.000 2084.438 C 400.000 2061.761,381.701 1994.980,367.823 1967.008 C 323.216 1877.102,230.157 1814.293,123.000 1801.767 L 100.000 1799.078 100.000 1949.539 " fill="#1D1E23" stroke="none" fill-rule="evenodd"/></svg>