<svg viewBox="0 0 2400 2400" fill="none" xmlns="http://www.w3.org/2000/svg"><path d="M461.908 307.902 L 241.816 310.000 214.142 323.627 C 177.429 341.707,138.552 380.594,120.651 417.145 C 102.453 454.300,98.519 497.827,101.773 626.000 C 104.649 739.299,106.720 748.010,136.934 773.871 C 158.329 792.185,174.958 797.188,208.193 795.310 C 240.026 793.511,261.842 781.066,281.036 753.756 C 293.007 736.723,294.140 729.795,303.815 614.466 C 309.774 543.434,324.194 519.020,364.416 511.861 C 402.655 505.054,1306.577 499.202,1680.000 503.344 C 2047.726 507.422,2048.123 507.448,2070.348 528.327 C 2075.513 533.179,2082.948 546.341,2086.869 557.575 C 2093.591 576.829,2094.000 613.421,2094.000 1196.000 C 2094.000 1535.900,2092.541 1822.541,2090.758 1832.981 C 2086.910 1855.507,2073.342 1873.030,2050.497 1884.980 C 2032.069 1894.618,1995.769 1896.212,1634.958 1903.221 L 1463.916 1906.543 1447.070 1918.383 C 1418.946 1938.149,1406.504 1959.705,1404.690 1991.807 C 1402.763 2025.913,1408.011 2042.342,1428.134 2065.202 C 1455.362 2096.135,1442.755 2094.784,1732.000 2097.767 C 1876.262 2099.254,2026.632 2098.791,2073.095 2096.716 C 2154.415 2093.084,2156.721 2092.741,2181.095 2080.669 C 2213.820 2064.460,2242.663 2038.611,2265.357 2005.154 C 2300.443 1953.430,2297.486 2024.659,2299.036 1193.871 L 2300.409 457.743 2284.321 425.871 C 2258.174 374.070,2226.733 343.685,2169.133 314.554 L 2148.266 304.000 1415.133 304.902 C 1011.910 305.398,582.959 306.748,461.908 307.902 M589.148 707.881 C 569.759 709.655,552.104 713.633,546.068 717.587 C 530.895 727.530,512.717 754.629,505.961 777.381 C 498.544 802.354,497.915 858.226,505.000 862.649 C 507.750 864.366,530.700 874.113,556.000 884.309 C 825.896 993.075,1028.873 1156.250,1184.367 1389.460 C 1229.362 1456.944,1285.174 1565.325,1316.329 1645.718 L 1337.365 1700.000 1580.842 1700.000 C 1816.699 1700.000,1824.811 1699.749,1840.053 1691.973 C 1859.076 1682.268,1882.884 1659.158,1888.831 1644.625 C 1896.110 1626.835,1900.739 1345.265,1898.688 1045.060 L 1896.769 764.119 1881.635 743.503 C 1871.599 729.831,1860.355 720.044,1848.251 714.444 L 1830.000 706.000 1226.000 705.438 C 893.800 705.129,607.216 706.228,589.148 707.881 M179.974 1007.619 C 146.113 1018.319,116.016 1048.558,105.258 1082.686 C 99.403 1101.260,99.145 1107.019,103.448 1123.170 C 110.457 1149.487,126.344 1175.106,141.316 1184.239 C 157.143 1193.894,181.724 1200.952,238.000 1212.001 C 339.966 1232.021,410.562 1254.133,485.265 1289.449 C 667.479 1375.590,816.403 1522.992,906.030 1705.913 C 939.134 1773.475,962.724 1845.149,983.733 1942.000 C 992.800 1983.800,1003.002 2026.514,1006.404 2036.919 C 1014.320 2061.131,1041.430 2085.739,1069.310 2094.019 C 1094.147 2101.394,1093.848 2101.396,1119.654 2093.732 C 1145.254 2086.130,1171.887 2062.877,1183.645 2037.861 C 1212.068 1977.393,1166.000 1781.180,1084.128 1614.000 C 1028.695 1500.808,982.304 1435.264,892.000 1342.552 C 860.100 1309.801,818.508 1269.997,799.574 1254.098 C 656.481 1133.946,472.502 1050.438,276.000 1016.450 C 215.077 1005.912,192.070 1003.796,179.974 1007.619 M166.000 1416.244 C 133.371 1425.821,102.432 1470.332,102.159 1508.086 C 101.964 1535.146,115.445 1563.812,136.305 1580.696 C 145.300 1587.976,174.126 1600.354,214.287 1614.180 C 342.138 1658.196,408.118 1699.238,475.902 1776.910 C 525.040 1833.216,552.129 1884.621,585.708 1985.275 C 609.841 2057.619,622.470 2077.031,654.055 2090.335 C 707.531 2112.859,772.765 2078.120,788.672 2018.645 C 792.993 2002.490,792.715 1994.718,786.786 1965.912 C 767.886 1874.094,716.106 1757.708,662.253 1686.000 C 603.302 1607.503,529.146 1542.463,442.706 1493.440 C 340.403 1435.422,217.488 1401.131,166.000 1416.244 M100.000 1949.485 L 100.000 2100.000 250.552 2100.000 L 401.105 2100.000 398.346 2073.000 C 395.159 2041.806,376.214 1982.152,361.189 1956.000 C 311.874 1870.166,226.757 1815.489,121.000 1801.706 L 100.000 1798.969 100.000 1949.485 " fill="#1D1E23" stroke="none" fill-rule="evenodd"/></svg>