<svg viewBox="0 0 2400 2400" fill="none" xmlns="http://www.w3.org/2000/svg"><path d="M462.000 207.887 L 242.000 210.000 214.966 222.806 C 165.250 246.356,123.618 295.735,109.068 348.411 C 102.450 372.372,102.000 413.833,102.000 1000.000 C 102.000 1583.329,102.476 1627.722,108.984 1651.260 C 112.825 1665.153,120.833 1684.953,126.780 1695.260 C 144.351 1725.715,183.354 1761.267,217.957 1778.369 C 248.121 1793.277,249.770 1793.603,309.338 1796.480 C 342.702 1798.092,511.750 1799.543,685.000 1799.705 L 1000.000 1800.000 1000.000 1899.404 L 1000.000 1998.808 943.000 2001.615 C 873.303 2005.046,857.096 2008.871,836.096 2026.846 C 810.415 2048.828,802.936 2067.229,804.619 2104.293 C 805.839 2131.147,807.668 2137.684,818.127 2152.565 C 824.780 2162.031,837.975 2175.227,847.449 2181.888 L 864.675 2194.000 1032.337 2197.237 C 1124.552 2199.017,1275.448 2199.017,1367.663 2197.237 L 1535.325 2194.000 1552.551 2181.888 C 1562.025 2175.227,1575.227 2162.023,1581.888 2152.547 C 1592.568 2137.355,1594.151 2131.456,1595.273 2102.659 C 1596.460 2072.204,1595.746 2068.753,1584.693 2051.524 C 1570.257 2029.020,1551.311 2014.130,1530.000 2008.541 C 1521.200 2006.233,1488.350 2003.099,1457.000 2001.576 L 1400.000 1998.808 1400.000 1899.404 L 1400.000 1800.000 1715.000 1799.705 C 1888.250 1799.543,2057.298 1798.092,2090.662 1796.480 C 2150.360 1793.597,2151.818 1793.306,2182.367 1778.208 C 2236.572 1751.419,2279.977 1699.218,2292.652 1645.573 C 2296.015 1631.344,2297.704 1452.876,2298.841 991.868 L 2300.405 357.736 2284.320 325.868 C 2258.174 274.070,2226.731 243.685,2169.133 214.554 L 2148.266 204.000 1415.133 204.887 C 1011.910 205.375,583.000 206.725,462.000 207.887 M2046.000 414.864 C 2083.440 435.606,2087.007 442.311,2092.915 503.065 C 2099.037 566.014,2099.225 1430.360,2093.131 1496.915 C 2088.077 1552.119,2082.422 1564.449,2054.127 1581.949 L 2034.644 1594.000 1816.322 1596.528 C 1535.524 1599.779,864.476 1599.779,583.678 1596.528 L 365.356 1594.000 346.063 1582.000 C 315.936 1563.262,312.377 1556.121,308.155 1505.948 C 301.935 1432.028,299.462 1077.936,302.988 765.984 L 306.334 469.968 315.652 450.720 C 321.566 438.503,330.889 427.550,341.174 420.736 C 356.163 410.806,361.455 409.827,411.689 407.690 C 441.560 406.419,817.900 405.519,1248.000 405.690 L 2030.000 406.000 2046.000 414.864 " fill="#1D1E23" stroke="none" fill-rule="evenodd"/></svg>