<svg viewBox="0 0 2400 2400" fill="none" xmlns="http://www.w3.org/2000/svg"><path d="M100.000 1000.000 L 100.000 1800.000 550.000 1800.000 L 1000.000 1800.000 1000.000 1900.000 L 1000.000 2000.000 900.000 2000.000 L 800.000 2000.000 800.000 2100.000 L 800.000 2200.000 1200.000 2200.000 L 1600.000 2200.000 1600.000 2100.000 L 1600.000 2000.000 1500.000 2000.000 L 1400.000 2000.000 1400.000 1900.000 L 1400.000 1800.000 1850.000 1800.000 L 2300.000 1800.000 2300.000 1000.000 L 2300.000 200.000 1200.000 200.000 L 100.000 200.000 100.000 1000.000 M2100.000 1000.000 L 2100.000 1600.000 1200.000 1600.000 L 300.000 1600.000 300.000 1000.000 L 300.000 400.000 1200.000 400.000 L 2100.000 400.000 2100.000 1000.000 " fill="#1D1E23" stroke="none" fill-rule="evenodd"/></svg>