<svg viewBox="0 0 2400 2400" fill="none" xmlns="http://www.w3.org/2000/svg"><path d="M268.000 202.654 C 247.328 205.992,209.274 221.524,189.052 234.877 C 147.077 262.593,114.625 310.264,104.420 359.197 C 98.181 389.114,98.181 1610.886,104.420 1640.803 C 120.053 1715.765,184.235 1779.947,259.197 1795.580 C 273.761 1798.617,392.973 1800.000,640.197 1800.000 L 1000.000 1800.000 1000.000 1900.000 L 1000.000 2000.000 942.713 2000.000 C 874.096 2000.000,854.632 2005.158,829.895 2029.895 C 790.768 2069.021,790.768 2130.979,829.895 2170.105 C 861.040 2201.250,845.562 2200.000,1200.000 2200.000 C 1554.438 2200.000,1538.960 2201.250,1570.105 2170.105 C 1609.232 2130.979,1609.232 2069.021,1570.105 2029.895 C 1545.368 2005.158,1525.904 2000.000,1457.287 2000.000 L 1400.000 2000.000 1400.000 1900.000 L 1400.000 1800.000 1759.803 1800.000 C 2007.027 1800.000,2126.239 1798.617,2140.803 1795.580 C 2215.765 1779.947,2279.947 1715.765,2295.580 1640.803 C 2301.819 1610.886,2301.819 389.114,2295.580 359.197 C 2281.788 293.062,2234.082 238.710,2166.000 211.568 L 2142.000 202.000 1210.000 201.520 C 697.400 201.256,273.500 201.766,268.000 202.654 M2034.017 406.625 C 2045.651 410.589,2060.290 420.080,2070.465 430.255 C 2101.879 461.669,2100.000 425.412,2100.000 1000.000 C 2100.000 1574.588,2101.879 1538.331,2070.465 1569.745 C 2037.509 1602.702,2115.240 1600.000,1200.000 1600.000 C 285.628 1600.000,362.428 1602.639,329.895 1570.105 C 297.894 1538.104,300.000 1578.270,300.000 1000.000 C 300.000 421.598,297.881 461.908,329.967 429.823 C 361.698 398.091,285.841 400.669,1198.287 400.316 C 1948.108 400.026,2016.158 400.539,2034.017 406.625 " fill="#1D1E23" stroke="none" fill-rule="evenodd"/></svg>