<svg viewBox="0 0 2400 2400" fill="none" xmlns="http://www.w3.org/2000/svg"><path d="M100.000 1200.000 L 100.000 2000.000 400.000 2000.000 L 700.000 2000.000 700.000 1900.000 L 700.000 1800.000 500.000 1800.000 L 300.000 1800.000 300.000 1200.000 L 300.000 600.000 1200.000 600.000 L 2100.000 600.000 2100.000 500.000 L 2100.000 400.000 1100.000 400.000 L 100.000 400.000 100.000 1200.000 M1500.000 1400.000 L 1500.000 2000.000 1900.000 2000.000 L 2300.000 2000.000 2300.000 1400.000 L 2300.000 800.000 1900.000 800.000 L 1500.000 800.000 1500.000 1400.000 M2100.000 1400.000 L 2100.000 1800.000 1900.000 1800.000 L 1700.000 1800.000 1700.000 1400.000 L 1700.000 1000.000 1900.000 1000.000 L 2100.000 1000.000 2100.000 1400.000 M900.000 1289.188 L 900.000 1378.376 883.710 1394.188 C 833.814 1442.621,800.000 1525.757,800.000 1600.000 C 800.000 1674.243,833.814 1757.379,883.710 1805.812 L 900.000 1821.624 900.000 1910.812 L 900.000 2000.000 1100.000 2000.000 L 1300.000 2000.000 1300.000 1911.613 L 1300.000 1823.227 1323.665 1797.400 C 1350.488 1768.128,1374.851 1724.098,1388.628 1680.000 C 1402.084 1636.927,1402.084 1563.073,1388.628 1520.000 C 1374.851 1475.902,1350.488 1431.872,1323.665 1402.600 L 1300.000 1376.773 1300.000 1288.387 L 1300.000 1200.000 1100.000 1200.000 L 900.000 1200.000 900.000 1289.188 M1164.357 1465.021 C 1192.378 1478.730,1221.276 1507.658,1235.130 1535.867 C 1244.861 1555.681,1246.000 1562.400,1246.000 1600.000 C 1246.000 1637.600,1244.861 1644.319,1235.130 1664.133 C 1206.113 1723.217,1140.261 1758.133,1077.205 1747.871 C 1030.004 1740.189,986.189 1707.623,965.123 1664.566 C 951.357 1636.430,947.964 1587.929,957.473 1555.220 C 969.453 1514.011,1007.703 1474.021,1049.344 1459.171 C 1080.749 1447.972,1135.166 1450.739,1164.357 1465.021 " fill="#1D1E23" stroke="none" fill-rule="evenodd"/></svg>