<svg viewBox="0 0 2400 2400" fill="none" xmlns="http://www.w3.org/2000/svg"><path d="M100.000 1200.000 L 100.000 2000.000 400.000 2000.000 L 700.000 2000.000 700.000 1900.000 L 700.000 1800.000 500.000 1800.000 L 300.000 1800.000 300.000 1200.000 L 300.000 600.000 1200.000 600.000 L 2100.000 600.000 2100.000 500.000 L 2100.000 400.000 1100.000 400.000 L 100.000 400.000 100.000 1200.000 M1500.000 1400.000 L 1500.000 2000.000 1900.000 2000.000 L 2300.000 2000.000 2300.000 1400.000 L 2300.000 800.000 1900.000 800.000 L 1500.000 800.000 1500.000 1400.000 M2100.000 1400.000 L 2100.000 1800.000 1900.000 1800.000 L 1700.000 1800.000 1700.000 1400.000 L 1700.000 1000.000 1900.000 1000.000 L 2100.000 1000.000 2100.000 1400.000 M900.000 1288.387 L 900.000 1376.773 876.198 1402.749 C 849.896 1431.453,820.647 1485.997,810.105 1526.000 C 788.992 1606.118,804.191 1692.865,852.044 1765.358 C 862.443 1781.111,877.487 1800.203,885.475 1807.785 L 900.000 1821.569 900.000 1910.785 L 900.000 2000.000 1100.000 2000.000 L 1300.000 2000.000 1300.000 1911.561 L 1300.000 1823.122 1320.037 1801.198 C 1346.827 1771.885,1370.361 1731.380,1385.271 1688.917 C 1396.623 1656.590,1397.532 1649.995,1397.532 1600.000 C 1397.532 1550.005,1396.623 1543.410,1385.271 1511.083 C 1370.361 1468.620,1346.827 1428.115,1320.037 1398.802 L 1300.000 1376.878 1300.000 1288.439 L 1300.000 1200.000 1100.000 1200.000 L 900.000 1200.000 900.000 1288.387 M1162.142 1465.550 C 1190.637 1478.596,1216.180 1502.924,1231.438 1531.552 C 1243.374 1553.945,1244.000 1557.357,1244.000 1600.000 C 1244.000 1642.643,1243.374 1646.055,1231.438 1668.448 C 1173.885 1776.429,1020.963 1774.189,967.000 1664.574 C 954.892 1639.981,954.013 1635.416,954.189 1598.084 C 954.357 1562.324,955.571 1555.695,965.439 1536.639 C 986.187 1496.573,1026.312 1463.502,1063.996 1455.409 C 1089.674 1449.895,1139.101 1455.002,1162.142 1465.550 " fill="#1D1E23" stroke="none" fill-rule="evenodd"/></svg>