<svg viewBox="0 0 2400 2400" fill="none" xmlns="http://www.w3.org/2000/svg"><path d="M700.000 350.000 L 700.000 600.000 800.000 600.000 L 900.000 600.000 900.000 500.000 L 900.000 400.000 1400.000 400.000 L 1900.000 400.000 1900.000 1200.000 L 1900.000 2000.000 1400.000 2000.000 L 900.000 2000.000 900.000 1900.000 L 900.000 1800.000 800.000 1800.000 L 700.000 1800.000 700.000 2050.000 L 700.000 2300.000 1400.000 2300.000 L 2100.000 2300.000 2100.000 1200.000 L 2100.000 100.000 1400.000 100.000 L 700.000 100.000 700.000 350.000 M681.322 702.781 C 673.946 704.218,671.939 708.792,667.954 733.236 C 660.997 775.913,647.660 837.073,643.677 844.563 C 641.757 848.172,625.295 861.222,607.093 873.562 L 574.000 895.999 516.000 873.956 C 484.100 861.832,451.470 850.838,443.490 849.524 C 429.843 847.276,428.273 848.171,417.089 864.567 C 402.460 886.012,332.950 1006.122,318.221 1035.405 C 312.300 1047.178,308.328 1059.086,309.396 1061.869 C 310.464 1064.651,335.750 1086.519,365.589 1110.464 L 419.840 1154.000 419.920 1200.576 L 420.000 1247.153 361.765 1293.848 L 303.531 1340.544 310.927 1353.272 C 314.995 1360.272,343.307 1409.501,373.843 1462.668 L 429.362 1559.337 455.681 1549.835 C 470.156 1544.608,502.485 1532.250,527.522 1522.371 L 573.043 1504.410 595.522 1519.642 C 607.885 1528.020,625.281 1538.576,634.180 1543.100 L 650.360 1551.326 657.576 1604.663 C 661.545 1633.998,666.662 1667.450,668.948 1679.000 L 673.104 1700.000 799.729 1700.000 L 926.353 1700.000 937.471 1637.753 C 943.586 1603.517,950.397 1570.317,952.608 1563.975 C 955.369 1556.055,967.619 1544.916,991.729 1528.403 L 1026.831 1504.361 1072.416 1522.347 C 1097.487 1532.239,1129.857 1544.613,1144.349 1549.845 L 1170.697 1559.358 1226.939 1460.679 C 1298.393 1335.308,1293.713 1344.893,1287.278 1337.090 C 1284.375 1333.571,1259.050 1311.957,1231.000 1289.060 L 1180.000 1247.428 1180.000 1200.621 L 1180.000 1153.815 1227.000 1115.278 C 1252.850 1094.082,1278.191 1072.258,1283.314 1066.778 C 1294.584 1054.724,1299.665 1066.217,1225.159 935.238 L 1171.255 840.476 1140.627 851.820 C 1123.782 858.059,1091.555 870.535,1069.011 879.545 L 1028.022 895.927 1001.011 879.533 C 968.650 859.891,956.399 849.232,951.454 836.419 C 948.536 828.857,928.000 711.350,928.000 702.214 C 928.000 699.677,694.497 700.213,681.322 702.781 M847.653 1010.165 C 942.568 1032.538,1008.125 1130.848,993.054 1228.211 C 979.116 1318.257,906.785 1388.070,816.927 1398.205 C 745.721 1406.237,667.502 1362.112,624.703 1289.767 L 608.000 1261.535 608.000 1200.000 L 608.000 1138.465 623.598 1112.233 C 653.513 1061.921,691.719 1028.149,737.270 1011.751 C 763.070 1002.463,811.997 1001.761,847.653 1010.165 " fill="#1D1E23" stroke="none" fill-rule="evenodd"/></svg>