<svg viewBox="0 0 2400 2400" fill="none" xmlns="http://www.w3.org/2000/svg"><path d="M100.000 1200.000 L 100.000 2000.000 400.000 2000.000 L 700.000 2000.000 700.000 1900.000 L 700.000 1800.000 500.000 1800.000 L 300.000 1800.000 300.000 1200.000 L 300.000 600.000 1200.000 600.000 L 2100.000 600.000 2100.000 500.000 L 2100.000 400.000 1100.000 400.000 L 100.000 400.000 100.000 1200.000 M1500.000 1400.000 L 1500.000 2000.000 1900.000 2000.000 L 2300.000 2000.000 2300.000 1400.000 L 2300.000 800.000 1900.000 800.000 L 1500.000 800.000 1500.000 1400.000 M2100.000 1400.000 L 2100.000 1800.000 1900.000 1800.000 L 1700.000 1800.000 1700.000 1400.000 L 1700.000 1000.000 1900.000 1000.000 L 2100.000 1000.000 2100.000 1400.000 M900.000 1289.252 L 900.000 1378.503 887.649 1390.252 C 868.860 1408.125,834.334 1462.646,822.029 1493.874 C 791.715 1570.811,794.998 1648.182,831.925 1727.094 C 845.212 1755.489,873.046 1796.342,889.567 1811.697 L 900.000 1821.395 900.000 1910.697 L 900.000 2000.000 1100.000 2000.000 L 1300.000 2000.000 1300.000 1911.588 L 1300.000 1823.175 1317.000 1804.199 C 1340.577 1777.883,1374.654 1719.216,1384.472 1688.042 C 1400.698 1636.523,1400.698 1563.477,1384.472 1511.958 C 1374.654 1480.784,1340.577 1422.117,1317.000 1395.801 L 1300.000 1376.825 1300.000 1288.412 L 1300.000 1200.000 1100.000 1200.000 L 900.000 1200.000 900.000 1289.252 M1161.003 1466.980 C 1185.750 1478.144,1219.843 1510.631,1232.205 1534.829 C 1240.932 1551.910,1241.994 1559.016,1241.946 1600.000 C 1241.896 1643.196,1241.186 1647.281,1230.303 1667.013 C 1214.028 1696.523,1190.321 1718.928,1160.000 1733.455 C 1137.194 1744.382,1129.823 1745.913,1100.000 1745.913 C 1070.177 1745.913,1062.806 1744.382,1040.000 1733.455 C 1009.715 1718.945,986.018 1696.567,969.643 1667.013 C 958.600 1647.083,958.000 1643.527,958.000 1598.000 C 958.000 1554.405,958.883 1548.532,967.621 1534.000 C 986.262 1503.000,1022.030 1471.171,1050.000 1460.690 C 1070.309 1453.080,1138.794 1456.961,1161.003 1466.980 " fill="#1D1E23" stroke="none" fill-rule="evenodd"/></svg>