<svg viewBox="0 0 2400 2400" fill="none" xmlns="http://www.w3.org/2000/svg"><path d="M700.000 350.000 L 700.000 600.000 800.000 600.000 L 900.000 600.000 900.000 500.000 L 900.000 400.000 1400.000 400.000 L 1900.000 400.000 1900.000 1200.000 L 1900.000 2000.000 1400.000 2000.000 L 900.000 2000.000 900.000 1900.000 L 900.000 1800.000 800.000 1800.000 L 700.000 1800.000 700.000 2050.000 L 700.000 2300.000 1400.000 2300.000 L 2100.000 2300.000 2100.000 1200.000 L 2100.000 100.000 1400.000 100.000 L 700.000 100.000 700.000 350.000 M694.000 702.940 C 685.200 703.817,676.714 705.790,675.143 707.325 C 673.571 708.859,668.511 729.889,663.898 754.057 C 645.640 849.711,646.869 847.368,597.979 879.753 L 573.957 895.664 515.979 874.256 C 438.607 845.687,434.463 844.927,423.086 857.219 C 412.282 868.893,328.148 1013.430,315.647 1041.794 L 306.923 1061.588 322.462 1074.824 C 331.008 1082.104,356.425 1102.897,378.944 1121.030 L 419.889 1154.000 419.944 1200.576 L 420.000 1247.153 361.765 1293.848 L 303.531 1340.544 310.929 1353.272 C 314.998 1360.272,343.278 1409.512,373.774 1462.694 L 429.221 1559.388 455.610 1549.860 C 470.125 1544.620,502.485 1532.250,527.522 1522.371 L 573.043 1504.410 595.522 1519.642 C 607.885 1528.020,625.256 1538.563,634.125 1543.072 L 650.250 1551.270 657.470 1604.635 C 661.441 1633.986,666.584 1667.450,668.897 1679.000 L 673.104 1700.000 799.912 1700.000 L 926.719 1700.000 931.774 1671.000 C 945.991 1589.451,952.853 1561.693,960.933 1553.050 C 965.535 1548.128,982.238 1535.156,998.051 1524.225 L 1026.802 1504.349 1072.401 1522.341 C 1097.480 1532.236,1129.855 1544.613,1144.345 1549.844 L 1170.689 1559.355 1227.078 1460.639 C 1258.092 1406.345,1285.351 1356.967,1287.654 1350.910 C 1291.732 1340.184,1290.390 1338.695,1235.920 1293.512 L 1180.000 1247.126 1180.059 1200.563 L 1180.117 1154.000 1233.059 1109.878 C 1271.314 1077.996,1286.321 1063.017,1287.156 1055.878 C 1288.927 1040.734,1174.448 841.533,1165.037 843.384 C 1161.166 844.145,1128.505 856.326,1092.455 870.451 L 1026.910 896.134 1006.455 883.288 C 971.109 861.091,956.676 848.174,952.360 834.878 C 950.062 827.795,943.652 796.014,938.117 764.252 C 932.582 732.491,925.791 705.069,923.027 703.314 C 918.065 700.163,725.014 699.848,694.000 702.940 M840.524 1009.761 C 906.488 1023.743,960.850 1072.312,984.419 1138.323 C 995.693 1169.901,996.580 1224.968,986.313 1256.000 C 963.103 1326.154,908.298 1377.654,839.628 1393.841 C 807.124 1401.503,791.562 1401.510,761.840 1393.878 C 707.053 1379.810,662.468 1346.207,627.314 1292.487 L 608.000 1262.974 608.000 1200.000 L 608.000 1137.026 628.244 1106.016 C 683.087 1022.004,751.638 990.921,840.524 1009.761 " fill="#1D1E23" stroke="none" fill-rule="evenodd"/></svg>