<svg viewBox="0 0 2400 2400" fill="none" xmlns="http://www.w3.org/2000/svg"><path d="M520.000 403.872 L 246.000 406.000 223.041 417.271 C 174.694 441.006,141.879 472.952,119.822 517.756 C 108.755 540.236,106.929 548.994,103.814 594.565 C 99.230 661.610,99.230 1738.390,103.814 1805.435 C 106.940 1851.155,108.734 1859.721,119.961 1882.526 C 143.138 1929.606,187.871 1969.822,238.323 1988.935 C 261.509 1997.719,265.565 1997.906,434.000 1997.952 C 528.600 1997.979,614.741 1996.511,625.424 1994.691 C 648.122 1990.825,675.675 1968.159,688.690 1942.647 C 699.721 1921.026,699.721 1878.910,688.692 1857.532 C 677.189 1835.239,652.691 1813.373,633.565 1808.330 C 624.526 1805.946,562.214 1802.243,495.092 1800.099 C 427.971 1797.956,368.057 1794.303,361.951 1791.981 C 344.025 1785.166,321.480 1765.197,314.062 1749.565 C 308.440 1737.717,306.549 1716.218,303.770 1632.526 C 299.435 1501.957,299.371 902.460,303.678 767.410 C 307.342 652.518,309.116 644.783,336.866 622.666 C 350.250 611.999,355.830 610.489,392.866 607.514 C 415.490 605.697,790.400 602.368,1226.000 600.116 C 1661.600 597.864,2024.342 594.499,2032.094 592.637 C 2054.406 587.277,2061.794 581.802,2077.226 559.190 C 2106.094 516.892,2106.197 483.264,2077.587 441.334 C 2052.688 404.843,2067.907 406.856,1792.000 403.551 C 1527.490 400.381,950.558 400.527,520.000 403.872 M1570.535 808.122 C 1551.910 813.702,1528.891 831.793,1516.376 850.687 C 1506.766 865.195,1504.230 874.161,1502.098 901.164 C 1500.672 919.224,1500.066 1157.200,1500.753 1430.000 C 1501.890 1882.359,1502.582 1927.061,1508.614 1938.055 C 1518.089 1955.325,1557.095 1991.062,1570.564 1994.814 C 1576.854 1996.567,1726.900 1998.000,1904.000 1998.000 L 2226.000 1998.000 2240.426 1989.029 C 2264.100 1974.305,2291.085 1942.718,2294.733 1925.457 C 2298.932 1905.589,2299.036 894.881,2294.841 875.118 C 2291.127 857.621,2277.806 840.775,2250.813 819.438 L 2231.282 804.000 1906.641 804.344 C 1728.088 804.533,1576.841 806.233,1570.535 808.122 M2100.000 1400.000 L 2100.000 1800.000 1900.000 1800.000 L 1700.000 1800.000 1700.000 1400.000 L 1700.000 1000.000 1900.000 1000.000 L 2100.000 1000.000 2100.000 1400.000 M1014.000 1203.794 C 961.516 1206.361,950.992 1209.943,929.203 1232.659 C 908.112 1254.646,902.857 1272.280,900.809 1327.936 L 898.972 1377.871 879.183 1399.936 C 820.159 1465.749,791.544 1556.248,803.959 1637.846 C 813.542 1700.833,838.837 1755.488,879.000 1799.990 L 900.000 1823.258 900.000 1858.301 C 900.000 1877.575,901.997 1904.813,904.438 1918.829 C 908.291 1940.958,911.497 1947.182,928.783 1966.096 C 942.735 1981.361,953.674 1989.326,965.345 1992.719 C 984.816 1998.379,1194.442 1999.969,1225.424 1994.691 C 1240.019 1992.205,1249.373 1987.232,1263.044 1974.691 C 1290.542 1949.466,1296.935 1931.289,1299.162 1872.000 L 1301.040 1822.000 1316.597 1805.006 C 1339.212 1780.302,1364.816 1738.639,1379.900 1702.000 C 1403.686 1644.222,1403.686 1555.779,1379.899 1498.000 C 1364.816 1461.361,1339.212 1419.698,1316.597 1394.994 L 1301.040 1378.000 1299.162 1328.000 C 1296.936 1268.730,1290.540 1250.533,1263.084 1225.346 C 1247.778 1211.305,1241.562 1208.350,1223.465 1206.515 C 1187.728 1202.890,1065.060 1201.297,1014.000 1203.794 M1146.000 1460.655 C 1183.228 1470.009,1229.778 1514.957,1239.871 1551.295 C 1245.596 1571.908,1244.686 1635.096,1238.411 1652.665 C 1235.530 1660.731,1226.428 1676.519,1218.183 1687.750 C 1182.137 1736.856,1117.974 1758.680,1059.726 1741.647 C 1017.030 1729.162,987.648 1703.847,966.131 1661.009 C 957.141 1643.109,956.004 1635.950,956.038 1597.419 C 956.073 1556.406,956.748 1552.826,968.226 1532.811 C 990.494 1493.982,1028.854 1463.469,1064.587 1456.164 C 1083.606 1452.275,1120.819 1454.328,1146.000 1460.655 " fill="#1D1E23" stroke="none" fill-rule="evenodd"/></svg>