<svg viewBox="0 0 2400 2400" fill="none" xmlns="http://www.w3.org/2000/svg"><path d="M868.000 102.637 C 807.647 112.489,746.275 158.565,720.416 213.438 C 702.055 252.400,700.000 270.923,700.000 397.484 C 700.000 531.834,701.754 541.965,729.895 570.105 C 769.021 609.232,830.979 609.232,870.105 570.105 C 894.842 545.368,900.000 525.904,900.000 457.287 L 900.000 400.000 1400.000 400.000 L 1900.000 400.000 1900.000 1200.000 L 1900.000 2000.000 1400.000 2000.000 L 900.000 2000.000 900.000 1942.713 C 900.000 1874.096,894.842 1854.632,870.105 1829.895 C 830.979 1790.768,769.021 1790.768,729.895 1829.895 C 701.754 1858.035,700.000 1868.166,700.000 2002.516 C 700.000 2072.545,701.777 2128.126,704.420 2140.803 C 720.053 2215.765,784.235 2279.947,859.197 2295.580 C 889.038 2301.803,1910.962 2301.803,1940.803 2295.580 C 2015.765 2279.947,2079.947 2215.765,2095.580 2140.803 C 2101.846 2110.756,2101.846 289.244,2095.580 259.197 C 2081.788 193.062,2034.082 138.710,1966.000 111.568 L 1942.000 102.000 1410.000 101.502 C 1117.400 101.228,873.500 101.739,868.000 102.637 M692.792 706.691 C 673.949 715.978,668.810 729.001,658.948 792.461 C 650.388 847.543,649.951 848.853,638.102 854.903 C 631.446 858.301,613.976 868.821,599.280 878.280 L 572.559 895.477 515.280 873.410 C 451.077 848.676,438.218 847.799,419.466 866.879 C 413.454 872.995,389.305 911.300,365.803 952.000 C 319.258 1032.602,312.303 1053.657,325.548 1073.872 C 329.152 1079.373,352.029 1099.873,376.384 1119.429 L 420.667 1154.985 421.334 1201.158 C 421.943 1243.403,421.319 1247.754,414.000 1252.303 C 396.197 1263.369,327.852 1320.803,324.063 1327.883 C 321.828 1332.058,320.000 1342.942,320.000 1352.069 C 320.000 1365.939,327.717 1382.114,367.000 1450.586 C 416.168 1536.287,426.208 1548.000,450.500 1548.000 C 456.855 1548.000,487.224 1538.326,517.986 1526.502 L 573.918 1505.004 595.959 1519.939 C 608.082 1528.153,625.245 1538.557,634.100 1543.059 L 650.200 1551.244 658.945 1607.522 C 668.904 1671.604,674.844 1686.254,694.137 1694.315 C 713.726 1702.500,886.274 1702.500,905.863 1694.315 C 925.156 1686.254,931.096 1671.604,941.055 1607.522 L 949.800 1551.244 965.900 1543.059 C 974.755 1538.557,992.085 1528.040,1004.411 1519.688 L 1026.823 1504.501 1083.213 1526.251 C 1114.227 1538.213,1143.926 1548.000,1149.210 1548.000 C 1171.127 1548.000,1184.187 1532.371,1232.784 1447.986 C 1296.010 1338.199,1296.071 1339.595,1225.586 1282.926 L 1178.755 1245.274 1178.366 1199.355 L 1177.977 1153.436 1222.891 1117.729 C 1247.594 1098.091,1270.820 1076.424,1274.505 1069.581 C 1285.890 1048.441,1280.208 1031.766,1235.123 954.000 C 1181.552 861.595,1184.482 866.010,1171.712 858.466 C 1154.198 848.120,1137.830 850.691,1080.858 872.734 C 1032.778 891.337,1026.381 892.903,1018.635 887.971 C 1013.886 884.947,996.433 874.742,979.850 865.292 L 949.700 848.110 941.004 792.155 C 926.373 698.002,929.391 699.964,799.395 700.091 C 721.338 700.167,703.831 701.251,692.792 706.691 M866.174 1012.315 C 917.834 1031.441,955.282 1065.484,978.898 1114.789 C 1016.009 1192.269,1000.556 1280.231,939.041 1341.668 C 835.582 1444.994,665.843 1405.737,611.865 1266.000 C 598.535 1231.489,598.562 1168.375,611.923 1134.000 C 629.004 1090.053,653.929 1058.066,689.285 1034.722 C 708.937 1021.747,746.198 1006.455,768.000 1002.417 C 789.971 998.349,842.850 1003.680,866.174 1012.315 " fill="#1D1E23" stroke="none" fill-rule="evenodd"/></svg>