<svg viewBox="0 0 2400 2400" fill="none" xmlns="http://www.w3.org/2000/svg"><path d="M100.000 1200.000 L 100.000 2000.000 400.000 2000.000 L 700.000 2000.000 700.000 1900.000 L 700.000 1800.000 500.000 1800.000 L 300.000 1800.000 300.000 1200.000 L 300.000 600.000 1200.000 600.000 L 2100.000 600.000 2100.000 500.000 L 2100.000 400.000 1100.000 400.000 L 100.000 400.000 100.000 1200.000 M1500.000 1400.000 L 1500.000 2000.000 1900.000 2000.000 L 2300.000 2000.000 2300.000 1400.000 L 2300.000 800.000 1900.000 800.000 L 1500.000 800.000 1500.000 1400.000 M2100.000 1400.000 L 2100.000 1800.000 1900.000 1800.000 L 1700.000 1800.000 1700.000 1400.000 L 1700.000 1000.000 1900.000 1000.000 L 2100.000 1000.000 2100.000 1400.000 M900.000 1288.359 L 900.000 1376.718 879.698 1399.359 C 818.210 1467.928,789.912 1561.692,805.221 1646.126 C 815.657 1703.681,843.366 1761.155,880.008 1801.247 L 900.000 1823.122 900.000 1911.561 L 900.000 2000.000 1100.000 2000.000 L 1300.000 2000.000 1300.000 1910.748 L 1300.000 1821.497 1312.351 1809.748 C 1331.488 1791.545,1365.479 1737.379,1379.968 1702.000 C 1403.641 1644.196,1403.641 1555.805,1379.968 1498.000 C 1365.479 1462.621,1331.488 1408.456,1312.351 1390.252 L 1300.000 1378.503 1300.000 1289.252 L 1300.000 1200.000 1100.000 1200.000 L 900.000 1200.000 900.000 1288.359 M1146.000 1460.655 C 1183.228 1470.009,1229.778 1514.957,1239.871 1551.295 C 1245.596 1571.908,1244.686 1635.096,1238.411 1652.665 C 1235.530 1660.731,1226.428 1676.519,1218.183 1687.750 C 1182.137 1736.856,1117.974 1758.680,1059.726 1741.647 C 1017.030 1729.162,987.648 1703.847,966.131 1661.009 C 957.141 1643.109,956.004 1635.950,956.038 1597.419 C 956.073 1556.406,956.748 1552.826,968.226 1532.811 C 990.494 1493.982,1028.854 1463.469,1064.587 1456.164 C 1083.606 1452.275,1120.819 1454.328,1146.000 1460.655 " fill="#1D1E23" stroke="none" fill-rule="evenodd"/></svg>