<svg viewBox="0 0 2400 2400" fill="none" xmlns="http://www.w3.org/2000/svg"><path d="M632.000 403.599 L 246.000 406.000 216.290 421.869 C 160.870 451.469,123.640 495.298,109.149 548.000 C 102.425 572.455,102.000 611.202,102.000 1200.000 C 102.000 1783.329,102.476 1827.722,108.984 1851.260 C 112.825 1865.153,120.833 1884.953,126.780 1895.260 C 143.312 1923.916,182.260 1960.013,215.456 1977.446 C 242.267 1991.527,248.983 1993.241,291.434 1996.842 C 318.742 1999.159,397.539 1999.756,481.965 1998.286 C 644.620 1995.454,646.434 1995.121,673.871 1963.066 C 692.185 1941.671,697.188 1925.042,695.310 1891.807 C 693.513 1860.001,681.068 1838.159,653.839 1819.022 C 638.222 1808.046,636.252 1807.739,555.951 1803.778 C 360.089 1794.114,361.723 1794.282,344.017 1782.012 C 318.485 1764.318,311.873 1749.848,306.969 1700.941 C 300.952 1640.932,300.963 752.807,306.981 696.878 C 313.056 640.424,325.939 620.567,362.310 611.601 C 371.517 609.331,582.105 606.094,872.000 603.767 C 1859.080 595.844,2033.427 593.608,2045.153 588.726 C 2071.875 577.599,2097.465 534.387,2097.696 500.000 C 2097.817 482.131,2095.165 473.122,2083.575 452.021 C 2062.716 414.047,2056.872 411.585,1978.724 407.837 C 1884.804 403.333,1081.189 400.804,632.000 403.599 M1621.353 807.795 C 1561.058 809.987,1560.617 810.071,1545.596 822.244 C 1517.840 844.737,1508.028 860.416,1503.497 889.520 C 1500.696 907.513,1499.794 1082.239,1500.764 1419.185 C 1502.386 1982.751,1499.658 1936.070,1532.754 1966.479 C 1568.913 1999.700,1533.403 1996.516,1895.494 1999.003 L 2219.203 2001.227 2236.936 1990.835 C 2256.818 1979.184,2279.997 1955.161,2290.581 1935.239 C 2297.185 1922.807,2297.625 1890.178,2297.806 1400.000 L 2297.998 878.000 2289.632 862.000 C 2285.031 853.200,2270.162 836.550,2256.589 825.000 L 2231.913 804.000 1956.956 804.795 C 1805.730 805.233,1654.709 806.583,1621.353 807.795 M2100.000 1400.000 L 2100.000 1800.000 1900.000 1800.000 L 1700.000 1800.000 1700.000 1400.000 L 1700.000 1000.000 1900.000 1000.000 L 2100.000 1000.000 2100.000 1400.000 M972.006 1208.228 C 950.601 1212.623,938.362 1221.061,921.462 1243.077 C 906.608 1262.427,900.000 1293.720,900.000 1344.708 C 900.000 1374.351,898.901 1379.747,891.513 1386.380 C 886.845 1390.571,875.491 1403.900,866.282 1416.000 C 774.522 1536.568,780.697 1690.305,881.828 1803.000 L 898.879 1822.000 900.870 1872.000 C 903.075 1927.352,907.341 1941.859,928.500 1965.958 C 954.589 1995.672,961.303 1996.900,1099.639 1997.244 C 1239.176 1997.592,1244.158 1996.681,1271.300 1965.845 C 1291.422 1942.986,1295.941 1927.159,1298.664 1870.000 C 1300.919 1822.658,1301.130 1821.808,1313.997 1808.000 C 1330.340 1790.463,1355.867 1752.401,1369.426 1725.355 C 1406.021 1652.355,1406.021 1547.645,1369.426 1474.645 C 1355.867 1447.599,1330.340 1409.537,1313.997 1392.000 C 1301.130 1378.192,1300.919 1377.342,1298.664 1330.000 C 1295.990 1273.872,1291.529 1257.563,1272.897 1235.795 C 1247.301 1205.893,1248.719 1206.161,1112.000 1205.301 C 1044.900 1204.879,981.903 1206.196,972.006 1208.228 M1161.003 1466.980 C 1185.750 1478.144,1219.843 1510.631,1232.205 1534.829 C 1240.932 1551.910,1241.994 1559.016,1241.946 1600.000 C 1241.896 1643.196,1241.186 1647.281,1230.303 1667.013 C 1214.028 1696.523,1190.321 1718.928,1160.000 1733.455 C 1137.194 1744.382,1129.823 1745.913,1100.000 1745.913 C 1070.177 1745.913,1062.806 1744.382,1040.000 1733.455 C 1009.715 1718.945,986.018 1696.567,969.643 1667.013 C 958.600 1647.083,958.000 1643.527,958.000 1598.000 C 958.000 1554.405,958.883 1548.532,967.621 1534.000 C 986.262 1503.000,1022.030 1471.171,1050.000 1460.690 C 1070.309 1453.080,1138.794 1456.961,1161.003 1466.980 " fill="#1D1E23" stroke="none" fill-rule="evenodd"/></svg>