<svg viewBox="0 0 2400 2400" fill="none" xmlns="http://www.w3.org/2000/svg"><path d="M268.000 402.679 C 247.444 405.947,209.313 421.498,189.052 434.877 C 147.077 462.593,114.625 510.264,104.420 559.197 C 98.181 589.114,98.181 1810.886,104.420 1840.803 C 120.053 1915.765,184.235 1979.947,259.197 1995.580 C 272.711 1998.398,340.952 2000.000,447.484 2000.000 C 637.334 2000.000,640.657 1999.554,670.105 1970.105 C 709.232 1930.979,709.232 1869.021,670.105 1829.895 C 642.054 1801.843,631.566 1800.000,500.000 1800.000 C 368.434 1800.000,357.946 1798.157,329.895 1770.105 C 297.894 1738.104,300.000 1778.270,300.000 1200.000 C 300.000 621.730,297.894 661.896,329.895 629.895 C 362.428 597.361,285.628 600.000,1200.000 600.000 C 2114.372 600.000,2037.572 602.639,2070.105 570.105 C 2109.232 530.979,2109.232 469.021,2070.105 429.895 C 2037.489 397.279,2121.035 399.933,1146.287 400.545 C 668.729 400.844,273.500 401.805,268.000 402.679 M1570.510 805.825 C 1548.946 813.578,1528.133 831.349,1514.000 854.075 L 1502.000 873.371 1500.956 1395.554 L 1499.911 1917.738 1510.116 1938.595 C 1521.784 1962.443,1541.986 1981.789,1566.582 1992.670 C 1582.816 1999.851,1597.864 2000.136,1905.102 1999.092 L 2226.632 1998.000 2246.178 1985.914 C 2268.982 1971.814,2289.944 1946.048,2295.818 1924.899 C 2301.551 1904.256,2301.551 895.744,2295.818 875.101 C 2289.944 853.952,2268.982 828.186,2246.178 814.086 L 2226.632 802.000 1906.316 801.127 C 1641.028 800.405,1583.339 801.212,1570.510 805.825 M2100.000 1400.000 L 2100.000 1800.000 1900.000 1800.000 L 1700.000 1800.000 1700.000 1400.000 L 1700.000 1000.000 1900.000 1000.000 L 2100.000 1000.000 2100.000 1400.000 M964.342 1206.868 C 954.630 1210.299,939.161 1220.628,929.967 1229.823 C 906.302 1253.488,900.000 1274.953,900.000 1331.901 L 900.000 1378.376 883.710 1394.188 C 833.814 1442.621,800.000 1525.757,800.000 1600.000 C 800.000 1674.243,833.814 1757.379,883.710 1805.812 L 900.000 1821.624 900.000 1868.099 C 900.000 1924.995,906.308 1946.519,929.895 1970.105 C 957.946 1998.157,968.434 2000.000,1100.000 2000.000 C 1231.566 2000.000,1242.054 1998.157,1270.105 1970.105 C 1293.594 1946.616,1300.000 1924.930,1300.000 1868.901 L 1300.000 1823.227 1323.665 1797.400 C 1350.488 1768.128,1374.851 1724.098,1388.628 1680.000 C 1402.084 1636.927,1402.084 1563.073,1388.628 1520.000 C 1374.851 1475.902,1350.488 1431.872,1323.665 1402.600 L 1300.000 1376.773 1300.000 1331.099 C 1300.000 1275.070,1293.594 1253.384,1270.105 1229.895 C 1241.902 1201.692,1231.804 1199.953,1098.287 1200.316 C 1003.775 1200.572,978.693 1201.799,964.342 1206.868 M1164.357 1465.021 C 1192.378 1478.730,1221.276 1507.658,1235.130 1535.867 C 1244.861 1555.681,1246.000 1562.400,1246.000 1600.000 C 1246.000 1637.600,1244.861 1644.319,1235.130 1664.133 C 1206.113 1723.217,1140.261 1758.133,1077.205 1747.871 C 1030.004 1740.189,986.189 1707.623,965.123 1664.566 C 951.357 1636.430,947.964 1587.929,957.473 1555.220 C 969.453 1514.011,1007.703 1474.021,1049.344 1459.171 C 1080.749 1447.972,1135.166 1450.739,1164.357 1465.021 " fill="#1D1E23" stroke="none" fill-rule="evenodd"/></svg>