<svg viewBox="0 0 2400 2400" fill="none" xmlns="http://www.w3.org/2000/svg"><path d="M100.000 1200.000 L 100.000 2000.000 400.000 2000.000 L 700.000 2000.000 700.000 1900.000 L 700.000 1800.000 500.000 1800.000 L 300.000 1800.000 300.000 1200.000 L 300.000 600.000 1200.000 600.000 L 2100.000 600.000 2100.000 500.000 L 2100.000 400.000 1100.000 400.000 L 100.000 400.000 100.000 1200.000 M1500.000 1400.000 L 1500.000 2000.000 1900.000 2000.000 L 2300.000 2000.000 2300.000 1400.000 L 2300.000 800.000 1900.000 800.000 L 1500.000 800.000 1500.000 1400.000 M2100.000 1400.000 L 2100.000 1800.000 1900.000 1800.000 L 1700.000 1800.000 1700.000 1400.000 L 1700.000 1000.000 1900.000 1000.000 L 2100.000 1000.000 2100.000 1400.000 M900.000 1289.303 L 900.000 1378.605 889.541 1388.303 C 876.458 1400.432,844.531 1447.280,830.617 1474.763 C 818.442 1498.811,805.752 1544.102,802.075 1576.629 C 794.334 1645.103,829.394 1744.644,881.769 1802.898 L 900.000 1823.175 900.000 1911.588 L 900.000 2000.000 1100.000 2000.000 L 1300.000 2000.000 1300.000 1911.614 L 1300.000 1823.228 1316.136 1804.896 C 1352.009 1764.142,1384.231 1700.301,1392.293 1654.005 C 1399.148 1614.638,1395.167 1544.565,1384.226 1512.000 C 1373.712 1480.709,1339.013 1421.050,1316.401 1395.386 L 1300.000 1376.772 1300.000 1288.386 L 1300.000 1200.000 1100.000 1200.000 L 900.000 1200.000 900.000 1289.303 M1130.000 1460.163 C 1162.132 1464.759,1191.455 1482.090,1213.803 1509.695 C 1237.840 1539.386,1240.000 1546.927,1240.000 1601.181 L 1240.000 1650.760 1224.590 1674.603 C 1206.637 1702.379,1186.646 1720.036,1156.207 1735.000 C 1137.698 1744.100,1129.230 1745.714,1100.000 1745.714 C 1070.770 1745.714,1062.302 1744.100,1043.793 1735.000 C 1013.354 1720.036,993.363 1702.379,975.410 1674.603 L 960.000 1650.760 960.000 1597.820 L 960.000 1544.880 977.387 1521.262 C 1000.454 1489.927,1028.220 1468.152,1055.766 1459.793 C 1070.302 1455.382,1097.521 1455.518,1130.000 1460.163 " fill="#1D1E23" stroke="none" fill-rule="evenodd"/></svg>