<svg viewBox="0 0 2400 2400" fill="none" xmlns="http://www.w3.org/2000/svg"><path d="M1058.000 107.845 L 838.000 110.000 817.647 121.283 C 766.593 149.587,731.575 188.401,711.390 239.058 C 702.531 261.289,702.253 265.902,702.422 388.000 C 702.625 534.640,703.683 541.219,731.400 568.076 C 769.351 604.848,826.319 606.093,866.164 571.020 C 889.988 550.049,895.929 529.334,898.863 457.000 L 901.175 400.000 1400.588 400.000 L 1900.000 400.000 1900.000 1200.000 L 1900.000 2000.000 1400.000 2000.000 L 900.000 2000.000 899.784 1961.000 C 899.283 1870.421,892.685 1848.137,859.179 1823.865 C 811.041 1788.994,738.238 1805.382,712.664 1856.847 C 703.616 1875.053,703.258 1879.694,701.084 2006.817 L 698.840 2138.000 712.968 2166.002 C 742.615 2224.765,776.826 2259.947,826.568 2282.824 C 849.682 2293.454,851.630 2293.648,970.000 2297.066 C 1136.415 2301.872,1905.746 2298.081,1941.819 2292.277 C 1957.588 2289.739,1977.512 2283.227,1987.819 2277.242 C 2017.016 2260.285,2064.689 2209.751,2083.327 2176.000 L 2099.894 2146.000 2099.947 1200.585 L 2100.000 255.170 2085.003 226.585 C 2063.846 186.259,2024.393 146.017,1983.211 122.758 L 1950.000 104.000 1614.000 104.845 C 1429.200 105.309,1179.000 106.659,1058.000 107.845 M714.000 706.757 C 680.273 709.709,672.752 722.004,655.745 802.000 C 651.067 824.000,644.530 845.042,641.217 848.760 C 637.904 852.478,621.372 864.595,604.479 875.685 L 573.765 895.850 541.882 883.863 C 499.218 867.822,468.411 860.000,447.895 860.000 C 433.705 860.000,428.795 862.280,417.741 874.000 C 392.341 900.932,333.263 1008.207,323.284 1045.516 L 318.332 1064.032 338.166 1084.192 C 349.075 1095.280,371.933 1115.522,388.963 1129.176 L 419.925 1154.000 419.937 1200.000 L 419.949 1246.000 379.244 1280.000 C 330.807 1320.460,322.275 1331.095,322.821 1350.340 C 323.923 1389.219,420.922 1548.228,443.340 1547.904 C 447.003 1547.851,476.740 1538.968,509.423 1528.164 C 558.239 1512.026,570.734 1509.236,579.423 1512.531 C 597.407 1519.352,643.674 1549.383,646.176 1555.860 C 647.481 1559.237,653.662 1584.500,659.912 1612.000 C 680.274 1701.598,673.622 1697.536,800.000 1697.536 C 924.949 1697.536,919.762 1700.445,938.261 1620.000 C 955.109 1546.736,951.907 1552.435,989.389 1529.000 C 1007.862 1517.450,1025.652 1508.000,1028.923 1508.000 C 1032.194 1508.000,1054.474 1515.307,1078.435 1524.238 C 1102.396 1533.169,1130.168 1541.475,1140.151 1542.695 C 1155.814 1544.609,1160.056 1543.436,1171.110 1534.135 C 1196.634 1512.658,1260.687 1405.414,1275.802 1358.848 C 1279.967 1346.018,1279.746 1342.208,1274.358 1333.985 C 1266.097 1321.377,1236.468 1292.783,1205.000 1267.048 L 1180.000 1246.603 1180.000 1199.647 L 1180.000 1152.690 1211.173 1126.690 C 1258.350 1087.340,1276.010 1066.731,1275.951 1051.089 C 1275.848 1023.309,1215.423 909.683,1181.214 872.941 L 1164.428 854.913 1143.214 857.721 C 1131.546 859.265,1100.429 867.561,1074.063 876.156 L 1026.127 891.783 988.063 870.212 L 950.000 848.640 943.313 807.320 C 934.394 752.209,924.763 724.691,910.789 714.388 C 900.374 706.710,893.695 706.083,816.789 705.565 C 771.255 705.258,725.000 705.794,714.000 706.757 M840.524 1009.761 C 906.488 1023.743,960.850 1072.312,984.419 1138.323 C 995.693 1169.901,996.580 1224.968,986.313 1256.000 C 963.103 1326.154,908.298 1377.654,839.628 1393.841 C 807.124 1401.503,791.562 1401.510,761.840 1393.878 C 707.053 1379.810,662.468 1346.207,627.314 1292.487 L 608.000 1262.974 608.000 1200.000 L 608.000 1137.026 628.244 1106.016 C 683.087 1022.004,751.638 990.921,840.524 1009.761 " fill="#1D1E23" stroke="none" fill-rule="evenodd"/></svg>