<svg viewBox="0 0 2400 2400" fill="none" xmlns="http://www.w3.org/2000/svg"><path d="M1078.000 310.311 C 978.754 325.575,902.047 348.966,817.508 389.749 C 572.469 507.956,405.776 707.266,330.541 972.000 C 303.056 1068.712,300.276 1133.138,300.121 1677.000 L 300.000 2100.000 600.000 2100.000 L 900.000 2100.000 900.000 1700.000 L 900.000 1300.000 699.383 1300.000 L 498.766 1300.000 501.550 1225.000 C 507.371 1068.159,523.737 996.532,578.974 886.133 C 617.948 808.240,637.880 781.271,709.568 709.434 C 783.121 635.728,812.251 614.809,901.063 571.914 C 1016.261 516.277,1068.065 506.178,1223.757 509.007 C 1319.007 510.737,1328.832 511.610,1367.413 521.772 C 1433.158 539.089,1531.221 583.830,1597.809 626.889 C 1630.038 647.730,1731.053 745.265,1760.525 784.000 C 1784.121 815.012,1854.715 954.398,1866.882 994.000 C 1885.826 1055.656,1895.182 1124.092,1898.735 1227.000 L 1901.256 1300.000 1700.628 1300.000 L 1500.000 1300.000 1500.000 1700.000 L 1500.000 2100.000 1800.000 2100.000 L 2100.000 2100.000 2099.921 1689.000 C 2099.838 1261.260,2096.445 1101.982,2086.166 1043.388 C 2073.923 973.595,2035.205 862.330,1995.906 784.000 C 1917.288 627.302,1768.092 480.803,1605.026 400.188 C 1476.993 336.892,1391.268 314.674,1249.859 308.137 C 1141.387 303.123,1123.248 303.353,1078.000 310.311 " fill="#1D1E23" stroke="none" fill-rule="evenodd"/></svg>