<svg viewBox="0 0 2400 2400" fill="none" xmlns="http://www.w3.org/2000/svg"><path d="M1122.000 304.379 C 1000.505 316.661,903.045 344.694,796.000 398.148 C 614.607 488.728,464.102 644.282,383.370 824.623 C 335.228 932.163,310.360 1028.854,304.015 1133.160 C 301.835 1169.015,300.056 1399.608,300.036 1649.000 L 300.000 2100.000 600.000 2100.000 L 900.000 2100.000 900.000 1700.000 L 900.000 1300.000 700.000 1300.000 L 500.000 1300.000 500.041 1245.000 C 500.154 1094.911,519.687 1002.405,574.578 892.000 C 617.798 805.072,637.105 778.352,707.728 707.728 C 778.887 636.570,805.456 617.466,894.000 573.796 C 985.038 528.895,1045.628 512.193,1147.000 504.055 C 1233.579 497.104,1334.346 508.404,1414.259 534.026 C 1454.547 546.944,1556.248 596.978,1598.000 624.422 C 1641.055 652.723,1747.277 758.945,1775.578 802.000 C 1803.022 843.752,1853.056 945.453,1865.974 985.741 C 1888.455 1055.858,1900.000 1145.042,1900.000 1248.581 L 1900.000 1300.000 1700.000 1300.000 L 1500.000 1300.000 1500.000 1700.000 L 1500.000 2100.000 1800.000 2100.000 L 2100.000 2100.000 2099.896 1647.000 C 2099.787 1174.471,2097.924 1102.821,2083.853 1030.000 C 2066.968 942.612,2020.970 821.635,1974.802 743.188 C 1910.650 634.184,1807.570 525.460,1699.753 453.078 C 1582.586 374.420,1433.222 319.886,1302.793 308.147 C 1240.209 302.514,1157.500 300.790,1122.000 304.379 " fill="#1D1E23" stroke="none" fill-rule="evenodd"/></svg>