<svg viewBox="0 0 2400 2400" fill="none" xmlns="http://www.w3.org/2000/svg"><path d="M1104.000 306.299 C 1098.500 307.248,1080.500 309.944,1064.000 312.290 C 877.871 338.747,684.515 439.796,549.574 581.131 C 446.303 689.296,376.514 811.918,334.158 959.625 C 301.877 1072.197,299.165 1122.648,300.908 1578.191 L 302.285 1938.000 311.160 1961.677 C 337.249 2031.280,399.712 2084.642,468.078 2095.734 C 501.511 2101.158,698.080 2101.203,732.000 2095.793 C 801.601 2084.694,862.775 2031.529,888.773 1959.546 L 898.000 1934.000 898.000 1694.000 L 898.000 1454.000 883.193 1422.855 C 863.033 1380.449,829.505 1345.837,787.338 1323.899 C 755.593 1307.383,755.322 1307.324,694.750 1303.798 C 661.337 1301.853,603.850 1300.203,567.000 1300.131 L 500.000 1300.000 500.000 1252.581 C 500.000 1149.969,515.236 1040.068,538.428 975.397 C 551.938 937.722,603.928 833.541,623.750 804.422 C 661.014 749.681,755.504 656.082,808.000 621.910 C 836.194 603.557,932.527 554.662,968.000 540.699 C 1034.529 514.513,1119.716 502.487,1220.000 505.124 C 1304.668 507.350,1351.309 514.476,1411.477 534.378 C 1463.207 551.489,1576.779 609.060,1613.918 636.998 C 1649.658 663.884,1735.740 749.892,1763.130 786.082 C 1791.111 823.053,1857.102 955.977,1869.856 1001.057 C 1888.884 1068.317,1900.000 1161.805,1900.000 1254.581 L 1900.000 1300.000 1833.000 1300.131 C 1796.150 1300.203,1738.663 1301.853,1705.250 1303.798 C 1644.678 1307.324,1644.407 1307.383,1612.662 1323.899 C 1570.543 1345.811,1537.245 1380.187,1516.935 1422.721 L 1502.000 1454.000 1502.087 1696.000 C 1502.174 1936.560,1502.228 1938.141,1511.105 1961.677 C 1537.408 2031.416,1599.737 2084.646,1668.078 2095.734 C 1682.335 2098.047,1741.700 2099.940,1800.000 2099.940 C 1858.300 2099.940,1917.665 2098.047,1931.922 2095.734 C 2001.475 2084.450,2065.679 2028.673,2089.325 1958.993 C 2097.673 1934.393,2097.827 1928.408,2099.145 1578.000 C 2100.619 1186.569,2098.056 1103.186,2082.181 1025.885 C 2056.980 903.179,1998.040 767.890,1929.139 674.601 C 1839.532 553.276,1724.366 457.258,1590.000 391.849 C 1504.990 350.466,1430.152 326.776,1342.748 313.581 C 1304.071 307.742,1126.940 302.339,1104.000 306.299 " fill="#1D1E23" stroke="none" fill-rule="evenodd"/></svg>