<svg viewBox="0 0 2400 2400" fill="none" xmlns="http://www.w3.org/2000/svg"><path d="M1084.000 310.097 C 918.479 333.062,768.527 398.556,632.000 507.519 C 495.996 616.063,398.953 760.233,340.892 940.000 C 303.544 1055.635,303.363 1058.742,301.151 1621.000 L 299.267 2100.000 599.633 2100.000 L 900.000 2100.000 900.000 1700.000 L 900.000 1300.000 700.000 1300.000 L 500.000 1300.000 500.000 1275.845 C 500.000 1225.596,508.829 1112.310,516.053 1069.879 C 520.184 1045.612,529.230 1008.712,536.156 987.879 C 550.973 943.307,596.416 848.520,619.945 813.109 C 657.121 757.159,748.196 665.566,807.248 624.740 C 844.261 599.152,936.482 553.390,985.625 536.226 C 1049.427 513.943,1081.271 510.201,1204.000 510.569 C 1322.905 510.925,1342.942 513.164,1401.649 532.658 C 1442.441 546.203,1530.349 587.244,1576.443 614.263 C 1629.881 645.586,1736.046 747.376,1770.163 800.000 C 1793.980 836.736,1854.175 958.395,1866.076 993.848 C 1884.647 1049.169,1899.914 1174.867,1899.981 1273.000 L 1900.000 1300.000 1700.000 1300.000 L 1500.000 1300.000 1500.000 1700.000 L 1500.000 2100.000 1800.419 2100.000 L 2100.837 2100.000 2098.789 1621.000 C 2096.808 1158.020,2094.806 1079.820,2083.657 1030.000 C 2067.019 955.653,2027.099 844.977,1992.987 778.621 C 1914.675 626.290,1770.253 484.872,1609.377 402.993 C 1482.958 338.651,1395.595 316.457,1236.000 308.141 C 1142.001 303.243,1132.520 303.365,1084.000 310.097 " fill="#1D1E23" stroke="none" fill-rule="evenodd"/></svg>