<svg viewBox="0 0 2400 2400" fill="none" xmlns="http://www.w3.org/2000/svg"><path d="M1134.000 302.411 C 1002.331 316.004,909.048 341.479,805.761 392.050 C 657.838 464.476,535.329 572.837,444.038 712.000 C 390.957 792.915,341.141 912.599,320.324 1009.220 C 300.532 1101.087,300.000 1117.204,300.000 1624.975 L 300.000 2100.000 600.000 2100.000 L 900.000 2100.000 900.000 1700.000 L 900.000 1300.000 700.000 1300.000 L 500.000 1300.000 500.000 1236.424 C 500.000 1128.523,510.967 1053.077,538.390 972.333 C 556.716 918.370,596.655 840.713,631.119 792.028 C 665.448 743.536,743.149 665.764,792.028 630.973 C 837.232 598.797,927.494 552.905,978.918 535.951 C 1119.786 489.510,1280.214 489.510,1421.082 535.951 C 1472.506 552.905,1562.768 598.797,1607.972 630.973 C 1656.655 665.625,1734.375 743.345,1769.027 792.028 C 1801.214 837.248,1847.096 927.498,1864.065 978.966 C 1889.352 1055.666,1900.000 1131.954,1900.000 1236.424 L 1900.000 1300.000 1700.000 1300.000 L 1500.000 1300.000 1500.000 1700.000 L 1500.000 2100.000 1800.000 2100.000 L 2100.000 2100.000 2100.000 1624.975 C 2100.000 1117.204,2099.468 1101.087,2079.676 1009.220 C 2058.859 912.599,2009.043 792.915,1955.962 712.000 C 1812.599 493.458,1587.922 348.748,1332.000 310.116 C 1291.148 303.950,1166.194 299.087,1134.000 302.411 " fill="#1D1E23" stroke="none" fill-rule="evenodd"/></svg>