<svg viewBox="0 0 2400 2400" fill="none" xmlns="http://www.w3.org/2000/svg"><path d="M360.226 504.334 C 306.919 514.871,248.788 558.896,224.406 607.196 C 199.044 657.437,200.124 631.112,200.059 1200.803 C 200.018 1564.322,201.323 1725.951,204.420 1740.803 C 220.053 1815.765,284.235 1879.947,359.197 1895.580 C 389.211 1901.839,2010.789 1901.839,2040.803 1895.580 C 2115.765 1879.947,2179.947 1815.765,2195.580 1740.803 C 2201.803 1710.962,2201.803 689.038,2195.580 659.197 C 2181.788 593.062,2134.082 538.710,2066.000 511.568 L 2042.000 502.000 1210.000 501.410 C 745.558 501.081,370.148 502.373,360.226 504.334 M700.000 900.000 L 700.000 1000.000 600.000 1000.000 L 500.000 1000.000 500.000 900.000 L 500.000 800.000 600.000 800.000 L 700.000 800.000 700.000 900.000 M1000.000 900.000 L 1000.000 1000.000 900.000 1000.000 L 800.000 1000.000 800.000 900.000 L 800.000 800.000 900.000 800.000 L 1000.000 800.000 1000.000 900.000 M1300.000 900.000 L 1300.000 1000.000 1200.000 1000.000 L 1100.000 1000.000 1100.000 900.000 L 1100.000 800.000 1200.000 800.000 L 1300.000 800.000 1300.000 900.000 M1600.000 900.000 L 1600.000 1000.000 1500.000 1000.000 L 1400.000 1000.000 1400.000 900.000 L 1400.000 800.000 1500.000 800.000 L 1600.000 800.000 1600.000 900.000 M1900.000 900.000 L 1900.000 1000.000 1800.000 1000.000 L 1700.000 1000.000 1700.000 900.000 L 1700.000 800.000 1800.000 800.000 L 1900.000 800.000 1900.000 900.000 M700.000 1200.000 L 700.000 1300.000 600.000 1300.000 L 500.000 1300.000 500.000 1200.000 L 500.000 1100.000 600.000 1100.000 L 700.000 1100.000 700.000 1200.000 M1000.000 1200.000 L 1000.000 1300.000 900.000 1300.000 L 800.000 1300.000 800.000 1200.000 L 800.000 1100.000 900.000 1100.000 L 1000.000 1100.000 1000.000 1200.000 M1300.000 1200.000 L 1300.000 1300.000 1200.000 1300.000 L 1100.000 1300.000 1100.000 1200.000 L 1100.000 1100.000 1200.000 1100.000 L 1300.000 1100.000 1300.000 1200.000 M1600.000 1200.000 L 1600.000 1300.000 1500.000 1300.000 L 1400.000 1300.000 1400.000 1200.000 L 1400.000 1100.000 1500.000 1100.000 L 1600.000 1100.000 1600.000 1200.000 M1900.000 1200.000 L 1900.000 1300.000 1800.000 1300.000 L 1700.000 1300.000 1700.000 1200.000 L 1700.000 1100.000 1800.000 1100.000 L 1900.000 1100.000 1900.000 1200.000 M1546.073 1512.218 C 1616.173 1548.298,1616.173 1651.702,1546.073 1687.782 L 1526.219 1698.000 1206.354 1699.071 C 845.236 1700.279,861.301 1701.512,829.986 1670.196 C 790.731 1630.941,790.723 1569.067,829.967 1529.823 C 860.696 1499.093,842.633 1500.471,1204.109 1501.280 L 1526.219 1502.000 1546.073 1512.218 " fill="#1D1E23" stroke="none" fill-rule="evenodd"/></svg>