<svg viewBox="0 0 2400 2400" fill="none" xmlns="http://www.w3.org/2000/svg"><path d="M368.000 507.662 C 347.972 509.223,332.017 513.116,320.000 519.375 C 272.479 544.126,231.045 587.213,215.541 628.000 C 201.425 665.137,199.529 746.590,200.936 1255.397 C 202.179 1704.498,202.707 1735.356,209.504 1756.000 C 226.774 1808.452,268.130 1855.748,318.337 1880.464 C 344.228 1893.211,347.486 1893.783,409.593 1896.511 C 498.408 1900.412,1906.202 1900.303,1988.874 1896.389 C 2053.486 1893.330,2056.665 1892.774,2082.874 1879.943 C 2119.911 1861.811,2162.312 1819.311,2179.559 1783.031 C 2190.408 1760.209,2192.985 1748.829,2196.315 1709.031 C 2198.708 1680.433,2199.809 1464.460,2199.125 1158.000 L 2198.000 654.000 2183.065 622.721 C 2162.058 578.727,2129.502 545.717,2083.878 522.154 L 2048.729 504.000 1223.365 504.662 C 769.414 505.027,384.500 506.377,368.000 507.662 M700.000 900.000 L 700.000 1000.000 600.000 1000.000 L 500.000 1000.000 500.000 900.000 L 500.000 800.000 600.000 800.000 L 700.000 800.000 700.000 900.000 M1000.000 900.000 L 1000.000 1000.000 900.000 1000.000 L 800.000 1000.000 800.000 900.000 L 800.000 800.000 900.000 800.000 L 1000.000 800.000 1000.000 900.000 M1300.000 900.000 L 1300.000 1000.000 1200.000 1000.000 L 1100.000 1000.000 1100.000 900.000 L 1100.000 800.000 1200.000 800.000 L 1300.000 800.000 1300.000 900.000 M1600.000 900.000 L 1600.000 1000.000 1500.000 1000.000 L 1400.000 1000.000 1400.000 900.000 L 1400.000 800.000 1500.000 800.000 L 1600.000 800.000 1600.000 900.000 M1900.000 900.000 L 1900.000 1000.000 1800.000 1000.000 L 1700.000 1000.000 1700.000 900.000 L 1700.000 800.000 1800.000 800.000 L 1900.000 800.000 1900.000 900.000 M700.000 1200.000 L 700.000 1300.000 600.000 1300.000 L 500.000 1300.000 500.000 1200.000 L 500.000 1100.000 600.000 1100.000 L 700.000 1100.000 700.000 1200.000 M1000.000 1200.000 L 1000.000 1300.000 900.000 1300.000 L 800.000 1300.000 800.000 1200.000 L 800.000 1100.000 900.000 1100.000 L 1000.000 1100.000 1000.000 1200.000 M1300.000 1200.000 L 1300.000 1300.000 1200.000 1300.000 L 1100.000 1300.000 1100.000 1200.000 L 1100.000 1100.000 1200.000 1100.000 L 1300.000 1100.000 1300.000 1200.000 M1600.000 1200.000 L 1600.000 1300.000 1500.000 1300.000 L 1400.000 1300.000 1400.000 1200.000 L 1400.000 1100.000 1500.000 1100.000 L 1600.000 1100.000 1600.000 1200.000 M1900.000 1200.000 L 1900.000 1300.000 1800.000 1300.000 L 1700.000 1300.000 1700.000 1200.000 L 1700.000 1100.000 1800.000 1100.000 L 1900.000 1100.000 1900.000 1200.000 M1516.868 1507.399 C 1550.068 1511.092,1568.962 1524.547,1585.000 1555.918 C 1609.878 1604.581,1591.094 1662.875,1542.000 1689.366 L 1526.000 1698.000 1197.345 1698.000 L 868.690 1698.000 851.471 1685.898 C 793.901 1645.438,785.390 1581.309,831.045 1531.979 C 847.195 1514.529,852.959 1511.013,870.000 1508.220 C 895.159 1504.095,1480.491 1503.353,1516.868 1507.399 " fill="#1D1E23" stroke="none" fill-rule="evenodd"/></svg>