<svg viewBox="0 0 2400 2400" fill="none" xmlns="http://www.w3.org/2000/svg"><path d="M200.000 1200.000 L 200.000 1900.000 1200.000 1900.000 L 2200.000 1900.000 2200.000 1200.000 L 2200.000 500.000 1200.000 500.000 L 200.000 500.000 200.000 1200.000 M700.000 900.000 L 700.000 1000.000 600.000 1000.000 L 500.000 1000.000 500.000 900.000 L 500.000 800.000 600.000 800.000 L 700.000 800.000 700.000 900.000 M1000.000 900.000 L 1000.000 1000.000 900.000 1000.000 L 800.000 1000.000 800.000 900.000 L 800.000 800.000 900.000 800.000 L 1000.000 800.000 1000.000 900.000 M1300.000 900.000 L 1300.000 1000.000 1200.000 1000.000 L 1100.000 1000.000 1100.000 900.000 L 1100.000 800.000 1200.000 800.000 L 1300.000 800.000 1300.000 900.000 M1600.000 900.000 L 1600.000 1000.000 1500.000 1000.000 L 1400.000 1000.000 1400.000 900.000 L 1400.000 800.000 1500.000 800.000 L 1600.000 800.000 1600.000 900.000 M1900.000 900.000 L 1900.000 1000.000 1800.000 1000.000 L 1700.000 1000.000 1700.000 900.000 L 1700.000 800.000 1800.000 800.000 L 1900.000 800.000 1900.000 900.000 M700.000 1200.000 L 700.000 1300.000 600.000 1300.000 L 500.000 1300.000 500.000 1200.000 L 500.000 1100.000 600.000 1100.000 L 700.000 1100.000 700.000 1200.000 M1000.000 1200.000 L 1000.000 1300.000 900.000 1300.000 L 800.000 1300.000 800.000 1200.000 L 800.000 1100.000 900.000 1100.000 L 1000.000 1100.000 1000.000 1200.000 M1300.000 1200.000 L 1300.000 1300.000 1200.000 1300.000 L 1100.000 1300.000 1100.000 1200.000 L 1100.000 1100.000 1200.000 1100.000 L 1300.000 1100.000 1300.000 1200.000 M1600.000 1200.000 L 1600.000 1300.000 1500.000 1300.000 L 1400.000 1300.000 1400.000 1200.000 L 1400.000 1100.000 1500.000 1100.000 L 1600.000 1100.000 1600.000 1200.000 M1900.000 1200.000 L 1900.000 1300.000 1800.000 1300.000 L 1700.000 1300.000 1700.000 1200.000 L 1700.000 1100.000 1800.000 1100.000 L 1900.000 1100.000 1900.000 1200.000 M1600.000 1600.000 L 1600.000 1700.000 1200.000 1700.000 L 800.000 1700.000 800.000 1600.000 L 800.000 1500.000 1200.000 1500.000 L 1600.000 1500.000 1600.000 1600.000 " fill="#1D1E23" stroke="none" fill-rule="evenodd"/></svg>