<svg viewBox="0 0 2400 2400" fill="none" xmlns="http://www.w3.org/2000/svg"><path d="M366.000 407.647 C 307.235 412.586,249.386 456.428,219.778 518.464 C 209.359 540.296,206.883 551.570,203.818 591.152 C 199.090 652.201,199.090 1547.799,203.818 1608.848 C 206.925 1648.967,209.300 1659.596,220.354 1682.848 C 238.091 1720.159,279.790 1761.278,318.811 1779.935 C 334.657 1787.512,346.829 1794.504,345.859 1795.474 C 344.889 1796.444,287.605 1798.614,218.562 1800.297 C 62.403 1804.102,59.636 1804.484,36.968 1825.379 C 11.858 1848.524,2.824 1868.283,2.824 1900.055 C 2.824 1927.570,8.384 1942.646,27.606 1967.251 C 49.547 1995.335,32.743 1993.731,334.000 1996.506 C 684.669 1999.736,1715.331 1999.736,2066.000 1996.506 C 2367.257 1993.731,2350.453 1995.335,2372.394 1967.251 C 2391.803 1942.408,2397.114 1927.796,2396.938 1899.728 C 2396.736 1867.494,2388.044 1848.434,2363.032 1825.379 C 2340.364 1804.484,2337.597 1804.102,2181.438 1800.297 C 2112.395 1798.614,2055.111 1796.444,2054.141 1795.474 C 2053.171 1794.504,2065.343 1787.512,2081.189 1779.935 C 2120.120 1761.321,2161.913 1720.150,2179.559 1683.031 C 2190.408 1660.209,2192.985 1648.829,2196.315 1609.031 C 2198.708 1580.433,2199.809 1364.460,2199.125 1058.000 L 2198.000 554.000 2183.065 522.721 C 2162.058 478.727,2129.502 445.717,2083.878 422.154 L 2048.729 404.000 1221.365 404.647 C 766.314 405.002,381.400 406.352,366.000 407.647 M1922.481 606.352 C 1948.155 609.440,1974.968 628.653,1984.896 651.076 C 1992.281 667.756,1993.712 682.094,1996.966 772.000 C 2001.274 891.049,1997.842 1496.976,1992.700 1525.224 C 1988.459 1548.519,1970.843 1574.706,1951.945 1585.808 C 1938.547 1593.679,1929.373 1594.128,1718.000 1597.270 C 1411.281 1601.829,490.901 1597.853,467.125 1591.866 C 446.154 1586.586,422.626 1568.680,413.521 1551.073 C 402.747 1530.239,398.986 1361.277,401.523 1012.000 C 402.793 837.100,405.346 684.562,407.196 673.026 C 411.191 648.109,427.073 626.420,450.213 614.282 C 465.509 606.257,473.275 605.933,700.000 603.860 C 965.357 601.432,1897.377 603.333,1922.481 606.352 " fill="#1D1E23" stroke="none" fill-rule="evenodd"/></svg>