<svg viewBox="0 0 2400 2400" fill="none" xmlns="http://www.w3.org/2000/svg"><path d="M200.000 998.971 L 200.000 1597.942 300.971 1698.971 L 401.941 1800.000 200.971 1800.000 L 0.000 1800.000 0.000 1900.000 L 0.000 2000.000 1200.000 2000.000 L 2400.000 2000.000 2400.000 1900.000 L 2400.000 1800.000 2201.030 1800.000 L 2002.060 1800.000 2101.030 1700.971 L 2200.000 1601.941 2200.000 1000.971 L 2200.000 400.000 1200.000 400.000 L 200.000 400.000 200.000 998.971 M2000.000 1100.000 L 2000.000 1600.000 1200.000 1600.000 L 400.000 1600.000 400.000 1100.000 L 400.000 600.000 1200.000 600.000 L 2000.000 600.000 2000.000 1100.000 " fill="#1D1E23" stroke="none" fill-rule="evenodd"/></svg>