<svg viewBox="0 0 2400 2400" fill="none" xmlns="http://www.w3.org/2000/svg"><path d="M368.000 402.651 C 347.315 405.998,309.269 421.527,289.052 434.877 C 247.077 462.593,214.625 510.264,204.420 559.197 C 198.197 589.038,198.197 1610.962,204.420 1640.803 C 219.615 1713.664,280.795 1776.711,353.392 1794.321 C 371.134 1798.624,353.933 1799.367,229.713 1799.660 C 65.281 1800.047,58.754 1801.035,29.895 1829.895 C -9.232 1869.021,-9.232 1930.979,29.895 1970.105 C 62.684 2002.894,-50.607 2000.000,1200.000 2000.000 C 2450.607 2000.000,2337.316 2002.894,2370.105 1970.105 C 2409.232 1930.979,2409.232 1869.021,2370.105 1829.895 C 2341.246 1801.035,2334.719 1800.047,2170.287 1799.660 C 2046.067 1799.367,2028.866 1798.624,2046.608 1794.321 C 2119.205 1776.711,2180.385 1713.664,2195.580 1640.803 C 2201.803 1610.962,2201.803 589.038,2195.580 559.197 C 2181.788 493.062,2134.082 438.710,2066.000 411.568 L 2042.000 402.000 1210.000 401.517 C 752.400 401.251,373.500 401.762,368.000 402.651 M1934.017 606.625 C 1945.651 610.589,1960.290 620.080,1970.465 630.255 C 2001.529 661.318,2000.000 637.006,2000.000 1100.000 C 2000.000 1562.994,2001.529 1538.682,1970.465 1569.745 C 1937.640 1602.571,2003.111 1600.000,1200.000 1600.000 C 397.685 1600.000,462.298 1602.508,429.895 1570.105 C 398.228 1538.438,400.000 1566.311,400.000 1100.000 C 400.000 633.573,398.215 661.574,429.967 629.823 C 461.583 598.207,397.469 600.669,1198.287 600.316 C 1855.030 600.026,1916.191 600.551,1934.017 606.625 " fill="#1D1E23" stroke="none" fill-rule="evenodd"/></svg>