<svg viewBox="0 0 2400 2400" fill="none" xmlns="http://www.w3.org/2000/svg"><path d="M962.000 311.357 C 940.990 321.478,912.960 350.859,907.769 368.203 C 905.498 375.791,902.548 408.550,901.213 441.000 L 898.785 500.000 848.393 500.077 C 775.405 500.188,656.242 507.355,640.279 512.593 C 594.022 527.774,544.640 571.402,522.105 616.999 C 503.894 653.847,500.261 685.759,500.108 810.250 L 500.000 898.499 434.532 902.897 C 361.040 907.834,345.868 912.735,324.740 938.367 C 305.651 961.525,298.575 1002.696,308.578 1032.403 C 315.729 1053.638,339.505 1080.231,359.085 1088.892 C 373.113 1095.097,389.443 1097.170,438.376 1098.956 L 500.000 1101.205 500.000 1199.852 L 500.000 1298.499 434.532 1302.897 C 361.040 1307.834,345.868 1312.735,324.740 1338.367 C 305.651 1361.525,298.575 1402.696,308.578 1432.403 C 315.729 1453.638,339.505 1480.231,359.085 1488.892 C 373.113 1495.097,389.443 1497.170,438.376 1498.956 L 500.000 1501.205 500.000 1596.313 C 500.000 1648.623,501.864 1705.501,504.142 1722.711 C 512.838 1788.398,556.173 1847.833,617.452 1878.119 C 655.040 1896.696,678.117 1899.306,808.397 1899.716 L 898.795 1900.000 901.025 1961.000 C 903.639 2032.493,908.527 2048.742,934.224 2071.361 C 972.299 2104.876,1027.865 2104.732,1066.164 2071.020 C 1089.988 2050.049,1095.929 2029.334,1098.863 1957.000 L 1101.175 1900.000 1199.985 1900.000 L 1298.795 1900.000 1301.025 1961.000 C 1303.639 2032.493,1308.527 2048.742,1334.224 2071.361 C 1372.299 2104.876,1427.865 2104.732,1466.164 2071.020 C 1489.950 2050.082,1495.930 2029.302,1498.847 1957.435 L 1501.142 1900.871 1615.571 1899.037 C 1718.162 1897.393,1732.690 1896.328,1756.000 1888.745 C 1819.306 1868.151,1869.814 1816.677,1890.180 1752.000 C 1895.845 1734.008,1897.450 1709.156,1898.989 1615.587 L 1900.870 1501.173 1961.435 1498.959 C 2032.456 1496.362,2048.774 1491.436,2071.361 1465.776 C 2113.636 1417.749,2100.754 1342.506,2045.694 1315.852 C 2030.803 1308.643,2015.466 1306.195,1963.689 1302.761 L 1900.000 1298.536 1900.000 1199.871 L 1900.000 1101.205 1961.000 1098.975 C 2032.493 1096.361,2048.742 1091.473,2071.361 1065.776 C 2113.636 1017.749,2100.754 942.506,2045.694 915.852 C 2030.803 908.643,2015.466 906.195,1963.689 902.761 L 1900.000 898.536 1899.970 806.268 C 1899.930 685.069,1896.325 654.424,1877.653 616.568 C 1857.674 576.062,1826.402 545.489,1783.384 524.407 L 1750.000 508.047 1674.000 504.044 C 1632.200 501.842,1576.232 500.032,1549.627 500.021 L 1501.253 500.000 1498.726 435.815 C 1495.905 364.155,1492.509 352.299,1468.847 331.524 C 1448.391 313.564,1432.108 308.000,1400.000 308.000 C 1367.892 308.000,1351.609 313.564,1331.153 331.524 C 1307.491 352.299,1304.095 364.155,1301.274 435.815 L 1298.747 500.000 1199.954 500.000 L 1101.162 500.000 1098.923 441.000 C 1096.540 378.211,1090.947 353.971,1074.865 336.718 C 1049.607 309.623,992.322 296.750,962.000 311.357 M1648.381 716.457 C 1657.876 721.706,1670.765 733.294,1677.024 742.208 C 1687.387 756.970,1688.713 762.861,1691.880 808.208 C 1702.375 958.505,1699.263 1577.080,1687.736 1632.000 C 1683.865 1650.439,1679.722 1657.322,1662.132 1674.528 L 1641.145 1695.055 1521.573 1698.097 C 1386.660 1701.528,846.069 1697.400,788.241 1692.496 L 750.483 1689.294 731.814 1668.991 C 717.735 1653.679,712.509 1644.424,710.556 1631.344 C 709.132 1621.805,706.208 1539.300,704.058 1448.000 C 699.671 1261.720,705.102 787.533,711.893 764.000 C 718.106 742.468,730.314 725.116,744.823 717.194 C 763.369 707.069,873.703 704.808,1292.559 705.973 L 1631.118 706.914 1648.381 716.457 M1017.673 907.481 C 960.121 909.884,956.693 910.498,943.162 920.830 C 925.104 934.620,904.936 964.948,901.438 983.575 C 897.367 1005.255,903.248 1415.739,907.863 1432.000 C 913.294 1451.138,932.839 1473.803,955.294 1487.004 L 974.000 1498.000 1200.000 1498.000 C 1455.910 1498.000,1435.893 1500.488,1472.211 1464.170 C 1490.643 1445.738,1491.308 1444.234,1494.585 1413.587 C 1496.443 1396.214,1497.972 1288.234,1497.982 1173.632 L 1498.000 965.264 1483.412 947.461 C 1475.388 937.670,1461.888 924.920,1453.412 919.128 L 1438.000 908.598 1258.000 906.780 C 1159.000 905.781,1050.853 906.096,1017.673 907.481 M1300.000 1200.000 L 1300.000 1300.000 1200.000 1300.000 L 1100.000 1300.000 1100.000 1200.000 L 1100.000 1100.000 1200.000 1100.000 L 1300.000 1100.000 1300.000 1200.000 " fill="#1D1E23" stroke="none" fill-rule="evenodd"/></svg>