<svg viewBox="0 0 2400 2400" fill="none" xmlns="http://www.w3.org/2000/svg"><path d="M960.000 310.786 C 939.193 321.358,913.251 349.097,907.806 366.595 C 905.169 375.068,902.138 408.550,901.070 441.000 L 899.128 500.000 842.564 500.076 C 811.454 500.118,754.500 501.897,716.000 504.029 C 649.914 507.689,644.608 508.591,621.112 520.149 C 567.996 546.276,527.404 590.384,511.381 639.382 C 503.458 663.611,502.521 676.452,500.944 782.440 L 499.212 898.880 442.606 901.634 C 374.770 904.934,360.168 907.872,341.743 921.925 C 317.505 940.412,306.406 961.448,304.668 992.193 C 302.764 1025.897,308.062 1042.400,328.094 1065.157 C 352.543 1092.933,362.796 1096.132,436.113 1098.858 L 500.000 1101.234 500.000 1200.038 L 500.000 1298.842 443.000 1301.615 C 374.759 1304.935,360.186 1307.858,341.743 1321.925 C 317.505 1340.412,306.406 1361.448,304.668 1392.193 C 302.764 1425.897,308.062 1442.400,328.094 1465.157 C 352.543 1492.933,362.796 1496.132,436.113 1498.858 L 500.000 1501.234 500.071 1593.617 C 500.166 1717.084,503.576 1747.414,521.323 1782.655 C 546.209 1832.072,586.478 1868.420,638.000 1887.971 C 660.470 1896.497,669.547 1897.204,780.402 1899.057 L 898.804 1901.035 901.161 1964.405 C 903.829 2036.130,907.087 2047.017,932.853 2070.295 C 954.254 2089.630,970.895 2096.000,1000.000 2096.000 C 1028.607 2096.000,1044.982 2089.918,1065.958 2071.500 C 1091.089 2049.435,1096.050 2032.901,1098.820 1961.972 L 1101.240 1900.000 1200.003 1900.000 L 1298.766 1900.000 1301.142 1963.887 C 1303.830 2036.177,1307.051 2046.984,1332.853 2070.295 C 1354.254 2089.630,1370.895 2096.000,1400.000 2096.000 C 1428.607 2096.000,1444.982 2089.918,1465.958 2071.500 C 1491.089 2049.435,1496.050 2032.901,1498.820 1961.972 L 1501.240 1900.000 1593.620 1899.748 C 1720.193 1899.403,1743.859 1896.754,1781.944 1878.668 C 1823.038 1859.152,1857.120 1825.189,1877.909 1783.037 C 1896.793 1744.749,1899.398 1722.151,1899.748 1593.617 L 1900.000 1501.234 1963.887 1498.858 C 2036.177 1496.170,2046.984 1492.949,2070.295 1467.147 C 2089.797 1445.560,2096.017 1429.046,2095.912 1399.128 C 2095.802 1367.480,2086.415 1346.114,2064.309 1327.193 C 2042.888 1308.857,2026.950 1305.058,1957.000 1301.615 L 1900.000 1298.808 1900.000 1200.021 L 1900.000 1101.234 1963.887 1098.858 C 2036.177 1096.170,2046.984 1092.949,2070.295 1067.147 C 2089.797 1045.560,2096.017 1029.046,2095.912 999.128 C 2095.802 967.480,2086.415 946.114,2064.309 927.193 C 2042.910 908.876,2026.937 905.058,1957.394 901.634 L 1900.788 898.847 1899.206 782.424 C 1897.663 668.896,1897.363 665.274,1887.145 636.804 C 1868.958 586.135,1831.940 546.245,1778.888 520.149 C 1755.392 508.591,1750.086 507.689,1684.000 504.029 C 1645.500 501.897,1588.628 500.118,1557.617 500.076 L 1501.234 500.000 1498.891 436.979 C 1497.601 402.318,1494.744 369.218,1492.541 363.424 C 1486.471 347.458,1464.708 324.562,1446.379 314.857 C 1423.270 302.622,1376.730 302.622,1353.621 314.857 C 1335.292 324.562,1313.529 347.458,1307.459 363.424 C 1305.256 369.218,1302.399 402.318,1301.109 436.979 L 1298.766 500.000 1199.957 500.000 L 1101.149 500.000 1099.074 439.000 C 1096.327 358.210,1089.142 340.850,1048.577 316.991 C 1025.351 303.331,980.813 300.211,960.000 310.786 M1625.247 707.642 C 1646.670 711.165,1659.983 719.655,1676.948 740.617 C 1686.562 752.495,1688.961 760.331,1692.175 790.358 C 1698.130 845.996,1701.331 1329.143,1696.783 1486.014 C 1692.150 1645.846,1691.568 1648.858,1659.843 1677.381 L 1640.580 1694.701 1531.640 1697.350 C 1289.413 1703.242,776.694 1697.716,755.653 1688.987 C 738.376 1681.820,717.176 1658.844,712.253 1641.953 C 702.999 1610.202,698.719 1340.865,702.809 1047.614 C 706.676 770.363,706.729 769.152,715.755 750.505 C 729.732 721.633,746.815 710.852,783.467 707.773 C 828.040 704.028,1602.536 703.907,1625.247 707.642 M972.919 907.609 C 963.524 909.232,950.924 914.194,944.919 918.636 C 925.783 932.790,904.399 964.606,901.635 983.037 C 897.553 1010.261,902.715 1415.891,907.374 1434.000 C 913.087 1456.204,948.475 1489.155,973.328 1495.413 C 998.510 1501.754,1401.214 1501.824,1426.361 1495.492 C 1447.639 1490.134,1482.460 1460.663,1490.637 1441.091 C 1497.670 1424.260,1502.081 1154.241,1497.201 1039.285 L 1493.860 960.570 1481.549 945.285 C 1474.778 936.878,1461.606 924.600,1452.278 918.000 L 1435.318 906.000 1212.659 905.330 C 1090.197 904.961,982.313 905.987,972.919 907.609 M1300.000 1200.000 L 1300.000 1300.000 1200.000 1300.000 L 1100.000 1300.000 1100.000 1200.000 L 1100.000 1100.000 1200.000 1100.000 L 1300.000 1100.000 1300.000 1200.000 " fill="#1D1E23" stroke="none" fill-rule="evenodd"/></svg>