<svg viewBox="0 0 2400 2400" fill="none" xmlns="http://www.w3.org/2000/svg"><path d="M366.000 307.647 C 307.186 312.590,249.387 356.424,219.720 418.586 C 209.051 440.943,206.838 451.314,203.787 493.274 C 199.170 556.782,199.170 1543.218,203.787 1606.726 C 208.396 1670.122,220.163 1696.901,261.631 1738.369 C 295.132 1771.870,329.270 1789.907,370.440 1795.858 C 385.598 1798.049,465.200 1799.877,547.333 1799.921 L 696.666 1800.000 662.111 1837.000 C 640.739 1859.884,622.881 1883.481,615.302 1898.852 C 604.368 1921.026,603.048 1927.597,603.048 1959.838 C 603.048 1990.719,604.573 1999.091,613.543 2017.424 C 626.168 2043.228,658.956 2075.282,687.547 2089.771 L 708.433 2100.354 1197.216 2099.000 C 1570.952 2097.965,1689.462 2096.486,1700.709 2092.716 C 1756.364 2074.058,1797.733 2015.841,1797.919 1955.916 C 1798.036 1918.105,1782.277 1888.394,1735.879 1838.958 L 1699.315 1800.000 1850.658 1799.920 C 1933.896 1799.875,2013.351 1798.198,2027.224 1796.192 C 2096.728 1786.141,2166.940 1727.143,2188.568 1660.618 L 2197.222 1634.000 2199.049 1055.336 L 2200.876 476.672 2191.952 449.336 C 2172.346 389.276,2137.589 348.955,2080.816 320.410 L 2048.178 304.000 1221.089 304.647 C 766.190 305.002,381.400 306.352,366.000 307.647 M2000.000 1050.000 L 2000.000 1600.000 1200.000 1600.000 L 400.000 1600.000 400.000 1050.000 L 400.000 500.000 1200.000 500.000 L 2000.000 500.000 2000.000 1050.000 " fill="#1D1E23" stroke="none" fill-rule="evenodd"/></svg>