<svg viewBox="0 0 2400 2400" fill="none" xmlns="http://www.w3.org/2000/svg"><path d="M702.000 307.857 L 338.000 310.000 310.000 325.693 C 272.032 346.973,240.339 380.104,221.514 418.195 L 206.348 448.881 202.986 569.441 C 198.191 741.365,201.972 1606.902,207.661 1639.867 C 214.277 1678.201,225.848 1698.431,261.705 1734.356 C 305.091 1777.823,332.415 1791.355,386.565 1796.192 C 408.254 1798.129,485.850 1799.779,559.000 1799.857 C 632.150 1799.936,692.000 1801.109,692.000 1802.465 C 692.000 1803.821,681.771 1815.971,669.269 1829.465 C 637.055 1864.236,612.887 1898.162,608.129 1915.295 C 601.117 1940.542,603.169 1991.783,611.970 2011.173 C 622.164 2033.634,660.752 2073.900,686.000 2088.422 L 706.000 2099.925 1196.361 2099.962 L 1686.722 2100.000 1711.097 2087.820 C 1742.838 2071.959,1776.399 2036.088,1787.661 2005.988 C 1799.391 1974.636,1798.908 1936.304,1786.450 1910.000 C 1774.513 1884.797,1759.242 1864.035,1728.359 1831.020 C 1714.961 1816.698,1704.000 1803.860,1704.000 1802.490 C 1704.000 1801.121,1763.850 1799.922,1837.000 1799.826 C 2011.583 1799.597,2041.723 1797.056,2078.053 1779.503 C 2116.300 1761.023,2161.899 1715.982,2180.059 1678.744 C 2193.050 1652.105,2193.420 1649.887,2196.417 1580.744 C 2198.104 1541.835,2199.601 1276.491,2199.742 991.091 L 2200.000 472.183 2190.198 446.142 C 2168.590 388.733,2138.498 353.984,2083.489 322.915 L 2050.000 304.000 1558.000 304.857 C 1287.400 305.328,902.200 306.678,702.000 307.857 M2000.000 1050.000 L 2000.000 1600.000 1200.000 1600.000 L 400.000 1600.000 400.000 1050.000 L 400.000 500.000 1200.000 500.000 L 2000.000 500.000 2000.000 1050.000 " fill="#1D1E23" stroke="none" fill-rule="evenodd"/></svg>