<svg viewBox="0 0 2400 2400" fill="none" xmlns="http://www.w3.org/2000/svg"><path d="M368.000 302.651 C 347.315 305.998,309.269 321.527,289.052 334.877 C 247.077 362.593,214.625 410.264,204.420 459.197 C 198.189 489.080,198.189 1610.920,204.420 1640.803 C 220.053 1715.765,284.235 1779.947,359.197 1795.580 C 372.601 1798.375,438.551 1800.000,538.588 1800.000 L 696.783 1800.000 660.544 1838.291 C 612.034 1889.549,602.080 1909.914,602.034 1958.000 C 602.005 1988.582,603.586 1997.383,612.541 2016.480 C 627.367 2048.100,648.522 2069.786,679.345 2084.961 L 705.828 2098.000 1187.914 2099.234 C 1534.957 2100.122,1675.872 2099.204,1690.961 2095.956 C 1738.352 2085.754,1781.608 2042.319,1794.340 1992.145 C 1808.565 1936.086,1794.029 1897.230,1737.185 1839.373 L 1698.503 1800.000 1860.411 1800.000 C 1990.897 1800.000,2026.757 1798.844,2045.187 1794.044 C 2120.736 1774.366,2178.437 1715.104,2194.123 1641.079 C 2202.887 1599.723,2202.695 493.932,2193.917 456.700 C 2177.865 388.609,2133.778 338.589,2066.000 311.568 L 2042.000 302.000 1210.000 301.517 C 752.400 301.251,373.500 301.762,368.000 302.651 M2000.000 1050.000 L 2000.000 1600.000 1200.000 1600.000 L 400.000 1600.000 400.000 1050.000 L 400.000 500.000 1200.000 500.000 L 2000.000 500.000 2000.000 1050.000 " fill="#1D1E23" stroke="none" fill-rule="evenodd"/></svg>