<svg viewBox="0 0 2400 2400" fill="none" xmlns="http://www.w3.org/2000/svg"><path d="M530.000 307.887 L 342.000 310.000 314.966 322.806 C 266.249 345.883,224.343 394.887,209.351 446.312 C 202.999 468.098,202.327 512.275,200.972 996.474 C 199.476 1530.902,201.304 1625.999,213.861 1666.960 C 227.936 1712.876,287.321 1770.292,339.450 1788.385 C 365.169 1797.312,371.163 1797.649,531.009 1799.143 L 696.018 1800.685 664.926 1834.224 C 647.825 1852.671,627.571 1878.088,619.917 1890.707 C 606.844 1912.258,605.918 1916.106,604.656 1954.136 C 603.475 1989.703,604.426 1996.994,612.487 2014.142 C 624.037 2038.715,659.679 2074.485,687.588 2089.513 L 708.969 2101.027 1199.485 2099.282 L 1690.000 2097.537 1712.786 2087.088 C 1771.565 2060.132,1808.331 1989.816,1794.448 1930.905 C 1787.776 1902.592,1770.366 1876.052,1730.426 1833.308 L 1699.879 1800.616 1866.939 1799.074 C 2027.640 1797.590,2034.914 1797.194,2058.000 1788.651 C 2110.230 1769.323,2154.992 1729.338,2179.186 1680.396 C 2193.884 1650.664,2194.021 1649.924,2196.630 1586.214 C 2198.077 1550.896,2199.427 1285.832,2199.630 997.182 L 2200.000 472.364 2190.509 446.216 C 2169.123 387.297,2137.380 351.064,2080.689 320.858 L 2049.051 304.000 1383.525 304.887 C 1017.486 305.375,633.400 306.725,530.000 307.887 M2000.000 1050.000 L 2000.000 1600.000 1200.000 1600.000 L 400.000 1600.000 400.000 1050.000 L 400.000 500.000 1200.000 500.000 L 2000.000 500.000 2000.000 1050.000 " fill="#1D1E23" stroke="none" fill-rule="evenodd"/></svg>