<svg viewBox="0 0 2400 2400" fill="none" xmlns="http://www.w3.org/2000/svg"><path d="M840.000 107.964 L 678.000 110.000 652.000 122.420 C 584.040 154.884,538.962 205.472,511.887 279.660 L 500.000 312.230 500.073 1203.115 L 500.146 2094.000 514.106 2128.000 C 549.850 2215.062,612.080 2271.811,692.000 2290.226 C 718.673 2296.372,756.598 2297.330,1034.000 2298.865 C 1384.025 2300.803,1597.590 2296.272,1630.597 2286.209 C 1658.793 2277.613,1696.869 2251.694,1728.130 2219.818 C 1755.486 2191.924,1773.347 2162.627,1790.046 2118.262 L 1800.000 2091.817 1799.589 1270.909 C 1799.363 819.409,1797.965 413.100,1796.483 368.000 L 1793.789 286.000 1779.500 256.000 C 1750.529 195.179,1711.053 155.587,1648.000 124.113 L 1618.000 109.138 1310.000 107.533 C 1140.600 106.651,929.100 106.845,840.000 107.964 M1600.000 1100.000 L 1600.000 1800.000 1150.000 1800.000 L 700.000 1800.000 700.000 1100.000 L 700.000 400.000 1150.000 400.000 L 1600.000 400.000 1600.000 1100.000 M1210.842 1916.361 C 1233.314 1925.994,1266.002 1956.818,1280.450 1982.000 C 1291.295 2000.902,1291.927 2004.589,1291.962 2049.159 C 1291.994 2089.398,1290.752 2098.764,1283.500 2112.981 C 1270.842 2137.791,1235.061 2173.143,1209.534 2186.059 C 1189.603 2196.143,1182.749 2197.455,1150.000 2197.455 C 1117.151 2197.455,1110.428 2196.158,1090.204 2185.926 C 1059.205 2170.242,1023.426 2131.531,1011.958 2101.268 C 1004.465 2081.492,1003.465 2072.775,1005.299 2043.192 C 1008.000 1999.607,1017.549 1976.980,1045.182 1948.683 C 1068.142 1925.172,1088.136 1913.244,1113.375 1908.002 C 1137.054 1903.084,1190.576 1907.674,1210.842 1916.361 " fill="#1D1E23" stroke="none" fill-rule="evenodd"/></svg>