<svg viewBox="0 0 2400 2400" fill="none" xmlns="http://www.w3.org/2000/svg"><path d="M500.000 1200.000 L 500.000 2300.000 1150.000 2300.000 L 1800.000 2300.000 1800.000 1200.000 L 1800.000 100.000 1150.000 100.000 L 500.000 100.000 500.000 1200.000 M1600.000 1100.000 L 1600.000 1800.000 1150.000 1800.000 L 700.000 1800.000 700.000 1100.000 L 700.000 400.000 1150.000 400.000 L 1600.000 400.000 1600.000 1100.000 M1213.175 1915.206 C 1245.145 1930.397,1269.961 1955.357,1285.546 1988.000 C 1296.586 2011.122,1297.960 2017.985,1297.960 2050.000 C 1297.960 2081.955,1296.572 2088.921,1285.602 2112.000 C 1269.901 2145.033,1245.056 2169.884,1212.000 2185.622 C 1188.906 2196.617,1181.977 2198.000,1150.000 2198.000 C 1118.023 2198.000,1111.094 2196.617,1088.000 2185.622 C 1054.944 2169.884,1030.099 2145.033,1014.398 2112.000 C 1003.428 2088.921,1002.040 2081.955,1002.040 2050.000 C 1002.040 2018.045,1003.428 2011.079,1014.398 1988.000 C 1034.216 1946.307,1071.724 1915.017,1114.984 1904.088 C 1142.192 1897.215,1185.674 1902.138,1213.175 1915.206 " fill="#1D1E23" stroke="none" fill-rule="evenodd"/></svg>