<svg viewBox="0 0 2400 2400" fill="none" xmlns="http://www.w3.org/2000/svg"><path d="M762.000 102.444 C 757.600 103.343,744.180 106.073,732.178 108.510 C 644.459 126.324,558.270 199.130,523.365 284.902 C 498.643 345.652,500.000 292.487,500.000 1200.000 C 500.000 1929.983,500.731 2031.875,506.155 2058.135 C 531.010 2178.468,621.532 2268.990,741.865 2293.845 C 786.658 2303.097,1613.342 2303.097,1658.135 2293.845 C 1778.468 2268.990,1868.990 2178.468,1893.845 2058.135 C 1899.269 2031.875,1900.000 1929.983,1900.000 1200.000 C 1900.000 292.487,1901.357 345.652,1876.635 284.902 C 1842.620 201.317,1771.010 138.996,1674.000 108.552 C 1656.398 103.028,1601.010 102.188,1212.000 101.543 C 968.900 101.140,766.400 101.545,762.000 102.444 M1700.000 1100.000 L 1700.000 1800.000 1200.000 1800.000 L 700.000 1800.000 700.000 1100.000 L 700.000 400.000 1200.000 400.000 L 1700.000 400.000 1700.000 1100.000 M1374.806 2007.838 C 1399.879 2023.126,1406.817 2052.701,1390.880 2076.350 C 1374.850 2100.137,1376.917 2099.882,1200.000 2099.882 C 1023.083 2099.882,1025.150 2100.137,1009.120 2076.350 C 993.183 2052.701,1000.121 2023.126,1025.194 2007.838 C 1037.339 2000.433,1046.367 2000.030,1200.000 2000.030 C 1353.633 2000.030,1362.661 2000.433,1374.806 2007.838 " fill="#1D1E23" stroke="none" fill-rule="evenodd"/></svg>