<svg viewBox="0 0 2400 2400" fill="none" xmlns="http://www.w3.org/2000/svg"><path d="M466.000 403.834 L 346.000 406.000 314.898 421.199 C 251.583 452.141,210.032 510.324,203.662 576.963 C 201.925 595.133,200.390 855.250,200.252 1155.000 L 200.000 1700.000 175.000 1700.023 C 96.218 1700.096,43.966 1728.581,15.122 1787.181 C 3.163 1811.479,2.016 1817.037,2.182 1849.920 C 2.336 1880.200,4.059 1889.677,12.903 1908.872 C 27.749 1941.097,55.506 1969.199,89.080 1985.995 L 117.075 2000.000 700.000 2000.000 L 1282.925 2000.000 1310.920 1985.995 C 1344.480 1969.205,1372.235 1941.114,1387.117 1908.872 C 1396.051 1889.518,1397.675 1880.463,1397.675 1850.000 C 1397.675 1819.458,1396.060 1810.502,1387.025 1790.927 C 1373.583 1761.803,1340.977 1728.941,1310.983 1714.289 L 1287.966 1703.045 843.983 1700.923 L 400.000 1698.802 400.173 1232.401 C 400.350 756.120,402.264 670.584,413.209 649.670 C 424.720 627.678,445.098 612.043,468.330 607.380 C 483.219 604.391,744.710 602.122,1304.000 600.131 C 1933.600 597.889,2122.357 596.102,2137.235 592.242 C 2153.304 588.073,2159.380 583.544,2174.150 564.727 C 2207.055 522.801,2207.550 479.323,2175.603 437.010 C 2166.706 425.226,2154.606 413.709,2148.713 411.417 C 2142.821 409.125,2102.900 405.703,2060.000 403.813 C 1977.104 400.160,668.564 400.177,466.000 403.834 M1701.892 803.514 C 1663.334 805.904,1660.971 806.597,1640.773 821.428 C 1629.218 829.913,1616.947 842.301,1613.505 848.957 C 1601.109 872.928,1599.640 941.497,1600.999 1432.557 C 1602.078 1822.411,1603.420 1925.256,1607.594 1938.000 C 1614.431 1958.869,1642.966 1986.175,1664.874 1992.812 C 1689.847 2000.377,2310.153 2000.377,2335.126 1992.812 C 2358.577 1985.708,2385.771 1958.832,2392.609 1936.000 C 2400.586 1909.366,2400.586 890.634,2392.609 864.000 C 2386.067 842.157,2359.015 814.622,2337.177 807.578 C 2325.883 803.935,2247.799 802.471,2032.000 801.855 C 1872.500 801.400,1723.951 802.146,1701.892 803.514 M2200.000 1350.000 L 2200.000 1700.000 2000.000 1700.000 L 1800.000 1700.000 1800.000 1350.000 L 1800.000 1000.000 2000.000 1000.000 L 2200.000 1000.000 2200.000 1350.000 " fill="#1D1E23" stroke="none" fill-rule="evenodd"/></svg>