<svg viewBox="0 0 2400 2400" fill="none" xmlns="http://www.w3.org/2000/svg"><path d="M741.897 111.711 C 712.550 114.039,700.946 117.031,679.897 127.696 C 603.608 166.350,549.288 225.472,516.077 306.000 L 502.880 338.000 500.914 1192.000 L 498.947 2046.000 515.130 2088.804 C 535.056 2141.512,550.373 2164.991,592.281 2207.068 C 632.522 2247.471,659.520 2265.713,706.000 2283.908 L 742.000 2298.000 1194.000 2299.104 L 1646.000 2300.208 1676.000 2289.697 C 1735.580 2268.822,1766.950 2249.464,1808.067 2208.201 C 1849.386 2166.738,1869.020 2134.841,1890.181 2074.805 L 1901.176 2043.611 1899.071 1190.805 L 1896.966 338.000 1882.806 303.024 C 1849.093 219.749,1789.312 159.220,1701.221 119.165 L 1682.000 110.426 1230.000 109.637 C 981.400 109.203,761.753 110.136,741.897 111.711 M1700.000 1100.000 L 1700.000 1800.000 1200.000 1800.000 L 700.000 1800.000 700.000 1100.000 L 700.000 400.000 1200.000 400.000 L 1700.000 400.000 1700.000 1100.000 M1381.957 2016.769 C 1394.508 2031.363,1398.134 2055.149,1390.568 2073.257 C 1385.829 2084.599,1381.463 2088.327,1369.303 2091.419 C 1343.253 2098.042,1235.418 2100.959,1130.541 2097.878 L 1030.319 2094.934 1019.159 2083.775 C 1009.458 2074.073,1008.017 2069.571,1008.127 2049.308 C 1008.290 2019.551,1014.470 2011.198,1039.041 2007.523 C 1049.468 2005.964,1128.807 2004.983,1215.348 2005.344 L 1372.696 2006.000 1381.957 2016.769 " fill="#1D1E23" stroke="none" fill-rule="evenodd"/></svg>