<svg viewBox="0 0 2400 2400" fill="none" xmlns="http://www.w3.org/2000/svg"><path d="M500.000 1200.000 L 500.000 2300.000 1150.000 2300.000 L 1800.000 2300.000 1800.000 1200.000 L 1800.000 100.000 1150.000 100.000 L 500.000 100.000 500.000 1200.000 M1600.000 1100.000 L 1600.000 1800.000 1150.000 1800.000 L 700.000 1800.000 700.000 1100.000 L 700.000 400.000 1150.000 400.000 L 1600.000 400.000 1600.000 1100.000 M1200.000 1910.948 C 1236.989 1923.373,1267.584 1951.718,1286.136 1990.752 C 1294.500 2008.349,1296.000 2017.357,1296.000 2050.000 C 1296.000 2082.941,1294.531 2091.601,1285.819 2110.017 C 1270.647 2142.088,1243.855 2169.601,1213.008 2184.787 C 1188.987 2196.612,1183.156 2197.818,1150.000 2197.818 C 1116.844 2197.818,1111.013 2196.612,1086.992 2184.787 C 1056.761 2169.904,1030.180 2142.965,1014.319 2111.137 C 1005.273 2092.985,1004.000 2085.440,1004.000 2050.000 C 1004.000 2014.107,1005.213 2007.127,1014.811 1987.785 C 1034.842 1947.422,1078.058 1912.131,1117.375 1904.029 C 1138.055 1899.768,1176.236 1902.965,1200.000 1910.948 " fill="#1D1E23" stroke="none" fill-rule="evenodd"/></svg>