<svg viewBox="0 0 2400 2400" fill="none" xmlns="http://www.w3.org/2000/svg"><path d="M696.000 106.137 C 606.255 125.481,531.293 198.924,507.888 290.438 C 500.155 320.674,500.000 338.532,500.000 1200.000 C 500.000 2061.468,500.155 2079.326,507.888 2109.562 C 526.182 2181.092,573.212 2240.431,636.232 2271.498 C 696.021 2300.971,675.909 2299.861,1150.000 2299.861 C 1623.650 2299.861,1604.052 2300.934,1663.256 2271.751 C 1728.040 2239.818,1779.014 2173.637,1794.003 2102.000 C 1802.822 2059.850,1802.822 340.150,1794.003 298.000 C 1776.144 212.647,1710.612 140.522,1624.000 110.894 L 1598.000 102.000 1160.000 101.266 C 797.387 100.659,717.525 101.497,696.000 106.137 M1600.000 1100.000 L 1600.000 1800.000 1150.000 1800.000 L 700.000 1800.000 700.000 1100.000 L 700.000 400.000 1150.000 400.000 L 1600.000 400.000 1600.000 1100.000 M1213.175 1915.206 C 1245.145 1930.397,1269.961 1955.357,1285.546 1988.000 C 1296.586 2011.122,1297.960 2017.985,1297.960 2050.000 C 1297.960 2081.955,1296.572 2088.921,1285.602 2112.000 C 1269.901 2145.033,1245.056 2169.884,1212.000 2185.622 C 1188.906 2196.617,1181.977 2198.000,1150.000 2198.000 C 1118.023 2198.000,1111.094 2196.617,1088.000 2185.622 C 1054.944 2169.884,1030.099 2145.033,1014.398 2112.000 C 1003.428 2088.921,1002.040 2081.955,1002.040 2050.000 C 1002.040 2018.045,1003.428 2011.079,1014.398 1988.000 C 1034.216 1946.307,1071.724 1915.017,1114.984 1904.088 C 1142.192 1897.215,1185.674 1902.138,1213.175 1915.206 " fill="#1D1E23" stroke="none" fill-rule="evenodd"/></svg>