<svg viewBox="0 0 2400 2400" fill="none" xmlns="http://www.w3.org/2000/svg"><path d="M749.408 108.009 C 713.676 111.884,696.807 117.183,664.281 134.749 C 603.644 167.497,559.412 213.314,529.850 274.000 C 520.205 293.800,510.177 320.800,507.566 334.000 C 504.026 351.898,502.412 572.431,501.220 1201.416 L 499.620 2044.832 510.307 2077.416 C 531.356 2141.596,560.496 2185.148,612.963 2230.846 C 640.732 2255.032,670.326 2271.130,717.319 2287.612 L 752.637 2300.000 1200.000 2300.000 L 1647.363 2300.000 1682.681 2287.612 C 1729.268 2271.272,1756.828 2256.293,1786.000 2231.456 C 1837.736 2187.407,1868.710 2141.395,1889.693 2077.416 L 1900.380 2044.832 1898.780 1201.416 C 1897.583 569.834,1895.983 352.024,1892.410 334.205 C 1886.259 303.523,1862.125 252.657,1838.887 221.394 C 1806.822 178.257,1746.575 134.730,1692.000 115.271 L 1666.000 106.000 1222.000 105.454 C 977.800 105.154,765.134 106.304,749.408 108.009 M1700.000 1100.000 L 1700.000 1800.000 1200.000 1800.000 L 700.000 1800.000 700.000 1100.000 L 700.000 400.000 1200.000 400.000 L 1700.000 400.000 1700.000 1100.000 M1374.708 2010.258 C 1392.311 2023.131,1400.684 2043.187,1395.817 2060.815 C 1387.928 2089.385,1382.294 2092.659,1333.725 2096.904 C 1277.641 2101.805,1041.828 2098.557,1027.192 2092.682 C 999.305 2081.489,996.177 2021.718,1022.852 2009.767 C 1038.124 2002.924,1087.296 2000.872,1222.708 2001.425 C 1358.092 2001.978,1363.843 2002.312,1374.708 2010.258 " fill="#1D1E23" stroke="none" fill-rule="evenodd"/></svg>