<svg viewBox="0 0 2400 2400" fill="none" xmlns="http://www.w3.org/2000/svg"><path d="M880.000 107.865 C 698.095 110.389,710.741 108.420,650.474 143.598 C 592.907 177.200,543.182 236.393,517.368 302.049 L 506.378 330.000 503.635 556.000 C 502.127 680.300,500.692 1066.777,500.446 1414.837 L 500.000 2047.674 513.824 2086.353 C 533.461 2141.292,548.500 2164.518,593.983 2210.140 C 636.986 2253.275,662.996 2269.251,723.997 2289.999 L 753.401 2300.000 1200.000 2300.000 L 1646.599 2300.000 1674.299 2290.437 C 1739.049 2268.083,1771.207 2248.297,1812.410 2205.458 C 1852.067 2164.227,1869.253 2135.325,1890.401 2074.299 L 1900.000 2046.599 1899.545 1418.299 C 1899.295 1072.735,1897.863 686.500,1896.362 560.000 L 1893.634 330.000 1883.001 303.014 C 1858.373 240.505,1820.219 191.441,1769.464 157.012 C 1742.414 138.663,1704.259 118.973,1684.000 112.909 C 1667.273 107.902,1123.295 104.489,880.000 107.865 M1700.000 1100.000 L 1700.000 1800.000 1200.000 1800.000 L 700.000 1800.000 700.000 1100.000 L 700.000 400.000 1200.000 400.000 L 1700.000 400.000 1700.000 1100.000 M1373.214 2008.745 C 1392.995 2019.070,1401.590 2053.588,1389.973 2076.052 C 1379.372 2096.553,1366.478 2098.017,1198.000 2097.844 C 1114.400 2097.759,1041.100 2096.387,1035.111 2094.796 C 1029.122 2093.205,1020.695 2088.118,1016.385 2083.491 C 999.668 2065.549,1002.669 2021.524,1021.320 2011.077 C 1026.209 2008.339,1054.462 2005.084,1086.000 2003.625 C 1159.037 2000.245,1363.929 2003.898,1373.214 2008.745 " fill="#1D1E23" stroke="none" fill-rule="evenodd"/></svg>