<svg viewBox="0 0 2400 2400" fill="none" xmlns="http://www.w3.org/2000/svg"><path d="M756.000 103.626 C 696.207 105.991,682.792 107.726,664.000 115.525 C 627.024 130.870,598.207 150.687,571.132 179.389 C 541.511 210.788,525.017 238.058,511.486 278.000 L 502.000 306.000 502.000 1202.000 L 502.000 2098.000 514.513 2130.430 C 537.691 2190.505,573.504 2234.297,623.912 2264.205 C 661.571 2286.548,679.600 2291.733,735.837 2296.391 C 806.510 2302.244,1582.693 2298.903,1610.000 2292.628 C 1646.519 2284.235,1686.987 2261.056,1719.565 2229.870 C 1753.892 2197.009,1771.672 2170.084,1787.273 2127.340 L 1797.981 2098.000 1797.991 1202.000 C 1797.998 468.098,1797.037 302.744,1792.680 288.000 C 1769.601 209.919,1709.811 144.933,1633.951 115.476 L 1605.456 104.411 1215.728 102.635 C 1001.378 101.658,794.500 102.104,756.000 103.626 M1600.000 1100.000 L 1600.000 1800.000 1150.000 1800.000 L 700.000 1800.000 700.000 1100.000 L 700.000 400.000 1150.000 400.000 L 1600.000 400.000 1600.000 1100.000 M1200.000 1910.948 C 1236.989 1923.373,1267.584 1951.718,1286.136 1990.752 C 1294.500 2008.349,1296.000 2017.357,1296.000 2050.000 C 1296.000 2082.941,1294.531 2091.601,1285.819 2110.017 C 1270.647 2142.088,1243.855 2169.601,1213.008 2184.787 C 1188.987 2196.612,1183.156 2197.818,1150.000 2197.818 C 1116.844 2197.818,1111.013 2196.612,1086.992 2184.787 C 1056.761 2169.904,1030.180 2142.965,1014.319 2111.137 C 1005.273 2092.985,1004.000 2085.440,1004.000 2050.000 C 1004.000 2014.107,1005.213 2007.127,1014.811 1987.785 C 1034.842 1947.422,1078.058 1912.131,1117.375 1904.029 C 1138.055 1899.768,1176.236 1902.965,1200.000 1910.948 " fill="#1D1E23" stroke="none" fill-rule="evenodd"/></svg>