<svg viewBox="0 0 2400 2400" fill="none" xmlns="http://www.w3.org/2000/svg"><path d="M382.000 407.741 C 343.150 409.736,335.425 411.395,316.000 421.919 C 280.884 440.943,236.120 488.214,217.637 525.791 L 202.000 557.582 200.607 1128.791 L 199.214 1700.000 178.607 1700.069 C 105.740 1700.315,38.657 1738.183,12.497 1793.836 C 0.189 1820.021,0.284 1881.798,12.672 1907.389 C 24.072 1930.937,64.393 1971.583,92.000 1987.356 L 114.000 1999.925 700.000 1999.925 L 1286.000 1999.925 1307.935 1987.348 C 1337.730 1970.263,1374.023 1933.041,1386.028 1907.253 C 1399.087 1879.202,1400.124 1823.472,1388.080 1796.938 C 1377.848 1774.394,1343.742 1738.505,1314.380 1719.383 L 1290.760 1704.000 1140.040 1704.000 C 1057.145 1704.000,856.457 1702.802,694.068 1701.337 L 398.815 1698.674 401.752 1244.892 C 405.119 724.766,406.736 669.968,419.453 645.058 C 432.164 620.164,442.500 615.150,488.446 611.591 C 510.352 609.894,856.263 605.586,1257.137 602.018 C 1658.012 598.450,2022.393 594.257,2066.874 592.700 L 2147.748 589.870 2163.627 574.364 C 2182.945 555.500,2196.325 525.868,2196.879 500.716 C 2197.336 479.996,2185.046 447.922,2170.805 432.670 C 2151.865 412.386,2145.450 411.262,2028.283 407.703 C 1907.864 404.045,453.340 404.079,382.000 407.741 M1723.569 807.751 C 1662.928 810.056,1660.656 810.458,1644.342 821.763 C 1623.479 836.221,1614.240 848.955,1607.868 872.037 C 1601.030 896.804,1600.652 1920.287,1607.475 1937.261 C 1609.964 1943.455,1621.633 1958.154,1633.405 1969.927 C 1651.164 1987.685,1658.147 1991.899,1674.405 1994.666 C 1704.043 1999.709,2271.445 1998.418,2311.047 1993.217 C 2336.118 1989.925,2347.395 1986.360,2357.768 1978.448 C 2383.575 1958.764,2388.970 1946.924,2393.316 1900.435 C 2399.492 1834.365,2399.286 904.284,2393.088 874.000 C 2388.760 852.851,2385.615 847.584,2366.610 829.659 L 2345.044 809.319 2175.866 806.659 C 1988.731 803.718,1818.916 804.128,1723.569 807.751 M2200.000 1350.000 L 2200.000 1700.000 2000.000 1700.000 L 1800.000 1700.000 1800.000 1350.000 L 1800.000 1000.000 2000.000 1000.000 L 2200.000 1000.000 2200.000 1350.000 " fill="#1D1E23" stroke="none" fill-rule="evenodd"/></svg>