<svg viewBox="0 0 2400 2400" fill="none" xmlns="http://www.w3.org/2000/svg"><path d="M720.000 303.747 C 655.132 306.267,650.210 308.127,622.378 340.642 C 601.363 365.194,599.135 382.973,600.762 513.192 C 602.334 639.063,602.863 641.865,630.511 670.901 C 640.256 681.136,652.676 689.177,664.000 692.584 C 690.563 700.576,1709.279 700.608,1736.000 692.618 C 1757.189 686.281,1784.880 659.001,1792.803 636.656 C 1798.658 620.145,1800.421 397.375,1794.903 371.448 C 1790.985 353.039,1767.517 322.024,1751.070 313.519 C 1742.553 309.115,1720.957 305.942,1684.243 303.702 C 1624.857 300.079,813.461 300.116,720.000 303.747 M562.000 803.876 C 453.499 805.965,430.649 807.449,412.000 813.616 C 328.381 841.271,254.035 908.783,223.559 984.737 C 202.320 1037.670,202.846 1030.945,201.055 1272.246 C 200.000 1414.275,200.899 1509.489,203.469 1528.035 C 214.847 1610.138,285.267 1682.937,366.000 1696.054 C 379.200 1698.199,437.250 1699.964,495.000 1699.977 L 600.000 1700.000 600.023 1805.000 C 600.036 1862.750,601.801 1920.800,603.946 1934.000 C 613.507 1992.845,657.249 2050.342,713.668 2078.226 C 738.671 2090.583,750.520 2093.869,779.100 2096.373 C 824.596 2100.360,1575.404 2100.360,1620.900 2096.373 C 1649.480 2093.869,1661.329 2090.583,1686.332 2078.226 C 1742.751 2050.342,1786.493 1992.845,1796.054 1934.000 C 1798.199 1920.800,1799.964 1862.750,1799.977 1805.000 L 1800.000 1700.000 1905.000 1699.977 C 1962.750 1699.964,2020.800 1698.199,2034.000 1696.054 C 2114.568 1682.963,2185.156 1610.122,2196.483 1528.383 C 2198.969 1510.445,2199.977 1411.814,2199.099 1272.594 C 2197.684 1048.311,2197.575 1045.714,2188.405 1018.000 C 2176.683 982.574,2159.681 948.087,2142.197 924.268 C 2096.861 862.508,2011.521 810.889,1947.100 806.261 C 1903.177 803.106,708.802 801.049,562.000 803.876 M1943.633 1011.813 C 1977.306 1028.991,1996.101 1059.224,1996.676 1097.133 C 1997.295 1137.999,1978.361 1169.882,1942.000 1189.203 C 1921.337 1200.182,1880.455 1200.922,1859.570 1190.695 C 1796.906 1160.011,1782.189 1078.902,1830.515 1030.576 C 1860.311 1000.780,1906.869 993.057,1943.633 1011.813 M1598.971 1611.000 C 1597.781 1758.846,1595.849 1826.417,1592.516 1836.757 C 1585.742 1857.768,1556.608 1886.325,1535.405 1892.737 C 1521.645 1896.898,1451.398 1898.000,1200.000 1898.000 C 948.602 1898.000,878.355 1896.898,864.595 1892.737 C 843.411 1886.331,814.280 1857.792,807.452 1836.757 C 804.073 1826.344,802.180 1759.891,801.023 1611.000 L 799.382 1400.000 1200.026 1400.000 L 1600.669 1400.000 1598.971 1611.000 " fill="#1D1E23" stroke="none" fill-rule="evenodd"/></svg>