<svg viewBox="0 0 2400 2400" fill="none" xmlns="http://www.w3.org/2000/svg"><path d="M600.000 500.000 L 600.000 700.000 1200.000 700.000 L 1800.000 700.000 1800.000 500.000 L 1800.000 300.000 1200.000 300.000 L 600.000 300.000 600.000 500.000 M462.000 802.467 C 457.600 803.353,444.180 806.073,432.178 808.510 C 344.459 826.324,258.270 899.130,223.365 984.902 C 200.040 1042.218,200.000 1042.907,200.000 1385.831 L 200.000 1700.000 400.000 1700.000 L 600.000 1700.000 600.000 1900.000 L 600.000 2100.000 1200.000 2100.000 L 1800.000 2100.000 1800.000 1900.000 L 1800.000 1700.000 2000.000 1700.000 L 2200.000 1700.000 2200.000 1385.831 C 2200.000 1118.635,2199.080 1067.208,2193.845 1041.865 C 2170.398 928.351,2092.923 846.113,1974.000 808.504 C 1956.097 802.842,1876.203 802.109,1212.000 801.517 C 803.900 801.153,466.400 801.580,462.000 802.467 M1946.501 1012.440 C 1985.734 1032.630,2006.247 1077.772,1996.329 1122.092 C 1979.366 1197.893,1884.978 1225.188,1829.986 1170.196 C 1790.731 1130.941,1790.723 1069.067,1829.967 1029.823 C 1860.757 999.033,1907.034 992.130,1946.501 1012.440 M1600.000 1650.000 L 1600.000 1900.000 1200.000 1900.000 L 800.000 1900.000 800.000 1650.000 L 800.000 1400.000 1200.000 1400.000 L 1600.000 1400.000 1600.000 1650.000 " fill="#1D1E23" stroke="none" fill-rule="evenodd"/></svg>