<svg viewBox="0 0 2400 2400" fill="none" xmlns="http://www.w3.org/2000/svg"><path d="M709.686 307.528 C 660.263 309.867,656.552 310.630,642.529 321.326 C 634.365 327.553,622.928 339.836,617.113 348.623 C 607.098 363.756,606.378 368.255,603.456 433.872 C 601.759 471.972,601.687 533.831,603.295 571.337 C 606.202 639.134,606.287 639.612,618.109 654.185 C 624.649 662.246,637.827 674.502,647.393 681.421 L 664.786 694.000 1197.274 695.058 L 1729.763 696.115 1750.259 681.999 C 1761.532 674.236,1776.614 660.592,1783.776 651.680 L 1796.797 635.477 1797.399 512.738 C 1797.916 407.149,1797.046 386.924,1791.174 367.981 C 1782.443 339.820,1759.766 316.690,1735.346 311.038 C 1715.931 306.544,796.921 303.399,709.686 307.528 M454.000 811.734 C 407.866 814.037,404.911 814.729,378.000 829.528 C 332.663 854.459,310.918 870.282,285.233 897.030 C 240.457 943.659,215.614 991.696,207.935 1046.488 C 201.947 1089.221,198.254 1432.478,203.052 1500.363 C 206.721 1552.275,207.590 1556.050,222.317 1584.075 C 248.814 1634.498,292.206 1671.843,344.000 1688.798 C 367.430 1696.469,381.367 1697.483,485.000 1699.060 L 600.000 1700.810 600.143 1787.405 C 600.390 1937.391,606.198 1968.439,643.093 2016.988 C 661.560 2041.289,708.171 2077.537,732.087 2086.196 C 745.285 2090.975,775.796 2093.722,848.000 2096.633 C 973.246 2101.684,1613.719 2098.418,1643.355 2092.578 C 1677.922 2085.766,1699.972 2072.613,1734.356 2038.295 C 1793.158 1979.603,1799.801 1954.595,1799.929 1791.443 L 1800.000 1700.885 1915.000 1699.044 C 2018.535 1697.387,2032.621 1696.352,2056.289 1688.661 C 2107.757 1671.936,2155.239 1629.452,2182.205 1576.000 C 2191.974 1556.636,2193.677 1547.529,2196.418 1500.000 C 2198.130 1470.300,2199.636 1357.423,2199.765 1249.163 L 2200.000 1052.326 2186.176 1013.647 C 2169.325 966.501,2153.222 939.076,2122.860 905.816 C 2093.924 874.119,2059.822 848.303,2022.558 829.886 C 1995.351 816.440,1990.486 815.431,1935.867 811.906 C 1873.407 807.875,534.395 807.719,454.000 811.734 M1925.995 1008.416 C 1947.605 1013.858,1973.507 1035.431,1984.647 1057.269 C 1995.167 1077.890,1996.027 1115.446,1986.491 1137.785 C 1968.713 1179.429,1939.730 1197.792,1895.704 1195.304 C 1859.892 1193.280,1835.637 1178.512,1818.716 1148.429 C 1789.411 1096.329,1810.835 1032.762,1864.961 1011.218 C 1885.157 1003.178,1902.105 1002.400,1925.995 1008.416 M1598.079 1589.000 C 1596.468 1692.950,1593.764 1791.981,1592.071 1809.069 C 1588.466 1845.449,1577.261 1865.112,1549.754 1883.332 C 1533.234 1894.274,1530.051 1894.828,1469.277 1897.349 C 1387.352 1900.747,1012.648 1900.747,930.723 1897.349 C 869.949 1894.828,866.766 1894.274,850.246 1883.332 C 823.509 1865.622,811.720 1845.502,807.966 1811.177 C 806.211 1795.129,803.469 1696.050,801.873 1591.000 L 798.971 1400.000 1199.990 1400.000 L 1601.010 1400.000 1598.079 1589.000 " fill="#1D1E23" stroke="none" fill-rule="evenodd"/></svg>