<svg viewBox="0 0 2400 2400" fill="none" xmlns="http://www.w3.org/2000/svg"><path d="M868.000 303.970 C 701.879 306.017,667.746 307.406,656.000 312.594 C 636.823 321.063,613.488 347.989,607.311 368.773 C 600.708 390.992,600.681 620.476,607.279 636.791 C 614.425 654.461,640.740 680.714,660.000 689.388 C 677.783 697.397,684.289 697.495,1200.348 697.486 L 1722.695 697.477 1742.144 687.739 C 1752.841 682.382,1768.863 669.291,1777.750 658.647 L 1793.908 639.293 1797.111 560.647 C 1801.284 458.191,1797.880 379.410,1788.354 358.000 C 1778.303 335.412,1760.184 317.580,1741.769 312.155 C 1709.535 302.660,1291.815 298.747,868.000 303.970 M588.000 807.772 C 479.986 809.482,417.365 812.006,408.730 814.998 C 385.082 823.193,334.966 852.071,311.072 871.272 C 269.033 905.051,233.796 955.223,215.107 1007.910 C 203.900 1039.504,198.834 1173.568,201.122 1378.000 C 202.870 1534.151,203.369 1543.020,211.546 1563.318 C 232.066 1614.256,270.577 1655.805,318.579 1678.799 C 356.741 1697.079,380.149 1699.825,498.600 1699.920 L 599.200 1700.000 600.986 1817.000 C 602.465 1913.819,603.979 1937.795,609.768 1956.000 C 623.274 1998.479,653.478 2037.297,694.870 2065.374 C 744.559 2099.079,720.019 2097.281,1154.198 2099.021 C 1545.587 2100.590,1633.288 2098.397,1668.000 2086.170 C 1715.336 2069.497,1770.743 2011.537,1788.422 1960.200 C 1796.792 1935.895,1797.566 1925.536,1799.122 1817.000 L 1800.800 1700.000 1899.400 1699.921 C 2016.026 1699.827,2044.185 1696.519,2082.000 1678.472 C 2130.388 1655.379,2170.660 1611.072,2189.200 1560.531 C 2197.141 1538.884,2197.528 1528.505,2199.068 1296.000 L 2200.670 1054.000 2187.947 1018.000 C 2169.185 964.911,2153.270 937.509,2122.000 904.454 C 2089.250 869.834,2063.327 849.833,2028.273 832.138 C 1977.332 806.423,2009.222 807.640,1352.000 806.334 C 1023.100 805.680,679.300 806.328,588.000 807.772 M1943.581 1014.540 C 1982.568 1033.968,2002.340 1077.357,1992.416 1121.705 C 1967.914 1231.189,1814.026 1218.550,1805.017 1106.314 C 1803.306 1084.994,1804.581 1077.451,1813.007 1059.045 C 1835.429 1010.068,1894.324 989.995,1943.581 1014.540 M1598.492 1591.000 C 1595.058 1839.461,1595.407 1835.538,1574.485 1861.122 C 1565.418 1872.209,1550.800 1885.043,1542.000 1889.640 C 1526.152 1897.921,1522.904 1898.000,1200.000 1898.000 C 877.096 1898.000,873.848 1897.921,858.000 1889.640 C 849.200 1885.043,834.583 1872.211,825.518 1861.126 C 804.387 1835.287,804.847 1840.380,801.501 1595.000 L 798.843 1400.000 1199.987 1400.000 L 1601.131 1400.000 1598.492 1591.000 " fill="#1D1E23" stroke="none" fill-rule="evenodd"/></svg>