<svg viewBox="0 0 2400 2400" fill="none" xmlns="http://www.w3.org/2000/svg"><path d="M804.000 303.811 C 650.207 306.251,653.954 305.585,627.182 335.218 C 603.044 361.936,601.991 368.854,602.085 500.000 C 602.144 582.702,603.668 623.019,607.179 634.779 C 613.815 657.003,643.123 686.257,665.221 692.713 C 678.070 696.467,801.931 697.644,1194.000 697.738 C 1475.600 697.805,1714.817 696.392,1725.593 694.596 C 1741.373 691.967,1749.317 687.424,1766.420 671.249 C 1778.571 659.757,1789.719 644.928,1792.480 636.583 C 1795.796 626.562,1797.414 583.209,1797.653 498.000 C 1798.032 362.566,1798.670 366.860,1773.208 333.361 C 1753.628 307.601,1748.892 306.822,1592.000 303.561 C 1434.654 300.290,1017.601 300.422,804.000 303.811 M456.000 807.939 C 427.071 810.002,411.298 813.489,389.924 822.548 C 314.935 854.330,251.077 917.209,222.590 987.318 C 202.700 1036.267,202.320 1042.040,202.155 1298.000 C 202.000 1537.541,202.017 1538.045,211.018 1561.677 C 237.621 1631.531,300.486 1685.265,368.000 1695.859 C 382.300 1698.104,440.350 1699.953,497.000 1699.970 L 600.000 1700.000 600.030 1803.000 C 600.064 1919.357,603.226 1946.808,620.867 1983.922 C 638.049 2020.072,680.677 2062.306,717.792 2079.952 C 741.629 2091.284,751.878 2093.619,789.792 2096.352 C 847.363 2100.502,1552.637 2100.502,1610.208 2096.352 C 1648.122 2093.619,1658.371 2091.284,1682.208 2079.952 C 1719.323 2062.306,1761.951 2020.072,1779.133 1983.922 C 1796.774 1946.808,1799.936 1919.357,1799.970 1803.000 L 1800.000 1700.000 1903.000 1699.970 C 1959.650 1699.953,2017.665 1698.047,2031.922 1695.734 C 2100.223 1684.653,2162.339 1631.634,2188.982 1561.677 C 2197.982 1538.048,2198.000 1537.509,2198.000 1294.000 L 2198.000 1050.000 2188.628 1020.000 C 2172.040 966.901,2149.870 929.512,2113.918 894.000 C 2059.617 840.364,2004.929 812.887,1942.098 807.675 C 1894.711 803.744,511.403 803.990,456.000 807.939 M1942.726 1012.352 C 2000.555 1040.346,2013.760 1120.650,1968.543 1169.357 C 1935.274 1205.194,1875.454 1208.132,1838.650 1175.737 C 1814.319 1154.320,1804.000 1131.946,1804.000 1100.609 C 1804.000 1071.782,1810.000 1055.112,1827.583 1035.086 C 1854.733 1004.164,1905.221 994.196,1942.726 1012.352 M1598.520 1607.000 C 1596.996 1720.850,1594.664 1820.824,1593.337 1829.165 C 1590.411 1847.561,1563.123 1879.569,1541.068 1890.475 C 1526.742 1897.560,1509.945 1897.927,1200.000 1897.927 C 890.055 1897.927,873.258 1897.560,858.932 1890.475 C 836.937 1879.598,809.634 1847.602,806.629 1829.182 C 805.267 1820.832,802.926 1720.850,801.426 1607.000 L 798.699 1400.000 1199.995 1400.000 L 1601.291 1400.000 1598.520 1607.000 " fill="#1D1E23" stroke="none" fill-rule="evenodd"/></svg>