<svg viewBox="0 0 2400 2400" fill="none" xmlns="http://www.w3.org/2000/svg"><path d="M600.000 500.000 L 600.000 700.000 1200.000 700.000 L 1800.000 700.000 1800.000 500.000 L 1800.000 300.000 1200.000 300.000 L 600.000 300.000 600.000 500.000 M588.000 807.728 C 430.799 810.207,420.766 810.807,398.718 819.054 C 333.924 843.291,263.677 905.435,233.290 965.401 C 208.062 1015.185,207.167 1020.726,203.795 1148.000 C 202.075 1212.900,200.517 1363.650,200.334 1483.000 L 200.000 1700.000 400.000 1700.000 L 600.000 1700.000 600.000 1900.000 L 600.000 2100.000 1200.000 2100.000 L 1800.000 2100.000 1800.000 1900.000 L 1800.000 1700.000 2000.000 1700.000 L 2200.000 1700.000 2200.000 1376.319 L 2200.000 1052.637 2187.612 1017.319 C 2169.299 965.105,2153.234 937.471,2122.000 904.454 C 2089.250 869.834,2063.327 849.833,2028.273 832.138 C 1977.335 806.424,2009.211 807.641,1352.000 806.316 C 1023.100 805.652,679.300 806.288,588.000 807.728 M1943.581 1014.540 C 1982.568 1033.968,2002.340 1077.357,1992.416 1121.705 C 1967.914 1231.189,1814.026 1218.550,1805.017 1106.314 C 1803.306 1084.994,1804.581 1077.451,1813.007 1059.045 C 1835.429 1010.068,1894.324 989.995,1943.581 1014.540 M1600.000 1650.000 L 1600.000 1900.000 1200.000 1900.000 L 800.000 1900.000 800.000 1650.000 L 800.000 1400.000 1200.000 1400.000 L 1600.000 1400.000 1600.000 1650.000 " fill="#1D1E23" stroke="none" fill-rule="evenodd"/></svg>