<svg viewBox="0 0 2400 2400" fill="none" xmlns="http://www.w3.org/2000/svg"><path d="M600.000 500.000 L 600.000 700.000 1200.000 700.000 L 1800.000 700.000 1800.000 500.000 L 1800.000 300.000 1200.000 300.000 L 600.000 300.000 600.000 500.000 M562.000 803.876 C 453.499 805.965,430.649 807.449,412.000 813.616 C 328.415 841.259,254.323 908.517,223.489 984.737 C 202.025 1037.796,202.692 1026.181,201.056 1375.000 L 199.531 1700.000 399.765 1700.000 L 600.000 1700.000 600.000 1900.000 L 600.000 2100.000 1200.000 2100.000 L 1800.000 2100.000 1800.000 1900.000 L 1800.000 1700.000 2000.214 1700.000 L 2200.428 1700.000 2199.110 1373.000 L 2197.792 1046.000 2188.466 1018.000 C 2176.628 982.456,2159.621 948.005,2142.197 924.268 C 2096.861 862.508,2011.521 810.889,1947.100 806.261 C 1903.177 803.106,708.802 801.049,562.000 803.876 M1943.633 1011.813 C 1977.306 1028.991,1996.101 1059.224,1996.676 1097.133 C 1997.295 1137.999,1978.361 1169.882,1942.000 1189.203 C 1921.337 1200.182,1880.455 1200.922,1859.570 1190.695 C 1796.906 1160.011,1782.189 1078.902,1830.515 1030.576 C 1860.311 1000.780,1906.869 993.057,1943.633 1011.813 M1600.000 1650.000 L 1600.000 1900.000 1200.000 1900.000 L 800.000 1900.000 800.000 1650.000 L 800.000 1400.000 1200.000 1400.000 L 1600.000 1400.000 1600.000 1650.000 " fill="#1D1E23" stroke="none" fill-rule="evenodd"/></svg>