<svg viewBox="0 0 2400 2400" fill="none" xmlns="http://www.w3.org/2000/svg"><path d="M664.342 306.868 C 640.729 315.209,614.918 341.645,606.625 365.983 C 601.065 382.299,600.000 403.846,600.000 500.000 C 600.000 631.566,601.843 642.054,629.895 670.105 C 661.896 702.106,621.730 700.000,1200.000 700.000 C 1778.270 700.000,1738.104 702.106,1770.105 670.105 C 1798.157 642.054,1800.000 631.566,1800.000 500.000 C 1800.000 368.434,1798.157 357.946,1770.105 329.895 C 1738.076 297.866,1778.575 299.961,1198.287 300.316 C 741.404 300.595,679.968 301.349,664.342 306.868 M462.000 802.467 C 457.600 803.353,444.180 806.073,432.178 808.510 C 344.459 826.324,258.270 899.130,223.365 984.902 C 200.835 1040.265,200.000 1051.367,200.000 1295.634 C 200.000 1443.693,201.498 1526.791,204.420 1540.803 C 220.053 1615.765,284.235 1679.947,359.197 1695.580 C 371.689 1698.185,425.488 1700.000,490.197 1700.000 L 600.000 1700.000 600.000 1809.803 C 600.000 1874.512,601.815 1928.311,604.420 1940.803 C 620.053 2015.765,684.235 2079.947,759.197 2095.580 C 788.926 2101.779,1611.074 2101.779,1640.803 2095.580 C 1715.765 2079.947,1779.947 2015.765,1795.580 1940.803 C 1798.185 1928.311,1800.000 1874.512,1800.000 1809.803 L 1800.000 1700.000 1909.803 1700.000 C 1974.512 1700.000,2028.311 1698.185,2040.803 1695.580 C 2115.765 1679.947,2179.947 1615.765,2195.580 1540.803 C 2198.502 1526.791,2200.000 1443.693,2200.000 1295.634 C 2200.000 1109.622,2198.957 1066.613,2193.845 1041.865 C 2170.398 928.351,2092.923 846.113,1974.000 808.504 C 1956.097 802.842,1876.203 802.109,1212.000 801.517 C 803.900 801.153,466.400 801.580,462.000 802.467 M1946.501 1012.440 C 1985.734 1032.630,2006.247 1077.772,1996.329 1122.092 C 1979.366 1197.893,1884.978 1225.188,1829.986 1170.196 C 1790.731 1130.941,1790.723 1069.067,1829.967 1029.823 C 1860.757 999.033,1907.034 992.130,1946.501 1012.440 M1600.000 1605.274 C 1600.000 1839.620,1599.926 1840.285,1570.465 1869.745 C 1538.901 1901.310,1554.938 1900.000,1200.000 1900.000 C 845.562 1900.000,861.040 1901.250,829.895 1870.105 C 799.782 1839.992,800.000 1841.910,800.000 1607.287 L 800.000 1400.000 1200.000 1400.000 L 1600.000 1400.000 1600.000 1605.274 " fill="#1D1E23" stroke="none" fill-rule="evenodd"/></svg>