<svg viewBox="0 0 2400 2400" fill="none" xmlns="http://www.w3.org/2000/svg"><path d="M753.681 407.679 C 714.425 414.121,658.453 454.776,631.924 496.118 C 624.902 507.061,615.352 527.262,610.701 541.007 C 602.426 565.468,602.218 572.730,600.885 882.420 L 599.523 1198.840 534.762 1201.632 C 450.593 1205.260,420.839 1209.661,388.427 1223.279 C 313.753 1254.654,249.835 1319.012,220.860 1392.000 C 203.183 1436.526,202.285 1448.805,202.139 1648.000 C 202.002 1835.646,202.112 1838.293,211.018 1861.677 C 230.423 1912.629,270.440 1956.885,318.502 1980.546 C 344.196 1993.195,347.578 1993.788,409.593 1996.511 C 498.408 2000.412,1906.202 2000.303,1988.874 1996.389 C 2053.486 1993.330,2056.665 1992.774,2082.874 1979.943 C 2116.979 1963.247,2162.112 1919.277,2177.321 1887.930 C 2197.430 1846.484,2199.868 1822.823,2199.782 1670.000 C 2199.662 1457.098,2196.072 1423.496,2167.342 1366.338 C 2134.285 1300.571,2063.833 1239.776,1993.634 1216.442 C 1969.398 1208.385,1885.518 1200.125,1827.069 1200.040 L 1800.139 1200.000 1799.069 877.000 L 1798.000 554.000 1783.065 522.721 C 1762.058 478.727,1729.502 445.717,1683.878 422.154 L 1648.729 404.000 1209.365 404.501 C 967.714 404.776,762.657 406.206,753.681 407.679 M1600.000 900.000 L 1600.000 1200.000 1200.000 1200.000 L 800.000 1200.000 800.000 900.000 L 800.000 600.000 1200.000 600.000 L 1600.000 600.000 1600.000 900.000 M1842.726 1512.352 C 1900.555 1540.346,1913.760 1620.650,1868.543 1669.357 C 1835.274 1705.194,1775.454 1708.132,1738.650 1675.737 C 1714.319 1654.320,1704.000 1631.946,1704.000 1600.609 C 1704.000 1571.782,1710.000 1555.112,1727.583 1535.086 C 1754.733 1504.164,1805.221 1494.196,1842.726 1512.352 " fill="#1D1E23" stroke="none" fill-rule="evenodd"/></svg>