<svg viewBox="0 0 2400 2400" fill="none" xmlns="http://www.w3.org/2000/svg"><path d="M912.000 407.796 L 738.000 410.000 717.647 421.283 C 666.679 449.540,631.844 488.105,611.266 539.058 L 602.000 562.000 600.930 881.000 L 599.860 1200.000 586.248 1200.000 C 543.269 1200.000,445.502 1209.398,418.190 1216.155 C 371.480 1227.711,332.768 1251.227,290.000 1294.027 C 250.620 1333.436,232.496 1360.766,217.889 1402.770 C 204.327 1441.766,198.750 1541.532,200.668 1710.829 L 202.199 1846.000 217.123 1874.102 C 243.305 1923.402,280.953 1961.922,323.328 1982.768 C 343.411 1992.647,349.482 1993.442,427.328 1996.385 C 536.000 2000.494,1843.340 2000.480,1962.045 1996.369 C 2052.371 1993.241,2054.538 1992.965,2078.028 1981.591 C 2114.045 1964.151,2160.681 1917.832,2178.477 1881.823 C 2196.676 1845.000,2199.585 1813.928,2199.826 1653.800 C 2200.181 1417.301,2189.567 1374.020,2112.000 1295.646 C 2043.474 1226.407,1994.903 1208.512,1857.000 1201.695 L 1800.000 1198.877 1800.000 877.306 L 1800.000 555.734 1789.522 534.867 C 1762.522 481.096,1730.533 448.370,1675.668 418.389 L 1649.336 404.000 1367.668 404.796 C 1212.751 405.234,1007.700 406.584,912.000 407.796 M1600.000 900.000 L 1600.000 1200.000 1200.000 1200.000 L 800.000 1200.000 800.000 900.000 L 800.000 600.000 1200.000 600.000 L 1600.000 600.000 1600.000 900.000 M1825.995 1508.416 C 1847.605 1513.858,1873.507 1535.431,1884.647 1557.269 C 1895.167 1577.890,1896.027 1615.446,1886.491 1637.785 C 1868.713 1679.429,1839.730 1697.792,1795.704 1695.304 C 1759.892 1693.280,1735.637 1678.512,1718.716 1648.429 C 1689.411 1596.329,1710.835 1532.762,1764.961 1511.218 C 1785.157 1503.178,1802.105 1502.400,1825.995 1508.416 " fill="#1D1E23" stroke="none" fill-rule="evenodd"/></svg>