<svg viewBox="0 0 2400 2400" fill="none" xmlns="http://www.w3.org/2000/svg"><path d="M600.000 800.000 L 600.000 1200.000 400.000 1200.000 L 200.000 1200.000 200.000 1600.000 L 200.000 2000.000 1200.000 2000.000 L 2200.000 2000.000 2200.000 1600.000 L 2200.000 1200.000 2000.000 1200.000 L 1800.000 1200.000 1800.000 800.000 L 1800.000 400.000 1200.000 400.000 L 600.000 400.000 600.000 800.000 M1600.000 900.000 L 1600.000 1200.000 1200.000 1200.000 L 800.000 1200.000 800.000 900.000 L 800.000 600.000 1200.000 600.000 L 1600.000 600.000 1600.000 900.000 M1842.726 1512.352 C 1900.555 1540.346,1913.760 1620.650,1868.543 1669.357 C 1835.274 1705.194,1775.454 1708.132,1738.650 1675.737 C 1714.319 1654.320,1704.000 1631.946,1704.000 1600.609 C 1704.000 1571.782,1710.000 1555.112,1727.583 1535.086 C 1754.733 1504.164,1805.221 1494.196,1842.726 1512.352 " fill="#1D1E23" stroke="none" fill-rule="evenodd"/></svg>