<svg viewBox="0 0 2400 2400" fill="none" xmlns="http://www.w3.org/2000/svg"><path d="M826.000 407.817 C 740.393 409.941,737.450 410.290,717.763 420.681 C 667.236 447.348,630.320 488.199,612.827 536.804 L 602.319 566.000 600.781 882.296 L 599.244 1198.592 520.622 1203.164 C 431.970 1208.320,407.935 1213.386,364.221 1236.128 C 294.947 1272.169,241.159 1334.153,215.155 1407.910 C 204.174 1439.055,198.778 1557.786,201.097 1717.257 L 202.947 1844.514 219.993 1878.914 C 241.493 1922.304,277.648 1959.778,317.256 1979.729 C 344.466 1993.434,344.640 1993.462,419.256 1996.439 C 518.878 2000.413,1867.364 2000.367,1972.672 1996.385 C 2050.704 1993.435,2056.541 1992.668,2076.672 1982.707 C 2127.690 1957.464,2173.173 1907.876,2188.590 1860.690 C 2196.750 1835.717,2197.423 1824.552,2199.060 1687.134 C 2200.895 1533.030,2196.819 1449.854,2185.554 1411.521 C 2164.020 1338.245,2101.213 1267.512,2025.251 1230.990 C 1986.473 1212.345,1947.660 1205.445,1859.000 1201.437 L 1800.000 1198.770 1800.000 877.848 L 1800.000 556.926 1784.117 525.463 C 1758.179 474.083,1726.590 443.614,1669.133 414.554 L 1648.266 404.000 1281.133 404.817 C 1079.210 405.266,874.400 406.616,826.000 407.817 M1600.000 900.000 L 1600.000 1200.000 1200.000 1200.000 L 800.000 1200.000 800.000 900.000 L 800.000 600.000 1200.000 600.000 L 1600.000 600.000 1600.000 900.000 M1843.581 1514.540 C 1882.568 1533.968,1902.340 1577.357,1892.416 1621.705 C 1867.914 1731.189,1714.026 1718.550,1705.017 1606.314 C 1703.306 1584.994,1704.581 1577.451,1713.007 1559.045 C 1735.429 1510.068,1794.324 1489.995,1843.581 1514.540 " fill="#1D1E23" stroke="none" fill-rule="evenodd"/></svg>