<svg viewBox="0 0 2400 2400" fill="none" xmlns="http://www.w3.org/2000/svg"><path d="M600.000 800.000 L 600.000 1200.000 400.000 1200.000 L 200.000 1200.000 200.000 1600.000 L 200.000 2000.000 1200.000 2000.000 L 2200.000 2000.000 2200.000 1600.000 L 2200.000 1200.000 2000.000 1200.000 L 1800.000 1200.000 1800.000 800.000 L 1800.000 400.000 1200.000 400.000 L 600.000 400.000 600.000 800.000 M1600.000 900.000 L 1600.000 1200.000 1200.000 1200.000 L 800.000 1200.000 800.000 900.000 L 800.000 600.000 1200.000 600.000 L 1600.000 600.000 1600.000 900.000 M1843.633 1511.813 C 1877.306 1528.991,1896.101 1559.224,1896.676 1597.133 C 1897.295 1637.999,1878.361 1669.882,1842.000 1689.203 C 1821.337 1700.182,1780.455 1700.922,1759.570 1690.695 C 1696.906 1660.011,1682.189 1578.902,1730.515 1530.576 C 1760.311 1500.780,1806.869 1493.057,1843.633 1511.813 " fill="#1D1E23" stroke="none" fill-rule="evenodd"/></svg>