<svg viewBox="0 0 2400 2400" fill="none" xmlns="http://www.w3.org/2000/svg"><path d="M600.000 800.000 L 600.000 1200.000 400.000 1200.000 L 200.000 1200.000 200.000 1600.000 L 200.000 2000.000 1200.000 2000.000 L 2200.000 2000.000 2200.000 1600.000 L 2200.000 1200.000 2000.000 1200.000 L 1800.000 1200.000 1800.000 800.000 L 1800.000 400.000 1200.000 400.000 L 600.000 400.000 600.000 800.000 M1600.000 900.000 L 1600.000 1200.000 1200.000 1200.000 L 800.000 1200.000 800.000 900.000 L 800.000 600.000 1200.000 600.000 L 1600.000 600.000 1600.000 900.000 M1843.581 1514.540 C 1882.568 1533.968,1902.340 1577.357,1892.416 1621.705 C 1867.914 1731.189,1714.026 1718.550,1705.017 1606.314 C 1703.306 1584.994,1704.581 1577.451,1713.007 1559.045 C 1735.429 1510.068,1794.324 1489.995,1843.581 1514.540 " fill="#1D1E23" stroke="none" fill-rule="evenodd"/></svg>