<svg viewBox="0 0 2400 2400" fill="none" xmlns="http://www.w3.org/2000/svg"><path d="M1162.000 128.121 C 1135.918 132.119,966.285 203.850,666.000 337.861 C 424.252 445.748,389.701 463.568,355.830 497.832 C 331.406 522.539,322.525 536.829,311.560 569.060 C 303.481 592.807,302.984 603.473,301.168 792.000 C 298.643 1054.056,304.167 1226.791,317.413 1300.000 C 365.589 1566.267,483.054 1796.117,667.679 1985.385 C 751.461 2071.275,837.710 2138.145,938.000 2194.971 C 1003.485 2232.076,1102.331 2272.864,1165.524 2288.857 C 1193.183 2295.856,1200.050 2296.248,1221.524 2292.047 C 1262.038 2284.123,1341.928 2253.486,1414.000 2218.233 C 1529.753 2161.615,1620.446 2095.985,1718.084 1998.180 C 1895.713 1820.249,2002.384 1631.175,2063.857 1385.300 C 2087.701 1289.934,2092.321 1251.642,2096.111 1118.000 C 2100.394 966.984,2100.549 710.978,2096.405 632.000 C 2093.538 577.367,2092.604 572.511,2080.298 548.356 C 2065.181 518.681,2035.361 485.557,2007.896 467.933 C 1974.838 446.720,1782.918 358.784,1478.000 225.139 C 1268.845 133.466,1258.247 129.498,1216.000 127.036 C 1197.300 125.946,1173.000 126.434,1162.000 128.121 M1190.106 335.000 C 1193.495 343.011,1199.261 755.152,1199.703 1021.000 L 1200.000 1200.000 1503.000 1200.018 C 1669.650 1200.028,1826.464 1201.215,1851.476 1202.657 L 1896.951 1205.277 1894.420 1226.816 C 1890.434 1260.732,1854.435 1397.910,1837.951 1442.000 C 1803.574 1533.945,1765.326 1608.599,1709.864 1692.000 C 1588.663 1874.257,1427.424 2008.038,1247.510 2075.620 L 1206.000 2091.212 1203.567 1922.606 C 1202.229 1829.873,1200.879 1629.350,1200.567 1477.000 L 1200.000 1200.000 850.000 1200.000 L 500.000 1200.000 500.030 915.000 L 500.059 630.000 777.030 507.000 C 1071.269 376.331,1180.399 328.445,1184.572 328.170 C 1185.987 328.076,1188.477 331.150,1190.106 335.000 " fill="#1D1E23" stroke="none" fill-rule="evenodd"/></svg>