<svg viewBox="0 0 2400 2400" fill="none" xmlns="http://www.w3.org/2000/svg"><path d="M750.000 299.737 L 302.000 499.245 300.891 722.622 C 299.578 987.026,305.291 1234.637,313.843 1284.000 C 372.994 1625.437,546.314 1914.202,811.303 2112.810 C 915.022 2190.547,1068.802 2266.961,1165.863 2288.991 C 1203.836 2297.611,1204.572 2297.626,1233.128 2290.404 C 1297.772 2274.055,1427.905 2216.802,1501.400 2172.378 C 1572.866 2129.179,1659.753 2059.397,1731.523 1987.559 C 1913.028 1805.878,2034.801 1566.388,2084.174 1294.000 C 2094.696 1235.951,2100.671 1002.714,2099.122 710.501 L 2098.000 499.002 1648.118 299.501 C 1400.682 189.775,1198.182 100.052,1198.118 100.115 C 1198.053 100.178,996.400 190.008,750.000 299.737 M1193.455 357.000 C 1194.894 372.950,1197.246 569.150,1198.682 793.000 L 1201.294 1200.000 1545.647 1200.061 C 1735.041 1200.095,1892.170 1201.502,1894.823 1203.188 C 1900.303 1206.671,1892.507 1249.141,1870.076 1338.000 C 1822.431 1526.744,1719.543 1710.157,1582.034 1851.476 C 1473.807 1962.703,1371.550 2030.245,1235.649 2080.270 L 1205.298 2091.442 1202.649 1899.064 C 1201.192 1793.256,1200.000 1592.681,1200.000 1453.343 L 1200.000 1200.000 850.000 1200.000 L 500.000 1200.000 500.021 915.000 L 500.042 630.000 763.021 513.012 C 1074.765 374.331,1180.429 328.178,1186.420 328.076 C 1189.011 328.031,1191.922 339.996,1193.455 357.000 " fill="#1D1E23" stroke="none" fill-rule="evenodd"/></svg>