<svg viewBox="0 0 2400 2400" fill="none" xmlns="http://www.w3.org/2000/svg"><path d="M750.000 299.785 L 302.000 499.404 302.485 818.702 C 302.756 997.558,304.881 1168.203,307.316 1206.666 C 321.649 1433.067,427.710 1697.052,582.327 1891.167 C 623.449 1942.794,727.749 2046.728,780.000 2088.147 C 876.955 2165.003,1010.514 2238.798,1116.000 2273.798 C 1193.496 2299.511,1203.802 2300.089,1260.000 2281.877 C 1387.955 2240.411,1506.765 2176.812,1614.711 2092.000 C 1670.259 2048.357,1777.367 1942.002,1820.157 1888.000 C 1923.091 1758.094,2007.078 1591.784,2053.470 1426.000 C 2093.623 1282.510,2097.068 1234.623,2097.603 812.568 L 2098.000 499.135 1648.000 299.591 C 1400.500 189.841,1198.000 100.073,1198.000 100.106 C 1198.000 100.139,996.400 189.995,750.000 299.785 M1190.106 335.000 C 1193.495 343.011,1199.261 755.152,1199.703 1021.000 L 1200.000 1200.000 1503.000 1200.018 C 1669.650 1200.028,1826.464 1201.215,1851.476 1202.657 L 1896.951 1205.277 1894.420 1226.816 C 1890.434 1260.732,1854.435 1397.910,1837.951 1442.000 C 1803.574 1533.945,1765.326 1608.599,1709.864 1692.000 C 1588.663 1874.257,1427.424 2008.038,1247.510 2075.620 L 1206.000 2091.212 1203.567 1922.606 C 1202.229 1829.873,1200.879 1629.350,1200.567 1477.000 L 1200.000 1200.000 850.000 1200.000 L 500.000 1200.000 500.030 915.000 L 500.059 630.000 777.030 507.000 C 1071.269 376.331,1180.399 328.445,1184.572 328.170 C 1185.987 328.076,1188.477 331.150,1190.106 335.000 " fill="#1D1E23" stroke="none" fill-rule="evenodd"/></svg>