<svg viewBox="0 0 2400 2400" fill="none" xmlns="http://www.w3.org/2000/svg"><path d="M1149.481 126.058 C 1124.436 132.810,414.238 447.962,390.977 462.646 C 366.385 478.170,339.493 507.538,325.042 534.651 C 299.680 582.235,299.999 577.837,300.014 879.840 C 300.028 1159.355,301.816 1205.020,316.314 1296.000 C 381.314 1703.888,654.625 2071.690,1014.000 2234.894 C 1078.392 2264.137,1177.103 2297.206,1200.000 2297.206 C 1222.897 2297.206,1321.608 2264.137,1386.000 2234.894 C 1745.145 2071.794,2018.702 1703.660,2083.683 1296.000 C 2098.183 1205.033,2099.972 1159.367,2099.986 879.840 C 2100.001 577.837,2100.320 582.235,2074.958 534.651 C 2060.507 507.538,2033.615 478.170,2009.023 462.646 C 1983.944 446.814,1274.697 132.601,1248.836 125.865 C 1221.033 118.623,1176.740 118.709,1149.481 126.058 M1200.000 760.000 L 1200.000 1200.000 1550.047 1200.000 L 1900.095 1200.000 1897.588 1217.000 C 1844.787 1575.071,1620.421 1898.947,1326.000 2042.097 C 1284.517 2062.267,1210.445 2092.000,1201.681 2092.000 C 1200.757 2092.000,1200.000 1891.300,1200.000 1646.000 L 1200.000 1200.000 850.000 1200.000 L 500.000 1200.000 500.031 915.000 L 500.062 630.000 847.031 475.404 C 1037.864 390.376,1195.350 320.626,1197.000 320.404 C 1198.650 320.182,1200.000 518.000,1200.000 760.000 " fill="#1D1E23" stroke="none" fill-rule="evenodd"/></svg>