<svg viewBox="0 0 2400 2400" fill="none" xmlns="http://www.w3.org/2000/svg"><path d="M1160.770 124.005 C 1137.303 128.985,821.856 266.558,502.989 410.878 C 395.908 459.343,388.631 463.326,362.979 487.522 C 328.795 519.765,309.667 556.294,304.081 600.000 C 299.035 639.487,299.004 1113.520,304.043 1188.000 C 328.160 1544.474,518.812 1894.798,806.000 2110.351 C 863.112 2153.217,909.269 2181.951,973.401 2214.562 C 1053.755 2255.421,1166.665 2296.000,1200.000 2296.000 C 1234.578 2296.000,1348.458 2254.568,1432.845 2211.285 C 1678.129 2085.478,1884.188 1858.690,1999.161 1588.000 C 2052.761 1461.805,2087.037 1319.360,2095.892 1186.000 C 2100.993 1109.186,2100.990 639.528,2095.888 600.219 C 2087.414 534.923,2046.394 480.801,1982.000 449.954 C 1899.256 410.318,1448.144 210.022,1306.095 149.850 C 1250.009 126.092,1241.065 123.469,1211.090 121.986 C 1192.891 121.086,1170.246 121.994,1160.770 124.005 M1199.576 795.000 L 1200.000 1200.000 1550.181 1200.000 L 1900.363 1200.000 1897.813 1215.000 C 1868.215 1389.160,1814.989 1532.242,1728.776 1669.414 C 1624.736 1834.946,1470.661 1975.908,1316.000 2047.057 C 1282.970 2062.252,1208.324 2092.000,1203.226 2092.000 C 1201.452 2092.000,1200.000 1891.300,1200.000 1646.000 L 1200.000 1200.000 850.000 1200.000 L 500.000 1200.000 500.017 915.000 L 500.034 630.000 847.017 475.587 L 1194.000 321.174 1196.576 355.587 C 1197.993 374.514,1199.343 572.250,1199.576 795.000 " fill="#1D1E23" stroke="none" fill-rule="evenodd"/></svg>