<svg viewBox="0 0 2400 2400" fill="none" xmlns="http://www.w3.org/2000/svg"><path d="M750.000 299.753 L 302.000 499.063 300.815 802.532 C 299.570 1121.492,302.349 1212.361,315.844 1294.000 C 381.471 1691.004,631.130 2040.520,973.401 2214.562 C 1053.755 2255.421,1166.665 2296.000,1200.000 2296.000 C 1253.505 2296.000,1429.646 2221.140,1528.916 2156.210 C 1621.889 2095.399,1729.154 1999.957,1798.883 1916.000 C 1975.540 1703.297,2080.744 1441.551,2096.269 1176.111 C 2098.635 1135.657,2099.868 977.634,2099.185 802.532 L 2098.000 499.064 1648.907 299.532 C 1401.907 189.789,1199.407 100.100,1198.907 100.221 C 1198.408 100.343,996.400 190.132,750.000 299.753 M1199.576 795.000 L 1200.000 1200.000 1550.181 1200.000 L 1900.363 1200.000 1897.813 1215.000 C 1868.215 1389.160,1814.989 1532.242,1728.776 1669.414 C 1624.736 1834.946,1470.661 1975.908,1316.000 2047.057 C 1282.970 2062.252,1208.324 2092.000,1203.226 2092.000 C 1201.452 2092.000,1200.000 1891.300,1200.000 1646.000 L 1200.000 1200.000 850.000 1200.000 L 500.000 1200.000 500.017 915.000 L 500.034 630.000 847.017 475.587 L 1194.000 321.174 1196.576 355.587 C 1197.993 374.514,1199.343 572.250,1199.576 795.000 " fill="#1D1E23" stroke="none" fill-rule="evenodd"/></svg>