<svg viewBox="0 0 2400 2400" fill="none" xmlns="http://www.w3.org/2000/svg"><path d="M750.000 299.754 L 302.000 499.096 300.768 818.548 C 299.485 1151.073,301.232 1204.384,316.476 1298.000 C 382.939 1706.143,655.329 2072.010,1014.000 2234.894 C 1078.392 2264.137,1177.103 2297.206,1200.000 2297.206 C 1222.897 2297.206,1321.608 2264.137,1386.000 2234.894 C 1744.444 2072.113,2017.076 1705.920,2083.521 1298.000 C 2098.768 1204.398,2100.515 1151.086,2099.232 818.548 L 2098.000 499.096 1650.000 299.754 C 1403.600 190.115,1201.100 100.411,1200.000 100.411 C 1198.900 100.411,996.400 190.115,750.000 299.754 M1200.000 760.000 L 1200.000 1200.000 1550.047 1200.000 L 1900.095 1200.000 1897.588 1217.000 C 1844.787 1575.071,1620.421 1898.947,1326.000 2042.097 C 1284.517 2062.267,1210.445 2092.000,1201.681 2092.000 C 1200.757 2092.000,1200.000 1891.300,1200.000 1646.000 L 1200.000 1200.000 850.000 1200.000 L 500.000 1200.000 500.031 915.000 L 500.062 630.000 847.031 475.404 C 1037.864 390.376,1195.350 320.626,1197.000 320.404 C 1198.650 320.182,1200.000 518.000,1200.000 760.000 " fill="#1D1E23" stroke="none" fill-rule="evenodd"/></svg>