<svg viewBox="0 0 2400 2400" fill="none" xmlns="http://www.w3.org/2000/svg"><path d="M750.000 299.758 L 302.000 499.105 302.146 842.553 C 302.304 1213.494,303.141 1232.418,323.949 1336.000 C 391.429 1671.907,588.014 1968.368,864.000 2150.427 C 983.669 2229.369,1157.345 2301.219,1212.659 2294.668 C 1259.564 2289.112,1395.823 2233.407,1479.850 2185.434 C 1589.229 2122.988,1715.258 2015.960,1801.675 1912.132 C 1935.230 1751.667,2031.372 1551.809,2073.586 1346.890 C 2097.016 1233.153,2097.608 1220.859,2097.813 844.482 L 2098.000 498.963 1648.466 299.482 C 1401.222 189.767,1198.722 100.092,1198.466 100.205 C 1198.210 100.318,996.400 190.117,750.000 299.758 M1196.458 422.325 C 1197.810 474.946,1199.160 671.450,1199.458 859.000 L 1200.000 1200.000 1550.000 1200.000 C 1742.500 1200.000,1900.000 1200.872,1900.000 1201.938 C 1900.000 1212.701,1872.965 1332.945,1861.985 1371.018 C 1778.862 1659.248,1573.647 1919.695,1338.000 2036.032 C 1288.401 2060.518,1207.653 2092.986,1204.411 2089.746 C 1203.085 2088.421,1201.431 1887.686,1200.735 1643.668 L 1199.471 1200.000 849.735 1200.000 L 500.000 1200.000 500.039 915.000 L 500.077 630.000 843.039 477.189 C 1031.667 393.142,1187.800 324.889,1190.000 325.514 C 1192.434 326.205,1194.962 364.111,1196.458 422.325 " fill="#1D1E23" stroke="none" fill-rule="evenodd"/></svg>