<svg viewBox="0 0 2400 2400" fill="none" xmlns="http://www.w3.org/2000/svg"><path d="M684.000 103.853 C 651.372 106.105,641.603 108.591,614.898 121.437 C 572.926 141.628,542.281 171.970,521.715 213.698 C 506.707 244.151,505.988 247.452,503.413 297.698 C 499.917 365.946,499.917 2034.054,503.413 2102.302 C 505.981 2152.411,506.738 2155.908,521.479 2185.734 C 541.779 2226.809,572.997 2258.125,613.693 2278.238 C 639.895 2291.188,649.792 2293.787,683.125 2296.476 C 733.818 2300.565,1666.182 2300.565,1716.875 2296.476 C 1750.208 2293.787,1760.105 2291.188,1786.307 2278.238 C 1826.855 2258.198,1858.232 2226.787,1878.337 2186.107 C 1891.939 2158.585,1893.851 2150.862,1896.516 2112.675 C 1900.828 2050.883,1900.472 369.263,1896.131 298.373 C 1892.754 243.214,1891.525 236.805,1879.729 212.843 C 1861.742 176.306,1828.082 144.394,1785.009 123.042 L 1750.631 106.000 1610.316 103.422 C 1429.606 100.101,733.672 100.425,684.000 103.853 M1700.000 1200.000 L 1700.000 1900.000 1200.000 1900.000 L 700.000 1900.000 700.000 1200.000 L 700.000 500.000 1200.000 500.000 L 1700.000 500.000 1700.000 1200.000 " fill="#1D1E23" stroke="none" fill-rule="evenodd"/></svg>