<svg viewBox="0 0 2400 2400" fill="none" xmlns="http://www.w3.org/2000/svg"><path d="M834.000 103.808 L 646.000 106.000 616.192 122.000 C 576.599 143.253,537.919 181.623,520.114 217.309 L 506.489 244.619 503.549 321.309 C 499.723 421.108,499.714 1978.666,503.539 2078.394 C 506.276 2149.776,507.163 2156.206,517.054 2176.394 C 542.926 2229.199,598.030 2277.407,648.000 2290.952 C 672.211 2297.515,710.190 2298.000,1200.000 2298.000 C 1797.696 2298.000,1754.002 2300.404,1806.000 2264.653 C 1850.051 2234.365,1882.140 2190.318,1892.591 2145.794 C 1898.591 2120.234,1901.562 1045.507,1896.931 576.000 L 1893.676 246.000 1884.701 226.182 C 1864.952 182.573,1824.987 143.101,1774.000 116.847 L 1754.000 106.549 1480.000 103.602 C 1184.962 100.428,1122.211 100.448,834.000 103.808 M1700.000 1200.000 L 1700.000 1900.000 1200.000 1900.000 L 700.000 1900.000 700.000 1200.000 L 700.000 500.000 1200.000 500.000 L 1700.000 500.000 1700.000 1200.000 " fill="#1D1E23" stroke="none" fill-rule="evenodd"/></svg>