<svg viewBox="0 0 2400 2400" fill="none" xmlns="http://www.w3.org/2000/svg"><path d="M773.683 103.815 L 649.365 106.000 615.325 122.875 C 572.274 144.218,542.509 173.337,521.566 214.597 C 506.353 244.569,506.338 244.646,503.500 309.297 C 499.803 393.521,499.793 2006.253,503.489 2090.407 C 506.229 2152.790,506.742 2155.680,519.827 2182.407 C 538.243 2220.021,580.464 2262.205,617.152 2279.646 C 640.404 2290.700,651.033 2293.075,691.152 2296.182 C 752.201 2300.910,1647.799 2300.910,1708.848 2296.182 C 1748.967 2293.075,1759.596 2290.700,1782.848 2279.646 C 1820.047 2261.962,1862.061 2219.839,1879.877 2182.363 C 1892.408 2156.005,1893.189 2151.578,1896.758 2086.668 C 1902.400 1984.019,1898.474 275.618,1892.537 250.000 C 1880.890 199.746,1840.786 152.585,1783.761 122.080 L 1754.000 106.160 1534.000 103.442 C 1286.504 100.386,959.735 100.546,773.683 103.815 M1700.000 1200.000 L 1700.000 1900.000 1200.000 1900.000 L 700.000 1900.000 700.000 1200.000 L 700.000 500.000 1200.000 500.000 L 1700.000 500.000 1700.000 1200.000 " fill="#1D1E23" stroke="none" fill-rule="evenodd"/></svg>