<svg viewBox="0 0 2400 2400" fill="none" xmlns="http://www.w3.org/2000/svg"><path d="M858.000 103.788 L 646.000 106.000 620.000 119.854 C 582.702 139.728,533.161 190.078,515.644 225.914 L 502.000 253.828 500.769 1099.914 C 500.091 1565.261,501.160 1993.119,503.144 2050.708 C 506.727 2154.721,506.827 2155.570,518.275 2178.708 C 535.067 2212.646,586.329 2262.962,621.750 2280.274 L 649.500 2293.837 749.750 2296.596 C 896.096 2300.625,1537.642 2300.243,1652.000 2296.059 C 1705.900 2294.086,1756.427 2290.571,1764.281 2288.247 C 1800.541 2277.517,1857.671 2223.834,1879.258 2180.208 L 1894.000 2150.416 1897.281 1916.208 C 1899.086 1787.394,1899.646 1359.865,1898.526 966.144 L 1896.489 250.288 1882.170 222.144 C 1861.428 181.375,1826.132 146.465,1778.992 120.097 L 1755.984 107.228 1450.992 103.788 C 1283.246 101.897,1128.900 100.626,1108.000 100.963 C 1087.100 101.301,974.600 102.572,858.000 103.788 M1700.000 1200.000 L 1700.000 1900.000 1200.000 1900.000 L 700.000 1900.000 700.000 1200.000 L 700.000 500.000 1200.000 500.000 L 1700.000 500.000 1700.000 1200.000 " fill="#1D1E23" stroke="none" fill-rule="evenodd"/></svg>