<svg viewBox="0 0 2400 2400" fill="none" xmlns="http://www.w3.org/2000/svg"><path d="M500.000 1200.000 L 500.000 2200.000 1200.000 2200.000 L 1900.000 2200.000 1900.000 1200.000 L 1900.000 200.000 1200.000 200.000 L 500.000 200.000 500.000 1200.000 M1241.122 409.886 C 1292.607 420.796,1338.046 454.509,1372.703 507.513 L 1392.000 537.026 1392.000 600.000 L 1392.000 662.974 1371.822 693.883 C 1336.456 748.059,1294.845 780.068,1241.834 793.875 C 1212.221 801.588,1191.872 801.613,1162.528 793.970 C 1124.632 784.099,1096.705 768.523,1067.493 740.967 C 983.485 661.718,983.417 538.346,1067.338 459.180 C 1118.845 410.591,1172.553 395.356,1241.122 409.886 M1316.000 1018.058 C 1497.618 1065.153,1635.173 1202.161,1682.075 1382.676 C 1691.020 1417.103,1692.000 1428.690,1692.000 1500.000 C 1692.000 1571.311,1691.026 1582.821,1682.139 1616.562 C 1669.772 1663.516,1659.970 1688.986,1637.715 1732.000 C 1575.046 1853.127,1455.131 1948.437,1320.000 1984.525 C 1289.788 1992.593,1276.418 1993.624,1200.000 1993.778 C 1104.443 1993.970,1081.633 1990.077,1013.701 1961.979 C 929.596 1927.191,844.164 1857.974,792.741 1782.956 C 765.284 1742.901,735.510 1680.015,721.270 1632.000 C 710.233 1594.785,710.006 1592.017,710.273 1498.000 C 710.593 1385.320,714.013 1367.608,749.825 1293.132 C 778.522 1233.453,806.252 1193.806,850.000 1149.904 C 921.275 1078.379,1018.684 1027.313,1116.543 1010.171 C 1170.508 1000.718,1263.276 1004.386,1316.000 1018.058 M1118.000 1213.535 C 1019.847 1246.924,946.301 1319.737,913.497 1416.000 C 907.355 1434.024,906.034 1449.568,906.191 1502.000 C 906.369 1561.999,907.075 1567.830,917.474 1595.269 C 934.922 1641.307,954.587 1671.288,991.650 1708.350 C 1028.712 1745.413,1058.693 1765.078,1104.731 1782.526 C 1132.170 1792.925,1138.001 1793.631,1198.000 1793.809 C 1250.655 1793.966,1265.900 1792.661,1284.000 1786.447 C 1333.394 1769.489,1380.149 1740.104,1415.658 1703.702 C 1441.620 1677.088,1474.145 1618.733,1487.627 1574.579 C 1498.209 1539.924,1499.246 1467.681,1489.691 1430.809 C 1464.714 1334.418,1390.889 1253.320,1297.101 1219.246 C 1277.706 1212.199,1262.771 1210.631,1204.000 1209.473 C 1152.375 1208.455,1129.800 1209.521,1118.000 1213.535 " fill="#1D1E23" stroke="none" fill-rule="evenodd"/></svg>