<svg viewBox="0 0 2400 2400" fill="none" xmlns="http://www.w3.org/2000/svg"><path d="M774.000 203.783 L 646.000 206.000 614.898 221.199 C 572.913 241.717,542.153 272.229,521.781 313.566 C 507.169 343.215,506.055 348.072,503.438 393.566 C 499.803 456.762,499.803 1943.238,503.438 2006.434 C 506.031 2051.507,507.257 2056.959,521.114 2084.996 C 545.924 2135.195,589.305 2172.448,644.000 2190.522 C 664.714 2197.367,695.732 2197.867,1174.495 2199.067 C 1466.030 2199.797,1698.673 2198.768,1719.747 2196.654 C 1789.665 2189.641,1846.899 2149.717,1878.395 2085.989 C 1893.391 2055.647,1893.712 2054.034,1896.977 1992.557 C 1898.805 1958.151,1899.782 1576.300,1899.150 1144.000 L 1898.000 358.000 1888.375 334.000 C 1867.129 281.027,1834.164 245.657,1782.797 220.719 L 1750.000 204.797 1326.000 203.182 C 1092.800 202.293,844.400 202.563,774.000 203.783 M1286.738 422.226 C 1326.648 441.422,1358.131 473.010,1378.568 514.361 L 1394.000 545.585 1394.000 600.000 L 1394.000 654.415 1378.908 684.952 C 1336.526 770.706,1241.686 816.671,1154.166 793.875 C 1053.650 767.694,987.070 667.958,1003.863 568.721 C 1014.542 505.607,1056.044 450.254,1114.256 421.484 C 1165.535 396.140,1233.107 396.431,1286.738 422.226 M1253.905 1004.179 C 1432.696 1024.660,1587.696 1139.746,1658.135 1304.316 C 1719.571 1447.852,1709.745 1614.882,1632.038 1747.935 C 1557.844 1874.973,1442.431 1958.584,1297.337 1990.411 C 1253.798 1999.961,1146.202 1999.961,1102.663 1990.411 C 957.569 1958.584,842.156 1874.973,767.962 1747.935 C 667.973 1576.730,682.107 1358.151,803.523 1198.000 C 877.194 1100.826,1001.715 1025.274,1116.000 1008.408 C 1178.256 999.220,1203.787 998.437,1253.905 1004.179 M1144.452 1206.067 C 1104.126 1214.992,1083.943 1222.765,1050.961 1242.072 C 920.581 1318.393,867.100 1471.676,922.350 1610.686 C 969.390 1729.037,1091.930 1806.992,1217.922 1798.716 C 1261.153 1795.876,1298.751 1784.981,1342.000 1762.761 C 1386.752 1739.769,1439.769 1686.752,1462.761 1642.000 C 1505.272 1559.256,1510.717 1480.177,1479.774 1394.907 C 1452.372 1319.395,1386.972 1253.274,1308.221 1221.465 C 1264.280 1203.717,1187.631 1196.510,1144.452 1206.067 " fill="#1D1E23" stroke="none" fill-rule="evenodd"/></svg>