<svg viewBox="0 0 2400 2400" fill="none" xmlns="http://www.w3.org/2000/svg"><path d="M746.000 207.845 L 638.000 210.000 612.000 223.893 C 576.225 243.010,536.772 283.051,520.008 317.256 C 506.929 343.943,506.586 345.990,503.583 415.256 C 499.583 507.513,499.587 1892.577,503.587 1984.858 C 506.621 2054.845,506.827 2056.049,520.329 2082.858 C 539.560 2121.039,577.843 2158.543,617.687 2178.235 L 648.784 2193.604 763.392 2197.080 C 924.883 2201.978,1706.634 2198.098,1739.422 2192.235 C 1789.467 2183.287,1832.598 2153.450,1865.403 2105.087 C 1900.609 2053.184,1897.502 2137.435,1899.037 1192.993 L 1900.398 355.986 1883.273 322.993 C 1860.690 279.482,1825.254 243.988,1781.446 221.000 L 1749.051 204.000 1301.525 204.845 C 1055.386 205.310,805.400 206.660,746.000 207.845 M1238.265 408.321 C 1292.072 418.118,1343.397 456.287,1375.302 510.233 L 1392.000 538.465 1392.000 600.000 L 1392.000 661.535 1375.321 689.767 C 1329.209 767.823,1250.582 809.564,1173.671 796.820 C 1116.494 787.345,1057.324 746.072,1029.134 696.000 C 985.896 619.202,999.078 525.363,1062.000 462.020 C 1110.356 413.342,1168.518 395.623,1238.265 408.321 M1285.704 1010.582 C 1387.834 1029.888,1477.118 1076.926,1550.133 1149.891 C 1615.208 1214.922,1659.311 1292.311,1682.411 1382.000 C 1692.989 1423.071,1693.724 1431.060,1693.458 1502.000 C 1693.201 1570.195,1692.126 1581.937,1682.984 1616.340 C 1656.820 1714.800,1611.795 1792.962,1543.576 1858.348 C 1472.510 1926.464,1392.146 1969.737,1302.000 1988.430 C 1255.911 1997.987,1151.482 1998.827,1105.409 1990.012 C 1013.537 1972.434,931.557 1929.445,859.939 1861.291 C 787.587 1792.440,742.723 1715.627,717.450 1617.339 C 707.167 1577.347,706.321 1568.284,706.504 1500.000 C 706.767 1401.495,716.354 1358.582,756.099 1278.000 C 852.199 1083.156,1074.862 970.725,1285.704 1010.582 M1138.859 1208.080 C 1110.956 1212.502,1054.037 1238.479,1026.228 1259.482 C 967.529 1303.816,926.907 1362.752,909.953 1428.181 C 902.031 1458.755,902.027 1541.230,909.946 1571.793 C 936.858 1675.649,1024.351 1763.142,1128.207 1790.054 C 1159.672 1798.207,1241.242 1797.970,1273.423 1789.632 C 1328.494 1775.363,1393.538 1733.670,1429.296 1689.718 C 1451.373 1662.581,1479.680 1606.102,1490.301 1568.000 C 1499.982 1533.271,1500.015 1467.518,1490.370 1432.000 C 1461.146 1324.380,1381.405 1241.141,1281.748 1214.227 C 1253.204 1206.517,1171.022 1202.982,1138.859 1208.080 " fill="#1D1E23" stroke="none" fill-rule="evenodd"/></svg>