<svg viewBox="0 0 2400 2400" fill="none" xmlns="http://www.w3.org/2000/svg"><path d="M668.000 202.637 C 647.246 206.025,609.246 221.543,589.052 234.877 C 547.077 262.593,514.625 310.264,504.420 359.197 C 498.161 389.211,498.161 2010.789,504.420 2040.803 C 520.073 2115.861,582.883 2178.004,659.512 2194.247 C 681.457 2198.898,774.639 2199.873,1202.803 2199.931 C 1564.899 2199.979,1725.952 2198.677,1740.803 2195.580 C 1815.765 2179.947,1879.947 2115.765,1895.580 2040.803 C 1901.839 2010.789,1901.839 389.211,1895.580 359.197 C 1881.788 293.062,1834.082 238.710,1766.000 211.568 L 1742.000 202.000 1210.000 201.502 C 917.400 201.228,673.500 201.739,668.000 202.637 M1266.174 412.372 C 1324.845 434.235,1365.108 474.388,1388.135 534.000 C 1395.716 553.628,1397.405 565.651,1397.405 600.000 C 1397.405 634.349,1395.716 646.372,1388.135 666.000 C 1333.793 806.679,1164.329 845.038,1059.645 740.355 C 998.873 679.583,983.613 590.390,1020.665 512.530 C 1045.128 461.125,1102.878 415.685,1158.041 404.437 C 1187.966 398.335,1238.445 402.040,1266.174 412.372 M1260.105 1004.156 C 1336.866 1013.569,1415.353 1043.207,1482.372 1088.090 C 1522.911 1115.240,1584.760 1177.089,1611.910 1217.628 C 1711.754 1366.715,1727.114 1553.800,1652.365 1710.372 C 1584.134 1853.291,1467.853 1948.077,1313.096 1986.927 C 1249.752 2002.828,1150.248 2002.828,1086.904 1986.927 C 932.147 1948.077,815.866 1853.291,747.635 1710.372 C 685.253 1579.704,685.253 1420.296,747.635 1289.628 C 775.059 1232.183,803.569 1191.703,847.636 1147.636 C 957.537 1037.735,1107.766 985.477,1260.105 1004.156 M1162.000 1202.226 C 1157.600 1203.245,1144.180 1206.073,1132.178 1208.510 C 1083.549 1218.385,1025.474 1251.053,986.773 1290.301 C 901.598 1376.680,877.199 1501.656,923.365 1615.098 C 952.108 1685.729,1014.271 1747.892,1084.902 1776.635 C 1141.065 1799.491,1201.659 1805.511,1258.135 1793.845 C 1378.468 1768.990,1468.990 1678.468,1493.845 1558.135 C 1505.511 1501.659,1499.491 1441.065,1476.635 1384.902 C 1442.556 1301.159,1365.915 1234.740,1274.000 1209.291 C 1253.745 1203.683,1176.697 1198.823,1162.000 1202.226 " fill="#1D1E23" stroke="none" fill-rule="evenodd"/></svg>