<svg viewBox="0 0 2400 2400" fill="none" xmlns="http://www.w3.org/2000/svg"><path d="M374.000 13.617 C 347.674 21.978,319.214 38.101,298.159 56.583 C 252.497 96.665,230.651 127.711,212.172 178.778 L 199.953 212.548 200.976 1207.274 L 202.000 2202.000 217.102 2236.133 C 244.043 2297.022,291.618 2349.473,342.539 2374.424 C 353.835 2379.959,378.135 2387.528,396.539 2391.244 C 427.253 2397.445,490.581 2397.981,1168.000 2397.765 L 1906.000 2397.530 1932.000 2385.990 C 2008.528 2352.023,2058.420 2300.080,2087.872 2223.707 L 2100.000 2192.258 2099.566 1275.129 C 2099.327 770.708,2097.937 319.300,2096.476 272.000 L 2093.821 186.000 2079.515 156.000 C 2050.393 94.927,2011.314 55.840,1947.089 23.544 L 1916.178 8.000 1153.089 8.268 C 547.745 8.480,386.692 9.586,374.000 13.617 M1900.000 1100.000 L 1900.000 1900.000 1150.000 1900.000 L 400.000 1900.000 400.000 1100.000 L 400.000 300.000 1150.000 300.000 L 1900.000 300.000 1900.000 1100.000 M1210.842 2016.361 C 1233.314 2025.994,1266.002 2056.818,1280.450 2082.000 C 1291.295 2100.902,1291.927 2104.589,1291.962 2149.159 C 1291.994 2189.398,1290.752 2198.764,1283.500 2212.981 C 1270.842 2237.791,1235.061 2273.143,1209.534 2286.059 C 1189.603 2296.143,1182.749 2297.455,1150.000 2297.455 C 1117.151 2297.455,1110.428 2296.158,1090.204 2285.926 C 1059.205 2270.242,1023.426 2231.531,1011.958 2201.268 C 1004.465 2181.492,1003.465 2172.775,1005.299 2143.192 C 1008.000 2099.607,1017.549 2076.980,1045.182 2048.683 C 1068.142 2025.172,1088.136 2013.244,1113.375 2008.002 C 1137.054 2003.084,1190.576 2007.674,1210.842 2016.361 " fill="#1D1E23" stroke="none" fill-rule="evenodd"/></svg>