<svg viewBox="0 0 2400 2400" fill="none" xmlns="http://www.w3.org/2000/svg"><path d="M200.000 1200.000 L 200.000 2400.000 1150.000 2400.000 L 2100.000 2400.000 2100.000 1200.000 L 2100.000 0.000 1150.000 0.000 L 200.000 0.000 200.000 1200.000 M1900.000 1100.000 L 1900.000 1900.000 1150.000 1900.000 L 400.000 1900.000 400.000 1100.000 L 400.000 300.000 1150.000 300.000 L 1900.000 300.000 1900.000 1100.000 M1200.000 2010.948 C 1236.989 2023.373,1267.584 2051.718,1286.136 2090.752 C 1294.500 2108.349,1296.000 2117.357,1296.000 2150.000 C 1296.000 2182.941,1294.531 2191.601,1285.819 2210.017 C 1270.647 2242.088,1243.855 2269.601,1213.008 2284.787 C 1188.987 2296.612,1183.156 2297.818,1150.000 2297.818 C 1116.844 2297.818,1111.013 2296.612,1086.992 2284.787 C 1056.761 2269.904,1030.180 2242.965,1014.319 2211.137 C 1005.273 2192.985,1004.000 2185.440,1004.000 2150.000 C 1004.000 2114.107,1005.213 2107.127,1014.811 2087.785 C 1034.842 2047.422,1078.058 2012.131,1117.375 2004.029 C 1138.055 1999.768,1176.236 2002.965,1200.000 2010.948 " fill="#1D1E23" stroke="none" fill-rule="evenodd"/></svg>