<svg viewBox="0 0 2400 2400" fill="none" xmlns="http://www.w3.org/2000/svg"><path d="M268.000 402.654 C 247.328 405.992,209.274 421.524,189.052 434.877 C 147.077 462.593,114.625 510.264,104.420 559.197 C 98.181 589.114,98.181 1810.886,104.420 1840.803 C 120.053 1915.765,184.235 1979.947,259.197 1995.580 C 274.316 1998.733,544.452 2000.000,1201.356 2000.000 C 2208.147 2000.000,2141.584 2001.524,2191.531 1977.324 C 2221.110 1962.993,2259.912 1923.912,2275.763 1892.488 C 2300.934 1842.587,2299.854 1873.653,2299.931 1197.197 C 2299.980 762.096,2298.698 574.149,2295.580 559.197 C 2281.788 493.062,2234.082 438.710,2166.000 411.568 L 2142.000 402.000 1210.000 401.520 C 697.400 401.256,273.500 401.766,268.000 402.654 M1900.000 1200.000 L 1900.000 1800.000 1200.000 1800.000 L 500.000 1800.000 500.000 1200.000 L 500.000 600.000 1200.000 600.000 L 1900.000 600.000 1900.000 1200.000 " fill="#1D1E23" stroke="none" fill-rule="evenodd"/></svg>