<svg viewBox="0 0 2400 2400" fill="none" xmlns="http://www.w3.org/2000/svg"><path d="M399.806 7.807 C 358.768 12.042,317.389 34.519,278.000 73.972 C 243.571 108.457,225.989 136.989,209.755 184.720 L 200.000 213.401 200.000 1202.830 L 200.000 2192.258 211.988 2223.345 C 235.733 2284.916,269.498 2328.346,318.443 2360.271 C 357.415 2385.691,379.261 2391.490,452.916 2395.970 C 525.900 2400.409,1389.625 2400.712,1710.000 2396.411 L 1914.000 2393.672 1939.231 2383.023 C 2007.641 2354.147,2061.644 2296.545,2088.355 2223.960 L 2100.852 2190.000 2099.064 1196.000 L 2097.275 202.000 2087.141 173.295 C 2064.559 109.332,2016.752 56.795,1952.000 24.785 L 1914.000 6.000 1170.000 5.552 C 760.800 5.306,414.213 6.321,399.806 7.807 M1900.000 1100.000 L 1900.000 1900.000 1150.000 1900.000 L 400.000 1900.000 400.000 1100.000 L 400.000 300.000 1150.000 300.000 L 1900.000 300.000 1900.000 1100.000 M1212.786 2016.849 C 1240.462 2029.618,1267.642 2055.956,1282.755 2084.650 C 1293.106 2104.303,1294.000 2109.498,1294.000 2150.000 C 1294.000 2190.636,1293.129 2195.655,1282.607 2215.642 C 1267.849 2243.678,1238.075 2272.440,1209.172 2286.580 C 1189.147 2296.378,1181.563 2297.818,1150.000 2297.818 C 1118.437 2297.818,1110.853 2296.378,1090.828 2286.580 C 1059.113 2271.064,1030.312 2241.839,1015.462 2210.105 C 1004.004 2185.620,1003.336 2181.601,1004.636 2145.004 C 1006.243 2099.789,1014.318 2079.536,1042.442 2050.184 C 1077.550 2013.543,1101.253 2003.824,1152.000 2005.261 C 1183.108 2006.141,1194.133 2008.243,1212.786 2016.849 " fill="#1D1E23" stroke="none" fill-rule="evenodd"/></svg>