<svg viewBox="0 0 2400 2400" fill="none" xmlns="http://www.w3.org/2000/svg"><path d="M478.000 403.910 L 246.000 406.000 214.898 421.199 C 173.009 441.670,142.145 472.244,121.900 513.325 C 108.044 541.441,106.157 549.022,103.484 587.325 C 99.600 642.986,99.600 1757.014,103.484 1812.675 C 106.149 1850.862,108.061 1858.585,121.663 1886.107 C 141.808 1926.867,173.133 1958.192,213.893 1978.337 C 241.415 1991.939,249.138 1993.851,287.325 1996.516 C 349.183 2000.833,2030.741 2000.471,2101.716 1996.126 C 2157.091 1992.736,2163.238 1991.554,2186.276 1979.860 C 2220.693 1962.391,2260.744 1921.545,2278.401 1885.906 C 2291.608 1859.252,2292.527 1854.640,2296.350 1795.906 C 2298.851 1757.480,2299.928 1510.984,2299.189 1146.000 L 2298.000 558.000 2288.375 534.000 C 2267.128 481.023,2234.162 445.654,2182.797 420.723 L 2150.000 404.805 1430.000 403.312 C 1034.000 402.491,605.600 402.760,478.000 403.910 M1900.000 1200.000 L 1900.000 1800.000 1200.000 1800.000 L 500.000 1800.000 500.000 1200.000 L 500.000 600.000 1200.000 600.000 L 1900.000 600.000 1900.000 1200.000 " fill="#1D1E23" stroke="none" fill-rule="evenodd"/></svg>