<svg viewBox="0 0 2400 2400" fill="none" xmlns="http://www.w3.org/2000/svg"><path d="M462.000 407.887 L 242.000 410.000 214.966 422.806 C 165.250 446.356,123.618 495.735,109.068 548.411 C 102.450 572.372,102.000 613.833,102.000 1200.000 C 102.000 1786.882,102.443 1827.604,109.090 1851.673 C 120.972 1894.701,148.887 1932.812,190.024 1962.166 C 224.787 1986.972,241.728 1991.937,306.000 1996.154 C 368.473 2000.254,1469.842 2000.537,1886.092 1996.561 L 2154.184 1994.000 2180.227 1981.175 C 2216.992 1963.070,2259.959 1919.290,2279.242 1880.285 L 2294.000 1850.434 2296.594 1696.217 C 2298.020 1611.398,2299.370 1320.358,2299.594 1049.463 L 2300.000 556.926 2284.117 525.463 C 2258.179 474.083,2226.590 443.614,2169.133 414.554 L 2148.266 404.000 1415.133 404.887 C 1011.910 405.375,583.000 406.725,462.000 407.887 M1900.000 1200.000 L 1900.000 1800.000 1200.000 1800.000 L 500.000 1800.000 500.000 1200.000 L 500.000 600.000 1200.000 600.000 L 1900.000 600.000 1900.000 1200.000 " fill="#1D1E23" stroke="none" fill-rule="evenodd"/></svg>