<svg viewBox="0 0 2400 2400" fill="none" xmlns="http://www.w3.org/2000/svg"><path d="M650.000 407.856 L 238.000 410.000 210.000 425.693 C 171.894 447.050,140.348 480.086,121.345 518.536 L 106.011 549.562 103.379 659.781 C 99.965 802.700,99.965 1597.300,103.379 1740.219 L 106.011 1850.438 121.544 1881.867 C 150.053 1939.549,204.013 1981.665,264.013 1993.063 C 284.179 1996.894,497.983 1997.949,1218.543 1997.774 L 2147.087 1997.548 2174.543 1984.169 C 2213.071 1965.396,2260.486 1917.075,2281.770 1874.895 L 2297.465 1843.790 2299.261 1200.804 L 2301.056 557.818 2290.050 535.909 C 2262.481 481.030,2230.876 448.557,2175.668 418.389 L 2149.336 404.000 1605.668 404.856 C 1306.651 405.327,876.600 406.677,650.000 407.856 M1900.000 1200.000 L 1900.000 1800.000 1200.000 1800.000 L 500.000 1800.000 500.000 1200.000 L 500.000 600.000 1200.000 600.000 L 1900.000 600.000 1900.000 1200.000 " fill="#1D1E23" stroke="none" fill-rule="evenodd"/></svg>