<svg viewBox="0 0 2400 2400" fill="none" xmlns="http://www.w3.org/2000/svg"><path d="M492.000 3.564 C 388.467 6.120,385.405 6.434,360.419 17.046 C 322.754 33.044,299.532 49.283,270.868 79.668 C 241.501 110.799,224.988 138.143,211.486 178.000 L 202.000 206.000 202.000 1202.000 L 202.000 2198.000 214.513 2230.430 C 237.691 2290.505,273.504 2334.297,323.912 2364.205 C 364.255 2388.141,379.492 2391.972,452.000 2396.413 C 546.098 2402.177,1878.254 2398.772,1908.000 2392.691 C 1945.014 2385.125,1985.885 2362.111,2019.565 2329.870 C 2053.889 2297.012,2071.669 2270.089,2087.277 2227.340 L 2097.988 2198.000 2097.994 1202.000 C 2097.999 384.896,2097.044 202.767,2092.680 188.000 C 2069.606 109.937,2009.809 44.932,1933.992 15.492 L 1905.539 4.444 1251.769 2.695 C 892.196 1.733,550.300 2.124,492.000 3.564 M1900.000 1100.000 L 1900.000 1900.000 1150.000 1900.000 L 400.000 1900.000 400.000 1100.000 L 400.000 300.000 1150.000 300.000 L 1900.000 300.000 1900.000 1100.000 M1200.000 2010.948 C 1236.989 2023.373,1267.584 2051.718,1286.136 2090.752 C 1294.500 2108.349,1296.000 2117.357,1296.000 2150.000 C 1296.000 2182.941,1294.531 2191.601,1285.819 2210.017 C 1270.647 2242.088,1243.855 2269.601,1213.008 2284.787 C 1188.987 2296.612,1183.156 2297.818,1150.000 2297.818 C 1116.844 2297.818,1111.013 2296.612,1086.992 2284.787 C 1056.761 2269.904,1030.180 2242.965,1014.319 2211.137 C 1005.273 2192.985,1004.000 2185.440,1004.000 2150.000 C 1004.000 2114.107,1005.213 2107.127,1014.811 2087.785 C 1034.842 2047.422,1078.058 2012.131,1117.375 2004.029 C 1138.055 1999.768,1176.236 2002.965,1200.000 2010.948 " fill="#1D1E23" stroke="none" fill-rule="evenodd"/></svg>