<svg viewBox="0 0 2400 2400" fill="none" xmlns="http://www.w3.org/2000/svg"><path d="M200.000 1200.000 L 200.000 2400.000 1150.000 2400.000 L 2100.000 2400.000 2100.000 1200.000 L 2100.000 0.000 1150.000 0.000 L 200.000 0.000 200.000 1200.000 M1900.000 1100.000 L 1900.000 1900.000 1150.000 1900.000 L 400.000 1900.000 400.000 1100.000 L 400.000 300.000 1150.000 300.000 L 1900.000 300.000 1900.000 1100.000 M1213.175 2015.206 C 1245.145 2030.397,1269.961 2055.357,1285.546 2088.000 C 1296.586 2111.122,1297.960 2117.985,1297.960 2150.000 C 1297.960 2181.955,1296.572 2188.921,1285.602 2212.000 C 1269.901 2245.033,1245.056 2269.884,1212.000 2285.622 C 1188.906 2296.617,1181.977 2298.000,1150.000 2298.000 C 1118.023 2298.000,1111.094 2296.617,1088.000 2285.622 C 1054.944 2269.884,1030.099 2245.033,1014.398 2212.000 C 1003.428 2188.921,1002.040 2181.955,1002.040 2150.000 C 1002.040 2118.045,1003.428 2111.079,1014.398 2088.000 C 1034.216 2046.307,1071.724 2015.017,1114.984 2004.088 C 1142.192 1997.215,1185.674 2002.138,1213.175 2015.206 " fill="#1D1E23" stroke="none" fill-rule="evenodd"/></svg>