<svg viewBox="0 0 2400 2400" fill="none" xmlns="http://www.w3.org/2000/svg"><path d="M478.000 303.910 L 246.000 306.000 214.898 321.199 C 173.009 341.670,142.145 372.244,121.900 413.325 C 108.044 441.441,106.157 449.022,103.484 487.325 C 99.600 542.986,99.600 1657.014,103.484 1712.675 C 106.149 1750.862,108.061 1758.585,121.663 1786.107 C 150.806 1845.074,209.216 1888.300,270.404 1896.183 C 285.582 1898.138,410.761 1899.797,548.581 1899.869 L 799.162 1900.000 800.800 1963.000 C 802.001 2009.217,804.150 2029.902,808.868 2040.649 C 818.250 2062.022,844.737 2086.718,864.789 2092.789 C 889.909 2100.395,1510.091 2100.395,1535.211 2092.789 C 1555.263 2086.718,1581.750 2062.022,1591.132 2040.649 C 1595.846 2029.911,1597.999 2009.243,1599.195 1963.229 L 1600.828 1900.459 1869.414 1899.117 C 2128.266 1897.824,2138.870 1897.477,2162.000 1889.538 C 2194.435 1878.405,2209.480 1868.574,2239.267 1839.047 C 2255.770 1822.687,2269.353 1804.256,2278.428 1785.906 C 2291.599 1759.273,2292.530 1754.594,2296.350 1695.906 C 2298.851 1657.480,2299.928 1410.984,2299.189 1046.000 L 2298.000 458.000 2288.375 434.000 C 2267.128 381.023,2234.162 345.654,2182.797 320.723 L 2150.000 304.805 1430.000 303.312 C 1034.000 302.491,605.600 302.760,478.000 303.910 M2040.000 509.593 C 2062.893 522.009,2080.085 536.562,2086.489 548.945 C 2097.481 570.203,2099.829 667.167,2099.829 1100.000 C 2099.829 1516.436,2097.330 1630.177,2087.774 1648.801 C 2076.647 1670.487,2055.096 1687.611,2032.329 1692.856 C 1999.525 1700.413,400.475 1700.413,367.671 1692.856 C 344.774 1687.581,323.364 1670.488,312.030 1648.436 C 302.485 1629.863,300.346 1529.496,300.346 1100.000 C 300.346 670.314,302.484 570.109,312.046 551.564 C 319.305 537.486,336.329 520.167,350.000 512.954 C 369.931 502.438,479.249 501.093,1276.000 501.560 C 2004.563 501.987,2026.400 502.217,2040.000 509.593 " fill="#1D1E23" stroke="none" fill-rule="evenodd"/></svg>