<svg viewBox="0 0 2400 2400" fill="none" xmlns="http://www.w3.org/2000/svg"><path d="M270.000 307.677 C 207.828 312.190,151.446 353.518,119.822 417.756 C 108.755 440.236,106.929 448.994,103.814 494.565 C 99.230 561.610,99.230 1638.390,103.814 1705.435 C 106.940 1751.155,108.734 1759.721,119.961 1782.526 C 143.802 1830.955,190.667 1872.286,241.007 1889.281 C 265.259 1897.467,273.905 1897.759,532.441 1899.112 L 798.881 1900.506 800.923 1963.253 C 803.323 2037.026,806.346 2046.579,835.617 2072.896 C 851.432 2087.115,860.869 2092.313,875.192 2094.694 C 899.734 2098.774,1500.266 2098.774,1524.808 2094.694 C 1539.131 2092.313,1548.568 2087.115,1564.383 2072.896 C 1593.642 2046.589,1596.677 2037.011,1599.072 1963.410 L 1601.109 1900.820 1869.554 1899.155 C 2135.684 1897.505,2138.221 1897.413,2163.668 1888.478 C 2196.658 1876.894,2217.684 1862.237,2245.657 1831.326 C 2271.734 1802.511,2285.867 1775.823,2292.964 1742.000 C 2296.889 1723.293,2298.000 1578.619,2298.000 1086.000 L 2298.000 454.000 2283.065 422.721 C 2262.058 378.727,2229.502 345.717,2183.878 322.154 L 2148.729 304.000 1225.365 304.677 C 717.514 305.049,287.600 306.399,270.000 307.677 M2007.438 505.801 C 2032.875 507.225,2039.721 509.338,2057.801 521.343 C 2091.046 543.416,2092.045 547.318,2096.175 671.256 C 2100.638 805.209,2100.699 1386.434,2096.265 1528.000 C 2093.797 1606.815,2091.413 1637.667,2086.969 1648.299 C 2078.848 1667.734,2055.024 1686.418,2030.397 1692.667 C 2000.373 1700.285,399.627 1700.285,369.603 1692.667 C 358.384 1689.820,342.597 1682.044,334.519 1675.386 C 307.714 1653.291,307.495 1652.138,303.172 1510.312 C 298.811 1367.227,302.047 611.621,307.178 575.128 C 310.963 548.203,325.954 527.007,350.213 514.282 C 365.617 506.201,372.700 505.950,642.000 503.930 C 939.626 501.698,1959.099 503.095,2007.438 505.801 " fill="#1D1E23" stroke="none" fill-rule="evenodd"/></svg>