<svg viewBox="0 0 2400 2400" fill="none" xmlns="http://www.w3.org/2000/svg"><path d="M529.782 407.887 L 341.565 410.000 311.540 424.844 C 261.885 449.393,223.705 495.353,209.148 548.099 C 202.425 572.461,202.000 611.196,202.000 1200.000 C 202.000 1786.882,202.443 1827.604,209.090 1851.673 C 217.255 1881.240,226.372 1897.650,250.833 1926.808 C 272.278 1952.369,320.923 1985.540,346.781 1992.234 C 370.695 1998.425,1802.206 2002.489,1956.761 1996.805 C 2051.307 1993.328,2056.428 1992.729,2076.761 1982.766 C 2109.127 1966.908,2143.310 1937.045,2164.632 1906.000 C 2200.320 1854.037,2197.462 1913.199,2199.034 1193.887 L 2200.425 557.775 2184.329 525.887 C 2158.174 474.070,2126.738 443.688,2069.133 414.554 L 2048.266 404.000 1383.133 404.887 C 1017.310 405.375,633.302 406.725,529.782 407.887 M1095.586 849.790 C 1136.632 870.590,1436.388 1061.658,1506.996 1112.028 C 1547.985 1141.268,1558.035 1158.635,1557.907 1200.000 C 1557.801 1234.316,1549.003 1255.714,1527.589 1273.732 C 1486.444 1308.353,1120.434 1541.683,1082.235 1557.644 C 1046.904 1572.406,1011.712 1563.786,979.525 1532.484 L 956.000 1509.607 956.000 1200.714 L 956.000 891.821 972.332 874.103 C 981.315 864.358,997.965 851.661,1009.332 845.887 C 1035.427 832.633,1064.308 833.940,1095.586 849.790 " fill="#1D1E23" stroke="none" fill-rule="evenodd"/></svg>