<svg viewBox="0 0 2400 2400" fill="none" xmlns="http://www.w3.org/2000/svg"><path d="M554.000 403.896 L 346.000 406.000 314.898 421.199 C 273.009 441.670,242.145 472.244,221.900 513.325 C 208.044 541.441,206.157 549.022,203.484 587.325 C 199.600 642.986,199.600 1757.014,203.484 1812.675 C 206.149 1850.862,208.061 1858.585,221.663 1886.107 C 241.868 1926.990,273.115 1958.183,314.202 1978.490 C 343.649 1993.043,347.895 1993.986,395.634 1996.575 C 461.344 2000.138,1938.656 2000.138,2004.366 1996.575 C 2052.105 1993.986,2056.351 1993.043,2085.798 1978.490 C 2126.843 1958.204,2158.135 1926.983,2178.285 1886.212 C 2192.396 1857.660,2193.670 1852.081,2196.876 1804.780 C 2198.770 1776.851,2199.797 1484.900,2199.159 1156.000 L 2198.000 558.000 2188.375 534.000 C 2167.128 481.023,2134.162 445.654,2082.797 420.723 L 2050.000 404.805 1406.000 403.299 C 1051.800 402.470,668.400 402.739,554.000 403.896 M1089.367 844.625 C 1122.297 861.282,1469.052 1082.287,1523.847 1121.541 C 1562.843 1149.478,1574.077 1204.256,1549.781 1248.000 C 1535.872 1273.042,1535.286 1273.462,1330.000 1405.624 C 1092.039 1558.823,1080.268 1565.502,1048.000 1565.647 C 1019.767 1565.773,988.471 1549.376,969.483 1524.508 L 956.000 1506.850 956.000 1200.213 L 956.000 893.576 968.195 876.994 C 981.835 858.446,1000.407 845.627,1025.297 837.581 C 1045.582 831.023,1067.167 833.396,1089.367 844.625 " fill="#1D1E23" stroke="none" fill-rule="evenodd"/></svg>