<svg viewBox="0 0 2400 2400" fill="none" xmlns="http://www.w3.org/2000/svg"><path d="M368.000 402.651 C 347.315 405.998,309.269 421.527,289.052 434.877 C 247.077 462.593,214.625 510.264,204.420 559.197 C 198.181 589.114,198.181 1810.886,204.420 1840.803 C 220.053 1915.765,284.235 1979.947,359.197 1995.580 C 389.211 2001.839,2010.789 2001.839,2040.803 1995.580 C 2115.765 1979.947,2179.947 1915.765,2195.580 1840.803 C 2201.819 1810.886,2201.819 589.114,2195.580 559.197 C 2181.788 493.062,2134.082 438.710,2066.000 411.568 L 2042.000 402.000 1210.000 401.517 C 752.400 401.251,373.500 401.762,368.000 402.651 M1074.128 837.227 C 1088.305 840.956,1155.902 882.325,1310.000 981.580 C 1428.800 1058.098,1530.288 1124.596,1535.529 1129.352 C 1551.249 1143.618,1563.917 1175.221,1563.961 1200.283 C 1564.011 1229.079,1548.307 1261.208,1525.987 1277.973 C 1517.179 1284.588,1416.395 1350.212,1302.022 1423.803 C 1153.000 1519.690,1088.122 1559.262,1073.079 1563.450 C 1033.805 1574.381,989.546 1556.298,965.077 1519.323 L 954.000 1502.584 954.000 1200.000 L 954.000 897.416 964.843 881.032 C 979.108 859.474,1000.194 843.797,1023.282 837.580 C 1047.571 831.040,1050.529 831.019,1074.128 837.227 " fill="#1D1E23" stroke="none" fill-rule="evenodd"/></svg>