<svg viewBox="0 0 2400 2400" fill="none" xmlns="http://www.w3.org/2000/svg"><path d="M702.000 407.857 L 338.000 410.000 310.000 425.725 C 270.234 448.058,239.164 480.524,220.959 518.766 L 206.090 550.000 203.408 658.000 C 199.801 803.323,200.006 1602.306,203.687 1740.000 C 206.252 1835.967,207.631 1852.439,214.498 1869.121 C 232.683 1913.296,275.279 1956.916,325.941 1983.243 L 346.000 1993.667 584.000 1996.455 C 933.445 2000.550,1889.595 2000.285,1979.513 1996.069 C 2052.455 1992.649,2058.353 1991.779,2079.513 1981.317 C 2105.950 1968.247,2161.463 1915.037,2177.504 1887.392 C 2184.676 1875.031,2189.736 1858.245,2192.577 1837.392 C 2195.385 1816.778,2197.522 1591.627,2198.800 1181.605 L 2200.747 557.209 2189.896 535.605 C 2162.493 481.049,2130.777 448.503,2075.668 418.389 L 2049.336 404.000 1557.668 404.857 C 1287.251 405.328,902.200 406.678,702.000 407.857 M1094.393 850.039 C 1146.394 875.424,1489.376 1096.229,1522.738 1125.800 C 1550.126 1150.075,1556.025 1163.424,1555.912 1200.872 C 1555.808 1235.441,1547.419 1257.024,1527.569 1273.796 C 1482.196 1312.132,1109.291 1548.169,1076.403 1559.369 C 1042.848 1570.797,1011.885 1561.717,977.000 1530.219 L 956.000 1511.259 956.000 1200.441 L 956.000 889.624 971.000 875.439 C 1014.179 834.608,1048.366 827.571,1094.393 850.039 " fill="#1D1E23" stroke="none" fill-rule="evenodd"/></svg>