<svg viewBox="0 0 2400 2400" fill="none" xmlns="http://www.w3.org/2000/svg"><path d="M950.000 7.692 C 907.553 9.919,905.083 10.560,880.000 25.860 C 840.445 49.989,799.073 93.324,788.427 121.777 C 777.145 151.931,758.266 246.706,727.828 426.000 L 703.382 570.000 654.531 620.000 C 547.127 729.931,506.262 789.734,457.957 907.675 C 418.801 1003.276,403.944 1080.585,403.698 1190.000 C 403.510 1274.018,408.237 1319.521,424.136 1386.724 C 451.272 1501.428,501.938 1602.713,581.848 1702.000 C 613.666 1741.533,655.713 1785.924,684.642 1810.525 L 703.284 1826.378 727.870 1972.189 C 756.991 2144.899,773.528 2231.153,784.049 2265.217 C 793.137 2294.640,824.531 2335.185,856.950 2359.367 C 909.280 2398.401,904.255 2397.836,1198.000 2397.705 C 1463.736 2397.586,1475.595 2396.824,1516.000 2377.295 C 1549.029 2361.330,1600.413 2308.440,1611.252 2279.251 C 1622.919 2247.833,1638.772 2168.763,1670.047 1986.000 L 1696.742 1830.000 1741.624 1784.000 C 1812.971 1710.874,1832.289 1688.405,1860.350 1645.907 C 1908.406 1573.125,1937.914 1511.253,1965.229 1426.000 C 1990.100 1348.372,1992.248 1332.505,1994.780 1207.673 L 1997.100 1093.345 1986.239 1051.673 C 1935.839 858.281,1885.350 765.136,1759.635 633.618 C 1731.234 603.906,1705.396 574.567,1702.218 568.421 C 1696.252 556.885,1685.682 502.445,1653.986 320.000 C 1619.503 121.510,1616.470 112.297,1570.176 65.373 C 1520.634 15.157,1510.651 11.551,1410.290 7.611 C 1320.413 4.083,1017.773 4.136,950.000 7.692 M1260.000 611.822 C 1330.042 615.097,1336.354 616.071,1378.000 630.028 C 1432.435 648.271,1496.709 680.750,1542.763 713.286 C 1586.842 744.427,1654.923 812.046,1685.247 854.804 C 1735.195 925.232,1777.352 1025.530,1788.206 1099.758 C 1794.439 1142.383,1790.744 1289.650,1782.419 1330.438 C 1768.490 1398.681,1727.245 1488.389,1682.286 1548.227 C 1648.521 1593.168,1582.442 1658.165,1538.000 1690.151 C 1474.861 1735.595,1383.027 1775.569,1312.000 1788.527 C 1264.330 1797.224,1118.518 1795.986,1078.000 1786.540 C 957.562 1758.464,855.432 1700.619,771.868 1613.148 C 705.505 1543.684,661.378 1472.694,634.402 1392.000 C 614.632 1332.860,610.977 1302.942,610.457 1196.000 C 609.946 1090.812,612.982 1069.891,638.908 1000.000 C 671.943 910.943,713.566 845.886,779.750 779.863 C 858.660 701.146,947.269 649.780,1052.768 621.599 C 1101.934 608.466,1144.878 606.440,1260.000 611.822 " fill="#1D1E23" stroke="none" fill-rule="evenodd"/></svg>