<svg viewBox="0 0 2400 2400" fill="none" xmlns="http://www.w3.org/2000/svg"><path d="M799.921 1.000 C 799.878 1.550,778.535 129.450,752.492 285.222 L 705.142 568.444 659.373 613.222 C 565.406 705.155,511.147 781.486,466.894 884.000 C 377.977 1089.979,377.690 1309.728,466.070 1514.000 C 511.445 1618.875,564.994 1694.442,659.363 1786.768 L 705.122 1831.537 750.370 2102.768 C 775.257 2251.946,796.686 2379.850,797.990 2387.000 L 800.363 2400.000 1199.863 2400.000 L 1599.364 2400.000 1601.701 2389.000 C 1604.399 2376.301,1642.189 2154.120,1674.296 1962.185 L 1696.346 1830.370 1738.309 1788.861 C 1846.604 1681.741,1905.529 1594.347,1949.251 1476.000 C 1986.322 1375.661,1996.000 1318.027,1996.000 1197.618 C 1996.000 1094.960,1992.106 1064.734,1968.401 983.370 C 1926.057 838.031,1860.118 729.867,1745.666 618.000 L 1696.556 570.000 1650.018 294.000 C 1624.422 142.200,1602.501 13.950,1601.306 9.000 L 1599.133 -0.000 1199.566 -0.000 C 979.805 -0.000,799.965 0.450,799.921 1.000 M1320.000 613.889 C 1400.189 631.691,1484.217 668.669,1549.196 714.753 C 1567.225 727.539,1600.881 756.920,1623.988 780.045 C 1703.626 859.745,1758.648 959.614,1784.552 1071.482 C 1796.476 1122.972,1799.351 1237.242,1790.113 1292.488 C 1754.531 1505.283,1615.222 1679.298,1417.939 1757.379 C 1339.500 1788.424,1315.692 1792.838,1215.301 1794.944 C 1113.036 1797.089,1090.809 1794.233,1016.229 1769.361 C 932.955 1741.591,870.176 1705.762,809.307 1651.269 C 701.825 1555.045,638.117 1445.311,613.499 1314.000 C 603.269 1259.431,603.146 1142.311,613.263 1088.000 C 646.893 907.466,766.645 748.876,931.811 666.139 C 986.516 638.736,1040.265 621.129,1104.000 609.732 C 1145.726 602.271,1279.241 604.841,1320.000 613.889 " fill="#1D1E23" stroke="none" fill-rule="evenodd"/></svg>