<svg viewBox="0 0 2400 2400" fill="none" xmlns="http://www.w3.org/2000/svg"><path d="M958.000 3.857 C 919.540 6.094,910.602 8.052,887.015 19.405 C 837.627 43.178,794.900 91.135,779.755 139.796 C 775.684 152.875,757.807 251.422,740.028 358.788 C 722.250 466.155,706.786 558.680,705.666 564.400 C 704.379 570.968,693.950 582.759,677.365 596.400 C 639.693 627.383,572.072 703.135,540.364 749.874 C 398.627 958.798,362.284 1212.921,440.493 1448.200 C 478.107 1561.356,530.843 1650.354,614.361 1741.626 C 639.713 1769.332,661.703 1792.071,663.228 1792.159 C 664.753 1792.246,674.597 1800.231,685.105 1809.904 L 704.211 1827.490 737.899 2029.748 C 756.428 2140.990,774.661 2242.960,778.418 2256.348 C 792.153 2305.300,836.788 2356.513,886.318 2380.152 C 905.073 2389.103,921.852 2393.528,947.112 2396.187 C 993.394 2401.057,1412.811 2400.996,1455.283 2396.112 C 1519.551 2388.723,1580.370 2346.731,1607.954 2290.700 C 1622.807 2260.530,1627.264 2238.816,1665.836 2008.718 L 1696.200 1827.580 1711.100 1815.173 C 1738.804 1792.105,1808.575 1718.216,1836.793 1682.063 C 1912.082 1585.599,1966.710 1459.019,1990.458 1326.000 C 1998.516 1280.864,1999.689 1128.563,1992.322 1084.000 C 1978.517 1000.495,1944.128 896.851,1907.447 828.197 C 1857.272 734.286,1779.934 640.698,1699.221 576.220 C 1697.693 574.999,1682.724 492.132,1665.957 392.072 C 1618.079 106.352,1619.366 110.798,1570.306 61.631 C 1529.143 20.376,1500.733 7.719,1440.107 3.626 C 1385.930 -0.033,1021.872 0.142,958.000 3.857 M1300.943 610.279 C 1604.776 661.992,1821.290 939.455,1796.225 1244.982 C 1784.017 1393.799,1726.291 1518.229,1620.266 1624.274 C 1534.516 1710.038,1434.786 1763.363,1310.000 1790.169 C 1265.118 1799.811,1135.306 1799.864,1090.000 1790.260 C 1044.249 1780.561,970.360 1755.287,933.338 1736.673 C 821.311 1680.347,719.683 1578.748,663.406 1466.818 C 595.447 1331.654,583.665 1157.715,632.465 1010.000 C 666.669 906.463,735.764 806.466,821.518 736.394 C 954.990 627.330,1130.251 581.227,1300.943 610.279 " fill="#1D1E23" stroke="none" fill-rule="evenodd"/></svg>