<svg viewBox="0 0 2400 2400" fill="none" xmlns="http://www.w3.org/2000/svg"><path d="M798.021 13.000 C 796.733 20.150,775.230 148.101,750.236 297.335 L 704.792 568.669 645.016 629.335 C 566.270 709.253,528.338 760.623,487.980 842.000 C 441.434 935.857,414.870 1024.341,404.267 1120.842 C 388.917 1260.559,415.857 1410.432,480.310 1543.887 C 524.329 1635.032,559.797 1683.850,644.852 1770.365 L 704.199 1830.730 750.135 2104.365 C 775.400 2254.864,797.098 2382.950,798.353 2389.000 L 800.636 2400.000 1199.884 2400.000 L 1599.133 2400.000 1601.523 2390.475 C 1602.838 2385.237,1624.728 2256.987,1650.167 2105.475 L 1696.420 1830.000 1747.675 1778.000 C 1775.865 1749.400,1808.925 1713.997,1821.142 1699.327 C 1912.885 1589.160,1979.096 1433.614,1992.446 1296.892 C 1999.262 1227.087,1994.847 1087.758,1984.389 1042.643 C 1970.974 984.775,1938.341 892.429,1914.233 844.114 C 1873.435 762.350,1836.421 712.410,1755.541 630.000 L 1696.655 570.000 1668.118 400.000 C 1634.290 198.472,1604.885 26.332,1601.671 11.000 L 1599.364 0.000 1199.863 -0.000 L 800.363 -0.000 798.021 13.000 M1248.000 607.989 C 1335.586 613.132,1384.884 626.654,1469.444 668.729 C 1526.419 697.078,1564.415 724.114,1611.444 769.768 C 1720.070 875.218,1780.256 997.648,1792.396 1137.856 C 1803.270 1263.445,1783.988 1365.679,1729.147 1473.197 C 1655.567 1617.455,1535.877 1718.904,1376.420 1772.169 C 1322.834 1790.068,1274.968 1796.038,1186.000 1795.917 C 1112.986 1795.818,1085.116 1791.451,1021.188 1770.089 C 917.186 1735.337,859.368 1699.593,781.839 1622.122 C 706.254 1546.593,663.980 1480.423,633.928 1390.605 C 611.017 1322.131,606.879 1287.299,609.144 1182.000 C 610.917 1099.588,612.196 1085.986,621.411 1051.485 C 646.275 958.392,684.328 886.539,749.946 808.781 C 843.849 697.506,994.868 618.154,1132.000 608.035 C 1152.900 606.493,1172.700 604.979,1176.000 604.672 C 1179.300 604.364,1211.700 605.857,1248.000 607.989 " fill="#1D1E23" stroke="none" fill-rule="evenodd"/></svg>