<svg viewBox="0 0 2400 2400" fill="none" xmlns="http://www.w3.org/2000/svg"><path d="M922.536 6.346 C 854.015 22.931,793.852 81.267,776.447 148.000 C 773.865 157.900,756.624 257.722,738.133 369.828 L 704.514 573.655 687.257 587.451 C 657.375 611.340,590.780 680.663,564.612 715.119 C 345.335 1003.847,345.335 1396.153,564.612 1684.881 C 590.772 1719.326,657.375 1788.660,687.232 1812.528 L 704.464 1826.303 738.139 2030.151 C 756.661 2142.268,773.914 2242.100,776.478 2252.000 C 793.674 2318.372,852.600 2375.755,922.166 2393.875 C 956.955 2402.937,1442.732 2403.018,1477.476 2393.968 C 1546.781 2375.917,1602.891 2323.186,1621.696 2258.433 C 1624.960 2247.195,1643.048 2145.604,1661.893 2032.676 L 1696.156 1827.352 1709.078 1816.994 C 1733.035 1797.790,1806.305 1722.228,1829.885 1692.409 C 1895.120 1609.911,1947.476 1504.112,1973.596 1402.000 C 1994.111 1321.800,1997.718 1291.593,1997.718 1200.000 C 1997.718 1108.407,1994.111 1078.200,1973.596 998.000 C 1946.298 891.281,1893.806 787.274,1822.810 699.231 C 1793.803 663.260,1741.778 610.363,1711.173 585.724 L 1696.346 573.788 1661.988 367.894 C 1643.091 254.652,1624.997 153.000,1621.779 142.000 C 1602.304 75.423,1537.086 16.721,1468.454 3.995 C 1455.442 1.582,1347.706 0.132,1196.454 0.333 C 994.680 0.602,941.439 1.770,922.536 6.346 M1263.158 604.226 C 1414.776 620.722,1545.230 688.276,1649.911 804.504 C 1711.974 873.413,1759.428 964.278,1782.194 1057.804 C 1816.327 1198.021,1798.246 1348.776,1732.198 1474.661 C 1646.036 1638.882,1501.874 1748.020,1317.362 1788.713 C 1260.314 1801.295,1139.686 1801.295,1082.638 1788.713 C 948.235 1759.071,841.571 1697.068,749.918 1595.306 C 589.759 1417.482,555.193 1148.518,664.534 930.919 C 776.436 708.220,1016.220 577.360,1263.158 604.226 " fill="#1D1E23" stroke="none" fill-rule="evenodd"/></svg>