<svg viewBox="0 0 2400 2400" fill="none" xmlns="http://www.w3.org/2000/svg"><path d="M919.403 7.765 C 882.162 15.023,812.447 71.921,792.222 111.565 C 779.469 136.563,768.143 191.008,733.919 391.841 L 703.613 569.683 644.655 629.841 C 560.083 716.135,522.226 768.322,480.174 856.583 C 423.921 974.650,402.055 1071.119,402.334 1200.000 C 402.616 1330.784,428.515 1441.172,486.109 1557.081 C 528.461 1642.314,611.716 1748.565,684.866 1810.738 L 703.733 1826.774 730.008 1984.387 C 763.043 2182.549,777.858 2256.536,789.681 2282.399 C 801.382 2307.993,844.457 2353.937,872.610 2370.851 C 917.812 2398.008,917.824 2398.009,1198.000 2397.922 C 1473.658 2397.838,1478.416 2397.495,1521.938 2374.595 C 1552.612 2358.455,1591.820 2320.046,1605.781 2292.461 C 1620.627 2263.125,1630.698 2215.710,1666.189 2008.049 L 1696.603 1830.097 1755.419 1770.049 C 1787.768 1737.022,1822.485 1699.200,1832.568 1686.000 C 1904.309 1592.081,1958.011 1475.549,1984.643 1356.000 C 1993.275 1317.253,1993.998 1305.015,1993.978 1198.000 L 1993.957 1082.000 1980.583 1030.135 C 1963.605 964.298,1939.872 896.060,1917.932 850.000 C 1882.502 775.619,1819.468 690.827,1745.464 618.000 C 1710.367 583.461,1699.846 570.560,1696.534 558.000 C 1694.214 549.200,1679.558 468.200,1663.966 378.000 C 1617.744 110.599,1619.096 115.232,1573.557 67.993 C 1530.400 23.225,1511.172 13.264,1457.909 8.086 C 1412.633 3.685,941.781 3.404,919.403 7.765 M1351.427 621.469 C 1454.172 650.583,1537.071 698.189,1613.373 771.897 C 1698.701 854.325,1754.480 951.173,1781.965 1064.623 C 1791.078 1102.238,1791.990 1113.863,1791.995 1192.476 C 1792.001 1289.163,1787.190 1327.360,1767.667 1385.630 C 1737.143 1476.739,1692.966 1546.966,1620.033 1620.323 C 1545.718 1695.068,1473.655 1739.603,1372.000 1773.606 C 1323.227 1789.920,1272.586 1796.008,1186.000 1795.966 C 1103.428 1795.927,1061.480 1787.312,969.337 1751.473 C 826.070 1695.749,687.460 1549.600,636.358 1400.384 C 614.077 1335.326,611.066 1314.898,609.072 1215.248 C 606.965 1110.002,609.743 1086.505,632.631 1016.000 C 698.377 813.468,865.660 662.271,1075.317 615.881 C 1105.601 609.180,1122.937 608.375,1212.000 609.535 C 1308.108 610.787,1316.162 611.476,1351.427 621.469 " fill="#1D1E23" stroke="none" fill-rule="evenodd"/></svg>