<svg viewBox="0 0 24 24" fill="none" xmlns="http://www.w3.org/2000/svg"><path fill-rule="evenodd" clip-rule="evenodd" d="M2 2H4.5V17H2V2ZM19.5 2H22V17H19.5V2ZM17 13.1602L17.4125 13.875H18.25V2H17V13.1602ZM15.7203 16.5281C15.7401 16.6846 15.75 16.8422 15.75 17C15.75 17.1579 15.7401 17.3156 15.7203 17.4723L16.7988 18.6883L15.8613 20.3121L14.2684 19.986C14.017 20.1775 13.7424 20.3364 13.4512 20.459L12.9375 22H11.0625L10.5488 20.459C10.2575 20.3363 9.98277 20.1774 9.73125 19.986L8.13867 20.3121L7.20117 18.6883L8.2793 17.4723C8.25984 17.3156 8.25005 17.1579 8.25 17C8.25006 16.8423 8.25985 16.6847 8.2793 16.5281L7.20117 15.3121L8.13867 13.6883L9.73125 14.0141C9.98279 13.8227 10.2575 13.6639 10.5488 13.5414L11.0625 12H12.9375L13.4512 13.5414C13.7424 13.6638 14.017 13.8227 14.2684 14.0141L15.8613 13.6883L16.7988 15.3121L15.7203 16.5281ZM10.6742 18.3258C11.0258 18.6775 11.5027 18.875 12 18.875C12.4973 18.875 12.9742 18.6775 13.3258 18.3258C13.6775 17.9742 13.875 17.4973 13.875 17C13.875 16.5027 13.6775 16.0258 13.3258 15.6742C12.9742 15.3226 12.4973 15.125 12 15.125C11.5027 15.125 11.0258 15.3226 10.6742 15.6742C10.3225 16.0258 10.125 16.5027 10.125 17C10.125 17.4973 10.3225 17.9742 10.6742 18.3258ZM14.5273 12.6852L15.75 12.4352V2H13.875V10.8598L14.473 12.6539L14.5273 12.6852ZM11.375 2H12.625V10.75H11.375V2ZM9.52695 12.6539L10.125 10.8598V2H8.875V12.5629L9.47265 12.6852L9.52695 12.6539ZM5.75 2H7.625V12.0832L6.5875 13.875H5.75V2Z" fill="#1D1E23"/></svg>