<svg viewBox="0 0 24 24" fill="none" xmlns="http://www.w3.org/2000/svg"><path fill-rule="evenodd" clip-rule="evenodd" d="M2 2H4.5V17H2V2ZM19.5 2H22V17H19.5V2ZM18.3889 2H17V13.9444H18.3889V2ZM12.3964 14.4703L12.3956 14.4695H12.3964V14.4703ZM12.3964 14.4703L13.2052 15.2961L12.3964 16.1222V14.4703ZM12.3964 19.5301L12.3956 19.5309H12.3964V19.5301ZM12.3964 19.5301L13.2052 18.7043L12.3964 17.8777V19.5301ZM9.7817 15.2078L11.5317 17L9.7817 18.7922L10.2888 19.3101L11.6832 17.8859V21.2996L14.2183 18.7101L12.5444 17L14.2183 15.2902L11.6832 12.7008V16.1145L10.2888 14.6898L9.7817 15.2078ZM15.6111 17C15.6111 20.9629 14.138 22 12.0006 22C9.86278 22 8.38889 20.9629 8.38889 17C8.38889 13.0371 9.86316 12 12.0006 12C14.138 12 15.6111 13.0371 15.6111 17ZM15.7447 12.1078C15.7941 12.1628 15.8419 12.2197 15.8889 12.2778V2H13.9445V10.9495C14.6436 11.172 15.2659 11.5725 15.7447 12.1078ZM12.5556 10.8889C12.3769 10.871 12.1917 10.862 12 10.862C11.8083 10.8622 11.6232 10.8712 11.4445 10.8889V2H12.5556V10.8889ZM10.0556 11.0304V2H8.94446V11.7222C9.27426 11.4174 9.65082 11.1829 10.0556 11.0304ZM7.55556 2V13.5413C7.50101 13.671 7.45023 13.8054 7.40324 13.9444H5.61111V2H7.55556Z" fill="#1D1E23"/></svg>