<svg viewBox="0 0 24 24" fill="none" xmlns="http://www.w3.org/2000/svg"><path d="M17.75 2H7.25C6.91848 2 6.60056 2.1317 6.36613 2.36612C6.13171 2.60054 6 2.91848 6 3.25V20.75C6 21.0815 6.13171 21.3995 6.36613 21.6339C6.60056 21.8683 6.91848 22 7.25 22H17.75C18.0815 22 18.3995 21.8683 18.6339 21.6339C18.8683 21.3995 19 21.0815 19 20.75V3.25C19 2.91848 18.8683 2.60054 18.6339 2.36612C18.3995 2.1317 18.0815 2 17.75 2ZM10 19H7.25V17H10V19ZM10 15H7V13H10V15ZM10 11H7V9H10V11ZM14 19H11V17H14V19ZM14 15H11V13H14V15ZM14 11H11V9H14V11ZM18 21H15V17H18V21ZM18 15H15V13H18V15ZM18 11H15V9H18V11ZM18 7H7V3H18V7Z" fill="#1D1E23"/></svg>