<svg viewBox="0 0 24 24" fill="none" xmlns="http://www.w3.org/2000/svg"><path fill-rule="evenodd" clip-rule="evenodd" d="M19.2684 6.57181C19.0875 6.38998 18.8724 6.2458 18.6355 6.14765C18.3986 6.0495 18.1445 5.99934 17.8881 6.00001H5.41161C5.1551 5.99933 4.901 6.0495 4.66401 6.14765C4.42701 6.2458 4.21183 6.38997 4.03091 6.57181L2 8.60308L4.03091 10.634C4.21081 10.8144 4.42427 10.9578 4.65925 11.0562L4.91746 9.67999L3.84056 8.60308L4.95138 7.49228C5.07343 7.37019 5.23898 7.30156 5.41161 7.30153H17.8881C17.9735 7.30149 18.0581 7.31834 18.137 7.35107C18.2159 7.3838 18.2876 7.43179 18.3479 7.49228L19.4591 8.60308L18.3822 9.67999L18.64 11.0562C18.8751 10.9579 19.0886 10.8144 19.2684 10.634L21.2997 8.60308L19.2684 6.57181ZM10.6157 11.1759H12.6854C12.9711 11.1759 13.1961 11.0497 13.1882 10.8955L13.1336 9.82503C13.1264 9.68293 12.901 9.56909 12.6307 9.56909H10.6707C10.4001 9.56909 10.175 9.68217 10.1675 9.82503L10.1128 10.8955C10.1045 11.0497 10.3299 11.1759 10.6157 11.1759ZM16.9927 9.3165L17.6783 12.9727L8.39672 18.9999H6.44421C5.36807 18.9999 4.60327 18.407 4.7352 17.7032L6.30776 9.3165C6.3839 8.91017 7.08122 8.58789 7.86411 8.58789H15.4363C16.2192 8.58789 16.9173 8.91017 16.9927 9.3165ZM5.99264 17.7063C5.95683 17.9381 6.21239 18.1284 6.56369 18.1284H8.47097L8.8268 13.9558C8.87354 13.4085 9.64964 12.9758 10.5543 12.9758H16.5822L16.0213 9.31952C16.0006 9.18232 15.768 9.07227 15.5023 9.07227H7.79852C7.53241 9.07227 7.30022 9.18232 7.27911 9.31952L5.99264 17.7063ZM11.5494 16.1729H9.843L9.78571 17.2931L11.5494 16.1729ZM9.95646 13.9569L9.93912 14.2962L14.5034 14.2973L15.5637 13.6234H10.5328C10.2237 13.6234 9.96588 13.7719 9.95646 13.9569Z" fill="#1D1E23"/></svg>