<svg viewBox="0 0 24 24" fill="none" xmlns="http://www.w3.org/2000/svg"><path d="M20.2275 12.7398L16.3079 13.8168L13.2176 11.9875L16.3079 10.1582L20.2275 11.2352C20.3837 11.278 20.5501 11.2556 20.6902 11.1726C20.8302 11.0897 20.9324 10.9531 20.9742 10.793C21.0161 10.6328 20.9941 10.4622 20.9133 10.3186C20.8324 10.175 20.6992 10.0702 20.543 10.0273L17.7998 9.27422L20.221 7.84102C20.3589 7.75705 20.459 7.62075 20.4995 7.46167C20.54 7.30259 20.5178 7.13353 20.4376 6.99114C20.3574 6.84874 20.2257 6.74449 20.0711 6.70096C19.9164 6.65743 19.7513 6.67814 19.6114 6.75859L17.1902 8.1918L17.9252 5.3793C17.9671 5.21918 17.9452 5.04857 17.8644 4.90499C17.7836 4.7614 17.6504 4.65661 17.4943 4.61367C17.3381 4.57073 17.1717 4.59315 17.0317 4.676C16.8916 4.75886 16.7894 4.89535 16.7475 5.05547L15.6971 9.07461L12.6081 10.9062V7.24609L15.4792 4.30469C15.5908 4.18694 15.6527 4.0289 15.6516 3.86472C15.6504 3.70055 15.5863 3.54343 15.4731 3.42731C15.3599 3.31119 15.2067 3.24541 15.0466 3.24417C14.8865 3.24293 14.7323 3.30635 14.6174 3.4207L12.61 5.47891V2.625C12.61 2.45924 12.5457 2.30027 12.4314 2.18306C12.3171 2.06585 12.162 2 12.0004 2C11.8387 2 11.6837 2.06585 11.5693 2.18306C11.455 2.30027 11.3908 2.45924 11.3908 2.625V5.47852L9.38335 3.42031C9.26897 3.30288 9.11378 3.23685 8.95191 3.23674C8.79004 3.23663 8.63475 3.30245 8.52022 3.41973C8.40568 3.537 8.34128 3.69612 8.34117 3.86209C8.34106 4.02805 8.40526 4.18726 8.51965 4.30469L11.3889 7.24648V10.9062L8.29867 9.07734L7.2498 5.05664C7.20792 4.89653 7.10572 4.76003 6.96568 4.67718C6.82563 4.59432 6.65923 4.5719 6.50306 4.61484C6.3469 4.65779 6.21377 4.76257 6.13296 4.90616C6.05215 5.04974 6.03028 5.22035 6.07216 5.38047L6.80709 8.19297L4.3859 6.75977C4.24604 6.67931 4.08089 6.6586 3.92624 6.70213C3.77159 6.74566 3.6399 6.84992 3.55971 6.99231C3.47952 7.1347 3.45729 7.30376 3.49784 7.46284C3.53838 7.62192 3.63843 7.75822 3.77631 7.84219L6.19751 9.27539L3.45437 10.0285C3.29816 10.0714 3.16496 10.1762 3.08408 10.3197C3.0032 10.4633 2.98126 10.634 3.02309 10.7941C3.06492 10.9543 3.1671 11.0909 3.30714 11.1738C3.44718 11.2567 3.61362 11.2792 3.76983 11.2363L7.68947 10.1594L10.7797 11.9887L7.68947 13.818L3.76945 12.7398C3.69202 12.7183 3.6112 12.7126 3.53162 12.7231C3.45204 12.7336 3.37527 12.7601 3.30571 12.8012C3.23616 12.8422 3.17518 12.8969 3.12628 12.9621C3.07738 13.0273 3.04152 13.1018 3.02076 13.1812C3 13.2607 2.99474 13.3436 3.00529 13.4252C3.01584 13.5067 3.04199 13.5853 3.08224 13.6565C3.12249 13.7277 3.17605 13.79 3.23985 13.8399C3.30364 13.8898 3.37641 13.9263 3.45399 13.9473L6.19713 14.7008L3.77593 16.1336C3.70556 16.1741 3.64374 16.2285 3.59403 16.2936C3.54433 16.3588 3.50773 16.4334 3.48637 16.5132C3.46501 16.593 3.45931 16.6763 3.4696 16.7584C3.47989 16.8404 3.50596 16.9195 3.54631 16.9912C3.58665 17.0628 3.64047 17.1255 3.70463 17.1757C3.7688 17.2258 3.84204 17.2624 3.9201 17.2834C3.99816 17.3043 4.0795 17.3091 4.15939 17.2975C4.23929 17.286 4.31615 17.2583 4.38552 17.216L6.80671 15.7832L6.07178 18.5957C6.05114 18.675 6.04594 18.7577 6.05647 18.8391C6.06701 18.9204 6.09307 18.9989 6.13317 19.0699C6.17327 19.141 6.22663 19.2032 6.29019 19.2531C6.35376 19.303 6.42628 19.3396 6.50363 19.3607C6.58098 19.3819 6.66164 19.3872 6.741 19.3764C6.82036 19.3656 6.89687 19.3389 6.96616 19.2978C7.03545 19.2567 7.09616 19.202 7.14483 19.1368C7.1935 19.0716 7.22917 18.9973 7.2498 18.918L8.30019 14.8992L11.3904 13.0699V16.7285L8.52117 19.6703C8.46453 19.7284 8.4196 19.7973 8.38894 19.8731C8.35828 19.949 8.34249 20.0303 8.34247 20.1124C8.34246 20.1945 8.35821 20.2758 8.38884 20.3516C8.41947 20.4275 8.46437 20.4964 8.52098 20.5545C8.57759 20.6126 8.64481 20.6586 8.71878 20.6901C8.79276 20.7215 8.87205 20.7377 8.95213 20.7377C9.03221 20.7377 9.11151 20.7216 9.1855 20.6902C9.25949 20.6588 9.32672 20.6127 9.38335 20.5547L11.3908 18.4965V21.375C11.3908 21.5408 11.455 21.6997 11.5693 21.8169C11.6837 21.9342 11.8387 22 12.0004 22C12.162 22 12.3171 21.9342 12.4314 21.8169C12.5457 21.6997 12.61 21.5408 12.61 21.375V18.4961L14.6155 20.5547C14.6721 20.6128 14.7394 20.659 14.8134 20.6905C14.8874 20.722 14.9668 20.7382 15.047 20.7383C15.1271 20.7383 15.2065 20.7222 15.2805 20.6908C15.3546 20.6594 15.4219 20.6133 15.4786 20.5553C15.5353 20.4972 15.5803 20.4283 15.6111 20.3524C15.6418 20.2765 15.6576 20.1951 15.6577 20.1129C15.6577 20.0307 15.642 19.9494 15.6114 19.8734C15.5808 19.7975 15.5358 19.7285 15.4792 19.6703L12.61 16.7285V13.0699L15.7002 14.8992L16.7506 18.918C16.7711 18.9975 16.8067 19.0721 16.8553 19.1375C16.904 19.2029 16.9648 19.2579 17.0342 19.2991C17.1036 19.3404 17.1803 19.3672 17.2598 19.378C17.3394 19.3888 17.4202 19.3834 17.4977 19.3622C17.5752 19.3409 17.6478 19.3041 17.7115 19.254C17.7751 19.2038 17.8284 19.1413 17.8684 19.07C17.9084 18.9987 17.9343 18.92 17.9445 18.8384C17.9548 18.7568 17.9493 18.6739 17.9282 18.5945L17.1933 15.782L19.6145 17.2148C19.7543 17.2953 19.9195 17.316 20.0741 17.2725C20.2288 17.2289 20.3605 17.1247 20.4407 16.9823C20.5209 16.8399 20.5431 16.6709 20.5025 16.5118C20.462 16.3527 20.3619 16.2164 20.2241 16.1324L17.8029 14.6996L20.546 13.9461C20.6236 13.9251 20.6964 13.8886 20.7602 13.8387C20.8239 13.7888 20.8775 13.7265 20.9178 13.6553C20.958 13.5841 20.9842 13.5055 20.9947 13.424C21.0053 13.3424 21 13.2595 20.9792 13.1801C20.9585 13.1006 20.9226 13.0261 20.8737 12.9609C20.8248 12.8957 20.7638 12.841 20.6943 12.8C20.6247 12.759 20.548 12.7324 20.4684 12.7219C20.3888 12.7114 20.308 12.7171 20.2305 12.7387L20.2275 12.7398Z" fill="#1D1E23"/></svg>