<svg viewBox="0 0 24 24" fill="none" xmlns="http://www.w3.org/2000/svg"><path fill-rule="evenodd" clip-rule="evenodd" d="M7.64875 1H16.3513C16.5678 0.99984 16.7823 1.04237 16.9824 1.12517C17.1825 1.20797 17.3643 1.32941 17.5175 1.48255C17.6706 1.63568 17.792 1.8175 17.8748 2.01761C17.9576 2.21772 18.0002 2.43219 18 2.64875V21C18 21.5304 17.7893 22.0391 17.4142 22.4142C17.0391 22.7893 16.5304 23 16 23H7.64875C7.43219 23.0002 7.21772 22.9576 7.01761 22.8748C6.8175 22.792 6.63568 22.6706 6.48255 22.5175C6.32941 22.3643 6.20797 22.1825 6.12517 21.9824C6.04237 21.7823 5.99984 21.5678 6 21.3513V2.64875C5.99984 2.43219 6.04237 2.21772 6.12517 2.01761C6.20797 1.8175 6.32941 1.63568 6.48255 1.48255C6.63568 1.32941 6.8175 1.20797 7.01761 1.12517C7.21772 1.04237 7.43219 0.99984 7.64875 1ZM11.5 22H12.5C12.6326 22 12.7598 21.9473 12.8536 21.8536C12.9473 21.7598 13 21.6326 13 21.5C13 21.3674 12.9473 21.2402 12.8536 21.1465C12.7598 21.0527 12.6326 21 12.5 21H11.5C11.3674 21 11.2402 21.0527 11.1465 21.1465C11.0527 21.2402 11 21.3674 11 21.5C11 21.6326 11.0527 21.7598 11.1465 21.8536C11.2402 21.9473 11.3674 22 11.5 22ZM7 20H17V3H7V20ZM10.25 2.5H13.75C13.8163 2.5 13.8799 2.47366 13.9268 2.42678C13.9737 2.3799 14 2.31631 14 2.25C14 2.1837 13.9737 2.12011 13.9268 2.07323C13.8799 2.02634 13.8163 2 13.75 2H10.25C10.1837 2 10.1201 2.02634 10.0732 2.07323C10.0263 2.12011 10 2.1837 10 2.25C10 2.31631 10.0263 2.3799 10.0732 2.42678C10.1201 2.47366 10.1837 2.5 10.25 2.5ZM14 6H16V18H14V6ZM13 10H11V18H13V10ZM8 14H10V18H8V14Z" fill="#1D1E23"/></svg>