<svg viewBox="0 0 24 24" fill="none" xmlns="http://www.w3.org/2000/svg"><path d="M22.4587 9.9675L18.615 4.5225C18.4831 4.35919 18.3162 4.2275 18.1267 4.13708C17.9373 4.04667 17.7299 3.99983 17.52 4H1V19H17.52C17.7299 19.0002 17.9373 18.9533 18.1267 18.8629C18.3162 18.7725 18.4831 18.6408 18.615 18.4775L22.4587 13.0325C22.809 12.5985 23.0001 12.0577 23.0001 11.5C23.0001 10.9423 22.809 10.4015 22.4587 9.9675ZM19.5 13C19.2033 13 18.9133 12.912 18.6666 12.7472C18.42 12.5824 18.2277 12.3481 18.1142 12.074C18.0007 11.7999 17.9709 11.4983 18.0288 11.2074C18.0867 10.9164 18.2296 10.6491 18.4393 10.4393C18.6491 10.2296 18.9164 10.0867 19.2074 10.0288C19.4983 9.97095 19.7999 10.0007 20.074 10.1142C20.3481 10.2277 20.5824 10.42 20.7472 10.6666C20.912 10.9133 21 11.2033 21 11.5C21 11.8978 20.842 12.2794 20.5607 12.5607C20.2794 12.842 19.8978 13 19.5 13Z" fill="#1D1E23"/></svg>