<svg viewBox="0 0 24 24" fill="none" xmlns="http://www.w3.org/2000/svg"><path fill-rule="evenodd" clip-rule="evenodd" d="M14.5 8.25C14.5 4.10938 16.1797 2 18.25 2C20.3203 2 22 4.10938 22 8.25C22 8.875 21.8431 9.5 21.6861 10.125C21.5292 10.75 21.3723 11.375 21.3723 12H15.1293C15.1293 11.375 14.972 10.75 14.8146 10.125C14.6573 9.5 14.5 8.875 14.5 8.25ZM2 12C2 7.85938 3.67969 5.75 5.75 5.75C7.82031 5.75 9.5 7.85938 9.5 12C9.5 12.625 9.34307 13.25 9.18613 13.875C9.0292 14.5 8.87226 15.125 8.87226 15.75H2.6293C2.6293 15.125 2.47197 14.5 2.31465 13.875C2.15732 13.25 2 12.625 2 12ZM8.8328 17.2998C8.72266 20.055 8.6449 22 5.75 22C2.85039 22 2.75989 19.9921 2.63253 17.1665L2.625 17H8.84492L8.8328 17.2998ZM18.25 18.25C21.1449 18.25 21.2227 16.305 21.3328 13.5498L21.3449 13.25H15.125L15.1325 13.4165C15.2599 16.2421 15.3504 18.25 18.25 18.25Z" fill="#1D1E23"/></svg>