<svg viewBox="0 0 24 24" fill="none" xmlns="http://www.w3.org/2000/svg"><path fill-rule="evenodd" clip-rule="evenodd" d="M22 2.625V2H2V2.625H2.625V15.125H2V15.75H11.375V19.6828L9.05781 22H9.94179L11.375 20.5668V22H12.625V20.5668L14.0578 22H14.9418L12.625 19.6828V15.75H22V15.125H21.375V2.625H22ZM20.75 15.125H3.25V2.625H20.75V15.125ZM18.25 5.12451C18.25 5.81487 17.6904 6.37451 17 6.37451C16.3096 6.37451 15.75 5.81487 15.75 5.12451C15.75 4.43416 16.3096 3.87451 17 3.87451C17.6904 3.87451 18.25 4.43416 18.25 5.12451ZM6.63387 13.5089C6.39945 13.7433 6.08152 13.875 5.75 13.875C5.41848 13.875 5.10054 13.7433 4.86612 13.5089C4.6317 13.2745 4.5 12.9565 4.5 12.625C4.5 12.2935 4.6317 11.9755 4.86612 11.7411C5.10054 11.5067 5.41848 11.375 5.75 11.375C6.08152 11.375 6.39945 11.5067 6.63387 11.7411C6.8683 11.9755 7 12.2935 7 12.625C7 12.9565 6.8683 13.2745 6.63387 13.5089ZM6.19194 12.1831C6.07473 12.0658 5.91576 12 5.75 12C5.58424 12 5.42527 12.0658 5.30806 12.1831C5.19085 12.3003 5.125 12.4592 5.125 12.625C5.125 12.7908 5.19085 12.9497 5.30806 13.0669C5.42527 13.1842 5.58424 13.25 5.75 13.25C5.91576 13.25 6.07473 13.1842 6.19194 13.0669C6.30915 12.9497 6.375 12.7908 6.375 12.625C6.375 12.4592 6.30915 12.3003 6.19194 12.1831ZM15.7494 13.25H8.24941C8.16477 13.25 8.08101 13.2328 8.00322 13.1995C7.92543 13.1661 7.85522 13.1173 7.79685 13.056C7.73848 12.9947 7.69316 12.9222 7.66366 12.8429C7.63415 12.7636 7.62107 12.6791 7.62519 12.5945C7.64238 12.2586 7.93066 12 8.26738 12H15.7494C15.9152 12 16.0741 11.9342 16.1914 11.8169C16.3086 11.6997 16.3744 11.5408 16.3744 11.375V9.39297L15.5658 10.2016C15.5078 10.2596 15.4389 10.3057 15.363 10.3371C15.2872 10.3685 15.2059 10.3847 15.1238 10.3847C15.0417 10.3847 14.9604 10.3685 14.8846 10.3371C14.8088 10.3057 14.7399 10.2596 14.6818 10.2016C14.6238 10.1435 14.5777 10.0746 14.5463 9.99878C14.5149 9.92294 14.4987 9.84166 14.4987 9.75957C14.4987 9.67748 14.5149 9.5962 14.5463 9.52036C14.5777 9.44452 14.6238 9.37562 14.6818 9.31758L16.9998 7L19.3166 9.3168C19.3746 9.37484 19.4207 9.44374 19.4521 9.51958C19.4835 9.59542 19.4997 9.6767 19.4997 9.75879C19.4997 9.84088 19.4835 9.92216 19.4521 9.998C19.4207 10.0738 19.3746 10.1427 19.3166 10.2008C19.2586 10.2588 19.1897 10.3049 19.1138 10.3363C19.038 10.3677 18.9567 10.3839 18.8746 10.3839C18.7925 10.3839 18.7112 10.3677 18.6354 10.3363C18.5596 10.3049 18.4907 10.2588 18.4326 10.2008L17.6244 9.39258V11.375C17.6244 11.8723 17.4269 12.3492 17.0752 12.7008C16.7236 13.0525 16.2467 13.25 15.7494 13.25Z" fill="#1D1E23"/></svg>