<svg viewBox="0 0 24 24" fill="none" xmlns="http://www.w3.org/2000/svg"><path d="M9.39835 17.9781C7.01541 17.7668 4.911 16.8725 3.541 15.4905C2.75971 14.7008 2.28703 13.8467 2.07295 12.8386C1.97529 12.3798 1.97607 11.6185 2.07295 11.1561C2.36984 9.75438 3.26598 8.52795 4.67739 7.59254C7.89592 5.46031 12.8266 5.46978 16.0147 7.61741C16.4054 7.87536 16.7676 8.1751 17.0949 8.51139C17.5781 8.9939 17.918 9.47326 18.2766 10.1781C18.2899 10.2041 18.3547 10.2373 18.4227 10.2511C18.6488 10.2989 18.9504 10.4766 19.1934 10.706C19.3817 10.8837 19.5274 11.0775 19.8868 11.6268C20.2462 12.176 21.89 14.7414 21.9897 14.9088C22.0287 14.974 21.9506 15.0787 21.8654 15.0787C21.8041 15.0787 21.7603 15.0372 21.6701 14.8935C21.606 14.7916 21.1877 14.1349 20.7404 13.4348C19.1575 10.9563 19.0711 10.8414 18.6309 10.6187L18.3988 10.5003H17.7179C17.0382 10.5003 17.0374 10.5003 17.0206 10.5726C16.9304 10.9674 16.914 11.0661 16.9335 11.0859C16.946 11.0977 17.3324 11.32 17.7929 11.5798L18.6289 12.0537L18.5766 12.1642C18.5477 12.2254 18.5149 12.2752 18.5031 12.2752C18.4914 12.2752 17.7883 11.8803 16.9406 11.4006C16.0928 10.9208 15.3495 10.5121 15.2889 10.4952C15.0479 10.428 14.6771 10.6981 14.6771 10.941C14.6771 11.1838 14.7498 11.2592 16.2397 12.4924C17.1691 13.2615 17.7007 13.7239 17.782 13.8329C17.9297 14.0303 18.0789 14.3245 18.2168 14.6854C18.459 15.3203 18.8528 15.6745 19.4989 15.838L19.7114 15.8921L19.6934 16.0105C19.6887 16.0556 19.6785 16.0999 19.663 16.1424C19.6356 16.174 19.2075 16.0362 18.9598 15.9157C18.5723 15.7274 18.3063 15.4593 18.0445 14.9934C18.0426 14.9902 17.8906 15.0427 17.707 15.1118C17.3804 15.2323 17.3656 15.2421 17.0574 15.5462C15.7436 16.8421 13.8595 17.6701 11.5844 17.9516C11.2156 17.997 9.79291 18.0172 9.39992 17.9824L9.39835 17.9781ZM11.6641 17.5793C12.7079 17.4399 13.5173 17.2302 14.3646 16.88C15.2537 16.512 16.0925 15.9829 16.6792 15.419L16.9105 15.1971L16.3284 14.916C15.7065 14.6159 15.6452 14.5661 15.5655 14.2976C15.5155 14.1282 15.5721 13.9482 15.7311 13.7741L15.8546 13.6382L15.5846 13.4309C15.3709 13.267 15.3041 13.194 15.2631 13.0866C15.2303 13.0014 15.219 12.9093 15.2304 12.8186C15.2418 12.7279 15.2755 12.6415 15.3284 12.5674L15.4104 12.4489L14.5576 12.2973C14.0888 12.214 13.6513 12.1298 13.5861 12.1101C13.4583 12.0706 13.3279 11.9253 13.2943 11.7808C13.2763 11.7018 13.6943 9.64066 13.7876 9.34649C13.8294 9.215 14.008 9.05587 14.1427 9.0306C14.2775 9.00533 16.7972 9.45076 16.9226 9.5246C17.1206 9.64306 17.1831 9.82982 17.1203 10.1189L17.0941 10.2401H17.2332C17.3113 10.2401 17.491 10.2306 17.6355 10.2191L17.8988 10.1986L17.7683 9.95339C17.373 9.21145 16.6589 8.46517 15.776 7.8721C15.3651 7.5957 14.4869 7.1582 13.9584 6.96709C13.1378 6.67949 12.287 6.48896 11.4231 6.39929C10.9438 6.34875 9.68782 6.34954 9.22256 6.39929C8.10688 6.52169 7.09392 6.77676 6.20833 7.15819C4.15783 8.04188 2.77923 9.50563 2.42648 11.1739C2.33429 11.6082 2.32686 12.3731 2.41124 12.7695C2.59797 13.6461 3.00543 14.405 3.66875 15.111C5.0196 16.5499 7.08298 17.4336 9.55734 17.6334C9.889 17.6634 11.3266 17.6243 11.6625 17.5793H11.6641ZM11.2094 16.0093C11.0816 15.9718 10.9523 15.8186 10.925 15.6717C10.9074 15.5766 10.9289 15.5102 11.0645 15.2457C11.6114 14.1768 11.8485 13.1924 11.8485 11.9992C11.8485 10.8454 11.6383 9.94591 11.1156 8.8715C11.0035 8.64051 10.9117 8.4257 10.9117 8.3949C10.9117 8.28039 11.0066 8.11455 11.109 8.0494C11.25 7.95977 11.4856 7.97675 11.5985 8.08376C11.6418 8.12324 11.7547 8.31199 11.8493 8.49955C12.2272 9.25458 12.4827 10.0661 12.6059 10.9031C12.6841 11.4278 12.6997 12.4216 12.6372 12.9018C12.5316 13.7519 12.2893 14.5788 11.92 15.3499C11.6961 15.8178 11.5559 16.0105 11.4383 16.0105C11.4094 16.0113 11.3806 16.0157 11.3527 16.0235C11.3044 16.0284 11.2555 16.0229 11.2094 16.0074V16.0093ZM9.68781 15.2046C9.49248 15.147 9.35069 14.9041 9.40734 14.7225C9.42101 14.6783 9.51319 14.4757 9.61202 14.2716C10.0308 13.4084 10.205 12.4833 10.1199 11.5747C10.0499 10.8284 9.91751 10.3577 9.58429 9.6687C9.36045 9.20672 9.34991 9.13527 9.47999 8.94889C9.60383 8.772 9.91244 8.74354 10.0746 8.89398C10.1871 8.99783 10.5363 9.73583 10.6715 10.1536C11.1171 11.539 11.0477 13.0412 10.4761 14.3786C10.1855 15.0751 9.98001 15.2899 9.68937 15.2046H9.68781ZM8.11859 14.3884C8.056 14.3578 8.00084 14.3136 7.95702 14.259C7.91321 14.2044 7.88183 14.1408 7.86507 14.0726C7.84788 13.9936 7.87757 13.9055 8.02132 13.6118C8.5487 12.533 8.55415 11.4937 8.03889 10.4399C7.81232 9.97709 7.80763 9.8851 7.99983 9.70228C8.09436 9.61226 8.13422 9.59644 8.26704 9.59644C8.48971 9.59644 8.60494 9.70938 8.80378 10.1224C9.10966 10.7573 9.23349 11.307 9.23349 12.0142C9.23349 12.7395 9.11629 13.2382 8.78854 13.9071C8.60142 14.2905 8.50885 14.392 8.32173 14.4177C8.25284 14.4241 8.18341 14.4137 8.11937 14.3872L8.11859 14.3884ZM6.65563 13.6283C6.55992 13.5889 6.45053 13.4566 6.41811 13.3421C6.38178 13.2141 6.41146 13.1123 6.55522 12.8734C6.74038 12.5658 6.78337 12.3996 6.78337 11.9992C6.78337 11.5988 6.74038 11.4321 6.55522 11.1249C6.50065 11.0371 6.45385 10.9446 6.41536 10.8485C6.35599 10.646 6.52279 10.3976 6.74741 10.355C6.93727 10.3186 7.06815 10.4047 7.24316 10.6807C7.751 11.4795 7.751 12.5468 7.24316 13.3389C7.06463 13.6185 6.86501 13.7172 6.65719 13.6295L6.65563 13.6283ZM17.5652 14.8694C17.6759 14.8323 17.7845 14.7894 17.8906 14.7406C17.9 14.7312 17.8672 14.6222 17.8179 14.4974C17.7164 14.2427 17.7328 14.2491 17.3722 14.319C16.9816 14.3944 16.757 14.3272 16.3308 14.0098C16.2136 13.9237 16.0964 13.8518 16.0647 13.8518C16.0331 13.8518 15.9678 13.8968 15.917 13.9521C15.8081 14.0706 15.7913 14.2554 15.8803 14.3648C15.9585 14.4599 17.0277 14.9744 17.1546 14.9776C17.2109 14.9776 17.3957 14.9302 17.5652 14.8686V14.8694ZM17.3968 14.0402C17.5554 14.0082 17.5726 13.9971 17.5457 13.9454C17.5187 13.8937 16.035 12.6467 15.9069 12.5709C15.801 12.5085 15.7151 12.5227 15.6272 12.6179C15.3701 12.8967 15.4002 12.9551 16.0659 13.4708C16.8687 14.095 16.9546 14.1318 17.3968 14.0417V14.0402ZM15.41 12.1607C15.41 12.1528 15.242 12.0067 15.0369 11.8361C14.5291 11.414 14.4213 11.2568 14.4213 10.9449C14.4213 10.6843 14.5932 10.4316 14.8701 10.2879C15.0072 10.216 15.2522 10.1935 15.3909 10.2397C15.4889 10.2724 15.9307 10.5161 16.5436 10.8714L16.673 10.9465L16.7792 10.4367C16.8882 9.91431 16.8902 9.7773 16.7894 9.74532C16.7585 9.73584 16.1679 9.62684 15.4764 9.50443C14.249 9.28608 14.115 9.27307 14.058 9.36666C14.0275 9.41641 13.5603 11.6039 13.5603 11.6963C13.5609 11.7442 13.5795 11.7901 13.6122 11.8246C13.6411 11.8487 14.0392 11.936 14.4974 12.0189C15.3823 12.18 15.41 12.1843 15.41 12.1622V12.1607Z" fill="#1D1E23"/></svg>