<svg viewBox="0 0 24 24" fill="none" xmlns="http://www.w3.org/2000/svg"><path fill-rule="evenodd" clip-rule="evenodd" d="M14.0506 5.33086C14.6612 5.54807 15.2052 5.91947 15.6299 6.40899C16.0669 6.90664 16.4044 7.55664 16.6424 8.35898C16.8804 9.16133 16.9994 10.1406 16.9994 11.2969V13.6531C16.9992 14.8096 16.8802 15.7906 16.6424 16.5961C16.4046 17.4016 16.069 18.0566 15.6354 18.5613C15.2156 19.0561 14.6753 19.4342 14.0666 19.659C13.4541 19.8863 12.7703 20 12.015 20C11.2664 20 10.5843 19.8863 9.96896 19.659C9.35605 19.4338 8.81072 19.0561 8.38458 18.5613C7.94344 18.0564 7.60229 17.4013 7.36115 16.5961C7.12 15.7909 6.99943 14.8099 6.99943 13.6531V11.2969C6.99917 10.1401 7.11805 9.16081 7.35607 8.35898C7.59409 7.55716 7.93159 6.90716 8.36857 6.40899C8.79325 5.91947 9.33729 5.54807 9.94787 5.33086C10.5635 5.11029 11.2455 5 11.994 5C12.7494 4.99974 13.435 5.11003 14.0506 5.33086ZM14.2932 15.8789C14.3973 15.3643 14.4494 14.7393 14.4494 14.0039V10.9258C14.4497 10.1839 14.3955 9.56055 14.2869 9.05586C14.1783 8.55118 14.0192 8.14336 13.8096 7.83242C13.6007 7.52201 13.3436 7.29818 13.0381 7.16094C12.7326 7.0237 12.3846 6.95508 11.994 6.95508C11.6023 6.95534 11.2542 7.02396 10.9498 7.16094C10.6454 7.29792 10.3884 7.52175 10.1787 7.83242C9.96909 8.14336 9.80997 8.55118 9.70138 9.05586C9.59278 9.56055 9.53849 10.1839 9.53849 10.9258V14.0039C9.53875 14.7393 9.59474 15.3643 9.70646 15.8789C9.8187 16.3927 9.97963 16.8106 10.1893 17.1324C10.3989 17.4543 10.6578 17.6887 10.9658 17.8356C11.2946 17.9869 11.6532 18.0622 12.015 18.0559C12.414 18.0569 12.7638 17.9835 13.0643 17.8356C13.3648 17.6876 13.6184 17.4533 13.8252 17.1324C14.033 16.8113 14.189 16.3935 14.2932 15.8789ZM2 16.25L5.75 12.5L2 8.75V16.25ZM18.2494 12.5L21.9994 16.25V8.75L18.2494 12.5Z" fill="#1D1E23"/></svg>