<svg viewBox="0 0 2400 2400" fill="none" xmlns="http://www.w3.org/2000/svg"><path d="M444.000 304.090 C 396.700 305.448,357.510 306.884,356.911 307.280 C 356.311 307.676,347.610 315.569,337.573 324.820 C 291.783 367.028,288.479 417.525,328.218 467.799 C 341.780 484.956,346.540 488.023,366.843 492.684 C 401.121 500.553,1998.911 500.545,2033.196 492.676 C 2054.209 487.852,2058.059 485.227,2074.110 464.776 C 2106.227 423.857,2107.417 380.073,2077.519 339.345 C 2055.704 309.627,2049.730 307.747,1964.469 303.777 C 1881.742 299.925,579.701 300.192,444.000 304.090 M808.000 704.152 C 780.500 705.655,757.510 707.136,756.911 707.443 C 756.311 707.749,747.610 715.569,737.573 724.820 C 701.885 757.716,691.390 798.478,708.812 836.525 C 721.526 864.290,741.988 885.747,762.047 892.347 C 782.111 898.948,1538.643 902.721,1600.461 896.528 C 1646.799 891.885,1658.640 886.373,1677.519 860.655 C 1705.976 821.889,1705.976 778.111,1677.519 739.345 C 1657.541 712.129,1647.181 707.893,1590.523 703.773 C 1534.830 699.724,883.252 700.039,808.000 704.152 M444.000 1104.090 C 396.700 1105.448,357.510 1106.884,356.911 1107.280 C 356.311 1107.676,347.610 1115.569,337.573 1124.820 C 291.783 1167.028,288.479 1217.525,328.218 1267.799 C 341.780 1284.956,346.540 1288.023,366.843 1292.684 C 401.121 1300.553,1998.911 1300.545,2033.196 1292.676 C 2054.209 1287.852,2058.059 1285.227,2074.110 1264.776 C 2106.227 1223.857,2107.417 1180.073,2077.519 1139.345 C 2055.704 1109.627,2049.730 1107.747,1964.469 1103.777 C 1881.742 1099.925,579.701 1100.192,444.000 1104.090 M808.000 1504.152 C 780.500 1505.655,757.510 1507.136,756.911 1507.443 C 756.311 1507.749,747.610 1515.569,737.573 1524.820 C 701.885 1557.716,691.390 1598.478,708.812 1636.525 C 721.526 1664.290,741.988 1685.747,762.047 1692.347 C 782.111 1698.948,1538.643 1702.721,1600.461 1696.528 C 1646.799 1691.885,1658.640 1686.373,1677.519 1660.655 C 1705.976 1621.889,1705.976 1578.111,1677.519 1539.345 C 1657.541 1512.129,1647.181 1507.893,1590.523 1503.773 C 1534.830 1499.724,883.252 1500.039,808.000 1504.152 M444.000 1904.090 C 396.700 1905.448,357.510 1906.884,356.911 1907.280 C 356.311 1907.676,347.610 1915.569,337.573 1924.820 C 291.783 1967.028,288.479 2017.525,328.218 2067.799 C 341.780 2084.956,346.540 2088.023,366.843 2092.684 C 401.121 2100.553,1998.911 2100.545,2033.196 2092.676 C 2054.209 2087.852,2058.059 2085.227,2074.110 2064.776 C 2106.227 2023.857,2107.417 1980.073,2077.519 1939.345 C 2055.704 1909.627,2049.730 1907.747,1964.469 1903.777 C 1881.742 1899.925,579.701 1900.192,444.000 1904.090 " fill="#1D1E23" stroke="none" fill-rule="evenodd"/></svg>