<svg viewBox="0 0 2400 2400" fill="none" xmlns="http://www.w3.org/2000/svg"><path d="M2073.219 204.431 C 2053.028 209.188,2020.300 237.176,2009.488 258.932 C 2002.236 273.525,2002.000 302.905,2002.000 1190.000 C 2002.000 1898.902,2003.112 2111.426,2006.917 2130.000 C 2011.095 2150.389,2014.405 2156.257,2028.917 2168.999 C 2054.389 2191.363,2070.201 2197.761,2100.000 2197.761 C 2129.799 2197.761,2145.611 2191.363,2171.083 2168.999 C 2185.595 2156.257,2188.905 2150.389,2193.083 2130.000 C 2200.239 2095.070,2200.237 304.912,2193.080 270.000 C 2189.062 250.398,2185.397 243.550,2173.080 232.630 C 2142.891 205.864,2108.435 196.135,2073.219 204.431 M484.000 703.674 C 302.551 705.993,301.946 706.029,284.301 715.438 C 258.518 729.186,225.280 764.306,212.856 790.927 C 203.619 810.719,202.107 819.119,202.226 850.000 C 202.343 880.252,204.047 889.652,212.903 908.872 C 227.749 941.097,255.506 969.199,289.080 985.995 L 317.075 1000.000 1000.000 1000.000 L 1682.925 1000.000 1710.920 985.995 C 1744.480 969.205,1772.235 941.114,1787.117 908.872 C 1796.051 889.518,1797.675 880.463,1797.675 850.000 C 1797.675 819.458,1796.060 810.502,1787.025 790.927 C 1773.652 761.954,1740.858 728.795,1712.000 715.069 L 1690.000 704.604 1178.000 702.976 C 896.400 702.080,584.100 702.394,484.000 703.674 M1006.000 1403.597 C 906.774 1405.890,901.188 1406.433,884.301 1415.438 C 858.518 1429.186,825.280 1464.306,812.856 1490.927 C 803.619 1510.719,802.107 1519.119,802.226 1550.000 C 802.343 1580.252,804.047 1589.652,812.903 1608.872 C 827.749 1641.097,855.506 1669.199,889.080 1685.995 L 917.075 1700.000 1300.000 1700.000 L 1682.925 1700.000 1710.920 1685.995 C 1744.480 1669.205,1772.235 1641.114,1787.117 1608.872 C 1796.051 1589.518,1797.675 1580.463,1797.675 1550.000 C 1797.675 1519.458,1796.060 1510.502,1787.025 1490.927 C 1773.659 1461.967,1740.872 1428.808,1712.000 1415.048 L 1690.000 1404.564 1400.000 1402.879 C 1240.500 1401.953,1063.200 1402.276,1006.000 1403.597 " fill="#1D1E23" stroke="none" fill-rule="evenodd"/></svg>