<svg viewBox="0 0 2400 2400" fill="none" xmlns="http://www.w3.org/2000/svg"><path d="M806.730 208.206 C 776.344 215.730,738.780 248.858,714.250 289.765 L 700.000 313.529 700.000 998.898 L 700.000 1684.266 710.514 1705.015 C 725.059 1733.718,764.601 1773.811,790.403 1786.017 C 808.350 1794.508,817.260 1796.000,850.000 1796.000 C 882.740 1796.000,891.650 1794.508,909.597 1786.017 C 935.399 1773.811,974.941 1733.718,989.486 1705.015 L 1000.000 1684.266 999.962 999.133 L 999.925 314.000 987.356 292.000 C 980.443 279.900,963.411 258.815,949.507 245.145 C 929.664 225.635,919.687 219.017,903.114 214.373 C 875.424 206.615,825.943 203.448,806.730 208.206 M1506.730 808.206 C 1476.344 815.730,1438.780 848.858,1414.250 889.765 L 1400.000 913.529 1400.000 1298.898 L 1400.000 1684.266 1410.514 1705.015 C 1425.059 1733.718,1464.601 1773.811,1490.403 1786.017 C 1508.350 1794.508,1517.260 1796.000,1550.000 1796.000 C 1582.740 1796.000,1591.650 1794.508,1609.597 1786.017 C 1635.399 1773.811,1674.941 1733.718,1689.486 1705.015 L 1700.000 1684.266 1699.962 1299.133 L 1699.925 914.000 1687.356 892.000 C 1680.443 879.900,1663.411 858.815,1649.507 845.145 C 1629.664 825.635,1619.687 819.017,1603.114 814.373 C 1575.424 806.615,1525.943 803.448,1506.730 808.206 M240.202 2022.293 C 222.386 2038.389,200.000 2079.532,200.000 2096.180 C 200.000 2115.338,212.776 2147.467,227.004 2164.089 C 253.551 2195.103,235.694 2193.172,526.000 2196.425 C 888.296 2200.485,1733.786 2200.261,1950.000 2196.048 C 2059.729 2193.910,2135.836 2190.806,2144.950 2188.096 C 2161.762 2183.098,2184.488 2156.762,2192.229 2133.307 C 2203.992 2097.664,2188.454 2041.906,2160.902 2020.891 L 2146.623 2010.000 1201.369 2008.959 L 256.114 2007.918 240.202 2022.293 " fill="#1D1E23" stroke="none" fill-rule="evenodd"/></svg>