<svg viewBox="0 0 2400 2400" fill="none" xmlns="http://www.w3.org/2000/svg"><path d="M273.219 204.431 C 253.028 209.188,220.300 237.176,209.488 258.932 C 202.236 273.525,202.000 302.905,202.000 1190.000 C 202.000 1898.902,203.112 2111.426,206.917 2130.000 C 211.095 2150.389,214.405 2156.257,228.917 2168.999 C 254.389 2191.363,270.201 2197.761,300.000 2197.761 C 329.799 2197.761,345.611 2191.363,371.083 2168.999 C 385.595 2156.257,388.905 2150.389,393.083 2130.000 C 400.239 2095.070,400.237 304.912,393.080 270.000 C 389.062 250.398,385.397 243.550,373.080 232.630 C 342.891 205.864,308.435 196.135,273.219 204.431 M884.000 703.674 C 702.551 705.993,701.946 706.029,684.301 715.438 C 658.518 729.186,625.280 764.306,612.856 790.927 C 603.619 810.719,602.107 819.119,602.226 850.000 C 602.343 880.252,604.047 889.652,612.903 908.872 C 627.749 941.097,655.506 969.199,689.080 985.995 L 717.075 1000.000 1400.000 1000.000 L 2082.925 1000.000 2110.920 985.995 C 2144.480 969.205,2172.235 941.114,2187.117 908.872 C 2196.051 889.518,2197.675 880.463,2197.675 850.000 C 2197.675 819.458,2196.060 810.502,2187.025 790.927 C 2173.652 761.954,2140.858 728.795,2112.000 715.069 L 2090.000 704.604 1578.000 702.976 C 1296.400 702.080,984.100 702.394,884.000 703.674 M806.000 1403.597 C 706.774 1405.890,701.188 1406.433,684.301 1415.438 C 658.518 1429.186,625.280 1464.306,612.856 1490.927 C 603.619 1510.719,602.107 1519.119,602.226 1550.000 C 602.343 1580.252,604.047 1589.652,612.903 1608.872 C 627.749 1641.097,655.506 1669.199,689.080 1685.995 L 717.075 1700.000 1100.000 1700.000 L 1482.925 1700.000 1510.920 1685.995 C 1544.480 1669.205,1572.235 1641.114,1587.117 1608.872 C 1596.051 1589.518,1597.675 1580.463,1597.675 1550.000 C 1597.675 1519.458,1596.060 1510.502,1587.025 1490.927 C 1573.659 1461.967,1540.872 1428.808,1512.000 1415.048 L 1490.000 1404.564 1200.000 1402.879 C 1040.500 1401.953,863.200 1402.276,806.000 1403.597 " fill="#1D1E23" stroke="none" fill-rule="evenodd"/></svg>