<svg viewBox="0 0 2400 2400" fill="none" xmlns="http://www.w3.org/2000/svg"><path d="M788.000 215.518 C 764.478 228.412,737.315 254.946,718.196 283.706 L 700.000 311.076 700.038 998.538 L 700.075 1686.000 712.644 1708.000 C 727.789 1734.508,768.336 1775.349,790.165 1786.082 C 801.630 1791.720,816.716 1794.264,844.833 1795.304 C 879.735 1796.594,885.929 1795.703,906.015 1786.508 C 932.909 1774.195,969.777 1738.578,987.348 1707.935 L 999.925 1686.000 999.925 1000.000 L 999.925 314.000 988.369 293.853 C 972.455 266.109,934.669 228.751,912.458 218.804 C 885.208 206.599,807.989 204.560,788.000 215.518 M1488.000 815.518 C 1464.478 828.412,1437.315 854.946,1418.196 883.706 L 1400.000 911.076 1400.038 1298.538 L 1400.075 1686.000 1412.644 1708.000 C 1427.789 1734.508,1468.336 1775.349,1490.165 1786.082 C 1501.630 1791.720,1516.716 1794.264,1544.833 1795.304 C 1579.735 1796.594,1585.929 1795.703,1606.015 1786.508 C 1632.909 1774.195,1669.777 1738.578,1687.348 1707.935 L 1699.925 1686.000 1699.925 1300.000 L 1699.925 914.000 1688.369 893.853 C 1672.455 866.109,1634.669 828.751,1612.458 818.804 C 1585.208 806.599,1507.989 804.560,1488.000 815.518 M236.928 2025.895 C 218.022 2047.373,200.000 2082.369,200.000 2097.602 C 200.000 2131.535,234.138 2181.573,262.000 2188.479 C 293.317 2196.242,803.185 2200.622,1418.000 2198.410 C 1756.800 2197.192,2059.781 2194.597,2091.291 2192.645 L 2148.582 2189.094 2166.271 2171.734 C 2189.584 2148.854,2197.761 2127.162,2194.912 2095.748 C 2192.239 2066.271,2176.027 2031.412,2159.526 2019.662 L 2147.546 2011.132 1200.649 2008.957 L 253.752 2006.782 236.928 2025.895 " fill="#1D1E23" stroke="none" fill-rule="evenodd"/></svg>