<svg viewBox="0 0 2400 2400" fill="none" xmlns="http://www.w3.org/2000/svg"><path d="M2064.342 206.868 C 2040.729 215.209,2014.918 241.645,2006.625 265.983 C 2000.534 283.857,2000.000 359.204,2000.000 1200.000 C 2000.000 2226.441,1997.258 2137.469,2029.895 2170.105 C 2069.021 2209.232,2130.979 2209.232,2170.105 2170.105 C 2202.742 2137.469,2200.000 2226.441,2200.000 1200.000 C 2200.000 173.559,2202.742 262.531,2170.105 229.895 C 2142.352 202.141,2102.370 193.437,2064.342 206.868 M314.984 704.314 C 272.460 714.417,234.296 746.163,214.378 788.000 C 203.383 811.094,202.000 818.023,202.000 850.000 C 202.000 881.977,203.383 888.906,214.378 912.000 C 230.110 945.044,254.956 969.890,288.000 985.622 L 314.000 998.000 1000.000 998.000 L 1686.000 998.000 1712.000 985.622 C 1745.044 969.890,1769.890 945.044,1785.622 912.000 C 1796.617 888.906,1798.000 881.977,1798.000 850.000 C 1798.000 817.964,1796.631 811.137,1785.566 788.000 C 1769.825 755.085,1745.164 730.446,1712.000 714.501 L 1686.000 702.000 1008.000 701.373 C 622.162 701.016,323.529 702.284,314.984 704.314 M914.984 1404.293 C 872.394 1414.471,834.290 1446.175,814.378 1488.000 C 803.383 1511.094,802.000 1518.023,802.000 1550.000 C 802.000 1581.977,803.383 1588.906,814.378 1612.000 C 830.110 1645.044,854.956 1669.890,888.000 1685.622 L 914.000 1698.000 1300.000 1698.000 L 1686.000 1698.000 1712.000 1685.622 C 1745.044 1669.890,1769.890 1645.044,1785.622 1612.000 C 1796.617 1588.906,1798.000 1581.977,1798.000 1550.000 C 1798.000 1517.964,1796.631 1511.137,1785.566 1488.000 C 1769.825 1455.085,1745.164 1430.446,1712.000 1414.501 L 1686.000 1402.000 1308.000 1401.352 C 1096.132 1400.989,923.400 1402.282,914.984 1404.293 " fill="#1D1E23" stroke="none" fill-rule="evenodd"/></svg>