<svg viewBox="0 0 2400 2400" fill="none" xmlns="http://www.w3.org/2000/svg"><path d="M275.225 206.858 C 253.468 208.318,251.561 209.359,232.562 230.147 C 198.937 266.937,192.587 301.898,212.177 342.365 C 225.039 368.935,243.665 385.959,266.036 391.592 C 290.756 397.816,1468.764 401.916,1862.000 397.146 C 2167.177 393.445,2150.689 395.033,2172.394 367.251 C 2191.628 342.632,2197.176 327.574,2197.176 300.000 C 2197.176 264.235,2177.546 227.668,2150.345 212.764 C 2138.858 206.470,2074.062 205.977,1218.000 205.665 C 712.000 205.481,287.751 206.018,275.225 206.858 M799.686 609.187 C 769.714 620.492,730.777 657.376,712.382 691.889 L 700.000 715.120 700.000 1400.000 L 700.000 2084.880 713.000 2109.281 C 730.062 2141.305,760.399 2171.789,789.155 2185.805 C 809.558 2195.749,816.791 2197.091,850.000 2197.091 C 883.209 2197.091,890.442 2195.749,910.845 2185.805 C 939.601 2171.789,969.938 2141.305,987.000 2109.281 L 1000.000 2084.880 1000.000 1400.307 L 1000.000 715.734 989.486 694.985 C 974.921 666.243,935.950 626.684,912.086 616.418 C 886.796 605.539,820.641 601.283,799.686 609.187 M1499.686 609.187 C 1469.714 620.492,1430.777 657.376,1412.382 691.889 L 1400.000 715.120 1400.000 1100.000 L 1400.000 1484.880 1413.000 1509.281 C 1430.062 1541.305,1460.399 1571.789,1489.155 1585.805 C 1509.558 1595.749,1516.791 1597.091,1550.000 1597.091 C 1583.209 1597.091,1590.442 1595.749,1610.845 1585.805 C 1639.601 1571.789,1669.938 1541.305,1687.000 1509.281 L 1700.000 1484.880 1700.000 1100.307 L 1700.000 715.734 1689.486 694.985 C 1674.921 666.243,1635.950 626.684,1612.086 616.418 C 1586.796 605.539,1520.641 601.283,1499.686 609.187 " fill="#1D1E23" stroke="none" fill-rule="evenodd"/></svg>