<svg viewBox="0 0 2400 2400" fill="none" xmlns="http://www.w3.org/2000/svg"><path d="M1155.707 211.704 C 1137.957 221.343,1113.062 248.481,1105.611 266.313 C 1101.039 277.257,1100.000 318.515,1100.000 489.216 L 1100.000 698.688 755.730 701.423 L 411.460 704.158 387.109 716.450 C 356.872 731.713,328.160 760.700,313.405 790.859 C 303.486 811.131,302.177 818.201,302.367 850.442 C 302.556 882.304,304.061 890.054,314.032 910.512 C 328.199 939.576,358.577 969.875,390.719 987.000 L 415.120 1000.000 757.560 1000.000 L 1100.000 1000.000 1100.000 1199.347 L 1100.000 1398.694 905.929 1401.325 L 711.857 1403.957 687.307 1416.350 C 656.886 1431.706,628.191 1460.637,613.405 1490.859 C 603.486 1511.131,602.177 1518.201,602.367 1550.442 C 602.556 1582.304,604.061 1590.054,614.032 1610.512 C 628.199 1639.576,658.577 1669.875,690.719 1687.000 L 715.120 1700.000 907.459 1700.000 L 1099.799 1700.000 1100.899 1915.659 L 1102.000 2131.318 1114.102 2148.533 C 1153.464 2204.528,1219.445 2214.485,1266.109 2171.473 C 1275.730 2162.604,1287.292 2147.726,1291.801 2138.411 C 1299.748 2121.994,1300.000 2115.004,1300.000 1910.737 L 1300.000 1700.000 1492.440 1700.000 L 1684.880 1700.000 1709.281 1687.000 C 1741.305 1669.938,1771.789 1639.601,1785.805 1610.845 C 1795.749 1590.442,1797.091 1583.209,1797.091 1550.000 C 1797.091 1517.402,1795.667 1509.401,1786.552 1490.771 C 1773.816 1464.738,1737.280 1428.837,1708.875 1414.443 L 1688.182 1403.957 1494.091 1401.326 L 1300.000 1398.694 1300.000 1199.347 L 1300.000 1000.000 1642.440 1000.000 L 1984.880 1000.000 2009.281 987.000 C 2041.305 969.938,2071.789 939.601,2085.805 910.845 C 2095.749 890.442,2097.091 883.209,2097.091 850.000 C 2097.091 817.402,2095.667 809.401,2086.552 790.771 C 2073.849 764.806,2037.299 728.847,2009.073 714.544 L 1988.577 704.158 1644.289 701.423 L 1300.000 698.688 1299.748 512.344 C 1299.446 288.501,1297.853 265.533,1281.200 244.853 C 1274.621 236.684,1261.606 224.600,1252.278 218.000 C 1237.231 207.354,1231.633 205.884,1202.659 204.971 C 1176.546 204.148,1167.135 205.498,1155.707 211.704 " fill="#1D1E23" stroke="none" fill-rule="evenodd"/></svg>