<svg viewBox="0 0 2400 2400" fill="none" xmlns="http://www.w3.org/2000/svg"><path d="M704.550 303.842 L 355.101 306.000 337.284 325.681 C 297.761 369.340,291.910 403.348,316.285 447.723 C 335.249 482.247,342.919 487.207,386.050 492.833 C 437.435 499.537,1962.565 499.537,2013.950 492.833 C 2055.482 487.415,2064.455 482.152,2080.376 453.871 C 2099.391 420.091,2102.491 401.563,2093.776 373.786 C 2085.203 346.463,2057.446 315.068,2037.812 310.488 C 2022.690 306.960,1446.831 300.310,1224.000 301.090 C 1130.500 301.417,896.748 302.656,704.550 303.842 M919.188 703.508 L 756.376 706.000 740.006 721.990 C 719.884 741.644,699.986 780.301,700.039 799.639 C 700.085 816.593,714.248 848.657,729.856 867.144 C 752.361 893.799,748.913 893.296,934.000 896.936 C 1026.400 898.753,1216.300 899.639,1356.000 898.905 C 1634.701 897.441,1639.861 897.016,1664.605 873.526 C 1684.218 854.907,1697.526 825.337,1697.696 800.000 C 1697.817 782.131,1695.165 773.122,1683.575 752.021 C 1665.215 718.597,1654.390 712.352,1607.116 707.915 C 1557.039 703.214,1120.904 700.420,919.188 703.508 M704.550 1103.842 L 355.101 1106.000 337.284 1125.681 C 297.761 1169.340,291.910 1203.348,316.285 1247.723 C 324.056 1261.871,334.844 1276.753,340.257 1280.795 C 361.954 1296.994,388.138 1297.503,1200.000 1297.503 C 2010.411 1297.503,2038.078 1296.970,2059.545 1280.943 C 2071.801 1271.792,2090.130 1239.388,2096.400 1215.786 C 2100.558 1200.135,2100.189 1194.225,2093.776 1173.786 C 2085.203 1146.463,2057.446 1115.068,2037.812 1110.488 C 2022.690 1106.960,1446.831 1100.310,1224.000 1101.090 C 1130.500 1101.417,896.748 1102.656,704.550 1103.842 M919.188 1503.508 L 756.376 1506.000 740.006 1521.990 C 719.884 1541.644,699.986 1580.301,700.039 1599.639 C 700.085 1616.593,714.248 1648.657,729.856 1667.144 C 752.361 1693.799,748.913 1693.296,934.000 1696.936 C 1026.400 1698.753,1216.300 1699.639,1356.000 1698.905 C 1634.701 1697.441,1639.861 1697.016,1664.605 1673.526 C 1684.218 1654.907,1697.526 1625.337,1697.696 1600.000 C 1697.817 1582.131,1695.165 1573.122,1683.575 1552.021 C 1665.215 1518.597,1654.390 1512.352,1607.116 1507.915 C 1557.039 1503.214,1120.904 1500.420,919.188 1503.508 M704.550 1903.842 L 355.101 1906.000 337.284 1925.681 C 297.761 1969.340,291.910 2003.348,316.285 2047.723 C 324.056 2061.871,334.844 2076.753,340.257 2080.795 C 361.987 2097.018,387.938 2097.523,1200.000 2097.523 C 2010.614 2097.523,2038.046 2096.994,2059.545 2080.943 C 2071.801 2071.792,2090.130 2039.388,2096.400 2015.786 C 2100.558 2000.135,2100.189 1994.225,2093.776 1973.786 C 2085.203 1946.463,2057.446 1915.068,2037.812 1910.488 C 2022.690 1906.960,1446.831 1900.310,1224.000 1901.090 C 1130.500 1901.417,896.748 1902.656,704.550 1903.842 " fill="#1D1E23" stroke="none" fill-rule="evenodd"/></svg>