<svg viewBox="0 0 2400 2400" fill="none" xmlns="http://www.w3.org/2000/svg"><path d="M596.579 303.820 L 355.159 306.000 333.800 328.950 C 294.673 370.991,290.940 412.775,322.169 459.147 C 346.574 495.386,334.316 493.492,564.000 496.508 C 824.371 499.926,1575.629 499.926,1836.000 496.508 C 2065.482 493.495,2052.395 495.517,2077.250 459.232 C 2096.218 431.540,2103.147 402.402,2096.306 379.102 C 2087.576 349.367,2068.509 323.797,2048.216 314.609 C 2030.843 306.742,2020.280 306.230,1820.000 303.546 C 1584.022 300.384,961.574 300.523,596.579 303.820 M1114.579 703.780 L 955.159 706.000 934.072 728.657 C 912.982 751.318,900.000 778.501,900.000 800.000 C 900.000 831.324,931.222 878.911,959.822 891.175 C 972.157 896.465,1034.836 897.486,1442.000 899.027 C 1927.557 900.865,2022.360 898.848,2049.214 886.105 C 2067.439 877.456,2090.366 844.259,2096.405 817.773 C 2102.140 792.620,2094.520 762.395,2076.153 737.448 C 2053.985 707.338,2051.220 706.806,1900.000 703.552 C 1749.406 700.312,1355.387 700.427,1114.579 703.780 M596.579 1103.820 L 355.159 1106.000 333.800 1128.950 C 294.673 1170.991,290.940 1212.775,322.169 1259.147 C 346.574 1295.386,334.316 1293.492,564.000 1296.508 C 675.100 1297.966,961.300 1299.160,1200.000 1299.160 C 1438.700 1299.160,1724.900 1297.966,1836.000 1296.508 C 2065.482 1293.495,2052.395 1295.517,2077.250 1259.232 C 2096.218 1231.540,2103.147 1202.402,2096.306 1179.102 C 2087.576 1149.367,2068.509 1123.797,2048.216 1114.609 C 2030.843 1106.742,2020.280 1106.230,1820.000 1103.546 C 1584.022 1100.384,961.574 1100.523,596.579 1103.820 M1114.579 1503.780 L 955.159 1506.000 934.072 1528.657 C 912.982 1551.318,900.000 1578.501,900.000 1600.000 C 900.000 1631.324,931.222 1678.911,959.822 1691.175 C 972.157 1696.465,1034.836 1697.486,1442.000 1699.027 C 1927.557 1700.865,2022.360 1698.848,2049.214 1686.105 C 2067.439 1677.456,2090.366 1644.259,2096.405 1617.773 C 2102.140 1592.620,2094.520 1562.395,2076.153 1537.448 C 2053.985 1507.338,2051.220 1506.806,1900.000 1503.552 C 1749.406 1500.312,1355.387 1500.427,1114.579 1503.780 M596.579 1903.820 L 355.159 1906.000 333.800 1928.950 C 294.673 1970.991,290.940 2012.775,322.169 2059.147 C 346.574 2095.386,334.316 2093.492,564.000 2096.508 C 824.371 2099.926,1575.629 2099.926,1836.000 2096.508 C 2065.482 2093.495,2052.395 2095.517,2077.250 2059.232 C 2096.218 2031.540,2103.147 2002.402,2096.306 1979.102 C 2087.576 1949.367,2068.509 1923.797,2048.216 1914.609 C 2030.843 1906.742,2020.280 1906.230,1820.000 1903.546 C 1584.022 1900.384,961.574 1900.523,596.579 1903.820 " fill="#1D1E23" stroke="none" fill-rule="evenodd"/></svg>