<svg viewBox="0 0 2400 2400" fill="none" xmlns="http://www.w3.org/2000/svg"><path d="M264.342 206.868 C 229.056 219.332,200.000 261.388,200.000 300.000 C 200.000 324.160,211.933 352.144,229.895 370.105 C 262.531 402.742,173.559 400.000,1200.000 400.000 C 2226.441 400.000,2137.469 402.742,2170.105 370.105 C 2209.232 330.979,2209.232 269.021,2170.105 229.895 C 2137.454 197.243,2226.754 199.961,1198.287 200.316 C 379.089 200.598,280.129 201.292,264.342 206.868 M814.984 604.088 C 771.735 615.014,734.235 646.291,714.378 688.000 L 702.000 714.000 702.000 1400.000 L 702.000 2086.000 714.378 2112.000 C 730.110 2145.044,754.956 2169.890,788.000 2185.622 C 811.094 2196.617,818.023 2198.000,850.000 2198.000 C 881.977 2198.000,888.906 2196.617,912.000 2185.622 C 945.044 2169.890,969.890 2145.044,985.622 2112.000 L 998.000 2086.000 998.000 1400.000 L 998.000 714.000 985.566 688.000 C 961.046 636.727,914.188 604.789,859.175 601.852 C 843.129 600.996,823.243 602.002,814.984 604.088 M1514.984 604.088 C 1471.735 615.014,1434.235 646.291,1414.378 688.000 L 1402.000 714.000 1402.000 1100.000 L 1402.000 1486.000 1414.378 1512.000 C 1430.110 1545.044,1454.956 1569.890,1488.000 1585.622 C 1511.094 1596.617,1518.023 1598.000,1550.000 1598.000 C 1581.977 1598.000,1588.906 1596.617,1612.000 1585.622 C 1645.044 1569.890,1669.890 1545.044,1685.622 1512.000 L 1698.000 1486.000 1698.000 1100.000 L 1698.000 714.000 1685.566 688.000 C 1661.046 636.727,1614.188 604.789,1559.175 601.852 C 1543.129 600.996,1523.243 602.002,1514.984 604.088 " fill="#1D1E23" stroke="none" fill-rule="evenodd"/></svg>