<svg viewBox="0 0 2400 2400" fill="none" xmlns="http://www.w3.org/2000/svg"><path d="M799.686 209.187 C 769.714 220.492,730.777 257.376,712.382 291.889 L 700.000 315.120 700.000 1000.000 L 700.000 1684.880 713.000 1709.281 C 730.062 1741.305,760.399 1771.789,789.155 1785.805 C 809.558 1795.749,816.791 1797.091,850.000 1797.091 C 883.209 1797.091,890.442 1795.749,910.845 1785.805 C 939.601 1771.789,969.938 1741.305,987.000 1709.281 L 1000.000 1684.880 1000.000 1000.307 L 1000.000 315.734 989.486 294.985 C 974.921 266.243,935.950 226.684,912.086 216.418 C 886.796 205.539,820.641 201.283,799.686 209.187 M1499.686 809.187 C 1469.714 820.492,1430.777 857.376,1412.382 891.889 L 1400.000 915.120 1400.000 1300.000 L 1400.000 1684.880 1413.000 1709.281 C 1430.062 1741.305,1460.399 1771.789,1489.155 1785.805 C 1509.558 1795.749,1516.791 1797.091,1550.000 1797.091 C 1583.209 1797.091,1590.442 1795.749,1610.845 1785.805 C 1639.601 1771.789,1669.938 1741.305,1687.000 1709.281 L 1700.000 1684.880 1700.000 1300.307 L 1700.000 915.734 1689.486 894.985 C 1674.921 866.243,1635.950 826.684,1612.086 816.418 C 1586.796 805.539,1520.641 801.283,1499.686 809.187 M275.225 2006.858 C 253.468 2008.318,251.561 2009.359,232.562 2030.147 C 198.937 2066.937,192.587 2101.898,212.177 2142.365 C 225.039 2168.935,243.665 2185.959,266.036 2191.592 C 290.756 2197.816,1468.764 2201.916,1862.000 2197.146 C 2167.177 2193.445,2150.689 2195.033,2172.394 2167.251 C 2191.628 2142.632,2197.176 2127.574,2197.176 2100.000 C 2197.176 2064.235,2177.546 2027.668,2150.345 2012.764 C 2138.858 2006.470,2074.062 2005.977,1218.000 2005.665 C 712.000 2005.481,287.751 2006.018,275.225 2006.858 " fill="#1D1E23" stroke="none" fill-rule="evenodd"/></svg>