<svg viewBox="0 0 2400 2400" fill="none" xmlns="http://www.w3.org/2000/svg"><path d="M704.550 303.842 L 355.101 306.000 337.284 325.681 C 297.761 369.340,291.910 403.348,316.285 447.723 C 335.249 482.247,342.919 487.207,386.050 492.833 C 437.435 499.537,1962.565 499.537,2013.950 492.833 C 2055.482 487.415,2064.455 482.152,2080.376 453.871 C 2099.391 420.091,2102.491 401.563,2093.776 373.786 C 2085.203 346.463,2057.446 315.068,2037.812 310.488 C 2022.690 306.960,1446.831 300.310,1224.000 301.090 C 1130.500 301.417,896.748 302.656,704.550 303.842 M575.189 703.830 L 356.379 706.000 340.007 721.990 C 319.734 741.790,300.000 780.270,300.000 800.000 C 300.000 832.488,339.017 886.914,367.226 893.774 C 373.152 895.215,584.100 897.399,836.000 898.626 C 1302.855 900.900,1416.190 898.713,1444.504 886.883 C 1460.242 880.307,1476.451 862.600,1488.825 838.466 C 1511.488 794.263,1485.741 725.141,1441.769 712.137 C 1431.555 709.117,1358.362 706.234,1234.000 703.955 C 1032.987 700.272,935.853 700.254,575.189 703.830 M704.550 1103.842 L 355.101 1106.000 337.284 1125.681 C 297.761 1169.340,291.910 1203.348,316.285 1247.723 C 324.056 1261.871,334.844 1276.753,340.257 1280.795 C 361.954 1296.994,388.138 1297.503,1200.000 1297.503 C 2010.411 1297.503,2038.078 1296.970,2059.545 1280.943 C 2071.801 1271.792,2090.130 1239.388,2096.400 1215.786 C 2100.558 1200.135,2100.189 1194.225,2093.776 1173.786 C 2085.203 1146.463,2057.446 1115.068,2037.812 1110.488 C 2022.690 1106.960,1446.831 1100.310,1224.000 1101.090 C 1130.500 1101.417,896.748 1102.656,704.550 1103.842 M575.189 1503.830 L 356.379 1506.000 340.007 1521.990 C 319.734 1541.790,300.000 1580.270,300.000 1600.000 C 300.000 1632.488,339.017 1686.914,367.226 1693.774 C 373.152 1695.215,584.100 1697.399,836.000 1698.626 C 1302.855 1700.900,1416.190 1698.713,1444.504 1686.883 C 1460.242 1680.307,1476.451 1662.600,1488.825 1638.466 C 1511.488 1594.263,1485.741 1525.141,1441.769 1512.137 C 1431.555 1509.117,1358.362 1506.234,1234.000 1503.955 C 1032.987 1500.272,935.853 1500.254,575.189 1503.830 M704.550 1903.842 L 355.101 1906.000 337.284 1925.681 C 297.761 1969.340,291.910 2003.348,316.285 2047.723 C 324.056 2061.871,334.844 2076.753,340.257 2080.795 C 361.987 2097.018,387.938 2097.523,1200.000 2097.523 C 2010.614 2097.523,2038.046 2096.994,2059.545 2080.943 C 2071.801 2071.792,2090.130 2039.388,2096.400 2015.786 C 2100.558 2000.135,2100.189 1994.225,2093.776 1973.786 C 2085.203 1946.463,2057.446 1915.068,2037.812 1910.488 C 2022.690 1906.960,1446.831 1900.310,1224.000 1901.090 C 1130.500 1901.417,896.748 1902.656,704.550 1903.842 " fill="#1D1E23" stroke="none" fill-rule="evenodd"/></svg>