<svg viewBox="0 0 2400 2400" fill="none" xmlns="http://www.w3.org/2000/svg"><path d="M788.857 213.698 C 760.066 227.406,726.565 261.859,711.915 292.827 L 700.006 318.000 700.003 1000.463 L 700.000 1682.925 714.005 1710.920 C 730.795 1744.480,758.886 1772.235,791.128 1787.117 C 810.482 1796.051,819.537 1797.675,850.000 1797.675 C 880.463 1797.675,889.518 1796.051,908.872 1787.117 C 941.114 1772.235,969.205 1744.480,985.995 1710.920 L 1000.000 1682.925 1000.000 1000.101 L 1000.000 317.278 987.216 291.639 C 971.797 260.715,941.206 229.150,914.000 216.091 C 897.731 208.282,886.164 206.224,852.000 205.061 C 813.745 203.758,808.115 204.528,788.857 213.698 M1488.857 813.698 C 1460.066 827.406,1426.565 861.859,1411.915 892.827 L 1400.006 918.000 1400.003 1300.463 L 1400.000 1682.925 1414.005 1710.920 C 1430.795 1744.480,1458.886 1772.235,1491.128 1787.117 C 1510.482 1796.051,1519.537 1797.675,1550.000 1797.675 C 1580.463 1797.675,1589.518 1796.051,1608.872 1787.117 C 1641.114 1772.235,1669.205 1744.480,1685.995 1710.920 L 1700.000 1682.925 1700.000 1300.101 L 1700.000 917.278 1687.216 891.639 C 1671.797 860.715,1641.206 829.150,1614.000 816.091 C 1597.731 808.282,1586.164 806.224,1552.000 805.061 C 1513.745 803.758,1508.115 804.528,1488.857 813.698 M352.000 2003.960 C 300.300 2005.367,257.510 2006.851,256.911 2007.259 C 256.311 2007.667,247.610 2015.569,237.573 2024.820 C 201.783 2057.811,191.334 2098.618,208.970 2136.525 C 225.510 2172.074,241.979 2187.336,270.000 2193.080 C 304.912 2200.237,2095.070 2200.239,2130.000 2193.083 C 2150.389 2188.905,2156.257 2185.595,2168.999 2171.083 C 2191.363 2145.611,2197.761 2129.799,2197.761 2100.000 C 2197.761 2070.227,2191.392 2054.467,2168.999 2028.826 C 2156.493 2014.507,2150.344 2010.928,2132.000 2007.294 C 2107.425 2002.426,517.796 1999.448,352.000 2003.960 " fill="#1D1E23" stroke="none" fill-rule="evenodd"/></svg>