<svg viewBox="0 0 2400 2400" fill="none" xmlns="http://www.w3.org/2000/svg"><path d="M814.984 304.088 C 771.735 315.014,734.235 346.291,714.378 388.000 L 702.000 414.000 700.913 757.000 L 699.827 1100.000 484.626 1100.000 C 241.178 1100.000,244.114 1099.676,213.895 1129.895 C 174.768 1169.021,174.768 1230.979,213.895 1270.105 C 244.114 1300.324,241.178 1300.000,484.626 1300.000 L 699.827 1300.000 700.913 1643.000 L 702.000 1986.000 714.378 2012.000 C 730.110 2045.044,754.956 2069.890,788.000 2085.622 C 811.094 2096.617,818.023 2098.000,850.000 2098.000 C 881.977 2098.000,888.906 2096.617,912.000 2085.622 C 945.044 2069.890,969.890 2045.044,985.622 2012.000 L 998.000 1986.000 999.087 1643.000 L 1000.173 1300.000 1199.941 1300.000 L 1399.709 1300.000 1400.854 1493.000 L 1402.000 1686.000 1414.378 1712.000 C 1430.110 1745.044,1454.956 1769.890,1488.000 1785.622 C 1511.094 1796.617,1518.023 1798.000,1550.000 1798.000 C 1581.977 1798.000,1588.906 1796.617,1612.000 1785.622 C 1645.044 1769.890,1669.890 1745.044,1685.622 1712.000 L 1698.000 1686.000 1699.146 1493.000 L 1700.291 1300.000 1907.433 1300.000 C 2141.894 1300.000,2139.994 1300.216,2170.105 1270.105 C 2209.232 1230.979,2209.232 1169.021,2170.105 1129.895 C 2139.994 1099.784,2141.894 1100.000,1907.433 1100.000 L 1700.291 1100.000 1699.146 907.000 L 1698.000 714.000 1685.566 688.000 C 1669.820 655.073,1645.152 630.435,1612.000 614.521 C 1588.826 603.397,1582.086 602.040,1550.000 602.040 C 1518.045 602.040,1511.079 603.428,1488.000 614.398 C 1454.967 630.099,1430.116 654.944,1414.378 688.000 L 1402.000 714.000 1400.854 907.000 L 1399.709 1100.000 1199.941 1100.000 L 1000.173 1100.000 999.087 757.000 L 998.000 414.000 985.566 388.000 C 961.046 336.727,914.188 304.789,859.175 301.852 C 843.129 300.996,823.243 302.002,814.984 304.088 " fill="#1D1E23" stroke="none" fill-rule="evenodd"/></svg>