<svg viewBox="0 0 2400 2400" fill="none" xmlns="http://www.w3.org/2000/svg"><path d="M740.502 303.804 L 355.003 306.000 337.387 326.000 C 301.417 366.838,294.292 400.240,312.938 440.618 C 324.977 466.691,340.248 482.395,359.494 488.494 C 393.911 499.400,1938.820 502.263,2017.800 491.567 C 2056.266 486.357,2067.335 478.823,2083.769 446.660 C 2106.364 402.442,2099.874 363.278,2064.217 328.674 C 2049.488 314.381,2044.902 312.334,2022.827 310.205 C 1994.636 307.485,1302.939 299.643,1196.000 300.830 C 1157.500 301.258,952.526 302.596,740.502 303.804 M1202.550 703.801 L 955.101 706.000 937.915 724.985 C 917.836 747.165,904.087 773.674,901.096 795.976 C 896.764 828.270,939.387 888.521,970.721 894.399 C 978.636 895.884,1212.111 897.302,1489.556 897.549 C 1872.335 897.891,2000.207 896.819,2019.736 893.104 C 2051.332 887.093,2069.747 873.269,2085.000 844.113 C 2104.939 805.999,2098.419 762.627,2068.076 731.531 C 2050.846 713.875,2048.689 712.885,2022.000 710.396 C 1986.875 707.120,1604.715 699.945,1516.000 700.895 C 1479.700 701.284,1338.648 702.592,1202.550 703.801 M740.502 1103.804 L 355.003 1106.000 337.387 1126.000 C 300.877 1167.450,293.945 1201.367,313.721 1241.788 C 330.688 1276.467,342.496 1286.667,370.248 1290.618 C 383.312 1292.478,761.200 1294.000,1210.000 1294.000 C 1869.275 1294.000,2029.309 1292.998,2043.226 1288.785 C 2057.643 1284.420,2062.988 1279.647,2076.000 1259.515 C 2084.551 1246.285,2093.614 1226.132,2096.141 1214.730 C 2100.211 1196.364,2099.750 1191.383,2092.097 1171.045 C 2086.665 1156.610,2076.880 1141.512,2065.732 1130.364 C 2049.519 1114.150,2045.872 1112.431,2023.003 1110.224 C 1994.694 1107.491,1303.361 1099.638,1196.000 1100.830 C 1157.500 1101.258,952.526 1102.596,740.502 1103.804 M1202.550 1503.801 L 955.101 1506.000 937.915 1524.985 C 917.836 1547.165,904.087 1573.674,901.096 1595.976 C 896.764 1628.270,939.387 1688.521,970.721 1694.399 C 978.636 1695.884,1212.111 1697.302,1489.556 1697.549 C 1872.335 1697.891,2000.207 1696.819,2019.736 1693.104 C 2051.332 1687.093,2069.747 1673.269,2085.000 1644.113 C 2104.939 1605.999,2098.419 1562.627,2068.076 1531.531 C 2050.846 1513.875,2048.689 1512.885,2022.000 1510.396 C 1986.875 1507.120,1604.715 1499.945,1516.000 1500.895 C 1479.700 1501.284,1338.648 1502.592,1202.550 1503.801 M741.419 1903.804 C 365.208 1905.952,356.646 1906.173,348.078 1913.928 C 331.923 1928.551,311.196 1960.070,305.677 1978.407 C 298.276 2003.000,304.094 2028.717,324.043 2059.581 C 336.229 2078.435,342.714 2084.493,354.746 2088.261 C 376.704 2095.139,1096.849 2099.514,1615.000 2095.919 C 1918.367 2093.813,2034.103 2091.754,2045.254 2088.261 C 2057.299 2084.489,2063.773 2078.432,2076.028 2059.472 C 2084.563 2046.266,2093.614 2026.132,2096.141 2014.730 C 2100.211 1996.364,2099.750 1991.383,2092.097 1971.045 C 2086.665 1956.610,2076.880 1941.512,2065.732 1930.364 C 2049.519 1914.150,2045.872 1912.431,2023.003 1910.224 C 1994.694 1907.491,1303.361 1899.638,1196.000 1900.830 C 1157.500 1901.258,952.938 1902.596,741.419 1903.804 " fill="#1D1E23" stroke="none" fill-rule="evenodd"/></svg>