<svg viewBox="0 0 2400 2400" fill="none" xmlns="http://www.w3.org/2000/svg"><path d="M788.000 315.518 C 764.478 328.412,737.315 354.946,718.196 383.706 L 700.000 411.076 700.000 755.538 L 700.000 1100.000 603.000 1100.087 C 494.860 1100.183,283.308 1106.490,256.894 1110.405 C 233.898 1113.813,216.717 1126.159,202.124 1149.762 C 191.388 1167.127,190.000 1172.880,190.000 1200.000 C 190.000 1227.097,191.397 1232.897,202.117 1250.314 C 208.781 1261.141,222.507 1275.565,232.619 1282.366 C 257.058 1298.802,276.074 1300.000,512.614 1300.000 L 700.000 1300.000 700.038 1643.000 L 700.075 1986.000 712.644 2008.000 C 727.789 2034.508,768.336 2075.349,790.165 2086.082 C 801.630 2091.720,816.716 2094.264,844.833 2095.304 C 879.735 2096.594,885.929 2095.703,906.015 2086.508 C 932.909 2074.195,969.777 2038.578,987.348 2007.935 L 999.925 1986.000 999.962 1643.000 L 1000.000 1300.000 1200.000 1300.000 L 1400.000 1300.000 1400.038 1493.000 L 1400.075 1686.000 1412.644 1708.000 C 1427.789 1734.508,1468.336 1775.349,1490.165 1786.082 C 1501.630 1791.720,1516.716 1794.264,1544.833 1795.304 C 1579.735 1796.594,1585.929 1795.703,1606.015 1786.508 C 1632.909 1774.195,1669.777 1738.578,1687.348 1707.935 L 1699.925 1686.000 1699.962 1493.000 L 1700.000 1300.000 1915.772 1300.000 L 2131.544 1300.000 2155.503 1277.818 C 2198.154 1238.331,2208.263 1197.613,2185.706 1156.169 C 2171.998 1130.983,2156.937 1117.638,2135.796 1111.945 C 2112.359 1105.634,1971.267 1100.224,1827.000 1100.105 L 1700.000 1100.000 1699.962 907.000 L 1699.925 714.000 1688.410 694.000 C 1673.221 667.617,1629.196 625.849,1605.556 615.392 C 1591.130 609.010,1577.685 606.926,1548.349 606.525 C 1513.818 606.052,1507.955 607.079,1489.458 616.835 C 1461.535 631.564,1430.969 661.123,1414.043 689.765 L 1400.000 713.529 1400.000 906.765 L 1400.000 1100.000 1200.000 1100.000 L 1000.000 1100.000 999.962 757.000 L 999.925 414.000 988.369 393.853 C 972.455 366.109,934.669 328.751,912.458 318.804 C 885.208 306.599,807.989 304.560,788.000 315.518 " fill="#1D1E23" stroke="none" fill-rule="evenodd"/></svg>