<svg viewBox="0 0 2400 2400" fill="none" xmlns="http://www.w3.org/2000/svg"><path d="M260.200 210.978 C 252.610 214.716,237.157 227.017,225.860 238.314 L 205.320 258.854 202.660 422.083 C 199.081 641.723,199.779 1711.292,203.655 1946.000 C 207.094 2154.267,206.940 2153.089,233.411 2173.279 C 255.219 2189.913,273.058 2196.000,300.000 2196.000 C 340.055 2196.000,379.616 2173.038,388.278 2144.760 C 395.347 2121.683,399.401 1777.083,399.415 1198.000 C 399.431 553.064,395.810 271.985,387.230 251.965 C 380.675 236.672,357.188 218.329,333.208 209.776 C 311.982 202.205,276.840 202.784,260.200 210.978 M866.000 707.860 C 668.648 710.315,683.930 707.389,644.657 750.248 C 609.315 788.818,602.518 805.086,602.731 850.593 C 602.880 882.308,604.428 890.794,613.422 909.177 C 626.269 935.434,666.509 975.056,694.985 989.486 L 715.734 1000.000 1400.000 1000.000 L 2084.266 1000.000 2105.015 989.486 C 2133.718 974.941,2173.811 935.399,2186.017 909.597 C 2199.854 880.349,2200.475 821.434,2187.244 793.286 C 2175.965 769.291,2140.058 732.728,2112.000 716.668 L 2090.000 704.075 1564.000 704.897 C 1274.700 705.349,960.600 706.683,866.000 707.860 M784.000 1407.790 C 679.965 1410.345,680.924 1410.040,642.149 1452.887 C 609.160 1489.342,602.521 1505.798,602.731 1550.593 C 602.880 1582.308,604.428 1590.794,613.422 1609.177 C 626.269 1635.434,666.509 1675.056,694.985 1689.486 L 715.734 1700.000 1100.000 1700.000 L 1484.266 1700.000 1505.015 1689.486 C 1533.718 1674.941,1573.811 1635.399,1586.017 1609.597 C 1599.854 1580.349,1600.475 1521.434,1587.244 1493.286 C 1575.965 1469.291,1540.058 1432.728,1512.000 1416.668 L 1490.000 1404.075 1182.000 1404.828 C 1012.600 1405.242,833.500 1406.575,784.000 1407.790 " fill="#1D1E23" stroke="none" fill-rule="evenodd"/></svg>