<svg viewBox="0 0 2400 2400" fill="none" xmlns="http://www.w3.org/2000/svg"><path d="M264.342 206.868 C 240.729 215.209,214.918 241.645,206.625 265.983 C 200.534 283.857,200.000 359.204,200.000 1200.000 C 200.000 2226.441,197.258 2137.469,229.895 2170.105 C 269.021 2209.232,330.979 2209.232,370.105 2170.105 C 402.742 2137.469,400.000 2226.441,400.000 1200.000 C 400.000 173.559,402.742 262.531,370.105 229.895 C 342.352 202.141,302.370 193.437,264.342 206.868 M714.984 704.314 C 672.460 714.417,634.296 746.163,614.378 788.000 C 603.383 811.094,602.000 818.023,602.000 850.000 C 602.000 881.977,603.383 888.906,614.378 912.000 C 630.110 945.044,654.956 969.890,688.000 985.622 L 714.000 998.000 1400.000 998.000 L 2086.000 998.000 2112.000 985.622 C 2145.044 969.890,2169.890 945.044,2185.622 912.000 C 2196.617 888.906,2198.000 881.977,2198.000 850.000 C 2198.000 817.964,2196.631 811.137,2185.566 788.000 C 2169.825 755.085,2145.164 730.446,2112.000 714.501 L 2086.000 702.000 1408.000 701.373 C 1022.162 701.016,723.529 702.284,714.984 704.314 M714.984 1404.293 C 672.394 1414.471,634.290 1446.175,614.378 1488.000 C 603.383 1511.094,602.000 1518.023,602.000 1550.000 C 602.000 1581.977,603.383 1588.906,614.378 1612.000 C 630.110 1645.044,654.956 1669.890,688.000 1685.622 L 714.000 1698.000 1100.000 1698.000 L 1486.000 1698.000 1512.000 1685.622 C 1545.044 1669.890,1569.890 1645.044,1585.622 1612.000 C 1596.617 1588.906,1598.000 1581.977,1598.000 1550.000 C 1598.000 1517.964,1596.631 1511.137,1585.566 1488.000 C 1569.825 1455.085,1545.164 1430.446,1512.000 1414.501 L 1486.000 1402.000 1108.000 1401.352 C 896.132 1400.989,723.400 1402.282,714.984 1404.293 " fill="#1D1E23" stroke="none" fill-rule="evenodd"/></svg>