<svg viewBox="0 0 2400 2400" fill="none" xmlns="http://www.w3.org/2000/svg"><path d="M740.502 303.804 L 355.003 306.000 337.387 326.000 C 301.417 366.838,294.292 400.240,312.938 440.618 C 324.977 466.691,340.248 482.395,359.494 488.494 C 393.911 499.400,1938.820 502.263,2017.800 491.567 C 2056.266 486.357,2067.335 478.823,2083.769 446.660 C 2106.364 402.442,2099.874 363.278,2064.217 328.674 C 2049.488 314.381,2044.902 312.334,2022.827 310.205 C 1994.636 307.485,1302.939 299.643,1196.000 300.830 C 1157.500 301.258,952.526 302.596,740.502 303.804 M771.153 706.934 C 754.626 708.242,750.339 710.660,736.340 726.564 C 718.292 747.067,704.629 772.963,701.461 792.673 C 698.685 809.945,711.795 845.098,728.620 865.497 C 750.019 891.441,755.887 892.547,891.990 896.292 C 1050.157 900.643,1483.577 900.629,1566.071 896.269 C 1637.371 892.501,1652.197 888.396,1669.819 867.544 C 1703.795 827.341,1705.235 778.596,1673.669 737.211 C 1657.029 715.394,1644.249 711.270,1582.162 707.682 C 1528.034 704.554,809.592 703.891,771.153 706.934 M740.502 1103.804 L 355.003 1106.000 337.387 1126.000 C 300.877 1167.450,293.945 1201.367,313.721 1241.788 C 330.688 1276.467,342.496 1286.667,370.248 1290.618 C 383.312 1292.478,761.200 1294.000,1210.000 1294.000 C 1869.275 1294.000,2029.309 1292.998,2043.226 1288.785 C 2057.643 1284.420,2062.988 1279.647,2076.000 1259.515 C 2084.551 1246.285,2093.614 1226.132,2096.141 1214.730 C 2100.211 1196.364,2099.750 1191.383,2092.097 1171.045 C 2086.665 1156.610,2076.880 1141.512,2065.732 1130.364 C 2049.519 1114.150,2045.872 1112.431,2023.003 1110.224 C 1994.694 1107.491,1303.361 1099.638,1196.000 1100.830 C 1157.500 1101.258,952.526 1102.596,740.502 1103.804 M771.153 1506.934 C 754.626 1508.242,750.339 1510.660,736.340 1526.564 C 718.292 1547.067,704.629 1572.963,701.461 1592.673 C 698.685 1609.945,711.795 1645.098,728.620 1665.497 C 750.019 1691.441,755.887 1692.547,891.990 1696.292 C 1050.157 1700.643,1483.577 1700.629,1566.071 1696.269 C 1637.371 1692.501,1652.197 1688.396,1669.819 1667.544 C 1703.795 1627.341,1705.235 1578.596,1673.669 1537.211 C 1657.029 1515.394,1644.249 1511.270,1582.162 1507.682 C 1528.034 1504.554,809.592 1503.891,771.153 1506.934 M741.419 1903.804 C 365.208 1905.952,356.646 1906.173,348.078 1913.928 C 331.923 1928.551,311.196 1960.070,305.677 1978.407 C 298.276 2003.000,304.094 2028.717,324.043 2059.581 C 336.229 2078.435,342.714 2084.493,354.746 2088.261 C 376.704 2095.139,1096.849 2099.514,1615.000 2095.919 C 1918.367 2093.813,2034.103 2091.754,2045.254 2088.261 C 2057.299 2084.489,2063.773 2078.432,2076.028 2059.472 C 2084.563 2046.266,2093.614 2026.132,2096.141 2014.730 C 2100.211 1996.364,2099.750 1991.383,2092.097 1971.045 C 2086.665 1956.610,2076.880 1941.512,2065.732 1930.364 C 2049.519 1914.150,2045.872 1912.431,2023.003 1910.224 C 1994.694 1907.491,1303.361 1899.638,1196.000 1900.830 C 1157.500 1901.258,952.938 1902.596,741.419 1903.804 " fill="#1D1E23" stroke="none" fill-rule="evenodd"/></svg>