<svg viewBox="0 0 2400 2400" fill="none" xmlns="http://www.w3.org/2000/svg"><path d="M444.000 304.090 C 396.700 305.448,357.510 306.884,356.911 307.280 C 356.311 307.676,347.610 315.569,337.573 324.820 C 291.783 367.028,288.479 417.525,328.218 467.799 C 341.780 484.956,346.540 488.023,366.843 492.684 C 401.121 500.553,1998.911 500.545,2033.196 492.676 C 2054.209 487.852,2058.059 485.227,2074.110 464.776 C 2106.227 423.857,2107.417 380.073,2077.519 339.345 C 2055.704 309.627,2049.730 307.747,1964.469 303.777 C 1881.742 299.925,579.701 300.192,444.000 304.090 M1018.000 704.128 C 985.000 705.576,957.510 707.040,956.911 707.381 C 956.311 707.721,947.610 715.569,937.573 724.820 C 901.885 757.716,891.390 798.478,908.812 836.525 C 921.518 864.274,941.977 885.736,962.047 892.372 C 974.809 896.592,1075.900 897.918,1467.443 899.001 C 1958.503 900.360,2027.072 898.891,2051.043 886.495 C 2068.295 877.574,2091.075 844.616,2096.633 820.537 C 2102.994 792.983,2096.431 765.109,2077.519 739.345 C 2056.858 711.199,2047.309 707.550,1984.243 703.702 C 1921.288 699.861,1107.034 700.220,1018.000 704.128 M444.000 1104.090 C 396.700 1105.448,357.510 1106.884,356.911 1107.280 C 356.311 1107.676,347.610 1115.569,337.573 1124.820 C 291.783 1167.028,288.479 1217.525,328.218 1267.799 C 341.780 1284.956,346.540 1288.023,366.843 1292.684 C 401.121 1300.553,1998.911 1300.545,2033.196 1292.676 C 2054.209 1287.852,2058.059 1285.227,2074.110 1264.776 C 2106.227 1223.857,2107.417 1180.073,2077.519 1139.345 C 2055.704 1109.627,2049.730 1107.747,1964.469 1103.777 C 1881.742 1099.925,579.701 1100.192,444.000 1104.090 M1018.000 1504.128 C 985.000 1505.576,957.510 1507.040,956.911 1507.381 C 956.311 1507.721,947.610 1515.569,937.573 1524.820 C 901.885 1557.716,891.390 1598.478,908.812 1636.525 C 921.518 1664.274,941.977 1685.736,962.047 1692.372 C 974.809 1696.592,1075.900 1697.918,1467.443 1699.001 C 1958.503 1700.360,2027.072 1698.891,2051.043 1686.495 C 2068.295 1677.574,2091.075 1644.616,2096.633 1620.537 C 2102.994 1592.983,2096.431 1565.109,2077.519 1539.345 C 2056.858 1511.199,2047.309 1507.550,1984.243 1503.702 C 1921.288 1499.861,1107.034 1500.220,1018.000 1504.128 M444.000 1904.090 C 396.700 1905.448,357.510 1906.884,356.911 1907.280 C 356.311 1907.676,347.610 1915.569,337.573 1924.820 C 291.783 1967.028,288.479 2017.525,328.218 2067.799 C 341.780 2084.956,346.540 2088.023,366.843 2092.684 C 401.121 2100.553,1998.911 2100.545,2033.196 2092.676 C 2054.209 2087.852,2058.059 2085.227,2074.110 2064.776 C 2106.227 2023.857,2107.417 1980.073,2077.519 1939.345 C 2055.704 1909.627,2049.730 1907.747,1964.469 1903.777 C 1881.742 1899.925,579.701 1900.192,444.000 1904.090 " fill="#1D1E23" stroke="none" fill-rule="evenodd"/></svg>