<svg viewBox="0 0 2400 2400" fill="none" xmlns="http://www.w3.org/2000/svg"><path d="M799.686 309.187 C 769.714 320.492,730.777 357.376,712.382 391.889 L 700.000 415.120 700.000 757.095 L 700.000 1099.069 487.000 1101.225 C 271.793 1103.402,244.533 1105.251,226.269 1118.901 C 210.955 1130.347,192.595 1160.421,187.608 1182.227 C 178.301 1222.929,204.122 1271.727,245.589 1291.801 C 262.030 1299.760,268.931 1300.000,481.263 1300.000 L 700.000 1300.000 700.000 1642.440 L 700.000 1984.880 713.000 2009.281 C 730.062 2041.305,760.399 2071.789,789.155 2085.805 C 809.558 2095.749,816.791 2097.091,850.000 2097.091 C 883.209 2097.091,890.442 2095.749,910.845 2085.805 C 939.601 2071.789,969.938 2041.305,987.000 2009.281 L 1000.000 1984.880 1000.000 1642.440 L 1000.000 1300.000 1200.000 1300.000 L 1400.000 1300.000 1400.000 1492.440 L 1400.000 1684.880 1413.000 1709.281 C 1430.062 1741.305,1460.399 1771.789,1489.155 1785.805 C 1509.558 1795.749,1516.791 1797.091,1550.000 1797.091 C 1583.209 1797.091,1590.442 1795.749,1610.845 1785.805 C 1639.601 1771.789,1669.938 1741.305,1687.000 1709.281 L 1700.000 1684.880 1700.000 1492.541 L 1700.000 1300.201 1915.659 1299.101 L 2131.318 1298.000 2148.533 1285.898 C 2172.879 1268.784,2190.559 1243.875,2196.176 1218.778 C 2200.223 1200.694,2199.935 1193.824,2194.323 1174.520 C 2187.194 1149.995,2166.921 1123.785,2147.191 1113.581 C 2128.973 1104.161,2047.442 1100.243,1867.000 1100.117 L 1700.000 1100.000 1700.000 907.867 L 1700.000 715.734 1689.535 695.083 C 1675.796 667.971,1641.250 632.144,1614.995 617.780 C 1596.903 607.882,1588.630 606.072,1555.174 604.689 C 1518.509 603.173,1514.885 603.768,1490.073 615.379 C 1458.503 630.152,1430.878 657.187,1412.917 690.885 L 1400.000 715.120 1400.000 907.560 L 1400.000 1100.000 1200.000 1100.000 L 1000.000 1100.000 1000.000 757.867 L 1000.000 415.734 989.486 394.985 C 974.921 366.243,935.950 326.684,912.086 316.418 C 886.796 305.539,820.641 301.283,799.686 309.187 " fill="#1D1E23" stroke="none" fill-rule="evenodd"/></svg>