<svg viewBox="0 0 2400 2400" fill="none" xmlns="http://www.w3.org/2000/svg"><path d="M1037.798 105.695 C 934.477 125.013,850.384 173.858,789.419 249.964 C 756.649 290.873,732.602 337.784,713.957 397.177 L 699.147 444.353 701.124 1135.177 C 703.304 1897.088,701.336 1840.161,728.300 1921.264 C 797.764 2130.197,982.001 2276.924,1199.524 2296.546 C 1414.048 2315.898,1615.484 2211.079,1727.138 2022.000 C 1747.590 1987.366,1764.798 1946.181,1780.620 1894.000 C 1792.181 1855.874,1792.904 1849.222,1796.067 1752.000 C 1797.893 1695.900,1799.524 1413.750,1799.693 1125.000 L 1800.000 600.000 1724.626 600.000 L 1649.252 600.000 1646.983 1213.369 C 1644.723 1824.564,1644.684 1826.839,1636.184 1855.383 C 1583.921 2030.870,1430.173 2147.584,1250.831 2147.913 C 1150.824 2148.097,1060.328 2114.124,983.477 2047.547 C 937.363 2007.598,888.573 1930.464,865.970 1861.779 L 855.513 1830.000 853.303 1214.000 C 851.869 814.474,852.547 568.033,855.232 512.726 C 859.369 427.519,859.383 427.430,873.110 398.726 C 919.811 301.073,1009.682 246.881,1114.000 253.469 C 1211.628 259.634,1283.944 308.942,1326.817 398.577 C 1340.287 426.738,1340.547 428.307,1344.706 506.577 C 1347.469 558.587,1348.161 758.270,1346.712 1085.124 C 1344.509 1582.079,1344.464 1584.306,1336.163 1597.737 C 1312.927 1635.332,1267.193 1657.601,1232.022 1648.444 C 1209.096 1642.476,1185.695 1626.311,1169.786 1605.453 L 1157.320 1589.109 1154.660 1413.898 C 1153.197 1317.532,1152.000 1094.983,1152.000 919.344 L 1152.000 600.000 1075.867 600.000 L 999.734 600.000 1000.908 1099.000 L 1002.083 1598.000 1012.999 1627.577 C 1019.003 1643.844,1028.337 1664.697,1033.740 1673.918 C 1104.455 1794.582,1259.982 1834.872,1378.707 1763.282 C 1429.078 1732.909,1480.070 1664.325,1492.671 1610.000 C 1496.035 1595.494,1497.732 1432.427,1498.844 1016.423 L 1500.379 442.847 1485.806 396.423 C 1458.226 308.564,1413.727 240.348,1351.536 190.589 C 1319.122 164.655,1263.473 134.269,1222.698 120.240 C 1177.618 104.730,1082.836 97.274,1037.798 105.695 " fill="#1D1E23" stroke="none" fill-rule="evenodd"/></svg>