<svg viewBox="0 0 2400 2400" fill="none" xmlns="http://www.w3.org/2000/svg"><path d="M1043.256 104.027 C 984.243 113.422,922.123 137.962,873.129 171.233 C 795.556 223.912,739.637 303.385,712.929 398.911 L 702.000 438.000 702.000 1120.000 L 702.000 1802.000 711.026 1842.754 C 737.767 1963.502,787.504 2055.635,871.791 2140.557 C 957.160 2226.568,1050.619 2275.266,1167.053 2294.405 C 1218.071 2302.792,1314.893 2299.897,1364.000 2288.518 C 1584.814 2237.347,1744.012 2075.135,1790.441 1854.000 C 1797.654 1819.647,1798.000 1791.252,1798.000 1233.372 L 1798.000 648.743 1785.768 633.372 C 1768.105 611.174,1742.851 599.049,1718.719 601.178 C 1694.522 603.313,1669.845 620.002,1658.356 642.000 C 1650.023 657.956,1649.994 659.595,1647.944 1232.000 L 1645.888 1806.000 1636.578 1840.000 C 1625.628 1879.985,1594.094 1948.541,1573.313 1977.538 C 1501.112 2078.289,1404.633 2135.513,1286.000 2147.952 C 1171.208 2159.989,1052.109 2116.717,967.696 2032.304 C 918.263 1982.871,882.342 1921.474,862.871 1853.135 L 854.000 1822.000 852.820 1150.000 C 851.508 402.439,849.786 453.138,878.487 393.952 C 905.118 339.035,944.694 299.019,997.521 273.595 C 1035.587 255.276,1061.621 250.687,1113.894 253.084 C 1167.411 255.538,1196.546 264.787,1237.917 292.458 C 1285.566 324.328,1319.163 368.073,1336.399 420.690 L 1346.000 450.000 1346.000 1016.313 L 1346.000 1582.627 1333.856 1602.313 C 1313.480 1635.346,1271.479 1655.307,1234.855 1649.364 C 1210.384 1645.393,1179.799 1624.451,1166.144 1602.316 L 1154.000 1582.632 1152.000 1120.316 C 1150.014 661.144,1149.943 657.891,1141.644 642.000 C 1130.155 620.002,1105.478 603.313,1081.281 601.178 C 1057.149 599.049,1031.896 611.174,1014.232 633.370 L 1002.000 648.741 1000.887 1103.370 C 999.629 1617.724,998.299 1592.739,1030.470 1659.337 C 1081.956 1765.920,1197.341 1820.813,1309.562 1792.112 C 1381.092 1773.818,1440.431 1726.788,1471.498 1663.768 C 1501.388 1603.133,1499.853 1637.492,1499.931 1027.524 C 1500.007 429.450,1500.757 450.132,1476.369 378.427 C 1431.030 245.128,1325.327 145.658,1192.933 111.706 C 1157.281 102.563,1078.003 98.496,1043.256 104.027 " fill="#1D1E23" stroke="none" fill-rule="evenodd"/></svg>