<svg viewBox="0 0 2400 2400" fill="none" xmlns="http://www.w3.org/2000/svg"><path d="M1027.029 107.951 C 953.580 121.028,870.526 166.078,815.549 222.660 C 765.945 273.713,740.126 318.410,713.555 399.229 L 700.000 440.459 700.005 1119.229 L 700.010 1798.000 709.745 1838.000 C 740.293 1963.517,787.856 2052.992,866.937 2133.704 C 988.232 2257.503,1127.210 2310.045,1297.315 2296.416 C 1460.830 2283.314,1612.823 2193.383,1707.023 2054.000 C 1741.943 2002.329,1775.540 1923.818,1786.617 1868.000 C 1796.381 1818.793,1799.602 1638.238,1799.807 1128.576 L 1800.000 651.151 1787.913 635.890 C 1773.432 617.606,1746.292 603.585,1724.807 603.289 C 1695.782 602.888,1666.029 624.171,1653.914 654.000 C 1650.198 663.148,1648.492 803.027,1646.732 1242.609 L 1644.424 1819.218 1629.767 1858.609 C 1595.821 1949.838,1557.192 2007.443,1493.536 2061.757 C 1422.122 2122.690,1305.368 2158.577,1212.695 2148.079 C 1051.938 2129.868,918.465 2020.053,866.358 1863.131 L 856.685 1834.000 854.037 1240.000 C 852.324 855.667,852.842 608.585,855.505 540.000 L 859.621 434.000 875.839 402.000 C 908.429 337.698,944.596 300.862,1002.000 273.509 C 1039.210 255.778,1077.632 250.423,1127.924 255.956 C 1176.848 261.339,1197.230 268.251,1232.959 291.575 C 1271.439 316.695,1302.616 351.892,1323.882 394.224 L 1341.172 428.642 1341.586 1007.321 C 1341.972 1546.752,1341.535 1586.849,1335.144 1598.524 C 1321.625 1623.217,1275.764 1651.878,1249.639 1651.961 C 1229.040 1652.026,1189.321 1629.436,1172.403 1608.033 L 1157.314 1588.943 1154.657 1449.818 C 1153.196 1373.299,1152.000 1166.029,1152.000 989.218 C 1152.000 642.387,1152.792 655.732,1130.653 629.478 C 1099.725 592.803,1043.600 596.101,1011.625 636.474 L 999.076 652.318 1001.143 1109.159 C 1002.542 1418.463,1004.662 1575.043,1007.707 1594.000 C 1014.426 1635.834,1038.755 1681.766,1074.043 1719.245 C 1125.494 1773.889,1178.775 1797.578,1250.000 1797.476 C 1296.308 1797.409,1324.266 1790.474,1365.710 1768.772 C 1417.290 1741.764,1471.300 1679.769,1486.179 1630.494 C 1497.228 1593.905,1499.710 1489.111,1499.647 1062.000 C 1499.578 594.121,1496.393 442.597,1485.897 408.000 C 1457.894 315.692,1409.243 241.757,1340.560 187.132 C 1301.149 155.787,1224.354 118.013,1188.854 112.512 C 1151.575 106.734,1049.948 103.870,1027.029 107.951 " fill="#1D1E23" stroke="none" fill-rule="evenodd"/></svg>