<svg viewBox="0 0 2400 2400" fill="none" xmlns="http://www.w3.org/2000/svg"><path d="M838.000 403.951 C 761.412 407.167,750.503 410.209,726.730 434.979 C 714.366 447.863,710.728 455.371,707.608 474.445 C 702.416 506.196,698.676 1348.521,702.769 1564.317 L 706.000 1734.634 718.000 1753.932 C 733.552 1778.941,745.232 1787.247,772.083 1792.390 C 785.610 1794.981,916.762 1797.408,1114.679 1798.729 L 1435.358 1800.871 1468.679 1789.825 C 1553.891 1761.579,1598.167 1736.164,1653.639 1683.654 C 1709.874 1630.423,1734.381 1592.132,1758.379 1520.000 C 1768.867 1488.476,1769.702 1481.339,1769.846 1422.000 C 1769.978 1367.293,1768.662 1353.102,1760.783 1324.267 C 1735.400 1231.374,1675.578 1149.743,1598.000 1102.139 C 1580.400 1091.339,1565.371 1082.060,1564.602 1081.520 C 1563.833 1080.979,1582.733 1060.954,1606.602 1037.020 C 1658.903 984.576,1687.090 941.383,1707.253 882.785 C 1720.627 843.918,1721.282 839.461,1721.181 788.000 C 1721.110 751.851,1718.962 725.820,1714.685 709.255 C 1679.160 571.664,1589.655 473.429,1452.052 421.002 C 1428.607 412.069,1417.395 410.756,1340.000 407.875 C 1209.942 403.034,914.777 400.727,838.000 403.951 M1254.366 655.521 C 1348.516 658.429,1351.138 658.737,1368.366 668.937 C 1391.399 682.572,1420.949 713.391,1432.669 736.000 C 1440.859 751.799,1442.000 759.624,1442.000 800.000 C 1442.000 843.359,1441.329 847.211,1430.312 867.096 C 1415.794 893.300,1387.731 919.947,1359.688 934.158 C 1331.122 948.634,1292.328 951.605,1129.000 951.826 L 1000.000 952.000 1000.000 802.000 L 1000.000 652.000 1079.000 652.272 C 1122.450 652.422,1201.365 653.884,1254.366 655.521 M1415.867 1267.007 C 1442.436 1282.393,1471.123 1313.142,1483.085 1339.057 C 1497.497 1370.279,1497.903 1422.028,1484.018 1457.876 C 1472.783 1486.881,1443.011 1518.280,1411.665 1534.182 C 1382.752 1548.850,1343.857 1551.474,1151.000 1551.769 L 1000.000 1552.000 1000.000 1401.452 L 1000.000 1250.904 1199.000 1253.782 L 1398.000 1256.660 1415.867 1267.007 " fill="#1D1E23" stroke="none" fill-rule="evenodd"/></svg>