<svg viewBox="0 0 2400 2400" fill="none" xmlns="http://www.w3.org/2000/svg"><path d="M700.000 1100.000 L 700.000 1800.000 1081.000 1799.982 L 1462.000 1799.965 1512.317 1782.822 C 1577.111 1760.747,1615.532 1737.040,1662.286 1690.286 C 1705.398 1647.174,1731.385 1606.927,1750.322 1553.942 C 1785.062 1456.745,1782.813 1362.570,1743.547 1270.298 C 1715.138 1203.538,1653.654 1133.337,1592.441 1097.770 L 1560.373 1079.137 1579.187 1064.233 C 1610.949 1039.071,1657.003 986.839,1677.380 952.867 C 1716.673 887.362,1732.366 809.018,1720.453 737.831 C 1694.641 583.583,1593.439 466.414,1444.000 417.760 C 1410.377 406.813,1408.425 406.657,1268.000 403.731 C 1189.900 402.103,1030.150 400.598,913.000 400.386 L 700.000 400.000 700.000 1100.000 M1367.343 667.972 C 1396.000 683.247,1419.249 706.890,1433.750 735.506 C 1442.927 753.616,1444.000 760.401,1444.000 800.307 C 1444.000 842.606,1443.359 846.083,1431.438 868.448 C 1408.252 911.950,1366.082 940.835,1314.967 948.228 C 1301.235 950.214,1224.750 951.875,1145.000 951.920 L 1000.000 952.000 1000.000 801.432 L 1000.000 650.864 1171.334 652.843 L 1342.669 654.821 1367.343 667.972 M1416.057 1266.417 C 1460.407 1290.555,1489.132 1330.215,1495.386 1375.941 C 1507.410 1463.862,1451.927 1537.043,1364.717 1548.292 C 1350.023 1550.187,1261.950 1551.797,1169.000 1551.869 L 1000.000 1552.000 1000.000 1401.427 L 1000.000 1250.855 1197.405 1252.854 L 1394.809 1254.853 1416.057 1266.417 " fill="#1D1E23" stroke="none" fill-rule="evenodd"/></svg>