<svg viewBox="0 0 2400 2400" fill="none" xmlns="http://www.w3.org/2000/svg"><path d="M700.000 1099.948 L 700.000 1800.267 1083.000 1799.056 L 1466.000 1797.845 1497.880 1788.637 C 1656.259 1742.892,1761.772 1611.684,1774.369 1444.816 C 1785.246 1300.727,1703.178 1152.643,1576.844 1088.402 L 1559.688 1079.678 1580.844 1063.010 C 1642.177 1014.687,1685.458 954.501,1711.010 882.000 C 1723.323 847.065,1727.382 782.260,1720.103 736.827 C 1694.029 574.072,1584.573 454.420,1422.000 410.954 C 1390.690 402.583,1382.559 402.368,1045.000 401.013 L 700.000 399.629 700.000 1099.948 M1364.133 664.870 C 1392.388 678.747,1421.253 707.612,1435.130 735.867 C 1444.861 755.681,1446.000 762.400,1446.000 800.000 C 1446.000 837.600,1444.861 844.319,1435.130 864.133 C 1413.578 908.017,1370.212 940.129,1321.795 948.057 C 1308.708 950.200,1230.950 951.964,1149.000 951.977 L 1000.000 952.000 1000.000 801.838 L 1000.000 651.676 1171.000 652.838 L 1342.000 654.000 1364.133 664.870 M1419.284 1267.709 C 1544.939 1335.837,1515.023 1521.868,1374.265 1547.652 C 1359.509 1550.355,1284.232 1552.000,1175.265 1552.000 L 1000.000 1552.000 1000.000 1401.857 L 1000.000 1251.714 1197.000 1252.857 L 1394.000 1254.000 1419.284 1267.709 " fill="#1D1E23" stroke="none" fill-rule="evenodd"/></svg>