<svg viewBox="0 0 2400 2400" fill="none" xmlns="http://www.w3.org/2000/svg"><path d="M826.000 403.823 C 760.156 406.448,752.854 408.643,727.305 433.497 C 700.820 459.262,702.000 428.187,702.000 1100.000 C 702.000 1578.518,703.078 1710.679,707.126 1728.242 C 712.865 1753.142,729.753 1776.538,749.360 1786.751 C 768.211 1796.569,861.085 1799.445,1168.952 1799.742 L 1435.904 1800.000 1474.593 1787.607 C 1562.989 1759.291,1607.866 1731.673,1670.437 1667.083 C 1706.542 1629.813,1717.153 1615.928,1730.915 1587.941 C 1754.738 1539.494,1767.788 1497.132,1771.594 1455.891 C 1785.314 1307.200,1711.375 1164.478,1583.244 1092.326 L 1560.488 1079.512 1585.244 1058.510 C 1645.970 1006.994,1693.432 936.744,1712.790 869.727 C 1720.422 843.304,1721.906 828.972,1721.665 784.000 C 1721.416 737.361,1719.901 725.092,1710.552 694.000 C 1669.197 556.456,1581.214 465.792,1442.000 417.263 C 1414.292 407.604,1411.807 407.465,1204.000 403.926 C 978.912 400.093,919.973 400.077,826.000 403.823 M1359.359 663.673 C 1386.320 677.427,1413.658 702.301,1427.792 725.938 C 1440.120 746.554,1441.763 752.752,1443.273 784.324 C 1445.679 834.646,1442.107 851.933,1423.569 879.694 C 1404.861 907.710,1377.921 928.769,1345.321 940.860 C 1323.147 949.084,1314.082 949.586,1161.000 951.071 L 1000.000 952.633 1000.000 801.665 L 1000.000 650.697 1172.082 653.309 C 1331.452 655.728,1345.286 656.494,1359.359 663.673 M1417.923 1267.956 C 1444.540 1283.185,1473.903 1314.502,1484.500 1338.964 C 1502.292 1380.035,1497.715 1442.433,1474.175 1479.723 C 1458.651 1504.315,1426.253 1530.443,1398.961 1540.381 C 1374.604 1549.251,1369.474 1549.509,1187.000 1551.046 L 1000.000 1552.622 1000.000 1401.657 L 1000.000 1250.693 1198.510 1253.345 L 1397.019 1255.996 1417.923 1267.956 " fill="#1D1E23" stroke="none" fill-rule="evenodd"/></svg>