<svg viewBox="0 0 2400 2400" fill="none" xmlns="http://www.w3.org/2000/svg"><path d="M799.895 403.659 C 763.592 405.889,760.797 406.730,740.777 421.428 C 713.106 441.743,707.692 453.468,703.688 501.743 C 699.116 556.857,699.359 1647.900,703.953 1698.848 C 708.039 1744.149,713.042 1757.062,733.453 1774.983 C 760.540 1798.766,748.140 1798.012,1110.000 1797.865 L 1442.000 1797.729 1474.000 1788.502 C 1513.864 1777.006,1570.962 1750.415,1604.490 1727.731 C 1637.023 1705.721,1693.583 1649.041,1713.969 1618.020 C 1733.749 1587.922,1753.454 1542.635,1764.611 1501.634 C 1777.395 1454.651,1776.700 1379.803,1762.999 1327.954 C 1750.888 1282.123,1734.368 1244.639,1710.457 1208.734 C 1679.227 1161.836,1625.410 1113.053,1578.833 1089.421 L 1559.666 1079.696 1578.833 1064.513 C 1610.918 1039.095,1656.915 986.985,1677.380 952.867 C 1716.673 887.362,1732.366 809.018,1720.453 737.831 C 1694.642 583.591,1593.616 466.610,1444.000 417.719 L 1410.000 406.609 1240.000 403.704 C 1042.634 400.332,854.382 400.312,799.895 403.659 M1367.343 667.972 C 1396.000 683.247,1419.249 706.890,1433.750 735.506 C 1442.927 753.616,1444.000 760.401,1444.000 800.307 C 1444.000 842.606,1443.359 846.083,1431.438 868.448 C 1408.252 911.950,1366.082 940.835,1314.967 948.228 C 1301.235 950.214,1224.750 951.875,1145.000 951.920 L 1000.000 952.000 1000.000 801.432 L 1000.000 650.864 1171.334 652.843 L 1342.669 654.821 1367.343 667.972 M1416.057 1266.417 C 1460.407 1290.555,1489.132 1330.215,1495.386 1375.941 C 1507.410 1463.862,1451.927 1537.043,1364.717 1548.292 C 1350.023 1550.187,1261.950 1551.797,1169.000 1551.869 L 1000.000 1552.000 1000.000 1401.427 L 1000.000 1250.855 1197.405 1252.854 L 1394.809 1254.853 1416.057 1266.417 " fill="#1D1E23" stroke="none" fill-rule="evenodd"/></svg>