<svg viewBox="0 0 2400 2400" fill="none" xmlns="http://www.w3.org/2000/svg"><path d="M700.000 1099.407 L 700.000 1800.000 1082.175 1800.000 L 1464.349 1800.000 1503.175 1785.564 C 1560.000 1764.436,1599.735 1742.597,1633.006 1714.209 C 1694.826 1661.461,1733.656 1603.620,1758.010 1528.000 C 1766.760 1500.832,1769.373 1483.734,1771.014 1442.909 C 1774.341 1360.157,1759.270 1296.515,1720.599 1230.018 C 1697.524 1190.339,1638.470 1129.606,1595.177 1101.030 C 1567.907 1083.030,1565.105 1080.070,1570.869 1075.343 C 1574.451 1072.404,1595.218 1050.210,1617.017 1026.022 C 1663.429 974.523,1687.351 937.868,1704.796 891.521 C 1716.541 860.318,1717.531 853.684,1719.113 795.596 C 1720.590 741.350,1719.724 729.225,1712.488 702.851 C 1700.324 658.512,1675.891 604.469,1654.382 574.327 C 1600.956 499.457,1501.374 429.915,1427.536 415.912 C 1392.524 409.272,1237.072 404.479,963.000 401.588 L 700.000 398.814 700.000 1099.407 M1240.744 655.825 C 1363.409 659.912,1364.397 660.161,1400.501 696.016 C 1435.726 730.998,1440.000 742.383,1440.000 801.221 L 1440.000 850.760 1424.590 874.603 C 1406.933 901.921,1386.675 920.020,1357.929 934.158 C 1329.555 948.114,1282.314 951.774,1129.000 951.897 L 1000.000 952.000 1000.000 802.000 L 1000.000 652.000 1067.000 652.134 C 1103.850 652.208,1182.035 653.869,1240.744 655.825 M1414.772 1266.756 C 1441.383 1282.205,1478.044 1324.046,1486.027 1348.080 C 1495.884 1377.758,1492.923 1438.751,1480.360 1464.817 C 1468.210 1490.026,1437.042 1520.964,1411.131 1533.536 C 1380.655 1548.322,1328.937 1551.993,1151.000 1551.997 L 1000.000 1552.000 1000.000 1401.617 L 1000.000 1251.235 1199.000 1254.127 L 1398.000 1257.019 1414.772 1266.756 " fill="#1D1E23" stroke="none" fill-rule="evenodd"/></svg>