<svg viewBox="0 0 2400 2400" fill="none" xmlns="http://www.w3.org/2000/svg"><path d="M700.000 1100.000 L 700.000 1800.000 1081.819 1800.000 L 1463.638 1800.000 1508.479 1784.004 C 1582.013 1757.773,1617.156 1735.746,1667.368 1684.412 C 1744.793 1605.258,1785.336 1487.924,1772.302 1380.726 C 1758.319 1265.724,1691.996 1159.881,1597.582 1101.898 C 1580.212 1091.230,1565.169 1081.859,1564.154 1081.072 C 1563.139 1080.285,1576.080 1067.076,1592.912 1051.717 C 1653.973 996.004,1693.774 935.468,1712.950 869.142 C 1720.404 843.360,1721.904 828.706,1721.665 784.000 C 1721.416 737.361,1719.901 725.092,1710.552 694.000 C 1687.617 617.720,1654.642 562.663,1601.485 511.896 C 1553.338 465.914,1490.725 430.255,1429.257 413.810 C 1401.943 406.503,1153.514 400.429,871.000 400.162 L 700.000 400.000 700.000 1100.000 M1359.359 663.673 C 1386.320 677.427,1413.658 702.301,1427.792 725.938 C 1440.120 746.554,1441.763 752.752,1443.273 784.324 C 1445.679 834.646,1442.107 851.933,1423.569 879.694 C 1404.861 907.710,1377.921 928.769,1345.321 940.860 C 1323.147 949.084,1314.082 949.586,1161.000 951.071 L 1000.000 952.633 1000.000 801.665 L 1000.000 650.697 1172.082 653.309 C 1331.452 655.728,1345.286 656.494,1359.359 663.673 M1417.923 1267.956 C 1444.540 1283.185,1473.903 1314.502,1484.500 1338.964 C 1502.292 1380.035,1497.715 1442.433,1474.175 1479.723 C 1458.651 1504.315,1426.253 1530.443,1398.961 1540.381 C 1374.604 1549.251,1369.474 1549.509,1187.000 1551.046 L 1000.000 1552.622 1000.000 1401.657 L 1000.000 1250.693 1198.510 1253.345 L 1397.019 1255.996 1417.923 1267.956 " fill="#1D1E23" stroke="none" fill-rule="evenodd"/></svg>