<svg viewBox="0 0 2400 2400" fill="none" xmlns="http://www.w3.org/2000/svg"><path d="M700.000 1099.345 L 700.000 1800.000 1082.096 1800.000 L 1464.191 1800.000 1512.848 1782.009 C 1576.593 1758.439,1609.966 1738.085,1653.195 1696.412 C 1733.073 1619.409,1773.596 1526.952,1773.464 1422.000 C 1773.304 1293.455,1709.127 1175.870,1600.030 1104.233 L 1564.057 1080.613 1605.029 1039.274 C 1664.349 979.422,1695.974 928.566,1714.026 864.000 C 1723.550 829.936,1723.898 745.170,1714.660 709.255 C 1705.218 672.540,1686.119 625.320,1669.079 596.557 C 1622.939 518.677,1537.101 449.907,1449.158 420.366 C 1413.686 408.451,1318.251 404.578,981.000 401.366 L 700.000 398.690 700.000 1099.345 M1254.366 655.521 C 1348.516 658.429,1351.138 658.737,1368.366 668.937 C 1391.399 682.572,1420.949 713.391,1432.669 736.000 C 1440.859 751.799,1442.000 759.624,1442.000 800.000 C 1442.000 843.359,1441.329 847.211,1430.312 867.096 C 1415.794 893.300,1387.731 919.947,1359.688 934.158 C 1331.122 948.634,1292.328 951.605,1129.000 951.826 L 1000.000 952.000 1000.000 802.000 L 1000.000 652.000 1079.000 652.272 C 1122.450 652.422,1201.365 653.884,1254.366 655.521 M1415.867 1267.007 C 1442.436 1282.393,1471.123 1313.142,1483.085 1339.057 C 1497.497 1370.279,1497.903 1422.028,1484.018 1457.876 C 1472.783 1486.881,1443.011 1518.280,1411.665 1534.182 C 1382.752 1548.850,1343.857 1551.474,1151.000 1551.769 L 1000.000 1552.000 1000.000 1401.452 L 1000.000 1250.904 1199.000 1253.782 L 1398.000 1256.660 1415.867 1267.007 " fill="#1D1E23" stroke="none" fill-rule="evenodd"/></svg>