<svg viewBox="0 0 2400 2400" fill="none" xmlns="http://www.w3.org/2000/svg"><path d="M784.000 407.617 C 748.668 412.641,722.694 430.728,711.649 458.000 C 703.989 476.914,699.174 879.221,701.211 1330.231 C 702.881 1700.262,703.470 1727.373,710.119 1740.231 C 722.478 1764.130,733.505 1776.542,750.000 1785.122 C 764.799 1792.820,775.459 1793.668,892.000 1796.422 C 961.300 1798.060,1112.776 1799.535,1228.613 1799.700 L 1439.226 1800.000 1480.275 1785.712 C 1555.478 1759.535,1602.056 1731.737,1657.291 1680.068 C 1705.532 1634.941,1731.184 1594.941,1756.093 1526.000 C 1768.784 1490.879,1769.108 1488.340,1769.385 1422.000 C 1769.636 1361.820,1768.607 1350.550,1760.439 1324.000 C 1730.233 1225.819,1678.712 1155.328,1599.915 1104.370 L 1564.242 1081.301 1608.020 1034.518 C 1668.774 969.594,1688.358 938.849,1709.970 874.468 C 1718.837 848.054,1720.000 837.881,1720.000 786.742 C 1720.000 736.846,1718.620 724.133,1709.960 694.250 C 1682.649 600.006,1627.075 523.830,1546.529 470.237 C 1494.850 435.851,1447.091 416.082,1404.777 411.561 C 1360.927 406.876,813.668 403.400,784.000 407.617 M1240.744 655.825 C 1363.409 659.912,1364.397 660.161,1400.501 696.016 C 1435.726 730.998,1440.000 742.383,1440.000 801.221 L 1440.000 850.760 1424.590 874.603 C 1406.933 901.921,1386.675 920.020,1357.929 934.158 C 1329.555 948.114,1282.314 951.774,1129.000 951.897 L 1000.000 952.000 1000.000 802.000 L 1000.000 652.000 1067.000 652.134 C 1103.850 652.208,1182.035 653.869,1240.744 655.825 M1414.772 1266.756 C 1441.383 1282.205,1478.044 1324.046,1486.027 1348.080 C 1495.884 1377.758,1492.923 1438.751,1480.360 1464.817 C 1468.210 1490.026,1437.042 1520.964,1411.131 1533.536 C 1380.655 1548.322,1328.937 1551.993,1151.000 1551.997 L 1000.000 1552.000 1000.000 1401.617 L 1000.000 1251.235 1199.000 1254.127 L 1398.000 1257.019 1414.772 1266.756 " fill="#1D1E23" stroke="none" fill-rule="evenodd"/></svg>