<svg viewBox="0 0 2400 2400" fill="none" xmlns="http://www.w3.org/2000/svg"><path d="M347.811 461.134 C 288.137 483.701,247.502 548.219,253.372 611.080 C 258.247 663.281,291.700 711.523,339.110 734.718 C 357.646 743.787,365.812 745.232,399.393 745.388 C 447.054 745.608,466.151 737.799,502.246 703.332 C 537.816 669.367,545.544 651.383,545.791 602.000 C 545.970 566.008,544.861 559.699,534.722 539.042 C 521.150 511.392,496.583 485.930,469.000 470.925 C 451.368 461.333,442.837 459.576,405.320 457.809 C 374.444 456.354,357.924 457.309,347.811 461.134 M700.000 600.000 L 700.000 700.000 1400.000 700.000 L 2100.000 700.000 2100.000 600.000 L 2100.000 500.000 1400.000 500.000 L 700.000 500.000 700.000 600.000 M344.855 1062.967 C 310.329 1077.131,274.038 1114.374,261.703 1148.302 C 257.812 1159.005,255.051 1180.262,254.717 1202.085 C 254.223 1234.457,255.367 1240.626,265.841 1262.034 C 280.665 1292.332,307.547 1319.276,337.643 1334.001 C 358.454 1344.182,365.640 1345.543,399.604 1345.736 C 434.330 1345.933,440.236 1344.834,461.041 1334.308 C 488.867 1320.229,525.107 1283.397,536.993 1257.114 C 544.021 1241.573,545.592 1230.751,545.396 1199.220 C 545.186 1165.449,543.753 1157.577,534.304 1138.263 C 520.890 1110.846,493.549 1082.977,466.496 1069.145 C 449.027 1060.212,439.798 1058.463,404.000 1057.299 C 370.768 1056.218,358.421 1057.401,344.855 1062.967 M700.000 1200.000 L 700.000 1300.000 1400.000 1300.000 L 2100.000 1300.000 2100.000 1200.000 L 2100.000 1100.000 1400.000 1100.000 L 700.000 1100.000 700.000 1200.000 M347.025 1662.119 C 322.891 1669.888,281.901 1707.572,265.876 1736.723 C 255.166 1756.205,254.173 1761.374,254.108 1798.000 C 254.044 1834.156,255.157 1840.285,265.695 1861.782 C 286.873 1904.983,322.027 1931.830,376.383 1946.314 C 401.735 1953.070,402.497 1953.034,431.941 1943.742 C 502.741 1921.397,539.577 1877.738,546.711 1807.712 C 552.712 1748.815,512.279 1686.112,455.044 1665.554 C 429.856 1656.508,370.333 1654.615,347.025 1662.119 M700.000 1800.000 L 700.000 1900.000 1400.000 1900.000 L 2100.000 1900.000 2100.000 1800.000 L 2100.000 1700.000 1400.000 1700.000 L 700.000 1700.000 700.000 1800.000 " fill="#1D1E23" stroke="none" fill-rule="evenodd"/></svg>