<svg viewBox="0 0 2400 2400" fill="none" xmlns="http://www.w3.org/2000/svg"><path d="M351.797 461.364 C 316.661 471.005,284.173 501.180,265.859 541.185 C 239.772 598.165,255.147 665.317,304.422 709.619 C 338.033 739.839,352.941 744.936,402.994 743.319 C 453.552 741.686,464.054 737.576,499.392 705.597 C 534.797 673.558,545.046 650.280,545.546 600.780 C 545.896 566.022,544.781 559.640,534.792 539.240 C 522.103 513.328,489.266 481.057,463.145 468.827 C 440.964 458.441,377.860 454.212,351.797 461.364 M779.158 506.806 C 752.826 508.329,752.008 508.716,736.106 527.179 C 716.430 550.024,700.000 581.630,700.000 596.635 C 700.000 629.708,732.674 680.226,759.197 688.162 C 785.885 696.146,1118.451 700.490,1564.000 698.675 C 1870.463 697.426,2005.016 695.541,2021.875 692.260 C 2065.670 683.738,2091.591 652.650,2095.035 604.514 C 2096.691 581.363,2095.554 574.872,2086.852 557.813 C 2072.225 529.137,2057.188 516.499,2031.634 511.407 C 2010.942 507.283,844.987 503.000,779.158 506.806 M357.328 1059.597 C 325.222 1067.853,285.695 1101.731,267.481 1136.602 C 253.974 1162.464,251.661 1231.037,263.401 1257.578 C 274.703 1283.127,312.477 1321.688,338.836 1334.584 C 357.521 1343.726,365.682 1345.184,399.220 1345.375 C 434.226 1345.575,440.137 1344.492,459.956 1334.246 C 486.461 1320.545,523.590 1283.635,535.391 1259.257 C 542.486 1244.602,544.000 1234.265,544.000 1200.485 C 544.000 1164.181,542.779 1157.004,533.320 1137.686 C 520.760 1112.034,487.046 1078.654,463.003 1068.064 C 443.781 1059.598,377.863 1054.316,357.328 1059.597 M779.158 1106.806 C 752.826 1108.329,752.008 1108.716,736.106 1127.179 C 716.430 1150.024,700.000 1181.630,700.000 1196.635 C 700.000 1229.708,732.674 1280.226,759.197 1288.162 C 785.885 1296.146,1118.451 1300.490,1564.000 1298.675 C 1870.463 1297.426,2005.016 1295.541,2021.875 1292.260 C 2065.670 1283.738,2091.591 1252.650,2095.035 1204.514 C 2096.691 1181.363,2095.554 1174.872,2086.852 1157.813 C 2072.225 1129.137,2057.188 1116.499,2031.634 1111.407 C 2010.942 1107.283,844.987 1103.000,779.158 1106.806 M368.000 1659.950 C 339.647 1662.978,323.514 1671.846,295.624 1699.736 C 260.860 1734.500,254.384 1749.881,254.252 1798.000 C 254.123 1845.035,261.746 1865.267,291.677 1897.337 C 314.106 1921.368,333.654 1932.845,371.551 1944.233 C 400.475 1952.925,401.577 1952.966,423.551 1946.139 C 503.527 1921.292,544.457 1871.585,545.532 1798.000 C 545.926 1771.099,544.304 1762.383,535.358 1743.299 C 514.445 1698.687,473.686 1666.225,432.975 1661.758 C 396.949 1657.806,389.917 1657.610,368.000 1659.950 M779.158 1706.806 C 752.826 1708.329,752.008 1708.716,736.106 1727.179 C 716.430 1750.024,700.000 1781.630,700.000 1796.635 C 700.000 1829.708,732.674 1880.226,759.197 1888.162 C 785.885 1896.146,1118.451 1900.490,1564.000 1898.675 C 1870.463 1897.426,2005.016 1895.541,2021.875 1892.260 C 2065.670 1883.738,2091.591 1852.650,2095.035 1804.514 C 2096.691 1781.363,2095.554 1774.872,2086.852 1757.813 C 2072.225 1729.137,2057.188 1716.499,2031.634 1711.407 C 2010.942 1707.283,844.987 1703.000,779.158 1706.806 " fill="#1D1E23" stroke="none" fill-rule="evenodd"/></svg>