<svg viewBox="0 0 2400 2400" fill="none" xmlns="http://www.w3.org/2000/svg"><path d="M338.000 465.279 C 254.635 505.460,227.296 605.194,278.318 683.009 C 293.212 705.723,315.522 724.168,344.000 737.309 C 358.115 743.822,370.203 745.647,400.004 745.764 C 434.043 745.898,440.513 744.693,462.004 734.216 C 490.527 720.312,523.250 688.268,536.393 661.370 C 544.408 644.967,545.866 635.872,545.910 602.000 C 545.957 566.546,544.730 559.486,535.117 539.878 C 519.462 507.947,500.139 487.339,471.304 471.819 C 447.589 459.055,443.237 458.120,402.000 456.920 C 362.211 455.762,356.086 456.562,338.000 465.279 M936.487 503.801 L 754.975 506.000 733.655 529.463 C 698.694 567.938,692.334 601.375,712.177 642.365 C 725.072 669.002,744.057 686.351,766.758 692.242 C 790.991 698.530,1861.105 702.560,1966.612 696.761 C 2046.998 692.342,2056.958 688.922,2077.553 658.666 C 2104.760 618.697,2105.187 581.280,2078.889 541.577 C 2056.141 507.234,2054.423 506.919,1872.000 503.559 C 1695.747 500.314,1214.145 500.438,936.487 503.801 M365.375 1056.029 C 339.538 1061.353,316.192 1075.094,293.509 1098.327 C 264.667 1127.869,254.400 1154.950,254.173 1202.084 C 254.015 1234.977,255.163 1240.530,267.147 1264.874 C 282.434 1295.926,307.505 1320.204,340.000 1335.423 C 358.731 1344.196,367.648 1345.741,400.004 1345.820 C 434.013 1345.903,440.526 1344.681,461.953 1334.198 C 492.453 1319.276,519.276 1292.453,534.198 1261.953 C 544.701 1240.487,545.898 1234.076,545.764 1200.004 C 545.645 1169.534,543.854 1158.098,536.731 1142.319 C 518.937 1102.899,482.073 1069.719,446.000 1060.655 C 421.131 1054.407,383.678 1052.258,365.375 1056.029 M936.487 1103.801 L 754.975 1106.000 733.655 1129.463 C 698.694 1167.938,692.334 1201.375,712.177 1242.365 C 725.072 1269.002,744.057 1286.351,766.758 1292.242 C 790.991 1298.530,1861.105 1302.560,1966.612 1296.761 C 2046.998 1292.342,2056.958 1288.922,2077.553 1258.666 C 2104.760 1218.697,2105.187 1181.280,2078.889 1141.577 C 2056.141 1107.234,2054.423 1106.919,1872.000 1103.559 C 1695.747 1100.314,1214.145 1100.438,936.487 1103.801 M336.988 1665.861 C 310.762 1678.070,280.149 1708.280,265.428 1736.477 C 255.321 1755.837,254.182 1762.029,254.096 1798.084 C 254.007 1835.413,254.904 1840.004,267.147 1864.874 C 288.161 1907.559,320.988 1932.122,376.418 1946.636 L 402.837 1953.554 436.418 1942.586 C 494.210 1923.712,525.021 1894.218,540.630 1842.829 C 553.941 1799.007,547.374 1753.436,522.538 1717.274 C 493.774 1675.392,453.289 1655.977,394.850 1656.039 C 364.209 1656.072,354.460 1657.726,336.988 1665.861 M936.487 1703.801 L 754.975 1706.000 733.655 1729.463 C 698.694 1767.938,692.334 1801.375,712.177 1842.365 C 725.072 1869.002,744.057 1886.351,766.758 1892.242 C 790.991 1898.530,1861.105 1902.560,1966.612 1896.761 C 2046.998 1892.342,2056.958 1888.922,2077.553 1858.666 C 2104.760 1818.697,2105.187 1781.280,2078.889 1741.577 C 2056.141 1707.234,2054.423 1706.919,1872.000 1703.559 C 1695.747 1700.314,1214.145 1700.438,936.487 1703.801 " fill="#1D1E23" stroke="none" fill-rule="evenodd"/></svg>