<svg viewBox="0 0 2400 2400" fill="none" xmlns="http://www.w3.org/2000/svg"><path d="M349.330 459.176 C 246.628 495.801,217.332 627.858,294.737 705.263 C 381.009 791.536,528.213 743.579,547.871 622.795 C 558.118 559.830,523.163 493.792,464.357 465.021 C 435.160 450.736,380.750 447.971,349.330 459.176 M764.342 506.868 C 729.056 519.332,700.000 561.388,700.000 600.000 C 700.000 624.160,711.933 652.144,729.895 670.105 C 762.127 702.338,709.722 700.000,1400.000 700.000 C 2090.278 700.000,2037.873 702.338,2070.105 670.105 C 2109.232 630.979,2109.232 569.021,2070.105 529.895 C 2037.850 497.639,2090.586 499.961,1398.287 500.316 C 850.824 500.596,780.028 501.328,764.342 506.868 M349.330 1059.176 C 283.122 1082.786,240.908 1153.847,252.129 1222.795 C 271.787 1343.579,418.991 1391.536,505.263 1305.263 C 578.189 1232.337,557.456 1110.570,464.357 1065.021 C 435.160 1050.736,380.750 1047.971,349.330 1059.176 M764.342 1106.868 C 729.056 1119.332,700.000 1161.388,700.000 1200.000 C 700.000 1224.160,711.933 1252.144,729.895 1270.105 C 762.127 1302.338,709.722 1300.000,1400.000 1300.000 C 2090.278 1300.000,2037.873 1302.338,2070.105 1270.105 C 2109.232 1230.979,2109.232 1169.021,2070.105 1129.895 C 2037.850 1097.639,2090.586 1099.961,1398.287 1100.316 C 850.824 1100.596,780.028 1101.328,764.342 1106.868 M353.297 1657.533 C 329.178 1665.400,311.716 1677.197,290.291 1700.103 C 256.490 1736.239,243.857 1780.640,253.803 1828.344 C 260.848 1862.131,268.092 1876.165,291.290 1900.966 C 315.564 1926.916,336.948 1938.960,371.563 1946.177 C 396.690 1951.416,403.310 1951.416,428.437 1946.177 C 463.052 1938.960,484.436 1926.916,508.710 1900.966 C 531.908 1876.165,539.152 1862.131,546.197 1828.344 C 556.361 1779.596,543.419 1735.824,507.662 1698.016 C 477.369 1665.987,451.557 1654.581,406.224 1653.193 C 383.551 1652.499,363.751 1654.123,353.297 1657.533 M764.342 1706.868 C 729.056 1719.332,700.000 1761.388,700.000 1800.000 C 700.000 1824.160,711.933 1852.144,729.895 1870.105 C 762.127 1902.338,709.722 1900.000,1400.000 1900.000 C 2090.278 1900.000,2037.873 1902.338,2070.105 1870.105 C 2109.232 1830.979,2109.232 1769.021,2070.105 1729.895 C 2037.850 1697.639,2090.586 1699.961,1398.287 1700.316 C 850.824 1700.596,780.028 1701.328,764.342 1706.868 " fill="#1D1E23" stroke="none" fill-rule="evenodd"/></svg>