<svg viewBox="0 0 2400 2400" fill="none" xmlns="http://www.w3.org/2000/svg"><path d="M934.000 445.630 C 918.343 453.107,874.943 494.332,734.155 635.453 L 554.310 815.723 477.516 739.828 C 392.203 655.513,381.355 648.229,340.872 648.088 C 311.606 647.986,295.198 653.924,274.473 672.121 C 244.398 698.527,233.568 738.253,246.023 776.477 C 252.476 796.280,262.660 807.677,373.478 919.108 C 505.707 1052.068,512.789 1057.500,553.893 1057.500 C 597.666 1057.500,598.808 1056.522,839.352 812.901 C 1001.821 648.353,1060.299 586.644,1066.949 572.728 C 1076.900 551.901,1078.451 527.109,1071.296 503.227 C 1065.143 482.689,1038.506 452.758,1018.155 443.514 C 994.559 432.796,959.001 433.690,934.000 445.630 M1364.342 706.868 C 1329.056 719.332,1300.000 761.388,1300.000 800.000 C 1300.000 824.160,1311.933 852.144,1329.895 870.105 C 1361.333 901.544,1339.640 900.000,1750.000 900.000 C 2160.360 900.000,2138.667 901.544,2170.105 870.105 C 2188.067 852.144,2200.000 824.160,2200.000 800.000 C 2200.000 775.840,2188.067 747.856,2170.105 729.895 C 2138.626 698.415,2160.657 699.960,1748.287 700.316 C 1427.277 700.593,1379.817 701.403,1364.342 706.868 M934.000 1245.630 C 918.343 1253.107,874.943 1294.332,734.155 1435.453 L 554.310 1615.723 477.516 1539.828 C 392.203 1455.513,381.355 1448.229,340.872 1448.088 C 311.606 1447.986,295.198 1453.924,274.473 1472.121 C 244.399 1498.526,233.568 1538.252,246.021 1576.477 C 252.478 1596.297,262.716 1607.735,375.423 1721.052 C 485.583 1831.807,500.020 1844.937,519.906 1852.443 C 546.184 1862.362,574.720 1860.975,598.490 1848.624 C 607.520 1843.931,707.093 1747.274,836.811 1617.282 C 1006.469 1447.266,1061.555 1389.706,1067.723 1376.000 C 1078.172 1352.784,1078.514 1315.921,1068.486 1293.845 C 1059.357 1273.747,1027.754 1245.420,1008.491 1240.070 C 983.689 1233.181,955.691 1235.271,934.000 1245.630 M1364.342 1506.868 C 1329.056 1519.332,1300.000 1561.388,1300.000 1600.000 C 1300.000 1624.160,1311.933 1652.144,1329.895 1670.105 C 1361.333 1701.544,1339.640 1700.000,1750.000 1700.000 C 2160.360 1700.000,2138.667 1701.544,2170.105 1670.105 C 2188.067 1652.144,2200.000 1624.160,2200.000 1600.000 C 2200.000 1575.840,2188.067 1547.856,2170.105 1529.895 C 2138.626 1498.415,2160.657 1499.960,1748.287 1500.316 C 1427.277 1500.593,1379.817 1501.403,1364.342 1506.868 " fill="#1D1E23" stroke="none" fill-rule="evenodd"/></svg>