<svg viewBox="0 0 2400 2400" fill="none" xmlns="http://www.w3.org/2000/svg"><path d="M962.000 437.742 C 959.800 438.599,953.125 440.373,947.166 441.685 C 928.593 445.772,891.242 480.109,719.884 650.630 L 553.767 815.934 517.884 779.555 C 457.123 717.955,398.962 667.165,378.000 657.397 C 335.446 637.569,284.789 653.027,258.170 693.963 C 235.826 728.323,235.471 761.751,257.101 794.408 C 284.862 836.318,492.508 1039.540,518.872 1050.600 C 537.567 1058.443,570.973 1057.171,592.000 1047.815 C 605.852 1041.652,658.876 990.749,822.117 826.903 C 938.782 709.807,1042.567 602.791,1052.750 589.092 C 1074.149 560.306,1078.960 541.015,1071.990 511.958 C 1062.215 471.211,1028.978 442.075,987.886 438.231 C 975.849 437.104,964.200 436.884,962.000 437.742 M1462.580 703.774 L 1355.161 706.000 1334.073 728.657 C 1312.982 751.318,1300.000 778.500,1300.000 800.000 C 1300.000 834.393,1334.830 883.843,1365.306 892.718 C 1384.730 898.375,2092.187 900.161,2125.311 894.637 C 2139.043 892.347,2149.220 887.263,2160.533 877.043 C 2208.556 833.656,2211.650 778.170,2168.642 731.588 C 2150.393 711.822,2149.368 711.326,2120.000 708.040 C 2082.581 703.853,1607.511 700.771,1462.580 703.774 M962.000 1237.769 C 959.800 1238.611,953.125 1240.373,947.166 1241.685 C 928.593 1245.772,891.242 1280.109,719.884 1450.630 L 553.767 1615.934 517.884 1579.555 C 457.123 1517.955,398.962 1467.165,378.000 1457.397 C 335.446 1437.569,284.789 1453.027,258.170 1493.963 C 235.898 1528.213,235.483 1561.439,256.913 1594.592 C 270.845 1616.145,461.809 1808.882,495.249 1835.140 C 531.708 1863.769,567.013 1866.343,602.335 1842.947 C 623.954 1828.627,926.130 1530.955,1001.227 1450.000 C 1063.150 1383.247,1071.509 1371.349,1074.545 1345.631 C 1080.899 1291.811,1041.513 1244.074,986.000 1238.313 C 975.000 1237.172,964.200 1236.927,962.000 1237.769 M1462.580 1503.774 L 1355.161 1506.000 1334.073 1528.657 C 1312.982 1551.318,1300.000 1578.500,1300.000 1600.000 C 1300.000 1634.393,1334.830 1683.843,1365.306 1692.718 C 1384.730 1698.375,2092.187 1700.161,2125.311 1694.637 C 2139.043 1692.347,2149.220 1687.263,2160.533 1677.043 C 2208.556 1633.656,2211.650 1578.170,2168.642 1531.588 C 2150.393 1511.822,2149.368 1511.326,2120.000 1508.040 C 2082.581 1503.853,1607.511 1500.771,1462.580 1503.774 " fill="#1D1E23" stroke="none" fill-rule="evenodd"/></svg>