<svg viewBox="0 0 2400 2400" fill="none" xmlns="http://www.w3.org/2000/svg"><path d="M763.007 606.983 L 552.024 817.967 446.005 712.005 L 339.986 606.042 269.992 676.037 L 199.997 746.031 377.012 923.012 L 554.027 1099.994 835.987 818.013 L 1117.946 536.032 1048.016 466.016 C 1009.554 427.507,977.164 396.000,976.038 396.000 C 974.912 396.000,879.048 490.943,763.007 606.983 M1300.000 800.000 L 1300.000 900.000 1750.000 900.000 L 2200.000 900.000 2200.000 800.000 L 2200.000 700.000 1750.000 700.000 L 1300.000 700.000 1300.000 800.000 M763.007 1406.983 L 552.024 1617.967 446.005 1512.005 L 339.986 1406.042 269.992 1476.037 L 199.997 1546.031 377.012 1723.012 L 554.027 1899.994 835.987 1618.013 L 1117.946 1336.032 1048.016 1266.016 C 1009.554 1227.507,977.164 1196.000,976.038 1196.000 C 974.912 1196.000,879.048 1290.943,763.007 1406.983 M1300.000 1600.000 L 1300.000 1700.000 1750.000 1700.000 L 2200.000 1700.000 2200.000 1600.000 L 2200.000 1500.000 1750.000 1500.000 L 1300.000 1500.000 1300.000 1600.000 " fill="#1D1E23" stroke="none" fill-rule="evenodd"/></svg>