<svg viewBox="0 0 2400 2400" fill="none" xmlns="http://www.w3.org/2000/svg"><path d="M948.898 440.936 C 927.666 447.872,883.221 488.655,714.000 656.484 L 554.000 815.166 493.809 756.508 C 423.604 688.090,385.712 658.388,360.552 652.053 C 313.282 640.150,262.506 670.305,245.965 720.105 C 237.153 746.637,241.802 771.485,260.778 799.266 C 276.162 821.790,431.709 978.320,481.244 1021.127 C 510.126 1046.086,519.692 1052.063,534.244 1054.246 C 564.129 1058.727,585.677 1053.234,608.939 1035.205 C 634.844 1015.128,1003.831 645.289,1038.555 604.597 C 1080.293 555.686,1085.078 527.214,1058.838 483.924 C 1037.550 448.805,986.232 428.739,948.898 440.936 M1365.296 706.684 C 1340.089 710.213,1300.128 767.577,1300.039 800.361 C 1299.984 820.470,1321.376 861.131,1340.723 877.691 C 1353.173 888.347,1361.929 892.165,1378.739 894.265 C 1390.751 895.766,1562.898 897.167,1761.289 897.379 C 2102.861 897.744,2122.905 897.375,2139.065 890.422 C 2174.411 875.214,2203.885 825.902,2198.344 791.247 C 2192.956 757.552,2165.350 719.387,2140.671 711.514 C 2129.994 708.107,2024.190 706.571,1752.000 705.870 C 1546.300 705.340,1372.283 705.706,1365.296 706.684 M951.200 1240.876 C 928.823 1246.658,889.825 1282.106,714.000 1456.484 L 554.000 1615.166 493.809 1556.508 C 423.604 1488.090,385.712 1458.388,360.552 1452.053 C 313.282 1440.150,262.506 1470.305,245.965 1520.105 C 236.613 1548.261,242.137 1573.507,263.979 1602.437 C 272.646 1613.917,327.132 1670.715,385.057 1728.655 C 500.805 1844.431,518.199 1857.707,554.000 1857.599 C 565.172 1857.566,580.818 1854.256,589.446 1850.102 C 615.632 1837.494,963.988 1495.602,1035.513 1412.312 C 1075.321 1365.956,1082.946 1341.812,1069.884 1303.477 C 1054.590 1258.591,998.053 1228.770,951.200 1240.876 M1365.296 1506.684 C 1340.089 1510.213,1300.128 1567.577,1300.039 1600.361 C 1299.984 1620.470,1321.376 1661.131,1340.723 1677.691 C 1353.173 1688.347,1361.929 1692.165,1378.739 1694.265 C 1390.751 1695.766,1562.898 1697.167,1761.289 1697.379 C 2102.861 1697.744,2122.905 1697.375,2139.065 1690.422 C 2174.411 1675.214,2203.885 1625.902,2198.344 1591.247 C 2192.956 1557.552,2165.350 1519.387,2140.671 1511.514 C 2129.994 1508.107,2024.190 1506.571,1752.000 1505.870 C 1546.300 1505.340,1372.283 1505.706,1365.296 1506.684 " fill="#1D1E23" stroke="none" fill-rule="evenodd"/></svg>