<svg viewBox="0 0 2400 2400" fill="none" xmlns="http://www.w3.org/2000/svg"><path d="M717.087 54.009 C 695.775 64.832,675.529 86.197,668.120 105.685 C 662.852 119.539,662.871 149.775,668.159 168.814 C 674.061 190.063,695.525 215.478,781.463 302.972 L 857.542 380.428 663.548 575.214 C 556.851 682.346,437.072 803.473,397.372 844.385 C 315.460 928.797,304.224 945.938,300.967 991.455 C 298.175 1030.479,306.664 1055.974,333.134 1088.065 C 362.445 1123.601,760.899 1525.221,849.514 1608.549 C 936.867 1690.690,946.061 1696.036,999.785 1695.912 C 1046.636 1695.804,1059.263 1690.738,1100.312 1655.579 C 1140.423 1621.223,1444.086 1319.833,1573.923 1185.513 C 1644.413 1112.589,1681.735 1070.941,1687.775 1058.464 C 1694.478 1044.618,1697.312 1029.889,1698.933 1000.476 C 1701.082 961.475,1700.973 960.856,1688.860 943.251 C 1682.126 933.462,1660.823 907.576,1641.521 885.726 C 1557.324 790.416,828.067 66.446,803.420 53.700 C 796.074 49.901,778.349 46.027,764.032 45.091 C 741.749 43.634,734.988 44.918,717.087 54.009 M1240.000 762.000 L 1477.975 1000.000 1000.000 1000.000 L 522.025 1000.000 760.000 762.000 C 890.886 631.100,998.886 524.000,1000.000 524.000 C 1001.114 524.000,1109.114 631.100,1240.000 762.000 M1880.000 1172.891 C 1818.549 1244.199,1747.164 1351.826,1723.897 1408.249 C 1693.043 1483.071,1692.805 1532.700,1723.026 1589.701 C 1737.636 1617.257,1784.810 1663.384,1812.550 1677.237 C 1892.733 1717.280,1971.972 1703.508,2038.303 1638.000 C 2082.675 1594.179,2103.655 1542.752,2098.720 1489.905 C 2095.096 1451.093,2069.702 1387.927,2032.827 1326.000 C 2008.343 1284.883,1907.410 1151.997,1900.667 1152.002 C 1899.200 1152.003,1889.900 1161.403,1880.000 1172.891 M365.991 2007.647 C 294.191 2013.679,220.882 2084.256,204.420 2163.197 C 186.684 2248.247,234.584 2339.125,319.264 2381.087 L 353.396 2398.000 1145.698 2399.116 C 1610.176 2399.771,1962.578 2398.675,1997.402 2396.467 C 2052.039 2393.004,2058.865 2391.688,2082.494 2380.055 C 2112.701 2365.184,2150.101 2331.893,2168.086 2303.865 C 2184.947 2277.590,2200.000 2229.271,2200.000 2201.425 C 2200.000 2126.476,2154.622 2057.519,2080.913 2020.459 L 2048.178 2004.000 1221.089 2004.647 C 766.190 2005.002,381.396 2006.352,365.991 2007.647 " fill="#1D1E23" stroke="none" fill-rule="evenodd"/></svg>