<svg viewBox="0 0 2400 2400" fill="none" xmlns="http://www.w3.org/2000/svg"><path d="M716.920 52.251 C 696.695 62.510,674.050 87.669,667.687 106.947 C 665.186 114.528,663.824 132.716,664.662 147.365 C 666.736 183.627,675.491 195.448,775.551 297.091 L 857.348 380.182 601.496 637.091 C 460.778 778.391,337.375 905.161,327.268 918.803 C 304.918 948.969,298.081 973.891,301.122 1014.099 C 303.667 1047.758,308.501 1058.453,336.685 1092.778 C 362.565 1124.297,761.162 1525.329,856.784 1616.054 C 937.065 1692.225,946.168 1697.395,1000.000 1697.395 C 1053.832 1697.395,1062.935 1692.225,1143.216 1616.054 C 1238.838 1525.329,1637.435 1124.297,1663.315 1092.778 C 1695.949 1053.032,1697.810 1048.014,1697.911 999.495 L 1698.000 956.990 1682.314 934.206 C 1673.687 921.675,1637.500 880.502,1601.900 842.711 C 1507.373 742.368,832.891 72.109,812.244 58.000 C 797.175 47.702,790.380 45.829,764.342 44.794 C 739.550 43.808,730.876 45.172,716.920 52.251 M1240.000 762.000 L 1477.975 1000.000 1000.000 1000.000 L 522.025 1000.000 760.000 762.000 C 890.886 631.100,998.886 524.000,1000.000 524.000 C 1001.114 524.000,1109.114 631.100,1240.000 762.000 M1853.927 1205.000 C 1753.843 1329.851,1700.000 1434.371,1700.000 1503.799 C 1700.000 1605.163,1796.674 1700.000,1900.000 1700.000 C 2003.156 1700.000,2100.000 1604.996,2100.000 1503.799 C 2100.000 1455.847,2067.419 1376.263,2016.566 1300.000 C 1985.534 1253.461,1905.622 1152.000,1900.000 1152.000 C 1898.027 1152.000,1877.294 1175.850,1853.927 1205.000 M554.000 2003.896 L 346.000 2006.000 314.710 2021.290 C 240.846 2057.384,195.103 2135.008,201.150 2214.000 C 206.903 2289.146,260.357 2359.804,332.885 2388.132 L 358.000 2397.941 1150.000 2399.114 C 1585.600 2399.759,1967.496 2398.773,1998.657 2396.921 C 2053.074 2393.689,2056.530 2392.955,2086.089 2378.346 C 2139.255 2352.070,2178.899 2303.332,2193.875 2245.834 C 2217.039 2156.900,2170.275 2062.015,2082.791 2020.445 L 2050.000 2004.863 1406.000 2003.328 C 1051.800 2002.483,668.400 2002.739,554.000 2003.896 " fill="#1D1E23" stroke="none" fill-rule="evenodd"/></svg>