<svg viewBox="0 0 2400 2400" fill="none" xmlns="http://www.w3.org/2000/svg"><path d="M692.003 69.997 L 622.051 140.034 741.025 259.008 L 859.999 377.982 549.006 688.995 L 238.012 1000.007 619.006 1381.001 L 1000.000 1761.995 1380.998 1380.997 L 1761.995 999.999 1261.975 499.979 L 761.955 -0.041 692.003 69.997 M1240.000 762.000 L 1477.975 1000.000 1000.000 1000.000 L 522.025 1000.000 760.000 762.000 C 890.886 631.100,998.886 524.000,1000.000 524.000 C 1001.114 524.000,1109.114 631.100,1240.000 762.000 M1880.000 1172.891 C 1818.549 1244.199,1747.164 1351.826,1723.897 1408.249 C 1693.043 1483.071,1692.805 1532.700,1723.026 1589.701 C 1737.636 1617.257,1784.810 1663.384,1812.550 1677.237 C 1892.733 1717.280,1971.972 1703.508,2038.303 1638.000 C 2082.675 1594.179,2103.655 1542.752,2098.720 1489.905 C 2095.096 1451.093,2069.702 1387.927,2032.827 1326.000 C 2008.343 1284.883,1907.410 1151.997,1900.667 1152.002 C 1899.200 1152.003,1889.900 1161.403,1880.000 1172.891 M200.000 2200.000 L 200.000 2400.000 1200.000 2400.000 L 2200.000 2400.000 2200.000 2200.000 L 2200.000 2000.000 1200.000 2000.000 L 200.000 2000.000 200.000 2200.000 " fill="#1D1E23" stroke="none" fill-rule="evenodd"/></svg>