<svg viewBox="0 0 2400 2400" fill="none" xmlns="http://www.w3.org/2000/svg"><path d="M692.003 69.997 L 622.051 140.034 741.025 259.008 L 859.999 377.982 549.006 688.995 L 238.012 1000.007 619.006 1381.001 L 1000.000 1761.995 1380.998 1380.997 L 1761.995 999.999 1261.975 499.979 L 761.955 -0.041 692.003 69.997 M1240.000 762.000 L 1477.975 1000.000 1000.000 1000.000 L 522.025 1000.000 760.000 762.000 C 890.886 631.100,998.886 524.000,1000.000 524.000 C 1001.114 524.000,1109.114 631.100,1240.000 762.000 M1871.346 1183.000 C 1768.945 1305.423,1708.281 1413.781,1701.264 1486.800 C 1690.663 1597.107,1786.576 1700.000,1900.000 1700.000 C 2013.424 1700.000,2109.337 1597.107,2098.736 1486.800 C 2093.084 1427.986,2053.011 1346.332,1984.782 1254.600 C 1949.522 1207.195,1903.913 1152.000,1900.000 1152.000 C 1898.502 1152.000,1885.608 1165.950,1871.346 1183.000 M200.000 2200.000 L 200.000 2400.000 1200.000 2400.000 L 2200.000 2400.000 2200.000 2200.000 L 2200.000 2000.000 1200.000 2000.000 L 200.000 2000.000 200.000 2200.000 " fill="#1D1E23" stroke="none" fill-rule="evenodd"/></svg>