<svg viewBox="0 0 2400 2400" fill="none" xmlns="http://www.w3.org/2000/svg"><path d="M692.003 69.997 L 622.051 140.034 741.025 259.008 L 859.999 377.982 549.006 688.995 L 238.012 1000.007 619.006 1381.001 L 1000.000 1761.995 1380.998 1380.997 L 1761.995 999.999 1261.975 499.979 L 761.955 -0.041 692.003 69.997 M1240.000 762.000 L 1477.975 1000.000 1000.000 1000.000 L 522.025 1000.000 760.000 762.000 C 890.886 631.100,998.886 524.000,1000.000 524.000 C 1001.114 524.000,1109.114 631.100,1240.000 762.000 M1873.633 1181.000 C 1837.205 1224.792,1816.129 1253.387,1782.973 1304.000 C 1698.148 1433.489,1681.399 1512.693,1722.769 1588.703 C 1736.502 1613.936,1792.502 1667.631,1817.145 1679.194 C 1842.862 1691.261,1877.662 1700.000,1900.000 1700.000 C 1975.596 1700.000,2060.720 1637.341,2089.283 1560.671 C 2100.985 1529.258,2100.675 1479.596,2088.553 1444.000 C 2072.664 1397.339,2032.818 1322.982,1997.456 1274.000 C 1957.211 1218.254,1904.581 1152.000,1900.545 1152.000 C 1899.011 1152.000,1886.901 1165.050,1873.633 1181.000 M200.000 2200.000 L 200.000 2400.000 1200.000 2400.000 L 2200.000 2400.000 2200.000 2200.000 L 2200.000 2000.000 1200.000 2000.000 L 200.000 2000.000 200.000 2200.000 " fill="#1D1E23" stroke="none" fill-rule="evenodd"/></svg>