<svg viewBox="0 0 2400 2400" fill="none" xmlns="http://www.w3.org/2000/svg"><path d="M738.000 43.521 C 718.036 48.746,702.141 58.660,687.182 75.218 C 670.201 94.014,662.491 114.869,662.492 142.000 C 662.494 179.466,672.311 193.184,768.801 290.540 L 857.662 380.200 591.018 647.100 C 285.702 952.709,302.309 932.419,302.111 1000.084 C 301.913 1068.021,283.580 1046.045,622.817 1384.518 C 903.036 1664.104,919.217 1679.506,942.000 1688.326 C 975.562 1701.318,1024.438 1701.318,1058.000 1688.326 C 1080.783 1679.506,1096.964 1664.104,1377.183 1384.518 C 1716.420 1046.045,1698.087 1068.021,1697.889 1000.084 C 1697.687 930.883,1733.949 972.323,1248.831 486.905 C 954.967 192.859,816.848 57.305,805.460 51.771 C 786.688 42.647,755.780 38.867,738.000 43.521 M1240.000 762.000 L 1477.975 1000.000 1000.000 1000.000 L 522.025 1000.000 760.000 762.000 C 890.886 631.100,998.886 524.000,1000.000 524.000 C 1001.114 524.000,1109.114 631.100,1240.000 762.000 M1871.346 1183.000 C 1768.945 1305.423,1708.281 1413.781,1701.264 1486.800 C 1690.663 1597.107,1786.576 1700.000,1900.000 1700.000 C 2013.424 1700.000,2109.337 1597.107,2098.736 1486.800 C 2093.084 1427.986,2053.011 1346.332,1984.782 1254.600 C 1949.522 1207.195,1903.913 1152.000,1900.000 1152.000 C 1898.502 1152.000,1885.608 1165.950,1871.346 1183.000 M368.000 2002.651 C 347.315 2005.998,309.269 2021.527,289.052 2034.877 C 234.785 2070.709,200.000 2135.209,200.000 2200.000 C 200.000 2292.011,268.990 2376.768,359.197 2395.580 C 389.211 2401.839,2010.789 2401.839,2040.803 2395.580 C 2115.765 2379.947,2179.947 2315.765,2195.580 2240.803 C 2215.867 2143.519,2163.179 2050.310,2066.000 2011.568 L 2042.000 2002.000 1210.000 2001.517 C 752.400 2001.251,373.500 2001.762,368.000 2002.651 " fill="#1D1E23" stroke="none" fill-rule="evenodd"/></svg>