<svg viewBox="0 0 2400 2400" fill="none" xmlns="http://www.w3.org/2000/svg"><path d="M729.275 48.199 C 710.952 53.796,673.450 89.485,667.753 106.747 C 664.981 115.147,663.860 131.901,665.065 146.914 C 667.912 182.383,679.709 198.324,776.917 298.052 L 856.776 379.980 619.801 618.990 C 489.465 750.446,368.637 874.192,351.294 893.983 C 309.044 942.197,302.260 956.821,302.114 1000.000 C 301.924 1056.632,303.872 1059.351,458.049 1217.620 C 619.432 1383.287,850.282 1612.009,894.000 1649.554 C 936.835 1686.340,957.713 1695.911,995.229 1695.961 C 1036.798 1696.016,1054.701 1690.264,1086.251 1666.715 C 1117.171 1643.635,1570.137 1193.213,1637.990 1118.075 C 1661.793 1091.716,1684.706 1062.379,1688.906 1052.882 C 1700.048 1027.695,1703.211 969.811,1694.379 952.732 C 1678.169 921.387,1594.670 833.987,1294.335 534.000 C 954.834 194.893,814.024 58.092,798.342 52.130 C 782.884 46.253,743.066 43.986,729.275 48.199 M1240.000 762.000 L 1477.975 1000.000 1000.000 1000.000 L 522.025 1000.000 760.000 762.000 C 890.886 631.100,998.886 524.000,1000.000 524.000 C 1001.114 524.000,1109.114 631.100,1240.000 762.000 M1873.633 1181.000 C 1837.205 1224.792,1816.129 1253.387,1782.973 1304.000 C 1698.148 1433.489,1681.399 1512.693,1722.769 1588.703 C 1736.502 1613.936,1792.502 1667.631,1817.145 1679.194 C 1842.862 1691.261,1877.662 1700.000,1900.000 1700.000 C 1974.429 1700.000,2056.873 1640.317,2088.619 1563.455 C 2101.045 1533.371,2101.038 1480.306,2088.604 1444.000 C 2072.547 1397.115,2032.744 1322.879,1997.456 1274.000 C 1957.211 1218.254,1904.581 1152.000,1900.545 1152.000 C 1899.011 1152.000,1886.901 1165.050,1873.633 1181.000 M529.906 2007.887 L 341.811 2010.000 314.266 2023.566 C 259.803 2050.388,214.358 2110.723,203.209 2171.013 C 188.466 2250.735,238.418 2339.246,322.978 2383.229 L 355.955 2400.382 1192.978 2399.038 C 2137.500 2397.522,2053.149 2400.633,2105.087 2365.403 C 2151.537 2333.896,2179.652 2294.082,2194.295 2239.073 C 2216.018 2157.471,2169.422 2067.603,2081.224 2021.000 L 2049.051 2004.000 1383.525 2004.887 C 1017.486 2005.375,633.358 2006.725,529.906 2007.887 " fill="#1D1E23" stroke="none" fill-rule="evenodd"/></svg>