<svg viewBox="0 0 2400 2400" fill="none" xmlns="http://www.w3.org/2000/svg"><path d="M692.003 69.997 L 622.051 140.034 741.025 259.008 L 859.999 377.982 549.006 688.995 L 238.012 1000.007 619.006 1381.001 L 1000.000 1761.995 1380.998 1380.997 L 1761.995 999.999 1261.975 499.979 L 761.955 -0.041 692.003 69.997 M1240.000 762.000 L 1477.975 1000.000 1000.000 1000.000 L 522.025 1000.000 760.000 762.000 C 890.886 631.100,998.886 524.000,1000.000 524.000 C 1001.114 524.000,1109.114 631.100,1240.000 762.000 M1868.634 1187.422 C 1808.527 1259.771,1751.392 1347.611,1725.522 1407.449 C 1684.710 1501.848,1694.376 1566.861,1758.804 1631.288 C 1794.982 1667.467,1818.585 1682.463,1855.422 1692.678 C 1920.409 1710.699,1979.412 1692.240,2036.496 1636.029 C 2085.838 1587.442,2104.267 1538.390,2095.756 1478.296 C 2086.770 1414.840,2031.701 1315.240,1943.154 1202.292 C 1922.584 1176.053,1904.009 1154.020,1901.877 1153.330 C 1899.745 1152.640,1884.785 1167.982,1868.634 1187.422 M200.000 2200.000 L 200.000 2400.000 1200.000 2400.000 L 2200.000 2400.000 2200.000 2200.000 L 2200.000 2000.000 1200.000 2000.000 L 200.000 2000.000 200.000 2200.000 " fill="#1D1E23" stroke="none" fill-rule="evenodd"/></svg>