<svg viewBox="0 0 2400 2400" fill="none" xmlns="http://www.w3.org/2000/svg"><path d="M707.997 61.415 C 680.311 81.739,666.839 101.821,664.857 125.719 C 661.000 172.226,673.881 191.725,781.964 303.002 L 856.744 379.991 629.817 608.995 C 302.263 939.548,302.622 939.117,302.287 1001.614 C 302.057 1044.560,309.398 1058.930,360.988 1116.524 C 426.002 1189.104,874.963 1635.857,908.087 1660.934 C 943.784 1687.958,964.354 1696.000,997.777 1696.000 C 1031.633 1696.000,1059.685 1686.843,1083.501 1668.017 C 1113.407 1644.378,1414.093 1348.659,1540.680 1218.390 C 1674.794 1080.375,1689.476 1062.057,1696.219 1024.327 C 1702.962 986.594,1699.757 959.852,1686.137 940.198 C 1662.170 905.613,1553.665 793.535,1268.074 508.367 C 967.918 208.654,824.143 68.914,802.000 55.370 C 792.953 49.836,782.124 48.051,758.000 48.114 C 728.152 48.193,724.789 49.087,707.997 61.415 M1240.000 762.000 L 1477.975 1000.000 1000.000 1000.000 L 522.025 1000.000 760.000 762.000 C 890.886 631.100,998.886 524.000,1000.000 524.000 C 1001.114 524.000,1109.114 631.100,1240.000 762.000 M1868.634 1187.422 C 1808.527 1259.771,1751.392 1347.611,1725.522 1407.449 C 1684.710 1501.848,1694.376 1566.861,1758.804 1631.288 C 1794.982 1667.467,1818.585 1682.463,1855.422 1692.678 C 1921.512 1711.004,1979.971 1692.245,2038.024 1634.084 C 2087.363 1584.652,2104.398 1539.216,2095.944 1479.602 C 2086.745 1414.744,2032.443 1316.186,1943.154 1202.292 C 1922.584 1176.053,1904.009 1154.020,1901.877 1153.330 C 1899.745 1152.640,1884.785 1167.982,1868.634 1187.422 M704.000 2007.864 L 342.000 2010.000 318.000 2021.900 C 283.971 2038.773,236.814 2086.435,220.940 2120.000 C 202.389 2159.224,197.288 2189.679,203.347 2225.016 C 214.938 2292.607,259.262 2349.591,328.585 2386.027 L 355.170 2400.000 1072.585 2399.794 C 1766.079 2399.594,2028.981 2396.585,2061.526 2388.474 C 2097.339 2379.549,2156.115 2327.187,2175.846 2286.629 C 2199.489 2238.028,2205.275 2195.411,2193.618 2155.726 C 2177.529 2100.949,2138.563 2054.277,2082.097 2022.151 L 2050.194 2004.000 1558.097 2004.864 C 1287.444 2005.340,903.100 2006.690,704.000 2007.864 " fill="#1D1E23" stroke="none" fill-rule="evenodd"/></svg>