<svg viewBox="0 0 2400 2400" fill="none" xmlns="http://www.w3.org/2000/svg"><path d="M692.003 69.997 L 622.051 140.034 741.025 259.008 L 859.999 377.982 549.006 688.995 L 238.012 1000.007 619.006 1381.001 L 1000.000 1761.995 1380.998 1380.997 L 1761.995 999.999 1261.975 499.979 L 761.955 -0.041 692.003 69.997 M1240.000 762.000 L 1477.975 1000.000 1000.000 1000.000 L 522.025 1000.000 760.000 762.000 C 890.886 631.100,998.886 524.000,1000.000 524.000 C 1001.114 524.000,1109.114 631.100,1240.000 762.000 M1853.927 1205.000 C 1753.843 1329.851,1700.000 1434.371,1700.000 1503.799 C 1700.000 1605.163,1796.674 1700.000,1900.000 1700.000 C 2003.156 1700.000,2100.000 1604.996,2100.000 1503.799 C 2100.000 1455.847,2067.419 1376.263,2016.566 1300.000 C 1985.534 1253.461,1905.622 1152.000,1900.000 1152.000 C 1898.027 1152.000,1877.294 1175.850,1853.927 1205.000 M200.000 2200.000 L 200.000 2400.000 1200.000 2400.000 L 2200.000 2400.000 2200.000 2200.000 L 2200.000 2000.000 1200.000 2000.000 L 200.000 2000.000 200.000 2200.000 " fill="#1D1E23" stroke="none" fill-rule="evenodd"/></svg>