<svg viewBox="0 0 2400 2400" fill="none" xmlns="http://www.w3.org/2000/svg"><path d="M275.225 206.858 C 253.468 208.318,251.561 209.359,232.562 230.147 C 198.937 266.937,192.587 301.898,212.177 342.365 C 225.039 368.935,243.665 385.959,266.036 391.592 C 290.756 397.816,1468.764 401.916,1862.000 397.146 C 2167.177 393.445,2150.689 395.033,2172.394 367.251 C 2191.628 342.632,2197.176 327.574,2197.176 300.000 C 2197.176 264.235,2177.546 227.668,2150.345 212.764 C 2138.858 206.470,2074.062 205.977,1218.000 205.665 C 712.000 205.481,287.751 206.018,275.225 206.858 M801.634 1059.774 C 781.802 1064.515,745.391 1091.034,730.084 1111.886 C 707.897 1142.110,703.417 1156.688,702.961 1200.138 C 702.588 1235.619,703.577 1241.048,714.253 1262.150 C 735.956 1305.045,770.575 1331.989,820.000 1344.452 C 837.945 1348.977,907.992 1350.000,1200.000 1350.000 C 1492.008 1350.000,1562.055 1348.977,1580.000 1344.452 C 1629.680 1331.925,1664.608 1304.614,1685.489 1261.970 C 1695.624 1241.271,1696.870 1234.468,1696.870 1199.810 C 1696.870 1165.640,1695.565 1158.277,1686.176 1139.447 C 1673.009 1113.039,1644.561 1083.094,1618.000 1067.681 L 1598.000 1056.075 1206.000 1056.447 C 990.400 1056.652,808.436 1058.149,801.634 1059.774 M275.225 2006.858 C 253.468 2008.318,251.561 2009.359,232.562 2030.147 C 198.937 2066.937,192.587 2101.898,212.177 2142.365 C 225.039 2168.935,243.665 2185.959,266.036 2191.592 C 290.756 2197.816,1468.764 2201.916,1862.000 2197.146 C 2167.177 2193.445,2150.689 2195.033,2172.394 2167.251 C 2191.628 2142.632,2197.176 2127.574,2197.176 2100.000 C 2197.176 2064.235,2177.546 2027.668,2150.345 2012.764 C 2138.858 2006.470,2074.062 2005.977,1218.000 2005.665 C 712.000 2005.481,287.751 2006.018,275.225 2006.858 " fill="#1D1E23" stroke="none" fill-rule="evenodd"/></svg>