<svg viewBox="0 0 2400 2400" fill="none" xmlns="http://www.w3.org/2000/svg"><path d="M240.202 222.293 C 222.386 238.389,200.000 279.532,200.000 296.180 C 200.000 315.338,212.776 347.467,227.004 364.089 C 253.551 395.103,235.694 393.172,526.000 396.425 C 888.296 400.485,1733.786 400.261,1950.000 396.048 C 2059.729 393.910,2135.836 390.806,2144.950 388.096 C 2161.762 383.098,2184.488 356.762,2192.229 333.307 C 2203.992 297.664,2188.454 241.906,2160.902 220.891 L 2146.623 210.000 1201.369 208.959 L 256.114 207.918 240.202 222.293 M864.000 1059.819 C 796.995 1061.907,793.210 1062.464,775.532 1072.857 C 749.840 1087.961,718.182 1123.803,710.424 1146.571 C 706.331 1158.584,704.000 1178.970,704.000 1202.756 C 704.000 1249.513,711.825 1268.154,745.804 1302.350 C 783.805 1340.593,798.084 1344.692,906.000 1348.339 C 954.400 1349.974,1086.700 1351.312,1200.000 1351.312 C 1313.300 1351.312,1445.600 1349.974,1494.000 1348.339 C 1571.301 1345.727,1584.795 1344.275,1604.987 1336.400 C 1635.807 1324.380,1668.279 1294.197,1683.795 1263.148 C 1694.869 1240.986,1695.996 1235.167,1695.961 1200.361 C 1695.928 1168.346,1694.353 1158.692,1686.440 1142.000 C 1673.487 1114.676,1650.867 1089.679,1622.515 1071.354 L 1598.760 1056.000 1266.380 1056.819 C 1083.571 1057.269,902.500 1058.619,864.000 1059.819 M240.202 2022.293 C 222.386 2038.389,200.000 2079.532,200.000 2096.180 C 200.000 2115.338,212.776 2147.467,227.004 2164.089 C 253.551 2195.103,235.694 2193.172,526.000 2196.425 C 888.296 2200.485,1733.786 2200.261,1950.000 2196.048 C 2059.729 2193.910,2135.836 2190.806,2144.950 2188.096 C 2161.762 2183.098,2184.488 2156.762,2192.229 2133.307 C 2203.992 2097.664,2188.454 2041.906,2160.902 2020.891 L 2146.623 2010.000 1201.369 2008.959 L 256.114 2007.918 240.202 2022.293 " fill="#1D1E23" stroke="none" fill-rule="evenodd"/></svg>