<svg viewBox="0 0 2400 2400" fill="none" xmlns="http://www.w3.org/2000/svg"><path d="M249.712 217.205 C 239.173 224.468,225.027 237.232,218.275 245.569 L 206.000 260.729 203.438 393.364 C 200.117 565.319,200.142 1660.702,203.474 1930.000 C 206.319 2159.980,205.221 2150.887,232.749 2172.394 C 257.368 2191.628,272.426 2197.176,300.000 2197.176 C 327.574 2197.176,342.632 2191.628,367.251 2172.394 C 395.056 2150.671,393.730 2162.734,396.527 1906.000 C 399.787 1606.696,399.788 787.887,396.528 492.000 C 393.748 239.623,394.638 248.197,369.267 229.529 C 343.204 210.351,325.125 204.000,296.596 204.000 C 271.767 204.000,266.873 205.378,249.712 217.205 M2049.712 217.205 C 2039.173 224.468,2025.027 237.232,2018.275 245.569 L 2006.000 260.729 2003.438 393.364 C 2000.117 565.319,2000.142 1660.702,2003.474 1930.000 C 2006.319 2159.980,2005.221 2150.887,2032.749 2172.394 C 2057.368 2191.628,2072.426 2197.176,2100.000 2197.176 C 2127.574 2197.176,2142.632 2191.628,2167.251 2172.394 C 2195.056 2150.671,2193.730 2162.734,2196.527 1906.000 C 2199.787 1606.696,2199.788 787.887,2196.528 492.000 C 2193.748 239.623,2194.638 248.197,2169.267 229.529 C 2143.204 210.351,2125.125 204.000,2096.596 204.000 C 2071.767 204.000,2066.873 205.378,2049.712 217.205 M1176.912 704.476 C 1133.305 710.000,1089.992 740.331,1070.684 778.863 C 1049.737 820.668,1050.000 815.315,1050.000 1200.000 C 1050.000 1585.044,1049.716 1579.294,1070.829 1621.423 C 1083.502 1646.710,1109.208 1671.376,1137.142 1685.054 C 1157.001 1694.778,1163.994 1696.000,1199.792 1696.000 C 1232.352 1696.000,1243.508 1694.392,1257.909 1687.623 C 1280.243 1677.124,1308.599 1652.384,1324.071 1629.897 C 1349.547 1592.868,1349.261 1596.758,1351.000 1264.000 C 1352.768 925.490,1349.574 819.755,1336.701 790.654 C 1311.287 733.202,1242.596 696.155,1176.912 704.476 " fill="#1D1E23" stroke="none" fill-rule="evenodd"/></svg>