<svg viewBox="0 0 2400 2400" fill="none" xmlns="http://www.w3.org/2000/svg"><path d="M264.342 206.868 C 229.056 219.332,200.000 261.388,200.000 300.000 C 200.000 324.160,211.933 352.144,229.895 370.105 C 262.531 402.742,173.559 400.000,1200.000 400.000 C 2226.441 400.000,2137.469 402.742,2170.105 370.105 C 2209.232 330.979,2209.232 269.021,2170.105 229.895 C 2137.454 197.243,2226.754 199.961,1198.287 200.316 C 379.089 200.598,280.129 201.292,264.342 206.868 M803.377 1057.534 C 762.321 1072.313,730.388 1101.199,712.765 1139.500 C 703.981 1158.589,702.392 1167.760,702.277 1200.000 C 702.154 1234.784,703.230 1240.237,715.002 1264.427 C 736.337 1308.270,776.680 1338.544,825.895 1347.642 C 858.615 1353.691,1541.385 1353.691,1574.105 1347.642 C 1623.320 1338.544,1663.663 1308.270,1684.998 1264.427 C 1696.721 1240.337,1697.858 1234.640,1697.858 1200.000 C 1697.858 1165.360,1696.721 1159.663,1684.998 1135.573 C 1670.376 1105.524,1646.991 1081.909,1615.361 1065.250 L 1594.000 1054.000 1206.000 1053.135 C 893.593 1052.439,815.151 1053.296,803.377 1057.534 M264.342 2006.868 C 229.056 2019.332,200.000 2061.388,200.000 2100.000 C 200.000 2124.160,211.933 2152.144,229.895 2170.105 C 262.531 2202.742,173.559 2200.000,1200.000 2200.000 C 2226.441 2200.000,2137.469 2202.742,2170.105 2170.105 C 2209.232 2130.979,2209.232 2069.021,2170.105 2029.895 C 2137.454 1997.243,2226.754 1999.961,1198.287 2000.316 C 379.089 2000.598,280.129 2001.292,264.342 2006.868 " fill="#1D1E23" stroke="none" fill-rule="evenodd"/></svg>