<svg viewBox="0 0 2400 2400" fill="none" xmlns="http://www.w3.org/2000/svg"><path d="M236.928 225.895 C 218.022 247.373,200.000 282.369,200.000 297.602 C 200.000 331.535,234.138 381.573,262.000 388.479 C 293.317 396.242,803.185 400.622,1418.000 398.410 C 1756.800 397.192,2059.781 394.597,2091.291 392.645 L 2148.582 389.094 2166.271 371.734 C 2189.584 348.854,2197.761 327.162,2194.912 295.748 C 2192.239 266.271,2176.027 231.412,2159.526 219.662 L 2147.546 211.132 1200.649 208.957 L 253.752 206.782 236.928 225.895 M943.647 1059.788 L 793.295 1062.000 770.702 1077.004 C 739.351 1097.826,713.435 1131.820,707.643 1159.718 C 700.955 1191.937,704.687 1242.256,715.289 1262.800 C 727.459 1286.382,764.228 1322.781,785.292 1332.099 C 822.818 1348.698,849.501 1349.817,1204.000 1349.649 C 1558.599 1349.481,1579.808 1348.552,1614.684 1331.669 C 1638.567 1320.107,1672.245 1286.206,1684.369 1261.523 C 1696.909 1235.992,1699.920 1181.857,1690.394 1153.207 C 1681.348 1126.001,1653.044 1091.922,1623.418 1072.564 L 1598.067 1056.000 1346.033 1056.788 C 1207.415 1057.221,1026.341 1058.571,943.647 1059.788 M236.928 2025.895 C 218.022 2047.373,200.000 2082.369,200.000 2097.602 C 200.000 2131.535,234.138 2181.573,262.000 2188.479 C 293.317 2196.242,803.185 2200.622,1418.000 2198.410 C 1756.800 2197.192,2059.781 2194.597,2091.291 2192.645 L 2148.582 2189.094 2166.271 2171.734 C 2189.584 2148.854,2197.761 2127.162,2194.912 2095.748 C 2192.239 2066.271,2176.027 2031.412,2159.526 2019.662 L 2147.546 2011.132 1200.649 2008.957 L 253.752 2006.782 236.928 2025.895 " fill="#1D1E23" stroke="none" fill-rule="evenodd"/></svg>