<svg viewBox="0 0 2400 2400" fill="none" xmlns="http://www.w3.org/2000/svg"><path d="M1633.291 210.106 C 1612.255 220.589,1531.441 293.309,1456.038 369.607 L 1414.077 412.066 1601.182 599.033 L 1788.286 786.000 1855.302 718.000 C 1937.528 634.568,1982.797 583.086,1992.478 562.000 C 2002.514 540.142,2001.825 521.234,1990.140 497.785 C 1971.946 461.274,1774.794 258.942,1724.762 225.434 C 1708.199 214.342,1670.588 200.000,1658.059 200.000 C 1655.591 200.000,1644.445 204.548,1633.291 210.106 M916.023 910.730 C 525.502 1303.121,421.582 1410.236,408.844 1433.500 C 402.726 1444.675,402.047 1460.950,402.441 1587.027 L 402.882 1728.054 414.445 1746.756 C 420.804 1757.043,434.890 1771.839,445.745 1779.636 L 465.483 1793.814 535.741 1797.174 C 629.397 1801.653,752.681 1797.922,767.703 1790.154 C 787.165 1780.090,922.522 1648.494,1307.318 1265.535 L 1680.635 894.000 1493.032 706.730 L 1305.428 519.460 916.023 910.730 M704.000 2007.864 L 342.000 2010.000 318.000 2021.900 C 283.971 2038.773,236.814 2086.435,220.940 2120.000 C 202.389 2159.224,197.288 2189.679,203.347 2225.016 C 214.938 2292.607,259.262 2349.591,328.585 2386.027 L 355.170 2400.000 1072.585 2399.794 C 1766.079 2399.594,2028.981 2396.585,2061.526 2388.474 C 2097.339 2379.549,2156.115 2327.187,2175.846 2286.629 C 2199.489 2238.028,2205.275 2195.411,2193.618 2155.726 C 2177.529 2100.949,2138.563 2054.277,2082.097 2022.151 L 2050.194 2004.000 1558.097 2004.864 C 1287.444 2005.340,903.100 2006.690,704.000 2007.864 " fill="#1D1E23" stroke="none" fill-rule="evenodd"/></svg>