<svg viewBox="0 0 2400 2400" fill="none" xmlns="http://www.w3.org/2000/svg"><path d="M1739.974 303.737 C 1716.834 310.776,1701.426 324.057,1610.018 415.747 L 1514.037 512.026 1701.005 698.995 L 1887.974 885.963 1984.402 789.982 C 2087.698 687.163,2099.884 670.974,2099.961 636.464 C 2100.052 595.414,2100.413 595.881,1958.308 452.546 C 1815.936 308.940,1804.461 299.766,1768.000 300.383 C 1758.100 300.550,1745.488 302.060,1739.974 303.737 M853.989 1172.011 L 302.000 1724.011 302.000 1897.929 L 302.000 2071.846 315.073 2084.923 L 328.147 2098.000 494.933 2099.129 C 606.196 2099.883,665.138 2098.842,671.990 2096.004 C 677.639 2093.664,929.255 1844.751,1231.136 1542.864 L 1780.011 993.979 1592.995 806.994 L 1405.979 620.010 853.989 1172.011 " fill="#1D1E23" stroke="none" fill-rule="evenodd"/></svg>