<svg viewBox="0 0 2400 2400" fill="none" xmlns="http://www.w3.org/2000/svg"><path d="M1741.033 303.689 C 1720.556 308.880,1692.155 333.482,1600.020 425.841 L 1514.040 512.030 1701.186 699.015 L 1888.332 886.000 1985.365 788.000 C 2094.656 677.620,2102.062 667.220,2099.233 628.101 C 2097.967 610.599,2094.553 600.251,2085.782 587.323 C 2069.142 562.802,1838.074 331.756,1814.209 315.778 C 1792.999 301.577,1766.582 297.213,1741.033 303.689 M852.989 1173.011 L 300.000 1726.011 300.000 1898.194 L 300.000 2070.376 315.169 2085.188 L 330.337 2100.000 490.669 2100.000 C 578.851 2100.000,656.928 2098.814,664.174 2097.365 C 674.967 2095.207,777.061 1995.231,1228.893 1544.365 L 1780.438 994.000 1593.208 807.005 L 1405.979 620.010 852.989 1173.011 " fill="#1D1E23" stroke="none" fill-rule="evenodd"/></svg>