<svg viewBox="0 0 2400 2400" fill="none" xmlns="http://www.w3.org/2000/svg"><path d="M1538.989 327.010 L 1412.007 454.039 1600.008 642.008 L 1788.008 829.976 1914.997 702.987 L 2041.987 575.997 1853.979 387.990 L 1665.971 199.982 1538.989 327.010 M850.993 1015.007 L 400.000 1466.013 400.000 1655.007 L 400.000 1844.000 587.007 1844.000 L 774.013 1844.000 1228.007 1389.770 L 1682.000 935.539 1494.940 749.770 C 1392.057 647.596,1306.554 564.000,1304.933 564.000 C 1303.313 564.000,1099.040 766.953,850.993 1015.007 M200.000 2222.000 L 200.000 2400.000 1200.000 2400.000 L 2200.000 2400.000 2200.000 2222.000 L 2200.000 2044.000 1200.000 2044.000 L 200.000 2044.000 200.000 2222.000 " fill="#1D1E23" stroke="none" fill-rule="evenodd"/></svg>