<svg viewBox="0 0 2400 2400" fill="none" xmlns="http://www.w3.org/2000/svg"><path d="M1639.974 203.737 C 1616.834 210.776,1601.426 224.057,1510.018 315.747 L 1414.037 412.026 1601.006 598.995 L 1787.975 785.964 1885.855 688.145 C 1995.413 578.656,2002.250 569.009,1999.175 528.265 C 1998.251 516.019,1994.157 498.800,1990.077 490.000 C 1985.248 479.584,1938.569 429.746,1856.330 347.204 C 1751.731 242.219,1726.216 218.659,1708.000 210.243 C 1685.751 199.963,1660.364 197.535,1639.974 203.737 M861.997 963.904 C 510.324 1315.482,416.139 1411.755,409.051 1426.891 C 400.348 1445.478,400.102 1449.672,400.051 1580.287 C 399.993 1733.703,401.205 1741.416,429.895 1770.105 C 458.501 1798.711,466.576 1800.000,617.248 1800.000 C 704.926 1800.000,754.585 1798.450,765.536 1795.371 C 779.884 1791.336,839.702 1733.123,1231.024 1342.371 L 1680.048 894.000 1493.022 707.013 L 1305.995 520.026 861.997 963.904 M368.000 2002.651 C 347.315 2005.998,309.269 2021.527,289.052 2034.877 C 234.785 2070.709,200.000 2135.209,200.000 2200.000 C 200.000 2292.011,268.990 2376.768,359.197 2395.580 C 389.211 2401.839,2010.789 2401.839,2040.803 2395.580 C 2115.765 2379.947,2179.947 2315.765,2195.580 2240.803 C 2215.867 2143.519,2163.179 2050.310,2066.000 2011.568 L 2042.000 2002.000 1210.000 2001.517 C 752.400 2001.251,373.500 2001.762,368.000 2002.651 " fill="#1D1E23" stroke="none" fill-rule="evenodd"/></svg>