<svg viewBox="0 0 2400 2400" fill="none" xmlns="http://www.w3.org/2000/svg"><path d="M1638.721 204.072 C 1619.512 209.837,1589.163 236.481,1500.020 325.841 L 1414.040 412.030 1601.213 599.015 L 1788.385 786.000 1885.376 687.950 C 1986.254 585.970,2000.000 568.048,2000.000 538.508 C 2000.000 500.733,1994.524 491.679,1930.133 422.981 C 1864.827 353.308,1761.861 251.721,1731.148 226.661 C 1703.085 203.763,1668.178 195.232,1638.721 204.072 M875.629 950.888 C 639.066 1188.000,436.291 1393.202,425.018 1406.894 C 409.968 1425.174,403.831 1436.399,401.920 1449.141 C 400.488 1458.685,399.965 1524.883,400.757 1596.247 C 402.360 1740.771,402.629 1742.363,430.133 1769.867 C 457.512 1797.245,459.657 1797.616,599.882 1799.242 C 767.367 1801.184,760.833 1802.239,801.351 1766.698 C 819.308 1750.946,1024.437 1548.145,1257.192 1316.029 L 1680.384 894.000 1493.064 706.888 L 1305.744 519.776 875.629 950.888 M554.000 2003.896 L 346.000 2006.000 314.710 2021.290 C 240.846 2057.384,195.103 2135.008,201.150 2214.000 C 206.903 2289.146,260.357 2359.804,332.885 2388.132 L 358.000 2397.941 1150.000 2399.114 C 1585.600 2399.759,1967.496 2398.773,1998.657 2396.921 C 2053.074 2393.689,2056.530 2392.955,2086.089 2378.346 C 2139.255 2352.070,2178.899 2303.332,2193.875 2245.834 C 2217.039 2156.900,2170.275 2062.015,2082.791 2020.445 L 2050.000 2004.863 1406.000 2003.328 C 1051.800 2002.483,668.400 2002.739,554.000 2003.896 " fill="#1D1E23" stroke="none" fill-rule="evenodd"/></svg>