<svg viewBox="0 0 2400 2400" fill="none" xmlns="http://www.w3.org/2000/svg"><path d="M1742.000 304.700 C 1717.974 313.683,1693.536 334.589,1604.623 422.223 L 1514.000 511.542 1700.974 698.739 L 1887.948 885.937 1940.401 833.968 C 2016.985 758.091,2082.872 684.856,2092.565 664.833 C 2103.438 642.372,2100.805 612.958,2086.067 592.243 C 2050.594 542.388,1841.756 334.743,1806.030 313.806 C 1786.414 302.310,1758.869 298.393,1742.000 304.700 M852.989 1173.011 L 300.000 1726.011 300.000 1898.194 L 300.000 2070.376 315.169 2085.188 L 330.337 2100.000 486.669 2100.000 C 572.651 2100.000,648.990 2098.802,656.311 2097.338 C 675.208 2093.558,765.903 2005.537,1315.072 1458.000 L 1780.454 994.000 1593.217 807.005 L 1405.979 620.010 852.989 1173.011 " fill="#1D1E23" stroke="none" fill-rule="evenodd"/></svg>