<svg viewBox="0 0 2400 2400" fill="none" xmlns="http://www.w3.org/2000/svg"><path d="M1642.724 204.072 C 1622.705 210.080,1588.502 239.470,1500.363 326.399 L 1414.000 411.578 1600.970 598.754 L 1787.940 785.929 1834.403 739.965 C 1907.907 667.249,1983.468 583.555,1992.586 564.756 C 2004.149 540.916,2001.555 510.445,1986.058 488.084 C 1957.357 446.668,1780.809 267.199,1730.861 228.665 C 1717.485 218.344,1700.992 210.073,1686.012 206.171 C 1659.715 199.322,1658.713 199.273,1642.724 204.072 M898.035 928.729 C 445.190 1383.663,410.551 1419.839,403.615 1445.088 C 398.821 1462.540,401.261 1709.832,406.455 1732.957 C 410.075 1749.071,437.370 1778.013,458.673 1788.326 C 476.797 1797.100,480.677 1797.330,615.628 1797.661 C 740.899 1797.968,755.228 1797.329,766.968 1790.914 C 790.342 1778.142,880.708 1690.399,1283.308 1289.565 L 1680.615 894.000 1493.021 706.729 L 1305.426 519.458 898.035 928.729 M529.906 2007.887 L 341.811 2010.000 314.266 2023.566 C 259.803 2050.388,214.358 2110.723,203.209 2171.013 C 188.466 2250.735,238.418 2339.246,322.978 2383.229 L 355.955 2400.382 1192.978 2399.038 C 2137.500 2397.522,2053.149 2400.633,2105.087 2365.403 C 2151.537 2333.896,2179.652 2294.082,2194.295 2239.073 C 2216.018 2157.471,2169.422 2067.603,2081.224 2021.000 L 2049.051 2004.000 1383.525 2004.887 C 1017.486 2005.375,633.358 2006.725,529.906 2007.887 " fill="#1D1E23" stroke="none" fill-rule="evenodd"/></svg>