<svg viewBox="0 0 2400 2400" fill="none" xmlns="http://www.w3.org/2000/svg"><path d="M1716.920 320.021 C 1703.724 328.833,1652.669 375.504,1603.464 423.734 L 1514.000 511.425 1701.137 698.712 L 1888.273 886.000 1959.335 814.000 C 2071.508 700.345,2099.693 664.212,2099.912 633.785 C 2100.130 603.525,2083.490 582.929,1954.285 453.529 C 1816.231 315.269,1801.975 304.102,1763.456 304.038 C 1743.777 304.005,1737.862 306.036,1716.920 320.021 M852.989 1173.011 L 300.000 1726.011 300.000 1898.194 L 300.000 2070.376 315.169 2085.188 L 330.337 2100.000 489.564 2100.000 C 626.832 2100.000,650.640 2099.123,662.196 2093.639 C 684.196 2083.199,829.112 1942.066,1317.301 1455.634 L 1780.602 994.000 1593.291 807.005 L 1405.979 620.010 852.989 1173.011 " fill="#1D1E23" stroke="none" fill-rule="evenodd"/></svg>