<svg viewBox="0 0 2400 2400" fill="none" xmlns="http://www.w3.org/2000/svg"><path d="M1538.989 327.010 L 1412.007 454.039 1600.008 642.008 L 1788.008 829.976 1914.997 702.987 L 2041.987 575.997 1853.979 387.990 L 1665.971 199.982 1538.989 327.010 M850.993 1015.007 L 400.000 1466.013 400.000 1655.007 L 400.000 1844.000 587.007 1844.000 L 774.013 1844.000 1227.995 1390.005 L 1681.977 936.010 1496.005 750.005 C 1393.720 647.702,1308.222 564.000,1306.009 564.000 C 1303.797 564.000,1099.040 766.953,850.993 1015.007 M200.000 2222.000 L 200.000 2400.000 1200.000 2400.000 L 2200.000 2400.000 2200.000 2222.000 L 2200.000 2044.000 1200.000 2044.000 L 200.000 2044.000 200.000 2222.000 " fill="#1D1E23" stroke="none" fill-rule="evenodd"/></svg>