<svg viewBox="0 0 2400 2400" fill="none" xmlns="http://www.w3.org/2000/svg"><path d="M1628.052 210.571 C 1611.654 218.856,1581.820 245.672,1510.052 316.635 L 1414.000 411.609 1600.974 598.773 L 1787.948 785.937 1840.360 733.968 C 1917.011 657.966,1982.890 585.857,1992.016 567.968 C 2001.340 549.693,2002.402 521.491,1994.480 502.532 C 1987.041 484.729,1953.526 446.394,1873.199 363.812 C 1789.895 278.169,1726.980 220.897,1706.000 211.610 C 1697.200 207.714,1681.000 203.392,1670.000 202.005 C 1653.055 199.868,1646.648 201.176,1628.052 210.571 M959.872 867.004 C 445.615 1382.586,414.544 1414.557,406.186 1436.722 C 399.799 1453.657,399.310 1468.165,401.061 1588.722 C 402.235 1669.590,404.741 1727.540,407.434 1736.087 C 413.036 1753.870,446.004 1786.678,464.183 1792.561 C 472.608 1795.288,528.137 1797.783,606.472 1798.954 C 718.303 1800.626,737.911 1800.012,757.848 1794.216 C 780.320 1787.684,785.413 1782.957,1027.376 1544.094 C 1163.019 1410.189,1365.350 1209.131,1477.001 1097.300 L 1680.001 893.969 1492.988 706.988 L 1305.976 520.007 959.872 867.004 M365.991 2007.647 C 294.191 2013.679,220.882 2084.256,204.420 2163.197 C 186.684 2248.247,234.584 2339.125,319.264 2381.087 L 353.396 2398.000 1145.698 2399.116 C 1610.176 2399.771,1962.578 2398.675,1997.402 2396.467 C 2052.039 2393.004,2058.865 2391.688,2082.494 2380.055 C 2112.701 2365.184,2150.101 2331.893,2168.086 2303.865 C 2184.947 2277.590,2200.000 2229.271,2200.000 2201.425 C 2200.000 2126.476,2154.622 2057.519,2080.913 2020.459 L 2048.178 2004.000 1221.089 2004.647 C 766.190 2005.002,381.396 2006.352,365.991 2007.647 " fill="#1D1E23" stroke="none" fill-rule="evenodd"/></svg>