<svg viewBox="0 0 2400 2400" fill="none" xmlns="http://www.w3.org/2000/svg"><path d="M1538.989 327.010 L 1412.007 454.039 1600.008 642.008 L 1788.008 829.976 1914.997 702.987 L 2041.987 575.997 1853.979 387.990 L 1665.971 199.982 1538.989 327.010 M851.959 1014.307 L 400.000 1465.511 400.000 1654.755 L 400.000 1844.000 587.007 1844.000 L 774.013 1844.000 1227.994 1390.006 L 1681.975 936.012 1519.987 773.746 C 1430.894 684.500,1345.831 600.596,1330.959 587.292 L 1303.917 563.103 851.959 1014.307 M200.000 2222.000 L 200.000 2400.000 1200.000 2400.000 L 2200.000 2400.000 2200.000 2222.000 L 2200.000 2044.000 1200.000 2044.000 L 200.000 2044.000 200.000 2222.000 " fill="#1D1E23" stroke="none" fill-rule="evenodd"/></svg>