<svg viewBox="0 0 2400 2400" fill="none" xmlns="http://www.w3.org/2000/svg"><path d="M672.915 519.918 C 656.919 528.964,633.364 546.633,620.571 559.182 C 598.689 580.649,595.829 585.790,572.291 646.000 C 503.756 821.307,284.703 1402.569,193.925 1650.000 L 146.964 1778.000 151.801 1801.784 C 161.846 1851.183,189.295 1882.048,233.922 1894.128 C 264.651 1902.446,281.657 1900.467,311.828 1885.062 C 351.384 1864.865,356.671 1854.358,428.276 1653.631 L 465.508 1549.262 593.754 1546.638 C 664.289 1545.194,792.200 1544.013,878.000 1544.012 L 1034.000 1544.011 1071.620 1653.006 C 1126.202 1811.143,1138.884 1842.741,1154.868 1860.434 C 1173.800 1881.389,1205.793 1896.469,1232.655 1897.098 C 1269.202 1897.954,1291.196 1889.300,1316.156 1864.242 C 1355.138 1825.110,1357.389 1796.614,1328.253 1711.135 C 1297.775 1621.721,1004.477 842.215,936.138 669.003 L 899.549 576.263 874.887 553.945 C 861.323 541.671,839.232 526.215,825.795 519.601 C 803.717 508.732,796.582 507.376,751.682 505.523 L 702.000 503.472 672.915 519.918 M757.632 779.275 C 769.415 802.527,819.263 939.603,885.902 1132.000 C 947.504 1309.857,954.253 1331.080,950.425 1334.909 C 948.726 1336.609,855.695 1338.638,743.690 1339.417 L 540.045 1340.834 562.255 1277.417 C 574.471 1242.538,618.809 1115.900,660.786 996.000 C 749.351 743.026,743.234 760.000,745.834 760.000 C 746.951 760.000,752.260 768.674,757.632 779.275 M1849.579 817.000 C 1824.663 833.760,1809.080 856.527,1804.028 883.546 C 1801.813 895.396,1800.000 948.661,1800.000 1001.913 L 1800.000 1098.733 1689.000 1101.242 C 1627.950 1102.621,1571.803 1105.580,1564.228 1107.817 C 1547.290 1112.819,1522.116 1136.582,1511.073 1157.994 C 1499.736 1179.973,1499.736 1220.027,1511.073 1242.006 C 1521.974 1263.141,1547.092 1287.030,1564.228 1292.560 C 1572.257 1295.150,1624.118 1297.815,1688.591 1298.949 L 1799.181 1300.894 1800.799 1411.447 C 1802.177 1505.528,1803.460 1524.384,1809.412 1538.000 C 1843.689 1616.419,1956.311 1616.419,1990.588 1538.000 C 1996.540 1524.384,1997.823 1505.528,1999.201 1411.447 L 2000.819 1300.894 2111.409 1298.949 C 2175.882 1297.815,2227.743 1295.150,2235.772 1292.560 C 2252.767 1287.076,2278.000 1263.191,2288.692 1242.468 C 2299.727 1221.080,2299.727 1178.920,2288.692 1157.532 C 2277.857 1136.533,2252.572 1112.779,2235.772 1107.817 C 2228.197 1105.580,2172.250 1102.625,2111.444 1101.251 L 2000.889 1098.752 1998.919 988.376 C 1997.754 923.128,1995.094 872.052,1992.411 863.451 C 1987.102 846.429,1959.023 819.042,1937.781 810.166 C 1929.421 806.673,1911.292 804.000,1895.964 804.000 C 1872.066 804.000,1866.646 805.519,1849.579 817.000 " fill="#1D1E23" stroke="none" fill-rule="evenodd"/></svg>