<svg viewBox="0 0 2400 2400" fill="none" xmlns="http://www.w3.org/2000/svg"><path d="M672.915 519.918 C 656.919 528.964,633.364 546.633,620.571 559.182 C 598.689 580.649,595.829 585.790,572.291 646.000 C 503.756 821.307,284.703 1402.569,193.925 1650.000 L 146.964 1778.000 151.801 1801.784 C 161.846 1851.183,189.295 1882.048,233.922 1894.128 C 264.651 1902.446,281.657 1900.467,311.828 1885.062 C 351.384 1864.865,356.671 1854.358,428.276 1653.631 L 465.508 1549.262 593.754 1546.638 C 664.289 1545.194,792.200 1544.013,878.000 1544.012 L 1034.000 1544.011 1071.620 1653.006 C 1126.202 1811.143,1138.884 1842.741,1154.868 1860.434 C 1173.800 1881.389,1205.793 1896.469,1232.655 1897.098 C 1269.202 1897.954,1291.196 1889.300,1316.156 1864.242 C 1355.138 1825.110,1357.389 1796.614,1328.253 1711.135 C 1297.775 1621.721,1004.477 842.215,936.138 669.003 L 899.549 576.263 874.887 553.945 C 861.323 541.671,839.232 526.215,825.795 519.601 C 803.717 508.732,796.582 507.376,751.682 505.523 L 702.000 503.472 672.915 519.918 M757.632 779.275 C 769.415 802.527,819.263 939.603,885.902 1132.000 C 947.504 1309.857,954.253 1331.080,950.425 1334.909 C 948.726 1336.609,855.695 1338.638,743.690 1339.417 L 540.045 1340.834 562.255 1277.417 C 574.471 1242.538,618.809 1115.900,660.786 996.000 C 749.351 743.026,743.234 760.000,745.834 760.000 C 746.951 760.000,752.260 768.674,757.632 779.275 M1650.550 1103.755 L 1555.099 1106.069 1533.696 1129.064 C 1518.638 1145.242,1510.470 1158.195,1506.146 1172.755 C 1498.132 1199.744,1498.381 1207.372,1508.127 1233.421 C 1519.551 1263.953,1548.031 1290.206,1574.484 1294.588 C 1599.555 1298.741,2199.875 1298.839,2224.808 1294.694 C 2238.924 1292.347,2248.531 1287.148,2263.320 1273.852 C 2289.303 1250.490,2296.706 1234.116,2296.706 1200.000 C 2296.706 1165.936,2289.303 1149.509,2263.493 1126.304 C 2244.014 1108.790,2243.864 1108.738,2206.981 1106.506 C 2150.428 1103.084,1758.184 1101.145,1650.550 1103.755 " fill="#1D1E23" stroke="none" fill-rule="evenodd"/></svg>