<svg viewBox="0 0 2400 2400" fill="none" xmlns="http://www.w3.org/2000/svg"><path d="M584.782 607.000 C 195.315 1643.589,100.000 1897.563,100.000 1898.729 C 100.000 1899.492,154.425 1899.641,220.945 1899.059 L 341.891 1898.000 403.628 1723.641 L 465.365 1549.282 635.683 1546.646 C 729.357 1545.196,857.300 1544.013,920.000 1544.016 L 1034.000 1544.022 1096.136 1721.011 L 1158.273 1898.000 1268.136 1899.123 C 1328.561 1899.740,1381.991 1899.271,1386.868 1898.080 C 1395.664 1895.931,1395.570 1895.433,1375.397 1836.957 C 1364.210 1804.531,1278.641 1574.600,1185.244 1326.000 C 1091.846 1077.400,983.835 789.850,945.219 687.000 L 875.009 500.000 749.997 500.000 L 624.984 500.000 584.782 607.000 M759.807 785.000 C 803.150 887.571,956.284 1329.049,950.519 1334.814 C 945.450 1339.884,557.207 1338.805,552.108 1333.707 C 549.050 1330.650,553.465 1312.232,567.449 1269.707 C 598.643 1174.851,723.376 816.192,739.497 775.000 C 741.865 768.950,745.407 764.000,747.368 764.000 C 749.329 764.000,754.927 773.450,759.807 785.000 M1800.000 950.000 L 1800.000 1100.000 1650.000 1100.000 L 1500.000 1100.000 1500.000 1200.000 L 1500.000 1300.000 1650.000 1300.000 L 1800.000 1300.000 1800.000 1450.000 L 1800.000 1600.000 1900.000 1600.000 L 2000.000 1600.000 2000.000 1450.000 L 2000.000 1300.000 2150.000 1300.000 L 2300.000 1300.000 2300.000 1200.000 L 2300.000 1100.000 2150.000 1100.000 L 2000.000 1100.000 2000.000 950.000 L 2000.000 800.000 1900.000 800.000 L 1800.000 800.000 1800.000 950.000 " fill="#1D1E23" stroke="none" fill-rule="evenodd"/></svg>