<svg viewBox="0 0 2400 2400" fill="none" xmlns="http://www.w3.org/2000/svg"><path d="M667.815 523.665 C 629.183 549.145,605.843 572.668,592.073 600.000 C 575.545 632.808,414.789 1055.443,235.289 1538.000 C 160.737 1738.422,147.848 1776.255,149.792 1788.959 C 162.506 1872.037,233.804 1918.107,303.151 1888.052 C 345.891 1869.528,358.021 1847.629,418.384 1680.000 C 437.001 1628.300,455.462 1577.900,459.408 1568.000 L 466.583 1550.000 594.291 1547.543 C 664.531 1546.191,792.200 1544.862,878.000 1544.589 L 1034.000 1544.093 1069.559 1647.046 C 1112.949 1772.671,1139.764 1839.691,1154.221 1858.645 C 1175.161 1886.099,1232.549 1902.693,1270.782 1892.349 C 1292.291 1886.530,1328.485 1853.787,1340.233 1829.519 C 1357.236 1794.395,1350.603 1769.663,1255.069 1512.000 C 1109.634 1119.747,921.316 626.445,903.507 591.079 C 890.453 565.157,864.794 542.574,826.338 523.161 C 806.787 513.292,794.714 510.381,762.130 507.678 C 698.856 502.429,700.411 502.165,667.815 523.665 M767.466 804.223 C 796.015 874.162,943.379 1293.200,949.687 1322.378 L 952.363 1334.757 907.181 1337.360 C 882.332 1338.792,790.450 1339.972,703.000 1339.982 C 573.618 1339.997,544.000 1339.012,544.000 1334.697 C 544.000 1330.861,725.018 809.747,742.127 764.331 C 745.566 755.200,750.851 763.521,767.466 804.223 M1632.542 1107.732 L 1551.085 1110.000 1533.786 1129.119 C 1511.896 1153.310,1498.431 1187.594,1501.854 1210.422 C 1505.305 1233.433,1526.848 1267.480,1546.807 1281.467 L 1563.615 1293.245 1704.807 1296.901 C 1782.463 1298.912,1933.229 1299.406,2039.843 1298.000 L 2233.686 1295.444 2252.216 1281.841 C 2262.408 1274.360,2275.979 1260.689,2282.373 1251.461 C 2293.042 1236.067,2294.000 1231.803,2294.000 1199.736 C 2294.000 1167.033,2293.206 1163.692,2281.652 1147.742 C 2274.861 1138.366,2262.261 1125.765,2253.652 1119.739 L 2238.000 1108.783 1976.000 1107.124 C 1831.900 1106.211,1677.344 1106.485,1632.542 1107.732 " fill="#1D1E23" stroke="none" fill-rule="evenodd"/></svg>