<svg viewBox="0 0 2400 2400" fill="none" xmlns="http://www.w3.org/2000/svg"><path d="M578.789 623.000 C 553.381 690.650,435.259 1005.029,316.296 1321.619 C 197.333 1638.210,100.000 1897.886,100.000 1898.678 C 100.000 1899.469,154.425 1899.641,220.945 1899.059 L 341.891 1898.000 403.629 1723.637 L 465.368 1549.274 615.338 1546.637 C 697.822 1545.187,825.765 1544.005,899.655 1544.011 L 1034.000 1544.022 1096.137 1721.011 L 1158.273 1898.000 1273.381 1899.062 C 1336.691 1899.646,1390.818 1898.746,1393.663 1897.062 C 1397.573 1894.747,1369.659 1816.391,1279.284 1576.000 C 1213.531 1401.100,1095.643 1087.450,1017.310 879.000 L 874.887 500.000 749.937 500.000 L 624.987 500.000 578.789 623.000 M775.746 824.118 C 811.512 915.897,943.847 1294.964,949.750 1322.544 L 952.435 1335.088 853.218 1338.067 C 768.177 1340.621,552.566 1337.750,548.717 1334.013 C 545.981 1331.356,567.781 1265.522,646.075 1040.000 C 750.864 738.160,743.757 756.786,750.580 766.117 C 753.598 770.244,764.922 796.344,775.746 824.118 M1500.000 1200.000 L 1500.000 1300.000 1900.000 1300.000 L 2300.000 1300.000 2300.000 1200.000 L 2300.000 1100.000 1900.000 1100.000 L 1500.000 1100.000 1500.000 1200.000 " fill="#1D1E23" stroke="none" fill-rule="evenodd"/></svg>