<svg viewBox="0 0 2400 2400" fill="none" xmlns="http://www.w3.org/2000/svg"><path d="M676.849 517.644 C 644.800 533.243,607.196 565.984,596.076 587.973 C 574.028 631.569,152.178 1753.063,149.039 1776.428 C 146.599 1794.587,157.324 1832.127,170.746 1852.410 C 190.990 1883.000,237.332 1903.646,274.359 1898.571 C 299.371 1895.143,328.767 1879.048,345.304 1859.729 C 359.980 1842.583,370.764 1815.525,436.212 1631.624 L 465.528 1549.248 573.414 1546.624 C 632.751 1545.181,760.676 1544.000,857.692 1544.000 L 1034.083 1544.000 1085.683 1693.000 C 1135.688 1837.396,1137.848 1842.590,1155.593 1861.104 C 1181.288 1887.912,1203.230 1897.671,1238.000 1897.758 C 1301.620 1897.915,1349.749 1850.539,1349.504 1788.000 C 1349.408 1763.667,1339.763 1736.353,1199.082 1362.000 C 1005.105 845.826,978.803 776.531,935.306 667.072 L 899.173 576.144 874.449 553.072 C 860.851 540.382,838.987 524.715,825.862 518.255 C 804.319 507.652,797.335 506.362,754.000 504.983 L 706.000 503.456 676.849 517.644 M761.967 786.310 C 784.644 837.585,957.306 1332.026,953.771 1335.565 C 952.433 1336.904,858.878 1338.497,745.872 1339.105 L 540.405 1340.210 549.784 1313.105 C 561.736 1278.562,739.369 771.770,741.986 764.746 C 745.175 756.187,751.814 763.352,761.967 786.310 M1872.308 804.611 C 1859.008 807.718,1848.955 814.405,1831.817 831.543 C 1801.570 861.790,1800.000 869.992,1800.000 997.787 L 1800.000 1099.180 1687.000 1100.792 C 1561.230 1102.585,1556.572 1103.452,1530.979 1129.803 C 1509.641 1151.775,1502.239 1169.854,1502.239 1200.000 C 1502.239 1230.146,1509.641 1248.225,1530.979 1270.197 C 1556.883 1296.869,1561.171 1297.669,1686.724 1299.237 L 1799.448 1300.646 1800.724 1413.323 C 1802.131 1537.545,1802.306 1538.482,1829.448 1567.351 C 1849.696 1588.887,1870.191 1597.704,1900.000 1597.704 C 1929.809 1597.704,1950.304 1588.887,1970.552 1567.351 C 1997.694 1538.482,1997.869 1537.545,1999.276 1413.323 L 2000.552 1300.646 2113.276 1299.237 C 2238.829 1297.669,2243.117 1296.869,2269.021 1270.197 C 2290.359 1248.225,2297.761 1230.146,2297.761 1200.000 C 2297.761 1169.854,2290.359 1151.775,2269.021 1129.803 C 2243.437 1103.461,2238.737 1102.585,2113.322 1100.795 L 2000.643 1099.188 1999.236 986.594 C 1997.687 862.614,1996.764 857.379,1972.109 832.725 C 1945.964 806.579,1908.752 796.097,1872.308 804.611 " fill="#1D1E23" stroke="none" fill-rule="evenodd"/></svg>