<svg viewBox="0 0 2400 2400" fill="none" xmlns="http://www.w3.org/2000/svg"><path d="M560.788 671.000 C 525.477 765.050,407.354 1079.427,298.293 1369.616 C 189.232 1659.805,100.000 1897.881,100.000 1898.675 C 100.000 1899.468,154.425 1899.641,220.945 1899.059 L 341.891 1898.000 403.633 1723.626 L 465.376 1549.252 573.338 1546.626 C 632.717 1545.182,760.657 1544.005,857.650 1544.011 L 1034.000 1544.022 1096.137 1721.011 L 1158.274 1898.000 1279.137 1899.059 C 1345.612 1899.641,1400.000 1899.492,1400.000 1898.729 C 1400.000 1897.965,1313.467 1667.089,1207.706 1385.670 C 1101.944 1104.252,983.820 789.850,945.210 687.000 L 875.009 500.000 750.000 500.000 L 624.991 500.000 560.788 671.000 M768.306 802.000 C 802.537 887.814,957.040 1332.294,953.774 1335.560 C 950.677 1338.656,549.465 1338.798,546.371 1335.704 C 545.108 1334.441,556.763 1296.641,572.271 1251.704 C 606.707 1151.922,735.695 781.743,740.711 768.307 C 743.832 759.945,745.098 759.396,749.935 764.307 C 753.019 767.438,761.286 784.400,768.306 802.000 M1500.000 1200.000 L 1500.000 1300.000 1900.000 1300.000 L 2300.000 1300.000 2300.000 1200.000 L 2300.000 1100.000 1900.000 1100.000 L 1500.000 1100.000 1500.000 1200.000 " fill="#1D1E23" stroke="none" fill-rule="evenodd"/></svg>