<svg viewBox="0 0 2400 2400" fill="none" xmlns="http://www.w3.org/2000/svg"><path d="M712.000 504.132 C 667.368 513.492,617.442 549.320,595.115 588.012 C 586.611 602.750,168.476 1710.128,151.999 1761.551 C 145.352 1782.296,149.303 1812.406,162.106 1838.574 C 194.137 1904.044,282.253 1919.887,335.798 1869.802 C 346.223 1860.050,357.773 1845.306,361.465 1837.036 C 365.156 1828.766,390.366 1759.900,417.486 1684.000 L 466.795 1546.000 750.398 1545.001 L 1034.000 1544.003 1085.977 1693.001 L 1137.953 1842.000 1159.977 1864.667 C 1177.927 1883.142,1186.383 1888.595,1205.700 1894.154 C 1265.093 1911.246,1322.498 1882.497,1344.081 1824.850 C 1353.552 1799.556,1353.999 1784.183,1346.045 1757.398 C 1342.769 1746.368,1243.747 1480.992,1125.995 1167.672 C 961.847 730.899,908.413 592.927,896.951 576.256 C 879.160 550.380,844.407 523.720,813.289 512.077 C 787.417 502.398,738.550 498.565,712.000 504.132 M856.304 1046.000 C 911.073 1202.200,955.911 1332.250,955.942 1335.000 C 955.988 1338.937,911.807 1340.000,748.215 1340.000 L 540.431 1340.000 547.797 1319.000 C 551.848 1307.450,596.797 1179.200,647.684 1034.000 C 698.571 888.800,741.055 767.617,742.091 764.704 C 749.221 744.671,759.678 770.426,856.304 1046.000 M1564.342 1106.868 C 1529.056 1119.332,1500.000 1161.388,1500.000 1200.000 C 1500.000 1224.160,1511.933 1252.144,1529.895 1270.105 C 1561.040 1301.250,1545.562 1300.000,1900.000 1300.000 C 2254.438 1300.000,2238.960 1301.250,2270.105 1270.105 C 2309.232 1230.979,2309.232 1169.021,2270.105 1129.895 C 2238.912 1098.701,2254.732 1099.960,1898.287 1100.316 C 1622.569 1100.591,1579.735 1101.432,1564.342 1106.868 " fill="#1D1E23" stroke="none" fill-rule="evenodd"/></svg>