<svg viewBox="0 0 2400 2400" fill="none" xmlns="http://www.w3.org/2000/svg"><path d="M676.849 517.644 C 644.800 533.243,607.196 565.984,596.076 587.973 C 574.028 631.569,152.178 1753.063,149.039 1776.428 C 146.599 1794.587,157.324 1832.127,170.746 1852.410 C 190.990 1883.000,237.332 1903.646,274.359 1898.571 C 299.371 1895.143,328.767 1879.048,345.304 1859.729 C 359.980 1842.583,370.764 1815.525,436.212 1631.624 L 465.528 1549.248 573.414 1546.624 C 632.751 1545.181,760.676 1544.000,857.692 1544.000 L 1034.083 1544.000 1085.683 1693.000 C 1135.688 1837.396,1137.848 1842.590,1155.593 1861.104 C 1181.288 1887.912,1203.230 1897.671,1238.000 1897.758 C 1301.620 1897.915,1349.749 1850.539,1349.504 1788.000 C 1349.408 1763.667,1339.763 1736.353,1199.082 1362.000 C 1005.105 845.826,978.803 776.531,935.306 667.072 L 899.173 576.144 874.449 553.072 C 860.851 540.382,838.987 524.715,825.862 518.255 C 804.319 507.652,797.335 506.362,754.000 504.983 L 706.000 503.456 676.849 517.644 M761.967 786.310 C 784.644 837.585,957.306 1332.026,953.771 1335.565 C 952.433 1336.904,858.878 1338.497,745.872 1339.105 L 540.405 1340.210 549.784 1313.105 C 561.736 1278.562,739.369 771.770,741.986 764.746 C 745.175 756.187,751.814 763.352,761.967 786.310 M1600.000 1104.024 C 1576.900 1105.672,1557.510 1107.240,1556.911 1107.510 C 1556.311 1107.779,1547.610 1115.569,1537.573 1124.820 C 1515.053 1145.579,1503.977 1166.626,1501.148 1194.036 C 1497.133 1232.937,1528.731 1281.853,1564.971 1292.838 C 1589.911 1300.398,2210.228 1300.353,2235.209 1292.790 C 2254.693 1286.890,2279.246 1263.855,2290.437 1240.975 C 2295.249 1231.136,2297.761 1217.082,2297.761 1200.000 C 2297.761 1182.918,2295.249 1168.864,2290.437 1159.025 C 2279.871 1137.423,2254.916 1113.292,2237.255 1107.600 C 2219.649 1101.925,1672.467 1098.854,1600.000 1104.024 " fill="#1D1E23" stroke="none" fill-rule="evenodd"/></svg>