<svg viewBox="0 0 2400 2400" fill="none" xmlns="http://www.w3.org/2000/svg"><path d="M572.790 639.000 C 544.081 715.450,425.958 1029.837,310.296 1337.638 C 194.633 1645.438,100.000 1897.915,100.000 1898.696 C 100.000 1899.478,154.425 1899.641,220.945 1899.059 L 341.891 1898.000 403.631 1723.632 L 465.371 1549.265 593.685 1546.639 C 664.258 1545.195,792.200 1544.015,878.000 1544.018 L 1034.000 1544.022 1096.137 1721.011 L 1158.274 1898.000 1279.587 1899.059 C 1378.806 1899.926,1400.532 1899.156,1398.873 1894.834 C 1397.758 1891.927,1312.726 1665.551,1209.913 1391.775 C 1107.101 1117.999,989.681 805.350,948.980 697.000 L 874.980 500.000 749.984 500.000 L 624.988 500.000 572.790 639.000 M761.758 789.000 C 777.514 823.517,814.901 926.553,881.860 1120.000 C 945.596 1304.136,954.211 1331.123,950.453 1334.881 C 946.364 1338.970,553.619 1338.951,549.529 1334.861 C 545.462 1330.796,556.436 1297.412,655.002 1014.000 C 749.870 741.218,743.129 760.000,746.161 760.000 C 747.459 760.000,754.478 773.050,761.758 789.000 M1800.000 950.000 L 1800.000 1100.000 1650.000 1100.000 L 1500.000 1100.000 1500.000 1200.000 L 1500.000 1300.000 1650.000 1300.000 L 1800.000 1300.000 1800.000 1450.000 L 1800.000 1600.000 1900.000 1600.000 L 2000.000 1600.000 2000.000 1450.000 L 2000.000 1300.000 2150.000 1300.000 L 2300.000 1300.000 2300.000 1200.000 L 2300.000 1100.000 2150.000 1100.000 L 2000.000 1100.000 2000.000 950.000 L 2000.000 800.000 1900.000 800.000 L 1800.000 800.000 1800.000 950.000 " fill="#1D1E23" stroke="none" fill-rule="evenodd"/></svg>