<svg viewBox="0 0 2400 2400" fill="none" xmlns="http://www.w3.org/2000/svg"><path d="M100.000 400.000 L 100.000 700.000 200.000 700.000 L 300.000 700.000 300.000 1200.000 L 300.000 1700.000 200.000 1700.000 L 100.000 1700.000 100.000 2000.000 L 100.000 2300.000 400.000 2300.000 L 700.000 2300.000 700.000 2200.000 L 700.000 2100.000 1200.000 2100.000 L 1700.000 2100.000 1700.000 2200.000 L 1700.000 2300.000 2000.000 2300.000 L 2300.000 2300.000 2300.000 2000.000 L 2300.000 1700.000 2200.000 1700.000 L 2100.000 1700.000 2100.000 1200.000 L 2100.000 700.000 2200.000 700.000 L 2300.000 700.000 2300.000 400.000 L 2300.000 100.000 2000.000 100.000 L 1700.000 100.000 1700.000 200.000 L 1700.000 300.000 1200.000 300.000 L 700.000 300.000 700.000 200.000 L 700.000 100.000 400.000 100.000 L 100.000 100.000 100.000 400.000 M500.000 400.000 L 500.000 500.000 400.000 500.000 L 300.000 500.000 300.000 400.000 L 300.000 300.000 400.000 300.000 L 500.000 300.000 500.000 400.000 M2100.000 400.000 L 2100.000 500.000 2000.000 500.000 L 1900.000 500.000 1900.000 400.000 L 1900.000 300.000 2000.000 300.000 L 2100.000 300.000 2100.000 400.000 M1700.000 600.000 L 1700.000 700.000 1800.000 700.000 L 1900.000 700.000 1900.000 1200.000 L 1900.000 1700.000 1800.000 1700.000 L 1700.000 1700.000 1700.000 1800.000 L 1700.000 1900.000 1200.000 1900.000 L 700.000 1900.000 700.000 1800.000 L 700.000 1700.000 600.000 1700.000 L 500.000 1700.000 500.000 1200.000 L 500.000 700.000 600.000 700.000 L 700.000 700.000 700.000 600.000 L 700.000 500.000 1200.000 500.000 L 1700.000 500.000 1700.000 600.000 M1118.797 727.000 C 1113.225 741.850,1068.727 859.300,1019.912 988.000 C 836.735 1470.945,793.286 1591.802,801.064 1596.742 C 803.779 1598.467,838.618 1599.905,878.484 1599.939 L 950.968 1600.000 986.484 1502.013 L 1022.000 1404.026 1198.256 1404.013 L 1374.512 1404.000 1410.256 1501.000 L 1446.000 1598.000 1518.000 1598.989 C 1557.600 1599.533,1592.486 1598.381,1595.523 1596.429 C 1600.129 1593.471,1599.563 1587.988,1592.116 1563.440 C 1585.101 1540.315,1356.586 928.220,1286.032 743.568 L 1271.347 705.135 1238.673 702.592 C 1220.703 701.193,1188.659 700.037,1167.463 700.024 L 1128.927 700.000 1118.797 727.000 M1208.343 924.673 C 1217.647 942.910,1303.221 1198.224,1313.971 1239.818 C 1320.298 1264.301,1320.276 1265.905,1313.557 1270.818 C 1303.366 1278.270,1096.669 1278.296,1086.481 1270.846 C 1079.898 1266.033,1079.834 1263.987,1085.511 1239.846 C 1088.854 1225.631,1113.118 1150.100,1139.431 1072.000 C 1191.736 916.752,1194.852 908.000,1197.820 908.000 C 1198.929 908.000,1203.665 915.503,1208.343 924.673 M500.000 2000.000 L 500.000 2100.000 400.000 2100.000 L 300.000 2100.000 300.000 2000.000 L 300.000 1900.000 400.000 1900.000 L 500.000 1900.000 500.000 2000.000 M2100.000 2000.000 L 2100.000 2100.000 2000.000 2100.000 L 1900.000 2100.000 1900.000 2000.000 L 1900.000 1900.000 2000.000 1900.000 L 2100.000 1900.000 2100.000 2000.000 " fill="#1D1E23" stroke="none" fill-rule="evenodd"/></svg>