<svg viewBox="0 0 2400 2400" fill="none" xmlns="http://www.w3.org/2000/svg"><path d="M204.000 107.472 C 167.826 109.786,159.686 111.652,145.319 120.928 C 136.144 126.852,123.559 138.356,117.353 146.493 C 106.097 161.250,106.060 161.504,102.761 245.644 C 100.943 292.040,100.398 397.061,101.551 479.024 C 103.922 647.557,103.389 644.526,135.518 672.159 C 159.648 692.913,170.615 695.672,241.000 698.703 L 300.000 701.244 300.000 1199.810 L 300.000 1698.376 236.413 1702.631 C 184.999 1706.072,169.350 1708.569,154.668 1715.677 C 128.309 1728.437,109.304 1751.150,105.292 1774.689 C 103.481 1785.310,102.000 1891.200,102.000 2010.000 C 102.000 2209.038,102.556 2227.017,109.075 2238.946 C 119.516 2258.052,139.485 2279.528,153.594 2286.825 C 171.052 2295.853,258.432 2299.549,460.314 2299.796 L 626.628 2300.000 645.227 2287.681 C 688.342 2259.123,696.060 2240.966,698.970 2161.250 L 701.205 2100.000 1199.981 2100.000 L 1698.756 2100.000 1701.297 2159.000 C 1704.341 2229.700,1707.323 2241.560,1727.942 2264.985 C 1758.021 2299.156,1746.385 2297.599,1984.429 2299.301 C 2135.488 2300.380,2201.249 2299.478,2217.512 2296.101 C 2253.671 2288.595,2284.710 2261.053,2292.356 2229.690 C 2298.541 2204.321,2302.026 1797.587,2296.239 1776.528 C 2291.014 1757.517,2262.211 1723.417,2242.974 1713.469 C 2231.310 1707.438,2168.785 1700.371,2125.000 1700.135 L 2100.000 1700.000 2100.000 1200.535 L 2100.000 701.071 2161.000 699.190 C 2208.871 697.713,2225.013 695.775,2236.000 690.182 C 2260.333 677.796,2275.477 664.316,2286.911 644.864 L 2298.000 626.000 2298.000 399.686 L 2298.000 173.373 2285.914 153.824 C 2279.267 143.073,2266.077 128.364,2256.603 121.138 L 2239.378 108.000 2003.530 108.000 C 1776.733 108.000,1767.088 108.303,1752.228 115.884 C 1733.511 125.432,1713.356 148.972,1707.603 168.000 C 1705.276 175.700,1702.368 208.550,1701.142 241.000 L 1698.913 300.000 1200.044 300.000 L 701.175 300.000 698.863 243.000 C 695.998 172.376,689.898 150.259,667.768 130.266 C 658.866 122.223,647.455 114.074,642.410 112.156 C 630.919 107.787,260.888 103.834,204.000 107.472 M500.000 400.000 L 500.000 500.000 400.000 500.000 L 300.000 500.000 300.000 400.000 L 300.000 300.000 400.000 300.000 L 500.000 300.000 500.000 400.000 M2100.000 400.000 L 2100.000 500.000 2000.000 500.000 L 1900.000 500.000 1900.000 400.000 L 1900.000 300.000 2000.000 300.000 L 2100.000 300.000 2100.000 400.000 M1701.417 564.721 C 1703.848 623.686,1704.964 630.942,1713.964 646.300 C 1725.468 665.930,1744.293 682.821,1763.750 690.973 C 1772.636 694.696,1799.168 697.525,1838.750 698.970 L 1900.000 701.205 1900.000 1199.871 L 1900.000 1698.536 1837.000 1702.753 C 1768.947 1707.307,1754.140 1711.341,1731.044 1731.620 C 1709.699 1750.361,1703.777 1772.005,1701.114 1841.000 L 1698.838 1900.000 1200.000 1900.000 L 701.162 1900.000 698.886 1841.000 C 696.223 1772.005,690.301 1750.361,668.956 1731.620 C 645.860 1711.341,631.053 1707.307,563.000 1702.753 L 500.000 1698.536 500.000 1199.828 L 500.000 701.119 555.000 699.009 C 627.529 696.227,644.907 691.503,667.971 668.301 C 678.154 658.057,688.392 642.956,691.227 634.000 C 694.012 625.200,697.398 591.450,698.752 559.000 L 701.215 500.000 1199.982 500.000 L 1698.749 500.000 1701.417 564.721 M1164.704 708.552 C 1140.460 715.536,1119.303 741.952,1098.522 791.184 C 1044.944 918.116,876.635 1366.347,834.061 1495.482 C 820.417 1536.865,823.134 1550.808,849.592 1575.197 C 877.132 1600.582,904.408 1604.026,934.963 1585.976 C 955.251 1573.992,977.829 1528.797,1012.388 1431.000 L 1021.928 1404.000 1198.039 1404.000 L 1374.149 1404.000 1393.834 1456.781 C 1419.162 1524.696,1439.993 1567.160,1454.809 1581.079 C 1482.070 1606.689,1521.382 1602.668,1554.925 1570.841 C 1575.864 1550.972,1577.763 1538.978,1566.255 1499.268 C 1549.492 1441.421,1377.669 981.115,1311.206 816.000 C 1277.131 731.348,1263.548 715.993,1215.905 708.263 C 1185.884 703.393,1182.547 703.411,1164.704 708.552 M1208.343 924.673 C 1217.647 942.910,1303.221 1198.224,1313.971 1239.818 C 1320.298 1264.301,1320.276 1265.905,1313.557 1270.818 C 1303.366 1278.270,1096.669 1278.296,1086.481 1270.846 C 1079.898 1266.033,1079.834 1263.987,1085.511 1239.846 C 1088.854 1225.631,1113.118 1150.100,1139.431 1072.000 C 1191.736 916.752,1194.852 908.000,1197.820 908.000 C 1198.929 908.000,1203.665 915.503,1208.343 924.673 M500.000 2000.000 L 500.000 2100.000 400.000 2100.000 L 300.000 2100.000 300.000 2000.000 L 300.000 1900.000 400.000 1900.000 L 500.000 1900.000 500.000 2000.000 M2100.000 2000.000 L 2100.000 2100.000 2000.000 2100.000 L 1900.000 2100.000 1900.000 2000.000 L 1900.000 1900.000 2000.000 1900.000 L 2100.000 1900.000 2100.000 2000.000 " fill="#1D1E23" stroke="none" fill-rule="evenodd"/></svg>