<svg viewBox="0 0 2400 2400" fill="none" xmlns="http://www.w3.org/2000/svg"><path d="M164.342 106.868 C 154.630 110.299,139.161 120.628,129.967 129.823 C 99.673 160.117,100.000 157.166,100.000 400.000 C 100.000 642.749,99.684 639.895,129.895 670.105 C 154.632 694.842,174.096 700.000,242.713 700.000 L 300.000 700.000 300.000 1200.000 L 300.000 1700.000 242.713 1700.000 C 174.096 1700.000,154.632 1705.158,129.895 1729.895 C 99.684 1760.105,100.000 1757.251,100.000 2000.000 C 100.000 2242.749,99.684 2239.895,129.895 2270.105 C 160.105 2300.316,157.251 2300.000,400.000 2300.000 C 642.749 2300.000,639.895 2300.316,670.105 2270.105 C 694.842 2245.368,700.000 2225.904,700.000 2157.287 L 700.000 2100.000 1200.000 2100.000 L 1700.000 2100.000 1700.000 2157.287 C 1700.000 2225.904,1705.158 2245.368,1729.895 2270.105 C 1760.105 2300.316,1757.251 2300.000,2000.000 2300.000 C 2242.749 2300.000,2239.895 2300.316,2270.105 2270.105 C 2300.316 2239.895,2300.000 2242.749,2300.000 2000.000 C 2300.000 1757.251,2300.316 1760.105,2270.105 1729.895 C 2245.368 1705.158,2225.904 1700.000,2157.287 1700.000 L 2100.000 1700.000 2100.000 1200.000 L 2100.000 700.000 2157.287 700.000 C 2225.904 700.000,2245.368 694.842,2270.105 670.105 C 2300.316 639.895,2300.000 642.749,2300.000 400.000 C 2300.000 157.251,2300.316 160.105,2270.105 129.895 C 2239.895 99.684,2242.749 100.000,2000.000 100.000 C 1757.251 100.000,1760.105 99.684,1729.895 129.895 C 1705.158 154.632,1700.000 174.096,1700.000 242.713 L 1700.000 300.000 1200.000 300.000 L 700.000 300.000 700.000 242.713 C 700.000 174.096,694.842 154.632,670.105 129.895 C 639.820 99.609,643.028 99.958,398.287 100.316 C 213.160 100.586,179.456 101.530,164.342 106.868 M500.000 400.000 L 500.000 500.000 400.000 500.000 L 300.000 500.000 300.000 400.000 L 300.000 300.000 400.000 300.000 L 500.000 300.000 500.000 400.000 M2100.000 400.000 L 2100.000 500.000 2000.000 500.000 L 1900.000 500.000 1900.000 400.000 L 1900.000 300.000 2000.000 300.000 L 2100.000 300.000 2100.000 400.000 M1700.000 557.287 C 1700.000 625.904,1705.158 645.368,1729.895 670.105 C 1754.632 694.842,1774.096 700.000,1842.713 700.000 L 1900.000 700.000 1900.000 1200.000 L 1900.000 1700.000 1842.713 1700.000 C 1774.096 1700.000,1754.632 1705.158,1729.895 1729.895 C 1705.158 1754.632,1700.000 1774.096,1700.000 1842.713 L 1700.000 1900.000 1200.000 1900.000 L 700.000 1900.000 700.000 1842.713 C 700.000 1774.096,694.842 1754.632,670.105 1729.895 C 645.368 1705.158,625.904 1700.000,557.287 1700.000 L 500.000 1700.000 500.000 1200.000 L 500.000 700.000 557.287 700.000 C 625.904 700.000,645.368 694.842,670.105 670.105 C 694.842 645.368,700.000 625.904,700.000 557.287 L 700.000 500.000 1200.000 500.000 L 1700.000 500.000 1700.000 557.287 M1166.231 705.968 C 1146.648 712.945,1133.620 722.525,1119.600 740.259 C 1102.733 761.594,824.000 1502.812,824.000 1526.330 C 824.000 1580.784,883.821 1616.800,931.685 1591.161 C 941.411 1585.951,952.809 1577.081,957.014 1571.450 C 961.218 1565.818,977.860 1525.388,993.996 1481.605 L 1023.334 1402.000 1198.473 1402.000 L 1373.612 1402.000 1392.877 1454.000 C 1429.022 1551.568,1433.057 1560.926,1444.711 1574.199 C 1489.396 1625.092,1576.000 1592.605,1576.000 1524.950 C 1576.000 1512.929,1537.258 1406.233,1433.829 1133.409 C 1355.635 927.150,1287.973 752.428,1283.468 745.140 C 1261.472 709.549,1207.140 691.395,1166.231 705.968 M1265.086 1083.020 C 1299.784 1185.859,1328.134 1271.350,1328.086 1273.000 C 1328.039 1274.650,1270.400 1276.000,1200.000 1276.000 C 1100.300 1276.000,1071.986 1274.895,1071.937 1271.000 C 1071.850 1264.054,1197.532 896.083,1200.000 896.059 C 1201.100 896.049,1230.389 980.181,1265.086 1083.020 M500.000 2000.000 L 500.000 2100.000 400.000 2100.000 L 300.000 2100.000 300.000 2000.000 L 300.000 1900.000 400.000 1900.000 L 500.000 1900.000 500.000 2000.000 M2100.000 2000.000 L 2100.000 2100.000 2000.000 2100.000 L 1900.000 2100.000 1900.000 2000.000 L 1900.000 1900.000 2000.000 1900.000 L 2100.000 1900.000 2100.000 2000.000 " fill="#1D1E23" stroke="none" fill-rule="evenodd"/></svg>