<svg viewBox="0 0 2400 2400" fill="none" xmlns="http://www.w3.org/2000/svg"><path d="M100.000 400.000 L 100.000 700.000 200.000 700.000 L 300.000 700.000 300.000 1200.000 L 300.000 1700.000 200.000 1700.000 L 100.000 1700.000 100.000 2000.000 L 100.000 2300.000 400.000 2300.000 L 700.000 2300.000 700.000 2200.000 L 700.000 2100.000 1200.000 2100.000 L 1700.000 2100.000 1700.000 2200.000 L 1700.000 2300.000 2000.000 2300.000 L 2300.000 2300.000 2300.000 2000.000 L 2300.000 1700.000 2200.000 1700.000 L 2100.000 1700.000 2100.000 1200.000 L 2100.000 700.000 2200.000 700.000 L 2300.000 700.000 2300.000 400.000 L 2300.000 100.000 2000.000 100.000 L 1700.000 100.000 1700.000 200.000 L 1700.000 300.000 1200.000 300.000 L 700.000 300.000 700.000 200.000 L 700.000 100.000 400.000 100.000 L 100.000 100.000 100.000 400.000 M500.000 400.000 L 500.000 500.000 400.000 500.000 L 300.000 500.000 300.000 400.000 L 300.000 300.000 400.000 300.000 L 500.000 300.000 500.000 400.000 M2100.000 400.000 L 2100.000 500.000 2000.000 500.000 L 1900.000 500.000 1900.000 400.000 L 1900.000 300.000 2000.000 300.000 L 2100.000 300.000 2100.000 400.000 M1700.000 600.000 L 1700.000 700.000 1800.000 700.000 L 1900.000 700.000 1900.000 1200.000 L 1900.000 1700.000 1800.000 1700.000 L 1700.000 1700.000 1700.000 1800.000 L 1700.000 1900.000 1200.000 1900.000 L 700.000 1900.000 700.000 1800.000 L 700.000 1700.000 600.000 1700.000 L 500.000 1700.000 500.000 1200.000 L 500.000 700.000 600.000 700.000 L 700.000 700.000 700.000 600.000 L 700.000 500.000 1200.000 500.000 L 1700.000 500.000 1700.000 600.000 M1098.414 780.910 C 1081.513 825.510,1005.126 1027.600,928.665 1230.000 L 789.644 1598.000 869.404 1599.085 C 913.272 1599.681,949.778 1599.555,950.528 1598.805 C 951.279 1598.055,967.967 1553.467,987.613 1499.720 L 1023.334 1402.000 1198.497 1402.000 L 1373.660 1402.000 1409.916 1500.000 L 1446.173 1598.000 1527.087 1599.083 C 1571.589 1599.678,1607.981 1598.778,1607.958 1597.083 C 1607.935 1595.387,1531.840 1393.300,1438.858 1148.000 L 1269.800 702.000 1199.471 700.910 L 1129.142 699.820 1098.414 780.910 M1265.086 1083.020 C 1299.784 1185.859,1328.134 1271.350,1328.086 1273.000 C 1328.039 1274.650,1270.400 1276.000,1200.000 1276.000 C 1100.300 1276.000,1071.986 1274.895,1071.937 1271.000 C 1071.850 1264.054,1197.532 896.083,1200.000 896.059 C 1201.100 896.049,1230.389 980.181,1265.086 1083.020 M500.000 2000.000 L 500.000 2100.000 400.000 2100.000 L 300.000 2100.000 300.000 2000.000 L 300.000 1900.000 400.000 1900.000 L 500.000 1900.000 500.000 2000.000 M2100.000 2000.000 L 2100.000 2100.000 2000.000 2100.000 L 1900.000 2100.000 1900.000 2000.000 L 1900.000 1900.000 2000.000 1900.000 L 2100.000 1900.000 2100.000 2000.000 " fill="#1D1E23" stroke="none" fill-rule="evenodd"/></svg>