<svg viewBox="0 0 2400 2400" fill="none" xmlns="http://www.w3.org/2000/svg"><path d="M220.000 103.632 C 159.178 106.373,150.527 109.378,126.311 136.183 C 98.993 166.420,99.991 156.351,100.088 400.872 C 100.186 647.592,99.162 637.984,128.512 667.619 C 153.192 692.539,170.476 697.491,239.000 699.270 L 300.000 700.855 300.000 1199.853 L 300.000 1698.851 238.742 1700.910 C 167.607 1703.301,151.325 1708.367,126.611 1735.801 C 98.957 1766.500,100.000 1756.119,100.000 2000.609 C 100.000 2218.168,100.128 2221.739,108.567 2239.170 C 113.278 2248.903,123.439 2263.172,131.146 2270.879 C 158.201 2297.934,150.504 2297.115,396.699 2299.157 C 617.323 2300.988,619.561 2300.926,636.918 2292.524 C 660.160 2281.272,679.387 2262.053,689.462 2240.000 C 696.311 2225.010,697.951 2211.800,699.270 2161.000 L 700.855 2100.000 1200.000 2100.000 L 1699.145 2100.000 1700.730 2161.000 C 1702.509 2229.524,1707.461 2246.808,1732.381 2271.488 C 1762.022 2300.844,1752.335 2299.814,1999.737 2299.912 C 2218.277 2299.999,2221.729 2299.876,2239.170 2291.433 C 2248.903 2286.722,2263.172 2276.561,2270.879 2268.854 C 2297.900 2241.833,2297.105 2249.242,2299.153 2005.584 C 2300.534 1841.388,2299.790 1781.484,2296.239 1770.723 C 2289.486 1750.263,2259.278 1718.196,2239.031 1709.995 C 2226.601 1704.960,2205.520 1702.523,2161.000 1700.974 L 2100.000 1698.851 2100.000 1199.853 L 2100.000 700.855 2161.000 699.270 C 2211.800 697.951,2225.010 696.311,2240.000 689.462 C 2261.738 679.531,2281.245 660.217,2292.021 637.956 C 2299.698 622.097,2300.000 613.102,2300.000 400.000 C 2300.000 186.898,2299.698 177.903,2292.021 162.044 C 2281.572 140.458,2261.897 120.572,2242.000 111.484 C 2227.135 104.694,2210.479 104.169,2007.197 104.088 C 1867.472 104.032,1781.230 105.536,1768.571 108.251 C 1753.847 111.409,1744.417 116.810,1731.907 129.251 C 1706.292 154.723,1703.247 165.309,1700.915 237.000 L 1698.865 300.000 1200.000 300.000 L 701.135 300.000 699.085 237.000 C 696.678 163.014,693.660 153.427,664.538 127.244 C 644.292 109.041,643.342 108.672,610.963 106.473 C 559.289 102.963,279.905 100.932,220.000 103.632 M500.000 400.000 L 500.000 500.000 400.000 500.000 L 300.000 500.000 300.000 400.000 L 300.000 300.000 400.000 300.000 L 500.000 300.000 500.000 400.000 M2100.000 400.000 L 2100.000 500.000 2000.000 500.000 L 1900.000 500.000 1900.000 400.000 L 1900.000 300.000 2000.000 300.000 L 2100.000 300.000 2100.000 400.000 M1700.915 563.000 C 1702.330 606.511,1704.839 630.331,1709.025 640.000 C 1716.407 657.051,1745.619 685.834,1762.000 692.196 C 1768.600 694.759,1802.350 697.819,1837.000 698.996 L 1900.000 701.135 1900.000 1199.941 L 1900.000 1698.748 1838.038 1701.304 C 1768.468 1704.175,1754.787 1707.979,1730.534 1731.195 C 1706.496 1754.207,1703.229 1765.876,1700.915 1837.000 L 1698.865 1900.000 1200.000 1900.000 L 701.135 1900.000 699.085 1837.000 C 696.771 1765.876,693.504 1754.207,669.466 1731.195 C 645.213 1707.979,631.532 1704.175,561.962 1701.304 L 500.000 1698.748 500.000 1199.909 L 500.000 701.071 561.000 698.893 C 594.550 697.695,628.218 694.775,635.817 692.403 C 653.999 686.727,687.008 653.872,692.395 636.087 C 694.741 628.339,697.654 594.550,698.866 561.000 L 701.071 500.000 1199.968 500.000 L 1698.865 500.000 1700.915 563.000 M1148.000 716.768 C 1129.520 727.933,1123.944 734.216,1113.154 756.030 C 1084.194 814.575,852.755 1427.133,829.930 1505.650 C 820.756 1537.205,824.328 1552.538,845.868 1574.078 C 869.785 1597.996,889.331 1603.563,917.834 1594.579 C 931.909 1590.142,943.471 1583.103,951.265 1574.226 C 962.209 1561.762,987.980 1501.547,1012.564 1431.000 L 1021.973 1404.000 1197.987 1404.007 L 1374.000 1404.014 1395.451 1461.007 C 1429.876 1552.472,1440.731 1573.723,1459.301 1586.012 C 1483.612 1602.100,1503.245 1603.265,1529.941 1590.204 C 1555.020 1577.934,1571.333 1559.212,1574.626 1538.918 C 1577.483 1521.310,1565.221 1485.139,1472.328 1237.169 C 1343.996 894.598,1291.601 760.316,1278.339 740.000 C 1264.717 719.132,1236.520 706.472,1200.000 704.827 C 1171.937 703.562,1168.579 704.334,1148.000 716.768 M1223.003 961.000 C 1272.101 1101.806,1324.557 1264.779,1322.503 1270.132 C 1320.594 1275.106,1302.411 1275.991,1203.126 1275.939 C 1138.706 1275.905,1083.557 1274.329,1080.571 1272.437 C 1073.304 1267.833,1083.087 1234.320,1141.540 1063.576 C 1197.554 899.956,1196.074 904.000,1199.955 904.000 C 1201.699 904.000,1212.071 929.650,1223.003 961.000 M500.000 2000.000 L 500.000 2100.000 400.000 2100.000 L 300.000 2100.000 300.000 2000.000 L 300.000 1900.000 400.000 1900.000 L 500.000 1900.000 500.000 2000.000 M2100.000 2000.000 L 2100.000 2100.000 2000.000 2100.000 L 1900.000 2100.000 1900.000 2000.000 L 1900.000 1900.000 2000.000 1900.000 L 2100.000 1900.000 2100.000 2000.000 " fill="#1D1E23" stroke="none" fill-rule="evenodd"/></svg>