<svg viewBox="0 0 2400 2400" fill="none" xmlns="http://www.w3.org/2000/svg"><path d="M180.000 106.597 C 145.046 113.061,111.308 142.212,105.126 171.292 C 103.407 179.381,102.000 284.100,102.000 404.000 C 102.000 572.414,103.180 625.327,107.187 636.628 C 113.884 655.511,146.560 686.020,166.472 691.980 C 175.012 694.537,208.550 697.632,241.000 698.858 L 300.000 701.087 300.000 1199.921 L 300.000 1698.756 244.083 1701.299 C 174.124 1704.482,156.808 1708.760,134.539 1728.361 C 100.592 1758.242,102.172 1746.132,100.682 1988.000 C 99.752 2139.042,100.718 2208.175,103.967 2222.989 C 107.496 2239.084,113.177 2249.019,128.331 2265.601 C 158.339 2298.434,152.653 2297.782,410.000 2297.900 L 630.000 2298.000 646.332 2287.372 C 665.980 2274.585,683.072 2255.011,691.191 2236.000 C 695.244 2226.510,697.798 2202.351,699.120 2161.000 L 701.071 2100.000 1199.992 2100.000 L 1698.913 2100.000 1701.142 2159.000 C 1702.368 2191.450,1705.449 2224.938,1707.989 2233.419 C 1713.636 2252.271,1741.023 2282.902,1760.000 2291.590 C 1772.163 2297.159,1802.078 2298.173,1988.000 2299.318 C 2139.042 2300.248,2208.175 2299.282,2222.989 2296.033 C 2250.965 2289.899,2284.747 2259.994,2291.871 2235.056 C 2298.819 2210.732,2302.759 1796.869,2296.271 1772.908 C 2290.255 1750.695,2254.613 1714.202,2233.144 1708.274 C 2224.820 1705.976,2191.457 1702.897,2159.004 1701.433 L 2100.000 1698.770 2100.000 1199.920 L 2100.000 701.071 2161.351 699.206 C 2214.458 697.592,2225.203 696.131,2241.306 688.336 C 2265.597 676.577,2289.844 648.792,2295.533 626.196 C 2301.685 601.765,2301.730 198.415,2295.584 174.005 C 2290.505 153.836,2270.561 128.732,2248.931 115.284 L 2234.000 106.000 2008.000 106.000 C 1883.700 106.000,1775.143 107.452,1766.761 109.226 C 1747.092 113.390,1720.924 137.030,1710.844 159.742 C 1704.533 173.962,1702.560 189.649,1700.910 238.742 L 1698.851 300.000 1200.000 300.000 L 701.149 300.000 699.074 239.000 C 696.373 159.576,688.239 139.782,648.000 114.720 C 634.087 106.054,632.627 105.996,412.000 105.374 C 289.900 105.029,185.500 105.579,180.000 106.597 M500.000 400.000 L 500.000 500.000 400.000 500.000 L 300.000 500.000 300.000 400.000 L 300.000 300.000 400.000 300.000 L 500.000 300.000 500.000 400.000 M2100.000 400.000 L 2100.000 500.000 2000.000 500.000 L 1900.000 500.000 1900.000 400.000 L 1900.000 300.000 2000.000 300.000 L 2100.000 300.000 2100.000 400.000 M1701.338 561.000 C 1702.705 594.550,1704.983 626.999,1706.399 633.109 C 1709.827 647.897,1740.322 681.343,1758.044 689.753 C 1768.632 694.777,1788.412 697.084,1836.113 698.858 L 1900.000 701.234 1900.000 1200.021 L 1900.000 1698.808 1843.000 1701.615 C 1772.009 1705.109,1756.646 1708.902,1734.494 1728.401 C 1708.302 1751.456,1703.465 1767.415,1700.974 1839.000 L 1698.851 1900.000 1200.000 1900.000 L 701.149 1900.000 699.026 1839.000 C 696.535 1767.415,691.698 1751.456,665.506 1728.401 C 643.354 1708.902,627.991 1705.109,557.000 1701.615 L 500.000 1698.808 500.000 1200.024 L 500.000 701.240 562.355 698.805 C 632.840 696.052,649.598 690.904,672.325 665.019 C 692.915 641.568,696.214 628.700,698.834 561.617 L 701.240 500.000 1200.046 500.000 L 1698.851 500.000 1701.338 561.000 M1156.786 712.261 C 1122.250 729.890,1117.597 738.726,1046.037 922.588 C 949.366 1170.972,829.954 1496.374,825.689 1523.046 C 822.631 1542.165,829.252 1556.533,850.732 1577.398 C 876.616 1602.541,905.550 1604.664,939.343 1583.899 C 954.948 1574.311,976.206 1531.564,1004.414 1453.054 L 1022.000 1404.108 1198.063 1404.054 L 1374.126 1404.000 1391.668 1451.000 C 1434.458 1565.642,1447.800 1587.329,1481.044 1596.281 C 1515.179 1605.473,1561.958 1579.095,1572.211 1544.873 C 1576.258 1531.367,1575.011 1524.602,1559.871 1477.924 C 1528.676 1381.749,1318.370 826.258,1290.808 767.238 C 1270.022 722.726,1251.563 710.061,1201.251 705.788 C 1178.170 703.829,1171.366 704.819,1156.786 712.261 M1217.424 946.442 C 1236.323 996.033,1314.699 1234.999,1318.220 1253.768 C 1320.276 1264.726,1319.536 1269.838,1315.527 1272.377 C 1308.316 1276.944,1091.690 1276.948,1084.480 1272.381 C 1074.946 1266.342,1082.134 1239.393,1133.816 1087.415 C 1198.288 897.829,1196.446 902.841,1200.252 906.684 C 1202.058 908.508,1209.785 926.399,1217.424 946.442 M500.000 2000.000 L 500.000 2100.000 400.000 2100.000 L 300.000 2100.000 300.000 2000.000 L 300.000 1900.000 400.000 1900.000 L 500.000 1900.000 500.000 2000.000 M2100.000 2000.000 L 2100.000 2100.000 2000.000 2100.000 L 1900.000 2100.000 1900.000 2000.000 L 1900.000 1900.000 2000.000 1900.000 L 2100.000 1900.000 2100.000 2000.000 " fill="#1D1E23" stroke="none" fill-rule="evenodd"/></svg>