<svg viewBox="0 0 2400 2400" fill="none" xmlns="http://www.w3.org/2000/svg"><path d="M100.000 400.000 L 100.000 700.000 200.000 700.000 L 300.000 700.000 300.000 1200.000 L 300.000 1700.000 200.000 1700.000 L 100.000 1700.000 100.000 2000.000 L 100.000 2300.000 400.000 2300.000 L 700.000 2300.000 700.000 2200.000 L 700.000 2100.000 1200.000 2100.000 L 1700.000 2100.000 1700.000 2200.000 L 1700.000 2300.000 2000.000 2300.000 L 2300.000 2300.000 2300.000 2000.000 L 2300.000 1700.000 2200.000 1700.000 L 2100.000 1700.000 2100.000 1200.000 L 2100.000 700.000 2200.000 700.000 L 2300.000 700.000 2300.000 400.000 L 2300.000 100.000 2000.000 100.000 L 1700.000 100.000 1700.000 200.000 L 1700.000 300.000 1200.000 300.000 L 700.000 300.000 700.000 200.000 L 700.000 100.000 400.000 100.000 L 100.000 100.000 100.000 400.000 M500.000 400.000 L 500.000 500.000 400.000 500.000 L 300.000 500.000 300.000 400.000 L 300.000 300.000 400.000 300.000 L 500.000 300.000 500.000 400.000 M2100.000 400.000 L 2100.000 500.000 2000.000 500.000 L 1900.000 500.000 1900.000 400.000 L 1900.000 300.000 2000.000 300.000 L 2100.000 300.000 2100.000 400.000 M1700.000 600.000 L 1700.000 700.000 1800.000 700.000 L 1900.000 700.000 1900.000 1200.000 L 1900.000 1700.000 1800.000 1700.000 L 1700.000 1700.000 1700.000 1800.000 L 1700.000 1900.000 1200.000 1900.000 L 700.000 1900.000 700.000 1800.000 L 700.000 1700.000 600.000 1700.000 L 500.000 1700.000 500.000 1200.000 L 500.000 700.000 600.000 700.000 L 700.000 700.000 700.000 600.000 L 700.000 500.000 1200.000 500.000 L 1700.000 500.000 1700.000 600.000 M1124.830 711.000 C 1122.656 717.050,1088.096 808.400,1048.031 914.000 C 889.693 1331.335,792.332 1593.302,794.352 1596.570 C 795.518 1598.456,831.234 1600.000,873.720 1600.000 L 950.968 1600.000 986.484 1502.013 L 1022.000 1404.026 1198.256 1404.013 L 1374.512 1404.000 1410.256 1501.000 L 1446.000 1598.000 1521.709 1599.091 C 1563.349 1599.691,1599.018 1598.582,1600.973 1596.627 C 1605.904 1591.696,1569.135 1491.614,1344.140 897.543 L 1271.250 705.087 1244.625 702.572 C 1229.981 701.189,1197.926 700.044,1173.391 700.028 L 1128.783 700.000 1124.830 711.000 M1223.003 961.000 C 1272.101 1101.806,1324.557 1264.779,1322.503 1270.132 C 1320.594 1275.106,1302.411 1275.991,1203.126 1275.939 C 1138.706 1275.905,1083.557 1274.329,1080.571 1272.437 C 1073.304 1267.833,1083.087 1234.320,1141.540 1063.576 C 1197.554 899.956,1196.074 904.000,1199.955 904.000 C 1201.699 904.000,1212.071 929.650,1223.003 961.000 M500.000 2000.000 L 500.000 2100.000 400.000 2100.000 L 300.000 2100.000 300.000 2000.000 L 300.000 1900.000 400.000 1900.000 L 500.000 1900.000 500.000 2000.000 M2100.000 2000.000 L 2100.000 2100.000 2000.000 2100.000 L 1900.000 2100.000 1900.000 2000.000 L 1900.000 1900.000 2000.000 1900.000 L 2100.000 1900.000 2100.000 2000.000 " fill="#1D1E23" stroke="none" fill-rule="evenodd"/></svg>