<svg viewBox="0 0 2400 2400" fill="none" xmlns="http://www.w3.org/2000/svg"><path d="M100.000 400.000 L 100.000 700.000 200.000 700.000 L 300.000 700.000 300.000 1200.000 L 300.000 1700.000 200.000 1700.000 L 100.000 1700.000 100.000 2000.000 L 100.000 2300.000 400.000 2300.000 L 700.000 2300.000 700.000 2200.000 L 700.000 2100.000 1200.000 2100.000 L 1700.000 2100.000 1700.000 2200.000 L 1700.000 2300.000 2000.000 2300.000 L 2300.000 2300.000 2300.000 2000.000 L 2300.000 1700.000 2200.000 1700.000 L 2100.000 1700.000 2100.000 1200.000 L 2100.000 700.000 2200.000 700.000 L 2300.000 700.000 2300.000 400.000 L 2300.000 100.000 2000.000 100.000 L 1700.000 100.000 1700.000 200.000 L 1700.000 300.000 1200.000 300.000 L 700.000 300.000 700.000 200.000 L 700.000 100.000 400.000 100.000 L 100.000 100.000 100.000 400.000 M500.000 400.000 L 500.000 500.000 400.000 500.000 L 300.000 500.000 300.000 400.000 L 300.000 300.000 400.000 300.000 L 500.000 300.000 500.000 400.000 M2100.000 400.000 L 2100.000 500.000 2000.000 500.000 L 1900.000 500.000 1900.000 400.000 L 1900.000 300.000 2000.000 300.000 L 2100.000 300.000 2100.000 400.000 M1700.000 600.000 L 1700.000 700.000 1800.000 700.000 L 1900.000 700.000 1900.000 1200.000 L 1900.000 1700.000 1800.000 1700.000 L 1700.000 1700.000 1700.000 1800.000 L 1700.000 1900.000 1200.000 1900.000 L 700.000 1900.000 700.000 1800.000 L 700.000 1700.000 600.000 1700.000 L 500.000 1700.000 500.000 1200.000 L 500.000 700.000 600.000 700.000 L 700.000 700.000 700.000 600.000 L 700.000 500.000 1200.000 500.000 L 1700.000 500.000 1700.000 600.000 M1114.277 739.000 C 982.826 1085.260,792.000 1592.590,792.000 1595.806 C 792.000 1598.591,818.701 1600.000,871.460 1600.000 L 950.921 1600.000 986.460 1502.067 L 1022.000 1404.134 1198.256 1404.067 L 1374.512 1404.000 1410.256 1501.000 L 1446.000 1598.000 1523.711 1599.089 C 1566.452 1599.688,1602.794 1598.788,1604.470 1597.089 C 1607.125 1594.397,1542.163 1420.137,1324.294 845.519 L 1271.030 705.038 1246.928 702.519 C 1233.672 701.134,1201.734 700.000,1175.954 700.000 L 1129.082 700.000 1114.277 739.000 M1208.870 919.000 C 1212.388 929.450,1240.611 1012.455,1271.588 1103.455 C 1302.565 1194.455,1326.924 1270.505,1325.719 1272.455 C 1322.989 1276.871,1083.887 1277.075,1076.943 1272.667 C 1073.109 1270.234,1083.930 1233.711,1121.661 1121.728 C 1181.579 943.898,1197.121 900.000,1200.164 900.000 C 1201.434 900.000,1205.351 908.550,1208.870 919.000 M500.000 2000.000 L 500.000 2100.000 400.000 2100.000 L 300.000 2100.000 300.000 2000.000 L 300.000 1900.000 400.000 1900.000 L 500.000 1900.000 500.000 2000.000 M2100.000 2000.000 L 2100.000 2100.000 2000.000 2100.000 L 1900.000 2100.000 1900.000 2000.000 L 1900.000 1900.000 2000.000 1900.000 L 2100.000 1900.000 2100.000 2000.000 " fill="#1D1E23" stroke="none" fill-rule="evenodd"/></svg>