<svg viewBox="0 0 2400 2400" fill="none" xmlns="http://www.w3.org/2000/svg"><path d="M300.000 400.000 L 300.000 500.000 1200.000 500.000 L 2100.000 500.000 2100.000 400.000 L 2100.000 300.000 1200.000 300.000 L 300.000 300.000 300.000 400.000 M1100.000 800.000 L 1100.000 900.000 1600.000 900.000 L 2100.000 900.000 2100.000 800.000 L 2100.000 700.000 1600.000 700.000 L 1100.000 700.000 1100.000 800.000 M499.995 1002.005 L 302.020 1200.010 501.010 1399.000 L 700.000 1597.990 700.000 1200.995 C 700.000 982.648,699.543 804.000,698.985 804.000 C 698.427 804.000,608.881 893.102,499.995 1002.005 M1100.000 1200.000 L 1100.000 1300.000 1600.000 1300.000 L 2100.000 1300.000 2100.000 1200.000 L 2100.000 1100.000 1600.000 1100.000 L 1100.000 1100.000 1100.000 1200.000 M1100.000 1600.000 L 1100.000 1700.000 1600.000 1700.000 L 2100.000 1700.000 2100.000 1600.000 L 2100.000 1500.000 1600.000 1500.000 L 1100.000 1500.000 1100.000 1600.000 M300.000 2000.000 L 300.000 2100.000 1200.000 2100.000 L 2100.000 2100.000 2100.000 2000.000 L 2100.000 1900.000 1200.000 1900.000 L 300.000 1900.000 300.000 2000.000 " fill="#1D1E23" stroke="none" fill-rule="evenodd"/></svg>