<svg viewBox="0 0 2400 2400" fill="none" xmlns="http://www.w3.org/2000/svg"><path d="M704.550 303.842 L 355.101 306.000 337.284 325.681 C 297.761 369.340,291.910 403.348,316.285 447.723 C 335.249 482.247,342.919 487.207,386.050 492.833 C 437.435 499.537,1962.565 499.537,2013.950 492.833 C 2055.482 487.415,2064.455 482.152,2080.376 453.871 C 2099.391 420.091,2102.491 401.563,2093.776 373.786 C 2085.203 346.463,2057.446 315.068,2037.812 310.488 C 2022.690 306.960,1446.831 300.310,1224.000 301.090 C 1130.500 301.417,896.748 302.656,704.550 303.842 M1319.188 703.508 L 1156.376 706.000 1140.006 721.990 C 1119.884 741.644,1099.986 780.301,1100.039 799.639 C 1100.085 816.593,1114.248 848.657,1129.856 867.144 C 1152.361 893.799,1148.913 893.296,1334.000 896.936 C 1426.400 898.753,1616.300 899.639,1756.000 898.905 C 2034.701 897.441,2039.861 897.016,2064.605 873.526 C 2084.218 854.907,2097.526 825.337,2097.696 800.000 C 2097.817 782.131,2095.165 773.122,2083.575 752.021 C 2065.215 718.597,2054.390 712.352,2007.116 707.915 C 1957.039 703.214,1520.904 700.420,1319.188 703.508 M327.938 879.405 C 300.818 893.812,301.995 879.421,302.042 1196.000 C 302.091 1522.704,301.117 1511.636,330.980 1524.846 C 348.803 1532.730,349.944 1532.772,362.470 1526.027 C 393.661 1509.229,637.421 1268.872,664.075 1228.632 C 682.632 1200.616,680.717 1193.182,644.587 1152.966 C 585.649 1087.361,395.861 896.662,377.220 884.315 C 355.688 870.052,347.144 869.201,327.938 879.405 M1319.188 1103.508 L 1156.376 1106.000 1140.006 1121.990 C 1119.884 1141.644,1099.986 1180.301,1100.039 1199.639 C 1100.085 1216.593,1114.248 1248.657,1129.856 1267.144 C 1152.361 1293.799,1148.913 1293.296,1334.000 1296.936 C 1426.400 1298.753,1616.300 1299.639,1756.000 1298.905 C 2034.701 1297.441,2039.861 1297.016,2064.605 1273.526 C 2084.218 1254.907,2097.526 1225.337,2097.696 1200.000 C 2097.817 1182.131,2095.165 1173.122,2083.575 1152.021 C 2065.215 1118.597,2054.390 1112.352,2007.116 1107.915 C 1957.039 1103.214,1520.904 1100.420,1319.188 1103.508 M1319.188 1503.508 L 1156.376 1506.000 1140.006 1521.990 C 1119.884 1541.644,1099.986 1580.301,1100.039 1599.639 C 1100.085 1616.593,1114.248 1648.657,1129.856 1667.144 C 1152.361 1693.799,1148.913 1693.296,1334.000 1696.936 C 1426.400 1698.753,1616.300 1699.639,1756.000 1698.905 C 2034.701 1697.441,2039.861 1697.016,2064.605 1673.526 C 2084.218 1654.907,2097.526 1625.337,2097.696 1600.000 C 2097.817 1582.131,2095.165 1573.122,2083.575 1552.021 C 2065.215 1518.597,2054.390 1512.352,2007.116 1507.915 C 1957.039 1503.214,1520.904 1500.420,1319.188 1503.508 M704.550 1903.842 L 355.101 1906.000 337.284 1925.681 C 297.761 1969.340,291.910 2003.348,316.285 2047.723 C 324.056 2061.871,334.844 2076.753,340.257 2080.795 C 361.987 2097.018,387.938 2097.523,1200.000 2097.523 C 2010.614 2097.523,2038.046 2096.994,2059.545 2080.943 C 2071.801 2071.792,2090.130 2039.388,2096.400 2015.786 C 2100.558 2000.135,2100.189 1994.225,2093.776 1973.786 C 2085.203 1946.463,2057.446 1915.068,2037.812 1910.488 C 2022.690 1906.960,1446.831 1900.310,1224.000 1901.090 C 1130.500 1901.417,896.748 1902.656,704.550 1903.842 " fill="#1D1E23" stroke="none" fill-rule="evenodd"/></svg>