<svg viewBox="0 0 2400 2400" fill="none" xmlns="http://www.w3.org/2000/svg"><path d="M364.342 306.868 C 329.056 319.332,300.000 361.388,300.000 400.000 C 300.000 424.160,311.933 452.144,329.895 470.105 C 362.428 502.639,285.628 500.000,1200.000 500.000 C 2114.372 500.000,2037.572 502.639,2070.105 470.105 C 2109.232 430.979,2109.232 369.021,2070.105 329.895 C 2037.555 297.344,2114.683 299.961,1198.287 300.316 C 469.667 300.598,380.104 301.301,364.342 306.868 M1164.342 706.868 C 1129.056 719.332,1100.000 761.388,1100.000 800.000 C 1100.000 824.160,1111.933 852.144,1129.895 870.105 C 1161.562 901.772,1133.689 900.000,1600.000 900.000 C 2066.311 900.000,2038.438 901.772,2070.105 870.105 C 2109.232 830.979,2109.232 769.021,2070.105 729.895 C 2038.403 698.192,2066.611 699.961,1598.287 700.316 C 1231.985 700.594,1179.880 701.380,1164.342 706.868 M316.941 885.691 L 302.000 899.383 300.800 1190.691 C 299.979 1390.048,300.957 1486.671,303.900 1496.799 C 308.487 1512.584,322.777 1525.085,341.382 1529.589 C 364.492 1535.183,381.075 1521.294,530.622 1371.084 C 684.256 1216.769,685.596 1215.076,676.310 1186.938 C 673.325 1177.893,625.287 1127.205,520.872 1022.924 L 369.755 872.000 350.819 872.000 C 334.835 872.000,329.553 874.135,316.941 885.691 M1164.342 1106.868 C 1129.056 1119.332,1100.000 1161.388,1100.000 1200.000 C 1100.000 1224.160,1111.933 1252.144,1129.895 1270.105 C 1161.562 1301.772,1133.689 1300.000,1600.000 1300.000 C 2066.311 1300.000,2038.438 1301.772,2070.105 1270.105 C 2109.232 1230.979,2109.232 1169.021,2070.105 1129.895 C 2038.403 1098.192,2066.611 1099.961,1598.287 1100.316 C 1231.985 1100.594,1179.880 1101.380,1164.342 1106.868 M1164.342 1506.868 C 1129.056 1519.332,1100.000 1561.388,1100.000 1600.000 C 1100.000 1624.160,1111.933 1652.144,1129.895 1670.105 C 1161.562 1701.772,1133.689 1700.000,1600.000 1700.000 C 2066.311 1700.000,2038.438 1701.772,2070.105 1670.105 C 2109.232 1630.979,2109.232 1569.021,2070.105 1529.895 C 2038.403 1498.192,2066.611 1499.961,1598.287 1500.316 C 1231.985 1500.594,1179.880 1501.380,1164.342 1506.868 M364.342 1906.868 C 329.056 1919.332,300.000 1961.388,300.000 2000.000 C 300.000 2024.160,311.933 2052.144,329.895 2070.105 C 362.428 2102.639,285.628 2100.000,1200.000 2100.000 C 2114.372 2100.000,2037.572 2102.639,2070.105 2070.105 C 2109.232 2030.979,2109.232 1969.021,2070.105 1929.895 C 2037.555 1897.344,2114.683 1899.961,1198.287 1900.316 C 469.667 1900.598,380.104 1901.301,364.342 1906.868 " fill="#1D1E23" stroke="none" fill-rule="evenodd"/></svg>