<svg viewBox="0 0 2400 2400" fill="none" xmlns="http://www.w3.org/2000/svg"><path d="M1112.000 407.744 C 1102.100 409.215,1088.535 413.321,1081.856 416.869 C 1061.900 427.470,1024.567 468.044,1012.981 491.725 C 1003.535 511.032,1002.179 518.534,1002.367 550.442 C 1002.556 582.304,1004.061 590.054,1014.032 610.512 C 1028.342 639.870,1060.669 671.951,1089.856 685.759 C 1108.178 694.426,1121.175 696.954,1162.476 699.881 C 1190.142 701.841,1213.623 704.290,1214.655 705.322 C 1216.866 707.533,1184.030 785.770,1009.394 1194.376 L 879.306 1498.751 795.773 1501.258 C 712.378 1503.760,712.198 1503.785,687.498 1516.253 C 656.900 1531.699,628.220 1560.578,613.405 1590.859 C 603.486 1611.131,602.177 1618.201,602.367 1650.442 C 602.556 1682.304,604.061 1690.054,614.032 1710.512 C 628.199 1739.576,658.577 1769.875,690.719 1787.000 L 715.120 1800.000 1000.000 1800.000 L 1284.880 1800.000 1308.762 1787.271 C 1374.280 1752.350,1404.359 1697.732,1395.876 1629.086 C 1391.825 1596.310,1380.291 1573.468,1354.845 1547.831 C 1324.229 1516.987,1301.226 1507.830,1240.421 1502.286 C 1190.473 1497.731,1190.006 1497.596,1190.676 1487.844 C 1191.589 1474.531,1236.603 1365.966,1390.875 1005.000 L 1521.228 700.000 1603.054 700.000 L 1684.880 700.000 1709.281 687.000 C 1741.305 669.938,1771.789 639.601,1785.805 610.845 C 1795.749 590.442,1797.091 583.209,1797.091 550.000 C 1797.091 517.402,1795.667 509.401,1786.552 490.771 C 1773.823 464.753,1737.284 428.839,1708.917 414.465 L 1688.266 404.000 1409.133 404.534 C 1255.610 404.828,1121.900 406.273,1112.000 407.744 " fill="#1D1E23" stroke="none" fill-rule="evenodd"/></svg>