<svg viewBox="0 0 2400 2400" fill="none" xmlns="http://www.w3.org/2000/svg"><path d="M1000.000 550.000 L 1000.000 700.000 1101.000 700.399 C 1156.550 700.618,1205.674 701.968,1210.164 703.399 C 1217.731 705.810,1205.925 735.002,1048.544 1103.000 L 878.761 1500.000 739.380 1500.000 L 600.000 1500.000 600.000 1650.000 L 600.000 1800.000 1000.000 1800.000 L 1400.000 1800.000 1400.000 1650.000 L 1400.000 1500.000 1295.000 1499.939 C 1237.250 1499.905,1188.081 1498.555,1185.735 1496.939 C 1182.983 1495.042,1241.711 1353.220,1351.347 1097.000 L 1521.223 700.000 1660.611 700.000 L 1800.000 700.000 1800.000 550.000 L 1800.000 400.000 1400.000 400.000 L 1000.000 400.000 1000.000 550.000 " fill="#1D1E23" stroke="none" fill-rule="evenodd"/></svg>