<svg viewBox="0 0 2400 2400" fill="none" xmlns="http://www.w3.org/2000/svg"><path d="M1000.000 550.000 L 1000.000 700.000 1110.333 700.000 C 1173.554 700.000,1220.097 701.528,1219.333 703.579 C 1218.600 705.547,1141.679 885.547,1048.398 1103.579 L 878.795 1500.000 739.398 1500.000 L 600.000 1500.000 600.000 1650.000 L 600.000 1800.000 1000.000 1800.000 L 1400.000 1800.000 1400.000 1650.000 L 1400.000 1500.000 1289.667 1500.000 C 1226.446 1500.000,1179.903 1498.472,1180.667 1496.421 C 1181.400 1494.453,1258.321 1314.453,1351.602 1096.421 L 1521.205 700.000 1660.602 700.000 L 1800.000 700.000 1800.000 550.000 L 1800.000 400.000 1400.000 400.000 L 1000.000 400.000 1000.000 550.000 " fill="#1D1E23" stroke="none" fill-rule="evenodd"/></svg>