<svg viewBox="0 0 2400 2400" fill="none" xmlns="http://www.w3.org/2000/svg"><path d="M1182.000 403.553 C 1108.181 405.811,1100.633 406.729,1084.301 415.438 C 1058.518 429.186,1025.280 464.306,1012.856 490.927 C 1003.619 510.719,1002.107 519.119,1002.226 550.000 C 1002.343 580.252,1004.047 589.652,1012.903 608.872 C 1027.375 640.284,1055.696 669.380,1086.616 684.602 C 1109.813 696.022,1116.664 697.361,1163.838 699.702 C 1192.310 701.115,1216.282 703.110,1217.111 704.136 C 1217.939 705.161,1142.251 884.413,1048.914 1102.474 L 879.211 1498.948 796.042 1500.791 C 715.509 1502.576,712.168 1502.979,690.667 1513.498 C 657.489 1529.731,630.391 1556.161,615.122 1587.181 C 603.163 1611.479,602.016 1617.037,602.182 1649.920 C 602.336 1680.200,604.059 1689.677,612.903 1708.872 C 627.749 1741.097,655.506 1769.199,689.080 1785.995 L 717.075 1800.000 1000.000 1800.000 L 1282.925 1800.000 1310.920 1785.995 C 1344.480 1769.205,1372.235 1741.114,1387.117 1708.872 C 1396.051 1689.518,1397.675 1680.463,1397.675 1650.000 C 1397.675 1604.870,1386.573 1577.933,1355.188 1546.913 C 1321.498 1513.615,1298.121 1504.450,1239.205 1501.442 C 1212.142 1500.060,1188.077 1497.820,1185.726 1496.465 C 1183.072 1494.934,1245.841 1343.533,1351.338 1097.000 L 1521.223 700.000 1602.074 700.000 L 1682.925 700.000 1710.920 685.995 C 1744.480 669.205,1772.235 641.114,1787.117 608.872 C 1796.051 589.518,1797.675 580.463,1797.675 550.000 C 1797.675 519.458,1796.060 510.502,1787.025 490.927 C 1773.663 461.976,1740.881 428.816,1712.000 415.036 L 1690.000 404.539 1476.000 402.822 C 1358.300 401.878,1226.000 402.207,1182.000 403.553 " fill="#1D1E23" stroke="none" fill-rule="evenodd"/></svg>