<svg viewBox="0 0 2400 2400" fill="none" xmlns="http://www.w3.org/2000/svg"><path d="M1000.000 549.486 L 1000.000 698.971 1102.049 700.734 C 1164.986 701.821,1205.692 704.092,1208.258 706.658 C 1214.353 712.753,1209.067 725.567,944.063 1347.000 L 878.818 1500.000 739.409 1500.000 L 600.000 1500.000 600.000 1650.000 L 600.000 1800.000 1000.000 1800.000 L 1400.000 1800.000 1400.000 1650.000 L 1400.000 1500.000 1296.000 1500.000 L 1192.000 1500.000 1192.000 1489.783 C 1192.000 1473.446,1223.151 1398.174,1443.936 881.000 L 1521.206 700.000 1660.603 700.000 L 1800.000 700.000 1800.000 550.000 L 1800.000 400.000 1400.000 400.000 L 1000.000 400.000 1000.000 549.486 " fill="#1D1E23" stroke="none" fill-rule="evenodd"/></svg>