<svg viewBox="0 0 2400 2400" fill="none" xmlns="http://www.w3.org/2000/svg"><path d="M364.342 306.868 C 329.056 319.332,300.000 361.388,300.000 400.000 C 300.000 424.160,311.933 452.144,329.895 470.105 C 362.428 502.639,285.628 500.000,1200.000 500.000 C 2114.372 500.000,2037.572 502.639,2070.105 470.105 C 2109.232 430.979,2109.232 369.021,2070.105 329.895 C 2037.555 297.344,2114.683 299.961,1198.287 300.316 C 469.667 300.598,380.104 301.301,364.342 306.868 M364.342 706.868 C 329.056 719.332,300.000 761.388,300.000 800.000 C 300.000 824.160,311.933 852.144,329.895 870.105 C 362.428 902.639,285.628 900.000,1200.000 900.000 C 2114.372 900.000,2037.572 902.639,2070.105 870.105 C 2109.232 830.979,2109.232 769.021,2070.105 729.895 C 2037.555 697.344,2114.683 699.961,1198.287 700.316 C 469.667 700.598,380.104 701.301,364.342 706.868 M364.342 1106.868 C 329.056 1119.332,300.000 1161.388,300.000 1200.000 C 300.000 1224.160,311.933 1252.144,329.895 1270.105 C 362.428 1302.639,285.628 1300.000,1200.000 1300.000 C 2114.372 1300.000,2037.572 1302.639,2070.105 1270.105 C 2109.232 1230.979,2109.232 1169.021,2070.105 1129.895 C 2037.555 1097.344,2114.683 1099.961,1198.287 1100.316 C 469.667 1100.598,380.104 1101.301,364.342 1106.868 M364.342 1506.868 C 329.056 1519.332,300.000 1561.388,300.000 1600.000 C 300.000 1624.160,311.933 1652.144,329.895 1670.105 C 362.428 1702.639,285.628 1700.000,1200.000 1700.000 C 2114.372 1700.000,2037.572 1702.639,2070.105 1670.105 C 2109.232 1630.979,2109.232 1569.021,2070.105 1529.895 C 2037.555 1497.344,2114.683 1499.961,1198.287 1500.316 C 469.667 1500.598,380.104 1501.301,364.342 1506.868 M364.342 1906.868 C 329.056 1919.332,300.000 1961.388,300.000 2000.000 C 300.000 2024.160,311.933 2052.144,329.895 2070.105 C 362.428 2102.639,285.628 2100.000,1200.000 2100.000 C 2114.372 2100.000,2037.572 2102.639,2070.105 2070.105 C 2109.232 2030.979,2109.232 1969.021,2070.105 1929.895 C 2037.555 1897.344,2114.683 1899.961,1198.287 1900.316 C 469.667 1900.598,380.104 1901.301,364.342 1906.868 " fill="#1D1E23" stroke="none" fill-rule="evenodd"/></svg>