<svg viewBox="0 0 2400 2400" fill="none" xmlns="http://www.w3.org/2000/svg"><path d="M358.301 492.366 C 293.032 558.567,235.046 619.658,229.444 628.123 C 217.815 645.695,218.839 660.361,232.948 678.297 C 247.644 696.979,261.690 700.000,333.872 700.000 L 400.000 700.000 400.000 1199.400 L 400.000 1698.799 328.352 1701.012 C 248.256 1703.487,237.859 1706.266,227.208 1728.046 C 216.639 1749.658,218.462 1757.737,239.651 1783.198 C 269.107 1818.593,451.384 2001.151,471.600 2015.504 C 493.767 2031.242,506.232 2031.243,528.400 2015.506 C 551.782 1998.907,754.815 1794.710,769.612 1772.910 C 780.263 1757.219,780.843 1754.586,776.696 1740.744 C 774.211 1732.452,766.964 1720.672,760.591 1714.566 L 749.003 1703.464 674.501 1701.117 L 600.000 1698.769 600.000 1199.702 L 600.000 700.635 674.315 699.318 L 748.629 698.000 762.189 683.195 C 779.566 664.224,782.449 652.370,774.012 634.589 C 770.335 626.841,712.408 564.588,645.287 496.250 L 523.248 372.000 500.110 372.000 L 476.973 372.000 358.301 492.366 M1212.579 503.778 L 1055.159 506.000 1034.072 528.657 C 1012.982 551.318,1000.000 578.501,1000.000 600.000 C 1000.000 634.380,1034.820 683.825,1065.306 692.736 C 1078.047 696.460,1203.235 697.645,1594.000 697.738 C 1875.600 697.805,2114.741 696.403,2125.424 694.622 C 2140.067 692.180,2149.258 687.318,2162.761 674.871 C 2204.944 635.988,2210.167 590.614,2178.098 541.637 C 2155.384 506.948,2154.985 506.864,1998.000 503.553 C 1844.732 500.322,1449.414 500.435,1212.579 503.778 M1212.579 1103.778 L 1055.159 1106.000 1034.072 1128.657 C 1012.982 1151.318,1000.000 1178.501,1000.000 1200.000 C 1000.000 1234.380,1034.820 1283.825,1065.306 1292.736 C 1078.047 1296.460,1203.235 1297.645,1594.000 1297.738 C 1875.600 1297.805,2114.741 1296.403,2125.424 1294.622 C 2140.067 1292.180,2149.258 1287.318,2162.761 1274.871 C 2204.944 1235.988,2210.167 1190.614,2178.098 1141.637 C 2155.384 1106.948,2154.985 1106.864,1998.000 1103.553 C 1844.732 1100.322,1449.414 1100.435,1212.579 1103.778 M1212.579 1703.778 L 1055.159 1706.000 1034.072 1728.657 C 1012.982 1751.318,1000.000 1778.501,1000.000 1800.000 C 1000.000 1834.380,1034.820 1883.825,1065.306 1892.736 C 1078.047 1896.460,1203.235 1897.645,1594.000 1897.738 C 1875.600 1897.805,2114.741 1896.403,2125.424 1894.622 C 2140.067 1892.180,2149.258 1887.318,2162.761 1874.871 C 2204.944 1835.988,2210.167 1790.614,2178.098 1741.637 C 2155.384 1706.948,2154.985 1706.864,1998.000 1703.553 C 1844.732 1700.322,1449.414 1700.435,1212.579 1703.778 " fill="#1D1E23" stroke="none" fill-rule="evenodd"/></svg>