<svg viewBox="0 0 2400 2400" fill="none" xmlns="http://www.w3.org/2000/svg"><path d="M324.000 526.000 L 150.034 700.000 275.017 700.000 L 400.000 700.000 400.000 1200.000 L 400.000 1700.000 275.006 1700.000 L 150.011 1700.000 325.006 1874.994 L 500.000 2049.989 674.994 1874.994 L 849.989 1700.000 724.994 1700.000 L 600.000 1700.000 600.000 1200.000 L 600.000 700.000 724.983 700.000 L 849.966 700.000 676.000 526.000 C 580.319 430.300,501.119 352.000,500.000 352.000 C 498.881 352.000,419.681 430.300,324.000 526.000 M1000.000 600.000 L 1000.000 700.000 1600.000 700.000 L 2200.000 700.000 2200.000 600.000 L 2200.000 500.000 1600.000 500.000 L 1000.000 500.000 1000.000 600.000 M1000.000 1200.000 L 1000.000 1300.000 1600.000 1300.000 L 2200.000 1300.000 2200.000 1200.000 L 2200.000 1100.000 1600.000 1100.000 L 1000.000 1100.000 1000.000 1200.000 M1000.000 1800.000 L 1000.000 1900.000 1600.000 1900.000 L 2200.000 1900.000 2200.000 1800.000 L 2200.000 1700.000 1600.000 1700.000 L 1000.000 1700.000 1000.000 1800.000 " fill="#1D1E23" stroke="none" fill-rule="evenodd"/></svg>