<svg viewBox="0 0 2400 2400" fill="none" xmlns="http://www.w3.org/2000/svg"><path d="M358.171 493.123 C 293.018 559.741,236.187 619.591,231.882 626.123 C 222.449 640.432,221.697 662.932,230.243 675.133 C 243.442 693.978,257.407 697.317,331.000 699.222 L 400.000 701.008 400.000 1200.504 L 400.000 1700.000 373.000 1700.095 C 358.150 1700.147,324.699 1701.839,298.664 1703.855 C 245.311 1707.986,234.723 1712.507,225.238 1735.206 C 219.695 1748.473,219.754 1750.922,225.898 1762.329 C 234.387 1778.093,348.939 1898.261,418.804 1964.693 C 479.169 2022.092,494.082 2031.375,513.335 2023.538 C 528.696 2017.285,751.446 1797.738,768.403 1772.137 C 782.321 1751.125,781.524 1742.126,763.764 1719.701 L 752.062 1704.927 676.031 1702.001 L 600.000 1699.075 600.000 1199.538 L 600.000 700.000 673.586 700.000 L 747.171 700.000 759.854 685.556 C 778.193 664.668,781.334 654.021,773.826 638.198 C 766.597 622.964,702.146 553.472,596.498 447.000 L 522.079 372.000 499.355 372.000 L 476.632 372.000 358.171 493.123 M1078.000 506.821 C 1050.905 508.655,1040.320 516.178,1020.193 547.906 C 1001.209 577.833,997.421 596.539,1005.360 621.158 C 1014.725 650.200,1035.734 677.221,1056.924 687.479 L 1074.526 696.000 1586.263 695.920 C 1878.336 695.874,2108.992 694.250,2123.608 692.137 C 2145.340 688.996,2151.557 686.151,2164.677 673.339 C 2195.254 643.481,2203.558 606.999,2189.020 566.394 C 2178.486 536.974,2158.295 516.799,2134.000 511.418 C 2114.673 507.138,1136.246 502.879,1078.000 506.821 M1078.000 1106.821 C 1050.905 1108.655,1040.320 1116.178,1020.193 1147.906 C 1001.209 1177.833,997.421 1196.539,1005.360 1221.158 C 1014.725 1250.200,1035.734 1277.221,1056.924 1287.479 L 1074.526 1296.000 1586.263 1295.920 C 1878.336 1295.874,2108.992 1294.250,2123.608 1292.137 C 2145.340 1288.996,2151.557 1286.151,2164.677 1273.339 C 2195.254 1243.481,2203.558 1206.999,2189.020 1166.394 C 2178.486 1136.974,2158.295 1116.799,2134.000 1111.418 C 2114.673 1107.138,1136.246 1102.879,1078.000 1106.821 M1078.000 1706.821 C 1050.905 1708.655,1040.320 1716.178,1020.193 1747.906 C 1001.209 1777.833,997.421 1796.539,1005.360 1821.158 C 1014.725 1850.200,1035.734 1877.221,1056.924 1887.479 L 1074.526 1896.000 1586.263 1895.920 C 1878.336 1895.874,2108.992 1894.250,2123.608 1892.137 C 2145.340 1888.996,2151.557 1886.151,2164.677 1873.339 C 2195.254 1843.481,2203.558 1806.999,2189.020 1766.394 C 2178.486 1736.974,2158.295 1716.799,2134.000 1711.418 C 2114.673 1707.138,1136.246 1702.879,1078.000 1706.821 " fill="#1D1E23" stroke="none" fill-rule="evenodd"/></svg>