<svg viewBox="0 0 2400 2400" fill="none" xmlns="http://www.w3.org/2000/svg"><path d="M351.308 499.000 C 262.791 587.633,223.612 629.548,221.618 637.744 C 217.315 655.422,227.508 680.065,243.592 690.870 C 256.481 699.528,260.872 700.000,328.592 700.000 L 400.000 700.000 400.000 1200.000 L 400.000 1700.000 329.000 1700.015 C 248.215 1700.032,236.856 1703.401,225.435 1730.734 C 212.547 1761.581,213.413 1762.770,345.295 1895.288 C 411.683 1961.996,470.861 2019.146,476.801 2022.288 C 490.589 2029.579,509.411 2029.579,523.199 2022.288 C 529.139 2019.146,588.330 1961.996,654.734 1895.288 C 738.329 1811.309,776.356 1770.387,778.354 1762.256 C 782.696 1744.591,772.518 1719.952,756.408 1709.130 C 743.519 1700.472,739.128 1700.000,671.408 1700.000 L 600.000 1700.000 600.000 1200.000 L 600.000 700.000 671.408 700.000 C 738.986 700.000,743.538 699.514,756.266 690.936 C 763.889 685.799,772.201 675.344,775.451 666.804 C 786.688 637.279,783.834 633.509,646.870 496.994 L 521.465 372.000 499.802 372.000 L 478.140 372.000 351.308 499.000 M1064.342 506.868 C 1029.056 519.332,1000.000 561.388,1000.000 600.000 C 1000.000 624.160,1011.933 652.144,1029.895 670.105 C 1061.896 702.106,1021.730 700.000,1600.000 700.000 C 2178.270 700.000,2138.104 702.106,2170.105 670.105 C 2209.402 630.808,2209.244 569.034,2169.745 529.535 C 2138.294 498.084,2175.127 499.960,1596.274 500.316 C 1141.214 500.595,1079.967 501.350,1064.342 506.868 M1064.342 1106.868 C 1029.056 1119.332,1000.000 1161.388,1000.000 1200.000 C 1000.000 1224.160,1011.933 1252.144,1029.895 1270.105 C 1061.896 1302.106,1021.730 1300.000,1600.000 1300.000 C 2178.270 1300.000,2138.104 1302.106,2170.105 1270.105 C 2209.402 1230.808,2209.244 1169.034,2169.745 1129.535 C 2138.294 1098.084,2175.127 1099.960,1596.274 1100.316 C 1141.214 1100.595,1079.967 1101.350,1064.342 1106.868 M1064.342 1706.868 C 1029.056 1719.332,1000.000 1761.388,1000.000 1800.000 C 1000.000 1824.160,1011.933 1852.144,1029.895 1870.105 C 1061.896 1902.106,1021.730 1900.000,1600.000 1900.000 C 2178.270 1900.000,2138.104 1902.106,2170.105 1870.105 C 2209.402 1830.808,2209.244 1769.034,2169.745 1729.535 C 2138.294 1698.084,2175.127 1699.960,1596.274 1700.316 C 1141.214 1700.595,1079.967 1701.350,1064.342 1706.868 " fill="#1D1E23" stroke="none" fill-rule="evenodd"/></svg>