<svg viewBox="0 0 2400 2400" fill="none" xmlns="http://www.w3.org/2000/svg"><path d="M369.671 481.000 C 237.634 613.923,220.000 633.454,220.000 646.778 C 220.000 662.355,235.853 687.019,250.260 693.855 C 260.337 698.637,278.378 700.000,331.605 700.000 L 400.000 700.000 400.000 1199.561 L 400.000 1699.123 326.265 1700.583 C 242.075 1702.250,234.963 1704.673,224.110 1735.400 C 218.676 1750.787,218.821 1753.230,225.994 1767.037 C 230.270 1775.267,287.820 1836.247,353.884 1902.548 C 480.496 2029.616,483.811 2032.191,512.629 2025.862 C 521.953 2023.814,548.800 1999.910,615.192 1934.544 C 731.402 1820.129,780.000 1766.669,780.000 1753.246 C 780.000 1740.370,766.059 1715.315,754.698 1707.774 C 748.123 1703.410,728.179 1701.678,673.000 1700.682 L 600.000 1699.365 600.000 1199.682 L 600.000 700.000 667.740 700.000 C 704.996 700.000,739.920 698.312,745.348 696.248 C 759.749 690.773,775.636 672.008,778.416 657.190 C 780.193 647.715,778.399 640.278,771.650 629.148 C 766.599 620.816,708.477 559.550,642.490 493.000 L 522.514 372.000 500.230 372.000 L 477.945 372.000 369.671 481.000 M1118.000 504.128 C 1085.000 505.576,1057.510 507.040,1056.911 507.381 C 1056.311 507.721,1047.610 515.569,1037.573 524.820 C 1001.885 557.716,991.390 598.478,1008.812 636.525 C 1022.173 665.704,1042.177 685.994,1064.098 692.603 C 1090.663 700.612,2109.406 700.589,2136.000 692.578 C 2147.464 689.126,2159.342 681.372,2168.712 671.225 C 2205.733 631.133,2209.168 585.791,2178.548 541.350 C 2157.952 511.456,2148.371 507.610,2084.843 503.737 C 2021.438 499.871,1207.485 500.200,1118.000 504.128 M1118.000 1104.128 C 1085.000 1105.576,1057.510 1107.040,1056.911 1107.381 C 1056.311 1107.721,1047.610 1115.569,1037.573 1124.820 C 1001.885 1157.716,991.390 1198.478,1008.812 1236.525 C 1022.173 1265.704,1042.177 1285.994,1064.098 1292.603 C 1090.663 1300.612,2109.406 1300.589,2136.000 1292.578 C 2147.464 1289.126,2159.342 1281.372,2168.712 1271.225 C 2205.733 1231.133,2209.168 1185.791,2178.548 1141.350 C 2157.952 1111.456,2148.371 1107.610,2084.843 1103.737 C 2021.438 1099.871,1207.485 1100.200,1118.000 1104.128 M1118.000 1704.128 C 1085.000 1705.576,1057.510 1707.040,1056.911 1707.381 C 1056.311 1707.721,1047.610 1715.569,1037.573 1724.820 C 1001.885 1757.716,991.390 1798.478,1008.812 1836.525 C 1022.173 1865.704,1042.177 1885.994,1064.098 1892.603 C 1090.663 1900.612,2109.406 1900.589,2136.000 1892.578 C 2147.464 1889.126,2159.342 1881.372,2168.712 1871.225 C 2205.733 1831.133,2209.168 1785.791,2178.548 1741.350 C 2157.952 1711.456,2148.371 1707.610,2084.843 1703.737 C 2021.438 1699.871,1207.485 1700.200,1118.000 1704.128 " fill="#1D1E23" stroke="none" fill-rule="evenodd"/></svg>