<svg viewBox="0 0 2400 2400" fill="none" xmlns="http://www.w3.org/2000/svg"><path d="M700.000 703.948 C 585.507 709.995,509.710 735.139,418.000 797.497 C 309.969 870.953,237.507 979.720,209.805 1110.000 C 201.305 1149.977,200.108 1238.603,207.509 1280.000 C 225.562 1380.975,279.928 1485.339,350.853 1555.172 C 409.961 1613.370,469.462 1648.116,567.493 1681.683 L 620.986 1700.000 763.493 1699.600 C 841.872 1699.380,936.600 1698.030,974.000 1696.600 C 1051.009 1693.656,1056.953 1691.498,1079.894 1658.155 C 1105.082 1621.544,1105.222 1585.005,1080.308 1550.000 C 1060.973 1522.832,1051.953 1519.725,981.020 1515.795 C 946.359 1513.875,885.600 1512.193,846.000 1512.057 C 727.447 1511.649,637.681 1505.587,610.324 1496.141 C 523.915 1466.305,455.848 1405.703,420.036 1326.720 C 368.306 1212.632,392.606 1075.065,479.883 987.923 C 514.297 953.562,548.943 931.431,599.043 911.807 L 640.085 895.731 835.136 892.865 L 1030.186 890.000 1051.474 876.339 C 1087.649 853.124,1104.310 817.004,1096.227 779.317 C 1089.906 749.842,1072.166 726.627,1046.291 713.967 L 1024.550 703.330 893.275 702.002 C 821.074 701.271,734.100 702.147,700.000 703.948 M1365.721 707.592 C 1323.953 718.146,1292.711 773.382,1304.045 816.634 C 1310.798 842.403,1324.680 861.035,1348.526 876.339 L 1369.814 890.000 1564.864 892.865 L 1759.915 895.731 1800.957 911.807 C 1906.003 952.953,1973.829 1027.851,2000.360 1132.000 C 2007.216 1158.914,2007.239 1232.791,2000.401 1266.000 C 1993.598 1299.044,1956.628 1373.401,1933.796 1399.960 C 1897.220 1442.508,1836.227 1482.308,1784.000 1497.706 C 1757.461 1505.531,1657.999 1511.808,1556.000 1512.096 C 1515.300 1512.210,1453.641 1513.875,1418.980 1515.795 C 1348.047 1519.725,1339.027 1522.832,1319.692 1550.000 C 1294.778 1585.005,1294.918 1621.544,1320.106 1658.155 C 1343.047 1691.498,1348.991 1693.656,1426.000 1696.600 C 1463.400 1698.030,1558.128 1699.380,1636.507 1699.600 L 1779.014 1700.000 1832.507 1681.763 C 1920.857 1651.644,1972.078 1623.620,2024.920 1576.490 C 2113.087 1497.857,2166.328 1407.439,2190.562 1295.184 C 2199.543 1253.583,2200.573 1154.988,2192.454 1114.000 C 2178.946 1045.809,2143.543 963.900,2106.009 914.000 C 2047.679 836.452,1960.853 772.601,1862.000 734.558 C 1791.511 707.430,1786.949 706.975,1572.000 705.668 C 1465.300 705.020,1372.474 705.885,1365.721 707.592 M950.550 1103.755 L 855.099 1106.069 833.696 1129.064 C 818.638 1145.242,810.470 1158.195,806.146 1172.755 C 798.132 1199.744,798.381 1207.372,808.127 1233.421 C 819.551 1263.953,848.031 1290.206,874.484 1294.588 C 899.555 1298.741,1499.875 1298.839,1524.808 1294.694 C 1538.924 1292.347,1548.531 1287.148,1563.320 1273.852 C 1589.163 1250.617,1597.176 1233.136,1597.176 1200.000 C 1597.176 1166.916,1589.163 1149.383,1563.493 1126.304 C 1544.014 1108.790,1543.864 1108.738,1506.981 1106.506 C 1450.428 1103.084,1058.184 1101.145,950.550 1103.755 " fill="#1D1E23" stroke="none" fill-rule="evenodd"/></svg>