<svg viewBox="0 0 2400 2400" fill="none" xmlns="http://www.w3.org/2000/svg"><path d="M678.000 704.153 C 559.513 711.412,444.973 762.670,353.132 849.534 C 288.933 910.255,244.036 983.820,219.815 1067.979 C 161.016 1272.287,243.952 1493.732,425.425 1616.968 C 459.221 1639.918,514.572 1665.095,570.000 1682.729 L 618.000 1698.000 818.000 1698.000 C 928.000 1698.000,1024.788 1696.561,1033.086 1694.803 C 1062.118 1688.649,1093.623 1650.460,1098.396 1615.635 C 1101.605 1592.222,1094.716 1568.163,1078.891 1547.520 C 1053.729 1514.697,1060.210 1515.698,847.032 1511.735 C 706.928 1509.130,651.057 1506.703,631.177 1502.356 C 577.410 1490.601,503.172 1446.010,468.577 1404.689 C 385.805 1305.827,368.925 1175.920,424.341 1064.253 C 441.882 1028.907,450.344 1017.192,479.529 987.850 C 517.716 949.458,548.079 930.429,606.000 908.587 L 642.000 895.012 834.728 892.187 L 1027.456 889.361 1046.691 879.462 C 1111.705 846.005,1116.401 758.674,1055.393 717.642 C 1038.130 706.032,1034.046 705.124,987.881 702.642 C 926.447 699.339,741.896 700.239,678.000 704.153 M1405.317 703.720 C 1363.835 705.837,1359.399 706.869,1343.411 718.124 C 1283.595 760.232,1288.876 846.303,1353.309 879.462 L 1372.544 889.361 1565.272 892.187 L 1758.000 895.012 1794.000 908.587 C 1851.921 930.429,1882.284 949.458,1920.471 987.850 C 1949.899 1017.437,1957.933 1028.613,1975.395 1064.253 C 2001.637 1117.814,2009.974 1157.522,2006.800 1213.836 C 2003.947 1264.477,1996.557 1292.649,1974.229 1338.000 C 1942.186 1403.084,1899.091 1445.221,1829.409 1479.602 C 1774.436 1506.726,1765.307 1507.787,1552.968 1511.735 C 1339.790 1515.698,1346.271 1514.697,1321.109 1547.520 C 1305.284 1568.163,1298.395 1592.222,1301.604 1615.635 C 1306.377 1650.460,1337.882 1688.649,1366.914 1694.803 C 1375.212 1696.561,1472.000 1698.000,1582.000 1698.000 L 1782.000 1698.000 1830.000 1682.860 C 1924.857 1652.941,1988.372 1615.527,2052.150 1552.000 C 2246.540 1358.375,2249.017 1049.251,2057.715 857.610 C 1976.013 775.763,1843.380 712.096,1742.000 706.060 C 1689.152 702.913,1453.261 701.273,1405.317 703.720 M900.000 1104.024 C 876.900 1105.672,857.510 1107.240,856.911 1107.510 C 856.311 1107.779,847.610 1115.569,837.573 1124.820 C 815.053 1145.579,803.977 1166.626,801.148 1194.036 C 797.133 1232.937,828.731 1281.853,864.971 1292.838 C 889.911 1300.398,1510.228 1300.353,1535.209 1292.790 C 1554.693 1286.890,1579.246 1263.855,1590.437 1240.975 C 1600.308 1220.793,1600.308 1179.207,1590.437 1159.025 C 1579.871 1137.423,1554.916 1113.292,1537.255 1107.600 C 1519.649 1101.925,972.467 1098.854,900.000 1104.024 " fill="#1D1E23" stroke="none" fill-rule="evenodd"/></svg>