<svg viewBox="0 0 2400 2400" fill="none" xmlns="http://www.w3.org/2000/svg"><path d="M746.000 704.262 C 617.449 707.510,592.534 710.445,541.185 728.391 C 466.023 754.660,397.720 798.729,340.734 857.724 C 283.789 916.677,251.644 971.125,219.854 1062.470 L 203.312 1110.000 204.987 1204.000 L 206.661 1298.000 221.262 1341.127 C 250.164 1426.494,291.007 1494.649,346.306 1549.787 C 409.920 1613.216,469.580 1648.403,567.274 1680.112 L 628.549 1700.000 864.274 1700.000 L 1100.000 1700.000 1100.000 1606.000 L 1100.000 1512.000 945.000 1511.852 C 756.617 1511.671,646.526 1506.948,616.007 1497.738 C 544.580 1476.181,474.631 1421.129,435.917 1356.000 C 390.978 1280.398,381.351 1172.835,412.155 1090.504 C 434.604 1030.505,504.993 953.960,564.000 925.380 C 582.700 916.322,605.200 906.853,614.000 904.338 C 631.351 899.377,858.281 892.369,1009.000 892.139 L 1100.000 892.000 1100.000 796.000 L 1100.000 700.000 981.000 700.666 C 915.550 701.032,809.800 702.650,746.000 704.262 M1300.000 796.000 L 1300.000 892.000 1391.000 892.139 C 1541.719 892.369,1768.649 899.377,1786.000 904.338 C 1794.800 906.853,1817.300 916.212,1836.000 925.135 C 1865.487 939.205,1875.900 947.286,1914.456 986.020 C 1964.372 1036.167,1981.672 1064.938,1996.003 1121.640 C 2006.872 1164.641,2006.997 1235.000,1996.281 1276.903 C 1981.637 1334.160,1946.578 1391.237,1901.221 1431.663 C 1877.382 1452.910,1824.012 1482.724,1784.843 1496.675 C 1755.697 1507.056,1658.707 1511.411,1449.000 1511.755 L 1300.000 1512.000 1300.000 1606.000 L 1300.000 1700.000 1539.000 1699.941 L 1778.000 1699.882 1825.929 1683.756 C 1920.730 1651.858,1983.654 1615.553,2043.167 1558.419 C 2086.251 1517.056,2117.221 1475.814,2142.773 1425.773 C 2181.418 1350.094,2196.800 1286.382,2196.800 1202.000 C 2196.800 1098.913,2167.832 1002.594,2111.886 919.662 C 2088.092 884.391,2016.228 813.715,1980.391 790.340 C 1941.210 764.784,1880.381 734.727,1847.487 724.669 C 1789.503 706.938,1680.704 700.227,1449.000 700.089 L 1300.000 700.000 1300.000 796.000 M800.000 1200.000 L 800.000 1300.000 1200.000 1300.000 L 1600.000 1300.000 1600.000 1200.000 L 1600.000 1100.000 1200.000 1100.000 L 800.000 1100.000 800.000 1200.000 " fill="#1D1E23" stroke="none" fill-rule="evenodd"/></svg>