<svg viewBox="0 0 2400 2400" fill="none" xmlns="http://www.w3.org/2000/svg"><path d="M767.928 704.275 C 619.820 707.667,581.983 712.428,526.115 734.705 C 455.184 762.988,400.611 799.018,345.731 853.798 C 287.585 911.837,250.888 973.405,218.056 1068.000 L 203.479 1110.000 204.927 1206.000 L 206.374 1302.000 219.535 1338.000 C 252.197 1427.343,286.203 1484.887,339.338 1540.722 C 404.322 1609.010,466.338 1646.483,572.830 1681.811 L 627.661 1700.000 863.830 1700.000 L 1100.000 1700.000 1100.000 1606.528 L 1100.000 1513.056 893.000 1510.733 C 779.150 1509.456,671.139 1506.507,652.975 1504.179 C 554.134 1491.511,456.869 1413.774,417.306 1315.828 C 400.166 1273.393,395.049 1239.504,397.100 1182.000 C 399.318 1119.768,408.134 1089.070,436.068 1046.298 C 474.216 987.886,522.864 944.941,581.650 917.780 C 611.342 904.062,613.655 903.662,684.943 899.951 C 725.050 897.863,834.845 894.929,928.932 893.431 L 1100.000 890.708 1100.000 795.354 L 1100.000 700.000 999.000 700.648 C 943.450 701.005,839.468 702.637,767.928 704.275 M1300.000 795.354 L 1300.000 890.708 1471.068 893.431 C 1565.155 894.929,1675.282 897.880,1715.795 899.989 L 1789.455 903.824 1830.806 924.021 C 1867.121 941.759,1876.700 948.791,1909.463 981.768 C 1929.982 1002.421,1953.619 1029.638,1961.991 1042.251 C 2016.375 1124.183,2017.781 1262.685,1965.130 1351.401 C 1944.180 1386.700,1912.675 1423.887,1888.986 1441.276 C 1858.961 1463.316,1805.046 1490.792,1778.005 1497.833 C 1742.557 1507.063,1633.793 1511.837,1457.000 1511.923 L 1300.000 1512.000 1300.000 1606.000 L 1300.000 1700.000 1539.613 1700.000 L 1779.226 1700.000 1818.613 1686.239 C 1933.075 1646.249,1987.021 1614.142,2054.538 1545.827 C 2116.075 1483.564,2158.273 1409.901,2182.884 1321.784 C 2193.329 1284.385,2193.986 1277.324,2193.840 1204.000 C 2193.703 1135.896,2192.490 1121.179,2184.280 1088.000 C 2168.394 1023.807,2147.140 974.332,2113.713 923.732 C 2090.670 888.853,2017.435 816.252,1980.000 791.178 C 1941.647 765.488,1868.955 730.351,1838.000 722.538 C 1777.558 707.284,1650.091 700.177,1435.000 700.068 L 1300.000 700.000 1300.000 795.354 M800.000 1200.000 L 800.000 1300.000 1200.000 1300.000 L 1600.000 1300.000 1600.000 1200.000 L 1600.000 1100.000 1200.000 1100.000 L 800.000 1100.000 800.000 1200.000 " fill="#1D1E23" stroke="none" fill-rule="evenodd"/></svg>