<svg viewBox="0 0 2400 2400" fill="none" xmlns="http://www.w3.org/2000/svg"><path d="M648.006 708.509 C 484.176 727.469,326.776 838.014,252.896 986.000 C 236.515 1018.813,217.733 1073.177,210.231 1109.494 C 201.930 1149.684,201.810 1253.064,210.019 1292.089 C 230.563 1389.752,281.679 1484.959,350.185 1553.158 C 409.218 1611.926,471.355 1648.262,573.263 1683.608 L 620.525 1700.000 771.263 1699.761 C 963.992 1699.456,1034.629 1695.849,1052.698 1685.389 C 1079.824 1669.688,1103.360 1621.345,1097.990 1592.363 C 1094.273 1572.307,1076.470 1540.880,1063.656 1531.755 C 1046.805 1519.756,1007.455 1516.298,838.905 1512.006 C 660.749 1507.470,630.163 1504.462,589.340 1487.468 C 459.800 1433.540,380.706 1303.008,395.963 1168.327 C 400.973 1124.102,408.997 1097.304,428.518 1059.611 C 464.626 989.888,525.414 939.440,612.998 906.510 L 639.997 896.360 832.998 893.719 L 1026.000 891.079 1042.604 881.603 C 1082.452 858.861,1104.124 818.249,1095.928 781.677 C 1088.300 747.639,1073.131 728.463,1041.159 712.440 C 1024.751 704.217,1019.876 704.013,851.159 704.519 C 755.922 704.804,664.503 706.600,648.006 708.509 M1411.681 707.924 C 1361.136 709.856,1356.230 710.750,1341.075 720.796 C 1329.884 728.214,1321.267 738.788,1313.537 754.589 C 1293.282 795.988,1300.770 833.696,1335.471 865.047 C 1365.129 891.840,1355.434 890.645,1567.523 893.641 L 1761.046 896.375 1794.721 909.954 C 1884.481 946.148,1938.325 992.949,1974.249 1066.000 C 1998.655 1115.629,2004.019 1139.839,2003.902 1199.840 C 2003.778 1263.384,2000.957 1275.354,1972.244 1334.162 C 1939.570 1401.084,1904.622 1437.823,1839.683 1473.518 C 1783.654 1504.315,1764.036 1507.015,1558.935 1512.159 C 1392.236 1516.339,1353.163 1519.779,1336.344 1531.755 C 1323.530 1540.880,1305.727 1572.307,1302.010 1592.363 C 1296.640 1621.345,1320.176 1669.688,1347.302 1685.389 C 1365.367 1695.846,1436.003 1699.456,1628.555 1699.761 L 1779.111 1700.000 1826.555 1683.731 C 1922.442 1650.852,1981.393 1617.195,2039.386 1562.222 C 2114.543 1490.980,2162.339 1408.792,2186.592 1309.096 C 2195.779 1271.332,2197.085 1257.587,2197.149 1198.000 C 2197.214 1136.907,2196.147 1126.017,2186.649 1090.788 C 2172.852 1039.614,2149.367 983.062,2125.556 943.674 C 2082.140 871.855,2001.832 802.533,1910.312 757.874 C 1847.456 727.202,1817.641 716.977,1776.787 712.084 C 1740.732 707.765,1490.447 704.913,1411.681 707.924 M865.296 1106.720 C 842.024 1109.912,807.269 1156.150,801.628 1191.422 C 796.286 1224.833,826.402 1276.144,858.935 1289.060 C 871.274 1293.959,910.185 1295.489,1074.000 1297.512 C 1184.000 1298.871,1332.799 1298.636,1404.664 1296.991 L 1535.327 1294.000 1552.552 1281.888 C 1562.026 1275.227,1575.227 1262.022,1581.888 1252.544 C 1593.154 1236.514,1594.000 1232.846,1594.000 1200.000 C 1594.000 1167.154,1593.154 1163.486,1581.888 1147.456 C 1575.227 1137.978,1562.023 1124.773,1552.547 1118.112 L 1535.317 1106.000 1206.658 1105.489 C 1025.896 1105.208,872.283 1105.762,865.296 1106.720 " fill="#1D1E23" stroke="none" fill-rule="evenodd"/></svg>