<svg viewBox="0 0 2400 2400" fill="none" xmlns="http://www.w3.org/2000/svg"><path d="M716.000 704.285 C 611.596 707.413,593.553 709.750,544.938 726.434 C 438.966 762.803,346.118 833.401,286.519 922.926 C 255.884 968.944,237.347 1008.005,219.150 1064.893 L 206.000 1106.000 206.000 1200.000 C 206.000 1292.217,206.216 1294.683,217.385 1330.000 C 258.254 1459.230,325.433 1550.182,430.701 1618.798 C 476.880 1648.900,509.895 1663.119,592.000 1688.269 L 630.000 1699.909 865.000 1699.954 L 1100.000 1700.000 1100.000 1606.566 L 1100.000 1513.133 879.000 1510.922 C 626.825 1508.400,627.341 1508.460,558.905 1473.339 C 508.812 1447.631,453.629 1393.454,429.088 1345.891 C 398.350 1286.314,387.086 1223.278,395.663 1158.827 C 405.476 1085.091,428.760 1040.390,488.754 980.109 C 519.797 948.918,530.333 941.203,565.373 924.008 C 591.916 910.983,615.014 902.680,632.000 900.056 C 646.300 897.847,757.450 894.837,879.000 893.365 L 1100.000 890.690 1100.000 795.345 L 1100.000 700.000 957.000 700.674 C 878.350 701.045,769.900 702.669,716.000 704.285 M1300.000 795.345 L 1300.000 890.690 1521.000 893.365 C 1642.550 894.837,1753.700 897.847,1768.000 900.056 C 1784.986 902.680,1808.084 910.983,1834.627 924.008 C 1869.726 941.233,1880.184 948.899,1911.494 980.358 C 1955.884 1024.960,1974.208 1051.953,1988.518 1093.823 C 2031.399 1219.289,1996.738 1350.134,1897.966 1435.655 C 1869.942 1459.919,1805.279 1492.992,1768.000 1502.129 C 1746.484 1507.402,1703.887 1508.900,1521.000 1510.817 L 1300.000 1513.133 1300.000 1606.768 L 1300.000 1700.404 1541.000 1699.092 L 1782.000 1697.781 1823.074 1684.831 C 1920.066 1654.250,1989.606 1613.745,2051.676 1551.676 C 2135.470 1467.882,2186.997 1358.774,2196.180 1245.691 C 2214.743 1017.078,2089.081 818.445,1871.543 732.541 C 1805.568 706.489,1727.716 700.245,1467.000 700.095 L 1300.000 700.000 1300.000 795.345 M800.000 1200.000 L 800.000 1300.000 1200.000 1300.000 L 1600.000 1300.000 1600.000 1200.000 L 1600.000 1100.000 1200.000 1100.000 L 800.000 1100.000 800.000 1200.000 " fill="#1D1E23" stroke="none" fill-rule="evenodd"/></svg>