<svg viewBox="0 0 2400 2400" fill="none" xmlns="http://www.w3.org/2000/svg"><path d="M656.000 704.471 C 495.857 722.800,342.292 823.253,263.778 961.041 C 157.649 1147.289,187.631 1384.319,337.348 1542.661 C 405.097 1614.314,484.860 1660.754,584.814 1686.742 L 626.000 1697.450 821.148 1698.997 C 1042.903 1700.755,1041.696 1700.891,1071.067 1670.933 C 1115.683 1625.427,1106.890 1556.849,1052.068 1522.750 C 1038.258 1514.161,1034.476 1513.957,846.000 1511.635 C 629.880 1508.973,630.523 1509.050,566.000 1477.851 C 522.217 1456.681,491.475 1432.823,461.862 1397.030 C 416.359 1342.034,392.000 1273.899,392.000 1201.622 C 392.000 1147.050,400.216 1109.641,421.786 1066.000 C 459.774 989.141,520.159 937.663,608.000 907.254 L 646.000 894.098 836.000 892.034 C 998.348 890.270,1028.037 889.041,1040.000 883.591 C 1105.564 853.719,1119.924 773.444,1068.047 726.802 C 1057.469 717.292,1041.673 707.371,1032.943 704.755 C 1014.221 699.146,704.569 698.913,656.000 704.471 M1364.690 704.902 C 1357.370 707.340,1342.682 717.156,1332.050 726.715 C 1280.074 773.445,1294.371 853.689,1360.000 883.591 C 1371.963 889.041,1401.652 890.270,1564.000 892.034 L 1754.000 894.098 1792.000 907.254 C 1879.841 937.663,1940.226 989.141,1978.214 1066.000 C 2019.521 1149.573,2018.792 1251.737,1976.275 1338.000 C 1945.730 1399.971,1897.965 1446.922,1834.000 1477.851 C 1769.477 1509.050,1770.120 1508.973,1554.000 1511.635 C 1365.524 1513.957,1361.742 1514.161,1347.932 1522.750 C 1293.110 1556.849,1284.317 1625.427,1328.933 1670.933 C 1358.304 1700.891,1357.097 1700.755,1578.852 1698.997 L 1774.000 1697.450 1815.186 1686.742 C 1917.053 1660.256,1995.480 1614.189,2065.597 1539.655 C 2149.119 1450.870,2193.644 1343.301,2198.898 1217.612 C 2209.043 974.891,2040.922 768.595,1786.000 710.960 C 1753.090 703.519,1734.036 702.720,1564.000 701.645 C 1435.597 700.834,1373.878 701.842,1364.690 704.902 M864.342 1106.868 C 829.056 1119.332,800.000 1161.388,800.000 1200.000 C 800.000 1224.160,811.933 1252.144,829.895 1270.105 C 861.040 1301.250,845.562 1300.000,1200.000 1300.000 C 1554.438 1300.000,1538.960 1301.250,1570.105 1270.105 C 1609.232 1230.979,1609.232 1169.021,1570.105 1129.895 C 1538.912 1098.701,1554.732 1099.960,1198.287 1100.316 C 922.569 1100.591,879.735 1101.432,864.342 1106.868 " fill="#1D1E23" stroke="none" fill-rule="evenodd"/></svg>