<svg viewBox="0 0 2400 2400" fill="none" xmlns="http://www.w3.org/2000/svg"><path d="M1178.000 383.870 C 1155.013 387.379,1141.401 397.068,1112.000 430.846 C 1077.980 469.931,1001.770 565.777,973.544 604.977 L 951.239 635.953 978.620 666.582 C 1013.422 705.514,1706.177 1394.281,1752.966 1436.471 C 1772.197 1453.812,1789.747 1468.000,1791.966 1468.000 C 1797.317 1468.000,1797.248 1354.375,1791.876 1320.000 C 1776.345 1220.614,1709.995 1059.319,1619.928 902.000 C 1529.824 744.616,1334.947 472.054,1270.243 412.918 C 1241.758 386.885,1214.491 378.298,1178.000 383.870 M513.297 562.550 C 491.204 570.379,460.656 597.718,451.514 617.845 C 440.268 642.603,441.538 675.234,454.495 694.442 C 470.896 718.755,517.601 769.072,627.000 880.287 C 682.550 936.759,728.000 985.042,728.000 987.582 C 728.000 990.122,721.852 1004.407,714.339 1019.328 C 675.787 1095.880,625.581 1233.789,611.511 1301.776 C 594.644 1383.280,603.102 1500.672,632.142 1588.121 C 647.671 1634.883,679.993 1697.823,710.753 1741.198 C 740.533 1783.191,816.673 1859.372,858.522 1889.046 C 931.454 1940.760,1022.427 1977.604,1108.452 1990.269 C 1175.060 2000.075,1278.762 1996.506,1334.666 1982.485 C 1412.015 1963.084,1483.506 1929.617,1559.267 1877.342 L 1596.533 1851.628 1683.267 1936.535 C 1782.416 2033.595,1821.490 2066.416,1842.612 2070.379 C 1860.148 2073.668,1892.561 2064.342,1911.082 2050.677 C 1941.678 2028.104,1958.872 1993.559,1954.762 1962.916 C 1951.943 1941.896,1933.954 1919.365,1847.048 1828.000 C 1739.031 1714.440,673.493 651.879,624.299 608.666 C 565.161 556.718,548.864 549.947,513.297 562.550 " fill="#1D1E23" stroke="none" fill-rule="evenodd"/></svg>