<svg viewBox="0 0 2400 2400" fill="none" xmlns="http://www.w3.org/2000/svg"><path d="M1160.934 367.000 C 1116.808 420.087,1033.216 526.317,986.244 588.998 L 951.025 635.996 969.676 657.828 C 991.279 683.115,1665.653 1351.947,1739.586 1421.411 C 1766.858 1447.035,1790.447 1468.000,1792.005 1468.000 C 1802.927 1468.000,1797.485 1335.739,1784.352 1282.000 C 1733.927 1075.653,1568.375 784.088,1326.702 476.000 C 1276.007 411.374,1202.896 324.000,1199.514 324.000 C 1197.953 324.000,1180.591 343.350,1160.934 367.000 M468.969 585.030 L 400.024 654.060 565.509 819.509 L 730.994 984.958 709.190 1031.183 C 679.677 1093.751,652.673 1162.350,630.137 1232.000 C 607.216 1302.842,602.143 1345.769,605.384 1441.444 C 607.318 1498.510,609.321 1514.514,618.404 1545.444 C 641.429 1623.851,674.428 1691.330,719.416 1752.000 C 746.691 1788.783,817.342 1859.653,851.007 1884.000 C 911.289 1927.597,984.757 1961.838,1063.820 1983.186 C 1099.593 1992.845,1107.925 1993.509,1196.000 1993.727 C 1285.349 1993.948,1292.106 1993.425,1332.569 1983.161 C 1412.506 1962.883,1483.051 1929.932,1559.577 1877.128 L 1597.154 1851.199 1727.609 1981.610 L 1858.065 2112.020 1928.009 2041.991 L 1997.953 1971.961 1269.981 1243.981 C 869.596 843.591,541.087 516.000,539.961 516.000 C 538.835 516.000,506.889 547.063,468.969 585.030 " fill="#1D1E23" stroke="none" fill-rule="evenodd"/></svg>