<svg viewBox="0 0 2400 2400" fill="none" xmlns="http://www.w3.org/2000/svg"><path d="M1171.710 383.715 C 1163.850 385.252,1150.487 391.795,1142.013 398.255 C 1126.618 409.992,1018.321 542.785,974.422 603.755 L 951.182 636.033 979.722 667.691 C 1015.319 707.179,1691.067 1379.587,1749.411 1433.577 C 1772.934 1455.344,1793.440 1471.893,1794.980 1470.353 C 1799.554 1465.779,1797.441 1356.603,1792.109 1322.000 C 1773.654 1202.250,1694.957 1021.380,1580.648 836.000 C 1476.683 667.397,1302.331 432.272,1257.274 399.910 C 1234.233 383.361,1203.379 377.521,1171.710 383.715 M515.529 561.522 C 482.717 573.248,459.478 595.255,448.224 625.260 C 443.086 638.957,442.701 672.072,447.531 684.740 C 453.445 700.248,508.614 760.601,622.364 876.000 L 730.791 986.000 709.401 1030.000 C 673.076 1104.723,634.033 1208.715,616.293 1278.000 C 589.817 1381.402,601.470 1518.640,645.843 1626.000 C 698.201 1752.678,810.256 1872.838,934.000 1935.000 C 1033.113 1984.789,1126.542 2002.419,1253.207 1995.231 C 1352.356 1989.606,1465.178 1945.887,1563.419 1875.025 L 1596.837 1850.919 1667.419 1920.731 C 1810.245 2062.000,1827.620 2075.333,1862.628 2070.534 C 1912.987 2063.632,1956.000 2018.240,1956.000 1971.998 C 1956.000 1945.232,1944.496 1929.681,1855.398 1836.000 C 1752.589 1727.903,831.627 806.446,696.651 676.630 C 571.004 555.787,556.814 546.769,515.529 561.522 " fill="#1D1E23" stroke="none" fill-rule="evenodd"/></svg>