<svg viewBox="0 0 2400 2400" fill="none" xmlns="http://www.w3.org/2000/svg"><path d="M1177.564 347.000 C 1145.276 383.735,1059.286 492.146,1003.118 566.929 L 951.348 635.858 966.674 654.561 C 998.062 692.867,1789.522 1476.078,1793.163 1472.437 C 1799.485 1466.115,1801.211 1403.903,1796.424 1354.887 C 1788.423 1272.942,1759.121 1179.924,1704.462 1062.957 C 1646.038 937.933,1539.333 762.047,1433.306 616.000 C 1364.779 521.607,1207.217 324.000,1200.480 324.000 C 1198.995 324.000,1188.683 334.350,1177.564 347.000 M468.969 585.030 L 400.024 654.060 565.508 819.508 L 730.993 984.957 707.824 1033.479 C 664.746 1123.694,622.137 1241.811,609.998 1304.662 C 601.089 1350.791,601.095 1466.353,610.009 1510.000 C 636.887 1641.608,704.772 1758.355,807.272 1849.248 C 886.916 1919.873,978.024 1965.271,1086.966 1988.616 C 1138.845 1999.734,1252.215 2000.669,1305.384 1990.420 C 1389.791 1974.147,1483.613 1932.887,1557.494 1879.547 L 1596.989 1851.034 1727.527 1981.527 L 1858.065 2112.020 1928.009 2041.991 L 1997.953 1971.961 1269.981 1243.981 C 869.596 843.591,541.087 516.000,539.961 516.000 C 538.835 516.000,506.889 547.063,468.969 585.030 " fill="#1D1E23" stroke="none" fill-rule="evenodd"/></svg>