<svg viewBox="0 0 2400 2400" fill="none" xmlns="http://www.w3.org/2000/svg"><path d="M1162.000 385.722 C 1152.386 389.243,1137.219 400.903,1124.000 414.934 C 1103.264 436.944,999.024 569.155,966.237 615.030 L 951.206 636.060 979.671 667.635 C 995.326 685.001,1183.847 874.105,1398.606 1087.866 C 1685.912 1373.838,1790.256 1475.344,1793.538 1472.059 C 1796.448 1469.148,1797.931 1446.444,1797.800 1406.798 C 1797.576 1338.601,1789.765 1292.160,1765.779 1216.412 C 1706.678 1029.769,1563.802 784.072,1358.481 516.000 C 1268.430 398.427,1252.016 384.058,1204.701 381.375 C 1187.638 380.408,1172.225 381.977,1162.000 385.722 M516.478 560.400 C 460.545 577.357,428.088 638.753,448.928 688.180 C 455.631 704.077,545.811 800.787,657.327 911.668 L 731.417 985.337 715.867 1016.265 C 673.452 1100.625,627.122 1225.268,611.716 1296.467 C 599.081 1354.861,598.857 1447.515,611.199 1510.095 C 627.268 1591.572,654.985 1659.906,697.860 1723.747 C 792.184 1864.199,923.500 1953.588,1086.966 1988.616 C 1138.845 1999.734,1252.215 2000.669,1305.384 1990.420 C 1389.654 1974.174,1483.618 1932.885,1557.165 1879.783 L 1596.330 1851.506 1691.165 1944.381 C 1804.028 2054.912,1818.032 2066.615,1841.674 2070.160 C 1895.700 2078.262,1956.044 2028.414,1955.978 1975.737 C 1955.925 1933.714,1977.009 1957.057,1552.111 1528.602 C 1107.271 1080.039,625.596 602.931,590.791 576.398 C 565.573 557.174,543.087 552.333,516.478 560.400 " fill="#1D1E23" stroke="none" fill-rule="evenodd"/></svg>