<svg viewBox="0 0 2400 2400" fill="none" xmlns="http://www.w3.org/2000/svg"><path d="M1158.838 369.000 C 1114.187 422.031,1009.798 555.810,975.875 603.476 L 952.051 636.951 967.932 655.919 C 988.943 681.014,1787.599 1476.000,1791.799 1476.000 C 1801.257 1476.000,1800.998 1367.222,1791.404 1310.360 C 1764.280 1149.590,1625.713 880.892,1433.325 616.000 C 1355.562 508.930,1207.778 324.000,1199.979 324.000 C 1198.190 324.000,1179.677 344.250,1158.838 369.000 M468.969 585.030 L 400.024 654.060 565.713 819.713 L 731.402 985.366 715.799 1016.400 C 671.139 1105.224,623.308 1235.553,609.516 1306.000 C 599.922 1355.004,600.088 1464.716,609.825 1510.000 C 636.812 1635.515,690.108 1734.624,777.742 1822.258 C 866.746 1911.262,969.459 1965.879,1094.145 1990.502 C 1144.473 2000.442,1256.376 2000.489,1305.855 1990.593 C 1402.490 1971.265,1486.050 1933.545,1567.281 1872.583 L 1596.562 1850.608 1727.314 1981.314 L 1858.065 2112.020 1928.009 2041.991 L 1997.953 1971.961 1269.981 1243.981 C 869.596 843.591,541.087 516.000,539.961 516.000 C 538.835 516.000,506.889 547.063,468.969 585.030 " fill="#1D1E23" stroke="none" fill-rule="evenodd"/></svg>