<svg viewBox="0 0 2400 2400" fill="none" xmlns="http://www.w3.org/2000/svg"><path d="M1153.079 389.222 C 1142.990 394.505,1125.419 410.986,1109.560 430.041 C 1082.135 462.994,993.304 577.822,966.436 615.051 L 951.244 636.102 979.210 667.051 C 1020.480 712.724,1786.784 1476.000,1791.368 1476.000 C 1793.521 1476.000,1796.589 1460.307,1798.187 1441.126 C 1815.857 1228.998,1658.985 904.405,1338.517 490.000 C 1262.905 392.224,1247.386 380.105,1198.000 380.269 C 1176.984 380.338,1165.779 382.572,1153.079 389.222 M502.000 565.549 C 450.508 589.934,427.733 648.735,451.683 695.461 C 457.371 706.559,509.922 762.678,595.890 849.461 L 731.147 986.000 715.692 1016.668 C 707.192 1033.535,689.641 1072.235,676.690 1102.668 C 613.085 1252.133,594.336 1341.906,603.604 1452.629 C 615.451 1594.160,674.070 1718.586,777.742 1822.258 C 866.746 1911.262,969.459 1965.879,1094.145 1990.502 C 1144.473 2000.442,1256.376 2000.489,1305.855 1990.593 C 1402.352 1971.293,1486.063 1933.534,1566.974 1872.814 L 1595.948 1851.070 1700.447 1953.677 C 1757.922 2010.111,1810.103 2058.950,1816.404 2062.209 C 1859.742 2084.620,1920.794 2062.716,1945.199 2016.000 C 1955.188 1996.878,1956.502 1990.535,1955.244 1967.511 C 1954.085 1946.311,1951.448 1937.526,1942.034 1923.511 C 1927.894 1902.461,683.170 656.329,626.000 605.988 C 604.000 586.616,580.600 567.451,574.000 563.398 C 556.925 552.914,526.780 553.815,502.000 565.549 " fill="#1D1E23" stroke="none" fill-rule="evenodd"/></svg>