<svg viewBox="0 0 2400 2400" fill="none" xmlns="http://www.w3.org/2000/svg"><path d="M1166.969 359.000 C 1098.887 439.574,952.000 630.641,952.000 638.627 C 952.000 644.970,1791.659 1481.674,1794.837 1478.497 C 1796.577 1476.758,1797.986 1444.435,1797.968 1406.667 C 1797.934 1332.592,1794.052 1306.955,1771.225 1230.065 C 1706.732 1012.827,1515.279 700.330,1251.040 381.000 C 1225.098 349.650,1202.224 324.000,1200.208 324.000 C 1198.192 324.000,1183.235 339.750,1166.969 359.000 M468.987 584.984 L 400.003 653.968 565.952 819.984 L 731.901 986.000 712.779 1024.088 C 665.739 1117.782,629.179 1215.784,611.340 1296.000 C 598.448 1353.972,598.461 1458.290,611.368 1517.362 C 651.251 1699.903,763.214 1848.225,924.094 1931.645 C 1005.024 1973.608,1083.943 1994.815,1174.000 1998.797 C 1323.861 2005.423,1460.203 1959.114,1585.112 1859.162 L 1596.225 1850.270 1727.145 1981.145 L 1858.065 2112.020 1928.009 2041.991 L 1997.953 1971.961 1269.981 1243.981 C 869.596 843.591,541.100 516.000,539.990 516.000 C 538.879 516.000,506.928 547.043,468.987 584.984 " fill="#1D1E23" stroke="none" fill-rule="evenodd"/></svg>