<svg viewBox="0 0 2400 2400" fill="none" xmlns="http://www.w3.org/2000/svg"><path d="M1169.053 357.000 C 1128.195 405.479,1052.582 501.176,998.484 572.874 L 951.044 635.748 967.636 655.565 C 986.744 678.388,1546.297 1234.966,1693.509 1377.581 C 1747.774 1430.150,1793.483 1471.845,1795.086 1470.236 C 1796.689 1468.628,1797.831 1439.116,1797.624 1404.656 C 1797.334 1356.237,1795.225 1332.457,1788.346 1300.000 C 1743.725 1089.491,1572.206 785.727,1313.897 459.740 C 1256.152 386.865,1203.352 324.000,1199.891 324.000 C 1198.227 324.000,1184.350 338.850,1169.053 357.000 M468.969 585.030 L 400.024 654.060 565.502 819.502 L 730.980 984.944 707.984 1033.472 C 670.718 1112.112,635.812 1205.134,614.861 1281.643 C 606.874 1310.808,606.005 1323.274,606.046 1408.000 C 606.088 1493.107,606.948 1505.121,615.129 1534.992 C 645.431 1645.617,693.205 1731.387,768.000 1809.442 C 856.698 1902.007,945.283 1952.857,1076.000 1986.242 C 1109.049 1994.682,1190.269 1998.803,1253.207 1995.231 C 1352.361 1989.605,1465.178 1945.887,1563.429 1875.017 L 1596.859 1850.904 1727.462 1981.462 L 1858.065 2112.020 1928.009 2041.991 L 1997.953 1971.961 1269.981 1243.981 C 869.596 843.591,541.087 516.000,539.961 516.000 C 538.835 516.000,506.889 547.063,468.969 585.030 " fill="#1D1E23" stroke="none" fill-rule="evenodd"/></svg>