<svg viewBox="0 0 2400 2400" fill="none" xmlns="http://www.w3.org/2000/svg"><path d="M1168.887 381.644 C 1159.475 384.712,1145.826 391.760,1138.556 397.305 C 1120.638 410.972,952.000 628.971,952.000 638.467 C 952.000 643.748,1791.298 1482.035,1793.941 1479.393 C 1795.187 1478.146,1797.301 1453.923,1798.637 1425.563 C 1800.480 1386.463,1799.393 1363.365,1794.141 1330.000 C 1761.300 1121.345,1605.823 834.770,1338.394 489.965 C 1279.338 413.822,1263.073 396.268,1242.555 386.532 C 1222.324 376.931,1189.935 374.782,1168.887 381.644 M496.674 566.414 C 449.361 589.990,428.477 649.542,451.163 696.188 C 457.177 708.553,501.283 755.423,595.401 849.467 L 730.977 984.933 704.005 1041.467 C 657.011 1139.967,627.329 1222.408,609.483 1304.000 C 598.552 1353.977,599.516 1463.118,611.368 1517.362 C 651.290 1700.085,763.053 1848.142,924.094 1931.645 C 1005.024 1973.608,1083.943 1994.815,1174.000 1998.797 C 1323.859 2005.423,1460.208 1959.112,1585.109 1859.165 L 1596.218 1850.275 1699.109 1952.747 C 1755.699 2009.107,1807.947 2058.191,1815.215 2061.824 C 1861.946 2085.177,1924.588 2062.363,1948.315 2013.349 C 1960.031 1989.147,1960.336 1956.647,1949.078 1932.000 C 1942.680 1917.993,1791.005 1764.315,1265.428 1239.320 C 529.821 504.527,584.713 556.074,537.785 556.022 C 523.992 556.007,510.933 559.308,496.674 566.414 " fill="#1D1E23" stroke="none" fill-rule="evenodd"/></svg>