<svg viewBox="0 0 2400 2400" fill="none" xmlns="http://www.w3.org/2000/svg"><path d="M200.000 450.000 L 200.000 500.000 250.000 500.000 L 300.000 500.000 300.000 650.000 L 300.000 800.000 350.000 800.000 L 400.000 800.000 400.000 600.000 L 400.000 400.000 300.000 400.000 L 200.000 400.000 200.000 450.000 M700.000 600.000 L 700.000 700.000 1400.000 700.000 L 2100.000 700.000 2100.000 600.000 L 2100.000 500.000 1400.000 500.000 L 700.000 500.000 700.000 600.000 M200.000 1050.000 L 200.000 1100.000 290.066 1100.000 L 380.132 1100.000 290.066 1204.984 L 200.000 1309.967 200.000 1354.984 L 200.000 1400.000 350.000 1400.000 L 500.000 1400.000 500.000 1350.000 L 500.000 1300.000 409.934 1300.000 L 319.868 1300.000 409.934 1195.016 L 500.000 1090.033 500.000 1045.016 L 500.000 1000.000 350.000 1000.000 L 200.000 1000.000 200.000 1050.000 M700.000 1200.000 L 700.000 1300.000 1400.000 1300.000 L 2100.000 1300.000 2100.000 1200.000 L 2100.000 1100.000 1400.000 1100.000 L 700.000 1100.000 700.000 1200.000 M200.000 1650.000 L 200.000 1700.000 300.000 1700.000 L 400.000 1700.000 400.000 1726.000 L 400.000 1752.000 350.000 1752.000 L 300.000 1752.000 300.000 1802.000 L 300.000 1852.000 350.000 1852.000 L 400.000 1852.000 400.000 1876.000 L 400.000 1900.000 300.000 1900.000 L 200.000 1900.000 200.000 1950.000 L 200.000 2000.000 350.000 2000.000 L 500.000 2000.000 500.000 1800.000 L 500.000 1600.000 350.000 1600.000 L 200.000 1600.000 200.000 1650.000 M700.000 1800.000 L 700.000 1900.000 1400.000 1900.000 L 2100.000 1900.000 2100.000 1800.000 L 2100.000 1700.000 1400.000 1700.000 L 700.000 1700.000 700.000 1800.000 " fill="#1D1E23" stroke="none" fill-rule="evenodd"/></svg>