<svg viewBox="0 0 2400 2400" fill="none" xmlns="http://www.w3.org/2000/svg"><path d="M228.202 411.128 C 220.613 415.311,211.009 425.275,206.860 433.270 C 197.565 451.181,201.946 468.703,220.058 486.055 C 230.778 496.326,235.236 497.604,265.965 499.217 L 300.000 501.003 300.000 636.477 L 300.000 771.950 316.232 783.708 C 345.840 805.156,364.963 802.779,391.689 774.331 L 401.241 764.163 398.980 601.059 C 397.401 487.110,395.273 434.780,391.919 427.419 C 383.939 409.906,371.140 406.646,304.000 405.023 C 248.847 403.689,240.476 404.363,228.202 411.128 M779.158 506.806 C 752.826 508.329,752.008 508.716,736.106 527.179 C 716.430 550.024,700.000 581.630,700.000 596.635 C 700.000 629.708,732.674 680.226,759.197 688.162 C 785.885 696.146,1118.451 700.490,1564.000 698.675 C 1870.463 697.426,2005.016 695.541,2021.875 692.260 C 2065.670 683.738,2091.591 652.650,2095.035 604.514 C 2096.691 581.363,2095.554 574.872,2086.852 557.813 C 2072.225 529.137,2057.188 516.499,2031.634 511.407 C 2010.942 507.283,844.987 503.000,779.158 506.806 M236.063 1007.783 C 203.164 1016.257,193.582 1052.418,216.025 1083.400 L 228.050 1100.000 304.095 1100.000 L 380.139 1100.000 320.185 1169.916 C 216.513 1290.812,199.966 1313.803,200.022 1336.872 C 200.066 1354.874,208.960 1377.575,220.483 1389.098 L 232.212 1400.827 343.106 1399.079 C 470.905 1397.064,480.522 1395.230,493.328 1370.439 C 500.699 1356.171,500.894 1353.542,495.683 1338.801 C 485.854 1310.996,478.189 1308.059,400.667 1302.388 C 362.918 1299.626,331.119 1296.452,330.000 1295.334 C 328.882 1294.215,347.265 1270.058,370.851 1241.650 C 487.384 1101.298,499.713 1083.857,499.912 1059.081 C 500.056 1041.211,488.518 1017.520,477.148 1012.339 C 464.222 1006.450,256.483 1002.524,236.063 1007.783 M779.158 1106.806 C 752.826 1108.329,752.008 1108.716,736.106 1127.179 C 716.430 1150.024,700.000 1181.630,700.000 1196.635 C 700.000 1229.708,732.674 1280.226,759.197 1288.162 C 785.885 1296.146,1118.451 1300.490,1564.000 1298.675 C 1870.463 1297.426,2005.016 1295.541,2021.875 1292.260 C 2065.670 1283.738,2091.591 1252.650,2095.035 1204.514 C 2096.691 1181.363,2095.554 1174.872,2086.852 1157.813 C 2072.225 1129.137,2057.188 1116.499,2031.634 1111.407 C 2010.942 1107.283,844.987 1103.000,779.158 1106.806 M236.063 1607.783 C 203.164 1616.257,193.582 1652.418,216.025 1683.400 L 228.050 1700.000 314.025 1700.000 L 400.000 1700.000 400.000 1725.166 L 400.000 1750.331 364.043 1754.507 C 325.714 1758.958,316.423 1763.844,305.265 1785.421 C 298.392 1798.713,300.435 1810.389,312.266 1825.430 C 324.698 1841.235,341.235 1848.234,372.300 1850.838 L 400.000 1853.160 400.000 1875.949 L 400.000 1898.738 329.000 1901.513 C 241.257 1904.943,225.179 1907.824,212.678 1922.357 C 199.731 1937.409,202.007 1965.388,217.871 1986.187 L 228.949 2000.711 345.657 1999.355 C 473.229 1997.874,474.963 1997.560,490.944 1973.081 C 497.414 1963.171,497.957 1948.819,497.479 1800.137 C 497.134 1692.602,495.475 1634.271,492.551 1626.928 C 490.127 1620.839,483.248 1613.995,477.265 1611.721 C 463.323 1606.420,254.587 1603.012,236.063 1607.783 M779.158 1706.806 C 752.826 1708.329,752.008 1708.716,736.106 1727.179 C 716.430 1750.024,700.000 1781.630,700.000 1796.635 C 700.000 1829.708,732.674 1880.226,759.197 1888.162 C 785.885 1896.146,1118.451 1900.490,1564.000 1898.675 C 1870.463 1897.426,2005.016 1895.541,2021.875 1892.260 C 2065.670 1883.738,2091.591 1852.650,2095.035 1804.514 C 2096.691 1781.363,2095.554 1774.872,2086.852 1757.813 C 2072.225 1729.137,2057.188 1716.499,2031.634 1711.407 C 2010.942 1707.283,844.987 1703.000,779.158 1706.806 " fill="#1D1E23" stroke="none" fill-rule="evenodd"/></svg>