<svg viewBox="0 0 2400 2400" fill="none" xmlns="http://www.w3.org/2000/svg"><path d="M500.000 550.000 L 500.000 700.000 750.000 700.000 L 1000.000 700.000 1000.000 850.000 L 1000.000 1000.000 1200.000 1000.000 L 1400.000 1000.000 1400.000 850.000 L 1400.000 700.000 1650.000 700.000 L 1900.000 700.000 1900.000 550.000 L 1900.000 400.000 1200.000 400.000 L 500.000 400.000 500.000 550.000 M300.000 1300.000 L 300.000 1400.000 1200.000 1400.000 L 2100.000 1400.000 2100.000 1300.000 L 2100.000 1200.000 1200.000 1200.000 L 300.000 1200.000 300.000 1300.000 M1000.000 1750.000 L 1000.000 1900.000 1200.000 1900.000 L 1400.000 1900.000 1400.000 1750.000 L 1400.000 1600.000 1200.000 1600.000 L 1000.000 1600.000 1000.000 1750.000 " fill="#1D1E23" stroke="none" fill-rule="evenodd"/></svg>