<svg viewBox="0 0 2400 2400" fill="none" xmlns="http://www.w3.org/2000/svg"><path d="M738.000 407.837 C 572.432 410.324,583.456 407.906,544.657 450.248 C 509.315 488.818,502.518 505.086,502.731 550.593 C 502.880 582.308,504.428 590.794,513.422 609.177 C 526.269 635.434,566.509 675.056,594.985 689.486 L 615.734 700.000 807.867 700.000 L 1000.000 700.000 1000.000 850.000 L 1000.000 1000.000 1200.000 1000.000 L 1400.000 1000.000 1400.000 850.000 L 1400.000 700.000 1592.133 700.000 L 1784.266 700.000 1805.015 689.486 C 1833.718 674.941,1873.811 635.399,1886.017 609.597 C 1899.854 580.349,1900.475 521.434,1887.244 493.286 C 1875.965 469.291,1840.058 432.728,1812.000 416.668 L 1790.000 404.075 1336.000 404.874 C 1086.300 405.314,817.200 406.647,738.000 407.837 M704.550 1203.842 L 355.101 1206.000 337.284 1225.681 C 297.761 1269.340,291.910 1303.348,316.285 1347.723 C 324.056 1361.871,334.844 1376.753,340.257 1380.795 C 361.954 1396.994,388.138 1397.503,1200.000 1397.503 C 2010.411 1397.503,2038.078 1396.970,2059.545 1380.943 C 2071.801 1371.792,2090.130 1339.388,2096.400 1315.786 C 2100.558 1300.135,2100.189 1294.225,2093.776 1273.786 C 2085.203 1246.463,2057.446 1215.068,2037.812 1210.488 C 2022.690 1206.960,1446.831 1200.310,1224.000 1201.090 C 1130.500 1201.417,896.748 1202.656,704.550 1203.842 M1001.001 1667.000 C 1003.430 1747.363,1010.419 1774.461,1038.272 1811.515 C 1069.651 1853.258,1112.256 1882.083,1161.054 1894.584 C 1229.053 1912.005,1309.875 1878.900,1360.567 1812.863 C 1389.543 1775.116,1396.533 1748.587,1398.999 1667.000 L 1401.023 1600.000 1200.000 1600.000 L 998.977 1600.000 1001.001 1667.000 " fill="#1D1E23" stroke="none" fill-rule="evenodd"/></svg>