<svg viewBox="0 0 2400 2400" fill="none" xmlns="http://www.w3.org/2000/svg"><path d="M624.000 407.723 C 607.500 409.042,588.535 413.091,581.856 416.721 C 561.694 427.678,524.500 468.181,512.981 491.725 C 503.535 511.032,502.179 518.534,502.367 550.442 C 502.556 582.304,504.061 590.054,514.032 610.512 C 528.199 639.576,558.577 669.875,590.719 687.000 L 615.120 700.000 807.560 700.000 L 1000.000 700.000 1000.000 850.000 L 1000.000 1000.000 1200.000 1000.000 L 1400.000 1000.000 1400.000 850.000 L 1400.000 700.000 1592.440 700.000 L 1784.880 700.000 1809.281 687.000 C 1841.305 669.938,1871.789 639.601,1885.805 610.845 C 1895.749 590.442,1897.091 583.209,1897.091 550.000 C 1897.091 517.402,1895.667 509.401,1886.552 490.771 C 1873.823 464.753,1837.284 428.839,1808.917 414.465 L 1788.266 404.000 1221.133 404.662 C 909.210 405.027,640.500 406.404,624.000 407.723 M596.579 1203.820 L 355.159 1206.000 333.800 1228.950 C 294.673 1270.991,290.940 1312.775,322.169 1359.147 C 346.574 1395.386,334.316 1393.492,564.000 1396.508 C 675.100 1397.966,961.300 1399.160,1200.000 1399.160 C 1438.700 1399.160,1724.900 1397.966,1836.000 1396.508 C 2065.482 1393.495,2052.395 1395.517,2077.250 1359.232 C 2096.218 1331.540,2103.147 1302.402,2096.306 1279.102 C 2087.576 1249.367,2068.509 1223.797,2048.216 1214.609 C 2030.843 1206.742,2020.280 1206.230,1820.000 1203.546 C 1584.022 1200.384,961.574 1200.523,596.579 1203.820 M1000.131 1651.000 C 1000.394 1753.710,1011.838 1788.824,1061.002 1837.785 C 1110.042 1886.622,1166.920 1906.501,1229.000 1896.501 C 1271.543 1889.647,1304.684 1871.957,1338.998 1837.785 C 1388.162 1788.824,1399.606 1753.710,1399.869 1651.000 L 1400.000 1600.000 1200.000 1600.000 L 1000.000 1600.000 1000.131 1651.000 " fill="#1D1E23" stroke="none" fill-rule="evenodd"/></svg>