<svg viewBox="0 0 2400 2400" fill="none" xmlns="http://www.w3.org/2000/svg"><path d="M852.000 408.167 C 675.420 409.959,597.655 412.108,587.204 415.484 C 577.298 418.684,563.785 429.711,546.320 448.847 C 510.377 488.229,506.388 497.630,504.686 546.986 C 503.441 583.100,504.347 590.190,512.309 606.637 C 524.028 630.847,564.056 671.390,592.000 687.356 L 614.000 699.925 807.000 699.962 L 1000.000 700.000 1000.000 850.000 L 1000.000 1000.000 1200.000 1000.000 L 1400.000 1000.000 1400.000 850.000 L 1400.000 700.000 1593.000 699.962 L 1786.000 699.925 1807.935 687.348 C 1835.112 671.764,1871.879 635.495,1884.501 611.819 C 1892.844 596.168,1894.000 588.646,1894.000 550.000 C 1894.000 514.540,1892.544 503.328,1886.500 492.232 C 1875.057 471.225,1840.708 436.528,1814.380 419.383 L 1790.760 404.000 1446.380 404.814 C 1256.971 405.262,989.500 406.771,852.000 408.167 M740.502 1203.804 L 355.003 1206.000 337.387 1226.000 C 300.877 1267.450,293.945 1301.367,313.721 1341.788 C 330.688 1376.467,342.496 1386.667,370.248 1390.618 C 383.312 1392.478,761.200 1394.000,1210.000 1394.000 C 1869.275 1394.000,2029.309 1392.998,2043.226 1388.785 C 2057.643 1384.420,2062.988 1379.647,2076.000 1359.515 C 2084.551 1346.285,2093.614 1326.132,2096.141 1314.730 C 2100.211 1296.364,2099.750 1291.383,2092.097 1271.045 C 2086.665 1256.610,2076.880 1241.512,2065.732 1230.364 C 2049.519 1214.150,2045.872 1212.431,2023.003 1210.224 C 1994.694 1207.491,1303.361 1199.638,1196.000 1200.830 C 1157.500 1201.258,952.526 1202.596,740.502 1203.804 M1001.159 1665.000 C 1003.860 1739.974,1010.059 1768.521,1030.284 1799.122 C 1085.062 1882.005,1180.464 1918.336,1260.884 1886.941 C 1293.494 1874.211,1311.430 1862.372,1338.929 1835.427 C 1385.153 1790.137,1395.381 1761.042,1398.841 1665.000 L 1401.184 1600.000 1200.000 1600.000 L 998.816 1600.000 1001.159 1665.000 " fill="#1D1E23" stroke="none" fill-rule="evenodd"/></svg>