<svg viewBox="0 0 2400 2400" fill="none" xmlns="http://www.w3.org/2000/svg"><path d="M614.984 404.309 C 572.445 414.429,534.295 446.166,514.378 488.000 C 503.383 511.094,502.000 518.023,502.000 550.000 C 502.000 581.977,503.383 588.906,514.378 612.000 C 530.110 645.044,554.956 669.890,588.000 685.622 L 614.000 698.000 807.000 699.146 L 1000.000 700.291 1000.000 850.146 L 1000.000 1000.000 1200.000 1000.000 L 1400.000 1000.000 1400.000 850.146 L 1400.000 700.291 1593.000 699.146 L 1786.000 698.000 1812.000 685.622 C 1845.044 669.890,1869.890 645.044,1885.622 612.000 C 1896.617 588.906,1898.000 581.977,1898.000 550.000 C 1898.000 517.964,1896.631 511.137,1885.566 488.000 C 1869.825 455.085,1845.164 430.446,1812.000 414.501 L 1786.000 402.000 1208.000 401.368 C 880.151 401.010,623.501 402.283,614.984 404.309 M364.342 1206.868 C 329.056 1219.332,300.000 1261.388,300.000 1300.000 C 300.000 1324.160,311.933 1352.144,329.895 1370.105 C 362.428 1402.639,285.628 1400.000,1200.000 1400.000 C 2114.372 1400.000,2037.572 1402.639,2070.105 1370.105 C 2109.232 1330.979,2109.232 1269.021,2070.105 1229.895 C 2037.555 1197.344,2114.683 1199.961,1198.287 1200.316 C 469.667 1200.598,380.104 1201.301,364.342 1206.868 M1000.000 1659.803 C 1000.000 1692.695,1001.989 1729.145,1004.420 1740.803 C 1023.232 1831.010,1107.989 1900.000,1200.000 1900.000 C 1292.011 1900.000,1376.768 1831.010,1395.580 1740.803 C 1398.011 1729.145,1400.000 1692.695,1400.000 1659.803 L 1400.000 1600.000 1200.000 1600.000 L 1000.000 1600.000 1000.000 1659.803 " fill="#1D1E23" stroke="none" fill-rule="evenodd"/></svg>