<svg viewBox="0 0 2400 2400" fill="none" xmlns="http://www.w3.org/2000/svg"><path d="M1167.122 304.121 C 1127.741 310.756,1074.593 344.143,1054.133 375.101 C 1040.165 396.235,898.052 766.489,706.044 1282.000 C 593.504 1584.150,592.977 1585.963,606.300 1625.066 C 627.093 1686.087,701.673 1715.839,760.918 1686.746 C 802.633 1666.261,802.584 1666.359,874.964 1463.000 L 917.320 1344.000 1200.268 1344.000 L 1483.217 1344.000 1487.128 1355.000 C 1489.278 1361.050,1507.394 1412.211,1527.384 1468.690 C 1586.020 1634.358,1591.684 1647.872,1610.278 1666.478 C 1632.531 1688.745,1666.432 1701.541,1695.467 1698.632 C 1739.861 1694.185,1780.559 1663.630,1793.783 1624.821 C 1806.673 1586.990,1805.682 1583.406,1713.932 1336.000 C 1527.584 833.507,1359.471 395.448,1344.891 374.374 C 1321.205 340.139,1273.448 311.655,1227.131 304.139 C 1199.066 299.584,1194.061 299.583,1167.122 304.121 M1219.339 605.000 C 1237.266 651.096,1265.968 731.610,1349.455 970.000 C 1398.549 1110.184,1405.954 1134.395,1400.445 1136.719 C 1396.900 1138.214,1306.700 1139.438,1200.000 1139.438 C 1093.300 1139.438,1003.069 1138.214,999.486 1136.719 C 993.879 1134.378,999.872 1114.237,1042.551 992.000 C 1147.654 690.975,1194.362 564.000,1199.993 564.000 C 1201.863 564.000,1210.569 582.450,1219.339 605.000 M554.000 2003.896 L 346.000 2006.000 314.710 2021.290 C 240.846 2057.384,195.103 2135.008,201.150 2214.000 C 206.903 2289.146,260.357 2359.804,332.885 2388.132 L 358.000 2397.941 1150.000 2399.114 C 1585.600 2399.759,1967.496 2398.773,1998.657 2396.921 C 2053.074 2393.689,2056.530 2392.955,2086.089 2378.346 C 2139.255 2352.070,2178.899 2303.332,2193.875 2245.834 C 2217.039 2156.900,2170.275 2062.015,2082.791 2020.445 L 2050.000 2004.863 1406.000 2003.328 C 1051.800 2002.483,668.400 2002.739,554.000 2003.896 " fill="#1D1E23" stroke="none" fill-rule="evenodd"/></svg>