<svg viewBox="0 0 2400 2400" fill="none" xmlns="http://www.w3.org/2000/svg"><path d="M1158.000 305.644 C 1114.060 316.549,1072.230 346.208,1048.467 383.306 C 1041.714 393.849,941.325 655.301,818.246 982.897 C 614.444 1525.349,600.003 1565.455,600.039 1588.897 C 600.167 1671.380,688.263 1724.561,762.250 1686.820 C 785.357 1675.034,800.081 1660.256,810.893 1638.000 C 815.168 1629.200,840.854 1559.450,867.972 1483.000 L 917.278 1344.000 1200.096 1344.000 L 1482.913 1344.000 1489.311 1361.000 C 1492.830 1370.350,1515.308 1433.800,1539.262 1502.000 C 1586.415 1636.249,1593.399 1652.548,1610.634 1668.560 C 1682.414 1735.248,1799.810 1685.834,1799.961 1588.869 C 1799.997 1565.389,1785.655 1525.561,1581.741 982.869 C 1459.139 656.580,1358.239 393.807,1351.520 383.306 C 1311.079 320.101,1230.326 287.694,1158.000 305.644 M1305.698 845.003 C 1360.532 1001.751,1406.174 1132.250,1407.126 1135.000 C 1408.495 1138.958,1365.341 1140.000,1200.000 1140.000 C 1034.659 1140.000,991.504 1138.958,992.874 1135.000 C 1117.166 775.733,1194.871 560.000,1199.983 560.003 C 1204.349 560.005,1233.350 638.189,1305.698 845.003 M368.000 2002.651 C 347.315 2005.998,309.269 2021.527,289.052 2034.877 C 234.785 2070.709,200.000 2135.209,200.000 2200.000 C 200.000 2292.011,268.990 2376.768,359.197 2395.580 C 389.211 2401.839,2010.789 2401.839,2040.803 2395.580 C 2115.765 2379.947,2179.947 2315.765,2195.580 2240.803 C 2215.867 2143.519,2163.179 2050.310,2066.000 2011.568 L 2042.000 2002.000 1210.000 2001.517 C 752.400 2001.251,373.500 2001.762,368.000 2002.651 " fill="#1D1E23" stroke="none" fill-rule="evenodd"/></svg>