<svg viewBox="0 0 2400 2400" fill="none" xmlns="http://www.w3.org/2000/svg"><path d="M1072.915 306.943 C 1071.332 310.824,952.949 625.400,809.842 1006.000 L 549.647 1698.000 669.431 1699.060 C 735.312 1699.642,789.829 1699.504,790.581 1698.752 C 791.333 1698.000,820.147 1617.873,854.612 1520.692 L 917.276 1344.000 1200.153 1344.000 L 1483.029 1344.000 1487.403 1355.000 C 1489.808 1361.050,1517.944 1440.567,1549.927 1531.705 C 1581.910 1622.843,1608.687 1698.020,1609.432 1698.765 C 1610.176 1699.510,1664.692 1699.642,1730.577 1699.060 L 1850.368 1698.000 1588.060 1000.000 L 1325.752 302.000 1200.773 300.943 C 1084.540 299.960,1075.591 300.380,1072.915 306.943 M1305.698 845.003 C 1360.532 1001.751,1406.174 1132.250,1407.126 1135.000 C 1408.495 1138.958,1365.341 1140.000,1200.000 1140.000 C 1034.659 1140.000,991.504 1138.958,992.874 1135.000 C 1117.166 775.733,1194.871 560.000,1199.983 560.003 C 1204.349 560.005,1233.350 638.189,1305.698 845.003 M200.000 2200.000 L 200.000 2400.000 1200.000 2400.000 L 2200.000 2400.000 2200.000 2200.000 L 2200.000 2000.000 1200.000 2000.000 L 200.000 2000.000 200.000 2200.000 " fill="#1D1E23" stroke="none" fill-rule="evenodd"/></svg>