<svg viewBox="0 0 2400 2400" fill="none" xmlns="http://www.w3.org/2000/svg"><path d="M1166.000 305.528 C 1123.162 316.632,1076.608 345.149,1058.380 371.451 C 1039.079 399.303,856.619 872.071,686.894 1334.000 C 611.048 1540.426,602.631 1566.321,602.389 1594.000 C 601.710 1671.686,692.305 1720.358,767.067 1682.473 C 800.435 1665.564,810.267 1645.232,879.972 1449.000 L 917.270 1344.000 1200.068 1344.000 L 1482.865 1344.000 1525.881 1465.000 C 1578.526 1613.085,1596.501 1652.958,1619.480 1672.627 C 1639.683 1689.920,1677.812 1702.025,1699.509 1698.034 C 1734.944 1691.515,1768.491 1668.366,1785.855 1638.451 C 1799.814 1614.402,1801.693 1597.338,1793.876 1565.590 C 1781.220 1514.183,1635.026 1118.082,1478.094 710.000 C 1383.223 463.300,1353.132 388.842,1341.131 371.102 C 1335.589 362.908,1319.117 348.151,1304.527 338.308 C 1259.892 308.195,1205.430 295.308,1166.000 305.528 M1235.880 650.892 C 1272.553 750.239,1356.005 988.493,1380.382 1063.444 C 1400.953 1126.692,1401.413 1129.074,1394.069 1134.444 C 1387.844 1138.996,1352.959 1140.000,1200.973 1140.000 C 1080.753 1140.000,1012.751 1138.543,1007.737 1135.859 C 1003.482 1133.582,1000.000 1128.840,1000.000 1125.323 C 1000.000 1111.450,1133.399 729.080,1176.888 618.295 C 1196.824 567.511,1197.309 566.744,1204.146 575.187 C 1207.975 579.915,1222.255 613.982,1235.880 650.892 M529.906 2007.887 L 341.811 2010.000 314.266 2023.566 C 259.803 2050.388,214.358 2110.723,203.209 2171.013 C 188.466 2250.735,238.418 2339.246,322.978 2383.229 L 355.955 2400.382 1192.978 2399.038 C 2137.500 2397.522,2053.149 2400.633,2105.087 2365.403 C 2151.537 2333.896,2179.652 2294.082,2194.295 2239.073 C 2216.018 2157.471,2169.422 2067.603,2081.224 2021.000 L 2049.051 2004.000 1383.525 2004.887 C 1017.486 2005.375,633.358 2006.725,529.906 2007.887 " fill="#1D1E23" stroke="none" fill-rule="evenodd"/></svg>