<svg viewBox="0 0 2400 2400" fill="none" xmlns="http://www.w3.org/2000/svg"><path d="M1081.869 302.709 C 1075.851 303.908,1070.526 312.863,1061.381 337.164 C 732.570 1210.880,552.000 1692.505,552.000 1695.811 C 552.000 1698.636,590.850 1700.000,671.324 1700.000 L 790.649 1700.000 854.022 1522.000 L 917.396 1344.000 1200.307 1344.000 L 1483.217 1344.000 1487.222 1355.000 C 1499.167 1387.809,1605.088 1687.084,1606.849 1693.000 C 1608.774 1699.465,1618.108 1700.000,1728.933 1700.000 L 1848.933 1700.000 1846.623 1691.000 C 1845.352 1686.050,1727.915 1372.212,1585.652 993.582 L 1326.992 305.165 1282.496 302.601 C 1235.458 299.890,1095.642 299.966,1081.869 302.709 M1219.339 605.000 C 1237.266 651.096,1265.968 731.610,1349.455 970.000 C 1398.549 1110.184,1405.954 1134.395,1400.445 1136.719 C 1396.900 1138.214,1306.700 1139.438,1200.000 1139.438 C 1093.300 1139.438,1003.069 1138.214,999.486 1136.719 C 993.879 1134.378,999.872 1114.237,1042.551 992.000 C 1147.654 690.975,1194.362 564.000,1199.993 564.000 C 1201.863 564.000,1210.569 582.450,1219.339 605.000 M200.000 2200.000 L 200.000 2400.000 1200.000 2400.000 L 2200.000 2400.000 2200.000 2200.000 L 2200.000 2000.000 1200.000 2000.000 L 200.000 2000.000 200.000 2200.000 " fill="#1D1E23" stroke="none" fill-rule="evenodd"/></svg>