<svg viewBox="0 0 2400 2400" fill="none" xmlns="http://www.w3.org/2000/svg"><path d="M756.000 403.657 C 604.032 405.969,601.766 406.125,584.301 415.438 C 558.518 429.186,525.280 464.306,512.856 490.927 C 503.619 510.719,502.107 519.119,502.226 550.000 C 502.343 580.252,504.047 589.652,512.903 608.872 C 527.749 641.097,555.506 669.199,589.080 685.995 L 617.075 700.000 832.537 700.000 L 1048.000 700.000 1048.071 1211.000 C 1048.111 1499.646,1049.771 1737.481,1051.885 1757.578 C 1058.268 1818.260,1087.517 1861.826,1138.087 1885.974 C 1159.358 1896.131,1166.279 1897.383,1200.725 1897.300 C 1234.444 1897.220,1242.266 1895.830,1261.240 1886.547 C 1273.224 1880.684,1292.086 1866.971,1303.156 1856.075 C 1331.806 1827.873,1343.737 1801.187,1348.166 1755.399 C 1350.155 1734.830,1351.832 1488.950,1351.892 1209.000 L 1352.000 700.000 1567.463 700.000 L 1782.925 700.000 1810.920 685.995 C 1844.480 669.205,1872.235 641.114,1887.117 608.872 C 1896.051 589.518,1897.675 580.463,1897.675 550.000 C 1897.675 519.458,1896.060 510.502,1887.025 490.927 C 1873.653 461.955,1840.859 428.796,1812.000 415.067 L 1790.000 404.600 1350.000 402.957 C 1108.000 402.053,840.700 402.368,756.000 403.657 " fill="#1D1E23" stroke="none" fill-rule="evenodd"/></svg>