<svg viewBox="0 0 2400 2400" fill="none" xmlns="http://www.w3.org/2000/svg"><path d="M624.000 407.723 C 607.500 409.042,588.535 413.091,581.856 416.721 C 561.694 427.678,524.500 468.181,512.981 491.725 C 503.535 511.032,502.179 518.534,502.367 550.442 C 502.556 582.304,504.061 590.054,514.032 610.512 C 528.199 639.576,558.577 669.875,590.719 687.000 L 615.120 700.000 831.346 700.000 L 1047.573 700.000 1049.032 1233.000 C 1050.611 1809.798,1049.465 1779.955,1071.702 1823.453 C 1083.755 1847.028,1110.066 1871.797,1137.142 1885.054 C 1157.001 1894.778,1163.994 1896.000,1199.792 1896.000 C 1247.152 1896.000,1264.279 1889.760,1296.545 1860.750 C 1321.579 1838.243,1334.083 1818.870,1342.859 1788.998 C 1349.019 1768.030,1349.741 1718.961,1351.033 1233.000 L 1352.451 700.000 1568.666 700.000 L 1784.880 700.000 1809.281 687.000 C 1841.305 669.938,1871.789 639.601,1885.805 610.845 C 1895.749 590.442,1897.091 583.209,1897.091 550.000 C 1897.091 517.402,1895.667 509.401,1886.552 490.771 C 1873.823 464.753,1837.284 428.839,1808.917 414.465 L 1788.266 404.000 1221.133 404.662 C 909.210 405.027,640.500 406.404,624.000 407.723 " fill="#1D1E23" stroke="none" fill-rule="evenodd"/></svg>