<svg viewBox="0 0 2400 2400" fill="none" xmlns="http://www.w3.org/2000/svg"><path d="M852.000 408.167 C 675.420 409.959,597.655 412.108,587.204 415.484 C 577.298 418.684,563.785 429.711,546.320 448.847 C 510.377 488.229,506.388 497.630,504.686 546.986 C 503.441 583.100,504.347 590.190,512.309 606.637 C 524.028 630.847,564.056 671.390,592.000 687.356 L 614.000 699.925 830.599 699.962 L 1047.197 700.000 1049.120 1223.000 C 1050.440 1582.042,1052.450 1754.520,1055.530 1773.176 C 1057.998 1788.123,1063.810 1807.788,1068.446 1816.875 C 1080.607 1840.711,1114.358 1872.688,1141.194 1885.798 C 1163.273 1896.584,1166.364 1897.028,1205.433 1895.034 C 1237.159 1893.415,1250.475 1890.900,1264.087 1883.956 C 1289.452 1871.015,1321.272 1836.524,1336.637 1805.313 L 1349.929 1778.313 1351.418 1239.156 L 1352.907 700.000 1569.454 699.962 L 1786.000 699.925 1807.935 687.348 C 1835.112 671.764,1871.879 635.495,1884.501 611.819 C 1892.844 596.168,1894.000 588.646,1894.000 550.000 C 1894.000 514.540,1892.544 503.328,1886.500 492.232 C 1875.057 471.225,1840.708 436.528,1814.380 419.383 L 1790.760 404.000 1446.380 404.814 C 1256.971 405.262,989.500 406.771,852.000 408.167 " fill="#1D1E23" stroke="none" fill-rule="evenodd"/></svg>