<svg viewBox="0 0 2400 2400" fill="none" xmlns="http://www.w3.org/2000/svg"><path d="M614.984 404.309 C 572.445 414.429,534.295 446.166,514.378 488.000 C 503.383 511.094,502.000 518.023,502.000 550.000 C 502.000 581.977,503.383 588.906,514.378 612.000 C 530.110 645.044,554.956 669.890,588.000 685.622 L 614.000 698.000 831.000 699.131 L 1048.000 700.263 1048.000 1225.397 C 1048.000 1587.142,1049.356 1757.865,1052.358 1774.105 C 1061.456 1823.320,1091.730 1863.663,1135.573 1884.998 C 1159.763 1896.770,1165.216 1897.846,1200.000 1897.723 C 1232.204 1897.609,1241.355 1896.026,1260.000 1887.345 C 1305.748 1866.044,1338.605 1823.655,1347.652 1774.265 C 1350.640 1757.955,1352.000 1586.268,1352.000 1225.397 L 1352.000 700.263 1569.000 699.131 L 1786.000 698.000 1812.000 685.622 C 1845.044 669.890,1869.890 645.044,1885.622 612.000 C 1896.617 588.906,1898.000 581.977,1898.000 550.000 C 1898.000 517.964,1896.631 511.137,1885.566 488.000 C 1869.825 455.085,1845.164 430.446,1812.000 414.501 L 1786.000 402.000 1208.000 401.368 C 880.151 401.010,623.501 402.283,614.984 404.309 " fill="#1D1E23" stroke="none" fill-rule="evenodd"/></svg>