<svg viewBox="0 0 2400 2400" fill="none" xmlns="http://www.w3.org/2000/svg"><path d="M738.000 407.837 C 572.432 410.324,583.456 407.906,544.657 450.248 C 509.315 488.818,502.518 505.086,502.731 550.593 C 502.880 582.308,504.428 590.794,513.422 609.177 C 526.269 635.434,566.509 675.056,594.985 689.486 L 615.734 700.000 831.867 700.000 L 1048.000 700.000 1048.203 1141.000 C 1048.315 1383.550,1049.875 1628.040,1051.670 1684.311 C 1054.849 1783.982,1055.218 1787.256,1065.963 1811.201 C 1079.463 1841.283,1110.758 1872.212,1142.314 1886.658 C 1162.682 1895.983,1168.231 1896.737,1205.324 1895.225 C 1236.652 1893.948,1249.725 1891.622,1262.209 1885.106 C 1290.599 1870.286,1318.753 1841.516,1332.813 1812.955 L 1345.870 1786.432 1348.602 1684.216 C 1350.105 1627.997,1351.484 1383.550,1351.667 1141.000 L 1352.000 700.000 1568.133 700.000 L 1784.266 700.000 1805.015 689.486 C 1833.718 674.941,1873.811 635.399,1886.017 609.597 C 1899.854 580.349,1900.475 521.434,1887.244 493.286 C 1875.965 469.291,1840.058 432.728,1812.000 416.668 L 1790.000 404.075 1336.000 404.874 C 1086.300 405.314,817.200 406.647,738.000 407.837 " fill="#1D1E23" stroke="none" fill-rule="evenodd"/></svg>