<svg viewBox="0 0 2400 2400" fill="none" xmlns="http://www.w3.org/2000/svg"><path d="M698.000 303.537 C 661.439 313.137,628.985 339.048,613.160 371.274 L 602.000 394.000 602.000 784.000 C 602.000 1217.805,600.515 1191.752,630.485 1283.651 C 661.756 1379.536,704.353 1448.486,777.893 1522.258 C 865.147 1609.786,964.335 1663.151,1090.000 1690.177 C 1139.597 1700.844,1269.686 1700.042,1318.000 1688.772 C 1426.847 1663.381,1502.491 1625.052,1583.660 1554.157 C 1681.750 1468.483,1743.724 1367.896,1780.165 1235.216 C 1791.440 1194.162,1792.937 1181.625,1796.433 1099.022 C 1798.550 1048.984,1799.769 869.884,1799.141 701.022 L 1798.000 394.000 1788.169 374.169 C 1775.693 349.003,1753.825 327.087,1728.270 314.137 C 1702.237 300.945,1651.579 299.827,1625.072 311.860 C 1599.195 323.607,1570.504 352.778,1558.977 379.063 L 1548.917 402.000 1546.660 781.765 L 1544.403 1161.529 1531.327 1201.455 C 1491.544 1322.922,1405.520 1404.995,1282.000 1439.329 C 1243.824 1449.941,1147.389 1448.607,1106.791 1436.905 C 1034.564 1416.087,977.367 1377.984,930.527 1319.482 C 895.938 1276.281,865.596 1215.607,859.774 1178.000 C 857.017 1160.193,854.668 1013.852,853.322 776.000 L 851.205 402.000 840.982 378.834 C 828.324 350.151,796.278 319.573,769.211 310.350 C 745.775 302.365,714.030 299.327,698.000 303.537 M626.000 1904.113 C 588.600 1905.528,557.510 1906.981,556.911 1907.343 C 556.311 1907.704,547.610 1915.569,537.573 1924.820 C 503.284 1956.427,491.661 1997.995,507.256 2033.251 C 518.214 2058.023,534.707 2079.126,548.807 2086.417 C 555.131 2089.687,578.686 2094.021,601.152 2096.047 C 654.481 2100.856,1745.519 2100.856,1798.848 2096.047 C 1821.314 2094.021,1844.971 2089.635,1851.420 2086.300 C 1868.336 2077.552,1891.123 2044.408,1896.633 2020.537 C 1902.994 1992.983,1896.431 1965.109,1877.519 1939.345 C 1856.381 1910.550,1848.443 1907.755,1776.451 1903.765 C 1705.920 1899.857,730.738 1900.151,626.000 1904.113 " fill="#1D1E23" stroke="none" fill-rule="evenodd"/></svg>