<svg viewBox="0 0 2400 2400" fill="none" xmlns="http://www.w3.org/2000/svg"><path d="M674.000 313.194 C 648.183 325.586,623.000 351.070,609.693 378.270 L 599.135 399.848 601.145 784.924 C 602.530 1050.312,604.609 1179.126,607.835 1199.360 C 619.433 1272.108,668.083 1387.371,711.937 1446.000 C 741.692 1485.780,803.529 1548.667,841.391 1577.655 C 931.187 1646.403,1039.645 1688.490,1146.000 1695.860 C 1337.032 1709.098,1486.898 1653.184,1619.060 1519.364 C 1696.261 1441.194,1744.575 1356.956,1777.631 1242.885 C 1796.126 1179.064,1796.740 1165.447,1798.827 772.868 L 1800.810 399.736 1790.228 378.108 C 1775.447 347.896,1741.711 317.884,1713.224 309.602 C 1685.340 301.496,1643.947 303.527,1622.000 314.077 C 1599.066 325.102,1569.020 356.685,1558.284 381.053 L 1549.055 402.000 1546.100 783.514 L 1543.145 1165.027 1532.151 1197.514 C 1491.279 1318.278,1416.811 1393.441,1297.173 1434.687 C 1268.527 1444.563,1260.973 1445.430,1204.000 1445.371 C 1128.203 1445.294,1101.860 1439.680,1044.677 1411.418 C 974.423 1376.695,917.968 1315.985,879.401 1233.685 C 865.190 1203.361,862.677 1193.682,859.862 1158.442 C 858.085 1136.199,855.405 956.900,853.905 760.000 L 851.179 402.000 842.088 382.000 C 829.588 354.500,808.884 331.932,783.435 318.066 C 765.521 308.306,756.415 306.158,728.000 304.991 C 698.584 303.783,691.304 304.889,674.000 313.194 M736.487 1903.801 L 554.975 1906.000 533.655 1929.463 C 498.694 1967.938,492.334 2001.375,512.177 2042.365 C 525.072 2069.002,544.057 2086.351,566.758 2092.242 C 590.991 2098.530,1661.105 2102.560,1766.612 2096.761 C 1846.998 2092.342,1856.958 2088.922,1877.553 2058.666 C 1904.760 2018.697,1905.187 1981.280,1878.889 1941.577 C 1856.141 1907.234,1854.423 1906.919,1672.000 1903.559 C 1495.747 1900.314,1014.145 1900.438,736.487 1903.801 " fill="#1D1E23" stroke="none" fill-rule="evenodd"/></svg>