<svg viewBox="0 0 2400 2400" fill="none" xmlns="http://www.w3.org/2000/svg"><path d="M685.330 307.144 C 647.294 320.767,618.653 349.906,606.074 387.777 C 600.379 404.922,599.829 448.226,600.930 792.488 C 602.152 1174.323,602.249 1178.375,611.066 1217.362 C 624.494 1276.739,641.873 1324.833,668.355 1375.906 C 751.852 1536.935,899.428 1648.333,1082.966 1688.874 C 1135.719 1700.527,1255.734 1701.487,1309.496 1690.687 C 1429.655 1666.548,1525.985 1614.585,1614.274 1526.282 C 1705.038 1435.503,1758.247 1336.496,1788.553 1202.000 C 1797.499 1162.299,1797.577 1159.170,1798.953 783.604 C 1800.327 408.680,1800.264 405.005,1792.037 383.016 C 1781.011 353.547,1757.034 327.061,1728.858 313.225 C 1709.481 303.709,1701.127 302.020,1674.000 302.130 C 1645.407 302.246,1639.319 303.700,1616.818 315.784 C 1589.472 330.471,1572.816 348.564,1558.916 378.682 L 1550.000 398.000 1547.798 778.000 C 1546.587 987.000,1544.168 1162.500,1542.423 1168.000 C 1540.679 1173.500,1535.568 1189.700,1531.066 1204.000 C 1463.618 1418.247,1220.966 1513.399,1024.085 1402.804 C 966.596 1370.510,904.810 1299.413,876.828 1233.356 C 853.179 1177.526,854.398 1199.768,852.106 782.000 L 850.000 398.000 841.084 378.682 C 827.283 348.779,810.559 330.478,784.186 316.422 C 752.751 299.667,715.869 296.206,685.330 307.144 M564.342 1906.868 C 529.056 1919.332,500.000 1961.388,500.000 2000.000 C 500.000 2024.160,511.933 2052.144,529.895 2070.105 C 562.127 2102.338,509.722 2100.000,1200.000 2100.000 C 1890.278 2100.000,1837.873 2102.338,1870.105 2070.105 C 1909.232 2030.979,1909.232 1969.021,1870.105 1929.895 C 1837.850 1897.639,1890.586 1899.961,1198.287 1900.316 C 650.824 1900.596,580.028 1901.328,564.342 1906.868 " fill="#1D1E23" stroke="none" fill-rule="evenodd"/></svg>