<svg viewBox="0 0 2400 2400" fill="none" xmlns="http://www.w3.org/2000/svg"><path d="M601.285 727.000 C 602.836 983.093,605.558 1168.409,608.088 1190.000 C 615.534 1253.562,657.728 1362.280,699.853 1426.445 C 734.601 1479.374,811.614 1556.125,872.848 1598.853 C 920.658 1632.214,988.517 1662.738,1059.267 1682.706 C 1107.304 1696.264,1241.554 1700.515,1300.000 1690.328 C 1371.421 1677.881,1463.606 1641.018,1522.671 1601.286 C 1610.677 1542.088,1690.905 1453.529,1734.014 1368.000 C 1755.316 1325.735,1778.162 1263.254,1785.996 1225.837 C 1795.032 1182.673,1799.573 975.358,1799.813 595.000 L 1800.000 300.000 1674.503 300.000 L 1549.006 300.000 1546.183 621.000 C 1544.630 797.550,1541.938 998.700,1540.200 1068.000 L 1537.040 1194.000 1524.559 1223.326 C 1496.666 1288.869,1441.335 1357.215,1388.542 1391.336 C 1374.624 1400.332,1344.058 1415.375,1320.618 1424.766 L 1278.000 1441.840 1209.365 1443.245 C 1134.504 1444.777,1112.602 1441.406,1066.265 1421.217 C 1002.365 1393.376,952.960 1350.329,908.072 1283.380 C 874.848 1233.830,867.743 1212.457,863.733 1150.000 C 860.632 1101.717,851.955 524.781,851.986 369.000 L 852.000 300.000 725.350 300.000 L 598.700 300.000 601.285 727.000 M500.000 2000.000 L 500.000 2100.000 1200.000 2100.000 L 1900.000 2100.000 1900.000 2000.000 L 1900.000 1900.000 1200.000 1900.000 L 500.000 1900.000 500.000 2000.000 " fill="#1D1E23" stroke="none" fill-rule="evenodd"/></svg>