<svg viewBox="0 0 2400 2400" fill="none" xmlns="http://www.w3.org/2000/svg"><path d="M601.217 733.000 C 602.676 1016.369,604.983 1177.058,607.891 1198.000 C 618.157 1271.929,665.079 1382.209,714.059 1447.527 C 810.014 1575.485,938.749 1658.631,1088.948 1689.656 C 1131.538 1698.453,1268.062 1698.497,1311.169 1689.728 C 1353.057 1681.206,1414.910 1660.262,1456.000 1640.686 C 1572.885 1585.000,1683.729 1474.881,1739.875 1358.670 C 1761.662 1313.575,1786.730 1236.368,1792.042 1198.000 C 1794.929 1177.152,1797.273 1015.104,1798.768 733.000 L 1801.064 300.000 1674.532 300.000 L 1548.000 300.000 1547.789 485.000 C 1547.673 586.750,1546.086 784.300,1544.263 924.000 L 1540.947 1178.000 1530.186 1209.941 C 1511.415 1265.657,1471.057 1325.390,1426.000 1364.145 C 1396.896 1389.179,1369.337 1405.852,1331.459 1421.342 C 1279.825 1442.457,1260.304 1446.005,1196.000 1445.958 C 1127.847 1445.908,1107.065 1441.172,1045.270 1411.608 C 1011.282 1395.348,998.513 1386.386,968.136 1357.479 C 927.242 1318.563,891.556 1268.553,874.265 1225.931 C 858.220 1186.377,857.058 1156.455,853.673 695.388 L 850.770 300.000 724.878 300.000 L 598.986 300.000 601.217 733.000 M500.000 2000.000 L 500.000 2100.000 1200.000 2100.000 L 1900.000 2100.000 1900.000 2000.000 L 1900.000 1900.000 1200.000 1900.000 L 500.000 1900.000 500.000 2000.000 " fill="#1D1E23" stroke="none" fill-rule="evenodd"/></svg>