<svg viewBox="0 0 2400 2400" fill="none" xmlns="http://www.w3.org/2000/svg"><path d="M600.930 739.000 C 602.123 1176.529,602.157 1178.132,611.047 1217.362 C 624.522 1276.822,641.895 1324.877,668.362 1375.906 C 751.640 1536.466,899.898 1648.410,1082.638 1688.713 C 1139.686 1701.295,1260.314 1701.295,1317.362 1688.713 C 1500.081 1648.415,1648.420 1536.411,1731.645 1375.906 C 1758.108 1324.870,1775.481 1276.808,1788.953 1217.362 C 1797.843 1178.132,1797.877 1176.529,1799.070 739.000 L 1800.268 300.000 1674.220 300.000 L 1548.173 300.000 1547.048 733.000 C 1545.788 1218.240,1548.134 1179.686,1515.738 1247.714 C 1494.979 1291.306,1471.160 1324.384,1438.591 1354.852 C 1320.153 1465.645,1139.530 1481.032,1007.300 1391.593 C 952.775 1354.713,913.148 1308.374,884.262 1247.714 C 851.866 1179.686,854.212 1218.240,852.952 733.000 L 851.827 300.000 725.780 300.000 L 599.732 300.000 600.930 739.000 M500.000 2000.000 L 500.000 2100.000 1200.000 2100.000 L 1900.000 2100.000 1900.000 2000.000 L 1900.000 1900.000 1200.000 1900.000 L 500.000 1900.000 500.000 2000.000 " fill="#1D1E23" stroke="none" fill-rule="evenodd"/></svg>