<svg xmlns="http://www.w3.org/2000/svg" width="1200" height="1200" fill="none"><path fill="#1D1E23" d="M300 1050V850H100V550q0-63.75 43.75-106.875T250 400h700q63.75 0 106.875 43.125T1100 550v37.5c-22.5-11.665-46.04-20.835-70.625-27.5s-49.79-10-75.625-10q-97.501.001-176.875 55-79.372 54.999-114.375 145H400v200h255c5.835 18.335 12.915 35.835 21.25 52.5q12.503 24.999 30 47.5zm0-700V150h600v200z"/><path fill="#1D1E23" d="m975 912.26-130.42 130.42q-7.32 7.32-18.63 7.32t-18.63-7.32-7.32-18.63 7.32-18.63L937.74 875 807.32 744.58q-7.32-7.32-7.32-18.63t7.32-18.63 18.63-7.32 18.63 7.32L975 837.74l130.42-130.42q7.32-7.32 18.63-7.32t18.63 7.32 7.32 18.63-7.32 18.63L1012.26 875l130.42 130.42q7.32 7.32 7.32 18.63t-7.32 18.63-18.63 7.32-18.63-7.32z"/></svg>