<svg xmlns="http://www.w3.org/2000/svg" width="1200" height="1200" fill="none"><path fill="#000" d="M300 1050V850H100V400h1000v187.5c-15-8.335-30.835-15.415-47.5-21.25q-24.997-8.751-52.5-12.5V500H200v250h100V650h425c-13.335 14.165-25.415 29.585-36.25 46.25S669.165 730.835 662.5 750H400v200h255c5.835 18.335 12.915 35.835 21.25 52.5q12.503 24.999 30 47.5zm500-650V250H400v150H300V150h600v250z"/><path fill="#000" d="M1093.345 706.885c-8.875-8.875-23.21-8.875-32.08 0L950 817.92 838.735 706.655c-8.87-8.875-23.205-8.875-32.08 0s-8.875 23.21 0 32.08L917.92 850 806.655 961.265c-8.875 8.87-8.875 23.205 0 32.08s23.21 8.875 32.08 0L950 882.08l111.265 111.265c8.87 8.875 23.205 8.875 32.08 0s8.875-23.21 0-32.08L982.08 850l111.265-111.265c8.645-8.645 8.645-23.205 0-31.85"/><path stroke="#1D1E23" stroke-width="25" d="M300 1050V850H100V400h1000v187.5c-15-8.335-30.835-15.415-47.5-21.25q-24.997-8.751-52.5-12.5V500H200v250h100V650h425c-13.335 14.165-25.415 29.585-36.25 46.25S669.165 730.835 662.5 750H400v200h255c5.835 18.335 12.915 35.835 21.25 52.5q12.503 24.999 30 47.5zm500-650V250H400v150H300V150h600v250z"/><path stroke="#1D1E23" stroke-width="25" d="M1093.345 706.885c-8.875-8.875-23.21-8.875-32.08 0L950 817.92 838.735 706.655c-8.87-8.875-23.205-8.875-32.08 0s-8.875 23.21 0 32.08L917.92 850 806.655 961.265c-8.875 8.87-8.875 23.205 0 32.08s23.21 8.875 32.08 0L950 882.08l111.265 111.265c8.87 8.875 23.205 8.875 32.08 0s8.875-23.21 0-32.08L982.08 850l111.265-111.265c8.645-8.645 8.645-23.205 0-31.85Z"/></svg>