<svg xmlns="http://www.w3.org/2000/svg" width="1200" height="1200" fill="none" viewBox="0 0 1200 1200"><path fill="#000" d="M969.725 628.855c118.935 3.36 218.095 104.105 221.39 224.565 3.53 130.65-99.975 237.84-227.98 237.84-52.925-.005-101.34-18.21-139.845-49.025l-2.585-2.295c-12.13-11.9-11.965-32.15.045-44.335 11.14-11.265 28.515-12.16 40.82-2.49l.05.05c28 22.38 63.33 35.64 101.515 35.645 92.5 0 167.435-76.815 166.26-171.145-1.19-89.67-75.69-165.095-163.87-166.31C874.6 690.195 800.38 762.65 797.12 853.81h37.645c15.71 0 23.715 17.795 15.235 29.59l-1.905 2.295-68.75 69.97c-7.365 7.44-18.995 7.51-26.365.05l-68.75-70.02.045-.05c-11.68-11.61-3.69-31.815 13.04-31.835h37.99C738.53 731.025 836.36 631.745 957.86 628.855z"/><path fill="#000" fill-rule="evenodd" d="M987.205 753.76c8.16 0 15.205 6.075 16.215 14.26l2.535 19.775a83 83 0 0 1 6.69 3.805l18.8-7.76 2.83-.88c6.78-1.52 13.99 1.4 17.63 7.665L1070.9 822.9c4.08 7.09 2.28 16.215-4.345 21.145L1050.34 856.2c.05 1.255.195 2.51.195 3.76 0 1.23-.175 2.475-.24 3.76l16.16 12.16c6.51 4.975 8.45 13.94 4.345 21.095l-.05.045-18.945 32.23c-4.14 7.19-12.99 10.05-20.505 6.835l-18.8-7.815a83 83 0 0 1-6.64 3.76l-2.49 19.925c-1.03 8.205-8.155 14.205-16.26 14.205h-37.795c-8.095-.01-15.235-6.005-16.26-14.205l-2.535-19.925a82 82 0 0 1-6.595-3.76l-18.845 7.765.045.05c-7.51 3.205-16.365.38-20.505-6.79l-18.945-32.275c-4.08-7.095-2.305-16.27 4.345-21.19l16.115-12.11c-.065-1.235-.15-2.48-.15-3.76 0-1.255.085-2.5.15-3.71l-16.165-12.06-.05-.05c-6.5-4.98-8.365-13.945-4.245-21.095l18.945-32.42c4.145-7.16 13-9.99 20.505-6.785l18.75 7.76c2.135-1.36 4.37-2.585 6.645-3.76l2.535-19.82.685-2.98c2.17-6.69 8.57-11.28 15.725-11.28zM968.65 831.2c-16.165.015-29.185 13.015-29.195 28.76.01 15.76 13.035 28.745 29.195 28.76 16.185 0 29.24-13 29.25-28.76-.01-15.75-13.06-28.76-29.25-28.76"/><path fill="#000" d="M300 1050V850H100V550l.001-106.875L100 400h1000v187.5c-22.5-11.665-46.04-20.835-70.625-27.5s-49.79-10-75.625-10q-97.501.001-176.875 55-79.372 54.999-114.375 145H400v200h255c5.835 18.335 12.915 35.835 21.25 52.5q12.503 24.999 30 47.5zm0-700V150h600v200z"/></svg>