<svg xmlns="http://www.w3.org/2000/svg" width="1200" height="1200" fill="none" viewBox="0 0 1200 1200"><path fill="#000" d="M975.875 643.85c118.935 3.355 218.145 104.1 221.435 224.56 3.515 130.64-99.98 237.84-227.975 237.84-52.91-.01-101.35-18.215-139.845-49.025l-2.59-2.295c-12.115-11.89-11.93-32.145.05-44.335 11.135-11.26 28.515-12.155 40.82-2.49l.05.05c27.99 22.375 63.345 35.635 101.515 35.645 92.49 0 167.42-76.83 166.26-171.145-1.19-89.67-75.695-165.095-163.87-166.305-90.91-1.145-165.145 71.305-168.405 162.45h37.645c15.71 0 23.715 17.795 15.235 29.59l-1.905 2.295-68.75 69.97c-7.37 7.41-19.005 7.5-26.365.05l-68.75-70.02.045-.05c-11.67-11.6-3.665-31.785 13.04-31.835H741.5c3.33-126.725 107.475-228.445 234.375-224.95"/><path fill="#000" fill-rule="evenodd" d="M993.405 768.75c8.16 0 15.205 6.075 16.21 14.26l2.54 19.775c2.295 1.18 4.54 2.435 6.69 3.805l18.8-7.76 2.83-.88c6.775-1.515 13.99 1.4 17.63 7.665l18.995 32.275c4.075 7.09 2.28 16.215-4.35 21.145l-16.21 12.155c.05 1.245.195 2.52.195 3.76 0 1.22-.175 2.485-.245 3.76l16.165 12.16c6.505 4.975 8.45 13.945 4.345 21.095l-.05.045-18.945 32.23c-4.15 7.16-13.005 10.045-20.505 6.835l-18.8-7.815a83 83 0 0 1-6.64 3.76l-2.49 19.925c-1.045 8.19-8.165 14.21-16.26 14.21h-37.795c-8.075-.03-15.225-6.035-16.26-14.21l-2.54-19.925a82 82 0 0 1-6.59-3.76l-18.85 7.765.05.05c-7.5 3.18-16.37.365-20.505-6.79l-18.945-32.275c-4.075-7.085-2.275-16.265 4.345-21.19l16.11-12.11c-.06-1.225-.145-2.49-.145-3.76 0-1.24.085-2.51.145-3.71l-16.16-12.06-.05-.05c-6.485-4.975-8.335-13.955-4.245-21.095l18.945-32.42c4.14-7.15 13.005-9.975 20.505-6.785l18.75 7.76c2.125-1.35 4.38-2.59 6.64-3.76l2.54-19.82.685-2.98c2.165-6.675 8.58-11.265 15.72-11.28zm-18.555 77.44c-16.15.035-29.185 13.025-29.2 28.76.03 15.735 13.07 28.725 29.2 28.76 16.175 0 29.225-13.015 29.25-28.76-.01-15.75-13.06-28.76-29.25-28.76"/><path fill="#000" d="M495.261 761.62c49.329-26.755 105.649-33.26 158.154-19.58C635.19 782.635 625 827.62 625 875c0 21.81 2.15 43.115 6.25 63.72-20.745 16.52-50.2 14.83-69.095-5.175l-78.026-82.57c-24.927-26.4-19.086-71.92 11.132-89.355M292.527 522.215c183.093-139.929 432.038-139.924 614.598 0 10.085 7.59 17.455 17.48 22.315 28.47-63.925 3.99-122.855 26.435-171.485 62.11-120.265-59.295-263.789-47.4-374.657 35.84-30.243 23.025-71.116 20.245-97.119-7.275-32.356-34.275-30.236-91.035 6.348-119.145"/><path fill="#000" d="M77.586 296.827c303.558-262.439 741.934-262.424 1044.969 0 34.495 29.784 36.635 84.86 5.325 118.017-27.065 28.651-70.575 30.919-100.295 5.078-248.37-215.232-608.215-215.262-856.054.538-29.188 25.842-72.155 23.042-99.218-5.616-31.831-33.714-29.205-88.793 5.273-118.017"/></svg>