<svg viewBox="0 0 24 24" fill="none" xmlns="http://www.w3.org/2000/svg"><g><path d="M18 2H3C2.73478 2 2.48043 2.10536 2.29289 2.29289C2.10536 2.48043 2 2.73478 2 3V21C2 21.2652 2.10536 21.5196 2.29289 21.7071C2.48043 21.8946 2.73478 22 3 22H21C21.2652 22 21.5196 21.8946 21.7071 21.7071C21.8946 21.5196 22 21.2652 22 21V6L18 2ZM6 3H10V6.42876C10.0003 6.58038 10.0608 6.72567 10.1681 6.83276C10.2754 6.93986 10.4209 7 10.5725 7H13.5C13.6326 7 13.7598 6.94732 13.8536 6.85355C13.9473 6.75978 14 6.63261 14 6.5V3H16V8C16 8.26522 15.8946 8.51957 15.7071 8.70711C15.5196 8.89464 15.2652 9 15 9H7C6.73478 9 6.48043 8.89464 6.29289 8.70711C6.10536 8.51957 6 8.26522 6 8V3ZM18 20H6V12H18V20Z" fill="#1D1E23"/></g></svg>