<svg xmlns="http://www.w3.org/2000/svg" width="1200" height="1200" fill="none"><path fill="#1D1E23" d="M600 600c110.455 0 200-89.545 200-200 0-110.457-89.545-200-200-200-110.457 0-200 89.543-200 200 0 110.455 89.543 200 200 200M633.5 651c-11-.5-22-1-33.5-1-121 0-234 33.5-330.5 91-44 26-69.5 75-69.5 126.5V950c0 27.615 22.386 50 50 50h413c-39.5-56.5-63-125.5-63-200 0-53.5 12.5-103.5 33.5-149"/><path fill="#1D1E23" d="M825 1000c96.6 0 175-78.4 175-175s-78.4-175-175-175-175 78.4-175 175 78.4 175 175 175m-17.5-262.5h35v105h-35zm0 140h35v35h-35z"/></svg>