<svg xmlns="http://www.w3.org/2000/svg" width="1200" height="1200" fill="none"><path fill="#1D1E23" d="M850 550c17 0 33.5 2 50 4.5V321.685c0-4.971-2.945-9.471-7.505-11.458l-362.5-158.05a12.5 12.5 0 0 0-9.99 0l-362.501 158.05A12.5 12.5 0 0 0 150 321.685V559c0 227 160 439.5 375 491 27.5-6.5 54-16 80-27.5-34.5-49-55-108.5-55-172.5 0-165.5 134.5-300 300-300"/><path fill="#1D1E23" d="M850 650c-110.5 0-200 89.5-200 200s89.5 200 200 200 200-89.5 200-200-89.5-200-200-200m0 69c31 0 56 25.5 56 56s-25.5 56-56 56-56-25.5-56-56 25-56 56-56m0 268.5c-46.5 0-87-23-112-58.5 2.5-36 75.5-54 112-54s109.5 18 112 54c-25 35.5-65.5 58.5-112 58.5"/></svg>