<svg xmlns="http://www.w3.org/2000/svg" width="1200" height="1200" fill="none"><path fill="#1D1E23" d="M950 150H741C720 92 665 50 600 50S480 92 459 150H250c-55 0-100 45-100 100v700c0 55 45 100 100 100h700c55 0 100-45 100-100V250c0-55-45-100-100-100m-350 0c27.5 0 50 22.5 50 50s-22.5 50-50 50-50-22.5-50-50 22.5-50 50-50m0 200c83 0 150 67 150 150s-67 150-150 150-150-67-150-150 67-150 150-150m300 550c0 27.615-22.385 50-50 50H350c-27.614 0-50-22.385-50-50v-20c0-100 200-155 300-155s300 55 300 155z"/></svg>