<svg width="1200" height="1200" viewBox="0 0 1200 1200" fill="none" xmlns="http://www.w3.org/2000/svg"><path d="M600 600C710.455 600 800 510.455 800 400C800 289.543 710.455 200 600 200C489.543 200 400 289.543 400 400C400 510.455 489.543 600 600 600Z" fill="#1D1E23"/><path d="M633.5 651C622.5 650.5 611.5 650 600 650C479 650 366 683.5 269.5 741C225.5 767 200 816 200 867.5V950C200 977.615 222.386 1000 250 1000H663C623.5 943.5 600 874.5 600 800C600 746.5 612.5 696.5 633.5 651Z" fill="#1D1E23"/><path d="M825 1000C921.6 1000 1000 921.6 1000 825C1000 728.4 921.6 650 825 650C728.4 650 650 728.4 650 825C650 921.6 728.4 1000 825 1000ZM807.5 737.5H842.5V842.5H807.5V737.5ZM807.5 877.5H842.5V912.5H807.5V877.5Z" fill="#1D1E23"/></svg>