<svg xmlns="http://www.w3.org/2000/svg" width="1200" height="1200" fill="none" viewBox="0 0 1200 1200"><path fill="#000" d="M550 600c110.455 0 200-89.545 200-200 0-110.457-89.545-200-200-200-110.457 0-200 89.543-200 200 0 110.455 89.543 200 200 200M583.5 651c-11-.5-22-1-33.5-1-121 0-234 33.5-330.5 91-44 26-69.5 75-69.5 126.5V950c0 27.615 22.386 50 50 50h413c-39.5-56.5-63-125.5-63-200 0-53.5 12.5-103.5 33.5-149"/><path fill="#000" d="M849.75 550C711.75 550 600 662 600 800s111.75 250 249.75 250C988 1050 1100 938 1100 800S988 550 849.75 550m.25 450c-110.5 0-200-89.5-200-200s89.5-200 200-200 200 89.5 200 200-89.5 200-200 200"/><path fill="#000" d="M824.035 650h2.005c13.355 0 24.035 9.815 24.035 22.09v139.28l88.03 47.755c11.68 6.135 15.355 19.94 8.345 30.37-6.68 10.435-21.365 13.5-32.715 7.365l-97.375-53.585C806.01 837.755 800 827.63 800 816.89v-144.8c0-12.275 10.685-22.09 24.035-22.09"/></svg>