<svg viewBox="0 0 2400 2400" fill="none" xmlns="http://www.w3.org/2000/svg"><path d="M1140.000 408.656 C 1090.001 412.562,1029.116 436.231,974.000 473.188 C 941.427 495.029,888.054 549.484,866.379 582.990 C 845.506 615.256,822.416 669.161,812.213 709.442 C 760.566 913.347,894.258 1133.543,1101.524 1185.950 C 1191.699 1208.750,1280.539 1200.088,1366.475 1160.116 C 1412.434 1138.739,1444.814 1115.666,1484.188 1076.236 C 1537.490 1022.858,1572.589 958.521,1590.692 881.014 C 1601.018 836.803,1600.056 753.297,1588.735 711.253 C 1566.777 629.699,1537.128 577.128,1482.000 522.000 C 1438.185 478.185,1400.343 453.223,1341.151 429.091 C 1293.232 409.554,1221.625 402.280,1140.000 408.656 M1679.543 1239.856 C 1654.494 1257.377,1581.800 1310.927,1518.000 1358.856 L 1402.000 1446.000 1400.789 1486.000 C 1398.986 1545.563,1406.617 1641.414,1416.008 1677.161 C 1451.782 1813.333,1558.192 1935.432,1684.682 1985.449 C 1717.538 1998.441,1732.343 1998.647,1765.602 1986.575 C 1857.899 1953.073,1955.012 1865.107,2001.651 1772.759 C 2038.369 1700.057,2056.000 1612.908,2056.000 1504.116 C 2056.000 1452.649,2056.704 1453.863,2000.626 1408.634 C 1926.878 1349.153,1735.262 1208.000,1728.264 1208.000 C 1726.516 1208.000,1704.591 1222.335,1679.543 1239.856 M1124.000 1304.171 C 938.569 1318.311,773.286 1363.260,617.558 1441.900 C 515.724 1493.324,465.830 1536.748,433.603 1602.000 C 408.657 1652.511,404.171 1678.102,401.353 1786.000 C 397.804 1921.842,405.617 1956.420,445.889 1983.095 L 463.949 1995.057 632.974 1997.839 C 832.421 2001.120,1310.096 1999.243,1314.174 1995.161 C 1315.734 1993.600,1303.487 1965.700,1286.959 1933.161 C 1252.153 1864.642,1239.885 1832.259,1223.790 1766.427 C 1206.471 1695.588,1201.597 1631.502,1207.285 1549.445 C 1212.339 1476.554,1219.465 1439.119,1241.696 1368.674 C 1249.563 1343.744,1256.000 1318.994,1256.000 1313.674 C 1256.000 1304.964,1254.306 1303.997,1239.000 1303.972 C 1229.650 1303.956,1210.300 1303.205,1196.000 1302.303 C 1181.700 1301.402,1149.300 1302.242,1124.000 1304.171 " fill="#1D1E23" stroke="none" fill-rule="evenodd"/></svg>