<svg viewBox="0 0 2400 2400" fill="none" xmlns="http://www.w3.org/2000/svg"><path d="M1143.256 404.030 C 1084.263 413.415,1022.127 437.959,973.129 471.233 C 895.490 523.957,839.422 603.687,813.020 698.911 C 803.383 733.667,802.182 744.873,802.182 800.000 C 802.182 855.349,803.362 866.260,813.184 901.706 C 847.518 1025.614,935.676 1125.213,1052.000 1171.512 C 1233.371 1243.702,1446.205 1170.991,1544.371 1003.302 C 1650.291 822.368,1598.484 587.773,1426.871 471.233 C 1391.681 447.336,1334.311 421.411,1295.826 412.015 C 1257.150 402.572,1178.349 398.448,1143.256 404.030 M1561.652 1324.657 C 1476.044 1388.818,1404.678 1443.268,1403.061 1445.657 C 1398.628 1452.208,1399.419 1581.575,1404.121 1619.075 C 1418.721 1735.514,1483.144 1850.760,1574.000 1922.973 C 1608.399 1950.313,1670.998 1983.997,1706.695 1994.374 C 1728.364 2000.674,1729.232 2000.600,1759.364 1989.922 C 1897.041 1941.129,2001.883 1822.790,2040.325 1672.792 C 2053.532 1621.260,2061.492 1474.965,2052.391 1451.029 C 2047.183 1437.330,1740.403 1208.000,1727.286 1208.000 C 1720.430 1208.000,1668.563 1244.530,1561.652 1324.657 M1100.583 1304.316 C 943.324 1316.380,785.976 1358.662,641.944 1427.560 C 518.775 1486.478,468.256 1527.593,434.503 1596.386 C 404.417 1657.704,402.960 1666.419,401.000 1796.874 C 398.999 1930.030,400.836 1941.047,429.895 1970.105 C 461.685 2001.896,433.259 2000.166,904.997 1999.019 L 1323.818 1998.000 1307.732 1972.560 C 1187.225 1781.972,1167.239 1539.806,1254.737 1330.419 C 1262.636 1311.516,1263.540 1306.171,1259.295 1303.480 C 1252.893 1299.421,1157.872 1299.921,1100.583 1304.316 " fill="#1D1E23" stroke="none" fill-rule="evenodd"/></svg>