<svg viewBox="0 0 2400 2400" fill="none" xmlns="http://www.w3.org/2000/svg"><path d="M1309.014 156.227 C 1285.454 160.875,1244.298 181.171,1220.853 199.703 C 1198.978 216.994,1172.398 256.107,1162.042 286.245 C 1146.725 330.816,1150.384 393.980,1170.717 436.000 C 1184.811 465.129,1234.905 515.212,1264.000 529.263 C 1375.486 583.105,1510.216 519.380,1541.875 397.834 C 1559.580 329.862,1541.233 264.412,1490.318 213.913 C 1440.368 164.370,1374.299 143.349,1309.014 156.227 M1144.000 607.718 C 1121.917 611.813,1006.658 658.013,824.000 735.984 C 674.114 799.966,618.065 826.599,606.634 839.272 C 599.653 847.012,599.347 857.309,600.770 1036.719 C 602.046 1197.461,603.215 1228.111,608.525 1240.000 C 616.114 1256.993,643.595 1282.516,663.442 1291.003 C 684.388 1299.962,722.646 1298.894,742.434 1288.799 C 763.373 1278.117,786.243 1252.573,792.139 1233.283 C 794.964 1224.040,798.009 1166.977,799.843 1088.895 C 801.511 1017.888,803.579 959.190,804.438 958.457 C 807.447 955.888,954.113 901.158,965.205 898.465 C 976.292 895.773,976.382 895.904,973.710 910.872 C 969.324 935.448,908.916 1243.637,844.123 1572.000 C 774.781 1923.420,729.522 2158.604,725.717 2187.291 C 718.395 2242.484,769.857 2300.000,826.563 2300.000 C 833.788 2300.000,849.499 2296.334,861.477 2291.852 C 892.697 2280.171,912.340 2257.459,923.825 2219.764 C 936.034 2179.691,972.087 2026.154,1036.260 1740.933 C 1065.597 1610.547,1091.032 1504.347,1092.783 1504.933 C 1094.534 1505.520,1141.719 1549.626,1197.637 1602.948 L 1299.308 1699.895 1301.031 1960.948 C 1302.248 2145.178,1304.134 2226.281,1307.441 2236.549 C 1312.519 2252.316,1339.030 2279.156,1360.481 2290.249 C 1375.813 2298.177,1419.415 2299.492,1436.969 2292.556 C 1452.997 2286.223,1482.161 2257.954,1490.247 2240.914 C 1496.702 2227.312,1497.409 2199.583,1499.194 1890.092 L 1501.133 1554.038 1395.862 1451.640 L 1290.590 1349.241 1307.625 1263.621 C 1339.126 1105.286,1349.198 1060.000,1352.913 1060.000 C 1354.945 1060.000,1373.121 1075.240,1393.304 1093.867 C 1507.264 1199.042,1617.504 1256.010,1764.766 1285.828 C 1821.450 1297.305,1832.905 1295.988,1860.681 1274.803 C 1908.228 1238.538,1910.840 1167.907,1866.088 1128.614 C 1845.879 1110.870,1821.871 1099.688,1762.000 1080.135 C 1643.335 1041.379,1568.570 990.795,1502.523 904.579 C 1493.009 892.161,1457.594 838.800,1423.823 786.000 C 1353.782 676.495,1328.110 647.113,1281.151 622.713 C 1253.782 608.492,1249.987 607.637,1207.151 606.051 C 1182.318 605.131,1153.900 605.881,1144.000 607.718 " fill="#1D1E23" stroke="none" fill-rule="evenodd"/></svg>