<svg viewBox="0 0 2400 2400" fill="none" xmlns="http://www.w3.org/2000/svg"><path d="M914.047 156.275 C 882.560 161.537,837.236 186.569,809.725 213.891 C 749.596 273.607,735.181 367.967,775.007 441.140 C 788.871 466.613,833.362 511.116,858.812 524.968 C 999.818 601.712,1176.741 468.878,1143.536 311.197 C 1127.895 236.923,1053.684 168.229,976.000 156.115 C 946.798 151.561,942.186 151.573,914.047 156.275 M752.000 612.037 C 705.831 623.514,363.253 760.872,256.000 810.909 C 205.846 834.308,206.926 832.267,202.860 911.256 C 199.316 980.093,201.942 1207.247,206.567 1231.910 C 209.571 1247.933,246.541 1286.274,263.620 1291.079 C 269.329 1292.686,287.773 1293.917,304.607 1293.816 C 331.662 1293.653,337.146 1292.294,351.853 1282.102 C 373.775 1266.910,386.696 1251.109,392.107 1232.876 C 394.668 1224.247,397.493 1164.772,398.835 1091.260 L 401.147 964.520 478.105 932.260 C 520.432 914.517,558.132 900.000,561.883 900.000 C 567.674 900.000,568.286 902.565,565.935 917.000 C 561.635 943.406,513.359 1195.955,447.993 1534.000 C 369.904 1937.836,338.016 2107.631,329.557 2164.637 C 322.915 2209.397,322.929 2212.042,329.918 2230.343 C 339.159 2254.540,365.224 2280.751,389.121 2289.877 C 414.502 2299.570,452.283 2296.993,478.401 2283.788 C 515.479 2265.042,519.705 2250.623,620.180 1800.000 C 655.744 1640.500,685.369 1509.433,686.015 1508.739 C 687.911 1506.702,739.353 1552.016,822.443 1628.917 L 900.000 1700.696 900.000 1885.703 C 900.000 1987.457,901.196 2109.103,902.657 2156.028 L 905.314 2241.346 929.022 2264.688 C 942.061 2277.527,957.515 2289.374,963.365 2291.015 C 969.214 2292.657,988.740 2293.938,1006.755 2293.862 C 1039.172 2293.726,1039.709 2293.556,1058.755 2277.433 C 1090.464 2250.590,1092.409 2244.957,1096.245 2168.883 C 1098.100 2132.098,1099.703 1976.913,1099.809 1824.028 L 1100.000 1546.057 997.371 1443.371 L 894.742 1340.684 903.636 1295.342 C 917.960 1222.326,952.350 1062.670,954.505 1059.182 C 957.690 1054.029,967.023 1060.790,1022.000 1108.084 C 1099.502 1174.755,1120.414 1189.369,1184.000 1221.298 C 1264.976 1261.958,1360.139 1292.000,1407.960 1292.000 C 1453.779 1292.000,1496.000 1249.618,1496.000 1203.623 C 1496.000 1141.480,1468.182 1115.814,1360.000 1078.145 C 1297.027 1056.218,1226.803 1020.118,1189.337 990.412 C 1142.349 953.155,1112.706 916.277,1027.676 789.294 C 986.168 727.305,943.172 667.553,932.130 656.510 C 900.291 624.672,847.235 603.574,800.803 604.290 C 790.461 604.449,768.500 607.935,752.000 612.037 M1607.955 1427.382 C 1598.080 1433.763,1550.850 1478.532,1503.000 1526.869 C 1429.849 1600.764,1415.998 1616.604,1415.985 1626.377 C 1415.973 1636.240,1430.670 1652.639,1513.065 1734.693 C 1608.298 1829.531,1626.032 1843.568,1636.897 1832.703 C 1643.573 1826.027,1647.500 1794.323,1647.762 1745.000 L 1648.000 1700.000 1887.000 1699.905 C 2018.450 1699.852,2132.970 1698.192,2141.489 1696.216 C 2167.717 1690.130,2200.000 1650.286,2200.000 1624.000 C 2200.000 1609.754,2185.685 1583.018,2169.267 1566.601 L 2154.667 1552.000 1915.833 1552.000 C 1784.475 1552.000,1671.565 1550.913,1664.923 1549.585 L 1652.846 1547.169 1649.992 1496.585 C 1646.930 1442.308,1641.604 1418.788,1631.955 1416.939 C 1628.631 1416.303,1617.831 1421.002,1607.955 1427.382 M1961.765 1841.677 C 1954.748 1846.807,1953.863 1853.554,1952.581 1911.677 L 1951.162 1976.000 1800.581 1976.171 C 1717.761 1976.264,1604.555 1977.896,1549.010 1979.796 C 1433.833 1983.737,1428.794 1985.079,1412.715 2016.092 C 1394.219 2051.763,1408.689 2097.342,1443.640 2113.508 C 1461.620 2121.824,1467.077 2122.026,1707.000 2123.274 L 1952.000 2124.547 1952.226 2177.274 C 1952.488 2238.426,1957.075 2257.425,1972.000 2259.168 C 1980.025 2260.104,1993.848 2249.392,2042.000 2204.921 C 2100.414 2150.971,2174.812 2073.169,2183.487 2056.959 C 2189.727 2045.299,2177.757 2030.693,2089.543 1942.324 C 2019.972 1872.631,1979.615 1836.000,1972.405 1836.000 C 1970.823 1836.000,1966.035 1838.555,1961.765 1841.677 " fill="#1D1E23" stroke="none" fill-rule="evenodd"/></svg>