<svg viewBox="0 0 2400 2400" fill="none" xmlns="http://www.w3.org/2000/svg"><path d="M902.000 157.556 C 877.266 163.585,837.594 184.444,816.469 202.526 C 793.618 222.086,769.231 260.704,759.501 292.740 C 748.438 329.160,750.294 386.516,763.650 420.972 C 782.419 469.395,830.605 517.581,879.028 536.350 C 913.299 549.634,970.871 551.559,1006.780 540.623 C 1090.592 515.097,1147.703 438.536,1147.916 351.421 C 1148.021 308.201,1138.008 273.909,1115.393 240.043 C 1070.557 172.900,981.025 138.291,902.000 157.556 M768.000 604.036 C 733.544 609.959,227.186 816.520,213.378 830.285 C 200.617 843.006,199.200 868.657,200.683 1060.000 C 202.149 1249.229,200.857 1240.244,230.670 1268.559 C 254.277 1290.980,270.308 1297.728,300.000 1297.746 C 330.148 1297.764,348.212 1290.371,370.197 1269.021 C 397.479 1242.524,397.769 1240.792,399.248 1095.240 L 400.578 964.479 485.224 928.508 C 531.779 908.724,570.397 893.064,571.042 893.708 C 572.416 895.083,542.141 1053.811,459.978 1476.000 C 332.142 2132.883,321.678 2190.573,325.611 2216.798 C 333.649 2270.398,393.672 2308.955,449.594 2296.441 C 461.592 2293.755,478.546 2286.389,487.268 2280.070 C 519.473 2256.741,520.373 2253.465,622.347 1788.281 C 656.313 1633.336,685.025 1505.642,686.151 1504.516 C 687.277 1503.390,697.603 1511.498,709.099 1522.534 C 720.595 1533.569,768.167 1578.119,814.815 1621.532 L 899.629 1700.465 900.815 1965.232 C 902.136 2260.367,900.083 2239.509,930.670 2268.559 C 939.102 2276.567,952.300 2286.406,960.000 2290.424 C 978.960 2300.319,1020.758 2300.325,1040.975 2290.437 C 1062.483 2279.917,1086.667 2254.972,1092.537 2237.255 C 1096.382 2225.648,1097.946 2146.908,1099.076 1908.000 C 1099.894 1735.300,1099.382 1582.648,1097.938 1568.773 L 1095.315 1543.545 995.082 1441.700 L 894.850 1339.855 923.804 1194.928 C 939.729 1115.217,953.403 1049.334,954.192 1048.521 C 954.980 1047.707,975.960 1066.048,1000.813 1089.279 C 1075.714 1159.292,1120.231 1192.109,1183.576 1224.006 C 1259.398 1262.187,1358.592 1292.000,1409.805 1292.000 C 1479.228 1292.000,1520.922 1215.787,1486.078 1152.578 C 1465.288 1114.864,1451.092 1106.723,1352.894 1076.197 C 1293.482 1057.728,1253.197 1038.066,1206.242 1004.621 C 1139.125 956.814,1098.962 908.534,1026.041 788.000 C 975.935 705.177,945.283 661.567,926.422 646.267 C 882.218 610.408,822.903 594.596,768.000 604.036 M1593.370 1435.260 C 1557.484 1466.359,1422.703 1603.392,1416.435 1615.151 C 1413.752 1620.184,1412.780 1628.284,1414.275 1633.151 C 1415.770 1638.018,1460.424 1685.504,1513.505 1738.675 C 1643.323 1868.713,1645.174 1869.064,1647.273 1764.038 L 1648.546 1700.339 1897.569 1699.170 L 2146.593 1698.000 2162.804 1687.269 C 2206.743 1658.184,2211.782 1603.253,2173.728 1568.176 C 2164.238 1559.428,2152.316 1551.242,2147.236 1549.985 C 2142.156 1548.727,2028.847 1548.216,1895.438 1548.849 L 1652.875 1550.000 1650.472 1530.000 C 1649.151 1519.000,1648.027 1492.900,1647.976 1472.000 C 1647.814 1406.223,1636.027 1398.292,1593.370 1435.260 M1958.227 1844.890 C 1953.253 1851.991,1952.000 1866.036,1952.000 1914.694 L 1952.000 1975.608 1703.000 1976.804 L 1454.000 1978.000 1436.964 1987.757 C 1416.872 1999.264,1409.537 2009.339,1404.308 2032.611 C 1395.337 2072.537,1416.579 2110.160,1453.315 2119.410 C 1466.022 2122.610,1544.296 2124.000,1711.771 2124.000 L 1952.000 2124.000 1952.000 2185.557 C 1952.000 2239.263,1952.934 2248.267,1959.325 2256.160 C 1973.299 2273.416,1983.593 2265.801,2089.000 2160.231 C 2168.445 2080.662,2188.000 2058.985,2188.000 2050.485 C 2188.000 2042.115,2171.847 2023.422,2111.000 1961.377 C 2024.195 1872.863,1983.363 1836.000,1972.124 1836.000 C 1967.905 1836.000,1961.652 1840.001,1958.227 1844.890 " fill="#1D1E23" stroke="none" fill-rule="evenodd"/></svg>