<svg viewBox="0 0 2400 2400" fill="none" xmlns="http://www.w3.org/2000/svg"><path d="M887.908 161.103 C 804.591 189.512,750.800 263.621,750.800 350.000 C 750.800 404.216,770.514 451.255,809.630 490.370 C 848.745 529.486,895.784 549.200,950.000 549.200 C 1004.216 549.200,1051.255 529.486,1090.370 490.370 C 1165.535 415.205,1169.457 297.674,1099.450 218.288 C 1048.204 160.177,960.309 136.417,887.908 161.103 M756.000 606.034 C 735.275 611.091,259.130 804.134,227.082 820.473 C 199.525 834.523,199.997 830.814,200.022 1032.801 C 200.036 1145.284,201.614 1219.650,204.182 1228.899 C 210.297 1250.915,231.501 1276.239,253.149 1287.380 C 293.162 1307.971,338.975 1301.235,370.014 1270.196 C 398.513 1241.697,400.000 1232.751,400.000 1089.760 L 400.000 964.945 485.000 928.453 C 531.750 908.382,571.008 891.970,572.241 891.980 C 573.474 891.991,518.060 1180.450,449.100 1533.000 C 378.457 1894.157,323.605 2184.103,323.459 2197.142 C 322.262 2304.107,471.361 2339.280,517.509 2242.918 C 524.475 2228.373,551.471 2112.322,606.117 1862.000 C 649.341 1664.000,684.997 1501.707,685.353 1501.349 C 685.709 1500.991,734.150 1545.627,793.000 1600.539 L 900.000 1700.380 900.022 1957.190 C 900.037 2121.760,901.531 2219.351,904.182 2228.899 C 910.297 2250.915,931.501 2276.239,953.149 2287.380 C 993.162 2307.971,1038.975 2301.235,1070.014 2270.196 C 1101.362 2238.849,1100.000 2256.338,1100.000 1885.024 C 1100.000 1652.258,1098.701 1552.908,1095.577 1546.737 C 1093.145 1541.932,1046.956 1493.598,992.936 1439.329 L 894.717 1340.658 923.983 1193.329 C 940.079 1112.298,953.638 1045.479,954.114 1044.843 C 954.591 1044.207,977.260 1065.826,1004.490 1092.886 C 1095.089 1182.916,1192.264 1240.435,1310.000 1273.721 C 1370.266 1290.760,1409.819 1296.114,1432.315 1290.278 C 1458.024 1283.609,1477.240 1268.228,1488.235 1245.515 C 1507.105 1206.535,1501.183 1164.102,1472.291 1131.280 C 1453.103 1109.481,1430.012 1097.882,1381.084 1085.467 C 1295.273 1063.691,1226.617 1027.130,1158.564 966.968 C 1116.684 929.943,1083.172 884.423,1020.918 780.000 C 982.962 716.333,954.995 674.108,941.090 659.473 C 894.693 610.644,822.516 589.805,756.000 606.034 M1512.971 1513.029 C 1426.115 1599.934,1412.000 1615.727,1412.000 1626.000 C 1412.000 1636.273,1426.115 1652.066,1512.971 1738.971 C 1619.287 1845.349,1625.690 1850.022,1641.380 1832.685 C 1646.947 1826.533,1648.000 1815.401,1648.000 1762.685 L 1648.000 1700.000 1893.000 1699.912 C 2122.641 1699.830,2139.003 1699.361,2154.000 1692.440 C 2209.833 1666.671,2215.669 1592.123,2164.424 1559.288 L 2146.000 1547.483 1898.000 1548.524 L 1650.000 1549.566 1648.891 1487.978 C 1647.988 1437.785,1646.578 1425.059,1641.272 1419.195 C 1625.704 1401.993,1619.158 1406.780,1512.971 1513.029 M1958.620 1843.315 C 1953.053 1849.467,1952.000 1860.599,1952.000 1913.315 L 1952.000 1976.000 1705.263 1976.000 C 1462.004 1976.000,1458.279 1976.120,1440.999 1984.485 C 1415.018 1997.062,1402.000 2018.932,1402.000 2050.000 C 1402.000 2081.068,1415.018 2102.938,1440.999 2115.515 C 1458.279 2123.880,1462.004 2124.000,1705.263 2124.000 L 1952.000 2124.000 1952.000 2187.380 C 1952.000 2243.702,1952.815 2251.497,1959.315 2257.380 C 1976.084 2272.556,1981.554 2268.508,2087.529 2162.471 C 2170.683 2079.270,2189.000 2058.967,2189.000 2050.000 C 2189.000 2041.033,2170.683 2020.730,2087.529 1937.529 C 1980.686 1830.624,1974.317 1825.970,1958.620 1843.315 " fill="#1D1E23" stroke="none" fill-rule="evenodd"/></svg>