<svg viewBox="0 0 2400 2400" fill="none" xmlns="http://www.w3.org/2000/svg"><path d="M1138.859 108.093 C 1113.754 112.058,1059.120 135.965,1031.084 155.254 C 991.401 182.557,937.007 248.524,923.595 285.613 L 918.861 298.704 685.209 301.278 L 451.557 303.852 416.750 321.829 C 370.113 345.916,340.725 375.247,318.706 419.681 L 302.000 453.396 300.881 1151.698 C 300.203 1574.277,301.290 1871.169,303.633 1903.612 C 307.102 1951.654,308.847 1959.966,320.421 1983.612 C 338.319 2020.179,381.012 2062.465,417.587 2079.853 C 442.728 2091.806,449.996 2093.263,499.587 2096.288 C 529.514 2098.114,844.700 2099.607,1200.000 2099.607 C 1555.300 2099.607,1870.486 2098.114,1900.413 2096.288 C 1950.004 2093.263,1957.272 2091.806,1982.413 2079.853 C 2019.030 2062.445,2061.679 2020.182,2079.622 1983.525 C 2091.386 1959.492,2092.932 1951.928,2096.385 1901.525 C 2098.632 1868.729,2099.741 1561.095,2099.094 1150.000 L 2098.000 454.000 2083.065 422.721 C 2062.032 378.673,2029.511 345.722,1983.735 322.080 L 1948.443 303.852 1714.791 301.278 L 1481.139 298.704 1476.405 285.613 C 1467.080 259.827,1432.817 213.474,1401.006 183.611 C 1366.924 151.615,1324.501 126.408,1284.000 114.087 C 1257.937 106.159,1173.253 102.661,1138.859 108.093 M1242.726 312.352 C 1300.555 340.346,1313.760 420.650,1268.543 469.357 C 1235.274 505.194,1175.454 508.132,1138.650 475.737 C 1114.319 454.320,1104.000 431.946,1104.000 400.609 C 1104.000 371.782,1110.000 355.112,1127.583 335.086 C 1154.733 304.164,1205.221 294.196,1242.726 312.352 M1288.000 713.952 C 1388.086 744.463,1476.741 844.527,1492.416 944.673 C 1499.524 990.080,1495.010 1060.139,1482.697 1095.547 C 1457.383 1168.335,1400.302 1233.458,1331.197 1268.390 C 1271.058 1298.789,1186.964 1307.018,1122.803 1288.783 C 1044.843 1266.626,986.525 1221.296,942.285 1148.468 C 923.758 1117.970,913.539 1089.371,907.587 1051.364 C 902.092 1016.270,905.231 947.210,913.731 916.181 C 939.534 821.990,1029.718 734.563,1126.266 710.145 C 1158.211 702.066,1256.608 704.382,1288.000 713.952 M1268.000 1459.840 C 1346.588 1463.102,1352.913 1463.990,1420.006 1481.184 C 1648.635 1539.775,1779.935 1632.204,1796.380 1746.130 C 1804.828 1804.656,1787.636 1861.537,1754.964 1883.162 L 1738.589 1894.000 1582.294 1897.268 C 1376.807 1901.565,682.959 1897.612,663.451 1892.034 C 646.583 1887.210,618.581 1858.817,608.938 1836.758 C 598.874 1813.737,599.996 1749.325,611.076 1714.000 C 639.427 1623.620,763.620 1540.859,946.809 1490.271 C 1065.736 1457.430,1109.652 1453.269,1268.000 1459.840 " fill="#1D1E23" stroke="none" fill-rule="evenodd"/></svg>