<svg viewBox="0 0 2400 2400" fill="none" xmlns="http://www.w3.org/2000/svg"><path d="M998.091 414.432 C 717.703 491.314,608.820 824.353,790.027 1050.834 C 868.532 1148.953,993.123 1205.434,1116.000 1198.608 C 1380.680 1183.905,1559.037 931.504,1481.056 682.000 C 1447.564 574.843,1376.115 491.760,1275.791 443.314 C 1208.223 410.685,1175.984 403.920,1090.000 404.323 C 1043.444 404.542,1027.944 406.247,998.091 414.432 M1709.765 1241.675 C 1702.416 1247.047,1701.926 1254.103,1700.622 1373.299 L 1699.243 1499.246 1538.622 1501.045 C 1432.266 1502.237,1373.064 1504.418,1363.390 1507.503 C 1345.982 1513.053,1319.742 1538.187,1309.598 1559.028 C 1299.683 1579.399,1299.542 1621.059,1309.322 1640.718 C 1313.349 1648.813,1323.095 1662.078,1330.979 1670.197 C 1358.125 1698.147,1355.670 1697.801,1537.000 1699.253 L 1700.000 1700.559 1700.000 1821.740 C 1700.000 1938.279,1700.318 1943.325,1708.290 1953.461 C 1712.850 1959.257,1719.879 1964.000,1723.909 1964.000 C 1727.940 1964.000,1748.060 1948.931,1768.619 1930.513 C 1815.104 1888.869,2072.071 1629.988,2081.769 1615.029 C 2086.625 1607.539,2088.013 1600.598,2086.145 1593.152 C 2083.095 1581.000,1774.469 1269.694,1744.400 1248.441 C 1724.541 1234.403,1720.731 1233.659,1709.765 1241.675 M1011.029 1304.337 C 865.185 1314.207,711.650 1352.516,574.424 1413.276 C 419.551 1481.849,355.828 1535.720,320.149 1628.239 C 303.894 1670.390,298.801 1726.454,300.774 1841.546 C 302.394 1936.061,304.010 1943.089,330.511 1970.875 C 339.030 1979.807,353.200 1989.480,362.000 1992.370 C 382.624 1999.143,1220.000 2002.937,1220.000 1996.258 C 1220.000 1993.993,1212.501 1979.959,1203.335 1965.070 C 1095.032 1789.142,1071.672 1556.964,1142.860 1364.000 C 1163.256 1308.714,1163.501 1305.700,1147.870 1302.574 C 1131.911 1299.382,1073.024 1300.141,1011.029 1304.337 " fill="#1D1E23" stroke="none" fill-rule="evenodd"/></svg>