<svg viewBox="0 0 2400 2400" fill="none" xmlns="http://www.w3.org/2000/svg"><path d="M1040.000 408.656 C 990.001 412.562,929.116 436.231,874.000 473.188 C 841.427 495.029,788.054 549.484,766.379 582.990 C 745.506 615.256,722.416 669.161,712.213 709.442 C 660.566 913.347,794.258 1133.543,1001.524 1185.950 C 1091.699 1208.750,1180.539 1200.088,1266.475 1160.116 C 1312.434 1138.739,1344.814 1115.666,1384.188 1076.236 C 1437.490 1022.858,1472.589 958.521,1490.692 881.014 C 1501.018 836.803,1500.056 753.297,1488.735 711.253 C 1466.777 629.699,1437.128 577.128,1382.000 522.000 C 1338.185 478.185,1300.343 453.223,1241.151 429.091 C 1193.232 409.554,1121.625 402.280,1040.000 408.656 M1709.765 1241.674 C 1702.415 1247.045,1701.928 1254.072,1700.662 1373.050 L 1699.325 1498.752 1548.662 1501.517 C 1352.345 1505.121,1360.399 1504.054,1333.859 1529.966 C 1317.224 1546.207,1311.160 1555.657,1306.013 1573.363 C 1294.398 1613.317,1309.506 1654.436,1346.038 1682.300 C 1359.818 1692.810,1363.749 1693.591,1417.311 1696.456 C 1448.490 1698.124,1524.850 1699.603,1587.000 1699.744 L 1700.000 1700.000 1700.022 1813.000 C 1700.049 1950.299,1703.936 1969.909,1729.217 1960.298 C 1734.821 1958.167,1771.936 1925.516,1811.695 1887.741 C 1887.005 1816.186,2070.954 1627.420,2082.410 1609.936 C 2088.734 1600.284,2088.534 1599.198,2077.501 1583.221 C 2063.570 1563.047,1764.908 1263.606,1742.601 1247.447 C 1724.638 1234.434,1720.635 1233.730,1709.765 1241.674 M1024.000 1304.171 C 838.569 1318.311,673.286 1363.260,517.558 1441.900 C 415.724 1493.324,365.830 1536.748,333.603 1602.000 C 308.657 1652.511,304.171 1678.102,301.353 1786.000 C 297.804 1921.842,305.617 1956.420,345.889 1983.095 L 363.949 1995.057 532.974 1997.839 C 732.421 2001.120,1210.096 1999.243,1214.174 1995.161 C 1215.734 1993.600,1203.487 1965.700,1186.959 1933.161 C 1152.153 1864.642,1139.885 1832.259,1123.790 1766.427 C 1106.471 1695.588,1101.597 1631.502,1107.285 1549.445 C 1112.339 1476.554,1119.465 1439.119,1141.696 1368.674 C 1149.563 1343.744,1156.000 1318.994,1156.000 1313.674 C 1156.000 1304.964,1154.306 1303.997,1139.000 1303.972 C 1129.650 1303.956,1110.300 1303.205,1096.000 1302.303 C 1081.700 1301.402,1049.300 1302.242,1024.000 1304.171 " fill="#1D1E23" stroke="none" fill-rule="evenodd"/></svg>