<svg viewBox="0 0 2400 2400" fill="none" xmlns="http://www.w3.org/2000/svg"><path d="M1120.805 111.773 C 1040.044 134.862,968.009 195.540,931.129 271.546 L 918.000 298.603 685.285 300.739 L 452.570 302.875 418.488 319.758 C 365.560 345.977,332.943 380.847,311.625 434.000 L 302.000 458.000 300.823 1152.000 C 300.176 1533.700,301.186 1870.617,303.069 1900.704 C 306.323 1952.727,307.236 1956.916,321.678 1986.136 C 341.767 2026.785,373.157 2058.204,413.693 2078.238 C 439.895 2091.188,449.792 2093.787,483.125 2096.476 C 504.506 2098.201,827.100 2099.612,1200.000 2099.612 C 1572.900 2099.612,1895.494 2098.201,1916.875 2096.476 C 1950.208 2093.787,1960.105 2091.188,1986.307 2078.238 C 2026.862 2058.195,2058.231 2026.788,2078.346 1986.089 C 2092.951 1956.536,2093.690 1953.063,2096.932 1898.657 C 2098.789 1867.496,2099.789 1530.600,2099.154 1150.000 L 2098.000 458.000 2088.375 434.000 C 2067.057 380.847,2034.440 345.977,1981.512 319.758 L 1947.430 302.875 1714.715 300.722 L 1482.000 298.570 1467.233 268.285 C 1430.847 193.664,1350.601 128.698,1272.000 110.228 C 1235.031 101.541,1153.688 102.372,1120.805 111.773 M1243.633 311.813 C 1277.306 328.991,1296.101 359.224,1296.676 397.133 C 1297.295 437.999,1278.361 469.882,1242.000 489.203 C 1221.337 500.182,1180.455 500.922,1159.570 490.695 C 1096.906 460.011,1082.189 378.902,1130.515 330.576 C 1160.311 300.780,1206.869 293.057,1243.633 311.813 M1263.106 708.176 C 1364.384 725.410,1462.394 819.496,1489.846 925.840 C 1498.118 957.884,1498.118 1042.116,1489.846 1074.160 C 1466.730 1163.707,1393.785 1246.608,1310.537 1277.943 C 1235.739 1306.097,1164.629 1306.317,1091.214 1278.624 C 1024.058 1253.291,965.957 1199.131,930.292 1128.616 C 894.612 1058.073,894.578 942.342,930.216 871.384 C 984.394 763.512,1094.527 696.072,1206.000 702.507 C 1225.800 703.650,1251.498 706.201,1263.106 708.176 M1374.000 1469.763 C 1536.817 1504.182,1670.429 1564.779,1740.472 1635.967 C 1785.243 1681.471,1803.094 1730.172,1798.669 1794.742 C 1795.208 1845.254,1771.776 1881.788,1735.902 1892.603 C 1709.406 1900.591,690.594 1900.591,664.098 1892.603 C 644.023 1886.551,624.127 1867.771,611.436 1842.895 C 593.197 1807.143,598.047 1729.915,621.288 1686.042 C 664.597 1604.285,797.379 1527.075,969.333 1483.664 C 1068.913 1458.523,1091.262 1456.114,1212.000 1457.504 C 1313.961 1458.677,1325.800 1459.573,1374.000 1469.763 " fill="#1D1E23" stroke="none" fill-rule="evenodd"/></svg>