<svg viewBox="0 0 2400 2400" fill="none" xmlns="http://www.w3.org/2000/svg"><path d="M1287.908 161.103 C 1204.591 189.512,1150.800 263.621,1150.800 350.000 C 1150.800 404.216,1170.514 451.255,1209.630 490.370 C 1248.745 529.486,1295.784 549.200,1350.000 549.200 C 1404.216 549.200,1451.255 529.486,1490.370 490.370 C 1565.535 415.205,1569.457 297.674,1499.450 218.288 C 1448.204 160.177,1360.309 136.417,1287.908 161.103 M1148.662 606.300 C 1121.186 611.103,1071.606 630.625,866.662 717.337 C 640.598 812.986,617.182 823.757,609.000 835.865 L 600.000 849.183 600.022 1031.592 C 600.036 1144.907,601.612 1219.643,604.182 1228.899 C 610.297 1250.915,631.501 1276.239,653.149 1287.380 C 703.636 1313.361,764.325 1294.380,788.641 1245.005 C 797.743 1226.521,798.055 1222.341,800.000 1092.594 L 802.000 959.189 889.295 925.223 C 937.307 906.541,977.155 891.874,977.845 892.628 C 978.536 893.383,921.711 1182.900,851.568 1536.000 C 775.955 1916.638,724.065 2186.956,724.106 2200.000 C 724.319 2267.254,793.791 2315.991,858.708 2294.429 C 885.298 2285.597,905.501 2267.939,917.641 2242.918 C 924.640 2228.495,952.104 2113.940,1006.090 1874.000 C 1049.155 1682.600,1085.652 1520.139,1087.195 1512.975 L 1090.000 1499.951 1195.000 1600.175 L 1300.000 1700.400 1300.022 1957.200 C 1300.037 2121.763,1301.531 2219.351,1304.182 2228.899 C 1310.297 2250.915,1331.501 2276.239,1353.149 2287.380 C 1393.162 2307.971,1438.975 2301.235,1470.014 2270.196 C 1501.331 2238.879,1500.000 2255.763,1500.000 1889.884 C 1500.000 1679.286,1498.565 1561.077,1495.916 1553.478 C 1493.448 1546.398,1460.607 1512.218,1412.916 1467.095 C 1369.512 1426.028,1324.277 1382.548,1312.394 1370.474 L 1290.788 1348.521 1320.275 1200.512 L 1349.763 1052.502 1387.881 1089.357 C 1495.615 1193.520,1615.151 1256.448,1761.371 1285.977 C 1810.686 1295.937,1813.615 1296.098,1834.529 1290.018 C 1899.613 1271.098,1920.742 1187.691,1874.218 1133.339 C 1855.622 1111.613,1829.517 1098.709,1776.000 1084.786 C 1666.844 1056.389,1572.271 996.833,1508.775 916.504 C 1499.912 905.291,1464.464 851.065,1430.000 796.000 C 1355.705 677.294,1344.433 662.422,1310.287 638.056 C 1262.898 604.240,1214.667 594.764,1148.662 606.300 " fill="#1D1E23" stroke="none" fill-rule="evenodd"/></svg>