<svg viewBox="0 0 2400 2400" fill="none" xmlns="http://www.w3.org/2000/svg"><path d="M958.000 341.426 C 767.908 421.878,370.926 596.312,323.910 620.045 L 299.114 632.562 301.182 917.281 C 303.648 1256.781,304.617 1268.825,338.843 1385.797 C 377.256 1517.081,434.891 1636.196,502.947 1724.956 C 560.675 1800.246,650.714 1890.683,720.488 1943.458 C 802.855 2005.758,907.776 2057.841,1015.522 2089.913 L 1049.044 2099.891 1083.522 2089.954 C 1102.485 2084.488,1138.204 2072.633,1162.898 2063.609 L 1207.796 2047.202 1182.192 1998.601 C 1125.608 1891.192,1108.720 1831.835,1105.203 1728.000 C 1102.704 1654.233,1106.725 1612.375,1122.445 1548.539 C 1148.169 1444.076,1198.481 1357.104,1280.107 1276.000 C 1364.473 1192.172,1456.905 1142.079,1576.736 1115.241 C 1613.091 1107.099,1628.588 1106.000,1707.007 1106.000 L 1796.014 1106.000 1798.246 1094.000 C 1799.473 1087.400,1799.920 981.546,1799.239 858.769 L 1798.000 635.538 1788.000 627.889 C 1776.376 618.998,1664.521 568.318,1464.000 481.089 C 1310.687 414.396,1066.987 310.727,1054.000 306.677 C 1048.723 305.032,1016.044 316.860,958.000 341.426 M1604.700 1313.781 C 1563.185 1324.787,1496.485 1355.410,1466.219 1377.361 C 1436.293 1399.064,1397.295 1438.724,1375.124 1470.000 C 1264.008 1626.748,1279.729 1835.624,1413.105 1974.648 C 1537.472 2104.281,1721.643 2135.426,1880.000 2053.603 C 1984.942 1999.379,2057.298 1909.300,2086.884 1796.046 C 2099.219 1748.826,2101.062 1667.262,2090.820 1621.863 C 2062.905 1498.120,1987.869 1400.190,1879.107 1345.555 C 1819.052 1315.388,1784.523 1307.299,1708.000 1305.470 C 1647.611 1304.027,1638.829 1304.734,1604.700 1313.781 M1732.153 1444.519 C 1756.324 1451.760,1784.296 1475.539,1796.799 1499.473 C 1806.074 1517.227,1808.000 1525.914,1808.000 1550.000 C 1808.000 1574.086,1806.074 1582.773,1796.799 1600.527 C 1776.424 1639.529,1734.411 1662.849,1691.005 1659.250 C 1634.620 1654.574,1592.289 1609.410,1592.088 1553.713 C 1591.916 1506.261,1614.600 1469.134,1656.000 1449.106 C 1676.287 1439.292,1708.277 1437.365,1732.153 1444.519 M1730.000 1755.952 C 1802.926 1761.098,1860.404 1781.772,1897.917 1816.351 C 1921.524 1838.111,1926.900 1851.856,1917.445 1866.286 C 1904.948 1885.359,1847.167 1931.744,1818.000 1946.119 C 1773.371 1968.114,1746.093 1973.317,1688.000 1970.916 C 1611.931 1967.771,1567.201 1948.785,1511.501 1895.999 C 1479.935 1866.085,1478.874 1864.491,1481.154 1850.438 C 1484.259 1831.304,1495.684 1817.228,1522.571 1799.408 C 1553.815 1778.700,1630.995 1754.200,1670.000 1752.609 C 1674.400 1752.429,1701.400 1753.934,1730.000 1755.952 " fill="#1D1E23" stroke="none" fill-rule="evenodd"/></svg>