<svg viewBox="0 0 2400 2400" fill="none" xmlns="http://www.w3.org/2000/svg"><path d="M1029.447 407.725 C 980.332 415.593,912.250 444.782,866.440 477.612 C 835.379 499.871,790.512 546.469,767.853 580.000 C 745.576 612.966,723.602 663.815,711.674 710.000 C 698.790 759.886,698.595 838.257,711.227 889.228 C 729.812 964.213,766.448 1029.216,820.630 1083.338 C 949.966 1212.532,1143.441 1235.331,1305.612 1140.488 C 1340.899 1119.851,1391.336 1074.652,1418.566 1039.265 C 1473.870 967.393,1504.273 869.192,1498.739 780.304 C 1491.018 656.260,1425.570 538.865,1327.962 473.975 C 1291.501 449.736,1231.825 421.797,1199.865 414.004 C 1170.009 406.723,1060.812 402.700,1029.447 407.725 M1709.765 1241.674 C 1702.414 1247.046,1701.928 1254.082,1700.657 1373.674 L 1699.314 1500.000 1612.657 1500.273 C 1564.996 1500.424,1488.689 1501.877,1443.087 1503.503 L 1360.175 1506.460 1345.331 1518.474 C 1308.552 1548.241,1295.546 1581.279,1304.199 1622.959 C 1309.619 1649.068,1340.343 1685.181,1363.307 1692.435 C 1372.979 1695.490,1433.017 1697.716,1539.000 1698.947 L 1700.000 1700.818 1700.059 1819.409 C 1700.120 1941.564,1701.317 1951.794,1716.671 1961.379 C 1721.823 1964.596,1727.288 1962.919,1740.671 1954.014 C 1769.038 1935.140,2082.253 1619.507,2085.515 1606.508 C 2087.927 1596.897,2085.547 1591.968,2069.169 1572.665 C 2038.705 1536.760,1763.850 1262.485,1744.400 1248.581 C 1724.566 1234.404,1720.754 1233.643,1709.765 1241.674 M1044.000 1302.501 C 847.215 1315.276,681.968 1358.678,518.000 1440.655 C 418.492 1490.404,363.464 1538.019,332.801 1600.902 C 307.820 1652.133,303.175 1679.487,301.030 1788.000 C 298.261 1928.088,304.206 1954.422,344.979 1982.679 L 361.315 1994.000 479.657 1996.643 C 635.941 2000.133,1204.113 2000.192,1212.805 1996.719 C 1218.674 1994.374,1216.124 1987.780,1194.240 1948.726 C 1162.194 1891.537,1140.205 1835.744,1124.590 1772.000 C 1106.911 1699.837,1102.560 1655.030,1105.236 1572.705 C 1107.926 1489.949,1114.840 1451.506,1141.952 1368.564 C 1155.871 1325.981,1159.562 1309.962,1156.222 1306.622 C 1151.676 1302.076,1087.086 1299.704,1044.000 1302.501 " fill="#1D1E23" stroke="none" fill-rule="evenodd"/></svg>