<svg viewBox="0 0 2400 2400" fill="none" xmlns="http://www.w3.org/2000/svg"><path d="M1007.497 414.110 C 900.986 437.956,795.236 521.028,747.948 618.000 C 699.152 718.066,689.435 797.408,714.059 894.731 C 762.293 1085.368,948.595 1217.981,1137.349 1196.037 C 1300.006 1177.127,1432.578 1067.958,1481.601 912.552 C 1515.470 805.189,1495.704 675.910,1430.757 580.000 C 1413.041 553.839,1357.800 497.885,1330.000 477.942 C 1296.497 453.909,1245.103 429.048,1208.754 419.293 C 1167.518 408.226,1047.576 405.138,1007.497 414.110 M1709.765 1241.674 C 1702.415 1247.045,1701.928 1254.071,1700.663 1372.987 L 1699.326 1498.625 1534.663 1502.752 C 1433.977 1505.276,1365.788 1508.589,1359.160 1511.280 C 1344.073 1517.404,1316.452 1545.940,1309.496 1562.590 C 1289.616 1610.168,1319.565 1677.923,1366.717 1692.045 C 1376.451 1694.960,1439.730 1697.436,1541.000 1698.865 L 1700.000 1701.108 1700.000 1806.008 C 1700.000 1944.247,1705.295 1971.975,1729.288 1959.379 C 1749.144 1948.954,1862.287 1840.731,1969.093 1730.000 C 2028.510 1668.400,2079.698 1614.071,2082.846 1609.268 C 2087.458 1602.231,2087.627 1598.738,2083.716 1591.268 C 2077.667 1579.716,1773.114 1272.750,1746.641 1251.523 C 1725.316 1234.424,1721.193 1233.323,1709.765 1241.674 M964.000 1310.413 C 800.183 1330.198,661.665 1371.008,522.930 1440.363 C 400.166 1501.733,344.950 1555.910,317.747 1641.682 C 306.171 1678.185,300.213 1740.480,300.121 1826.000 C 300.014 1925.073,309.925 1958.573,346.537 1982.882 L 368.081 1997.186 723.040 1999.140 C 1093.481 2001.178,1212.000 1999.004,1212.000 1990.170 C 1212.000 1987.431,1198.482 1957.129,1181.959 1922.832 C 1148.246 1852.849,1132.937 1809.518,1120.191 1748.000 C 1106.618 1682.493,1102.955 1624.346,1107.925 1553.271 C 1113.084 1479.492,1118.462 1449.624,1140.310 1373.392 C 1149.379 1341.746,1155.777 1313.187,1154.526 1309.927 C 1152.625 1304.976,1140.545 1304.071,1081.126 1304.429 C 1042.006 1304.665,989.300 1307.358,964.000 1310.413 " fill="#1D1E23" stroke="none" fill-rule="evenodd"/></svg>