<svg viewBox="0 0 2400 2400" fill="none" xmlns="http://www.w3.org/2000/svg"><path d="M1012.000 319.674 C 954.875 341.161,498.603 539.723,366.000 600.802 L 302.000 630.281 302.494 906.141 C 303.049 1216.135,305.314 1257.773,325.982 1337.831 C 360.198 1470.373,412.212 1591.669,474.708 1684.657 C 547.457 1792.902,682.311 1923.942,788.000 1989.087 C 837.472 2019.581,923.362 2058.801,987.821 2080.331 L 1048.479 2100.591 1095.112 2085.904 C 1120.760 2077.826,1156.526 2065.869,1174.592 2059.332 L 1207.439 2047.446 1175.980 1984.723 C 1118.491 1870.100,1106.883 1822.439,1106.632 1700.000 C 1106.497 1633.800,1107.835 1615.646,1115.476 1580.000 C 1142.091 1455.849,1187.106 1373.148,1277.956 1281.497 C 1364.740 1193.947,1441.227 1150.191,1559.482 1120.446 C 1607.822 1108.287,1611.118 1108.000,1702.301 1108.000 L 1795.637 1108.000 1797.963 1095.000 C 1799.241 1087.850,1799.773 981.200,1799.144 858.000 L 1798.000 634.000 1770.000 619.164 C 1690.278 576.923,1066.976 307.771,1049.858 308.194 C 1045.536 308.301,1028.500 313.467,1012.000 319.674 M1629.548 1308.089 C 1582.659 1316.543,1495.287 1355.445,1456.788 1385.010 C 1384.678 1440.387,1330.121 1527.931,1309.330 1621.628 C 1301.528 1656.791,1300.479 1737.484,1307.403 1770.000 C 1336.906 1908.563,1429.994 2021.247,1556.303 2071.296 C 1627.470 2099.495,1713.625 2106.111,1784.469 2088.817 C 1928.802 2053.582,2036.928 1953.033,2082.143 1812.000 C 2091.704 1782.179,2093.263 1769.887,2094.832 1712.000 C 2096.480 1651.196,2095.830 1642.944,2086.585 1607.177 C 2066.996 1531.389,2032.041 1470.860,1976.182 1416.000 C 1922.728 1363.501,1845.674 1322.036,1783.560 1312.344 C 1745.635 1306.427,1652.970 1303.866,1629.548 1308.089 M1746.118 1451.130 C 1814.933 1486.626,1828.730 1575.769,1773.659 1629.070 C 1709.579 1691.092,1602.379 1651.403,1593.177 1562.250 C 1587.903 1511.147,1617.678 1463.811,1666.545 1445.615 C 1687.130 1437.950,1725.757 1440.627,1746.118 1451.130 M1772.720 1762.246 C 1815.411 1769.201,1844.008 1779.636,1874.643 1799.436 C 1904.864 1818.969,1920.000 1836.911,1920.000 1853.200 C 1920.000 1863.372,1915.421 1870.144,1896.133 1888.498 C 1865.058 1918.067,1823.734 1945.321,1789.444 1958.860 C 1764.153 1968.846,1757.607 1969.687,1706.000 1969.586 C 1642.810 1969.461,1613.332 1963.473,1574.602 1942.894 C 1547.369 1928.423,1485.811 1876.008,1482.019 1864.061 C 1475.169 1842.476,1500.345 1809.978,1538.856 1790.695 C 1611.063 1754.539,1676.536 1746.575,1772.720 1762.246 " fill="#1D1E23" stroke="none" fill-rule="evenodd"/></svg>