<svg viewBox="0 0 2400 2400" fill="none" xmlns="http://www.w3.org/2000/svg"><path d="M1107.497 414.110 C 1000.986 437.956,895.236 521.028,847.948 618.000 C 799.152 718.066,789.435 797.408,814.059 894.731 C 862.293 1085.368,1048.595 1217.981,1237.349 1196.037 C 1400.006 1177.127,1532.578 1067.958,1581.601 912.552 C 1615.470 805.189,1595.704 675.910,1530.757 580.000 C 1513.041 553.839,1457.800 497.885,1430.000 477.942 C 1396.497 453.909,1345.103 429.048,1308.754 419.293 C 1267.518 408.226,1147.576 405.138,1107.497 414.110 M1064.000 1310.413 C 900.183 1330.198,761.665 1371.008,622.930 1440.363 C 500.166 1501.733,444.950 1555.910,417.747 1641.682 C 406.171 1678.185,400.213 1740.480,400.121 1826.000 C 400.014 1925.073,409.925 1958.573,446.537 1982.882 L 468.081 1997.186 823.040 1999.140 C 1193.481 2001.178,1312.000 1999.004,1312.000 1990.170 C 1312.000 1987.431,1298.482 1957.129,1281.959 1922.832 C 1248.246 1852.849,1232.937 1809.518,1220.191 1748.000 C 1206.618 1682.493,1202.955 1624.346,1207.925 1553.271 C 1213.084 1479.492,1218.462 1449.624,1240.310 1373.392 C 1249.379 1341.746,1255.777 1313.187,1254.526 1309.927 C 1252.625 1304.976,1240.545 1304.071,1181.126 1304.429 C 1142.006 1304.665,1089.300 1307.358,1064.000 1310.413 M1572.000 1311.711 C 1542.981 1315.771,1499.458 1334.427,1463.977 1358.015 C 1386.629 1409.436,1323.989 1499.749,1307.771 1583.229 C 1300.992 1618.120,1305.054 1701.111,1315.483 1740.813 C 1332.551 1805.788,1370.736 1865.352,1425.993 1913.197 C 1463.478 1945.653,1497.115 1965.150,1543.616 1981.375 C 1577.048 1993.039,1580.048 1993.371,1652.000 1993.337 C 1725.132 1993.302,1726.393 1993.155,1759.514 1980.743 C 1868.146 1940.034,1941.493 1864.980,1978.529 1756.632 C 2035.797 1589.095,1961.458 1419.342,1793.829 1334.870 C 1758.673 1317.154,1734.219 1312.648,1662.000 1310.580 C 1624.600 1309.509,1584.100 1310.018,1572.000 1311.711 M1684.000 1580.000 L 1684.000 1684.000 1650.000 1684.000 L 1616.000 1684.000 1616.000 1580.000 L 1616.000 1476.000 1650.000 1476.000 L 1684.000 1476.000 1684.000 1580.000 M1684.000 1790.000 L 1684.000 1824.000 1650.000 1824.000 L 1616.000 1824.000 1616.000 1790.000 L 1616.000 1756.000 1650.000 1756.000 L 1684.000 1756.000 1684.000 1790.000 " fill="#1D1E23" stroke="none" fill-rule="evenodd"/></svg>