<svg viewBox="0 0 2400 2400" fill="none" xmlns="http://www.w3.org/2000/svg"><path d="M1040.000 408.656 C 990.001 412.562,929.116 436.231,874.000 473.188 C 841.427 495.029,788.054 549.484,766.379 582.990 C 745.506 615.256,722.416 669.161,712.213 709.442 C 660.566 913.347,794.258 1133.543,1001.524 1185.950 C 1091.699 1208.750,1180.539 1200.088,1266.475 1160.116 C 1312.434 1138.739,1344.814 1115.666,1384.188 1076.236 C 1437.490 1022.858,1472.589 958.521,1490.692 881.014 C 1501.018 836.803,1500.056 753.297,1488.735 711.253 C 1466.777 629.699,1437.128 577.128,1382.000 522.000 C 1338.185 478.185,1300.343 453.223,1241.151 429.091 C 1193.232 409.554,1121.625 402.280,1040.000 408.656 M1592.452 1114.179 C 1506.498 1132.826,1419.698 1180.988,1349.293 1249.098 C 1284.013 1312.251,1242.198 1385.760,1213.396 1488.000 C 1207.333 1509.523,1206.092 1528.465,1206.188 1598.000 C 1206.318 1691.665,1210.923 1718.556,1238.581 1787.162 C 1282.131 1895.188,1371.904 1991.886,1478.000 2045.050 C 1550.214 2081.235,1614.806 2096.000,1700.896 2096.000 C 1840.508 2096.000,1960.452 2044.607,2058.951 1942.581 C 2115.800 1883.698,2148.689 1829.148,2175.246 1749.697 C 2190.461 1704.178,2196.008 1664.832,2195.970 1602.711 C 2195.912 1510.670,2186.312 1465.885,2150.299 1389.655 C 2124.760 1335.598,2095.540 1294.684,2050.415 1249.801 C 1974.760 1174.551,1877.222 1123.401,1788.105 1112.244 C 1740.160 1106.241,1623.732 1107.392,1592.452 1114.179 M1743.742 1208.117 C 1815.668 1214.483,1854.761 1227.285,1908.575 1262.097 C 1941.954 1283.690,1994.427 1333.171,2020.881 1368.000 C 2046.250 1401.399,2073.715 1457.289,2084.765 1498.000 C 2092.153 1525.219,2093.437 1540.457,2093.359 1600.000 C 2093.249 1683.286,2087.291 1711.322,2056.377 1774.000 C 1996.788 1894.816,1888.099 1974.159,1754.213 1994.579 C 1651.179 2010.294,1539.856 1980.133,1457.408 1914.166 C 1401.218 1869.209,1366.547 1824.605,1335.420 1757.232 C 1310.480 1703.249,1308.000 1688.744,1308.000 1596.865 C 1308.000 1520.557,1308.633 1513.526,1318.016 1485.574 C 1340.117 1419.735,1373.565 1365.604,1421.640 1317.870 C 1482.940 1257.006,1565.201 1216.217,1646.000 1206.624 C 1670.367 1203.730,1699.147 1204.170,1743.742 1208.117 M1024.000 1304.171 C 838.569 1318.311,673.286 1363.260,517.558 1441.900 C 415.724 1493.324,365.830 1536.748,333.603 1602.000 C 308.657 1652.511,304.171 1678.102,301.353 1786.000 C 297.804 1921.842,305.617 1956.420,345.889 1983.095 L 363.949 1995.057 532.974 1997.839 C 732.421 2001.120,1210.096 1999.243,1214.174 1995.161 C 1215.734 1993.600,1203.487 1965.700,1186.959 1933.161 C 1152.153 1864.642,1139.885 1832.259,1123.790 1766.427 C 1106.471 1695.588,1101.597 1631.502,1107.285 1549.445 C 1112.339 1476.554,1119.465 1439.119,1141.696 1368.674 C 1149.563 1343.744,1156.000 1318.994,1156.000 1313.674 C 1156.000 1304.964,1154.306 1303.997,1139.000 1303.972 C 1129.650 1303.956,1110.300 1303.205,1096.000 1302.303 C 1081.700 1301.402,1049.300 1302.242,1024.000 1304.171 M1623.625 1309.945 L 1605.250 1319.518 1602.643 1364.759 C 1601.209 1389.642,1600.028 1465.292,1600.018 1532.870 L 1600.000 1655.741 1621.000 1671.493 C 1663.769 1703.573,1807.266 1785.197,1839.733 1795.912 C 1855.105 1800.985,1857.908 1800.792,1870.967 1793.759 C 1878.858 1789.509,1888.612 1780.625,1892.642 1774.016 C 1911.849 1742.521,1901.057 1733.204,1749.593 1650.517 L 1701.186 1624.090 1699.068 1476.028 C 1697.449 1362.844,1695.724 1326.487,1691.743 1321.690 C 1684.875 1313.415,1658.212 1299.951,1649.159 1300.186 C 1645.222 1300.289,1633.731 1304.680,1623.625 1309.945 " fill="#1D1E23" stroke="none" fill-rule="evenodd"/></svg>