<svg viewBox="0 0 2400 2400" fill="none" xmlns="http://www.w3.org/2000/svg"><path d="M1043.256 404.030 C 984.263 413.415,922.127 437.959,873.129 471.233 C 795.490 523.957,739.422 603.687,713.020 698.911 C 703.383 733.667,702.182 744.873,702.182 800.000 C 702.182 855.349,703.362 866.260,713.184 901.706 C 747.518 1025.614,835.676 1125.213,952.000 1171.512 C 1133.371 1243.702,1346.205 1170.991,1444.371 1003.302 C 1550.291 822.368,1498.484 587.773,1326.871 471.233 C 1291.681 447.336,1234.311 421.411,1195.826 412.015 C 1157.150 402.572,1078.349 398.448,1043.256 404.030 M1709.765 1241.674 C 1702.407 1247.050,1701.939 1253.966,1700.838 1373.674 L 1699.677 1500.000 1544.564 1500.000 C 1365.863 1500.000,1358.819 1500.971,1330.255 1529.535 C 1290.756 1569.034,1290.598 1630.808,1329.895 1670.105 C 1359.140 1699.350,1363.765 1700.000,1542.713 1700.000 L 1700.000 1700.000 1700.000 1824.000 C 1700.000 1942.667,1700.344 1948.344,1708.000 1956.000 C 1727.111 1975.111,1725.857 1976.134,1912.991 1788.862 C 2076.064 1625.669,2088.000 1612.782,2088.000 1599.913 C 2088.000 1587.042,2076.086 1574.188,1912.949 1411.051 C 1729.297 1227.398,1729.299 1227.400,1709.765 1241.674 M1000.583 1304.316 C 843.324 1316.380,685.976 1358.662,541.944 1427.560 C 418.775 1486.478,368.256 1527.593,334.503 1596.386 C 304.417 1657.704,302.960 1666.419,301.000 1796.874 C 298.999 1930.030,300.836 1941.047,329.895 1970.105 C 361.685 2001.896,333.259 2000.166,804.997 1999.019 L 1223.818 1998.000 1207.732 1972.560 C 1087.225 1781.972,1067.239 1539.806,1154.737 1330.419 C 1162.636 1311.516,1163.540 1306.171,1159.295 1303.480 C 1152.893 1299.421,1057.872 1299.921,1000.583 1304.316 " fill="#1D1E23" stroke="none" fill-rule="evenodd"/></svg>