<svg viewBox="0 0 2400 2400" fill="none" xmlns="http://www.w3.org/2000/svg"><path d="M1314.047 156.275 C 1282.560 161.537,1237.236 186.569,1209.725 213.891 C 1149.596 273.607,1135.181 367.967,1175.007 441.140 C 1188.871 466.613,1233.362 511.116,1258.812 524.968 C 1399.818 601.712,1576.741 468.878,1543.536 311.197 C 1527.895 236.923,1453.684 168.229,1376.000 156.115 C 1346.798 151.561,1342.186 151.573,1314.047 156.275 M1032.000 649.656 C 805.228 741.373,625.355 822.418,610.000 839.794 C 602.246 848.569,602.000 854.532,602.000 1033.424 C 602.000 1248.374,601.275 1243.565,638.245 1273.681 C 654.820 1287.183,664.402 1291.855,679.887 1293.984 C 724.911 1300.177,757.979 1286.662,781.756 1252.352 C 791.834 1237.810,793.028 1232.033,796.037 1183.242 C 797.844 1153.959,800.618 1091.121,802.203 1043.603 L 805.084 957.205 829.542 948.153 C 883.598 928.145,964.651 900.000,968.213 900.000 C 970.296 900.000,972.000 903.910,972.000 908.689 C 972.000 913.469,954.071 1008.419,932.158 1119.689 C 888.848 1339.609,780.995 1892.784,747.655 2066.000 C 724.920 2184.121,722.349 2214.592,733.380 2235.239 C 763.750 2292.086,821.728 2313.408,871.481 2286.027 C 883.296 2279.525,897.419 2268.362,902.866 2261.220 C 921.949 2236.201,934.411 2187.801,1038.357 1735.000 C 1066.513 1612.350,1091.456 1512.000,1093.786 1512.000 C 1099.256 1512.000,1144.698 1552.782,1231.000 1635.143 L 1300.000 1700.992 1300.000 1885.851 C 1300.000 1987.524,1301.192 2108.980,1302.649 2155.754 L 1305.297 2240.798 1323.682 2259.674 C 1353.050 2289.825,1359.774 2292.894,1401.218 2295.061 L 1438.112 2296.991 1460.453 2275.005 C 1503.408 2232.731,1499.977 2266.369,1500.159 1885.737 L 1500.319 1554.000 1395.456 1451.714 L 1290.593 1349.429 1299.562 1303.714 C 1313.956 1230.349,1348.345 1070.678,1350.505 1067.182 C 1353.586 1062.197,1364.810 1069.685,1400.761 1100.712 C 1512.914 1197.504,1601.971 1245.322,1730.682 1277.860 C 1811.903 1298.392,1841.213 1295.337,1870.134 1263.325 C 1888.637 1242.844,1896.000 1225.272,1896.000 1201.593 C 1896.000 1142.324,1873.153 1121.587,1762.000 1079.972 C 1659.324 1041.531,1605.292 1011.182,1557.889 965.325 C 1523.964 932.506,1513.148 918.273,1439.863 810.000 C 1342.452 666.081,1329.319 650.771,1279.350 622.877 L 1252.700 608.000 1193.350 608.201 L 1134.000 608.403 1032.000 649.656 " fill="#1D1E23" stroke="none" fill-rule="evenodd"/></svg>