<svg viewBox="0 0 2400 2400" fill="none" xmlns="http://www.w3.org/2000/svg"><path d="M678.000 461.859 C 480.000 548.337,313.844 622.159,308.765 625.909 L 299.531 632.727 301.078 925.364 C 302.730 1238.057,302.434 1232.843,324.393 1335.292 C 335.350 1386.410,366.467 1479.042,391.460 1534.941 C 470.118 1710.874,601.714 1866.753,762.000 1973.860 C 833.795 2021.835,947.172 2073.055,1027.840 2093.959 C 1050.254 2099.767,1052.456 2099.609,1086.479 2089.749 C 1119.988 2080.039,1203.306 2050.027,1206.994 2046.339 C 1207.941 2045.393,1200.700 2031.414,1190.903 2015.277 C 1121.325 1900.657,1091.723 1777.691,1103.199 1650.957 C 1117.743 1490.360,1183.876 1358.734,1304.694 1249.918 C 1430.487 1136.622,1608.979 1082.905,1781.211 1106.512 L 1800.000 1109.087 1800.000 871.164 C 1800.000 649.596,1799.519 632.814,1793.000 627.045 C 1781.480 616.849,1059.572 303.974,1048.351 304.313 C 1042.658 304.486,876.000 375.381,678.000 461.859 M1642.000 1304.401 C 1588.377 1312.055,1519.811 1339.388,1472.000 1372.170 C 1391.126 1427.621,1332.044 1515.532,1309.471 1614.000 C 1299.396 1657.951,1299.396 1742.049,1309.471 1786.000 C 1344.301 1937.940,1461.880 2055.532,1614.000 2090.562 C 1661.044 2101.396,1745.886 2100.488,1793.760 2088.640 C 1862.325 2071.670,1932.490 2032.090,1982.290 1982.290 C 2032.059 1932.521,2071.613 1862.425,2088.675 1793.760 C 2101.320 1742.867,2101.320 1657.133,2088.675 1606.240 C 2071.537 1537.269,2031.787 1466.945,1982.079 1417.656 C 1892.517 1328.850,1765.970 1286.706,1642.000 1304.401 M1726.004 1442.169 C 1763.649 1451.974,1790.322 1475.590,1803.915 1511.150 C 1820.210 1553.778,1809.894 1597.909,1776.286 1629.345 C 1750.825 1653.161,1732.240 1660.832,1700.000 1660.832 C 1667.760 1660.832,1649.175 1653.161,1623.714 1629.345 C 1590.106 1597.909,1579.790 1553.778,1596.085 1511.150 C 1609.393 1476.335,1636.294 1452.038,1672.225 1442.380 C 1700.019 1434.909,1698.157 1434.916,1726.004 1442.169 M1772.000 1758.671 C 1854.987 1775.998,1913.250 1811.179,1922.371 1849.470 C 1924.870 1859.960,1922.066 1863.894,1889.552 1895.521 C 1832.464 1951.052,1777.534 1973.710,1700.000 1973.710 C 1625.693 1973.710,1569.313 1951.425,1515.468 1900.771 C 1497.979 1884.320,1481.835 1867.428,1479.590 1863.234 C 1469.093 1843.621,1499.214 1806.414,1541.960 1786.192 C 1553.484 1780.741,1578.907 1771.634,1598.456 1765.956 C 1661.747 1747.573,1709.286 1745.578,1772.000 1758.671 " fill="#1D1E23" stroke="none" fill-rule="evenodd"/></svg>