<svg viewBox="0 0 2400 2400" fill="none" xmlns="http://www.w3.org/2000/svg"><path d="M998.091 414.432 C 717.703 491.314,608.820 824.353,790.027 1050.834 C 868.532 1148.953,993.123 1205.434,1116.000 1198.608 C 1380.680 1183.905,1559.037 931.504,1481.056 682.000 C 1447.564 574.843,1376.115 491.760,1275.791 443.314 C 1208.223 410.685,1175.984 403.920,1090.000 404.323 C 1043.444 404.542,1027.944 406.247,998.091 414.432 M1602.502 1109.991 C 1509.683 1129.191,1417.526 1179.047,1348.096 1247.623 C 1306.557 1288.651,1283.213 1320.871,1256.183 1374.482 C 1216.092 1453.999,1202.563 1510.176,1202.354 1598.000 C 1202.022 1737.684,1250.976 1855.976,1349.704 1954.058 C 1391.026 1995.110,1432.938 2024.606,1485.599 2049.696 C 1560.242 2085.260,1618.420 2098.023,1704.000 2097.607 C 1772.808 2097.273,1827.209 2086.459,1889.861 2060.662 C 2003.443 2013.895,2100.695 1921.540,2150.992 1812.679 C 2186.628 1735.549,2197.825 1683.858,2197.496 1598.000 C 2197.229 1528.457,2192.929 1501.833,2171.764 1438.658 C 2119.886 1283.812,1990.788 1163.800,1826.000 1117.229 C 1794.019 1108.191,1781.069 1106.901,1710.000 1105.679 C 1651.729 1104.677,1622.531 1105.848,1602.502 1109.991 M1816.000 1217.731 C 2051.094 1294.009,2163.687 1549.702,2059.800 1771.391 C 2008.454 1880.961,1911.124 1959.400,1788.000 1990.437 C 1742.458 2001.918,1654.193 2000.924,1606.000 1988.389 C 1461.840 1950.891,1356.218 1847.299,1314.157 1702.154 C 1305.077 1670.823,1304.000 1659.986,1304.000 1600.000 C 1304.000 1540.426,1305.127 1528.917,1314.042 1497.447 C 1354.570 1354.390,1459.783 1251.390,1606.000 1211.629 C 1629.882 1205.135,1644.883 1204.213,1708.000 1205.357 C 1775.846 1206.588,1784.827 1207.617,1816.000 1217.731 M1011.029 1304.337 C 865.185 1314.207,711.650 1352.516,574.424 1413.276 C 419.551 1481.849,355.828 1535.720,320.149 1628.239 C 303.894 1670.390,298.801 1726.454,300.774 1841.546 C 302.394 1936.061,304.010 1943.089,330.511 1970.875 C 339.030 1979.807,353.200 1989.480,362.000 1992.370 C 382.624 1999.143,1220.000 2002.937,1220.000 1996.258 C 1220.000 1993.993,1212.501 1979.959,1203.335 1965.070 C 1095.032 1789.142,1071.672 1556.964,1142.860 1364.000 C 1163.256 1308.714,1163.501 1305.700,1147.870 1302.574 C 1131.911 1299.382,1073.024 1300.141,1011.029 1304.337 M1625.607 1307.620 C 1616.591 1311.715,1607.612 1318.425,1605.653 1322.533 C 1603.694 1326.640,1601.528 1402.201,1600.839 1490.447 L 1599.586 1650.894 1610.256 1663.575 C 1629.026 1685.882,1831.257 1800.000,1852.018 1800.000 C 1872.625 1800.000,1900.000 1775.580,1900.000 1757.198 C 1900.000 1733.948,1889.848 1726.307,1779.225 1666.294 L 1700.449 1623.559 1699.225 1476.779 C 1698.338 1370.516,1696.652 1327.648,1693.117 1321.481 C 1688.154 1312.823,1661.513 1299.928,1648.919 1300.088 C 1645.114 1300.136,1634.623 1303.526,1625.607 1307.620 " fill="#1D1E23" stroke="none" fill-rule="evenodd"/></svg>