<svg viewBox="0 0 2400 2400" fill="none" xmlns="http://www.w3.org/2000/svg"><path d="M909.014 156.227 C 885.454 160.875,844.298 181.171,820.853 199.703 C 798.978 216.994,772.398 256.107,762.042 286.245 C 746.725 330.816,750.384 393.980,770.717 436.000 C 784.811 465.129,834.905 515.212,864.000 529.263 C 975.486 583.105,1110.216 519.380,1141.875 397.834 C 1159.580 329.862,1141.233 264.412,1090.318 213.913 C 1040.368 164.370,974.299 143.349,909.014 156.227 M776.000 604.393 C 753.042 607.245,710.529 622.760,560.000 683.222 C 438.439 732.048,358.945 765.026,279.353 799.649 C 219.773 825.566,212.138 829.985,207.353 841.320 C 199.681 859.493,199.547 1215.082,207.204 1236.679 C 213.345 1254.001,242.400 1282.068,263.175 1290.749 C 284.156 1299.515,323.519 1298.470,342.568 1288.641 C 363.191 1277.999,387.080 1252.743,392.574 1235.772 C 395.286 1227.396,397.787 1171.543,398.957 1093.219 L 400.882 964.439 477.246 932.094 C 567.264 893.965,572.058 892.440,569.838 902.636 C 568.956 906.686,559.109 958.600,547.957 1018.000 C 536.804 1077.400,493.612 1301.500,451.975 1516.000 C 364.411 1967.090,339.239 2100.326,329.665 2163.375 C 323.193 2205.997,323.184 2210.045,329.510 2230.114 C 342.825 2272.355,395.027 2304.653,439.262 2298.020 C 463.570 2294.375,493.299 2279.028,503.324 2264.950 C 520.392 2240.980,534.429 2187.362,592.064 1926.000 C 614.381 1824.800,644.196 1690.267,658.320 1627.037 C 672.444 1563.808,684.000 1511.026,684.000 1509.744 C 684.000 1501.545,706.566 1520.548,797.282 1605.136 L 899.310 1700.272 901.032 1961.136 C 902.248 2145.224,904.134 2226.282,907.441 2236.549 C 912.519 2252.316,939.030 2279.156,960.481 2290.249 C 975.813 2298.177,1019.415 2299.492,1036.969 2292.556 C 1053.236 2286.128,1084.317 2256.009,1091.203 2240.000 C 1096.339 2228.060,1097.507 2179.723,1099.140 1911.570 C 1100.192 1738.633,1099.735 1584.824,1098.123 1569.771 L 1095.192 1542.404 994.995 1441.301 L 894.798 1340.199 911.729 1255.100 C 942.544 1100.211,953.181 1052.000,956.540 1052.000 C 958.367 1052.000,980.168 1070.450,1004.987 1093.000 C 1064.136 1146.742,1083.628 1162.637,1121.370 1187.905 C 1180.572 1227.542,1284.601 1270.402,1359.262 1285.919 C 1414.130 1297.322,1443.433 1292.103,1470.482 1266.109 C 1503.527 1234.354,1507.299 1185.690,1480.046 1142.717 C 1464.382 1118.017,1439.567 1104.521,1364.000 1079.602 C 1264.175 1046.683,1201.662 1009.890,1142.645 949.319 C 1108.458 914.232,1080.032 874.573,1021.405 780.172 C 961.313 683.412,939.578 655.093,910.480 635.639 C 872.728 610.399,822.180 598.655,776.000 604.393 M1615.648 1419.077 C 1598.427 1427.063,1421.575 1603.336,1415.956 1618.115 C 1412.664 1626.773,1413.208 1631.247,1418.539 1639.384 C 1431.204 1658.714,1601.952 1826.199,1616.929 1833.983 C 1627.749 1839.607,1633.063 1840.537,1636.240 1837.360 C 1644.197 1829.403,1647.808 1802.673,1647.905 1751.000 L 1648.000 1700.000 1895.217 1700.000 L 2142.434 1700.000 2160.591 1688.485 C 2196.010 1666.023,2208.927 1625.405,2191.175 1592.315 C 2185.957 1582.588,2174.832 1569.088,2166.453 1562.315 L 2151.218 1550.000 1902.609 1550.000 L 1654.000 1550.000 1651.296 1532.000 C 1649.810 1522.100,1648.460 1497.619,1648.296 1477.597 C 1647.990 1439.931,1643.148 1418.064,1634.368 1414.695 C 1631.578 1413.624,1623.154 1415.596,1615.648 1419.077 M1961.765 1841.669 C 1954.736 1846.801,1953.879 1853.439,1952.725 1911.669 L 1951.450 1976.000 1780.725 1976.011 C 1686.826 1976.016,1573.384 1977.207,1528.632 1978.657 C 1454.954 1981.044,1446.079 1982.092,1434.727 1989.742 C 1412.941 2004.424,1404.000 2021.957,1404.000 2050.000 C 1404.000 2088.679,1425.313 2114.202,1462.753 2120.358 C 1473.339 2122.099,1587.626 2123.630,1716.725 2123.762 L 1951.450 2124.000 1952.725 2187.868 C 1954.792 2291.387,1957.305 2290.934,2084.421 2164.171 C 2134.152 2114.577,2177.952 2069.138,2181.753 2063.196 C 2186.115 2056.375,2187.647 2049.189,2185.907 2043.706 C 2182.475 2032.893,2016.430 1865.290,1992.400 1848.383 C 1972.154 1834.139,1972.096 1834.126,1961.765 1841.669 " fill="#1D1E23" stroke="none" fill-rule="evenodd"/></svg>