<svg viewBox="0 0 2400 2400" fill="none" xmlns="http://www.w3.org/2000/svg"><path d="M1143.256 404.030 C 1084.263 413.415,1022.127 437.959,973.129 471.233 C 895.490 523.957,839.422 603.687,813.020 698.911 C 803.383 733.667,802.182 744.873,802.182 800.000 C 802.182 855.349,803.362 866.260,813.184 901.706 C 847.518 1025.614,935.676 1125.213,1052.000 1171.512 C 1233.371 1243.702,1446.205 1170.991,1544.371 1003.302 C 1650.291 822.368,1598.484 587.773,1426.871 471.233 C 1391.681 447.336,1334.311 421.411,1295.826 412.015 C 1257.150 402.572,1178.349 398.448,1143.256 404.030 M1100.583 1304.316 C 943.324 1316.380,785.976 1358.662,641.944 1427.560 C 518.775 1486.478,468.256 1527.593,434.503 1596.386 C 404.417 1657.704,402.960 1666.419,401.000 1796.874 C 398.999 1930.030,400.836 1941.047,429.895 1970.105 C 461.685 2001.896,433.259 2000.166,904.997 1999.019 L 1323.818 1998.000 1307.732 1972.560 C 1187.225 1781.972,1167.239 1539.806,1254.737 1330.419 C 1262.636 1311.516,1263.540 1306.171,1259.295 1303.480 C 1252.893 1299.421,1157.872 1299.921,1100.583 1304.316 M1587.338 1305.990 C 1357.514 1349.643,1233.852 1598.364,1338.315 1806.850 C 1382.295 1894.624,1466.685 1963.231,1562.000 1988.699 C 1607.537 2000.867,1692.463 2000.867,1738.000 1988.699 C 1935.919 1935.814,2048.165 1722.115,1978.635 1530.564 C 1940.329 1425.033,1846.962 1340.227,1737.784 1311.797 C 1695.864 1300.882,1628.021 1298.263,1587.338 1305.990 M1684.000 1580.000 L 1684.000 1684.000 1650.000 1684.000 L 1616.000 1684.000 1616.000 1580.000 L 1616.000 1476.000 1650.000 1476.000 L 1684.000 1476.000 1684.000 1580.000 M1684.000 1790.000 L 1684.000 1824.000 1650.000 1824.000 L 1616.000 1824.000 1616.000 1790.000 L 1616.000 1756.000 1650.000 1756.000 L 1684.000 1756.000 1684.000 1790.000 " fill="#1D1E23" stroke="none" fill-rule="evenodd"/></svg>