<svg viewBox="0 0 2400 2400" fill="none" xmlns="http://www.w3.org/2000/svg"><path d="M1900 300H1482C1440 184 1330 100 1200 100C1070 100 960 184 918 300H500C390 300 300 390 300 500V1900C300 2010 390 2100 500 2100H1900C2010 2100 2100 2010 2100 1900V500C2100 390 2010 300 1900 300ZM1200 300C1255 300 1300 345 1300 400C1300 455 1255 500 1200 500C1145 500 1100 455 1100 400C1100 345 1145 300 1200 300ZM1200 700C1366 700 1500 834 1500 1000C1500 1166 1366 1300 1200 1300C1034 1300 900 1166 900 1000C900 834 1034 700 1200 700ZM1800 1800C1800 1855.23 1755.23 1900 1700 1900H700C644.772 1900 600 1855.23 600 1800V1760C600 1560 1000 1450 1200 1450C1400 1450 1800 1560 1800 1760V1800Z" fill="#1D1E23"/></svg>