<svg viewBox="0 0 2400 2400" fill="none" xmlns="http://www.w3.org/2000/svg"><path d="M1140.000 408.656 C 1090.001 412.562,1029.116 436.231,974.000 473.188 C 941.427 495.029,888.054 549.484,866.379 582.990 C 845.506 615.256,822.416 669.161,812.213 709.442 C 760.566 913.347,894.258 1133.543,1101.524 1185.950 C 1191.699 1208.750,1280.539 1200.088,1366.475 1160.116 C 1412.434 1138.739,1444.814 1115.666,1484.188 1076.236 C 1537.490 1022.858,1572.589 958.521,1590.692 881.014 C 1601.018 836.803,1600.056 753.297,1588.735 711.253 C 1566.777 629.699,1537.128 577.128,1482.000 522.000 C 1438.185 478.185,1400.343 453.223,1341.151 429.091 C 1293.232 409.554,1221.625 402.280,1140.000 408.656 M1124.000 1304.171 C 938.569 1318.311,773.286 1363.260,617.558 1441.900 C 515.724 1493.324,465.830 1536.748,433.603 1602.000 C 408.657 1652.511,404.171 1678.102,401.353 1786.000 C 397.804 1921.842,405.617 1956.420,445.889 1983.095 L 463.949 1995.057 632.974 1997.839 C 832.421 2001.120,1310.096 1999.243,1314.174 1995.161 C 1315.734 1993.600,1303.487 1965.700,1286.959 1933.161 C 1252.153 1864.642,1239.885 1832.259,1223.790 1766.427 C 1206.471 1695.588,1201.597 1631.502,1207.285 1549.445 C 1212.339 1476.554,1219.465 1439.119,1241.696 1368.674 C 1249.563 1343.744,1256.000 1318.994,1256.000 1313.674 C 1256.000 1304.964,1254.306 1303.997,1239.000 1303.972 C 1229.650 1303.956,1210.300 1303.205,1196.000 1302.303 C 1181.700 1301.402,1149.300 1302.242,1124.000 1304.171 M1556.000 1314.192 C 1437.068 1347.051,1331.648 1461.303,1307.815 1583.168 C 1299.654 1624.897,1304.782 1710.518,1317.925 1752.000 C 1340.876 1824.432,1381.057 1880.059,1447.792 1931.792 C 1474.379 1952.402,1505.572 1968.448,1546.827 1982.738 C 1576.090 1992.875,1582.412 1993.548,1650.000 1993.729 C 1715.614 1993.904,1724.483 1993.076,1750.000 1984.401 C 1809.971 1964.011,1855.483 1935.716,1896.452 1893.353 C 1928.655 1860.054,1944.123 1837.463,1964.002 1794.693 C 2008.792 1698.330,2009.433 1596.391,1965.827 1504.355 C 1932.122 1433.216,1876.053 1376.257,1804.018 1339.978 C 1749.782 1312.664,1741.177 1310.889,1656.000 1309.440 C 1595.292 1308.408,1573.123 1309.461,1556.000 1314.192 M1684.000 1580.000 L 1684.000 1684.000 1650.000 1684.000 L 1616.000 1684.000 1616.000 1580.000 L 1616.000 1476.000 1650.000 1476.000 L 1684.000 1476.000 1684.000 1580.000 M1684.000 1790.000 L 1684.000 1824.000 1650.000 1824.000 L 1616.000 1824.000 1616.000 1790.000 L 1616.000 1756.000 1650.000 1756.000 L 1684.000 1756.000 1684.000 1790.000 " fill="#1D1E23" stroke="none" fill-rule="evenodd"/></svg>