<svg viewBox="0 0 2400 2400" fill="none" xmlns="http://www.w3.org/2000/svg"><path d="M1129.447 407.725 C 1080.332 415.593,1012.250 444.782,966.440 477.612 C 935.379 499.871,890.512 546.469,867.853 580.000 C 845.576 612.966,823.602 663.815,811.674 710.000 C 798.790 759.886,798.595 838.257,811.227 889.228 C 829.812 964.213,866.448 1029.216,920.630 1083.338 C 1049.966 1212.532,1243.441 1235.331,1405.612 1140.488 C 1440.899 1119.851,1491.336 1074.652,1518.566 1039.265 C 1573.870 967.393,1604.273 869.192,1598.739 780.304 C 1591.018 656.260,1525.570 538.865,1427.962 473.975 C 1391.501 449.736,1331.825 421.797,1299.865 414.004 C 1270.009 406.723,1160.812 402.700,1129.447 407.725 M1697.744 1226.580 C 1668.464 1246.188,1482.970 1383.282,1432.000 1422.986 L 1402.000 1446.354 1402.150 1528.177 C 1402.350 1637.247,1411.105 1683.300,1446.001 1758.827 C 1489.908 1853.858,1580.218 1941.477,1676.828 1982.776 C 1720.388 2001.398,1733.581 2001.294,1777.825 1981.980 C 1875.198 1939.475,1957.658 1861.882,2003.101 1770.000 C 2020.442 1734.939,2037.163 1686.284,2043.654 1652.000 C 2053.871 1598.040,2059.828 1480.681,2053.540 1457.233 C 2052.247 1452.410,2031.121 1432.424,2006.594 1412.819 C 1917.739 1341.794,1735.824 1208.000,1728.108 1208.000 C 1726.667 1208.000,1713.004 1216.361,1697.744 1226.580 M1144.000 1302.501 C 947.215 1315.276,781.968 1358.678,618.000 1440.655 C 518.492 1490.404,463.464 1538.019,432.801 1600.902 C 407.820 1652.133,403.175 1679.487,401.030 1788.000 C 398.261 1928.088,404.206 1954.422,444.979 1982.679 L 461.315 1994.000 579.657 1996.643 C 735.941 2000.133,1304.113 2000.192,1312.805 1996.719 C 1318.674 1994.374,1316.124 1987.780,1294.240 1948.726 C 1262.194 1891.537,1240.205 1835.744,1224.590 1772.000 C 1206.911 1699.837,1202.560 1655.030,1205.236 1572.705 C 1207.926 1489.949,1214.840 1451.506,1241.952 1368.564 C 1255.871 1325.981,1259.562 1309.962,1256.222 1306.622 C 1251.676 1302.076,1187.086 1299.704,1144.000 1302.501 " fill="#1D1E23" stroke="none" fill-rule="evenodd"/></svg>