<svg viewBox="0 0 2400 2400" fill="none" xmlns="http://www.w3.org/2000/svg"><path d="M984.000 331.520 C 883.396 372.184,455.206 559.304,339.000 613.386 L 300.000 631.536 300.281 744.768 C 300.921 1002.729,306.964 1244.717,313.698 1282.000 C 335.371 1401.995,401.160 1570.676,464.245 1668.000 C 553.498 1805.691,713.223 1954.329,840.770 2018.387 C 885.384 2040.793,958.178 2070.777,1009.064 2087.706 L 1048.127 2100.702 1094.936 2085.960 C 1120.681 2077.851,1156.591 2065.845,1174.736 2059.280 L 1207.728 2047.342 1181.888 1995.777 C 1119.190 1870.657,1111.900 1842.585,1109.224 1716.000 C 1107.440 1631.603,1108.085 1617.887,1115.543 1581.741 C 1140.412 1461.206,1190.255 1369.764,1280.010 1280.010 C 1352.868 1207.151,1429.184 1159.754,1518.000 1132.202 C 1582.651 1112.146,1615.600 1108.000,1710.343 1108.000 L 1795.637 1108.000 1797.963 1095.000 C 1799.241 1087.850,1799.773 981.200,1799.144 858.000 L 1798.000 634.000 1756.000 612.976 C 1642.434 556.128,1065.476 307.905,1047.217 308.038 C 1044.347 308.059,1015.900 318.626,984.000 331.520 M1592.000 1317.985 C 1543.505 1334.607,1476.126 1369.879,1447.048 1393.865 C 1381.729 1447.744,1332.488 1527.866,1311.758 1614.000 C 1300.051 1662.640,1300.850 1746.733,1313.450 1792.028 C 1331.920 1858.428,1353.621 1900.679,1396.869 1954.440 C 1476.411 2053.316,1616.834 2111.187,1740.682 2096.131 C 1898.476 2076.949,2028.823 1969.432,2080.186 1816.092 C 2091.732 1781.621,2093.073 1772.370,2094.977 1714.092 C 2096.848 1656.773,2096.126 1646.244,2088.140 1614.456 C 2053.204 1475.402,1956.100 1368.501,1823.917 1323.575 C 1786.938 1311.006,1783.972 1310.651,1704.000 1309.195 C 1624.412 1307.746,1621.118 1308.005,1592.000 1317.985 M1746.955 1452.748 C 1785.014 1470.531,1811.730 1519.470,1806.226 1561.320 C 1799.100 1615.495,1751.192 1660.000,1700.000 1660.000 C 1676.663 1660.000,1647.062 1647.443,1627.696 1629.328 C 1603.583 1606.773,1593.892 1583.168,1594.307 1548.000 C 1594.752 1510.366,1610.028 1482.802,1645.223 1456.125 C 1666.919 1439.680,1715.534 1438.066,1746.955 1452.748 M1792.000 1766.076 C 1859.945 1780.974,1920.000 1823.234,1920.000 1856.148 C 1920.000 1866.689,1884.877 1901.674,1851.624 1924.255 C 1792.554 1964.369,1753.487 1973.977,1673.834 1967.981 C 1605.692 1962.852,1575.158 1949.440,1514.539 1898.014 C 1481.045 1869.599,1477.303 1861.252,1487.610 1837.950 C 1501.010 1807.658,1554.804 1776.480,1618.000 1762.379 C 1653.382 1754.484,1748.338 1756.502,1792.000 1766.076 " fill="#1D1E23" stroke="none" fill-rule="evenodd"/></svg>