<svg viewBox="0 0 2400 2400" fill="none" xmlns="http://www.w3.org/2000/svg"><path d="M1700 1100C1734 1100 1767 1104 1800 1109V643.37C1800 633.427 1794.11 624.428 1784.99 620.454L1059.99 304.354C1053.62 301.576 1046.38 301.576 1040.01 304.354L315.008 620.454C305.893 624.428 300 633.427 300 643.371V1118C300 1572 620 1997 1050 2100C1105 2087 1158 2068 1210 2045C1141 1947 1100 1828 1100 1700C1100 1369 1369 1100 1700 1100Z" fill="#1D1E23"/><path d="M1700 1300C1479 1300 1300 1479 1300 1700C1300 1921 1479 2100 1700 2100C1921 2100 2100 1921 2100 1700C2100 1479 1921 1300 1700 1300ZM1700 1438C1762 1438 1812 1489 1812 1550C1812 1611 1761 1662 1700 1662C1639 1662 1588 1611 1588 1550C1588 1489 1638 1438 1700 1438ZM1700 1975C1607 1975 1526 1929 1476 1858C1481 1786 1627 1750 1700 1750C1773 1750 1919 1786 1924 1858C1874 1929 1793 1975 1700 1975Z" fill="#1D1E23"/></svg>