<svg viewBox="0 0 2400 2400" fill="none" xmlns="http://www.w3.org/2000/svg"><path d="M976.000 333.670 C 788.834 412.476,325.601 615.793,309.000 626.422 L 300.000 632.184 300.125 861.092 C 300.333 1240.894,304.286 1284.251,351.810 1428.000 C 383.309 1523.278,416.273 1594.397,463.050 1668.000 C 538.454 1786.648,676.179 1923.009,790.000 1991.712 C 849.450 2027.596,940.582 2067.701,1008.923 2088.054 L 1047.847 2099.645 1078.547 2091.604 C 1095.432 2087.182,1131.506 2075.366,1158.711 2065.347 L 1208.174 2047.131 1189.305 2012.566 C 1132.616 1908.721,1112.481 1846.748,1104.001 1750.012 C 1094.823 1645.313,1117.724 1524.071,1164.111 1431.787 C 1221.845 1316.930,1329.211 1212.215,1444.297 1158.520 C 1537.652 1114.964,1643.734 1095.679,1744.000 1104.036 C 1769.300 1106.145,1792.250 1107.899,1795.000 1107.935 C 1798.948 1107.986,1799.916 1059.378,1799.601 877.000 C 1799.382 749.950,1797.964 641.555,1796.450 636.122 C 1794.085 627.637,1774.868 617.874,1660.096 566.851 C 1452.656 474.632,1053.135 303.433,1046.920 304.098 C 1046.414 304.153,1014.500 317.460,976.000 333.670 M1658.000 1302.420 C 1546.691 1318.872,1453.380 1369.984,1389.968 1449.240 C 1323.280 1532.589,1292.897 1635.323,1303.570 1741.372 C 1319.461 1899.270,1429.510 2033.069,1583.397 2081.590 C 1818.608 2155.753,2071.566 1988.425,2096.338 1742.288 C 2119.586 1511.289,1945.695 1310.958,1714.428 1302.308 C 1689.992 1301.394,1664.600 1301.445,1658.000 1302.420 M1732.614 1444.165 C 1751.257 1449.185,1778.908 1469.884,1791.060 1487.917 C 1828.906 1544.077,1808.494 1619.105,1747.036 1649.731 C 1676.576 1684.843,1590.971 1631.425,1590.418 1552.000 C 1590.047 1498.674,1622.984 1455.971,1675.802 1441.302 C 1694.158 1436.204,1705.094 1436.755,1732.614 1444.165 M1793.496 1763.763 C 1857.095 1781.143,1902.442 1808.345,1916.683 1837.659 L 1925.169 1855.124 1916.079 1867.890 C 1901.609 1888.210,1844.531 1934.646,1818.155 1947.557 C 1781.286 1965.603,1748.685 1972.480,1700.000 1972.480 C 1651.212 1972.480,1618.785 1965.573,1582.068 1947.359 C 1553.627 1933.250,1540.012 1923.221,1505.614 1891.043 C 1485.082 1871.837,1480.000 1864.688,1480.000 1855.014 C 1480.000 1819.488,1530.179 1783.572,1606.653 1764.360 C 1623.894 1760.029,1641.600 1755.575,1646.000 1754.462 C 1650.400 1753.349,1678.300 1753.050,1708.000 1753.797 C 1747.427 1754.789,1770.500 1757.478,1793.496 1763.763 " fill="#1D1E23" stroke="none" fill-rule="evenodd"/></svg>