<svg viewBox="0 0 2400 2400" fill="none" xmlns="http://www.w3.org/2000/svg"><path d="M1129.447 407.725 C 1080.332 415.593,1012.250 444.782,966.440 477.612 C 935.379 499.871,890.512 546.469,867.853 580.000 C 845.576 612.966,823.602 663.815,811.674 710.000 C 798.790 759.886,798.595 838.257,811.227 889.228 C 829.812 964.213,866.448 1029.216,920.630 1083.338 C 1049.966 1212.532,1243.441 1235.331,1405.612 1140.488 C 1440.899 1119.851,1491.336 1074.652,1518.566 1039.265 C 1573.870 967.393,1604.273 869.192,1598.739 780.304 C 1591.018 656.260,1525.570 538.865,1427.962 473.975 C 1391.501 449.736,1331.825 421.797,1299.865 414.004 C 1270.009 406.723,1160.812 402.700,1129.447 407.725 M1144.000 1302.501 C 947.215 1315.276,781.968 1358.678,618.000 1440.655 C 518.492 1490.404,463.464 1538.019,432.801 1600.902 C 407.820 1652.133,403.175 1679.487,401.030 1788.000 C 398.261 1928.088,404.206 1954.422,444.979 1982.679 L 461.315 1994.000 579.657 1996.643 C 735.941 2000.133,1304.113 2000.192,1312.805 1996.719 C 1318.674 1994.374,1316.124 1987.780,1294.240 1948.726 C 1262.194 1891.537,1240.205 1835.744,1224.590 1772.000 C 1206.911 1699.837,1202.560 1655.030,1205.236 1572.705 C 1207.926 1489.949,1214.840 1451.506,1241.952 1368.564 C 1255.871 1325.981,1259.562 1309.962,1256.222 1306.622 C 1251.676 1302.076,1187.086 1299.704,1144.000 1302.501 M1585.549 1307.719 C 1481.946 1324.303,1382.524 1402.293,1333.755 1505.236 C 1311.628 1551.941,1303.087 1590.794,1302.811 1646.000 C 1302.312 1746.207,1337.446 1830.026,1408.551 1898.260 C 1454.525 1942.377,1494.860 1966.637,1552.141 1984.624 C 1578.701 1992.964,1589.734 1994.000,1652.000 1994.000 C 1718.263 1994.000,1723.815 1993.393,1756.000 1982.635 C 1863.113 1946.833,1943.658 1865.870,1979.476 1758.000 C 1994.925 1711.475,2001.761 1663.322,1998.488 1624.080 C 1986.195 1476.679,1884.195 1354.996,1738.000 1313.327 C 1714.494 1306.627,1615.190 1302.974,1585.549 1307.719 M1684.000 1580.000 L 1684.000 1684.000 1650.000 1684.000 L 1616.000 1684.000 1616.000 1580.000 L 1616.000 1476.000 1650.000 1476.000 L 1684.000 1476.000 1684.000 1580.000 M1684.000 1790.000 L 1684.000 1824.000 1650.000 1824.000 L 1616.000 1824.000 1616.000 1790.000 L 1616.000 1756.000 1650.000 1756.000 L 1684.000 1756.000 1684.000 1790.000 " fill="#1D1E23" stroke="none" fill-rule="evenodd"/></svg>