<svg viewBox="0 0 2400 2400" fill="none" xmlns="http://www.w3.org/2000/svg"><path d="M1100 1200C1320.91 1200 1500 1020.91 1500 800 1500 579.086 1320.91 400 1100 400 879.086 400 700 579.086 700 800 700 1020.91 879.086 1200 1100 1200ZM1167 1302C1145 1301 1123 1300 1100 1300 858 1300 632 1367 439 1482 351 1534 300 1632 300 1735V1900C300 1955.23 344.772 2000 400 2000H1226C1147 1887 1100 1749 1100 1600 1100 1493 1125 1393 1167 1302Z" fill="#1D1E23"/><path d="M1699.5 1100C1423.5 1100 1200 1324 1200 1600C1200 1876 1423.5 2100 1699.5 2100C1976 2100 2200 1876 2200 1600C2200 1324 1976 1100 1699.5 1100ZM1700 2000C1479 2000 1300 1821 1300 1600C1300 1379 1479 1200 1700 1200C1921 1200 2100 1379 2100 1600C2100 1821 1921 2000 1700 2000Z" fill="#1D1E23"/><path d="M1648.07 1300H1652.08C1678.79 1300 1700.15 1319.63 1700.15 1344.18V1622.74L1876.21 1718.25C1899.57 1730.52 1906.92 1758.13 1892.9 1778.99C1879.54 1799.86 1850.17 1805.99 1827.47 1793.72L1632.72 1686.55C1612.02 1675.51 1600 1655.26 1600 1633.78V1344.18C1600 1319.63 1621.37 1300 1648.07 1300Z" fill="#1D1E23"/></svg>