<svg viewBox="0 0 2400 2400" fill="none" xmlns="http://www.w3.org/2000/svg"><path d="M1200 1200C1420.91 1200 1600 1020.91 1600 800 1600 579.086 1420.91 400 1200 400 979.086 400 800 579.086 800 800 800 1020.91 979.086 1200 1200 1200ZM1267 1302C1245 1301 1223 1300 1200 1300 958 1300 732 1367 539 1482 451 1534 400 1632 400 1735V1900C400 1955.23 444.772 2000 500 2000H1326C1247 1887 1200 1749 1200 1600 1200 1493 1225 1393 1267 1302ZM1742.27 1211.25C1733.38 1204.58 1721.16 1204.58 1712.27 1211.25L1410 1437.95C1403.7 1442.68 1400 1450.09 1400 1457.95V1563.64C1400 1765.45 1539.64 1954.18 1727.27 2000 1914.91 1954.18 2054.55 1765.45 2054.55 1563.64V1457.95C2054.55 1450.09 2050.84 1442.68 2044.55 1437.95L1742.27 1211.25Z" fill="#1D1E23"/></svg>