<svg viewBox="0 0 2400 2400" fill="none" xmlns="http://www.w3.org/2000/svg"><path d="M1200 1200C1420.91 1200 1600 1020.91 1600 800 1600 579.086 1420.91 400 1200 400 979.086 400 800 579.086 800 800 800 1020.91 979.086 1200 1200 1200ZM1267 1302C1245 1301 1223 1300 1200 1300 958 1300 732 1367 539 1482 451 1534 400 1632 400 1735V1900C400 1955.23 444.772 2000 500 2000H1326C1247 1887 1200 1749 1200 1600 1200 1493 1225 1393 1267 1302Z" fill="#1D1E23"/><path d="M1650 2000C1843.2 2000 2000 1843.2 2000 1650C2000 1456.8 1843.2 1300 1650 1300C1456.8 1300 1300 1456.8 1300 1650C1300 1843.2 1456.8 2000 1650 2000ZM1615 1475H1685V1685H1615V1475ZM1615 1755H1685V1825H1615V1755Z" fill="#1D1E23"/></svg>