<svg viewBox="0 0 2400 2400" fill="none" xmlns="http://www.w3.org/2000/svg"><path d="M1350 550C1460 550 1550 460 1550 350C1550 240 1460 150 1350 150C1240 150 1150 240 1150 350C1150 460 1240 550 1350 550ZM980 890L724.689 2175.67C711.91 2240.02 761.146 2300 826.754 2300C875.422 2300 917.59 2266.27 928.274 2218.78L1090 1500L1300 1700V2200C1300 2255.23 1344.77 2300 1400 2300C1455.23 2300 1500 2255.23 1500 2200V1571.43C1500 1557.74 1494.39 1544.66 1484.48 1535.22L1290 1350L1350 1050C1460.05 1176.98 1620.26 1268.13 1800.31 1293.12C1855.01 1300.71 1900 1255.23 1900 1200C1900 1144.77 1854.81 1101.03 1800.57 1090.62C1654.97 1062.69 1535.6 974.791 1470 860L1370 700C1330 640 1270 600 1200 600C1170 600 1150 610 1120 610L630.518 817.089C612.019 824.915 600 843.051 600 863.137V1200C600 1255.23 644.772 1300 700 1300C755.228 1300 800 1255.23 800 1200V960L980 890Z" fill="#1D1E23"/></svg>