<svg viewBox="0 0 2400 2400" fill="none" xmlns="http://www.w3.org/2000/svg"><path d="M1151.867 108.397 C 1117.872 111.224,1071.958 128.980,1034.711 153.703 C 994.574 180.344,936.844 248.975,923.478 285.938 L 918.798 298.879 684.399 301.771 L 450.000 304.664 418.079 321.332 C 374.811 343.925,339.259 379.582,316.738 422.971 L 299.626 455.941 300.961 1192.971 C 302.208 1880.917,302.763 1931.583,309.298 1953.770 C 322.013 1996.938,352.365 2036.530,394.870 2065.395 C 446.985 2100.785,378.208 2098.000,1200.000 2098.000 C 2021.792 2098.000,1953.015 2100.785,2005.130 2065.395 C 2047.653 2036.518,2078.013 1996.905,2090.682 1953.770 C 2097.189 1931.613,2097.756 1880.041,2099.036 1193.871 L 2100.409 457.743 2084.321 425.871 C 2058.292 374.304,2026.683 343.659,1969.907 314.946 L 1949.814 304.784 1715.907 301.704 L 1482.000 298.623 1469.073 272.311 C 1452.889 239.373,1415.592 194.270,1382.966 168.186 C 1351.276 142.849,1300.239 117.167,1271.920 112.307 C 1241.817 107.141,1188.036 105.389,1151.867 108.397 M1243.581 314.540 C 1282.568 333.968,1302.340 377.357,1292.416 421.705 C 1267.914 531.189,1114.026 518.550,1105.017 406.314 C 1103.306 384.994,1104.581 377.451,1113.007 359.045 C 1135.429 310.068,1194.324 289.995,1243.581 314.540 M1238.825 707.839 C 1273.693 710.724,1289.881 714.166,1311.698 723.332 C 1402.616 761.532,1477.796 855.127,1492.336 948.215 C 1497.801 983.203,1494.628 1048.229,1485.803 1082.111 C 1466.561 1155.986,1399.426 1235.125,1326.806 1269.536 C 1283.484 1290.064,1249.416 1297.272,1196.000 1297.212 C 1155.590 1297.167,1145.489 1295.678,1112.879 1284.964 C 1031.091 1258.093,971.251 1205.600,930.455 1124.939 C 911.787 1088.028,906.313 1059.361,906.598 1000.000 C 906.906 935.862,912.802 909.129,936.913 862.547 C 957.243 823.268,1012.741 764.808,1050.000 743.423 C 1113.053 707.233,1149.191 700.423,1238.825 707.839 M1326.206 1464.083 C 1400.765 1470.791,1520.960 1506.728,1607.059 1548.055 C 1697.326 1591.382,1749.807 1636.167,1778.613 1694.451 C 1792.706 1722.966,1793.959 1728.348,1795.368 1766.404 C 1797.196 1815.806,1790.027 1843.519,1769.091 1867.978 C 1740.995 1900.802,1791.585 1898.023,1226.000 1897.810 C 948.800 1897.706,708.094 1896.206,691.099 1894.478 C 654.649 1890.772,640.979 1882.988,620.261 1854.145 C 606.350 1834.778,605.967 1833.242,604.658 1791.579 C 602.341 1717.883,618.486 1677.460,669.511 1629.199 C 742.160 1560.484,872.808 1502.922,1031.371 1469.766 C 1092.528 1456.978,1219.944 1454.522,1326.206 1464.083 " fill="#1D1E23" stroke="none" fill-rule="evenodd"/></svg>