<svg viewBox="0 0 2400 2400" fill="none" xmlns="http://www.w3.org/2000/svg"><path d="M1007.497 414.110 C 900.986 437.956,795.236 521.028,747.948 618.000 C 699.152 718.066,689.435 797.408,714.059 894.731 C 762.293 1085.368,948.595 1217.981,1137.349 1196.037 C 1300.006 1177.127,1432.578 1067.958,1481.601 912.552 C 1515.470 805.189,1495.704 675.910,1430.757 580.000 C 1413.041 553.839,1357.800 497.885,1330.000 477.942 C 1296.497 453.909,1245.103 429.048,1208.754 419.293 C 1167.518 408.226,1047.576 405.138,1007.497 414.110 M1614.000 1112.164 C 1533.570 1121.006,1430.666 1173.679,1352.815 1245.855 C 1297.245 1297.375,1248.097 1378.688,1219.756 1466.000 C 1206.782 1505.971,1206.773 1506.062,1206.624 1592.000 C 1206.505 1660.885,1207.915 1684.369,1213.706 1710.000 C 1246.371 1854.567,1354.444 1987.054,1492.466 2051.733 C 1563.479 2085.011,1636.887 2098.700,1723.825 2094.876 C 1854.381 2089.134,1957.249 2043.102,2052.000 1948.023 C 2113.858 1885.951,2146.534 1833.088,2174.001 1750.648 C 2192.019 1696.568,2197.472 1651.716,2194.989 1578.022 C 2192.667 1509.102,2185.873 1475.062,2163.515 1420.321 C 2125.357 1326.895,2070.554 1257.882,1984.000 1194.253 C 1952.838 1171.346,1871.422 1131.331,1837.984 1122.489 C 1788.240 1109.335,1683.608 1104.512,1614.000 1112.164 M1737.006 1208.207 C 1831.824 1216.525,1886.049 1239.186,1955.679 1299.592 C 1999.975 1338.020,2030.561 1377.540,2056.221 1429.502 C 2089.359 1496.610,2093.411 1518.041,2090.971 1613.299 C 2088.767 1699.339,2086.088 1712.014,2058.199 1768.338 C 2001.825 1882.194,1913.506 1954.905,1792.823 1986.816 C 1760.683 1995.315,1745.049 1997.084,1702.000 1997.094 C 1605.818 1997.115,1527.762 1969.657,1452.242 1909.233 C 1398.670 1866.370,1358.870 1812.092,1328.382 1740.315 C 1312.129 1702.051,1308.162 1672.981,1308.142 1592.000 C 1308.123 1518.877,1311.419 1499.330,1332.049 1450.216 C 1383.631 1327.413,1499.949 1233.402,1629.366 1209.918 C 1665.605 1203.342,1679.111 1203.127,1737.006 1208.207 M1623.616 1309.950 L 1605.231 1319.527 1602.616 1356.378 C 1601.177 1376.646,1600.000 1452.201,1600.000 1524.278 L 1600.000 1655.328 1616.125 1668.099 C 1638.920 1686.153,1747.906 1751.043,1797.887 1776.320 C 1849.289 1802.315,1861.936 1803.447,1882.144 1783.861 C 1917.825 1749.277,1906.309 1736.882,1767.579 1660.546 L 1701.159 1623.998 1699.119 1478.745 C 1697.776 1383.129,1695.551 1330.635,1692.607 1325.135 C 1688.015 1316.554,1657.980 1299.854,1647.737 1300.186 C 1644.582 1300.289,1633.727 1304.682,1623.616 1309.950 M964.000 1310.413 C 800.183 1330.198,661.665 1371.008,522.930 1440.363 C 400.166 1501.733,344.950 1555.910,317.747 1641.682 C 306.171 1678.185,300.213 1740.480,300.121 1826.000 C 300.014 1925.073,309.925 1958.573,346.537 1982.882 L 368.081 1997.186 723.040 1999.140 C 1093.481 2001.178,1212.000 1999.004,1212.000 1990.170 C 1212.000 1987.431,1198.482 1957.129,1181.959 1922.832 C 1148.246 1852.849,1132.937 1809.518,1120.191 1748.000 C 1106.618 1682.493,1102.955 1624.346,1107.925 1553.271 C 1113.084 1479.492,1118.462 1449.624,1140.310 1373.392 C 1149.379 1341.746,1155.777 1313.187,1154.526 1309.927 C 1152.625 1304.976,1140.545 1304.071,1081.126 1304.429 C 1042.006 1304.665,989.300 1307.358,964.000 1310.413 " fill="#1D1E23" stroke="none" fill-rule="evenodd"/></svg>