<svg viewBox="0 0 2400 2400" fill="none" xmlns="http://www.w3.org/2000/svg"><path d="M1100 1200C1320.91 1200 1500 1020.91 1500 800 1500 579.086 1320.91 400 1100 400 879.086 400 700 579.086 700 800 700 1020.91 879.086 1200 1100 1200ZM1167 1302C1145 1301 1123 1300 1100 1300 858 1300 632 1367 439 1482 351 1534 300 1632 300 1735V1900C300 1955.23 344.772 2000 400 2000H1226C1147 1887 1100 1749 1100 1600 1100 1493 1125 1393 1167 1302ZM1701 1260.46C1701 1238.17 1727.96 1227.03 1743.7 1242.81L2082.39 1582.34C2092.12 1592.1 2092.12 1607.9 2082.39 1617.66L1743.7 1957.19C1727.96 1972.97 1701 1961.83 1701 1939.54V1700H1400C1344.77 1700 1300 1655.23 1300 1600 1300 1544.77 1344.77 1500 1400 1500H1701V1260.46Z" fill="#1D1E23"/></svg>