<svg viewBox="0 0 2400 2400" fill="none" xmlns="http://www.w3.org/2000/svg"><path fill-rule="evenodd" d="M860.002 740.001C981.502 740.001 1080.01 641.508 1080.01 520.008 1080.01 398.497 981.502 300 860.002 300 738.502 300 639.994 398.493 639.994 520.008 639.994 641.508 738.502 740.001 860.002 740.001ZM842.535 760.007H829.087V760.761C729.24 765.699 646.147 795.233 586.718 853.743 521.136 918.322 500 1002.75 500 1080V1450C500 1505.23 544.768 1550 600 1550 610.45 1550 620.536 1548.4 630.009 1545.43V2000C630.009 2055.23 674.777 2100 730.009 2100 785.227 2100 830.009 2055.23 830.009 2000V1499.57H889.999V2000C889.999 2055.23 934.781 2100 989.999 2100 1045.23 2100 1090 2055.23 1090 2000V1545.43C1099.47 1548.4 1109.56 1550 1120.01 1550 1175.24 1550 1220.01 1505.23 1220.01 1450V1080C1220.01 998.919 1193.96 915.408 1128.06 852.614 1065.53 793.029 978.547 762.939 875.532 760.203V760.008L842.535 760.007ZM1600.57 1050.85C1694.3 1050.85 1770.29 974.874 1770.29 881.146 1770.29 787.409 1694.3 711.426 1600.57 711.426 1506.84 711.426 1430.85 787.406 1430.85 881.146 1430.85 974.874 1506.84 1050.85 1600.57 1050.85ZM1587.09 1066.29H1576.72V1066.87C1499.69 1070.68 1435.59 1093.46 1389.75 1138.6 1339.16 1188.42 1322.85 1253.55 1322.85 1313.14V1598.57C1322.85 1641.18 1357.39 1675.71 1399.99 1675.71 1408.06 1675.71 1415.84 1674.47 1423.14 1672.18V2022.85C1423.14 2065.46 1457.68 2099.99 1500.29 2099.99 1542.88 2099.99 1577.43 2065.46 1577.43 2022.85V1636.8H1623.71V2022.85C1623.71 2065.46 1658.25 2099.99 1700.85 2099.99 1743.46 2099.99 1777.99 2065.46 1777.99 2022.85V1672.18C1785.3 1674.47 1793.08 1675.71 1801.14 1675.71 1843.75 1675.71 1878.28 1641.18 1878.28 1598.57V1313.14C1878.28 1250.59 1858.19 1186.17 1807.35 1137.73 1759.12 1091.76 1692.01 1068.55 1612.55 1066.44V1066.29L1587.09 1066.29Z" fill="#1D1E23"/></svg>