<svg viewBox="0 0 2400 2400" fill="none" xmlns="http://www.w3.org/2000/svg"><path d="M808.000 309.482 C 761.931 319.557,709.251 356.926,679.631 400.543 C 618.461 490.621,629.634 593.200,709.376 673.624 C 736.799 701.280,746.823 708.525,772.250 719.066 C 863.500 756.896,953.670 737.111,1020.883 664.513 C 1086.068 594.105,1095.909 484.893,1044.314 404.489 C 1026.262 376.358,989.321 342.801,960.247 328.125 C 915.849 305.713,857.760 298.600,808.000 309.482 M1565.058 718.166 C 1532.121 727.037,1504.122 743.165,1481.583 766.251 C 1457.007 791.423,1442.327 820.449,1435.539 857.290 C 1426.673 905.405,1443.329 957.364,1479.818 995.421 C 1527.764 1045.428,1591.728 1059.385,1663.500 1035.501 C 1685.171 1028.289,1693.927 1022.375,1715.766 1000.198 C 1730.352 985.386,1747.328 963.000,1754.000 949.779 C 1765.292 927.402,1765.993 923.287,1765.873 880.000 C 1765.755 837.323,1764.921 832.414,1754.321 812.044 C 1731.969 769.089,1683.036 730.940,1633.860 718.132 C 1605.507 710.747,1592.585 710.753,1565.058 718.166 M777.864 768.327 C 749.544 771.637,691.687 789.955,662.000 805.011 C 602.541 835.167,562.918 874.439,535.894 930.000 C 501.578 1000.552,502.579 991.026,502.271 1250.000 C 501.967 1506.183,499.971 1488.454,532.676 1520.192 C 550.994 1537.970,578.425 1548.000,608.726 1548.000 L 628.000 1548.000 628.020 1787.000 L 628.040 2026.000 643.053 2045.822 C 697.531 2117.749,769.039 2116.069,820.235 2041.659 L 832.000 2024.559 832.000 1762.279 L 832.000 1500.000 860.000 1500.000 L 888.000 1500.000 888.020 1763.000 L 888.040 2026.000 903.053 2045.822 C 957.531 2117.749,1029.039 2116.069,1080.235 2041.659 L 1092.000 2024.559 1092.000 1786.279 L 1092.000 1548.000 1108.738 1548.000 C 1135.573 1548.000,1170.134 1536.365,1187.530 1521.474 C 1217.906 1495.474,1217.468 1499.425,1217.534 1250.491 C 1217.574 1097.032,1216.156 1022.704,1212.870 1006.000 C 1210.273 992.800,1198.822 963.100,1187.424 940.000 C 1169.469 903.612,1161.844 893.143,1130.350 861.650 C 1098.797 830.096,1088.458 822.573,1052.000 804.641 C 1028.900 793.278,999.200 781.308,986.000 778.040 C 934.258 765.228,841.435 760.896,777.864 768.327 M1504.706 1079.850 C 1420.982 1102.537,1358.288 1159.376,1334.862 1233.834 C 1326.274 1261.130,1326.000 1267.437,1326.000 1438.000 C 1326.000 1534.800,1327.367 1618.879,1329.037 1624.843 C 1336.105 1650.079,1378.509 1676.000,1412.726 1676.000 L 1424.000 1676.000 1424.000 1863.188 L 1424.000 2050.376 1439.000 2064.561 C 1472.726 2096.453,1492.339 2103.759,1518.986 2094.358 C 1540.702 2086.696,1556.625 2074.717,1566.258 2058.797 C 1573.601 2046.659,1574.063 2035.443,1575.232 1841.000 L 1576.463 1636.000 1600.232 1636.000 L 1624.000 1636.000 1624.000 1838.199 C 1624.000 2062.644,1622.661 2051.018,1651.514 2077.085 C 1681.030 2103.751,1715.504 2105.187,1747.424 2081.083 C 1771.524 2062.884,1772.259 2058.007,1776.172 1890.393 C 1778.128 1806.577,1779.790 1724.284,1779.865 1707.520 L 1780.000 1677.040 1797.819 1675.032 C 1820.143 1672.516,1851.320 1657.149,1860.776 1644.000 C 1874.928 1624.324,1876.957 1592.761,1875.050 1422.000 C 1873.300 1265.315,1872.820 1256.850,1864.302 1232.216 C 1840.679 1163.897,1772.402 1102.256,1697.631 1081.745 C 1681.609 1077.349,1651.460 1074.723,1604.000 1073.587 C 1543.251 1072.134,1530.129 1072.961,1504.706 1079.850 " fill="#1D1E23" stroke="none" fill-rule="evenodd"/></svg>