<svg viewBox="0 0 2400 2400" fill="none" xmlns="http://www.w3.org/2000/svg"><path d="M814.116 306.373 C 777.569 314.537,751.205 327.411,722.991 350.869 C 641.119 418.941,617.664 524.209,663.943 615.888 C 690.140 667.783,735.518 708.109,789.136 727.142 C 828.482 741.109,889.374 741.670,927.546 728.417 C 994.406 705.203,1045.624 654.126,1068.350 588.000 C 1080.969 551.285,1080.999 488.694,1068.417 452.454 C 1058.488 423.858,1039.603 392.438,1017.911 368.428 C 971.458 317.010,884.724 290.600,814.116 306.373 M1564.000 717.570 C 1460.849 740.543,1403.210 855.541,1447.457 950.094 C 1476.156 1011.423,1532.475 1048.000,1598.205 1048.000 C 1629.356 1048.000,1669.853 1037.541,1689.566 1024.405 C 1713.835 1008.232,1740.418 978.133,1752.995 952.585 C 1765.387 927.413,1766.000 923.997,1766.000 880.084 C 1766.000 837.352,1765.158 832.285,1754.424 810.424 C 1731.996 764.746,1683.251 727.087,1632.803 716.464 C 1606.840 710.996,1592.480 711.227,1564.000 717.570 M794.000 764.269 C 703.471 775.359,615.646 818.034,570.851 872.700 C 534.997 916.455,511.500 971.151,504.134 1028.000 C 501.996 1044.500,500.208 1151.600,500.161 1266.000 L 500.075 1474.000 511.876 1494.576 C 533.309 1531.944,561.323 1548.000,605.092 1548.000 L 627.255 1548.000 628.628 1785.000 L 630.000 2022.000 639.352 2040.989 C 655.656 2074.096,695.448 2100.000,730.000 2100.000 C 764.552 2100.000,804.344 2074.096,820.648 2040.989 L 830.000 2022.000 831.385 1761.000 L 832.770 1500.000 860.019 1500.000 L 887.269 1500.000 888.634 1761.000 L 890.000 2022.000 899.352 2040.989 C 915.656 2074.096,955.448 2100.000,990.000 2100.000 C 1024.553 2100.000,1064.347 2074.094,1080.646 2040.989 L 1089.995 2022.000 1091.391 1785.000 L 1092.786 1548.000 1114.929 1548.000 C 1145.776 1548.000,1165.616 1541.107,1185.731 1523.401 C 1219.713 1493.489,1218.013 1508.041,1217.903 1248.000 C 1217.795 990.646,1218.893 1002.030,1188.000 938.000 C 1143.108 844.959,1050.305 781.703,939.107 768.351 C 888.299 762.250,825.012 760.470,794.000 764.269 M1540.000 1072.204 C 1468.749 1079.533,1397.993 1120.037,1362.173 1174.004 C 1354.087 1186.185,1342.815 1209.167,1337.123 1225.076 C 1326.787 1253.964,1326.771 1254.199,1324.969 1413.560 C 1323.977 1501.318,1324.433 1586.818,1325.983 1603.560 C 1328.676 1632.653,1329.550 1634.721,1345.733 1650.293 C 1364.463 1668.316,1392.306 1678.539,1411.959 1674.608 L 1424.000 1672.200 1424.000 1861.733 L 1424.000 2051.266 1441.251 2069.016 C 1451.040 2079.088,1466.804 2089.937,1477.692 2094.095 C 1494.379 2100.468,1499.292 2100.779,1515.368 2096.479 C 1537.215 2090.636,1557.703 2075.957,1568.326 2058.537 C 1575.589 2046.626,1575.971 2035.768,1575.985 1841.000 L 1576.000 1636.000 1599.830 1636.000 L 1623.659 1636.000 1624.830 1841.000 L 1626.000 2046.000 1635.282 2060.928 C 1653.867 2090.819,1688.948 2105.254,1721.115 2096.248 C 1740.543 2090.808,1762.177 2072.699,1769.089 2056.091 C 1771.655 2049.923,1774.427 1974.466,1776.218 1862.000 C 1777.830 1760.800,1779.340 1677.798,1779.574 1677.551 C 1779.808 1677.304,1790.089 1675.916,1802.421 1674.466 C 1827.880 1671.474,1837.217 1667.450,1853.357 1652.511 C 1876.340 1631.240,1876.000 1634.154,1876.000 1458.488 C 1876.000 1369.438,1874.136 1282.499,1871.858 1265.289 C 1865.807 1219.578,1846.177 1181.439,1810.350 1145.788 C 1761.833 1097.508,1716.892 1077.741,1642.481 1071.953 C 1588.700 1067.769,1582.987 1067.783,1540.000 1072.204 " fill="#1D1E23" stroke="none" fill-rule="evenodd"/></svg>