<svg viewBox="0 0 2400 2400" fill="none" xmlns="http://www.w3.org/2000/svg"><path d="M791.908 313.103 C 704.679 342.846,640.000 431.515,640.000 521.356 C 640.000 547.618,648.937 582.756,663.668 614.409 C 676.821 642.674,720.688 691.378,746.748 706.650 C 835.459 758.638,941.513 745.450,1013.481 673.481 C 1133.250 553.713,1078.102 351.941,914.160 310.086 C 878.293 300.930,823.656 302.278,791.908 313.103 M1565.834 717.580 C 1497.741 734.122,1447.958 786.598,1435.182 855.298 C 1418.079 947.266,1490.201 1039.834,1584.284 1046.667 C 1619.354 1049.214,1661.216 1040.736,1686.378 1025.990 C 1709.177 1012.629,1741.154 976.598,1754.706 948.999 C 1765.110 927.813,1766.000 922.375,1766.000 880.000 C 1766.000 836.991,1765.233 832.486,1754.199 810.709 C 1731.697 766.299,1676.860 725.266,1627.502 715.906 C 1602.001 711.069,1591.452 711.356,1565.834 717.580 M760.452 770.179 C 680.023 787.627,604.724 829.744,566.198 878.831 C 543.409 907.866,522.065 951.366,511.068 991.187 C 502.957 1020.554,502.483 1032.538,500.963 1246.587 C 499.494 1453.403,499.914 1472.236,506.277 1484.587 C 527.785 1526.343,554.235 1544.318,598.332 1547.148 L 627.818 1549.040 628.909 1788.148 L 630.000 2027.255 646.000 2050.512 C 665.414 2078.732,701.514 2100.000,730.000 2100.000 C 758.486 2100.000,794.586 2078.732,814.000 2050.512 L 830.000 2027.254 831.084 1763.627 L 832.168 1500.000 860.000 1500.000 L 887.832 1500.000 888.916 1763.627 L 890.000 2027.254 906.000 2050.512 C 925.414 2078.732,961.514 2100.000,990.000 2100.000 C 1018.486 2100.000,1054.586 2078.732,1074.000 2050.512 L 1090.000 2027.255 1091.091 1788.148 L 1092.182 1549.040 1121.668 1547.148 C 1170.221 1544.032,1208.194 1515.478,1214.730 1477.169 C 1216.528 1466.626,1217.919 1359.900,1217.819 1240.000 C 1217.616 995.386,1217.862 997.879,1188.097 938.921 C 1156.537 876.408,1109.610 830.444,1046.311 800.044 C 1009.288 782.264,980.258 774.169,932.105 768.201 C 885.194 762.387,791.386 763.468,760.452 770.179 M1540.000 1072.597 C 1451.953 1083.985,1382.160 1130.954,1347.799 1201.944 C 1332.383 1233.793,1330.824 1240.073,1327.329 1284.405 C 1325.248 1310.797,1324.098 1397.553,1324.773 1477.195 C 1325.938 1614.739,1326.411 1622.699,1334.194 1635.949 C 1346.796 1657.399,1376.677 1674.000,1402.686 1674.000 L 1424.000 1674.000 1424.000 1862.599 L 1424.000 2051.197 1446.218 2071.503 C 1473.084 2096.058,1491.352 2102.637,1514.990 2096.272 C 1538.105 2090.048,1564.965 2068.647,1570.774 2051.825 C 1574.214 2041.864,1575.612 1981.815,1575.774 1837.000 L 1576.000 1636.000 1600.000 1636.000 L 1624.000 1636.000 1624.000 1839.217 L 1624.000 2042.434 1635.602 2060.728 C 1651.089 2085.149,1684.218 2102.267,1708.484 2098.387 C 1729.421 2095.039,1743.032 2087.835,1757.829 2072.273 C 1769.103 2060.415,1769.793 2057.629,1772.526 2012.916 C 1774.103 1987.112,1775.530 1936.139,1775.697 1899.643 C 1775.863 1863.147,1777.185 1797.897,1778.634 1754.643 L 1781.268 1676.000 1791.998 1676.000 C 1811.775 1676.000,1841.055 1664.547,1854.437 1651.576 C 1875.643 1631.023,1876.940 1616.880,1875.072 1426.614 C 1873.507 1267.203,1872.946 1256.581,1864.808 1232.000 C 1840.237 1157.785,1764.101 1093.078,1684.000 1078.332 C 1642.206 1070.638,1575.643 1067.987,1540.000 1072.597 " fill="#1D1E23" stroke="none" fill-rule="evenodd"/></svg>