<svg viewBox="0 0 2400 2400" fill="none" xmlns="http://www.w3.org/2000/svg"><path d="M606.000 307.894 C 439.523 309.981,437.837 310.085,420.000 319.381 C 375.315 342.668,337.624 380.884,317.605 423.201 C 308.012 443.480,306.682 452.149,303.708 513.813 C 299.369 603.786,299.450 1798.524,303.802 1886.000 C 307.632 1962.980,310.650 1973.310,341.493 2015.005 C 361.303 2041.783,398.738 2072.044,428.000 2084.931 C 442.565 2091.346,460.120 2093.506,520.000 2096.248 C 614.878 2100.594,1782.071 2100.694,1880.092 2096.365 C 1947.942 2093.369,1956.030 2092.215,1976.092 2082.672 C 2008.566 2067.223,2044.247 2036.272,2065.214 2005.364 C 2100.466 1953.396,2097.486 2024.918,2099.036 1193.871 L 2100.409 457.743 2084.321 425.871 C 2058.174 374.070,2026.733 343.685,1969.133 314.554 L 1948.266 304.000 1361.133 304.894 C 1038.210 305.386,698.400 306.736,606.000 307.894 M1254.114 720.078 C 1263.819 726.756,1276.589 738.550,1282.491 746.289 C 1293.211 760.342,1293.226 760.465,1296.364 857.179 C 1298.091 910.431,1299.616 986.850,1299.752 1027.000 L 1300.000 1100.000 1367.000 1100.178 C 1403.850 1100.276,1478.479 1101.863,1532.843 1103.705 C 1628.670 1106.953,1632.217 1107.367,1649.123 1117.275 C 1711.657 1153.922,1709.439 1248.954,1645.169 1286.733 L 1626.000 1298.000 1463.694 1299.371 L 1301.388 1300.742 1297.595 1468.168 L 1293.802 1635.593 1281.789 1652.685 C 1275.182 1662.085,1262.022 1675.227,1252.544 1681.888 C 1236.514 1693.154,1232.846 1694.000,1200.000 1694.000 C 1167.154 1694.000,1163.486 1693.154,1147.456 1681.888 C 1137.978 1675.227,1125.019 1662.372,1118.658 1653.321 L 1107.093 1636.866 1103.724 1537.433 C 1101.872 1482.745,1100.276 1406.950,1100.178 1369.000 L 1100.000 1300.000 987.000 1299.744 C 924.850 1299.603,848.348 1298.117,816.996 1296.441 C 762.022 1293.502,759.480 1292.977,745.576 1281.697 C 720.986 1261.747,707.831 1239.968,705.247 1214.924 C 700.895 1172.756,715.855 1138.798,748.222 1117.379 C 763.487 1107.276,765.760 1107.005,862.898 1103.714 C 917.404 1101.867,993.050 1100.276,1031.000 1100.178 L 1100.000 1100.000 1100.259 1017.000 C 1100.401 971.350,1101.909 895.830,1103.610 849.178 C 1106.612 766.816,1107.006 763.896,1117.193 748.502 C 1129.140 730.448,1150.199 713.153,1166.740 707.810 C 1172.933 705.809,1191.155 705.019,1207.234 706.055 C 1231.454 707.615,1239.494 710.020,1254.114 720.078 " fill="#1D1E23" stroke="none" fill-rule="evenodd"/></svg>