<svg viewBox="0 0 2400 2400" fill="none" xmlns="http://www.w3.org/2000/svg"><path d="M1155.707 511.910 C 1138.086 521.225,1113.124 548.334,1105.611 566.313 C 1100.992 577.369,1100.000 625.638,1100.000 839.409 L 1100.000 1099.074 845.000 1101.223 C 689.514 1102.533,582.195 1105.025,570.000 1107.607 C 543.746 1113.167,515.172 1142.361,506.107 1172.889 C 498.519 1198.438,498.529 1201.594,506.268 1227.654 C 513.746 1252.837,537.144 1279.968,561.589 1291.801 C 578.132 1299.809,584.591 1300.000,839.263 1300.000 L 1100.000 1300.000 1100.000 1560.737 C 1100.000 1815.409,1100.191 1821.868,1108.199 1838.411 C 1120.501 1863.823,1147.231 1886.390,1174.378 1894.282 C 1193.827 1899.936,1200.671 1900.228,1218.778 1896.176 C 1243.876 1890.559,1268.785 1872.878,1285.898 1848.532 L 1298.000 1831.316 1299.083 1565.658 L 1300.167 1300.000 1560.820 1300.000 C 1815.408 1300.000,1821.868 1299.809,1838.411 1291.801 C 1863.823 1279.499,1886.390 1252.769,1894.282 1225.622 C 1899.936 1206.173,1900.228 1199.329,1896.176 1181.222 C 1888.075 1145.027,1859.543 1114.320,1827.433 1107.241 C 1817.845 1105.127,1695.250 1102.424,1555.000 1101.236 L 1300.000 1099.074 1300.000 838.800 C 1300.000 584.238,1299.819 578.152,1291.766 561.517 C 1282.252 541.864,1257.100 517.723,1237.687 509.611 C 1218.020 501.394,1173.223 502.650,1155.707 511.910 " fill="#1D1E23" stroke="none" fill-rule="evenodd"/></svg>