<svg viewBox="0 0 2400 2400" fill="none" xmlns="http://www.w3.org/2000/svg"><path d="M1062.000 210.040 C 838.845 245.765,647.360 340.791,498.022 489.920 C 335.373 652.340,239.530 845.602,207.371 1076.000 C 199.343 1133.512,200.542 1278.601,209.535 1338.000 C 259.968 1671.099,465.368 1953.685,762.000 2098.072 C 996.553 2212.242,1262.178 2230.922,1508.000 2150.533 C 1764.708 2066.585,1981.131 1878.587,2098.027 1638.000 C 2234.203 1357.731,2233.307 1038.111,2095.564 760.000 C 2043.904 655.694,1982.750 570.004,1904.273 491.959 C 1757.151 345.647,1581.994 255.288,1368.000 215.310 C 1310.952 204.652,1116.566 201.304,1062.000 210.040 M1326.000 411.837 C 1622.919 460.750,1864.045 666.230,1959.754 951.902 C 1999.698 1071.128,2008.586 1220.991,1983.463 1351.671 C 1917.079 1696.981,1632.628 1957.109,1279.158 1995.753 C 1025.610 2023.473,757.215 1914.525,591.610 1716.662 C 393.891 1480.428,345.941 1159.772,467.097 884.000 C 573.880 640.941,790.372 466.063,1046.000 416.371 C 1138.265 398.435,1235.125 396.867,1326.000 411.837 M1172.308 704.611 C 1145.306 710.920,1110.552 747.189,1104.509 775.368 C 1101.613 788.871,1100.000 850.568,1100.000 947.821 L 1100.000 1099.247 937.000 1100.777 C 755.854 1102.477,757.782 1102.205,730.979 1129.803 C 709.641 1151.775,702.239 1169.854,702.239 1200.000 C 702.239 1230.146,709.641 1248.225,730.979 1270.197 C 758.120 1298.143,755.700 1297.801,936.722 1299.252 L 1099.444 1300.556 1100.748 1463.278 C 1102.199 1644.300,1101.857 1641.880,1129.803 1669.021 C 1151.775 1690.359,1169.854 1697.761,1200.000 1697.761 C 1230.146 1697.761,1248.225 1690.359,1270.197 1669.021 C 1298.143 1641.880,1297.801 1644.300,1299.252 1463.278 L 1300.556 1300.556 1463.278 1299.252 C 1644.300 1297.801,1641.880 1298.143,1669.021 1270.197 C 1690.359 1248.225,1697.761 1230.146,1697.761 1200.000 C 1697.761 1169.854,1690.359 1151.775,1669.021 1129.803 C 1642.222 1102.209,1644.116 1102.477,1463.277 1100.779 L 1300.555 1099.251 1299.251 936.626 C 1297.815 757.396,1297.973 758.589,1272.109 732.725 C 1245.964 706.579,1208.752 696.097,1172.308 704.611 " fill="#1D1E23" stroke="none" fill-rule="evenodd"/></svg>