<svg viewBox="0 0 2400 2400" fill="none" xmlns="http://www.w3.org/2000/svg"><path d="M1062.000 210.040 C 838.845 245.765,647.360 340.791,498.022 489.920 C 335.373 652.340,239.530 845.602,207.371 1076.000 C 199.343 1133.512,200.542 1278.601,209.535 1338.000 C 259.968 1671.099,465.368 1953.685,762.000 2098.072 C 996.553 2212.242,1262.178 2230.922,1508.000 2150.533 C 1764.708 2066.585,1981.131 1878.587,2098.027 1638.000 C 2234.203 1357.731,2233.307 1038.111,2095.564 760.000 C 2043.904 655.694,1982.750 570.004,1904.273 491.959 C 1757.151 345.647,1581.994 255.288,1368.000 215.310 C 1310.952 204.652,1116.566 201.304,1062.000 210.040 M1244.071 712.036 C 1265.003 722.715,1286.951 746.053,1292.552 763.587 C 1295.568 773.029,1297.775 833.326,1298.953 938.424 L 1300.751 1098.848 1463.478 1100.885 C 1617.001 1102.806,1627.107 1103.382,1642.155 1111.059 C 1677.317 1128.997,1696.800 1160.708,1696.800 1200.000 C 1696.800 1240.081,1675.078 1274.051,1637.956 1292.021 C 1622.329 1299.586,1613.156 1300.000,1461.117 1300.000 L 1300.760 1300.000 1298.957 1461.000 C 1297.776 1566.522,1295.569 1626.967,1292.552 1636.413 C 1286.876 1654.182,1265.078 1677.161,1242.775 1688.886 C 1230.501 1695.338,1219.024 1697.712,1200.000 1697.733 C 1169.851 1697.766,1151.798 1690.382,1129.803 1669.021 C 1102.209 1642.222,1102.477 1644.116,1100.779 1463.277 L 1099.251 1300.555 936.626 1299.251 C 757.396 1297.815,758.589 1297.973,732.725 1272.109 C 711.170 1250.555,702.296 1229.525,702.296 1200.000 C 702.296 1170.475,711.170 1149.445,732.725 1127.891 C 758.241 1102.374,757.590 1102.461,937.000 1100.777 L 1100.000 1099.247 1100.176 958.624 C 1100.380 794.764,1102.709 766.014,1117.487 744.861 C 1145.834 704.288,1200.895 690.009,1244.071 712.036 " fill="#1D1E23" stroke="none" fill-rule="evenodd"/></svg>