<svg viewBox="0 0 2400 2400" fill="none" xmlns="http://www.w3.org/2000/svg"><path d="M1168.679 507.766 C 1151.852 512.004,1130.776 528.998,1114.579 551.390 L 1102.000 568.780 1100.839 834.390 L 1099.678 1100.000 976.839 1100.287 C 909.278 1100.444,789.990 1101.922,711.756 1103.570 C 571.134 1106.532,569.310 1106.677,551.756 1116.335 C 520.727 1133.407,496.174 1180.352,502.008 1211.451 C 507.838 1242.528,531.035 1275.017,557.503 1289.175 C 573.968 1297.983,574.516 1298.002,837.000 1299.137 L 1100.000 1300.273 1100.000 1554.365 C 1100.000 1726.458,1101.425 1814.117,1104.416 1825.995 C 1110.148 1848.757,1129.741 1871.302,1156.565 1886.000 C 1199.975 1909.786,1247.333 1897.022,1282.708 1852.000 L 1299.995 1830.000 1299.997 1565.137 L 1300.000 1300.273 1563.000 1299.137 C 1825.484 1298.002,1826.032 1297.983,1842.497 1289.175 C 1874.382 1272.119,1897.476 1234.810,1897.715 1199.969 C 1897.917 1170.638,1880.736 1139.043,1855.096 1121.591 C 1830.727 1105.003,1826.380 1104.727,1539.000 1101.464 L 1300.000 1098.750 1299.905 846.375 C 1299.852 707.569,1298.170 586.933,1296.167 578.295 C 1290.975 555.910,1272.848 532.103,1250.453 518.257 C 1235.352 508.921,1225.806 506.117,1206.577 505.368 C 1193.060 504.842,1176.005 505.921,1168.679 507.766 " fill="#1D1E23" stroke="none" fill-rule="evenodd"/></svg>