<svg viewBox="0 0 2400 2400" fill="none" xmlns="http://www.w3.org/2000/svg"><path d="M1174.471 504.259 C 1150.887 510.084,1122.041 533.310,1111.298 555.122 L 1102.000 574.000 1100.765 837.000 L 1099.530 1100.000 866.765 1100.108 C 615.553 1100.225,567.802 1102.526,546.770 1115.524 C 528.293 1126.943,508.875 1155.600,503.327 1179.635 C 493.795 1220.931,517.081 1269.966,555.122 1288.702 L 574.000 1298.000 836.766 1299.234 L 1099.531 1300.469 1100.766 1563.234 L 1102.000 1826.000 1111.298 1844.878 C 1130.072 1882.997,1179.061 1906.207,1220.537 1896.633 C 1248.444 1890.192,1277.101 1868.434,1288.702 1844.878 L 1298.000 1826.000 1299.234 1563.234 L 1300.469 1300.469 1563.234 1299.234 L 1826.000 1298.000 1844.878 1288.702 C 1882.919 1269.966,1906.205 1220.931,1896.673 1179.635 C 1891.125 1155.600,1871.707 1126.943,1853.230 1115.524 C 1832.198 1102.526,1784.447 1100.225,1533.235 1100.108 L 1300.470 1100.000 1299.235 837.000 L 1298.000 574.000 1288.799 555.321 C 1269.455 516.053,1218.628 493.352,1174.471 504.259 " fill="#1D1E23" stroke="none" fill-rule="evenodd"/></svg>