<svg viewBox="0 0 2400 2400" fill="none" xmlns="http://www.w3.org/2000/svg"><path d="M1112.000 203.923 C 833.630 231.768,590.463 362.388,419.326 576.000 C 147.365 915.458,126.704 1391.677,368.248 1753.288 C 676.969 2215.470,1294.618 2338.595,1756.000 2029.929 C 2215.492 1722.528,2337.727 1104.086,2029.929 644.000 C 1872.846 409.198,1631.891 256.219,1349.288 211.869 C 1290.914 202.708,1165.973 198.524,1112.000 203.923 M1234.017 706.625 C 1245.651 710.589,1260.290 720.080,1270.465 730.255 C 1299.030 758.819,1300.000 765.859,1300.000 944.597 L 1300.000 1099.743 1463.115 1100.871 L 1626.231 1102.000 1646.078 1112.218 C 1716.170 1148.304,1716.170 1251.696,1646.078 1287.782 L 1626.231 1298.000 1463.115 1299.129 L 1300.000 1300.257 1300.000 1455.403 C 1300.000 1634.141,1299.030 1641.181,1270.465 1669.745 C 1230.966 1709.244,1169.192 1709.402,1129.895 1670.105 C 1100.650 1640.860,1100.000 1636.235,1100.000 1457.287 L 1100.000 1300.000 942.713 1300.000 C 763.765 1300.000,759.140 1299.350,729.895 1270.105 C 690.768 1230.979,690.768 1169.021,729.895 1129.895 C 759.140 1100.650,763.765 1100.000,942.713 1100.000 L 1100.000 1100.000 1100.000 942.713 C 1100.000 763.690,1100.639 759.151,1129.967 729.823 C 1157.748 702.041,1195.720 693.575,1234.017 706.625 " fill="#1D1E23" stroke="none" fill-rule="evenodd"/></svg>