<svg viewBox="0 0 2400 2400" fill="none" xmlns="http://www.w3.org/2000/svg"><path d="M1092.000 208.195 C 959.583 217.612,774.985 284.088,650.000 367.365 C 586.905 409.405,555.098 435.257,502.648 487.127 C 363.854 624.385,276.854 775.163,230.161 959.365 C 205.012 1058.578,196.820 1154.108,203.644 1268.604 C 217.530 1501.574,324.411 1736.163,494.112 1906.139 C 648.455 2060.734,836.826 2154.470,1066.000 2190.721 C 1127.908 2200.514,1272.321 2200.465,1336.000 2190.631 C 1552.475 2157.198,1739.395 2065.492,1891.594 1918.045 C 1952.477 1859.063,1990.768 1813.407,2034.144 1748.075 C 2183.778 1522.703,2235.142 1240.028,2173.711 980.000 C 2081.156 588.228,1778.378 295.484,1387.331 219.679 C 1363.443 215.049,1313.780 210.156,1268.185 207.941 C 1181.755 203.743,1154.037 203.783,1092.000 208.195 M1252.296 718.015 C 1261.614 724.607,1274.717 736.802,1281.412 745.116 L 1293.586 760.231 1296.506 845.116 C 1298.111 891.802,1299.554 967.957,1299.713 1014.350 L 1300.000 1098.700 1459.000 1101.366 C 1546.450 1102.833,1624.300 1105.789,1632.000 1107.934 C 1652.756 1113.718,1675.791 1134.768,1686.477 1157.717 C 1709.156 1206.421,1689.858 1263.542,1642.000 1289.366 C 1626.471 1297.746,1621.219 1298.034,1463.637 1299.167 L 1301.274 1300.333 1298.506 1457.167 C 1296.984 1543.425,1294.666 1620.760,1293.354 1629.022 C 1290.412 1647.563,1265.434 1677.065,1242.980 1688.520 C 1221.021 1699.723,1179.076 1699.807,1157.532 1688.692 C 1135.031 1677.082,1112.027 1651.653,1107.622 1633.520 C 1105.549 1624.984,1102.707 1546.632,1101.308 1459.404 L 1098.763 1300.808 938.382 1298.942 C 836.262 1297.754,772.874 1295.449,763.889 1292.596 C 746.568 1287.096,718.537 1259.186,710.189 1239.128 C 701.632 1218.567,702.344 1177.942,711.611 1158.000 C 721.902 1135.854,747.706 1112.176,766.480 1107.652 C 775.016 1105.594,853.332 1102.750,940.515 1101.330 L 1099.031 1098.748 1101.097 940.374 C 1102.453 836.474,1104.775 776.743,1107.848 766.717 C 1113.880 747.038,1137.595 720.813,1158.000 711.257 C 1170.208 705.539,1181.270 704.032,1204.677 704.897 C 1231.320 705.881,1237.581 707.606,1252.296 718.015 " fill="#1D1E23" stroke="none" fill-rule="evenodd"/></svg>