<svg viewBox="0 0 2400 2400" fill="none" xmlns="http://www.w3.org/2000/svg"><path d="M1175.666 507.607 C 1154.009 512.014,1133.312 526.606,1115.781 549.825 L 1100.000 570.727 1100.000 835.363 L 1100.000 1100.000 995.000 1100.149 C 791.181 1100.439,574.326 1106.921,559.369 1113.170 C 526.947 1126.717,495.437 1181.757,502.179 1213.067 C 508.528 1242.554,529.747 1271.984,555.626 1287.198 L 574.000 1298.000 836.814 1299.343 L 1099.627 1300.686 1100.814 1563.343 L 1102.000 1826.000 1112.802 1844.374 C 1131.317 1875.868,1165.361 1896.345,1199.652 1896.610 C 1231.963 1896.861,1259.185 1881.234,1286.683 1846.651 L 1299.922 1830.000 1299.961 1565.000 L 1300.000 1300.000 1523.378 1300.000 C 1646.236 1300.000,1766.162 1298.813,1789.882 1297.361 C 1829.228 1294.954,1834.620 1293.639,1851.388 1282.361 C 1876.783 1265.281,1893.079 1237.676,1895.217 1208.114 C 1897.339 1178.776,1890.963 1159.316,1872.517 1138.836 C 1844.319 1107.529,1843.777 1107.441,1656.316 1103.716 C 1564.842 1101.898,1447.346 1100.318,1395.213 1100.205 L 1300.425 1100.000 1299.213 839.000 C 1298.148 609.790,1297.219 576.295,1291.590 564.000 C 1284.531 548.580,1253.066 517.718,1238.969 512.386 C 1224.623 506.960,1191.231 504.439,1175.666 507.607 " fill="#1D1E23" stroke="none" fill-rule="evenodd"/></svg>