<svg viewBox="0 0 2400 2400" fill="none" xmlns="http://www.w3.org/2000/svg"><path d="M1092.000 208.195 C 959.583 217.612,774.985 284.088,650.000 367.365 C 586.905 409.405,555.098 435.257,502.648 487.127 C 363.854 624.385,276.854 775.163,230.161 959.365 C 205.012 1058.578,196.820 1154.108,203.644 1268.604 C 217.530 1501.574,324.411 1736.163,494.112 1906.139 C 648.455 2060.734,836.826 2154.470,1066.000 2190.721 C 1127.908 2200.514,1272.321 2200.465,1336.000 2190.631 C 1552.475 2157.198,1739.395 2065.492,1891.594 1918.045 C 1952.477 1859.063,1990.768 1813.407,2034.144 1748.075 C 2183.778 1522.703,2235.142 1240.028,2173.711 980.000 C 2081.156 588.228,1778.378 295.484,1387.331 219.679 C 1363.443 215.049,1313.780 210.156,1268.185 207.941 C 1181.755 203.743,1154.037 203.783,1092.000 208.195 M1334.000 413.196 C 1556.501 455.615,1742.195 575.670,1862.388 754.808 C 1895.177 803.677,1939.639 893.551,1956.974 946.000 C 2010.125 1106.816,2009.634 1291.421,1955.621 1454.000 C 1887.993 1657.562,1740.916 1824.258,1546.000 1918.262 C 1461.934 1958.806,1367.838 1986.140,1279.158 1995.778 C 1050.475 2020.633,804.518 1932.489,637.987 1766.002 C 434.541 1562.609,354.846 1265.491,429.870 990.104 C 479.378 808.375,600.474 641.992,762.786 532.684 C 850.943 473.316,972.202 426.959,1082.947 410.288 C 1134.142 402.581,1287.650 404.359,1334.000 413.196 M1149.579 717.000 C 1124.663 733.760,1109.080 756.527,1104.028 783.546 C 1101.788 795.527,1100.000 870.277,1100.000 951.922 L 1100.000 1098.751 941.000 1101.302 C 853.550 1102.705,775.016 1105.549,766.480 1107.622 C 748.210 1112.060,722.894 1135.075,711.073 1157.994 C 699.736 1179.973,699.736 1220.027,711.073 1242.006 C 721.950 1263.094,747.058 1287.003,764.228 1292.623 C 773.090 1295.524,835.252 1297.787,938.594 1298.971 L 1099.188 1300.812 1101.029 1461.406 C 1102.213 1564.748,1104.476 1626.910,1107.377 1635.772 C 1112.950 1652.801,1136.856 1678.024,1157.532 1688.692 C 1178.920 1699.727,1221.080 1699.727,1242.468 1688.692 C 1263.144 1678.024,1287.050 1652.801,1292.623 1635.772 C 1295.524 1626.910,1297.787 1564.748,1298.971 1461.406 L 1300.812 1300.812 1461.406 1298.971 C 1564.748 1297.787,1626.910 1295.524,1635.772 1292.623 C 1652.801 1287.050,1678.024 1263.144,1688.692 1242.468 C 1699.727 1221.080,1699.727 1178.920,1688.692 1157.532 C 1677.082 1135.031,1651.653 1112.027,1633.520 1107.622 C 1624.984 1105.549,1546.632 1102.707,1459.404 1101.308 L 1300.808 1098.763 1298.942 938.382 C 1297.724 833.676,1295.479 772.949,1292.475 763.451 C 1287.090 746.427,1258.949 719.011,1237.781 710.166 C 1229.421 706.673,1211.292 704.000,1195.964 704.000 C 1172.066 704.000,1166.646 705.519,1149.579 717.000 " fill="#1D1E23" stroke="none" fill-rule="evenodd"/></svg>