<svg viewBox="0 0 2400 2400" fill="none" xmlns="http://www.w3.org/2000/svg"><path d="M1164.342 506.868 C 1154.630 510.299,1139.161 520.628,1129.967 529.823 C 1099.196 560.593,1100.000 552.200,1100.000 842.713 L 1100.000 1100.000 842.713 1100.000 C 552.292 1100.000,560.582 1099.208,529.895 1129.895 C 490.768 1169.021,490.768 1230.979,529.895 1270.105 C 560.582 1300.792,552.292 1300.000,842.713 1300.000 L 1100.000 1300.000 1100.000 1557.287 C 1100.000 1847.708,1099.208 1839.418,1129.895 1870.105 C 1169.021 1909.232,1230.979 1909.232,1270.105 1870.105 C 1300.792 1839.418,1300.000 1847.708,1300.000 1557.287 L 1300.000 1300.000 1557.287 1300.000 C 1847.708 1300.000,1839.418 1300.792,1870.105 1270.105 C 1909.232 1230.979,1909.232 1169.021,1870.105 1129.895 C 1839.418 1099.208,1847.708 1100.000,1557.287 1100.000 L 1300.000 1100.000 1300.000 842.713 C 1300.000 552.292,1300.792 560.582,1270.105 529.895 C 1242.352 502.141,1202.370 493.437,1164.342 506.868 " fill="#1D1E23" stroke="none" fill-rule="evenodd"/></svg>