<svg viewBox="0 0 2400 2400" fill="none" xmlns="http://www.w3.org/2000/svg"><path d="M842.303 105.284 C 830.785 113.706,835.610 127.934,873.295 196.666 C 891.790 230.400,911.656 267.373,917.442 278.828 L 927.961 299.656 918.980 306.013 C 914.041 309.510,893.800 322.897,874.000 335.762 C 797.397 385.538,735.515 450.492,688.950 530.000 C 652.190 592.766,625.812 678.138,621.284 749.000 L 618.792 788.000 1229.396 788.000 L 1840.000 788.000 1839.976 769.000 C 1839.934 734.525,1828.308 671.932,1814.012 629.210 C 1790.433 558.747,1752.421 492.937,1700.843 433.283 C 1674.533 402.853,1612.234 351.067,1572.952 326.974 C 1554.776 315.826,1538.196 304.646,1536.108 302.130 C 1533.548 299.046,1546.728 270.901,1576.544 215.777 C 1600.872 170.800,1621.727 128.214,1622.889 121.142 C 1624.712 110.040,1623.503 107.602,1614.030 103.286 C 1599.640 96.729,1598.627 98.037,1545.673 191.541 C 1522.481 232.494,1500.940 269.462,1497.805 273.692 C 1492.251 281.188,1490.752 280.962,1439.053 264.826 C 1349.471 236.867,1329.707 233.988,1228.000 234.089 C 1126.863 234.189,1099.318 238.358,1013.740 266.514 C 960.159 284.143,969.454 289.183,931.632 222.000 C 883.593 136.672,861.936 102.031,855.923 100.906 C 852.580 100.280,846.451 102.251,842.303 105.284 M976.549 474.284 C 993.903 483.258,1006.052 511.663,1000.165 529.500 C 994.859 545.576,977.773 562.497,963.212 566.095 C 947.932 569.871,925.996 561.527,914.131 547.426 C 902.019 533.032,900.313 505.346,910.573 489.687 C 924.145 468.973,953.173 462.196,976.549 474.284 M1532.131 474.068 C 1560.987 488.990,1564.565 540.226,1537.968 557.653 C 1503.438 580.278,1460.000 558.289,1460.000 518.184 C 1460.000 479.068,1497.476 456.147,1532.131 474.068 M1997.375 812.000 C 1942.741 823.353,1901.465 867.379,1892.259 924.121 C 1887.113 955.840,1886.724 1434.994,1891.784 1508.984 C 1895.906 1569.252,1902.315 1585.846,1932.299 1613.893 C 1961.091 1640.824,1981.893 1648.874,2023.875 1649.328 C 2054.214 1649.656,2061.296 1648.305,2081.796 1638.275 C 2112.074 1623.461,2133.785 1601.399,2148.319 1570.678 L 2159.994 1546.000 2159.997 1229.639 L 2160.000 913.278 2147.893 889.050 C 2119.850 832.931,2055.404 799.941,1997.375 812.000 M398.893 817.433 C 374.076 824.427,339.643 848.312,326.002 867.997 C 301.047 904.008,302.144 888.181,300.811 1231.372 L 299.594 1544.744 311.402 1569.977 C 326.015 1601.203,347.678 1623.328,378.424 1638.424 C 399.026 1648.540,406.289 1649.967,436.000 1649.736 C 461.562 1649.537,474.683 1647.374,488.869 1641.019 C 515.549 1629.066,545.746 1599.262,559.927 1570.882 L 572.000 1546.722 572.000 1232.000 L 572.000 917.278 559.927 893.118 C 546.019 865.286,515.582 834.904,490.485 823.802 C 467.481 813.627,423.300 810.554,398.893 817.433 M624.871 1293.000 L 626.000 1750.000 637.497 1774.889 C 651.054 1804.239,682.471 1835.942,710.837 1848.895 C 727.640 1856.568,738.499 1857.832,799.000 1859.153 L 868.000 1860.661 868.000 2027.692 L 868.000 2194.722 880.154 2219.045 C 895.570 2249.895,919.904 2274.423,948.000 2287.432 C 977.571 2301.124,1028.310 2301.857,1056.938 2289.006 C 1082.945 2277.332,1113.881 2245.198,1128.148 2215.039 L 1139.994 2190.000 1139.997 2025.000 L 1140.000 1860.000 1230.000 1860.000 L 1320.000 1860.000 1320.079 2005.000 C 1320.163 2159.000,1322.942 2194.997,1336.906 2222.956 C 1347.960 2245.090,1378.682 2273.994,1403.131 2285.263 C 1431.373 2298.280,1486.394 2297.738,1514.000 2284.171 C 1539.558 2271.611,1567.611 2243.558,1580.171 2218.000 L 1590.000 2198.000 1591.199 2029.392 L 1592.399 1860.784 1661.199 1859.392 C 1727.769 1858.045,1730.771 1857.621,1753.782 1846.323 C 1784.365 1831.307,1807.295 1808.167,1823.271 1776.196 L 1836.000 1750.722 1836.000 1293.361 L 1836.000 836.000 1229.871 836.000 L 623.742 836.000 624.871 1293.000 " fill="#1D1E23" stroke="none" fill-rule="evenodd"/></svg>