<svg viewBox="0 0 2400 2400" fill="none" xmlns="http://www.w3.org/2000/svg"><path d="M843.000 104.320 C 839.150 106.563,836.000 110.757,836.000 113.641 C 836.000 120.658,869.464 190.566,901.609 250.703 L 927.643 299.405 882.821 331.151 C 798.903 390.589,745.593 443.713,702.165 511.177 C 658.179 579.508,627.822 670.884,621.415 754.237 L 618.820 788.000 1229.410 788.000 L 1840.000 788.000 1839.995 769.000 C 1839.982 724.481,1820.400 643.710,1795.735 586.439 C 1752.194 485.339,1690.233 412.824,1576.702 330.099 C 1542.566 305.227,1539.625 302.035,1542.018 292.461 C 1543.456 286.707,1561.590 246.893,1582.316 203.985 C 1622.268 121.276,1627.077 104.000,1610.149 104.000 C 1598.750 104.000,1587.291 119.699,1538.492 202.171 C 1521.513 230.866,1503.459 259.563,1498.371 265.944 L 1489.121 277.545 1424.940 260.738 C 1368.023 245.834,1352.397 243.421,1286.892 239.418 C 1181.851 232.999,1121.476 238.034,1036.165 260.326 L 970.774 277.413 962.129 266.571 C 957.374 260.608,934.862 225.067,912.102 187.591 C 869.962 118.203,857.537 99.905,852.710 100.122 C 851.219 100.189,846.850 102.078,843.000 104.320 M969.311 473.454 C 991.767 482.837,1005.644 513.656,995.902 532.511 C 988.521 546.798,975.150 560.405,964.424 564.544 C 942.708 572.925,910.997 550.045,905.779 522.230 C 902.134 502.802,906.495 493.140,924.940 479.779 C 943.142 466.593,950.410 465.557,969.311 473.454 M1537.853 481.489 C 1549.004 492.641,1555.922 514.605,1553.037 529.699 C 1547.668 557.785,1512.384 573.488,1485.677 559.677 C 1465.824 549.410,1457.931 515.339,1470.000 492.000 C 1478.027 476.478,1486.327 472.267,1509.182 472.122 C 1524.135 472.027,1530.455 474.092,1537.853 481.489 M395.333 819.709 C 378.482 825.113,340.561 851.798,329.935 865.729 C 302.802 901.302,300.181 938.416,300.115 1288.000 L 300.065 1550.000 311.033 1569.071 C 324.814 1593.035,360.404 1629.276,379.482 1638.773 C 399.466 1648.721,472.297 1649.136,490.000 1639.402 C 511.291 1627.695,541.024 1598.685,556.889 1574.139 L 572.354 1550.212 571.177 1232.106 C 569.835 869.412,572.902 899.486,533.149 859.202 C 520.775 846.664,502.405 832.887,492.326 828.588 C 471.692 819.787,412.101 814.332,395.333 819.709 M1961.811 827.423 C 1938.220 841.226,1915.989 864.610,1903.443 888.820 C 1895.394 904.352,1894.255 914.252,1891.571 992.000 C 1887.373 1113.588,1887.502 1441.169,1891.769 1496.000 C 1897.118 1564.738,1901.113 1576.621,1928.831 1606.252 C 1959.493 1639.030,1976.798 1645.925,2028.000 1645.766 C 2056.048 1645.679,2069.829 1643.789,2080.621 1638.548 C 2099.638 1629.313,2129.838 1599.425,2146.658 1573.192 L 2160.000 1552.384 2160.000 1232.033 C 2160.000 864.421,2163.596 898.342,2120.120 855.801 C 2087.551 823.932,2074.371 818.608,2024.000 816.973 C 1983.536 815.660,1981.262 816.042,1961.811 827.423 M624.038 1293.000 L 624.075 1750.000 636.681 1772.000 C 652.249 1799.171,692.570 1839.805,714.000 1849.919 C 727.166 1856.133,742.221 1857.784,799.000 1859.239 L 868.000 1861.008 868.038 2029.504 L 868.075 2198.000 879.687 2218.245 C 896.258 2247.135,934.947 2281.679,960.084 2290.028 C 986.688 2298.864,1035.487 2296.885,1057.702 2286.068 C 1078.506 2275.938,1112.924 2241.081,1127.890 2214.986 L 1139.925 2194.000 1139.962 2027.000 L 1140.000 1860.000 1229.425 1860.000 L 1318.850 1860.000 1321.114 2017.000 C 1323.592 2188.849,1325.778 2207.041,1347.490 2236.565 C 1361.399 2255.478,1384.854 2274.667,1406.000 2284.434 C 1424.678 2293.061,1481.846 2294.398,1502.736 2286.696 C 1525.691 2278.232,1551.485 2256.754,1571.857 2229.141 L 1591.879 2202.000 1591.940 2031.454 L 1592.000 1860.907 1661.000 1859.328 C 1724.151 1857.882,1731.615 1856.933,1749.055 1848.138 C 1771.792 1836.670,1815.385 1792.730,1827.409 1769.159 L 1836.000 1752.319 1836.000 1294.159 L 1836.000 836.000 1230.000 836.000 L 624.000 836.000 624.038 1293.000 " fill="#1D1E23" stroke="none" fill-rule="evenodd"/></svg>