<svg viewBox="0 0 2400 2400" fill="none" xmlns="http://www.w3.org/2000/svg"><path d="M843.000 104.320 C 839.150 106.563,836.000 111.970,836.000 116.337 C 836.000 123.812,867.109 186.562,909.545 264.685 L 928.385 299.370 880.311 331.953 C 805.969 382.340,753.305 433.252,711.000 495.631 C 659.939 570.921,627.639 663.499,621.307 752.708 L 618.802 788.000 1229.993 788.000 L 1841.184 788.000 1838.688 753.000 C 1832.482 665.995,1802.164 578.934,1750.859 500.800 C 1705.192 431.251,1654.776 381.862,1575.725 329.229 C 1553.876 314.682,1536.000 301.067,1536.000 298.974 C 1536.000 296.881,1555.800 256.682,1580.000 209.643 C 1604.200 162.604,1624.000 120.555,1624.000 116.200 C 1624.000 109.513,1613.676 100.000,1606.419 100.000 C 1600.137 100.000,1583.050 125.760,1543.712 194.537 C 1519.635 236.632,1497.530 273.071,1494.589 275.512 C 1490.589 278.831,1480.765 277.380,1455.621 269.757 C 1349.439 237.567,1358.643 239.017,1247.979 237.050 C 1130.313 234.958,1103.234 238.163,1023.453 263.626 C 982.838 276.588,972.680 278.554,966.612 274.623 C 962.549 271.991,940.900 237.862,918.503 198.781 C 879.542 130.797,858.947 99.859,852.829 100.122 C 851.273 100.189,846.850 102.078,843.000 104.320 M973.571 474.065 C 989.998 481.860,1000.000 498.991,1000.000 519.332 C 1000.000 532.054,997.228 538.369,986.785 549.442 C 969.450 567.822,955.967 571.004,935.162 561.622 C 896.763 544.307,892.956 492.352,928.792 474.691 C 945.385 466.514,957.308 466.347,973.571 474.065 M1530.086 474.309 C 1559.533 488.282,1564.610 535.158,1538.946 556.108 C 1506.308 582.752,1456.995 555.210,1461.317 512.751 C 1464.927 477.290,1497.728 458.954,1530.086 474.309 M1979.529 817.290 C 1954.283 826.717,1936.020 840.311,1920.186 861.461 C 1889.134 902.939,1890.362 890.337,1888.838 1183.372 C 1887.492 1442.208,1890.386 1536.132,1900.751 1570.000 C 1903.952 1580.459,1914.182 1594.465,1930.289 1610.442 C 1960.763 1640.670,1979.819 1648.000,2027.927 1648.000 C 2056.856 1648.000,2065.723 1646.359,2082.816 1637.841 C 2107.414 1625.583,2135.602 1596.413,2149.663 1568.664 L 2160.000 1548.266 2159.962 1229.133 L 2159.925 910.000 2147.774 888.811 C 2131.806 860.968,2109.202 838.802,2083.137 825.428 C 2066.108 816.691,2055.391 814.321,2028.000 813.234 C 2006.099 812.366,1988.851 813.809,1979.529 817.290 M376.000 828.067 C 348.831 843.259,325.894 865.015,315.208 885.728 C 302.798 909.786,300.367 973.050,300.173 1277.133 L 300.000 1548.266 310.337 1568.664 C 324.818 1597.242,353.061 1625.974,379.282 1638.802 C 398.653 1648.280,406.123 1649.653,436.541 1649.323 C 464.444 1649.021,475.416 1647.063,490.761 1639.643 C 514.874 1627.986,543.367 1599.803,559.520 1571.633 L 571.925 1550.000 571.925 1232.000 L 571.925 914.000 559.520 892.367 C 544.231 865.704,515.288 836.358,494.000 825.934 C 482.077 820.096,467.807 817.802,438.000 816.933 C 399.735 815.817,397.046 816.300,376.000 828.067 M624.003 1291.000 L 624.006 1746.000 635.915 1771.173 C 650.234 1801.440,682.209 1834.639,709.900 1847.990 C 727.970 1856.703,736.155 1857.742,798.900 1859.296 L 868.000 1861.008 868.000 2028.637 L 868.000 2196.266 878.465 2216.918 C 894.148 2247.866,929.354 2281.114,956.040 2290.178 C 987.476 2300.855,1032.917 2300.142,1056.764 2288.598 C 1079.738 2277.477,1115.853 2239.918,1129.535 2212.917 L 1140.000 2192.266 1140.000 2026.133 L 1140.000 1860.000 1230.000 1860.000 L 1320.000 1860.000 1320.030 1997.000 C 1320.065 2153.175,1323.187 2192.082,1338.139 2222.642 C 1349.769 2246.413,1375.902 2271.366,1402.807 2284.391 C 1424.831 2295.053,1471.924 2296.924,1501.584 2288.317 C 1526.701 2281.027,1567.395 2243.806,1581.758 2214.982 L 1592.000 2194.429 1592.000 2027.668 L 1592.000 1860.907 1661.021 1859.402 C 1726.605 1857.972,1731.158 1857.351,1752.459 1846.929 C 1779.056 1833.916,1811.064 1801.474,1825.593 1772.802 L 1836.000 1752.266 1836.000 1294.133 L 1836.000 836.000 1230.000 836.000 L 624.000 836.000 624.003 1291.000 " fill="#1D1E23" stroke="none" fill-rule="evenodd"/></svg>