<svg viewBox="0 0 2400 2400" fill="none" xmlns="http://www.w3.org/2000/svg"><path d="M843.000 104.320 C 839.150 106.563,836.000 111.614,836.000 115.544 C 836.000 122.580,878.484 208.790,911.400 268.547 L 928.226 299.094 878.013 334.070 C 817.712 376.073,760.975 428.753,726.347 474.892 C 666.851 554.166,629.080 654.522,621.468 753.551 L 618.820 788.000 1229.410 788.000 L 1840.000 788.000 1839.976 771.000 C 1839.931 738.289,1827.966 674.910,1813.899 632.874 C 1773.749 512.885,1702.126 418.893,1591.015 340.376 C 1565.524 322.363,1542.698 305.251,1540.290 302.349 C 1536.964 298.342,1546.581 275.819,1580.277 208.699 C 1624.957 119.698,1628.524 108.127,1613.100 102.208 C 1602.466 98.128,1591.444 112.806,1542.673 196.000 C 1508.817 253.752,1494.755 274.331,1488.505 275.274 C 1483.863 275.975,1454.400 269.080,1423.032 259.954 C 1372.991 245.393,1358.155 242.858,1302.000 239.271 C 1266.800 237.023,1210.100 236.202,1176.000 237.446 C 1113.171 239.739,1099.271 242.335,996.655 270.936 L 971.311 278.000 961.946 267.115 C 956.796 261.128,934.644 226.028,912.721 189.115 C 873.143 122.477,857.911 99.888,852.710 100.122 C 851.219 100.189,846.850 102.078,843.000 104.320 M972.376 474.194 C 987.006 481.760,999.965 502.031,999.985 517.383 C 1000.018 542.832,970.298 570.897,948.406 566.089 C 914.340 558.607,893.072 517.381,910.467 492.547 C 918.915 480.486,939.589 468.034,951.199 468.015 C 956.258 468.007,965.787 470.787,972.376 474.194 M1535.125 478.369 C 1540.374 481.808,1547.364 491.073,1550.658 498.958 C 1562.043 526.205,1548.235 556.013,1520.361 564.364 C 1490.960 573.173,1462.667 550.160,1462.667 517.439 C 1462.667 477.954,1502.067 456.709,1535.125 478.369 M1983.566 817.272 C 1946.286 827.796,1905.156 869.885,1895.924 906.959 C 1889.241 933.793,1885.701 1399.997,1891.500 1489.586 C 1896.513 1567.039,1900.656 1579.768,1930.484 1609.365 C 1962.380 1641.013,1975.006 1645.957,2024.000 1645.980 C 2057.202 1645.996,2069.194 1644.414,2081.245 1638.428 C 2103.745 1627.253,2130.040 1601.168,2145.956 1574.235 L 2160.000 1550.471 2159.962 1230.235 L 2159.925 910.000 2148.450 890.000 C 2134.198 865.159,2101.207 833.853,2078.869 823.973 C 2056.353 814.015,2007.318 810.567,1983.566 817.272 M381.361 825.833 C 352.821 840.384,326.284 864.757,316.119 885.755 C 303.038 912.776,300.182 983.553,300.086 1283.133 L 300.000 1548.266 310.405 1568.798 C 323.442 1594.527,356.318 1627.657,380.263 1639.198 C 401.447 1649.408,453.595 1651.439,481.316 1643.133 C 501.912 1636.962,544.698 1597.468,560.351 1570.178 L 571.925 1550.000 571.962 1232.841 C 572.005 869.325,575.667 904.036,532.500 858.757 C 501.635 826.382,488.720 820.571,441.228 817.690 C 404.327 815.452,400.776 815.935,381.361 825.833 M624.000 1292.133 L 624.000 1748.266 634.514 1769.015 C 648.205 1796.032,688.178 1837.436,711.444 1848.699 C 727.680 1856.559,737.779 1857.783,798.900 1859.296 L 868.000 1861.008 868.038 2029.504 L 868.075 2198.000 880.366 2219.434 C 897.197 2248.784,924.146 2274.678,950.341 2286.671 C 982.341 2301.321,1027.371 2301.161,1057.768 2286.289 C 1082.013 2274.427,1110.493 2245.311,1128.418 2214.061 L 1139.925 2194.000 1139.962 2027.000 L 1140.000 1860.000 1229.613 1860.000 L 1319.226 1860.000 1321.005 2017.000 C 1322.961 2189.692,1324.727 2204.174,1347.950 2237.927 C 1361.904 2258.209,1391.598 2280.856,1413.539 2287.951 C 1437.807 2295.799,1488.041 2294.158,1508.627 2284.845 C 1533.052 2273.795,1558.682 2250.309,1576.646 2222.515 L 1592.000 2198.760 1592.000 2029.834 L 1592.000 1860.907 1661.000 1859.354 C 1723.562 1857.946,1731.807 1856.921,1749.370 1848.365 C 1774.298 1836.220,1807.311 1803.904,1823.332 1775.962 L 1835.925 1754.000 1835.962 1295.000 L 1836.000 836.000 1230.000 836.000 L 624.000 836.000 624.000 1292.133 " fill="#1D1E23" stroke="none" fill-rule="evenodd"/></svg>