<svg viewBox="0 0 2400 2400" fill="none" xmlns="http://www.w3.org/2000/svg"><path d="M837.721 109.864 C 831.407 119.501,832.374 121.760,879.629 207.815 C 906.233 256.263,928.000 297.393,928.000 299.214 C 928.000 301.036,920.350 306.751,911.000 311.915 C 782.814 382.702,682.639 503.738,642.444 636.394 C 629.702 678.447,620.000 733.836,620.000 764.524 L 620.000 788.000 1230.601 788.000 L 1841.203 788.000 1838.619 749.000 C 1827.212 576.777,1718.186 409.381,1557.068 316.714 C 1543.281 308.784,1532.000 300.950,1532.000 299.305 C 1532.000 297.660,1553.783 256.607,1580.407 208.076 C 1627.790 121.705,1628.677 119.629,1622.315 109.919 C 1614.705 98.306,1603.784 97.138,1595.017 107.000 C 1591.594 110.850,1567.978 151.800,1542.537 198.000 C 1516.167 245.885,1494.069 281.643,1491.140 281.169 C 1488.313 280.713,1464.730 273.011,1438.733 264.056 C 1329.825 226.538,1204.516 219.614,1088.000 244.677 C 1056.757 251.398,1003.290 268.409,971.542 281.730 C 966.386 283.894,955.633 267.265,918.186 199.220 C 892.391 152.349,868.468 110.850,865.023 107.000 C 856.214 97.155,845.298 98.300,837.721 109.864 M980.000 475.677 C 994.432 485.623,1004.766 507.436,1002.437 523.038 C 996.190 564.886,946.339 581.723,916.633 552.017 C 873.964 509.349,930.328 441.446,980.000 475.677 M1536.000 475.592 C 1570.438 499.619,1563.151 552.743,1523.799 564.533 C 1462.447 582.914,1431.106 500.330,1488.284 470.953 C 1503.757 463.003,1520.256 464.607,1536.000 475.592 M1986.496 814.290 C 1937.113 830.104,1902.328 868.250,1892.023 917.890 C 1889.159 931.687,1888.135 1038.225,1888.908 1242.218 C 1890.222 1589.211,1887.849 1566.099,1926.430 1607.771 C 1955.946 1639.652,1979.297 1649.724,2024.059 1649.881 C 2054.571 1649.988,2060.889 1648.637,2084.717 1636.918 C 2115.177 1621.937,2132.740 1603.854,2147.596 1572.183 L 2158.000 1550.000 2158.000 1230.000 L 2158.000 910.000 2147.395 887.378 C 2119.436 827.743,2047.098 794.883,1986.496 814.290 M391.189 818.930 C 363.454 829.354,337.469 849.411,323.774 870.963 C 299.126 909.754,299.701 900.473,300.904 1240.354 L 302.000 1550.000 312.404 1572.183 C 327.254 1603.842,344.818 1621.932,375.258 1636.918 C 398.971 1648.591,405.502 1650.000,435.916 1650.000 C 464.283 1650.000,473.690 1648.259,492.000 1639.623 C 520.055 1626.389,546.389 1600.055,559.623 1572.000 L 570.000 1550.000 570.000 1232.000 L 570.000 914.000 560.924 894.319 C 547.001 864.130,527.243 842.843,499.335 827.967 C 477.765 816.470,469.245 814.269,442.000 813.161 C 418.589 812.209,404.951 813.757,391.189 818.930 M624.000 1285.644 C 624.000 1714.540,624.347 1736.402,631.523 1759.457 C 645.244 1803.543,675.554 1835.480,719.533 1852.190 C 736.800 1858.752,750.289 1860.000,803.918 1860.000 L 867.751 1860.000 868.875 2029.093 L 870.000 2198.185 883.199 2224.988 C 897.808 2254.653,918.342 2274.201,950.319 2288.884 C 977.849 2301.526,1029.782 2301.701,1056.869 2289.244 C 1084.971 2276.319,1113.099 2247.911,1126.482 2218.937 L 1138.000 2194.000 1139.203 2027.000 L 1140.406 1860.000 1230.203 1860.000 L 1320.000 1860.000 1320.000 2011.454 C 1320.000 2166.633,1322.013 2193.106,1336.010 2222.021 C 1346.648 2243.997,1373.649 2270.600,1398.000 2283.100 C 1427.241 2298.109,1473.226 2300.084,1505.971 2287.737 C 1538.460 2275.487,1571.409 2242.735,1583.349 2210.820 C 1591.699 2188.505,1592.000 2182.007,1592.000 2024.108 L 1592.000 1860.516 1661.111 1859.258 C 1730.074 1858.003,1730.279 1857.972,1756.943 1844.832 C 1787.436 1829.805,1807.934 1808.606,1823.498 1776.000 L 1834.000 1754.000 1835.066 1295.000 L 1836.132 836.000 1230.066 836.000 L 624.000 836.000 624.000 1285.644 " fill="#1D1E23" stroke="none" fill-rule="evenodd"/></svg>