<svg viewBox="0 0 2400 2400" fill="none" xmlns="http://www.w3.org/2000/svg"><path d="M870.000 303.764 L 646.000 306.000 616.858 321.570 C 599.534 330.826,580.618 345.035,570.212 356.609 C 546.750 382.704,489.117 466.943,272.334 792.000 C 37.508 1144.111,20.000 1172.503,20.000 1201.204 C 20.000 1228.595,39.782 1260.183,312.329 1668.000 C 569.827 2053.299,575.233 2060.514,623.179 2082.873 C 640.163 2090.794,654.423 2093.439,695.179 2096.226 C 758.378 2100.549,2163.514 2100.780,2216.875 2096.476 C 2250.208 2093.787,2260.105 2091.188,2286.307 2078.238 C 2326.862 2058.195,2358.231 2026.788,2378.346 1986.089 C 2392.951 1956.536,2393.690 1953.063,2396.932 1898.657 C 2398.789 1867.496,2399.789 1530.600,2399.154 1150.000 L 2398.000 458.000 2388.375 434.000 C 2367.139 381.051,2334.178 345.678,2282.797 320.695 L 2250.000 304.749 1672.000 303.139 C 1354.100 302.253,993.200 302.535,870.000 303.764 M1092.116 758.000 C 1101.703 764.600,1174.905 834.578,1254.788 913.508 L 1400.028 1057.015 1545.191 913.508 C 1625.030 834.578,1698.220 764.600,1707.835 758.000 C 1723.986 746.913,1727.979 746.000,1760.313 746.000 C 1792.810 746.000,1796.542 746.865,1812.544 758.112 C 1822.022 764.773,1835.227 777.978,1841.888 787.456 C 1853.135 803.458,1854.000 807.190,1854.000 839.687 C 1854.000 872.032,1853.091 876.005,1842.000 892.116 C 1835.400 901.703,1765.428 974.899,1686.506 1054.774 L 1543.013 1200.000 1686.506 1345.226 C 1765.428 1425.101,1834.990 1497.706,1841.089 1506.570 C 1849.246 1518.425,1852.804 1529.472,1854.544 1548.344 C 1857.927 1585.026,1851.386 1604.995,1828.485 1627.896 C 1796.582 1659.799,1756.082 1667.343,1716.000 1648.849 C 1708.015 1645.164,1637.101 1577.963,1550.939 1492.428 L 1399.878 1342.467 1254.939 1486.547 C 1175.223 1565.791,1103.523 1635.442,1095.606 1641.326 C 1087.690 1647.210,1071.286 1654.018,1059.152 1656.455 C 1016.958 1664.929,971.175 1641.609,951.922 1601.839 C 944.728 1586.978,943.408 1578.410,944.618 1554.438 C 945.858 1529.898,948.024 1522.368,958.048 1507.765 C 964.622 1498.189,1034.578 1425.030,1113.508 1345.191 L 1257.015 1200.028 1113.508 1054.788 C 1034.578 974.905,964.622 901.734,958.048 892.185 C 948.018 877.615,945.858 870.117,944.618 845.562 C 942.394 801.518,958.368 773.574,998.000 752.183 C 1011.191 745.063,1019.327 743.762,1044.342 744.773 C 1070.397 745.827,1077.147 747.696,1092.116 758.000 " fill="#1D1E23" stroke="none" fill-rule="evenodd"/></svg>