<svg viewBox="0 0 2400 2400" fill="none" xmlns="http://www.w3.org/2000/svg"><path d="M660.000 304.362 C 632.461 309.786,595.707 329.643,573.115 351.304 C 559.006 364.831,472.021 491.946,290.346 764.523 C -0.609 1201.060,11.815 1179.557,24.491 1224.657 C 29.116 1241.110,90.138 1335.438,290.845 1636.385 C 460.678 1891.038,558.214 2033.673,571.370 2046.624 C 582.464 2057.544,600.328 2071.261,611.069 2077.107 C 655.653 2101.373,605.416 2100.000,1448.644 2100.000 C 1996.039 2100.000,2225.753 2098.718,2240.803 2095.580 C 2315.765 2079.947,2379.947 2015.765,2395.580 1940.803 C 2401.830 1910.830,2401.830 489.170,2395.580 459.197 C 2381.788 393.062,2334.082 338.710,2266.000 311.568 L 2242.000 302.000 1460.000 301.409 C 1019.026 301.075,670.150 302.363,660.000 304.362 M1085.580 752.625 C 1095.888 757.770,1157.466 816.108,1251.000 909.339 L 1400.000 1057.857 1549.000 909.339 C 1649.404 809.259,1703.871 757.843,1716.000 751.690 C 1739.004 740.020,1779.255 739.073,1800.000 749.714 C 1819.484 759.709,1839.177 779.087,1849.071 798.000 C 1860.951 820.707,1860.605 859.764,1848.310 884.000 C 1842.157 896.129,1790.741 950.596,1690.661 1051.000 L 1542.143 1200.000 1690.661 1349.000 C 1786.253 1444.902,1842.176 1504.001,1847.590 1514.841 C 1857.899 1535.483,1858.989 1577.091,1849.797 1599.128 C 1842.001 1617.821,1822.477 1638.394,1803.013 1648.425 C 1780.323 1660.119,1756.777 1661.947,1729.607 1654.122 C 1706.389 1647.436,1703.479 1644.810,1553.000 1494.780 L 1400.000 1342.236 1247.000 1494.780 C 1096.521 1644.810,1093.611 1647.436,1070.393 1654.122 C 1021.149 1668.304,973.876 1647.103,949.714 1600.000 C 939.073 1579.255,940.020 1539.004,951.690 1516.000 C 957.843 1503.871,1009.259 1449.404,1109.339 1349.000 L 1257.857 1200.000 1109.339 1051.000 C 1009.259 950.596,957.843 896.129,951.690 884.000 C 940.020 860.996,939.073 820.745,949.714 800.000 C 976.654 747.482,1034.716 727.237,1085.580 752.625 " fill="#1D1E23" stroke="none" fill-rule="evenodd"/></svg>