<svg viewBox="0 0 2400 2400" fill="none" xmlns="http://www.w3.org/2000/svg"><path d="M300.000 750.000 L -0.018 1200.000 300.000 1650.000 L 600.018 2100.000 1500.009 2100.000 L 2400.000 2100.000 2400.000 1200.000 L 2400.000 300.000 1500.009 300.000 L 600.018 300.000 300.000 750.000 M1579.015 878.985 L 1758.031 700.002 1829.014 770.986 L 1899.998 841.969 1721.015 1020.985 L 1542.033 1200.000 1721.015 1379.015 L 1899.998 1558.031 1829.014 1629.014 L 1758.031 1699.998 1579.015 1521.015 L 1400.000 1342.033 1220.985 1521.015 L 1041.969 1699.998 970.986 1629.014 L 900.002 1558.031 1078.985 1379.015 L 1257.967 1200.000 1078.985 1020.985 L 900.002 841.969 970.986 770.986 L 1041.969 700.002 1220.985 878.985 L 1400.000 1057.967 1579.015 878.985 " fill="#1D1E23" stroke="none" fill-rule="evenodd"/></svg>