<svg viewBox="0 0 2400 2400" fill="none" xmlns="http://www.w3.org/2000/svg"><path d="M980.000 307.857 L 638.000 310.000 616.682 321.809 C 572.812 346.110,542.530 387.209,293.853 759.962 C 58.106 1113.332,19.950 1174.538,20.039 1199.190 C 20.130 1224.416,41.374 1259.446,222.114 1532.408 C 467.383 1902.824,552.496 2024.716,591.002 2060.698 C 623.875 2091.416,629.445 2092.301,814.000 2096.145 C 1027.228 2100.585,1960.626 2100.512,2122.000 2096.042 C 2192.557 2094.087,2256.734 2090.505,2265.005 2088.059 C 2285.724 2081.931,2338.886 2040.861,2356.907 2017.060 C 2365.107 2006.231,2376.772 1986.713,2382.830 1973.686 L 2393.845 1950.000 2396.531 1824.000 C 2398.008 1754.700,2399.393 1418.490,2399.608 1076.867 L 2400.000 455.734 2389.522 434.867 C 2362.522 381.096,2330.533 348.370,2275.668 318.389 L 2249.336 304.000 1785.668 304.857 C 1530.651 305.329,1168.100 306.679,980.000 307.857 M1085.165 759.225 C 1106.547 770.634,1173.501 832.939,1308.709 967.247 L 1399.417 1057.352 1522.709 936.080 C 1590.519 869.380,1662.999 799.618,1683.775 781.053 L 1721.549 747.299 1760.098 748.649 C 1795.008 749.872,1800.022 751.049,1813.208 761.115 C 1821.217 767.229,1832.771 778.783,1838.885 786.792 C 1848.955 799.983,1850.127 804.985,1851.353 839.986 L 1852.707 878.620 1814.924 920.310 C 1794.144 943.239,1724.502 1015.562,1660.164 1081.027 L 1543.185 1200.054 1654.267 1313.027 C 1785.002 1445.987,1839.201 1505.111,1846.612 1522.848 C 1853.547 1539.447,1853.544 1580.572,1846.606 1597.128 C 1826.596 1644.879,1766.305 1669.448,1721.895 1647.949 C 1703.467 1639.028,1628.672 1569.225,1490.998 1432.461 L 1399.996 1342.061 1296.998 1444.203 C 1090.018 1649.461,1082.197 1656.000,1043.674 1656.000 C 985.891 1656.000,938.393 1603.312,946.041 1547.701 C 950.940 1512.081,966.993 1493.421,1161.495 1297.261 L 1257.416 1200.523 1139.996 1081.261 C 942.671 880.844,931.761 865.344,950.112 811.489 C 969.951 753.264,1030.255 729.927,1085.165 759.225 " fill="#1D1E23" stroke="none" fill-rule="evenodd"/></svg>