<svg viewBox="0 0 2400 2400" fill="none" xmlns="http://www.w3.org/2000/svg"><path d="M824.000 307.869 L 638.000 310.000 616.723 321.787 C 570.928 347.155,553.394 370.958,292.438 762.000 C 53.326 1120.310,20.137 1173.677,20.042 1200.000 C 19.947 1226.392,49.083 1273.242,292.431 1638.000 C 546.889 2019.410,579.133 2063.205,618.222 2080.506 C 657.916 2098.075,654.304 2098.000,1460.000 2098.000 C 2326.925 2098.000,2252.911 2100.855,2305.130 2065.395 C 2347.653 2036.518,2378.013 1996.905,2390.682 1953.770 C 2397.189 1931.613,2397.756 1880.041,2399.036 1193.871 L 2400.409 457.743 2384.321 425.871 C 2358.174 374.070,2326.733 343.685,2269.133 314.554 L 2248.266 304.000 1629.133 304.869 C 1288.610 305.347,926.300 306.697,824.000 307.869 M1086.136 757.868 C 1106.755 769.952,1162.896 822.687,1300.707 959.419 L 1399.414 1057.354 1530.707 928.072 C 1602.918 856.967,1675.325 787.362,1691.610 773.395 L 1721.221 748.000 1758.008 748.000 C 1791.885 748.000,1796.150 748.909,1811.907 759.491 C 1821.317 765.812,1834.188 778.683,1840.509 788.093 C 1851.098 803.860,1852.000 808.102,1852.000 842.120 L 1852.000 879.036 1822.582 912.518 C 1806.402 930.933,1736.800 1003.283,1667.911 1073.296 L 1542.658 1200.592 1630.738 1289.296 C 1765.426 1424.939,1835.919 1500.160,1844.964 1517.890 C 1856.250 1540.012,1856.238 1580.069,1844.939 1602.006 C 1820.499 1649.456,1764.249 1670.574,1721.029 1648.525 C 1702.306 1638.973,1647.032 1587.129,1498.999 1440.272 L 1399.998 1342.058 1294.999 1446.188 C 1082.678 1656.751,1082.330 1657.041,1042.000 1657.060 C 1002.163 1657.079,958.726 1624.311,948.052 1586.186 C 940.595 1559.553,945.710 1528.364,960.998 1507.245 C 976.672 1485.593,1025.997 1433.874,1155.791 1303.001 L 1257.941 1200.001 1159.686 1101.001 C 963.407 903.234,944.000 879.923,944.000 841.927 C 944.000 801.871,974.982 758.699,1010.987 748.583 C 1034.187 742.065,1065.844 745.976,1086.136 757.868 " fill="#1D1E23" stroke="none" fill-rule="evenodd"/></svg>