<svg viewBox="0 0 2400 2400" fill="none" xmlns="http://www.w3.org/2000/svg"><path d="M1092.000 208.195 C 959.583 217.612,774.985 284.088,650.000 367.365 C 586.905 409.405,555.098 435.257,502.648 487.127 C 363.854 624.385,276.854 775.163,230.161 959.365 C 205.012 1058.578,196.820 1154.108,203.644 1268.604 C 217.530 1501.574,324.411 1736.163,494.112 1906.139 C 648.455 2060.734,836.826 2154.470,1066.000 2190.721 C 1127.908 2200.514,1272.321 2200.465,1336.000 2190.631 C 1552.475 2157.198,1739.395 2065.492,1891.594 1918.045 C 1952.477 1859.063,1990.768 1813.407,2034.144 1748.075 C 2183.778 1522.703,2235.142 1240.028,2173.711 980.000 C 2081.156 588.228,1778.378 295.484,1387.331 219.679 C 1363.443 215.049,1313.780 210.156,1268.185 207.941 C 1181.755 203.743,1154.037 203.783,1092.000 208.195 M1310.000 410.452 C 1365.529 417.963,1416.479 429.691,1459.956 444.969 C 1519.939 466.047,1641.727 530.416,1675.467 558.874 L 1688.933 570.232 1142.010 1115.142 C 841.203 1414.842,588.138 1665.554,579.645 1672.281 L 564.203 1684.512 535.535 1641.256 C 464.294 1533.764,420.895 1413.556,408.206 1288.576 C 383.220 1042.487,463.028 810.726,631.205 640.994 C 701.172 570.380,761.366 526.798,847.442 484.436 C 989.619 414.463,1150.011 388.809,1310.000 410.452 M1864.589 758.979 C 1920.172 844.240,1962.147 943.215,1979.527 1030.000 C 2023.378 1248.961,1981.377 1467.156,1860.950 1646.000 C 1760.047 1795.850,1619.353 1902.766,1450.456 1957.940 C 1218.531 2033.704,992.439 2005.716,774.000 1874.202 C 703.731 1831.895,698.359 1849.702,818.291 1727.377 C 1193.566 1344.611,1823.041 720.000,1833.512 720.000 C 1836.628 720.000,1850.613 737.541,1864.589 758.979 " fill="#1D1E23" stroke="none" fill-rule="evenodd"/></svg>