<svg viewBox="0 0 2400 2400" fill="none" xmlns="http://www.w3.org/2000/svg"><path d="M1118.000 206.424 C 956.947 218.282,787.043 277.650,644.362 371.923 C 494.452 470.972,358.807 630.799,288.119 791.674 C 266.998 839.740,242.361 911.165,230.085 959.915 C 182.920 1147.222,193.856 1354.889,260.483 1537.119 C 334.478 1739.503,470.551 1912.980,650.000 2033.707 C 696.182 2064.777,800.010 2116.962,857.739 2138.120 C 908.419 2156.694,1005.333 2181.431,1062.000 2190.256 C 1129.444 2200.759,1285.600 2199.715,1350.000 2188.330 C 1565.633 2150.209,1739.801 2062.760,1894.450 1914.965 C 2167.011 1654.483,2267.301 1255.006,2149.937 897.307 C 2068.516 649.154,1906.900 452.080,1682.000 326.706 C 1573.429 266.182,1435.324 222.100,1324.000 212.437 C 1271.207 207.854,1147.583 204.246,1118.000 206.424 M1332.000 413.802 C 1386.500 423.015,1453.493 441.526,1492.391 458.119 C 1555.577 485.072,1670.419 549.636,1683.752 565.701 C 1687.304 569.981,1574.158 684.591,1137.116 1119.411 C 834.002 1420.983,581.071 1671.500,575.046 1676.116 L 564.093 1684.508 538.791 1645.254 C 459.603 1522.397,421.171 1414.080,407.777 1276.000 C 388.662 1078.951,443.266 881.879,561.022 722.915 C 589.158 684.934,662.102 608.946,700.000 578.138 C 811.340 487.628,957.241 426.866,1108.000 408.222 C 1151.717 402.816,1286.941 406.184,1332.000 413.802 M1876.304 778.657 C 1924.659 858.334,1963.839 955.272,1979.509 1034.000 C 2053.086 1403.666,1870.178 1769.079,1533.373 1925.289 C 1424.503 1975.783,1282.843 2004.229,1168.000 1998.657 C 1028.465 1991.887,901.112 1950.098,753.256 1862.566 C 722.603 1844.419,719.639 1836.811,734.644 1814.797 C 747.746 1795.575,1649.283 892.427,1759.590 788.019 L 1833.181 718.364 1844.832 732.182 C 1851.241 739.782,1865.403 760.696,1876.304 778.657 " fill="#1D1E23" stroke="none" fill-rule="evenodd"/></svg>