<svg viewBox="0 0 2400 2400" fill="none" xmlns="http://www.w3.org/2000/svg"><path d="M1112.000 203.923 C 833.630 231.768,590.463 362.388,419.326 576.000 C 147.365 915.458,126.704 1391.677,368.248 1753.288 C 676.969 2215.470,1294.618 2338.595,1756.000 2029.929 C 2215.492 1722.528,2337.727 1104.086,2029.929 644.000 C 1872.846 409.198,1631.891 256.219,1349.288 211.869 C 1290.914 202.708,1165.973 198.524,1112.000 203.923 M1274.000 404.133 C 1332.267 409.598,1402.497 424.342,1455.180 442.170 C 1528.952 467.135,1620.082 515.156,1673.367 557.145 L 1688.735 569.254 1129.556 1128.444 C 685.321 1572.688,569.265 1686.710,564.965 1683.141 C 561.988 1680.670,546.879 1659.696,531.389 1636.531 C 377.547 1406.465,358.281 1101.499,481.701 850.000 C 525.095 761.575,573.162 695.217,642.640 627.819 C 710.693 561.804,765.361 523.268,850.000 481.651 C 980.988 417.245,1127.735 390.416,1274.000 404.133 M1868.611 763.469 C 2022.630 993.798,2041.694 1298.076,1917.944 1550.849 C 1757.133 1879.322,1400.563 2055.064,1040.000 1983.560 C 930.634 1961.871,816.660 1909.966,714.000 1835.094 C 711.748 1833.452,954.598 1587.538,1269.811 1272.272 C 1714.552 827.457,1830.735 713.290,1835.035 716.859 C 1838.012 719.330,1853.121 740.304,1868.611 763.469 " fill="#1D1E23" stroke="none" fill-rule="evenodd"/></svg>