<svg viewBox="0 0 2400 2400" fill="none" xmlns="http://www.w3.org/2000/svg"><path d="M1050.920 214.235 C 966.802 227.326,872.611 255.504,790.526 292.132 C 548.270 400.231,350.343 611.983,262.121 857.444 C 177.255 1093.568,180.890 1337.421,272.697 1567.099 C 357.407 1779.020,519.807 1965.347,710.000 2068.830 C 804.085 2120.022,866.993 2144.767,966.846 2169.863 C 1054.834 2191.976,1090.203 2196.055,1194.881 2196.161 C 1298.719 2196.266,1335.332 2192.837,1408.000 2176.204 C 1560.892 2141.208,1696.294 2077.624,1812.000 1986.487 C 2041.196 1805.960,2174.407 1555.363,2196.258 1263.617 C 2214.486 1020.254,2128.022 757.770,1964.627 560.437 C 1802.499 364.635,1553.773 232.284,1310.000 212.101 C 1241.508 206.430,1093.219 207.651,1050.920 214.235 M1370.000 421.668 C 1441.141 437.968,1487.463 454.429,1545.758 484.126 C 1601.492 512.517,1659.932 546.184,1675.838 559.065 L 1685.540 566.921 1617.345 638.460 C 1553.685 705.243,630.859 1623.583,585.235 1665.553 L 564.470 1684.655 541.418 1649.328 C 508.251 1598.496,459.795 1500.568,444.593 1453.645 C 380.023 1254.344,394.820 1036.126,485.526 850.000 C 529.347 760.079,590.978 677.757,667.189 607.346 C 769.508 512.813,908.834 444.820,1060.000 415.646 C 1092.398 409.393,1114.511 408.486,1210.000 409.491 C 1315.575 410.603,1324.754 411.301,1370.000 421.668 M1858.907 752.275 C 1887.854 793.432,1936.263 892.487,1955.537 950.000 C 2036.840 1192.611,1990.986 1470.646,1834.970 1681.065 C 1805.128 1721.313,1740.425 1788.456,1700.000 1821.125 C 1577.966 1919.744,1431.940 1978.154,1262.000 1996.324 C 1183.811 2004.683,1077.971 1994.281,994.000 1969.985 C 902.091 1943.391,746.291 1868.594,730.784 1843.619 C 728.605 1840.110,728.055 1832.325,729.562 1826.320 C 734.483 1806.713,1822.460 717.574,1833.571 721.132 C 1836.007 721.912,1847.408 735.927,1858.907 752.275 " fill="#1D1E23" stroke="none" fill-rule="evenodd"/></svg>