<svg viewBox="0 0 2400 2400" fill="none" xmlns="http://www.w3.org/2000/svg"><path d="M1062.000 210.040 C 838.845 245.765,647.360 340.791,498.022 489.920 C 335.373 652.340,239.530 845.602,207.371 1076.000 C 199.343 1133.512,200.542 1278.601,209.535 1338.000 C 259.968 1671.099,465.368 1953.685,762.000 2098.072 C 996.553 2212.242,1262.178 2230.922,1508.000 2150.533 C 1764.708 2066.585,1981.131 1878.587,2098.027 1638.000 C 2234.203 1357.731,2233.307 1038.111,2095.564 760.000 C 2043.904 655.694,1982.750 570.004,1904.273 491.959 C 1757.151 345.647,1581.994 255.288,1368.000 215.310 C 1310.952 204.652,1116.566 201.304,1062.000 210.040 M1268.000 404.224 C 1325.079 409.432,1402.268 424.926,1449.876 440.734 C 1517.296 463.120,1635.362 524.922,1675.306 558.736 L 1688.612 570.000 1143.306 1114.105 C 843.388 1413.363,590.520 1664.030,581.378 1671.142 L 564.755 1684.074 547.091 1659.037 C 450.482 1522.102,403.211 1371.288,403.211 1200.000 C 403.211 1047.618,440.128 914.451,519.089 782.000 C 572.425 692.532,666.471 594.907,758.000 533.997 C 903.724 437.022,1094.739 388.417,1268.000 404.224 M1860.935 752.918 C 1944.897 879.098,1986.014 999.637,1995.890 1148.556 C 2005.948 1300.227,1971.292 1455.660,1897.965 1587.753 C 1792.005 1778.629,1616.074 1916.352,1407.499 1971.700 C 1215.261 2022.714,1022.206 2003.127,847.187 1914.852 C 789.293 1885.652,716.054 1840.841,716.019 1834.597 C 715.988 1829.117,1025.406 1515.956,1384.723 1157.803 C 1762.557 781.194,1830.658 714.699,1835.481 717.679 C 1837.355 718.837,1848.810 734.695,1860.935 752.918 " fill="#1D1E23" stroke="none" fill-rule="evenodd"/></svg>