<svg viewBox="0 0 2400 2400" fill="none" xmlns="http://www.w3.org/2000/svg"><path d="M434.000 103.787 L 346.000 106.000 314.898 121.199 C 250.562 152.640,209.616 210.745,203.627 279.100 C 201.945 298.295,200.441 625.850,200.284 1007.000 L 200.000 1700.000 300.000 1700.000 L 400.000 1700.000 400.000 1000.000 L 400.000 300.000 1000.000 300.000 L 1600.000 300.000 1600.000 200.000 L 1600.000 100.000 1061.000 100.787 C 764.550 101.219,482.400 102.569,434.000 103.787 M886.000 503.802 L 746.000 506.000 714.898 521.199 C 672.974 541.687,642.148 572.239,621.857 613.412 C 607.722 642.092,606.123 648.701,603.467 689.412 C 599.672 747.583,599.672 2052.417,603.467 2110.588 C 606.115 2151.178,607.743 2157.942,621.620 2186.020 C 641.791 2226.834,673.104 2258.178,713.798 2278.290 C 740.699 2291.585,749.461 2293.818,785.230 2296.497 C 838.401 2300.479,1861.599 2300.479,1914.770 2296.497 C 1950.539 2293.818,1959.301 2291.585,1986.202 2278.290 C 2026.868 2258.192,2058.211 2226.830,2078.346 2186.089 C 2092.951 2156.536,2093.690 2153.063,2096.932 2098.657 C 2098.789 2067.496,2099.789 1730.600,2099.154 1350.000 L 2098.000 658.000 2088.375 634.000 C 2067.129 581.026,2034.164 545.656,1982.797 520.720 L 1950.000 504.799 1488.000 503.201 C 1233.900 502.322,963.000 502.592,886.000 503.802 M1900.000 1400.000 L 1900.000 2100.000 1350.000 2100.000 L 800.000 2100.000 800.000 1400.000 L 800.000 700.000 1350.000 700.000 L 1900.000 700.000 1900.000 1400.000 " fill="#1D1E23" stroke="none" fill-rule="evenodd"/></svg>