<svg viewBox="0 0 2400 2400" fill="none" xmlns="http://www.w3.org/2000/svg"><path d="M742.793 104.190 C 549.629 105.740,378.629 108.275,362.793 109.826 C 325.955 113.432,295.334 129.301,262.178 161.971 C 228.012 195.637,212.693 223.868,207.473 262.784 C 204.763 282.992,202.556 541.901,201.215 997.000 L 199.143 1700.000 299.572 1700.000 L 400.000 1700.000 400.000 1000.000 L 400.000 300.000 1000.000 300.000 L 1600.000 300.000 1600.000 200.000 L 1600.000 100.000 1347.000 100.687 C 1207.850 101.064,935.957 102.641,742.793 104.190 M978.000 507.856 L 738.000 510.000 717.461 521.385 C 675.145 544.841,636.577 584.005,617.392 623.001 C 607.760 642.580,606.803 649.760,603.273 729.001 C 597.813 851.528,601.544 2120.015,607.438 2145.511 C 615.118 2178.726,628.632 2200.760,661.931 2234.356 C 685.198 2257.830,701.644 2270.447,721.849 2280.323 L 749.698 2293.934 855.849 2296.613 C 994.134 2300.104,1711.784 2300.098,1846.312 2296.605 L 1950.624 2293.897 1980.874 2278.946 C 2027.223 2256.039,2078.961 2199.590,2088.494 2161.526 C 2096.512 2129.511,2099.564 1891.832,2099.779 1282.867 L 2100.000 655.734 2089.522 634.867 C 2062.522 581.096,2030.533 548.370,1975.668 518.389 L 1949.336 504.000 1583.668 504.856 C 1382.551 505.327,1110.000 506.677,978.000 507.856 M1900.000 1400.000 L 1900.000 2100.000 1350.000 2100.000 L 800.000 2100.000 800.000 1400.000 L 800.000 700.000 1350.000 700.000 L 1900.000 700.000 1900.000 1400.000 " fill="#1D1E23" stroke="none" fill-rule="evenodd"/></svg>