<svg viewBox="0 0 2400 2400" fill="none" xmlns="http://www.w3.org/2000/svg"><path d="M368.000 102.679 C 347.444 105.947,309.313 121.498,289.052 134.877 C 247.077 162.593,214.625 210.264,204.420 259.197 C 201.289 274.210,200.000 487.452,200.000 990.197 L 200.000 1700.000 300.000 1700.000 L 400.000 1700.000 400.000 1000.000 L 400.000 300.000 1000.000 300.000 L 1600.000 300.000 1600.000 200.000 L 1600.000 100.000 989.000 100.545 C 652.950 100.844,373.500 101.805,368.000 102.679 M768.000 502.640 C 747.262 506.018,709.252 521.539,689.052 534.877 C 647.077 562.593,614.625 610.264,604.420 659.197 C 598.170 689.170,598.170 2110.830,604.420 2140.803 C 620.053 2215.765,684.235 2279.947,759.197 2295.580 C 789.080 2301.811,1910.920 2301.811,1940.803 2295.580 C 2015.765 2279.947,2079.947 2215.765,2095.580 2140.803 C 2101.830 2110.830,2101.830 689.170,2095.580 659.197 C 2081.788 593.062,2034.082 538.710,1966.000 511.568 L 1942.000 502.000 1360.000 501.506 C 1039.900 501.234,773.500 501.744,768.000 502.640 M1900.000 1400.000 L 1900.000 2100.000 1350.000 2100.000 L 800.000 2100.000 800.000 1400.000 L 800.000 700.000 1350.000 700.000 L 1900.000 700.000 1900.000 1400.000 " fill="#1D1E23" stroke="none" fill-rule="evenodd"/></svg>