<svg viewBox="0 0 2400 2400" fill="none" xmlns="http://www.w3.org/2000/svg"><path d="M200.000 900.000 L 200.000 1700.000 300.000 1700.000 L 400.000 1700.000 400.000 1000.000 L 400.000 300.000 1000.000 300.000 L 1600.000 300.000 1600.000 200.000 L 1600.000 100.000 900.000 100.000 L 200.000 100.000 200.000 900.000 M600.000 1400.000 L 600.000 2300.000 1350.000 2300.000 L 2100.000 2300.000 2100.000 1400.000 L 2100.000 500.000 1350.000 500.000 L 600.000 500.000 600.000 1400.000 M1900.000 1400.000 L 1900.000 2100.000 1350.000 2100.000 L 800.000 2100.000 800.000 1400.000 L 800.000 700.000 1350.000 700.000 L 1900.000 700.000 1900.000 1400.000 " fill="#1D1E23" stroke="none" fill-rule="evenodd"/></svg>