<svg viewBox="0 0 2400 2400" fill="none" xmlns="http://www.w3.org/2000/svg"><path d="M662.000 104.294 C 474.486 105.946,348.136 108.600,339.010 111.080 C 304.488 120.460,252.587 162.738,230.293 199.640 C 200.545 248.882,202.976 183.905,200.984 983.000 L 199.196 1700.000 299.598 1700.000 L 400.000 1700.000 400.000 1000.000 L 400.000 300.000 1000.000 300.000 L 1600.000 300.000 1600.000 200.000 L 1600.000 100.000 1285.000 100.791 C 1111.750 101.226,831.400 102.802,662.000 104.294 M860.000 507.836 L 738.000 510.000 712.000 523.893 C 676.359 542.938,636.766 583.062,620.143 616.982 C 607.553 642.670,606.763 646.983,603.644 706.982 C 599.404 788.547,599.446 1992.155,603.692 2084.116 C 606.672 2148.662,607.801 2156.075,617.910 2177.443 C 642.392 2229.194,697.295 2277.080,748.000 2290.909 C 772.327 2297.544,811.061 2298.000,1350.000 2298.000 C 1890.535 2298.000,1927.601 2297.560,1952.000 2290.859 C 1995.666 2278.865,2036.156 2248.208,2065.532 2204.898 C 2100.414 2153.470,2097.487 2224.340,2099.036 1393.871 L 2100.409 657.743 2084.321 625.871 C 2058.174 574.070,2026.733 543.685,1969.133 514.554 L 1948.266 504.000 1465.133 504.836 C 1199.410 505.296,927.100 506.646,860.000 507.836 M1900.000 1400.000 L 1900.000 2100.000 1350.000 2100.000 L 800.000 2100.000 800.000 1400.000 L 800.000 700.000 1350.000 700.000 L 1900.000 700.000 1900.000 1400.000 " fill="#1D1E23" stroke="none" fill-rule="evenodd"/></svg>