<svg viewBox="0 0 2400 2400" fill="none" xmlns="http://www.w3.org/2000/svg"><path d="M558.000 103.928 C 323.284 106.354,339.428 104.520,294.204 133.897 C 253.151 160.564,224.855 197.350,209.512 244.000 C 202.660 264.832,202.204 304.073,200.937 983.000 L 199.598 1700.000 299.799 1700.000 L 400.000 1700.000 400.000 1000.000 L 400.000 300.000 1000.000 300.000 L 1600.000 300.000 1600.000 200.000 L 1600.000 100.000 1185.000 100.868 C 956.750 101.346,674.600 102.723,558.000 103.928 M758.000 507.644 C 722.596 512.101,675.351 540.759,646.645 575.191 C 638.763 584.646,626.539 604.112,619.481 618.448 C 607.693 642.392,606.397 648.971,603.559 699.257 C 599.361 773.640,599.540 2032.012,603.759 2101.226 C 606.852 2151.976,608.187 2158.623,620.231 2183.226 C 638.254 2220.045,680.842 2262.384,717.274 2279.704 C 741.067 2291.015,750.766 2293.122,793.274 2296.213 C 856.782 2300.830,1843.218 2300.830,1906.726 2296.213 C 1949.234 2293.122,1958.933 2291.015,1982.726 2279.704 C 2019.017 2262.452,2061.753 2220.032,2079.622 2183.525 C 2091.386 2159.492,2092.932 2151.928,2096.385 2101.525 C 2098.632 2068.729,2099.741 1761.095,2099.094 1350.000 L 2098.000 654.000 2083.065 622.721 C 2062.058 578.727,2029.502 545.717,1983.878 522.154 L 1948.729 504.000 1363.365 504.563 C 1041.414 504.873,769.000 506.259,758.000 507.644 M1900.000 1400.000 L 1900.000 2100.000 1350.000 2100.000 L 800.000 2100.000 800.000 1400.000 L 800.000 700.000 1350.000 700.000 L 1900.000 700.000 1900.000 1400.000 " fill="#1D1E23" stroke="none" fill-rule="evenodd"/></svg>