<svg viewBox="0 0 2400 2400" fill="none" xmlns="http://www.w3.org/2000/svg"><path d="M200.000 900.000 L 200.000 1700.000 300.000 1700.000 L 400.000 1700.000 400.000 1000.000 L 400.000 300.000 1000.000 300.000 L 1600.000 300.000 1600.000 200.000 L 1600.000 100.000 900.000 100.000 L 200.000 100.000 200.000 900.000 M600.000 1400.000 L 600.000 2300.000 1350.000 2300.000 L 2100.000 2300.000 2100.000 1698.990 L 2100.000 1097.980 1800.990 798.990 L 1501.980 500.000 1050.990 500.000 L 600.000 500.000 600.000 1400.000 M1676.000 926.000 L 1949.978 1200.000 1674.989 1200.000 L 1400.000 1200.000 1400.000 926.000 C 1400.000 775.300,1400.455 652.000,1401.011 652.000 C 1401.567 652.000,1525.312 775.300,1676.000 926.000 " fill="#1D1E23" stroke="none" fill-rule="evenodd"/></svg>