<svg viewBox="0 0 2400 2400" fill="none" xmlns="http://www.w3.org/2000/svg"><path d="M606.000 103.598 L 346.000 106.000 316.483 121.767 C 261.144 151.328,223.685 195.493,209.068 248.411 C 202.438 272.415,202.024 314.018,202.384 920.000 C 202.595 1275.300,204.131 1583.792,205.797 1605.538 C 208.771 1644.340,209.121 1645.395,224.596 1662.183 C 263.947 1704.874,323.498 1708.781,366.004 1671.460 C 383.016 1656.523,388.340 1647.404,392.542 1626.000 C 394.270 1617.200,397.635 1353.500,400.018 1040.000 C 402.402 726.500,405.827 444.215,407.630 412.700 C 410.727 358.530,411.537 354.507,422.453 339.056 C 444.724 307.534,444.298 307.610,619.037 303.784 C 704.267 301.917,918.000 300.243,1094.000 300.064 C 1430.574 299.721,1527.053 296.872,1546.532 286.702 C 1574.972 271.853,1597.490 233.702,1597.704 200.000 C 1597.818 182.140,1595.159 173.111,1583.575 152.021 C 1564.216 116.777,1554.781 111.865,1498.842 107.902 C 1434.163 103.321,909.742 100.793,606.000 103.598 M758.000 507.754 C 734.451 510.848,714.634 520.602,681.897 545.212 C 637.701 578.435,614.302 616.627,607.306 666.958 C 601.918 705.716,598.186 1860.200,602.891 2032.335 L 606.126 2150.671 621.470 2181.716 C 638.718 2216.616,674.147 2255.571,704.638 2273.161 C 748.992 2298.748,717.763 2297.373,1292.048 2299.025 C 1602.276 2299.918,1841.668 2298.945,1882.048 2296.628 C 1960.897 2292.104,1975.524 2287.865,2015.246 2258.030 C 2050.562 2231.504,2075.951 2197.329,2088.256 2159.755 L 2098.000 2130.000 2097.901 1652.000 C 2097.796 1140.255,2097.305 1126.348,2078.213 1094.240 C 2061.639 1066.367,1969.108 968.660,1784.223 783.805 C 1594.841 594.453,1536.499 540.074,1503.403 522.061 C 1486.063 512.624,1475.843 510.359,1438.414 507.662 C 1385.765 503.868,786.959 503.949,758.000 507.754 M1922.414 1197.098 C 1911.646 1198.903,1805.448 1199.845,1686.418 1199.190 C 1471.779 1198.010,1469.885 1197.928,1456.000 1189.252 C 1430.685 1173.434,1411.382 1150.221,1407.868 1131.374 C 1406.086 1121.818,1403.463 1009.600,1402.039 882.000 L 1399.449 650.000 1670.720 921.908 L 1941.991 1193.816 1922.414 1197.098 " fill="#1D1E23" stroke="none" fill-rule="evenodd"/></svg>