<svg viewBox="0 0 2400 2400" fill="none" xmlns="http://www.w3.org/2000/svg"><path d="M430.000 103.779 L 346.000 106.000 314.898 121.199 C 273.146 141.603,242.135 172.266,222.068 212.985 C 208.690 240.132,206.358 249.229,203.240 286.442 C 201.273 309.922,200.325 617.147,201.120 973.458 C 202.248 1479.047,203.656 1622.147,207.653 1637.235 C 211.892 1653.237,216.535 1659.442,235.273 1674.150 C 276.140 1706.224,319.947 1707.402,360.655 1677.519 C 371.425 1669.613,382.965 1657.869,386.300 1651.420 C 389.635 1644.971,394.021 1621.314,396.047 1598.848 C 398.073 1576.381,399.850 1315.900,399.996 1020.000 C 400.266 473.854,402.316 370.501,413.298 349.468 C 420.172 336.302,437.627 319.232,451.564 312.046 C 470.125 302.476,570.573 300.343,1016.000 300.065 C 1263.500 299.910,1482.428 298.193,1502.507 296.249 C 1546.575 291.984,1558.770 286.197,1577.519 260.655 C 1605.976 221.889,1605.976 178.111,1577.519 139.345 C 1556.654 110.921,1547.376 107.451,1482.162 103.682 C 1420.657 100.128,565.095 100.206,430.000 103.779 M854.000 503.819 L 746.000 506.000 718.713 519.341 C 679.767 538.383,639.746 577.306,621.821 613.572 C 608.783 639.954,607.441 646.163,604.002 696.051 C 599.557 760.526,599.212 2070.512,603.627 2120.900 C 609.540 2188.386,650.613 2247.062,713.798 2278.290 C 740.699 2291.585,749.461 2293.818,785.230 2296.497 C 838.401 2300.479,1861.599 2300.479,1914.770 2296.497 C 1950.539 2293.818,1959.301 2291.585,1986.202 2278.290 C 2047.303 2248.092,2089.571 2189.315,2096.297 2125.194 C 2100.870 2081.596,2100.704 1224.088,2096.112 1168.573 C 2090.096 1095.850,2088.522 1093.428,1962.871 963.644 C 1852.791 849.943,1689.167 686.834,1587.070 589.025 C 1541.531 545.399,1522.007 529.551,1501.156 519.285 L 1474.173 506.000 1294.087 503.377 C 1095.528 500.485,1015.067 500.566,854.000 503.819 M1944.000 1197.222 C 1944.000 1199.006,1838.250 1199.911,1709.000 1199.233 L 1474.000 1198.000 1454.995 1188.641 C 1433.418 1178.015,1414.002 1156.609,1407.247 1136.000 C 1404.082 1126.343,1402.181 1048.790,1401.118 886.000 L 1399.578 650.000 1671.789 921.989 C 1821.505 1071.583,1944.000 1195.438,1944.000 1197.222 " fill="#1D1E23" stroke="none" fill-rule="evenodd"/></svg>