<svg viewBox="0 0 2400 2400" fill="none" xmlns="http://www.w3.org/2000/svg"><path d="M368.000 407.662 C 347.972 409.223,332.017 413.116,320.000 419.375 C 272.513 444.109,231.104 487.152,215.499 528.000 C 201.375 564.973,199.552 657.135,200.943 1264.000 C 202.175 1801.535,202.662 1835.253,209.498 1856.000 C 226.786 1908.466,268.134 1955.749,318.337 1980.464 C 344.228 1993.211,347.486 1993.783,409.593 1996.511 C 498.408 2000.412,1906.202 2000.303,1988.874 1996.389 C 2053.486 1993.330,2056.665 1992.774,2082.874 1979.943 C 2120.034 1961.751,2162.307 1919.322,2179.678 1882.780 C 2191.167 1858.613,2193.046 1849.643,2196.431 1802.780 C 2198.675 1771.721,2199.783 1503.896,2199.122 1152.000 L 2198.000 554.000 2183.065 522.721 C 2162.058 478.727,2129.502 445.717,2083.878 422.154 L 2048.729 404.000 1223.365 404.662 C 769.414 405.027,384.500 406.377,368.000 407.662 M1981.037 607.668 C 1982.707 609.211,1807.657 720.730,1592.037 855.488 L 1200.000 1100.502 808.045 855.539 C 592.470 720.810,417.119 609.547,418.377 608.288 C 425.203 601.458,1973.652 600.844,1981.037 607.668 M965.234 1152.662 C 1033.013 1194.344,1101.949 1235.546,1118.424 1244.224 L 1148.380 1260.000 1200.000 1260.000 L 1251.620 1260.000 1281.953 1244.025 C 1318.477 1224.789,1465.653 1134.392,1765.408 947.084 C 1888.282 870.303,1989.982 808.646,1991.408 810.069 C 1996.649 815.299,2001.264 1400.815,1997.382 1568.000 C 1993.713 1725.976,1993.112 1734.797,1984.939 1750.497 C 1974.034 1771.444,1956.262 1786.426,1934.818 1792.748 C 1908.966 1800.371,493.659 1800.227,467.425 1792.599 C 445.719 1786.288,422.470 1768.380,413.525 1751.081 C 403.702 1732.086,400.364 1586.619,400.171 1169.221 L 400.000 800.441 621.000 938.659 C 742.550 1014.678,897.455 1110.980,965.234 1152.662 " fill="#1D1E23" stroke="none" fill-rule="evenodd"/></svg>