<svg viewBox="0 0 2400 2400" fill="none" xmlns="http://www.w3.org/2000/svg"><path d="M200.000 1200.000 L 200.000 2000.000 1200.000 2000.000 L 2200.000 2000.000 2200.000 1200.000 L 2200.000 400.000 1200.000 400.000 L 200.000 400.000 200.000 1200.000 M1918.555 603.511 L 1991.110 606.000 1595.566 853.183 L 1200.023 1100.365 804.413 853.183 L 408.803 606.000 473.402 603.849 C 564.897 600.803,1830.990 600.506,1918.555 603.511 M831.000 1069.389 L 1200.000 1300.005 1569.000 1069.389 C 1771.950 942.550,1951.950 830.037,1969.000 819.359 L 2000.000 799.945 2000.000 1299.973 L 2000.000 1800.000 1200.000 1800.000 L 400.000 1800.000 400.000 1299.973 L 400.000 799.945 431.000 819.359 C 448.050 830.037,628.050 942.550,831.000 1069.389 " fill="#1D1E23" stroke="none" fill-rule="evenodd"/></svg>