<svg viewBox="0 0 2400 2400" fill="none" xmlns="http://www.w3.org/2000/svg"><path d="M200.000 1200.000 L 200.000 2000.000 1200.000 2000.000 L 2200.000 2000.000 2200.000 1200.000 L 2200.000 400.000 1200.000 400.000 L 200.000 400.000 200.000 1200.000 M830.968 869.369 L 1199.936 1099.965 1520.583 899.686 C 1863.552 685.463,1983.640 612.000,1990.850 612.000 C 1998.517 612.000,2001.092 660.248,1997.344 733.677 C 1995.383 772.110,1992.928 804.259,1991.889 805.120 C 1990.850 805.980,1812.212 917.707,1594.915 1053.401 L 1199.829 1300.118 918.915 1124.706 C 597.563 924.045,416.096 809.362,409.304 802.644 C 406.124 799.500,403.680 765.897,401.736 698.617 L 398.864 599.233 430.432 619.003 C 447.794 629.877,628.036 742.541,830.968 869.369 " fill="#1D1E23" stroke="none" fill-rule="evenodd"/></svg>