<svg viewBox="0 0 2400 2400" fill="none" xmlns="http://www.w3.org/2000/svg"><path d="M534.000 407.875 L 338.000 410.000 320.000 419.560 C 272.579 444.747,229.261 491.368,214.723 532.862 C 209.378 548.120,206.497 573.854,203.872 629.817 C 199.781 716.986,199.368 1624.133,203.356 1760.209 L 206.000 1850.418 221.567 1881.914 C 241.493 1922.230,278.788 1960.352,317.256 1979.729 C 344.466 1993.434,344.640 1993.462,419.256 1996.439 C 518.878 2000.413,1867.364 2000.367,1972.672 1996.385 C 2050.389 1993.447,2056.622 1992.634,2076.672 1982.810 C 2109.122 1966.911,2143.290 1937.074,2164.632 1906.000 C 2200.320 1854.037,2197.462 1913.199,2199.034 1193.887 L 2200.425 557.775 2184.329 525.887 C 2158.174 474.070,2126.738 443.688,2069.133 414.554 L 2048.266 404.000 1389.133 404.875 C 1026.610 405.356,641.800 406.706,534.000 407.875 M528.873 687.096 C 572.255 709.410,597.623 724.900,940.983 938.740 L 1199.966 1100.032 1428.983 957.382 C 1866.448 684.895,1890.719 670.667,1918.073 670.667 C 1957.651 670.667,1996.000 710.191,1996.000 750.982 C 1996.000 799.347,1992.201 802.465,1734.000 966.010 C 1575.689 1066.284,1367.686 1196.565,1284.773 1247.379 L 1231.546 1280.000 1203.645 1280.000 C 1188.299 1280.000,1169.854 1277.539,1162.656 1274.532 C 1141.885 1265.853,592.012 921.650,492.000 854.722 C 419.468 806.183,408.606 794.619,401.882 758.778 C 398.323 739.807,414.640 704.495,433.673 689.978 C 447.196 679.664,472.897 668.773,484.873 668.282 C 488.654 668.127,508.454 676.593,528.873 687.096 " fill="#1D1E23" stroke="none" fill-rule="evenodd"/></svg>