<svg viewBox="0 0 2400 2400" fill="none" xmlns="http://www.w3.org/2000/svg"><path d="M360.226 404.334 C 306.919 414.871,248.788 458.896,224.406 507.196 C 198.837 557.848,200.124 521.170,200.059 1200.803 C 200.017 1637.327,201.302 1825.850,204.420 1840.803 C 220.053 1915.765,284.235 1979.947,359.197 1995.580 C 389.211 2001.839,2010.789 2001.839,2040.803 1995.580 C 2115.765 1979.947,2179.947 1915.765,2195.580 1840.803 C 2201.819 1810.886,2201.819 589.114,2195.580 559.197 C 2181.788 493.062,2134.082 438.710,2066.000 411.568 L 2042.000 402.000 1210.000 401.410 C 745.558 401.081,370.148 402.373,360.226 404.334 M512.000 673.444 C 519.700 676.245,677.644 773.363,862.986 889.262 L 1199.972 1099.988 1542.065 886.227 C 1819.040 713.156,1887.598 671.951,1902.231 669.756 C 1929.234 665.707,1954.516 674.305,1974.568 694.358 C 2008.323 728.112,2008.354 775.888,1974.644 810.122 C 1958.222 826.799,1266.390 1262.396,1236.470 1274.897 C 1218.298 1282.490,1181.650 1282.468,1163.427 1274.854 C 1133.380 1262.300,441.812 826.862,425.356 810.137 C 391.392 775.615,391.656 728.134,426.003 693.786 C 450.410 669.380,480.961 662.153,512.000 673.444 " fill="#1D1E23" stroke="none" fill-rule="evenodd"/></svg>