<svg viewBox="0 0 2400 2400" fill="none" xmlns="http://www.w3.org/2000/svg"><path d="M200.000 1200.000 L 200.000 2000.000 1200.000 2000.000 L 2200.000 2000.000 2200.000 1200.000 L 2200.000 400.000 1200.000 400.000 L 200.000 400.000 200.000 1200.000 M1679.000 606.661 C 1842.350 608.121,1975.949 610.370,1975.886 611.658 C 1975.756 614.354,1930.181 643.221,1512.000 905.480 C 1343.700 1011.028,1203.300 1097.408,1200.000 1097.436 C 1191.579 1097.505,419.611 613.517,424.240 611.070 C 426.290 609.986,877.433 606.312,1176.000 604.948 C 1289.300 604.430,1515.650 605.201,1679.000 606.661 M831.000 1069.389 L 1200.000 1300.005 1569.000 1069.389 C 1771.950 942.550,1951.950 830.037,1969.000 819.359 L 2000.000 799.945 2000.000 1299.973 L 2000.000 1800.000 1200.000 1800.000 L 400.000 1800.000 400.000 1299.973 L 400.000 799.945 431.000 819.359 C 448.050 830.037,628.050 942.550,831.000 1069.389 " fill="#1D1E23" stroke="none" fill-rule="evenodd"/></svg>