<svg viewBox="0 0 2400 2400" fill="none" xmlns="http://www.w3.org/2000/svg"><path d="M702.000 407.857 L 338.000 410.000 316.000 421.919 C 284.787 438.828,234.430 489.725,221.957 516.969 C 202.052 560.448,202.000 562.293,202.000 1224.209 L 202.000 1842.417 216.816 1872.209 C 241.316 1921.474,279.681 1961.297,323.328 1982.768 C 343.411 1992.647,349.482 1993.442,427.328 1996.385 C 536.381 2000.508,1843.526 2000.473,1962.825 1996.344 C 2053.911 1993.191,2056.083 1992.917,2078.825 1981.666 C 2105.959 1968.242,2161.231 1915.437,2177.504 1887.392 C 2184.676 1875.031,2189.736 1858.245,2192.577 1837.392 C 2195.385 1816.778,2197.522 1591.627,2198.800 1181.605 L 2200.747 557.209 2189.896 535.605 C 2162.493 481.049,2130.777 448.503,2075.668 418.389 L 2049.336 404.000 1557.668 404.857 C 1287.251 405.328,902.200 406.678,702.000 407.857 M1679.000 606.661 C 1842.350 608.121,1975.949 610.370,1975.886 611.658 C 1975.756 614.354,1930.181 643.221,1512.000 905.480 C 1343.700 1011.028,1203.300 1097.408,1200.000 1097.436 C 1191.579 1097.505,419.611 613.517,424.240 611.070 C 426.290 609.986,877.433 606.312,1176.000 604.948 C 1289.300 604.430,1515.650 605.201,1679.000 606.661 M890.000 1105.911 C 1068.790 1216.312,1121.287 1247.398,1140.226 1254.080 C 1151.562 1258.079,1173.005 1260.000,1206.318 1260.000 L 1255.629 1260.000 1312.815 1226.479 C 1344.267 1208.042,1437.500 1151.072,1520.000 1099.879 C 1863.543 886.702,1919.690 852.101,1954.000 832.428 L 1990.000 811.786 1993.132 894.893 C 1998.219 1029.892,1994.201 1718.784,1988.214 1738.000 C 1985.117 1747.941,1975.268 1761.767,1962.204 1774.511 L 1941.179 1795.023 1657.589 1798.092 C 1501.615 1799.780,1171.016 1800.028,922.924 1798.644 C 512.367 1796.353,470.686 1795.526,458.924 1789.444 C 437.390 1778.308,423.544 1766.623,417.040 1754.097 C 407.262 1735.262,404.962 1653.168,401.771 1208.859 L 398.832 799.719 582.416 914.531 C 683.387 977.678,821.800 1063.799,890.000 1105.911 " fill="#1D1E23" stroke="none" fill-rule="evenodd"/></svg>