<svg viewBox="0 0 2400 2400" fill="none" xmlns="http://www.w3.org/2000/svg"><path d="M368.000 407.662 C 347.972 409.223,332.017 413.116,320.000 419.375 C 272.513 444.109,231.104 487.152,215.499 528.000 C 201.375 564.973,199.552 657.135,200.943 1264.000 C 202.175 1801.535,202.662 1835.253,209.498 1856.000 C 226.786 1908.466,268.134 1955.749,318.337 1980.464 C 344.228 1993.211,347.486 1993.783,409.593 1996.511 C 498.408 2000.412,1906.202 2000.303,1988.874 1996.389 C 2053.486 1993.330,2056.665 1992.774,2082.874 1979.943 C 2120.034 1961.751,2162.307 1919.322,2179.678 1882.780 C 2191.167 1858.613,2193.046 1849.643,2196.431 1802.780 C 2198.675 1771.721,2199.783 1503.896,2199.122 1152.000 L 2198.000 554.000 2183.065 522.721 C 2162.058 478.727,2129.502 445.717,2083.878 422.154 L 2048.729 404.000 1223.365 404.662 C 769.414 405.027,384.500 406.377,368.000 407.662 M524.785 683.154 C 558.336 700.557,636.907 748.791,964.972 953.381 L 1199.943 1099.916 1474.972 928.571 C 1885.031 673.101,1898.837 665.168,1924.885 670.055 C 1973.155 679.110,2007.952 728.508,1996.243 771.355 C 1990.017 794.139,1968.681 815.011,1916.573 849.294 C 1824.756 909.701,1391.520 1182.503,1282.310 1248.679 L 1230.620 1280.000 1199.999 1280.000 C 1169.855 1280.000,1168.792 1279.647,1131.689 1257.277 C 1065.466 1217.352,671.034 970.118,566.699 903.136 C 418.098 807.736,413.233 803.680,403.428 767.019 C 399.262 751.444,399.580 746.254,405.679 730.283 C 415.505 704.555,430.144 688.500,453.837 677.467 C 481.179 664.735,490.756 665.503,524.785 683.154 " fill="#1D1E23" stroke="none" fill-rule="evenodd"/></svg>