<svg viewBox="0 0 2400 2400" fill="none" xmlns="http://www.w3.org/2000/svg"><path d="M584.000 403.753 L 346.000 406.000 318.713 419.341 C 279.639 438.445,239.752 477.293,221.693 513.832 C 208.782 539.956,207.131 547.220,203.855 592.310 C 199.432 653.187,199.256 1776.949,203.662 1823.037 C 209.967 1888.990,251.613 1947.556,314.202 1978.490 C 343.649 1993.043,347.895 1993.986,395.634 1996.575 C 461.344 2000.138,1938.656 2000.138,2004.366 1996.575 C 2052.105 1993.986,2056.351 1993.043,2085.798 1978.490 C 2126.843 1958.204,2158.135 1926.983,2178.285 1886.212 C 2192.396 1857.660,2193.670 1852.081,2196.876 1804.780 C 2198.770 1776.851,2199.797 1484.900,2199.159 1156.000 L 2198.000 558.000 2188.375 534.000 C 2167.139 481.051,2134.179 445.678,2082.797 420.694 L 2050.000 404.747 1436.000 403.126 C 1098.300 402.235,714.900 402.516,584.000 403.753 M520.594 679.274 C 547.679 693.538,659.634 762.542,960.962 950.694 L 1199.924 1099.904 1464.962 934.571 C 1897.607 664.682,1895.853 665.688,1925.790 670.178 C 1970.984 676.955,2006.294 723.196,1998.401 765.267 C 1993.475 791.526,1976.676 810.067,1930.286 840.445 C 1818.810 913.445,1412.261 1169.590,1286.000 1246.376 L 1234.000 1278.000 1200.000 1278.000 L 1166.000 1278.000 1130.000 1256.213 C 1067.515 1218.398,750.578 1020.153,636.000 947.216 C 472.901 843.391,433.856 817.629,423.972 807.319 C 411.532 794.343,400.192 768.493,400.088 752.872 C 399.816 712.176,443.513 668.335,484.594 668.088 C 493.017 668.037,508.238 672.767,520.594 679.274 " fill="#1D1E23" stroke="none" fill-rule="evenodd"/></svg>