<svg viewBox="0 0 2400 2400" fill="none" xmlns="http://www.w3.org/2000/svg"><path d="M564.342 406.828 C 554.630 410.280,539.161 420.628,529.967 429.823 C 497.410 462.380,500.000 391.490,500.000 1250.000 C 500.000 2108.341,497.423 2037.633,529.895 2070.105 C 569.021 2109.232,630.979 2109.232,670.105 2070.105 C 701.200 2039.010,700.000 2053.578,700.000 1707.287 L 700.000 1400.000 980.000 1400.000 C 1134.000 1400.000,1260.000 1400.619,1260.000 1401.376 C 1260.000 1407.139,1285.043 1524.882,1288.532 1535.523 C 1294.342 1553.245,1317.335 1578.375,1337.727 1589.290 C 1353.937 1597.966,1355.082 1598.004,1633.650 1599.106 C 1949.924 1600.356,1938.908 1601.303,1970.014 1570.196 C 2001.788 1538.423,2000.000 1566.458,2000.000 1100.000 C 2000.000 633.689,2001.772 661.562,1970.105 629.895 C 1939.623 599.412,1945.378 600.000,1677.287 600.000 C 1546.779 600.000,1440.000 599.381,1440.000 598.624 C 1440.000 592.861,1414.957 475.118,1411.468 464.477 C 1405.658 446.755,1382.665 421.625,1362.273 410.710 L 1346.000 402.000 964.000 401.275 C 625.881 400.633,579.972 401.271,564.342 406.828 " fill="#1D1E23" stroke="none" fill-rule="evenodd"/></svg>