<svg viewBox="0 0 2400 2400" fill="none" xmlns="http://www.w3.org/2000/svg"><path d="M568.000 406.901 C 549.794 410.199,516.827 438.475,511.940 454.984 C 502.400 487.211,499.235 781.698,501.910 1388.000 C 503.381 1721.300,505.839 2006.101,507.374 2020.891 C 509.879 2045.038,511.757 2049.414,525.787 2063.782 C 568.756 2107.786,626.759 2109.622,668.094 2068.287 C 679.375 2057.006,689.256 2042.624,691.978 2033.523 C 695.236 2022.627,697.290 1925.892,698.867 1709.000 L 701.114 1400.000 979.996 1400.000 L 1258.878 1400.000 1267.474 1443.000 C 1284.364 1527.497,1300.221 1564.092,1327.876 1582.393 C 1341.551 1591.443,1349.615 1593.045,1398.655 1596.457 C 1429.095 1598.574,1561.100 1599.788,1692.000 1599.154 C 1960.472 1597.852,1939.565 1600.400,1972.729 1564.945 C 1990.440 1546.010,1991.340 1543.882,1994.442 1513.596 C 1996.222 1496.218,1997.751 1299.300,1997.839 1076.000 C 1998.020 619.745,2000.952 661.874,1966.691 628.531 C 1953.666 615.855,1943.974 610.179,1931.370 607.847 C 1921.817 606.078,1807.531 603.318,1677.402 601.712 L 1440.803 598.792 1436.109 574.396 C 1428.063 532.574,1412.410 473.620,1404.376 454.878 C 1398.788 441.840,1390.391 432.424,1373.690 420.465 L 1350.698 404.000 964.349 404.545 C 751.857 404.844,573.500 405.905,568.000 406.901 " fill="#1D1E23" stroke="none" fill-rule="evenodd"/></svg>