<svg viewBox="0 0 2400 2400" fill="none" xmlns="http://www.w3.org/2000/svg"><path d="M611.449 403.718 L 560.897 406.000 537.449 424.192 C 517.979 439.298,512.998 445.746,508.097 462.192 C 502.983 479.349,502.180 584.258,502.097 1246.000 C 502.018 1868.000,502.990 2014.311,507.324 2033.196 C 512.148 2054.209,514.773 2058.059,535.224 2074.110 C 575.299 2105.564,619.282 2107.376,658.532 2079.188 C 682.786 2061.771,691.430 2046.112,695.931 2011.440 C 698.045 1995.159,699.808 1851.931,699.876 1691.000 L 700.000 1400.000 979.293 1400.000 L 1258.586 1400.000 1273.336 1469.000 C 1289.910 1546.530,1297.051 1561.117,1328.935 1582.570 C 1347.229 1594.879,1348.886 1595.197,1408.808 1597.923 C 1442.464 1599.454,1572.600 1600.098,1698.000 1599.353 L 1926.000 1598.000 1944.824 1588.728 C 1968.294 1577.168,1986.101 1557.259,1992.832 1535.053 C 2000.585 1509.473,2000.375 689.929,1992.609 664.000 C 1986.070 642.169,1959.030 614.636,1937.177 607.559 C 1926.110 603.974,1856.916 602.205,1681.643 601.023 L 1441.286 599.403 1426.600 530.702 C 1410.132 453.663,1402.900 438.851,1371.410 417.661 L 1353.074 405.321 1153.879 402.661 C 933.783 399.721,689.448 400.197,611.449 403.718 " fill="#1D1E23" stroke="none" fill-rule="evenodd"/></svg>