<svg viewBox="0 0 2400 2400" fill="none" xmlns="http://www.w3.org/2000/svg"><path d="M618.000 407.795 C 583.611 409.059,554.585 411.994,550.000 414.672 C 536.834 422.360,516.800 445.181,511.962 458.000 C 500.883 487.357,497.173 1047.939,503.546 1730.000 C 506.682 2065.767,505.065 2046.722,532.390 2069.715 C 583.777 2112.954,641.493 2105.504,682.340 2050.361 L 693.925 2034.721 696.609 1928.361 C 698.085 1869.862,699.452 1727.050,699.646 1611.000 L 700.000 1400.000 979.504 1400.000 L 1259.008 1400.000 1266.022 1437.000 C 1276.119 1490.255,1293.889 1543.554,1307.902 1562.608 C 1325.940 1587.136,1340.148 1592.103,1405.344 1596.675 C 1482.638 1602.095,1917.301 1598.831,1935.772 1592.693 C 1943.347 1590.175,1956.545 1581.340,1965.102 1573.058 C 1995.001 1544.119,1993.336 1556.971,1997.102 1326.000 C 2001.014 1086.150,1998.256 689.307,1992.520 666.511 C 1988.314 649.798,1970.071 628.477,1948.567 615.142 C 1935.541 607.064,1927.661 606.687,1688.095 602.657 L 1441.057 598.501 1432.278 556.666 C 1413.149 465.496,1402.064 441.741,1366.400 415.485 L 1350.800 404.000 1014.400 404.795 C 829.380 405.233,651.000 406.583,618.000 407.795 " fill="#1D1E23" stroke="none" fill-rule="evenodd"/></svg>