<svg viewBox="0 0 2400 2400" fill="none" xmlns="http://www.w3.org/2000/svg"><path d="M635.736 403.487 L 561.473 406.000 540.379 422.000 C 504.399 449.292,506.650 434.296,502.854 672.000 C 498.085 970.574,502.230 2017.204,508.264 2037.953 C 513.776 2056.909,532.389 2075.542,558.808 2088.550 C 584.008 2100.958,619.088 2101.179,642.273 2089.075 C 663.275 2078.111,686.127 2052.693,692.434 2033.283 C 696.154 2021.833,697.797 1940.497,698.983 1709.000 L 700.567 1400.000 979.637 1400.000 L 1258.706 1400.000 1267.885 1445.000 C 1283.420 1521.158,1294.530 1551.720,1313.142 1569.489 C 1344.549 1599.475,1326.025 1597.776,1637.664 1599.254 C 1894.617 1600.472,1918.792 1600.021,1935.369 1593.690 C 1958.507 1584.853,1986.113 1557.317,1991.798 1537.405 C 1997.660 1516.875,2001.656 974.947,1997.269 795.644 L 1993.981 661.289 1982.669 644.966 C 1976.448 635.988,1964.006 623.548,1955.021 617.321 L 1938.685 606.000 1826.342 603.383 C 1764.554 601.943,1652.641 600.593,1577.647 600.383 L 1441.294 600.000 1432.115 555.000 C 1420.422 497.674,1406.185 451.856,1396.070 438.998 C 1391.715 433.461,1379.568 423.478,1369.076 416.812 L 1350.000 404.692 1030.000 402.833 C 854.000 401.811,676.581 402.105,635.736 403.487 " fill="#1D1E23" stroke="none" fill-rule="evenodd"/></svg>