<svg viewBox="0 0 2400 2400" fill="none" xmlns="http://www.w3.org/2000/svg"><path d="M600.000 300.000 L 600.000 400.000 700.000 400.000 L 800.000 400.000 799.639 563.000 C 799.441 652.650,797.889 781.800,796.191 850.000 C 793.167 971.397,792.881 974.541,782.541 999.785 C 749.176 1081.241,685.574 1148.576,616.154 1175.939 C 587.703 1187.154,533.899 1199.937,515.000 1199.972 L 500.000 1200.000 500.000 1300.000 L 500.000 1400.000 798.000 1400.000 L 1096.000 1400.000 1096.000 1749.058 L 1096.000 2098.115 1147.058 2149.060 L 1198.116 2200.004 1247.058 2150.944 L 1296.000 2101.884 1296.000 1750.942 L 1296.000 1400.000 1598.000 1400.000 L 1900.000 1400.000 1900.000 1300.000 L 1900.000 1200.000 1885.000 1199.972 C 1866.101 1199.937,1812.297 1187.154,1783.846 1175.939 C 1714.506 1148.608,1651.640 1082.134,1617.395 999.935 C 1606.739 974.359,1606.549 972.311,1603.647 852.000 C 1602.028 784.900,1600.546 655.750,1600.352 565.000 L 1600.000 400.000 1700.000 400.000 L 1800.000 400.000 1800.000 300.000 L 1800.000 200.000 1200.000 200.000 L 600.000 200.000 600.000 300.000 " fill="#1D1E23" stroke="none" fill-rule="evenodd"/></svg>