<svg viewBox="0 0 2400 2400" fill="none" xmlns="http://www.w3.org/2000/svg"><path d="M677.176 206.799 C 653.492 208.300,651.618 209.207,636.363 226.537 C 618.294 247.065,604.630 272.955,601.461 292.673 C 598.589 310.541,612.290 346.226,629.941 366.847 C 650.907 391.341,668.008 396.379,739.000 398.975 L 800.000 401.205 799.946 483.603 C 799.853 624.451,792.104 935.060,787.953 964.330 C 781.938 1006.742,746.739 1071.658,708.303 1111.226 C 687.341 1132.806,659.403 1150.911,596.008 1184.000 C 531.222 1217.814,510.686 1236.961,503.965 1269.818 C 494.696 1315.131,514.733 1361.906,553.683 1385.883 L 573.365 1398.000 834.033 1399.343 L 1094.702 1400.686 1097.487 1743.343 C 1099.019 1931.804,1101.926 2097.614,1103.947 2111.809 C 1110.882 2160.522,1146.023 2192.539,1195.523 2195.245 C 1218.489 2196.500,1224.861 2195.187,1243.570 2185.346 C 1272.949 2169.892,1287.544 2150.891,1292.590 2121.526 C 1294.984 2107.596,1297.475 1955.783,1298.698 1749.342 L 1300.764 1400.684 1563.382 1399.342 L 1826.000 1398.000 1845.169 1386.733 C 1905.963 1350.997,1916.907 1263.004,1865.798 1220.876 C 1857.858 1214.332,1827.126 1196.607,1797.503 1181.489 C 1767.880 1166.370,1732.981 1145.415,1719.950 1134.922 C 1686.189 1107.738,1652.738 1066.297,1630.480 1024.083 L 1611.261 987.632 1607.931 906.816 C 1606.100 862.367,1603.343 730.434,1601.805 613.631 L 1599.009 401.263 1657.116 398.909 C 1689.074 397.614,1722.611 394.340,1731.641 391.635 C 1753.236 385.165,1777.260 364.185,1787.648 342.726 C 1811.296 293.877,1781.944 222.036,1734.000 211.418 C 1720.078 208.335,1560.237 206.721,1208.000 206.107 C 929.700 205.622,690.829 205.933,677.176 206.799 " fill="#1D1E23" stroke="none" fill-rule="evenodd"/></svg>