<svg viewBox="0 0 2400 2400" fill="none" xmlns="http://www.w3.org/2000/svg"><path d="M718.000 204.128 C 685.000 205.576,657.510 207.040,656.911 207.381 C 656.311 207.721,647.610 215.569,637.573 224.820 C 601.877 257.724,591.390 298.475,608.821 336.550 C 614.235 348.374,624.760 364.145,632.211 371.596 C 654.786 394.171,667.012 397.381,737.370 399.209 L 800.741 400.854 798.916 673.427 C 796.879 977.719,797.606 969.306,768.125 1030.000 C 750.051 1067.210,718.226 1107.231,685.533 1133.862 C 659.920 1154.726,642.525 1164.226,590.849 1185.568 C 542.901 1205.371,527.067 1216.702,514.136 1240.459 C 485.612 1292.868,505.331 1364.179,555.130 1388.706 L 574.000 1398.000 835.000 1399.236 L 1096.000 1400.473 1096.432 1467.236 C 1096.670 1503.956,1098.020 1667.200,1099.432 1830.000 L 1102.000 2126.000 1111.298 2144.878 C 1130.072 2182.997,1179.061 2206.207,1220.537 2196.633 C 1244.423 2191.120,1277.554 2168.333,1286.314 2151.393 C 1298.043 2128.712,1299.940 2071.182,1299.970 1737.235 L 1300.000 1400.470 1563.000 1399.235 L 1826.000 1398.000 1844.870 1388.706 C 1894.317 1364.352,1914.423 1292.703,1886.239 1241.286 C 1873.150 1217.408,1855.733 1204.790,1809.787 1185.899 C 1748.011 1160.499,1727.983 1147.930,1692.026 1111.998 C 1655.939 1075.935,1638.982 1050.679,1619.021 1003.259 L 1606.705 974.000 1603.726 864.000 C 1602.087 803.500,1600.579 674.350,1600.373 577.000 L 1600.000 400.000 1651.803 400.000 C 1731.372 400.000,1753.492 392.655,1780.078 357.403 C 1805.868 323.208,1804.858 276.587,1777.519 239.345 C 1756.858 211.199,1747.309 207.550,1684.243 203.702 C 1621.288 199.861,807.034 200.220,718.000 204.128 " fill="#1D1E23" stroke="none" fill-rule="evenodd"/></svg>