<svg viewBox="0 0 2400 2400" fill="none" xmlns="http://www.w3.org/2000/svg"><path d="M664.342 206.868 C 629.056 219.332,600.000 261.388,600.000 300.000 C 600.000 324.160,611.933 352.144,629.895 370.105 C 654.632 394.842,674.096 400.000,742.713 400.000 L 800.000 400.000 800.000 661.648 C 800.000 945.705,799.332 956.132,777.650 1010.686 C 762.421 1049.001,743.514 1077.627,712.614 1109.151 C 678.941 1143.504,646.406 1164.765,603.664 1180.347 C 558.366 1196.861,533.995 1210.629,521.828 1226.581 C 489.734 1268.659,493.384 1333.594,529.895 1370.105 C 560.556 1400.767,552.601 1400.000,840.066 1400.000 L 1094.706 1400.000 1097.353 1532.653 C 1098.809 1605.612,1100.000 1766.391,1100.000 1889.940 C 1100.000 2143.911,1099.558 2139.768,1129.895 2170.105 C 1169.021 2209.232,1230.979 2209.232,1270.105 2170.105 C 1301.506 2138.705,1300.000 2159.495,1300.000 1757.287 L 1300.000 1400.000 1557.287 1400.000 C 1847.708 1400.000,1839.418 1400.792,1870.105 1370.105 C 1906.616 1333.594,1910.266 1268.659,1878.172 1226.581 C 1866.018 1210.646,1841.638 1196.862,1796.503 1180.408 C 1754.376 1165.050,1729.324 1149.256,1694.562 1116.139 C 1653.442 1076.965,1628.657 1036.816,1610.637 980.186 C 1602.585 954.881,1602.260 944.680,1600.973 677.000 L 1599.643 400.000 1657.109 400.000 C 1725.920 400.000,1745.351 394.859,1770.105 370.105 C 1809.232 330.979,1809.232 269.021,1770.105 229.895 C 1738.076 197.866,1778.575 199.961,1198.287 200.316 C 741.404 200.595,679.968 201.349,664.342 206.868 " fill="#1D1E23" stroke="none" fill-rule="evenodd"/></svg>