<svg viewBox="0 0 2400 2400" fill="none" xmlns="http://www.w3.org/2000/svg"><path d="M600.000 300.000 L 600.000 400.000 700.647 400.000 L 801.293 400.000 798.451 647.000 C 796.887 782.850,794.145 914.823,792.357 940.274 C 789.314 983.607,788.019 988.744,771.988 1021.096 C 739.669 1086.317,684.578 1144.007,629.921 1169.864 C 603.807 1182.218,536.328 1200.000,515.562 1200.000 L 500.000 1200.000 500.000 1300.000 L 500.000 1400.000 798.000 1400.000 L 1096.000 1400.000 1096.000 1749.058 L 1096.000 2098.115 1147.058 2149.060 L 1198.116 2200.004 1247.058 2150.944 L 1296.000 2101.884 1296.000 1750.942 L 1296.000 1400.000 1598.000 1400.000 L 1900.000 1400.000 1900.000 1300.000 L 1900.000 1200.000 1884.438 1200.000 C 1861.700 1200.000,1793.846 1181.404,1765.279 1167.344 C 1711.759 1141.002,1656.046 1081.045,1625.734 1017.170 C 1605.905 975.384,1604.968 961.357,1601.549 655.000 L 1598.702 400.000 1699.351 400.000 L 1800.000 400.000 1800.000 300.000 L 1800.000 200.000 1200.000 200.000 L 600.000 200.000 600.000 300.000 " fill="#1D1E23" stroke="none" fill-rule="evenodd"/></svg>