<svg viewBox="0 0 2400 2400" fill="none" xmlns="http://www.w3.org/2000/svg"><path d="M875.189 203.549 L 656.379 206.000 640.007 221.990 C 619.884 241.643,599.986 280.301,600.039 299.639 C 600.087 317.417,614.828 349.831,631.498 368.817 C 652.657 392.916,665.177 396.516,736.429 398.989 L 800.000 401.195 799.890 499.597 C 799.830 553.719,798.098 679.900,796.041 780.000 C 791.928 980.239,792.076 979.040,765.066 1030.963 C 743.376 1072.661,717.513 1106.361,690.000 1128.780 C 676.800 1139.535,637.659 1162.711,603.020 1180.281 C 530.316 1217.159,515.127 1230.012,505.625 1262.698 C 491.446 1311.471,513.710 1365.750,557.503 1389.175 C 573.962 1397.980,574.594 1398.003,834.504 1399.137 L 1095.008 1400.274 1097.889 1759.137 C 1100.651 2103.125,1101.095 2118.746,1108.600 2136.000 C 1130.713 2186.840,1192.955 2212.158,1238.466 2188.825 C 1262.522 2176.491,1280.302 2160.255,1286.811 2144.677 C 1296.947 2120.417,1299.827 2024.698,1299.914 1709.137 L 1300.000 1400.273 1563.000 1399.137 C 1825.484 1398.002,1826.032 1397.983,1842.497 1389.175 C 1886.003 1365.903,1908.546 1311.446,1894.573 1263.380 C 1884.750 1229.589,1868.576 1215.981,1796.451 1180.826 C 1735.571 1151.152,1732.982 1149.369,1693.544 1109.970 C 1657.630 1074.091,1650.721 1064.790,1631.996 1027.122 L 1610.905 984.691 1607.824 933.346 C 1606.130 905.106,1603.427 773.803,1601.818 641.561 L 1598.893 401.123 1658.446 398.876 C 1726.193 396.319,1742.467 392.613,1762.262 375.233 C 1800.527 341.636,1807.868 300.506,1783.954 253.704 C 1765.531 217.648,1755.725 212.109,1702.919 207.933 C 1644.884 203.343,1134.724 200.641,875.189 203.549 " fill="#1D1E23" stroke="none" fill-rule="evenodd"/></svg>