<svg viewBox="0 0 2400 2400" fill="none" xmlns="http://www.w3.org/2000/svg"><path d="M600.000 300.000 L 600.000 400.000 700.557 400.000 L 801.114 400.000 798.272 627.000 C 796.709 751.850,793.904 883.362,792.040 919.250 C 788.744 982.713,788.256 985.332,774.216 1014.895 C 743.601 1079.363,687.802 1139.926,635.454 1165.507 C 602.761 1181.484,538.170 1199.974,515.000 1199.990 L 500.000 1200.000 500.000 1300.000 L 500.000 1400.000 798.000 1400.000 L 1096.000 1400.000 1096.000 1749.058 L 1096.000 2098.115 1147.058 2149.060 L 1198.116 2200.004 1247.058 2150.944 L 1296.000 2101.884 1296.000 1750.942 L 1296.000 1400.000 1598.000 1400.000 L 1900.000 1400.000 1900.000 1300.000 L 1900.000 1200.000 1885.000 1199.990 C 1861.830 1199.974,1797.239 1181.484,1764.546 1165.507 C 1697.896 1132.938,1625.154 1041.458,1612.116 973.814 C 1607.420 949.446,1600.541 674.401,1600.191 497.000 L 1600.000 400.000 1700.000 400.000 L 1800.000 400.000 1800.000 300.000 L 1800.000 200.000 1200.000 200.000 L 600.000 200.000 600.000 300.000 " fill="#1D1E23" stroke="none" fill-rule="evenodd"/></svg>