<svg viewBox="0 0 2400 2400" fill="none" xmlns="http://www.w3.org/2000/svg"><path d="M1068.365 804.045 C 804.785 826.050,560.382 944.014,386.433 1133.185 C 311.987 1214.145,264.073 1281.347,219.030 1367.980 C 201.060 1402.542,198.056 1411.642,196.701 1435.623 C 193.122 1498.956,230.464 1548.951,294.241 1566.215 C 318.903 1572.891,321.494 1572.898,345.113 1566.360 C 393.587 1552.942,411.779 1535.540,450.025 1466.000 C 566.080 1254.991,772.307 1106.615,1008.695 1064.050 C 1097.264 1048.101,1222.953 1049.703,1310.334 1067.892 C 1368.163 1079.930,1441.782 1105.683,1498.000 1133.540 C 1548.255 1158.443,1619.195 1202.744,1647.947 1227.181 L 1661.894 1239.035 1558.926 1343.756 C 1502.294 1401.353,1452.977 1454.220,1449.333 1461.239 C 1439.774 1479.652,1440.871 1513.592,1451.844 1538.908 C 1463.125 1564.935,1489.899 1590.364,1510.641 1594.751 C 1519.088 1596.538,1661.000 1598.000,1826.000 1598.000 C 2092.374 1598.000,2127.569 1597.283,2140.000 1591.606 C 2161.713 1581.690,2178.504 1565.584,2188.688 1544.907 L 2198.000 1526.000 2198.000 1220.000 L 2198.000 914.000 2189.351 898.000 C 2169.419 861.130,2140.095 844.000,2096.912 844.000 C 2073.712 844.000,2066.870 845.722,2051.783 855.359 C 2042.002 861.606,1993.442 906.156,1943.871 954.359 C 1894.299 1002.561,1849.813 1045.371,1845.013 1049.491 C 1836.369 1056.910,1836.099 1056.830,1817.142 1041.236 C 1690.159 936.775,1522.820 856.267,1365.312 823.858 C 1274.837 805.242,1152.106 797.053,1068.365 804.045 " fill="#1D1E23" stroke="none" fill-rule="evenodd"/></svg>