<svg viewBox="0 0 2400 2400" fill="none" xmlns="http://www.w3.org/2000/svg"><path d="M2019.629 882.360 L 1841.270 1060.719 1799.635 1028.901 C 1646.769 912.079,1492.581 845.240,1306.694 815.216 C 1237.515 804.043,1062.893 803.118,995.580 813.570 C 704.333 858.790,440.836 1026.289,280.210 1268.314 C 241.865 1326.090,179.177 1446.177,166.159 1486.792 C 156.900 1515.680,160.525 1520.525,202.923 1535.943 C 261.058 1557.083,361.153 1590.744,374.765 1593.731 L 387.530 1596.532 423.275 1523.266 C 475.106 1417.032,513.489 1361.388,585.163 1288.578 C 625.157 1247.950,669.461 1211.690,714.992 1182.322 C 753.328 1157.596,865.867 1103.223,905.584 1090.239 C 976.685 1066.994,1054.917 1056.081,1150.795 1056.033 C 1294.386 1055.960,1399.665 1082.149,1520.177 1147.920 C 1571.255 1175.796,1632.600 1213.459,1646.747 1225.628 C 1656.030 1233.613,1656.557 1235.501,1651.951 1244.257 C 1649.132 1249.616,1569.341 1331.850,1474.637 1427.000 L 1302.450 1600.000 1751.225 1600.000 L 2200.000 1600.000 2200.000 1152.000 C 2200.000 905.600,2199.547 704.000,2198.994 704.000 C 2198.441 704.000,2117.727 784.262,2019.629 882.360 " fill="#1D1E23" stroke="none" fill-rule="evenodd"/></svg>