<svg viewBox="0 0 2400 2400" fill="none" xmlns="http://www.w3.org/2000/svg"><path d="M2019.431 882.558 L 1840.873 1061.116 1807.436 1035.040 C 1696.787 948.749,1562.347 879.466,1438.000 844.654 C 1325.940 813.281,1264.205 806.507,1114.000 809.104 C 1008.356 810.929,998.802 811.726,945.656 823.145 C 781.475 858.421,634.212 926.510,504.000 1027.351 C 434.670 1081.042,343.706 1177.177,291.434 1252.000 C 251.382 1309.331,178.977 1445.550,166.850 1486.387 C 159.891 1509.818,162.415 1516.897,181.199 1526.640 C 195.882 1534.256,355.547 1589.638,374.763 1593.780 L 387.527 1596.532 427.481 1517.266 C 449.456 1473.670,477.669 1422.700,490.178 1404.000 C 553.597 1309.192,650.579 1218.555,746.000 1164.916 C 794.797 1137.485,879.907 1098.902,918.412 1086.755 C 1023.604 1053.570,1197.765 1047.261,1319.154 1072.238 C 1409.371 1090.800,1511.147 1136.527,1619.000 1206.956 C 1644.889 1223.862,1652.000 1230.535,1652.000 1237.924 C 1652.000 1244.976,1608.171 1291.646,1477.556 1423.671 L 1303.113 1600.000 1751.556 1600.000 L 2200.000 1600.000 2200.000 1152.000 C 2200.000 905.600,2199.547 704.000,2198.994 704.000 C 2198.441 704.000,2117.638 784.351,2019.431 882.558 " fill="#1D1E23" stroke="none" fill-rule="evenodd"/></svg>