<svg viewBox="0 0 2400 2400" fill="none" xmlns="http://www.w3.org/2000/svg"><path d="M2019.607 882.382 L 1841.225 1060.764 1803.612 1031.382 C 1643.610 906.392,1465.056 832.524,1268.000 809.797 C 1197.148 801.626,1052.796 803.692,990.000 813.776 C 692.629 861.528,423.888 1037.326,267.230 1286.578 C 222.500 1357.745,160.000 1487.055,160.000 1508.431 C 160.000 1512.797,165.554 1519.495,172.854 1523.935 C 186.251 1532.082,374.004 1596.000,384.538 1596.000 C 388.427 1596.000,397.770 1579.086,410.919 1548.243 C 475.268 1397.291,575.511 1274.571,705.061 1188.147 C 754.933 1154.877,848.463 1108.788,902.082 1091.062 C 1063.409 1037.729,1274.953 1042.449,1427.994 1102.796 C 1494.334 1128.955,1636.820 1210.890,1655.853 1233.823 C 1660.859 1239.854,1643.097 1258.873,1481.730 1420.270 L 1302.033 1600.000 1751.017 1600.000 L 2200.000 1600.000 2200.000 1152.000 C 2200.000 905.600,2199.547 704.000,2198.994 704.000 C 2198.441 704.000,2117.717 784.272,2019.607 882.382 " fill="#1D1E23" stroke="none" fill-rule="evenodd"/></svg>