<svg viewBox="0 0 2400 2400" fill="none" xmlns="http://www.w3.org/2000/svg"><path d="M1058.973 804.342 C 859.807 820.790,658.124 901.177,498.000 1027.935 C 427.940 1083.397,340.443 1177.178,287.085 1254.000 C 256.335 1298.272,209.770 1380.608,201.641 1405.081 C 181.543 1465.592,208.364 1527.924,266.900 1556.741 C 303.961 1574.986,336.100 1574.957,373.300 1556.643 C 404.507 1541.280,417.782 1526.396,441.918 1479.707 C 559.892 1251.501,788.626 1091.459,1045.220 1057.587 C 1118.203 1047.952,1236.671 1051.761,1304.000 1065.906 C 1373.168 1080.437,1441.525 1103.938,1500.391 1133.425 C 1550.958 1158.754,1616.880 1200.532,1646.000 1225.704 L 1662.000 1239.535 1559.390 1342.767 C 1502.955 1399.545,1453.600 1452.300,1449.714 1460.000 C 1433.049 1493.013,1443.916 1543.994,1473.805 1573.022 C 1502.409 1600.802,1492.122 1600.000,1820.000 1600.000 C 2152.081 1600.000,2139.102 1601.108,2170.105 1570.105 C 2201.110 1539.101,2200.000 1552.106,2200.000 1219.790 C 2200.000 971.458,2199.079 922.395,2194.155 908.439 C 2179.766 867.656,2143.955 842.503,2100.013 842.314 C 2082.548 842.239,2068.742 844.698,2058.000 849.799 C 2048.134 854.483,2002.761 896.303,1939.645 958.885 C 1848.475 1049.283,1836.696 1059.658,1831.857 1053.828 C 1820.289 1039.889,1733.578 977.915,1683.978 948.135 C 1497.812 836.363,1279.481 786.132,1058.973 804.342 " fill="#1D1E23" stroke="none" fill-rule="evenodd"/></svg>