<svg viewBox="0 0 2400 2400" fill="none" xmlns="http://www.w3.org/2000/svg"><path d="M1112.000 203.923 C 833.630 231.768,590.463 362.388,419.326 576.000 C 147.365 915.458,126.704 1391.677,368.248 1753.288 C 676.969 2215.470,1294.618 2338.595,1756.000 2029.929 C 2215.492 1722.528,2337.727 1104.086,2029.929 644.000 C 1872.846 409.198,1631.891 256.219,1349.288 211.869 C 1290.914 202.708,1165.973 198.524,1112.000 203.923 M1272.576 404.038 C 1577.061 433.717,1833.941 627.519,1945.870 912.000 C 2033.733 1135.312,2011.422 1400.632,1887.383 1607.541 C 1672.000 1966.819,1222.500 2101.493,850.000 1918.351 C 519.776 1755.994,342.689 1393.923,417.838 1034.756 C 462.965 819.077,600.109 627.929,792.459 512.617 C 934.690 427.351,1108.498 388.044,1272.576 404.038 M764.342 1106.868 C 729.056 1119.332,700.000 1161.388,700.000 1200.000 C 700.000 1224.160,711.933 1252.144,729.895 1270.105 C 761.562 1301.772,733.689 1300.000,1200.000 1300.000 C 1666.311 1300.000,1638.438 1301.772,1670.105 1270.105 C 1709.232 1230.979,1709.232 1169.021,1670.105 1129.895 C 1638.403 1098.192,1666.611 1099.961,1198.287 1100.316 C 831.985 1100.594,779.880 1101.380,764.342 1106.868 " fill="#1D1E23" stroke="none" fill-rule="evenodd"/></svg>