<svg viewBox="0 0 2400 2400" fill="none" xmlns="http://www.w3.org/2000/svg"><path d="M626.000 1104.113 C 588.600 1105.528,557.510 1106.981,556.911 1107.343 C 556.311 1107.704,547.610 1115.569,537.573 1124.820 C 503.284 1156.427,491.661 1197.995,507.256 1233.251 C 518.214 1258.023,534.707 1279.126,548.807 1286.417 C 555.131 1289.687,578.686 1294.021,601.152 1296.047 C 654.481 1300.856,1745.519 1300.856,1798.848 1296.047 C 1821.314 1294.021,1844.971 1289.635,1851.420 1286.300 C 1868.336 1277.552,1891.123 1244.408,1896.633 1220.537 C 1902.994 1192.983,1896.431 1165.109,1877.519 1139.345 C 1856.381 1110.550,1848.443 1107.755,1776.451 1103.765 C 1705.920 1099.857,730.738 1100.151,626.000 1104.113 " fill="#1D1E23" stroke="none" fill-rule="evenodd"/></svg>