<svg viewBox="0 0 2400 2400" fill="none" xmlns="http://www.w3.org/2000/svg"><path d="M1112.000 203.923 C 833.630 231.768,590.463 362.388,419.326 576.000 C 147.365 915.458,126.704 1391.677,368.248 1753.288 C 676.969 2215.470,1294.618 2338.595,1756.000 2029.929 C 2215.492 1722.528,2337.727 1104.086,2029.929 644.000 C 1872.846 409.198,1631.891 256.219,1349.288 211.869 C 1290.914 202.708,1165.973 198.524,1112.000 203.923 M1646.071 1112.218 C 1716.173 1148.297,1716.173 1251.703,1646.072 1287.782 L 1626.217 1298.000 1206.305 1299.055 C 733.324 1300.242,761.754 1301.965,729.986 1270.196 C 690.731 1230.941,690.723 1169.067,729.967 1129.823 C 761.104 1098.685,731.122 1100.490,1204.108 1101.288 L 1626.217 1102.000 1646.071 1112.218 " fill="#1D1E23" stroke="none" fill-rule="evenodd"/></svg>