<svg viewBox="0 0 2400 2400" fill="none" xmlns="http://www.w3.org/2000/svg"><path d="M1062.000 210.040 C 838.845 245.765,647.360 340.791,498.022 489.920 C 335.373 652.340,239.530 845.602,207.371 1076.000 C 199.343 1133.512,200.542 1278.601,209.535 1338.000 C 259.968 1671.099,465.368 1953.685,762.000 2098.072 C 996.553 2212.242,1262.178 2230.922,1508.000 2150.533 C 1764.708 2066.585,1981.131 1878.587,2098.027 1638.000 C 2234.203 1357.731,2233.307 1038.111,2095.564 760.000 C 2043.904 655.694,1982.750 570.004,1904.273 491.959 C 1757.151 345.647,1581.994 255.288,1368.000 215.310 C 1310.952 204.652,1116.566 201.304,1062.000 210.040 M1643.576 1111.784 C 1677.279 1128.978,1696.800 1161.333,1696.800 1200.000 C 1696.800 1240.242,1675.085 1274.048,1637.568 1292.209 C 1620.855 1300.300,1616.806 1300.362,1199.350 1299.000 C 864.711 1297.908,774.717 1296.541,762.047 1292.361 C 721.714 1279.054,692.009 1220.531,703.648 1177.308 C 709.638 1155.061,731.677 1123.815,748.182 1114.170 C 769.117 1101.936,831.206 1100.494,1249.523 1102.527 C 1609.062 1104.274,1629.812 1104.762,1643.576 1111.784 " fill="#1D1E23" stroke="none" fill-rule="evenodd"/></svg>