<svg viewBox="0 0 2400 2400" fill="none" xmlns="http://www.w3.org/2000/svg"><path d="M1118.000 206.424 C 956.947 218.282,787.043 277.650,644.362 371.923 C 494.452 470.972,358.807 630.799,288.119 791.674 C 266.998 839.740,242.361 911.165,230.085 959.915 C 182.920 1147.222,193.856 1354.889,260.483 1537.119 C 334.478 1739.503,470.551 1912.980,650.000 2033.707 C 696.182 2064.777,800.010 2116.962,857.739 2138.120 C 908.419 2156.694,1005.333 2181.431,1062.000 2190.256 C 1129.444 2200.759,1285.600 2199.715,1350.000 2188.330 C 1565.633 2150.209,1739.801 2062.760,1894.450 1914.965 C 2167.011 1654.483,2267.301 1255.006,2149.937 897.307 C 2068.516 649.154,1906.900 452.080,1682.000 326.706 C 1573.429 266.182,1435.324 222.100,1324.000 212.437 C 1271.207 207.854,1147.583 204.246,1118.000 206.424 M1318.496 412.297 C 1440.631 426.829,1598.264 496.531,1705.754 583.535 C 1764.829 631.352,1827.251 701.125,1868.994 766.000 C 1890.423 799.305,1931.605 880.624,1947.540 921.101 C 1961.707 957.086,1977.603 1017.601,1986.653 1070.000 C 1996.263 1125.637,1996.222 1269.582,1986.580 1326.000 C 1962.110 1469.194,1904.150 1598.379,1816.292 1705.550 C 1785.050 1743.660,1717.219 1808.729,1678.832 1837.412 C 1533.448 1946.046,1346.246 2005.866,1174.000 1998.728 C 1016.201 1992.189,861.530 1938.574,730.966 1845.156 C 713.167 1832.420,677.066 1801.300,650.742 1776.000 C 575.704 1703.880,527.457 1637.271,482.120 1543.205 C 427.485 1429.849,404.000 1326.069,404.000 1198.000 C 404.000 1069.631,429.138 960.751,484.126 850.953 C 597.098 625.373,796.830 470.508,1042.919 417.686 C 1100.756 405.271,1237.042 402.606,1318.496 412.297 M919.188 1103.508 L 756.376 1106.000 740.006 1121.990 C 719.884 1141.644,699.986 1180.301,700.039 1199.639 C 700.085 1216.593,714.248 1248.657,729.856 1267.144 C 752.361 1293.799,748.913 1293.296,934.000 1296.936 C 1026.400 1298.753,1216.300 1299.639,1356.000 1298.905 C 1634.701 1297.441,1639.861 1297.016,1664.605 1273.526 C 1684.218 1254.907,1697.526 1225.337,1697.696 1200.000 C 1697.817 1182.131,1695.165 1173.122,1683.575 1152.021 C 1665.215 1118.597,1654.390 1112.352,1607.116 1107.915 C 1557.039 1103.214,1120.904 1100.420,919.188 1103.508 " fill="#1D1E23" stroke="none" fill-rule="evenodd"/></svg>