<svg viewBox="0 0 2400 2400" fill="none" xmlns="http://www.w3.org/2000/svg"><path d="M606.000 307.894 C 439.523 309.981,437.837 310.085,420.000 319.381 C 375.315 342.668,337.624 380.884,317.605 423.201 C 308.012 443.480,306.682 452.149,303.708 513.813 C 299.369 603.786,299.450 1798.524,303.802 1886.000 C 307.632 1962.980,310.650 1973.310,341.493 2015.005 C 361.303 2041.783,398.738 2072.044,428.000 2084.931 C 442.565 2091.346,460.120 2093.506,520.000 2096.248 C 614.878 2100.594,1782.071 2100.694,1880.092 2096.365 C 1947.942 2093.369,1956.030 2092.215,1976.092 2082.672 C 2008.566 2067.223,2044.247 2036.272,2065.214 2005.364 C 2100.466 1953.396,2097.486 2024.918,2099.036 1193.871 L 2100.409 457.743 2084.321 425.871 C 2058.174 374.070,2026.733 343.685,1969.133 314.554 L 1948.266 304.000 1361.133 304.894 C 1038.210 305.386,698.400 306.736,606.000 307.894 M1644.723 1114.970 C 1680.764 1131.015,1702.346 1178.461,1692.670 1220.377 C 1686.162 1248.575,1667.552 1273.800,1642.775 1288.010 L 1622.000 1299.925 1200.872 1299.962 C 739.257 1300.004,767.657 1301.503,738.075 1275.529 C 688.277 1231.806,694.629 1147.166,750.000 1116.620 C 766.900 1107.297,881.499 1105.034,1292.000 1105.917 C 1621.031 1106.624,1626.279 1106.759,1644.723 1114.970 " fill="#1D1E23" stroke="none" fill-rule="evenodd"/></svg>