<svg viewBox="0 0 2400 2400" fill="none" xmlns="http://www.w3.org/2000/svg"><path d="M868.927 635.671 C 803.517 699.291,649.204 852.293,526.008 975.677 L 302.016 1200.011 651.008 1549.002 L 1000.000 1897.994 1000.000 1694.436 L 1000.000 1490.877 1057.000 1493.624 C 1231.797 1502.049,1361.268 1520.823,1477.528 1554.603 C 1615.874 1594.801,1764.094 1672.343,1874.000 1762.020 C 1908.656 1790.297,2012.804 1893.867,2069.118 1956.054 C 2095.707 1985.415,2096.189 1985.727,2093.815 1972.000 C 2089.955 1949.674,2057.679 1834.412,2040.611 1782.000 C 1986.210 1614.942,1903.569 1460.245,1802.444 1336.172 C 1769.167 1295.343,1686.396 1213.011,1638.000 1172.599 C 1565.331 1111.919,1458.550 1045.955,1367.998 1005.807 C 1289.908 971.184,1171.681 935.226,1045.551 907.739 L 1005.103 898.924 1002.575 866.462 C 1001.185 848.608,1000.013 767.400,999.969 686.000 C 999.892 541.264,998.803 520.000,991.461 520.000 C 989.477 520.000,934.337 572.052,868.927 635.671 " fill="#1D1E23" stroke="none" fill-rule="evenodd"/></svg>