<svg viewBox="0 0 2400 2400" fill="none" xmlns="http://www.w3.org/2000/svg"><path d="M866.968 649.476 C 858.700 652.558,839.903 665.636,825.197 678.540 C 790.090 709.341,416.183 1083.878,375.528 1128.966 L 344.000 1163.932 344.000 1193.183 C 344.000 1218.402,345.555 1224.885,355.283 1240.217 C 382.035 1282.377,830.118 1729.987,864.877 1749.272 C 881.173 1758.313,923.292 1756.708,943.463 1746.278 C 962.948 1736.202,990.397 1707.263,993.328 1693.707 C 994.721 1687.268,997.082 1639.022,998.576 1586.494 L 1001.291 1490.987 1067.646 1493.772 C 1274.779 1502.467,1437.212 1532.518,1574.807 1587.600 C 1760.235 1661.830,1898.978 1761.836,2035.960 1920.000 C 2061.683 1949.700,2085.949 1976.665,2089.885 1979.922 C 2096.587 1985.467,2096.862 1984.960,2094.234 1971.922 C 2088.423 1943.088,2058.737 1836.130,2043.189 1788.000 C 1962.783 1539.111,1836.459 1342.560,1658.511 1189.468 C 1486.127 1041.163,1295.457 955.453,1023.000 903.794 L 1000.000 899.433 999.869 828.716 C 999.698 736.114,995.925 707.428,981.154 686.411 C 958.980 654.861,901.983 636.425,866.968 649.476 " fill="#1D1E23" stroke="none" fill-rule="evenodd"/></svg>