<svg viewBox="0 0 2400 2400" fill="none" xmlns="http://www.w3.org/2000/svg"><path d="M872.285 644.441 C 864.742 646.728,851.242 653.721,842.285 659.981 C 833.328 666.241,719.490 778.156,589.312 908.681 C 353.705 1144.915,352.592 1146.108,345.851 1169.607 C 338.333 1195.815,339.850 1220.089,350.317 1241.069 C 359.610 1259.696,838.381 1738.636,858.000 1748.932 C 892.631 1767.105,942.951 1757.158,973.022 1726.195 C 997.275 1701.223,1000.000 1686.786,1000.000 1583.287 L 1000.000 1492.000 1051.200 1492.000 C 1208.718 1492.000,1390.656 1521.105,1529.021 1568.439 C 1748.143 1643.399,1932.951 1778.082,2074.205 1965.754 C 2086.811 1982.504,2097.773 1995.560,2098.565 1994.768 C 2101.059 1992.274,2061.540 1840.074,2045.916 1792.000 C 1886.764 1302.313,1549.052 1000.651,1058.734 910.196 C 1028.337 904.588,1002.687 900.000,1001.734 900.000 C 1000.780 900.000,1000.000 860.626,1000.000 812.503 C 1000.000 718.139,997.732 704.226,978.172 678.581 C 957.032 650.865,905.692 634.312,872.285 644.441 " fill="#1D1E23" stroke="none" fill-rule="evenodd"/></svg>