<svg viewBox="0 0 2400 2400" fill="none" xmlns="http://www.w3.org/2000/svg"><path d="M650.006 851.993 L 302.011 1200.006 651.006 1549.000 L 1000.000 1897.994 1000.000 1694.384 L 1000.000 1490.774 1083.000 1493.250 C 1366.862 1501.720,1598.384 1568.572,1792.000 1697.974 C 1901.937 1771.450,1992.983 1857.842,2074.205 1965.754 C 2086.811 1982.504,2097.773 1995.560,2098.565 1994.768 C 2101.059 1992.274,2061.540 1840.074,2045.916 1792.000 C 1886.764 1302.313,1549.052 1000.651,1058.734 910.196 C 1028.337 904.588,1002.704 900.000,1001.771 900.000 C 1000.838 900.000,999.608 810.896,999.037 701.990 L 998.000 503.981 650.006 851.993 " fill="#1D1E23" stroke="none" fill-rule="evenodd"/></svg>