<svg viewBox="0 0 2400 2400" fill="none" xmlns="http://www.w3.org/2000/svg"><path d="M856.000 652.870 C 843.165 659.191,777.741 722.046,628.000 871.919 C 512.500 987.520,401.875 1099.798,382.166 1121.424 L 346.332 1160.744 344.705 1186.289 C 341.625 1234.659,336.226 1227.012,473.509 1368.714 C 610.235 1509.841,841.576 1736.199,861.502 1748.349 C 878.182 1758.520,916.105 1758.501,938.548 1748.310 C 962.243 1737.551,987.090 1713.661,992.325 1696.606 C 994.793 1688.565,997.754 1639.033,998.912 1586.401 L 1001.016 1490.802 1071.508 1493.496 C 1326.893 1503.255,1515.032 1548.039,1694.769 1641.855 C 1830.953 1712.938,1951.647 1814.094,2059.972 1947.939 C 2082.784 1976.125,2094.341 1987.662,2095.216 1983.119 C 2096.705 1975.387,2076.061 1895.193,2052.250 1816.215 C 1989.075 1606.672,1886.995 1422.110,1758.269 1284.697 C 1562.187 1075.383,1333.831 957.847,1015.378 902.329 L 1000.757 899.779 999.168 808.890 C 997.832 732.453,996.425 715.282,990.319 700.909 C 970.672 654.660,902.140 630.149,856.000 652.870 " fill="#1D1E23" stroke="none" fill-rule="evenodd"/></svg>