<svg viewBox="0 0 2400 2400" fill="none" xmlns="http://www.w3.org/2000/svg"><path d="M647.997 854.003 L 302.012 1200.006 651.006 1549.000 L 1000.000 1897.994 1000.000 1694.997 L 1000.000 1492.000 1033.000 1492.014 C 1074.617 1492.032,1182.148 1498.621,1232.000 1504.207 C 1589.038 1544.218,1867.431 1696.272,2072.000 1963.001 C 2084.100 1978.778,2095.190 1991.757,2096.645 1991.843 C 2103.001 1992.220,2054.476 1813.780,2029.415 1744.618 C 1955.482 1540.587,1858.225 1382.379,1724.027 1247.849 C 1568.567 1092.005,1380.200 987.865,1150.000 930.494 C 1116.917 922.249,1008.915 900.000,1001.974 900.000 C 1000.888 900.000,1000.000 811.800,1000.000 704.000 C 1000.000 596.200,998.646 508.000,996.991 508.000 C 995.337 508.000,838.289 663.701,647.997 854.003 " fill="#1D1E23" stroke="none" fill-rule="evenodd"/></svg>