<svg viewBox="0 0 2400 2400" fill="none" xmlns="http://www.w3.org/2000/svg"><path d="M646.184 855.955 L 302.000 1199.911 651.000 1548.953 L 1000.000 1897.994 1000.000 1694.377 L 1000.000 1490.759 1067.000 1493.484 C 1323.333 1503.910,1501.457 1544.410,1675.833 1631.916 C 1821.504 1705.017,1955.072 1815.722,2066.825 1955.979 C 2085.372 1979.255,2094.311 1987.816,2095.208 1983.159 C 2096.704 1975.392,2076.104 1895.338,2052.250 1816.215 C 1942.412 1451.894,1724.094 1180.893,1417.673 1028.506 C 1313.241 976.571,1209.317 941.943,1074.502 914.162 C 1037.907 906.621,1006.174 899.344,1003.983 897.990 C 1001.429 896.411,1000.000 826.756,1000.000 703.764 C 1000.000 556.928,998.872 512.000,995.184 512.000 C 992.535 512.000,835.485 666.780,646.184 855.955 " fill="#1D1E23" stroke="none" fill-rule="evenodd"/></svg>