<svg viewBox="0 0 2400 2400" fill="none" xmlns="http://www.w3.org/2000/svg"><path d="M876.670 648.034 C 869.339 649.734,853.931 657.605,842.430 665.526 C 830.928 673.447,714.077 787.753,582.759 919.539 L 344.000 1159.149 344.000 1187.314 C 344.000 1222.211,347.664 1232.063,370.654 1258.972 C 433.295 1332.294,820.026 1717.070,856.449 1742.311 C 888.103 1764.247,933.065 1758.549,965.153 1728.534 C 975.903 1718.479,987.188 1705.439,990.230 1699.556 C 994.245 1691.792,996.519 1661.730,998.527 1589.901 L 1001.293 1490.943 1057.646 1493.604 C 1270.842 1503.674,1431.882 1532.033,1560.243 1582.110 C 1740.295 1652.354,1886.965 1753.910,2014.520 1896.657 C 2040.634 1925.881,2069.715 1957.938,2079.144 1967.896 L 2096.287 1986.000 2093.566 1970.000 C 2088.476 1940.072,2044.369 1788.889,2025.690 1737.346 C 1954.253 1540.228,1858.256 1385.696,1724.171 1251.977 C 1543.075 1071.375,1341.980 969.059,1052.068 910.014 C 1025.025 904.506,1002.462 900.000,1001.927 900.000 C 1001.392 900.000,1000.152 859.950,999.171 811.000 C 997.208 713.043,994.821 701.600,971.270 677.266 C 949.745 655.025,905.493 641.351,876.670 648.034 " fill="#1D1E23" stroke="none" fill-rule="evenodd"/></svg>