<svg viewBox="0 0 2400 2400" fill="none" xmlns="http://www.w3.org/2000/svg"><path d="M647.662 854.996 L 302.000 1199.619 651.000 1548.807 L 1000.000 1897.994 1000.000 1694.997 L 1000.000 1492.000 1021.000 1492.019 C 1057.584 1492.051,1171.844 1499.822,1232.000 1506.369 C 1485.793 1533.991,1690.752 1615.042,1872.000 1759.459 C 1919.688 1797.455,2016.068 1893.683,2057.836 1945.000 C 2075.294 1966.450,2091.105 1984.000,2092.970 1984.000 C 2097.988 1984.000,2093.260 1962.383,2069.787 1878.000 C 2019.257 1696.350,1961.191 1564.654,1874.024 1434.000 C 1822.658 1357.008,1791.986 1319.665,1724.182 1251.565 C 1637.856 1164.863,1557.995 1104.756,1454.000 1048.213 C 1336.820 984.502,1232.717 948.721,1045.516 907.815 L 1005.032 898.968 1002.516 874.897 C 1001.132 861.658,999.873 777.741,999.719 688.413 C 999.564 599.086,998.062 522.484,996.381 518.186 C 993.794 511.573,940.230 563.307,647.662 854.996 " fill="#1D1E23" stroke="none" fill-rule="evenodd"/></svg>