<svg viewBox="0 0 2400 2400" fill="none" xmlns="http://www.w3.org/2000/svg"><path d="M1100.000 782.977 L 1100.000 1265.953 972.977 1138.977 C 903.114 1069.139,844.145 1012.000,841.934 1012.000 C 839.723 1012.000,806.890 1043.062,768.972 1081.027 L 700.030 1150.054 950.015 1400.015 L 1200.000 1649.976 1449.986 1400.014 L 1699.971 1150.053 1629.018 1079.017 L 1558.064 1007.981 1429.032 1136.967 L 1300.000 1265.954 1300.000 782.977 L 1300.000 300.000 1200.000 300.000 L 1100.000 300.000 1100.000 782.977 M300.000 1650.000 L 300.000 2100.000 1200.000 2100.000 L 2100.000 2100.000 2100.000 1650.000 L 2100.000 1200.000 2000.000 1200.000 L 1900.000 1200.000 1900.000 1550.000 L 1900.000 1900.000 1200.000 1900.000 L 500.000 1900.000 500.000 1550.000 L 500.000 1200.000 400.000 1200.000 L 300.000 1200.000 300.000 1650.000 " fill="#1D1E23" stroke="none" fill-rule="evenodd"/></svg>