<svg viewBox="0 0 2400 2400" fill="none" xmlns="http://www.w3.org/2000/svg"><path d="M1144.893 320.039 C 1113.889 340.743,1107.849 353.591,1103.670 407.729 C 1101.876 430.978,1100.316 633.438,1100.204 857.639 L 1100.000 1265.279 1019.000 1185.505 C 924.419 1092.356,895.476 1067.517,870.323 1057.911 C 816.237 1037.255,751.449 1078.009,741.728 1138.801 C 737.887 1162.819,746.174 1185.373,768.978 1212.967 C 813.272 1266.565,1129.084 1579.421,1158.060 1598.407 C 1166.717 1604.080,1176.924 1605.895,1200.162 1605.895 C 1227.174 1605.895,1232.747 1604.570,1246.847 1594.799 C 1282.895 1569.818,1586.415 1265.213,1638.056 1202.193 C 1651.823 1185.392,1653.866 1180.145,1655.279 1157.961 C 1657.268 1126.727,1651.168 1107.529,1632.790 1087.188 C 1610.872 1062.927,1591.133 1054.259,1557.487 1054.119 C 1530.677 1054.007,1527.583 1054.956,1505.711 1070.000 C 1492.917 1078.800,1441.398 1126.261,1391.225 1175.469 L 1300.000 1264.938 1299.590 907.469 C 1299.365 710.861,1298.015 507.563,1296.590 455.695 C 1294.015 361.953,1293.936 361.293,1283.224 345.119 C 1267.176 320.888,1231.278 304.000,1195.817 304.000 C 1171.077 304.000,1166.979 305.291,1144.893 320.039 M1974.854 1205.689 C 1952.341 1211.743,1930.711 1228.104,1914.000 1251.719 L 1902.000 1268.676 1899.265 1531.338 C 1897.760 1675.802,1895.408 1804.800,1894.038 1818.000 C 1892.092 1836.740,1888.469 1846.233,1877.505 1861.316 C 1858.285 1887.756,1845.156 1892.370,1778.000 1896.293 C 1705.045 1900.554,695.150 1900.554,621.381 1896.293 C 554.331 1892.420,540.967 1887.404,520.300 1858.354 L 506.323 1838.708 503.456 1728.354 C 501.879 1667.659,500.456 1541.618,500.294 1448.263 C 500.012 1285.417,499.666 1277.835,491.766 1261.517 C 482.252 1241.864,457.100 1217.723,437.687 1209.611 C 417.575 1201.208,374.869 1202.374,356.328 1211.833 C 336.606 1221.894,309.183 1253.046,303.735 1271.577 C 300.851 1281.387,299.931 1389.618,300.857 1610.000 C 302.364 1968.168,301.105 1950.437,328.441 1998.604 C 344.276 2026.506,385.809 2064.451,417.698 2080.150 C 442.180 2092.202,447.805 2093.267,502.955 2096.288 C 579.979 2100.507,1820.106 2100.502,1897.152 2096.282 C 1953.320 2093.206,1957.652 2092.360,1983.035 2079.521 C 2015.683 2063.006,2055.809 2026.340,2071.586 1998.604 C 2099.023 1950.371,2098.044 1965.144,2097.594 1606.000 C 2097.301 1372.522,2095.884 1277.336,2092.522 1265.306 C 2086.249 1242.862,2054.577 1214.263,2026.885 1206.040 C 2002.985 1198.942,2000.017 1198.922,1974.854 1205.689 " fill="#1D1E23" stroke="none" fill-rule="evenodd"/></svg>