<svg viewBox="0 0 2400 2400" fill="none" xmlns="http://www.w3.org/2000/svg"><path d="M1100.000 782.705 L 1100.000 1265.411 972.071 1138.382 L 844.142 1011.354 833.071 1019.405 C 826.982 1023.833,794.558 1055.042,761.017 1088.758 L 700.035 1150.059 950.017 1400.017 L 1200.000 1649.976 1449.986 1400.014 L 1699.971 1150.053 1629.018 1079.017 L 1558.064 1007.981 1429.032 1136.967 L 1300.000 1265.954 1300.000 782.977 L 1300.000 300.000 1200.000 300.000 L 1100.000 300.000 1100.000 782.705 M300.000 1650.000 L 300.000 2100.000 1200.000 2100.000 L 2100.000 2100.000 2100.000 1650.000 L 2100.000 1200.000 2000.000 1200.000 L 1900.000 1200.000 1900.000 1550.000 L 1900.000 1900.000 1200.000 1900.000 L 500.000 1900.000 500.000 1550.000 L 500.000 1200.000 400.000 1200.000 L 300.000 1200.000 300.000 1650.000 " fill="#1D1E23" stroke="none" fill-rule="evenodd"/></svg>