<svg viewBox="0 0 2400 2400" fill="none" xmlns="http://www.w3.org/2000/svg"><path d="M1160.893 310.642 C 1153.684 314.196,1140.478 323.605,1131.547 331.551 C 1101.194 358.557,1102.684 334.375,1100.977 827.687 L 1099.462 1265.374 1032.731 1199.394 C 897.969 1066.148,882.235 1054.299,840.243 1054.443 C 789.878 1054.615,748.336 1091.245,741.439 1141.566 C 737.286 1171.864,751.225 1194.569,816.881 1264.451 C 880.768 1332.450,1084.662 1533.783,1132.420 1576.026 C 1159.805 1600.248,1165.017 1603.205,1184.655 1605.659 C 1212.587 1609.149,1236.321 1603.742,1252.887 1590.114 C 1322.915 1532.508,1634.532 1213.821,1647.965 1186.073 C 1668.780 1143.073,1647.596 1086.073,1602.726 1064.352 C 1577.160 1051.975,1533.217 1052.607,1512.559 1065.647 C 1494.020 1077.350,1446.787 1120.933,1363.458 1203.227 L 1300.915 1264.992 1298.770 825.496 C 1297.479 560.970,1295.060 378.892,1292.694 368.147 C 1282.535 322.015,1205.771 288.522,1160.893 310.642 M1977.297 1205.581 C 1951.142 1214.036,1932.851 1227.191,1916.283 1249.461 L 1901.003 1270.000 1898.294 1537.548 C 1896.804 1684.699,1893.850 1814.243,1891.730 1825.423 C 1889.610 1836.603,1882.953 1852.855,1876.938 1861.540 C 1859.522 1886.681,1841.723 1892.274,1766.470 1896.249 C 1682.397 1900.691,717.192 1900.681,634.000 1896.237 C 555.978 1892.070,542.217 1887.541,521.396 1859.178 L 506.731 1839.199 503.608 1706.600 C 501.891 1633.670,500.366 1510.100,500.221 1432.000 C 500.062 1347.323,498.285 1283.985,495.818 1275.101 C 489.452 1252.182,468.373 1227.672,443.927 1214.765 C 423.939 1204.212,419.433 1203.375,392.967 1205.288 C 373.056 1206.728,359.546 1210.100,349.968 1216.020 C 330.562 1228.013,307.882 1256.872,303.697 1274.898 C 299.158 1294.449,299.232 1810.646,303.786 1892.841 C 306.755 1946.435,308.704 1958.795,317.028 1976.841 C 336.929 2019.982,383.480 2065.324,428.000 2084.931 C 457.444 2097.899,548.694 2099.637,1200.000 2099.637 C 1851.030 2099.637,1942.536 2097.896,1972.000 2084.950 C 2016.001 2065.616,2063.365 2019.347,2083.217 1976.305 C 2092.454 1956.278,2093.486 1947.972,2096.646 1868.305 C 2098.528 1820.837,2099.044 1668.600,2097.793 1530.000 C 2095.277 1251.343,2095.627 1255.037,2069.629 1232.211 C 2039.388 1205.659,2006.445 1196.157,1977.297 1205.581 " fill="#1D1E23" stroke="none" fill-rule="evenodd"/></svg>