<svg viewBox="0 0 2400 2400" fill="none" xmlns="http://www.w3.org/2000/svg"><path d="M777.912 303.821 L 441.825 306.000 412.206 323.599 C 373.042 346.868,337.205 383.659,320.347 417.901 C 307.428 444.145,306.928 447.019,303.723 513.479 C 299.373 603.703,299.442 1798.347,303.802 1886.000 C 307.632 1962.980,310.650 1973.310,341.493 2015.005 C 361.303 2041.783,398.738 2072.044,428.000 2084.931 C 442.565 2091.346,460.120 2093.506,520.000 2096.248 C 615.054 2100.602,1782.153 2100.690,1880.427 2096.351 C 1953.884 2093.108,1955.213 2092.889,1982.427 2079.560 C 2021.032 2060.651,2058.194 2022.860,2078.433 1981.927 L 2094.000 1950.445 2096.552 1802.223 C 2097.955 1720.700,2099.305 1438.893,2099.552 1175.985 L 2100.000 697.970 1900.985 498.985 L 1701.970 300.000 1407.985 300.821 C 1246.293 301.272,962.761 302.622,777.912 303.821 M1500.000 700.000 L 1500.000 900.000 1000.000 900.000 L 500.000 900.000 500.000 700.000 L 500.000 500.000 1000.000 500.000 L 1500.000 500.000 1500.000 700.000 M1238.825 1307.839 C 1273.693 1310.724,1289.881 1314.166,1311.698 1323.332 C 1402.616 1361.532,1477.796 1455.127,1492.336 1548.215 C 1497.801 1583.203,1494.628 1648.229,1485.803 1682.111 C 1466.561 1755.986,1399.426 1835.125,1326.806 1869.536 C 1283.484 1890.064,1249.416 1897.272,1196.000 1897.212 C 1155.590 1897.167,1145.489 1895.678,1112.879 1884.964 C 1031.091 1858.093,971.251 1805.600,930.455 1724.939 C 911.787 1688.028,906.313 1659.361,906.598 1600.000 C 906.906 1535.862,912.802 1509.129,936.913 1462.547 C 957.243 1423.268,1012.741 1364.808,1050.000 1343.423 C 1113.053 1307.233,1149.191 1300.423,1238.825 1307.839 " fill="#1D1E23" stroke="none" fill-rule="evenodd"/></svg>