<svg viewBox="0 0 2400 2400" fill="none" xmlns="http://www.w3.org/2000/svg"><path d="M202.791 306.542 C 201.256 308.077,200.000 464.590,200.000 654.349 L 200.000 999.364 211.000 1001.674 C 217.050 1002.944,348.900 1021.017,504.000 1041.837 C 854.940 1088.947,1544.458 1181.282,1613.426 1190.404 C 1641.710 1194.145,1662.410 1198.521,1659.426 1200.129 C 1647.619 1206.491,1586.801 1215.058,794.000 1322.038 C 346.792 1382.383,228.041 1398.841,213.453 1402.498 C 205.029 1404.609,204.867 1406.428,202.121 1529.320 C 198.268 1701.757,200.925 2086.637,206.000 2091.216 C 210.670 2095.430,130.376 2129.403,1306.148 1625.741 C 2231.045 1229.546,2281.169 1207.817,2285.176 1201.333 C 2288.116 1196.576,2364.793 1229.873,1212.000 735.296 C 49.359 236.493,206.206 303.128,202.791 306.542 " fill="#1D1E23" stroke="none" fill-rule="evenodd"/></svg>