<svg viewBox="0 0 2400 2400" fill="none" xmlns="http://www.w3.org/2000/svg"><path d="M202.667 306.667 C 201.200 308.133,200.000 464.590,200.000 654.349 L 200.000 999.364 211.000 1001.675 C 217.050 1002.946,424.500 1031.041,672.000 1064.109 C 919.500 1097.176,1241.752 1140.379,1388.116 1160.116 C 1534.479 1179.852,1656.789 1196.000,1659.916 1196.000 C 1663.555 1196.000,1664.216 1197.384,1661.753 1199.847 C 1656.785 1204.815,1587.521 1214.669,1014.000 1292.007 C 231.862 1397.475,210.157 1400.497,206.000 1404.523 C 201.153 1409.215,198.235 2038.436,202.901 2072.884 L 206.000 2095.768 372.000 2025.497 C 573.880 1940.037,2164.818 1258.136,2238.757 1225.375 C 2267.773 1212.519,2290.148 1200.614,2288.477 1198.920 C 2286.807 1197.226,2230.666 1172.276,2163.720 1143.476 C 1824.751 997.649,207.534 304.000,206.513 304.000 C 205.864 304.000,204.133 305.200,202.667 306.667 " fill="#1D1E23" stroke="none" fill-rule="evenodd"/></svg>