<svg viewBox="0 0 2400 2400" fill="none" xmlns="http://www.w3.org/2000/svg"><path d="M264.877 359.811 C 240.792 370.934,209.107 404.516,205.163 423.100 C 199.741 448.643,201.395 927.522,206.969 946.050 C 209.918 955.855,219.355 969.545,231.219 981.231 C 259.962 1009.542,215.185 1002.130,962.000 1102.201 C 1599.256 1187.592,1657.256 1195.717,1661.800 1200.228 C 1663.890 1202.302,1664.426 1204.000,1662.992 1204.000 C 1661.557 1204.000,1621.612 1209.386,1574.224 1215.969 C 1526.837 1222.552,1280.601 1255.907,1027.033 1290.091 C 330.770 1383.956,264.016 1393.828,246.086 1405.576 C 240.995 1408.911,229.893 1420.103,221.415 1430.447 L 206.000 1449.253 203.360 1523.627 C 201.907 1564.532,200.557 1681.322,200.360 1783.159 C 200.014 1960.996,200.317 1968.941,208.025 1984.048 C 227.857 2022.922,255.674 2041.998,299.156 2046.543 L 323.057 2049.041 828.528 1832.016 C 2004.361 1327.172,2088.931 1290.342,2111.040 1273.478 C 2151.083 1242.936,2153.622 1167.131,2115.690 1134.663 C 2090.178 1112.826,1978.408 1063.367,1212.000 734.780 C 434.510 401.442,338.757 361.670,296.000 354.312 C 286.330 352.648,276.704 354.348,264.877 359.811 " fill="#1D1E23" stroke="none" fill-rule="evenodd"/></svg>