<svg viewBox="0 0 2400 2400" fill="none" xmlns="http://www.w3.org/2000/svg"><path d="M202.667 306.667 C 201.200 308.133,200.000 464.590,200.000 654.349 L 200.000 999.364 211.000 1001.602 C 217.050 1002.833,412.800 1029.149,646.000 1060.083 C 879.200 1091.017,1184.300 1131.653,1324.000 1150.385 C 1463.700 1169.117,1600.305 1187.398,1627.567 1191.010 C 1659.489 1195.240,1674.440 1198.654,1669.567 1200.602 C 1661.449 1203.846,1544.372 1220.223,1146.000 1273.841 C 1007.400 1292.495,740.009 1328.512,551.799 1353.879 C 363.588 1379.246,207.438 1400.000,204.799 1400.000 C 201.104 1400.000,200.000 1480.154,200.000 1748.466 L 200.000 2096.933 209.000 2095.025 C 213.950 2093.976,648.200 1908.488,1174.000 1682.829 C 2284.267 1206.333,2292.000 1202.993,2292.000 1200.056 C 2292.000 1198.827,2270.850 1188.688,2245.000 1177.524 C 2051.387 1093.907,208.635 304.000,207.181 304.000 C 206.165 304.000,204.133 305.200,202.667 306.667 " fill="#1D1E23" stroke="none" fill-rule="evenodd"/></svg>