<svg viewBox="0 0 2400 2400" fill="none" xmlns="http://www.w3.org/2000/svg"><path d="M200.000 649.446 L 200.000 999.364 211.000 1001.524 C 217.050 1002.712,549.600 1047.106,950.000 1100.177 C 1350.400 1153.247,1680.700 1197.665,1684.000 1198.883 C 1687.300 1200.101,1355.373 1245.827,946.385 1300.497 C 537.397 1355.166,202.137 1400.529,201.363 1401.303 C 200.589 1402.077,200.416 1559.471,200.978 1751.066 L 202.000 2099.421 1249.000 1650.718 C 1824.850 1403.930,2295.959 1201.111,2295.909 1200.007 C 2295.859 1198.903,1825.609 996.540,1250.909 750.311 C 676.209 504.081,204.650 301.925,203.000 301.074 C 201.350 300.224,200.000 456.991,200.000 649.446 " fill="#1D1E23" stroke="none" fill-rule="evenodd"/></svg>