<svg viewBox="0 0 2400 2400" fill="none" xmlns="http://www.w3.org/2000/svg"><path d="M1777.026 306.640 C 1765.945 310.563,1753.795 319.803,1742.026 333.256 L 1724.000 353.863 1724.000 1081.892 L 1724.000 1809.921 1649.000 1735.709 C 1520.664 1608.721,1498.511 1589.056,1476.409 1582.492 C 1462.933 1578.490,1452.129 1577.715,1441.917 1580.019 C 1408.829 1587.481,1376.370 1629.399,1381.696 1657.789 C 1385.075 1675.796,1443.402 1738.792,1644.749 1941.899 L 1799.498 2098.000 1870.139 2028.000 C 2015.260 1884.195,2202.515 1688.703,2211.625 1671.491 C 2219.912 1655.834,2220.399 1652.212,2216.273 1636.947 C 2211.022 1617.521,2192.518 1594.542,2174.712 1585.334 C 2158.777 1577.093,2128.683 1577.373,2112.165 1585.915 C 2096.987 1593.763,2057.110 1630.838,1951.144 1735.616 L 1876.288 1809.633 1875.033 1087.816 C 1874.081 539.941,1872.623 362.713,1868.985 352.359 C 1862.329 333.420,1849.424 320.556,1826.000 309.510 C 1803.010 298.668,1800.039 298.494,1777.026 306.640 M781.207 468.038 C 746.765 493.367,743.048 540.415,772.812 574.314 C 796.016 600.741,790.096 600.000,977.886 600.000 L 1148.170 600.000 1169.703 579.000 C 1207.019 542.608,1208.486 507.433,1174.121 473.069 L 1157.053 456.000 977.314 456.000 L 797.576 456.000 781.207 468.038 M554.000 907.795 C 490.086 910.144,481.968 912.384,468.417 931.414 C 444.704 964.716,448.465 1001.088,478.657 1030.431 L 496.734 1048.000 805.367 1047.977 C 982.094 1047.964,1124.257 1046.320,1138.000 1044.130 C 1158.886 1040.803,1163.945 1038.145,1176.990 1023.650 C 1207.563 989.678,1206.169 958.673,1172.497 923.739 L 1153.471 904.000 883.735 904.795 C 735.381 905.233,587.000 906.583,554.000 907.795 M179.156 1367.000 C 149.914 1398.107,145.109 1424.601,162.413 1459.325 C 177.610 1489.822,184.830 1492.392,267.849 1496.856 C 368.825 1502.287,1120.614 1498.309,1144.000 1492.221 C 1175.976 1483.897,1196.866 1456.694,1196.611 1423.712 C 1196.431 1400.487,1189.135 1385.337,1170.065 1368.594 L 1155.722 1356.000 672.609 1356.000 L 189.497 1356.000 179.156 1367.000 " fill="#1D1E23" stroke="none" fill-rule="evenodd"/></svg>