<svg viewBox="0 0 2400 2400" fill="none" xmlns="http://www.w3.org/2000/svg"><path d="M1769.257 309.515 C 1755.082 316.266,1744.951 324.778,1737.257 336.403 L 1726.000 353.413 1724.886 1081.238 L 1723.772 1809.062 1622.886 1709.457 C 1496.671 1584.845,1490.914 1580.084,1463.269 1577.453 C 1446.184 1575.827,1438.469 1577.256,1424.054 1584.715 C 1401.609 1596.327,1383.746 1621.288,1381.234 1644.548 C 1379.635 1659.354,1381.352 1665.032,1392.559 1682.000 C 1399.825 1693.000,1494.495 1791.100,1602.938 1900.000 L 1800.106 2098.000 1998.192 1898.920 C 2107.140 1789.425,2201.616 1691.423,2208.139 1681.136 C 2222.200 1658.965,2222.937 1646.161,2211.548 1621.931 C 2196.062 1588.987,2165.666 1572.442,2130.354 1577.738 C 2107.853 1581.112,2098.564 1589.168,1969.104 1717.582 L 1876.209 1809.728 1875.104 1083.864 L 1874.000 358.000 1865.644 342.000 C 1854.834 321.303,1830.901 304.625,1808.000 301.832 C 1793.977 300.122,1785.417 301.819,1769.257 309.515 M820.885 454.845 C 792.953 456.294,791.057 457.039,774.240 473.178 C 754.656 491.972,749.381 508.592,753.751 537.734 C 757.052 559.745,769.771 579.067,788.014 589.784 C 801.539 597.729,807.691 598.000,974.654 598.000 L 1147.308 598.000 1164.347 586.000 C 1188.148 569.237,1201.291 543.572,1198.545 519.215 C 1195.629 493.343,1186.701 477.902,1167.188 464.983 L 1150.600 454.000 1000.300 453.668 C 917.635 453.485,836.898 454.015,820.885 454.845 M544.000 903.622 C 499.255 905.750,492.633 907.026,480.989 915.761 C 454.594 935.561,444.259 978.795,459.006 1007.716 C 462.853 1015.259,472.917 1026.959,481.371 1033.716 L 496.742 1046.000 823.662 1046.000 L 1150.583 1046.000 1166.807 1035.264 C 1185.356 1022.989,1200.000 996.661,1200.000 975.585 C 1200.000 954.821,1184.510 927.852,1164.659 914.054 L 1147.318 902.000 870.659 901.622 C 718.497 901.413,571.500 902.313,544.000 903.622 M256.967 1354.884 L 191.933 1356.198 174.322 1373.099 C 154.651 1391.976,149.375 1408.554,153.751 1437.734 C 157.262 1461.145,170.485 1480.184,190.053 1490.000 C 205.728 1497.864,213.982 1498.000,674.000 1498.000 C 1140.878 1498.000,1142.038 1497.980,1158.000 1489.644 C 1166.800 1485.048,1179.400 1473.637,1186.000 1464.286 C 1196.034 1450.070,1197.961 1443.574,1197.763 1424.642 C 1197.467 1396.268,1188.747 1379.255,1167.183 1364.983 L 1150.590 1354.000 736.295 1353.784 C 508.433 1353.666,292.735 1354.160,256.967 1354.884 " fill="#1D1E23" stroke="none" fill-rule="evenodd"/></svg>