<svg viewBox="0 0 2400 2400" fill="none" xmlns="http://www.w3.org/2000/svg"><path d="M1779.686 305.469 C 1759.052 312.845,1747.873 321.658,1735.186 340.549 L 1724.000 357.204 1724.000 1083.075 L 1724.000 1808.945 1619.926 1706.614 C 1562.686 1650.332,1508.236 1599.049,1498.926 1592.652 C 1489.617 1586.255,1474.269 1579.719,1464.821 1578.129 C 1416.928 1570.065,1364.888 1631.174,1385.577 1671.182 C 1392.659 1684.876,1573.309 1872.428,1711.928 2010.000 L 1800.597 2098.000 1980.923 1916.000 C 2189.011 1705.980,2214.447 1678.346,2218.228 1658.193 C 2222.089 1637.608,2204.576 1603.142,2182.999 1588.863 C 2159.274 1573.162,2127.639 1573.643,2103.807 1590.067 C 2094.283 1596.630,2039.130 1648.566,1981.245 1705.479 L 1876.000 1808.958 1876.000 1086.083 C 1876.000 280.046,1878.580 350.103,1847.872 322.360 C 1834.581 310.353,1810.640 299.714,1798.000 300.198 C 1795.800 300.282,1787.559 302.654,1779.686 305.469 M781.277 467.535 C 760.434 482.634,750.549 503.523,752.871 527.563 C 755.435 554.097,766.842 575.120,785.306 587.339 L 801.362 597.965 972.548 599.426 L 1143.735 600.887 1159.793 589.078 C 1192.353 565.133,1205.028 536.556,1196.183 507.034 C 1189.866 485.950,1184.490 478.166,1167.682 465.765 L 1154.446 456.000 975.823 456.000 L 797.200 456.000 781.277 467.535 M500.739 907.958 C 483.797 911.968,468.927 925.706,459.560 946.000 C 444.671 978.259,453.654 1011.966,483.424 1035.544 L 499.151 1048.000 821.774 1048.000 C 1172.742 1048.000,1154.438 1049.168,1176.543 1025.357 C 1191.231 1009.536,1200.006 990.746,1199.967 975.199 C 1199.925 958.053,1181.709 926.917,1164.223 914.099 L 1150.446 904.000 832.223 904.409 C 657.200 904.635,508.032 906.231,500.739 907.958 M173.523 1373.852 C 155.267 1392.905,149.386 1410.341,153.228 1434.019 C 156.663 1455.186,167.812 1475.322,181.493 1485.065 C 193.144 1493.362,200.162 1494.194,284.000 1497.221 C 333.500 1499.008,545.900 1499.802,756.000 1498.985 C 1179.066 1497.340,1152.543 1499.095,1179.311 1470.966 C 1195.422 1454.035,1201.051 1432.540,1195.667 1408.514 C 1190.950 1387.465,1185.210 1378.697,1167.682 1365.765 L 1154.446 1356.000 672.537 1356.000 L 190.629 1356.000 173.523 1373.852 " fill="#1D1E23" stroke="none" fill-rule="evenodd"/></svg>