<svg viewBox="0 0 2400 2400" fill="none" xmlns="http://www.w3.org/2000/svg"><path d="M1773.675 309.542 C 1761.592 315.169,1747.398 326.269,1738.675 336.915 L 1724.000 354.824 1724.000 1082.371 L 1724.000 1809.919 1651.000 1737.698 C 1506.262 1594.506,1488.512 1580.280,1454.351 1580.088 C 1423.591 1579.915,1386.647 1612.587,1381.460 1644.550 C 1379.554 1656.297,1381.847 1661.664,1397.880 1682.993 C 1416.984 1708.407,1620.292 1919.569,1735.832 2034.000 L 1800.452 2098.000 1937.226 1959.991 C 2106.255 1789.436,2207.092 1682.122,2214.552 1664.851 C 2221.793 1648.087,2216.095 1626.791,2198.733 1605.728 C 2178.625 1581.333,2144.375 1573.029,2114.872 1585.395 C 2100.333 1591.489,2050.547 1637.232,1947.488 1739.186 L 1876.976 1808.942 1875.175 1085.471 C 1873.181 284.632,1875.341 343.995,1847.424 322.921 C 1833.791 312.629,1806.726 299.968,1798.512 300.039 C 1796.030 300.061,1784.854 304.337,1773.675 309.542 M775.918 475.000 C 761.748 489.215,756.282 498.168,754.214 510.550 C 750.427 533.216,757.211 555.302,773.976 574.888 C 785.134 587.923,792.268 592.252,808.231 595.676 C 820.795 598.370,889.256 600.000,989.887 600.000 L 1151.380 600.000 1169.734 579.018 C 1205.911 537.662,1207.409 511.751,1175.747 475.000 L 1159.378 456.000 977.117 456.000 L 794.857 456.000 775.918 475.000 M618.000 907.977 C 542.786 909.481,494.070 912.069,487.470 914.910 C 474.198 920.625,462.367 937.105,455.818 959.000 C 448.710 982.766,455.706 1003.752,479.060 1028.720 L 497.497 1048.430 819.748 1047.215 C 1182.312 1045.848,1160.813 1047.731,1183.013 1015.399 C 1199.876 990.840,1202.254 976.162,1192.767 955.197 C 1188.487 945.739,1178.323 930.350,1170.181 921.000 L 1155.377 904.000 946.688 904.788 C 831.910 905.222,684.000 906.657,618.000 907.977 M175.914 1370.709 C 152.039 1397.901,147.568 1417.567,158.180 1448.711 C 166.394 1472.818,181.894 1486.927,206.186 1492.409 C 232.761 1498.406,756.336 1501.502,978.000 1496.973 C 1164.268 1493.167,1161.193 1493.635,1182.397 1465.836 C 1195.081 1449.205,1199.333 1420.220,1192.241 1398.730 C 1189.663 1390.919,1180.449 1378.109,1171.765 1370.264 L 1155.977 1356.000 672.403 1356.000 L 188.829 1356.000 175.914 1370.709 " fill="#1D1E23" stroke="none" fill-rule="evenodd"/></svg>