<svg viewBox="0 0 2400 2400" fill="none" xmlns="http://www.w3.org/2000/svg"><path d="M1770.000 307.560 C 1750.636 316.497,1738.450 329.160,1730.191 348.926 C 1724.681 362.114,1724.000 443.213,1724.000 1086.712 L 1724.000 1809.680 1612.854 1698.993 C 1540.697 1627.134,1496.542 1586.147,1486.982 1582.153 C 1469.853 1574.996,1445.315 1574.189,1429.260 1580.254 C 1404.837 1589.482,1380.287 1623.868,1380.088 1649.128 C 1379.874 1676.189,1390.415 1688.133,1596.627 1894.502 L 1800.974 2099.003 2003.487 1895.249 C 2127.400 1770.577,2208.676 1685.771,2212.895 1676.747 C 2221.780 1657.743,2221.642 1641.926,2212.417 1622.000 C 2193.967 1582.150,2152.658 1565.590,2113.018 1582.153 C 2103.458 1586.147,2059.303 1627.134,1987.146 1698.993 L 1876.000 1809.680 1875.912 1085.840 C 1875.828 390.659,1875.532 361.367,1868.440 346.000 C 1850.346 306.797,1807.720 290.151,1770.000 307.560 M796.000 456.483 C 783.222 461.563,764.899 478.913,757.643 492.801 C 745.144 516.726,753.935 562.051,774.721 580.847 C 795.138 599.311,802.426 600.005,974.872 599.912 C 1124.913 599.831,1139.284 599.232,1154.000 592.440 C 1191.975 574.913,1209.180 533.714,1193.847 497.018 C 1185.908 478.017,1177.490 468.930,1159.159 459.574 C 1145.264 452.482,1133.545 452.016,975.159 452.254 C 873.082 452.407,802.034 454.084,796.000 456.483 M500.581 904.280 C 482.890 911.366,467.825 924.662,459.909 940.178 C 450.544 958.536,449.430 991.478,457.643 1007.199 C 465.220 1021.701,483.466 1038.534,497.260 1043.746 C 504.872 1046.621,611.535 1048.000,826.420 1048.000 C 1130.472 1048.000,1144.965 1047.670,1159.159 1040.426 C 1215.235 1011.806,1212.230 934.435,1154.000 907.560 C 1138.865 900.575,1121.030 900.185,824.000 900.341 C 637.026 900.440,506.189 902.033,500.581 904.280 M196.000 1356.483 C 183.222 1361.563,164.899 1378.913,157.643 1392.801 C 145.144 1416.726,153.935 1462.051,174.721 1480.847 C 196.679 1500.704,178.363 1500.006,674.872 1499.912 C 1116.584 1499.828,1138.740 1499.483,1154.000 1492.440 C 1191.975 1474.913,1209.180 1433.714,1193.847 1397.018 C 1185.908 1378.017,1177.490 1368.930,1159.159 1359.574 C 1144.838 1352.265,1127.911 1352.009,675.159 1352.254 C 374.274 1352.416,202.413 1353.933,196.000 1356.483 " fill="#1D1E23" stroke="none" fill-rule="evenodd"/></svg>