<svg viewBox="0 0 2400 2400" fill="none" xmlns="http://www.w3.org/2000/svg"><path d="M200.000 1149.018 L 200.000 1600.000 650.984 1600.000 L 1101.967 1600.000 920.708 1418.708 L 739.448 1237.416 757.025 1223.013 C 812.451 1177.596,931.308 1113.676,1004.082 1090.150 C 1152.752 1042.088,1348.811 1041.208,1491.879 1087.960 C 1695.837 1154.611,1870.942 1304.999,1964.899 1494.211 C 1974.673 1513.895,1988.572 1544.850,1995.785 1563.000 C 2004.732 1585.513,2010.981 1596.009,2015.450 1596.028 C 2028.073 1596.081,2240.718 1522.782,2242.666 1517.706 C 2243.749 1514.885,2238.003 1495.797,2229.898 1475.289 C 2151.207 1276.172,2010.758 1098.938,1840.000 983.273 C 1602.122 822.144,1315.174 765.646,1032.000 824.184 C 877.333 856.157,708.010 937.917,583.220 1040.881 L 564.440 1056.377 547.220 1041.462 C 537.749 1033.260,455.750 952.633,365.000 862.292 L 200.000 698.036 200.000 1149.018 " fill="#1D1E23" stroke="none" fill-rule="evenodd"/></svg>