<svg viewBox="0 0 2400 2400" fill="none" xmlns="http://www.w3.org/2000/svg"><path d="M200.000 1149.023 L 200.000 1600.000 650.984 1600.000 L 1101.967 1600.000 920.497 1418.497 L 739.027 1236.994 760.513 1220.815 C 819.393 1176.480,942.272 1110.981,1005.222 1090.376 C 1114.916 1054.471,1287.838 1046.073,1419.384 1070.263 C 1513.417 1087.554,1644.976 1148.465,1728.000 1213.149 C 1840.763 1301.003,1915.746 1394.589,1977.820 1524.949 C 1995.321 1561.702,2012.222 1592.764,2015.378 1593.975 C 2022.017 1596.523,2215.274 1532.017,2230.092 1522.307 C 2243.228 1513.701,2242.653 1506.510,2225.511 1465.047 C 2172.863 1337.693,2097.633 1223.011,2002.063 1124.416 C 1907.687 1027.054,1834.768 973.529,1715.791 914.283 C 1628.948 871.038,1591.654 856.842,1510.000 835.949 C 1415.541 811.780,1378.401 807.676,1253.940 807.655 C 1136.595 807.636,1099.300 810.750,1028.000 826.523 C 876.231 860.097,728.461 929.343,604.534 1024.961 L 563.069 1056.955 510.534 1005.495 C 481.640 977.192,399.950 896.438,329.000 826.041 L 200.000 698.046 200.000 1149.023 " fill="#1D1E23" stroke="none" fill-rule="evenodd"/></svg>