<svg viewBox="0 0 2400 2400" fill="none" xmlns="http://www.w3.org/2000/svg"><path d="M1146.000 807.837 C 1124.000 809.617,1094.300 813.200,1080.000 815.798 C 897.248 849.007,752.253 913.454,596.265 1030.809 L 562.530 1056.188 548.265 1042.760 C 540.419 1035.375,499.800 996.376,458.000 956.096 C 416.200 915.816,373.366 875.978,362.814 867.566 C 322.552 835.474,274.828 836.331,233.885 869.880 C 201.526 896.396,203.520 875.416,201.007 1215.868 L 198.770 1518.933 207.951 1537.900 C 213.001 1548.331,223.439 1563.172,231.146 1570.879 C 258.858 1598.591,241.829 1597.195,576.190 1599.171 L 878.379 1600.956 898.550 1590.735 C 955.420 1561.917,975.282 1496.026,941.705 1447.574 C 935.637 1438.819,887.714 1387.755,835.209 1334.100 L 739.745 1236.544 778.873 1208.640 C 916.327 1110.613,1039.851 1065.841,1199.308 1056.253 C 1369.634 1046.011,1518.100 1081.039,1658.272 1164.537 C 1783.913 1239.380,1869.441 1328.238,1956.136 1474.000 C 1967.913 1493.800,1988.450 1520.964,2001.774 1534.364 C 2030.107 1562.859,2052.427 1570.767,2092.648 1566.563 C 2152.030 1560.357,2195.507 1518.110,2205.915 1456.501 C 2210.085 1431.820,2196.536 1393.377,2162.965 1334.641 C 2110.059 1242.078,2080.966 1204.792,1992.097 1115.659 C 1888.121 1011.373,1825.650 966.405,1698.000 903.961 C 1606.776 859.336,1511.854 829.641,1410.000 813.864 C 1363.187 806.613,1205.584 803.015,1146.000 807.837 " fill="#1D1E23" stroke="none" fill-rule="evenodd"/></svg>