<svg viewBox="0 0 2400 2400" fill="none" xmlns="http://www.w3.org/2000/svg"><path d="M200.000 1149.016 L 200.000 1600.000 650.984 1600.000 L 1101.967 1600.000 920.708 1418.708 L 739.448 1237.416 757.504 1222.620 C 813.398 1176.820,913.617 1121.242,985.280 1096.304 C 1071.643 1066.251,1130.966 1055.716,1228.000 1053.200 C 1373.099 1049.437,1481.189 1072.789,1606.000 1134.863 C 1785.695 1224.235,1929.373 1383.160,1998.476 1568.990 C 2006.159 1589.649,2011.729 1599.334,2015.187 1598.043 C 2018.040 1596.979,2070.690 1579.736,2132.187 1559.727 C 2215.721 1532.548,2244.000 1521.757,2244.000 1517.062 C 2244.000 1505.425,2207.432 1418.402,2181.362 1368.000 C 2116.160 1241.942,2013.075 1116.512,1902.000 1028.080 C 1756.123 911.941,1573.272 834.116,1389.724 810.045 C 1150.522 778.676,913.815 827.950,710.282 951.481 C 663.592 979.819,578.994 1040.753,568.074 1053.911 C 563.150 1059.844,543.548 1041.518,381.286 879.286 L 200.000 698.033 200.000 1149.016 " fill="#1D1E23" stroke="none" fill-rule="evenodd"/></svg>