<svg viewBox="0 0 2400 2400" fill="none" xmlns="http://www.w3.org/2000/svg"><path d="M200.000 1149.025 L 200.000 1600.000 650.984 1600.000 L 1101.967 1600.000 920.490 1418.490 L 739.014 1236.981 761.198 1220.593 C 814.614 1181.131,935.683 1115.925,995.397 1094.455 C 1111.643 1052.659,1320.354 1045.090,1450.180 1077.962 C 1542.832 1101.422,1666.468 1163.013,1738.000 1221.345 C 1845.768 1309.225,1906.315 1385.584,1975.209 1520.507 C 2002.421 1573.797,2012.653 1590.290,2019.094 1591.245 C 2027.167 1592.442,2184.364 1542.398,2218.636 1527.721 C 2227.813 1523.791,2236.439 1516.918,2237.875 1512.393 C 2244.059 1492.908,2181.559 1362.995,2126.072 1280.000 C 2078.706 1209.152,2046.381 1170.059,1982.154 1105.950 C 1918.796 1042.710,1878.948 1010.179,1816.823 970.979 C 1768.371 940.406,1654.046 882.852,1606.000 864.846 C 1566.770 850.144,1458.102 822.361,1412.000 815.247 C 1364.798 807.963,1134.418 808.043,1088.000 815.359 C 921.555 841.596,747.499 917.327,604.165 1025.875 L 563.083 1056.987 500.541 995.506 C 466.144 961.691,384.450 880.930,319.000 816.037 L 200.000 698.050 200.000 1149.025 " fill="#1D1E23" stroke="none" fill-rule="evenodd"/></svg>