<svg viewBox="0 0 2400 2400" fill="none" xmlns="http://www.w3.org/2000/svg"><path d="M200.000 1149.021 L 200.000 1600.000 650.984 1600.000 L 1101.967 1600.000 920.560 1418.560 L 739.152 1237.120 763.326 1218.518 C 810.973 1181.855,903.371 1130.376,972.335 1102.071 C 1045.108 1072.203,1145.171 1055.778,1253.968 1055.843 C 1391.997 1055.926,1485.590 1076.724,1597.026 1132.077 C 1687.469 1177.002,1755.256 1227.102,1828.317 1303.019 C 1898.150 1375.580,1946.986 1449.568,1986.638 1542.877 C 1996.716 1566.595,2007.354 1588.543,2010.276 1591.652 C 2014.830 1596.496,2022.332 1595.150,2062.795 1582.224 C 2088.758 1573.931,2140.135 1556.341,2176.967 1543.136 C 2254.184 1515.451,2249.070 1523.785,2225.233 1464.478 C 2146.327 1268.154,1998.371 1087.486,1822.000 972.095 C 1765.718 935.272,1655.430 880.984,1594.967 860.341 C 1539.244 841.317,1466.911 823.292,1406.000 813.252 C 1343.265 802.912,1162.082 802.869,1096.000 813.179 C 911.563 841.954,736.430 918.872,590.587 1035.155 L 563.175 1057.012 526.587 1021.538 C 506.464 1002.027,424.750 921.259,345.000 842.052 L 200.000 698.041 200.000 1149.021 " fill="#1D1E23" stroke="none" fill-rule="evenodd"/></svg>