<svg viewBox="0 0 24 24" fill="none" xmlns="http://www.w3.org/2000/svg"><g><path d="M15.8698 15.2501L12.4998 13.2501V8.72014C12.4998 8.32014 12.1798 8.00014 11.7798 8.00014H11.7198C11.3198 8.00014 10.9998 8.32014 10.9998 8.72014V13.4401C10.9998 13.7901 11.1798 14.1201 11.4898 14.3001L15.1398 16.4901C15.4798 16.6901 15.9198 16.5901 16.1198 16.2501C16.3298 15.9001 16.2198 15.4501 15.8698 15.2501ZM21.1798 5.01014L18.0998 2.45014C17.6798 2.10014 17.0498 2.15014 16.6898 2.58014C16.3398 3.00014 16.3998 3.63014 16.8198 3.99014L19.8898 6.55014C20.3098 6.90014 20.9398 6.85014 21.2998 6.42014C21.6598 6.00014 21.5998 5.37014 21.1798 5.01014ZM4.09976 6.55014L7.16976 3.99014C7.59976 3.63014 7.65976 3.00014 7.29976 2.58014C6.94976 2.15014 6.31976 2.10014 5.89976 2.45014L2.81976 5.01014C2.39976 5.37014 2.33976 6.00014 2.69976 6.42014C3.04976 6.85014 3.67976 6.90014 4.09976 6.55014ZM11.9998 4.00014C7.02976 4.00014 2.99976 8.03014 2.99976 13.0001C2.99976 17.9701 7.02976 22.0001 11.9998 22.0001C16.9698 22.0001 20.9998 17.9701 20.9998 13.0001C20.9998 8.03014 16.9698 4.00014 11.9998 4.00014ZM11.9998 20.0001C8.13976 20.0001 4.99976 16.8601 4.99976 13.0001C4.99976 9.14014 8.13976 6.00014 11.9998 6.00014C15.8598 6.00014 18.9998 9.14014 18.9998 13.0001C18.9998 16.8601 15.8598 20.0001 11.9998 20.0001Z" fill="#1D1E23"/></g></svg>