<svg viewBox="0 0 24 24" fill="none" xmlns="http://www.w3.org/2000/svg"><g><path fill-rule="evenodd" clip-rule="evenodd" d="M2 6C2.55 6 3 5.55 3 5V4C3 3.45 3.45 3 4 3H5C5.55 3 6 2.55 6 2C6 1.45 5.55 1 5 1H4C2.34 1 1 2.34 1 4V5C1 5.55 1.45 6 2 6ZM5 21H4C3.45 21 3 20.55 3 20V19C3 18.45 2.55 18 2 18C1.45 18 1 18.45 1 19V20C1 21.66 2.34 23 4 23H5C5.55 23 6 22.55 6 22C6 21.45 5.55 21 5 21ZM19 1H20C21.66 1 23 2.34 23 4V5C23 5.55 22.55 6 22 6C21.45 6 21 5.55 21 5V4C21 3.45 20.55 3 20 3H19C18.45 3 18 2.55 18 2C18 1.45 18.45 1 19 1ZM22 18C21.45 18 21 18.45 21 19V20C21 20.55 20.55 21 20 21H19C18.45 21 18 21.45 18 22C18 22.55 18.45 23 19 23H20C21.66 23 23 21.66 23 20V19C23 18.45 22.55 18 22 18ZM19 9.13V14.87C19 15.59 18.62 16.25 18 16.6L13 19.48C12.69 19.66 12.35 19.75 12 19.75C11.65 19.75 11.31 19.66 11 19.48L6 16.6C5.38 16.25 5 15.59 5 14.87V9.13C5 8.41 5.38 7.75 6 7.39L11 4.52C11.31 4.34 11.65 4.25 12 4.25C12.35 4.25 12.69 4.34 13 4.52L18 7.4C18.62 7.75 19 8.41 19 9.13ZM7 14.87L11 17.17V12.57L7 10.24V14.87ZM8.04 8.53L12 10.84L15.96 8.53L12 6.25L8.04 8.53ZM13 17.17L17 14.87V10.24L13 12.57V17.17Z" fill="#1D1E23"/></g></svg>