<svg viewBox="0 0 24 24" fill="none" xmlns="http://www.w3.org/2000/svg"><g><path fill-rule="evenodd" clip-rule="evenodd" d="M18 4H19C20.1 4 21 4.9 21 6V20C21 21.1 20.1 22 19 22H5C3.89 22 3 21.1 3 20L3.01 6C3.01 4.9 3.89 4 5 4H6V3C6 2.45 6.45 2 7 2C7.55 2 8 2.45 8 3V4H16V3C16 2.45 16.45 2 17 2C17.55 2 18 2.45 18 3V4ZM5 19C5 19.55 5.45 20 6 20H18C18.55 20 19 19.55 19 19V9H5V19ZM9.09264 12.2682L9.26366 16.1239V18.3636H7.5V10.1818H9.80879L12 16.1136L14.1805 10.1818H16.5V18.3636H14.7257V16.1239L14.9074 12.2682L12.5986 18.3636H11.3907L9.09264 12.2682Z" fill="#1D1E23"/></g></svg>