<svg viewBox="0 0 24 24" fill="none" xmlns="http://www.w3.org/2000/svg"><g><path fill-rule="evenodd" clip-rule="evenodd" d="M18 4H19C20.1 4 21 4.9 21 6V20C21 21.1 20.1 22 19 22H5C3.89 22 3 21.1 3 20L3.01 6C3.01 4.9 3.89 4 5 4H6V3C6 2.45 6.45 2 7 2C7.55 2 8 2.45 8 3V4H16V3C16 2.45 16.45 2 17 2C17.55 2 18 2.45 18 3V4ZM5 19C5 19.55 5.45 20 6 20H18C18.55 20 19 19.55 19 19V9H5V19ZM8 11C7.44772 11 7 11.4477 7 12V15C7 15.5523 7.44772 16 8 16H11C11.5523 16 12 15.5523 12 15V12C12 11.4477 11.5523 11 11 11H8Z" fill="#1D1E23"/></g></svg>