<svg viewBox="0 0 24 24" fill="none" xmlns="http://www.w3.org/2000/svg"><g><path fill-rule="evenodd" clip-rule="evenodd" d="M18 4H19C20.1 4 21 4.9 21 6V20C21 21.1 20.1 22 19 22H5C3.89 22 3 21.1 3 20L3.01 6C3.01 4.9 3.89 4 5 4H6V3C6 2.45 6.45 2 7 2C7.55 2 8 2.45 8 3V4H16V3C16 2.45 16.45 2 17 2C17.55 2 18 2.45 18 3V4ZM6 20H18C18.55 20 19 19.55 19 19V9H5V19C5 19.55 5.45 20 6 20ZM13.8927 11.2925L12.0027 13.1825L10.1127 11.2925C9.72266 10.9025 9.09266 10.9025 8.70266 11.2925C8.31266 11.6825 8.31266 12.3125 8.70266 12.7025L10.5927 14.5925L8.70266 16.4825C8.31266 16.8725 8.31266 17.5025 8.70266 17.8925C9.09266 18.2825 9.72266 18.2825 10.1127 17.8925L12.0027 16.0025L13.8927 17.8925C14.2827 18.2825 14.9127 18.2825 15.3027 17.8925C15.6927 17.5025 15.6927 16.8725 15.3027 16.4825L13.4127 14.5925L15.3027 12.7025C15.6927 12.3125 15.6927 11.6825 15.3027 11.2925C14.9127 10.9125 14.2727 10.9125 13.8927 11.2925Z" fill="#1D1E23"/></g></svg>