<svg viewBox="0 0 24 24" fill="none" xmlns="http://www.w3.org/2000/svg"><g><path d="M17.9994 10.9955V8.09811C17.9994 4.80825 15.392 2.05587 12.1021 2.00088C11.3057 1.98727 10.5145 2.1324 9.77466 2.42782C9.03486 2.72324 8.36131 3.16302 7.79328 3.72151C7.22525 4.28 6.77412 4.94601 6.46622 5.68069C6.15831 6.41537 5.9998 7.20401 5.99991 8.00061V11.0005H4V22H19.9993V10.9955H17.9994ZM7.99983 7.99561C7.99983 6.93479 8.42123 5.91742 9.17135 5.16731C9.92146 4.41719 10.9388 3.99579 11.9997 3.99579C13.0605 3.99579 14.0778 4.41719 14.828 5.16731C15.5781 5.91742 15.9995 6.93479 15.9995 7.99561V10.9955H7.99983V7.99561Z" fill="#1D1E23"/></g></svg>