<svg viewBox="0 0 24 24" fill="none" xmlns="http://www.w3.org/2000/svg"><g><path d="M19.6602 3.99017C17.0202 2.19017 13.7602 3.03017 12.0002 5.09017C10.2402 3.03017 6.98021 2.18017 4.34021 3.99017C2.94021 4.95017 2.06021 6.57017 2.00021 8.28017C1.86021 12.1602 5.30021 15.2702 10.5502 20.0402L10.6502 20.1302C11.4102 20.8202 12.5802 20.8202 13.3402 20.1202L13.4502 20.0202C18.7002 15.2602 22.1302 12.1502 22.0002 8.27017C21.9402 6.57017 21.0602 4.95017 19.6602 3.99017ZM12.1002 18.5502L12.0002 18.6502L11.9002 18.5502C7.14021 14.2402 4.00021 11.3902 4.00021 8.50017C4.00021 6.50017 5.50021 5.00017 7.50021 5.00017C9.04021 5.00017 10.5402 5.99017 11.0702 7.36017H12.9402C13.4602 5.99017 14.9602 5.00017 16.5002 5.00017C18.5002 5.00017 20.0002 6.50017 20.0002 8.50017C20.0002 11.3902 16.8602 14.2402 12.1002 18.5502Z" fill="#1D1E23"/></g></svg>