<svg viewBox="0 0 24 24" fill="none" xmlns="http://www.w3.org/2000/svg"><g><path fill-rule="evenodd" clip-rule="evenodd" d="M10 12C12.2091 12 14 10.2091 14 8C14 5.79086 12.2091 4 10 4C7.79086 4 6 5.79086 6 8C6 10.2091 7.79086 12 10 12ZM10.67 13.02C10.45 13.01 10.23 13 10 13C7.58 13 5.32 13.67 3.39 14.82C2.51 15.34 2 16.32 2 17.35V19C2 19.55 2.45 20 3 20H11.26C10.47 18.87 10 17.49 10 16C10 14.93 10.25 13.93 10.67 13.02ZM20.6938 15.3962C20.7225 15.5967 20.75 15.7892 20.75 16C20.75 16.2108 20.7225 16.4033 20.6938 16.6037L20.69 16.63L21.53 17.36C21.71 17.52 21.75 17.78 21.63 17.99L21.04 19.01C20.92 19.21 20.68 19.31 20.45 19.23L19.39 18.87C19.07 19.14 18.71 19.35 18.31 19.5L18.09 20.59C18.04 20.82 17.84 20.99 17.6 20.99H16.42C16.18 20.99 15.98 20.82 15.93 20.59L15.71 19.5C15.31 19.35 14.95 19.14 14.63 18.87L13.57 19.23C13.35 19.31 13.1 19.22 12.98 19.01L12.39 17.99C12.27 17.78 12.31 17.52 12.49 17.36L13.33 16.63L13.3263 16.6038C13.2976 16.4033 13.27 16.2108 13.27 16C13.27 15.7892 13.2976 15.5967 13.3263 15.3962C13.3275 15.3875 13.3288 15.3787 13.33 15.37L12.49 14.64C12.31 14.48 12.27 14.22 12.39 14.01L12.98 12.99C13.1 12.79 13.34 12.69 13.57 12.77L14.63 13.13C14.95 12.86 15.31 12.65 15.71 12.5L15.93 11.41C15.98 11.18 16.18 11.01 16.42 11.01H17.6C17.84 11.01 18.04 11.18 18.09 11.41L18.31 12.5C18.71 12.65 19.07 12.86 19.39 13.13L20.45 12.77C20.67 12.69 20.92 12.78 21.04 12.99L21.63 14.01C21.75 14.22 21.71 14.48 21.53 14.64L20.69 15.37L20.6938 15.3962ZM15 16C15 17.1 15.9 18 17 18C18.1 18 19 17.1 19 16C19 14.9 18.1 14 17 14C15.9 14 15 14.9 15 16Z" fill="#1D1E23"/></g></svg>