<svg viewBox="0 0 24 24" fill="none" xmlns="http://www.w3.org/2000/svg"><g><path d="M14.5001 13.0001L14.4301 13.7301C15.6301 12.3301 16.2501 10.4201 15.9101 8.39014C15.4401 5.61014 13.1201 3.39014 10.3201 3.05014C6.09014 2.53014 2.53014 6.09014 3.05014 10.3201C3.39014 13.1201 5.61014 15.4401 8.39014 15.9101C10.4201 16.2501 12.3301 15.6301 13.7301 14.4301L13.0001 14.5001L18.2601 19.7501C18.6701 20.1601 19.3301 20.1601 19.7401 19.7501L19.7501 19.7401C20.1601 19.3301 20.1601 18.6701 19.7501 18.2601L14.5001 13.0001ZM9.50014 14.0001C7.01014 14.0001 5.00014 11.9901 5.00014 9.50014C5.00014 7.01014 7.01014 5.00014 9.50014 5.00014C11.9901 5.00014 14.0001 7.01014 14.0001 9.50014C14.0001 11.9901 11.9901 14.0001 9.50014 14.0001ZM7.50014 9.00014H11.5001C11.7801 9.00014 12.0001 9.22014 12.0001 9.50014C12.0001 9.78014 11.7801 10.0001 11.5001 10.0001H7.50014C7.22014 10.0001 7.00014 9.78014 7.00014 9.50014C7.00014 9.22014 7.22014 9.00014 7.50014 9.00014Z" fill="#1D1E23"/></g></svg>