<svg width="1200" height="1200" viewBox="0 0 1200 1200" fill="none" xmlns="http://www.w3.org/2000/svg"><g clip-path="url(#clip0_231_5369)"><path d="M400 800C516.5 800 750 858.5 750 975V1050C750 1077.5 727.5 1100 700 1100H100C72.5 1100 50 1077.5 50 1050V975C50 858.5 283.5 800 400 800Z" fill="black"/><path d="M800 800C916.5 800 1150 858.5 1150 975V1050C1150 1077.5 1127.5 1100 1100 1100H841.015C846.515 1084.5 850 1067.5 850 1050V975C850 901.505 810.51 845.99 753.515 804.49C753.015 803.995 752.51 802.99 751.515 802.49C769.01 800.99 785.505 800 800 800Z" fill="black"/><path d="M400 400C483 400 549.51 467 549.51 550C549.51 633 483 700 400 700C317 700 250 633 250 550C250 467 317 400 400 400Z" fill="black"/><path d="M800 400C883 400 949.51 467 949.51 550C949.51 633 883 700 800 700C717 700 650 633 650 550C650 467 717 400 800 400Z" fill="black"/><path d="M1000 100C1027.5 100 1050 122.5 1050 150V200H1100C1127.5 200 1150 222.5 1150 250C1150 277.5 1127.5 300 1100 300H1050V350C1050 377.5 1027.5 400 1000 400C972.5 400 950 377.5 950 350V300H900C872.5 300 850 277.5 850 250C850 222.5 872.5 200 900 200H950V150C950 122.5 972.5 100 1000 100Z" fill="black"/></g><defs><clipPath id="clip0_231_5369"><path width="24" fill="white" d="M0 0H1200V1200H0V0z"/></clipPath></defs></svg>