<svg xmlns="http://www.w3.org/2000/svg" width="1200" height="1200" fill="none" viewBox="0 0 1200 1200"><g fill="#000" clip-path="url(#a)"><path d="M400 800c116.5 0 350 58.5 350 175v125H50V975c0-116.5 233.5-175 350-175M800 800c116.5 0 350 58.5 350 175v125H850V975c0-74-40.49-130.51-98.485-172.51 17.495-1.5 33.99-2.49 48.485-2.49M400 400c83 0 149.51 67 149.51 150S483 700 400 700s-150-67-150-150 67-150 150-150M800 400c83 0 149.51 67 149.51 150S883 700 800 700s-150-67-150-150 67-150 150-150M1050 100v100h100v100h-100v100H950V300H850V200h100V100z"/></g><defs><clipPath id="a"><path fill="#fff" d="M0 0h1200v1200H0z"/></clipPath></defs></svg>