<svg width="1200" height="1200" viewBox="0 0 1200 1200" fill="none" xmlns="http://www.w3.org/2000/svg"><g clip-path="url(#clip0_122_383)"><path d="M750 600C860.5 600 950 510.5 950 400C950 289.5 860.5 200 750 200C639.5 200 550 289.5 550 400C550 510.5 639.5 600 750 600ZM300 500V350H200V500H50V600H200V750H300V600H450V500H300ZM750 700C616.5 700 350 767 350 900V1000H1150V900C1150 767 883.5 700 750 700Z" fill="black"/></g><defs><clipPath id="clip0_122_383"><path width="24" fill="white" d="M0 0H1200V1200H0V0z"/></clipPath></defs></svg>