<svg xmlns="http://www.w3.org/2000/svg" width="1200" height="1200" fill="none"><g fill="#1D1E23" clip-path="url(#a)"><path d="M1099.745 781.72A752.892 752.892 0 0 0 418.36 100.255a62.71 62.71 0 0 0-68.36 62.5 62.596 62.596 0 0 0 56.836 62.5c301.134 27.05 541.014 266.855 567.969 567.97a62.61 62.61 0 0 0 20.215 40.55 62.62 62.62 0 0 0 42.285 16.285c8.71 0 17.32-1.815 25.29-5.33a62.6 62.6 0 0 0 20.995-15.075 62.7 62.7 0 0 0 13.125-22.265 62.6 62.6 0 0 0 3.03-25.67"/><path fill-rule="evenodd" d="M347.441 600A248.93 248.93 0 0 0 225 633.44V412.481a62.5 62.5 0 0 0-62.5-62.5 62.5 62.5 0 0 0-62.5 62.5V849.98a250.002 250.002 0 1 0 500-1.76C599.045 710.43 485.234 598.615 347.441 600m-85.829 338.39A125 125 0 0 1 225 850c0-24.725 7.331-48.89 21.066-69.445a125 125 0 0 1 56.098-46.04 125.04 125.04 0 0 1 72.222-7.115 125.03 125.03 0 0 1 64.002 34.21 125.01 125.01 0 0 1 27.096 136.225 125 125 0 0 1-46.038 56.1 125 125 0 0 1-157.834-15.545"/><path d="M834.395 725.74c.33 1.235 1.835 7.5 2.285 9.455a503 503 0 0 1 8.3 43.87 62.385 62.385 0 0 1-61.935 70.915 62.5 62.5 0 0 1-40.9-15.26 62.5 62.5 0 0 1-20.935-38.315 373.6 373.6 0 0 0-12.46-55.935c-.04-.12-.35-1.095-.74-2.34-.52-1.64-1.185-3.75-1.585-4.985a375.43 375.43 0 0 0-115.22-170.285 375.4 375.4 0 0 0-187.63-84.071A62.5 62.5 0 0 1 350 416.953a62.4 62.4 0 0 1 21.319-47.177 62.387 62.387 0 0 1 49.599-14.834 500.26 500.26 0 0 1 262.267 122.186 500.26 500.26 0 0 1 150.76 246.952c.04.155.085.3.125.445.115.405.225.8.325 1.215"/></g><defs><clipPath id="a"><path fill="#fff" d="M0 0h1200v1200H0z"/></clipPath></defs></svg>