<svg xmlns="http://www.w3.org/2000/svg" width="1200" height="1200" fill="none"><g clip-path="url(#a)"><path fill="#1D1E23" d="M1100 600c0-276.152-223.865-500-500-500-276.133 0-500 223.848-500 500 0 249.55 182.851 456.405 421.875 493.905V744.53H394.922V600h126.953V489.844c0-125.313 74.65-194.531 188.85-194.531 54.685 0 111.93 9.765 111.93 9.765v123.047H759.61c-62.11 0-81.485 38.535-81.485 78.125V600h138.67L794.63 744.53H678.125v349.375C917.15 1056.405 1100 849.55 1100 600"/></g><defs><clipPath id="a"><path fill="#fff" d="M0 0h1200v1200H0z"/></clipPath></defs></svg>