<svg width="1200" height="1200" viewBox="0 0 1200 1200" fill="none" xmlns="http://www.w3.org/2000/svg"><path d="M536.465 189.563C526.745 172.659 539.255 151.629 558.75 152.106L736.88 156.472C745.605 156.686 753.585 161.435 757.94 169.001L1062.555 698.66C1072.28 715.56 1059.765 736.595 1040.275 736.115L862.145 731.75C853.42 731.535 845.44 726.785 841.085 719.22L536.465 189.563Z" fill="black"/><path d="M318.064 993.8C298.546 993.8 286.555 972.43 296.726 955.77L389.541 803.74C394.082 796.305 402.166 791.77 410.879 791.77L1049.395 791.77C1069.09 791.77 1081.05 813.48 1070.525 830.13L974.4 982.16C969.82 989.405 961.845 993.8 953.27 993.8L318.064 993.8Z" fill="black"/><path d="M247.258 914.68C237.48 931.55 213.012 931.23 203.679 914.11L118.395 757.665C114.218 750 114.339 740.71 118.715 733.16L425.103 204.524C434.881 187.654 459.35 187.974 468.683 205.095L553.965 361.54C558.145 369.204 558.02 378.49 553.645 386.042L247.258 914.68Z" fill="black"/></svg>