<svg width="1200" height="1200" viewBox="0 0 1200 1200" fill="none" xmlns="http://www.w3.org/2000/svg"><g clip-path="url(#clip0_122_376)"><path d="M800 550C883 550 949.5 483 949.5 400C949.5 317 883 250 800 250C717 250 650 317 650 400C650 483 717 550 800 550ZM400 550C483 550 549.5 483 549.5 400C549.5 317 483 250 400 250C317 250 250 317 250 400C250 483 317 550 400 550ZM400 650C283.5 650 50 708.5 50 825V950H750V825C750 708.5 516.5 650 400 650ZM800 650C785.5 650 769 651 751.5 652.5C809.5 694.5 850 751 850 825V950H1150V825C1150 708.5 916.5 650 800 650Z" fill="#1D1E23"/></g><defs><clipPath id="clip0_122_376"><path width="24" fill="white" d="M0 0H1200V1200H0V0z"/></clipPath></defs></svg>