<svg xmlns="http://www.w3.org/2000/svg" width="1200" height="1200" fill="none" viewBox="0 0 1200 1200"><g clip-path="url(#a)"><path fill="#000" d="M800 550c83 0 149.5-67 149.5-150S883 250 800 250s-150 67-150 150 67 150 150 150m-400 0c83 0 149.5-67 149.5-150S483 250 400 250s-150 67-150 150 67 150 150 150m0 100c-116.5 0-350 58.5-350 175v75c0 27.5 22.5 50 50 50h600c27.5 0 50-22.5 50-50v-75c0-116.5-233.5-175-350-175m400 0c-14.5 0-31 1-48.5 2.5 1 .5 1.5 1.5 2 2 57 41.5 96.5 97 96.5 170.5v75c0 17.5-3.5 34.5-9 50h259c27.5 0 50-22.5 50-50v-75c0-116.5-233.5-175-350-175"/></g><defs><clipPath id="a"><path fill="#fff" d="M0 0h1200v1200H0z"/></clipPath></defs></svg>