<svg xmlns="http://www.w3.org/2000/svg" width="1200" height="1200" fill="none"><g clip-path="url(#a)"><path fill="#1D1E23" d="M800 550c83 0 149.5-67 149.5-150S883 250 800 250s-150 67-150 150 67 150 150 150m-400 0c83 0 149.5-67 149.5-150S483 250 400 250s-150 67-150 150 67 150 150 150m0 100c-116.5 0-350 58.5-350 175v125h700V825c0-116.5-233.5-175-350-175m400 0c-14.5 0-31 1-48.5 2.5 58 42 98.5 98.5 98.5 172.5v125h300V825c0-116.5-233.5-175-350-175"/></g><defs><clipPath id="a"><path fill="#fff" d="M0 0h1200v1200H0z"/></clipPath></defs></svg>