<svg xmlns="http://www.w3.org/2000/svg" width="1200" height="1200" fill="none"><g clip-path="url(#a)"><path fill="#000" d="M599.5 100C323.5 100 100 324 100 600s223.5 500 499.5 500C876 1100 1100 876 1100 600S876 100 599.5 100m.5 900c-221 0-400-179-400-400s179-400 400-400 400 179 400 400-179 400-400 400m175-450c41.5 0 75-33.5 75-75s-33.5-75-75-75-75 33.5-75 75 33.5 75 75 75m-350 0c41.5 0 75-33.5 75-75s-33.5-75-75-75-75 33.5-75 75 33.5 75 75 75m175 325c101.5 0 190-55.5 237.5-137.5 9.5-16.5-2.5-37.5-22-37.5h-431c-19 0-31.5 21-22 37.5C410 819.5 498.5 875 600 875"/></g><defs><clipPath id="a"><path fill="#fff" d="M0 0h1200v1200H0z"/></clipPath></defs></svg>