<svg xmlns="http://www.w3.org/2000/svg" width="1200" height="1200" fill="none"><g fill="#000" clip-path="url(#a)"><path fill-rule="evenodd" d="M600 343.243a256.76 256.76 0 0 0-237.214 158.502 256.75 256.75 0 0 0-14.61 148.345 256.77 256.77 0 0 0 70.269 131.465 256.8 256.8 0 0 0 131.465 70.27 256.8 256.8 0 0 0 148.345-14.61 256.73 256.73 0 0 0 115.23-94.57A256.73 256.73 0 0 0 856.76 600a256.77 256.77 0 0 0-75.205-181.555A256.75 256.75 0 0 0 600 343.243m0 423.417c-32.96 0-65.185-9.775-92.59-28.085a166.7 166.7 0 0 1-61.384-74.795 166.67 166.67 0 0 1 36.128-181.626 166.64 166.64 0 0 1 85.331-45.612c32.33-6.43 65.84-3.13 96.295 9.484a166.7 166.7 0 0 1 74.795 61.384 166.66 166.66 0 0 1-20.73 210.435A166.66 166.66 0 0 1 600 766.66"/><path d="M926.895 333.105c0 33.138-26.865 60.001-60 60.001-33.14 0-60-26.863-60-60.001s26.86-60 60-60c33.135 0 60 26.863 60 60"/><path fill-rule="evenodd" d="M600 100.039c-135.801 0-152.832.566-206.153 3.008s-89.57 10.879-121.367 23.242a245.2 245.2 0 0 0-88.574 57.695 245.1 245.1 0 0 0-57.656 88.555c-12.364 31.797-20.82 68.144-23.242 121.367S100 464.218 100 600.06c0 135.84.566 152.81 3.008 206.15 2.441 53.34 10.878 89.57 23.242 121.37a255.6 255.6 0 0 0 57.666 88.56 255.6 255.6 0 0 0 88.564 57.67c31.797 12.36 68.145 20.82 121.367 23.24 53.223 2.425 70.313 3.01 206.153 3.01s152.81-.57 206.15-3.01 89.555-10.88 121.37-23.24a255.8 255.8 0 0 0 88.555-57.675 255.8 255.8 0 0 0 57.675-88.555c12.365-31.8 20.8-68.145 23.24-121.37 2.445-53.22 3.01-70.31 3.01-206.15 0-135.842-.585-152.814-3.01-206.154-2.42-53.339-10.875-89.57-23.24-121.367a245.15 245.15 0 0 0-57.675-88.555 245.15 245.15 0 0 0-88.555-57.676c-31.815-12.362-68.165-20.819-121.37-23.242-53.2-2.421-70.37-3.027-206.15-3.027m0 90.058c133.495 0 149.315.509 202.03 2.911 48.83 2.226 75.235 10.371 92.855 17.207a155.1 155.1 0 0 1 57.48 37.402 154.8 154.8 0 0 1 37.4 57.461c6.855 17.578 15 44.082 17.225 92.832 2.405 52.735 2.91 68.536 2.91 202.05s-.505 149.315-2.91 202.05c-2.225 48.83-10.37 75.215-17.225 92.835a165.6 165.6 0 0 1-37.395 57.495 165.6 165.6 0 0 1-57.485 37.405c-17.58 6.835-44.105 14.98-92.855 17.21-52.735 2.4-68.515 2.91-202.03 2.91-133.516 0-149.337-.51-202.051-2.91-48.829-2.23-75.215-10.375-92.832-17.21a165.52 165.52 0 0 1-94.902-94.825c-6.856-17.575-15-44.08-17.208-92.83-2.422-52.735-2.929-68.535-2.929-202.05s.507-149.317 2.929-202.052c2.208-48.828 10.352-75.214 17.208-92.832a154.8 154.8 0 0 1 37.402-57.5 155.3 155.3 0 0 1 57.5-37.402c17.578-6.836 44.082-14.98 92.832-17.207 52.734-2.403 68.535-2.95 202.051-2.95"/></g><defs><clipPath id="a"><path fill="#fff" d="M0 0h1200v1200H0z"/></clipPath></defs></svg>