<svg xmlns="http://www.w3.org/2000/svg" width="1200" height="1200" fill="none"><g fill="#000" clip-path="url(#a)"><path d="M664.06 583.965c0 156.835-126.265 283.965-282.009 283.965C226.309 867.93 100 740.8 100 583.965 100 427.129 226.289 300 382.051 300c155.764 0 282.009 127.149 282.009 283.965M973.46 583.965c0 147.615-63.13 267.345-141.02 267.345S691.425 731.58 691.425 583.965c0-147.618 63.125-267.325 141.015-267.325s141.02 119.668 141.02 267.325M1050.41 823.455c27.405 0 49.59-107.265 49.59-239.49 0-132.266-22.205-239.493-49.59-239.493-27.38 0-49.59 107.227-49.59 239.493 0 132.265 22.19 239.49 49.59 239.49"/></g><defs><clipPath id="a"><path fill="#fff" d="M0 0h1200v1200H0z"/></clipPath></defs></svg>