<svg width="1200" height="1200" viewBox="0 0 1200 1200" fill="none" xmlns="http://www.w3.org/2000/svg"><g clip-path="url(#clip0_788_1947)"><path fill-rule="evenodd" d="M664.06 583.965C664.06 740.8 537.795 867.93 382.051 867.93C226.309 867.93 100 740.8 100 583.965C100 427.129 226.289 300 382.051 300C537.815 300 664.06 427.149 664.06 583.965ZM973.46 583.965C973.46 731.58 910.33 851.31 832.44 851.31C754.55 851.31 691.425 731.58 691.425 583.965C691.425 436.347 754.55 316.64 832.44 316.64C910.33 316.64 973.46 436.308 973.46 583.965ZM1050.41 823.455C1077.815 823.455 1100 716.19 1100 583.965C1100 451.699 1077.795 344.472 1050.41 344.472C1023.03 344.472 1000.82 451.699 1000.82 583.965C1000.82 716.23 1023.01 823.455 1050.41 823.455Z" fill="#1D1E23"/></g><defs><clipPath id="clip0_788_1947"><path width="24" fill="white" d="M0 0H1200V1200H0V0z"/></clipPath></defs></svg>