<svg width="1200" height="1200" viewBox="0 0 1200 1200" fill="none" xmlns="http://www.w3.org/2000/svg"><path d="M590.015 545C476.515 515.5 440.015 485 440.015 437.5C440.015 383 490.515 345 575.015 345C639.635 345 674.735 367.404 690.26 403.601C700.78 428.122 720.99 450 747.675 450H758.44C786.85 450 810.175 425.992 802.25 398.707C783.47 334.034 733.23 279.805 650.015 259.5V200C650.015 172.386 627.63 150 600.015 150H550.015C522.4 150 500.015 172.386 500.015 200V258C403.015 279 325.015 342 325.015 438.5C325.015 554 420.516 611.5 560.015 645C685.015 675 710.015 719 710.015 765.5C710.015 800 685.515 855 575.015 855C499.328 855 457.389 830.16 438.287 793.575C426.337 770.695 406.276 750 380.46 750H368.831C340.141 750 316.594 774.545 325.402 801.85C350.379 879.275 420.38 924.495 500.015 941.5V1000C500.015 1027.615 522.4 1050 550.015 1050H600.015C627.63 1050 650.015 1027.615 650.015 1000V942.5C747.515 924 825.015 867.5 825.015 765C825.015 623 703.515 574.5 590.015 545Z" fill="black"/></svg>