<svg width="1200" height="1200" viewBox="0 0 1200 1200" fill="none" xmlns="http://www.w3.org/2000/svg"><path d="M642.465 696.325L589.29 724.08C534.65 753.235 465.461 739.355 425.096 690.985L398.942 659.625C376.792 632.94 378.593 594.31 403.146 569.825L566.075 406.896L533.98 388.014C528.845 385.012 522.975 383.411 517.035 383.411H395.873L413.42 348.317C421.694 331.838 414.955 311.822 398.476 303.548L298.397 253.51C281.984 245.303 261.969 251.975 253.695 268.454L53.538 668.77C45.266 685.25 52.004 705.265 68.484 713.535L168.562 763.575C173.299 765.975 178.37 767.045 183.441 767.045C195.716 767.045 207.459 760.24 213.331 748.63L224.673 726.015L483.342 917.295C512.9 939.115 548.125 949.99 583.285 949.99C619.05 949.99 654.675 938.715 684.23 916.23L800.325 827.09L642.465 696.325Z" fill="#1D1E23"/><path d="M1113.97 668.78L913.815 268.466C905.54 251.92 885.59 245.315 869.045 253.522L768.965 303.56C752.485 311.834 745.815 331.849 754.02 348.329L771.635 383.423H683.9L450.317 616.94L476.405 648.295C496.553 672.45 530.915 679.52 558.2 665.045L651.01 616.67L854.835 785.54L939.965 719.885L954.31 748.575C960.185 760.25 971.99 766.99 984.135 766.99C989.14 766.99 994.21 765.855 999.08 763.455L1099.16 713.415C1115.57 705.275 1122.175 685.26 1113.97 668.78Z" fill="#1D1E23"/></svg>