<svg xmlns="http://www.w3.org/2000/svg" width="1200" height="1200" fill="none"><path fill="#000" d="M642.465 696.335 589.29 724.09c-54.64 29.155-123.829 15.28-164.194-33.09l-26.154-31.36c-22.15-26.69-20.349-65.32 4.204-89.805l162.929-162.926-32.095-18.882a33.64 33.64 0 0 0-16.945-4.604H395.873l17.547-35.094c8.274-16.48 1.535-36.495-14.944-44.768l-100.079-50.039c-16.413-8.207-36.428-1.535-44.702 14.944L53.538 668.78c-8.272 16.48-1.534 36.495 14.946 44.77l100.078 50.04c4.737 2.4 9.808 3.465 14.879 3.465a33.5 33.5 0 0 0 29.89-18.41l11.342-22.62L483.342 917.31C512.9 939.125 548.125 950 583.285 950c35.765 0 71.39-11.275 100.945-33.76l116.095-89.135z"/><path fill="#000" d="M1113.97 668.78 913.815 268.466c-8.275-16.546-28.225-23.151-44.77-14.944l-100.08 50.038c-16.48 8.274-23.15 28.289-14.945 44.769l17.615 35.094H683.9L450.317 616.94l26.088 31.355c20.148 24.155 54.51 31.225 81.795 16.75l92.81-48.375 203.825 168.87 85.13-65.655 14.345 28.69c5.875 11.675 17.68 18.415 29.825 18.415 5.005 0 10.075-1.135 14.945-3.535l100.08-50.04c16.41-8.14 23.015-28.155 14.81-44.635"/></svg>