<svg width="1200" height="1200" viewBox="0 0 1200 1200" fill="none" xmlns="http://www.w3.org/2000/svg"><path d="M311.644 300C195.236 300 100 395.236 100 511.645C100 609.005 167.733 691.55 258.732 714.83C256.622 719.065 237.562 778.325 159.26 846.045C119.044 879.91 148.675 943.405 199.476 932.82C356.096 898.955 538.115 797.37 527.525 505.3C527.525 388.909 428.055 300.007 311.647 300.007L311.644 300Z" fill="#1D1E23"/><path d="M889.425 300C773.02 300 677.785 395.236 677.785 511.645C677.785 609.005 745.515 691.55 836.515 714.83C834.405 719.065 815.345 778.325 737.045 846.045C696.825 879.91 726.46 943.405 777.26 932.82C933.88 898.955 1115.895 797.37 1105.31 505.3C1105.31 388.909 1005.84 300.007 889.43 300.007L889.425 300Z" fill="#1D1E23"/></svg>