<svg xmlns="http://www.w3.org/2000/svg" width="1200" height="1200" fill="none"><g fill="#1D1E23" clip-path="url(#a)"><path d="M400 750c116.5 0 350 58.5 350 175v125H50V925c0-116.5 233.5-175 350-175M800 750c116.5 0 350 58.5 350 175v125H850V925c0-74-40.49-130.51-98.485-172.51 17.495-1.5 33.99-2.49 48.485-2.49M400 350c83 0 149.51 67 149.51 150S483 650 400 650s-150-67-150-150 67-150 150-150M800 350c83 0 149.51 67 149.51 150S883 650 800 650s-150-67-150-150 67-150 150-150M1150 150v100H850V150z"/></g><defs><clipPath id="a"><path fill="#fff" d="M0 0h1200v1200H0z"/></clipPath></defs></svg>