<svg xmlns="http://www.w3.org/2000/svg" width="1200" height="1200" fill="none" viewBox="0 0 1200 1200"><g clip-path="url(#a)"><path fill="#000" d="M700 400c0-110.5-89.5-200-200-200s-200 89.5-200 200 89.5 200 200 200 200-89.5 200-200M100 900v50c0 27.5 22.5 50 50 50h700c27.5 0 50-22.5 50-50v-50c0-133-266.5-200-400-200s-400 67-400 200m800-400h200c27.5 0 50 22.5 50 50s-22.5 50-50 50H900c-27.5 0-50-22.5-50-50s22.5-50 50-50"/></g><defs><clipPath id="a"><path fill="#fff" d="M0 0h1200v1200H0z"/></clipPath></defs></svg>