<svg xmlns="http://www.w3.org/2000/svg" width="1200" height="1200" fill="none"><g fill="#1D1E23" clip-path="url(#a)"><path d="M367.5 829c51-80.5 137.5-129 232.5-129s181.5 48 233 129c11 17.5 5.5 40.5-12 51.5-6.5 3.5-13 5.5-20 5.5-12.5 0-25-6-32-17.5-37-59-100-94-169-94s-132 35-169 94c-11 17.5-34 23-51.5 12s-23-34-12-51.5M425 550c41.422 0 75-33.58 75-75 0-41.422-33.578-75-75-75s-75 33.578-75 75c0 41.42 33.579 75 75 75M775 550c41.42 0 75-33.58 75-75 0-41.422-33.58-75-75-75s-75 33.578-75 75c0 41.42 33.58 75 75 75"/><path fill-rule="evenodd" d="M100 600c0-276 223.5-500 499.5-500C876 100 1100 324 1100 600s-224 500-500.5 500c-276 0-499.5-224-499.5-500m100 0c0 221 179 400 400 400s400-179 400-400-179-400-400-400-400 179-400 400"/></g><defs><clipPath id="a"><path fill="#fff" d="M0 0h1200v1200H0z"/></clipPath></defs></svg>