<svg xmlns="http://www.w3.org/2000/svg" width="1200" height="1200" fill="none"><g fill="#000" clip-path="url(#a)"><path d="M427.5 700c35 59.5 98.5 100 172.5 100s137.5-40.5 172.5-100H856c-40 102.5-139.5 175-256 175s-216-72.5-256-175zM425 550c41.422 0 75-33.58 75-75 0-41.422-33.578-75-75-75s-75 33.578-75 75c0 41.42 33.579 75 75 75M775 550c41.42 0 75-33.58 75-75 0-41.422-33.58-75-75-75s-75 33.578-75 75c0 41.42 33.58 75 75 75"/><path fill-rule="evenodd" d="M100 600c0-276 223.5-500 499.5-500C876 100 1100 324 1100 600s-224 500-500.5 500c-276 0-499.5-224-499.5-500m100 0c0 221 179 400 400 400s400-179 400-400-179-400-400-400-400 179-400 400"/></g><defs><clipPath id="a"><path fill="#fff" d="M0 0h1200v1200H0z"/></clipPath></defs></svg>