<svg width="1200" height="1200" viewBox="0 0 1200 1200" fill="none" xmlns="http://www.w3.org/2000/svg"><g clip-path="url(#clip0_133_575)"><path fill-rule="evenodd" d="M100 600C100 324 323.5 100 599.5 100C876 100 1100 324 1100 600C1100 876 876 1100 599.5 1100C323.5 1100 100 876 100 600ZM200 600C200 821 379 1000 600 1000C821 1000 1000 821 1000 600C1000 379 821 200 600 200C379 200 200 379 200 600ZM427.5 700C462.5 759.5 526 800 600 800C674 800 737.5 759.5 772.5 700H856C816 802.5 716.5 875 600 875C483.5 875 384 802.5 344 700H427.5ZM425 550C466.422 550 500 516.42 500 475C500 433.578 466.422 400 425 400C383.579 400 350 433.578 350 475C350 516.42 383.579 550 425 550ZM775 550C816.42 550 850 516.42 850 475C850 433.578 816.42 400 775 400C733.58 400 700 433.578 700 475C700 516.42 733.58 550 775 550Z" fill="#1D1E23"/></g><defs><clipPath id="clip0_133_575"><path width="24" fill="white" d="M0 0H1200V1200H0V0z"/></clipPath></defs></svg>