<svg width="1200" height="1200" viewBox="0 0 1200 1200" fill="none" xmlns="http://www.w3.org/2000/svg"><g clip-path="url(#clip0_231_5358)"><path d="M769 706.5C779.5 689 803 683.5 820.5 694.5C838 705.5 843.5 728.5 832.5 746C781.5 826.5 695 875 600 875C505 875 418.5 827 367.5 745.5C356.5 728 362 705 379.5 694C397 683 420 688.5 431 706C468 765 531 800 600 800C669 800 732 765 769 706.5Z" fill="black"/><path d="M425 550C466.422 550 500 516.42 500 475C500 433.578 466.422 400 425 400C383.579 400 350 433.578 350 475C350 516.42 383.579 550 425 550Z" fill="black"/><path d="M775 550C816.42 550 850 516.42 850 475C850 433.578 816.42 400 775 400C733.58 400 700 433.578 700 475C700 516.42 733.58 550 775 550Z" fill="black"/><path fill-rule="evenodd" d="M100 600C100 324 323.5 100 599.5 100C876 100 1100 324 1100 600C1100 876 876 1100 599.5 1100C323.5 1100 100 876 100 600ZM200 600C200 821 379 1000 600 1000C821 1000 1000 821 1000 600C1000 379 821 200 600 200C379 200 200 379 200 600Z" fill="black"/></g><defs><clipPath id="clip0_231_5358"><path width="24" fill="white" d="M0 0H1200V1200H0V0z"/></clipPath></defs></svg>