<svg xmlns="http://www.w3.org/2000/svg" width="1200" height="1200" fill="none" viewBox="0 0 1200 1200"><g fill="#000" clip-path="url(#a)"><path d="M769 706.5c10.5-17.5 34-23 51.5-12s23 34 12 51.5C781.5 826.5 695 875 600 875s-181.5-48-232.5-129.5c-11-17.5-5.5-40.5 12-51.5s40.5-5.5 51.5 12c37 59 100 94 169 94s132-35 169-93.5M425 550c41.422 0 75-33.58 75-75 0-41.422-33.578-75-75-75s-75 33.578-75 75c0 41.42 33.579 75 75 75M775 550c41.42 0 75-33.58 75-75 0-41.422-33.58-75-75-75s-75 33.578-75 75c0 41.42 33.58 75 75 75"/><path fill-rule="evenodd" d="M100 600c0-276 223.5-500 499.5-500C876 100 1100 324 1100 600s-224 500-500.5 500c-276 0-499.5-224-499.5-500m100 0c0 221 179 400 400 400s400-179 400-400-179-400-400-400-400 179-400 400"/></g><defs><clipPath id="a"><path fill="#fff" d="M0 0h1200v1200H0z"/></clipPath></defs></svg>