<svg xmlns="http://www.w3.org/2000/svg" width="1200" height="1200" fill="none" viewBox="0 0 1200 1200"><g fill="#000" clip-path="url(#a)"><path d="M450 849.955c133.5 0 400 67 400 200v50c-.01 27.495-22.505 50-50 50H100c-27.495 0-49.991-22.505-50-50v-50c0-133 266.5-200 400-200M450 349.957c110.5 0 200 89.5 200 199.998-.01 110.495-89.505 200-200 200-110.494 0-199.991-89.505-200-200 0-110.498 89.5-199.998 200-199.998M950 305.036c0-21.48 25.29-32.944 41.455-18.8L1150 424.957 991.455 563.68C975.29 577.805 950 566.305 950 544.83v-44.873H850c-27.61 0-49.99-22.393-50-50v-50c0-27.614 22.385-50 50-50h100zM708.545 86.237C724.71 72.093 750 83.556 750 105.035v44.923h100c27.615 0 50 22.385 50 50v50c-.01 27.606-22.39 49.999-50 49.999H750v44.873c0 21.473-25.29 32.975-41.455 18.848L550 224.958z"/></g><defs><clipPath id="a"><path fill="#fff" d="M0 0h1200v1200H0z"/></clipPath></defs></svg>