<svg width="1200" height="1200" viewBox="0 0 1200 1200" fill="none" xmlns="http://www.w3.org/2000/svg"><g clip-path="url(#clip0_788_2123)"><path d="M450 850C583.5 850 850 917 850 1050V1150H50V1050C50 917 316.5 850 450 850Z" fill="black"/><path d="M450 350C560.5 350 650 439.5 650 550C650 660.5 560.5 750 450 750C339.5 750 250 660.5 250 550C250 439.5 339.5 350 450 350Z" fill="black"/><path d="M1150 425L950 600V500H800V350H950V250L1150 425Z" fill="black"/><path d="M750 150H900V300H750V400L550 225L750 50V150Z" fill="black"/></g><defs><clipPath id="clip0_788_2123"><path width="24" fill="white" d="M0 0H1200V1200H0V0z"/></clipPath></defs></svg>