<svg xmlns="http://www.w3.org/2000/svg" width="1200" height="1200" fill="none"><g clip-path="url(#a)"><path fill="#1D1E23" d="m444 497 53 53 53-53-106-106-106 106 53 53zm156 378c116.5 0 215.5-73 255.5-175h-511c40 102 139 175 255.5 175m50-378 53 53 53-53 53 53 53-53-106-106zm-50.5-397C323.5 100 100 323.5 100 600s223.5 500 499.5 500S1100 876.5 1100 600 876 100 599.5 100m.5 900c-221 0-400-179-400-400s179-400 400-400 400 179 400 400-179 400-400 400"/></g><defs><clipPath id="a"><path fill="#fff" d="M0 0h1200v1200H0z"/></clipPath></defs></svg>