<svg xmlns="http://www.w3.org/2000/svg" width="1200" height="1200" fill="none"><g clip-path="url(#a)"><path fill="#1D1E23" d="M1090.02 401.738s-9.765-68.906-39.765-99.257c-38.03-39.825-80.645-40.02-100.195-42.344C810.135 250 600.215 250 600.215 250h-.43s-209.922 0-349.863 10.137c-19.532 2.324-62.149 2.519-100.195 42.344C119.746 332.832 110 401.738 110 401.738s-10 80.938-10 161.857v75.86c0 80.915 10 161.855 10 161.855s9.765 68.905 39.727 99.255C187.773 940.39 237.754 939.12 260 943.3c80.078 7.675 340 10.06 340 10.06s210.135-.335 350.06-10.43c19.53-2.345 62.165-2.54 100.195-42.365 29.98-30.35 39.765-99.255 39.765-99.255s9.98-80.94 9.98-161.855v-75.86c0-80.919-9.98-161.857-9.98-161.857M496.758 731.385V450.43l270.157 140.955z"/></g><defs><clipPath id="a"><path fill="#fff" d="M0 0h1200v1200H0z"/></clipPath></defs></svg>